taskRunCount,taskID,taskName,i,channel,pitch,velocity,microseconds
1,1,Ticks_Pract_5,0,5,42,127,390274468
1,1,Ticks_Pract_5,1,5,42,127,390774240
1,1,Ticks_Pract_5,2,5,42,127,391273788
1,1,Ticks_Pract_5,3,1,38,41,391279672
1,1,Ticks_Pract_5,4,5,42,127,391773616
1,1,Ticks_Pract_5,5,1,38,50,391801224
1,1,Ticks_Pract_5,6,5,42,127,392274188
1,1,Ticks_Pract_5,7,1,38,38,392305524
1,1,Ticks_Pract_5,8,1,38,44,392736932
1,1,Ticks_Pract_5,9,5,42,127,392774152
1,1,Ticks_Pract_5,10,1,38,44,393239372
1,1,Ticks_Pract_5,11,5,42,127,393273604
1,1,Ticks_Pract_5,12,1,38,46,393764212
1,1,Ticks_Pract_5,13,5,42,127,393773432
1,1,Ticks_Pract_5,14,1,38,40,394247156
1,1,Ticks_Pract_5,15,5,42,127,394274076
1,1,Ticks_Pract_5,16,1,38,43,394767144
1,1,Ticks_Pract_5,17,5,42,127,394773828
1,1,Ticks_Pract_5,18,1,38,45,395240240
1,1,Ticks_Pract_5,19,5,42,127,395273504
1,1,Ticks_Pract_5,20,1,38,38,395728124
1,1,Ticks_Pract_5,21,5,42,127,395774224
1,1,Ticks_Pract_5,22,1,38,39,396239296
1,1,Ticks_Pract_5,23,5,42,127,396274272
1,1,Ticks_Pract_5,24,1,38,42,396718560
1,1,Ticks_Pract_5,25,5,42,127,396773724
1,1,Ticks_Pract_5,26,1,38,44,397221972
1,1,Ticks_Pract_5,27,5,42,127,397273400
1,1,Ticks_Pract_5,28,1,38,48,397694760
1,1,Ticks_Pract_5,29,5,42,127,397774124
1,1,Ticks_Pract_5,30,1,38,46,398228788
1,1,Ticks_Pract_5,31,5,42,127,398274020
1,1,Ticks_Pract_5,32,1,38,47,398743468
1,1,Ticks_Pract_5,33,5,42,127,398773472
1,1,Ticks_Pract_5,34,1,38,49,399234408
1,1,Ticks_Pract_5,35,5,42,127,399274316
1,1,Ticks_Pract_5,36,1,38,44,399754472
1,1,Ticks_Pract_5,37,5,42,127,399773920
1,1,Ticks_Pract_5,38,1,38,40,400244888
1,1,Ticks_Pract_5,39,5,42,127,400274040
1,1,Ticks_Pract_5,40,5,42,127,400773500
1,1,Ticks_Pract_5,41,1,38,37,400778108
1,1,Ticks_Pract_5,42,1,38,48,401251036
1,1,Ticks_Pract_5,43,5,42,127,401274144
1,1,Ticks_Pract_5,44,1,38,48,401751976
1,1,Ticks_Pract_5,45,5,42,127,401773968
1,1,Ticks_Pract_5,46,1,38,45,402225144
1,1,Ticks_Pract_5,47,5,42,127,402273792
1,1,Ticks_Pract_5,48,1,38,41,402754620
1,1,Ticks_Pract_5,49,5,42,127,402774512
1,1,Ticks_Pract_5,50,1,38,35,403236148
1,1,Ticks_Pract_5,51,5,42,127,403274040
1,1,Ticks_Pract_5,52,1,38,36,403732460
1,1,Ticks_Pract_5,53,5,42,127,403773940
1,1,Ticks_Pract_5,54,1,38,39,404231840
1,1,Ticks_Pract_5,55,5,42,127,404273468
1,1,Ticks_Pract_5,56,1,38,40,404726812
1,1,Ticks_Pract_5,57,5,42,127,404774112
1,1,Ticks_Pract_5,58,1,38,44,405232536
1,1,Ticks_Pract_5,59,5,42,127,405273864
1,1,Ticks_Pract_5,60,1,38,43,405725864
1,1,Ticks_Pract_5,61,5,42,127,405773616
1,1,Ticks_Pract_5,62,1,38,39,406266312
1,1,Ticks_Pract_5,63,5,42,127,406274488
1,1,Ticks_Pract_5,64,5,42,127,406774096
1,1,Ticks_Pract_5,65,1,38,38,406786468
1,1,Ticks_Pract_5,66,5,42,127,407273920
1,1,Ticks_Pract_5,67,1,38,34,407284724
1,1,Ticks_Pract_5,68,1,38,37,407749288
1,1,Ticks_Pract_5,69,5,42,127,407773516
1,1,Ticks_Pract_5,70,1,38,34,408219516
1,1,Ticks_Pract_5,71,5,42,127,408274164
1,1,Ticks_Pract_5,72,1,38,33,408728452
1,1,Ticks_Pract_5,73,5,42,127,408774136
1,1,Ticks_Pract_5,74,1,38,41,409202968
1,1,Ticks_Pract_5,75,5,42,127,409273740
1,1,Ticks_Pract_5,76,1,38,45,409726756
1,1,Ticks_Pract_5,77,5,42,127,409773540
1,1,Ticks_Pract_5,78,1,38,46,410224344
1,1,Ticks_Pract_5,0,9999,9999,9999,9999,390272112
1,1,Ticks_Pract_5,1,9999,9999,9999,9999,390771808
1,1,Ticks_Pract_5,2,9999,9999,9999,9999,391271508
1,1,Ticks_Pract_5,3,9999,9999,9999,9999,391771184
1,1,Ticks_Pract_5,4,9999,9999,9999,9999,392271980
1,1,Ticks_Pract_5,5,9999,9999,9999,9999,392771648
1,1,Ticks_Pract_5,6,9999,9999,9999,9999,393271396
1,1,Ticks_Pract_5,7,9999,9999,9999,9999,393771076
1,1,Ticks_Pract_5,8,9999,9999,9999,9999,394271796
1,1,Ticks_Pract_5,9,9999,9999,9999,9999,394771548
1,1,Ticks_Pract_5,10,9999,9999,9999,9999,395271220
1,1,Ticks_Pract_5,11,9999,9999,9999,9999,395772016
1,1,Ticks_Pract_5,12,9999,9999,9999,9999,396271692
1,1,Ticks_Pract_5,13,9999,9999,9999,9999,396771444
1,1,Ticks_Pract_5,14,9999,9999,9999,9999,397271120
1,1,Ticks_Pract_5,15,9999,9999,9999,9999,397771840
1,1,Ticks_Pract_5,16,9999,9999,9999,9999,398271588
1,1,Ticks_Pract_5,17,9999,9999,9999,9999,398771264
1,1,Ticks_Pract_5,18,9999,9999,9999,9999,399272036
1,1,Ticks_Pract_5,19,9999,9999,9999,9999,399771712
1,1,Ticks_Pract_5,20,9999,9999,9999,9999,400271464
1,1,Ticks_Pract_5,21,9999,9999,9999,9999,400771144
1,1,Ticks_Pract_5,22,9999,9999,9999,9999,401271860
1,1,Ticks_Pract_5,23,9999,9999,9999,9999,401771612
1,1,Ticks_Pract_5,24,9999,9999,9999,9999,402271288
1,1,Ticks_Pract_5,25,9999,9999,9999,9999,402772084
1,1,Ticks_Pract_5,26,9999,9999,9999,9999,403271760
1,1,Ticks_Pract_5,27,9999,9999,9999,9999,403771508
1,1,Ticks_Pract_5,28,9999,9999,9999,9999,404271184
1,1,Ticks_Pract_5,29,9999,9999,9999,9999,404771904
1,1,Ticks_Pract_5,30,9999,9999,9999,9999,405271656
1,1,Ticks_Pract_5,31,9999,9999,9999,9999,405771336
1,1,Ticks_Pract_5,32,9999,9999,9999,9999,406272056
1,1,Ticks_Pract_5,33,9999,9999,9999,9999,406771812
1,1,Ticks_Pract_5,34,9999,9999,9999,9999,407271488
1,1,Ticks_Pract_5,35,9999,9999,9999,9999,407771232
1,1,Ticks_Pract_5,36,9999,9999,9999,9999,408271956
1,1,Ticks_Pract_5,37,9999,9999,9999,9999,408771704
1,1,Ticks_Pract_5,38,9999,9999,9999,9999,409271384
1,1,Ticks_Pract_5,39,9999,9999,9999,9999,409771108
2,0,Ticks_Pract_8,0,5,42,127,419208456
2,0,Ticks_Pract_8,1,1,38,16,419760856
2,0,Ticks_Pract_8,2,5,42,127,420009236
2,0,Ticks_Pract_8,3,5,42,127,420808940
2,0,Ticks_Pract_8,4,1,38,32,420976552
2,0,Ticks_Pract_8,5,5,42,127,421609192
2,0,Ticks_Pract_8,6,1,38,30,421673612
2,0,Ticks_Pract_8,7,5,42,127,422408408
2,0,Ticks_Pract_8,8,1,38,34,422447056
2,0,Ticks_Pract_8,9,5,42,127,423209332
2,0,Ticks_Pract_8,10,1,38,46,423229696
2,0,Ticks_Pract_8,11,5,42,127,424008992
2,0,Ticks_Pract_8,12,1,38,43,424041300
2,0,Ticks_Pract_8,13,5,42,127,424808872
2,0,Ticks_Pract_8,14,1,38,44,424817964
2,0,Ticks_Pract_8,15,1,38,43,425588404
2,0,Ticks_Pract_8,16,5,42,127,425608748
2,0,Ticks_Pract_8,17,1,38,41,426346092
2,0,Ticks_Pract_8,18,5,42,127,426409304
2,0,Ticks_Pract_8,19,1,38,40,427137616
2,0,Ticks_Pract_8,20,5,42,127,427208984
2,0,Ticks_Pract_8,21,1,38,37,427930924
2,0,Ticks_Pract_8,22,5,42,127,428008864
2,0,Ticks_Pract_8,23,1,38,37,428721120
2,0,Ticks_Pract_8,24,5,42,127,428808824
2,0,Ticks_Pract_8,25,1,38,34,429541988
2,0,Ticks_Pract_8,26,5,42,127,429609228
2,0,Ticks_Pract_8,27,1,38,36,430359576
2,0,Ticks_Pract_8,28,5,42,127,430409040
2,0,Ticks_Pract_8,29,1,38,38,431150864
2,0,Ticks_Pract_8,30,5,42,127,431208696
2,0,Ticks_Pract_8,31,1,38,40,431979496
2,0,Ticks_Pract_8,32,5,42,127,432008652
2,0,Ticks_Pract_8,33,1,38,40,432774824
2,0,Ticks_Pract_8,34,5,42,127,432809432
2,0,Ticks_Pract_8,35,1,38,40,433567608
2,0,Ticks_Pract_8,36,5,42,127,433608964
2,0,Ticks_Pract_8,37,1,38,42,434343376
2,0,Ticks_Pract_8,38,5,42,127,434408700
2,0,Ticks_Pract_8,39,1,38,41,435099424
2,0,Ticks_Pract_8,40,5,42,127,435208492
2,0,Ticks_Pract_8,41,1,38,28,435961756
2,0,Ticks_Pract_8,42,5,42,127,436009288
2,0,Ticks_Pract_8,43,5,42,127,436809252
2,0,Ticks_Pract_8,44,1,38,35,436844552
2,0,Ticks_Pract_8,45,5,42,127,437608908
2,0,Ticks_Pract_8,46,1,38,45,437633156
2,0,Ticks_Pract_8,47,5,42,127,438408420
2,0,Ticks_Pract_8,48,1,38,46,438414292
2,0,Ticks_Pract_8,49,1,38,39,439197132
2,0,Ticks_Pract_8,50,5,42,127,439209192
2,0,Ticks_Pract_8,51,1,38,34,439990992
2,0,Ticks_Pract_8,52,5,42,127,440009248
2,0,Ticks_Pract_8,53,1,38,29,440762428
2,0,Ticks_Pract_8,54,5,42,127,440808760
2,0,Ticks_Pract_8,55,1,38,28,441531096
2,0,Ticks_Pract_8,56,5,42,127,441608640
2,0,Ticks_Pract_8,57,1,38,33,442343224
2,0,Ticks_Pract_8,58,5,42,127,442409268
2,0,Ticks_Pract_8,59,1,38,15,443189260
2,0,Ticks_Pract_8,0,9999,9999,9999,9999,419206244
2,0,Ticks_Pract_8,1,9999,9999,9999,9999,420007020
2,0,Ticks_Pract_8,2,9999,9999,9999,9999,420806728
2,0,Ticks_Pract_8,3,9999,9999,9999,9999,421606460
2,0,Ticks_Pract_8,4,9999,9999,9999,9999,422406192
2,0,Ticks_Pract_8,5,9999,9999,9999,9999,423206968
2,0,Ticks_Pract_8,6,9999,9999,9999,9999,424006704
2,0,Ticks_Pract_8,7,9999,9999,9999,9999,424806512
2,0,Ticks_Pract_8,8,9999,9999,9999,9999,425606236
2,0,Ticks_Pract_8,9,9999,9999,9999,9999,426407016
2,0,Ticks_Pract_8,10,9999,9999,9999,9999,427206772
2,0,Ticks_Pract_8,11,9999,9999,9999,9999,428006504
2,0,Ticks_Pract_8,12,9999,9999,9999,9999,428806236
2,0,Ticks_Pract_8,13,9999,9999,9999,9999,429607016
2,0,Ticks_Pract_8,14,9999,9999,9999,9999,430406752
2,0,Ticks_Pract_8,15,9999,9999,9999,9999,431206484
2,0,Ticks_Pract_8,16,9999,9999,9999,9999,432006216
2,0,Ticks_Pract_8,17,9999,9999,9999,9999,432806996
2,0,Ticks_Pract_8,18,9999,9999,9999,9999,433606752
2,0,Ticks_Pract_8,19,9999,9999,9999,9999,434406484
2,0,Ticks_Pract_8,20,9999,9999,9999,9999,435206204
2,0,Ticks_Pract_8,21,9999,9999,9999,9999,436007000
2,0,Ticks_Pract_8,22,9999,9999,9999,9999,436806740
2,0,Ticks_Pract_8,23,9999,9999,9999,9999,437606472
2,0,Ticks_Pract_8,24,9999,9999,9999,9999,438406208
2,0,Ticks_Pract_8,25,9999,9999,9999,9999,439206976
2,0,Ticks_Pract_8,26,9999,9999,9999,9999,440006736
2,0,Ticks_Pract_8,27,9999,9999,9999,9999,440806472
2,0,Ticks_Pract_8,28,9999,9999,9999,9999,441606204
2,0,Ticks_Pract_8,29,9999,9999,9999,9999,442406980
3,4,T1_SMS_5,0,5,42,127,515707228
3,4,T1_SMS_5,1,5,42,127,516206928
3,4,T1_SMS_5,2,1,48,21,516566944
3,4,T1_SMS_5,3,5,42,127,516706604
3,4,T1_SMS_5,4,5,42,127,517207352
3,4,T1_SMS_5,5,1,48,31,517265720
3,4,T1_SMS_5,6,1,48,48,517699892
3,4,T1_SMS_5,7,5,42,127,517707168
3,4,T1_SMS_5,8,5,42,127,518206852
3,4,T1_SMS_5,9,1,48,55,518209892
3,4,T1_SMS_5,10,1,48,57,518702752
3,4,T1_SMS_5,11,5,42,127,518706668
3,4,T1_SMS_5,12,1,48,56,519200564
3,4,T1_SMS_5,13,5,42,127,519207168
3,4,T1_SMS_5,14,5,42,127,519706852
3,4,T1_SMS_5,15,1,48,68,519746632
3,4,T1_SMS_5,16,5,42,127,520206652
3,4,T1_SMS_5,17,1,48,52,520222836
3,4,T1_SMS_5,18,5,42,127,520706624
3,4,T1_SMS_5,19,1,48,51,520728636
3,4,T1_SMS_5,20,5,42,127,521207200
3,4,T1_SMS_5,21,1,48,55,521226372
3,4,T1_SMS_5,22,5,42,127,521706728
3,4,T1_SMS_5,23,1,48,49,521720896
3,4,T1_SMS_5,24,5,42,127,522206552
3,4,T1_SMS_5,25,1,48,57,522234456
3,4,T1_SMS_5,26,5,42,127,522707572
3,4,T1_SMS_5,27,1,48,56,522709360
3,4,T1_SMS_5,28,1,48,55,523185256
3,4,T1_SMS_5,29,5,42,127,523206944
3,4,T1_SMS_5,30,1,48,40,523699940
3,4,T1_SMS_5,31,5,42,127,523706696
3,4,T1_SMS_5,32,1,48,48,524188916
3,4,T1_SMS_5,33,5,42,127,524206816
3,4,T1_SMS_5,34,1,48,50,524677544
3,4,T1_SMS_5,35,5,42,127,524707144
3,4,T1_SMS_5,36,1,48,37,525192600
3,4,T1_SMS_5,37,5,42,127,525206896
3,4,T1_SMS_5,38,1,48,40,525665320
3,4,T1_SMS_5,39,5,42,127,525706644
3,4,T1_SMS_5,40,1,48,55,526204496
3,4,T1_SMS_5,41,5,42,127,526207588
3,4,T1_SMS_5,42,1,48,46,526675648
3,4,T1_SMS_5,43,5,42,127,526706972
3,4,T1_SMS_5,44,1,48,27,527201536
3,4,T1_SMS_5,45,5,42,127,527206796
3,4,T1_SMS_5,46,5,42,127,527706480
3,4,T1_SMS_5,47,1,48,33,527718780
3,4,T1_SMS_5,48,1,48,50,528201860
3,4,T1_SMS_5,49,5,42,127,528207340
3,4,T1_SMS_5,50,1,48,62,528703848
3,4,T1_SMS_5,51,5,42,127,528706944
3,4,T1_SMS_5,52,5,42,127,529206552
3,4,T1_SMS_5,53,1,48,62,529208040
3,4,T1_SMS_5,54,1,48,61,529703276
3,4,T1_SMS_5,55,5,42,127,529707492
3,4,T1_SMS_5,56,1,48,54,530173232
3,4,T1_SMS_5,57,5,42,127,530207240
3,4,T1_SMS_5,58,1,48,58,530693068
3,4,T1_SMS_5,59,5,42,127,530706768
3,4,T1_SMS_5,60,1,48,62,531197224
3,4,T1_SMS_5,61,5,42,127,531206596
3,4,T1_SMS_5,62,5,42,127,531707172
3,4,T1_SMS_5,63,1,48,64,531726640
3,4,T1_SMS_5,64,1,48,64,532190680
3,4,T1_SMS_5,65,5,42,127,532207212
3,4,T1_SMS_5,66,1,48,54,532682816
3,4,T1_SMS_5,67,5,42,127,532706668
3,4,T1_SMS_5,68,5,42,127,533207548
3,4,T1_SMS_5,69,1,48,51,533209112
3,4,T1_SMS_5,70,1,48,55,533696656
3,4,T1_SMS_5,71,5,42,127,533707288
3,4,T1_SMS_5,72,1,48,56,534189312
3,4,T1_SMS_5,73,5,42,127,534206964
3,4,T1_SMS_5,74,5,42,127,534706576
3,4,T1_SMS_5,75,1,48,64,534714768
3,4,T1_SMS_5,76,1,48,50,535199768
3,4,T1_SMS_5,77,5,42,127,535207364
3,4,T1_SMS_5,78,5,42,127,535707172
3,4,T1_SMS_5,79,1,48,51,535714244
3,4,T1_SMS_5,80,5,42,127,536206772
3,4,T1_SMS_5,81,1,48,52,536209888
3,4,T1_SMS_5,82,1,48,54,536670492
3,4,T1_SMS_5,83,5,42,127,536706292
3,4,T1_SMS_5,84,5,42,127,537207020
3,4,T1_SMS_5,85,1,48,42,537212672
3,4,T1_SMS_5,86,5,42,127,537706848
3,4,T1_SMS_5,87,1,48,51,537721608
3,4,T1_SMS_5,88,5,42,127,538206596
3,4,T1_SMS_5,89,1,48,51,538209712
3,4,T1_SMS_5,90,5,42,127,538707392
3,4,T1_SMS_5,91,1,48,55,538712076
3,4,T1_SMS_5,92,5,42,127,539207140
3,4,T1_SMS_5,93,1,48,50,539230348
3,4,T1_SMS_5,94,1,48,44,539683256
3,4,T1_SMS_5,95,5,42,127,539706884
3,4,T1_SMS_5,96,1,48,57,540202052
3,4,T1_SMS_5,97,5,42,127,540206412
3,4,T1_SMS_5,98,5,42,127,540707068
3,4,T1_SMS_5,99,1,48,52,540708480
3,4,T1_SMS_5,100,1,48,49,541203044
3,4,T1_SMS_5,101,5,42,127,541206884
3,4,T1_SMS_5,102,1,48,41,541687408
3,4,T1_SMS_5,103,5,42,127,541706784
3,4,T1_SMS_5,104,1,48,52,542168868
3,4,T1_SMS_5,105,5,42,127,542207284
3,4,T1_SMS_5,106,1,48,51,542668028
3,4,T1_SMS_5,107,5,42,127,542707036
3,4,T1_SMS_5,108,1,48,50,543192568
3,4,T1_SMS_5,109,5,42,127,543206864
3,4,T1_SMS_5,110,1,48,57,543663940
3,4,T1_SMS_5,111,5,42,127,543706464
3,4,T1_SMS_5,112,1,48,57,544172952
3,4,T1_SMS_5,113,5,42,127,544207184
3,4,T1_SMS_5,114,1,48,46,544681068
3,4,T1_SMS_5,115,5,42,127,544706936
3,4,T1_SMS_5,116,1,48,61,545186540
3,4,T1_SMS_5,117,5,42,127,545206612
3,4,T1_SMS_5,118,1,48,61,545667776
3,4,T1_SMS_5,119,5,42,127,545707336
3,4,T1_SMS_5,120,1,48,61,546184328
3,4,T1_SMS_5,121,5,42,127,546207132
3,4,T1_SMS_5,122,1,48,62,546679972
3,4,T1_SMS_5,123,5,42,127,546706660
3,4,T1_SMS_5,124,1,48,55,547179944
3,4,T1_SMS_5,125,5,42,127,547206560
3,4,T1_SMS_5,126,1,48,58,547683128
3,4,T1_SMS_5,127,5,42,127,547707208
3,4,T1_SMS_5,128,1,48,50,548196548
3,4,T1_SMS_5,129,5,42,127,548206960
3,4,T1_SMS_5,130,5,42,127,548706792
3,4,T1_SMS_5,131,1,48,49,548719612
3,4,T1_SMS_5,132,1,48,51,549191568
3,4,T1_SMS_5,133,5,42,127,549207436
3,4,T1_SMS_5,134,1,48,49,549685496
3,4,T1_SMS_5,135,5,42,127,549707108
3,4,T1_SMS_5,136,1,48,53,550183600
3,4,T1_SMS_5,137,5,42,127,550206932
3,4,T1_SMS_5,138,1,48,55,550686636
3,4,T1_SMS_5,139,5,42,127,550706464
3,4,T1_SMS_5,140,1,48,49,551184000
3,4,T1_SMS_5,141,5,42,127,551207480
3,4,T1_SMS_5,142,1,48,46,551668296
3,4,T1_SMS_5,143,5,42,127,551707008
3,4,T1_SMS_5,144,1,48,48,552187684
3,4,T1_SMS_5,145,5,42,127,552206684
3,4,T1_SMS_5,146,1,48,46,552687360
3,4,T1_SMS_5,147,5,42,127,552706360
3,4,T1_SMS_5,148,1,48,53,553191596
3,4,T1_SMS_5,149,5,42,127,553207084
3,4,T1_SMS_5,150,1,48,50,553695900
3,4,T1_SMS_5,151,5,42,127,553707208
3,4,T1_SMS_5,152,1,48,48,554193040
3,4,T1_SMS_5,153,5,42,127,554206588
3,4,T1_SMS_5,154,1,48,42,554658712
3,4,T1_SMS_5,155,5,42,127,554707284
3,4,T1_SMS_5,156,1,48,49,555173768
3,4,T1_SMS_5,157,5,42,127,555206960
3,4,T1_SMS_5,158,5,42,127,555706644
3,4,T1_SMS_5,159,1,48,44,555710204
3,4,T1_SMS_5,160,1,48,53,556169964
3,4,T1_SMS_5,161,5,42,127,556206612
3,4,T1_SMS_5,162,1,48,55,556687412
3,4,T1_SMS_5,163,5,42,127,556707472
3,4,T1_SMS_5,164,1,48,44,557192980
3,4,T1_SMS_5,165,5,42,127,557207200
3,4,T1_SMS_5,166,1,48,43,557682352
3,4,T1_SMS_5,167,5,42,127,557706804
3,4,T1_SMS_5,168,1,48,40,558135436
3,4,T1_SMS_5,169,5,42,127,558207228
3,4,T1_SMS_5,170,1,48,61,558697988
3,4,T1_SMS_5,171,5,42,127,558707204
3,4,T1_SMS_5,172,5,42,127,559206740
3,4,T1_SMS_5,173,1,48,51,559222548
3,4,T1_SMS_5,174,5,42,127,559706416
3,4,T1_SMS_5,175,1,48,52,559707384
3,4,T1_SMS_5,176,1,48,53,560200976
3,4,T1_SMS_5,177,5,42,127,560207056
3,4,T1_SMS_5,178,1,48,54,560699756
3,4,T1_SMS_5,179,5,42,127,560707104
3,4,T1_SMS_5,180,1,48,54,561180316
3,4,T1_SMS_5,181,5,42,127,561206632
3,4,T1_SMS_5,182,1,48,46,561682460
3,4,T1_SMS_5,183,5,42,127,561707356
3,4,T1_SMS_5,184,1,48,49,562160476
3,4,T1_SMS_5,185,5,42,127,562207104
3,4,T1_SMS_5,186,1,48,52,562674716
3,4,T1_SMS_5,187,5,42,127,562707004
3,4,T1_SMS_5,188,1,48,57,563184616
3,4,T1_SMS_5,189,5,42,127,563206384
3,4,T1_SMS_5,190,1,48,55,563698112
3,4,T1_SMS_5,191,5,42,127,563707180
3,4,T1_SMS_5,192,5,42,127,564206936
3,4,T1_SMS_5,193,1,48,28,564215724
3,4,T1_SMS_5,194,1,48,52,564664388
3,4,T1_SMS_5,195,5,42,127,564706828
3,4,T1_SMS_5,196,5,42,127,565207416
3,4,T1_SMS_5,197,1,48,51,565219112
3,4,T1_SMS_5,198,5,42,127,565707012
3,4,T1_SMS_5,199,1,48,58,565716920
3,4,T1_SMS_5,200,1,48,52,566202844
3,4,T1_SMS_5,201,5,42,127,566206760
3,4,T1_SMS_5,202,1,48,55,566696616
3,4,T1_SMS_5,203,5,42,127,566706508
3,4,T1_SMS_5,204,1,48,50,567199256
3,4,T1_SMS_5,205,5,42,127,567207232
3,4,T1_SMS_5,206,1,48,56,567694828
3,4,T1_SMS_5,207,5,42,127,567706956
3,4,T1_SMS_5,208,1,48,57,568183524
3,4,T1_SMS_5,209,5,42,127,568206780
3,4,T1_SMS_5,210,1,48,58,568691340
3,4,T1_SMS_5,211,5,42,127,568706608
3,4,T1_SMS_5,212,1,48,56,569195420
3,4,T1_SMS_5,213,5,42,127,569207032
3,4,T1_SMS_5,214,1,48,55,569676428
3,4,T1_SMS_5,215,5,42,127,569706708
3,4,T1_SMS_5,216,1,48,63,570204648
3,4,T1_SMS_5,217,5,42,127,570206532
3,4,T1_SMS_5,218,1,48,56,570687960
3,4,T1_SMS_5,219,5,42,127,570707476
3,4,T1_SMS_5,220,1,48,57,571207160
3,4,T1_SMS_5,221,5,42,127,571208804
3,4,T1_SMS_5,222,1,48,49,571686188
3,4,T1_SMS_5,223,5,42,127,571706680
3,4,T1_SMS_5,224,1,48,54,572182728
3,4,T1_SMS_5,225,5,42,127,572206504
3,4,T1_SMS_5,226,1,48,50,572686808
3,4,T1_SMS_5,227,5,42,127,572707448
3,4,T1_SMS_5,228,1,48,46,573195596
3,4,T1_SMS_5,229,5,42,127,573206904
3,4,T1_SMS_5,230,1,48,47,573684148
3,4,T1_SMS_5,231,5,42,127,573706656
3,4,T1_SMS_5,232,1,48,46,574181956
3,4,T1_SMS_5,233,5,42,127,574207376
3,4,T1_SMS_5,234,1,48,50,574698512
3,4,T1_SMS_5,235,5,42,127,574707204
3,4,T1_SMS_5,236,1,48,53,575204384
3,4,T1_SMS_5,237,5,42,127,575206804
3,4,T1_SMS_5,238,5,42,127,575706488
3,4,T1_SMS_5,239,1,48,50,575712888
3,4,T1_SMS_5,240,1,48,54,576197460
3,4,T1_SMS_5,241,5,42,127,576207352
3,4,T1_SMS_5,242,1,48,48,576691836
3,4,T1_SMS_5,243,5,42,127,576706956
3,4,T1_SMS_5,244,1,48,49,577175208
3,4,T1_SMS_5,245,5,42,127,577206484
3,4,T1_SMS_5,246,1,48,41,577655172
3,4,T1_SMS_5,247,5,42,127,577707284
3,4,T1_SMS_5,248,1,48,51,578181508
3,4,T1_SMS_5,249,5,42,127,578207152
3,4,T1_SMS_5,250,1,48,51,578685144
3,4,T1_SMS_5,251,5,42,127,578706684
3,4,T1_SMS_5,252,1,48,46,579186912
3,4,T1_SMS_5,253,5,42,127,579206584
3,4,T1_SMS_5,254,1,48,41,579701596
3,4,T1_SMS_5,255,5,42,127,579707376
3,4,T1_SMS_5,256,1,48,44,580195148
3,4,T1_SMS_5,257,5,42,127,580207128
3,4,T1_SMS_5,258,1,48,46,580688848
3,4,T1_SMS_5,0,9999,9999,9999,9999,515704944
3,4,T1_SMS_5,1,9999,9999,9999,9999,516204644
3,4,T1_SMS_5,2,9999,9999,9999,9999,516704320
3,4,T1_SMS_5,3,9999,9999,9999,9999,517205064
3,4,T1_SMS_5,4,9999,9999,9999,9999,517704808
3,4,T1_SMS_5,5,9999,9999,9999,9999,518204492
3,4,T1_SMS_5,6,9999,9999,9999,9999,518704236
3,4,T1_SMS_5,7,9999,9999,9999,9999,519204960
3,4,T1_SMS_5,8,9999,9999,9999,9999,519704644
3,4,T1_SMS_5,9,9999,9999,9999,9999,520204368
3,4,T1_SMS_5,10,9999,9999,9999,9999,520704120
3,4,T1_SMS_5,11,9999,9999,9999,9999,521204840
3,4,T1_SMS_5,12,9999,9999,9999,9999,521704520
3,4,T1_SMS_5,13,9999,9999,9999,9999,522204268
3,4,T1_SMS_5,14,9999,9999,9999,9999,522704992
3,4,T1_SMS_5,15,9999,9999,9999,9999,523204660
3,4,T1_SMS_5,16,9999,9999,9999,9999,523704412
3,4,T1_SMS_5,17,9999,9999,9999,9999,524204088
3,4,T1_SMS_5,18,9999,9999,9999,9999,524704860
3,4,T1_SMS_5,19,9999,9999,9999,9999,525204536
3,4,T1_SMS_5,20,9999,9999,9999,9999,525704288
3,4,T1_SMS_5,21,9999,9999,9999,9999,526205012
3,4,T1_SMS_5,22,9999,9999,9999,9999,526704688
3,4,T1_SMS_5,23,9999,9999,9999,9999,527204436
3,4,T1_SMS_5,24,9999,9999,9999,9999,527704120
3,4,T1_SMS_5,25,9999,9999,9999,9999,528204908
3,4,T1_SMS_5,26,9999,9999,9999,9999,528704584
3,4,T1_SMS_5,27,9999,9999,9999,9999,529204344
3,4,T1_SMS_5,28,9999,9999,9999,9999,529705060
3,4,T1_SMS_5,29,9999,9999,9999,9999,530204732
3,4,T1_SMS_5,30,9999,9999,9999,9999,530704484
3,4,T1_SMS_5,31,9999,9999,9999,9999,531204160
3,4,T1_SMS_5,32,9999,9999,9999,9999,531704888
3,4,T1_SMS_5,33,9999,9999,9999,9999,532204636
3,4,T1_SMS_5,34,9999,9999,9999,9999,532704312
3,4,T1_SMS_5,35,9999,9999,9999,9999,533205112
3,4,T1_SMS_5,36,9999,9999,9999,9999,533704784
3,4,T1_SMS_5,37,9999,9999,9999,9999,534204532
3,4,T1_SMS_5,38,9999,9999,9999,9999,534704216
3,4,T1_SMS_5,39,9999,9999,9999,9999,535204932
3,4,T1_SMS_5,40,9999,9999,9999,9999,535704664
3,4,T1_SMS_5,41,9999,9999,9999,9999,536204340
3,4,T1_SMS_5,42,9999,9999,9999,9999,536704084
3,4,T1_SMS_5,43,9999,9999,9999,9999,537204812
3,4,T1_SMS_5,44,9999,9999,9999,9999,537704564
3,4,T1_SMS_5,45,9999,9999,9999,9999,538204236
3,4,T1_SMS_5,46,9999,9999,9999,9999,538704960
3,4,T1_SMS_5,47,9999,9999,9999,9999,539204708
3,4,T1_SMS_5,48,9999,9999,9999,9999,539704380
3,4,T1_SMS_5,49,9999,9999,9999,9999,540204132
3,4,T1_SMS_5,50,9999,9999,9999,9999,540704856
3,4,T1_SMS_5,51,9999,9999,9999,9999,541204528
3,4,T1_SMS_5,52,9999,9999,9999,9999,541704280
3,4,T1_SMS_5,53,9999,9999,9999,9999,542205000
3,4,T1_SMS_5,54,9999,9999,9999,9999,542704752
3,4,T1_SMS_5,55,9999,9999,9999,9999,543204432
3,4,T1_SMS_5,56,9999,9999,9999,9999,543704180
3,4,T1_SMS_5,57,9999,9999,9999,9999,544204904
3,4,T1_SMS_5,58,9999,9999,9999,9999,544704580
3,4,T1_SMS_5,59,9999,9999,9999,9999,545204328
3,4,T1_SMS_5,60,9999,9999,9999,9999,545705052
3,4,T1_SMS_5,61,9999,9999,9999,9999,546204776
3,4,T1_SMS_5,62,9999,9999,9999,9999,546704452
3,4,T1_SMS_5,63,9999,9999,9999,9999,547204204
3,4,T1_SMS_5,64,9999,9999,9999,9999,547704924
3,4,T1_SMS_5,65,9999,9999,9999,9999,548204604
3,4,T1_SMS_5,66,9999,9999,9999,9999,548704360
3,4,T1_SMS_5,67,9999,9999,9999,9999,549205076
3,4,T1_SMS_5,68,9999,9999,9999,9999,549704752
3,4,T1_SMS_5,69,9999,9999,9999,9999,550204500
3,4,T1_SMS_5,70,9999,9999,9999,9999,550704180
3,4,T1_SMS_5,71,9999,9999,9999,9999,551204976
3,4,T1_SMS_5,72,9999,9999,9999,9999,551704652
3,4,T1_SMS_5,73,9999,9999,9999,9999,552204404
3,4,T1_SMS_5,74,9999,9999,9999,9999,552704080
3,4,T1_SMS_5,75,9999,9999,9999,9999,553204800
3,4,T1_SMS_5,76,9999,9999,9999,9999,553704556
3,4,T1_SMS_5,77,9999,9999,9999,9999,554204232
3,4,T1_SMS_5,78,9999,9999,9999,9999,554705000
3,4,T1_SMS_5,79,9999,9999,9999,9999,555204676
3,4,T1_SMS_5,80,9999,9999,9999,9999,555704436
3,4,T1_SMS_5,81,9999,9999,9999,9999,556204104
3,4,T1_SMS_5,82,9999,9999,9999,9999,556704876
3,4,T1_SMS_5,83,9999,9999,9999,9999,557204544
3,4,T1_SMS_5,84,9999,9999,9999,9999,557704296
3,4,T1_SMS_5,85,9999,9999,9999,9999,558205020
3,4,T1_SMS_5,86,9999,9999,9999,9999,558704696
3,4,T1_SMS_5,87,9999,9999,9999,9999,559204456
3,4,T1_SMS_5,88,9999,9999,9999,9999,559704132
3,4,T1_SMS_5,89,9999,9999,9999,9999,560204848
3,4,T1_SMS_5,90,9999,9999,9999,9999,560704596
3,4,T1_SMS_5,91,9999,9999,9999,9999,561204276
3,4,T1_SMS_5,92,9999,9999,9999,9999,561705072
3,4,T1_SMS_5,93,9999,9999,9999,9999,562204748
3,4,T1_SMS_5,94,9999,9999,9999,9999,562704500
3,4,T1_SMS_5,95,9999,9999,9999,9999,563204172
3,4,T1_SMS_5,96,9999,9999,9999,9999,563704896
3,4,T1_SMS_5,97,9999,9999,9999,9999,564204652
3,4,T1_SMS_5,98,9999,9999,9999,9999,564704324
3,4,T1_SMS_5,99,9999,9999,9999,9999,565205052
3,4,T1_SMS_5,100,9999,9999,9999,9999,565704804
3,4,T1_SMS_5,101,9999,9999,9999,9999,566204476
3,4,T1_SMS_5,102,9999,9999,9999,9999,566704228
3,4,T1_SMS_5,103,9999,9999,9999,9999,567204948
3,4,T1_SMS_5,104,9999,9999,9999,9999,567704672
3,4,T1_SMS_5,105,9999,9999,9999,9999,568204352
3,4,T1_SMS_5,106,9999,9999,9999,9999,568704100
3,4,T1_SMS_5,107,9999,9999,9999,9999,569204824
3,4,T1_SMS_5,108,9999,9999,9999,9999,569704500
3,4,T1_SMS_5,109,9999,9999,9999,9999,570204280
3,4,T1_SMS_5,110,9999,9999,9999,9999,570704972
3,4,T1_SMS_5,111,9999,9999,9999,9999,571204728
3,4,T1_SMS_5,112,9999,9999,9999,9999,571704400
3,4,T1_SMS_5,113,9999,9999,9999,9999,572204148
3,4,T1_SMS_5,114,9999,9999,9999,9999,572704868
3,4,T1_SMS_5,115,9999,9999,9999,9999,573204548
3,4,T1_SMS_5,116,9999,9999,9999,9999,573704300
3,4,T1_SMS_5,117,9999,9999,9999,9999,574205020
3,4,T1_SMS_5,118,9999,9999,9999,9999,574704696
3,4,T1_SMS_5,119,9999,9999,9999,9999,575204448
3,4,T1_SMS_5,120,9999,9999,9999,9999,575704132
3,4,T1_SMS_5,121,9999,9999,9999,9999,576204848
3,4,T1_SMS_5,122,9999,9999,9999,9999,576704596
3,4,T1_SMS_5,123,9999,9999,9999,9999,577204276
3,4,T1_SMS_5,124,9999,9999,9999,9999,577705068
3,4,T1_SMS_5,125,9999,9999,9999,9999,578204720
3,4,T1_SMS_5,126,9999,9999,9999,9999,578704476
3,4,T1_SMS_5,127,9999,9999,9999,9999,579204152
3,4,T1_SMS_5,128,9999,9999,9999,9999,579704948
3,4,T1_SMS_5,129,9999,9999,9999,9999,580204624
4,2,T1_SMS_8,0,5,42,127,606460132
4,2,T1_SMS_8,1,5,42,127,607260108
4,2,T1_SMS_8,2,5,42,127,608059864
4,2,T1_SMS_8,3,1,48,62,608104792
4,2,T1_SMS_8,4,1,48,35,608155620
4,2,T1_SMS_8,5,5,42,127,608859352
4,2,T1_SMS_8,6,1,48,63,608890616
4,2,T1_SMS_8,7,1,48,40,608944008
4,2,T1_SMS_8,8,5,42,127,609660184
4,2,T1_SMS_8,9,1,48,55,609706260
4,2,T1_SMS_8,10,5,42,127,610459992
4,2,T1_SMS_8,11,1,48,60,610502108
4,2,T1_SMS_8,12,5,42,127,611259748
4,2,T1_SMS_8,13,1,48,56,611325584
4,2,T1_SMS_8,14,1,48,52,612057288
4,2,T1_SMS_8,15,5,42,127,612059400
4,2,T1_SMS_8,16,5,42,127,612860184
4,2,T1_SMS_8,17,1,48,39,612886144
4,2,T1_SMS_8,18,5,42,127,613660140
4,2,T1_SMS_8,19,1,48,52,613673408
4,2,T1_SMS_8,20,5,42,127,614459876
4,2,T1_SMS_8,21,1,48,48,614463884
4,2,T1_SMS_8,22,1,48,28,614523672
4,2,T1_SMS_8,23,5,42,127,615259512
4,2,T1_SMS_8,24,1,48,39,615325644
4,2,T1_SMS_8,25,5,42,127,616060216
4,2,T1_SMS_8,26,1,48,48,616101732
4,2,T1_SMS_8,27,5,42,127,616859948
4,2,T1_SMS_8,28,1,48,53,616866220
4,2,T1_SMS_8,29,5,42,127,617659780
4,2,T1_SMS_8,30,1,48,49,617670508
4,2,T1_SMS_8,31,1,48,59,618429680
4,2,T1_SMS_8,32,5,42,127,618459432
4,2,T1_SMS_8,33,5,42,127,619260216
4,2,T1_SMS_8,34,1,48,50,619281480
4,2,T1_SMS_8,35,1,48,51,620058364
4,2,T1_SMS_8,36,5,42,127,620060016
4,2,T1_SMS_8,37,5,42,127,620859760
4,2,T1_SMS_8,38,1,48,57,620866080
4,2,T1_SMS_8,39,5,42,127,621659492
4,2,T1_SMS_8,40,1,48,46,621708004
4,2,T1_SMS_8,41,5,42,127,622460492
4,2,T1_SMS_8,42,1,48,54,622486376
4,2,T1_SMS_8,43,5,42,127,623260148
4,2,T1_SMS_8,44,1,48,57,623278128
4,2,T1_SMS_8,45,1,48,47,624057844
4,2,T1_SMS_8,46,5,42,127,624059728
4,2,T1_SMS_8,47,1,48,57,624855616
4,2,T1_SMS_8,48,5,42,127,624859384
4,2,T1_SMS_8,49,1,48,53,625635484
4,2,T1_SMS_8,50,5,42,127,625660308
4,2,T1_SMS_8,51,5,42,127,626460196
4,2,T1_SMS_8,52,1,48,55,626476156
4,2,T1_SMS_8,53,5,42,127,627259708
4,2,T1_SMS_8,54,1,48,57,627279176
4,2,T1_SMS_8,55,5,42,127,628059516
4,2,T1_SMS_8,56,1,48,57,628077040
4,2,T1_SMS_8,57,5,42,127,628860220
4,2,T1_SMS_8,58,1,48,52,628880280
4,2,T1_SMS_8,59,5,42,127,629660028
4,2,T1_SMS_8,60,1,48,46,629715284
4,2,T1_SMS_8,61,5,42,127,630459708
4,2,T1_SMS_8,62,1,48,47,630480740
4,2,T1_SMS_8,63,5,42,127,631259444
4,2,T1_SMS_8,64,1,48,57,631270620
4,2,T1_SMS_8,65,5,42,127,632060220
4,2,T1_SMS_8,66,1,48,57,632072892
4,2,T1_SMS_8,67,1,48,54,632840352
4,2,T1_SMS_8,68,5,42,127,632859948
4,2,T1_SMS_8,69,1,48,54,633646800
4,2,T1_SMS_8,70,5,42,127,633659828
4,2,T1_SMS_8,71,5,42,127,634459420
4,2,T1_SMS_8,72,1,48,48,634497408
4,2,T1_SMS_8,73,1,48,44,635250752
4,2,T1_SMS_8,74,5,42,127,635260192
4,2,T1_SMS_8,75,5,42,127,636060008
4,2,T1_SMS_8,76,1,48,51,636088232
4,2,T1_SMS_8,77,5,42,127,636859764
4,2,T1_SMS_8,78,1,48,51,636888344
4,2,T1_SMS_8,79,1,48,49,637646684
4,2,T1_SMS_8,80,5,42,127,637659712
4,2,T1_SMS_8,81,1,48,50,638425512
4,2,T1_SMS_8,82,5,42,127,638460192
4,2,T1_SMS_8,83,1,48,50,639238388
4,2,T1_SMS_8,84,5,42,127,639260000
4,2,T1_SMS_8,85,1,48,27,639305064
4,2,T1_SMS_8,86,5,42,127,640059868
4,2,T1_SMS_8,87,1,48,57,640085308
4,2,T1_SMS_8,88,5,42,127,640859600
4,2,T1_SMS_8,89,1,48,58,640905196
4,2,T1_SMS_8,90,5,42,127,641660376
4,2,T1_SMS_8,91,1,48,42,641706080
4,2,T1_SMS_8,92,5,42,127,642459964
4,2,T1_SMS_8,93,1,48,43,642479280
4,2,T1_SMS_8,94,5,42,127,643259696
4,2,T1_SMS_8,95,1,48,44,643271772
4,2,T1_SMS_8,96,5,42,127,644059428
4,2,T1_SMS_8,97,1,48,50,644157896
4,2,T1_SMS_8,98,5,42,127,644860428
4,2,T1_SMS_8,99,1,48,48,644890128
4,2,T1_SMS_8,100,1,48,52,645641456
4,2,T1_SMS_8,101,5,42,127,645660452
4,2,T1_SMS_8,102,1,48,23,645720528
4,2,T1_SMS_8,103,1,48,51,646448336
4,2,T1_SMS_8,104,5,42,127,646459864
4,2,T1_SMS_8,105,1,48,57,647257872
4,2,T1_SMS_8,106,5,42,127,647259600
4,2,T1_SMS_8,107,5,42,127,648060160
4,2,T1_SMS_8,108,1,48,47,648080072
4,2,T1_SMS_8,109,5,42,127,648860364
4,2,T1_SMS_8,110,1,48,56,648905588
4,2,T1_SMS_8,111,5,42,127,649659724
4,2,T1_SMS_8,112,1,48,54,649662312
4,2,T1_SMS_8,113,5,42,127,650459456
4,2,T1_SMS_8,114,1,48,47,650460424
4,2,T1_SMS_8,115,1,48,54,651252352
4,2,T1_SMS_8,116,5,42,127,651260232
4,2,T1_SMS_8,117,5,42,127,652059968
4,2,T1_SMS_8,118,1,48,54,652060932
4,2,T1_SMS_8,119,1,48,48,652856072
4,2,T1_SMS_8,120,5,42,127,652859696
4,2,T1_SMS_8,121,1,48,51,653632284
4,2,T1_SMS_8,122,5,42,127,653659352
4,2,T1_SMS_8,123,1,48,52,654423432
4,2,T1_SMS_8,124,5,42,127,654460204
4,2,T1_SMS_8,125,1,48,22,654509404
4,2,T1_SMS_8,126,5,42,127,655259952
4,2,T1_SMS_8,127,1,48,50,655260916
4,2,T1_SMS_8,128,5,42,127,656059908
4,2,T1_SMS_8,129,1,48,26,656117080
4,2,T1_SMS_8,130,1,48,48,656834356
4,2,T1_SMS_8,131,5,42,127,656859484
4,2,T1_SMS_8,132,1,48,46,657576740
4,2,T1_SMS_8,133,5,42,127,657660336
4,2,T1_SMS_8,134,1,48,39,658402612
4,2,T1_SMS_8,135,5,42,127,658459920
4,2,T1_SMS_8,136,1,48,40,659141484
4,2,T1_SMS_8,137,5,42,127,659259864
4,2,T1_SMS_8,138,1,48,46,659984228
4,2,T1_SMS_8,139,5,42,127,660059612
4,2,T1_SMS_8,140,1,48,46,660818464
4,2,T1_SMS_8,141,5,42,127,660860388
4,2,T1_SMS_8,142,1,48,50,661638732
4,2,T1_SMS_8,143,5,42,127,661659996
4,2,T1_SMS_8,144,5,42,127,662459736
4,2,T1_SMS_8,145,1,48,44,662462848
4,2,T1_SMS_8,146,1,48,42,663246360
4,2,T1_SMS_8,147,5,42,127,663259684
4,2,T1_SMS_8,148,1,48,43,664000168
4,2,T1_SMS_8,149,5,42,127,664060316
4,2,T1_SMS_8,150,1,48,46,664789600
4,2,T1_SMS_8,151,5,42,127,664859900
4,2,T1_SMS_8,152,1,48,34,665609424
4,2,T1_SMS_8,153,5,42,127,665659708
4,2,T1_SMS_8,154,1,48,33,666407136
4,2,T1_SMS_8,155,5,42,127,666459664
4,2,T1_SMS_8,156,1,48,52,667202912
4,2,T1_SMS_8,157,5,42,127,667260368
4,2,T1_SMS_8,158,1,48,31,667270264
4,2,T1_SMS_8,159,1,48,43,668045336
4,2,T1_SMS_8,160,5,42,127,668060028
4,2,T1_SMS_8,161,1,48,46,668840612
4,2,T1_SMS_8,162,5,42,127,668859688
4,2,T1_SMS_8,163,1,48,45,669650948
4,2,T1_SMS_8,164,5,42,127,669659492
4,2,T1_SMS_8,165,1,48,38,670412148
4,2,T1_SMS_8,166,5,42,127,670460344
4,2,T1_SMS_8,167,1,48,26,671245108
4,2,T1_SMS_8,168,5,42,127,671260304
4,2,T1_SMS_8,169,1,48,37,671970024
4,2,T1_SMS_8,170,5,42,127,672059740
4,2,T1_SMS_8,171,5,42,127,672859476
4,2,T1_SMS_8,172,1,48,44,672911052
4,2,T1_SMS_8,173,5,42,127,673660256
4,2,T1_SMS_8,174,1,48,36,673682712
4,2,T1_SMS_8,175,1,48,46,674402900
4,2,T1_SMS_8,176,5,42,127,674460156
4,2,T1_SMS_8,177,1,48,42,675204500
4,2,T1_SMS_8,178,5,42,127,675259668
4,2,T1_SMS_8,179,5,42,127,676059408
4,2,T1_SMS_8,180,1,48,38,676080588
4,2,T1_SMS_8,181,5,42,127,676860332
4,2,T1_SMS_8,182,1,48,54,676865164
4,2,T1_SMS_8,183,5,42,127,677659916
4,2,T1_SMS_8,184,1,48,64,677731432
4,2,T1_SMS_8,185,5,42,127,678459724
4,2,T1_SMS_8,186,1,48,57,678524736
4,2,T1_SMS_8,187,5,42,127,679259604
4,2,T1_SMS_8,188,1,48,54,679299008
4,2,T1_SMS_8,189,5,42,127,680060308
4,2,T1_SMS_8,190,1,48,54,680121396
4,2,T1_SMS_8,191,5,42,127,680860144
4,2,T1_SMS_8,192,1,48,37,680967428
4,2,T1_SMS_8,193,5,42,127,681660028
4,2,T1_SMS_8,194,1,48,55,681693608
4,2,T1_SMS_8,195,5,42,127,682459536
4,2,T1_SMS_8,196,1,48,50,682460504
4,2,T1_SMS_8,197,1,48,59,683211144
4,2,T1_SMS_8,198,5,42,127,683260164
4,2,T1_SMS_8,199,1,48,47,684011172
4,2,T1_SMS_8,200,5,42,127,684059968
4,2,T1_SMS_8,201,1,48,51,684852720
4,2,T1_SMS_8,202,5,42,127,684859924
4,2,T1_SMS_8,203,1,48,46,685630728
4,2,T1_SMS_8,204,5,42,127,685659584
4,2,T1_SMS_8,205,1,48,56,686433144
4,2,T1_SMS_8,206,5,42,127,686460216
4,2,T1_SMS_8,207,1,48,52,687183520
4,2,T1_SMS_8,208,5,42,127,687260048
4,2,T1_SMS_8,209,5,42,127,688059712
4,2,T1_SMS_8,210,1,48,54,688068728
4,2,T1_SMS_8,211,1,48,48,688809968
4,2,T1_SMS_8,212,5,42,127,688859736
4,2,T1_SMS_8,213,1,48,54,689627704
4,2,T1_SMS_8,214,5,42,127,689660588
4,2,T1_SMS_8,215,5,42,127,690459956
4,2,T1_SMS_8,216,1,48,54,690491292
4,2,T1_SMS_8,217,5,42,127,691259768
4,2,T1_SMS_8,218,1,48,53,691305068
4,2,T1_SMS_8,219,1,48,51,692057456
4,2,T1_SMS_8,220,5,42,127,692059420
4,2,T1_SMS_8,221,5,42,127,692860500
4,2,T1_SMS_8,222,1,48,52,692897760
4,2,T1_SMS_8,223,1,48,55,693598664
4,2,T1_SMS_8,224,5,42,127,693660028
4,2,T1_SMS_8,225,1,48,60,694453752
4,2,T1_SMS_8,226,5,42,127,694459836
4,2,T1_SMS_8,227,1,48,56,695214656
4,2,T1_SMS_8,228,5,42,127,695259496
4,2,T1_SMS_8,229,1,48,58,696023128
4,2,T1_SMS_8,230,5,42,127,696060272
4,2,T1_SMS_8,231,5,42,127,696860160
4,2,T1_SMS_8,232,1,48,59,696865212
4,2,T1_SMS_8,233,1,48,53,697646408
4,2,T1_SMS_8,234,5,42,127,697659884
4,2,T1_SMS_8,235,1,48,58,698419712
4,2,T1_SMS_8,236,5,42,127,698459472
4,2,T1_SMS_8,237,1,48,62,699233632
4,2,T1_SMS_8,238,5,42,127,699260176
4,2,T1_SMS_8,239,1,48,55,700025972
4,2,T1_SMS_8,240,5,42,127,700060156
4,2,T1_SMS_8,241,5,42,127,700859896
4,2,T1_SMS_8,242,1,48,51,700872492
4,2,T1_SMS_8,243,5,42,127,701659556
4,2,T1_SMS_8,244,1,48,50,701666248
4,2,T1_SMS_8,0,9999,9999,9999,9999,606457924
4,2,T1_SMS_8,1,9999,9999,9999,9999,607257676
4,2,T1_SMS_8,2,9999,9999,9999,9999,608057432
4,2,T1_SMS_8,3,9999,9999,9999,9999,608857144
4,2,T1_SMS_8,4,9999,9999,9999,9999,609657972
4,2,T1_SMS_8,5,9999,9999,9999,9999,610457708
4,2,T1_SMS_8,6,9999,9999,9999,9999,611257464
4,2,T1_SMS_8,7,9999,9999,9999,9999,612057152
4,2,T1_SMS_8,8,9999,9999,9999,9999,612857976
4,2,T1_SMS_8,9,9999,9999,9999,9999,613657708
4,2,T1_SMS_8,10,9999,9999,9999,9999,614457440
4,2,T1_SMS_8,11,9999,9999,9999,9999,615257156
4,2,T1_SMS_8,12,9999,9999,9999,9999,616057932
4,2,T1_SMS_8,13,9999,9999,9999,9999,616857664
4,2,T1_SMS_8,14,9999,9999,9999,9999,617657420
4,2,T1_SMS_8,15,9999,9999,9999,9999,618457148
4,2,T1_SMS_8,16,9999,9999,9999,9999,619257932
4,2,T1_SMS_8,17,9999,9999,9999,9999,620057672
4,2,T1_SMS_8,18,9999,9999,9999,9999,620857400
4,2,T1_SMS_8,19,9999,9999,9999,9999,621657204
4,2,T1_SMS_8,20,9999,9999,9999,9999,622457908
4,2,T1_SMS_8,21,9999,9999,9999,9999,623257716
4,2,T1_SMS_8,22,9999,9999,9999,9999,624057472
4,2,T1_SMS_8,23,9999,9999,9999,9999,624857176
4,2,T1_SMS_8,24,9999,9999,9999,9999,625657952
4,2,T1_SMS_8,25,9999,9999,9999,9999,626457692
4,2,T1_SMS_8,26,9999,9999,9999,9999,627257424
4,2,T1_SMS_8,27,9999,9999,9999,9999,628057156
4,2,T1_SMS_8,28,9999,9999,9999,9999,628857936
4,2,T1_SMS_8,29,9999,9999,9999,9999,629657668
4,2,T1_SMS_8,30,9999,9999,9999,9999,630457424
4,2,T1_SMS_8,31,9999,9999,9999,9999,631257160
4,2,T1_SMS_8,32,9999,9999,9999,9999,632057936
4,2,T1_SMS_8,33,9999,9999,9999,9999,632857664
4,2,T1_SMS_8,34,9999,9999,9999,9999,633657396
4,2,T1_SMS_8,35,9999,9999,9999,9999,634457208
4,2,T1_SMS_8,36,9999,9999,9999,9999,635257908
4,2,T1_SMS_8,37,9999,9999,9999,9999,636057720
4,2,T1_SMS_8,38,9999,9999,9999,9999,636857404
4,2,T1_SMS_8,39,9999,9999,9999,9999,637657208
4,2,T1_SMS_8,40,9999,9999,9999,9999,638457908
4,2,T1_SMS_8,41,9999,9999,9999,9999,639257716
4,2,T1_SMS_8,42,9999,9999,9999,9999,640057432
4,2,T1_SMS_8,43,9999,9999,9999,9999,640857168
4,2,T1_SMS_8,44,9999,9999,9999,9999,641657944
4,2,T1_SMS_8,45,9999,9999,9999,9999,642457676
4,2,T1_SMS_8,46,9999,9999,9999,9999,643257412
4,2,T1_SMS_8,47,9999,9999,9999,9999,644057144
4,2,T1_SMS_8,48,9999,9999,9999,9999,644857920
4,2,T1_SMS_8,49,9999,9999,9999,9999,645657720
4,2,T1_SMS_8,50,9999,9999,9999,9999,646457432
4,2,T1_SMS_8,51,9999,9999,9999,9999,647257172
4,2,T1_SMS_8,52,9999,9999,9999,9999,648057948
4,2,T1_SMS_8,53,9999,9999,9999,9999,648857684
4,2,T1_SMS_8,54,9999,9999,9999,9999,649657440
4,2,T1_SMS_8,55,9999,9999,9999,9999,650457172
4,2,T1_SMS_8,56,9999,9999,9999,9999,651257944
4,2,T1_SMS_8,57,9999,9999,9999,9999,652057684
4,2,T1_SMS_8,58,9999,9999,9999,9999,652857412
4,2,T1_SMS_8,59,9999,9999,9999,9999,653657144
4,2,T1_SMS_8,60,9999,9999,9999,9999,654457920
4,2,T1_SMS_8,61,9999,9999,9999,9999,655257716
4,2,T1_SMS_8,62,9999,9999,9999,9999,656057400
4,2,T1_SMS_8,63,9999,9999,9999,9999,656857200
4,2,T1_SMS_8,64,9999,9999,9999,9999,657657976
4,2,T1_SMS_8,65,9999,9999,9999,9999,658457712
4,2,T1_SMS_8,66,9999,9999,9999,9999,659257428
4,2,T1_SMS_8,67,9999,9999,9999,9999,660057176
4,2,T1_SMS_8,68,9999,9999,9999,9999,660857956
4,2,T1_SMS_8,69,9999,9999,9999,9999,661657688
4,2,T1_SMS_8,70,9999,9999,9999,9999,662457452
4,2,T1_SMS_8,71,9999,9999,9999,9999,663257180
4,2,T1_SMS_8,72,9999,9999,9999,9999,664057956
4,2,T1_SMS_8,73,9999,9999,9999,9999,664857692
4,2,T1_SMS_8,74,9999,9999,9999,9999,665657424
4,2,T1_SMS_8,75,9999,9999,9999,9999,666457156
4,2,T1_SMS_8,76,9999,9999,9999,9999,667257936
4,2,T1_SMS_8,77,9999,9999,9999,9999,668057720
4,2,T1_SMS_8,78,9999,9999,9999,9999,668857404
4,2,T1_SMS_8,79,9999,9999,9999,9999,669657208
4,2,T1_SMS_8,80,9999,9999,9999,9999,670457912
4,2,T1_SMS_8,81,9999,9999,9999,9999,671257724
4,2,T1_SMS_8,82,9999,9999,9999,9999,672057452
4,2,T1_SMS_8,83,9999,9999,9999,9999,672857192
4,2,T1_SMS_8,84,9999,9999,9999,9999,673657972
4,2,T1_SMS_8,85,9999,9999,9999,9999,674457648
4,2,T1_SMS_8,86,9999,9999,9999,9999,675257456
4,2,T1_SMS_8,87,9999,9999,9999,9999,676057196
4,2,T1_SMS_8,88,9999,9999,9999,9999,676857972
4,2,T1_SMS_8,89,9999,9999,9999,9999,677657708
4,2,T1_SMS_8,90,9999,9999,9999,9999,678457440
4,2,T1_SMS_8,91,9999,9999,9999,9999,679257172
4,2,T1_SMS_8,92,9999,9999,9999,9999,680057952
4,2,T1_SMS_8,93,9999,9999,9999,9999,680857708
4,2,T1_SMS_8,94,9999,9999,9999,9999,681657444
4,2,T1_SMS_8,95,9999,9999,9999,9999,682457180
4,2,T1_SMS_8,96,9999,9999,9999,9999,683257952
4,2,T1_SMS_8,97,9999,9999,9999,9999,684057684
4,2,T1_SMS_8,98,9999,9999,9999,9999,684857416
4,2,T1_SMS_8,99,9999,9999,9999,9999,685657152
4,2,T1_SMS_8,100,9999,9999,9999,9999,686457928
4,2,T1_SMS_8,101,9999,9999,9999,9999,687257688
4,2,T1_SMS_8,102,9999,9999,9999,9999,688057428
4,2,T1_SMS_8,103,9999,9999,9999,9999,688857156
4,2,T1_SMS_8,104,9999,9999,9999,9999,689657932
4,2,T1_SMS_8,105,9999,9999,9999,9999,690457672
4,2,T1_SMS_8,106,9999,9999,9999,9999,691257408
4,2,T1_SMS_8,107,9999,9999,9999,9999,692057172
4,2,T1_SMS_8,108,9999,9999,9999,9999,692857916
4,2,T1_SMS_8,109,9999,9999,9999,9999,693657668
4,2,T1_SMS_8,110,9999,9999,9999,9999,694457404
4,2,T1_SMS_8,111,9999,9999,9999,9999,695257212
4,2,T1_SMS_8,112,9999,9999,9999,9999,696057912
4,2,T1_SMS_8,113,9999,9999,9999,9999,696857652
4,2,T1_SMS_8,114,9999,9999,9999,9999,697657452
4,2,T1_SMS_8,115,9999,9999,9999,9999,698457188
4,2,T1_SMS_8,116,9999,9999,9999,9999,699257964
4,2,T1_SMS_8,117,9999,9999,9999,9999,700057724
4,2,T1_SMS_8,118,9999,9999,9999,9999,700857460
4,2,T1_SMS_8,119,9999,9999,9999,9999,701657196
5,23,Ticks_Phase_5,0,5,42,127,714170696
5,23,Ticks_Phase_5,1,5,42,127,714670536
5,23,Ticks_Phase_5,2,5,42,127,715171492
5,23,Ticks_Phase_5,3,1,48,38,715175724
5,23,Ticks_Phase_5,4,1,48,53,715652120
5,23,Ticks_Phase_5,5,5,42,127,715671084
5,23,Ticks_Phase_5,6,1,48,40,716162776
5,23,Ticks_Phase_5,7,5,42,127,716170732
5,23,Ticks_Phase_5,8,1,48,48,716667668
5,23,Ticks_Phase_5,9,5,42,127,716671444
5,23,Ticks_Phase_5,10,5,42,127,717171196
5,23,Ticks_Phase_5,11,1,48,37,717179104
5,23,Ticks_Phase_5,12,5,42,127,717670648
5,23,Ticks_Phase_5,13,1,48,39,717705080
5,23,Ticks_Phase_5,14,1,48,47,718151964
5,23,Ticks_Phase_5,15,5,42,127,718170460
5,23,Ticks_Phase_5,16,1,48,54,718624868
5,23,Ticks_Phase_5,17,5,42,127,718671100
5,23,Ticks_Phase_5,18,1,48,50,719145464
5,23,Ticks_Phase_5,19,5,42,127,719171216
5,23,Ticks_Phase_5,20,1,48,47,719646032
5,23,Ticks_Phase_5,21,5,42,127,719670588
5,23,Ticks_Phase_5,22,1,48,32,720142644
5,23,Ticks_Phase_5,23,5,42,127,720171232
5,23,Ticks_Phase_5,24,1,48,47,720647468
5,23,Ticks_Phase_5,25,5,42,127,720671052
5,23,Ticks_Phase_5,26,1,48,43,721160976
5,23,Ticks_Phase_5,27,5,42,127,721170724
5,23,Ticks_Phase_5,28,1,48,49,721659528
5,23,Ticks_Phase_5,29,5,42,127,721670468
5,23,Ticks_Phase_5,30,1,48,50,722144160
5,23,Ticks_Phase_5,31,5,42,127,722171108
5,23,Ticks_Phase_5,32,5,42,127,722671160
5,23,Ticks_Phase_5,33,1,48,53,722679068
5,23,Ticks_Phase_5,34,1,48,52,723130724
5,23,Ticks_Phase_5,35,5,42,127,723170600
5,23,Ticks_Phase_5,36,5,42,127,723671472
5,23,Ticks_Phase_5,37,1,48,44,723678928
5,23,Ticks_Phase_5,38,1,48,54,724162884
5,23,Ticks_Phase_5,39,5,42,127,724171208
5,23,Ticks_Phase_5,40,1,48,47,724665540
5,23,Ticks_Phase_5,41,5,42,127,724670956
5,23,Ticks_Phase_5,42,1,48,51,725164612
5,23,Ticks_Phase_5,43,5,42,127,725170476
5,23,Ticks_Phase_5,44,1,48,50,725667344
5,23,Ticks_Phase_5,45,5,42,127,725671268
5,23,Ticks_Phase_5,46,1,48,48,726151224
5,23,Ticks_Phase_5,47,5,42,127,726171012
5,23,Ticks_Phase_5,48,1,48,45,726635712
5,23,Ticks_Phase_5,49,5,42,127,726670880
5,23,Ticks_Phase_5,50,1,48,48,727123492
5,23,Ticks_Phase_5,51,5,42,127,727170552
5,23,Ticks_Phase_5,52,1,48,48,727635572
5,23,Ticks_Phase_5,53,5,42,127,727671192
5,23,Ticks_Phase_5,54,1,48,51,728109460
5,23,Ticks_Phase_5,55,5,42,127,728170792
5,23,Ticks_Phase_5,56,1,48,42,728632824
5,23,Ticks_Phase_5,57,5,42,127,728670908
5,23,Ticks_Phase_5,58,1,48,38,729132868
5,23,Ticks_Phase_5,59,5,42,127,729161160
5,23,Ticks_Phase_5,60,1,48,37,729643976
5,23,Ticks_Phase_5,61,5,42,127,729660832
5,23,Ticks_Phase_5,62,1,48,50,730113524
5,23,Ticks_Phase_5,63,5,42,127,730160428
5,23,Ticks_Phase_5,64,1,48,51,730586204
5,23,Ticks_Phase_5,65,5,42,127,730661296
5,23,Ticks_Phase_5,66,1,48,44,731149128
5,23,Ticks_Phase_5,67,5,42,127,731161040
5,23,Ticks_Phase_5,68,1,48,47,731651560
5,23,Ticks_Phase_5,69,5,42,127,731660784
5,23,Ticks_Phase_5,70,5,42,127,732161508
5,23,Ticks_Phase_5,71,1,48,53,732164020
5,23,Ticks_Phase_5,72,5,42,127,732661032
5,23,Ticks_Phase_5,73,1,48,48,732664068
5,23,Ticks_Phase_5,74,1,48,47,733158040
5,23,Ticks_Phase_5,75,5,42,127,733160768
5,23,Ticks_Phase_5,76,5,42,127,733660668
5,23,Ticks_Phase_5,77,1,48,51,733661856
5,23,Ticks_Phase_5,78,1,48,45,734151856
5,23,Ticks_Phase_5,79,5,42,127,734161452
5,23,Ticks_Phase_5,80,1,48,53,734617652
5,23,Ticks_Phase_5,81,5,42,127,734660824
5,23,Ticks_Phase_5,82,1,48,50,735142000
5,23,Ticks_Phase_5,83,5,42,127,735160792
5,23,Ticks_Phase_5,84,5,42,127,735661440
5,23,Ticks_Phase_5,85,1,48,43,735662924
5,23,Ticks_Phase_5,86,1,48,46,736137720
5,23,Ticks_Phase_5,87,5,42,127,736171496
5,23,Ticks_Phase_5,88,1,48,47,736631564
5,23,Ticks_Phase_5,89,5,42,127,736671164
5,23,Ticks_Phase_5,90,1,48,44,737155676
5,23,Ticks_Phase_5,91,5,42,127,737170740
5,23,Ticks_Phase_5,92,1,48,45,737632672
5,23,Ticks_Phase_5,93,5,42,127,737670460
5,23,Ticks_Phase_5,94,1,48,43,738148184
5,23,Ticks_Phase_5,95,5,42,127,738180448
5,23,Ticks_Phase_5,96,1,48,39,738651900
5,23,Ticks_Phase_5,97,5,42,127,738681312
5,23,Ticks_Phase_5,98,1,48,46,739138328
5,23,Ticks_Phase_5,99,5,42,127,739180760
5,23,Ticks_Phase_5,100,1,48,47,739644736
5,23,Ticks_Phase_5,101,5,42,127,739680576
5,23,Ticks_Phase_5,102,1,48,51,740155240
5,23,Ticks_Phase_5,103,5,42,127,740181444
5,23,Ticks_Phase_5,104,1,48,36,740673232
5,23,Ticks_Phase_5,105,5,42,127,740681260
5,23,Ticks_Phase_5,106,1,48,42,741170816
5,23,Ticks_Phase_5,107,5,42,127,741180636
5,23,Ticks_Phase_5,108,1,48,50,741667936
5,23,Ticks_Phase_5,109,5,42,127,741680384
5,23,Ticks_Phase_5,110,1,48,38,742180352
5,23,Ticks_Phase_5,111,5,42,127,742182292
5,23,Ticks_Phase_5,112,1,48,43,742651732
5,23,Ticks_Phase_5,113,5,42,127,742681140
5,23,Ticks_Phase_5,114,5,42,127,743180672
5,23,Ticks_Phase_5,115,1,48,46,743202328
5,23,Ticks_Phase_5,116,1,48,40,743680260
5,23,Ticks_Phase_5,117,5,42,127,743682056
5,23,Ticks_Phase_5,118,1,48,43,744160692
5,23,Ticks_Phase_5,119,5,42,127,744181200
5,23,Ticks_Phase_5,120,1,48,43,744680508
5,23,Ticks_Phase_5,121,5,42,127,744682216
5,23,Ticks_Phase_5,122,1,48,39,745169232
5,23,Ticks_Phase_5,123,5,42,127,745180544
5,23,Ticks_Phase_5,124,5,42,127,745681120
5,23,Ticks_Phase_5,125,1,48,57,746085424
5,23,Ticks_Phase_5,126,5,42,127,746200376
5,23,Ticks_Phase_5,127,1,48,44,746680376
5,23,Ticks_Phase_5,128,5,42,127,746701332
5,23,Ticks_Phase_5,129,1,48,48,747164712
5,23,Ticks_Phase_5,130,5,42,127,747200852
5,23,Ticks_Phase_5,131,1,48,50,747671936
5,23,Ticks_Phase_5,132,5,42,127,747700452
5,23,Ticks_Phase_5,133,1,48,47,748183864
5,23,Ticks_Phase_5,134,5,42,127,748201388
5,23,Ticks_Phase_5,135,1,48,48,748670060
5,23,Ticks_Phase_5,136,5,42,127,748701060
5,23,Ticks_Phase_5,137,1,48,47,749167028
5,23,Ticks_Phase_5,138,5,42,127,749200780
5,23,Ticks_Phase_5,139,1,48,46,749679564
5,23,Ticks_Phase_5,140,5,42,127,749700600
5,23,Ticks_Phase_5,141,1,48,53,750177584
5,23,Ticks_Phase_5,142,5,42,127,750201316
5,23,Ticks_Phase_5,143,1,48,51,750667308
5,23,Ticks_Phase_5,144,5,42,127,750700912
5,23,Ticks_Phase_5,145,1,48,47,751147912
5,23,Ticks_Phase_5,146,5,42,127,751200956
5,23,Ticks_Phase_5,147,1,48,50,751685792
5,23,Ticks_Phase_5,148,5,42,127,751701224
5,23,Ticks_Phase_5,149,1,48,43,752183220
5,23,Ticks_Phase_5,150,5,42,127,752201044
5,23,Ticks_Phase_5,151,1,48,44,752679456
5,23,Ticks_Phase_5,152,5,42,127,752700864
5,23,Ticks_Phase_5,153,1,48,40,753160512
5,23,Ticks_Phase_5,154,5,42,127,753200460
5,23,Ticks_Phase_5,155,1,48,47,753681564
5,23,Ticks_Phase_5,156,5,42,127,753701176
5,23,Ticks_Phase_5,157,1,48,40,754137712
5,23,Ticks_Phase_5,158,5,42,127,754200920
5,23,Ticks_Phase_5,159,1,48,43,754672152
5,23,Ticks_Phase_5,160,5,42,127,754681152
5,23,Ticks_Phase_5,161,1,48,47,755157756
5,23,Ticks_Phase_5,162,5,42,127,755181048
5,23,Ticks_Phase_5,163,1,48,47,755652804
5,23,Ticks_Phase_5,164,5,42,127,755680716
5,23,Ticks_Phase_5,165,1,48,48,756148368
5,23,Ticks_Phase_5,166,5,42,127,756181432
5,23,Ticks_Phase_5,167,1,48,34,756669192
5,23,Ticks_Phase_5,168,5,42,127,756681028
5,23,Ticks_Phase_5,169,1,48,52,757138396
5,23,Ticks_Phase_5,170,5,42,127,757180776
5,23,Ticks_Phase_5,171,1,48,51,757659488
5,23,Ticks_Phase_5,172,5,42,127,757680448
5,23,Ticks_Phase_5,173,1,48,49,758167220
5,23,Ticks_Phase_5,174,5,42,127,758181384
5,23,Ticks_Phase_5,175,1,48,38,758670688
5,23,Ticks_Phase_5,176,5,42,127,758680984
5,23,Ticks_Phase_5,177,5,42,127,759180632
5,23,Ticks_Phase_5,178,1,48,48,759204700
5,23,Ticks_Phase_5,179,1,48,47,759667252
5,23,Ticks_Phase_5,180,5,42,127,759681344
5,23,Ticks_Phase_5,181,1,48,55,760144868
5,23,Ticks_Phase_5,182,5,42,127,760181240
5,23,Ticks_Phase_5,183,1,48,49,760675420
5,23,Ticks_Phase_5,184,5,42,127,760680688
5,23,Ticks_Phase_5,185,1,48,51,761167532
5,23,Ticks_Phase_5,186,5,42,127,761180508
5,23,Ticks_Phase_5,187,1,48,44,761662204
5,23,Ticks_Phase_5,188,5,42,127,761681520
5,23,Ticks_Phase_5,189,1,48,57,762165756
5,23,Ticks_Phase_5,190,5,42,127,762181192
5,23,Ticks_Phase_5,191,5,42,127,762630484
5,23,Ticks_Phase_5,192,1,48,44,762676728
5,23,Ticks_Phase_5,193,5,42,127,763131196
5,23,Ticks_Phase_5,194,1,48,46,763201372
5,23,Ticks_Phase_5,195,5,42,127,763630944
5,23,Ticks_Phase_5,196,1,48,51,763660528
5,23,Ticks_Phase_5,197,5,42,127,764130688
5,23,Ticks_Phase_5,198,1,48,58,764154656
5,23,Ticks_Phase_5,199,5,42,127,764631328
5,23,Ticks_Phase_5,200,1,48,45,764684532
5,23,Ticks_Phase_5,201,5,42,127,765131444
5,23,Ticks_Phase_5,202,1,48,53,765156012
5,23,Ticks_Phase_5,203,5,42,127,765630820
5,23,Ticks_Phase_5,204,1,48,48,765653892
5,23,Ticks_Phase_5,205,5,42,127,766130640
5,23,Ticks_Phase_5,206,1,48,53,766131604
5,23,Ticks_Phase_5,207,1,48,52,766620628
5,23,Ticks_Phase_5,208,5,42,127,766631200
5,23,Ticks_Phase_5,209,1,48,53,767121696
5,23,Ticks_Phase_5,210,5,42,127,767131016
5,23,Ticks_Phase_5,211,1,48,63,767603420
5,23,Ticks_Phase_5,212,5,42,127,767630812
5,23,Ticks_Phase_5,213,1,48,46,768110568
5,23,Ticks_Phase_5,214,5,42,127,768130412
5,23,Ticks_Phase_5,215,1,48,29,768608452
5,23,Ticks_Phase_5,216,5,42,127,768631200
5,23,Ticks_Phase_5,217,1,48,49,769108556
5,23,Ticks_Phase_5,218,5,42,127,769130872
5,23,Ticks_Phase_5,219,1,48,58,769588040
5,23,Ticks_Phase_5,220,5,42,127,769630544
5,23,Ticks_Phase_5,221,1,48,47,770110444
5,23,Ticks_Phase_5,222,5,42,127,770131332
5,23,Ticks_Phase_5,223,1,48,49,770595012
5,23,Ticks_Phase_5,224,5,42,127,770631080
5,23,Ticks_Phase_5,225,1,48,48,771091548
5,23,Ticks_Phase_5,226,5,42,127,771180988
5,23,Ticks_Phase_5,227,1,48,39,771660900
5,23,Ticks_Phase_5,228,5,42,127,771680736
5,23,Ticks_Phase_5,229,5,42,127,772181384
5,23,Ticks_Phase_5,230,1,48,41,772225012
5,23,Ticks_Phase_5,231,1,48,38,772673016
5,23,Ticks_Phase_5,232,5,42,127,772680972
5,23,Ticks_Phase_5,233,5,42,127,773180728
5,23,Ticks_Phase_5,234,1,48,41,773200516
5,23,Ticks_Phase_5,235,5,42,127,773680768
5,23,Ticks_Phase_5,236,1,48,32,773696436
5,23,Ticks_Phase_5,237,5,42,127,774181336
5,23,Ticks_Phase_5,238,1,48,37,774211072
5,23,Ticks_Phase_5,239,1,48,39,774676328
5,23,Ticks_Phase_5,240,5,42,127,774681076
5,23,Ticks_Phase_5,241,1,48,44,775173984
5,23,Ticks_Phase_5,242,5,42,127,775180820
5,23,Ticks_Phase_5,243,1,48,38,775664532
5,23,Ticks_Phase_5,244,5,42,127,775681240
5,23,Ticks_Phase_5,245,1,48,33,776168996
5,23,Ticks_Phase_5,246,5,42,127,776180984
5,23,Ticks_Phase_5,247,1,48,40,776649304
5,23,Ticks_Phase_5,248,5,42,127,776680880
5,23,Ticks_Phase_5,249,1,48,37,777170132
5,23,Ticks_Phase_5,250,5,42,127,777180624
5,23,Ticks_Phase_5,251,1,48,37,777678016
5,23,Ticks_Phase_5,252,5,42,127,777681192
5,23,Ticks_Phase_5,253,1,48,43,778161544
5,23,Ticks_Phase_5,254,5,42,127,778180936
5,23,Ticks_Phase_5,255,1,48,38,778668088
5,23,Ticks_Phase_5,256,5,42,127,778680832
5,23,Ticks_Phase_5,257,5,42,127,779181628
5,23,Ticks_Phase_5,258,1,48,39,779186384
5,23,Ticks_Phase_5,259,1,48,50,779666080
5,23,Ticks_Phase_5,260,5,42,127,779790660
5,23,Ticks_Phase_5,261,5,42,127,780290648
5,23,Ticks_Phase_5,262,1,48,31,780358200
5,23,Ticks_Phase_5,263,5,42,127,780791140
5,23,Ticks_Phase_5,264,1,48,42,780861768
5,23,Ticks_Phase_5,265,5,42,127,781290736
5,23,Ticks_Phase_5,266,1,48,37,781306476
5,23,Ticks_Phase_5,267,5,42,127,781790704
5,23,Ticks_Phase_5,268,1,48,27,781820288
5,23,Ticks_Phase_5,269,5,42,127,782291492
5,23,Ticks_Phase_5,270,1,48,32,782306188
5,23,Ticks_Phase_5,271,5,42,127,782791240
5,23,Ticks_Phase_5,272,1,48,36,782803324
5,23,Ticks_Phase_5,273,1,48,35,783280488
5,23,Ticks_Phase_5,274,5,42,127,783290756
5,23,Ticks_Phase_5,275,1,48,43,783790056
5,23,Ticks_Phase_5,276,5,42,127,783791768
5,23,Ticks_Phase_5,277,1,48,38,784274812
5,23,Ticks_Phase_5,278,5,42,127,784291144
5,23,Ticks_Phase_5,279,1,48,36,784767276
5,23,Ticks_Phase_5,280,5,42,127,784790964
5,23,Ticks_Phase_5,281,1,48,33,785273084
5,23,Ticks_Phase_5,282,5,42,127,785290460
5,23,Ticks_Phase_5,283,1,48,35,785741804
5,23,Ticks_Phase_5,284,5,42,127,785791324
5,23,Ticks_Phase_5,285,1,48,36,786249856
5,23,Ticks_Phase_5,286,5,42,127,786291144
5,23,Ticks_Phase_5,287,1,48,34,786742264
5,23,Ticks_Phase_5,288,5,42,127,786790668
5,23,Ticks_Phase_5,289,1,48,35,787257856
5,23,Ticks_Phase_5,290,5,42,127,787290416
5,23,Ticks_Phase_5,291,1,48,37,787771140
5,23,Ticks_Phase_5,292,5,42,127,787791280
5,23,Ticks_Phase_5,293,1,48,36,788272080
5,23,Ticks_Phase_5,294,5,42,127,788291172
5,23,Ticks_Phase_5,295,1,48,38,788760620
5,23,Ticks_Phase_5,296,5,42,127,788790548
5,23,Ticks_Phase_5,297,5,42,127,789191312
5,23,Ticks_Phase_5,298,1,48,43,789264032
5,23,Ticks_Phase_5,299,5,42,127,789690912
5,23,Ticks_Phase_5,300,1,48,45,789744488
5,23,Ticks_Phase_5,301,5,42,127,790190508
5,23,Ticks_Phase_5,302,1,48,27,790223080
5,23,Ticks_Phase_5,303,1,48,43,790677348
5,23,Ticks_Phase_5,304,5,42,127,790691216
5,23,Ticks_Phase_5,305,1,48,39,791164588
5,23,Ticks_Phase_5,306,5,42,127,791190888
5,23,Ticks_Phase_5,307,1,48,43,791654988
5,23,Ticks_Phase_5,308,5,42,127,791690536
5,23,Ticks_Phase_5,309,5,42,127,792191332
5,23,Ticks_Phase_5,310,1,48,20,792192296
5,23,Ticks_Phase_5,311,5,42,127,792691076
5,23,Ticks_Phase_5,312,1,48,37,792696880
5,23,Ticks_Phase_5,313,1,48,26,793157660
5,23,Ticks_Phase_5,314,5,42,127,793190888
5,23,Ticks_Phase_5,315,1,48,35,793645148
5,23,Ticks_Phase_5,316,5,42,127,793690412
5,23,Ticks_Phase_5,317,1,48,34,794175672
5,23,Ticks_Phase_5,318,5,42,127,794191180
5,23,Ticks_Phase_5,319,1,48,39,794663676
5,23,Ticks_Phase_5,320,5,42,127,794690924
5,23,Ticks_Phase_5,321,1,48,30,795161256
5,23,Ticks_Phase_5,322,5,42,127,795190892
5,23,Ticks_Phase_5,323,1,48,37,795625860
5,23,Ticks_Phase_5,324,5,42,127,795691384
5,23,Ticks_Phase_5,325,1,48,30,796134128
5,23,Ticks_Phase_5,326,5,42,127,796191128
5,23,Ticks_Phase_5,327,1,48,39,796640460
5,23,Ticks_Phase_5,328,5,42,127,796690724
5,23,Ticks_Phase_5,329,1,48,32,797152612
5,23,Ticks_Phase_5,330,5,42,127,797190620
5,23,Ticks_Phase_5,331,1,48,34,797614448
5,23,Ticks_Phase_5,332,5,42,127,797691264
5,23,Ticks_Phase_5,333,1,48,32,798138576
5,23,Ticks_Phase_5,334,5,42,127,798190932
5,23,Ticks_Phase_5,335,1,48,32,798641164
5,23,Ticks_Phase_5,336,5,42,127,798690828
5,23,Ticks_Phase_5,0,9999,9999,9999,9999,714168412
5,23,Ticks_Phase_5,1,9999,9999,9999,9999,714668104
5,23,Ticks_Phase_5,2,9999,9999,9999,9999,715168840
5,23,Ticks_Phase_5,3,9999,9999,9999,9999,715668556
5,23,Ticks_Phase_5,4,9999,9999,9999,9999,716168300
5,23,Ticks_Phase_5,5,9999,9999,9999,9999,716669012
5,23,Ticks_Phase_5,6,9999,9999,9999,9999,717168764
5,23,Ticks_Phase_5,7,9999,9999,9999,9999,717668436
5,23,Ticks_Phase_5,8,9999,9999,9999,9999,718168176
5,23,Ticks_Phase_5,9,9999,9999,9999,9999,718668892
5,23,Ticks_Phase_5,10,9999,9999,9999,9999,719168636
5,23,Ticks_Phase_5,11,9999,9999,9999,9999,719668308
5,23,Ticks_Phase_5,12,9999,9999,9999,9999,720169024
5,23,Ticks_Phase_5,13,9999,9999,9999,9999,720668768
5,23,Ticks_Phase_5,14,9999,9999,9999,9999,721168440
5,23,Ticks_Phase_5,15,9999,9999,9999,9999,721668188
5,23,Ticks_Phase_5,16,9999,9999,9999,9999,722168900
5,23,Ticks_Phase_5,17,9999,9999,9999,9999,722668652
5,23,Ticks_Phase_5,18,9999,9999,9999,9999,723168316
5,23,Ticks_Phase_5,19,9999,9999,9999,9999,723669112
5,23,Ticks_Phase_5,20,9999,9999,9999,9999,724168776
5,23,Ticks_Phase_5,21,9999,9999,9999,9999,724668524
5,23,Ticks_Phase_5,22,9999,9999,9999,9999,725168196
5,23,Ticks_Phase_5,23,9999,9999,9999,9999,725668984
5,23,Ticks_Phase_5,24,9999,9999,9999,9999,726168656
5,23,Ticks_Phase_5,25,9999,9999,9999,9999,726668376
5,23,Ticks_Phase_5,26,9999,9999,9999,9999,727168120
5,23,Ticks_Phase_5,27,9999,9999,9999,9999,727668836
5,23,Ticks_Phase_5,28,9999,9999,9999,9999,728168508
5,23,Ticks_Phase_5,29,9999,9999,9999,9999,728668252
5,23,Ticks_Phase_5,30,9999,9999,9999,9999,729158728
5,23,Ticks_Phase_5,31,9999,9999,9999,9999,729658476
5,23,Ticks_Phase_5,32,9999,9999,9999,9999,730158148
5,23,Ticks_Phase_5,33,9999,9999,9999,9999,730658936
5,23,Ticks_Phase_5,34,9999,9999,9999,9999,731158608
5,23,Ticks_Phase_5,35,9999,9999,9999,9999,731658352
5,23,Ticks_Phase_5,36,9999,9999,9999,9999,732159076
5,23,Ticks_Phase_5,37,9999,9999,9999,9999,732658748
5,23,Ticks_Phase_5,38,9999,9999,9999,9999,733158484
5,23,Ticks_Phase_5,39,9999,9999,9999,9999,733658236
5,23,Ticks_Phase_5,40,9999,9999,9999,9999,734158944
5,23,Ticks_Phase_5,41,9999,9999,9999,9999,734658616
5,23,Ticks_Phase_5,42,9999,9999,9999,9999,735158360
5,23,Ticks_Phase_5,43,9999,9999,9999,9999,735659084
5,23,Ticks_Phase_5,44,9999,9999,9999,9999,736169064
5,23,Ticks_Phase_5,45,9999,9999,9999,9999,736668732
5,23,Ticks_Phase_5,46,9999,9999,9999,9999,737168456
5,23,Ticks_Phase_5,47,9999,9999,9999,9999,737668176
5,23,Ticks_Phase_5,48,9999,9999,9999,9999,738178164
5,23,Ticks_Phase_5,49,9999,9999,9999,9999,738678880
5,23,Ticks_Phase_5,50,9999,9999,9999,9999,739178548
5,23,Ticks_Phase_5,51,9999,9999,9999,9999,739678296
5,23,Ticks_Phase_5,52,9999,9999,9999,9999,740179012
5,23,Ticks_Phase_5,53,9999,9999,9999,9999,740678756
5,23,Ticks_Phase_5,54,9999,9999,9999,9999,741178428
5,23,Ticks_Phase_5,55,9999,9999,9999,9999,741678176
5,23,Ticks_Phase_5,56,9999,9999,9999,9999,742178896
5,23,Ticks_Phase_5,57,9999,9999,9999,9999,742678636
5,23,Ticks_Phase_5,58,9999,9999,9999,9999,743178312
5,23,Ticks_Phase_5,59,9999,9999,9999,9999,743679032
5,23,Ticks_Phase_5,60,9999,9999,9999,9999,744178772
5,23,Ticks_Phase_5,61,9999,9999,9999,9999,744678520
5,23,Ticks_Phase_5,62,9999,9999,9999,9999,745178188
5,23,Ticks_Phase_5,63,9999,9999,9999,9999,745678908
5,23,Ticks_Phase_5,64,9999,9999,9999,9999,746198092
5,23,Ticks_Phase_5,65,9999,9999,9999,9999,746698824
5,23,Ticks_Phase_5,66,9999,9999,9999,9999,747198568
5,23,Ticks_Phase_5,67,9999,9999,9999,9999,747698244
5,23,Ticks_Phase_5,68,9999,9999,9999,9999,748199032
5,23,Ticks_Phase_5,69,9999,9999,9999,9999,748698704
5,23,Ticks_Phase_5,70,9999,9999,9999,9999,749198424
5,23,Ticks_Phase_5,71,9999,9999,9999,9999,749698168
5,23,Ticks_Phase_5,72,9999,9999,9999,9999,750198884
5,23,Ticks_Phase_5,73,9999,9999,9999,9999,750698556
5,23,Ticks_Phase_5,74,9999,9999,9999,9999,751198300
5,23,Ticks_Phase_5,75,9999,9999,9999,9999,751699016
5,23,Ticks_Phase_5,76,9999,9999,9999,9999,752198760
5,23,Ticks_Phase_5,77,9999,9999,9999,9999,752698432
5,23,Ticks_Phase_5,78,9999,9999,9999,9999,753198176
5,23,Ticks_Phase_5,79,9999,9999,9999,9999,753698892
5,23,Ticks_Phase_5,80,9999,9999,9999,9999,754198636
5,23,Ticks_Phase_5,81,9999,9999,9999,9999,754678868
5,23,Ticks_Phase_5,82,9999,9999,9999,9999,755178616
5,23,Ticks_Phase_5,83,9999,9999,9999,9999,755678288
5,23,Ticks_Phase_5,84,9999,9999,9999,9999,756179004
5,23,Ticks_Phase_5,85,9999,9999,9999,9999,756678748
5,23,Ticks_Phase_5,86,9999,9999,9999,9999,757178492
5,23,Ticks_Phase_5,87,9999,9999,9999,9999,757678164
5,23,Ticks_Phase_5,88,9999,9999,9999,9999,758178880
5,23,Ticks_Phase_5,89,9999,9999,9999,9999,758678624
5,23,Ticks_Phase_5,90,9999,9999,9999,9999,759178352
5,23,Ticks_Phase_5,91,9999,9999,9999,9999,759679060
5,23,Ticks_Phase_5,92,9999,9999,9999,9999,760178808
5,23,Ticks_Phase_5,93,9999,9999,9999,9999,760678476
5,23,Ticks_Phase_5,94,9999,9999,9999,9999,761178224
5,23,Ticks_Phase_5,95,9999,9999,9999,9999,761678940
5,23,Ticks_Phase_5,96,9999,9999,9999,9999,762178684
5,23,Ticks_Phase_5,97,9999,9999,9999,9999,762628200
5,23,Ticks_Phase_5,98,9999,9999,9999,9999,763128912
5,23,Ticks_Phase_5,99,9999,9999,9999,9999,763628660
5,23,Ticks_Phase_5,100,9999,9999,9999,9999,764128328
5,23,Ticks_Phase_5,101,9999,9999,9999,9999,764629120
5,23,Ticks_Phase_5,102,9999,9999,9999,9999,765128788
5,23,Ticks_Phase_5,103,9999,9999,9999,9999,765628536
5,23,Ticks_Phase_5,104,9999,9999,9999,9999,766128208
5,23,Ticks_Phase_5,105,9999,9999,9999,9999,766628992
5,23,Ticks_Phase_5,106,9999,9999,9999,9999,767128660
5,23,Ticks_Phase_5,107,9999,9999,9999,9999,767628380
5,23,Ticks_Phase_5,108,9999,9999,9999,9999,768128128
5,23,Ticks_Phase_5,109,9999,9999,9999,9999,768628840
5,23,Ticks_Phase_5,110,9999,9999,9999,9999,769128512
5,23,Ticks_Phase_5,111,9999,9999,9999,9999,769628260
5,23,Ticks_Phase_5,112,9999,9999,9999,9999,770128976
5,23,Ticks_Phase_5,113,9999,9999,9999,9999,770628720
5,23,Ticks_Phase_5,114,9999,9999,9999,9999,771178556
5,23,Ticks_Phase_5,115,9999,9999,9999,9999,771678304
5,23,Ticks_Phase_5,116,9999,9999,9999,9999,772179024
5,23,Ticks_Phase_5,117,9999,9999,9999,9999,772678764
5,23,Ticks_Phase_5,118,9999,9999,9999,9999,773178444
5,23,Ticks_Phase_5,119,9999,9999,9999,9999,773678188
5,23,Ticks_Phase_5,120,9999,9999,9999,9999,774178904
5,23,Ticks_Phase_5,121,9999,9999,9999,9999,774678644
5,23,Ticks_Phase_5,122,9999,9999,9999,9999,775178312
5,23,Ticks_Phase_5,123,9999,9999,9999,9999,775679028
5,23,Ticks_Phase_5,124,9999,9999,9999,9999,776178776
5,23,Ticks_Phase_5,125,9999,9999,9999,9999,776678520
5,23,Ticks_Phase_5,126,9999,9999,9999,9999,777178192
5,23,Ticks_Phase_5,127,9999,9999,9999,9999,777678908
5,23,Ticks_Phase_5,128,9999,9999,9999,9999,778178652
5,23,Ticks_Phase_5,129,9999,9999,9999,9999,778678400
5,23,Ticks_Phase_5,130,9999,9999,9999,9999,779179120
5,23,Ticks_Phase_5,131,9999,9999,9999,9999,779788372
5,23,Ticks_Phase_5,132,9999,9999,9999,9999,780288068
5,23,Ticks_Phase_5,133,9999,9999,9999,9999,780788856
5,23,Ticks_Phase_5,134,9999,9999,9999,9999,781288528
5,23,Ticks_Phase_5,135,9999,9999,9999,9999,781788272
5,23,Ticks_Phase_5,136,9999,9999,9999,9999,782288988
5,23,Ticks_Phase_5,137,9999,9999,9999,9999,782788732
5,23,Ticks_Phase_5,138,9999,9999,9999,9999,783288400
5,23,Ticks_Phase_5,139,9999,9999,9999,9999,783788148
5,23,Ticks_Phase_5,140,9999,9999,9999,9999,784288860
5,23,Ticks_Phase_5,141,9999,9999,9999,9999,784788604
5,23,Ticks_Phase_5,142,9999,9999,9999,9999,785288252
5,23,Ticks_Phase_5,143,9999,9999,9999,9999,785789044
5,23,Ticks_Phase_5,144,9999,9999,9999,9999,786288712
5,23,Ticks_Phase_5,145,9999,9999,9999,9999,786788460
5,23,Ticks_Phase_5,146,9999,9999,9999,9999,787288132
5,23,Ticks_Phase_5,147,9999,9999,9999,9999,787788924
5,23,Ticks_Phase_5,148,9999,9999,9999,9999,788288592
5,23,Ticks_Phase_5,149,9999,9999,9999,9999,788788340
5,23,Ticks_Phase_5,150,9999,9999,9999,9999,789188732
5,23,Ticks_Phase_5,151,9999,9999,9999,9999,789688404
5,23,Ticks_Phase_5,152,9999,9999,9999,9999,790188152
5,23,Ticks_Phase_5,153,9999,9999,9999,9999,790688860
5,23,Ticks_Phase_5,154,9999,9999,9999,9999,791188604
5,23,Ticks_Phase_5,155,9999,9999,9999,9999,791688252
5,23,Ticks_Phase_5,156,9999,9999,9999,9999,792189048
5,23,Ticks_Phase_5,157,9999,9999,9999,9999,792688720
5,23,Ticks_Phase_5,158,9999,9999,9999,9999,793188456
5,23,Ticks_Phase_5,159,9999,9999,9999,9999,793688128
5,23,Ticks_Phase_5,160,9999,9999,9999,9999,794188896
5,23,Ticks_Phase_5,161,9999,9999,9999,9999,794688568
5,23,Ticks_Phase_5,162,9999,9999,9999,9999,795188312
5,23,Ticks_Phase_5,163,9999,9999,9999,9999,795689028
5,23,Ticks_Phase_5,164,9999,9999,9999,9999,796188772
5,23,Ticks_Phase_5,165,9999,9999,9999,9999,796688440
5,23,Ticks_Phase_5,166,9999,9999,9999,9999,797188188
5,23,Ticks_Phase_5,167,9999,9999,9999,9999,797688904
5,23,Ticks_Phase_5,168,9999,9999,9999,9999,798188648
5,23,Ticks_Phase_5,169,9999,9999,9999,9999,798688320
6,22,Ticks_Phase_8,0,5,42,127,809705136
6,22,Ticks_Phase_8,1,1,48,29,810285980
6,22,Ticks_Phase_8,2,5,42,127,810504696
6,22,Ticks_Phase_8,3,1,48,41,811297516
6,22,Ticks_Phase_8,4,5,42,127,811305396
6,22,Ticks_Phase_8,5,5,42,127,812105040
6,22,Ticks_Phase_8,6,1,48,38,812131628
6,22,Ticks_Phase_8,7,1,48,48,812875788
6,22,Ticks_Phase_8,8,5,42,127,812904748
6,22,Ticks_Phase_8,9,1,48,42,813679756
6,22,Ticks_Phase_8,10,5,42,127,813704460
6,22,Ticks_Phase_8,11,1,48,46,814495196
6,22,Ticks_Phase_8,12,5,42,127,814505540
6,22,Ticks_Phase_8,13,5,42,127,815304964
6,22,Ticks_Phase_8,14,1,48,54,815314880
6,22,Ticks_Phase_8,15,1,48,44,816102468
6,22,Ticks_Phase_8,16,5,42,127,816104892
6,22,Ticks_Phase_8,17,1,48,49,816868692
6,22,Ticks_Phase_8,18,5,42,127,816904532
6,22,Ticks_Phase_8,19,1,48,57,817639092
6,22,Ticks_Phase_8,20,5,42,127,817705288
6,22,Ticks_Phase_8,21,1,48,46,818477980
6,22,Ticks_Phase_8,22,5,42,127,818505000
6,22,Ticks_Phase_8,23,1,48,54,819244504
6,22,Ticks_Phase_8,24,5,42,127,819304936
6,22,Ticks_Phase_8,25,1,48,52,820040096
6,22,Ticks_Phase_8,26,5,42,127,820104796
6,22,Ticks_Phase_8,27,1,48,45,820887688
6,22,Ticks_Phase_8,28,5,42,127,820905432
6,22,Ticks_Phase_8,29,1,48,52,821685004
6,22,Ticks_Phase_8,30,5,42,127,821704924
6,22,Ticks_Phase_8,31,5,42,127,822504792
6,22,Ticks_Phase_8,32,1,48,47,822518072
6,22,Ticks_Phase_8,33,5,42,127,823304432
6,22,Ticks_Phase_8,34,1,48,58,823311272
6,22,Ticks_Phase_8,35,5,42,127,824105408
6,22,Ticks_Phase_8,36,1,48,59,824107348
6,22,Ticks_Phase_8,37,1,48,50,824902860
6,22,Ticks_Phase_8,38,5,42,127,824904968
6,22,Ticks_Phase_8,39,1,48,61,825649920
6,22,Ticks_Phase_8,40,5,42,127,825704680
6,22,Ticks_Phase_8,41,5,42,127,826504548
6,22,Ticks_Phase_8,42,1,48,53,826528848
6,22,Ticks_Phase_8,43,5,42,127,827305408
6,22,Ticks_Phase_8,44,1,48,47,827313536
6,22,Ticks_Phase_8,45,5,42,127,828105492
6,22,Ticks_Phase_8,46,1,48,61,828124536
6,22,Ticks_Phase_8,47,5,42,127,828904832
6,22,Ticks_Phase_8,48,1,48,57,828937332
6,22,Ticks_Phase_8,49,5,42,127,829704472
6,22,Ticks_Phase_8,50,1,48,57,829750496
6,22,Ticks_Phase_8,51,5,42,127,830505452
6,22,Ticks_Phase_8,52,1,48,57,830511700
6,22,Ticks_Phase_8,53,5,42,127,831305164
6,22,Ticks_Phase_8,54,1,48,61,831317920
6,22,Ticks_Phase_8,55,1,48,55,831987988
6,22,Ticks_Phase_8,56,5,42,127,832104780
6,22,Ticks_Phase_8,57,5,42,127,832904592
6,22,Ticks_Phase_8,58,1,48,54,832932840
6,22,Ticks_Phase_8,59,5,42,127,833684816
6,22,Ticks_Phase_8,60,1,48,51,833792072
6,22,Ticks_Phase_8,61,5,42,127,834484532
6,22,Ticks_Phase_8,62,1,48,49,834569656
6,22,Ticks_Phase_8,63,5,42,127,835285216
6,22,Ticks_Phase_8,64,1,48,61,835328028
6,22,Ticks_Phase_8,65,5,42,127,836085148
6,22,Ticks_Phase_8,66,1,48,59,836108452
6,22,Ticks_Phase_8,67,5,42,127,836885012
6,22,Ticks_Phase_8,68,1,48,51,836916316
6,22,Ticks_Phase_8,69,5,42,127,837684796
6,22,Ticks_Phase_8,70,1,48,54,837700468
6,22,Ticks_Phase_8,71,1,48,58,838447912
6,22,Ticks_Phase_8,72,5,42,127,838485252
6,22,Ticks_Phase_8,73,5,42,127,839285120
6,22,Ticks_Phase_8,74,1,48,49,839359280
6,22,Ticks_Phase_8,75,1,48,64,840081900
6,22,Ticks_Phase_8,76,5,42,127,840085072
6,22,Ticks_Phase_8,77,1,48,58,840847748
6,22,Ticks_Phase_8,78,5,42,127,840884636
6,22,Ticks_Phase_8,79,5,42,127,841685252
6,22,Ticks_Phase_8,80,1,48,53,841686216
6,22,Ticks_Phase_8,81,5,42,127,842485040
6,22,Ticks_Phase_8,82,1,48,53,842496008
6,22,Ticks_Phase_8,83,1,48,56,843268040
6,22,Ticks_Phase_8,84,5,42,127,843284896
6,22,Ticks_Phase_8,85,1,48,51,844071856
6,22,Ticks_Phase_8,86,5,42,127,844084756
6,22,Ticks_Phase_8,87,1,48,49,844860588
6,22,Ticks_Phase_8,88,5,42,127,844885588
6,22,Ticks_Phase_8,89,1,48,61,845636676
6,22,Ticks_Phase_8,90,5,42,127,845685076
6,22,Ticks_Phase_8,91,1,48,66,846458896
6,22,Ticks_Phase_8,92,5,42,127,846484964
6,22,Ticks_Phase_8,93,1,48,59,847230416
6,22,Ticks_Phase_8,94,5,42,127,847284604
6,22,Ticks_Phase_8,95,1,48,59,848024704
6,22,Ticks_Phase_8,96,5,42,127,848104800
6,22,Ticks_Phase_8,97,1,48,57,848891840
6,22,Ticks_Phase_8,98,5,42,127,848904664
6,22,Ticks_Phase_8,99,1,48,59,849689240
6,22,Ticks_Phase_8,100,5,42,127,849705200
6,22,Ticks_Phase_8,101,5,42,127,850505140
6,22,Ticks_Phase_8,102,1,48,60,850513568
6,22,Ticks_Phase_8,103,1,48,53,851303340
6,22,Ticks_Phase_8,104,5,42,127,851305068
6,22,Ticks_Phase_8,105,5,42,127,852104416
6,22,Ticks_Phase_8,106,1,48,61,852118548
6,22,Ticks_Phase_8,107,1,48,57,852894328
6,22,Ticks_Phase_8,108,5,42,127,852905196
6,22,Ticks_Phase_8,109,5,42,127,853705284
6,22,Ticks_Phase_8,110,1,48,53,853742112
6,22,Ticks_Phase_8,111,5,42,127,854504704
6,22,Ticks_Phase_8,112,1,48,58,854535776
6,22,Ticks_Phase_8,113,5,42,127,855304492
6,22,Ticks_Phase_8,114,1,48,59,855326664
6,22,Ticks_Phase_8,115,5,42,127,856105396
6,22,Ticks_Phase_8,116,1,48,54,856139532
6,22,Ticks_Phase_8,117,5,42,127,856905184
6,22,Ticks_Phase_8,118,1,48,56,856921452
6,22,Ticks_Phase_8,119,5,42,127,857704896
6,22,Ticks_Phase_8,120,1,48,60,857722212
6,22,Ticks_Phase_8,121,1,48,57,858486928
6,22,Ticks_Phase_8,122,5,42,127,858504528
6,22,Ticks_Phase_8,123,1,48,61,859281504
6,22,Ticks_Phase_8,124,5,42,127,859305312
6,22,Ticks_Phase_8,125,1,48,53,860080840
6,22,Ticks_Phase_8,126,5,42,127,860105024
6,22,Ticks_Phase_8,127,1,48,62,860914204
6,22,Ticks_Phase_8,128,5,42,127,860945032
6,22,Ticks_Phase_8,129,1,48,61,861732376
6,22,Ticks_Phase_8,130,5,42,127,861744672
6,22,Ticks_Phase_8,131,1,48,56,862504436
6,22,Ticks_Phase_8,132,5,42,127,862545208
6,22,Ticks_Phase_8,133,5,42,127,863345076
6,22,Ticks_Phase_8,134,1,48,55,863390156
6,22,Ticks_Phase_8,135,5,42,127,864144888
6,22,Ticks_Phase_8,136,1,48,51,864192720
6,22,Ticks_Phase_8,137,1,48,51,864941644
6,22,Ticks_Phase_8,138,5,42,127,864944596
6,22,Ticks_Phase_8,139,5,42,127,865745436
6,22,Ticks_Phase_8,140,1,48,55,865808660
6,22,Ticks_Phase_8,141,1,48,44,866538012
6,22,Ticks_Phase_8,142,5,42,127,866545068
6,22,Ticks_Phase_8,143,5,42,127,867344860
6,22,Ticks_Phase_8,144,1,48,46,867353288
6,22,Ticks_Phase_8,145,1,48,48,868138628
6,22,Ticks_Phase_8,146,5,42,127,868144492
6,22,Ticks_Phase_8,147,5,42,127,868945552
6,22,Ticks_Phase_8,148,1,48,56,868960480
6,22,Ticks_Phase_8,149,1,48,61,869733724
6,22,Ticks_Phase_8,150,5,42,127,869744964
6,22,Ticks_Phase_8,151,1,48,64,870505324
6,22,Ticks_Phase_8,152,5,42,127,870544628
6,22,Ticks_Phase_8,153,5,42,127,871344572
6,22,Ticks_Phase_8,154,1,48,69,871372876
6,22,Ticks_Phase_8,155,5,42,127,872145476
6,22,Ticks_Phase_8,156,1,48,65,872158688
6,22,Ticks_Phase_8,157,1,48,62,872904412
6,22,Ticks_Phase_8,158,5,42,127,872944964
6,22,Ticks_Phase_8,159,1,48,61,873726256
6,22,Ticks_Phase_8,160,5,42,127,873744676
6,22,Ticks_Phase_8,161,5,42,127,874504548
6,22,Ticks_Phase_8,162,1,48,44,874518276
6,22,Ticks_Phase_8,163,5,42,127,875305304
6,22,Ticks_Phase_8,164,1,48,65,875322168
6,22,Ticks_Phase_8,165,5,42,127,876105016
6,22,Ticks_Phase_8,166,1,48,57,876140424
6,22,Ticks_Phase_8,167,1,48,60,876880392
6,22,Ticks_Phase_8,168,5,42,127,876904948
6,22,Ticks_Phase_8,169,1,48,57,877669264
6,22,Ticks_Phase_8,170,5,42,127,877704512
6,22,Ticks_Phase_8,171,1,48,60,878458808
6,22,Ticks_Phase_8,172,5,42,127,878505220
6,22,Ticks_Phase_8,173,1,48,62,879228096
6,22,Ticks_Phase_8,174,5,42,127,879305152
6,22,Ticks_Phase_8,175,1,48,59,880056392
6,22,Ticks_Phase_8,176,5,42,127,880104864
6,22,Ticks_Phase_8,177,5,42,127,880904512
6,22,Ticks_Phase_8,178,1,48,59,880925492
6,22,Ticks_Phase_8,179,5,42,127,881705196
6,22,Ticks_Phase_8,180,1,48,68,881740676
6,22,Ticks_Phase_8,181,5,42,127,882505132
6,22,Ticks_Phase_8,182,1,48,66,882521024
6,22,Ticks_Phase_8,183,1,48,62,883303716
6,22,Ticks_Phase_8,184,5,42,127,883305512
6,22,Ticks_Phase_8,185,5,42,127,884104704
6,22,Ticks_Phase_8,186,1,48,59,884119328
6,22,Ticks_Phase_8,187,5,42,127,884905460
6,22,Ticks_Phase_8,188,1,48,61,884933852
6,22,Ticks_Phase_8,189,1,48,58,885647424
6,22,Ticks_Phase_8,190,5,42,127,885704944
6,22,Ticks_Phase_8,191,1,48,45,886494908
6,22,Ticks_Phase_8,192,5,42,127,886504880
6,22,Ticks_Phase_8,193,5,42,127,887224684
6,22,Ticks_Phase_8,194,1,48,57,887348760
6,22,Ticks_Phase_8,195,5,42,127,888024544
6,22,Ticks_Phase_8,196,1,48,43,888070116
6,22,Ticks_Phase_8,197,5,42,127,888825300
6,22,Ticks_Phase_8,198,1,48,49,888913352
6,22,Ticks_Phase_8,199,5,42,127,889624864
6,22,Ticks_Phase_8,200,1,48,40,889710436
6,22,Ticks_Phase_8,201,5,42,127,890424728
6,22,Ticks_Phase_8,202,1,48,46,890451684
6,22,Ticks_Phase_8,203,5,42,127,891224512
6,22,Ticks_Phase_8,204,1,48,40,891354004
6,22,Ticks_Phase_8,205,5,42,127,892025420
6,22,Ticks_Phase_8,206,1,48,39,892154916
6,22,Ticks_Phase_8,207,5,42,127,892824936
6,22,Ticks_Phase_8,208,1,48,43,892899968
6,22,Ticks_Phase_8,209,5,42,127,893624724
6,22,Ticks_Phase_8,210,1,48,43,893685856
6,22,Ticks_Phase_8,211,5,42,127,894424440
6,22,Ticks_Phase_8,212,1,48,38,894482196
6,22,Ticks_Phase_8,213,5,42,127,895225492
6,22,Ticks_Phase_8,214,1,48,51,895269428
6,22,Ticks_Phase_8,215,5,42,127,896024908
6,22,Ticks_Phase_8,216,1,48,38,896050524
6,22,Ticks_Phase_8,217,1,48,41,896823108
6,22,Ticks_Phase_8,218,5,42,127,896824836
6,22,Ticks_Phase_8,219,5,42,127,897624408
6,22,Ticks_Phase_8,220,1,48,39,897656232
6,22,Ticks_Phase_8,221,5,42,127,898425316
6,22,Ticks_Phase_8,222,1,48,33,898460752
6,22,Ticks_Phase_8,223,1,48,50,899204364
6,22,Ticks_Phase_8,224,5,42,127,899225120
6,22,Ticks_Phase_8,225,5,42,127,900024768
6,22,Ticks_Phase_8,226,1,48,38,900066836
6,22,Ticks_Phase_8,227,1,48,30,900862864
6,22,Ticks_Phase_8,228,5,42,127,900905296
6,22,Ticks_Phase_8,229,5,42,127,901705016
6,22,Ticks_Phase_8,230,1,48,33,901804972
6,22,Ticks_Phase_8,231,5,42,127,902505100
6,22,Ticks_Phase_8,232,1,48,27,902621428
6,22,Ticks_Phase_8,233,5,42,127,903304616
6,22,Ticks_Phase_8,234,1,48,37,903406716
6,22,Ticks_Phase_8,235,5,42,127,904105524
6,22,Ticks_Phase_8,236,1,48,32,904146764
6,22,Ticks_Phase_8,237,5,42,127,904905012
6,22,Ticks_Phase_8,238,1,48,39,904915680
6,22,Ticks_Phase_8,239,5,42,127,905704952
6,22,Ticks_Phase_8,240,1,48,40,905712616
6,22,Ticks_Phase_8,241,5,42,127,906504664
6,22,Ticks_Phase_8,242,1,48,40,906525648
6,22,Ticks_Phase_8,243,5,42,127,907305200
6,22,Ticks_Phase_8,244,1,48,38,907320052
6,22,Ticks_Phase_8,245,5,42,127,908105140
6,22,Ticks_Phase_8,246,1,48,34,908106028
6,22,Ticks_Phase_8,247,5,42,127,908904776
6,22,Ticks_Phase_8,248,1,48,29,908932568
6,22,Ticks_Phase_8,249,5,42,127,909704740
6,22,Ticks_Phase_8,250,1,48,33,909781860
6,22,Ticks_Phase_8,251,5,42,127,910505272
6,22,Ticks_Phase_8,252,1,48,29,910596752
6,22,Ticks_Phase_8,253,1,48,38,911285440
6,22,Ticks_Phase_8,254,5,42,127,911305200
6,22,Ticks_Phase_8,255,1,48,19,912068628
6,22,Ticks_Phase_8,256,5,42,127,912104840
6,22,Ticks_Phase_8,257,5,42,127,912904712
6,22,Ticks_Phase_8,258,1,48,40,912910064
6,22,Ticks_Phase_8,259,5,42,127,913705320
6,22,Ticks_Phase_8,260,1,48,38,913715688
6,22,Ticks_Phase_8,261,1,48,26,914539832
6,22,Ticks_Phase_8,262,5,42,127,914664948
6,22,Ticks_Phase_8,263,5,42,127,915464536
6,22,Ticks_Phase_8,264,1,48,25,915702196
6,22,Ticks_Phase_8,265,5,42,127,916265444
6,22,Ticks_Phase_8,266,1,48,35,916511852
6,22,Ticks_Phase_8,267,5,42,127,917065228
6,22,Ticks_Phase_8,268,1,48,36,917169144
6,22,Ticks_Phase_8,269,5,42,127,917864944
6,22,Ticks_Phase_8,270,1,48,37,917925956
6,22,Ticks_Phase_8,271,5,42,127,918664536
6,22,Ticks_Phase_8,272,1,48,46,918676468
6,22,Ticks_Phase_8,273,5,42,127,919465368
6,22,Ticks_Phase_8,274,1,48,46,919521336
6,22,Ticks_Phase_8,275,1,48,42,920246876
6,22,Ticks_Phase_8,276,5,42,127,920265224
6,22,Ticks_Phase_8,277,1,48,35,921048608
6,22,Ticks_Phase_8,278,5,42,127,921064712
6,22,Ticks_Phase_8,279,5,42,127,921864432
6,22,Ticks_Phase_8,280,1,48,43,921871052
6,22,Ticks_Phase_8,281,5,42,127,922665264
6,22,Ticks_Phase_8,282,1,48,38,922694996
6,22,Ticks_Phase_8,283,5,42,127,923465052
6,22,Ticks_Phase_8,284,1,48,48,923480128
6,22,Ticks_Phase_8,285,5,42,127,924264836
6,22,Ticks_Phase_8,286,1,48,43,924300120
6,22,Ticks_Phase_8,287,5,42,127,925064500
6,22,Ticks_Phase_8,288,1,48,45,925075020
6,22,Ticks_Phase_8,289,5,42,127,925865408
6,22,Ticks_Phase_8,290,1,48,45,925922436
6,22,Ticks_Phase_8,291,1,48,52,926643780
6,22,Ticks_Phase_8,292,5,42,127,926664964
6,22,Ticks_Phase_8,293,1,48,50,927439820
6,22,Ticks_Phase_8,294,5,42,127,927464900
6,22,Ticks_Phase_8,295,1,48,52,928213156
6,22,Ticks_Phase_8,296,5,42,127,928264688
6,22,Ticks_Phase_8,297,1,48,38,929062348
6,22,Ticks_Phase_8,298,5,42,127,929065372
6,22,Ticks_Phase_8,299,5,42,127,929705328
6,22,Ticks_Phase_8,300,1,48,44,929897816
6,22,Ticks_Phase_8,301,5,42,127,930505116
6,22,Ticks_Phase_8,302,1,48,42,930673604
6,22,Ticks_Phase_8,303,5,42,127,931304756
6,22,Ticks_Phase_8,304,1,48,21,931471692
6,22,Ticks_Phase_8,305,5,42,127,932104540
6,22,Ticks_Phase_8,306,1,48,40,932148552
6,22,Ticks_Phase_8,307,5,42,127,932905448
6,22,Ticks_Phase_8,308,1,48,49,932909088
6,22,Ticks_Phase_8,309,5,42,127,933705084
6,22,Ticks_Phase_8,310,1,48,42,933729056
6,22,Ticks_Phase_8,311,5,42,127,934504724
6,22,Ticks_Phase_8,312,1,48,40,934528916
6,22,Ticks_Phase_8,313,5,42,127,935304536
6,22,Ticks_Phase_8,314,1,48,49,935346376
6,22,Ticks_Phase_8,315,1,48,28,936100392
6,22,Ticks_Phase_8,316,5,42,127,936105580
6,22,Ticks_Phase_8,317,1,48,38,936874248
6,22,Ticks_Phase_8,318,5,42,127,936905000
6,22,Ticks_Phase_8,319,5,42,127,937704940
6,22,Ticks_Phase_8,320,1,48,43,937731304
6,22,Ticks_Phase_8,321,5,42,127,938504504
6,22,Ticks_Phase_8,322,1,48,31,938507920
6,22,Ticks_Phase_8,323,1,48,38,939286616
6,22,Ticks_Phase_8,324,5,42,127,939305408
6,22,Ticks_Phase_8,325,1,48,46,940080340
6,22,Ticks_Phase_8,326,5,42,127,940105120
6,22,Ticks_Phase_8,327,5,42,127,940904912
6,22,Ticks_Phase_8,328,1,48,49,940906248
6,22,Ticks_Phase_8,329,5,42,127,941704504
6,22,Ticks_Phase_8,330,1,48,45,941732504
6,22,Ticks_Phase_8,331,5,42,127,942505336
6,22,Ticks_Phase_8,332,1,48,42,942533572
6,22,Ticks_Phase_8,333,5,42,127,943305196
6,22,Ticks_Phase_8,334,1,48,43,943342712
6,22,Ticks_Phase_8,335,5,42,127,944104908
6,22,Ticks_Phase_8,336,1,48,20,944138972
6,22,Ticks_Phase_8,337,5,42,127,944904476
6,22,Ticks_Phase_8,0,9999,9999,9999,9999,809702480
6,22,Ticks_Phase_8,1,9999,9999,9999,9999,810502268
6,22,Ticks_Phase_8,2,9999,9999,9999,9999,811302964
6,22,Ticks_Phase_8,3,9999,9999,9999,9999,812102760
6,22,Ticks_Phase_8,4,9999,9999,9999,9999,812902464
6,22,Ticks_Phase_8,5,9999,9999,9999,9999,813702252
6,22,Ticks_Phase_8,6,9999,9999,9999,9999,814503036
6,22,Ticks_Phase_8,7,9999,9999,9999,9999,815302756
6,22,Ticks_Phase_8,8,9999,9999,9999,9999,816102536
6,22,Ticks_Phase_8,9,9999,9999,9999,9999,816902248
6,22,Ticks_Phase_8,10,9999,9999,9999,9999,817703004
6,22,Ticks_Phase_8,11,9999,9999,9999,9999,818502720
6,22,Ticks_Phase_8,12,9999,9999,9999,9999,819302508
6,22,Ticks_Phase_8,13,9999,9999,9999,9999,820102216
6,22,Ticks_Phase_8,14,9999,9999,9999,9999,820903000
6,22,Ticks_Phase_8,15,9999,9999,9999,9999,821702712
6,22,Ticks_Phase_8,16,9999,9999,9999,9999,822502508
6,22,Ticks_Phase_8,17,9999,9999,9999,9999,823302220
6,22,Ticks_Phase_8,18,9999,9999,9999,9999,824102976
6,22,Ticks_Phase_8,19,9999,9999,9999,9999,824902728
6,22,Ticks_Phase_8,20,9999,9999,9999,9999,825702472
6,22,Ticks_Phase_8,21,9999,9999,9999,9999,826502264
6,22,Ticks_Phase_8,22,9999,9999,9999,9999,827302976
6,22,Ticks_Phase_8,23,9999,9999,9999,9999,828102760
6,22,Ticks_Phase_8,24,9999,9999,9999,9999,828902476
6,22,Ticks_Phase_8,25,9999,9999,9999,9999,829702260
6,22,Ticks_Phase_8,26,9999,9999,9999,9999,830503020
6,22,Ticks_Phase_8,27,9999,9999,9999,9999,831302732
6,22,Ticks_Phase_8,28,9999,9999,9999,9999,832102496
6,22,Ticks_Phase_8,29,9999,9999,9999,9999,832902232
6,22,Ticks_Phase_8,30,9999,9999,9999,9999,833682532
6,22,Ticks_Phase_8,31,9999,9999,9999,9999,834482248
6,22,Ticks_Phase_8,32,9999,9999,9999,9999,835283004
6,22,Ticks_Phase_8,33,9999,9999,9999,9999,836082792
6,22,Ticks_Phase_8,34,9999,9999,9999,9999,836882504
6,22,Ticks_Phase_8,35,9999,9999,9999,9999,837682292
6,22,Ticks_Phase_8,36,9999,9999,9999,9999,838483040
6,22,Ticks_Phase_8,37,9999,9999,9999,9999,839282760
6,22,Ticks_Phase_8,38,9999,9999,9999,9999,840082492
6,22,Ticks_Phase_8,39,9999,9999,9999,9999,840882280
6,22,Ticks_Phase_8,40,9999,9999,9999,9999,841683044
6,22,Ticks_Phase_8,41,9999,9999,9999,9999,842482756
6,22,Ticks_Phase_8,42,9999,9999,9999,9999,843282536
6,22,Ticks_Phase_8,43,9999,9999,9999,9999,844082248
6,22,Ticks_Phase_8,44,9999,9999,9999,9999,844883008
6,22,Ticks_Phase_8,45,9999,9999,9999,9999,845682792
6,22,Ticks_Phase_8,46,9999,9999,9999,9999,846482532
6,22,Ticks_Phase_8,47,9999,9999,9999,9999,847282244
6,22,Ticks_Phase_8,48,9999,9999,9999,9999,848102516
6,22,Ticks_Phase_8,49,9999,9999,9999,9999,848902232
6,22,Ticks_Phase_8,50,9999,9999,9999,9999,849702988
6,22,Ticks_Phase_8,51,9999,9999,9999,9999,850502784
6,22,Ticks_Phase_8,52,9999,9999,9999,9999,851302496
6,22,Ticks_Phase_8,53,9999,9999,9999,9999,852102208
6,22,Ticks_Phase_8,54,9999,9999,9999,9999,852902984
6,22,Ticks_Phase_8,55,9999,9999,9999,9999,853702780
6,22,Ticks_Phase_8,56,9999,9999,9999,9999,854502492
6,22,Ticks_Phase_8,57,9999,9999,9999,9999,855302208
6,22,Ticks_Phase_8,58,9999,9999,9999,9999,856103040
6,22,Ticks_Phase_8,59,9999,9999,9999,9999,856902752
6,22,Ticks_Phase_8,60,9999,9999,9999,9999,857702464
6,22,Ticks_Phase_8,61,9999,9999,9999,9999,858502244
6,22,Ticks_Phase_8,62,9999,9999,9999,9999,859303028
6,22,Ticks_Phase_8,63,9999,9999,9999,9999,860102740
6,22,Ticks_Phase_8,64,9999,9999,9999,9999,860942452
6,22,Ticks_Phase_8,65,9999,9999,9999,9999,861742168
6,22,Ticks_Phase_8,66,9999,9999,9999,9999,862542924
6,22,Ticks_Phase_8,67,9999,9999,9999,9999,863342720
6,22,Ticks_Phase_8,68,9999,9999,9999,9999,864142456
6,22,Ticks_Phase_8,69,9999,9999,9999,9999,864942164
6,22,Ticks_Phase_8,70,9999,9999,9999,9999,865742928
6,22,Ticks_Phase_8,71,9999,9999,9999,9999,866542708
6,22,Ticks_Phase_8,72,9999,9999,9999,9999,867342428
6,22,Ticks_Phase_8,73,9999,9999,9999,9999,868142136
6,22,Ticks_Phase_8,74,9999,9999,9999,9999,868942972
6,22,Ticks_Phase_8,75,9999,9999,9999,9999,869742680
6,22,Ticks_Phase_8,76,9999,9999,9999,9999,870542420
6,22,Ticks_Phase_8,77,9999,9999,9999,9999,871342140
6,22,Ticks_Phase_8,78,9999,9999,9999,9999,872142972
6,22,Ticks_Phase_8,79,9999,9999,9999,9999,872942680
6,22,Ticks_Phase_8,80,9999,9999,9999,9999,873742392
6,22,Ticks_Phase_8,81,9999,9999,9999,9999,874502264
6,22,Ticks_Phase_8,82,9999,9999,9999,9999,875303024
6,22,Ticks_Phase_8,83,9999,9999,9999,9999,876102732
6,22,Ticks_Phase_8,84,9999,9999,9999,9999,876902516
6,22,Ticks_Phase_8,85,9999,9999,9999,9999,877702228
6,22,Ticks_Phase_8,86,9999,9999,9999,9999,878503008
6,22,Ticks_Phase_8,87,9999,9999,9999,9999,879302724
6,22,Ticks_Phase_8,88,9999,9999,9999,9999,880102508
6,22,Ticks_Phase_8,89,9999,9999,9999,9999,880902228
6,22,Ticks_Phase_8,90,9999,9999,9999,9999,881702984
6,22,Ticks_Phase_8,91,9999,9999,9999,9999,882502772
6,22,Ticks_Phase_8,92,9999,9999,9999,9999,883302488
6,22,Ticks_Phase_8,93,9999,9999,9999,9999,884102200
6,22,Ticks_Phase_8,94,9999,9999,9999,9999,884903032
6,22,Ticks_Phase_8,95,9999,9999,9999,9999,885702736
6,22,Ticks_Phase_8,96,9999,9999,9999,9999,886502524
6,22,Ticks_Phase_8,97,9999,9999,9999,9999,887222396
6,22,Ticks_Phase_8,98,9999,9999,9999,9999,888022112
6,22,Ticks_Phase_8,99,9999,9999,9999,9999,888822872
6,22,Ticks_Phase_8,100,9999,9999,9999,9999,889622580
6,22,Ticks_Phase_8,101,9999,9999,9999,9999,890422368
6,22,Ticks_Phase_8,102,9999,9999,9999,9999,891222084
6,22,Ticks_Phase_8,103,9999,9999,9999,9999,892022840
6,22,Ticks_Phase_8,104,9999,9999,9999,9999,892822656
6,22,Ticks_Phase_8,105,9999,9999,9999,9999,893622368
6,22,Ticks_Phase_8,106,9999,9999,9999,9999,894422080
6,22,Ticks_Phase_8,107,9999,9999,9999,9999,895222840
6,22,Ticks_Phase_8,108,9999,9999,9999,9999,896022624
6,22,Ticks_Phase_8,109,9999,9999,9999,9999,896822340
6,22,Ticks_Phase_8,110,9999,9999,9999,9999,897622124
6,22,Ticks_Phase_8,111,9999,9999,9999,9999,898422884
6,22,Ticks_Phase_8,112,9999,9999,9999,9999,899222616
6,22,Ticks_Phase_8,113,9999,9999,9999,9999,900022336
6,22,Ticks_Phase_8,114,9999,9999,9999,9999,900903012
6,22,Ticks_Phase_8,115,9999,9999,9999,9999,901702732
6,22,Ticks_Phase_8,116,9999,9999,9999,9999,902502520
6,22,Ticks_Phase_8,117,9999,9999,9999,9999,903302236
6,22,Ticks_Phase_8,118,9999,9999,9999,9999,904103016
6,22,Ticks_Phase_8,119,9999,9999,9999,9999,904902732
6,22,Ticks_Phase_8,120,9999,9999,9999,9999,905702516
6,22,Ticks_Phase_8,121,9999,9999,9999,9999,906502232
6,22,Ticks_Phase_8,122,9999,9999,9999,9999,907302992
6,22,Ticks_Phase_8,123,9999,9999,9999,9999,908102780
6,22,Ticks_Phase_8,124,9999,9999,9999,9999,908902492
6,22,Ticks_Phase_8,125,9999,9999,9999,9999,909702204
6,22,Ticks_Phase_8,126,9999,9999,9999,9999,910502988
6,22,Ticks_Phase_8,127,9999,9999,9999,9999,911302772
6,22,Ticks_Phase_8,128,9999,9999,9999,9999,912102484
6,22,Ticks_Phase_8,129,9999,9999,9999,9999,912902204
6,22,Ticks_Phase_8,130,9999,9999,9999,9999,913703036
6,22,Ticks_Phase_8,131,9999,9999,9999,9999,914662516
6,22,Ticks_Phase_8,132,9999,9999,9999,9999,915462252
6,22,Ticks_Phase_8,133,9999,9999,9999,9999,916263012
6,22,Ticks_Phase_8,134,9999,9999,9999,9999,917062724
6,22,Ticks_Phase_8,135,9999,9999,9999,9999,917862512
6,22,Ticks_Phase_8,136,9999,9999,9999,9999,918662252
6,22,Ticks_Phase_8,137,9999,9999,9999,9999,919463008
6,22,Ticks_Phase_8,138,9999,9999,9999,9999,920262716
6,22,Ticks_Phase_8,139,9999,9999,9999,9999,921062504
6,22,Ticks_Phase_8,140,9999,9999,9999,9999,921862224
6,22,Ticks_Phase_8,141,9999,9999,9999,9999,922662980
6,22,Ticks_Phase_8,142,9999,9999,9999,9999,923462768
6,22,Ticks_Phase_8,143,9999,9999,9999,9999,924262480
6,22,Ticks_Phase_8,144,9999,9999,9999,9999,925062220
6,22,Ticks_Phase_8,145,9999,9999,9999,9999,925862976
6,22,Ticks_Phase_8,146,9999,9999,9999,9999,926662756
6,22,Ticks_Phase_8,147,9999,9999,9999,9999,927462468
6,22,Ticks_Phase_8,148,9999,9999,9999,9999,928262256
6,22,Ticks_Phase_8,149,9999,9999,9999,9999,929063016
6,22,Ticks_Phase_8,150,9999,9999,9999,9999,929702968
6,22,Ticks_Phase_8,151,9999,9999,9999,9999,930502756
6,22,Ticks_Phase_8,152,9999,9999,9999,9999,931302472
6,22,Ticks_Phase_8,153,9999,9999,9999,9999,932102256
6,22,Ticks_Phase_8,154,9999,9999,9999,9999,932903016
6,22,Ticks_Phase_8,155,9999,9999,9999,9999,933702728
6,22,Ticks_Phase_8,156,9999,9999,9999,9999,934502512
6,22,Ticks_Phase_8,157,9999,9999,9999,9999,935302252
6,22,Ticks_Phase_8,158,9999,9999,9999,9999,936103004
6,22,Ticks_Phase_8,159,9999,9999,9999,9999,936902716
6,22,Ticks_Phase_8,160,9999,9999,9999,9999,937702508
6,22,Ticks_Phase_8,161,9999,9999,9999,9999,938502224
6,22,Ticks_Phase_8,162,9999,9999,9999,9999,939302976
6,22,Ticks_Phase_8,163,9999,9999,9999,9999,940102760
6,22,Ticks_Phase_8,164,9999,9999,9999,9999,940902480
6,22,Ticks_Phase_8,165,9999,9999,9999,9999,941702220
6,22,Ticks_Phase_8,166,9999,9999,9999,9999,942502976
6,22,Ticks_Phase_8,167,9999,9999,9999,9999,943302764
6,22,Ticks_Phase_8,168,9999,9999,9999,9999,944102476
6,22,Ticks_Phase_8,169,9999,9999,9999,9999,944902264
7,10,Ticks_ISO_T2_5,0,5,42,127,959375652
7,10,Ticks_ISO_T2_5,1,5,42,127,959875424
7,10,Ticks_ISO_T2_5,2,1,48,40,960132376
7,10,Ticks_ISO_T2_5,3,5,42,127,960376124
7,10,Ticks_ISO_T2_5,4,1,48,36,960572360
7,10,Ticks_ISO_T2_5,5,5,42,127,960875876
7,10,Ticks_ISO_T2_5,6,1,48,52,960947268
7,10,Ticks_ISO_T2_5,7,5,42,127,961375552
7,10,Ticks_ISO_T2_5,8,1,48,53,961392628
7,10,Ticks_ISO_T2_5,9,5,42,127,961876272
7,10,Ticks_ISO_T2_5,10,1,48,57,961882152
7,10,Ticks_ISO_T2_5,11,5,42,127,962376096
7,10,Ticks_ISO_T2_5,12,1,48,62,962386452
7,10,Ticks_ISO_T2_5,13,1,48,62,962869464
7,10,Ticks_ISO_T2_5,14,5,42,127,962875692
7,10,Ticks_ISO_T2_5,15,1,48,72,963359808
7,10,Ticks_ISO_T2_5,16,5,42,127,963375516
7,10,Ticks_ISO_T2_5,17,1,48,53,963867092
7,10,Ticks_ISO_T2_5,18,5,42,127,963876164
7,10,Ticks_ISO_T2_5,19,1,48,63,964363412
7,10,Ticks_ISO_T2_5,20,5,42,127,964376136
7,10,Ticks_ISO_T2_5,21,5,42,127,964875748
7,10,Ticks_ISO_T2_5,22,1,48,61,964910228
7,10,Ticks_ISO_T2_5,23,1,48,59,965368364
7,10,Ticks_ISO_T2_5,24,5,42,127,965376312
7,10,Ticks_ISO_T2_5,25,1,48,62,965861092
7,10,Ticks_ISO_T2_5,26,5,42,127,965876064
7,10,Ticks_ISO_T2_5,27,1,48,70,966374764
7,10,Ticks_ISO_T2_5,28,5,42,127,966376408
7,10,Ticks_ISO_T2_5,29,5,42,127,966875420
7,10,Ticks_ISO_T2_5,30,1,48,67,966876980
7,10,Ticks_ISO_T2_5,31,5,42,127,967376144
7,10,Ticks_ISO_T2_5,32,1,48,66,967387696
7,10,Ticks_ISO_T2_5,33,5,42,127,967876044
7,10,Ticks_ISO_T2_5,34,1,48,61,967897900
7,10,Ticks_ISO_T2_5,35,1,48,55,968364852
7,10,Ticks_ISO_T2_5,36,5,42,127,968375788
7,10,Ticks_ISO_T2_5,37,1,48,61,968831276
7,10,Ticks_ISO_T2_5,38,5,42,127,968876288
7,10,Ticks_ISO_T2_5,39,1,48,62,969360548
7,10,Ticks_ISO_T2_5,40,5,42,127,969376036
7,10,Ticks_ISO_T2_5,41,5,42,127,969875868
7,10,Ticks_ISO_T2_5,42,1,48,60,969885928
7,10,Ticks_ISO_T2_5,43,1,48,61,970363084
7,10,Ticks_ISO_T2_5,44,5,42,127,970375388
7,10,Ticks_ISO_T2_5,45,1,48,63,970850588
7,10,Ticks_ISO_T2_5,46,5,42,127,970876232
7,10,Ticks_ISO_T2_5,47,1,48,61,971351608
7,10,Ticks_ISO_T2_5,48,5,42,127,971376060
7,10,Ticks_ISO_T2_5,49,5,42,127,971875668
7,10,Ticks_ISO_T2_5,50,1,48,57,971876632
7,10,Ticks_ISO_T2_5,51,5,42,127,972376388
7,10,Ticks_ISO_T2_5,52,1,48,57,972378176
7,10,Ticks_ISO_T2_5,53,5,42,127,972875988
7,10,Ticks_ISO_T2_5,54,1,48,61,972881640
7,10,Ticks_ISO_T2_5,55,1,48,49,973371964
7,10,Ticks_ISO_T2_5,56,5,42,127,973375732
7,10,Ticks_ISO_T2_5,57,1,48,62,973863128
7,10,Ticks_ISO_T2_5,58,5,42,127,973875704
7,10,Ticks_ISO_T2_5,59,1,48,55,974352272
7,10,Ticks_ISO_T2_5,60,5,42,127,974376204
7,10,Ticks_ISO_T2_5,61,1,48,65,974856952
7,10,Ticks_ISO_T2_5,62,5,42,127,974875956
7,10,Ticks_ISO_T2_5,63,1,48,61,975360440
7,10,Ticks_ISO_T2_5,64,5,42,127,975375856
7,10,Ticks_ISO_T2_5,65,5,42,127,975875612
7,10,Ticks_ISO_T2_5,66,1,48,47,975880372
7,10,Ticks_ISO_T2_5,67,1,48,57,976352552
7,10,Ticks_ISO_T2_5,68,5,42,127,976376032
7,10,Ticks_ISO_T2_5,69,5,42,127,976875936
7,10,Ticks_ISO_T2_5,70,1,48,57,976881292
7,10,Ticks_ISO_T2_5,71,1,48,58,977336448
7,10,Ticks_ISO_T2_5,72,5,42,127,977375608
7,10,Ticks_ISO_T2_5,73,1,48,57,977875432
7,10,Ticks_ISO_T2_5,74,5,42,127,977877300
7,10,Ticks_ISO_T2_5,75,1,48,58,978366712
7,10,Ticks_ISO_T2_5,76,5,42,127,978375928
7,10,Ticks_ISO_T2_5,77,5,42,127,978875688
7,10,Ticks_ISO_T2_5,78,1,48,52,978876652
7,10,Ticks_ISO_T2_5,79,5,42,127,979375440
7,10,Ticks_ISO_T2_5,80,1,48,57,979397824
7,10,Ticks_ISO_T2_5,81,5,42,127,979876308
7,10,Ticks_ISO_T2_5,82,1,48,59,979885768
7,10,Ticks_ISO_T2_5,83,5,42,127,980375840
7,10,Ticks_ISO_T2_5,84,1,48,57,980376728
7,10,Ticks_ISO_T2_5,85,5,42,127,980875664
7,10,Ticks_ISO_T2_5,86,1,48,50,980890204
7,10,Ticks_ISO_T2_5,87,1,48,55,981364592
7,10,Ticks_ISO_T2_5,88,5,42,127,981376280
7,10,Ticks_ISO_T2_5,89,1,48,46,981870096
7,10,Ticks_ISO_T2_5,90,5,42,127,981876252
7,10,Ticks_ISO_T2_5,91,5,42,127,982375640
7,10,Ticks_ISO_T2_5,92,1,48,54,982385248
7,10,Ticks_ISO_T2_5,93,1,48,46,982871320
7,10,Ticks_ISO_T2_5,94,5,42,127,982875608
7,10,Ticks_ISO_T2_5,95,1,48,50,983366512
7,10,Ticks_ISO_T2_5,96,5,42,127,983376328
7,10,Ticks_ISO_T2_5,97,1,48,48,983858944
7,10,Ticks_ISO_T2_5,98,5,42,127,983875932
7,10,Ticks_ISO_T2_5,99,1,48,51,984371544
7,10,Ticks_ISO_T2_5,100,5,42,127,984375680
7,10,Ticks_ISO_T2_5,101,1,48,54,984850156
7,10,Ticks_ISO_T2_5,102,5,42,127,984876256
7,10,Ticks_ISO_T2_5,103,5,42,127,985376232
7,10,Ticks_ISO_T2_5,104,1,48,54,985382632
7,10,Ticks_ISO_T2_5,105,1,48,48,985866464
7,10,Ticks_ISO_T2_5,106,5,42,127,985875756
7,10,Ticks_ISO_T2_5,107,5,42,127,986375588
7,10,Ticks_ISO_T2_5,108,1,48,46,986380420
7,10,Ticks_ISO_T2_5,109,1,48,47,986868952
7,10,Ticks_ISO_T2_5,110,5,42,127,986876228
7,10,Ticks_ISO_T2_5,111,1,48,43,987360416
7,10,Ticks_ISO_T2_5,112,5,42,127,987375980
7,10,Ticks_ISO_T2_5,113,1,48,49,987874908
7,10,Ticks_ISO_T2_5,114,5,42,127,987876628
7,10,Ticks_ISO_T2_5,115,1,48,44,988353648
7,10,Ticks_ISO_T2_5,116,5,42,127,988376376
7,10,Ticks_ISO_T2_5,117,5,42,127,988876136
7,10,Ticks_ISO_T2_5,118,1,48,45,988879844
7,10,Ticks_ISO_T2_5,119,1,48,46,989374608
7,10,Ticks_ISO_T2_5,120,5,42,127,989376248
7,10,Ticks_ISO_T2_5,121,1,48,43,989863796
7,10,Ticks_ISO_T2_5,122,5,42,127,989875408
7,10,Ticks_ISO_T2_5,123,1,48,61,990361456
7,10,Ticks_ISO_T2_5,124,5,42,127,990376352
7,10,Ticks_ISO_T2_5,125,1,48,52,990858376
7,10,Ticks_ISO_T2_5,126,5,42,127,990875956
7,10,Ticks_ISO_T2_5,127,1,48,53,991374048
7,10,Ticks_ISO_T2_5,128,5,42,127,991375780
7,10,Ticks_ISO_T2_5,129,1,48,64,991859944
7,10,Ticks_ISO_T2_5,130,5,42,127,991875308
7,10,Ticks_ISO_T2_5,131,1,48,43,992370220
7,10,Ticks_ISO_T2_5,132,5,42,127,992376228
7,10,Ticks_ISO_T2_5,133,5,42,127,992875984
7,10,Ticks_ISO_T2_5,134,1,48,49,992888960
7,10,Ticks_ISO_T2_5,135,1,48,53,993369276
7,10,Ticks_ISO_T2_5,136,5,42,127,993375652
7,10,Ticks_ISO_T2_5,137,1,48,55,993860140
7,10,Ticks_ISO_T2_5,138,5,42,127,993876376
7,10,Ticks_ISO_T2_5,139,1,48,63,994352276
7,10,Ticks_ISO_T2_5,140,5,42,127,994376124
7,10,Ticks_ISO_T2_5,141,1,48,54,994854856
7,10,Ticks_ISO_T2_5,142,5,42,127,994875728
7,10,Ticks_ISO_T2_5,143,1,48,52,995333408
7,10,Ticks_ISO_T2_5,144,5,42,127,995375704
7,10,Ticks_ISO_T2_5,145,1,48,47,995843092
7,10,Ticks_ISO_T2_5,146,5,42,127,995876128
7,10,Ticks_ISO_T2_5,147,1,48,53,996308936
7,10,Ticks_ISO_T2_5,148,5,42,127,996376024
7,10,Ticks_ISO_T2_5,149,1,48,54,996833628
7,10,Ticks_ISO_T2_5,150,5,42,127,996875628
7,10,Ticks_ISO_T2_5,151,1,48,46,997360260
7,10,Ticks_ISO_T2_5,152,5,42,127,997376644
7,10,Ticks_ISO_T2_5,153,1,48,61,997828876
7,10,Ticks_ISO_T2_5,154,5,42,127,997875952
7,10,Ticks_ISO_T2_5,155,1,48,48,998357224
7,10,Ticks_ISO_T2_5,156,5,42,127,998375700
7,10,Ticks_ISO_T2_5,157,1,48,49,998849508
7,10,Ticks_ISO_T2_5,158,5,42,127,998875604
7,10,Ticks_ISO_T2_5,159,1,48,53,999357700
7,10,Ticks_ISO_T2_5,160,5,42,127,999376396
7,10,Ticks_ISO_T2_5,161,1,48,54,999842660
7,10,Ticks_ISO_T2_5,162,5,42,127,999875928
7,10,Ticks_ISO_T2_5,163,5,42,127,1000375536
7,10,Ticks_ISO_T2_5,164,1,48,62,1000380744
7,10,Ticks_ISO_T2_5,165,1,48,64,1000876484
7,10,Ticks_ISO_T2_5,166,5,42,127,1000878420
7,10,Ticks_ISO_T2_5,167,5,42,127,1001376084
7,10,Ticks_ISO_T2_5,168,1,48,56,1001381288
7,10,Ticks_ISO_T2_5,169,1,48,61,1001868628
7,10,Ticks_ISO_T2_5,170,5,42,127,1001875756
7,10,Ticks_ISO_T2_5,171,1,48,62,1002359916
7,10,Ticks_ISO_T2_5,172,5,42,127,1002375504
7,10,Ticks_ISO_T2_5,173,1,48,62,1002858468
7,10,Ticks_ISO_T2_5,174,5,42,127,1002876348
7,10,Ticks_ISO_T2_5,175,1,48,54,1003333656
7,10,Ticks_ISO_T2_5,176,5,42,127,1003376176
7,10,Ticks_ISO_T2_5,177,1,48,40,1003854608
7,10,Ticks_ISO_T2_5,178,5,42,127,1003875628
7,10,Ticks_ISO_T2_5,179,1,48,49,1004365488
7,10,Ticks_ISO_T2_5,180,5,42,127,1004376500
7,10,Ticks_ISO_T2_5,181,5,42,127,1004876108
7,10,Ticks_ISO_T2_5,182,1,48,44,1004882880
7,10,Ticks_ISO_T2_5,183,5,42,127,1005375788
7,10,Ticks_ISO_T2_5,184,1,48,56,1005379348
7,10,Ticks_ISO_T2_5,185,1,48,63,1005851300
7,10,Ticks_ISO_T2_5,186,5,42,127,1005875680
7,10,Ticks_ISO_T2_5,187,1,48,47,1006360612
7,10,Ticks_ISO_T2_5,188,5,42,127,1006376252
7,10,Ticks_ISO_T2_5,189,1,48,50,1006847072
7,10,Ticks_ISO_T2_5,190,5,42,127,1006876224
7,10,Ticks_ISO_T2_5,191,1,48,49,1007344132
7,10,Ticks_ISO_T2_5,192,5,42,127,1007375900
7,10,Ticks_ISO_T2_5,193,1,48,55,1007849932
7,10,Ticks_ISO_T2_5,194,5,42,127,1007875356
7,10,Ticks_ISO_T2_5,195,1,48,63,1008368052
7,10,Ticks_ISO_T2_5,196,5,42,127,1008376300
7,10,Ticks_ISO_T2_5,197,5,42,127,1008875836
7,10,Ticks_ISO_T2_5,198,1,48,61,1008876800
7,10,Ticks_ISO_T2_5,199,1,48,67,1009361504
7,10,Ticks_ISO_T2_5,200,5,42,127,1009375876
7,10,Ticks_ISO_T2_5,201,1,48,66,1009840424
7,10,Ticks_ISO_T2_5,202,5,42,127,1009876224
7,10,Ticks_ISO_T2_5,203,1,48,66,1010339876
7,10,Ticks_ISO_T2_5,204,5,42,127,1010376052
7,10,Ticks_ISO_T2_5,205,1,48,51,1010843360
7,10,Ticks_ISO_T2_5,206,5,42,127,1010875800
7,10,Ticks_ISO_T2_5,207,1,48,62,1011362600
7,10,Ticks_ISO_T2_5,208,5,42,127,1011375332
7,10,Ticks_ISO_T2_5,209,1,48,57,1011847568
7,10,Ticks_ISO_T2_5,210,5,42,127,1011876276
7,10,Ticks_ISO_T2_5,211,1,48,59,1012369272
7,10,Ticks_ISO_T2_5,212,5,42,127,1012375880
7,10,Ticks_ISO_T2_5,213,1,48,65,1012835472
7,10,Ticks_ISO_T2_5,214,5,42,127,1012875852
7,10,Ticks_ISO_T2_5,215,1,48,62,1013350008
7,10,Ticks_ISO_T2_5,216,5,42,127,1013376500
7,10,Ticks_ISO_T2_5,217,1,48,62,1013846844
7,10,Ticks_ISO_T2_5,218,5,42,127,1013876076
7,10,Ticks_ISO_T2_5,219,1,48,52,1014349136
7,10,Ticks_ISO_T2_5,220,5,42,127,1014375976
7,10,Ticks_ISO_T2_5,221,1,48,54,1014844856
7,10,Ticks_ISO_T2_5,222,5,42,127,1014875580
7,10,Ticks_ISO_T2_5,223,1,48,53,1015339308
7,10,Ticks_ISO_T2_5,224,5,42,127,1015376228
7,10,Ticks_ISO_T2_5,225,5,42,127,1015875908
7,10,Ticks_ISO_T2_5,226,1,48,44,1015881188
7,10,Ticks_ISO_T2_5,227,1,48,60,1016355532
7,10,Ticks_ISO_T2_5,228,5,42,127,1016375728
7,10,Ticks_ISO_T2_5,229,1,48,48,1016869100
7,10,Ticks_ISO_T2_5,230,5,42,127,1016876524
7,10,Ticks_ISO_T2_5,231,1,48,44,1017373256
7,10,Ticks_ISO_T2_5,232,5,42,127,1017376276
7,10,Ticks_ISO_T2_5,233,1,48,57,1017848512
7,10,Ticks_ISO_T2_5,234,5,42,127,1017875804
7,10,Ticks_ISO_T2_5,235,1,48,36,1018356700
7,10,Ticks_ISO_T2_5,236,5,42,127,1018375552
7,10,Ticks_ISO_T2_5,237,1,48,51,1018832188
7,10,Ticks_ISO_T2_5,238,5,42,127,1018876348
7,10,Ticks_ISO_T2_5,239,5,42,127,1019376108
7,10,Ticks_ISO_T2_5,240,1,48,43,1019377368
7,10,Ticks_ISO_T2_5,241,5,42,127,1019875636
7,10,Ticks_ISO_T2_5,242,1,48,41,1019879872
7,10,Ticks_ISO_T2_5,243,1,48,42,1020336592
7,10,Ticks_ISO_T2_5,244,5,42,127,1020376424
7,10,Ticks_ISO_T2_5,245,5,42,127,1020876404
7,10,Ticks_ISO_T2_5,246,1,48,43,1020901848
7,10,Ticks_ISO_T2_5,247,1,48,40,1021359468
7,10,Ticks_ISO_T2_5,248,5,42,127,1021375852
7,10,Ticks_ISO_T2_5,249,1,48,46,1021862204
7,10,Ticks_ISO_T2_5,250,5,42,127,1021875456
7,10,Ticks_ISO_T2_5,251,1,48,54,1022355456
7,10,Ticks_ISO_T2_5,252,5,42,127,1022376548
7,10,Ticks_ISO_T2_5,253,1,48,62,1022856556
7,10,Ticks_ISO_T2_5,254,5,42,127,1022876152
7,10,Ticks_ISO_T2_5,255,5,42,127,1023375836
7,10,Ticks_ISO_T2_5,256,1,48,58,1023391196
7,10,Ticks_ISO_T2_5,257,1,48,60,1023868500
7,10,Ticks_ISO_T2_5,258,5,42,127,1023875504
7,10,Ticks_ISO_T2_5,259,1,48,59,1024366160
7,10,Ticks_ISO_T2_5,0,9999,9999,9999,9999,959373368
7,10,Ticks_ISO_T2_5,1,9999,9999,9999,9999,959873116
7,10,Ticks_ISO_T2_5,2,9999,9999,9999,9999,960373840
7,10,Ticks_ISO_T2_5,3,9999,9999,9999,9999,960873592
7,10,Ticks_ISO_T2_5,4,9999,9999,9999,9999,961373268
7,10,Ticks_ISO_T2_5,5,9999,9999,9999,9999,961873992
7,10,Ticks_ISO_T2_5,6,9999,9999,9999,9999,962373740
7,10,Ticks_ISO_T2_5,7,9999,9999,9999,9999,962873412
7,10,Ticks_ISO_T2_5,8,9999,9999,9999,9999,963373160
7,10,Ticks_ISO_T2_5,9,9999,9999,9999,9999,963873880
7,10,Ticks_ISO_T2_5,10,9999,9999,9999,9999,964373556
7,10,Ticks_ISO_T2_5,11,9999,9999,9999,9999,964873316
7,10,Ticks_ISO_T2_5,12,9999,9999,9999,9999,965374028
7,10,Ticks_ISO_T2_5,13,9999,9999,9999,9999,965873780
7,10,Ticks_ISO_T2_5,14,9999,9999,9999,9999,966373464
7,10,Ticks_ISO_T2_5,15,9999,9999,9999,9999,966873140
7,10,Ticks_ISO_T2_5,16,9999,9999,9999,9999,967373936
7,10,Ticks_ISO_T2_5,17,9999,9999,9999,9999,967873612
7,10,Ticks_ISO_T2_5,18,9999,9999,9999,9999,968373356
7,10,Ticks_ISO_T2_5,19,9999,9999,9999,9999,968874080
7,10,Ticks_ISO_T2_5,20,9999,9999,9999,9999,969373752
7,10,Ticks_ISO_T2_5,21,9999,9999,9999,9999,969873512
7,10,Ticks_ISO_T2_5,22,9999,9999,9999,9999,970373180
7,10,Ticks_ISO_T2_5,23,9999,9999,9999,9999,970873952
7,10,Ticks_ISO_T2_5,24,9999,9999,9999,9999,971373628
7,10,Ticks_ISO_T2_5,25,9999,9999,9999,9999,971873384
7,10,Ticks_ISO_T2_5,26,9999,9999,9999,9999,972374104
7,10,Ticks_ISO_T2_5,27,9999,9999,9999,9999,972873780
7,10,Ticks_ISO_T2_5,28,9999,9999,9999,9999,973373524
7,10,Ticks_ISO_T2_5,29,9999,9999,9999,9999,973873200
7,10,Ticks_ISO_T2_5,30,9999,9999,9999,9999,974373996
7,10,Ticks_ISO_T2_5,31,9999,9999,9999,9999,974873672
7,10,Ticks_ISO_T2_5,32,9999,9999,9999,9999,975373424
7,10,Ticks_ISO_T2_5,33,9999,9999,9999,9999,975873108
7,10,Ticks_ISO_T2_5,34,9999,9999,9999,9999,976373824
7,10,Ticks_ISO_T2_5,35,9999,9999,9999,9999,976873580
7,10,Ticks_ISO_T2_5,36,9999,9999,9999,9999,977373248
7,10,Ticks_ISO_T2_5,37,9999,9999,9999,9999,977873976
7,10,Ticks_ISO_T2_5,38,9999,9999,9999,9999,978373720
7,10,Ticks_ISO_T2_5,39,9999,9999,9999,9999,978873404
7,10,Ticks_ISO_T2_5,40,9999,9999,9999,9999,979373156
7,10,Ticks_ISO_T2_5,41,9999,9999,9999,9999,979873876
7,10,Ticks_ISO_T2_5,42,9999,9999,9999,9999,980373556
7,10,Ticks_ISO_T2_5,43,9999,9999,9999,9999,980873308
7,10,Ticks_ISO_T2_5,44,9999,9999,9999,9999,981374072
7,10,Ticks_ISO_T2_5,45,9999,9999,9999,9999,981873748
7,10,Ticks_ISO_T2_5,46,9999,9999,9999,9999,982373428
7,10,Ticks_ISO_T2_5,47,9999,9999,9999,9999,982873176
7,10,Ticks_ISO_T2_5,48,9999,9999,9999,9999,983373900
7,10,Ticks_ISO_T2_5,49,9999,9999,9999,9999,983873648
7,10,Ticks_ISO_T2_5,50,9999,9999,9999,9999,984373324
7,10,Ticks_ISO_T2_5,51,9999,9999,9999,9999,984874048
7,10,Ticks_ISO_T2_5,52,9999,9999,9999,9999,985373804
7,10,Ticks_ISO_T2_5,53,9999,9999,9999,9999,985873472
7,10,Ticks_ISO_T2_5,54,9999,9999,9999,9999,986373228
7,10,Ticks_ISO_T2_5,55,9999,9999,9999,9999,986873944
7,10,Ticks_ISO_T2_5,56,9999,9999,9999,9999,987373620
7,10,Ticks_ISO_T2_5,57,9999,9999,9999,9999,987873380
7,10,Ticks_ISO_T2_5,58,9999,9999,9999,9999,988374096
7,10,Ticks_ISO_T2_5,59,9999,9999,9999,9999,988873776
7,10,Ticks_ISO_T2_5,60,9999,9999,9999,9999,989373528
7,10,Ticks_ISO_T2_5,61,9999,9999,9999,9999,989873200
7,10,Ticks_ISO_T2_5,62,9999,9999,9999,9999,990373996
7,10,Ticks_ISO_T2_5,63,9999,9999,9999,9999,990873672
7,10,Ticks_ISO_T2_5,64,9999,9999,9999,9999,991373436
7,10,Ticks_ISO_T2_5,65,9999,9999,9999,9999,991873100
7,10,Ticks_ISO_T2_5,66,9999,9999,9999,9999,992373868
7,10,Ticks_ISO_T2_5,67,9999,9999,9999,9999,992873552
7,10,Ticks_ISO_T2_5,68,9999,9999,9999,9999,993373296
7,10,Ticks_ISO_T2_5,69,9999,9999,9999,9999,993874020
7,10,Ticks_ISO_T2_5,70,9999,9999,9999,9999,994373696
7,10,Ticks_ISO_T2_5,71,9999,9999,9999,9999,994873444
7,10,Ticks_ISO_T2_5,72,9999,9999,9999,9999,995373124
7,10,Ticks_ISO_T2_5,73,9999,9999,9999,9999,995873844
7,10,Ticks_ISO_T2_5,74,9999,9999,9999,9999,996373596
7,10,Ticks_ISO_T2_5,75,9999,9999,9999,9999,996873272
7,10,Ticks_ISO_T2_5,76,9999,9999,9999,9999,997374064
7,10,Ticks_ISO_T2_5,77,9999,9999,9999,9999,997873744
7,10,Ticks_ISO_T2_5,78,9999,9999,9999,9999,998373492
7,10,Ticks_ISO_T2_5,79,9999,9999,9999,9999,998873172
7,10,Ticks_ISO_T2_5,80,9999,9999,9999,9999,999373892
7,10,Ticks_ISO_T2_5,81,9999,9999,9999,9999,999873644
7,10,Ticks_ISO_T2_5,82,9999,9999,9999,9999,1000373328
7,10,Ticks_ISO_T2_5,83,9999,9999,9999,9999,1000874052
7,10,Ticks_ISO_T2_5,84,9999,9999,9999,9999,1001373800
7,10,Ticks_ISO_T2_5,85,9999,9999,9999,9999,1001873472
7,10,Ticks_ISO_T2_5,86,9999,9999,9999,9999,1002373224
7,10,Ticks_ISO_T2_5,87,9999,9999,9999,9999,1002873920
7,10,Ticks_ISO_T2_5,88,9999,9999,9999,9999,1003373668
7,10,Ticks_ISO_T2_5,89,9999,9999,9999,9999,1003873344
7,10,Ticks_ISO_T2_5,90,9999,9999,9999,9999,1004374068
7,10,Ticks_ISO_T2_5,91,9999,9999,9999,9999,1004873824
7,10,Ticks_ISO_T2_5,92,9999,9999,9999,9999,1005373504
7,10,Ticks_ISO_T2_5,93,9999,9999,9999,9999,1005873248
7,10,Ticks_ISO_T2_5,94,9999,9999,9999,9999,1006373968
7,10,Ticks_ISO_T2_5,95,9999,9999,9999,9999,1006873720
7,10,Ticks_ISO_T2_5,96,9999,9999,9999,9999,1007373396
7,10,Ticks_ISO_T2_5,97,9999,9999,9999,9999,1007873072
7,10,Ticks_ISO_T2_5,98,9999,9999,9999,9999,1008373868
7,10,Ticks_ISO_T2_5,99,9999,9999,9999,9999,1008873552
7,10,Ticks_ISO_T2_5,100,9999,9999,9999,9999,1009373296
7,10,Ticks_ISO_T2_5,101,9999,9999,9999,9999,1009874016
7,10,Ticks_ISO_T2_5,102,9999,9999,9999,9999,1010373692
7,10,Ticks_ISO_T2_5,103,9999,9999,9999,9999,1010873444
7,10,Ticks_ISO_T2_5,104,9999,9999,9999,9999,1011373124
7,10,Ticks_ISO_T2_5,105,9999,9999,9999,9999,1011873844
7,10,Ticks_ISO_T2_5,106,9999,9999,9999,9999,1012373596
7,10,Ticks_ISO_T2_5,107,9999,9999,9999,9999,1012873272
7,10,Ticks_ISO_T2_5,108,9999,9999,9999,9999,1013374048
7,10,Ticks_ISO_T2_5,109,9999,9999,9999,9999,1013873720
7,10,Ticks_ISO_T2_5,110,9999,9999,9999,9999,1014373472
7,10,Ticks_ISO_T2_5,111,9999,9999,9999,9999,1014873148
7,10,Ticks_ISO_T2_5,112,9999,9999,9999,9999,1015373944
7,10,Ticks_ISO_T2_5,113,9999,9999,9999,9999,1015873628
7,10,Ticks_ISO_T2_5,114,9999,9999,9999,9999,1016373296
7,10,Ticks_ISO_T2_5,115,9999,9999,9999,9999,1016874092
7,10,Ticks_ISO_T2_5,116,9999,9999,9999,9999,1017373768
7,10,Ticks_ISO_T2_5,117,9999,9999,9999,9999,1017873520
7,10,Ticks_ISO_T2_5,118,9999,9999,9999,9999,1018373196
7,10,Ticks_ISO_T2_5,119,9999,9999,9999,9999,1018873920
7,10,Ticks_ISO_T2_5,120,9999,9999,9999,9999,1019373676
7,10,Ticks_ISO_T2_5,121,9999,9999,9999,9999,1019873352
7,10,Ticks_ISO_T2_5,122,9999,9999,9999,9999,1020374068
7,10,Ticks_ISO_T2_5,123,9999,9999,9999,9999,1020873824
7,10,Ticks_ISO_T2_5,124,9999,9999,9999,9999,1021373496
7,10,Ticks_ISO_T2_5,125,9999,9999,9999,9999,1021873248
7,10,Ticks_ISO_T2_5,126,9999,9999,9999,9999,1022373968
7,10,Ticks_ISO_T2_5,127,9999,9999,9999,9999,1022873720
7,10,Ticks_ISO_T2_5,128,9999,9999,9999,9999,1023373404
7,10,Ticks_ISO_T2_5,129,9999,9999,9999,9999,1023873144
8,9,Ticks_ISO_T2_8,0,5,42,127,1036451068
8,9,Ticks_ISO_T2_8,1,5,42,127,1037250896
8,9,Ticks_ISO_T2_8,2,1,48,37,1037594988
8,9,Ticks_ISO_T2_8,3,5,42,127,1038050628
8,9,Ticks_ISO_T2_8,4,1,48,51,1038159624
8,9,Ticks_ISO_T2_8,5,1,48,51,1038836352
8,9,Ticks_ISO_T2_8,6,5,42,127,1038850652
8,9,Ticks_ISO_T2_8,7,1,48,51,1039635568
8,9,Ticks_ISO_T2_8,8,5,42,127,1039651060
8,9,Ticks_ISO_T2_8,9,1,48,46,1040427164
8,9,Ticks_ISO_T2_8,10,5,42,127,1040450864
8,9,Ticks_ISO_T2_8,11,5,42,127,1041250604
8,9,Ticks_ISO_T2_8,12,1,48,46,1041254540
8,9,Ticks_ISO_T2_8,13,5,42,127,1042050364
8,9,Ticks_ISO_T2_8,14,1,48,55,1042057436
8,9,Ticks_ISO_T2_8,15,1,48,48,1042812568
8,9,Ticks_ISO_T2_8,16,5,42,127,1042851284
8,9,Ticks_ISO_T2_8,17,1,48,55,1043650800
8,9,Ticks_ISO_T2_8,18,5,42,127,1043652508
8,9,Ticks_ISO_T2_8,19,5,42,127,1044450832
8,9,Ticks_ISO_T2_8,20,1,48,54,1044458128
8,9,Ticks_ISO_T2_8,21,5,42,127,1045250492
8,9,Ticks_ISO_T2_8,22,1,48,62,1045252576
8,9,Ticks_ISO_T2_8,23,1,48,57,1046025764
8,9,Ticks_ISO_T2_8,24,5,42,127,1046051264
8,9,Ticks_ISO_T2_8,25,1,48,61,1046835580
8,9,Ticks_ISO_T2_8,26,5,42,127,1046850848
8,9,Ticks_ISO_T2_8,27,1,48,53,1047646960
8,9,Ticks_ISO_T2_8,28,5,42,127,1047650656
8,9,Ticks_ISO_T2_8,29,1,48,56,1048394276
8,9,Ticks_ISO_T2_8,30,5,42,127,1048450412
8,9,Ticks_ISO_T2_8,31,1,48,52,1049245032
8,9,Ticks_ISO_T2_8,32,5,42,127,1049251116
8,9,Ticks_ISO_T2_8,33,1,48,51,1050049040
8,9,Ticks_ISO_T2_8,34,5,42,127,1050050924
8,9,Ticks_ISO_T2_8,35,1,48,49,1050849224
8,9,Ticks_ISO_T2_8,36,5,42,127,1050851028
8,9,Ticks_ISO_T2_8,37,1,48,51,1051627056
8,9,Ticks_ISO_T2_8,38,5,42,127,1051650464
8,9,Ticks_ISO_T2_8,39,5,42,127,1052451252
8,9,Ticks_ISO_T2_8,40,1,48,52,1052464068
8,9,Ticks_ISO_T2_8,41,1,48,53,1053189488
8,9,Ticks_ISO_T2_8,42,5,42,127,1053250904
8,9,Ticks_ISO_T2_8,43,5,42,127,1054051088
8,9,Ticks_ISO_T2_8,44,1,48,48,1054072052
8,9,Ticks_ISO_T2_8,45,5,42,127,1054850324
8,9,Ticks_ISO_T2_8,46,1,48,48,1054857548
8,9,Ticks_ISO_T2_8,47,5,42,127,1055651176
8,9,Ticks_ISO_T2_8,48,1,48,49,1055686100
8,9,Ticks_ISO_T2_8,49,1,48,51,1056411896
8,9,Ticks_ISO_T2_8,50,5,42,127,1056450904
8,9,Ticks_ISO_T2_8,51,1,48,42,1057245228
8,9,Ticks_ISO_T2_8,52,5,42,127,1057251008
8,9,Ticks_ISO_T2_8,53,1,48,52,1058031072
8,9,Ticks_ISO_T2_8,54,5,42,127,1058050520
8,9,Ticks_ISO_T2_8,55,5,42,127,1058851152
8,9,Ticks_ISO_T2_8,56,1,48,59,1058860984
8,9,Ticks_ISO_T2_8,57,5,42,127,1059650812
8,9,Ticks_ISO_T2_8,58,1,48,63,1059687080
8,9,Ticks_ISO_T2_8,59,5,42,127,1060450696
8,9,Ticks_ISO_T2_8,60,1,48,62,1060481464
8,9,Ticks_ISO_T2_8,61,5,42,127,1061250604
8,9,Ticks_ISO_T2_8,62,1,48,61,1061268508
8,9,Ticks_ISO_T2_8,63,5,42,127,1062051232
8,9,Ticks_ISO_T2_8,64,1,48,51,1062102808
8,9,Ticks_ISO_T2_8,65,1,48,60,1062798732
8,9,Ticks_ISO_T2_8,66,5,42,127,1062850884
8,9,Ticks_ISO_T2_8,67,1,48,57,1063644536
8,9,Ticks_ISO_T2_8,68,5,42,127,1063650544
8,9,Ticks_ISO_T2_8,69,1,48,56,1064402748
8,9,Ticks_ISO_T2_8,70,5,42,127,1064450648
8,9,Ticks_ISO_T2_8,71,1,48,62,1065221452
8,9,Ticks_ISO_T2_8,72,5,42,127,1065251428
8,9,Ticks_ISO_T2_8,73,1,48,63,1066019544
8,9,Ticks_ISO_T2_8,74,5,42,127,1066050864
8,9,Ticks_ISO_T2_8,75,1,48,56,1066842204
8,9,Ticks_ISO_T2_8,76,5,42,127,1066850524
8,9,Ticks_ISO_T2_8,77,1,48,62,1067643304
8,9,Ticks_ISO_T2_8,78,5,42,127,1067650356
8,9,Ticks_ISO_T2_8,79,1,48,64,1068443484
8,9,Ticks_ISO_T2_8,80,5,42,127,1068451284
8,9,Ticks_ISO_T2_8,81,5,42,127,1069251096
8,9,Ticks_ISO_T2_8,82,1,48,63,1069257948
8,9,Ticks_ISO_T2_8,83,5,42,127,1070050532
8,9,Ticks_ISO_T2_8,84,1,48,50,1070083440
8,9,Ticks_ISO_T2_8,85,1,48,59,1070820508
8,9,Ticks_ISO_T2_8,86,5,42,127,1070850260
8,9,Ticks_ISO_T2_8,87,1,48,66,1071610012
8,9,Ticks_ISO_T2_8,88,5,42,127,1071651260
8,9,Ticks_ISO_T2_8,89,1,48,65,1072419900
8,9,Ticks_ISO_T2_8,90,5,42,127,1072451140
8,9,Ticks_ISO_T2_8,91,5,42,127,1073250656
8,9,Ticks_ISO_T2_8,92,1,48,59,1073268556
8,9,Ticks_ISO_T2_8,93,1,48,60,1074017792
8,9,Ticks_ISO_T2_8,94,5,42,127,1074050408
8,9,Ticks_ISO_T2_8,95,5,42,127,1074851044
8,9,Ticks_ISO_T2_8,96,1,48,58,1074918076
8,9,Ticks_ISO_T2_8,97,1,48,57,1075623704
8,9,Ticks_ISO_T2_8,98,5,42,127,1075650992
8,9,Ticks_ISO_T2_8,99,5,42,127,1076450880
8,9,Ticks_ISO_T2_8,100,1,48,56,1076480656
8,9,Ticks_ISO_T2_8,101,1,48,58,1077183368
8,9,Ticks_ISO_T2_8,102,5,42,127,1077250532
8,9,Ticks_ISO_T2_8,103,5,42,127,1078051168
8,9,Ticks_ISO_T2_8,104,1,48,62,1078058688
8,9,Ticks_ISO_T2_8,105,1,48,54,1078827340
8,9,Ticks_ISO_T2_8,106,5,42,127,1078850896
8,9,Ticks_ISO_T2_8,107,5,42,127,1079650784
8,9,Ticks_ISO_T2_8,108,1,48,65,1079660768
8,9,Ticks_ISO_T2_8,109,5,42,127,1080450468
8,9,Ticks_ISO_T2_8,110,1,48,66,1080458808
8,9,Ticks_ISO_T2_8,111,1,48,48,1081180392
8,9,Ticks_ISO_T2_8,112,5,42,127,1081251164
8,9,Ticks_ISO_T2_8,113,5,42,127,1082050904
8,9,Ticks_ISO_T2_8,114,1,48,64,1082062380
8,9,Ticks_ISO_T2_8,115,5,42,127,1082850636
8,9,Ticks_ISO_T2_8,116,1,48,51,1082937684
8,9,Ticks_ISO_T2_8,117,5,42,127,1083650368
8,9,Ticks_ISO_T2_8,118,1,48,59,1083706500
8,9,Ticks_ISO_T2_8,119,5,42,127,1084451220
8,9,Ticks_ISO_T2_8,120,1,48,59,1084467100
8,9,Ticks_ISO_T2_8,121,1,48,59,1085249820
8,9,Ticks_ISO_T2_8,122,5,42,127,1085251616
8,9,Ticks_ISO_T2_8,123,1,48,57,1086018532
8,9,Ticks_ISO_T2_8,124,5,42,127,1086050676
8,9,Ticks_ISO_T2_8,125,1,48,55,1086807144
8,9,Ticks_ISO_T2_8,126,5,42,127,1086850360
8,9,Ticks_ISO_T2_8,127,1,48,60,1087648712
8,9,Ticks_ISO_T2_8,128,5,42,127,1087651360
8,9,Ticks_ISO_T2_8,129,1,48,61,1088401480
8,9,Ticks_ISO_T2_8,130,5,42,127,1088450944
8,9,Ticks_ISO_T2_8,131,1,48,56,1089236900
8,9,Ticks_ISO_T2_8,132,5,42,127,1089250604
8,9,Ticks_ISO_T2_8,133,1,48,57,1090020660
8,9,Ticks_ISO_T2_8,134,5,42,127,1090050560
8,9,Ticks_ISO_T2_8,135,1,48,60,1090789704
8,9,Ticks_ISO_T2_8,136,5,42,127,1090851336
8,9,Ticks_ISO_T2_8,137,1,48,57,1091564192
8,9,Ticks_ISO_T2_8,138,5,42,127,1091651072
8,9,Ticks_ISO_T2_8,139,1,48,60,1092353104
8,9,Ticks_ISO_T2_8,140,5,42,127,1092450568
8,9,Ticks_ISO_T2_8,141,1,48,60,1093160976
8,9,Ticks_ISO_T2_8,142,5,42,127,1093250340
8,9,Ticks_ISO_T2_8,143,1,48,66,1093963396
8,9,Ticks_ISO_T2_8,144,5,42,127,1094051268
8,9,Ticks_ISO_T2_8,145,1,48,57,1094792576
8,9,Ticks_ISO_T2_8,146,5,42,127,1094850852
8,9,Ticks_ISO_T2_8,147,1,48,63,1095610152
8,9,Ticks_ISO_T2_8,148,5,42,127,1095650808
8,9,Ticks_ISO_T2_8,149,1,48,51,1096360752
8,9,Ticks_ISO_T2_8,150,5,42,127,1096450396
8,9,Ticks_ISO_T2_8,151,1,48,54,1097251328
8,9,Ticks_ISO_T2_8,152,5,42,127,1097252892
8,9,Ticks_ISO_T2_8,153,5,42,127,1098050912
8,9,Ticks_ISO_T2_8,154,1,48,61,1098071724
8,9,Ticks_ISO_T2_8,155,1,48,48,1098830664
8,9,Ticks_ISO_T2_8,156,5,42,127,1098850860
8,9,Ticks_ISO_T2_8,157,5,42,127,1099650404
8,9,Ticks_ISO_T2_8,158,1,48,60,1099661732
8,9,Ticks_ISO_T2_8,159,1,48,61,1100352628
8,9,Ticks_ISO_T2_8,160,5,42,127,1100451088
8,9,Ticks_ISO_T2_8,161,5,42,127,1101250916
8,9,Ticks_ISO_T2_8,162,1,48,58,1101292036
8,9,Ticks_ISO_T2_8,163,5,42,127,1102050648
8,9,Ticks_ISO_T2_8,164,1,48,51,1102094156
8,9,Ticks_ISO_T2_8,165,5,42,127,1102850604
8,9,Ticks_ISO_T2_8,166,1,48,58,1102859468
8,9,Ticks_ISO_T2_8,167,5,42,127,1103651084
8,9,Ticks_ISO_T2_8,168,1,48,56,1103668608
8,9,Ticks_ISO_T2_8,169,5,42,127,1104451040
8,9,Ticks_ISO_T2_8,170,1,48,57,1104502920
8,9,Ticks_ISO_T2_8,171,5,42,127,1105250600
8,9,Ticks_ISO_T2_8,172,1,48,58,1105265736
8,9,Ticks_ISO_T2_8,173,5,42,127,1106050356
8,9,Ticks_ISO_T2_8,174,1,48,50,1106080500
8,9,Ticks_ISO_T2_8,175,1,48,55,1106796932
8,9,Ticks_ISO_T2_8,176,5,42,127,1106851128
8,9,Ticks_ISO_T2_8,177,1,48,54,1107629176
8,9,Ticks_ISO_T2_8,178,5,42,127,1107650860
8,9,Ticks_ISO_T2_8,179,1,48,54,1108435772
8,9,Ticks_ISO_T2_8,180,5,42,127,1108450592
8,9,Ticks_ISO_T2_8,181,1,48,57,1109213852
8,9,Ticks_ISO_T2_8,182,5,42,127,1109250400
8,9,Ticks_ISO_T2_8,183,1,48,58,1109952352
8,9,Ticks_ISO_T2_8,184,5,42,127,1110051164
8,9,Ticks_ISO_T2_8,185,1,48,59,1110834672
8,9,Ticks_ISO_T2_8,186,5,42,127,1110850984
8,9,Ticks_ISO_T2_8,187,1,48,58,1111638516
8,9,Ticks_ISO_T2_8,188,5,42,127,1111650644
8,9,Ticks_ISO_T2_8,189,5,42,127,1112450484
8,9,Ticks_ISO_T2_8,190,1,48,58,1112508184
8,9,Ticks_ISO_T2_8,191,1,48,61,1113219036
8,9,Ticks_ISO_T2_8,192,5,42,127,1113251180
8,9,Ticks_ISO_T2_8,193,1,48,57,1114024668
8,9,Ticks_ISO_T2_8,194,5,42,127,1114051136
8,9,Ticks_ISO_T2_8,195,1,48,59,1114778184
8,9,Ticks_ISO_T2_8,196,5,42,127,1114850648
8,9,Ticks_ISO_T2_8,197,1,48,39,1115648500
8,9,Ticks_ISO_T2_8,198,5,42,127,1115650380
8,9,Ticks_ISO_T2_8,199,5,42,127,1116451316
8,9,Ticks_ISO_T2_8,200,1,48,56,1116452800
8,9,Ticks_ISO_T2_8,201,5,42,127,1117250900
8,9,Ticks_ISO_T2_8,202,1,48,54,1117313180
8,9,Ticks_ISO_T2_8,203,1,48,38,1117991304
8,9,Ticks_ISO_T2_8,204,5,42,127,1118050924
8,9,Ticks_ISO_T2_8,205,5,42,127,1118850464
8,9,Ticks_ISO_T2_8,206,1,48,53,1118880840
8,9,Ticks_ISO_T2_8,207,5,42,127,1119651096
8,9,Ticks_ISO_T2_8,208,1,48,38,1119668548
8,9,Ticks_ISO_T2_8,209,5,42,127,1120450828
8,9,Ticks_ISO_T2_8,210,1,48,51,1120498972
8,9,Ticks_ISO_T2_8,211,5,42,127,1121250932
8,9,Ticks_ISO_T2_8,212,1,48,55,1121254196
8,9,Ticks_ISO_T2_8,213,5,42,127,1122050444
8,9,Ticks_ISO_T2_8,214,1,48,50,1122057516
8,9,Ticks_ISO_T2_8,215,1,48,57,1122816236
8,9,Ticks_ISO_T2_8,216,5,42,127,1122851140
8,9,Ticks_ISO_T2_8,217,5,42,127,1123650880
8,9,Ticks_ISO_T2_8,218,1,48,37,1123687524
8,9,Ticks_ISO_T2_8,219,1,48,54,1124433028
8,9,Ticks_ISO_T2_8,220,5,42,127,1124450532
8,9,Ticks_ISO_T2_8,221,1,48,47,1125232380
8,9,Ticks_ISO_T2_8,222,5,42,127,1125250660
8,9,Ticks_ISO_T2_8,223,5,42,127,1126051148
8,9,Ticks_ISO_T2_8,224,1,48,48,1126065464
8,9,Ticks_ISO_T2_8,225,5,42,127,1126851028
8,9,Ticks_ISO_T2_8,226,1,48,47,1126950100
8,9,Ticks_ISO_T2_8,227,1,48,54,1127613984
8,9,Ticks_ISO_T2_8,228,5,42,127,1127650532
8,9,Ticks_ISO_T2_8,229,5,42,127,1128450568
8,9,Ticks_ISO_T2_8,230,1,48,45,1128579532
8,9,Ticks_ISO_T2_8,231,5,42,127,1129251348
8,9,Ticks_ISO_T2_8,232,1,48,45,1129296276
8,9,Ticks_ISO_T2_8,233,5,42,127,1130050932
8,9,Ticks_ISO_T2_8,234,1,48,45,1130126200
8,9,Ticks_ISO_T2_8,235,5,42,127,1130850516
8,9,Ticks_ISO_T2_8,236,1,48,39,1130912344
8,9,Ticks_ISO_T2_8,237,5,42,127,1131650496
8,9,Ticks_ISO_T2_8,238,1,48,45,1131704984
8,9,Ticks_ISO_T2_8,239,1,48,54,1132434280
8,9,Ticks_ISO_T2_8,0,9999,9999,9999,9999,1036448856
8,9,Ticks_ISO_T2_8,1,9999,9999,9999,9999,1037248612
8,9,Ticks_ISO_T2_8,2,9999,9999,9999,9999,1038048344
8,9,Ticks_ISO_T2_8,3,9999,9999,9999,9999,1038848068
8,9,Ticks_ISO_T2_8,4,9999,9999,9999,9999,1039648848
8,9,Ticks_ISO_T2_8,5,9999,9999,9999,9999,1040448580
8,9,Ticks_ISO_T2_8,6,9999,9999,9999,9999,1041248320
8,9,Ticks_ISO_T2_8,7,9999,9999,9999,9999,1042048080
8,9,Ticks_ISO_T2_8,8,9999,9999,9999,9999,1042848848
8,9,Ticks_ISO_T2_8,9,9999,9999,9999,9999,1043648588
8,9,Ticks_ISO_T2_8,10,9999,9999,9999,9999,1044448324
8,9,Ticks_ISO_T2_8,11,9999,9999,9999,9999,1045248056
8,9,Ticks_ISO_T2_8,12,9999,9999,9999,9999,1046048832
8,9,Ticks_ISO_T2_8,13,9999,9999,9999,9999,1046848564
8,9,Ticks_ISO_T2_8,14,9999,9999,9999,9999,1047648372
8,9,Ticks_ISO_T2_8,15,9999,9999,9999,9999,1048448052
8,9,Ticks_ISO_T2_8,16,9999,9999,9999,9999,1049248832
8,9,Ticks_ISO_T2_8,17,9999,9999,9999,9999,1050048588
8,9,Ticks_ISO_T2_8,18,9999,9999,9999,9999,1050848304
8,9,Ticks_ISO_T2_8,19,9999,9999,9999,9999,1051648108
8,9,Ticks_ISO_T2_8,20,9999,9999,9999,9999,1052448816
8,9,Ticks_ISO_T2_8,21,9999,9999,9999,9999,1053248616
8,9,Ticks_ISO_T2_8,22,9999,9999,9999,9999,1054048360
8,9,Ticks_ISO_T2_8,23,9999,9999,9999,9999,1054848116
8,9,Ticks_ISO_T2_8,24,9999,9999,9999,9999,1055648820
8,9,Ticks_ISO_T2_8,25,9999,9999,9999,9999,1056448620
8,9,Ticks_ISO_T2_8,26,9999,9999,9999,9999,1057248352
8,9,Ticks_ISO_T2_8,27,9999,9999,9999,9999,1058048088
8,9,Ticks_ISO_T2_8,28,9999,9999,9999,9999,1058848868
8,9,Ticks_ISO_T2_8,29,9999,9999,9999,9999,1059648604
8,9,Ticks_ISO_T2_8,30,9999,9999,9999,9999,1060448336
8,9,Ticks_ISO_T2_8,31,9999,9999,9999,9999,1061248096
8,9,Ticks_ISO_T2_8,32,9999,9999,9999,9999,1062048872
8,9,Ticks_ISO_T2_8,33,9999,9999,9999,9999,1062848600
8,9,Ticks_ISO_T2_8,34,9999,9999,9999,9999,1063648336
8,9,Ticks_ISO_T2_8,35,9999,9999,9999,9999,1064448068
8,9,Ticks_ISO_T2_8,36,9999,9999,9999,9999,1065248848
8,9,Ticks_ISO_T2_8,37,9999,9999,9999,9999,1066048580
8,9,Ticks_ISO_T2_8,38,9999,9999,9999,9999,1066848316
8,9,Ticks_ISO_T2_8,39,9999,9999,9999,9999,1067648072
8,9,Ticks_ISO_T2_8,40,9999,9999,9999,9999,1068448852
8,9,Ticks_ISO_T2_8,41,9999,9999,9999,9999,1069248588
8,9,Ticks_ISO_T2_8,42,9999,9999,9999,9999,1070048324
8,9,Ticks_ISO_T2_8,43,9999,9999,9999,9999,1070848048
8,9,Ticks_ISO_T2_8,44,9999,9999,9999,9999,1071648828
8,9,Ticks_ISO_T2_8,45,9999,9999,9999,9999,1072448560
8,9,Ticks_ISO_T2_8,46,9999,9999,9999,9999,1073248372
8,9,Ticks_ISO_T2_8,47,9999,9999,9999,9999,1074048048
8,9,Ticks_ISO_T2_8,48,9999,9999,9999,9999,1074848832
8,9,Ticks_ISO_T2_8,49,9999,9999,9999,9999,1075648560
8,9,Ticks_ISO_T2_8,50,9999,9999,9999,9999,1076448376
8,9,Ticks_ISO_T2_8,51,9999,9999,9999,9999,1077248100
8,9,Ticks_ISO_T2_8,52,9999,9999,9999,9999,1078048884
8,9,Ticks_ISO_T2_8,53,9999,9999,9999,9999,1078848612
8,9,Ticks_ISO_T2_8,54,9999,9999,9999,9999,1079648352
8,9,Ticks_ISO_T2_8,55,9999,9999,9999,9999,1080448108
8,9,Ticks_ISO_T2_8,56,9999,9999,9999,9999,1081248880
8,9,Ticks_ISO_T2_8,57,9999,9999,9999,9999,1082048616
8,9,Ticks_ISO_T2_8,58,9999,9999,9999,9999,1082848348
8,9,Ticks_ISO_T2_8,59,9999,9999,9999,9999,1083648084
8,9,Ticks_ISO_T2_8,60,9999,9999,9999,9999,1084448860
8,9,Ticks_ISO_T2_8,61,9999,9999,9999,9999,1085248592
8,9,Ticks_ISO_T2_8,62,9999,9999,9999,9999,1086048320
8,9,Ticks_ISO_T2_8,63,9999,9999,9999,9999,1086848076
8,9,Ticks_ISO_T2_8,64,9999,9999,9999,9999,1087648852
8,9,Ticks_ISO_T2_8,65,9999,9999,9999,9999,1088448588
8,9,Ticks_ISO_T2_8,66,9999,9999,9999,9999,1089248320
8,9,Ticks_ISO_T2_8,67,9999,9999,9999,9999,1090048052
8,9,Ticks_ISO_T2_8,68,9999,9999,9999,9999,1090848832
8,9,Ticks_ISO_T2_8,69,9999,9999,9999,9999,1091648564
8,9,Ticks_ISO_T2_8,70,9999,9999,9999,9999,1092448356
8,9,Ticks_ISO_T2_8,71,9999,9999,9999,9999,1093248056
8,9,Ticks_ISO_T2_8,72,9999,9999,9999,9999,1094048832
8,9,Ticks_ISO_T2_8,73,9999,9999,9999,9999,1094848568
8,9,Ticks_ISO_T2_8,74,9999,9999,9999,9999,1095648300
8,9,Ticks_ISO_T2_8,75,9999,9999,9999,9999,1096448108
8,9,Ticks_ISO_T2_8,76,9999,9999,9999,9999,1097248820
8,9,Ticks_ISO_T2_8,77,9999,9999,9999,9999,1098048628
8,9,Ticks_ISO_T2_8,78,9999,9999,9999,9999,1098848356
8,9,Ticks_ISO_T2_8,79,9999,9999,9999,9999,1099648120
8,9,Ticks_ISO_T2_8,80,9999,9999,9999,9999,1100448876
8,9,Ticks_ISO_T2_8,81,9999,9999,9999,9999,1101248628
8,9,Ticks_ISO_T2_8,82,9999,9999,9999,9999,1102048364
8,9,Ticks_ISO_T2_8,83,9999,9999,9999,9999,1102848096
8,9,Ticks_ISO_T2_8,84,9999,9999,9999,9999,1103648872
8,9,Ticks_ISO_T2_8,85,9999,9999,9999,9999,1104448604
8,9,Ticks_ISO_T2_8,86,9999,9999,9999,9999,1105248316
8,9,Ticks_ISO_T2_8,87,9999,9999,9999,9999,1106048072
8,9,Ticks_ISO_T2_8,88,9999,9999,9999,9999,1106848844
8,9,Ticks_ISO_T2_8,89,9999,9999,9999,9999,1107648576
8,9,Ticks_ISO_T2_8,90,9999,9999,9999,9999,1108448308
8,9,Ticks_ISO_T2_8,91,9999,9999,9999,9999,1109248116
8,9,Ticks_ISO_T2_8,92,9999,9999,9999,9999,1110048880
8,9,Ticks_ISO_T2_8,93,9999,9999,9999,9999,1110848628
8,9,Ticks_ISO_T2_8,94,9999,9999,9999,9999,1111648360
8,9,Ticks_ISO_T2_8,95,9999,9999,9999,9999,1112448052
8,9,Ticks_ISO_T2_8,96,9999,9999,9999,9999,1113248824
8,9,Ticks_ISO_T2_8,97,9999,9999,9999,9999,1114048632
8,9,Ticks_ISO_T2_8,98,9999,9999,9999,9999,1114848364
8,9,Ticks_ISO_T2_8,99,9999,9999,9999,9999,1115648128
8,9,Ticks_ISO_T2_8,100,9999,9999,9999,9999,1116448880
8,9,Ticks_ISO_T2_8,101,9999,9999,9999,9999,1117248616
8,9,Ticks_ISO_T2_8,102,9999,9999,9999,9999,1118048344
8,9,Ticks_ISO_T2_8,103,9999,9999,9999,9999,1118848108
8,9,Ticks_ISO_T2_8,104,9999,9999,9999,9999,1119648884
8,9,Ticks_ISO_T2_8,105,9999,9999,9999,9999,1120448620
8,9,Ticks_ISO_T2_8,106,9999,9999,9999,9999,1121248352
8,9,Ticks_ISO_T2_8,107,9999,9999,9999,9999,1122048084
8,9,Ticks_ISO_T2_8,108,9999,9999,9999,9999,1122848856
8,9,Ticks_ISO_T2_8,109,9999,9999,9999,9999,1123648596
8,9,Ticks_ISO_T2_8,110,9999,9999,9999,9999,1124448324
8,9,Ticks_ISO_T2_8,111,9999,9999,9999,9999,1125248080
8,9,Ticks_ISO_T2_8,112,9999,9999,9999,9999,1126048864
8,9,Ticks_ISO_T2_8,113,9999,9999,9999,9999,1126848596
8,9,Ticks_ISO_T2_8,114,9999,9999,9999,9999,1127648324
8,9,Ticks_ISO_T2_8,115,9999,9999,9999,9999,1128448064
8,9,Ticks_ISO_T2_8,116,9999,9999,9999,9999,1129248840
8,9,Ticks_ISO_T2_8,117,9999,9999,9999,9999,1130048572
8,9,Ticks_ISO_T2_8,118,9999,9999,9999,9999,1130848304
8,9,Ticks_ISO_T2_8,119,9999,9999,9999,9999,1131648064
9,21,Ticks_Linear_5,0,5,42,127,1149108764
9,21,Ticks_Linear_5,1,5,42,127,1149588804
9,21,Ticks_Linear_5,2,1,48,40,1149811816
9,21,Ticks_Linear_5,3,5,42,127,1150069196
9,21,Ticks_Linear_5,4,1,48,40,1150113724
9,21,Ticks_Linear_5,5,1,48,47,1150523120
9,21,Ticks_Linear_5,6,5,42,127,1150549484
9,21,Ticks_Linear_5,7,1,48,49,1151009356
9,21,Ticks_Linear_5,8,5,42,127,1151028536
9,21,Ticks_Linear_5,9,5,42,127,1151519024
9,21,Ticks_Linear_5,10,1,48,57,1151524008
9,21,Ticks_Linear_5,11,1,48,61,1151994728
9,21,Ticks_Linear_5,12,5,42,127,1152008460
9,21,Ticks_Linear_5,13,1,48,57,1152467060
9,21,Ticks_Linear_5,14,5,42,127,1152499020
9,21,Ticks_Linear_5,15,1,48,52,1152968384
9,21,Ticks_Linear_5,16,5,42,127,1152988536
9,21,Ticks_Linear_5,17,1,48,48,1153449600
9,21,Ticks_Linear_5,18,5,42,127,1153479244
9,21,Ticks_Linear_5,19,1,48,40,1153969172
9,21,Ticks_Linear_5,20,5,42,127,1153978628
9,21,Ticks_Linear_5,21,1,48,42,1154446576
9,21,Ticks_Linear_5,22,5,42,127,1154478384
9,21,Ticks_Linear_5,23,1,48,46,1154946256
9,21,Ticks_Linear_5,24,5,42,127,1154979336
9,21,Ticks_Linear_5,25,1,48,43,1155439108
9,21,Ticks_Linear_5,26,5,42,127,1155479092
9,21,Ticks_Linear_5,27,1,48,51,1155950076
9,21,Ticks_Linear_5,28,5,42,127,1155978552
9,21,Ticks_Linear_5,29,1,48,39,1156464404
9,21,Ticks_Linear_5,30,5,42,127,1156488624
9,21,Ticks_Linear_5,31,1,48,46,1156948248
9,21,Ticks_Linear_5,32,5,42,127,1156998620
9,21,Ticks_Linear_5,33,1,48,45,1157449868
9,21,Ticks_Linear_5,34,5,42,127,1157508396
9,21,Ticks_Linear_5,35,1,48,36,1157989920
9,21,Ticks_Linear_5,36,5,42,127,1158018392
9,21,Ticks_Linear_5,37,1,48,36,1158510380
9,21,Ticks_Linear_5,38,5,42,127,1158529364
9,21,Ticks_Linear_5,39,1,48,40,1158999452
9,21,Ticks_Linear_5,40,5,42,127,1159048488
9,21,Ticks_Linear_5,41,1,48,40,1159498684
9,21,Ticks_Linear_5,42,5,42,127,1159568728
9,21,Ticks_Linear_5,43,1,48,33,1160033196
9,21,Ticks_Linear_5,44,5,42,127,1160088892
9,21,Ticks_Linear_5,45,1,48,44,1160593236
9,21,Ticks_Linear_5,46,5,42,127,1160609132
9,21,Ticks_Linear_5,47,1,48,30,1161128704
9,21,Ticks_Linear_5,48,5,42,127,1161130344
9,21,Ticks_Linear_5,49,1,48,24,1161645528
9,21,Ticks_Linear_5,50,5,42,127,1161658884
9,21,Ticks_Linear_5,51,1,48,35,1162131540
9,21,Ticks_Linear_5,52,5,42,127,1162189296
9,21,Ticks_Linear_5,53,5,42,127,1162718736
9,21,Ticks_Linear_5,54,1,48,25,1162721176
9,21,Ticks_Linear_5,55,1,48,41,1163224496
9,21,Ticks_Linear_5,56,5,42,127,1163249140
9,21,Ticks_Linear_5,57,1,48,32,1163757156
9,21,Ticks_Linear_5,58,5,42,127,1163778280
9,21,Ticks_Linear_5,59,1,48,35,1164253016
9,21,Ticks_Linear_5,60,5,42,127,1164319080
9,21,Ticks_Linear_5,61,1,48,40,1164822980
9,21,Ticks_Linear_5,62,5,42,127,1164858760
9,21,Ticks_Linear_5,63,1,48,28,1165380600
9,21,Ticks_Linear_5,64,5,42,127,1165399632
9,21,Ticks_Linear_5,65,1,48,27,1165902116
9,21,Ticks_Linear_5,66,5,42,127,1165938964
9,21,Ticks_Linear_5,67,1,48,40,1166439852
9,21,Ticks_Linear_5,68,5,42,127,1166478720
9,21,Ticks_Linear_5,69,5,42,127,1167028648
9,21,Ticks_Linear_5,70,1,48,24,1167031316
9,21,Ticks_Linear_5,71,5,42,127,1167578568
9,21,Ticks_Linear_5,72,1,48,33,1167584744
9,21,Ticks_Linear_5,73,5,42,127,1168129388
9,21,Ticks_Linear_5,74,1,48,31,1168138112
9,21,Ticks_Linear_5,75,5,42,127,1168679236
9,21,Ticks_Linear_5,76,1,48,25,1168691324
9,21,Ticks_Linear_5,77,1,48,30,1169221708
9,21,Ticks_Linear_5,78,5,42,127,1169229148
9,21,Ticks_Linear_5,79,1,48,24,1169769912
9,21,Ticks_Linear_5,80,5,42,127,1169789484
9,21,Ticks_Linear_5,81,1,48,28,1170338548
9,21,Ticks_Linear_5,82,5,42,127,1170349576
9,21,Ticks_Linear_5,83,1,48,34,1170884052
9,21,Ticks_Linear_5,84,5,42,127,1170918716
9,21,Ticks_Linear_5,85,1,48,32,1171478132
9,21,Ticks_Linear_5,86,5,42,127,1171479772
9,21,Ticks_Linear_5,87,5,42,127,1172039120
9,21,Ticks_Linear_5,88,1,48,34,1172058836
9,21,Ticks_Linear_5,89,5,42,127,1172609328
9,21,Ticks_Linear_5,90,1,48,35,1172633520
9,21,Ticks_Linear_5,91,1,48,35,1173146184
9,21,Ticks_Linear_5,92,5,42,127,1173178684
9,21,Ticks_Linear_5,93,1,48,34,1173716220
9,21,Ticks_Linear_5,94,5,42,127,1173749236
9,21,Ticks_Linear_5,95,1,48,41,1174302108
9,21,Ticks_Linear_5,96,5,42,127,1174318376
9,21,Ticks_Linear_5,97,1,48,25,1174883356
9,21,Ticks_Linear_5,98,5,42,127,1174888856
9,21,Ticks_Linear_5,99,1,48,25,1175441152
9,21,Ticks_Linear_5,100,5,42,127,1175469380
9,21,Ticks_Linear_5,101,1,48,28,1176014396
9,21,Ticks_Linear_5,102,5,42,127,1176059224
9,21,Ticks_Linear_5,103,1,48,34,1176560584
9,21,Ticks_Linear_5,104,5,42,127,1176638756
9,21,Ticks_Linear_5,105,1,48,36,1177194536
9,21,Ticks_Linear_5,106,5,42,127,1177218452
9,21,Ticks_Linear_5,107,5,42,127,1177799180
9,21,Ticks_Linear_5,108,1,48,37,1177805280
9,21,Ticks_Linear_5,109,5,42,127,1178388804
9,21,Ticks_Linear_5,110,1,48,29,1178427356
9,21,Ticks_Linear_5,111,5,42,127,1178978648
9,21,Ticks_Linear_5,112,1,48,29,1179011168
9,21,Ticks_Linear_5,113,1,48,30,1179539464
9,21,Ticks_Linear_5,114,5,42,127,1179568360
9,21,Ticks_Linear_5,115,1,48,20,1180141936
9,21,Ticks_Linear_5,116,5,42,127,1180159324
9,21,Ticks_Linear_5,117,1,48,25,1180737096
9,21,Ticks_Linear_5,118,5,42,127,1180749096
9,21,Ticks_Linear_5,119,1,48,29,1181337208
9,21,Ticks_Linear_5,120,5,42,127,1181349208
9,21,Ticks_Linear_5,121,1,48,38,1181906552
9,21,Ticks_Linear_5,122,5,42,127,1181949292
9,21,Ticks_Linear_5,123,1,48,31,1182518164
9,21,Ticks_Linear_5,124,5,42,127,1182549232
9,21,Ticks_Linear_5,125,1,48,40,1183129340
9,21,Ticks_Linear_5,126,5,42,127,1183149564
9,21,Ticks_Linear_5,127,1,48,37,1183733160
9,21,Ticks_Linear_5,128,5,42,127,1183758924
9,21,Ticks_Linear_5,129,1,48,39,1184331832
9,21,Ticks_Linear_5,130,5,42,127,1184369128
9,21,Ticks_Linear_5,131,1,48,36,1184937924
9,21,Ticks_Linear_5,132,5,42,127,1184979232
9,21,Ticks_Linear_5,133,1,48,39,1185581668
9,21,Ticks_Linear_5,134,5,42,127,1185588960
9,21,Ticks_Linear_5,135,1,48,29,1186156940
9,21,Ticks_Linear_5,136,5,42,127,1186199016
9,21,Ticks_Linear_5,137,5,42,127,1186809276
9,21,Ticks_Linear_5,138,1,48,24,1186818528
9,21,Ticks_Linear_5,139,1,48,33,1187380684
9,21,Ticks_Linear_5,140,5,42,127,1187428796
9,21,Ticks_Linear_5,141,1,48,30,1187996040
9,21,Ticks_Linear_5,142,5,42,127,1188049244
9,21,Ticks_Linear_5,143,1,48,30,1188606740
9,21,Ticks_Linear_5,144,5,42,127,1188668696
9,21,Ticks_Linear_5,145,1,48,38,1189251492
9,21,Ticks_Linear_5,146,5,42,127,1189289216
9,21,Ticks_Linear_5,147,1,48,33,1189874152
9,21,Ticks_Linear_5,148,5,42,127,1189908816
9,21,Ticks_Linear_5,149,1,48,30,1190518752
9,21,Ticks_Linear_5,150,5,42,127,1190538680
9,21,Ticks_Linear_5,151,1,48,27,1191157420
9,21,Ticks_Linear_5,152,5,42,127,1191169344
9,21,Ticks_Linear_5,153,1,48,15,1191765272
9,21,Ticks_Linear_5,154,5,42,127,1191799136
9,21,Ticks_Linear_5,155,1,48,21,1192421388
9,21,Ticks_Linear_5,156,5,42,127,1192428904
9,21,Ticks_Linear_5,157,5,42,127,1193058680
9,21,Ticks_Linear_5,158,1,48,30,1193105772
9,21,Ticks_Linear_5,159,1,48,31,1193682660
9,21,Ticks_Linear_5,160,5,42,127,1193698632
9,21,Ticks_Linear_5,161,1,48,38,1194332688
9,21,Ticks_Linear_5,162,5,42,127,1194338568
9,21,Ticks_Linear_5,163,1,48,35,1194946792
9,21,Ticks_Linear_5,164,5,42,127,1194978600
9,21,Ticks_Linear_5,165,1,48,38,1195607728
9,21,Ticks_Linear_5,166,5,42,127,1195618608
9,21,Ticks_Linear_5,167,5,42,127,1196258648
9,21,Ticks_Linear_5,168,1,48,39,1196313120
9,21,Ticks_Linear_5,169,1,48,35,1196899584
9,21,Ticks_Linear_5,170,5,42,127,1196908892
9,21,Ticks_Linear_5,171,1,48,33,1197533480
9,21,Ticks_Linear_5,172,5,42,127,1197559244
9,21,Ticks_Linear_5,173,1,48,34,1198203492
9,21,Ticks_Linear_5,174,5,42,127,1198209296
9,21,Ticks_Linear_5,175,1,48,30,1198830568
9,21,Ticks_Linear_5,176,5,42,127,1198858576
9,21,Ticks_Linear_5,177,1,48,39,1199497148
9,21,Ticks_Linear_5,178,5,42,127,1199509072
9,21,Ticks_Linear_5,179,1,48,37,1200156656
9,21,Ticks_Linear_5,180,5,42,127,1200169268
9,21,Ticks_Linear_5,181,1,48,37,1200763060
9,21,Ticks_Linear_5,182,5,42,127,1200828668
9,21,Ticks_Linear_5,183,1,48,38,1201450172
9,21,Ticks_Linear_5,184,5,42,127,1201489312
9,21,Ticks_Linear_5,185,5,42,127,1202148716
9,21,Ticks_Linear_5,186,1,48,33,1202172092
9,21,Ticks_Linear_5,187,1,48,29,1202792488
9,21,Ticks_Linear_5,188,5,42,127,1202809224
9,21,Ticks_Linear_5,189,1,48,21,1203437836
9,21,Ticks_Linear_5,190,5,42,127,1203478992
9,21,Ticks_Linear_5,191,1,48,31,1204117120
9,21,Ticks_Linear_5,192,5,42,127,1204148556
9,21,Ticks_Linear_5,193,5,42,127,1204819300
9,21,Ticks_Linear_5,194,1,48,24,1204830492
9,21,Ticks_Linear_5,195,5,42,127,1205489012
9,21,Ticks_Linear_5,196,1,48,24,1205536156
9,21,Ticks_Linear_5,197,1,48,25,1206138572
9,21,Ticks_Linear_5,198,5,42,127,1206158868
9,21,Ticks_Linear_5,199,1,48,25,1206809452
9,21,Ticks_Linear_5,200,5,42,127,1206838800
9,21,Ticks_Linear_5,201,1,48,21,1207478872
9,21,Ticks_Linear_5,202,5,42,127,1207518684
9,21,Ticks_Linear_5,203,1,48,32,1208161940
9,21,Ticks_Linear_5,204,5,42,127,1208198564
9,21,Ticks_Linear_5,205,1,48,24,1208837864
9,21,Ticks_Linear_5,206,5,42,127,1208878572
9,21,Ticks_Linear_5,207,1,48,30,1209509744
9,21,Ticks_Linear_5,208,5,42,127,1209559576
9,21,Ticks_Linear_5,209,1,48,35,1210223864
9,21,Ticks_Linear_5,210,5,42,127,1210248728
9,21,Ticks_Linear_5,211,1,48,36,1210910676
9,21,Ticks_Linear_5,212,5,42,127,1210938904
9,21,Ticks_Linear_5,213,5,42,127,1211629036
9,21,Ticks_Linear_5,214,1,48,20,1211641120
9,21,Ticks_Linear_5,215,1,48,42,1212307300
9,21,Ticks_Linear_5,216,5,42,127,1212319076
9,21,Ticks_Linear_5,217,5,42,127,1213009408
9,21,Ticks_Linear_5,218,1,48,40,1213046184
9,21,Ticks_Linear_5,219,1,48,41,1213653504
9,21,Ticks_Linear_5,220,5,42,127,1213708648
9,21,Ticks_Linear_5,221,1,48,38,1214325604
9,21,Ticks_Linear_5,222,5,42,127,1214409016
9,21,Ticks_Linear_5,223,1,48,23,1215090572
9,21,Ticks_Linear_5,224,5,42,127,1215108484
9,21,Ticks_Linear_5,225,1,48,22,1215797576
9,21,Ticks_Linear_5,226,5,42,127,1215808900
9,21,Ticks_Linear_5,227,1,48,16,1216495688
9,21,Ticks_Linear_5,228,5,42,127,1216509264
9,21,Ticks_Linear_5,229,1,48,14,1217192912
9,21,Ticks_Linear_5,230,5,42,127,1217218828
9,21,Ticks_Linear_5,231,1,48,17,1217877028
9,21,Ticks_Linear_5,232,5,42,127,1217928612
9,21,Ticks_Linear_5,233,5,42,127,1218639500
9,21,Ticks_Linear_5,234,1,48,18,1218643288
9,21,Ticks_Linear_5,235,1,48,14,1219308576
9,21,Ticks_Linear_5,236,5,42,127,1219348832
9,21,Ticks_Linear_5,237,1,48,19,1220000564
9,21,Ticks_Linear_5,238,5,42,127,1220058472
9,21,Ticks_Linear_5,239,1,48,23,1220707712
9,21,Ticks_Linear_5,240,5,42,127,1220779320
9,21,Ticks_Linear_5,241,1,48,25,1221436400
9,21,Ticks_Linear_5,242,5,42,127,1221499128
9,21,Ticks_Linear_5,243,1,48,21,1222116432
9,21,Ticks_Linear_5,244,5,42,127,1222219112
9,21,Ticks_Linear_5,245,1,48,27,1222879160
9,21,Ticks_Linear_5,246,5,42,127,1222939084
9,21,Ticks_Linear_5,247,1,48,24,1223624152
9,21,Ticks_Linear_5,248,5,42,127,1223658812
9,21,Ticks_Linear_5,249,1,48,21,1224317720
9,21,Ticks_Linear_5,250,5,42,127,1224389008
9,21,Ticks_Linear_5,251,1,48,30,1225081408
9,21,Ticks_Linear_5,252,5,42,127,1225119204
9,21,Ticks_Linear_5,253,1,48,23,1225846288
9,21,Ticks_Linear_5,254,5,42,127,1225849252
9,21,Ticks_Linear_5,255,1,48,27,1226524576
9,21,Ticks_Linear_5,256,5,42,127,1226579204
9,21,Ticks_Linear_5,257,1,48,23,1227212312
9,21,Ticks_Linear_5,258,5,42,127,1227310652
9,21,Ticks_Linear_5,259,1,48,20,1227934580
9,21,Ticks_Linear_5,260,5,42,127,1228059092
9,21,Ticks_Linear_5,261,1,48,31,1228714052
9,21,Ticks_Linear_5,262,5,42,127,1228799248
9,21,Ticks_Linear_5,263,1,48,13,1229531944
9,21,Ticks_Linear_5,264,5,42,127,1229538792
9,21,Ticks_Linear_5,265,1,48,18,1230263856
9,21,Ticks_Linear_5,266,5,42,127,1230279152
9,21,Ticks_Linear_5,267,1,48,23,1230983884
9,21,Ticks_Linear_5,268,5,42,127,1231019740
9,21,Ticks_Linear_5,269,1,48,21,1231714204
9,21,Ticks_Linear_5,270,5,42,127,1231768852
9,21,Ticks_Linear_5,271,1,48,23,1232454868
9,21,Ticks_Linear_5,272,5,42,127,1232518784
9,21,Ticks_Linear_5,273,1,48,24,1233160172
9,21,Ticks_Linear_5,274,5,42,127,1233269152
9,21,Ticks_Linear_5,275,5,42,127,1234018708
9,21,Ticks_Linear_5,276,1,48,22,1234061548
9,21,Ticks_Linear_5,277,1,48,26,1234733676
9,21,Ticks_Linear_5,278,5,42,127,1234769308
9,21,Ticks_Linear_5,279,5,42,127,1235529044
9,21,Ticks_Linear_5,280,1,48,13,1236222948
9,21,Ticks_Linear_5,281,5,42,127,1236289008
9,21,Ticks_Linear_5,282,1,48,20,1237023348
9,21,Ticks_Linear_5,283,5,42,127,1237048664
9,21,Ticks_Linear_5,284,1,48,17,1237786824
9,21,Ticks_Linear_5,285,5,42,127,1237808612
9,21,Ticks_Linear_5,286,1,48,23,1238529204
9,21,Ticks_Linear_5,287,5,42,127,1238569536
9,21,Ticks_Linear_5,288,5,42,127,1239339364
9,21,Ticks_Linear_5,289,1,48,30,1240049128
9,21,Ticks_Linear_5,290,5,42,127,1240109500
9,21,Ticks_Linear_5,291,1,48,24,1240844208
9,21,Ticks_Linear_5,292,5,42,127,1240888668
9,21,Ticks_Linear_5,293,1,48,22,1241608660
9,21,Ticks_Linear_5,294,5,42,127,1241658788
9,21,Ticks_Linear_5,295,1,48,27,1242380348
9,21,Ticks_Linear_5,296,5,42,127,1242428832
9,21,Ticks_Linear_5,297,1,48,14,1243140892
9,21,Ticks_Linear_5,298,5,42,127,1243209116
9,21,Ticks_Linear_5,299,1,48,16,1243932696
9,21,Ticks_Linear_5,300,5,42,127,1243989480
9,21,Ticks_Linear_5,301,5,42,127,1244768728
9,21,Ticks_Linear_5,302,1,48,16,1244813128
9,21,Ticks_Linear_5,303,5,42,127,1245549188
9,21,Ticks_Linear_5,304,1,48,14,1246235888
9,21,Ticks_Linear_5,305,5,42,127,1246329188
9,21,Ticks_Linear_5,306,1,48,19,1247015504
9,21,Ticks_Linear_5,307,5,42,127,1247118880
9,21,Ticks_Linear_5,308,1,48,24,1247840800
9,21,Ticks_Linear_5,309,5,42,127,1247909276
9,21,Ticks_Linear_5,310,1,48,27,1248594764
9,21,Ticks_Linear_5,311,5,42,127,1248698964
9,21,Ticks_Linear_5,312,5,42,127,1249489220
9,21,Ticks_Linear_5,313,1,48,27,1249492924
9,21,Ticks_Linear_5,314,1,48,21,1250258096
9,21,Ticks_Linear_5,315,5,42,127,1250279064
9,21,Ticks_Linear_5,316,1,48,21,1250981112
9,21,Ticks_Linear_5,317,5,42,127,1251078552
9,21,Ticks_Linear_5,318,1,48,20,1251762140
9,21,Ticks_Linear_5,319,5,42,127,1251879172
9,21,Ticks_Linear_5,320,1,48,27,1252617192
9,21,Ticks_Linear_5,321,5,42,127,1252678988
9,21,Ticks_Linear_5,322,1,48,26,1253395276
9,21,Ticks_Linear_5,323,5,42,127,1253478836
9,21,Ticks_Linear_5,324,1,48,22,1254205916
9,21,Ticks_Linear_5,325,5,42,127,1254278732
9,21,Ticks_Linear_5,326,1,48,18,1255014692
9,21,Ticks_Linear_5,327,5,42,127,1255088628
9,21,Ticks_Linear_5,328,1,48,18,1255858484
9,21,Ticks_Linear_5,329,5,42,127,1255898668
9,21,Ticks_Linear_5,330,1,48,21,1256638024
9,21,Ticks_Linear_5,331,5,42,127,1256708632
9,21,Ticks_Linear_5,332,1,48,24,1257445360
9,21,Ticks_Linear_5,333,5,42,127,1257518676
9,21,Ticks_Linear_5,334,1,48,29,1258245164
9,21,Ticks_Linear_5,335,5,42,127,1258328344
9,21,Ticks_Linear_5,0,9999,9999,9999,9999,1149106244
9,21,Ticks_Linear_5,1,9999,9999,9999,9999,1149586508
9,21,Ticks_Linear_5,2,9999,9999,9999,9999,1150066808
9,21,Ticks_Linear_5,3,9999,9999,9999,9999,1150547036
9,21,Ticks_Linear_5,4,9999,9999,9999,9999,1151026236
9,21,Ticks_Linear_5,5,9999,9999,9999,9999,1151516728
9,21,Ticks_Linear_5,6,9999,9999,9999,9999,1152006236
9,21,Ticks_Linear_5,7,9999,9999,9999,9999,1152496724
9,21,Ticks_Linear_5,8,9999,9999,9999,9999,1152986236
9,21,Ticks_Linear_5,9,9999,9999,9999,9999,1153476724
9,21,Ticks_Linear_5,10,9999,9999,9999,9999,1153976404
9,21,Ticks_Linear_5,11,9999,9999,9999,9999,1154476088
9,21,Ticks_Linear_5,12,9999,9999,9999,9999,1154976888
9,21,Ticks_Linear_5,13,9999,9999,9999,9999,1155476572
9,21,Ticks_Linear_5,14,9999,9999,9999,9999,1155976256
9,21,Ticks_Linear_5,15,9999,9999,9999,9999,1156486252
9,21,Ticks_Linear_5,16,9999,9999,9999,9999,1156996176
9,21,Ticks_Linear_5,17,9999,9999,9999,9999,1157506176
9,21,Ticks_Linear_5,18,9999,9999,9999,9999,1158016096
9,21,Ticks_Linear_5,19,9999,9999,9999,9999,1158527064
9,21,Ticks_Linear_5,20,9999,9999,9999,9999,1159046264
9,21,Ticks_Linear_5,21,9999,9999,9999,9999,1159566428
9,21,Ticks_Linear_5,22,9999,9999,9999,9999,1160086596
9,21,Ticks_Linear_5,23,9999,9999,9999,9999,1160606836
9,21,Ticks_Linear_5,24,9999,9999,9999,9999,1161127008
9,21,Ticks_Linear_5,25,9999,9999,9999,9999,1161656440
9,21,Ticks_Linear_5,26,9999,9999,9999,9999,1162186848
9,21,Ticks_Linear_5,27,9999,9999,9999,9999,1162716216
9,21,Ticks_Linear_5,28,9999,9999,9999,9999,1163246692
9,21,Ticks_Linear_5,29,9999,9999,9999,9999,1163776060
9,21,Ticks_Linear_5,30,9999,9999,9999,9999,1164316780
9,21,Ticks_Linear_5,31,9999,9999,9999,9999,1164856388
9,21,Ticks_Linear_5,32,9999,9999,9999,9999,1165397112
9,21,Ticks_Linear_5,33,9999,9999,9999,9999,1165936716
9,21,Ticks_Linear_5,34,9999,9999,9999,9999,1166476348
9,21,Ticks_Linear_5,35,9999,9999,9999,9999,1167026276
9,21,Ticks_Linear_5,36,9999,9999,9999,9999,1167576124
9,21,Ticks_Linear_5,37,9999,9999,9999,9999,1168127088
9,21,Ticks_Linear_5,38,9999,9999,9999,9999,1168676936
9,21,Ticks_Linear_5,39,9999,9999,9999,9999,1169226852
9,21,Ticks_Linear_5,40,9999,9999,9999,9999,1169786968
9,21,Ticks_Linear_5,41,9999,9999,9999,9999,1170347132
9,21,Ticks_Linear_5,42,9999,9999,9999,9999,1170916416
9,21,Ticks_Linear_5,43,9999,9999,9999,9999,1171476584
9,21,Ticks_Linear_5,44,9999,9999,9999,9999,1172036676
9,21,Ticks_Linear_5,45,9999,9999,9999,9999,1172607032
9,21,Ticks_Linear_5,46,9999,9999,9999,9999,1173176384
9,21,Ticks_Linear_5,47,9999,9999,9999,9999,1173746792
9,21,Ticks_Linear_5,48,9999,9999,9999,9999,1174316152
9,21,Ticks_Linear_5,49,9999,9999,9999,9999,1174886484
9,21,Ticks_Linear_5,50,9999,9999,9999,9999,1175467084
9,21,Ticks_Linear_5,51,9999,9999,9999,9999,1176056928
9,21,Ticks_Linear_5,52,9999,9999,9999,9999,1176636532
9,21,Ticks_Linear_5,53,9999,9999,9999,9999,1177216084
9,21,Ticks_Linear_5,54,9999,9999,9999,9999,1177796660
9,21,Ticks_Linear_5,55,9999,9999,9999,9999,1178386508
9,21,Ticks_Linear_5,56,9999,9999,9999,9999,1178976352
9,21,Ticks_Linear_5,57,9999,9999,9999,9999,1179566136
9,21,Ticks_Linear_5,58,9999,9999,9999,9999,1180157028
9,21,Ticks_Linear_5,59,9999,9999,9999,9999,1180746872
9,21,Ticks_Linear_5,60,9999,9999,9999,9999,1181346912
9,21,Ticks_Linear_5,61,9999,9999,9999,9999,1181946996
9,21,Ticks_Linear_5,62,9999,9999,9999,9999,1182547008
9,21,Ticks_Linear_5,63,9999,9999,9999,9999,1183147124
9,21,Ticks_Linear_5,64,9999,9999,9999,9999,1183756404
9,21,Ticks_Linear_5,65,9999,9999,9999,9999,1184366656
9,21,Ticks_Linear_5,66,9999,9999,9999,9999,1184977012
9,21,Ticks_Linear_5,67,9999,9999,9999,9999,1185586292
9,21,Ticks_Linear_5,68,9999,9999,9999,9999,1186196572
9,21,Ticks_Linear_5,69,9999,9999,9999,9999,1186806904
9,21,Ticks_Linear_5,70,9999,9999,9999,9999,1187426424
9,21,Ticks_Linear_5,71,9999,9999,9999,9999,1188046944
9,21,Ticks_Linear_5,72,9999,9999,9999,9999,1188666472
9,21,Ticks_Linear_5,73,9999,9999,9999,9999,1189286992
9,21,Ticks_Linear_5,74,9999,9999,9999,9999,1189906516
9,21,Ticks_Linear_5,75,9999,9999,9999,9999,1190536312
9,21,Ticks_Linear_5,76,9999,9999,9999,9999,1191167048
9,21,Ticks_Linear_5,77,9999,9999,9999,9999,1191796840
9,21,Ticks_Linear_5,78,9999,9999,9999,9999,1192426608
9,21,Ticks_Linear_5,79,9999,9999,9999,9999,1193056380
9,21,Ticks_Linear_5,80,9999,9999,9999,9999,1193696336
9,21,Ticks_Linear_5,81,9999,9999,9999,9999,1194336344
9,21,Ticks_Linear_5,82,9999,9999,9999,9999,1194976380
9,21,Ticks_Linear_5,83,9999,9999,9999,9999,1195616312
9,21,Ticks_Linear_5,84,9999,9999,9999,9999,1196256352
9,21,Ticks_Linear_5,85,9999,9999,9999,9999,1196906596
9,21,Ticks_Linear_5,86,9999,9999,9999,9999,1197556796
9,21,Ticks_Linear_5,87,9999,9999,9999,9999,1198207072
9,21,Ticks_Linear_5,88,9999,9999,9999,9999,1198856280
9,21,Ticks_Linear_5,89,9999,9999,9999,9999,1199506552
9,21,Ticks_Linear_5,90,9999,9999,9999,9999,1200166972
9,21,Ticks_Linear_5,91,9999,9999,9999,9999,1200826444
9,21,Ticks_Linear_5,92,9999,9999,9999,9999,1201486940
9,21,Ticks_Linear_5,93,9999,9999,9999,9999,1202146416
9,21,Ticks_Linear_5,94,9999,9999,9999,9999,1202806852
9,21,Ticks_Linear_5,95,9999,9999,9999,9999,1203476544
9,21,Ticks_Linear_5,96,9999,9999,9999,9999,1204146260
9,21,Ticks_Linear_5,97,9999,9999,9999,9999,1204817000
9,21,Ticks_Linear_5,98,9999,9999,9999,9999,1205486716
9,21,Ticks_Linear_5,99,9999,9999,9999,9999,1206156348
9,21,Ticks_Linear_5,100,9999,9999,9999,9999,1206836280
9,21,Ticks_Linear_5,101,9999,9999,9999,9999,1207516236
9,21,Ticks_Linear_5,102,9999,9999,9999,9999,1208196196
9,21,Ticks_Linear_5,103,9999,9999,9999,9999,1208876128
9,21,Ticks_Linear_5,104,9999,9999,9999,9999,1209557056
9,21,Ticks_Linear_5,105,9999,9999,9999,9999,1210246208
9,21,Ticks_Linear_5,106,9999,9999,9999,9999,1210936384
9,21,Ticks_Linear_5,107,9999,9999,9999,9999,1211626588
9,21,Ticks_Linear_5,108,9999,9999,9999,9999,1212316780
9,21,Ticks_Linear_5,109,9999,9999,9999,9999,1213006960
9,21,Ticks_Linear_5,110,9999,9999,9999,9999,1213706352
9,21,Ticks_Linear_5,111,9999,9999,9999,9999,1214406716
9,21,Ticks_Linear_5,112,9999,9999,9999,9999,1215106112
9,21,Ticks_Linear_5,113,9999,9999,9999,9999,1215806528
9,21,Ticks_Linear_5,114,9999,9999,9999,9999,1216506968
9,21,Ticks_Linear_5,115,9999,9999,9999,9999,1217216604
9,21,Ticks_Linear_5,116,9999,9999,9999,9999,1217926244
9,21,Ticks_Linear_5,117,9999,9999,9999,9999,1218636904
9,21,Ticks_Linear_5,118,9999,9999,9999,9999,1219346536
9,21,Ticks_Linear_5,119,9999,9999,9999,9999,1220056176
9,21,Ticks_Linear_5,120,9999,9999,9999,9999,1220777024
9,21,Ticks_Linear_5,121,9999,9999,9999,9999,1221496904
9,21,Ticks_Linear_5,122,9999,9999,9999,9999,1222216816
9,21,Ticks_Linear_5,123,9999,9999,9999,9999,1222936636
9,21,Ticks_Linear_5,124,9999,9999,9999,9999,1223656516
9,21,Ticks_Linear_5,125,9999,9999,9999,9999,1224386636
9,21,Ticks_Linear_5,126,9999,9999,9999,9999,1225116760
9,21,Ticks_Linear_5,127,9999,9999,9999,9999,1225846880
9,21,Ticks_Linear_5,128,9999,9999,9999,9999,1226576980
9,21,Ticks_Linear_5,129,9999,9999,9999,9999,1227307104
9,21,Ticks_Linear_5,130,9999,9999,9999,9999,1228056648
9,21,Ticks_Linear_5,131,9999,9999,9999,9999,1228797024
9,21,Ticks_Linear_5,132,9999,9999,9999,9999,1229536344
9,21,Ticks_Linear_5,133,9999,9999,9999,9999,1230276708
9,21,Ticks_Linear_5,134,9999,9999,9999,9999,1231017072
9,21,Ticks_Linear_5,135,9999,9999,9999,9999,1231766632
9,21,Ticks_Linear_5,136,9999,9999,9999,9999,1232516192
9,21,Ticks_Linear_5,137,9999,9999,9999,9999,1233266780
9,21,Ticks_Linear_5,138,9999,9999,9999,9999,1234016336
9,21,Ticks_Linear_5,139,9999,9999,9999,9999,1234766936
9,21,Ticks_Linear_5,140,9999,9999,9999,9999,1235526748
9,21,Ticks_Linear_5,141,9999,9999,9999,9999,1236286564
9,21,Ticks_Linear_5,142,9999,9999,9999,9999,1237046368
9,21,Ticks_Linear_5,143,9999,9999,9999,9999,1237806168
9,21,Ticks_Linear_5,144,9999,9999,9999,9999,1238567016
9,21,Ticks_Linear_5,145,9999,9999,9999,9999,1239337068
9,21,Ticks_Linear_5,146,9999,9999,9999,9999,1240107132
9,21,Ticks_Linear_5,147,9999,9999,9999,9999,1240886368
9,21,Ticks_Linear_5,148,9999,9999,9999,9999,1241656416
9,21,Ticks_Linear_5,149,9999,9999,9999,9999,1242426460
9,21,Ticks_Linear_5,150,9999,9999,9999,9999,1243206748
9,21,Ticks_Linear_5,151,9999,9999,9999,9999,1243987032
9,21,Ticks_Linear_5,152,9999,9999,9999,9999,1244766280
9,21,Ticks_Linear_5,153,9999,9999,9999,9999,1245546568
9,21,Ticks_Linear_5,154,9999,9999,9999,9999,1246326892
9,21,Ticks_Linear_5,155,9999,9999,9999,9999,1247116360
9,21,Ticks_Linear_5,156,9999,9999,9999,9999,1247906904
9,21,Ticks_Linear_5,157,9999,9999,9999,9999,1248696444
9,21,Ticks_Linear_5,158,9999,9999,9999,9999,1249486920
9,21,Ticks_Linear_5,159,9999,9999,9999,9999,1250276472
9,21,Ticks_Linear_5,160,9999,9999,9999,9999,1251076180
9,21,Ticks_Linear_5,161,9999,9999,9999,9999,1251876952
9,21,Ticks_Linear_5,162,9999,9999,9999,9999,1252676688
9,21,Ticks_Linear_5,163,9999,9999,9999,9999,1253476464
9,21,Ticks_Linear_5,164,9999,9999,9999,9999,1254276212
9,21,Ticks_Linear_5,165,9999,9999,9999,9999,1255086184
9,21,Ticks_Linear_5,166,9999,9999,9999,9999,1255896148
9,21,Ticks_Linear_5,167,9999,9999,9999,9999,1256706116
9,21,Ticks_Linear_5,168,9999,9999,9999,9999,1257516156
9,21,Ticks_Linear_5,169,9999,9999,9999,9999,1258326120
10,20,Ticks_Linear_8,0,5,42,127,1271187820
10,20,Ticks_Linear_8,1,5,42,127,1272008128
10,20,Ticks_Linear_8,2,1,48,24,1272318760
10,20,Ticks_Linear_8,3,5,42,127,1272828184
10,20,Ticks_Linear_8,4,1,48,44,1272864188
10,20,Ticks_Linear_8,5,5,42,127,1273647348
10,20,Ticks_Linear_8,6,1,48,55,1273693964
10,20,Ticks_Linear_8,7,5,42,127,1274467856
10,20,Ticks_Linear_8,8,1,48,54,1274492448
10,20,Ticks_Linear_8,9,5,42,127,1275277700
10,20,Ticks_Linear_8,10,1,48,62,1275326944
10,20,Ticks_Linear_8,11,5,42,127,1276087740
10,20,Ticks_Linear_8,12,1,48,58,1276129132
10,20,Ticks_Linear_8,13,5,42,127,1276897784
10,20,Ticks_Linear_8,14,1,48,58,1276921604
10,20,Ticks_Linear_8,15,5,42,127,1277707604
10,20,Ticks_Linear_8,16,1,48,53,1277719616
10,20,Ticks_Linear_8,17,1,48,54,1278513332
10,20,Ticks_Linear_8,18,5,42,127,1278517640
10,20,Ticks_Linear_8,19,5,42,127,1279318640
10,20,Ticks_Linear_8,20,1,48,58,1279334304
10,20,Ticks_Linear_8,21,1,48,55,1280074348
10,20,Ticks_Linear_8,22,5,42,127,1280118084
10,20,Ticks_Linear_8,23,5,42,127,1280917816
10,20,Ticks_Linear_8,24,1,48,57,1280931616
10,20,Ticks_Linear_8,25,1,48,59,1281687140
10,20,Ticks_Linear_8,26,5,42,127,1281717536
10,20,Ticks_Linear_8,27,1,48,51,1282516644
10,20,Ticks_Linear_8,28,5,42,127,1282518380
10,20,Ticks_Linear_8,29,5,42,127,1283307796
10,20,Ticks_Linear_8,30,1,48,48,1283325700
10,20,Ticks_Linear_8,31,5,42,127,1284098400
10,20,Ticks_Linear_8,32,1,48,57,1284114360
10,20,Ticks_Linear_8,33,1,48,55,1284879388
10,20,Ticks_Linear_8,34,5,42,127,1284898264
10,20,Ticks_Linear_8,35,1,48,59,1285635064
10,20,Ticks_Linear_8,36,5,42,127,1285687676
10,20,Ticks_Linear_8,37,1,48,45,1286364740
10,20,Ticks_Linear_8,38,1,48,32,1286428496
10,20,Ticks_Linear_8,39,5,42,127,1286478180
10,20,Ticks_Linear_8,40,1,48,59,1287211252
10,20,Ticks_Linear_8,41,5,42,127,1287257348
10,20,Ticks_Linear_8,42,1,48,66,1288016660
10,20,Ticks_Linear_8,43,5,42,127,1288037636
10,20,Ticks_Linear_8,44,5,42,127,1288818172
10,20,Ticks_Linear_8,45,1,48,57,1288844536
10,20,Ticks_Linear_8,46,1,48,48,1289579052
10,20,Ticks_Linear_8,47,5,42,127,1289598304
10,20,Ticks_Linear_8,48,1,48,58,1290376424
10,20,Ticks_Linear_8,49,5,42,127,1290378372
10,20,Ticks_Linear_8,50,1,48,52,1291129680
10,20,Ticks_Linear_8,51,5,42,127,1291147740
10,20,Ticks_Linear_8,52,1,48,49,1291907132
10,20,Ticks_Linear_8,53,5,42,127,1291917936
10,20,Ticks_Linear_8,54,5,42,127,1292687836
10,20,Ticks_Linear_8,55,1,48,39,1292697232
10,20,Ticks_Linear_8,56,5,42,127,1293457956
10,20,Ticks_Linear_8,57,1,48,47,1293483344
10,20,Ticks_Linear_8,58,1,48,44,1294211204
10,20,Ticks_Linear_8,59,5,42,127,1294227696
10,20,Ticks_Linear_8,60,5,42,127,1294987728
10,20,Ticks_Linear_8,61,1,48,44,1294991740
10,20,Ticks_Linear_8,62,1,48,42,1295719896
10,20,Ticks_Linear_8,63,5,42,127,1295747300
10,20,Ticks_Linear_8,64,1,48,43,1296496748
10,20,Ticks_Linear_8,65,5,42,127,1296508372
10,20,Ticks_Linear_8,66,5,42,127,1297268032
10,20,Ticks_Linear_8,67,1,48,47,1297323472
10,20,Ticks_Linear_8,68,1,48,50,1298004944
10,20,Ticks_Linear_8,69,5,42,127,1298027752
10,20,Ticks_Linear_8,70,1,48,50,1298762064
10,20,Ticks_Linear_8,71,5,42,127,1298777584
10,20,Ticks_Linear_8,72,5,42,127,1299527976
10,20,Ticks_Linear_8,73,1,48,48,1299537972
10,20,Ticks_Linear_8,74,5,42,127,1300277536
10,20,Ticks_Linear_8,75,1,48,46,1300311892
10,20,Ticks_Linear_8,76,5,42,127,1301028436
10,20,Ticks_Linear_8,77,1,48,52,1301052636
10,20,Ticks_Linear_8,78,5,42,127,1301777776
10,20,Ticks_Linear_8,79,1,48,44,1301787320
10,20,Ticks_Linear_8,80,5,42,127,1302517992
10,20,Ticks_Linear_8,81,1,48,51,1302537556
10,20,Ticks_Linear_8,82,5,42,127,1303257604
10,20,Ticks_Linear_8,83,1,48,51,1303261912
10,20,Ticks_Linear_8,84,5,42,127,1303997748
10,20,Ticks_Linear_8,85,1,48,48,1304004516
10,20,Ticks_Linear_8,86,5,42,127,1304738332
10,20,Ticks_Linear_8,87,1,48,48,1304749600
10,20,Ticks_Linear_8,88,5,42,127,1305477580
10,20,Ticks_Linear_8,89,1,48,50,1305498788
10,20,Ticks_Linear_8,90,5,42,127,1306207600
10,20,Ticks_Linear_8,91,1,48,53,1306236756
10,20,Ticks_Linear_8,92,5,42,127,1306937576
10,20,Ticks_Linear_8,93,1,48,50,1306962292
10,20,Ticks_Linear_8,94,5,42,127,1307667768
10,20,Ticks_Linear_8,95,1,48,46,1307679856
10,20,Ticks_Linear_8,96,5,42,127,1308398112
10,20,Ticks_Linear_8,97,1,48,51,1308420664
10,20,Ticks_Linear_8,98,1,48,47,1309124816
10,20,Ticks_Linear_8,99,5,42,127,1309128152
10,20,Ticks_Linear_8,100,5,42,127,1309847968
10,20,Ticks_Linear_8,101,1,48,51,1309879268
10,20,Ticks_Linear_8,102,1,48,40,1310561420
10,20,Ticks_Linear_8,103,5,42,127,1310567988
10,20,Ticks_Linear_8,104,1,48,48,1311250048
10,20,Ticks_Linear_8,105,5,42,127,1311287696
10,20,Ticks_Linear_8,106,5,42,127,1312007508
10,20,Ticks_Linear_8,107,1,48,38,1312014652
10,20,Ticks_Linear_8,108,1,48,41,1312725012
10,20,Ticks_Linear_8,109,5,42,127,1312728352
10,20,Ticks_Linear_8,110,5,42,127,1313448312
10,20,Ticks_Linear_8,111,1,48,46,1313461520
10,20,Ticks_Linear_8,112,1,48,46,1314137992
10,20,Ticks_Linear_8,113,5,42,127,1314158092
10,20,Ticks_Linear_8,114,1,48,18,1314255532
10,20,Ticks_Linear_8,115,5,42,127,1314867468
10,20,Ticks_Linear_8,116,1,48,44,1314916860
10,20,Ticks_Linear_8,117,5,42,127,1315578148
10,20,Ticks_Linear_8,118,1,48,38,1315652284
10,20,Ticks_Linear_8,119,5,42,127,1316287936
10,20,Ticks_Linear_8,120,1,48,40,1316291124
10,20,Ticks_Linear_8,121,5,42,127,1316988304
10,20,Ticks_Linear_8,122,1,48,47,1317014064
10,20,Ticks_Linear_8,123,5,42,127,1317687748
10,20,Ticks_Linear_8,124,1,48,40,1317695040
10,20,Ticks_Linear_8,125,1,48,44,1318383652
10,20,Ticks_Linear_8,126,5,42,127,1318388108
10,20,Ticks_Linear_8,127,5,42,127,1319087660
10,20,Ticks_Linear_8,128,1,48,48,1319110284
10,20,Ticks_Linear_8,129,1,48,41,1319770008
10,20,Ticks_Linear_8,130,5,42,127,1319788020
10,20,Ticks_Linear_8,131,1,48,40,1320445100
10,20,Ticks_Linear_8,132,5,42,127,1320478044
10,20,Ticks_Linear_8,133,1,48,29,1321148840
10,20,Ticks_Linear_8,134,5,42,127,1321168244
10,20,Ticks_Linear_8,135,5,42,127,1321858524
10,20,Ticks_Linear_8,136,1,48,32,1321907020
10,20,Ticks_Linear_8,137,1,48,34,1322511940
10,20,Ticks_Linear_8,138,5,42,127,1322557812
10,20,Ticks_Linear_8,139,1,48,26,1323200492
10,20,Ticks_Linear_8,140,5,42,127,1323248012
10,20,Ticks_Linear_8,141,1,48,26,1323909908
10,20,Ticks_Linear_8,142,5,42,127,1323927972
10,20,Ticks_Linear_8,143,1,48,28,1324603364
10,20,Ticks_Linear_8,144,5,42,127,1324607900
10,20,Ticks_Linear_8,145,5,42,127,1325287864
10,20,Ticks_Linear_8,146,1,48,27,1325320880
10,20,Ticks_Linear_8,147,5,42,127,1325967672
10,20,Ticks_Linear_8,148,1,48,20,1326034252
10,20,Ticks_Linear_8,149,5,42,127,1326647604
10,20,Ticks_Linear_8,150,1,48,41,1326656104
10,20,Ticks_Linear_8,151,5,42,127,1327318292
10,20,Ticks_Linear_8,152,1,48,44,1327350040
10,20,Ticks_Linear_8,153,5,42,127,1327988156
10,20,Ticks_Linear_8,154,1,48,33,1328054060
10,20,Ticks_Linear_8,155,5,42,127,1328657696
10,20,Ticks_Linear_8,156,1,48,48,1328678084
10,20,Ticks_Linear_8,157,5,42,127,1329327336
10,20,Ticks_Linear_8,158,1,48,46,1329332316
10,20,Ticks_Linear_8,159,5,42,127,1329998220
10,20,Ticks_Linear_8,160,1,48,36,1330034024
10,20,Ticks_Linear_8,161,1,48,44,1330647852
10,20,Ticks_Linear_8,162,5,42,127,1330657612
10,20,Ticks_Linear_8,163,1,48,48,1331281800
10,20,Ticks_Linear_8,164,5,42,127,1331318280
10,20,Ticks_Linear_8,165,5,42,127,1331977808
10,20,Ticks_Linear_8,166,1,48,40,1332006944
10,20,Ticks_Linear_8,167,1,48,41,1332615480
10,20,Ticks_Linear_8,168,5,42,127,1332638096
10,20,Ticks_Linear_8,169,1,48,37,1333283516
10,20,Ticks_Linear_8,170,5,42,127,1333297472
10,20,Ticks_Linear_8,171,1,48,41,1333927372
10,20,Ticks_Linear_8,172,5,42,127,1333947968
10,20,Ticks_Linear_8,173,5,42,127,1334598152
10,20,Ticks_Linear_8,174,1,48,37,1334627812
10,20,Ticks_Linear_8,175,5,42,127,1335248108
10,20,Ticks_Linear_8,176,1,48,34,1335259668
10,20,Ticks_Linear_8,177,1,48,40,1335883724
10,20,Ticks_Linear_8,178,5,42,127,1335897456
10,20,Ticks_Linear_8,179,5,42,127,1336548036
10,20,Ticks_Linear_8,180,1,48,33,1336549600
10,20,Ticks_Linear_8,181,5,42,127,1337188044
10,20,Ticks_Linear_8,182,1,48,30,1337207164
10,20,Ticks_Linear_8,183,1,48,36,1337812452
10,20,Ticks_Linear_8,184,5,42,127,1337827900
10,20,Ticks_Linear_8,185,1,48,34,1338414852
10,20,Ticks_Linear_8,186,5,42,127,1338467984
10,20,Ticks_Linear_8,187,1,48,22,1339060332
10,20,Ticks_Linear_8,188,5,42,127,1339107844
10,20,Ticks_Linear_8,189,1,48,35,1339724404
10,20,Ticks_Linear_8,190,5,42,127,1339747780
10,20,Ticks_Linear_8,191,1,48,22,1340367856
10,20,Ticks_Linear_8,192,5,42,127,1340377620
10,20,Ticks_Linear_8,193,5,42,127,1341008144
10,20,Ticks_Linear_8,194,1,48,33,1341036180
10,20,Ticks_Linear_8,195,5,42,127,1341637864
10,20,Ticks_Linear_8,196,1,48,39,1342234544
10,20,Ticks_Linear_8,197,5,42,127,1342267644
10,20,Ticks_Linear_8,198,1,48,29,1342854400
10,20,Ticks_Linear_8,199,5,42,127,1342897664
10,20,Ticks_Linear_8,200,1,48,44,1343509668
10,20,Ticks_Linear_8,201,5,42,127,1343518008
10,20,Ticks_Linear_8,202,1,48,43,1344135596
10,20,Ticks_Linear_8,203,5,42,127,1344137560
10,20,Ticks_Linear_8,204,5,42,127,1344757988
10,20,Ticks_Linear_8,205,1,48,44,1344775316
10,20,Ticks_Linear_8,206,5,42,127,1345377592
10,20,Ticks_Linear_8,207,1,48,43,1345401112
10,20,Ticks_Linear_8,208,5,42,127,1345998308
10,20,Ticks_Linear_8,209,1,48,43,1346013080
10,20,Ticks_Linear_8,210,5,42,127,1346607516
10,20,Ticks_Linear_8,211,1,48,38,1346630816
10,20,Ticks_Linear_8,212,1,48,40,1347195608
10,20,Ticks_Linear_8,213,5,42,127,1347217788
10,20,Ticks_Linear_8,214,5,42,127,1347828200
10,20,Ticks_Linear_8,215,1,48,36,1347829608
10,20,Ticks_Linear_8,216,1,48,39,1348433244
10,20,Ticks_Linear_8,217,5,42,127,1348438448
10,20,Ticks_Linear_8,218,5,42,127,1349047540
10,20,Ticks_Linear_8,219,1,48,40,1349088336
10,20,Ticks_Linear_8,220,5,42,127,1349647700
10,20,Ticks_Linear_8,221,1,48,41,1349694992
10,20,Ticks_Linear_8,222,1,48,39,1350234720
10,20,Ticks_Linear_8,223,5,42,127,1350247656
10,20,Ticks_Linear_8,224,1,48,38,1350843436
10,20,Ticks_Linear_8,225,5,42,127,1350847892
10,20,Ticks_Linear_8,226,5,42,127,1351447984
10,20,Ticks_Linear_8,227,1,48,41,1351476448
10,20,Ticks_Linear_8,228,5,42,127,1352048096
10,20,Ticks_Linear_8,229,1,48,37,1352077460
10,20,Ticks_Linear_8,230,5,42,127,1352637944
10,20,Ticks_Linear_8,231,1,48,36,1352667156
10,20,Ticks_Linear_8,232,1,48,31,1353216896
10,20,Ticks_Linear_8,233,5,42,127,1353227632
10,20,Ticks_Linear_8,234,1,48,33,1353778460
10,20,Ticks_Linear_8,235,5,42,127,1353817452
10,20,Ticks_Linear_8,236,1,48,34,1354341036
10,20,Ticks_Linear_8,237,5,42,127,1354408216
10,20,Ticks_Linear_8,238,1,48,44,1354971924
10,20,Ticks_Linear_8,239,5,42,127,1354998212
10,20,Ticks_Linear_8,240,1,48,40,1355548168
10,20,Ticks_Linear_8,241,5,42,127,1355577888
10,20,Ticks_Linear_8,242,1,48,37,1356141320
10,20,Ticks_Linear_8,243,5,42,127,1356158264
10,20,Ticks_Linear_8,244,1,48,41,1356719804
10,20,Ticks_Linear_8,245,5,42,127,1356738016
10,20,Ticks_Linear_8,246,1,48,38,1357278552
10,20,Ticks_Linear_8,247,5,42,127,1357317616
10,20,Ticks_Linear_8,248,1,48,39,1357881176
10,20,Ticks_Linear_8,249,5,42,127,1357897968
10,20,Ticks_Linear_8,250,1,48,37,1358447204
10,20,Ticks_Linear_8,251,5,42,127,1358467728
10,20,Ticks_Linear_8,252,1,48,34,1359015132
10,20,Ticks_Linear_8,253,5,42,127,1359038056
10,20,Ticks_Linear_8,254,1,48,42,1359571044
10,20,Ticks_Linear_8,255,5,42,127,1359608164
10,20,Ticks_Linear_8,256,1,48,40,1360145104
10,20,Ticks_Linear_8,257,5,42,127,1360177748
10,20,Ticks_Linear_8,258,5,42,127,1360747892
10,20,Ticks_Linear_8,259,1,48,38,1360752648
10,20,Ticks_Linear_8,260,5,42,127,1361307980
10,20,Ticks_Linear_8,261,1,48,42,1361309168
10,20,Ticks_Linear_8,262,1,48,46,1361857556
10,20,Ticks_Linear_8,263,5,42,127,1361868136
10,20,Ticks_Linear_8,264,5,42,127,1362428232
10,20,Ticks_Linear_8,265,1,48,45,1362429420
10,20,Ticks_Linear_8,266,5,42,127,1362988620
10,20,Ticks_Linear_8,267,1,48,48,1363005944
10,20,Ticks_Linear_8,268,5,42,127,1363547664
10,20,Ticks_Linear_8,269,1,48,47,1363557836
10,20,Ticks_Linear_8,270,5,42,127,1364098508
10,20,Ticks_Linear_8,271,1,48,39,1364130480
10,20,Ticks_Linear_8,272,1,48,37,1364591484
10,20,Ticks_Linear_8,273,5,42,127,1364657544
10,20,Ticks_Linear_8,274,1,48,39,1365150980
10,20,Ticks_Linear_8,275,5,42,127,1365208660
10,20,Ticks_Linear_8,276,1,48,33,1365711516
10,20,Ticks_Linear_8,277,5,42,127,1365767556
10,20,Ticks_Linear_8,278,1,48,44,1366290820
10,20,Ticks_Linear_8,279,5,42,127,1366317556
10,20,Ticks_Linear_8,280,1,48,38,1366851132
10,20,Ticks_Linear_8,281,5,42,127,1366858056
10,20,Ticks_Linear_8,282,5,42,127,1367397844
10,20,Ticks_Linear_8,283,1,48,41,1367403044
10,20,Ticks_Linear_8,284,5,42,127,1367938492
10,20,Ticks_Linear_8,285,1,48,40,1367958808
10,20,Ticks_Linear_8,286,5,42,127,1368488416
10,20,Ticks_Linear_8,287,1,48,40,1368501024
10,20,Ticks_Linear_8,288,1,48,40,1368993056
10,20,Ticks_Linear_8,289,5,42,127,1369027864
10,20,Ticks_Linear_8,290,1,48,36,1369547616
10,20,Ticks_Linear_8,291,5,42,127,1369558496
10,20,Ticks_Linear_8,292,5,42,127,1370087720
10,20,Ticks_Linear_8,293,1,48,33,1370108776
10,20,Ticks_Linear_8,294,5,42,127,1370618200
10,20,Ticks_Linear_8,295,1,48,40,1370642696
10,20,Ticks_Linear_8,296,1,48,37,1371142208
10,20,Ticks_Linear_8,297,5,42,127,1371147560
10,20,Ticks_Linear_8,298,1,48,37,1371660656
10,20,Ticks_Linear_8,299,5,42,127,1371678044
10,20,Ticks_Linear_8,300,5,42,127,1372198144
10,20,Ticks_Linear_8,301,1,48,37,1372236100
10,20,Ticks_Linear_8,302,1,48,35,1372698004
10,20,Ticks_Linear_8,303,5,42,127,1372717556
10,20,Ticks_Linear_8,304,1,48,39,1373207252
10,20,Ticks_Linear_8,305,5,42,127,1373237868
10,20,Ticks_Linear_8,306,1,48,32,1373733396
10,20,Ticks_Linear_8,307,5,42,127,1373758112
10,20,Ticks_Linear_8,308,1,48,40,1374225000
10,20,Ticks_Linear_8,309,5,42,127,1374278132
10,20,Ticks_Linear_8,310,1,48,35,1374748616
10,20,Ticks_Linear_8,311,5,42,127,1374788132
10,20,Ticks_Linear_8,312,1,48,37,1375282316
10,20,Ticks_Linear_8,313,5,42,127,1375298132
10,20,Ticks_Linear_8,314,1,48,40,1375798304
10,20,Ticks_Linear_8,315,5,42,127,1375807984
10,20,Ticks_Linear_8,316,5,42,127,1376317840
10,20,Ticks_Linear_8,317,1,48,40,1376328736
10,20,Ticks_Linear_8,318,1,48,43,1376817404
10,20,Ticks_Linear_8,319,5,42,127,1376827984
10,20,Ticks_Linear_8,320,5,42,127,1377327672
10,20,Ticks_Linear_8,321,1,48,45,1377330712
10,20,Ticks_Linear_8,322,1,48,38,1377802408
10,20,Ticks_Linear_8,323,5,42,127,1377828244
10,20,Ticks_Linear_8,324,1,48,43,1378311808
10,20,Ticks_Linear_8,325,5,42,127,1378327852
10,20,Ticks_Linear_8,326,1,48,45,1378789888
10,20,Ticks_Linear_8,327,5,42,127,1378827684
10,20,Ticks_Linear_8,328,1,48,43,1379319924
10,20,Ticks_Linear_8,329,5,42,127,1379328488
10,20,Ticks_Linear_8,330,1,48,46,1379794924
10,20,Ticks_Linear_8,331,5,42,127,1379817780
10,20,Ticks_Linear_8,332,5,42,127,1380308272
10,20,Ticks_Linear_8,333,1,48,39,1380324016
10,20,Ticks_Linear_8,334,1,48,42,1380773140
10,20,Ticks_Linear_8,335,5,42,127,1380797856
10,20,Ticks_Linear_8,336,1,48,40,1381262432
10,20,Ticks_Linear_8,337,5,42,127,1381288196
10,20,Ticks_Linear_8,338,1,48,39,1381743196
10,20,Ticks_Linear_8,339,5,42,127,1381777784
10,20,Ticks_Linear_8,0,9999,9999,9999,9999,1271185520
10,20,Ticks_Linear_8,1,9999,9999,9999,9999,1272005752
10,20,Ticks_Linear_8,2,9999,9999,9999,9999,1272825964
10,20,Ticks_Linear_8,3,9999,9999,9999,9999,1273645128
10,20,Ticks_Linear_8,4,9999,9999,9999,9999,1274465336
10,20,Ticks_Linear_8,5,9999,9999,9999,9999,1275275328
10,20,Ticks_Linear_8,6,9999,9999,9999,9999,1276085368
10,20,Ticks_Linear_8,7,9999,9999,9999,9999,1276895336
10,20,Ticks_Linear_8,8,9999,9999,9999,9999,1277705304
10,20,Ticks_Linear_8,9,9999,9999,9999,9999,1278515268
10,20,Ticks_Linear_8,10,9999,9999,9999,9999,1279316044
10,20,Ticks_Linear_8,11,9999,9999,9999,9999,1280115788
10,20,Ticks_Linear_8,12,9999,9999,9999,9999,1280915520
10,20,Ticks_Linear_8,13,9999,9999,9999,9999,1281715312
10,20,Ticks_Linear_8,14,9999,9999,9999,9999,1282516104
10,20,Ticks_Linear_8,15,9999,9999,9999,9999,1283305572
10,20,Ticks_Linear_8,16,9999,9999,9999,9999,1284096100
10,20,Ticks_Linear_8,17,9999,9999,9999,9999,1284895820
10,20,Ticks_Linear_8,18,9999,9999,9999,9999,1285685304
10,20,Ticks_Linear_8,19,9999,9999,9999,9999,1286475884
10,20,Ticks_Linear_8,20,9999,9999,9999,9999,1287255124
10,20,Ticks_Linear_8,21,9999,9999,9999,9999,1288035412
10,20,Ticks_Linear_8,22,9999,9999,9999,9999,1288815728
10,20,Ticks_Linear_8,23,9999,9999,9999,9999,1289596008
10,20,Ticks_Linear_8,24,9999,9999,9999,9999,1290375256
10,20,Ticks_Linear_8,25,9999,9999,9999,9999,1291145296
10,20,Ticks_Linear_8,26,9999,9999,9999,9999,1291915340
10,20,Ticks_Linear_8,27,9999,9999,9999,9999,1292685392
10,20,Ticks_Linear_8,28,9999,9999,9999,9999,1293455436
10,20,Ticks_Linear_8,29,9999,9999,9999,9999,1294225472
10,20,Ticks_Linear_8,30,9999,9999,9999,9999,1294985284
10,20,Ticks_Linear_8,31,9999,9999,9999,9999,1295745076
10,20,Ticks_Linear_8,32,9999,9999,9999,9999,1296505928
10,20,Ticks_Linear_8,33,9999,9999,9999,9999,1297265732
10,20,Ticks_Linear_8,34,9999,9999,9999,9999,1298025528
10,20,Ticks_Linear_8,35,9999,9999,9999,9999,1298775140
10,20,Ticks_Linear_8,36,9999,9999,9999,9999,1299525752
10,20,Ticks_Linear_8,37,9999,9999,9999,9999,1300275312
10,20,Ticks_Linear_8,38,9999,9999,9999,9999,1301025916
10,20,Ticks_Linear_8,39,9999,9999,9999,9999,1301775476
10,20,Ticks_Linear_8,40,9999,9999,9999,9999,1302515768
10,20,Ticks_Linear_8,41,9999,9999,9999,9999,1303255160
10,20,Ticks_Linear_8,42,9999,9999,9999,9999,1303995448
10,20,Ticks_Linear_8,43,9999,9999,9999,9999,1304735812
10,20,Ticks_Linear_8,44,9999,9999,9999,9999,1305475132
10,20,Ticks_Linear_8,45,9999,9999,9999,9999,1306205304
10,20,Ticks_Linear_8,46,9999,9999,9999,9999,1306935352
10,20,Ticks_Linear_8,47,9999,9999,9999,9999,1307665472
10,20,Ticks_Linear_8,48,9999,9999,9999,9999,1308395592
10,20,Ticks_Linear_8,49,9999,9999,9999,9999,1309125708
10,20,Ticks_Linear_8,50,9999,9999,9999,9999,1309845596
10,20,Ticks_Linear_8,51,9999,9999,9999,9999,1310565444
10,20,Ticks_Linear_8,52,9999,9999,9999,9999,1311285324
10,20,Ticks_Linear_8,53,9999,9999,9999,9999,1312005208
10,20,Ticks_Linear_8,54,9999,9999,9999,9999,1312726128
10,20,Ticks_Linear_8,55,9999,9999,9999,9999,1313446016
10,20,Ticks_Linear_8,56,9999,9999,9999,9999,1314155648
10,20,Ticks_Linear_8,57,9999,9999,9999,9999,1314865244
10,20,Ticks_Linear_8,58,9999,9999,9999,9999,1315575924
10,20,Ticks_Linear_8,59,9999,9999,9999,9999,1316285564
10,20,Ticks_Linear_8,60,9999,9999,9999,9999,1316985932
10,20,Ticks_Linear_8,61,9999,9999,9999,9999,1317685304
10,20,Ticks_Linear_8,62,9999,9999,9999,9999,1318385736
10,20,Ticks_Linear_8,63,9999,9999,9999,9999,1319085140
10,20,Ticks_Linear_8,64,9999,9999,9999,9999,1319785572
10,20,Ticks_Linear_8,65,9999,9999,9999,9999,1320475748
10,20,Ticks_Linear_8,66,9999,9999,9999,9999,1321165944
10,20,Ticks_Linear_8,67,9999,9999,9999,9999,1321856076
10,20,Ticks_Linear_8,68,9999,9999,9999,9999,1322555516
10,20,Ticks_Linear_8,69,9999,9999,9999,9999,1323245640
10,20,Ticks_Linear_8,70,9999,9999,9999,9999,1323925600
10,20,Ticks_Linear_8,71,9999,9999,9999,9999,1324605532
10,20,Ticks_Linear_8,72,9999,9999,9999,9999,1325285492
10,20,Ticks_Linear_8,73,9999,9999,9999,9999,1325965376
10,20,Ticks_Linear_8,74,9999,9999,9999,9999,1326645308
10,20,Ticks_Linear_8,75,9999,9999,9999,9999,1327316068
10,20,Ticks_Linear_8,76,9999,9999,9999,9999,1327985784
10,20,Ticks_Linear_8,77,9999,9999,9999,9999,1328655472
10,20,Ticks_Linear_8,78,9999,9999,9999,9999,1329325112
10,20,Ticks_Linear_8,79,9999,9999,9999,9999,1329995848
10,20,Ticks_Linear_8,80,9999,9999,9999,9999,1330655316
10,20,Ticks_Linear_8,81,9999,9999,9999,9999,1331315832
10,20,Ticks_Linear_8,82,9999,9999,9999,9999,1331975288
10,20,Ticks_Linear_8,83,9999,9999,9999,9999,1332635724
10,20,Ticks_Linear_8,84,9999,9999,9999,9999,1333295172
10,20,Ticks_Linear_8,85,9999,9999,9999,9999,1333945448
10,20,Ticks_Linear_8,86,9999,9999,9999,9999,1334595708
10,20,Ticks_Linear_8,87,9999,9999,9999,9999,1335245884
10,20,Ticks_Linear_8,88,9999,9999,9999,9999,1335895160
10,20,Ticks_Linear_8,89,9999,9999,9999,9999,1336545368
10,20,Ticks_Linear_8,90,9999,9999,9999,9999,1337185376
10,20,Ticks_Linear_8,91,9999,9999,9999,9999,1337825380
10,20,Ticks_Linear_8,92,9999,9999,9999,9999,1338465388
10,20,Ticks_Linear_8,93,9999,9999,9999,9999,1339105400
10,20,Ticks_Linear_8,94,9999,9999,9999,9999,1339745336
10,20,Ticks_Linear_8,95,9999,9999,9999,9999,1340375100
10,20,Ticks_Linear_8,96,9999,9999,9999,9999,1341005920
10,20,Ticks_Linear_8,97,9999,9999,9999,9999,1341635636
10,20,Ticks_Linear_8,98,9999,9999,9999,9999,1342265420
10,20,Ticks_Linear_8,99,9999,9999,9999,9999,1342895216
10,20,Ticks_Linear_8,100,9999,9999,9999,9999,1343515712
10,20,Ticks_Linear_8,101,9999,9999,9999,9999,1344135300
10,20,Ticks_Linear_8,102,9999,9999,9999,9999,1344755764
10,20,Ticks_Linear_8,103,9999,9999,9999,9999,1345375292
10,20,Ticks_Linear_8,104,9999,9999,9999,9999,1345995860
10,20,Ticks_Linear_8,105,9999,9999,9999,9999,1346605144
10,20,Ticks_Linear_8,106,9999,9999,9999,9999,1347215420
10,20,Ticks_Linear_8,107,9999,9999,9999,9999,1347825752
10,20,Ticks_Linear_8,108,9999,9999,9999,9999,1348436076
10,20,Ticks_Linear_8,109,9999,9999,9999,9999,1349045316
10,20,Ticks_Linear_8,110,9999,9999,9999,9999,1349645404
10,20,Ticks_Linear_8,111,9999,9999,9999,9999,1350245432
10,20,Ticks_Linear_8,112,9999,9999,9999,9999,1350845520
10,20,Ticks_Linear_8,113,9999,9999,9999,9999,1351445612
10,20,Ticks_Linear_8,114,9999,9999,9999,9999,1352045648
10,20,Ticks_Linear_8,115,9999,9999,9999,9999,1352635496
10,20,Ticks_Linear_8,116,9999,9999,9999,9999,1353225332
10,20,Ticks_Linear_8,117,9999,9999,9999,9999,1353815152
10,20,Ticks_Linear_8,118,9999,9999,9999,9999,1354405996
10,20,Ticks_Linear_8,119,9999,9999,9999,9999,1354995768
10,20,Ticks_Linear_8,120,9999,9999,9999,9999,1355575368
10,20,Ticks_Linear_8,121,9999,9999,9999,9999,1356155968
10,20,Ticks_Linear_8,122,9999,9999,9999,9999,1356735568
10,20,Ticks_Linear_8,123,9999,9999,9999,9999,1357315172
10,20,Ticks_Linear_8,124,9999,9999,9999,9999,1357895744
10,20,Ticks_Linear_8,125,9999,9999,9999,9999,1358465132
10,20,Ticks_Linear_8,126,9999,9999,9999,9999,1359035464
10,20,Ticks_Linear_8,127,9999,9999,9999,9999,1359605868
10,20,Ticks_Linear_8,128,9999,9999,9999,9999,1360175228
10,20,Ticks_Linear_8,129,9999,9999,9999,9999,1360745592
10,20,Ticks_Linear_8,130,9999,9999,9999,9999,1361305680
10,20,Ticks_Linear_8,131,9999,9999,9999,9999,1361865840
10,20,Ticks_Linear_8,132,9999,9999,9999,9999,1362425936
10,20,Ticks_Linear_8,133,9999,9999,9999,9999,1362986100
10,20,Ticks_Linear_8,134,9999,9999,9999,9999,1363545144
10,20,Ticks_Linear_8,135,9999,9999,9999,9999,1364096060
10,20,Ticks_Linear_8,136,9999,9999,9999,9999,1364655172
10,20,Ticks_Linear_8,137,9999,9999,9999,9999,1365206140
10,20,Ticks_Linear_8,138,9999,9999,9999,9999,1365765184
10,20,Ticks_Linear_8,139,9999,9999,9999,9999,1366315108
10,20,Ticks_Linear_8,140,9999,9999,9999,9999,1366855760
10,20,Ticks_Linear_8,141,9999,9999,9999,9999,1367395396
10,20,Ticks_Linear_8,142,9999,9999,9999,9999,1367936120
10,20,Ticks_Linear_8,143,9999,9999,9999,9999,1368485968
10,20,Ticks_Linear_8,144,9999,9999,9999,9999,1369025640
10,20,Ticks_Linear_8,145,9999,9999,9999,9999,1369556052
10,20,Ticks_Linear_8,146,9999,9999,9999,9999,1370085496
10,20,Ticks_Linear_8,147,9999,9999,9999,9999,1370615904
10,20,Ticks_Linear_8,148,9999,9999,9999,9999,1371145336
10,20,Ticks_Linear_8,149,9999,9999,9999,9999,1371675748
10,20,Ticks_Linear_8,150,9999,9999,9999,9999,1372195920
10,20,Ticks_Linear_8,151,9999,9999,9999,9999,1372715108
10,20,Ticks_Linear_8,152,9999,9999,9999,9999,1373235276
10,20,Ticks_Linear_8,153,9999,9999,9999,9999,1373755516
10,20,Ticks_Linear_8,154,9999,9999,9999,9999,1374275684
10,20,Ticks_Linear_8,155,9999,9999,9999,9999,1374785612
10,20,Ticks_Linear_8,156,9999,9999,9999,9999,1375295612
10,20,Ticks_Linear_8,157,9999,9999,9999,9999,1375805540
10,20,Ticks_Linear_8,158,9999,9999,9999,9999,1376315468
10,20,Ticks_Linear_8,159,9999,9999,9999,9999,1376825460
10,20,Ticks_Linear_8,160,9999,9999,9999,9999,1377325152
10,20,Ticks_Linear_8,161,9999,9999,9999,9999,1377825872
10,20,Ticks_Linear_8,162,9999,9999,9999,9999,1378325632
10,20,Ticks_Linear_8,163,9999,9999,9999,9999,1378825312
10,20,Ticks_Linear_8,164,9999,9999,9999,9999,1379326040
10,20,Ticks_Linear_8,165,9999,9999,9999,9999,1379815484
10,20,Ticks_Linear_8,166,9999,9999,9999,9999,1380305976
10,20,Ticks_Linear_8,167,9999,9999,9999,9999,1380795484
10,20,Ticks_Linear_8,168,9999,9999,9999,9999,1381285972
10,20,Ticks_Linear_8,169,9999,9999,9999,9999,1381775484
11,25,Jits_Pract_5,0,5,56,103,1450278428
11,25,Jits_Pract_5,1,5,63,98,1450281448
11,25,Jits_Pract_5,2,5,80,127,1450284636
11,25,Jits_Pract_5,0,5,56,103,1450777904
11,25,Jits_Pract_5,1,5,63,98,1450780992
11,25,Jits_Pract_5,2,5,80,127,1450784260
11,25,Jits_Pract_5,0,5,56,103,1451277624
11,25,Jits_Pract_5,1,5,80,127,1451287948
11,25,Jits_Pract_5,2,5,63,98,1451308448
11,25,Jits_Pract_5,3,1,48,19,1451358180
11,25,Jits_Pract_5,0,5,63,98,1451728428
11,25,Jits_Pract_5,1,5,80,127,1451757832
11,25,Jits_Pract_5,2,5,56,103,1451768384
11,25,Jits_Pract_5,3,1,48,36,1451817200
11,25,Jits_Pract_5,0,1,48,40,1452266032
11,25,Jits_Pract_5,1,5,80,127,1452288488
11,25,Jits_Pract_5,2,5,56,103,1452297700
11,25,Jits_Pract_5,3,5,63,98,1452328516
11,25,Jits_Pract_5,0,5,63,98,1452777744
11,25,Jits_Pract_5,1,5,56,103,1452807520
11,25,Jits_Pract_5,2,1,48,40,1452810408
11,25,Jits_Pract_5,3,5,80,127,1452817912
11,25,Jits_Pract_5,0,5,56,103,1453228540
11,25,Jits_Pract_5,1,5,63,98,1453277540
11,25,Jits_Pract_5,2,5,80,127,1453298408
11,25,Jits_Pract_5,3,1,48,36,1453326660
11,25,Jits_Pract_5,0,5,80,127,1453738360
11,25,Jits_Pract_5,1,5,63,98,1453787436
11,25,Jits_Pract_5,2,1,48,49,1453805420
11,25,Jits_Pract_5,3,5,56,103,1453827376
11,25,Jits_Pract_5,0,5,56,103,1454238312
11,25,Jits_Pract_5,1,5,63,98,1454267644
11,25,Jits_Pract_5,2,1,48,43,1454298432
11,25,Jits_Pract_5,3,5,80,127,1454338392
11,25,Jits_Pract_5,0,5,56,103,1454737744
11,25,Jits_Pract_5,1,1,48,40,1454785892
11,25,Jits_Pract_5,2,5,80,127,1454798396
11,25,Jits_Pract_5,3,5,63,98,1454828024
11,25,Jits_Pract_5,0,5,56,103,1455247788
11,25,Jits_Pract_5,1,5,63,98,1455257896
11,25,Jits_Pract_5,2,5,80,127,1455297916
11,25,Jits_Pract_5,3,1,48,41,1455326984
11,25,Jits_Pract_5,0,5,63,98,1455738384
11,25,Jits_Pract_5,1,1,48,46,1455789892
11,25,Jits_Pract_5,2,5,80,127,1455818340
11,25,Jits_Pract_5,3,5,56,103,1455828296
11,25,Jits_Pract_5,0,5,63,98,1456288064
11,25,Jits_Pract_5,1,1,48,44,1456302244
11,25,Jits_Pract_5,2,5,56,103,1456328148
11,25,Jits_Pract_5,3,5,80,127,1456331136
11,25,Jits_Pract_5,0,5,56,103,1456747828
11,25,Jits_Pract_5,1,5,63,98,1456758304
11,25,Jits_Pract_5,2,5,80,127,1456798100
11,25,Jits_Pract_5,3,1,48,44,1456816480
11,25,Jits_Pract_5,0,5,56,103,1457238324
11,25,Jits_Pract_5,1,5,63,98,1457241384
11,25,Jits_Pract_5,2,1,48,39,1457257424
11,25,Jits_Pract_5,3,5,80,127,1457259064
11,25,Jits_Pract_5,0,9999,9999,9999,9999,1450525748
11,25,Jits_Pract_5,1,9999,9999,9999,9999,1451025524
11,25,Jits_Pract_5,2,9999,9999,9999,9999,1451525224
11,25,Jits_Pract_5,3,9999,9999,9999,9999,1452025916
11,25,Jits_Pract_5,4,9999,9999,9999,9999,1452525632
11,25,Jits_Pract_5,5,9999,9999,9999,9999,1453025344
11,25,Jits_Pract_5,6,9999,9999,9999,9999,1453526100
11,25,Jits_Pract_5,7,9999,9999,9999,9999,1454036076
11,25,Jits_Pract_5,8,9999,9999,9999,9999,1454535804
11,25,Jits_Pract_5,9,9999,9999,9999,9999,1455035456
11,25,Jits_Pract_5,10,9999,9999,9999,9999,1455535180
11,25,Jits_Pract_5,11,9999,9999,9999,9999,1456035948
11,25,Jits_Pract_5,12,9999,9999,9999,9999,1456535656
11,25,Jits_Pract_5,13,9999,9999,9999,9999,1457035364
11,25,Jits_Pract_5,14,9999,9999,9999,9999,1457536120
12,24,Jits_Pract_8,0,5,56,103,1463737792
12,24,Jits_Pract_8,1,5,63,98,1463741112
12,24,Jits_Pract_8,2,5,80,127,1463744000
12,24,Jits_Pract_8,0,5,56,103,1464537580
12,24,Jits_Pract_8,1,5,63,98,1464540748
12,24,Jits_Pract_8,2,5,80,127,1464543788
12,24,Jits_Pract_8,0,5,80,127,1465277768
12,24,Jits_Pract_8,1,1,48,39,1465328080
12,24,Jits_Pract_8,2,5,63,98,1465367896
12,24,Jits_Pract_8,3,5,56,103,1465378224
12,24,Jits_Pract_8,0,5,56,103,1466097928
12,24,Jits_Pract_8,1,5,63,98,1466108404
12,24,Jits_Pract_8,2,1,48,40,1466185252
12,24,Jits_Pract_8,3,5,80,127,1466198524
12,24,Jits_Pract_8,0,5,63,98,1466867968
12,24,Jits_Pract_8,1,1,48,32,1466893812
12,24,Jits_Pract_8,2,5,80,127,1466897736
12,24,Jits_Pract_8,3,5,56,103,1466927584
12,24,Jits_Pract_8,0,5,56,103,1467667760
12,24,Jits_Pract_8,1,1,48,40,1467672592
12,24,Jits_Pract_8,2,5,80,127,1467768288
12,24,Jits_Pract_8,3,5,63,98,1467818700
12,24,Jits_Pract_8,0,5,56,103,1468467572
12,24,Jits_Pract_8,1,5,80,127,1468517716
12,24,Jits_Pract_8,2,5,63,98,1468557584
12,24,Jits_Pract_8,3,1,48,31,1468624776
12,24,Jits_Pract_8,0,5,80,127,1469298140
12,24,Jits_Pract_8,1,5,63,98,1469327764
12,24,Jits_Pract_8,2,1,48,13,1469359452
12,24,Jits_Pract_8,3,5,56,103,1469398664
12,24,Jits_Pract_8,0,1,48,24,1470111976
12,24,Jits_Pract_8,1,5,63,98,1470127416
12,24,Jits_Pract_8,2,5,56,103,1470158384
12,24,Jits_Pract_8,3,5,80,127,1470217684
12,24,Jits_Pract_8,0,5,56,103,1470867676
12,24,Jits_Pract_8,1,5,80,127,1470870964
12,24,Jits_Pract_8,2,1,48,30,1470939380
12,24,Jits_Pract_8,3,5,63,98,1470987572
12,24,Jits_Pract_8,0,5,56,103,1471747436
12,24,Jits_Pract_8,1,1,48,27,1471762140
12,24,Jits_Pract_8,2,5,80,127,1471788496
12,24,Jits_Pract_8,3,5,63,98,1471797556
12,24,Jits_Pract_8,0,5,56,103,1472508432
12,24,Jits_Pract_8,1,5,80,127,1472527588
12,24,Jits_Pract_8,2,1,48,31,1472549252
12,24,Jits_Pract_8,3,5,63,98,1472607636
12,24,Jits_Pract_8,0,5,80,127,1473297848
12,24,Jits_Pract_8,1,1,48,26,1473348760
12,24,Jits_Pract_8,2,5,56,103,1473398244
12,24,Jits_Pract_8,3,5,63,98,1473408348
12,24,Jits_Pract_8,0,5,63,98,1474067816
12,24,Jits_Pract_8,1,5,80,127,1474128480
12,24,Jits_Pract_8,2,5,56,103,1474137564
12,24,Jits_Pract_8,3,1,48,15,1474171040
12,24,Jits_Pract_8,0,5,56,103,1474867460
12,24,Jits_Pract_8,1,1,48,17,1474881792
12,24,Jits_Pract_8,2,5,63,98,1474938312
12,24,Jits_Pract_8,3,5,80,127,1474941668
12,24,Jits_Pract_8,0,9999,9999,9999,9999,1464135804
12,24,Jits_Pract_8,1,9999,9999,9999,9999,1464935540
12,24,Jits_Pract_8,2,9999,9999,9999,9999,1465735252
12,24,Jits_Pract_8,3,9999,9999,9999,9999,1466536032
12,24,Jits_Pract_8,4,9999,9999,9999,9999,1467335760
12,24,Jits_Pract_8,5,9999,9999,9999,9999,1468135484
12,24,Jits_Pract_8,6,9999,9999,9999,9999,1468935292
12,24,Jits_Pract_8,7,9999,9999,9999,9999,1469735996
12,24,Jits_Pract_8,8,9999,9999,9999,9999,1470535736
12,24,Jits_Pract_8,9,9999,9999,9999,9999,1471335544
12,24,Jits_Pract_8,10,9999,9999,9999,9999,1472135284
12,24,Jits_Pract_8,11,9999,9999,9999,9999,1472935992
12,24,Jits_Pract_8,12,9999,9999,9999,9999,1473735732
12,24,Jits_Pract_8,13,9999,9999,9999,9999,1474535536
12,24,Jits_Pract_8,14,9999,9999,9999,9999,1475335244
13,17,Jits_Phase_5,0,5,56,103,1500531152
13,17,Jits_Phase_5,1,5,63,98,1500534248
13,17,Jits_Phase_5,2,5,80,127,1500537440
13,17,Jits_Phase_5,0,5,56,103,1501030700
13,17,Jits_Phase_5,1,5,63,98,1501033720
13,17,Jits_Phase_5,2,5,80,127,1501037064
13,17,Jits_Phase_5,0,1,48,28,1501310096
13,17,Jits_Phase_5,1,5,56,103,1501530548
13,17,Jits_Phase_5,2,5,80,127,1501540580
13,17,Jits_Phase_5,3,5,63,98,1501561152
13,17,Jits_Phase_5,4,1,48,49,1501602256
13,17,Jits_Phase_5,0,5,63,98,1501980992
13,17,Jits_Phase_5,1,5,80,127,1502010692
13,17,Jits_Phase_5,2,5,56,103,1502020948
13,17,Jits_Phase_5,3,1,48,61,1502070160
13,17,Jits_Phase_5,0,5,80,127,1502541184
13,17,Jits_Phase_5,1,5,56,103,1502551536
13,17,Jits_Phase_5,2,1,48,55,1502572080
13,17,Jits_Phase_5,3,5,63,98,1502581004
13,17,Jits_Phase_5,0,5,63,98,1503030716
13,17,Jits_Phase_5,1,5,56,103,1503061236
13,17,Jits_Phase_5,2,5,80,127,1503070472
13,17,Jits_Phase_5,3,1,48,55,1503088308
13,17,Jits_Phase_5,0,5,56,103,1503481264
13,17,Jits_Phase_5,1,5,63,98,1503531308
13,17,Jits_Phase_5,2,5,80,127,1503550908
13,17,Jits_Phase_5,3,1,48,54,1503563220
13,17,Jits_Phase_5,0,5,80,127,1503981112
13,17,Jits_Phase_5,1,1,48,55,1504013844
13,17,Jits_Phase_5,2,5,63,98,1504031224
13,17,Jits_Phase_5,3,5,56,103,1504070944
13,17,Jits_Phase_5,0,5,56,103,1504480816
13,17,Jits_Phase_5,1,1,48,49,1504509752
13,17,Jits_Phase_5,2,5,63,98,1504511556
13,17,Jits_Phase_5,3,5,80,127,1504580968
13,17,Jits_Phase_5,0,5,56,103,1504981412
13,17,Jits_Phase_5,1,1,48,54,1505033212
13,17,Jits_Phase_5,2,5,80,127,1505040872
13,17,Jits_Phase_5,3,5,63,98,1505070572
13,17,Jits_Phase_5,0,5,56,103,1505491288
13,17,Jits_Phase_5,1,5,63,98,1505500868
13,17,Jits_Phase_5,2,1,48,46,1505509896
13,17,Jits_Phase_5,3,5,80,127,1505540728
13,17,Jits_Phase_5,0,5,63,98,1505980808
13,17,Jits_Phase_5,1,1,48,36,1506009956
13,17,Jits_Phase_5,2,5,80,127,1506060616
13,17,Jits_Phase_5,3,5,56,103,1506071016
13,17,Jits_Phase_5,0,1,48,45,1506505660
13,17,Jits_Phase_5,1,5,63,98,1506530824
13,17,Jits_Phase_5,2,5,56,103,1506570696
13,17,Jits_Phase_5,3,5,80,127,1506573904
13,17,Jits_Phase_5,0,5,56,103,1506990428
13,17,Jits_Phase_5,1,5,63,98,1507000828
13,17,Jits_Phase_5,2,1,48,17,1507016208
13,17,Jits_Phase_5,3,5,80,127,1507040692
13,17,Jits_Phase_5,0,5,56,103,1507481072
13,17,Jits_Phase_5,1,5,63,98,1507484060
13,17,Jits_Phase_5,2,1,48,41,1507490772
13,17,Jits_Phase_5,3,5,80,127,1507501640
13,17,Jits_Phase_5,0,1,48,44,1507946020
13,17,Jits_Phase_5,1,5,80,127,1507990928
13,17,Jits_Phase_5,2,5,56,103,1508001180
13,17,Jits_Phase_5,3,5,63,98,1508070876
13,17,Jits_Phase_5,0,5,63,98,1508481640
13,17,Jits_Phase_5,1,1,48,51,1508498360
13,17,Jits_Phase_5,2,5,56,103,1508500868
13,17,Jits_Phase_5,3,5,80,127,1508580672
13,17,Jits_Phase_5,0,5,56,103,1509000768
13,17,Jits_Phase_5,1,5,80,127,1509040792
13,17,Jits_Phase_5,2,5,63,98,1509050820
13,17,Jits_Phase_5,3,1,48,57,1509078252
13,17,Jits_Phase_5,0,5,80,127,1509491048
13,17,Jits_Phase_5,1,5,63,98,1509520672
13,17,Jits_Phase_5,2,5,56,103,1509560692
13,17,Jits_Phase_5,3,1,48,52,1509603740
13,17,Jits_Phase_5,0,5,56,103,1510011164
13,17,Jits_Phase_5,1,5,63,98,1510041012
13,17,Jits_Phase_5,2,1,48,45,1510080780
13,17,Jits_Phase_5,3,5,80,127,1510091048
13,17,Jits_Phase_5,0,5,80,127,1510510864
13,17,Jits_Phase_5,1,5,56,103,1510550960
13,17,Jits_Phase_5,2,5,63,98,1510561212
13,17,Jits_Phase_5,3,1,48,44,1510567536
13,17,Jits_Phase_5,0,5,80,127,1510991092
13,17,Jits_Phase_5,1,5,63,98,1511031136
13,17,Jits_Phase_5,2,1,48,48,1511056612
13,17,Jits_Phase_5,3,5,56,103,1511090668
13,17,Jits_Phase_5,0,5,56,103,1511490792
13,17,Jits_Phase_5,1,5,80,127,1511501044
13,17,Jits_Phase_5,2,5,63,98,1511581024
13,17,Jits_Phase_5,3,1,48,48,1511584432
13,17,Jits_Phase_5,0,5,80,127,1511990560
13,17,Jits_Phase_5,1,5,63,98,1512051024
13,17,Jits_Phase_5,2,5,56,103,1512080796
13,17,Jits_Phase_5,3,1,48,37,1512092512
13,17,Jits_Phase_5,0,5,56,103,1512491456
13,17,Jits_Phase_5,1,5,80,127,1512550724
13,17,Jits_Phase_5,2,5,63,98,1512590596
13,17,Jits_Phase_5,3,1,48,45,1512601264
13,17,Jits_Phase_5,0,5,56,103,1513041420
13,17,Jits_Phase_5,1,5,63,98,1513050576
13,17,Jits_Phase_5,2,5,80,127,1513053860
13,17,Jits_Phase_5,3,1,48,42,1513093404
13,17,Jits_Phase_5,0,5,80,127,1513490780
13,17,Jits_Phase_5,1,1,48,48,1513572972
13,17,Jits_Phase_5,2,5,63,98,1513580852
13,17,Jits_Phase_5,3,5,56,103,1513591404
13,17,Jits_Phase_5,0,5,56,103,1513990460
13,17,Jits_Phase_5,1,5,63,98,1513993556
13,17,Jits_Phase_5,2,5,80,127,1513996748
13,17,Jits_Phase_5,3,1,48,49,1514088824
13,17,Jits_Phase_5,0,5,80,127,1514510796
13,17,Jits_Phase_5,1,5,63,98,1514560764
13,17,Jits_Phase_5,2,1,48,43,1514570388
13,17,Jits_Phase_5,3,5,56,103,1514590628
13,17,Jits_Phase_5,0,5,56,103,1514990904
13,17,Jits_Phase_5,1,5,80,127,1515001304
13,17,Jits_Phase_5,2,5,63,98,1515070940
13,17,Jits_Phase_5,3,1,48,47,1515077792
13,17,Jits_Phase_5,0,5,56,103,1515501000
13,17,Jits_Phase_5,1,5,63,98,1515521276
13,17,Jits_Phase_5,2,5,80,127,1515580888
13,17,Jits_Phase_5,3,1,48,45,1515601132
13,17,Jits_Phase_5,0,5,80,127,1515981256
13,17,Jits_Phase_5,1,5,63,98,1516050672
13,17,Jits_Phase_5,2,5,56,103,1516071464
13,17,Jits_Phase_5,3,1,48,47,1516092084
13,17,Jits_Phase_5,0,5,80,127,1516501300
13,17,Jits_Phase_5,1,5,56,103,1516510508
13,17,Jits_Phase_5,2,5,63,98,1516520764
13,17,Jits_Phase_5,3,1,48,38,1516598356
13,17,Jits_Phase_5,0,5,80,127,1516990824
13,17,Jits_Phase_5,1,5,56,103,1517011544
13,17,Jits_Phase_5,2,1,48,48,1517057880
13,17,Jits_Phase_5,3,5,63,98,1517080952
13,17,Jits_Phase_5,0,5,56,103,1517500844
13,17,Jits_Phase_5,1,5,80,127,1517530620
13,17,Jits_Phase_5,2,5,63,98,1517550896
13,17,Jits_Phase_5,3,1,48,37,1517562912
13,17,Jits_Phase_5,0,5,63,98,1517991416
13,17,Jits_Phase_5,1,1,48,51,1518042996
13,17,Jits_Phase_5,2,5,56,103,1518050656
13,17,Jits_Phase_5,3,5,80,127,1518081400
13,17,Jits_Phase_5,0,5,63,98,1518480708
13,17,Jits_Phase_5,1,5,80,127,1518484064
13,17,Jits_Phase_5,2,1,48,50,1518559812
13,17,Jits_Phase_5,3,5,56,103,1518570828
13,17,Jits_Phase_5,0,5,56,103,1519001024
13,17,Jits_Phase_5,1,5,63,98,1519030652
13,17,Jits_Phase_5,2,1,48,42,1519061068
13,17,Jits_Phase_5,3,5,80,127,1519070512
13,17,Jits_Phase_5,0,5,63,98,1519500728
13,17,Jits_Phase_5,1,5,56,103,1519540672
13,17,Jits_Phase_5,2,1,48,50,1519556348
13,17,Jits_Phase_5,3,5,80,127,1519561388
13,17,Jits_Phase_5,0,5,63,98,1520010664
13,17,Jits_Phase_5,1,1,48,48,1520037332
13,17,Jits_Phase_5,2,5,56,103,1520050528
13,17,Jits_Phase_5,3,5,80,127,1520060632
13,17,Jits_Phase_5,0,5,80,127,1520491124
13,17,Jits_Phase_5,1,1,48,36,1520552280
13,17,Jits_Phase_5,2,5,63,98,1520560460
13,17,Jits_Phase_5,3,5,56,103,1520581108
13,17,Jits_Phase_5,0,5,56,103,1520981476
13,17,Jits_Phase_5,1,5,80,127,1521000784
13,17,Jits_Phase_5,2,5,63,98,1521040728
13,17,Jits_Phase_5,3,1,48,45,1521041692
13,17,Jits_Phase_5,0,5,63,98,1521491324
13,17,Jits_Phase_5,1,5,80,127,1521510728
13,17,Jits_Phase_5,2,1,48,46,1521532016
13,17,Jits_Phase_5,3,5,56,103,1521550664
13,17,Jits_Phase_5,0,5,63,98,1521991004
13,17,Jits_Phase_5,1,1,48,37,1521999808
13,17,Jits_Phase_5,2,5,56,103,1522010404
13,17,Jits_Phase_5,3,5,80,127,1522020580
13,17,Jits_Phase_5,0,5,80,127,1522490908
13,17,Jits_Phase_5,1,1,48,38,1522496040
13,17,Jits_Phase_5,2,5,56,103,1522511328
13,17,Jits_Phase_5,3,5,63,98,1522540904
13,17,Jits_Phase_5,0,1,48,39,1522986380
13,17,Jits_Phase_5,1,5,56,103,1523061300
13,17,Jits_Phase_5,2,5,80,127,1523064140
13,17,Jits_Phase_5,3,5,63,98,1523080608
13,17,Jits_Phase_5,0,5,63,98,1523481080
13,17,Jits_Phase_5,1,5,56,103,1523510560
13,17,Jits_Phase_5,2,5,80,127,1523571168
13,17,Jits_Phase_5,3,1,48,33,1523572724
13,17,Jits_Phase_5,0,1,48,30,1524054204
13,17,Jits_Phase_5,1,5,63,98,1524060664
13,17,Jits_Phase_5,2,5,56,103,1524070844
13,17,Jits_Phase_5,3,5,80,127,1524080948
13,17,Jits_Phase_5,0,5,56,103,1524521296
13,17,Jits_Phase_5,1,1,48,27,1524544004
13,17,Jits_Phase_5,2,5,80,127,1524551064
13,17,Jits_Phase_5,3,5,63,98,1524561240
13,17,Jits_Phase_5,0,1,48,26,1525030540
13,17,Jits_Phase_5,1,5,63,98,1525061080
13,17,Jits_Phase_5,2,5,56,103,1525071184
13,17,Jits_Phase_5,3,5,80,127,1525090812
13,17,Jits_Phase_5,0,5,56,103,1525491072
13,17,Jits_Phase_5,1,1,48,34,1525518948
13,17,Jits_Phase_5,2,5,63,98,1525550456
13,17,Jits_Phase_5,3,5,80,127,1525554032
13,17,Jits_Phase_5,0,5,80,127,1526011180
13,17,Jits_Phase_5,1,5,56,103,1526020460
13,17,Jits_Phase_5,2,1,48,20,1526041752
13,17,Jits_Phase_5,3,5,63,98,1526091060
13,17,Jits_Phase_5,0,5,80,127,1526500932
13,17,Jits_Phase_5,1,1,48,45,1526558952
13,17,Jits_Phase_5,2,5,56,103,1526571384
13,17,Jits_Phase_5,3,5,63,98,1526580592
13,17,Jits_Phase_5,0,5,63,98,1527041320
13,17,Jits_Phase_5,1,5,56,103,1527050824
13,17,Jits_Phase_5,2,1,48,24,1527068908
13,17,Jits_Phase_5,3,5,80,127,1527071020
13,17,Jits_Phase_5,0,5,80,127,1527490816
13,17,Jits_Phase_5,1,1,48,24,1527545680
13,17,Jits_Phase_5,2,5,63,98,1527551396
13,17,Jits_Phase_5,3,5,56,103,1527591192
13,17,Jits_Phase_5,0,5,56,103,1528030756
13,17,Jits_Phase_5,1,5,63,98,1528041012
13,17,Jits_Phase_5,2,1,48,27,1528075908
13,17,Jits_Phase_5,3,5,80,127,1528080948
13,17,Jits_Phase_5,0,5,56,103,1528491340
13,17,Jits_Phase_5,1,5,80,127,1528521040
13,17,Jits_Phase_5,2,1,48,33,1528528484
13,17,Jits_Phase_5,3,5,63,98,1528571148
13,17,Jits_Phase_5,0,1,48,28,1529030152
13,17,Jits_Phase_5,1,5,56,103,1529031944
13,17,Jits_Phase_5,2,5,63,98,1529071064
13,17,Jits_Phase_5,3,5,80,127,1529074572
13,17,Jits_Phase_5,0,1,48,27,1529519040
13,17,Jits_Phase_5,1,5,56,103,1529530656
13,17,Jits_Phase_5,2,5,63,98,1529540836
13,17,Jits_Phase_5,3,5,80,127,1529560584
13,17,Jits_Phase_5,0,5,56,103,1529990780
13,17,Jits_Phase_5,1,5,80,127,1529993692
13,17,Jits_Phase_5,2,1,48,34,1529998764
13,17,Jits_Phase_5,3,5,63,98,1530030568
13,17,Jits_Phase_5,0,1,48,35,1530488036
13,17,Jits_Phase_5,1,5,63,98,1530531148
13,17,Jits_Phase_5,2,5,56,103,1530560924
13,17,Jits_Phase_5,3,5,80,127,1530581928
13,17,Jits_Phase_5,0,1,48,31,1530979736
13,17,Jits_Phase_5,1,5,80,127,1531001144
13,17,Jits_Phase_5,2,5,56,103,1531010356
13,17,Jits_Phase_5,3,5,63,98,1531020532
13,17,Jits_Phase_5,0,1,48,27,1531479712
13,17,Jits_Phase_5,1,5,56,103,1531500900
13,17,Jits_Phase_5,2,5,80,127,1531540772
13,17,Jits_Phase_5,3,5,63,98,1531570620
13,17,Jits_Phase_5,0,1,48,25,1532007808
13,17,Jits_Phase_5,1,5,63,98,1532010908
13,17,Jits_Phase_5,2,5,80,127,1532021164
13,17,Jits_Phase_5,3,5,56,103,1532031340
13,17,Jits_Phase_5,0,1,48,33,1532495796
13,17,Jits_Phase_5,1,5,56,103,1532501240
13,17,Jits_Phase_5,2,5,63,98,1532571104
13,17,Jits_Phase_5,3,5,80,127,1532581132
13,17,Jits_Phase_5,0,1,48,24,1532997728
13,17,Jits_Phase_5,1,5,80,127,1533011520
13,17,Jits_Phase_5,2,5,56,103,1533020656
13,17,Jits_Phase_5,3,5,63,98,1533070696
13,17,Jits_Phase_5,0,1,48,33,1533509440
13,17,Jits_Phase_5,1,5,80,127,1533521500
13,17,Jits_Phase_5,2,5,56,103,1533580696
13,17,Jits_Phase_5,3,5,63,98,1533611500
13,17,Jits_Phase_5,0,5,56,103,1534020972
13,17,Jits_Phase_5,1,5,80,127,1534024032
13,17,Jits_Phase_5,2,1,48,27,1534026776
13,17,Jits_Phase_5,3,5,63,98,1534061008
13,17,Jits_Phase_5,0,5,56,103,1534551496
13,17,Jits_Phase_5,1,1,48,52,1534556256
13,17,Jits_Phase_5,2,5,63,98,1534581040
13,17,Jits_Phase_5,3,5,80,127,1534591444
13,17,Jits_Phase_5,0,1,48,38,1535042768
13,17,Jits_Phase_5,1,5,63,98,1535061588
13,17,Jits_Phase_5,2,5,80,127,1535070648
13,17,Jits_Phase_5,3,5,56,103,1535080752
13,17,Jits_Phase_5,0,5,80,127,1535510916
13,17,Jits_Phase_5,1,1,48,41,1535534372
13,17,Jits_Phase_5,2,5,56,103,1535561100
13,17,Jits_Phase_5,3,5,63,98,1535564236
13,17,Jits_Phase_5,0,1,48,16,1536008784
13,17,Jits_Phase_5,1,5,56,103,1536041560
13,17,Jits_Phase_5,2,5,80,127,1536060868
13,17,Jits_Phase_5,3,5,63,98,1536070972
13,17,Jits_Phase_5,0,5,63,98,1536520536
13,17,Jits_Phase_5,1,1,48,35,1536522396
13,17,Jits_Phase_5,2,5,56,103,1536551496
13,17,Jits_Phase_5,3,5,80,127,1536570652
13,17,Jits_Phase_5,0,1,48,29,1537014120
13,17,Jits_Phase_5,1,5,56,103,1537030456
13,17,Jits_Phase_5,2,5,80,127,1537040856
13,17,Jits_Phase_5,3,5,63,98,1537111324
13,17,Jits_Phase_5,0,1,48,36,1537488072
13,17,Jits_Phase_5,1,5,63,98,1537520944
13,17,Jits_Phase_5,2,5,80,127,1537561036
13,17,Jits_Phase_5,3,5,56,103,1537600816
13,17,Jits_Phase_5,0,1,48,42,1538006828
13,17,Jits_Phase_5,1,5,56,103,1538031244
13,17,Jits_Phase_5,2,5,63,98,1538041348
13,17,Jits_Phase_5,3,5,80,127,1538060580
13,17,Jits_Phase_5,0,1,48,34,1538540180
13,17,Jits_Phase_5,1,5,63,98,1538570644
13,17,Jits_Phase_5,2,5,80,127,1538591440
13,17,Jits_Phase_5,3,5,56,103,1538610596
13,17,Jits_Phase_5,0,5,56,103,1539010804
13,17,Jits_Phase_5,1,1,48,37,1539073896
13,17,Jits_Phase_5,2,5,80,127,1539090684
13,17,Jits_Phase_5,3,5,63,98,1539101232
13,17,Jits_Phase_5,0,5,80,127,1539550520
13,17,Jits_Phase_5,1,5,63,98,1539560772
13,17,Jits_Phase_5,2,1,48,41,1539583036
13,17,Jits_Phase_5,3,5,56,103,1539590616
13,17,Jits_Phase_5,0,5,63,98,1540011328
13,17,Jits_Phase_5,1,5,80,127,1540051420
13,17,Jits_Phase_5,2,1,48,40,1540090664
13,17,Jits_Phase_5,3,5,56,103,1540110660
13,17,Jits_Phase_5,0,5,63,98,1540521264
13,17,Jits_Phase_5,1,5,56,103,1540570484
13,17,Jits_Phase_5,2,1,48,46,1540594760
13,17,Jits_Phase_5,3,5,80,127,1540601220
13,17,Jits_Phase_5,0,5,80,127,1541021244
13,17,Jits_Phase_5,1,5,63,98,1541031348
13,17,Jits_Phase_5,2,5,56,103,1541100912
13,17,Jits_Phase_5,3,1,48,38,1541107608
13,17,Jits_Phase_5,0,1,48,41,1541570284
13,17,Jits_Phase_5,1,5,80,127,1541581152
13,17,Jits_Phase_5,2,5,56,103,1541591404
13,17,Jits_Phase_5,3,5,63,98,1541594536
13,17,Jits_Phase_5,0,5,56,103,1542020336
13,17,Jits_Phase_5,1,5,80,127,1542041204
13,17,Jits_Phase_5,2,5,63,98,1542051384
13,17,Jits_Phase_5,3,1,48,34,1542065272
13,17,Jits_Phase_5,0,5,63,98,1542530356
13,17,Jits_Phase_5,1,1,48,40,1542553512
13,17,Jits_Phase_5,2,5,56,103,1542571268
13,17,Jits_Phase_5,3,5,80,127,1542590944
13,17,Jits_Phase_5,0,1,48,38,1542997172
13,17,Jits_Phase_5,1,5,63,98,1543031384
13,17,Jits_Phase_5,2,5,56,103,1543090684
13,17,Jits_Phase_5,3,5,80,127,1543093596
13,17,Jits_Phase_5,0,5,56,103,1543491028
13,17,Jits_Phase_5,1,5,80,127,1543511332
13,17,Jits_Phase_5,2,5,63,98,1543551276
13,17,Jits_Phase_5,3,1,48,36,1543555880
13,17,Jits_Phase_5,0,5,56,103,1544021488
13,17,Jits_Phase_5,1,5,63,98,1544040944
13,17,Jits_Phase_5,2,1,48,36,1544051348
13,17,Jits_Phase_5,3,5,80,127,1544052912
13,17,Jits_Phase_5,0,5,80,127,1544491400
13,17,Jits_Phase_5,1,5,56,103,1544521320
13,17,Jits_Phase_5,2,1,48,26,1544556916
13,17,Jits_Phase_5,3,5,63,98,1544561284
13,17,Jits_Phase_5,0,5,80,127,1545001192
13,17,Jits_Phase_5,1,5,56,103,1545020872
13,17,Jits_Phase_5,2,1,48,33,1545028312
13,17,Jits_Phase_5,3,5,63,98,1545081248
13,17,Jits_Phase_5,0,5,56,103,1545511208
13,17,Jits_Phase_5,1,1,48,37,1545512172
13,17,Jits_Phase_5,2,5,80,127,1545530952
13,17,Jits_Phase_5,3,5,63,98,1545591116
13,17,Jits_Phase_5,0,5,80,127,1545990488
13,17,Jits_Phase_5,1,1,48,40,1545997184
13,17,Jits_Phase_5,2,5,56,103,1546000884
13,17,Jits_Phase_5,3,5,63,98,1546040828
13,17,Jits_Phase_5,0,5,63,98,1546491380
13,17,Jits_Phase_5,1,1,48,38,1546495020
13,17,Jits_Phase_5,2,5,56,103,1546531168
13,17,Jits_Phase_5,3,5,80,127,1546534452
13,17,Jits_Phase_5,0,1,48,36,1546983988
13,17,Jits_Phase_5,1,5,63,98,1547010348
13,17,Jits_Phase_5,2,5,80,127,1547051264
13,17,Jits_Phase_5,3,5,56,103,1547081024
13,17,Jits_Phase_5,0,5,56,103,1547500912
13,17,Jits_Phase_5,1,1,48,24,1547503656
13,17,Jits_Phase_5,2,5,63,98,1547511236
13,17,Jits_Phase_5,3,5,80,127,1547540788
13,17,Jits_Phase_5,0,5,80,127,1547991340
13,17,Jits_Phase_5,1,1,48,39,1548013676
13,17,Jits_Phase_5,2,5,63,98,1548060968
13,17,Jits_Phase_5,3,5,56,103,1548071148
13,17,Jits_Phase_5,0,5,63,98,1548491188
13,17,Jits_Phase_5,1,1,48,28,1548494228
13,17,Jits_Phase_5,2,5,56,103,1548560896
13,17,Jits_Phase_5,3,5,80,127,1548570924
13,17,Jits_Phase_5,0,5,63,98,1548971284
13,17,Jits_Phase_5,1,5,56,103,1548991032
13,17,Jits_Phase_5,2,1,48,41,1549008952
13,17,Jits_Phase_5,3,5,80,127,1549030896
13,17,Jits_Phase_5,0,5,56,103,1549450700
13,17,Jits_Phase_5,1,5,63,98,1549460804
13,17,Jits_Phase_5,2,1,48,27,1549478864
13,17,Jits_Phase_5,3,5,80,127,1549540976
13,17,Jits_Phase_5,0,5,63,98,1549951296
13,17,Jits_Phase_5,1,1,48,41,1549954112
13,17,Jits_Phase_5,2,5,56,103,1549981060
13,17,Jits_Phase_5,3,5,80,127,1550020856
13,17,Jits_Phase_5,0,1,48,41,1550437996
13,17,Jits_Phase_5,1,5,56,103,1550451120
13,17,Jits_Phase_5,2,5,63,98,1550491064
13,17,Jits_Phase_5,3,5,80,127,1550530936
13,17,Jits_Phase_5,0,1,48,47,1550930964
13,17,Jits_Phase_5,1,5,80,127,1550950732
13,17,Jits_Phase_5,2,5,56,103,1551030604
13,17,Jits_Phase_5,3,5,63,98,1551040780
13,17,Jits_Phase_5,0,1,48,40,1551476116
13,17,Jits_Phase_5,1,5,56,103,1551490432
13,17,Jits_Phase_5,2,5,63,98,1551493716
13,17,Jits_Phase_5,3,5,80,127,1551500836
13,17,Jits_Phase_5,0,1,48,44,1551945324
13,17,Jits_Phase_5,1,5,56,103,1552010532
13,17,Jits_Phase_5,2,5,63,98,1552031104
13,17,Jits_Phase_5,3,5,80,127,1552041488
13,17,Jits_Phase_5,0,1,48,43,1552461852
13,17,Jits_Phase_5,1,5,63,98,1552471472
13,17,Jits_Phase_5,2,5,80,127,1552480828
13,17,Jits_Phase_5,3,5,56,103,1552500956
13,17,Jits_Phase_5,0,5,63,98,1552971136
13,17,Jits_Phase_5,1,1,48,30,1552984372
13,17,Jits_Phase_5,2,5,56,103,1553050884
13,17,Jits_Phase_5,3,5,80,127,1553054024
13,17,Jits_Phase_5,0,1,48,43,1553457088
13,17,Jits_Phase_5,1,5,63,98,1553470960
13,17,Jits_Phase_5,2,5,56,103,1553491260
13,17,Jits_Phase_5,3,5,80,127,1553521108
13,17,Jits_Phase_5,0,1,48,30,1553960152
13,17,Jits_Phase_5,1,5,56,103,1553970792
13,17,Jits_Phase_5,2,5,63,98,1553990992
13,17,Jits_Phase_5,3,5,80,127,1554001396
13,17,Jits_Phase_5,0,1,48,32,1554439336
13,17,Jits_Phase_5,1,5,56,103,1554500984
13,17,Jits_Phase_5,2,5,63,98,1554530636
13,17,Jits_Phase_5,3,5,80,127,1554534948
13,17,Jits_Phase_5,0,5,56,103,1554950636
13,17,Jits_Phase_5,1,1,48,20,1554983740
13,17,Jits_Phase_5,2,5,63,98,1554990652
13,17,Jits_Phase_5,3,5,80,127,1555050812
13,17,Jits_Phase_5,0,1,48,32,1555442076
13,17,Jits_Phase_5,1,5,56,103,1555470600
13,17,Jits_Phase_5,2,5,63,98,1555481076
13,17,Jits_Phase_5,3,5,80,127,1555541520
13,17,Jits_Phase_5,0,1,48,36,1555929576
13,17,Jits_Phase_5,1,5,56,103,1555970508
13,17,Jits_Phase_5,2,5,80,127,1555990860
13,17,Jits_Phase_5,3,5,63,98,1556020484
13,17,Jits_Phase_5,0,1,48,32,1556413992
13,17,Jits_Phase_5,1,5,80,127,1556471092
13,17,Jits_Phase_5,2,5,56,103,1556481568
13,17,Jits_Phase_5,3,5,63,98,1556500724
13,17,Jits_Phase_5,0,1,48,31,1556941136
13,17,Jits_Phase_5,1,5,63,98,1556960680
13,17,Jits_Phase_5,2,5,80,127,1557040624
13,17,Jits_Phase_5,3,5,56,103,1557050652
13,17,Jits_Phase_5,0,1,48,35,1557432292
13,17,Jits_Phase_5,1,5,80,127,1557550408
13,17,Jits_Phase_5,2,5,56,103,1557571052
13,17,Jits_Phase_5,3,5,63,98,1557574260
13,17,Jits_Phase_5,0,5,63,98,1558040904
13,17,Jits_Phase_5,1,5,80,127,1558044408
13,17,Jits_Phase_5,2,1,48,39,1558045900
13,17,Jits_Phase_5,3,5,56,103,1558101432
13,17,Jits_Phase_5,0,5,56,103,1558521360
13,17,Jits_Phase_5,1,5,80,127,1558530344
13,17,Jits_Phase_5,2,1,48,36,1558558804
13,17,Jits_Phase_5,3,5,63,98,1558571476
13,17,Jits_Phase_5,0,5,56,103,1559000492
13,17,Jits_Phase_5,1,1,48,29,1559042276
13,17,Jits_Phase_5,2,5,63,98,1559060776
13,17,Jits_Phase_5,3,5,80,127,1559071180
13,17,Jits_Phase_5,0,1,48,38,1559497836
13,17,Jits_Phase_5,1,5,63,98,1559511480
13,17,Jits_Phase_5,2,5,80,127,1559551348
13,17,Jits_Phase_5,3,5,56,103,1559591368
13,17,Jits_Phase_5,0,5,56,103,1560011320
13,17,Jits_Phase_5,1,5,63,98,1560091432
13,17,Jits_Phase_5,2,5,80,127,1560094560
13,17,Jits_Phase_5,0,5,80,127,1560571312
13,17,Jits_Phase_5,1,1,48,23,1560573980
13,17,Jits_Phase_5,2,5,56,103,1560601080
13,17,Jits_Phase_5,3,5,63,98,1560603916
13,17,Jits_Phase_5,0,5,56,103,1561031292
13,17,Jits_Phase_5,1,5,80,127,1561050452
13,17,Jits_Phase_5,2,1,48,25,1561080640
13,17,Jits_Phase_5,3,5,63,98,1561090316
13,17,Jits_Phase_5,0,5,80,127,1561511328
13,17,Jits_Phase_5,1,5,63,98,1561530632
13,17,Jits_Phase_5,2,1,48,26,1561558048
13,17,Jits_Phase_5,3,5,56,103,1561591284
13,17,Jits_Phase_5,0,5,63,98,1562021496
13,17,Jits_Phase_5,1,5,56,103,1562030408
13,17,Jits_Phase_5,2,1,48,26,1562041824
13,17,Jits_Phase_5,3,5,80,127,1562080668
13,17,Jits_Phase_5,0,5,56,103,1562510640
13,17,Jits_Phase_5,1,5,63,98,1562531136
13,17,Jits_Phase_5,2,1,48,26,1562534180
13,17,Jits_Phase_5,3,5,80,127,1562541536
13,17,Jits_Phase_5,0,5,56,103,1563001512
13,17,Jits_Phase_5,1,5,63,98,1563004420
13,17,Jits_Phase_5,2,5,80,127,1563020664
13,17,Jits_Phase_5,3,1,48,23,1563040384
13,17,Jits_Phase_5,0,1,48,28,1563503256
13,17,Jits_Phase_5,1,5,63,98,1563540980
13,17,Jits_Phase_5,2,5,56,103,1563570532
13,17,Jits_Phase_5,3,5,80,127,1563601424
13,17,Jits_Phase_5,0,5,80,127,1564000740
13,17,Jits_Phase_5,1,1,48,24,1564025684
13,17,Jits_Phase_5,2,5,56,103,1564090784
13,17,Jits_Phase_5,3,5,63,98,1564093996
13,17,Jits_Phase_5,0,5,56,103,1564501476
13,17,Jits_Phase_5,1,5,80,127,1564504388
13,17,Jits_Phase_5,2,5,63,98,1564581208
13,17,Jits_Phase_5,3,1,48,27,1564597256
13,17,Jits_Phase_5,0,5,80,127,1565001212
13,17,Jits_Phase_5,1,5,63,98,1565060408
13,17,Jits_Phase_5,2,1,48,25,1565068912
13,17,Jits_Phase_5,3,5,56,103,1565091292
13,17,Jits_Phase_5,0,5,63,98,1565501212
13,17,Jits_Phase_5,1,5,80,127,1565511316
13,17,Jits_Phase_5,2,1,48,25,1565541908
13,17,Jits_Phase_5,3,5,56,103,1565580820
13,17,Jits_Phase_5,0,1,48,21,1566015072
13,17,Jits_Phase_5,1,5,56,103,1566061200
13,17,Jits_Phase_5,2,5,80,127,1566090676
13,17,Jits_Phase_5,3,5,63,98,1566141072
13,17,Jits_Phase_5,0,1,48,18,1566579556
13,17,Jits_Phase_5,1,5,63,98,1566650860
13,17,Jits_Phase_5,2,5,56,103,1566680768
13,17,Jits_Phase_5,3,5,80,127,1566683752
13,17,Jits_Phase_5,0,5,63,98,1567150544
13,17,Jits_Phase_5,1,5,80,127,1567171044
13,17,Jits_Phase_5,2,5,56,103,1567181224
13,17,Jits_Phase_5,3,1,48,27,1567189136
13,17,Jits_Phase_5,0,5,56,103,1567661376
13,17,Jits_Phase_5,1,5,63,98,1567664436
13,17,Jits_Phase_5,2,5,80,127,1567681124
13,17,Jits_Phase_5,3,1,48,26,1567707348
13,17,Jits_Phase_5,0,5,56,103,1568111036
13,17,Jits_Phase_5,1,5,63,98,1568121288
13,17,Jits_Phase_5,2,5,80,127,1568150988
13,17,Jits_Phase_5,3,1,48,21,1568169736
13,17,Jits_Phase_5,0,1,48,27,1568625728
13,17,Jits_Phase_5,1,5,63,98,1568631144
13,17,Jits_Phase_5,2,5,80,127,1568650748
13,17,Jits_Phase_5,3,5,56,103,1568690396
13,17,Jits_Phase_5,0,1,48,23,1569130208
13,17,Jits_Phase_5,1,5,56,103,1569160524
13,17,Jits_Phase_5,2,5,63,98,1569200468
13,17,Jits_Phase_5,3,5,80,127,1569203976
13,17,Jits_Phase_5,0,5,80,127,1569601100
13,17,Jits_Phase_5,1,5,56,103,1569640996
13,17,Jits_Phase_5,2,1,48,19,1569650620
13,17,Jits_Phase_5,3,5,63,98,1569690956
13,17,Jits_Phase_5,0,1,48,20,1570106524
13,17,Jits_Phase_5,1,5,56,103,1570161028
13,17,Jits_Phase_5,2,5,80,127,1570171204
13,17,Jits_Phase_5,3,5,63,98,1570201112
13,17,Jits_Phase_5,0,5,56,103,1570610440
13,17,Jits_Phase_5,1,1,48,24,1570636432
13,17,Jits_Phase_5,2,5,80,127,1570650404
13,17,Jits_Phase_5,3,5,63,98,1570700740
13,17,Jits_Phase_5,0,5,56,103,1571111260
13,17,Jits_Phase_5,1,1,48,22,1571133296
13,17,Jits_Phase_5,2,5,80,127,1571151348
13,17,Jits_Phase_5,3,5,63,98,1571201392
13,17,Jits_Phase_5,0,5,80,127,1571600760
13,17,Jits_Phase_5,1,1,48,23,1571632152
13,17,Jits_Phase_5,2,5,63,98,1571680812
13,17,Jits_Phase_5,3,5,56,103,1571690844
13,17,Jits_Phase_5,0,1,48,20,1572113288
13,17,Jits_Phase_5,1,5,80,127,1572150792
13,17,Jits_Phase_5,2,5,56,103,1572160824
13,17,Jits_Phase_5,3,5,63,98,1572181348
13,17,Jits_Phase_5,0,5,63,98,1572620720
13,17,Jits_Phase_5,1,1,48,24,1572644176
13,17,Jits_Phase_5,2,5,56,103,1572691192
13,17,Jits_Phase_5,3,5,80,127,1572694556
13,17,Jits_Phase_5,0,1,48,22,1573105400
13,17,Jits_Phase_5,1,5,80,127,1573111196
13,17,Jits_Phase_5,2,5,63,98,1573161312
13,17,Jits_Phase_5,3,5,56,103,1573201284
13,17,Jits_Phase_5,0,1,48,22,1573628796
13,17,Jits_Phase_5,1,5,63,98,1573650900
13,17,Jits_Phase_5,2,5,56,103,1573690920
13,17,Jits_Phase_5,3,5,80,127,1573701176
13,17,Jits_Phase_5,0,1,48,25,1574119232
13,17,Jits_Phase_5,1,5,63,98,1574141392
13,17,Jits_Phase_5,2,5,56,103,1574160700
13,17,Jits_Phase_5,3,5,80,127,1574181196
13,17,Jits_Phase_5,0,5,80,127,1574600996
13,17,Jits_Phase_5,1,5,56,103,1574611176
13,17,Jits_Phase_5,2,1,48,21,1574612660
13,17,Jits_Phase_5,3,5,63,98,1574630848
13,17,Jits_Phase_5,0,1,48,23,1575100884
13,17,Jits_Phase_5,1,5,63,98,1575130452
13,17,Jits_Phase_5,2,5,56,103,1575170696
13,17,Jits_Phase_5,3,5,80,127,1575201276
13,17,Jits_Phase_5,0,5,56,103,1575591404
13,17,Jits_Phase_5,1,1,48,30,1575615684
13,17,Jits_Phase_5,2,5,63,98,1575621024
13,17,Jits_Phase_5,3,5,80,127,1575650576
13,17,Jits_Phase_5,0,5,80,127,1576010992
13,17,Jits_Phase_5,1,5,56,103,1576080800
13,17,Jits_Phase_5,2,5,63,98,1576083712
13,17,Jits_Phase_5,3,1,48,22,1576088316
13,17,Jits_Phase_5,0,5,56,103,1576521000
13,17,Jits_Phase_5,1,1,48,26,1576570392
13,17,Jits_Phase_5,2,5,63,98,1576572184
13,17,Jits_Phase_5,3,5,80,127,1576600912
13,17,Jits_Phase_5,0,5,63,98,1577001252
13,17,Jits_Phase_5,1,5,80,127,1577004908
13,17,Jits_Phase_5,2,5,56,103,1577060744
13,17,Jits_Phase_5,3,1,48,28,1577061632
13,17,Jits_Phase_5,0,5,56,103,1577530692
13,17,Jits_Phase_5,1,5,80,127,1577540948
13,17,Jits_Phase_5,2,1,48,28,1577543912
13,17,Jits_Phase_5,3,5,63,98,1577591080
13,17,Jits_Phase_5,0,5,63,98,1578000696
13,17,Jits_Phase_5,1,5,56,103,1578011096
13,17,Jits_Phase_5,2,1,48,37,1578023336
13,17,Jits_Phase_5,3,5,80,127,1578040640
13,17,Jits_Phase_5,0,1,48,30,1578520240
13,17,Jits_Phase_5,1,5,63,98,1578531104
13,17,Jits_Phase_5,2,5,80,127,1578534612
13,17,Jits_Phase_5,3,5,56,103,1578560880
13,17,Jits_Phase_5,0,1,48,45,1578975852
13,17,Jits_Phase_5,1,5,63,98,1579051348
13,17,Jits_Phase_5,2,5,56,103,1579070932
13,17,Jits_Phase_5,3,5,80,127,1579073920
13,17,Jits_Phase_5,0,5,63,98,1579511092
13,17,Jits_Phase_5,1,1,48,20,1579513984
13,17,Jits_Phase_5,2,5,56,103,1579580724
13,17,Jits_Phase_5,3,5,80,127,1579601396
13,17,Jits_Phase_5,0,5,56,103,1580000684
13,17,Jits_Phase_5,1,1,48,40,1580001944
13,17,Jits_Phase_5,2,5,63,98,1580010856
13,17,Jits_Phase_5,3,5,80,127,1580101040
13,17,Jits_Phase_5,0,1,48,21,1580476708
13,17,Jits_Phase_5,1,5,56,103,1580520720
13,17,Jits_Phase_5,2,5,80,127,1580560740
13,17,Jits_Phase_5,3,5,63,98,1580571124
13,17,Jits_Phase_5,0,1,48,41,1580951344
13,17,Jits_Phase_5,1,5,56,103,1581040972
13,17,Jits_Phase_5,2,5,63,98,1581070880
13,17,Jits_Phase_5,3,5,80,127,1581101328
13,17,Jits_Phase_5,0,1,48,30,1581471376
13,17,Jits_Phase_5,1,5,80,127,1581500796
13,17,Jits_Phase_5,2,5,63,98,1581540668
13,17,Jits_Phase_5,3,5,56,103,1581561316
13,17,Jits_Phase_5,0,1,48,22,1581960888
13,17,Jits_Phase_5,1,5,56,103,1582040344
13,17,Jits_Phase_5,2,5,80,127,1582060980
13,17,Jits_Phase_5,3,5,63,98,1582081328
13,17,Jits_Phase_5,0,5,63,98,1582510420
13,17,Jits_Phase_5,1,5,56,103,1582520672
13,17,Jits_Phase_5,2,5,80,127,1582581332
13,17,Jits_Phase_5,0,1,48,38,1582983828
13,17,Jits_Phase_5,1,5,56,103,1583011160
13,17,Jits_Phase_5,2,5,63,98,1583080856
13,17,Jits_Phase_5,3,5,80,127,1583101204
13,17,Jits_Phase_5,0,1,48,19,1583454568
13,17,Jits_Phase_5,1,5,56,103,1583510920
13,17,Jits_Phase_5,2,5,63,98,1583540472
13,17,Jits_Phase_5,3,5,80,127,1583580476
13,17,Jits_Phase_5,0,1,48,20,1583960248
13,17,Jits_Phase_5,1,5,63,98,1584001332
13,17,Jits_Phase_5,2,5,56,103,1584050404
13,17,Jits_Phase_5,3,5,80,127,1584060640
13,17,Jits_Phase_5,0,1,48,29,1584478336
13,17,Jits_Phase_5,1,5,56,103,1584551276
13,17,Jits_Phase_5,2,5,63,98,1584600408
13,17,Jits_Phase_5,3,5,80,127,1584610588
13,17,Jits_Phase_5,0,1,48,25,1584986164
13,17,Jits_Phase_5,1,5,56,103,1585021272
13,17,Jits_Phase_5,2,5,63,98,1585030480
13,17,Jits_Phase_5,3,5,80,127,1585111392
13,17,Jits_Phase_5,0,9999,9999,9999,9999,1500778620
13,17,Jits_Phase_5,1,9999,9999,9999,9999,1501278320
13,17,Jits_Phase_5,2,9999,9999,9999,9999,1501779012
13,17,Jits_Phase_5,3,9999,9999,9999,9999,1502278768
13,17,Jits_Phase_5,4,9999,9999,9999,9999,1502778460
13,17,Jits_Phase_5,5,9999,9999,9999,9999,1503278164
13,17,Jits_Phase_5,6,9999,9999,9999,9999,1503778896
13,17,Jits_Phase_5,7,9999,9999,9999,9999,1504278596
13,17,Jits_Phase_5,8,9999,9999,9999,9999,1504778300
13,17,Jits_Phase_5,9,9999,9999,9999,9999,1505279044
13,17,Jits_Phase_5,10,9999,9999,9999,9999,1505778744
13,17,Jits_Phase_5,11,9999,9999,9999,9999,1506278516
13,17,Jits_Phase_5,12,9999,9999,9999,9999,1506778200
13,17,Jits_Phase_5,13,9999,9999,9999,9999,1507278928
13,17,Jits_Phase_5,14,9999,9999,9999,9999,1507778616
13,17,Jits_Phase_5,15,9999,9999,9999,9999,1508278392
13,17,Jits_Phase_5,16,9999,9999,9999,9999,1508779120
13,17,Jits_Phase_5,17,9999,9999,9999,9999,1509289052
13,17,Jits_Phase_5,18,9999,9999,9999,9999,1509788752
13,17,Jits_Phase_5,19,9999,9999,9999,9999,1510288452
13,17,Jits_Phase_5,20,9999,9999,9999,9999,1510788152
13,17,Jits_Phase_5,21,9999,9999,9999,9999,1511288896
13,17,Jits_Phase_5,22,9999,9999,9999,9999,1511788668
13,17,Jits_Phase_5,23,9999,9999,9999,9999,1512288368
13,17,Jits_Phase_5,24,9999,9999,9999,9999,1512789116
13,17,Jits_Phase_5,25,9999,9999,9999,9999,1513288784
13,17,Jits_Phase_5,26,9999,9999,9999,9999,1513788484
13,17,Jits_Phase_5,27,9999,9999,9999,9999,1514288236
13,17,Jits_Phase_5,28,9999,9999,9999,9999,1514788984
13,17,Jits_Phase_5,29,9999,9999,9999,9999,1515288684
13,17,Jits_Phase_5,30,9999,9999,9999,9999,1515778140
13,17,Jits_Phase_5,31,9999,9999,9999,9999,1516278888
13,17,Jits_Phase_5,32,9999,9999,9999,9999,1516778584
13,17,Jits_Phase_5,33,9999,9999,9999,9999,1517278284
13,17,Jits_Phase_5,34,9999,9999,9999,9999,1517779028
13,17,Jits_Phase_5,35,9999,9999,9999,9999,1518278728
13,17,Jits_Phase_5,36,9999,9999,9999,9999,1518778476
13,17,Jits_Phase_5,37,9999,9999,9999,9999,1519278164
13,17,Jits_Phase_5,38,9999,9999,9999,9999,1519778912
13,17,Jits_Phase_5,39,9999,9999,9999,9999,1520278600
13,17,Jits_Phase_5,40,9999,9999,9999,9999,1520778364
13,17,Jits_Phase_5,41,9999,9999,9999,9999,1521279032
13,17,Jits_Phase_5,42,9999,9999,9999,9999,1521778804
13,17,Jits_Phase_5,43,9999,9999,9999,9999,1522278484
13,17,Jits_Phase_5,44,9999,9999,9999,9999,1522778168
13,17,Jits_Phase_5,45,9999,9999,9999,9999,1523278956
13,17,Jits_Phase_5,46,9999,9999,9999,9999,1523778636
13,17,Jits_Phase_5,47,9999,9999,9999,9999,1524278328
13,17,Jits_Phase_5,48,9999,9999,9999,9999,1524788340
13,17,Jits_Phase_5,49,9999,9999,9999,9999,1525289016
13,17,Jits_Phase_5,50,9999,9999,9999,9999,1525788764
13,17,Jits_Phase_5,51,9999,9999,9999,9999,1526288468
13,17,Jits_Phase_5,52,9999,9999,9999,9999,1526788168
13,17,Jits_Phase_5,53,9999,9999,9999,9999,1527288916
13,17,Jits_Phase_5,54,9999,9999,9999,9999,1527788600
13,17,Jits_Phase_5,55,9999,9999,9999,9999,1528288376
13,17,Jits_Phase_5,56,9999,9999,9999,9999,1528789120
13,17,Jits_Phase_5,57,9999,9999,9999,9999,1529288812
13,17,Jits_Phase_5,58,9999,9999,9999,9999,1529788500
13,17,Jits_Phase_5,59,9999,9999,9999,9999,1530288252
13,17,Jits_Phase_5,60,9999,9999,9999,9999,1530788924
13,17,Jits_Phase_5,61,9999,9999,9999,9999,1531288680
13,17,Jits_Phase_5,62,9999,9999,9999,9999,1531788368
13,17,Jits_Phase_5,63,9999,9999,9999,9999,1532288124
13,17,Jits_Phase_5,64,9999,9999,9999,9999,1532808304
13,17,Jits_Phase_5,65,9999,9999,9999,9999,1533309008
13,17,Jits_Phase_5,66,9999,9999,9999,9999,1533808696
13,17,Jits_Phase_5,67,9999,9999,9999,9999,1534308444
13,17,Jits_Phase_5,68,9999,9999,9999,9999,1534808144
13,17,Jits_Phase_5,69,9999,9999,9999,9999,1535308868
13,17,Jits_Phase_5,70,9999,9999,9999,9999,1535808612
13,17,Jits_Phase_5,71,9999,9999,9999,9999,1536308312
13,17,Jits_Phase_5,72,9999,9999,9999,9999,1536809036
13,17,Jits_Phase_5,73,9999,9999,9999,9999,1537308796
13,17,Jits_Phase_5,74,9999,9999,9999,9999,1537808480
13,17,Jits_Phase_5,75,9999,9999,9999,9999,1538308164
13,17,Jits_Phase_5,76,9999,9999,9999,9999,1538808900
13,17,Jits_Phase_5,77,9999,9999,9999,9999,1539308660
13,17,Jits_Phase_5,78,9999,9999,9999,9999,1539808360
13,17,Jits_Phase_5,79,9999,9999,9999,9999,1540309108
13,17,Jits_Phase_5,80,9999,9999,9999,9999,1540808796
13,17,Jits_Phase_5,81,9999,9999,9999,9999,1541289036
13,17,Jits_Phase_5,82,9999,9999,9999,9999,1541788736
13,17,Jits_Phase_5,83,9999,9999,9999,9999,1542288496
13,17,Jits_Phase_5,84,9999,9999,9999,9999,1542788200
13,17,Jits_Phase_5,85,9999,9999,9999,9999,1543288928
13,17,Jits_Phase_5,86,9999,9999,9999,9999,1543788608
13,17,Jits_Phase_5,87,9999,9999,9999,9999,1544288308
13,17,Jits_Phase_5,88,9999,9999,9999,9999,1544789052
13,17,Jits_Phase_5,89,9999,9999,9999,9999,1545288800
13,17,Jits_Phase_5,90,9999,9999,9999,9999,1545788496
13,17,Jits_Phase_5,91,9999,9999,9999,9999,1546288192
13,17,Jits_Phase_5,92,9999,9999,9999,9999,1546788924
13,17,Jits_Phase_5,93,9999,9999,9999,9999,1547288688
13,17,Jits_Phase_5,94,9999,9999,9999,9999,1547788372
13,17,Jits_Phase_5,95,9999,9999,9999,9999,1548288072
13,17,Jits_Phase_5,96,9999,9999,9999,9999,1548788820
13,17,Jits_Phase_5,97,9999,9999,9999,9999,1549238396
13,17,Jits_Phase_5,98,9999,9999,9999,9999,1549739128
13,17,Jits_Phase_5,99,9999,9999,9999,9999,1550249072
13,17,Jits_Phase_5,100,9999,9999,9999,9999,1550748756
13,17,Jits_Phase_5,101,9999,9999,9999,9999,1551248444
13,17,Jits_Phase_5,102,9999,9999,9999,9999,1551748196
13,17,Jits_Phase_5,103,9999,9999,9999,9999,1552248932
13,17,Jits_Phase_5,104,9999,9999,9999,9999,1552748616
13,17,Jits_Phase_5,105,9999,9999,9999,9999,1553248368
13,17,Jits_Phase_5,106,9999,9999,9999,9999,1553749100
13,17,Jits_Phase_5,107,9999,9999,9999,9999,1554248832
13,17,Jits_Phase_5,108,9999,9999,9999,9999,1554748508
13,17,Jits_Phase_5,109,9999,9999,9999,9999,1555248192
13,17,Jits_Phase_5,110,9999,9999,9999,9999,1555748940
13,17,Jits_Phase_5,111,9999,9999,9999,9999,1556248696
13,17,Jits_Phase_5,112,9999,9999,9999,9999,1556748384
13,17,Jits_Phase_5,113,9999,9999,9999,9999,1557248076
13,17,Jits_Phase_5,114,9999,9999,9999,9999,1557798984
13,17,Jits_Phase_5,115,9999,9999,9999,9999,1558298736
13,17,Jits_Phase_5,116,9999,9999,9999,9999,1558798420
13,17,Jits_Phase_5,117,9999,9999,9999,9999,1559298124
13,17,Jits_Phase_5,118,9999,9999,9999,9999,1559798872
13,17,Jits_Phase_5,119,9999,9999,9999,9999,1560298572
13,17,Jits_Phase_5,120,9999,9999,9999,9999,1560798264
13,17,Jits_Phase_5,121,9999,9999,9999,9999,1561299012
13,17,Jits_Phase_5,122,9999,9999,9999,9999,1561798712
13,17,Jits_Phase_5,123,9999,9999,9999,9999,1562298488
13,17,Jits_Phase_5,124,9999,9999,9999,9999,1562798172
13,17,Jits_Phase_5,125,9999,9999,9999,9999,1563298900
13,17,Jits_Phase_5,126,9999,9999,9999,9999,1563798608
13,17,Jits_Phase_5,127,9999,9999,9999,9999,1564298360
13,17,Jits_Phase_5,128,9999,9999,9999,9999,1564799096
13,17,Jits_Phase_5,129,9999,9999,9999,9999,1565298796
13,17,Jits_Phase_5,130,9999,9999,9999,9999,1565798492
13,17,Jits_Phase_5,131,9999,9999,9999,9999,1566398548
13,17,Jits_Phase_5,132,9999,9999,9999,9999,1566898232
13,17,Jits_Phase_5,133,9999,9999,9999,9999,1567399040
13,17,Jits_Phase_5,134,9999,9999,9999,9999,1567898720
13,17,Jits_Phase_5,135,9999,9999,9999,9999,1568398416
13,17,Jits_Phase_5,136,9999,9999,9999,9999,1568898120
13,17,Jits_Phase_5,137,9999,9999,9999,9999,1569398848
13,17,Jits_Phase_5,138,9999,9999,9999,9999,1569898608
13,17,Jits_Phase_5,139,9999,9999,9999,9999,1570398312
13,17,Jits_Phase_5,140,9999,9999,9999,9999,1570899044
13,17,Jits_Phase_5,141,9999,9999,9999,9999,1571398772
13,17,Jits_Phase_5,142,9999,9999,9999,9999,1571898472
13,17,Jits_Phase_5,143,9999,9999,9999,9999,1572398172
13,17,Jits_Phase_5,144,9999,9999,9999,9999,1572898900
13,17,Jits_Phase_5,145,9999,9999,9999,9999,1573398592
13,17,Jits_Phase_5,146,9999,9999,9999,9999,1573898360
13,17,Jits_Phase_5,147,9999,9999,9999,9999,1574399092
13,17,Jits_Phase_5,148,9999,9999,9999,9999,1574898776
13,17,Jits_Phase_5,149,9999,9999,9999,9999,1575398476
13,17,Jits_Phase_5,150,9999,9999,9999,9999,1575798848
13,17,Jits_Phase_5,151,9999,9999,9999,9999,1576298612
13,17,Jits_Phase_5,152,9999,9999,9999,9999,1576798316
13,17,Jits_Phase_5,153,9999,9999,9999,9999,1577299048
13,17,Jits_Phase_5,154,9999,9999,9999,9999,1577798780
13,17,Jits_Phase_5,155,9999,9999,9999,9999,1578298472
13,17,Jits_Phase_5,156,9999,9999,9999,9999,1578798144
13,17,Jits_Phase_5,157,9999,9999,9999,9999,1579298940
13,17,Jits_Phase_5,158,9999,9999,9999,9999,1579798628
13,17,Jits_Phase_5,159,9999,9999,9999,9999,1580298312
13,17,Jits_Phase_5,160,9999,9999,9999,9999,1580799056
13,17,Jits_Phase_5,161,9999,9999,9999,9999,1581298748
13,17,Jits_Phase_5,162,9999,9999,9999,9999,1581798508
13,17,Jits_Phase_5,163,9999,9999,9999,9999,1582298192
13,17,Jits_Phase_5,164,9999,9999,9999,9999,1582798944
13,17,Jits_Phase_5,165,9999,9999,9999,9999,1583298624
13,17,Jits_Phase_5,166,9999,9999,9999,9999,1583798388
13,17,Jits_Phase_5,167,9999,9999,9999,9999,1584299116
13,17,Jits_Phase_5,168,9999,9999,9999,9999,1584809052
13,17,Jits_Phase_5,169,9999,9999,9999,9999,1585308736
14,15,Jits_Phase_8,0,5,56,103,1594986832
14,15,Jits_Phase_8,1,5,63,98,1594989996
14,15,Jits_Phase_8,2,5,80,127,1594993188
14,15,Jits_Phase_8,0,5,56,103,1595786704
14,15,Jits_Phase_8,1,5,63,98,1595789720
14,15,Jits_Phase_8,2,5,80,127,1595792988
14,15,Jits_Phase_8,0,5,80,127,1596526984
14,15,Jits_Phase_8,1,1,48,40,1596577820
14,15,Jits_Phase_8,2,5,63,98,1596617036
14,15,Jits_Phase_8,3,5,56,103,1596627436
14,15,Jits_Phase_8,0,5,56,103,1597347204
14,15,Jits_Phase_8,1,5,63,98,1597357756
14,15,Jits_Phase_8,2,1,48,50,1597399096
14,15,Jits_Phase_8,3,5,80,127,1597446684
14,15,Jits_Phase_8,0,5,63,98,1598117168
14,15,Jits_Phase_8,1,5,80,127,1598146868
14,15,Jits_Phase_8,2,5,56,103,1598176716
14,15,Jits_Phase_8,3,1,48,41,1598191044
14,15,Jits_Phase_8,0,5,56,103,1598917096
14,15,Jits_Phase_8,1,1,48,76,1598939212
14,15,Jits_Phase_8,2,5,80,127,1599017396
14,15,Jits_Phase_8,3,5,63,98,1599066700
14,15,Jits_Phase_8,0,5,56,103,1599716680
14,15,Jits_Phase_8,1,5,80,127,1599766800
14,15,Jits_Phase_8,2,5,63,98,1599806744
14,15,Jits_Phase_8,3,1,48,76,1599903284
14,15,Jits_Phase_8,0,5,80,127,1600547148
14,15,Jits_Phase_8,1,5,63,98,1600576924
14,15,Jits_Phase_8,2,5,56,103,1600646584
14,15,Jits_Phase_8,3,1,48,66,1600798972
14,15,Jits_Phase_8,0,5,63,98,1601376672
14,15,Jits_Phase_8,1,5,56,103,1601407492
14,15,Jits_Phase_8,2,5,80,127,1601466808
14,15,Jits_Phase_8,3,1,48,51,1601548452
14,15,Jits_Phase_8,0,5,56,103,1602117120
14,15,Jits_Phase_8,1,5,80,127,1602119956
14,15,Jits_Phase_8,2,1,48,56,1602183968
14,15,Jits_Phase_8,3,5,63,98,1602236884
14,15,Jits_Phase_8,0,1,48,72,1602947792
14,15,Jits_Phase_8,1,5,56,103,1602996660
14,15,Jits_Phase_8,2,5,80,127,1603036460
14,15,Jits_Phase_8,3,5,63,98,1603046772
14,15,Jits_Phase_8,0,5,56,103,1603757416
14,15,Jits_Phase_8,1,1,48,75,1603758380
14,15,Jits_Phase_8,2,5,80,127,1603776864
14,15,Jits_Phase_8,3,5,63,98,1603856804
14,15,Jits_Phase_8,0,5,80,127,1604546896
14,15,Jits_Phase_8,1,1,48,89,1604602212
14,15,Jits_Phase_8,2,5,56,103,1604647420
14,15,Jits_Phase_8,3,5,63,98,1604656480
14,15,Jits_Phase_8,0,5,63,98,1605317008
14,15,Jits_Phase_8,1,5,80,127,1605377524
14,15,Jits_Phase_8,2,5,56,103,1605386660
14,15,Jits_Phase_8,3,1,48,79,1605406232
14,15,Jits_Phase_8,0,5,56,103,1606116792
14,15,Jits_Phase_8,1,5,63,98,1606187328
14,15,Jits_Phase_8,2,5,80,127,1606190684
14,15,Jits_Phase_8,3,1,48,76,1606205480
14,15,Jits_Phase_8,0,5,63,98,1606947324
14,15,Jits_Phase_8,1,1,48,73,1606957844
14,15,Jits_Phase_8,2,5,56,103,1606997456
14,15,Jits_Phase_8,3,5,80,127,1607000592
14,15,Jits_Phase_8,0,5,56,103,1607707152
14,15,Jits_Phase_8,1,5,80,127,1607710140
14,15,Jits_Phase_8,2,1,48,73,1607758680
14,15,Jits_Phase_8,3,5,63,98,1607797224
14,15,Jits_Phase_8,0,1,48,73,1608522380
14,15,Jits_Phase_8,1,5,63,98,1608546676
14,15,Jits_Phase_8,2,5,56,103,1608636720
14,15,Jits_Phase_8,3,5,80,127,1608666492
14,15,Jits_Phase_8,0,1,48,70,1609333864
14,15,Jits_Phase_8,1,5,56,103,1609337188
14,15,Jits_Phase_8,2,5,63,98,1609436512
14,15,Jits_Phase_8,3,5,80,127,1609467104
14,15,Jits_Phase_8,0,5,63,98,1610157484
14,15,Jits_Phase_8,1,1,48,64,1610162388
14,15,Jits_Phase_8,2,5,56,103,1610166612
14,15,Jits_Phase_8,3,5,80,127,1610256800
14,15,Jits_Phase_8,0,1,48,73,1610941532
14,15,Jits_Phase_8,1,5,63,98,1610976716
14,15,Jits_Phase_8,2,5,56,103,1611056436
14,15,Jits_Phase_8,3,5,80,127,1611059496
14,15,Jits_Phase_8,0,5,80,127,1611736492
14,15,Jits_Phase_8,1,5,63,98,1611756992
14,15,Jits_Phase_8,2,1,48,80,1611816304
14,15,Jits_Phase_8,3,5,56,103,1611818244
14,15,Jits_Phase_8,0,1,48,83,1612575768
14,15,Jits_Phase_8,1,5,56,103,1612577344
14,15,Jits_Phase_8,2,5,63,98,1612596496
14,15,Jits_Phase_8,3,5,80,127,1612600084
14,15,Jits_Phase_8,0,5,63,98,1613316476
14,15,Jits_Phase_8,1,1,48,80,1613359004
14,15,Jits_Phase_8,2,5,80,127,1613397500
14,15,Jits_Phase_8,3,5,56,103,1613406784
14,15,Jits_Phase_8,0,1,48,70,1614129168
14,15,Jits_Phase_8,1,5,63,98,1614136824
14,15,Jits_Phase_8,2,5,56,103,1614157172
14,15,Jits_Phase_8,3,5,80,127,1614207440
14,15,Jits_Phase_8,0,5,80,127,1614936392
14,15,Jits_Phase_8,1,1,48,69,1614945944
14,15,Jits_Phase_8,2,5,63,98,1614977380
14,15,Jits_Phase_8,3,5,56,103,1614996984
14,15,Jits_Phase_8,0,1,48,64,1615752532
14,15,Jits_Phase_8,1,5,56,103,1615777248
14,15,Jits_Phase_8,2,5,63,98,1615787352
14,15,Jits_Phase_8,3,5,80,127,1615806732
14,15,Jits_Phase_8,0,5,56,103,1616507260
14,15,Jits_Phase_8,1,1,48,74,1616565280
14,15,Jits_Phase_8,2,5,63,98,1616597236
14,15,Jits_Phase_8,3,5,80,127,1616656852
14,15,Jits_Phase_8,0,1,48,70,1617329616
14,15,Jits_Phase_8,1,5,80,127,1617336676
14,15,Jits_Phase_8,2,5,56,103,1617346852
14,15,Jits_Phase_8,3,5,63,98,1617416640
14,15,Jits_Phase_8,0,1,48,70,1618138452
14,15,Jits_Phase_8,1,5,63,98,1618167200
14,15,Jits_Phase_8,2,5,80,127,1618257120
14,15,Jits_Phase_8,3,5,56,103,1618266624
14,15,Jits_Phase_8,0,5,63,98,1618897216
14,15,Jits_Phase_8,1,1,48,75,1618944924
14,15,Jits_Phase_8,2,5,80,127,1618946580
14,15,Jits_Phase_8,3,5,56,103,1619006796
14,15,Jits_Phase_8,0,1,48,78,1619693596
14,15,Jits_Phase_8,1,5,56,103,1619716740
14,15,Jits_Phase_8,2,5,80,127,1619766784
14,15,Jits_Phase_8,3,5,63,98,1619787044
14,15,Jits_Phase_8,0,5,56,103,1620486688
14,15,Jits_Phase_8,1,1,48,94,1620521436
14,15,Jits_Phase_8,2,5,80,127,1620547048
14,15,Jits_Phase_8,3,5,63,98,1620616784
14,15,Jits_Phase_8,0,5,56,103,1621287384
14,15,Jits_Phase_8,1,5,80,127,1621317012
14,15,Jits_Phase_8,2,5,63,98,1621346660
14,15,Jits_Phase_8,3,1,48,90,1621374592
14,15,Jits_Phase_8,0,5,56,103,1622126848
14,15,Jits_Phase_8,1,5,80,127,1622146524
14,15,Jits_Phase_8,2,1,48,78,1622171700
14,15,Jits_Phase_8,3,5,63,98,1622206808
14,15,Jits_Phase_8,0,5,80,127,1623006532
14,15,Jits_Phase_8,1,5,56,103,1623016712
14,15,Jits_Phase_8,2,1,48,71,1623021840
14,15,Jits_Phase_8,3,5,63,98,1623027184
14,15,Jits_Phase_8,0,5,56,103,1623767368
14,15,Jits_Phase_8,1,5,80,127,1623807388
14,15,Jits_Phase_8,2,1,48,70,1623811472
14,15,Jits_Phase_8,3,5,63,98,1623837228
14,15,Jits_Phase_8,0,5,56,103,1624536436
14,15,Jits_Phase_8,1,5,63,98,1624567332
14,15,Jits_Phase_8,2,1,48,89,1624591008
14,15,Jits_Phase_8,3,5,80,127,1624606972
14,15,Jits_Phase_8,0,5,80,127,1625286948
14,15,Jits_Phase_8,1,5,63,98,1625337216
14,15,Jits_Phase_8,2,5,56,103,1625356596
14,15,Jits_Phase_8,3,1,48,79,1625359332
14,15,Jits_Phase_8,0,5,56,103,1626116444
14,15,Jits_Phase_8,1,1,48,92,1626149324
14,15,Jits_Phase_8,2,5,80,127,1626187344
14,15,Jits_Phase_8,3,5,63,98,1626246448
14,15,Jits_Phase_8,0,5,80,127,1626917364
14,15,Jits_Phase_8,1,1,48,79,1626991928
14,15,Jits_Phase_8,2,5,63,98,1627007292
14,15,Jits_Phase_8,3,5,56,103,1627026672
14,15,Jits_Phase_8,0,5,63,98,1627736420
14,15,Jits_Phase_8,1,5,56,103,1627756844
14,15,Jits_Phase_8,2,1,48,92,1627776272
14,15,Jits_Phase_8,3,5,80,127,1627796708
14,15,Jits_Phase_8,0,5,80,127,1628497236
14,15,Jits_Phase_8,1,5,63,98,1628516692
14,15,Jits_Phase_8,2,1,48,79,1628543136
14,15,Jits_Phase_8,3,5,56,103,1628596496
14,15,Jits_Phase_8,0,5,63,98,1629286936
14,15,Jits_Phase_8,1,1,48,101,1629325588
14,15,Jits_Phase_8,2,5,56,103,1629397332
14,15,Jits_Phase_8,3,5,80,127,1629400468
14,15,Jits_Phase_8,0,1,48,70,1630098128
14,15,Jits_Phase_8,1,5,63,98,1630107056
14,15,Jits_Phase_8,2,5,56,103,1630117308
14,15,Jits_Phase_8,3,5,80,127,1630120368
14,15,Jits_Phase_8,0,5,56,103,1630887240
14,15,Jits_Phase_8,1,1,48,79,1630899404
14,15,Jits_Phase_8,2,5,80,127,1631007116
14,15,Jits_Phase_8,3,5,63,98,1631046988
14,15,Jits_Phase_8,0,1,48,79,1631689248
14,15,Jits_Phase_8,1,5,56,103,1631706332
14,15,Jits_Phase_8,2,5,80,127,1631787472
14,15,Jits_Phase_8,3,5,63,98,1631807076
14,15,Jits_Phase_8,0,5,56,103,1632507172
14,15,Jits_Phase_8,1,1,48,94,1632528164
14,15,Jits_Phase_8,2,5,63,98,1632616916
14,15,Jits_Phase_8,3,5,80,127,1632619976
14,15,Jits_Phase_8,0,5,56,103,1633347280
14,15,Jits_Phase_8,1,1,48,72,1633359692
14,15,Jits_Phase_8,2,5,80,127,1633376628
14,15,Jits_Phase_8,3,5,63,98,1633397056
14,15,Jits_Phase_8,0,5,63,98,1634136416
14,15,Jits_Phase_8,1,5,56,103,1634146892
14,15,Jits_Phase_8,2,5,80,127,1634157068
14,15,Jits_Phase_8,3,1,48,69,1634160032
14,15,Jits_Phase_8,0,5,80,127,1634927068
14,15,Jits_Phase_8,1,1,48,60,1634930480
14,15,Jits_Phase_8,2,5,56,103,1634977108
14,15,Jits_Phase_8,3,5,63,98,1635017052
14,15,Jits_Phase_8,0,5,80,127,1635747140
14,15,Jits_Phase_8,1,5,63,98,1635766744
14,15,Jits_Phase_8,2,1,48,60,1635769860
14,15,Jits_Phase_8,3,5,56,103,1635816932
14,15,Jits_Phase_8,0,1,48,76,1636557268
14,15,Jits_Phase_8,1,5,80,127,1636558752
14,15,Jits_Phase_8,2,5,56,103,1636586888
14,15,Jits_Phase_8,3,5,63,98,1636656584
14,15,Jits_Phase_8,0,1,48,89,1637362624
14,15,Jits_Phase_8,1,5,56,103,1637407164
14,15,Jits_Phase_8,2,5,80,127,1637417272
14,15,Jits_Phase_8,3,5,63,98,1637457300
14,15,Jits_Phase_8,0,5,56,103,1638116912
14,15,Jits_Phase_8,1,5,63,98,1638137264
14,15,Jits_Phase_8,2,1,48,81,1638196552
14,15,Jits_Phase_8,3,5,80,127,1638206820
14,15,Jits_Phase_8,0,5,63,98,1638937056
14,15,Jits_Phase_8,1,1,48,84,1638989040
14,15,Jits_Phase_8,2,5,80,127,1638997588
14,15,Jits_Phase_8,3,5,56,103,1639016820
14,15,Jits_Phase_8,0,5,80,127,1639726372
14,15,Jits_Phase_8,1,1,48,86,1639755704
14,15,Jits_Phase_8,2,5,56,103,1639757136
14,15,Jits_Phase_8,3,5,63,98,1639786984
14,15,Jits_Phase_8,0,5,56,103,1640527088
14,15,Jits_Phase_8,1,1,48,73,1640542984
14,15,Jits_Phase_8,2,5,63,98,1640586848
14,15,Jits_Phase_8,3,5,80,127,1640647048
14,15,Jits_Phase_8,0,1,48,73,1641321836
14,15,Jits_Phase_8,1,5,80,127,1641346552
14,15,Jits_Phase_8,2,5,56,103,1641366832
14,15,Jits_Phase_8,3,5,63,98,1641436676
14,15,Jits_Phase_8,0,1,48,67,1642093648
14,15,Jits_Phase_8,1,5,80,127,1642147164
14,15,Jits_Phase_8,2,5,63,98,1642166840
14,15,Jits_Phase_8,3,5,56,103,1642197496
14,15,Jits_Phase_8,0,1,48,75,1642883336
14,15,Jits_Phase_8,1,5,80,127,1642936552
14,15,Jits_Phase_8,2,5,63,98,1642957276
14,15,Jits_Phase_8,3,5,56,103,1643016504
14,15,Jits_Phase_8,0,1,48,84,1643685900
14,15,Jits_Phase_8,1,5,80,127,1643736632
14,15,Jits_Phase_8,2,5,56,103,1643836848
14,15,Jits_Phase_8,3,5,63,98,1643866424
14,15,Jits_Phase_8,0,5,63,98,1644526856
14,15,Jits_Phase_8,1,5,80,127,1644577200
14,15,Jits_Phase_8,2,5,56,103,1644596504
14,15,Jits_Phase_8,3,1,48,76,1644597468
14,15,Jits_Phase_8,0,1,48,66,1645365680
14,15,Jits_Phase_8,1,5,80,127,1645367472
14,15,Jits_Phase_8,2,5,56,103,1645397496
14,15,Jits_Phase_8,3,5,63,98,1645400408
14,15,Jits_Phase_8,0,1,48,73,1646197468
14,15,Jits_Phase_8,1,5,63,98,1646216640
14,15,Jits_Phase_8,2,5,56,103,1646256440
14,15,Jits_Phase_8,3,5,80,127,1646276940
14,15,Jits_Phase_8,0,5,80,127,1646977248
14,15,Jits_Phase_8,1,1,48,80,1647012892
14,15,Jits_Phase_8,2,5,63,98,1647057424
14,15,Jits_Phase_8,3,5,56,103,1647097368
14,15,Jits_Phase_8,0,1,48,73,1647791588
14,15,Jits_Phase_8,1,5,63,98,1647796484
14,15,Jits_Phase_8,2,5,80,127,1647876520
14,15,Jits_Phase_8,3,5,56,103,1647897152
14,15,Jits_Phase_8,0,1,48,73,1648582928
14,15,Jits_Phase_8,1,5,56,103,1648637340
14,15,Jits_Phase_8,2,5,63,98,1648646548
14,15,Jits_Phase_8,3,5,80,127,1648686480
14,15,Jits_Phase_8,0,5,56,103,1649357252
14,15,Jits_Phase_8,1,5,80,127,1649360460
14,15,Jits_Phase_8,2,1,48,58,1649416692
14,15,Jits_Phase_8,3,5,63,98,1649496464
14,15,Jits_Phase_8,0,5,56,103,1650146648
14,15,Jits_Phase_8,1,1,48,81,1650168160
14,15,Jits_Phase_8,2,5,63,98,1650236772
14,15,Jits_Phase_8,3,5,80,127,1650306420
14,15,Jits_Phase_8,0,1,48,85,1650967208
14,15,Jits_Phase_8,1,5,63,98,1651027164
14,15,Jits_Phase_8,2,5,80,127,1651030452
14,15,Jits_Phase_8,3,5,56,103,1651086768
14,15,Jits_Phase_8,0,1,48,71,1651778204
14,15,Jits_Phase_8,1,5,80,127,1651867116
14,15,Jits_Phase_8,2,5,56,103,1651886336
14,15,Jits_Phase_8,3,5,63,98,1651896736
14,15,Jits_Phase_8,0,5,56,103,1652576568
14,15,Jits_Phase_8,1,5,63,98,1652587044
14,15,Jits_Phase_8,2,1,48,72,1652630620
14,15,Jits_Phase_8,3,5,80,127,1652656452
14,15,Jits_Phase_8,0,5,80,127,1653377336
14,15,Jits_Phase_8,1,1,48,74,1653387856
14,15,Jits_Phase_8,2,5,56,103,1653426476
14,15,Jits_Phase_8,3,5,63,98,1653476668
14,15,Jits_Phase_8,0,1,48,70,1654174540
14,15,Jits_Phase_8,1,5,56,103,1654257156
14,15,Jits_Phase_8,2,5,63,98,1654267112
14,15,Jits_Phase_8,3,5,80,127,1654307116
14,15,Jits_Phase_8,0,1,48,71,1654980476
14,15,Jits_Phase_8,1,5,56,103,1654997336
14,15,Jits_Phase_8,2,5,63,98,1655037284
14,15,Jits_Phase_8,3,5,80,127,1655086340
14,15,Jits_Phase_8,0,5,80,127,1655757116
14,15,Jits_Phase_8,1,1,48,72,1655790968
14,15,Jits_Phase_8,2,5,56,103,1655807304
14,15,Jits_Phase_8,3,5,63,98,1655827052
14,15,Jits_Phase_8,0,5,80,127,1656567012
14,15,Jits_Phase_8,1,1,48,67,1656605580
14,15,Jits_Phase_8,2,5,63,98,1656626624
14,15,Jits_Phase_8,3,5,56,103,1656706368
14,15,Jits_Phase_8,0,5,80,127,1657346548
14,15,Jits_Phase_8,1,1,48,79,1657372092
14,15,Jits_Phase_8,2,5,56,103,1657387460
14,15,Jits_Phase_8,3,5,63,98,1657406988
14,15,Jits_Phase_8,0,1,48,83,1658106896
14,15,Jits_Phase_8,1,5,56,103,1658197296
14,15,Jits_Phase_8,2,5,80,127,1658206712
14,15,Jits_Phase_8,3,5,63,98,1658246656
14,15,Jits_Phase_8,0,1,48,62,1658884316
14,15,Jits_Phase_8,1,5,56,103,1659066924
14,15,Jits_Phase_8,2,5,63,98,1659106720
14,15,Jits_Phase_8,3,5,80,127,1659110076
14,15,Jits_Phase_8,0,5,63,98,1659736436
14,15,Jits_Phase_8,1,5,80,127,1659777800
14,15,Jits_Phase_8,2,1,48,67,1659831096
14,15,Jits_Phase_8,3,5,56,103,1659847132
14,15,Jits_Phase_8,0,5,63,98,1660506604
14,15,Jits_Phase_8,1,5,56,103,1660587316
14,15,Jits_Phase_8,2,1,48,70,1660620120
14,15,Jits_Phase_8,3,5,80,127,1660646920
14,15,Jits_Phase_8,0,5,80,127,1661316564
14,15,Jits_Phase_8,1,1,48,71,1661361632
14,15,Jits_Phase_8,2,5,63,98,1661366604
14,15,Jits_Phase_8,3,5,56,103,1661397348
14,15,Jits_Phase_8,0,5,56,103,1662106864
14,15,Jits_Phase_8,1,5,63,98,1662157280
14,15,Jits_Phase_8,2,5,80,127,1662167608
14,15,Jits_Phase_8,3,1,48,69,1662168944
14,15,Jits_Phase_8,0,5,56,103,1662916908
14,15,Jits_Phase_8,1,1,48,74,1662952700
14,15,Jits_Phase_8,2,5,63,98,1663026552
14,15,Jits_Phase_8,3,5,80,127,1663046904
14,15,Jits_Phase_8,0,1,48,82,1663710316
14,15,Jits_Phase_8,1,5,63,98,1663716704
14,15,Jits_Phase_8,2,5,80,127,1663766824
14,15,Jits_Phase_8,3,5,56,103,1663857036
14,15,Jits_Phase_8,0,5,63,98,1664507448
14,15,Jits_Phase_8,1,5,80,127,1664537000
14,15,Jits_Phase_8,2,1,48,84,1664585768
14,15,Jits_Phase_8,3,5,56,103,1664627144
14,15,Jits_Phase_8,0,5,63,98,1665306856
14,15,Jits_Phase_8,1,5,56,103,1665317260
14,15,Jits_Phase_8,2,1,48,74,1665377692
14,15,Jits_Phase_8,3,5,80,127,1665416460
14,15,Jits_Phase_8,0,1,48,70,1666118796
14,15,Jits_Phase_8,1,5,63,98,1666207032
14,15,Jits_Phase_8,2,5,80,127,1666236868
14,15,Jits_Phase_8,3,5,56,103,1666266864
14,15,Jits_Phase_8,0,1,48,68,1667012704
14,15,Jits_Phase_8,1,5,80,127,1667027544
14,15,Jits_Phase_8,2,5,63,98,1667036608
14,15,Jits_Phase_8,3,5,56,103,1667067500
14,15,Jits_Phase_8,0,5,80,127,1667726676
14,15,Jits_Phase_8,1,5,63,98,1667747324
14,15,Jits_Phase_8,2,5,56,103,1667797292
14,15,Jits_Phase_8,3,1,48,62,1667873240
14,15,Jits_Phase_8,0,5,63,98,1668557436
14,15,Jits_Phase_8,1,1,48,65,1668614488
14,15,Jits_Phase_8,2,5,80,127,1668616452
14,15,Jits_Phase_8,3,5,56,103,1668637320
14,15,Jits_Phase_8,0,5,63,98,1669316840
14,15,Jits_Phase_8,1,5,56,103,1669367256
14,15,Jits_Phase_8,2,5,80,127,1669377436
14,15,Jits_Phase_8,3,1,48,62,1669430432
14,15,Jits_Phase_8,0,5,56,103,1670146388
14,15,Jits_Phase_8,1,5,80,127,1670156568
14,15,Jits_Phase_8,2,1,48,70,1670180468
14,15,Jits_Phase_8,3,5,63,98,1670257108
14,15,Jits_Phase_8,0,5,80,127,1670907220
14,15,Jits_Phase_8,1,5,63,98,1670916356
14,15,Jits_Phase_8,2,1,48,70,1670944288
14,15,Jits_Phase_8,3,5,56,103,1671067436
14,15,Jits_Phase_8,0,5,63,98,1671717416
14,15,Jits_Phase_8,1,5,80,127,1671757612
14,15,Jits_Phase_8,2,1,48,67,1671836072
14,15,Jits_Phase_8,3,5,56,103,1671837788
14,15,Jits_Phase_8,0,5,56,103,1672467016
14,15,Jits_Phase_8,1,5,80,127,1672567196
14,15,Jits_Phase_8,2,1,48,79,1672570912
14,15,Jits_Phase_8,3,5,63,98,1672586572
14,15,Jits_Phase_8,0,5,80,127,1673287316
14,15,Jits_Phase_8,1,5,56,103,1673297368
14,15,Jits_Phase_8,2,1,48,68,1673344316
14,15,Jits_Phase_8,3,5,63,98,1673387340
14,15,Jits_Phase_8,0,5,56,103,1674086844
14,15,Jits_Phase_8,1,5,63,98,1674107196
14,15,Jits_Phase_8,2,1,48,58,1674152632
14,15,Jits_Phase_8,3,5,80,127,1674187220
14,15,Jits_Phase_8,0,5,63,98,1674837432
14,15,Jits_Phase_8,1,1,48,70,1674917964
14,15,Jits_Phase_8,2,5,56,103,1674926588
14,15,Jits_Phase_8,3,5,80,127,1674929500
14,15,Jits_Phase_8,0,5,56,103,1675666904
14,15,Jits_Phase_8,1,1,48,54,1675687820
14,15,Jits_Phase_8,2,5,80,127,1675727188
14,15,Jits_Phase_8,3,5,63,98,1675736544
14,15,Jits_Phase_8,0,1,48,57,1676486572
14,15,Jits_Phase_8,1,5,80,127,1676516668
14,15,Jits_Phase_8,2,5,56,103,1676526920
14,15,Jits_Phase_8,3,5,63,98,1676530204
14,15,Jits_Phase_8,0,5,56,103,1677276588
14,15,Jits_Phase_8,1,5,80,127,1677286840
14,15,Jits_Phase_8,2,1,48,49,1677300496
14,15,Jits_Phase_8,3,5,63,98,1677307112
14,15,Jits_Phase_8,0,5,63,98,1678046548
14,15,Jits_Phase_8,1,1,48,56,1678059684
14,15,Jits_Phase_8,2,5,80,127,1678106908
14,15,Jits_Phase_8,3,5,56,103,1678157032
14,15,Jits_Phase_8,0,1,48,49,1678921792
14,15,Jits_Phase_8,1,5,63,98,1678927280
14,15,Jits_Phase_8,2,5,56,103,1678936492
14,15,Jits_Phase_8,3,5,80,127,1678986532
14,15,Jits_Phase_8,0,5,63,98,1679626900
14,15,Jits_Phase_8,1,5,80,127,1679647028
14,15,Jits_Phase_8,2,5,56,103,1679657356
14,15,Jits_Phase_8,3,1,48,48,1679787708
14,15,Jits_Phase_8,0,5,63,98,1680427268
14,15,Jits_Phase_8,1,5,80,127,1680430856
14,15,Jits_Phase_8,2,5,56,103,1680467248
14,15,Jits_Phase_8,3,1,48,57,1680473644
14,15,Jits_Phase_8,0,1,48,49,1681256808
14,15,Jits_Phase_8,1,5,63,98,1681296700
14,15,Jits_Phase_8,2,5,80,127,1681326324
14,15,Jits_Phase_8,3,5,56,103,1681336800
14,15,Jits_Phase_8,0,5,56,103,1682047424
14,15,Jits_Phase_8,1,5,80,127,1682076976
14,15,Jits_Phase_8,2,1,48,57,1682086232
14,15,Jits_Phase_8,3,5,63,98,1682106892
14,15,Jits_Phase_8,0,1,48,50,1682887652
14,15,Jits_Phase_8,1,5,63,98,1682946548
14,15,Jits_Phase_8,2,5,56,103,1682987520
14,15,Jits_Phase_8,3,5,80,127,1682990580
14,15,Jits_Phase_8,0,5,80,127,1683646784
14,15,Jits_Phase_8,1,1,48,47,1683708988
14,15,Jits_Phase_8,2,5,56,103,1683726812
14,15,Jits_Phase_8,3,5,63,98,1683776928
14,15,Jits_Phase_8,0,5,80,127,1684426988
14,15,Jits_Phase_8,1,5,56,103,1684446516
14,15,Jits_Phase_8,2,1,48,39,1684506476
14,15,Jits_Phase_8,3,5,63,98,1684536640
14,15,Jits_Phase_8,0,5,80,127,1685266800
14,15,Jits_Phase_8,1,1,48,56,1685276948
14,15,Jits_Phase_8,2,5,63,98,1685306668
14,15,Jits_Phase_8,3,5,56,103,1685346636
14,15,Jits_Phase_8,0,5,63,98,1686076848
14,15,Jits_Phase_8,1,1,48,43,1686095324
14,15,Jits_Phase_8,2,5,80,127,1686137304
14,15,Jits_Phase_8,3,5,56,103,1686166932
14,15,Jits_Phase_8,0,5,56,103,1686916592
14,15,Jits_Phase_8,1,5,80,127,1686947116
14,15,Jits_Phase_8,2,1,48,38,1686948524
14,15,Jits_Phase_8,3,5,63,98,1687037536
14,15,Jits_Phase_8,0,1,48,24,1687726788
14,15,Jits_Phase_8,1,5,56,103,1687728120
14,15,Jits_Phase_8,2,1,38,13,1687735440
14,15,Jits_Phase_8,3,5,80,127,1687836912
14,15,Jits_Phase_8,4,5,63,98,1687866760
14,15,Jits_Phase_8,0,5,56,103,1688577556
14,15,Jits_Phase_8,1,5,63,98,1688636656
14,15,Jits_Phase_8,2,1,48,39,1688648920
14,15,Jits_Phase_8,3,5,80,127,1688666448
14,15,Jits_Phase_8,0,5,56,103,1689346624
14,15,Jits_Phase_8,1,5,63,98,1689417036
14,15,Jits_Phase_8,2,5,80,127,1689436492
14,15,Jits_Phase_8,3,1,48,59,1689470860
14,15,Jits_Phase_8,0,5,80,127,1690116508
14,15,Jits_Phase_8,1,5,63,98,1690136936
14,15,Jits_Phase_8,2,5,56,103,1690187372
14,15,Jits_Phase_8,3,1,48,51,1690265280
14,15,Jits_Phase_8,0,5,63,98,1690936648
14,15,Jits_Phase_8,1,5,80,127,1690946828
14,15,Jits_Phase_8,2,5,56,103,1690997192
14,15,Jits_Phase_8,3,1,48,65,1691040164
14,15,Jits_Phase_8,0,5,63,98,1691736300
14,15,Jits_Phase_8,1,5,80,127,1691807212
14,15,Jits_Phase_8,2,5,56,103,1691826664
14,15,Jits_Phase_8,3,1,48,42,1691854596
14,15,Jits_Phase_8,0,1,48,50,1692551532
14,15,Jits_Phase_8,1,5,63,98,1692567116
14,15,Jits_Phase_8,2,5,80,127,1692570328
14,15,Jits_Phase_8,3,5,56,103,1692636608
14,15,Jits_Phase_8,0,5,80,127,1693316492
14,15,Jits_Phase_8,1,5,56,103,1693336916
14,15,Jits_Phase_8,2,5,63,98,1693347096
14,15,Jits_Phase_8,3,1,48,43,1693387012
14,15,Jits_Phase_8,0,5,56,103,1694136708
14,15,Jits_Phase_8,1,1,48,62,1694153648
14,15,Jits_Phase_8,2,5,63,98,1694226756
14,15,Jits_Phase_8,3,5,80,127,1694230264
14,15,Jits_Phase_8,0,5,80,127,1694906656
14,15,Jits_Phase_8,1,5,56,103,1694917208
14,15,Jits_Phase_8,2,5,63,98,1694936292
14,15,Jits_Phase_8,3,1,48,60,1695020016
14,15,Jits_Phase_8,0,5,63,98,1695706448
14,15,Jits_Phase_8,1,5,80,127,1695767108
14,15,Jits_Phase_8,2,5,56,103,1695777364
14,15,Jits_Phase_8,3,1,48,64,1695820508
14,15,Jits_Phase_8,0,1,48,66,1696541868
14,15,Jits_Phase_8,1,5,63,98,1696576832
14,15,Jits_Phase_8,2,5,80,127,1696606780
14,15,Jits_Phase_8,3,5,56,103,1696646636
14,15,Jits_Phase_8,0,5,56,103,1697367524
14,15,Jits_Phase_8,1,5,80,127,1697376660
14,15,Jits_Phase_8,2,1,48,56,1697410584
14,15,Jits_Phase_8,3,5,63,98,1697416600
14,15,Jits_Phase_8,0,5,80,127,1698127312
14,15,Jits_Phase_8,1,5,56,103,1698206976
14,15,Jits_Phase_8,2,5,63,98,1698217376
14,15,Jits_Phase_8,3,1,48,48,1698242848
14,15,Jits_Phase_8,0,5,80,127,1698977080
14,15,Jits_Phase_8,1,5,56,103,1699057116
14,15,Jits_Phase_8,2,5,63,98,1699067220
14,15,Jits_Phase_8,3,1,48,48,1699074068
14,15,Jits_Phase_8,0,5,80,127,1699816904
14,15,Jits_Phase_8,1,1,48,61,1699817944
14,15,Jits_Phase_8,2,5,56,103,1699866944
14,15,Jits_Phase_8,3,5,63,98,1699917120
14,15,Jits_Phase_8,0,1,48,50,1700681432
14,15,Jits_Phase_8,1,5,56,103,1700756856
14,15,Jits_Phase_8,2,5,63,98,1700759844
14,15,Jits_Phase_8,3,5,80,127,1700807032
14,15,Jits_Phase_8,0,1,48,49,1701513668
14,15,Jits_Phase_8,1,5,56,103,1701577060
14,15,Jits_Phase_8,2,5,63,98,1701606820
14,15,Jits_Phase_8,3,5,80,127,1701616924
14,15,Jits_Phase_8,0,5,63,98,1702286804
14,15,Jits_Phase_8,1,1,48,39,1702319832
14,15,Jits_Phase_8,2,5,56,103,1702357332
14,15,Jits_Phase_8,3,5,80,127,1702406704
14,15,Jits_Phase_8,0,1,48,49,1703082216
14,15,Jits_Phase_8,1,5,63,98,1703117324
14,15,Jits_Phase_8,2,5,56,103,1703127356
14,15,Jits_Phase_8,3,5,80,127,1703130640
14,15,Jits_Phase_8,0,5,80,127,1703866696
14,15,Jits_Phase_8,1,1,48,23,1703922084
14,15,Jits_Phase_8,2,5,56,103,1703927128
14,15,Jits_Phase_8,3,1,38,12,1703931360
14,15,Jits_Phase_8,4,5,63,98,1704017276
14,15,Jits_Phase_8,0,5,80,127,1704666628
14,15,Jits_Phase_8,1,1,48,46,1704710948
14,15,Jits_Phase_8,2,5,56,103,1704766924
14,15,Jits_Phase_8,3,5,63,98,1704806896
14,15,Jits_Phase_8,0,5,56,103,1705517512
14,15,Jits_Phase_8,1,5,63,98,1705536820
14,15,Jits_Phase_8,2,1,48,50,1705537860
14,15,Jits_Phase_8,3,5,80,127,1705576856
14,15,Jits_Phase_8,0,5,63,98,1706286576
14,15,Jits_Phase_8,1,5,56,103,1706306924
14,15,Jits_Phase_8,2,1,48,50,1706333540
14,15,Jits_Phase_8,3,5,80,127,1706407392
14,15,Jits_Phase_8,0,5,63,98,1707076936
14,15,Jits_Phase_8,1,1,48,40,1707146272
14,15,Jits_Phase_8,2,5,80,127,1707186680
14,15,Jits_Phase_8,3,5,56,103,1707217128
14,15,Jits_Phase_8,0,5,56,103,1707897536
14,15,Jits_Phase_8,1,5,63,98,1707926868
14,15,Jits_Phase_8,2,1,48,67,1707952636
14,15,Jits_Phase_8,3,5,80,127,1707976980
14,15,Jits_Phase_8,0,5,63,98,1708667348
14,15,Jits_Phase_8,1,5,56,103,1708696900
14,15,Jits_Phase_8,2,5,80,127,1708747016
14,15,Jits_Phase_8,3,1,48,56,1708751692
14,15,Jits_Phase_8,0,5,56,103,1709496600
14,15,Jits_Phase_8,1,1,48,63,1709502996
14,15,Jits_Phase_8,2,5,63,98,1709517392
14,15,Jits_Phase_8,3,5,80,127,1709597052
14,15,Jits_Phase_8,0,5,63,98,1710266780
14,15,Jits_Phase_8,1,1,48,50,1710282156
14,15,Jits_Phase_8,2,5,56,103,1710327288
14,15,Jits_Phase_8,3,5,80,127,1710356916
14,15,Jits_Phase_8,0,1,48,48,1711079844
14,15,Jits_Phase_8,1,5,56,103,1711106352
14,15,Jits_Phase_8,2,5,80,127,1711166864
14,15,Jits_Phase_8,3,5,63,98,1711206820
14,15,Jits_Phase_8,0,5,63,98,1711886700
14,15,Jits_Phase_8,1,1,48,57,1711893320
14,15,Jits_Phase_8,2,5,56,103,1711947308
14,15,Jits_Phase_8,3,5,80,127,1712016704
14,15,Jits_Phase_8,0,1,48,47,1712738540
14,15,Jits_Phase_8,1,5,56,103,1712767436
14,15,Jits_Phase_8,2,5,63,98,1712776416
14,15,Jits_Phase_8,3,5,80,127,1712779852
14,15,Jits_Phase_8,0,5,63,98,1713506568
14,15,Jits_Phase_8,1,1,48,48,1713555232
14,15,Jits_Phase_8,2,5,56,103,1713567368
14,15,Jits_Phase_8,3,5,80,127,1713570576
14,15,Jits_Phase_8,0,5,63,98,1714286824
14,15,Jits_Phase_8,1,5,80,127,1714316676
14,15,Jits_Phase_8,2,5,56,103,1714337248
14,15,Jits_Phase_8,3,1,48,63,1714357788
14,15,Jits_Phase_8,0,5,56,103,1715017196
14,15,Jits_Phase_8,1,5,63,98,1715067240
14,15,Jits_Phase_8,2,1,48,48,1715106036
14,15,Jits_Phase_8,3,5,80,127,1715147340
14,15,Jits_Phase_8,0,5,80,127,1715716388
14,15,Jits_Phase_8,1,5,63,98,1715757380
14,15,Jits_Phase_8,2,5,56,103,1715776836
14,15,Jits_Phase_8,3,1,48,46,1715779948
14,15,Jits_Phase_8,0,1,48,62,1716547044
14,15,Jits_Phase_8,1,5,56,103,1716586812
14,15,Jits_Phase_8,2,5,80,127,1716597140
14,15,Jits_Phase_8,3,5,63,98,1716616668
14,15,Jits_Phase_8,0,1,48,47,1717360316
14,15,Jits_Phase_8,1,5,56,103,1717367300
14,15,Jits_Phase_8,2,5,63,98,1717417272
14,15,Jits_Phase_8,3,5,80,127,1717447196
14,15,Jits_Phase_8,0,5,56,103,1718116688
14,15,Jits_Phase_8,1,5,63,98,1718126944
14,15,Jits_Phase_8,2,1,48,52,1718142616
14,15,Jits_Phase_8,3,5,80,127,1718177128
14,15,Jits_Phase_8,0,1,48,57,1718888776
14,15,Jits_Phase_8,1,5,56,103,1718907200
14,15,Jits_Phase_8,2,5,80,127,1718910260
14,15,Jits_Phase_8,3,5,63,98,1719066944
14,15,Jits_Phase_8,0,5,63,98,1719726508
14,15,Jits_Phase_8,1,5,56,103,1719796968
14,15,Jits_Phase_8,2,1,48,50,1719824376
14,15,Jits_Phase_8,3,5,80,127,1719837056
14,15,Jits_Phase_8,0,5,63,98,1720567132
14,15,Jits_Phase_8,1,1,48,41,1720639132
14,15,Jits_Phase_8,2,5,56,103,1720657128
14,15,Jits_Phase_8,3,5,80,127,1720660344
14,15,Jits_Phase_8,0,5,56,103,1721346348
14,15,Jits_Phase_8,1,5,63,98,1721436508
14,15,Jits_Phase_8,2,1,48,46,1721444320
14,15,Jits_Phase_8,3,5,80,127,1721447048
14,15,Jits_Phase_8,0,5,56,103,1722116532
14,15,Jits_Phase_8,1,5,63,98,1722166724
14,15,Jits_Phase_8,2,5,80,127,1722197492
14,15,Jits_Phase_8,3,1,48,48,1722229776
14,15,Jits_Phase_8,0,1,48,52,1722971216
14,15,Jits_Phase_8,1,5,63,98,1722997048
14,15,Jits_Phase_8,2,5,80,127,1723007380
14,15,Jits_Phase_8,3,5,56,103,1723066916
14,15,Jits_Phase_8,0,5,63,98,1723716964
14,15,Jits_Phase_8,1,5,80,127,1723777256
14,15,Jits_Phase_8,2,1,48,48,1723789792
14,15,Jits_Phase_8,3,5,56,103,1723817196
14,15,Jits_Phase_8,0,1,48,37,1724558456
14,15,Jits_Phase_8,1,5,56,103,1724617044
14,15,Jits_Phase_8,2,5,80,127,1724636724
14,15,Jits_Phase_8,3,5,63,98,1724657060
14,15,Jits_Phase_8,0,5,63,98,1725336816
14,15,Jits_Phase_8,1,5,56,103,1725357388
14,15,Jits_Phase_8,2,5,80,127,1725397260
14,15,Jits_Phase_8,3,1,48,58,1725408900
14,15,Jits_Phase_8,0,5,63,98,1726146992
14,15,Jits_Phase_8,1,5,80,127,1726176768
14,15,Jits_Phase_8,2,5,56,103,1726197192
14,15,Jits_Phase_8,3,1,48,52,1726208832
14,15,Jits_Phase_8,0,5,80,127,1726916932
14,15,Jits_Phase_8,1,5,56,103,1726967276
14,15,Jits_Phase_8,2,1,48,36,1726976752
14,15,Jits_Phase_8,3,5,63,98,1727026512
14,15,Jits_Phase_8,0,5,63,98,1727706632
14,15,Jits_Phase_8,1,1,48,49,1727757768
14,15,Jits_Phase_8,2,5,56,103,1727827596
14,15,Jits_Phase_8,3,5,80,127,1727856912
14,15,Jits_Phase_8,0,5,80,127,1728547112
14,15,Jits_Phase_8,1,1,48,62,1728551272
14,15,Jits_Phase_8,2,5,63,98,1728566712
14,15,Jits_Phase_8,3,5,56,103,1728637416
14,15,Jits_Phase_8,0,5,63,98,1729367508
14,15,Jits_Phase_8,1,5,56,103,1729376568
14,15,Jits_Phase_8,2,1,48,48,1729406536
14,15,Jits_Phase_8,3,5,80,127,1729456592
14,15,Jits_Phase_8,0,1,48,48,1730188360
14,15,Jits_Phase_8,1,5,56,103,1730226604
14,15,Jits_Phase_8,2,5,80,127,1730257424
14,15,Jits_Phase_8,3,5,63,98,1730266632
14,15,Jits_Phase_8,0,9999,9999,9999,9999,1595384916
14,15,Jits_Phase_8,1,9999,9999,9999,9999,1596184640
14,15,Jits_Phase_8,2,9999,9999,9999,9999,1596984440
14,15,Jits_Phase_8,3,9999,9999,9999,9999,1597784120
14,15,Jits_Phase_8,4,9999,9999,9999,9999,1598584888
14,15,Jits_Phase_8,5,9999,9999,9999,9999,1599384680
14,15,Jits_Phase_8,6,9999,9999,9999,9999,1600184404
14,15,Jits_Phase_8,7,9999,9999,9999,9999,1600984136
14,15,Jits_Phase_8,8,9999,9999,9999,9999,1601784912
14,15,Jits_Phase_8,9,9999,9999,9999,9999,1602584684
14,15,Jits_Phase_8,10,9999,9999,9999,9999,1603384420
14,15,Jits_Phase_8,11,9999,9999,9999,9999,1604184156
14,15,Jits_Phase_8,12,9999,9999,9999,9999,1604984936
14,15,Jits_Phase_8,13,9999,9999,9999,9999,1605784656
14,15,Jits_Phase_8,14,9999,9999,9999,9999,1606584432
14,15,Jits_Phase_8,15,9999,9999,9999,9999,1607384148
14,15,Jits_Phase_8,16,9999,9999,9999,9999,1608184888
14,15,Jits_Phase_8,17,9999,9999,9999,9999,1608984696
14,15,Jits_Phase_8,18,9999,9999,9999,9999,1609784412
14,15,Jits_Phase_8,19,9999,9999,9999,9999,1610584152
14,15,Jits_Phase_8,20,9999,9999,9999,9999,1611384908
14,15,Jits_Phase_8,21,9999,9999,9999,9999,1612184692
14,15,Jits_Phase_8,22,9999,9999,9999,9999,1612984416
14,15,Jits_Phase_8,23,9999,9999,9999,9999,1613784128
14,15,Jits_Phase_8,24,9999,9999,9999,9999,1614584936
14,15,Jits_Phase_8,25,9999,9999,9999,9999,1615384648
14,15,Jits_Phase_8,26,9999,9999,9999,9999,1616184376
14,15,Jits_Phase_8,27,9999,9999,9999,9999,1616984188
14,15,Jits_Phase_8,28,9999,9999,9999,9999,1617784956
14,15,Jits_Phase_8,29,9999,9999,9999,9999,1618584676
14,15,Jits_Phase_8,30,9999,9999,9999,9999,1619364940
14,15,Jits_Phase_8,31,9999,9999,9999,9999,1620164724
14,15,Jits_Phase_8,32,9999,9999,9999,9999,1620964440
14,15,Jits_Phase_8,33,9999,9999,9999,9999,1621764156
14,15,Jits_Phase_8,34,9999,9999,9999,9999,1622564932
14,15,Jits_Phase_8,35,9999,9999,9999,9999,1623364664
14,15,Jits_Phase_8,36,9999,9999,9999,9999,1624164420
14,15,Jits_Phase_8,37,9999,9999,9999,9999,1624964148
14,15,Jits_Phase_8,38,9999,9999,9999,9999,1625764992
14,15,Jits_Phase_8,39,9999,9999,9999,9999,1626564724
14,15,Jits_Phase_8,40,9999,9999,9999,9999,1627364452
14,15,Jits_Phase_8,41,9999,9999,9999,9999,1628164180
14,15,Jits_Phase_8,42,9999,9999,9999,9999,1628964936
14,15,Jits_Phase_8,43,9999,9999,9999,9999,1629764728
14,15,Jits_Phase_8,44,9999,9999,9999,9999,1630564452
14,15,Jits_Phase_8,45,9999,9999,9999,9999,1631364168
14,15,Jits_Phase_8,46,9999,9999,9999,9999,1632164940
14,15,Jits_Phase_8,47,9999,9999,9999,9999,1632964720
14,15,Jits_Phase_8,48,9999,9999,9999,9999,1633784940
14,15,Jits_Phase_8,49,9999,9999,9999,9999,1634584660
14,15,Jits_Phase_8,50,9999,9999,9999,9999,1635384376
14,15,Jits_Phase_8,51,9999,9999,9999,9999,1636184128
14,15,Jits_Phase_8,52,9999,9999,9999,9999,1636984908
14,15,Jits_Phase_8,53,9999,9999,9999,9999,1637784700
14,15,Jits_Phase_8,54,9999,9999,9999,9999,1638584412
14,15,Jits_Phase_8,55,9999,9999,9999,9999,1639384144
14,15,Jits_Phase_8,56,9999,9999,9999,9999,1640184892
14,15,Jits_Phase_8,57,9999,9999,9999,9999,1640984692
14,15,Jits_Phase_8,58,9999,9999,9999,9999,1641784420
14,15,Jits_Phase_8,59,9999,9999,9999,9999,1642584156
14,15,Jits_Phase_8,60,9999,9999,9999,9999,1643384912
14,15,Jits_Phase_8,61,9999,9999,9999,9999,1644184700
14,15,Jits_Phase_8,62,9999,9999,9999,9999,1644984408
14,15,Jits_Phase_8,63,9999,9999,9999,9999,1645784188
14,15,Jits_Phase_8,64,9999,9999,9999,9999,1646624892
14,15,Jits_Phase_8,65,9999,9999,9999,9999,1647424608
14,15,Jits_Phase_8,66,9999,9999,9999,9999,1648224356
14,15,Jits_Phase_8,67,9999,9999,9999,9999,1649024076
14,15,Jits_Phase_8,68,9999,9999,9999,9999,1649824896
14,15,Jits_Phase_8,69,9999,9999,9999,9999,1650624620
14,15,Jits_Phase_8,70,9999,9999,9999,9999,1651424340
14,15,Jits_Phase_8,71,9999,9999,9999,9999,1652224064
14,15,Jits_Phase_8,72,9999,9999,9999,9999,1653024892
14,15,Jits_Phase_8,73,9999,9999,9999,9999,1653824616
14,15,Jits_Phase_8,74,9999,9999,9999,9999,1654624372
14,15,Jits_Phase_8,75,9999,9999,9999,9999,1655424088
14,15,Jits_Phase_8,76,9999,9999,9999,9999,1656224840
14,15,Jits_Phase_8,77,9999,9999,9999,9999,1657024568
14,15,Jits_Phase_8,78,9999,9999,9999,9999,1657824364
14,15,Jits_Phase_8,79,9999,9999,9999,9999,1658624092
14,15,Jits_Phase_8,80,9999,9999,9999,9999,1659424848
14,15,Jits_Phase_8,81,9999,9999,9999,9999,1660184692
14,15,Jits_Phase_8,82,9999,9999,9999,9999,1660984404
14,15,Jits_Phase_8,83,9999,9999,9999,9999,1661784140
14,15,Jits_Phase_8,84,9999,9999,9999,9999,1662584904
14,15,Jits_Phase_8,85,9999,9999,9999,9999,1663384636
14,15,Jits_Phase_8,86,9999,9999,9999,9999,1664184436
14,15,Jits_Phase_8,87,9999,9999,9999,9999,1664984148
14,15,Jits_Phase_8,88,9999,9999,9999,9999,1665784900
14,15,Jits_Phase_8,89,9999,9999,9999,9999,1666584696
14,15,Jits_Phase_8,90,9999,9999,9999,9999,1667384416
14,15,Jits_Phase_8,91,9999,9999,9999,9999,1668184152
14,15,Jits_Phase_8,92,9999,9999,9999,9999,1668984928
14,15,Jits_Phase_8,93,9999,9999,9999,9999,1669784636
14,15,Jits_Phase_8,94,9999,9999,9999,9999,1670584420
14,15,Jits_Phase_8,95,9999,9999,9999,9999,1671384148
14,15,Jits_Phase_8,96,9999,9999,9999,9999,1672184920
14,15,Jits_Phase_8,97,9999,9999,9999,9999,1672904756
14,15,Jits_Phase_8,98,9999,9999,9999,9999,1673704556
14,15,Jits_Phase_8,99,9999,9999,9999,9999,1674504288
14,15,Jits_Phase_8,100,9999,9999,9999,9999,1675305048
14,15,Jits_Phase_8,101,9999,9999,9999,9999,1676104788
14,15,Jits_Phase_8,102,9999,9999,9999,9999,1676904512
14,15,Jits_Phase_8,103,9999,9999,9999,9999,1677704300
14,15,Jits_Phase_8,104,9999,9999,9999,9999,1678505072
14,15,Jits_Phase_8,105,9999,9999,9999,9999,1679304792
14,15,Jits_Phase_8,106,9999,9999,9999,9999,1680104572
14,15,Jits_Phase_8,107,9999,9999,9999,9999,1680904264
14,15,Jits_Phase_8,108,9999,9999,9999,9999,1681705020
14,15,Jits_Phase_8,109,9999,9999,9999,9999,1682504828
14,15,Jits_Phase_8,110,9999,9999,9999,9999,1683304552
14,15,Jits_Phase_8,111,9999,9999,9999,9999,1684104268
14,15,Jits_Phase_8,112,9999,9999,9999,9999,1684905032
14,15,Jits_Phase_8,113,9999,9999,9999,9999,1685704760
14,15,Jits_Phase_8,114,9999,9999,9999,9999,1686584432
14,15,Jits_Phase_8,115,9999,9999,9999,9999,1687384172
14,15,Jits_Phase_8,116,9999,9999,9999,9999,1688184912
14,15,Jits_Phase_8,117,9999,9999,9999,9999,1688984632
14,15,Jits_Phase_8,118,9999,9999,9999,9999,1689784436
14,15,Jits_Phase_8,119,9999,9999,9999,9999,1690584156
14,15,Jits_Phase_8,120,9999,9999,9999,9999,1691384920
14,15,Jits_Phase_8,121,9999,9999,9999,9999,1692184632
14,15,Jits_Phase_8,122,9999,9999,9999,9999,1692984412
14,15,Jits_Phase_8,123,9999,9999,9999,9999,1693784140
14,15,Jits_Phase_8,124,9999,9999,9999,9999,1694584904
14,15,Jits_Phase_8,125,9999,9999,9999,9999,1695384696
14,15,Jits_Phase_8,126,9999,9999,9999,9999,1696184416
14,15,Jits_Phase_8,127,9999,9999,9999,9999,1696984132
14,15,Jits_Phase_8,128,9999,9999,9999,9999,1697784892
14,15,Jits_Phase_8,129,9999,9999,9999,9999,1698584692
14,15,Jits_Phase_8,130,9999,9999,9999,9999,1699384432
14,15,Jits_Phase_8,131,9999,9999,9999,9999,1700344956
14,15,Jits_Phase_8,132,9999,9999,9999,9999,1701144680
14,15,Jits_Phase_8,133,9999,9999,9999,9999,1701944400
14,15,Jits_Phase_8,134,9999,9999,9999,9999,1702744136
14,15,Jits_Phase_8,135,9999,9999,9999,9999,1703544956
14,15,Jits_Phase_8,136,9999,9999,9999,9999,1704344644
14,15,Jits_Phase_8,137,9999,9999,9999,9999,1705144380
14,15,Jits_Phase_8,138,9999,9999,9999,9999,1705944180
14,15,Jits_Phase_8,139,9999,9999,9999,9999,1706744948
14,15,Jits_Phase_8,140,9999,9999,9999,9999,1707544664
14,15,Jits_Phase_8,141,9999,9999,9999,9999,1708344372
14,15,Jits_Phase_8,142,9999,9999,9999,9999,1709144120
14,15,Jits_Phase_8,143,9999,9999,9999,9999,1709944952
14,15,Jits_Phase_8,144,9999,9999,9999,9999,1710744676
14,15,Jits_Phase_8,145,9999,9999,9999,9999,1711544392
14,15,Jits_Phase_8,146,9999,9999,9999,9999,1712344180
14,15,Jits_Phase_8,147,9999,9999,9999,9999,1713144936
14,15,Jits_Phase_8,148,9999,9999,9999,9999,1713944640
14,15,Jits_Phase_8,149,9999,9999,9999,9999,1714744424
14,15,Jits_Phase_8,150,9999,9999,9999,9999,1715384388
14,15,Jits_Phase_8,151,9999,9999,9999,9999,1716184188
14,15,Jits_Phase_8,152,9999,9999,9999,9999,1716984888
14,15,Jits_Phase_8,153,9999,9999,9999,9999,1717784680
14,15,Jits_Phase_8,154,9999,9999,9999,9999,1718584384
14,15,Jits_Phase_8,155,9999,9999,9999,9999,1719384128
14,15,Jits_Phase_8,156,9999,9999,9999,9999,1720184960
14,15,Jits_Phase_8,157,9999,9999,9999,9999,1720984668
14,15,Jits_Phase_8,158,9999,9999,9999,9999,1721784384
14,15,Jits_Phase_8,159,9999,9999,9999,9999,1722584180
14,15,Jits_Phase_8,160,9999,9999,9999,9999,1723384956
14,15,Jits_Phase_8,161,9999,9999,9999,9999,1724184664
14,15,Jits_Phase_8,162,9999,9999,9999,9999,1724984384
14,15,Jits_Phase_8,163,9999,9999,9999,9999,1725784120
14,15,Jits_Phase_8,164,9999,9999,9999,9999,1726584948
14,15,Jits_Phase_8,165,9999,9999,9999,9999,1727384660
14,15,Jits_Phase_8,166,9999,9999,9999,9999,1728184388
14,15,Jits_Phase_8,167,9999,9999,9999,9999,1728984176
14,15,Jits_Phase_8,168,9999,9999,9999,9999,1729784948
14,15,Jits_Phase_8,169,9999,9999,9999,9999,1730584672
15,16,Jits_ISO_5,0,5,56,103,1741567296
15,16,Jits_ISO_5,1,5,63,98,1741570160
15,16,Jits_ISO_5,2,5,80,127,1741573504
15,16,Jits_ISO_5,0,5,56,103,1742067072
15,16,Jits_ISO_5,1,5,63,98,1742070164
15,16,Jits_ISO_5,2,5,80,127,1742073208
15,16,Jits_ISO_5,3,1,48,45,1742253064
15,16,Jits_ISO_5,0,5,56,103,1742566908
15,16,Jits_ISO_5,1,5,80,127,1742577088
15,16,Jits_ISO_5,2,5,63,98,1742596316
15,16,Jits_ISO_5,3,1,48,52,1742646992
15,16,Jits_ISO_5,0,5,63,98,1743017308
15,16,Jits_ISO_5,1,5,80,127,1743047156
15,16,Jits_ISO_5,2,5,56,103,1743057260
15,16,Jits_ISO_5,3,1,48,49,1743104428
15,16,Jits_ISO_5,0,5,80,127,1743576288
15,16,Jits_ISO_5,1,5,56,103,1743586912
15,16,Jits_ISO_5,2,1,48,55,1743592040
15,16,Jits_ISO_5,3,5,63,98,1743617352
15,16,Jits_ISO_5,0,5,63,98,1744066852
15,16,Jits_ISO_5,1,5,56,103,1744096704
15,16,Jits_ISO_5,2,5,80,127,1744106808
15,16,Jits_ISO_5,3,1,48,54,1744124344
15,16,Jits_ISO_5,0,5,56,103,1744516716
15,16,Jits_ISO_5,1,5,63,98,1744566832
15,16,Jits_ISO_5,2,5,80,127,1744587036
15,16,Jits_ISO_5,3,1,48,56,1744613552
15,16,Jits_ISO_5,0,5,80,127,1745017228
15,16,Jits_ISO_5,1,5,63,98,1745067420
15,16,Jits_ISO_5,2,1,48,57,1745094452
15,16,Jits_ISO_5,3,5,56,103,1745107280
15,16,Jits_ISO_5,0,5,56,103,1745516840
15,16,Jits_ISO_5,1,5,63,98,1745546840
15,16,Jits_ISO_5,2,1,48,53,1745600808
15,16,Jits_ISO_5,3,5,80,127,1745617140
15,16,Jits_ISO_5,0,5,56,103,1746016676
15,16,Jits_ISO_5,1,5,80,127,1746077116
15,16,Jits_ISO_5,2,1,48,56,1746101836
15,16,Jits_ISO_5,3,5,63,98,1746107028
15,16,Jits_ISO_5,0,5,56,103,1746526684
15,16,Jits_ISO_5,1,5,63,98,1746536788
15,16,Jits_ISO_5,2,5,80,127,1746576884
15,16,Jits_ISO_5,3,1,48,50,1746601680
15,16,Jits_ISO_5,0,5,63,98,1747017024
15,16,Jits_ISO_5,1,1,48,55,1747063060
15,16,Jits_ISO_5,2,5,80,127,1747096900
15,16,Jits_ISO_5,3,5,56,103,1747107156
15,16,Jits_ISO_5,0,1,48,55,1747552708
15,16,Jits_ISO_5,1,5,63,98,1747566956
15,16,Jits_ISO_5,2,5,56,103,1747606900
15,16,Jits_ISO_5,3,5,80,127,1747609812
15,16,Jits_ISO_5,0,5,56,103,1748026740
15,16,Jits_ISO_5,1,5,63,98,1748037092
15,16,Jits_ISO_5,2,5,80,127,1748076960
15,16,Jits_ISO_5,3,1,48,66,1748083656
15,16,Jits_ISO_5,0,5,56,103,1748517372
15,16,Jits_ISO_5,1,5,63,98,1748520580
15,16,Jits_ISO_5,2,5,80,127,1748536824
15,16,Jits_ISO_5,3,1,48,60,1748561792
15,16,Jits_ISO_5,0,5,80,127,1749027364
15,16,Jits_ISO_5,1,5,56,103,1749037912
15,16,Jits_ISO_5,2,1,48,62,1749058012
15,16,Jits_ISO_5,3,5,63,98,1749107024
15,16,Jits_ISO_5,0,5,63,98,1749516632
15,16,Jits_ISO_5,1,5,56,103,1749537132
15,16,Jits_ISO_5,2,1,48,61,1749546312
15,16,Jits_ISO_5,3,5,80,127,1749616956
15,16,Jits_ISO_5,0,5,56,103,1750026700
15,16,Jits_ISO_5,1,5,80,127,1750066648
15,16,Jits_ISO_5,2,5,63,98,1750076756
15,16,Jits_ISO_5,3,1,48,60,1750077644
15,16,Jits_ISO_5,0,5,80,127,1750527508
15,16,Jits_ISO_5,1,5,63,98,1750556912
15,16,Jits_ISO_5,2,1,48,58,1750577004
15,16,Jits_ISO_5,3,5,56,103,1750597024
15,16,Jits_ISO_5,0,5,56,103,1751046424
15,16,Jits_ISO_5,1,5,63,98,1751077316
15,16,Jits_ISO_5,2,1,48,57,1751097488
15,16,Jits_ISO_5,3,5,80,127,1751127524
15,16,Jits_ISO_5,0,5,80,127,1751547452
15,16,Jits_ISO_5,1,1,48,60,1751586800
15,16,Jits_ISO_5,2,5,56,103,1751588512
15,16,Jits_ISO_5,3,5,63,98,1751597644
15,16,Jits_ISO_5,0,5,80,127,1752026500
15,16,Jits_ISO_5,1,5,63,98,1752066520
15,16,Jits_ISO_5,2,1,48,60,1752089228
15,16,Jits_ISO_5,3,5,56,103,1752126800
15,16,Jits_ISO_5,0,5,56,103,1752527384
15,16,Jits_ISO_5,1,5,80,127,1752536368
15,16,Jits_ISO_5,2,1,48,66,1752615552
15,16,Jits_ISO_5,3,5,63,98,1752617436
15,16,Jits_ISO_5,0,5,80,127,1753026920
15,16,Jits_ISO_5,1,5,63,98,1753087432
15,16,Jits_ISO_5,2,5,56,103,1753117132
15,16,Jits_ISO_5,3,1,48,61,1753142972
15,16,Jits_ISO_5,0,5,56,103,1753526612
15,16,Jits_ISO_5,1,5,80,127,1753587272
15,16,Jits_ISO_5,2,5,63,98,1753626992
15,16,Jits_ISO_5,3,1,48,51,1753630624
15,16,Jits_ISO_5,0,5,56,103,1754076488
15,16,Jits_ISO_5,1,5,63,98,1754086740
15,16,Jits_ISO_5,2,5,80,127,1754090396
15,16,Jits_ISO_5,3,1,48,67,1754143612
15,16,Jits_ISO_5,0,5,80,127,1754527248
15,16,Jits_ISO_5,1,5,63,98,1754617232
15,16,Jits_ISO_5,2,1,48,63,1754621316
15,16,Jits_ISO_5,3,5,56,103,1754626580
15,16,Jits_ISO_5,0,5,56,103,1755026772
15,16,Jits_ISO_5,1,5,63,98,1755029940
15,16,Jits_ISO_5,2,5,80,127,1755033280
15,16,Jits_ISO_5,3,1,48,55,1755122400
15,16,Jits_ISO_5,0,5,80,127,1755547096
15,16,Jits_ISO_5,1,5,63,98,1755597364
15,16,Jits_ISO_5,2,1,48,65,1755613184
15,16,Jits_ISO_5,3,5,56,103,1755626832
15,16,Jits_ISO_5,0,5,56,103,1756027340
15,16,Jits_ISO_5,1,5,80,127,1756036328
15,16,Jits_ISO_5,2,5,63,98,1756107156
15,16,Jits_ISO_5,3,1,48,61,1756122304
15,16,Jits_ISO_5,0,5,56,103,1756537200
15,16,Jits_ISO_5,1,5,63,98,1756556508
15,16,Jits_ISO_5,2,5,80,127,1756617236
15,16,Jits_ISO_5,3,1,48,63,1756636216
15,16,Jits_ISO_5,0,5,80,127,1757026640
15,16,Jits_ISO_5,1,5,63,98,1757097248
15,16,Jits_ISO_5,2,1,48,62,1757112996
15,16,Jits_ISO_5,3,5,56,103,1757116696
15,16,Jits_ISO_5,0,5,80,127,1757547120
15,16,Jits_ISO_5,1,5,56,103,1757557372
15,16,Jits_ISO_5,2,5,63,98,1757567404
15,16,Jits_ISO_5,3,1,48,58,1757625864
15,16,Jits_ISO_5,0,5,80,127,1758037308
15,16,Jits_ISO_5,1,5,56,103,1758056984
15,16,Jits_ISO_5,2,1,48,53,1758092176
15,16,Jits_ISO_5,3,5,63,98,1758126540
15,16,Jits_ISO_5,0,5,56,103,1758547244
15,16,Jits_ISO_5,1,1,48,62,1758572864
15,16,Jits_ISO_5,2,5,80,127,1758577308
15,16,Jits_ISO_5,3,5,63,98,1758596392
15,16,Jits_ISO_5,0,5,63,98,1759036888
15,16,Jits_ISO_5,1,5,56,103,1759097276
15,16,Jits_ISO_5,2,1,48,55,1759099564
15,16,Jits_ISO_5,3,5,80,127,1759127188
15,16,Jits_ISO_5,0,5,63,98,1759527212
15,16,Jits_ISO_5,1,5,80,127,1759530568
15,16,Jits_ISO_5,2,1,48,60,1759596316
15,16,Jits_ISO_5,3,5,56,103,1759617504
15,16,Jits_ISO_5,0,5,56,103,1760046476
15,16,Jits_ISO_5,1,5,63,98,1760077320
15,16,Jits_ISO_5,2,1,48,50,1760080504
15,16,Jits_ISO_5,3,5,80,127,1760117256
15,16,Jits_ISO_5,0,5,63,98,1760547136
15,16,Jits_ISO_5,1,1,48,37,1760562884
15,16,Jits_ISO_5,2,5,56,103,1760587248
15,16,Jits_ISO_5,3,5,80,127,1760606480
15,16,Jits_ISO_5,0,5,63,98,1761057128
15,16,Jits_ISO_5,1,1,48,52,1761079536
15,16,Jits_ISO_5,2,5,56,103,1761097088
15,16,Jits_ISO_5,3,5,80,127,1761107192
15,16,Jits_ISO_5,0,5,80,127,1761537356
15,16,Jits_ISO_5,1,1,48,48,1761601672
15,16,Jits_ISO_5,2,5,63,98,1761606936
15,16,Jits_ISO_5,3,5,56,103,1761626464
15,16,Jits_ISO_5,0,5,56,103,1762027096
15,16,Jits_ISO_5,1,5,80,127,1762047296
15,16,Jits_ISO_5,2,5,63,98,1762087168
15,16,Jits_ISO_5,3,1,48,48,1762098660
15,16,Jits_ISO_5,0,5,63,98,1762536952
15,16,Jits_ISO_5,1,5,80,127,1762557304
15,16,Jits_ISO_5,2,1,48,40,1762595432
15,16,Jits_ISO_5,3,5,56,103,1762597240
15,16,Jits_ISO_5,0,5,63,98,1763036400
15,16,Jits_ISO_5,1,5,56,103,1763057048
15,16,Jits_ISO_5,2,1,48,47,1763065948
15,16,Jits_ISO_5,3,5,80,127,1763067592
15,16,Jits_ISO_5,0,5,80,127,1763537192
15,16,Jits_ISO_5,1,1,48,35,1763553684
15,16,Jits_ISO_5,2,5,56,103,1763557008
15,16,Jits_ISO_5,3,5,63,98,1763586336
15,16,Jits_ISO_5,0,1,48,44,1764057984
15,16,Jits_ISO_5,1,5,56,103,1764106700
15,16,Jits_ISO_5,2,5,80,127,1764109836
15,16,Jits_ISO_5,3,5,63,98,1764127052
15,16,Jits_ISO_5,0,5,63,98,1764526576
15,16,Jits_ISO_5,1,5,56,103,1764557096
15,16,Jits_ISO_5,2,1,48,29,1764596936
15,16,Jits_ISO_5,3,5,80,127,1764616704
15,16,Jits_ISO_5,0,1,48,60,1765060764
15,16,Jits_ISO_5,1,5,63,98,1765107164
15,16,Jits_ISO_5,2,5,56,103,1765117420
15,16,Jits_ISO_5,3,5,80,127,1765126704
15,16,Jits_ISO_5,0,5,56,103,1765556740
15,16,Jits_ISO_5,1,1,48,42,1765584156
15,16,Jits_ISO_5,2,5,80,127,1765587256
15,16,Jits_ISO_5,3,5,63,98,1765596464
15,16,Jits_ISO_5,0,1,48,54,1766049588
15,16,Jits_ISO_5,1,5,63,98,1766097260
15,16,Jits_ISO_5,2,5,56,103,1766106768
15,16,Jits_ISO_5,3,5,80,127,1766126820
15,16,Jits_ISO_5,0,5,56,103,1766527316
15,16,Jits_ISO_5,1,1,48,50,1766577028
15,16,Jits_ISO_5,2,5,63,98,1766586700
15,16,Jits_ISO_5,3,5,80,127,1766589908
15,16,Jits_ISO_5,0,5,80,127,1767046812
15,16,Jits_ISO_5,1,5,56,103,1767056844
15,16,Jits_ISO_5,2,1,48,58,1767078060
15,16,Jits_ISO_5,3,5,63,98,1767127444
15,16,Jits_ISO_5,0,5,80,127,1767537000
15,16,Jits_ISO_5,1,1,48,49,1767583560
15,16,Jits_ISO_5,2,5,56,103,1767606784
15,16,Jits_ISO_5,3,5,63,98,1767616888
15,16,Jits_ISO_5,0,5,63,98,1768076632
15,16,Jits_ISO_5,1,5,56,103,1768086888
15,16,Jits_ISO_5,2,1,48,67,1768090076
15,16,Jits_ISO_5,3,5,80,127,1768107600
15,16,Jits_ISO_5,0,5,80,127,1768527096
15,16,Jits_ISO_5,1,5,63,98,1768586860
15,16,Jits_ISO_5,2,1,48,50,1768600596
15,16,Jits_ISO_5,3,5,56,103,1768626872
15,16,Jits_ISO_5,0,5,56,103,1769066948
15,16,Jits_ISO_5,1,5,63,98,1769077052
15,16,Jits_ISO_5,2,1,48,56,1769103420
15,16,Jits_ISO_5,3,5,80,127,1769117140
15,16,Jits_ISO_5,0,5,56,103,1769526748
15,16,Jits_ISO_5,1,5,80,127,1769557296
15,16,Jits_ISO_5,2,1,48,35,1769583584
15,16,Jits_ISO_5,3,5,63,98,1769606728
15,16,Jits_ISO_5,0,5,56,103,1770067592
15,16,Jits_ISO_5,1,1,48,68,1770080432
15,16,Jits_ISO_5,2,5,63,98,1770107236
15,16,Jits_ISO_5,3,5,80,127,1770110740
15,16,Jits_ISO_5,0,5,56,103,1770567052
15,16,Jits_ISO_5,1,1,48,48,1770577752
15,16,Jits_ISO_5,2,5,63,98,1770579168
15,16,Jits_ISO_5,3,5,80,127,1770596680
15,16,Jits_ISO_5,0,5,56,103,1771026776
15,16,Jits_ISO_5,1,5,80,127,1771029912
15,16,Jits_ISO_5,2,1,48,53,1771050604
15,16,Jits_ISO_5,3,5,63,98,1771066712
15,16,Jits_ISO_5,0,1,48,33,1771495000
15,16,Jits_ISO_5,1,5,63,98,1771566380
15,16,Jits_ISO_5,2,5,56,103,1771597208
15,16,Jits_ISO_5,3,5,80,127,1771616660
15,16,Jits_ISO_5,0,1,48,48,1772030496
15,16,Jits_ISO_5,1,5,80,127,1772036584
15,16,Jits_ISO_5,2,5,56,103,1772046692
15,16,Jits_ISO_5,3,5,63,98,1772056868
15,16,Jits_ISO_5,0,5,56,103,1772537528
15,16,Jits_ISO_5,1,1,48,27,1772540344
15,16,Jits_ISO_5,2,5,80,127,1772577468
15,16,Jits_ISO_5,3,5,63,98,1772606872
15,16,Jits_ISO_5,0,1,48,47,1773034728
15,16,Jits_ISO_5,1,5,63,98,1773047088
15,16,Jits_ISO_5,2,5,80,127,1773057488
15,16,Jits_ISO_5,3,5,56,103,1773066624
15,16,Jits_ISO_5,0,5,56,103,1773527764
15,16,Jits_ISO_5,1,1,48,37,1773546368
15,16,Jits_ISO_5,2,5,63,98,1773597100
15,16,Jits_ISO_5,3,5,80,127,1773607424
15,16,Jits_ISO_5,0,5,80,127,1774027080
15,16,Jits_ISO_5,1,5,56,103,1774037408
15,16,Jits_ISO_5,2,1,48,35,1774050472
15,16,Jits_ISO_5,3,5,63,98,1774086548
15,16,Jits_ISO_5,0,1,48,38,1774493892
15,16,Jits_ISO_5,1,5,80,127,1774537008
15,16,Jits_ISO_5,2,5,56,103,1774596460
15,16,Jits_ISO_5,3,5,63,98,1774627276
15,16,Jits_ISO_5,0,5,56,103,1775036912
15,16,Jits_ISO_5,1,5,80,127,1775040044
15,16,Jits_ISO_5,2,5,63,98,1775076856
15,16,Jits_ISO_5,3,1,48,52,1775100084
15,16,Jits_ISO_5,0,5,56,103,1775567252
15,16,Jits_ISO_5,1,1,48,18,1775578744
15,16,Jits_ISO_5,2,5,63,98,1775596948
15,16,Jits_ISO_5,3,5,80,127,1775607272
15,16,Jits_ISO_5,0,1,48,38,1776057940
15,16,Jits_ISO_5,1,5,63,98,1776077112
15,16,Jits_ISO_5,2,5,80,127,1776087292
15,16,Jits_ISO_5,3,5,56,103,1776096500
15,16,Jits_ISO_5,0,1,48,16,1776486416
15,16,Jits_ISO_5,1,5,80,127,1776526824
15,16,Jits_ISO_5,2,5,56,103,1776577088
15,16,Jits_ISO_5,3,5,63,98,1776580880
15,16,Jits_ISO_5,0,5,56,103,1777057156
15,16,Jits_ISO_5,1,5,80,127,1777076460
15,16,Jits_ISO_5,2,5,63,98,1777087012
15,16,Jits_ISO_5,3,1,38,12,1777133564
15,16,Jits_ISO_5,0,5,63,98,1777537324
15,16,Jits_ISO_5,1,5,56,103,1777567244
15,16,Jits_ISO_5,2,5,80,127,1777586400
15,16,Jits_ISO_5,3,1,48,44,1777657124
15,16,Jits_ISO_5,0,5,56,103,1778047392
15,16,Jits_ISO_5,1,5,80,127,1778056528
15,16,Jits_ISO_5,2,1,48,59,1778095248
15,16,Jits_ISO_5,3,5,63,98,1778127200
15,16,Jits_ISO_5,0,5,63,98,1778536836
15,16,Jits_ISO_5,1,5,80,127,1778576708
15,16,Jits_ISO_5,2,1,48,58,1778594468
15,16,Jits_ISO_5,3,5,56,103,1778616644
15,16,Jits_ISO_5,0,5,56,103,1779046684
15,16,Jits_ISO_5,1,5,63,98,1779057084
15,16,Jits_ISO_5,2,5,80,127,1779076388
15,16,Jits_ISO_5,3,1,48,53,1779092584
15,16,Jits_ISO_5,0,5,63,98,1779586384
15,16,Jits_ISO_5,1,1,48,56,1779599444
15,16,Jits_ISO_5,2,5,80,127,1779607024
15,16,Jits_ISO_5,3,5,56,103,1779627300
15,16,Jits_ISO_5,0,5,56,103,1780026728
15,16,Jits_ISO_5,1,1,48,58,1780096808
15,16,Jits_ISO_5,2,5,80,127,1780106556
15,16,Jits_ISO_5,3,5,63,98,1780117104
15,16,Jits_ISO_5,0,5,80,127,1780567356
15,16,Jits_ISO_5,1,5,63,98,1780576636
15,16,Jits_ISO_5,2,5,56,103,1780607380
15,16,Jits_ISO_5,3,1,48,59,1780618648
15,16,Jits_ISO_5,0,5,63,98,1781027304
15,16,Jits_ISO_5,1,5,80,127,1781067272
15,16,Jits_ISO_5,2,1,48,51,1781118108
15,16,Jits_ISO_5,3,5,56,103,1781126432
15,16,Jits_ISO_5,0,5,63,98,1781537076
15,16,Jits_ISO_5,1,1,48,47,1781585328
15,16,Jits_ISO_5,2,5,56,103,1781587212
15,16,Jits_ISO_5,3,5,80,127,1781617208
15,16,Jits_ISO_5,0,5,80,127,1782047148
15,16,Jits_ISO_5,1,5,63,98,1782057252
15,16,Jits_ISO_5,2,1,48,57,1782088512
15,16,Jits_ISO_5,3,5,56,103,1782126904
15,16,Jits_ISO_5,0,1,48,49,1782581948
15,16,Jits_ISO_5,1,5,80,127,1782616416
15,16,Jits_ISO_5,2,5,56,103,1782627116
15,16,Jits_ISO_5,3,5,63,98,1782630096
15,16,Jits_ISO_5,0,5,56,103,1783056900
15,16,Jits_ISO_5,1,5,80,127,1783077176
15,16,Jits_ISO_5,2,5,63,98,1783086384
15,16,Jits_ISO_5,3,1,48,48,1783139776
15,16,Jits_ISO_5,0,5,63,98,1783566908
15,16,Jits_ISO_5,1,1,48,55,1783589996
15,16,Jits_ISO_5,2,5,56,103,1783606624
15,16,Jits_ISO_5,3,5,80,127,1783627072
15,16,Jits_ISO_5,0,5,63,98,1784066364
15,16,Jits_ISO_5,1,1,48,50,1784069100
15,16,Jits_ISO_5,2,5,56,103,1784127016
15,16,Jits_ISO_5,3,5,80,127,1784130148
15,16,Jits_ISO_5,0,5,56,103,1784527112
15,16,Jits_ISO_5,1,5,80,127,1784546936
15,16,Jits_ISO_5,2,1,48,54,1784577576
15,16,Jits_ISO_5,3,5,63,98,1784586724
15,16,Jits_ISO_5,0,5,56,103,1785056564
15,16,Jits_ISO_5,1,1,48,58,1785058352
15,16,Jits_ISO_5,2,5,63,98,1785077056
15,16,Jits_ISO_5,3,5,80,127,1785087236
15,16,Jits_ISO_5,0,5,80,127,1785526856
15,16,Jits_ISO_5,1,1,48,53,1785548000
15,16,Jits_ISO_5,2,5,56,103,1785557224
15,16,Jits_ISO_5,3,5,63,98,1785597240
15,16,Jits_ISO_5,0,5,80,127,1786036936
15,16,Jits_ISO_5,1,5,56,103,1786057068
15,16,Jits_ISO_5,2,1,48,51,1786058552
15,16,Jits_ISO_5,3,5,63,98,1786116896
15,16,Jits_ISO_5,0,5,56,103,1786546500
15,16,Jits_ISO_5,1,1,48,63,1786550660
15,16,Jits_ISO_5,2,5,80,127,1786566920
15,16,Jits_ISO_5,3,5,63,98,1786626532
15,16,Jits_ISO_5,0,5,80,127,1787026968
15,16,Jits_ISO_5,1,5,56,103,1787037072
15,16,Jits_ISO_5,2,1,48,49,1787059780
15,16,Jits_ISO_5,3,5,63,98,1787076932
15,16,Jits_ISO_5,0,5,63,98,1787526648
15,16,Jits_ISO_5,1,1,48,45,1787545776
15,16,Jits_ISO_5,2,5,56,103,1787566440
15,16,Jits_ISO_5,3,5,80,127,1787569572
15,16,Jits_ISO_5,0,1,48,52,1788022752
15,16,Jits_ISO_5,1,5,63,98,1788046648
15,16,Jits_ISO_5,2,5,80,127,1788086744
15,16,Jits_ISO_5,3,5,56,103,1788117264
15,16,Jits_ISO_5,0,5,56,103,1788537132
15,16,Jits_ISO_5,1,5,63,98,1788546340
15,16,Jits_ISO_5,2,1,48,52,1788564252
15,16,Jits_ISO_5,3,5,80,127,1788577004
15,16,Jits_ISO_5,0,5,80,127,1789026796
15,16,Jits_ISO_5,1,1,48,53,1789045396
15,16,Jits_ISO_5,2,5,63,98,1789097620
15,16,Jits_ISO_5,3,5,56,103,1789106680
15,16,Jits_ISO_5,0,5,63,98,1789527532
15,16,Jits_ISO_5,1,1,48,51,1789536488
15,16,Jits_ISO_5,2,5,56,103,1789597012
15,16,Jits_ISO_5,3,5,80,127,1789607268
15,16,Jits_ISO_5,0,5,63,98,1790027132
15,16,Jits_ISO_5,1,1,48,60,1790044540
15,16,Jits_ISO_5,2,5,56,103,1790046652
15,16,Jits_ISO_5,3,5,80,127,1790086600
15,16,Jits_ISO_5,0,5,56,103,1790536976
15,16,Jits_ISO_5,1,1,48,46,1790547524
15,16,Jits_ISO_5,2,5,63,98,1790549016
15,16,Jits_ISO_5,3,5,80,127,1790627100
15,16,Jits_ISO_5,0,1,48,56,1791013632
15,16,Jits_ISO_5,1,5,63,98,1791026612
15,16,Jits_ISO_5,2,5,56,103,1791057156
15,16,Jits_ISO_5,3,5,80,127,1791097176
15,16,Jits_ISO_5,0,1,48,52,1791495144
15,16,Jits_ISO_5,1,5,56,103,1791527552
15,16,Jits_ISO_5,2,5,63,98,1791567300
15,16,Jits_ISO_5,3,5,80,127,1791607084
15,16,Jits_ISO_5,0,1,48,63,1792010300
15,16,Jits_ISO_5,1,5,80,127,1792026856
15,16,Jits_ISO_5,2,5,56,103,1792106752
15,16,Jits_ISO_5,3,5,63,98,1792117080
15,16,Jits_ISO_5,0,1,48,40,1792503904
15,16,Jits_ISO_5,1,5,56,103,1792566692
15,16,Jits_ISO_5,2,5,63,98,1792569604
15,16,Jits_ISO_5,3,5,80,127,1792576968
15,16,Jits_ISO_5,0,5,56,103,1793087096
15,16,Jits_ISO_5,1,1,48,46,1793089988
15,16,Jits_ISO_5,2,5,63,98,1793107512
15,16,Jits_ISO_5,3,5,80,127,1793116424
15,16,Jits_ISO_5,0,5,63,98,1793546524
15,16,Jits_ISO_5,1,5,80,127,1793556704
15,16,Jits_ISO_5,2,1,48,65,1793570804
15,16,Jits_ISO_5,3,5,56,103,1793577420
15,16,Jits_ISO_5,0,5,63,98,1794047540
15,16,Jits_ISO_5,1,1,48,41,1794071220
15,16,Jits_ISO_5,2,5,56,103,1794127440
15,16,Jits_ISO_5,3,5,80,127,1794130500
15,16,Jits_ISO_5,0,1,48,66,1794545708
15,16,Jits_ISO_5,1,5,63,98,1794547572
15,16,Jits_ISO_5,2,5,56,103,1794566732
15,16,Jits_ISO_5,3,5,80,127,1794597324
15,16,Jits_ISO_5,0,5,56,103,1795046736
15,16,Jits_ISO_5,1,5,63,98,1795067604
15,16,Jits_ISO_5,2,1,48,56,1795073112
15,16,Jits_ISO_5,3,5,80,127,1795076360
15,16,Jits_ISO_5,0,1,48,57,1795556040
15,16,Jits_ISO_5,1,5,56,103,1795577228
15,16,Jits_ISO_5,2,5,63,98,1795607000
15,16,Jits_ISO_5,3,5,80,127,1795610660
15,16,Jits_ISO_5,0,5,56,103,1796026644
15,16,Jits_ISO_5,1,5,63,98,1796066588
15,16,Jits_ISO_5,2,1,48,52,1796099320
15,16,Jits_ISO_5,3,5,80,127,1796126944
15,16,Jits_ISO_5,0,5,56,103,1796546824
15,16,Jits_ISO_5,1,5,63,98,1796557448
15,16,Jits_ISO_5,2,1,48,53,1796566552
15,16,Jits_ISO_5,3,5,80,127,1796616536
15,16,Jits_ISO_5,0,1,48,57,1797039444
15,16,Jits_ISO_5,1,5,56,103,1797046652
15,16,Jits_ISO_5,2,5,80,127,1797067224
15,16,Jits_ISO_5,3,5,63,98,1797096848
15,16,Jits_ISO_5,0,1,48,39,1797525136
15,16,Jits_ISO_5,1,5,80,127,1797547372
15,16,Jits_ISO_5,2,5,56,103,1797556580
15,16,Jits_ISO_5,3,5,63,98,1797577300
15,16,Jits_ISO_5,0,1,48,54,1798025028
15,16,Jits_ISO_5,1,5,63,98,1798036796
15,16,Jits_ISO_5,2,5,80,127,1798116604
15,16,Jits_ISO_5,3,5,56,103,1798126844
15,16,Jits_ISO_5,0,1,48,63,1798568308
15,16,Jits_ISO_5,1,5,80,127,1798597056
15,16,Jits_ISO_5,2,5,56,103,1798616360
15,16,Jits_ISO_5,3,5,63,98,1798619344
15,16,Jits_ISO_5,0,5,63,98,1799067256
15,16,Jits_ISO_5,1,5,80,127,1799070468
15,16,Jits_ISO_5,2,1,48,67,1799074944
15,16,Jits_ISO_5,3,5,56,103,1799127536
15,16,Jits_ISO_5,0,5,56,103,1799547328
15,16,Jits_ISO_5,1,5,80,127,1799556388
15,16,Jits_ISO_5,2,1,48,66,1799588076
15,16,Jits_ISO_5,3,5,63,98,1799597372
15,16,Jits_ISO_5,0,5,56,103,1800026528
15,16,Jits_ISO_5,1,1,48,64,1800076912
15,16,Jits_ISO_5,2,5,63,98,1800087328
15,16,Jits_ISO_5,3,5,80,127,1800097432
15,16,Jits_ISO_5,0,5,63,98,1800536536
15,16,Jits_ISO_5,1,1,48,47,1800544892
15,16,Jits_ISO_5,2,5,80,127,1800577444
15,16,Jits_ISO_5,3,5,56,103,1800617388
15,16,Jits_ISO_5,0,5,56,103,1801037252
15,16,Jits_ISO_5,1,1,48,63,1801040588
15,16,Jits_ISO_5,2,5,63,98,1801117128
15,16,Jits_ISO_5,3,5,80,127,1801120412
15,16,Jits_ISO_5,0,9999,9999,9999,9999,1741814904
15,16,Jits_ISO_5,1,9999,9999,9999,9999,1742314600
15,16,Jits_ISO_5,2,9999,9999,9999,9999,1742814272
15,16,Jits_ISO_5,3,9999,9999,9999,9999,1743315004
15,16,Jits_ISO_5,4,9999,9999,9999,9999,1743814756
15,16,Jits_ISO_5,5,9999,9999,9999,9999,1744314444
15,16,Jits_ISO_5,6,9999,9999,9999,9999,1744814196
15,16,Jits_ISO_5,7,9999,9999,9999,9999,1745314928
15,16,Jits_ISO_5,8,9999,9999,9999,9999,1745814616
15,16,Jits_ISO_5,9,9999,9999,9999,9999,1746314304
15,16,Jits_ISO_5,10,9999,9999,9999,9999,1746815032
15,16,Jits_ISO_5,11,9999,9999,9999,9999,1747314800
15,16,Jits_ISO_5,12,9999,9999,9999,9999,1747814472
15,16,Jits_ISO_5,13,9999,9999,9999,9999,1748314216
15,16,Jits_ISO_5,14,9999,9999,9999,9999,1748814932
15,16,Jits_ISO_5,15,9999,9999,9999,9999,1749314672
15,16,Jits_ISO_5,16,9999,9999,9999,9999,1749814332
15,16,Jits_ISO_5,17,9999,9999,9999,9999,1750315128
15,16,Jits_ISO_5,18,9999,9999,9999,9999,1750825060
15,16,Jits_ISO_5,19,9999,9999,9999,9999,1751324752
15,16,Jits_ISO_5,20,9999,9999,9999,9999,1751824440
15,16,Jits_ISO_5,21,9999,9999,9999,9999,1752324204
15,16,Jits_ISO_5,22,9999,9999,9999,9999,1752824932
15,16,Jits_ISO_5,23,9999,9999,9999,9999,1753324624
15,16,Jits_ISO_5,24,9999,9999,9999,9999,1753824312
15,16,Jits_ISO_5,25,9999,9999,9999,9999,1754325116
15,16,Jits_ISO_5,26,9999,9999,9999,9999,1754824804
15,16,Jits_ISO_5,27,9999,9999,9999,9999,1755324468
15,16,Jits_ISO_5,28,9999,9999,9999,9999,1755824236
15,16,Jits_ISO_5,29,9999,9999,9999,9999,1756324964
15,16,Jits_ISO_5,30,9999,9999,9999,9999,1756824652
15,16,Jits_ISO_5,31,9999,9999,9999,9999,1757324344
15,16,Jits_ISO_5,32,9999,9999,9999,9999,1757824104
15,16,Jits_ISO_5,33,9999,9999,9999,9999,1758324840
15,16,Jits_ISO_5,34,9999,9999,9999,9999,1758824528
15,16,Jits_ISO_5,35,9999,9999,9999,9999,1759324220
15,16,Jits_ISO_5,36,9999,9999,9999,9999,1759825000
15,16,Jits_ISO_5,37,9999,9999,9999,9999,1760324680
15,16,Jits_ISO_5,38,9999,9999,9999,9999,1760824420
15,16,Jits_ISO_5,39,9999,9999,9999,9999,1761324088
15,16,Jits_ISO_5,40,9999,9999,9999,9999,1761824884
15,16,Jits_ISO_5,41,9999,9999,9999,9999,1762324572
15,16,Jits_ISO_5,42,9999,9999,9999,9999,1762824256
15,16,Jits_ISO_5,43,9999,9999,9999,9999,1763325048
15,16,Jits_ISO_5,44,9999,9999,9999,9999,1763824692
15,16,Jits_ISO_5,45,9999,9999,9999,9999,1764324452
15,16,Jits_ISO_5,46,9999,9999,9999,9999,1764824124
15,16,Jits_ISO_5,47,9999,9999,9999,9999,1765324852
15,16,Jits_ISO_5,48,9999,9999,9999,9999,1765824600
15,16,Jits_ISO_5,49,9999,9999,9999,9999,1766324296
15,16,Jits_ISO_5,50,9999,9999,9999,9999,1766825080
15,16,Jits_ISO_5,51,9999,9999,9999,9999,1767324772
15,16,Jits_ISO_5,52,9999,9999,9999,9999,1767824460
15,16,Jits_ISO_5,53,9999,9999,9999,9999,1768324148
15,16,Jits_ISO_5,54,9999,9999,9999,9999,1768824948
15,16,Jits_ISO_5,55,9999,9999,9999,9999,1769324636
15,16,Jits_ISO_5,56,9999,9999,9999,9999,1769824324
15,16,Jits_ISO_5,57,9999,9999,9999,9999,1770325052
15,16,Jits_ISO_5,58,9999,9999,9999,9999,1770824816
15,16,Jits_ISO_5,59,9999,9999,9999,9999,1771324536
15,16,Jits_ISO_5,60,9999,9999,9999,9999,1771824224
15,16,Jits_ISO_5,61,9999,9999,9999,9999,1772324936
15,16,Jits_ISO_5,62,9999,9999,9999,9999,1772824688
15,16,Jits_ISO_5,63,9999,9999,9999,9999,1773324376
15,16,Jits_ISO_5,64,9999,9999,9999,9999,1773824124
15,16,Jits_ISO_5,65,9999,9999,9999,9999,1774324852
15,16,Jits_ISO_5,66,9999,9999,9999,9999,1774824544
15,16,Jits_ISO_5,67,9999,9999,9999,9999,1775324280
15,16,Jits_ISO_5,68,9999,9999,9999,9999,1775825016
15,16,Jits_ISO_5,69,9999,9999,9999,9999,1776324708
15,16,Jits_ISO_5,70,9999,9999,9999,9999,1776824372
15,16,Jits_ISO_5,71,9999,9999,9999,9999,1777324116
15,16,Jits_ISO_5,72,9999,9999,9999,9999,1777824848
15,16,Jits_ISO_5,73,9999,9999,9999,9999,1778324600
15,16,Jits_ISO_5,74,9999,9999,9999,9999,1778824288
15,16,Jits_ISO_5,75,9999,9999,9999,9999,1779325008
15,16,Jits_ISO_5,76,9999,9999,9999,9999,1779824704
15,16,Jits_ISO_5,77,9999,9999,9999,9999,1780324452
15,16,Jits_ISO_5,78,9999,9999,9999,9999,1780824148
15,16,Jits_ISO_5,79,9999,9999,9999,9999,1781324880
15,16,Jits_ISO_5,80,9999,9999,9999,9999,1781824632
15,16,Jits_ISO_5,81,9999,9999,9999,9999,1782324280
15,16,Jits_ISO_5,82,9999,9999,9999,9999,1782825012
15,16,Jits_ISO_5,83,9999,9999,9999,9999,1783324760
15,16,Jits_ISO_5,84,9999,9999,9999,9999,1783824452
15,16,Jits_ISO_5,85,9999,9999,9999,9999,1784324168
15,16,Jits_ISO_5,86,9999,9999,9999,9999,1784824956
15,16,Jits_ISO_5,87,9999,9999,9999,9999,1785324644
15,16,Jits_ISO_5,88,9999,9999,9999,9999,1785824332
15,16,Jits_ISO_5,89,9999,9999,9999,9999,1786325068
15,16,Jits_ISO_5,90,9999,9999,9999,9999,1786824828
15,16,Jits_ISO_5,91,9999,9999,9999,9999,1787324512
15,16,Jits_ISO_5,92,9999,9999,9999,9999,1787824192
15,16,Jits_ISO_5,93,9999,9999,9999,9999,1788324984
15,16,Jits_ISO_5,94,9999,9999,9999,9999,1788824660
15,16,Jits_ISO_5,95,9999,9999,9999,9999,1789324348
15,16,Jits_ISO_5,96,9999,9999,9999,9999,1789824112
15,16,Jits_ISO_5,97,9999,9999,9999,9999,1790324828
15,16,Jits_ISO_5,98,9999,9999,9999,9999,1790824504
15,16,Jits_ISO_5,99,9999,9999,9999,9999,1791324268
15,16,Jits_ISO_5,100,9999,9999,9999,9999,1791824988
15,16,Jits_ISO_5,101,9999,9999,9999,9999,1792324664
15,16,Jits_ISO_5,102,9999,9999,9999,9999,1792824376
15,16,Jits_ISO_5,103,9999,9999,9999,9999,1793324120
15,16,Jits_ISO_5,104,9999,9999,9999,9999,1793824852
15,16,Jits_ISO_5,105,9999,9999,9999,9999,1794324592
15,16,Jits_ISO_5,106,9999,9999,9999,9999,1794824268
15,16,Jits_ISO_5,107,9999,9999,9999,9999,1795324984
15,16,Jits_ISO_5,108,9999,9999,9999,9999,1795824744
15,16,Jits_ISO_5,109,9999,9999,9999,9999,1796324416
15,16,Jits_ISO_5,110,9999,9999,9999,9999,1796824180
15,16,Jits_ISO_5,111,9999,9999,9999,9999,1797324912
15,16,Jits_ISO_5,112,9999,9999,9999,9999,1797824584
15,16,Jits_ISO_5,113,9999,9999,9999,9999,1798324336
15,16,Jits_ISO_5,114,9999,9999,9999,9999,1798825048
15,16,Jits_ISO_5,115,9999,9999,9999,9999,1799324788
15,16,Jits_ISO_5,116,9999,9999,9999,9999,1799824464
15,16,Jits_ISO_5,117,9999,9999,9999,9999,1800324152
15,16,Jits_ISO_5,118,9999,9999,9999,9999,1800824884
15,16,Jits_ISO_5,119,9999,9999,9999,9999,1801324628
16,7,Jits_ISO_8,0,5,56,103,1815720724
16,7,Jits_ISO_8,1,5,63,98,1815723816
16,7,Jits_ISO_8,2,5,80,127,1815726932
16,7,Jits_ISO_8,0,1,48,53,1816331140
16,7,Jits_ISO_8,1,5,56,103,1816520104
16,7,Jits_ISO_8,2,5,63,98,1816523044
16,7,Jits_ISO_8,3,5,80,127,1816526312
16,7,Jits_ISO_8,0,5,80,127,1817269596
16,7,Jits_ISO_8,1,1,48,40,1817301504
16,7,Jits_ISO_8,2,5,63,98,1817359724
16,7,Jits_ISO_8,3,5,56,103,1817369904
16,7,Jits_ISO_8,0,5,56,103,1818100240
16,7,Jits_ISO_8,1,5,63,98,1818110272
16,7,Jits_ISO_8,2,1,48,50,1818179756
16,7,Jits_ISO_8,3,5,80,127,1818200420
16,7,Jits_ISO_8,0,5,63,98,1818870368
16,7,Jits_ISO_8,1,5,80,127,1818899776
16,7,Jits_ISO_8,2,5,56,103,1818929624
16,7,Jits_ISO_8,3,1,48,74,1818956540
16,7,Jits_ISO_8,0,5,56,103,1819669952
16,7,Jits_ISO_8,1,1,48,74,1819726192
16,7,Jits_ISO_8,2,5,80,127,1819770428
16,7,Jits_ISO_8,3,5,63,98,1819820324
16,7,Jits_ISO_8,0,5,56,103,1820469632
16,7,Jits_ISO_8,1,5,80,127,1820519780
16,7,Jits_ISO_8,2,5,63,98,1820559576
16,7,Jits_ISO_8,3,1,48,79,1820599640
16,7,Jits_ISO_8,0,5,80,127,1821300296
16,7,Jits_ISO_8,1,1,48,55,1821312536
16,7,Jits_ISO_8,2,5,63,98,1821329768
16,7,Jits_ISO_8,3,5,56,103,1821400304
16,7,Jits_ISO_8,0,1,48,62,1822077936
16,7,Jits_ISO_8,1,5,63,98,1822129588
16,7,Jits_ISO_8,2,5,56,103,1822160112
16,7,Jits_ISO_8,3,5,80,127,1822219564
16,7,Jits_ISO_8,0,5,56,103,1822870092
16,7,Jits_ISO_8,1,5,80,127,1822873156
16,7,Jits_ISO_8,2,1,48,70,1822916284
16,7,Jits_ISO_8,3,5,63,98,1822989764
16,7,Jits_ISO_8,0,1,48,76,1823666580
16,7,Jits_ISO_8,1,5,56,103,1823749564
16,7,Jits_ISO_8,2,5,80,127,1823789348
16,7,Jits_ISO_8,3,5,63,98,1823799604
16,7,Jits_ISO_8,0,5,56,103,1824510272
16,7,Jits_ISO_8,1,5,80,127,1824530024
16,7,Jits_ISO_8,2,1,48,74,1824538832
16,7,Jits_ISO_8,3,5,63,98,1824609852
16,7,Jits_ISO_8,0,5,80,127,1825299928
16,7,Jits_ISO_8,1,1,48,64,1825390060
16,7,Jits_ISO_8,2,5,56,103,1825400252
16,7,Jits_ISO_8,3,5,63,98,1825410580
16,7,Jits_ISO_8,0,5,63,98,1826070136
16,7,Jits_ISO_8,1,5,80,127,1826130228
16,7,Jits_ISO_8,2,5,56,103,1826139588
16,7,Jits_ISO_8,3,1,48,59,1826196768
16,7,Jits_ISO_8,0,5,56,103,1826869720
16,7,Jits_ISO_8,1,5,63,98,1826940280
16,7,Jits_ISO_8,2,5,80,127,1826943564
16,7,Jits_ISO_8,3,1,48,51,1826944900
16,7,Jits_ISO_8,0,1,48,54,1827678804
16,7,Jits_ISO_8,1,5,63,98,1827700068
16,7,Jits_ISO_8,2,5,56,103,1827750336
16,7,Jits_ISO_8,3,5,80,127,1827753396
16,7,Jits_ISO_8,0,5,56,103,1828459860
16,7,Jits_ISO_8,1,5,80,127,1828462844
16,7,Jits_ISO_8,2,1,48,84,1828488180
16,7,Jits_ISO_8,3,5,63,98,1828550056
16,7,Jits_ISO_8,0,1,48,89,1829278412
16,7,Jits_ISO_8,1,5,63,98,1829299752
16,7,Jits_ISO_8,2,5,56,103,1829389652
16,7,Jits_ISO_8,3,5,80,127,1829420544
16,7,Jits_ISO_8,0,5,56,103,1830090004
16,7,Jits_ISO_8,1,1,48,73,1830091412
16,7,Jits_ISO_8,2,5,63,98,1830189392
16,7,Jits_ISO_8,3,5,80,127,1830220084
16,7,Jits_ISO_8,0,5,63,98,1830910252
16,7,Jits_ISO_8,1,1,48,78,1830914856
16,7,Jits_ISO_8,2,5,56,103,1830919680
16,7,Jits_ISO_8,3,5,80,127,1831009744
16,7,Jits_ISO_8,0,5,63,98,1831729812
16,7,Jits_ISO_8,1,1,48,73,1831730852
16,7,Jits_ISO_8,2,5,56,103,1831810464
16,7,Jits_ISO_8,3,5,80,127,1831813528
16,7,Jits_ISO_8,0,5,80,127,1832490580
16,7,Jits_ISO_8,1,5,63,98,1832509688
16,7,Jits_ISO_8,2,5,56,103,1832570128
16,7,Jits_ISO_8,3,1,48,69,1832572060
16,7,Jits_ISO_8,0,1,48,68,1833299676
16,7,Jits_ISO_8,1,5,56,103,1833329992
16,7,Jits_ISO_8,2,5,63,98,1833349668
16,7,Jits_ISO_8,3,5,80,127,1833353100
16,7,Jits_ISO_8,0,1,48,76,1834066260
16,7,Jits_ISO_8,1,5,63,98,1834070852
16,7,Jits_ISO_8,2,5,80,127,1834150444
16,7,Jits_ISO_8,3,5,56,103,1834159580
16,7,Jits_ISO_8,0,5,63,98,1834889672
16,7,Jits_ISO_8,1,5,56,103,1834910172
16,7,Jits_ISO_8,2,1,48,62,1834920996
16,7,Jits_ISO_8,3,5,80,127,1834960284
16,7,Jits_ISO_8,0,1,48,64,1835656976
16,7,Jits_ISO_8,1,5,80,127,1835690672
16,7,Jits_ISO_8,2,5,63,98,1835730248
16,7,Jits_ISO_8,3,5,56,103,1835749776
16,7,Jits_ISO_8,0,1,48,76,1836495988
16,7,Jits_ISO_8,1,5,56,103,1836529980
16,7,Jits_ISO_8,2,5,63,98,1836540528
16,7,Jits_ISO_8,3,5,80,127,1836559836
16,7,Jits_ISO_8,0,5,56,103,1837260380
16,7,Jits_ISO_8,1,1,48,76,1837266408
16,7,Jits_ISO_8,2,5,63,98,1837350284
16,7,Jits_ISO_8,3,5,80,127,1837409540
16,7,Jits_ISO_8,0,5,80,127,1838089532
16,7,Jits_ISO_8,1,5,56,103,1838099936
16,7,Jits_ISO_8,2,1,48,97,1838123688
16,7,Jits_ISO_8,3,5,63,98,1838169520
16,7,Jits_ISO_8,0,1,48,79,1838894480
16,7,Jits_ISO_8,1,5,63,98,1838920040
16,7,Jits_ISO_8,2,5,80,127,1839010308
16,7,Jits_ISO_8,3,5,56,103,1839020412
16,7,Jits_ISO_8,0,5,63,98,1839660448
16,7,Jits_ISO_8,1,5,80,127,1839709476
16,7,Jits_ISO_8,2,1,48,80,1839713708
16,7,Jits_ISO_8,3,5,56,103,1839769980
16,7,Jits_ISO_8,0,1,48,75,1840482840
16,7,Jits_ISO_8,1,5,56,103,1840489972
16,7,Jits_ISO_8,2,1,38,19,1840493236
16,7,Jits_ISO_8,3,5,80,127,1840540088
16,7,Jits_ISO_8,4,5,63,98,1840559396
16,7,Jits_ISO_8,0,5,56,103,1841259744
16,7,Jits_ISO_8,1,1,48,87,1841265544
16,7,Jits_ISO_8,2,5,80,127,1841320252
16,7,Jits_ISO_8,3,5,63,98,1841390028
16,7,Jits_ISO_8,0,5,56,103,1842059644
16,7,Jits_ISO_8,1,5,80,127,1842090316
16,7,Jits_ISO_8,2,1,48,96,1842102180
16,7,Jits_ISO_8,3,5,63,98,1842120308
16,7,Jits_ISO_8,0,1,48,80,1842845884
16,7,Jits_ISO_8,1,5,56,103,1842900296
16,7,Jits_ISO_8,2,5,80,127,1842920048
16,7,Jits_ISO_8,3,5,63,98,1842980176
16,7,Jits_ISO_8,0,1,48,84,1843654000
16,7,Jits_ISO_8,1,5,80,127,1843780076
16,7,Jits_ISO_8,2,5,56,103,1843790332
16,7,Jits_ISO_8,3,5,63,98,1843800364
16,7,Jits_ISO_8,0,1,48,80,1844502364
16,7,Jits_ISO_8,1,5,56,103,1844539748
16,7,Jits_ISO_8,2,5,80,127,1844579620
16,7,Jits_ISO_8,3,5,63,98,1844610428
16,7,Jits_ISO_8,0,5,56,103,1845309948
16,7,Jits_ISO_8,1,1,48,65,1845318232
16,7,Jits_ISO_8,2,5,63,98,1845339644
16,7,Jits_ISO_8,3,5,80,127,1845379444
16,7,Jits_ISO_8,0,5,80,127,1846060532
16,7,Jits_ISO_8,1,1,48,81,1846079984
16,7,Jits_ISO_8,2,5,63,98,1846109404
16,7,Jits_ISO_8,3,5,56,103,1846130052
16,7,Jits_ISO_8,0,1,48,68,1846852044
16,7,Jits_ISO_8,1,5,56,103,1846889844
16,7,Jits_ISO_8,2,5,80,127,1846959472
16,7,Jits_ISO_8,3,5,63,98,1847020132
16,7,Jits_ISO_8,0,5,80,127,1847689516
16,7,Jits_ISO_8,1,1,48,65,1847737812
16,7,Jits_ISO_8,2,5,63,98,1847779792
16,7,Jits_ISO_8,3,5,56,103,1847800140
16,7,Jits_ISO_8,0,5,63,98,1848510060
16,7,Jits_ISO_8,1,5,56,103,1848530260
16,7,Jits_ISO_8,2,1,48,58,1848542052
16,7,Jits_ISO_8,3,5,80,127,1848570200
16,7,Jits_ISO_8,0,1,48,76,1849266892
16,7,Jits_ISO_8,1,5,80,127,1849269624
16,7,Jits_ISO_8,2,5,63,98,1849290048
16,7,Jits_ISO_8,3,5,56,103,1849369992
16,7,Jits_ISO_8,0,5,63,98,1850060012
16,7,Jits_ISO_8,1,1,48,65,1850079660
16,7,Jits_ISO_8,2,5,56,103,1850169880
16,7,Jits_ISO_8,3,5,80,127,1850173016
16,7,Jits_ISO_8,0,1,48,63,1850851824
16,7,Jits_ISO_8,1,5,63,98,1850880424
16,7,Jits_ISO_8,2,5,56,103,1850889780
16,7,Jits_ISO_8,3,5,80,127,1850892840
16,7,Jits_ISO_8,0,1,48,87,1851628288
16,7,Jits_ISO_8,1,5,56,103,1851659872
16,7,Jits_ISO_8,2,5,80,127,1851779636
16,7,Jits_ISO_8,3,5,63,98,1851820404
16,7,Jits_ISO_8,0,1,48,72,1852478176
16,7,Jits_ISO_8,1,5,56,103,1852479984
16,7,Jits_ISO_8,2,5,80,127,1852559720
16,7,Jits_ISO_8,3,5,63,98,1852580132
16,7,Jits_ISO_8,0,5,56,103,1853279872
16,7,Jits_ISO_8,1,1,48,67,1853313428
16,7,Jits_ISO_8,2,5,63,98,1853390124
16,7,Jits_ISO_8,3,5,80,127,1853393704
16,7,Jits_ISO_8,0,1,48,81,1854079220
16,7,Jits_ISO_8,1,5,56,103,1854110056
16,7,Jits_ISO_8,2,5,80,127,1854139684
16,7,Jits_ISO_8,3,5,63,98,1854160332
16,7,Jits_ISO_8,0,1,48,64,1854850308
16,7,Jits_ISO_8,1,5,63,98,1854890348
16,7,Jits_ISO_8,2,5,56,103,1854899776
16,7,Jits_ISO_8,3,5,80,127,1854909736
16,7,Jits_ISO_8,0,1,48,59,1855608228
16,7,Jits_ISO_8,1,5,80,127,1855679904
16,7,Jits_ISO_8,2,5,56,103,1855730232
16,7,Jits_ISO_8,3,5,63,98,1855770104
16,7,Jits_ISO_8,0,1,48,63,1856372496
16,7,Jits_ISO_8,1,5,80,127,1856500268
16,7,Jits_ISO_8,2,5,63,98,1856519500
16,7,Jits_ISO_8,3,5,56,103,1856569792
16,7,Jits_ISO_8,0,1,48,53,1857267984
16,7,Jits_ISO_8,1,5,80,127,1857310040
16,7,Jits_ISO_8,2,5,56,103,1857339692
16,7,Jits_ISO_8,3,5,63,98,1857410364
16,7,Jits_ISO_8,0,1,48,68,1858092400
16,7,Jits_ISO_8,1,5,56,103,1858160068
16,7,Jits_ISO_8,2,5,80,127,1858170620
16,7,Jits_ISO_8,3,5,63,98,1858210328
16,7,Jits_ISO_8,0,5,56,103,1858869588
16,7,Jits_ISO_8,1,5,63,98,1858890188
16,7,Jits_ISO_8,2,1,48,65,1858922244
16,7,Jits_ISO_8,3,5,80,127,1858959596
16,7,Jits_ISO_8,0,1,48,60,1859632348
16,7,Jits_ISO_8,1,5,63,98,1859689772
16,7,Jits_ISO_8,2,5,80,127,1859750420
16,7,Jits_ISO_8,3,5,56,103,1859769652
16,7,Jits_ISO_8,0,1,48,64,1860432628
16,7,Jits_ISO_8,1,5,80,127,1860480380
16,7,Jits_ISO_8,2,5,56,103,1860510156
16,7,Jits_ISO_8,3,5,63,98,1860539620
16,7,Jits_ISO_8,0,1,48,68,1861235052
16,7,Jits_ISO_8,1,5,56,103,1861280260
16,7,Jits_ISO_8,2,5,63,98,1861339492
16,7,Jits_ISO_8,3,5,80,127,1861399856
16,7,Jits_ISO_8,0,1,48,57,1861976664
16,7,Jits_ISO_8,1,5,80,127,1862100404
16,7,Jits_ISO_8,2,5,56,103,1862119784
16,7,Jits_ISO_8,3,5,63,98,1862189276
16,7,Jits_ISO_8,0,1,48,69,1862881360
16,7,Jits_ISO_8,1,5,80,127,1862900304
16,7,Jits_ISO_8,2,5,63,98,1862919388
16,7,Jits_ISO_8,3,5,56,103,1862950132
16,7,Jits_ISO_8,0,1,48,58,1863668008
16,7,Jits_ISO_8,1,5,80,127,1863689644
16,7,Jits_ISO_8,2,5,63,98,1863710216
16,7,Jits_ISO_8,3,5,56,103,1863769396
16,7,Jits_ISO_8,0,1,48,63,1864464064
16,7,Jits_ISO_8,1,5,80,127,1864490424
16,7,Jits_ISO_8,2,5,56,103,1864589620
16,7,Jits_ISO_8,3,5,63,98,1864620292
16,7,Jits_ISO_8,0,5,63,98,1865279948
16,7,Jits_ISO_8,1,5,80,127,1865330436
16,7,Jits_ISO_8,2,1,48,65,1865332148
16,7,Jits_ISO_8,3,5,56,103,1865349440
16,7,Jits_ISO_8,0,1,48,64,1866083012
16,7,Jits_ISO_8,1,5,80,127,1866119472
16,7,Jits_ISO_8,2,5,56,103,1866150136
16,7,Jits_ISO_8,3,5,63,98,1866153276
16,7,Jits_ISO_8,0,1,48,69,1866847968
16,7,Jits_ISO_8,1,5,63,98,1866950152
16,7,Jits_ISO_8,2,5,56,103,1866990100
16,7,Jits_ISO_8,3,5,80,127,1867010300
16,7,Jits_ISO_8,0,1,48,64,1867682188
16,7,Jits_ISO_8,1,5,80,127,1867690368
16,7,Jits_ISO_8,2,5,63,98,1867770184
16,7,Jits_ISO_8,3,5,56,103,1867810040
16,7,Jits_ISO_8,0,5,63,98,1868509492
16,7,Jits_ISO_8,1,1,48,63,1868570652
16,7,Jits_ISO_8,2,5,80,127,1868589300
16,7,Jits_ISO_8,3,5,56,103,1868610048
16,7,Jits_ISO_8,0,1,48,57,1869283912
16,7,Jits_ISO_8,1,5,56,103,1869350364
16,7,Jits_ISO_8,2,5,63,98,1869359648
16,7,Jits_ISO_8,3,5,80,127,1869400500
16,7,Jits_ISO_8,0,5,56,103,1870070076
16,7,Jits_ISO_8,1,5,80,127,1870073212
16,7,Jits_ISO_8,2,1,48,65,1870082392
16,7,Jits_ISO_8,3,5,63,98,1870210468
16,7,Jits_ISO_8,0,5,56,103,1870859572
16,7,Jits_ISO_8,1,1,48,61,1870897080
16,7,Jits_ISO_8,2,5,63,98,1870949724
16,7,Jits_ISO_8,3,5,80,127,1871020392
16,7,Jits_ISO_8,0,1,48,33,1871719460
16,7,Jits_ISO_8,1,5,63,98,1871740196
16,7,Jits_ISO_8,2,5,80,127,1871743552
16,7,Jits_ISO_8,3,5,56,103,1871799812
16,7,Jits_ISO_8,0,1,48,86,1872572956
16,7,Jits_ISO_8,1,5,80,127,1872580020
16,7,Jits_ISO_8,2,5,56,103,1872600372
16,7,Jits_ISO_8,3,5,63,98,1872609800
16,7,Jits_ISO_8,0,5,56,103,1873289864
16,7,Jits_ISO_8,1,5,63,98,1873299896
16,7,Jits_ISO_8,2,1,48,68,1873361568
16,7,Jits_ISO_8,3,5,80,127,1873369452
16,7,Jits_ISO_8,0,5,80,127,1874090284
16,7,Jits_ISO_8,1,1,48,65,1874095196
16,7,Jits_ISO_8,2,5,56,103,1874139504
16,7,Jits_ISO_8,3,5,63,98,1874189844
16,7,Jits_ISO_8,0,1,48,44,1874961360
16,7,Jits_ISO_8,1,5,56,103,1874969920
16,7,Jits_ISO_8,2,5,63,98,1874980172
16,7,Jits_ISO_8,3,5,80,127,1875020068
16,7,Jits_ISO_8,0,5,56,103,1875710500
16,7,Jits_ISO_8,1,5,63,98,1875750448
16,7,Jits_ISO_8,2,1,48,86,1875763956
16,7,Jits_ISO_8,3,5,80,127,1875800436
16,7,Jits_ISO_8,0,5,80,127,1876470164
16,7,Jits_ISO_8,1,5,56,103,1876520580
16,7,Jits_ISO_8,2,1,48,81,1876528040
16,7,Jits_ISO_8,3,5,63,98,1876539756
16,7,Jits_ISO_8,0,5,80,127,1877280084
16,7,Jits_ISO_8,1,1,48,78,1877328556
16,7,Jits_ISO_8,2,5,63,98,1877339796
16,7,Jits_ISO_8,3,5,56,103,1877420356
16,7,Jits_ISO_8,0,5,80,127,1878060536
16,7,Jits_ISO_8,1,5,56,103,1878100508
16,7,Jits_ISO_8,2,5,63,98,1878119664
16,7,Jits_ISO_8,3,1,48,55,1878198548
16,7,Jits_ISO_8,0,1,48,67,1878878980
16,7,Jits_ISO_8,1,5,56,103,1878910564
16,7,Jits_ISO_8,2,5,80,127,1878919624
16,7,Jits_ISO_8,3,5,63,98,1878959572
16,7,Jits_ISO_8,0,1,48,31,1879712820
16,7,Jits_ISO_8,1,1,38,20,1879725732
16,7,Jits_ISO_8,2,5,56,103,1879779620
16,7,Jits_ISO_8,3,5,63,98,1879819628
16,7,Jits_ISO_8,4,5,80,127,1879823644
16,7,Jits_ISO_8,0,5,63,98,1880469824
16,7,Jits_ISO_8,1,5,80,127,1880509772
16,7,Jits_ISO_8,2,1,48,69,1880540192
16,7,Jits_ISO_8,3,5,56,103,1880579480
16,7,Jits_ISO_8,0,5,63,98,1881260508
16,7,Jits_ISO_8,1,5,56,103,1881340248
16,7,Jits_ISO_8,2,1,48,57,1881359600
16,7,Jits_ISO_8,3,5,80,127,1881399736
16,7,Jits_ISO_8,0,1,48,66,1882044800
16,7,Jits_ISO_8,1,5,80,127,1882070264
16,7,Jits_ISO_8,2,5,63,98,1882119564
16,7,Jits_ISO_8,3,5,56,103,1882150368
16,7,Jits_ISO_8,0,5,56,103,1882859760
16,7,Jits_ISO_8,1,1,48,64,1882895708
16,7,Jits_ISO_8,2,5,63,98,1882910096
16,7,Jits_ISO_8,3,5,80,127,1882920276
16,7,Jits_ISO_8,0,1,48,45,1883651620
16,7,Jits_ISO_8,1,5,56,103,1883669748
16,7,Jits_ISO_8,2,5,63,98,1883779564
16,7,Jits_ISO_8,3,5,80,127,1883799912
16,7,Jits_ISO_8,0,5,63,98,1884469568
16,7,Jits_ISO_8,1,1,48,55,1884493948
16,7,Jits_ISO_8,2,5,80,127,1884519704
16,7,Jits_ISO_8,3,5,56,103,1884610044
16,7,Jits_ISO_8,0,5,63,98,1885260276
16,7,Jits_ISO_8,1,5,80,127,1885289976
16,7,Jits_ISO_8,2,1,48,63,1885298112
16,7,Jits_ISO_8,3,5,56,103,1885380100
16,7,Jits_ISO_8,0,5,63,98,1886060012
16,7,Jits_ISO_8,1,5,56,103,1886070264
16,7,Jits_ISO_8,2,1,48,21,1886125356
16,7,Jits_ISO_8,3,1,38,12,1886138136
16,7,Jits_ISO_8,4,5,80,127,1886169348
16,7,Jits_ISO_8,0,1,48,17,1886900484
16,7,Jits_ISO_8,1,1,48,29,1886905016
16,7,Jits_ISO_8,2,1,38,16,1886913604
16,7,Jits_ISO_8,3,5,63,98,1886960228
16,7,Jits_ISO_8,4,5,80,127,1886989784
16,7,Jits_ISO_8,5,5,56,103,1887020336
16,7,Jits_ISO_8,0,1,48,61,1887686188
16,7,Jits_ISO_8,1,5,80,127,1887780748
16,7,Jits_ISO_8,2,5,63,98,1887789288
16,7,Jits_ISO_8,3,5,56,103,1887820132
16,7,Jits_ISO_8,0,5,80,127,1888479468
16,7,Jits_ISO_8,1,5,63,98,1888500044
16,7,Jits_ISO_8,2,5,56,103,1888550236
16,7,Jits_ISO_8,3,1,48,67,1888558816
16,7,Jits_ISO_8,0,5,63,98,1889310032
16,7,Jits_ISO_8,1,1,48,66,1889315532
16,7,Jits_ISO_8,2,5,80,127,1889369520
16,7,Jits_ISO_8,3,5,56,103,1889390020
16,7,Jits_ISO_8,0,5,63,98,1890070048
16,7,Jits_ISO_8,1,5,56,103,1890120120
16,7,Jits_ISO_8,2,5,80,127,1890130376
16,7,Jits_ISO_8,3,1,48,71,1890132960
16,7,Jits_ISO_8,0,1,48,67,1890864656
16,7,Jits_ISO_8,1,5,56,103,1890900244
16,7,Jits_ISO_8,2,5,80,127,1890909748
16,7,Jits_ISO_8,3,5,63,98,1891009888
16,7,Jits_ISO_8,0,5,80,127,1891660044
16,7,Jits_ISO_8,1,5,63,98,1891670296
16,7,Jits_ISO_8,2,1,48,45,1891697632
16,7,Jits_ISO_8,3,5,56,103,1891819864
16,7,Jits_ISO_8,0,5,63,98,1892470040
16,7,Jits_ISO_8,1,5,80,127,1892509988
16,7,Jits_ISO_8,2,1,48,41,1892568752
16,7,Jits_ISO_8,3,5,56,103,1892590016
16,7,Jits_ISO_8,0,5,56,103,1893259900
16,7,Jits_ISO_8,1,1,48,44,1893360132
16,7,Jits_ISO_8,2,5,80,127,1893361772
16,7,Jits_ISO_8,3,5,63,98,1893379580
16,7,Jits_ISO_8,0,5,80,127,1894119864
16,7,Jits_ISO_8,1,1,48,43,1894129292
16,7,Jits_ISO_8,2,5,56,103,1894131084
16,7,Jits_ISO_8,3,5,63,98,1894220120
16,7,Jits_ISO_8,0,5,56,103,1894919472
16,7,Jits_ISO_8,1,5,63,98,1894940048
16,7,Jits_ISO_8,2,1,48,41,1894979840
16,7,Jits_ISO_8,3,5,80,127,1895019948
16,7,Jits_ISO_8,0,5,63,98,1895670080
16,7,Jits_ISO_8,1,1,48,24,1895689732
16,7,Jits_ISO_8,2,1,48,43,1895694260
16,7,Jits_ISO_8,3,5,56,103,1895760132
16,7,Jits_ISO_8,4,5,80,127,1895763196
16,7,Jits_ISO_8,0,1,48,48,1896476976
16,7,Jits_ISO_8,1,5,56,103,1896499676
16,7,Jits_ISO_8,2,5,80,127,1896560068
16,7,Jits_ISO_8,3,5,63,98,1896570156
16,7,Jits_ISO_8,0,1,48,49,1897274944
16,7,Jits_ISO_8,1,5,80,127,1897349700
16,7,Jits_ISO_8,2,5,56,103,1897359656
16,7,Jits_ISO_8,3,5,63,98,1897362864
16,7,Jits_ISO_8,0,5,56,103,1898110464
16,7,Jits_ISO_8,1,1,38,9,1898116420
16,7,Jits_ISO_8,2,5,80,127,1898119520
16,7,Jits_ISO_8,3,5,63,98,1898139872
16,7,Jits_ISO_8,0,1,48,48,1898839120
16,7,Jits_ISO_8,1,5,63,98,1898880356
16,7,Jits_ISO_8,2,5,80,127,1898939884
16,7,Jits_ISO_8,3,5,56,103,1898989928
16,7,Jits_ISO_8,0,1,48,49,1899700488
16,7,Jits_ISO_8,1,5,63,98,1899760048
16,7,Jits_ISO_8,2,5,56,103,1899770304
16,7,Jits_ISO_8,3,5,80,127,1899820404
16,7,Jits_ISO_8,0,5,63,98,1900460468
16,7,Jits_ISO_8,1,5,80,127,1900479772
16,7,Jits_ISO_8,2,5,56,103,1900490028
16,7,Jits_ISO_8,3,1,48,28,1900513032
16,7,Jits_ISO_8,0,1,48,52,1901259124
16,7,Jits_ISO_8,1,5,63,98,1901260944
16,7,Jits_ISO_8,2,5,80,127,1901263996
16,7,Jits_ISO_8,3,5,56,103,1901300132
16,7,Jits_ISO_8,0,1,48,46,1902091072
16,7,Jits_ISO_8,1,5,63,98,1902129400
16,7,Jits_ISO_8,2,5,80,127,1902160468
16,7,Jits_ISO_8,3,5,56,103,1902169452
16,7,Jits_ISO_8,0,1,48,28,1902878636
16,7,Jits_ISO_8,1,5,56,103,1902880364
16,7,Jits_ISO_8,2,5,80,127,1902909720
16,7,Jits_ISO_8,3,5,63,98,1902939496
16,7,Jits_ISO_8,0,1,48,27,1903709428
16,7,Jits_ISO_8,1,5,63,98,1903780428
16,7,Jits_ISO_8,2,5,56,103,1903820284
16,7,Jits_ISO_8,3,5,80,127,1903823492
16,7,Jits_ISO_8,0,5,80,127,1904479572
16,7,Jits_ISO_8,1,5,56,103,1904559536
16,7,Jits_ISO_8,2,5,63,98,1904609504
16,7,Jits_ISO_8,3,1,48,45,1904659960
16,7,Jits_ISO_8,0,5,80,127,1905259952
16,7,Jits_ISO_8,1,5,56,103,1905280304
16,7,Jits_ISO_8,2,5,63,98,1905369316
16,7,Jits_ISO_8,0,1,48,45,1906090676
16,7,Jits_ISO_8,1,5,80,127,1906099676
16,7,Jits_ISO_8,2,5,63,98,1906139476
16,7,Jits_ISO_8,3,5,56,103,1906179348
16,7,Jits_ISO_8,0,5,63,98,1906869576
16,7,Jits_ISO_8,1,1,48,43,1906913752
16,7,Jits_ISO_8,2,5,80,127,1906930232
16,7,Jits_ISO_8,3,5,56,103,1906959636
16,7,Jits_ISO_8,0,5,56,103,1907670356
16,7,Jits_ISO_8,1,5,80,127,1907700060
16,7,Jits_ISO_8,2,1,48,53,1907720604
16,7,Jits_ISO_8,3,5,63,98,1907790132
16,7,Jits_ISO_8,0,5,56,103,1908480280
16,7,Jits_ISO_8,1,5,80,127,1908590036
16,7,Jits_ISO_8,2,1,48,56,1908600556
16,7,Jits_ISO_8,3,5,63,98,1908619584
16,7,Jits_ISO_8,0,5,56,103,1909330324
16,7,Jits_ISO_8,1,1,48,57,1909373004
16,7,Jits_ISO_8,2,5,63,98,1909389564
16,7,Jits_ISO_8,3,5,80,127,1909420312
16,7,Jits_ISO_8,0,5,56,103,1910100388
16,7,Jits_ISO_8,1,1,48,53,1910133196
16,7,Jits_ISO_8,2,5,63,98,1910169948
16,7,Jits_ISO_8,3,5,80,127,1910189476
16,7,Jits_ISO_8,0,5,80,127,1910870300
16,7,Jits_ISO_8,1,1,48,62,1910871264
16,7,Jits_ISO_8,2,5,63,98,1910889820
16,7,Jits_ISO_8,3,5,56,103,1910940236
16,7,Jits_ISO_8,0,9999,9999,9999,9999,1816117324
16,7,Jits_ISO_8,1,9999,9999,9999,9999,1816918076
16,7,Jits_ISO_8,2,9999,9999,9999,9999,1817728060
16,7,Jits_ISO_8,3,9999,9999,9999,9999,1818538060
16,7,Jits_ISO_8,4,9999,9999,9999,9999,1819337804
16,7,Jits_ISO_8,5,9999,9999,9999,9999,1820137544
16,7,Jits_ISO_8,6,9999,9999,9999,9999,1820937296
16,7,Jits_ISO_8,7,9999,9999,9999,9999,1821738092
16,7,Jits_ISO_8,8,9999,9999,9999,9999,1822537800
16,7,Jits_ISO_8,9,9999,9999,9999,9999,1823337524
16,7,Jits_ISO_8,10,9999,9999,9999,9999,1824137284
16,7,Jits_ISO_8,11,9999,9999,9999,9999,1824938068
16,7,Jits_ISO_8,12,9999,9999,9999,9999,1825737824
16,7,Jits_ISO_8,13,9999,9999,9999,9999,1826537572
16,7,Jits_ISO_8,14,9999,9999,9999,9999,1827337296
16,7,Jits_ISO_8,15,9999,9999,9999,9999,1828138080
16,7,Jits_ISO_8,16,9999,9999,9999,9999,1828937828
16,7,Jits_ISO_8,17,9999,9999,9999,9999,1829737584
16,7,Jits_ISO_8,18,9999,9999,9999,9999,1830537324
16,7,Jits_ISO_8,19,9999,9999,9999,9999,1831338048
16,7,Jits_ISO_8,20,9999,9999,9999,9999,1832137788
16,7,Jits_ISO_8,21,9999,9999,9999,9999,1832937524
16,7,Jits_ISO_8,22,9999,9999,9999,9999,1833737268
16,7,Jits_ISO_8,23,9999,9999,9999,9999,1834538052
16,7,Jits_ISO_8,24,9999,9999,9999,9999,1835337812
16,7,Jits_ISO_8,25,9999,9999,9999,9999,1836137548
16,7,Jits_ISO_8,26,9999,9999,9999,9999,1836937288
16,7,Jits_ISO_8,27,9999,9999,9999,9999,1837738068
16,7,Jits_ISO_8,28,9999,9999,9999,9999,1838537820
16,7,Jits_ISO_8,29,9999,9999,9999,9999,1839337576
16,7,Jits_ISO_8,30,9999,9999,9999,9999,1840137312
16,7,Jits_ISO_8,31,9999,9999,9999,9999,1840938064
16,7,Jits_ISO_8,32,9999,9999,9999,9999,1841737800
16,7,Jits_ISO_8,33,9999,9999,9999,9999,1842537548
16,7,Jits_ISO_8,34,9999,9999,9999,9999,1843337300
16,7,Jits_ISO_8,35,9999,9999,9999,9999,1844138092
16,7,Jits_ISO_8,36,9999,9999,9999,9999,1844937836
16,7,Jits_ISO_8,37,9999,9999,9999,9999,1845737572
16,7,Jits_ISO_8,38,9999,9999,9999,9999,1846537320
16,7,Jits_ISO_8,39,9999,9999,9999,9999,1847338044
16,7,Jits_ISO_8,40,9999,9999,9999,9999,1848137808
16,7,Jits_ISO_8,41,9999,9999,9999,9999,1848937556
16,7,Jits_ISO_8,42,9999,9999,9999,9999,1849737288
16,7,Jits_ISO_8,43,9999,9999,9999,9999,1850538036
16,7,Jits_ISO_8,44,9999,9999,9999,9999,1851337828
16,7,Jits_ISO_8,45,9999,9999,9999,9999,1852137568
16,7,Jits_ISO_8,46,9999,9999,9999,9999,1852937308
16,7,Jits_ISO_8,47,9999,9999,9999,9999,1853738080
16,7,Jits_ISO_8,48,9999,9999,9999,9999,1854537784
16,7,Jits_ISO_8,49,9999,9999,9999,9999,1855337592
16,7,Jits_ISO_8,50,9999,9999,9999,9999,1856137328
16,7,Jits_ISO_8,51,9999,9999,9999,9999,1856938108
16,7,Jits_ISO_8,52,9999,9999,9999,9999,1857737844
16,7,Jits_ISO_8,53,9999,9999,9999,9999,1858537588
16,7,Jits_ISO_8,54,9999,9999,9999,9999,1859337320
16,7,Jits_ISO_8,55,9999,9999,9999,9999,1860138040
16,7,Jits_ISO_8,56,9999,9999,9999,9999,1860937800
16,7,Jits_ISO_8,57,9999,9999,9999,9999,1861737536
16,7,Jits_ISO_8,58,9999,9999,9999,9999,1862537272
16,7,Jits_ISO_8,59,9999,9999,9999,9999,1863338052
16,7,Jits_ISO_8,60,9999,9999,9999,9999,1864137788
16,7,Jits_ISO_8,61,9999,9999,9999,9999,1864937528
16,7,Jits_ISO_8,62,9999,9999,9999,9999,1865737336
16,7,Jits_ISO_8,63,9999,9999,9999,9999,1866538036
16,7,Jits_ISO_8,64,9999,9999,9999,9999,1867337808
16,7,Jits_ISO_8,65,9999,9999,9999,9999,1868137548
16,7,Jits_ISO_8,66,9999,9999,9999,9999,1868937292
16,7,Jits_ISO_8,67,9999,9999,9999,9999,1869738080
16,7,Jits_ISO_8,68,9999,9999,9999,9999,1870537804
16,7,Jits_ISO_8,69,9999,9999,9999,9999,1871337556
16,7,Jits_ISO_8,70,9999,9999,9999,9999,1872137300
16,7,Jits_ISO_8,71,9999,9999,9999,9999,1872938092
16,7,Jits_ISO_8,72,9999,9999,9999,9999,1873737852
16,7,Jits_ISO_8,73,9999,9999,9999,9999,1874537532
16,7,Jits_ISO_8,74,9999,9999,9999,9999,1875337292
16,7,Jits_ISO_8,75,9999,9999,9999,9999,1876138076
16,7,Jits_ISO_8,76,9999,9999,9999,9999,1876937824
16,7,Jits_ISO_8,77,9999,9999,9999,9999,1877737576
16,7,Jits_ISO_8,78,9999,9999,9999,9999,1878537320
16,7,Jits_ISO_8,79,9999,9999,9999,9999,1879338040
16,7,Jits_ISO_8,80,9999,9999,9999,9999,1880137848
16,7,Jits_ISO_8,81,9999,9999,9999,9999,1880937560
16,7,Jits_ISO_8,82,9999,9999,9999,9999,1881737300
16,7,Jits_ISO_8,83,9999,9999,9999,9999,1882538080
16,7,Jits_ISO_8,84,9999,9999,9999,9999,1883337812
16,7,Jits_ISO_8,85,9999,9999,9999,9999,1884137568
16,7,Jits_ISO_8,86,9999,9999,9999,9999,1884937304
16,7,Jits_ISO_8,87,9999,9999,9999,9999,1885738084
16,7,Jits_ISO_8,88,9999,9999,9999,9999,1886537792
16,7,Jits_ISO_8,89,9999,9999,9999,9999,1887337524
16,7,Jits_ISO_8,90,9999,9999,9999,9999,1888137296
16,7,Jits_ISO_8,91,9999,9999,9999,9999,1888938076
16,7,Jits_ISO_8,92,9999,9999,9999,9999,1889737828
16,7,Jits_ISO_8,93,9999,9999,9999,9999,1890537560
16,7,Jits_ISO_8,94,9999,9999,9999,9999,1891337296
16,7,Jits_ISO_8,95,9999,9999,9999,9999,1892138076
16,7,Jits_ISO_8,96,9999,9999,9999,9999,1892937848
16,7,Jits_ISO_8,97,9999,9999,9999,9999,1893737588
16,7,Jits_ISO_8,98,9999,9999,9999,9999,1894537268
16,7,Jits_ISO_8,99,9999,9999,9999,9999,1895338068
16,7,Jits_ISO_8,100,9999,9999,9999,9999,1896137788
16,7,Jits_ISO_8,101,9999,9999,9999,9999,1896937576
16,7,Jits_ISO_8,102,9999,9999,9999,9999,1897737304
16,7,Jits_ISO_8,103,9999,9999,9999,9999,1898538084
16,7,Jits_ISO_8,104,9999,9999,9999,9999,1899337848
16,7,Jits_ISO_8,105,9999,9999,9999,9999,1900137596
16,7,Jits_ISO_8,106,9999,9999,9999,9999,1900937320
16,7,Jits_ISO_8,107,9999,9999,9999,9999,1901738088
16,7,Jits_ISO_8,108,9999,9999,9999,9999,1902537828
16,7,Jits_ISO_8,109,9999,9999,9999,9999,1903337560
16,7,Jits_ISO_8,110,9999,9999,9999,9999,1904137300
16,7,Jits_ISO_8,111,9999,9999,9999,9999,1904938084
16,7,Jits_ISO_8,112,9999,9999,9999,9999,1905737804
16,7,Jits_ISO_8,113,9999,9999,9999,9999,1906537576
16,7,Jits_ISO_8,114,9999,9999,9999,9999,1907337312
16,7,Jits_ISO_8,115,9999,9999,9999,9999,1908138092
16,7,Jits_ISO_8,116,9999,9999,9999,9999,1908937848
16,7,Jits_ISO_8,117,9999,9999,9999,9999,1909737532
16,7,Jits_ISO_8,118,9999,9999,9999,9999,1910537288
16,7,Jits_ISO_8,119,9999,9999,9999,9999,1911338080
1,18,Jits_Linear_8,0,5,56,103,14113120
1,18,Jits_Linear_8,1,5,63,98,14116208
1,18,Jits_Linear_8,2,5,80,127,14119256
1,18,Jits_Linear_8,0,1,48,38,14778476
1,18,Jits_Linear_8,1,5,56,103,14933328
1,18,Jits_Linear_8,2,5,63,98,14936800
1,18,Jits_Linear_8,3,5,80,127,14939840
1,18,Jits_Linear_8,0,5,80,127,15693200
1,18,Jits_Linear_8,1,1,48,35,15742244
1,18,Jits_Linear_8,2,5,63,98,15783252
1,18,Jits_Linear_8,3,5,56,103,15792684
1,18,Jits_Linear_8,0,5,56,103,16532872
1,18,Jits_Linear_8,1,5,63,98,16543052
1,18,Jits_Linear_8,2,5,80,127,16633328
1,18,Jits_Linear_8,3,1,48,24,16645964
1,18,Jits_Linear_8,0,5,63,98,17323620
1,18,Jits_Linear_8,1,5,80,127,17352948
1,18,Jits_Linear_8,2,1,48,38,17366680
1,18,Jits_Linear_8,3,5,56,103,17382792
1,18,Jits_Linear_8,0,5,56,103,18142708
1,18,Jits_Linear_8,1,1,48,35,18155464
1,18,Jits_Linear_8,2,5,80,127,18242808
1,18,Jits_Linear_8,3,5,63,98,18293060
1,18,Jits_Linear_8,0,5,56,103,18952488
1,18,Jits_Linear_8,1,5,80,127,19002684
1,18,Jits_Linear_8,2,5,63,98,19042632
1,18,Jits_Linear_8,3,1,48,45,19084560
1,18,Jits_Linear_8,0,1,48,30,19784640
1,18,Jits_Linear_8,1,5,80,127,19793272
1,18,Jits_Linear_8,2,5,63,98,19822972
1,18,Jits_Linear_8,3,5,56,103,19892448
1,18,Jits_Linear_8,0,5,63,98,20632936
1,18,Jits_Linear_8,1,1,48,40,20656840
1,18,Jits_Linear_8,2,5,56,103,20662708
1,18,Jits_Linear_8,3,5,80,127,20723220
1,18,Jits_Linear_8,0,5,56,103,21382540
1,18,Jits_Linear_8,1,5,80,127,21385604
1,18,Jits_Linear_8,2,1,48,36,21466948
1,18,Jits_Linear_8,3,5,63,98,21503628
1,18,Jits_Linear_8,0,1,48,41,22242372
1,18,Jits_Linear_8,1,5,56,103,22263184
1,18,Jits_Linear_8,2,5,80,127,22303084
1,18,Jits_Linear_8,3,5,63,98,22313484
1,18,Jits_Linear_8,0,5,56,103,23023120
1,18,Jits_Linear_8,1,1,48,52,23026236
1,18,Jits_Linear_8,2,5,80,127,23042272
1,18,Jits_Linear_8,3,5,63,98,23124456
1,18,Jits_Linear_8,0,5,80,127,23812756
1,18,Jits_Linear_8,1,1,48,48,23885800
1,18,Jits_Linear_8,2,5,56,103,23912756
1,18,Jits_Linear_8,3,5,63,98,23923012
1,18,Jits_Linear_8,0,5,63,98,24582572
1,18,Jits_Linear_8,1,5,80,127,24642868
1,18,Jits_Linear_8,2,5,56,103,24653416
1,18,Jits_Linear_8,3,1,48,50,24673368
1,18,Jits_Linear_8,0,1,48,45,25363028
1,18,Jits_Linear_8,1,5,56,103,25383324
1,18,Jits_Linear_8,2,5,63,98,25453112
1,18,Jits_Linear_8,3,5,80,127,25456396
1,18,Jits_Linear_8,0,1,48,46,26167204
1,18,Jits_Linear_8,1,5,63,98,26212720
1,18,Jits_Linear_8,2,5,56,103,26263048
1,18,Jits_Linear_8,3,5,80,127,26266256
1,18,Jits_Linear_8,0,5,56,103,26963436
1,18,Jits_Linear_8,1,5,80,127,26966276
1,18,Jits_Linear_8,2,1,48,37,27004252
1,18,Jits_Linear_8,3,5,63,98,27053488
1,18,Jits_Linear_8,0,1,48,52,27746808
1,18,Jits_Linear_8,1,5,63,98,27792620
1,18,Jits_Linear_8,2,5,56,103,27882960
1,18,Jits_Linear_8,3,5,80,127,27912612
1,18,Jits_Linear_8,0,5,56,103,28573124
1,18,Jits_Linear_8,1,1,48,32,28657384
1,18,Jits_Linear_8,2,5,63,98,28673276
1,18,Jits_Linear_8,3,5,80,127,28703224
1,18,Jits_Linear_8,0,1,48,37,29354572
1,18,Jits_Linear_8,1,5,63,98,29383248
1,18,Jits_Linear_8,2,5,56,103,29393204
1,18,Jits_Linear_8,3,5,80,127,29483344
1,18,Jits_Linear_8,0,1,48,31,30157056
1,18,Jits_Linear_8,1,5,63,98,30182892
1,18,Jits_Linear_8,2,5,56,103,30262568
1,18,Jits_Linear_8,3,5,80,127,30265848
1,18,Jits_Linear_8,0,5,80,127,30923220
1,18,Jits_Linear_8,1,5,63,98,30942532
1,18,Jits_Linear_8,2,1,48,36,30948036
1,18,Jits_Linear_8,3,5,56,103,31003064
1,18,Jits_Linear_8,0,5,56,103,31743300
1,18,Jits_Linear_8,1,5,63,98,31762928
1,18,Jits_Linear_8,2,5,80,127,31766208
1,18,Jits_Linear_8,3,1,48,20,31771432
1,18,Jits_Linear_8,0,1,48,28,32452864
1,18,Jits_Linear_8,1,5,63,98,32463208
1,18,Jits_Linear_8,2,5,80,127,32543196
1,18,Jits_Linear_8,3,5,56,103,32553288
1,18,Jits_Linear_8,0,1,48,37,33237384
1,18,Jits_Linear_8,1,5,63,98,33262924
1,18,Jits_Linear_8,2,5,56,103,33282528
1,18,Jits_Linear_8,3,5,80,127,33332520
1,18,Jits_Linear_8,0,5,80,127,34043196
1,18,Jits_Linear_8,1,1,48,37,34047136
1,18,Jits_Linear_8,2,5,63,98,34083092
1,18,Jits_Linear_8,3,5,56,103,34102844
1,18,Jits_Linear_8,0,1,48,32,34841660
1,18,Jits_Linear_8,1,5,56,103,34853268
1,18,Jits_Linear_8,2,5,63,98,34862404
1,18,Jits_Linear_8,3,5,80,127,34882904
1,18,Jits_Linear_8,0,5,56,103,35552740
1,18,Jits_Linear_8,1,1,48,30,35581888
1,18,Jits_Linear_8,2,5,63,98,35642820
1,18,Jits_Linear_8,3,5,80,127,35703092
1,18,Jits_Linear_8,0,5,80,127,36353372
1,18,Jits_Linear_8,1,5,56,103,36362804
1,18,Jits_Linear_8,2,1,48,32,36378032
1,18,Jits_Linear_8,3,5,63,98,36433332
1,18,Jits_Linear_8,0,1,48,34,37098660
1,18,Jits_Linear_8,1,5,63,98,37163268
1,18,Jits_Linear_8,2,5,80,127,37252712
1,18,Jits_Linear_8,3,5,56,103,37262892
1,18,Jits_Linear_8,0,1,48,25,37861764
1,18,Jits_Linear_8,1,5,63,98,37863560
1,18,Jits_Linear_8,2,5,80,127,37912884
1,18,Jits_Linear_8,3,5,56,103,37973232
1,18,Jits_Linear_8,0,5,56,103,38653632
1,18,Jits_Linear_8,1,1,48,25,38677788
1,18,Jits_Linear_8,2,5,80,127,38702428
1,18,Jits_Linear_8,3,5,63,98,38722928
1,18,Jits_Linear_8,0,1,48,29,39356164
1,18,Jits_Linear_8,1,5,56,103,39383572
1,18,Jits_Linear_8,2,5,80,127,39442844
1,18,Jits_Linear_8,3,5,63,98,39512396
1,18,Jits_Linear_8,0,1,48,32,40125592
1,18,Jits_Linear_8,1,5,56,103,40143420
1,18,Jits_Linear_8,2,5,80,127,40172976
1,18,Jits_Linear_8,3,5,63,98,40202476
1,18,Jits_Linear_8,0,1,48,44,40873624
1,18,Jits_Linear_8,1,5,56,103,40942916
1,18,Jits_Linear_8,2,5,80,127,40962592
1,18,Jits_Linear_8,3,5,63,98,41022940
1,18,Jits_Linear_8,0,1,48,41,41722760
1,18,Jits_Linear_8,1,5,80,127,41782652
1,18,Jits_Linear_8,2,5,56,103,41792904
1,18,Jits_Linear_8,3,5,63,98,41803084
1,18,Jits_Linear_8,0,1,48,47,42462580
1,18,Jits_Linear_8,1,5,56,103,42493416
1,18,Jits_Linear_8,2,5,80,127,42533316
1,18,Jits_Linear_8,3,5,63,98,42562780
1,18,Jits_Linear_8,0,5,56,103,43213264
1,18,Jits_Linear_8,1,1,48,43,43235604
1,18,Jits_Linear_8,2,5,63,98,43242960
1,18,Jits_Linear_8,3,5,80,127,43282784
1,18,Jits_Linear_8,0,5,80,127,43912476
1,18,Jits_Linear_8,1,5,63,98,43962596
1,18,Jits_Linear_8,2,1,48,43,43963932
1,18,Jits_Linear_8,3,5,56,103,43983384
1,18,Jits_Linear_8,0,1,48,26,44658456
1,18,Jits_Linear_8,1,5,56,103,44692824
1,18,Jits_Linear_8,2,5,80,127,44762452
1,18,Jits_Linear_8,3,5,63,98,44822840
1,18,Jits_Linear_8,0,5,80,127,45433312
1,18,Jits_Linear_8,1,1,48,32,45487808
1,18,Jits_Linear_8,2,5,63,98,45523440
1,18,Jits_Linear_8,3,5,56,103,45542820
1,18,Jits_Linear_8,0,5,63,98,46192960
1,18,Jits_Linear_8,1,5,56,103,46212492
1,18,Jits_Linear_8,2,1,48,38,46237364
1,18,Jits_Linear_8,3,5,80,127,46253552
1,18,Jits_Linear_8,0,5,80,127,46893564
1,18,Jits_Linear_8,1,5,63,98,46912796
1,18,Jits_Linear_8,2,1,48,33,46983076
1,18,Jits_Linear_8,3,5,56,103,46992676
1,18,Jits_Linear_8,0,1,48,38,47605276
1,18,Jits_Linear_8,1,5,63,98,47622460
1,18,Jits_Linear_8,2,5,56,103,47733364
1,18,Jits_Linear_8,3,5,80,127,47736352
1,18,Jits_Linear_8,0,1,48,34,48336916
1,18,Jits_Linear_8,1,5,63,98,48383320
1,18,Jits_Linear_8,2,5,56,103,48392628
1,18,Jits_Linear_8,3,5,80,127,48395540
1,18,Jits_Linear_8,0,1,48,32,49085908
1,18,Jits_Linear_8,1,5,56,103,49103140
1,18,Jits_Linear_8,2,5,80,127,49223128
1,18,Jits_Linear_8,3,5,63,98,49263148
1,18,Jits_Linear_8,0,5,56,103,49863152
1,18,Jits_Linear_8,1,1,48,42,49933464
1,18,Jits_Linear_8,2,5,80,127,49943060
1,18,Jits_Linear_8,3,5,63,98,49963336
1,18,Jits_Linear_8,0,5,56,103,50593328
1,18,Jits_Linear_8,1,5,63,98,50702708
1,18,Jits_Linear_8,2,5,80,127,50706068
1,18,Jits_Linear_8,3,1,48,33,50750312
1,18,Jits_Linear_8,0,5,56,103,51352964
1,18,Jits_Linear_8,1,5,80,127,51382744
1,18,Jits_Linear_8,2,5,63,98,51403092
1,18,Jits_Linear_8,3,1,48,33,51462924
1,18,Jits_Linear_8,0,5,63,98,52062572
1,18,Jits_Linear_8,1,5,56,103,52072900
1,18,Jits_Linear_8,2,5,80,127,52083004
1,18,Jits_Linear_8,3,1,48,34,52109372
1,18,Jits_Linear_8,0,1,48,40,52760668
1,18,Jits_Linear_8,1,5,80,127,52773196
1,18,Jits_Linear_8,2,5,56,103,52823388
1,18,Jits_Linear_8,3,5,63,98,52863320
1,18,Jits_Linear_8,0,5,80,127,53512412
1,18,Jits_Linear_8,1,5,63,98,53533060
1,18,Jits_Linear_8,2,1,48,48,53539460
1,18,Jits_Linear_8,3,5,56,103,53583248
1,18,Jits_Linear_8,0,5,80,127,54242780
1,18,Jits_Linear_8,1,1,48,31,54246792
1,18,Jits_Linear_8,2,5,56,103,54273448
1,18,Jits_Linear_8,3,5,63,98,54342924
1,18,Jits_Linear_8,0,5,56,103,55012948
1,18,Jits_Linear_8,1,5,80,127,55023128
1,18,Jits_Linear_8,2,5,63,98,55063028
1,18,Jits_Linear_8,3,1,48,26,55084464
1,18,Jits_Linear_8,0,5,56,103,55642456
1,18,Jits_Linear_8,1,5,63,98,55663028
1,18,Jits_Linear_8,2,5,80,127,55732668
1,18,Jits_Linear_8,3,1,48,32,55773032
1,18,Jits_Linear_8,0,1,48,31,56297016
1,18,Jits_Linear_8,1,5,63,98,56382792
1,18,Jits_Linear_8,2,5,80,127,56443220
1,18,Jits_Linear_8,3,5,56,103,56462672
1,18,Jits_Linear_8,0,1,48,43,57076320
1,18,Jits_Linear_8,1,5,80,127,57083384
1,18,Jits_Linear_8,2,5,56,103,57112812
1,18,Jits_Linear_8,3,5,63,98,57142808
1,18,Jits_Linear_8,0,1,48,42,57741936
1,18,Jits_Linear_8,1,5,56,103,57792968
1,18,Jits_Linear_8,2,5,63,98,57853468
1,18,Jits_Linear_8,3,5,80,127,57912664
1,18,Jits_Linear_8,0,1,48,42,58462376
1,18,Jits_Linear_8,1,5,80,127,58523056
1,18,Jits_Linear_8,2,5,56,103,58542588
1,18,Jits_Linear_8,3,5,63,98,58613036
1,18,Jits_Linear_8,0,5,80,127,59232732
1,18,Jits_Linear_8,1,5,63,98,59253084
1,18,Jits_Linear_8,2,1,48,48,59277440
1,18,Jits_Linear_8,3,5,56,103,59282776
1,18,Jits_Linear_8,0,5,80,127,59922888
1,18,Jits_Linear_8,1,5,63,98,59943392
1,18,Jits_Linear_8,2,1,48,42,59944952
1,18,Jits_Linear_8,3,5,56,103,60002780
1,18,Jits_Linear_8,0,1,48,48,60575512
1,18,Jits_Linear_8,1,5,80,127,60623188
1,18,Jits_Linear_8,2,5,56,103,60722536
1,18,Jits_Linear_8,3,5,63,98,60753504
1,18,Jits_Linear_8,0,5,63,98,61313424
1,18,Jits_Linear_8,1,5,80,127,61362644
1,18,Jits_Linear_8,2,1,48,41,61365908
1,18,Jits_Linear_8,3,5,56,103,61382992
1,18,Jits_Linear_8,0,5,80,127,62052860
1,18,Jits_Linear_8,1,5,56,103,62082336
1,18,Jits_Linear_8,2,5,63,98,62085472
1,18,Jits_Linear_8,3,1,48,36,62103328
1,18,Jits_Linear_8,0,1,48,46,62767360
1,18,Jits_Linear_8,1,5,63,98,62782796
1,18,Jits_Linear_8,2,5,56,103,62822744
1,18,Jits_Linear_8,3,5,80,127,62843172
1,18,Jits_Linear_8,0,5,80,127,63422816
1,18,Jits_Linear_8,1,1,48,47,63485692
1,18,Jits_Linear_8,2,5,63,98,63502652
1,18,Jits_Linear_8,3,5,56,103,63542596
1,18,Jits_Linear_8,0,5,63,98,64132580
1,18,Jits_Linear_8,1,1,48,35,64191344
1,18,Jits_Linear_8,2,5,80,127,64213504
1,18,Jits_Linear_8,3,5,56,103,64232888
1,18,Jits_Linear_8,0,1,48,38,64840412
1,18,Jits_Linear_8,1,5,56,103,64862516
1,18,Jits_Linear_8,2,5,63,98,64872920
1,18,Jits_Linear_8,3,5,80,127,64912792
1,18,Jits_Linear_8,0,1,48,34,65442216
1,18,Jits_Linear_8,1,5,56,103,65472828
1,18,Jits_Linear_8,2,5,80,127,65476260
1,18,Jits_Linear_8,3,5,63,98,65613304
1,18,Jits_Linear_8,0,5,56,103,66152948
1,18,Jits_Linear_8,1,5,63,98,66242788
1,18,Jits_Linear_8,2,1,48,34,66262212
1,18,Jits_Linear_8,3,5,80,127,66312516
1,18,Jits_Linear_8,0,5,63,98,66912672
1,18,Jits_Linear_8,1,5,80,127,66916028
1,18,Jits_Linear_8,2,5,56,103,66972960
1,18,Jits_Linear_8,3,1,48,38,67037848
1,18,Jits_Linear_8,0,5,80,127,67632432
1,18,Jits_Linear_8,1,5,56,103,67652932
1,18,Jits_Linear_8,2,5,63,98,67663336
1,18,Jits_Linear_8,3,1,48,43,67719692
1,18,Jits_Linear_8,0,5,56,103,68223464
1,18,Jits_Linear_8,1,5,63,98,68232600
1,18,Jits_Linear_8,2,5,80,127,68303360
1,18,Jits_Linear_8,3,1,48,42,68366176
1,18,Jits_Linear_8,0,5,80,127,68903228
1,18,Jits_Linear_8,1,5,56,103,68952380
1,18,Jits_Linear_8,2,1,48,30,68985408
1,18,Jits_Linear_8,3,5,63,98,69002712
1,18,Jits_Linear_8,0,1,48,33,69665236
1,18,Jits_Linear_8,1,5,56,103,69673488
1,18,Jits_Linear_8,2,5,63,98,69682552
1,18,Jits_Linear_8,3,5,80,127,69722496
1,18,Jits_Linear_8,0,5,56,103,70293164
1,18,Jits_Linear_8,1,5,63,98,70332668
1,18,Jits_Linear_8,2,1,48,48,70361068
1,18,Jits_Linear_8,3,5,80,127,70383076
1,18,Jits_Linear_8,0,5,80,127,70922592
1,18,Jits_Linear_8,1,5,56,103,70972712
1,18,Jits_Linear_8,2,5,63,98,70993212
1,18,Jits_Linear_8,3,1,48,35,71030196
1,18,Jits_Linear_8,0,5,80,127,71602400
1,18,Jits_Linear_8,1,1,48,37,71636252
1,18,Jits_Linear_8,2,5,63,98,71663056
1,18,Jits_Linear_8,3,5,56,103,71742952
1,18,Jits_Linear_8,0,5,80,127,72252844
1,18,Jits_Linear_8,1,5,56,103,72292572
1,18,Jits_Linear_8,2,5,63,98,72313144
1,18,Jits_Linear_8,3,1,48,27,72375564
1,18,Jits_Linear_8,0,5,56,103,72972544
1,18,Jits_Linear_8,1,1,48,29,72978124
1,18,Jits_Linear_8,2,5,80,127,72983312
1,18,Jits_Linear_8,3,5,63,98,73023184
1,18,Jits_Linear_8,0,1,48,23,73654864
1,18,Jits_Linear_8,1,5,56,103,73702912
1,18,Jits_Linear_8,2,5,63,98,73742884
1,18,Jits_Linear_8,3,5,80,127,73746244
1,18,Jits_Linear_8,0,5,63,98,74252600
1,18,Jits_Linear_8,1,5,80,127,74292768
1,18,Jits_Linear_8,2,5,56,103,74363228
1,18,Jits_Linear_8,3,1,48,27,74401952
1,18,Jits_Linear_8,0,5,63,98,74903072
1,18,Jits_Linear_8,1,5,56,103,74983036
1,18,Jits_Linear_8,2,1,48,29,75020964
1,18,Jits_Linear_8,3,5,80,127,75043124
1,18,Jits_Linear_8,0,5,80,127,75572876
1,18,Jits_Linear_8,1,5,63,98,75622920
1,18,Jits_Linear_8,2,5,56,103,75652400
1,18,Jits_Linear_8,3,1,48,35,75680860
1,18,Jits_Linear_8,0,5,56,103,76222992
1,18,Jits_Linear_8,1,5,63,98,76273112
1,18,Jits_Linear_8,2,5,80,127,76283364
1,18,Jits_Linear_8,3,1,48,37,76290184
1,18,Jits_Linear_8,0,5,56,103,76892880
1,18,Jits_Linear_8,1,1,48,30,76942452
1,18,Jits_Linear_8,2,5,63,98,77003132
1,18,Jits_Linear_8,3,5,80,127,77022588
1,18,Jits_Linear_8,0,5,63,98,77542708
1,18,Jits_Linear_8,1,5,80,127,77593072
1,18,Jits_Linear_8,2,1,48,22,77638588
1,18,Jits_Linear_8,3,5,56,103,77683124
1,18,Jits_Linear_8,0,5,63,98,78182812
1,18,Jits_Linear_8,1,1,48,29,78195952
1,18,Jits_Linear_8,2,5,80,127,78212584
1,18,Jits_Linear_8,3,5,56,103,78302704
1,18,Jits_Linear_8,0,5,63,98,78833068
1,18,Jits_Linear_8,1,5,56,103,78843248
1,18,Jits_Linear_8,2,1,48,44,78876524
1,18,Jits_Linear_8,3,5,80,127,78942748
1,18,Jits_Linear_8,0,1,48,41,79494080
1,18,Jits_Linear_8,1,5,63,98,79582748
1,18,Jits_Linear_8,2,5,80,127,79613256
1,18,Jits_Linear_8,3,5,56,103,79642980
1,18,Jits_Linear_8,0,5,80,127,80242992
1,18,Jits_Linear_8,1,5,63,98,80253468
1,18,Jits_Linear_8,2,1,48,44,80283092
1,18,Jits_Linear_8,3,5,56,103,80284732
1,18,Jits_Linear_8,0,5,80,127,80782572
1,18,Jits_Linear_8,1,5,63,98,80803664
1,18,Jits_Linear_8,2,5,56,103,80853336
1,18,Jits_Linear_8,3,1,48,43,81022956
1,18,Jits_Linear_8,0,5,63,98,81453504
1,18,Jits_Linear_8,1,1,48,48,81492676
1,18,Jits_Linear_8,2,5,80,127,81512892
1,18,Jits_Linear_8,3,5,56,103,81533392
1,18,Jits_Linear_8,0,5,63,98,82052456
1,18,Jits_Linear_8,1,5,56,103,82102724
1,18,Jits_Linear_8,2,5,80,127,82112828
1,18,Jits_Linear_8,3,1,48,40,82157296
1,18,Jits_Linear_8,0,1,48,40,82713920
1,18,Jits_Linear_8,1,5,56,103,82723364
1,18,Jits_Linear_8,2,5,80,127,82733544
1,18,Jits_Linear_8,3,5,63,98,82832716
1,18,Jits_Linear_8,0,5,80,127,83323512
1,18,Jits_Linear_8,1,5,63,98,83332500
1,18,Jits_Linear_8,2,1,48,61,83404568
1,18,Jits_Linear_8,3,5,56,103,83483004
1,18,Jits_Linear_8,0,5,63,98,83963608
1,18,Jits_Linear_8,1,5,80,127,84003284
1,18,Jits_Linear_8,2,1,48,54,84066976
1,18,Jits_Linear_8,3,5,56,103,84083012
1,18,Jits_Linear_8,0,5,56,103,84582628
1,18,Jits_Linear_8,1,1,48,50,84672880
1,18,Jits_Linear_8,2,5,80,127,84683000
1,18,Jits_Linear_8,3,5,63,98,84702528
1,18,Jits_Linear_8,0,5,80,127,85273012
1,18,Jits_Linear_8,1,1,48,46,85282064
1,18,Jits_Linear_8,2,5,56,103,85283704
1,18,Jits_Linear_8,3,5,63,98,85373316
1,18,Jits_Linear_8,0,5,56,103,85902644
1,18,Jits_Linear_8,1,1,48,48,85919140
1,18,Jits_Linear_8,2,5,63,98,85923360
1,18,Jits_Linear_8,3,5,80,127,86003172
1,18,Jits_Linear_8,0,5,63,98,86473332
1,18,Jits_Linear_8,1,5,56,103,86563196
1,18,Jits_Linear_8,2,5,80,127,86566180
1,18,Jits_Linear_8,3,1,48,48,86593760
1,18,Jits_Linear_8,0,5,56,103,87123304
1,18,Jits_Linear_8,1,1,48,54,87134048
1,18,Jits_Linear_8,2,5,80,127,87182916
1,18,Jits_Linear_8,3,5,63,98,87193172
1,18,Jits_Linear_8,0,1,48,64,87782972
1,18,Jits_Linear_8,1,5,80,127,87793168
1,18,Jits_Linear_8,2,5,56,103,87803344
1,18,Jits_Linear_8,3,5,63,98,87806556
1,18,Jits_Linear_8,0,5,56,103,88372520
1,18,Jits_Linear_8,1,5,80,127,88382772
1,18,Jits_Linear_8,2,5,63,98,88403348
1,18,Jits_Linear_8,3,1,48,60,88404312
1,18,Jits_Linear_8,0,5,63,98,88962352
1,18,Jits_Linear_8,1,5,80,127,89022792
1,18,Jits_Linear_8,2,1,48,70,89033612
1,18,Jits_Linear_8,3,5,56,103,89073128
1,18,Jits_Linear_8,0,1,48,56,89633396
1,18,Jits_Linear_8,1,5,63,98,89662816
1,18,Jits_Linear_8,2,5,56,103,89673144
1,18,Jits_Linear_8,3,5,80,127,89723192
1,18,Jits_Linear_8,0,5,63,98,90172916
1,18,Jits_Linear_8,1,5,80,127,90193268
1,18,Jits_Linear_8,2,5,56,103,90202404
1,18,Jits_Linear_8,3,1,48,54,90275068
1,18,Jits_Linear_8,0,5,63,98,90783296
1,18,Jits_Linear_8,1,5,80,127,90786504
1,18,Jits_Linear_8,2,5,56,103,90823240
1,18,Jits_Linear_8,3,1,48,44,90844460
1,18,Jits_Linear_8,0,1,48,39,91410256
1,18,Jits_Linear_8,1,5,63,98,91463176
1,18,Jits_Linear_8,2,5,80,127,91492584
1,18,Jits_Linear_8,3,5,56,103,91503564
1,18,Jits_Linear_8,0,5,56,103,92023236
1,18,Jits_Linear_8,1,1,48,46,92033092
1,18,Jits_Linear_8,2,5,80,127,92052784
1,18,Jits_Linear_8,3,5,63,98,92082488
1,18,Jits_Linear_8,0,1,48,36,92659628
1,18,Jits_Linear_8,1,5,63,98,92722524
1,18,Jits_Linear_8,2,5,56,103,92762372
1,18,Jits_Linear_8,3,5,80,127,92765516
1,18,Jits_Linear_8,0,5,80,127,93223268
1,18,Jits_Linear_8,1,5,56,103,93303228
1,18,Jits_Linear_8,2,1,48,43,93311584
1,18,Jits_Linear_8,3,5,63,98,93353412
1,18,Jits_Linear_8,0,5,80,127,93803008
1,18,Jits_Linear_8,1,5,56,103,93823212
1,18,Jits_Linear_8,2,5,63,98,93912372
1,18,Jits_Linear_8,3,1,48,46,93930752
1,18,Jits_Linear_8,0,5,80,127,94442804
1,18,Jits_Linear_8,1,5,63,98,94482928
1,18,Jits_Linear_8,2,1,48,48,94509444
1,18,Jits_Linear_8,3,5,56,103,94522864
1,18,Jits_Linear_8,0,5,63,98,95013292
1,18,Jits_Linear_8,1,5,80,127,95072764
1,18,Jits_Linear_8,2,5,56,103,95103212
1,18,Jits_Linear_8,3,1,48,45,95120844
1,18,Jits_Linear_8,0,5,56,103,95613436
1,18,Jits_Linear_8,1,5,80,127,95642916
1,18,Jits_Linear_8,2,1,48,52,95678484
1,18,Jits_Linear_8,3,5,63,98,95732964
1,18,Jits_Linear_8,0,5,56,103,96213372
1,18,Jits_Linear_8,1,1,48,49,96279256
1,18,Jits_Linear_8,2,5,80,127,96322900
1,18,Jits_Linear_8,3,5,63,98,96352896
1,18,Jits_Linear_8,0,1,48,54,96849868
1,18,Jits_Linear_8,1,5,56,103,96853420
1,18,Jits_Linear_8,2,5,63,98,96912744
1,18,Jits_Linear_8,3,5,80,127,96942296
1,18,Jits_Linear_8,0,5,56,103,97412520
1,18,Jits_Linear_8,1,1,48,51,97450184
1,18,Jits_Linear_8,2,5,63,98,97482980
1,18,Jits_Linear_8,3,5,80,127,97502804
1,18,Jits_Linear_8,0,5,80,127,97972664
1,18,Jits_Linear_8,1,5,63,98,97993020
1,18,Jits_Linear_8,2,1,48,51,98016920
1,18,Jits_Linear_8,3,5,56,103,98043352
1,18,Jits_Linear_8,0,1,48,51,98567948
1,18,Jits_Linear_8,1,5,63,98,98572768
1,18,Jits_Linear_8,2,5,80,127,98582872
1,18,Jits_Linear_8,3,5,56,103,98633212
1,18,Jits_Linear_8,0,1,48,50,99114168
1,18,Jits_Linear_8,1,5,63,98,99153236
1,18,Jits_Linear_8,2,5,80,127,99222788
1,18,Jits_Linear_8,3,5,56,103,99243436
1,18,Jits_Linear_8,0,5,63,98,99762588
1,18,Jits_Linear_8,1,5,80,127,99766020
1,18,Jits_Linear_8,2,1,48,53,99775576
1,18,Jits_Linear_8,3,5,56,103,99833264
1,18,Jits_Linear_8,0,5,80,127,100293088
1,18,Jits_Linear_8,1,5,56,103,100312692
1,18,Jits_Linear_8,2,5,63,98,100323020
1,18,Jits_Linear_8,3,1,48,53,100366920
1,18,Jits_Linear_8,0,5,56,103,100903368
1,18,Jits_Linear_8,1,5,63,98,100993356
1,18,Jits_Linear_8,2,5,80,127,100996860
1,18,Jits_Linear_8,3,1,48,47,101021904
1,18,Jits_Linear_8,0,5,80,127,101453036
1,18,Jits_Linear_8,1,5,56,103,101463516
1,18,Jits_Linear_8,2,5,63,98,101482820
1,18,Jits_Linear_8,3,1,48,56,101557124
1,18,Jits_Linear_8,0,5,63,98,102022452
1,18,Jits_Linear_8,1,5,80,127,102082816
1,18,Jits_Linear_8,2,1,48,46,102091028
1,18,Jits_Linear_8,3,5,56,103,102093064
1,18,Jits_Linear_8,0,1,48,31,102627568
1,18,Jits_Linear_8,1,5,63,98,102662628
1,18,Jits_Linear_8,2,5,80,127,102693224
1,18,Jits_Linear_8,3,5,56,103,102733156
1,18,Jits_Linear_8,0,5,56,103,103222692
1,18,Jits_Linear_8,1,5,80,127,103233020
1,18,Jits_Linear_8,2,1,48,35,103235688
1,18,Jits_Linear_8,3,5,63,98,103272812
1,18,Jits_Linear_8,0,5,80,127,103753144
1,18,Jits_Linear_8,1,5,56,103,103832884
1,18,Jits_Linear_8,2,5,63,98,103843136
1,18,Jits_Linear_8,3,1,48,36,103847220
1,18,Jits_Linear_8,0,5,80,127,104363480
1,18,Jits_Linear_8,1,1,48,35,104442772
1,18,Jits_Linear_8,2,5,56,103,104444556
1,18,Jits_Linear_8,3,5,63,98,104452448
1,18,Jits_Linear_8,0,5,80,127,104882496
1,18,Jits_Linear_8,1,5,56,103,104932696
1,18,Jits_Linear_8,2,5,63,98,104982836
1,18,Jits_Linear_8,3,1,48,24,105094840
1,18,Jits_Linear_8,0,5,56,103,105502944
1,18,Jits_Linear_8,1,5,63,98,105506008
1,18,Jits_Linear_8,2,5,80,127,105553436
1,18,Jits_Linear_8,3,1,48,35,105590572
1,18,Jits_Linear_8,0,5,56,103,106092860
1,18,Jits_Linear_8,1,5,63,98,106122564
1,18,Jits_Linear_8,2,5,80,127,106132744
1,18,Jits_Linear_8,3,1,48,24,106154852
1,18,Jits_Linear_8,0,5,63,98,106562956
1,18,Jits_Linear_8,1,5,56,103,106632524
1,18,Jits_Linear_8,2,5,80,127,106682640
1,18,Jits_Linear_8,3,1,48,28,106718732
1,18,Jits_Linear_8,0,5,63,98,107152708
1,18,Jits_Linear_8,1,5,56,103,107162880
1,18,Jits_Linear_8,2,5,80,127,107165944
1,18,Jits_Linear_8,0,5,80,127,107652492
1,18,Jits_Linear_8,1,5,56,103,107712860
1,18,Jits_Linear_8,2,5,63,98,107802864
1,18,Jits_Linear_8,0,5,80,127,108203312
1,18,Jits_Linear_8,1,5,56,103,108302820
1,18,Jits_Linear_8,2,1,48,25,108315884
1,18,Jits_Linear_8,3,5,63,98,108342612
1,18,Jits_Linear_8,0,5,56,103,108802456
1,18,Jits_Linear_8,1,5,63,98,108822880
1,18,Jits_Linear_8,2,5,80,127,108862828
1,18,Jits_Linear_8,3,1,48,32,108883220
1,18,Jits_Linear_8,0,5,63,98,109322584
1,18,Jits_Linear_8,1,5,56,103,109343232
1,18,Jits_Linear_8,2,1,48,32,109425252
1,18,Jits_Linear_8,3,5,80,127,109442484
1,18,Jits_Linear_8,0,5,63,98,109853316
1,18,Jits_Linear_8,1,5,80,127,109962676
1,18,Jits_Linear_8,2,1,48,33,109964160
1,18,Jits_Linear_8,3,5,56,103,109993268
1,18,Jits_Linear_8,0,5,56,103,110413304
1,18,Jits_Linear_8,1,5,63,98,110443008
1,18,Jits_Linear_8,2,1,48,37,110480220
1,18,Jits_Linear_8,3,5,80,127,110493268
1,18,Jits_Linear_8,0,5,63,98,110923264
1,18,Jits_Linear_8,1,5,56,103,110952744
1,18,Jits_Linear_8,2,1,48,37,110998184
1,18,Jits_Linear_8,3,5,80,127,111003004
1,18,Jits_Linear_8,0,5,56,103,111492376
1,18,Jits_Linear_8,1,1,48,38,111497432
1,18,Jits_Linear_8,2,5,63,98,111513164
1,18,Jits_Linear_8,3,5,80,127,111592752
1,18,Jits_Linear_8,0,5,63,98,112002552
1,18,Jits_Linear_8,1,1,48,34,112020548
1,18,Jits_Linear_8,2,5,56,103,112062916
1,18,Jits_Linear_8,3,5,80,127,112092616
1,18,Jits_Linear_8,0,1,48,27,112582808
1,18,Jits_Linear_8,1,5,56,103,112584364
1,18,Jits_Linear_8,2,5,80,127,112642368
1,18,Jits_Linear_8,3,5,63,98,112683348
1,18,Jits_Linear_8,0,5,63,98,113093052
1,18,Jits_Linear_8,1,5,56,103,113153520
1,18,Jits_Linear_8,2,1,48,15,113154484
1,18,Jits_Linear_8,3,1,48,29,113158928
1,18,Jits_Linear_8,4,5,80,127,113223056
1,18,Jits_Linear_8,0,1,48,46,113674260
1,18,Jits_Linear_8,1,5,56,103,113703304
1,18,Jits_Linear_8,2,5,63,98,113712584
1,18,Jits_Linear_8,3,5,80,127,113716016
1,18,Jits_Linear_8,0,5,63,98,114173308
1,18,Jits_Linear_8,1,5,56,103,114232628
1,18,Jits_Linear_8,2,5,80,127,114235912
1,18,Jits_Linear_8,3,1,48,41,114253024
1,18,Jits_Linear_8,0,5,63,98,114683296
1,18,Jits_Linear_8,1,5,80,127,114713100
1,18,Jits_Linear_8,2,5,56,103,114733448
1,18,Jits_Linear_8,3,1,48,54,114738580
1,18,Jits_Linear_8,0,5,56,103,115212640
1,18,Jits_Linear_8,1,1,48,44,115255472
1,18,Jits_Linear_8,2,5,63,98,115263124
1,18,Jits_Linear_8,3,5,80,127,115342640
1,18,Jits_Linear_8,0,5,80,127,115713400
1,18,Jits_Linear_8,1,1,48,46,115743820
1,18,Jits_Linear_8,2,5,63,98,115753192
1,18,Jits_Linear_8,3,5,56,103,115772944
1,18,Jits_Linear_8,0,1,48,43,116260412
1,18,Jits_Linear_8,1,5,56,103,116303160
1,18,Jits_Linear_8,2,5,80,127,116312368
1,18,Jits_Linear_8,3,5,63,98,116332868
1,18,Jits_Linear_8,0,5,56,103,116803088
1,18,Jits_Linear_8,1,1,48,51,116804052
1,18,Jits_Linear_8,2,5,63,98,116853128
1,18,Jits_Linear_8,3,5,80,127,116882900
1,18,Jits_Linear_8,0,5,56,103,117272960
1,18,Jits_Linear_8,1,5,63,98,117283068
1,18,Jits_Linear_8,2,1,48,53,117295752
1,18,Jits_Linear_8,3,5,80,127,117333328
1,18,Jits_Linear_8,0,5,56,103,117782988
1,18,Jits_Linear_8,1,5,80,127,117785976
1,18,Jits_Linear_8,2,1,48,55,117795228
1,18,Jits_Linear_8,3,5,63,98,117942728
1,18,Jits_Linear_8,0,5,63,98,118313208
1,18,Jits_Linear_8,1,1,48,42,118348404
1,18,Jits_Linear_8,2,5,56,103,118382920
1,18,Jits_Linear_8,3,5,80,127,118423088
1,18,Jits_Linear_8,0,5,63,98,118863324
1,18,Jits_Linear_8,1,1,48,45,118913860
1,18,Jits_Linear_8,2,5,56,103,118953300
1,18,Jits_Linear_8,3,5,80,127,118956364
1,18,Jits_Linear_8,0,5,56,103,119353072
1,18,Jits_Linear_8,1,1,48,57,119437640
1,18,Jits_Linear_8,2,5,63,98,119442832
1,18,Jits_Linear_8,3,5,80,127,119453160
1,18,Jits_Linear_8,0,5,56,103,119832972
1,18,Jits_Linear_8,1,5,63,98,119883092
1,18,Jits_Linear_8,2,5,80,127,119913016
1,18,Jits_Linear_8,3,1,48,58,119971632
1,18,Jits_Linear_8,0,5,63,98,120412644
1,18,Jits_Linear_8,1,5,80,127,120422896
1,18,Jits_Linear_8,2,1,48,55,120446356
1,18,Jits_Linear_8,3,5,56,103,120483256
1,18,Jits_Linear_8,0,5,63,98,120833436
1,18,Jits_Linear_8,1,5,80,127,120892908
1,18,Jits_Linear_8,2,5,56,103,120932856
1,18,Jits_Linear_8,3,1,48,53,120954516
1,18,Jits_Linear_8,0,5,56,103,121432540
1,18,Jits_Linear_8,1,1,48,50,121440380
1,18,Jits_Linear_8,2,5,80,127,121452960
1,18,Jits_Linear_8,3,5,63,98,121473532
1,18,Jits_Linear_8,0,5,63,98,121853348
1,18,Jits_Linear_8,1,5,56,103,121872732
1,18,Jits_Linear_8,2,5,80,127,121912676
1,18,Jits_Linear_8,3,1,48,50,121942276
1,18,Jits_Linear_8,0,5,63,98,122363272
1,18,Jits_Linear_8,1,5,80,127,122392852
1,18,Jits_Linear_8,2,5,56,103,122413348
1,18,Jits_Linear_8,3,1,48,41,122452444
1,18,Jits_Linear_8,0,5,80,127,122833204
1,18,Jits_Linear_8,1,5,56,103,122882528
1,18,Jits_Linear_8,2,5,63,98,122942968
1,18,Jits_Linear_8,3,1,48,27,122947124
1,18,Jits_Linear_8,0,5,63,98,123312576
1,18,Jits_Linear_8,1,1,48,32,123408832
1,18,Jits_Linear_8,2,5,56,103,123433320
1,18,Jits_Linear_8,3,5,80,127,123462948
1,18,Jits_Linear_8,0,5,80,127,123842944
1,18,Jits_Linear_8,1,5,63,98,123863668
1,18,Jits_Linear_8,2,1,48,36,123886904
1,18,Jits_Linear_8,3,5,56,103,123933028
1,18,Jits_Linear_8,0,5,63,98,124352908
1,18,Jits_Linear_8,1,5,56,103,124363236
1,18,Jits_Linear_8,2,1,48,39,124410692
1,18,Jits_Linear_8,3,5,80,127,124443068
1,18,Jits_Linear_8,0,1,48,35,124898352
1,18,Jits_Linear_8,1,5,56,103,124902720
1,18,Jits_Linear_8,2,5,80,127,124932672
1,18,Jits_Linear_8,3,5,63,98,124942704
1,18,Jits_Linear_8,0,9999,9999,9999,9999,14520416
1,18,Jits_Linear_8,1,9999,9999,9999,9999,15340632
1,18,Jits_Linear_8,2,9999,9999,9999,9999,16160868
1,18,Jits_Linear_8,3,9999,9999,9999,9999,16981088
1,18,Jits_Linear_8,4,9999,9999,9999,9999,17800260
1,18,Jits_Linear_8,5,9999,9999,9999,9999,18610304
1,18,Jits_Linear_8,6,9999,9999,9999,9999,19420276
1,18,Jits_Linear_8,7,9999,9999,9999,9999,20230208
1,18,Jits_Linear_8,8,9999,9999,9999,9999,21040248
1,18,Jits_Linear_8,9,9999,9999,9999,9999,21850200
1,18,Jits_Linear_8,10,9999,9999,9999,9999,22650980
1,18,Jits_Linear_8,11,9999,9999,9999,9999,23450748
1,18,Jits_Linear_8,12,9999,9999,9999,9999,24250484
1,18,Jits_Linear_8,13,9999,9999,9999,9999,25050216
1,18,Jits_Linear_8,14,9999,9999,9999,9999,25850960
1,18,Jits_Linear_8,15,9999,9999,9999,9999,26640444
1,18,Jits_Linear_8,16,9999,9999,9999,9999,27431020
1,18,Jits_Linear_8,17,9999,9999,9999,9999,28220508
1,18,Jits_Linear_8,18,9999,9999,9999,9999,29011028
1,18,Jits_Linear_8,19,9999,9999,9999,9999,29800512
1,18,Jits_Linear_8,20,9999,9999,9999,9999,30580856
1,18,Jits_Linear_8,21,9999,9999,9999,9999,31360076
1,18,Jits_Linear_8,22,9999,9999,9999,9999,32140352
1,18,Jits_Linear_8,23,9999,9999,9999,9999,32920636
1,18,Jits_Linear_8,24,9999,9999,9999,9999,33700972
1,18,Jits_Linear_8,25,9999,9999,9999,9999,34471000
1,18,Jits_Linear_8,26,9999,9999,9999,9999,35241036
1,18,Jits_Linear_8,27,9999,9999,9999,9999,36011136
1,18,Jits_Linear_8,28,9999,9999,9999,9999,36790344
1,18,Jits_Linear_8,29,9999,9999,9999,9999,37560392
1,18,Jits_Linear_8,30,9999,9999,9999,9999,38320240
1,18,Jits_Linear_8,31,9999,9999,9999,9999,39081060
1,18,Jits_Linear_8,32,9999,9999,9999,9999,39840852
1,18,Jits_Linear_8,33,9999,9999,9999,9999,40600696
1,18,Jits_Linear_8,34,9999,9999,9999,9999,41360448
1,18,Jits_Linear_8,35,9999,9999,9999,9999,42111036
1,18,Jits_Linear_8,36,9999,9999,9999,9999,42860648
1,18,Jits_Linear_8,37,9999,9999,9999,9999,43610184
1,18,Jits_Linear_8,38,9999,9999,9999,9999,44360768
1,18,Jits_Linear_8,39,9999,9999,9999,9999,45110392
1,18,Jits_Linear_8,40,9999,9999,9999,9999,45850724
1,18,Jits_Linear_8,41,9999,9999,9999,9999,46591044
1,18,Jits_Linear_8,42,9999,9999,9999,9999,47330392
1,18,Jits_Linear_8,43,9999,9999,9999,9999,48070728
1,18,Jits_Linear_8,44,9999,9999,9999,9999,48811112
1,18,Jits_Linear_8,45,9999,9999,9999,9999,49550400
1,18,Jits_Linear_8,46,9999,9999,9999,9999,50280560
1,18,Jits_Linear_8,47,9999,9999,9999,9999,51010656
1,18,Jits_Linear_8,48,9999,9999,9999,9999,51740752
1,18,Jits_Linear_8,49,9999,9999,9999,9999,52470896
1,18,Jits_Linear_8,50,9999,9999,9999,9999,53190736
1,18,Jits_Linear_8,51,9999,9999,9999,9999,53910644
1,18,Jits_Linear_8,52,9999,9999,9999,9999,54630472
1,18,Jits_Linear_8,53,9999,9999,9999,9999,55350332
1,18,Jits_Linear_8,54,9999,9999,9999,9999,56070256
1,18,Jits_Linear_8,55,9999,9999,9999,9999,56780884
1,18,Jits_Linear_8,56,9999,9999,9999,9999,57490548
1,18,Jits_Linear_8,57,9999,9999,9999,9999,58200144
1,18,Jits_Linear_8,58,9999,9999,9999,9999,58910780
1,18,Jits_Linear_8,59,9999,9999,9999,9999,59620424
1,18,Jits_Linear_8,60,9999,9999,9999,9999,60320828
1,18,Jits_Linear_8,61,9999,9999,9999,9999,61020268
1,18,Jits_Linear_8,62,9999,9999,9999,9999,61720660
1,18,Jits_Linear_8,63,9999,9999,9999,9999,62421092
1,18,Jits_Linear_8,64,9999,9999,9999,9999,63120464
1,18,Jits_Linear_8,65,9999,9999,9999,9999,63810684
1,18,Jits_Linear_8,66,9999,9999,9999,9999,64500828
1,18,Jits_Linear_8,67,9999,9999,9999,9999,65190980
1,18,Jits_Linear_8,68,9999,9999,9999,9999,65880140
1,18,Jits_Linear_8,69,9999,9999,9999,9999,66570364
1,18,Jits_Linear_8,70,9999,9999,9999,9999,67250244
1,18,Jits_Linear_8,71,9999,9999,9999,9999,67930224
1,18,Jits_Linear_8,72,9999,9999,9999,9999,68610136
1,18,Jits_Linear_8,73,9999,9999,9999,9999,69291072
1,18,Jits_Linear_8,74,9999,9999,9999,9999,69980268
1,18,Jits_Linear_8,75,9999,9999,9999,9999,70650944
1,18,Jits_Linear_8,76,9999,9999,9999,9999,71320676
1,18,Jits_Linear_8,77,9999,9999,9999,9999,71990344
1,18,Jits_Linear_8,78,9999,9999,9999,9999,72661100
1,18,Jits_Linear_8,79,9999,9999,9999,9999,73330764
1,18,Jits_Linear_8,80,9999,9999,9999,9999,73990264
1,18,Jits_Linear_8,81,9999,9999,9999,9999,74650684
1,18,Jits_Linear_8,82,9999,9999,9999,9999,75310168
1,18,Jits_Linear_8,83,9999,9999,9999,9999,75970664
1,18,Jits_Linear_8,84,9999,9999,9999,9999,76630080
1,18,Jits_Linear_8,85,9999,9999,9999,9999,77280356
1,18,Jits_Linear_8,86,9999,9999,9999,9999,77930576
1,18,Jits_Linear_8,87,9999,9999,9999,9999,78580832
1,18,Jits_Linear_8,88,9999,9999,9999,9999,79231028
1,18,Jits_Linear_8,89,9999,9999,9999,9999,79880276
1,18,Jits_Linear_8,90,9999,9999,9999,9999,80520292
1,18,Jits_Linear_8,91,9999,9999,9999,9999,81160264
1,18,Jits_Linear_8,92,9999,9999,9999,9999,81800288
1,18,Jits_Linear_8,93,9999,9999,9999,9999,82440248
1,18,Jits_Linear_8,94,9999,9999,9999,9999,83080252
1,18,Jits_Linear_8,95,9999,9999,9999,9999,83711084
1,18,Jits_Linear_8,96,9999,9999,9999,9999,84340856
1,18,Jits_Linear_8,97,9999,9999,9999,9999,84970620
1,18,Jits_Linear_8,98,9999,9999,9999,9999,85600352
1,18,Jits_Linear_8,99,9999,9999,9999,9999,86230132
1,18,Jits_Linear_8,100,9999,9999,9999,9999,86850648
1,18,Jits_Linear_8,101,9999,9999,9999,9999,87470164
1,18,Jits_Linear_8,102,9999,9999,9999,9999,88090732
1,18,Jits_Linear_8,103,9999,9999,9999,9999,88710248
1,18,Jits_Linear_8,104,9999,9999,9999,9999,89330748
1,18,Jits_Linear_8,105,9999,9999,9999,9999,89941100
1,18,Jits_Linear_8,106,9999,9999,9999,9999,90550360
1,18,Jits_Linear_8,107,9999,9999,9999,9999,91160680
1,18,Jits_Linear_8,108,9999,9999,9999,9999,91771000
1,18,Jits_Linear_8,109,9999,9999,9999,9999,92380268
1,18,Jits_Linear_8,110,9999,9999,9999,9999,92980304
1,18,Jits_Linear_8,111,9999,9999,9999,9999,93580376
1,18,Jits_Linear_8,112,9999,9999,9999,9999,94180452
1,18,Jits_Linear_8,113,9999,9999,9999,9999,94780488
1,18,Jits_Linear_8,114,9999,9999,9999,9999,95380568
1,18,Jits_Linear_8,115,9999,9999,9999,9999,95970392
1,18,Jits_Linear_8,116,9999,9999,9999,9999,96560188
1,18,Jits_Linear_8,117,9999,9999,9999,9999,97151080
1,18,Jits_Linear_8,118,9999,9999,9999,9999,97740904
1,18,Jits_Linear_8,119,9999,9999,9999,9999,98330688
1,18,Jits_Linear_8,120,9999,9999,9999,9999,98910280
1,18,Jits_Linear_8,121,9999,9999,9999,9999,99490904
1,18,Jits_Linear_8,122,9999,9999,9999,9999,100070472
1,18,Jits_Linear_8,123,9999,9999,9999,9999,100651112
1,18,Jits_Linear_8,124,9999,9999,9999,9999,101240948
1,18,Jits_Linear_8,125,9999,9999,9999,9999,101810284
1,18,Jits_Linear_8,126,9999,9999,9999,9999,102380672
1,18,Jits_Linear_8,127,9999,9999,9999,9999,102951008
1,18,Jits_Linear_8,128,9999,9999,9999,9999,103520340
1,18,Jits_Linear_8,129,9999,9999,9999,9999,104090728
1,18,Jits_Linear_8,130,9999,9999,9999,9999,104650808
1,18,Jits_Linear_8,131,9999,9999,9999,9999,105210956
1,18,Jits_Linear_8,132,9999,9999,9999,9999,105771116
1,18,Jits_Linear_8,133,9999,9999,9999,9999,106340472
1,18,Jits_Linear_8,134,9999,9999,9999,9999,106900540
1,18,Jits_Linear_8,135,9999,9999,9999,9999,107450436
1,18,Jits_Linear_8,136,9999,9999,9999,9999,108000348
1,18,Jits_Linear_8,137,9999,9999,9999,9999,108550200
1,18,Jits_Linear_8,138,9999,9999,9999,9999,109100100
1,18,Jits_Linear_8,139,9999,9999,9999,9999,109651044
1,18,Jits_Linear_8,140,9999,9999,9999,9999,110190684
1,18,Jits_Linear_8,141,9999,9999,9999,9999,110730328
1,18,Jits_Linear_8,142,9999,9999,9999,9999,111271020
1,18,Jits_Linear_8,143,9999,9999,9999,9999,111810660
1,18,Jits_Linear_8,144,9999,9999,9999,9999,112350312
1,18,Jits_Linear_8,145,9999,9999,9999,9999,112880752
1,18,Jits_Linear_8,146,9999,9999,9999,9999,113410156
1,18,Jits_Linear_8,147,9999,9999,9999,9999,113940592
1,18,Jits_Linear_8,148,9999,9999,9999,9999,114471024
1,18,Jits_Linear_8,149,9999,9999,9999,9999,115000412
1,18,Jits_Linear_8,150,9999,9999,9999,9999,115520612
1,18,Jits_Linear_8,151,9999,9999,9999,9999,116040812
1,18,Jits_Linear_8,152,9999,9999,9999,9999,116561020
1,18,Jits_Linear_8,153,9999,9999,9999,9999,117080172
1,18,Jits_Linear_8,154,9999,9999,9999,9999,117600372
1,18,Jits_Linear_8,155,9999,9999,9999,9999,118110320
1,18,Jits_Linear_8,156,9999,9999,9999,9999,118620284
1,18,Jits_Linear_8,157,9999,9999,9999,9999,119130228
1,18,Jits_Linear_8,158,9999,9999,9999,9999,119640180
1,18,Jits_Linear_8,159,9999,9999,9999,9999,120150140
1,18,Jits_Linear_8,160,9999,9999,9999,9999,120650832
1,18,Jits_Linear_8,161,9999,9999,9999,9999,121150532
1,18,Jits_Linear_8,162,9999,9999,9999,9999,121650236
1,18,Jits_Linear_8,163,9999,9999,9999,9999,122150996
1,18,Jits_Linear_8,164,9999,9999,9999,9999,122650696
1,18,Jits_Linear_8,165,9999,9999,9999,9999,123140152
1,18,Jits_Linear_8,166,9999,9999,9999,9999,123630648
1,18,Jits_Linear_8,167,9999,9999,9999,9999,124120176
1,18,Jits_Linear_8,168,9999,9999,9999,9999,124610620
1,18,Jits_Linear_8,169,9999,9999,9999,9999,125100160
2,5,ISIP_5,0,5,42,127,173436276
2,5,ISIP_5,1,5,42,127,173936120
2,5,ISIP_5,2,1,48,18,174163796
2,5,ISIP_5,3,5,42,127,174435576
2,5,ISIP_5,4,1,48,29,174537700
2,5,ISIP_5,5,5,42,127,174936372
2,5,ISIP_5,6,1,48,37,174984064
2,5,ISIP_5,7,5,42,127,175436272
2,5,ISIP_5,8,1,48,40,175439312
2,5,ISIP_5,9,5,42,127,175935800
2,5,ISIP_5,10,1,48,53,175966988
2,5,ISIP_5,11,5,42,127,176435476
2,5,ISIP_5,12,1,48,49,176481004
2,5,ISIP_5,13,5,42,127,176936272
2,5,ISIP_5,14,1,48,57,176941028
2,5,ISIP_5,15,5,42,127,177436168
2,5,ISIP_5,16,1,48,55,177444584
2,5,ISIP_5,17,5,42,127,177935700
2,5,ISIP_5,18,1,48,54,177936664
2,5,ISIP_5,19,5,42,127,178435300
2,5,ISIP_5,20,1,48,57,178439980
2,5,ISIP_5,21,1,48,56,178934780
2,5,ISIP_5,22,5,42,127,178936536
2,5,ISIP_5,23,5,42,127,179435972
2,5,ISIP_5,24,1,48,53,179437304
2,5,ISIP_5,25,5,42,127,179935496
2,5,ISIP_5,26,1,48,49,179943388
2,5,ISIP_5,27,5,42,127,180436292
2,5,ISIP_5,28,1,48,54,180444112
2,5,ISIP_5,29,1,48,57,180935592
2,5,ISIP_5,30,5,42,127,180937380
2,5,ISIP_5,31,5,42,127,181435944
2,5,ISIP_5,32,1,48,51,181443764
2,5,ISIP_5,33,1,48,51,181924600
2,5,ISIP_5,34,5,42,127,181935392
2,5,ISIP_5,35,1,48,56,182420772
2,5,ISIP_5,36,5,42,127,182436184
2,5,ISIP_5,37,1,48,42,182929856
2,5,ISIP_5,38,5,42,127,182935788
2,5,ISIP_5,39,1,48,52,183426100
2,5,ISIP_5,40,5,42,127,183435908
2,5,ISIP_5,41,1,48,48,183909120
2,5,ISIP_5,42,5,42,127,183936332
2,5,ISIP_5,43,1,48,49,184397972
2,5,ISIP_5,44,5,42,127,184436084
2,5,ISIP_5,45,1,48,54,184880768
2,5,ISIP_5,46,5,42,127,184935912
2,5,ISIP_5,47,1,48,50,185408076
2,5,ISIP_5,48,5,42,127,185435584
2,5,ISIP_5,49,1,48,49,185880416
2,5,ISIP_5,50,5,42,127,185936160
2,5,ISIP_5,51,1,48,46,186408472
2,5,ISIP_5,52,5,42,127,186435912
2,5,ISIP_5,53,1,48,48,186906428
2,5,ISIP_5,54,5,42,127,186935516
2,5,ISIP_5,55,1,48,47,187399760
2,5,ISIP_5,56,5,42,127,187436460
2,5,ISIP_5,57,1,48,51,187900260
2,5,ISIP_5,58,5,42,127,187936208
2,5,ISIP_5,59,1,48,47,188396028
2,5,ISIP_5,60,5,42,127,188435812
2,5,ISIP_5,61,1,48,45,188902572
2,5,ISIP_5,62,5,42,127,188935488
2,5,ISIP_5,63,1,48,52,189385972
2,5,ISIP_5,64,5,42,127,189436508
2,5,ISIP_5,65,1,48,48,189889532
2,5,ISIP_5,66,5,42,127,189935864
2,5,ISIP_5,67,1,48,52,190388388
2,5,ISIP_5,68,5,42,127,190435612
2,5,ISIP_5,69,1,48,39,190911136
2,5,ISIP_5,70,5,42,127,190936408
2,5,ISIP_5,71,1,48,51,191400656
2,5,ISIP_5,72,5,42,127,191436532
2,5,ISIP_5,73,1,48,56,191891896
2,5,ISIP_5,74,5,42,127,191935836
2,5,ISIP_5,75,1,48,52,192412628
2,5,ISIP_5,76,5,42,127,192435512
2,5,ISIP_5,77,1,48,58,192925596
2,5,ISIP_5,78,5,42,127,192936532
2,5,ISIP_5,79,1,48,58,193422440
2,5,ISIP_5,80,1,48,52,193908148
2,5,ISIP_5,81,1,48,51,194407292
2,5,ISIP_5,82,1,48,51,194893080
2,5,ISIP_5,83,1,48,51,195385732
2,5,ISIP_5,84,1,48,53,195888244
2,5,ISIP_5,85,1,48,51,196391424
2,5,ISIP_5,86,1,48,48,196880936
2,5,ISIP_5,87,1,48,54,197377772
2,5,ISIP_5,88,1,48,54,197858976
2,5,ISIP_5,89,1,48,50,198362160
2,5,ISIP_5,90,1,48,54,198829568
2,5,ISIP_5,91,1,48,51,199327972
2,5,ISIP_5,92,1,48,55,199835628
2,5,ISIP_5,93,1,48,46,200332396
2,5,ISIP_5,94,1,48,38,200844008
2,5,ISIP_5,95,1,48,54,201328004
2,5,ISIP_5,96,1,48,57,201839848
2,5,ISIP_5,97,1,48,58,202324580
2,5,ISIP_5,98,1,48,54,202818352
2,5,ISIP_5,99,1,48,58,203303992
2,5,ISIP_5,100,1,48,59,203796044
2,5,ISIP_5,101,1,48,51,204301240
2,5,ISIP_5,102,1,48,44,204802332
2,5,ISIP_5,103,1,48,44,205272780
2,5,ISIP_5,104,1,48,50,205754684
2,5,ISIP_5,105,1,48,56,206235012
2,5,ISIP_5,106,1,48,57,206731400
2,5,ISIP_5,107,1,48,57,207214044
2,5,ISIP_5,108,1,48,57,207704752
2,5,ISIP_5,109,1,48,51,208202860
2,5,ISIP_5,110,1,48,53,208688272
2,5,ISIP_5,111,1,48,51,209190404
2,5,ISIP_5,112,1,48,51,209669392
2,5,ISIP_5,113,1,48,61,210149324
2,5,ISIP_5,114,1,48,58,210651088
2,5,ISIP_5,115,1,48,55,211141728
2,5,ISIP_5,116,1,48,51,211631836
2,5,ISIP_5,117,1,48,63,212141812
2,5,ISIP_5,118,1,48,54,212620580
2,5,ISIP_5,119,1,48,55,213126964
2,5,ISIP_5,120,1,48,56,213607900
2,5,ISIP_5,121,1,48,59,214100548
2,5,ISIP_5,122,1,48,60,214595964
2,5,ISIP_5,123,1,48,60,215083020
2,5,ISIP_5,124,1,48,52,215607180
2,5,ISIP_5,125,1,48,51,216080944
2,5,ISIP_5,126,1,48,62,216575240
2,5,ISIP_5,127,1,48,48,217042776
2,5,ISIP_5,128,1,48,49,217528036
2,5,ISIP_5,129,1,48,59,218027188
2,5,ISIP_5,130,1,48,65,218500352
2,5,ISIP_5,131,1,48,49,218999720
2,5,ISIP_5,132,1,48,50,219483112
2,5,ISIP_5,133,1,48,56,219966880
2,5,ISIP_5,134,1,48,54,220453412
2,5,ISIP_5,135,1,48,57,220929252
2,5,ISIP_5,136,1,48,60,221420528
2,5,ISIP_5,137,1,48,58,221900340
2,5,ISIP_5,138,1,48,53,222388736
2,5,ISIP_5,139,1,48,56,222874668
2,5,ISIP_5,140,1,48,65,223367396
2,5,ISIP_5,141,1,48,68,223848696
2,5,ISIP_5,142,1,48,57,224331120
2,5,ISIP_5,143,1,48,53,224810996
2,5,ISIP_5,144,1,48,59,225316200
2,5,ISIP_5,145,1,48,57,225812360
2,5,ISIP_5,146,1,48,58,226306208
2,5,ISIP_5,147,1,48,65,226790848
2,5,ISIP_5,148,1,48,64,227295744
2,5,ISIP_5,149,1,48,67,227797136
2,5,ISIP_5,150,1,48,67,228287024
2,5,ISIP_5,151,1,48,67,228789160
2,5,ISIP_5,152,1,48,71,229286516
2,5,ISIP_5,153,1,48,61,229780212
2,5,ISIP_5,154,1,48,62,230259952
2,5,ISIP_5,155,1,48,68,230770596
2,5,ISIP_5,156,1,48,65,231268628
2,5,ISIP_5,157,1,48,57,231750976
2,5,ISIP_5,158,1,48,67,232262444
2,5,ISIP_5,159,1,48,54,232755992
2,5,ISIP_5,160,1,48,73,233258724
2,5,ISIP_5,161,1,48,58,233750108
2,5,ISIP_5,162,1,48,62,234252324
2,5,ISIP_5,163,1,48,72,234724788
2,5,ISIP_5,164,1,48,70,235261444
2,5,ISIP_5,165,1,48,67,235724724
2,5,ISIP_5,166,1,48,69,236205876
2,5,ISIP_5,167,1,48,51,236677252
2,5,ISIP_5,168,1,48,64,237188868
2,5,ISIP_5,169,1,48,54,237674504
2,5,ISIP_5,170,1,48,71,238153116
2,5,ISIP_5,171,1,48,52,238637704
2,5,ISIP_5,172,1,48,63,239135956
2,5,ISIP_5,173,1,48,62,239612260
2,5,ISIP_5,174,1,48,68,240092864
2,5,ISIP_5,175,1,48,57,240607548
2,5,ISIP_5,176,1,48,62,241091384
2,5,ISIP_5,177,1,48,69,241567680
2,5,ISIP_5,178,1,48,67,242066832
2,5,ISIP_5,179,1,48,67,242557840
2,5,ISIP_5,180,1,48,81,243036752
2,5,ISIP_5,181,1,48,79,243523660
2,5,ISIP_5,182,1,48,71,244021392
2,5,ISIP_5,183,1,48,63,244496492
2,5,ISIP_5,184,1,48,85,245003780
2,5,ISIP_5,185,1,48,84,245491280
2,5,ISIP_5,186,1,48,59,245967180
2,5,ISIP_5,187,1,48,65,246486340
2,5,ISIP_5,188,1,48,69,246946436
2,5,ISIP_5,189,1,48,67,247425856
2,5,ISIP_5,190,1,48,69,247909176
2,5,ISIP_5,191,1,48,75,248399292
2,5,ISIP_5,192,1,48,53,248889856
2,5,ISIP_5,193,1,48,76,249373920
2,5,ISIP_5,194,1,48,69,249850896
2,5,ISIP_5,195,1,48,67,250332248
2,5,ISIP_5,196,1,48,70,250830420
2,5,ISIP_5,197,1,48,61,251320388
2,5,ISIP_5,198,1,48,63,251808704
2,5,ISIP_5,199,1,48,59,252294116
2,5,ISIP_5,200,1,48,58,252798640
2,5,ISIP_5,201,1,48,65,253269120
2,5,ISIP_5,0,9999,9999,9999,9999,173433916
2,5,ISIP_5,1,9999,9999,9999,9999,173933616
2,5,ISIP_5,2,9999,9999,9999,9999,174433368
2,5,ISIP_5,3,9999,9999,9999,9999,174934088
2,5,ISIP_5,4,9999,9999,9999,9999,175433840
2,5,ISIP_5,5,9999,9999,9999,9999,175933516
2,5,ISIP_5,6,9999,9999,9999,9999,176433268
2,5,ISIP_5,7,9999,9999,9999,9999,176933988
2,5,ISIP_5,8,9999,9999,9999,9999,177433664
2,5,ISIP_5,9,9999,9999,9999,9999,177933416
2,5,ISIP_5,10,9999,9999,9999,9999,178433092
2,5,ISIP_5,11,9999,9999,9999,9999,178933864
2,5,ISIP_5,12,9999,9999,9999,9999,179433540
2,5,ISIP_5,13,9999,9999,9999,9999,179933288
2,5,ISIP_5,14,9999,9999,9999,9999,180434012
2,5,ISIP_5,15,9999,9999,9999,9999,180933688
2,5,ISIP_5,16,9999,9999,9999,9999,181433436
2,5,ISIP_5,17,9999,9999,9999,9999,181933108
2,5,ISIP_5,18,9999,9999,9999,9999,182433900
2,5,ISIP_5,19,9999,9999,9999,9999,182933580
2,5,ISIP_5,20,9999,9999,9999,9999,183433332
2,5,ISIP_5,21,9999,9999,9999,9999,183934052
2,5,ISIP_5,22,9999,9999,9999,9999,184433728
2,5,ISIP_5,23,9999,9999,9999,9999,184933480
2,5,ISIP_5,24,9999,9999,9999,9999,185433156
2,5,ISIP_5,25,9999,9999,9999,9999,185933876
2,5,ISIP_5,26,9999,9999,9999,9999,186433628
2,5,ISIP_5,27,9999,9999,9999,9999,186933304
2,5,ISIP_5,28,9999,9999,9999,9999,187434100
2,5,ISIP_5,29,9999,9999,9999,9999,187933776
2,5,ISIP_5,30,9999,9999,9999,9999,188433528
2,5,ISIP_5,31,9999,9999,9999,9999,188933204
2,5,ISIP_5,32,9999,9999,9999,9999,189433928
2,5,ISIP_5,33,9999,9999,9999,9999,189933656
2,5,ISIP_5,34,9999,9999,9999,9999,190433332
2,5,ISIP_5,35,9999,9999,9999,9999,190934128
2,5,ISIP_5,36,9999,9999,9999,9999,191433804
2,5,ISIP_5,37,9999,9999,9999,9999,191933556
2,5,ISIP_5,38,9999,9999,9999,9999,192433232
2,5,ISIP_5,39,9999,9999,9999,9999,192933956
2,5,ISIP_5,40,9999,9999,9999,9999,193433704
2,5,ISIP_5,41,9999,9999,9999,9999,193933376
2,5,ISIP_5,42,9999,9999,9999,9999,194433124
2,5,ISIP_5,43,9999,9999,9999,9999,194933840
2,5,ISIP_5,44,9999,9999,9999,9999,195433588
2,5,ISIP_5,45,9999,9999,9999,9999,195933260
2,5,ISIP_5,46,9999,9999,9999,9999,196433976
2,5,ISIP_5,47,9999,9999,9999,9999,196933724
2,5,ISIP_5,48,9999,9999,9999,9999,197433392
2,5,ISIP_5,49,9999,9999,9999,9999,197933140
2,5,ISIP_5,50,9999,9999,9999,9999,198433856
2,5,ISIP_5,51,9999,9999,9999,9999,198933588
2,5,ISIP_5,52,9999,9999,9999,9999,199433332
2,5,ISIP_5,53,9999,9999,9999,9999,199934048
2,5,ISIP_5,54,9999,9999,9999,9999,200433772
2,5,ISIP_5,55,9999,9999,9999,9999,200933460
2,5,ISIP_5,56,9999,9999,9999,9999,201433188
2,5,ISIP_5,57,9999,9999,9999,9999,201933908
2,5,ISIP_5,58,9999,9999,9999,9999,202433652
2,5,ISIP_5,59,9999,9999,9999,9999,202933324
2,5,ISIP_5,60,9999,9999,9999,9999,203434044
2,5,ISIP_5,61,9999,9999,9999,9999,203933788
2,5,ISIP_5,62,9999,9999,9999,9999,204433460
2,5,ISIP_5,63,9999,9999,9999,9999,204933208
2,5,ISIP_5,64,9999,9999,9999,9999,205433924
2,5,ISIP_5,65,9999,9999,9999,9999,205933672
2,5,ISIP_5,66,9999,9999,9999,9999,206433340
2,5,ISIP_5,67,9999,9999,9999,9999,206934132
2,5,ISIP_5,68,9999,9999,9999,9999,207433804
2,5,ISIP_5,69,9999,9999,9999,9999,207933548
2,5,ISIP_5,70,9999,9999,9999,9999,208433224
2,5,ISIP_5,71,9999,9999,9999,9999,208933940
2,5,ISIP_5,72,9999,9999,9999,9999,209433684
2,5,ISIP_5,73,9999,9999,9999,9999,209933432
2,5,ISIP_5,74,9999,9999,9999,9999,210433104
2,5,ISIP_5,75,9999,9999,9999,9999,210933820
2,5,ISIP_5,76,9999,9999,9999,9999,211433544
2,5,ISIP_5,77,9999,9999,9999,9999,211933288
2,5,ISIP_5,78,9999,9999,9999,9999,212434004
2,5,ISIP_5,79,9999,9999,9999,9999,212933752
2,5,ISIP_5,80,9999,9999,9999,9999,213433424
2,5,ISIP_5,81,9999,9999,9999,9999,213933168
2,5,ISIP_5,82,9999,9999,9999,9999,214433884
2,5,ISIP_5,83,9999,9999,9999,9999,214933560
2,5,ISIP_5,84,9999,9999,9999,9999,215433304
2,5,ISIP_5,85,9999,9999,9999,9999,215934020
2,5,ISIP_5,86,9999,9999,9999,9999,216433768
2,5,ISIP_5,87,9999,9999,9999,9999,216933440
2,5,ISIP_5,88,9999,9999,9999,9999,217433188
2,5,ISIP_5,89,9999,9999,9999,9999,217933904
2,5,ISIP_5,90,9999,9999,9999,9999,218433648
2,5,ISIP_5,91,9999,9999,9999,9999,218933320
2,5,ISIP_5,92,9999,9999,9999,9999,219434040
2,5,ISIP_5,93,9999,9999,9999,9999,219933784
2,5,ISIP_5,94,9999,9999,9999,9999,220433456
2,5,ISIP_5,95,9999,9999,9999,9999,220933196
2,5,ISIP_5,96,9999,9999,9999,9999,221433912
2,5,ISIP_5,97,9999,9999,9999,9999,221933636
2,5,ISIP_5,98,9999,9999,9999,9999,222433380
2,5,ISIP_5,99,9999,9999,9999,9999,222934096
2,5,ISIP_5,100,9999,9999,9999,9999,223433844
2,5,ISIP_5,101,9999,9999,9999,9999,223933512
2,5,ISIP_5,102,9999,9999,9999,9999,224433244
2,5,ISIP_5,103,9999,9999,9999,9999,224933964
2,5,ISIP_5,104,9999,9999,9999,9999,225433708
2,5,ISIP_5,105,9999,9999,9999,9999,225933380
2,5,ISIP_5,106,9999,9999,9999,9999,226433124
2,5,ISIP_5,107,9999,9999,9999,9999,226933844
2,5,ISIP_5,108,9999,9999,9999,9999,227433588
2,5,ISIP_5,109,9999,9999,9999,9999,227933260
2,5,ISIP_5,110,9999,9999,9999,9999,228433980
2,5,ISIP_5,111,9999,9999,9999,9999,228933728
2,5,ISIP_5,112,9999,9999,9999,9999,229433396
2,5,ISIP_5,113,9999,9999,9999,9999,229933144
2,5,ISIP_5,114,9999,9999,9999,9999,230433860
2,5,ISIP_5,115,9999,9999,9999,9999,230933608
2,5,ISIP_5,116,9999,9999,9999,9999,231433280
2,5,ISIP_5,117,9999,9999,9999,9999,231934072
2,5,ISIP_5,118,9999,9999,9999,9999,232433716
2,5,ISIP_5,119,9999,9999,9999,9999,232933464
2,5,ISIP_5,120,9999,9999,9999,9999,233433136
2,5,ISIP_5,121,9999,9999,9999,9999,233933928
2,5,ISIP_5,122,9999,9999,9999,9999,234433600
2,5,ISIP_5,123,9999,9999,9999,9999,234933344
2,5,ISIP_5,124,9999,9999,9999,9999,235434064
2,5,ISIP_5,125,9999,9999,9999,9999,235933808
2,5,ISIP_5,126,9999,9999,9999,9999,236433480
2,5,ISIP_5,127,9999,9999,9999,9999,236933228
2,5,ISIP_5,128,9999,9999,9999,9999,237433944
2,5,ISIP_5,129,9999,9999,9999,9999,237933688
2,5,ISIP_5,130,9999,9999,9999,9999,238433360
2,5,ISIP_5,131,9999,9999,9999,9999,238934076
2,5,ISIP_5,132,9999,9999,9999,9999,239433824
2,5,ISIP_5,133,9999,9999,9999,9999,239933496
2,5,ISIP_5,134,9999,9999,9999,9999,240433244
2,5,ISIP_5,135,9999,9999,9999,9999,240933960
2,5,ISIP_5,136,9999,9999,9999,9999,241433704
2,5,ISIP_5,137,9999,9999,9999,9999,241933376
2,5,ISIP_5,138,9999,9999,9999,9999,242433124
2,5,ISIP_5,139,9999,9999,9999,9999,242933840
2,5,ISIP_5,140,9999,9999,9999,9999,243433564
2,5,ISIP_5,141,9999,9999,9999,9999,243933232
2,5,ISIP_5,142,9999,9999,9999,9999,244434024
2,5,ISIP_5,143,9999,9999,9999,9999,244933696
2,5,ISIP_5,144,9999,9999,9999,9999,245433444
2,5,ISIP_5,145,9999,9999,9999,9999,245933116
2,5,ISIP_5,146,9999,9999,9999,9999,246433904
2,5,ISIP_5,147,9999,9999,9999,9999,246933576
2,5,ISIP_5,148,9999,9999,9999,9999,247433320
2,5,ISIP_5,149,9999,9999,9999,9999,247934036
2,5,ISIP_5,150,9999,9999,9999,9999,248433784
2,5,ISIP_5,151,9999,9999,9999,9999,248933456
2,5,ISIP_5,152,9999,9999,9999,9999,249433200
2,5,ISIP_5,153,9999,9999,9999,9999,249933916
2,5,ISIP_5,154,9999,9999,9999,9999,250433648
2,5,ISIP_5,155,9999,9999,9999,9999,250933320
2,5,ISIP_5,156,9999,9999,9999,9999,251434036
2,5,ISIP_5,157,9999,9999,9999,9999,251933784
2,5,ISIP_5,158,9999,9999,9999,9999,252433456
2,5,ISIP_5,159,9999,9999,9999,9999,252933204
3,3,ISIP_8,0,5,42,127,276524424
3,3,ISIP_8,1,1,48,35,277004296
3,3,ISIP_8,2,5,42,127,277324380
3,3,ISIP_8,3,1,48,29,277614556
3,3,ISIP_8,4,1,48,38,278098536
3,3,ISIP_8,5,5,42,127,278123736
3,3,ISIP_8,6,1,48,44,278827776
3,3,ISIP_8,7,5,42,127,278923528
3,3,ISIP_8,8,1,48,33,279671568
3,3,ISIP_8,9,5,42,127,279724320
3,3,ISIP_8,10,1,48,34,280471448
3,3,ISIP_8,11,5,42,127,280524204
3,3,ISIP_8,12,5,42,127,281324016
3,3,ISIP_8,13,1,48,43,281327980
3,3,ISIP_8,14,1,48,42,282098644
3,3,ISIP_8,15,5,42,127,282123620
3,3,ISIP_8,16,1,48,42,282903756
3,3,ISIP_8,17,5,42,127,282924472
3,3,ISIP_8,18,1,48,48,283659728
3,3,ISIP_8,19,5,42,127,283724204
3,3,ISIP_8,20,1,48,39,284471108
3,3,ISIP_8,21,5,42,127,284524160
3,3,ISIP_8,22,1,48,47,285245752
3,3,ISIP_8,23,5,42,127,285323520
3,3,ISIP_8,24,1,48,48,286031152
3,3,ISIP_8,25,5,42,127,286124372
3,3,ISIP_8,26,1,48,46,286880460
3,3,ISIP_8,27,5,42,127,286924032
3,3,ISIP_8,28,1,48,44,287707072
3,3,ISIP_8,29,5,42,127,287724060
3,3,ISIP_8,30,1,48,46,288520948
3,3,ISIP_8,31,5,42,127,288523820
3,3,ISIP_8,32,5,42,127,289324456
3,3,ISIP_8,33,1,48,38,289331752
3,3,ISIP_8,34,1,48,49,290083824
3,3,ISIP_8,35,5,42,127,290124256
3,3,ISIP_8,36,1,48,49,290854436
3,3,ISIP_8,37,5,42,127,290923840
3,3,ISIP_8,38,1,48,46,291662828
3,3,ISIP_8,39,5,42,127,291723724
3,3,ISIP_8,40,1,48,45,292477944
3,3,ISIP_8,41,5,42,127,292524724
3,3,ISIP_8,42,1,48,45,293259088
3,3,ISIP_8,43,5,42,127,293324012
3,3,ISIP_8,44,1,48,24,294070696
3,3,ISIP_8,45,5,42,127,294123968
3,3,ISIP_8,46,1,48,46,294856740
3,3,ISIP_8,47,5,42,127,294923776
3,3,ISIP_8,48,1,48,52,295717648
3,3,ISIP_8,49,5,42,127,295724628
3,3,ISIP_8,50,1,48,50,296461232
3,3,ISIP_8,51,5,42,127,296524064
3,3,ISIP_8,52,5,42,127,297323732
3,3,ISIP_8,53,1,48,42,297347528
3,3,ISIP_8,54,1,48,45,298048152
3,3,ISIP_8,55,5,42,127,298123604
3,3,ISIP_8,56,1,48,46,298834888
3,3,ISIP_8,57,5,42,127,298924532
3,3,ISIP_8,58,1,48,44,299603340
3,3,ISIP_8,59,5,42,127,299724252
3,3,ISIP_8,60,1,48,47,300458628
3,3,ISIP_8,61,1,48,46,301256636
3,3,ISIP_8,62,1,48,47,302039120
3,3,ISIP_8,63,1,48,52,302797252
3,3,ISIP_8,64,1,48,47,303561216
3,3,ISIP_8,65,1,48,47,304395012
3,3,ISIP_8,66,1,48,50,305210428
3,3,ISIP_8,67,1,48,40,306010236
3,3,ISIP_8,68,1,48,38,306824892
3,3,ISIP_8,69,1,48,38,307620664
3,3,ISIP_8,70,1,48,42,308440556
3,3,ISIP_8,71,1,48,44,309205408
3,3,ISIP_8,72,1,48,48,309990952
3,3,ISIP_8,73,1,48,38,310853656
3,3,ISIP_8,74,1,48,46,311651592
3,3,ISIP_8,75,1,48,32,312423016
3,3,ISIP_8,76,1,48,41,313229164
3,3,ISIP_8,77,1,48,40,314042184
3,3,ISIP_8,78,1,48,38,314805772
3,3,ISIP_8,79,1,48,39,315640324
3,3,ISIP_8,80,1,48,37,316387384
3,3,ISIP_8,81,1,48,40,317235376
3,3,ISIP_8,82,1,48,44,317999632
3,3,ISIP_8,83,1,48,37,318806972
3,3,ISIP_8,84,1,48,27,319573920
3,3,ISIP_8,85,1,48,40,320395156
3,3,ISIP_8,86,1,48,45,321162900
3,3,ISIP_8,87,1,48,43,321955460
3,3,ISIP_8,88,1,48,40,322760716
3,3,ISIP_8,89,1,48,46,323579432
3,3,ISIP_8,90,1,48,43,324370504
3,3,ISIP_8,91,1,48,39,325144620
3,3,ISIP_8,92,1,48,43,325968388
3,3,ISIP_8,93,1,48,48,326817100
3,3,ISIP_8,94,1,48,40,327603984
3,3,ISIP_8,95,1,48,36,328403860
3,3,ISIP_8,96,1,48,35,329231772
3,3,ISIP_8,97,1,48,38,330071600
3,3,ISIP_8,98,1,48,33,330900972
3,3,ISIP_8,99,1,48,27,331688084
3,3,ISIP_8,100,1,48,44,332484076
3,3,ISIP_8,101,1,48,49,333264832
3,3,ISIP_8,102,1,48,43,334067200
3,3,ISIP_8,103,1,48,46,334865808
3,3,ISIP_8,104,1,48,43,335688016
3,3,ISIP_8,105,1,48,43,336518808
3,3,ISIP_8,106,1,48,41,337350656
3,3,ISIP_8,107,1,48,38,338149644
3,3,ISIP_8,108,1,48,47,338982624
3,3,ISIP_8,109,1,48,48,339747476
3,3,ISIP_8,110,1,48,49,340509632
3,3,ISIP_8,111,1,48,39,341345444
3,3,ISIP_8,112,1,48,44,342171760
3,3,ISIP_8,113,1,48,37,342977760
3,3,ISIP_8,114,1,48,45,343766728
3,3,ISIP_8,115,1,48,45,344554380
3,3,ISIP_8,116,1,48,32,345410336
3,3,ISIP_8,117,1,48,37,346191100
3,3,ISIP_8,118,1,48,45,346969992
3,3,ISIP_8,119,1,48,35,347804516
3,3,ISIP_8,120,1,48,42,348643896
3,3,ISIP_8,121,1,48,37,349426472
3,3,ISIP_8,122,1,48,44,350271680
3,3,ISIP_8,123,1,48,43,351044152
3,3,ISIP_8,124,1,48,31,351863892
3,3,ISIP_8,125,1,48,43,352683188
3,3,ISIP_8,126,1,48,40,353501804
3,3,ISIP_8,127,1,48,39,354331952
3,3,ISIP_8,128,1,48,39,355118092
3,3,ISIP_8,129,1,48,46,355886824
3,3,ISIP_8,130,1,48,43,356700816
3,3,ISIP_8,131,1,48,38,357469104
3,3,ISIP_8,132,1,48,44,358313044
3,3,ISIP_8,133,1,48,39,359182764
3,3,ISIP_8,134,1,48,38,359951876
3,3,ISIP_8,135,1,48,32,360762656
3,3,ISIP_8,136,1,48,41,361598448
3,3,ISIP_8,137,1,48,36,362345380
3,3,ISIP_8,138,1,48,38,363180656
3,3,ISIP_8,139,1,48,38,363954624
3,3,ISIP_8,140,1,48,32,364786332
3,3,ISIP_8,141,1,48,41,365610628
3,3,ISIP_8,142,1,48,37,366443592
3,3,ISIP_8,143,1,48,31,367212556
3,3,ISIP_8,144,1,48,36,367998392
3,3,ISIP_8,145,1,48,34,368837772
3,3,ISIP_8,146,1,48,35,369645664
3,3,ISIP_8,147,1,48,34,370458608
3,3,ISIP_8,148,1,48,25,371262668
3,3,ISIP_8,149,1,48,36,372092712
3,3,ISIP_8,150,1,48,38,372915368
3,3,ISIP_8,151,1,48,34,373739460
3,3,ISIP_8,152,1,48,27,374574584
3,3,ISIP_8,153,1,48,37,375375136
3,3,ISIP_8,154,1,48,39,376179720
3,3,ISIP_8,155,1,48,35,377038436
3,3,ISIP_8,156,1,48,43,377836772
3,3,ISIP_8,157,1,48,41,378669508
3,3,ISIP_8,158,1,48,40,379515008
3,3,ISIP_8,159,1,48,42,380286804
3,3,ISIP_8,160,1,48,35,381062044
3,3,ISIP_8,161,1,48,37,381910684
3,3,ISIP_8,162,1,48,39,382725592
3,3,ISIP_8,163,1,48,35,383594844
3,3,ISIP_8,164,1,48,31,384454380
3,3,ISIP_8,165,1,48,32,385179440
3,3,ISIP_8,166,1,48,29,385932796
3,3,ISIP_8,167,1,48,34,386794752
3,3,ISIP_8,168,1,48,35,387566776
3,3,ISIP_8,169,1,48,43,388450136
3,3,ISIP_8,170,1,48,36,389212680
3,3,ISIP_8,171,1,48,36,390015096
3,3,ISIP_8,172,1,48,41,390903184
3,3,ISIP_8,173,1,48,32,391673344
3,3,ISIP_8,174,1,48,37,392463068
3,3,ISIP_8,175,1,48,28,393272052
3,3,ISIP_8,176,1,48,28,394111064
3,3,ISIP_8,177,1,48,31,394885772
3,3,ISIP_8,178,1,48,34,395696776
3,3,ISIP_8,179,1,48,33,396474628
3,3,ISIP_8,0,9999,9999,9999,9999,276522064
3,3,ISIP_8,1,9999,9999,9999,9999,277321796
3,3,ISIP_8,2,9999,9999,9999,9999,278121524
3,3,ISIP_8,3,9999,9999,9999,9999,278921316
3,3,ISIP_8,4,9999,9999,9999,9999,279722036
3,3,ISIP_8,5,9999,9999,9999,9999,280521844
3,3,ISIP_8,6,9999,9999,9999,9999,281321584
3,3,ISIP_8,7,9999,9999,9999,9999,282121336
3,3,ISIP_8,8,9999,9999,9999,9999,282922036
3,3,ISIP_8,9,9999,9999,9999,9999,283721844
3,3,ISIP_8,10,9999,9999,9999,9999,284521580
3,3,ISIP_8,11,9999,9999,9999,9999,285321312
3,3,ISIP_8,12,9999,9999,9999,9999,286122088
3,3,ISIP_8,13,9999,9999,9999,9999,286921820
3,3,ISIP_8,14,9999,9999,9999,9999,287721552
3,3,ISIP_8,15,9999,9999,9999,9999,288521312
3,3,ISIP_8,16,9999,9999,9999,9999,289322096
3,3,ISIP_8,17,9999,9999,9999,9999,290121824
3,3,ISIP_8,18,9999,9999,9999,9999,290921556
3,3,ISIP_8,19,9999,9999,9999,9999,291721292
3,3,ISIP_8,20,9999,9999,9999,9999,292522068
3,3,ISIP_8,21,9999,9999,9999,9999,293321800
3,3,ISIP_8,22,9999,9999,9999,9999,294121536
3,3,ISIP_8,23,9999,9999,9999,9999,294921268
3,3,ISIP_8,24,9999,9999,9999,9999,295722048
3,3,ISIP_8,25,9999,9999,9999,9999,296521780
3,3,ISIP_8,26,9999,9999,9999,9999,297321520
3,3,ISIP_8,27,9999,9999,9999,9999,298121320
3,3,ISIP_8,28,9999,9999,9999,9999,298922100
3,3,ISIP_8,29,9999,9999,9999,9999,299721816
3,3,ISIP_8,30,9999,9999,9999,9999,300521568
3,3,ISIP_8,31,9999,9999,9999,9999,301321320
3,3,ISIP_8,32,9999,9999,9999,9999,302122092
3,3,ISIP_8,33,9999,9999,9999,9999,302921804
3,3,ISIP_8,34,9999,9999,9999,9999,303721532
3,3,ISIP_8,35,9999,9999,9999,9999,304521264
3,3,ISIP_8,36,9999,9999,9999,9999,305322036
3,3,ISIP_8,37,9999,9999,9999,9999,306121840
3,3,ISIP_8,38,9999,9999,9999,9999,306921528
3,3,ISIP_8,39,9999,9999,9999,9999,307721320
3,3,ISIP_8,40,9999,9999,9999,9999,308522036
3,3,ISIP_8,41,9999,9999,9999,9999,309321820
3,3,ISIP_8,42,9999,9999,9999,9999,310121552
3,3,ISIP_8,43,9999,9999,9999,9999,310921296
3,3,ISIP_8,44,9999,9999,9999,9999,311722068
3,3,ISIP_8,45,9999,9999,9999,9999,312521780
3,3,ISIP_8,46,9999,9999,9999,9999,313321524
3,3,ISIP_8,47,9999,9999,9999,9999,314121280
3,3,ISIP_8,48,9999,9999,9999,9999,314922036
3,3,ISIP_8,49,9999,9999,9999,9999,315721780
3,3,ISIP_8,50,9999,9999,9999,9999,316521568
3,3,ISIP_8,51,9999,9999,9999,9999,317321312
3,3,ISIP_8,52,9999,9999,9999,9999,318122068
3,3,ISIP_8,53,9999,9999,9999,9999,318921796
3,3,ISIP_8,54,9999,9999,9999,9999,319721524
3,3,ISIP_8,55,9999,9999,9999,9999,320521328
3,3,ISIP_8,56,9999,9999,9999,9999,321322100
3,3,ISIP_8,57,9999,9999,9999,9999,322121828
3,3,ISIP_8,58,9999,9999,9999,9999,322921556
3,3,ISIP_8,59,9999,9999,9999,9999,323721284
3,3,ISIP_8,60,9999,9999,9999,9999,324522060
3,3,ISIP_8,61,9999,9999,9999,9999,325321788
3,3,ISIP_8,62,9999,9999,9999,9999,326121592
3,3,ISIP_8,63,9999,9999,9999,9999,326921268
3,3,ISIP_8,64,9999,9999,9999,9999,327722040
3,3,ISIP_8,65,9999,9999,9999,9999,328521844
3,3,ISIP_8,66,9999,9999,9999,9999,329321588
3,3,ISIP_8,67,9999,9999,9999,9999,330121320
3,3,ISIP_8,68,9999,9999,9999,9999,330922092
3,3,ISIP_8,69,9999,9999,9999,9999,331721820
3,3,ISIP_8,70,9999,9999,9999,9999,332521548
3,3,ISIP_8,71,9999,9999,9999,9999,333321300
3,3,ISIP_8,72,9999,9999,9999,9999,334122076
3,3,ISIP_8,73,9999,9999,9999,9999,334921804
3,3,ISIP_8,74,9999,9999,9999,9999,335721532
3,3,ISIP_8,75,9999,9999,9999,9999,336521260
3,3,ISIP_8,76,9999,9999,9999,9999,337322040
3,3,ISIP_8,77,9999,9999,9999,9999,338121844
3,3,ISIP_8,78,9999,9999,9999,9999,338921572
3,3,ISIP_8,79,9999,9999,9999,9999,339721328
3,3,ISIP_8,80,9999,9999,9999,9999,340522096
3,3,ISIP_8,81,9999,9999,9999,9999,341321828
3,3,ISIP_8,82,9999,9999,9999,9999,342121556
3,3,ISIP_8,83,9999,9999,9999,9999,342921284
3,3,ISIP_8,84,9999,9999,9999,9999,343722060
3,3,ISIP_8,85,9999,9999,9999,9999,344521788
3,3,ISIP_8,86,9999,9999,9999,9999,345321536
3,3,ISIP_8,87,9999,9999,9999,9999,346121264
3,3,ISIP_8,88,9999,9999,9999,9999,346922036
3,3,ISIP_8,89,9999,9999,9999,9999,347721840
3,3,ISIP_8,90,9999,9999,9999,9999,348521568
3,3,ISIP_8,91,9999,9999,9999,9999,349321296
3,3,ISIP_8,92,9999,9999,9999,9999,350122068
3,3,ISIP_8,93,9999,9999,9999,9999,350921796
3,3,ISIP_8,94,9999,9999,9999,9999,351721548
3,3,ISIP_8,95,9999,9999,9999,9999,352521280
3,3,ISIP_8,96,9999,9999,9999,9999,353322052
3,3,ISIP_8,97,9999,9999,9999,9999,354121780
3,3,ISIP_8,98,9999,9999,9999,9999,354921580
3,3,ISIP_8,99,9999,9999,9999,9999,355721312
3,3,ISIP_8,100,9999,9999,9999,9999,356522084
3,3,ISIP_8,101,9999,9999,9999,9999,357321812
3,3,ISIP_8,102,9999,9999,9999,9999,358121564
3,3,ISIP_8,103,9999,9999,9999,9999,358921292
3,3,ISIP_8,104,9999,9999,9999,9999,359722068
3,3,ISIP_8,105,9999,9999,9999,9999,360521796
3,3,ISIP_8,106,9999,9999,9999,9999,361321524
3,3,ISIP_8,107,9999,9999,9999,9999,362121324
3,3,ISIP_8,108,9999,9999,9999,9999,362922100
3,3,ISIP_8,109,9999,9999,9999,9999,363721828
3,3,ISIP_8,110,9999,9999,9999,9999,364521580
3,3,ISIP_8,111,9999,9999,9999,9999,365321308
3,3,ISIP_8,112,9999,9999,9999,9999,366122080
3,3,ISIP_8,113,9999,9999,9999,9999,366921812
3,3,ISIP_8,114,9999,9999,9999,9999,367721540
3,3,ISIP_8,115,9999,9999,9999,9999,368521268
3,3,ISIP_8,116,9999,9999,9999,9999,369322040
3,3,ISIP_8,117,9999,9999,9999,9999,370121844
3,3,ISIP_8,118,9999,9999,9999,9999,370921524
3,3,ISIP_8,119,9999,9999,9999,9999,371721328
3,3,ISIP_8,120,9999,9999,9999,9999,372522104
3,3,ISIP_8,121,9999,9999,9999,9999,373321832
3,3,ISIP_8,122,9999,9999,9999,9999,374121560
3,3,ISIP_8,123,9999,9999,9999,9999,374921288
3,3,ISIP_8,124,9999,9999,9999,9999,375722060
3,3,ISIP_8,125,9999,9999,9999,9999,376521792
3,3,ISIP_8,126,9999,9999,9999,9999,377321544
3,3,ISIP_8,127,9999,9999,9999,9999,378121272
3,3,ISIP_8,128,9999,9999,9999,9999,378922044
3,3,ISIP_8,129,9999,9999,9999,9999,379721848
3,3,ISIP_8,130,9999,9999,9999,9999,380521576
3,3,ISIP_8,131,9999,9999,9999,9999,381321304
3,3,ISIP_8,132,9999,9999,9999,9999,382122076
3,3,ISIP_8,133,9999,9999,9999,9999,382921804
3,3,ISIP_8,134,9999,9999,9999,9999,383721560
3,3,ISIP_8,135,9999,9999,9999,9999,384521304
3,3,ISIP_8,136,9999,9999,9999,9999,385322064
3,3,ISIP_8,137,9999,9999,9999,9999,386121792
3,3,ISIP_8,138,9999,9999,9999,9999,386921520
3,3,ISIP_8,139,9999,9999,9999,9999,387721320
3,3,ISIP_8,140,9999,9999,9999,9999,388522036
3,3,ISIP_8,141,9999,9999,9999,9999,389321824
3,3,ISIP_8,142,9999,9999,9999,9999,390121576
3,3,ISIP_8,143,9999,9999,9999,9999,390921320
3,3,ISIP_8,144,9999,9999,9999,9999,391722096
3,3,ISIP_8,145,9999,9999,9999,9999,392521824
3,3,ISIP_8,146,9999,9999,9999,9999,393321552
3,3,ISIP_8,147,9999,9999,9999,9999,394121280
3,3,ISIP_8,148,9999,9999,9999,9999,394922052
3,3,ISIP_8,149,9999,9999,9999,9999,395721780
4,11,Pattern_Practice,0,5,42,127,478955988
4,11,Pattern_Practice,1,5,42,127,479455760
4,11,Pattern_Practice,2,1,38,51,479881472
4,11,Pattern_Practice,3,1,48,16,479892204
4,11,Pattern_Practice,4,5,42,127,479956232
4,11,Pattern_Practice,5,1,38,46,480384384
4,11,Pattern_Practice,6,5,42,127,480456028
4,11,Pattern_Practice,7,1,48,41,480935656
4,11,Pattern_Practice,8,5,42,127,480956000
4,11,Pattern_Practice,9,5,42,127,481455388
4,11,Pattern_Practice,10,1,38,59,481458576
4,11,Pattern_Practice,11,1,48,46,481647800
4,11,Pattern_Practice,12,1,38,70,481948056
4,11,Pattern_Practice,13,5,42,127,481956152
4,11,Pattern_Practice,14,1,38,48,482426744
4,11,Pattern_Practice,15,5,42,127,482456052
4,11,Pattern_Practice,16,1,38,72,482945616
4,11,Pattern_Practice,17,5,42,127,482955804
4,11,Pattern_Practice,18,5,42,127,483456384
4,11,Pattern_Practice,19,1,48,52,483483020
4,11,Pattern_Practice,20,1,38,67,483709800
4,11,Pattern_Practice,21,5,42,127,483955964
4,11,Pattern_Practice,22,1,48,60,483958704
4,11,Pattern_Practice,23,1,38,77,484428196
4,11,Pattern_Practice,24,5,42,127,484455632
4,11,Pattern_Practice,25,1,38,74,484908164
4,11,Pattern_Practice,26,5,42,127,484955684
4,11,Pattern_Practice,27,1,38,75,485402384
4,11,Pattern_Practice,28,5,42,127,485456180
4,11,Pattern_Practice,29,1,48,78,485705496
4,11,Pattern_Practice,30,5,42,127,485955916
4,11,Pattern_Practice,31,1,38,65,485959108
4,11,Pattern_Practice,32,1,38,76,486442040
4,11,Pattern_Practice,33,5,42,127,486455588
4,11,Pattern_Practice,34,1,38,84,486951052
4,11,Pattern_Practice,35,5,42,127,486956532
4,11,Pattern_Practice,36,1,48,66,487454020
4,11,Pattern_Practice,37,5,42,127,487456056
4,11,Pattern_Practice,38,1,38,70,487694920
4,11,Pattern_Practice,39,1,48,78,487943512
4,11,Pattern_Practice,40,5,42,127,487955788
4,11,Pattern_Practice,41,1,38,75,488427500
4,11,Pattern_Practice,42,5,42,127,488455688
4,11,Pattern_Practice,43,1,38,87,488904600
4,11,Pattern_Practice,44,5,42,127,488956632
4,11,Pattern_Practice,45,1,48,99,489429000
4,11,Pattern_Practice,46,5,42,127,489456012
4,11,Pattern_Practice,47,1,38,82,489646984
4,11,Pattern_Practice,48,1,48,82,489954164
4,11,Pattern_Practice,49,5,42,127,489955964
4,11,Pattern_Practice,50,5,42,127,490456520
4,11,Pattern_Practice,51,1,38,101,490467124
4,11,Pattern_Practice,52,1,38,95,490945104
4,11,Pattern_Practice,53,5,42,127,490956264
4,11,Pattern_Practice,54,5,42,127,491455800
4,11,Pattern_Practice,55,1,48,81,491468472
4,11,Pattern_Practice,56,1,38,91,491684572
4,11,Pattern_Practice,57,5,42,127,491955528
4,11,Pattern_Practice,58,1,48,90,491963872
4,11,Pattern_Practice,59,1,38,96,492435076
4,11,Pattern_Practice,60,5,42,127,492456240
4,11,Pattern_Practice,61,1,38,108,492952300
4,11,Pattern_Practice,62,5,42,127,492956216
4,11,Pattern_Practice,63,1,48,96,493439432
4,11,Pattern_Practice,64,5,42,127,493455668
4,11,Pattern_Practice,65,1,38,99,493693784
4,11,Pattern_Practice,66,1,48,78,493947424
4,11,Pattern_Practice,67,5,42,127,493955524
4,11,Pattern_Practice,68,1,38,62,494432840
4,11,Pattern_Practice,69,5,42,127,494456392
4,11,Pattern_Practice,70,1,48,82,494716092
4,11,Pattern_Practice,71,5,42,127,494955760
4,11,Pattern_Practice,72,1,38,78,494972392
4,11,Pattern_Practice,73,1,48,64,495228972
4,11,Pattern_Practice,74,5,42,127,495455492
4,11,Pattern_Practice,75,1,38,89,495481600
4,11,Pattern_Practice,76,1,48,82,495710328
4,11,Pattern_Practice,77,5,42,127,495956264
4,11,Pattern_Practice,78,1,38,78,496008140
4,11,Pattern_Practice,79,1,48,76,496223720
4,11,Pattern_Practice,80,5,42,127,496456216
4,11,Pattern_Practice,81,1,38,74,496499880
4,11,Pattern_Practice,82,1,48,75,496754140
4,11,Pattern_Practice,83,5,42,127,496955648
4,11,Pattern_Practice,84,1,38,81,496995500
4,11,Pattern_Practice,85,1,48,72,497202120
4,11,Pattern_Practice,86,5,42,127,497455452
4,11,Pattern_Practice,87,1,38,100,497482836
4,11,Pattern_Practice,88,1,48,86,497753596
4,11,Pattern_Practice,89,1,38,90,497943192
4,11,Pattern_Practice,90,5,42,127,497956144
4,11,Pattern_Practice,91,5,42,127,498455900
4,11,Pattern_Practice,92,1,38,83,498497244
4,11,Pattern_Practice,93,5,42,127,498955504
4,11,Pattern_Practice,94,1,38,96,499020000
4,11,Pattern_Practice,95,5,42,127,499456300
4,11,Pattern_Practice,96,1,48,72,499490252
4,11,Pattern_Practice,97,1,48,81,499764824
4,11,Pattern_Practice,98,5,42,127,499956176
4,11,Pattern_Practice,99,1,48,74,500038592
4,11,Pattern_Practice,100,5,42,127,500455928
4,11,Pattern_Practice,101,1,38,103,500523336
4,11,Pattern_Practice,102,5,42,127,500955432
4,11,Pattern_Practice,103,1,38,83,501009944
4,11,Pattern_Practice,104,5,42,127,501456152
4,11,Pattern_Practice,105,1,48,75,501479004
4,11,Pattern_Practice,106,1,48,71,501761344
4,11,Pattern_Practice,107,5,42,127,501955956
4,11,Pattern_Practice,108,1,48,75,502036452
4,11,Pattern_Practice,109,5,42,127,502456004
4,11,Pattern_Practice,110,1,38,87,502506712
4,11,Pattern_Practice,111,1,48,62,502722192
4,11,Pattern_Practice,112,5,42,127,502956408
4,11,Pattern_Practice,113,1,38,78,502998280
4,11,Pattern_Practice,114,1,48,77,503195712
4,11,Pattern_Practice,115,5,42,127,503455984
4,11,Pattern_Practice,116,1,38,82,503477168
4,11,Pattern_Practice,117,1,48,75,503712316
4,11,Pattern_Practice,118,1,38,72,503953672
4,11,Pattern_Practice,119,5,42,127,503956228
4,11,Pattern_Practice,120,1,48,66,504183296
4,11,Pattern_Practice,121,5,42,127,504455516
4,11,Pattern_Practice,122,1,38,68,504465576
4,11,Pattern_Practice,123,1,48,62,504659504
4,11,Pattern_Practice,124,5,42,127,504956144
4,11,Pattern_Practice,125,1,38,86,504971504
4,11,Pattern_Practice,126,1,48,66,505157064
4,11,Pattern_Practice,127,5,42,127,505456020
4,11,Pattern_Practice,128,1,48,76,505535748
4,11,Pattern_Practice,129,5,42,127,505955992
4,11,Pattern_Practice,130,1,48,75,506033852
4,11,Pattern_Practice,131,5,42,127,506456564
4,11,Pattern_Practice,132,1,38,80,506495596
4,11,Pattern_Practice,133,1,38,74,506954280
4,11,Pattern_Practice,134,5,42,127,506956836
4,11,Pattern_Practice,135,5,42,127,507455916
4,11,Pattern_Practice,136,1,48,51,507481140
4,11,Pattern_Practice,137,1,38,52,507688800
4,11,Pattern_Practice,138,5,42,127,507955648
4,11,Pattern_Practice,139,1,48,65,507983036
4,11,Pattern_Practice,140,1,38,64,508222884
4,11,Pattern_Practice,141,5,42,127,508456200
4,11,Pattern_Practice,142,1,48,88,508461484
4,11,Pattern_Practice,143,1,48,54,508930672
4,11,Pattern_Practice,144,5,42,127,508956092
4,11,Pattern_Practice,145,1,48,71,509274260
4,11,Pattern_Practice,146,5,42,127,509455756
4,11,Pattern_Practice,147,1,48,68,509734212
4,11,Pattern_Practice,148,1,48,73,509945308
4,11,Pattern_Practice,149,5,42,127,509955648
4,11,Pattern_Practice,150,1,48,62,510407548
4,11,Pattern_Practice,151,5,42,127,510456144
4,11,Pattern_Practice,152,1,48,78,510731524
4,11,Pattern_Practice,153,5,42,127,510955956
4,11,Pattern_Practice,154,1,48,65,511219328
4,11,Pattern_Practice,155,1,48,71,511427940
4,11,Pattern_Practice,156,5,42,127,511455552
4,11,Pattern_Practice,157,1,48,56,511939788
4,11,Pattern_Practice,158,5,42,127,511956620
4,11,Pattern_Practice,159,1,48,74,512233364
4,11,Pattern_Practice,160,5,42,127,512455908
4,11,Pattern_Practice,161,1,48,61,512721296
4,11,Pattern_Practice,162,5,42,127,512955660
4,11,Pattern_Practice,163,1,48,67,512959368
4,11,Pattern_Practice,164,1,48,65,513436780
4,11,Pattern_Practice,165,5,42,127,513455404
4,11,Pattern_Practice,166,1,48,65,513769488
4,11,Pattern_Practice,167,5,42,127,513956480
4,11,Pattern_Practice,168,1,48,62,514245768
4,11,Pattern_Practice,169,5,42,127,514455788
4,11,Pattern_Practice,170,1,48,93,514475924
4,11,Pattern_Practice,171,1,38,86,514932948
4,11,Pattern_Practice,172,5,42,127,514955604
4,11,Pattern_Practice,173,1,38,83,515273772
4,11,Pattern_Practice,174,5,42,127,515456312
4,11,Pattern_Practice,175,1,38,55,515770908
4,11,Pattern_Practice,176,5,42,127,515956208
4,11,Pattern_Practice,177,1,38,99,516019884
4,11,Pattern_Practice,178,5,42,127,516455736
4,11,Pattern_Practice,179,1,38,56,516484316
4,11,Pattern_Practice,180,1,38,72,516803388
4,11,Pattern_Practice,181,5,42,127,516955388
4,11,Pattern_Practice,182,1,38,53,517260200
4,11,Pattern_Practice,183,5,42,127,517456184
4,11,Pattern_Practice,184,1,38,90,517472964
4,11,Pattern_Practice,185,1,38,65,517910416
4,11,Pattern_Practice,186,5,42,127,517956152
4,11,Pattern_Practice,187,1,38,79,518291644
4,11,Pattern_Practice,188,5,42,127,518455516
4,11,Pattern_Practice,189,1,38,53,518749280
4,11,Pattern_Practice,190,1,38,90,518948580
4,11,Pattern_Practice,0,9999,9999,9999,9999,478953560
4,11,Pattern_Practice,1,9999,9999,9999,9999,479453304
4,11,Pattern_Practice,2,9999,9999,9999,9999,479954024
4,11,Pattern_Practice,3,9999,9999,9999,9999,480453744
4,11,Pattern_Practice,4,9999,9999,9999,9999,480953420
4,11,Pattern_Practice,5,9999,9999,9999,9999,481453104
4,11,Pattern_Practice,6,9999,9999,9999,9999,481953872
4,11,Pattern_Practice,7,9999,9999,9999,9999,482453620
4,11,Pattern_Practice,8,9999,9999,9999,9999,482953300
4,11,Pattern_Practice,9,9999,9999,9999,9999,483454024
4,11,Pattern_Practice,10,9999,9999,9999,9999,483953756
4,11,Pattern_Practice,11,9999,9999,9999,9999,484453424
4,11,Pattern_Practice,12,9999,9999,9999,9999,484953176
4,11,Pattern_Practice,13,9999,9999,9999,9999,485453900
4,11,Pattern_Practice,14,9999,9999,9999,9999,485953636
4,11,Pattern_Practice,15,9999,9999,9999,9999,486453304
4,11,Pattern_Practice,16,9999,9999,9999,9999,486954100
4,11,Pattern_Practice,17,9999,9999,9999,9999,487453812
4,11,Pattern_Practice,18,9999,9999,9999,9999,487953508
4,11,Pattern_Practice,19,9999,9999,9999,9999,488453184
4,11,Pattern_Practice,20,9999,9999,9999,9999,488953976
4,11,Pattern_Practice,21,9999,9999,9999,9999,489453656
4,11,Pattern_Practice,22,9999,9999,9999,9999,489953392
4,11,Pattern_Practice,23,9999,9999,9999,9999,490454088
4,11,Pattern_Practice,24,9999,9999,9999,9999,490953836
4,11,Pattern_Practice,25,9999,9999,9999,9999,491453516
4,11,Pattern_Practice,26,9999,9999,9999,9999,491953244
4,11,Pattern_Practice,27,9999,9999,9999,9999,492453960
4,11,Pattern_Practice,28,9999,9999,9999,9999,492953708
4,11,Pattern_Practice,29,9999,9999,9999,9999,493453388
4,11,Pattern_Practice,30,9999,9999,9999,9999,493953092
4,11,Pattern_Practice,31,9999,9999,9999,9999,494453812
4,11,Pattern_Practice,32,9999,9999,9999,9999,494953552
4,11,Pattern_Practice,33,9999,9999,9999,9999,495453280
4,11,Pattern_Practice,34,9999,9999,9999,9999,495953980
4,11,Pattern_Practice,35,9999,9999,9999,9999,496453708
4,11,Pattern_Practice,36,9999,9999,9999,9999,496953440
4,11,Pattern_Practice,37,9999,9999,9999,9999,497453168
4,11,Pattern_Practice,38,9999,9999,9999,9999,497953860
4,11,Pattern_Practice,39,9999,9999,9999,9999,498453620
4,11,Pattern_Practice,40,9999,9999,9999,9999,498953296
4,11,Pattern_Practice,41,9999,9999,9999,9999,499454016
4,11,Pattern_Practice,42,9999,9999,9999,9999,499953744
4,11,Pattern_Practice,43,9999,9999,9999,9999,500453496
4,11,Pattern_Practice,44,9999,9999,9999,9999,500953148
4,11,Pattern_Practice,45,9999,9999,9999,9999,501453944
4,11,Pattern_Practice,46,9999,9999,9999,9999,501953600
4,11,Pattern_Practice,47,9999,9999,9999,9999,502453348
4,11,Pattern_Practice,48,9999,9999,9999,9999,502954048
4,11,Pattern_Practice,49,9999,9999,9999,9999,503453776
4,11,Pattern_Practice,50,9999,9999,9999,9999,503953464
4,11,Pattern_Practice,51,9999,9999,9999,9999,504453236
4,11,Pattern_Practice,52,9999,9999,9999,9999,504953932
4,11,Pattern_Practice,53,9999,9999,9999,9999,505453664
4,11,Pattern_Practice,54,9999,9999,9999,9999,505953336
4,11,Pattern_Practice,55,9999,9999,9999,9999,506454132
4,11,Pattern_Practice,56,9999,9999,9999,9999,506953828
4,11,Pattern_Practice,57,9999,9999,9999,9999,507453560
4,11,Pattern_Practice,58,9999,9999,9999,9999,507953216
4,11,Pattern_Practice,59,9999,9999,9999,9999,508453992
4,11,Pattern_Practice,60,9999,9999,9999,9999,508953664
4,11,Pattern_Practice,61,9999,9999,9999,9999,509453400
4,11,Pattern_Practice,62,9999,9999,9999,9999,509953144
4,11,Pattern_Practice,63,9999,9999,9999,9999,510453864
4,11,Pattern_Practice,64,9999,9999,9999,9999,510953524
4,11,Pattern_Practice,65,9999,9999,9999,9999,511453268
4,11,Pattern_Practice,66,9999,9999,9999,9999,511954040
4,11,Pattern_Practice,67,9999,9999,9999,9999,512453700
4,11,Pattern_Practice,68,9999,9999,9999,9999,512953452
4,11,Pattern_Practice,69,9999,9999,9999,9999,513453120
4,11,Pattern_Practice,70,9999,9999,9999,9999,513953900
4,11,Pattern_Practice,71,9999,9999,9999,9999,514453576
4,11,Pattern_Practice,72,9999,9999,9999,9999,514953324
4,11,Pattern_Practice,73,9999,9999,9999,9999,515454028
4,11,Pattern_Practice,74,9999,9999,9999,9999,515953776
4,11,Pattern_Practice,75,9999,9999,9999,9999,516453452
4,11,Pattern_Practice,76,9999,9999,9999,9999,516953180
4,11,Pattern_Practice,77,9999,9999,9999,9999,517453904
4,11,Pattern_Practice,78,9999,9999,9999,9999,517953644
4,11,Pattern_Practice,79,9999,9999,9999,9999,518453308
5,13,Improv_Metronome,0,5,42,127,550066812
5,13,Improv_Metronome,1,5,42,127,550567556
5,13,Improv_Metronome,2,1,38,35,551013228
5,13,Improv_Metronome,3,5,42,127,551066952
5,13,Improv_Metronome,4,1,38,38,551151992
5,13,Improv_Metronome,5,1,38,46,551352464
5,13,Improv_Metronome,6,1,38,52,551506140
5,13,Improv_Metronome,7,5,42,127,551566808
5,13,Improv_Metronome,8,1,38,53,551777968
5,13,Improv_Metronome,9,1,38,51,552066096
5,13,Improv_Metronome,10,5,42,127,552068776
5,13,Improv_Metronome,11,1,38,55,552219752
5,13,Improv_Metronome,12,1,38,49,552429660
5,13,Improv_Metronome,13,5,42,127,552567000
5,13,Improv_Metronome,14,1,38,61,552611628
5,13,Improv_Metronome,15,1,38,57,552883516
5,13,Improv_Metronome,16,5,42,127,553066800
5,13,Improv_Metronome,17,1,38,51,553107776
5,13,Improv_Metronome,18,1,38,51,553404148
5,13,Improv_Metronome,19,5,42,127,553566604
5,13,Improv_Metronome,20,1,38,43,553633116
5,13,Improv_Metronome,21,1,38,52,553918888
5,13,Improv_Metronome,22,5,42,127,554067524
5,13,Improv_Metronome,23,1,38,59,554155916
5,13,Improv_Metronome,24,1,38,68,554337452
5,13,Improv_Metronome,25,5,42,127,554566884
5,13,Improv_Metronome,26,1,38,59,554582096
5,13,Improv_Metronome,27,1,38,73,554729124
5,13,Improv_Metronome,28,1,38,73,554990256
5,13,Improv_Metronome,29,5,42,127,555066604
5,13,Improv_Metronome,30,1,48,61,555308604
5,13,Improv_Metronome,31,1,48,58,555561520
5,13,Improv_Metronome,32,5,42,127,555566408
5,13,Improv_Metronome,33,1,48,64,555873672
5,13,Improv_Metronome,34,5,42,127,556067336
5,13,Improv_Metronome,35,1,48,46,556123324
5,13,Improv_Metronome,36,1,48,66,556427540
5,13,Improv_Metronome,37,5,42,127,556566844
5,13,Improv_Metronome,38,1,48,65,556569660
5,13,Improv_Metronome,39,1,48,78,556801668
5,13,Improv_Metronome,40,1,48,73,556987656
5,13,Improv_Metronome,41,5,42,127,557066640
5,13,Improv_Metronome,42,1,48,73,557269040
5,13,Improv_Metronome,43,5,42,127,557567268
5,13,Improv_Metronome,44,1,48,60,557568312
5,13,Improv_Metronome,45,1,48,84,557726800
5,13,Improv_Metronome,46,1,48,60,558027356
5,13,Improv_Metronome,47,5,42,127,558067212
5,13,Improv_Metronome,48,1,48,67,558160148
5,13,Improv_Metronome,49,1,48,61,558493632
5,13,Improv_Metronome,50,5,42,127,558566648
5,13,Improv_Metronome,51,1,48,64,558796376
5,13,Improv_Metronome,52,1,48,66,558961780
5,13,Improv_Metronome,53,5,42,127,559066512
5,13,Improv_Metronome,54,1,48,59,559227704
5,13,Improv_Metronome,55,1,48,73,559390044
5,13,Improv_Metronome,56,5,42,127,559567256
5,13,Improv_Metronome,57,1,48,55,559607360
5,13,Improv_Metronome,58,1,48,71,559962208
5,13,Improv_Metronome,59,5,42,127,560067064
5,13,Improv_Metronome,60,1,48,70,560320656
5,13,Improv_Metronome,61,5,42,127,560566520
5,13,Improv_Metronome,62,1,48,49,560605796
5,13,Improv_Metronome,63,1,48,65,560918904
5,13,Improv_Metronome,64,5,42,127,561067444
5,13,Improv_Metronome,65,1,38,102,561213352
5,13,Improv_Metronome,66,1,48,68,561395404
5,13,Improv_Metronome,67,5,42,127,561567316
5,13,Improv_Metronome,68,1,38,57,561654840
5,13,Improv_Metronome,69,1,48,70,561830444
5,13,Improv_Metronome,70,5,42,127,562066748
5,13,Improv_Metronome,71,1,38,76,562160392
5,13,Improv_Metronome,72,1,48,62,562487536
5,13,Improv_Metronome,73,5,42,127,562566492
5,13,Improv_Metronome,74,1,38,95,562638368
5,13,Improv_Metronome,75,1,48,46,562875000
5,13,Improv_Metronome,76,5,42,127,563067180
5,13,Improv_Metronome,77,1,38,99,563124728
5,13,Improv_Metronome,78,1,48,67,563438080
5,13,Improv_Metronome,79,5,42,127,563567056
5,13,Improv_Metronome,80,1,38,93,563769500
5,13,Improv_Metronome,81,1,48,72,563936616
5,13,Improv_Metronome,82,5,42,127,564066932
5,13,Improv_Metronome,83,1,38,69,564203740
5,13,Improv_Metronome,84,1,48,70,564423028
5,13,Improv_Metronome,85,5,42,127,564567488
5,13,Improv_Metronome,86,1,38,86,564704888
5,13,Improv_Metronome,87,1,48,80,565026648
5,13,Improv_Metronome,88,5,42,127,565067080
5,13,Improv_Metronome,89,1,48,70,565351724
5,13,Improv_Metronome,90,5,42,127,565566820
5,13,Improv_Metronome,91,1,48,69,565669692
5,13,Improv_Metronome,92,1,48,69,565987604
5,13,Improv_Metronome,93,5,42,127,566066412
5,13,Improv_Metronome,94,1,38,78,566314020
5,13,Improv_Metronome,95,1,38,75,566492036
5,13,Improv_Metronome,96,5,42,127,566567264
5,13,Improv_Metronome,97,1,38,58,566829572
5,13,Improv_Metronome,98,1,38,73,566954924
5,13,Improv_Metronome,99,5,42,127,567066976
5,13,Improv_Metronome,100,1,38,64,567254904
5,13,Improv_Metronome,101,5,42,127,567566876
5,13,Improv_Metronome,102,1,48,91,567611884
5,13,Improv_Metronome,103,1,48,69,567912292
5,13,Improv_Metronome,104,5,42,127,568066532
5,13,Improv_Metronome,105,1,48,64,568227204
5,13,Improv_Metronome,106,1,48,68,568546904
5,13,Improv_Metronome,107,5,42,127,568567100
5,13,Improv_Metronome,108,1,38,83,568889448
5,13,Improv_Metronome,109,1,38,76,569018156
5,13,Improv_Metronome,110,5,42,127,569066828
5,13,Improv_Metronome,111,1,38,63,569332648
5,13,Improv_Metronome,112,1,38,85,569506388
5,13,Improv_Metronome,113,5,42,127,569566704
5,13,Improv_Metronome,114,1,38,66,569850300
5,13,Improv_Metronome,115,1,38,62,570052412
5,13,Improv_Metronome,116,5,42,127,570067232
5,13,Improv_Metronome,117,1,48,68,570469728
5,13,Improv_Metronome,118,5,42,127,570567868
5,13,Improv_Metronome,119,1,48,73,570669572
5,13,Improv_Metronome,120,1,48,66,571019860
5,13,Improv_Metronome,121,5,42,127,571066712
5,13,Improv_Metronome,122,1,48,65,571200512
5,13,Improv_Metronome,123,1,38,76,571538780
5,13,Improv_Metronome,124,5,42,127,571566592
5,13,Improv_Metronome,125,1,38,70,571747440
5,13,Improv_Metronome,126,5,42,127,572067076
5,13,Improv_Metronome,127,1,38,61,572070044
5,13,Improv_Metronome,128,1,38,69,572236780
5,13,Improv_Metronome,129,5,42,127,572566952
5,13,Improv_Metronome,130,1,48,59,572574924
5,13,Improv_Metronome,131,1,48,67,572775716
5,13,Improv_Metronome,132,5,42,127,573066608
5,13,Improv_Metronome,133,1,48,71,573088388
5,13,Improv_Metronome,134,1,48,68,573203616
5,13,Improv_Metronome,135,1,38,73,573504392
5,13,Improv_Metronome,136,5,42,127,573567524
5,13,Improv_Metronome,137,1,38,68,573705360
5,13,Improv_Metronome,138,1,38,63,573973512
5,13,Improv_Metronome,139,5,42,127,574066940
5,13,Improv_Metronome,140,1,38,87,574162952
5,13,Improv_Metronome,141,1,48,66,574486976
5,13,Improv_Metronome,142,5,42,127,574566608
5,13,Improv_Metronome,143,1,48,72,574805324
5,13,Improv_Metronome,144,5,42,127,575066792
5,13,Improv_Metronome,145,1,48,77,575127548
5,13,Improv_Metronome,146,1,38,61,575438564
5,13,Improv_Metronome,147,5,42,127,575567416
5,13,Improv_Metronome,148,1,38,89,575710864
5,13,Improv_Metronome,149,1,38,72,575952332
5,13,Improv_Metronome,150,5,42,127,576066848
5,13,Improv_Metronome,151,1,38,70,576263464
5,13,Improv_Metronome,152,1,38,76,576415320
5,13,Improv_Metronome,153,5,42,127,576566576
5,13,Improv_Metronome,154,1,38,65,576712240
5,13,Improv_Metronome,155,1,38,63,577041344
5,13,Improv_Metronome,156,5,42,127,577067516
5,13,Improv_Metronome,157,1,38,79,577340732
5,13,Improv_Metronome,158,5,42,127,577567176
5,13,Improv_Metronome,159,1,38,82,577659972
5,13,Improv_Metronome,160,1,48,77,577976804
5,13,Improv_Metronome,161,5,42,127,578066768
5,13,Improv_Metronome,162,1,38,81,578290104
5,13,Improv_Metronome,163,1,48,86,578464588
5,13,Improv_Metronome,164,5,42,127,578566408
5,13,Improv_Metronome,165,1,38,83,578762548
5,13,Improv_Metronome,166,1,48,87,578931464
5,13,Improv_Metronome,167,5,42,127,579067260
5,13,Improv_Metronome,168,1,38,73,579277808
5,13,Improv_Metronome,169,5,42,127,579567232
5,13,Improv_Metronome,170,1,38,63,579573408
5,13,Improv_Metronome,171,1,38,76,579912424
5,13,Improv_Metronome,172,5,42,127,580066592
5,13,Improv_Metronome,173,1,38,77,580224352
5,13,Improv_Metronome,174,5,42,127,580567388
5,13,Improv_Metronome,175,1,38,96,580577448
5,13,Improv_Metronome,176,1,48,86,580848956
5,13,Improv_Metronome,177,1,38,98,581059356
5,13,Improv_Metronome,178,5,42,127,581067232
5,13,Improv_Metronome,179,1,48,80,581374076
5,13,Improv_Metronome,180,1,38,97,581536016
5,13,Improv_Metronome,181,5,42,127,581566888
5,13,Improv_Metronome,182,1,38,86,581872760
5,13,Improv_Metronome,183,5,42,127,582066400
5,13,Improv_Metronome,184,1,38,71,582183708
5,13,Improv_Metronome,185,1,38,82,582503836
5,13,Improv_Metronome,186,5,42,127,582567264
5,13,Improv_Metronome,187,1,38,87,582826660
5,13,Improv_Metronome,188,5,42,127,583067224
5,13,Improv_Metronome,189,1,38,88,583163932
5,13,Improv_Metronome,190,1,48,92,583430512
5,13,Improv_Metronome,191,5,42,127,583566804
5,13,Improv_Metronome,192,1,38,97,583671948
5,13,Improv_Metronome,193,1,48,92,583988264
5,13,Improv_Metronome,194,5,42,127,584066548
5,13,Improv_Metronome,195,1,38,106,584159356
5,13,Improv_Metronome,196,1,38,95,584497992
5,13,Improv_Metronome,197,5,42,127,584567024
5,13,Improv_Metronome,198,1,38,67,584806184
5,13,Improv_Metronome,199,5,42,127,585067056
5,13,Improv_Metronome,200,1,38,71,585154252
5,13,Improv_Metronome,201,1,38,68,585469176
5,13,Improv_Metronome,202,5,42,127,585566564
5,13,Improv_Metronome,203,1,38,72,585781696
5,13,Improv_Metronome,204,5,42,127,586067212
5,13,Improv_Metronome,205,1,38,67,586107064
5,13,Improv_Metronome,206,1,38,62,586297928
5,13,Improv_Metronome,207,5,42,127,586567012
5,13,Improv_Metronome,208,1,38,81,586640768
5,13,Improv_Metronome,209,1,38,72,586810200
5,13,Improv_Metronome,210,5,42,127,587066816
5,13,Improv_Metronome,211,1,48,73,587137584
5,13,Improv_Metronome,212,1,38,19,587146896
5,13,Improv_Metronome,213,1,48,33,587456016
5,13,Improv_Metronome,214,5,42,127,587566424
5,13,Improv_Metronome,215,1,48,84,587602992
5,13,Improv_Metronome,216,1,48,61,587949844
5,13,Improv_Metronome,217,5,42,127,588067272
5,13,Improv_Metronome,218,1,48,91,588087860
5,13,Improv_Metronome,219,1,38,96,588392824
5,13,Improv_Metronome,220,5,42,127,588566780
5,13,Improv_Metronome,221,1,38,77,588696532
5,13,Improv_Metronome,222,1,38,64,588872840
5,13,Improv_Metronome,223,5,42,127,589066804
5,13,Improv_Metronome,224,1,38,80,589185584
5,13,Improv_Metronome,225,1,38,76,589365400
5,13,Improv_Metronome,226,5,42,127,589567280
5,13,Improv_Metronome,227,1,48,100,589705924
5,13,Improv_Metronome,228,1,48,53,589963992
5,13,Improv_Metronome,229,5,42,127,590067008
5,13,Improv_Metronome,230,1,48,96,590279132
5,13,Improv_Metronome,231,5,42,127,590566760
5,13,Improv_Metronome,232,1,48,58,590618412
5,13,Improv_Metronome,233,1,48,108,590794688
5,13,Improv_Metronome,234,5,42,127,591066416
5,13,Improv_Metronome,235,1,38,103,591107984
5,13,Improv_Metronome,236,1,48,84,591433260
5,13,Improv_Metronome,237,5,42,127,591567164
5,13,Improv_Metronome,238,1,38,86,591764604
5,13,Improv_Metronome,239,1,48,71,592064724
5,13,Improv_Metronome,240,5,42,127,592066832
5,13,Improv_Metronome,241,1,38,80,592413248
5,13,Improv_Metronome,242,5,42,127,592566792
5,13,Improv_Metronome,243,1,48,88,592746904
5,13,Improv_Metronome,244,1,38,116,592924852
5,13,Improv_Metronome,245,5,42,127,593067492
5,13,Improv_Metronome,246,1,48,85,593278072
5,13,Improv_Metronome,247,1,38,107,593431152
5,13,Improv_Metronome,248,5,42,127,593566996
5,13,Improv_Metronome,249,1,48,67,593818196
5,13,Improv_Metronome,250,5,42,127,594066672
5,13,Improv_Metronome,251,1,48,67,594153524
5,13,Improv_Metronome,252,1,48,73,594499548
5,13,Improv_Metronome,253,5,42,127,594566640
5,13,Improv_Metronome,254,1,48,78,594843136
5,13,Improv_Metronome,255,5,42,127,595067344
5,13,Improv_Metronome,256,1,48,86,595168976
5,13,Improv_Metronome,257,1,48,87,595509708
5,13,Improv_Metronome,258,5,42,127,595567012
5,13,Improv_Metronome,259,1,48,67,595706940
5,13,Improv_Metronome,260,1,48,76,596013472
5,13,Improv_Metronome,261,5,42,127,596066596
5,13,Improv_Metronome,262,1,48,81,596210400
5,13,Improv_Metronome,263,1,38,99,596536796
5,13,Improv_Metronome,264,5,42,127,596567524
5,13,Improv_Metronome,265,1,38,76,596874108
5,13,Improv_Metronome,266,5,42,127,597067104
5,13,Improv_Metronome,267,1,38,105,597205004
5,13,Improv_Metronome,268,1,38,87,597517736
5,13,Improv_Metronome,269,5,42,127,597566752
5,13,Improv_Metronome,270,1,38,95,597868564
5,13,Improv_Metronome,271,5,42,127,598066560
5,13,Improv_Metronome,272,1,38,91,598201172
5,13,Improv_Metronome,273,1,38,94,598395472
5,13,Improv_Metronome,274,5,42,127,598567260
5,13,Improv_Metronome,275,1,38,86,598709788
5,13,Improv_Metronome,276,1,38,53,598856368
5,13,Improv_Metronome,277,5,42,127,599067064
5,13,Improv_Metronome,278,1,48,88,599202200
5,13,Improv_Metronome,279,1,38,95,599509800
5,13,Improv_Metronome,280,5,42,127,599566584
5,13,Improv_Metronome,281,1,48,61,599828824
5,13,Improv_Metronome,282,5,42,127,600066396
5,13,Improv_Metronome,283,1,38,76,600174348
5,13,Improv_Metronome,284,1,48,59,600484836
5,13,Improv_Metronome,285,5,42,127,600567332
5,13,Improv_Metronome,286,1,38,73,600786756
5,13,Improv_Metronome,287,1,38,88,601019064
5,13,Improv_Metronome,288,5,42,127,601066764
5,13,Improv_Metronome,289,1,38,65,601353192
5,13,Improv_Metronome,290,1,38,83,601525364
5,13,Improv_Metronome,291,5,42,127,601566564
5,13,Improv_Metronome,292,1,38,77,601857032
5,13,Improv_Metronome,293,5,42,127,602067396
5,13,Improv_Metronome,294,1,48,85,602200840
5,13,Improv_Metronome,295,1,48,67,602532164
5,13,Improv_Metronome,296,5,42,127,602567068
5,13,Improv_Metronome,297,1,48,68,602788088
5,13,Improv_Metronome,298,5,42,127,603066580
5,13,Improv_Metronome,299,1,48,72,603139012
5,13,Improv_Metronome,300,1,48,77,603401936
5,13,Improv_Metronome,301,5,42,127,603566384
5,13,Improv_Metronome,302,1,48,67,603632100
5,13,Improv_Metronome,303,1,48,81,603858480
5,13,Improv_Metronome,304,5,42,127,604067232
5,13,Improv_Metronome,305,1,38,106,604130860
5,13,Improv_Metronome,306,1,38,78,604403484
5,13,Improv_Metronome,307,5,42,127,604566888
5,13,Improv_Metronome,308,1,38,85,604754616
5,13,Improv_Metronome,309,5,42,127,605066636
5,13,Improv_Metronome,310,1,38,84,605452872
5,13,Improv_Metronome,311,5,42,127,605567360
5,13,Improv_Metronome,312,1,38,73,605850220
5,13,Improv_Metronome,313,5,42,127,606067184
5,13,Improv_Metronome,314,1,38,82,606220492
5,13,Improv_Metronome,315,5,42,127,606566932
5,13,Improv_Metronome,316,1,38,76,606575200
5,13,Improv_Metronome,317,1,38,64,606964344
5,13,Improv_Metronome,318,5,42,127,607066516
5,13,Improv_Metronome,319,1,38,69,607157672
5,13,Improv_Metronome,320,1,38,70,607514928
5,13,Improv_Metronome,321,5,42,127,607567304
5,13,Improv_Metronome,322,1,38,89,607685620
5,13,Improv_Metronome,323,1,38,67,608044376
5,13,Improv_Metronome,324,5,42,127,608067032
5,13,Improv_Metronome,325,1,48,100,608423432
5,13,Improv_Metronome,326,5,42,127,608566768
5,13,Improv_Metronome,327,1,48,87,608793928
5,13,Improv_Metronome,328,5,42,127,609067344
5,13,Improv_Metronome,329,1,48,82,609146472
5,13,Improv_Metronome,330,1,48,83,609484892
5,13,Improv_Metronome,331,5,42,127,609567012
5,13,Improv_Metronome,332,1,48,57,609886892
5,13,Improv_Metronome,333,1,48,78,610021756
5,13,Improv_Metronome,334,5,42,127,610066740
5,13,Improv_Metronome,335,1,48,59,610398796
5,13,Improv_Metronome,336,1,48,86,610539404
5,13,Improv_Metronome,337,5,42,127,610566396
5,13,Improv_Metronome,338,1,48,63,610887392
5,13,Improv_Metronome,339,5,42,127,611067248
5,13,Improv_Metronome,340,1,48,76,611223068
5,13,Improv_Metronome,341,5,42,127,611566924
5,13,Improv_Metronome,342,1,48,82,611637016
5,13,Improv_Metronome,343,1,38,62,611964236
5,13,Improv_Metronome,344,5,42,127,612066652
5,13,Improv_Metronome,345,5,42,127,612567400
5,13,Improv_Metronome,346,1,38,73,612642424
5,13,Improv_Metronome,347,1,38,71,613044980
5,13,Improv_Metronome,348,5,42,127,613067116
5,13,Improv_Metronome,349,1,38,72,613304488
5,13,Improv_Metronome,350,5,42,127,613566928
5,13,Improv_Metronome,351,1,48,97,613762868
5,13,Improv_Metronome,352,1,38,100,613934840
5,13,Improv_Metronome,353,5,42,127,614066728
5,13,Improv_Metronome,354,1,48,78,614348620
5,13,Improv_Metronome,355,1,38,97,614567080
5,13,Improv_Metronome,356,5,42,127,614569832
5,13,Improv_Metronome,357,1,48,74,614999960
5,13,Improv_Metronome,358,5,42,127,615066976
5,13,Improv_Metronome,359,1,38,108,615121080
5,13,Improv_Metronome,360,1,38,82,615508648
5,13,Improv_Metronome,361,5,42,127,615566776
5,13,Improv_Metronome,362,1,48,79,615878972
5,13,Improv_Metronome,363,5,42,127,616066512
5,13,Improv_Metronome,364,1,38,61,616247600
5,13,Improv_Metronome,365,5,42,127,616567384
5,13,Improv_Metronome,366,1,38,68,616608812
5,13,Improv_Metronome,367,1,48,73,616926860
5,13,Improv_Metronome,368,5,42,127,617066964
5,13,Improv_Metronome,369,1,48,67,617286276
5,13,Improv_Metronome,370,5,42,127,617566564
5,13,Improv_Metronome,371,1,38,65,617567532
5,13,Improv_Metronome,372,1,38,62,617920192
5,13,Improv_Metronome,373,5,42,127,618067488
5,13,Improv_Metronome,374,1,48,110,618298300
5,13,Improv_Metronome,375,5,42,127,618567016
5,13,Improv_Metronome,376,1,48,71,618634868
5,13,Improv_Metronome,377,1,38,84,619005124
5,13,Improv_Metronome,378,5,42,127,619066684
5,13,Improv_Metronome,379,1,38,70,619343480
5,13,Improv_Metronome,380,1,38,26,619450840
5,13,Improv_Metronome,381,5,42,127,619566548
5,13,Improv_Metronome,382,1,48,93,619693248
5,13,Improv_Metronome,383,1,48,69,620023924
5,13,Improv_Metronome,0,9999,9999,9999,9999,550064232
5,13,Improv_Metronome,1,9999,9999,9999,9999,550564972
5,13,Improv_Metronome,2,9999,9999,9999,9999,551064668
5,13,Improv_Metronome,3,9999,9999,9999,9999,551564376
5,13,Improv_Metronome,4,9999,9999,9999,9999,552064112
5,13,Improv_Metronome,5,9999,9999,9999,9999,552564792
5,13,Improv_Metronome,6,9999,9999,9999,9999,553064516
5,13,Improv_Metronome,7,9999,9999,9999,9999,553564244
5,13,Improv_Metronome,8,9999,9999,9999,9999,554064944
5,13,Improv_Metronome,9,9999,9999,9999,9999,554564676
5,13,Improv_Metronome,10,9999,9999,9999,9999,555064396
5,13,Improv_Metronome,11,9999,9999,9999,9999,555564124
5,13,Improv_Metronome,12,9999,9999,9999,9999,556064832
5,13,Improv_Metronome,13,9999,9999,9999,9999,556564560
5,13,Improv_Metronome,14,9999,9999,9999,9999,557064280
5,13,Improv_Metronome,15,9999,9999,9999,9999,557564988
5,13,Improv_Metronome,16,9999,9999,9999,9999,558064708
5,13,Improv_Metronome,17,9999,9999,9999,9999,558564440
5,13,Improv_Metronome,18,9999,9999,9999,9999,559064152
5,13,Improv_Metronome,19,9999,9999,9999,9999,559564900
5,13,Improv_Metronome,20,9999,9999,9999,9999,560064632
5,13,Improv_Metronome,21,9999,9999,9999,9999,560564308
5,13,Improv_Metronome,22,9999,9999,9999,9999,561065008
5,13,Improv_Metronome,23,9999,9999,9999,9999,561564736
5,13,Improv_Metronome,24,9999,9999,9999,9999,562064468
5,13,Improv_Metronome,25,9999,9999,9999,9999,562564212
5,13,Improv_Metronome,26,9999,9999,9999,9999,563064896
5,13,Improv_Metronome,27,9999,9999,9999,9999,563564624
5,13,Improv_Metronome,28,9999,9999,9999,9999,564064352
5,13,Improv_Metronome,29,9999,9999,9999,9999,564565056
5,13,Improv_Metronome,30,9999,9999,9999,9999,565064800
5,13,Improv_Metronome,31,9999,9999,9999,9999,565564536
5,13,Improv_Metronome,32,9999,9999,9999,9999,566064204
5,13,Improv_Metronome,33,9999,9999,9999,9999,566564980
5,13,Improv_Metronome,34,9999,9999,9999,9999,567064696
5,13,Improv_Metronome,35,9999,9999,9999,9999,567564372
5,13,Improv_Metronome,36,9999,9999,9999,9999,568064104
5,13,Improv_Metronome,37,9999,9999,9999,9999,568564816
5,13,Improv_Metronome,38,9999,9999,9999,9999,569064544
5,13,Improv_Metronome,39,9999,9999,9999,9999,569564272
5,13,Improv_Metronome,40,9999,9999,9999,9999,570064948
5,13,Improv_Metronome,41,9999,9999,9999,9999,570564700
5,13,Improv_Metronome,42,9999,9999,9999,9999,571064428
5,13,Improv_Metronome,43,9999,9999,9999,9999,571564084
5,13,Improv_Metronome,44,9999,9999,9999,9999,572064868
5,13,Improv_Metronome,45,9999,9999,9999,9999,572564596
5,13,Improv_Metronome,46,9999,9999,9999,9999,573064248
5,13,Improv_Metronome,47,9999,9999,9999,9999,573565020
5,13,Improv_Metronome,48,9999,9999,9999,9999,574064732
5,13,Improv_Metronome,49,9999,9999,9999,9999,574564400
5,13,Improv_Metronome,50,9999,9999,9999,9999,575064136
5,13,Improv_Metronome,51,9999,9999,9999,9999,575564908
5,13,Improv_Metronome,52,9999,9999,9999,9999,576064564
5,13,Improv_Metronome,53,9999,9999,9999,9999,576564296
5,13,Improv_Metronome,54,9999,9999,9999,9999,577065080
5,13,Improv_Metronome,55,9999,9999,9999,9999,577564744
5,13,Improv_Metronome,56,9999,9999,9999,9999,578064484
5,13,Improv_Metronome,57,9999,9999,9999,9999,578564176
5,13,Improv_Metronome,58,9999,9999,9999,9999,579064900
5,13,Improv_Metronome,59,9999,9999,9999,9999,579564652
5,13,Improv_Metronome,60,9999,9999,9999,9999,580064308
5,13,Improv_Metronome,61,9999,9999,9999,9999,580565076
5,13,Improv_Metronome,62,9999,9999,9999,9999,581064800
5,13,Improv_Metronome,63,9999,9999,9999,9999,581564532
5,13,Improv_Metronome,64,9999,9999,9999,9999,582064192
5,13,Improv_Metronome,65,9999,9999,9999,9999,582564980
5,13,Improv_Metronome,66,9999,9999,9999,9999,583064644
5,13,Improv_Metronome,67,9999,9999,9999,9999,583564372
5,13,Improv_Metronome,68,9999,9999,9999,9999,584064116
5,13,Improv_Metronome,69,9999,9999,9999,9999,584564816
5,13,Improv_Metronome,70,9999,9999,9999,9999,585064552
5,13,Improv_Metronome,71,9999,9999,9999,9999,585564280
5,13,Improv_Metronome,72,9999,9999,9999,9999,586065000
5,13,Improv_Metronome,73,9999,9999,9999,9999,586564656
5,13,Improv_Metronome,74,9999,9999,9999,9999,587064384
5,13,Improv_Metronome,75,9999,9999,9999,9999,587564140
5,13,Improv_Metronome,76,9999,9999,9999,9999,588064840
5,13,Improv_Metronome,77,9999,9999,9999,9999,588564568
5,13,Improv_Metronome,78,9999,9999,9999,9999,589064296
5,13,Improv_Metronome,79,9999,9999,9999,9999,589565000
5,13,Improv_Metronome,80,9999,9999,9999,9999,590064724
5,13,Improv_Metronome,81,9999,9999,9999,9999,590564404
5,13,Improv_Metronome,82,9999,9999,9999,9999,591064132
5,13,Improv_Metronome,83,9999,9999,9999,9999,591564880
5,13,Improv_Metronome,84,9999,9999,9999,9999,592064588
5,13,Improv_Metronome,85,9999,9999,9999,9999,592564288
5,13,Improv_Metronome,86,9999,9999,9999,9999,593065060
5,13,Improv_Metronome,87,9999,9999,9999,9999,593564788
5,13,Improv_Metronome,88,9999,9999,9999,9999,594064464
5,13,Improv_Metronome,89,9999,9999,9999,9999,594564208
5,13,Improv_Metronome,90,9999,9999,9999,9999,595064912
5,13,Improv_Metronome,91,9999,9999,9999,9999,595564656
5,13,Improv_Metronome,92,9999,9999,9999,9999,596064312
5,13,Improv_Metronome,93,9999,9999,9999,9999,596565088
5,13,Improv_Metronome,94,9999,9999,9999,9999,597064824
5,13,Improv_Metronome,95,9999,9999,9999,9999,597564468
5,13,Improv_Metronome,96,9999,9999,9999,9999,598064204
5,13,Improv_Metronome,97,9999,9999,9999,9999,598564976
5,13,Improv_Metronome,98,9999,9999,9999,9999,599064632
5,13,Improv_Metronome,99,9999,9999,9999,9999,599564376
5,13,Improv_Metronome,100,9999,9999,9999,9999,600064112
5,13,Improv_Metronome,101,9999,9999,9999,9999,600564828
5,13,Improv_Metronome,102,9999,9999,9999,9999,601064556
5,13,Improv_Metronome,103,9999,9999,9999,9999,601564208
5,13,Improv_Metronome,104,9999,9999,9999,9999,602064964
5,13,Improv_Metronome,105,9999,9999,9999,9999,602564708
5,13,Improv_Metronome,106,9999,9999,9999,9999,603064372
5,13,Improv_Metronome,107,9999,9999,9999,9999,603564100
5,13,Improv_Metronome,108,9999,9999,9999,9999,604064876
5,13,Improv_Metronome,109,9999,9999,9999,9999,604564532
5,13,Improv_Metronome,110,9999,9999,9999,9999,605064280
5,13,Improv_Metronome,111,9999,9999,9999,9999,605565004
5,13,Improv_Metronome,112,9999,9999,9999,9999,606064752
5,13,Improv_Metronome,113,9999,9999,9999,9999,606564428
5,13,Improv_Metronome,114,9999,9999,9999,9999,607064160
5,13,Improv_Metronome,115,9999,9999,9999,9999,607564872
5,13,Improv_Metronome,116,9999,9999,9999,9999,608064604
5,13,Improv_Metronome,117,9999,9999,9999,9999,608564336
5,13,Improv_Metronome,118,9999,9999,9999,9999,609065060
5,13,Improv_Metronome,119,9999,9999,9999,9999,609564728
5,13,Improv_Metronome,120,9999,9999,9999,9999,610064456
5,13,Improv_Metronome,121,9999,9999,9999,9999,610564188
5,13,Improv_Metronome,122,9999,9999,9999,9999,611064892
5,13,Improv_Metronome,123,9999,9999,9999,9999,611564640
5,13,Improv_Metronome,124,9999,9999,9999,9999,612064372
5,13,Improv_Metronome,125,9999,9999,9999,9999,612565040
5,13,Improv_Metronome,126,9999,9999,9999,9999,613064760
5,13,Improv_Metronome,127,9999,9999,9999,9999,613564496
5,13,Improv_Metronome,128,9999,9999,9999,9999,614064224
5,13,Improv_Metronome,129,9999,9999,9999,9999,614564944
5,13,Improv_Metronome,130,9999,9999,9999,9999,615064692
5,13,Improv_Metronome,131,9999,9999,9999,9999,615564344
5,13,Improv_Metronome,132,9999,9999,9999,9999,616064080
5,13,Improv_Metronome,133,9999,9999,9999,9999,616564804
5,13,Improv_Metronome,134,9999,9999,9999,9999,617064532
5,13,Improv_Metronome,135,9999,9999,9999,9999,617564208
5,13,Improv_Metronome,136,9999,9999,9999,9999,618064980
5,13,Improv_Metronome,137,9999,9999,9999,9999,618564660
5,13,Improv_Metronome,138,9999,9999,9999,9999,619064404
5,13,Improv_Metronome,139,9999,9999,9999,9999,619564116
6,14,Improv_Melody,0,2,48,80,668309188
6,14,Improv_Melody,1,2,72,80,668311264
6,14,Improv_Melody,2,5,42,127,668313796
6,14,Improv_Melody,3,5,42,110,668806552
6,14,Improv_Melody,4,5,42,110,669307228
6,14,Improv_Melody,5,5,42,110,669807080
6,14,Improv_Melody,6,5,42,127,670306780
6,14,Improv_Melody,7,5,42,110,670807308
6,14,Improv_Melody,8,5,42,110,671307160
6,14,Improv_Melody,9,5,42,110,671807084
6,14,Improv_Melody,10,2,43,80,672309144
6,14,Improv_Melody,11,2,67,80,672311368
6,14,Improv_Melody,12,5,42,127,672313972
6,14,Improv_Melody,13,5,42,110,672807252
6,14,Improv_Melody,14,5,42,110,673306956
6,14,Improv_Melody,15,5,42,110,673806808
6,14,Improv_Melody,16,5,42,127,674306364
6,14,Improv_Melody,17,5,42,110,674807112
6,14,Improv_Melody,18,5,42,110,675307036
6,14,Improv_Melody,19,5,42,110,675806664
6,14,Improv_Melody,20,2,45,80,676310072
6,14,Improv_Melody,21,2,69,80,676311988
6,14,Improv_Melody,22,5,42,127,676314820
6,14,Improv_Melody,23,5,42,110,676806884
6,14,Improv_Melody,24,5,42,110,677306660
6,14,Improv_Melody,25,5,42,110,677806808
6,14,Improv_Melody,26,5,42,127,678307184
6,14,Improv_Melody,27,5,42,110,678806888
6,14,Improv_Melody,28,5,42,110,679306812
6,14,Improv_Melody,29,5,42,110,679807564
6,14,Improv_Melody,30,2,41,80,680309776
6,14,Improv_Melody,31,2,65,80,680311764
6,14,Improv_Melody,32,5,42,127,680314152
6,14,Improv_Melody,33,5,42,110,680806684
6,14,Improv_Melody,34,5,42,110,681306460
6,14,Improv_Melody,35,5,42,110,681807136
6,14,Improv_Melody,36,5,42,127,682306912
6,14,Improv_Melody,37,5,42,110,682806540
6,14,Improv_Melody,38,5,42,110,683307516
6,14,Improv_Melody,39,5,42,110,683807216
6,14,Improv_Melody,40,2,48,80,684309348
6,14,Improv_Melody,41,2,72,80,684311420
6,14,Improv_Melody,42,5,42,127,684313952
6,14,Improv_Melody,43,5,42,110,684806488
6,14,Improv_Melody,44,1,48,37,684816096
6,14,Improv_Melody,45,1,48,47,685303436
6,14,Improv_Melody,46,5,42,110,685307208
6,14,Improv_Melody,47,1,48,38,685795652
6,14,Improv_Melody,48,5,42,110,685806964
6,14,Improv_Melody,49,1,48,47,686283580
6,14,Improv_Melody,50,5,42,127,686306572
6,14,Improv_Melody,51,1,48,47,686787292
6,14,Improv_Melody,52,5,42,110,686807372
6,14,Improv_Melody,53,1,48,43,687285560
6,14,Improv_Melody,54,5,42,110,687307400
6,14,Improv_Melody,55,1,48,47,687765228
6,14,Improv_Melody,56,5,42,110,687807008
6,14,Improv_Melody,57,2,43,80,688309128
6,14,Improv_Melody,58,2,67,80,688311200
6,14,Improv_Melody,59,5,42,127,688313660
6,14,Improv_Melody,60,1,38,65,688318340
6,14,Improv_Melody,61,1,48,56,688767816
6,14,Improv_Melody,62,5,42,110,688807208
6,14,Improv_Melody,63,5,42,110,689307048
6,14,Improv_Melody,64,1,48,52,689337116
6,14,Improv_Melody,65,1,48,44,689789880
6,14,Improv_Melody,66,5,42,110,689806796
6,14,Improv_Melody,67,1,48,51,690272616
6,14,Improv_Melody,68,5,42,127,690306332
6,14,Improv_Melody,69,1,48,52,690763332
6,14,Improv_Melody,70,5,42,110,690807128
6,14,Improv_Melody,71,1,48,54,691265780
6,14,Improv_Melody,72,5,42,110,691306960
6,14,Improv_Melody,73,1,48,58,691783084
6,14,Improv_Melody,74,5,42,110,691806568
6,14,Improv_Melody,75,1,38,92,692296648
6,14,Improv_Melody,76,2,45,80,692309944
6,14,Improv_Melody,77,2,69,80,692311940
6,14,Improv_Melody,78,5,42,127,692314624
6,14,Improv_Melody,79,1,48,78,692770884
6,14,Improv_Melody,80,5,42,110,692806988
6,14,Improv_Melody,81,5,42,110,693306972
6,14,Improv_Melody,82,1,48,68,693342276
6,14,Improv_Melody,83,1,48,65,693770844
6,14,Improv_Melody,84,5,42,110,693806648
6,14,Improv_Melody,85,1,48,74,694292924
6,14,Improv_Melody,86,5,42,127,694307152
6,14,Improv_Melody,87,1,48,66,694779612
6,14,Improv_Melody,88,5,42,110,694806904
6,14,Improv_Melody,89,1,48,56,695282652
6,14,Improv_Melody,90,5,42,110,695306736
6,14,Improv_Melody,91,1,48,59,695778300
6,14,Improv_Melody,92,5,42,110,695807240
6,14,Improv_Melody,93,1,38,59,696293068
6,14,Improv_Melody,94,2,41,80,696309420
6,14,Improv_Melody,95,2,65,80,696311644
6,14,Improv_Melody,96,5,42,127,696314104
6,14,Improv_Melody,97,1,38,74,696781636
6,14,Improv_Melody,98,5,42,110,696806916
6,14,Improv_Melody,99,1,38,61,697052204
6,14,Improv_Melody,100,5,42,110,697306580
6,14,Improv_Melody,101,1,38,91,697338592
6,14,Improv_Melody,102,1,38,56,697776916
6,14,Improv_Melody,103,5,42,110,697807152
6,14,Improv_Melody,104,1,38,65,698022992
6,14,Improv_Melody,105,1,38,61,698303016
6,14,Improv_Melody,106,5,42,127,698306788
6,14,Improv_Melody,107,5,42,110,698806696
6,14,Improv_Melody,108,1,38,76,698850084
6,14,Improv_Melody,109,1,38,63,699066012
6,14,Improv_Melody,110,5,42,110,699307480
6,14,Improv_Melody,111,1,38,76,699339868
6,14,Improv_Melody,112,5,42,110,699807012
6,14,Improv_Melody,113,1,38,66,699823864
6,14,Improv_Melody,114,1,38,78,700084992
6,14,Improv_Melody,115,2,48,80,700308940
6,14,Improv_Melody,116,2,72,80,700311392
6,14,Improv_Melody,117,5,42,127,700313852
6,14,Improv_Melody,118,1,38,67,700327564
6,14,Improv_Melody,119,5,42,110,700806588
6,14,Improv_Melody,120,1,38,64,700824556
6,14,Improv_Melody,121,1,38,66,701083828
6,14,Improv_Melody,122,5,42,110,701307140
6,14,Improv_Melody,123,1,38,88,701376788
6,14,Improv_Melody,124,5,42,110,701806824
6,14,Improv_Melody,125,1,38,81,701849212
6,14,Improv_Melody,126,1,38,71,702102428
6,14,Improv_Melody,127,5,42,127,702306632
6,14,Improv_Melody,128,1,38,60,702338864
6,14,Improv_Melody,129,5,42,110,702807432
6,14,Improv_Melody,130,1,38,68,702845564
6,14,Improv_Melody,131,1,38,66,703078172
6,14,Improv_Melody,132,5,42,110,703307092
6,14,Improv_Melody,133,1,38,81,703330068
6,14,Improv_Melody,134,5,42,110,703806772
6,14,Improv_Melody,135,1,38,76,703847368
6,14,Improv_Melody,136,1,38,81,704092072
6,14,Improv_Melody,137,2,43,80,704309084
6,14,Improv_Melody,138,2,67,80,704311156
6,14,Improv_Melody,139,5,42,127,704313840
6,14,Improv_Melody,140,1,38,69,704353988
6,14,Improv_Melody,141,5,42,110,704807472
6,14,Improv_Melody,142,1,38,86,704892648
6,14,Improv_Melody,143,1,38,59,705088892
6,14,Improv_Melody,144,5,42,110,705307056
6,14,Improv_Melody,145,1,38,83,705392160
6,14,Improv_Melody,146,5,42,110,705806664
6,14,Improv_Melody,147,1,38,72,705889824
6,14,Improv_Melody,148,1,38,67,706122956
6,14,Improv_Melody,149,5,42,127,706306620
6,14,Improv_Melody,150,1,38,67,706349832
6,14,Improv_Melody,151,5,42,110,706807272
6,14,Improv_Melody,152,1,38,65,706848692
6,14,Improv_Melody,153,1,38,78,707029036
6,14,Improv_Melody,154,5,42,110,707306712
6,14,Improv_Melody,155,1,38,73,707333792
6,14,Improv_Melody,156,5,42,110,707806468
6,14,Improv_Melody,157,1,38,73,707811452
6,14,Improv_Melody,158,1,38,70,708036336
6,14,Improv_Melody,159,1,38,89,708293960
6,14,Improv_Melody,160,2,45,80,708309888
6,14,Improv_Melody,161,2,69,80,708312116
6,14,Improv_Melody,162,5,42,127,708314424
6,14,Improv_Melody,163,1,38,26,708409596
6,14,Improv_Melody,164,5,42,110,708807120
6,14,Improv_Melody,165,1,38,61,708854840
6,14,Improv_Melody,166,1,38,59,709092820
6,14,Improv_Melody,167,5,42,110,709306704
6,14,Improv_Melody,168,1,38,82,709349572
6,14,Improv_Melody,169,5,42,110,709806388
6,14,Improv_Melody,170,1,38,63,709813756
6,14,Improv_Melody,171,1,38,81,710050024
6,14,Improv_Melody,172,5,42,127,710307092
6,14,Improv_Melody,173,1,38,62,710310280
6,14,Improv_Melody,174,5,42,110,710807068
6,14,Improv_Melody,175,1,38,72,710835424
6,14,Improv_Melody,176,1,38,60,711086992
6,14,Improv_Melody,177,5,42,110,711306580
6,14,Improv_Melody,178,1,38,80,711346432
6,14,Improv_Melody,179,1,38,51,711804200
6,14,Improv_Melody,180,5,42,110,711807372
6,14,Improv_Melody,181,1,38,75,712079988
6,14,Improv_Melody,182,2,41,80,712309536
6,14,Improv_Melody,183,2,65,80,712311764
6,14,Improv_Melody,184,5,42,127,712314296
6,14,Improv_Melody,185,1,38,79,712328912
6,14,Improv_Melody,186,5,42,110,712806884
6,14,Improv_Melody,187,1,48,38,712814180
6,14,Improv_Melody,188,1,38,16,712821624
6,14,Improv_Melody,189,1,38,97,713105496
6,14,Improv_Melody,190,5,42,110,713306336
6,14,Improv_Melody,191,1,48,82,713355968
6,14,Improv_Melody,192,1,38,68,713781776
6,14,Improv_Melody,193,5,42,110,713807204
6,14,Improv_Melody,194,1,38,74,714056072
6,14,Improv_Melody,195,5,42,127,714307092
6,14,Improv_Melody,196,1,38,69,714312752
6,14,Improv_Melody,197,1,38,25,714455596
6,14,Improv_Melody,198,5,42,110,714806604
6,14,Improv_Melody,199,1,38,77,714845340
6,14,Improv_Melody,200,1,38,53,715046580
6,14,Improv_Melody,201,5,42,110,715307312
6,14,Improv_Melody,202,1,38,85,715334540
6,14,Improv_Melody,203,5,42,110,715807212
6,14,Improv_Melody,204,1,38,68,715809884
6,14,Improv_Melody,205,1,38,91,716033528
6,14,Improv_Melody,206,2,48,80,716309224
6,14,Improv_Melody,207,2,72,80,716311448
6,14,Improv_Melody,208,5,42,127,716313980
6,14,Improv_Melody,209,1,48,107,716438588
6,14,Improv_Melody,210,5,42,110,716806792
6,14,Improv_Melody,211,1,38,64,716856356
6,14,Improv_Melody,212,1,38,69,717048560
6,14,Improv_Melody,213,5,42,110,717307196
6,14,Improv_Melody,214,1,38,65,717351384
6,14,Improv_Melody,215,1,38,73,717795784
6,14,Improv_Melody,216,5,42,110,717806872
6,14,Improv_Melody,217,1,38,66,718049168
6,14,Improv_Melody,218,5,42,127,718306912
6,14,Improv_Melody,219,1,38,72,718310552
6,14,Improv_Melody,220,5,42,110,718807416
6,14,Improv_Melody,221,1,38,56,718818220
6,14,Improv_Melody,222,1,38,89,719038256
6,14,Improv_Melody,223,5,42,110,719306976
6,14,Improv_Melody,224,1,38,59,719308988
6,14,Improv_Melody,225,1,38,65,719786424
6,14,Improv_Melody,226,5,42,110,719806848
6,14,Improv_Melody,227,1,38,65,720039736
6,14,Improv_Melody,228,2,43,80,720309016
6,14,Improv_Melody,229,2,67,80,720311240
6,14,Improv_Melody,230,5,42,127,720313996
6,14,Improv_Melody,231,1,48,90,720363660
6,14,Improv_Melody,232,5,42,110,720807404
6,14,Improv_Melody,233,1,48,76,720830612
6,14,Improv_Melody,234,1,48,96,721070684
6,14,Improv_Melody,235,5,42,110,721306844
6,14,Improv_Melody,236,1,48,36,721328700
6,14,Improv_Melody,237,1,38,24,721342196
6,14,Improv_Melody,238,5,42,110,721806848
6,14,Improv_Melody,239,1,48,84,721843716
6,14,Improv_Melody,240,1,48,42,722068932
6,14,Improv_Melody,241,5,42,127,722306508
6,14,Improv_Melody,242,1,48,75,722332248
6,14,Improv_Melody,243,5,42,110,722807232
6,14,Improv_Melody,244,1,48,67,722817964
6,14,Improv_Melody,245,1,48,81,723009580
6,14,Improv_Melody,246,5,42,110,723306744
6,14,Improv_Melody,247,1,48,82,723326808
6,14,Improv_Melody,248,5,42,110,723806504
6,14,Improv_Melody,249,1,48,82,723842400
6,14,Improv_Melody,250,1,48,83,724104720
6,14,Improv_Melody,251,1,48,70,724306708
6,14,Improv_Melody,252,2,45,80,724310824
6,14,Improv_Melody,253,2,69,80,724313040
6,14,Improv_Melody,254,5,42,127,724315500
6,14,Improv_Melody,255,1,48,60,724804860
6,14,Improv_Melody,256,5,42,110,724806968
6,14,Improv_Melody,257,1,48,86,725031420
6,14,Improv_Melody,258,5,42,110,725306636
6,14,Improv_Melody,259,1,48,67,725321472
6,14,Improv_Melody,260,5,42,110,725806392
6,14,Improv_Melody,261,1,48,84,725817424
6,14,Improv_Melody,262,1,48,83,726069520
6,14,Improv_Melody,263,5,42,127,726307468
6,14,Improv_Melody,264,1,48,80,726327388
6,14,Improv_Melody,265,5,42,110,726806852
6,14,Improv_Melody,266,1,48,24,726828340
6,14,Improv_Melody,267,1,38,15,726841160
6,14,Improv_Melody,268,1,48,70,727086436
6,14,Improv_Melody,269,5,42,110,727306468
6,14,Improv_Melody,270,1,48,83,727370364
6,14,Improv_Melody,271,5,42,110,727807196
6,14,Improv_Melody,272,1,48,70,727867436
6,14,Improv_Melody,273,1,48,70,728093844
6,14,Improv_Melody,274,2,41,80,728309580
6,14,Improv_Melody,275,2,65,80,728311880
6,14,Improv_Melody,276,5,42,127,728314408
6,14,Improv_Melody,277,1,48,77,728331264
6,14,Improv_Melody,278,5,42,110,728806700
6,14,Improv_Melody,279,1,38,67,728838936
6,14,Improv_Melody,280,1,38,71,729091332
6,14,Improv_Melody,281,5,42,110,729306360
6,14,Improv_Melody,282,1,38,60,729325524
6,14,Improv_Melody,283,5,42,110,729807384
6,14,Improv_Melody,284,1,38,86,729851496
6,14,Improv_Melody,285,1,38,62,730059236
6,14,Improv_Melody,286,1,38,30,730155688
6,14,Improv_Melody,287,5,42,127,730306996
6,14,Improv_Melody,288,1,38,75,730320664
6,14,Improv_Melody,289,5,42,110,730806604
6,14,Improv_Melody,290,1,38,57,730820544
6,14,Improv_Melody,291,1,38,70,731030008
6,14,Improv_Melody,292,1,38,37,731130664
6,14,Improv_Melody,293,5,42,110,731307368
6,14,Improv_Melody,294,1,38,60,731316456
6,14,Improv_Melody,295,1,38,67,731788708
6,14,Improv_Melody,296,5,42,110,731807040
6,14,Improv_Melody,297,1,38,62,732056356
6,14,Improv_Melody,298,2,48,80,732309512
6,14,Improv_Melody,299,2,72,80,732311732
6,14,Improv_Melody,300,5,42,127,732314264
6,14,Improv_Melody,301,1,48,81,732356132
6,14,Improv_Melody,302,1,48,67,732796952
6,14,Improv_Melody,303,5,42,110,732806396
6,14,Improv_Melody,304,1,48,33,732893456
6,14,Improv_Melody,305,5,42,110,733307256
6,14,Improv_Melody,306,1,38,86,733309120
6,14,Improv_Melody,307,1,38,73,733802788
6,14,Improv_Melody,308,5,42,110,733806932
6,14,Improv_Melody,309,1,48,78,734286192
6,14,Improv_Melody,310,5,42,127,734306764
6,14,Improv_Melody,311,5,42,110,734807276
6,14,Improv_Melody,312,1,38,72,734814272
6,14,Improv_Melody,313,1,48,70,735287572
6,14,Improv_Melody,314,5,42,110,735307168
6,14,Improv_Melody,315,1,48,81,735807156
6,14,Improv_Melody,316,5,42,110,735808720
6,14,Improv_Melody,317,2,43,80,736309272
6,14,Improv_Melody,318,2,67,80,736311344
6,14,Improv_Melody,319,5,42,127,736314020
6,14,Improv_Melody,320,1,38,74,736330804
6,14,Improv_Melody,321,5,42,110,736807204
6,14,Improv_Melody,322,1,38,68,736829588
6,14,Improv_Melody,323,1,38,79,737283320
6,14,Improv_Melody,324,5,42,110,737306952
6,14,Improv_Melody,325,1,48,85,737743276
6,14,Improv_Melody,326,5,42,110,737806784
6,14,Improv_Melody,327,1,48,71,738289104
6,14,Improv_Melody,328,5,42,127,738306316
6,14,Improv_Melody,329,1,48,68,738793412
6,14,Improv_Melody,330,5,42,110,738807192
6,14,Improv_Melody,331,5,42,110,739306808
6,14,Improv_Melody,332,1,38,69,739311792
6,14,Improv_Melody,333,1,48,67,739762364
6,14,Improv_Melody,334,5,42,110,739806704
6,14,Improv_Melody,335,1,48,73,740291388
6,14,Improv_Melody,336,2,45,80,740310008
6,14,Improv_Melody,337,2,69,80,740311856
6,14,Improv_Melody,338,5,42,127,740314688
6,14,Improv_Melody,339,5,42,110,740807108
6,14,Improv_Melody,340,1,48,81,740838224
6,14,Improv_Melody,341,5,42,110,741306840
6,14,Improv_Melody,342,1,38,79,741312120
6,14,Improv_Melody,343,1,48,78,741793704
6,14,Improv_Melody,344,5,42,110,741806664
6,14,Improv_Melody,345,5,42,127,742307248
6,14,Improv_Melody,346,1,48,80,742322760
6,14,Improv_Melody,347,1,48,91,742804416
6,14,Improv_Melody,348,5,42,110,742806924
6,14,Improv_Melody,349,1,38,87,743263408
6,14,Improv_Melody,350,5,42,110,743306680
6,14,Improv_Melody,351,1,48,60,743797512
6,14,Improv_Melody,352,5,42,110,743807556
6,14,Improv_Melody,353,1,48,74,744299356
6,14,Improv_Melody,354,2,41,80,744309664
6,14,Improv_Melody,355,2,65,80,744311736
6,14,Improv_Melody,356,5,42,127,744314344
6,14,Improv_Melody,357,1,48,78,744796516
6,14,Improv_Melody,358,5,42,110,744806708
6,14,Improv_Melody,359,5,42,110,745306620
6,14,Improv_Melody,360,1,38,77,745311976
6,14,Improv_Melody,361,1,48,65,745794012
6,14,Improv_Melody,362,5,42,110,745807340
6,14,Improv_Melody,363,1,48,76,746292648
6,14,Improv_Melody,364,5,42,127,746306948
6,14,Improv_Melody,365,1,48,86,746775152
6,14,Improv_Melody,366,5,42,110,746806556
6,14,Improv_Melody,367,1,38,59,747274084
6,14,Improv_Melody,368,5,42,110,747307508
6,14,Improv_Melody,369,1,48,71,747782132
6,14,Improv_Melody,370,5,42,110,747807260
6,14,Improv_Melody,371,1,48,76,748299808
6,14,Improv_Melody,372,2,48,80,748309444
6,14,Improv_Melody,373,2,72,80,748311668
6,14,Improv_Melody,374,5,42,127,748314344
6,14,Improv_Melody,375,1,48,77,748775464
6,14,Improv_Melody,376,5,42,110,748806560
6,14,Improv_Melody,377,1,38,62,749298816
6,14,Improv_Melody,0,9999,9999,9999,9999,668304432
6,14,Improv_Melody,1,9999,9999,9999,9999,668804192
6,14,Improv_Melody,2,9999,9999,9999,9999,669304940
6,14,Improv_Melody,3,9999,9999,9999,9999,669804640
6,14,Improv_Melody,4,9999,9999,9999,9999,670304344
6,14,Improv_Melody,5,9999,9999,9999,9999,670805092
6,14,Improv_Melody,6,9999,9999,9999,9999,671304796
6,14,Improv_Melody,7,9999,9999,9999,9999,671804500
6,14,Improv_Melody,8,9999,9999,9999,9999,672304204
6,14,Improv_Melody,9,9999,9999,9999,9999,672804964
6,14,Improv_Melody,10,9999,9999,9999,9999,673304668
6,14,Improv_Melody,11,9999,9999,9999,9999,673804372
6,14,Improv_Melody,12,9999,9999,9999,9999,674304076
6,14,Improv_Melody,13,9999,9999,9999,9999,674804824
6,14,Improv_Melody,14,9999,9999,9999,9999,675304524
6,14,Improv_Melody,15,9999,9999,9999,9999,675804228
6,14,Improv_Melody,16,9999,9999,9999,9999,676304976
6,14,Improv_Melody,17,9999,9999,9999,9999,676804668
6,14,Improv_Melody,18,9999,9999,9999,9999,677304372
6,14,Improv_Melody,19,9999,9999,9999,9999,677804148
6,14,Improv_Melody,20,9999,9999,9999,9999,678304824
6,14,Improv_Melody,21,9999,9999,9999,9999,678804600
6,14,Improv_Melody,22,9999,9999,9999,9999,679304304
6,14,Improv_Melody,23,9999,9999,9999,9999,679804976
6,14,Improv_Melody,24,9999,9999,9999,9999,680304752
6,14,Improv_Melody,25,9999,9999,9999,9999,680804472
6,14,Improv_Melody,26,9999,9999,9999,9999,681304172
6,14,Improv_Melody,27,9999,9999,9999,9999,681804848
6,14,Improv_Melody,28,9999,9999,9999,9999,682304624
6,14,Improv_Melody,29,9999,9999,9999,9999,682804328
6,14,Improv_Melody,30,9999,9999,9999,9999,683305076
6,14,Improv_Melody,31,9999,9999,9999,9999,683804780
6,14,Improv_Melody,32,9999,9999,9999,9999,684304480
6,14,Improv_Melody,33,9999,9999,9999,9999,684804200
6,14,Improv_Melody,34,9999,9999,9999,9999,685304920
6,14,Improv_Melody,35,9999,9999,9999,9999,685804600
6,14,Improv_Melody,36,9999,9999,9999,9999,686304360
6,14,Improv_Melody,37,9999,9999,9999,9999,686805084
6,14,Improv_Melody,38,9999,9999,9999,9999,687304816
6,14,Improv_Melody,39,9999,9999,9999,9999,687804500
6,14,Improv_Melody,40,9999,9999,9999,9999,688304184
6,14,Improv_Melody,41,9999,9999,9999,9999,688804920
6,14,Improv_Melody,42,9999,9999,9999,9999,689304684
6,14,Improv_Melody,43,9999,9999,9999,9999,689804360
6,14,Improv_Melody,44,9999,9999,9999,9999,690304116
6,14,Improv_Melody,45,9999,9999,9999,9999,690804840
6,14,Improv_Melody,46,9999,9999,9999,9999,691304524
6,14,Improv_Melody,47,9999,9999,9999,9999,691804280
6,14,Improv_Melody,48,9999,9999,9999,9999,692305004
6,14,Improv_Melody,49,9999,9999,9999,9999,692804700
6,14,Improv_Melody,50,9999,9999,9999,9999,693304388
6,14,Improv_Melody,51,9999,9999,9999,9999,693804136
6,14,Improv_Melody,52,9999,9999,9999,9999,694304864
6,14,Improv_Melody,53,9999,9999,9999,9999,694804544
6,14,Improv_Melody,54,9999,9999,9999,9999,695304300
6,14,Improv_Melody,55,9999,9999,9999,9999,695805028
6,14,Improv_Melody,56,9999,9999,9999,9999,696304708
6,14,Improv_Melody,57,9999,9999,9999,9999,696804404
6,14,Improv_Melody,58,9999,9999,9999,9999,697304144
6,14,Improv_Melody,59,9999,9999,9999,9999,697804864
6,14,Improv_Melody,60,9999,9999,9999,9999,698304572
6,14,Improv_Melody,61,9999,9999,9999,9999,698804336
6,14,Improv_Melody,62,9999,9999,9999,9999,699305040
6,14,Improv_Melody,63,9999,9999,9999,9999,699804720
6,14,Improv_Melody,64,9999,9999,9999,9999,700304456
6,14,Improv_Melody,65,9999,9999,9999,9999,700804148
6,14,Improv_Melody,66,9999,9999,9999,9999,701304928
6,14,Improv_Melody,67,9999,9999,9999,9999,701804608
6,14,Improv_Melody,68,9999,9999,9999,9999,702304344
6,14,Improv_Melody,69,9999,9999,9999,9999,702805068
6,14,Improv_Melody,70,9999,9999,9999,9999,703304804
6,14,Improv_Melody,71,9999,9999,9999,9999,703804484
6,14,Improv_Melody,72,9999,9999,9999,9999,704304216
6,14,Improv_Melody,73,9999,9999,9999,9999,704804960
6,14,Improv_Melody,74,9999,9999,9999,9999,705304692
6,14,Improv_Melody,75,9999,9999,9999,9999,705804376
6,14,Improv_Melody,76,9999,9999,9999,9999,706304108
6,14,Improv_Melody,77,9999,9999,9999,9999,706804836
6,14,Improv_Melody,78,9999,9999,9999,9999,707304496
6,14,Improv_Melody,79,9999,9999,9999,9999,707804252
6,14,Improv_Melody,80,9999,9999,9999,9999,708304952
6,14,Improv_Melody,81,9999,9999,9999,9999,708804680
6,14,Improv_Melody,82,9999,9999,9999,9999,709304416
6,14,Improv_Melody,83,9999,9999,9999,9999,709804100
6,14,Improv_Melody,84,9999,9999,9999,9999,710304876
6,14,Improv_Melody,85,9999,9999,9999,9999,710804556
6,14,Improv_Melody,86,9999,9999,9999,9999,711304292
6,14,Improv_Melody,87,9999,9999,9999,9999,711805008
6,14,Improv_Melody,88,9999,9999,9999,9999,712304752
6,14,Improv_Melody,89,9999,9999,9999,9999,712804448
6,14,Improv_Melody,90,9999,9999,9999,9999,713304120
6,14,Improv_Melody,91,9999,9999,9999,9999,713804916
6,14,Improv_Melody,92,9999,9999,9999,9999,714304580
6,14,Improv_Melody,93,9999,9999,9999,9999,714804316
6,14,Improv_Melody,94,9999,9999,9999,9999,715305020
6,14,Improv_Melody,95,9999,9999,9999,9999,715804776
6,14,Improv_Melody,96,9999,9999,9999,9999,716304436
6,14,Improv_Melody,97,9999,9999,9999,9999,716804204
6,14,Improv_Melody,98,9999,9999,9999,9999,717304908
6,14,Improv_Melody,99,9999,9999,9999,9999,717804660
6,14,Improv_Melody,100,9999,9999,9999,9999,718304324
6,14,Improv_Melody,101,9999,9999,9999,9999,718805052
6,14,Improv_Melody,102,9999,9999,9999,9999,719304760
6,14,Improv_Melody,103,9999,9999,9999,9999,719804488
6,14,Improv_Melody,104,9999,9999,9999,9999,720304228
6,14,Improv_Melody,105,9999,9999,9999,9999,720804968
6,14,Improv_Melody,106,9999,9999,9999,9999,721304628
6,14,Improv_Melody,107,9999,9999,9999,9999,721804340
6,14,Improv_Melody,108,9999,9999,9999,9999,722304072
6,14,Improv_Melody,109,9999,9999,9999,9999,722804796
6,14,Improv_Melody,110,9999,9999,9999,9999,723304532
6,14,Improv_Melody,111,9999,9999,9999,9999,723804212
6,14,Improv_Melody,112,9999,9999,9999,9999,724304992
6,14,Improv_Melody,113,9999,9999,9999,9999,724804720
6,14,Improv_Melody,114,9999,9999,9999,9999,725304420
6,14,Improv_Melody,115,9999,9999,9999,9999,725804104
6,14,Improv_Melody,116,9999,9999,9999,9999,726304884
6,14,Improv_Melody,117,9999,9999,9999,9999,726804564
6,14,Improv_Melody,118,9999,9999,9999,9999,727304252
6,14,Improv_Melody,119,9999,9999,9999,9999,727804980
6,14,Improv_Melody,120,9999,9999,9999,9999,728304716
6,14,Improv_Melody,121,9999,9999,9999,9999,728804412
6,14,Improv_Melody,122,9999,9999,9999,9999,729304144
6,14,Improv_Melody,123,9999,9999,9999,9999,729804872
6,14,Improv_Melody,124,9999,9999,9999,9999,730304560
6,14,Improv_Melody,125,9999,9999,9999,9999,730804316
6,14,Improv_Melody,126,9999,9999,9999,9999,731305076
6,14,Improv_Melody,127,9999,9999,9999,9999,731804752
6,14,Improv_Melody,128,9999,9999,9999,9999,732304492
6,14,Improv_Melody,129,9999,9999,9999,9999,732804184
6,14,Improv_Melody,130,9999,9999,9999,9999,733304896
6,14,Improv_Melody,131,9999,9999,9999,9999,733804644
6,14,Improv_Melody,132,9999,9999,9999,9999,734304328
6,14,Improv_Melody,133,9999,9999,9999,9999,734805056
6,14,Improv_Melody,134,9999,9999,9999,9999,735304808
6,14,Improv_Melody,135,9999,9999,9999,9999,735804496
6,14,Improv_Melody,136,9999,9999,9999,9999,736304176
6,14,Improv_Melody,137,9999,9999,9999,9999,736804916
6,14,Improv_Melody,138,9999,9999,9999,9999,737304664
6,14,Improv_Melody,139,9999,9999,9999,9999,737804348
6,14,Improv_Melody,140,9999,9999,9999,9999,738304104
6,14,Improv_Melody,141,9999,9999,9999,9999,738804828
6,14,Improv_Melody,142,9999,9999,9999,9999,739304520
6,14,Improv_Melody,143,9999,9999,9999,9999,739804268
6,14,Improv_Melody,144,9999,9999,9999,9999,740304992
6,14,Improv_Melody,145,9999,9999,9999,9999,740804672
6,14,Improv_Melody,146,9999,9999,9999,9999,741304404
6,14,Improv_Melody,147,9999,9999,9999,9999,741804152
6,14,Improv_Melody,148,9999,9999,9999,9999,742304888
6,14,Improv_Melody,149,9999,9999,9999,9999,742804560
6,14,Improv_Melody,150,9999,9999,9999,9999,743304244
6,14,Improv_Melody,151,9999,9999,9999,9999,743805044
6,14,Improv_Melody,152,9999,9999,9999,9999,744304724
6,14,Improv_Melody,153,9999,9999,9999,9999,744804420
6,14,Improv_Melody,154,9999,9999,9999,9999,745304184
6,14,Improv_Melody,155,9999,9999,9999,9999,745804904
6,14,Improv_Melody,156,9999,9999,9999,9999,746304584
6,14,Improv_Melody,157,9999,9999,9999,9999,746804340
6,14,Improv_Melody,158,9999,9999,9999,9999,747305068
6,14,Improv_Melody,159,9999,9999,9999,9999,747804748
6,14,Improv_Melody,160,9999,9999,9999,9999,748304504
6,14,Improv_Melody,161,9999,9999,9999,9999,748804200
