pid,taskRunCount,taskID,taskName,i,channel,pitch,velocity,microseconds
16,1,1,Ticks_Pract_5,0,5,42,127,55242384
16,1,1,Ticks_Pract_5,1,5,42,127,55741784
16,1,1,Ticks_Pract_5,2,5,42,127,56241480
16,1,1,Ticks_Pract_5,3,5,42,127,56742296
16,1,1,Ticks_Pract_5,4,1,48,34,57184056
16,1,1,Ticks_Pract_5,5,5,42,127,57242060
16,1,1,Ticks_Pract_5,6,1,48,26,57698820
16,1,1,Ticks_Pract_5,7,5,42,127,57741664
16,1,1,Ticks_Pract_5,8,1,48,26,58181616
16,1,1,Ticks_Pract_5,9,5,42,127,58242312
16,1,1,Ticks_Pract_5,10,1,48,27,58702876
16,1,1,Ticks_Pract_5,11,5,42,127,58742112
16,1,1,Ticks_Pract_5,12,1,48,25,59198292
16,1,1,Ticks_Pract_5,13,5,42,127,59241936
16,1,1,Ticks_Pract_5,14,1,48,22,59694092
16,1,1,Ticks_Pract_5,15,5,42,127,59741612
16,1,1,Ticks_Pract_5,16,1,48,21,60200632
16,1,1,Ticks_Pract_5,17,5,42,127,60242408
16,1,1,Ticks_Pract_5,18,1,48,28,60720696
16,1,1,Ticks_Pract_5,19,5,42,127,60742008
16,1,1,Ticks_Pract_5,20,1,48,30,61201104
16,1,1,Ticks_Pract_5,21,5,42,127,61241984
16,1,1,Ticks_Pract_5,22,1,48,24,61694284
16,1,1,Ticks_Pract_5,23,5,42,127,61741364
16,1,1,Ticks_Pract_5,24,1,48,30,62201800
16,1,1,Ticks_Pract_5,25,5,42,127,62242084
16,1,1,Ticks_Pract_5,26,1,48,29,62692964
16,1,1,Ticks_Pract_5,27,5,42,127,62741760
16,1,1,Ticks_Pract_5,28,1,48,24,63227360
16,1,1,Ticks_Pract_5,29,5,42,127,63241512
16,1,1,Ticks_Pract_5,30,1,48,26,63696644
16,1,1,Ticks_Pract_5,31,5,42,127,63742380
16,1,1,Ticks_Pract_5,32,1,48,30,64177736
16,1,1,Ticks_Pract_5,33,5,42,127,64241984
16,1,1,Ticks_Pract_5,34,1,48,30,64695104
16,1,1,Ticks_Pract_5,35,5,42,127,64741884
16,1,1,Ticks_Pract_5,36,1,48,25,65202920
16,1,1,Ticks_Pract_5,37,5,42,127,65241336
16,1,1,Ticks_Pract_5,38,1,48,17,65726940
16,1,1,Ticks_Pract_5,39,5,42,127,65742132
16,1,1,Ticks_Pract_5,40,1,48,27,66207124
16,1,1,Ticks_Pract_5,41,5,42,127,66241884
16,1,1,Ticks_Pract_5,42,1,48,29,66708896
16,1,1,Ticks_Pract_5,43,5,42,127,66741708
16,1,1,Ticks_Pract_5,44,1,48,25,67191520
16,1,1,Ticks_Pract_5,45,5,42,127,67242356
16,1,1,Ticks_Pract_5,46,1,48,24,67693664
16,1,1,Ticks_Pract_5,47,5,42,127,67742180
16,1,1,Ticks_Pract_5,48,1,48,23,68201480
16,1,1,Ticks_Pract_5,49,5,42,127,68241708
16,1,1,Ticks_Pract_5,50,1,48,14,68703088
16,1,1,Ticks_Pract_5,51,5,42,127,68741756
16,1,1,Ticks_Pract_5,52,1,48,28,69225020
16,1,1,Ticks_Pract_5,53,5,42,127,69242156
16,1,1,Ticks_Pract_5,54,1,48,27,69734408
16,1,1,Ticks_Pract_5,55,5,42,127,69741908
16,1,1,Ticks_Pract_5,56,1,48,27,70229376
16,1,1,Ticks_Pract_5,57,5,42,127,70241656
16,1,1,Ticks_Pract_5,58,1,48,27,70728756
16,1,1,Ticks_Pract_5,59,5,42,127,70742452
16,1,1,Ticks_Pract_5,60,1,48,27,71208344
16,1,1,Ticks_Pract_5,61,5,42,127,71242052
16,1,1,Ticks_Pract_5,62,1,48,23,71726756
16,1,1,Ticks_Pract_5,63,5,42,127,71741804
16,1,1,Ticks_Pract_5,64,1,48,26,72232484
16,1,1,Ticks_Pract_5,65,5,42,127,72241556
16,1,1,Ticks_Pract_5,66,1,48,25,72717000
16,1,1,Ticks_Pract_5,67,5,42,127,72742648
16,1,1,Ticks_Pract_5,68,1,48,27,73230120
16,1,1,Ticks_Pract_5,69,5,42,127,73241880
16,1,1,Ticks_Pract_5,70,1,48,28,73728160
16,1,1,Ticks_Pract_5,71,5,42,127,73741628
16,1,1,Ticks_Pract_5,72,1,48,24,74217604
16,1,1,Ticks_Pract_5,73,5,42,127,74242500
16,1,1,Ticks_Pract_5,74,1,48,36,74729300
16,1,1,Ticks_Pract_5,75,5,42,127,74742252
16,1,1,Ticks_Pract_5,76,1,48,27,75217028
16,1,1,Ticks_Pract_5,0,9999,9999,9999,55239728
16,1,1,Ticks_Pract_5,1,9999,9999,9999,55739500
16,1,1,Ticks_Pract_5,2,9999,9999,9999,56239200
16,1,1,Ticks_Pract_5,3,9999,9999,9999,56739940
16,1,1,Ticks_Pract_5,4,9999,9999,9999,57239632
16,1,1,Ticks_Pract_5,5,9999,9999,9999,57739384
16,1,1,Ticks_Pract_5,6,9999,9999,9999,58240104
16,1,1,Ticks_Pract_5,7,9999,9999,9999,58739828
16,1,1,Ticks_Pract_5,8,9999,9999,9999,59239504
16,1,1,Ticks_Pract_5,9,9999,9999,9999,59739256
16,1,1,Ticks_Pract_5,10,9999,9999,9999,60239976
16,1,1,Ticks_Pract_5,11,9999,9999,9999,60739652
16,1,1,Ticks_Pract_5,12,9999,9999,9999,61239404
16,1,1,Ticks_Pract_5,13,9999,9999,9999,61739080
16,1,1,Ticks_Pract_5,14,9999,9999,9999,62239800
16,1,1,Ticks_Pract_5,15,9999,9999,9999,62739552
16,1,1,Ticks_Pract_5,16,9999,9999,9999,63239228
16,1,1,Ticks_Pract_5,17,9999,9999,9999,63740024
16,1,1,Ticks_Pract_5,18,9999,9999,9999,64239704
16,1,1,Ticks_Pract_5,19,9999,9999,9999,64739380
16,1,1,Ticks_Pract_5,20,9999,9999,9999,65239128
16,1,1,Ticks_Pract_5,21,9999,9999,9999,65739852
16,1,1,Ticks_Pract_5,22,9999,9999,9999,66239600
16,1,1,Ticks_Pract_5,23,9999,9999,9999,66739280
16,1,1,Ticks_Pract_5,24,9999,9999,9999,67240000
16,1,1,Ticks_Pract_5,25,9999,9999,9999,67739748
16,1,1,Ticks_Pract_5,26,9999,9999,9999,68239424
16,1,1,Ticks_Pract_5,27,9999,9999,9999,68739176
16,1,1,Ticks_Pract_5,28,9999,9999,9999,69239872
16,1,1,Ticks_Pract_5,29,9999,9999,9999,69739624
16,1,1,Ticks_Pract_5,30,9999,9999,9999,70239300
16,1,1,Ticks_Pract_5,31,9999,9999,9999,70740020
16,1,1,Ticks_Pract_5,32,9999,9999,9999,71239772
16,1,1,Ticks_Pract_5,33,9999,9999,9999,71739448
16,1,1,Ticks_Pract_5,34,9999,9999,9999,72239200
16,1,1,Ticks_Pract_5,35,9999,9999,9999,72739920
16,1,1,Ticks_Pract_5,36,9999,9999,9999,73239672
16,1,1,Ticks_Pract_5,37,9999,9999,9999,73739348
16,1,1,Ticks_Pract_5,38,9999,9999,9999,74240068
16,1,1,Ticks_Pract_5,39,9999,9999,9999,74739820
16,2,0,Ticks_Pract_8,0,5,42,127,93934032
16,2,0,Ticks_Pract_8,1,5,42,127,94733636
16,2,0,Ticks_Pract_8,2,1,48,13,95487128
16,2,0,Ticks_Pract_8,3,5,42,127,95533460
16,2,0,Ticks_Pract_8,4,1,48,35,96291120
16,2,0,Ticks_Pract_8,5,5,42,127,96334312
16,2,0,Ticks_Pract_8,6,1,48,38,97101380
16,2,0,Ticks_Pract_8,7,5,42,127,97134044
16,2,0,Ticks_Pract_8,8,1,48,50,97922420
16,2,0,Ticks_Pract_8,9,5,42,127,97933656
16,2,0,Ticks_Pract_8,10,1,48,42,98677924
16,2,0,Ticks_Pract_8,11,5,42,127,98733388
16,2,0,Ticks_Pract_8,12,1,48,37,99505080
16,2,0,Ticks_Pract_8,13,5,42,127,99534388
16,2,0,Ticks_Pract_8,14,1,48,39,100281820
16,2,0,Ticks_Pract_8,15,5,42,127,100334120
16,2,0,Ticks_Pract_8,16,1,48,38,101068484
16,2,0,Ticks_Pract_8,17,5,42,127,101133708
16,2,0,Ticks_Pract_8,18,1,48,40,101914140
16,2,0,Ticks_Pract_8,19,5,42,127,101933368
16,2,0,Ticks_Pract_8,20,1,48,40,102717008
16,2,0,Ticks_Pract_8,21,5,42,127,102734292
16,2,0,Ticks_Pract_8,22,1,48,45,103532520
16,2,0,Ticks_Pract_8,23,5,42,127,103534320
16,2,0,Ticks_Pract_8,24,5,42,127,104333568
16,2,0,Ticks_Pract_8,25,1,48,43,104347660
16,2,0,Ticks_Pract_8,26,1,48,43,105127728
16,2,0,Ticks_Pract_8,27,5,42,127,105133368
16,2,0,Ticks_Pract_8,28,1,48,45,105928068
16,2,0,Ticks_Pract_8,29,5,42,127,105934220
16,2,0,Ticks_Pract_8,30,1,48,38,106729216
16,2,0,Ticks_Pract_8,31,5,42,127,106734028
16,2,0,Ticks_Pract_8,32,5,42,127,107533768
16,2,0,Ticks_Pract_8,33,1,48,27,107567044
16,2,0,Ticks_Pract_8,34,1,48,40,108321440
16,2,0,Ticks_Pract_8,35,5,42,127,108333272
16,2,0,Ticks_Pract_8,36,1,48,39,109119452
16,2,0,Ticks_Pract_8,37,5,42,127,109134048
16,2,0,Ticks_Pract_8,38,1,48,26,109926508
16,2,0,Ticks_Pract_8,39,5,42,127,109934008
16,2,0,Ticks_Pract_8,40,1,48,34,110704136
16,2,0,Ticks_Pract_8,41,5,42,127,110733616
16,2,0,Ticks_Pract_8,42,1,48,29,111519352
16,2,0,Ticks_Pract_8,43,5,42,127,111533352
16,2,0,Ticks_Pract_8,44,1,48,33,112314084
16,2,0,Ticks_Pract_8,45,5,42,127,112334128
16,2,0,Ticks_Pract_8,46,1,48,35,113106272
16,2,0,Ticks_Pract_8,47,5,42,127,113133936
16,2,0,Ticks_Pract_8,48,1,48,50,113893760
16,2,0,Ticks_Pract_8,49,5,42,127,113933672
16,2,0,Ticks_Pract_8,50,1,48,38,114681100
16,2,0,Ticks_Pract_8,51,5,42,127,114733628
16,2,0,Ticks_Pract_8,52,1,48,34,115477776
16,2,0,Ticks_Pract_8,53,5,42,127,115534256
16,2,0,Ticks_Pract_8,54,1,48,33,116316412
16,2,0,Ticks_Pract_8,55,5,42,127,116333992
16,2,0,Ticks_Pract_8,56,1,48,35,117122068
16,2,0,Ticks_Pract_8,57,5,42,127,117133524
16,2,0,Ticks_Pract_8,58,1,48,29,117893724
16,2,0,Ticks_Pract_8,0,9999,9999,9999,93931596
16,2,0,Ticks_Pract_8,1,9999,9999,9999,94731352
16,2,0,Ticks_Pract_8,2,9999,9999,9999,95531100
16,2,0,Ticks_Pract_8,3,9999,9999,9999,96331880
16,2,0,Ticks_Pract_8,4,9999,9999,9999,97131612
16,2,0,Ticks_Pract_8,5,9999,9999,9999,97931372
16,2,0,Ticks_Pract_8,6,9999,9999,9999,98731104
16,2,0,Ticks_Pract_8,7,9999,9999,9999,99531880
16,2,0,Ticks_Pract_8,8,9999,9999,9999,100331612
16,2,0,Ticks_Pract_8,9,9999,9999,9999,101131348
16,2,0,Ticks_Pract_8,10,9999,9999,9999,101931080
16,2,0,Ticks_Pract_8,11,9999,9999,9999,102731860
16,2,0,Ticks_Pract_8,12,9999,9999,9999,103531600
16,2,0,Ticks_Pract_8,13,9999,9999,9999,104331356
16,2,0,Ticks_Pract_8,14,9999,9999,9999,105131084
16,2,0,Ticks_Pract_8,15,9999,9999,9999,105931860
16,2,0,Ticks_Pract_8,16,9999,9999,9999,106731596
16,2,0,Ticks_Pract_8,17,9999,9999,9999,107531336
16,2,0,Ticks_Pract_8,18,9999,9999,9999,108331064
16,2,0,Ticks_Pract_8,19,9999,9999,9999,109131840
16,2,0,Ticks_Pract_8,20,9999,9999,9999,109931572
16,2,0,Ticks_Pract_8,21,9999,9999,9999,110731332
16,2,0,Ticks_Pract_8,22,9999,9999,9999,111531068
16,2,0,Ticks_Pract_8,23,9999,9999,9999,112331844
16,2,0,Ticks_Pract_8,24,9999,9999,9999,113131576
16,2,0,Ticks_Pract_8,25,9999,9999,9999,113931312
16,2,0,Ticks_Pract_8,26,9999,9999,9999,114731120
16,2,0,Ticks_Pract_8,27,9999,9999,9999,115531824
16,2,0,Ticks_Pract_8,28,9999,9999,9999,116331632
16,2,0,Ticks_Pract_8,29,9999,9999,9999,117131316
16,3,4,T1_SMS_5,0,5,42,127,164488652
16,3,4,T1_SMS_5,1,5,42,127,164989320
16,3,4,T1_SMS_5,2,1,48,30,165184716
16,3,4,T1_SMS_5,3,5,42,127,165489048
16,3,4,T1_SMS_5,4,1,48,32,165499056
16,3,4,T1_SMS_5,5,1,48,33,165957692
16,3,4,T1_SMS_5,6,5,42,127,165988792
16,3,4,T1_SMS_5,7,1,48,29,166438848
16,3,4,T1_SMS_5,8,5,42,127,166488468
16,3,4,T1_SMS_5,9,1,48,26,166948828
16,3,4,T1_SMS_5,10,5,42,127,166989412
16,3,4,T1_SMS_5,11,1,48,25,167438728
16,3,4,T1_SMS_5,12,5,42,127,167488792
16,3,4,T1_SMS_5,13,1,48,26,167946464
16,3,4,T1_SMS_5,14,5,42,127,167988764
16,3,4,T1_SMS_5,15,1,48,23,168450400
16,3,4,T1_SMS_5,16,5,42,127,168489340
16,3,4,T1_SMS_5,17,1,48,20,168930064
16,3,4,T1_SMS_5,18,5,42,127,168988940
16,3,4,T1_SMS_5,19,1,48,27,169478356
16,3,4,T1_SMS_5,20,5,42,127,169488620
16,3,4,T1_SMS_5,21,1,48,32,169974740
16,3,4,T1_SMS_5,22,5,42,127,169988368
16,3,4,T1_SMS_5,23,1,48,33,170459856
16,3,4,T1_SMS_5,24,5,42,127,170489460
16,3,4,T1_SMS_5,25,1,48,32,170943180
16,3,4,T1_SMS_5,26,5,42,127,170988992
16,3,4,T1_SMS_5,27,1,48,24,171449876
16,3,4,T1_SMS_5,28,5,42,127,171488668
16,3,4,T1_SMS_5,29,1,48,35,171967628
16,3,4,T1_SMS_5,30,5,42,127,171989312
16,3,4,T1_SMS_5,31,1,48,31,172468276
16,3,4,T1_SMS_5,32,5,42,127,172489140
16,3,4,T1_SMS_5,33,1,48,30,172945548
16,3,4,T1_SMS_5,34,5,42,127,172988740
16,3,4,T1_SMS_5,35,1,48,31,173450972
16,3,4,T1_SMS_5,36,5,42,127,173488344
16,3,4,T1_SMS_5,37,1,48,28,173933824
16,3,4,T1_SMS_5,38,5,42,127,173989360
16,3,4,T1_SMS_5,39,1,48,22,174476456
16,3,4,T1_SMS_5,40,5,42,127,174489036
16,3,4,T1_SMS_5,41,1,48,24,174947660
16,3,4,T1_SMS_5,42,5,42,127,174988640
16,3,4,T1_SMS_5,43,1,48,25,175463912
16,3,4,T1_SMS_5,44,5,42,127,175489360
16,3,4,T1_SMS_5,45,1,48,24,175971432
16,3,4,T1_SMS_5,46,5,42,127,175989108
16,3,4,T1_SMS_5,47,1,48,35,176474168
16,3,4,T1_SMS_5,48,5,42,127,176488840
16,3,4,T1_SMS_5,49,1,48,23,176968772
16,3,4,T1_SMS_5,50,5,42,127,176988516
16,3,4,T1_SMS_5,51,1,48,27,177485244
16,3,4,T1_SMS_5,52,5,42,127,177489460
16,3,4,T1_SMS_5,53,1,48,31,177946092
16,3,4,T1_SMS_5,54,5,42,127,177988992
16,3,4,T1_SMS_5,55,1,48,30,178478848
16,3,4,T1_SMS_5,56,5,42,127,178488592
16,3,4,T1_SMS_5,57,5,42,127,178989396
16,3,4,T1_SMS_5,58,1,48,32,178992056
16,3,4,T1_SMS_5,59,1,48,30,179485968
16,3,4,T1_SMS_5,60,5,42,127,179489064
16,3,4,T1_SMS_5,61,1,48,30,179986240
16,3,4,T1_SMS_5,62,5,42,127,179989040
16,3,4,T1_SMS_5,63,1,48,32,180476136
16,3,4,T1_SMS_5,64,5,42,127,180488492
16,3,4,T1_SMS_5,65,1,48,32,180944672
16,3,4,T1_SMS_5,66,5,42,127,180989364
16,3,4,T1_SMS_5,67,1,48,27,181438004
16,3,4,T1_SMS_5,68,5,42,127,181489040
16,3,4,T1_SMS_5,69,1,48,28,181952616
16,3,4,T1_SMS_5,70,5,42,127,181988788
16,3,4,T1_SMS_5,71,1,48,34,182427568
16,3,4,T1_SMS_5,72,5,42,127,182488392
16,3,4,T1_SMS_5,73,1,48,31,182971976
16,3,4,T1_SMS_5,74,5,42,127,182989112
16,3,4,T1_SMS_5,75,1,48,29,183463436
16,3,4,T1_SMS_5,76,5,42,127,183488936
16,3,4,T1_SMS_5,77,5,42,127,183988768
16,3,4,T1_SMS_5,78,1,48,24,184007484
16,3,4,T1_SMS_5,79,1,48,27,184481160
16,3,4,T1_SMS_5,80,5,42,127,184489260
16,3,4,T1_SMS_5,81,1,48,29,184973372
16,3,4,T1_SMS_5,82,5,42,127,184988936
16,3,4,T1_SMS_5,83,1,48,24,185480884
16,3,4,T1_SMS_5,84,5,42,127,185488760
16,3,4,T1_SMS_5,85,1,48,32,185966196
16,3,4,T1_SMS_5,86,5,42,127,185988736
16,3,4,T1_SMS_5,87,1,48,34,186460648
16,3,4,T1_SMS_5,88,5,42,127,186489084
16,3,4,T1_SMS_5,89,1,48,30,186957940
16,3,4,T1_SMS_5,90,5,42,127,186988888
16,3,4,T1_SMS_5,91,1,48,29,187462316
16,3,4,T1_SMS_5,92,5,42,127,187488788
16,3,4,T1_SMS_5,93,1,48,30,187969912
16,3,4,T1_SMS_5,94,5,42,127,187989584
16,3,4,T1_SMS_5,95,1,48,20,188474960
16,3,4,T1_SMS_5,96,5,42,127,188489036
16,3,4,T1_SMS_5,97,1,48,24,188984868
16,3,4,T1_SMS_5,98,5,42,127,188988640
16,3,4,T1_SMS_5,99,5,42,127,189488472
16,3,4,T1_SMS_5,100,1,48,23,189489880
16,3,4,T1_SMS_5,101,1,48,23,189937704
16,3,4,T1_SMS_5,102,5,42,127,189989408
16,3,4,T1_SMS_5,103,1,48,27,190457760
16,3,4,T1_SMS_5,104,5,42,127,190488936
16,3,4,T1_SMS_5,105,5,42,127,190988696
16,3,4,T1_SMS_5,106,1,48,20,190998232
16,3,4,T1_SMS_5,107,5,42,127,191489492
16,3,4,T1_SMS_5,108,1,48,21,191502464
16,3,4,T1_SMS_5,109,5,42,127,191989096
16,3,4,T1_SMS_5,110,1,48,26,191998408
16,3,4,T1_SMS_5,111,1,48,24,192459680
16,3,4,T1_SMS_5,112,5,42,127,192488840
16,3,4,T1_SMS_5,113,5,42,127,192988448
16,3,4,T1_SMS_5,114,1,48,22,193469436
16,3,4,T1_SMS_5,115,5,42,127,193489336
16,3,4,T1_SMS_5,116,1,48,23,193974568
16,3,4,T1_SMS_5,117,5,42,127,193989012
16,3,4,T1_SMS_5,118,5,42,127,194488696
16,3,4,T1_SMS_5,119,1,48,21,194490180
16,3,4,T1_SMS_5,120,1,48,22,194972348
16,3,4,T1_SMS_5,121,5,42,127,194989412
16,3,4,T1_SMS_5,122,5,42,127,195489316
16,3,4,T1_SMS_5,123,1,48,26,195492800
16,3,4,T1_SMS_5,124,1,48,30,195980296
16,3,4,T1_SMS_5,125,5,42,127,195988764
16,3,4,T1_SMS_5,126,1,48,27,196476384
16,3,4,T1_SMS_5,127,5,42,127,196488444
16,3,4,T1_SMS_5,128,1,48,25,196970884
16,3,4,T1_SMS_5,129,5,42,127,196989164
16,3,4,T1_SMS_5,130,1,48,24,197476080
16,3,4,T1_SMS_5,131,5,42,127,197489112
16,3,4,T1_SMS_5,132,1,48,35,197958116
16,3,4,T1_SMS_5,133,5,42,127,197988692
16,3,4,T1_SMS_5,134,1,48,30,198475260
16,3,4,T1_SMS_5,135,5,42,127,198488292
16,3,4,T1_SMS_5,136,1,48,34,198960380
16,3,4,T1_SMS_5,137,5,42,127,198989236
16,3,4,T1_SMS_5,138,5,42,127,199489068
16,3,4,T1_SMS_5,139,1,48,33,199493224
16,3,4,T1_SMS_5,140,5,42,127,199988672
16,3,4,T1_SMS_5,141,1,48,30,199989636
16,3,4,T1_SMS_5,142,1,48,30,200474792
16,3,4,T1_SMS_5,143,5,42,127,200489312
16,3,4,T1_SMS_5,144,1,48,30,200955496
16,3,4,T1_SMS_5,145,5,42,127,200989136
16,3,4,T1_SMS_5,146,1,48,33,201478848
16,3,4,T1_SMS_5,147,5,42,127,201489036
16,3,4,T1_SMS_5,148,1,48,34,201962468
16,3,4,T1_SMS_5,149,5,42,127,201988492
16,3,4,T1_SMS_5,150,5,42,127,202489144
16,3,4,T1_SMS_5,151,1,48,15,202501068
16,3,4,T1_SMS_5,152,5,42,127,202988972
16,3,4,T1_SMS_5,153,1,48,25,202991712
16,3,4,T1_SMS_5,154,1,48,26,203472472
16,3,4,T1_SMS_5,155,5,42,127,203488564
16,3,4,T1_SMS_5,156,1,48,28,203988916
16,3,4,T1_SMS_5,157,5,42,127,203990776
16,3,4,T1_SMS_5,158,1,48,33,204486016
16,3,4,T1_SMS_5,159,5,42,127,204489040
16,3,4,T1_SMS_5,160,5,42,127,204989092
16,3,4,T1_SMS_5,161,1,48,32,204991540
16,3,4,T1_SMS_5,162,1,48,32,205466928
16,3,4,T1_SMS_5,163,5,42,127,205488616
16,3,4,T1_SMS_5,164,1,48,33,205979076
16,3,4,T1_SMS_5,165,5,42,127,205989116
16,3,4,T1_SMS_5,166,1,48,33,206458736
16,3,4,T1_SMS_5,167,5,42,127,206489016
16,3,4,T1_SMS_5,168,1,48,30,206961328
16,3,4,T1_SMS_5,169,5,42,127,206988768
16,3,4,T1_SMS_5,170,1,48,35,207457320
16,3,4,T1_SMS_5,171,5,42,127,207489488
16,3,4,T1_SMS_5,172,5,42,127,207989096
16,3,4,T1_SMS_5,173,1,48,16,207999008
16,3,4,T1_SMS_5,174,5,42,127,208488820
16,3,4,T1_SMS_5,175,1,48,32,208490536
16,3,4,T1_SMS_5,176,1,48,35,208970088
16,3,4,T1_SMS_5,177,5,42,127,208988640
16,3,4,T1_SMS_5,178,1,48,34,209455724
16,3,4,T1_SMS_5,179,5,42,127,209489360
16,3,4,T1_SMS_5,180,5,42,127,209989044
16,3,4,T1_SMS_5,181,1,48,28,209995368
16,3,4,T1_SMS_5,182,1,48,31,210470904
16,3,4,T1_SMS_5,183,5,42,127,210488640
16,3,4,T1_SMS_5,184,1,48,33,210966848
16,3,4,T1_SMS_5,185,5,42,127,210989508
16,3,4,T1_SMS_5,186,5,42,127,211489044
16,3,4,T1_SMS_5,187,1,48,31,211490008
16,3,4,T1_SMS_5,188,5,42,127,211988792
16,3,4,T1_SMS_5,189,1,48,32,211996836
16,3,4,T1_SMS_5,190,1,48,34,212457432
16,3,4,T1_SMS_5,191,5,42,127,212488760
16,3,4,T1_SMS_5,192,5,42,127,212989564
16,3,4,T1_SMS_5,193,1,48,19,212994100
16,3,4,T1_SMS_5,194,5,42,127,213488944
16,3,4,T1_SMS_5,195,1,48,30,213506692
16,3,4,T1_SMS_5,196,1,48,32,213987256
16,3,4,T1_SMS_5,197,5,42,127,213989136
16,3,4,T1_SMS_5,198,5,42,127,214488520
16,3,4,T1_SMS_5,199,1,48,31,214491108
16,3,4,T1_SMS_5,200,5,42,127,214989168
16,3,4,T1_SMS_5,201,1,48,33,214990652
16,3,4,T1_SMS_5,202,5,42,127,215488844
16,3,4,T1_SMS_5,203,1,48,33,215510996
16,3,4,T1_SMS_5,204,5,42,127,215988520
16,3,4,T1_SMS_5,205,1,48,29,215991560
16,3,4,T1_SMS_5,206,1,48,33,216463812
16,3,4,T1_SMS_5,207,5,42,127,216489384
16,3,4,T1_SMS_5,208,1,48,27,216944672
16,3,4,T1_SMS_5,209,5,42,127,216988988
16,3,4,T1_SMS_5,210,1,48,15,217473396
16,3,4,T1_SMS_5,211,5,42,127,217488888
16,3,4,T1_SMS_5,212,1,48,26,217978596
16,3,4,T1_SMS_5,213,5,42,127,217988492
16,3,4,T1_SMS_5,214,1,48,21,218478176
16,3,4,T1_SMS_5,215,5,42,127,218489284
16,3,4,T1_SMS_5,216,1,48,33,218966720
16,3,4,T1_SMS_5,217,5,42,127,218989160
16,3,4,T1_SMS_5,218,1,48,26,219482456
16,3,4,T1_SMS_5,219,5,42,127,219488688
16,3,4,T1_SMS_5,220,1,48,31,219974140
16,3,4,T1_SMS_5,221,5,42,127,219989260
16,3,4,T1_SMS_5,222,1,48,35,220477100
16,3,4,T1_SMS_5,223,5,42,127,220489308
16,3,4,T1_SMS_5,224,1,48,28,220966924
16,3,4,T1_SMS_5,225,5,42,127,220988760
16,3,4,T1_SMS_5,226,1,48,21,221468168
16,3,4,T1_SMS_5,227,5,42,127,221488512
16,3,4,T1_SMS_5,228,1,48,25,221985612
16,3,4,T1_SMS_5,229,5,42,127,221989308
16,3,4,T1_SMS_5,230,1,48,28,222476632
16,3,4,T1_SMS_5,231,5,42,127,222489060
16,3,4,T1_SMS_5,232,5,42,127,222988820
16,3,4,T1_SMS_5,233,1,48,24,222989784
16,3,4,T1_SMS_5,234,5,42,127,223489316
16,3,4,T1_SMS_5,235,1,48,28,223506240
16,3,4,T1_SMS_5,236,1,48,24,223981184
16,3,4,T1_SMS_5,237,5,42,127,223989284
16,3,4,T1_SMS_5,238,1,48,22,224471752
16,3,4,T1_SMS_5,239,5,42,127,224488884
16,3,4,T1_SMS_5,240,1,48,27,224971276
16,3,4,T1_SMS_5,241,5,42,127,224988488
16,3,4,T1_SMS_5,242,5,42,127,225489140
16,3,4,T1_SMS_5,243,1,48,19,225509656
16,3,4,T1_SMS_5,244,5,42,127,225988968
16,3,4,T1_SMS_5,245,1,48,30,225991712
16,3,4,T1_SMS_5,246,1,48,25,226483000
16,3,4,T1_SMS_5,247,5,42,127,226488860
16,3,4,T1_SMS_5,248,1,48,28,226980512
16,3,4,T1_SMS_5,249,5,42,127,226989436
16,3,4,T1_SMS_5,250,1,48,29,227481236
16,3,4,T1_SMS_5,251,5,42,127,227489112
16,3,4,T1_SMS_5,252,1,48,25,227976212
16,3,4,T1_SMS_5,253,5,42,127,227988792
16,3,4,T1_SMS_5,254,1,48,27,228482384
16,3,4,T1_SMS_5,255,5,42,127,228488688
16,3,4,T1_SMS_5,256,1,48,27,228967700
16,3,4,T1_SMS_5,257,5,42,127,228989188
16,3,4,T1_SMS_5,258,1,48,24,229477152
16,3,4,T1_SMS_5,0,9999,9999,9999,164486216
16,3,4,T1_SMS_5,1,9999,9999,9999,164986960
16,3,4,T1_SMS_5,2,9999,9999,9999,165486684
16,3,4,T1_SMS_5,3,9999,9999,9999,165986356
16,3,4,T1_SMS_5,4,9999,9999,9999,166486108
16,3,4,T1_SMS_5,5,9999,9999,9999,166986828
16,3,4,T1_SMS_5,6,9999,9999,9999,167486580
16,3,4,T1_SMS_5,7,9999,9999,9999,167986256
16,3,4,T1_SMS_5,8,9999,9999,9999,168486980
16,3,4,T1_SMS_5,9,9999,9999,9999,168986728
16,3,4,T1_SMS_5,10,9999,9999,9999,169486408
16,3,4,T1_SMS_5,11,9999,9999,9999,169986156
16,3,4,T1_SMS_5,12,9999,9999,9999,170486876
16,3,4,T1_SMS_5,13,9999,9999,9999,170986556
16,3,4,T1_SMS_5,14,9999,9999,9999,171486304
16,3,4,T1_SMS_5,15,9999,9999,9999,171987028
16,3,4,T1_SMS_5,16,9999,9999,9999,172486704
16,3,4,T1_SMS_5,17,9999,9999,9999,172986456
16,3,4,T1_SMS_5,18,9999,9999,9999,173486132
16,3,4,T1_SMS_5,19,9999,9999,9999,173986928
16,3,4,T1_SMS_5,20,9999,9999,9999,174486604
16,3,4,T1_SMS_5,21,9999,9999,9999,174986352
16,3,4,T1_SMS_5,22,9999,9999,9999,175487072
16,3,4,T1_SMS_5,23,9999,9999,9999,175986748
16,3,4,T1_SMS_5,24,9999,9999,9999,176486476
16,3,4,T1_SMS_5,25,9999,9999,9999,176986228
16,3,4,T1_SMS_5,26,9999,9999,9999,177486952
16,3,4,T1_SMS_5,27,9999,9999,9999,177986628
16,3,4,T1_SMS_5,28,9999,9999,9999,178486380
16,3,4,T1_SMS_5,29,9999,9999,9999,178987112
16,3,4,T1_SMS_5,30,9999,9999,9999,179486780
16,3,4,T1_SMS_5,31,9999,9999,9999,179986532
16,3,4,T1_SMS_5,32,9999,9999,9999,180486208
16,3,4,T1_SMS_5,33,9999,9999,9999,180987000
16,3,4,T1_SMS_5,34,9999,9999,9999,181486680
16,3,4,T1_SMS_5,35,9999,9999,9999,181986356
16,3,4,T1_SMS_5,36,9999,9999,9999,182486104
16,3,4,T1_SMS_5,37,9999,9999,9999,182986824
16,3,4,T1_SMS_5,38,9999,9999,9999,183486576
16,3,4,T1_SMS_5,39,9999,9999,9999,183986260
16,3,4,T1_SMS_5,40,9999,9999,9999,184486972
16,3,4,T1_SMS_5,41,9999,9999,9999,184986724
16,3,4,T1_SMS_5,42,9999,9999,9999,185486400
16,3,4,T1_SMS_5,43,9999,9999,9999,185986152
16,3,4,T1_SMS_5,44,9999,9999,9999,186486872
16,3,4,T1_SMS_5,45,9999,9999,9999,186986600
16,3,4,T1_SMS_5,46,9999,9999,9999,187486276
16,3,4,T1_SMS_5,47,9999,9999,9999,187987000
16,3,4,T1_SMS_5,48,9999,9999,9999,188486752
16,3,4,T1_SMS_5,49,9999,9999,9999,188986424
16,3,4,T1_SMS_5,50,9999,9999,9999,189486184
16,3,4,T1_SMS_5,51,9999,9999,9999,189986900
16,3,4,T1_SMS_5,52,9999,9999,9999,190486576
16,3,4,T1_SMS_5,53,9999,9999,9999,190986336
16,3,4,T1_SMS_5,54,9999,9999,9999,191487056
16,3,4,T1_SMS_5,55,9999,9999,9999,191986808
16,3,4,T1_SMS_5,56,9999,9999,9999,192486480
16,3,4,T1_SMS_5,57,9999,9999,9999,192986164
16,3,4,T1_SMS_5,58,9999,9999,9999,193486900
16,3,4,T1_SMS_5,59,9999,9999,9999,193986652
16,3,4,T1_SMS_5,60,9999,9999,9999,194486332
16,3,4,T1_SMS_5,61,9999,9999,9999,194987128
16,3,4,T1_SMS_5,62,9999,9999,9999,195486808
16,3,4,T1_SMS_5,63,9999,9999,9999,195986552
16,3,4,T1_SMS_5,64,9999,9999,9999,196486232
16,3,4,T1_SMS_5,65,9999,9999,9999,196986952
16,3,4,T1_SMS_5,66,9999,9999,9999,197486676
16,3,4,T1_SMS_5,67,9999,9999,9999,197986404
16,3,4,T1_SMS_5,68,9999,9999,9999,198486080
16,3,4,T1_SMS_5,69,9999,9999,9999,198986800
16,3,4,T1_SMS_5,70,9999,9999,9999,199486560
16,3,4,T1_SMS_5,71,9999,9999,9999,199986236
16,3,4,T1_SMS_5,72,9999,9999,9999,200487024
16,3,4,T1_SMS_5,73,9999,9999,9999,200986700
16,3,4,T1_SMS_5,74,9999,9999,9999,201486452
16,3,4,T1_SMS_5,75,9999,9999,9999,201986132
16,3,4,T1_SMS_5,76,9999,9999,9999,202486860
16,3,4,T1_SMS_5,77,9999,9999,9999,202986608
16,3,4,T1_SMS_5,78,9999,9999,9999,203486280
16,3,4,T1_SMS_5,79,9999,9999,9999,203987008
16,3,4,T1_SMS_5,80,9999,9999,9999,204486752
16,3,4,T1_SMS_5,81,9999,9999,9999,204986436
16,3,4,T1_SMS_5,82,9999,9999,9999,205486184
16,3,4,T1_SMS_5,83,9999,9999,9999,205986904
16,3,4,T1_SMS_5,84,9999,9999,9999,206486580
16,3,4,T1_SMS_5,85,9999,9999,9999,206986332
16,3,4,T1_SMS_5,86,9999,9999,9999,207487052
16,3,4,T1_SMS_5,87,9999,9999,9999,207986808
16,3,4,T1_SMS_5,88,9999,9999,9999,208486460
16,3,4,T1_SMS_5,89,9999,9999,9999,208986204
16,3,4,T1_SMS_5,90,9999,9999,9999,209486928
16,3,4,T1_SMS_5,91,9999,9999,9999,209986612
16,3,4,T1_SMS_5,92,9999,9999,9999,210486352
16,3,4,T1_SMS_5,93,9999,9999,9999,210987080
16,3,4,T1_SMS_5,94,9999,9999,9999,211486832
16,3,4,T1_SMS_5,95,9999,9999,9999,211986508
16,3,4,T1_SMS_5,96,9999,9999,9999,212486252
16,3,4,T1_SMS_5,97,9999,9999,9999,212986980
16,3,4,T1_SMS_5,98,9999,9999,9999,213486656
16,3,4,T1_SMS_5,99,9999,9999,9999,213986408
16,3,4,T1_SMS_5,100,9999,9999,9999,214486084
16,3,4,T1_SMS_5,101,9999,9999,9999,214986808
16,3,4,T1_SMS_5,102,9999,9999,9999,215486556
16,3,4,T1_SMS_5,103,9999,9999,9999,215986232
16,3,4,T1_SMS_5,104,9999,9999,9999,216487024
16,3,4,T1_SMS_5,105,9999,9999,9999,216986700
16,3,4,T1_SMS_5,106,9999,9999,9999,217486452
16,3,4,T1_SMS_5,107,9999,9999,9999,217986128
16,3,4,T1_SMS_5,108,9999,9999,9999,218486848
16,3,4,T1_SMS_5,109,9999,9999,9999,218986576
16,3,4,T1_SMS_5,110,9999,9999,9999,219486324
16,3,4,T1_SMS_5,111,9999,9999,9999,219987048
16,3,4,T1_SMS_5,112,9999,9999,9999,220486724
16,3,4,T1_SMS_5,113,9999,9999,9999,220986476
16,3,4,T1_SMS_5,114,9999,9999,9999,221486152
16,3,4,T1_SMS_5,115,9999,9999,9999,221986872
16,3,4,T1_SMS_5,116,9999,9999,9999,222486628
16,3,4,T1_SMS_5,117,9999,9999,9999,222986308
16,3,4,T1_SMS_5,118,9999,9999,9999,223487028
16,3,4,T1_SMS_5,119,9999,9999,9999,223986776
16,3,4,T1_SMS_5,120,9999,9999,9999,224486452
16,3,4,T1_SMS_5,121,9999,9999,9999,224986200
16,3,4,T1_SMS_5,122,9999,9999,9999,225486928
16,3,4,T1_SMS_5,123,9999,9999,9999,225986680
16,3,4,T1_SMS_5,124,9999,9999,9999,226486352
16,3,4,T1_SMS_5,125,9999,9999,9999,226987080
16,3,4,T1_SMS_5,126,9999,9999,9999,227486828
16,3,4,T1_SMS_5,127,9999,9999,9999,227986504
16,3,4,T1_SMS_5,128,9999,9999,9999,228486256
16,3,4,T1_SMS_5,129,9999,9999,9999,228986976
16,4,2,T1_SMS_8,0,5,42,127,289987968
16,4,2,T1_SMS_8,1,1,48,18,290620468
16,4,2,T1_SMS_8,2,5,42,127,290787548
16,4,2,T1_SMS_8,3,1,48,30,290993120
16,4,2,T1_SMS_8,4,1,48,29,291563796
16,4,2,T1_SMS_8,5,5,42,127,291587352
16,4,2,T1_SMS_8,6,1,48,28,292371816
16,4,2,T1_SMS_8,7,5,42,127,292388128
16,4,2,T1_SMS_8,8,1,48,36,293151912
16,4,2,T1_SMS_8,9,5,42,127,293188160
16,4,2,T1_SMS_8,10,1,48,35,293930140
16,4,2,T1_SMS_8,11,5,42,127,293987596
16,4,2,T1_SMS_8,12,1,48,28,294761380
16,4,2,T1_SMS_8,13,5,42,127,294787552
16,4,2,T1_SMS_8,14,1,48,32,295538492
16,4,2,T1_SMS_8,15,5,42,127,295588108
16,4,2,T1_SMS_8,16,1,48,28,296373544
16,4,2,T1_SMS_8,17,5,42,127,296388216
16,4,2,T1_SMS_8,18,1,48,34,297154836
16,4,2,T1_SMS_8,19,5,42,127,297187800
16,4,2,T1_SMS_8,20,1,48,34,297964496
16,4,2,T1_SMS_8,21,5,42,127,297987388
16,4,2,T1_SMS_8,22,1,48,31,298776852
16,4,2,T1_SMS_8,23,5,42,127,298788164
16,4,2,T1_SMS_8,24,1,48,27,299546196
16,4,2,T1_SMS_8,25,5,42,127,299587900
16,4,2,T1_SMS_8,26,1,48,31,300309264
16,4,2,T1_SMS_8,27,5,42,127,300387856
16,4,2,T1_SMS_8,28,1,48,20,301158956
16,4,2,T1_SMS_8,29,5,42,127,301187392
16,4,2,T1_SMS_8,30,1,48,29,301954008
16,4,2,T1_SMS_8,31,5,42,127,301988096
16,4,2,T1_SMS_8,32,1,48,25,302786540
16,4,2,T1_SMS_8,33,5,42,127,302788052
16,4,2,T1_SMS_8,34,1,48,26,303573932
16,4,2,T1_SMS_8,35,5,42,127,303587936
16,4,2,T1_SMS_8,36,1,48,26,304351420
16,4,2,T1_SMS_8,37,5,42,127,304387516
16,4,2,T1_SMS_8,38,1,48,23,305146592
16,4,2,T1_SMS_8,39,5,42,127,305188296
16,4,2,T1_SMS_8,40,1,48,23,305939756
16,4,2,T1_SMS_8,41,5,42,127,305987880
16,4,2,T1_SMS_8,42,1,48,25,306723284
16,4,2,T1_SMS_8,43,5,42,127,306787764
16,4,2,T1_SMS_8,44,1,48,24,307562696
16,4,2,T1_SMS_8,45,5,42,127,307587448
16,4,2,T1_SMS_8,46,5,42,127,308388156
16,4,2,T1_SMS_8,47,1,48,24,309122384
16,4,2,T1_SMS_8,48,5,42,127,309187904
16,4,2,T1_SMS_8,49,1,48,26,309959596
16,4,2,T1_SMS_8,50,5,42,127,309987640
16,4,2,T1_SMS_8,51,1,48,23,310763364
16,4,2,T1_SMS_8,52,5,42,127,310787520
16,4,2,T1_SMS_8,53,1,48,21,311577208
16,4,2,T1_SMS_8,54,5,42,127,311588448
16,4,2,T1_SMS_8,55,1,48,19,312368880
16,4,2,T1_SMS_8,56,5,42,127,312388032
16,4,2,T1_SMS_8,57,1,48,24,313146060
16,4,2,T1_SMS_8,58,5,42,127,313187616
16,4,2,T1_SMS_8,59,5,42,127,313987380
16,4,2,T1_SMS_8,60,1,48,13,313989088
16,4,2,T1_SMS_8,61,1,48,25,314775416
16,4,2,T1_SMS_8,62,5,42,127,314788372
16,4,2,T1_SMS_8,63,1,48,28,315588260
16,4,2,T1_SMS_8,64,5,42,127,315589596
16,4,2,T1_SMS_8,65,1,48,28,316379368
16,4,2,T1_SMS_8,66,5,42,127,316387764
16,4,2,T1_SMS_8,67,1,48,28,317159984
16,4,2,T1_SMS_8,68,5,42,127,317187352
16,4,2,T1_SMS_8,69,5,42,127,317988060
16,4,2,T1_SMS_8,70,1,48,24,317990724
16,4,2,T1_SMS_8,71,1,48,28,318766392
16,4,2,T1_SMS_8,72,5,42,127,318788084
16,4,2,T1_SMS_8,73,1,48,25,319511168
16,4,2,T1_SMS_8,74,5,42,127,319587740
16,4,2,T1_SMS_8,75,1,48,29,320373876
16,4,2,T1_SMS_8,76,5,42,127,320387424
16,4,2,T1_SMS_8,77,1,48,25,321164868
16,4,2,T1_SMS_8,78,5,42,127,321188128
16,4,2,T1_SMS_8,79,1,48,26,321956608
16,4,2,T1_SMS_8,80,5,42,127,321988084
16,4,2,T1_SMS_8,81,1,48,25,322784276
16,4,2,T1_SMS_8,82,5,42,127,322787816
16,4,2,T1_SMS_8,83,5,42,127,323587336
16,4,2,T1_SMS_8,84,1,48,25,323589268
16,4,2,T1_SMS_8,85,1,48,25,324381348
16,4,2,T1_SMS_8,86,5,42,127,324388180
16,4,2,T1_SMS_8,87,5,42,127,325188068
16,4,2,T1_SMS_8,88,1,48,25,325208952
16,4,2,T1_SMS_8,89,1,48,21,325981636
16,4,2,T1_SMS_8,90,5,42,127,325987796
16,4,2,T1_SMS_8,91,1,48,24,326724540
16,4,2,T1_SMS_8,92,5,42,127,326787700
16,4,2,T1_SMS_8,93,5,42,127,327588188
16,4,2,T1_SMS_8,94,1,48,23,327605788
16,4,2,T1_SMS_8,95,1,48,26,328387240
16,4,2,T1_SMS_8,96,5,42,127,328389108
16,4,2,T1_SMS_8,97,1,48,25,329184700
16,4,2,T1_SMS_8,98,5,42,127,329187724
16,4,2,T1_SMS_8,99,1,48,25,329926040
16,4,2,T1_SMS_8,100,5,42,127,329987456
16,4,2,T1_SMS_8,101,1,48,25,330745936
16,4,2,T1_SMS_8,102,5,42,127,330788160
16,4,2,T1_SMS_8,103,1,48,19,331583752
16,4,2,T1_SMS_8,104,5,42,127,331587968
16,4,2,T1_SMS_8,105,1,48,31,332374816
16,4,2,T1_SMS_8,106,5,42,127,332387772
16,4,2,T1_SMS_8,107,1,48,31,333162404
16,4,2,T1_SMS_8,108,5,42,127,333187532
16,4,2,T1_SMS_8,109,1,48,21,333986800
16,4,2,T1_SMS_8,110,5,42,127,333988608
16,4,2,T1_SMS_8,111,1,48,30,334783152
16,4,2,T1_SMS_8,112,5,42,127,334787892
16,4,2,T1_SMS_8,113,1,48,34,335561232
16,4,2,T1_SMS_8,114,5,42,127,335587552
16,4,2,T1_SMS_8,115,1,48,24,336384932
16,4,2,T1_SMS_8,116,5,42,127,336387508
16,4,2,T1_SMS_8,117,5,42,127,337188368
16,4,2,T1_SMS_8,118,1,48,30,337201636
16,4,2,T1_SMS_8,119,1,48,28,337958340
16,4,2,T1_SMS_8,120,5,42,127,337987800
16,4,2,T1_SMS_8,121,1,48,28,338696768
16,4,2,T1_SMS_8,122,5,42,127,338787828
16,4,2,T1_SMS_8,123,5,42,127,339587372
16,4,2,T1_SMS_8,124,5,42,127,340388392
16,4,2,T1_SMS_8,125,1,48,15,340415624
16,4,2,T1_SMS_8,126,1,48,30,341119612
16,4,2,T1_SMS_8,127,5,42,127,341187896
16,4,2,T1_SMS_8,128,1,48,30,341975420
16,4,2,T1_SMS_8,129,5,42,127,341987704
16,4,2,T1_SMS_8,130,5,42,127,342787368
16,4,2,T1_SMS_8,131,1,48,29,342797352
16,4,2,T1_SMS_8,132,1,48,31,343553680
16,4,2,T1_SMS_8,133,5,42,127,343588212
16,4,2,T1_SMS_8,134,1,48,29,344364168
16,4,2,T1_SMS_8,135,5,42,127,344388092
16,4,2,T1_SMS_8,136,1,48,31,345134772
16,4,2,T1_SMS_8,137,5,42,127,345187976
16,4,2,T1_SMS_8,138,1,48,26,345953968
16,4,2,T1_SMS_8,139,5,42,127,345987560
16,4,2,T1_SMS_8,140,1,48,28,346747752
16,4,2,T1_SMS_8,141,5,42,127,346788188
16,4,2,T1_SMS_8,142,5,42,127,347588076
16,4,2,T1_SMS_8,143,1,48,28,347594324
16,4,2,T1_SMS_8,144,1,48,34,348360584
16,4,2,T1_SMS_8,145,5,42,127,348387800
16,4,2,T1_SMS_8,146,1,48,27,349181304
16,4,2,T1_SMS_8,147,5,42,127,349187536
16,4,2,T1_SMS_8,148,1,48,34,349955272
16,4,2,T1_SMS_8,149,5,42,127,349988240
16,4,2,T1_SMS_8,150,1,48,31,350762324
16,4,2,T1_SMS_8,151,5,42,127,350788044
16,4,2,T1_SMS_8,152,1,48,29,351569976
16,4,2,T1_SMS_8,153,5,42,127,351587704
16,4,2,T1_SMS_8,154,1,48,32,352350056
16,4,2,T1_SMS_8,155,5,42,127,352387304
16,4,2,T1_SMS_8,156,1,48,28,353160420
16,4,2,T1_SMS_8,157,5,42,127,353188156
16,4,2,T1_SMS_8,158,5,42,127,353987824
16,4,2,T1_SMS_8,159,1,48,18,353996236
16,4,2,T1_SMS_8,160,1,48,31,354739196
16,4,2,T1_SMS_8,161,5,42,127,354787624
16,4,2,T1_SMS_8,162,1,48,28,355545872
16,4,2,T1_SMS_8,163,5,42,127,355587504
16,4,2,T1_SMS_8,164,1,48,32,356357184
16,4,2,T1_SMS_8,165,5,42,127,356388132
16,4,2,T1_SMS_8,166,5,42,127,357187948
16,4,2,T1_SMS_8,167,1,48,32,357209800
16,4,2,T1_SMS_8,168,1,48,27,357966952
16,4,2,T1_SMS_8,169,5,42,127,357987672
16,4,2,T1_SMS_8,170,1,48,24,358762904
16,4,2,T1_SMS_8,171,5,42,127,358787428
16,4,2,T1_SMS_8,172,1,48,21,359587612
16,4,2,T1_SMS_8,173,5,42,127,359589476
16,4,2,T1_SMS_8,174,1,48,27,360333472
16,4,2,T1_SMS_8,175,5,42,127,360388016
16,4,2,T1_SMS_8,176,1,48,29,361176436
16,4,2,T1_SMS_8,177,5,42,127,361187748
16,4,2,T1_SMS_8,178,5,42,127,361987416
16,4,2,T1_SMS_8,179,1,48,30,361998216
16,4,2,T1_SMS_8,180,1,48,32,362769180
16,4,2,T1_SMS_8,181,5,42,127,362788332
16,4,2,T1_SMS_8,182,1,48,35,363573992
16,4,2,T1_SMS_8,183,5,42,127,363588140
16,4,2,T1_SMS_8,184,1,48,30,364384628
16,4,2,T1_SMS_8,185,5,42,127,364387872
16,4,2,T1_SMS_8,186,5,42,127,365187392
16,4,2,T1_SMS_8,187,1,48,19,365210668
16,4,2,T1_SMS_8,188,1,48,32,365961248
16,4,2,T1_SMS_8,189,5,42,127,365988312
16,4,2,T1_SMS_8,190,1,48,34,366762768
16,4,2,T1_SMS_8,191,5,42,127,366787896
16,4,2,T1_SMS_8,192,1,48,27,367585200
16,4,2,T1_SMS_8,193,5,42,127,367587704
16,4,2,T1_SMS_8,194,5,42,127,368387444
16,4,2,T1_SMS_8,195,1,48,27,368406008
16,4,2,T1_SMS_8,196,1,48,26,369163088
16,4,2,T1_SMS_8,197,5,42,127,369188288
16,4,2,T1_SMS_8,198,1,48,30,369957440
16,4,2,T1_SMS_8,199,5,42,127,369987948
16,4,2,T1_SMS_8,200,1,48,17,370768232
16,4,2,T1_SMS_8,201,5,42,127,370788292
16,4,2,T1_SMS_8,202,1,48,29,371541004
16,4,2,T1_SMS_8,203,5,42,127,371587356
16,4,2,T1_SMS_8,204,1,48,29,372356512
16,4,2,T1_SMS_8,205,5,42,127,372388060
16,4,2,T1_SMS_8,206,1,48,29,373138996
16,4,2,T1_SMS_8,207,5,42,127,373188088
16,4,2,T1_SMS_8,208,1,48,25,373963220
16,4,2,T1_SMS_8,209,5,42,127,373987824
16,4,2,T1_SMS_8,210,1,48,30,374741076
16,4,2,T1_SMS_8,211,5,42,127,374787408
16,4,2,T1_SMS_8,212,1,48,32,375546480
16,4,2,T1_SMS_8,213,5,42,127,375588108
16,4,2,T1_SMS_8,214,1,48,28,376385264
16,4,2,T1_SMS_8,215,5,42,127,376387916
16,4,2,T1_SMS_8,216,1,48,29,377123920
16,4,2,T1_SMS_8,217,5,42,127,377187824
16,4,2,T1_SMS_8,218,1,48,23,377980204
16,4,2,T1_SMS_8,219,5,42,127,377987704
16,4,2,T1_SMS_8,220,1,48,28,378768140
16,4,2,T1_SMS_8,221,5,42,127,378788112
16,4,2,T1_SMS_8,222,1,48,26,379569668
16,4,2,T1_SMS_8,223,5,42,127,379587924
16,4,2,T1_SMS_8,224,5,42,127,380387736
16,4,2,T1_SMS_8,225,1,48,30,381148772
16,4,2,T1_SMS_8,226,5,42,127,381187632
16,4,2,T1_SMS_8,227,1,48,28,381938272
16,4,2,T1_SMS_8,228,5,42,127,381988336
16,4,2,T1_SMS_8,229,1,48,28,382772728
16,4,2,T1_SMS_8,230,5,42,127,382788068
16,4,2,T1_SMS_8,231,1,48,28,383542892
16,4,2,T1_SMS_8,232,5,42,127,383587604
16,4,2,T1_SMS_8,233,1,48,25,384381476
16,4,2,T1_SMS_8,234,5,42,127,384387336
16,4,2,T1_SMS_8,235,1,48,23,385165228
16,4,2,T1_SMS_8,236,5,42,127,385188412
16,4,2,T1_SMS_8,237,1,48,24,385984376
16,4,2,T1_SMS_8,0,9999,9999,9999,289985604
16,4,2,T1_SMS_8,1,9999,9999,9999,290785336
16,4,2,T1_SMS_8,2,9999,9999,9999,291585136
16,4,2,T1_SMS_8,3,9999,9999,9999,292385840
16,4,2,T1_SMS_8,4,9999,9999,9999,293185648
16,4,2,T1_SMS_8,5,9999,9999,9999,293985384
16,4,2,T1_SMS_8,6,9999,9999,9999,294785116
16,4,2,T1_SMS_8,7,9999,9999,9999,295585896
16,4,2,T1_SMS_8,8,9999,9999,9999,296385628
16,4,2,T1_SMS_8,9,9999,9999,9999,297185364
16,4,2,T1_SMS_8,10,9999,9999,9999,297985096
16,4,2,T1_SMS_8,11,9999,9999,9999,298785876
16,4,2,T1_SMS_8,12,9999,9999,9999,299585612
16,4,2,T1_SMS_8,13,9999,9999,9999,300385344
16,4,2,T1_SMS_8,14,9999,9999,9999,301185104
16,4,2,T1_SMS_8,15,9999,9999,9999,301985880
16,4,2,T1_SMS_8,16,9999,9999,9999,302785620
16,4,2,T1_SMS_8,17,9999,9999,9999,303585348
16,4,2,T1_SMS_8,18,9999,9999,9999,304385080
16,4,2,T1_SMS_8,19,9999,9999,9999,305185860
16,4,2,T1_SMS_8,20,9999,9999,9999,305985592
16,4,2,T1_SMS_8,21,9999,9999,9999,306785324
16,4,2,T1_SMS_8,22,9999,9999,9999,307585084
16,4,2,T1_SMS_8,23,9999,9999,9999,308385868
16,4,2,T1_SMS_8,24,9999,9999,9999,309185616
16,4,2,T1_SMS_8,25,9999,9999,9999,309985348
16,4,2,T1_SMS_8,26,9999,9999,9999,310785084
16,4,2,T1_SMS_8,27,9999,9999,9999,311585860
16,4,2,T1_SMS_8,28,9999,9999,9999,312385596
16,4,2,T1_SMS_8,29,9999,9999,9999,313185328
16,4,2,T1_SMS_8,30,9999,9999,9999,313985092
16,4,2,T1_SMS_8,31,9999,9999,9999,314785864
16,4,2,T1_SMS_8,32,9999,9999,9999,315585600
16,4,2,T1_SMS_8,33,9999,9999,9999,316385328
16,4,2,T1_SMS_8,34,9999,9999,9999,317185136
16,4,2,T1_SMS_8,35,9999,9999,9999,317985844
16,4,2,T1_SMS_8,36,9999,9999,9999,318785648
16,4,2,T1_SMS_8,37,9999,9999,9999,319585380
16,4,2,T1_SMS_8,38,9999,9999,9999,320385136
16,4,2,T1_SMS_8,39,9999,9999,9999,321185840
16,4,2,T1_SMS_8,40,9999,9999,9999,321985648
16,4,2,T1_SMS_8,41,9999,9999,9999,322785380
16,4,2,T1_SMS_8,42,9999,9999,9999,323585120
16,4,2,T1_SMS_8,43,9999,9999,9999,324385892
16,4,2,T1_SMS_8,44,9999,9999,9999,325185632
16,4,2,T1_SMS_8,45,9999,9999,9999,325985356
16,4,2,T1_SMS_8,46,9999,9999,9999,326785116
16,4,2,T1_SMS_8,47,9999,9999,9999,327585900
16,4,2,T1_SMS_8,48,9999,9999,9999,328385632
16,4,2,T1_SMS_8,49,9999,9999,9999,329185360
16,4,2,T1_SMS_8,50,9999,9999,9999,329985092
16,4,2,T1_SMS_8,51,9999,9999,9999,330785872
16,4,2,T1_SMS_8,52,9999,9999,9999,331585604
16,4,2,T1_SMS_8,53,9999,9999,9999,332385336
16,4,2,T1_SMS_8,54,9999,9999,9999,333185096
16,4,2,T1_SMS_8,55,9999,9999,9999,333985880
16,4,2,T1_SMS_8,56,9999,9999,9999,334785604
16,4,2,T1_SMS_8,57,9999,9999,9999,335585340
16,4,2,T1_SMS_8,58,9999,9999,9999,336385072
16,4,2,T1_SMS_8,59,9999,9999,9999,337185856
16,4,2,T1_SMS_8,60,9999,9999,9999,337985584
16,4,2,T1_SMS_8,61,9999,9999,9999,338785392
16,4,2,T1_SMS_8,62,9999,9999,9999,339585084
16,4,2,T1_SMS_8,63,9999,9999,9999,340385880
16,4,2,T1_SMS_8,64,9999,9999,9999,341185608
16,4,2,T1_SMS_8,65,9999,9999,9999,341985340
16,4,2,T1_SMS_8,66,9999,9999,9999,342785080
16,4,2,T1_SMS_8,67,9999,9999,9999,343585852
16,4,2,T1_SMS_8,68,9999,9999,9999,344385584
16,4,2,T1_SMS_8,69,9999,9999,9999,345185392
16,4,2,T1_SMS_8,70,9999,9999,9999,345985120
16,4,2,T1_SMS_8,71,9999,9999,9999,346785900
16,4,2,T1_SMS_8,72,9999,9999,9999,347585640
16,4,2,T1_SMS_8,73,9999,9999,9999,348385364
16,4,2,T1_SMS_8,74,9999,9999,9999,349185100
16,4,2,T1_SMS_8,75,9999,9999,9999,349985876
16,4,2,T1_SMS_8,76,9999,9999,9999,350785608
16,4,2,T1_SMS_8,77,9999,9999,9999,351585344
16,4,2,T1_SMS_8,78,9999,9999,9999,352385092
16,4,2,T1_SMS_8,79,9999,9999,9999,353185868
16,4,2,T1_SMS_8,80,9999,9999,9999,353985608
16,4,2,T1_SMS_8,81,9999,9999,9999,354785336
16,4,2,T1_SMS_8,82,9999,9999,9999,355585144
16,4,2,T1_SMS_8,83,9999,9999,9999,356385844
16,4,2,T1_SMS_8,84,9999,9999,9999,357185584
16,4,2,T1_SMS_8,85,9999,9999,9999,357985384
16,4,2,T1_SMS_8,86,9999,9999,9999,358785140
16,4,2,T1_SMS_8,87,9999,9999,9999,359585852
16,4,2,T1_SMS_8,88,9999,9999,9999,360385652
16,4,2,T1_SMS_8,89,9999,9999,9999,361185388
16,4,2,T1_SMS_8,90,9999,9999,9999,361985124
16,4,2,T1_SMS_8,91,9999,9999,9999,362785896
16,4,2,T1_SMS_8,92,9999,9999,9999,363585632
16,4,2,T1_SMS_8,93,9999,9999,9999,364385364
16,4,2,T1_SMS_8,94,9999,9999,9999,365185104
16,4,2,T1_SMS_8,95,9999,9999,9999,365985872
16,4,2,T1_SMS_8,96,9999,9999,9999,366785608
16,4,2,T1_SMS_8,97,9999,9999,9999,367585340
16,4,2,T1_SMS_8,98,9999,9999,9999,368385080
16,4,2,T1_SMS_8,99,9999,9999,9999,369185852
16,4,2,T1_SMS_8,100,9999,9999,9999,369985584
16,4,2,T1_SMS_8,101,9999,9999,9999,370785392
16,4,2,T1_SMS_8,102,9999,9999,9999,371585144
16,4,2,T1_SMS_8,103,9999,9999,9999,372385844
16,4,2,T1_SMS_8,104,9999,9999,9999,373185652
16,4,2,T1_SMS_8,105,9999,9999,9999,373985384
16,4,2,T1_SMS_8,106,9999,9999,9999,374785120
16,4,2,T1_SMS_8,107,9999,9999,9999,375585896
16,4,2,T1_SMS_8,108,9999,9999,9999,376385628
16,4,2,T1_SMS_8,109,9999,9999,9999,377185360
16,4,2,T1_SMS_8,110,9999,9999,9999,377985120
16,4,2,T1_SMS_8,111,9999,9999,9999,378785896
16,4,2,T1_SMS_8,112,9999,9999,9999,379585636
16,4,2,T1_SMS_8,113,9999,9999,9999,380385372
16,4,2,T1_SMS_8,114,9999,9999,9999,381185124
16,4,2,T1_SMS_8,115,9999,9999,9999,381985900
16,4,2,T1_SMS_8,116,9999,9999,9999,382785632
16,4,2,T1_SMS_8,117,9999,9999,9999,383585368
16,4,2,T1_SMS_8,118,9999,9999,9999,384385124
16,4,2,T1_SMS_8,119,9999,9999,9999,385185900
16,5,10,Ticks_ISO_T2_5,0,5,42,127,417149380
16,5,10,Ticks_ISO_T2_5,1,1,48,26,417537080
16,5,10,Ticks_ISO_T2_5,2,5,42,127,417648984
16,5,10,Ticks_ISO_T2_5,3,1,48,21,417868792
16,5,10,Ticks_ISO_T2_5,4,1,48,27,418113648
16,5,10,Ticks_ISO_T2_5,5,5,42,127,418148800
16,5,10,Ticks_ISO_T2_5,6,1,48,26,418633256
16,5,10,Ticks_ISO_T2_5,7,5,42,127,418648528
16,5,10,Ticks_ISO_T2_5,8,5,42,127,419149032
16,5,10,Ticks_ISO_T2_5,9,1,48,26,419151040
16,5,10,Ticks_ISO_T2_5,10,1,48,27,419624840
16,5,10,Ticks_ISO_T2_5,11,5,42,127,419649072
16,5,10,Ticks_ISO_T2_5,12,1,48,27,420113020
16,5,10,Ticks_ISO_T2_5,13,5,42,127,420148524
16,5,10,Ticks_ISO_T2_5,14,1,48,26,420636968
16,5,10,Ticks_ISO_T2_5,15,5,42,127,420649324
16,5,10,Ticks_ISO_T2_5,16,1,48,26,421125664
16,5,10,Ticks_ISO_T2_5,17,5,42,127,421149000
16,5,10,Ticks_ISO_T2_5,18,1,48,24,421625116
16,5,10,Ticks_ISO_T2_5,19,5,42,127,421648676
16,5,10,Ticks_ISO_T2_5,20,1,48,23,422141448
16,5,10,Ticks_ISO_T2_5,21,5,42,127,422148352
16,5,10,Ticks_ISO_T2_5,22,1,48,24,422641640
16,5,10,Ticks_ISO_T2_5,23,5,42,127,422649148
16,5,10,Ticks_ISO_T2_5,24,5,42,127,423148756
16,5,10,Ticks_ISO_T2_5,25,1,48,29,423150692
16,5,10,Ticks_ISO_T2_5,26,5,42,127,423648804
16,5,10,Ticks_ISO_T2_5,27,1,48,26,423672008
16,5,10,Ticks_ISO_T2_5,28,5,42,127,424149528
16,5,10,Ticks_ISO_T2_5,29,1,48,27,424624392
16,5,10,Ticks_ISO_T2_5,30,5,42,127,424649068
16,5,10,Ticks_ISO_T2_5,31,1,48,27,425119816
16,5,10,Ticks_ISO_T2_5,32,5,42,127,425148820
16,5,10,Ticks_ISO_T2_5,33,1,48,26,425643680
16,5,10,Ticks_ISO_T2_5,34,5,42,127,425648792
16,5,10,Ticks_ISO_T2_5,35,1,48,28,426144776
16,5,10,Ticks_ISO_T2_5,36,5,42,127,426149216
16,5,10,Ticks_ISO_T2_5,37,1,48,27,426627504
16,5,10,Ticks_ISO_T2_5,38,5,42,127,426648816
16,5,10,Ticks_ISO_T2_5,39,1,48,28,427126352
16,5,10,Ticks_ISO_T2_5,40,5,42,127,427148716
16,5,10,Ticks_ISO_T2_5,41,1,48,29,427619464
16,5,10,Ticks_ISO_T2_5,42,5,42,127,427649660
16,5,10,Ticks_ISO_T2_5,43,1,48,28,428134068
16,5,10,Ticks_ISO_T2_5,44,5,42,127,428149112
16,5,10,Ticks_ISO_T2_5,45,1,48,30,428631480
16,5,10,Ticks_ISO_T2_5,46,5,42,127,428648716
16,5,10,Ticks_ISO_T2_5,47,1,48,30,429118540
16,5,10,Ticks_ISO_T2_5,48,5,42,127,429148512
16,5,10,Ticks_ISO_T2_5,49,1,48,27,429611788
16,5,10,Ticks_ISO_T2_5,50,5,42,127,429649456
16,5,10,Ticks_ISO_T2_5,51,1,48,23,430146332
16,5,10,Ticks_ISO_T2_5,52,5,42,127,430148912
16,5,10,Ticks_ISO_T2_5,53,1,48,24,430646700
16,5,10,Ticks_ISO_T2_5,54,5,42,127,430648588
16,5,10,Ticks_ISO_T2_5,55,5,42,127,431149464
16,5,10,Ticks_ISO_T2_5,56,1,48,27,431157280
16,5,10,Ticks_ISO_T2_5,57,1,48,30,431642228
16,5,10,Ticks_ISO_T2_5,58,5,42,127,431649280
16,5,10,Ticks_ISO_T2_5,59,1,48,32,432147300
16,5,10,Ticks_ISO_T2_5,60,5,42,127,432149032
16,5,10,Ticks_ISO_T2_5,61,1,48,31,432624180
16,5,10,Ticks_ISO_T2_5,62,5,42,127,432648412
16,5,10,Ticks_ISO_T2_5,63,5,42,127,433149288
16,5,10,Ticks_ISO_T2_5,64,1,48,19,433155092
16,5,10,Ticks_ISO_T2_5,65,1,48,26,433629288
16,5,10,Ticks_ISO_T2_5,66,5,42,127,433649400
16,5,10,Ticks_ISO_T2_5,67,1,48,30,434135232
16,5,10,Ticks_ISO_T2_5,68,5,42,127,434148708
16,5,10,Ticks_ISO_T2_5,69,1,48,28,434642004
16,5,10,Ticks_ISO_T2_5,70,5,42,127,434648456
16,5,10,Ticks_ISO_T2_5,71,5,42,127,435149184
16,5,10,Ticks_ISO_T2_5,72,1,48,24,435154240
16,5,10,Ticks_ISO_T2_5,73,5,42,127,435649012
16,5,10,Ticks_ISO_T2_5,74,1,48,25,435651604
16,5,10,Ticks_ISO_T2_5,75,5,42,127,436148464
16,5,10,Ticks_ISO_T2_5,76,1,48,28,436155304
16,5,10,Ticks_ISO_T2_5,77,5,42,127,436649184
16,5,10,Ticks_ISO_T2_5,78,1,48,25,436663944
16,5,10,Ticks_ISO_T2_5,79,5,42,127,437149308
16,5,10,Ticks_ISO_T2_5,80,1,48,27,437179004
16,5,10,Ticks_ISO_T2_5,81,1,48,28,437640432
16,5,10,Ticks_ISO_T2_5,82,5,42,127,437648904
16,5,10,Ticks_ISO_T2_5,83,1,48,31,438120096
16,5,10,Ticks_ISO_T2_5,84,5,42,127,438148432
16,5,10,Ticks_ISO_T2_5,85,1,48,29,438632544
16,5,10,Ticks_ISO_T2_5,86,5,42,127,438649152
16,5,10,Ticks_ISO_T2_5,87,1,48,29,439124944
16,5,10,Ticks_ISO_T2_5,88,5,42,127,439148976
16,5,10,Ticks_ISO_T2_5,89,1,48,29,439640308
16,5,10,Ticks_ISO_T2_5,90,5,42,127,439648952
16,5,10,Ticks_ISO_T2_5,91,1,48,28,440112352
16,5,10,Ticks_ISO_T2_5,92,5,42,127,440149348
16,5,10,Ticks_ISO_T2_5,93,1,48,27,440635996
16,5,10,Ticks_ISO_T2_5,94,5,42,127,440648952
16,5,10,Ticks_ISO_T2_5,95,1,48,20,441144184
16,5,10,Ticks_ISO_T2_5,96,5,42,127,441149000
16,5,10,Ticks_ISO_T2_5,97,1,48,30,441617880
16,5,10,Ticks_ISO_T2_5,98,5,42,127,441648456
16,5,10,Ticks_ISO_T2_5,99,5,42,127,442149108
16,5,10,Ticks_ISO_T2_5,100,1,48,32,442169024
16,5,10,Ticks_ISO_T2_5,101,5,42,127,442648936
16,5,10,Ticks_ISO_T2_5,102,1,48,27,442662424
16,5,10,Ticks_ISO_T2_5,103,1,48,29,443147332
16,5,10,Ticks_ISO_T2_5,104,5,42,127,443149052
16,5,10,Ticks_ISO_T2_5,105,1,48,29,443633760
16,5,10,Ticks_ISO_T2_5,106,5,42,127,443649400
16,5,10,Ticks_ISO_T2_5,107,5,42,127,444149008
16,5,10,Ticks_ISO_T2_5,108,1,48,24,444166384
16,5,10,Ticks_ISO_T2_5,109,1,48,27,444639536
16,5,10,Ticks_ISO_T2_5,110,5,42,127,444648976
16,5,10,Ticks_ISO_T2_5,111,1,48,27,445119576
16,5,10,Ticks_ISO_T2_5,112,5,42,127,445148652
16,5,10,Ticks_ISO_T2_5,113,1,48,27,445647716
16,5,10,Ticks_ISO_T2_5,114,5,42,127,445649596
16,5,10,Ticks_ISO_T2_5,115,5,42,127,446148908
16,5,10,Ticks_ISO_T2_5,116,1,48,27,446154632
16,5,10,Ticks_ISO_T2_5,117,1,48,25,446623600
16,5,10,Ticks_ISO_T2_5,118,5,42,127,446648800
16,5,10,Ticks_ISO_T2_5,119,1,48,29,447138216
16,5,10,Ticks_ISO_T2_5,120,5,42,127,447149596
16,5,10,Ticks_ISO_T2_5,121,5,42,127,447649056
16,5,10,Ticks_ISO_T2_5,122,1,48,24,447660832
16,5,10,Ticks_ISO_T2_5,123,5,42,127,448148880
16,5,10,Ticks_ISO_T2_5,124,1,48,23,448171408
16,5,10,Ticks_ISO_T2_5,125,5,42,127,448648484
16,5,10,Ticks_ISO_T2_5,126,1,48,29,448649448
16,5,10,Ticks_ISO_T2_5,127,1,48,29,449142068
16,5,10,Ticks_ISO_T2_5,128,5,42,127,449149492
16,5,10,Ticks_ISO_T2_5,129,1,48,28,449649252
16,5,10,Ticks_ISO_T2_5,130,5,42,127,449650816
16,5,10,Ticks_ISO_T2_5,131,1,48,29,450148928
16,5,10,Ticks_ISO_T2_5,132,5,42,127,450150492
16,5,10,Ticks_ISO_T2_5,133,5,42,127,450648656
16,5,10,Ticks_ISO_T2_5,134,1,48,26,450665908
16,5,10,Ticks_ISO_T2_5,135,1,48,31,451145976
16,5,10,Ticks_ISO_T2_5,136,5,42,127,451149148
16,5,10,Ticks_ISO_T2_5,137,1,48,29,451635796
16,5,10,Ticks_ISO_T2_5,138,5,42,127,451648752
16,5,10,Ticks_ISO_T2_5,139,5,42,127,452148584
16,5,10,Ticks_ISO_T2_5,140,1,48,24,452175808
16,5,10,Ticks_ISO_T2_5,141,5,42,127,452649524
16,5,10,Ticks_ISO_T2_5,142,1,48,28,452661676
16,5,10,Ticks_ISO_T2_5,143,1,48,29,453118692
16,5,10,Ticks_ISO_T2_5,144,5,42,127,453148896
16,5,10,Ticks_ISO_T2_5,145,5,42,127,453648804
16,5,10,Ticks_ISO_T2_5,146,1,48,28,453653108
16,5,10,Ticks_ISO_T2_5,147,5,42,127,454148480
16,5,10,Ticks_ISO_T2_5,148,1,48,27,454160628
16,5,10,Ticks_ISO_T2_5,149,5,42,127,454649276
16,5,10,Ticks_ISO_T2_5,150,1,48,29,455130860
16,5,10,Ticks_ISO_T2_5,151,5,42,127,455149040
16,5,10,Ticks_ISO_T2_5,152,1,48,30,455634272
16,5,10,Ticks_ISO_T2_5,153,5,42,127,455648644
16,5,10,Ticks_ISO_T2_5,154,1,48,27,456148844
16,5,10,Ticks_ISO_T2_5,155,5,42,127,456150632
16,5,10,Ticks_ISO_T2_5,156,1,48,21,456612044
16,5,10,Ticks_ISO_T2_5,157,5,42,127,456649264
16,5,10,Ticks_ISO_T2_5,158,1,48,29,457130908
16,5,10,Ticks_ISO_T2_5,159,5,42,127,457148716
16,5,10,Ticks_ISO_T2_5,160,5,42,127,457648624
16,5,10,Ticks_ISO_T2_5,161,1,48,30,457681232
16,5,10,Ticks_ISO_T2_5,162,5,42,127,458149196
16,5,10,Ticks_ISO_T2_5,163,1,48,27,458161568
16,5,10,Ticks_ISO_T2_5,164,1,48,27,458634788
16,5,10,Ticks_ISO_T2_5,165,5,42,127,458648864
16,5,10,Ticks_ISO_T2_5,166,5,42,127,459148548
16,5,10,Ticks_ISO_T2_5,167,1,48,29,459153076
16,5,10,Ticks_ISO_T2_5,168,5,42,127,459649344
16,5,10,Ticks_ISO_T2_5,169,1,48,29,459665072
16,5,10,Ticks_ISO_T2_5,170,5,42,127,460149020
16,5,10,Ticks_ISO_T2_5,171,1,48,28,460155712
16,5,10,Ticks_ISO_T2_5,172,5,42,127,460648920
16,5,10,Ticks_ISO_T2_5,173,1,48,31,460659644
16,5,10,Ticks_ISO_T2_5,174,5,42,127,461148568
16,5,10,Ticks_ISO_T2_5,175,1,48,25,461158628
16,5,10,Ticks_ISO_T2_5,176,5,42,127,461649264
16,5,10,Ticks_ISO_T2_5,177,1,48,27,461663308
16,5,10,Ticks_ISO_T2_5,178,1,48,27,462146820
16,5,10,Ticks_ISO_T2_5,179,5,42,127,462149084
16,5,10,Ticks_ISO_T2_5,180,5,42,127,462648620
16,5,10,Ticks_ISO_T2_5,181,1,48,28,462670472
16,5,10,Ticks_ISO_T2_5,182,1,48,26,463142952
16,5,10,Ticks_ISO_T2_5,183,5,42,127,463149332
16,5,10,Ticks_ISO_T2_5,184,5,42,127,463649092
16,5,10,Ticks_ISO_T2_5,185,1,48,19,463672664
16,5,10,Ticks_ISO_T2_5,186,5,42,127,464148916
16,5,10,Ticks_ISO_T2_5,187,1,48,23,464171740
16,5,10,Ticks_ISO_T2_5,188,5,42,127,464648664
16,5,10,Ticks_ISO_T2_5,189,1,48,27,464649704
16,5,10,Ticks_ISO_T2_5,190,1,48,29,465139412
16,5,10,Ticks_ISO_T2_5,191,5,42,127,465149308
16,5,10,Ticks_ISO_T2_5,192,1,48,25,465640284
16,5,10,Ticks_ISO_T2_5,193,5,42,127,465649132
16,5,10,Ticks_ISO_T2_5,194,1,48,32,466128988
16,5,10,Ticks_ISO_T2_5,195,5,42,127,466148884
16,5,10,Ticks_ISO_T2_5,196,5,42,127,466648344
16,5,10,Ticks_ISO_T2_5,197,1,48,27,466662508
16,5,10,Ticks_ISO_T2_5,198,5,42,127,467149212
16,5,10,Ticks_ISO_T2_5,199,1,48,29,467163000
16,5,10,Ticks_ISO_T2_5,200,1,48,32,467646304
16,5,10,Ticks_ISO_T2_5,201,5,42,127,467648808
16,5,10,Ticks_ISO_T2_5,202,1,48,30,468121488
16,5,10,Ticks_ISO_T2_5,203,5,42,127,468148856
16,5,10,Ticks_ISO_T2_5,204,1,48,27,468608848
16,5,10,Ticks_ISO_T2_5,205,5,42,127,468649356
16,5,10,Ticks_ISO_T2_5,206,5,42,127,469148964
16,5,10,Ticks_ISO_T2_5,207,1,48,29,469156404
16,5,10,Ticks_ISO_T2_5,208,5,42,127,469648864
16,5,10,Ticks_ISO_T2_5,209,1,48,22,469675200
16,5,10,Ticks_ISO_T2_5,210,5,42,127,470148540
16,5,10,Ticks_ISO_T2_5,211,1,48,25,470155760
16,5,10,Ticks_ISO_T2_5,212,1,48,25,470639288
16,5,10,Ticks_ISO_T2_5,213,5,42,127,470649108
16,5,10,Ticks_ISO_T2_5,214,1,48,27,471139716
16,5,10,Ticks_ISO_T2_5,215,5,42,127,471148860
16,5,10,Ticks_ISO_T2_5,216,1,48,28,471647560
16,5,10,Ticks_ISO_T2_5,217,5,42,127,471649276
16,5,10,Ticks_ISO_T2_5,218,5,42,127,472149460
16,5,10,Ticks_ISO_T2_5,219,1,48,25,472166416
16,5,10,Ticks_ISO_T2_5,220,1,48,28,472612884
16,5,10,Ticks_ISO_T2_5,221,5,42,127,472649132
16,5,10,Ticks_ISO_T2_5,222,5,42,127,473148740
16,5,10,Ticks_ISO_T2_5,223,1,48,25,473163804
16,5,10,Ticks_ISO_T2_5,224,5,42,127,473648640
16,5,10,Ticks_ISO_T2_5,225,1,48,20,473657052
16,5,10,Ticks_ISO_T2_5,226,5,42,127,474149512
16,5,10,Ticks_ISO_T2_5,227,1,48,27,474155612
16,5,10,Ticks_ISO_T2_5,228,5,42,127,474648816
16,5,10,Ticks_ISO_T2_5,229,1,48,27,474656552
16,5,10,Ticks_ISO_T2_5,230,1,48,27,475140384
16,5,10,Ticks_ISO_T2_5,231,5,42,127,475148780
16,5,10,Ticks_ISO_T2_5,232,5,42,127,475649360
16,5,10,Ticks_ISO_T2_5,233,1,48,27,475658600
16,5,10,Ticks_ISO_T2_5,234,5,42,127,476149408
16,5,10,Ticks_ISO_T2_5,235,1,48,31,476162308
16,5,10,Ticks_ISO_T2_5,236,1,48,27,476640756
16,5,10,Ticks_ISO_T2_5,237,5,42,127,476648708
16,5,10,Ticks_ISO_T2_5,238,1,48,25,477133780
16,5,10,Ticks_ISO_T2_5,239,5,42,127,477148384
16,5,10,Ticks_ISO_T2_5,240,1,48,29,477621888
16,5,10,Ticks_ISO_T2_5,241,5,42,127,477649476
16,5,10,Ticks_ISO_T2_5,242,1,48,24,478117160
16,5,10,Ticks_ISO_T2_5,243,5,42,127,478148932
16,5,10,Ticks_ISO_T2_5,244,5,42,127,478648688
16,5,10,Ticks_ISO_T2_5,245,1,48,18,478673528
16,5,10,Ticks_ISO_T2_5,246,5,42,127,479149484
16,5,10,Ticks_ISO_T2_5,247,1,48,26,479156480
16,5,10,Ticks_ISO_T2_5,248,1,48,31,479641728
16,5,10,Ticks_ISO_T2_5,249,5,42,127,479649228
16,5,10,Ticks_ISO_T2_5,250,5,42,127,480148836
16,5,10,Ticks_ISO_T2_5,251,1,48,28,480175840
16,5,10,Ticks_ISO_T2_5,252,5,42,127,480648512
16,5,10,Ticks_ISO_T2_5,253,1,48,29,480672232
16,5,10,Ticks_ISO_T2_5,254,1,48,30,481141200
16,5,10,Ticks_ISO_T2_5,255,5,42,127,481149376
16,5,10,Ticks_ISO_T2_5,256,5,42,127,481649060
16,5,10,Ticks_ISO_T2_5,257,1,48,29,481655604
16,5,10,Ticks_ISO_T2_5,0,9999,9999,9999,417146944
16,5,10,Ticks_ISO_T2_5,1,9999,9999,9999,417646696
16,5,10,Ticks_ISO_T2_5,2,9999,9999,9999,418146364
16,5,10,Ticks_ISO_T2_5,3,9999,9999,9999,418646092
16,5,10,Ticks_ISO_T2_5,4,9999,9999,9999,419146820
16,5,10,Ticks_ISO_T2_5,5,9999,9999,9999,419646564
16,5,10,Ticks_ISO_T2_5,6,9999,9999,9999,420146240
16,5,10,Ticks_ISO_T2_5,7,9999,9999,9999,420646964
16,5,10,Ticks_ISO_T2_5,8,9999,9999,9999,421146712
16,5,10,Ticks_ISO_T2_5,9,9999,9999,9999,421646388
16,5,10,Ticks_ISO_T2_5,10,9999,9999,9999,422146140
16,5,10,Ticks_ISO_T2_5,11,9999,9999,9999,422646860
16,5,10,Ticks_ISO_T2_5,12,9999,9999,9999,423146544
16,5,10,Ticks_ISO_T2_5,13,9999,9999,9999,423646296
16,5,10,Ticks_ISO_T2_5,14,9999,9999,9999,424147016
16,5,10,Ticks_ISO_T2_5,15,9999,9999,9999,424646708
16,5,10,Ticks_ISO_T2_5,16,9999,9999,9999,425146460
16,5,10,Ticks_ISO_T2_5,17,9999,9999,9999,425646136
16,5,10,Ticks_ISO_T2_5,18,9999,9999,9999,426146932
16,5,10,Ticks_ISO_T2_5,19,9999,9999,9999,426646604
16,5,10,Ticks_ISO_T2_5,20,9999,9999,9999,427146356
16,5,10,Ticks_ISO_T2_5,21,9999,9999,9999,427647076
16,5,10,Ticks_ISO_T2_5,22,9999,9999,9999,428146752
16,5,10,Ticks_ISO_T2_5,23,9999,9999,9999,428646504
16,5,10,Ticks_ISO_T2_5,24,9999,9999,9999,429146228
16,5,10,Ticks_ISO_T2_5,25,9999,9999,9999,429646948
16,5,10,Ticks_ISO_T2_5,26,9999,9999,9999,430146624
16,5,10,Ticks_ISO_T2_5,27,9999,9999,9999,430646332
16,5,10,Ticks_ISO_T2_5,28,9999,9999,9999,431147108
16,5,10,Ticks_ISO_T2_5,29,9999,9999,9999,431646772
16,5,10,Ticks_ISO_T2_5,30,9999,9999,9999,432146528
16,5,10,Ticks_ISO_T2_5,31,9999,9999,9999,432646200
16,5,10,Ticks_ISO_T2_5,32,9999,9999,9999,433147000
16,5,10,Ticks_ISO_T2_5,33,9999,9999,9999,433646672
16,5,10,Ticks_ISO_T2_5,34,9999,9999,9999,434146420
16,5,10,Ticks_ISO_T2_5,35,9999,9999,9999,434646096
16,5,10,Ticks_ISO_T2_5,36,9999,9999,9999,435146824
16,5,10,Ticks_ISO_T2_5,37,9999,9999,9999,435646576
16,5,10,Ticks_ISO_T2_5,38,9999,9999,9999,436146252
16,5,10,Ticks_ISO_T2_5,39,9999,9999,9999,436646972
16,5,10,Ticks_ISO_T2_5,40,9999,9999,9999,437146724
16,5,10,Ticks_ISO_T2_5,41,9999,9999,9999,437646396
16,5,10,Ticks_ISO_T2_5,42,9999,9999,9999,438146144
16,5,10,Ticks_ISO_T2_5,43,9999,9999,9999,438646868
16,5,10,Ticks_ISO_T2_5,44,9999,9999,9999,439146616
16,5,10,Ticks_ISO_T2_5,45,9999,9999,9999,439646292
16,5,10,Ticks_ISO_T2_5,46,9999,9999,9999,440147064
16,5,10,Ticks_ISO_T2_5,47,9999,9999,9999,440646740
16,5,10,Ticks_ISO_T2_5,48,9999,9999,9999,441146416
16,5,10,Ticks_ISO_T2_5,49,9999,9999,9999,441646168
16,5,10,Ticks_ISO_T2_5,50,9999,9999,9999,442146896
16,5,10,Ticks_ISO_T2_5,51,9999,9999,9999,442646648
16,5,10,Ticks_ISO_T2_5,52,9999,9999,9999,443146324
16,5,10,Ticks_ISO_T2_5,53,9999,9999,9999,443647040
16,5,10,Ticks_ISO_T2_5,54,9999,9999,9999,444146796
16,5,10,Ticks_ISO_T2_5,55,9999,9999,9999,444646464
16,5,10,Ticks_ISO_T2_5,56,9999,9999,9999,445146220
16,5,10,Ticks_ISO_T2_5,57,9999,9999,9999,445646948
16,5,10,Ticks_ISO_T2_5,58,9999,9999,9999,446146624
16,5,10,Ticks_ISO_T2_5,59,9999,9999,9999,446646368
16,5,10,Ticks_ISO_T2_5,60,9999,9999,9999,447147092
16,5,10,Ticks_ISO_T2_5,61,9999,9999,9999,447646772
16,5,10,Ticks_ISO_T2_5,62,9999,9999,9999,448146520
16,5,10,Ticks_ISO_T2_5,63,9999,9999,9999,448646196
16,5,10,Ticks_ISO_T2_5,64,9999,9999,9999,449146984
16,5,10,Ticks_ISO_T2_5,65,9999,9999,9999,449646668
16,5,10,Ticks_ISO_T2_5,66,9999,9999,9999,450146420
16,5,10,Ticks_ISO_T2_5,67,9999,9999,9999,450646072
16,5,10,Ticks_ISO_T2_5,68,9999,9999,9999,451146864
16,5,10,Ticks_ISO_T2_5,69,9999,9999,9999,451646540
16,5,10,Ticks_ISO_T2_5,70,9999,9999,9999,452146296
16,5,10,Ticks_ISO_T2_5,71,9999,9999,9999,452647016
16,5,10,Ticks_ISO_T2_5,72,9999,9999,9999,453146684
16,5,10,Ticks_ISO_T2_5,73,9999,9999,9999,453646444
16,5,10,Ticks_ISO_T2_5,74,9999,9999,9999,454146120
16,5,10,Ticks_ISO_T2_5,75,9999,9999,9999,454646840
16,5,10,Ticks_ISO_T2_5,76,9999,9999,9999,455146604
16,5,10,Ticks_ISO_T2_5,77,9999,9999,9999,455646284
16,5,10,Ticks_ISO_T2_5,78,9999,9999,9999,456147008
16,5,10,Ticks_ISO_T2_5,79,9999,9999,9999,456646756
16,5,10,Ticks_ISO_T2_5,80,9999,9999,9999,457146432
16,5,10,Ticks_ISO_T2_5,81,9999,9999,9999,457646188
16,5,10,Ticks_ISO_T2_5,82,9999,9999,9999,458146908
16,5,10,Ticks_ISO_T2_5,83,9999,9999,9999,458646580
16,5,10,Ticks_ISO_T2_5,84,9999,9999,9999,459146336
16,5,10,Ticks_ISO_T2_5,85,9999,9999,9999,459647056
16,5,10,Ticks_ISO_T2_5,86,9999,9999,9999,460146808
16,5,10,Ticks_ISO_T2_5,87,9999,9999,9999,460646484
16,5,10,Ticks_ISO_T2_5,88,9999,9999,9999,461146208
16,5,10,Ticks_ISO_T2_5,89,9999,9999,9999,461646904
16,5,10,Ticks_ISO_T2_5,90,9999,9999,9999,462146612
16,5,10,Ticks_ISO_T2_5,91,9999,9999,9999,462646332
16,5,10,Ticks_ISO_T2_5,92,9999,9999,9999,463147124
16,5,10,Ticks_ISO_T2_5,93,9999,9999,9999,463646804
16,5,10,Ticks_ISO_T2_5,94,9999,9999,9999,464146480
16,5,10,Ticks_ISO_T2_5,95,9999,9999,9999,464646232
16,5,10,Ticks_ISO_T2_5,96,9999,9999,9999,465146944
16,5,10,Ticks_ISO_T2_5,97,9999,9999,9999,465646696
16,5,10,Ticks_ISO_T2_5,98,9999,9999,9999,466146376
16,5,10,Ticks_ISO_T2_5,99,9999,9999,9999,466646128
16,5,10,Ticks_ISO_T2_5,100,9999,9999,9999,467146852
16,5,10,Ticks_ISO_T2_5,101,9999,9999,9999,467646520
16,5,10,Ticks_ISO_T2_5,102,9999,9999,9999,468146272
16,5,10,Ticks_ISO_T2_5,103,9999,9999,9999,468646992
16,5,10,Ticks_ISO_T2_5,104,9999,9999,9999,469146676
16,5,10,Ticks_ISO_T2_5,105,9999,9999,9999,469646428
16,5,10,Ticks_ISO_T2_5,106,9999,9999,9999,470146104
16,5,10,Ticks_ISO_T2_5,107,9999,9999,9999,470646896
16,5,10,Ticks_ISO_T2_5,108,9999,9999,9999,471146572
16,5,10,Ticks_ISO_T2_5,109,9999,9999,9999,471646328
16,5,10,Ticks_ISO_T2_5,110,9999,9999,9999,472147024
16,5,10,Ticks_ISO_T2_5,111,9999,9999,9999,472646772
16,5,10,Ticks_ISO_T2_5,112,9999,9999,9999,473146452
16,5,10,Ticks_ISO_T2_5,113,9999,9999,9999,473646128
16,5,10,Ticks_ISO_T2_5,114,9999,9999,9999,474146928
16,5,10,Ticks_ISO_T2_5,115,9999,9999,9999,474646600
16,5,10,Ticks_ISO_T2_5,116,9999,9999,9999,475146344
16,5,10,Ticks_ISO_T2_5,117,9999,9999,9999,475647076
16,5,10,Ticks_ISO_T2_5,118,9999,9999,9999,476146752
16,5,10,Ticks_ISO_T2_5,119,9999,9999,9999,476646496
16,5,10,Ticks_ISO_T2_5,120,9999,9999,9999,477146172
16,5,10,Ticks_ISO_T2_5,121,9999,9999,9999,477646968
16,5,10,Ticks_ISO_T2_5,122,9999,9999,9999,478146644
16,5,10,Ticks_ISO_T2_5,123,9999,9999,9999,478646328
16,5,10,Ticks_ISO_T2_5,124,9999,9999,9999,479147124
16,5,10,Ticks_ISO_T2_5,125,9999,9999,9999,479646792
16,5,10,Ticks_ISO_T2_5,126,9999,9999,9999,480146548
16,5,10,Ticks_ISO_T2_5,127,9999,9999,9999,480646224
16,5,10,Ticks_ISO_T2_5,128,9999,9999,9999,481146940
16,5,10,Ticks_ISO_T2_5,129,9999,9999,9999,481646696
16,6,9,Ticks_ISO_T2_8,0,5,42,127,494565964
16,6,9,Ticks_ISO_T2_8,1,5,42,127,495365424
16,6,9,Ticks_ISO_T2_8,2,1,48,26,495573684
16,6,9,Ticks_ISO_T2_8,3,1,48,39,496152796
16,6,9,Ticks_ISO_T2_8,4,5,42,127,496166344
16,6,9,Ticks_ISO_T2_8,5,1,48,32,496915568
16,6,9,Ticks_ISO_T2_8,6,5,42,127,496966004
16,6,9,Ticks_ISO_T2_8,7,1,48,28,497734340
16,6,9,Ticks_ISO_T2_8,8,5,42,127,497765688
16,6,9,Ticks_ISO_T2_8,9,1,48,27,498557764
16,6,9,Ticks_ISO_T2_8,10,5,42,127,498565492
16,6,9,Ticks_ISO_T2_8,11,5,42,127,499366352
16,6,9,Ticks_ISO_T2_8,12,1,48,25,499405984
16,6,9,Ticks_ISO_T2_8,13,1,48,21,500158056
16,6,9,Ticks_ISO_T2_8,14,5,42,127,500165932
16,6,9,Ticks_ISO_T2_8,15,1,48,25,500912316
16,6,9,Ticks_ISO_T2_8,16,5,42,127,500965664
16,6,9,Ticks_ISO_T2_8,17,1,48,24,501752592
16,6,9,Ticks_ISO_T2_8,18,5,42,127,501765544
16,6,9,Ticks_ISO_T2_8,19,1,48,19,502532536
16,6,9,Ticks_ISO_T2_8,20,5,42,127,502566396
16,6,9,Ticks_ISO_T2_8,21,1,48,24,503355340
16,6,9,Ticks_ISO_T2_8,22,5,42,127,503366128
16,6,9,Ticks_ISO_T2_8,23,5,42,127,504165596
16,6,9,Ticks_ISO_T2_8,24,1,48,22,504171320
16,6,9,Ticks_ISO_T2_8,25,1,48,25,504920756
16,6,9,Ticks_ISO_T2_8,26,5,42,127,504965468
16,6,9,Ticks_ISO_T2_8,27,1,48,26,505728876
16,6,9,Ticks_ISO_T2_8,28,5,42,127,505766320
16,6,9,Ticks_ISO_T2_8,29,1,48,29,506535328
16,6,9,Ticks_ISO_T2_8,30,5,42,127,506566200
16,6,9,Ticks_ISO_T2_8,31,1,48,26,507330136
16,6,9,Ticks_ISO_T2_8,32,5,42,127,507366008
16,6,9,Ticks_ISO_T2_8,33,1,48,29,508136812
16,6,9,Ticks_ISO_T2_8,34,5,42,127,508165520
16,6,9,Ticks_ISO_T2_8,35,5,42,127,508966376
16,6,9,Ticks_ISO_T2_8,36,1,48,22,508969940
16,6,9,Ticks_ISO_T2_8,37,1,48,27,509714248
16,6,9,Ticks_ISO_T2_8,38,5,42,127,509765956
16,6,9,Ticks_ISO_T2_8,39,1,48,29,510526824
16,6,9,Ticks_ISO_T2_8,40,5,42,127,510565712
16,6,9,Ticks_ISO_T2_8,41,5,42,127,511365452
16,6,9,Ticks_ISO_T2_8,42,1,48,20,511374240
16,6,9,Ticks_ISO_T2_8,43,1,48,17,512152524
16,6,9,Ticks_ISO_T2_8,44,5,42,127,512166224
16,6,9,Ticks_ISO_T2_8,45,1,48,18,512910220
16,6,9,Ticks_ISO_T2_8,46,5,42,127,512965960
16,6,9,Ticks_ISO_T2_8,47,1,48,19,513738932
16,6,9,Ticks_ISO_T2_8,48,5,42,127,513765844
16,6,9,Ticks_ISO_T2_8,49,1,48,21,514513568
16,6,9,Ticks_ISO_T2_8,50,5,42,127,514565872
16,6,9,Ticks_ISO_T2_8,51,1,48,27,515336076
16,6,9,Ticks_ISO_T2_8,52,5,42,127,515366352
16,6,9,Ticks_ISO_T2_8,53,1,48,31,516108032
16,6,9,Ticks_ISO_T2_8,54,5,42,127,516165864
16,6,9,Ticks_ISO_T2_8,55,1,48,30,516949804
16,6,9,Ticks_ISO_T2_8,56,5,42,127,516965620
16,6,9,Ticks_ISO_T2_8,57,1,48,23,517737312
16,6,9,Ticks_ISO_T2_8,58,5,42,127,517765724
16,6,9,Ticks_ISO_T2_8,59,1,48,35,518542576
16,6,9,Ticks_ISO_T2_8,60,5,42,127,518566352
16,6,9,Ticks_ISO_T2_8,61,5,42,127,519365944
16,6,9,Ticks_ISO_T2_8,62,1,48,28,519368608
16,6,9,Ticks_ISO_T2_8,63,1,48,34,520125540
16,6,9,Ticks_ISO_T2_8,64,5,42,127,520165596
16,6,9,Ticks_ISO_T2_8,65,1,48,28,520947592
16,6,9,Ticks_ISO_T2_8,66,5,42,127,520965476
16,6,9,Ticks_ISO_T2_8,67,1,48,29,521741056
16,6,9,Ticks_ISO_T2_8,68,5,42,127,521766404
16,6,9,Ticks_ISO_T2_8,69,1,48,25,522524360
16,6,9,Ticks_ISO_T2_8,70,5,42,127,522566432
16,6,9,Ticks_ISO_T2_8,71,1,48,32,523336864
16,6,9,Ticks_ISO_T2_8,72,5,42,127,523365672
16,6,9,Ticks_ISO_T2_8,73,1,48,25,524102096
16,6,9,Ticks_ISO_T2_8,74,5,42,127,524165328
16,6,9,Ticks_ISO_T2_8,75,1,48,24,524949648
16,6,9,Ticks_ISO_T2_8,76,5,42,127,524966180
16,6,9,Ticks_ISO_T2_8,77,1,48,26,525647352
16,6,9,Ticks_ISO_T2_8,78,5,42,127,525766272
16,6,9,Ticks_ISO_T2_8,79,5,42,127,526565804
16,6,9,Ticks_ISO_T2_8,80,1,48,30,526572276
16,6,9,Ticks_ISO_T2_8,81,5,42,127,527365536
16,6,9,Ticks_ISO_T2_8,82,1,48,22,527381344
16,6,9,Ticks_ISO_T2_8,83,1,48,27,528124828
16,6,9,Ticks_ISO_T2_8,84,5,42,127,528166160
16,6,9,Ticks_ISO_T2_8,85,1,48,21,528933228
16,6,9,Ticks_ISO_T2_8,86,5,42,127,528966188
16,6,9,Ticks_ISO_T2_8,87,1,48,18,529740056
16,6,9,Ticks_ISO_T2_8,88,5,42,127,529765872
16,6,9,Ticks_ISO_T2_8,89,1,48,22,530517460
16,6,9,Ticks_ISO_T2_8,90,5,42,127,530565456
16,6,9,Ticks_ISO_T2_8,91,5,42,127,531366168
16,6,9,Ticks_ISO_T2_8,92,1,48,25,531372940
16,6,9,Ticks_ISO_T2_8,93,1,48,23,532091336
16,6,9,Ticks_ISO_T2_8,94,5,42,127,532165968
16,6,9,Ticks_ISO_T2_8,95,1,48,14,532956632
16,6,9,Ticks_ISO_T2_8,96,5,42,127,532965996
16,6,9,Ticks_ISO_T2_8,97,1,48,22,533720152
16,6,9,Ticks_ISO_T2_8,98,5,42,127,533765360
16,6,9,Ticks_ISO_T2_8,99,5,42,127,534566216
16,6,9,Ticks_ISO_T2_8,100,1,48,29,534573144
16,6,9,Ticks_ISO_T2_8,101,1,48,27,535322228
16,6,9,Ticks_ISO_T2_8,102,5,42,127,535365944
16,6,9,Ticks_ISO_T2_8,103,1,48,28,536146824
16,6,9,Ticks_ISO_T2_8,104,5,42,127,536165852
16,6,9,Ticks_ISO_T2_8,105,1,48,27,536923136
16,6,9,Ticks_ISO_T2_8,106,5,42,127,536965436
16,6,9,Ticks_ISO_T2_8,107,1,48,31,537720704
16,6,9,Ticks_ISO_T2_8,108,5,42,127,537766212
16,6,9,Ticks_ISO_T2_8,109,1,48,24,538543584
16,6,9,Ticks_ISO_T2_8,110,5,42,127,538565944
16,6,9,Ticks_ISO_T2_8,111,1,48,35,539349072
16,6,9,Ticks_ISO_T2_8,112,5,42,127,539365680
16,6,9,Ticks_ISO_T2_8,113,1,48,34,540116616
16,6,9,Ticks_ISO_T2_8,114,5,42,127,540165560
16,6,9,Ticks_ISO_T2_8,115,1,48,27,540894324
16,6,9,Ticks_ISO_T2_8,116,5,42,127,540966336
16,6,9,Ticks_ISO_T2_8,117,1,48,20,541714664
16,6,9,Ticks_ISO_T2_8,118,5,42,127,541765848
16,6,9,Ticks_ISO_T2_8,119,1,48,33,542542924
16,6,9,Ticks_ISO_T2_8,120,5,42,127,542565680
16,6,9,Ticks_ISO_T2_8,121,1,48,26,543359408
16,6,9,Ticks_ISO_T2_8,122,5,42,127,543365636
16,6,9,Ticks_ISO_T2_8,123,1,48,29,544144504
16,6,9,Ticks_ISO_T2_8,124,5,42,127,544166412
16,6,9,Ticks_ISO_T2_8,125,1,48,23,544937140
16,6,9,Ticks_ISO_T2_8,126,5,42,127,544965924
16,6,9,Ticks_ISO_T2_8,127,1,48,32,545712608
16,6,9,Ticks_ISO_T2_8,128,5,42,127,545765952
16,6,9,Ticks_ISO_T2_8,129,1,48,31,546554600
16,6,9,Ticks_ISO_T2_8,130,5,42,127,546565536
16,6,9,Ticks_ISO_T2_8,131,1,48,19,547284564
16,6,9,Ticks_ISO_T2_8,132,5,42,127,547366216
16,6,9,Ticks_ISO_T2_8,133,5,42,127,548165956
16,6,9,Ticks_ISO_T2_8,134,1,48,34,548168472
16,6,9,Ticks_ISO_T2_8,135,1,48,29,548955368
16,6,9,Ticks_ISO_T2_8,136,5,42,127,548965632
16,6,9,Ticks_ISO_T2_8,137,5,42,127,549765372
16,6,9,Ticks_ISO_T2_8,138,1,48,30,549773712
16,6,9,Ticks_ISO_T2_8,139,1,48,30,550536240
16,6,9,Ticks_ISO_T2_8,140,5,42,127,550566216
16,6,9,Ticks_ISO_T2_8,141,1,48,26,551311032
16,6,9,Ticks_ISO_T2_8,142,5,42,127,551366248
16,6,9,Ticks_ISO_T2_8,143,1,48,30,552114048
16,6,9,Ticks_ISO_T2_8,144,5,42,127,552165608
16,6,9,Ticks_ISO_T2_8,145,1,48,29,552921476
16,6,9,Ticks_ISO_T2_8,146,5,42,127,552965488
16,6,9,Ticks_ISO_T2_8,147,1,48,30,553721284
16,6,9,Ticks_ISO_T2_8,148,5,42,127,553766120
16,6,9,Ticks_ISO_T2_8,149,1,48,22,554559100
16,6,9,Ticks_ISO_T2_8,150,5,42,127,554566148
16,6,9,Ticks_ISO_T2_8,151,1,48,19,555339416
16,6,9,Ticks_ISO_T2_8,152,5,42,127,555365832
16,6,9,Ticks_ISO_T2_8,153,1,48,31,556123788
16,6,9,Ticks_ISO_T2_8,154,5,42,127,556165344
16,6,9,Ticks_ISO_T2_8,155,1,48,24,556952872
16,6,9,Ticks_ISO_T2_8,156,5,42,127,556966268
16,6,9,Ticks_ISO_T2_8,157,1,48,27,557707728
16,6,9,Ticks_ISO_T2_8,158,5,42,127,557765928
16,6,9,Ticks_ISO_T2_8,159,1,48,27,558540388
16,6,9,Ticks_ISO_T2_8,160,5,42,127,558565880
16,6,9,Ticks_ISO_T2_8,161,1,48,26,559317936
16,6,9,Ticks_ISO_T2_8,162,5,42,127,559365468
16,6,9,Ticks_ISO_T2_8,163,1,48,27,560121932
16,6,9,Ticks_ISO_T2_8,164,5,42,127,560166172
16,6,9,Ticks_ISO_T2_8,165,1,48,22,560930328
16,6,9,Ticks_ISO_T2_8,166,5,42,127,560965976
16,6,9,Ticks_ISO_T2_8,167,1,48,28,561746856
16,6,9,Ticks_ISO_T2_8,168,5,42,127,561765808
16,6,9,Ticks_ISO_T2_8,169,1,48,21,562491636
16,6,9,Ticks_ISO_T2_8,170,5,42,127,562565616
16,6,9,Ticks_ISO_T2_8,171,1,48,22,563347848
16,6,9,Ticks_ISO_T2_8,172,5,42,127,563366100
16,6,9,Ticks_ISO_T2_8,173,1,48,25,564115620
16,6,9,Ticks_ISO_T2_8,174,5,42,127,564165904
16,6,9,Ticks_ISO_T2_8,175,1,48,27,564956940
16,6,9,Ticks_ISO_T2_8,176,5,42,127,564965936
16,6,9,Ticks_ISO_T2_8,177,1,48,28,565727104
16,6,9,Ticks_ISO_T2_8,178,5,42,127,565765520
16,6,9,Ticks_ISO_T2_8,179,1,48,22,566545804
16,6,9,Ticks_ISO_T2_8,180,5,42,127,566566520
16,6,9,Ticks_ISO_T2_8,181,1,48,28,567304916
16,6,9,Ticks_ISO_T2_8,182,5,42,127,567365960
16,6,9,Ticks_ISO_T2_8,183,1,48,28,568100024
16,6,9,Ticks_ISO_T2_8,184,5,42,127,568165716
16,6,9,Ticks_ISO_T2_8,185,1,48,19,568943388
16,6,9,Ticks_ISO_T2_8,186,5,42,127,568965448
16,6,9,Ticks_ISO_T2_8,187,1,48,23,569711088
16,6,9,Ticks_ISO_T2_8,188,5,42,127,569766524
16,6,9,Ticks_ISO_T2_8,189,1,48,24,570565288
16,6,9,Ticks_ISO_T2_8,190,5,42,127,570567152
16,6,9,Ticks_ISO_T2_8,191,1,48,21,571312644
16,6,9,Ticks_ISO_T2_8,192,5,42,127,571365692
16,6,9,Ticks_ISO_T2_8,193,1,48,21,572093560
16,6,9,Ticks_ISO_T2_8,194,5,42,127,572165424
16,6,9,Ticks_ISO_T2_8,195,5,42,127,572966208
16,6,9,Ticks_ISO_T2_8,196,1,48,24,572967248
16,6,9,Ticks_ISO_T2_8,197,5,42,127,573766092
16,6,9,Ticks_ISO_T2_8,198,1,48,23,573797304
16,6,9,Ticks_ISO_T2_8,199,1,48,21,574528000
16,6,9,Ticks_ISO_T2_8,200,5,42,127,574565692
16,6,9,Ticks_ISO_T2_8,201,1,48,22,575345832
16,6,9,Ticks_ISO_T2_8,202,5,42,127,575365500
16,6,9,Ticks_ISO_T2_8,203,1,48,21,576100012
16,6,9,Ticks_ISO_T2_8,204,5,42,127,576166204
16,6,9,Ticks_ISO_T2_8,205,1,48,25,576914532
16,6,9,Ticks_ISO_T2_8,206,5,42,127,576966160
16,6,9,Ticks_ISO_T2_8,207,1,48,23,577705968
16,6,9,Ticks_ISO_T2_8,208,5,42,127,577765820
16,6,9,Ticks_ISO_T2_8,209,1,48,22,578546776
16,6,9,Ticks_ISO_T2_8,210,5,42,127,578565404
16,6,9,Ticks_ISO_T2_8,211,1,48,22,579296552
16,6,9,Ticks_ISO_T2_8,212,5,42,127,579366104
16,6,9,Ticks_ISO_T2_8,213,1,48,21,580147288
16,6,9,Ticks_ISO_T2_8,214,5,42,127,580165912
16,6,9,Ticks_ISO_T2_8,215,1,48,21,580950184
16,6,9,Ticks_ISO_T2_8,216,5,42,127,580965672
16,6,9,Ticks_ISO_T2_8,217,1,48,23,581743564
16,6,9,Ticks_ISO_T2_8,218,5,42,127,581765404
16,6,9,Ticks_ISO_T2_8,219,1,48,18,582492144
16,6,9,Ticks_ISO_T2_8,220,5,42,127,582566180
16,6,9,Ticks_ISO_T2_8,221,1,48,15,583355728
16,6,9,Ticks_ISO_T2_8,222,5,42,127,583365988
16,6,9,Ticks_ISO_T2_8,223,1,48,20,584130368
16,6,9,Ticks_ISO_T2_8,224,5,42,127,584165724
16,6,9,Ticks_ISO_T2_8,225,1,48,20,584961612
16,6,9,Ticks_ISO_T2_8,226,5,42,127,584965528
16,6,9,Ticks_ISO_T2_8,227,5,42,127,585766240
16,6,9,Ticks_ISO_T2_8,228,1,48,17,585775996
16,6,9,Ticks_ISO_T2_8,229,1,48,24,586534644
16,6,9,Ticks_ISO_T2_8,230,5,42,127,586565892
16,6,9,Ticks_ISO_T2_8,231,5,42,127,587365656
16,6,9,Ticks_ISO_T2_8,232,5,42,127,588165488
16,6,9,Ticks_ISO_T2_8,233,1,48,24,588910464
16,6,9,Ticks_ISO_T2_8,234,5,42,127,588966352
16,6,9,Ticks_ISO_T2_8,235,1,48,23,589724608
16,6,9,Ticks_ISO_T2_8,236,5,42,127,589765936
16,6,9,Ticks_ISO_T2_8,237,1,48,24,590504256
16,6,9,Ticks_ISO_T2_8,0,9999,9999,9999,494563384
16,6,9,Ticks_ISO_T2_8,1,9999,9999,9999,495363140
16,6,9,Ticks_ISO_T2_8,2,9999,9999,9999,496163912
16,6,9,Ticks_ISO_T2_8,3,9999,9999,9999,496963644
16,6,9,Ticks_ISO_T2_8,4,9999,9999,9999,497763404
16,6,9,Ticks_ISO_T2_8,5,9999,9999,9999,498563132
16,6,9,Ticks_ISO_T2_8,6,9999,9999,9999,499363916
16,6,9,Ticks_ISO_T2_8,7,9999,9999,9999,500163644
16,6,9,Ticks_ISO_T2_8,8,9999,9999,9999,500963376
16,6,9,Ticks_ISO_T2_8,9,9999,9999,9999,501763184
16,6,9,Ticks_ISO_T2_8,10,9999,9999,9999,502563888
16,6,9,Ticks_ISO_T2_8,11,9999,9999,9999,503363696
16,6,9,Ticks_ISO_T2_8,12,9999,9999,9999,504163384
16,6,9,Ticks_ISO_T2_8,13,9999,9999,9999,504963184
16,6,9,Ticks_ISO_T2_8,14,9999,9999,9999,505763888
16,6,9,Ticks_ISO_T2_8,15,9999,9999,9999,506563692
16,6,9,Ticks_ISO_T2_8,16,9999,9999,9999,507363428
16,6,9,Ticks_ISO_T2_8,17,9999,9999,9999,508163160
16,6,9,Ticks_ISO_T2_8,18,9999,9999,9999,508963944
16,6,9,Ticks_ISO_T2_8,19,9999,9999,9999,509763672
16,6,9,Ticks_ISO_T2_8,20,9999,9999,9999,510563428
16,6,9,Ticks_ISO_T2_8,21,9999,9999,9999,511363168
16,6,9,Ticks_ISO_T2_8,22,9999,9999,9999,512163940
16,6,9,Ticks_ISO_T2_8,23,9999,9999,9999,512963676
16,6,9,Ticks_ISO_T2_8,24,9999,9999,9999,513763408
16,6,9,Ticks_ISO_T2_8,25,9999,9999,9999,514563140
16,6,9,Ticks_ISO_T2_8,26,9999,9999,9999,515363920
16,6,9,Ticks_ISO_T2_8,27,9999,9999,9999,516163656
16,6,9,Ticks_ISO_T2_8,28,9999,9999,9999,516963412
16,6,9,Ticks_ISO_T2_8,29,9999,9999,9999,517763144
16,6,9,Ticks_ISO_T2_8,30,9999,9999,9999,518563920
16,6,9,Ticks_ISO_T2_8,31,9999,9999,9999,519363660
16,6,9,Ticks_ISO_T2_8,32,9999,9999,9999,520163384
16,6,9,Ticks_ISO_T2_8,33,9999,9999,9999,520963116
16,6,9,Ticks_ISO_T2_8,34,9999,9999,9999,521763896
16,6,9,Ticks_ISO_T2_8,35,9999,9999,9999,522563704
16,6,9,Ticks_ISO_T2_8,36,9999,9999,9999,523363388
16,6,9,Ticks_ISO_T2_8,37,9999,9999,9999,524163120
16,6,9,Ticks_ISO_T2_8,38,9999,9999,9999,524963896
16,6,9,Ticks_ISO_T2_8,39,9999,9999,9999,525763692
16,6,9,Ticks_ISO_T2_8,40,9999,9999,9999,526563444
16,6,9,Ticks_ISO_T2_8,41,9999,9999,9999,527363180
16,6,9,Ticks_ISO_T2_8,42,9999,9999,9999,528163948
16,6,9,Ticks_ISO_T2_8,43,9999,9999,9999,528963680
16,6,9,Ticks_ISO_T2_8,44,9999,9999,9999,529763440
16,6,9,Ticks_ISO_T2_8,45,9999,9999,9999,530563172
16,6,9,Ticks_ISO_T2_8,46,9999,9999,9999,531363956
16,6,9,Ticks_ISO_T2_8,47,9999,9999,9999,532163684
16,6,9,Ticks_ISO_T2_8,48,9999,9999,9999,532963416
16,6,9,Ticks_ISO_T2_8,49,9999,9999,9999,533763148
16,6,9,Ticks_ISO_T2_8,50,9999,9999,9999,534563932
16,6,9,Ticks_ISO_T2_8,51,9999,9999,9999,535363660
16,6,9,Ticks_ISO_T2_8,52,9999,9999,9999,536163420
16,6,9,Ticks_ISO_T2_8,53,9999,9999,9999,536963152
16,6,9,Ticks_ISO_T2_8,54,9999,9999,9999,537763928
16,6,9,Ticks_ISO_T2_8,55,9999,9999,9999,538563660
16,6,9,Ticks_ISO_T2_8,56,9999,9999,9999,539363396
16,6,9,Ticks_ISO_T2_8,57,9999,9999,9999,540163128
16,6,9,Ticks_ISO_T2_8,58,9999,9999,9999,540963904
16,6,9,Ticks_ISO_T2_8,59,9999,9999,9999,541763640
16,6,9,Ticks_ISO_T2_8,60,9999,9999,9999,542563396
16,6,9,Ticks_ISO_T2_8,61,9999,9999,9999,543363128
16,6,9,Ticks_ISO_T2_8,62,9999,9999,9999,544163908
16,6,9,Ticks_ISO_T2_8,63,9999,9999,9999,544963640
16,6,9,Ticks_ISO_T2_8,64,9999,9999,9999,545763444
16,6,9,Ticks_ISO_T2_8,65,9999,9999,9999,546563176
16,6,9,Ticks_ISO_T2_8,66,9999,9999,9999,547363932
16,6,9,Ticks_ISO_T2_8,67,9999,9999,9999,548163672
16,6,9,Ticks_ISO_T2_8,68,9999,9999,9999,548963420
16,6,9,Ticks_ISO_T2_8,69,9999,9999,9999,549763160
16,6,9,Ticks_ISO_T2_8,70,9999,9999,9999,550563932
16,6,9,Ticks_ISO_T2_8,71,9999,9999,9999,551363664
16,6,9,Ticks_ISO_T2_8,72,9999,9999,9999,552163400
16,6,9,Ticks_ISO_T2_8,73,9999,9999,9999,552963132
16,6,9,Ticks_ISO_T2_8,74,9999,9999,9999,553763908
16,6,9,Ticks_ISO_T2_8,75,9999,9999,9999,554563640
16,6,9,Ticks_ISO_T2_8,76,9999,9999,9999,555363400
16,6,9,Ticks_ISO_T2_8,77,9999,9999,9999,556163132
16,6,9,Ticks_ISO_T2_8,78,9999,9999,9999,556963908
16,6,9,Ticks_ISO_T2_8,79,9999,9999,9999,557763644
16,6,9,Ticks_ISO_T2_8,80,9999,9999,9999,558563376
16,6,9,Ticks_ISO_T2_8,81,9999,9999,9999,559363184
16,6,9,Ticks_ISO_T2_8,82,9999,9999,9999,560163888
16,6,9,Ticks_ISO_T2_8,83,9999,9999,9999,560963692
16,6,9,Ticks_ISO_T2_8,84,9999,9999,9999,561763376
16,6,9,Ticks_ISO_T2_8,85,9999,9999,9999,562563184
16,6,9,Ticks_ISO_T2_8,86,9999,9999,9999,563363888
16,6,9,Ticks_ISO_T2_8,87,9999,9999,9999,564163696
16,6,9,Ticks_ISO_T2_8,88,9999,9999,9999,564963428
16,6,9,Ticks_ISO_T2_8,89,9999,9999,9999,565763164
16,6,9,Ticks_ISO_T2_8,90,9999,9999,9999,566563940
16,6,9,Ticks_ISO_T2_8,91,9999,9999,9999,567363676
16,6,9,Ticks_ISO_T2_8,92,9999,9999,9999,568163432
16,6,9,Ticks_ISO_T2_8,93,9999,9999,9999,568963164
16,6,9,Ticks_ISO_T2_8,94,9999,9999,9999,569763944
16,6,9,Ticks_ISO_T2_8,95,9999,9999,9999,570563680
16,6,9,Ticks_ISO_T2_8,96,9999,9999,9999,571363408
16,6,9,Ticks_ISO_T2_8,97,9999,9999,9999,572163140
16,6,9,Ticks_ISO_T2_8,98,9999,9999,9999,572963924
16,6,9,Ticks_ISO_T2_8,99,9999,9999,9999,573763656
16,6,9,Ticks_ISO_T2_8,100,9999,9999,9999,574563408
16,6,9,Ticks_ISO_T2_8,101,9999,9999,9999,575363144
16,6,9,Ticks_ISO_T2_8,102,9999,9999,9999,576163920
16,6,9,Ticks_ISO_T2_8,103,9999,9999,9999,576963652
16,6,9,Ticks_ISO_T2_8,104,9999,9999,9999,577763384
16,6,9,Ticks_ISO_T2_8,105,9999,9999,9999,578563116
16,6,9,Ticks_ISO_T2_8,106,9999,9999,9999,579363896
16,6,9,Ticks_ISO_T2_8,107,9999,9999,9999,580163628
16,6,9,Ticks_ISO_T2_8,108,9999,9999,9999,580963388
16,6,9,Ticks_ISO_T2_8,109,9999,9999,9999,581763120
16,6,9,Ticks_ISO_T2_8,110,9999,9999,9999,582563896
16,6,9,Ticks_ISO_T2_8,111,9999,9999,9999,583363632
16,6,9,Ticks_ISO_T2_8,112,9999,9999,9999,584163440
16,6,9,Ticks_ISO_T2_8,113,9999,9999,9999,584963172
16,6,9,Ticks_ISO_T2_8,114,9999,9999,9999,585763956
16,6,9,Ticks_ISO_T2_8,115,9999,9999,9999,586563680
16,6,9,Ticks_ISO_T2_8,116,9999,9999,9999,587363448
16,6,9,Ticks_ISO_T2_8,117,9999,9999,9999,588163128
16,6,9,Ticks_ISO_T2_8,118,9999,9999,9999,588963920
16,6,9,Ticks_ISO_T2_8,119,9999,9999,9999,589763652
16,7,21,Ticks_Linear_5,0,5,42,127,606478732
16,7,21,Ticks_Linear_5,1,5,42,127,606958848
16,7,21,Ticks_Linear_5,2,1,48,34,607314580
16,7,21,Ticks_Linear_5,3,5,42,127,607439092
16,7,21,Ticks_Linear_5,4,1,48,35,607848360
16,7,21,Ticks_Linear_5,5,5,42,127,607918452
16,7,21,Ticks_Linear_5,6,1,48,29,608349612
16,7,21,Ticks_Linear_5,7,5,42,127,608398624
16,7,21,Ticks_Linear_5,8,1,48,33,608837684
16,7,21,Ticks_Linear_5,9,5,42,127,608889180
16,7,21,Ticks_Linear_5,10,1,48,32,609336156
16,7,21,Ticks_Linear_5,11,5,42,127,609378772
16,7,21,Ticks_Linear_5,12,1,48,32,609832556
16,7,21,Ticks_Linear_5,13,5,42,127,609869380
16,7,21,Ticks_Linear_5,14,1,48,32,610324232
16,7,21,Ticks_Linear_5,15,5,42,127,610358524
16,7,21,Ticks_Linear_5,16,1,48,32,610817496
16,7,21,Ticks_Linear_5,17,5,42,127,610849084
16,7,21,Ticks_Linear_5,18,1,48,32,611308952
16,7,21,Ticks_Linear_5,19,5,42,127,611348912
16,7,21,Ticks_Linear_5,20,1,48,32,611770952
16,7,21,Ticks_Linear_5,21,5,42,127,611848520
16,7,21,Ticks_Linear_5,22,1,48,39,612285352
16,7,21,Ticks_Linear_5,23,5,42,127,612349544
16,7,21,Ticks_Linear_5,24,1,48,31,612812476
16,7,21,Ticks_Linear_5,25,5,42,127,612849152
16,7,21,Ticks_Linear_5,26,1,48,29,613311640
16,7,21,Ticks_Linear_5,27,5,42,127,613348616
16,7,21,Ticks_Linear_5,28,1,48,23,613825368
16,7,21,Ticks_Linear_5,29,5,42,127,613858540
16,7,21,Ticks_Linear_5,30,1,48,28,614346968
16,7,21,Ticks_Linear_5,31,5,42,127,614368536
16,7,21,Ticks_Linear_5,32,1,48,28,614838124
16,7,21,Ticks_Linear_5,33,5,42,127,614878536
16,7,21,Ticks_Linear_5,34,1,48,22,615327792
16,7,21,Ticks_Linear_5,35,5,42,127,615388536
16,7,21,Ticks_Linear_5,36,1,48,21,615858868
16,7,21,Ticks_Linear_5,37,5,42,127,615898460
16,7,21,Ticks_Linear_5,38,1,48,25,616367156
16,7,21,Ticks_Linear_5,39,5,42,127,616418628
16,7,21,Ticks_Linear_5,40,1,48,27,616873032
16,7,21,Ticks_Linear_5,41,5,42,127,616939088
16,7,21,Ticks_Linear_5,42,1,48,24,617439928
16,7,21,Ticks_Linear_5,43,5,42,127,617459180
16,7,21,Ticks_Linear_5,44,1,48,22,617959724
16,7,21,Ticks_Linear_5,45,5,42,127,617979200
16,7,21,Ticks_Linear_5,46,1,48,22,618441012
16,7,21,Ticks_Linear_5,47,5,42,127,618498472
16,7,21,Ticks_Linear_5,48,1,48,25,619012688
16,7,21,Ticks_Linear_5,49,5,42,127,619028952
16,7,21,Ticks_Linear_5,50,1,48,23,619514984
16,7,21,Ticks_Linear_5,51,5,42,127,619559216
16,7,21,Ticks_Linear_5,52,1,48,22,620043524
16,7,21,Ticks_Linear_5,53,5,42,127,620088652
16,7,21,Ticks_Linear_5,54,1,48,19,620591212
16,7,21,Ticks_Linear_5,55,5,42,127,620619060
16,7,21,Ticks_Linear_5,56,5,42,127,621148828
16,7,21,Ticks_Linear_5,57,1,48,21,621151276
16,7,21,Ticks_Linear_5,58,5,42,127,621689180
16,7,21,Ticks_Linear_5,59,1,48,18,621696116
16,7,21,Ticks_Linear_5,60,1,48,20,622195536
16,7,21,Ticks_Linear_5,61,5,42,127,622228856
16,7,21,Ticks_Linear_5,62,1,48,24,622718852
16,7,21,Ticks_Linear_5,63,5,42,127,622768460
16,7,21,Ticks_Linear_5,64,1,48,22,623300544
16,7,21,Ticks_Linear_5,65,5,42,127,623309108
16,7,21,Ticks_Linear_5,66,5,42,127,623848724
16,7,21,Ticks_Linear_5,67,1,48,17,623859768
16,7,21,Ticks_Linear_5,68,1,48,27,624370260
16,7,21,Ticks_Linear_5,69,5,42,127,624398712
16,7,21,Ticks_Linear_5,70,1,48,29,624903056
16,7,21,Ticks_Linear_5,71,5,42,127,624948780
16,7,21,Ticks_Linear_5,72,5,42,127,625498732
16,7,21,Ticks_Linear_5,73,1,48,21,625518152
16,7,21,Ticks_Linear_5,74,5,42,127,626049552
16,7,21,Ticks_Linear_5,75,1,48,26,626056252
16,7,21,Ticks_Linear_5,76,1,48,27,626584320
16,7,21,Ticks_Linear_5,77,5,42,127,626599244
16,7,21,Ticks_Linear_5,78,1,48,26,627089916
16,7,21,Ticks_Linear_5,79,5,42,127,627159632
16,7,21,Ticks_Linear_5,80,1,48,24,627679464
16,7,21,Ticks_Linear_5,81,5,42,127,627718676
16,7,21,Ticks_Linear_5,82,5,42,127,628278624
16,7,21,Ticks_Linear_5,83,1,48,28,628282484
16,7,21,Ticks_Linear_5,84,5,42,127,628838736
16,7,21,Ticks_Linear_5,85,1,48,21,628856792
16,7,21,Ticks_Linear_5,86,5,42,127,629398976
16,7,21,Ticks_Linear_5,87,1,48,25,629399940
16,7,21,Ticks_Linear_5,88,1,48,29,629937416
16,7,21,Ticks_Linear_5,89,5,42,127,629969300
16,7,21,Ticks_Linear_5,90,1,48,24,630497656
16,7,21,Ticks_Linear_5,91,5,42,127,630538660
16,7,21,Ticks_Linear_5,92,1,48,27,631093916
16,7,21,Ticks_Linear_5,93,5,42,127,631108992
16,7,21,Ticks_Linear_5,94,1,48,25,631658680
16,7,21,Ticks_Linear_5,95,5,42,127,631679572
16,7,21,Ticks_Linear_5,96,1,48,27,632203208
16,7,21,Ticks_Linear_5,97,5,42,127,632248712
16,7,21,Ticks_Linear_5,98,1,48,26,632809432
16,7,21,Ticks_Linear_5,99,5,42,127,632829284
16,7,21,Ticks_Linear_5,100,1,48,22,633375120
16,7,21,Ticks_Linear_5,101,5,42,127,633408812
16,7,21,Ticks_Linear_5,102,1,48,28,633952736
16,7,21,Ticks_Linear_5,103,5,42,127,633988516
16,7,21,Ticks_Linear_5,104,1,48,27,634566724
16,7,21,Ticks_Linear_5,105,5,42,127,634569312
16,7,21,Ticks_Linear_5,106,5,42,127,635148552
16,7,21,Ticks_Linear_5,107,1,48,27,635151516
16,7,21,Ticks_Linear_5,108,1,48,24,635710980
16,7,21,Ticks_Linear_5,109,5,42,127,635738488
16,7,21,Ticks_Linear_5,110,1,48,27,636283428
16,7,21,Ticks_Linear_5,111,5,42,127,636329448
16,7,21,Ticks_Linear_5,112,1,48,26,636904068
16,7,21,Ticks_Linear_5,113,5,42,127,636919292
16,7,21,Ticks_Linear_5,114,1,48,27,637486448
16,7,21,Ticks_Linear_5,115,5,42,127,637509064
16,7,21,Ticks_Linear_5,116,1,48,26,638094624
16,7,21,Ticks_Linear_5,117,5,42,127,638098784
16,7,21,Ticks_Linear_5,118,1,48,31,638656356
16,7,21,Ticks_Linear_5,119,5,42,127,638698948
16,7,21,Ticks_Linear_5,120,1,48,27,639275880
16,7,21,Ticks_Linear_5,121,5,42,127,639298884
16,7,21,Ticks_Linear_5,122,5,42,127,639899076
16,7,21,Ticks_Linear_5,123,1,48,28,639912652
16,7,21,Ticks_Linear_5,124,1,48,20,640470332
16,7,21,Ticks_Linear_5,125,5,42,127,640499228
16,7,21,Ticks_Linear_5,126,1,48,29,641048216
16,7,21,Ticks_Linear_5,127,5,42,127,641099168
16,7,21,Ticks_Linear_5,128,1,48,29,641677416
16,7,21,Ticks_Linear_5,129,5,42,127,641709372
16,7,21,Ticks_Linear_5,130,1,48,27,642319512
16,7,21,Ticks_Linear_5,131,5,42,127,642329044
16,7,21,Ticks_Linear_5,132,1,48,25,642933000
16,7,21,Ticks_Linear_5,133,5,42,127,642939248
16,7,21,Ticks_Linear_5,134,1,48,30,643519332
16,7,21,Ticks_Linear_5,135,5,42,127,643548532
16,7,21,Ticks_Linear_5,136,1,48,24,644137736
16,7,21,Ticks_Linear_5,137,5,42,127,644158860
16,7,21,Ticks_Linear_5,138,1,48,26,644775296
16,7,21,Ticks_Linear_5,139,5,42,127,644779604
16,7,21,Ticks_Linear_5,140,5,42,127,645398840
16,7,21,Ticks_Linear_5,141,1,48,24,645399804
16,7,21,Ticks_Linear_5,142,1,48,29,646003384
16,7,21,Ticks_Linear_5,143,5,42,127,646018456
16,7,21,Ticks_Linear_5,144,1,48,24,646595096
16,7,21,Ticks_Linear_5,145,5,42,127,646639100
16,7,21,Ticks_Linear_5,146,1,48,29,647250684
16,7,21,Ticks_Linear_5,147,5,42,127,647258504
16,7,21,Ticks_Linear_5,148,5,42,127,647889248
16,7,21,Ticks_Linear_5,149,1,48,26,647916740
16,7,21,Ticks_Linear_5,150,1,48,24,648516968
16,7,21,Ticks_Linear_5,151,5,42,127,648518932
16,7,21,Ticks_Linear_5,152,1,48,24,649126768
16,7,21,Ticks_Linear_5,153,5,42,127,649148800
16,7,21,Ticks_Linear_5,154,1,48,30,649729188
16,7,21,Ticks_Linear_5,155,5,42,127,649778644
16,7,21,Ticks_Linear_5,156,1,48,30,650362484
16,7,21,Ticks_Linear_5,157,5,42,127,650409628
16,7,21,Ticks_Linear_5,158,1,48,23,651015124
16,7,21,Ticks_Linear_5,159,5,42,127,651049340
16,7,21,Ticks_Linear_5,160,1,48,28,651674076
16,7,21,Ticks_Linear_5,161,5,42,127,651689300
16,7,21,Ticks_Linear_5,162,1,48,27,652289348
16,7,21,Ticks_Linear_5,163,5,42,127,652329308
16,7,21,Ticks_Linear_5,164,1,48,34,652952324
16,7,21,Ticks_Linear_5,165,5,42,127,652969416
16,7,21,Ticks_Linear_5,166,1,48,28,653548608
16,7,21,Ticks_Linear_5,167,5,42,127,653609424
16,7,21,Ticks_Linear_5,168,1,48,34,654237012
16,7,21,Ticks_Linear_5,169,5,42,127,654258584
16,7,21,Ticks_Linear_5,170,1,48,28,654889504
16,7,21,Ticks_Linear_5,171,5,42,127,654908760
16,7,21,Ticks_Linear_5,172,1,48,31,655544780
16,7,21,Ticks_Linear_5,173,5,42,127,655558884
16,7,21,Ticks_Linear_5,174,1,48,24,656170368
16,7,21,Ticks_Linear_5,175,5,42,127,656209384
16,7,21,Ticks_Linear_5,176,1,48,21,656852416
16,7,21,Ticks_Linear_5,177,5,42,127,656858592
16,7,21,Ticks_Linear_5,178,1,48,24,657470600
16,7,21,Ticks_Linear_5,179,5,42,127,657519032
16,7,21,Ticks_Linear_5,180,1,48,30,658153544
16,7,21,Ticks_Linear_5,181,5,42,127,658178556
16,7,21,Ticks_Linear_5,182,1,48,28,658807336
16,7,21,Ticks_Linear_5,183,5,42,127,658838852
16,7,21,Ticks_Linear_5,184,1,48,27,659477248
16,7,21,Ticks_Linear_5,185,5,42,127,659499344
16,7,21,Ticks_Linear_5,186,1,48,20,660146740
16,7,21,Ticks_Linear_5,187,5,42,127,660158964
16,7,21,Ticks_Linear_5,188,1,48,26,660776720
16,7,21,Ticks_Linear_5,189,5,42,127,660828608
16,7,21,Ticks_Linear_5,190,1,48,27,661470068
16,7,21,Ticks_Linear_5,191,5,42,127,661499192
16,7,21,Ticks_Linear_5,192,1,48,26,662126240
16,7,21,Ticks_Linear_5,193,5,42,127,662169056
16,7,21,Ticks_Linear_5,194,1,48,26,662823524
16,7,21,Ticks_Linear_5,195,5,42,127,662838600
16,7,21,Ticks_Linear_5,196,1,48,24,663485684
16,7,21,Ticks_Linear_5,197,5,42,127,663509432
16,7,21,Ticks_Linear_5,198,1,48,29,664122108
16,7,21,Ticks_Linear_5,199,5,42,127,664189240
16,7,21,Ticks_Linear_5,200,1,48,28,664827044
16,7,21,Ticks_Linear_5,201,5,42,127,664869172
16,7,21,Ticks_Linear_5,202,1,48,28,665503624
16,7,21,Ticks_Linear_5,203,5,42,127,665549052
16,7,21,Ticks_Linear_5,204,5,42,127,666229016
16,7,21,Ticks_Linear_5,205,1,48,26,666247008
16,7,21,Ticks_Linear_5,206,5,42,127,666908948
16,7,21,Ticks_Linear_5,207,1,48,24,666936960
16,7,21,Ticks_Linear_5,208,1,48,29,667560892
16,7,21,Ticks_Linear_5,209,5,42,127,667599216
16,7,21,Ticks_Linear_5,210,1,48,19,668233496
16,7,21,Ticks_Linear_5,211,5,42,127,668289416
16,7,21,Ticks_Linear_5,212,1,48,21,668954648
16,7,21,Ticks_Linear_5,213,5,42,127,668978840
16,7,21,Ticks_Linear_5,214,1,48,30,669643496
16,7,21,Ticks_Linear_5,215,5,42,127,669668668
16,7,21,Ticks_Linear_5,216,1,48,35,670309560
16,7,21,Ticks_Linear_5,217,5,42,127,670358864
16,7,21,Ticks_Linear_5,218,1,48,33,670985068
16,7,21,Ticks_Linear_5,219,5,42,127,671059304
16,7,21,Ticks_Linear_5,220,1,48,22,671702632
16,7,21,Ticks_Linear_5,221,5,42,127,671758900
16,7,21,Ticks_Linear_5,222,1,48,32,672458596
16,7,21,Ticks_Linear_5,223,5,42,127,672460456
16,7,21,Ticks_Linear_5,224,1,48,26,673123100
16,7,21,Ticks_Linear_5,225,5,42,127,673158512
16,7,21,Ticks_Linear_5,226,1,48,28,673809392
16,7,21,Ticks_Linear_5,227,5,42,127,673858928
16,7,21,Ticks_Linear_5,228,1,48,27,674506312
16,7,21,Ticks_Linear_5,229,5,42,127,674568640
16,7,21,Ticks_Linear_5,230,5,42,127,675279328
16,7,21,Ticks_Linear_5,231,1,48,25,675319376
16,7,21,Ticks_Linear_5,232,1,48,27,675961032
16,7,21,Ticks_Linear_5,233,5,42,127,675988812
16,7,21,Ticks_Linear_5,234,1,48,24,676623620
16,7,21,Ticks_Linear_5,235,5,42,127,676698452
16,7,21,Ticks_Linear_5,236,5,42,127,677409264
16,7,21,Ticks_Linear_5,237,1,48,22,677422472
16,7,21,Ticks_Linear_5,238,1,48,27,678128244
16,7,21,Ticks_Linear_5,239,5,42,127,678129884
16,7,21,Ticks_Linear_5,240,1,48,27,678842472
16,7,21,Ticks_Linear_5,241,5,42,127,678848868
16,7,21,Ticks_Linear_5,242,1,48,23,679518020
16,7,21,Ticks_Linear_5,243,5,42,127,679568676
16,7,21,Ticks_Linear_5,244,5,42,127,680288560
16,7,21,Ticks_Linear_5,245,1,48,24,680307152
16,7,21,Ticks_Linear_5,246,1,48,28,680990948
16,7,21,Ticks_Linear_5,247,5,42,127,681008556
16,7,21,Ticks_Linear_5,248,1,48,27,681665508
16,7,21,Ticks_Linear_5,249,5,42,127,681738528
16,7,21,Ticks_Linear_5,250,1,48,28,682424420
16,7,21,Ticks_Linear_5,251,5,42,127,682468648
16,7,21,Ticks_Linear_5,252,5,42,127,683198704
16,7,21,Ticks_Linear_5,253,1,48,28,683205472
16,7,21,Ticks_Linear_5,254,1,48,25,683921148
16,7,21,Ticks_Linear_5,255,5,42,127,683929116
16,7,21,Ticks_Linear_5,256,1,48,24,684637820
16,7,21,Ticks_Linear_5,257,5,42,127,684659016
16,7,21,Ticks_Linear_5,258,1,48,28,685328892
16,7,21,Ticks_Linear_5,259,5,42,127,685399380
16,7,21,Ticks_Linear_5,260,1,48,29,686126448
16,7,21,Ticks_Linear_5,261,5,42,127,686138820
16,7,21,Ticks_Linear_5,262,1,48,22,686861948
16,7,21,Ticks_Linear_5,263,5,42,127,686879036
16,7,21,Ticks_Linear_5,264,1,48,27,687591392
16,7,21,Ticks_Linear_5,265,5,42,127,687618280
16,7,21,Ticks_Linear_5,266,1,48,21,688320920
16,7,21,Ticks_Linear_5,267,5,42,127,688358868
16,7,21,Ticks_Linear_5,268,1,48,22,689098296
16,7,21,Ticks_Linear_5,269,5,42,127,689109248
16,7,21,Ticks_Linear_5,270,1,48,26,689824740
16,7,21,Ticks_Linear_5,271,5,42,127,689858960
16,7,21,Ticks_Linear_5,272,1,48,23,690566836
16,7,21,Ticks_Linear_5,273,5,42,127,690608368
16,7,21,Ticks_Linear_5,274,1,48,26,691290228
16,7,21,Ticks_Linear_5,275,5,42,127,691359048
16,7,21,Ticks_Linear_5,276,1,48,22,692086204
16,7,21,Ticks_Linear_5,277,5,42,127,692108908
16,7,21,Ticks_Linear_5,278,1,48,27,692816400
16,7,21,Ticks_Linear_5,279,5,42,127,692868560
16,7,21,Ticks_Linear_5,280,1,48,28,693575208
16,7,21,Ticks_Linear_5,281,5,42,127,693629260
16,7,21,Ticks_Linear_5,282,1,48,23,694333520
16,7,21,Ticks_Linear_5,283,5,42,127,694389060
16,7,21,Ticks_Linear_5,284,5,42,127,695148796
16,7,21,Ticks_Linear_5,285,1,48,31,695152804
16,7,21,Ticks_Linear_5,286,5,42,127,695908672
16,7,21,Ticks_Linear_5,287,1,48,24,695912380
16,7,21,Ticks_Linear_5,288,1,48,28,696623388
16,7,21,Ticks_Linear_5,289,5,42,127,696678636
16,7,21,Ticks_Linear_5,290,1,48,27,697363448
16,7,21,Ticks_Linear_5,291,5,42,127,697448752
16,7,21,Ticks_Linear_5,292,1,48,26,698171776
16,7,21,Ticks_Linear_5,293,5,42,127,698218944
16,7,21,Ticks_Linear_5,294,5,42,127,698988920
16,7,21,Ticks_Linear_5,295,1,48,27,699709500
16,7,21,Ticks_Linear_5,296,5,42,127,699759056
16,7,21,Ticks_Linear_5,297,1,48,24,700431168
16,7,21,Ticks_Linear_5,298,5,42,127,700539400
16,7,21,Ticks_Linear_5,299,1,48,24,701259480
16,7,21,Ticks_Linear_5,300,5,42,127,701318432
16,7,21,Ticks_Linear_5,301,1,48,24,702082300
16,7,21,Ticks_Linear_5,302,5,42,127,702098716
16,7,21,Ticks_Linear_5,303,1,48,24,702853012
16,7,21,Ticks_Linear_5,304,5,42,127,702879300
16,7,21,Ticks_Linear_5,305,1,48,23,703628820
16,7,21,Ticks_Linear_5,306,5,42,127,703659440
16,7,21,Ticks_Linear_5,307,1,48,26,704399236
16,7,21,Ticks_Linear_5,308,5,42,127,704448848
16,7,21,Ticks_Linear_5,309,1,48,28,705216984
16,7,21,Ticks_Linear_5,310,5,42,127,705239376
16,7,21,Ticks_Linear_5,311,1,48,25,705973788
16,7,21,Ticks_Linear_5,312,5,42,127,706029156
16,7,21,Ticks_Linear_5,313,1,48,31,706769556
16,7,21,Ticks_Linear_5,314,5,42,127,706818416
16,7,21,Ticks_Linear_5,315,1,48,28,707557992
16,7,21,Ticks_Linear_5,316,5,42,127,707609240
16,7,21,Ticks_Linear_5,317,1,48,27,708395752
16,7,21,Ticks_Linear_5,318,5,42,127,708408888
16,7,21,Ticks_Linear_5,319,1,48,25,709133804
16,7,21,Ticks_Linear_5,320,5,42,127,709208412
16,7,21,Ticks_Linear_5,321,1,48,25,709948640
16,7,21,Ticks_Linear_5,322,5,42,127,710009256
16,7,21,Ticks_Linear_5,323,1,48,24,710769096
16,7,21,Ticks_Linear_5,324,5,42,127,710809128
16,7,21,Ticks_Linear_5,325,1,48,34,711564696
16,7,21,Ticks_Linear_5,326,5,42,127,711608780
16,7,21,Ticks_Linear_5,327,1,48,33,712336844
16,7,21,Ticks_Linear_5,328,5,42,127,712418748
16,7,21,Ticks_Linear_5,329,1,48,26,713194052
16,7,21,Ticks_Linear_5,330,5,42,127,713229084
16,7,21,Ticks_Linear_5,331,1,48,24,713998940
16,7,21,Ticks_Linear_5,332,5,42,127,714038752
16,7,21,Ticks_Linear_5,333,5,42,127,714848900
16,7,21,Ticks_Linear_5,334,1,48,22,714865768
16,7,21,Ticks_Linear_5,335,1,48,22,715639836
16,7,21,Ticks_Linear_5,336,5,42,127,715658788
16,7,21,Ticks_Linear_5,0,9999,9999,9999,606476360
16,7,21,Ticks_Linear_5,1,9999,9999,9999,606956624
16,7,21,Ticks_Linear_5,2,9999,9999,9999,607436868
16,7,21,Ticks_Linear_5,3,9999,9999,9999,607916156
16,7,21,Ticks_Linear_5,4,9999,9999,9999,608396400
16,7,21,Ticks_Linear_5,5,9999,9999,9999,608886884
16,7,21,Ticks_Linear_5,6,9999,9999,9999,609376324
16,7,21,Ticks_Linear_5,7,9999,9999,9999,609866860
16,7,21,Ticks_Linear_5,8,9999,9999,9999,610356300
16,7,21,Ticks_Linear_5,9,9999,9999,9999,610846784
16,7,21,Ticks_Linear_5,10,9999,9999,9999,611346540
16,7,21,Ticks_Linear_5,11,9999,9999,9999,611846224
16,7,21,Ticks_Linear_5,12,9999,9999,9999,612346952
16,7,21,Ticks_Linear_5,13,9999,9999,9999,612846708
16,7,21,Ticks_Linear_5,14,9999,9999,9999,613346392
16,7,21,Ticks_Linear_5,15,9999,9999,9999,613856316
16,7,21,Ticks_Linear_5,16,9999,9999,9999,614366316
16,7,21,Ticks_Linear_5,17,9999,9999,9999,614876240
16,7,21,Ticks_Linear_5,18,9999,9999,9999,615386236
16,7,21,Ticks_Linear_5,19,9999,9999,9999,615896160
16,7,21,Ticks_Linear_5,20,9999,9999,9999,616416328
16,7,21,Ticks_Linear_5,21,9999,9999,9999,616936568
16,7,21,Ticks_Linear_5,22,9999,9999,9999,617456736
16,7,21,Ticks_Linear_5,23,9999,9999,9999,617976904
16,7,21,Ticks_Linear_5,24,9999,9999,9999,618496100
16,7,21,Ticks_Linear_5,25,9999,9999,9999,619026508
16,7,21,Ticks_Linear_5,26,9999,9999,9999,619556920
16,7,21,Ticks_Linear_5,27,9999,9999,9999,620086356
16,7,21,Ticks_Linear_5,28,9999,9999,9999,620616764
16,7,21,Ticks_Linear_5,29,9999,9999,9999,621146236
16,7,21,Ticks_Linear_5,30,9999,9999,9999,621686884
16,7,21,Ticks_Linear_5,31,9999,9999,9999,622226556
16,7,21,Ticks_Linear_5,32,9999,9999,9999,622766164
16,7,21,Ticks_Linear_5,33,9999,9999,9999,623306812
16,7,21,Ticks_Linear_5,34,9999,9999,9999,623846500
16,7,21,Ticks_Linear_5,35,9999,9999,9999,624396340
16,7,21,Ticks_Linear_5,36,9999,9999,9999,624946260
16,7,21,Ticks_Linear_5,37,9999,9999,9999,625496140
16,7,21,Ticks_Linear_5,38,9999,9999,9999,626047032
16,7,21,Ticks_Linear_5,39,9999,9999,9999,626596948
16,7,21,Ticks_Linear_5,40,9999,9999,9999,627157112
16,7,21,Ticks_Linear_5,41,9999,9999,9999,627716156
16,7,21,Ticks_Linear_5,42,9999,9999,9999,628276324
16,7,21,Ticks_Linear_5,43,9999,9999,9999,628836440
16,7,21,Ticks_Linear_5,44,9999,9999,9999,629396604
16,7,21,Ticks_Linear_5,45,9999,9999,9999,629966928
16,7,21,Ticks_Linear_5,46,9999,9999,9999,630536288
16,7,21,Ticks_Linear_5,47,9999,9999,9999,631106620
16,7,21,Ticks_Linear_5,48,9999,9999,9999,631677052
16,7,21,Ticks_Linear_5,49,9999,9999,9999,632246340
16,7,21,Ticks_Linear_5,50,9999,9999,9999,632826988
16,7,21,Ticks_Linear_5,51,9999,9999,9999,633406588
16,7,21,Ticks_Linear_5,52,9999,9999,9999,633986144
16,7,21,Ticks_Linear_5,53,9999,9999,9999,634566792
16,7,21,Ticks_Linear_5,54,9999,9999,9999,635146328
16,7,21,Ticks_Linear_5,55,9999,9999,9999,635736188
16,7,21,Ticks_Linear_5,56,9999,9999,9999,636327004
16,7,21,Ticks_Linear_5,57,9999,9999,9999,636916848
16,7,21,Ticks_Linear_5,58,9999,9999,9999,637506616
16,7,21,Ticks_Linear_5,59,9999,9999,9999,638096488
16,7,21,Ticks_Linear_5,60,9999,9999,9999,638696500
16,7,21,Ticks_Linear_5,61,9999,9999,9999,639296584
16,7,21,Ticks_Linear_5,62,9999,9999,9999,639896704
16,7,21,Ticks_Linear_5,63,9999,9999,9999,640496708
16,7,21,Ticks_Linear_5,64,9999,9999,9999,641096796
16,7,21,Ticks_Linear_5,65,9999,9999,9999,641707076
16,7,21,Ticks_Linear_5,66,9999,9999,9999,642326600
16,7,21,Ticks_Linear_5,67,9999,9999,9999,642936952
16,7,21,Ticks_Linear_5,68,9999,9999,9999,643546236
16,7,21,Ticks_Linear_5,69,9999,9999,9999,644156488
16,7,21,Ticks_Linear_5,70,9999,9999,9999,644777084
16,7,21,Ticks_Linear_5,71,9999,9999,9999,645396544
16,7,21,Ticks_Linear_5,72,9999,9999,9999,646016088
16,7,21,Ticks_Linear_5,73,9999,9999,9999,646636656
16,7,21,Ticks_Linear_5,74,9999,9999,9999,647256132
16,7,21,Ticks_Linear_5,75,9999,9999,9999,647886952
16,7,21,Ticks_Linear_5,76,9999,9999,9999,648516676
16,7,21,Ticks_Linear_5,77,9999,9999,9999,649146428
16,7,21,Ticks_Linear_5,78,9999,9999,9999,649776200
16,7,21,Ticks_Linear_5,79,9999,9999,9999,650407032
16,7,21,Ticks_Linear_5,80,9999,9999,9999,651046968
16,7,21,Ticks_Linear_5,81,9999,9999,9999,651687004
16,7,21,Ticks_Linear_5,82,9999,9999,9999,652327012
16,7,21,Ticks_Linear_5,83,9999,9999,9999,652966972
16,7,21,Ticks_Linear_5,84,9999,9999,9999,653606980
16,7,21,Ticks_Linear_5,85,9999,9999,9999,654256212
16,7,21,Ticks_Linear_5,86,9999,9999,9999,654906460
16,7,21,Ticks_Linear_5,87,9999,9999,9999,655556664
16,7,21,Ticks_Linear_5,88,9999,9999,9999,656206940
16,7,21,Ticks_Linear_5,89,9999,9999,9999,656856144
16,7,21,Ticks_Linear_5,90,9999,9999,9999,657516660
16,7,21,Ticks_Linear_5,91,9999,9999,9999,658176112
16,7,21,Ticks_Linear_5,92,9999,9999,9999,658836552
16,7,21,Ticks_Linear_5,93,9999,9999,9999,659497048
16,7,21,Ticks_Linear_5,94,9999,9999,9999,660156520
16,7,21,Ticks_Linear_5,95,9999,9999,9999,660826236
16,7,21,Ticks_Linear_5,96,9999,9999,9999,661496896
16,7,21,Ticks_Linear_5,97,9999,9999,9999,662166612
16,7,21,Ticks_Linear_5,98,9999,9999,9999,662836300
16,7,21,Ticks_Linear_5,99,9999,9999,9999,663507060
16,7,21,Ticks_Linear_5,100,9999,9999,9999,664186944
16,7,21,Ticks_Linear_5,101,9999,9999,9999,664866872
16,7,21,Ticks_Linear_5,102,9999,9999,9999,665546828
16,7,21,Ticks_Linear_5,103,9999,9999,9999,666226792
16,7,21,Ticks_Linear_5,104,9999,9999,9999,666906724
16,7,21,Ticks_Linear_5,105,9999,9999,9999,667596920
16,7,21,Ticks_Linear_5,106,9999,9999,9999,668287044
16,7,21,Ticks_Linear_5,107,9999,9999,9999,668976244
16,7,21,Ticks_Linear_5,108,9999,9999,9999,669666368
16,7,21,Ticks_Linear_5,109,9999,9999,9999,670356568
16,7,21,Ticks_Linear_5,110,9999,9999,9999,671057008
16,7,21,Ticks_Linear_5,111,9999,9999,9999,671756380
16,7,21,Ticks_Linear_5,112,9999,9999,9999,672456824
16,7,21,Ticks_Linear_5,113,9999,9999,9999,673156212
16,7,21,Ticks_Linear_5,114,9999,9999,9999,673856628
16,7,21,Ticks_Linear_5,115,9999,9999,9999,674566268
16,7,21,Ticks_Linear_5,116,9999,9999,9999,675276880
16,7,21,Ticks_Linear_5,117,9999,9999,9999,675986512
16,7,21,Ticks_Linear_5,118,9999,9999,9999,676696152
16,7,21,Ticks_Linear_5,119,9999,9999,9999,677406816
16,7,21,Ticks_Linear_5,120,9999,9999,9999,678126700
16,7,21,Ticks_Linear_5,121,9999,9999,9999,678846572
16,7,21,Ticks_Linear_5,122,9999,9999,9999,679566452
16,7,21,Ticks_Linear_5,123,9999,9999,9999,680286264
16,7,21,Ticks_Linear_5,124,9999,9999,9999,681006184
16,7,21,Ticks_Linear_5,125,9999,9999,9999,681736308
16,7,21,Ticks_Linear_5,126,9999,9999,9999,682466428
16,7,21,Ticks_Linear_5,127,9999,9999,9999,683196480
16,7,21,Ticks_Linear_5,128,9999,9999,9999,683926596
16,7,21,Ticks_Linear_5,129,9999,9999,9999,684656720
16,7,21,Ticks_Linear_5,130,9999,9999,9999,685397084
16,7,21,Ticks_Linear_5,131,9999,9999,9999,686136376
16,7,21,Ticks_Linear_5,132,9999,9999,9999,686876740
16,7,21,Ticks_Linear_5,133,9999,9999,9999,687616056
16,7,21,Ticks_Linear_5,134,9999,9999,9999,688356420
16,7,21,Ticks_Linear_5,135,9999,9999,9999,689107024
16,7,21,Ticks_Linear_5,136,9999,9999,9999,689856588
16,7,21,Ticks_Linear_5,137,9999,9999,9999,690606148
16,7,21,Ticks_Linear_5,138,9999,9999,9999,691356752
16,7,21,Ticks_Linear_5,139,9999,9999,9999,692106312
16,7,21,Ticks_Linear_5,140,9999,9999,9999,692866116
16,7,21,Ticks_Linear_5,141,9999,9999,9999,693626964
16,7,21,Ticks_Linear_5,142,9999,9999,9999,694386764
16,7,21,Ticks_Linear_5,143,9999,9999,9999,695146572
16,7,21,Ticks_Linear_5,144,9999,9999,9999,695906376
16,7,21,Ticks_Linear_5,145,9999,9999,9999,696676412
16,7,21,Ticks_Linear_5,146,9999,9999,9999,697446456
16,7,21,Ticks_Linear_5,147,9999,9999,9999,698216572
16,7,21,Ticks_Linear_5,148,9999,9999,9999,698986624
16,7,21,Ticks_Linear_5,149,9999,9999,9999,699756608
16,7,21,Ticks_Linear_5,150,9999,9999,9999,700536952
16,7,21,Ticks_Linear_5,151,9999,9999,9999,701316208
16,7,21,Ticks_Linear_5,152,9999,9999,9999,702096496
16,7,21,Ticks_Linear_5,153,9999,9999,9999,702876780
16,7,21,Ticks_Linear_5,154,9999,9999,9999,703657068
16,7,21,Ticks_Linear_5,155,9999,9999,9999,704446548
16,7,21,Ticks_Linear_5,156,9999,9999,9999,705237076
16,7,21,Ticks_Linear_5,157,9999,9999,9999,706026560
16,7,21,Ticks_Linear_5,158,9999,9999,9999,706816116
16,7,21,Ticks_Linear_5,159,9999,9999,9999,707606648
16,7,21,Ticks_Linear_5,160,9999,9999,9999,708406368
16,7,21,Ticks_Linear_5,161,9999,9999,9999,709206116
16,7,21,Ticks_Linear_5,162,9999,9999,9999,710006884
16,7,21,Ticks_Linear_5,163,9999,9999,9999,710806612
16,7,21,Ticks_Linear_5,164,9999,9999,9999,711606332
16,7,21,Ticks_Linear_5,165,9999,9999,9999,712416376
16,7,21,Ticks_Linear_5,166,9999,9999,9999,713226344
16,7,21,Ticks_Linear_5,167,9999,9999,9999,714036308
16,7,21,Ticks_Linear_5,168,9999,9999,9999,714846308
16,7,21,Ticks_Linear_5,169,9999,9999,9999,715656268
16,8,20,Ticks_Linear_8,0,5,42,127,730044124
16,8,20,Ticks_Linear_8,1,1,48,26,730701852
16,8,20,Ticks_Linear_8,2,5,42,127,730863964
16,8,20,Ticks_Linear_8,3,1,48,23,731617908
16,8,20,Ticks_Linear_8,4,5,42,127,731684336
16,8,20,Ticks_Linear_8,5,1,48,32,732455684
16,8,20,Ticks_Linear_8,6,5,42,127,732504572
16,8,20,Ticks_Linear_8,7,1,48,30,733269712
16,8,20,Ticks_Linear_8,8,5,42,127,733333828
16,8,20,Ticks_Linear_8,9,1,48,29,734128124
16,8,20,Ticks_Linear_8,10,5,42,127,734143944
16,8,20,Ticks_Linear_8,11,1,48,29,734907288
16,8,20,Ticks_Linear_8,12,5,42,127,734953840
16,8,20,Ticks_Linear_8,13,1,48,35,735709032
16,8,20,Ticks_Linear_8,14,5,42,127,735763956
16,8,20,Ticks_Linear_8,15,1,48,31,736525440
16,8,20,Ticks_Linear_8,16,5,42,127,736573700
16,8,20,Ticks_Linear_8,17,1,48,25,737330244
16,8,20,Ticks_Linear_8,18,5,42,127,737383768
16,8,20,Ticks_Linear_8,19,1,48,29,738156456
16,8,20,Ticks_Linear_8,20,5,42,127,738183716
16,8,20,Ticks_Linear_8,21,1,48,31,738904676
16,8,20,Ticks_Linear_8,22,5,42,127,738984260
16,8,20,Ticks_Linear_8,23,5,42,127,739784140
16,8,20,Ticks_Linear_8,24,1,48,29,739793020
16,8,20,Ticks_Linear_8,25,1,48,31,740559592
16,8,20,Ticks_Linear_8,26,5,42,127,740583712
16,8,20,Ticks_Linear_8,27,1,48,29,741302364
16,8,20,Ticks_Linear_8,28,5,42,127,741383664
16,8,20,Ticks_Linear_8,29,1,48,27,742153816
16,8,20,Ticks_Linear_8,30,5,42,127,742174044
16,8,20,Ticks_Linear_8,31,1,48,24,742906588
16,8,20,Ticks_Linear_8,32,5,42,127,742963524
16,8,20,Ticks_Linear_8,33,5,42,127,743754380
16,8,20,Ticks_Linear_8,34,1,48,24,743788224
16,8,20,Ticks_Linear_8,35,1,48,26,744489140
16,8,20,Ticks_Linear_8,36,5,42,127,744543560
16,8,20,Ticks_Linear_8,37,1,48,30,745255076
16,8,20,Ticks_Linear_8,38,5,42,127,745334312
16,8,20,Ticks_Linear_8,39,1,48,27,746067088
16,8,20,Ticks_Linear_8,40,5,42,127,746114452
16,8,20,Ticks_Linear_8,41,1,48,26,746878768
16,8,20,Ticks_Linear_8,42,5,42,127,746903860
16,8,20,Ticks_Linear_8,43,1,48,25,747637828
16,8,20,Ticks_Linear_8,44,5,42,127,747684296
16,8,20,Ticks_Linear_8,45,1,48,27,748412364
16,8,20,Ticks_Linear_8,46,5,42,127,748463464
16,8,20,Ticks_Linear_8,47,1,48,19,749234444
16,8,20,Ticks_Linear_8,48,5,42,127,749243752
16,8,20,Ticks_Linear_8,49,1,48,20,749989156
16,8,20,Ticks_Linear_8,50,5,42,127,750013724
16,8,20,Ticks_Linear_8,51,1,48,21,750772740
16,8,20,Ticks_Linear_8,52,5,42,127,750783992
16,8,20,Ticks_Linear_8,53,1,48,28,751526628
16,8,20,Ticks_Linear_8,54,5,42,127,751554036
16,8,20,Ticks_Linear_8,55,1,48,26,752303188
16,8,20,Ticks_Linear_8,56,5,42,127,752324156
16,8,20,Ticks_Linear_8,57,5,42,127,753093984
16,8,20,Ticks_Linear_8,58,1,48,25,753102336
16,8,20,Ticks_Linear_8,59,5,42,127,753854084
16,8,20,Ticks_Linear_8,60,1,48,16,753882476
16,8,20,Ticks_Linear_8,61,5,42,127,754613812
16,8,20,Ticks_Linear_8,62,1,48,27,754634052
16,8,20,Ticks_Linear_8,63,5,42,127,755373392
16,8,20,Ticks_Linear_8,64,1,48,29,755376728
16,8,20,Ticks_Linear_8,65,5,42,127,756134236
16,8,20,Ticks_Linear_8,66,1,48,25,756174892
16,8,20,Ticks_Linear_8,67,1,48,27,756809360
16,8,20,Ticks_Linear_8,68,5,42,127,756894184
16,8,20,Ticks_Linear_8,69,1,48,24,757604008
16,8,20,Ticks_Linear_8,70,5,42,127,757643892
16,8,20,Ticks_Linear_8,71,5,42,127,758394208
16,8,20,Ticks_Linear_8,72,1,48,21,758399116
16,8,20,Ticks_Linear_8,73,1,48,29,759123908
16,8,20,Ticks_Linear_8,74,5,42,127,759143764
16,8,20,Ticks_Linear_8,75,5,42,127,759894376
16,8,20,Ticks_Linear_8,76,1,48,28,759909748
16,8,20,Ticks_Linear_8,77,5,42,127,760644060
16,8,20,Ticks_Linear_8,78,1,48,20,760660800
16,8,20,Ticks_Linear_8,79,5,42,127,761384500
16,8,20,Ticks_Linear_8,80,1,48,24,761400400
16,8,20,Ticks_Linear_8,81,1,48,24,762107172
16,8,20,Ticks_Linear_8,82,5,42,127,762123588
16,8,20,Ticks_Linear_8,83,1,48,24,762848056
16,8,20,Ticks_Linear_8,84,5,42,127,762863952
16,8,20,Ticks_Linear_8,85,5,42,127,763604544
16,8,20,Ticks_Linear_8,86,1,48,22,763605508
16,8,20,Ticks_Linear_8,87,1,48,23,764298288
16,8,20,Ticks_Linear_8,88,5,42,127,764343560
16,8,20,Ticks_Linear_8,89,5,42,127,765073688
16,8,20,Ticks_Linear_8,90,1,48,18,765100124
16,8,20,Ticks_Linear_8,91,1,48,21,765772736
16,8,20,Ticks_Linear_8,92,5,42,127,765804100
16,8,20,Ticks_Linear_8,93,5,42,127,766533932
16,8,20,Ticks_Linear_8,94,1,48,24,766562916
16,8,20,Ticks_Linear_8,95,1,48,28,767224356
16,8,20,Ticks_Linear_8,96,5,42,127,767264392
16,8,20,Ticks_Linear_8,97,1,48,23,767985132
16,8,20,Ticks_Linear_8,98,5,42,127,767994216
16,8,20,Ticks_Linear_8,99,1,48,26,768683260
16,8,20,Ticks_Linear_8,100,5,42,127,768714248
16,8,20,Ticks_Linear_8,101,5,42,127,769433908
16,8,20,Ticks_Linear_8,102,1,48,28,769449136
16,8,20,Ticks_Linear_8,103,1,48,26,770140804
16,8,20,Ticks_Linear_8,104,5,42,127,770153788
16,8,20,Ticks_Linear_8,105,1,48,21,770873944
16,8,20,Ticks_Linear_8,106,5,42,127,770875432
16,8,20,Ticks_Linear_8,107,1,48,25,771576504
16,8,20,Ticks_Linear_8,108,5,42,127,771593596
16,8,20,Ticks_Linear_8,109,5,42,127,772304212
16,8,20,Ticks_Linear_8,110,1,48,21,772313980
16,8,20,Ticks_Linear_8,111,5,42,127,773013848
16,8,20,Ticks_Linear_8,112,1,48,19,773033784
16,8,20,Ticks_Linear_8,113,1,48,26,773671072
16,8,20,Ticks_Linear_8,114,5,42,127,773723552
16,8,20,Ticks_Linear_8,115,1,48,20,774418840
16,8,20,Ticks_Linear_8,116,5,42,127,774434284
16,8,20,Ticks_Linear_8,117,1,48,22,775133492
16,8,20,Ticks_Linear_8,118,5,42,127,775144220
16,8,20,Ticks_Linear_8,119,5,42,127,775844076
16,8,20,Ticks_Linear_8,120,1,48,19,775855036
16,8,20,Ticks_Linear_8,121,1,48,19,776537292
16,8,20,Ticks_Linear_8,122,5,42,127,776543760
16,8,20,Ticks_Linear_8,123,1,48,23,777193300
16,8,20,Ticks_Linear_8,124,5,42,127,777244028
16,8,20,Ticks_Linear_8,125,5,42,127,777944476
16,8,20,Ticks_Linear_8,126,1,48,21,777987368
16,8,20,Ticks_Linear_8,127,5,42,127,778654044
16,8,20,Ticks_Linear_8,128,1,48,22,778672036
16,8,20,Ticks_Linear_8,129,5,42,127,779344240
16,8,20,Ticks_Linear_8,130,1,48,19,779377556
16,8,20,Ticks_Linear_8,131,1,48,20,779980384
16,8,20,Ticks_Linear_8,132,5,42,127,780034484
16,8,20,Ticks_Linear_8,133,1,48,14,780706252
16,8,20,Ticks_Linear_8,134,5,42,127,780733880
16,8,20,Ticks_Linear_8,135,5,42,127,781423936
16,8,20,Ticks_Linear_8,136,1,48,24,781462192
16,8,20,Ticks_Linear_8,137,1,48,26,782092612
16,8,20,Ticks_Linear_8,138,5,42,127,782114028
16,8,20,Ticks_Linear_8,139,1,48,22,782763968
16,8,20,Ticks_Linear_8,140,5,42,127,782793988
16,8,20,Ticks_Linear_8,141,1,48,21,783449752
16,8,20,Ticks_Linear_8,142,5,42,127,783474020
16,8,20,Ticks_Linear_8,143,5,42,127,784154032
16,8,20,Ticks_Linear_8,144,1,48,23,784200604
16,8,20,Ticks_Linear_8,145,5,42,127,784833916
16,8,20,Ticks_Linear_8,146,1,48,23,784834880
16,8,20,Ticks_Linear_8,147,1,48,24,785486756
16,8,20,Ticks_Linear_8,148,5,42,127,785513720
16,8,20,Ticks_Linear_8,149,1,48,24,786172232
16,8,20,Ticks_Linear_8,150,5,42,127,786183560
16,8,20,Ticks_Linear_8,151,5,42,127,786854476
16,8,20,Ticks_Linear_8,152,1,48,23,786859604
16,8,20,Ticks_Linear_8,153,1,48,26,787499592
16,8,20,Ticks_Linear_8,154,5,42,127,787523960
16,8,20,Ticks_Linear_8,155,5,42,127,788193508
16,8,20,Ticks_Linear_8,156,1,48,20,788207604
16,8,20,Ticks_Linear_8,157,1,48,29,788809636
16,8,20,Ticks_Linear_8,158,5,42,127,788864484
16,8,20,Ticks_Linear_8,159,5,42,127,789523792
16,8,20,Ticks_Linear_8,160,1,48,25,789552184
16,8,20,Ticks_Linear_8,161,1,48,23,790174396
16,8,20,Ticks_Linear_8,162,5,42,127,790184228
16,8,20,Ticks_Linear_8,163,5,42,127,790843684
16,8,20,Ticks_Linear_8,164,1,48,21,790853552
16,8,20,Ticks_Linear_8,165,1,48,27,791461088
16,8,20,Ticks_Linear_8,166,5,42,127,791504120
16,8,20,Ticks_Linear_8,167,1,48,20,792138352
16,8,20,Ticks_Linear_8,168,5,42,127,792163672
16,8,20,Ticks_Linear_8,169,1,48,22,792791828
16,8,20,Ticks_Linear_8,170,5,42,127,792814144
16,8,20,Ticks_Linear_8,171,1,48,24,793461308
16,8,20,Ticks_Linear_8,172,5,42,127,793464344
16,8,20,Ticks_Linear_8,173,1,48,24,794076576
16,8,20,Ticks_Linear_8,174,5,42,127,794114448
16,8,20,Ticks_Linear_8,175,1,48,23,794755120
16,8,20,Ticks_Linear_8,176,5,42,127,794774068
16,8,20,Ticks_Linear_8,177,1,48,21,795393704
16,8,20,Ticks_Linear_8,178,5,42,127,795424172
16,8,20,Ticks_Linear_8,179,1,48,24,796041964
16,8,20,Ticks_Linear_8,180,5,42,127,796064208
16,8,20,Ticks_Linear_8,181,5,42,127,796704000
16,8,20,Ticks_Linear_8,182,1,48,27,797321364
16,8,20,Ticks_Linear_8,183,5,42,127,797344196
16,8,20,Ticks_Linear_8,184,1,48,24,797952088
16,8,20,Ticks_Linear_8,185,5,42,127,797984060
16,8,20,Ticks_Linear_8,186,5,42,127,798624100
16,8,20,Ticks_Linear_8,187,1,48,26,798633128
16,8,20,Ticks_Linear_8,188,1,48,23,799246116
16,8,20,Ticks_Linear_8,189,5,42,127,799253860
16,8,20,Ticks_Linear_8,190,1,48,26,799868432
16,8,20,Ticks_Linear_8,191,5,42,127,799883728
16,8,20,Ticks_Linear_8,192,5,42,127,800514324
16,8,20,Ticks_Linear_8,193,1,48,27,800530968
16,8,20,Ticks_Linear_8,194,1,48,26,801149448
16,8,20,Ticks_Linear_8,195,5,42,127,801154280
16,8,20,Ticks_Linear_8,196,1,48,28,801751192
16,8,20,Ticks_Linear_8,197,5,42,127,801794292
16,8,20,Ticks_Linear_8,198,1,48,25,802413728
16,8,20,Ticks_Linear_8,199,5,42,127,802424080
16,8,20,Ticks_Linear_8,200,1,48,27,803024796
16,8,20,Ticks_Linear_8,201,5,42,127,803043680
16,8,20,Ticks_Linear_8,202,1,48,28,803646496
16,8,20,Ticks_Linear_8,203,5,42,127,803664204
16,8,20,Ticks_Linear_8,204,1,48,27,804254832
16,8,20,Ticks_Linear_8,205,5,42,127,804283804
16,8,20,Ticks_Linear_8,206,1,48,28,804877040
16,8,20,Ticks_Linear_8,207,5,42,127,804904300
16,8,20,Ticks_Linear_8,208,1,48,23,805489192
16,8,20,Ticks_Linear_8,209,5,42,127,805513608
16,8,20,Ticks_Linear_8,210,1,48,25,806081348
16,8,20,Ticks_Linear_8,211,5,42,127,806124012
16,8,20,Ticks_Linear_8,212,1,48,28,806711264
16,8,20,Ticks_Linear_8,213,5,42,127,806734144
16,8,20,Ticks_Linear_8,214,1,48,24,807268548
16,8,20,Ticks_Linear_8,215,5,42,127,807343800
16,8,20,Ticks_Linear_8,216,1,48,26,807920144
16,8,20,Ticks_Linear_8,217,5,42,127,807953760
16,8,20,Ticks_Linear_8,218,5,42,127,808553728
16,8,20,Ticks_Linear_8,219,1,48,26,808561932
16,8,20,Ticks_Linear_8,220,1,48,32,809112424
16,8,20,Ticks_Linear_8,221,5,42,127,809154032
16,8,20,Ticks_Linear_8,222,5,42,127,809753976
16,8,20,Ticks_Linear_8,223,1,48,21,809757236
16,8,20,Ticks_Linear_8,224,5,42,127,810354084
16,8,20,Ticks_Linear_8,225,1,48,19,810357200
16,8,20,Ticks_Linear_8,226,1,48,24,810946948
16,8,20,Ticks_Linear_8,227,5,42,127,810954316
16,8,20,Ticks_Linear_8,228,1,48,24,811519596
16,8,20,Ticks_Linear_8,229,5,42,127,811543940
16,8,20,Ticks_Linear_8,230,1,48,27,812090224
16,8,20,Ticks_Linear_8,231,5,42,127,812133660
16,8,20,Ticks_Linear_8,232,1,48,23,812705148
16,8,20,Ticks_Linear_8,233,5,42,127,812723504
16,8,20,Ticks_Linear_8,234,1,48,23,813304936
16,8,20,Ticks_Linear_8,235,5,42,127,813314396
16,8,20,Ticks_Linear_8,236,1,48,27,813878176
16,8,20,Ticks_Linear_8,237,5,42,127,813913460
16,8,20,Ticks_Linear_8,238,5,42,127,814494188
16,8,20,Ticks_Linear_8,239,1,48,21,814506944
16,8,20,Ticks_Linear_8,240,1,48,24,815036064
16,8,20,Ticks_Linear_8,241,5,42,127,815073784
16,8,20,Ticks_Linear_8,242,1,48,24,815640184
16,8,20,Ticks_Linear_8,243,5,42,127,815654360
16,8,20,Ticks_Linear_8,244,1,48,25,816209572
16,8,20,Ticks_Linear_8,245,5,42,127,816234360
16,8,20,Ticks_Linear_8,246,1,48,26,816796204
16,8,20,Ticks_Linear_8,247,5,42,127,816813296
16,8,20,Ticks_Linear_8,248,1,48,26,817361668
16,8,20,Ticks_Linear_8,249,5,42,127,817383776
16,8,20,Ticks_Linear_8,250,1,48,26,817930584
16,8,20,Ticks_Linear_8,251,5,42,127,817954180
16,8,20,Ticks_Linear_8,252,5,42,127,818523500
16,8,20,Ticks_Linear_8,253,1,48,27,818545080
16,8,20,Ticks_Linear_8,254,1,48,29,819074568
16,8,20,Ticks_Linear_8,255,5,42,127,819094048
16,8,20,Ticks_Linear_8,256,1,48,19,819654320
16,8,20,Ticks_Linear_8,257,5,42,127,819664156
16,8,20,Ticks_Linear_8,258,1,48,27,820190708
16,8,20,Ticks_Linear_8,259,5,42,127,820224324
16,8,20,Ticks_Linear_8,260,1,48,27,820777564
16,8,20,Ticks_Linear_8,261,5,42,127,820783516
16,8,20,Ticks_Linear_8,262,1,48,25,821309988
16,8,20,Ticks_Linear_8,263,5,42,127,821343776
16,8,20,Ticks_Linear_8,264,5,42,127,821904020
16,8,20,Ticks_Linear_8,265,1,48,22,821935024
16,8,20,Ticks_Linear_8,266,5,42,127,822463812
16,8,20,Ticks_Linear_8,267,1,48,24,822466928
16,8,20,Ticks_Linear_8,268,5,42,127,823013812
16,8,20,Ticks_Linear_8,269,1,48,27,823050788
16,8,20,Ticks_Linear_8,270,1,48,24,823551712
16,8,20,Ticks_Linear_8,271,5,42,127,823563800
16,8,20,Ticks_Linear_8,272,1,48,19,824093272
16,8,20,Ticks_Linear_8,273,5,42,127,824113720
16,8,20,Ticks_Linear_8,274,1,48,22,824639996
16,8,20,Ticks_Linear_8,275,5,42,127,824664416
16,8,20,Ticks_Linear_8,276,1,48,24,825185888
16,8,20,Ticks_Linear_8,277,5,42,127,825223684
16,8,20,Ticks_Linear_8,278,1,48,30,825731856
16,8,20,Ticks_Linear_8,279,5,42,127,825764188
16,8,20,Ticks_Linear_8,280,5,42,127,826303876
16,8,20,Ticks_Linear_8,281,1,48,24,826319396
16,8,20,Ticks_Linear_8,282,1,48,29,826808520
16,8,20,Ticks_Linear_8,283,5,42,127,826843624
16,8,20,Ticks_Linear_8,284,1,48,23,827367488
16,8,20,Ticks_Linear_8,285,5,42,127,827384128
16,8,20,Ticks_Linear_8,286,1,48,22,827913600
16,8,20,Ticks_Linear_8,287,5,42,127,827923732
16,8,20,Ticks_Linear_8,288,1,48,26,828425016
16,8,20,Ticks_Linear_8,289,5,42,127,828454364
16,8,20,Ticks_Linear_8,290,5,42,127,828983808
16,8,20,Ticks_Linear_8,291,1,48,31,828987524
16,8,20,Ticks_Linear_8,292,1,48,31,829490616
16,8,20,Ticks_Linear_8,293,5,42,127,829514088
16,8,20,Ticks_Linear_8,294,1,48,32,830030992
16,8,20,Ticks_Linear_8,295,5,42,127,830043452
16,8,20,Ticks_Linear_8,296,5,42,127,830574088
16,8,20,Ticks_Linear_8,297,1,48,33,830582892
16,8,20,Ticks_Linear_8,298,5,42,127,831094328
16,8,20,Ticks_Linear_8,299,1,48,28,831118456
16,8,20,Ticks_Linear_8,300,1,48,29,831592848
16,8,20,Ticks_Linear_8,301,5,42,127,831614268
16,8,20,Ticks_Linear_8,302,1,48,30,832107324
16,8,20,Ticks_Linear_8,303,5,42,127,832133464
16,8,20,Ticks_Linear_8,304,1,48,26,832637660
16,8,20,Ticks_Linear_8,305,5,42,127,832653708
16,8,20,Ticks_Linear_8,306,1,48,30,833151176
16,8,20,Ticks_Linear_8,307,5,42,127,833173800
16,8,20,Ticks_Linear_8,308,1,48,32,833671948
16,8,20,Ticks_Linear_8,309,5,42,127,833683800
16,8,20,Ticks_Linear_8,310,1,48,32,834190236
16,8,20,Ticks_Linear_8,311,5,42,127,834193800
16,8,20,Ticks_Linear_8,312,1,48,25,834701060
16,8,20,Ticks_Linear_8,313,5,42,127,834703652
16,8,20,Ticks_Linear_8,314,1,48,31,835200296
16,8,20,Ticks_Linear_8,315,5,42,127,835213648
16,8,20,Ticks_Linear_8,316,1,48,30,835704544
16,8,20,Ticks_Linear_8,317,5,42,127,835723576
16,8,20,Ticks_Linear_8,318,1,48,29,836177160
16,8,20,Ticks_Linear_8,319,5,42,127,836224452
16,8,20,Ticks_Linear_8,320,1,48,28,836723616
16,8,20,Ticks_Linear_8,321,5,42,127,836725328
16,8,20,Ticks_Linear_8,322,1,48,30,837217044
16,8,20,Ticks_Linear_8,323,5,42,127,837223744
16,8,20,Ticks_Linear_8,324,1,48,21,837721692
16,8,20,Ticks_Linear_8,325,5,42,127,837723424
16,8,20,Ticks_Linear_8,326,1,48,28,838203380
16,8,20,Ticks_Linear_8,327,5,42,127,838224228
16,8,20,Ticks_Linear_8,328,1,48,29,838694020
16,8,20,Ticks_Linear_8,329,5,42,127,838713644
16,8,20,Ticks_Linear_8,330,1,48,33,839164392
16,8,20,Ticks_Linear_8,331,5,42,127,839204352
16,8,20,Ticks_Linear_8,332,5,42,127,839693652
16,8,20,Ticks_Linear_8,333,1,48,27,839696764
16,8,20,Ticks_Linear_8,334,5,42,127,840184136
16,8,20,Ticks_Linear_8,335,1,48,22,840203104
16,8,20,Ticks_Linear_8,336,1,48,27,840669488
16,8,20,Ticks_Linear_8,337,5,42,127,840674164
16,8,20,Ticks_Linear_8,0,9999,9999,9999,730041460
16,8,20,Ticks_Linear_8,1,9999,9999,9999,730861668
16,8,20,Ticks_Linear_8,2,9999,9999,9999,731681896
16,8,20,Ticks_Linear_8,3,9999,9999,9999,732502128
16,8,20,Ticks_Linear_8,4,9999,9999,9999,733331532
16,8,20,Ticks_Linear_8,5,9999,9999,9999,734141500
16,8,20,Ticks_Linear_8,6,9999,9999,9999,734951544
16,8,20,Ticks_Linear_8,7,9999,9999,9999,735761512
16,8,20,Ticks_Linear_8,8,9999,9999,9999,736571480
16,8,20,Ticks_Linear_8,9,9999,9999,9999,737381472
16,8,20,Ticks_Linear_8,10,9999,9999,9999,738181196
16,8,20,Ticks_Linear_8,11,9999,9999,9999,738981964
16,8,20,Ticks_Linear_8,12,9999,9999,9999,739781696
16,8,20,Ticks_Linear_8,13,9999,9999,9999,740581492
16,8,20,Ticks_Linear_8,14,9999,9999,9999,741381220
16,8,20,Ticks_Linear_8,15,9999,9999,9999,742171748
16,8,20,Ticks_Linear_8,16,9999,9999,9999,742961232
16,8,20,Ticks_Linear_8,17,9999,9999,9999,743751788
16,8,20,Ticks_Linear_8,18,9999,9999,9999,744541264
16,8,20,Ticks_Linear_8,19,9999,9999,9999,745331796
16,8,20,Ticks_Linear_8,20,9999,9999,9999,746112084
16,8,20,Ticks_Linear_8,21,9999,9999,9999,746901564
16,8,20,Ticks_Linear_8,22,9999,9999,9999,747681852
16,8,20,Ticks_Linear_8,23,9999,9999,9999,748461168
16,8,20,Ticks_Linear_8,24,9999,9999,9999,749241456
16,8,20,Ticks_Linear_8,25,9999,9999,9999,750011504
16,8,20,Ticks_Linear_8,26,9999,9999,9999,750781548
16,8,20,Ticks_Linear_8,27,9999,9999,9999,751551592
16,8,20,Ticks_Linear_8,28,9999,9999,9999,752321636
16,8,20,Ticks_Linear_8,29,9999,9999,9999,753091688
16,8,20,Ticks_Linear_8,30,9999,9999,9999,753851492
16,8,20,Ticks_Linear_8,31,9999,9999,9999,754611296
16,8,20,Ticks_Linear_8,32,9999,9999,9999,755371096
16,8,20,Ticks_Linear_8,33,9999,9999,9999,756131944
16,8,20,Ticks_Linear_8,34,9999,9999,9999,756891740
16,8,20,Ticks_Linear_8,35,9999,9999,9999,757641304
16,8,20,Ticks_Linear_8,36,9999,9999,9999,758391912
16,8,20,Ticks_Linear_8,37,9999,9999,9999,759141468
16,8,20,Ticks_Linear_8,38,9999,9999,9999,759892080
16,8,20,Ticks_Linear_8,39,9999,9999,9999,760641616
16,8,20,Ticks_Linear_8,40,9999,9999,9999,761381980
16,8,20,Ticks_Linear_8,41,9999,9999,9999,762121292
16,8,20,Ticks_Linear_8,42,9999,9999,9999,762861656
16,8,20,Ticks_Linear_8,43,9999,9999,9999,763602028
16,8,20,Ticks_Linear_8,44,9999,9999,9999,764341340
16,8,20,Ticks_Linear_8,45,9999,9999,9999,765071468
16,8,20,Ticks_Linear_8,46,9999,9999,9999,765801584
16,8,20,Ticks_Linear_8,47,9999,9999,9999,766531684
16,8,20,Ticks_Linear_8,48,9999,9999,9999,767261800
16,8,20,Ticks_Linear_8,49,9999,9999,9999,767991920
16,8,20,Ticks_Linear_8,50,9999,9999,9999,768711804
16,8,20,Ticks_Linear_8,51,9999,9999,9999,769431616
16,8,20,Ticks_Linear_8,52,9999,9999,9999,770151492
16,8,20,Ticks_Linear_8,53,9999,9999,9999,770871352
16,8,20,Ticks_Linear_8,54,9999,9999,9999,771591224
16,8,20,Ticks_Linear_8,55,9999,9999,9999,772301916
16,8,20,Ticks_Linear_8,56,9999,9999,9999,773011552
16,8,20,Ticks_Linear_8,57,9999,9999,9999,773721184
16,8,20,Ticks_Linear_8,58,9999,9999,9999,774431840
16,8,20,Ticks_Linear_8,59,9999,9999,9999,775141476
16,8,20,Ticks_Linear_8,60,9999,9999,9999,775841852
16,8,20,Ticks_Linear_8,61,9999,9999,9999,776541244
16,8,20,Ticks_Linear_8,62,9999,9999,9999,777241660
16,8,20,Ticks_Linear_8,63,9999,9999,9999,777942108
16,8,20,Ticks_Linear_8,64,9999,9999,9999,778651744
16,8,20,Ticks_Linear_8,65,9999,9999,9999,779341944
16,8,20,Ticks_Linear_8,66,9999,9999,9999,780032116
16,8,20,Ticks_Linear_8,67,9999,9999,9999,780731512
16,8,20,Ticks_Linear_8,68,9999,9999,9999,781421640
16,8,20,Ticks_Linear_8,69,9999,9999,9999,782111808
16,8,20,Ticks_Linear_8,70,9999,9999,9999,782791768
16,8,20,Ticks_Linear_8,71,9999,9999,9999,783471724
16,8,20,Ticks_Linear_8,72,9999,9999,9999,784151664
16,8,20,Ticks_Linear_8,73,9999,9999,9999,784831548
16,8,20,Ticks_Linear_8,74,9999,9999,9999,785511496
16,8,20,Ticks_Linear_8,75,9999,9999,9999,786181188
16,8,20,Ticks_Linear_8,76,9999,9999,9999,786851956
16,8,20,Ticks_Linear_8,77,9999,9999,9999,787521640
16,8,20,Ticks_Linear_8,78,9999,9999,9999,788191288
16,8,20,Ticks_Linear_8,79,9999,9999,9999,788862040
16,8,20,Ticks_Linear_8,80,9999,9999,9999,789521496
16,8,20,Ticks_Linear_8,81,9999,9999,9999,790182008
16,8,20,Ticks_Linear_8,82,9999,9999,9999,790841464
16,8,20,Ticks_Linear_8,83,9999,9999,9999,791501900
16,8,20,Ticks_Linear_8,84,9999,9999,9999,792161372
16,8,20,Ticks_Linear_8,85,9999,9999,9999,792811628
16,8,20,Ticks_Linear_8,86,9999,9999,9999,793461828
16,8,20,Ticks_Linear_8,87,9999,9999,9999,794112076
16,8,20,Ticks_Linear_8,88,9999,9999,9999,794771552
16,8,20,Ticks_Linear_8,89,9999,9999,9999,795421804
16,8,20,Ticks_Linear_8,90,9999,9999,9999,796061764
16,8,20,Ticks_Linear_8,91,9999,9999,9999,796701780
16,8,20,Ticks_Linear_8,92,9999,9999,9999,797341752
16,8,20,Ticks_Linear_8,93,9999,9999,9999,797981764
16,8,20,Ticks_Linear_8,94,9999,9999,9999,798621804
16,8,20,Ticks_Linear_8,95,9999,9999,9999,799251568
16,8,20,Ticks_Linear_8,96,9999,9999,9999,799881284
16,8,20,Ticks_Linear_8,97,9999,9999,9999,800512104
16,8,20,Ticks_Linear_8,98,9999,9999,9999,801152060
16,8,20,Ticks_Linear_8,99,9999,9999,9999,801792068
16,8,20,Ticks_Linear_8,100,9999,9999,9999,802421860
16,8,20,Ticks_Linear_8,101,9999,9999,9999,803041388
16,8,20,Ticks_Linear_8,102,9999,9999,9999,803661908
16,8,20,Ticks_Linear_8,103,9999,9999,9999,804281436
16,8,20,Ticks_Linear_8,104,9999,9999,9999,804902004
16,8,20,Ticks_Linear_8,105,9999,9999,9999,805511240
16,8,20,Ticks_Linear_8,106,9999,9999,9999,806121568
16,8,20,Ticks_Linear_8,107,9999,9999,9999,806731848
16,8,20,Ticks_Linear_8,108,9999,9999,9999,807341132
16,8,20,Ticks_Linear_8,109,9999,9999,9999,807951464
16,8,20,Ticks_Linear_8,110,9999,9999,9999,808551508
16,8,20,Ticks_Linear_8,111,9999,9999,9999,809151588
16,8,20,Ticks_Linear_8,112,9999,9999,9999,809751680
16,8,20,Ticks_Linear_8,113,9999,9999,9999,810351716
16,8,20,Ticks_Linear_8,114,9999,9999,9999,810951796
16,8,20,Ticks_Linear_8,115,9999,9999,9999,811541568
16,8,20,Ticks_Linear_8,116,9999,9999,9999,812131436
16,8,20,Ticks_Linear_8,117,9999,9999,9999,812721208
16,8,20,Ticks_Linear_8,118,9999,9999,9999,813312100
16,8,20,Ticks_Linear_8,119,9999,9999,9999,813911164
16,8,20,Ticks_Linear_8,120,9999,9999,9999,814491744
16,8,20,Ticks_Linear_8,121,9999,9999,9999,815071340
16,8,20,Ticks_Linear_8,122,9999,9999,9999,815651916
16,8,20,Ticks_Linear_8,123,9999,9999,9999,816231544
16,8,20,Ticks_Linear_8,124,9999,9999,9999,816811072
16,8,20,Ticks_Linear_8,125,9999,9999,9999,817381480
16,8,20,Ticks_Linear_8,126,9999,9999,9999,817951812
16,8,20,Ticks_Linear_8,127,9999,9999,9999,818521204
16,8,20,Ticks_Linear_8,128,9999,9999,9999,819091528
16,8,20,Ticks_Linear_8,129,9999,9999,9999,819661936
16,8,20,Ticks_Linear_8,130,9999,9999,9999,820222028
16,8,20,Ticks_Linear_8,131,9999,9999,9999,820781144
16,8,20,Ticks_Linear_8,132,9999,9999,9999,821341260
16,8,20,Ticks_Linear_8,133,9999,9999,9999,821901428
16,8,20,Ticks_Linear_8,134,9999,9999,9999,822461516
16,8,20,Ticks_Linear_8,135,9999,9999,9999,823011440
16,8,20,Ticks_Linear_8,136,9999,9999,9999,823561280
16,8,20,Ticks_Linear_8,137,9999,9999,9999,824111204
16,8,20,Ticks_Linear_8,138,9999,9999,9999,824662120
16,8,20,Ticks_Linear_8,139,9999,9999,9999,825221240
16,8,20,Ticks_Linear_8,140,9999,9999,9999,825761892
16,8,20,Ticks_Linear_8,141,9999,9999,9999,826301508
16,8,20,Ticks_Linear_8,142,9999,9999,9999,826841180
16,8,20,Ticks_Linear_8,143,9999,9999,9999,827381832
16,8,20,Ticks_Linear_8,144,9999,9999,9999,827921512
16,8,20,Ticks_Linear_8,145,9999,9999,9999,828451920
16,8,20,Ticks_Linear_8,146,9999,9999,9999,828981364
16,8,20,Ticks_Linear_8,147,9999,9999,9999,829511792
16,8,20,Ticks_Linear_8,148,9999,9999,9999,830041156
16,8,20,Ticks_Linear_8,149,9999,9999,9999,830571644
16,8,20,Ticks_Linear_8,150,9999,9999,9999,831091812
16,8,20,Ticks_Linear_8,151,9999,9999,9999,831611972
16,8,20,Ticks_Linear_8,152,9999,9999,9999,832131168
16,8,20,Ticks_Linear_8,153,9999,9999,9999,832651336
16,8,20,Ticks_Linear_8,154,9999,9999,9999,833171580
16,8,20,Ticks_Linear_8,155,9999,9999,9999,833681504
16,8,20,Ticks_Linear_8,156,9999,9999,9999,834191432
16,8,20,Ticks_Linear_8,157,9999,9999,9999,834701432
16,8,20,Ticks_Linear_8,158,9999,9999,9999,835211356
16,8,20,Ticks_Linear_8,159,9999,9999,9999,835721280
16,8,20,Ticks_Linear_8,160,9999,9999,9999,836222008
16,8,20,Ticks_Linear_8,161,9999,9999,9999,836721772
16,8,20,Ticks_Linear_8,162,9999,9999,9999,837221448
16,8,20,Ticks_Linear_8,163,9999,9999,9999,837721156
16,8,20,Ticks_Linear_8,164,9999,9999,9999,838221932
16,8,20,Ticks_Linear_8,165,9999,9999,9999,838711348
16,8,20,Ticks_Linear_8,166,9999,9999,9999,839201908
16,8,20,Ticks_Linear_8,167,9999,9999,9999,839691356
16,8,20,Ticks_Linear_8,168,9999,9999,9999,840181840
16,8,20,Ticks_Linear_8,169,9999,9999,9999,840671352
16,9,23,Ticks_Phase_5,0,5,42,127,855042456
16,9,23,Ticks_Phase_5,1,5,42,127,855552464
16,9,23,Ticks_Phase_5,2,5,42,127,856052156
16,9,23,Ticks_Phase_5,3,1,48,32,856066484
16,9,23,Ticks_Phase_5,4,1,48,29,856519116
16,9,23,Ticks_Phase_5,5,5,42,127,856551968
16,9,23,Ticks_Phase_5,6,1,48,35,857005632
16,9,23,Ticks_Phase_5,7,5,42,127,857051568
16,9,23,Ticks_Phase_5,8,1,48,37,857513080
16,9,23,Ticks_Phase_5,9,5,42,127,857552280
16,9,23,Ticks_Phase_5,10,1,48,39,857996744
16,9,23,Ticks_Phase_5,11,5,42,127,858051880
16,9,23,Ticks_Phase_5,12,1,48,32,858517948
16,9,23,Ticks_Phase_5,13,5,42,127,858551548
16,9,23,Ticks_Phase_5,14,1,48,35,859007892
16,9,23,Ticks_Phase_5,15,5,42,127,859052340
16,9,23,Ticks_Phase_5,16,1,48,37,859479692
16,9,23,Ticks_Phase_5,17,5,42,127,859552160
16,9,23,Ticks_Phase_5,18,1,48,32,860050248
16,9,23,Ticks_Phase_5,19,5,42,127,860051976
16,9,23,Ticks_Phase_5,20,1,48,29,860526568
16,9,23,Ticks_Phase_5,21,5,42,127,860551500
16,9,23,Ticks_Phase_5,22,1,48,29,861002772
16,9,23,Ticks_Phase_5,23,5,42,127,861052216
16,9,23,Ticks_Phase_5,24,1,48,32,861530628
16,9,23,Ticks_Phase_5,25,5,42,127,861552108
16,9,23,Ticks_Phase_5,26,1,48,28,862008208
16,9,23,Ticks_Phase_5,27,5,42,127,862051780
16,9,23,Ticks_Phase_5,28,1,48,27,862524180
16,9,23,Ticks_Phase_5,29,5,42,127,862552396
16,9,23,Ticks_Phase_5,30,1,48,31,863025020
16,9,23,Ticks_Phase_5,31,5,42,127,863062308
16,9,23,Ticks_Phase_5,32,1,48,29,863548780
16,9,23,Ticks_Phase_5,33,5,42,127,863562048
16,9,23,Ticks_Phase_5,34,5,42,127,864061948
16,9,23,Ticks_Phase_5,35,1,48,31,864067756
16,9,23,Ticks_Phase_5,36,1,48,28,864539644
16,9,23,Ticks_Phase_5,37,5,42,127,864561440
16,9,23,Ticks_Phase_5,38,1,48,30,865028184
16,9,23,Ticks_Phase_5,39,5,42,127,865062308
16,9,23,Ticks_Phase_5,40,1,48,28,865545424
16,9,23,Ticks_Phase_5,41,5,42,127,865561976
16,9,23,Ticks_Phase_5,42,1,48,29,866042256
16,9,23,Ticks_Phase_5,43,5,42,127,866062096
16,9,23,Ticks_Phase_5,44,1,48,34,866547376
16,9,23,Ticks_Phase_5,45,5,42,127,866562440
16,9,23,Ticks_Phase_5,46,1,48,33,867057892
16,9,23,Ticks_Phase_5,47,5,42,127,867072352
16,9,23,Ticks_Phase_5,48,1,48,32,867552704
16,9,23,Ticks_Phase_5,49,5,42,127,867572024
16,9,23,Ticks_Phase_5,50,1,48,33,868060304
16,9,23,Ticks_Phase_5,51,5,42,127,868071768
16,9,23,Ticks_Phase_5,52,1,48,31,868555404
16,9,23,Ticks_Phase_5,53,5,42,127,868571736
16,9,23,Ticks_Phase_5,54,1,48,30,869055748
16,9,23,Ticks_Phase_5,55,5,42,127,869072300
16,9,23,Ticks_Phase_5,56,1,48,33,869545176
16,9,23,Ticks_Phase_5,57,5,42,127,869571824
16,9,23,Ticks_Phase_5,58,1,48,31,870036320
16,9,23,Ticks_Phase_5,59,5,42,127,870061552
16,9,23,Ticks_Phase_5,60,5,42,127,870562124
16,9,23,Ticks_Phase_5,61,1,48,34,870567848
16,9,23,Ticks_Phase_5,62,5,42,127,871061796
16,9,23,Ticks_Phase_5,63,1,48,32,871064532
16,9,23,Ticks_Phase_5,64,1,48,22,871528756
16,9,23,Ticks_Phase_5,65,5,42,127,871561608
16,9,23,Ticks_Phase_5,66,1,48,21,872038364
16,9,23,Ticks_Phase_5,67,5,42,127,872062400
16,9,23,Ticks_Phase_5,68,1,48,34,872544768
16,9,23,Ticks_Phase_5,69,5,42,127,872561920
16,9,23,Ticks_Phase_5,70,1,48,35,873020076
16,9,23,Ticks_Phase_5,71,5,42,127,873061668
16,9,23,Ticks_Phase_5,72,5,42,127,873561640
16,9,23,Ticks_Phase_5,73,1,48,32,873572612
16,9,23,Ticks_Phase_5,74,5,42,127,874062432
16,9,23,Ticks_Phase_5,75,1,48,29,874066444
16,9,23,Ticks_Phase_5,76,1,48,32,874544252
16,9,23,Ticks_Phase_5,77,5,42,127,874561872
16,9,23,Ticks_Phase_5,78,1,48,32,875051548
16,9,23,Ticks_Phase_5,79,5,42,127,875061668
16,9,23,Ticks_Phase_5,80,1,48,32,875551368
16,9,23,Ticks_Phase_5,81,5,42,127,875562312
16,9,23,Ticks_Phase_5,82,5,42,127,876061988
16,9,23,Ticks_Phase_5,83,1,48,32,876063924
16,9,23,Ticks_Phase_5,84,1,48,31,876555492
16,9,23,Ticks_Phase_5,85,5,42,127,876561800
16,9,23,Ticks_Phase_5,86,1,48,29,877043572
16,9,23,Ticks_Phase_5,87,5,42,127,877061472
16,9,23,Ticks_Phase_5,88,1,48,32,877548844
16,9,23,Ticks_Phase_5,89,5,42,127,877562484
16,9,23,Ticks_Phase_5,90,1,48,34,878058456
16,9,23,Ticks_Phase_5,91,5,42,127,878061860
16,9,23,Ticks_Phase_5,92,5,42,127,878561684
16,9,23,Ticks_Phase_5,93,1,48,35,878571084
16,9,23,Ticks_Phase_5,94,1,48,32,879040464
16,9,23,Ticks_Phase_5,95,5,42,127,879071520
16,9,23,Ticks_Phase_5,96,5,42,127,879572240
16,9,23,Ticks_Phase_5,97,1,48,32,879583204
16,9,23,Ticks_Phase_5,98,5,42,127,880072356
16,9,23,Ticks_Phase_5,99,1,48,29,880075920
16,9,23,Ticks_Phase_5,100,1,48,28,880565712
16,9,23,Ticks_Phase_5,101,5,42,127,880571652
16,9,23,Ticks_Phase_5,102,1,48,31,881032040
16,9,23,Ticks_Phase_5,103,5,42,127,881071472
16,9,23,Ticks_Phase_5,104,5,42,127,881572192
16,9,23,Ticks_Phase_5,105,1,48,32,881602076
16,9,23,Ticks_Phase_5,106,5,42,127,882072012
16,9,23,Ticks_Phase_5,107,1,48,33,882077216
16,9,23,Ticks_Phase_5,108,1,48,31,882530608
16,9,23,Ticks_Phase_5,109,5,42,127,882571676
16,9,23,Ticks_Phase_5,110,5,42,127,883072400
16,9,23,Ticks_Phase_5,111,1,48,26,883081944
16,9,23,Ticks_Phase_5,112,5,42,127,883572144
16,9,23,Ticks_Phase_5,113,1,48,26,883579512
16,9,23,Ticks_Phase_5,114,1,48,31,884045236
16,9,23,Ticks_Phase_5,115,5,42,127,884072032
16,9,23,Ticks_Phase_5,116,1,48,27,884570208
16,9,23,Ticks_Phase_5,117,5,42,127,884571852
16,9,23,Ticks_Phase_5,118,1,48,24,885059912
16,9,23,Ticks_Phase_5,119,5,42,127,885072272
16,9,23,Ticks_Phase_5,120,5,42,127,885571876
16,9,23,Ticks_Phase_5,121,1,48,30,885594052
16,9,23,Ticks_Phase_5,122,1,48,29,886071744
16,9,23,Ticks_Phase_5,123,5,42,127,886073304
16,9,23,Ticks_Phase_5,124,1,48,32,886557464
16,9,23,Ticks_Phase_5,125,5,42,127,886572528
16,9,23,Ticks_Phase_5,126,1,48,29,887073144
16,9,23,Ticks_Phase_5,127,5,42,127,887091416
16,9,23,Ticks_Phase_5,128,1,48,32,887587016
16,9,23,Ticks_Phase_5,129,5,42,127,887592280
16,9,23,Ticks_Phase_5,130,1,48,34,888073976
16,9,23,Ticks_Phase_5,131,5,42,127,888092028
16,9,23,Ticks_Phase_5,132,1,48,32,888561844
16,9,23,Ticks_Phase_5,133,5,42,127,888591996
16,9,23,Ticks_Phase_5,134,1,48,26,889044240
16,9,23,Ticks_Phase_5,135,5,42,127,889091444
16,9,23,Ticks_Phase_5,136,5,42,127,889592164
16,9,23,Ticks_Phase_5,137,1,48,21,889616060
16,9,23,Ticks_Phase_5,138,1,48,27,890082008
16,9,23,Ticks_Phase_5,139,5,42,127,890091828
16,9,23,Ticks_Phase_5,140,1,48,28,890573672
16,9,23,Ticks_Phase_5,141,5,42,127,890591796
16,9,23,Ticks_Phase_5,142,5,42,127,891092296
16,9,23,Ticks_Phase_5,143,1,48,29,891141768
16,9,23,Ticks_Phase_5,144,1,48,27,891591216
16,9,23,Ticks_Phase_5,145,5,42,127,891592860
16,9,23,Ticks_Phase_5,146,1,48,27,892061700
16,9,23,Ticks_Phase_5,147,5,42,127,892091704
16,9,23,Ticks_Phase_5,148,1,48,23,892585212
16,9,23,Ticks_Phase_5,149,5,42,127,892591748
16,9,23,Ticks_Phase_5,150,5,42,127,893092248
16,9,23,Ticks_Phase_5,151,1,48,28,893100824
16,9,23,Ticks_Phase_5,152,5,42,127,893591844
16,9,23,Ticks_Phase_5,153,1,48,25,893595032
16,9,23,Ticks_Phase_5,154,5,42,127,894091740
16,9,23,Ticks_Phase_5,155,1,48,29,894101136
16,9,23,Ticks_Phase_5,156,5,42,127,894592604
16,9,23,Ticks_Phase_5,157,1,48,27,894598856
16,9,23,Ticks_Phase_5,158,5,42,127,895092056
16,9,23,Ticks_Phase_5,159,1,48,28,895109828
16,9,23,Ticks_Phase_5,160,5,42,127,895572584
16,9,23,Ticks_Phase_5,161,1,48,28,895582584
16,9,23,Ticks_Phase_5,162,1,48,27,896027332
16,9,23,Ticks_Phase_5,163,5,42,127,896072100
16,9,23,Ticks_Phase_5,164,1,48,26,896567676
16,9,23,Ticks_Phase_5,165,5,42,127,896571772
16,9,23,Ticks_Phase_5,166,1,48,29,897055532
16,9,23,Ticks_Phase_5,167,5,42,127,897071568
16,9,23,Ticks_Phase_5,168,1,48,25,897530616
16,9,23,Ticks_Phase_5,169,5,42,127,897572280
16,9,23,Ticks_Phase_5,170,5,42,127,898071960
16,9,23,Ticks_Phase_5,171,1,48,22,898545896
16,9,23,Ticks_Phase_5,172,5,42,127,898571572
16,9,23,Ticks_Phase_5,173,5,42,127,899072440
16,9,23,Ticks_Phase_5,174,1,48,26,899078172
16,9,23,Ticks_Phase_5,175,1,48,27,899548300
16,9,23,Ticks_Phase_5,176,5,42,127,899572180
16,9,23,Ticks_Phase_5,177,1,48,27,900064344
16,9,23,Ticks_Phase_5,178,5,42,127,900071776
16,9,23,Ticks_Phase_5,179,1,48,31,900540548
16,9,23,Ticks_Phase_5,180,5,42,127,900571448
16,9,23,Ticks_Phase_5,181,1,48,32,901044020
16,9,23,Ticks_Phase_5,182,5,42,127,901072236
16,9,23,Ticks_Phase_5,183,1,48,25,901544068
16,9,23,Ticks_Phase_5,184,5,42,127,901571908
16,9,23,Ticks_Phase_5,185,1,48,29,902044628
16,9,23,Ticks_Phase_5,186,5,42,127,902071876
16,9,23,Ticks_Phase_5,187,1,48,29,902540424
16,9,23,Ticks_Phase_5,188,5,42,127,902572444
16,9,23,Ticks_Phase_5,189,1,48,27,903028196
16,9,23,Ticks_Phase_5,190,5,42,127,903072040
16,9,23,Ticks_Phase_5,191,5,42,127,903521628
16,9,23,Ticks_Phase_5,192,1,48,25,903533412
16,9,23,Ticks_Phase_5,193,1,48,28,903998156
16,9,23,Ticks_Phase_5,194,5,42,127,904022412
16,9,23,Ticks_Phase_5,195,1,48,27,904475596
16,9,23,Ticks_Phase_5,196,5,42,127,904522084
16,9,23,Ticks_Phase_5,197,1,48,27,904973556
16,9,23,Ticks_Phase_5,198,5,42,127,905021976
16,9,23,Ticks_Phase_5,199,1,48,23,905492812
16,9,23,Ticks_Phase_5,200,5,42,127,905521548
16,9,23,Ticks_Phase_5,201,1,48,24,905994048
16,9,23,Ticks_Phase_5,202,5,42,127,906022264
16,9,23,Ticks_Phase_5,203,1,48,28,906487884
16,9,23,Ticks_Phase_5,204,5,42,127,906521936
16,9,23,Ticks_Phase_5,205,5,42,127,907021612
16,9,23,Ticks_Phase_5,206,1,48,29,907035792
16,9,23,Ticks_Phase_5,207,1,48,26,907508308
16,9,23,Ticks_Phase_5,208,5,42,127,907522324
16,9,23,Ticks_Phase_5,209,1,48,29,908004616
16,9,23,Ticks_Phase_5,210,5,42,127,908032384
16,9,23,Ticks_Phase_5,211,1,48,33,908502940
16,9,23,Ticks_Phase_5,212,5,42,127,908532052
16,9,23,Ticks_Phase_5,213,1,48,32,909002916
16,9,23,Ticks_Phase_5,214,5,42,127,909031872
16,9,23,Ticks_Phase_5,215,5,42,127,909531476
16,9,23,Ticks_Phase_5,216,1,48,14,909546100
16,9,23,Ticks_Phase_5,217,5,42,127,910032120
16,9,23,Ticks_Phase_5,218,1,48,34,910044052
16,9,23,Ticks_Phase_5,219,1,48,33,910530660
16,9,23,Ticks_Phase_5,220,5,42,127,910532448
16,9,23,Ticks_Phase_5,221,5,42,127,911031904
16,9,23,Ticks_Phase_5,222,1,48,34,911042424
16,9,23,Ticks_Phase_5,223,1,48,31,911489308
16,9,23,Ticks_Phase_5,224,5,42,127,911532764
16,9,23,Ticks_Phase_5,225,1,48,34,911994204
16,9,23,Ticks_Phase_5,226,5,42,127,912082228
16,9,23,Ticks_Phase_5,227,5,42,127,912581908
16,9,23,Ticks_Phase_5,228,1,48,33,912621884
16,9,23,Ticks_Phase_5,229,1,48,34,913075556
16,9,23,Ticks_Phase_5,230,5,42,127,913081648
16,9,23,Ticks_Phase_5,231,1,48,29,913566700
16,9,23,Ticks_Phase_5,232,5,42,127,913581688
16,9,23,Ticks_Phase_5,233,1,48,26,914081888
16,9,23,Ticks_Phase_5,234,5,42,127,914083596
16,9,23,Ticks_Phase_5,235,1,48,27,914575764
16,9,23,Ticks_Phase_5,236,5,42,127,914582000
16,9,23,Ticks_Phase_5,237,1,48,26,915071996
16,9,23,Ticks_Phase_5,238,5,42,127,915081672
16,9,23,Ticks_Phase_5,239,1,48,30,915565532
16,9,23,Ticks_Phase_5,240,5,42,127,915582536
16,9,23,Ticks_Phase_5,241,1,48,37,916055784
16,9,23,Ticks_Phase_5,242,5,42,127,916081984
16,9,23,Ticks_Phase_5,243,1,48,32,916573776
16,9,23,Ticks_Phase_5,244,5,42,127,916581952
16,9,23,Ticks_Phase_5,245,5,42,127,917081484
16,9,23,Ticks_Phase_5,246,1,48,31,917088780
16,9,23,Ticks_Phase_5,247,1,48,35,917565044
16,9,23,Ticks_Phase_5,248,5,42,127,917582344
16,9,23,Ticks_Phase_5,249,1,48,32,918041440
16,9,23,Ticks_Phase_5,250,5,42,127,918081940
16,9,23,Ticks_Phase_5,251,5,42,127,918581520
16,9,23,Ticks_Phase_5,252,1,48,28,918603800
16,9,23,Ticks_Phase_5,253,5,42,127,919082680
16,9,23,Ticks_Phase_5,254,1,48,26,919083716
16,9,23,Ticks_Phase_5,255,1,48,29,919577152
16,9,23,Ticks_Phase_5,256,5,42,127,919582048
16,9,23,Ticks_Phase_5,257,1,48,31,920069044
16,9,23,Ticks_Phase_5,258,5,42,127,920081868
16,9,23,Ticks_Phase_5,259,1,48,28,920575304
16,9,23,Ticks_Phase_5,260,5,42,127,920681956
16,9,23,Ticks_Phase_5,261,5,42,127,921181572
16,9,23,Ticks_Phase_5,262,1,48,30,921222668
16,9,23,Ticks_Phase_5,263,5,42,127,921682216
16,9,23,Ticks_Phase_5,264,1,48,26,921688540
16,9,23,Ticks_Phase_5,265,1,48,28,922159088
16,9,23,Ticks_Phase_5,266,5,42,127,922182248
16,9,23,Ticks_Phase_5,267,1,48,28,922665268
16,9,23,Ticks_Phase_5,268,5,42,127,922681772
16,9,23,Ticks_Phase_5,269,1,48,29,923161804
16,9,23,Ticks_Phase_5,270,5,42,127,923181492
16,9,23,Ticks_Phase_5,271,1,48,27,923647928
16,9,23,Ticks_Phase_5,272,5,42,127,923682280
16,9,23,Ticks_Phase_5,273,1,48,25,924169284
16,9,23,Ticks_Phase_5,274,5,42,127,924181732
16,9,23,Ticks_Phase_5,275,1,48,28,924665144
16,9,23,Ticks_Phase_5,276,5,42,127,924681624
16,9,23,Ticks_Phase_5,277,1,48,30,925165260
16,9,23,Ticks_Phase_5,278,5,42,127,925182264
16,9,23,Ticks_Phase_5,279,1,48,30,925658724
16,9,23,Ticks_Phase_5,280,5,42,127,925682308
16,9,23,Ticks_Phase_5,281,5,42,127,926181688
16,9,23,Ticks_Phase_5,282,1,48,30,926187484
16,9,23,Ticks_Phase_5,283,5,42,127,926681432
16,9,23,Ticks_Phase_5,284,1,48,17,926695688
16,9,23,Ticks_Phase_5,285,1,48,28,927162224
16,9,23,Ticks_Phase_5,286,5,42,127,927182144
16,9,23,Ticks_Phase_5,287,1,48,25,927663396
16,9,23,Ticks_Phase_5,288,5,42,127,927682036
16,9,23,Ticks_Phase_5,289,1,48,29,928158420
16,9,23,Ticks_Phase_5,290,5,42,127,928181560
16,9,23,Ticks_Phase_5,291,1,48,27,928653012
16,9,23,Ticks_Phase_5,292,5,42,127,928682352
16,9,23,Ticks_Phase_5,293,1,48,28,929150372
16,9,23,Ticks_Phase_5,294,5,42,127,929182024
16,9,23,Ticks_Phase_5,295,1,48,25,929659008
16,9,23,Ticks_Phase_5,296,5,42,127,929682140
16,9,23,Ticks_Phase_5,297,5,42,127,930082288
16,9,23,Ticks_Phase_5,298,1,48,28,930161016
16,9,23,Ticks_Phase_5,299,5,42,127,930581884
16,9,23,Ticks_Phase_5,300,1,48,29,930614152
16,9,23,Ticks_Phase_5,301,1,48,21,931031728
16,9,23,Ticks_Phase_5,302,5,42,127,931081548
16,9,23,Ticks_Phase_5,303,1,48,22,931571924
16,9,23,Ticks_Phase_5,304,5,42,127,931582192
16,9,23,Ticks_Phase_5,305,1,48,30,932034428
16,9,23,Ticks_Phase_5,306,5,42,127,932081936
16,9,23,Ticks_Phase_5,307,1,48,29,932554288
16,9,23,Ticks_Phase_5,308,5,42,127,932581976
16,9,23,Ticks_Phase_5,309,1,48,28,933041700
16,9,23,Ticks_Phase_5,310,5,42,127,933081576
16,9,23,Ticks_Phase_5,311,1,48,29,933530684
16,9,23,Ticks_Phase_5,312,5,42,127,933582140
16,9,23,Ticks_Phase_5,313,1,48,29,934032516
16,9,23,Ticks_Phase_5,314,5,42,127,934081884
16,9,23,Ticks_Phase_5,315,5,42,127,934581564
16,9,23,Ticks_Phase_5,316,1,48,34,934591484
16,9,23,Ticks_Phase_5,317,1,48,32,935063852
16,9,23,Ticks_Phase_5,318,5,42,127,935082272
16,9,23,Ticks_Phase_5,319,1,48,31,935551636
16,9,23,Ticks_Phase_5,320,5,42,127,935582020
16,9,23,Ticks_Phase_5,321,1,48,29,936072088
16,9,23,Ticks_Phase_5,322,5,42,127,936081764
16,9,23,Ticks_Phase_5,323,1,48,30,936567044
16,9,23,Ticks_Phase_5,324,5,42,127,936581584
16,9,23,Ticks_Phase_5,325,1,48,29,937051548
16,9,23,Ticks_Phase_5,326,5,42,127,937082300
16,9,23,Ticks_Phase_5,327,1,48,29,937579860
16,9,23,Ticks_Phase_5,328,5,42,127,937581820
16,9,23,Ticks_Phase_5,329,1,48,28,938066800
16,9,23,Ticks_Phase_5,330,5,42,127,938081716
16,9,23,Ticks_Phase_5,331,1,48,22,938555332
16,9,23,Ticks_Phase_5,332,5,42,127,938582360
16,9,23,Ticks_Phase_5,333,1,48,28,939058044
16,9,23,Ticks_Phase_5,334,5,42,127,939082176
16,9,23,Ticks_Phase_5,335,1,48,27,939574640
16,9,23,Ticks_Phase_5,336,5,42,127,939581772
16,9,23,Ticks_Phase_5,0,9999,9999,9999,855040100
16,9,23,Ticks_Phase_5,1,9999,9999,9999,855550032
16,9,23,Ticks_Phase_5,2,9999,9999,9999,856049724
16,9,23,Ticks_Phase_5,3,9999,9999,9999,856549464
16,9,23,Ticks_Phase_5,4,9999,9999,9999,857049208
16,9,23,Ticks_Phase_5,5,9999,9999,9999,857549924
16,9,23,Ticks_Phase_5,6,9999,9999,9999,858049596
16,9,23,Ticks_Phase_5,7,9999,9999,9999,858549340
16,9,23,Ticks_Phase_5,8,9999,9999,9999,859050056
16,9,23,Ticks_Phase_5,9,9999,9999,9999,859549800
16,9,23,Ticks_Phase_5,10,9999,9999,9999,860049476
16,9,23,Ticks_Phase_5,11,9999,9999,9999,860549216
16,9,23,Ticks_Phase_5,12,9999,9999,9999,861049932
16,9,23,Ticks_Phase_5,13,9999,9999,9999,861549676
16,9,23,Ticks_Phase_5,14,9999,9999,9999,862049348
16,9,23,Ticks_Phase_5,15,9999,9999,9999,862550112
16,9,23,Ticks_Phase_5,16,9999,9999,9999,863060028
16,9,23,Ticks_Phase_5,17,9999,9999,9999,863559764
16,9,23,Ticks_Phase_5,18,9999,9999,9999,864059492
16,9,23,Ticks_Phase_5,19,9999,9999,9999,864559160
16,9,23,Ticks_Phase_5,20,9999,9999,9999,865059948
16,9,23,Ticks_Phase_5,21,9999,9999,9999,865559620
16,9,23,Ticks_Phase_5,22,9999,9999,9999,866059364
16,9,23,Ticks_Phase_5,23,9999,9999,9999,866560080
16,9,23,Ticks_Phase_5,24,9999,9999,9999,867070068
16,9,23,Ticks_Phase_5,25,9999,9999,9999,867569740
16,9,23,Ticks_Phase_5,26,9999,9999,9999,868069484
16,9,23,Ticks_Phase_5,27,9999,9999,9999,868569156
16,9,23,Ticks_Phase_5,28,9999,9999,9999,869069944
16,9,23,Ticks_Phase_5,29,9999,9999,9999,869569616
16,9,23,Ticks_Phase_5,30,9999,9999,9999,870059120
16,9,23,Ticks_Phase_5,31,9999,9999,9999,870559840
16,9,23,Ticks_Phase_5,32,9999,9999,9999,871059512
16,9,23,Ticks_Phase_5,33,9999,9999,9999,871559252
16,9,23,Ticks_Phase_5,34,9999,9999,9999,872059968
16,9,23,Ticks_Phase_5,35,9999,9999,9999,872559712
16,9,23,Ticks_Phase_5,36,9999,9999,9999,873059384
16,9,23,Ticks_Phase_5,37,9999,9999,9999,873559136
16,9,23,Ticks_Phase_5,38,9999,9999,9999,874059852
16,9,23,Ticks_Phase_5,39,9999,9999,9999,874559588
16,9,23,Ticks_Phase_5,40,9999,9999,9999,875059312
16,9,23,Ticks_Phase_5,41,9999,9999,9999,875560028
16,9,23,Ticks_Phase_5,42,9999,9999,9999,876059704
16,9,23,Ticks_Phase_5,43,9999,9999,9999,876559444
16,9,23,Ticks_Phase_5,44,9999,9999,9999,877059188
16,9,23,Ticks_Phase_5,45,9999,9999,9999,877559904
16,9,23,Ticks_Phase_5,46,9999,9999,9999,878059576
16,9,23,Ticks_Phase_5,47,9999,9999,9999,878559328
16,9,23,Ticks_Phase_5,48,9999,9999,9999,879069308
16,9,23,Ticks_Phase_5,49,9999,9999,9999,879570032
16,9,23,Ticks_Phase_5,50,9999,9999,9999,880069700
16,9,23,Ticks_Phase_5,51,9999,9999,9999,880569440
16,9,23,Ticks_Phase_5,52,9999,9999,9999,881069112
16,9,23,Ticks_Phase_5,53,9999,9999,9999,881569908
16,9,23,Ticks_Phase_5,54,9999,9999,9999,882069580
16,9,23,Ticks_Phase_5,55,9999,9999,9999,882569320
16,9,23,Ticks_Phase_5,56,9999,9999,9999,883070040
16,9,23,Ticks_Phase_5,57,9999,9999,9999,883569788
16,9,23,Ticks_Phase_5,58,9999,9999,9999,884069452
16,9,23,Ticks_Phase_5,59,9999,9999,9999,884569204
16,9,23,Ticks_Phase_5,60,9999,9999,9999,885069916
16,9,23,Ticks_Phase_5,61,9999,9999,9999,885569592
16,9,23,Ticks_Phase_5,62,9999,9999,9999,886069312
16,9,23,Ticks_Phase_5,63,9999,9999,9999,886570096
16,9,23,Ticks_Phase_5,64,9999,9999,9999,887089208
16,9,23,Ticks_Phase_5,65,9999,9999,9999,887590000
16,9,23,Ticks_Phase_5,66,9999,9999,9999,888089668
16,9,23,Ticks_Phase_5,67,9999,9999,9999,888589416
16,9,23,Ticks_Phase_5,68,9999,9999,9999,889089084
16,9,23,Ticks_Phase_5,69,9999,9999,9999,889589880
16,9,23,Ticks_Phase_5,70,9999,9999,9999,890089548
16,9,23,Ticks_Phase_5,71,9999,9999,9999,890589292
16,9,23,Ticks_Phase_5,72,9999,9999,9999,891090012
16,9,23,Ticks_Phase_5,73,9999,9999,9999,891589760
16,9,23,Ticks_Phase_5,74,9999,9999,9999,892089424
16,9,23,Ticks_Phase_5,75,9999,9999,9999,892589168
16,9,23,Ticks_Phase_5,76,9999,9999,9999,893089892
16,9,23,Ticks_Phase_5,77,9999,9999,9999,893589564
16,9,23,Ticks_Phase_5,78,9999,9999,9999,894089308
16,9,23,Ticks_Phase_5,79,9999,9999,9999,894590024
16,9,23,Ticks_Phase_5,80,9999,9999,9999,895089772
16,9,23,Ticks_Phase_5,81,9999,9999,9999,895570004
16,9,23,Ticks_Phase_5,82,9999,9999,9999,896069744
16,9,23,Ticks_Phase_5,83,9999,9999,9999,896569416
16,9,23,Ticks_Phase_5,84,9999,9999,9999,897069136
16,9,23,Ticks_Phase_5,85,9999,9999,9999,897569852
16,9,23,Ticks_Phase_5,86,9999,9999,9999,898069604
16,9,23,Ticks_Phase_5,87,9999,9999,9999,898569288
16,9,23,Ticks_Phase_5,88,9999,9999,9999,899070008
16,9,23,Ticks_Phase_5,89,9999,9999,9999,899569748
16,9,23,Ticks_Phase_5,90,9999,9999,9999,900069492
16,9,23,Ticks_Phase_5,91,9999,9999,9999,900569164
16,9,23,Ticks_Phase_5,92,9999,9999,9999,901069880
16,9,23,Ticks_Phase_5,93,9999,9999,9999,901569624
16,9,23,Ticks_Phase_5,94,9999,9999,9999,902069368
16,9,23,Ticks_Phase_5,95,9999,9999,9999,902570088
16,9,23,Ticks_Phase_5,96,9999,9999,9999,903069756
16,9,23,Ticks_Phase_5,97,9999,9999,9999,903519344
16,9,23,Ticks_Phase_5,98,9999,9999,9999,904020056
16,9,23,Ticks_Phase_5,99,9999,9999,9999,904519800
16,9,23,Ticks_Phase_5,100,9999,9999,9999,905019472
16,9,23,Ticks_Phase_5,101,9999,9999,9999,905519192
16,9,23,Ticks_Phase_5,102,9999,9999,9999,906019908
16,9,23,Ticks_Phase_5,103,9999,9999,9999,906519652
16,9,23,Ticks_Phase_5,104,9999,9999,9999,907019328
16,9,23,Ticks_Phase_5,105,9999,9999,9999,907520112
16,9,23,Ticks_Phase_5,106,9999,9999,9999,908030024
16,9,23,Ticks_Phase_5,107,9999,9999,9999,908529772
16,9,23,Ticks_Phase_5,108,9999,9999,9999,909029440
16,9,23,Ticks_Phase_5,109,9999,9999,9999,909529196
16,9,23,Ticks_Phase_5,110,9999,9999,9999,910029908
16,9,23,Ticks_Phase_5,111,9999,9999,9999,910529652
16,9,23,Ticks_Phase_5,112,9999,9999,9999,911029324
16,9,23,Ticks_Phase_5,113,9999,9999,9999,911530108
16,9,23,Ticks_Phase_5,114,9999,9999,9999,912079944
16,9,23,Ticks_Phase_5,115,9999,9999,9999,912579700
16,9,23,Ticks_Phase_5,116,9999,9999,9999,913079364
16,9,23,Ticks_Phase_5,117,9999,9999,9999,913579108
16,9,23,Ticks_Phase_5,118,9999,9999,9999,914079828
16,9,23,Ticks_Phase_5,119,9999,9999,9999,914579568
16,9,23,Ticks_Phase_5,120,9999,9999,9999,915079240
16,9,23,Ticks_Phase_5,121,9999,9999,9999,915580032
16,9,23,Ticks_Phase_5,122,9999,9999,9999,916079704
16,9,23,Ticks_Phase_5,123,9999,9999,9999,916579448
16,9,23,Ticks_Phase_5,124,9999,9999,9999,917079124
16,9,23,Ticks_Phase_5,125,9999,9999,9999,917579836
16,9,23,Ticks_Phase_5,126,9999,9999,9999,918079584
16,9,23,Ticks_Phase_5,127,9999,9999,9999,918579308
16,9,23,Ticks_Phase_5,128,9999,9999,9999,919080024
16,9,23,Ticks_Phase_5,129,9999,9999,9999,919579764
16,9,23,Ticks_Phase_5,130,9999,9999,9999,920079436
16,9,23,Ticks_Phase_5,131,9999,9999,9999,920679524
16,9,23,Ticks_Phase_5,132,9999,9999,9999,921179216
16,9,23,Ticks_Phase_5,133,9999,9999,9999,921679932
16,9,23,Ticks_Phase_5,134,9999,9999,9999,922179668
16,9,23,Ticks_Phase_5,135,9999,9999,9999,922679416
16,9,23,Ticks_Phase_5,136,9999,9999,9999,923179136
16,9,23,Ticks_Phase_5,137,9999,9999,9999,923679852
16,9,23,Ticks_Phase_5,138,9999,9999,9999,924179524
16,9,23,Ticks_Phase_5,139,9999,9999,9999,924679268
16,9,23,Ticks_Phase_5,140,9999,9999,9999,925179984
16,9,23,Ticks_Phase_5,141,9999,9999,9999,925679728
16,9,23,Ticks_Phase_5,142,9999,9999,9999,926179404
16,9,23,Ticks_Phase_5,143,9999,9999,9999,926679148
16,9,23,Ticks_Phase_5,144,9999,9999,9999,927179860
16,9,23,Ticks_Phase_5,145,9999,9999,9999,927679604
16,9,23,Ticks_Phase_5,146,9999,9999,9999,928179276
16,9,23,Ticks_Phase_5,147,9999,9999,9999,928679992
16,9,23,Ticks_Phase_5,148,9999,9999,9999,929179740
16,9,23,Ticks_Phase_5,149,9999,9999,9999,929679484
16,9,23,Ticks_Phase_5,150,9999,9999,9999,930079852
16,9,23,Ticks_Phase_5,151,9999,9999,9999,930579524
16,9,23,Ticks_Phase_5,152,9999,9999,9999,931079264
16,9,23,Ticks_Phase_5,153,9999,9999,9999,931579980
16,9,23,Ticks_Phase_5,154,9999,9999,9999,932079724
16,9,23,Ticks_Phase_5,155,9999,9999,9999,932579396
16,9,23,Ticks_Phase_5,156,9999,9999,9999,933079144
16,9,23,Ticks_Phase_5,157,9999,9999,9999,933579856
16,9,23,Ticks_Phase_5,158,9999,9999,9999,934079604
16,9,23,Ticks_Phase_5,159,9999,9999,9999,934579280
16,9,23,Ticks_Phase_5,160,9999,9999,9999,935079988
16,9,23,Ticks_Phase_5,161,9999,9999,9999,935579736
16,9,23,Ticks_Phase_5,162,9999,9999,9999,936079480
16,9,23,Ticks_Phase_5,163,9999,9999,9999,936579152
16,9,23,Ticks_Phase_5,164,9999,9999,9999,937079868
16,9,23,Ticks_Phase_5,165,9999,9999,9999,937579576
16,9,23,Ticks_Phase_5,166,9999,9999,9999,938079360
16,9,23,Ticks_Phase_5,167,9999,9999,9999,938580076
16,9,23,Ticks_Phase_5,168,9999,9999,9999,939079744
16,9,23,Ticks_Phase_5,169,9999,9999,9999,939579488
16,1,22,Ticks_Phase_8,0,5,42,127,16207144
16,1,22,Ticks_Phase_8,1,1,48,23,16526152
16,1,22,Ticks_Phase_8,2,1,48,19,16834088
16,1,22,Ticks_Phase_8,3,5,42,127,17007056
16,1,22,Ticks_Phase_8,4,1,48,26,17745676
16,1,22,Ticks_Phase_8,5,5,42,127,17806708
16,1,22,Ticks_Phase_8,6,5,42,127,18606504
16,1,22,Ticks_Phase_8,7,1,48,27,18617772
16,1,22,Ticks_Phase_8,8,1,48,31,19368948
16,1,22,Ticks_Phase_8,9,5,42,127,19407328
16,1,22,Ticks_Phase_8,10,1,48,26,20162608
16,1,22,Ticks_Phase_8,11,5,42,127,20206824
16,1,22,Ticks_Phase_8,12,1,48,25,20974496
16,1,22,Ticks_Phase_8,13,5,42,127,21006856
16,1,22,Ticks_Phase_8,14,1,48,21,21763472
16,1,22,Ticks_Phase_8,15,5,42,127,21806420
16,1,22,Ticks_Phase_8,16,1,48,22,22549884
16,1,22,Ticks_Phase_8,17,5,42,127,22607104
16,1,22,Ticks_Phase_8,18,1,48,24,23355508
16,1,22,Ticks_Phase_8,19,5,42,127,23406892
16,1,22,Ticks_Phase_8,20,5,42,127,24206908
16,1,22,Ticks_Phase_8,21,1,48,24,24209348
16,1,22,Ticks_Phase_8,22,1,48,23,24944452
16,1,22,Ticks_Phase_8,23,5,42,127,25006540
16,1,22,Ticks_Phase_8,24,1,48,23,25766896
16,1,22,Ticks_Phase_8,25,5,42,127,25807148
16,1,22,Ticks_Phase_8,26,1,48,25,26581412
16,1,22,Ticks_Phase_8,27,5,42,127,26606864
16,1,22,Ticks_Phase_8,28,1,48,25,27342024
16,1,22,Ticks_Phase_8,29,5,42,127,27406600
16,1,22,Ticks_Phase_8,30,1,48,23,28197992
16,1,22,Ticks_Phase_8,31,5,42,127,28206540
16,1,22,Ticks_Phase_8,32,1,48,23,28922036
16,1,22,Ticks_Phase_8,33,5,42,127,29007372
16,1,22,Ticks_Phase_8,34,1,48,21,29729832
16,1,22,Ticks_Phase_8,35,5,42,127,29806936
16,1,22,Ticks_Phase_8,36,1,48,22,30571328
16,1,22,Ticks_Phase_8,37,5,42,127,30606648
16,1,22,Ticks_Phase_8,38,5,42,127,31406592
16,1,22,Ticks_Phase_8,39,1,48,22,31412396
16,1,22,Ticks_Phase_8,40,1,48,21,32191388
16,1,22,Ticks_Phase_8,41,5,42,127,32207492
16,1,22,Ticks_Phase_8,42,1,48,20,32981308
16,1,22,Ticks_Phase_8,43,5,42,127,33007056
16,1,22,Ticks_Phase_8,44,1,48,19,33764804
16,1,22,Ticks_Phase_8,45,5,42,127,33806720
16,1,22,Ticks_Phase_8,46,1,48,24,34588312
16,1,22,Ticks_Phase_8,47,5,42,127,34606504
16,1,22,Ticks_Phase_8,48,1,48,21,35369408
16,1,22,Ticks_Phase_8,49,5,42,127,35407192
16,1,22,Ticks_Phase_8,50,1,48,21,36160000
16,1,22,Ticks_Phase_8,51,5,42,127,36207052
16,1,22,Ticks_Phase_8,52,1,48,22,36927188
16,1,22,Ticks_Phase_8,53,5,42,127,37006616
16,1,22,Ticks_Phase_8,54,1,48,20,37761068
16,1,22,Ticks_Phase_8,55,5,42,127,37806404
16,1,22,Ticks_Phase_8,56,1,48,17,38582680
16,1,22,Ticks_Phase_8,57,5,42,127,38607160
16,1,22,Ticks_Phase_8,58,1,48,23,39395340
16,1,22,Ticks_Phase_8,59,5,42,127,39407100
16,1,22,Ticks_Phase_8,60,5,42,127,40187184
16,1,22,Ticks_Phase_8,61,1,48,27,40191716
16,1,22,Ticks_Phase_8,62,1,48,21,40942948
16,1,22,Ticks_Phase_8,63,5,42,127,40986964
16,1,22,Ticks_Phase_8,64,1,48,25,41702284
16,1,22,Ticks_Phase_8,65,5,42,127,41786752
16,1,22,Ticks_Phase_8,66,1,48,21,42574092
16,1,22,Ticks_Phase_8,67,5,42,127,42586540
16,1,22,Ticks_Phase_8,68,5,42,127,43387300
16,1,22,Ticks_Phase_8,69,1,48,24,43402000
16,1,22,Ticks_Phase_8,70,1,48,25,44142944
16,1,22,Ticks_Phase_8,71,5,42,127,44186936
16,1,22,Ticks_Phase_8,72,1,48,21,44971068
16,1,22,Ticks_Phase_8,73,5,42,127,44986796
16,1,22,Ticks_Phase_8,74,1,48,26,45766372
16,1,22,Ticks_Phase_8,75,5,42,127,45786508
16,1,22,Ticks_Phase_8,76,1,48,26,46560172
16,1,22,Ticks_Phase_8,77,5,42,127,46587144
16,1,22,Ticks_Phase_8,78,1,48,23,47380620
16,1,22,Ticks_Phase_8,79,5,42,127,47386932
16,1,22,Ticks_Phase_8,80,1,48,21,48162240
16,1,22,Ticks_Phase_8,81,5,42,127,48186716
16,1,22,Ticks_Phase_8,82,1,48,15,48978924
16,1,22,Ticks_Phase_8,83,5,42,127,48986432
16,1,22,Ticks_Phase_8,84,1,48,20,49742000
16,1,22,Ticks_Phase_8,85,5,42,127,49787412
16,1,22,Ticks_Phase_8,86,5,42,127,50586984
16,1,22,Ticks_Phase_8,87,1,48,19,50603996
16,1,22,Ticks_Phase_8,88,1,48,16,51351220
16,1,22,Ticks_Phase_8,89,5,42,127,51386616
16,1,22,Ticks_Phase_8,90,1,48,18,52128884
16,1,22,Ticks_Phase_8,91,5,42,127,52186400
16,1,22,Ticks_Phase_8,92,1,48,23,52949304
16,1,22,Ticks_Phase_8,93,5,42,127,52987332
16,1,22,Ticks_Phase_8,94,1,48,25,53770044
16,1,22,Ticks_Phase_8,95,5,42,127,53786972
16,1,22,Ticks_Phase_8,96,1,48,16,54525580
16,1,22,Ticks_Phase_8,97,5,42,127,54607392
16,1,22,Ticks_Phase_8,98,5,42,127,55407036
16,1,22,Ticks_Phase_8,99,1,48,20,55430564
16,1,22,Ticks_Phase_8,100,1,48,25,56159016
16,1,22,Ticks_Phase_8,101,5,42,127,56206744
16,1,22,Ticks_Phase_8,102,1,48,23,56965540
16,1,22,Ticks_Phase_8,103,5,42,127,57006384
16,1,22,Ticks_Phase_8,104,1,48,17,57764564
16,1,22,Ticks_Phase_8,105,5,42,127,57807364
16,1,22,Ticks_Phase_8,106,1,48,23,58554184
16,1,22,Ticks_Phase_8,107,5,42,127,58607080
16,1,22,Ticks_Phase_8,108,1,48,25,59363472
16,1,22,Ticks_Phase_8,109,5,42,127,59406740
16,1,22,Ticks_Phase_8,110,1,48,24,60169044
16,1,22,Ticks_Phase_8,111,5,42,127,60206528
16,1,22,Ticks_Phase_8,112,1,48,25,60966444
16,1,22,Ticks_Phase_8,113,5,42,127,61007140
16,1,22,Ticks_Phase_8,114,1,48,24,61781032
16,1,22,Ticks_Phase_8,115,5,42,127,61806852
16,1,22,Ticks_Phase_8,116,1,48,24,62544252
16,1,22,Ticks_Phase_8,117,5,42,127,62606788
16,1,22,Ticks_Phase_8,118,1,48,23,63349880
16,1,22,Ticks_Phase_8,119,5,42,127,63406500
16,1,22,Ticks_Phase_8,120,1,48,19,64162220
16,1,22,Ticks_Phase_8,121,5,42,127,64207184
16,1,22,Ticks_Phase_8,122,1,48,20,64985496
16,1,22,Ticks_Phase_8,123,5,42,127,65006976
16,1,22,Ticks_Phase_8,124,1,48,24,65745360
16,1,22,Ticks_Phase_8,125,5,42,127,65806784
16,1,22,Ticks_Phase_8,126,5,42,127,66606656
16,1,22,Ticks_Phase_8,127,1,48,24,66613504
16,1,22,Ticks_Phase_8,128,1,48,23,67389516
16,1,22,Ticks_Phase_8,129,5,42,127,67447108
16,1,22,Ticks_Phase_8,130,5,42,127,68246900
16,1,22,Ticks_Phase_8,131,1,48,19,68253672
16,1,22,Ticks_Phase_8,132,1,48,22,69022352
16,1,22,Ticks_Phase_8,133,5,42,127,69046532
16,1,22,Ticks_Phase_8,134,1,48,25,69773768
16,1,22,Ticks_Phase_8,135,5,42,127,69847516
16,1,22,Ticks_Phase_8,136,1,48,27,70616024
16,1,22,Ticks_Phase_8,137,5,42,127,70647328
16,1,22,Ticks_Phase_8,138,1,48,21,71424512
16,1,22,Ticks_Phase_8,139,5,42,127,71446744
16,1,22,Ticks_Phase_8,140,1,48,26,72220552
16,1,22,Ticks_Phase_8,141,5,42,127,72246604
16,1,22,Ticks_Phase_8,142,1,48,23,72998812
16,1,22,Ticks_Phase_8,143,5,42,127,73047588
16,1,22,Ticks_Phase_8,144,5,42,127,73847080
16,1,22,Ticks_Phase_8,145,1,48,24,73860660
16,1,22,Ticks_Phase_8,146,1,48,22,74619396
16,1,22,Ticks_Phase_8,147,5,42,127,74646864
16,1,22,Ticks_Phase_8,148,5,42,127,75446584
16,1,22,Ticks_Phase_8,149,1,48,21,75479824
16,1,22,Ticks_Phase_8,150,1,48,21,76210668
16,1,22,Ticks_Phase_8,151,5,42,127,76247408
16,1,22,Ticks_Phase_8,152,1,48,25,76994300
16,1,22,Ticks_Phase_8,153,5,42,127,77047368
16,1,22,Ticks_Phase_8,154,1,48,25,77845504
16,1,22,Ticks_Phase_8,155,5,42,127,77847304
16,1,22,Ticks_Phase_8,156,1,48,24,78575152
16,1,22,Ticks_Phase_8,157,5,42,127,78646648
16,1,22,Ticks_Phase_8,158,5,42,127,79447340
16,1,22,Ticks_Phase_8,159,1,48,18,79448304
16,1,22,Ticks_Phase_8,160,1,48,24,80213144
16,1,22,Ticks_Phase_8,161,5,42,127,80247268
16,1,22,Ticks_Phase_8,162,1,48,19,80982060
16,1,22,Ticks_Phase_8,163,5,42,127,81007136
16,1,22,Ticks_Phase_8,164,1,48,18,81796136
16,1,22,Ticks_Phase_8,165,5,42,127,81806772
16,1,22,Ticks_Phase_8,166,1,48,24,82528780
16,1,22,Ticks_Phase_8,167,5,42,127,82606412
16,1,22,Ticks_Phase_8,168,5,42,127,83407176
16,1,22,Ticks_Phase_8,169,1,48,19,83409264
16,1,22,Ticks_Phase_8,170,1,48,19,84191896
16,1,22,Ticks_Phase_8,171,5,42,127,84207056
16,1,22,Ticks_Phase_8,172,1,48,23,84987008
16,1,22,Ticks_Phase_8,173,5,42,127,85006992
16,1,22,Ticks_Phase_8,174,5,42,127,85806340
16,1,22,Ticks_Phase_8,175,1,48,26,85809384
16,1,22,Ticks_Phase_8,176,1,48,20,86595476
16,1,22,Ticks_Phase_8,177,5,42,127,86607168
16,1,22,Ticks_Phase_8,178,1,48,21,87366332
16,1,22,Ticks_Phase_8,179,5,42,127,87407100
16,1,22,Ticks_Phase_8,180,1,48,19,88186528
16,1,22,Ticks_Phase_8,181,5,42,127,88206892
16,1,22,Ticks_Phase_8,182,1,48,20,88968748
16,1,22,Ticks_Phase_8,183,5,42,127,89006384
16,1,22,Ticks_Phase_8,184,1,48,23,89780644
16,1,22,Ticks_Phase_8,185,5,42,127,89807140
16,1,22,Ticks_Phase_8,186,1,48,17,90582152
16,1,22,Ticks_Phase_8,187,5,42,127,90606952
16,1,22,Ticks_Phase_8,188,1,48,28,91402144
16,1,22,Ticks_Phase_8,189,5,42,127,91406812
16,1,22,Ticks_Phase_8,190,5,42,127,92206460
16,1,22,Ticks_Phase_8,191,1,48,18,92220488
16,1,22,Ticks_Phase_8,192,1,48,24,92966440
16,1,22,Ticks_Phase_8,193,5,42,127,93007432
16,1,22,Ticks_Phase_8,194,5,42,127,93727008
16,1,22,Ticks_Phase_8,195,1,48,23,93772732
16,1,22,Ticks_Phase_8,196,1,48,20,94445876
16,1,22,Ticks_Phase_8,197,5,42,127,94526792
16,1,22,Ticks_Phase_8,198,1,48,25,95228092
16,1,22,Ticks_Phase_8,199,5,42,127,95326564
16,1,22,Ticks_Phase_8,200,1,48,24,96083564
16,1,22,Ticks_Phase_8,201,5,42,127,96127484
16,1,22,Ticks_Phase_8,202,1,48,21,96866988
16,1,22,Ticks_Phase_8,203,5,42,127,96927272
16,1,22,Ticks_Phase_8,204,1,48,27,97682392
16,1,22,Ticks_Phase_8,205,5,42,127,97726764
16,1,22,Ticks_Phase_8,206,1,48,29,98472836
16,1,22,Ticks_Phase_8,207,5,42,127,98526476
16,1,22,Ticks_Phase_8,208,1,48,24,99318780
16,1,22,Ticks_Phase_8,209,5,42,127,99327332
16,1,22,Ticks_Phase_8,210,1,48,27,100104132
16,1,22,Ticks_Phase_8,211,5,42,127,100127048
16,1,22,Ticks_Phase_8,212,1,48,17,100926692
16,1,22,Ticks_Phase_8,213,5,42,127,100928328
16,1,22,Ticks_Phase_8,214,1,48,27,101690408
16,1,22,Ticks_Phase_8,215,5,42,127,101726548
16,1,22,Ticks_Phase_8,216,1,48,22,102504556
16,1,22,Ticks_Phase_8,217,5,42,127,102527232
16,1,22,Ticks_Phase_8,218,1,48,24,103245724
16,1,22,Ticks_Phase_8,219,5,42,127,103326944
16,1,22,Ticks_Phase_8,220,1,48,24,104126360
16,1,22,Ticks_Phase_8,221,5,42,127,104128152
16,1,22,Ticks_Phase_8,222,1,48,24,104912504
16,1,22,Ticks_Phase_8,223,5,42,127,104926448
16,1,22,Ticks_Phase_8,224,1,48,22,105712468
16,1,22,Ticks_Phase_8,225,5,42,127,105727228
16,1,22,Ticks_Phase_8,226,1,48,24,106492368
16,1,22,Ticks_Phase_8,227,5,42,127,106527016
16,1,22,Ticks_Phase_8,228,1,48,25,107285360
16,1,22,Ticks_Phase_8,229,5,42,127,107406784
16,1,22,Ticks_Phase_8,230,5,42,127,108206520
16,1,22,Ticks_Phase_8,231,1,48,22,108228548
16,1,22,Ticks_Phase_8,232,1,48,22,108977040
16,1,22,Ticks_Phase_8,233,5,42,127,109007124
16,1,22,Ticks_Phase_8,234,1,48,24,109757692
16,1,22,Ticks_Phase_8,235,5,42,127,109807008
16,1,22,Ticks_Phase_8,236,1,48,23,110566676
16,1,22,Ticks_Phase_8,237,5,42,127,110606796
16,1,22,Ticks_Phase_8,238,5,42,127,111406516
16,1,22,Ticks_Phase_8,239,1,48,25,111435952
16,1,22,Ticks_Phase_8,240,1,48,24,112180772
16,1,22,Ticks_Phase_8,241,5,42,127,112207340
16,1,22,Ticks_Phase_8,242,1,48,24,112986324
16,1,22,Ticks_Phase_8,243,5,42,127,113006908
16,1,22,Ticks_Phase_8,244,1,48,22,113749768
16,1,22,Ticks_Phase_8,245,5,42,127,113806840
16,1,22,Ticks_Phase_8,246,1,48,21,114549332
16,1,22,Ticks_Phase_8,247,5,42,127,114606556
16,1,22,Ticks_Phase_8,248,1,48,18,115393072
16,1,22,Ticks_Phase_8,249,5,42,127,115407312
16,1,22,Ticks_Phase_8,250,1,48,25,116182396
16,1,22,Ticks_Phase_8,251,5,42,127,116207048
16,1,22,Ticks_Phase_8,252,1,48,26,116991704
16,1,22,Ticks_Phase_8,253,5,42,127,117006836
16,1,22,Ticks_Phase_8,254,1,48,21,117798004
16,1,22,Ticks_Phase_8,255,5,42,127,117806476
16,1,22,Ticks_Phase_8,256,1,48,24,118567284
16,1,22,Ticks_Phase_8,257,5,42,127,118607308
16,1,22,Ticks_Phase_8,258,5,42,127,119407028
16,1,22,Ticks_Phase_8,259,1,48,27,119410816
16,1,22,Ticks_Phase_8,260,1,48,27,120185552
16,1,22,Ticks_Phase_8,261,5,42,127,120206664
16,1,22,Ticks_Phase_8,262,1,48,26,120951392
16,1,22,Ticks_Phase_8,263,5,42,127,121167420
16,1,22,Ticks_Phase_8,264,5,42,127,121966932
16,1,22,Ticks_Phase_8,265,1,48,24,121967896
16,1,22,Ticks_Phase_8,266,1,48,21,122744396
16,1,22,Ticks_Phase_8,267,5,42,127,122766784
16,1,22,Ticks_Phase_8,268,5,42,127,123566432
16,1,22,Ticks_Phase_8,269,1,48,27,123569252
16,1,22,Ticks_Phase_8,270,1,48,24,124344192
16,1,22,Ticks_Phase_8,271,5,42,127,124367332
16,1,22,Ticks_Phase_8,272,1,48,27,125153704
16,1,22,Ticks_Phase_8,273,5,42,127,125167144
16,1,22,Ticks_Phase_8,274,1,48,21,125934004
16,1,22,Ticks_Phase_8,275,5,42,127,125966632
16,1,22,Ticks_Phase_8,276,1,48,24,126760408
16,1,22,Ticks_Phase_8,277,5,42,127,126766420
16,1,22,Ticks_Phase_8,278,1,48,22,127526336
16,1,22,Ticks_Phase_8,279,5,42,127,127567180
16,1,22,Ticks_Phase_8,280,5,42,127,128366824
16,1,22,Ticks_Phase_8,281,1,48,24,128370984
16,1,22,Ticks_Phase_8,282,5,42,127,129166908
16,1,22,Ticks_Phase_8,283,1,48,25,129171068
16,1,22,Ticks_Phase_8,284,1,48,24,129936308
16,1,22,Ticks_Phase_8,285,5,42,127,129966540
16,1,22,Ticks_Phase_8,286,1,48,26,130725704
16,1,22,Ticks_Phase_8,287,5,42,127,130767148
16,1,22,Ticks_Phase_8,288,1,48,18,131512628
16,1,22,Ticks_Phase_8,289,5,42,127,131566960
16,1,22,Ticks_Phase_8,290,1,48,21,132363796
16,1,22,Ticks_Phase_8,291,5,42,127,132366672
16,1,22,Ticks_Phase_8,292,1,48,21,133131812
16,1,22,Ticks_Phase_8,293,5,42,127,133166388
16,1,22,Ticks_Phase_8,294,1,48,20,133950892
16,1,22,Ticks_Phase_8,295,5,42,127,133967220
16,1,22,Ticks_Phase_8,296,1,48,24,134728928
16,1,22,Ticks_Phase_8,297,5,42,127,134767080
16,1,22,Ticks_Phase_8,298,1,48,21,135559136
16,1,22,Ticks_Phase_8,299,5,42,127,135566648
16,1,22,Ticks_Phase_8,300,5,42,127,136206752
16,1,22,Ticks_Phase_8,301,1,48,29,136345112
16,1,22,Ticks_Phase_8,302,1,48,17,137002980
16,1,22,Ticks_Phase_8,303,5,42,127,137006532
16,1,22,Ticks_Phase_8,304,1,48,19,137754784
16,1,22,Ticks_Phase_8,305,5,42,127,137807288
16,1,22,Ticks_Phase_8,306,5,42,127,138606860
16,1,22,Ticks_Phase_8,307,1,48,17,139393988
16,1,22,Ticks_Phase_8,308,5,42,127,139406660
16,1,22,Ticks_Phase_8,309,1,48,18,140186836
16,1,22,Ticks_Phase_8,310,5,42,127,140206376
16,1,22,Ticks_Phase_8,311,1,48,21,141004628
16,1,22,Ticks_Phase_8,312,5,42,127,141007356
16,1,22,Ticks_Phase_8,313,1,48,24,141802504
16,1,22,Ticks_Phase_8,314,5,42,127,141806944
16,1,22,Ticks_Phase_8,315,1,48,29,142606592
16,1,22,Ticks_Phase_8,316,5,42,127,142608300
16,1,22,Ticks_Phase_8,317,1,48,29,143375916
16,1,22,Ticks_Phase_8,318,5,42,127,143406372
16,1,22,Ticks_Phase_8,319,1,48,32,144188492
16,1,22,Ticks_Phase_8,320,5,42,127,144207352
16,1,22,Ticks_Phase_8,321,1,48,25,144956728
16,1,22,Ticks_Phase_8,322,5,42,127,145007068
16,1,22,Ticks_Phase_8,323,5,42,127,145806636
16,1,22,Ticks_Phase_8,324,1,48,26,145821116
16,1,22,Ticks_Phase_8,325,5,42,127,146606424
16,1,22,Ticks_Phase_8,326,1,48,26,146613424
16,1,22,Ticks_Phase_8,327,1,48,28,147373348
16,1,22,Ticks_Phase_8,328,5,42,127,147407176
16,1,22,Ticks_Phase_8,329,1,48,26,148165592
16,1,22,Ticks_Phase_8,330,5,42,127,148206912
16,1,22,Ticks_Phase_8,331,1,48,24,148989772
16,1,22,Ticks_Phase_8,332,5,42,127,149006848
16,1,22,Ticks_Phase_8,333,1,48,27,149782304
16,1,22,Ticks_Phase_8,334,5,42,127,149806412
16,1,22,Ticks_Phase_8,335,1,48,28,150527820
16,1,22,Ticks_Phase_8,336,5,42,127,150607172
16,1,22,Ticks_Phase_8,337,5,42,127,151406964
16,1,22,Ticks_Phase_8,0,9999,9999,9999,16204860
16,1,22,Ticks_Phase_8,1,9999,9999,9999,17004624
16,1,22,Ticks_Phase_8,2,9999,9999,9999,17804352
16,1,22,Ticks_Phase_8,3,9999,9999,9999,18604148
16,1,22,Ticks_Phase_8,4,9999,9999,9999,19404896
16,1,22,Ticks_Phase_8,5,9999,9999,9999,20204612
16,1,22,Ticks_Phase_8,6,9999,9999,9999,21004352
16,1,22,Ticks_Phase_8,7,9999,9999,9999,21804140
16,1,22,Ticks_Phase_8,8,9999,9999,9999,22604896
16,1,22,Ticks_Phase_8,9,9999,9999,9999,23404608
16,1,22,Ticks_Phase_8,10,9999,9999,9999,24204400
16,1,22,Ticks_Phase_8,11,9999,9999,9999,25004108
16,1,22,Ticks_Phase_8,12,9999,9999,9999,25804868
16,1,22,Ticks_Phase_8,13,9999,9999,9999,26604652
16,1,22,Ticks_Phase_8,14,9999,9999,9999,27404392
16,1,22,Ticks_Phase_8,15,9999,9999,9999,28204108
16,1,22,Ticks_Phase_8,16,9999,9999,9999,29004864
16,1,22,Ticks_Phase_8,17,9999,9999,9999,29804652
16,1,22,Ticks_Phase_8,18,9999,9999,9999,30604364
16,1,22,Ticks_Phase_8,19,9999,9999,9999,31404160
16,1,22,Ticks_Phase_8,20,9999,9999,9999,32204912
16,1,22,Ticks_Phase_8,21,9999,9999,9999,33004624
16,1,22,Ticks_Phase_8,22,9999,9999,9999,33804360
16,1,22,Ticks_Phase_8,23,9999,9999,9999,34604148
16,1,22,Ticks_Phase_8,24,9999,9999,9999,35404908
16,1,22,Ticks_Phase_8,25,9999,9999,9999,36204620
16,1,22,Ticks_Phase_8,26,9999,9999,9999,37004408
16,1,22,Ticks_Phase_8,27,9999,9999,9999,37804120
16,1,22,Ticks_Phase_8,28,9999,9999,9999,38604880
16,1,22,Ticks_Phase_8,29,9999,9999,9999,39404668
16,1,22,Ticks_Phase_8,30,9999,9999,9999,40184900
16,1,22,Ticks_Phase_8,31,9999,9999,9999,40984680
16,1,22,Ticks_Phase_8,32,9999,9999,9999,41784392
16,1,22,Ticks_Phase_8,33,9999,9999,9999,42584180
16,1,22,Ticks_Phase_8,34,9999,9999,9999,43384944
16,1,22,Ticks_Phase_8,35,9999,9999,9999,44184652
16,1,22,Ticks_Phase_8,36,9999,9999,9999,44984440
16,1,22,Ticks_Phase_8,37,9999,9999,9999,45784152
16,1,22,Ticks_Phase_8,38,9999,9999,9999,46584936
16,1,22,Ticks_Phase_8,39,9999,9999,9999,47384648
16,1,22,Ticks_Phase_8,40,9999,9999,9999,48184436
16,1,22,Ticks_Phase_8,41,9999,9999,9999,48984148
16,1,22,Ticks_Phase_8,42,9999,9999,9999,49784904
16,1,22,Ticks_Phase_8,43,9999,9999,9999,50584700
16,1,22,Ticks_Phase_8,44,9999,9999,9999,51384404
16,1,22,Ticks_Phase_8,45,9999,9999,9999,52184120
16,1,22,Ticks_Phase_8,46,9999,9999,9999,52984900
16,1,22,Ticks_Phase_8,47,9999,9999,9999,53784688
16,1,22,Ticks_Phase_8,48,9999,9999,9999,54604888
16,1,22,Ticks_Phase_8,49,9999,9999,9999,55404604
16,1,22,Ticks_Phase_8,50,9999,9999,9999,56204388
16,1,22,Ticks_Phase_8,51,9999,9999,9999,57004104
16,1,22,Ticks_Phase_8,52,9999,9999,9999,57804860
16,1,22,Ticks_Phase_8,53,9999,9999,9999,58604648
16,1,22,Ticks_Phase_8,54,9999,9999,9999,59404384
16,1,22,Ticks_Phase_8,55,9999,9999,9999,60204096
16,1,22,Ticks_Phase_8,56,9999,9999,9999,61004856
16,1,22,Ticks_Phase_8,57,9999,9999,9999,61804644
16,1,22,Ticks_Phase_8,58,9999,9999,9999,62604356
16,1,22,Ticks_Phase_8,59,9999,9999,9999,63404144
16,1,22,Ticks_Phase_8,60,9999,9999,9999,64204900
16,1,22,Ticks_Phase_8,61,9999,9999,9999,65004616
16,1,22,Ticks_Phase_8,62,9999,9999,9999,65804356
16,1,22,Ticks_Phase_8,63,9999,9999,9999,66604148
16,1,22,Ticks_Phase_8,64,9999,9999,9999,67444824
16,1,22,Ticks_Phase_8,65,9999,9999,9999,68244544
16,1,22,Ticks_Phase_8,66,9999,9999,9999,69044324
16,1,22,Ticks_Phase_8,67,9999,9999,9999,69845084
16,1,22,Ticks_Phase_8,68,9999,9999,9999,70644820
16,1,22,Ticks_Phase_8,69,9999,9999,9999,71444536
16,1,22,Ticks_Phase_8,70,9999,9999,9999,72244320
16,1,22,Ticks_Phase_8,71,9999,9999,9999,73045080
16,1,22,Ticks_Phase_8,72,9999,9999,9999,73844796
16,1,22,Ticks_Phase_8,73,9999,9999,9999,74644580
16,1,22,Ticks_Phase_8,74,9999,9999,9999,75444300
16,1,22,Ticks_Phase_8,75,9999,9999,9999,76245048
16,1,22,Ticks_Phase_8,76,9999,9999,9999,77044860
16,1,22,Ticks_Phase_8,77,9999,9999,9999,77844584
16,1,22,Ticks_Phase_8,78,9999,9999,9999,78644288
16,1,22,Ticks_Phase_8,79,9999,9999,9999,79445056
16,1,22,Ticks_Phase_8,80,9999,9999,9999,80244836
16,1,22,Ticks_Phase_8,81,9999,9999,9999,81004628
16,1,22,Ticks_Phase_8,82,9999,9999,9999,81804340
16,1,22,Ticks_Phase_8,83,9999,9999,9999,82604128
16,1,22,Ticks_Phase_8,84,9999,9999,9999,83404892
16,1,22,Ticks_Phase_8,85,9999,9999,9999,84204600
16,1,22,Ticks_Phase_8,86,9999,9999,9999,85004416
16,1,22,Ticks_Phase_8,87,9999,9999,9999,85804132
16,1,22,Ticks_Phase_8,88,9999,9999,9999,86604884
16,1,22,Ticks_Phase_8,89,9999,9999,9999,87404672
16,1,22,Ticks_Phase_8,90,9999,9999,9999,88204384
16,1,22,Ticks_Phase_8,91,9999,9999,9999,89004100
16,1,22,Ticks_Phase_8,92,9999,9999,9999,89804856
16,1,22,Ticks_Phase_8,93,9999,9999,9999,90604644
16,1,22,Ticks_Phase_8,94,9999,9999,9999,91404380
16,1,22,Ticks_Phase_8,95,9999,9999,9999,92204100
16,1,22,Ticks_Phase_8,96,9999,9999,9999,93004928
16,1,22,Ticks_Phase_8,97,9999,9999,9999,93724724
16,1,22,Ticks_Phase_8,98,9999,9999,9999,94524508
16,1,22,Ticks_Phase_8,99,9999,9999,9999,95324280
16,1,22,Ticks_Phase_8,100,9999,9999,9999,96125052
16,1,22,Ticks_Phase_8,101,9999,9999,9999,96924764
16,1,22,Ticks_Phase_8,102,9999,9999,9999,97724480
16,1,22,Ticks_Phase_8,103,9999,9999,9999,98524268
16,1,22,Ticks_Phase_8,104,9999,9999,9999,99325048
16,1,22,Ticks_Phase_8,105,9999,9999,9999,100124764
16,1,22,Ticks_Phase_8,106,9999,9999,9999,100924484
16,1,22,Ticks_Phase_8,107,9999,9999,9999,101724264
16,1,22,Ticks_Phase_8,108,9999,9999,9999,102525024
16,1,22,Ticks_Phase_8,109,9999,9999,9999,103324736
16,1,22,Ticks_Phase_8,110,9999,9999,9999,104124528
16,1,22,Ticks_Phase_8,111,9999,9999,9999,104924240
16,1,22,Ticks_Phase_8,112,9999,9999,9999,105725020
16,1,22,Ticks_Phase_8,113,9999,9999,9999,106524732
16,1,22,Ticks_Phase_8,114,9999,9999,9999,107404352
16,1,22,Ticks_Phase_8,115,9999,9999,9999,108204088
16,1,22,Ticks_Phase_8,116,9999,9999,9999,109004916
16,1,22,Ticks_Phase_8,117,9999,9999,9999,109804652
16,1,22,Ticks_Phase_8,118,9999,9999,9999,110604364
16,1,22,Ticks_Phase_8,119,9999,9999,9999,111404156
16,1,22,Ticks_Phase_8,120,9999,9999,9999,112204908
16,1,22,Ticks_Phase_8,121,9999,9999,9999,113004624
16,1,22,Ticks_Phase_8,122,9999,9999,9999,113804408
16,1,22,Ticks_Phase_8,123,9999,9999,9999,114604124
16,1,22,Ticks_Phase_8,124,9999,9999,9999,115404880
16,1,22,Ticks_Phase_8,125,9999,9999,9999,116204616
16,1,22,Ticks_Phase_8,126,9999,9999,9999,117004404
16,1,22,Ticks_Phase_8,127,9999,9999,9999,117804120
16,1,22,Ticks_Phase_8,128,9999,9999,9999,118604876
16,1,22,Ticks_Phase_8,129,9999,9999,9999,119404668
16,1,22,Ticks_Phase_8,130,9999,9999,9999,120204376
16,1,22,Ticks_Phase_8,131,9999,9999,9999,121164912
16,1,22,Ticks_Phase_8,132,9999,9999,9999,121964648
16,1,22,Ticks_Phase_8,133,9999,9999,9999,122764352
16,1,22,Ticks_Phase_8,134,9999,9999,9999,123564148
16,1,22,Ticks_Phase_8,135,9999,9999,9999,124364900
16,1,22,Ticks_Phase_8,136,9999,9999,9999,125164636
16,1,22,Ticks_Phase_8,137,9999,9999,9999,125964352
16,1,22,Ticks_Phase_8,138,9999,9999,9999,126764140
16,1,22,Ticks_Phase_8,139,9999,9999,9999,127564896
16,1,22,Ticks_Phase_8,140,9999,9999,9999,128364616
16,1,22,Ticks_Phase_8,141,9999,9999,9999,129164400
16,1,22,Ticks_Phase_8,142,9999,9999,9999,129964108
16,1,22,Ticks_Phase_8,143,9999,9999,9999,130764868
16,1,22,Ticks_Phase_8,144,9999,9999,9999,131564604
16,1,22,Ticks_Phase_8,145,9999,9999,9999,132364392
16,1,22,Ticks_Phase_8,146,9999,9999,9999,133164104
16,1,22,Ticks_Phase_8,147,9999,9999,9999,133964864
16,1,22,Ticks_Phase_8,148,9999,9999,9999,134764648
16,1,22,Ticks_Phase_8,149,9999,9999,9999,135564364
16,1,22,Ticks_Phase_8,150,9999,9999,9999,136204392
16,1,22,Ticks_Phase_8,151,9999,9999,9999,137004100
16,1,22,Ticks_Phase_8,152,9999,9999,9999,137804856
16,1,22,Ticks_Phase_8,153,9999,9999,9999,138604652
16,1,22,Ticks_Phase_8,154,9999,9999,9999,139404376
16,1,22,Ticks_Phase_8,155,9999,9999,9999,140204092
16,1,22,Ticks_Phase_8,156,9999,9999,9999,141004924
16,1,22,Ticks_Phase_8,157,9999,9999,9999,141804664
16,1,22,Ticks_Phase_8,158,9999,9999,9999,142604384
16,1,22,Ticks_Phase_8,159,9999,9999,9999,143404088
16,1,22,Ticks_Phase_8,160,9999,9999,9999,144204924
16,1,22,Ticks_Phase_8,161,9999,9999,9999,145004636
16,1,22,Ticks_Phase_8,162,9999,9999,9999,145804352
16,1,22,Ticks_Phase_8,163,9999,9999,9999,146604140
16,1,22,Ticks_Phase_8,164,9999,9999,9999,147404892
16,1,22,Ticks_Phase_8,165,9999,9999,9999,148204628
16,1,22,Ticks_Phase_8,166,9999,9999,9999,149004344
16,1,22,Ticks_Phase_8,167,9999,9999,9999,149804128
16,1,22,Ticks_Phase_8,168,9999,9999,9999,150604888
16,1,22,Ticks_Phase_8,169,9999,9999,9999,151404608
16,2,25,Jits_Pract_5,0,5,56,103,200519028
16,2,25,Jits_Pract_5,1,5,63,98,200522044
16,2,25,Jits_Pract_5,2,5,80,127,200525164
16,2,25,Jits_Pract_5,0,5,56,103,201018684
16,2,25,Jits_Pract_5,1,5,63,98,201021780
16,2,25,Jits_Pract_5,2,5,80,127,201024972
16,2,25,Jits_Pract_5,0,5,56,103,201518664
16,2,25,Jits_Pract_5,1,5,80,127,201528620
16,2,25,Jits_Pract_5,2,5,63,98,201549044
16,2,25,Jits_Pract_5,3,1,48,17,201631208
16,2,25,Jits_Pract_5,0,5,63,98,201969040
16,2,25,Jits_Pract_5,1,5,80,127,201998596
16,2,25,Jits_Pract_5,2,5,56,103,202009072
16,2,25,Jits_Pract_5,3,1,48,20,202025344
16,2,25,Jits_Pract_5,0,1,48,26,202469852
16,2,25,Jits_Pract_5,1,5,80,127,202529340
16,2,25,Jits_Pract_5,2,5,56,103,202539592
16,2,25,Jits_Pract_5,3,5,63,98,202569056
16,2,25,Jits_Pract_5,0,5,63,98,203018532
16,2,25,Jits_Pract_5,1,1,48,29,203044820
16,2,25,Jits_Pract_5,2,5,56,103,203049492
16,2,25,Jits_Pract_5,3,5,80,127,203058480
16,2,25,Jits_Pract_5,0,5,56,103,203469384
16,2,25,Jits_Pract_5,1,5,63,98,203519532
16,2,25,Jits_Pract_5,2,5,80,127,203538760
16,2,25,Jits_Pract_5,3,1,48,24,203550476
16,2,25,Jits_Pract_5,0,5,80,127,203968896
16,2,25,Jits_Pract_5,1,1,48,22,204004392
16,2,25,Jits_Pract_5,2,5,63,98,204019084
16,2,25,Jits_Pract_5,3,5,56,103,204058956
16,2,25,Jits_Pract_5,0,5,56,103,204468608
16,2,25,Jits_Pract_5,1,1,48,28,204480400
16,2,25,Jits_Pract_5,2,5,63,98,204499572
16,2,25,Jits_Pract_5,3,5,80,127,204568936
16,2,25,Jits_Pract_5,4,1,48,19,204612940
16,2,25,Jits_Pract_5,0,5,56,103,204969220
16,2,25,Jits_Pract_5,1,1,48,25,205026328
16,2,25,Jits_Pract_5,2,5,80,127,205028856
16,2,25,Jits_Pract_5,3,5,63,98,205058332
16,2,25,Jits_Pract_5,0,5,56,103,205479420
16,2,25,Jits_Pract_5,1,5,63,98,205488556
16,2,25,Jits_Pract_5,2,1,48,25,205511716
16,2,25,Jits_Pract_5,3,5,80,127,205528420
16,2,25,Jits_Pract_5,0,5,63,98,205968684
16,2,25,Jits_Pract_5,1,1,48,22,206015772
16,2,25,Jits_Pract_5,2,5,80,127,206048640
16,2,25,Jits_Pract_5,3,5,56,103,206058844
16,2,25,Jits_Pract_5,0,1,48,24,206500680
16,2,25,Jits_Pract_5,1,5,63,98,206518736
16,2,25,Jits_Pract_5,2,5,56,103,206558608
16,2,25,Jits_Pract_5,3,5,80,127,206561596
16,2,25,Jits_Pract_5,0,5,56,103,206978444
16,2,25,Jits_Pract_5,1,5,63,98,206988768
16,2,25,Jits_Pract_5,2,1,48,25,207004516
16,2,25,Jits_Pract_5,3,5,80,127,207028636
16,2,25,Jits_Pract_5,0,5,56,103,207468896
16,2,25,Jits_Pract_5,1,5,63,98,207472032
16,2,25,Jits_Pract_5,2,1,48,24,207485692
16,2,25,Jits_Pract_5,3,5,80,127,207489316
16,2,25,Jits_Pract_5,0,9999,9999,9999,200766572
16,2,25,Jits_Pract_5,1,9999,9999,9999,201266232
16,2,25,Jits_Pract_5,2,9999,9999,9999,201767012
16,2,25,Jits_Pract_5,3,9999,9999,9999,202266676
16,2,25,Jits_Pract_5,4,9999,9999,9999,202766404
16,2,25,Jits_Pract_5,5,9999,9999,9999,203266132
16,2,25,Jits_Pract_5,6,9999,9999,9999,203766896
16,2,25,Jits_Pract_5,7,9999,9999,9999,204266608
16,2,25,Jits_Pract_5,8,9999,9999,9999,204766296
16,2,25,Jits_Pract_5,9,9999,9999,9999,205267004
16,2,25,Jits_Pract_5,10,9999,9999,9999,205766736
16,2,25,Jits_Pract_5,11,9999,9999,9999,206266472
16,2,25,Jits_Pract_5,12,9999,9999,9999,206766188
16,2,25,Jits_Pract_5,13,9999,9999,9999,207266876
16,2,25,Jits_Pract_5,14,9999,9999,9999,207766596
16,3,24,Jits_Pract_8,0,5,56,103,215634312
16,3,24,Jits_Pract_8,1,5,63,98,215637404
16,3,24,Jits_Pract_8,2,5,80,127,215640744
16,3,24,Jits_Pract_8,0,5,56,103,216433968
16,3,24,Jits_Pract_8,1,5,63,98,216437140
16,3,24,Jits_Pract_8,2,5,80,127,216440332
16,3,24,Jits_Pract_8,3,1,48,14,216683396
16,3,24,Jits_Pract_8,0,5,80,127,217183604
16,3,24,Jits_Pract_8,1,1,48,18,217255008
16,3,24,Jits_Pract_8,2,5,63,98,217273804
16,3,24,Jits_Pract_8,3,5,56,103,217283984
16,3,24,Jits_Pract_8,0,5,56,103,218003920
16,3,24,Jits_Pract_8,1,5,63,98,218014176
16,3,24,Jits_Pract_8,2,5,80,127,218104104
16,3,24,Jits_Pract_8,3,1,48,20,218114700
16,3,24,Jits_Pract_8,0,1,48,16,218740048
16,3,24,Jits_Pract_8,1,5,63,98,218773740
16,3,24,Jits_Pract_8,2,5,80,127,218803664
16,3,24,Jits_Pract_8,3,5,56,103,218834248
16,3,24,Jits_Pract_8,4,1,48,17,218869688
16,3,24,Jits_Pract_8,0,1,48,18,219464824
16,3,24,Jits_Pract_8,1,5,56,103,219573732
16,3,24,Jits_Pract_8,2,1,48,19,219610424
16,3,24,Jits_Pract_8,3,5,80,127,219673832
16,3,24,Jits_Pract_8,4,5,63,98,219724156
16,3,24,Jits_Pract_8,0,5,56,103,220374740
16,3,24,Jits_Pract_8,1,5,80,127,220423616
16,3,24,Jits_Pract_8,2,5,63,98,220463560
16,3,24,Jits_Pract_8,3,1,48,21,220575636
16,3,24,Jits_Pract_8,0,1,48,15,221203076
16,3,24,Jits_Pract_8,1,5,80,127,221204796
16,3,24,Jits_Pract_8,2,5,63,98,221233524
16,3,24,Jits_Pract_8,3,5,56,103,221304264
16,3,24,Jits_Pract_8,0,1,48,13,221956852
16,3,24,Jits_Pract_8,1,5,63,98,222034368
16,3,24,Jits_Pract_8,2,5,56,103,222063832
16,3,24,Jits_Pract_8,3,5,80,127,222124492
16,3,24,Jits_Pract_8,0,1,48,20,222700784
16,3,24,Jits_Pract_8,1,5,56,103,222773592
16,3,24,Jits_Pract_8,2,5,80,127,222776656
16,3,24,Jits_Pract_8,3,1,48,17,222879824
16,3,24,Jits_Pract_8,4,5,63,98,222893540
16,3,24,Jits_Pract_8,0,1,48,17,223598024
16,3,24,Jits_Pract_8,1,5,56,103,223654376
16,3,24,Jits_Pract_8,2,5,80,127,223694308
16,3,24,Jits_Pract_8,3,5,63,98,223704488
16,3,24,Jits_Pract_8,0,1,48,16,224346904
16,3,24,Jits_Pract_8,1,5,56,103,224413952
16,3,24,Jits_Pract_8,2,5,80,127,224433484
16,3,24,Jits_Pract_8,3,1,48,17,224485524
16,3,24,Jits_Pract_8,4,5,63,98,224514416
16,3,24,Jits_Pract_8,0,1,48,19,225129716
16,3,24,Jits_Pract_8,1,5,80,127,225203648
16,3,24,Jits_Pract_8,2,1,48,17,225275580
16,3,24,Jits_Pract_8,3,5,56,103,225303880
16,3,24,Jits_Pract_8,4,5,63,98,225314280
16,3,24,Jits_Pract_8,0,1,48,22,225959352
16,3,24,Jits_Pract_8,1,5,63,98,225973748
16,3,24,Jits_Pract_8,2,5,80,127,226034060
16,3,24,Jits_Pract_8,3,5,56,103,226044464
16,3,24,Jits_Pract_8,4,1,48,16,226095580
16,3,24,Jits_Pract_8,0,1,48,22,226674400
16,3,24,Jits_Pract_8,1,5,56,103,226774412
16,3,24,Jits_Pract_8,2,5,63,98,226844224
16,3,24,Jits_Pract_8,3,5,80,127,226847508
16,3,24,Jits_Pract_8,0,9999,9999,9999,216031352
16,3,24,Jits_Pract_8,1,9999,9999,9999,216832060
16,3,24,Jits_Pract_8,2,9999,9999,9999,217642056
16,3,24,Jits_Pract_8,3,9999,9999,9999,218441804
16,3,24,Jits_Pract_8,4,9999,9999,9999,219241596
16,3,24,Jits_Pract_8,5,9999,9999,9999,220041312
16,3,24,Jits_Pract_8,6,9999,9999,9999,220842092
16,3,24,Jits_Pract_8,7,9999,9999,9999,221641836
16,3,24,Jits_Pract_8,8,9999,9999,9999,222441524
16,3,24,Jits_Pract_8,9,9999,9999,9999,223241292
16,3,24,Jits_Pract_8,10,9999,9999,9999,224042084
16,3,24,Jits_Pract_8,11,9999,9999,9999,224841800
16,3,24,Jits_Pract_8,12,9999,9999,9999,225641592
16,3,24,Jits_Pract_8,13,9999,9999,9999,226441304
16,3,24,Jits_Pract_8,14,9999,9999,9999,227242072
16,4,16,Jits_ISO_5,0,5,56,103,254515404
16,4,16,Jits_ISO_5,1,5,63,98,254518876
16,4,16,Jits_ISO_5,2,5,80,127,254521916
16,4,16,Jits_ISO_5,0,5,56,103,255016264
16,4,16,Jits_ISO_5,1,5,63,98,255019356
16,4,16,Jits_ISO_5,2,5,80,127,255022548
16,4,16,Jits_ISO_5,3,1,48,14,255211376
16,4,16,Jits_ISO_5,0,5,56,103,255515956
16,4,16,Jits_ISO_5,1,5,80,127,255526356
16,4,16,Jits_ISO_5,2,1,48,19,255534492
16,4,16,Jits_ISO_5,3,5,63,98,255545804
16,4,16,Jits_ISO_5,0,5,63,98,255965516
16,4,16,Jits_ISO_5,1,1,48,25,255995460
16,4,16,Jits_ISO_5,2,5,80,127,255997252
16,4,16,Jits_ISO_5,3,5,56,103,256005340
16,4,16,Jits_ISO_5,0,1,48,27,256458056
16,4,16,Jits_ISO_5,1,5,80,127,256525796
16,4,16,Jits_ISO_5,2,5,56,103,256535900
16,4,16,Jits_ISO_5,3,5,63,98,256565584
16,4,16,Jits_ISO_5,0,5,63,98,257016132
16,4,16,Jits_ISO_5,1,1,48,24,257019840
16,4,16,Jits_ISO_5,2,5,56,103,257045900
16,4,16,Jits_ISO_5,3,5,80,127,257056080
16,4,16,Jits_ISO_5,4,1,48,18,257166720
16,4,16,Jits_ISO_5,0,5,56,103,257465700
16,4,16,Jits_ISO_5,1,5,63,98,257515768
16,4,16,Jits_ISO_5,2,5,80,127,257536340
16,4,16,Jits_ISO_5,3,1,48,22,257554792
16,4,16,Jits_ISO_5,0,5,80,127,257965464
16,4,16,Jits_ISO_5,1,1,48,25,258015580
16,4,16,Jits_ISO_5,2,5,63,98,258017292
16,4,16,Jits_ISO_5,3,5,56,103,258055520
16,4,16,Jits_ISO_5,0,5,56,103,258466020
16,4,16,Jits_ISO_5,1,5,63,98,258495944
16,4,16,Jits_ISO_5,2,1,48,25,258546652
16,4,16,Jits_ISO_5,3,5,80,127,258565824
16,4,16,Jits_ISO_5,0,5,56,103,258966012
16,4,16,Jits_ISO_5,1,1,48,23,258993592
16,4,16,Jits_ISO_5,2,5,80,127,259026220
16,4,16,Jits_ISO_5,3,5,63,98,259056016
16,4,16,Jits_ISO_5,0,1,48,22,259448844
16,4,16,Jits_ISO_5,1,5,56,103,259475868
16,4,16,Jits_ISO_5,2,5,63,98,259486196
16,4,16,Jits_ISO_5,3,5,80,127,259526068
16,4,16,Jits_ISO_5,0,1,48,19,259963392
16,4,16,Jits_ISO_5,1,5,63,98,259966196
16,4,16,Jits_ISO_5,2,5,80,127,260046080
16,4,16,Jits_ISO_5,3,5,56,103,260056628
16,4,16,Jits_ISO_5,0,1,48,25,260478560
16,4,16,Jits_ISO_5,1,5,63,98,260516060
16,4,16,Jits_ISO_5,2,5,56,103,260556080
16,4,16,Jits_ISO_5,3,5,80,127,260559140
16,4,16,Jits_ISO_5,0,5,56,103,260975952
16,4,16,Jits_ISO_5,1,5,63,98,260986504
16,4,16,Jits_ISO_5,2,1,48,25,260987396
16,4,16,Jits_ISO_5,3,5,80,127,261026292
16,4,16,Jits_ISO_5,0,5,56,103,261465472
16,4,16,Jits_ISO_5,1,1,48,23,261467428
16,4,16,Jits_ISO_5,2,5,63,98,261469944
16,4,16,Jits_ISO_5,3,5,80,127,261485816
16,4,16,Jits_ISO_5,0,1,48,22,261940656
16,4,16,Jits_ISO_5,1,5,80,127,261976436
16,4,16,Jits_ISO_5,2,5,56,103,261985868
16,4,16,Jits_ISO_5,3,5,63,98,262056312
16,4,16,Jits_ISO_5,0,5,63,98,262465952
16,4,16,Jits_ISO_5,1,5,56,103,262486672
16,4,16,Jits_ISO_5,2,1,48,26,262514776
16,4,16,Jits_ISO_5,3,5,80,127,262566252
16,4,16,Jits_ISO_5,0,1,48,25,262968660
16,4,16,Jits_ISO_5,1,5,56,103,262975868
16,4,16,Jits_ISO_5,2,5,80,127,263015816
16,4,16,Jits_ISO_5,3,5,63,98,263026140
16,4,16,Jits_ISO_5,0,1,48,27,263456444
16,4,16,Jits_ISO_5,1,5,80,127,263466492
16,4,16,Jits_ISO_5,2,5,63,98,263496044
16,4,16,Jits_ISO_5,3,5,56,103,263535912
16,4,16,Jits_ISO_5,0,1,48,25,263971440
16,4,16,Jits_ISO_5,1,5,56,103,263985612
16,4,16,Jits_ISO_5,2,5,63,98,264016132
16,4,16,Jits_ISO_5,3,5,80,127,264066768
16,4,16,Jits_ISO_5,0,1,48,23,264486120
16,4,16,Jits_ISO_5,1,5,80,127,264487752
16,4,16,Jits_ISO_5,2,5,56,103,264526056
16,4,16,Jits_ISO_5,3,5,63,98,264536532
16,4,16,Jits_ISO_5,0,5,80,127,264965452
16,4,16,Jits_ISO_5,1,1,48,19,264982992
16,4,16,Jits_ISO_5,2,5,63,98,265005540
16,4,16,Jits_ISO_5,3,5,56,103,265065824
16,4,16,Jits_ISO_5,0,5,56,103,265466336
16,4,16,Jits_ISO_5,1,5,80,127,265475616
16,4,16,Jits_ISO_5,2,1,48,25,265488456
16,4,16,Jits_ISO_5,3,5,63,98,265556608
16,4,16,Jits_ISO_5,0,5,80,127,265965952
16,4,16,Jits_ISO_5,1,1,48,24,265973468
16,4,16,Jits_ISO_5,2,5,63,98,266026532
16,4,16,Jits_ISO_5,3,5,56,103,266055932
16,4,16,Jits_ISO_5,0,5,56,103,266465572
16,4,16,Jits_ISO_5,1,1,48,23,266479524
16,4,16,Jits_ISO_5,2,5,80,127,266526076
16,4,16,Jits_ISO_5,3,5,63,98,266566020
16,4,16,Jits_ISO_5,0,1,48,26,266960336
16,4,16,Jits_ISO_5,1,5,56,103,267015664
16,4,16,Jits_ISO_5,2,5,63,98,267025916
16,4,16,Jits_ISO_5,3,5,80,127,267029200
16,4,16,Jits_ISO_5,0,5,80,127,267476720
16,4,16,Jits_ISO_5,1,1,48,21,267484704
16,4,16,Jits_ISO_5,2,5,63,98,267565524
16,4,16,Jits_ISO_5,3,5,56,103,267575776
16,4,16,Jits_ISO_5,0,5,56,103,267976248
16,4,16,Jits_ISO_5,1,5,63,98,267979416
16,4,16,Jits_ISO_5,2,5,80,127,267982528
16,4,16,Jits_ISO_5,3,1,48,26,268011628
16,4,16,Jits_ISO_5,0,1,48,25,268459664
16,4,16,Jits_ISO_5,1,5,80,127,268496340
16,4,16,Jits_ISO_5,2,5,63,98,268546412
16,4,16,Jits_ISO_5,3,5,56,103,268576244
16,4,16,Jits_ISO_5,0,5,56,103,268975464
16,4,16,Jits_ISO_5,1,5,80,127,268985792
16,4,16,Jits_ISO_5,2,1,48,31,269001092
16,4,16,Jits_ISO_5,3,5,63,98,269056488
16,4,16,Jits_ISO_5,0,1,48,26,269477280
16,4,16,Jits_ISO_5,1,5,56,103,269485384
16,4,16,Jits_ISO_5,2,5,63,98,269506032
16,4,16,Jits_ISO_5,3,5,80,127,269566268
16,4,16,Jits_ISO_5,0,1,48,23,269969772
16,4,16,Jits_ISO_5,1,5,80,127,269975936
16,4,16,Jits_ISO_5,2,5,63,98,270045500
16,4,16,Jits_ISO_5,3,5,56,103,270066156
16,4,16,Jits_ISO_5,0,5,80,127,270496112
16,4,16,Jits_ISO_5,1,1,48,24,270497076
16,4,16,Jits_ISO_5,2,5,56,103,270506360
16,4,16,Jits_ISO_5,3,5,63,98,270515420
16,4,16,Jits_ISO_5,0,1,48,25,270968764
16,4,16,Jits_ISO_5,1,5,80,127,270985548
16,4,16,Jits_ISO_5,2,5,56,103,271006124
16,4,16,Jits_ISO_5,3,5,63,98,271075620
16,4,16,Jits_ISO_5,0,5,56,103,271495480
16,4,16,Jits_ISO_5,1,1,48,21,271516396
16,4,16,Jits_ISO_5,2,5,80,127,271526220
16,4,16,Jits_ISO_5,3,5,63,98,271545676
16,4,16,Jits_ISO_5,0,5,63,98,271986124
16,4,16,Jits_ISO_5,1,1,48,27,272011300
16,4,16,Jits_ISO_5,2,5,56,103,272045360
16,4,16,Jits_ISO_5,3,5,80,127,272076176
16,4,16,Jits_ISO_5,0,5,63,98,272475480
16,4,16,Jits_ISO_5,1,5,80,127,272479064
16,4,16,Jits_ISO_5,2,1,48,26,272515396
16,4,16,Jits_ISO_5,3,5,56,103,272565676
16,4,16,Jits_ISO_5,0,1,48,28,272974448
16,4,16,Jits_ISO_5,1,5,56,103,272995640
16,4,16,Jits_ISO_5,2,5,63,98,273026384
16,4,16,Jits_ISO_5,3,5,80,127,273066328
16,4,16,Jits_ISO_5,0,1,48,28,273471344
16,4,16,Jits_ISO_5,1,5,63,98,273496288
16,4,16,Jits_ISO_5,2,5,56,103,273536236
16,4,16,Jits_ISO_5,3,5,80,127,273555908
16,4,16,Jits_ISO_5,0,1,48,28,273984204
16,4,16,Jits_ISO_5,1,5,63,98,274006436
16,4,16,Jits_ISO_5,2,5,56,103,274046456
16,4,16,Jits_ISO_5,3,5,80,127,274055592
16,4,16,Jits_ISO_5,0,1,48,28,274486000
16,4,16,Jits_ISO_5,1,5,80,127,274487416
16,4,16,Jits_ISO_5,2,5,63,98,274556232
16,4,16,Jits_ISO_5,3,5,56,103,274575684
16,4,16,Jits_ISO_5,0,5,56,103,274986280
16,4,16,Jits_ISO_5,1,1,48,27,274997920
16,4,16,Jits_ISO_5,2,5,80,127,275006248
16,4,16,Jits_ISO_5,3,5,63,98,275045596
16,4,16,Jits_ISO_5,0,1,48,29,275477932
16,4,16,Jits_ISO_5,1,5,63,98,275496284
16,4,16,Jits_ISO_5,2,5,80,127,275515884
16,4,16,Jits_ISO_5,3,5,56,103,275555904
16,4,16,Jits_ISO_5,0,1,48,28,275982088
16,4,16,Jits_ISO_5,1,5,63,98,275996184
16,4,16,Jits_ISO_5,2,5,56,103,276015488
16,4,16,Jits_ISO_5,3,5,80,127,276025668
16,4,16,Jits_ISO_5,0,1,48,25,276483500
16,4,16,Jits_ISO_5,1,5,80,127,276495860
16,4,16,Jits_ISO_5,2,5,56,103,276516284
16,4,16,Jits_ISO_5,3,5,63,98,276546132
16,4,16,Jits_ISO_5,0,1,48,24,276966116
16,4,16,Jits_ISO_5,1,5,56,103,277066048
16,4,16,Jits_ISO_5,2,5,80,127,277069036
16,4,16,Jits_ISO_5,3,5,63,98,277085500
16,4,16,Jits_ISO_5,0,5,63,98,277485940
16,4,16,Jits_ISO_5,1,5,56,103,277515564
16,4,16,Jits_ISO_5,2,1,48,31,277517576
16,4,16,Jits_ISO_5,3,5,80,127,277576140
16,4,16,Jits_ISO_5,0,1,48,23,278001284
16,4,16,Jits_ISO_5,1,5,63,98,278065640
16,4,16,Jits_ISO_5,2,5,56,103,278075896
16,4,16,Jits_ISO_5,3,5,80,127,278086072
16,4,16,Jits_ISO_5,0,5,56,103,278516044
16,4,16,Jits_ISO_5,1,1,48,29,278539200
16,4,16,Jits_ISO_5,2,5,80,127,278546032
16,4,16,Jits_ISO_5,3,5,63,98,278555988
16,4,16,Jits_ISO_5,0,1,48,28,279016828
16,4,16,Jits_ISO_5,1,5,63,98,279066064
16,4,16,Jits_ISO_5,2,5,56,103,279076248
16,4,16,Jits_ISO_5,3,5,80,127,279096072
16,4,16,Jits_ISO_5,0,5,56,103,279496100
16,4,16,Jits_ISO_5,1,1,48,27,279548976
16,4,16,Jits_ISO_5,2,5,63,98,279555352
16,4,16,Jits_ISO_5,3,5,80,127,279558792
16,4,16,Jits_ISO_5,0,5,80,127,280016348
16,4,16,Jits_ISO_5,1,5,56,103,280025408
16,4,16,Jits_ISO_5,2,1,48,27,280036996
16,4,16,Jits_ISO_5,3,5,63,98,280096032
16,4,16,Jits_ISO_5,0,5,80,127,280505868
16,4,16,Jits_ISO_5,1,1,48,28,280516240
16,4,16,Jits_ISO_5,2,5,56,103,280576272
16,4,16,Jits_ISO_5,3,5,63,98,280585628
16,4,16,Jits_ISO_5,0,1,48,29,281003364
16,4,16,Jits_ISO_5,1,5,63,98,281046388
16,4,16,Jits_ISO_5,2,5,56,103,281055844
16,4,16,Jits_ISO_5,3,5,80,127,281076120
16,4,16,Jits_ISO_5,0,5,80,127,281495960
16,4,16,Jits_ISO_5,1,1,48,29,281509024
16,4,16,Jits_ISO_5,2,5,63,98,281556316
16,4,16,Jits_ISO_5,3,5,56,103,281596360
16,4,16,Jits_ISO_5,0,1,48,24,282023440
16,4,16,Jits_ISO_5,1,5,56,103,282035668
16,4,16,Jits_ISO_5,2,5,63,98,282045772
16,4,16,Jits_ISO_5,3,5,80,127,282085668
16,4,16,Jits_ISO_5,0,1,48,24,282484840
16,4,16,Jits_ISO_5,1,5,56,103,282496228
16,4,16,Jits_ISO_5,2,5,80,127,282526004
16,4,16,Jits_ISO_5,3,5,63,98,282576268
16,4,16,Jits_ISO_5,0,1,48,24,282982632
16,4,16,Jits_ISO_5,1,5,56,103,283035996
16,4,16,Jits_ISO_5,2,5,63,98,283075940
16,4,16,Jits_ISO_5,3,5,80,127,283079372
16,4,16,Jits_ISO_5,0,1,48,30,283493912
16,4,16,Jits_ISO_5,1,5,56,103,283535816
16,4,16,Jits_ISO_5,2,5,63,98,283545920
16,4,16,Jits_ISO_5,3,5,80,127,283565672
16,4,16,Jits_ISO_5,0,5,56,103,283995636
16,4,16,Jits_ISO_5,1,5,80,127,283998624
16,4,16,Jits_ISO_5,2,1,48,29,284008700
16,4,16,Jits_ISO_5,3,5,63,98,284035576
16,4,16,Jits_ISO_5,0,1,48,26,284441804
16,4,16,Jits_ISO_5,1,5,63,98,284536060
16,4,16,Jits_ISO_5,2,5,56,103,284565760
16,4,16,Jits_ISO_5,3,5,80,127,284586628
16,4,16,Jits_ISO_5,0,1,48,27,284981196
16,4,16,Jits_ISO_5,1,5,80,127,285006136
16,4,16,Jits_ISO_5,2,5,56,103,285016688
16,4,16,Jits_ISO_5,3,5,63,98,285025672
16,4,16,Jits_ISO_5,0,1,48,25,285502184
16,4,16,Jits_ISO_5,1,5,56,103,285505960
16,4,16,Jits_ISO_5,2,5,80,127,285545980
16,4,16,Jits_ISO_5,3,5,63,98,285575604
16,4,16,Jits_ISO_5,0,1,48,23,285996860
16,4,16,Jits_ISO_5,1,5,63,98,286015888
16,4,16,Jits_ISO_5,2,5,80,127,286025992
16,4,16,Jits_ISO_5,3,5,56,103,286036468
16,4,16,Jits_ISO_5,0,1,48,30,286428000
16,4,16,Jits_ISO_5,1,5,56,103,286506512
16,4,16,Jits_ISO_5,2,5,63,98,286575912
16,4,16,Jits_ISO_5,3,5,80,127,286586092
16,4,16,Jits_ISO_5,0,1,48,28,286990604
16,4,16,Jits_ISO_5,1,5,80,127,287006044
16,4,16,Jits_ISO_5,2,5,56,103,287016520
16,4,16,Jits_ISO_5,3,5,63,98,287065516
16,4,16,Jits_ISO_5,0,5,80,127,287516048
16,4,16,Jits_ISO_5,1,1,48,33,287517528
16,4,16,Jits_ISO_5,2,5,56,103,287576552
16,4,16,Jits_ISO_5,3,5,63,98,287606180
16,4,16,Jits_ISO_5,0,5,56,103,288015744
16,4,16,Jits_ISO_5,1,5,80,127,288018732
16,4,16,Jits_ISO_5,2,5,63,98,288055688
16,4,16,Jits_ISO_5,3,1,48,28,288062160
16,4,16,Jits_ISO_5,0,1,48,16,288543652
16,4,16,Jits_ISO_5,1,5,56,103,288546236
16,4,16,Jits_ISO_5,2,5,63,98,288575712
16,4,16,Jits_ISO_5,3,5,80,127,288586188
16,4,16,Jits_ISO_5,0,1,48,24,289044172
16,4,16,Jits_ISO_5,1,5,63,98,289056088
16,4,16,Jits_ISO_5,2,5,80,127,289066636
16,4,16,Jits_ISO_5,3,5,56,103,289075476
16,4,16,Jits_ISO_5,0,5,80,127,289505588
16,4,16,Jits_ISO_5,1,1,48,28,289536228
16,4,16,Jits_ISO_5,2,5,56,103,289555844
16,4,16,Jits_ISO_5,3,5,63,98,289558832
16,4,16,Jits_ISO_5,0,5,56,103,290036156
16,4,16,Jits_ISO_5,1,1,48,29,290037716
16,4,16,Jits_ISO_5,2,5,80,127,290055532
16,4,16,Jits_ISO_5,3,5,63,98,290065788
16,4,16,Jits_ISO_5,0,1,48,26,290456740
16,4,16,Jits_ISO_5,1,5,63,98,290525816
16,4,16,Jits_ISO_5,2,5,56,103,290556620
16,4,16,Jits_ISO_5,3,5,80,127,290575628
16,4,16,Jits_ISO_5,0,1,48,26,291027608
16,4,16,Jits_ISO_5,1,5,56,103,291035492
16,4,16,Jits_ISO_5,2,5,80,127,291045672
16,4,16,Jits_ISO_5,3,5,63,98,291116352
16,4,16,Jits_ISO_5,0,5,63,98,291526324
16,4,16,Jits_ISO_5,1,1,48,30,291543508
16,4,16,Jits_ISO_5,2,5,80,127,291566140
16,4,16,Jits_ISO_5,3,5,56,103,291605860
16,4,16,Jits_ISO_5,0,5,56,103,292036100
16,4,16,Jits_ISO_5,1,1,48,32,292045452
16,4,16,Jits_ISO_5,2,5,63,98,292047244
16,4,16,Jits_ISO_5,3,5,80,127,292065676
16,4,16,Jits_ISO_5,0,1,48,29,292512184
16,4,16,Jits_ISO_5,1,5,63,98,292575524
16,4,16,Jits_ISO_5,2,5,80,127,292596168
16,4,16,Jits_ISO_5,3,5,56,103,292615384
16,4,16,Jits_ISO_5,0,5,56,103,293015872
16,4,16,Jits_ISO_5,1,1,48,30,293050548
16,4,16,Jits_ISO_5,2,5,80,127,293095848
16,4,16,Jits_ISO_5,3,5,63,98,293105956
16,4,16,Jits_ISO_5,0,1,48,29,293544484
16,4,16,Jits_ISO_5,1,5,80,127,293555504
16,4,16,Jits_ISO_5,2,5,63,98,293565904
16,4,16,Jits_ISO_5,3,5,56,103,293595456
16,4,16,Jits_ISO_5,0,5,63,98,294016440
16,4,16,Jits_ISO_5,1,1,48,29,294036012
16,4,16,Jits_ISO_5,2,5,80,127,294056380
16,4,16,Jits_ISO_5,3,5,56,103,294115720
16,4,16,Jits_ISO_5,0,5,63,98,294526288
16,4,16,Jits_ISO_5,1,1,48,29,294532540
16,4,16,Jits_ISO_5,2,5,56,103,294575356
16,4,16,Jits_ISO_5,3,5,80,127,294606172
16,4,16,Jits_ISO_5,0,1,48,29,295026088
16,4,16,Jits_ISO_5,1,5,80,127,295036208
16,4,16,Jits_ISO_5,2,5,63,98,295045564
16,4,16,Jits_ISO_5,3,5,56,103,295116096
16,4,16,Jits_ISO_5,0,5,80,127,295605748
16,4,16,Jits_ISO_5,1,5,56,103,295616000
16,4,16,Jits_ISO_5,2,5,63,98,295619136
16,4,16,Jits_ISO_5,0,1,48,34,296043772
16,4,16,Jits_ISO_5,1,5,56,103,296045956
16,4,16,Jits_ISO_5,2,5,80,127,296066384
16,4,16,Jits_ISO_5,3,5,63,98,296075516
16,4,16,Jits_ISO_5,0,1,48,30,296526092
16,4,16,Jits_ISO_5,1,5,63,98,296556256
16,4,16,Jits_ISO_5,2,5,56,103,296596052
16,4,16,Jits_ISO_5,3,5,80,127,296616328
16,4,16,Jits_ISO_5,0,1,48,28,297054748
16,4,16,Jits_ISO_5,1,5,63,98,297056464
16,4,16,Jits_ISO_5,2,5,56,103,297116076
16,4,16,Jits_ISO_5,3,5,80,127,297119064
16,4,16,Jits_ISO_5,0,5,56,103,297516352
16,4,16,Jits_ISO_5,1,5,80,127,297536100
16,4,16,Jits_ISO_5,2,5,63,98,297576044
16,4,16,Jits_ISO_5,3,1,48,28,297580056
16,4,16,Jits_ISO_5,0,1,48,31,298037848
16,4,16,Jits_ISO_5,1,5,56,103,298056124
16,4,16,Jits_ISO_5,2,5,63,98,298075356
16,4,16,Jits_ISO_5,3,5,80,127,298085904
16,4,16,Jits_ISO_5,0,5,80,127,298526116
16,4,16,Jits_ISO_5,1,1,48,30,298527080
16,4,16,Jits_ISO_5,2,5,56,103,298555884
16,4,16,Jits_ISO_5,3,5,63,98,298595680
16,4,16,Jits_ISO_5,0,1,48,29,299035528
16,4,16,Jits_ISO_5,1,5,80,127,299037316
16,4,16,Jits_ISO_5,2,5,56,103,299055648
16,4,16,Jits_ISO_5,3,5,63,98,299116084
16,4,16,Jits_ISO_5,0,5,56,103,299545904
16,4,16,Jits_ISO_5,1,1,48,29,299560308
16,4,16,Jits_ISO_5,2,5,80,127,299565424
16,4,16,Jits_ISO_5,3,5,63,98,299625932
16,4,16,Jits_ISO_5,0,5,80,127,300026296
16,4,16,Jits_ISO_5,1,5,56,103,300035432
16,4,16,Jits_ISO_5,2,1,48,31,300066968
16,4,16,Jits_ISO_5,3,5,63,98,300076488
16,4,16,Jits_ISO_5,0,1,48,32,300519072
16,4,16,Jits_ISO_5,1,5,63,98,300525984
16,4,16,Jits_ISO_5,2,5,56,103,300565928
16,4,16,Jits_ISO_5,3,5,80,127,300568988
16,4,16,Jits_ISO_5,0,1,48,28,301043116
16,4,16,Jits_ISO_5,1,5,63,98,301046144
16,4,16,Jits_ISO_5,2,5,80,127,301085944
16,4,16,Jits_ISO_5,3,5,56,103,301115864
16,4,16,Jits_ISO_5,0,5,56,103,301535812
16,4,16,Jits_ISO_5,1,5,63,98,301545840
16,4,16,Jits_ISO_5,2,5,80,127,301575540
16,4,16,Jits_ISO_5,3,1,48,26,301585984
16,4,16,Jits_ISO_5,0,5,80,127,302036224
16,4,16,Jits_ISO_5,1,1,48,32,302047816
16,4,16,Jits_ISO_5,2,5,63,98,302106028
16,4,16,Jits_ISO_5,3,5,56,103,302116208
16,4,16,Jits_ISO_5,0,5,63,98,302536068
16,4,16,Jits_ISO_5,1,1,48,27,302573524
16,4,16,Jits_ISO_5,2,5,56,103,302605872
16,4,16,Jits_ISO_5,3,5,80,127,302615904
16,4,16,Jits_ISO_5,0,5,63,98,303035676
16,4,16,Jits_ISO_5,1,1,48,31,303055796
16,4,16,Jits_ISO_5,2,5,56,103,303057584
16,4,16,Jits_ISO_5,3,5,80,127,303096208
16,4,16,Jits_ISO_5,0,1,48,31,303518412
16,4,16,Jits_ISO_5,1,5,56,103,303545888
16,4,16,Jits_ISO_5,2,5,63,98,303555996
16,4,16,Jits_ISO_5,3,5,80,127,303635888
16,4,16,Jits_ISO_5,0,5,63,98,304036368
16,4,16,Jits_ISO_5,1,1,48,20,304039260
16,4,16,Jits_ISO_5,2,5,56,103,304065840
16,4,16,Jits_ISO_5,3,5,80,127,304105808
16,4,16,Jits_ISO_5,0,1,48,29,304522544
16,4,16,Jits_ISO_5,1,5,56,103,304536040
16,4,16,Jits_ISO_5,2,5,63,98,304575988
16,4,16,Jits_ISO_5,3,5,80,127,304615880
16,4,16,Jits_ISO_5,0,1,48,32,304998448
16,4,16,Jits_ISO_5,1,5,80,127,305035868
16,4,16,Jits_ISO_5,2,5,56,103,305115812
16,4,16,Jits_ISO_5,3,5,63,98,305125844
16,4,16,Jits_ISO_5,0,5,56,103,305576364
16,4,16,Jits_ISO_5,1,5,63,98,305579648
16,4,16,Jits_ISO_5,2,5,80,127,305585648
16,4,16,Jits_ISO_5,3,1,48,26,305602512
16,4,16,Jits_ISO_5,0,1,48,33,306079756
16,4,16,Jits_ISO_5,1,5,56,103,306095416
16,4,16,Jits_ISO_5,2,5,63,98,306115916
16,4,16,Jits_ISO_5,3,5,80,127,306126244
16,4,16,Jits_ISO_5,0,5,63,98,306556288
16,4,16,Jits_ISO_5,1,5,80,127,306565572
16,4,16,Jits_ISO_5,2,1,48,30,306568160
16,4,16,Jits_ISO_5,3,5,56,103,306585840
16,4,16,Jits_ISO_5,0,5,63,98,307056116
16,4,16,Jits_ISO_5,1,1,48,29,307068728
16,4,16,Jits_ISO_5,2,5,56,103,307135992
16,4,16,Jits_ISO_5,3,5,80,127,307138980
16,4,16,Jits_ISO_5,0,5,63,98,307555644
16,4,16,Jits_ISO_5,1,5,56,103,307576140
16,4,16,Jits_ISO_5,2,1,48,30,307601088
16,4,16,Jits_ISO_5,3,5,80,127,307605832
16,4,16,Jits_ISO_5,0,5,56,103,308056588
16,4,16,Jits_ISO_5,1,1,48,32,308071364
16,4,16,Jits_ISO_5,2,5,63,98,308075740
16,4,16,Jits_ISO_5,3,5,80,127,308086140
16,4,16,Jits_ISO_5,0,1,48,30,308545184
16,4,16,Jits_ISO_5,1,5,56,103,308585820
16,4,16,Jits_ISO_5,2,5,63,98,308615592
16,4,16,Jits_ISO_5,3,5,80,127,308618952
16,4,16,Jits_ISO_5,0,5,56,103,309036584
16,4,16,Jits_ISO_5,1,1,48,27,309043208
16,4,16,Jits_ISO_5,2,5,63,98,309076448
16,4,16,Jits_ISO_5,3,5,80,127,309135688
16,4,16,Jits_ISO_5,0,1,48,26,309560244
16,4,16,Jits_ISO_5,1,5,56,103,309565740
16,4,16,Jits_ISO_5,2,5,63,98,309576216
16,4,16,Jits_ISO_5,3,5,80,127,309635532
16,4,16,Jits_ISO_5,0,5,56,103,310065576
16,4,16,Jits_ISO_5,1,1,48,28,310078640
16,4,16,Jits_ISO_5,2,5,80,127,310086144
16,4,16,Jits_ISO_5,3,5,63,98,310115768
16,4,16,Jits_ISO_5,0,5,80,127,310566540
16,4,16,Jits_ISO_5,1,5,56,103,310575528
16,4,16,Jits_ISO_5,2,1,48,28,310578196
16,4,16,Jits_ISO_5,3,5,63,98,310596092
16,4,16,Jits_ISO_5,0,5,63,98,311055616
16,4,16,Jits_ISO_5,1,1,48,29,311061864
16,4,16,Jits_ISO_5,2,5,80,127,311135564
16,4,16,Jits_ISO_5,3,5,56,103,311145816
16,4,16,Jits_ISO_5,0,1,48,29,311603660
16,4,16,Jits_ISO_5,1,5,80,127,311615872
16,4,16,Jits_ISO_5,2,5,56,103,311636444
16,4,16,Jits_ISO_5,3,5,63,98,311639432
16,4,16,Jits_ISO_5,0,5,63,98,312085856
16,4,16,Jits_ISO_5,1,5,80,127,312089292
16,4,16,Jits_ISO_5,2,1,48,27,312123828
16,4,16,Jits_ISO_5,3,5,56,103,312146584
16,4,16,Jits_ISO_5,0,5,56,103,312566232
16,4,16,Jits_ISO_5,1,5,80,127,312576336
16,4,16,Jits_ISO_5,2,1,48,29,312596584
16,4,16,Jits_ISO_5,3,5,63,98,312616276
16,4,16,Jits_ISO_5,0,5,56,103,313046528
16,4,16,Jits_ISO_5,1,1,48,31,313074132
16,4,16,Jits_ISO_5,2,5,63,98,313105864
16,4,16,Jits_ISO_5,3,5,80,127,313116412
16,4,16,Jits_ISO_5,0,5,63,98,313565468
16,4,16,Jits_ISO_5,1,1,48,37,313566880
16,4,16,Jits_ISO_5,2,5,80,127,313605484
16,4,16,Jits_ISO_5,3,5,56,103,313645428
16,4,16,Jits_ISO_5,0,5,56,103,314066468
16,4,16,Jits_ISO_5,1,1,48,28,314093924
16,4,16,Jits_ISO_5,2,5,63,98,314146296
16,4,16,Jits_ISO_5,3,5,80,127,314149728
16,4,16,Jits_ISO_5,0,9999,9999,9999,254763092
16,4,16,Jits_ISO_5,1,9999,9999,9999,255263864
16,4,16,Jits_ISO_5,2,9999,9999,9999,255763544
16,4,16,Jits_ISO_5,3,9999,9999,9999,256263240
16,4,16,Jits_ISO_5,4,9999,9999,9999,256763968
16,4,16,Jits_ISO_5,5,9999,9999,9999,257263736
16,4,16,Jits_ISO_5,6,9999,9999,9999,257763424
16,4,16,Jits_ISO_5,7,9999,9999,9999,258263140
16,4,16,Jits_ISO_5,8,9999,9999,9999,258763872
16,4,16,Jits_ISO_5,9,9999,9999,9999,259263564
16,4,16,Jits_ISO_5,10,9999,9999,9999,259763252
16,4,16,Jits_ISO_5,11,9999,9999,9999,260264052
16,4,16,Jits_ISO_5,12,9999,9999,9999,260763724
16,4,16,Jits_ISO_5,13,9999,9999,9999,261263480
16,4,16,Jits_ISO_5,14,9999,9999,9999,261763160
16,4,16,Jits_ISO_5,15,9999,9999,9999,262263900
16,4,16,Jits_ISO_5,16,9999,9999,9999,262763576
16,4,16,Jits_ISO_5,17,9999,9999,9999,263263328
16,4,16,Jits_ISO_5,18,9999,9999,9999,263764048
16,4,16,Jits_ISO_5,19,9999,9999,9999,264263796
16,4,16,Jits_ISO_5,20,9999,9999,9999,264763476
16,4,16,Jits_ISO_5,21,9999,9999,9999,265263224
16,4,16,Jits_ISO_5,22,9999,9999,9999,265763960
16,4,16,Jits_ISO_5,23,9999,9999,9999,266263652
16,4,16,Jits_ISO_5,24,9999,9999,9999,266763348
16,4,16,Jits_ISO_5,25,9999,9999,9999,267264076
16,4,16,Jits_ISO_5,26,9999,9999,9999,267774076
16,4,16,Jits_ISO_5,27,9999,9999,9999,268273740
16,4,16,Jits_ISO_5,28,9999,9999,9999,268773436
16,4,16,Jits_ISO_5,29,9999,9999,9999,269273160
16,4,16,Jits_ISO_5,30,9999,9999,9999,269773892
16,4,16,Jits_ISO_5,31,9999,9999,9999,270273640
16,4,16,Jits_ISO_5,32,9999,9999,9999,270773320
16,4,16,Jits_ISO_5,33,9999,9999,9999,271274056
16,4,16,Jits_ISO_5,34,9999,9999,9999,271773808
16,4,16,Jits_ISO_5,35,9999,9999,9999,272273508
16,4,16,Jits_ISO_5,36,9999,9999,9999,272773172
16,4,16,Jits_ISO_5,37,9999,9999,9999,273273972
16,4,16,Jits_ISO_5,38,9999,9999,9999,273773652
16,4,16,Jits_ISO_5,39,9999,9999,9999,274273332
16,4,16,Jits_ISO_5,40,9999,9999,9999,274774132
16,4,16,Jits_ISO_5,41,9999,9999,9999,275284052
16,4,16,Jits_ISO_5,42,9999,9999,9999,275783744
16,4,16,Jits_ISO_5,43,9999,9999,9999,276283496
16,4,16,Jits_ISO_5,44,9999,9999,9999,276783168
16,4,16,Jits_ISO_5,45,9999,9999,9999,277283964
16,4,16,Jits_ISO_5,46,9999,9999,9999,277783640
16,4,16,Jits_ISO_5,47,9999,9999,9999,278283328
16,4,16,Jits_ISO_5,48,9999,9999,9999,278784052
16,4,16,Jits_ISO_5,49,9999,9999,9999,279294072
16,4,16,Jits_ISO_5,50,9999,9999,9999,279793740
16,4,16,Jits_ISO_5,51,9999,9999,9999,280293432
16,4,16,Jits_ISO_5,52,9999,9999,9999,280793176
16,4,16,Jits_ISO_5,53,9999,9999,9999,281293908
16,4,16,Jits_ISO_5,54,9999,9999,9999,281793592
16,4,16,Jits_ISO_5,55,9999,9999,9999,282293364
16,4,16,Jits_ISO_5,56,9999,9999,9999,282794084
16,4,16,Jits_ISO_5,57,9999,9999,9999,283293756
16,4,16,Jits_ISO_5,58,9999,9999,9999,283793512
16,4,16,Jits_ISO_5,59,9999,9999,9999,284293176
16,4,16,Jits_ISO_5,60,9999,9999,9999,284793920
16,4,16,Jits_ISO_5,61,9999,9999,9999,285293668
16,4,16,Jits_ISO_5,62,9999,9999,9999,285793348
16,4,16,Jits_ISO_5,63,9999,9999,9999,286294072
16,4,16,Jits_ISO_5,64,9999,9999,9999,286804072
16,4,16,Jits_ISO_5,65,9999,9999,9999,287303744
16,4,16,Jits_ISO_5,66,9999,9999,9999,287803504
16,4,16,Jits_ISO_5,67,9999,9999,9999,288303192
16,4,16,Jits_ISO_5,68,9999,9999,9999,288803928
16,4,16,Jits_ISO_5,69,9999,9999,9999,289303612
16,4,16,Jits_ISO_5,70,9999,9999,9999,289803352
16,4,16,Jits_ISO_5,71,9999,9999,9999,290304092
16,4,16,Jits_ISO_5,72,9999,9999,9999,290814024
16,4,16,Jits_ISO_5,73,9999,9999,9999,291313752
16,4,16,Jits_ISO_5,74,9999,9999,9999,291813432
16,4,16,Jits_ISO_5,75,9999,9999,9999,292313160
16,4,16,Jits_ISO_5,76,9999,9999,9999,292813896
16,4,16,Jits_ISO_5,77,9999,9999,9999,293313648
16,4,16,Jits_ISO_5,78,9999,9999,9999,293813340
16,4,16,Jits_ISO_5,79,9999,9999,9999,294314064
16,4,16,Jits_ISO_5,80,9999,9999,9999,294813820
16,4,16,Jits_ISO_5,81,9999,9999,9999,295313496
16,4,16,Jits_ISO_5,82,9999,9999,9999,295813196
16,4,16,Jits_ISO_5,83,9999,9999,9999,296313972
16,4,16,Jits_ISO_5,84,9999,9999,9999,296813656
16,4,16,Jits_ISO_5,85,9999,9999,9999,297313404
16,4,16,Jits_ISO_5,86,9999,9999,9999,297814124
16,4,16,Jits_ISO_5,87,9999,9999,9999,298324064
16,4,16,Jits_ISO_5,88,9999,9999,9999,298823740
16,4,16,Jits_ISO_5,89,9999,9999,9999,299323508
16,4,16,Jits_ISO_5,90,9999,9999,9999,299823188
16,4,16,Jits_ISO_5,91,9999,9999,9999,300323920
16,4,16,Jits_ISO_5,92,9999,9999,9999,300823604
16,4,16,Jits_ISO_5,93,9999,9999,9999,301323360
16,4,16,Jits_ISO_5,94,9999,9999,9999,301824084
16,4,16,Jits_ISO_5,95,9999,9999,9999,302334024
16,4,16,Jits_ISO_5,96,9999,9999,9999,302833720
16,4,16,Jits_ISO_5,97,9999,9999,9999,303333472
16,4,16,Jits_ISO_5,98,9999,9999,9999,303833204
16,4,16,Jits_ISO_5,99,9999,9999,9999,304333920
16,4,16,Jits_ISO_5,100,9999,9999,9999,304833600
16,4,16,Jits_ISO_5,101,9999,9999,9999,305333332
16,4,16,Jits_ISO_5,102,9999,9999,9999,305834044
16,4,16,Jits_ISO_5,103,9999,9999,9999,306333816
16,4,16,Jits_ISO_5,104,9999,9999,9999,306833496
16,4,16,Jits_ISO_5,105,9999,9999,9999,307333172
16,4,16,Jits_ISO_5,106,9999,9999,9999,307833968
16,4,16,Jits_ISO_5,107,9999,9999,9999,308333648
16,4,16,Jits_ISO_5,108,9999,9999,9999,308833336
16,4,16,Jits_ISO_5,109,9999,9999,9999,309334136
16,4,16,Jits_ISO_5,110,9999,9999,9999,309844076
16,4,16,Jits_ISO_5,111,9999,9999,9999,310343756
16,4,16,Jits_ISO_5,112,9999,9999,9999,310843448
16,4,16,Jits_ISO_5,113,9999,9999,9999,311343220
16,4,16,Jits_ISO_5,114,9999,9999,9999,311843940
16,4,16,Jits_ISO_5,115,9999,9999,9999,312343612
16,4,16,Jits_ISO_5,116,9999,9999,9999,312843364
16,4,16,Jits_ISO_5,117,9999,9999,9999,313344104
16,4,16,Jits_ISO_5,118,9999,9999,9999,313854044
16,4,16,Jits_ISO_5,119,9999,9999,9999,314353716
16,5,7,Jits_ISO_8,0,5,56,103,331073836
16,5,7,Jits_ISO_8,1,5,63,98,331077000
16,5,7,Jits_ISO_8,2,5,80,127,331080120
16,5,7,Jits_ISO_8,0,1,48,19,331811084
16,5,7,Jits_ISO_8,1,5,56,103,331873556
16,5,7,Jits_ISO_8,2,5,63,98,331876728
16,5,7,Jits_ISO_8,3,5,80,127,331879996
16,5,7,Jits_ISO_8,0,1,48,21,332556668
16,5,7,Jits_ISO_8,1,5,80,127,332613992
16,5,7,Jits_ISO_8,2,5,63,98,332704184
16,5,7,Jits_ISO_8,3,5,56,103,332714440
16,5,7,Jits_ISO_8,0,1,48,21,333418344
16,5,7,Jits_ISO_8,1,5,56,103,333434532
16,5,7,Jits_ISO_8,2,5,63,98,333443296
16,5,7,Jits_ISO_8,3,5,80,127,333533512
16,5,7,Jits_ISO_8,0,1,48,26,334147040
16,5,7,Jits_ISO_8,1,5,63,98,334204288
16,5,7,Jits_ISO_8,2,5,80,127,334234064
16,5,7,Jits_ISO_8,3,5,56,103,334263600
16,5,7,Jits_ISO_8,0,1,48,19,334980732
16,5,7,Jits_ISO_8,1,5,56,103,335004032
16,5,7,Jits_ISO_8,2,5,80,127,335104348
16,5,7,Jits_ISO_8,3,5,63,98,335153496
16,5,7,Jits_ISO_8,0,5,56,103,335803712
16,5,7,Jits_ISO_8,1,5,80,127,335853932
16,5,7,Jits_ISO_8,2,1,48,20,335886212
16,5,7,Jits_ISO_8,3,5,63,98,335893724
16,5,7,Jits_ISO_8,0,1,48,21,336598276
16,5,7,Jits_ISO_8,1,5,80,127,336634380
16,5,7,Jits_ISO_8,2,5,63,98,336663932
16,5,7,Jits_ISO_8,3,5,56,103,336733556
16,5,7,Jits_ISO_8,0,1,48,20,337399240
16,5,7,Jits_ISO_8,1,5,63,98,337463676
16,5,7,Jits_ISO_8,2,5,56,103,337494336
16,5,7,Jits_ISO_8,3,5,80,127,337553724
16,5,7,Jits_ISO_8,0,1,48,22,338135768
16,5,7,Jits_ISO_8,1,5,56,103,338204180
16,5,7,Jits_ISO_8,2,5,80,127,338207244
16,5,7,Jits_ISO_8,3,5,63,98,338323916
16,5,7,Jits_ISO_8,0,1,48,16,338969480
16,5,7,Jits_ISO_8,1,5,56,103,339083716
16,5,7,Jits_ISO_8,2,5,80,127,339123664
16,5,7,Jits_ISO_8,3,1,48,14,339129316
16,5,7,Jits_ISO_8,4,5,63,98,339133764
16,5,7,Jits_ISO_8,0,1,48,18,339760784
16,5,7,Jits_ISO_8,1,5,56,103,339843400
16,5,7,Jits_ISO_8,2,5,80,127,339864108
16,5,7,Jits_ISO_8,3,1,48,16,339938748
16,5,7,Jits_ISO_8,4,5,63,98,339943640
16,5,7,Jits_ISO_8,0,1,48,14,340586204
16,5,7,Jits_ISO_8,1,5,80,127,340634248
16,5,7,Jits_ISO_8,2,5,56,103,340734268
16,5,7,Jits_ISO_8,3,5,63,98,340743476
16,5,7,Jits_ISO_8,4,1,48,15,340762828
16,5,7,Jits_ISO_8,0,1,48,18,341369052
16,5,7,Jits_ISO_8,1,5,63,98,341404160
16,5,7,Jits_ISO_8,2,5,80,127,341464456
16,5,7,Jits_ISO_8,3,5,56,103,341473744
16,5,7,Jits_ISO_8,4,1,48,15,341559796
16,5,7,Jits_ISO_8,0,5,56,103,342203916
16,5,7,Jits_ISO_8,1,1,48,14,342215556
16,5,7,Jits_ISO_8,2,5,63,98,342274544
16,5,7,Jits_ISO_8,3,5,80,127,342277828
16,5,7,Jits_ISO_8,0,1,48,16,342973340
16,5,7,Jits_ISO_8,1,5,63,98,343034276
16,5,7,Jits_ISO_8,2,5,56,103,343084452
16,5,7,Jits_ISO_8,3,5,80,127,343087516
16,5,7,Jits_ISO_8,0,5,56,103,343794076
16,5,7,Jits_ISO_8,1,5,80,127,343796988
16,5,7,Jits_ISO_8,2,1,48,16,343801000
16,5,7,Jits_ISO_8,3,5,63,98,343884272
16,5,7,Jits_ISO_8,0,1,48,24,344583392
16,5,7,Jits_ISO_8,1,5,63,98,344633828
16,5,7,Jits_ISO_8,2,5,56,103,344724020
16,5,7,Jits_ISO_8,3,5,80,127,344753500
16,5,7,Jits_ISO_8,0,5,56,103,345424236
16,5,7,Jits_ISO_8,1,1,48,17,345470132
16,5,7,Jits_ISO_8,2,5,63,98,345523492
16,5,7,Jits_ISO_8,3,5,80,127,345554388
16,5,7,Jits_ISO_8,0,1,48,19,346242556
16,5,7,Jits_ISO_8,1,5,63,98,346244272
16,5,7,Jits_ISO_8,2,5,56,103,346253628
16,5,7,Jits_ISO_8,3,5,80,127,346343916
16,5,7,Jits_ISO_8,0,1,48,23,347006072
16,5,7,Jits_ISO_8,1,5,63,98,347063692
16,5,7,Jits_ISO_8,2,5,56,103,347143660
16,5,7,Jits_ISO_8,3,5,80,127,347146724
16,5,7,Jits_ISO_8,0,5,80,127,347823576
16,5,7,Jits_ISO_8,1,5,63,98,347843924
16,5,7,Jits_ISO_8,2,1,48,20,347866512
16,5,7,Jits_ISO_8,3,5,56,103,347904308
16,5,7,Jits_ISO_8,0,1,48,16,348634476
16,5,7,Jits_ISO_8,1,5,56,103,348664120
16,5,7,Jits_ISO_8,2,5,63,98,348683796
16,5,7,Jits_ISO_8,3,5,80,127,348687080
16,5,7,Jits_ISO_8,0,5,63,98,349403652
16,5,7,Jits_ISO_8,1,1,48,17,349438552
16,5,7,Jits_ISO_8,2,5,80,127,349484504
16,5,7,Jits_ISO_8,3,5,56,103,349493860
16,5,7,Jits_ISO_8,0,1,48,26,350201556
16,5,7,Jits_ISO_8,1,5,63,98,350223660
16,5,7,Jits_ISO_8,2,5,56,103,350244532
16,5,7,Jits_ISO_8,3,5,80,127,350294652
16,5,7,Jits_ISO_8,0,1,48,26,350977672
16,5,7,Jits_ISO_8,1,5,80,127,351023776
16,5,7,Jits_ISO_8,2,5,63,98,351064548
16,5,7,Jits_ISO_8,3,5,56,103,351083836
16,5,7,Jits_ISO_8,0,1,48,23,351812352
16,5,7,Jits_ISO_8,1,5,56,103,351864284
16,5,7,Jits_ISO_8,2,5,63,98,351874764
16,5,7,Jits_ISO_8,3,5,80,127,351893920
16,5,7,Jits_ISO_8,0,5,56,103,352594404
16,5,7,Jits_ISO_8,1,1,48,21,352613904
16,5,7,Jits_ISO_8,2,5,63,98,352684536
16,5,7,Jits_ISO_8,3,5,80,127,352743640
16,5,7,Jits_ISO_8,0,1,48,28,353406400
16,5,7,Jits_ISO_8,1,5,80,127,353423708
16,5,7,Jits_ISO_8,2,5,56,103,353434036
16,5,7,Jits_ISO_8,3,5,63,98,353503552
16,5,7,Jits_ISO_8,0,1,48,30,354195228
16,5,7,Jits_ISO_8,1,5,63,98,354254344
16,5,7,Jits_ISO_8,2,5,80,127,354344488
16,5,7,Jits_ISO_8,3,5,56,103,354353548
16,5,7,Jits_ISO_8,0,5,63,98,354993596
16,5,7,Jits_ISO_8,1,5,80,127,355043592
16,5,7,Jits_ISO_8,2,1,48,26,355086792
16,5,7,Jits_ISO_8,3,5,56,103,355104244
16,5,7,Jits_ISO_8,0,1,48,26,355777600
16,5,7,Jits_ISO_8,1,5,56,103,355824100
16,5,7,Jits_ISO_8,2,5,80,127,355874352
16,5,7,Jits_ISO_8,3,5,63,98,355893512
16,5,7,Jits_ISO_8,0,1,48,24,356565604
16,5,7,Jits_ISO_8,1,5,56,103,356594448
16,5,7,Jits_ISO_8,2,5,80,127,356653324
16,5,7,Jits_ISO_8,3,5,63,98,356724216
16,5,7,Jits_ISO_8,0,5,56,103,357393896
16,5,7,Jits_ISO_8,1,5,80,127,357423448
16,5,7,Jits_ISO_8,2,1,48,29,357446232
16,5,7,Jits_ISO_8,3,5,63,98,357454412
16,5,7,Jits_ISO_8,0,5,56,103,358233520
16,5,7,Jits_ISO_8,1,1,48,26,358238800
16,5,7,Jits_ISO_8,2,5,80,127,358254012
16,5,7,Jits_ISO_8,3,5,63,98,358314304
16,5,7,Jits_ISO_8,0,1,48,22,359063548
16,5,7,Jits_ISO_8,1,5,80,127,359114356
16,5,7,Jits_ISO_8,2,5,56,103,359124464
16,5,7,Jits_ISO_8,3,5,63,98,359133472
16,5,7,Jits_ISO_8,0,5,56,103,359874028
16,5,7,Jits_ISO_8,1,5,80,127,359913708
16,5,7,Jits_ISO_8,2,1,48,31,359919884
16,5,7,Jits_ISO_8,3,5,63,98,359943476
16,5,7,Jits_ISO_8,0,5,56,103,360644104
16,5,7,Jits_ISO_8,1,5,63,98,360673756
16,5,7,Jits_ISO_8,2,1,48,20,360682112
16,5,7,Jits_ISO_8,3,5,80,127,360713696
16,5,7,Jits_ISO_8,0,5,80,127,361393600
16,5,7,Jits_ISO_8,1,1,48,21,361434144
16,5,7,Jits_ISO_8,2,5,63,98,361443664
16,5,7,Jits_ISO_8,3,5,56,103,361464164
16,5,7,Jits_ISO_8,0,1,48,27,362165352
16,5,7,Jits_ISO_8,1,5,56,103,362224264
16,5,7,Jits_ISO_8,2,5,80,127,362293744
16,5,7,Jits_ISO_8,3,5,63,98,362353960
16,5,7,Jits_ISO_8,0,5,80,127,363023876
16,5,7,Jits_ISO_8,1,1,48,25,363100284
16,5,7,Jits_ISO_8,2,5,63,98,363114076
16,5,7,Jits_ISO_8,3,5,56,103,363134356
16,5,7,Jits_ISO_8,0,5,63,98,363844128
16,5,7,Jits_ISO_8,1,5,56,103,363864556
16,5,7,Jits_ISO_8,2,1,48,23,363893476
16,5,7,Jits_ISO_8,3,5,80,127,363904420
16,5,7,Jits_ISO_8,0,5,80,127,364603788
16,5,7,Jits_ISO_8,1,1,48,27,364624360
16,5,7,Jits_ISO_8,2,5,63,98,364625924
16,5,7,Jits_ISO_8,3,5,56,103,364704088
16,5,7,Jits_ISO_8,0,5,63,98,365394340
16,5,7,Jits_ISO_8,1,1,48,27,365403152
16,5,7,Jits_ISO_8,2,5,56,103,365503976
16,5,7,Jits_ISO_8,3,5,80,127,365506964
16,5,7,Jits_ISO_8,0,1,48,32,366211868
16,5,7,Jits_ISO_8,1,5,63,98,366213672
16,5,7,Jits_ISO_8,2,5,56,103,366223848
16,5,7,Jits_ISO_8,3,5,80,127,366226836
16,5,7,Jits_ISO_8,0,1,48,29,366977544
16,5,7,Jits_ISO_8,1,5,56,103,366994104
16,5,7,Jits_ISO_8,2,5,80,127,367113720
16,5,7,Jits_ISO_8,3,5,63,98,367153368
16,5,7,Jits_ISO_8,0,5,56,103,367813908
16,5,7,Jits_ISO_8,1,1,48,25,367821204
16,5,7,Jits_ISO_8,2,5,80,127,367893964
16,5,7,Jits_ISO_8,3,5,63,98,367914312
16,5,7,Jits_ISO_8,0,5,56,103,368613772
16,5,7,Jits_ISO_8,1,1,48,29,368639768
16,5,7,Jits_ISO_8,2,5,63,98,368724464
16,5,7,Jits_ISO_8,3,5,80,127,368727972
16,5,7,Jits_ISO_8,0,5,56,103,369444196
16,5,7,Jits_ISO_8,1,1,48,29,369454792
16,5,7,Jits_ISO_8,2,5,80,127,369473964
16,5,7,Jits_ISO_8,3,5,63,98,369494244
16,5,7,Jits_ISO_8,0,1,48,30,370210696
16,5,7,Jits_ISO_8,1,5,63,98,370223596
16,5,7,Jits_ISO_8,2,5,56,103,370233704
16,5,7,Jits_ISO_8,3,5,80,127,370243808
16,5,7,Jits_ISO_8,0,1,48,38,370980520
16,5,7,Jits_ISO_8,1,5,80,127,371014140
16,5,7,Jits_ISO_8,2,5,56,103,371064184
16,5,7,Jits_ISO_8,3,5,63,98,371104116
16,5,7,Jits_ISO_8,0,1,48,26,371793968
16,5,7,Jits_ISO_8,1,5,80,127,371834304
16,5,7,Jits_ISO_8,2,5,63,98,371853612
16,5,7,Jits_ISO_8,3,5,56,103,371904012
16,5,7,Jits_ISO_8,0,1,48,30,372632532
16,5,7,Jits_ISO_8,1,5,80,127,372644372
16,5,7,Jits_ISO_8,2,5,56,103,372673928
16,5,7,Jits_ISO_8,3,5,63,98,372743576
16,5,7,Jits_ISO_8,0,1,48,28,373432140
16,5,7,Jits_ISO_8,1,5,56,103,373494120
16,5,7,Jits_ISO_8,2,5,80,127,373504448
16,5,7,Jits_ISO_8,3,5,63,98,373544380
16,5,7,Jits_ISO_8,0,5,56,103,374203724
16,5,7,Jits_ISO_8,1,5,63,98,374224448
16,5,7,Jits_ISO_8,2,1,48,31,374277696
16,5,7,Jits_ISO_8,3,5,80,127,374293732
16,5,7,Jits_ISO_8,0,1,48,29,374999132
16,5,7,Jits_ISO_8,1,5,63,98,375023996
16,5,7,Jits_ISO_8,2,5,80,127,375084584
16,5,7,Jits_ISO_8,3,5,56,103,375103800
16,5,7,Jits_ISO_8,0,1,48,32,375774276
16,5,7,Jits_ISO_8,1,5,80,127,375813644
16,5,7,Jits_ISO_8,2,5,56,103,375844464
16,5,7,Jits_ISO_8,3,5,63,98,375874076
16,5,7,Jits_ISO_8,0,1,48,18,376567428
16,5,7,Jits_ISO_8,1,5,56,103,376614428
16,5,7,Jits_ISO_8,2,5,63,98,376673660
16,5,7,Jits_ISO_8,3,5,80,127,376734172
16,5,7,Jits_ISO_8,0,1,48,29,377356180
16,5,7,Jits_ISO_8,1,5,80,127,377433480
16,5,7,Jits_ISO_8,2,5,56,103,377453892
16,5,7,Jits_ISO_8,3,5,63,98,377523456
16,5,7,Jits_ISO_8,0,5,80,127,378234208
16,5,7,Jits_ISO_8,1,1,48,27,378245476
16,5,7,Jits_ISO_8,2,5,63,98,378253728
16,5,7,Jits_ISO_8,3,5,56,103,378284328
16,5,7,Jits_ISO_8,0,1,48,21,379010440
16,5,7,Jits_ISO_8,1,5,80,127,379023788
16,5,7,Jits_ISO_8,2,5,63,98,379044360
16,5,7,Jits_ISO_8,3,5,56,103,379103632
16,5,7,Jits_ISO_8,0,1,48,25,379789320
16,5,7,Jits_ISO_8,1,5,80,127,379823608
16,5,7,Jits_ISO_8,2,5,56,103,379923924
16,5,7,Jits_ISO_8,3,5,63,98,379953476
16,5,7,Jits_ISO_8,0,5,63,98,380614240
16,5,7,Jits_ISO_8,1,1,48,29,380654332
16,5,7,Jits_ISO_8,2,5,80,127,380664380
16,5,7,Jits_ISO_8,3,5,56,103,380683684
16,5,7,Jits_ISO_8,0,1,48,29,381389708
16,5,7,Jits_ISO_8,1,5,80,127,381453648
16,5,7,Jits_ISO_8,2,5,56,103,381484396
16,5,7,Jits_ISO_8,3,5,63,98,381488192
16,5,7,Jits_ISO_8,0,1,48,27,382174308
16,5,7,Jits_ISO_8,1,5,63,98,382284116
16,5,7,Jits_ISO_8,2,5,56,103,382324140
16,5,7,Jits_ISO_8,3,5,80,127,382343444
16,5,7,Jits_ISO_8,0,1,48,30,382990124
16,5,7,Jits_ISO_8,1,5,80,127,383023444
16,5,7,Jits_ISO_8,2,5,63,98,383104512
16,5,7,Jits_ISO_8,3,5,56,103,383144236
16,5,7,Jits_ISO_8,0,5,63,98,383843620
16,5,7,Jits_ISO_8,1,1,48,29,383847932
16,5,7,Jits_ISO_8,2,5,80,127,383923576
16,5,7,Jits_ISO_8,3,5,56,103,383944064
16,5,7,Jits_ISO_8,0,1,48,27,384637652
16,5,7,Jits_ISO_8,1,5,56,103,384684360
16,5,7,Jits_ISO_8,2,5,63,98,384693568
16,5,7,Jits_ISO_8,3,5,80,127,384733524
16,5,7,Jits_ISO_8,0,5,56,103,385404304
16,5,7,Jits_ISO_8,1,5,80,127,385407292
16,5,7,Jits_ISO_8,2,1,48,23,385416620
16,5,7,Jits_ISO_8,3,5,63,98,385543580
16,5,7,Jits_ISO_8,0,5,56,103,386193884
16,5,7,Jits_ISO_8,1,1,48,23,386196552
16,5,7,Jits_ISO_8,2,5,63,98,386284112
16,5,7,Jits_ISO_8,3,5,80,127,386353512
16,5,7,Jits_ISO_8,0,1,48,32,386969148
16,5,7,Jits_ISO_8,1,5,63,98,387074356
16,5,7,Jits_ISO_8,2,5,80,127,387077864
16,5,7,Jits_ISO_8,3,5,56,103,387133896
16,5,7,Jits_ISO_8,0,1,48,30,387799288
16,5,7,Jits_ISO_8,1,5,80,127,387914044
16,5,7,Jits_ISO_8,2,5,56,103,387933424
16,5,7,Jits_ISO_8,3,5,63,98,387943976
16,5,7,Jits_ISO_8,0,1,48,31,388614760
16,5,7,Jits_ISO_8,1,5,56,103,388623908
16,5,7,Jits_ISO_8,2,5,63,98,388633864
16,5,7,Jits_ISO_8,3,5,80,127,388703724
16,5,7,Jits_ISO_8,0,1,48,26,389392956
16,5,7,Jits_ISO_8,1,5,80,127,389423572
16,5,7,Jits_ISO_8,2,5,56,103,389473840
16,5,7,Jits_ISO_8,3,5,63,98,389523796
16,5,7,Jits_ISO_8,0,1,48,29,390235560
16,5,7,Jits_ISO_8,1,5,56,103,390304024
16,5,7,Jits_ISO_8,2,5,63,98,390314280
16,5,7,Jits_ISO_8,3,5,80,127,390354212
16,5,7,Jits_ISO_8,0,5,56,103,391043428
16,5,7,Jits_ISO_8,1,5,63,98,391084276
16,5,7,Jits_ISO_8,2,1,48,35,391118572
16,5,7,Jits_ISO_8,3,5,80,127,391133736
16,5,7,Jits_ISO_8,0,5,80,127,391804152
16,5,7,Jits_ISO_8,1,5,56,103,391853524
16,5,7,Jits_ISO_8,2,1,48,23,391868076
16,5,7,Jits_ISO_8,3,5,63,98,391873864
16,5,7,Jits_ISO_8,0,5,80,127,392614156
16,5,7,Jits_ISO_8,1,1,48,27,392633132
16,5,7,Jits_ISO_8,2,5,63,98,392673572
16,5,7,Jits_ISO_8,3,5,56,103,392753664
16,5,7,Jits_ISO_8,0,5,80,127,393393504
16,5,7,Jits_ISO_8,1,5,56,103,393433624
16,5,7,Jits_ISO_8,2,1,48,27,393436220
16,5,7,Jits_ISO_8,3,5,63,98,393453968
16,5,7,Jits_ISO_8,0,1,48,34,394193896
16,5,7,Jits_ISO_8,1,5,56,103,394243468
16,5,7,Jits_ISO_8,2,5,80,127,394253644
16,5,7,Jits_ISO_8,3,5,63,98,394294244
16,5,7,Jits_ISO_8,0,1,48,27,394947868
16,5,7,Jits_ISO_8,1,5,56,103,395113808
16,5,7,Jits_ISO_8,2,5,63,98,395153756
16,5,7,Jits_ISO_8,3,5,80,127,395157112
16,5,7,Jits_ISO_8,0,5,63,98,395803992
16,5,7,Jits_ISO_8,1,1,48,23,395836652
16,5,7,Jits_ISO_8,2,5,80,127,395843932
16,5,7,Jits_ISO_8,3,5,56,103,395913572
16,5,7,Jits_ISO_8,0,5,63,98,396593492
16,5,7,Jits_ISO_8,1,1,48,21,396597876
16,5,7,Jits_ISO_8,2,5,56,103,396674492
16,5,7,Jits_ISO_8,3,5,80,127,396733796
16,5,7,Jits_ISO_8,0,1,48,14,397374060
16,5,7,Jits_ISO_8,1,5,80,127,397403628
16,5,7,Jits_ISO_8,2,5,63,98,397453824
16,5,7,Jits_ISO_8,3,5,56,103,397484556
16,5,7,Jits_ISO_8,0,5,56,103,398193956
16,5,7,Jits_ISO_8,1,1,48,22,398201472
16,5,7,Jits_ISO_8,2,5,63,98,398244144
16,5,7,Jits_ISO_8,3,5,80,127,398253576
16,5,7,Jits_ISO_8,0,1,48,25,398909004
16,5,7,Jits_ISO_8,1,5,56,103,399004608
16,5,7,Jits_ISO_8,2,5,63,98,399113772
16,5,7,Jits_ISO_8,3,5,80,127,399134048
16,5,7,Jits_ISO_8,0,5,63,98,399803784
16,5,7,Jits_ISO_8,1,1,48,27,399812668
16,5,7,Jits_ISO_8,2,5,80,127,399853924
16,5,7,Jits_ISO_8,3,5,56,103,399944040
16,5,7,Jits_ISO_8,0,5,63,98,400594480
16,5,7,Jits_ISO_8,1,5,80,127,400624108
16,5,7,Jits_ISO_8,2,1,48,28,400636948
16,5,7,Jits_ISO_8,3,5,56,103,400714232
16,5,7,Jits_ISO_8,0,5,63,98,401394148
16,5,7,Jits_ISO_8,1,5,56,103,401404404
16,5,7,Jits_ISO_8,2,1,48,22,401425472
16,5,7,Jits_ISO_8,3,5,80,127,401503656
16,5,7,Jits_ISO_8,0,1,48,26,402180388
16,5,7,Jits_ISO_8,1,5,63,98,402294172
16,5,7,Jits_ISO_8,2,5,80,127,402323800
16,5,7,Jits_ISO_8,3,5,56,103,402353424
16,5,7,Jits_ISO_8,0,1,48,25,403099220
16,5,7,Jits_ISO_8,1,5,80,127,403114288
16,5,7,Jits_ISO_8,2,5,63,98,403123424
16,5,7,Jits_ISO_8,3,5,56,103,403154392
16,5,7,Jits_ISO_8,0,5,80,127,403813720
16,5,7,Jits_ISO_8,1,5,63,98,403834072
16,5,7,Jits_ISO_8,2,5,56,103,403884416
16,5,7,Jits_ISO_8,3,1,48,39,403948356
16,5,7,Jits_ISO_8,0,1,48,28,404627512
16,5,7,Jits_ISO_8,1,5,63,98,404644216
16,5,7,Jits_ISO_8,2,5,80,127,404703488
16,5,7,Jits_ISO_8,3,5,56,103,404724284
16,5,7,Jits_ISO_8,0,5,63,98,405404108
16,5,7,Jits_ISO_8,1,1,48,26,405415600
16,5,7,Jits_ISO_8,2,5,56,103,405454148
16,5,7,Jits_ISO_8,3,5,80,127,405464424
16,5,7,Jits_ISO_8,0,5,56,103,406233424
16,5,7,Jits_ISO_8,1,1,48,27,406238176
16,5,7,Jits_ISO_8,2,5,80,127,406243596
16,5,7,Jits_ISO_8,3,5,63,98,406344032
16,5,7,Jits_ISO_8,0,5,80,127,406994340
16,5,7,Jits_ISO_8,1,5,63,98,407003428
16,5,7,Jits_ISO_8,2,1,48,21,407050512
16,5,7,Jits_ISO_8,3,5,56,103,407154264
16,5,7,Jits_ISO_8,0,5,63,98,407804224
16,5,7,Jits_ISO_8,1,1,48,28,407808980
16,5,7,Jits_ISO_8,2,5,80,127,407844168
16,5,7,Jits_ISO_8,3,5,56,103,407924036
16,5,7,Jits_ISO_8,0,1,48,30,408591056
16,5,7,Jits_ISO_8,1,5,56,103,408593788
16,5,7,Jits_ISO_8,2,5,80,127,408694080
16,5,7,Jits_ISO_8,3,5,63,98,408713532
16,5,7,Jits_ISO_8,0,1,48,18,409431052
16,5,7,Jits_ISO_8,1,5,80,127,409454044
16,5,7,Jits_ISO_8,2,5,56,103,409464152
16,5,7,Jits_ISO_8,3,5,63,98,409554192
16,5,7,Jits_ISO_8,0,1,48,21,410237908
16,5,7,Jits_ISO_8,1,5,56,103,410253872
16,5,7,Jits_ISO_8,2,5,63,98,410274148
16,5,7,Jits_ISO_8,3,5,80,127,410353968
16,5,7,Jits_ISO_8,0,5,63,98,411004264
16,5,7,Jits_ISO_8,1,1,48,25,411026300
16,5,7,Jits_ISO_8,2,5,56,103,411094416
16,5,7,Jits_ISO_8,3,5,80,127,411097624
16,5,7,Jits_ISO_8,0,1,48,15,411833548
16,5,7,Jits_ISO_8,1,5,56,103,411835104
16,5,7,Jits_ISO_8,2,5,80,127,411894080
16,5,7,Jits_ISO_8,3,5,63,98,411904336
16,5,7,Jits_ISO_8,0,1,48,25,412620312
16,5,7,Jits_ISO_8,1,5,80,127,412683728
16,5,7,Jits_ISO_8,2,5,56,103,412693904
16,5,7,Jits_ISO_8,3,5,63,98,412697040
16,5,7,Jits_ISO_8,0,1,48,25,413443312
16,5,7,Jits_ISO_8,1,5,56,103,413445020
16,5,7,Jits_ISO_8,2,5,80,127,413453856
16,5,7,Jits_ISO_8,3,5,63,98,413474280
16,5,7,Jits_ISO_8,0,5,63,98,414213584
16,5,7,Jits_ISO_8,1,1,48,29,414228436
16,5,7,Jits_ISO_8,2,5,80,127,414273796
16,5,7,Jits_ISO_8,3,5,56,103,414323988
16,5,7,Jits_ISO_8,0,1,48,23,414994520
16,5,7,Jits_ISO_8,1,5,63,98,415094084
16,5,7,Jits_ISO_8,2,5,56,103,415104416
16,5,7,Jits_ISO_8,3,5,80,127,415153560
16,5,7,Jits_ISO_8,0,5,63,98,415793484
16,5,7,Jits_ISO_8,1,5,80,127,415813984
16,5,7,Jits_ISO_8,2,5,56,103,415824164
16,5,7,Jits_ISO_8,3,1,48,26,415845300
16,5,7,Jits_ISO_8,0,5,63,98,416594268
16,5,7,Jits_ISO_8,1,5,80,127,416597552
16,5,7,Jits_ISO_8,2,1,48,30,416598516
16,5,7,Jits_ISO_8,3,5,56,103,416634132
16,5,7,Jits_ISO_8,0,1,48,29,417361788
16,5,7,Jits_ISO_8,1,5,63,98,417463764
16,5,7,Jits_ISO_8,2,5,80,127,417494536
16,5,7,Jits_ISO_8,3,5,56,103,417503596
16,5,7,Jits_ISO_8,0,1,48,26,418207400
16,5,7,Jits_ISO_8,1,5,56,103,418214384
16,5,7,Jits_ISO_8,2,5,80,127,418244084
16,5,7,Jits_ISO_8,3,5,63,98,418273660
16,5,7,Jits_ISO_8,0,1,48,19,419020748
16,5,7,Jits_ISO_8,1,5,63,98,419114456
16,5,7,Jits_ISO_8,2,5,56,103,419154388
16,5,7,Jits_ISO_8,3,5,80,127,419157376
16,5,7,Jits_ISO_8,0,5,80,127,419813688
16,5,7,Jits_ISO_8,1,5,56,103,419893576
16,5,7,Jits_ISO_8,2,5,63,98,419943916
16,5,7,Jits_ISO_8,0,5,80,127,420594440
16,5,7,Jits_ISO_8,1,5,56,103,420613524
16,5,7,Jits_ISO_8,2,1,48,32,420665252
16,5,7,Jits_ISO_8,3,5,63,98,420703648
16,5,7,Jits_ISO_8,0,1,48,20,421417936
16,5,7,Jits_ISO_8,1,5,80,127,421433604
16,5,7,Jits_ISO_8,2,5,63,98,421473628
16,5,7,Jits_ISO_8,3,5,56,103,421513560
16,5,7,Jits_ISO_8,0,5,63,98,422203736
16,5,7,Jits_ISO_8,1,1,48,29,422225552
16,5,7,Jits_ISO_8,2,5,80,127,422264320
16,5,7,Jits_ISO_8,3,5,56,103,422293724
16,5,7,Jits_ISO_8,0,5,56,103,423003412
16,5,7,Jits_ISO_8,1,1,48,26,423022836
16,5,7,Jits_ISO_8,2,5,80,127,423034448
16,5,7,Jits_ISO_8,3,5,63,98,423124440
16,5,7,Jits_ISO_8,0,1,48,27,423813564
16,5,7,Jits_ISO_8,1,5,56,103,423815124
16,5,7,Jits_ISO_8,2,5,80,127,423924196
16,5,7,Jits_ISO_8,3,5,63,98,423953676
16,5,7,Jits_ISO_8,0,5,56,103,424664504
16,5,7,Jits_ISO_8,1,5,63,98,424723748
16,5,7,Jits_ISO_8,2,1,48,30,424730824
16,5,7,Jits_ISO_8,3,5,80,127,424753520
16,5,7,Jits_ISO_8,0,5,56,103,425433312
16,5,7,Jits_ISO_8,1,5,63,98,425504220
16,5,7,Jits_ISO_8,2,1,48,30,425520568
16,5,7,Jits_ISO_8,3,5,80,127,425523592
16,5,7,Jits_ISO_8,0,5,80,127,426203452
16,5,7,Jits_ISO_8,1,5,63,98,426224252
16,5,7,Jits_ISO_8,2,5,56,103,426274292
16,5,7,Jits_ISO_8,3,1,48,21,426276660
16,5,7,Jits_ISO_8,0,9999,9999,9999,331471932
16,5,7,Jits_ISO_8,1,9999,9999,9999,332271668
16,5,7,Jits_ISO_8,2,9999,9999,9999,333071416
16,5,7,Jits_ISO_8,3,9999,9999,9999,333871164
16,5,7,Jits_ISO_8,4,9999,9999,9999,334671952
16,5,7,Jits_ISO_8,5,9999,9999,9999,335471704
16,5,7,Jits_ISO_8,6,9999,9999,9999,336271448
16,5,7,Jits_ISO_8,7,9999,9999,9999,337071212
16,5,7,Jits_ISO_8,8,9999,9999,9999,337871932
16,5,7,Jits_ISO_8,9,9999,9999,9999,338671696
16,5,7,Jits_ISO_8,10,9999,9999,9999,339471428
16,5,7,Jits_ISO_8,11,9999,9999,9999,340271184
16,5,7,Jits_ISO_8,12,9999,9999,9999,341071984
16,5,7,Jits_ISO_8,13,9999,9999,9999,341871732
16,5,7,Jits_ISO_8,14,9999,9999,9999,342671420
16,5,7,Jits_ISO_8,15,9999,9999,9999,343471172
16,5,7,Jits_ISO_8,16,9999,9999,9999,344271948
16,5,7,Jits_ISO_8,17,9999,9999,9999,345071736
16,5,7,Jits_ISO_8,18,9999,9999,9999,345871412
16,5,7,Jits_ISO_8,19,9999,9999,9999,346671180
16,5,7,Jits_ISO_8,20,9999,9999,9999,347471968
16,5,7,Jits_ISO_8,21,9999,9999,9999,348271716
16,5,7,Jits_ISO_8,22,9999,9999,9999,349071468
16,5,7,Jits_ISO_8,23,9999,9999,9999,349871216
16,5,7,Jits_ISO_8,24,9999,9999,9999,350671932
16,5,7,Jits_ISO_8,25,9999,9999,9999,351471700
16,5,7,Jits_ISO_8,26,9999,9999,9999,352271448
16,5,7,Jits_ISO_8,27,9999,9999,9999,353071200
16,5,7,Jits_ISO_8,28,9999,9999,9999,353871928
16,5,7,Jits_ISO_8,29,9999,9999,9999,354671684
16,5,7,Jits_ISO_8,30,9999,9999,9999,355471428
16,5,7,Jits_ISO_8,31,9999,9999,9999,356271176
16,5,7,Jits_ISO_8,32,9999,9999,9999,357071968
16,5,7,Jits_ISO_8,33,9999,9999,9999,357871724
16,5,7,Jits_ISO_8,34,9999,9999,9999,358671416
16,5,7,Jits_ISO_8,35,9999,9999,9999,359471188
16,5,7,Jits_ISO_8,36,9999,9999,9999,360271988
16,5,7,Jits_ISO_8,37,9999,9999,9999,361071676
16,5,7,Jits_ISO_8,38,9999,9999,9999,361871432
16,5,7,Jits_ISO_8,39,9999,9999,9999,362671196
16,5,7,Jits_ISO_8,40,9999,9999,9999,363471996
16,5,7,Jits_ISO_8,41,9999,9999,9999,364271704
16,5,7,Jits_ISO_8,42,9999,9999,9999,365071444
16,5,7,Jits_ISO_8,43,9999,9999,9999,365871200
16,5,7,Jits_ISO_8,44,9999,9999,9999,366671976
16,5,7,Jits_ISO_8,45,9999,9999,9999,367471728
16,5,7,Jits_ISO_8,46,9999,9999,9999,368271476
16,5,7,Jits_ISO_8,47,9999,9999,9999,369071156
16,5,7,Jits_ISO_8,48,9999,9999,9999,369871964
16,5,7,Jits_ISO_8,49,9999,9999,9999,370671668
16,5,7,Jits_ISO_8,50,9999,9999,9999,371471412
16,5,7,Jits_ISO_8,51,9999,9999,9999,372271160
16,5,7,Jits_ISO_8,52,9999,9999,9999,373071956
16,5,7,Jits_ISO_8,53,9999,9999,9999,373871712
16,5,7,Jits_ISO_8,54,9999,9999,9999,374671456
16,5,7,Jits_ISO_8,55,9999,9999,9999,375471220
16,5,7,Jits_ISO_8,56,9999,9999,9999,376271936
16,5,7,Jits_ISO_8,57,9999,9999,9999,377071704
16,5,7,Jits_ISO_8,58,9999,9999,9999,377871456
16,5,7,Jits_ISO_8,59,9999,9999,9999,378671200
16,5,7,Jits_ISO_8,60,9999,9999,9999,379471936
16,5,7,Jits_ISO_8,61,9999,9999,9999,380271684
16,5,7,Jits_ISO_8,62,9999,9999,9999,381071432
16,5,7,Jits_ISO_8,63,9999,9999,9999,381871172
16,5,7,Jits_ISO_8,64,9999,9999,9999,382671972
16,5,7,Jits_ISO_8,65,9999,9999,9999,383471668
16,5,7,Jits_ISO_8,66,9999,9999,9999,384271424
16,5,7,Jits_ISO_8,67,9999,9999,9999,385071180
16,5,7,Jits_ISO_8,68,9999,9999,9999,385871960
16,5,7,Jits_ISO_8,69,9999,9999,9999,386671720
16,5,7,Jits_ISO_8,70,9999,9999,9999,387471480
16,5,7,Jits_ISO_8,71,9999,9999,9999,388271160
16,5,7,Jits_ISO_8,72,9999,9999,9999,389071952
16,5,7,Jits_ISO_8,73,9999,9999,9999,389871720
16,5,7,Jits_ISO_8,74,9999,9999,9999,390671476
16,5,7,Jits_ISO_8,75,9999,9999,9999,391471156
16,5,7,Jits_ISO_8,76,9999,9999,9999,392271960
16,5,7,Jits_ISO_8,77,9999,9999,9999,393071724
16,5,7,Jits_ISO_8,78,9999,9999,9999,393871484
16,5,7,Jits_ISO_8,79,9999,9999,9999,394671168
16,5,7,Jits_ISO_8,80,9999,9999,9999,395471964
16,5,7,Jits_ISO_8,81,9999,9999,9999,396271728
16,5,7,Jits_ISO_8,82,9999,9999,9999,397071476
16,5,7,Jits_ISO_8,83,9999,9999,9999,397871224
16,5,7,Jits_ISO_8,84,9999,9999,9999,398671936
16,5,7,Jits_ISO_8,85,9999,9999,9999,399471704
16,5,7,Jits_ISO_8,86,9999,9999,9999,400271448
16,5,7,Jits_ISO_8,87,9999,9999,9999,401071172
16,5,7,Jits_ISO_8,88,9999,9999,9999,401871956
16,5,7,Jits_ISO_8,89,9999,9999,9999,402671732
16,5,7,Jits_ISO_8,90,9999,9999,9999,403471468
16,5,7,Jits_ISO_8,91,9999,9999,9999,404271212
16,5,7,Jits_ISO_8,92,9999,9999,9999,405071948
16,5,7,Jits_ISO_8,93,9999,9999,9999,405871692
16,5,7,Jits_ISO_8,94,9999,9999,9999,406671440
16,5,7,Jits_ISO_8,95,9999,9999,9999,407471204
16,5,7,Jits_ISO_8,96,9999,9999,9999,408271936
16,5,7,Jits_ISO_8,97,9999,9999,9999,409071704
16,5,7,Jits_ISO_8,98,9999,9999,9999,409871456
16,5,7,Jits_ISO_8,99,9999,9999,9999,410671208
16,5,7,Jits_ISO_8,100,9999,9999,9999,411471992
16,5,7,Jits_ISO_8,101,9999,9999,9999,412271740
16,5,7,Jits_ISO_8,102,9999,9999,9999,413071480
16,5,7,Jits_ISO_8,103,9999,9999,9999,413871156
16,5,7,Jits_ISO_8,104,9999,9999,9999,414671948
16,5,7,Jits_ISO_8,105,9999,9999,9999,415471724
16,5,7,Jits_ISO_8,106,9999,9999,9999,416271460
16,5,7,Jits_ISO_8,107,9999,9999,9999,417071192
16,5,7,Jits_ISO_8,108,9999,9999,9999,417871988
16,5,7,Jits_ISO_8,109,9999,9999,9999,418671728
16,5,7,Jits_ISO_8,110,9999,9999,9999,419471480
16,5,7,Jits_ISO_8,111,9999,9999,9999,420271180
16,5,7,Jits_ISO_8,112,9999,9999,9999,421071948
16,5,7,Jits_ISO_8,113,9999,9999,9999,421871728
16,5,7,Jits_ISO_8,114,9999,9999,9999,422671476
16,5,7,Jits_ISO_8,115,9999,9999,9999,423471220
16,5,7,Jits_ISO_8,116,9999,9999,9999,424271960
16,5,7,Jits_ISO_8,117,9999,9999,9999,425071716
16,5,7,Jits_ISO_8,118,9999,9999,9999,425871480
16,5,7,Jits_ISO_8,119,9999,9999,9999,426671164
16,6,19,Jits_Linear_5,0,5,56,103,444422612
16,6,19,Jits_Linear_5,1,5,63,98,444425556
16,6,19,Jits_Linear_5,2,5,80,127,444428672
16,6,19,Jits_Linear_5,0,5,56,103,444902820
16,6,19,Jits_Linear_5,1,5,63,98,444905912
16,6,19,Jits_Linear_5,2,5,80,127,444909252
16,6,19,Jits_Linear_5,3,1,48,42,445134056
16,6,19,Jits_Linear_5,0,5,56,103,445383220
16,6,19,Jits_Linear_5,1,5,80,127,445393496
16,6,19,Jits_Linear_5,2,1,48,37,445397580
16,6,19,Jits_Linear_5,3,5,63,98,445412648
16,6,19,Jits_Linear_5,0,5,63,98,445813384
16,6,19,Jits_Linear_5,1,1,48,48,445834384
16,6,19,Jits_Linear_5,2,5,80,127,445842784
16,6,19,Jits_Linear_5,3,5,56,103,445853112
16,6,19,Jits_Linear_5,0,1,48,50,446284940
16,6,19,Jits_Linear_5,1,5,80,127,446352880
16,6,19,Jits_Linear_5,2,5,56,103,446363284
16,6,19,Jits_Linear_5,3,5,63,98,446392672
16,6,19,Jits_Linear_5,0,1,48,44,446807464
16,6,19,Jits_Linear_5,1,5,63,98,446833076
16,6,19,Jits_Linear_5,2,5,56,103,446862628
16,6,19,Jits_Linear_5,3,5,80,127,446873032
16,6,19,Jits_Linear_5,0,5,56,103,447273256
16,6,19,Jits_Linear_5,1,5,63,98,447322408
16,6,19,Jits_Linear_5,2,1,48,46,447335244
16,6,19,Jits_Linear_5,3,5,80,127,447343124
16,6,19,Jits_Linear_5,0,1,48,49,447761756
16,6,19,Jits_Linear_5,1,5,80,127,447763400
16,6,19,Jits_Linear_5,2,5,63,98,447813076
16,6,19,Jits_Linear_5,3,5,56,103,447853020
16,6,19,Jits_Linear_5,0,5,56,103,448253324
16,6,19,Jits_Linear_5,1,1,48,50,448276932
16,6,19,Jits_Linear_5,2,5,63,98,448283244
16,6,19,Jits_Linear_5,3,5,80,127,448352588
16,6,19,Jits_Linear_5,0,1,48,50,448737308
16,6,19,Jits_Linear_5,1,5,56,103,448742944
16,6,19,Jits_Linear_5,2,5,80,127,448803240
16,6,19,Jits_Linear_5,3,5,63,98,448833296
16,6,19,Jits_Linear_5,0,5,56,103,449242368
16,6,19,Jits_Linear_5,1,1,48,49,449243332
16,6,19,Jits_Linear_5,2,5,63,98,449252616
16,6,19,Jits_Linear_5,3,5,80,127,449292560
16,6,19,Jits_Linear_5,0,5,63,98,449733012
16,6,19,Jits_Linear_5,1,1,48,43,449737692
16,6,19,Jits_Linear_5,2,5,80,127,449812996
16,6,19,Jits_Linear_5,3,5,56,103,449823176
16,6,19,Jits_Linear_5,0,1,48,41,450240160
16,6,19,Jits_Linear_5,1,5,63,98,450282856
16,6,19,Jits_Linear_5,2,5,56,103,450322880
16,6,19,Jits_Linear_5,3,5,80,127,450325940
16,6,19,Jits_Linear_5,0,1,48,41,450724540
16,6,19,Jits_Linear_5,1,5,56,103,450742744
16,6,19,Jits_Linear_5,2,5,63,98,450753292
16,6,19,Jits_Linear_5,3,5,80,127,450793044
16,6,19,Jits_Linear_5,0,1,48,41,451212280
16,6,19,Jits_Linear_5,1,5,56,103,451233244
16,6,19,Jits_Linear_5,2,5,63,98,451236232
16,6,19,Jits_Linear_5,3,5,80,127,451252624
16,6,19,Jits_Linear_5,0,1,48,46,451698492
16,6,19,Jits_Linear_5,1,5,80,127,451753280
16,6,19,Jits_Linear_5,2,5,56,103,451762488
16,6,19,Jits_Linear_5,3,5,63,98,451833184
16,6,19,Jits_Linear_5,0,1,48,45,452238444
16,6,19,Jits_Linear_5,1,5,63,98,452252984
16,6,19,Jits_Linear_5,2,5,56,103,452272368
16,6,19,Jits_Linear_5,3,5,80,127,452353308
16,6,19,Jits_Linear_5,0,1,48,43,452748836
16,6,19,Jits_Linear_5,1,5,56,103,452773180
16,6,19,Jits_Linear_5,2,5,80,127,452813056
16,6,19,Jits_Linear_5,3,5,63,98,452823408
16,6,19,Jits_Linear_5,0,1,48,41,453270160
16,6,19,Jits_Linear_5,1,5,80,127,453273112
16,6,19,Jits_Linear_5,2,5,63,98,453302888
16,6,19,Jits_Linear_5,3,5,56,103,453342564
16,6,19,Jits_Linear_5,0,1,48,38,453787152
16,6,19,Jits_Linear_5,1,5,56,103,453803264
16,6,19,Jits_Linear_5,2,5,63,98,453833044
16,6,19,Jits_Linear_5,3,5,80,127,453884288
16,6,19,Jits_Linear_5,0,1,48,35,454304824
16,6,19,Jits_Linear_5,1,5,80,127,454313300
16,6,19,Jits_Linear_5,2,5,56,103,454353348
16,6,19,Jits_Linear_5,3,5,63,98,454362484
16,6,19,Jits_Linear_5,0,1,48,34,454803632
16,6,19,Jits_Linear_5,1,5,80,127,454813076
16,6,19,Jits_Linear_5,2,5,63,98,454852952
16,6,19,Jits_Linear_5,3,5,56,103,454913328
16,6,19,Jits_Linear_5,0,1,48,43,455314104
16,6,19,Jits_Linear_5,1,5,56,103,455333208
16,6,19,Jits_Linear_5,2,5,80,127,455342492
16,6,19,Jits_Linear_5,3,5,63,98,455423284
16,6,19,Jits_Linear_5,0,5,80,127,455853564
16,6,19,Jits_Linear_5,1,1,48,30,455884728
16,6,19,Jits_Linear_5,2,5,63,98,455912828
16,6,19,Jits_Linear_5,3,5,56,103,455942604
16,6,19,Jits_Linear_5,0,5,56,103,456372588
16,6,19,Jits_Linear_5,1,1,48,30,456389760
16,6,19,Jits_Linear_5,2,5,80,127,456433048
16,6,19,Jits_Linear_5,3,5,63,98,456473072
16,6,19,Jits_Linear_5,0,1,48,37,456884472
16,6,19,Jits_Linear_5,1,5,56,103,456953116
16,6,19,Jits_Linear_5,2,5,63,98,456962396
16,6,19,Jits_Linear_5,3,5,80,127,456965904
16,6,19,Jits_Linear_5,0,1,48,32,457424808
16,6,19,Jits_Linear_5,1,5,80,127,457432620
16,6,19,Jits_Linear_5,2,5,63,98,457522668
16,6,19,Jits_Linear_5,3,5,56,103,457532772
16,6,19,Jits_Linear_5,0,5,56,103,457962988
16,6,19,Jits_Linear_5,1,1,48,36,457966160
16,6,19,Jits_Linear_5,2,5,63,98,457967796
16,6,19,Jits_Linear_5,3,5,80,127,457970532
16,6,19,Jits_Linear_5,0,1,48,39,458470756
16,6,19,Jits_Linear_5,1,5,80,127,458512888
16,6,19,Jits_Linear_5,2,5,63,98,458562860
16,6,19,Jits_Linear_5,3,5,56,103,458592548
16,6,19,Jits_Linear_5,0,1,48,41,458984748
16,6,19,Jits_Linear_5,1,5,56,103,459022696
16,6,19,Jits_Linear_5,2,5,80,127,459032804
16,6,19,Jits_Linear_5,3,5,63,98,459102652
16,6,19,Jits_Linear_5,0,1,48,39,459517508
16,6,19,Jits_Linear_5,1,5,56,103,459563540
16,6,19,Jits_Linear_5,2,5,63,98,459582700
16,6,19,Jits_Linear_5,3,5,80,127,459643420
16,6,19,Jits_Linear_5,0,1,48,36,460042808
16,6,19,Jits_Linear_5,1,5,80,127,460092724
16,6,19,Jits_Linear_5,2,5,63,98,460162428
16,6,19,Jits_Linear_5,3,5,56,103,460182852
16,6,19,Jits_Linear_5,0,1,48,36,460635784
16,6,19,Jits_Linear_5,1,5,80,127,460652868
16,6,19,Jits_Linear_5,2,5,56,103,460663348
16,6,19,Jits_Linear_5,3,5,63,98,460673824
16,6,19,Jits_Linear_5,0,1,48,34,461154268
16,6,19,Jits_Linear_5,1,5,80,127,461183468
16,6,19,Jits_Linear_5,2,5,56,103,461202700
16,6,19,Jits_Linear_5,3,5,63,98,461272500
16,6,19,Jits_Linear_5,0,1,48,31,461692056
16,6,19,Jits_Linear_5,1,5,56,103,461733440
16,6,19,Jits_Linear_5,2,5,80,127,461762992
16,6,19,Jits_Linear_5,3,5,63,98,461783592
16,6,19,Jits_Linear_5,0,1,48,26,462230812
16,6,19,Jits_Linear_5,1,5,63,98,462273016
16,6,19,Jits_Linear_5,2,5,56,103,462333320
16,6,19,Jits_Linear_5,3,5,80,127,462362944
16,6,19,Jits_Linear_5,0,1,48,29,462797380
16,6,19,Jits_Linear_5,1,5,63,98,462812616
16,6,19,Jits_Linear_5,2,5,80,127,462815904
16,6,19,Jits_Linear_5,3,5,56,103,462902588
16,6,19,Jits_Linear_5,0,1,48,31,463358728
16,6,19,Jits_Linear_5,1,5,56,103,463382852
16,6,19,Jits_Linear_5,2,5,63,98,463412480
16,6,19,Jits_Linear_5,3,5,80,127,463452500
16,6,19,Jits_Linear_5,0,5,63,98,463932832
16,6,19,Jits_Linear_5,1,1,48,36,463936916
16,6,19,Jits_Linear_5,2,5,56,103,463972848
16,6,19,Jits_Linear_5,3,5,80,127,463993200
16,6,19,Jits_Linear_5,0,1,48,33,464470664
16,6,19,Jits_Linear_5,1,5,63,98,464492900
16,6,19,Jits_Linear_5,2,5,56,103,464532776
16,6,19,Jits_Linear_5,3,5,80,127,464543028
16,6,19,Jits_Linear_5,0,5,80,127,465023360
16,6,19,Jits_Linear_5,1,1,48,27,465033956
16,6,19,Jits_Linear_5,2,5,63,98,465092848
16,6,19,Jits_Linear_5,3,5,56,103,465112404
16,6,19,Jits_Linear_5,0,5,56,103,465573420
16,6,19,Jits_Linear_5,1,1,48,37,465578552
16,6,19,Jits_Linear_5,2,5,80,127,465592648
16,6,19,Jits_Linear_5,3,5,63,98,465632544
16,6,19,Jits_Linear_5,0,5,63,98,466142508
16,6,19,Jits_Linear_5,1,1,48,32,466159300
16,6,19,Jits_Linear_5,2,5,80,127,466163152
16,6,19,Jits_Linear_5,3,5,56,103,466203100
16,6,19,Jits_Linear_5,0,5,63,98,466702652
16,6,19,Jits_Linear_5,1,1,48,35,466711832
16,6,19,Jits_Linear_5,2,5,56,103,466723368
16,6,19,Jits_Linear_5,3,5,80,127,466733324
16,6,19,Jits_Linear_5,0,1,48,36,467248388
16,6,19,Jits_Linear_5,1,5,80,127,467262932
16,6,19,Jits_Linear_5,2,5,56,103,467283284
16,6,19,Jits_Linear_5,3,5,63,98,467313284
16,6,19,Jits_Linear_5,0,1,48,38,467808228
16,6,19,Jits_Linear_5,1,5,56,103,467902732
16,6,19,Jits_Linear_5,2,5,80,127,467906756
16,6,19,Jits_Linear_5,3,5,63,98,467923320
16,6,19,Jits_Linear_5,0,5,63,98,468393248
16,6,19,Jits_Linear_5,1,5,56,103,468423024
16,6,19,Jits_Linear_5,2,1,48,39,468447628
16,6,19,Jits_Linear_5,3,5,80,127,468482364
16,6,19,Jits_Linear_5,0,1,48,37,468983012
16,6,19,Jits_Linear_5,1,5,63,98,469042648
16,6,19,Jits_Linear_5,2,5,56,103,469052904
16,6,19,Jits_Linear_5,3,5,80,127,469063008
16,6,19,Jits_Linear_5,0,5,56,103,469562788
16,6,19,Jits_Linear_5,1,5,80,127,469592416
16,6,19,Jits_Linear_5,2,5,63,98,469602596
16,6,19,Jits_Linear_5,3,1,48,32,469618720
16,6,19,Jits_Linear_5,0,1,48,35,470125084
16,6,19,Jits_Linear_5,1,5,63,98,470183232
16,6,19,Jits_Linear_5,2,5,56,103,470192440
16,6,19,Jits_Linear_5,3,5,80,127,470213088
16,6,19,Jits_Linear_5,0,5,56,103,470683100
16,6,19,Jits_Linear_5,1,1,48,35,470720632
16,6,19,Jits_Linear_5,2,5,63,98,470743256
16,6,19,Jits_Linear_5,3,5,80,127,470746620
16,6,19,Jits_Linear_5,0,1,48,38,471251104
16,6,19,Jits_Linear_5,1,5,80,127,471282988
16,6,19,Jits_Linear_5,2,5,56,103,471293388
16,6,19,Jits_Linear_5,3,5,63,98,471363088
16,6,19,Jits_Linear_5,0,5,80,127,471853384
16,6,19,Jits_Linear_5,1,1,48,23,471860696
16,6,19,Jits_Linear_5,2,5,56,103,471922944
16,6,19,Jits_Linear_5,3,5,63,98,471933352
16,6,19,Jits_Linear_5,0,5,63,98,472473012
16,6,19,Jits_Linear_5,1,5,56,103,472483044
16,6,19,Jits_Linear_5,2,1,48,32,472491476
16,6,19,Jits_Linear_5,3,5,80,127,472502568
16,6,19,Jits_Linear_5,0,5,80,127,473003316
16,6,19,Jits_Linear_5,1,1,48,29,473030652
16,6,19,Jits_Linear_5,2,5,63,98,473062952
16,6,19,Jits_Linear_5,3,5,56,103,473102824
16,6,19,Jits_Linear_5,0,1,48,38,473599952
16,6,19,Jits_Linear_5,1,5,56,103,473633056
16,6,19,Jits_Linear_5,2,5,63,98,473643312
16,6,19,Jits_Linear_5,3,5,80,127,473683332
16,6,19,Jits_Linear_5,0,1,48,27,474164008
16,6,19,Jits_Linear_5,1,5,56,103,474182960
16,6,19,Jits_Linear_5,2,5,80,127,474212884
16,6,19,Jits_Linear_5,3,5,63,98,474262988
16,6,19,Jits_Linear_5,0,1,48,37,474794384
16,6,19,Jits_Linear_5,1,5,56,103,474813036
16,6,19,Jits_Linear_5,2,5,63,98,474853008
16,6,19,Jits_Linear_5,3,5,80,127,474856216
16,6,19,Jits_Linear_5,0,5,56,103,475402680
16,6,19,Jits_Linear_5,1,5,63,98,475412712
16,6,19,Jits_Linear_5,2,1,48,30,475423528
16,6,19,Jits_Linear_5,3,5,80,127,475433280
16,6,19,Jits_Linear_5,0,5,56,103,475952588
16,6,19,Jits_Linear_5,1,5,80,127,475955648
16,6,19,Jits_Linear_5,2,5,63,98,475992388
16,6,19,Jits_Linear_5,3,1,48,27,476006568
16,6,19,Jits_Linear_5,0,1,48,28,476561100
16,6,19,Jits_Linear_5,1,5,63,98,476583336
16,6,19,Jits_Linear_5,2,5,56,103,476613116
16,6,19,Jits_Linear_5,3,5,80,127,476632372
16,6,19,Jits_Linear_5,0,1,48,25,477147964
16,6,19,Jits_Linear_5,1,5,80,127,477152784
16,6,19,Jits_Linear_5,2,5,56,103,477162740
16,6,19,Jits_Linear_5,3,5,63,98,477173068
16,6,19,Jits_Linear_5,0,1,48,18,477732420
16,6,19,Jits_Linear_5,1,5,56,103,477752940
16,6,19,Jits_Linear_5,2,5,80,127,477792740
16,6,19,Jits_Linear_5,3,5,63,98,477823484
16,6,19,Jits_Linear_5,0,1,48,29,478334816
16,6,19,Jits_Linear_5,1,5,63,98,478362972
16,6,19,Jits_Linear_5,2,5,80,127,478373224
16,6,19,Jits_Linear_5,3,5,56,103,478382656
16,6,19,Jits_Linear_5,0,1,48,34,478911944
16,6,19,Jits_Linear_5,1,5,56,103,478942808
16,6,19,Jits_Linear_5,2,5,63,98,479013332
16,6,19,Jits_Linear_5,3,5,80,127,479022544
16,6,19,Jits_Linear_5,0,5,80,127,479552924
16,6,19,Jits_Linear_5,1,5,56,103,479563328
16,6,19,Jits_Linear_5,2,1,48,25,479583652
16,6,19,Jits_Linear_5,3,5,63,98,479613292
16,6,19,Jits_Linear_5,0,1,48,25,480155604
16,6,19,Jits_Linear_5,1,5,80,127,480173584
16,6,19,Jits_Linear_5,2,5,56,103,480232856
16,6,19,Jits_Linear_5,3,5,63,98,480262764
16,6,19,Jits_Linear_5,0,5,56,103,480782824
16,6,19,Jits_Linear_5,1,5,80,127,480785736
16,6,19,Jits_Linear_5,2,5,63,98,480822772
16,6,19,Jits_Linear_5,3,1,48,19,480831128
16,6,19,Jits_Linear_5,0,1,48,25,481392908
16,6,19,Jits_Linear_5,1,5,56,103,481422700
16,6,19,Jits_Linear_5,2,5,63,98,481453524
16,6,19,Jits_Linear_5,3,5,80,127,481462660
16,6,19,Jits_Linear_5,0,1,48,24,482006328
16,6,19,Jits_Linear_5,1,5,63,98,482043308
16,6,19,Jits_Linear_5,2,5,80,127,482052740
16,6,19,Jits_Linear_5,3,5,56,103,482062696
16,6,19,Jits_Linear_5,0,5,80,127,482603608
16,6,19,Jits_Linear_5,1,1,48,33,482612860
16,6,19,Jits_Linear_5,2,5,56,103,482652524
16,6,19,Jits_Linear_5,3,5,63,98,482655588
16,6,19,Jits_Linear_5,0,1,48,32,483179336
16,6,19,Jits_Linear_5,1,5,56,103,483252456
16,6,19,Jits_Linear_5,2,5,80,127,483273180
16,6,19,Jits_Linear_5,3,5,63,98,483283496
16,6,19,Jits_Linear_5,0,1,48,25,483841524
16,6,19,Jits_Linear_5,1,5,63,98,483852616
16,6,19,Jits_Linear_5,2,5,56,103,483883512
16,6,19,Jits_Linear_5,3,5,80,127,483902748
16,6,19,Jits_Linear_5,0,1,48,24,484451928
16,6,19,Jits_Linear_5,1,5,56,103,484482396
16,6,19,Jits_Linear_5,2,5,80,127,484492796
16,6,19,Jits_Linear_5,3,5,63,98,484563492
16,6,19,Jits_Linear_5,0,5,63,98,485092684
16,6,19,Jits_Linear_5,1,5,80,127,485132632
16,6,19,Jits_Linear_5,2,5,56,103,485172580
16,6,19,Jits_Linear_5,3,1,48,25,485184596
16,6,19,Jits_Linear_5,0,1,48,27,485729304
16,6,19,Jits_Linear_5,1,5,56,103,485732852
16,6,19,Jits_Linear_5,2,5,63,98,485742884
16,6,19,Jits_Linear_5,3,5,80,127,485762560
16,6,19,Jits_Linear_5,0,1,48,27,486304112
16,6,19,Jits_Linear_5,1,5,63,98,486402376
16,6,19,Jits_Linear_5,2,5,80,127,486422784
16,6,19,Jits_Linear_5,3,5,56,103,486443436
16,6,19,Jits_Linear_5,0,5,56,103,486972700
16,6,19,Jits_Linear_5,1,1,48,24,487039160
16,6,19,Jits_Linear_5,2,5,80,127,487052584
16,6,19,Jits_Linear_5,3,5,63,98,487063060
16,6,19,Jits_Linear_5,0,1,48,31,487617864
16,6,19,Jits_Linear_5,1,5,80,127,487642604
16,6,19,Jits_Linear_5,2,5,63,98,487652636
16,6,19,Jits_Linear_5,3,5,56,103,487682412
16,6,19,Jits_Linear_5,0,5,63,98,488233344
16,6,19,Jits_Linear_5,1,1,48,28,488261300
16,6,19,Jits_Linear_5,2,5,80,127,488273512
16,6,19,Jits_Linear_5,3,5,56,103,488332680
16,6,19,Jits_Linear_5,0,1,48,28,488864888
16,6,19,Jits_Linear_5,1,5,63,98,488873364
16,6,19,Jits_Linear_5,2,5,56,103,488922392
16,6,19,Jits_Linear_5,3,5,80,127,488953288
16,6,19,Jits_Linear_5,0,1,48,21,489469548
16,6,19,Jits_Linear_5,1,5,80,127,489522544
16,6,19,Jits_Linear_5,2,5,63,98,489532724
16,6,19,Jits_Linear_5,3,5,56,103,489602500
16,6,19,Jits_Linear_5,0,1,48,28,490187148
16,6,19,Jits_Linear_5,1,5,80,127,490233280
16,6,19,Jits_Linear_5,2,5,56,103,490242488
16,6,19,Jits_Linear_5,3,5,63,98,490245552
16,6,19,Jits_Linear_5,0,5,56,103,490812876
16,6,19,Jits_Linear_5,1,1,48,24,490815544
16,6,19,Jits_Linear_5,2,5,80,127,490833372
16,6,19,Jits_Linear_5,3,5,63,98,490842432
16,6,19,Jits_Linear_5,0,5,63,98,491463164
16,6,19,Jits_Linear_5,1,1,48,27,491471028
16,6,19,Jits_Linear_5,2,5,56,103,491503056
16,6,19,Jits_Linear_5,3,5,80,127,491522364
16,6,19,Jits_Linear_5,0,1,48,23,492090388
16,6,19,Jits_Linear_5,1,5,63,98,492113164
16,6,19,Jits_Linear_5,2,5,56,103,492172632
16,6,19,Jits_Linear_5,3,5,80,127,492175624
16,6,19,Jits_Linear_5,0,1,48,19,492700188
16,6,19,Jits_Linear_5,1,5,56,103,492722516
16,6,19,Jits_Linear_5,2,5,80,127,492743164
16,6,19,Jits_Linear_5,3,5,63,98,492783136
16,6,19,Jits_Linear_5,0,1,48,20,493302924
16,6,19,Jits_Linear_5,1,5,56,103,493402416
16,6,19,Jits_Linear_5,2,5,63,98,493423064
16,6,19,Jits_Linear_5,3,5,80,127,493433172
16,6,19,Jits_Linear_5,0,5,80,127,494023012
16,6,19,Jits_Linear_5,1,1,48,28,494037368
16,6,19,Jits_Linear_5,2,5,56,103,494052884
16,6,19,Jits_Linear_5,3,5,63,98,494092832
16,6,19,Jits_Linear_5,0,1,48,23,494676728
16,6,19,Jits_Linear_5,1,5,80,127,494682448
16,6,19,Jits_Linear_5,2,5,56,103,494702948
16,6,19,Jits_Linear_5,3,5,63,98,494763388
16,6,19,Jits_Linear_5,0,5,56,103,495342924
16,6,19,Jits_Linear_5,1,5,80,127,495362304
16,6,19,Jits_Linear_5,2,1,48,19,495381204
16,6,19,Jits_Linear_5,3,5,63,98,495423036
16,6,19,Jits_Linear_5,0,1,48,21,495975824
16,6,19,Jits_Linear_5,1,5,80,127,495982808
16,6,19,Jits_Linear_5,2,5,56,103,495993288
16,6,19,Jits_Linear_5,3,5,63,98,496033160
16,6,19,Jits_Linear_5,0,1,48,23,496603976
16,6,19,Jits_Linear_5,1,5,63,98,496642376
16,6,19,Jits_Linear_5,2,5,56,103,496683444
16,6,19,Jits_Linear_5,3,5,80,127,496686432
16,6,19,Jits_Linear_5,0,1,48,29,497270012
16,6,19,Jits_Linear_5,1,5,63,98,497323304
16,6,19,Jits_Linear_5,2,5,80,127,497363276
16,6,19,Jits_Linear_5,3,5,56,103,497393036
16,6,19,Jits_Linear_5,0,5,56,103,497972860
16,6,19,Jits_Linear_5,1,5,63,98,497982892
16,6,19,Jits_Linear_5,2,5,80,127,498012964
16,6,19,Jits_Linear_5,3,1,48,20,498031340
16,6,19,Jits_Linear_5,0,1,48,30,498594384
16,6,19,Jits_Linear_5,1,5,80,127,498633160
16,6,19,Jits_Linear_5,2,5,63,98,498702812
16,6,19,Jits_Linear_5,3,5,56,103,498712844
16,6,19,Jits_Linear_5,0,5,63,98,499302760
16,6,19,Jits_Linear_5,1,1,48,25,499307964
16,6,19,Jits_Linear_5,2,5,56,103,499373368
16,6,19,Jits_Linear_5,3,5,80,127,499382576
16,6,19,Jits_Linear_5,0,5,63,98,499972580
16,6,19,Jits_Linear_5,1,1,48,20,499980712
16,6,19,Jits_Linear_5,2,5,56,103,499993072
16,6,19,Jits_Linear_5,3,5,80,127,500032796
16,6,19,Jits_Linear_5,0,1,48,16,500567604
16,6,19,Jits_Linear_5,1,5,56,103,500653356
16,6,19,Jits_Linear_5,2,5,63,98,500662568
16,6,19,Jits_Linear_5,3,5,80,127,500742612
16,6,19,Jits_Linear_5,0,1,48,17,501270796
16,6,19,Jits_Linear_5,1,5,63,98,501312852
16,6,19,Jits_Linear_5,2,5,56,103,501342556
16,6,19,Jits_Linear_5,3,5,80,127,501382708
16,6,19,Jits_Linear_5,0,1,48,20,501933404
16,6,19,Jits_Linear_5,1,5,56,103,501982672
16,6,19,Jits_Linear_5,2,5,63,98,502022772
16,6,19,Jits_Linear_5,3,5,80,127,502062776
16,6,19,Jits_Linear_5,0,1,48,27,502628044
16,6,19,Jits_Linear_5,1,5,80,127,502662712
16,6,19,Jits_Linear_5,2,5,56,103,502743580
16,6,19,Jits_Linear_5,3,5,63,98,502752716
16,6,19,Jits_Linear_5,0,1,48,26,503364588
16,6,19,Jits_Linear_5,1,5,56,103,503383616
16,6,19,Jits_Linear_5,2,5,63,98,503386600
16,6,19,Jits_Linear_5,3,5,80,127,503392676
16,6,19,Jits_Linear_5,0,1,48,29,504002664
16,6,19,Jits_Linear_5,1,5,56,103,504082748
16,6,19,Jits_Linear_5,2,5,63,98,504103828
16,6,19,Jits_Linear_5,3,5,80,127,504112444
16,6,19,Jits_Linear_5,0,1,48,31,504718920
16,6,19,Jits_Linear_5,1,5,63,98,504722696
16,6,19,Jits_Linear_5,2,5,80,127,504733028
16,6,19,Jits_Linear_5,3,5,56,103,504752408
16,6,19,Jits_Linear_5,0,1,48,29,505350680
16,6,19,Jits_Linear_5,1,5,63,98,505413084
16,6,19,Jits_Linear_5,2,5,56,103,505492728
16,6,19,Jits_Linear_5,3,5,80,127,505496020
16,6,19,Jits_Linear_5,0,5,63,98,506103172
16,6,19,Jits_Linear_5,1,5,56,103,506122628
16,6,19,Jits_Linear_5,2,1,48,26,506133676
16,6,19,Jits_Linear_5,3,5,80,127,506153292
16,6,19,Jits_Linear_5,0,5,56,103,506793308
16,6,19,Jits_Linear_5,1,1,48,28,506796200
16,6,19,Jits_Linear_5,2,5,63,98,506812756
16,6,19,Jits_Linear_5,3,5,80,127,506823012
16,6,19,Jits_Linear_5,0,1,48,36,507452936
16,6,19,Jits_Linear_5,1,5,56,103,507513396
16,6,19,Jits_Linear_5,2,5,63,98,507542796
16,6,19,Jits_Linear_5,3,5,80,127,507546456
16,6,19,Jits_Linear_5,0,5,56,103,508153372
16,6,19,Jits_Linear_5,1,1,48,24,508160460
16,6,19,Jits_Linear_5,2,5,63,98,508193388
16,6,19,Jits_Linear_5,3,5,80,127,508252844
16,6,19,Jits_Linear_5,0,5,56,103,508863344
16,6,19,Jits_Linear_5,1,1,48,24,508873004
16,6,19,Jits_Linear_5,2,5,63,98,508874636
16,6,19,Jits_Linear_5,3,5,80,127,508932568
16,6,19,Jits_Linear_5,0,1,48,23,509550644
16,6,19,Jits_Linear_5,1,5,56,103,509563244
16,6,19,Jits_Linear_5,2,5,80,127,509582772
16,6,19,Jits_Linear_5,3,5,63,98,509613372
16,6,19,Jits_Linear_5,0,1,48,26,510257264
16,6,19,Jits_Linear_5,1,5,80,127,510262604
16,6,19,Jits_Linear_5,2,5,56,103,510272784
16,6,19,Jits_Linear_5,3,5,63,98,510293284
16,6,19,Jits_Linear_5,0,1,48,30,510943392
16,6,19,Jits_Linear_5,1,5,63,98,510952692
16,6,19,Jits_Linear_5,2,5,80,127,511032656
16,6,19,Jits_Linear_5,3,5,56,103,511043192
16,6,19,Jits_Linear_5,0,1,48,29,511687308
16,6,19,Jits_Linear_5,1,5,80,127,511712572
16,6,19,Jits_Linear_5,2,5,56,103,511733292
16,6,19,Jits_Linear_5,3,5,63,98,511736280
16,6,19,Jits_Linear_5,0,1,48,30,512392612
16,6,19,Jits_Linear_5,1,5,63,98,512394348
16,6,19,Jits_Linear_5,2,5,80,127,512397232
16,6,19,Jits_Linear_5,3,5,56,103,512452972
16,6,19,Jits_Linear_5,0,5,56,103,513082768
16,6,19,Jits_Linear_5,1,5,80,127,513093096
16,6,19,Jits_Linear_5,2,1,48,32,513097104
16,6,19,Jits_Linear_5,3,5,63,98,513132960
16,6,19,Jits_Linear_5,0,1,48,35,513767288
16,6,19,Jits_Linear_5,1,5,56,103,513773008
16,6,19,Jits_Linear_5,2,5,63,98,513833300
16,6,19,Jits_Linear_5,3,5,80,127,513842508
16,6,19,Jits_Linear_5,0,1,48,34,514477844
16,6,19,Jits_Linear_5,1,5,63,98,514493060
16,6,19,Jits_Linear_5,2,5,80,127,514532888
16,6,19,Jits_Linear_5,3,5,56,103,514572684
16,6,19,Jits_Linear_5,0,1,48,27,515177204
16,6,19,Jits_Linear_5,1,5,56,103,515202444
16,6,19,Jits_Linear_5,2,5,63,98,515283164
16,6,19,Jits_Linear_5,3,5,80,127,515286600
16,6,19,Jits_Linear_5,0,1,48,24,515963936
16,6,19,Jits_Linear_5,1,5,80,127,515972564
16,6,19,Jits_Linear_5,2,5,56,103,516003232
16,6,19,Jits_Linear_5,3,5,63,98,516006296
16,6,19,Jits_Linear_5,0,1,48,36,516645940
16,6,19,Jits_Linear_5,1,5,56,103,516653368
16,6,19,Jits_Linear_5,2,5,80,127,516673048
16,6,19,Jits_Linear_5,3,5,63,98,516713068
16,6,19,Jits_Linear_5,0,1,48,27,517321640
16,6,19,Jits_Linear_5,1,5,80,127,517353028
16,6,19,Jits_Linear_5,2,5,63,98,517373232
16,6,19,Jits_Linear_5,3,5,56,103,517432836
16,6,19,Jits_Linear_5,0,1,48,29,518053240
16,6,19,Jits_Linear_5,1,5,63,98,518082808
16,6,19,Jits_Linear_5,2,5,56,103,518093312
16,6,19,Jits_Linear_5,3,5,80,127,518144312
16,6,19,Jits_Linear_5,0,1,48,37,518743844
16,6,19,Jits_Linear_5,1,5,56,103,518792492
16,6,19,Jits_Linear_5,2,5,63,98,518812992
16,6,19,Jits_Linear_5,3,5,80,127,518823244
16,6,19,Jits_Linear_5,0,1,48,33,519451360
16,6,19,Jits_Linear_5,1,5,56,103,519512568
16,6,19,Jits_Linear_5,2,5,63,98,519515628
16,6,19,Jits_Linear_5,3,5,80,127,519532992
16,6,19,Jits_Linear_5,0,1,48,31,520165660
16,6,19,Jits_Linear_5,1,5,63,98,520282436
16,6,19,Jits_Linear_5,2,5,56,103,520313108
16,6,19,Jits_Linear_5,3,5,80,127,520342884
16,6,19,Jits_Linear_5,0,5,80,127,520972620
16,6,19,Jits_Linear_5,1,1,48,33,521002516
16,6,19,Jits_Linear_5,2,5,56,103,521062748
16,6,19,Jits_Linear_5,3,5,63,98,521065808
16,6,19,Jits_Linear_5,0,5,56,103,521702800
16,6,19,Jits_Linear_5,1,5,80,127,521705788
16,6,19,Jits_Linear_5,2,1,48,23,521772560
16,6,19,Jits_Linear_5,3,5,63,98,521782828
16,6,19,Jits_Linear_5,0,5,80,127,522432732
16,6,19,Jits_Linear_5,1,1,48,26,522440692
16,6,19,Jits_Linear_5,2,5,63,98,522493268
16,6,19,Jits_Linear_5,3,5,56,103,522522892
16,6,19,Jits_Linear_5,0,1,48,23,523150780
16,6,19,Jits_Linear_5,1,5,63,98,523162844
16,6,19,Jits_Linear_5,2,5,80,127,523173096
16,6,19,Jits_Linear_5,3,5,56,103,523242908
16,6,19,Jits_Linear_5,0,1,48,32,523894484
16,6,19,Jits_Linear_5,1,5,56,103,523912760
16,6,19,Jits_Linear_5,2,5,80,127,523943136
16,6,19,Jits_Linear_5,3,5,63,98,523992740
16,6,19,Jits_Linear_5,0,1,48,33,524620608
16,6,19,Jits_Linear_5,1,5,63,98,524692832
16,6,19,Jits_Linear_5,2,5,56,103,524722592
16,6,19,Jits_Linear_5,3,5,80,127,524725580
16,6,19,Jits_Linear_5,0,1,48,31,525400464
16,6,19,Jits_Linear_5,1,5,63,98,525433172
16,6,19,Jits_Linear_5,2,5,80,127,525452704
16,6,19,Jits_Linear_5,3,5,56,103,525462956
16,6,19,Jits_Linear_5,0,1,48,31,526160024
16,6,19,Jits_Linear_5,1,5,56,103,526182796
16,6,19,Jits_Linear_5,2,5,63,98,526185860
16,6,19,Jits_Linear_5,3,5,80,127,526203520
16,6,19,Jits_Linear_5,0,5,56,103,526883276
16,6,19,Jits_Linear_5,1,1,48,34,526884240
16,6,19,Jits_Linear_5,2,5,63,98,526893672
16,6,19,Jits_Linear_5,3,5,80,127,526923224
16,6,19,Jits_Linear_5,0,1,48,34,527612388
16,6,19,Jits_Linear_5,1,5,63,98,527653324
16,6,19,Jits_Linear_5,2,5,80,127,527672632
16,6,19,Jits_Linear_5,3,5,56,103,527712636
16,6,19,Jits_Linear_5,0,1,48,36,528316800
16,6,19,Jits_Linear_5,1,5,56,103,528432408
16,6,19,Jits_Linear_5,2,5,63,98,528472352
16,6,19,Jits_Linear_5,3,5,80,127,528475564
16,6,19,Jits_Linear_5,0,1,48,39,529111188
16,6,19,Jits_Linear_5,1,5,80,127,529122576
16,6,19,Jits_Linear_5,2,5,56,103,529162672
16,6,19,Jits_Linear_5,3,5,63,98,529212776
16,6,19,Jits_Linear_5,0,1,48,35,529854416
16,6,19,Jits_Linear_5,1,5,56,103,529932636
16,6,19,Jits_Linear_5,2,5,80,127,529942816
16,6,19,Jits_Linear_5,3,5,63,98,529972576
16,6,19,Jits_Linear_5,0,1,48,29,530618028
16,6,19,Jits_Linear_5,1,5,56,103,530633316
16,6,19,Jits_Linear_5,2,5,80,127,530672896
16,6,19,Jits_Linear_5,3,5,63,98,530723368
16,6,19,Jits_Linear_5,0,5,56,103,531393092
16,6,19,Jits_Linear_5,1,1,48,27,531397104
16,6,19,Jits_Linear_5,2,5,80,127,531432764
16,6,19,Jits_Linear_5,3,5,63,98,531483180
16,6,19,Jits_Linear_5,0,5,80,127,532142436
16,6,19,Jits_Linear_5,1,1,48,17,532161712
16,6,19,Jits_Linear_5,2,5,63,98,532223460
16,6,19,Jits_Linear_5,3,5,56,103,532232520
16,6,19,Jits_Linear_5,0,1,48,22,532945616
16,6,19,Jits_Linear_5,1,5,80,127,532952528
16,6,19,Jits_Linear_5,2,5,56,103,532962636
16,6,19,Jits_Linear_5,3,5,63,98,532983284
16,6,19,Jits_Linear_5,0,1,48,36,533667532
16,6,19,Jits_Linear_5,1,5,63,98,533682604
16,6,19,Jits_Linear_5,2,5,56,103,533753316
16,6,19,Jits_Linear_5,3,5,80,127,533756228
16,6,19,Jits_Linear_5,0,5,80,127,534443448
16,6,19,Jits_Linear_5,1,1,48,29,534448124
16,6,19,Jits_Linear_5,2,5,63,98,534492468
16,6,19,Jits_Linear_5,3,5,56,103,534532416
16,6,19,Jits_Linear_5,0,1,48,25,535192980
16,6,19,Jits_Linear_5,1,5,63,98,535253316
16,6,19,Jits_Linear_5,2,5,56,103,535293252
16,6,19,Jits_Linear_5,3,5,80,127,535302384
16,6,19,Jits_Linear_5,0,1,48,24,535992576
16,6,19,Jits_Linear_5,1,5,63,98,536013116
16,6,19,Jits_Linear_5,2,5,56,103,536032868
16,6,19,Jits_Linear_5,3,5,80,127,536053148
16,6,19,Jits_Linear_5,0,1,48,23,536718552
16,6,19,Jits_Linear_5,1,5,80,127,536743268
16,6,19,Jits_Linear_5,2,5,56,103,536752552
16,6,19,Jits_Linear_5,3,5,63,98,536773052
16,6,19,Jits_Linear_5,0,1,48,33,537457328
16,6,19,Jits_Linear_5,1,5,63,98,537543156
16,6,19,Jits_Linear_5,2,5,56,103,537583088
16,6,19,Jits_Linear_5,3,5,80,127,537613088
16,6,19,Jits_Linear_5,0,1,48,29,538252116
16,6,19,Jits_Linear_5,1,5,56,103,538323300
16,6,19,Jits_Linear_5,2,5,63,98,538353060
16,6,19,Jits_Linear_5,3,5,80,127,538382688
16,6,19,Jits_Linear_5,0,5,80,127,539072832
16,6,19,Jits_Linear_5,1,1,48,16,539087936
16,6,19,Jits_Linear_5,2,5,56,103,539142940
16,6,19,Jits_Linear_5,3,5,63,98,539145776
16,6,19,Jits_Linear_5,0,1,48,27,539858492
16,6,19,Jits_Linear_5,1,5,56,103,539863312
16,6,19,Jits_Linear_5,2,5,63,98,539912688
16,6,19,Jits_Linear_5,3,5,80,127,539943136
16,6,19,Jits_Linear_5,0,1,48,32,540601376
16,6,19,Jits_Linear_5,1,5,63,98,540623332
16,6,19,Jits_Linear_5,2,5,80,127,540626764
16,6,19,Jits_Linear_5,3,5,56,103,540682724
16,6,19,Jits_Linear_5,0,1,48,21,541404560
16,6,19,Jits_Linear_5,1,5,56,103,541433232
16,6,19,Jits_Linear_5,2,5,80,127,541442292
16,6,19,Jits_Linear_5,3,5,63,98,541492708
16,6,19,Jits_Linear_5,0,1,48,23,542112800
16,6,19,Jits_Linear_5,1,5,63,98,542192880
16,6,19,Jits_Linear_5,2,5,56,103,542203132
16,6,19,Jits_Linear_5,3,5,80,127,542232896
16,6,19,Jits_Linear_5,0,1,48,26,542904520
16,6,19,Jits_Linear_5,1,5,63,98,543013164
16,6,19,Jits_Linear_5,2,5,80,127,543016448
16,6,19,Jits_Linear_5,3,5,56,103,543042864
16,6,19,Jits_Linear_5,0,1,48,30,543709572
16,6,19,Jits_Linear_5,1,5,63,98,543823212
16,6,19,Jits_Linear_5,2,5,56,103,543842888
16,6,19,Jits_Linear_5,3,5,80,127,543845804
16,6,19,Jits_Linear_5,0,1,48,25,544566384
16,6,19,Jits_Linear_5,1,5,63,98,544572696
16,6,19,Jits_Linear_5,2,5,56,103,544642488
16,6,19,Jits_Linear_5,3,5,80,127,544662828
16,6,19,Jits_Linear_5,0,1,48,29,545320708
16,6,19,Jits_Linear_5,1,5,56,103,545352988
16,6,19,Jits_Linear_5,2,5,63,98,545363168
16,6,19,Jits_Linear_5,3,5,80,127,545453508
16,6,19,Jits_Linear_5,0,1,48,23,546092932
16,6,19,Jits_Linear_5,1,5,56,103,546163044
16,6,19,Jits_Linear_5,2,5,80,127,546202980
16,6,19,Jits_Linear_5,3,5,63,98,546213160
16,6,19,Jits_Linear_5,0,1,48,28,546907248
16,6,19,Jits_Linear_5,1,5,56,103,546983276
16,6,19,Jits_Linear_5,2,5,63,98,547013036
16,6,19,Jits_Linear_5,3,5,80,127,547042616
16,6,19,Jits_Linear_5,0,5,80,127,547743076
16,6,19,Jits_Linear_5,1,1,48,26,547746412
16,6,19,Jits_Linear_5,2,5,63,98,547782944
16,6,19,Jits_Linear_5,3,5,56,103,547802424
16,6,19,Jits_Linear_5,0,1,48,25,548520936
16,6,19,Jits_Linear_5,1,5,56,103,548582640
16,6,19,Jits_Linear_5,2,5,80,127,548603360
16,6,19,Jits_Linear_5,3,5,63,98,548622656
16,6,19,Jits_Linear_5,0,1,48,26,549329308
16,6,19,Jits_Linear_5,1,5,63,98,549352756
16,6,19,Jits_Linear_5,2,5,56,103,549363160
16,6,19,Jits_Linear_5,3,5,80,127,549422536
16,6,19,Jits_Linear_5,0,1,48,23,550074424
16,6,19,Jits_Linear_5,1,5,56,103,550162736
16,6,19,Jits_Linear_5,2,5,63,98,550232516
16,6,19,Jits_Linear_5,3,5,80,127,550252864
16,6,19,Jits_Linear_5,0,1,48,20,550904256
16,6,19,Jits_Linear_5,1,5,56,103,550972876
16,6,19,Jits_Linear_5,2,5,63,98,551002412
16,6,19,Jits_Linear_5,3,5,80,127,551042360
16,6,19,Jits_Linear_5,0,1,48,30,551711776
16,6,19,Jits_Linear_5,1,5,63,98,551772536
16,6,19,Jits_Linear_5,2,5,56,103,551822788
16,6,19,Jits_Linear_5,3,5,80,127,551833116
16,6,19,Jits_Linear_5,0,1,48,21,552547924
16,6,19,Jits_Linear_5,1,5,56,103,552622384
16,6,19,Jits_Linear_5,2,5,63,98,552672592
16,6,19,Jits_Linear_5,3,5,80,127,552682772
16,6,19,Jits_Linear_5,0,1,48,28,553358584
16,6,19,Jits_Linear_5,1,5,56,103,553402676
16,6,19,Jits_Linear_5,2,5,63,98,553413080
16,6,19,Jits_Linear_5,3,5,80,127,553492976
16,6,19,Jits_Linear_5,0,9999,9999,9999,444660820
16,6,19,Jits_Linear_5,1,9999,9999,9999,445141096
16,6,19,Jits_Linear_5,2,9999,9999,9999,445620288
16,6,19,Jits_Linear_5,3,9999,9999,9999,446100564
16,6,19,Jits_Linear_5,4,9999,9999,9999,446580832
16,6,19,Jits_Linear_5,5,9999,9999,9999,447070304
16,6,19,Jits_Linear_5,6,9999,9999,9999,447560812
16,6,19,Jits_Linear_5,7,9999,9999,9999,448050296
16,6,19,Jits_Linear_5,8,9999,9999,9999,448540732
16,6,19,Jits_Linear_5,9,9999,9999,9999,449030212
16,6,19,Jits_Linear_5,10,9999,9999,9999,449530964
16,6,19,Jits_Linear_5,11,9999,9999,9999,450030692
16,6,19,Jits_Linear_5,12,9999,9999,9999,450530396
16,6,19,Jits_Linear_5,13,9999,9999,9999,451030104
16,6,19,Jits_Linear_5,14,9999,9999,9999,451530816
16,6,19,Jits_Linear_5,15,9999,9999,9999,452040764
16,6,19,Jits_Linear_5,16,9999,9999,9999,452550716
16,6,19,Jits_Linear_5,17,9999,9999,9999,453060668
16,6,19,Jits_Linear_5,18,9999,9999,9999,453570624
16,6,19,Jits_Linear_5,19,9999,9999,9999,454080580
16,6,19,Jits_Linear_5,20,9999,9999,9999,454600784
16,6,19,Jits_Linear_5,21,9999,9999,9999,455121008
16,6,19,Jits_Linear_5,22,9999,9999,9999,455640164
16,6,19,Jits_Linear_5,23,9999,9999,9999,456160368
16,6,19,Jits_Linear_5,24,9999,9999,9999,456680512
16,6,19,Jits_Linear_5,25,9999,9999,9999,457210968
16,6,19,Jits_Linear_5,26,9999,9999,9999,457740380
16,6,19,Jits_Linear_5,27,9999,9999,9999,458270804
16,6,19,Jits_Linear_5,28,9999,9999,9999,458800224
16,6,19,Jits_Linear_5,29,9999,9999,9999,459330676
16,6,19,Jits_Linear_5,30,9999,9999,9999,459870324
16,6,19,Jits_Linear_5,31,9999,9999,9999,460410948
16,6,19,Jits_Linear_5,32,9999,9999,9999,460950600
16,6,19,Jits_Linear_5,33,9999,9999,9999,461490252
16,6,19,Jits_Linear_5,34,9999,9999,9999,462030972
16,6,19,Jits_Linear_5,35,9999,9999,9999,462580800
16,6,19,Jits_Linear_5,36,9999,9999,9999,463130684
16,6,19,Jits_Linear_5,37,9999,9999,9999,463680584
16,6,19,Jits_Linear_5,38,9999,9999,9999,464230484
16,6,19,Jits_Linear_5,39,9999,9999,9999,464780384
16,6,19,Jits_Linear_5,40,9999,9999,9999,465340532
16,6,19,Jits_Linear_5,41,9999,9999,9999,465900640
16,6,19,Jits_Linear_5,42,9999,9999,9999,466460796
16,6,19,Jits_Linear_5,43,9999,9999,9999,467020864
16,6,19,Jits_Linear_5,44,9999,9999,9999,467581008
16,6,19,Jits_Linear_5,45,9999,9999,9999,468150352
16,6,19,Jits_Linear_5,46,9999,9999,9999,468720764
16,6,19,Jits_Linear_5,47,9999,9999,9999,469291092
16,6,19,Jits_Linear_5,48,9999,9999,9999,469870684
16,6,19,Jits_Linear_5,49,9999,9999,9999,470441024
16,6,19,Jits_Linear_5,50,9999,9999,9999,471020632
16,6,19,Jits_Linear_5,51,9999,9999,9999,471600240
16,6,19,Jits_Linear_5,52,9999,9999,9999,472180804
16,6,19,Jits_Linear_5,53,9999,9999,9999,472760416
16,6,19,Jits_Linear_5,54,9999,9999,9999,473341004
16,6,19,Jits_Linear_5,55,9999,9999,9999,473930864
16,6,19,Jits_Linear_5,56,9999,9999,9999,474520704
16,6,19,Jits_Linear_5,57,9999,9999,9999,475110484
16,6,19,Jits_Linear_5,58,9999,9999,9999,475700328
16,6,19,Jits_Linear_5,59,9999,9999,9999,476290164
16,6,19,Jits_Linear_5,60,9999,9999,9999,476890220
16,6,19,Jits_Linear_5,61,9999,9999,9999,477490300
16,6,19,Jits_Linear_5,62,9999,9999,9999,478090312
16,6,19,Jits_Linear_5,63,9999,9999,9999,478690416
16,6,19,Jits_Linear_5,64,9999,9999,9999,479290428
16,6,19,Jits_Linear_5,65,9999,9999,9999,479900756
16,6,19,Jits_Linear_5,66,9999,9999,9999,480511056
16,6,19,Jits_Linear_5,67,9999,9999,9999,481120328
16,6,19,Jits_Linear_5,68,9999,9999,9999,481730676
16,6,19,Jits_Linear_5,69,9999,9999,9999,482340960
16,6,19,Jits_Linear_5,70,9999,9999,9999,482960480
16,6,19,Jits_Linear_5,71,9999,9999,9999,483581000
16,6,19,Jits_Linear_5,72,9999,9999,9999,484200532
16,6,19,Jits_Linear_5,73,9999,9999,9999,484821056
16,6,19,Jits_Linear_5,74,9999,9999,9999,485440592
16,6,19,Jits_Linear_5,75,9999,9999,9999,486070368
16,6,19,Jits_Linear_5,76,9999,9999,9999,486700104
16,6,19,Jits_Linear_5,77,9999,9999,9999,487330932
16,6,19,Jits_Linear_5,78,9999,9999,9999,487960676
16,6,19,Jits_Linear_5,79,9999,9999,9999,488590456
16,6,19,Jits_Linear_5,80,9999,9999,9999,489230436
16,6,19,Jits_Linear_5,81,9999,9999,9999,489870460
16,6,19,Jits_Linear_5,82,9999,9999,9999,490510432
16,6,19,Jits_Linear_5,83,9999,9999,9999,491150460
16,6,19,Jits_Linear_5,84,9999,9999,9999,491790456
16,6,19,Jits_Linear_5,85,9999,9999,9999,492440656
16,6,19,Jits_Linear_5,86,9999,9999,9999,493090872
16,6,19,Jits_Linear_5,87,9999,9999,9999,493740100
16,6,19,Jits_Linear_5,88,9999,9999,9999,494390392
16,6,19,Jits_Linear_5,89,9999,9999,9999,495040608
16,6,19,Jits_Linear_5,90,9999,9999,9999,495701076
16,6,19,Jits_Linear_5,91,9999,9999,9999,496360512
16,6,19,Jits_Linear_5,92,9999,9999,9999,497021020
16,6,19,Jits_Linear_5,93,9999,9999,9999,497680444
16,6,19,Jits_Linear_5,94,9999,9999,9999,498340956
16,6,19,Jits_Linear_5,95,9999,9999,9999,499010644
16,6,19,Jits_Linear_5,96,9999,9999,9999,499680312
16,6,19,Jits_Linear_5,97,9999,9999,9999,500351072
16,6,19,Jits_Linear_5,98,9999,9999,9999,501020744
16,6,19,Jits_Linear_5,99,9999,9999,9999,501690460
16,6,19,Jits_Linear_5,100,9999,9999,9999,502370376
16,6,19,Jits_Linear_5,101,9999,9999,9999,503050292
16,6,19,Jits_Linear_5,102,9999,9999,9999,503730248
16,6,19,Jits_Linear_5,103,9999,9999,9999,504410168
16,6,19,Jits_Linear_5,104,9999,9999,9999,505090156
16,6,19,Jits_Linear_5,105,9999,9999,9999,505780288
16,6,19,Jits_Linear_5,106,9999,9999,9999,506470524
16,6,19,Jits_Linear_5,107,9999,9999,9999,507160684
16,6,19,Jits_Linear_5,108,9999,9999,9999,507850828
16,6,19,Jits_Linear_5,109,9999,9999,9999,508540996
16,6,19,Jits_Linear_5,110,9999,9999,9999,509240376
16,6,19,Jits_Linear_5,111,9999,9999,9999,509940800
16,6,19,Jits_Linear_5,112,9999,9999,9999,510640208
16,6,19,Jits_Linear_5,113,9999,9999,9999,511340624
16,6,19,Jits_Linear_5,114,9999,9999,9999,512041028
16,6,19,Jits_Linear_5,115,9999,9999,9999,512750708
16,6,19,Jits_Linear_5,116,9999,9999,9999,513460288
16,6,19,Jits_Linear_5,117,9999,9999,9999,514170956
16,6,19,Jits_Linear_5,118,9999,9999,9999,514880640
16,6,19,Jits_Linear_5,119,9999,9999,9999,515590244
16,6,19,Jits_Linear_5,120,9999,9999,9999,516310096
16,6,19,Jits_Linear_5,121,9999,9999,9999,517030976
16,6,19,Jits_Linear_5,122,9999,9999,9999,517750904
16,6,19,Jits_Linear_5,123,9999,9999,9999,518470760
16,6,19,Jits_Linear_5,124,9999,9999,9999,519190608
16,6,19,Jits_Linear_5,125,9999,9999,9999,519920696
16,6,19,Jits_Linear_5,126,9999,9999,9999,520650880
16,6,19,Jits_Linear_5,127,9999,9999,9999,521380948
16,6,19,Jits_Linear_5,128,9999,9999,9999,522111052
16,6,19,Jits_Linear_5,129,9999,9999,9999,522840124
16,6,19,Jits_Linear_5,130,9999,9999,9999,523580484
16,6,19,Jits_Linear_5,131,9999,9999,9999,524320832
16,6,19,Jits_Linear_5,132,9999,9999,9999,525060204
16,6,19,Jits_Linear_5,133,9999,9999,9999,525800556
16,6,19,Jits_Linear_5,134,9999,9999,9999,526540896
16,6,19,Jits_Linear_5,135,9999,9999,9999,527290492
16,6,19,Jits_Linear_5,136,9999,9999,9999,528041024
16,6,19,Jits_Linear_5,137,9999,9999,9999,528790644
16,6,19,Jits_Linear_5,138,9999,9999,9999,529540192
16,6,19,Jits_Linear_5,139,9999,9999,9999,530290792
16,6,19,Jits_Linear_5,140,9999,9999,9999,531050564
16,6,19,Jits_Linear_5,141,9999,9999,9999,531810360
16,6,19,Jits_Linear_5,142,9999,9999,9999,532570172
16,6,19,Jits_Linear_5,143,9999,9999,9999,533331028
16,6,19,Jits_Linear_5,144,9999,9999,9999,534090816
16,6,19,Jits_Linear_5,145,9999,9999,9999,534860860
16,6,19,Jits_Linear_5,146,9999,9999,9999,535630924
16,6,19,Jits_Linear_5,147,9999,9999,9999,536400964
16,6,19,Jits_Linear_5,148,9999,9999,9999,537171008
16,6,19,Jits_Linear_5,149,9999,9999,9999,537941104
16,6,19,Jits_Linear_5,150,9999,9999,9999,538720352
16,6,19,Jits_Linear_5,151,9999,9999,9999,539500632
16,6,19,Jits_Linear_5,152,9999,9999,9999,540280932
16,6,19,Jits_Linear_5,153,9999,9999,9999,541060164
16,6,19,Jits_Linear_5,154,9999,9999,9999,541840456
16,6,19,Jits_Linear_5,155,9999,9999,9999,542630988
16,6,19,Jits_Linear_5,156,9999,9999,9999,543420540
16,6,19,Jits_Linear_5,157,9999,9999,9999,544211016
16,6,19,Jits_Linear_5,158,9999,9999,9999,545000516
16,6,19,Jits_Linear_5,159,9999,9999,9999,545791048
16,6,19,Jits_Linear_5,160,9999,9999,9999,546590784
16,6,19,Jits_Linear_5,161,9999,9999,9999,547390524
16,6,19,Jits_Linear_5,162,9999,9999,9999,548190332
16,6,19,Jits_Linear_5,163,9999,9999,9999,548991056
16,6,19,Jits_Linear_5,164,9999,9999,9999,549790788
16,6,19,Jits_Linear_5,165,9999,9999,9999,550600800
16,6,19,Jits_Linear_5,166,9999,9999,9999,551410784
16,6,19,Jits_Linear_5,167,9999,9999,9999,552220764
16,6,19,Jits_Linear_5,168,9999,9999,9999,553030752
16,6,19,Jits_Linear_5,169,9999,9999,9999,553840736
16,7,18,Jits_Linear_8,0,5,56,103,566396460
16,7,18,Jits_Linear_8,1,5,63,98,566399556
16,7,18,Jits_Linear_8,2,5,80,127,566402744
16,7,18,Jits_Linear_8,0,5,56,103,567215580
16,7,18,Jits_Linear_8,1,5,63,98,567218672
16,7,18,Jits_Linear_8,2,5,80,127,567221788
16,7,18,Jits_Linear_8,3,1,48,29,567424996
16,7,18,Jits_Linear_8,0,5,80,127,567976264
16,7,18,Jits_Linear_8,1,1,48,32,567999868
16,7,18,Jits_Linear_8,2,5,63,98,568066564
16,7,18,Jits_Linear_8,3,5,56,103,568075700
16,7,18,Jits_Linear_8,0,5,56,103,568816192
16,7,18,Jits_Linear_8,1,5,63,98,568826592
16,7,18,Jits_Linear_8,2,1,48,35,568835104
16,7,18,Jits_Linear_8,3,5,80,127,568916496
16,7,18,Jits_Linear_8,0,1,48,21,569591428
16,7,18,Jits_Linear_8,1,5,63,98,569605600
16,7,18,Jits_Linear_8,2,5,80,127,569636344
16,7,18,Jits_Linear_8,3,5,56,103,569665896
16,7,18,Jits_Linear_8,0,1,48,38,570401092
16,7,18,Jits_Linear_8,1,5,56,103,570425732
16,7,18,Jits_Linear_8,2,5,80,127,570526176
16,7,18,Jits_Linear_8,3,5,63,98,570576320
16,7,18,Jits_Linear_8,0,5,56,103,571235636
16,7,18,Jits_Linear_8,1,5,80,127,571285904
16,7,18,Jits_Linear_8,2,5,63,98,571325700
16,7,18,Jits_Linear_8,0,1,48,41,572016440
16,7,18,Jits_Linear_8,1,5,80,127,572076528
16,7,18,Jits_Linear_8,2,5,63,98,572106252
16,7,18,Jits_Linear_8,3,5,56,103,572175656
16,7,18,Jits_Linear_8,0,1,48,38,572821016
16,7,18,Jits_Linear_8,1,5,63,98,572916276
16,7,18,Jits_Linear_8,2,5,56,103,572945760
16,7,18,Jits_Linear_8,3,5,80,127,573006344
16,7,18,Jits_Linear_8,0,1,48,37,573665612
16,7,18,Jits_Linear_8,1,5,56,103,573667348
16,7,18,Jits_Linear_8,2,5,80,127,573669936
16,7,18,Jits_Linear_8,3,5,63,98,573785564
16,7,18,Jits_Linear_8,0,1,48,35,574501108
16,7,18,Jits_Linear_8,1,5,56,103,574546392
16,7,18,Jits_Linear_8,2,5,80,127,574586268
16,7,18,Jits_Linear_8,3,5,63,98,574595328
16,7,18,Jits_Linear_8,0,5,56,103,575316284
16,7,18,Jits_Linear_8,1,5,80,127,575335740
16,7,18,Jits_Linear_8,2,1,48,37,575345216
16,7,18,Jits_Linear_8,3,5,63,98,575415692
16,7,18,Jits_Linear_8,0,1,48,37,576099828
16,7,18,Jits_Linear_8,1,5,80,127,576116016
16,7,18,Jits_Linear_8,2,5,56,103,576216404
16,7,18,Jits_Linear_8,3,5,63,98,576219616
16,7,18,Jits_Linear_8,0,5,63,98,576886192
16,7,18,Jits_Linear_8,1,5,80,127,576945516
16,7,18,Jits_Linear_8,2,5,56,103,576955620
16,7,18,Jits_Linear_8,3,1,48,35,576959704
16,7,18,Jits_Linear_8,0,1,48,23,577661112
16,7,18,Jits_Linear_8,1,5,56,103,577685976
16,7,18,Jits_Linear_8,2,5,63,98,577755552
16,7,18,Jits_Linear_8,3,5,80,127,577758836
16,7,18,Jits_Linear_8,0,1,48,30,578413092
16,7,18,Jits_Linear_8,1,5,63,98,578516212
16,7,18,Jits_Linear_8,2,5,56,103,578565508
16,7,18,Jits_Linear_8,3,5,80,127,578568420
16,7,18,Jits_Linear_8,0,5,56,103,579266024
16,7,18,Jits_Linear_8,1,5,80,127,579269160
16,7,18,Jits_Linear_8,2,1,48,29,579285552
16,7,18,Jits_Linear_8,3,5,63,98,579355952
16,7,18,Jits_Linear_8,0,1,48,32,580058632
16,7,18,Jits_Linear_8,1,5,63,98,580105856
16,7,18,Jits_Linear_8,2,5,56,103,580195828
16,7,18,Jits_Linear_8,3,5,80,127,580226352
16,7,18,Jits_Linear_8,0,1,48,24,580885316
16,7,18,Jits_Linear_8,1,5,56,103,580887104
16,7,18,Jits_Linear_8,2,5,63,98,580986280
16,7,18,Jits_Linear_8,3,5,80,127,581016128
16,7,18,Jits_Linear_8,0,1,48,25,581678052
16,7,18,Jits_Linear_8,1,5,63,98,581696032
16,7,18,Jits_Linear_8,2,5,56,103,581706136
16,7,18,Jits_Linear_8,3,5,80,127,581796252
16,7,18,Jits_Linear_8,0,1,48,33,582425648
16,7,18,Jits_Linear_8,1,5,63,98,582495756
16,7,18,Jits_Linear_8,2,5,56,103,582575632
16,7,18,Jits_Linear_8,3,5,80,127,582578692
16,7,18,Jits_Linear_8,0,5,80,127,583236020
16,7,18,Jits_Linear_8,1,1,48,33,583250348
16,7,18,Jits_Linear_8,2,5,63,98,583256364
16,7,18,Jits_Linear_8,3,5,56,103,583315980
16,7,18,Jits_Linear_8,0,1,48,34,584022176
16,7,18,Jits_Linear_8,1,5,56,103,584056240
16,7,18,Jits_Linear_8,2,5,63,98,584075620
16,7,18,Jits_Linear_8,3,5,80,127,584078904
16,7,18,Jits_Linear_8,0,1,48,33,584761604
16,7,18,Jits_Linear_8,1,5,63,98,584776072
16,7,18,Jits_Linear_8,2,5,80,127,584855888
16,7,18,Jits_Linear_8,3,5,56,103,584866052
16,7,18,Jits_Linear_8,0,1,48,27,585508816
16,7,18,Jits_Linear_8,1,5,63,98,585575868
16,7,18,Jits_Linear_8,2,5,56,103,585596220
16,7,18,Jits_Linear_8,3,5,80,127,585645352
16,7,18,Jits_Linear_8,0,1,48,21,586285656
16,7,18,Jits_Linear_8,1,5,80,127,586356140
16,7,18,Jits_Linear_8,2,5,63,98,586396148
16,7,18,Jits_Linear_8,3,5,56,103,586415748
16,7,18,Jits_Linear_8,0,1,48,21,587111920
16,7,18,Jits_Linear_8,1,5,56,103,587166036
16,7,18,Jits_Linear_8,2,5,63,98,587176660
16,7,18,Jits_Linear_8,3,5,80,127,587195820
16,7,18,Jits_Linear_8,0,5,56,103,587865540
16,7,18,Jits_Linear_8,1,1,48,19,587932148
16,7,18,Jits_Linear_8,2,5,63,98,587955816
16,7,18,Jits_Linear_8,3,5,80,127,588015908
16,7,18,Jits_Linear_8,0,5,80,127,588666100
16,7,18,Jits_Linear_8,1,5,56,103,588675756
16,7,18,Jits_Linear_8,2,1,48,18,588676720
16,7,18,Jits_Linear_8,3,5,63,98,588746088
16,7,18,Jits_Linear_8,0,1,48,24,589460640
16,7,18,Jits_Linear_8,1,5,63,98,589465980
16,7,18,Jits_Linear_8,2,5,80,127,589556068
16,7,18,Jits_Linear_8,3,5,56,103,589566452
16,7,18,Jits_Linear_8,0,5,63,98,590166460
16,7,18,Jits_Linear_8,1,5,80,127,590215608
16,7,18,Jits_Linear_8,2,1,48,26,590269056
16,7,18,Jits_Linear_8,3,5,56,103,590275892
16,7,18,Jits_Linear_8,0,1,48,21,590942200
16,7,18,Jits_Linear_8,1,5,56,103,590955852
16,7,18,Jits_Linear_8,2,5,80,127,591006120
16,7,18,Jits_Linear_8,3,5,63,98,591025576
16,7,18,Jits_Linear_8,0,5,56,103,591685868
16,7,18,Jits_Linear_8,1,1,48,31,591725484
16,7,18,Jits_Linear_8,2,5,80,127,591746452
16,7,18,Jits_Linear_8,3,5,63,98,591816040
16,7,18,Jits_Linear_8,0,5,56,103,592445740
16,7,18,Jits_Linear_8,1,1,48,20,592459992
16,7,18,Jits_Linear_8,2,5,80,127,592475432
16,7,18,Jits_Linear_8,3,5,63,98,592506476
16,7,18,Jits_Linear_8,0,1,48,31,593213484
16,7,18,Jits_Linear_8,1,5,56,103,593245536
16,7,18,Jits_Linear_8,2,5,80,127,593266036
16,7,18,Jits_Linear_8,3,5,63,98,593325412
16,7,18,Jits_Linear_8,0,1,48,24,594016812
16,7,18,Jits_Linear_8,1,5,80,127,594086472
16,7,18,Jits_Linear_8,2,5,56,103,594095532
16,7,18,Jits_Linear_8,3,5,63,98,594105784
16,7,18,Jits_Linear_8,0,1,48,33,594758940
16,7,18,Jits_Linear_8,1,5,56,103,594806240
16,7,18,Jits_Linear_8,2,5,80,127,594846264
16,7,18,Jits_Linear_8,3,5,63,98,594875728
16,7,18,Jits_Linear_8,0,5,56,103,595526096
16,7,18,Jits_Linear_8,1,5,63,98,595555724
16,7,18,Jits_Linear_8,2,5,80,127,595595668
16,7,18,Jits_Linear_8,3,1,48,36,595598184
16,7,18,Jits_Linear_8,0,5,80,127,596226356
16,7,18,Jits_Linear_8,1,5,63,98,596275504
16,7,18,Jits_Linear_8,2,5,56,103,596296300
16,7,18,Jits_Linear_8,3,1,48,29,596340024
16,7,18,Jits_Linear_8,0,1,48,28,596992008
16,7,18,Jits_Linear_8,1,5,56,103,597005656
16,7,18,Jits_Linear_8,2,5,80,127,597076268
16,7,18,Jits_Linear_8,3,5,63,98,597135796
16,7,18,Jits_Linear_8,0,5,80,127,597746148
16,7,18,Jits_Linear_8,1,1,48,30,597819492
16,7,18,Jits_Linear_8,2,5,63,98,597836276
16,7,18,Jits_Linear_8,3,5,56,103,597855508
16,7,18,Jits_Linear_8,0,5,63,98,598506096
16,7,18,Jits_Linear_8,1,5,56,103,598526300
16,7,18,Jits_Linear_8,2,1,48,30,598565720
16,7,18,Jits_Linear_8,3,5,80,127,598567436
16,7,18,Jits_Linear_8,0,5,80,127,599206316
16,7,18,Jits_Linear_8,1,1,48,25,599211668
16,7,18,Jits_Linear_8,2,5,63,98,599225692
16,7,18,Jits_Linear_8,3,5,56,103,599305452
16,7,18,Jits_Linear_8,0,5,63,98,599936416
16,7,18,Jits_Linear_8,1,1,48,30,599999364
16,7,18,Jits_Linear_8,2,5,56,103,600046088
16,7,18,Jits_Linear_8,3,5,80,127,600049076
16,7,18,Jits_Linear_8,0,5,63,98,600696040
16,7,18,Jits_Linear_8,1,5,56,103,600706288
16,7,18,Jits_Linear_8,2,5,80,127,600709352
16,7,18,Jits_Linear_8,3,1,48,28,600725192
16,7,18,Jits_Linear_8,0,1,48,23,601410212
16,7,18,Jits_Linear_8,1,5,56,103,601416156
16,7,18,Jits_Linear_8,2,5,80,127,601535896
16,7,18,Jits_Linear_8,3,5,63,98,601575868
16,7,18,Jits_Linear_8,0,5,56,103,602165628
16,7,18,Jits_Linear_8,1,5,80,127,602245444
16,7,18,Jits_Linear_8,2,1,48,32,602262084
16,7,18,Jits_Linear_8,3,5,63,98,602265936
16,7,18,Jits_Linear_8,0,5,56,103,602895880
16,7,18,Jits_Linear_8,1,1,48,21,602961664
16,7,18,Jits_Linear_8,2,5,63,98,603006196
16,7,18,Jits_Linear_8,3,5,80,127,603009932
16,7,18,Jits_Linear_8,0,1,48,25,603651068
16,7,18,Jits_Linear_8,1,5,56,103,603655520
16,7,18,Jits_Linear_8,2,5,80,127,603686192
16,7,18,Jits_Linear_8,3,5,63,98,603705724
16,7,18,Jits_Linear_8,0,5,63,98,604366168
16,7,18,Jits_Linear_8,1,1,48,32,604370624
16,7,18,Jits_Linear_8,2,5,56,103,604376788
16,7,18,Jits_Linear_8,3,5,80,127,604385772
16,7,18,Jits_Linear_8,0,1,48,27,605054240
16,7,18,Jits_Linear_8,1,5,80,127,605075876
16,7,18,Jits_Linear_8,2,5,56,103,605126020
16,7,18,Jits_Linear_8,3,5,63,98,605165876
16,7,18,Jits_Linear_8,0,1,48,21,605794872
16,7,18,Jits_Linear_8,1,5,80,127,605816136
16,7,18,Jits_Linear_8,2,5,63,98,605835812
16,7,18,Jits_Linear_8,3,5,56,103,605885708
16,7,18,Jits_Linear_8,0,5,80,127,606546160
16,7,18,Jits_Linear_8,1,1,48,20,606565588
16,7,18,Jits_Linear_8,2,5,56,103,606576076
16,7,18,Jits_Linear_8,3,5,63,98,606645644
16,7,18,Jits_Linear_8,0,1,48,20,607279444
16,7,18,Jits_Linear_8,1,5,56,103,607325700
16,7,18,Jits_Linear_8,2,5,80,127,607335808
16,7,18,Jits_Linear_8,3,5,63,98,607375828
16,7,18,Jits_Linear_8,0,5,56,103,607956320
16,7,18,Jits_Linear_8,1,5,63,98,607975776
16,7,18,Jits_Linear_8,2,5,80,127,608045416
16,7,18,Jits_Linear_8,3,1,48,21,608056012
16,7,18,Jits_Linear_8,0,5,63,98,608695600
16,7,18,Jits_Linear_8,1,1,48,21,608708984
16,7,18,Jits_Linear_8,2,5,80,127,608756208
16,7,18,Jits_Linear_8,3,5,56,103,608775512
16,7,18,Jits_Linear_8,0,5,80,127,609406536
16,7,18,Jits_Linear_8,1,5,56,103,609435868
16,7,18,Jits_Linear_8,2,1,48,21,609458052
16,7,18,Jits_Linear_8,3,5,63,98,609465636
16,7,18,Jits_Linear_8,0,5,56,103,610115848
16,7,18,Jits_Linear_8,1,1,48,28,610145296
16,7,18,Jits_Linear_8,2,5,63,98,610176428
16,7,18,Jits_Linear_8,3,5,80,127,610235896
16,7,18,Jits_Linear_8,0,1,48,32,610842540
16,7,18,Jits_Linear_8,1,5,80,127,610846096
16,7,18,Jits_Linear_8,2,5,56,103,610865848
16,7,18,Jits_Linear_8,3,5,63,98,610936664
16,7,18,Jits_Linear_8,0,5,80,127,611555624
16,7,18,Jits_Linear_8,1,5,63,98,611576052
16,7,18,Jits_Linear_8,2,5,56,103,611605824
16,7,18,Jits_Linear_8,3,1,48,34,611623584
16,7,18,Jits_Linear_8,0,5,80,127,612245908
16,7,18,Jits_Linear_8,1,5,63,98,612266336
16,7,18,Jits_Linear_8,2,1,48,32,612290012
16,7,18,Jits_Linear_8,3,5,56,103,612325744
16,7,18,Jits_Linear_8,0,5,80,127,612946392
16,7,18,Jits_Linear_8,1,1,48,35,612966264
16,7,18,Jits_Linear_8,2,5,56,103,613045796
16,7,18,Jits_Linear_8,3,5,63,98,613076552
16,7,18,Jits_Linear_8,0,5,63,98,613635516
16,7,18,Jits_Linear_8,1,5,80,127,613685560
16,7,18,Jits_Linear_8,2,5,56,103,613706356
16,7,18,Jits_Linear_8,3,1,48,18,613726308
16,7,18,Jits_Linear_8,0,1,48,16,614331584
16,7,18,Jits_Linear_8,1,5,80,127,614375772
16,7,18,Jits_Linear_8,2,5,56,103,614405392
16,7,18,Jits_Linear_8,3,5,63,98,614408460
16,7,18,Jits_Linear_8,0,1,48,20,615067432
16,7,18,Jits_Linear_8,1,1,38,8,615077288
16,7,18,Jits_Linear_8,2,5,63,98,615105812
16,7,18,Jits_Linear_8,3,5,56,103,615145860
16,7,18,Jits_Linear_8,4,5,80,127,615166420
16,7,18,Jits_Linear_8,0,5,80,127,615745764
16,7,18,Jits_Linear_8,1,1,48,21,615800776
16,7,18,Jits_Linear_8,2,1,38,9,615810632
16,7,18,Jits_Linear_8,3,5,63,98,615825776
16,7,18,Jits_Linear_8,4,5,56,103,615865644
16,7,18,Jits_Linear_8,0,5,63,98,616455396
16,7,18,Jits_Linear_8,1,1,48,21,616492828
16,7,18,Jits_Linear_8,2,1,38,8,616502684
16,7,18,Jits_Linear_8,3,5,80,127,616536380
16,7,18,Jits_Linear_8,4,5,56,103,616555832
16,7,18,Jits_Linear_8,0,5,56,103,617185656
16,7,18,Jits_Linear_8,1,5,63,98,617196356
16,7,18,Jits_Linear_8,2,1,48,23,617199472
16,7,18,Jits_Linear_8,3,1,38,8,617209324
16,7,18,Jits_Linear_8,4,5,80,127,617235756
16,7,18,Jits_Linear_8,0,5,56,103,617796080
16,7,18,Jits_Linear_8,1,5,80,127,617798992
16,7,18,Jits_Linear_8,2,1,48,23,617861196
16,7,18,Jits_Linear_8,3,1,38,8,617873752
16,7,18,Jits_Linear_8,4,5,63,98,617936100
16,7,18,Jits_Linear_8,0,5,56,103,618476076
16,7,18,Jits_Linear_8,1,1,48,23,618507240
16,7,18,Jits_Linear_8,2,5,63,98,618566204
16,7,18,Jits_Linear_8,3,5,80,127,618635756
16,7,18,Jits_Linear_8,0,1,48,21,619134252
16,7,18,Jits_Linear_8,1,5,63,98,619235628
16,7,18,Jits_Linear_8,2,5,80,127,619239140
16,7,18,Jits_Linear_8,3,5,56,103,619296072
16,7,18,Jits_Linear_8,0,1,48,19,619900008
16,7,18,Jits_Linear_8,1,5,80,127,619955468
16,7,18,Jits_Linear_8,2,5,56,103,619976068
16,7,18,Jits_Linear_8,3,5,63,98,619986396
16,7,18,Jits_Linear_8,0,5,56,103,620546448
16,7,18,Jits_Linear_8,1,5,63,98,620555584
16,7,18,Jits_Linear_8,2,1,48,20,620618676
16,7,18,Jits_Linear_8,3,5,80,127,620626336
16,7,18,Jits_Linear_8,4,1,38,8,620629152
16,7,18,Jits_Linear_8,0,5,80,127,621226368
16,7,18,Jits_Linear_8,1,5,56,103,621275544
16,7,18,Jits_Linear_8,2,1,48,24,621282540
16,7,18,Jits_Linear_8,3,5,63,98,621325728
16,7,18,Jits_Linear_8,0,1,48,16,621930932
16,7,18,Jits_Linear_8,1,5,56,103,621986092
16,7,18,Jits_Linear_8,2,5,63,98,621996572
16,7,18,Jits_Linear_8,3,5,80,127,622036304
16,7,18,Jits_Linear_8,0,5,56,103,622605948
16,7,18,Jits_Linear_8,1,1,48,24,622644160
16,7,18,Jits_Linear_8,2,5,63,98,622646040
16,7,18,Jits_Linear_8,3,5,80,127,622695932
16,7,18,Jits_Linear_8,0,5,80,127,623245972
16,7,18,Jits_Linear_8,1,5,56,103,623295944
16,7,18,Jits_Linear_8,2,1,48,33,623310744
16,7,18,Jits_Linear_8,3,5,63,98,623316460
16,7,18,Jits_Linear_8,0,5,80,127,623925740
16,7,18,Jits_Linear_8,1,1,48,23,623965364
16,7,18,Jits_Linear_8,2,5,63,98,623986104
16,7,18,Jits_Linear_8,3,5,56,103,624065824
16,7,18,Jits_Linear_8,0,5,80,127,624575836
16,7,18,Jits_Linear_8,1,5,56,103,624615812
16,7,18,Jits_Linear_8,2,5,63,98,624636384
16,7,18,Jits_Linear_8,3,1,48,24,624658420
16,7,18,Jits_Linear_8,0,1,48,32,625272536
16,7,18,Jits_Linear_8,1,5,56,103,625295836
16,7,18,Jits_Linear_8,2,5,80,127,625305944
16,7,18,Jits_Linear_8,3,5,63,98,625346036
16,7,18,Jits_Linear_8,0,1,48,19,625966272
16,7,18,Jits_Linear_8,1,5,56,103,626025836
16,7,18,Jits_Linear_8,2,5,63,98,626065916
16,7,18,Jits_Linear_8,3,5,80,127,626069272
16,7,18,Jits_Linear_8,0,5,63,98,626575724
16,7,18,Jits_Linear_8,1,5,80,127,626615744
16,7,18,Jits_Linear_8,2,5,56,103,626686304
16,7,18,Jits_Linear_8,3,1,48,22,626704688
16,7,18,Jits_Linear_8,0,5,63,98,627225856
16,7,18,Jits_Linear_8,1,1,48,20,627276540
16,7,18,Jits_Linear_8,2,5,56,103,627305812
16,7,18,Jits_Linear_8,3,5,80,127,627366252
16,7,18,Jits_Linear_8,0,1,48,21,627879216
16,7,18,Jits_Linear_8,1,5,80,127,627895852
16,7,18,Jits_Linear_8,2,5,63,98,627945924
16,7,18,Jits_Linear_8,3,5,56,103,627975684
16,7,18,Jits_Linear_8,0,1,48,13,628532032
16,7,18,Jits_Linear_8,1,1,48,25,628536512
16,7,18,Jits_Linear_8,2,1,38,9,628544820
16,7,18,Jits_Linear_8,3,5,56,103,628547356
16,7,18,Jits_Linear_8,4,5,63,98,628596212
16,7,18,Jits_Linear_8,5,5,80,127,628606464
16,7,18,Jits_Linear_8,0,1,48,13,629193668
16,7,18,Jits_Linear_8,1,1,48,24,629198148
16,7,18,Jits_Linear_8,2,1,38,9,629206436
16,7,18,Jits_Linear_8,3,5,56,103,629215732
16,7,18,Jits_Linear_8,4,5,63,98,629326168
16,7,18,Jits_Linear_8,5,5,80,127,629345696
16,7,18,Jits_Linear_8,0,5,63,98,629865956
16,7,18,Jits_Linear_8,1,5,80,127,629916000
16,7,18,Jits_Linear_8,2,1,48,14,629977852
16,7,18,Jits_Linear_8,3,5,56,103,630006004
16,7,18,Jits_Linear_8,0,5,63,98,630505768
16,7,18,Jits_Linear_8,1,5,80,127,630535472
16,7,18,Jits_Linear_8,2,5,56,103,630625604
16,7,18,Jits_Linear_8,3,1,48,26,630631328
16,7,18,Jits_Linear_8,0,5,63,98,631155952
16,7,18,Jits_Linear_8,1,5,56,103,631166504
16,7,18,Jits_Linear_8,2,1,48,22,631219800
16,7,18,Jits_Linear_8,3,5,80,127,631265704
16,7,18,Jits_Linear_8,0,1,48,21,631791904
16,7,18,Jits_Linear_8,1,1,38,9,631801752
16,7,18,Jits_Linear_8,2,5,63,98,631905568
16,7,18,Jits_Linear_8,3,5,80,127,631936464
16,7,18,Jits_Linear_8,4,5,56,103,631966016
16,7,18,Jits_Linear_8,0,1,48,22,632504284
16,7,18,Jits_Linear_8,1,5,80,127,632566116
16,7,18,Jits_Linear_8,2,5,63,98,632576520
16,7,18,Jits_Linear_8,3,5,56,103,632605984
16,7,18,Jits_Linear_8,0,5,80,127,633105768
16,7,18,Jits_Linear_8,1,5,63,98,633126416
16,7,18,Jits_Linear_8,2,5,56,103,633176460
16,7,18,Jits_Linear_8,3,1,48,19,633241720
16,7,18,Jits_Linear_8,0,5,63,98,633775412
16,7,18,Jits_Linear_8,1,1,48,26,633788020
16,7,18,Jits_Linear_8,2,5,80,127,633835796
16,7,18,Jits_Linear_8,3,5,56,103,633856440
16,7,18,Jits_Linear_8,0,5,63,98,634375504
16,7,18,Jits_Linear_8,1,1,48,25,634422592
16,7,18,Jits_Linear_8,2,5,56,103,634425768
16,7,18,Jits_Linear_8,3,5,80,127,634436024
16,7,18,Jits_Linear_8,0,1,48,33,635032228
16,7,18,Jits_Linear_8,1,5,56,103,635046472
16,7,18,Jits_Linear_8,2,5,80,127,635055460
16,7,18,Jits_Linear_8,3,5,63,98,635155844
16,7,18,Jits_Linear_8,0,5,80,127,635646504
16,7,18,Jits_Linear_8,1,5,63,98,635655564
16,7,18,Jits_Linear_8,2,1,48,27,635750288
16,7,18,Jits_Linear_8,3,5,56,103,635806044
16,7,18,Jits_Linear_8,0,5,63,98,636286456
16,7,18,Jits_Linear_8,1,5,80,127,636326404
16,7,18,Jits_Linear_8,2,1,48,23,636367616
16,7,18,Jits_Linear_8,3,5,56,103,636406308
16,7,18,Jits_Linear_8,0,5,56,103,636905852
16,7,18,Jits_Linear_8,1,1,48,21,636955492
16,7,18,Jits_Linear_8,2,1,38,8,636965348
16,7,18,Jits_Linear_8,3,5,80,127,637006356
16,7,18,Jits_Linear_8,4,5,63,98,637025516
16,7,18,Jits_Linear_8,0,1,48,23,637578256
16,7,18,Jits_Linear_8,1,1,38,8,637588180
16,7,18,Jits_Linear_8,2,5,80,127,637595988
16,7,18,Jits_Linear_8,3,5,56,103,637606244
16,7,18,Jits_Linear_8,4,5,63,98,637696356
16,7,18,Jits_Linear_8,0,5,56,103,638225752
16,7,18,Jits_Linear_8,1,5,63,98,638246328
16,7,18,Jits_Linear_8,2,1,48,25,638265532
16,7,18,Jits_Linear_8,3,1,38,9,638275456
16,7,18,Jits_Linear_8,4,5,80,127,638326260
16,7,18,Jits_Linear_8,0,5,63,98,638796392
16,7,18,Jits_Linear_8,1,1,48,19,638885616
16,7,18,Jits_Linear_8,2,5,56,103,638887432
16,7,18,Jits_Linear_8,3,5,80,127,638890176
16,7,18,Jits_Linear_8,4,1,38,8,638895324
16,7,18,Jits_Linear_8,0,5,56,103,639446328
16,7,18,Jits_Linear_8,1,1,48,17,639459092
16,7,18,Jits_Linear_8,2,5,80,127,639505868
16,7,18,Jits_Linear_8,3,5,63,98,639516120
16,7,18,Jits_Linear_8,0,1,48,23,640057608
16,7,18,Jits_Linear_8,1,5,80,127,640116200
16,7,18,Jits_Linear_8,2,5,56,103,640126304
16,7,18,Jits_Linear_8,3,5,63,98,640129588
16,7,18,Jits_Linear_8,0,5,56,103,640695552
16,7,18,Jits_Linear_8,1,5,80,127,640706124
16,7,18,Jits_Linear_8,2,1,48,38,640725124
16,7,18,Jits_Linear_8,3,5,63,98,640726916
16,7,18,Jits_Linear_8,0,5,63,98,641285412
16,7,18,Jits_Linear_8,1,1,48,25,641314408
16,7,18,Jits_Linear_8,2,5,80,127,641346140
16,7,18,Jits_Linear_8,3,5,56,103,641396112
16,7,18,Jits_Linear_8,0,1,48,38,641914248
16,7,18,Jits_Linear_8,1,5,63,98,641986172
16,7,18,Jits_Linear_8,2,5,56,103,641996352
16,7,18,Jits_Linear_8,3,5,80,127,642046384
16,7,18,Jits_Linear_8,0,5,63,98,642496104
16,7,18,Jits_Linear_8,1,5,80,127,642516456
16,7,18,Jits_Linear_8,2,5,56,103,642525516
16,7,18,Jits_Linear_8,3,1,48,33,642599896
16,7,18,Jits_Linear_8,0,5,63,98,643106188
16,7,18,Jits_Linear_8,1,5,80,127,643109544
16,7,18,Jits_Linear_8,2,1,48,40,643110508
16,7,18,Jits_Linear_8,3,5,56,103,643146132
16,7,18,Jits_Linear_8,0,1,48,22,643677272
16,7,18,Jits_Linear_8,1,5,63,98,643786136
16,7,18,Jits_Linear_8,2,5,80,127,643816060
16,7,18,Jits_Linear_8,3,5,56,103,643826088
16,7,18,Jits_Linear_8,0,1,48,28,644346064
16,7,18,Jits_Linear_8,1,5,56,103,644347772
16,7,18,Jits_Linear_8,2,5,80,127,644375984
16,7,18,Jits_Linear_8,3,5,63,98,644405832
16,7,18,Jits_Linear_8,0,1,48,35,644965928
16,7,18,Jits_Linear_8,1,5,63,98,645045984
16,7,18,Jits_Linear_8,2,5,56,103,645085496
16,7,18,Jits_Linear_8,3,5,80,127,645088556
16,7,18,Jits_Linear_8,0,5,80,127,645546280
16,7,18,Jits_Linear_8,1,5,56,103,645626192
16,7,18,Jits_Linear_8,2,1,48,21,645649796
16,7,18,Jits_Linear_8,3,5,63,98,645676380
16,7,18,Jits_Linear_8,0,5,80,127,646125900
16,7,18,Jits_Linear_8,1,5,56,103,646146548
16,7,18,Jits_Linear_8,2,5,63,98,646235560
16,7,18,Jits_Linear_8,3,1,48,20,646284304
16,7,18,Jits_Linear_8,0,5,80,127,646765852
16,7,18,Jits_Linear_8,1,5,63,98,646805800
16,7,18,Jits_Linear_8,2,1,48,20,646807060
16,7,18,Jits_Linear_8,3,5,56,103,646845888
16,7,18,Jits_Linear_8,0,5,63,98,647336172
16,7,18,Jits_Linear_8,1,5,80,127,647395816
16,7,18,Jits_Linear_8,2,5,56,103,647426856
16,7,18,Jits_Linear_8,3,1,48,21,647445912
16,7,18,Jits_Linear_8,0,5,56,103,647936488
16,7,18,Jits_Linear_8,1,5,80,127,647966044
16,7,18,Jits_Linear_8,2,1,48,22,647980224
16,7,18,Jits_Linear_8,3,1,38,8,647990000
16,7,18,Jits_Linear_8,4,5,63,98,648056148
16,7,18,Jits_Linear_8,0,5,56,103,648536296
16,7,18,Jits_Linear_8,1,1,48,13,648578000
16,7,18,Jits_Linear_8,2,1,48,21,648582388
16,7,18,Jits_Linear_8,3,1,38,8,648591420
16,7,18,Jits_Linear_8,4,5,80,127,648646076
16,7,18,Jits_Linear_8,5,5,63,98,648675776
16,7,18,Jits_Linear_8,0,5,56,103,649176416
16,7,18,Jits_Linear_8,1,5,63,98,649235736
16,7,18,Jits_Linear_8,2,5,80,127,649265512
16,7,18,Jits_Linear_8,0,5,56,103,649735700
16,7,18,Jits_Linear_8,1,1,48,25,649761096
16,7,18,Jits_Linear_8,2,5,63,98,649806156
16,7,18,Jits_Linear_8,3,5,80,127,649825836
16,7,18,Jits_Linear_8,0,5,80,127,650295772
16,7,18,Jits_Linear_8,1,5,63,98,650316052
16,7,18,Jits_Linear_8,2,5,56,103,650366244
16,7,18,Jits_Linear_8,3,1,48,26,650387304
16,7,18,Jits_Linear_8,0,5,63,98,650895708
16,7,18,Jits_Linear_8,1,5,80,127,650905964
16,7,18,Jits_Linear_8,2,1,48,22,650907148
16,7,18,Jits_Linear_8,3,5,56,103,650956172
16,7,18,Jits_Linear_8,0,1,48,24,651447724
16,7,18,Jits_Linear_8,1,5,63,98,651476276
16,7,18,Jits_Linear_8,2,5,80,127,651546124
16,7,18,Jits_Linear_8,3,5,56,103,651565504
16,7,18,Jits_Linear_8,0,1,48,23,652069064
16,7,18,Jits_Linear_8,1,5,63,98,652085620
16,7,18,Jits_Linear_8,2,5,80,127,652088980
16,7,18,Jits_Linear_8,3,5,56,103,652156532
16,7,18,Jits_Linear_8,0,5,80,127,652615988
16,7,18,Jits_Linear_8,1,1,48,26,652625240
16,7,18,Jits_Linear_8,2,5,56,103,652635584
16,7,18,Jits_Linear_8,3,5,63,98,652645840
16,7,18,Jits_Linear_8,0,1,48,22,653210720
16,7,18,Jits_Linear_8,1,5,56,103,653216064
16,7,18,Jits_Linear_8,2,5,63,98,653306220
16,7,18,Jits_Linear_8,3,5,80,127,653310460
16,7,18,Jits_Linear_8,0,5,80,127,653765976
16,7,18,Jits_Linear_8,1,5,56,103,653776524
16,7,18,Jits_Linear_8,2,5,63,98,653795608
16,7,18,Jits_Linear_8,3,1,48,26,653837016
16,7,18,Jits_Linear_8,0,1,48,21,654335760
16,7,18,Jits_Linear_8,1,5,63,98,654337548
16,7,18,Jits_Linear_8,2,5,80,127,654395824
16,7,18,Jits_Linear_8,3,5,56,103,654406076
16,7,18,Jits_Linear_8,0,1,48,18,654927352
16,7,18,Jits_Linear_8,1,5,63,98,654976520
16,7,18,Jits_Linear_8,2,5,80,127,655005924
16,7,18,Jits_Linear_8,3,5,56,103,655045956
16,7,18,Jits_Linear_8,0,5,56,103,655535400
16,7,18,Jits_Linear_8,1,5,80,127,655545804
16,7,18,Jits_Linear_8,2,1,48,19,655558216
16,7,18,Jits_Linear_8,3,5,63,98,655585768
16,7,18,Jits_Linear_8,0,5,80,127,656065876
16,7,18,Jits_Linear_8,1,1,48,20,656116040
16,7,18,Jits_Linear_8,2,5,56,103,656145684
16,7,18,Jits_Linear_8,3,5,63,98,656156232
16,7,18,Jits_Linear_8,0,5,80,127,656676208
16,7,18,Jits_Linear_8,1,1,48,23,656685168
16,7,18,Jits_Linear_8,2,5,56,103,656756168
16,7,18,Jits_Linear_8,3,5,63,98,656766420
16,7,18,Jits_Linear_8,0,5,80,127,657196496
16,7,18,Jits_Linear_8,1,5,56,103,657245572
16,7,18,Jits_Linear_8,2,1,48,21,657288400
16,7,18,Jits_Linear_8,3,5,63,98,657295680
16,7,18,Jits_Linear_8,0,5,56,103,657815884
16,7,18,Jits_Linear_8,1,5,63,98,657819020
16,7,18,Jits_Linear_8,2,1,48,21,657834024
16,7,18,Jits_Linear_8,3,5,80,127,657866244
16,7,18,Jits_Linear_8,0,1,48,19,658368088
16,7,18,Jits_Linear_8,1,5,56,103,658395496
16,7,18,Jits_Linear_8,2,5,63,98,658426464
16,7,18,Jits_Linear_8,3,5,80,127,658435380
16,7,18,Jits_Linear_8,0,5,63,98,658865560
16,7,18,Jits_Linear_8,1,1,48,23,658927040
16,7,18,Jits_Linear_8,2,5,56,103,658936192
16,7,18,Jits_Linear_8,3,5,80,127,658986384
16,7,18,Jits_Linear_8,0,1,48,21,659407584
16,7,18,Jits_Linear_8,1,5,63,98,659456232
16,7,18,Jits_Linear_8,2,5,56,103,659465588
16,7,18,Jits_Linear_8,3,5,80,127,659468504
16,7,18,Jits_Linear_8,0,1,48,23,659944604
16,7,18,Jits_Linear_8,1,5,80,127,659956292
16,7,18,Jits_Linear_8,2,5,56,103,660015536
16,7,18,Jits_Linear_8,3,5,63,98,660105580
16,7,18,Jits_Linear_8,0,5,80,127,660506112
16,7,18,Jits_Linear_8,1,5,56,103,660606420
16,7,18,Jits_Linear_8,2,1,48,21,660616348
16,7,18,Jits_Linear_8,3,5,63,98,660646360
16,7,18,Jits_Linear_8,0,5,56,103,661106128
16,7,18,Jits_Linear_8,1,5,63,98,661125436
16,7,18,Jits_Linear_8,2,1,48,23,661129596
16,7,18,Jits_Linear_8,3,5,80,127,661165376
16,7,18,Jits_Linear_8,0,5,63,98,661626332
16,7,18,Jits_Linear_8,1,1,48,22,661631016
16,7,18,Jits_Linear_8,2,5,56,103,661645780
16,7,18,Jits_Linear_8,3,5,80,127,661746096
16,7,18,Jits_Linear_8,0,5,63,98,662155580
16,7,18,Jits_Linear_8,1,1,48,20,662190328
16,7,18,Jits_Linear_8,2,5,80,127,662266152
16,7,18,Jits_Linear_8,3,5,56,103,662296136
16,7,18,Jits_Linear_8,0,5,56,103,662715644
16,7,18,Jits_Linear_8,1,5,63,98,662745372
16,7,18,Jits_Linear_8,2,1,48,21,662762692
16,7,18,Jits_Linear_8,3,5,80,127,662795560
16,7,18,Jits_Linear_8,0,5,63,98,663225752
16,7,18,Jits_Linear_8,1,5,56,103,663256376
16,7,18,Jits_Linear_8,2,1,48,20,663295396
16,7,18,Jits_Linear_8,3,5,80,127,663305520
16,7,18,Jits_Linear_8,0,5,56,103,663796156
16,7,18,Jits_Linear_8,1,5,63,98,663815388
16,7,18,Jits_Linear_8,2,1,48,18,663820140
16,7,18,Jits_Linear_8,3,5,80,127,663896384
16,7,18,Jits_Linear_8,0,5,63,98,664305968
16,7,18,Jits_Linear_8,1,1,48,24,664352676
16,7,18,Jits_Linear_8,2,5,56,103,664365432
16,7,18,Jits_Linear_8,3,5,80,127,664396104
16,7,18,Jits_Linear_8,0,1,48,20,664854324
16,7,18,Jits_Linear_8,1,5,56,103,664885540
16,7,18,Jits_Linear_8,2,5,80,127,664946132
16,7,18,Jits_Linear_8,3,5,63,98,664986136
16,7,18,Jits_Linear_8,0,5,63,98,665395424
16,7,18,Jits_Linear_8,1,1,48,25,665455112
16,7,18,Jits_Linear_8,2,5,56,103,665456976
16,7,18,Jits_Linear_8,3,5,80,127,665525572
16,7,18,Jits_Linear_8,0,1,48,25,665965552
16,7,18,Jits_Linear_8,1,5,56,103,666006044
16,7,18,Jits_Linear_8,2,5,63,98,666016072
16,7,18,Jits_Linear_8,3,5,80,127,666019652
16,7,18,Jits_Linear_8,0,5,63,98,666475824
16,7,18,Jits_Linear_8,1,1,48,23,666531892
16,7,18,Jits_Linear_8,2,5,56,103,666536180
16,7,18,Jits_Linear_8,3,5,80,127,666539392
16,7,18,Jits_Linear_8,0,5,63,98,666986060
16,7,18,Jits_Linear_8,1,5,80,127,667015468
16,7,18,Jits_Linear_8,2,5,56,103,667035968
16,7,18,Jits_Linear_8,3,1,48,21,667076128
16,7,18,Jits_Linear_8,0,5,56,103,667516276
16,7,18,Jits_Linear_8,1,5,63,98,667565352
16,7,18,Jits_Linear_8,2,1,48,25,667567584
16,7,18,Jits_Linear_8,3,5,80,127,667646300
16,7,18,Jits_Linear_8,0,5,80,127,668015920
16,7,18,Jits_Linear_8,1,5,63,98,668055796
16,7,18,Jits_Linear_8,2,5,56,103,668076516
16,7,18,Jits_Linear_8,3,1,48,24,668079028
16,7,18,Jits_Linear_8,0,1,48,21,668572572
16,7,18,Jits_Linear_8,1,5,56,103,668605896
16,7,18,Jits_Linear_8,2,5,80,127,668616028
16,7,18,Jits_Linear_8,3,5,63,98,668635628
16,7,18,Jits_Linear_8,0,5,56,103,669105680
16,7,18,Jits_Linear_8,1,1,48,18,669127744
16,7,18,Jits_Linear_8,2,5,63,98,669155892
16,7,18,Jits_Linear_8,3,5,80,127,669186264
16,7,18,Jits_Linear_8,0,5,56,103,669575628
16,7,18,Jits_Linear_8,1,5,63,98,669585732
16,7,18,Jits_Linear_8,2,1,48,23,669626844
16,7,18,Jits_Linear_8,3,5,80,127,669635868
16,7,18,Jits_Linear_8,0,5,56,103,670085656
16,7,18,Jits_Linear_8,1,5,80,127,670088644
16,7,18,Jits_Linear_8,2,1,48,22,670128560
16,7,18,Jits_Linear_8,3,5,63,98,670246320
16,7,18,Jits_Linear_8,0,5,63,98,670615880
16,7,18,Jits_Linear_8,1,1,48,27,670660452
16,7,18,Jits_Linear_8,2,5,56,103,670685988
16,7,18,Jits_Linear_8,3,5,80,127,670725636
16,7,18,Jits_Linear_8,0,1,48,20,671118692
16,7,18,Jits_Linear_8,1,5,63,98,671165692
16,7,18,Jits_Linear_8,2,5,56,103,671255960
16,7,18,Jits_Linear_8,3,5,80,127,671259020
16,7,18,Jits_Linear_8,0,5,56,103,671656172
16,7,18,Jits_Linear_8,1,1,48,29,671659360
16,7,18,Jits_Linear_8,2,5,63,98,671746624
16,7,18,Jits_Linear_8,3,5,80,127,671755608
16,7,18,Jits_Linear_8,0,5,56,103,672135696
16,7,18,Jits_Linear_8,1,5,63,98,672185744
16,7,18,Jits_Linear_8,2,5,80,127,672216512
16,7,18,Jits_Linear_8,3,1,48,22,672217996
16,7,18,Jits_Linear_8,0,5,63,98,672716140
16,7,18,Jits_Linear_8,1,5,80,127,672726616
16,7,18,Jits_Linear_8,2,1,48,23,672735724
16,7,18,Jits_Linear_8,3,5,56,103,672785780
16,7,18,Jits_Linear_8,0,5,63,98,673135860
16,7,18,Jits_Linear_8,1,5,80,127,673196520
16,7,18,Jits_Linear_8,2,5,56,103,673236420
16,7,18,Jits_Linear_8,3,1,48,34,673250524
16,7,18,Jits_Linear_8,0,5,56,103,673736184
16,7,18,Jits_Linear_8,1,1,48,30,673748648
16,7,18,Jits_Linear_8,2,5,80,127,673755560
16,7,18,Jits_Linear_8,3,5,63,98,673775836
16,7,18,Jits_Linear_8,0,5,63,98,674155848
16,7,18,Jits_Linear_8,1,5,56,103,674176496
16,7,18,Jits_Linear_8,2,5,80,127,674216440
16,7,18,Jits_Linear_8,3,1,48,31,674265656
16,7,18,Jits_Linear_8,0,5,63,98,674665792
16,7,18,Jits_Linear_8,1,5,80,127,674695568
16,7,18,Jits_Linear_8,2,5,56,103,674716068
16,7,18,Jits_Linear_8,3,1,48,32,674761984
16,7,18,Jits_Linear_8,0,5,80,127,675135724
16,7,18,Jits_Linear_8,1,5,56,103,675186068
16,7,18,Jits_Linear_8,2,1,48,27,675236528
16,7,18,Jits_Linear_8,3,5,63,98,675245452
16,7,18,Jits_Linear_8,0,5,63,98,675616064
16,7,18,Jits_Linear_8,1,1,48,29,675695548
16,7,18,Jits_Linear_8,2,5,56,103,675735888
16,7,18,Jits_Linear_8,3,5,80,127,675765588
16,7,18,Jits_Linear_8,0,5,80,127,676145464
16,7,18,Jits_Linear_8,1,5,63,98,676166040
16,7,18,Jits_Linear_8,2,1,48,35,676179916
16,7,18,Jits_Linear_8,3,5,56,103,676235672
16,7,18,Jits_Linear_8,0,5,63,98,676655576
16,7,18,Jits_Linear_8,1,5,56,103,676665756
16,7,18,Jits_Linear_8,2,1,48,30,676681276
16,7,18,Jits_Linear_8,3,5,80,127,676745708
16,7,18,Jits_Linear_8,0,1,48,34,677139236
16,7,18,Jits_Linear_8,1,5,56,103,677206360
16,7,18,Jits_Linear_8,2,5,80,127,677236048
16,7,18,Jits_Linear_8,3,5,63,98,677246300
16,7,18,Jits_Linear_8,0,9999,9999,9999,566803564
16,7,18,Jits_Linear_8,1,9999,9999,9999,567623776
16,7,18,Jits_Linear_8,2,9999,9999,9999,568444004
16,7,18,Jits_Linear_8,3,9999,9999,9999,569263192
16,7,18,Jits_Linear_8,4,9999,9999,9999,570083440
16,7,18,Jits_Linear_8,5,9999,9999,9999,570893408
16,7,18,Jits_Linear_8,6,9999,9999,9999,571703396
16,7,18,Jits_Linear_8,7,9999,9999,9999,572513388
16,7,18,Jits_Linear_8,8,9999,9999,9999,573323360
16,7,18,Jits_Linear_8,9,9999,9999,9999,574133316
16,7,18,Jits_Linear_8,10,9999,9999,9999,574934116
16,7,18,Jits_Linear_8,11,9999,9999,9999,575744084
16,7,18,Jits_Linear_8,12,9999,9999,9999,576554064
16,7,18,Jits_Linear_8,13,9999,9999,9999,577353852
16,7,18,Jits_Linear_8,14,9999,9999,9999,578153560
16,7,18,Jits_Linear_8,15,9999,9999,9999,578944076
16,7,18,Jits_Linear_8,16,9999,9999,9999,579743852
16,7,18,Jits_Linear_8,17,9999,9999,9999,580533344
16,7,18,Jits_Linear_8,18,9999,9999,9999,581323892
16,7,18,Jits_Linear_8,19,9999,9999,9999,582113372
16,7,18,Jits_Linear_8,20,9999,9999,9999,582893644
16,7,18,Jits_Linear_8,21,9999,9999,9999,583673916
16,7,18,Jits_Linear_8,22,9999,9999,9999,584453228
16,7,18,Jits_Linear_8,23,9999,9999,9999,585233500
16,7,18,Jits_Linear_8,24,9999,9999,9999,586013768
16,7,18,Jits_Linear_8,25,9999,9999,9999,586783796
16,7,18,Jits_Linear_8,26,9999,9999,9999,587553904
16,7,18,Jits_Linear_8,27,9999,9999,9999,588323932
16,7,18,Jits_Linear_8,28,9999,9999,9999,589093976
16,7,18,Jits_Linear_8,29,9999,9999,9999,589864024
16,7,18,Jits_Linear_8,30,9999,9999,9999,590623804
16,7,18,Jits_Linear_8,31,9999,9999,9999,591383660
16,7,18,Jits_Linear_8,32,9999,9999,9999,592143440
16,7,18,Jits_Linear_8,33,9999,9999,9999,592903228
16,7,18,Jits_Linear_8,34,9999,9999,9999,593664068
16,7,18,Jits_Linear_8,35,9999,9999,9999,594423932
16,7,18,Jits_Linear_8,36,9999,9999,9999,595173472
16,7,18,Jits_Linear_8,37,9999,9999,9999,595924052
16,7,18,Jits_Linear_8,38,9999,9999,9999,596673648
16,7,18,Jits_Linear_8,39,9999,9999,9999,597423196
16,7,18,Jits_Linear_8,40,9999,9999,9999,598163532
16,7,18,Jits_Linear_8,41,9999,9999,9999,598903880
16,7,18,Jits_Linear_8,42,9999,9999,9999,599643244
16,7,18,Jits_Linear_8,43,9999,9999,9999,600383580
16,7,18,Jits_Linear_8,44,9999,9999,9999,601123900
16,7,18,Jits_Linear_8,45,9999,9999,9999,601854068
16,7,18,Jits_Linear_8,46,9999,9999,9999,602583112
16,7,18,Jits_Linear_8,47,9999,9999,9999,603313256
16,7,18,Jits_Linear_8,48,9999,9999,9999,604043364
16,7,18,Jits_Linear_8,49,9999,9999,9999,604773448
16,7,18,Jits_Linear_8,50,9999,9999,9999,605493364
16,7,18,Jits_Linear_8,51,9999,9999,9999,606213204
16,7,18,Jits_Linear_8,52,9999,9999,9999,606934100
16,7,18,Jits_Linear_8,53,9999,9999,9999,607663212
16,7,18,Jits_Linear_8,54,9999,9999,9999,608384096
16,7,18,Jits_Linear_8,55,9999,9999,9999,609103956
16,7,18,Jits_Linear_8,56,9999,9999,9999,609813620
16,7,18,Jits_Linear_8,57,9999,9999,9999,610523232
16,7,18,Jits_Linear_8,58,9999,9999,9999,611233864
16,7,18,Jits_Linear_8,59,9999,9999,9999,611943532
16,7,18,Jits_Linear_8,60,9999,9999,9999,612643940
16,7,18,Jits_Linear_8,61,9999,9999,9999,613343312
16,7,18,Jits_Linear_8,62,9999,9999,9999,614043772
16,7,18,Jits_Linear_8,63,9999,9999,9999,614743116
16,7,18,Jits_Linear_8,64,9999,9999,9999,615443564
16,7,18,Jits_Linear_8,65,9999,9999,9999,616133732
16,7,18,Jits_Linear_8,66,9999,9999,9999,616823892
16,7,18,Jits_Linear_8,67,9999,9999,9999,617514064
16,7,18,Jits_Linear_8,68,9999,9999,9999,618203260
16,7,18,Jits_Linear_8,69,9999,9999,9999,618893388
16,7,18,Jits_Linear_8,70,9999,9999,9999,619573304
16,7,18,Jits_Linear_8,71,9999,9999,9999,620253292
16,7,18,Jits_Linear_8,72,9999,9999,9999,620933208
16,7,18,Jits_Linear_8,73,9999,9999,9999,621613116
16,7,18,Jits_Linear_8,74,9999,9999,9999,622294088
16,7,18,Jits_Linear_8,75,9999,9999,9999,622974044
16,7,18,Jits_Linear_8,76,9999,9999,9999,623643712
16,7,18,Jits_Linear_8,77,9999,9999,9999,624313412
16,7,18,Jits_Linear_8,78,9999,9999,9999,624983148
16,7,18,Jits_Linear_8,79,9999,9999,9999,625653840
16,7,18,Jits_Linear_8,80,9999,9999,9999,626313304
16,7,18,Jits_Linear_8,81,9999,9999,9999,626973760
16,7,18,Jits_Linear_8,82,9999,9999,9999,627633220
16,7,18,Jits_Linear_8,83,9999,9999,9999,628293744
16,7,18,Jits_Linear_8,84,9999,9999,9999,628953156
16,7,18,Jits_Linear_8,85,9999,9999,9999,629603408
16,7,18,Jits_Linear_8,86,9999,9999,9999,630253676
16,7,18,Jits_Linear_8,87,9999,9999,9999,630903932
16,7,18,Jits_Linear_8,88,9999,9999,9999,631553092
16,7,18,Jits_Linear_8,89,9999,9999,9999,632203384
16,7,18,Jits_Linear_8,90,9999,9999,9999,632843348
16,7,18,Jits_Linear_8,91,9999,9999,9999,633483356
16,7,18,Jits_Linear_8,92,9999,9999,9999,634123336
16,7,18,Jits_Linear_8,93,9999,9999,9999,634763344
16,7,18,Jits_Linear_8,94,9999,9999,9999,635403384
16,7,18,Jits_Linear_8,95,9999,9999,9999,636033148
16,7,18,Jits_Linear_8,96,9999,9999,9999,636663928
16,7,18,Jits_Linear_8,97,9999,9999,9999,637293652
16,7,18,Jits_Linear_8,98,9999,9999,9999,637923404
16,7,18,Jits_Linear_8,99,9999,9999,9999,638553196
16,7,18,Jits_Linear_8,100,9999,9999,9999,639173748
16,7,18,Jits_Linear_8,101,9999,9999,9999,639793260
16,7,18,Jits_Linear_8,102,9999,9999,9999,640413764
16,7,18,Jits_Linear_8,103,9999,9999,9999,641033304
16,7,18,Jits_Linear_8,104,9999,9999,9999,641653880
16,7,18,Jits_Linear_8,105,9999,9999,9999,642263108
16,7,18,Jits_Linear_8,106,9999,9999,9999,642873472
16,7,18,Jits_Linear_8,107,9999,9999,9999,643483772
16,7,18,Jits_Linear_8,108,9999,9999,9999,644094044
16,7,18,Jits_Linear_8,109,9999,9999,9999,644703316
16,7,18,Jits_Linear_8,110,9999,9999,9999,645303392
16,7,18,Jits_Linear_8,111,9999,9999,9999,645903488
16,7,18,Jits_Linear_8,112,9999,9999,9999,646503492
16,7,18,Jits_Linear_8,113,9999,9999,9999,647103584
16,7,18,Jits_Linear_8,114,9999,9999,9999,647703620
16,7,18,Jits_Linear_8,115,9999,9999,9999,648293472
16,7,18,Jits_Linear_8,116,9999,9999,9999,648883312
16,7,18,Jits_Linear_8,117,9999,9999,9999,649473112
16,7,18,Jits_Linear_8,118,9999,9999,9999,650063936
16,7,18,Jits_Linear_8,119,9999,9999,9999,650653772
16,7,18,Jits_Linear_8,120,9999,9999,9999,651233388
16,7,18,Jits_Linear_8,121,9999,9999,9999,651814012
16,7,18,Jits_Linear_8,122,9999,9999,9999,652393584
16,7,18,Jits_Linear_8,123,9999,9999,9999,652973160
16,7,18,Jits_Linear_8,124,9999,9999,9999,653553748
16,7,18,Jits_Linear_8,125,9999,9999,9999,654123076
16,7,18,Jits_Linear_8,126,9999,9999,9999,654693464
16,7,18,Jits_Linear_8,127,9999,9999,9999,655263852
16,7,18,Jits_Linear_8,128,9999,9999,9999,655833140
16,7,18,Jits_Linear_8,129,9999,9999,9999,656403532
16,7,18,Jits_Linear_8,130,9999,9999,9999,656963688
16,7,18,Jits_Linear_8,131,9999,9999,9999,657523832
16,7,18,Jits_Linear_8,132,9999,9999,9999,658083904
16,7,18,Jits_Linear_8,133,9999,9999,9999,658644084
16,7,18,Jits_Linear_8,134,9999,9999,9999,659203172
16,7,18,Jits_Linear_8,135,9999,9999,9999,659754096
16,7,18,Jits_Linear_8,136,9999,9999,9999,660303984
16,7,18,Jits_Linear_8,137,9999,9999,9999,660853872
16,7,18,Jits_Linear_8,138,9999,9999,9999,661403772
16,7,18,Jits_Linear_8,139,9999,9999,9999,661953624
16,7,18,Jits_Linear_8,140,9999,9999,9999,662493272
16,7,18,Jits_Linear_8,141,9999,9999,9999,663033956
16,7,18,Jits_Linear_8,142,9999,9999,9999,663573608
16,7,18,Jits_Linear_8,143,9999,9999,9999,664113248
16,7,18,Jits_Linear_8,144,9999,9999,9999,664653944
16,7,18,Jits_Linear_8,145,9999,9999,9999,665183344
16,7,18,Jits_Linear_8,146,9999,9999,9999,665713788
16,7,18,Jits_Linear_8,147,9999,9999,9999,666243180
16,7,18,Jits_Linear_8,148,9999,9999,9999,666773612
16,7,18,Jits_Linear_8,149,9999,9999,9999,667304048
16,7,18,Jits_Linear_8,150,9999,9999,9999,667823200
16,7,18,Jits_Linear_8,151,9999,9999,9999,668343404
16,7,18,Jits_Linear_8,152,9999,9999,9999,668863560
16,7,18,Jits_Linear_8,153,9999,9999,9999,669383756
16,7,18,Jits_Linear_8,154,9999,9999,9999,669903956
16,7,18,Jits_Linear_8,155,9999,9999,9999,670413908
16,7,18,Jits_Linear_8,156,9999,9999,9999,670923876
16,7,18,Jits_Linear_8,157,9999,9999,9999,671433800
16,7,18,Jits_Linear_8,158,9999,9999,9999,671943748
16,7,18,Jits_Linear_8,159,9999,9999,9999,672453712
16,7,18,Jits_Linear_8,160,9999,9999,9999,672953408
16,7,18,Jits_Linear_8,161,9999,9999,9999,673453176
16,7,18,Jits_Linear_8,162,9999,9999,9999,673953856
16,7,18,Jits_Linear_8,163,9999,9999,9999,674453564
16,7,18,Jits_Linear_8,164,9999,9999,9999,674953340
16,7,18,Jits_Linear_8,165,9999,9999,9999,675443768
16,7,18,Jits_Linear_8,166,9999,9999,9999,675933240
16,7,18,Jits_Linear_8,167,9999,9999,9999,676423736
16,7,18,Jits_Linear_8,168,9999,9999,9999,676913208
16,7,18,Jits_Linear_8,169,9999,9999,9999,677403720
16,8,17,Jits_Phase_5,0,5,56,103,693768524
16,8,17,Jits_Phase_5,1,5,63,98,693771548
16,8,17,Jits_Phase_5,2,5,80,127,693774592
16,8,17,Jits_Phase_5,0,5,56,103,694269444
16,8,17,Jits_Phase_5,1,5,63,98,694272468
16,8,17,Jits_Phase_5,2,5,80,127,694275432
16,8,17,Jits_Phase_5,0,5,56,103,694768964
16,8,17,Jits_Phase_5,1,5,80,127,694779364
16,8,17,Jits_Phase_5,2,1,48,36,694782256
16,8,17,Jits_Phase_5,3,5,63,98,694798812
16,8,17,Jits_Phase_5,0,5,63,98,695218540
16,8,17,Jits_Phase_5,1,5,80,127,695249532
16,8,17,Jits_Phase_5,2,1,48,36,695256856
16,8,17,Jits_Phase_5,3,5,56,103,695258512
16,8,17,Jits_Phase_5,0,1,48,32,695699052
16,8,17,Jits_Phase_5,1,5,80,127,695778608
16,8,17,Jits_Phase_5,2,5,56,103,695788788
16,8,17,Jits_Phase_5,3,5,63,98,695818548
16,8,17,Jits_Phase_5,0,1,48,39,696232780
16,8,17,Jits_Phase_5,1,5,63,98,696269036
16,8,17,Jits_Phase_5,2,5,56,103,696298736
16,8,17,Jits_Phase_5,3,5,80,127,696309064
16,8,17,Jits_Phase_5,0,5,56,103,696718680
16,8,17,Jits_Phase_5,1,1,48,41,696723436
16,8,17,Jits_Phase_5,2,5,63,98,696768744
16,8,17,Jits_Phase_5,3,5,80,127,696789464
16,8,17,Jits_Phase_5,0,1,48,37,697188368
16,8,17,Jits_Phase_5,1,5,80,127,697218304
16,8,17,Jits_Phase_5,2,5,63,98,697268572
16,8,17,Jits_Phase_5,3,5,56,103,697308524
16,8,17,Jits_Phase_5,0,5,56,103,697719276
16,8,17,Jits_Phase_5,1,1,48,40,697745124
16,8,17,Jits_Phase_5,2,5,63,98,697748824
16,8,17,Jits_Phase_5,3,5,80,127,697818332
16,8,17,Jits_Phase_5,0,1,48,40,698216104
16,8,17,Jits_Phase_5,1,5,56,103,698218836
16,8,17,Jits_Phase_5,2,5,80,127,698279272
16,8,17,Jits_Phase_5,3,5,63,98,698309072
16,8,17,Jits_Phase_5,0,5,56,103,698728788
16,8,17,Jits_Phase_5,1,1,48,41,698736156
16,8,17,Jits_Phase_5,2,5,63,98,698739180
16,8,17,Jits_Phase_5,3,5,80,127,698778980
16,8,17,Jits_Phase_5,0,1,48,42,699212904
16,8,17,Jits_Phase_5,1,5,63,98,699219288
16,8,17,Jits_Phase_5,2,5,80,127,699299396
16,8,17,Jits_Phase_5,3,5,56,103,699309484
16,8,17,Jits_Phase_5,0,1,48,38,699751568
16,8,17,Jits_Phase_5,1,5,63,98,699769320
16,8,17,Jits_Phase_5,2,5,56,103,699809336
16,8,17,Jits_Phase_5,3,5,80,127,699812400
16,8,17,Jits_Phase_5,0,5,56,103,700228856
16,8,17,Jits_Phase_5,1,5,63,98,700239332
16,8,17,Jits_Phase_5,2,1,48,43,700274828
16,8,17,Jits_Phase_5,3,5,80,127,700279492
16,8,17,Jits_Phase_5,0,5,56,103,700718464
16,8,17,Jits_Phase_5,1,5,63,98,700721452
16,8,17,Jits_Phase_5,2,5,80,127,700738816
16,8,17,Jits_Phase_5,3,1,48,38,700751276
16,8,17,Jits_Phase_5,0,1,48,42,701192624
16,8,17,Jits_Phase_5,1,5,80,127,701229376
16,8,17,Jits_Phase_5,2,5,56,103,701238584
16,8,17,Jits_Phase_5,3,5,63,98,701309400
16,8,17,Jits_Phase_5,0,5,63,98,701718832
16,8,17,Jits_Phase_5,1,5,56,103,701739408
16,8,17,Jits_Phase_5,2,1,48,39,701752092
16,8,17,Jits_Phase_5,3,5,80,127,701819280
16,8,17,Jits_Phase_5,0,5,56,103,702228700
16,8,17,Jits_Phase_5,1,1,48,42,702236588
16,8,17,Jits_Phase_5,2,5,80,127,702268640
16,8,17,Jits_Phase_5,3,5,63,98,702278968
16,8,17,Jits_Phase_5,0,5,80,127,702719432
16,8,17,Jits_Phase_5,1,1,48,41,702731676
16,8,17,Jits_Phase_5,2,5,63,98,702749128
16,8,17,Jits_Phase_5,3,5,56,103,702789220
16,8,17,Jits_Phase_5,0,1,48,38,703228540
16,8,17,Jits_Phase_5,1,5,56,103,703238364
16,8,17,Jits_Phase_5,2,5,63,98,703269184
16,8,17,Jits_Phase_5,3,5,80,127,703319372
16,8,17,Jits_Phase_5,0,1,48,40,703722848
16,8,17,Jits_Phase_5,1,5,80,127,703739256
16,8,17,Jits_Phase_5,2,5,56,103,703779204
16,8,17,Jits_Phase_5,3,5,63,98,703789380
16,8,17,Jits_Phase_5,0,5,80,127,704218468
16,8,17,Jits_Phase_5,1,1,48,40,704227352
16,8,17,Jits_Phase_5,2,5,63,98,704258408
16,8,17,Jits_Phase_5,3,5,56,103,704318768
16,8,17,Jits_Phase_5,0,5,56,103,704719296
16,8,17,Jits_Phase_5,1,5,80,127,704728432
16,8,17,Jits_Phase_5,2,1,48,42,704751512
16,8,17,Jits_Phase_5,3,5,63,98,704809276
16,8,17,Jits_Phase_5,0,1,48,43,705209752
16,8,17,Jits_Phase_5,1,5,80,127,705218924
16,8,17,Jits_Phase_5,2,5,63,98,705279212
16,8,17,Jits_Phase_5,3,5,56,103,705309196
16,8,17,Jits_Phase_5,0,5,56,103,705718528
16,8,17,Jits_Phase_5,1,1,48,46,705737084
16,8,17,Jits_Phase_5,2,5,80,127,705778984
16,8,17,Jits_Phase_5,3,5,63,98,705818928
16,8,17,Jits_Phase_5,0,1,48,43,706230696
16,8,17,Jits_Phase_5,1,5,56,103,706268520
16,8,17,Jits_Phase_5,2,5,63,98,706278700
16,8,17,Jits_Phase_5,3,5,80,127,706282280
16,8,17,Jits_Phase_5,0,5,80,127,706719052
16,8,17,Jits_Phase_5,1,1,48,42,706741688
16,8,17,Jits_Phase_5,2,5,63,98,706809128
16,8,17,Jits_Phase_5,3,5,56,103,706818408
16,8,17,Jits_Phase_5,0,5,56,103,707219128
16,8,17,Jits_Phase_5,1,5,63,98,707222068
16,8,17,Jits_Phase_5,2,5,80,127,707225108
16,8,17,Jits_Phase_5,3,1,48,45,707263252
16,8,17,Jits_Phase_5,0,5,80,127,707739092
16,8,17,Jits_Phase_5,1,1,48,44,707740132
16,8,17,Jits_Phase_5,2,5,63,98,707789228
16,8,17,Jits_Phase_5,3,5,56,103,707818852
16,8,17,Jits_Phase_5,0,5,56,103,708219140
16,8,17,Jits_Phase_5,1,5,80,127,708228644
16,8,17,Jits_Phase_5,2,1,48,41,708248816
16,8,17,Jits_Phase_5,3,5,63,98,708299044
16,8,17,Jits_Phase_5,0,1,48,40,708726132
16,8,17,Jits_Phase_5,1,5,56,103,708729236
16,8,17,Jits_Phase_5,2,5,63,98,708748836
16,8,17,Jits_Phase_5,3,5,80,127,708809148
16,8,17,Jits_Phase_5,0,5,80,127,709208448
16,8,17,Jits_Phase_5,1,1,48,43,709243864
16,8,17,Jits_Phase_5,2,5,63,98,709278976
16,8,17,Jits_Phase_5,3,5,56,103,709298652
16,8,17,Jits_Phase_5,0,5,80,127,709728876
16,8,17,Jits_Phase_5,1,5,56,103,709738832
16,8,17,Jits_Phase_5,2,5,63,98,709749084
16,8,17,Jits_Phase_5,3,1,48,40,709769028
16,8,17,Jits_Phase_5,0,5,80,127,710219160
16,8,17,Jits_Phase_5,1,5,56,103,710238688
16,8,17,Jits_Phase_5,2,1,48,42,710246820
16,8,17,Jits_Phase_5,3,5,63,98,710309212
16,8,17,Jits_Phase_5,0,5,56,103,710729044
16,8,17,Jits_Phase_5,1,1,48,41,710734324
16,8,17,Jits_Phase_5,2,5,80,127,710759036
16,8,17,Jits_Phase_5,3,5,63,98,710779312
16,8,17,Jits_Phase_5,0,5,63,98,711218656
16,8,17,Jits_Phase_5,1,1,48,42,711222372
16,8,17,Jits_Phase_5,2,5,56,103,711278940
16,8,17,Jits_Phase_5,3,5,80,127,711308860
16,8,17,Jits_Phase_5,0,5,63,98,711709004
16,8,17,Jits_Phase_5,1,5,80,127,711712292
16,8,17,Jits_Phase_5,2,1,48,39,711731040
16,8,17,Jits_Phase_5,3,5,56,103,711799048
16,8,17,Jits_Phase_5,0,5,56,103,712229112
16,8,17,Jits_Phase_5,1,1,48,40,712250252
16,8,17,Jits_Phase_5,2,5,63,98,712258880
16,8,17,Jits_Phase_5,3,5,80,127,712298900
16,8,17,Jits_Phase_5,0,1,48,45,712725120
16,8,17,Jits_Phase_5,1,5,63,98,712728968
16,8,17,Jits_Phase_5,2,5,56,103,712768912
16,8,17,Jits_Phase_5,3,5,80,127,712789412
16,8,17,Jits_Phase_5,0,5,63,98,713238920
16,8,17,Jits_Phase_5,1,5,56,103,713278792
16,8,17,Jits_Phase_5,2,5,80,127,713289120
16,8,17,Jits_Phase_5,0,1,48,38,713712060
16,8,17,Jits_Phase_5,1,5,80,127,713719044
16,8,17,Jits_Phase_5,2,5,63,98,713788760
16,8,17,Jits_Phase_5,3,5,56,103,713809332
16,8,17,Jits_Phase_5,0,5,56,103,714208804
16,8,17,Jits_Phase_5,1,5,80,127,714229008
16,8,17,Jits_Phase_5,2,1,48,41,714245872
16,8,17,Jits_Phase_5,3,5,63,98,714269092
16,8,17,Jits_Phase_5,0,1,48,37,714714832
16,8,17,Jits_Phase_5,1,5,63,98,714718532
16,8,17,Jits_Phase_5,2,5,80,127,714739032
16,8,17,Jits_Phase_5,3,5,56,103,714778976
16,8,17,Jits_Phase_5,0,1,48,34,715209300
16,8,17,Jits_Phase_5,1,5,63,98,715219272
16,8,17,Jits_Phase_5,2,5,56,103,715238800
16,8,17,Jits_Phase_5,3,5,80,127,715249128
16,8,17,Jits_Phase_5,0,1,48,30,715696856
16,8,17,Jits_Phase_5,1,5,80,127,715718892
16,8,17,Jits_Phase_5,2,5,56,103,715738720
16,8,17,Jits_Phase_5,3,5,63,98,715769092
16,8,17,Jits_Phase_5,0,1,48,29,716158780
16,8,17,Jits_Phase_5,1,5,56,103,716289476
16,8,17,Jits_Phase_5,2,5,80,127,716292684
16,8,17,Jits_Phase_5,3,5,63,98,716308780
16,8,17,Jits_Phase_5,0,5,63,98,716709364
16,8,17,Jits_Phase_5,1,5,56,103,716738940
16,8,17,Jits_Phase_5,2,1,48,38,716771748
16,8,17,Jits_Phase_5,3,5,80,127,716799592
16,8,17,Jits_Phase_5,0,5,63,98,717288748
16,8,17,Jits_Phase_5,1,5,56,103,717298924
16,8,17,Jits_Phase_5,2,5,80,127,717309476
16,8,17,Jits_Phase_5,0,5,56,103,717748520
16,8,17,Jits_Phase_5,1,1,48,38,717762200
16,8,17,Jits_Phase_5,2,5,80,127,717779580
16,8,17,Jits_Phase_5,3,5,63,98,717788564
16,8,17,Jits_Phase_5,0,1,48,42,718248572
16,8,17,Jits_Phase_5,1,5,63,98,718289384
16,8,17,Jits_Phase_5,2,5,56,103,718298668
16,8,17,Jits_Phase_5,3,5,80,127,718318940
16,8,17,Jits_Phase_5,0,5,56,103,718719576
16,8,17,Jits_Phase_5,1,5,63,98,718778696
16,8,17,Jits_Phase_5,2,1,48,45,718780800
16,8,17,Jits_Phase_5,3,5,80,127,718783620
16,8,17,Jits_Phase_5,0,5,80,127,719238504
16,8,17,Jits_Phase_5,1,5,56,103,719248684
16,8,17,Jits_Phase_5,2,1,48,43,719266372
16,8,17,Jits_Phase_5,3,5,63,98,719319604
16,8,17,Jits_Phase_5,0,5,80,127,719729092
16,8,17,Jits_Phase_5,1,1,48,41,719750236
16,8,17,Jits_Phase_5,2,5,56,103,719798500
16,8,17,Jits_Phase_5,3,5,63,98,719808928
16,8,17,Jits_Phase_5,0,5,63,98,720268748
16,8,17,Jits_Phase_5,1,5,56,103,720278780
16,8,17,Jits_Phase_5,2,1,48,48,720285704
16,8,17,Jits_Phase_5,3,5,80,127,720299492
16,8,17,Jits_Phase_5,0,5,80,127,720719380
16,8,17,Jits_Phase_5,1,5,63,98,720778624
16,8,17,Jits_Phase_5,2,1,48,41,720809040
16,8,17,Jits_Phase_5,3,5,56,103,720818636
16,8,17,Jits_Phase_5,0,5,56,103,721258736
16,8,17,Jits_Phase_5,1,5,63,98,721269436
16,8,17,Jits_Phase_5,2,1,48,47,721306892
16,8,17,Jits_Phase_5,3,5,80,127,721309076
16,8,17,Jits_Phase_5,0,5,56,103,721718584
16,8,17,Jits_Phase_5,1,5,80,127,721749480
16,8,17,Jits_Phase_5,2,1,48,45,721763588
16,8,17,Jits_Phase_5,3,5,63,98,721798544
16,8,17,Jits_Phase_5,0,5,56,103,722259276
16,8,17,Jits_Phase_5,1,1,48,38,722278252
16,8,17,Jits_Phase_5,2,5,63,98,722299136
16,8,17,Jits_Phase_5,3,5,80,127,722302724
16,8,17,Jits_Phase_5,0,5,56,103,722759352
16,8,17,Jits_Phase_5,1,1,48,39,722766428
16,8,17,Jits_Phase_5,2,5,63,98,722769528
16,8,17,Jits_Phase_5,3,5,80,127,722788836
16,8,17,Jits_Phase_5,0,5,56,103,723218904
16,8,17,Jits_Phase_5,1,5,80,127,723222188
16,8,17,Jits_Phase_5,2,5,63,98,723258848
16,8,17,Jits_Phase_5,3,1,48,44,723266068
16,8,17,Jits_Phase_5,0,1,48,40,723716928
16,8,17,Jits_Phase_5,1,5,63,98,723758464
16,8,17,Jits_Phase_5,2,5,56,103,723789280
16,8,17,Jits_Phase_5,3,5,80,127,723808584
16,8,17,Jits_Phase_5,0,5,80,127,724228400
16,8,17,Jits_Phase_5,1,1,48,37,724234876
16,8,17,Jits_Phase_5,2,5,56,103,724238724
16,8,17,Jits_Phase_5,3,5,63,98,724249124
16,8,17,Jits_Phase_5,0,5,56,103,724729152
16,8,17,Jits_Phase_5,1,1,48,34,724759196
16,8,17,Jits_Phase_5,2,5,80,127,724769092
16,8,17,Jits_Phase_5,3,5,63,98,724798716
16,8,17,Jits_Phase_5,0,1,48,40,725232944
16,8,17,Jits_Phase_5,1,5,63,98,725239032
16,8,17,Jits_Phase_5,2,5,80,127,725249284
16,8,17,Jits_Phase_5,3,5,56,103,725259012
16,8,17,Jits_Phase_5,0,1,48,39,725714384
16,8,17,Jits_Phase_5,1,5,56,103,725728632
16,8,17,Jits_Phase_5,2,5,63,98,725799388
16,8,17,Jits_Phase_5,3,5,80,127,725808436
16,8,17,Jits_Phase_5,0,5,80,127,726238508
16,8,17,Jits_Phase_5,1,5,56,103,726248764
16,8,17,Jits_Phase_5,2,1,48,33,726256972
16,8,17,Jits_Phase_5,3,5,63,98,726299240
16,8,17,Jits_Phase_5,0,5,80,127,726748392
16,8,17,Jits_Phase_5,1,1,48,31,726797584
16,8,17,Jits_Phase_5,2,5,56,103,726809044
16,8,17,Jits_Phase_5,3,5,63,98,726838596
16,8,17,Jits_Phase_5,0,5,56,103,727249296
16,8,17,Jits_Phase_5,1,5,80,127,727252284
16,8,17,Jits_Phase_5,2,5,63,98,727289312
16,8,17,Jits_Phase_5,3,1,48,35,727292204
16,8,17,Jits_Phase_5,0,1,48,35,727765260
16,8,17,Jits_Phase_5,1,5,56,103,727778684
16,8,17,Jits_Phase_5,2,5,63,98,727809280
16,8,17,Jits_Phase_5,3,5,80,127,727818488
16,8,17,Jits_Phase_5,0,1,48,35,728288036
16,8,17,Jits_Phase_5,1,5,63,98,728289600
16,8,17,Jits_Phase_5,2,5,80,127,728298956
16,8,17,Jits_Phase_5,3,5,56,103,728308988
16,8,17,Jits_Phase_5,0,5,80,127,728739240
16,8,17,Jits_Phase_5,1,5,56,103,728789308
16,8,17,Jits_Phase_5,2,5,63,98,728792444
16,8,17,Jits_Phase_5,3,1,48,38,728795708
16,8,17,Jits_Phase_5,0,5,56,103,729268712
16,8,17,Jits_Phase_5,1,1,48,35,729277548
16,8,17,Jits_Phase_5,2,5,80,127,729289008
16,8,17,Jits_Phase_5,3,5,63,98,729299188
16,8,17,Jits_Phase_5,0,5,63,98,729749052
16,8,17,Jits_Phase_5,1,1,48,42,729759500
16,8,17,Jits_Phase_5,2,5,56,103,729778448
16,8,17,Jits_Phase_5,3,5,80,127,729799120
16,8,17,Jits_Phase_5,0,1,48,43,730231724
16,8,17,Jits_Phase_5,1,5,56,103,730258832
16,8,17,Jits_Phase_5,2,5,80,127,730269012
16,8,17,Jits_Phase_5,3,5,63,98,730338880
16,8,17,Jits_Phase_5,0,5,63,98,730749264
16,8,17,Jits_Phase_5,1,5,80,127,730789136
16,8,17,Jits_Phase_5,2,1,48,43,730811344
16,8,17,Jits_Phase_5,3,5,56,103,730829096
16,8,17,Jits_Phase_5,0,5,56,103,731259280
16,8,17,Jits_Phase_5,1,5,63,98,731268416
16,8,17,Jits_Phase_5,2,5,80,127,731289064
16,8,17,Jits_Phase_5,3,1,48,43,731296284
16,8,17,Jits_Phase_5,0,1,48,43,731756404
16,8,17,Jits_Phase_5,1,5,63,98,731798776
16,8,17,Jits_Phase_5,2,5,80,127,731819424
16,8,17,Jits_Phase_5,3,5,56,103,731838756
16,8,17,Jits_Phase_5,0,5,56,103,732239172
16,8,17,Jits_Phase_5,1,1,48,40,732263824
16,8,17,Jits_Phase_5,2,5,80,127,732319052
16,8,17,Jits_Phase_5,3,5,63,98,732329228
16,8,17,Jits_Phase_5,0,1,48,30,732773556
16,8,17,Jits_Phase_5,1,5,80,127,732778896
16,8,17,Jits_Phase_5,2,5,63,98,732789152
16,8,17,Jits_Phase_5,3,5,56,103,732818776
16,8,17,Jits_Phase_5,0,5,63,98,733238888
16,8,17,Jits_Phase_5,1,1,48,33,733264360
16,8,17,Jits_Phase_5,2,5,80,127,733278752
16,8,17,Jits_Phase_5,3,5,56,103,733338888
16,8,17,Jits_Phase_5,0,1,48,44,733741172
16,8,17,Jits_Phase_5,1,5,63,98,733748676
16,8,17,Jits_Phase_5,2,5,56,103,733798720
16,8,17,Jits_Phase_5,3,5,80,127,733828716
16,8,17,Jits_Phase_5,0,1,48,37,734240644
16,8,17,Jits_Phase_5,1,5,80,127,734249200
16,8,17,Jits_Phase_5,2,5,63,98,734258556
16,8,17,Jits_Phase_5,3,5,56,103,734329236
16,8,17,Jits_Phase_5,0,1,48,35,734761808
16,8,17,Jits_Phase_5,1,5,80,127,734808660
16,8,17,Jits_Phase_5,2,5,56,103,734818760
16,8,17,Jits_Phase_5,3,5,63,98,734821896
16,8,17,Jits_Phase_5,0,5,56,103,735248672
16,8,17,Jits_Phase_5,1,5,80,127,735269172
16,8,17,Jits_Phase_5,2,1,48,38,735278752
16,8,17,Jits_Phase_5,3,5,63,98,735280240
16,8,17,Jits_Phase_5,0,5,63,98,735758780
16,8,17,Jits_Phase_5,1,1,48,33,735780664
16,8,17,Jits_Phase_5,2,5,56,103,735798716
16,8,17,Jits_Phase_5,3,5,80,127,735818992
16,8,17,Jits_Phase_5,0,5,63,98,736258556
16,8,17,Jits_Phase_5,1,1,48,38,736259668
16,8,17,Jits_Phase_5,2,5,56,103,736318908
16,8,17,Jits_Phase_5,3,5,80,127,736321896
16,8,17,Jits_Phase_5,0,5,56,103,736719128
16,8,17,Jits_Phase_5,1,5,80,127,736738808
16,8,17,Jits_Phase_5,2,1,48,38,736772056
16,8,17,Jits_Phase_5,3,5,63,98,736778596
16,8,17,Jits_Phase_5,0,5,56,103,737248756
16,8,17,Jits_Phase_5,1,1,48,40,737266916
16,8,17,Jits_Phase_5,2,5,63,98,737269396
16,8,17,Jits_Phase_5,3,5,80,127,737279352
16,8,17,Jits_Phase_5,0,5,80,127,737718600
16,8,17,Jits_Phase_5,1,5,56,103,737749644
16,8,17,Jits_Phase_5,2,1,48,37,737769364
16,8,17,Jits_Phase_5,3,5,63,98,737789580
16,8,17,Jits_Phase_5,0,5,80,127,738228676
16,8,17,Jits_Phase_5,1,5,56,103,738249052
16,8,17,Jits_Phase_5,2,1,48,33,738266760
16,8,17,Jits_Phase_5,3,5,63,98,738308732
16,8,17,Jits_Phase_5,0,5,56,103,738738416
16,8,17,Jits_Phase_5,1,5,80,127,738759012
16,8,17,Jits_Phase_5,2,1,48,38,738769016
16,8,17,Jits_Phase_5,3,5,63,98,738818692
16,8,17,Jits_Phase_5,0,5,80,127,739218752
16,8,17,Jits_Phase_5,1,5,56,103,739229228
16,8,17,Jits_Phase_5,2,5,63,98,739268976
16,8,17,Jits_Phase_5,3,1,48,28,739278748
16,8,17,Jits_Phase_5,0,5,63,98,739718536
16,8,17,Jits_Phase_5,1,1,48,41,739752908
16,8,17,Jits_Phase_5,2,5,56,103,739758320
16,8,17,Jits_Phase_5,3,5,80,127,739761460
16,8,17,Jits_Phase_5,0,1,48,45,740228432
16,8,17,Jits_Phase_5,1,5,63,98,740238700
16,8,17,Jits_Phase_5,2,5,80,127,740278572
16,8,17,Jits_Phase_5,3,5,56,103,740309536
16,8,17,Jits_Phase_5,0,5,56,103,740729324
16,8,17,Jits_Phase_5,1,5,63,98,740738608
16,8,17,Jits_Phase_5,2,1,48,40,740762812
16,8,17,Jits_Phase_5,3,5,80,127,740769196
16,8,17,Jits_Phase_5,0,5,80,127,741218564
16,8,17,Jits_Phase_5,1,1,48,41,741251372
16,8,17,Jits_Phase_5,2,5,63,98,741289392
16,8,17,Jits_Phase_5,3,5,56,103,741298524
16,8,17,Jits_Phase_5,0,5,63,98,741719472
16,8,17,Jits_Phase_5,1,1,48,39,741772992
16,8,17,Jits_Phase_5,2,5,56,103,741789028
16,8,17,Jits_Phase_5,3,5,80,127,741799504
16,8,17,Jits_Phase_5,0,5,63,98,742198752
16,8,17,Jits_Phase_5,1,5,56,103,742219176
16,8,17,Jits_Phase_5,2,5,80,127,742259044
16,8,17,Jits_Phase_5,3,1,48,36,742262160
16,8,17,Jits_Phase_5,0,5,56,103,742678856
16,8,17,Jits_Phase_5,1,5,63,98,742689256
16,8,17,Jits_Phase_5,2,1,48,41,742714952
16,8,17,Jits_Phase_5,3,5,80,127,742769204
16,8,17,Jits_Phase_5,0,5,63,98,743169288
16,8,17,Jits_Phase_5,1,5,56,103,743199212
16,8,17,Jits_Phase_5,2,1,48,44,743204268
16,8,17,Jits_Phase_5,3,5,80,127,743239296
16,8,17,Jits_Phase_5,0,5,56,103,743679376
16,8,17,Jits_Phase_5,1,1,48,41,743680340
16,8,17,Jits_Phase_5,2,5,63,98,743719464
16,8,17,Jits_Phase_5,3,5,80,127,743759408
16,8,17,Jits_Phase_5,0,1,48,39,744169488
16,8,17,Jits_Phase_5,1,5,80,127,744179160
16,8,17,Jits_Phase_5,2,5,56,103,744259040
16,8,17,Jits_Phase_5,3,5,63,98,744269280
16,8,17,Jits_Phase_5,0,5,56,103,744718652
16,8,17,Jits_Phase_5,1,5,63,98,744721640
16,8,17,Jits_Phase_5,2,5,80,127,744729204
16,8,17,Jits_Phase_5,3,1,48,32,744731568
16,8,17,Jits_Phase_5,0,1,48,26,745229544
16,8,17,Jits_Phase_5,1,5,56,103,745238988
16,8,17,Jits_Phase_5,2,5,63,98,745259340
16,8,17,Jits_Phase_5,3,5,80,127,745268548
16,8,17,Jits_Phase_5,0,5,63,98,745698608
16,8,17,Jits_Phase_5,1,5,80,127,745708788
16,8,17,Jits_Phase_5,2,5,56,103,745729360
16,8,17,Jits_Phase_5,3,1,48,29,745751468
16,8,17,Jits_Phase_5,0,1,48,41,746192432
16,8,17,Jits_Phase_5,1,5,63,98,746199340
16,8,17,Jits_Phase_5,2,5,56,103,746279224
16,8,17,Jits_Phase_5,3,5,80,127,746282360
16,8,17,Jits_Phase_5,0,5,63,98,746699188
16,8,17,Jits_Phase_5,1,5,56,103,746718644
16,8,17,Jits_Phase_5,2,1,48,41,746727148
16,8,17,Jits_Phase_5,3,5,80,127,746749232
16,8,17,Jits_Phase_5,0,5,56,103,747199108
16,8,17,Jits_Phase_5,1,1,48,36,747204616
16,8,17,Jits_Phase_5,2,5,63,98,747219452
16,8,17,Jits_Phase_5,3,5,80,127,747228440
16,8,17,Jits_Phase_5,0,1,48,36,747684924
16,8,17,Jits_Phase_5,1,5,56,103,747729256
16,8,17,Jits_Phase_5,2,5,63,98,747759028
16,8,17,Jits_Phase_5,3,5,80,127,747762240
16,8,17,Jits_Phase_5,0,5,56,103,748179040
16,8,17,Jits_Phase_5,1,1,48,37,748202648
16,8,17,Jits_Phase_5,2,5,63,98,748218708
16,8,17,Jits_Phase_5,3,5,80,127,748279292
16,8,17,Jits_Phase_5,0,1,48,35,748699320
16,8,17,Jits_Phase_5,1,5,56,103,748700732
16,8,17,Jits_Phase_5,2,5,63,98,748709120
16,8,17,Jits_Phase_5,3,5,80,127,748768756
16,8,17,Jits_Phase_5,0,5,56,103,749198640
16,8,17,Jits_Phase_5,1,5,80,127,749219140
16,8,17,Jits_Phase_5,2,1,48,34,749227792
16,8,17,Jits_Phase_5,3,5,63,98,749249080
16,8,17,Jits_Phase_5,0,5,80,127,749698276
16,8,17,Jits_Phase_5,1,5,56,103,749708528
16,8,17,Jits_Phase_5,2,1,48,38,749722112
16,8,17,Jits_Phase_5,3,5,63,98,749729320
16,8,17,Jits_Phase_5,0,5,63,98,750188936
16,8,17,Jits_Phase_5,1,1,48,36,750215232
16,8,17,Jits_Phase_5,2,5,80,127,750268836
16,8,17,Jits_Phase_5,3,5,56,103,750278940
16,8,17,Jits_Phase_5,0,1,48,42,750712680
16,8,17,Jits_Phase_5,1,5,80,127,750778856
16,8,17,Jits_Phase_5,2,5,56,103,750799280
16,8,17,Jits_Phase_5,3,5,63,98,750802264
16,8,17,Jits_Phase_5,0,5,63,98,751269244
16,8,17,Jits_Phase_5,1,5,80,127,751272676
16,8,17,Jits_Phase_5,2,1,48,38,751307464
16,8,17,Jits_Phase_5,3,5,56,103,751328876
16,8,17,Jits_Phase_5,0,5,56,103,751748444
16,8,17,Jits_Phase_5,1,5,80,127,751758844
16,8,17,Jits_Phase_5,2,5,63,98,751798568
16,8,17,Jits_Phase_5,3,1,48,41,751836416
16,8,17,Jits_Phase_5,0,5,56,103,752229004
16,8,17,Jits_Phase_5,1,5,63,98,752289072
16,8,17,Jits_Phase_5,2,1,48,43,752292932
16,8,17,Jits_Phase_5,3,5,80,127,752299316
16,8,17,Jits_Phase_5,0,5,63,98,752738744
16,8,17,Jits_Phase_5,1,5,80,127,752778540
16,8,17,Jits_Phase_5,2,1,48,43,752793240
16,8,17,Jits_Phase_5,3,5,56,103,752818776
16,8,17,Jits_Phase_5,0,5,56,103,753239340
16,8,17,Jits_Phase_5,1,1,48,37,753248816
16,8,17,Jits_Phase_5,2,5,63,98,753319212
16,8,17,Jits_Phase_5,3,5,80,127,753322500
16,8,17,Jits_Phase_5,0,1,48,29,753772968
16,8,17,Jits_Phase_5,1,5,80,127,753798948
16,8,17,Jits_Phase_5,2,5,56,103,753829172
16,8,17,Jits_Phase_5,3,5,63,98,753832236
16,8,17,Jits_Phase_5,0,5,56,103,754259308
16,8,17,Jits_Phase_5,1,5,80,127,754278688
16,8,17,Jits_Phase_5,2,1,48,38,754307164
16,8,17,Jits_Phase_5,3,5,63,98,754318848
16,8,17,Jits_Phase_5,0,5,80,127,754738828
16,8,17,Jits_Phase_5,1,1,48,43,754759180
16,8,17,Jits_Phase_5,2,5,63,98,754760664
16,8,17,Jits_Phase_5,3,5,56,103,754818488
16,8,17,Jits_Phase_5,0,5,63,98,755248640
16,8,17,Jits_Phase_5,1,5,56,103,755258596
16,8,17,Jits_Phase_5,2,1,48,40,755298584
16,8,17,Jits_Phase_5,3,5,80,127,755308924
16,8,17,Jits_Phase_5,0,5,56,103,755739132
16,8,17,Jits_Phase_5,1,1,48,46,755745984
16,8,17,Jits_Phase_5,2,5,63,98,755758728
16,8,17,Jits_Phase_5,3,5,80,127,755768684
16,8,17,Jits_Phase_5,0,5,56,103,756228596
16,8,17,Jits_Phase_5,1,5,63,98,756231508
16,8,17,Jits_Phase_5,2,1,48,34,756239716
16,8,17,Jits_Phase_5,3,5,80,127,756248788
16,8,17,Jits_Phase_5,0,1,48,45,756717648
16,8,17,Jits_Phase_5,1,5,63,98,756769124
16,8,17,Jits_Phase_5,2,5,56,103,756798896
16,8,17,Jits_Phase_5,3,5,80,127,756828584
16,8,17,Jits_Phase_5,0,5,80,127,757228892
16,8,17,Jits_Phase_5,1,1,48,45,757254220
16,8,17,Jits_Phase_5,2,5,56,103,757319088
16,8,17,Jits_Phase_5,3,5,63,98,757322152
16,8,17,Jits_Phase_5,0,5,56,103,757728600
16,8,17,Jits_Phase_5,1,5,80,127,757731736
16,8,17,Jits_Phase_5,2,1,48,40,757784060
16,8,17,Jits_Phase_5,3,5,63,98,757808472
16,8,17,Jits_Phase_5,0,5,80,127,758229496
16,8,17,Jits_Phase_5,1,1,48,47,758261184
16,8,17,Jits_Phase_5,2,5,63,98,758288808
16,8,17,Jits_Phase_5,3,5,56,103,758318580
16,8,17,Jits_Phase_5,0,5,63,98,758729060
16,8,17,Jits_Phase_5,1,5,80,127,758739240
16,8,17,Jits_Phase_5,2,1,48,45,758779156
16,8,17,Jits_Phase_5,3,5,56,103,758808868
16,8,17,Jits_Phase_5,0,1,48,50,759220916
16,8,17,Jits_Phase_5,1,5,56,103,759289480
16,8,17,Jits_Phase_5,2,5,80,127,759318884
16,8,17,Jits_Phase_5,3,5,63,98,759369208
16,8,17,Jits_Phase_5,0,1,48,47,759798648
16,8,17,Jits_Phase_5,1,5,63,98,759879000
16,8,17,Jits_Phase_5,2,5,56,103,759908684
16,8,17,Jits_Phase_5,3,5,80,127,759911820
16,8,17,Jits_Phase_5,0,1,48,42,760376584
16,8,17,Jits_Phase_5,1,5,63,98,760378620
16,8,17,Jits_Phase_5,2,5,80,127,760399420
16,8,17,Jits_Phase_5,3,5,56,103,760408552
16,8,17,Jits_Phase_5,0,5,56,103,760888720
16,8,17,Jits_Phase_5,1,5,63,98,760891708
16,8,17,Jits_Phase_5,2,1,48,40,760902600
16,8,17,Jits_Phase_5,3,5,80,127,760909436
16,8,17,Jits_Phase_5,0,5,56,103,761339360
16,8,17,Jits_Phase_5,1,5,63,98,761348568
16,8,17,Jits_Phase_5,2,5,80,127,761379312
16,8,17,Jits_Phase_5,3,1,48,41,761398808
16,8,17,Jits_Phase_5,0,1,48,47,761856704
16,8,17,Jits_Phase_5,1,5,63,98,761858512
16,8,17,Jits_Phase_5,2,5,80,127,761878864
16,8,17,Jits_Phase_5,3,5,56,103,761918732
16,8,17,Jits_Phase_5,0,1,48,47,762372464
16,8,17,Jits_Phase_5,1,5,56,103,762388796
16,8,17,Jits_Phase_5,2,5,63,98,762428740
16,8,17,Jits_Phase_5,3,5,80,127,762432176
16,8,17,Jits_Phase_5,0,5,80,127,762829256
16,8,17,Jits_Phase_5,1,5,56,103,762869204
16,8,17,Jits_Phase_5,2,1,48,47,762905668
16,8,17,Jits_Phase_5,3,5,63,98,762919312
16,8,17,Jits_Phase_5,0,1,48,51,763372616
16,8,17,Jits_Phase_5,1,5,56,103,763389472
16,8,17,Jits_Phase_5,2,5,80,127,763398456
16,8,17,Jits_Phase_5,3,5,63,98,763429424
16,8,17,Jits_Phase_5,0,5,56,103,763838920
16,8,17,Jits_Phase_5,1,5,80,127,763878716
16,8,17,Jits_Phase_5,2,1,48,48,763883920
16,8,17,Jits_Phase_5,3,5,63,98,763929120
16,8,17,Jits_Phase_5,0,5,56,103,764338460
16,8,17,Jits_Phase_5,1,5,80,127,764378356
16,8,17,Jits_Phase_5,2,1,48,49,764387684
16,8,17,Jits_Phase_5,3,5,63,98,764428616
16,8,17,Jits_Phase_5,0,5,80,127,764829196
16,8,17,Jits_Phase_5,1,1,48,47,764894104
16,8,17,Jits_Phase_5,2,5,63,98,764908948
16,8,17,Jits_Phase_5,3,5,56,103,764919348
16,8,17,Jits_Phase_5,0,1,48,45,765377544
16,8,17,Jits_Phase_5,1,5,80,127,765379188
16,8,17,Jits_Phase_5,2,5,56,103,765389368
16,8,17,Jits_Phase_5,3,5,63,98,765408672
16,8,17,Jits_Phase_5,0,1,48,44,765831276
16,8,17,Jits_Phase_5,1,5,63,98,765849172
16,8,17,Jits_Phase_5,2,5,56,103,765918536
16,8,17,Jits_Phase_5,3,5,80,127,765921600
16,8,17,Jits_Phase_5,0,5,80,127,766338320
16,8,17,Jits_Phase_5,1,1,48,43,766386076
16,8,17,Jits_Phase_5,2,5,63,98,766388580
16,8,17,Jits_Phase_5,3,5,56,103,766428552
16,8,17,Jits_Phase_5,0,5,63,98,766879320
16,8,17,Jits_Phase_5,1,1,48,44,766895220
16,8,17,Jits_Phase_5,2,5,56,103,766919132
16,8,17,Jits_Phase_5,3,5,80,127,766929240
16,8,17,Jits_Phase_5,0,5,63,98,767368556
16,8,17,Jits_Phase_5,1,1,48,31,767383560
16,8,17,Jits_Phase_5,2,5,56,103,767389196
16,8,17,Jits_Phase_5,3,5,80,127,767408428
16,8,17,Jits_Phase_5,0,5,80,127,767829436
16,8,17,Jits_Phase_5,1,5,56,103,767838568
16,8,17,Jits_Phase_5,2,5,63,98,767859140
16,8,17,Jits_Phase_5,3,1,48,36,767883940
16,8,17,Jits_Phase_5,0,1,48,41,768343396
16,8,17,Jits_Phase_5,1,5,63,98,768358908
16,8,17,Jits_Phase_5,2,5,56,103,768399000
16,8,17,Jits_Phase_5,3,5,80,127,768429300
16,8,17,Jits_Phase_5,0,5,56,103,768818524
16,8,17,Jits_Phase_5,1,1,48,46,768837876
16,8,17,Jits_Phase_5,2,5,63,98,768849336
16,8,17,Jits_Phase_5,3,5,80,127,768879036
16,8,17,Jits_Phase_5,0,5,80,127,769239412
16,8,17,Jits_Phase_5,1,5,56,103,769309196
16,8,17,Jits_Phase_5,2,5,63,98,769312332
16,8,17,Jits_Phase_5,3,1,48,31,769323452
16,8,17,Jits_Phase_5,0,5,56,103,769749288
16,8,17,Jits_Phase_5,1,1,48,43,769782764
16,8,17,Jits_Phase_5,2,5,63,98,769798504
16,8,17,Jits_Phase_5,3,5,80,127,769829244
16,8,17,Jits_Phase_5,0,5,63,98,770228556
16,8,17,Jits_Phase_5,1,5,80,127,770231944
16,8,17,Jits_Phase_5,2,1,48,39,770241120
16,8,17,Jits_Phase_5,3,5,56,103,770289232
16,8,17,Jits_Phase_5,0,1,48,44,770740176
16,8,17,Jits_Phase_5,1,5,56,103,770759148
16,8,17,Jits_Phase_5,2,5,80,127,770769328
16,8,17,Jits_Phase_5,3,5,63,98,770818324
16,8,17,Jits_Phase_5,0,5,63,98,771229132
16,8,17,Jits_Phase_5,1,5,56,103,771239240
16,8,17,Jits_Phase_5,2,5,80,127,771269036
16,8,17,Jits_Phase_5,3,1,48,41,771285232
16,8,17,Jits_Phase_5,0,1,48,43,771738592
16,8,17,Jits_Phase_5,1,5,63,98,771758436
16,8,17,Jits_Phase_5,2,5,80,127,771761868
16,8,17,Jits_Phase_5,3,5,56,103,771789056
16,8,17,Jits_Phase_5,0,1,48,42,772217564
16,8,17,Jits_Phase_5,1,5,63,98,772278644
16,8,17,Jits_Phase_5,2,5,56,103,772299212
16,8,17,Jits_Phase_5,3,5,80,127,772302348
16,8,17,Jits_Phase_5,0,5,63,98,772738368
16,8,17,Jits_Phase_5,1,1,48,47,772747620
16,8,17,Jits_Phase_5,2,5,56,103,772809068
16,8,17,Jits_Phase_5,3,5,80,127,772828892
16,8,17,Jits_Phase_5,0,5,56,103,773228792
16,8,17,Jits_Phase_5,1,1,48,41,773237840
16,8,17,Jits_Phase_5,2,5,63,98,773239556
16,8,17,Jits_Phase_5,3,5,80,127,773329188
16,8,17,Jits_Phase_5,0,5,56,103,773748996
16,8,17,Jits_Phase_5,1,1,48,41,773766848
16,8,17,Jits_Phase_5,2,5,80,127,773789008
16,8,17,Jits_Phase_5,3,5,63,98,773799408
16,8,17,Jits_Phase_5,0,5,56,103,774269420
16,8,17,Jits_Phase_5,1,1,48,39,774278232
16,8,17,Jits_Phase_5,2,5,63,98,774298968
16,8,17,Jits_Phase_5,3,5,80,127,774328692
16,8,17,Jits_Phase_5,0,5,80,127,774729052
16,8,17,Jits_Phase_5,1,1,48,45,774738824
16,8,17,Jits_Phase_5,2,5,63,98,774768988
16,8,17,Jits_Phase_5,3,5,56,103,774788592
16,8,17,Jits_Phase_5,0,1,48,36,775249740
16,8,17,Jits_Phase_5,1,5,56,103,775268692
16,8,17,Jits_Phase_5,2,5,80,127,775289264
16,8,17,Jits_Phase_5,3,5,63,98,775308868
16,8,17,Jits_Phase_5,0,1,48,45,775727008
16,8,17,Jits_Phase_5,1,5,63,98,775738696
16,8,17,Jits_Phase_5,2,5,56,103,775748952
16,8,17,Jits_Phase_5,3,5,80,127,775809388
16,8,17,Jits_Phase_5,0,1,48,48,776221460
16,8,17,Jits_Phase_5,1,5,56,103,776238396
16,8,17,Jits_Phase_5,2,5,63,98,776309080
16,8,17,Jits_Phase_5,3,5,80,127,776328816
16,8,17,Jits_Phase_5,0,5,56,103,776739072
16,8,17,Jits_Phase_5,1,1,48,41,776756480
16,8,17,Jits_Phase_5,2,5,63,98,776768840
16,8,17,Jits_Phase_5,3,5,80,127,776808932
16,8,17,Jits_Phase_5,0,5,63,98,777228836
16,8,17,Jits_Phase_5,1,1,48,48,777233292
16,8,17,Jits_Phase_5,2,5,56,103,777278944
16,8,17,Jits_Phase_5,3,5,80,127,777289348
16,8,17,Jits_Phase_5,0,1,48,46,777738600
16,8,17,Jits_Phase_5,1,5,56,103,777769436
16,8,17,Jits_Phase_5,2,5,63,98,777818656
16,8,17,Jits_Phase_5,3,5,80,127,777828836
16,8,17,Jits_Phase_5,0,1,48,46,778239644
16,8,17,Jits_Phase_5,1,5,56,103,778248716
16,8,17,Jits_Phase_5,2,5,63,98,778258676
16,8,17,Jits_Phase_5,3,5,80,127,778338540
16,8,17,Jits_Phase_5,0,9999,9999,9999,694016068
16,8,17,Jits_Phase_5,1,9999,9999,9999,694516836
16,8,17,Jits_Phase_5,2,9999,9999,9999,695016560
16,8,17,Jits_Phase_5,3,9999,9999,9999,695516268
16,8,17,Jits_Phase_5,4,9999,9999,9999,696017016
16,8,17,Jits_Phase_5,5,9999,9999,9999,696516716
16,8,17,Jits_Phase_5,6,9999,9999,9999,697016388
16,8,17,Jits_Phase_5,7,9999,9999,9999,697516092
16,8,17,Jits_Phase_5,8,9999,9999,9999,698016836
16,8,17,Jits_Phase_5,9,9999,9999,9999,698516548
16,8,17,Jits_Phase_5,10,9999,9999,9999,699016248
16,8,17,Jits_Phase_5,11,9999,9999,9999,699517004
16,8,17,Jits_Phase_5,12,9999,9999,9999,700016768
16,8,17,Jits_Phase_5,13,9999,9999,9999,700516464
16,8,17,Jits_Phase_5,14,9999,9999,9999,701016160
16,8,17,Jits_Phase_5,15,9999,9999,9999,701516916
16,8,17,Jits_Phase_5,16,9999,9999,9999,702016612
16,8,17,Jits_Phase_5,17,9999,9999,9999,702516308
16,8,17,Jits_Phase_5,18,9999,9999,9999,703017064
16,8,17,Jits_Phase_5,19,9999,9999,9999,703516780
16,8,17,Jits_Phase_5,20,9999,9999,9999,704016476
16,8,17,Jits_Phase_5,21,9999,9999,9999,704516176
16,8,17,Jits_Phase_5,22,9999,9999,9999,705016928
16,8,17,Jits_Phase_5,23,9999,9999,9999,705516640
16,8,17,Jits_Phase_5,24,9999,9999,9999,706016336
16,8,17,Jits_Phase_5,25,9999,9999,9999,706517084
16,8,17,Jits_Phase_5,26,9999,9999,9999,707016788
16,8,17,Jits_Phase_5,27,9999,9999,9999,707516472
16,8,17,Jits_Phase_5,28,9999,9999,9999,708016236
16,8,17,Jits_Phase_5,29,9999,9999,9999,708516992
16,8,17,Jits_Phase_5,30,9999,9999,9999,709006456
16,8,17,Jits_Phase_5,31,9999,9999,9999,709506156
16,8,17,Jits_Phase_5,32,9999,9999,9999,710006908
16,8,17,Jits_Phase_5,33,9999,9999,9999,710506620
16,8,17,Jits_Phase_5,34,9999,9999,9999,711006332
16,8,17,Jits_Phase_5,35,9999,9999,9999,711507016
16,8,17,Jits_Phase_5,36,9999,9999,9999,712006776
16,8,17,Jits_Phase_5,37,9999,9999,9999,712506476
16,8,17,Jits_Phase_5,38,9999,9999,9999,713006192
16,8,17,Jits_Phase_5,39,9999,9999,9999,713506880
16,8,17,Jits_Phase_5,40,9999,9999,9999,714006592
16,8,17,Jits_Phase_5,41,9999,9999,9999,714506360
16,8,17,Jits_Phase_5,42,9999,9999,9999,715007040
16,8,17,Jits_Phase_5,43,9999,9999,9999,715506812
16,8,17,Jits_Phase_5,44,9999,9999,9999,716006508
16,8,17,Jits_Phase_5,45,9999,9999,9999,716506204
16,8,17,Jits_Phase_5,46,9999,9999,9999,717006948
16,8,17,Jits_Phase_5,47,9999,9999,9999,717506676
16,8,17,Jits_Phase_5,48,9999,9999,9999,718016632
16,8,17,Jits_Phase_5,49,9999,9999,9999,718516324
16,8,17,Jits_Phase_5,50,9999,9999,9999,719017052
16,8,17,Jits_Phase_5,51,9999,9999,9999,719516764
16,8,17,Jits_Phase_5,52,9999,9999,9999,720016480
16,8,17,Jits_Phase_5,53,9999,9999,9999,720516196
16,8,17,Jits_Phase_5,54,9999,9999,9999,721016940
16,8,17,Jits_Phase_5,55,9999,9999,9999,721516656
16,8,17,Jits_Phase_5,56,9999,9999,9999,722016364
16,8,17,Jits_Phase_5,57,9999,9999,9999,722517112
16,8,17,Jits_Phase_5,58,9999,9999,9999,723016828
16,8,17,Jits_Phase_5,59,9999,9999,9999,723516524
16,8,17,Jits_Phase_5,60,9999,9999,9999,724016236
16,8,17,Jits_Phase_5,61,9999,9999,9999,724516976
16,8,17,Jits_Phase_5,62,9999,9999,9999,725016688
16,8,17,Jits_Phase_5,63,9999,9999,9999,725516396
16,8,17,Jits_Phase_5,64,9999,9999,9999,726036592
16,8,17,Jits_Phase_5,65,9999,9999,9999,726536288
16,8,17,Jits_Phase_5,66,9999,9999,9999,727037048
16,8,17,Jits_Phase_5,67,9999,9999,9999,727536744
16,8,17,Jits_Phase_5,68,9999,9999,9999,728036456
16,8,17,Jits_Phase_5,69,9999,9999,9999,728536156
16,8,17,Jits_Phase_5,70,9999,9999,9999,729036888
16,8,17,Jits_Phase_5,71,9999,9999,9999,729536600
16,8,17,Jits_Phase_5,72,9999,9999,9999,730036288
16,8,17,Jits_Phase_5,73,9999,9999,9999,730537028
16,8,17,Jits_Phase_5,74,9999,9999,9999,731036800
16,8,17,Jits_Phase_5,75,9999,9999,9999,731536496
16,8,17,Jits_Phase_5,76,9999,9999,9999,732036212
16,8,17,Jits_Phase_5,77,9999,9999,9999,732536956
16,8,17,Jits_Phase_5,78,9999,9999,9999,733036596
16,8,17,Jits_Phase_5,79,9999,9999,9999,733536372
16,8,17,Jits_Phase_5,80,9999,9999,9999,734037116
16,8,17,Jits_Phase_5,81,9999,9999,9999,734516324
16,8,17,Jits_Phase_5,82,9999,9999,9999,735017064
16,8,17,Jits_Phase_5,83,9999,9999,9999,735516760
16,8,17,Jits_Phase_5,84,9999,9999,9999,736016472
16,8,17,Jits_Phase_5,85,9999,9999,9999,736516168
16,8,17,Jits_Phase_5,86,9999,9999,9999,737016908
16,8,17,Jits_Phase_5,87,9999,9999,9999,737516620
16,8,17,Jits_Phase_5,88,9999,9999,9999,738016380
16,8,17,Jits_Phase_5,89,9999,9999,9999,738517060
16,8,17,Jits_Phase_5,90,9999,9999,9999,739016772
16,8,17,Jits_Phase_5,91,9999,9999,9999,739516480
16,8,17,Jits_Phase_5,92,9999,9999,9999,740016228
16,8,17,Jits_Phase_5,93,9999,9999,9999,740516940
16,8,17,Jits_Phase_5,94,9999,9999,9999,741016636
16,8,17,Jits_Phase_5,95,9999,9999,9999,741516348
16,8,17,Jits_Phase_5,96,9999,9999,9999,742016060
16,8,17,Jits_Phase_5,97,9999,9999,9999,742466616
16,8,17,Jits_Phase_5,98,9999,9999,9999,742966388
16,8,17,Jits_Phase_5,99,9999,9999,9999,743467068
16,8,17,Jits_Phase_5,100,9999,9999,9999,743977084
16,8,17,Jits_Phase_5,101,9999,9999,9999,744476800
16,8,17,Jits_Phase_5,102,9999,9999,9999,744976484
16,8,17,Jits_Phase_5,103,9999,9999,9999,745476200
16,8,17,Jits_Phase_5,104,9999,9999,9999,745976940
16,8,17,Jits_Phase_5,105,9999,9999,9999,746476628
16,8,17,Jits_Phase_5,106,9999,9999,9999,746976328
16,8,17,Jits_Phase_5,107,9999,9999,9999,747477072
16,8,17,Jits_Phase_5,108,9999,9999,9999,747976776
16,8,17,Jits_Phase_5,109,9999,9999,9999,748476476
16,8,17,Jits_Phase_5,110,9999,9999,9999,748976236
16,8,17,Jits_Phase_5,111,9999,9999,9999,749476972
16,8,17,Jits_Phase_5,112,9999,9999,9999,749976684
16,8,17,Jits_Phase_5,113,9999,9999,9999,750476396
16,8,17,Jits_Phase_5,114,9999,9999,9999,751026276
16,8,17,Jits_Phase_5,115,9999,9999,9999,751527004
16,8,17,Jits_Phase_5,116,9999,9999,9999,752026700
16,8,17,Jits_Phase_5,117,9999,9999,9999,752526416
16,8,17,Jits_Phase_5,118,9999,9999,9999,753026132
16,8,17,Jits_Phase_5,119,9999,9999,9999,753526868
16,8,17,Jits_Phase_5,120,9999,9999,9999,754026580
16,8,17,Jits_Phase_5,121,9999,9999,9999,754526280
16,8,17,Jits_Phase_5,122,9999,9999,9999,755027036
16,8,17,Jits_Phase_5,123,9999,9999,9999,755526748
16,8,17,Jits_Phase_5,124,9999,9999,9999,756026444
16,8,17,Jits_Phase_5,125,9999,9999,9999,756526140
16,8,17,Jits_Phase_5,126,9999,9999,9999,757026900
16,8,17,Jits_Phase_5,127,9999,9999,9999,757526596
16,8,17,Jits_Phase_5,128,9999,9999,9999,758026296
16,8,17,Jits_Phase_5,129,9999,9999,9999,758527052
16,8,17,Jits_Phase_5,130,9999,9999,9999,759026764
16,8,17,Jits_Phase_5,131,9999,9999,9999,759626828
16,8,17,Jits_Phase_5,132,9999,9999,9999,760126520
16,8,17,Jits_Phase_5,133,9999,9999,9999,760626300
16,8,17,Jits_Phase_5,134,9999,9999,9999,761127036
16,8,17,Jits_Phase_5,135,9999,9999,9999,761626740
16,8,17,Jits_Phase_5,136,9999,9999,9999,762126456
16,8,17,Jits_Phase_5,137,9999,9999,9999,762626148
16,8,17,Jits_Phase_5,138,9999,9999,9999,763126888
16,8,17,Jits_Phase_5,139,9999,9999,9999,763626608
16,8,17,Jits_Phase_5,140,9999,9999,9999,764126304
16,8,17,Jits_Phase_5,141,9999,9999,9999,764627068
16,8,17,Jits_Phase_5,142,9999,9999,9999,765126784
16,8,17,Jits_Phase_5,143,9999,9999,9999,765626420
16,8,17,Jits_Phase_5,144,9999,9999,9999,766126164
16,8,17,Jits_Phase_5,145,9999,9999,9999,766626904
16,8,17,Jits_Phase_5,146,9999,9999,9999,767126624
16,8,17,Jits_Phase_5,147,9999,9999,9999,767626324
16,8,17,Jits_Phase_5,148,9999,9999,9999,768127060
16,8,17,Jits_Phase_5,149,9999,9999,9999,768626780
16,8,17,Jits_Phase_5,150,9999,9999,9999,769026116
16,8,17,Jits_Phase_5,151,9999,9999,9999,769526864
16,8,17,Jits_Phase_5,152,9999,9999,9999,770026580
16,8,17,Jits_Phase_5,153,9999,9999,9999,770526280
16,8,17,Jits_Phase_5,154,9999,9999,9999,771027020
16,8,17,Jits_Phase_5,155,9999,9999,9999,771526712
16,8,17,Jits_Phase_5,156,9999,9999,9999,772026472
16,8,17,Jits_Phase_5,157,9999,9999,9999,772526136
16,8,17,Jits_Phase_5,158,9999,9999,9999,773026876
16,8,17,Jits_Phase_5,159,9999,9999,9999,773526644
16,8,17,Jits_Phase_5,160,9999,9999,9999,774026356
16,8,17,Jits_Phase_5,161,9999,9999,9999,774527044
16,8,17,Jits_Phase_5,162,9999,9999,9999,775026752
16,8,17,Jits_Phase_5,163,9999,9999,9999,775526468
16,8,17,Jits_Phase_5,164,9999,9999,9999,776026240
16,8,17,Jits_Phase_5,165,9999,9999,9999,776526908
16,8,17,Jits_Phase_5,166,9999,9999,9999,777026680
16,8,17,Jits_Phase_5,167,9999,9999,9999,777526392
16,8,17,Jits_Phase_5,168,9999,9999,9999,778027064
16,8,17,Jits_Phase_5,169,9999,9999,9999,778537080
16,9,15,Jits_Phase_8,0,5,56,103,791119132
16,9,15,Jits_Phase_8,1,5,63,98,791122152
16,9,15,Jits_Phase_8,2,5,80,127,791125272
16,9,15,Jits_Phase_8,0,1,48,28,791849612
16,9,15,Jits_Phase_8,1,5,56,103,791919104
16,9,15,Jits_Phase_8,2,5,63,98,791922200
16,9,15,Jits_Phase_8,3,5,80,127,791925240
16,9,15,Jits_Phase_8,0,1,48,32,792638248
16,9,15,Jits_Phase_8,1,5,80,127,792659216
16,9,15,Jits_Phase_8,2,5,63,98,792749336
16,9,15,Jits_Phase_8,3,5,56,103,792758492
16,9,15,Jits_Phase_8,0,1,48,28,793452032
16,9,15,Jits_Phase_8,1,5,56,103,793478616
16,9,15,Jits_Phase_8,2,5,63,98,793489016
16,9,15,Jits_Phase_8,3,5,80,127,793578932
16,9,15,Jits_Phase_8,0,1,48,33,794239052
16,9,15,Jits_Phase_8,1,5,63,98,794248644
16,9,15,Jits_Phase_8,2,5,80,127,794279316
16,9,15,Jits_Phase_8,3,5,56,103,794309044
16,9,15,Jits_Phase_8,0,1,48,29,795033152
16,9,15,Jits_Phase_8,1,5,56,103,795049264
16,9,15,Jits_Phase_8,2,5,80,127,795148756
16,9,15,Jits_Phase_8,3,5,63,98,795198724
16,9,15,Jits_Phase_8,0,5,56,103,795849024
16,9,15,Jits_Phase_8,1,1,48,29,795871132
16,9,15,Jits_Phase_8,2,5,80,127,795899284
16,9,15,Jits_Phase_8,3,5,63,98,795939232
16,9,15,Jits_Phase_8,0,1,48,30,796616480
16,9,15,Jits_Phase_8,1,5,80,127,796678600
16,9,15,Jits_Phase_8,2,5,63,98,796709200
16,9,15,Jits_Phase_8,3,5,56,103,796778820
16,9,15,Jits_Phase_8,0,1,48,31,797489744
16,9,15,Jits_Phase_8,1,5,63,98,797508920
16,9,15,Jits_Phase_8,2,5,56,103,797538844
16,9,15,Jits_Phase_8,3,5,80,127,797598968
16,9,15,Jits_Phase_8,0,5,56,103,798249264
16,9,15,Jits_Phase_8,1,1,48,33,798250548
16,9,15,Jits_Phase_8,2,5,80,127,798253812
16,9,15,Jits_Phase_8,3,5,63,98,798369064
16,9,15,Jits_Phase_8,0,1,48,33,799019048
16,9,15,Jits_Phase_8,1,5,56,103,799128928
16,9,15,Jits_Phase_8,2,5,80,127,799168828
16,9,15,Jits_Phase_8,3,5,63,98,799179304
16,9,15,Jits_Phase_8,0,1,48,37,799856928
16,9,15,Jits_Phase_8,1,5,56,103,799888808
16,9,15,Jits_Phase_8,2,5,80,127,799909160
16,9,15,Jits_Phase_8,3,5,63,98,799989056
16,9,15,Jits_Phase_8,0,5,80,127,800679488
16,9,15,Jits_Phase_8,1,1,48,36,800680900
16,9,15,Jits_Phase_8,2,5,56,103,800778544
16,9,15,Jits_Phase_8,3,5,63,98,800788860
16,9,15,Jits_Phase_8,0,5,63,98,801449616
16,9,15,Jits_Phase_8,1,5,80,127,801508592
16,9,15,Jits_Phase_8,2,5,56,103,801518916
16,9,15,Jits_Phase_8,3,1,48,31,801531900
16,9,15,Jits_Phase_8,0,1,48,33,802210860
16,9,15,Jits_Phase_8,1,5,56,103,802249128
16,9,15,Jits_Phase_8,2,5,63,98,802318680
16,9,15,Jits_Phase_8,3,5,80,127,802322336
16,9,15,Jits_Phase_8,0,1,48,36,803055464
16,9,15,Jits_Phase_8,1,5,63,98,803078540
16,9,15,Jits_Phase_8,2,5,56,103,803128656
16,9,15,Jits_Phase_8,3,5,80,127,803131716
16,9,15,Jits_Phase_8,0,5,56,103,803839436
16,9,15,Jits_Phase_8,1,5,80,127,803842348
16,9,15,Jits_Phase_8,2,1,48,24,803866252
16,9,15,Jits_Phase_8,3,5,63,98,803928440
16,9,15,Jits_Phase_8,0,1,48,20,804654608
16,9,15,Jits_Phase_8,1,5,63,98,804678952
16,9,15,Jits_Phase_8,2,5,56,103,804769292
16,9,15,Jits_Phase_8,3,5,80,127,804798720
16,9,15,Jits_Phase_8,0,5,56,103,805468440
16,9,15,Jits_Phase_8,1,1,48,26,805476796
16,9,15,Jits_Phase_8,2,5,63,98,805568912
16,9,15,Jits_Phase_8,3,5,80,127,805598448
16,9,15,Jits_Phase_8,0,5,63,98,806288752
16,9,15,Jits_Phase_8,1,5,56,103,806299004
16,9,15,Jits_Phase_8,2,1,48,43,806311836
16,9,15,Jits_Phase_8,3,5,80,127,806389224
16,9,15,Jits_Phase_8,0,1,48,39,807095116
16,9,15,Jits_Phase_8,1,5,63,98,807108916
16,9,15,Jits_Phase_8,2,5,56,103,807188720
16,9,15,Jits_Phase_8,3,5,80,127,807191864
16,9,15,Jits_Phase_8,0,5,80,127,807868852
16,9,15,Jits_Phase_8,1,5,63,98,807889204
16,9,15,Jits_Phase_8,2,1,48,40,807892616
16,9,15,Jits_Phase_8,3,5,56,103,807948664
16,9,15,Jits_Phase_8,0,1,48,42,808682988
16,9,15,Jits_Phase_8,1,5,56,103,808708376
16,9,15,Jits_Phase_8,2,5,63,98,808729096
16,9,15,Jits_Phase_8,3,5,80,127,808732308
16,9,15,Jits_Phase_8,0,5,63,98,809448788
16,9,15,Jits_Phase_8,1,1,48,42,809451752
16,9,15,Jits_Phase_8,2,5,80,127,809528664
16,9,15,Jits_Phase_8,3,5,56,103,809539068
16,9,15,Jits_Phase_8,0,5,63,98,810269300
16,9,15,Jits_Phase_8,1,1,48,48,810272792
16,9,15,Jits_Phase_8,2,5,56,103,810288528
16,9,15,Jits_Phase_8,3,5,80,127,810338568
16,9,15,Jits_Phase_8,0,1,48,37,811021348
16,9,15,Jits_Phase_8,1,5,80,127,811068720
16,9,15,Jits_Phase_8,2,5,63,98,811108740
16,9,15,Jits_Phase_8,3,5,56,103,811129152
16,9,15,Jits_Phase_8,0,1,48,44,811836016
16,9,15,Jits_Phase_8,1,5,56,103,811908456
16,9,15,Jits_Phase_8,2,5,63,98,811918712
16,9,15,Jits_Phase_8,3,5,80,127,811939272
16,9,15,Jits_Phase_8,0,5,56,103,812638704
16,9,15,Jits_Phase_8,1,1,48,39,812691032
16,9,15,Jits_Phase_8,2,5,63,98,812728560
16,9,15,Jits_Phase_8,3,5,80,127,812789128
16,9,15,Jits_Phase_8,0,5,80,127,813468964
16,9,15,Jits_Phase_8,1,5,56,103,813479292
16,9,15,Jits_Phase_8,2,1,48,41,813480256
16,9,15,Jits_Phase_8,3,5,63,98,813548800
16,9,15,Jits_Phase_8,0,1,48,36,814284840
16,9,15,Jits_Phase_8,1,5,63,98,814298412
16,9,15,Jits_Phase_8,2,5,80,127,814388676
16,9,15,Jits_Phase_8,3,5,56,103,814399152
16,9,15,Jits_Phase_8,0,5,63,98,815028808
16,9,15,Jits_Phase_8,1,5,80,127,815078856
16,9,15,Jits_Phase_8,2,1,48,37,815114724
16,9,15,Jits_Phase_8,3,5,56,103,815139208
16,9,15,Jits_Phase_8,0,1,48,37,815811748
16,9,15,Jits_Phase_8,1,5,56,103,815848800
16,9,15,Jits_Phase_8,2,5,80,127,815898992
16,9,15,Jits_Phase_8,3,5,63,98,815918356
16,9,15,Jits_Phase_8,0,1,48,47,816546728
16,9,15,Jits_Phase_8,1,5,56,103,816618896
16,9,15,Jits_Phase_8,2,5,80,127,816679248
16,9,15,Jits_Phase_8,3,5,63,98,816748960
16,9,15,Jits_Phase_8,0,1,48,47,817399520
16,9,15,Jits_Phase_8,1,5,56,103,817418696
16,9,15,Jits_Phase_8,2,5,80,127,817449444
16,9,15,Jits_Phase_8,3,5,63,98,817478992
16,9,15,Jits_Phase_8,0,1,48,56,818174104
16,9,15,Jits_Phase_8,1,5,56,103,818259252
16,9,15,Jits_Phase_8,2,5,80,127,818278768
16,9,15,Jits_Phase_8,3,5,63,98,818339132
16,9,15,Jits_Phase_8,0,1,48,54,819023644
16,9,15,Jits_Phase_8,1,5,80,127,819138876
16,9,15,Jits_Phase_8,2,5,56,103,819149128
16,9,15,Jits_Phase_8,3,5,63,98,819159900
16,9,15,Jits_Phase_8,0,5,56,103,819898688
16,9,15,Jits_Phase_8,1,1,48,48,819907120
16,9,15,Jits_Phase_8,2,5,80,127,819938632
16,9,15,Jits_Phase_8,3,5,63,98,819969376
16,9,15,Jits_Phase_8,0,5,56,103,820668888
16,9,15,Jits_Phase_8,1,5,63,98,820698740
16,9,15,Jits_Phase_8,2,1,48,49,820735652
16,9,15,Jits_Phase_8,3,5,80,127,820738456
16,9,15,Jits_Phase_8,0,5,80,127,821419536
16,9,15,Jits_Phase_8,1,1,48,58,821437944
16,9,15,Jits_Phase_8,2,5,63,98,821468556
16,9,15,Jits_Phase_8,3,5,56,103,821489056
16,9,15,Jits_Phase_8,0,1,48,56,822206632
16,9,15,Jits_Phase_8,1,5,56,103,822248908
16,9,15,Jits_Phase_8,2,5,80,127,822318384
16,9,15,Jits_Phase_8,3,5,63,98,822378896
16,9,15,Jits_Phase_8,0,5,80,127,823048488
16,9,15,Jits_Phase_8,1,1,48,50,823073360
16,9,15,Jits_Phase_8,2,5,63,98,823138688
16,9,15,Jits_Phase_8,3,5,56,103,823159036
16,9,15,Jits_Phase_8,0,5,63,98,823868868
16,9,15,Jits_Phase_8,1,1,48,47,823884024
16,9,15,Jits_Phase_8,2,5,56,103,823889436
16,9,15,Jits_Phase_8,3,5,80,127,823929160
16,9,15,Jits_Phase_8,0,5,80,127,824628580
16,9,15,Jits_Phase_8,1,5,63,98,824649156
16,9,15,Jits_Phase_8,2,1,48,42,824688172
16,9,15,Jits_Phase_8,3,5,56,103,824728880
16,9,15,Jits_Phase_8,0,5,63,98,825419260
16,9,15,Jits_Phase_8,1,1,48,41,825499116
16,9,15,Jits_Phase_8,2,5,56,103,825528780
16,9,15,Jits_Phase_8,3,5,80,127,825531696
16,9,15,Jits_Phase_8,0,5,63,98,826239468
16,9,15,Jits_Phase_8,1,5,56,103,826248524
16,9,15,Jits_Phase_8,2,5,80,127,826251512
16,9,15,Jits_Phase_8,3,1,48,39,826267948
16,9,15,Jits_Phase_8,0,5,56,103,827018536
16,9,15,Jits_Phase_8,1,1,48,40,827035928
16,9,15,Jits_Phase_8,2,5,80,127,827138440
16,9,15,Jits_Phase_8,3,5,63,98,827179356
16,9,15,Jits_Phase_8,0,5,56,103,827838796
16,9,15,Jits_Phase_8,1,5,80,127,827918680
16,9,15,Jits_Phase_8,2,1,48,38,827936148
16,9,15,Jits_Phase_8,3,5,63,98,827939248
16,9,15,Jits_Phase_8,0,5,56,103,828638612
16,9,15,Jits_Phase_8,1,1,48,34,828714640
16,9,15,Jits_Phase_8,2,5,63,98,828749228
16,9,15,Jits_Phase_8,3,5,80,127,828752584
16,9,15,Jits_Phase_8,0,5,56,103,829479252
16,9,15,Jits_Phase_8,1,1,48,37,829492388
16,9,15,Jits_Phase_8,2,5,80,127,829509092
16,9,15,Jits_Phase_8,3,5,63,98,829528400
16,9,15,Jits_Phase_8,0,1,48,44,830260032
16,9,15,Jits_Phase_8,1,5,63,98,830268736
16,9,15,Jits_Phase_8,2,5,56,103,830279212
16,9,15,Jits_Phase_8,3,5,80,127,830289244
16,9,15,Jits_Phase_8,0,1,48,44,831026996
16,9,15,Jits_Phase_8,1,5,80,127,831059328
16,9,15,Jits_Phase_8,2,5,56,103,831108400
16,9,15,Jits_Phase_8,3,5,63,98,831149376
16,9,15,Jits_Phase_8,0,1,48,41,831862684
16,9,15,Jits_Phase_8,1,5,80,127,831878500
16,9,15,Jits_Phase_8,2,5,63,98,831898924
16,9,15,Jits_Phase_8,3,5,56,103,831949216
16,9,15,Jits_Phase_8,0,1,48,48,832655900
16,9,15,Jits_Phase_8,1,5,80,127,832688544
16,9,15,Jits_Phase_8,2,5,56,103,832719220
16,9,15,Jits_Phase_8,3,5,63,98,832789212
16,9,15,Jits_Phase_8,0,5,56,103,833538468
16,9,15,Jits_Phase_8,1,1,48,38,833541136
16,9,15,Jits_Phase_8,2,5,80,127,833548640
16,9,15,Jits_Phase_8,3,5,63,98,833588660
16,9,15,Jits_Phase_8,0,5,56,103,834249200
16,9,15,Jits_Phase_8,1,5,63,98,834268508
16,9,15,Jits_Phase_8,2,1,48,48,834329140
16,9,15,Jits_Phase_8,3,5,80,127,834339112
16,9,15,Jits_Phase_8,0,1,48,43,835037168
16,9,15,Jits_Phase_8,1,5,63,98,835069352
16,9,15,Jits_Phase_8,2,5,80,127,835128744
16,9,15,Jits_Phase_8,3,5,56,103,835149152
16,9,15,Jits_Phase_8,0,5,80,127,835858984
16,9,15,Jits_Phase_8,1,1,48,43,835863740
16,9,15,Jits_Phase_8,2,5,56,103,835888604
16,9,15,Jits_Phase_8,3,5,63,98,835919272
16,9,15,Jits_Phase_8,0,1,48,39,836638344
16,9,15,Jits_Phase_8,1,5,56,103,836658416
16,9,15,Jits_Phase_8,2,5,63,98,836719000
16,9,15,Jits_Phase_8,3,5,80,127,836779424
16,9,15,Jits_Phase_8,0,1,48,38,837454736
16,9,15,Jits_Phase_8,1,5,80,127,837478932
16,9,15,Jits_Phase_8,2,5,56,103,837499132
16,9,15,Jits_Phase_8,3,5,63,98,837568856
16,9,15,Jits_Phase_8,0,5,80,127,838278440
16,9,15,Jits_Phase_8,1,5,63,98,838299016
16,9,15,Jits_Phase_8,2,1,48,43,838316944
16,9,15,Jits_Phase_8,3,5,56,103,838328660
16,9,15,Jits_Phase_8,0,5,80,127,839069124
16,9,15,Jits_Phase_8,1,5,63,98,839088756
16,9,15,Jits_Phase_8,2,1,48,46,839093736
16,9,15,Jits_Phase_8,3,5,56,103,839148812
16,9,15,Jits_Phase_8,0,5,80,127,839868660
16,9,15,Jits_Phase_8,1,1,48,39,839918972
16,9,15,Jits_Phase_8,2,5,56,103,839969036
16,9,15,Jits_Phase_8,3,5,63,98,839998956
16,9,15,Jits_Phase_8,0,5,63,98,840659204
16,9,15,Jits_Phase_8,1,5,80,127,840708500
16,9,15,Jits_Phase_8,2,1,48,42,840718944
16,9,15,Jits_Phase_8,3,5,56,103,840729064
16,9,15,Jits_Phase_8,0,1,48,38,841451860
16,9,15,Jits_Phase_8,1,5,80,127,841498932
16,9,15,Jits_Phase_8,2,5,56,103,841528780
16,9,15,Jits_Phase_8,3,5,63,98,841531920
16,9,15,Jits_Phase_8,0,1,48,47,842297508
16,9,15,Jits_Phase_8,1,5,63,98,842348764
16,9,15,Jits_Phase_8,2,5,56,103,842388784
16,9,15,Jits_Phase_8,3,5,80,127,842409268
16,9,15,Jits_Phase_8,0,5,80,127,843108856
16,9,15,Jits_Phase_8,1,1,48,48,843137556
16,9,15,Jits_Phase_8,2,5,63,98,843188760
16,9,15,Jits_Phase_8,3,5,56,103,843228632
16,9,15,Jits_Phase_8,0,5,63,98,843928868
16,9,15,Jits_Phase_8,1,1,48,48,843957444
16,9,15,Jits_Phase_8,2,5,80,127,844008920
16,9,15,Jits_Phase_8,3,5,56,103,844029272
16,9,15,Jits_Phase_8,0,5,56,103,844768564
16,9,15,Jits_Phase_8,1,1,48,46,844769528
16,9,15,Jits_Phase_8,2,5,63,98,844778736
16,9,15,Jits_Phase_8,3,5,80,127,844818680
16,9,15,Jits_Phase_8,0,5,56,103,845488496
16,9,15,Jits_Phase_8,1,5,80,127,845491408
16,9,15,Jits_Phase_8,2,1,48,42,845548828
16,9,15,Jits_Phase_8,3,5,63,98,845628728
16,9,15,Jits_Phase_8,0,5,56,103,846279168
16,9,15,Jits_Phase_8,1,1,48,48,846355652
16,9,15,Jits_Phase_8,2,5,63,98,846369072
16,9,15,Jits_Phase_8,3,5,80,127,846438784
16,9,15,Jits_Phase_8,0,1,48,44,847123900
16,9,15,Jits_Phase_8,1,5,63,98,847158636
16,9,15,Jits_Phase_8,2,5,80,127,847161920
16,9,15,Jits_Phase_8,3,5,56,103,847219220
16,9,15,Jits_Phase_8,0,1,48,47,847939256
16,9,15,Jits_Phase_8,1,5,80,127,847999416
16,9,15,Jits_Phase_8,2,5,56,103,848018648
16,9,15,Jits_Phase_8,3,5,63,98,848029196
16,9,15,Jits_Phase_8,0,5,56,103,848709172
16,9,15,Jits_Phase_8,1,5,63,98,848719132
16,9,15,Jits_Phase_8,2,1,48,47,848773252
16,9,15,Jits_Phase_8,3,5,80,127,848788912
16,9,15,Jits_Phase_8,0,5,80,127,849508836
16,9,15,Jits_Phase_8,1,1,48,49,849523464
16,9,15,Jits_Phase_8,2,5,56,103,849559172
16,9,15,Jits_Phase_8,3,5,63,98,849609240
16,9,15,Jits_Phase_8,0,1,48,53,850323720
16,9,15,Jits_Phase_8,1,5,56,103,850389372
16,9,15,Jits_Phase_8,2,5,63,98,850398580
16,9,15,Jits_Phase_8,3,5,80,127,850438440
16,9,15,Jits_Phase_8,0,5,56,103,851128604
16,9,15,Jits_Phase_8,1,1,48,47,851137108
16,9,15,Jits_Phase_8,2,5,63,98,851168620
16,9,15,Jits_Phase_8,3,5,80,127,851218660
16,9,15,Jits_Phase_8,0,5,80,127,851888404
16,9,15,Jits_Phase_8,1,1,48,51,851896536
16,9,15,Jits_Phase_8,2,5,56,103,851938592
16,9,15,Jits_Phase_8,3,5,63,98,851959088
16,9,15,Jits_Phase_8,0,1,48,48,852651500
16,9,15,Jits_Phase_8,1,5,80,127,852698528
16,9,15,Jits_Phase_8,2,5,63,98,852759100
16,9,15,Jits_Phase_8,3,5,56,103,852838832
16,9,15,Jits_Phase_8,0,5,80,127,853478728
16,9,15,Jits_Phase_8,1,1,48,48,853502928
16,9,15,Jits_Phase_8,2,5,56,103,853518744
16,9,15,Jits_Phase_8,3,5,63,98,853539096
16,9,15,Jits_Phase_8,0,1,48,48,854295468
16,9,15,Jits_Phase_8,1,5,56,103,854328864
16,9,15,Jits_Phase_8,2,5,80,127,854339340
16,9,15,Jits_Phase_8,3,5,63,98,854378988
16,9,15,Jits_Phase_8,0,1,48,51,855094072
16,9,15,Jits_Phase_8,1,5,56,103,855199108
16,9,15,Jits_Phase_8,2,5,63,98,855239152
16,9,15,Jits_Phase_8,3,5,80,127,855242436
16,9,15,Jits_Phase_8,0,5,63,98,855868932
16,9,15,Jits_Phase_8,1,5,80,127,855908656
16,9,15,Jits_Phase_8,2,1,48,40,855976900
16,9,15,Jits_Phase_8,3,5,56,103,855979480
16,9,15,Jits_Phase_8,0,5,63,98,856638812
16,9,15,Jits_Phase_8,1,1,48,43,856701536
16,9,15,Jits_Phase_8,2,5,56,103,856718840
16,9,15,Jits_Phase_8,3,5,80,127,856779080
16,9,15,Jits_Phase_8,0,1,48,41,857417264
16,9,15,Jits_Phase_8,1,5,80,127,857449072
16,9,15,Jits_Phase_8,2,5,63,98,857499116
16,9,15,Jits_Phase_8,3,5,56,103,857528828
16,9,15,Jits_Phase_8,0,1,48,45,858216148
16,9,15,Jits_Phase_8,1,5,56,103,858239444
16,9,15,Jits_Phase_8,2,5,63,98,858288468
16,9,15,Jits_Phase_8,3,5,80,127,858298720
16,9,15,Jits_Phase_8,0,1,48,39,859014968
16,9,15,Jits_Phase_8,1,5,56,103,859049332
16,9,15,Jits_Phase_8,2,5,63,98,859158996
16,9,15,Jits_Phase_8,3,5,80,127,859179272
16,9,15,Jits_Phase_8,0,1,48,43,859840228
16,9,15,Jits_Phase_8,1,5,63,98,859848936
16,9,15,Jits_Phase_8,2,5,80,127,859899128
16,9,15,Jits_Phase_8,3,5,56,103,859989536
16,9,15,Jits_Phase_8,0,5,63,98,860638936
16,9,15,Jits_Phase_8,1,5,80,127,860669240
16,9,15,Jits_Phase_8,2,1,48,43,860686500
16,9,15,Jits_Phase_8,3,5,56,103,860759360
16,9,15,Jits_Phase_8,0,5,63,98,861439332
16,9,15,Jits_Phase_8,1,5,56,103,861448616
16,9,15,Jits_Phase_8,2,1,48,43,861451056
16,9,15,Jits_Phase_8,3,5,80,127,861549044
16,9,15,Jits_Phase_8,0,1,48,45,862203260
16,9,15,Jits_Phase_8,1,5,63,98,862338436
16,9,15,Jits_Phase_8,2,5,80,127,862369184
16,9,15,Jits_Phase_8,3,5,56,103,862398684
16,9,15,Jits_Phase_8,0,1,48,44,863087680
16,9,15,Jits_Phase_8,1,5,80,127,863158780
16,9,15,Jits_Phase_8,2,5,63,98,863168812
16,9,15,Jits_Phase_8,3,5,56,103,863198568
16,9,15,Jits_Phase_8,0,5,80,127,863858940
16,9,15,Jits_Phase_8,1,5,63,98,863878692
16,9,15,Jits_Phase_8,2,1,48,43,863924684
16,9,15,Jits_Phase_8,3,5,56,103,863928680
16,9,15,Jits_Phase_8,0,1,48,47,864641664
16,9,15,Jits_Phase_8,1,5,63,98,864688764
16,9,15,Jits_Phase_8,2,5,80,127,864749112
16,9,15,Jits_Phase_8,3,5,56,103,864769536
16,9,15,Jits_Phase_8,0,5,63,98,865449576
16,9,15,Jits_Phase_8,1,1,48,42,865459752
16,9,15,Jits_Phase_8,2,5,56,103,865498372
16,9,15,Jits_Phase_8,3,5,80,127,865508624
16,9,15,Jits_Phase_8,0,1,48,40,866203928
16,9,15,Jits_Phase_8,1,5,56,103,866278708
16,9,15,Jits_Phase_8,2,5,80,127,866288888
16,9,15,Jits_Phase_8,3,5,63,98,866389544
16,9,15,Jits_Phase_8,0,5,80,127,867038572
16,9,15,Jits_Phase_8,1,5,63,98,867048900
16,9,15,Jits_Phase_8,2,1,48,38,867085888
16,9,15,Jits_Phase_8,3,5,56,103,867199436
16,9,15,Jits_Phase_8,0,5,63,98,867848632
16,9,15,Jits_Phase_8,1,1,48,39,867887528
16,9,15,Jits_Phase_8,2,5,80,127,867889396
16,9,15,Jits_Phase_8,3,5,56,103,867969500
16,9,15,Jits_Phase_8,0,5,56,103,868599508
16,9,15,Jits_Phase_8,1,1,48,31,868678920
16,9,15,Jits_Phase_8,2,5,80,127,868698540
16,9,15,Jits_Phase_8,3,5,63,98,868718888
16,9,15,Jits_Phase_8,0,5,80,127,869419444
16,9,15,Jits_Phase_8,1,5,56,103,869428580
16,9,15,Jits_Phase_8,2,1,48,22,869452860
16,9,15,Jits_Phase_8,3,1,38,11,869465624
16,9,15,Jits_Phase_8,4,5,63,98,869518756
16,9,15,Jits_Phase_8,0,1,48,37,870203364
16,9,15,Jits_Phase_8,1,5,56,103,870219404
16,9,15,Jits_Phase_8,2,5,63,98,870238636
16,9,15,Jits_Phase_8,3,5,80,127,870318456
16,9,15,Jits_Phase_8,0,5,63,98,870968584
16,9,15,Jits_Phase_8,1,1,48,42,871020164
16,9,15,Jits_Phase_8,2,5,56,103,871058780
16,9,15,Jits_Phase_8,3,5,80,127,871062064
16,9,15,Jits_Phase_8,0,1,48,54,871782768
16,9,15,Jits_Phase_8,1,5,56,103,871799324
16,9,15,Jits_Phase_8,2,5,80,127,871858444
16,9,15,Jits_Phase_8,3,5,63,98,871868920
16,9,15,Jits_Phase_8,0,1,48,51,872593560
16,9,15,Jits_Phase_8,1,5,80,127,872649332
16,9,15,Jits_Phase_8,2,5,56,103,872659288
16,9,15,Jits_Phase_8,3,5,63,98,872662352
16,9,15,Jits_Phase_8,0,1,48,46,873409264
16,9,15,Jits_Phase_8,1,5,56,103,873410680
16,9,15,Jits_Phase_8,2,5,80,127,873419140
16,9,15,Jits_Phase_8,3,5,63,98,873438448
16,9,15,Jits_Phase_8,0,5,63,98,874178996
16,9,15,Jits_Phase_8,1,1,48,43,874182860
16,9,15,Jits_Phase_8,2,5,80,127,874239208
16,9,15,Jits_Phase_8,3,5,56,103,874288636
16,9,15,Jits_Phase_8,0,1,48,51,874980636
16,9,15,Jits_Phase_8,1,5,63,98,875058448
16,9,15,Jits_Phase_8,2,5,56,103,875069000
16,9,15,Jits_Phase_8,3,5,80,127,875119104
16,9,15,Jits_Phase_8,0,5,63,98,875759080
16,9,15,Jits_Phase_8,1,5,80,127,875778312
16,9,15,Jits_Phase_8,2,5,56,103,875788788
16,9,15,Jits_Phase_8,3,1,48,49,875828408
16,9,15,Jits_Phase_8,0,5,63,98,876558872
16,9,15,Jits_Phase_8,1,5,80,127,876562228
16,9,15,Jits_Phase_8,2,1,48,46,876572980
16,9,15,Jits_Phase_8,3,5,56,103,876598736
16,9,15,Jits_Phase_8,0,1,48,45,877300428
16,9,15,Jits_Phase_8,1,5,63,98,877429164
16,9,15,Jits_Phase_8,2,5,80,127,877459016
16,9,15,Jits_Phase_8,3,5,56,103,877469120
16,9,15,Jits_Phase_8,0,5,56,103,878178876
16,9,15,Jits_Phase_8,1,1,48,43,878204276
16,9,15,Jits_Phase_8,2,5,80,127,878209392
16,9,15,Jits_Phase_8,3,5,63,98,878239016
16,9,15,Jits_Phase_8,0,1,48,43,878998104
16,9,15,Jits_Phase_8,1,5,63,98,879078784
16,9,15,Jits_Phase_8,2,5,56,103,879118716
16,9,15,Jits_Phase_8,3,5,80,127,879121924
16,9,15,Jits_Phase_8,0,5,80,127,879779236
16,9,15,Jits_Phase_8,1,1,48,37,879839072
16,9,15,Jits_Phase_8,2,5,56,103,879858992
16,9,15,Jits_Phase_8,3,5,63,98,879909108
16,9,15,Jits_Phase_8,0,5,80,127,880558360
16,9,15,Jits_Phase_8,1,5,56,103,880579008
16,9,15,Jits_Phase_8,2,1,48,41,880617656
16,9,15,Jits_Phase_8,3,5,63,98,880668984
16,9,15,Jits_Phase_8,0,1,48,43,881380272
16,9,15,Jits_Phase_8,1,5,80,127,881399148
16,9,15,Jits_Phase_8,2,5,63,98,881439096
16,9,15,Jits_Phase_8,3,5,56,103,881479100
16,9,15,Jits_Phase_8,0,1,48,40,882209500
16,9,15,Jits_Phase_8,1,5,63,98,882210988
16,9,15,Jits_Phase_8,2,5,80,127,882268664
16,9,15,Jits_Phase_8,3,5,56,103,882299188
16,9,15,Jits_Phase_8,0,5,56,103,883049008
16,9,15,Jits_Phase_8,1,5,80,127,883078784
16,9,15,Jits_Phase_8,2,1,48,43,883095732
16,9,15,Jits_Phase_8,3,5,63,98,883168780
16,9,15,Jits_Phase_8,0,5,56,103,883858696
16,9,15,Jits_Phase_8,1,1,48,44,883942684
16,9,15,Jits_Phase_8,2,5,80,127,883969340
16,9,15,Jits_Phase_8,3,5,63,98,883999040
16,9,15,Jits_Phase_8,0,5,56,103,884708724
16,9,15,Jits_Phase_8,1,1,48,40,884733976
16,9,15,Jits_Phase_8,2,5,63,98,884769232
16,9,15,Jits_Phase_8,3,5,80,127,884798932
16,9,15,Jits_Phase_8,0,5,56,103,885478704
16,9,15,Jits_Phase_8,1,1,48,45,885495948
16,9,15,Jits_Phase_8,2,5,63,98,885549456
16,9,15,Jits_Phase_8,3,5,80,127,885568836
16,9,15,Jits_Phase_8,0,5,80,127,886248820
16,9,15,Jits_Phase_8,1,5,63,98,886269396
16,9,15,Jits_Phase_8,2,1,48,32,886310208
16,9,15,Jits_Phase_8,3,5,56,103,886318532
16,9,15,Jits_Phase_8,0,5,63,98,887069048
16,9,15,Jits_Phase_8,1,5,80,127,887079376
16,9,15,Jits_Phase_8,2,1,48,40,887081016
16,9,15,Jits_Phase_8,3,5,56,103,887128588
16,9,15,Jits_Phase_8,0,1,48,40,887852352
16,9,15,Jits_Phase_8,1,5,63,98,887868688
16,9,15,Jits_Phase_8,2,5,80,127,887938404
16,9,15,Jits_Phase_8,3,5,56,103,887958964
16,9,15,Jits_Phase_8,0,1,48,40,888669584
16,9,15,Jits_Phase_8,1,5,63,98,888699372
16,9,15,Jits_Phase_8,2,5,80,127,888702660
16,9,15,Jits_Phase_8,3,5,56,103,888768872
16,9,15,Jits_Phase_8,0,5,80,127,889448912
16,9,15,Jits_Phase_8,1,5,56,103,889469560
16,9,15,Jits_Phase_8,2,5,63,98,889478472
16,9,15,Jits_Phase_8,3,1,48,30,889525800
16,9,15,Jits_Phase_8,0,1,48,37,890261996
16,9,15,Jits_Phase_8,1,5,56,103,890269056
16,9,15,Jits_Phase_8,2,5,63,98,890359268
16,9,15,Jits_Phase_8,3,5,80,127,890362556
16,9,15,Jits_Phase_8,0,5,80,127,891039236
16,9,15,Jits_Phase_8,1,5,56,103,891049564
16,9,15,Jits_Phase_8,2,1,48,37,891068448
16,9,15,Jits_Phase_8,3,5,63,98,891070228
16,9,15,Jits_Phase_8,0,5,63,98,891838692
16,9,15,Jits_Phase_8,1,1,48,35,891839656
16,9,15,Jits_Phase_8,2,5,80,127,891899348
16,9,15,Jits_Phase_8,3,5,56,103,891908556
16,9,15,Jits_Phase_8,0,1,48,34,892644656
16,9,15,Jits_Phase_8,1,5,63,98,892709384
16,9,15,Jits_Phase_8,2,5,80,127,892738864
16,9,15,Jits_Phase_8,3,5,56,103,892778796
16,9,15,Jits_Phase_8,0,1,48,39,893493456
16,9,15,Jits_Phase_8,1,5,56,103,893498720
16,9,15,Jits_Phase_8,2,5,80,127,893509048
16,9,15,Jits_Phase_8,3,5,63,98,893548848
16,9,15,Jits_Phase_8,0,5,80,127,894258436
16,9,15,Jits_Phase_8,1,1,48,38,894306584
16,9,15,Jits_Phase_8,2,5,56,103,894338316
16,9,15,Jits_Phase_8,3,5,63,98,894348792
16,9,15,Jits_Phase_8,0,1,48,33,895104660
16,9,15,Jits_Phase_8,1,5,80,127,895108432
16,9,15,Jits_Phase_8,2,5,56,103,895189316
16,9,15,Jits_Phase_8,3,5,63,98,895198508
16,9,15,Jits_Phase_8,0,1,48,25,895921772
16,9,15,Jits_Phase_8,1,5,80,127,895949104
16,9,15,Jits_Phase_8,2,5,56,103,895999296
16,9,15,Jits_Phase_8,3,5,63,98,896048352
16,9,15,Jits_Phase_8,0,1,48,26,896776328
16,9,15,Jits_Phase_8,1,5,56,103,896889268
16,9,15,Jits_Phase_8,2,5,63,98,896892256
16,9,15,Jits_Phase_8,3,5,80,127,896939312
16,9,15,Jits_Phase_8,0,1,48,37,897701292
16,9,15,Jits_Phase_8,1,5,56,103,897709348
16,9,15,Jits_Phase_8,2,5,63,98,897739128
16,9,15,Jits_Phase_8,3,5,80,127,897749380
16,9,15,Jits_Phase_8,0,5,63,98,898419156
16,9,15,Jits_Phase_8,1,5,56,103,898488896
16,9,15,Jits_Phase_8,2,1,48,35,898519388
16,9,15,Jits_Phase_8,3,5,80,127,898538932
16,9,15,Jits_Phase_8,0,5,63,98,899248380
16,9,15,Jits_Phase_8,1,5,56,103,899258928
16,9,15,Jits_Phase_8,2,5,80,127,899261916
16,9,15,Jits_Phase_8,3,1,48,26,899297944
16,9,15,Jits_Phase_8,0,5,80,127,899999072
16,9,15,Jits_Phase_8,1,1,48,22,900045360
16,9,15,Jits_Phase_8,2,5,56,103,900058336
16,9,15,Jits_Phase_8,3,5,63,98,900148528
16,9,15,Jits_Phase_8,0,5,80,127,900799060
16,9,15,Jits_Phase_8,1,1,48,27,900830148
16,9,15,Jits_Phase_8,2,5,56,103,900899284
16,9,15,Jits_Phase_8,3,5,63,98,900939216
16,9,15,Jits_Phase_8,0,5,56,103,901648840
16,9,15,Jits_Phase_8,1,1,48,32,901651956
16,9,15,Jits_Phase_8,2,5,63,98,901669408
16,9,15,Jits_Phase_8,3,5,80,127,901709280
16,9,15,Jits_Phase_8,0,5,63,98,902418960
16,9,15,Jits_Phase_8,1,5,56,103,902439312
16,9,15,Jits_Phase_8,2,1,48,29,902441676
16,9,15,Jits_Phase_8,3,5,80,127,902538708
16,9,15,Jits_Phase_8,0,5,63,98,903209184
16,9,15,Jits_Phase_8,1,1,48,33,903228012
16,9,15,Jits_Phase_8,2,5,80,127,903318980
16,9,15,Jits_Phase_8,3,5,56,103,903348764
16,9,15,Jits_Phase_8,0,5,56,103,904028804
16,9,15,Jits_Phase_8,1,5,63,98,904059180
16,9,15,Jits_Phase_8,2,1,48,37,904060220
16,9,15,Jits_Phase_8,3,5,80,127,904109388
16,9,15,Jits_Phase_8,0,5,63,98,904798700
16,9,15,Jits_Phase_8,1,5,56,103,904829220
16,9,15,Jits_Phase_8,2,1,48,39,904840712
16,9,15,Jits_Phase_8,3,5,80,127,904878608
16,9,15,Jits_Phase_8,0,1,48,40,905605184
16,9,15,Jits_Phase_8,1,5,56,103,905629076
16,9,15,Jits_Phase_8,2,5,63,98,905648632
16,9,15,Jits_Phase_8,3,5,80,127,905729616
16,9,15,Jits_Phase_8,0,1,48,42,906395180
16,9,15,Jits_Phase_8,1,5,63,98,906398956
16,9,15,Jits_Phase_8,2,5,56,103,906458896
16,9,15,Jits_Phase_8,3,5,80,127,906489120
16,9,15,Jits_Phase_8,0,1,48,34,907227700
16,9,15,Jits_Phase_8,1,5,56,103,907238716
16,9,15,Jits_Phase_8,2,5,80,127,907299228
16,9,15,Jits_Phase_8,3,5,63,98,907339084
16,9,15,Jits_Phase_8,0,5,63,98,908018928
16,9,15,Jits_Phase_8,1,1,48,35,908069164
16,9,15,Jits_Phase_8,2,5,56,103,908078684
16,9,15,Jits_Phase_8,3,5,80,127,908149072
16,9,15,Jits_Phase_8,0,1,48,40,908877564
16,9,15,Jits_Phase_8,1,5,56,103,908898604
16,9,15,Jits_Phase_8,2,5,63,98,908909004
16,9,15,Jits_Phase_8,3,5,80,127,908912436
16,9,15,Jits_Phase_8,0,5,63,98,909639164
16,9,15,Jits_Phase_8,1,1,48,42,909683864
16,9,15,Jits_Phase_8,2,5,56,103,909698624
16,9,15,Jits_Phase_8,3,5,80,127,909701612
16,9,15,Jits_Phase_8,0,5,63,98,910419584
16,9,15,Jits_Phase_8,1,1,48,30,910422252
16,9,15,Jits_Phase_8,2,5,80,127,910448980
16,9,15,Jits_Phase_8,3,5,56,103,910468660
16,9,15,Jits_Phase_8,0,5,56,103,911149300
16,9,15,Jits_Phase_8,1,1,48,33,911178972
16,9,15,Jits_Phase_8,2,5,63,98,911198516
16,9,15,Jits_Phase_8,3,5,80,127,911278556
16,9,15,Jits_Phase_8,0,5,80,127,911848904
16,9,15,Jits_Phase_8,1,5,63,98,911888852
16,9,15,Jits_Phase_8,2,5,56,103,911909276
16,9,15,Jits_Phase_8,3,1,48,33,911934076
16,9,15,Jits_Phase_8,0,1,48,33,912654280
16,9,15,Jits_Phase_8,1,5,56,103,912719240
16,9,15,Jits_Phase_8,2,5,80,127,912728376
16,9,15,Jits_Phase_8,3,5,63,98,912748872
16,9,15,Jits_Phase_8,0,1,48,26,913469580
16,9,15,Jits_Phase_8,1,5,56,103,913498624
16,9,15,Jits_Phase_8,2,5,63,98,913548592
16,9,15,Jits_Phase_8,3,5,80,127,913579424
16,9,15,Jits_Phase_8,0,5,56,103,914249364
16,9,15,Jits_Phase_8,1,5,63,98,914259396
16,9,15,Jits_Phase_8,2,1,48,34,914275372
16,9,15,Jits_Phase_8,3,5,80,127,914308384
16,9,15,Jits_Phase_8,0,1,48,32,915030960
16,9,15,Jits_Phase_8,1,5,56,103,915038620
16,9,15,Jits_Phase_8,2,5,80,127,915041680
16,9,15,Jits_Phase_8,3,5,63,98,915199356
16,9,15,Jits_Phase_8,0,5,63,98,915858984
16,9,15,Jits_Phase_8,1,1,48,38,915906932
16,9,15,Jits_Phase_8,2,5,56,103,915928344
16,9,15,Jits_Phase_8,3,5,80,127,915969260
16,9,15,Jits_Phase_8,0,1,48,24,916653240
16,9,15,Jits_Phase_8,1,5,63,98,916698372
16,9,15,Jits_Phase_8,2,5,56,103,916788712
16,9,15,Jits_Phase_8,3,5,80,127,916791700
16,9,15,Jits_Phase_8,0,1,48,35,917455952
16,9,15,Jits_Phase_8,1,5,56,103,917478872
16,9,15,Jits_Phase_8,2,5,63,98,917568988
16,9,15,Jits_Phase_8,3,5,80,127,917579092
16,9,15,Jits_Phase_8,0,1,48,32,918243568
16,9,15,Jits_Phase_8,1,5,56,103,918249056
16,9,15,Jits_Phase_8,2,5,63,98,918299176
16,9,15,Jits_Phase_8,3,5,80,127,918328652
16,9,15,Jits_Phase_8,0,1,48,27,919065872
16,9,15,Jits_Phase_8,1,5,63,98,919128364
16,9,15,Jits_Phase_8,2,5,80,127,919138844
16,9,15,Jits_Phase_8,3,5,56,103,919199188
16,9,15,Jits_Phase_8,0,5,63,98,919849264
16,9,15,Jits_Phase_8,1,1,48,30,919879308
16,9,15,Jits_Phase_8,2,5,80,127,919908652
16,9,15,Jits_Phase_8,3,5,56,103,919948524
16,9,15,Jits_Phase_8,0,1,48,30,920654932
16,9,15,Jits_Phase_8,1,5,56,103,920749380
16,9,15,Jits_Phase_8,2,5,80,127,920769120
16,9,15,Jits_Phase_8,3,5,63,98,920789468
16,9,15,Jits_Phase_8,0,5,63,98,921469292
16,9,15,Jits_Phase_8,1,5,56,103,921489044
16,9,15,Jits_Phase_8,2,1,48,38,921492008
16,9,15,Jits_Phase_8,3,5,80,127,921528856
16,9,15,Jits_Phase_8,0,1,48,35,922254236
16,9,15,Jits_Phase_8,1,5,63,98,922279404
16,9,15,Jits_Phase_8,2,5,80,127,922308956
16,9,15,Jits_Phase_8,3,5,56,103,922328412
16,9,15,Jits_Phase_8,0,5,80,127,923049192
16,9,15,Jits_Phase_8,1,1,48,20,923064264
16,9,15,Jits_Phase_8,2,5,56,103,923098408
16,9,15,Jits_Phase_8,3,5,63,98,923158828
16,9,15,Jits_Phase_8,0,5,63,98,923838756
16,9,15,Jits_Phase_8,1,1,48,22,923902524
16,9,15,Jits_Phase_8,2,5,56,103,923958872
16,9,15,Jits_Phase_8,3,5,80,127,923989468
16,9,15,Jits_Phase_8,0,5,80,127,924678644
16,9,15,Jits_Phase_8,1,5,63,98,924698924
16,9,15,Jits_Phase_8,2,1,48,33,924710340
16,9,15,Jits_Phase_8,3,5,56,103,924768776
16,9,15,Jits_Phase_8,0,5,63,98,925498952
16,9,15,Jits_Phase_8,1,5,56,103,925508984
16,9,15,Jits_Phase_8,2,1,48,43,925523020
16,9,15,Jits_Phase_8,3,5,80,127,925588860
16,9,15,Jits_Phase_8,0,1,48,43,926310164
16,9,15,Jits_Phase_8,1,5,56,103,926358884
16,9,15,Jits_Phase_8,2,5,80,127,926388760
16,9,15,Jits_Phase_8,3,5,63,98,926398940
16,9,15,Jits_Phase_8,0,9999,9999,9999,791516280
16,9,15,Jits_Phase_8,1,9999,9999,9999,792316980
16,9,15,Jits_Phase_8,2,9999,9999,9999,793116780
16,9,15,Jits_Phase_8,3,9999,9999,9999,793916508
16,9,15,Jits_Phase_8,4,9999,9999,9999,794716228
16,9,15,Jits_Phase_8,5,9999,9999,9999,795517004
16,9,15,Jits_Phase_8,6,9999,9999,9999,796316728
16,9,15,Jits_Phase_8,7,9999,9999,9999,797116496
16,9,15,Jits_Phase_8,8,9999,9999,9999,797916224
16,9,15,Jits_Phase_8,9,9999,9999,9999,798716984
16,9,15,Jits_Phase_8,10,9999,9999,9999,799516732
16,9,15,Jits_Phase_8,11,9999,9999,9999,800316532
16,9,15,Jits_Phase_8,12,9999,9999,9999,801116264
16,9,15,Jits_Phase_8,13,9999,9999,9999,801917044
16,9,15,Jits_Phase_8,14,9999,9999,9999,802716756
16,9,15,Jits_Phase_8,15,9999,9999,9999,803516496
16,9,15,Jits_Phase_8,16,9999,9999,9999,804316280
16,9,15,Jits_Phase_8,17,9999,9999,9999,805116996
16,9,15,Jits_Phase_8,18,9999,9999,9999,805916724
16,9,15,Jits_Phase_8,19,9999,9999,9999,806716544
16,9,15,Jits_Phase_8,20,9999,9999,9999,807516264
16,9,15,Jits_Phase_8,21,9999,9999,9999,808317032
16,9,15,Jits_Phase_8,22,9999,9999,9999,809116764
16,9,15,Jits_Phase_8,23,9999,9999,9999,809916516
16,9,15,Jits_Phase_8,24,9999,9999,9999,810716240
16,9,15,Jits_Phase_8,25,9999,9999,9999,811517008
16,9,15,Jits_Phase_8,26,9999,9999,9999,812316732
16,9,15,Jits_Phase_8,27,9999,9999,9999,813116532
16,9,15,Jits_Phase_8,28,9999,9999,9999,813916272
16,9,15,Jits_Phase_8,29,9999,9999,9999,814716988
16,9,15,Jits_Phase_8,30,9999,9999,9999,815496292
16,9,15,Jits_Phase_8,31,9999,9999,9999,816297060
16,9,15,Jits_Phase_8,32,9999,9999,9999,817096804
16,9,15,Jits_Phase_8,33,9999,9999,9999,817896524
16,9,15,Jits_Phase_8,34,9999,9999,9999,818696252
16,9,15,Jits_Phase_8,35,9999,9999,9999,819497032
16,9,15,Jits_Phase_8,36,9999,9999,9999,820296768
16,9,15,Jits_Phase_8,37,9999,9999,9999,821096508
16,9,15,Jits_Phase_8,38,9999,9999,9999,821896316
16,9,15,Jits_Phase_8,39,9999,9999,9999,822697028
16,9,15,Jits_Phase_8,40,9999,9999,9999,823496772
16,9,15,Jits_Phase_8,41,9999,9999,9999,824296508
16,9,15,Jits_Phase_8,42,9999,9999,9999,825096308
16,9,15,Jits_Phase_8,43,9999,9999,9999,825897076
16,9,15,Jits_Phase_8,44,9999,9999,9999,826696788
16,9,15,Jits_Phase_8,45,9999,9999,9999,827496516
16,9,15,Jits_Phase_8,46,9999,9999,9999,828296256
16,9,15,Jits_Phase_8,47,9999,9999,9999,829097032
16,9,15,Jits_Phase_8,48,9999,9999,9999,829916240
16,9,15,Jits_Phase_8,49,9999,9999,9999,830717020
16,9,15,Jits_Phase_8,50,9999,9999,9999,831516744
16,9,15,Jits_Phase_8,51,9999,9999,9999,832316540
16,9,15,Jits_Phase_8,52,9999,9999,9999,833116244
16,9,15,Jits_Phase_8,53,9999,9999,9999,833917020
16,9,15,Jits_Phase_8,54,9999,9999,9999,834716756
16,9,15,Jits_Phase_8,55,9999,9999,9999,835516520
16,9,15,Jits_Phase_8,56,9999,9999,9999,836316240
16,9,15,Jits_Phase_8,57,9999,9999,9999,837117024
16,9,15,Jits_Phase_8,58,9999,9999,9999,837916752
16,9,15,Jits_Phase_8,59,9999,9999,9999,838716476
16,9,15,Jits_Phase_8,60,9999,9999,9999,839516288
16,9,15,Jits_Phase_8,61,9999,9999,9999,840316996
16,9,15,Jits_Phase_8,62,9999,9999,9999,841116736
16,9,15,Jits_Phase_8,63,9999,9999,9999,841916476
16,9,15,Jits_Phase_8,64,9999,9999,9999,842756220
16,9,15,Jits_Phase_8,65,9999,9999,9999,843556916
16,9,15,Jits_Phase_8,66,9999,9999,9999,844356660
16,9,15,Jits_Phase_8,67,9999,9999,9999,845156464
16,9,15,Jits_Phase_8,68,9999,9999,9999,845956192
16,9,15,Jits_Phase_8,69,9999,9999,9999,846756976
16,9,15,Jits_Phase_8,70,9999,9999,9999,847556732
16,9,15,Jits_Phase_8,71,9999,9999,9999,848356464
16,9,15,Jits_Phase_8,72,9999,9999,9999,849156188
16,9,15,Jits_Phase_8,73,9999,9999,9999,849956972
16,9,15,Jits_Phase_8,74,9999,9999,9999,850756716
16,9,15,Jits_Phase_8,75,9999,9999,9999,851556444
16,9,15,Jits_Phase_8,76,9999,9999,9999,852356180
16,9,15,Jits_Phase_8,77,9999,9999,9999,853156964
16,9,15,Jits_Phase_8,78,9999,9999,9999,853956700
16,9,15,Jits_Phase_8,79,9999,9999,9999,854756436
16,9,15,Jits_Phase_8,80,9999,9999,9999,855556164
16,9,15,Jits_Phase_8,81,9999,9999,9999,856316988
16,9,15,Jits_Phase_8,82,9999,9999,9999,857116788
16,9,15,Jits_Phase_8,83,9999,9999,9999,857916508
16,9,15,Jits_Phase_8,84,9999,9999,9999,858716228
16,9,15,Jits_Phase_8,85,9999,9999,9999,859516996
16,9,15,Jits_Phase_8,86,9999,9999,9999,860316792
16,9,15,Jits_Phase_8,87,9999,9999,9999,861116540
16,9,15,Jits_Phase_8,88,9999,9999,9999,861916260
16,9,15,Jits_Phase_8,89,9999,9999,9999,862717040
16,9,15,Jits_Phase_8,90,9999,9999,9999,863516776
16,9,15,Jits_Phase_8,91,9999,9999,9999,864316496
16,9,15,Jits_Phase_8,92,9999,9999,9999,865116240
16,9,15,Jits_Phase_8,93,9999,9999,9999,865917000
16,9,15,Jits_Phase_8,94,9999,9999,9999,866716724
16,9,15,Jits_Phase_8,95,9999,9999,9999,867516472
16,9,15,Jits_Phase_8,96,9999,9999,9999,868316284
16,9,15,Jits_Phase_8,97,9999,9999,9999,869036108
16,9,15,Jits_Phase_8,98,9999,9999,9999,869836860
16,9,15,Jits_Phase_8,99,9999,9999,9999,870636660
16,9,15,Jits_Phase_8,100,9999,9999,9999,871436376
16,9,15,Jits_Phase_8,101,9999,9999,9999,872236100
16,9,15,Jits_Phase_8,102,9999,9999,9999,873036860
16,9,15,Jits_Phase_8,103,9999,9999,9999,873836656
16,9,15,Jits_Phase_8,104,9999,9999,9999,874636380
16,9,15,Jits_Phase_8,105,9999,9999,9999,875436116
16,9,15,Jits_Phase_8,106,9999,9999,9999,876236900
16,9,15,Jits_Phase_8,107,9999,9999,9999,877036608
16,9,15,Jits_Phase_8,108,9999,9999,9999,877836408
16,9,15,Jits_Phase_8,109,9999,9999,9999,878636132
16,9,15,Jits_Phase_8,110,9999,9999,9999,879436920
16,9,15,Jits_Phase_8,111,9999,9999,9999,880236648
16,9,15,Jits_Phase_8,112,9999,9999,9999,881036384
16,9,15,Jits_Phase_8,113,9999,9999,9999,881836124
16,9,15,Jits_Phase_8,114,9999,9999,9999,882716792
16,9,15,Jits_Phase_8,115,9999,9999,9999,883516516
16,9,15,Jits_Phase_8,116,9999,9999,9999,884316256
16,9,15,Jits_Phase_8,117,9999,9999,9999,885117048
16,9,15,Jits_Phase_8,118,9999,9999,9999,885916788
16,9,15,Jits_Phase_8,119,9999,9999,9999,886716472
16,9,15,Jits_Phase_8,120,9999,9999,9999,887516280
16,9,15,Jits_Phase_8,121,9999,9999,9999,888317052
16,9,15,Jits_Phase_8,122,9999,9999,9999,889116768
16,9,15,Jits_Phase_8,123,9999,9999,9999,889916484
16,9,15,Jits_Phase_8,124,9999,9999,9999,890716216
16,9,15,Jits_Phase_8,125,9999,9999,9999,891517052
16,9,15,Jits_Phase_8,126,9999,9999,9999,892316788
16,9,15,Jits_Phase_8,127,9999,9999,9999,893116472
16,9,15,Jits_Phase_8,128,9999,9999,9999,893916272
16,9,15,Jits_Phase_8,129,9999,9999,9999,894717040
16,9,15,Jits_Phase_8,130,9999,9999,9999,895516788
16,9,15,Jits_Phase_8,131,9999,9999,9999,896476220
16,9,15,Jits_Phase_8,132,9999,9999,9999,897277036
16,9,15,Jits_Phase_8,133,9999,9999,9999,898076768
16,9,15,Jits_Phase_8,134,9999,9999,9999,898876492
16,9,15,Jits_Phase_8,135,9999,9999,9999,899676280
16,9,15,Jits_Phase_8,136,9999,9999,9999,900477048
16,9,15,Jits_Phase_8,137,9999,9999,9999,901276788
16,9,15,Jits_Phase_8,138,9999,9999,9999,902076484
16,9,15,Jits_Phase_8,139,9999,9999,9999,902876220
16,9,15,Jits_Phase_8,140,9999,9999,9999,903676992
16,9,15,Jits_Phase_8,141,9999,9999,9999,904476788
16,9,15,Jits_Phase_8,142,9999,9999,9999,905276520
16,9,15,Jits_Phase_8,143,9999,9999,9999,906076244
16,9,15,Jits_Phase_8,144,9999,9999,9999,906877008
16,9,15,Jits_Phase_8,145,9999,9999,9999,907676736
16,9,15,Jits_Phase_8,146,9999,9999,9999,908476488
16,9,15,Jits_Phase_8,147,9999,9999,9999,909276280
16,9,15,Jits_Phase_8,148,9999,9999,9999,910077044
16,9,15,Jits_Phase_8,149,9999,9999,9999,910876768
16,9,15,Jits_Phase_8,150,9999,9999,9999,911516792
16,9,15,Jits_Phase_8,151,9999,9999,9999,912316480
16,9,15,Jits_Phase_8,152,9999,9999,9999,913116224
16,9,15,Jits_Phase_8,153,9999,9999,9999,913916996
16,9,15,Jits_Phase_8,154,9999,9999,9999,914716792
16,9,15,Jits_Phase_8,155,9999,9999,9999,915516516
16,9,15,Jits_Phase_8,156,9999,9999,9999,916316244
16,9,15,Jits_Phase_8,157,9999,9999,9999,917117016
16,9,15,Jits_Phase_8,158,9999,9999,9999,917916744
16,9,15,Jits_Phase_8,159,9999,9999,9999,918716492
16,9,15,Jits_Phase_8,160,9999,9999,9999,919516228
16,9,15,Jits_Phase_8,161,9999,9999,9999,920316992
16,9,15,Jits_Phase_8,162,9999,9999,9999,921116728
16,9,15,Jits_Phase_8,163,9999,9999,9999,921916524
16,9,15,Jits_Phase_8,164,9999,9999,9999,922716228
16,9,15,Jits_Phase_8,165,9999,9999,9999,923517044
16,9,15,Jits_Phase_8,166,9999,9999,9999,924316784
16,9,15,Jits_Phase_8,167,9999,9999,9999,925116532
16,9,15,Jits_Phase_8,168,9999,9999,9999,925916276
16,9,15,Jits_Phase_8,169,9999,9999,9999,926717056
16,10,5,ISIP_5,0,5,42,127,976876864
16,10,5,ISIP_5,1,5,42,127,977376488
16,10,5,ISIP_5,2,1,48,16,977642024
16,10,5,ISIP_5,3,5,42,127,977877360
16,10,5,ISIP_5,4,1,48,34,977910120
16,10,5,ISIP_5,5,1,48,36,978344216
16,10,5,ISIP_5,6,5,42,127,978377180
16,10,5,ISIP_5,7,1,48,37,978847228
16,10,5,ISIP_5,8,5,42,127,978876708
16,10,5,ISIP_5,9,1,48,39,979348392
16,10,5,ISIP_5,10,5,42,127,979376384
16,10,5,ISIP_5,11,1,48,46,979838292
16,10,5,ISIP_5,12,5,42,127,979877328
16,10,5,ISIP_5,13,1,48,43,980334528
16,10,5,ISIP_5,14,5,42,127,980377128
16,10,5,ISIP_5,15,1,48,47,980812628
16,10,5,ISIP_5,16,5,42,127,980876584
16,10,5,ISIP_5,17,1,48,43,981341204
16,10,5,ISIP_5,18,5,42,127,981377380
16,10,5,ISIP_5,19,1,48,45,981843864
16,10,5,ISIP_5,20,5,42,127,981877056
16,10,5,ISIP_5,21,1,48,45,982325100
16,10,5,ISIP_5,22,5,42,127,982376956
16,10,5,ISIP_5,23,1,48,47,982829852
16,10,5,ISIP_5,24,5,42,127,982876560
16,10,5,ISIP_5,25,1,48,40,983322064
16,10,5,ISIP_5,26,5,42,127,983377132
16,10,5,ISIP_5,27,1,48,36,983829732
16,10,5,ISIP_5,28,5,42,127,983877032
16,10,5,ISIP_5,29,1,48,35,984339564
16,10,5,ISIP_5,30,5,42,127,984376856
16,10,5,ISIP_5,31,1,48,40,984842672
16,10,5,ISIP_5,32,5,42,127,984877504
16,10,5,ISIP_5,33,1,48,42,985359452
16,10,5,ISIP_5,34,5,42,127,985377108
16,10,5,ISIP_5,35,1,48,45,985850684
16,10,5,ISIP_5,36,5,42,127,985877080
16,10,5,ISIP_5,37,1,48,45,986363284
16,10,5,ISIP_5,38,5,42,127,986376608
16,10,5,ISIP_5,39,1,48,44,986854368
16,10,5,ISIP_5,40,5,42,127,986877256
16,10,5,ISIP_5,41,1,48,42,987344488
16,10,5,ISIP_5,42,5,42,127,987376932
16,10,5,ISIP_5,43,1,48,50,987853792
16,10,5,ISIP_5,44,5,42,127,987876680
16,10,5,ISIP_5,45,1,48,44,988337792
16,10,5,ISIP_5,46,5,42,127,988376432
16,10,5,ISIP_5,47,1,48,48,988839632
16,10,5,ISIP_5,48,5,42,127,988877156
16,10,5,ISIP_5,49,1,48,50,989343096
16,10,5,ISIP_5,50,5,42,127,989376832
16,10,5,ISIP_5,51,1,48,48,989837548
16,10,5,ISIP_5,52,5,42,127,989876808
16,10,5,ISIP_5,53,1,48,46,990343420
16,10,5,ISIP_5,54,5,42,127,990377304
16,10,5,ISIP_5,55,1,48,45,990853324
16,10,5,ISIP_5,56,5,42,127,990877032
16,10,5,ISIP_5,57,1,48,44,991368384
16,10,5,ISIP_5,58,5,42,127,991376632
16,10,5,ISIP_5,59,1,48,41,991875708
16,10,5,ISIP_5,60,5,42,127,991877576
16,10,5,ISIP_5,61,1,48,52,992363476
16,10,5,ISIP_5,62,5,42,127,992377328
16,10,5,ISIP_5,63,1,48,49,992868608
16,10,5,ISIP_5,64,5,42,127,992876928
16,10,5,ISIP_5,65,1,48,46,993364324
16,10,5,ISIP_5,66,5,42,127,993376608
16,10,5,ISIP_5,67,1,48,51,993865272
16,10,5,ISIP_5,68,5,42,127,993877772
16,10,5,ISIP_5,69,1,48,52,994362180
16,10,5,ISIP_5,70,5,42,127,994377228
16,10,5,ISIP_5,71,1,48,41,994874948
16,10,5,ISIP_5,72,5,42,127,994876680
16,10,5,ISIP_5,73,5,42,127,995376440
16,10,5,ISIP_5,74,1,48,52,995380600
16,10,5,ISIP_5,75,5,42,127,995877160
16,10,5,ISIP_5,76,1,48,50,995892744
16,10,5,ISIP_5,77,1,48,46,996360516
16,10,5,ISIP_5,78,5,42,127,996376904
16,10,5,ISIP_5,79,1,48,53,996848540
16,10,5,ISIP_5,80,1,48,46,997376160
16,10,5,ISIP_5,81,1,48,43,997872756
16,10,5,ISIP_5,82,1,48,53,998349572
16,10,5,ISIP_5,83,1,48,42,998857240
16,10,5,ISIP_5,84,1,48,39,999377532
16,10,5,ISIP_5,85,1,48,42,999889820
16,10,5,ISIP_5,86,1,48,44,1000415408
16,10,5,ISIP_5,87,1,48,43,1000925008
16,10,5,ISIP_5,88,1,48,49,1001435956
16,10,5,ISIP_5,89,1,48,41,1001976548
16,10,5,ISIP_5,90,1,48,46,1002477560
16,10,5,ISIP_5,91,1,48,45,1003001724
16,10,5,ISIP_5,92,1,48,39,1003536424
16,10,5,ISIP_5,93,1,48,43,1004085600
16,10,5,ISIP_5,94,1,48,50,1004599160
16,10,5,ISIP_5,95,1,48,50,1005141992
16,10,5,ISIP_5,96,1,48,47,1005696996
16,10,5,ISIP_5,97,1,48,43,1006219964
16,10,5,ISIP_5,98,1,48,50,1006745396
16,10,5,ISIP_5,99,1,48,48,1007269808
16,10,5,ISIP_5,100,1,48,51,1007792928
16,10,5,ISIP_5,101,1,48,49,1008326804
16,10,5,ISIP_5,102,1,48,48,1008860072
16,10,5,ISIP_5,103,1,48,51,1009393584
16,10,5,ISIP_5,104,1,48,52,1009933804
16,10,5,ISIP_5,105,1,48,44,1010455208
16,10,5,ISIP_5,106,1,48,52,1010972648
16,10,5,ISIP_5,107,1,48,43,1011502712
16,10,5,ISIP_5,108,1,48,38,1012049956
16,10,5,ISIP_5,109,1,48,45,1012577100
16,10,5,ISIP_5,110,1,48,52,1013075504
16,10,5,ISIP_5,111,1,48,45,1013604452
16,10,5,ISIP_5,112,1,48,34,1014178368
16,10,5,ISIP_5,113,1,48,46,1014736960
16,10,5,ISIP_5,114,1,48,52,1015269708
16,10,5,ISIP_5,115,1,48,50,1015783716
16,10,5,ISIP_5,116,1,48,47,1016322664
16,10,5,ISIP_5,117,1,48,48,1016865348
16,10,5,ISIP_5,118,1,48,49,1017406552
16,10,5,ISIP_5,119,1,48,46,1017950432
16,10,5,ISIP_5,120,1,48,49,1018486168
16,10,5,ISIP_5,121,1,48,48,1019014808
16,10,5,ISIP_5,122,1,48,48,1019537928
16,10,5,ISIP_5,123,1,48,43,1020074140
16,10,5,ISIP_5,124,1,48,46,1020632052
16,10,5,ISIP_5,125,1,48,51,1021169212
16,10,5,ISIP_5,126,1,48,47,1021709508
16,10,5,ISIP_5,127,1,48,49,1022241212
16,10,5,ISIP_5,128,1,48,50,1022793600
16,10,5,ISIP_5,129,1,48,51,1023302160
16,10,5,ISIP_5,130,1,48,51,1023818184
16,10,5,ISIP_5,131,1,48,49,1024337864
16,10,5,ISIP_5,132,1,48,51,1024862028
16,10,5,ISIP_5,133,1,48,49,1025416752
16,10,5,ISIP_5,134,1,48,46,1025944348
16,10,5,ISIP_5,135,1,48,48,1026482872
16,10,5,ISIP_5,136,1,48,46,1026994720
16,10,5,ISIP_5,137,1,48,50,1027563088
16,10,5,ISIP_5,138,1,48,45,1028081348
16,10,5,ISIP_5,139,1,48,53,1028589532
16,10,5,ISIP_5,140,1,48,45,1029137672
16,10,5,ISIP_5,141,1,48,53,1029685128
16,10,5,ISIP_5,142,1,48,45,1030185848
16,10,5,ISIP_5,143,1,48,47,1030708744
16,10,5,ISIP_5,144,1,48,54,1031249112
16,10,5,ISIP_5,145,1,48,44,1031790676
16,10,5,ISIP_5,146,1,48,51,1032318200
16,10,5,ISIP_5,147,1,48,48,1032840868
16,10,5,ISIP_5,148,1,48,48,1033399940
16,10,5,ISIP_5,149,1,48,48,1033918208
16,10,5,ISIP_5,150,1,48,49,1034426840
16,10,5,ISIP_5,151,1,48,44,1035001036
16,10,5,ISIP_5,152,1,48,49,1035519228
16,10,5,ISIP_5,153,1,48,50,1036066016
16,10,5,ISIP_5,154,1,48,51,1036592792
16,10,5,ISIP_5,155,1,48,48,1037131820
16,10,5,ISIP_5,156,1,48,47,1037681512
16,10,5,ISIP_5,157,1,48,49,1038221284
16,10,5,ISIP_5,158,1,48,51,1038739928
16,10,5,ISIP_5,159,1,48,49,1039296000
16,10,5,ISIP_5,160,1,48,46,1039843984
16,10,5,ISIP_5,161,1,48,52,1040374272
16,10,5,ISIP_5,162,1,48,49,1040905916
16,10,5,ISIP_5,163,1,48,48,1041462936
16,10,5,ISIP_5,164,1,48,48,1042024516
16,10,5,ISIP_5,165,1,48,45,1042542552
16,10,5,ISIP_5,166,1,48,46,1043047228
16,10,5,ISIP_5,167,1,48,51,1043587968
16,10,5,ISIP_5,168,1,48,42,1044149348
16,10,5,ISIP_5,169,1,48,45,1044680756
16,10,5,ISIP_5,170,1,48,48,1045200288
16,10,5,ISIP_5,171,1,48,48,1045759844
16,10,5,ISIP_5,172,1,48,41,1046320600
16,10,5,ISIP_5,173,1,48,44,1046873736
16,10,5,ISIP_5,174,1,48,41,1047428008
16,10,5,ISIP_5,175,1,48,44,1047929468
16,10,5,ISIP_5,176,1,48,47,1048462820
16,10,5,ISIP_5,177,1,48,41,1049010384
16,10,5,ISIP_5,178,1,48,43,1049542160
16,10,5,ISIP_5,179,1,48,44,1050065956
16,10,5,ISIP_5,180,1,48,45,1050611248
16,10,5,ISIP_5,181,1,48,47,1051164908
16,10,5,ISIP_5,182,1,48,42,1051695492
16,10,5,ISIP_5,183,1,48,46,1052232728
16,10,5,ISIP_5,184,1,48,41,1052780260
16,10,5,ISIP_5,185,1,48,51,1053285684
16,10,5,ISIP_5,186,1,48,42,1053854572
16,10,5,ISIP_5,187,1,48,46,1054402648
16,10,5,ISIP_5,188,1,48,44,1054925464
16,10,5,ISIP_5,189,1,48,45,1055507504
16,10,5,ISIP_5,190,1,48,42,1056006576
16,10,5,ISIP_5,191,1,48,43,1056567928
16,10,5,ISIP_5,0,9999,9999,9999,976874580
16,10,5,ISIP_5,1,9999,9999,9999,977374276
16,10,5,ISIP_5,2,9999,9999,9999,977875000
16,10,5,ISIP_5,3,9999,9999,9999,978374744
16,10,5,ISIP_5,4,9999,9999,9999,978874424
16,10,5,ISIP_5,5,9999,9999,9999,979374172
16,10,5,ISIP_5,6,9999,9999,9999,979874872
16,10,5,ISIP_5,7,9999,9999,9999,980374624
16,10,5,ISIP_5,8,9999,9999,9999,980874300
16,10,5,ISIP_5,9,9999,9999,9999,981375096
16,10,5,ISIP_5,10,9999,9999,9999,981874772
16,10,5,ISIP_5,11,9999,9999,9999,982374452
16,10,5,ISIP_5,12,9999,9999,9999,982874200
16,10,5,ISIP_5,13,9999,9999,9999,983374924
16,10,5,ISIP_5,14,9999,9999,9999,983874672
16,10,5,ISIP_5,15,9999,9999,9999,984374352
16,10,5,ISIP_5,16,9999,9999,9999,984875072
16,10,5,ISIP_5,17,9999,9999,9999,985374824
16,10,5,ISIP_5,18,9999,9999,9999,985874500
16,10,5,ISIP_5,19,9999,9999,9999,986374252
16,10,5,ISIP_5,20,9999,9999,9999,986874972
16,10,5,ISIP_5,21,9999,9999,9999,987374648
16,10,5,ISIP_5,22,9999,9999,9999,987874400
16,10,5,ISIP_5,23,9999,9999,9999,988374076
16,10,5,ISIP_5,24,9999,9999,9999,988874872
16,10,5,ISIP_5,25,9999,9999,9999,989374548
16,10,5,ISIP_5,26,9999,9999,9999,989874224
16,10,5,ISIP_5,27,9999,9999,9999,990375020
16,10,5,ISIP_5,28,9999,9999,9999,990874748
16,10,5,ISIP_5,29,9999,9999,9999,991374424
16,10,5,ISIP_5,30,9999,9999,9999,991874104
16,10,5,ISIP_5,31,9999,9999,9999,992374896
16,10,5,ISIP_5,32,9999,9999,9999,992874572
16,10,5,ISIP_5,33,9999,9999,9999,993374324
16,10,5,ISIP_5,34,9999,9999,9999,993875044
16,10,5,ISIP_5,35,9999,9999,9999,994374720
16,10,5,ISIP_5,36,9999,9999,9999,994874420
16,10,5,ISIP_5,37,9999,9999,9999,995374156
16,10,5,ISIP_5,38,9999,9999,9999,995874876
16,10,5,ISIP_5,39,9999,9999,9999,996374620
16,10,5,ISIP_5,40,9999,9999,9999,996874296
16,10,5,ISIP_5,41,9999,9999,9999,997375096
16,10,5,ISIP_5,42,9999,9999,9999,997874760
16,10,5,ISIP_5,43,9999,9999,9999,998374508
16,10,5,ISIP_5,44,9999,9999,9999,998874180
16,10,5,ISIP_5,45,9999,9999,9999,999374904
16,10,5,ISIP_5,46,9999,9999,9999,999874648
16,10,5,ISIP_5,47,9999,9999,9999,1000374320
16,10,5,ISIP_5,48,9999,9999,9999,1000875112
16,10,5,ISIP_5,49,9999,9999,9999,1001374832
16,10,5,ISIP_5,50,9999,9999,9999,1001874504
16,10,5,ISIP_5,51,9999,9999,9999,1002374252
16,10,5,ISIP_5,52,9999,9999,9999,1002874968
16,10,5,ISIP_5,53,9999,9999,9999,1003374716
16,10,5,ISIP_5,54,9999,9999,9999,1003874388
16,10,5,ISIP_5,55,9999,9999,9999,1004374136
16,10,5,ISIP_5,56,9999,9999,9999,1004874852
16,10,5,ISIP_5,57,9999,9999,9999,1005374524
16,10,5,ISIP_5,58,9999,9999,9999,1005874268
16,10,5,ISIP_5,59,9999,9999,9999,1006374984
16,10,5,ISIP_5,60,9999,9999,9999,1006874732
16,10,5,ISIP_5,61,9999,9999,9999,1007374404
16,10,5,ISIP_5,62,9999,9999,9999,1007874164
16,10,5,ISIP_5,63,9999,9999,9999,1008374880
16,10,5,ISIP_5,64,9999,9999,9999,1008874552
16,10,5,ISIP_5,65,9999,9999,9999,1009374304
16,10,5,ISIP_5,66,9999,9999,9999,1009875024
16,10,5,ISIP_5,67,9999,9999,9999,1010374768
16,10,5,ISIP_5,68,9999,9999,9999,1010874440
16,10,5,ISIP_5,69,9999,9999,9999,1011374188
16,10,5,ISIP_5,70,9999,9999,9999,1011874904
16,10,5,ISIP_5,71,9999,9999,9999,1012374628
16,10,5,ISIP_5,72,9999,9999,9999,1012874296
16,10,5,ISIP_5,73,9999,9999,9999,1013375088
16,10,5,ISIP_5,74,9999,9999,9999,1013874760
16,10,5,ISIP_5,75,9999,9999,9999,1014374508
16,10,5,ISIP_5,76,9999,9999,9999,1014874180
16,10,5,ISIP_5,77,9999,9999,9999,1015374896
16,10,5,ISIP_5,78,9999,9999,9999,1015874656
16,10,5,ISIP_5,79,9999,9999,9999,1016374332
16,10,5,ISIP_5,80,9999,9999,9999,1016875120
16,10,5,ISIP_5,81,9999,9999,9999,1017374800
16,10,5,ISIP_5,82,9999,9999,9999,1017874548
16,10,5,ISIP_5,83,9999,9999,9999,1018374216
16,10,5,ISIP_5,84,9999,9999,9999,1018874932
16,10,5,ISIP_5,85,9999,9999,9999,1019374680
16,10,5,ISIP_5,86,9999,9999,9999,1019874424
16,10,5,ISIP_5,87,9999,9999,9999,1020374096
16,10,5,ISIP_5,88,9999,9999,9999,1020874812
16,10,5,ISIP_5,89,9999,9999,9999,1021374560
16,10,5,ISIP_5,90,9999,9999,9999,1021874236
16,10,5,ISIP_5,91,9999,9999,9999,1022375024
16,10,5,ISIP_5,92,9999,9999,9999,1022874688
16,10,5,ISIP_5,93,9999,9999,9999,1023374432
16,10,5,ISIP_5,94,9999,9999,9999,1023874104
16,10,5,ISIP_5,95,9999,9999,9999,1024374896
16,10,5,ISIP_5,96,9999,9999,9999,1024874568
16,10,5,ISIP_5,97,9999,9999,9999,1025374320
16,10,5,ISIP_5,98,9999,9999,9999,1025875036
16,10,5,ISIP_5,99,9999,9999,9999,1026374708
16,10,5,ISIP_5,100,9999,9999,9999,1026874456
16,10,5,ISIP_5,101,9999,9999,9999,1027374204
16,10,5,ISIP_5,102,9999,9999,9999,1027874916
16,10,5,ISIP_5,103,9999,9999,9999,1028374592
16,10,5,ISIP_5,104,9999,9999,9999,1028874336
16,10,5,ISIP_5,105,9999,9999,9999,1029375052
16,10,5,ISIP_5,106,9999,9999,9999,1029874800
16,10,5,ISIP_5,107,9999,9999,9999,1030374472
16,10,5,ISIP_5,108,9999,9999,9999,1030874220
16,10,5,ISIP_5,109,9999,9999,9999,1031374936
16,10,5,ISIP_5,110,9999,9999,9999,1031874620
16,10,5,ISIP_5,111,9999,9999,9999,1032374368
16,10,5,ISIP_5,112,9999,9999,9999,1032875084
16,10,5,ISIP_5,113,9999,9999,9999,1033374812
16,10,5,ISIP_5,114,9999,9999,9999,1033874484
16,10,5,ISIP_5,115,9999,9999,9999,1034374232
16,10,5,ISIP_5,116,9999,9999,9999,1034874948
16,10,5,ISIP_5,117,9999,9999,9999,1035374696
16,10,5,ISIP_5,118,9999,9999,9999,1035874368
16,10,5,ISIP_5,119,9999,9999,9999,1036374112
16,10,5,ISIP_5,120,9999,9999,9999,1036874828
16,10,5,ISIP_5,121,9999,9999,9999,1037374576
16,10,5,ISIP_5,122,9999,9999,9999,1037874248
16,10,5,ISIP_5,123,9999,9999,9999,1038374964
16,10,5,ISIP_5,124,9999,9999,9999,1038874712
16,10,5,ISIP_5,125,9999,9999,9999,1039374400
16,10,5,ISIP_5,126,9999,9999,9999,1039874144
16,10,5,ISIP_5,127,9999,9999,9999,1040374860
16,10,5,ISIP_5,128,9999,9999,9999,1040874616
16,10,5,ISIP_5,129,9999,9999,9999,1041374288
16,10,5,ISIP_5,130,9999,9999,9999,1041875004
16,10,5,ISIP_5,131,9999,9999,9999,1042374748
16,10,5,ISIP_5,132,9999,9999,9999,1042874424
16,10,5,ISIP_5,133,9999,9999,9999,1043374168
16,10,5,ISIP_5,134,9999,9999,9999,1043874888
16,10,5,ISIP_5,135,9999,9999,9999,1044374608
16,10,5,ISIP_5,136,9999,9999,9999,1044874352
16,10,5,ISIP_5,137,9999,9999,9999,1045375072
16,10,5,ISIP_5,138,9999,9999,9999,1045874744
16,10,5,ISIP_5,139,9999,9999,9999,1046374504
16,10,5,ISIP_5,140,9999,9999,9999,1046874176
16,10,5,ISIP_5,141,9999,9999,9999,1047374900
16,10,5,ISIP_5,142,9999,9999,9999,1047874644
16,10,5,ISIP_5,143,9999,9999,9999,1048374392
16,10,5,ISIP_5,144,9999,9999,9999,1048875108
16,10,5,ISIP_5,145,9999,9999,9999,1049374780
16,10,5,ISIP_5,146,9999,9999,9999,1049874528
16,10,5,ISIP_5,147,9999,9999,9999,1050374196
16,10,5,ISIP_5,148,9999,9999,9999,1050874988
16,10,5,ISIP_5,149,9999,9999,9999,1051374660
16,10,5,ISIP_5,150,9999,9999,9999,1051874408
16,10,5,ISIP_5,151,9999,9999,9999,1052374080
16,10,5,ISIP_5,152,9999,9999,9999,1052874812
16,10,5,ISIP_5,153,9999,9999,9999,1053374556
16,10,5,ISIP_5,154,9999,9999,9999,1053874280
16,10,5,ISIP_5,155,9999,9999,9999,1054375000
16,10,5,ISIP_5,156,9999,9999,9999,1054874724
16,10,5,ISIP_5,157,9999,9999,9999,1055374396
16,10,5,ISIP_5,158,9999,9999,9999,1055874140
16,10,5,ISIP_5,159,9999,9999,9999,1056374860
16,11,3,ISIP_8,0,5,42,127,1081151900
16,11,3,ISIP_8,1,1,48,26,1081674332
16,11,3,ISIP_8,2,5,42,127,1081951560
16,11,3,ISIP_8,3,1,48,23,1082176468
16,11,3,ISIP_8,4,1,48,31,1082672916
16,11,3,ISIP_8,5,5,42,127,1082752256
16,11,3,ISIP_8,6,1,48,35,1083550352
16,11,3,ISIP_8,7,5,42,127,1083552164
16,11,3,ISIP_8,8,5,42,127,1084352048
16,11,3,ISIP_8,9,1,48,31,1084366364
16,11,3,ISIP_8,10,5,42,127,1085151484
16,11,3,ISIP_8,11,1,48,33,1085153420
16,11,3,ISIP_8,12,5,42,127,1085952264
16,11,3,ISIP_8,13,1,48,32,1085960156
16,11,3,ISIP_8,14,5,42,127,1086752220
16,11,3,ISIP_8,15,1,48,32,1086767952
16,11,3,ISIP_8,16,5,42,127,1087551732
16,11,3,ISIP_8,17,1,48,33,1087575456
16,11,3,ISIP_8,18,1,48,31,1088339028
16,11,3,ISIP_8,19,5,42,127,1088351456
16,11,3,ISIP_8,20,1,48,30,1089129800
16,11,3,ISIP_8,21,5,42,127,1089152456
16,11,3,ISIP_8,22,1,48,29,1089911236
16,11,3,ISIP_8,23,5,42,127,1089952068
16,11,3,ISIP_8,24,1,48,32,1090736832
16,11,3,ISIP_8,25,5,42,127,1090752024
16,11,3,ISIP_8,26,1,48,30,1091547016
16,11,3,ISIP_8,27,5,42,127,1091551680
16,11,3,ISIP_8,28,5,42,127,1092352240
16,11,3,ISIP_8,29,1,48,31,1092358496
16,11,3,ISIP_8,30,1,48,27,1093138648
16,11,3,ISIP_8,31,5,42,127,1093152044
16,11,3,ISIP_8,32,1,48,34,1093944124
16,11,3,ISIP_8,33,5,42,127,1093951852
16,11,3,ISIP_8,34,1,48,29,1094716904
16,11,3,ISIP_8,35,5,42,127,1094751808
16,11,3,ISIP_8,36,1,48,31,1095518728
16,11,3,ISIP_8,37,5,42,127,1095552288
16,11,3,ISIP_8,38,1,48,33,1096327940
16,11,3,ISIP_8,39,5,42,127,1096352044
16,11,3,ISIP_8,40,1,48,34,1097107212
16,11,3,ISIP_8,41,5,42,127,1097151704
16,11,3,ISIP_8,42,1,48,31,1097911976
16,11,3,ISIP_8,43,5,42,127,1097951736
16,11,3,ISIP_8,44,1,48,31,1098714324
16,11,3,ISIP_8,45,5,42,127,1098752660
16,11,3,ISIP_8,46,1,48,30,1099489636
16,11,3,ISIP_8,47,5,42,127,1099552096
16,11,3,ISIP_8,48,1,48,35,1100316248
16,11,3,ISIP_8,49,5,42,127,1100351904
16,11,3,ISIP_8,50,1,48,34,1101136968
16,11,3,ISIP_8,51,5,42,127,1101151708
16,11,3,ISIP_8,52,1,48,32,1101940504
16,11,3,ISIP_8,53,5,42,127,1101952488
16,11,3,ISIP_8,54,1,48,35,1102720824
16,11,3,ISIP_8,55,5,42,127,1102752392
16,11,3,ISIP_8,56,1,48,31,1103529468
16,11,3,ISIP_8,57,5,42,127,1103551904
16,11,3,ISIP_8,58,1,48,27,1104341304
16,11,3,ISIP_8,59,5,42,127,1104351492
16,11,3,ISIP_8,60,1,48,34,1105098544
16,11,3,ISIP_8,61,1,48,29,1105956828
16,11,3,ISIP_8,62,1,48,30,1106710320
16,11,3,ISIP_8,63,1,48,33,1107541712
16,11,3,ISIP_8,64,1,48,28,1108395096
16,11,3,ISIP_8,65,1,48,29,1109216404
16,11,3,ISIP_8,66,1,48,28,1110051448
16,11,3,ISIP_8,67,1,48,29,1110874404
16,11,3,ISIP_8,68,1,48,27,1111705044
16,11,3,ISIP_8,69,1,48,32,1112526976
16,11,3,ISIP_8,70,1,48,29,1113307436
16,11,3,ISIP_8,71,1,48,29,1114127324
16,11,3,ISIP_8,72,1,48,27,1114924144
16,11,3,ISIP_8,73,1,48,33,1115747468
16,11,3,ISIP_8,74,1,48,31,1116572832
16,11,3,ISIP_8,75,1,48,31,1117403624
16,11,3,ISIP_8,76,1,48,32,1118228216
16,11,3,ISIP_8,77,1,48,33,1119028620
16,11,3,ISIP_8,78,1,48,31,1119849180
16,11,3,ISIP_8,79,1,48,29,1120651300
16,11,3,ISIP_8,80,1,48,27,1121513400
16,11,3,ISIP_8,81,1,48,26,1122257648
16,11,3,ISIP_8,82,1,48,29,1123068652
16,11,3,ISIP_8,83,1,48,19,1123899292
16,11,3,ISIP_8,84,1,48,32,1124702384
16,11,3,ISIP_8,85,1,48,33,1125460220
16,11,3,ISIP_8,86,1,48,29,1126248896
16,11,3,ISIP_8,87,1,48,32,1127043844
16,11,3,ISIP_8,88,1,48,33,1127862788
16,11,3,ISIP_8,89,1,48,38,1128653480
16,11,3,ISIP_8,90,1,48,29,1129469636
16,11,3,ISIP_8,91,1,48,32,1130304308
16,11,3,ISIP_8,92,1,48,41,1131113296
16,11,3,ISIP_8,93,1,48,32,1131921164
16,11,3,ISIP_8,94,1,48,33,1132744964
16,11,3,ISIP_8,95,1,48,33,1133545064
16,11,3,ISIP_8,96,1,38,10,1133559836
16,11,3,ISIP_8,97,1,48,37,1134331160
16,11,3,ISIP_8,98,1,48,30,1135129020
16,11,3,ISIP_8,99,1,48,30,1135969668
16,11,3,ISIP_8,100,1,48,25,1136768428
16,11,3,ISIP_8,101,1,48,29,1137620968
16,11,3,ISIP_8,102,1,48,29,1138408976
16,11,3,ISIP_8,103,1,48,32,1139223640
16,11,3,ISIP_8,104,1,48,35,1140035912
16,11,3,ISIP_8,105,1,48,26,1140869616
16,11,3,ISIP_8,106,1,48,36,1141719548
16,11,3,ISIP_8,107,1,48,28,1142499936
16,11,3,ISIP_8,108,1,48,26,1143327368
16,11,3,ISIP_8,109,1,48,42,1144189596
16,11,3,ISIP_8,110,1,48,40,1145001224
16,11,3,ISIP_8,111,1,48,32,1145803564
16,11,3,ISIP_8,112,1,48,34,1146635552
16,11,3,ISIP_8,113,1,48,28,1147442820
16,11,3,ISIP_8,114,1,48,41,1148260168
16,11,3,ISIP_8,115,1,48,36,1149007108
16,11,3,ISIP_8,116,1,48,31,1149872420
16,11,3,ISIP_8,117,1,48,30,1150670136
16,11,3,ISIP_8,118,1,48,32,1151498316
16,11,3,ISIP_8,119,1,48,28,1152309392
16,11,3,ISIP_8,120,1,48,33,1153127016
16,11,3,ISIP_8,121,1,48,31,1153929952
16,11,3,ISIP_8,122,1,48,36,1154735604
16,11,3,ISIP_8,123,1,48,38,1155548100
16,11,3,ISIP_8,124,1,48,35,1156355164
16,11,3,ISIP_8,125,1,48,35,1157188120
16,11,3,ISIP_8,126,1,48,28,1157991432
16,11,3,ISIP_8,127,1,48,36,1158807312
16,11,3,ISIP_8,128,1,48,32,1159597780
16,11,3,ISIP_8,129,1,48,34,1160453588
16,11,3,ISIP_8,130,1,48,33,1161281992
16,11,3,ISIP_8,131,1,48,40,1162082764
16,11,3,ISIP_8,132,1,38,11,1162097528
16,11,3,ISIP_8,133,1,48,37,1162903448
16,11,3,ISIP_8,134,1,48,31,1163731852
16,11,3,ISIP_8,135,1,48,39,1164538748
16,11,3,ISIP_8,136,1,38,11,1164553964
16,11,3,ISIP_8,137,1,48,39,1165337612
16,11,3,ISIP_8,138,1,48,38,1166153316
16,11,3,ISIP_8,139,1,38,12,1166168608
16,11,3,ISIP_8,140,1,48,40,1166975400
16,11,3,ISIP_8,141,1,48,47,1167766340
16,11,3,ISIP_8,142,1,48,42,1168560320
16,11,3,ISIP_8,143,1,48,41,1169442116
16,11,3,ISIP_8,144,1,48,41,1170250056
16,11,3,ISIP_8,145,1,48,43,1171034024
16,11,3,ISIP_8,146,1,48,34,1171857800
16,11,3,ISIP_8,147,1,48,32,1172662480
16,11,3,ISIP_8,148,1,48,36,1173569588
16,11,3,ISIP_8,149,1,48,38,1174387308
16,11,3,ISIP_8,150,1,48,42,1175184048
16,11,3,ISIP_8,151,1,48,32,1176010160
16,11,3,ISIP_8,152,1,48,28,1176797644
16,11,3,ISIP_8,153,1,48,31,1177621116
16,11,3,ISIP_8,154,1,48,32,1178374628
16,11,3,ISIP_8,155,1,48,33,1179226024
16,11,3,ISIP_8,156,1,48,35,1180013884
16,11,3,ISIP_8,157,1,48,44,1180825208
16,11,3,ISIP_8,158,1,48,44,1181650848
16,11,3,ISIP_8,159,1,48,34,1182407344
16,11,3,ISIP_8,160,1,48,31,1183302128
16,11,3,ISIP_8,161,1,48,32,1184056904
16,11,3,ISIP_8,162,1,48,35,1184888368
16,11,3,ISIP_8,163,1,48,36,1185684456
16,11,3,ISIP_8,164,1,48,33,1186499420
16,11,3,ISIP_8,165,1,48,31,1187269132
16,11,3,ISIP_8,166,1,48,31,1188024584
16,11,3,ISIP_8,167,1,48,28,1188877252
16,11,3,ISIP_8,168,1,48,39,1189677876
16,11,3,ISIP_8,169,1,48,38,1190514868
16,11,3,ISIP_8,170,1,48,14,1191403180
16,11,3,ISIP_8,171,1,48,30,1192148916
16,11,3,ISIP_8,172,1,48,33,1192977548
16,11,3,ISIP_8,173,1,48,17,1193429652
16,11,3,ISIP_8,174,1,48,31,1193838036
16,11,3,ISIP_8,175,1,48,35,1194610284
16,11,3,ISIP_8,176,1,48,36,1195396500
16,11,3,ISIP_8,177,1,48,42,1196228060
16,11,3,ISIP_8,178,1,48,35,1197007400
16,11,3,ISIP_8,179,1,48,32,1197809072
16,11,3,ISIP_8,180,1,48,34,1198591104
16,11,3,ISIP_8,181,1,48,38,1199368056
16,11,3,ISIP_8,182,1,48,32,1200140532
16,11,3,ISIP_8,183,1,48,28,1200959972
16,11,3,ISIP_8,0,9999,9999,9999,1081149540
16,11,3,ISIP_8,1,9999,9999,9999,1081949272
16,11,3,ISIP_8,2,9999,9999,9999,1082750044
16,11,3,ISIP_8,3,9999,9999,9999,1083549752
16,11,3,ISIP_8,4,9999,9999,9999,1084349540
16,11,3,ISIP_8,5,9999,9999,9999,1085149276
16,11,3,ISIP_8,6,9999,9999,9999,1085950052
16,11,3,ISIP_8,7,9999,9999,9999,1086749788
16,11,3,ISIP_8,8,9999,9999,9999,1087549520
16,11,3,ISIP_8,9,9999,9999,9999,1088349244
16,11,3,ISIP_8,10,9999,9999,9999,1089150024
16,11,3,ISIP_8,11,9999,9999,9999,1089949784
16,11,3,ISIP_8,12,9999,9999,9999,1090749516
16,11,3,ISIP_8,13,9999,9999,9999,1091549248
16,11,3,ISIP_8,14,9999,9999,9999,1092350032
16,11,3,ISIP_8,15,9999,9999,9999,1093149760
16,11,3,ISIP_8,16,9999,9999,9999,1093949492
16,11,3,ISIP_8,17,9999,9999,9999,1094749300
16,11,3,ISIP_8,18,9999,9999,9999,1095550004
16,11,3,ISIP_8,19,9999,9999,9999,1096349760
16,11,3,ISIP_8,20,9999,9999,9999,1097149492
16,11,3,ISIP_8,21,9999,9999,9999,1097949300
16,11,3,ISIP_8,22,9999,9999,9999,1098750004
16,11,3,ISIP_8,23,9999,9999,9999,1099549812
16,11,3,ISIP_8,24,9999,9999,9999,1100349544
16,11,3,ISIP_8,25,9999,9999,9999,1101149276
16,11,3,ISIP_8,26,9999,9999,9999,1101950052
16,11,3,ISIP_8,27,9999,9999,9999,1102749812
16,11,3,ISIP_8,28,9999,9999,9999,1103549544
16,11,3,ISIP_8,29,9999,9999,9999,1104349280
16,11,3,ISIP_8,30,9999,9999,9999,1105150060
16,11,3,ISIP_8,31,9999,9999,9999,1105949796
16,11,3,ISIP_8,32,9999,9999,9999,1106749516
16,11,3,ISIP_8,33,9999,9999,9999,1107549244
16,11,3,ISIP_8,34,9999,9999,9999,1108350024
16,11,3,ISIP_8,35,9999,9999,9999,1109149776
16,11,3,ISIP_8,36,9999,9999,9999,1109949504
16,11,3,ISIP_8,37,9999,9999,9999,1110749232
16,11,3,ISIP_8,38,9999,9999,9999,1111550008
16,11,3,ISIP_8,39,9999,9999,9999,1112349808
16,11,3,ISIP_8,40,9999,9999,9999,1113149536
16,11,3,ISIP_8,41,9999,9999,9999,1113949264
16,11,3,ISIP_8,42,9999,9999,9999,1114750036
16,11,3,ISIP_8,43,9999,9999,9999,1115549792
16,11,3,ISIP_8,44,9999,9999,9999,1116349520
16,11,3,ISIP_8,45,9999,9999,9999,1117149248
16,11,3,ISIP_8,46,9999,9999,9999,1117950020
16,11,3,ISIP_8,47,9999,9999,9999,1118749748
16,11,3,ISIP_8,48,9999,9999,9999,1119549552
16,11,3,ISIP_8,49,9999,9999,9999,1120349280
16,11,3,ISIP_8,50,9999,9999,9999,1121150052
16,11,3,ISIP_8,51,9999,9999,9999,1121949808
16,11,3,ISIP_8,52,9999,9999,9999,1122749536
16,11,3,ISIP_8,53,9999,9999,9999,1123549264
16,11,3,ISIP_8,54,9999,9999,9999,1124350036
16,11,3,ISIP_8,55,9999,9999,9999,1125149764
16,11,3,ISIP_8,56,9999,9999,9999,1125949492
16,11,3,ISIP_8,57,9999,9999,9999,1126749296
16,11,3,ISIP_8,58,9999,9999,9999,1127550068
16,11,3,ISIP_8,59,9999,9999,9999,1128349748
16,11,3,ISIP_8,60,9999,9999,9999,1129149548
16,11,3,ISIP_8,61,9999,9999,9999,1129949280
16,11,3,ISIP_8,62,9999,9999,9999,1130750052
16,11,3,ISIP_8,63,9999,9999,9999,1131549780
16,11,3,ISIP_8,64,9999,9999,9999,1132349508
16,11,3,ISIP_8,65,9999,9999,9999,1133149236
16,11,3,ISIP_8,66,9999,9999,9999,1133950036
16,11,3,ISIP_8,67,9999,9999,9999,1134749792
16,11,3,ISIP_8,68,9999,9999,9999,1135549520
16,11,3,ISIP_8,69,9999,9999,9999,1136349248
16,11,3,ISIP_8,70,9999,9999,9999,1137150020
16,11,3,ISIP_8,71,9999,9999,9999,1137949752
16,11,3,ISIP_8,72,9999,9999,9999,1138749552
16,11,3,ISIP_8,73,9999,9999,9999,1139549280
16,11,3,ISIP_8,74,9999,9999,9999,1140350052
16,11,3,ISIP_8,75,9999,9999,9999,1141149808
16,11,3,ISIP_8,76,9999,9999,9999,1141949536
16,11,3,ISIP_8,77,9999,9999,9999,1142749264
16,11,3,ISIP_8,78,9999,9999,9999,1143550040
16,11,3,ISIP_8,79,9999,9999,9999,1144349764
16,11,3,ISIP_8,80,9999,9999,9999,1145149496
16,11,3,ISIP_8,81,9999,9999,9999,1145949300
16,11,3,ISIP_8,82,9999,9999,9999,1146750072
16,11,3,ISIP_8,83,9999,9999,9999,1147549748
16,11,3,ISIP_8,84,9999,9999,9999,1148349492
16,11,3,ISIP_8,85,9999,9999,9999,1149149280
16,11,3,ISIP_8,86,9999,9999,9999,1149950068
16,11,3,ISIP_8,87,9999,9999,9999,1150749796
16,11,3,ISIP_8,88,9999,9999,9999,1151549524
16,11,3,ISIP_8,89,9999,9999,9999,1152349252
16,11,3,ISIP_8,90,9999,9999,9999,1153150000
16,11,3,ISIP_8,91,9999,9999,9999,1153949756
16,11,3,ISIP_8,92,9999,9999,9999,1154749556
16,11,3,ISIP_8,93,9999,9999,9999,1155549284
16,11,3,ISIP_8,94,9999,9999,9999,1156350064
16,11,3,ISIP_8,95,9999,9999,9999,1157149792
16,11,3,ISIP_8,96,9999,9999,9999,1157949520
16,11,3,ISIP_8,97,9999,9999,9999,1158749248
16,11,3,ISIP_8,98,9999,9999,9999,1159550024
16,11,3,ISIP_8,99,9999,9999,9999,1160349776
16,11,3,ISIP_8,100,9999,9999,9999,1161149504
16,11,3,ISIP_8,101,9999,9999,9999,1161949232
16,11,3,ISIP_8,102,9999,9999,9999,1162750032
16,11,3,ISIP_8,103,9999,9999,9999,1163549760
16,11,3,ISIP_8,104,9999,9999,9999,1164349488
16,11,3,ISIP_8,105,9999,9999,9999,1165149244
16,11,3,ISIP_8,106,9999,9999,9999,1165950020
16,11,3,ISIP_8,107,9999,9999,9999,1166749796
16,11,3,ISIP_8,108,9999,9999,9999,1167549524
16,11,3,ISIP_8,109,9999,9999,9999,1168349252
16,11,3,ISIP_8,110,9999,9999,9999,1169150028
16,11,3,ISIP_8,111,9999,9999,9999,1169949756
16,11,3,ISIP_8,112,9999,9999,9999,1170749556
16,11,3,ISIP_8,113,9999,9999,9999,1171549288
16,11,3,ISIP_8,114,9999,9999,9999,1172350056
16,11,3,ISIP_8,115,9999,9999,9999,1173149812
16,11,3,ISIP_8,116,9999,9999,9999,1173949540
16,11,3,ISIP_8,117,9999,9999,9999,1174749268
16,11,3,ISIP_8,118,9999,9999,9999,1175550040
16,11,3,ISIP_8,119,9999,9999,9999,1176349768
16,11,3,ISIP_8,120,9999,9999,9999,1177149496
16,11,3,ISIP_8,121,9999,9999,9999,1177949300
16,11,3,ISIP_8,122,9999,9999,9999,1178750000
16,11,3,ISIP_8,123,9999,9999,9999,1179549756
16,11,3,ISIP_8,124,9999,9999,9999,1180349556
16,11,3,ISIP_8,125,9999,9999,9999,1181149284
16,11,3,ISIP_8,126,9999,9999,9999,1181950060
16,11,3,ISIP_8,127,9999,9999,9999,1182749788
16,11,3,ISIP_8,128,9999,9999,9999,1183549516
16,11,3,ISIP_8,129,9999,9999,9999,1184349240
16,11,3,ISIP_8,130,9999,9999,9999,1185150016
16,11,3,ISIP_8,131,9999,9999,9999,1185949772
16,11,3,ISIP_8,132,9999,9999,9999,1186749496
16,11,3,ISIP_8,133,9999,9999,9999,1187549300
16,11,3,ISIP_8,134,9999,9999,9999,1188350000
16,11,3,ISIP_8,135,9999,9999,9999,1189149804
16,11,3,ISIP_8,136,9999,9999,9999,1189949532
16,11,3,ISIP_8,137,9999,9999,9999,1190749260
16,11,3,ISIP_8,138,9999,9999,9999,1191550032
16,11,3,ISIP_8,139,9999,9999,9999,1192349784
16,11,3,ISIP_8,140,9999,9999,9999,1193149516
16,11,3,ISIP_8,141,9999,9999,9999,1193949296
16,11,3,ISIP_8,142,9999,9999,9999,1194750068
16,11,3,ISIP_8,143,9999,9999,9999,1195549796
16,11,3,ISIP_8,144,9999,9999,9999,1196349524
16,11,3,ISIP_8,145,9999,9999,9999,1197149252
16,11,3,ISIP_8,146,9999,9999,9999,1197950024
16,11,3,ISIP_8,147,9999,9999,9999,1198749780
16,11,3,ISIP_8,148,9999,9999,9999,1199549508
16,11,3,ISIP_8,149,9999,9999,9999,1200349236
16,12,11,Pattern_Practice,0,5,42,127,1270650096
16,12,11,Pattern_Practice,1,5,42,127,1271150020
16,12,11,Pattern_Practice,2,1,48,27,1271618464
16,12,11,Pattern_Practice,3,5,42,127,1271649860
16,12,11,Pattern_Practice,4,5,42,127,1272150512
16,12,11,Pattern_Practice,5,1,48,31,1272157808
16,12,11,Pattern_Practice,6,5,42,127,1272650040
16,12,11,Pattern_Practice,7,1,48,33,1272661740
16,12,11,Pattern_Practice,8,1,48,21,1273138476
16,12,11,Pattern_Practice,9,5,42,127,1273149784
16,12,11,Pattern_Practice,10,1,48,24,1273597604
16,12,11,Pattern_Practice,11,5,42,127,1273649612
16,12,11,Pattern_Practice,12,1,48,31,1274098548
16,12,11,Pattern_Practice,13,5,42,127,1274150332
16,12,11,Pattern_Practice,14,1,38,43,1274373064
16,12,11,Pattern_Practice,15,1,38,42,1274614856
16,12,11,Pattern_Practice,16,5,42,127,1274649912
16,12,11,Pattern_Practice,17,1,48,34,1275096684
16,12,11,Pattern_Practice,18,5,42,127,1275149736
16,12,11,Pattern_Practice,19,1,48,39,1275596508
16,12,11,Pattern_Practice,20,5,42,127,1275650456
16,12,11,Pattern_Practice,21,1,48,38,1276116572
16,12,11,Pattern_Practice,22,5,42,127,1276150060
16,12,11,Pattern_Practice,23,1,48,40,1276633500
16,12,11,Pattern_Practice,24,5,42,127,1276649884
16,12,11,Pattern_Practice,25,1,48,38,1277109504
16,12,11,Pattern_Practice,26,5,42,127,1277149564
16,12,11,Pattern_Practice,27,1,48,33,1277606640
16,12,11,Pattern_Practice,28,5,42,127,1277650284
16,12,11,Pattern_Practice,29,1,48,31,1278117072
16,12,11,Pattern_Practice,30,5,42,127,1278149884
16,12,11,Pattern_Practice,31,1,38,21,1278525772
16,12,11,Pattern_Practice,32,5,42,127,1278649768
16,12,11,Pattern_Practice,33,1,38,51,1278713592
16,12,11,Pattern_Practice,34,5,42,127,1279149520
16,12,11,Pattern_Practice,35,1,48,40,1279157492
16,12,11,Pattern_Practice,36,1,48,45,1279640720
16,12,11,Pattern_Practice,37,5,42,127,1279650308
16,12,11,Pattern_Practice,38,1,48,45,1280121104
16,12,11,Pattern_Practice,39,5,42,127,1280149836
16,12,11,Pattern_Practice,40,1,48,21,1280647220
16,12,11,Pattern_Practice,41,5,42,127,1280649564
16,12,11,Pattern_Practice,42,1,38,55,1280725728
16,12,11,Pattern_Practice,43,1,38,40,1280971228
16,12,11,Pattern_Practice,44,5,42,127,1281150384
16,12,11,Pattern_Practice,45,1,48,40,1281217072
16,12,11,Pattern_Practice,46,5,42,127,1281650136
16,12,11,Pattern_Practice,47,1,48,44,1281669824
16,12,11,Pattern_Practice,48,1,48,43,1282101312
16,12,11,Pattern_Practice,49,5,42,127,1282149732
16,12,11,Pattern_Practice,50,1,38,55,1282367384
16,12,11,Pattern_Practice,51,1,38,56,1282629484
16,12,11,Pattern_Practice,52,5,42,127,1282649384
16,12,11,Pattern_Practice,53,1,48,47,1283098100
16,12,11,Pattern_Practice,54,5,42,127,1283150328
16,12,11,Pattern_Practice,55,1,48,45,1283590084
16,12,11,Pattern_Practice,56,5,42,127,1283650080
16,12,11,Pattern_Practice,57,1,48,46,1284084760
16,12,11,Pattern_Practice,58,5,42,127,1284149532
16,12,11,Pattern_Practice,59,1,48,43,1284592800
16,12,11,Pattern_Practice,60,5,42,127,1284650328
16,12,11,Pattern_Practice,61,1,48,48,1285087324
16,12,11,Pattern_Practice,62,5,42,127,1285150080
16,12,11,Pattern_Practice,63,1,38,47,1285392456
16,12,11,Pattern_Practice,64,1,38,61,1285634988
16,12,11,Pattern_Practice,65,5,42,127,1285649956
16,12,11,Pattern_Practice,66,1,48,47,1286139296
16,12,11,Pattern_Practice,67,5,42,127,1286149340
16,12,11,Pattern_Practice,68,1,48,49,1286633000
16,12,11,Pattern_Practice,69,5,42,127,1286650284
16,12,11,Pattern_Practice,70,1,48,50,1287127156
16,12,11,Pattern_Practice,71,5,42,127,1287150108
16,12,11,Pattern_Practice,72,1,38,51,1287381580
16,12,11,Pattern_Practice,73,1,38,53,1287631136
16,12,11,Pattern_Practice,74,5,42,127,1287649764
16,12,11,Pattern_Practice,75,1,38,55,1287843004
16,12,11,Pattern_Practice,76,1,48,46,1288110928
16,12,11,Pattern_Practice,77,5,42,127,1288150388
16,12,11,Pattern_Practice,78,1,48,48,1288618892
16,12,11,Pattern_Practice,79,5,42,127,1288650068
16,12,11,Pattern_Practice,80,5,42,127,1289150048
16,12,11,Pattern_Practice,81,1,48,50,1289152488
16,12,11,Pattern_Practice,82,1,38,41,1289385996
16,12,11,Pattern_Practice,83,1,48,47,1289620988
16,12,11,Pattern_Practice,84,5,42,127,1289649400
16,12,11,Pattern_Practice,85,1,48,49,1290120936
16,12,11,Pattern_Practice,86,5,42,127,1290150120
16,12,11,Pattern_Practice,87,1,48,47,1290619716
16,12,11,Pattern_Practice,88,5,42,127,1290649944
16,12,11,Pattern_Practice,89,1,38,46,1290922336
16,12,11,Pattern_Practice,90,1,48,43,1291145584
16,12,11,Pattern_Practice,91,5,42,127,1291149748
16,12,11,Pattern_Practice,92,1,48,37,1291424228
16,12,11,Pattern_Practice,93,1,48,43,1291636276
16,12,11,Pattern_Practice,94,5,42,127,1291650348
16,12,11,Pattern_Practice,95,1,48,43,1292130652
16,12,11,Pattern_Practice,96,5,42,127,1292150176
16,12,11,Pattern_Practice,97,1,48,49,1292634140
16,12,11,Pattern_Practice,98,5,42,127,1292649924
16,12,11,Pattern_Practice,99,1,38,48,1292886104
16,12,11,Pattern_Practice,100,1,38,53,1293144468
16,12,11,Pattern_Practice,101,5,42,127,1293149728
16,12,11,Pattern_Practice,102,1,38,47,1293352452
16,12,11,Pattern_Practice,103,1,48,46,1293609400
16,12,11,Pattern_Practice,104,5,42,127,1293650208
16,12,11,Pattern_Practice,105,1,48,45,1294096684
16,12,11,Pattern_Practice,106,5,42,127,1294149956
16,12,11,Pattern_Practice,107,1,38,39,1294320420
16,12,11,Pattern_Practice,108,1,38,50,1294589392
16,12,11,Pattern_Practice,109,5,42,127,1294649760
16,12,11,Pattern_Practice,110,1,48,43,1294848896
16,12,11,Pattern_Practice,111,1,48,47,1295126160
16,12,11,Pattern_Practice,112,5,42,127,1295149568
16,12,11,Pattern_Practice,113,1,48,45,1295639804
16,12,11,Pattern_Practice,114,5,42,127,1295650288
16,12,11,Pattern_Practice,115,1,48,47,1296147780
16,12,11,Pattern_Practice,116,5,42,127,1296149816
16,12,11,Pattern_Practice,117,1,38,50,1296411452
16,12,11,Pattern_Practice,118,5,42,127,1296649552
16,12,11,Pattern_Practice,119,1,38,56,1296658864
16,12,11,Pattern_Practice,120,1,38,59,1296919544
16,12,11,Pattern_Practice,121,1,48,48,1297141324
16,12,11,Pattern_Practice,122,5,42,127,1297150544
16,12,11,Pattern_Practice,123,1,48,49,1297626372
16,12,11,Pattern_Practice,124,5,42,127,1297650072
16,12,11,Pattern_Practice,125,1,48,43,1298100508
16,12,11,Pattern_Practice,126,5,42,127,1298149748
16,12,11,Pattern_Practice,127,1,48,41,1298590696
16,12,11,Pattern_Practice,128,5,42,127,1298649424
16,12,11,Pattern_Practice,129,1,48,48,1299109640
16,12,11,Pattern_Practice,130,5,42,127,1299150372
16,12,11,Pattern_Practice,131,1,38,45,1299384384
16,12,11,Pattern_Practice,132,1,38,46,1299638644
16,12,11,Pattern_Practice,133,5,42,127,1299649952
16,12,11,Pattern_Practice,134,1,48,38,1299882468
16,12,11,Pattern_Practice,135,1,48,43,1300142700
16,12,11,Pattern_Practice,136,5,42,127,1300149456
16,12,11,Pattern_Practice,137,1,48,44,1300644096
16,12,11,Pattern_Practice,138,5,42,127,1300650328
16,12,11,Pattern_Practice,139,1,48,39,1300878440
16,12,11,Pattern_Practice,140,1,48,43,1301129760
16,12,11,Pattern_Practice,141,5,42,127,1301150352
16,12,11,Pattern_Practice,142,1,48,45,1301353048
16,12,11,Pattern_Practice,143,1,38,52,1301633152
16,12,11,Pattern_Practice,144,5,42,127,1301649784
16,12,11,Pattern_Practice,145,1,38,56,1301877496
16,12,11,Pattern_Practice,146,1,38,56,1302118016
16,12,11,Pattern_Practice,147,5,42,127,1302149412
16,12,11,Pattern_Practice,148,1,38,53,1302366400
16,12,11,Pattern_Practice,149,5,42,127,1302650268
16,12,11,Pattern_Practice,150,1,38,54,1302774152
16,12,11,Pattern_Practice,151,1,38,37,1302892188
16,12,11,Pattern_Practice,152,1,38,59,1303137788
16,12,11,Pattern_Practice,153,5,42,127,1303150140
16,12,11,Pattern_Practice,154,1,48,40,1303388556
16,12,11,Pattern_Practice,155,1,48,49,1303647692
16,12,11,Pattern_Practice,156,5,42,127,1303649500
16,12,11,Pattern_Practice,157,1,48,44,1304138764
16,12,11,Pattern_Practice,158,5,42,127,1304150368
16,12,11,Pattern_Practice,159,1,38,63,1304503876
16,12,11,Pattern_Practice,160,1,38,25,1304572552
16,12,11,Pattern_Practice,161,5,42,127,1304650320
16,12,11,Pattern_Practice,162,1,38,45,1304815408
16,12,11,Pattern_Practice,163,1,38,38,1304938148
16,12,11,Pattern_Practice,164,5,42,127,1305149884
16,12,11,Pattern_Practice,165,1,48,46,1305204596
16,12,11,Pattern_Practice,166,5,42,127,1305649560
16,12,11,Pattern_Practice,167,1,48,46,1305659696
16,12,11,Pattern_Practice,168,1,48,46,1306145312
16,12,11,Pattern_Practice,169,5,42,127,1306150128
16,12,11,Pattern_Practice,170,1,38,65,1306377416
16,12,11,Pattern_Practice,171,1,38,63,1306625108
16,12,11,Pattern_Practice,172,5,42,127,1306649928
16,12,11,Pattern_Practice,173,1,48,43,1306867436
16,12,11,Pattern_Practice,174,1,48,48,1307145372
16,12,11,Pattern_Practice,175,5,42,127,1307150104
16,12,11,Pattern_Practice,176,1,48,47,1307639968
16,12,11,Pattern_Practice,177,5,42,127,1307650456
16,12,11,Pattern_Practice,178,5,42,127,1308150064
16,12,11,Pattern_Practice,179,1,48,51,1308171324
16,12,11,Pattern_Practice,180,5,42,127,1308649960
16,12,11,Pattern_Practice,181,1,48,47,1308664276
16,12,11,Pattern_Practice,182,1,48,45,1309129960
16,12,11,Pattern_Practice,183,5,42,127,1309149484
16,12,11,Pattern_Practice,184,1,48,36,1309620972
16,12,11,Pattern_Practice,185,5,42,127,1309650128
16,12,11,Pattern_Practice,186,1,48,41,1310122888
16,12,11,Pattern_Practice,187,5,42,127,1310149956
16,12,11,Pattern_Practice,188,1,38,53,1310397852
16,12,11,Pattern_Practice,189,1,38,56,1310634784
16,12,11,Pattern_Practice,0,9999,9999,9999,1270647888
16,12,11,Pattern_Practice,1,9999,9999,9999,1271147588
16,12,11,Pattern_Practice,2,9999,9999,9999,1271647280
16,12,11,Pattern_Practice,3,9999,9999,9999,1272148080
16,12,11,Pattern_Practice,4,9999,9999,9999,1272647760
16,12,11,Pattern_Practice,5,9999,9999,9999,1273147500
16,12,11,Pattern_Practice,6,9999,9999,9999,1273647180
16,12,11,Pattern_Practice,7,9999,9999,9999,1274147900
16,12,11,Pattern_Practice,8,9999,9999,9999,1274647628
16,12,11,Pattern_Practice,9,9999,9999,9999,1275147380
16,12,11,Pattern_Practice,10,9999,9999,9999,1275648100
16,12,11,Pattern_Practice,11,9999,9999,9999,1276147776
16,12,11,Pattern_Practice,12,9999,9999,9999,1276647528
16,12,11,Pattern_Practice,13,9999,9999,9999,1277147204
16,12,11,Pattern_Practice,14,9999,9999,9999,1277647924
16,12,11,Pattern_Practice,15,9999,9999,9999,1278147676
16,12,11,Pattern_Practice,16,9999,9999,9999,1278647412
16,12,11,Pattern_Practice,17,9999,9999,9999,1279147088
16,12,11,Pattern_Practice,18,9999,9999,9999,1279647804
16,12,11,Pattern_Practice,19,9999,9999,9999,1280147556
16,12,11,Pattern_Practice,20,9999,9999,9999,1280647280
16,12,11,Pattern_Practice,21,9999,9999,9999,1281147952
16,12,11,Pattern_Practice,22,9999,9999,9999,1281647704
16,12,11,Pattern_Practice,23,9999,9999,9999,1282147448
16,12,11,Pattern_Practice,24,9999,9999,9999,1282647100
16,12,11,Pattern_Practice,25,9999,9999,9999,1283147896
16,12,11,Pattern_Practice,26,9999,9999,9999,1283647576
16,12,11,Pattern_Practice,27,9999,9999,9999,1284147252
16,12,11,Pattern_Practice,28,9999,9999,9999,1284648048
16,12,11,Pattern_Practice,29,9999,9999,9999,1285147724
16,12,11,Pattern_Practice,30,9999,9999,9999,1285647452
16,12,11,Pattern_Practice,31,9999,9999,9999,1286147132
16,12,11,Pattern_Practice,32,9999,9999,9999,1286647924
16,12,11,Pattern_Practice,33,9999,9999,9999,1287147604
16,12,11,Pattern_Practice,34,9999,9999,9999,1287647332
16,12,11,Pattern_Practice,35,9999,9999,9999,1288148032
16,12,11,Pattern_Practice,36,9999,9999,9999,1288647784
16,12,11,Pattern_Practice,37,9999,9999,9999,1289147468
16,12,11,Pattern_Practice,38,9999,9999,9999,1289647192
16,12,11,Pattern_Practice,39,9999,9999,9999,1290147912
16,12,11,Pattern_Practice,40,9999,9999,9999,1290647664
16,12,11,Pattern_Practice,41,9999,9999,9999,1291147316
16,12,11,Pattern_Practice,42,9999,9999,9999,1291648068
16,12,11,Pattern_Practice,43,9999,9999,9999,1292147816
16,12,11,Pattern_Practice,44,9999,9999,9999,1292647492
16,12,11,Pattern_Practice,45,9999,9999,9999,1293147224
16,12,11,Pattern_Practice,46,9999,9999,9999,1293647924
16,12,11,Pattern_Practice,47,9999,9999,9999,1294147676
16,12,11,Pattern_Practice,48,9999,9999,9999,1294647404
16,12,11,Pattern_Practice,49,9999,9999,9999,1295147060
16,12,11,Pattern_Practice,50,9999,9999,9999,1295647856
16,12,11,Pattern_Practice,51,9999,9999,9999,1296147572
16,12,11,Pattern_Practice,52,9999,9999,9999,1296647272
16,12,11,Pattern_Practice,53,9999,9999,9999,1297147964
16,12,11,Pattern_Practice,54,9999,9999,9999,1297647716
16,12,11,Pattern_Practice,55,9999,9999,9999,1298147392
16,12,11,Pattern_Practice,56,9999,9999,9999,1298647144
16,12,11,Pattern_Practice,57,9999,9999,9999,1299147864
16,12,11,Pattern_Practice,58,9999,9999,9999,1299647596
16,12,11,Pattern_Practice,59,9999,9999,9999,1300147248
16,12,11,Pattern_Practice,60,9999,9999,9999,1300648044
16,12,11,Pattern_Practice,61,9999,9999,9999,1301147696
16,12,11,Pattern_Practice,62,9999,9999,9999,1301647428
16,12,11,Pattern_Practice,63,9999,9999,9999,1302147132
16,12,11,Pattern_Practice,64,9999,9999,9999,1302647908
16,12,11,Pattern_Practice,65,9999,9999,9999,1303147636
16,12,11,Pattern_Practice,66,9999,9999,9999,1303647316
16,12,11,Pattern_Practice,67,9999,9999,9999,1304148084
16,12,11,Pattern_Practice,68,9999,9999,9999,1304647740
16,12,11,Pattern_Practice,69,9999,9999,9999,1305147452
16,12,11,Pattern_Practice,70,9999,9999,9999,1305647204
16,12,11,Pattern_Practice,71,9999,9999,9999,1306147920
16,12,11,Pattern_Practice,72,9999,9999,9999,1306647648
16,12,11,Pattern_Practice,73,9999,9999,9999,1307147376
16,12,11,Pattern_Practice,74,9999,9999,9999,1307648096
16,12,11,Pattern_Practice,75,9999,9999,9999,1308147780
16,12,11,Pattern_Practice,76,9999,9999,9999,1308647528
16,12,11,Pattern_Practice,77,9999,9999,9999,1309147200
16,12,11,Pattern_Practice,78,9999,9999,9999,1309647920
16,12,11,Pattern_Practice,79,9999,9999,9999,1310147672
16,13,13,Improv_Metronome,0,5,42,127,1351844168
16,13,13,Improv_Metronome,1,5,42,127,1352344016
16,13,13,Improv_Metronome,2,1,48,45,1352809000
16,13,13,Improv_Metronome,3,5,42,127,1352843708
16,13,13,Improv_Metronome,4,1,48,47,1353322864
16,13,13,Improv_Metronome,5,5,42,127,1353344332
16,13,13,Improv_Metronome,6,1,48,29,1353637356
16,13,13,Improv_Metronome,7,5,42,127,1353844064
16,13,13,Improv_Metronome,8,1,48,49,1353883268
16,13,13,Improv_Metronome,9,5,42,127,1354343668
16,13,13,Improv_Metronome,10,1,48,45,1354355744
16,13,13,Improv_Metronome,11,1,48,46,1354572664
16,13,13,Improv_Metronome,12,1,48,49,1354824164
16,13,13,Improv_Metronome,13,5,42,127,1354843684
16,13,13,Improv_Metronome,14,1,48,39,1354915804
16,13,13,Improv_Metronome,15,1,48,42,1354976116
16,13,13,Improv_Metronome,16,1,48,22,1355132608
16,13,13,Improv_Metronome,17,1,48,55,1355310480
16,13,13,Improv_Metronome,18,5,42,127,1355344192
16,13,13,Improv_Metronome,19,1,48,52,1355820684
16,13,13,Improv_Metronome,20,5,42,127,1355844016
16,13,13,Improv_Metronome,21,5,42,127,1356343700
16,13,13,Improv_Metronome,22,1,48,51,1356373396
16,13,13,Improv_Metronome,23,1,48,50,1356405040
16,13,13,Improv_Metronome,24,1,48,30,1356498232
16,13,13,Improv_Metronome,25,1,48,33,1356554808
16,13,13,Improv_Metronome,26,5,42,127,1356844284
16,13,13,Improv_Metronome,27,1,48,54,1356867480
16,13,13,Improv_Metronome,28,1,48,55,1356936928
16,13,13,Improv_Metronome,29,1,48,52,1357000600
16,13,13,Improv_Metronome,30,1,48,67,1357333344
16,13,13,Improv_Metronome,31,5,42,127,1357344428
16,13,13,Improv_Metronome,32,1,48,67,1357827276
16,13,13,Improv_Metronome,33,5,42,127,1357843736
16,13,13,Improv_Metronome,34,1,48,59,1358316048
16,13,13,Improv_Metronome,35,5,42,127,1358343784
16,13,13,Improv_Metronome,36,1,48,61,1358401464
16,13,13,Improv_Metronome,37,1,48,55,1358440276
16,13,13,Improv_Metronome,38,1,48,69,1358810828
16,13,13,Improv_Metronome,39,5,42,127,1358844388
16,13,13,Improv_Metronome,40,1,48,58,1358877956
16,13,13,Improv_Metronome,41,1,48,49,1358921540
16,13,13,Improv_Metronome,42,1,48,82,1359311576
16,13,13,Improv_Metronome,43,5,42,127,1359343948
16,13,13,Improv_Metronome,44,1,38,55,1359797216
16,13,13,Improv_Metronome,45,5,42,127,1359843624
16,13,13,Improv_Metronome,46,1,48,62,1359849652
16,13,13,Improv_Metronome,47,1,38,43,1359933188
16,13,13,Improv_Metronome,48,1,48,78,1360302232
16,13,13,Improv_Metronome,49,5,42,127,1360344676
16,13,13,Improv_Metronome,50,1,48,69,1360824976
16,13,13,Improv_Metronome,51,5,42,127,1360844052
16,13,13,Improv_Metronome,52,1,48,75,1361288140
16,13,13,Improv_Metronome,53,5,42,127,1361343804
16,13,13,Improv_Metronome,54,1,38,51,1361544584
16,13,13,Improv_Metronome,55,1,38,43,1361604000
16,13,13,Improv_Metronome,56,1,38,46,1361665212
16,13,13,Improv_Metronome,57,5,42,127,1361843496
16,13,13,Improv_Metronome,58,1,48,82,1362298176
16,13,13,Improv_Metronome,59,5,42,127,1362344304
16,13,13,Improv_Metronome,60,1,48,75,1362821448
16,13,13,Improv_Metronome,61,5,42,127,1362843956
16,13,13,Improv_Metronome,62,1,48,64,1363044864
16,13,13,Improv_Metronome,63,1,48,85,1363304048
16,13,13,Improv_Metronome,64,5,42,127,1363343684
16,13,13,Improv_Metronome,65,1,48,76,1363548624
16,13,13,Improv_Metronome,66,1,48,54,1363635692
16,13,13,Improv_Metronome,67,1,48,66,1363674048
16,13,13,Improv_Metronome,68,1,48,43,1363797760
16,13,13,Improv_Metronome,69,5,42,127,1363843348
16,13,13,Improv_Metronome,70,1,48,59,1364099804
16,13,13,Improv_Metronome,71,1,48,75,1364302244
16,13,13,Improv_Metronome,72,5,42,127,1364344316
16,13,13,Improv_Metronome,73,1,48,70,1364681400
16,13,13,Improv_Metronome,74,1,48,53,1364731336
16,13,13,Improv_Metronome,75,1,48,64,1364792400
16,13,13,Improv_Metronome,76,5,42,127,1364843880
16,13,13,Improv_Metronome,77,1,48,37,1364862512
16,13,13,Improv_Metronome,78,1,48,76,1365054192
16,13,13,Improv_Metronome,79,1,48,78,1365305168
16,13,13,Improv_Metronome,80,5,42,127,1365343736
16,13,13,Improv_Metronome,81,1,48,51,1365566244
16,13,13,Improv_Metronome,82,1,48,68,1365576008
16,13,13,Improv_Metronome,83,1,48,72,1365687424
16,13,13,Improv_Metronome,84,5,42,127,1365844248
16,13,13,Improv_Metronome,85,1,48,65,1366048780
16,13,13,Improv_Metronome,86,1,48,76,1366332612
16,13,13,Improv_Metronome,87,5,42,127,1366344216
16,13,13,Improv_Metronome,88,1,48,69,1366590772
16,13,13,Improv_Metronome,89,1,48,64,1366702780
16,13,13,Improv_Metronome,90,5,42,127,1366843856
16,13,13,Improv_Metronome,91,1,48,55,1366954448
16,13,13,Improv_Metronome,92,1,48,66,1367050152
16,13,13,Improv_Metronome,93,1,48,74,1367302096
16,13,13,Improv_Metronome,94,5,42,127,1367343576
16,13,13,Improv_Metronome,95,1,48,59,1367544356
16,13,13,Improv_Metronome,96,1,48,52,1367656120
16,13,13,Improv_Metronome,97,1,48,56,1367671332
16,13,13,Improv_Metronome,98,1,48,21,1367756312
16,13,13,Improv_Metronome,99,1,48,57,1367773616
16,13,13,Improv_Metronome,100,5,42,127,1367844288
16,13,13,Improv_Metronome,101,1,48,66,1368025804
16,13,13,Improv_Metronome,102,1,48,64,1368297692
16,13,13,Improv_Metronome,103,5,42,127,1368344016
16,13,13,Improv_Metronome,104,1,38,45,1368532700
16,13,13,Improv_Metronome,105,1,38,63,1368666196
16,13,13,Improv_Metronome,106,5,42,127,1368843584
16,13,13,Improv_Metronome,107,1,38,60,1368891872
16,13,13,Improv_Metronome,108,1,38,54,1369016876
16,13,13,Improv_Metronome,109,1,48,74,1369322664
16,13,13,Improv_Metronome,110,5,42,127,1369344276
16,13,13,Improv_Metronome,111,1,48,54,1369577240
16,13,13,Improv_Metronome,112,1,48,46,1369810812
16,13,13,Improv_Metronome,113,5,42,127,1369844228
16,13,13,Improv_Metronome,114,1,38,62,1370326992
16,13,13,Improv_Metronome,115,5,42,127,1370343904
16,13,13,Improv_Metronome,116,1,38,51,1370729196
16,13,13,Improv_Metronome,117,1,38,54,1370840092
16,13,13,Improv_Metronome,118,5,42,127,1370843484
16,13,13,Improv_Metronome,119,1,38,59,1371159932
16,13,13,Improv_Metronome,120,5,42,127,1371344264
16,13,13,Improv_Metronome,121,1,48,74,1371398080
16,13,13,Improv_Metronome,122,1,48,69,1371833072
16,13,13,Improv_Metronome,123,5,42,127,1371843860
16,13,13,Improv_Metronome,124,1,48,48,1372200108
16,13,13,Improv_Metronome,125,1,48,69,1372257808
16,13,13,Improv_Metronome,126,5,42,127,1372343516
16,13,13,Improv_Metronome,127,1,48,46,1372350124
16,13,13,Improv_Metronome,128,1,48,75,1372391996
16,13,13,Improv_Metronome,129,1,48,71,1372827508
16,13,13,Improv_Metronome,130,5,42,127,1372844348
16,13,13,Improv_Metronome,131,1,48,63,1373074320
16,13,13,Improv_Metronome,132,1,48,81,1373314820
16,13,13,Improv_Metronome,133,5,42,127,1373344148
16,13,13,Improv_Metronome,134,5,42,127,1373843980
16,13,13,Improv_Metronome,135,1,48,75,1373853588
16,13,13,Improv_Metronome,136,5,42,127,1374343732
16,13,13,Improv_Metronome,137,1,38,70,1374355808
16,13,13,Improv_Metronome,138,1,38,64,1374588464
16,13,13,Improv_Metronome,139,5,42,127,1374844336
16,13,13,Improv_Metronome,140,1,48,75,1375091128
16,13,13,Improv_Metronome,141,1,48,75,1375333888
16,13,13,Improv_Metronome,142,5,42,127,1375344004
16,13,13,Improv_Metronome,143,1,48,77,1375802576
16,13,13,Improv_Metronome,144,5,42,127,1375843828
16,13,13,Improv_Metronome,145,1,48,48,1376224592
16,13,13,Improv_Metronome,146,1,48,81,1376284604
16,13,13,Improv_Metronome,147,5,42,127,1376344304
16,13,13,Improv_Metronome,148,1,48,51,1376353604
16,13,13,Improv_Metronome,149,1,48,54,1376416180
16,13,13,Improv_Metronome,150,1,48,72,1376823444
16,13,13,Improv_Metronome,151,5,42,127,1376844160
16,13,13,Improv_Metronome,152,1,48,64,1377056288
16,13,13,Improv_Metronome,153,1,48,70,1377293152
16,13,13,Improv_Metronome,154,5,42,127,1377343964
16,13,13,Improv_Metronome,155,1,48,72,1377820980
16,13,13,Improv_Metronome,156,5,42,127,1377843640
16,13,13,Improv_Metronome,157,1,48,51,1378161884
16,13,13,Improv_Metronome,158,1,48,70,1378223116
16,13,13,Improv_Metronome,159,1,48,44,1378297992
16,13,13,Improv_Metronome,160,1,48,59,1378341572
16,13,13,Improv_Metronome,161,5,42,127,1378344148
16,13,13,Improv_Metronome,162,1,48,46,1378473244
16,13,13,Improv_Metronome,163,1,48,46,1378501972
16,13,13,Improv_Metronome,164,1,48,78,1378795884
16,13,13,Improv_Metronome,165,5,42,127,1378843932
16,13,13,Improv_Metronome,166,1,48,71,1379057032
16,13,13,Improv_Metronome,167,1,48,67,1379303676
16,13,13,Improv_Metronome,168,5,42,127,1379343584
16,13,13,Improv_Metronome,169,1,48,64,1379537348
16,13,13,Improv_Metronome,170,1,48,81,1379800788
16,13,13,Improv_Metronome,171,5,42,127,1379843684
16,13,13,Improv_Metronome,172,1,48,52,1380234756
16,13,13,Improv_Metronome,173,1,48,54,1380292904
16,13,13,Improv_Metronome,174,5,42,127,1380344160
16,13,13,Improv_Metronome,175,1,48,56,1380363764
16,13,13,Improv_Metronome,176,1,48,83,1380838556
16,13,13,Improv_Metronome,177,5,42,127,1380843964
16,13,13,Improv_Metronome,178,5,42,127,1381343576
16,13,13,Improv_Metronome,179,1,38,75,1381371776
16,13,13,Improv_Metronome,180,5,42,127,1381844592
16,13,13,Improv_Metronome,181,1,38,61,1381847036
16,13,13,Improv_Metronome,182,5,42,127,1382343972
16,13,13,Improv_Metronome,183,1,38,66,1382364932
16,13,13,Improv_Metronome,184,1,38,67,1382790444
16,13,13,Improv_Metronome,185,5,42,127,1382843716
16,13,13,Improv_Metronome,186,1,38,53,1382890948
16,13,13,Improv_Metronome,187,1,38,73,1383134828
16,13,13,Improv_Metronome,188,5,42,127,1383343652
16,13,13,Improv_Metronome,189,1,38,67,1383365812
16,13,13,Improv_Metronome,190,1,38,86,1383610740
16,13,13,Improv_Metronome,191,5,42,127,1383844280
16,13,13,Improv_Metronome,192,1,48,81,1383859492
16,13,13,Improv_Metronome,193,1,48,88,1384341152
16,13,13,Improv_Metronome,194,5,42,127,1384343800
16,13,13,Improv_Metronome,195,1,48,41,1384745448
16,13,13,Improv_Metronome,196,1,48,69,1384771640
16,13,13,Improv_Metronome,197,5,42,127,1384843680
16,13,13,Improv_Metronome,198,1,48,77,1385109200
16,13,13,Improv_Metronome,199,5,42,127,1385344584
16,13,13,Improv_Metronome,200,1,48,80,1385346448
16,13,13,Improv_Metronome,201,5,42,127,1385844184
16,13,13,Improv_Metronome,202,1,48,89,1385849316
16,13,13,Improv_Metronome,203,1,48,68,1386089984
16,13,13,Improv_Metronome,204,1,48,90,1386339396
16,13,13,Improv_Metronome,205,5,42,127,1386343684
16,13,13,Improv_Metronome,206,1,38,67,1386679268
16,13,13,Improv_Metronome,207,5,42,127,1386843568
16,13,13,Improv_Metronome,208,1,38,63,1386950352
16,13,13,Improv_Metronome,209,1,38,65,1387046804
16,13,13,Improv_Metronome,210,1,48,69,1387291432
16,13,13,Improv_Metronome,211,5,42,127,1387344336
16,13,13,Improv_Metronome,212,1,48,87,1387790960
16,13,13,Improv_Metronome,213,5,42,127,1387844232
16,13,13,Improv_Metronome,214,1,38,65,1388318488
16,13,13,Improv_Metronome,215,5,42,127,1388343760
16,13,13,Improv_Metronome,216,1,38,58,1388565300
16,13,13,Improv_Metronome,217,5,42,127,1388844320
16,13,13,Improv_Metronome,218,1,48,81,1389064080
16,13,13,Improv_Metronome,219,1,48,73,1389324240
16,13,13,Improv_Metronome,220,5,42,127,1389344140
16,13,13,Improv_Metronome,221,1,48,89,1389778148
16,13,13,Improv_Metronome,222,5,42,127,1389843740
16,13,13,Improv_Metronome,223,1,48,56,1390207532
16,13,13,Improv_Metronome,224,1,48,68,1390263016
16,13,13,Improv_Metronome,225,1,48,54,1390331996
16,13,13,Improv_Metronome,226,5,42,127,1390343672
16,13,13,Improv_Metronome,227,1,48,69,1390384928
16,13,13,Improv_Metronome,228,1,48,43,1390489996
16,13,13,Improv_Metronome,229,1,48,71,1390532912
16,13,13,Improv_Metronome,230,5,42,127,1390844188
16,13,13,Improv_Metronome,231,1,48,79,1391083812
16,13,13,Improv_Metronome,232,1,48,75,1391332552
16,13,13,Improv_Metronome,233,5,42,127,1391344228
16,13,13,Improv_Metronome,234,1,48,72,1391832376
16,13,13,Improv_Metronome,235,5,42,127,1391843612
16,13,13,Improv_Metronome,236,1,38,70,1392232712
16,13,13,Improv_Metronome,237,1,38,65,1392305744
16,13,13,Improv_Metronome,238,5,42,127,1392344460
16,13,13,Improv_Metronome,239,1,38,75,1392534040
16,13,13,Improv_Metronome,240,1,38,69,1392762068
16,13,13,Improv_Metronome,241,5,42,127,1392844112
16,13,13,Improv_Metronome,242,1,38,61,1393044820
16,13,13,Improv_Metronome,243,1,38,70,1393158300
16,13,13,Improv_Metronome,244,5,42,127,1393343976
16,13,13,Improv_Metronome,245,1,38,86,1393370908
16,13,13,Improv_Metronome,246,1,48,69,1393837936
16,13,13,Improv_Metronome,247,5,42,127,1393843572
16,13,13,Improv_Metronome,248,1,48,81,1394331636
16,13,13,Improv_Metronome,249,5,42,127,1394344292
16,13,13,Improv_Metronome,250,1,38,55,1394567920
16,13,13,Improv_Metronome,251,5,42,127,1394844104
16,13,13,Improv_Metronome,252,1,48,76,1395014932
16,13,13,Improv_Metronome,253,1,48,48,1395131796
16,13,13,Improv_Metronome,254,5,42,127,1395343828
16,13,13,Improv_Metronome,255,1,48,72,1395353892
16,13,13,Improv_Metronome,256,1,48,73,1395836796
16,13,13,Improv_Metronome,257,5,42,127,1395843428
16,13,13,Improv_Metronome,258,1,48,47,1396005872
16,13,13,Improv_Metronome,259,1,48,83,1396256624
16,13,13,Improv_Metronome,260,1,48,57,1396344680
16,13,13,Improv_Metronome,261,5,42,127,1396346096
16,13,13,Improv_Metronome,262,1,48,67,1396606464
16,13,13,Improv_Metronome,263,1,48,68,1396752004
16,13,13,Improv_Metronome,264,5,42,127,1396843736
16,13,13,Improv_Metronome,265,1,48,66,1396989924
16,13,13,Improv_Metronome,266,1,48,57,1397087504
16,13,13,Improv_Metronome,267,1,48,65,1397342084
16,13,13,Improv_Metronome,268,5,42,127,1397343964
16,13,13,Improv_Metronome,269,1,48,57,1397607844
16,13,13,Improv_Metronome,270,1,48,89,1397841120
16,13,13,Improv_Metronome,271,5,42,127,1397844364
16,13,13,Improv_Metronome,272,1,38,59,1398259928
16,13,13,Improv_Metronome,273,5,42,127,1398343968
16,13,13,Improv_Metronome,274,1,38,53,1398363716
16,13,13,Improv_Metronome,275,1,38,68,1398611332
16,13,13,Improv_Metronome,276,5,42,127,1398844052
16,13,13,Improv_Metronome,277,1,48,71,1398994888
16,13,13,Improv_Metronome,278,1,48,51,1399128388
16,13,13,Improv_Metronome,279,1,48,75,1399330744
16,13,13,Improv_Metronome,280,5,42,127,1399343552
16,13,13,Improv_Metronome,281,1,48,70,1399827888
16,13,13,Improv_Metronome,282,5,42,127,1399844048
16,13,13,Improv_Metronome,283,1,48,81,1400226904
16,13,13,Improv_Metronome,284,5,42,127,1400343860
16,13,13,Improv_Metronome,285,1,48,76,1400587296
16,13,13,Improv_Metronome,286,5,42,127,1400843832
16,13,13,Improv_Metronome,287,1,48,66,1400993700
16,13,13,Improv_Metronome,288,5,42,127,1401344480
16,13,13,Improv_Metronome,289,1,48,58,1401381568
16,13,13,Improv_Metronome,290,1,48,62,1401610296
16,13,13,Improv_Metronome,291,5,42,127,1401844060
16,13,13,Improv_Metronome,292,1,48,80,1401845320
16,13,13,Improv_Metronome,293,1,48,76,1402236368
16,13,13,Improv_Metronome,294,5,42,127,1402343712
16,13,13,Improv_Metronome,295,1,38,58,1402580576
16,13,13,Improv_Metronome,296,1,38,61,1402819756
16,13,13,Improv_Metronome,297,5,42,127,1402843384
16,13,13,Improv_Metronome,298,1,38,73,1403046928
16,13,13,Improv_Metronome,299,1,38,84,1403305592
16,13,13,Improv_Metronome,300,5,42,127,1403344232
16,13,13,Improv_Metronome,301,1,48,71,1403501608
16,13,13,Improv_Metronome,302,1,48,70,1403833476
16,13,13,Improv_Metronome,303,5,42,127,1403843888
16,13,13,Improv_Metronome,304,1,48,72,1404238664
16,13,13,Improv_Metronome,305,5,42,127,1404343624
16,13,13,Improv_Metronome,306,1,48,85,1404628052
16,13,13,Improv_Metronome,307,5,42,127,1404844496
16,13,13,Improv_Metronome,308,1,38,62,1404881212
16,13,13,Improv_Metronome,309,1,38,71,1405115536
16,13,13,Improv_Metronome,310,1,38,78,1405342032
16,13,13,Improv_Metronome,311,5,42,127,1405344736
16,13,13,Improv_Metronome,312,1,48,71,1405592788
16,13,13,Improv_Metronome,313,5,42,127,1405843728
16,13,13,Improv_Metronome,314,1,48,67,1405868052
16,13,13,Improv_Metronome,315,1,48,68,1406250672
16,13,13,Improv_Metronome,316,5,42,127,1406343548
16,13,13,Improv_Metronome,317,1,48,79,1406590376
16,13,13,Improv_Metronome,318,5,42,127,1406844452
16,13,13,Improv_Metronome,319,1,38,111,1406851480
16,13,13,Improv_Metronome,320,1,38,106,1407198480
16,13,13,Improv_Metronome,321,1,38,37,1407315248
16,13,13,Improv_Metronome,322,5,42,127,1407344028
16,13,13,Improv_Metronome,323,1,38,74,1407556012
16,13,13,Improv_Metronome,324,1,48,67,1407816020
16,13,13,Improv_Metronome,325,5,42,127,1407843680
16,13,13,Improv_Metronome,326,1,48,77,1408336452
16,13,13,Improv_Metronome,327,5,42,127,1408344624
16,13,13,Improv_Metronome,328,1,48,87,1408832624
16,13,13,Improv_Metronome,329,5,42,127,1408844300
16,13,13,Improv_Metronome,330,1,48,97,1409294812
16,13,13,Improv_Metronome,331,5,42,127,1409343756
16,13,13,Improv_Metronome,332,1,38,67,1409561480
16,13,13,Improv_Metronome,333,1,38,82,1409641212
16,13,13,Improv_Metronome,334,1,38,70,1409674144
16,13,13,Improv_Metronome,335,1,38,45,1409705340
16,13,13,Improv_Metronome,336,1,38,68,1409769684
16,13,13,Improv_Metronome,337,1,38,61,1409806404
16,13,13,Improv_Metronome,338,5,42,127,1409843620
16,13,13,Improv_Metronome,339,1,48,87,1410265828
16,13,13,Improv_Metronome,340,5,42,127,1410344268
16,13,13,Improv_Metronome,341,5,42,127,1410844100
16,13,13,Improv_Metronome,342,1,48,78,1411076856
16,13,13,Improv_Metronome,343,1,48,80,1411325740
16,13,13,Improv_Metronome,344,5,42,127,1411343620
16,13,13,Improv_Metronome,345,1,48,56,1411553212
16,13,13,Improv_Metronome,346,1,48,71,1411630624
16,13,13,Improv_Metronome,347,1,48,55,1411700124
16,13,13,Improv_Metronome,348,1,48,70,1411776592
16,13,13,Improv_Metronome,349,5,42,127,1411843380
16,13,13,Improv_Metronome,350,1,48,81,1412270444
16,13,13,Improv_Metronome,351,5,42,127,1412344176
16,13,13,Improv_Metronome,352,1,38,88,1412789312
16,13,13,Improv_Metronome,353,5,42,127,1412844300
16,13,13,Improv_Metronome,354,1,38,65,1412869652
16,13,13,Improv_Metronome,355,1,38,80,1412916232
16,13,13,Improv_Metronome,356,1,38,102,1413260192
16,13,13,Improv_Metronome,357,1,38,99,1413327232
16,13,13,Improv_Metronome,358,5,42,127,1413343620
16,13,13,Improv_Metronome,359,1,38,58,1413372108
16,13,13,Improv_Metronome,360,1,48,84,1413753232
16,13,13,Improv_Metronome,361,1,38,19,1413763480
16,13,13,Improv_Metronome,362,5,42,127,1413844384
16,13,13,Improv_Metronome,363,1,48,95,1414342452
16,13,13,Improv_Metronome,364,5,42,127,1414344256
16,13,13,Improv_Metronome,365,1,48,96,1414838748
16,13,13,Improv_Metronome,366,5,42,127,1414843712
16,13,13,Improv_Metronome,367,1,48,80,1415070104
16,13,13,Improv_Metronome,368,5,42,127,1415343520
16,13,13,Improv_Metronome,369,1,48,91,1415358880
16,13,13,Improv_Metronome,370,1,48,66,1415617552
16,13,13,Improv_Metronome,371,1,48,80,1415739388
16,13,13,Improv_Metronome,372,5,42,127,1415844200
16,13,13,Improv_Metronome,373,1,48,72,1416011664
16,13,13,Improv_Metronome,374,1,48,55,1416119424
16,13,13,Improv_Metronome,375,5,42,127,1416344076
16,13,13,Improv_Metronome,376,1,48,88,1416374672
16,13,13,Improv_Metronome,377,1,48,63,1416832192
16,13,13,Improv_Metronome,378,5,42,127,1416843820
16,13,13,Improv_Metronome,379,1,48,49,1416925100
16,13,13,Improv_Metronome,380,1,48,48,1416964952
16,13,13,Improv_Metronome,381,1,48,92,1417338616
16,13,13,Improv_Metronome,382,5,42,127,1417344252
16,13,13,Improv_Metronome,383,1,48,63,1417786620
16,13,13,Improv_Metronome,384,5,42,127,1417843928
16,13,13,Improv_Metronome,385,1,48,57,1417887824
16,13,13,Improv_Metronome,386,1,48,65,1418151564
16,13,13,Improv_Metronome,387,5,42,127,1418343864
16,13,13,Improv_Metronome,388,1,48,86,1418393900
16,13,13,Improv_Metronome,389,1,48,29,1418770392
16,13,13,Improv_Metronome,390,1,48,72,1418819360
16,13,13,Improv_Metronome,391,5,42,127,1418843516
16,13,13,Improv_Metronome,392,1,48,47,1418932660
16,13,13,Improv_Metronome,393,1,48,39,1419075336
16,13,13,Improv_Metronome,394,5,42,127,1419344348
16,13,13,Improv_Metronome,395,1,48,85,1419376736
16,13,13,Improv_Metronome,396,5,42,127,1419843876
16,13,13,Improv_Metronome,397,1,48,84,1419904784
16,13,13,Improv_Metronome,398,5,42,127,1420343676
16,13,13,Improv_Metronome,399,1,38,78,1420369860
16,13,13,Improv_Metronome,400,1,38,73,1420622628
16,13,13,Improv_Metronome,401,5,42,127,1420844744
16,13,13,Improv_Metronome,402,1,48,74,1421009400
16,13,13,Improv_Metronome,403,1,48,67,1421112872
16,13,13,Improv_Metronome,404,5,42,127,1421344028
16,13,13,Improv_Metronome,405,1,48,94,1421356700
16,13,13,Improv_Metronome,0,9999,9999,9999,1351841888
16,13,13,Improv_Metronome,1,9999,9999,9999,1352341584
16,13,13,Improv_Metronome,2,9999,9999,9999,1352841276
16,13,13,Improv_Metronome,3,9999,9999,9999,1353342048
16,13,13,Improv_Metronome,4,9999,9999,9999,1353841780
16,13,13,Improv_Metronome,5,9999,9999,9999,1354341456
16,13,13,Improv_Metronome,6,9999,9999,9999,1354841180
16,13,13,Improv_Metronome,7,9999,9999,9999,1355341908
16,13,13,Improv_Metronome,8,9999,9999,9999,1355841584
16,13,13,Improv_Metronome,9,9999,9999,9999,1356341340
16,13,13,Improv_Metronome,10,9999,9999,9999,1356842072
16,13,13,Improv_Metronome,11,9999,9999,9999,1357341776
16,13,13,Improv_Metronome,12,9999,9999,9999,1357841528
16,13,13,Improv_Metronome,13,9999,9999,9999,1358341204
16,13,13,Improv_Metronome,14,9999,9999,9999,1358841956
16,13,13,Improv_Metronome,15,9999,9999,9999,1359341664
16,13,13,Improv_Metronome,16,9999,9999,9999,1359841344
16,13,13,Improv_Metronome,17,9999,9999,9999,1360342096
16,13,13,Improv_Metronome,18,9999,9999,9999,1360841844
16,13,13,Improv_Metronome,19,9999,9999,9999,1361341524
16,13,13,Improv_Metronome,20,9999,9999,9999,1361841212
16,13,13,Improv_Metronome,21,9999,9999,9999,1362341948
16,13,13,Improv_Metronome,22,9999,9999,9999,1362841676
16,13,13,Improv_Metronome,23,9999,9999,9999,1363341404
16,13,13,Improv_Metronome,24,9999,9999,9999,1363841140
16,13,13,Improv_Metronome,25,9999,9999,9999,1364341812
16,13,13,Improv_Metronome,26,9999,9999,9999,1364841520
16,13,13,Improv_Metronome,27,9999,9999,9999,1365341304
16,13,13,Improv_Metronome,28,9999,9999,9999,1365842040
16,13,13,Improv_Metronome,29,9999,9999,9999,1366341712
16,13,13,Improv_Metronome,30,9999,9999,9999,1366841424
16,13,13,Improv_Metronome,31,9999,9999,9999,1367341144
16,13,13,Improv_Metronome,32,9999,9999,9999,1367841856
16,13,13,Improv_Metronome,33,9999,9999,9999,1368341588
16,13,13,Improv_Metronome,34,9999,9999,9999,1368841300
16,13,13,Improv_Metronome,35,9999,9999,9999,1369342068
16,13,13,Improv_Metronome,36,9999,9999,9999,1369841720
16,13,13,Improv_Metronome,37,9999,9999,9999,1370341472
16,13,13,Improv_Metronome,38,9999,9999,9999,1370841200
16,13,13,Improv_Metronome,39,9999,9999,9999,1371341908
16,13,13,Improv_Metronome,40,9999,9999,9999,1371841652
16,13,13,Improv_Metronome,41,9999,9999,9999,1372341308
16,13,13,Improv_Metronome,42,9999,9999,9999,1372842064
16,13,13,Improv_Metronome,43,9999,9999,9999,1373341792
16,13,13,Improv_Metronome,44,9999,9999,9999,1373841472
16,13,13,Improv_Metronome,45,9999,9999,9999,1374341228
16,13,13,Improv_Metronome,46,9999,9999,9999,1374841976
16,13,13,Improv_Metronome,47,9999,9999,9999,1375341644
16,13,13,Improv_Metronome,48,9999,9999,9999,1375841396
16,13,13,Improv_Metronome,49,9999,9999,9999,1376342096
16,13,13,Improv_Metronome,50,9999,9999,9999,1376841804
16,13,13,Improv_Metronome,51,9999,9999,9999,1377341532
16,13,13,Improv_Metronome,52,9999,9999,9999,1377841208
16,13,13,Improv_Metronome,53,9999,9999,9999,1378341940
16,13,13,Improv_Metronome,54,9999,9999,9999,1378841648
16,13,13,Improv_Metronome,55,9999,9999,9999,1379341376
16,13,13,Improv_Metronome,56,9999,9999,9999,1379841108
16,13,13,Improv_Metronome,57,9999,9999,9999,1380341880
16,13,13,Improv_Metronome,58,9999,9999,9999,1380841532
16,13,13,Improv_Metronome,59,9999,9999,9999,1381341292
16,13,13,Improv_Metronome,60,9999,9999,9999,1381842012
16,13,13,Improv_Metronome,61,9999,9999,9999,1382341692
16,13,13,Improv_Metronome,62,9999,9999,9999,1382841436
16,13,13,Improv_Metronome,63,9999,9999,9999,1383341148
16,13,13,Improv_Metronome,64,9999,9999,9999,1383841848
16,13,13,Improv_Metronome,65,9999,9999,9999,1384341592
16,13,13,Improv_Metronome,66,9999,9999,9999,1384841324
16,13,13,Improv_Metronome,67,9999,9999,9999,1385342004
16,13,13,Improv_Metronome,68,9999,9999,9999,1385841752
16,13,13,Improv_Metronome,69,9999,9999,9999,1386341476
16,13,13,Improv_Metronome,70,9999,9999,9999,1386841212
16,13,13,Improv_Metronome,71,9999,9999,9999,1387341904
16,13,13,Improv_Metronome,72,9999,9999,9999,1387841656
16,13,13,Improv_Metronome,73,9999,9999,9999,1388341332
16,13,13,Improv_Metronome,74,9999,9999,9999,1388842036
16,13,13,Improv_Metronome,75,9999,9999,9999,1389341784
16,13,13,Improv_Metronome,76,9999,9999,9999,1389841460
16,13,13,Improv_Metronome,77,9999,9999,9999,1390341244
16,13,13,Improv_Metronome,78,9999,9999,9999,1390841904
16,13,13,Improv_Metronome,79,9999,9999,9999,1391341648
16,13,13,Improv_Metronome,80,9999,9999,9999,1391841400
16,13,13,Improv_Metronome,81,9999,9999,9999,1392342100
16,13,13,Improv_Metronome,82,9999,9999,9999,1392841832
16,13,13,Improv_Metronome,83,9999,9999,9999,1393341544
16,13,13,Improv_Metronome,84,9999,9999,9999,1393841212
16,13,13,Improv_Metronome,85,9999,9999,9999,1394342008
16,13,13,Improv_Metronome,86,9999,9999,9999,1394841672
16,13,13,Improv_Metronome,87,9999,9999,9999,1395341400
16,13,13,Improv_Metronome,88,9999,9999,9999,1395841120
16,13,13,Improv_Metronome,89,9999,9999,9999,1396341820
16,13,13,Improv_Metronome,90,9999,9999,9999,1396841528
16,13,13,Improv_Metronome,91,9999,9999,9999,1397341240
16,13,13,Improv_Metronome,92,9999,9999,9999,1397842008
16,13,13,Improv_Metronome,93,9999,9999,9999,1398341684
16,13,13,Improv_Metronome,94,9999,9999,9999,1398841396
16,13,13,Improv_Metronome,95,9999,9999,9999,1399341120
16,13,13,Improv_Metronome,96,9999,9999,9999,1399841840
16,13,13,Improv_Metronome,97,9999,9999,9999,1400341576
16,13,13,Improv_Metronome,98,9999,9999,9999,1400841328
16,13,13,Improv_Metronome,99,9999,9999,9999,1401342048
16,13,13,Improv_Metronome,100,9999,9999,9999,1401841776
16,13,13,Improv_Metronome,101,9999,9999,9999,1402341432
16,13,13,Improv_Metronome,102,9999,9999,9999,1402841176
16,13,13,Improv_Metronome,103,9999,9999,9999,1403341876
16,13,13,Improv_Metronome,104,9999,9999,9999,1403841608
16,13,13,Improv_Metronome,105,9999,9999,9999,1404341340
16,13,13,Improv_Metronome,106,9999,9999,9999,1404842060
16,13,13,Improv_Metronome,107,9999,9999,9999,1405341748
16,13,13,Improv_Metronome,108,9999,9999,9999,1405841520
16,13,13,Improv_Metronome,109,9999,9999,9999,1406341192
16,13,13,Improv_Metronome,110,9999,9999,9999,1406841948
16,13,13,Improv_Metronome,111,9999,9999,9999,1407341672
16,13,13,Improv_Metronome,112,9999,9999,9999,1407841400
16,13,13,Improv_Metronome,113,9999,9999,9999,1408342120
16,13,13,Improv_Metronome,114,9999,9999,9999,1408841796
16,13,13,Improv_Metronome,115,9999,9999,9999,1409341548
16,13,13,Improv_Metronome,116,9999,9999,9999,1409841264
16,13,13,Improv_Metronome,117,9999,9999,9999,1410341984
16,13,13,Improv_Metronome,118,9999,9999,9999,1410841668
16,13,13,Improv_Metronome,119,9999,9999,9999,1411341412
16,13,13,Improv_Metronome,120,9999,9999,9999,1411841100
16,13,13,Improv_Metronome,121,9999,9999,9999,1412341820
16,13,13,Improv_Metronome,122,9999,9999,9999,1412841572
16,13,13,Improv_Metronome,123,9999,9999,9999,1413341260
16,13,13,Improv_Metronome,124,9999,9999,9999,1413842028
16,13,13,Improv_Metronome,125,9999,9999,9999,1414341684
16,13,13,Improv_Metronome,126,9999,9999,9999,1414841428
16,13,13,Improv_Metronome,127,9999,9999,9999,1415341160
16,13,13,Improv_Metronome,128,9999,9999,9999,1415841840
16,13,13,Improv_Metronome,129,9999,9999,9999,1416341572
16,13,13,Improv_Metronome,130,9999,9999,9999,1416841316
16,13,13,Improv_Metronome,131,9999,9999,9999,1417342044
16,13,13,Improv_Metronome,132,9999,9999,9999,1417841720
16,13,13,Improv_Metronome,133,9999,9999,9999,1418341432
16,13,13,Improv_Metronome,134,9999,9999,9999,1418841156
16,13,13,Improv_Metronome,135,9999,9999,9999,1419341916
16,13,13,Improv_Metronome,136,9999,9999,9999,1419841592
16,13,13,Improv_Metronome,137,9999,9999,9999,1420341316
16,13,13,Improv_Metronome,138,9999,9999,9999,1420842092
16,13,13,Improv_Metronome,139,9999,9999,9999,1421341744
16,14,14,Improv_Melody,0,2,48,80,1470833136
16,14,14,Improv_Melody,1,2,72,80,1470835648
16,14,14,Improv_Melody,2,5,42,127,1470837288
16,14,14,Improv_Melody,3,5,42,110,1471329600
16,14,14,Improv_Melody,4,5,42,110,1471830424
16,14,14,Improv_Melody,5,5,42,110,1472330272
16,14,14,Improv_Melody,6,5,42,127,1472829680
16,14,14,Improv_Melody,7,5,42,110,1473329532
16,14,14,Improv_Melody,8,5,42,110,1473830280
16,14,14,Improv_Melody,9,5,42,110,1474329984
16,14,14,Improv_Melody,10,2,43,80,1474832336
16,14,14,Improv_Melody,11,2,67,80,1474834332
16,14,14,Improv_Melody,12,5,42,127,1474836944
16,14,14,Improv_Melody,13,5,42,110,1475330596
16,14,14,Improv_Melody,14,5,42,110,1475830228
16,14,14,Improv_Melody,15,5,42,110,1476330004
16,14,14,Improv_Melody,16,5,42,127,1476829556
16,14,14,Improv_Melody,17,5,42,110,1477330232
16,14,14,Improv_Melody,18,5,42,110,1477830008
16,14,14,Improv_Melody,19,5,42,110,1478329936
16,14,14,Improv_Melody,20,2,45,80,1478831992
16,14,14,Improv_Melody,21,2,69,80,1478833988
16,14,14,Improv_Melody,22,5,42,127,1478836376
16,14,14,Improv_Melody,23,5,42,110,1479330104
16,14,14,Improv_Melody,24,5,42,110,1479830104
16,14,14,Improv_Melody,25,5,42,110,1480329436
16,14,14,Improv_Melody,26,5,42,127,1480830332
16,14,14,Improv_Melody,27,5,42,110,1481330084
16,14,14,Improv_Melody,28,5,42,110,1481829860
16,14,14,Improv_Melody,29,5,42,110,1482329340
16,14,14,Improv_Melody,30,2,41,80,1482832892
16,14,14,Improv_Melody,31,2,65,80,1482834888
16,14,14,Improv_Melody,32,5,42,127,1482837572
16,14,14,Improv_Melody,33,5,42,110,1483329956
16,14,14,Improv_Melody,34,5,42,110,1483829736
16,14,14,Improv_Melody,35,5,42,110,1484330260
16,14,14,Improv_Melody,36,5,42,127,1484829964
16,14,14,Improv_Melody,37,5,42,110,1485329888
16,14,14,Improv_Melody,38,5,42,110,1485829668
16,14,14,Improv_Melody,39,5,42,110,1486330264
16,14,14,Improv_Melody,40,1,48,42,1486811928
16,14,14,Improv_Melody,41,2,48,80,1486832612
16,14,14,Improv_Melody,42,2,72,80,1486834684
16,14,14,Improv_Melody,43,5,42,127,1486837148
16,14,14,Improv_Melody,44,1,48,46,1487326928
16,14,14,Improv_Melody,45,5,42,110,1487329584
16,14,14,Improv_Melody,46,1,48,54,1487814892
16,14,14,Improv_Melody,47,5,42,110,1487830608
16,14,14,Improv_Melody,48,1,38,49,1488315092
16,14,14,Improv_Melody,49,5,42,110,1488329992
16,14,14,Improv_Melody,50,1,38,54,1488555860
16,14,14,Improv_Melody,51,1,48,48,1488803624
16,14,14,Improv_Melody,52,5,42,127,1488830024
16,14,14,Improv_Melody,53,1,48,53,1489289424
16,14,14,Improv_Melody,54,5,42,110,1489329484
16,14,14,Improv_Melody,55,1,48,54,1489758316
16,14,14,Improv_Melody,56,5,42,110,1489830360
16,14,14,Improv_Melody,57,1,48,29,1490033576
16,14,14,Improv_Melody,58,1,48,57,1490085404
16,14,14,Improv_Melody,59,1,48,37,1490185144
16,14,14,Improv_Melody,60,1,48,54,1490216560
16,14,14,Improv_Melody,61,5,42,110,1490330036
16,14,14,Improv_Melody,62,1,48,25,1490333152
16,14,14,Improv_Melody,63,1,48,65,1490592488
16,14,14,Improv_Melody,64,2,43,80,1490832348
16,14,14,Improv_Melody,65,2,67,80,1490834344
16,14,14,Improv_Melody,66,5,42,127,1490837028
16,14,14,Improv_Melody,67,1,48,65,1490852536
16,14,14,Improv_Melody,68,5,42,110,1491330508
16,14,14,Improv_Melody,69,1,48,64,1491341088
16,14,14,Improv_Melody,70,1,48,59,1491796148
16,14,14,Improv_Melody,71,5,42,110,1491830308
16,14,14,Improv_Melody,72,1,38,67,1492244376
16,14,14,Improv_Melody,73,5,42,110,1492329768
16,14,14,Improv_Melody,74,1,38,46,1492338168
16,14,14,Improv_Melody,75,1,38,58,1492576000
16,14,14,Improv_Melody,76,5,42,127,1492829636
16,14,14,Improv_Melody,77,1,48,58,1492834616
16,14,14,Improv_Melody,78,1,48,61,1493291040
16,14,14,Improv_Melody,79,5,42,110,1493330280
16,14,14,Improv_Melody,80,1,38,64,1493670496
16,14,14,Improv_Melody,81,1,38,48,1493772480
16,14,14,Improv_Melody,82,5,42,110,1493830460
16,14,14,Improv_Melody,83,1,38,59,1494022584
16,14,14,Improv_Melody,84,1,38,58,1494303720
16,14,14,Improv_Melody,85,5,42,110,1494329600
16,14,14,Improv_Melody,86,1,38,62,1494545540
16,14,14,Improv_Melody,87,1,48,56,1494806220
16,14,14,Improv_Melody,88,2,45,80,1494832140
16,14,14,Improv_Melody,89,2,69,80,1494834288
16,14,14,Improv_Melody,90,5,42,127,1494836816
16,14,14,Improv_Melody,91,1,48,59,1495298376
16,14,14,Improv_Melody,92,5,42,110,1495330076
16,14,14,Improv_Melody,93,1,48,60,1495759228
16,14,14,Improv_Melody,94,5,42,110,1495829980
16,14,14,Improv_Melody,95,1,48,23,1496040096
16,14,14,Improv_Melody,96,1,48,69,1496084056
16,14,14,Improv_Melody,97,1,48,27,1496176852
16,14,14,Improv_Melody,98,1,48,51,1496219044
16,14,14,Improv_Melody,99,5,42,110,1496329508
16,14,14,Improv_Melody,100,1,48,59,1496527688
16,14,14,Improv_Melody,101,1,48,68,1496811368
16,14,14,Improv_Melody,102,5,42,127,1496830376
16,14,14,Improv_Melody,103,1,48,61,1497304112
16,14,14,Improv_Melody,104,5,42,110,1497330208
16,14,14,Improv_Melody,105,1,48,52,1497680408
16,14,14,Improv_Melody,106,1,48,45,1497801376
16,14,14,Improv_Melody,107,5,42,110,1497829868
16,14,14,Improv_Melody,108,1,48,19,1497934444
16,14,14,Improv_Melody,109,1,48,55,1498183032
16,14,14,Improv_Melody,110,1,48,32,1498260992
16,14,14,Improv_Melody,111,1,48,46,1498294196
16,14,14,Improv_Melody,112,5,42,110,1498329408
16,14,14,Improv_Melody,113,1,48,25,1498369768
16,14,14,Improv_Melody,114,1,48,60,1498734020
16,14,14,Improv_Melody,115,2,41,80,1498833724
16,14,14,Improv_Melody,116,2,65,80,1498835644
16,14,14,Improv_Melody,117,5,42,127,1498838180
16,14,14,Improv_Melody,118,1,48,58,1498849880
16,14,14,Improv_Melody,119,5,42,110,1499329868
16,14,14,Improv_Melody,120,1,48,68,1499355684
16,14,14,Improv_Melody,121,1,48,67,1499810016
16,14,14,Improv_Melody,122,5,42,110,1499829620
16,14,14,Improv_Melody,123,1,38,51,1500089392
16,14,14,Improv_Melody,124,1,38,54,1500314376
16,14,14,Improv_Melody,125,5,42,110,1500330324
16,14,14,Improv_Melody,126,1,38,60,1500564108
16,14,14,Improv_Melody,127,1,48,66,1500794548
16,14,14,Improv_Melody,128,5,42,127,1500830056
16,14,14,Improv_Melody,129,1,48,66,1501299136
16,14,14,Improv_Melody,130,5,42,110,1501329964
16,14,14,Improv_Melody,131,1,48,59,1501677924
16,14,14,Improv_Melody,132,1,48,36,1501771992
16,14,14,Improv_Melody,133,1,48,47,1501805492
16,14,14,Improv_Melody,134,5,42,110,1501829600
16,14,14,Improv_Melody,135,1,48,21,1501919768
16,14,14,Improv_Melody,136,1,48,59,1502176644
16,14,14,Improv_Melody,137,1,48,26,1502273244
16,14,14,Improv_Melody,138,1,48,46,1502291744
16,14,14,Improv_Melody,139,5,42,110,1502330340
16,14,14,Improv_Melody,140,1,48,23,1502367116
16,14,14,Improv_Melody,141,2,48,80,1502832632
16,14,14,Improv_Melody,142,2,72,80,1502834628
16,14,14,Improv_Melody,143,5,42,127,1502837092
16,14,14,Improv_Melody,144,1,48,84,1502843884
16,14,14,Improv_Melody,145,1,48,69,1503261832
16,14,14,Improv_Melody,146,5,42,110,1503329820
16,14,14,Improv_Melody,147,1,48,66,1503377900
16,14,14,Improv_Melody,148,1,48,71,1503630444
16,14,14,Improv_Melody,149,5,42,110,1503830512
16,14,14,Improv_Melody,150,1,48,65,1504000172
16,14,14,Improv_Melody,151,1,48,49,1504131296
16,14,14,Improv_Melody,152,5,42,110,1504330096
16,14,14,Improv_Melody,153,1,48,69,1504343960
16,14,14,Improv_Melody,154,1,48,56,1504814428
16,14,14,Improv_Melody,155,5,42,127,1504829920
16,14,14,Improv_Melody,156,1,48,57,1505197548
16,14,14,Improv_Melody,157,1,48,47,1505326856
16,14,14,Improv_Melody,158,5,42,110,1505329656
16,14,14,Improv_Melody,159,1,48,55,1505573448
16,14,14,Improv_Melody,160,5,42,110,1505830296
16,14,14,Improv_Melody,161,1,48,63,1505964040
16,14,14,Improv_Melody,162,1,48,58,1506089988
16,14,14,Improv_Melody,163,1,48,76,1506324012
16,14,14,Improv_Melody,164,5,42,110,1506330024
16,14,14,Improv_Melody,165,1,38,63,1506600400
16,14,14,Improv_Melody,166,2,43,80,1506832192
16,14,14,Improv_Melody,167,2,67,80,1506834336
16,14,14,Improv_Melody,168,5,42,127,1506836876
16,14,14,Improv_Melody,169,1,48,50,1506860744
16,14,14,Improv_Melody,170,1,48,57,1507223080
16,14,14,Improv_Melody,171,1,48,45,1507323712
16,14,14,Improv_Melody,172,5,42,110,1507330548
16,14,14,Improv_Melody,173,1,48,58,1507580244
16,14,14,Improv_Melody,174,5,42,110,1507830140
16,14,14,Improv_Melody,175,1,48,57,1507954824
16,14,14,Improv_Melody,176,1,48,52,1508074000
16,14,14,Improv_Melody,177,1,48,64,1508299068
16,14,14,Improv_Melody,178,5,42,110,1508329796
16,14,14,Improv_Melody,179,1,48,52,1508540284
16,14,14,Improv_Melody,180,1,48,56,1508807612
16,14,14,Improv_Melody,181,5,42,127,1508829456
16,14,14,Improv_Melody,182,1,48,52,1509196012
16,14,14,Improv_Melody,183,5,42,110,1509330468
16,14,14,Improv_Melody,184,1,48,45,1509333432
16,14,14,Improv_Melody,185,1,48,62,1509598820
16,14,14,Improv_Melody,186,5,42,110,1509830052
16,14,14,Improv_Melody,187,1,38,63,1509980044
16,14,14,Improv_Melody,188,1,38,73,1510045684
16,14,14,Improv_Melody,189,1,38,48,1510090092
16,14,14,Improv_Melody,190,1,38,48,1510147124
16,14,14,Improv_Melody,191,1,38,42,1510204220
16,14,14,Improv_Melody,192,1,38,29,1510263636
16,14,14,Improv_Melody,193,5,42,110,1510329640
16,14,14,Improv_Melody,194,1,38,25,1510353420
16,14,14,Improv_Melody,195,1,38,59,1510548696
16,14,14,Improv_Melody,196,1,38,85,1510599296
16,14,14,Improv_Melody,197,2,45,80,1510831988
16,14,14,Improv_Melody,198,2,69,80,1510834212
16,14,14,Improv_Melody,199,5,42,127,1510836744
16,14,14,Improv_Melody,200,1,48,59,1510839412
16,14,14,Improv_Melody,201,1,48,46,1511253540
16,14,14,Improv_Melody,202,5,42,110,1511330440
16,14,14,Improv_Melody,203,1,48,39,1511350940
16,14,14,Improv_Melody,204,1,48,55,1511598780
16,14,14,Improv_Melody,205,5,42,110,1511830012
16,14,14,Improv_Melody,206,1,48,55,1511960144
16,14,14,Improv_Melody,207,1,48,54,1512065436
16,14,14,Improv_Melody,208,1,38,65,1512300256
16,14,14,Improv_Melody,209,1,38,73,1512319524
16,14,14,Improv_Melody,210,5,42,110,1512329568
16,14,14,Improv_Melody,211,1,48,62,1512808204
16,14,14,Improv_Melody,212,5,42,127,1512830444
16,14,14,Improv_Melody,213,1,48,28,1513228512
16,14,14,Improv_Melody,214,5,42,110,1513330236
16,14,14,Improv_Melody,215,1,48,34,1513353244
16,14,14,Improv_Melody,216,1,48,49,1513631024
16,14,14,Improv_Melody,217,5,42,110,1513829676
16,14,14,Improv_Melody,218,1,48,53,1513984400
16,14,14,Improv_Melody,219,1,48,44,1514111492
16,14,14,Improv_Melody,220,1,48,61,1514322644
16,14,14,Improv_Melody,221,5,42,110,1514329404
16,14,14,Improv_Melody,222,1,48,60,1514570808
16,14,14,Improv_Melody,223,1,48,61,1514818648
16,14,14,Improv_Melody,224,2,41,80,1514832680
16,14,14,Improv_Melody,225,2,65,80,1514834828
16,14,14,Improv_Melody,226,5,42,127,1514837516
16,14,14,Improv_Melody,227,1,48,56,1515200428
16,14,14,Improv_Melody,228,1,48,45,1515330232
16,14,14,Improv_Melody,229,5,42,110,1515331724
16,14,14,Improv_Melody,230,1,48,54,1515566408
16,14,14,Improv_Melody,231,5,42,110,1515829596
16,14,14,Improv_Melody,232,1,38,57,1515928016
16,14,14,Improv_Melody,233,1,38,69,1515985712
16,14,14,Improv_Melody,234,1,38,50,1516036920
16,14,14,Improv_Melody,235,1,38,35,1516111640
16,14,14,Improv_Melody,236,1,38,50,1516216712
16,14,14,Improv_Melody,237,1,38,62,1516248352
16,14,14,Improv_Melody,238,5,42,110,1516330380
16,14,14,Improv_Melody,239,1,48,73,1516785072
16,14,14,Improv_Melody,240,5,42,127,1516830136
16,14,14,Improv_Melody,241,1,48,51,1517187832
16,14,14,Improv_Melody,242,1,48,58,1517303028
16,14,14,Improv_Melody,243,5,42,110,1517330020
16,14,14,Improv_Melody,244,1,48,59,1517544544
16,14,14,Improv_Melody,245,1,38,51,1517805076
16,14,14,Improv_Melody,246,5,42,110,1517829608
16,14,14,Improv_Melody,247,1,38,44,1518031656
16,14,14,Improv_Melody,248,1,38,63,1518282860
16,14,14,Improv_Melody,249,5,42,110,1518330088
16,14,14,Improv_Melody,250,1,38,54,1518511752
16,14,14,Improv_Melody,251,1,48,48,1518805888
16,14,14,Improv_Melody,252,2,48,80,1518832624
16,14,14,Improv_Melody,253,2,72,80,1518834848
16,14,14,Improv_Melody,254,5,42,127,1518837380
16,14,14,Improv_Melody,255,1,48,54,1519231956
16,14,14,Improv_Melody,256,5,42,110,1519329580
16,14,14,Improv_Melody,257,1,48,57,1519339564
16,14,14,Improv_Melody,258,1,48,63,1519564772
16,14,14,Improv_Melody,259,1,48,74,1519806644
16,14,14,Improv_Melody,260,5,42,110,1519830500
16,14,14,Improv_Melody,261,1,48,57,1519948148
16,14,14,Improv_Melody,262,1,48,69,1520216300
16,14,14,Improv_Melody,263,1,48,56,1520313820
16,14,14,Improv_Melody,264,5,42,110,1520330140
16,14,14,Improv_Melody,265,1,48,64,1520560340
16,14,14,Improv_Melody,266,1,48,60,1520821324
16,14,14,Improv_Melody,267,5,42,127,1520829948
16,14,14,Improv_Melody,268,1,48,47,1520932960
16,14,14,Improv_Melody,269,1,48,67,1521186472
16,14,14,Improv_Melody,270,5,42,110,1521329888
16,14,14,Improv_Melody,271,1,48,64,1521441952
16,14,14,Improv_Melody,272,1,48,71,1521736604
16,14,14,Improv_Melody,273,5,42,110,1521830236
16,14,14,Improv_Melody,274,1,48,50,1521852224
16,14,14,Improv_Melody,275,1,48,70,1522085652
16,14,14,Improv_Melody,276,1,48,69,1522313104
16,14,14,Improv_Melody,277,5,42,110,1522329952
16,14,14,Improv_Melody,278,1,48,75,1522547136
16,14,14,Improv_Melody,279,1,38,79,1522809704
16,14,14,Improv_Melody,280,1,48,19,1522819324
16,14,14,Improv_Melody,281,2,43,80,1522832164
16,14,14,Improv_Melody,282,2,67,80,1522834468
16,14,14,Improv_Melody,283,5,42,127,1522837000
16,14,14,Improv_Melody,284,1,48,69,1523186348
16,14,14,Improv_Melody,285,1,48,60,1523306248
16,14,14,Improv_Melody,286,5,42,110,1523330284
16,14,14,Improv_Melody,287,1,48,51,1523570092
16,14,14,Improv_Melody,288,1,48,47,1523678372
16,14,14,Improv_Melody,289,5,42,110,1523829980
16,14,14,Improv_Melody,290,1,48,69,1523934048
16,14,14,Improv_Melody,291,1,48,59,1524058284
16,14,14,Improv_Melody,292,1,48,73,1524289768
16,14,14,Improv_Melody,293,5,42,110,1524329828
16,14,14,Improv_Melody,294,1,48,63,1524814760
16,14,14,Improv_Melody,295,5,42,127,1524829736
16,14,14,Improv_Melody,296,1,48,63,1524937176
16,14,14,Improv_Melody,297,1,48,44,1525054764
16,14,14,Improv_Melody,298,1,48,22,1525163116
16,14,14,Improv_Melody,299,1,48,73,1525284732
16,14,14,Improv_Melody,300,5,42,110,1525330248
16,14,14,Improv_Melody,301,1,48,73,1525594200
16,14,14,Improv_Melody,302,1,48,49,1525729056
16,14,14,Improv_Melody,303,5,42,110,1525830040
16,14,14,Improv_Melody,304,1,48,61,1525980284
16,14,14,Improv_Melody,305,1,48,48,1526095704
16,14,14,Improv_Melody,306,1,48,80,1526326140
16,14,14,Improv_Melody,307,5,42,110,1526329768
16,14,14,Improv_Melody,308,1,48,65,1526550936
16,14,14,Improv_Melody,309,2,45,80,1526831860
16,14,14,Improv_Melody,310,2,69,80,1526833936
16,14,14,Improv_Melody,311,1,38,105,1526835048
16,14,14,Improv_Melody,312,5,42,127,1526839524
16,14,14,Improv_Melody,313,1,38,70,1527105268
16,14,14,Improv_Melody,314,5,42,110,1527330080
16,14,14,Improv_Melody,315,1,38,88,1527348948
16,14,14,Improv_Melody,316,1,48,70,1527602984
16,14,14,Improv_Melody,317,1,48,57,1527703576
16,14,14,Improv_Melody,318,5,42,110,1527829864
16,14,14,Improv_Melody,319,1,48,65,1527973760
16,14,14,Improv_Melody,320,1,48,55,1528100456
16,14,14,Improv_Melody,321,5,42,110,1528329672
16,14,14,Improv_Melody,322,1,48,85,1528330636
16,14,14,Improv_Melody,323,1,38,64,1528607360
16,14,14,Improv_Melody,324,1,38,65,1528813612
16,14,14,Improv_Melody,325,5,42,127,1528830448
16,14,14,Improv_Melody,326,1,48,75,1529210020
16,14,14,Improv_Melody,327,1,48,43,1529323496
16,14,14,Improv_Melody,328,5,42,110,1529329960
16,14,14,Improv_Melody,329,1,48,65,1529579652
16,14,14,Improv_Melody,330,1,48,64,1529677820
16,14,14,Improv_Melody,331,5,42,110,1529829680
16,14,14,Improv_Melody,332,1,38,52,1529911044
16,14,14,Improv_Melody,333,1,38,29,1530021340
16,14,14,Improv_Melody,334,1,48,81,1530317568
16,14,14,Improv_Melody,335,5,42,110,1530329408
16,14,14,Improv_Melody,336,2,41,80,1530832792
16,14,14,Improv_Melody,337,2,65,80,1530835016
16,14,14,Improv_Melody,338,5,42,127,1530837548
16,14,14,Improv_Melody,339,1,48,81,1530849772
16,14,14,Improv_Melody,340,1,38,86,1531255868
16,14,14,Improv_Melody,341,5,42,110,1531329832
16,14,14,Improv_Melody,342,1,38,54,1531364816
16,14,14,Improv_Melody,343,1,38,95,1531629452
16,14,14,Improv_Melody,344,5,42,110,1531829476
16,14,14,Improv_Melody,345,1,48,88,1532025712
16,14,14,Improv_Melody,346,1,48,59,1532149276
16,14,14,Improv_Melody,347,5,42,110,1532330328
16,14,14,Improv_Melody,348,1,48,73,1532395272
16,14,14,Improv_Melody,349,1,38,64,1532649684
16,14,14,Improv_Melody,350,5,42,127,1532829988
16,14,14,Improv_Melody,351,1,38,73,1532878952
16,14,14,Improv_Melody,352,1,48,75,1533265084
16,14,14,Improv_Melody,353,5,42,110,1533329740
16,14,14,Improv_Melody,354,1,48,62,1533371740
16,14,14,Improv_Melody,355,1,48,77,1533636304
16,14,14,Improv_Melody,356,1,48,61,1533751200
16,14,14,Improv_Melody,357,5,42,110,1533829376
16,14,14,Improv_Melody,358,1,48,63,1534019524
16,14,14,Improv_Melody,359,1,48,58,1534138332
16,14,14,Improv_Melody,360,5,42,110,1534330216
16,14,14,Improv_Melody,361,1,48,77,1534372084
16,14,14,Improv_Melody,362,1,48,58,1534602376
16,14,14,Improv_Melody,363,2,48,80,1534832656
16,14,14,Improv_Melody,364,2,72,80,1534834800
16,14,14,Improv_Melody,365,5,42,127,1534837404
16,14,14,Improv_Melody,366,1,48,83,1535089852
16,14,14,Improv_Melody,367,1,48,70,1535323204
16,14,14,Improv_Melody,368,5,42,110,1535329588
16,14,14,Improv_Melody,369,5,42,110,1535830248
16,14,14,Improv_Melody,370,1,48,63,1536066888
16,14,14,Improv_Melody,371,1,38,62,1536299048
16,14,14,Improv_Melody,372,5,42,110,1536330296
16,14,14,Improv_Melody,373,1,48,78,1536816120
16,14,14,Improv_Melody,374,5,42,127,1536829680
16,14,14,Improv_Melody,375,1,38,62,1537177436
16,14,14,Improv_Melody,376,5,42,110,1537329496
16,14,14,Improv_Melody,377,1,38,69,1537479064
16,14,14,Improv_Melody,378,1,38,67,1537758268
16,14,14,Improv_Melody,379,5,42,110,1537830212
16,14,14,Improv_Melody,380,1,38,70,1537862284
16,14,14,Improv_Melody,381,1,38,68,1538103852
16,14,14,Improv_Melody,382,1,38,82,1538329480
16,14,14,Improv_Melody,383,5,42,110,1538331944
16,14,14,Improv_Melody,384,1,38,78,1538550640
16,14,14,Improv_Melody,385,2,43,80,1538832164
16,14,14,Improv_Melody,386,2,67,80,1538834240
16,14,14,Improv_Melody,387,5,42,127,1538836924
16,14,14,Improv_Melody,388,1,48,68,1539095816
16,14,14,Improv_Melody,389,5,42,110,1539330404
16,14,14,Improv_Melody,390,1,48,82,1539350696
16,14,14,Improv_Melody,391,5,42,110,1539830012
16,14,14,Improv_Melody,392,1,48,61,1540100404
16,14,14,Improv_Melody,393,5,42,110,1540330064
16,14,14,Improv_Melody,394,1,38,93,1540343336
16,14,14,Improv_Melody,395,5,42,127,1540829448
16,14,14,Improv_Melody,396,1,48,71,1540862208
16,14,14,Improv_Melody,397,1,48,66,1541222876
16,14,14,Improv_Melody,398,5,42,110,1541330304
16,14,14,Improv_Melody,399,1,48,67,1541520496
16,14,14,Improv_Melody,400,5,42,110,1541830060
16,14,14,Improv_Melody,401,1,48,72,1542031004
16,14,14,Improv_Melody,402,5,42,110,1542329888
16,14,14,Improv_Melody,403,1,48,62,1542523588
16,14,14,Improv_Melody,404,1,48,63,1542821912
16,14,14,Improv_Melody,405,2,45,80,1542831992
16,14,14,Improv_Melody,406,2,69,80,1542834368
16,14,14,Improv_Melody,407,5,42,127,1542836896
16,14,14,Improv_Melody,408,5,42,110,1543330088
16,14,14,Improv_Melody,409,5,42,110,1543829864
16,14,14,Improv_Melody,410,1,48,66,1544087712
16,14,14,Improv_Melody,411,5,42,110,1544329544
16,14,14,Improv_Melody,412,1,38,62,1544343336
16,14,14,Improv_Melody,413,5,42,127,1544830420
16,14,14,Improv_Melody,414,1,38,75,1544844064
16,14,14,Improv_Melody,415,1,38,77,1545226316
16,14,14,Improv_Melody,416,5,42,110,1545330132
16,14,14,Improv_Melody,417,1,38,72,1545526300
16,14,14,Improv_Melody,418,5,42,110,1545829664
16,14,14,Improv_Melody,419,1,38,78,1545938536
16,14,14,Improv_Melody,420,5,42,110,1546329644
16,14,14,Improv_Melody,421,1,38,74,1546356204
16,14,14,Improv_Melody,422,1,38,71,1546616240
16,14,14,Improv_Melody,423,2,41,80,1546832776
16,14,14,Improv_Melody,424,2,65,80,1546834772
16,14,14,Improv_Melody,425,5,42,127,1546837456
16,14,14,Improv_Melody,426,1,48,81,1546865656
16,14,14,Improv_Melody,427,5,42,110,1547329968
16,14,14,Improv_Melody,428,1,48,67,1547618276
16,14,14,Improv_Melody,429,5,42,110,1547829576
16,14,14,Improv_Melody,430,1,48,66,1547848368
16,14,14,Improv_Melody,431,5,42,110,1548330596
16,14,14,Improv_Melody,432,1,48,55,1548558948
16,14,14,Improv_Melody,433,1,48,62,1548821420
16,14,14,Improv_Melody,434,5,42,127,1548830048
16,14,14,Improv_Melody,435,1,48,69,1549310648
16,14,14,Improv_Melody,436,5,42,110,1549329732
16,14,14,Improv_Melody,437,1,48,69,1549820560
16,14,14,Improv_Melody,438,5,42,110,1549829708
16,14,14,Improv_Melody,439,1,48,73,1550308668
16,14,14,Improv_Melody,440,5,42,110,1550330436
16,14,14,Improv_Melody,441,1,38,57,1550742936
16,14,14,Improv_Melody,442,1,38,81,1550796528
16,14,14,Improv_Melody,443,2,48,80,1550832524
16,14,14,Improv_Melody,444,1,38,69,1550835120
16,14,14,Improv_Melody,445,2,72,80,1550838172
16,14,14,Improv_Melody,446,5,42,127,1550840480
16,14,14,Improv_Melody,447,1,38,43,1550903544
16,14,14,Improv_Melody,448,1,38,31,1551021228
16,14,14,Improv_Melody,449,1,38,88,1551236364
16,14,14,Improv_Melody,450,1,38,90,1551298764
16,14,14,Improv_Melody,451,5,42,110,1551329568
16,14,14,Improv_Melody,452,1,38,46,1551346780
16,14,14,Improv_Melody,453,1,38,44,1551391708
16,14,14,Improv_Melody,454,1,38,73,1551727816
16,14,14,Improv_Melody,455,1,38,86,1551795168
16,14,14,Improv_Melody,456,1,38,67,1551823820
16,14,14,Improv_Melody,0,9999,9999,9999,1470827568
16,14,14,Improv_Melody,1,9999,9999,9999,1471327312
16,14,14,Improv_Melody,2,9999,9999,9999,1471828060
16,14,14,Improv_Melody,3,9999,9999,9999,1472327760
16,14,14,Improv_Melody,4,9999,9999,9999,1472827464
16,14,14,Improv_Melody,5,9999,9999,9999,1473327168
16,14,14,Improv_Melody,6,9999,9999,9999,1473827920
16,14,14,Improv_Melody,7,9999,9999,9999,1474327620
16,14,14,Improv_Melody,8,9999,9999,9999,1474827324
16,14,14,Improv_Melody,9,9999,9999,9999,1475328088
16,14,14,Improv_Melody,10,9999,9999,9999,1475827792
16,14,14,Improv_Melody,11,9999,9999,9999,1476327492
16,14,14,Improv_Melody,12,9999,9999,9999,1476827196
16,14,14,Improv_Melody,13,9999,9999,9999,1477327944
16,14,14,Improv_Melody,14,9999,9999,9999,1477827648
16,14,14,Improv_Melody,15,9999,9999,9999,1478327348
16,14,14,Improv_Melody,16,9999,9999,9999,1478827128
16,14,14,Improv_Melody,17,9999,9999,9999,1479327816
16,14,14,Improv_Melody,18,9999,9999,9999,1479827516
16,14,14,Improv_Melody,19,9999,9999,9999,1480327220
16,14,14,Improv_Melody,20,9999,9999,9999,1480827968
16,14,14,Improv_Melody,21,9999,9999,9999,1481327720
16,14,14,Improv_Melody,22,9999,9999,9999,1481827424
16,14,14,Improv_Melody,23,9999,9999,9999,1482327128
16,14,14,Improv_Melody,24,9999,9999,9999,1482827876
16,14,14,Improv_Melody,25,9999,9999,9999,1483327596
16,14,14,Improv_Melody,26,9999,9999,9999,1483827300
16,14,14,Improv_Melody,27,9999,9999,9999,1484328044
16,14,14,Improv_Melody,28,9999,9999,9999,1484827748
16,14,14,Improv_Melody,29,9999,9999,9999,1485327452
16,14,14,Improv_Melody,30,9999,9999,9999,1485827156
16,14,14,Improv_Melody,31,9999,9999,9999,1486327904
16,14,14,Improv_Melody,32,9999,9999,9999,1486827600
16,14,14,Improv_Melody,33,9999,9999,9999,1487327296
16,14,14,Improv_Melody,34,9999,9999,9999,1487828024
16,14,14,Improv_Melody,35,9999,9999,9999,1488327776
16,14,14,Improv_Melody,36,9999,9999,9999,1488827512
16,14,14,Improv_Melody,37,9999,9999,9999,1489327196
16,14,14,Improv_Melody,38,9999,9999,9999,1489827924
16,14,14,Improv_Melody,39,9999,9999,9999,1490327672
16,14,14,Improv_Melody,40,9999,9999,9999,1490827332
16,14,14,Improv_Melody,41,9999,9999,9999,1491328072
16,14,14,Improv_Melody,42,9999,9999,9999,1491827796
16,14,14,Improv_Melody,43,9999,9999,9999,1492327480
16,14,14,Improv_Melody,44,9999,9999,9999,1492827200
16,14,14,Improv_Melody,45,9999,9999,9999,1493327992
16,14,14,Improv_Melody,46,9999,9999,9999,1493827652
16,14,14,Improv_Melody,47,9999,9999,9999,1494327388
16,14,14,Improv_Melody,48,9999,9999,9999,1494827120
16,14,14,Improv_Melody,49,9999,9999,9999,1495327860
16,14,14,Improv_Melody,50,9999,9999,9999,1495827544
16,14,14,Improv_Melody,51,9999,9999,9999,1496327220
16,14,14,Improv_Melody,52,9999,9999,9999,1496828016
16,14,14,Improv_Melody,53,9999,9999,9999,1497327696
16,14,14,Improv_Melody,54,9999,9999,9999,1497827432
16,14,14,Improv_Melody,55,9999,9999,9999,1498327120
16,14,14,Improv_Melody,56,9999,9999,9999,1498827828
16,14,14,Improv_Melody,57,9999,9999,9999,1499327580
16,14,14,Improv_Melody,58,9999,9999,9999,1499827256
16,14,14,Improv_Melody,59,9999,9999,9999,1500328036
16,14,14,Improv_Melody,60,9999,9999,9999,1500827696
16,14,14,Improv_Melody,61,9999,9999,9999,1501327452
16,14,14,Improv_Melody,62,9999,9999,9999,1501827164
16,14,14,Improv_Melody,63,9999,9999,9999,1502327876
16,14,14,Improv_Melody,64,9999,9999,9999,1502827620
16,14,14,Improv_Melody,65,9999,9999,9999,1503327308
16,14,14,Improv_Melody,66,9999,9999,9999,1503828072
16,14,14,Improv_Melody,67,9999,9999,9999,1504327732
16,14,14,Improv_Melody,68,9999,9999,9999,1504827484
16,14,14,Improv_Melody,69,9999,9999,9999,1505327220
16,14,14,Improv_Melody,70,9999,9999,9999,1505827932
16,14,14,Improv_Melody,71,9999,9999,9999,1506327660
16,14,14,Improv_Melody,72,9999,9999,9999,1506827328
16,14,14,Improv_Melody,73,9999,9999,9999,1507328112
16,14,14,Improv_Melody,74,9999,9999,9999,1507827780
16,14,14,Improv_Melody,75,9999,9999,9999,1508327508
16,14,14,Improv_Melody,76,9999,9999,9999,1508827244
16,14,14,Improv_Melody,77,9999,9999,9999,1509327956
16,14,14,Improv_Melody,78,9999,9999,9999,1509827688
16,14,14,Improv_Melody,79,9999,9999,9999,1510327352
16,14,14,Improv_Melody,80,9999,9999,9999,1510827124
16,14,14,Improv_Melody,81,9999,9999,9999,1511327856
16,14,14,Improv_Melody,82,9999,9999,9999,1511827576
16,14,14,Improv_Melody,83,9999,9999,9999,1512327280
16,14,14,Improv_Melody,84,9999,9999,9999,1512828008
16,14,14,Improv_Melody,85,9999,9999,9999,1513327724
16,14,14,Improv_Melody,86,9999,9999,9999,1513827384
16,14,14,Improv_Melody,87,9999,9999,9999,1514327116
16,14,14,Improv_Melody,88,9999,9999,9999,1514827896
16,14,14,Improv_Melody,89,9999,9999,9999,1515327572
16,14,14,Improv_Melody,90,9999,9999,9999,1515827308
16,14,14,Improv_Melody,91,9999,9999,9999,1516328016
16,14,14,Improv_Melody,92,9999,9999,9999,1516827700
16,14,14,Improv_Melody,93,9999,9999,9999,1517327436
16,14,14,Improv_Melody,94,9999,9999,9999,1517827172
16,14,14,Improv_Melody,95,9999,9999,9999,1518327876
16,14,14,Improv_Melody,96,9999,9999,9999,1518827608
16,14,14,Improv_Melody,97,9999,9999,9999,1519327292
16,14,14,Improv_Melody,98,9999,9999,9999,1519828064
16,14,14,Improv_Melody,99,9999,9999,9999,1520327776
16,14,14,Improv_Melody,100,9999,9999,9999,1520827512
16,14,14,Improv_Melody,101,9999,9999,9999,1521327156
16,14,14,Improv_Melody,102,9999,9999,9999,1521827948
16,14,14,Improv_Melody,103,9999,9999,9999,1522327660
16,14,14,Improv_Melody,104,9999,9999,9999,1522827376
16,14,14,Improv_Melody,105,9999,9999,9999,1523328072
16,14,14,Improv_Melody,106,9999,9999,9999,1523827764
16,14,14,Improv_Melody,107,9999,9999,9999,1524327540
16,14,14,Improv_Melody,108,9999,9999,9999,1524827224
16,14,14,Improv_Melody,109,9999,9999,9999,1525327960
16,14,14,Improv_Melody,110,9999,9999,9999,1525827676
16,14,14,Improv_Melody,111,9999,9999,9999,1526327404
16,14,14,Improv_Melody,112,9999,9999,9999,1526827076
16,14,14,Improv_Melody,113,9999,9999,9999,1527327792
16,14,14,Improv_Melody,114,9999,9999,9999,1527827576
16,14,14,Improv_Melody,115,9999,9999,9999,1528327236
16,14,14,Improv_Melody,116,9999,9999,9999,1528828012
16,14,14,Improv_Melody,117,9999,9999,9999,1529327672
16,14,14,Improv_Melody,118,9999,9999,9999,1529827392
16,14,14,Improv_Melody,119,9999,9999,9999,1530327120
16,14,14,Improv_Melody,120,9999,9999,9999,1530827856
16,14,14,Improv_Melody,121,9999,9999,9999,1531327544
16,14,14,Improv_Melody,122,9999,9999,9999,1531827264
16,14,14,Improv_Melody,123,9999,9999,9999,1532328040
16,14,14,Improv_Melody,124,9999,9999,9999,1532827700
16,14,14,Improv_Melody,125,9999,9999,9999,1533327452
16,14,14,Improv_Melody,126,9999,9999,9999,1533827160
16,14,14,Improv_Melody,127,9999,9999,9999,1534327928
16,14,14,Improv_Melody,128,9999,9999,9999,1534827636
16,14,14,Improv_Melody,129,9999,9999,9999,1535327300
16,14,14,Improv_Melody,130,9999,9999,9999,1535828036
16,14,14,Improv_Melody,131,9999,9999,9999,1536327784
16,14,14,Improv_Melody,132,9999,9999,9999,1536827468
16,14,14,Improv_Melody,133,9999,9999,9999,1537327208
16,14,14,Improv_Melody,134,9999,9999,9999,1537827928
16,14,14,Improv_Melody,135,9999,9999,9999,1538327644
16,14,14,Improv_Melody,136,9999,9999,9999,1538827380
16,14,14,Improv_Melody,137,9999,9999,9999,1539328116
16,14,14,Improv_Melody,138,9999,9999,9999,1539827800
16,14,14,Improv_Melody,139,9999,9999,9999,1540327480
16,14,14,Improv_Melody,140,9999,9999,9999,1540827236
16,14,14,Improv_Melody,141,9999,9999,9999,1541327940
16,14,14,Improv_Melody,142,9999,9999,9999,1541827696
16,14,14,Improv_Melody,143,9999,9999,9999,1542327380
16,14,14,Improv_Melody,144,9999,9999,9999,1542827128
16,14,14,Improv_Melody,145,9999,9999,9999,1543327800
16,14,14,Improv_Melody,146,9999,9999,9999,1543827576
16,14,14,Improv_Melody,147,9999,9999,9999,1544327256
16,14,14,Improv_Melody,148,9999,9999,9999,1544827984
16,14,14,Improv_Melody,149,9999,9999,9999,1545327696
16,14,14,Improv_Melody,150,9999,9999,9999,1545827376
16,14,14,Improv_Melody,151,9999,9999,9999,1546327132
16,14,14,Improv_Melody,152,9999,9999,9999,1546827836
16,14,14,Improv_Melody,153,9999,9999,9999,1547327604
16,14,14,Improv_Melody,154,9999,9999,9999,1547827288
16,14,14,Improv_Melody,155,9999,9999,9999,1548328012
16,14,14,Improv_Melody,156,9999,9999,9999,1548827760
16,14,14,Improv_Melody,157,9999,9999,9999,1549327444
16,14,14,Improv_Melody,158,9999,9999,9999,1549827124
16,14,14,Improv_Melody,159,9999,9999,9999,1550327924
16,14,14,Improv_Melody,160,9999,9999,9999,1550827584
16,14,14,Improv_Melody,161,9999,9999,9999,1551327280
