pid,taskRunCount,taskID,taskName,i,channel,pitch,velocity,microseconds
1,1,Ticks_Pract_5,0,5,42,127,59414848
191,1,Ticks_Pract_5,1,5,42,127,59914696
191,1,Ticks_Pract_5,2,5,42,127,60415364
191,1,Ticks_Pract_5,3,5,42,127,60915036
191,1,Ticks_Pract_5,4,1,48,57,60940876
191,1,Ticks_Pract_5,5,1,48,64,61373076
191,1,Ticks_Pract_5,6,5,42,127,61415000
191,1,Ticks_Pract_5,7,1,38,61,61905384
191,1,Ticks_Pract_5,8,5,42,127,61914528
191,1,Ticks_Pract_5,9,1,38,71,62369220
191,1,Ticks_Pract_5,10,5,42,127,62415100
191,1,Ticks_Pract_5,11,1,38,76,62876816
191,1,Ticks_Pract_5,12,5,42,127,62914928
191,1,Ticks_Pract_5,13,1,38,71,63371256
191,1,Ticks_Pract_5,14,5,42,127,63414528
191,1,Ticks_Pract_5,15,1,38,64,63850176
191,1,Ticks_Pract_5,16,5,42,127,63915248
191,1,Ticks_Pract_5,17,1,38,71,64373824
191,1,Ticks_Pract_5,18,5,42,127,64415148
191,1,Ticks_Pract_5,19,1,38,74,64892684
191,1,Ticks_Pract_5,20,5,42,127,64914972
191,1,Ticks_Pract_5,21,1,38,70,65401844
191,1,Ticks_Pract_5,22,5,42,127,65414724
191,1,Ticks_Pract_5,23,1,38,75,65905328
191,1,Ticks_Pract_5,24,5,42,127,65915148
191,1,Ticks_Pract_5,25,5,42,127,66414828
191,1,Ticks_Pract_5,26,1,38,70,66427056
191,1,Ticks_Pract_5,27,5,42,127,66914804
191,1,Ticks_Pract_5,28,1,38,57,66933224
191,1,Ticks_Pract_5,29,5,42,127,67415304
191,1,Ticks_Pract_5,30,1,38,63,67416788
191,1,Ticks_Pract_5,31,5,42,127,67915052
191,1,Ticks_Pract_5,32,1,38,74,67918916
191,1,Ticks_Pract_5,33,5,42,127,68414952
191,1,Ticks_Pract_5,34,1,38,73,68428300
191,1,Ticks_Pract_5,35,1,38,63,68900476
191,1,Ticks_Pract_5,36,5,42,127,68914620
191,1,Ticks_Pract_5,37,1,38,76,69404036
191,1,Ticks_Pract_5,38,5,42,127,69415340
191,1,Ticks_Pract_5,39,1,38,78,69906776
191,1,Ticks_Pract_5,40,5,42,127,69915092
191,1,Ticks_Pract_5,41,5,42,127,70414552
191,1,Ticks_Pract_5,42,1,38,82,70416640
191,1,Ticks_Pract_5,43,5,42,127,70914676
191,1,Ticks_Pract_5,44,1,38,79,70919660
191,1,Ticks_Pract_5,45,1,38,72,71410928
191,1,Ticks_Pract_5,46,5,42,127,71415068
191,1,Ticks_Pract_5,47,5,42,127,71914748
191,1,Ticks_Pract_5,48,1,38,79,71925700
191,1,Ticks_Pract_5,49,1,38,83,72405720
191,1,Ticks_Pract_5,50,5,42,127,72414716
191,1,Ticks_Pract_5,51,1,38,86,72887408
191,1,Ticks_Pract_5,52,5,42,127,72915584
191,1,Ticks_Pract_5,53,1,38,68,73391264
191,1,Ticks_Pract_5,54,5,42,127,73414892
191,1,Ticks_Pract_5,55,1,38,86,73891388
191,1,Ticks_Pract_5,56,5,42,127,73914716
191,1,Ticks_Pract_5,57,1,38,74,74387328
191,1,Ticks_Pract_5,58,5,42,127,74414616
191,1,Ticks_Pract_5,59,1,48,74,74882600
191,1,Ticks_Pract_5,60,1,38,70,74888032
191,1,Ticks_Pract_5,61,5,42,127,74915320
191,1,Ticks_Pract_5,62,1,48,71,75369088
191,1,Ticks_Pract_5,63,1,38,85,75376984
191,1,Ticks_Pract_5,64,5,42,127,75414948
191,1,Ticks_Pract_5,65,1,48,66,75880740
191,1,Ticks_Pract_5,66,1,38,76,75881388
191,1,Ticks_Pract_5,67,5,42,127,75914504
191,1,Ticks_Pract_5,68,1,48,69,76371112
191,1,Ticks_Pract_5,69,1,38,77,76377956
191,1,Ticks_Pract_5,70,5,42,127,76415476
191,1,Ticks_Pract_5,71,1,38,85,76887244
191,1,Ticks_Pract_5,72,1,48,56,76890504
191,1,Ticks_Pract_5,73,5,42,127,76915180
191,1,Ticks_Pract_5,74,1,38,81,77384624
191,1,Ticks_Pract_5,75,1,48,62,77387076
191,1,Ticks_Pract_5,76,5,42,127,77414732
191,1,Ticks_Pract_5,77,1,48,75,77876188
191,1,Ticks_Pract_5,78,1,38,76,77889388
191,1,Ticks_Pract_5,79,5,42,127,77914512
191,1,Ticks_Pract_5,80,1,38,78,78380080
191,1,Ticks_Pract_5,81,1,48,67,78383272
191,1,Ticks_Pract_5,82,5,42,127,78415260
191,1,Ticks_Pract_5,83,1,48,79,78884188
191,1,Ticks_Pract_5,84,1,38,72,78886704
191,1,Ticks_Pract_5,85,5,42,127,78914816
191,1,Ticks_Pract_5,86,1,48,65,79400540
191,1,Ticks_Pract_5,87,1,38,65,79403880
191,1,Ticks_Pract_5,0,9999,9999,9999,59412564
191,1,Ticks_Pract_5,1,9999,9999,9999,59912264
191,1,Ticks_Pract_5,2,9999,9999,9999,60413008
191,1,Ticks_Pract_5,3,9999,9999,9999,60912752
191,1,Ticks_Pract_5,4,9999,9999,9999,61412424
191,1,Ticks_Pract_5,5,9999,9999,9999,61912172
191,1,Ticks_Pract_5,6,9999,9999,9999,62412892
191,1,Ticks_Pract_5,7,9999,9999,9999,62912572
191,1,Ticks_Pract_5,8,9999,9999,9999,63412320
191,1,Ticks_Pract_5,9,9999,9999,9999,63913040
191,1,Ticks_Pract_5,10,9999,9999,9999,64412792
191,1,Ticks_Pract_5,11,9999,9999,9999,64912468
191,1,Ticks_Pract_5,12,9999,9999,9999,65412216
191,1,Ticks_Pract_5,13,9999,9999,9999,65912940
191,1,Ticks_Pract_5,14,9999,9999,9999,66412620
191,1,Ticks_Pract_5,15,9999,9999,9999,66912372
191,1,Ticks_Pract_5,16,9999,9999,9999,67413092
191,1,Ticks_Pract_5,17,9999,9999,9999,67912768
191,1,Ticks_Pract_5,18,9999,9999,9999,68412520
191,1,Ticks_Pract_5,19,9999,9999,9999,68912192
191,1,Ticks_Pract_5,20,9999,9999,9999,69412984
191,1,Ticks_Pract_5,21,9999,9999,9999,69912660
191,1,Ticks_Pract_5,22,9999,9999,9999,70412344
191,1,Ticks_Pract_5,23,9999,9999,9999,70912096
191,1,Ticks_Pract_5,24,9999,9999,9999,71412784
191,1,Ticks_Pract_5,25,9999,9999,9999,71912540
191,1,Ticks_Pract_5,26,9999,9999,9999,72412212
191,1,Ticks_Pract_5,27,9999,9999,9999,72913004
191,1,Ticks_Pract_5,28,9999,9999,9999,73412684
191,1,Ticks_Pract_5,29,9999,9999,9999,73912436
191,1,Ticks_Pract_5,30,9999,9999,9999,74412112
191,1,Ticks_Pract_5,31,9999,9999,9999,74912888
191,1,Ticks_Pract_5,32,9999,9999,9999,75412592
191,1,Ticks_Pract_5,33,9999,9999,9999,75912296
191,1,Ticks_Pract_5,34,9999,9999,9999,76413044
191,1,Ticks_Pract_5,35,9999,9999,9999,76912748
191,1,Ticks_Pract_5,36,9999,9999,9999,77412452
191,1,Ticks_Pract_5,37,9999,9999,9999,77912156
191,1,Ticks_Pract_5,38,9999,9999,9999,78412904
191,1,Ticks_Pract_5,39,9999,9999,9999,78912608
192,0,Ticks_Pract_8,0,5,42,127,127435100
192,0,Ticks_Pract_8,1,5,42,127,128235148
192,0,Ticks_Pract_8,2,5,42,127,129034484
192,0,Ticks_Pract_8,3,1,48,68,129085236
192,0,Ticks_Pract_8,4,1,48,65,129826704
192,0,Ticks_Pract_8,5,5,42,127,129835256
192,0,Ticks_Pract_8,6,1,48,58,130602696
192,0,Ticks_Pract_8,7,5,42,127,130634988
192,0,Ticks_Pract_8,8,1,48,55,131398848
192,0,Ticks_Pract_8,9,5,42,127,131435092
192,0,Ticks_Pract_8,10,1,48,44,132154968
192,0,Ticks_Pract_8,11,5,42,127,132234676
192,0,Ticks_Pract_8,12,1,48,56,133010636
192,0,Ticks_Pract_8,13,5,42,127,133035456
192,0,Ticks_Pract_8,14,5,42,127,133835044
192,0,Ticks_Pract_8,15,1,48,64,133836984
192,0,Ticks_Pract_8,16,5,42,127,134635004
192,0,Ticks_Pract_8,17,1,48,35,134680932
192,0,Ticks_Pract_8,18,5,42,127,135434688
192,0,Ticks_Pract_8,19,1,48,44,135490600
192,0,Ticks_Pract_8,20,1,48,53,136136012
192,0,Ticks_Pract_8,21,5,42,127,136235372
192,0,Ticks_Pract_8,22,5,42,127,137035128
192,0,Ticks_Pract_8,23,1,48,47,137061164
192,0,Ticks_Pract_8,24,5,42,127,137834784
192,0,Ticks_Pract_8,25,1,48,54,137838648
192,0,Ticks_Pract_8,26,5,42,127,138634816
192,0,Ticks_Pract_8,27,1,48,48,138661600
192,0,Ticks_Pract_8,28,1,48,37,139404264
192,0,Ticks_Pract_8,29,5,42,127,139435660
192,0,Ticks_Pract_8,30,5,42,127,140235176
192,0,Ticks_Pract_8,31,1,48,29,140272868
192,0,Ticks_Pract_8,32,5,42,127,141034912
192,0,Ticks_Pract_8,33,1,48,59,141037584
192,0,Ticks_Pract_8,34,5,42,127,141834592
192,0,Ticks_Pract_8,35,1,48,58,141842564
192,0,Ticks_Pract_8,36,5,42,127,142635524
192,0,Ticks_Pract_8,37,1,48,58,142657156
192,0,Ticks_Pract_8,38,1,48,51,143374804
192,0,Ticks_Pract_8,39,5,42,127,143435176
192,0,Ticks_Pract_8,40,5,42,127,144234764
192,0,Ticks_Pract_8,41,1,48,58,144277980
192,0,Ticks_Pract_8,42,5,42,127,145034572
192,0,Ticks_Pract_8,43,1,48,85,145046572
192,0,Ticks_Pract_8,44,1,48,91,145824108
192,0,Ticks_Pract_8,45,5,42,127,145835268
192,0,Ticks_Pract_8,46,1,48,82,146630792
192,0,Ticks_Pract_8,47,5,42,127,146635376
192,0,Ticks_Pract_8,48,5,42,127,147434892
192,0,Ticks_Pract_8,49,1,48,80,147450132
192,0,Ticks_Pract_8,50,5,42,127,148234576
192,0,Ticks_Pract_8,51,1,48,81,148236588
192,0,Ticks_Pract_8,52,5,42,127,149035428
192,0,Ticks_Pract_8,53,1,48,78,149052880
192,0,Ticks_Pract_8,54,1,48,85,149817428
192,0,Ticks_Pract_8,55,5,42,127,149835152
192,0,Ticks_Pract_8,56,1,48,79,150594080
192,0,Ticks_Pract_8,57,5,42,127,150634960
192,0,Ticks_Pract_8,58,1,48,83,151399640
192,0,Ticks_Pract_8,0,9999,9999,9999,127432812
192,0,Ticks_Pract_8,1,9999,9999,9999,128232492
192,0,Ticks_Pract_8,2,9999,9999,9999,129032272
192,0,Ticks_Pract_8,3,9999,9999,9999,129833044
192,0,Ticks_Pract_8,4,9999,9999,9999,130632780
192,0,Ticks_Pract_8,5,9999,9999,9999,131432512
192,0,Ticks_Pract_8,6,9999,9999,9999,132232244
192,0,Ticks_Pract_8,7,9999,9999,9999,133033024
192,0,Ticks_Pract_8,8,9999,9999,9999,133832760
192,0,Ticks_Pract_8,9,9999,9999,9999,134632496
192,0,Ticks_Pract_8,10,9999,9999,9999,135432256
192,0,Ticks_Pract_8,11,9999,9999,9999,136233012
192,0,Ticks_Pract_8,12,9999,9999,9999,137032768
192,0,Ticks_Pract_8,13,9999,9999,9999,137832500
192,0,Ticks_Pract_8,14,9999,9999,9999,138632308
192,0,Ticks_Pract_8,15,9999,9999,9999,139433080
192,0,Ticks_Pract_8,16,9999,9999,9999,140232816
192,0,Ticks_Pract_8,17,9999,9999,9999,141032552
192,0,Ticks_Pract_8,18,9999,9999,9999,141832308
192,0,Ticks_Pract_8,19,9999,9999,9999,142633016
192,0,Ticks_Pract_8,20,9999,9999,9999,143432816
192,0,Ticks_Pract_8,21,9999,9999,9999,144232556
192,0,Ticks_Pract_8,22,9999,9999,9999,145032288
192,0,Ticks_Pract_8,23,9999,9999,9999,145833060
192,0,Ticks_Pract_8,24,9999,9999,9999,146632792
192,0,Ticks_Pract_8,25,9999,9999,9999,147432532
192,0,Ticks_Pract_8,26,9999,9999,9999,148232288
192,0,Ticks_Pract_8,27,9999,9999,9999,149033068
192,0,Ticks_Pract_8,28,9999,9999,9999,149832796
192,0,Ticks_Pract_8,29,9999,9999,9999,150632528
193,4,T1_SMS_5,0,5,42,127,221478128
193,4,T1_SMS_5,1,5,42,127,221977828
193,4,T1_SMS_5,2,1,48,39,222385828
193,4,T1_SMS_5,3,5,42,127,222477648
193,4,T1_SMS_5,4,5,42,127,222978392
193,4,T1_SMS_5,5,1,48,51,222979356
193,4,T1_SMS_5,6,1,48,77,223469364
193,4,T1_SMS_5,7,5,42,127,223478212
193,4,T1_SMS_5,8,1,48,75,223969688
193,4,T1_SMS_5,9,5,42,127,223977936
193,4,T1_SMS_5,10,1,48,78,224473744
193,4,T1_SMS_5,11,5,42,127,224477664
193,4,T1_SMS_5,12,1,48,70,224977488
193,4,T1_SMS_5,13,5,42,127,224979208
193,4,T1_SMS_5,14,1,48,71,225476716
193,4,T1_SMS_5,15,5,42,127,225478432
193,4,T1_SMS_5,16,5,42,127,225977596
193,4,T1_SMS_5,17,1,48,59,225990264
193,4,T1_SMS_5,18,1,48,69,226476216
193,4,T1_SMS_5,19,5,42,127,226477932
193,4,T1_SMS_5,20,1,48,70,226966448
193,4,T1_SMS_5,21,5,42,127,226978136
193,4,T1_SMS_5,22,5,42,127,227477892
193,4,T1_SMS_5,23,1,48,64,227484816
193,4,T1_SMS_5,24,1,48,76,227967000
193,4,T1_SMS_5,25,5,42,127,227977564
193,4,T1_SMS_5,26,1,48,73,228464508
193,4,T1_SMS_5,27,5,42,127,228478508
193,4,T1_SMS_5,28,1,48,68,228971804
193,4,T1_SMS_5,29,5,42,127,228977888
193,4,T1_SMS_5,30,5,42,127,229477644
193,4,T1_SMS_5,31,1,48,68,229489048
193,4,T1_SMS_5,32,5,42,127,229977544
193,4,T1_SMS_5,33,1,48,67,229984016
193,4,T1_SMS_5,34,5,42,127,230478192
193,4,T1_SMS_5,35,1,48,69,230484364
193,4,T1_SMS_5,36,5,42,127,230978016
193,4,T1_SMS_5,37,1,48,78,230995836
193,4,T1_SMS_5,38,5,42,127,231477548
193,4,T1_SMS_5,39,1,48,73,231494848
193,4,T1_SMS_5,40,1,48,71,231969784
193,4,T1_SMS_5,41,5,42,127,231978484
193,4,T1_SMS_5,42,5,42,127,232478168
193,4,T1_SMS_5,43,1,48,76,232493376
193,4,T1_SMS_5,44,5,42,127,232977620
193,4,T1_SMS_5,45,1,48,70,232984312
193,4,T1_SMS_5,46,5,42,127,233477444
193,4,T1_SMS_5,47,1,48,80,233485856
193,4,T1_SMS_5,48,5,42,127,233978240
193,4,T1_SMS_5,49,1,48,83,233995240
193,4,T1_SMS_5,50,1,48,86,234469188
193,4,T1_SMS_5,51,5,42,127,234478132
193,4,T1_SMS_5,52,1,48,85,234965356
193,4,T1_SMS_5,53,5,42,127,234977564
193,4,T1_SMS_5,54,1,48,82,235475112
193,4,T1_SMS_5,55,5,42,127,235478360
193,4,T1_SMS_5,56,1,48,73,235975236
193,4,T1_SMS_5,57,5,42,127,235978184
193,4,T1_SMS_5,58,1,48,80,236477496
193,4,T1_SMS_5,59,5,42,127,236479204
193,4,T1_SMS_5,60,5,42,127,236977616
193,4,T1_SMS_5,61,1,48,83,236980656
193,4,T1_SMS_5,62,1,48,72,237449476
193,4,T1_SMS_5,63,5,42,127,237478184
193,4,T1_SMS_5,64,1,48,75,237970732
193,4,T1_SMS_5,65,5,42,127,237978232
193,4,T1_SMS_5,66,5,42,127,238477544
193,4,T1_SMS_5,67,1,48,67,238484312
193,4,T1_SMS_5,68,5,42,127,238978412
193,4,T1_SMS_5,69,1,48,59,238981156
193,4,T1_SMS_5,70,1,48,68,239464684
193,4,T1_SMS_5,71,5,42,127,239478232
193,4,T1_SMS_5,72,1,48,65,239975796
193,4,T1_SMS_5,73,5,42,127,239977908
193,4,T1_SMS_5,74,5,42,127,240477516
193,4,T1_SMS_5,75,1,48,73,240481452
193,4,T1_SMS_5,76,5,42,127,240978240
193,4,T1_SMS_5,77,1,48,69,240982396
193,4,T1_SMS_5,78,1,48,66,241463084
193,4,T1_SMS_5,79,5,42,127,241477984
193,4,T1_SMS_5,80,1,48,64,241963436
193,4,T1_SMS_5,81,5,42,127,241977808
193,4,T1_SMS_5,82,5,42,127,242477340
193,4,T1_SMS_5,83,1,48,67,242490536
193,4,T1_SMS_5,84,5,42,127,242978212
193,4,T1_SMS_5,85,1,48,74,242991408
193,4,T1_SMS_5,86,5,42,127,243477964
193,4,T1_SMS_5,87,1,48,76,243481596
193,4,T1_SMS_5,88,5,42,127,243978160
193,4,T1_SMS_5,89,1,48,73,243980828
193,4,T1_SMS_5,90,1,48,77,244467196
193,4,T1_SMS_5,91,5,42,127,244478280
193,4,T1_SMS_5,92,1,48,72,244969456
193,4,T1_SMS_5,93,5,42,127,244977956
193,4,T1_SMS_5,94,1,48,72,245467792
193,4,T1_SMS_5,95,5,42,127,245477832
193,4,T1_SMS_5,96,5,42,127,245977592
193,4,T1_SMS_5,97,1,48,66,245980704
193,4,T1_SMS_5,98,5,42,127,246478088
193,4,T1_SMS_5,99,1,48,71,246494936
193,4,T1_SMS_5,100,5,42,127,246977988
193,4,T1_SMS_5,101,1,48,67,246985428
193,4,T1_SMS_5,102,5,42,127,247477740
193,4,T1_SMS_5,103,1,48,72,247497504
193,4,T1_SMS_5,104,5,42,127,247978460
193,4,T1_SMS_5,105,1,48,76,247991504
193,4,T1_SMS_5,106,5,42,127,248477912
193,4,T1_SMS_5,107,1,48,74,248489980
193,4,T1_SMS_5,108,5,42,127,248977812
193,4,T1_SMS_5,109,1,48,76,249019604
193,4,T1_SMS_5,110,1,48,76,249466540
193,4,T1_SMS_5,111,5,42,127,249477628
193,4,T1_SMS_5,112,1,48,77,249967192
193,4,T1_SMS_5,113,5,42,127,249978352
193,4,T1_SMS_5,114,1,48,61,250474856
193,4,T1_SMS_5,115,5,42,127,250477880
193,4,T1_SMS_5,116,1,48,73,250966916
193,4,T1_SMS_5,117,5,42,127,250977704
193,4,T1_SMS_5,118,5,42,127,251478360
193,4,T1_SMS_5,119,1,48,81,251481020
193,4,T1_SMS_5,120,5,42,127,251978036
193,4,T1_SMS_5,121,1,48,79,251988244
193,4,T1_SMS_5,122,1,48,73,252470576
193,4,T1_SMS_5,123,5,42,127,252477780
193,4,T1_SMS_5,124,1,48,74,252957556
193,4,T1_SMS_5,125,5,42,127,252977456
193,4,T1_SMS_5,126,1,48,82,253450292
193,4,T1_SMS_5,127,5,42,127,253478400
193,4,T1_SMS_5,128,1,48,78,253970424
193,4,T1_SMS_5,129,5,42,127,253978004
193,4,T1_SMS_5,130,1,48,78,254467416
193,4,T1_SMS_5,131,5,42,127,254477532
193,4,T1_SMS_5,132,1,48,71,254964028
193,4,T1_SMS_5,133,5,42,127,254978476
193,4,T1_SMS_5,134,1,48,62,255447704
193,4,T1_SMS_5,135,5,42,127,255478300
193,4,T1_SMS_5,136,1,48,67,255967088
193,4,T1_SMS_5,137,5,42,127,255977756
193,4,T1_SMS_5,138,5,42,127,256477488
193,4,T1_SMS_5,139,1,48,66,256500336
193,4,T1_SMS_5,140,1,48,69,256973984
193,4,T1_SMS_5,141,5,42,127,256978424
193,4,T1_SMS_5,142,1,48,67,257475228
193,4,T1_SMS_5,143,5,42,127,257477952
193,4,T1_SMS_5,144,1,48,78,257961316
193,4,T1_SMS_5,145,5,42,127,257977704
193,4,T1_SMS_5,146,5,42,127,258477460
193,4,T1_SMS_5,147,1,48,69,258482216
193,4,T1_SMS_5,148,1,48,67,258963580
193,4,T1_SMS_5,149,5,42,127,258978100
193,4,T1_SMS_5,150,1,48,70,259449892
193,4,T1_SMS_5,151,5,42,127,259478072
193,4,T1_SMS_5,152,5,42,127,259977532
193,4,T1_SMS_5,153,1,48,75,259979016
193,4,T1_SMS_5,154,5,42,127,260478256
193,4,T1_SMS_5,155,1,48,66,260483008
193,4,T1_SMS_5,156,1,48,69,260969604
193,4,T1_SMS_5,157,5,42,127,260978000
193,4,T1_SMS_5,158,5,42,127,261477612
193,4,T1_SMS_5,159,1,48,71,261490652
193,4,T1_SMS_5,160,5,42,127,261977360
193,4,T1_SMS_5,161,1,48,66,261997348
193,4,T1_SMS_5,162,1,48,76,262465644
193,4,T1_SMS_5,163,5,42,127,262478076
193,4,T1_SMS_5,164,1,48,69,262969504
193,4,T1_SMS_5,165,5,42,127,262978124
193,4,T1_SMS_5,166,1,48,63,263463356
193,4,T1_SMS_5,167,5,42,127,263477580
193,4,T1_SMS_5,168,5,42,127,263978380
193,4,T1_SMS_5,169,1,48,68,263986796
193,4,T1_SMS_5,170,1,48,77,264467040
193,4,T1_SMS_5,171,5,42,127,264478052
193,4,T1_SMS_5,172,1,48,76,264969256
193,4,T1_SMS_5,173,5,42,127,264977804
193,4,T1_SMS_5,174,5,42,127,265477336
193,4,T1_SMS_5,175,1,48,76,265490532
193,4,T1_SMS_5,176,5,42,127,265978132
193,4,T1_SMS_5,177,1,48,57,265981096
193,4,T1_SMS_5,178,1,48,64,266460716
193,4,T1_SMS_5,179,5,42,127,266477876
193,4,T1_SMS_5,180,1,48,75,266977904
193,4,T1_SMS_5,181,5,42,127,266979240
193,4,T1_SMS_5,182,5,42,127,267478332
193,4,T1_SMS_5,183,1,48,80,267483460
193,4,T1_SMS_5,184,1,48,86,267969752
193,4,T1_SMS_5,185,5,42,127,267978076
193,4,T1_SMS_5,186,1,48,82,268466740
193,4,T1_SMS_5,187,5,42,127,268477752
193,4,T1_SMS_5,188,5,42,127,268977804
193,4,T1_SMS_5,189,1,48,81,268988312
193,4,T1_SMS_5,190,1,48,73,269475572
193,4,T1_SMS_5,191,5,42,127,269478224
193,4,T1_SMS_5,192,1,48,86,269966372
193,4,T1_SMS_5,193,5,42,127,269977980
193,4,T1_SMS_5,194,1,48,84,270471424
193,4,T1_SMS_5,195,5,42,127,270477728
193,4,T1_SMS_5,196,5,42,127,270978604
193,4,T1_SMS_5,197,1,48,74,270983436
193,4,T1_SMS_5,198,5,42,127,271478208
193,4,T1_SMS_5,199,1,48,86,271479620
193,4,T1_SMS_5,200,1,48,86,271973284
193,4,T1_SMS_5,201,5,42,127,271977880
193,4,T1_SMS_5,202,5,42,127,272477636
193,4,T1_SMS_5,203,1,48,83,272483884
193,4,T1_SMS_5,204,5,42,127,272978280
193,4,T1_SMS_5,205,1,48,92,272987448
193,4,T1_SMS_5,206,5,42,127,273477884
193,4,T1_SMS_5,207,1,48,94,273490480
193,4,T1_SMS_5,208,5,42,127,273977564
193,4,T1_SMS_5,209,1,48,84,273992176
193,4,T1_SMS_5,210,5,42,127,274477388
193,4,T1_SMS_5,211,1,48,92,274483416
193,4,T1_SMS_5,212,5,42,127,274978260
193,4,T1_SMS_5,213,1,48,91,274986524
193,4,T1_SMS_5,214,5,42,127,275477860
193,4,T1_SMS_5,215,1,48,94,275480604
193,4,T1_SMS_5,216,5,42,127,275977464
193,4,T1_SMS_5,217,1,48,74,275983336
193,4,T1_SMS_5,218,1,48,85,276474112
193,4,T1_SMS_5,219,5,42,127,276478400
193,4,T1_SMS_5,220,1,48,89,276961140
193,4,T1_SMS_5,221,5,42,127,276978004
193,4,T1_SMS_5,222,1,48,81,277459920
193,4,T1_SMS_5,223,5,42,127,277477804
193,4,T1_SMS_5,224,1,48,94,277958976
193,4,T1_SMS_5,225,5,42,127,277977528
193,4,T1_SMS_5,226,1,48,87,278460292
193,4,T1_SMS_5,227,5,42,127,278478472
193,4,T1_SMS_5,228,1,48,82,278949296
193,4,T1_SMS_5,229,5,42,127,278978004
193,4,T1_SMS_5,230,1,48,80,279463828
193,4,T1_SMS_5,231,5,42,127,279477608
193,4,T1_SMS_5,232,1,48,85,279963956
193,4,T1_SMS_5,233,5,42,127,279978256
193,4,T1_SMS_5,234,1,48,75,280458260
193,4,T1_SMS_5,235,5,42,127,280478228
193,4,T1_SMS_5,236,1,48,69,280962188
193,4,T1_SMS_5,237,5,42,127,280977680
193,4,T1_SMS_5,238,1,48,73,281470452
193,4,T1_SMS_5,239,5,42,127,281477508
193,4,T1_SMS_5,240,1,48,90,281969908
193,4,T1_SMS_5,241,5,42,127,281978304
193,4,T1_SMS_5,242,1,48,76,282470328
193,4,T1_SMS_5,243,5,42,127,282478056
193,4,T1_SMS_5,244,1,48,79,282967468
193,4,T1_SMS_5,245,5,42,127,282977512
193,4,T1_SMS_5,246,1,48,76,283456388
193,4,T1_SMS_5,247,5,42,127,283478380
193,4,T1_SMS_5,248,1,48,72,283966748
193,4,T1_SMS_5,249,5,42,127,283978056
193,4,T1_SMS_5,250,1,48,67,284450896
193,4,T1_SMS_5,251,5,42,127,284478032
193,4,T1_SMS_5,252,1,48,72,284963936
193,4,T1_SMS_5,253,5,42,127,284977560
193,4,T1_SMS_5,254,5,42,127,285478288
193,4,T1_SMS_5,255,1,48,89,285482520
193,4,T1_SMS_5,256,1,48,76,285967696
193,4,T1_SMS_5,257,5,42,127,285977960
193,4,T1_SMS_5,0,9999,9999,9999,221475916
193,4,T1_SMS_5,1,9999,9999,9999,221975612
193,4,T1_SMS_5,2,9999,9999,9999,222475376
193,4,T1_SMS_5,3,9999,9999,9999,222976108
193,4,T1_SMS_5,4,9999,9999,9999,223475776
193,4,T1_SMS_5,5,9999,9999,9999,223975504
193,4,T1_SMS_5,6,9999,9999,9999,224475228
193,4,T1_SMS_5,7,9999,9999,9999,224975956
193,4,T1_SMS_5,8,9999,9999,9999,225475632
193,4,T1_SMS_5,9,9999,9999,9999,225975384
193,4,T1_SMS_5,10,9999,9999,9999,226475060
193,4,T1_SMS_5,11,9999,9999,9999,226975848
193,4,T1_SMS_5,12,9999,9999,9999,227475532
193,4,T1_SMS_5,13,9999,9999,9999,227975276
193,4,T1_SMS_5,14,9999,9999,9999,228476000
193,4,T1_SMS_5,15,9999,9999,9999,228975676
193,4,T1_SMS_5,16,9999,9999,9999,229475432
193,4,T1_SMS_5,17,9999,9999,9999,229975108
193,4,T1_SMS_5,18,9999,9999,9999,230475828
193,4,T1_SMS_5,19,9999,9999,9999,230975580
193,4,T1_SMS_5,20,9999,9999,9999,231475260
193,4,T1_SMS_5,21,9999,9999,9999,231976048
193,4,T1_SMS_5,22,9999,9999,9999,232475732
193,4,T1_SMS_5,23,9999,9999,9999,232975408
193,4,T1_SMS_5,24,9999,9999,9999,233475160
193,4,T1_SMS_5,25,9999,9999,9999,233975880
193,4,T1_SMS_5,26,9999,9999,9999,234475624
193,4,T1_SMS_5,27,9999,9999,9999,234975352
193,4,T1_SMS_5,28,9999,9999,9999,235476072
193,4,T1_SMS_5,29,9999,9999,9999,235975748
193,4,T1_SMS_5,30,9999,9999,9999,236475504
193,4,T1_SMS_5,31,9999,9999,9999,236975184
193,4,T1_SMS_5,32,9999,9999,9999,237475900
193,4,T1_SMS_5,33,9999,9999,9999,237975648
193,4,T1_SMS_5,34,9999,9999,9999,238475332
193,4,T1_SMS_5,35,9999,9999,9999,238976056
193,4,T1_SMS_5,36,9999,9999,9999,239475796
193,4,T1_SMS_5,37,9999,9999,9999,239975512
193,4,T1_SMS_5,38,9999,9999,9999,240475232
193,4,T1_SMS_5,39,9999,9999,9999,240975952
193,4,T1_SMS_5,40,9999,9999,9999,241475696
193,4,T1_SMS_5,41,9999,9999,9999,241975372
193,4,T1_SMS_5,42,9999,9999,9999,242475128
193,4,T1_SMS_5,43,9999,9999,9999,242975852
193,4,T1_SMS_5,44,9999,9999,9999,243475528
193,4,T1_SMS_5,45,9999,9999,9999,243975280
193,4,T1_SMS_5,46,9999,9999,9999,244475996
193,4,T1_SMS_5,47,9999,9999,9999,244975672
193,4,T1_SMS_5,48,9999,9999,9999,245475400
193,4,T1_SMS_5,49,9999,9999,9999,245975156
193,4,T1_SMS_5,50,9999,9999,9999,246475876
193,4,T1_SMS_5,51,9999,9999,9999,246975552
193,4,T1_SMS_5,52,9999,9999,9999,247475304
193,4,T1_SMS_5,53,9999,9999,9999,247976024
193,4,T1_SMS_5,54,9999,9999,9999,248475700
193,4,T1_SMS_5,55,9999,9999,9999,248975448
193,4,T1_SMS_5,56,9999,9999,9999,249475120
193,4,T1_SMS_5,57,9999,9999,9999,249975916
193,4,T1_SMS_5,58,9999,9999,9999,250475592
193,4,T1_SMS_5,59,9999,9999,9999,250975344
193,4,T1_SMS_5,60,9999,9999,9999,251476072
193,4,T1_SMS_5,61,9999,9999,9999,251975748
193,4,T1_SMS_5,62,9999,9999,9999,252475492
193,4,T1_SMS_5,63,9999,9999,9999,252975172
193,4,T1_SMS_5,64,9999,9999,9999,253475892
193,4,T1_SMS_5,65,9999,9999,9999,253975644
193,4,T1_SMS_5,66,9999,9999,9999,254475320
193,4,T1_SMS_5,67,9999,9999,9999,254976120
193,4,T1_SMS_5,68,9999,9999,9999,255475792
193,4,T1_SMS_5,69,9999,9999,9999,255975516
193,4,T1_SMS_5,70,9999,9999,9999,256475200
193,4,T1_SMS_5,71,9999,9999,9999,256975988
193,4,T1_SMS_5,72,9999,9999,9999,257475668
193,4,T1_SMS_5,73,9999,9999,9999,257975416
193,4,T1_SMS_5,74,9999,9999,9999,258475100
193,4,T1_SMS_5,75,9999,9999,9999,258975812
193,4,T1_SMS_5,76,9999,9999,9999,259475564
193,4,T1_SMS_5,77,9999,9999,9999,259975248
193,4,T1_SMS_5,78,9999,9999,9999,260475972
193,4,T1_SMS_5,79,9999,9999,9999,260975716
193,4,T1_SMS_5,80,9999,9999,9999,261475396
193,4,T1_SMS_5,81,9999,9999,9999,261975148
193,4,T1_SMS_5,82,9999,9999,9999,262475864
193,4,T1_SMS_5,83,9999,9999,9999,262975540
193,4,T1_SMS_5,84,9999,9999,9999,263475292
193,4,T1_SMS_5,85,9999,9999,9999,263976020
193,4,T1_SMS_5,86,9999,9999,9999,264475764
193,4,T1_SMS_5,87,9999,9999,9999,264975440
193,4,T1_SMS_5,88,9999,9999,9999,265475124
193,4,T1_SMS_5,89,9999,9999,9999,265975920
193,4,T1_SMS_5,90,9999,9999,9999,266475588
193,4,T1_SMS_5,91,9999,9999,9999,266975320
193,4,T1_SMS_5,92,9999,9999,9999,267476044
193,4,T1_SMS_5,93,9999,9999,9999,267975788
193,4,T1_SMS_5,94,9999,9999,9999,268475464
193,4,T1_SMS_5,95,9999,9999,9999,268975224
193,4,T1_SMS_5,96,9999,9999,9999,269475940
193,4,T1_SMS_5,97,9999,9999,9999,269975620
193,4,T1_SMS_5,98,9999,9999,9999,270475368
193,4,T1_SMS_5,99,9999,9999,9999,270976100
193,4,T1_SMS_5,100,9999,9999,9999,271475772
193,4,T1_SMS_5,101,9999,9999,9999,271975516
193,4,T1_SMS_5,102,9999,9999,9999,272475200
193,4,T1_SMS_5,103,9999,9999,9999,272975920
193,4,T1_SMS_5,104,9999,9999,9999,273475672
193,4,T1_SMS_5,105,9999,9999,9999,273975352
193,4,T1_SMS_5,106,9999,9999,9999,274475104
193,4,T1_SMS_5,107,9999,9999,9999,274975824
193,4,T1_SMS_5,108,9999,9999,9999,275475576
193,4,T1_SMS_5,109,9999,9999,9999,275975252
193,4,T1_SMS_5,110,9999,9999,9999,276475968
193,4,T1_SMS_5,111,9999,9999,9999,276975716
193,4,T1_SMS_5,112,9999,9999,9999,277475440
193,4,T1_SMS_5,113,9999,9999,9999,277975096
193,4,T1_SMS_5,114,9999,9999,9999,278475888
193,4,T1_SMS_5,115,9999,9999,9999,278975568
193,4,T1_SMS_5,116,9999,9999,9999,279475320
193,4,T1_SMS_5,117,9999,9999,9999,279976044
193,4,T1_SMS_5,118,9999,9999,9999,280475720
193,4,T1_SMS_5,119,9999,9999,9999,280975468
193,4,T1_SMS_5,120,9999,9999,9999,281475148
193,4,T1_SMS_5,121,9999,9999,9999,281975868
193,4,T1_SMS_5,122,9999,9999,9999,282475620
193,4,T1_SMS_5,123,9999,9999,9999,282975300
193,4,T1_SMS_5,124,9999,9999,9999,283476020
193,4,T1_SMS_5,125,9999,9999,9999,283975772
193,4,T1_SMS_5,126,9999,9999,9999,284475448
193,4,T1_SMS_5,127,9999,9999,9999,284975200
193,4,T1_SMS_5,128,9999,9999,9999,285475928
193,4,T1_SMS_5,129,9999,9999,9999,285975672
194,2,T1_SMS_8,0,5,42,127,315300168
194,2,T1_SMS_8,1,1,48,73,315787952
194,2,T1_SMS_8,2,5,42,127,316099900
194,2,T1_SMS_8,3,1,48,85,316863392
194,2,T1_SMS_8,4,5,42,127,316899796
194,2,T1_SMS_8,5,1,48,82,317689068
194,2,T1_SMS_8,6,5,42,127,317699628
194,2,T1_SMS_8,7,5,42,127,318500336
194,2,T1_SMS_8,8,1,48,76,318501744
194,2,T1_SMS_8,9,1,48,81,319284868
194,2,T1_SMS_8,10,5,42,127,319299916
194,2,T1_SMS_8,11,1,48,76,320069220
194,2,T1_SMS_8,12,5,42,127,320099572
194,2,T1_SMS_8,13,5,42,127,320899312
194,2,T1_SMS_8,14,1,48,83,320903844
194,2,T1_SMS_8,15,1,48,85,321685936
194,2,T1_SMS_8,16,5,42,127,321700308
194,2,T1_SMS_8,17,1,48,89,322474836
194,2,T1_SMS_8,18,5,42,127,322499816
194,2,T1_SMS_8,19,1,48,88,323264568
194,2,T1_SMS_8,20,5,42,127,323299548
194,2,T1_SMS_8,21,1,48,88,324076700
194,2,T1_SMS_8,22,5,42,127,324099356
194,2,T1_SMS_8,23,1,48,78,324872768
194,2,T1_SMS_8,24,5,42,127,324900208
194,2,T1_SMS_8,25,5,42,127,325699872
194,2,T1_SMS_8,26,1,48,78,325708816
194,2,T1_SMS_8,27,1,48,74,326482020
194,2,T1_SMS_8,28,5,42,127,326499600
194,2,T1_SMS_8,29,1,48,80,327258160
194,2,T1_SMS_8,30,5,42,127,327299408
194,2,T1_SMS_8,31,1,48,89,328056320
194,2,T1_SMS_8,32,5,42,127,328100112
194,2,T1_SMS_8,33,1,48,78,328844700
194,2,T1_SMS_8,34,5,42,127,328900068
194,2,T1_SMS_8,35,1,48,97,329683116
194,2,T1_SMS_8,36,5,42,127,329699824
194,2,T1_SMS_8,37,1,48,82,330484216
194,2,T1_SMS_8,38,5,42,127,330499560
194,2,T1_SMS_8,39,1,48,71,331284696
194,2,T1_SMS_8,40,5,42,127,331300188
194,2,T1_SMS_8,41,1,48,94,332083312
194,2,T1_SMS_8,42,5,42,127,332099848
194,2,T1_SMS_8,43,1,48,72,332871320
194,2,T1_SMS_8,44,5,42,127,332899952
194,2,T1_SMS_8,45,1,48,92,333695248
194,2,T1_SMS_8,46,5,42,127,333699688
194,2,T1_SMS_8,47,1,48,95,334488336
194,2,T1_SMS_8,48,5,42,127,334500096
194,2,T1_SMS_8,49,1,48,78,335277016
194,2,T1_SMS_8,50,5,42,127,335299828
194,2,T1_SMS_8,51,1,48,71,336092804
194,2,T1_SMS_8,52,5,42,127,336099884
194,2,T1_SMS_8,53,1,48,80,336874044
194,2,T1_SMS_8,54,5,42,127,336899392
194,2,T1_SMS_8,55,1,48,90,337673628
194,2,T1_SMS_8,56,5,42,127,337700172
194,2,T1_SMS_8,57,1,48,76,338485460
194,2,T1_SMS_8,58,5,42,127,338499828
194,2,T1_SMS_8,59,1,48,80,339297528
194,2,T1_SMS_8,60,5,42,127,339299636
194,2,T1_SMS_8,61,1,48,81,340089704
194,2,T1_SMS_8,62,5,42,127,340099668
194,2,T1_SMS_8,63,5,42,127,340900452
194,2,T1_SMS_8,64,1,48,71,340916712
194,2,T1_SMS_8,65,1,48,65,341668856
194,2,T1_SMS_8,66,5,42,127,341699956
194,2,T1_SMS_8,67,1,48,82,342483976
194,2,T1_SMS_8,68,5,42,127,342499640
194,2,T1_SMS_8,69,1,48,66,343283280
194,2,T1_SMS_8,70,5,42,127,343299520
194,2,T1_SMS_8,71,1,48,93,344063748
194,2,T1_SMS_8,72,5,42,127,344100520
194,2,T1_SMS_8,73,1,48,88,344845188
194,2,T1_SMS_8,74,5,42,127,344899812
194,2,T1_SMS_8,75,1,48,85,345643428
194,2,T1_SMS_8,76,5,42,127,345699544
194,2,T1_SMS_8,77,1,48,93,346465932
194,2,T1_SMS_8,78,5,42,127,346499424
194,2,T1_SMS_8,79,1,48,86,347274332
194,2,T1_SMS_8,80,5,42,127,347300276
194,2,T1_SMS_8,81,1,48,77,348063908
194,2,T1_SMS_8,82,5,42,127,348100380
194,2,T1_SMS_8,83,1,48,98,348859536
194,2,T1_SMS_8,84,5,42,127,348899764
194,2,T1_SMS_8,85,1,48,93,349690208
194,2,T1_SMS_8,86,5,42,127,349699424
194,2,T1_SMS_8,87,1,48,84,350465220
194,2,T1_SMS_8,88,5,42,127,350500128
194,2,T1_SMS_8,89,1,48,65,351276456
194,2,T1_SMS_8,90,5,42,127,351300160
194,2,T1_SMS_8,91,1,48,86,352069992
194,2,T1_SMS_8,92,5,42,127,352099596
194,2,T1_SMS_8,93,1,48,91,352857332
194,2,T1_SMS_8,94,5,42,127,352899480
194,2,T1_SMS_8,95,1,48,74,353687904
194,2,T1_SMS_8,96,5,42,127,353700108
194,2,T1_SMS_8,97,1,48,84,354493612
194,2,T1_SMS_8,98,5,42,127,354500064
194,2,T1_SMS_8,99,5,42,127,355299828
194,2,T1_SMS_8,100,1,48,82,355325272
194,2,T1_SMS_8,101,1,48,83,356096244
194,2,T1_SMS_8,102,5,42,127,356099408
194,2,T1_SMS_8,103,1,48,78,356893880
194,2,T1_SMS_8,104,5,42,127,356900112
194,2,T1_SMS_8,105,5,42,127,357699928
194,2,T1_SMS_8,106,1,48,68,357711552
194,2,T1_SMS_8,107,5,42,127,358499884
194,2,T1_SMS_8,108,1,48,71,358544212
194,2,T1_SMS_8,109,5,42,127,359299540
194,2,T1_SMS_8,110,1,48,93,359310944
194,2,T1_SMS_8,111,1,48,99,360098200
194,2,T1_SMS_8,112,5,42,127,360100164
194,2,T1_SMS_8,113,1,48,75,360898164
194,2,T1_SMS_8,114,5,42,127,360899896
194,2,T1_SMS_8,115,5,42,127,361699736
194,2,T1_SMS_8,116,1,48,94,361711436
194,2,T1_SMS_8,117,1,48,87,362428692
194,2,T1_SMS_8,118,5,42,127,362499612
194,2,T1_SMS_8,119,1,48,82,363247716
194,2,T1_SMS_8,120,5,42,127,363300388
194,2,T1_SMS_8,121,1,48,70,364077464
194,2,T1_SMS_8,122,5,42,127,364100048
194,2,T1_SMS_8,123,1,48,81,364882720
194,2,T1_SMS_8,124,5,42,127,364899632
194,2,T1_SMS_8,125,5,42,127,365699372
194,2,T1_SMS_8,126,1,48,85,365702932
194,2,T1_SMS_8,127,5,42,127,366500448
194,2,T1_SMS_8,128,1,48,86,366505500
194,2,T1_SMS_8,129,5,42,127,367299808
194,2,T1_SMS_8,130,1,48,77,367313520
194,2,T1_SMS_8,131,1,48,78,368087328
194,2,T1_SMS_8,132,5,42,127,368099556
194,2,T1_SMS_8,133,1,48,76,368881708
194,2,T1_SMS_8,134,5,42,127,368899512
194,2,T1_SMS_8,135,1,48,74,369678828
194,2,T1_SMS_8,136,5,42,127,369700440
194,2,T1_SMS_8,137,1,48,84,370495512
194,2,T1_SMS_8,138,5,42,127,370499876
194,2,T1_SMS_8,139,1,48,74,371268140
194,2,T1_SMS_8,140,5,42,127,371299684
194,2,T1_SMS_8,141,1,48,84,372068472
194,2,T1_SMS_8,142,5,42,127,372099344
194,2,T1_SMS_8,143,5,42,127,372900348
194,2,T1_SMS_8,144,1,48,90,372901988
194,2,T1_SMS_8,145,1,48,72,373688472
194,2,T1_SMS_8,146,5,42,127,373700076
194,2,T1_SMS_8,147,1,48,76,374481108
194,2,T1_SMS_8,148,5,42,127,374499688
194,2,T1_SMS_8,149,1,48,70,375262992
194,2,T1_SMS_8,150,5,42,127,375299492
194,2,T1_SMS_8,151,1,48,73,376061184
194,2,T1_SMS_8,152,5,42,127,376100048
194,2,T1_SMS_8,153,1,48,88,376865616
194,2,T1_SMS_8,154,5,42,127,376900076
194,2,T1_SMS_8,155,1,48,78,377665052
194,2,T1_SMS_8,156,5,42,127,377699660
194,2,T1_SMS_8,157,1,48,90,378488236
194,2,T1_SMS_8,158,5,42,127,378499396
194,2,T1_SMS_8,159,1,48,92,379270640
194,2,T1_SMS_8,160,5,42,127,379300244
194,2,T1_SMS_8,161,1,48,80,380073732
194,2,T1_SMS_8,162,5,42,127,380099976
194,2,T1_SMS_8,163,1,48,63,380883324
194,2,T1_SMS_8,164,5,42,127,380899808
194,2,T1_SMS_8,165,1,48,85,381669492
194,2,T1_SMS_8,166,5,42,127,381699320
194,2,T1_SMS_8,167,1,48,69,382475116
194,2,T1_SMS_8,168,5,42,127,382500096
194,2,T1_SMS_8,169,5,42,127,383299908
194,2,T1_SMS_8,170,1,48,80,383302644
194,2,T1_SMS_8,171,1,48,78,384036428
194,2,T1_SMS_8,172,5,42,127,384099564
194,2,T1_SMS_8,173,1,48,72,384841840
194,2,T1_SMS_8,174,5,42,127,384899516
194,2,T1_SMS_8,175,1,48,71,385651424
194,2,T1_SMS_8,176,5,42,127,385700368
194,2,T1_SMS_8,177,1,48,70,386472588
194,2,T1_SMS_8,178,5,42,127,386500028
194,2,T1_SMS_8,179,5,42,127,387299644
194,2,T1_SMS_8,180,1,48,81,387302156
194,2,T1_SMS_8,181,5,42,127,388099452
194,2,T1_SMS_8,182,1,48,68,388103160
194,2,T1_SMS_8,183,1,48,71,388892344
194,2,T1_SMS_8,184,5,42,127,388900072
194,2,T1_SMS_8,185,1,48,92,389688648
194,2,T1_SMS_8,186,5,42,127,389699808
194,2,T1_SMS_8,187,1,48,85,390472620
194,2,T1_SMS_8,188,5,42,127,390499616
194,2,T1_SMS_8,189,1,48,66,391290276
194,2,T1_SMS_8,190,5,42,127,391299348
194,2,T1_SMS_8,191,1,48,89,392094192
194,2,T1_SMS_8,192,5,42,127,392100272
194,2,T1_SMS_8,193,1,48,87,392893396
194,2,T1_SMS_8,194,5,42,127,392900080
194,2,T1_SMS_8,195,1,48,86,393698944
194,2,T1_SMS_8,196,5,42,127,393700736
194,2,T1_SMS_8,197,1,48,74,394496332
194,2,T1_SMS_8,198,5,42,127,394499424
194,2,T1_SMS_8,199,1,48,89,395274332
194,2,T1_SMS_8,200,5,42,127,395300352
194,2,T1_SMS_8,201,1,48,90,396084216
194,2,T1_SMS_8,202,5,42,127,396100084
194,2,T1_SMS_8,203,1,48,66,396887012
194,2,T1_SMS_8,204,5,42,127,396899816
194,2,T1_SMS_8,205,1,48,104,397696008
194,2,T1_SMS_8,206,5,42,127,397699476
194,2,T1_SMS_8,207,1,48,73,398475352
194,2,T1_SMS_8,208,5,42,127,398500252
194,2,T1_SMS_8,209,5,42,127,399300064
194,2,T1_SMS_8,210,1,48,88,399303780
194,2,T1_SMS_8,211,1,48,99,400077956
194,2,T1_SMS_8,212,5,42,127,400099964
194,2,T1_SMS_8,213,1,48,87,400869724
194,2,T1_SMS_8,214,5,42,127,400899400
194,2,T1_SMS_8,215,1,48,63,401656012
194,2,T1_SMS_8,216,5,42,127,401700104
194,2,T1_SMS_8,217,1,48,86,402480240
194,2,T1_SMS_8,218,5,42,127,402500060
194,2,T1_SMS_8,219,1,48,93,403256452
194,2,T1_SMS_8,220,5,42,127,403299792
194,2,T1_SMS_8,221,1,48,93,404056260
194,2,T1_SMS_8,222,5,42,127,404099304
194,2,T1_SMS_8,223,1,48,86,404871072
194,2,T1_SMS_8,224,5,42,127,404900156
194,2,T1_SMS_8,225,1,48,99,405674612
194,2,T1_SMS_8,226,5,42,127,405699816
194,2,T1_SMS_8,227,1,48,79,406482560
194,2,T1_SMS_8,228,5,42,127,406499572
194,2,T1_SMS_8,229,1,48,66,407279256
194,2,T1_SMS_8,230,5,42,127,407299824
194,2,T1_SMS_8,231,1,48,70,408085860
194,2,T1_SMS_8,232,5,42,127,408100156
194,2,T1_SMS_8,233,1,48,85,408894480
194,2,T1_SMS_8,234,5,42,127,408899816
194,2,T1_SMS_8,235,1,48,72,409692568
194,2,T1_SMS_8,236,5,42,127,409699700
194,2,T1_SMS_8,237,5,42,127,410499588
194,2,T1_SMS_8,238,1,48,97,410502100
194,2,T1_SMS_8,239,1,48,67,411289052
194,2,T1_SMS_8,0,9999,9999,9999,315297880
194,2,T1_SMS_8,1,9999,9999,9999,316097616
194,2,T1_SMS_8,2,9999,9999,9999,316897360
194,2,T1_SMS_8,3,9999,9999,9999,317697120
194,2,T1_SMS_8,4,9999,9999,9999,318497904
194,2,T1_SMS_8,5,9999,9999,9999,319297628
194,2,T1_SMS_8,6,9999,9999,9999,320097364
194,2,T1_SMS_8,7,9999,9999,9999,320897100
194,2,T1_SMS_8,8,9999,9999,9999,321697876
194,2,T1_SMS_8,9,9999,9999,9999,322497608
194,2,T1_SMS_8,10,9999,9999,9999,323297340
194,2,T1_SMS_8,11,9999,9999,9999,324097072
194,2,T1_SMS_8,12,9999,9999,9999,324897848
194,2,T1_SMS_8,13,9999,9999,9999,325697588
194,2,T1_SMS_8,14,9999,9999,9999,326497392
194,2,T1_SMS_8,15,9999,9999,9999,327297124
194,2,T1_SMS_8,16,9999,9999,9999,328097904
194,2,T1_SMS_8,17,9999,9999,9999,328897636
194,2,T1_SMS_8,18,9999,9999,9999,329697368
194,2,T1_SMS_8,19,9999,9999,9999,330497128
194,2,T1_SMS_8,20,9999,9999,9999,331297904
194,2,T1_SMS_8,21,9999,9999,9999,332097640
194,2,T1_SMS_8,22,9999,9999,9999,332897372
194,2,T1_SMS_8,23,9999,9999,9999,333697104
194,2,T1_SMS_8,24,9999,9999,9999,334497884
194,2,T1_SMS_8,25,9999,9999,9999,335297616
194,2,T1_SMS_8,26,9999,9999,9999,336097352
194,2,T1_SMS_8,27,9999,9999,9999,336897108
194,2,T1_SMS_8,28,9999,9999,9999,337697884
194,2,T1_SMS_8,29,9999,9999,9999,338497620
194,2,T1_SMS_8,30,9999,9999,9999,339297396
194,2,T1_SMS_8,31,9999,9999,9999,340097088
194,2,T1_SMS_8,32,9999,9999,9999,340897872
194,2,T1_SMS_8,33,9999,9999,9999,341697596
194,2,T1_SMS_8,34,9999,9999,9999,342497332
194,2,T1_SMS_8,35,9999,9999,9999,343297088
194,2,T1_SMS_8,36,9999,9999,9999,344097864
194,2,T1_SMS_8,37,9999,9999,9999,344897600
194,2,T1_SMS_8,38,9999,9999,9999,345697332
194,2,T1_SMS_8,39,9999,9999,9999,346497140
194,2,T1_SMS_8,40,9999,9999,9999,347297844
194,2,T1_SMS_8,41,9999,9999,9999,348097652
194,2,T1_SMS_8,42,9999,9999,9999,348897408
194,2,T1_SMS_8,43,9999,9999,9999,349697140
194,2,T1_SMS_8,44,9999,9999,9999,350497844
194,2,T1_SMS_8,45,9999,9999,9999,351297652
194,2,T1_SMS_8,46,9999,9999,9999,352097384
194,2,T1_SMS_8,47,9999,9999,9999,352897120
194,2,T1_SMS_8,48,9999,9999,9999,353697896
194,2,T1_SMS_8,49,9999,9999,9999,354497632
194,2,T1_SMS_8,50,9999,9999,9999,355297396
194,2,T1_SMS_8,51,9999,9999,9999,356097124
194,2,T1_SMS_8,52,9999,9999,9999,356897900
194,2,T1_SMS_8,53,9999,9999,9999,357697644
194,2,T1_SMS_8,54,9999,9999,9999,358497376
194,2,T1_SMS_8,55,9999,9999,9999,359297108
194,2,T1_SMS_8,56,9999,9999,9999,360097916
194,2,T1_SMS_8,57,9999,9999,9999,360897636
194,2,T1_SMS_8,58,9999,9999,9999,361697376
194,2,T1_SMS_8,59,9999,9999,9999,362497104
194,2,T1_SMS_8,60,9999,9999,9999,363297880
194,2,T1_SMS_8,61,9999,9999,9999,364097612
194,2,T1_SMS_8,62,9999,9999,9999,364897348
194,2,T1_SMS_8,63,9999,9999,9999,365697088
194,2,T1_SMS_8,64,9999,9999,9999,366497864
194,2,T1_SMS_8,65,9999,9999,9999,367297596
194,2,T1_SMS_8,66,9999,9999,9999,368097348
194,2,T1_SMS_8,67,9999,9999,9999,368897080
194,2,T1_SMS_8,68,9999,9999,9999,369697860
194,2,T1_SMS_8,69,9999,9999,9999,370497592
194,2,T1_SMS_8,70,9999,9999,9999,371297400
194,2,T1_SMS_8,71,9999,9999,9999,372097132
194,2,T1_SMS_8,72,9999,9999,9999,372897840
194,2,T1_SMS_8,73,9999,9999,9999,373697644
194,2,T1_SMS_8,74,9999,9999,9999,374497328
194,2,T1_SMS_8,75,9999,9999,9999,375297132
194,2,T1_SMS_8,76,9999,9999,9999,376097836
194,2,T1_SMS_8,77,9999,9999,9999,376897644
194,2,T1_SMS_8,78,9999,9999,9999,377697376
194,2,T1_SMS_8,79,9999,9999,9999,378497112
194,2,T1_SMS_8,80,9999,9999,9999,379297888
194,2,T1_SMS_8,81,9999,9999,9999,380097620
194,2,T1_SMS_8,82,9999,9999,9999,380897376
194,2,T1_SMS_8,83,9999,9999,9999,381697108
194,2,T1_SMS_8,84,9999,9999,9999,382497888
194,2,T1_SMS_8,85,9999,9999,9999,383297624
194,2,T1_SMS_8,86,9999,9999,9999,384097352
194,2,T1_SMS_8,87,9999,9999,9999,384897084
194,2,T1_SMS_8,88,9999,9999,9999,385697864
194,2,T1_SMS_8,89,9999,9999,9999,386497596
194,2,T1_SMS_8,90,9999,9999,9999,387297360
194,2,T1_SMS_8,91,9999,9999,9999,388097092
194,2,T1_SMS_8,92,9999,9999,9999,388897864
194,2,T1_SMS_8,93,9999,9999,9999,389697596
194,2,T1_SMS_8,94,9999,9999,9999,390497332
194,2,T1_SMS_8,95,9999,9999,9999,391297136
194,2,T1_SMS_8,96,9999,9999,9999,392097840
194,2,T1_SMS_8,97,9999,9999,9999,392897648
194,2,T1_SMS_8,98,9999,9999,9999,393697340
194,2,T1_SMS_8,99,9999,9999,9999,394497140
194,2,T1_SMS_8,100,9999,9999,9999,395297844
194,2,T1_SMS_8,101,9999,9999,9999,396097652
194,2,T1_SMS_8,102,9999,9999,9999,396897384
194,2,T1_SMS_8,103,9999,9999,9999,397697116
194,2,T1_SMS_8,104,9999,9999,9999,398497896
194,2,T1_SMS_8,105,9999,9999,9999,399297632
194,2,T1_SMS_8,106,9999,9999,9999,400097384
194,2,T1_SMS_8,107,9999,9999,9999,400897116
194,2,T1_SMS_8,108,9999,9999,9999,401697896
194,2,T1_SMS_8,109,9999,9999,9999,402497628
194,2,T1_SMS_8,110,9999,9999,9999,403297360
194,2,T1_SMS_8,111,9999,9999,9999,404097092
194,2,T1_SMS_8,112,9999,9999,9999,404897872
194,2,T1_SMS_8,113,9999,9999,9999,405697604
194,2,T1_SMS_8,114,9999,9999,9999,406497360
194,2,T1_SMS_8,115,9999,9999,9999,407297092
194,2,T1_SMS_8,116,9999,9999,9999,408097872
194,2,T1_SMS_8,117,9999,9999,9999,408897604
194,2,T1_SMS_8,118,9999,9999,9999,409697340
194,2,T1_SMS_8,119,9999,9999,9999,410497080
195,21,Ticks_Linear_5,0,5,42,127,432199124
195,21,Ticks_Linear_5,1,5,42,127,432679168
195,21,Ticks_Linear_5,2,1,48,80,433119984
195,21,Ticks_Linear_5,3,5,42,127,433158676
195,21,Ticks_Linear_5,4,1,48,74,433579644
195,21,Ticks_Linear_5,5,5,42,127,433638772
195,21,Ticks_Linear_5,6,1,48,77,434084552
195,21,Ticks_Linear_5,7,5,42,127,434118992
195,21,Ticks_Linear_5,8,1,48,74,434584308
195,21,Ticks_Linear_5,9,5,42,127,434608432
195,21,Ticks_Linear_5,10,1,48,86,435091096
195,21,Ticks_Linear_5,11,5,42,127,435098916
195,21,Ticks_Linear_5,12,5,42,127,435588512
195,21,Ticks_Linear_5,13,1,48,65,435591996
195,21,Ticks_Linear_5,14,5,42,127,436078920
195,21,Ticks_Linear_5,15,1,48,82,436093244
195,21,Ticks_Linear_5,16,5,42,127,436568512
195,21,Ticks_Linear_5,17,1,48,81,436582836
195,21,Ticks_Linear_5,18,1,48,72,437061936
195,21,Ticks_Linear_5,19,5,42,127,437069380
195,21,Ticks_Linear_5,20,5,42,127,437568844
195,21,Ticks_Linear_5,21,1,48,70,437593188
195,21,Ticks_Linear_5,22,1,48,77,438052848
195,21,Ticks_Linear_5,23,5,42,127,438068596
195,21,Ticks_Linear_5,24,1,48,94,438553280
195,21,Ticks_Linear_5,25,5,42,127,438569324
195,21,Ticks_Linear_5,26,1,48,86,439054080
195,21,Ticks_Linear_5,27,5,42,127,439069080
195,21,Ticks_Linear_5,28,1,48,69,439545612
195,21,Ticks_Linear_5,29,5,42,127,439578932
195,21,Ticks_Linear_5,30,1,48,89,440073632
195,21,Ticks_Linear_5,31,5,42,127,440089076
195,21,Ticks_Linear_5,32,1,48,80,440567564
195,21,Ticks_Linear_5,33,5,42,127,440598780
195,21,Ticks_Linear_5,34,5,42,127,441108708
195,21,Ticks_Linear_5,35,1,48,80,441111748
195,21,Ticks_Linear_5,36,1,48,87,441614692
195,21,Ticks_Linear_5,37,5,42,127,441618852
195,21,Ticks_Linear_5,38,1,48,68,442120956
195,21,Ticks_Linear_5,39,5,42,127,442139092
195,21,Ticks_Linear_5,40,1,48,72,442657228
195,21,Ticks_Linear_5,41,5,42,127,442659112
195,21,Ticks_Linear_5,42,5,42,127,443179356
195,21,Ticks_Linear_5,43,1,48,96,443196536
195,21,Ticks_Linear_5,44,1,48,81,443685860
195,21,Ticks_Linear_5,45,5,42,127,443698620
195,21,Ticks_Linear_5,46,1,48,69,444183156
195,21,Ticks_Linear_5,47,5,42,127,444219088
195,21,Ticks_Linear_5,48,1,48,91,444721044
195,21,Ticks_Linear_5,49,5,42,127,444749272
195,21,Ticks_Linear_5,50,1,48,66,445261696
195,21,Ticks_Linear_5,51,5,42,127,445278712
195,21,Ticks_Linear_5,52,1,48,89,445791060
195,21,Ticks_Linear_5,53,5,42,127,445809120
195,21,Ticks_Linear_5,54,1,48,81,446281100
195,21,Ticks_Linear_5,55,5,42,127,446338484
195,21,Ticks_Linear_5,56,1,48,81,446813672
195,21,Ticks_Linear_5,57,5,42,127,446868968
195,21,Ticks_Linear_5,58,1,48,69,447360460
195,21,Ticks_Linear_5,59,5,42,127,447408868
195,21,Ticks_Linear_5,60,1,48,79,447903720
195,21,Ticks_Linear_5,61,5,42,127,447949220
195,21,Ticks_Linear_5,62,1,48,63,448453120
195,21,Ticks_Linear_5,63,5,42,127,448488928
195,21,Ticks_Linear_5,64,1,48,78,449006056
195,21,Ticks_Linear_5,65,5,42,127,449028384
195,21,Ticks_Linear_5,66,1,48,83,449537968
195,21,Ticks_Linear_5,67,5,42,127,449569256
195,21,Ticks_Linear_5,68,1,48,74,450083324
195,21,Ticks_Linear_5,69,5,42,127,450119028
195,21,Ticks_Linear_5,70,1,48,64,450644680
195,21,Ticks_Linear_5,71,5,42,127,450668876
195,21,Ticks_Linear_5,72,1,48,78,451187212
195,21,Ticks_Linear_5,73,5,42,127,451218796
195,21,Ticks_Linear_5,74,1,48,66,451735852
195,21,Ticks_Linear_5,75,5,42,127,451768644
195,21,Ticks_Linear_5,76,1,48,59,452292504
195,21,Ticks_Linear_5,77,5,42,127,452318520
195,21,Ticks_Linear_5,78,1,48,74,452853892
195,21,Ticks_Linear_5,79,5,42,127,452878680
195,21,Ticks_Linear_5,80,1,48,85,453389984
195,21,Ticks_Linear_5,81,5,42,127,453438696
195,21,Ticks_Linear_5,82,1,48,83,453923084
195,21,Ticks_Linear_5,83,5,42,127,453998936
195,21,Ticks_Linear_5,84,1,48,77,454520408
195,21,Ticks_Linear_5,85,5,42,127,454558952
195,21,Ticks_Linear_5,86,1,48,86,455085648
195,21,Ticks_Linear_5,87,5,42,127,455119116
195,21,Ticks_Linear_5,88,1,48,88,455629672
195,21,Ticks_Linear_5,89,5,42,127,455688500
195,21,Ticks_Linear_5,90,1,48,78,456201596
195,21,Ticks_Linear_5,91,5,42,127,456258832
195,21,Ticks_Linear_5,92,1,48,70,456825596
195,21,Ticks_Linear_5,93,5,42,127,456829384
195,21,Ticks_Linear_5,94,5,42,127,457398752
195,21,Ticks_Linear_5,95,1,48,89,457415540
195,21,Ticks_Linear_5,96,1,48,74,457963372
195,21,Ticks_Linear_5,97,5,42,127,457968880
195,21,Ticks_Linear_5,98,1,48,85,458500592
195,21,Ticks_Linear_5,99,5,42,127,458548556
195,21,Ticks_Linear_5,100,1,48,93,459081840
195,21,Ticks_Linear_5,101,5,42,127,459129352
195,21,Ticks_Linear_5,102,1,48,88,459658308
195,21,Ticks_Linear_5,103,5,42,127,459708660
195,21,Ticks_Linear_5,104,1,48,67,460287448
195,21,Ticks_Linear_5,105,5,42,127,460289404
195,21,Ticks_Linear_5,106,1,48,86,460857384
195,21,Ticks_Linear_5,107,5,42,127,460868932
195,21,Ticks_Linear_5,108,1,48,87,461439076
195,21,Ticks_Linear_5,109,5,42,127,461458700
195,21,Ticks_Linear_5,110,1,48,74,462019348
195,21,Ticks_Linear_5,111,5,42,127,462048572
195,21,Ticks_Linear_5,112,1,48,81,462598080
195,21,Ticks_Linear_5,113,5,42,127,462638344
195,21,Ticks_Linear_5,114,1,48,87,463211244
195,21,Ticks_Linear_5,115,5,42,127,463229304
195,21,Ticks_Linear_5,116,5,42,127,463819084
195,21,Ticks_Linear_5,117,1,48,75,463829156
195,21,Ticks_Linear_5,118,1,48,82,464401728
195,21,Ticks_Linear_5,119,5,42,127,464419188
195,21,Ticks_Linear_5,120,1,48,81,464977372
195,21,Ticks_Linear_5,121,5,42,127,465019348
195,21,Ticks_Linear_5,122,1,48,76,465581116
195,21,Ticks_Linear_5,123,5,42,127,465619284
195,21,Ticks_Linear_5,124,1,48,78,466186988
195,21,Ticks_Linear_5,125,5,42,127,466219396
195,21,Ticks_Linear_5,126,1,48,67,466791328
195,21,Ticks_Linear_5,127,5,42,127,466818364
195,21,Ticks_Linear_5,128,1,48,73,467414216
195,21,Ticks_Linear_5,129,5,42,127,467428712
195,21,Ticks_Linear_5,130,1,48,79,468019416
195,21,Ticks_Linear_5,131,5,42,127,468039116
195,21,Ticks_Linear_5,132,1,48,85,468634896
195,21,Ticks_Linear_5,133,5,42,127,468649220
195,21,Ticks_Linear_5,134,5,42,127,469258980
195,21,Ticks_Linear_5,135,1,48,62,469264412
195,21,Ticks_Linear_5,136,1,48,82,469854456
195,21,Ticks_Linear_5,137,5,42,127,469869008
195,21,Ticks_Linear_5,138,5,42,127,470488712
195,21,Ticks_Linear_5,139,1,48,73,470492648
195,21,Ticks_Linear_5,140,5,42,127,471109132
195,21,Ticks_Linear_5,141,1,48,67,471126536
195,21,Ticks_Linear_5,142,1,48,67,471721432
195,21,Ticks_Linear_5,143,5,42,127,471728504
195,21,Ticks_Linear_5,144,1,48,88,472336804
195,21,Ticks_Linear_5,145,5,42,127,472348948
195,21,Ticks_Linear_5,146,1,48,84,472946368
195,21,Ticks_Linear_5,147,5,42,127,472968696
195,21,Ticks_Linear_5,148,5,42,127,473599316
195,21,Ticks_Linear_5,149,1,48,73,473602504
195,21,Ticks_Linear_5,150,5,42,127,474229012
195,21,Ticks_Linear_5,151,1,48,80,474231748
195,21,Ticks_Linear_5,152,1,48,83,474856128
195,21,Ticks_Linear_5,153,5,42,127,474858944
195,21,Ticks_Linear_5,154,1,48,70,475458096
195,21,Ticks_Linear_5,155,5,42,127,475488712
195,21,Ticks_Linear_5,156,1,48,81,476078148
195,21,Ticks_Linear_5,157,5,42,127,476119452
195,21,Ticks_Linear_5,158,1,48,82,476667616
195,21,Ticks_Linear_5,159,5,42,127,476759532
195,21,Ticks_Linear_5,160,1,48,73,477391204
195,21,Ticks_Linear_5,161,5,42,127,477399540
195,21,Ticks_Linear_5,162,5,42,127,478039632
195,21,Ticks_Linear_5,163,1,48,66,478064348
195,21,Ticks_Linear_5,164,5,42,127,478679416
195,21,Ticks_Linear_5,165,1,48,68,478680380
195,21,Ticks_Linear_5,166,1,48,76,479312796
195,21,Ticks_Linear_5,167,5,42,127,479319496
195,21,Ticks_Linear_5,168,1,48,73,479952432
195,21,Ticks_Linear_5,169,5,42,127,479968648
195,21,Ticks_Linear_5,170,1,48,77,480596124
195,21,Ticks_Linear_5,171,5,42,127,480618828
195,21,Ticks_Linear_5,172,1,48,73,481255220
195,21,Ticks_Linear_5,173,5,42,127,481269248
195,21,Ticks_Linear_5,174,1,48,78,481871912
195,21,Ticks_Linear_5,175,5,42,127,481919500
195,21,Ticks_Linear_5,176,1,48,83,482496212
195,21,Ticks_Linear_5,177,5,42,127,482568508
195,21,Ticks_Linear_5,178,1,48,80,483175500
195,21,Ticks_Linear_5,179,5,42,127,483229148
195,21,Ticks_Linear_5,180,5,42,127,483888408
195,21,Ticks_Linear_5,181,1,48,69,483902584
195,21,Ticks_Linear_5,182,5,42,127,484549124
195,21,Ticks_Linear_5,183,1,48,62,484560316
195,21,Ticks_Linear_5,184,5,42,127,485208300
195,21,Ticks_Linear_5,185,1,48,67,485241988
195,21,Ticks_Linear_5,186,5,42,127,485869040
195,21,Ticks_Linear_5,187,1,48,78,485899668
195,21,Ticks_Linear_5,188,5,42,127,486538732
195,21,Ticks_Linear_5,189,1,48,63,486549176
195,21,Ticks_Linear_5,190,1,48,74,487207828
195,21,Ticks_Linear_5,191,5,42,127,487209556
195,21,Ticks_Linear_5,192,5,42,127,487879180
195,21,Ticks_Linear_5,193,1,48,59,487880144
195,21,Ticks_Linear_5,194,5,42,127,488548820
195,21,Ticks_Linear_5,195,1,48,73,488561428
195,21,Ticks_Linear_5,196,1,48,68,489159852
195,21,Ticks_Linear_5,197,5,42,127,489218452
195,21,Ticks_Linear_5,198,1,48,60,489637032
195,21,Ticks_Linear_5,199,5,42,127,489899264
195,21,Ticks_Linear_5,200,5,42,127,490579244
195,21,Ticks_Linear_5,201,1,48,77,490604636
195,21,Ticks_Linear_5,202,5,42,127,491259124
195,21,Ticks_Linear_5,203,1,48,57,491279136
195,21,Ticks_Linear_5,204,5,42,127,491939132
195,21,Ticks_Linear_5,205,1,48,55,492001556
195,21,Ticks_Linear_5,206,5,42,127,492619088
195,21,Ticks_Linear_5,207,1,48,55,492624368
195,21,Ticks_Linear_5,208,1,48,61,493294056
195,21,Ticks_Linear_5,209,5,42,127,493309280
195,21,Ticks_Linear_5,210,1,48,62,493934816
195,21,Ticks_Linear_5,211,5,42,127,493998336
195,21,Ticks_Linear_5,212,5,42,127,494688764
195,21,Ticks_Linear_5,213,1,48,57,494695012
195,21,Ticks_Linear_5,214,5,42,127,495378812
195,21,Ticks_Linear_5,215,1,48,72,495380296
195,21,Ticks_Linear_5,216,1,48,85,496038288
195,21,Ticks_Linear_5,217,5,42,127,496068980
195,21,Ticks_Linear_5,218,1,48,78,496720856
195,21,Ticks_Linear_5,219,5,42,127,496769272
195,21,Ticks_Linear_5,220,5,42,127,497468820
195,21,Ticks_Linear_5,221,1,48,56,497496244
195,21,Ticks_Linear_5,222,5,42,127,498169336
195,21,Ticks_Linear_5,223,1,48,86,498172524
195,21,Ticks_Linear_5,224,1,48,67,498844132
195,21,Ticks_Linear_5,225,5,42,127,498868624
195,21,Ticks_Linear_5,226,5,42,127,499568924
195,21,Ticks_Linear_5,227,1,48,61,499569888
195,21,Ticks_Linear_5,228,1,48,55,500269840
195,21,Ticks_Linear_5,229,5,42,127,500278632
195,21,Ticks_Linear_5,230,5,42,127,500989468
195,21,Ticks_Linear_5,231,1,48,74,501029072
195,21,Ticks_Linear_5,232,1,48,79,501627940
195,21,Ticks_Linear_5,233,5,42,127,501698924
195,21,Ticks_Linear_5,234,1,48,61,502387292
195,21,Ticks_Linear_5,235,5,42,127,502408488
195,21,Ticks_Linear_5,236,5,42,127,503119176
195,21,Ticks_Linear_5,237,1,48,45,503172676
195,21,Ticks_Linear_5,238,5,42,127,503839056
195,21,Ticks_Linear_5,239,1,48,77,503861904
195,21,Ticks_Linear_5,240,1,48,64,504542440
195,21,Ticks_Linear_5,241,5,42,127,504558856
195,21,Ticks_Linear_5,242,1,48,76,505264456
195,21,Ticks_Linear_5,243,5,42,127,505278856
195,21,Ticks_Linear_5,244,1,48,75,505937840
195,21,Ticks_Linear_5,245,5,42,127,505998664
195,21,Ticks_Linear_5,246,1,48,77,506695168
195,21,Ticks_Linear_5,247,5,42,127,506718620
195,21,Ticks_Linear_5,248,1,48,77,507420584
195,21,Ticks_Linear_5,249,5,42,127,507448740
195,21,Ticks_Linear_5,250,1,48,73,508140020
195,21,Ticks_Linear_5,251,5,42,127,508178712
195,21,Ticks_Linear_5,252,1,48,76,508818232
195,21,Ticks_Linear_5,253,5,42,127,508909132
195,21,Ticks_Linear_5,254,5,42,127,509639084
195,21,Ticks_Linear_5,255,1,48,56,509688504
195,21,Ticks_Linear_5,256,1,48,75,510339556
195,21,Ticks_Linear_5,257,5,42,127,510369124
195,21,Ticks_Linear_5,258,1,48,73,511033784
195,21,Ticks_Linear_5,259,5,42,127,511108444
195,21,Ticks_Linear_5,260,1,48,73,511779832
195,21,Ticks_Linear_5,261,5,42,127,511848956
195,21,Ticks_Linear_5,262,5,42,127,512589324
195,21,Ticks_Linear_5,263,1,48,71,512633036
195,21,Ticks_Linear_5,264,1,48,63,513324024
195,21,Ticks_Linear_5,265,5,42,127,513328412
195,21,Ticks_Linear_5,266,5,42,127,514068932
195,21,Ticks_Linear_5,267,1,48,72,514093204
195,21,Ticks_Linear_5,268,5,42,127,514818568
195,21,Ticks_Linear_5,269,1,48,48,514853820
195,21,Ticks_Linear_5,270,1,48,65,515558592
195,21,Ticks_Linear_5,271,5,42,127,515569016
195,21,Ticks_Linear_5,272,1,48,85,516292044
195,21,Ticks_Linear_5,273,5,42,127,516318652
195,21,Ticks_Linear_5,274,1,48,69,517036752
195,21,Ticks_Linear_5,275,5,42,127,517069308
195,21,Ticks_Linear_5,276,5,42,127,517818724
195,21,Ticks_Linear_5,277,1,48,64,517833348
195,21,Ticks_Linear_5,278,1,48,69,518536620
195,21,Ticks_Linear_5,279,5,42,127,518578744
195,21,Ticks_Linear_5,280,1,48,67,519290508
195,21,Ticks_Linear_5,281,5,42,127,519339296
195,21,Ticks_Linear_5,282,5,42,127,520099176
195,21,Ticks_Linear_5,283,1,48,71,520150908
195,21,Ticks_Linear_5,284,5,42,127,520858904
195,21,Ticks_Linear_5,285,1,48,74,520903208
195,21,Ticks_Linear_5,286,5,42,127,521618708
195,21,Ticks_Linear_5,287,1,48,76,521637596
195,21,Ticks_Linear_5,288,1,48,44,521677952
195,21,Ticks_Linear_5,289,1,48,73,522356824
195,21,Ticks_Linear_5,290,5,42,127,522388796
195,21,Ticks_Linear_5,291,1,48,69,523138244
195,21,Ticks_Linear_5,292,5,42,127,523158988
195,21,Ticks_Linear_5,293,1,48,65,523920844
195,21,Ticks_Linear_5,294,5,42,127,523929032
195,21,Ticks_Linear_5,295,1,48,72,524671820
195,21,Ticks_Linear_5,296,5,42,127,524698932
195,21,Ticks_Linear_5,297,1,48,69,525432592
195,21,Ticks_Linear_5,298,5,42,127,525469196
195,21,Ticks_Linear_5,299,1,48,55,526218792
195,21,Ticks_Linear_5,300,5,42,127,526249484
195,21,Ticks_Linear_5,301,1,48,59,526975964
195,21,Ticks_Linear_5,302,5,42,127,527028724
195,21,Ticks_Linear_5,303,1,48,60,527748716
195,21,Ticks_Linear_5,304,5,42,127,527808936
195,21,Ticks_Linear_5,305,1,48,69,528536240
195,21,Ticks_Linear_5,306,5,42,127,528589372
195,21,Ticks_Linear_5,307,1,48,67,529344192
195,21,Ticks_Linear_5,308,5,42,127,529368416
195,21,Ticks_Linear_5,309,1,48,64,530146032
195,21,Ticks_Linear_5,310,5,42,127,530158944
195,21,Ticks_Linear_5,311,1,48,74,530939340
195,21,Ticks_Linear_5,312,5,42,127,530948424
195,21,Ticks_Linear_5,313,1,48,79,531739404
195,21,Ticks_Linear_5,314,5,42,127,531740820
195,21,Ticks_Linear_5,315,5,42,127,532528444
195,21,Ticks_Linear_5,316,1,48,74,532563328
195,21,Ticks_Linear_5,317,5,42,127,533319196
195,21,Ticks_Linear_5,318,1,48,70,533331132
195,21,Ticks_Linear_5,319,1,48,85,534106320
195,21,Ticks_Linear_5,320,5,42,127,534118840
195,21,Ticks_Linear_5,321,5,42,127,534918496
195,21,Ticks_Linear_5,322,1,48,94,534920208
195,21,Ticks_Linear_5,323,5,42,127,535719192
195,21,Ticks_Linear_5,324,1,48,85,535745472
195,21,Ticks_Linear_5,325,1,48,75,536505404
195,21,Ticks_Linear_5,326,5,42,127,536518984
195,21,Ticks_Linear_5,327,1,48,65,537306512
195,21,Ticks_Linear_5,328,5,42,127,537318884
195,21,Ticks_Linear_5,329,1,48,83,538075200
195,21,Ticks_Linear_5,330,5,42,127,538128848
195,21,Ticks_Linear_5,331,1,48,89,538901092
195,21,Ticks_Linear_5,332,5,42,127,538938964
195,21,Ticks_Linear_5,333,1,48,84,539634948
195,21,Ticks_Linear_5,334,5,42,127,539748840
195,21,Ticks_Linear_5,335,1,48,70,540505020
195,21,Ticks_Linear_5,336,5,42,127,540558900
195,21,Ticks_Linear_5,337,1,48,87,541363884
195,21,Ticks_Linear_5,338,5,42,127,541368716
195,21,Ticks_Linear_5,0,9999,9999,9999,432196680
195,21,Ticks_Linear_5,1,9999,9999,9999,432676944
195,21,Ticks_Linear_5,2,9999,9999,9999,433156160
195,21,Ticks_Linear_5,3,9999,9999,9999,433636476
195,21,Ticks_Linear_5,4,9999,9999,9999,434116696
195,21,Ticks_Linear_5,5,9999,9999,9999,434606136
195,21,Ticks_Linear_5,6,9999,9999,9999,435096696
195,21,Ticks_Linear_5,7,9999,9999,9999,435586140
195,21,Ticks_Linear_5,8,9999,9999,9999,436076624
195,21,Ticks_Linear_5,9,9999,9999,9999,436566140
195,21,Ticks_Linear_5,10,9999,9999,9999,437066864
195,21,Ticks_Linear_5,11,9999,9999,9999,437566548
195,21,Ticks_Linear_5,12,9999,9999,9999,438066300
195,21,Ticks_Linear_5,13,9999,9999,9999,438567028
195,21,Ticks_Linear_5,14,9999,9999,9999,439066712
195,21,Ticks_Linear_5,15,9999,9999,9999,439576636
195,21,Ticks_Linear_5,16,9999,9999,9999,440086632
195,21,Ticks_Linear_5,17,9999,9999,9999,440596560
195,21,Ticks_Linear_5,18,9999,9999,9999,441106488
195,21,Ticks_Linear_5,19,9999,9999,9999,441616480
195,21,Ticks_Linear_5,20,9999,9999,9999,442136648
195,21,Ticks_Linear_5,21,9999,9999,9999,442656844
195,21,Ticks_Linear_5,22,9999,9999,9999,443177060
195,21,Ticks_Linear_5,23,9999,9999,9999,443696252
195,21,Ticks_Linear_5,24,9999,9999,9999,444216420
195,21,Ticks_Linear_5,25,9999,9999,9999,444746832
195,21,Ticks_Linear_5,26,9999,9999,9999,445276268
195,21,Ticks_Linear_5,27,9999,9999,9999,445806676
195,21,Ticks_Linear_5,28,9999,9999,9999,446336116
195,21,Ticks_Linear_5,29,9999,9999,9999,446866524
195,21,Ticks_Linear_5,30,9999,9999,9999,447406204
195,21,Ticks_Linear_5,31,9999,9999,9999,447946852
195,21,Ticks_Linear_5,32,9999,9999,9999,448486484
195,21,Ticks_Linear_5,33,9999,9999,9999,449026164
195,21,Ticks_Linear_5,34,9999,9999,9999,449566812
195,21,Ticks_Linear_5,35,9999,9999,9999,450116736
195,21,Ticks_Linear_5,36,9999,9999,9999,450666584
195,21,Ticks_Linear_5,37,9999,9999,9999,451216504
195,21,Ticks_Linear_5,38,9999,9999,9999,451766352
195,21,Ticks_Linear_5,39,9999,9999,9999,452316224
195,21,Ticks_Linear_5,40,9999,9999,9999,452876388
195,21,Ticks_Linear_5,41,9999,9999,9999,453436476
195,21,Ticks_Linear_5,42,9999,9999,9999,453996644
195,21,Ticks_Linear_5,43,9999,9999,9999,454556732
195,21,Ticks_Linear_5,44,9999,9999,9999,455116896
195,21,Ticks_Linear_5,45,9999,9999,9999,455686208
195,21,Ticks_Linear_5,46,9999,9999,9999,456256612
195,21,Ticks_Linear_5,47,9999,9999,9999,456826940
195,21,Ticks_Linear_5,48,9999,9999,9999,457396308
195,21,Ticks_Linear_5,49,9999,9999,9999,457966656
195,21,Ticks_Linear_5,50,9999,9999,9999,458546264
195,21,Ticks_Linear_5,51,9999,9999,9999,459126908
195,21,Ticks_Linear_5,52,9999,9999,9999,459706436
195,21,Ticks_Linear_5,53,9999,9999,9999,460287060
195,21,Ticks_Linear_5,54,9999,9999,9999,460866636
195,21,Ticks_Linear_5,55,9999,9999,9999,461456480
195,21,Ticks_Linear_5,56,9999,9999,9999,462046276
195,21,Ticks_Linear_5,57,9999,9999,9999,462636124
195,21,Ticks_Linear_5,58,9999,9999,9999,463226936
195,21,Ticks_Linear_5,59,9999,9999,9999,463816788
195,21,Ticks_Linear_5,60,9999,9999,9999,464416892
195,21,Ticks_Linear_5,61,9999,9999,9999,465016904
195,21,Ticks_Linear_5,62,9999,9999,9999,465616988
195,21,Ticks_Linear_5,63,9999,9999,9999,466217024
195,21,Ticks_Linear_5,64,9999,9999,9999,466816068
195,21,Ticks_Linear_5,65,9999,9999,9999,467426420
195,21,Ticks_Linear_5,66,9999,9999,9999,468036672
195,21,Ticks_Linear_5,67,9999,9999,9999,468647000
195,21,Ticks_Linear_5,68,9999,9999,9999,469256316
195,21,Ticks_Linear_5,69,9999,9999,9999,469866564
195,21,Ticks_Linear_5,70,9999,9999,9999,470486096
195,21,Ticks_Linear_5,71,9999,9999,9999,471106688
195,21,Ticks_Linear_5,72,9999,9999,9999,471726208
195,21,Ticks_Linear_5,73,9999,9999,9999,472346728
195,21,Ticks_Linear_5,74,9999,9999,9999,472966252
195,21,Ticks_Linear_5,75,9999,9999,9999,473597024
195,21,Ticks_Linear_5,76,9999,9999,9999,474226788
195,21,Ticks_Linear_5,77,9999,9999,9999,474856576
195,21,Ticks_Linear_5,78,9999,9999,9999,475486272
195,21,Ticks_Linear_5,79,9999,9999,9999,476117084
195,21,Ticks_Linear_5,80,9999,9999,9999,476757088
195,21,Ticks_Linear_5,81,9999,9999,9999,477397096
195,21,Ticks_Linear_5,82,9999,9999,9999,478037112
195,21,Ticks_Linear_5,83,9999,9999,9999,478677048
195,21,Ticks_Linear_5,84,9999,9999,9999,479317052
195,21,Ticks_Linear_5,85,9999,9999,9999,479966280
195,21,Ticks_Linear_5,86,9999,9999,9999,480616532
195,21,Ticks_Linear_5,87,9999,9999,9999,481266808
195,21,Ticks_Linear_5,88,9999,9999,9999,481917056
195,21,Ticks_Linear_5,89,9999,9999,9999,482566216
195,21,Ticks_Linear_5,90,9999,9999,9999,483226704
195,21,Ticks_Linear_5,91,9999,9999,9999,483886184
195,21,Ticks_Linear_5,92,9999,9999,9999,484546680
195,21,Ticks_Linear_5,93,9999,9999,9999,485206076
195,21,Ticks_Linear_5,94,9999,9999,9999,485866596
195,21,Ticks_Linear_5,95,9999,9999,9999,486536288
195,21,Ticks_Linear_5,96,9999,9999,9999,487206972
195,21,Ticks_Linear_5,97,9999,9999,9999,487876736
195,21,Ticks_Linear_5,98,9999,9999,9999,488546376
195,21,Ticks_Linear_5,99,9999,9999,9999,489216084
195,21,Ticks_Linear_5,100,9999,9999,9999,489897044
195,21,Ticks_Linear_5,101,9999,9999,9999,490577024
195,21,Ticks_Linear_5,102,9999,9999,9999,491256904
195,21,Ticks_Linear_5,103,9999,9999,9999,491936836
195,21,Ticks_Linear_5,104,9999,9999,9999,492616792
195,21,Ticks_Linear_5,105,9999,9999,9999,493306984
195,21,Ticks_Linear_5,106,9999,9999,9999,493996116
195,21,Ticks_Linear_5,107,9999,9999,9999,494686320
195,21,Ticks_Linear_5,108,9999,9999,9999,495376444
195,21,Ticks_Linear_5,109,9999,9999,9999,496066684
195,21,Ticks_Linear_5,110,9999,9999,9999,496767052
195,21,Ticks_Linear_5,111,9999,9999,9999,497466452
195,21,Ticks_Linear_5,112,9999,9999,9999,498166892
195,21,Ticks_Linear_5,113,9999,9999,9999,498866256
195,21,Ticks_Linear_5,114,9999,9999,9999,499566704
195,21,Ticks_Linear_5,115,9999,9999,9999,500276336
195,21,Ticks_Linear_5,116,9999,9999,9999,500986952
195,21,Ticks_Linear_5,117,9999,9999,9999,501696628
195,21,Ticks_Linear_5,118,9999,9999,9999,502406268
195,21,Ticks_Linear_5,119,9999,9999,9999,503116880
195,21,Ticks_Linear_5,120,9999,9999,9999,503836760
195,21,Ticks_Linear_5,121,9999,9999,9999,504556636
195,21,Ticks_Linear_5,122,9999,9999,9999,505276488
195,21,Ticks_Linear_5,123,9999,9999,9999,505996368
195,21,Ticks_Linear_5,124,9999,9999,9999,506716248
195,21,Ticks_Linear_5,125,9999,9999,9999,507446372
195,21,Ticks_Linear_5,126,9999,9999,9999,508176492
195,21,Ticks_Linear_5,127,9999,9999,9999,508906612
195,21,Ticks_Linear_5,128,9999,9999,9999,509636716
195,21,Ticks_Linear_5,129,9999,9999,9999,510366828
195,21,Ticks_Linear_5,130,9999,9999,9999,511106148
195,21,Ticks_Linear_5,131,9999,9999,9999,511846512
195,21,Ticks_Linear_5,132,9999,9999,9999,512586880
195,21,Ticks_Linear_5,133,9999,9999,9999,513326192
195,21,Ticks_Linear_5,134,9999,9999,9999,514066488
195,21,Ticks_Linear_5,135,9999,9999,9999,514816124
195,21,Ticks_Linear_5,136,9999,9999,9999,515566648
195,21,Ticks_Linear_5,137,9999,9999,9999,516316284
195,21,Ticks_Linear_5,138,9999,9999,9999,517066864
195,21,Ticks_Linear_5,139,9999,9999,9999,517816432
195,21,Ticks_Linear_5,140,9999,9999,9999,518576228
195,21,Ticks_Linear_5,141,9999,9999,9999,519337072
195,21,Ticks_Linear_5,142,9999,9999,9999,520096880
195,21,Ticks_Linear_5,143,9999,9999,9999,520856684
195,21,Ticks_Linear_5,144,9999,9999,9999,521616484
195,21,Ticks_Linear_5,145,9999,9999,9999,522386500
195,21,Ticks_Linear_5,146,9999,9999,9999,523156544
195,21,Ticks_Linear_5,147,9999,9999,9999,523926588
195,21,Ticks_Linear_5,148,9999,9999,9999,524696632
195,21,Ticks_Linear_5,149,9999,9999,9999,525466752
195,21,Ticks_Linear_5,150,9999,9999,9999,526247040
195,21,Ticks_Linear_5,151,9999,9999,9999,527026284
195,21,Ticks_Linear_5,152,9999,9999,9999,527806568
195,21,Ticks_Linear_5,153,9999,9999,9999,528586856
195,21,Ticks_Linear_5,154,9999,9999,9999,529366120
195,21,Ticks_Linear_5,155,9999,9999,9999,530156648
195,21,Ticks_Linear_5,156,9999,9999,9999,530946132
195,21,Ticks_Linear_5,157,9999,9999,9999,531736664
195,21,Ticks_Linear_5,158,9999,9999,9999,532526148
195,21,Ticks_Linear_5,159,9999,9999,9999,533316676
195,21,Ticks_Linear_5,160,9999,9999,9999,534116468
195,21,Ticks_Linear_5,161,9999,9999,9999,534916200
195,21,Ticks_Linear_5,162,9999,9999,9999,535716972
195,21,Ticks_Linear_5,163,9999,9999,9999,536516688
195,21,Ticks_Linear_5,164,9999,9999,9999,537316440
195,21,Ticks_Linear_5,165,9999,9999,9999,538126408
195,21,Ticks_Linear_5,166,9999,9999,9999,538936448
195,21,Ticks_Linear_5,167,9999,9999,9999,539746396
195,21,Ticks_Linear_5,168,9999,9999,9999,540556380
195,21,Ticks_Linear_5,169,9999,9999,9999,541366348
196,20,Ticks_Linear_8,0,5,42,127,551128432
196,20,Ticks_Linear_8,1,5,42,127,551957788
196,20,Ticks_Linear_8,2,5,42,127,552778312
196,20,Ticks_Linear_8,3,1,48,82,552782324
196,20,Ticks_Linear_8,4,5,42,127,553598300
196,20,Ticks_Linear_8,5,1,48,81,553610908
196,20,Ticks_Linear_8,6,1,48,77,554397904
196,20,Ticks_Linear_8,7,5,42,127,554417456
196,20,Ticks_Linear_8,8,1,48,88,555216840
196,20,Ticks_Linear_8,9,5,42,127,555227376
196,20,Ticks_Linear_8,10,1,48,86,556008668
196,20,Ticks_Linear_8,11,5,42,127,556037416
196,20,Ticks_Linear_8,12,1,48,71,556844416
196,20,Ticks_Linear_8,13,5,42,127,556847456
196,20,Ticks_Linear_8,14,5,42,127,557657356
196,20,Ticks_Linear_8,15,1,48,76,557662412
196,20,Ticks_Linear_8,16,5,42,127,558467324
196,20,Ticks_Linear_8,17,1,48,64,558508864
196,20,Ticks_Linear_8,18,5,42,127,559268240
196,20,Ticks_Linear_8,19,1,48,86,559276668
196,20,Ticks_Linear_8,20,1,48,72,560041452
196,20,Ticks_Linear_8,21,5,42,127,560068036
196,20,Ticks_Linear_8,22,1,48,93,560833696
196,20,Ticks_Linear_8,23,5,42,127,560867784
196,20,Ticks_Linear_8,24,1,48,77,561625456
196,20,Ticks_Linear_8,25,5,42,127,561667584
196,20,Ticks_Linear_8,26,1,48,92,562468584
196,20,Ticks_Linear_8,27,5,42,127,562470072
196,20,Ticks_Linear_8,28,1,48,78,563242836
196,20,Ticks_Linear_8,29,5,42,127,563257836
196,20,Ticks_Linear_8,30,1,48,103,563995848
196,20,Ticks_Linear_8,31,5,42,127,564048220
196,20,Ticks_Linear_8,32,1,48,99,564797668
196,20,Ticks_Linear_8,33,5,42,127,564837924
196,20,Ticks_Linear_8,34,1,48,64,565597316
196,20,Ticks_Linear_8,35,5,42,127,565628232
196,20,Ticks_Linear_8,36,1,48,82,566392172
196,20,Ticks_Linear_8,37,5,42,127,566417716
196,20,Ticks_Linear_8,38,5,42,127,567198008
196,20,Ticks_Linear_8,39,1,48,82,567207628
196,20,Ticks_Linear_8,40,1,48,89,567964708
196,20,Ticks_Linear_8,41,5,42,127,567978584
196,20,Ticks_Linear_8,42,1,48,77,568747840
196,20,Ticks_Linear_8,43,5,42,127,568757528
196,20,Ticks_Linear_8,44,5,42,127,569537896
196,20,Ticks_Linear_8,45,1,48,65,569544744
196,20,Ticks_Linear_8,46,1,48,93,570277764
196,20,Ticks_Linear_8,47,5,42,127,570318400
196,20,Ticks_Linear_8,48,1,48,67,571063628
196,20,Ticks_Linear_8,49,5,42,127,571088272
196,20,Ticks_Linear_8,50,1,48,78,571828272
196,20,Ticks_Linear_8,51,5,42,127,571858460
196,20,Ticks_Linear_8,52,1,48,76,572604440
196,20,Ticks_Linear_8,53,5,42,127,572628208
196,20,Ticks_Linear_8,54,5,42,127,573398480
196,20,Ticks_Linear_8,55,1,48,63,573414748
196,20,Ticks_Linear_8,56,5,42,127,574168304
196,20,Ticks_Linear_8,57,1,48,63,574189360
196,20,Ticks_Linear_8,58,1,48,80,574928508
196,20,Ticks_Linear_8,59,5,42,127,574937444
196,20,Ticks_Linear_8,60,1,48,76,575665708
196,20,Ticks_Linear_8,61,5,42,127,575698220
196,20,Ticks_Linear_8,62,1,48,81,576421244
196,20,Ticks_Linear_8,63,5,42,127,576458068
196,20,Ticks_Linear_8,64,1,48,73,577213264
196,20,Ticks_Linear_8,65,5,42,127,577218096
196,20,Ticks_Linear_8,66,5,42,127,577977756
196,20,Ticks_Linear_8,67,1,48,82,577999560
196,20,Ticks_Linear_8,68,5,42,127,578728264
196,20,Ticks_Linear_8,69,1,48,76,578753800
196,20,Ticks_Linear_8,70,1,48,77,579475932
196,20,Ticks_Linear_8,71,5,42,127,579477892
196,20,Ticks_Linear_8,72,1,48,73,580200792
196,20,Ticks_Linear_8,73,5,42,127,580227304
196,20,Ticks_Linear_8,74,1,48,86,580964324
196,20,Ticks_Linear_8,75,5,42,127,580978060
196,20,Ticks_Linear_8,76,1,48,75,581727176
196,20,Ticks_Linear_8,77,5,42,127,581728888
196,20,Ticks_Linear_8,78,5,42,127,582467916
196,20,Ticks_Linear_8,79,1,48,67,582486884
196,20,Ticks_Linear_8,80,5,42,127,583208204
196,20,Ticks_Linear_8,81,1,48,78,583222460
196,20,Ticks_Linear_8,82,5,42,127,583947748
196,20,Ticks_Linear_8,83,1,48,86,583959912
196,20,Ticks_Linear_8,84,1,48,78,584677376
196,20,Ticks_Linear_8,85,5,42,127,584687956
196,20,Ticks_Linear_8,86,1,48,67,585414560
196,20,Ticks_Linear_8,87,5,42,127,585428544
196,20,Ticks_Linear_8,88,1,48,59,586154556
196,20,Ticks_Linear_8,89,5,42,127,586157372
196,20,Ticks_Linear_8,90,5,42,127,586887648
196,20,Ticks_Linear_8,91,1,48,64,586921932
196,20,Ticks_Linear_8,92,5,42,127,587617844
196,20,Ticks_Linear_8,93,1,48,65,587628064
196,20,Ticks_Linear_8,94,5,42,127,588347668
196,20,Ticks_Linear_8,95,1,48,56,588377624
196,20,Ticks_Linear_8,96,5,42,127,589077868
196,20,Ticks_Linear_8,97,1,48,62,589083216
196,20,Ticks_Linear_8,98,1,48,65,589796304
196,20,Ticks_Linear_8,99,5,42,127,589797960
196,20,Ticks_Linear_8,100,5,42,127,590517604
196,20,Ticks_Linear_8,101,1,48,54,590543612
196,20,Ticks_Linear_8,102,1,48,59,591233984
196,20,Ticks_Linear_8,103,5,42,127,591237624
196,20,Ticks_Linear_8,104,5,42,127,591958480
196,20,Ticks_Linear_8,105,1,48,71,591966760
196,20,Ticks_Linear_8,106,5,42,127,592678212
196,20,Ticks_Linear_8,107,1,48,55,592679176
196,20,Ticks_Linear_8,108,5,42,127,593387928
196,20,Ticks_Linear_8,109,1,48,56,593409804
196,20,Ticks_Linear_8,110,5,42,127,594097468
196,20,Ticks_Linear_8,111,1,48,65,594154200
196,20,Ticks_Linear_8,112,5,42,127,594808296
196,20,Ticks_Linear_8,113,1,48,59,594855436
196,20,Ticks_Linear_8,114,5,42,127,595517788
196,20,Ticks_Linear_8,115,1,48,58,595533832
196,20,Ticks_Linear_8,116,5,42,127,596227424
196,20,Ticks_Linear_8,117,1,48,57,596258648
196,20,Ticks_Linear_8,118,5,42,127,596927768
196,20,Ticks_Linear_8,119,1,48,60,596986232
196,20,Ticks_Linear_8,120,5,42,127,597628284
196,20,Ticks_Linear_8,121,1,48,59,597641268
196,20,Ticks_Linear_8,122,5,42,127,598327676
196,20,Ticks_Linear_8,123,1,48,59,598349932
196,20,Ticks_Linear_8,124,5,42,127,599028492
196,20,Ticks_Linear_8,125,1,48,61,599051716
196,20,Ticks_Linear_8,126,5,42,127,599727568
196,20,Ticks_Linear_8,127,1,48,69,599763076
196,20,Ticks_Linear_8,128,5,42,127,600417616
196,20,Ticks_Linear_8,129,1,48,52,600550616
196,20,Ticks_Linear_8,130,1,48,78,601090124
196,20,Ticks_Linear_8,131,5,42,127,601107884
196,20,Ticks_Linear_8,132,5,42,127,601798064
196,20,Ticks_Linear_8,133,1,48,54,601831180
196,20,Ticks_Linear_8,134,5,42,127,602488116
196,20,Ticks_Linear_8,135,1,48,75,602510444
196,20,Ticks_Linear_8,136,1,48,62,603140884
196,20,Ticks_Linear_8,137,5,42,127,603178236
196,20,Ticks_Linear_8,138,1,48,69,603849976
196,20,Ticks_Linear_8,139,5,42,127,603858264
196,20,Ticks_Linear_8,140,1,48,53,604531496
196,20,Ticks_Linear_8,141,5,42,127,604538124
196,20,Ticks_Linear_8,142,5,42,127,605218088
196,20,Ticks_Linear_8,143,1,48,75,605227336
196,20,Ticks_Linear_8,144,1,48,58,605876816
196,20,Ticks_Linear_8,145,5,42,127,605898012
196,20,Ticks_Linear_8,146,1,48,66,606566192
196,20,Ticks_Linear_8,147,5,42,127,606577896
196,20,Ticks_Linear_8,148,1,48,57,607245236
196,20,Ticks_Linear_8,149,5,42,127,607247904
196,20,Ticks_Linear_8,150,5,42,127,607917452
196,20,Ticks_Linear_8,151,1,48,73,607946288
196,20,Ticks_Linear_8,152,1,48,63,608556696
196,20,Ticks_Linear_8,153,5,42,127,608588132
196,20,Ticks_Linear_8,154,1,48,68,609229000
196,20,Ticks_Linear_8,155,5,42,127,609257900
196,20,Ticks_Linear_8,156,1,48,62,609900856
196,20,Ticks_Linear_8,157,5,42,127,609927664
196,20,Ticks_Linear_8,158,5,42,127,610587968
196,20,Ticks_Linear_8,159,1,48,60,610602444
196,20,Ticks_Linear_8,160,5,42,127,611247564
196,20,Ticks_Linear_8,161,1,48,73,611257412
196,20,Ticks_Linear_8,162,5,42,127,611907932
196,20,Ticks_Linear_8,163,1,48,67,611951864
196,20,Ticks_Linear_8,164,5,42,127,612568524
196,20,Ticks_Linear_8,165,1,48,40,612665008
196,20,Ticks_Linear_8,166,5,42,127,613237992
196,20,Ticks_Linear_8,167,1,48,71,613299648
196,20,Ticks_Linear_8,168,5,42,127,613888492
196,20,Ticks_Linear_8,169,1,48,67,613945964
196,20,Ticks_Linear_8,170,5,42,127,614537552
196,20,Ticks_Linear_8,171,1,48,86,614551880
196,20,Ticks_Linear_8,172,1,48,87,615182764
196,20,Ticks_Linear_8,173,5,42,127,615187896
196,20,Ticks_Linear_8,174,1,48,75,615828236
196,20,Ticks_Linear_8,175,5,42,127,615838292
196,20,Ticks_Linear_8,176,1,48,85,616452040
196,20,Ticks_Linear_8,177,5,42,127,616488500
196,20,Ticks_Linear_8,178,1,48,82,617102072
196,20,Ticks_Linear_8,179,5,42,127,617128656
196,20,Ticks_Linear_8,180,1,48,71,617759456
196,20,Ticks_Linear_8,181,5,42,127,617768468
196,20,Ticks_Linear_8,182,5,42,127,618408408
196,20,Ticks_Linear_8,183,1,48,60,618449084
196,20,Ticks_Linear_8,184,5,42,127,619048444
196,20,Ticks_Linear_8,185,1,48,71,619051556
196,20,Ticks_Linear_8,186,1,48,56,619637572
196,20,Ticks_Linear_8,187,5,42,127,619688448
196,20,Ticks_Linear_8,188,5,42,127,620318248
196,20,Ticks_Linear_8,189,1,48,74,620337664
196,20,Ticks_Linear_8,190,5,42,127,620948012
196,20,Ticks_Linear_8,191,1,48,57,620972804
196,20,Ticks_Linear_8,192,1,48,56,621565488
196,20,Ticks_Linear_8,193,5,42,127,621577576
196,20,Ticks_Linear_8,194,1,48,61,622176052
196,20,Ticks_Linear_8,195,5,42,127,622208388
196,20,Ticks_Linear_8,196,5,42,127,622838112
196,20,Ticks_Linear_8,197,1,48,53,622842420
196,20,Ticks_Linear_8,198,5,42,127,623457564
196,20,Ticks_Linear_8,199,1,48,58,623484000
196,20,Ticks_Linear_8,200,5,42,127,624078160
196,20,Ticks_Linear_8,201,1,48,60,624079124
196,20,Ticks_Linear_8,202,1,48,64,624645680
196,20,Ticks_Linear_8,203,5,42,127,624697972
196,20,Ticks_Linear_8,204,1,48,48,625279108
196,20,Ticks_Linear_8,205,5,42,127,625318396
196,20,Ticks_Linear_8,206,1,48,78,625927220
196,20,Ticks_Linear_8,207,5,42,127,625937948
196,20,Ticks_Linear_8,208,1,48,86,626545312
196,20,Ticks_Linear_8,209,5,42,127,626548204
196,20,Ticks_Linear_8,210,1,48,75,627147056
196,20,Ticks_Linear_8,211,5,42,127,627158408
196,20,Ticks_Linear_8,212,1,48,84,627753884
196,20,Ticks_Linear_8,213,5,42,127,627767764
196,20,Ticks_Linear_8,214,1,48,79,628373636
196,20,Ticks_Linear_8,215,5,42,127,628378092
196,20,Ticks_Linear_8,216,1,48,74,628977048
196,20,Ticks_Linear_8,217,5,42,127,628988224
196,20,Ticks_Linear_8,218,5,42,127,629588316
196,20,Ticks_Linear_8,219,1,48,69,629590980
196,20,Ticks_Linear_8,220,1,48,85,630169512
196,20,Ticks_Linear_8,221,5,42,127,630188692
196,20,Ticks_Linear_8,222,1,48,72,630779048
196,20,Ticks_Linear_8,223,5,42,127,630787684
196,20,Ticks_Linear_8,224,5,42,127,631387556
196,20,Ticks_Linear_8,225,1,48,65,631406224
196,20,Ticks_Linear_8,226,1,48,58,631975892
196,20,Ticks_Linear_8,227,5,42,127,631987836
196,20,Ticks_Linear_8,228,1,48,65,632544392
196,20,Ticks_Linear_8,229,5,42,127,632578380
196,20,Ticks_Linear_8,230,1,48,71,633150836
196,20,Ticks_Linear_8,231,5,42,127,633177716
196,20,Ticks_Linear_8,232,1,48,81,633750996
196,20,Ticks_Linear_8,233,5,42,127,633768460
196,20,Ticks_Linear_8,234,5,42,127,634358112
196,20,Ticks_Linear_8,235,1,48,60,634369080
196,20,Ticks_Linear_8,236,1,48,65,634943568
196,20,Ticks_Linear_8,237,5,42,127,634947948
196,20,Ticks_Linear_8,238,1,48,71,635526204
196,20,Ticks_Linear_8,239,5,42,127,635527924
196,20,Ticks_Linear_8,240,1,48,58,636067788
196,20,Ticks_Linear_8,241,5,42,127,636108076
196,20,Ticks_Linear_8,242,1,48,57,636621468
196,20,Ticks_Linear_8,243,5,42,127,636687676
196,20,Ticks_Linear_8,244,1,48,88,637241592
196,20,Ticks_Linear_8,245,5,42,127,637268324
196,20,Ticks_Linear_8,246,1,48,90,637841080
196,20,Ticks_Linear_8,247,5,42,127,637847856
196,20,Ticks_Linear_8,248,1,48,65,638399828
196,20,Ticks_Linear_8,249,5,42,127,638418580
196,20,Ticks_Linear_8,250,1,48,80,638941252
196,20,Ticks_Linear_8,251,5,42,127,638987500
196,20,Ticks_Linear_8,252,1,48,87,639535512
196,20,Ticks_Linear_8,253,5,42,127,639557904
196,20,Ticks_Linear_8,254,1,48,65,640127112
196,20,Ticks_Linear_8,255,5,42,127,640128832
196,20,Ticks_Linear_8,256,5,42,127,640697752
196,20,Ticks_Linear_8,257,1,48,55,640701912
196,20,Ticks_Linear_8,258,1,48,58,641255748
196,20,Ticks_Linear_8,259,5,42,127,641257788
196,20,Ticks_Linear_8,260,1,48,84,641790100
196,20,Ticks_Linear_8,261,5,42,127,641818172
196,20,Ticks_Linear_8,262,1,48,87,642366036
196,20,Ticks_Linear_8,263,5,42,127,642378112
196,20,Ticks_Linear_8,264,1,48,86,642914152
196,20,Ticks_Linear_8,265,5,42,127,642938276
196,20,Ticks_Linear_8,266,1,48,75,643458928
196,20,Ticks_Linear_8,267,5,42,127,643498368
196,20,Ticks_Linear_8,268,1,48,78,644031872
196,20,Ticks_Linear_8,269,5,42,127,644048316
196,20,Ticks_Linear_8,270,5,42,127,644598096
196,20,Ticks_Linear_8,271,1,48,67,644610628
196,20,Ticks_Linear_8,272,1,48,83,645145416
196,20,Ticks_Linear_8,273,5,42,127,645148012
196,20,Ticks_Linear_8,274,1,48,84,645694068
196,20,Ticks_Linear_8,275,5,42,127,645697860
196,20,Ticks_Linear_8,276,1,48,71,646225820
196,20,Ticks_Linear_8,277,5,42,127,646248004
196,20,Ticks_Linear_8,278,1,48,71,646767160
196,20,Ticks_Linear_8,279,5,42,127,646787388
196,20,Ticks_Linear_8,280,1,48,68,647302496
196,20,Ticks_Linear_8,281,5,42,127,647328112
196,20,Ticks_Linear_8,282,1,48,84,647838516
196,20,Ticks_Linear_8,283,5,42,127,647867940
196,20,Ticks_Linear_8,284,1,48,84,648384548
196,20,Ticks_Linear_8,285,5,42,127,648408392
196,20,Ticks_Linear_8,286,5,42,127,648958248
196,20,Ticks_Linear_8,287,1,48,73,648964420
196,20,Ticks_Linear_8,288,1,48,69,649478220
196,20,Ticks_Linear_8,289,5,42,127,649487752
196,20,Ticks_Linear_8,290,1,48,85,649983796
196,20,Ticks_Linear_8,291,5,42,127,650018164
196,20,Ticks_Linear_8,292,1,48,84,650521092
196,20,Ticks_Linear_8,293,5,42,127,650547676
196,20,Ticks_Linear_8,294,1,48,80,651054856
196,20,Ticks_Linear_8,295,5,42,127,651078008
196,20,Ticks_Linear_8,296,1,48,78,651565544
196,20,Ticks_Linear_8,297,5,42,127,651608420
196,20,Ticks_Linear_8,298,1,48,71,652089596
196,20,Ticks_Linear_8,299,5,42,127,652137856
196,20,Ticks_Linear_8,300,1,48,73,652619256
196,20,Ticks_Linear_8,301,5,42,127,652658024
196,20,Ticks_Linear_8,302,1,48,66,653149220
196,20,Ticks_Linear_8,303,5,42,127,653178192
196,20,Ticks_Linear_8,304,1,48,65,653678500
196,20,Ticks_Linear_8,305,5,42,127,653698504
196,20,Ticks_Linear_8,306,1,48,68,654177888
196,20,Ticks_Linear_8,307,5,42,127,654227796
196,20,Ticks_Linear_8,308,1,48,92,654705748
196,20,Ticks_Linear_8,309,5,42,127,654737796
196,20,Ticks_Linear_8,310,1,48,78,655241092
196,20,Ticks_Linear_8,311,5,42,127,655247644
196,20,Ticks_Linear_8,312,5,42,127,655757652
196,20,Ticks_Linear_8,313,1,48,76,655771452
196,20,Ticks_Linear_8,314,1,48,71,656266824
196,20,Ticks_Linear_8,315,5,42,127,656268616
196,20,Ticks_Linear_8,316,1,48,84,656747100
196,20,Ticks_Linear_8,317,5,42,127,656777644
196,20,Ticks_Linear_8,318,1,48,64,657242064
196,20,Ticks_Linear_8,319,5,42,127,657278296
196,20,Ticks_Linear_8,320,1,48,71,657739584
196,20,Ticks_Linear_8,321,5,42,127,657777980
196,20,Ticks_Linear_8,322,1,48,76,658237176
196,20,Ticks_Linear_8,323,5,42,127,658277884
196,20,Ticks_Linear_8,324,1,48,83,658741188
196,20,Ticks_Linear_8,325,5,42,127,658777344
196,20,Ticks_Linear_8,326,1,48,78,659246412
196,20,Ticks_Linear_8,327,5,42,127,659278368
196,20,Ticks_Linear_8,328,1,48,76,659757308
196,20,Ticks_Linear_8,329,5,42,127,659767664
196,20,Ticks_Linear_8,330,1,48,78,660258008
196,20,Ticks_Linear_8,331,5,42,127,660259640
196,20,Ticks_Linear_8,332,1,48,86,660720552
196,20,Ticks_Linear_8,333,5,42,127,660747588
196,20,Ticks_Linear_8,334,1,48,86,661214996
196,20,Ticks_Linear_8,335,5,42,127,661238296
196,20,Ticks_Linear_8,336,1,48,89,661722084
196,20,Ticks_Linear_8,337,5,42,127,661727592
196,20,Ticks_Linear_8,0,9999,9999,9999,551126136
196,20,Ticks_Linear_8,1,9999,9999,9999,551955564
196,20,Ticks_Linear_8,2,9999,9999,9999,552775792
196,20,Ticks_Linear_8,3,9999,9999,9999,553596004
196,20,Ticks_Linear_8,4,9999,9999,9999,554415160
196,20,Ticks_Linear_8,5,9999,9999,9999,555225152
196,20,Ticks_Linear_8,6,9999,9999,9999,556035192
196,20,Ticks_Linear_8,7,9999,9999,9999,556845160
196,20,Ticks_Linear_8,8,9999,9999,9999,557655132
196,20,Ticks_Linear_8,9,9999,9999,9999,558465100
196,20,Ticks_Linear_8,10,9999,9999,9999,559265868
196,20,Ticks_Linear_8,11,9999,9999,9999,560065588
196,20,Ticks_Linear_8,12,9999,9999,9999,560865340
196,20,Ticks_Linear_8,13,9999,9999,9999,561665136
196,20,Ticks_Linear_8,14,9999,9999,9999,562465912
196,20,Ticks_Linear_8,15,9999,9999,9999,563255392
196,20,Ticks_Linear_8,16,9999,9999,9999,564045920
196,20,Ticks_Linear_8,17,9999,9999,9999,564835404
196,20,Ticks_Linear_8,18,9999,9999,9999,565625932
196,20,Ticks_Linear_8,19,9999,9999,9999,566415416
196,20,Ticks_Linear_8,20,9999,9999,9999,567195708
196,20,Ticks_Linear_8,21,9999,9999,9999,567976064
196,20,Ticks_Linear_8,22,9999,9999,9999,568755304
196,20,Ticks_Linear_8,23,9999,9999,9999,569535600
196,20,Ticks_Linear_8,24,9999,9999,9999,570315880
196,20,Ticks_Linear_8,25,9999,9999,9999,571085900
196,20,Ticks_Linear_8,26,9999,9999,9999,571855940
196,20,Ticks_Linear_8,27,9999,9999,9999,572625984
196,20,Ticks_Linear_8,28,9999,9999,9999,573396036
196,20,Ticks_Linear_8,29,9999,9999,9999,574166084
196,20,Ticks_Linear_8,30,9999,9999,9999,574935148
196,20,Ticks_Linear_8,31,9999,9999,9999,575695996
196,20,Ticks_Linear_8,32,9999,9999,9999,576455772
196,20,Ticks_Linear_8,33,9999,9999,9999,577215576
196,20,Ticks_Linear_8,34,9999,9999,9999,577975384
196,20,Ticks_Linear_8,35,9999,9999,9999,578725964
196,20,Ticks_Linear_8,36,9999,9999,9999,579475544
196,20,Ticks_Linear_8,37,9999,9999,9999,580225080
196,20,Ticks_Linear_8,38,9999,9999,9999,580975688
196,20,Ticks_Linear_8,39,9999,9999,9999,581725256
196,20,Ticks_Linear_8,40,9999,9999,9999,582465616
196,20,Ticks_Linear_8,41,9999,9999,9999,583205980
196,20,Ticks_Linear_8,42,9999,9999,9999,583945300
196,20,Ticks_Linear_8,43,9999,9999,9999,584685660
196,20,Ticks_Linear_8,44,9999,9999,9999,585426020
196,20,Ticks_Linear_8,45,9999,9999,9999,586155076
196,20,Ticks_Linear_8,46,9999,9999,9999,586885204
196,20,Ticks_Linear_8,47,9999,9999,9999,587615324
196,20,Ticks_Linear_8,48,9999,9999,9999,588345444
196,20,Ticks_Linear_8,49,9999,9999,9999,589075568
196,20,Ticks_Linear_8,50,9999,9999,9999,589795448
196,20,Ticks_Linear_8,51,9999,9999,9999,590515304
196,20,Ticks_Linear_8,52,9999,9999,9999,591235176
196,20,Ticks_Linear_8,53,9999,9999,9999,591956036
196,20,Ticks_Linear_8,54,9999,9999,9999,592675916
196,20,Ticks_Linear_8,55,9999,9999,9999,593385556
196,20,Ticks_Linear_8,56,9999,9999,9999,594095168
196,20,Ticks_Linear_8,57,9999,9999,9999,594805852
196,20,Ticks_Linear_8,58,9999,9999,9999,595515488
196,20,Ticks_Linear_8,59,9999,9999,9999,596225128
196,20,Ticks_Linear_8,60,9999,9999,9999,596925544
196,20,Ticks_Linear_8,61,9999,9999,9999,597625984
196,20,Ticks_Linear_8,62,9999,9999,9999,598325304
196,20,Ticks_Linear_8,63,9999,9999,9999,599025748
196,20,Ticks_Linear_8,64,9999,9999,9999,599725120
196,20,Ticks_Linear_8,65,9999,9999,9999,600415316
196,20,Ticks_Linear_8,66,9999,9999,9999,601105512
196,20,Ticks_Linear_8,67,9999,9999,9999,601795692
196,20,Ticks_Linear_8,68,9999,9999,9999,602485816
196,20,Ticks_Linear_8,69,9999,9999,9999,603176012
196,20,Ticks_Linear_8,70,9999,9999,9999,603855968
196,20,Ticks_Linear_8,71,9999,9999,9999,604535900
196,20,Ticks_Linear_8,72,9999,9999,9999,605215864
196,20,Ticks_Linear_8,73,9999,9999,9999,605895788
196,20,Ticks_Linear_8,74,9999,9999,9999,606575672
196,20,Ticks_Linear_8,75,9999,9999,9999,607245384
196,20,Ticks_Linear_8,76,9999,9999,9999,607915080
196,20,Ticks_Linear_8,77,9999,9999,9999,608585836
196,20,Ticks_Linear_8,78,9999,9999,9999,609255528
196,20,Ticks_Linear_8,79,9999,9999,9999,609925216
196,20,Ticks_Linear_8,80,9999,9999,9999,610585668
196,20,Ticks_Linear_8,81,9999,9999,9999,611245116
196,20,Ticks_Linear_8,82,9999,9999,9999,611905636
196,20,Ticks_Linear_8,83,9999,9999,9999,612566080
196,20,Ticks_Linear_8,84,9999,9999,9999,613235768
196,20,Ticks_Linear_8,85,9999,9999,9999,613886044
196,20,Ticks_Linear_8,86,9999,9999,9999,614535256
196,20,Ticks_Linear_8,87,9999,9999,9999,615185524
196,20,Ticks_Linear_8,88,9999,9999,9999,615835772
196,20,Ticks_Linear_8,89,9999,9999,9999,616485976
196,20,Ticks_Linear_8,90,9999,9999,9999,617125988
196,20,Ticks_Linear_8,91,9999,9999,9999,617765948
196,20,Ticks_Linear_8,92,9999,9999,9999,618405960
196,20,Ticks_Linear_8,93,9999,9999,9999,619045996
196,20,Ticks_Linear_8,94,9999,9999,9999,619686000
196,20,Ticks_Linear_8,95,9999,9999,9999,620315724
196,20,Ticks_Linear_8,96,9999,9999,9999,620945492
196,20,Ticks_Linear_8,97,9999,9999,9999,621575276
196,20,Ticks_Linear_8,98,9999,9999,9999,622206016
196,20,Ticks_Linear_8,99,9999,9999,9999,622835816
196,20,Ticks_Linear_8,100,9999,9999,9999,623455340
196,20,Ticks_Linear_8,101,9999,9999,9999,624075860
196,20,Ticks_Linear_8,102,9999,9999,9999,624695380
196,20,Ticks_Linear_8,103,9999,9999,9999,625315948
196,20,Ticks_Linear_8,104,9999,9999,9999,625935428
196,20,Ticks_Linear_8,105,9999,9999,9999,626545756
196,20,Ticks_Linear_8,106,9999,9999,9999,627156036
196,20,Ticks_Linear_8,107,9999,9999,9999,627765320
196,20,Ticks_Linear_8,108,9999,9999,9999,628375648
196,20,Ticks_Linear_8,109,9999,9999,9999,628985928
196,20,Ticks_Linear_8,110,9999,9999,9999,629586020
196,20,Ticks_Linear_8,111,9999,9999,9999,630186100
196,20,Ticks_Linear_8,112,9999,9999,9999,630785092
196,20,Ticks_Linear_8,113,9999,9999,9999,631385184
196,20,Ticks_Linear_8,114,9999,9999,9999,631985240
196,20,Ticks_Linear_8,115,9999,9999,9999,632576084
196,20,Ticks_Linear_8,116,9999,9999,9999,633175124
196,20,Ticks_Linear_8,117,9999,9999,9999,633766012
196,20,Ticks_Linear_8,118,9999,9999,9999,634355812
196,20,Ticks_Linear_8,119,9999,9999,9999,634945652
196,20,Ticks_Linear_8,120,9999,9999,9999,635525188
196,20,Ticks_Linear_8,121,9999,9999,9999,636105828
196,20,Ticks_Linear_8,122,9999,9999,9999,636685380
196,20,Ticks_Linear_8,123,9999,9999,9999,637266028
196,20,Ticks_Linear_8,124,9999,9999,9999,637845632
196,20,Ticks_Linear_8,125,9999,9999,9999,638415988
196,20,Ticks_Linear_8,126,9999,9999,9999,638985276
196,20,Ticks_Linear_8,127,9999,9999,9999,639555680
196,20,Ticks_Linear_8,128,9999,9999,9999,640126020
196,20,Ticks_Linear_8,129,9999,9999,9999,640695380
196,20,Ticks_Linear_8,130,9999,9999,9999,641255528
196,20,Ticks_Linear_8,131,9999,9999,9999,641815652
196,20,Ticks_Linear_8,132,9999,9999,9999,642375740
196,20,Ticks_Linear_8,133,9999,9999,9999,642935904
196,20,Ticks_Linear_8,134,9999,9999,9999,643495996
196,20,Ticks_Linear_8,135,9999,9999,9999,644045944
196,20,Ticks_Linear_8,136,9999,9999,9999,644595796
196,20,Ticks_Linear_8,137,9999,9999,9999,645145712
196,20,Ticks_Linear_8,138,9999,9999,9999,645695560
196,20,Ticks_Linear_8,139,9999,9999,9999,646245480
196,20,Ticks_Linear_8,140,9999,9999,9999,646785088
196,20,Ticks_Linear_8,141,9999,9999,9999,647325812
196,20,Ticks_Linear_8,142,9999,9999,9999,647865420
196,20,Ticks_Linear_8,143,9999,9999,9999,648406096
196,20,Ticks_Linear_8,144,9999,9999,9999,648956024
196,20,Ticks_Linear_8,145,9999,9999,9999,649485380
196,20,Ticks_Linear_8,146,9999,9999,9999,650015864
196,20,Ticks_Linear_8,147,9999,9999,9999,650545228
196,20,Ticks_Linear_8,148,9999,9999,9999,651075712
196,20,Ticks_Linear_8,149,9999,9999,9999,651606124
196,20,Ticks_Linear_8,150,9999,9999,9999,652135484
196,20,Ticks_Linear_8,151,9999,9999,9999,652655724
196,20,Ticks_Linear_8,152,9999,9999,9999,653175892
196,20,Ticks_Linear_8,153,9999,9999,9999,653696060
196,20,Ticks_Linear_8,154,9999,9999,9999,654225496
196,20,Ticks_Linear_8,155,9999,9999,9999,654735424
196,20,Ticks_Linear_8,156,9999,9999,9999,655245420
196,20,Ticks_Linear_8,157,9999,9999,9999,655755352
196,20,Ticks_Linear_8,158,9999,9999,9999,656265280
196,20,Ticks_Linear_8,159,9999,9999,9999,656775272
196,20,Ticks_Linear_8,160,9999,9999,9999,657276000
196,20,Ticks_Linear_8,161,9999,9999,9999,657775684
196,20,Ticks_Linear_8,162,9999,9999,9999,658275440
196,20,Ticks_Linear_8,163,9999,9999,9999,658775120
196,20,Ticks_Linear_8,164,9999,9999,9999,659275848
196,20,Ticks_Linear_8,165,9999,9999,9999,659765364
196,20,Ticks_Linear_8,166,9999,9999,9999,660255856
196,20,Ticks_Linear_8,167,9999,9999,9999,660745292
196,20,Ticks_Linear_8,168,9999,9999,9999,661235776
196,20,Ticks_Linear_8,169,9999,9999,9999,661725292
197,10,Ticks_ISO_T2_5,0,5,42,127,678574552
197,10,Ticks_ISO_T2_5,1,5,42,127,679075144
197,10,Ticks_ISO_T2_5,2,1,48,62,679232480
197,10,Ticks_ISO_T2_5,3,5,42,127,679574820
197,10,Ticks_ISO_T2_5,4,1,48,68,679641508
197,10,Ticks_ISO_T2_5,5,5,42,127,680074496
197,10,Ticks_ISO_T2_5,6,1,48,73,680090756
197,10,Ticks_ISO_T2_5,7,1,48,72,680560020
197,10,Ticks_ISO_T2_5,8,5,42,127,680575432
197,10,Ticks_ISO_T2_5,9,1,48,69,681059624
197,10,Ticks_ISO_T2_5,10,5,42,127,681075036
197,10,Ticks_ISO_T2_5,11,1,48,76,681543840
197,10,Ticks_ISO_T2_5,12,5,42,127,681574636
197,10,Ticks_ISO_T2_5,13,1,48,70,682039932
197,10,Ticks_ISO_T2_5,14,5,42,127,682074612
197,10,Ticks_ISO_T2_5,15,1,48,63,682573756
197,10,Ticks_ISO_T2_5,16,5,42,127,682575484
197,10,Ticks_ISO_T2_5,17,5,42,127,683074868
197,10,Ticks_ISO_T2_5,18,1,48,62,683091872
197,10,Ticks_ISO_T2_5,19,5,42,127,683574696
197,10,Ticks_ISO_T2_5,20,1,48,61,683595132
197,10,Ticks_ISO_T2_5,21,1,48,64,684067612
197,10,Ticks_ISO_T2_5,22,5,42,127,684075412
197,10,Ticks_ISO_T2_5,23,1,48,67,684551236
197,10,Ticks_ISO_T2_5,24,5,42,127,684575232
197,10,Ticks_ISO_T2_5,25,1,48,77,685052476
197,10,Ticks_ISO_T2_5,26,5,42,127,685074764
197,10,Ticks_ISO_T2_5,27,5,42,127,685574448
197,10,Ticks_ISO_T2_5,28,1,48,73,685582492
197,10,Ticks_ISO_T2_5,29,5,42,127,686075316
197,10,Ticks_ISO_T2_5,30,1,48,75,686076652
197,10,Ticks_ISO_T2_5,31,5,42,127,686575068
197,10,Ticks_ISO_T2_5,32,1,48,71,686588192
197,10,Ticks_ISO_T2_5,33,1,48,80,687055512
197,10,Ticks_ISO_T2_5,34,5,42,127,687074664
197,10,Ticks_ISO_T2_5,35,1,48,85,687554720
197,10,Ticks_ISO_T2_5,36,5,42,127,687575312
197,10,Ticks_ISO_T2_5,37,5,42,127,688075216
197,10,Ticks_ISO_T2_5,38,1,48,73,688084456
197,10,Ticks_ISO_T2_5,39,5,42,127,688574944
197,10,Ticks_ISO_T2_5,40,1,48,72,688601900
197,10,Ticks_ISO_T2_5,41,5,42,127,689074544
197,10,Ticks_ISO_T2_5,42,1,48,79,689092144
197,10,Ticks_ISO_T2_5,43,1,48,72,689563052
197,10,Ticks_ISO_T2_5,44,5,42,127,689575260
197,10,Ticks_ISO_T2_5,45,5,42,127,690075092
197,10,Ticks_ISO_T2_5,46,1,48,78,690076056
197,10,Ticks_ISO_T2_5,47,5,42,127,690574620
197,10,Ticks_ISO_T2_5,48,1,48,71,690590504
197,10,Ticks_ISO_T2_5,49,5,42,127,691074372
197,10,Ticks_ISO_T2_5,50,1,48,59,691081220
197,10,Ticks_ISO_T2_5,51,1,48,77,691564372
197,10,Ticks_ISO_T2_5,52,5,42,127,691575012
197,10,Ticks_ISO_T2_5,53,1,48,72,692070396
197,10,Ticks_ISO_T2_5,54,5,42,127,692075060
197,10,Ticks_ISO_T2_5,55,5,42,127,692574668
197,10,Ticks_ISO_T2_5,56,1,48,70,692579948
197,10,Ticks_ISO_T2_5,57,1,48,78,693072964
197,10,Ticks_ISO_T2_5,58,5,42,127,693075308
197,10,Ticks_ISO_T2_5,59,1,48,69,693568904
197,10,Ticks_ISO_T2_5,60,5,42,127,693574984
197,10,Ticks_ISO_T2_5,61,1,48,69,694069028
197,10,Ticks_ISO_T2_5,62,5,42,127,694074736
197,10,Ticks_ISO_T2_5,63,5,42,127,694574572
197,10,Ticks_ISO_T2_5,64,1,48,75,694584780
197,10,Ticks_ISO_T2_5,65,1,48,75,695075288
197,10,Ticks_ISO_T2_5,66,5,42,127,695076928
197,10,Ticks_ISO_T2_5,67,5,42,127,695574820
197,10,Ticks_ISO_T2_5,68,1,48,75,695587568
197,10,Ticks_ISO_T2_5,69,5,42,127,696074716
197,10,Ticks_ISO_T2_5,70,1,48,69,696081044
197,10,Ticks_ISO_T2_5,71,5,42,127,696575512
197,10,Ticks_ISO_T2_5,72,1,48,61,696588492
197,10,Ticks_ISO_T2_5,73,5,42,127,697074968
197,10,Ticks_ISO_T2_5,74,1,48,67,697076380
197,10,Ticks_ISO_T2_5,75,1,48,81,697574268
197,10,Ticks_ISO_T2_5,76,5,42,127,697575980
197,10,Ticks_ISO_T2_5,77,1,48,76,698068900
197,10,Ticks_ISO_T2_5,78,5,42,127,698074684
197,10,Ticks_ISO_T2_5,79,1,48,79,698567688
197,10,Ticks_ISO_T2_5,80,5,42,127,698575704
197,10,Ticks_ISO_T2_5,81,1,48,68,699058072
197,10,Ticks_ISO_T2_5,82,5,42,127,699074908
197,10,Ticks_ISO_T2_5,83,1,48,72,699569996
197,10,Ticks_ISO_T2_5,84,5,42,127,699574584
197,10,Ticks_ISO_T2_5,85,5,42,127,700075612
197,10,Ticks_ISO_T2_5,86,1,48,73,700083948
197,10,Ticks_ISO_T2_5,87,1,48,77,700568680
197,10,Ticks_ISO_T2_5,88,5,42,127,700574980
197,10,Ticks_ISO_T2_5,89,5,42,127,701074740
197,10,Ticks_ISO_T2_5,90,1,48,71,701085244
197,10,Ticks_ISO_T2_5,91,5,42,127,701574712
197,10,Ticks_ISO_T2_5,92,1,48,71,701601276
197,10,Ticks_ISO_T2_5,93,1,48,73,702060912
197,10,Ticks_ISO_T2_5,94,5,42,127,702075352
197,10,Ticks_ISO_T2_5,95,1,48,70,702556928
197,10,Ticks_ISO_T2_5,96,5,42,127,702575028
197,10,Ticks_ISO_T2_5,97,5,42,127,703074636
197,10,Ticks_ISO_T2_5,98,1,48,81,703086940
197,10,Ticks_ISO_T2_5,99,5,42,127,703575508
197,10,Ticks_ISO_T2_5,100,1,48,80,703588408
197,10,Ticks_ISO_T2_5,101,5,42,127,704075256
197,10,Ticks_ISO_T2_5,102,1,48,73,704086812
197,10,Ticks_ISO_T2_5,103,5,42,127,704574860
197,10,Ticks_ISO_T2_5,104,1,48,73,704588504
197,10,Ticks_ISO_T2_5,105,1,48,77,705066728
197,10,Ticks_ISO_T2_5,106,5,42,127,705074532
197,10,Ticks_ISO_T2_5,107,5,42,127,705575256
197,10,Ticks_ISO_T2_5,108,1,48,65,705585016
197,10,Ticks_ISO_T2_5,109,5,42,127,706075156
197,10,Ticks_ISO_T2_5,110,1,48,67,706090372
197,10,Ticks_ISO_T2_5,111,5,42,127,706574612
197,10,Ticks_ISO_T2_5,112,1,48,68,706587136
197,10,Ticks_ISO_T2_5,113,5,42,127,707074512
197,10,Ticks_ISO_T2_5,114,1,48,66,707077100
197,10,Ticks_ISO_T2_5,115,5,42,127,707575232
197,10,Ticks_ISO_T2_5,116,1,48,62,707587980
197,10,Ticks_ISO_T2_5,117,5,42,127,708074908
197,10,Ticks_ISO_T2_5,118,1,48,67,708081832
197,10,Ticks_ISO_T2_5,119,5,42,127,708574660
197,10,Ticks_ISO_T2_5,120,1,48,63,708585616
197,10,Ticks_ISO_T2_5,121,5,42,127,709075308
197,10,Ticks_ISO_T2_5,122,1,48,63,709079988
197,10,Ticks_ISO_T2_5,123,5,42,127,709575204
197,10,Ticks_ISO_T2_5,124,1,48,62,709603108
197,10,Ticks_ISO_T2_5,125,1,48,70,710065264
197,10,Ticks_ISO_T2_5,126,5,42,127,710074628
197,10,Ticks_ISO_T2_5,127,5,42,127,710574384
197,10,Ticks_ISO_T2_5,128,1,48,64,710584596
197,10,Ticks_ISO_T2_5,129,5,42,127,711075104
197,10,Ticks_ISO_T2_5,130,1,48,63,711094424
197,10,Ticks_ISO_T2_5,131,5,42,127,711574856
197,10,Ticks_ISO_T2_5,132,1,48,62,711586260
197,10,Ticks_ISO_T2_5,133,5,42,127,712074752
197,10,Ticks_ISO_T2_5,134,1,48,72,712075720
197,10,Ticks_ISO_T2_5,135,5,42,127,712575476
197,10,Ticks_ISO_T2_5,136,1,48,71,712580164
197,10,Ticks_ISO_T2_5,137,5,42,127,713075152
197,10,Ticks_ISO_T2_5,138,1,48,68,713076116
197,10,Ticks_ISO_T2_5,139,5,42,127,713574900
197,10,Ticks_ISO_T2_5,140,1,48,57,713578616
197,10,Ticks_ISO_T2_5,141,1,48,65,714065724
197,10,Ticks_ISO_T2_5,142,5,42,127,714074424
197,10,Ticks_ISO_T2_5,143,1,48,64,714572876
197,10,Ticks_ISO_T2_5,144,5,42,127,714575220
197,10,Ticks_ISO_T2_5,145,5,42,127,715074976
197,10,Ticks_ISO_T2_5,146,1,48,60,715085040
197,10,Ticks_ISO_T2_5,147,5,42,127,715574880
197,10,Ticks_ISO_T2_5,148,1,48,72,715579264
197,10,Ticks_ISO_T2_5,149,1,48,65,716053684
197,10,Ticks_ISO_T2_5,150,5,42,127,716075296
197,10,Ticks_ISO_T2_5,151,1,48,78,716570760
197,10,Ticks_ISO_T2_5,152,5,42,127,716575120
197,10,Ticks_ISO_T2_5,153,1,48,68,717074880
197,10,Ticks_ISO_T2_5,154,5,42,127,717076668
197,10,Ticks_ISO_T2_5,155,5,42,127,717574628
197,10,Ticks_ISO_T2_5,156,1,48,66,717592008
197,10,Ticks_ISO_T2_5,157,1,48,74,718061796
197,10,Ticks_ISO_T2_5,158,5,42,127,718075268
197,10,Ticks_ISO_T2_5,159,1,48,72,718546240
197,10,Ticks_ISO_T2_5,160,1,38,18,718556148
197,10,Ticks_ISO_T2_5,161,5,42,127,718574924
197,10,Ticks_ISO_T2_5,162,1,48,81,719067376
197,10,Ticks_ISO_T2_5,163,5,42,127,719074576
197,10,Ticks_ISO_T2_5,164,1,48,76,719569364
197,10,Ticks_ISO_T2_5,165,5,42,127,719575596
197,10,Ticks_ISO_T2_5,166,1,48,95,720071428
197,10,Ticks_ISO_T2_5,167,5,42,127,720075048
197,10,Ticks_ISO_T2_5,168,1,48,86,720570488
197,10,Ticks_ISO_T2_5,169,5,42,127,720574848
197,10,Ticks_ISO_T2_5,170,1,48,91,721061648
197,10,Ticks_ISO_T2_5,171,5,42,127,721074452
197,10,Ticks_ISO_T2_5,172,1,48,88,721564760
197,10,Ticks_ISO_T2_5,173,5,42,127,721575248
197,10,Ticks_ISO_T2_5,174,1,48,84,722073564
197,10,Ticks_ISO_T2_5,175,5,42,127,722075368
197,10,Ticks_ISO_T2_5,176,1,48,77,722574232
197,10,Ticks_ISO_T2_5,177,5,42,127,722575944
197,10,Ticks_ISO_T2_5,178,1,48,77,723067892
197,10,Ticks_ISO_T2_5,179,5,42,127,723074572
197,10,Ticks_ISO_T2_5,180,1,48,64,723575004
197,10,Ticks_ISO_T2_5,181,5,42,127,723576636
197,10,Ticks_ISO_T2_5,182,5,42,127,724074900
197,10,Ticks_ISO_T2_5,183,1,48,69,724095860
197,10,Ticks_ISO_T2_5,184,1,48,70,724551240
197,10,Ticks_ISO_T2_5,185,5,42,127,724574500
197,10,Ticks_ISO_T2_5,186,1,48,72,725043600
197,10,Ticks_ISO_T2_5,187,5,42,127,725075516
197,10,Ticks_ISO_T2_5,188,1,48,68,725560900
197,10,Ticks_ISO_T2_5,189,5,42,127,725575044
197,10,Ticks_ISO_T2_5,190,5,42,127,726074652
197,10,Ticks_ISO_T2_5,191,1,48,68,726078288
197,10,Ticks_ISO_T2_5,192,5,42,127,726574480
197,10,Ticks_ISO_T2_5,193,1,48,81,726614260
197,10,Ticks_ISO_T2_5,194,5,42,127,727075276
197,10,Ticks_ISO_T2_5,195,1,48,68,727083692
197,10,Ticks_ISO_T2_5,196,5,42,127,727575100
197,10,Ticks_ISO_T2_5,197,1,48,59,727583968
197,10,Ticks_ISO_T2_5,198,5,42,127,728074628
197,10,Ticks_ISO_T2_5,199,1,48,66,728077220
197,10,Ticks_ISO_T2_5,200,1,48,82,728573000
197,10,Ticks_ISO_T2_5,201,5,42,127,728575420
197,10,Ticks_ISO_T2_5,202,1,48,81,729060356
197,10,Ticks_ISO_T2_5,203,5,42,127,729075096
197,10,Ticks_ISO_T2_5,204,1,48,81,729574852
197,10,Ticks_ISO_T2_5,205,5,42,127,729576412
197,10,Ticks_ISO_T2_5,206,1,48,72,730073176
197,10,Ticks_ISO_T2_5,207,5,42,127,730075116
197,10,Ticks_ISO_T2_5,208,1,48,73,730551216
197,10,Ticks_ISO_T2_5,209,5,42,127,730575316
197,10,Ticks_ISO_T2_5,210,1,48,73,731068888
197,10,Ticks_ISO_T2_5,211,5,42,127,731075192
197,10,Ticks_ISO_T2_5,212,5,42,127,731574552
197,10,Ticks_ISO_T2_5,213,1,48,67,731577292
197,10,Ticks_ISO_T2_5,214,5,42,127,732075352
197,10,Ticks_ISO_T2_5,215,1,48,68,732090564
197,10,Ticks_ISO_T2_5,216,1,48,68,732573588
197,10,Ticks_ISO_T2_5,217,5,42,127,732575240
197,10,Ticks_ISO_T2_5,218,1,48,58,733075296
197,10,Ticks_ISO_T2_5,219,5,42,127,733076640
197,10,Ticks_ISO_T2_5,220,5,42,127,733574452
197,10,Ticks_ISO_T2_5,221,1,48,68,733583764
197,10,Ticks_ISO_T2_5,222,5,42,127,734075096
197,10,Ticks_ISO_T2_5,223,1,48,80,734079780
197,10,Ticks_ISO_T2_5,224,1,48,86,734567044
197,10,Ticks_ISO_T2_5,225,5,42,127,734575140
197,10,Ticks_ISO_T2_5,226,1,48,86,735065972
197,10,Ticks_ISO_T2_5,227,5,42,127,735074668
197,10,Ticks_ISO_T2_5,228,5,42,127,735575324
197,10,Ticks_ISO_T2_5,229,1,48,71,735580972
197,10,Ticks_ISO_T2_5,230,5,42,127,736074996
197,10,Ticks_ISO_T2_5,231,1,48,89,736084976
197,10,Ticks_ISO_T2_5,232,1,48,83,736559328
197,10,Ticks_ISO_T2_5,233,5,42,127,736574892
197,10,Ticks_ISO_T2_5,234,1,48,91,737045484
197,10,Ticks_ISO_T2_5,235,5,42,127,737074868
197,10,Ticks_ISO_T2_5,236,1,48,74,737552632
197,10,Ticks_ISO_T2_5,237,5,42,127,737575288
197,10,Ticks_ISO_T2_5,238,1,48,90,738063208
197,10,Ticks_ISO_T2_5,239,5,42,127,738075040
197,10,Ticks_ISO_T2_5,240,1,48,77,738574800
197,10,Ticks_ISO_T2_5,241,5,42,127,738576136
197,10,Ticks_ISO_T2_5,242,5,42,127,739074548
197,10,Ticks_ISO_T2_5,243,1,48,84,739088192
197,10,Ticks_ISO_T2_5,244,1,48,92,739555964
197,10,Ticks_ISO_T2_5,245,5,42,127,739575116
197,10,Ticks_ISO_T2_5,246,1,48,73,740068708
197,10,Ticks_ISO_T2_5,247,5,42,127,740074788
197,10,Ticks_ISO_T2_5,248,5,42,127,740574920
197,10,Ticks_ISO_T2_5,249,1,48,86,740576412
197,10,Ticks_ISO_T2_5,250,1,48,86,741055644
197,10,Ticks_ISO_T2_5,251,5,42,127,741075188
197,10,Ticks_ISO_T2_5,252,1,48,76,741557632
197,10,Ticks_ISO_T2_5,253,5,42,127,741574936
197,10,Ticks_ISO_T2_5,254,5,42,127,742074820
197,10,Ticks_ISO_T2_5,255,1,48,78,742083784
197,10,Ticks_ISO_T2_5,256,5,42,127,742574424
197,10,Ticks_ISO_T2_5,257,1,48,90,742582240
197,10,Ticks_ISO_T2_5,258,5,42,127,743075144
197,10,Ticks_ISO_T2_5,259,1,48,81,743077808
197,10,Ticks_ISO_T2_5,260,1,48,90,743567392
197,10,Ticks_ISO_T2_5,0,9999,9999,9999,678572120
197,10,Ticks_ISO_T2_5,1,9999,9999,9999,679072860
197,10,Ticks_ISO_T2_5,2,9999,9999,9999,679572540
197,10,Ticks_ISO_T2_5,3,9999,9999,9999,680072288
197,10,Ticks_ISO_T2_5,4,9999,9999,9999,680573004
197,10,Ticks_ISO_T2_5,5,9999,9999,9999,681072752
197,10,Ticks_ISO_T2_5,6,9999,9999,9999,681572428
197,10,Ticks_ISO_T2_5,7,9999,9999,9999,682072180
197,10,Ticks_ISO_T2_5,8,9999,9999,9999,682572908
197,10,Ticks_ISO_T2_5,9,9999,9999,9999,683072584
197,10,Ticks_ISO_T2_5,10,9999,9999,9999,683572336
197,10,Ticks_ISO_T2_5,11,9999,9999,9999,684073052
197,10,Ticks_ISO_T2_5,12,9999,9999,9999,684572728
197,10,Ticks_ISO_T2_5,13,9999,9999,9999,685072480
197,10,Ticks_ISO_T2_5,14,9999,9999,9999,685572164
197,10,Ticks_ISO_T2_5,15,9999,9999,9999,686072884
197,10,Ticks_ISO_T2_5,16,9999,9999,9999,686572636
197,10,Ticks_ISO_T2_5,17,9999,9999,9999,687072308
197,10,Ticks_ISO_T2_5,18,9999,9999,9999,687573104
197,10,Ticks_ISO_T2_5,19,9999,9999,9999,688072784
197,10,Ticks_ISO_T2_5,20,9999,9999,9999,688572512
197,10,Ticks_ISO_T2_5,21,9999,9999,9999,689072188
197,10,Ticks_ISO_T2_5,22,9999,9999,9999,689572976
197,10,Ticks_ISO_T2_5,23,9999,9999,9999,690072660
197,10,Ticks_ISO_T2_5,24,9999,9999,9999,690572336
197,10,Ticks_ISO_T2_5,25,9999,9999,9999,691072088
197,10,Ticks_ISO_T2_5,26,9999,9999,9999,691572804
197,10,Ticks_ISO_T2_5,27,9999,9999,9999,692072552
197,10,Ticks_ISO_T2_5,28,9999,9999,9999,692572236
197,10,Ticks_ISO_T2_5,29,9999,9999,9999,693073028
197,10,Ticks_ISO_T2_5,30,9999,9999,9999,693572704
197,10,Ticks_ISO_T2_5,31,9999,9999,9999,694072380
197,10,Ticks_ISO_T2_5,32,9999,9999,9999,694572136
197,10,Ticks_ISO_T2_5,33,9999,9999,9999,695072860
197,10,Ticks_ISO_T2_5,34,9999,9999,9999,695572536
197,10,Ticks_ISO_T2_5,35,9999,9999,9999,696072284
197,10,Ticks_ISO_T2_5,36,9999,9999,9999,696573008
197,10,Ticks_ISO_T2_5,37,9999,9999,9999,697072760
197,10,Ticks_ISO_T2_5,38,9999,9999,9999,697572436
197,10,Ticks_ISO_T2_5,39,9999,9999,9999,698072180
197,10,Ticks_ISO_T2_5,40,9999,9999,9999,698572900
197,10,Ticks_ISO_T2_5,41,9999,9999,9999,699072624
197,10,Ticks_ISO_T2_5,42,9999,9999,9999,699572304
197,10,Ticks_ISO_T2_5,43,9999,9999,9999,700073028
197,10,Ticks_ISO_T2_5,44,9999,9999,9999,700572772
197,10,Ticks_ISO_T2_5,45,9999,9999,9999,701072456
197,10,Ticks_ISO_T2_5,46,9999,9999,9999,701572208
197,10,Ticks_ISO_T2_5,47,9999,9999,9999,702072924
197,10,Ticks_ISO_T2_5,48,9999,9999,9999,702572600
197,10,Ticks_ISO_T2_5,49,9999,9999,9999,703072356
197,10,Ticks_ISO_T2_5,50,9999,9999,9999,703573076
197,10,Ticks_ISO_T2_5,51,9999,9999,9999,704072824
197,10,Ticks_ISO_T2_5,52,9999,9999,9999,704572504
197,10,Ticks_ISO_T2_5,53,9999,9999,9999,705072248
197,10,Ticks_ISO_T2_5,54,9999,9999,9999,705572976
197,10,Ticks_ISO_T2_5,55,9999,9999,9999,706072652
197,10,Ticks_ISO_T2_5,56,9999,9999,9999,706572404
197,10,Ticks_ISO_T2_5,57,9999,9999,9999,707072080
197,10,Ticks_ISO_T2_5,58,9999,9999,9999,707572800
197,10,Ticks_ISO_T2_5,59,9999,9999,9999,708072552
197,10,Ticks_ISO_T2_5,60,9999,9999,9999,708572228
197,10,Ticks_ISO_T2_5,61,9999,9999,9999,709072948
197,10,Ticks_ISO_T2_5,62,9999,9999,9999,709572700
197,10,Ticks_ISO_T2_5,63,9999,9999,9999,710072420
197,10,Ticks_ISO_T2_5,64,9999,9999,9999,710572104
197,10,Ticks_ISO_T2_5,65,9999,9999,9999,711072824
197,10,Ticks_ISO_T2_5,66,9999,9999,9999,711572572
197,10,Ticks_ISO_T2_5,67,9999,9999,9999,712072248
197,10,Ticks_ISO_T2_5,68,9999,9999,9999,712573044
197,10,Ticks_ISO_T2_5,69,9999,9999,9999,713072720
197,10,Ticks_ISO_T2_5,70,9999,9999,9999,713572468
197,10,Ticks_ISO_T2_5,71,9999,9999,9999,714072140
197,10,Ticks_ISO_T2_5,72,9999,9999,9999,714572936
197,10,Ticks_ISO_T2_5,73,9999,9999,9999,715072620
197,10,Ticks_ISO_T2_5,74,9999,9999,9999,715572300
197,10,Ticks_ISO_T2_5,75,9999,9999,9999,716073012
197,10,Ticks_ISO_T2_5,76,9999,9999,9999,716572764
197,10,Ticks_ISO_T2_5,77,9999,9999,9999,717072448
197,10,Ticks_ISO_T2_5,78,9999,9999,9999,717572196
197,10,Ticks_ISO_T2_5,79,9999,9999,9999,718072912
197,10,Ticks_ISO_T2_5,80,9999,9999,9999,718572644
197,10,Ticks_ISO_T2_5,81,9999,9999,9999,719072368
197,10,Ticks_ISO_T2_5,82,9999,9999,9999,719573088
197,10,Ticks_ISO_T2_5,83,9999,9999,9999,720072764
197,10,Ticks_ISO_T2_5,84,9999,9999,9999,720572492
197,10,Ticks_ISO_T2_5,85,9999,9999,9999,721072244
197,10,Ticks_ISO_T2_5,86,9999,9999,9999,721572964
197,10,Ticks_ISO_T2_5,87,9999,9999,9999,722072648
197,10,Ticks_ISO_T2_5,88,9999,9999,9999,722572400
197,10,Ticks_ISO_T2_5,89,9999,9999,9999,723072068
197,10,Ticks_ISO_T2_5,90,9999,9999,9999,723572796
197,10,Ticks_ISO_T2_5,91,9999,9999,9999,724072544
197,10,Ticks_ISO_T2_5,92,9999,9999,9999,724572216
197,10,Ticks_ISO_T2_5,93,9999,9999,9999,725073012
197,10,Ticks_ISO_T2_5,94,9999,9999,9999,725572688
197,10,Ticks_ISO_T2_5,95,9999,9999,9999,726072372
197,10,Ticks_ISO_T2_5,96,9999,9999,9999,726572124
197,10,Ticks_ISO_T2_5,97,9999,9999,9999,727072844
197,10,Ticks_ISO_T2_5,98,9999,9999,9999,727572596
197,10,Ticks_ISO_T2_5,99,9999,9999,9999,728072272
197,10,Ticks_ISO_T2_5,100,9999,9999,9999,728573060
197,10,Ticks_ISO_T2_5,101,9999,9999,9999,729072740
197,10,Ticks_ISO_T2_5,102,9999,9999,9999,729572420
197,10,Ticks_ISO_T2_5,103,9999,9999,9999,730072172
197,10,Ticks_ISO_T2_5,104,9999,9999,9999,730572888
197,10,Ticks_ISO_T2_5,105,9999,9999,9999,731072612
197,10,Ticks_ISO_T2_5,106,9999,9999,9999,731572344
197,10,Ticks_ISO_T2_5,107,9999,9999,9999,732073064
197,10,Ticks_ISO_T2_5,108,9999,9999,9999,732572740
197,10,Ticks_ISO_T2_5,109,9999,9999,9999,733072492
197,10,Ticks_ISO_T2_5,110,9999,9999,9999,733572168
197,10,Ticks_ISO_T2_5,111,9999,9999,9999,734072888
197,10,Ticks_ISO_T2_5,112,9999,9999,9999,734572636
197,10,Ticks_ISO_T2_5,113,9999,9999,9999,735072312
197,10,Ticks_ISO_T2_5,114,9999,9999,9999,735573112
197,10,Ticks_ISO_T2_5,115,9999,9999,9999,736072788
197,10,Ticks_ISO_T2_5,116,9999,9999,9999,736572536
197,10,Ticks_ISO_T2_5,117,9999,9999,9999,737072212
197,10,Ticks_ISO_T2_5,118,9999,9999,9999,737572932
197,10,Ticks_ISO_T2_5,119,9999,9999,9999,738072684
197,10,Ticks_ISO_T2_5,120,9999,9999,9999,738572368
197,10,Ticks_ISO_T2_5,121,9999,9999,9999,739072116
197,10,Ticks_ISO_T2_5,122,9999,9999,9999,739572832
197,10,Ticks_ISO_T2_5,123,9999,9999,9999,740072508
197,10,Ticks_ISO_T2_5,124,9999,9999,9999,740572264
197,10,Ticks_ISO_T2_5,125,9999,9999,9999,741072980
197,10,Ticks_ISO_T2_5,126,9999,9999,9999,741572728
197,10,Ticks_ISO_T2_5,127,9999,9999,9999,742072388
197,10,Ticks_ISO_T2_5,128,9999,9999,9999,742572140
197,10,Ticks_ISO_T2_5,129,9999,9999,9999,743072860
198,9,Ticks_ISO_T2_8,0,5,42,127,755078540
198,9,Ticks_ISO_T2_8,1,5,42,127,755879412
198,9,Ticks_ISO_T2_8,2,1,48,88,755989780
198,9,Ticks_ISO_T2_8,3,5,42,127,756679096
198,9,Ticks_ISO_T2_8,4,1,48,81,756718652
198,9,Ticks_ISO_T2_8,5,5,42,127,757478828
198,9,Ticks_ISO_T2_8,6,1,48,83,757495008
198,9,Ticks_ISO_T2_8,7,1,48,76,758274860
198,9,Ticks_ISO_T2_8,8,5,42,127,758278556
198,9,Ticks_ISO_T2_8,9,1,48,78,759045400
198,9,Ticks_ISO_T2_8,10,5,42,127,759079408
198,9,Ticks_ISO_T2_8,11,1,48,76,759858872
198,9,Ticks_ISO_T2_8,12,5,42,127,759878992
198,9,Ticks_ISO_T2_8,13,1,48,64,760632096
198,9,Ticks_ISO_T2_8,14,5,42,127,760678876
198,9,Ticks_ISO_T2_8,15,1,48,53,761451620
198,9,Ticks_ISO_T2_8,16,5,42,127,761478608
198,9,Ticks_ISO_T2_8,17,5,42,127,762279392
198,9,Ticks_ISO_T2_8,18,1,48,55,762291616
198,9,Ticks_ISO_T2_8,19,5,42,127,763079152
198,9,Ticks_ISO_T2_8,20,1,48,49,763116768
198,9,Ticks_ISO_T2_8,21,5,42,127,763878736
198,9,Ticks_ISO_T2_8,22,1,48,51,763928292
198,9,Ticks_ISO_T2_8,23,5,42,127,764678620
198,9,Ticks_ISO_T2_8,24,1,48,63,764688752
198,9,Ticks_ISO_T2_8,25,1,48,54,765421036
198,9,Ticks_ISO_T2_8,26,5,42,127,765479388
198,9,Ticks_ISO_T2_8,27,1,48,58,766253700
198,9,Ticks_ISO_T2_8,28,5,42,127,766278972
198,9,Ticks_ISO_T2_8,29,1,48,64,767046040
198,9,Ticks_ISO_T2_8,30,5,42,127,767078856
198,9,Ticks_ISO_T2_8,31,5,42,127,767878448
198,9,Ticks_ISO_T2_8,32,1,48,74,767880888
198,9,Ticks_ISO_T2_8,33,5,42,127,768679448
198,9,Ticks_ISO_T2_8,34,1,48,58,768700036
198,9,Ticks_ISO_T2_8,35,5,42,127,769479132
198,9,Ticks_ISO_T2_8,36,1,48,51,769481216
198,9,Ticks_ISO_T2_8,37,5,42,127,770278640
198,9,Ticks_ISO_T2_8,38,1,48,42,770327304
198,9,Ticks_ISO_T2_8,39,1,38,14,770341996
198,9,Ticks_ISO_T2_8,40,5,42,127,771078476
198,9,Ticks_ISO_T2_8,41,1,48,59,771080264
198,9,Ticks_ISO_T2_8,42,1,48,90,771843372
198,9,Ticks_ISO_T2_8,43,5,42,127,771879396
198,9,Ticks_ISO_T2_8,44,1,48,92,772656252
198,9,Ticks_ISO_T2_8,45,5,42,127,772679280
198,9,Ticks_ISO_T2_8,46,1,48,101,773461504
198,9,Ticks_ISO_T2_8,47,5,42,127,773478864
198,9,Ticks_ISO_T2_8,48,1,48,95,774260640
198,9,Ticks_ISO_T2_8,49,5,42,127,774278448
198,9,Ticks_ISO_T2_8,50,1,48,78,775059180
198,9,Ticks_ISO_T2_8,51,5,42,127,775079300
198,9,Ticks_ISO_T2_8,52,1,48,86,775853460
198,9,Ticks_ISO_T2_8,53,5,42,127,775879132
198,9,Ticks_ISO_T2_8,54,5,42,127,776678724
198,9,Ticks_ISO_T2_8,55,1,48,66,776682208
198,9,Ticks_ISO_T2_8,56,5,42,127,777478532
198,9,Ticks_ISO_T2_8,57,1,48,52,777482688
198,9,Ticks_ISO_T2_8,58,5,42,127,778279236
198,9,Ticks_ISO_T2_8,59,1,48,76,778292728
198,9,Ticks_ISO_T2_8,60,5,42,127,779079192
198,9,Ticks_ISO_T2_8,61,1,48,83,779080080
198,9,Ticks_ISO_T2_8,62,5,42,127,779878924
198,9,Ticks_ISO_T2_8,63,1,48,84,779894060
198,9,Ticks_ISO_T2_8,64,5,42,127,780678432
198,9,Ticks_ISO_T2_8,65,1,48,76,780707828
198,9,Ticks_ISO_T2_8,66,1,48,74,781469608
198,9,Ticks_ISO_T2_8,67,5,42,127,781479204
198,9,Ticks_ISO_T2_8,68,1,48,84,782261432
198,9,Ticks_ISO_T2_8,69,5,42,127,782278960
198,9,Ticks_ISO_T2_8,70,1,48,91,783060736
198,9,Ticks_ISO_T2_8,71,5,42,127,783078696
198,9,Ticks_ISO_T2_8,72,1,48,85,783841432
198,9,Ticks_ISO_T2_8,73,5,42,127,783878724
198,9,Ticks_ISO_T2_8,74,1,48,75,784669912
198,9,Ticks_ISO_T2_8,75,5,42,127,784679132
198,9,Ticks_ISO_T2_8,76,1,48,97,785464864
198,9,Ticks_ISO_T2_8,77,5,42,127,785479088
198,9,Ticks_ISO_T2_8,78,1,48,96,786262284
198,9,Ticks_ISO_T2_8,79,5,42,127,786278672
198,9,Ticks_ISO_T2_8,80,5,42,127,787078560
198,9,Ticks_ISO_T2_8,81,1,48,90,787080044
198,9,Ticks_ISO_T2_8,82,1,48,92,787865404
198,9,Ticks_ISO_T2_8,83,5,42,127,787879404
198,9,Ticks_ISO_T2_8,84,1,48,70,788673376
198,9,Ticks_ISO_T2_8,85,5,42,127,788678940
198,9,Ticks_ISO_T2_8,86,1,48,86,789465644
198,9,Ticks_ISO_T2_8,87,5,42,127,789478820
198,9,Ticks_ISO_T2_8,88,1,48,68,790270232
198,9,Ticks_ISO_T2_8,89,5,42,127,790278552
198,9,Ticks_ISO_T2_8,90,1,48,78,791065708
198,9,Ticks_ISO_T2_8,91,5,42,127,791079408
198,9,Ticks_ISO_T2_8,92,1,48,80,791861408
198,9,Ticks_ISO_T2_8,93,5,42,127,791878916
198,9,Ticks_ISO_T2_8,94,1,48,88,792655992
198,9,Ticks_ISO_T2_8,95,5,42,127,792678800
198,9,Ticks_ISO_T2_8,96,1,48,87,793442432
198,9,Ticks_ISO_T2_8,97,5,42,127,793478456
198,9,Ticks_ISO_T2_8,98,1,48,71,794252168
198,9,Ticks_ISO_T2_8,99,1,38,17,794262380
198,9,Ticks_ISO_T2_8,100,5,42,127,794279144
198,9,Ticks_ISO_T2_8,101,1,48,84,795048720
198,9,Ticks_ISO_T2_8,102,5,42,127,795079024
198,9,Ticks_ISO_T2_8,103,1,48,77,795863264
198,9,Ticks_ISO_T2_8,104,5,42,127,795878756
198,9,Ticks_ISO_T2_8,105,1,48,59,796663220
198,9,Ticks_ISO_T2_8,106,5,42,127,796678488
198,9,Ticks_ISO_T2_8,107,1,48,86,797461088
198,9,Ticks_ISO_T2_8,108,5,42,127,797479268
198,9,Ticks_ISO_T2_8,109,5,42,127,798279008
198,9,Ticks_ISO_T2_8,110,1,48,83,798283912
198,9,Ticks_ISO_T2_8,111,1,48,83,799039796
198,9,Ticks_ISO_T2_8,112,5,42,127,799079028
198,9,Ticks_ISO_T2_8,113,1,48,78,799861780
198,9,Ticks_ISO_T2_8,114,5,42,127,799878464
198,9,Ticks_ISO_T2_8,115,1,48,77,800671144
198,9,Ticks_ISO_T2_8,116,5,42,127,800679392
198,9,Ticks_ISO_T2_8,117,1,48,76,801436904
198,9,Ticks_ISO_T2_8,118,1,38,18,801447040
198,9,Ticks_ISO_T2_8,119,5,42,127,801479056
198,9,Ticks_ISO_T2_8,120,1,48,105,802236136
198,9,Ticks_ISO_T2_8,121,5,42,127,802278908
198,9,Ticks_ISO_T2_8,122,1,48,80,803064192
198,9,Ticks_ISO_T2_8,123,5,42,127,803078640
198,9,Ticks_ISO_T2_8,124,1,48,103,803870948
198,9,Ticks_ISO_T2_8,125,5,42,127,803879272
198,9,Ticks_ISO_T2_8,126,1,48,89,804674788
198,9,Ticks_ISO_T2_8,127,5,42,127,804679076
198,9,Ticks_ISO_T2_8,128,1,48,91,805468844
198,9,Ticks_ISO_T2_8,129,5,42,127,805478808
198,9,Ticks_ISO_T2_8,130,1,48,77,806234452
198,9,Ticks_ISO_T2_8,131,5,42,127,806278692
198,9,Ticks_ISO_T2_8,132,1,48,82,807010664
198,9,Ticks_ISO_T2_8,133,5,42,127,807079320
198,9,Ticks_ISO_T2_8,134,1,48,63,807797104
198,9,Ticks_ISO_T2_8,135,5,42,127,807879076
198,9,Ticks_ISO_T2_8,136,1,48,68,808625364
198,9,Ticks_ISO_T2_8,137,5,42,127,808678664
198,9,Ticks_ISO_T2_8,138,1,48,85,809431836
198,9,Ticks_ISO_T2_8,139,5,42,127,809478692
198,9,Ticks_ISO_T2_8,140,5,42,127,810279476
198,9,Ticks_ISO_T2_8,141,1,48,69,810283932
198,9,Ticks_ISO_T2_8,142,5,42,127,811078916
198,9,Ticks_ISO_T2_8,143,1,48,66,811134296
198,9,Ticks_ISO_T2_8,144,1,48,79,811873224
198,9,Ticks_ISO_T2_8,145,5,42,127,811878788
198,9,Ticks_ISO_T2_8,146,5,42,127,812678456
198,9,Ticks_ISO_T2_8,147,1,48,66,812702324
198,9,Ticks_ISO_T2_8,148,1,48,68,813451564
198,9,Ticks_ISO_T2_8,149,5,42,127,813479224
198,9,Ticks_ISO_T2_8,150,1,48,73,814273196
198,9,Ticks_ISO_T2_8,151,5,42,127,814279132
198,9,Ticks_ISO_T2_8,152,5,42,127,815078796
198,9,Ticks_ISO_T2_8,153,1,48,76,815122156
198,9,Ticks_ISO_T2_8,154,5,42,127,815878604
198,9,Ticks_ISO_T2_8,155,1,48,61,815984764
198,9,Ticks_ISO_T2_8,156,5,42,127,816679308
198,9,Ticks_ISO_T2_8,157,1,48,74,816680272
198,9,Ticks_ISO_T2_8,158,1,48,69,817470936
198,9,Ticks_ISO_T2_8,159,5,42,127,817479256
198,9,Ticks_ISO_T2_8,160,1,48,70,818165452
198,9,Ticks_ISO_T2_8,161,5,42,127,818278904
198,9,Ticks_ISO_T2_8,162,1,48,79,819023208
198,9,Ticks_ISO_T2_8,163,5,42,127,819078504
198,9,Ticks_ISO_T2_8,164,1,48,77,819847956
198,9,Ticks_ISO_T2_8,165,5,42,127,819879132
198,9,Ticks_ISO_T2_8,166,1,48,77,820638208
198,9,Ticks_ISO_T2_8,167,5,42,127,820679112
198,9,Ticks_ISO_T2_8,168,1,48,104,821473432
198,9,Ticks_ISO_T2_8,169,5,42,127,821478844
198,9,Ticks_ISO_T2_8,170,5,42,127,822278432
198,9,Ticks_ISO_T2_8,171,1,48,89,822292600
198,9,Ticks_ISO_T2_8,172,1,48,67,823079436
198,9,Ticks_ISO_T2_8,173,5,42,127,823081000
198,9,Ticks_ISO_T2_8,174,5,42,127,823878944
198,9,Ticks_ISO_T2_8,175,1,48,60,823881680
198,9,Ticks_ISO_T2_8,176,1,48,97,824668632
198,9,Ticks_ISO_T2_8,177,5,42,127,824679040
198,9,Ticks_ISO_T2_8,178,1,48,79,825454544
198,9,Ticks_ISO_T2_8,179,5,42,127,825478476
198,9,Ticks_ISO_T2_8,180,1,48,76,826265632
198,9,Ticks_ISO_T2_8,181,5,42,127,826279256
198,9,Ticks_ISO_T2_8,182,1,48,75,827069196
198,9,Ticks_ISO_T2_8,183,5,42,127,827079012
198,9,Ticks_ISO_T2_8,184,1,48,74,827876636
198,9,Ticks_ISO_T2_8,185,5,42,127,827878672
198,9,Ticks_ISO_T2_8,186,1,48,78,828623040
198,9,Ticks_ISO_T2_8,187,5,42,127,828678628
198,9,Ticks_ISO_T2_8,188,1,48,78,829444352
198,9,Ticks_ISO_T2_8,189,5,42,127,829479332
198,9,Ticks_ISO_T2_8,190,1,48,79,830263352
198,9,Ticks_ISO_T2_8,191,5,42,127,830279140
198,9,Ticks_ISO_T2_8,192,5,42,127,831078732
198,9,Ticks_ISO_T2_8,193,1,48,70,831082364
198,9,Ticks_ISO_T2_8,194,1,48,71,831866028
198,9,Ticks_ISO_T2_8,195,5,42,127,831878604
198,9,Ticks_ISO_T2_8,196,1,48,69,832667780
198,9,Ticks_ISO_T2_8,197,5,42,127,832679460
198,9,Ticks_ISO_T2_8,198,1,48,52,833434128
198,9,Ticks_ISO_T2_8,199,5,42,127,833478920
198,9,Ticks_ISO_T2_8,200,1,48,79,834255316
198,9,Ticks_ISO_T2_8,201,5,42,127,834278652
198,9,Ticks_ISO_T2_8,202,1,48,85,835061848
198,9,Ticks_ISO_T2_8,203,5,42,127,835078608
198,9,Ticks_ISO_T2_8,204,1,48,85,835865532
198,9,Ticks_ISO_T2_8,205,5,42,127,835879384
198,9,Ticks_ISO_T2_8,206,1,48,80,836667660
198,9,Ticks_ISO_T2_8,207,5,42,127,836679116
198,9,Ticks_ISO_T2_8,208,1,48,102,837449396
198,9,Ticks_ISO_T2_8,209,5,42,127,837478852
198,9,Ticks_ISO_T2_8,210,1,48,89,838254056
198,9,Ticks_ISO_T2_8,211,5,42,127,838278436
198,9,Ticks_ISO_T2_8,212,1,48,93,839058268
198,9,Ticks_ISO_T2_8,213,5,42,127,839079288
198,9,Ticks_ISO_T2_8,214,1,48,82,839854940
198,9,Ticks_ISO_T2_8,215,5,42,127,839879192
198,9,Ticks_ISO_T2_8,216,1,48,94,840672472
198,9,Ticks_ISO_T2_8,217,5,42,127,840678632
198,9,Ticks_ISO_T2_8,218,1,48,83,841474740
198,9,Ticks_ISO_T2_8,219,5,42,127,841478364
198,9,Ticks_ISO_T2_8,220,1,48,105,842263648
198,9,Ticks_ISO_T2_8,221,5,42,127,842279216
198,9,Ticks_ISO_T2_8,222,1,48,83,843042028
198,9,Ticks_ISO_T2_8,223,5,42,127,843079096
198,9,Ticks_ISO_T2_8,224,5,42,127,843878908
198,9,Ticks_ISO_T2_8,225,1,48,101,843882468
198,9,Ticks_ISO_T2_8,226,1,48,90,844671360
198,9,Ticks_ISO_T2_8,227,5,42,127,844678636
198,9,Ticks_ISO_T2_8,228,1,48,111,845449136
198,9,Ticks_ISO_T2_8,229,5,42,127,845479412
198,9,Ticks_ISO_T2_8,230,1,48,86,846260372
198,9,Ticks_ISO_T2_8,231,5,42,127,846278948
198,9,Ticks_ISO_T2_8,232,1,48,94,847072300
198,9,Ticks_ISO_T2_8,233,5,42,127,847078832
198,9,Ticks_ISO_T2_8,234,1,48,82,847860604
198,9,Ticks_ISO_T2_8,235,5,42,127,847878712
198,9,Ticks_ISO_T2_8,236,5,42,127,848679124
198,9,Ticks_ISO_T2_8,237,1,48,80,848685524
198,9,Ticks_ISO_T2_8,238,5,42,127,849479004
198,9,Ticks_ISO_T2_8,239,1,48,88,849518184
198,9,Ticks_ISO_T2_8,240,5,42,127,850278664
198,9,Ticks_ISO_T2_8,241,1,48,85,850302240
198,9,Ticks_ISO_T2_8,242,1,48,84,851044604
198,9,Ticks_ISO_T2_8,0,9999,9999,9999,755076180
198,9,Ticks_ISO_T2_8,1,9999,9999,9999,755876980
198,9,Ticks_ISO_T2_8,2,9999,9999,9999,756676664
198,9,Ticks_ISO_T2_8,3,9999,9999,9999,757476468
198,9,Ticks_ISO_T2_8,4,9999,9999,9999,758276196
198,9,Ticks_ISO_T2_8,5,9999,9999,9999,759076976
198,9,Ticks_ISO_T2_8,6,9999,9999,9999,759876708
198,9,Ticks_ISO_T2_8,7,9999,9999,9999,760676444
198,9,Ticks_ISO_T2_8,8,9999,9999,9999,761476172
198,9,Ticks_ISO_T2_8,9,9999,9999,9999,762276960
198,9,Ticks_ISO_T2_8,10,9999,9999,9999,763076720
198,9,Ticks_ISO_T2_8,11,9999,9999,9999,763876452
198,9,Ticks_ISO_T2_8,12,9999,9999,9999,764676184
198,9,Ticks_ISO_T2_8,13,9999,9999,9999,765476956
198,9,Ticks_ISO_T2_8,14,9999,9999,9999,766276688
198,9,Ticks_ISO_T2_8,15,9999,9999,9999,767076424
198,9,Ticks_ISO_T2_8,16,9999,9999,9999,767876164
198,9,Ticks_ISO_T2_8,17,9999,9999,9999,768676940
198,9,Ticks_ISO_T2_8,18,9999,9999,9999,769476696
198,9,Ticks_ISO_T2_8,19,9999,9999,9999,770276432
198,9,Ticks_ISO_T2_8,20,9999,9999,9999,771076192
198,9,Ticks_ISO_T2_8,21,9999,9999,9999,771876964
198,9,Ticks_ISO_T2_8,22,9999,9999,9999,772676700
198,9,Ticks_ISO_T2_8,23,9999,9999,9999,773476428
198,9,Ticks_ISO_T2_8,24,9999,9999,9999,774276164
198,9,Ticks_ISO_T2_8,25,9999,9999,9999,775076944
198,9,Ticks_ISO_T2_8,26,9999,9999,9999,775876700
198,9,Ticks_ISO_T2_8,27,9999,9999,9999,776676440
198,9,Ticks_ISO_T2_8,28,9999,9999,9999,777476172
198,9,Ticks_ISO_T2_8,29,9999,9999,9999,778276952
198,9,Ticks_ISO_T2_8,30,9999,9999,9999,779076684
198,9,Ticks_ISO_T2_8,31,9999,9999,9999,779876416
198,9,Ticks_ISO_T2_8,32,9999,9999,9999,780676148
198,9,Ticks_ISO_T2_8,33,9999,9999,9999,781476920
198,9,Ticks_ISO_T2_8,34,9999,9999,9999,782276676
198,9,Ticks_ISO_T2_8,35,9999,9999,9999,783076412
198,9,Ticks_ISO_T2_8,36,9999,9999,9999,783876216
198,9,Ticks_ISO_T2_8,37,9999,9999,9999,784676920
198,9,Ticks_ISO_T2_8,38,9999,9999,9999,785476728
198,9,Ticks_ISO_T2_8,39,9999,9999,9999,786276460
198,9,Ticks_ISO_T2_8,40,9999,9999,9999,787076200
198,9,Ticks_ISO_T2_8,41,9999,9999,9999,787876972
198,9,Ticks_ISO_T2_8,42,9999,9999,9999,788676728
198,9,Ticks_ISO_T2_8,43,9999,9999,9999,789476460
198,9,Ticks_ISO_T2_8,44,9999,9999,9999,790276196
198,9,Ticks_ISO_T2_8,45,9999,9999,9999,791076972
198,9,Ticks_ISO_T2_8,46,9999,9999,9999,791876704
198,9,Ticks_ISO_T2_8,47,9999,9999,9999,792676440
198,9,Ticks_ISO_T2_8,48,9999,9999,9999,793476172
198,9,Ticks_ISO_T2_8,49,9999,9999,9999,794276932
198,9,Ticks_ISO_T2_8,50,9999,9999,9999,795076664
198,9,Ticks_ISO_T2_8,51,9999,9999,9999,795876472
198,9,Ticks_ISO_T2_8,52,9999,9999,9999,796676204
198,9,Ticks_ISO_T2_8,53,9999,9999,9999,797476984
198,9,Ticks_ISO_T2_8,54,9999,9999,9999,798276724
198,9,Ticks_ISO_T2_8,55,9999,9999,9999,799076448
198,9,Ticks_ISO_T2_8,56,9999,9999,9999,799876180
198,9,Ticks_ISO_T2_8,57,9999,9999,9999,800676960
198,9,Ticks_ISO_T2_8,58,9999,9999,9999,801476696
198,9,Ticks_ISO_T2_8,59,9999,9999,9999,802276400
198,9,Ticks_ISO_T2_8,60,9999,9999,9999,803076208
198,9,Ticks_ISO_T2_8,61,9999,9999,9999,803876984
198,9,Ticks_ISO_T2_8,62,9999,9999,9999,804676720
198,9,Ticks_ISO_T2_8,63,9999,9999,9999,805476452
198,9,Ticks_ISO_T2_8,64,9999,9999,9999,806276184
198,9,Ticks_ISO_T2_8,65,9999,9999,9999,807076960
198,9,Ticks_ISO_T2_8,66,9999,9999,9999,807876720
198,9,Ticks_ISO_T2_8,67,9999,9999,9999,808676452
198,9,Ticks_ISO_T2_8,68,9999,9999,9999,809476184
198,9,Ticks_ISO_T2_8,69,9999,9999,9999,810276972
198,9,Ticks_ISO_T2_8,70,9999,9999,9999,811076704
198,9,Ticks_ISO_T2_8,71,9999,9999,9999,811876428
198,9,Ticks_ISO_T2_8,72,9999,9999,9999,812676172
198,9,Ticks_ISO_T2_8,73,9999,9999,9999,813476940
198,9,Ticks_ISO_T2_8,74,9999,9999,9999,814276700
198,9,Ticks_ISO_T2_8,75,9999,9999,9999,815076440
198,9,Ticks_ISO_T2_8,76,9999,9999,9999,815876172
198,9,Ticks_ISO_T2_8,77,9999,9999,9999,816676948
198,9,Ticks_ISO_T2_8,78,9999,9999,9999,817476676
198,9,Ticks_ISO_T2_8,79,9999,9999,9999,818276468
198,9,Ticks_ISO_T2_8,80,9999,9999,9999,819076216
198,9,Ticks_ISO_T2_8,81,9999,9999,9999,819876920
198,9,Ticks_ISO_T2_8,82,9999,9999,9999,820676676
198,9,Ticks_ISO_T2_8,83,9999,9999,9999,821476408
198,9,Ticks_ISO_T2_8,84,9999,9999,9999,822276148
198,9,Ticks_ISO_T2_8,85,9999,9999,9999,823076928
198,9,Ticks_ISO_T2_8,86,9999,9999,9999,823876660
198,9,Ticks_ISO_T2_8,87,9999,9999,9999,824676460
198,9,Ticks_ISO_T2_8,88,9999,9999,9999,825476192
198,9,Ticks_ISO_T2_8,89,9999,9999,9999,826276972
198,9,Ticks_ISO_T2_8,90,9999,9999,9999,827076728
198,9,Ticks_ISO_T2_8,91,9999,9999,9999,827876424
198,9,Ticks_ISO_T2_8,92,9999,9999,9999,828676196
198,9,Ticks_ISO_T2_8,93,9999,9999,9999,829476972
198,9,Ticks_ISO_T2_8,94,9999,9999,9999,830276708
198,9,Ticks_ISO_T2_8,95,9999,9999,9999,831076448
198,9,Ticks_ISO_T2_8,96,9999,9999,9999,831876172
198,9,Ticks_ISO_T2_8,97,9999,9999,9999,832676952
198,9,Ticks_ISO_T2_8,98,9999,9999,9999,833476708
198,9,Ticks_ISO_T2_8,99,9999,9999,9999,834276440
198,9,Ticks_ISO_T2_8,100,9999,9999,9999,835076176
198,9,Ticks_ISO_T2_8,101,9999,9999,9999,835876952
198,9,Ticks_ISO_T2_8,102,9999,9999,9999,836676684
198,9,Ticks_ISO_T2_8,103,9999,9999,9999,837476416
198,9,Ticks_ISO_T2_8,104,9999,9999,9999,838276152
198,9,Ticks_ISO_T2_8,105,9999,9999,9999,839076928
198,9,Ticks_ISO_T2_8,106,9999,9999,9999,839876688
198,9,Ticks_ISO_T2_8,107,9999,9999,9999,840676420
198,9,Ticks_ISO_T2_8,108,9999,9999,9999,841476152
198,9,Ticks_ISO_T2_8,109,9999,9999,9999,842276932
198,9,Ticks_ISO_T2_8,110,9999,9999,9999,843076664
198,9,Ticks_ISO_T2_8,111,9999,9999,9999,843876404
198,9,Ticks_ISO_T2_8,112,9999,9999,9999,844676204
198,9,Ticks_ISO_T2_8,113,9999,9999,9999,845476980
198,9,Ticks_ISO_T2_8,114,9999,9999,9999,846276664
198,9,Ticks_ISO_T2_8,115,9999,9999,9999,847076472
198,9,Ticks_ISO_T2_8,116,9999,9999,9999,847876204
198,9,Ticks_ISO_T2_8,117,9999,9999,9999,848676916
198,9,Ticks_ISO_T2_8,118,9999,9999,9999,849476720
198,9,Ticks_ISO_T2_8,119,9999,9999,9999,850276456
199,23,Ticks_Phase_5,0,5,42,127,866295076
199,23,Ticks_Phase_5,1,5,42,127,866794844
199,23,Ticks_Phase_5,2,1,48,59,867050600
199,23,Ticks_Phase_5,3,5,42,127,867294884
199,23,Ticks_Phase_5,4,1,48,73,867383232
199,23,Ticks_Phase_5,5,5,42,127,867795376
199,23,Ticks_Phase_5,6,1,48,83,867845152
199,23,Ticks_Phase_5,7,5,42,127,868294976
199,23,Ticks_Phase_5,8,1,48,86,868313496
199,23,Ticks_Phase_5,9,5,42,127,868794720
199,23,Ticks_Phase_5,10,1,48,72,868820932
199,23,Ticks_Phase_5,11,5,42,127,869294516
199,23,Ticks_Phase_5,12,1,48,87,869325096
199,23,Ticks_Phase_5,13,5,42,127,869795160
199,23,Ticks_Phase_5,14,1,48,78,869811280
199,23,Ticks_Phase_5,15,5,42,127,870294904
199,23,Ticks_Phase_5,16,1,48,80,870306616
199,23,Ticks_Phase_5,17,5,42,127,870794796
199,23,Ticks_Phase_5,18,1,48,81,870796132
199,23,Ticks_Phase_5,19,5,42,127,871295292
199,23,Ticks_Phase_5,20,1,48,69,871317024
199,23,Ticks_Phase_5,21,5,42,127,871795036
199,23,Ticks_Phase_5,22,1,48,79,871798672
199,23,Ticks_Phase_5,23,1,48,83,872293040
199,23,Ticks_Phase_5,24,5,42,127,872294848
199,23,Ticks_Phase_5,25,1,48,78,872791940
199,23,Ticks_Phase_5,26,5,42,127,872794520
199,23,Ticks_Phase_5,27,1,48,74,873283996
199,23,Ticks_Phase_5,28,5,42,127,873295088
199,23,Ticks_Phase_5,29,1,48,74,873786656
199,23,Ticks_Phase_5,30,5,42,127,873794908
199,23,Ticks_Phase_5,31,1,48,84,874293760
199,23,Ticks_Phase_5,32,5,42,127,874295476
199,23,Ticks_Phase_5,33,5,42,127,874795448
199,23,Ticks_Phase_5,34,1,48,78,874818152
199,23,Ticks_Phase_5,35,5,42,127,875295048
199,23,Ticks_Phase_5,36,1,48,87,875306088
199,23,Ticks_Phase_5,37,5,42,127,875794940
199,23,Ticks_Phase_5,38,1,48,69,875807924
199,23,Ticks_Phase_5,39,5,42,127,876294536
199,23,Ticks_Phase_5,40,1,48,75,876302432
199,23,Ticks_Phase_5,41,5,42,127,876795328
199,23,Ticks_Phase_5,42,1,48,61,876817436
199,23,Ticks_Phase_5,43,5,42,127,877294924
199,23,Ticks_Phase_5,44,1,48,80,877306260
199,23,Ticks_Phase_5,45,5,42,127,877794668
199,23,Ticks_Phase_5,46,1,48,66,877812652
199,23,Ticks_Phase_5,47,5,42,127,878295384
199,23,Ticks_Phase_5,48,1,48,59,878311276
199,23,Ticks_Phase_5,49,5,42,127,878795276
199,23,Ticks_Phase_5,50,1,48,71,878816788
199,23,Ticks_Phase_5,51,1,48,68,879285840
199,23,Ticks_Phase_5,52,5,42,127,879294720
199,23,Ticks_Phase_5,53,1,48,62,879755832
199,23,Ticks_Phase_5,54,5,42,127,879794512
199,23,Ticks_Phase_5,55,1,48,62,880270972
199,23,Ticks_Phase_5,56,5,42,127,880295376
199,23,Ticks_Phase_5,57,1,48,72,880775132
199,23,Ticks_Phase_5,58,5,42,127,880794976
199,23,Ticks_Phase_5,59,5,42,127,881284484
199,23,Ticks_Phase_5,60,1,48,69,881298888
199,23,Ticks_Phase_5,61,5,42,127,881785128
199,23,Ticks_Phase_5,62,1,48,66,881791380
199,23,Ticks_Phase_5,63,5,42,127,882285168
199,23,Ticks_Phase_5,64,1,48,63,882299720
199,23,Ticks_Phase_5,65,5,42,127,882784616
199,23,Ticks_Phase_5,66,1,48,74,882807172
199,23,Ticks_Phase_5,67,5,42,127,883285260
199,23,Ticks_Phase_5,68,1,48,67,883326504
199,23,Ticks_Phase_5,69,5,42,127,883785300
199,23,Ticks_Phase_5,70,1,48,63,883821160
199,23,Ticks_Phase_5,71,5,42,127,884284900
199,23,Ticks_Phase_5,72,1,48,65,884305360
199,23,Ticks_Phase_5,73,5,42,127,884784572
199,23,Ticks_Phase_5,74,1,48,59,884831640
199,23,Ticks_Phase_5,75,5,42,127,885285288
199,23,Ticks_Phase_5,76,1,48,63,885331532
199,23,Ticks_Phase_5,77,5,42,127,885785104
199,23,Ticks_Phase_5,78,1,48,76,885820592
199,23,Ticks_Phase_5,79,5,42,127,886284924
199,23,Ticks_Phase_5,80,1,48,69,886301268
199,23,Ticks_Phase_5,81,5,42,127,886785344
199,23,Ticks_Phase_5,82,1,48,76,886804012
199,23,Ticks_Phase_5,83,5,42,127,887285088
199,23,Ticks_Phase_5,84,1,48,75,887305400
199,23,Ticks_Phase_5,85,5,42,127,887784908
199,23,Ticks_Phase_5,86,1,48,77,887788700
199,23,Ticks_Phase_5,87,1,48,76,888283300
199,23,Ticks_Phase_5,88,5,42,127,888284944
199,23,Ticks_Phase_5,89,5,42,127,888785224
199,23,Ticks_Phase_5,90,1,48,76,888786112
199,23,Ticks_Phase_5,91,5,42,127,889284892
199,23,Ticks_Phase_5,92,1,48,64,889307300
199,23,Ticks_Phase_5,93,5,42,127,889784936
199,23,Ticks_Phase_5,94,1,48,67,889789696
199,23,Ticks_Phase_5,95,1,48,57,890262408
199,23,Ticks_Phase_5,96,5,42,127,890294768
199,23,Ticks_Phase_5,97,5,42,127,890795392
199,23,Ticks_Phase_5,98,1,48,79,890811908
199,23,Ticks_Phase_5,99,1,48,74,891282308
199,23,Ticks_Phase_5,100,5,42,127,891295132
199,23,Ticks_Phase_5,101,5,42,127,891794660
199,23,Ticks_Phase_5,102,1,48,82,891799716
199,23,Ticks_Phase_5,103,1,48,93,892278072
199,23,Ticks_Phase_5,104,5,42,127,892294768
199,23,Ticks_Phase_5,105,5,42,127,892795196
199,23,Ticks_Phase_5,106,1,48,85,892796160
199,23,Ticks_Phase_5,107,1,48,99,893288172
199,23,Ticks_Phase_5,108,5,42,127,893294856
199,23,Ticks_Phase_5,109,5,42,127,893794608
199,23,Ticks_Phase_5,110,1,48,54,893802668
199,23,Ticks_Phase_5,111,5,42,127,894295696
199,23,Ticks_Phase_5,112,1,48,84,894310024
199,23,Ticks_Phase_5,113,5,42,127,894795292
199,23,Ticks_Phase_5,114,1,48,75,894821656
199,23,Ticks_Phase_5,115,5,42,127,895294892
199,23,Ticks_Phase_5,116,1,48,73,895296756
199,23,Ticks_Phase_5,117,1,48,86,895758568
199,23,Ticks_Phase_5,118,5,42,127,895794632
199,23,Ticks_Phase_5,119,1,48,94,896246052
199,23,Ticks_Phase_5,120,5,42,127,896295348
199,23,Ticks_Phase_5,121,1,48,78,896734512
199,23,Ticks_Phase_5,122,5,42,127,896794944
199,23,Ticks_Phase_5,123,1,48,71,897229388
199,23,Ticks_Phase_5,124,5,42,127,897294688
199,23,Ticks_Phase_5,125,1,48,48,897732344
199,23,Ticks_Phase_5,126,5,42,127,897794360
199,23,Ticks_Phase_5,127,1,48,86,898247872
199,23,Ticks_Phase_5,128,5,42,127,898314664
199,23,Ticks_Phase_5,129,1,48,84,898766456
199,23,Ticks_Phase_5,130,5,42,127,898815304
199,23,Ticks_Phase_5,131,1,48,82,899261936
199,23,Ticks_Phase_5,132,5,42,127,899315272
199,23,Ticks_Phase_5,133,1,48,78,899760684
199,23,Ticks_Phase_5,134,5,42,127,899814720
199,23,Ticks_Phase_5,135,1,48,69,900275536
199,23,Ticks_Phase_5,136,5,42,127,900314464
199,23,Ticks_Phase_5,137,1,48,81,900778124
199,23,Ticks_Phase_5,138,5,42,127,900815404
199,23,Ticks_Phase_5,139,1,48,80,901302864
199,23,Ticks_Phase_5,140,5,42,127,901315224
199,23,Ticks_Phase_5,141,1,48,78,901796900
199,23,Ticks_Phase_5,142,5,42,127,901814596
199,23,Ticks_Phase_5,143,1,48,90,902299708
199,23,Ticks_Phase_5,144,5,42,127,902315512
199,23,Ticks_Phase_5,145,1,48,62,902805432
199,23,Ticks_Phase_5,146,5,42,127,902815404
199,23,Ticks_Phase_5,147,1,48,91,903291940
199,23,Ticks_Phase_5,148,5,42,127,903314924
199,23,Ticks_Phase_5,149,1,48,91,903772408
199,23,Ticks_Phase_5,150,5,42,127,903814372
199,23,Ticks_Phase_5,151,1,48,84,904300104
199,23,Ticks_Phase_5,152,5,42,127,904315312
199,23,Ticks_Phase_5,153,1,48,87,904791772
199,23,Ticks_Phase_5,154,5,42,127,904815132
199,23,Ticks_Phase_5,155,1,48,84,905297800
199,23,Ticks_Phase_5,156,5,42,127,905314652
199,23,Ticks_Phase_5,157,1,48,85,905764280
199,23,Ticks_Phase_5,158,5,42,127,905815444
199,23,Ticks_Phase_5,159,1,48,92,906292588
199,23,Ticks_Phase_5,160,5,42,127,906315188
199,23,Ticks_Phase_5,161,5,42,127,906795356
199,23,Ticks_Phase_5,162,1,48,84,906813652
199,23,Ticks_Phase_5,163,5,42,127,907295252
199,23,Ticks_Phase_5,164,1,48,78,907327972
199,23,Ticks_Phase_5,165,5,42,127,907794772
199,23,Ticks_Phase_5,166,1,48,85,907823904
199,23,Ticks_Phase_5,167,5,42,127,908294368
199,23,Ticks_Phase_5,168,1,48,75,908335388
199,23,Ticks_Phase_5,169,5,42,127,908795232
199,23,Ticks_Phase_5,170,1,48,85,908830344
199,23,Ticks_Phase_5,171,5,42,127,909294904
199,23,Ticks_Phase_5,172,1,48,58,909348852
199,23,Ticks_Phase_5,173,5,42,127,909794948
199,23,Ticks_Phase_5,174,1,48,81,909805992
199,23,Ticks_Phase_5,175,1,48,73,910249104
199,23,Ticks_Phase_5,176,5,42,127,910295288
199,23,Ticks_Phase_5,177,1,48,79,910775188
199,23,Ticks_Phase_5,178,5,42,127,910795256
199,23,Ticks_Phase_5,179,5,42,127,911294932
199,23,Ticks_Phase_5,180,1,48,84,911301256
199,23,Ticks_Phase_5,181,1,48,77,911792384
199,23,Ticks_Phase_5,182,5,42,127,911794572
199,23,Ticks_Phase_5,183,5,42,127,912295268
199,23,Ticks_Phase_5,184,1,48,66,912297204
199,23,Ticks_Phase_5,185,1,48,83,912795088
199,23,Ticks_Phase_5,186,5,42,127,912796644
199,23,Ticks_Phase_5,187,5,42,127,913294684
199,23,Ticks_Phase_5,188,1,48,81,913307892
199,23,Ticks_Phase_5,189,5,42,127,913794428
199,23,Ticks_Phase_5,190,1,48,75,913795392
199,23,Ticks_Phase_5,191,5,42,127,914295220
199,23,Ticks_Phase_5,192,1,48,72,914296184
199,23,Ticks_Phase_5,193,5,42,127,914744948
199,23,Ticks_Phase_5,194,1,48,73,914801740
199,23,Ticks_Phase_5,195,5,42,127,915245368
199,23,Ticks_Phase_5,196,1,48,74,915293120
199,23,Ticks_Phase_5,197,5,42,127,915755428
199,23,Ticks_Phase_5,198,1,48,70,915796672
199,23,Ticks_Phase_5,199,5,42,127,916255100
199,23,Ticks_Phase_5,200,1,48,76,916271148
199,23,Ticks_Phase_5,201,1,48,80,916741496
199,23,Ticks_Phase_5,202,5,42,127,916754764
199,23,Ticks_Phase_5,203,1,48,71,917243716
199,23,Ticks_Phase_5,204,5,42,127,917254436
199,23,Ticks_Phase_5,205,1,48,73,917744660
199,23,Ticks_Phase_5,206,5,42,127,917755668
199,23,Ticks_Phase_5,207,5,42,127,918254904
199,23,Ticks_Phase_5,208,1,48,71,918276412
199,23,Ticks_Phase_5,209,5,42,127,918754648
199,23,Ticks_Phase_5,210,1,48,60,918781012
199,23,Ticks_Phase_5,211,5,42,127,919255588
199,23,Ticks_Phase_5,212,1,48,78,919309988
199,23,Ticks_Phase_5,213,5,42,127,919755256
199,23,Ticks_Phase_5,214,1,48,73,919773332
199,23,Ticks_Phase_5,215,5,42,127,920254780
199,23,Ticks_Phase_5,216,1,48,76,920266792
199,23,Ticks_Phase_5,217,1,48,84,920752460
199,23,Ticks_Phase_5,218,5,42,127,920754496
199,23,Ticks_Phase_5,219,1,48,73,921229832
199,23,Ticks_Phase_5,220,5,42,127,921255580
199,23,Ticks_Phase_5,221,5,42,127,921755036
199,23,Ticks_Phase_5,222,1,48,90,921758076
199,23,Ticks_Phase_5,223,1,48,62,922237104
199,23,Ticks_Phase_5,224,5,42,127,922254624
199,23,Ticks_Phase_5,225,5,42,127,922754376
199,23,Ticks_Phase_5,226,1,48,86,922767584
199,23,Ticks_Phase_5,227,1,48,56,923283548
199,23,Ticks_Phase_5,228,5,42,127,923305400
199,23,Ticks_Phase_5,229,5,42,127,923805224
199,23,Ticks_Phase_5,230,1,48,90,923817388
199,23,Ticks_Phase_5,231,5,42,127,924304820
199,23,Ticks_Phase_5,232,1,48,65,924345868
199,23,Ticks_Phase_5,233,5,42,127,924804420
199,23,Ticks_Phase_5,234,1,48,91,924853912
199,23,Ticks_Phase_5,235,1,48,92,925291184
199,23,Ticks_Phase_5,236,5,42,127,925305348
199,23,Ticks_Phase_5,237,1,48,78,925787424
199,23,Ticks_Phase_5,238,5,42,127,925805020
199,23,Ticks_Phase_5,239,1,48,84,926288216
199,23,Ticks_Phase_5,240,5,42,127,926304544
199,23,Ticks_Phase_5,241,5,42,127,926805264
199,23,Ticks_Phase_5,242,1,48,77,926826924
199,23,Ticks_Phase_5,243,5,42,127,927305160
199,23,Ticks_Phase_5,244,1,48,69,927307600
199,23,Ticks_Phase_5,245,1,48,83,927790512
199,23,Ticks_Phase_5,246,5,42,127,927804748
199,23,Ticks_Phase_5,247,1,48,79,928294152
199,23,Ticks_Phase_5,248,5,42,127,928304348
199,23,Ticks_Phase_5,249,1,48,68,928796584
199,23,Ticks_Phase_5,250,5,42,127,928805288
199,23,Ticks_Phase_5,251,5,42,127,929304964
199,23,Ticks_Phase_5,252,1,48,48,929334400
199,23,Ticks_Phase_5,253,1,48,84,929793984
199,23,Ticks_Phase_5,254,5,42,127,929804632
199,23,Ticks_Phase_5,255,1,48,74,930294032
199,23,Ticks_Phase_5,256,5,42,127,930305272
199,23,Ticks_Phase_5,257,5,42,127,930805024
199,23,Ticks_Phase_5,258,1,48,74,930808436
199,23,Ticks_Phase_5,259,5,42,127,931305068
199,23,Ticks_Phase_5,260,1,48,63,931314696
199,23,Ticks_Phase_5,261,1,48,88,931789972
199,23,Ticks_Phase_5,262,5,42,127,931905048
199,23,Ticks_Phase_5,263,1,48,89,932351320
199,23,Ticks_Phase_5,264,5,42,127,932404584
199,23,Ticks_Phase_5,265,5,42,127,932905308
199,23,Ticks_Phase_5,266,1,48,82,932942884
199,23,Ticks_Phase_5,267,5,42,127,933404904
199,23,Ticks_Phase_5,268,1,48,71,933438668
199,23,Ticks_Phase_5,269,5,42,127,933904796
199,23,Ticks_Phase_5,270,1,48,68,933919200
199,23,Ticks_Phase_5,271,1,48,65,934397848
199,23,Ticks_Phase_5,272,5,42,127,934404536
199,23,Ticks_Phase_5,273,1,48,65,934895880
199,23,Ticks_Phase_5,274,5,42,127,934905176
199,23,Ticks_Phase_5,275,5,42,127,935404856
199,23,Ticks_Phase_5,276,1,48,54,935410504
199,23,Ticks_Phase_5,277,1,48,75,935900748
199,23,Ticks_Phase_5,278,5,42,127,935904596
199,23,Ticks_Phase_5,279,5,42,127,936405464
199,23,Ticks_Phase_5,280,1,48,67,936408656
199,23,Ticks_Phase_5,281,1,48,63,936903248
199,23,Ticks_Phase_5,282,5,42,127,936904984
199,23,Ticks_Phase_5,283,1,48,79,937403980
199,23,Ticks_Phase_5,284,5,42,127,937405772
199,23,Ticks_Phase_5,285,5,42,127,937904676
199,23,Ticks_Phase_5,286,1,48,84,937918784
199,23,Ticks_Phase_5,287,1,48,78,938398980
199,23,Ticks_Phase_5,288,5,42,127,938405140
199,23,Ticks_Phase_5,289,5,42,127,938904892
199,23,Ticks_Phase_5,290,1,48,87,938907480
199,23,Ticks_Phase_5,291,5,42,127,939404712
199,23,Ticks_Phase_5,292,1,48,84,939433400
199,23,Ticks_Phase_5,293,5,42,127,939905648
199,23,Ticks_Phase_5,294,1,48,76,939931116
199,23,Ticks_Phase_5,295,5,42,127,940405172
199,23,Ticks_Phase_5,296,1,48,85,940415392
199,23,Ticks_Phase_5,297,1,48,80,940894492
199,23,Ticks_Phase_5,298,5,42,127,940904912
199,23,Ticks_Phase_5,299,5,42,127,941305156
199,23,Ticks_Phase_5,300,1,48,68,941391624
199,23,Ticks_Phase_5,301,5,42,127,941804904
199,23,Ticks_Phase_5,302,1,48,67,941853852
199,23,Ticks_Phase_5,303,5,42,127,942304648
199,23,Ticks_Phase_5,304,1,48,63,942308884
199,23,Ticks_Phase_5,305,1,48,71,942783424
199,23,Ticks_Phase_5,306,5,42,127,942805504
199,23,Ticks_Phase_5,307,1,48,78,943244496
199,23,Ticks_Phase_5,308,5,42,127,943305028
199,23,Ticks_Phase_5,309,1,48,87,943759332
199,23,Ticks_Phase_5,310,5,42,127,943804848
199,23,Ticks_Phase_5,311,1,48,82,944288388
199,23,Ticks_Phase_5,312,5,42,127,944304344
199,23,Ticks_Phase_5,313,1,48,74,944788732
199,23,Ticks_Phase_5,314,5,42,127,944805284
199,23,Ticks_Phase_5,315,1,48,67,945295132
199,23,Ticks_Phase_5,316,5,42,127,945304808
199,23,Ticks_Phase_5,317,1,48,93,945778952
199,23,Ticks_Phase_5,318,5,42,127,945804624
199,23,Ticks_Phase_5,319,1,48,103,946252912
199,23,Ticks_Phase_5,320,5,42,127,946305344
199,23,Ticks_Phase_5,321,1,48,89,946773216
199,23,Ticks_Phase_5,322,5,42,127,946805088
199,23,Ticks_Phase_5,323,5,42,127,947304692
199,23,Ticks_Phase_5,324,1,48,78,947312504
199,23,Ticks_Phase_5,325,5,42,127,947804584
199,23,Ticks_Phase_5,326,1,48,76,947810836
199,23,Ticks_Phase_5,327,5,42,127,948305300
199,23,Ticks_Phase_5,328,1,48,62,948317392
199,23,Ticks_Phase_5,329,1,48,90,948803008
199,23,Ticks_Phase_5,330,5,42,127,948805188
199,23,Ticks_Phase_5,331,5,42,127,949304644
199,23,Ticks_Phase_5,332,1,48,86,949328392
199,23,Ticks_Phase_5,333,5,42,127,949805360
199,23,Ticks_Phase_5,334,1,48,82,949822984
199,23,Ticks_Phase_5,335,1,48,68,950303352
199,23,Ticks_Phase_5,336,5,42,127,950315564
199,23,Ticks_Phase_5,337,1,48,91,950806456
199,23,Ticks_Phase_5,338,5,42,127,950815012
199,23,Ticks_Phase_5,0,9999,9999,9999,866292792
199,23,Ticks_Phase_5,1,9999,9999,9999,866792560
199,23,Ticks_Phase_5,2,9999,9999,9999,867292232
199,23,Ticks_Phase_5,3,9999,9999,9999,867793020
199,23,Ticks_Phase_5,4,9999,9999,9999,868292692
199,23,Ticks_Phase_5,5,9999,9999,9999,868792440
199,23,Ticks_Phase_5,6,9999,9999,9999,869292160
199,23,Ticks_Phase_5,7,9999,9999,9999,869792876
199,23,Ticks_Phase_5,8,9999,9999,9999,870292548
199,23,Ticks_Phase_5,9,9999,9999,9999,870792292
199,23,Ticks_Phase_5,10,9999,9999,9999,871293008
199,23,Ticks_Phase_5,11,9999,9999,9999,871792752
199,23,Ticks_Phase_5,12,9999,9999,9999,872292428
199,23,Ticks_Phase_5,13,9999,9999,9999,872792164
199,23,Ticks_Phase_5,14,9999,9999,9999,873292876
199,23,Ticks_Phase_5,15,9999,9999,9999,873792624
199,23,Ticks_Phase_5,16,9999,9999,9999,874292304
199,23,Ticks_Phase_5,17,9999,9999,9999,874793016
199,23,Ticks_Phase_5,18,9999,9999,9999,875292764
199,23,Ticks_Phase_5,19,9999,9999,9999,875792508
199,23,Ticks_Phase_5,20,9999,9999,9999,876292180
199,23,Ticks_Phase_5,21,9999,9999,9999,876792896
199,23,Ticks_Phase_5,22,9999,9999,9999,877292640
199,23,Ticks_Phase_5,23,9999,9999,9999,877792308
199,23,Ticks_Phase_5,24,9999,9999,9999,878293100
199,23,Ticks_Phase_5,25,9999,9999,9999,878792772
199,23,Ticks_Phase_5,26,9999,9999,9999,879292508
199,23,Ticks_Phase_5,27,9999,9999,9999,879792228
199,23,Ticks_Phase_5,28,9999,9999,9999,880292944
199,23,Ticks_Phase_5,29,9999,9999,9999,880792692
199,23,Ticks_Phase_5,30,9999,9999,9999,881282128
199,23,Ticks_Phase_5,31,9999,9999,9999,881782844
199,23,Ticks_Phase_5,32,9999,9999,9999,882282588
199,23,Ticks_Phase_5,33,9999,9999,9999,882782332
199,23,Ticks_Phase_5,34,9999,9999,9999,883283052
199,23,Ticks_Phase_5,35,9999,9999,9999,883782720
199,23,Ticks_Phase_5,36,9999,9999,9999,884282468
199,23,Ticks_Phase_5,37,9999,9999,9999,884782140
199,23,Ticks_Phase_5,38,9999,9999,9999,885282928
199,23,Ticks_Phase_5,39,9999,9999,9999,885782600
199,23,Ticks_Phase_5,40,9999,9999,9999,886282344
199,23,Ticks_Phase_5,41,9999,9999,9999,886783060
199,23,Ticks_Phase_5,42,9999,9999,9999,887282804
199,23,Ticks_Phase_5,43,9999,9999,9999,887782476
199,23,Ticks_Phase_5,44,9999,9999,9999,888282224
199,23,Ticks_Phase_5,45,9999,9999,9999,888782940
199,23,Ticks_Phase_5,46,9999,9999,9999,889282684
199,23,Ticks_Phase_5,47,9999,9999,9999,889782356
199,23,Ticks_Phase_5,48,9999,9999,9999,890292312
199,23,Ticks_Phase_5,49,9999,9999,9999,890793036
199,23,Ticks_Phase_5,50,9999,9999,9999,891292772
199,23,Ticks_Phase_5,51,9999,9999,9999,891792448
199,23,Ticks_Phase_5,52,9999,9999,9999,892292188
199,23,Ticks_Phase_5,53,9999,9999,9999,892792912
199,23,Ticks_Phase_5,54,9999,9999,9999,893292648
199,23,Ticks_Phase_5,55,9999,9999,9999,893792328
199,23,Ticks_Phase_5,56,9999,9999,9999,894293116
199,23,Ticks_Phase_5,57,9999,9999,9999,894792784
199,23,Ticks_Phase_5,58,9999,9999,9999,895292536
199,23,Ticks_Phase_5,59,9999,9999,9999,895792200
199,23,Ticks_Phase_5,60,9999,9999,9999,896292992
199,23,Ticks_Phase_5,61,9999,9999,9999,896792660
199,23,Ticks_Phase_5,62,9999,9999,9999,897292404
199,23,Ticks_Phase_5,63,9999,9999,9999,897792076
199,23,Ticks_Phase_5,64,9999,9999,9999,898312308
199,23,Ticks_Phase_5,65,9999,9999,9999,898813024
199,23,Ticks_Phase_5,66,9999,9999,9999,899312692
199,23,Ticks_Phase_5,67,9999,9999,9999,899812436
199,23,Ticks_Phase_5,68,9999,9999,9999,900312184
199,23,Ticks_Phase_5,69,9999,9999,9999,900812896
199,23,Ticks_Phase_5,70,9999,9999,9999,901312568
199,23,Ticks_Phase_5,71,9999,9999,9999,901812288
199,23,Ticks_Phase_5,72,9999,9999,9999,902313080
199,23,Ticks_Phase_5,73,9999,9999,9999,902812748
199,23,Ticks_Phase_5,74,9999,9999,9999,903312496
199,23,Ticks_Phase_5,75,9999,9999,9999,903812164
199,23,Ticks_Phase_5,76,9999,9999,9999,904312952
199,23,Ticks_Phase_5,77,9999,9999,9999,904812624
199,23,Ticks_Phase_5,78,9999,9999,9999,905312368
199,23,Ticks_Phase_5,79,9999,9999,9999,905813084
199,23,Ticks_Phase_5,80,9999,9999,9999,906312756
199,23,Ticks_Phase_5,81,9999,9999,9999,906793072
199,23,Ticks_Phase_5,82,9999,9999,9999,907292744
199,23,Ticks_Phase_5,83,9999,9999,9999,907792488
199,23,Ticks_Phase_5,84,9999,9999,9999,908292160
199,23,Ticks_Phase_5,85,9999,9999,9999,908792952
199,23,Ticks_Phase_5,86,9999,9999,9999,909292620
199,23,Ticks_Phase_5,87,9999,9999,9999,909792368
199,23,Ticks_Phase_5,88,9999,9999,9999,910293076
199,23,Ticks_Phase_5,89,9999,9999,9999,910792824
199,23,Ticks_Phase_5,90,9999,9999,9999,911292500
199,23,Ticks_Phase_5,91,9999,9999,9999,911792252
199,23,Ticks_Phase_5,92,9999,9999,9999,912292984
199,23,Ticks_Phase_5,93,9999,9999,9999,912792656
199,23,Ticks_Phase_5,94,9999,9999,9999,913292400
199,23,Ticks_Phase_5,95,9999,9999,9999,913792072
199,23,Ticks_Phase_5,96,9999,9999,9999,914292864
199,23,Ticks_Phase_5,97,9999,9999,9999,914742368
199,23,Ticks_Phase_5,98,9999,9999,9999,915243084
199,23,Ticks_Phase_5,99,9999,9999,9999,915753072
199,23,Ticks_Phase_5,100,9999,9999,9999,916252740
199,23,Ticks_Phase_5,101,9999,9999,9999,916752480
199,23,Ticks_Phase_5,102,9999,9999,9999,917252152
199,23,Ticks_Phase_5,103,9999,9999,9999,917752940
199,23,Ticks_Phase_5,104,9999,9999,9999,918252620
199,23,Ticks_Phase_5,105,9999,9999,9999,918752364
199,23,Ticks_Phase_5,106,9999,9999,9999,919253080
199,23,Ticks_Phase_5,107,9999,9999,9999,919752824
199,23,Ticks_Phase_5,108,9999,9999,9999,920252496
199,23,Ticks_Phase_5,109,9999,9999,9999,920752248
199,23,Ticks_Phase_5,110,9999,9999,9999,921252924
199,23,Ticks_Phase_5,111,9999,9999,9999,921752676
199,23,Ticks_Phase_5,112,9999,9999,9999,922252416
199,23,Ticks_Phase_5,113,9999,9999,9999,922752092
199,23,Ticks_Phase_5,114,9999,9999,9999,923302968
199,23,Ticks_Phase_5,115,9999,9999,9999,923802716
199,23,Ticks_Phase_5,116,9999,9999,9999,924302464
199,23,Ticks_Phase_5,117,9999,9999,9999,924802136
199,23,Ticks_Phase_5,118,9999,9999,9999,925302844
199,23,Ticks_Phase_5,119,9999,9999,9999,925802588
199,23,Ticks_Phase_5,120,9999,9999,9999,926302260
199,23,Ticks_Phase_5,121,9999,9999,9999,926803056
199,23,Ticks_Phase_5,122,9999,9999,9999,927302728
199,23,Ticks_Phase_5,123,9999,9999,9999,927802468
199,23,Ticks_Phase_5,124,9999,9999,9999,928302140
199,23,Ticks_Phase_5,125,9999,9999,9999,928802928
199,23,Ticks_Phase_5,126,9999,9999,9999,929302608
199,23,Ticks_Phase_5,127,9999,9999,9999,929802348
199,23,Ticks_Phase_5,128,9999,9999,9999,930303064
199,23,Ticks_Phase_5,129,9999,9999,9999,930802812
199,23,Ticks_Phase_5,130,9999,9999,9999,931302484
199,23,Ticks_Phase_5,131,9999,9999,9999,931902540
199,23,Ticks_Phase_5,132,9999,9999,9999,932402300
199,23,Ticks_Phase_5,133,9999,9999,9999,932903024
199,23,Ticks_Phase_5,134,9999,9999,9999,933402692
199,23,Ticks_Phase_5,135,9999,9999,9999,933902440
199,23,Ticks_Phase_5,136,9999,9999,9999,934402104
199,23,Ticks_Phase_5,137,9999,9999,9999,934902892
199,23,Ticks_Phase_5,138,9999,9999,9999,935402572
199,23,Ticks_Phase_5,139,9999,9999,9999,935902312
199,23,Ticks_Phase_5,140,9999,9999,9999,936403032
199,23,Ticks_Phase_5,141,9999,9999,9999,936902724
199,23,Ticks_Phase_5,142,9999,9999,9999,937402452
199,23,Ticks_Phase_5,143,9999,9999,9999,937902172
199,23,Ticks_Phase_5,144,9999,9999,9999,938402928
199,23,Ticks_Phase_5,145,9999,9999,9999,938902608
199,23,Ticks_Phase_5,146,9999,9999,9999,939402352
199,23,Ticks_Phase_5,147,9999,9999,9999,939903068
199,23,Ticks_Phase_5,148,9999,9999,9999,940402812
199,23,Ticks_Phase_5,149,9999,9999,9999,940902476
199,23,Ticks_Phase_5,150,9999,9999,9999,941302872
199,23,Ticks_Phase_5,151,9999,9999,9999,941802620
199,23,Ticks_Phase_5,152,9999,9999,9999,942302292
199,23,Ticks_Phase_5,153,9999,9999,9999,942803000
199,23,Ticks_Phase_5,154,9999,9999,9999,943302744
199,23,Ticks_Phase_5,155,9999,9999,9999,943802488
199,23,Ticks_Phase_5,156,9999,9999,9999,944302136
199,23,Ticks_Phase_5,157,9999,9999,9999,944802928
199,23,Ticks_Phase_5,158,9999,9999,9999,945302596
199,23,Ticks_Phase_5,159,9999,9999,9999,945802344
199,23,Ticks_Phase_5,160,9999,9999,9999,946303060
199,23,Ticks_Phase_5,161,9999,9999,9999,946802804
199,23,Ticks_Phase_5,162,9999,9999,9999,947302480
199,23,Ticks_Phase_5,163,9999,9999,9999,947802228
199,23,Ticks_Phase_5,164,9999,9999,9999,948302944
199,23,Ticks_Phase_5,165,9999,9999,9999,948802632
199,23,Ticks_Phase_5,166,9999,9999,9999,949302360
199,23,Ticks_Phase_5,167,9999,9999,9999,949803076
199,23,Ticks_Phase_5,168,9999,9999,9999,950313056
199,23,Ticks_Phase_5,169,9999,9999,9999,950812728
1910,22,Ticks_Phase_8,0,5,42,127,961350064
1910,22,Ticks_Phase_8,1,5,42,127,962149724
1910,22,Ticks_Phase_8,2,1,48,80,962900380
1910,22,Ticks_Phase_8,3,5,42,127,962949600
1910,22,Ticks_Phase_8,4,1,48,94,963729528
1910,22,Ticks_Phase_8,5,5,42,127,963750484
1910,22,Ticks_Phase_8,6,5,42,127,964550156
1910,22,Ticks_Phase_8,7,1,48,69,964561124
1910,22,Ticks_Phase_8,8,1,48,69,965322768
1910,22,Ticks_Phase_8,9,5,42,127,965349860
1910,22,Ticks_Phase_8,10,1,48,73,966147316
1910,22,Ticks_Phase_8,11,5,42,127,966149424
1910,22,Ticks_Phase_8,12,1,48,70,966948676
1910,22,Ticks_Phase_8,13,5,42,127,966950404
1910,22,Ticks_Phase_8,14,1,48,79,967748092
1910,22,Ticks_Phase_8,15,5,42,127,967749972
1910,22,Ticks_Phase_8,16,1,48,68,968536864
1910,22,Ticks_Phase_8,17,5,42,127,968549688
1910,22,Ticks_Phase_8,18,1,48,73,969322156
1910,22,Ticks_Phase_8,19,5,42,127,969349624
1910,22,Ticks_Phase_8,20,5,42,127,970150168
1910,22,Ticks_Phase_8,21,1,48,54,970214304
1910,22,Ticks_Phase_8,22,5,42,127,970950276
1910,22,Ticks_Phase_8,23,1,48,56,970966472
1910,22,Ticks_Phase_8,24,1,48,71,971744568
1910,22,Ticks_Phase_8,25,5,42,127,971749908
1910,22,Ticks_Phase_8,26,5,42,127,972549556
1910,22,Ticks_Phase_8,27,1,48,66,972551036
1910,22,Ticks_Phase_8,28,5,42,127,973350240
1910,22,Ticks_Phase_8,29,1,48,67,973388276
1910,22,Ticks_Phase_8,30,5,42,127,974149952
1910,22,Ticks_Phase_8,31,1,48,55,974155232
1910,22,Ticks_Phase_8,32,1,48,61,974929300
1910,22,Ticks_Phase_8,33,5,42,127,974949884
1910,22,Ticks_Phase_8,34,1,48,66,975724820
1910,22,Ticks_Phase_8,35,5,42,127,975749524
1910,22,Ticks_Phase_8,36,5,42,127,976550212
1910,22,Ticks_Phase_8,37,1,48,69,976573384
1910,22,Ticks_Phase_8,38,5,42,127,977349952
1910,22,Ticks_Phase_8,39,1,48,59,977367504
1910,22,Ticks_Phase_8,40,5,42,127,978149888
1910,22,Ticks_Phase_8,41,1,48,68,978158168
1910,22,Ticks_Phase_8,42,5,42,127,978949600
1910,22,Ticks_Phase_8,43,1,48,64,978965416
1910,22,Ticks_Phase_8,44,5,42,127,979750212
1910,22,Ticks_Phase_8,45,1,48,61,979767688
1910,22,Ticks_Phase_8,46,1,48,57,980544652
1910,22,Ticks_Phase_8,47,5,42,127,980550140
1910,22,Ticks_Phase_8,48,1,48,53,981331360
1910,22,Ticks_Phase_8,49,5,42,127,981349852
1910,22,Ticks_Phase_8,50,1,48,59,982138552
1910,22,Ticks_Phase_8,51,5,42,127,982149568
1910,22,Ticks_Phase_8,52,1,48,88,982941400
1910,22,Ticks_Phase_8,53,5,42,127,982950176
1910,22,Ticks_Phase_8,54,1,48,97,983718020
1910,22,Ticks_Phase_8,55,5,42,127,983750064
1910,22,Ticks_Phase_8,56,1,48,90,984532400
1910,22,Ticks_Phase_8,57,5,42,127,984549852
1910,22,Ticks_Phase_8,58,5,42,127,985329984
1910,22,Ticks_Phase_8,59,1,48,98,985355524
1910,22,Ticks_Phase_8,60,5,42,127,986129624
1910,22,Ticks_Phase_8,61,1,48,70,986161224
1910,22,Ticks_Phase_8,62,5,42,127,986929636
1910,22,Ticks_Phase_8,63,1,48,86,986947856
1910,22,Ticks_Phase_8,64,1,48,79,987726832
1910,22,Ticks_Phase_8,65,5,42,127,987730460
1910,22,Ticks_Phase_8,66,1,48,88,988512124
1910,22,Ticks_Phase_8,67,5,42,127,988530172
1910,22,Ticks_Phase_8,68,1,48,86,989323944
1910,22,Ticks_Phase_8,69,5,42,127,989329960
1910,22,Ticks_Phase_8,70,5,42,127,990129480
1910,22,Ticks_Phase_8,71,1,48,89,990133188
1910,22,Ticks_Phase_8,72,1,48,92,990920036
1910,22,Ticks_Phase_8,73,5,42,127,990930380
1910,22,Ticks_Phase_8,74,1,48,76,991728588
1910,22,Ticks_Phase_8,75,5,42,127,991730316
1910,22,Ticks_Phase_8,76,1,48,100,992527300
1910,22,Ticks_Phase_8,77,5,42,127,992530028
1910,22,Ticks_Phase_8,78,1,48,97,993324700
1910,22,Ticks_Phase_8,79,5,42,127,993329448
1910,22,Ticks_Phase_8,80,1,48,95,994123740
1910,22,Ticks_Phase_8,81,5,42,127,994130280
1910,22,Ticks_Phase_8,82,1,48,88,994927808
1910,22,Ticks_Phase_8,83,5,42,127,994929916
1910,22,Ticks_Phase_8,84,5,42,127,995729712
1910,22,Ticks_Phase_8,85,1,48,86,995740156
1910,22,Ticks_Phase_8,86,5,42,127,996529452
1910,22,Ticks_Phase_8,87,1,48,81,996558808
1910,22,Ticks_Phase_8,88,5,42,127,997330208
1910,22,Ticks_Phase_8,89,1,48,73,997349624
1910,22,Ticks_Phase_8,90,1,48,78,998127804
1910,22,Ticks_Phase_8,91,5,42,127,998129916
1910,22,Ticks_Phase_8,92,1,48,72,998921448
1910,22,Ticks_Phase_8,93,5,42,127,998929776
1910,22,Ticks_Phase_8,94,1,48,67,999720712
1910,22,Ticks_Phase_8,95,5,42,127,999749976
1910,22,Ticks_Phase_8,96,5,42,127,1000549692
1910,22,Ticks_Phase_8,97,1,48,83,1000553556
1910,22,Ticks_Phase_8,98,5,42,127,1001349704
1910,22,Ticks_Phase_8,99,1,48,94,1001354904
1910,22,Ticks_Phase_8,100,5,42,127,1002150236
1910,22,Ticks_Phase_8,101,1,48,91,1002156636
1910,22,Ticks_Phase_8,102,5,42,127,1002950124
1910,22,Ticks_Phase_8,103,1,48,83,1002955324
1910,22,Ticks_Phase_8,104,5,42,127,1003749616
1910,22,Ticks_Phase_8,105,1,48,95,1003770076
1910,22,Ticks_Phase_8,106,1,48,82,1004549920
1910,22,Ticks_Phase_8,107,5,42,127,1004551412
1910,22,Ticks_Phase_8,108,1,48,97,1005329568
1910,22,Ticks_Phase_8,109,5,42,127,1005350376
1910,22,Ticks_Phase_8,110,1,48,105,1006125532
1910,22,Ticks_Phase_8,111,5,42,127,1006150016
1910,22,Ticks_Phase_8,112,1,48,105,1006926068
1910,22,Ticks_Phase_8,113,5,42,127,1006949800
1910,22,Ticks_Phase_8,114,1,48,99,1007718912
1910,22,Ticks_Phase_8,115,5,42,127,1007749440
1910,22,Ticks_Phase_8,116,1,48,99,1008524452
1910,22,Ticks_Phase_8,117,5,42,127,1008550272
1910,22,Ticks_Phase_8,118,1,48,75,1009337876
1910,22,Ticks_Phase_8,119,5,42,127,1009350088
1910,22,Ticks_Phase_8,120,1,48,90,1010119348
1910,22,Ticks_Phase_8,121,5,42,127,1010149728
1910,22,Ticks_Phase_8,122,1,48,95,1010926152
1910,22,Ticks_Phase_8,123,5,42,127,1010949440
1910,22,Ticks_Phase_8,124,1,48,75,1011718400
1910,22,Ticks_Phase_8,125,5,42,127,1011750272
1910,22,Ticks_Phase_8,126,1,48,57,1012529624
1910,22,Ticks_Phase_8,127,5,42,127,1012590060
1910,22,Ticks_Phase_8,128,1,48,76,1013342788
1910,22,Ticks_Phase_8,129,5,42,127,1013389624
1910,22,Ticks_Phase_8,130,1,48,66,1014173304
1910,22,Ticks_Phase_8,131,5,42,127,1014189436
1910,22,Ticks_Phase_8,132,5,42,127,1014990272
1910,22,Ticks_Phase_8,133,1,48,82,1014996668
1910,22,Ticks_Phase_8,134,5,42,127,1015789912
1910,22,Ticks_Phase_8,135,1,48,78,1015798340
1910,22,Ticks_Phase_8,136,1,48,81,1016570452
1910,22,Ticks_Phase_8,137,5,42,127,1016589620
1910,22,Ticks_Phase_8,138,1,48,84,1017382052
1910,22,Ticks_Phase_8,139,5,42,127,1017389408
1910,22,Ticks_Phase_8,140,5,42,127,1018190100
1910,22,Ticks_Phase_8,141,1,48,57,1018217892
1910,22,Ticks_Phase_8,142,5,42,127,1018989960
1910,22,Ticks_Phase_8,143,1,48,82,1019003832
1910,22,Ticks_Phase_8,144,5,42,127,1019789748
1910,22,Ticks_Phase_8,145,1,48,67,1019792416
1910,22,Ticks_Phase_8,146,5,42,127,1020589408
1910,22,Ticks_Phase_8,147,1,48,65,1020609652
1910,22,Ticks_Phase_8,148,5,42,127,1021390244
1910,22,Ticks_Phase_8,149,1,48,70,1021419376
1910,22,Ticks_Phase_8,150,5,42,127,1022189884
1910,22,Ticks_Phase_8,151,1,48,77,1022232624
1910,22,Ticks_Phase_8,152,5,42,127,1022989668
1910,22,Ticks_Phase_8,153,1,48,74,1023012592
1910,22,Ticks_Phase_8,154,5,42,127,1023789384
1910,22,Ticks_Phase_8,155,1,48,82,1023798780
1910,22,Ticks_Phase_8,156,1,48,70,1024575820
1910,22,Ticks_Phase_8,157,5,42,127,1024590136
1910,22,Ticks_Phase_8,158,1,48,60,1025372844
1910,22,Ticks_Phase_8,159,5,42,127,1025389996
1910,22,Ticks_Phase_8,160,5,42,127,1026149796
1910,22,Ticks_Phase_8,161,1,48,89,1026173836
1910,22,Ticks_Phase_8,162,1,48,85,1026940056
1910,22,Ticks_Phase_8,163,5,42,127,1026949648
1910,22,Ticks_Phase_8,164,1,48,69,1027736240
1910,22,Ticks_Phase_8,165,5,42,127,1027750184
1910,22,Ticks_Phase_8,166,1,48,89,1028543536
1910,22,Ticks_Phase_8,167,5,42,127,1028549848
1910,22,Ticks_Phase_8,168,1,48,77,1029328228
1910,22,Ticks_Phase_8,169,5,42,127,1029349636
1910,22,Ticks_Phase_8,170,1,48,94,1030098336
1910,22,Ticks_Phase_8,171,5,42,127,1030149572
1910,22,Ticks_Phase_8,172,1,48,85,1030917560
1910,22,Ticks_Phase_8,173,5,42,127,1030950404
1910,22,Ticks_Phase_8,174,1,48,84,1031726832
1910,22,Ticks_Phase_8,175,5,42,127,1031749896
1910,22,Ticks_Phase_8,176,1,48,63,1032540604
1910,22,Ticks_Phase_8,177,5,42,127,1032549756
1910,22,Ticks_Phase_8,178,1,48,57,1033346296
1910,22,Ticks_Phase_8,179,5,42,127,1033349616
1910,22,Ticks_Phase_8,180,1,48,87,1034135312
1910,22,Ticks_Phase_8,181,5,42,127,1034150228
1910,22,Ticks_Phase_8,182,1,48,90,1034920160
1910,22,Ticks_Phase_8,183,5,42,127,1034950260
1910,22,Ticks_Phase_8,184,1,48,90,1035726240
1910,22,Ticks_Phase_8,185,5,42,127,1035749676
1910,22,Ticks_Phase_8,186,1,48,89,1036540020
1910,22,Ticks_Phase_8,187,5,42,127,1036549464
1910,22,Ticks_Phase_8,188,5,42,127,1037350228
1910,22,Ticks_Phase_8,189,1,48,97,1037355804
1910,22,Ticks_Phase_8,190,5,42,127,1038150240
1910,22,Ticks_Phase_8,191,1,48,86,1038154848
1910,22,Ticks_Phase_8,192,5,42,127,1038870032
1910,22,Ticks_Phase_8,193,1,48,86,1038938348
1910,22,Ticks_Phase_8,194,1,48,75,1039650128
1910,22,Ticks_Phase_8,195,5,42,127,1039669596
1910,22,Ticks_Phase_8,196,1,48,81,1040429804
1910,22,Ticks_Phase_8,197,5,42,127,1040470352
1910,22,Ticks_Phase_8,198,1,48,74,1041248288
1910,22,Ticks_Phase_8,199,5,42,127,1041270068
1910,22,Ticks_Phase_8,200,1,48,68,1042058016
1910,22,Ticks_Phase_8,201,5,42,127,1042069780
1910,22,Ticks_Phase_8,202,1,48,78,1042834916
1910,22,Ticks_Phase_8,203,5,42,127,1042869888
1910,22,Ticks_Phase_8,204,1,48,84,1043644000
1910,22,Ticks_Phase_8,205,5,42,127,1043670348
1910,22,Ticks_Phase_8,206,1,48,82,1044444684
1910,22,Ticks_Phase_8,207,5,42,127,1044469988
1910,22,Ticks_Phase_8,208,1,48,79,1045268800
1910,22,Ticks_Phase_8,209,5,42,127,1045270672
1910,22,Ticks_Phase_8,210,5,42,127,1046069792
1910,22,Ticks_Phase_8,211,1,48,95,1046071356
1910,22,Ticks_Phase_8,212,5,42,127,1046870324
1910,22,Ticks_Phase_8,213,1,48,85,1046897732
1910,22,Ticks_Phase_8,214,1,48,74,1047669284
1910,22,Ticks_Phase_8,215,5,42,127,1047671004
1910,22,Ticks_Phase_8,216,1,48,64,1048447056
1910,22,Ticks_Phase_8,217,5,42,127,1048469744
1910,22,Ticks_Phase_8,218,1,48,103,1049235704
1910,22,Ticks_Phase_8,219,5,42,127,1049269556
1910,22,Ticks_Phase_8,220,1,48,86,1050058696
1910,22,Ticks_Phase_8,221,5,42,127,1050070388
1910,22,Ticks_Phase_8,222,1,48,88,1050852428
1910,22,Ticks_Phase_8,223,5,42,127,1050870100
1910,22,Ticks_Phase_8,224,5,42,127,1051669968
1910,22,Ticks_Phase_8,225,1,48,95,1051670932
1910,22,Ticks_Phase_8,226,1,48,97,1052454092
1910,22,Ticks_Phase_8,227,5,42,127,1052549656
1910,22,Ticks_Phase_8,228,1,48,99,1053292308
1910,22,Ticks_Phase_8,229,5,42,127,1053350500
1910,22,Ticks_Phase_8,230,1,48,96,1054131820
1910,22,Ticks_Phase_8,231,5,42,127,1054149944
1910,22,Ticks_Phase_8,232,1,48,95,1054944316
1910,22,Ticks_Phase_8,233,5,42,127,1054949728
1910,22,Ticks_Phase_8,234,1,48,90,1055729756
1910,22,Ticks_Phase_8,235,5,42,127,1055749444
1910,22,Ticks_Phase_8,236,5,42,127,1056550208
1910,22,Ticks_Phase_8,237,1,48,80,1056551692
1910,22,Ticks_Phase_8,238,5,42,127,1057349920
1910,22,Ticks_Phase_8,239,1,48,70,1057368368
1910,22,Ticks_Phase_8,240,1,48,85,1058140552
1910,22,Ticks_Phase_8,241,5,42,127,1058149700
1910,22,Ticks_Phase_8,242,1,48,81,1058945936
1910,22,Ticks_Phase_8,243,5,42,127,1058949564
1910,22,Ticks_Phase_8,244,1,48,67,1059746176
1910,22,Ticks_Phase_8,245,5,42,127,1059750324
1910,22,Ticks_Phase_8,246,1,48,73,1060550436
1910,22,Ticks_Phase_8,247,5,42,127,1060552000
1910,22,Ticks_Phase_8,248,5,42,127,1061349856
1910,22,Ticks_Phase_8,249,1,48,72,1061367844
1910,22,Ticks_Phase_8,250,1,48,73,1062143176
1910,22,Ticks_Phase_8,251,5,42,127,1062149336
1910,22,Ticks_Phase_8,252,5,42,127,1062950176
1910,22,Ticks_Phase_8,253,1,48,80,1062954184
1910,22,Ticks_Phase_8,254,1,48,74,1063749208
1910,22,Ticks_Phase_8,255,5,42,127,1063751000
1910,22,Ticks_Phase_8,256,1,48,70,1064521756
1910,22,Ticks_Phase_8,257,5,42,127,1064549892
1910,22,Ticks_Phase_8,258,5,42,127,1065349464
1910,22,Ticks_Phase_8,259,1,48,59,1065354668
1910,22,Ticks_Phase_8,260,1,48,83,1066145248
1910,22,Ticks_Phase_8,261,5,42,127,1066309992
1910,22,Ticks_Phase_8,262,1,48,78,1067092200
1910,22,Ticks_Phase_8,263,5,42,127,1067109724
1910,22,Ticks_Phase_8,264,5,42,127,1067909588
1910,22,Ticks_Phase_8,265,1,48,73,1067973660
1910,22,Ticks_Phase_8,266,5,42,127,1068710200
1910,22,Ticks_Phase_8,267,1,48,80,1068767748
1910,22,Ticks_Phase_8,268,5,42,127,1069510060
1910,22,Ticks_Phase_8,269,1,48,73,1069540312
1910,22,Ticks_Phase_8,270,5,42,127,1070309700
1910,22,Ticks_Phase_8,271,1,48,75,1070340328
1910,22,Ticks_Phase_8,272,5,42,127,1071109636
1910,22,Ticks_Phase_8,273,1,48,74,1071148640
1910,22,Ticks_Phase_8,274,5,42,127,1071910244
1910,22,Ticks_Phase_8,275,1,48,65,1071923300
1910,22,Ticks_Phase_8,276,1,48,73,1072690036
1910,22,Ticks_Phase_8,277,5,42,127,1072709876
1910,22,Ticks_Phase_8,278,1,48,67,1073438612
1910,22,Ticks_Phase_8,279,5,42,127,1073509736
1910,22,Ticks_Phase_8,280,1,48,78,1074298508
1910,22,Ticks_Phase_8,281,5,42,127,1074309524
1910,22,Ticks_Phase_8,282,5,42,127,1075110364
1910,22,Ticks_Phase_8,283,1,48,75,1075117624
1910,22,Ticks_Phase_8,284,1,48,76,1075865848
1910,22,Ticks_Phase_8,285,5,42,127,1075909872
1910,22,Ticks_Phase_8,286,1,48,73,1076697376
1910,22,Ticks_Phase_8,287,5,42,127,1076709732
1910,22,Ticks_Phase_8,288,1,48,66,1077505152
1910,22,Ticks_Phase_8,289,5,42,127,1077509372
1910,22,Ticks_Phase_8,290,5,42,127,1078310360
1910,22,Ticks_Phase_8,291,1,48,70,1078325432
1910,22,Ticks_Phase_8,292,1,48,75,1079098004
1910,22,Ticks_Phase_8,293,5,42,127,1079110140
1910,22,Ticks_Phase_8,294,5,42,127,1079909636
1910,22,Ticks_Phase_8,295,1,48,92,1079921724
1910,22,Ticks_Phase_8,296,5,42,127,1080709424
1910,22,Ticks_Phase_8,297,1,48,78,1080729064
1910,22,Ticks_Phase_8,298,5,42,127,1081349592
1910,22,Ticks_Phase_8,299,1,48,75,1081496020
1910,22,Ticks_Phase_8,300,5,42,127,1082150204
1910,22,Ticks_Phase_8,301,1,48,65,1082171112
1910,22,Ticks_Phase_8,302,1,48,71,1082881696
1910,22,Ticks_Phase_8,303,5,42,127,1082950056
1910,22,Ticks_Phase_8,304,1,48,71,1083726036
1910,22,Ticks_Phase_8,305,5,42,127,1083749700
1910,22,Ticks_Phase_8,306,1,48,80,1084533376
1910,22,Ticks_Phase_8,307,5,42,127,1084549412
1910,22,Ticks_Phase_8,308,5,42,127,1085350324
1910,22,Ticks_Phase_8,309,1,48,86,1085359276
1910,22,Ticks_Phase_8,310,5,42,127,1086149964
1910,22,Ticks_Phase_8,311,1,48,83,1086152928
1910,22,Ticks_Phase_8,312,1,48,76,1086928040
1910,22,Ticks_Phase_8,313,5,42,127,1086949816
1910,22,Ticks_Phase_8,314,1,48,76,1087718256
1910,22,Ticks_Phase_8,315,5,42,127,1087749384
1910,22,Ticks_Phase_8,316,5,42,127,1088550220
1910,22,Ticks_Phase_8,317,1,48,70,1088560960
1910,22,Ticks_Phase_8,318,5,42,127,1089349932
1910,22,Ticks_Phase_8,319,1,48,75,1089381304
1910,22,Ticks_Phase_8,320,5,42,127,1090149648
1910,22,Ticks_Phase_8,321,1,48,85,1090174512
1910,22,Ticks_Phase_8,322,1,48,83,1090930556
1910,22,Ticks_Phase_8,323,5,42,127,1090949648
1910,22,Ticks_Phase_8,324,1,48,77,1091725404
1910,22,Ticks_Phase_8,325,5,42,127,1091750652
1910,22,Ticks_Phase_8,326,1,48,86,1092537320
1910,22,Ticks_Phase_8,327,5,42,127,1092549920
1910,22,Ticks_Phase_8,328,5,42,127,1093349640
1910,22,Ticks_Phase_8,329,1,48,106,1093352756
1910,22,Ticks_Phase_8,330,1,48,87,1094127940
1910,22,Ticks_Phase_8,331,5,42,127,1094149720
1910,22,Ticks_Phase_8,332,5,42,127,1094950188
1910,22,Ticks_Phase_8,333,1,48,84,1094954640
1910,22,Ticks_Phase_8,334,5,42,127,1095750048
1910,22,Ticks_Phase_8,335,1,48,91,1095788608
1910,22,Ticks_Phase_8,336,5,42,127,1096549612
1910,22,Ticks_Phase_8,0,9999,9999,9999,961347708
1910,22,Ticks_Phase_8,1,9999,9999,9999,962147440
1910,22,Ticks_Phase_8,2,9999,9999,9999,962947168
1910,22,Ticks_Phase_8,3,9999,9999,9999,963747904
1910,22,Ticks_Phase_8,4,9999,9999,9999,964547648
1910,22,Ticks_Phase_8,5,9999,9999,9999,965347428
1910,22,Ticks_Phase_8,6,9999,9999,9999,966147180
1910,22,Ticks_Phase_8,7,9999,9999,9999,966947908
1910,22,Ticks_Phase_8,8,9999,9999,9999,967747640
1910,22,Ticks_Phase_8,9,9999,9999,9999,968547404
1910,22,Ticks_Phase_8,10,9999,9999,9999,969347192
1910,22,Ticks_Phase_8,11,9999,9999,9999,970147956
1910,22,Ticks_Phase_8,12,9999,9999,9999,970947696
1910,22,Ticks_Phase_8,13,9999,9999,9999,971747404
1910,22,Ticks_Phase_8,14,9999,9999,9999,972547196
1910,22,Ticks_Phase_8,15,9999,9999,9999,973347956
1910,22,Ticks_Phase_8,16,9999,9999,9999,974147672
1910,22,Ticks_Phase_8,17,9999,9999,9999,974947452
1910,22,Ticks_Phase_8,18,9999,9999,9999,975747168
1910,22,Ticks_Phase_8,19,9999,9999,9999,976547928
1910,22,Ticks_Phase_8,20,9999,9999,9999,977347668
1910,22,Ticks_Phase_8,21,9999,9999,9999,978147384
1910,22,Ticks_Phase_8,22,9999,9999,9999,978947168
1910,22,Ticks_Phase_8,23,9999,9999,9999,979747928
1910,22,Ticks_Phase_8,24,9999,9999,9999,980547708
1910,22,Ticks_Phase_8,25,9999,9999,9999,981347424
1910,22,Ticks_Phase_8,26,9999,9999,9999,982147136
1910,22,Ticks_Phase_8,27,9999,9999,9999,982947896
1910,22,Ticks_Phase_8,28,9999,9999,9999,983747708
1910,22,Ticks_Phase_8,29,9999,9999,9999,984547420
1910,22,Ticks_Phase_8,30,9999,9999,9999,985327700
1910,22,Ticks_Phase_8,31,9999,9999,9999,986127416
1910,22,Ticks_Phase_8,32,9999,9999,9999,986927200
1910,22,Ticks_Phase_8,33,9999,9999,9999,987727956
1910,22,Ticks_Phase_8,34,9999,9999,9999,988527740
1910,22,Ticks_Phase_8,35,9999,9999,9999,989327456
1910,22,Ticks_Phase_8,36,9999,9999,9999,990127200
1910,22,Ticks_Phase_8,37,9999,9999,9999,990927948
1910,22,Ticks_Phase_8,38,9999,9999,9999,991727744
1910,22,Ticks_Phase_8,39,9999,9999,9999,992527448
1910,22,Ticks_Phase_8,40,9999,9999,9999,993327164
1910,22,Ticks_Phase_8,41,9999,9999,9999,994127996
1910,22,Ticks_Phase_8,42,9999,9999,9999,994927672
1910,22,Ticks_Phase_8,43,9999,9999,9999,995727428
1910,22,Ticks_Phase_8,44,9999,9999,9999,996527168
1910,22,Ticks_Phase_8,45,9999,9999,9999,997328000
1910,22,Ticks_Phase_8,46,9999,9999,9999,998127668
1910,22,Ticks_Phase_8,47,9999,9999,9999,998927420
1910,22,Ticks_Phase_8,48,9999,9999,9999,999747692
1910,22,Ticks_Phase_8,49,9999,9999,9999,1000547408
1910,22,Ticks_Phase_8,50,9999,9999,9999,1001347196
1910,22,Ticks_Phase_8,51,9999,9999,9999,1002147956
1910,22,Ticks_Phase_8,52,9999,9999,9999,1002947692
1910,22,Ticks_Phase_8,53,9999,9999,9999,1003747404
1910,22,Ticks_Phase_8,54,9999,9999,9999,1004547192
1910,22,Ticks_Phase_8,55,9999,9999,9999,1005347944
1910,22,Ticks_Phase_8,56,9999,9999,9999,1006147656
1910,22,Ticks_Phase_8,57,9999,9999,9999,1006947444
1910,22,Ticks_Phase_8,58,9999,9999,9999,1007747156
1910,22,Ticks_Phase_8,59,9999,9999,9999,1008547916
1910,22,Ticks_Phase_8,60,9999,9999,9999,1009347656
1910,22,Ticks_Phase_8,61,9999,9999,9999,1010147444
1910,22,Ticks_Phase_8,62,9999,9999,9999,1010947156
1910,22,Ticks_Phase_8,63,9999,9999,9999,1011747916
1910,22,Ticks_Phase_8,64,9999,9999,9999,1012587628
1910,22,Ticks_Phase_8,65,9999,9999,9999,1013387340
1910,22,Ticks_Phase_8,66,9999,9999,9999,1014187128
1910,22,Ticks_Phase_8,67,9999,9999,9999,1014987844
1910,22,Ticks_Phase_8,68,9999,9999,9999,1015787632
1910,22,Ticks_Phase_8,69,9999,9999,9999,1016587340
1910,22,Ticks_Phase_8,70,9999,9999,9999,1017387124
1910,22,Ticks_Phase_8,71,9999,9999,9999,1018187892
1910,22,Ticks_Phase_8,72,9999,9999,9999,1018987600
1910,22,Ticks_Phase_8,73,9999,9999,9999,1019787388
1910,22,Ticks_Phase_8,74,9999,9999,9999,1020587100
1910,22,Ticks_Phase_8,75,9999,9999,9999,1021387884
1910,22,Ticks_Phase_8,76,9999,9999,9999,1022187600
1910,22,Ticks_Phase_8,77,9999,9999,9999,1022987388
1910,22,Ticks_Phase_8,78,9999,9999,9999,1023787100
1910,22,Ticks_Phase_8,79,9999,9999,9999,1024587852
1910,22,Ticks_Phase_8,80,9999,9999,9999,1025387640
1910,22,Ticks_Phase_8,81,9999,9999,9999,1026147436
1910,22,Ticks_Phase_8,82,9999,9999,9999,1026947144
1910,22,Ticks_Phase_8,83,9999,9999,9999,1027747900
1910,22,Ticks_Phase_8,84,9999,9999,9999,1028547640
1910,22,Ticks_Phase_8,85,9999,9999,9999,1029347428
1910,22,Ticks_Phase_8,86,9999,9999,9999,1030147140
1910,22,Ticks_Phase_8,87,9999,9999,9999,1030947896
1910,22,Ticks_Phase_8,88,9999,9999,9999,1031747684
1910,22,Ticks_Phase_8,89,9999,9999,9999,1032547396
1910,22,Ticks_Phase_8,90,9999,9999,9999,1033347184
1910,22,Ticks_Phase_8,91,9999,9999,9999,1034147944
1910,22,Ticks_Phase_8,92,9999,9999,9999,1034947680
1910,22,Ticks_Phase_8,93,9999,9999,9999,1035747396
1910,22,Ticks_Phase_8,94,9999,9999,9999,1036547180
1910,22,Ticks_Phase_8,95,9999,9999,9999,1037347944
1910,22,Ticks_Phase_8,96,9999,9999,9999,1038147660
1910,22,Ticks_Phase_8,97,9999,9999,9999,1038867528
1910,22,Ticks_Phase_8,98,9999,9999,9999,1039667308
1910,22,Ticks_Phase_8,99,9999,9999,9999,1040468068
1910,22,Ticks_Phase_8,100,9999,9999,9999,1041267784
1910,22,Ticks_Phase_8,101,9999,9999,9999,1042067568
1910,22,Ticks_Phase_8,102,9999,9999,9999,1042867308
1910,22,Ticks_Phase_8,103,9999,9999,9999,1043668064
1910,22,Ticks_Phase_8,104,9999,9999,9999,1044467780
1910,22,Ticks_Phase_8,105,9999,9999,9999,1045267572
1910,22,Ticks_Phase_8,106,9999,9999,9999,1046067284
1910,22,Ticks_Phase_8,107,9999,9999,9999,1046868044
1910,22,Ticks_Phase_8,108,9999,9999,9999,1047667828
1910,22,Ticks_Phase_8,109,9999,9999,9999,1048467536
1910,22,Ticks_Phase_8,110,9999,9999,9999,1049267272
1910,22,Ticks_Phase_8,111,9999,9999,9999,1050068028
1910,22,Ticks_Phase_8,112,9999,9999,9999,1050867816
1910,22,Ticks_Phase_8,113,9999,9999,9999,1051667536
1910,22,Ticks_Phase_8,114,9999,9999,9999,1052547180
1910,22,Ticks_Phase_8,115,9999,9999,9999,1053347924
1910,22,Ticks_Phase_8,116,9999,9999,9999,1054147660
1910,22,Ticks_Phase_8,117,9999,9999,9999,1054947448
1910,22,Ticks_Phase_8,118,9999,9999,9999,1055747160
1910,22,Ticks_Phase_8,119,9999,9999,9999,1056547924
1910,22,Ticks_Phase_8,120,9999,9999,9999,1057347636
1910,22,Ticks_Phase_8,121,9999,9999,9999,1058147420
1910,22,Ticks_Phase_8,122,9999,9999,9999,1058947132
1910,22,Ticks_Phase_8,123,9999,9999,9999,1059747964
1910,22,Ticks_Phase_8,124,9999,9999,9999,1060547708
1910,22,Ticks_Phase_8,125,9999,9999,9999,1061347424
1910,22,Ticks_Phase_8,126,9999,9999,9999,1062147128
1910,22,Ticks_Phase_8,127,9999,9999,9999,1062947968
1910,22,Ticks_Phase_8,128,9999,9999,9999,1063747680
1910,22,Ticks_Phase_8,129,9999,9999,9999,1064547388
1910,22,Ticks_Phase_8,130,9999,9999,9999,1065347180
1910,22,Ticks_Phase_8,131,9999,9999,9999,1066307708
1910,22,Ticks_Phase_8,132,9999,9999,9999,1067107440
1910,22,Ticks_Phase_8,133,9999,9999,9999,1067907160
1910,22,Ticks_Phase_8,134,9999,9999,9999,1068707916
1910,22,Ticks_Phase_8,135,9999,9999,9999,1069507704
1910,22,Ticks_Phase_8,136,9999,9999,9999,1070307416
1910,22,Ticks_Phase_8,137,9999,9999,9999,1071107128
1910,22,Ticks_Phase_8,138,9999,9999,9999,1071907960
1910,22,Ticks_Phase_8,139,9999,9999,9999,1072707668
1910,22,Ticks_Phase_8,140,9999,9999,9999,1073507456
1910,22,Ticks_Phase_8,141,9999,9999,9999,1074307168
1910,22,Ticks_Phase_8,142,9999,9999,9999,1075107932
1910,22,Ticks_Phase_8,143,9999,9999,9999,1075907664
1910,22,Ticks_Phase_8,144,9999,9999,9999,1076707448
1910,22,Ticks_Phase_8,145,9999,9999,9999,1077507164
1910,22,Ticks_Phase_8,146,9999,9999,9999,1078307928
1910,22,Ticks_Phase_8,147,9999,9999,9999,1079107708
1910,22,Ticks_Phase_8,148,9999,9999,9999,1079907428
1910,22,Ticks_Phase_8,149,9999,9999,9999,1080707140
1910,22,Ticks_Phase_8,150,9999,9999,9999,1081347160
1910,22,Ticks_Phase_8,151,9999,9999,9999,1082147920
1910,22,Ticks_Phase_8,152,9999,9999,9999,1082947700
1910,22,Ticks_Phase_8,153,9999,9999,9999,1083747412
1910,22,Ticks_Phase_8,154,9999,9999,9999,1084547128
1910,22,Ticks_Phase_8,155,9999,9999,9999,1085347968
1910,22,Ticks_Phase_8,156,9999,9999,9999,1086147680
1910,22,Ticks_Phase_8,157,9999,9999,9999,1086947388
1910,22,Ticks_Phase_8,158,9999,9999,9999,1087747176
1910,22,Ticks_Phase_8,159,9999,9999,9999,1088547936
1910,22,Ticks_Phase_8,160,9999,9999,9999,1089347652
1910,22,Ticks_Phase_8,161,9999,9999,9999,1090147440
1910,22,Ticks_Phase_8,162,9999,9999,9999,1090947144
1910,22,Ticks_Phase_8,163,9999,9999,9999,1091747900
1910,22,Ticks_Phase_8,164,9999,9999,9999,1092547640
1910,22,Ticks_Phase_8,165,9999,9999,9999,1093347432
1910,22,Ticks_Phase_8,166,9999,9999,9999,1094147140
1910,22,Ticks_Phase_8,167,9999,9999,9999,1094947904
1910,22,Ticks_Phase_8,168,9999,9999,9999,1095747692
1910,22,Ticks_Phase_8,169,9999,9999,9999,1096547404
1911,25,Jits_Pract_5,0,5,56,103,1160066372
1911,25,Jits_Pract_5,1,5,63,98,1160069396
1911,25,Jits_Pract_5,2,5,80,127,1160072736
1911,25,Jits_Pract_5,0,5,56,103,1160566468
1911,25,Jits_Pract_5,1,5,63,98,1160569488
1911,25,Jits_Pract_5,2,5,80,127,1160572528
1911,25,Jits_Pract_5,0,5,56,103,1161065828
1911,25,Jits_Pract_5,1,5,80,127,1161076232
1911,25,Jits_Pract_5,2,1,48,70,1161083084
1911,25,Jits_Pract_5,3,5,63,98,1161095680
1911,25,Jits_Pract_5,0,5,63,98,1161516548
1911,25,Jits_Pract_5,1,5,80,127,1161545952
1911,25,Jits_Pract_5,2,1,48,65,1161551084
1911,25,Jits_Pract_5,3,5,56,103,1161556568
1911,25,Jits_Pract_5,0,1,48,77,1161995788
1911,25,Jits_Pract_5,1,5,80,127,1162085792
1911,25,Jits_Pract_5,2,5,56,103,1162096032
1911,25,Jits_Pract_5,3,5,63,98,1162125656
1911,25,Jits_Pract_5,0,5,63,98,1162576292
1911,25,Jits_Pract_5,1,1,48,104,1162579408
1911,25,Jits_Pract_5,2,5,56,103,1162605988
1911,25,Jits_Pract_5,3,5,80,127,1162616464
1911,25,Jits_Pract_5,0,5,56,103,1163025812
1911,25,Jits_Pract_5,1,5,63,98,1163076228
1911,25,Jits_Pract_5,2,5,80,127,1163096436
1911,25,Jits_Pract_5,3,1,48,101,1163127896
1911,25,Jits_Pract_5,0,5,80,127,1163525604
1911,25,Jits_Pract_5,1,5,63,98,1163575800
1911,25,Jits_Pract_5,2,1,48,91,1163600524
1911,25,Jits_Pract_5,3,5,56,103,1163615812
1911,25,Jits_Pract_5,0,5,56,103,1164026428
1911,25,Jits_Pract_5,1,5,63,98,1164055984
1911,25,Jits_Pract_5,2,1,48,89,1164100976
1911,25,Jits_Pract_5,3,5,80,127,1164125540
1911,25,Jits_Pract_5,0,5,56,103,1164525912
1911,25,Jits_Pract_5,1,1,48,97,1164548024
1911,25,Jits_Pract_5,2,5,80,127,1164586272
1911,25,Jits_Pract_5,3,5,63,98,1164616268
1911,25,Jits_Pract_5,0,5,56,103,1165035940
1911,25,Jits_Pract_5,1,5,63,98,1165046268
1911,25,Jits_Pract_5,2,1,48,99,1165061868
1911,25,Jits_Pract_5,3,5,80,127,1165086136
1911,25,Jits_Pract_5,0,5,63,98,1165526372
1911,25,Jits_Pract_5,1,1,48,105,1165546464
1911,25,Jits_Pract_5,2,5,80,127,1165606328
1911,25,Jits_Pract_5,3,5,56,103,1165615388
1911,25,Jits_Pract_5,0,1,48,94,1166051916
1911,25,Jits_Pract_5,1,5,63,98,1166085460
1911,25,Jits_Pract_5,2,5,56,103,1166125552
1911,25,Jits_Pract_5,3,5,80,127,1166128468
1911,25,Jits_Pract_5,0,5,56,103,1166546404
1911,25,Jits_Pract_5,1,1,48,90,1166554188
1911,25,Jits_Pract_5,2,5,63,98,1166556208
1911,25,Jits_Pract_5,3,5,80,127,1166595480
1911,25,Jits_Pract_5,0,1,48,85,1167035932
1911,25,Jits_Pract_5,1,5,56,103,1167037596
1911,25,Jits_Pract_5,2,5,63,98,1167040256
1911,25,Jits_Pract_5,3,5,80,127,1167056348
1911,25,Jits_Pract_5,0,9999,9999,9999,1160313920
1911,25,Jits_Pract_5,1,9999,9999,9999,1160813640
1911,25,Jits_Pract_5,2,9999,9999,9999,1161313360
1911,25,Jits_Pract_5,3,9999,9999,9999,1161814108
1911,25,Jits_Pract_5,4,9999,9999,9999,1162324052
1911,25,Jits_Pract_5,5,9999,9999,9999,1162823748
1911,25,Jits_Pract_5,6,9999,9999,9999,1163323452
1911,25,Jits_Pract_5,7,9999,9999,9999,1163823168
1911,25,Jits_Pract_5,8,9999,9999,9999,1164323920
1911,25,Jits_Pract_5,9,9999,9999,9999,1164823628
1911,25,Jits_Pract_5,10,9999,9999,9999,1165323332
1911,25,Jits_Pract_5,11,9999,9999,9999,1165824084
1911,25,Jits_Pract_5,12,9999,9999,9999,1166334032
1911,25,Jits_Pract_5,13,9999,9999,9999,1166833720
1911,25,Jits_Pract_5,14,9999,9999,9999,1167333484
1912,24,Jits_Pract_8,0,5,56,103,1177186640
1912,24,Jits_Pract_8,1,5,63,98,1177189804
1912,24,Jits_Pract_8,2,5,80,127,1177192996
1912,24,Jits_Pract_8,0,5,56,103,1177986664
1912,24,Jits_Pract_8,1,5,63,98,1177989760
1912,24,Jits_Pract_8,2,5,80,127,1177992876
1912,24,Jits_Pract_8,3,1,48,75,1178151872
1912,24,Jits_Pract_8,0,5,80,127,1178726840
1912,24,Jits_Pract_8,1,1,48,63,1178808888
1912,24,Jits_Pract_8,2,5,63,98,1178816844
1912,24,Jits_Pract_8,3,5,56,103,1178827020
1912,24,Jits_Pract_8,0,5,56,103,1179546900
1912,24,Jits_Pract_8,1,5,63,98,1179557104
1912,24,Jits_Pract_8,2,1,48,69,1179630072
1912,24,Jits_Pract_8,3,5,80,127,1179647596
1912,24,Jits_Pract_8,0,5,63,98,1180317144
1912,24,Jits_Pract_8,1,5,80,127,1180346868
1912,24,Jits_Pract_8,2,1,48,63,1180363140
1912,24,Jits_Pract_8,3,5,56,103,1180376488
1912,24,Jits_Pract_8,0,1,48,87,1181108456
1912,24,Jits_Pract_8,1,5,56,103,1181116784
1912,24,Jits_Pract_8,2,5,80,127,1181217148
1912,24,Jits_Pract_8,3,5,63,98,1181267488
1912,24,Jits_Pract_8,0,1,48,87,1181879732
1912,24,Jits_Pract_8,1,5,56,103,1181916484
1912,24,Jits_Pract_8,2,5,80,127,1181966604
1912,24,Jits_Pract_8,3,5,63,98,1182006608
1912,24,Jits_Pract_8,0,1,48,97,1182700444
1912,24,Jits_Pract_8,1,5,80,127,1182746924
1912,24,Jits_Pract_8,2,5,63,98,1182776552
1912,24,Jits_Pract_8,3,5,56,103,1182847440
1912,24,Jits_Pract_8,0,1,48,96,1183547348
1912,24,Jits_Pract_8,1,5,63,98,1183576472
1912,24,Jits_Pract_8,2,5,56,103,1183607292
1912,24,Jits_Pract_8,3,5,80,127,1183666472
1912,24,Jits_Pract_8,0,5,56,103,1184316724
1912,24,Jits_Pract_8,1,5,80,127,1184319708
1912,24,Jits_Pract_8,2,1,48,101,1184358352
1912,24,Jits_Pract_8,3,5,63,98,1184436560
1912,24,Jits_Pract_8,0,1,48,79,1185136152
1912,24,Jits_Pract_8,1,5,56,103,1185197384
1912,24,Jits_Pract_8,2,5,80,127,1185237316
1912,24,Jits_Pract_8,3,5,63,98,1185246676
1912,24,Jits_Pract_8,0,5,56,103,1185957380
1912,24,Jits_Pract_8,1,1,48,95,1185969252
1912,24,Jits_Pract_8,2,5,80,127,1185976756
1912,24,Jits_Pract_8,3,5,63,98,1186056636
1912,24,Jits_Pract_8,0,5,80,127,1186746928
1912,24,Jits_Pract_8,1,1,48,98,1186795896
1912,24,Jits_Pract_8,2,5,56,103,1186847076
1912,24,Jits_Pract_8,3,5,63,98,1186857180
1912,24,Jits_Pract_8,0,5,63,98,1187516804
1912,24,Jits_Pract_8,1,5,80,127,1187577320
1912,24,Jits_Pract_8,2,5,56,103,1187586380
1912,24,Jits_Pract_8,3,1,48,92,1187614312
1912,24,Jits_Pract_8,0,5,56,103,1188316504
1912,24,Jits_Pract_8,1,1,48,90,1188365020
1912,24,Jits_Pract_8,2,5,63,98,1188387180
1912,24,Jits_Pract_8,3,5,80,127,1188390388
1912,24,Jits_Pract_8,0,9999,9999,9999,1177584748
1912,24,Jits_Pract_8,1,9999,9999,9999,1178384456
1912,24,Jits_Pract_8,2,9999,9999,9999,1179184248
1912,24,Jits_Pract_8,3,9999,9999,9999,1179985004
1912,24,Jits_Pract_8,4,9999,9999,9999,1180784716
1912,24,Jits_Pract_8,5,9999,9999,9999,1181584492
1912,24,Jits_Pract_8,6,9999,9999,9999,1182384216
1912,24,Jits_Pract_8,7,9999,9999,9999,1183184964
1912,24,Jits_Pract_8,8,9999,9999,9999,1183984748
1912,24,Jits_Pract_8,9,9999,9999,9999,1184784436
1912,24,Jits_Pract_8,10,9999,9999,9999,1185584248
1912,24,Jits_Pract_8,11,9999,9999,9999,1186384992
1912,24,Jits_Pract_8,12,9999,9999,9999,1187184716
1912,24,Jits_Pract_8,13,9999,9999,9999,1187984500
1912,24,Jits_Pract_8,14,9999,9999,9999,1188784216
1913,16,Jits_ISO_5,0,5,56,103,1214629240
1913,16,Jits_ISO_5,1,5,63,98,1214632408
1913,16,Jits_ISO_5,2,5,80,127,1214635448
1913,16,Jits_ISO_5,0,5,56,103,1215128928
1913,16,Jits_ISO_5,1,5,63,98,1215132272
1913,16,Jits_ISO_5,2,5,80,127,1215135384
1913,16,Jits_ISO_5,3,1,48,85,1215319120
1913,16,Jits_ISO_5,0,5,56,103,1215628824
1913,16,Jits_ISO_5,1,5,80,127,1215638852
1913,16,Jits_ISO_5,2,5,63,98,1215659380
1913,16,Jits_ISO_5,3,1,48,102,1215663760
1913,16,Jits_ISO_5,0,5,63,98,1216079296
1913,16,Jits_ISO_5,1,5,80,127,1216108848
1913,16,Jits_ISO_5,2,5,56,103,1216119248
1913,16,Jits_ISO_5,3,1,48,84,1216133504
1913,16,Jits_ISO_5,0,1,48,57,1216592004
1913,16,Jits_ISO_5,1,1,38,18,1216599396
1913,16,Jits_ISO_5,2,5,80,127,1216639432
1913,16,Jits_ISO_5,3,5,56,103,1216648788
1913,16,Jits_ISO_5,4,5,63,98,1216679408
1913,16,Jits_ISO_5,0,1,48,86,1217125832
1913,16,Jits_ISO_5,1,5,63,98,1217128864
1913,16,Jits_ISO_5,2,5,56,103,1217158560
1913,16,Jits_ISO_5,3,5,80,127,1217168740
1913,16,Jits_ISO_5,0,5,56,103,1217579540
1913,16,Jits_ISO_5,1,5,63,98,1217628688
1913,16,Jits_ISO_5,2,5,80,127,1217648964
1913,16,Jits_ISO_5,3,1,48,81,1217651700
1913,16,Jits_ISO_5,0,5,80,127,1218079064
1913,16,Jits_ISO_5,1,1,48,98,1218115004
1913,16,Jits_ISO_5,2,5,63,98,1218129248
1913,16,Jits_ISO_5,3,5,56,103,1218169412
1913,16,Jits_ISO_5,0,5,56,103,1218578812
1913,16,Jits_ISO_5,1,5,63,98,1218608660
1913,16,Jits_ISO_5,2,1,48,82,1218624856
1913,16,Jits_ISO_5,3,5,80,127,1218679036
1913,16,Jits_ISO_5,0,5,56,103,1219078632
1913,16,Jits_ISO_5,1,1,48,95,1219097160
1913,16,Jits_ISO_5,2,5,80,127,1219138988
1913,16,Jits_ISO_5,3,5,63,98,1219168760
1913,16,Jits_ISO_5,0,1,48,90,1219588024
1913,16,Jits_ISO_5,1,5,56,103,1219589812
1913,16,Jits_ISO_5,2,5,63,98,1219598572
1913,16,Jits_ISO_5,3,5,80,127,1219638516
1913,16,Jits_ISO_5,0,1,48,89,1220071788
1913,16,Jits_ISO_5,1,5,63,98,1220078924
1913,16,Jits_ISO_5,2,5,80,127,1220158956
1913,16,Jits_ISO_5,3,5,56,103,1220168972
1913,16,Jits_ISO_5,0,1,48,91,1220584980
1913,16,Jits_ISO_5,1,5,63,98,1220628920
1913,16,Jits_ISO_5,2,5,56,103,1220668860
1913,16,Jits_ISO_5,3,5,80,127,1220671848
1913,16,Jits_ISO_5,0,5,56,103,1221088712
1913,16,Jits_ISO_5,1,5,63,98,1221098968
1913,16,Jits_ISO_5,2,1,48,91,1221120776
1913,16,Jits_ISO_5,3,5,80,127,1221138904
1913,16,Jits_ISO_5,0,5,56,103,1221579184
1913,16,Jits_ISO_5,1,5,63,98,1221582392
1913,16,Jits_ISO_5,2,1,48,89,1221589184
1913,16,Jits_ISO_5,3,5,80,127,1221598480
1913,16,Jits_ISO_5,0,1,48,84,1222047032
1913,16,Jits_ISO_5,1,5,80,127,1222089012
1913,16,Jits_ISO_5,2,5,56,103,1222099636
1913,16,Jits_ISO_5,3,5,63,98,1222168884
1913,16,Jits_ISO_5,0,5,63,98,1222578504
1913,16,Jits_ISO_5,1,1,48,86,1222595000
1913,16,Jits_ISO_5,2,5,56,103,1222599220
1913,16,Jits_ISO_5,3,5,80,127,1222679100
1913,16,Jits_ISO_5,0,1,48,77,1223084624
1913,16,Jits_ISO_5,1,5,56,103,1223088476
1913,16,Jits_ISO_5,2,5,80,127,1223128424
1913,16,Jits_ISO_5,3,5,63,98,1223138600
1913,16,Jits_ISO_5,0,5,80,127,1223578988
1913,16,Jits_ISO_5,1,1,48,74,1223586880
1913,16,Jits_ISO_5,2,5,63,98,1223608756
1913,16,Jits_ISO_5,3,5,56,103,1223648552
1913,16,Jits_ISO_5,0,5,56,103,1224099300
1913,16,Jits_ISO_5,1,1,48,81,1224117532
1913,16,Jits_ISO_5,2,5,63,98,1224128848
1913,16,Jits_ISO_5,3,5,80,127,1224179036
1913,16,Jits_ISO_5,0,5,80,127,1224598948
1913,16,Jits_ISO_5,1,1,48,66,1224630288
1913,16,Jits_ISO_5,2,5,56,103,1224638840
1913,16,Jits_ISO_5,3,5,63,98,1224649388
1913,16,Jits_ISO_5,0,5,80,127,1225079252
1913,16,Jits_ISO_5,1,1,48,69,1225119148
1913,16,Jits_ISO_5,2,5,63,98,1225120704
1913,16,Jits_ISO_5,3,5,56,103,1225178532
1913,16,Jits_ISO_5,0,5,56,103,1225578852
1913,16,Jits_ISO_5,1,5,80,127,1225589328
1913,16,Jits_ISO_5,2,1,48,78,1225665376
1913,16,Jits_ISO_5,3,5,63,98,1225669152
1913,16,Jits_ISO_5,0,5,80,127,1226078516
1913,16,Jits_ISO_5,1,5,63,98,1226138956
1913,16,Jits_ISO_5,2,1,48,88,1226149400
1913,16,Jits_ISO_5,3,5,56,103,1226168648
1913,16,Jits_ISO_5,0,5,56,103,1226579288
1913,16,Jits_ISO_5,1,5,80,127,1226638680
1913,16,Jits_ISO_5,2,1,48,77,1226654228
1913,16,Jits_ISO_5,3,5,63,98,1226678568
1913,16,Jits_ISO_5,0,5,56,103,1227129372
1913,16,Jits_ISO_5,1,5,63,98,1227138356
1913,16,Jits_ISO_5,2,5,80,127,1227141712
1913,16,Jits_ISO_5,3,1,48,81,1227166852
1913,16,Jits_ISO_5,0,5,80,127,1227578852
1913,16,Jits_ISO_5,1,1,48,95,1227655404
1913,16,Jits_ISO_5,2,5,63,98,1227668828
1913,16,Jits_ISO_5,3,5,56,103,1227679328
1913,16,Jits_ISO_5,0,5,56,103,1228078588
1913,16,Jits_ISO_5,1,5,63,98,1228081760
1913,16,Jits_ISO_5,2,5,80,127,1228084872
1913,16,Jits_ISO_5,3,1,48,92,1228183340
1913,16,Jits_ISO_5,0,5,80,127,1228598672
1913,16,Jits_ISO_5,1,5,63,98,1228648936
1913,16,Jits_ISO_5,2,1,48,90,1228659456
1913,16,Jits_ISO_5,3,5,56,103,1228678632
1913,16,Jits_ISO_5,0,5,56,103,1229079052
1913,16,Jits_ISO_5,1,5,80,127,1229089456
1913,16,Jits_ISO_5,2,5,63,98,1229158940
1913,16,Jits_ISO_5,3,1,48,86,1229179036
1913,16,Jits_ISO_5,0,5,56,103,1229588896
1913,16,Jits_ISO_5,1,5,63,98,1229609468
1913,16,Jits_ISO_5,2,5,80,127,1229668784
1913,16,Jits_ISO_5,3,1,48,90,1229684008
1913,16,Jits_ISO_5,0,5,80,127,1230079364
1913,16,Jits_ISO_5,1,5,63,98,1230149076
1913,16,Jits_ISO_5,2,5,56,103,1230168308
1913,16,Jits_ISO_5,3,1,48,84,1230178900
1913,16,Jits_ISO_5,0,5,80,127,1230598484
1913,16,Jits_ISO_5,1,5,56,103,1230608740
1913,16,Jits_ISO_5,2,5,63,98,1230619140
1913,16,Jits_ISO_5,3,1,48,88,1230679840
1913,16,Jits_ISO_5,0,5,80,127,1231089028
1913,16,Jits_ISO_5,1,5,56,103,1231108332
1913,16,Jits_ISO_5,2,1,48,74,1231160208
1913,16,Jits_ISO_5,3,5,63,98,1231179304
1913,16,Jits_ISO_5,0,5,56,103,1231599244
1913,16,Jits_ISO_5,1,5,80,127,1231628720
1913,16,Jits_ISO_5,2,5,63,98,1231649072
1913,16,Jits_ISO_5,3,1,48,68,1231662356
1913,16,Jits_ISO_5,0,5,63,98,1232088376
1913,16,Jits_ISO_5,1,1,48,89,1232138764
1913,16,Jits_ISO_5,2,5,56,103,1232149180
1913,16,Jits_ISO_5,3,5,80,127,1232178508
1913,16,Jits_ISO_5,0,5,63,98,1232579052
1913,16,Jits_ISO_5,1,5,80,127,1232582412
1913,16,Jits_ISO_5,2,1,48,91,1232635556
1913,16,Jits_ISO_5,3,5,56,103,1232669096
1913,16,Jits_ISO_5,0,5,56,103,1233099120
1913,16,Jits_ISO_5,1,5,63,98,1233128968
1913,16,Jits_ISO_5,2,1,48,69,1233137776
1913,16,Jits_ISO_5,3,5,80,127,1233168904
1913,16,Jits_ISO_5,0,5,63,98,1233598796
1913,16,Jits_ISO_5,1,1,48,85,1233622324
1913,16,Jits_ISO_5,2,5,56,103,1233638808
1913,16,Jits_ISO_5,3,5,80,127,1233659380
1913,16,Jits_ISO_5,0,5,63,98,1234108996
1913,16,Jits_ISO_5,1,1,48,70,1234118624
1913,16,Jits_ISO_5,2,5,56,103,1234148864
1913,16,Jits_ISO_5,3,5,80,127,1234158892
1913,16,Jits_ISO_5,0,5,80,127,1234589064
1913,16,Jits_ISO_5,1,1,48,71,1234631292
1913,16,Jits_ISO_5,2,5,63,98,1234658844
1913,16,Jits_ISO_5,3,5,56,103,1234679120
1913,16,Jits_ISO_5,0,5,56,103,1235078472
1913,16,Jits_ISO_5,1,5,80,127,1235098996
1913,16,Jits_ISO_5,2,5,63,98,1235138864
1913,16,Jits_ISO_5,3,1,48,90,1235143992
1913,16,Jits_ISO_5,0,5,63,98,1235588608
1913,16,Jits_ISO_5,1,5,80,127,1235608884
1913,16,Jits_ISO_5,2,1,48,76,1235633560
1913,16,Jits_ISO_5,3,5,56,103,1235648996
1913,16,Jits_ISO_5,0,5,63,98,1236089164
1913,16,Jits_ISO_5,1,5,56,103,1236108768
1913,16,Jits_ISO_5,2,5,80,127,1236118944
1913,16,Jits_ISO_5,3,1,48,70,1236133076
1913,16,Jits_ISO_5,0,5,80,127,1236588964
1913,16,Jits_ISO_5,1,5,56,103,1236609244
1913,16,Jits_ISO_5,2,1,48,76,1236622824
1913,16,Jits_ISO_5,3,5,63,98,1236639036
1913,16,Jits_ISO_5,0,1,48,83,1237118452
1913,16,Jits_ISO_5,1,5,56,103,1237159180
1913,16,Jits_ISO_5,2,5,80,127,1237162320
1913,16,Jits_ISO_5,3,5,63,98,1237178936
1913,16,Jits_ISO_5,0,5,63,98,1237579244
1913,16,Jits_ISO_5,1,5,56,103,1237608944
1913,16,Jits_ISO_5,2,1,48,89,1237650724
1913,16,Jits_ISO_5,3,5,80,127,1237669172
1913,16,Jits_ISO_5,0,1,48,81,1238147980
1913,16,Jits_ISO_5,1,1,38,18,1238158540
1913,16,Jits_ISO_5,2,5,63,98,1238160920
1913,16,Jits_ISO_5,3,5,56,103,1238168932
1913,16,Jits_ISO_5,4,5,80,127,1238179136
1913,16,Jits_ISO_5,0,5,56,103,1238609224
1913,16,Jits_ISO_5,1,5,80,127,1238638924
1913,16,Jits_ISO_5,2,5,63,98,1238649252
1913,16,Jits_ISO_5,3,1,48,75,1238660148
1913,16,Jits_ISO_5,0,5,63,98,1239148840
1913,16,Jits_ISO_5,1,1,48,83,1239150472
1913,16,Jits_ISO_5,2,5,56,103,1239159012
1913,16,Jits_ISO_5,3,5,80,127,1239178688
1913,16,Jits_ISO_5,0,5,56,103,1239578868
1913,16,Jits_ISO_5,1,5,63,98,1239639376
1913,16,Jits_ISO_5,2,5,80,127,1239642736
1913,16,Jits_ISO_5,3,1,48,69,1239645776
1913,16,Jits_ISO_5,0,5,80,127,1240099100
1913,16,Jits_ISO_5,1,5,56,103,1240109500
1913,16,Jits_ISO_5,2,1,48,73,1240139764
1913,16,Jits_ISO_5,3,5,63,98,1240179056
1913,16,Jits_ISO_5,0,5,80,127,1240588600
1913,16,Jits_ISO_5,1,1,48,75,1240637192
1913,16,Jits_ISO_5,2,5,56,103,1240659276
1913,16,Jits_ISO_5,3,5,63,98,1240668708
1913,16,Jits_ISO_5,0,5,63,98,1241129184
1913,16,Jits_ISO_5,1,5,56,103,1241138692
1913,16,Jits_ISO_5,2,1,48,77,1241153916
1913,16,Jits_ISO_5,3,5,80,127,1241158884
1913,16,Jits_ISO_5,0,5,80,127,1241578736
1913,16,Jits_ISO_5,1,5,63,98,1241639244
1913,16,Jits_ISO_5,2,1,48,79,1241647900
1913,16,Jits_ISO_5,3,5,56,103,1241679108
1913,16,Jits_ISO_5,0,5,56,103,1242118500
1913,16,Jits_ISO_5,1,5,63,98,1242128900
1913,16,Jits_ISO_5,2,1,48,92,1242158644
1913,16,Jits_ISO_5,3,5,80,127,1242168764
1913,16,Jits_ISO_5,0,5,56,103,1242579352
1913,16,Jits_ISO_5,1,5,80,127,1242609052
1913,16,Jits_ISO_5,2,1,48,93,1242641108
1913,16,Jits_ISO_5,3,5,63,98,1242659088
1913,16,Jits_ISO_5,0,5,56,103,1243118816
1913,16,Jits_ISO_5,1,1,48,82,1243130828
1913,16,Jits_ISO_5,2,5,63,98,1243158828
1913,16,Jits_ISO_5,3,5,80,127,1243162108
1913,16,Jits_ISO_5,0,5,56,103,1243618632
1913,16,Jits_ISO_5,1,5,63,98,1243628884
1913,16,Jits_ISO_5,2,1,48,92,1243630892
1913,16,Jits_ISO_5,3,5,80,127,1243649672
1913,16,Jits_ISO_5,0,5,56,103,1244078440
1913,16,Jits_ISO_5,1,5,80,127,1244081500
1913,16,Jits_ISO_5,2,5,63,98,1244119504
1913,16,Jits_ISO_5,3,1,48,67,1244132488
1913,16,Jits_ISO_5,0,1,48,68,1244597516
1913,16,Jits_ISO_5,1,5,63,98,1244619152
1913,16,Jits_ISO_5,2,5,56,103,1244648924
1913,16,Jits_ISO_5,3,5,80,127,1244669424
1913,16,Jits_ISO_5,0,5,80,127,1245089128
1913,16,Jits_ISO_5,1,5,56,103,1245099528
1913,16,Jits_ISO_5,2,5,63,98,1245108588
1913,16,Jits_ISO_5,3,1,48,87,1245113424
1913,16,Jits_ISO_5,0,1,48,84,1245579096
1913,16,Jits_ISO_5,1,5,56,103,1245589068
1913,16,Jits_ISO_5,2,5,80,127,1245628740
1913,16,Jits_ISO_5,3,5,63,98,1245658588
1913,16,Jits_ISO_5,0,1,48,94,1246092360
1913,16,Jits_ISO_5,1,5,63,98,1246098896
1913,16,Jits_ISO_5,2,5,80,127,1246109472
1913,16,Jits_ISO_5,3,5,56,103,1246119652
1913,16,Jits_ISO_5,0,5,56,103,1246579260
1913,16,Jits_ISO_5,1,1,48,65,1246587024
1913,16,Jits_ISO_5,2,5,63,98,1246648620
1913,16,Jits_ISO_5,3,5,80,127,1246658944
1913,16,Jits_ISO_5,0,5,80,127,1247078708
1913,16,Jits_ISO_5,1,1,48,115,1247087524
1913,16,Jits_ISO_5,2,5,56,103,1247089328
1913,16,Jits_ISO_5,3,5,63,98,1247139392
1913,16,Jits_ISO_5,0,1,48,89,1247564056
1913,16,Jits_ISO_5,1,5,80,127,1247588624
1913,16,Jits_ISO_5,2,5,56,103,1247649236
1913,16,Jits_ISO_5,3,5,63,98,1247678768
1913,16,Jits_ISO_5,0,1,48,102,1248075232
1913,16,Jits_ISO_5,1,5,56,103,1248088432
1913,16,Jits_ISO_5,2,5,80,127,1248091492
1913,16,Jits_ISO_5,3,5,63,98,1248129348
1913,16,Jits_ISO_5,0,1,48,101,1248557564
1913,16,Jits_ISO_5,1,5,56,103,1248618916
1913,16,Jits_ISO_5,2,5,63,98,1248648468
1913,16,Jits_ISO_5,3,5,80,127,1248658856
1913,16,Jits_ISO_5,0,1,48,99,1249035244
1913,16,Jits_ISO_5,1,5,63,98,1249128688
1913,16,Jits_ISO_5,2,5,80,127,1249139164
1913,16,Jits_ISO_5,3,5,56,103,1249149268
1913,16,Jits_ISO_5,0,1,48,86,1249540376
1913,16,Jits_ISO_5,1,5,80,127,1249579368
1913,16,Jits_ISO_5,2,5,56,103,1249628432
1913,16,Jits_ISO_5,3,5,63,98,1249631648
1913,16,Jits_ISO_5,0,1,48,97,1250059764
1913,16,Jits_ISO_5,1,5,56,103,1250108708
1913,16,Jits_ISO_5,2,5,80,127,1250129284
1913,16,Jits_ISO_5,3,5,63,98,1250138564
1913,16,Jits_ISO_5,0,1,48,105,1250584700
1913,16,Jits_ISO_5,1,5,63,98,1250589364
1913,16,Jits_ISO_5,2,5,56,103,1250618696
1913,16,Jits_ISO_5,3,5,80,127,1250639416
1913,16,Jits_ISO_5,0,1,48,71,1251084976
1913,16,Jits_ISO_5,1,1,38,18,1251095052
1913,16,Jits_ISO_5,2,5,56,103,1251099128
1913,16,Jits_ISO_5,3,5,80,127,1251109156
1913,16,Jits_ISO_5,4,5,63,98,1251179016
1913,16,Jits_ISO_5,0,5,63,98,1251588500
1913,16,Jits_ISO_5,1,1,48,103,1251590656
1913,16,Jits_ISO_5,2,5,80,127,1251629408
1913,16,Jits_ISO_5,3,5,56,103,1251669352
1913,16,Jits_ISO_5,0,5,56,103,1252098340
1913,16,Jits_ISO_5,1,1,48,97,1252099304
1913,16,Jits_ISO_5,2,5,63,98,1252108736
1913,16,Jits_ISO_5,3,5,80,127,1252129232
1913,16,Jits_ISO_5,0,1,48,90,1252598204
1913,16,Jits_ISO_5,1,5,63,98,1252639136
1913,16,Jits_ISO_5,2,5,80,127,1252658516
1913,16,Jits_ISO_5,3,5,56,103,1252679088
1913,16,Jits_ISO_5,0,5,56,103,1253079420
1913,16,Jits_ISO_5,1,1,48,88,1253113272
1913,16,Jits_ISO_5,2,5,80,127,1253159224
1913,16,Jits_ISO_5,3,5,63,98,1253168580
1913,16,Jits_ISO_5,0,1,48,97,1253595732
1913,16,Jits_ISO_5,1,5,80,127,1253619028
1913,16,Jits_ISO_5,2,5,63,98,1253629208
1913,16,Jits_ISO_5,3,5,56,103,1253659128
1913,16,Jits_ISO_5,0,5,63,98,1254079056
1913,16,Jits_ISO_5,1,1,48,101,1254080692
1913,16,Jits_ISO_5,2,5,80,127,1254118844
1913,16,Jits_ISO_5,3,5,56,103,1254179264
1913,16,Jits_ISO_5,0,1,48,93,1254581908
1913,16,Jits_ISO_5,1,5,63,98,1254588744
1913,16,Jits_ISO_5,2,5,56,103,1254639156
1913,16,Jits_ISO_5,3,5,80,127,1254668708
1913,16,Jits_ISO_5,0,1,48,95,1255095768
1913,16,Jits_ISO_5,1,5,80,127,1255098944
1913,16,Jits_ISO_5,2,5,63,98,1255108904
1913,16,Jits_ISO_5,3,5,56,103,1255178536
1913,16,Jits_ISO_5,0,1,48,102,1255592968
1913,16,Jits_ISO_5,1,5,80,127,1255668988
1913,16,Jits_ISO_5,2,5,56,103,1255679312
1913,16,Jits_ISO_5,3,5,63,98,1255682376
1913,16,Jits_ISO_5,0,1,48,120,1256096676
1913,16,Jits_ISO_5,1,5,56,103,1256109356
1913,16,Jits_ISO_5,2,5,80,127,1256128960
1913,16,Jits_ISO_5,3,5,63,98,1256138988
1913,16,Jits_ISO_5,0,1,48,122,1256602572
1913,16,Jits_ISO_5,1,5,63,98,1256619508
1913,16,Jits_ISO_5,2,5,56,103,1256659304
1913,16,Jits_ISO_5,3,5,80,127,1256678908
1913,16,Jits_ISO_5,0,1,48,89,1257106588
1913,16,Jits_ISO_5,1,5,63,98,1257118972
1913,16,Jits_ISO_5,2,5,56,103,1257178512
1913,16,Jits_ISO_5,3,5,80,127,1257181720
1913,16,Jits_ISO_5,0,5,56,103,1257578820
1913,16,Jits_ISO_5,1,5,80,127,1257599468
1913,16,Jits_ISO_5,2,1,48,116,1257630732
1913,16,Jits_ISO_5,3,5,63,98,1257639356
1913,16,Jits_ISO_5,0,5,56,103,1258109232
1913,16,Jits_ISO_5,1,1,48,108,1258124084
1913,16,Jits_ISO_5,2,5,63,98,1258128980
1913,16,Jits_ISO_5,3,5,80,127,1258138960
1913,16,Jits_ISO_5,0,5,80,127,1258579452
1913,16,Jits_ISO_5,1,5,56,103,1258608928
1913,16,Jits_ISO_5,2,1,48,94,1258624080
1913,16,Jits_ISO_5,3,5,63,98,1258648888
1913,16,Jits_ISO_5,0,5,80,127,1259089292
1913,16,Jits_ISO_5,1,5,56,103,1259108892
1913,16,Jits_ISO_5,2,1,48,85,1259112532
1913,16,Jits_ISO_5,3,5,63,98,1259169124
1913,16,Jits_ISO_5,0,5,56,103,1259599208
1913,16,Jits_ISO_5,1,1,48,100,1259607564
1913,16,Jits_ISO_5,2,5,80,127,1259618804
1913,16,Jits_ISO_5,3,5,63,98,1259679260
1913,16,Jits_ISO_5,0,5,80,127,1260078696
1913,16,Jits_ISO_5,1,5,56,103,1260088948
1913,16,Jits_ISO_5,2,1,48,85,1260107104
1913,16,Jits_ISO_5,3,5,63,98,1260128812
1913,16,Jits_ISO_5,0,5,63,98,1260579184
1913,16,Jits_ISO_5,1,1,48,81,1260613556
1913,16,Jits_ISO_5,2,5,56,103,1260618968
1913,16,Jits_ISO_5,3,5,80,127,1260622108
1913,16,Jits_ISO_5,0,1,48,102,1261093676
1913,16,Jits_ISO_5,1,5,63,98,1261099248
1913,16,Jits_ISO_5,2,5,80,127,1261139268
1913,16,Jits_ISO_5,3,5,56,103,1261169116
1913,16,Jits_ISO_5,0,5,56,103,1261588844
1913,16,Jits_ISO_5,1,1,48,83,1261599172
1913,16,Jits_ISO_5,2,5,63,98,1261600808
1913,16,Jits_ISO_5,3,5,80,127,1261628788
1913,16,Jits_ISO_5,0,5,80,127,1262079604
1913,16,Jits_ISO_5,1,1,48,93,1262101048
1913,16,Jits_ISO_5,2,5,63,98,1262148868
1913,16,Jits_ISO_5,3,5,56,103,1262159268
1913,16,Jits_ISO_5,0,5,63,98,1262578908
1913,16,Jits_ISO_5,1,1,48,102,1262582844
1913,16,Jits_ISO_5,2,5,56,103,1262648616
1913,16,Jits_ISO_5,3,5,80,127,1262658868
1913,16,Jits_ISO_5,0,1,48,99,1263077140
1913,16,Jits_ISO_5,1,5,63,98,1263078868
1913,16,Jits_ISO_5,2,5,56,103,1263099292
1913,16,Jits_ISO_5,3,5,80,127,1263139164
1913,16,Jits_ISO_5,0,1,48,89,1263575644
1913,16,Jits_ISO_5,1,1,38,19,1263585796
1913,16,Jits_ISO_5,2,5,56,103,1263588676
1913,16,Jits_ISO_5,3,5,63,98,1263598928
1913,16,Jits_ISO_5,4,5,80,127,1263679064
1913,16,Jits_ISO_5,0,5,63,98,1264079380
1913,16,Jits_ISO_5,1,1,48,100,1264089156
1913,16,Jits_ISO_5,2,5,56,103,1264109000
1913,16,Jits_ISO_5,3,5,80,127,1264148868
1913,16,Jits_ISO_5,0,5,56,103,1264578896
1913,16,Jits_ISO_5,1,1,48,105,1264596360
1913,16,Jits_ISO_5,2,5,63,98,1264618836
1913,16,Jits_ISO_5,3,5,80,127,1264658704
1913,16,Jits_ISO_5,0,5,80,127,1265078580
1913,16,Jits_ISO_5,1,1,48,85,1265097552
1913,16,Jits_ISO_5,2,1,38,19,1265107332
1913,16,Jits_ISO_5,3,5,56,103,1265158436
1913,16,Jits_ISO_5,4,5,63,98,1265168764
1913,16,Jits_ISO_5,0,1,48,99,1265596620
1913,16,Jits_ISO_5,1,5,56,103,1265619520
1913,16,Jits_ISO_5,2,5,63,98,1265622732
1913,16,Jits_ISO_5,3,5,80,127,1265628508
1913,16,Jits_ISO_5,0,1,48,90,1266110396
1913,16,Jits_ISO_5,1,5,56,103,1266138472
1913,16,Jits_ISO_5,2,5,63,98,1266158824
1913,16,Jits_ISO_5,3,5,80,127,1266169148
1913,16,Jits_ISO_5,0,5,63,98,1266599324
1913,16,Jits_ISO_5,1,5,80,127,1266608604
1913,16,Jits_ISO_5,2,1,48,103,1266615000
1913,16,Jits_ISO_5,3,5,56,103,1266628948
1913,16,Jits_ISO_5,0,1,48,104,1267086896
1913,16,Jits_ISO_5,1,5,63,98,1267098984
1913,16,Jits_ISO_5,2,5,56,103,1267178792
1913,16,Jits_ISO_5,3,5,80,127,1267181852
1913,16,Jits_ISO_5,0,1,48,106,1267577744
1913,16,Jits_ISO_5,1,5,63,98,1267598640
1913,16,Jits_ISO_5,2,5,56,103,1267619384
1913,16,Jits_ISO_5,3,5,80,127,1267648788
1913,16,Jits_ISO_5,0,1,48,101,1268091264
1913,16,Jits_ISO_5,1,5,56,103,1268098396
1913,16,Jits_ISO_5,2,5,63,98,1268118820
1913,16,Jits_ISO_5,3,5,80,127,1268129100
1913,16,Jits_ISO_5,0,1,48,89,1268586764
1913,16,Jits_ISO_5,1,5,56,103,1268628816
1913,16,Jits_ISO_5,2,5,63,98,1268658384
1913,16,Jits_ISO_5,3,5,80,127,1268661824
1913,16,Jits_ISO_5,0,1,48,123,1269074960
1913,16,Jits_ISO_5,1,5,56,103,1269079552
1913,16,Jits_ISO_5,2,5,63,98,1269119348
1913,16,Jits_ISO_5,3,5,80,127,1269178748
1913,16,Jits_ISO_5,0,1,48,90,1269573896
1913,16,Jits_ISO_5,1,5,56,103,1269598684
1913,16,Jits_ISO_5,2,5,63,98,1269608864
1913,16,Jits_ISO_5,3,5,80,127,1269669248
1913,16,Jits_ISO_5,0,1,48,91,1270079024
1913,16,Jits_ISO_5,1,5,56,103,1270099240
1913,16,Jits_ISO_5,2,5,80,127,1270118768
1913,16,Jits_ISO_5,3,5,63,98,1270148392
1913,16,Jits_ISO_5,0,1,48,111,1270590120
1913,16,Jits_ISO_5,1,5,80,127,1270599196
1913,16,Jits_ISO_5,2,5,56,103,1270609452
1913,16,Jits_ISO_5,3,5,63,98,1270628608
1913,16,Jits_ISO_5,0,1,48,111,1271085976
1913,16,Jits_ISO_5,1,5,63,98,1271088484
1913,16,Jits_ISO_5,2,5,80,127,1271169412
1913,16,Jits_ISO_5,3,5,56,103,1271178548
1913,16,Jits_ISO_5,0,1,48,97,1271595164
1913,16,Jits_ISO_5,1,5,80,127,1271648676
1913,16,Jits_ISO_5,2,5,56,103,1271669176
1913,16,Jits_ISO_5,3,5,63,98,1271672088
1913,16,Jits_ISO_5,0,1,48,98,1272105736
1913,16,Jits_ISO_5,1,5,63,98,1272118564
1913,16,Jits_ISO_5,2,5,80,127,1272122068
1913,16,Jits_ISO_5,3,5,56,103,1272179220
1913,16,Jits_ISO_5,0,1,48,103,1272591860
1913,16,Jits_ISO_5,1,5,56,103,1272598920
1913,16,Jits_ISO_5,2,5,80,127,1272609248
1913,16,Jits_ISO_5,3,5,63,98,1272649264
1913,16,Jits_ISO_5,0,5,56,103,1273079388
1913,16,Jits_ISO_5,1,1,48,103,1273080724
1913,16,Jits_ISO_5,2,5,63,98,1273138624
1913,16,Jits_ISO_5,3,5,80,127,1273148880
1913,16,Jits_ISO_5,0,5,63,98,1273589096
1913,16,Jits_ISO_5,1,1,48,88,1273591032
1913,16,Jits_ISO_5,2,5,80,127,1273629108
1913,16,Jits_ISO_5,3,5,56,103,1273669200
1913,16,Jits_ISO_5,0,5,56,103,1274088904
1913,16,Jits_ISO_5,1,1,48,105,1274100024
1913,16,Jits_ISO_5,2,5,63,98,1274168780
1913,16,Jits_ISO_5,3,5,80,127,1274172136
1913,16,Jits_ISO_5,0,9999,9999,9999,1214876772
1913,16,Jits_ISO_5,1,9999,9999,9999,1215376456
1913,16,Jits_ISO_5,2,9999,9999,9999,1215876196
1913,16,Jits_ISO_5,3,9999,9999,9999,1216376920
1913,16,Jits_ISO_5,4,9999,9999,9999,1216876612
1913,16,Jits_ISO_5,5,9999,9999,9999,1217376312
1913,16,Jits_ISO_5,6,9999,9999,9999,1217877092
1913,16,Jits_ISO_5,7,9999,9999,9999,1218376764
1913,16,Jits_ISO_5,8,9999,9999,9999,1218876512
1913,16,Jits_ISO_5,9,9999,9999,9999,1219376184
1913,16,Jits_ISO_5,10,9999,9999,9999,1219876972
1913,16,Jits_ISO_5,11,9999,9999,9999,1220376632
1913,16,Jits_ISO_5,12,9999,9999,9999,1220876360
1913,16,Jits_ISO_5,13,9999,9999,9999,1221376092
1913,16,Jits_ISO_5,14,9999,9999,9999,1221876796
1913,16,Jits_ISO_5,15,9999,9999,9999,1222376544
1913,16,Jits_ISO_5,16,9999,9999,9999,1222876276
1913,16,Jits_ISO_5,17,9999,9999,9999,1223376980
1913,16,Jits_ISO_5,18,9999,9999,9999,1223876688
1913,16,Jits_ISO_5,19,9999,9999,9999,1224376436
1913,16,Jits_ISO_5,20,9999,9999,9999,1224876108
1913,16,Jits_ISO_5,21,9999,9999,9999,1225376828
1913,16,Jits_ISO_5,22,9999,9999,9999,1225876548
1913,16,Jits_ISO_5,23,9999,9999,9999,1226376268
1913,16,Jits_ISO_5,24,9999,9999,9999,1226876988
1913,16,Jits_ISO_5,25,9999,9999,9999,1227376728
1913,16,Jits_ISO_5,26,9999,9999,9999,1227876408
1913,16,Jits_ISO_5,27,9999,9999,9999,1228376132
1913,16,Jits_ISO_5,28,9999,9999,9999,1228876856
1913,16,Jits_ISO_5,29,9999,9999,9999,1229376600
1913,16,Jits_ISO_5,30,9999,9999,9999,1229876348
1913,16,Jits_ISO_5,31,9999,9999,9999,1230377064
1913,16,Jits_ISO_5,32,9999,9999,9999,1230876736
1913,16,Jits_ISO_5,33,9999,9999,9999,1231376480
1913,16,Jits_ISO_5,34,9999,9999,9999,1231876156
1913,16,Jits_ISO_5,35,9999,9999,9999,1232376952
1913,16,Jits_ISO_5,36,9999,9999,9999,1232876596
1913,16,Jits_ISO_5,37,9999,9999,9999,1233376328
1913,16,Jits_ISO_5,38,9999,9999,9999,1233877048
1913,16,Jits_ISO_5,39,9999,9999,9999,1234376784
1913,16,Jits_ISO_5,40,9999,9999,9999,1234876520
1913,16,Jits_ISO_5,41,9999,9999,9999,1235376192
1913,16,Jits_ISO_5,42,9999,9999,9999,1235876984
1913,16,Jits_ISO_5,43,9999,9999,9999,1236376688
1913,16,Jits_ISO_5,44,9999,9999,9999,1236876348
1913,16,Jits_ISO_5,45,9999,9999,9999,1237376088
1913,16,Jits_ISO_5,46,9999,9999,9999,1237876792
1913,16,Jits_ISO_5,47,9999,9999,9999,1238376560
1913,16,Jits_ISO_5,48,9999,9999,9999,1238876260
1913,16,Jits_ISO_5,49,9999,9999,9999,1239376984
1913,16,Jits_ISO_5,50,9999,9999,9999,1239876708
1913,16,Jits_ISO_5,51,9999,9999,9999,1240376380
1913,16,Jits_ISO_5,52,9999,9999,9999,1240876132
1913,16,Jits_ISO_5,53,9999,9999,9999,1241376848
1913,16,Jits_ISO_5,54,9999,9999,9999,1241876584
1913,16,Jits_ISO_5,55,9999,9999,9999,1242376260
1913,16,Jits_ISO_5,56,9999,9999,9999,1242877052
1913,16,Jits_ISO_5,57,9999,9999,9999,1243376716
1913,16,Jits_ISO_5,58,9999,9999,9999,1243876468
1913,16,Jits_ISO_5,59,9999,9999,9999,1244376128
1913,16,Jits_ISO_5,60,9999,9999,9999,1244876924
1913,16,Jits_ISO_5,61,9999,9999,9999,1245376580
1913,16,Jits_ISO_5,62,9999,9999,9999,1245876328
1913,16,Jits_ISO_5,63,9999,9999,9999,1246377032
1913,16,Jits_ISO_5,64,9999,9999,9999,1246876760
1913,16,Jits_ISO_5,65,9999,9999,9999,1247376480
1913,16,Jits_ISO_5,66,9999,9999,9999,1247876160
1913,16,Jits_ISO_5,67,9999,9999,9999,1248376928
1913,16,Jits_ISO_5,68,9999,9999,9999,1248876612
1913,16,Jits_ISO_5,69,9999,9999,9999,1249376372
1913,16,Jits_ISO_5,70,9999,9999,9999,1249877064
1913,16,Jits_ISO_5,71,9999,9999,9999,1250376796
1913,16,Jits_ISO_5,72,9999,9999,9999,1250876528
1913,16,Jits_ISO_5,73,9999,9999,9999,1251376252
1913,16,Jits_ISO_5,74,9999,9999,9999,1251876924
1913,16,Jits_ISO_5,75,9999,9999,9999,1252376664
1913,16,Jits_ISO_5,76,9999,9999,9999,1252876340
1913,16,Jits_ISO_5,77,9999,9999,9999,1253376076
1913,16,Jits_ISO_5,78,9999,9999,9999,1253876796
1913,16,Jits_ISO_5,79,9999,9999,9999,1254376532
1913,16,Jits_ISO_5,80,9999,9999,9999,1254876280
1913,16,Jits_ISO_5,81,9999,9999,9999,1255376984
1913,16,Jits_ISO_5,82,9999,9999,9999,1255876716
1913,16,Jits_ISO_5,83,9999,9999,9999,1256376396
1913,16,Jits_ISO_5,84,9999,9999,9999,1256876084
1913,16,Jits_ISO_5,85,9999,9999,9999,1257376884
1913,16,Jits_ISO_5,86,9999,9999,9999,1257876592
1913,16,Jits_ISO_5,87,9999,9999,9999,1258376272
1913,16,Jits_ISO_5,88,9999,9999,9999,1258877000
1913,16,Jits_ISO_5,89,9999,9999,9999,1259376744
1913,16,Jits_ISO_5,90,9999,9999,9999,1259876416
1913,16,Jits_ISO_5,91,9999,9999,9999,1260376168
1913,16,Jits_ISO_5,92,9999,9999,9999,1260876876
1913,16,Jits_ISO_5,93,9999,9999,9999,1261376612
1913,16,Jits_ISO_5,94,9999,9999,9999,1261876292
1913,16,Jits_ISO_5,95,9999,9999,9999,1262377084
1913,16,Jits_ISO_5,96,9999,9999,9999,1262876756
1913,16,Jits_ISO_5,97,9999,9999,9999,1263376496
1913,16,Jits_ISO_5,98,9999,9999,9999,1263876184
1913,16,Jits_ISO_5,99,9999,9999,9999,1264376928
1913,16,Jits_ISO_5,100,9999,9999,9999,1264876668
1913,16,Jits_ISO_5,101,9999,9999,9999,1265376308
1913,16,Jits_ISO_5,102,9999,9999,9999,1265877056
1913,16,Jits_ISO_5,103,9999,9999,9999,1266376796
1913,16,Jits_ISO_5,104,9999,9999,9999,1266876528
1913,16,Jits_ISO_5,105,9999,9999,9999,1267376196
1913,16,Jits_ISO_5,106,9999,9999,9999,1267876924
1913,16,Jits_ISO_5,107,9999,9999,9999,1268376680
1913,16,Jits_ISO_5,108,9999,9999,9999,1268876408
1913,16,Jits_ISO_5,109,9999,9999,9999,1269376064
1913,16,Jits_ISO_5,110,9999,9999,9999,1269876796
1913,16,Jits_ISO_5,111,9999,9999,9999,1270376528
1913,16,Jits_ISO_5,112,9999,9999,9999,1270876260
1913,16,Jits_ISO_5,113,9999,9999,9999,1271376992
1913,16,Jits_ISO_5,114,9999,9999,9999,1271876672
1913,16,Jits_ISO_5,115,9999,9999,9999,1272376400
1913,16,Jits_ISO_5,116,9999,9999,9999,1272876136
1913,16,Jits_ISO_5,117,9999,9999,9999,1273376864
1913,16,Jits_ISO_5,118,9999,9999,9999,1273876548
1913,16,Jits_ISO_5,119,9999,9999,9999,1274376280
1914,7,Jits_ISO_8,0,5,56,103,1289038308
1914,7,Jits_ISO_8,1,5,63,98,1289041324
1914,7,Jits_ISO_8,2,5,80,127,1289044444
1914,7,Jits_ISO_8,0,5,56,103,1289837876
1914,7,Jits_ISO_8,1,5,63,98,1289841040
1914,7,Jits_ISO_8,2,5,80,127,1289844084
1914,7,Jits_ISO_8,3,1,48,45,1289953124
1914,7,Jits_ISO_8,4,1,38,21,1289965220
1914,7,Jits_ISO_8,0,5,80,127,1290578276
1914,7,Jits_ISO_8,1,1,48,95,1290658604
1914,7,Jits_ISO_8,2,5,63,98,1290668428
1914,7,Jits_ISO_8,3,5,56,103,1290677564
1914,7,Jits_ISO_8,0,5,56,103,1291397464
1914,7,Jits_ISO_8,1,5,63,98,1291407720
1914,7,Jits_ISO_8,2,1,48,90,1291486776
1914,7,Jits_ISO_8,3,5,80,127,1291497796
1914,7,Jits_ISO_8,0,5,63,98,1292167512
1914,7,Jits_ISO_8,1,5,80,127,1292198208
1914,7,Jits_ISO_8,2,1,48,88,1292224276
1914,7,Jits_ISO_8,3,5,56,103,1292228200
1914,7,Jits_ISO_8,0,5,56,103,1292968304
1914,7,Jits_ISO_8,1,1,48,97,1292975540
1914,7,Jits_ISO_8,2,5,80,127,1293067636
1914,7,Jits_ISO_8,3,5,63,98,1293117888
1914,7,Jits_ISO_8,0,5,56,103,1293768048
1914,7,Jits_ISO_8,1,1,48,108,1293783200
1914,7,Jits_ISO_8,2,5,80,127,1293818312
1914,7,Jits_ISO_8,3,5,63,98,1293858332
1914,7,Jits_ISO_8,0,1,48,104,1294590796
1914,7,Jits_ISO_8,1,5,80,127,1294597488
1914,7,Jits_ISO_8,2,5,63,98,1294628084
1914,7,Jits_ISO_8,3,5,56,103,1294697708
1914,7,Jits_ISO_8,0,1,48,89,1295405892
1914,7,Jits_ISO_8,1,5,63,98,1295428204
1914,7,Jits_ISO_8,2,5,56,103,1295457532
1914,7,Jits_ISO_8,3,5,80,127,1295518128
1914,7,Jits_ISO_8,0,5,56,103,1296168252
1914,7,Jits_ISO_8,1,5,80,127,1296171536
1914,7,Jits_ISO_8,2,1,48,66,1296196424
1914,7,Jits_ISO_8,3,5,63,98,1296288092
1914,7,Jits_ISO_8,0,1,48,71,1296976328
1914,7,Jits_ISO_8,1,5,56,103,1297048180
1914,7,Jits_ISO_8,2,5,80,127,1297087816
1914,7,Jits_ISO_8,3,5,63,98,1297097996
1914,7,Jits_ISO_8,0,1,48,89,1297804168
1914,7,Jits_ISO_8,1,5,56,103,1297807944
1914,7,Jits_ISO_8,2,5,80,127,1297828100
1914,7,Jits_ISO_8,3,5,63,98,1297908044
1914,7,Jits_ISO_8,0,5,80,127,1298598132
1914,7,Jits_ISO_8,1,1,48,99,1298625096
1914,7,Jits_ISO_8,2,5,56,103,1298697684
1914,7,Jits_ISO_8,3,5,63,98,1298708012
1914,7,Jits_ISO_8,0,5,63,98,1299368260
1914,7,Jits_ISO_8,1,5,80,127,1299427728
1914,7,Jits_ISO_8,2,5,56,103,1299437832
1914,7,Jits_ISO_8,3,1,48,88,1299439244
1914,7,Jits_ISO_8,0,5,56,103,1300167980
1914,7,Jits_ISO_8,1,1,48,92,1300200864
1914,7,Jits_ISO_8,2,5,63,98,1300237764
1914,7,Jits_ISO_8,3,5,80,127,1300241124
1914,7,Jits_ISO_8,0,1,48,114,1300965816
1914,7,Jits_ISO_8,1,5,63,98,1300997552
1914,7,Jits_ISO_8,2,5,56,103,1301047892
1914,7,Jits_ISO_8,3,5,80,127,1301050804
1914,7,Jits_ISO_8,0,5,56,103,1301758400
1914,7,Jits_ISO_8,1,5,80,127,1301761536
1914,7,Jits_ISO_8,2,1,48,113,1301795160
1914,7,Jits_ISO_8,3,5,63,98,1301848376
1914,7,Jits_ISO_8,0,1,48,102,1302588700
1914,7,Jits_ISO_8,1,5,63,98,1302598000
1914,7,Jits_ISO_8,2,5,56,103,1302687996
1914,7,Jits_ISO_8,3,5,80,127,1302717992
1914,7,Jits_ISO_8,0,1,48,112,1303376192
1914,7,Jits_ISO_8,1,5,56,103,1303387512
1914,7,Jits_ISO_8,2,5,63,98,1303487828
1914,7,Jits_ISO_8,3,5,80,127,1303517748
1914,7,Jits_ISO_8,0,1,48,105,1304183564
1914,7,Jits_ISO_8,1,5,63,98,1304207836
1914,7,Jits_ISO_8,2,5,56,103,1304217964
1914,7,Jits_ISO_8,3,5,80,127,1304307932
1914,7,Jits_ISO_8,0,1,48,84,1304984912
1914,7,Jits_ISO_8,1,5,63,98,1305028032
1914,7,Jits_ISO_8,2,5,56,103,1305107756
1914,7,Jits_ISO_8,3,5,80,127,1305110968
1914,7,Jits_ISO_8,0,1,48,107,1305782476
1914,7,Jits_ISO_8,1,5,80,127,1305787744
1914,7,Jits_ISO_8,2,5,63,98,1305808392
1914,7,Jits_ISO_8,3,5,56,103,1305867712
1914,7,Jits_ISO_8,0,1,48,107,1306572876
1914,7,Jits_ISO_8,1,5,56,103,1306627660
1914,7,Jits_ISO_8,2,5,63,98,1306647780
1914,7,Jits_ISO_8,3,5,80,127,1306651144
1914,7,Jits_ISO_8,0,1,48,93,1307355428
1914,7,Jits_ISO_8,1,5,63,98,1307367936
1914,7,Jits_ISO_8,2,5,80,127,1307447752
1914,7,Jits_ISO_8,3,5,56,103,1307457840
1914,7,Jits_ISO_8,0,1,48,109,1308154916
1914,7,Jits_ISO_8,1,5,63,98,1308187936
1914,7,Jits_ISO_8,2,5,56,103,1308207540
1914,7,Jits_ISO_8,3,5,80,127,1308257644
1914,7,Jits_ISO_8,0,1,48,99,1308939268
1914,7,Jits_ISO_8,1,5,80,127,1308987688
1914,7,Jits_ISO_8,2,5,63,98,1309027636
1914,7,Jits_ISO_8,3,5,56,103,1309048044
1914,7,Jits_ISO_8,0,1,48,100,1309735908
1914,7,Jits_ISO_8,1,5,56,103,1309827504
1914,7,Jits_ISO_8,2,5,63,98,1309837744
1914,7,Jits_ISO_8,3,5,80,127,1309858268
1914,7,Jits_ISO_8,0,1,48,108,1310535364
1914,7,Jits_ISO_8,1,5,56,103,1310557548
1914,7,Jits_ISO_8,2,5,63,98,1310647616
1914,7,Jits_ISO_8,3,5,80,127,1310708356
1914,7,Jits_ISO_8,0,1,48,109,1311323312
1914,7,Jits_ISO_8,1,5,80,127,1311387920
1914,7,Jits_ISO_8,2,5,56,103,1311398472
1914,7,Jits_ISO_8,3,5,63,98,1311468096
1914,7,Jits_ISO_8,0,1,48,100,1312121492
1914,7,Jits_ISO_8,1,5,63,98,1312217352
1914,7,Jits_ISO_8,2,5,80,127,1312307560
1914,7,Jits_ISO_8,3,5,56,103,1312317740
1914,7,Jits_ISO_8,0,1,48,121,1312926968
1914,7,Jits_ISO_8,1,5,63,98,1312957732
1914,7,Jits_ISO_8,2,5,80,127,1313008000
1914,7,Jits_ISO_8,3,5,56,103,1313068348
1914,7,Jits_ISO_8,0,1,48,102,1313703436
1914,7,Jits_ISO_8,1,5,56,103,1313788440
1914,7,Jits_ISO_8,2,5,80,127,1313837352
1914,7,Jits_ISO_8,3,5,63,98,1313858000
1914,7,Jits_ISO_8,0,1,48,70,1314504604
1914,7,Jits_ISO_8,1,5,56,103,1314558200
1914,7,Jits_ISO_8,2,5,80,127,1314617656
1914,7,Jits_ISO_8,3,5,63,98,1314688412
1914,7,Jits_ISO_8,0,1,48,96,1315307036
1914,7,Jits_ISO_8,1,5,56,103,1315358296
1914,7,Jits_ISO_8,2,5,80,127,1315387628
1914,7,Jits_ISO_8,3,5,63,98,1315417384
1914,7,Jits_ISO_8,0,1,48,88,1316081468
1914,7,Jits_ISO_8,1,5,56,103,1316197724
1914,7,Jits_ISO_8,2,5,80,127,1316218224
1914,7,Jits_ISO_8,3,5,63,98,1316277640
1914,7,Jits_ISO_8,0,1,48,83,1316883956
1914,7,Jits_ISO_8,1,1,38,19,1316894332
1914,7,Jits_ISO_8,2,5,80,127,1317078576
1914,7,Jits_ISO_8,3,5,56,103,1317087564
1914,7,Jits_ISO_8,4,5,63,98,1317097968
1914,7,Jits_ISO_8,0,1,48,71,1317738732
1914,7,Jits_ISO_8,1,5,56,103,1317838244
1914,7,Jits_ISO_8,2,5,80,127,1317878120
1914,7,Jits_ISO_8,3,5,63,98,1317908116
1914,7,Jits_ISO_8,0,1,48,96,1318519984
1914,7,Jits_ISO_8,1,5,56,103,1318608224
1914,7,Jits_ISO_8,2,5,63,98,1318637912
1914,7,Jits_ISO_8,3,5,80,127,1318678004
1914,7,Jits_ISO_8,0,1,48,68,1319325632
1914,7,Jits_ISO_8,1,5,80,127,1319357912
1914,7,Jits_ISO_8,2,5,63,98,1319407956
1914,7,Jits_ISO_8,3,5,56,103,1319427396
1914,7,Jits_ISO_8,0,1,48,97,1320075756
1914,7,Jits_ISO_8,1,5,56,103,1320188284
1914,7,Jits_ISO_8,2,5,80,127,1320257924
1914,7,Jits_ISO_8,3,5,63,98,1320318212
1914,7,Jits_ISO_8,0,1,48,84,1320901680
1914,7,Jits_ISO_8,1,5,80,127,1320988100
1914,7,Jits_ISO_8,2,5,63,98,1321078072
1914,7,Jits_ISO_8,3,5,56,103,1321097452
1914,7,Jits_ISO_8,0,1,48,84,1321760876
1914,7,Jits_ISO_8,1,5,63,98,1321808172
1914,7,Jits_ISO_8,2,5,56,103,1321827776
1914,7,Jits_ISO_8,3,5,80,127,1321867784
1914,7,Jits_ISO_8,0,1,48,107,1322545348
1914,7,Jits_ISO_8,1,5,80,127,1322568180
1914,7,Jits_ISO_8,2,5,63,98,1322587412
1914,7,Jits_ISO_8,3,5,56,103,1322668352
1914,7,Jits_ISO_8,0,1,48,96,1323328260
1914,7,Jits_ISO_8,1,5,63,98,1323357680
1914,7,Jits_ISO_8,2,5,56,103,1323468092
1914,7,Jits_ISO_8,3,5,80,127,1323471156
1914,7,Jits_ISO_8,0,1,48,70,1324134992
1914,7,Jits_ISO_8,1,5,63,98,1324177892
1914,7,Jits_ISO_8,2,5,56,103,1324188020
1914,7,Jits_ISO_8,3,5,80,127,1324191008
1914,7,Jits_ISO_8,0,1,48,89,1324933732
1914,7,Jits_ISO_8,1,5,56,103,1324958028
1914,7,Jits_ISO_8,2,5,80,127,1325077840
1914,7,Jits_ISO_8,3,5,63,98,1325117936
1914,7,Jits_ISO_8,0,1,48,86,1325728260
1914,7,Jits_ISO_8,1,5,56,103,1325778400
1914,7,Jits_ISO_8,2,5,80,127,1325858124
1914,7,Jits_ISO_8,3,5,63,98,1325877652
1914,7,Jits_ISO_8,0,1,48,93,1326527088
1914,7,Jits_ISO_8,1,5,56,103,1326578052
1914,7,Jits_ISO_8,2,5,63,98,1326687768
1914,7,Jits_ISO_8,3,5,80,127,1326691048
1914,7,Jits_ISO_8,0,1,48,105,1327375656
1914,7,Jits_ISO_8,1,5,56,103,1327407764
1914,7,Jits_ISO_8,2,5,80,127,1327438064
1914,7,Jits_ISO_8,3,5,63,98,1327457740
1914,7,Jits_ISO_8,0,1,48,118,1328179812
1914,7,Jits_ISO_8,1,5,63,98,1328187696
1914,7,Jits_ISO_8,2,5,56,103,1328198024
1914,7,Jits_ISO_8,3,5,80,127,1328208276
1914,7,Jits_ISO_8,0,1,48,101,1328955852
1914,7,Jits_ISO_8,1,5,80,127,1328978240
1914,7,Jits_ISO_8,2,5,56,103,1329027536
1914,7,Jits_ISO_8,3,5,63,98,1329068684
1914,7,Jits_ISO_8,0,1,48,72,1329764564
1914,7,Jits_ISO_8,1,5,80,127,1329797440
1914,7,Jits_ISO_8,2,5,63,98,1329818112
1914,7,Jits_ISO_8,3,5,56,103,1329868288
1914,7,Jits_ISO_8,0,1,48,88,1330567596
1914,7,Jits_ISO_8,1,5,80,127,1330607364
1914,7,Jits_ISO_8,2,5,56,103,1330638404
1914,7,Jits_ISO_8,3,5,63,98,1330707808
1914,7,Jits_ISO_8,0,1,48,108,1331366004
1914,7,Jits_ISO_8,1,5,56,103,1331458324
1914,7,Jits_ISO_8,2,5,80,127,1331467744
1914,7,Jits_ISO_8,3,5,63,98,1331507464
1914,7,Jits_ISO_8,0,5,56,103,1332168108
1914,7,Jits_ISO_8,1,5,63,98,1332187412
1914,7,Jits_ISO_8,2,1,48,82,1332203608
1914,7,Jits_ISO_8,3,5,80,127,1332258088
1914,7,Jits_ISO_8,0,1,48,97,1332951792
1914,7,Jits_ISO_8,1,5,63,98,1332988476
1914,7,Jits_ISO_8,2,5,80,127,1333047648
1914,7,Jits_ISO_8,3,5,56,103,1333068356
1914,7,Jits_ISO_8,0,1,48,109,1333747044
1914,7,Jits_ISO_8,1,5,80,127,1333777808
1914,7,Jits_ISO_8,2,5,56,103,1333807360
1914,7,Jits_ISO_8,3,5,63,98,1333838404
1914,7,Jits_ISO_8,0,1,48,73,1334566316
1914,7,Jits_ISO_8,1,5,56,103,1334577560
1914,7,Jits_ISO_8,2,5,63,98,1334638072
1914,7,Jits_ISO_8,3,5,80,127,1334698372
1914,7,Jits_ISO_8,0,1,48,77,1335386012
1914,7,Jits_ISO_8,1,5,80,127,1335397704
1914,7,Jits_ISO_8,2,5,56,103,1335418352
1914,7,Jits_ISO_8,3,5,63,98,1335488000
1914,7,Jits_ISO_8,0,5,80,127,1336197512
1914,7,Jits_ISO_8,1,1,48,101,1336210524
1914,7,Jits_ISO_8,2,5,63,98,1336217956
1914,7,Jits_ISO_8,3,5,56,103,1336247656
1914,7,Jits_ISO_8,0,5,80,127,1336988232
1914,7,Jits_ISO_8,1,5,63,98,1337007464
1914,7,Jits_ISO_8,2,1,48,101,1337015744
1914,7,Jits_ISO_8,3,5,56,103,1337068044
1914,7,Jits_ISO_8,0,5,80,127,1337787756
1914,7,Jits_ISO_8,1,1,48,97,1337830736
1914,7,Jits_ISO_8,2,5,56,103,1337888280
1914,7,Jits_ISO_8,3,5,63,98,1337917832
1914,7,Jits_ISO_8,0,5,63,98,1338578376
1914,7,Jits_ISO_8,1,5,80,127,1338627300
1914,7,Jits_ISO_8,2,5,56,103,1338648024
1914,7,Jits_ISO_8,3,1,48,105,1338661980
1914,7,Jits_ISO_8,0,5,80,127,1339418200
1914,7,Jits_ISO_8,1,1,48,100,1339442100
1914,7,Jits_ISO_8,2,5,56,103,1339447596
1914,7,Jits_ISO_8,3,5,63,98,1339450880
1914,7,Jits_ISO_8,0,1,48,111,1340227040
1914,7,Jits_ISO_8,1,5,63,98,1340248528
1914,7,Jits_ISO_8,2,5,56,103,1340288476
1914,7,Jits_ISO_8,3,5,80,127,1340307808
1914,7,Jits_ISO_8,0,5,80,127,1340988008
1914,7,Jits_ISO_8,1,1,48,110,1341051928
1914,7,Jits_ISO_8,2,5,63,98,1341067664
1914,7,Jits_ISO_8,3,5,56,103,1341107488
1914,7,Jits_ISO_8,0,5,63,98,1341808180
1914,7,Jits_ISO_8,1,1,48,91,1341830224
1914,7,Jits_ISO_8,2,5,80,127,1341887864
1914,7,Jits_ISO_8,3,5,56,103,1341908288
1914,7,Jits_ISO_8,0,1,48,110,1342628476
1914,7,Jits_ISO_8,1,5,56,103,1342647876
1914,7,Jits_ISO_8,2,5,63,98,1342658128
1914,7,Jits_ISO_8,3,5,80,127,1342697924
1914,7,Jits_ISO_8,0,5,56,103,1343367504
1914,7,Jits_ISO_8,1,5,80,127,1343370564
1914,7,Jits_ISO_8,2,1,48,107,1343417540
1914,7,Jits_ISO_8,3,5,63,98,1343508056
1914,7,Jits_ISO_8,0,5,56,103,1344157920
1914,7,Jits_ISO_8,1,1,48,81,1344210472
1914,7,Jits_ISO_8,2,5,63,98,1344248120
1914,7,Jits_ISO_8,3,5,80,127,1344317744
1914,7,Jits_ISO_8,0,1,48,115,1344977448
1914,7,Jits_ISO_8,1,5,63,98,1345037756
1914,7,Jits_ISO_8,2,5,80,127,1345040968
1914,7,Jits_ISO_8,3,5,56,103,1345098032
1914,7,Jits_ISO_8,0,1,48,94,1345782120
1914,7,Jits_ISO_8,1,5,80,127,1345878476
1914,7,Jits_ISO_8,2,5,56,103,1345897708
1914,7,Jits_ISO_8,3,5,63,98,1345908036
1914,7,Jits_ISO_8,0,5,56,103,1346587952
1914,7,Jits_ISO_8,1,5,63,98,1346598208
1914,7,Jits_ISO_8,2,1,48,93,1346621288
1914,7,Jits_ISO_8,3,5,80,127,1346667840
1914,7,Jits_ISO_8,0,1,48,103,1347387912
1914,7,Jits_ISO_8,1,5,80,127,1347389624
1914,7,Jits_ISO_8,2,5,56,103,1347437880
1914,7,Jits_ISO_8,3,5,63,98,1347488228
1914,7,Jits_ISO_8,0,1,48,94,1348169760
1914,7,Jits_ISO_8,1,5,56,103,1348268524
1914,7,Jits_ISO_8,2,5,63,98,1348277884
1914,7,Jits_ISO_8,3,5,80,127,1348317828
1914,7,Jits_ISO_8,0,5,56,103,1349007668
1914,7,Jits_ISO_8,1,1,48,127,1349013044
1914,7,Jits_ISO_8,2,5,63,98,1349047560
1914,7,Jits_ISO_8,3,5,80,127,1349097828
1914,7,Jits_ISO_8,0,5,80,127,1349767552
1914,7,Jits_ISO_8,1,1,48,114,1349806524
1914,7,Jits_ISO_8,2,5,56,103,1349817692
1914,7,Jits_ISO_8,3,5,63,98,1349838192
1914,7,Jits_ISO_8,0,5,80,127,1350577572
1914,7,Jits_ISO_8,1,1,48,97,1350607764
1914,7,Jits_ISO_8,2,5,63,98,1350638008
1914,7,Jits_ISO_8,3,5,56,103,1350717804
1914,7,Jits_ISO_8,0,5,80,127,1351357944
1914,7,Jits_ISO_8,1,5,56,103,1351397668
1914,7,Jits_ISO_8,2,1,48,123,1351398632
1914,7,Jits_ISO_8,3,5,63,98,1351418232
1914,7,Jits_ISO_8,0,1,48,99,1352196260
1914,7,Jits_ISO_8,1,5,56,103,1352207800
1914,7,Jits_ISO_8,2,5,80,127,1352217980
1914,7,Jits_ISO_8,3,5,63,98,1352257924
1914,7,Jits_ISO_8,0,1,48,127,1352983176
1914,7,Jits_ISO_8,1,5,56,103,1353078132
1914,7,Jits_ISO_8,2,5,63,98,1353118088
1914,7,Jits_ISO_8,3,5,80,127,1353121520
1914,7,Jits_ISO_8,0,5,63,98,1353768608
1914,7,Jits_ISO_8,1,1,48,71,1353792960
1914,7,Jits_ISO_8,2,5,80,127,1353808472
1914,7,Jits_ISO_8,3,5,56,103,1353877840
1914,7,Jits_ISO_8,0,5,63,98,1354557788
1914,7,Jits_ISO_8,1,1,48,102,1354559124
1914,7,Jits_ISO_8,2,5,56,103,1354637668
1914,7,Jits_ISO_8,3,5,80,127,1354698044
1914,7,Jits_ISO_8,0,1,48,106,1355350160
1914,7,Jits_ISO_8,1,5,80,127,1355367840
1914,7,Jits_ISO_8,2,5,63,98,1355418208
1914,7,Jits_ISO_8,3,5,56,103,1355447684
1914,7,Jits_ISO_8,0,1,48,120,1356156504
1914,7,Jits_ISO_8,1,5,56,103,1356158240
1914,7,Jits_ISO_8,2,5,63,98,1356207564
1914,7,Jits_ISO_8,3,5,80,127,1356217744
1914,7,Jits_ISO_8,0,1,48,111,1356943520
1914,7,Jits_ISO_8,1,5,56,103,1356968408
1914,7,Jits_ISO_8,2,5,63,98,1357077752
1914,7,Jits_ISO_8,3,5,80,127,1357098476
1914,7,Jits_ISO_8,0,5,63,98,1357768168
1914,7,Jits_ISO_8,1,1,48,109,1357779288
1914,7,Jits_ISO_8,2,5,80,127,1357818352
1914,7,Jits_ISO_8,3,5,56,103,1357908396
1914,7,Jits_ISO_8,0,5,63,98,1358557580
1914,7,Jits_ISO_8,1,1,48,96,1358571912
1914,7,Jits_ISO_8,2,5,80,127,1358588248
1914,7,Jits_ISO_8,3,5,56,103,1358678288
1914,7,Jits_ISO_8,0,5,63,98,1359358348
1914,7,Jits_ISO_8,1,1,48,109,1359360432
1914,7,Jits_ISO_8,2,5,56,103,1359367476
1914,7,Jits_ISO_8,3,5,80,127,1359468136
1914,7,Jits_ISO_8,0,1,48,95,1360150196
1914,7,Jits_ISO_8,1,5,63,98,1360258368
1914,7,Jits_ISO_8,2,5,80,127,1360288092
1914,7,Jits_ISO_8,3,5,56,103,1360318016
1914,7,Jits_ISO_8,0,1,48,88,1360977608
1914,7,Jits_ISO_8,1,5,80,127,1361077648
1914,7,Jits_ISO_8,2,5,63,98,1361088052
1914,7,Jits_ISO_8,3,5,56,103,1361117528
1914,7,Jits_ISO_8,0,5,80,127,1361777968
1914,7,Jits_ISO_8,1,5,63,98,1361797424
1914,7,Jits_ISO_8,2,1,48,89,1361825604
1914,7,Jits_ISO_8,3,5,56,103,1361847560
1914,7,Jits_ISO_8,0,1,48,95,1362550516
1914,7,Jits_ISO_8,1,5,63,98,1362607348
1914,7,Jits_ISO_8,2,5,80,127,1362668072
1914,7,Jits_ISO_8,3,5,56,103,1362688348
1914,7,Jits_ISO_8,0,1,48,101,1363334532
1914,7,Jits_ISO_8,1,5,63,98,1363368328
1914,7,Jits_ISO_8,2,5,56,103,1363417404
1914,7,Jits_ISO_8,3,5,80,127,1363427864
1914,7,Jits_ISO_8,0,1,48,88,1364126464
1914,7,Jits_ISO_8,1,5,56,103,1364198068
1914,7,Jits_ISO_8,2,5,80,127,1364208100
1914,7,Jits_ISO_8,3,5,63,98,1364308312
1914,7,Jits_ISO_8,0,1,48,108,1364901948
1914,7,Jits_ISO_8,1,5,80,127,1364957480
1914,7,Jits_ISO_8,2,5,63,98,1364967956
1914,7,Jits_ISO_8,3,5,56,103,1365118280
1914,7,Jits_ISO_8,0,1,48,101,1365656976
1914,7,Jits_ISO_8,1,5,63,98,1365767536
1914,7,Jits_ISO_8,2,5,80,127,1365807560
1914,7,Jits_ISO_8,3,5,56,103,1365888340
1914,7,Jits_ISO_8,0,1,48,102,1366429416
1914,7,Jits_ISO_8,1,5,56,103,1366558008
1914,7,Jits_ISO_8,2,5,80,127,1366658392
1914,7,Jits_ISO_8,3,5,63,98,1366677944
1914,7,Jits_ISO_8,0,1,48,96,1367279736
1914,7,Jits_ISO_8,1,5,80,127,1367418196
1914,7,Jits_ISO_8,2,5,56,103,1367427404
1914,7,Jits_ISO_8,3,5,63,98,1367517488
1914,7,Jits_ISO_8,0,1,48,106,1368064788
1914,7,Jits_ISO_8,1,5,56,103,1368217952
1914,7,Jits_ISO_8,2,5,63,98,1368237556
1914,7,Jits_ISO_8,3,5,80,127,1368318188
1914,7,Jits_ISO_8,0,1,48,97,1368880708
1914,7,Jits_ISO_8,1,5,63,98,1368967728
1914,7,Jits_ISO_8,2,5,56,103,1369057724
1914,7,Jits_ISO_8,3,5,80,127,1369060860
1914,7,Jits_ISO_8,0,1,48,76,1369676320
1914,7,Jits_ISO_8,1,5,56,103,1369798124
1914,7,Jits_ISO_8,2,5,80,127,1369858488
1914,7,Jits_ISO_8,3,5,63,98,1369867772
1914,7,Jits_ISO_8,0,1,48,111,1370533576
1914,7,Jits_ISO_8,1,5,80,127,1370647968
1914,7,Jits_ISO_8,2,5,56,103,1370658292
1914,7,Jits_ISO_8,3,5,63,98,1370661280
1914,7,Jits_ISO_8,0,1,48,120,1371361004
1914,7,Jits_ISO_8,1,5,56,103,1371407784
1914,7,Jits_ISO_8,2,5,80,127,1371418036
1914,7,Jits_ISO_8,3,5,63,98,1371437716
1914,7,Jits_ISO_8,0,1,48,110,1372159560
1914,7,Jits_ISO_8,1,5,63,98,1372177692
1914,7,Jits_ISO_8,2,5,80,127,1372238280
1914,7,Jits_ISO_8,3,5,56,103,1372288384
1914,7,Jits_ISO_8,0,1,48,99,1372968740
1914,7,Jits_ISO_8,1,5,63,98,1373058672
1914,7,Jits_ISO_8,2,5,56,103,1373067568
1914,7,Jits_ISO_8,3,5,80,127,1373117788
1914,7,Jits_ISO_8,0,1,48,104,1373753732
1914,7,Jits_ISO_8,1,5,63,98,1373758028
1914,7,Jits_ISO_8,2,5,80,127,1373778528
1914,7,Jits_ISO_8,3,5,56,103,1373787440
1914,7,Jits_ISO_8,0,1,48,100,1374555192
1914,7,Jits_ISO_8,1,5,63,98,1374557620
1914,7,Jits_ISO_8,2,5,80,127,1374560828
1914,7,Jits_ISO_8,3,5,56,103,1374597640
1914,7,Jits_ISO_8,0,1,48,85,1375360988
1914,7,Jits_ISO_8,1,5,63,98,1375427840
1914,7,Jits_ISO_8,2,5,80,127,1375457600
1914,7,Jits_ISO_8,3,5,56,103,1375467780
1914,7,Jits_ISO_8,0,1,48,108,1376152664
1914,7,Jits_ISO_8,1,5,56,103,1376177604
1914,7,Jits_ISO_8,2,5,80,127,1376208424
1914,7,Jits_ISO_8,3,5,63,98,1376237904
1914,7,Jits_ISO_8,0,1,48,95,1376973276
1914,7,Jits_ISO_8,1,5,63,98,1377077568
1914,7,Jits_ISO_8,2,5,56,103,1377117512
1914,7,Jits_ISO_8,3,5,80,127,1377120572
1914,7,Jits_ISO_8,0,5,80,127,1377777908
1914,7,Jits_ISO_8,1,1,48,112,1377808548
1914,7,Jits_ISO_8,2,5,56,103,1377858012
1914,7,Jits_ISO_8,3,5,63,98,1377908260
1914,7,Jits_ISO_8,0,5,80,127,1378558508
1914,7,Jits_ISO_8,1,1,48,99,1378564828
1914,7,Jits_ISO_8,2,5,56,103,1378577732
1914,7,Jits_ISO_8,3,5,63,98,1378667776
1914,7,Jits_ISO_8,0,1,48,113,1379322376
1914,7,Jits_ISO_8,1,5,80,127,1379397956
1914,7,Jits_ISO_8,2,5,63,98,1379437888
1914,7,Jits_ISO_8,3,5,56,103,1379477860
1914,7,Jits_ISO_8,0,1,48,110,1380131184
1914,7,Jits_ISO_8,1,5,63,98,1380168016
1914,7,Jits_ISO_8,2,5,80,127,1380227472
1914,7,Jits_ISO_8,3,5,56,103,1380258316
1914,7,Jits_ISO_8,0,1,48,105,1380941032
1914,7,Jits_ISO_8,1,5,56,103,1380967764
1914,7,Jits_ISO_8,2,5,80,127,1380997468
1914,7,Jits_ISO_8,3,5,63,98,1381087532
1914,7,Jits_ISO_8,0,1,48,120,1381714520
1914,7,Jits_ISO_8,1,5,56,103,1381777712
1914,7,Jits_ISO_8,2,5,80,127,1381888324
1914,7,Jits_ISO_8,3,5,63,98,1381918320
1914,7,Jits_ISO_8,0,1,48,119,1382565384
1914,7,Jits_ISO_8,1,5,56,103,1382627584
1914,7,Jits_ISO_8,2,5,63,98,1382688084
1914,7,Jits_ISO_8,3,5,80,127,1382717784
1914,7,Jits_ISO_8,0,5,56,103,1383397876
1914,7,Jits_ISO_8,1,1,48,127,1383412576
1914,7,Jits_ISO_8,2,5,63,98,1383468332
1914,7,Jits_ISO_8,3,5,80,127,1383487788
1914,7,Jits_ISO_8,0,5,80,127,1384168084
1914,7,Jits_ISO_8,1,5,63,98,1384188212
1914,7,Jits_ISO_8,2,1,48,103,1384232088
1914,7,Jits_ISO_8,3,5,56,103,1384237504
1914,7,Jits_ISO_8,0,9999,9999,9999,1289435232
1914,7,Jits_ISO_8,1,9999,9999,9999,1290235996
1914,7,Jits_ISO_8,2,9999,9999,9999,1291035764
1914,7,Jits_ISO_8,3,9999,9999,9999,1291835504
1914,7,Jits_ISO_8,4,9999,9999,9999,1292635244
1914,7,Jits_ISO_8,5,9999,9999,9999,1293436016
1914,7,Jits_ISO_8,6,9999,9999,9999,1294235708
1914,7,Jits_ISO_8,7,9999,9999,9999,1295035456
1914,7,Jits_ISO_8,8,9999,9999,9999,1295835216
1914,7,Jits_ISO_8,9,9999,9999,9999,1296635976
1914,7,Jits_ISO_8,10,9999,9999,9999,1297435720
1914,7,Jits_ISO_8,11,9999,9999,9999,1298235448
1914,7,Jits_ISO_8,12,9999,9999,9999,1299035256
1914,7,Jits_ISO_8,13,9999,9999,9999,1299835964
1914,7,Jits_ISO_8,14,9999,9999,9999,1300635704
1914,7,Jits_ISO_8,15,9999,9999,9999,1301435512
1914,7,Jits_ISO_8,16,9999,9999,9999,1302235248
1914,7,Jits_ISO_8,17,9999,9999,9999,1303035976
1914,7,Jits_ISO_8,18,9999,9999,9999,1303835732
1914,7,Jits_ISO_8,19,9999,9999,9999,1304635488
1914,7,Jits_ISO_8,20,9999,9999,9999,1305435236
1914,7,Jits_ISO_8,21,9999,9999,9999,1306236008
1914,7,Jits_ISO_8,22,9999,9999,9999,1307035704
1914,7,Jits_ISO_8,23,9999,9999,9999,1307835456
1914,7,Jits_ISO_8,24,9999,9999,9999,1308635256
1914,7,Jits_ISO_8,25,9999,9999,9999,1309435980
1914,7,Jits_ISO_8,26,9999,9999,9999,1310235708
1914,7,Jits_ISO_8,27,9999,9999,9999,1311035464
1914,7,Jits_ISO_8,28,9999,9999,9999,1311835216
1914,7,Jits_ISO_8,29,9999,9999,9999,1312636020
1914,7,Jits_ISO_8,30,9999,9999,9999,1313435716
1914,7,Jits_ISO_8,31,9999,9999,9999,1314235468
1914,7,Jits_ISO_8,32,9999,9999,9999,1315035216
1914,7,Jits_ISO_8,33,9999,9999,9999,1315835980
1914,7,Jits_ISO_8,34,9999,9999,9999,1316635708
1914,7,Jits_ISO_8,35,9999,9999,9999,1317435468
1914,7,Jits_ISO_8,36,9999,9999,9999,1318235224
1914,7,Jits_ISO_8,37,9999,9999,9999,1319036000
1914,7,Jits_ISO_8,38,9999,9999,9999,1319835744
1914,7,Jits_ISO_8,39,9999,9999,9999,1320635472
1914,7,Jits_ISO_8,40,9999,9999,9999,1321435200
1914,7,Jits_ISO_8,41,9999,9999,9999,1322235972
1914,7,Jits_ISO_8,42,9999,9999,9999,1323035768
1914,7,Jits_ISO_8,43,9999,9999,9999,1323835512
1914,7,Jits_ISO_8,44,9999,9999,9999,1324635220
1914,7,Jits_ISO_8,45,9999,9999,9999,1325435992
1914,7,Jits_ISO_8,46,9999,9999,9999,1326235744
1914,7,Jits_ISO_8,47,9999,9999,9999,1327035464
1914,7,Jits_ISO_8,48,9999,9999,9999,1327835192
1914,7,Jits_ISO_8,49,9999,9999,9999,1328635984
1914,7,Jits_ISO_8,50,9999,9999,9999,1329435732
1914,7,Jits_ISO_8,51,9999,9999,9999,1330235484
1914,7,Jits_ISO_8,52,9999,9999,9999,1331035212
1914,7,Jits_ISO_8,53,9999,9999,9999,1331835992
1914,7,Jits_ISO_8,54,9999,9999,9999,1332635760
1914,7,Jits_ISO_8,55,9999,9999,9999,1333435500
1914,7,Jits_ISO_8,56,9999,9999,9999,1334235224
1914,7,Jits_ISO_8,57,9999,9999,9999,1335036024
1914,7,Jits_ISO_8,58,9999,9999,9999,1335835748
1914,7,Jits_ISO_8,59,9999,9999,9999,1336635472
1914,7,Jits_ISO_8,60,9999,9999,9999,1337435224
1914,7,Jits_ISO_8,61,9999,9999,9999,1338236020
1914,7,Jits_ISO_8,62,9999,9999,9999,1339035712
1914,7,Jits_ISO_8,63,9999,9999,9999,1339835516
1914,7,Jits_ISO_8,64,9999,9999,9999,1340635200
1914,7,Jits_ISO_8,65,9999,9999,9999,1341435996
1914,7,Jits_ISO_8,66,9999,9999,9999,1342235756
1914,7,Jits_ISO_8,67,9999,9999,9999,1343035488
1914,7,Jits_ISO_8,68,9999,9999,9999,1343835228
1914,7,Jits_ISO_8,69,9999,9999,9999,1344636024
1914,7,Jits_ISO_8,70,9999,9999,9999,1345435708
1914,7,Jits_ISO_8,71,9999,9999,9999,1346235468
1914,7,Jits_ISO_8,72,9999,9999,9999,1347035192
1914,7,Jits_ISO_8,73,9999,9999,9999,1347835976
1914,7,Jits_ISO_8,74,9999,9999,9999,1348635736
1914,7,Jits_ISO_8,75,9999,9999,9999,1349435464
1914,7,Jits_ISO_8,76,9999,9999,9999,1350235212
1914,7,Jits_ISO_8,77,9999,9999,9999,1351036008
1914,7,Jits_ISO_8,78,9999,9999,9999,1351835768
1914,7,Jits_ISO_8,79,9999,9999,9999,1352635448
1914,7,Jits_ISO_8,80,9999,9999,9999,1353435248
1914,7,Jits_ISO_8,81,9999,9999,9999,1354235968
1914,7,Jits_ISO_8,82,9999,9999,9999,1355035768
1914,7,Jits_ISO_8,83,9999,9999,9999,1355835504
1914,7,Jits_ISO_8,84,9999,9999,9999,1356635252
1914,7,Jits_ISO_8,85,9999,9999,9999,1357435976
1914,7,Jits_ISO_8,86,9999,9999,9999,1358235752
1914,7,Jits_ISO_8,87,9999,9999,9999,1359035484
1914,7,Jits_ISO_8,88,9999,9999,9999,1359835208
1914,7,Jits_ISO_8,89,9999,9999,9999,1360636000
1914,7,Jits_ISO_8,90,9999,9999,9999,1361435732
1914,7,Jits_ISO_8,91,9999,9999,9999,1362235452
1914,7,Jits_ISO_8,92,9999,9999,9999,1363035200
1914,7,Jits_ISO_8,93,9999,9999,9999,1363835968
1914,7,Jits_ISO_8,94,9999,9999,9999,1364635744
1914,7,Jits_ISO_8,95,9999,9999,9999,1365435464
1914,7,Jits_ISO_8,96,9999,9999,9999,1366235216
1914,7,Jits_ISO_8,97,9999,9999,9999,1367036012
1914,7,Jits_ISO_8,98,9999,9999,9999,1367835768
1914,7,Jits_ISO_8,99,9999,9999,9999,1368635500
1914,7,Jits_ISO_8,100,9999,9999,9999,1369435240
1914,7,Jits_ISO_8,101,9999,9999,9999,1370236012
1914,7,Jits_ISO_8,102,9999,9999,9999,1371035756
1914,7,Jits_ISO_8,103,9999,9999,9999,1371835508
1914,7,Jits_ISO_8,104,9999,9999,9999,1372635260
1914,7,Jits_ISO_8,105,9999,9999,9999,1373435992
1914,7,Jits_ISO_8,106,9999,9999,9999,1374235708
1914,7,Jits_ISO_8,107,9999,9999,9999,1375035516
1914,7,Jits_ISO_8,108,9999,9999,9999,1375835196
1914,7,Jits_ISO_8,109,9999,9999,9999,1376635968
1914,7,Jits_ISO_8,110,9999,9999,9999,1377435744
1914,7,Jits_ISO_8,111,9999,9999,9999,1378235472
1914,7,Jits_ISO_8,112,9999,9999,9999,1379035216
1914,7,Jits_ISO_8,113,9999,9999,9999,1379836004
1914,7,Jits_ISO_8,114,9999,9999,9999,1380635756
1914,7,Jits_ISO_8,115,9999,9999,9999,1381435504
1914,7,Jits_ISO_8,116,9999,9999,9999,1382235188
1914,7,Jits_ISO_8,117,9999,9999,9999,1383035988
1914,7,Jits_ISO_8,118,9999,9999,9999,1383835768
1914,7,Jits_ISO_8,119,9999,9999,9999,1384635444
1915,19,Jits_Linear_5,0,5,56,103,1399196140
1915,19,Jits_Linear_5,1,5,63,98,1399199012
1915,19,Jits_Linear_5,2,5,80,127,1399202352
1915,19,Jits_Linear_5,0,5,56,103,1399676376
1915,19,Jits_Linear_5,1,5,63,98,1399679320
1915,19,Jits_Linear_5,2,5,80,127,1399682364
1915,19,Jits_Linear_5,0,1,48,84,1400150712
1915,19,Jits_Linear_5,1,5,56,103,1400155608
1915,19,Jits_Linear_5,2,5,80,127,1400165864
1915,19,Jits_Linear_5,3,5,63,98,1400186364
1915,19,Jits_Linear_5,0,5,63,98,1400585448
1915,19,Jits_Linear_5,1,1,48,103,1400616120
1915,19,Jits_Linear_5,2,5,80,127,1400617752
1915,19,Jits_Linear_5,3,5,56,103,1400625472
1915,19,Jits_Linear_5,0,1,48,111,1401062736
1915,19,Jits_Linear_5,1,5,80,127,1401126204
1915,19,Jits_Linear_5,2,5,56,103,1401135560
1915,19,Jits_Linear_5,3,5,63,98,1401166220
1915,19,Jits_Linear_5,0,1,48,102,1401549524
1915,19,Jits_Linear_5,1,5,63,98,1401605360
1915,19,Jits_Linear_5,2,5,56,103,1401636328
1915,19,Jits_Linear_5,3,5,80,127,1401645388
1915,19,Jits_Linear_5,0,1,48,97,1402037728
1915,19,Jits_Linear_5,1,5,56,103,1402046056
1915,19,Jits_Linear_5,2,5,63,98,1402096104
1915,19,Jits_Linear_5,3,5,80,127,1402115484
1915,19,Jits_Linear_5,0,1,48,98,1402530236
1915,19,Jits_Linear_5,1,5,80,127,1402536248
1915,19,Jits_Linear_5,2,5,63,98,1402585400
1915,19,Jits_Linear_5,3,5,56,103,1402626452
1915,19,Jits_Linear_5,0,1,48,103,1403001176
1915,19,Jits_Linear_5,1,5,56,103,1403025692
1915,19,Jits_Linear_5,2,5,63,98,1403055468
1915,19,Jits_Linear_5,3,5,80,127,1403126068
1915,19,Jits_Linear_5,0,1,48,97,1403452864
1915,19,Jits_Linear_5,1,5,56,103,1403516256
1915,19,Jits_Linear_5,2,5,80,127,1403575664
1915,19,Jits_Linear_5,3,5,63,98,1403606264
1915,19,Jits_Linear_5,0,1,48,100,1403920996
1915,19,Jits_Linear_5,1,5,56,103,1404016232
1915,19,Jits_Linear_5,2,5,63,98,1404026188
1915,19,Jits_Linear_5,3,5,80,127,1404066084
1915,19,Jits_Linear_5,0,1,48,105,1404388848
1915,19,Jits_Linear_5,1,5,63,98,1404505400
1915,19,Jits_Linear_5,2,5,80,127,1404586284
1915,19,Jits_Linear_5,3,5,56,103,1404595420
1915,19,Jits_Linear_5,0,1,48,102,1404878756
1915,19,Jits_Linear_5,1,5,63,98,1405056420
1915,19,Jits_Linear_5,2,5,56,103,1405096468
1915,19,Jits_Linear_5,3,5,80,127,1405099380
1915,19,Jits_Linear_5,0,1,48,105,1405360960
1915,19,Jits_Linear_5,1,5,56,103,1405516188
1915,19,Jits_Linear_5,2,5,63,98,1405526296
1915,19,Jits_Linear_5,3,5,80,127,1405566316
1915,19,Jits_Linear_5,0,1,48,97,1405853188
1915,19,Jits_Linear_5,1,5,56,103,1406005580
1915,19,Jits_Linear_5,2,5,63,98,1406008940
1915,19,Jits_Linear_5,3,5,80,127,1406026080
1915,19,Jits_Linear_5,0,1,48,94,1406338268
1915,19,Jits_Linear_5,1,5,80,127,1406525972
1915,19,Jits_Linear_5,2,5,56,103,1406536080
1915,19,Jits_Linear_5,3,5,63,98,1406605596
1915,19,Jits_Linear_5,0,1,48,95,1406823904
1915,19,Jits_Linear_5,1,5,63,98,1407025496
1915,19,Jits_Linear_5,2,5,56,103,1407046144
1915,19,Jits_Linear_5,3,5,80,127,1407126060
1915,19,Jits_Linear_5,0,1,48,98,1407333900
1915,19,Jits_Linear_5,1,5,56,103,1407545736
1915,19,Jits_Linear_5,2,5,80,127,1407585984
1915,19,Jits_Linear_5,3,5,63,98,1407596016
1915,19,Jits_Linear_5,4,1,48,82,1407813488
1915,19,Jits_Linear_5,0,5,80,127,1408045432
1915,19,Jits_Linear_5,1,5,63,98,1408076032
1915,19,Jits_Linear_5,2,5,56,103,1408116128
1915,19,Jits_Linear_5,3,1,48,104,1408303552
1915,19,Jits_Linear_5,0,5,56,103,1408576032
1915,19,Jits_Linear_5,1,5,63,98,1408605588
1915,19,Jits_Linear_5,2,5,80,127,1408655804
1915,19,Jits_Linear_5,3,1,48,101,1408836996
1915,19,Jits_Linear_5,0,5,80,127,1409096024
1915,19,Jits_Linear_5,1,5,56,103,1409135972
1915,19,Jits_Linear_5,2,5,63,98,1409146076
1915,19,Jits_Linear_5,3,1,48,112,1409339776
1915,19,Jits_Linear_5,0,5,80,127,1409595736
1915,19,Jits_Linear_5,1,5,63,98,1409635832
1915,19,Jits_Linear_5,2,5,56,103,1409696148
1915,19,Jits_Linear_5,3,1,48,79,1409873212
1915,19,Jits_Linear_5,0,5,56,103,1410115932
1915,19,Jits_Linear_5,1,5,80,127,1410126260
1915,19,Jits_Linear_5,2,5,63,98,1410206096
1915,19,Jits_Linear_5,3,1,48,113,1410422352
1915,19,Jits_Linear_5,0,5,80,127,1410636136
1915,19,Jits_Linear_5,1,5,63,98,1410695828
1915,19,Jits_Linear_5,2,5,56,103,1410726156
1915,19,Jits_Linear_5,0,1,48,106,1410977552
1915,19,Jits_Linear_5,1,5,56,103,1411165540
1915,19,Jits_Linear_5,2,5,80,127,1411225860
1915,19,Jits_Linear_5,3,5,63,98,1411265880
1915,19,Jits_Linear_5,0,1,48,103,1411500528
1915,19,Jits_Linear_5,1,5,56,103,1411746136
1915,19,Jits_Linear_5,2,5,63,98,1411756392
1915,19,Jits_Linear_5,3,5,80,127,1411759824
1915,19,Jits_Linear_5,0,1,48,100,1412016468
1915,19,Jits_Linear_5,1,5,80,127,1412226372
1915,19,Jits_Linear_5,2,5,63,98,1412315784
1915,19,Jits_Linear_5,3,5,56,103,1412325892
1915,19,Jits_Linear_5,0,1,48,109,1412544272
1915,19,Jits_Linear_5,1,5,56,103,1412755864
1915,19,Jits_Linear_5,2,5,63,98,1412759032
1915,19,Jits_Linear_5,3,5,80,127,1412762072
1915,19,Jits_Linear_5,0,1,48,106,1413086708
1915,19,Jits_Linear_5,1,5,80,127,1413305684
1915,19,Jits_Linear_5,2,5,63,98,1413355804
1915,19,Jits_Linear_5,3,5,56,103,1413385580
1915,19,Jits_Linear_5,0,1,48,103,1413647760
1915,19,Jits_Linear_5,1,5,56,103,1413815648
1915,19,Jits_Linear_5,2,5,80,127,1413825756
1915,19,Jits_Linear_5,3,5,63,98,1413895916
1915,19,Jits_Linear_5,0,1,48,113,1414204324
1915,19,Jits_Linear_5,1,5,56,103,1414356200
1915,19,Jits_Linear_5,2,5,63,98,1414375656
1915,19,Jits_Linear_5,3,5,80,127,1414436168
1915,19,Jits_Linear_5,0,1,48,108,1414733636
1915,19,Jits_Linear_5,1,5,80,127,1414885828
1915,19,Jits_Linear_5,2,5,63,98,1414956664
1915,19,Jits_Linear_5,3,5,56,103,1414975972
1915,19,Jits_Linear_5,0,1,48,109,1415250412
1915,19,Jits_Linear_5,1,5,80,127,1415445832
1915,19,Jits_Linear_5,2,5,56,103,1415456232
1915,19,Jits_Linear_5,3,5,63,98,1415466560
1915,19,Jits_Linear_5,0,1,48,111,1415770688
1915,19,Jits_Linear_5,1,5,80,127,1415976504
1915,19,Jits_Linear_5,2,5,56,103,1415995812
1915,19,Jits_Linear_5,3,5,63,98,1416066496
1915,19,Jits_Linear_5,0,1,48,77,1416299496
1915,19,Jits_Linear_5,1,5,56,103,1416526480
1915,19,Jits_Linear_5,2,5,80,127,1416555812
1915,19,Jits_Linear_5,3,5,63,98,1416576608
1915,19,Jits_Linear_5,0,1,48,112,1416848508
1915,19,Jits_Linear_5,1,5,63,98,1417065816
1915,19,Jits_Linear_5,2,5,56,103,1417126356
1915,19,Jits_Linear_5,3,5,80,127,1417155984
1915,19,Jits_Linear_5,0,1,48,95,1417384512
1915,19,Jits_Linear_5,1,5,63,98,1417605604
1915,19,Jits_Linear_5,2,5,80,127,1417608888
1915,19,Jits_Linear_5,3,5,56,103,1417695612
1915,19,Jits_Linear_5,4,1,48,112,1417910328
1915,19,Jits_Linear_5,0,5,56,103,1418175928
1915,19,Jits_Linear_5,1,5,63,98,1418205556
1915,19,Jits_Linear_5,2,5,80,127,1418245500
1915,19,Jits_Linear_5,3,1,48,97,1418454984
1915,19,Jits_Linear_5,0,5,63,98,1418725896
1915,19,Jits_Linear_5,1,5,56,103,1418765772
1915,19,Jits_Linear_5,2,5,80,127,1418786420
1915,19,Jits_Linear_5,3,1,48,91,1419011156
1915,19,Jits_Linear_5,0,5,63,98,1419285800
1915,19,Jits_Linear_5,1,5,56,103,1419325672
1915,19,Jits_Linear_5,2,5,80,127,1419336300
1915,19,Jits_Linear_5,0,1,48,87,1419600836
1915,19,Jits_Linear_5,1,5,80,127,1419816380
1915,19,Jits_Linear_5,2,5,63,98,1419886024
1915,19,Jits_Linear_5,3,5,56,103,1419906300
1915,19,Jits_Linear_5,0,1,48,104,1420205876
1915,19,Jits_Linear_5,1,5,56,103,1420366480
1915,19,Jits_Linear_5,2,5,80,127,1420385716
1915,19,Jits_Linear_5,3,5,63,98,1420425588
1915,19,Jits_Linear_5,0,1,48,115,1420804404
1915,19,Jits_Linear_5,1,5,63,98,1420935460
1915,19,Jits_Linear_5,2,5,80,127,1420956132
1915,19,Jits_Linear_5,3,5,56,103,1420996304
1915,19,Jits_Linear_5,0,1,48,111,1421377332
1915,19,Jits_Linear_5,1,5,63,98,1421495628
1915,19,Jits_Linear_5,2,5,56,103,1421516280
1915,19,Jits_Linear_5,3,5,80,127,1421526236
1915,19,Jits_Linear_5,0,1,48,108,1421929696
1915,19,Jits_Linear_5,1,5,80,127,1422055920
1915,19,Jits_Linear_5,2,5,56,103,1422076200
1915,19,Jits_Linear_5,3,5,63,98,1422106052
1915,19,Jits_Linear_5,0,1,48,99,1422482304
1915,19,Jits_Linear_5,1,5,56,103,1422695880
1915,19,Jits_Linear_5,2,5,80,127,1422698792
1915,19,Jits_Linear_5,3,5,63,98,1422716232
1915,19,Jits_Linear_5,0,1,48,101,1423039592
1915,19,Jits_Linear_5,1,5,63,98,1423186364
1915,19,Jits_Linear_5,2,5,56,103,1423215916
1915,19,Jits_Linear_5,3,5,80,127,1423276380
1915,19,Jits_Linear_5,0,1,48,110,1423607672
1915,19,Jits_Linear_5,1,5,63,98,1423835404
1915,19,Jits_Linear_5,2,5,56,103,1423845660
1915,19,Jits_Linear_5,3,5,80,127,1423856136
1915,19,Jits_Linear_5,0,1,48,104,1424165884
1915,19,Jits_Linear_5,1,5,56,103,1424355692
1915,19,Jits_Linear_5,2,5,80,127,1424386436
1915,19,Jits_Linear_5,3,5,63,98,1424395648
1915,19,Jits_Linear_5,0,1,48,90,1424709276
1915,19,Jits_Linear_5,1,5,63,98,1424966104
1915,19,Jits_Linear_5,2,5,56,103,1424976136
1915,19,Jits_Linear_5,3,5,80,127,1424995668
1915,19,Jits_Linear_5,0,1,48,87,1425263268
1915,19,Jits_Linear_5,1,5,56,103,1425465648
1915,19,Jits_Linear_5,2,5,63,98,1425526164
1915,19,Jits_Linear_5,3,5,80,127,1425529448
1915,19,Jits_Linear_5,0,1,48,102,1425839044
1915,19,Jits_Linear_5,1,5,80,127,1426065728
1915,19,Jits_Linear_5,2,5,56,103,1426076428
1915,19,Jits_Linear_5,3,5,63,98,1426145772
1915,19,Jits_Linear_5,0,1,48,88,1426410484
1915,19,Jits_Linear_5,1,1,38,19,1426420560
1915,19,Jits_Linear_5,2,5,80,127,1426636228
1915,19,Jits_Linear_5,3,5,56,103,1426705720
1915,19,Jits_Linear_5,4,5,63,98,1426716272
1915,19,Jits_Linear_5,0,1,48,114,1426978084
1915,19,Jits_Linear_5,1,5,63,98,1427255588
1915,19,Jits_Linear_5,2,5,56,103,1427266064
1915,19,Jits_Linear_5,3,5,80,127,1427286268
1915,19,Jits_Linear_5,0,1,48,118,1427580372
1915,19,Jits_Linear_5,1,5,80,127,1427785964
1915,19,Jits_Linear_5,2,5,63,98,1427845364
1915,19,Jits_Linear_5,3,5,56,103,1427885408
1915,19,Jits_Linear_5,0,1,48,91,1428153108
1915,19,Jits_Linear_5,1,1,38,20,1428162888
1915,19,Jits_Linear_5,2,5,56,103,1428415956
1915,19,Jits_Linear_5,3,5,63,98,1428426208
1915,19,Jits_Linear_5,4,5,80,127,1428466008
1915,19,Jits_Linear_5,0,1,48,112,1428727868
1915,19,Jits_Linear_5,1,5,56,103,1428965816
1915,19,Jits_Linear_5,2,5,80,127,1428995296
1915,19,Jits_Linear_5,3,5,63,98,1429045488
1915,19,Jits_Linear_5,4,1,48,91,1429300064
1915,19,Jits_Linear_5,0,5,56,103,1429595528
1915,19,Jits_Linear_5,1,5,63,98,1429635400
1915,19,Jits_Linear_5,2,5,80,127,1429638760
1915,19,Jits_Linear_5,0,1,48,121,1429944112
1915,19,Jits_Linear_5,1,5,56,103,1430186348
1915,19,Jits_Linear_5,2,5,63,98,1430195704
1915,19,Jits_Linear_5,3,5,80,127,1430215908
1915,19,Jits_Linear_5,0,1,48,112,1430550476
1915,19,Jits_Linear_5,1,5,56,103,1430736172
1915,19,Jits_Linear_5,2,5,80,127,1430739232
1915,19,Jits_Linear_5,3,5,63,98,1430776192
1915,19,Jits_Linear_5,0,1,48,97,1431100592
1915,19,Jits_Linear_5,1,5,63,98,1431366020
1915,19,Jits_Linear_5,2,5,56,103,1431396092
1915,19,Jits_Linear_5,3,5,80,127,1431416072
1915,19,Jits_Linear_5,4,1,48,99,1431669828
1915,19,Jits_Linear_5,0,5,80,127,1431936244
1915,19,Jits_Linear_5,1,5,56,103,1431945524
1915,19,Jits_Linear_5,2,5,63,98,1431956028
1915,19,Jits_Linear_5,3,1,48,110,1432261684
1915,19,Jits_Linear_5,0,5,56,103,1432536352
1915,19,Jits_Linear_5,1,5,80,127,1432576224
1915,19,Jits_Linear_5,2,5,63,98,1432606000
1915,19,Jits_Linear_5,3,1,48,90,1432846376
1915,19,Jits_Linear_5,0,5,63,98,1433145780
1915,19,Jits_Linear_5,1,5,80,127,1433155812
1915,19,Jits_Linear_5,2,5,56,103,1433166068
1915,19,Jits_Linear_5,0,1,48,112,1433499516
1915,19,Jits_Linear_5,1,5,56,103,1433726252
1915,19,Jits_Linear_5,2,5,63,98,1433795992
1915,19,Jits_Linear_5,3,5,80,127,1433806320
1915,19,Jits_Linear_5,0,1,48,101,1434094832
1915,19,Jits_Linear_5,1,5,80,127,1434335644
1915,19,Jits_Linear_5,2,5,56,103,1434345824
1915,19,Jits_Linear_5,3,5,63,98,1434395944
1915,19,Jits_Linear_5,0,1,48,102,1434697628
1915,19,Jits_Linear_5,1,5,80,127,1434956144
1915,19,Jits_Linear_5,2,5,56,103,1435015692
1915,19,Jits_Linear_5,3,5,63,98,1435046240
1915,19,Jits_Linear_5,0,1,48,100,1435309980
1915,19,Jits_Linear_5,1,5,56,103,1435565536
1915,19,Jits_Linear_5,2,5,80,127,1435568672
1915,19,Jits_Linear_5,3,5,63,98,1435606604
1915,19,Jits_Linear_5,0,1,48,105,1435921948
1915,19,Jits_Linear_5,1,5,56,103,1436205560
1915,19,Jits_Linear_5,2,5,63,98,1436236084
1915,19,Jits_Linear_5,3,5,80,127,1436246560
1915,19,Jits_Linear_5,0,1,48,86,1436534396
1915,19,Jits_Linear_5,1,5,63,98,1436836544
1915,19,Jits_Linear_5,2,5,80,127,1436845528
1915,19,Jits_Linear_5,3,5,56,103,1436855636
1915,19,Jits_Linear_5,4,1,48,95,1437096900
1915,19,Jits_Linear_5,0,5,80,127,1437396516
1915,19,Jits_Linear_5,1,5,56,103,1437445592
1915,19,Jits_Linear_5,2,5,63,98,1437448728
1915,19,Jits_Linear_5,3,1,48,100,1437696064
1915,19,Jits_Linear_5,0,5,56,103,1438045664
1915,19,Jits_Linear_5,1,5,80,127,1438066092
1915,19,Jits_Linear_5,2,5,63,98,1438076644
1915,19,Jits_Linear_5,3,1,48,92,1438306100
1915,19,Jits_Linear_5,0,5,63,98,1438645620
1915,19,Jits_Linear_5,1,5,56,103,1438676516
1915,19,Jits_Linear_5,2,5,80,127,1438695748
1915,19,Jits_Linear_5,3,1,48,99,1438949576
1915,19,Jits_Linear_5,0,5,56,103,1439276568
1915,19,Jits_Linear_5,1,5,80,127,1439285556
1915,19,Jits_Linear_5,2,5,63,98,1439356464
1915,19,Jits_Linear_5,3,1,48,91,1439587860
1915,19,Jits_Linear_5,0,5,63,98,1439885724
1915,19,Jits_Linear_5,1,5,80,127,1439925748
1915,19,Jits_Linear_5,2,5,56,103,1439965544
1915,19,Jits_Linear_5,0,1,48,114,1440306316
1915,19,Jits_Linear_5,1,5,56,103,1440525736
1915,19,Jits_Linear_5,2,5,63,98,1440535988
1915,19,Jits_Linear_5,3,5,80,127,1440556340
1915,19,Jits_Linear_5,0,1,48,97,1441011208
1915,19,Jits_Linear_5,1,5,63,98,1441196308
1915,19,Jits_Linear_5,2,5,80,127,1441215764
1915,19,Jits_Linear_5,3,5,56,103,1441236488
1915,19,Jits_Linear_5,0,1,48,112,1441655416
1915,19,Jits_Linear_5,1,5,56,103,1441765708
1915,19,Jits_Linear_5,2,5,80,127,1441845596
1915,19,Jits_Linear_5,3,5,63,98,1441855780
1915,19,Jits_Linear_5,0,1,48,106,1442341392
1915,19,Jits_Linear_5,1,5,80,127,1442445636
1915,19,Jits_Linear_5,2,5,63,98,1442456036
1915,19,Jits_Linear_5,3,5,56,103,1442485588
1915,19,Jits_Linear_5,0,1,48,100,1442974804
1915,19,Jits_Linear_5,1,5,63,98,1443045736
1915,19,Jits_Linear_5,2,5,80,127,1443085672
1915,19,Jits_Linear_5,3,5,56,103,1443146332
1915,19,Jits_Linear_5,0,1,48,109,1443596356
1915,19,Jits_Linear_5,1,5,63,98,1443706240
1915,19,Jits_Linear_5,2,5,56,103,1443756536
1915,19,Jits_Linear_5,3,5,80,127,1443786388
1915,19,Jits_Linear_5,0,1,48,111,1444264312
1915,19,Jits_Linear_5,1,5,80,127,1444355292
1915,19,Jits_Linear_5,2,5,63,98,1444365532
1915,19,Jits_Linear_5,3,5,56,103,1444436364
1915,19,Jits_Linear_5,0,1,48,113,1444881140
1915,19,Jits_Linear_5,1,5,80,127,1445066384
1915,19,Jits_Linear_5,2,5,56,103,1445076344
1915,19,Jits_Linear_5,3,5,63,98,1445079480
1915,19,Jits_Linear_5,0,1,48,105,1445524344
1915,19,Jits_Linear_5,1,5,56,103,1445645604
1915,19,Jits_Linear_5,2,5,80,127,1445666328
1915,19,Jits_Linear_5,3,5,63,98,1445676360
1915,19,Jits_Linear_5,0,1,48,99,1446208352
1915,19,Jits_Linear_5,1,5,63,98,1446296148
1915,19,Jits_Linear_5,2,5,56,103,1446336156
1915,19,Jits_Linear_5,3,5,80,127,1446356432
1915,19,Jits_Linear_5,0,1,48,117,1446915416
1915,19,Jits_Linear_5,1,5,63,98,1446936152
1915,19,Jits_Linear_5,2,5,56,103,1446996296
1915,19,Jits_Linear_5,3,5,80,127,1446999432
1915,19,Jits_Linear_5,0,5,56,103,1447555316
1915,19,Jits_Linear_5,1,5,80,127,1447576140
1915,19,Jits_Linear_5,2,1,48,91,1447589652
1915,19,Jits_Linear_5,3,5,63,98,1447615784
1915,19,Jits_Linear_5,0,1,48,92,1448221568
1915,19,Jits_Linear_5,1,5,56,103,1448236416
1915,19,Jits_Linear_5,2,5,63,98,1448256092
1915,19,Jits_Linear_5,3,5,80,127,1448266052
1915,19,Jits_Linear_5,0,5,80,127,1448856100
1915,19,Jits_Linear_5,1,1,48,101,1448857064
1915,19,Jits_Linear_5,2,5,56,103,1448885496
1915,19,Jits_Linear_5,3,5,63,98,1448925516
1915,19,Jits_Linear_5,0,1,48,109,1449511344
1915,19,Jits_Linear_5,1,5,80,127,1449516388
1915,19,Jits_Linear_5,2,5,56,103,1449535920
1915,19,Jits_Linear_5,3,5,63,98,1449596360
1915,19,Jits_Linear_5,0,1,48,113,1450174920
1915,19,Jits_Linear_5,1,5,56,103,1450176484
1915,19,Jits_Linear_5,2,5,80,127,1450196316
1915,19,Jits_Linear_5,3,5,63,98,1450255860
1915,19,Jits_Linear_5,0,5,80,127,1450816076
1915,19,Jits_Linear_5,1,5,56,103,1450826032
1915,19,Jits_Linear_5,2,1,48,107,1450839468
1915,19,Jits_Linear_5,3,5,63,98,1450866120
1915,19,Jits_Linear_5,0,1,48,106,1451456764
1915,19,Jits_Linear_5,1,5,63,98,1451476460
1915,19,Jits_Linear_5,2,5,56,103,1451516260
1915,19,Jits_Linear_5,3,5,80,127,1451519468
1915,19,Jits_Linear_5,0,1,48,105,1452114068
1915,19,Jits_Linear_5,1,5,63,98,1452156272
1915,19,Jits_Linear_5,2,5,80,127,1452196172
1915,19,Jits_Linear_5,3,5,56,103,1452225856
1915,19,Jits_Linear_5,0,1,48,77,1452757628
1915,19,Jits_Linear_5,1,5,56,103,1452805452
1915,19,Jits_Linear_5,2,5,63,98,1452816004
1915,19,Jits_Linear_5,3,5,80,127,1452845556
1915,19,Jits_Linear_5,0,1,48,100,1453391484
1915,19,Jits_Linear_5,1,5,80,127,1453465896
1915,19,Jits_Linear_5,2,5,63,98,1453535748
1915,19,Jits_Linear_5,3,5,56,103,1453546004
1915,19,Jits_Linear_5,0,1,48,105,1454099088
1915,19,Jits_Linear_5,1,5,63,98,1454135844
1915,19,Jits_Linear_5,2,5,56,103,1454206296
1915,19,Jits_Linear_5,3,5,80,127,1454215728
1915,19,Jits_Linear_5,0,1,48,116,1454786720
1915,19,Jits_Linear_5,1,5,63,98,1454806416
1915,19,Jits_Linear_5,2,5,56,103,1454825872
1915,19,Jits_Linear_5,3,5,80,127,1454865896
1915,19,Jits_Linear_5,0,1,48,101,1455450156
1915,19,Jits_Linear_5,1,5,56,103,1455486308
1915,19,Jits_Linear_5,2,5,63,98,1455495816
1915,19,Jits_Linear_5,3,5,80,127,1455576732
1915,19,Jits_Linear_5,0,5,63,98,1456145792
1915,19,Jits_Linear_5,1,1,48,105,1456153780
1915,19,Jits_Linear_5,2,5,56,103,1456175636
1915,19,Jits_Linear_5,3,5,80,127,1456216704
1915,19,Jits_Linear_5,0,1,48,93,1456795224
1915,19,Jits_Linear_5,1,1,38,21,1456805080
1915,19,Jits_Linear_5,2,5,56,103,1456815572
1915,19,Jits_Linear_5,3,5,63,98,1456856716
1915,19,Jits_Linear_5,4,5,80,127,1456896500
1915,19,Jits_Linear_5,0,1,48,119,1457466824
1915,19,Jits_Linear_5,1,5,80,127,1457496696
1915,19,Jits_Linear_5,2,5,56,103,1457576520
1915,19,Jits_Linear_5,3,5,63,98,1457585656
1915,19,Jits_Linear_5,0,1,48,106,1458176296
1915,19,Jits_Linear_5,1,5,56,103,1458216260
1915,19,Jits_Linear_5,2,5,63,98,1458219472
1915,19,Jits_Linear_5,3,5,80,127,1458225692
1915,19,Jits_Linear_5,0,1,48,126,1458788172
1915,19,Jits_Linear_5,1,5,56,103,1458915744
1915,19,Jits_Linear_5,2,5,63,98,1458936172
1915,19,Jits_Linear_5,3,5,80,127,1458946500
1915,19,Jits_Linear_5,0,1,48,126,1459465708
1915,19,Jits_Linear_5,1,5,63,98,1459555644
1915,19,Jits_Linear_5,2,5,80,127,1459566476
1915,19,Jits_Linear_5,3,5,56,103,1459586604
1915,19,Jits_Linear_5,0,1,48,117,1460161024
1915,19,Jits_Linear_5,1,5,63,98,1460245808
1915,19,Jits_Linear_5,2,5,56,103,1460325680
1915,19,Jits_Linear_5,3,5,80,127,1460328740
1915,19,Jits_Linear_5,0,1,48,65,1460846076
1915,19,Jits_Linear_5,1,5,63,98,1460936108
1915,19,Jits_Linear_5,2,5,56,103,1460955476
1915,19,Jits_Linear_5,3,5,80,127,1460986224
1915,19,Jits_Linear_5,0,1,48,104,1461543384
1915,19,Jits_Linear_5,1,5,56,103,1461626152
1915,19,Jits_Linear_5,2,5,63,98,1461645668
1915,19,Jits_Linear_5,3,5,80,127,1461655920
1915,19,Jits_Linear_5,0,1,48,97,1462269436
1915,19,Jits_Linear_5,1,5,56,103,1462346212
1915,19,Jits_Linear_5,2,5,63,98,1462375820
1915,19,Jits_Linear_5,3,5,80,127,1462379032
1915,19,Jits_Linear_5,0,5,56,103,1462986088
1915,19,Jits_Linear_5,1,1,48,96,1462988680
1915,19,Jits_Linear_5,2,5,63,98,1463026180
1915,19,Jits_Linear_5,3,5,80,127,1463085416
1915,19,Jits_Linear_5,0,1,48,81,1463678876
1915,19,Jits_Linear_5,1,5,56,103,1463695692
1915,19,Jits_Linear_5,2,5,63,98,1463705872
1915,19,Jits_Linear_5,3,5,80,127,1463766532
1915,19,Jits_Linear_5,0,1,48,104,1464372384
1915,19,Jits_Linear_5,1,5,56,103,1464396428
1915,19,Jits_Linear_5,2,5,80,127,1464415660
1915,19,Jits_Linear_5,3,5,63,98,1464446408
1915,19,Jits_Linear_5,0,1,48,91,1465081180
1915,19,Jits_Linear_5,1,5,80,127,1465095424
1915,19,Jits_Linear_5,2,5,56,103,1465105680
1915,19,Jits_Linear_5,3,5,63,98,1465126252
1915,19,Jits_Linear_5,0,1,48,103,1465753428
1915,19,Jits_Linear_5,1,5,63,98,1465785708
1915,19,Jits_Linear_5,2,5,80,127,1465865508
1915,19,Jits_Linear_5,3,5,56,103,1465875760
1915,19,Jits_Linear_5,0,1,48,105,1466451728
1915,19,Jits_Linear_5,1,5,80,127,1466545588
1915,19,Jits_Linear_5,2,5,56,103,1466566300
1915,19,Jits_Linear_5,3,5,63,98,1466569284
1915,19,Jits_Linear_5,0,1,48,104,1467173304
1915,19,Jits_Linear_5,1,5,63,98,1467225404
1915,19,Jits_Linear_5,2,5,80,127,1467228764
1915,19,Jits_Linear_5,3,5,56,103,1467285852
1915,19,Jits_Linear_5,0,5,56,103,1467915500
1915,19,Jits_Linear_5,1,1,48,83,1467917508
1915,19,Jits_Linear_5,2,5,80,127,1467925820
1915,19,Jits_Linear_5,3,1,38,19,1467927904
1915,19,Jits_Linear_5,4,5,63,98,1467965912
1915,19,Jits_Linear_5,0,1,48,110,1468606060
1915,19,Jits_Linear_5,1,5,56,103,1468607548
1915,19,Jits_Linear_5,2,5,63,98,1468666272
1915,19,Jits_Linear_5,3,5,80,127,1468675480
1915,19,Jits_Linear_5,0,1,48,117,1469301924
1915,19,Jits_Linear_5,1,5,63,98,1469325544
1915,19,Jits_Linear_5,2,5,80,127,1469365644
1915,19,Jits_Linear_5,3,5,56,103,1469405576
1915,19,Jits_Linear_5,0,1,48,108,1470033820
1915,19,Jits_Linear_5,1,5,56,103,1470036404
1915,19,Jits_Linear_5,2,5,63,98,1470116244
1915,19,Jits_Linear_5,3,5,80,127,1470119528
1915,19,Jits_Linear_5,0,1,48,86,1470786756
1915,19,Jits_Linear_5,1,5,80,127,1470806452
1915,19,Jits_Linear_5,2,5,56,103,1470836080
1915,19,Jits_Linear_5,3,5,63,98,1470839068
1915,19,Jits_Linear_5,0,5,56,103,1471486200
1915,19,Jits_Linear_5,1,5,80,127,1471505876
1915,19,Jits_Linear_5,2,1,48,100,1471510036
1915,19,Jits_Linear_5,3,5,63,98,1471545820
1915,19,Jits_Linear_5,0,5,80,127,1472185644
1915,19,Jits_Linear_5,1,1,48,106,1472194520
1915,19,Jits_Linear_5,2,5,63,98,1472206284
1915,19,Jits_Linear_5,3,5,56,103,1472265532
1915,19,Jits_Linear_5,0,1,48,100,1472890476
1915,19,Jits_Linear_5,1,5,63,98,1472916036
1915,19,Jits_Linear_5,2,5,56,103,1472926068
1915,19,Jits_Linear_5,3,5,80,127,1472976336
1915,19,Jits_Linear_5,0,5,56,103,1473625484
1915,19,Jits_Linear_5,1,1,48,111,1473640260
1915,19,Jits_Linear_5,2,5,63,98,1473645904
1915,19,Jits_Linear_5,3,5,80,127,1473656232
1915,19,Jits_Linear_5,0,5,56,103,1474346384
1915,19,Jits_Linear_5,1,1,48,116,1474347964
1915,19,Jits_Linear_5,2,5,63,98,1474351004
1915,19,Jits_Linear_5,3,5,80,127,1474365980
1915,19,Jits_Linear_5,0,1,48,97,1475035160
1915,19,Jits_Linear_5,1,5,63,98,1475116268
1915,19,Jits_Linear_5,2,5,56,103,1475146028
1915,19,Jits_Linear_5,3,5,80,127,1475175804
1915,19,Jits_Linear_5,0,1,48,104,1475735544
1915,19,Jits_Linear_5,1,5,80,127,1475805736
1915,19,Jits_Linear_5,2,5,56,103,1475895708
1915,19,Jits_Linear_5,3,5,63,98,1475898768
1915,19,Jits_Linear_5,0,1,48,100,1476495940
1915,19,Jits_Linear_5,1,5,56,103,1476535756
1915,19,Jits_Linear_5,2,5,80,127,1476538820
1915,19,Jits_Linear_5,3,5,63,98,1476615780
1915,19,Jits_Linear_5,0,1,48,108,1477212464
1915,19,Jits_Linear_5,1,5,80,127,1477265928
1915,19,Jits_Linear_5,2,5,63,98,1477326132
1915,19,Jits_Linear_5,3,5,56,103,1477355832
1915,19,Jits_Linear_5,0,5,63,98,1477996016
1915,19,Jits_Linear_5,1,5,80,127,1478006272
1915,19,Jits_Linear_5,2,1,48,103,1478037456
1915,19,Jits_Linear_5,3,5,56,103,1478075632
1915,19,Jits_Linear_5,0,5,56,103,1478745404
1915,19,Jits_Linear_5,1,1,48,117,1478768716
1915,19,Jits_Linear_5,2,5,80,127,1478776220
1915,19,Jits_Linear_5,3,5,63,98,1478826364
1915,19,Jits_Linear_5,0,1,48,120,1479455060
1915,19,Jits_Linear_5,1,5,63,98,1479525840
1915,19,Jits_Linear_5,2,5,56,103,1479555600
1915,19,Jits_Linear_5,3,5,80,127,1479558688
1915,19,Jits_Linear_5,0,1,48,110,1480188740
1915,19,Jits_Linear_5,1,5,63,98,1480276584
1915,19,Jits_Linear_5,2,5,80,127,1480295728
1915,19,Jits_Linear_5,3,5,56,103,1480305984
1915,19,Jits_Linear_5,0,1,48,108,1480957004
1915,19,Jits_Linear_5,1,5,56,103,1481025844
1915,19,Jits_Linear_5,2,5,63,98,1481028980
1915,19,Jits_Linear_5,3,5,80,127,1481046492
1915,19,Jits_Linear_5,0,1,48,97,1481704088
1915,19,Jits_Linear_5,1,5,56,103,1481726400
1915,19,Jits_Linear_5,2,5,63,98,1481735684
1915,19,Jits_Linear_5,3,5,80,127,1481766356
1915,19,Jits_Linear_5,0,1,48,108,1482431980
1915,19,Jits_Linear_5,1,5,63,98,1482496640
1915,19,Jits_Linear_5,2,5,80,127,1482515728
1915,19,Jits_Linear_5,3,5,56,103,1482555656
1915,19,Jits_Linear_5,0,1,48,111,1483169872
1915,19,Jits_Linear_5,1,5,56,103,1483275576
1915,19,Jits_Linear_5,2,5,63,98,1483315524
1915,19,Jits_Linear_5,3,5,80,127,1483318884
1915,19,Jits_Linear_5,0,1,48,111,1483886260
1915,19,Jits_Linear_5,1,5,80,127,1483965824
1915,19,Jits_Linear_5,2,5,56,103,1484005756
1915,19,Jits_Linear_5,3,5,63,98,1484055876
1915,19,Jits_Linear_5,0,1,48,109,1484629600
1915,19,Jits_Linear_5,1,5,56,103,1484775876
1915,19,Jits_Linear_5,2,5,80,127,1484785980
1915,19,Jits_Linear_5,3,5,63,98,1484815828
1915,19,Jits_Linear_5,0,1,48,110,1485404600
1915,19,Jits_Linear_5,1,5,56,103,1485476304
1915,19,Jits_Linear_5,2,5,80,127,1485516236
1915,19,Jits_Linear_5,3,5,63,98,1485566504
1915,19,Jits_Linear_5,0,1,48,115,1486163560
1915,19,Jits_Linear_5,1,5,56,103,1486236180
1915,19,Jits_Linear_5,2,5,80,127,1486275892
1915,19,Jits_Linear_5,3,5,63,98,1486326232
1915,19,Jits_Linear_5,0,1,48,83,1486930768
1915,19,Jits_Linear_5,1,5,80,127,1486985508
1915,19,Jits_Linear_5,2,5,63,98,1487065532
1915,19,Jits_Linear_5,3,5,56,103,1487075564
1915,19,Jits_Linear_5,0,1,48,106,1487727732
1915,19,Jits_Linear_5,1,5,80,127,1487795548
1915,19,Jits_Linear_5,2,5,56,103,1487805728
1915,19,Jits_Linear_5,3,5,63,98,1487826376
1915,19,Jits_Linear_5,0,1,48,110,1488476312
1915,19,Jits_Linear_5,1,5,63,98,1488525580
1915,19,Jits_Linear_5,2,5,56,103,1488596400
1915,19,Jits_Linear_5,3,5,80,127,1488599536
1915,19,Jits_Linear_5,0,1,48,92,1489230784
1915,19,Jits_Linear_5,1,5,80,127,1489285352
1915,19,Jits_Linear_5,2,5,63,98,1489335532
1915,19,Jits_Linear_5,3,5,56,103,1489375556
1915,19,Jits_Linear_5,0,1,48,89,1489994664
1915,19,Jits_Linear_5,1,1,38,20,1490005044
1915,19,Jits_Linear_5,2,5,63,98,1490095584
1915,19,Jits_Linear_5,3,5,56,103,1490136340
1915,19,Jits_Linear_5,4,5,80,127,1490145696
1915,19,Jits_Linear_5,0,1,48,99,1490795176
1915,19,Jits_Linear_5,1,5,63,98,1490856332
1915,19,Jits_Linear_5,2,5,56,103,1490875644
1915,19,Jits_Linear_5,3,5,80,127,1490896276
1915,19,Jits_Linear_5,0,1,48,112,1491543956
1915,19,Jits_Linear_5,1,5,80,127,1491586392
1915,19,Jits_Linear_5,2,5,56,103,1491595552
1915,19,Jits_Linear_5,3,5,63,98,1491616272
1915,19,Jits_Linear_5,0,1,48,116,1492279808
1915,19,Jits_Linear_5,1,5,63,98,1492386140
1915,19,Jits_Linear_5,2,5,56,103,1492426012
1915,19,Jits_Linear_5,3,5,80,127,1492455936
1915,19,Jits_Linear_5,0,1,48,93,1493024136
1915,19,Jits_Linear_5,1,5,56,103,1493165396
1915,19,Jits_Linear_5,2,5,63,98,1493196140
1915,19,Jits_Linear_5,3,5,80,127,1493226064
1915,19,Jits_Linear_5,0,1,48,105,1493787424
1915,19,Jits_Linear_5,1,5,80,127,1493916040
1915,19,Jits_Linear_5,2,5,56,103,1493985528
1915,19,Jits_Linear_5,3,5,63,98,1493988744
1915,19,Jits_Linear_5,0,1,48,111,1494627780
1915,19,Jits_Linear_5,1,5,56,103,1494705548
1915,19,Jits_Linear_5,2,5,63,98,1494755952
1915,19,Jits_Linear_5,3,5,80,127,1494786400
1915,19,Jits_Linear_5,0,1,48,93,1495444756
1915,19,Jits_Linear_5,1,5,63,98,1495466316
1915,19,Jits_Linear_5,2,5,80,127,1495469900
1915,19,Jits_Linear_5,3,5,56,103,1495525936
1915,19,Jits_Linear_5,0,1,48,99,1496211540
1915,19,Jits_Linear_5,1,5,56,103,1496276272
1915,19,Jits_Linear_5,2,5,80,127,1496285480
1915,19,Jits_Linear_5,3,5,63,98,1496336028
1915,19,Jits_Linear_5,0,1,48,95,1496992848
1915,19,Jits_Linear_5,1,5,63,98,1497036192
1915,19,Jits_Linear_5,2,5,56,103,1497046372
1915,19,Jits_Linear_5,3,5,80,127,1497076148
1915,19,Jits_Linear_5,0,1,48,95,1497761440
1915,19,Jits_Linear_5,1,5,63,98,1497856316
1915,19,Jits_Linear_5,2,5,80,127,1497860632
1915,19,Jits_Linear_5,3,5,56,103,1497886004
1915,19,Jits_Linear_5,0,1,48,89,1498558232
1915,19,Jits_Linear_5,1,5,63,98,1498666480
1915,19,Jits_Linear_5,2,5,56,103,1498685784
1915,19,Jits_Linear_5,3,5,80,127,1498688772
1915,19,Jits_Linear_5,0,1,48,93,1499364980
1915,19,Jits_Linear_5,1,5,63,98,1499415944
1915,19,Jits_Linear_5,2,5,56,103,1499485720
1915,19,Jits_Linear_5,3,5,80,127,1499505924
1915,19,Jits_Linear_5,0,1,48,62,1500181744
1915,19,Jits_Linear_5,1,5,56,103,1500196064
1915,19,Jits_Linear_5,2,5,63,98,1500205496
1915,19,Jits_Linear_5,3,5,80,127,1500295564
1915,19,Jits_Linear_5,0,1,48,101,1500943696
1915,19,Jits_Linear_5,1,5,56,103,1501006248
1915,19,Jits_Linear_5,2,5,80,127,1501046180
1915,19,Jits_Linear_5,3,5,63,98,1501056584
1915,19,Jits_Linear_5,0,1,48,94,1501757044
1915,19,Jits_Linear_5,1,5,56,103,1501826780
1915,19,Jits_Linear_5,2,5,63,98,1501856320
1915,19,Jits_Linear_5,3,5,80,127,1501885872
1915,19,Jits_Linear_5,0,5,80,127,1502586244
1915,19,Jits_Linear_5,1,1,48,96,1502593556
1915,19,Jits_Linear_5,2,5,63,98,1502626284
1915,19,Jits_Linear_5,3,5,56,103,1502645816
1915,19,Jits_Linear_5,0,1,48,115,1503392384
1915,19,Jits_Linear_5,1,5,56,103,1503426008
1915,19,Jits_Linear_5,2,5,80,127,1503446656
1915,19,Jits_Linear_5,3,5,63,98,1503465740
1915,19,Jits_Linear_5,0,5,63,98,1504195912
1915,19,Jits_Linear_5,1,1,48,104,1504199472
1915,19,Jits_Linear_5,2,5,56,103,1504206308
1915,19,Jits_Linear_5,3,5,80,127,1504265628
1915,19,Jits_Linear_5,0,1,48,94,1504984308
1915,19,Jits_Linear_5,1,5,56,103,1505006020
1915,19,Jits_Linear_5,2,5,63,98,1505075652
1915,19,Jits_Linear_5,3,5,80,127,1505096004
1915,19,Jits_Linear_5,0,1,48,100,1505801068
1915,19,Jits_Linear_5,1,5,56,103,1505816212
1915,19,Jits_Linear_5,2,5,63,98,1505845468
1915,19,Jits_Linear_5,3,5,80,127,1505885416
1915,19,Jits_Linear_5,0,1,48,120,1506588396
1915,19,Jits_Linear_5,1,5,63,98,1506615804
1915,19,Jits_Linear_5,2,5,56,103,1506665848
1915,19,Jits_Linear_5,3,5,80,127,1506676104
1915,19,Jits_Linear_5,0,1,48,80,1507417612
1915,19,Jits_Linear_5,1,1,38,19,1507427616
1915,19,Jits_Linear_5,2,5,56,103,1507465440
1915,19,Jits_Linear_5,3,5,63,98,1507515620
1915,19,Jits_Linear_5,4,5,80,127,1507525932
1915,19,Jits_Linear_5,0,1,48,97,1508195152
1915,19,Jits_Linear_5,1,5,56,103,1508246140
1915,19,Jits_Linear_5,2,5,63,98,1508256320
1915,19,Jits_Linear_5,3,5,80,127,1508335968
1915,19,Jits_Linear_5,0,9999,9999,9999,1399433280
1915,19,Jits_Linear_5,1,9999,9999,9999,1399913536
1915,19,Jits_Linear_5,2,9999,9999,9999,1400393804
1915,19,Jits_Linear_5,3,9999,9999,9999,1400874044
1915,19,Jits_Linear_5,4,9999,9999,9999,1401353332
1915,19,Jits_Linear_5,5,9999,9999,9999,1401843776
1915,19,Jits_Linear_5,6,9999,9999,9999,1402333248
1915,19,Jits_Linear_5,7,9999,9999,9999,1402823740
1915,19,Jits_Linear_5,8,9999,9999,9999,1403313256
1915,19,Jits_Linear_5,9,9999,9999,9999,1403803772
1915,19,Jits_Linear_5,10,9999,9999,9999,1404303456
1915,19,Jits_Linear_5,11,9999,9999,9999,1404803148
1915,19,Jits_Linear_5,12,9999,9999,9999,1405303900
1915,19,Jits_Linear_5,13,9999,9999,9999,1405803616
1915,19,Jits_Linear_5,14,9999,9999,9999,1406303316
1915,19,Jits_Linear_5,15,9999,9999,9999,1406813252
1915,19,Jits_Linear_5,16,9999,9999,9999,1407323244
1915,19,Jits_Linear_5,17,9999,9999,9999,1407833160
1915,19,Jits_Linear_5,18,9999,9999,9999,1408343096
1915,19,Jits_Linear_5,19,9999,9999,9999,1408854108
1915,19,Jits_Linear_5,20,9999,9999,9999,1409383516
1915,19,Jits_Linear_5,21,9999,9999,9999,1409903720
1915,19,Jits_Linear_5,22,9999,9999,9999,1410423916
1915,19,Jits_Linear_5,23,9999,9999,9999,1410944056
1915,19,Jits_Linear_5,24,9999,9999,9999,1411473488
1915,19,Jits_Linear_5,25,9999,9999,9999,1412003932
1915,19,Jits_Linear_5,26,9999,9999,9999,1412533348
1915,19,Jits_Linear_5,27,9999,9999,9999,1413063772
1915,19,Jits_Linear_5,28,9999,9999,9999,1413593188
1915,19,Jits_Linear_5,29,9999,9999,9999,1414123640
1915,19,Jits_Linear_5,30,9999,9999,9999,1414663220
1915,19,Jits_Linear_5,31,9999,9999,9999,1415203920
1915,19,Jits_Linear_5,32,9999,9999,9999,1415743572
1915,19,Jits_Linear_5,33,9999,9999,9999,1416283228
1915,19,Jits_Linear_5,34,9999,9999,9999,1416823928
1915,19,Jits_Linear_5,35,9999,9999,9999,1417373760
1915,19,Jits_Linear_5,36,9999,9999,9999,1417923704
1915,19,Jits_Linear_5,37,9999,9999,9999,1418473592
1915,19,Jits_Linear_5,38,9999,9999,9999,1419023484
1915,19,Jits_Linear_5,39,9999,9999,9999,1419573372
1915,19,Jits_Linear_5,40,9999,9999,9999,1420133500
1915,19,Jits_Linear_5,41,9999,9999,9999,1420693576
1915,19,Jits_Linear_5,42,9999,9999,9999,1421253720
1915,19,Jits_Linear_5,43,9999,9999,9999,1421813864
1915,19,Jits_Linear_5,44,9999,9999,9999,1422374012
1915,19,Jits_Linear_5,45,9999,9999,9999,1422943356
1915,19,Jits_Linear_5,46,9999,9999,9999,1423513676
1915,19,Jits_Linear_5,47,9999,9999,9999,1424084084
1915,19,Jits_Linear_5,48,9999,9999,9999,1424653436
1915,19,Jits_Linear_5,49,9999,9999,9999,1425223764
1915,19,Jits_Linear_5,50,9999,9999,9999,1425803352
1915,19,Jits_Linear_5,51,9999,9999,9999,1426383968
1915,19,Jits_Linear_5,52,9999,9999,9999,1426963520
1915,19,Jits_Linear_5,53,9999,9999,9999,1427543160
1915,19,Jits_Linear_5,54,9999,9999,9999,1428123752
1915,19,Jits_Linear_5,55,9999,9999,9999,1428713552
1915,19,Jits_Linear_5,56,9999,9999,9999,1429303420
1915,19,Jits_Linear_5,57,9999,9999,9999,1429893188
1915,19,Jits_Linear_5,58,9999,9999,9999,1430484092
1915,19,Jits_Linear_5,59,9999,9999,9999,1431073920
1915,19,Jits_Linear_5,60,9999,9999,9999,1431673928
1915,19,Jits_Linear_5,61,9999,9999,9999,1432274016
1915,19,Jits_Linear_5,62,9999,9999,9999,1432874104
1915,19,Jits_Linear_5,63,9999,9999,9999,1433473140
1915,19,Jits_Linear_5,64,9999,9999,9999,1434073164
1915,19,Jits_Linear_5,65,9999,9999,9999,1434683496
1915,19,Jits_Linear_5,66,9999,9999,9999,1435293784
1915,19,Jits_Linear_5,67,9999,9999,9999,1435904108
1915,19,Jits_Linear_5,68,9999,9999,9999,1436523644
1915,19,Jits_Linear_5,69,9999,9999,9999,1437133908
1915,19,Jits_Linear_5,70,9999,9999,9999,1437753412
1915,19,Jits_Linear_5,71,9999,9999,9999,1438373944
1915,19,Jits_Linear_5,72,9999,9999,9999,1438993464
1915,19,Jits_Linear_5,73,9999,9999,9999,1439614024
1915,19,Jits_Linear_5,74,9999,9999,9999,1440233580
1915,19,Jits_Linear_5,75,9999,9999,9999,1440863340
1915,19,Jits_Linear_5,76,9999,9999,9999,1441494128
1915,19,Jits_Linear_5,77,9999,9999,9999,1442134132
1915,19,Jits_Linear_5,78,9999,9999,9999,1442774116
1915,19,Jits_Linear_5,79,9999,9999,9999,1443414144
1915,19,Jits_Linear_5,80,9999,9999,9999,1444054124
1915,19,Jits_Linear_5,81,9999,9999,9999,1444694080
1915,19,Jits_Linear_5,82,9999,9999,9999,1445334132
1915,19,Jits_Linear_5,83,9999,9999,9999,1445974088
1915,19,Jits_Linear_5,84,9999,9999,9999,1446614072
1915,19,Jits_Linear_5,85,9999,9999,9999,1447273592
1915,19,Jits_Linear_5,86,9999,9999,9999,1447923816
1915,19,Jits_Linear_5,87,9999,9999,9999,1448574008
1915,19,Jits_Linear_5,88,9999,9999,9999,1449223228
1915,19,Jits_Linear_5,89,9999,9999,9999,1449873528
1915,19,Jits_Linear_5,90,9999,9999,9999,1450533976
1915,19,Jits_Linear_5,91,9999,9999,9999,1451193400
1915,19,Jits_Linear_5,92,9999,9999,9999,1451853908
1915,19,Jits_Linear_5,93,9999,9999,9999,1452513336
1915,19,Jits_Linear_5,94,9999,9999,9999,1453173856
1915,19,Jits_Linear_5,95,9999,9999,9999,1453843580
1915,19,Jits_Linear_5,96,9999,9999,9999,1454513256
1915,19,Jits_Linear_5,97,9999,9999,9999,1455183948
1915,19,Jits_Linear_5,98,9999,9999,9999,1455853672
1915,19,Jits_Linear_5,99,9999,9999,9999,1456523340
1915,19,Jits_Linear_5,100,9999,9999,9999,1457203264
1915,19,Jits_Linear_5,101,9999,9999,9999,1457883232
1915,19,Jits_Linear_5,102,9999,9999,9999,1458563192
1915,19,Jits_Linear_5,103,9999,9999,9999,1459243108
1915,19,Jits_Linear_5,104,9999,9999,9999,1459924068
1915,19,Jits_Linear_5,105,9999,9999,9999,1460613236
1915,19,Jits_Linear_5,106,9999,9999,9999,1461303396
1915,19,Jits_Linear_5,107,9999,9999,9999,1461993584
1915,19,Jits_Linear_5,108,9999,9999,9999,1462683744
1915,19,Jits_Linear_5,109,9999,9999,9999,1463373936
1915,19,Jits_Linear_5,110,9999,9999,9999,1464073300
1915,19,Jits_Linear_5,111,9999,9999,9999,1464773688
1915,19,Jits_Linear_5,112,9999,9999,9999,1465473100
1915,19,Jits_Linear_5,113,9999,9999,9999,1466173560
1915,19,Jits_Linear_5,114,9999,9999,9999,1466873968
1915,19,Jits_Linear_5,115,9999,9999,9999,1467583580
1915,19,Jits_Linear_5,116,9999,9999,9999,1468293212
1915,19,Jits_Linear_5,117,9999,9999,9999,1469003856
1915,19,Jits_Linear_5,118,9999,9999,9999,1469713472
1915,19,Jits_Linear_5,119,9999,9999,9999,1470423156
1915,19,Jits_Linear_5,120,9999,9999,9999,1471144060
1915,19,Jits_Linear_5,121,9999,9999,9999,1471863872
1915,19,Jits_Linear_5,122,9999,9999,9999,1472583808
1915,19,Jits_Linear_5,123,9999,9999,9999,1473303664
1915,19,Jits_Linear_5,124,9999,9999,9999,1474023520
1915,19,Jits_Linear_5,125,9999,9999,9999,1474753612
1915,19,Jits_Linear_5,126,9999,9999,9999,1475483728
1915,19,Jits_Linear_5,127,9999,9999,9999,1476213848
1915,19,Jits_Linear_5,128,9999,9999,9999,1476943944
1915,19,Jits_Linear_5,129,9999,9999,9999,1477674052
1915,19,Jits_Linear_5,130,9999,9999,9999,1478413428
1915,19,Jits_Linear_5,131,9999,9999,9999,1479153768
1915,19,Jits_Linear_5,132,9999,9999,9999,1479894112
1915,19,Jits_Linear_5,133,9999,9999,9999,1480643668
1915,19,Jits_Linear_5,134,9999,9999,9999,1481384016
1915,19,Jits_Linear_5,135,9999,9999,9999,1482133572
1915,19,Jits_Linear_5,136,9999,9999,9999,1482883148
1915,19,Jits_Linear_5,137,9999,9999,9999,1483633740
1915,19,Jits_Linear_5,138,9999,9999,9999,1484383296
1915,19,Jits_Linear_5,139,9999,9999,9999,1485133896
1915,19,Jits_Linear_5,140,9999,9999,9999,1485893700
1915,19,Jits_Linear_5,141,9999,9999,9999,1486653500
1915,19,Jits_Linear_5,142,9999,9999,9999,1487413304
1915,19,Jits_Linear_5,143,9999,9999,9999,1488173152
1915,19,Jits_Linear_5,144,9999,9999,9999,1488933992
1915,19,Jits_Linear_5,145,9999,9999,9999,1489704020
1915,19,Jits_Linear_5,146,9999,9999,9999,1490474084
1915,19,Jits_Linear_5,147,9999,9999,9999,1491243064
1915,19,Jits_Linear_5,148,9999,9999,9999,1492013156
1915,19,Jits_Linear_5,149,9999,9999,9999,1492783208
1915,19,Jits_Linear_5,150,9999,9999,9999,1493563504
1915,19,Jits_Linear_5,151,9999,9999,9999,1494343764
1915,19,Jits_Linear_5,152,9999,9999,9999,1495124064
1915,19,Jits_Linear_5,153,9999,9999,9999,1495903300
1915,19,Jits_Linear_5,154,9999,9999,9999,1496683640
1915,19,Jits_Linear_5,155,9999,9999,9999,1497473104
1915,19,Jits_Linear_5,156,9999,9999,9999,1498263628
1915,19,Jits_Linear_5,157,9999,9999,9999,1499053164
1915,19,Jits_Linear_5,158,9999,9999,9999,1499843684
1915,19,Jits_Linear_5,159,9999,9999,9999,1500633152
1915,19,Jits_Linear_5,160,9999,9999,9999,1501433912
1915,19,Jits_Linear_5,161,9999,9999,9999,1502233708
1915,19,Jits_Linear_5,162,9999,9999,9999,1503033420
1915,19,Jits_Linear_5,163,9999,9999,9999,1503833152
1915,19,Jits_Linear_5,164,9999,9999,9999,1504633940
1915,19,Jits_Linear_5,165,9999,9999,9999,1505443936
1915,19,Jits_Linear_5,166,9999,9999,9999,1506253900
1915,19,Jits_Linear_5,167,9999,9999,9999,1507063884
1915,19,Jits_Linear_5,168,9999,9999,9999,1507873916
1915,19,Jits_Linear_5,169,9999,9999,9999,1508683880
1916,18,Jits_Linear_8,0,5,56,103,1531550100
1916,18,Jits_Linear_8,1,5,63,98,1531553192
1916,18,Jits_Linear_8,2,5,80,127,1531556384
1916,18,Jits_Linear_8,0,1,48,48,1532103612
1916,18,Jits_Linear_8,1,5,56,103,1532370296
1916,18,Jits_Linear_8,2,5,63,98,1532373236
1916,18,Jits_Linear_8,3,5,80,127,1532376580
1916,18,Jits_Linear_8,0,5,80,127,1533130072
1916,18,Jits_Linear_8,1,1,48,86,1533195488
1916,18,Jits_Linear_8,2,5,63,98,1533220348
1916,18,Jits_Linear_8,3,5,56,103,1533229336
1916,18,Jits_Linear_8,0,5,56,103,1533970028
1916,18,Jits_Linear_8,1,5,63,98,1533980432
1916,18,Jits_Linear_8,2,5,80,127,1534070116
1916,18,Jits_Linear_8,3,1,48,102,1534082228
1916,18,Jits_Linear_8,0,5,63,98,1534760324
1916,18,Jits_Linear_8,1,5,80,127,1534790100
1916,18,Jits_Linear_8,2,5,56,103,1534819800
1916,18,Jits_Linear_8,3,1,48,89,1534855164
1916,18,Jits_Linear_8,0,5,56,103,1535579616
1916,18,Jits_Linear_8,1,1,48,96,1535674972
1916,18,Jits_Linear_8,2,5,80,127,1535679868
1916,18,Jits_Linear_8,3,5,63,98,1535730060
1916,18,Jits_Linear_8,0,5,56,103,1536389384
1916,18,Jits_Linear_8,1,5,80,127,1536440100
1916,18,Jits_Linear_8,2,5,63,98,1536479452
1916,18,Jits_Linear_8,3,1,48,80,1536533868
1916,18,Jits_Linear_8,0,5,80,127,1537230084
1916,18,Jits_Linear_8,1,5,63,98,1537259860
1916,18,Jits_Linear_8,2,1,48,104,1537315544
1916,18,Jits_Linear_8,3,5,56,103,1537329416
1916,18,Jits_Linear_8,0,5,63,98,1538070048
1916,18,Jits_Linear_8,1,5,56,103,1538099600
1916,18,Jits_Linear_8,2,1,48,108,1538142876
1916,18,Jits_Linear_8,3,5,80,127,1538159956
1916,18,Jits_Linear_8,0,5,56,103,1538819420
1916,18,Jits_Linear_8,1,5,80,127,1538822556
1916,18,Jits_Linear_8,2,1,48,90,1538936732
1916,18,Jits_Linear_8,3,5,63,98,1538940360
1916,18,Jits_Linear_8,0,5,56,103,1539699980
1916,18,Jits_Linear_8,1,5,80,127,1539740028
1916,18,Jits_Linear_8,2,1,48,96,1539742992
1916,18,Jits_Linear_8,3,5,63,98,1539750204
1916,18,Jits_Linear_8,0,5,56,103,1540459760
1916,18,Jits_Linear_8,1,5,80,127,1540480484
1916,18,Jits_Linear_8,2,5,63,98,1540560168
1916,18,Jits_Linear_8,3,1,48,92,1540571956
1916,18,Jits_Linear_8,0,5,80,127,1541250448
1916,18,Jits_Linear_8,1,5,56,103,1541349784
1916,18,Jits_Linear_8,2,5,63,98,1541359888
1916,18,Jits_Linear_8,3,1,48,108,1541369364
1916,18,Jits_Linear_8,0,5,63,98,1542019656
1916,18,Jits_Linear_8,1,5,80,127,1542079800
1916,18,Jits_Linear_8,2,5,56,103,1542090128
1916,18,Jits_Linear_8,3,1,48,90,1542164436
1916,18,Jits_Linear_8,0,5,56,103,1542820176
1916,18,Jits_Linear_8,1,5,63,98,1542889816
1916,18,Jits_Linear_8,2,5,80,127,1542893176
1916,18,Jits_Linear_8,3,1,48,92,1542940800
1916,18,Jits_Linear_8,0,5,63,98,1543649864
1916,18,Jits_Linear_8,1,5,56,103,1543699908
1916,18,Jits_Linear_8,2,5,80,127,1543702896
1916,18,Jits_Linear_8,3,1,48,91,1543729804
1916,18,Jits_Linear_8,4,1,38,20,1543739732
1916,18,Jits_Linear_8,0,5,56,103,1544400364
1916,18,Jits_Linear_8,1,5,80,127,1544403500
1916,18,Jits_Linear_8,2,5,63,98,1544490720
1916,18,Jits_Linear_8,3,1,48,102,1544512684
1916,18,Jits_Linear_8,0,5,63,98,1545229624
1916,18,Jits_Linear_8,1,1,48,86,1545308808
1916,18,Jits_Linear_8,2,5,56,103,1545319676
1916,18,Jits_Linear_8,3,5,80,127,1545349476
1916,18,Jits_Linear_8,0,5,56,103,1546010028
1916,18,Jits_Linear_8,1,1,48,91,1546102896
1916,18,Jits_Linear_8,2,5,63,98,1546110256
1916,18,Jits_Linear_8,3,5,80,127,1546139956
1916,18,Jits_Linear_8,0,5,63,98,1546819820
1916,18,Jits_Linear_8,1,5,56,103,1546830296
1916,18,Jits_Linear_8,2,1,48,81,1546896852
1916,18,Jits_Linear_8,3,5,80,127,1546920596
1916,18,Jits_Linear_8,0,5,63,98,1547619600
1916,18,Jits_Linear_8,1,1,48,74,1547684512
1916,18,Jits_Linear_8,2,1,38,18,1547694144
1916,18,Jits_Linear_8,3,5,56,103,1547699708
1916,18,Jits_Linear_8,4,5,80,127,1547702844
1916,18,Jits_Linear_8,0,5,80,127,1548359936
1916,18,Jits_Linear_8,1,5,63,98,1548379612
1916,18,Jits_Linear_8,2,5,56,103,1548439852
1916,18,Jits_Linear_8,3,1,48,67,1548510280
1916,18,Jits_Linear_8,0,5,56,103,1549180512
1916,18,Jits_Linear_8,1,5,63,98,1549199616
1916,18,Jits_Linear_8,2,5,80,127,1549203352
1916,18,Jits_Linear_8,3,1,48,91,1549262116
1916,18,Jits_Linear_8,0,5,63,98,1549900264
1916,18,Jits_Linear_8,1,5,80,127,1549980176
1916,18,Jits_Linear_8,2,5,56,103,1549990432
1916,18,Jits_Linear_8,3,1,48,79,1550036396
1916,18,Jits_Linear_8,0,5,63,98,1550699820
1916,18,Jits_Linear_8,1,5,56,103,1550720468
1916,18,Jits_Linear_8,2,5,80,127,1550769540
1916,18,Jits_Linear_8,3,1,48,79,1550790232
1916,18,Jits_Linear_8,4,1,38,19,1550799856
1916,18,Jits_Linear_8,0,5,80,127,1551480296
1916,18,Jits_Linear_8,1,5,63,98,1551520192
1916,18,Jits_Linear_8,2,5,56,103,1551539572
1916,18,Jits_Linear_8,3,1,48,87,1551571704
1916,18,Jits_Linear_8,4,1,38,19,1551581636
1916,18,Jits_Linear_8,0,5,56,103,1552290388
1916,18,Jits_Linear_8,1,5,63,98,1552300344
1916,18,Jits_Linear_8,2,5,80,127,1552320096
1916,18,Jits_Linear_8,3,1,48,116,1552367028
1916,18,Jits_Linear_8,0,5,56,103,1552989412
1916,18,Jits_Linear_8,1,5,63,98,1553079724
1916,18,Jits_Linear_8,2,1,48,121,1553135260
1916,18,Jits_Linear_8,3,5,80,127,1553140228
1916,18,Jits_Linear_8,0,5,80,127,1553790188
1916,18,Jits_Linear_8,1,5,56,103,1553799396
1916,18,Jits_Linear_8,2,1,48,97,1553868112
1916,18,Jits_Linear_8,3,5,63,98,1553870148
1916,18,Jits_Linear_8,0,5,63,98,1554590352
1916,18,Jits_Linear_8,1,1,48,111,1554633256
1916,18,Jits_Linear_8,2,5,80,127,1554680108
1916,18,Jits_Linear_8,3,5,56,103,1554690360
1916,18,Jits_Linear_8,0,5,63,98,1555289596
1916,18,Jits_Linear_8,1,5,80,127,1555339592
1916,18,Jits_Linear_8,2,5,56,103,1555400176
1916,18,Jits_Linear_8,3,1,48,100,1555404936
1916,18,Jits_Linear_8,0,5,56,103,1556080180
1916,18,Jits_Linear_8,1,5,80,127,1556130252
1916,18,Jits_Linear_8,2,5,63,98,1556149556
1916,18,Jits_Linear_8,3,1,48,95,1556158432
1916,18,Jits_Linear_8,0,5,56,103,1556810036
1916,18,Jits_Linear_8,1,5,80,127,1556869456
1916,18,Jits_Linear_8,2,1,48,90,1556935016
1916,18,Jits_Linear_8,3,5,63,98,1556940060
1916,18,Jits_Linear_8,4,1,38,20,1556945264
1916,18,Jits_Linear_8,0,5,56,103,1557569852
1916,18,Jits_Linear_8,1,5,80,127,1557599552
1916,18,Jits_Linear_8,2,5,63,98,1557630448
1916,18,Jits_Linear_8,3,1,48,113,1557702692
1916,18,Jits_Linear_8,0,5,56,103,1558369572
1916,18,Jits_Linear_8,1,5,80,127,1558390072
1916,18,Jits_Linear_8,2,5,63,98,1558449492
1916,18,Jits_Linear_8,3,1,48,112,1558454024
1916,18,Jits_Linear_8,0,5,80,127,1559210320
1916,18,Jits_Linear_8,1,5,56,103,1559219528
1916,18,Jits_Linear_8,2,1,48,103,1559222420
1916,18,Jits_Linear_8,3,5,63,98,1559230000
1916,18,Jits_Linear_8,4,1,38,21,1559232964
1916,18,Jits_Linear_8,0,5,56,103,1559920092
1916,18,Jits_Linear_8,1,5,80,127,1559959916
1916,18,Jits_Linear_8,2,1,48,117,1559963620
1916,18,Jits_Linear_8,3,5,63,98,1559989756
1916,18,Jits_Linear_8,0,5,56,103,1560639792
1916,18,Jits_Linear_8,1,5,63,98,1560669716
1916,18,Jits_Linear_8,2,5,80,127,1560709688
1916,18,Jits_Linear_8,3,1,48,89,1560722224
1916,18,Jits_Linear_8,0,5,80,127,1561340328
1916,18,Jits_Linear_8,1,5,63,98,1561389332
1916,18,Jits_Linear_8,2,5,56,103,1561409980
1916,18,Jits_Linear_8,3,1,48,91,1561461932
1916,18,Jits_Linear_8,4,1,38,20,1561472120
1916,18,Jits_Linear_8,0,5,56,103,1562119740
1916,18,Jits_Linear_8,1,1,48,104,1562163984
1916,18,Jits_Linear_8,2,1,38,21,1562174436
1916,18,Jits_Linear_8,3,5,80,127,1562190176
1916,18,Jits_Linear_8,4,5,63,98,1562249668
1916,18,Jits_Linear_8,0,5,80,127,1562859812
1916,18,Jits_Linear_8,1,1,48,108,1562923508
1916,18,Jits_Linear_8,2,5,63,98,1562949940
1916,18,Jits_Linear_8,3,5,56,103,1562969396
1916,18,Jits_Linear_8,0,5,63,98,1563619828
1916,18,Jits_Linear_8,1,5,56,103,1563640252
1916,18,Jits_Linear_8,2,5,80,127,1563680048
1916,18,Jits_Linear_8,3,1,48,114,1563692732
1916,18,Jits_Linear_8,0,5,80,127,1564319984
1916,18,Jits_Linear_8,1,5,63,98,1564339884
1916,18,Jits_Linear_8,2,5,56,103,1564419620
1916,18,Jits_Linear_8,3,1,48,101,1564425796
1916,18,Jits_Linear_8,0,5,63,98,1565059572
1916,18,Jits_Linear_8,1,1,48,68,1565126708
1916,18,Jits_Linear_8,2,5,56,103,1565169972
1916,18,Jits_Linear_8,3,5,80,127,1565173032
1916,18,Jits_Linear_8,0,5,63,98,1565820124
1916,18,Jits_Linear_8,1,5,56,103,1565829728
1916,18,Jits_Linear_8,2,5,80,127,1565832712
1916,18,Jits_Linear_8,3,1,48,101,1565838536
1916,18,Jits_Linear_8,0,5,56,103,1566540160
1916,18,Jits_Linear_8,1,1,48,90,1566565412
1916,18,Jits_Linear_8,2,5,80,127,1566659844
1916,18,Jits_Linear_8,3,5,63,98,1566699792
1916,18,Jits_Linear_8,0,5,56,103,1567289624
1916,18,Jits_Linear_8,1,1,48,109,1567326012
1916,18,Jits_Linear_8,2,5,80,127,1567369452
1916,18,Jits_Linear_8,3,5,63,98,1567390252
1916,18,Jits_Linear_8,0,5,56,103,1568019788
1916,18,Jits_Linear_8,1,1,48,98,1568090672
1916,18,Jits_Linear_8,2,5,63,98,1568130580
1916,18,Jits_Linear_8,3,5,80,127,1568133940
1916,18,Jits_Linear_8,0,5,56,103,1568779560
1916,18,Jits_Linear_8,1,5,80,127,1568810828
1916,18,Jits_Linear_8,2,1,48,60,1568819412
1916,18,Jits_Linear_8,3,5,63,98,1568829756
1916,18,Jits_Linear_8,0,5,63,98,1569490492
1916,18,Jits_Linear_8,1,1,48,84,1569498424
1916,18,Jits_Linear_8,2,5,56,103,1569500368
1916,18,Jits_Linear_8,3,5,80,127,1569509724
1916,18,Jits_Linear_8,0,5,80,127,1570199912
1916,18,Jits_Linear_8,1,1,48,88,1570230480
1916,18,Jits_Linear_8,2,5,56,103,1570250172
1916,18,Jits_Linear_8,3,5,63,98,1570289972
1916,18,Jits_Linear_8,0,5,80,127,1570940368
1916,18,Jits_Linear_8,1,5,63,98,1570959700
1916,18,Jits_Linear_8,2,1,48,108,1570989372
1916,18,Jits_Linear_8,3,5,56,103,1571009960
1916,18,Jits_Linear_8,0,5,80,127,1571670608
1916,18,Jits_Linear_8,1,5,56,103,1571700388
1916,18,Jits_Linear_8,2,1,48,101,1571732848
1916,18,Jits_Linear_8,3,5,63,98,1571769896
1916,18,Jits_Linear_8,0,5,56,103,1572440576
1916,18,Jits_Linear_8,1,5,80,127,1572449564
1916,18,Jits_Linear_8,2,1,48,89,1572459040
1916,18,Jits_Linear_8,3,5,63,98,1572489604
1916,18,Jits_Linear_8,0,5,56,103,1573070216
1916,18,Jits_Linear_8,1,5,63,98,1573089748
1916,18,Jits_Linear_8,2,5,80,127,1573160284
1916,18,Jits_Linear_8,3,1,48,81,1573181124
1916,18,Jits_Linear_8,0,5,63,98,1573809492
1916,18,Jits_Linear_8,1,5,80,127,1573870228
1916,18,Jits_Linear_8,2,5,56,103,1573890356
1916,18,Jits_Linear_8,3,1,48,93,1573899832
1916,18,Jits_Linear_8,0,5,80,127,1574510136
1916,18,Jits_Linear_8,1,5,56,103,1574539564
1916,18,Jits_Linear_8,2,5,63,98,1574570532
1916,18,Jits_Linear_8,3,1,48,92,1574633480
1916,18,Jits_Linear_8,0,5,56,103,1575219572
1916,18,Jits_Linear_8,1,5,63,98,1575280084
1916,18,Jits_Linear_8,2,1,48,105,1575307764
1916,18,Jits_Linear_8,3,5,80,127,1575340392
1916,18,Jits_Linear_8,0,5,80,127,1575949740
1916,18,Jits_Linear_8,1,5,56,103,1575970088
1916,18,Jits_Linear_8,2,1,48,98,1576005884
1916,18,Jits_Linear_8,3,5,63,98,1576039796
1916,18,Jits_Linear_8,0,5,80,127,1576660448
1916,18,Jits_Linear_8,1,5,63,98,1576679904
1916,18,Jits_Linear_8,2,5,56,103,1576709604
1916,18,Jits_Linear_8,3,1,48,98,1576728504
1916,18,Jits_Linear_8,0,5,80,127,1577349540
1916,18,Jits_Linear_8,1,5,63,98,1577370412
1916,18,Jits_Linear_8,2,5,56,103,1577430404
1916,18,Jits_Linear_8,3,1,48,88,1577460972
1916,18,Jits_Linear_8,0,5,80,127,1578049976
1916,18,Jits_Linear_8,1,5,56,103,1578150160
1916,18,Jits_Linear_8,2,1,48,75,1578155216
1916,18,Jits_Linear_8,3,5,63,98,1578180076
1916,18,Jits_Linear_8,0,5,63,98,1578740196
1916,18,Jits_Linear_8,1,5,80,127,1578790244
1916,18,Jits_Linear_8,2,5,56,103,1578809844
1916,18,Jits_Linear_8,3,1,48,93,1578889196
1916,18,Jits_Linear_8,0,5,80,127,1579480508
1916,18,Jits_Linear_8,1,5,56,103,1579510212
1916,18,Jits_Linear_8,2,5,63,98,1579513196
1916,18,Jits_Linear_8,3,1,48,107,1579596408
1916,18,Jits_Linear_8,0,5,63,98,1580209624
1916,18,Jits_Linear_8,1,5,56,103,1580249576
1916,18,Jits_Linear_8,2,1,48,95,1580258532
1916,18,Jits_Linear_8,3,5,80,127,1580269992
1916,18,Jits_Linear_8,0,5,80,127,1580849992
1916,18,Jits_Linear_8,1,5,63,98,1580930284
1916,18,Jits_Linear_8,2,1,48,117,1580952840
1916,18,Jits_Linear_8,3,5,56,103,1580970368
1916,18,Jits_Linear_8,0,5,63,98,1581560120
1916,18,Jits_Linear_8,1,1,48,115,1581632872
1916,18,Jits_Linear_8,2,5,80,127,1581640008
1916,18,Jits_Linear_8,3,5,56,103,1581659460
1916,18,Jits_Linear_8,0,5,56,103,1582290288
1916,18,Jits_Linear_8,1,5,63,98,1582299420
1916,18,Jits_Linear_8,2,1,48,70,1582320412
1916,18,Jits_Linear_8,3,1,38,18,1582329968
1916,18,Jits_Linear_8,4,5,80,127,1582339340
1916,18,Jits_Linear_8,0,5,56,103,1582899504
1916,18,Jits_Linear_8,1,5,80,127,1582902564
1916,18,Jits_Linear_8,2,1,48,106,1582990376
1916,18,Jits_Linear_8,3,5,63,98,1583039984
1916,18,Jits_Linear_8,0,5,56,103,1583579472
1916,18,Jits_Linear_8,1,1,48,117,1583657520
1916,18,Jits_Linear_8,2,5,63,98,1583669900
1916,18,Jits_Linear_8,3,5,80,127,1583740212
1916,18,Jits_Linear_8,0,1,48,124,1584323368
1916,18,Jits_Linear_8,1,5,63,98,1584340304
1916,18,Jits_Linear_8,2,5,80,127,1584343736
1916,18,Jits_Linear_8,3,5,56,103,1584399696
1916,18,Jits_Linear_8,0,1,48,123,1585018440
1916,18,Jits_Linear_8,1,5,80,127,1585060372
1916,18,Jits_Linear_8,2,5,56,103,1585079752
1916,18,Jits_Linear_8,3,5,63,98,1585090080
1916,18,Jits_Linear_8,0,5,56,103,1585650136
1916,18,Jits_Linear_8,1,5,63,98,1585660244
1916,18,Jits_Linear_8,2,1,48,90,1585727912
1916,18,Jits_Linear_8,3,5,80,127,1585729952
1916,18,Jits_Linear_8,0,5,80,127,1586329952
1916,18,Jits_Linear_8,1,5,56,103,1586380144
1916,18,Jits_Linear_8,2,1,48,115,1586396568
1916,18,Jits_Linear_8,3,5,63,98,1586430404
1916,18,Jits_Linear_8,0,1,48,102,1587051908
1916,18,Jits_Linear_8,1,5,56,103,1587089812
1916,18,Jits_Linear_8,2,5,63,98,1587099992
1916,18,Jits_Linear_8,3,5,80,127,1587140012
1916,18,Jits_Linear_8,0,5,56,103,1587710316
1916,18,Jits_Linear_8,1,1,48,78,1587719424
1916,18,Jits_Linear_8,2,1,38,19,1587729272
1916,18,Jits_Linear_8,3,5,63,98,1587750240
1916,18,Jits_Linear_8,4,5,80,127,1587800508
1916,18,Jits_Linear_8,0,5,80,127,1588340036
1916,18,Jits_Linear_8,1,1,48,101,1588384532
1916,18,Jits_Linear_8,2,5,56,103,1588390248
1916,18,Jits_Linear_8,3,5,63,98,1588409704
1916,18,Jits_Linear_8,0,1,48,86,1589017972
1916,18,Jits_Linear_8,1,5,80,127,1589019936
1916,18,Jits_Linear_8,2,1,38,19,1589028368
1916,18,Jits_Linear_8,3,5,63,98,1589080668
1916,18,Jits_Linear_8,4,5,56,103,1589160532
1916,18,Jits_Linear_8,0,5,80,127,1589670320
1916,18,Jits_Linear_8,1,5,56,103,1589710044
1916,18,Jits_Linear_8,2,5,63,98,1589729648
1916,18,Jits_Linear_8,3,1,48,101,1589732540
1916,18,Jits_Linear_8,0,5,56,103,1590390064
1916,18,Jits_Linear_8,1,5,80,127,1590400716
1916,18,Jits_Linear_8,2,1,48,86,1590425220
1916,18,Jits_Linear_8,3,5,63,98,1590440584
1916,18,Jits_Linear_8,0,1,48,78,1591093864
1916,18,Jits_Linear_8,1,1,38,19,1591103792
1916,18,Jits_Linear_8,2,5,56,103,1591120352
1916,18,Jits_Linear_8,3,5,63,98,1591160300
1916,18,Jits_Linear_8,4,5,80,127,1591163656
1916,18,Jits_Linear_8,0,5,63,98,1591670480
1916,18,Jits_Linear_8,1,5,80,127,1591710156
1916,18,Jits_Linear_8,2,5,56,103,1591779648
1916,18,Jits_Linear_8,3,1,48,100,1591808644
1916,18,Jits_Linear_8,0,5,63,98,1592320532
1916,18,Jits_Linear_8,1,5,56,103,1592400272
1916,18,Jits_Linear_8,2,5,80,127,1592459540
1916,18,Jits_Linear_8,3,1,48,95,1592482616
1916,18,Jits_Linear_8,0,5,80,127,1592990016
1916,18,Jits_Linear_8,1,5,63,98,1593040356
1916,18,Jits_Linear_8,2,5,56,103,1593069984
1916,18,Jits_Linear_8,3,1,48,81,1593125000
1916,18,Jits_Linear_8,4,1,38,19,1593135072
1916,18,Jits_Linear_8,0,5,56,103,1593640292
1916,18,Jits_Linear_8,1,5,63,98,1593689592
1916,18,Jits_Linear_8,2,5,80,127,1593699696
1916,18,Jits_Linear_8,3,1,48,85,1593800212
1916,18,Jits_Linear_8,4,1,38,19,1593810140
1916,18,Jits_Linear_8,0,5,56,103,1594309968
1916,18,Jits_Linear_8,1,5,63,98,1594419548
1916,18,Jits_Linear_8,2,5,80,127,1594440348
1916,18,Jits_Linear_8,3,1,48,115,1594466568
1916,18,Jits_Linear_8,0,5,63,98,1594960308
1916,18,Jits_Linear_8,1,5,80,127,1595010452
1916,18,Jits_Linear_8,2,5,56,103,1595099464
1916,18,Jits_Linear_8,3,1,48,94,1595128384
1916,18,Jits_Linear_8,0,5,63,98,1595600248
1916,18,Jits_Linear_8,1,5,80,127,1595629804
1916,18,Jits_Linear_8,2,5,56,103,1595720304
1916,18,Jits_Linear_8,3,1,48,85,1595789712
1916,18,Jits_Linear_8,4,1,38,19,1595800084
1916,18,Jits_Linear_8,0,5,63,98,1596249392
1916,18,Jits_Linear_8,1,5,56,103,1596259648
1916,18,Jits_Linear_8,2,5,80,127,1596360344
1916,18,Jits_Linear_8,3,1,48,79,1596449620
1916,18,Jits_Linear_8,4,1,38,19,1596459252
1916,18,Jits_Linear_8,0,5,63,98,1597000280
1916,18,Jits_Linear_8,1,5,80,127,1597029684
1916,18,Jits_Linear_8,2,5,56,103,1597059336
1916,18,Jits_Linear_8,3,1,48,91,1597102760
1916,18,Jits_Linear_8,0,5,80,127,1597659604
1916,18,Jits_Linear_8,1,5,63,98,1597669708
1916,18,Jits_Linear_8,2,5,56,103,1597699556
1916,18,Jits_Linear_8,3,1,48,88,1597776108
1916,18,Jits_Linear_8,4,1,38,20,1597786184
1916,18,Jits_Linear_8,0,5,80,127,1598200384
1916,18,Jits_Linear_8,1,5,63,98,1598219544
1916,18,Jits_Linear_8,2,5,56,103,1598269736
1916,18,Jits_Linear_8,3,1,48,81,1598415416
1916,18,Jits_Linear_8,4,1,38,19,1598425792
1916,18,Jits_Linear_8,0,5,63,98,1598870208
1916,18,Jits_Linear_8,1,5,80,127,1598930200
1916,18,Jits_Linear_8,2,5,56,103,1598950100
1916,18,Jits_Linear_8,3,1,48,81,1599039152
1916,18,Jits_Linear_8,0,5,63,98,1599470332
1916,18,Jits_Linear_8,1,5,56,103,1599520232
1916,18,Jits_Linear_8,2,5,80,127,1599530484
1916,18,Jits_Linear_8,3,1,48,95,1599721940
1916,18,Jits_Linear_8,0,5,56,103,1600139592
1916,18,Jits_Linear_8,1,5,80,127,1600150144
1916,18,Jits_Linear_8,2,5,63,98,1600250296
1916,18,Jits_Linear_8,3,1,48,98,1600372176
1916,18,Jits_Linear_8,0,5,80,127,1600739656
1916,18,Jits_Linear_8,1,5,63,98,1600750132
1916,18,Jits_Linear_8,2,5,56,103,1600899376
1916,18,Jits_Linear_8,3,1,48,104,1601004792
1916,18,Jits_Linear_8,0,5,63,98,1601379892
1916,18,Jits_Linear_8,1,5,80,127,1601419492
1916,18,Jits_Linear_8,2,5,56,103,1601499600
1916,18,Jits_Linear_8,3,1,48,106,1601625060
1916,18,Jits_Linear_8,0,5,56,103,1602000168
1916,18,Jits_Linear_8,1,5,80,127,1602099508
1916,18,Jits_Linear_8,2,5,63,98,1602120008
1916,18,Jits_Linear_8,3,1,48,88,1602238700
1916,18,Jits_Linear_8,4,1,38,20,1602248548
1916,18,Jits_Linear_8,0,5,80,127,1602690268
1916,18,Jits_Linear_8,1,5,56,103,1602699924
1916,18,Jits_Linear_8,2,5,63,98,1602789832
1916,18,Jits_Linear_8,3,1,48,80,1602856804
1916,18,Jits_Linear_8,0,5,56,103,1603320104
1916,18,Jits_Linear_8,1,5,63,98,1603339560
1916,18,Jits_Linear_8,2,5,80,127,1603419368
1916,18,Jits_Linear_8,3,1,48,100,1603472088
1916,18,Jits_Linear_8,0,5,63,98,1603889516
1916,18,Jits_Linear_8,1,5,56,103,1603979896
1916,18,Jits_Linear_8,2,5,80,127,1603982956
1916,18,Jits_Linear_8,3,1,48,84,1604076264
1916,18,Jits_Linear_8,0,5,56,103,1604539992
1916,18,Jits_Linear_8,1,5,80,127,1604600212
1916,18,Jits_Linear_8,2,5,63,98,1604610388
1916,18,Jits_Linear_8,3,1,48,120,1604647892
1916,18,Jits_Linear_8,0,5,80,127,1605209336
1916,18,Jits_Linear_8,1,5,56,103,1605219960
1916,18,Jits_Linear_8,2,5,63,98,1605223020
1916,18,Jits_Linear_8,3,1,48,96,1605300288
1916,18,Jits_Linear_8,0,5,56,103,1605790044
1916,18,Jits_Linear_8,1,5,80,127,1605800224
1916,18,Jits_Linear_8,2,5,63,98,1605819976
1916,18,Jits_Linear_8,3,1,48,108,1605917764
1916,18,Jits_Linear_8,0,5,63,98,1606379944
1916,18,Jits_Linear_8,1,5,80,127,1606440460
1916,18,Jits_Linear_8,2,5,56,103,1606489680
1916,18,Jits_Linear_8,3,1,48,94,1606518604
1916,18,Jits_Linear_8,4,1,38,20,1606529244
1916,18,Jits_Linear_8,0,5,63,98,1607080296
1916,18,Jits_Linear_8,1,5,56,103,1607089800
1916,18,Jits_Linear_8,2,1,48,99,1607104500
1916,18,Jits_Linear_8,3,5,80,127,1607139912
1916,18,Jits_Linear_8,0,5,63,98,1607590220
1916,18,Jits_Linear_8,1,5,80,127,1607609676
1916,18,Jits_Linear_8,2,5,56,103,1607620152
1916,18,Jits_Linear_8,3,1,48,97,1607696924
1916,18,Jits_Linear_8,0,5,63,98,1608199612
1916,18,Jits_Linear_8,1,5,80,127,1608202824
1916,18,Jits_Linear_8,2,5,56,103,1608239632
1916,18,Jits_Linear_8,3,1,48,93,1608283056
1916,18,Jits_Linear_8,4,1,38,20,1608293584
1916,18,Jits_Linear_8,0,1,48,123,1608875432
1916,18,Jits_Linear_8,1,5,63,98,1608879728
1916,18,Jits_Linear_8,2,5,80,127,1608910176
1916,18,Jits_Linear_8,3,5,56,103,1608920504
1916,18,Jits_Linear_8,0,5,56,103,1609439572
1916,18,Jits_Linear_8,1,1,48,103,1609465868
1916,18,Jits_Linear_8,2,5,80,127,1609470312
1916,18,Jits_Linear_8,3,5,63,98,1609500088
1916,18,Jits_Linear_8,0,1,48,109,1610049340
1916,18,Jits_Linear_8,1,5,63,98,1610139896
1916,18,Jits_Linear_8,2,5,56,103,1610179904
1916,18,Jits_Linear_8,3,5,80,127,1610182964
1916,18,Jits_Linear_8,0,5,80,127,1610639680
1916,18,Jits_Linear_8,1,1,48,99,1610678704
1916,18,Jits_Linear_8,2,5,56,103,1610719564
1916,18,Jits_Linear_8,3,5,63,98,1610769680
1916,18,Jits_Linear_8,0,5,80,127,1611220448
1916,18,Jits_Linear_8,1,5,56,103,1611239680
1916,18,Jits_Linear_8,2,1,48,100,1611322372
1916,18,Jits_Linear_8,3,5,63,98,1611329880
1916,18,Jits_Linear_8,0,5,80,127,1611860460
1916,18,Jits_Linear_8,1,5,63,98,1611900508
1916,18,Jits_Linear_8,2,5,56,103,1611940456
1916,18,Jits_Linear_8,3,1,48,113,1611945364
1916,18,Jits_Linear_8,0,5,63,98,1612429676
1916,18,Jits_Linear_8,1,5,80,127,1612490264
1916,18,Jits_Linear_8,2,5,56,103,1612519816
1916,18,Jits_Linear_8,3,1,48,106,1612550976
1916,18,Jits_Linear_8,0,5,56,103,1613029812
1916,18,Jits_Linear_8,1,5,80,127,1613059588
1916,18,Jits_Linear_8,2,1,48,91,1613121936
1916,18,Jits_Linear_8,3,1,38,19,1613132312
1916,18,Jits_Linear_8,4,5,63,98,1613149544
1916,18,Jits_Linear_8,0,5,56,103,1613629760
1916,18,Jits_Linear_8,1,1,48,94,1613727900
1916,18,Jits_Linear_8,2,5,80,127,1613740404
1916,18,Jits_Linear_8,3,5,63,98,1613770032
1916,18,Jits_Linear_8,0,5,56,103,1614269796
1916,18,Jits_Linear_8,1,1,48,111,1614315912
1916,18,Jits_Linear_8,2,5,63,98,1614330308
1916,18,Jits_Linear_8,3,5,80,127,1614359860
1916,18,Jits_Linear_8,0,5,56,103,1614829864
1916,18,Jits_Linear_8,1,5,63,98,1614899432
1916,18,Jits_Linear_8,2,5,80,127,1614920080
1916,18,Jits_Linear_8,3,1,48,109,1614946000
1916,18,Jits_Linear_8,0,5,80,127,1615390004
1916,18,Jits_Linear_8,1,5,63,98,1615409608
1916,18,Jits_Linear_8,2,5,56,103,1615459872
1916,18,Jits_Linear_8,3,1,48,91,1615544824
1916,18,Jits_Linear_8,4,1,38,20,1615555272
1916,18,Jits_Linear_8,0,5,63,98,1615990316
1916,18,Jits_Linear_8,1,5,80,127,1616000448
1916,18,Jits_Linear_8,2,5,56,103,1616049520
1916,18,Jits_Linear_8,3,1,48,96,1616111416
1916,18,Jits_Linear_8,4,1,38,20,1616121948
1916,18,Jits_Linear_8,0,5,63,98,1616569704
1916,18,Jits_Linear_8,1,5,80,127,1616640320
1916,18,Jits_Linear_8,2,5,56,103,1616659920
1916,18,Jits_Linear_8,3,1,48,108,1616692800
1916,18,Jits_Linear_8,0,5,63,98,1617180088
1916,18,Jits_Linear_8,1,5,80,127,1617183224
1916,18,Jits_Linear_8,2,5,56,103,1617249504
1916,18,Jits_Linear_8,3,1,48,90,1617279200
1916,18,Jits_Linear_8,4,1,38,20,1617289048
1916,18,Jits_Linear_8,0,5,80,127,1617709408
1916,18,Jits_Linear_8,1,5,56,103,1617729832
1916,18,Jits_Linear_8,2,5,63,98,1617740308
1916,18,Jits_Linear_8,3,1,48,112,1617874400
1916,18,Jits_Linear_8,0,5,56,103,1618309504
1916,18,Jits_Linear_8,1,5,63,98,1618399484
1916,18,Jits_Linear_8,2,5,80,127,1618402772
1916,18,Jits_Linear_8,3,1,48,114,1618470364
1916,18,Jits_Linear_8,0,5,80,127,1618860432
1916,18,Jits_Linear_8,1,5,56,103,1618869492
1916,18,Jits_Linear_8,2,5,63,98,1618890288
1916,18,Jits_Linear_8,3,1,48,95,1619065932
1916,18,Jits_Linear_8,4,1,38,21,1619076124
1916,18,Jits_Linear_8,0,5,63,98,1619429792
1916,18,Jits_Linear_8,1,5,80,127,1619490232
1916,18,Jits_Linear_8,2,5,56,103,1619500488
1916,18,Jits_Linear_8,3,1,48,88,1619675484
1916,18,Jits_Linear_8,4,1,38,20,1619685260
1916,18,Jits_Linear_8,0,5,63,98,1620069740
1916,18,Jits_Linear_8,1,5,80,127,1620099320
1916,18,Jits_Linear_8,2,5,56,103,1620140456
1916,18,Jits_Linear_8,3,1,48,125,1620212228
1916,18,Jits_Linear_8,0,5,56,103,1620629892
1916,18,Jits_Linear_8,1,5,80,127,1620639996
1916,18,Jits_Linear_8,2,5,63,98,1620680168
1916,18,Jits_Linear_8,3,1,48,89,1620818876
1916,18,Jits_Linear_8,0,5,80,127,1621160252
1916,18,Jits_Linear_8,1,5,56,103,1621240140
1916,18,Jits_Linear_8,2,5,63,98,1621250540
1916,18,Jits_Linear_8,3,1,48,81,1621408276
1916,18,Jits_Linear_8,0,5,80,127,1621769504
1916,18,Jits_Linear_8,1,5,56,103,1621849320
1916,18,Jits_Linear_8,2,5,63,98,1621859868
1916,18,Jits_Linear_8,3,1,48,81,1622014820
1916,18,Jits_Linear_8,0,5,80,127,1622290068
1916,18,Jits_Linear_8,1,5,56,103,1622340264
1916,18,Jits_Linear_8,2,5,63,98,1622390308
1916,18,Jits_Linear_8,3,1,48,95,1622599940
1916,18,Jits_Linear_8,0,5,56,103,1622910284
1916,18,Jits_Linear_8,1,5,63,98,1622913416
1916,18,Jits_Linear_8,2,5,80,127,1622959428
1916,18,Jits_Linear_8,3,1,48,95,1623168168
1916,18,Jits_Linear_8,0,1,38,20,1623187860
1916,18,Jits_Linear_8,1,5,56,103,1623490024
1916,18,Jits_Linear_8,2,5,63,98,1623519728
1916,18,Jits_Linear_8,3,5,80,127,1623530056
1916,18,Jits_Linear_8,4,1,48,79,1623735264
1916,18,Jits_Linear_8,0,1,38,19,1623751652
1916,18,Jits_Linear_8,1,5,63,98,1623960108
1916,18,Jits_Linear_8,2,5,56,103,1624029600
1916,18,Jits_Linear_8,3,5,80,127,1624079868
1916,18,Jits_Linear_8,0,1,48,105,1624328484
1916,18,Jits_Linear_8,1,5,63,98,1624550064
1916,18,Jits_Linear_8,2,5,56,103,1624560020
1916,18,Jits_Linear_8,3,5,80,127,1624563008
1916,18,Jits_Linear_8,0,1,48,113,1624916644
1916,18,Jits_Linear_8,1,5,80,127,1625049384
1916,18,Jits_Linear_8,2,5,56,103,1625110120
1916,18,Jits_Linear_8,3,5,63,98,1625199956
1916,18,Jits_Linear_8,0,1,48,117,1625485340
1916,18,Jits_Linear_8,1,5,80,127,1625600320
1916,18,Jits_Linear_8,2,5,56,103,1625699880
1916,18,Jits_Linear_8,3,5,63,98,1625739928
1916,18,Jits_Linear_8,0,1,48,100,1626060896
1916,18,Jits_Linear_8,1,5,56,103,1626200404
1916,18,Jits_Linear_8,2,5,63,98,1626219936
1916,18,Jits_Linear_8,3,5,80,127,1626259980
1916,18,Jits_Linear_8,0,1,48,105,1626619468
1916,18,Jits_Linear_8,1,5,63,98,1626719852
1916,18,Jits_Linear_8,2,5,56,103,1626740204
1916,18,Jits_Linear_8,3,5,80,127,1626840532
1916,18,Jits_Linear_8,0,1,48,67,1627180356
1916,18,Jits_Linear_8,1,5,63,98,1627250088
1916,18,Jits_Linear_8,2,5,80,127,1627359832
1916,18,Jits_Linear_8,3,5,56,103,1627390204
1916,18,Jits_Linear_8,0,1,48,82,1627766412
1916,18,Jits_Linear_8,1,1,38,19,1627776824
1916,18,Jits_Linear_8,2,5,56,103,1627810148
1916,18,Jits_Linear_8,3,5,63,98,1627839996
1916,18,Jits_Linear_8,4,5,80,127,1627890148
1916,18,Jits_Linear_8,0,5,63,98,1628320052
1916,18,Jits_Linear_8,1,5,56,103,1628349828
1916,18,Jits_Linear_8,2,1,48,93,1628352268
1916,18,Jits_Linear_8,3,5,80,127,1628399864
1916,18,Jits_Linear_8,0,5,56,103,1628889732
1916,18,Jits_Linear_8,1,1,48,88,1628907744
1916,18,Jits_Linear_8,2,5,63,98,1628909852
1916,18,Jits_Linear_8,3,5,80,127,1628989884
1916,18,Jits_Linear_8,0,5,63,98,1629400712
1916,18,Jits_Linear_8,1,1,48,87,1629451100
1916,18,Jits_Linear_8,2,5,56,103,1629459732
1916,18,Jits_Linear_8,3,5,80,127,1629489728
1916,18,Jits_Linear_8,0,5,56,103,1629980124
1916,18,Jits_Linear_8,1,1,48,96,1629986000
1916,18,Jits_Linear_8,2,5,80,127,1630040632
1916,18,Jits_Linear_8,3,5,63,98,1630080220
1916,18,Jits_Linear_8,0,5,63,98,1630489920
1916,18,Jits_Linear_8,1,5,56,103,1630550436
1916,18,Jits_Linear_8,2,1,48,109,1630561484
1916,18,Jits_Linear_8,3,5,80,127,1630620020
1916,18,Jits_Linear_8,0,5,56,103,1631100416
1916,18,Jits_Linear_8,1,1,48,94,1631105472
1916,18,Jits_Linear_8,2,5,63,98,1631109764
1916,18,Jits_Linear_8,3,5,80,127,1631113120
1916,18,Jits_Linear_8,0,5,63,98,1631570532
1916,18,Jits_Linear_8,1,5,56,103,1631629656
1916,18,Jits_Linear_8,2,5,80,127,1631632640
1916,18,Jits_Linear_8,3,1,48,87,1631652212
1916,18,Jits_Linear_8,4,1,38,19,1631662440
1916,18,Jits_Linear_8,0,5,63,98,1632080184
1916,18,Jits_Linear_8,1,5,80,127,1632109812
1916,18,Jits_Linear_8,2,5,56,103,1632130560
1916,18,Jits_Linear_8,3,1,48,103,1632175624
1916,18,Jits_Linear_8,0,5,56,103,1632609640
1916,18,Jits_Linear_8,1,5,63,98,1632659784
1916,18,Jits_Linear_8,2,1,48,98,1632700748
1916,18,Jits_Linear_8,3,5,80,127,1632739736
1916,18,Jits_Linear_8,0,5,80,127,1633110600
1916,18,Jits_Linear_8,1,5,63,98,1633150572
1916,18,Jits_Linear_8,2,5,56,103,1633169804
1916,18,Jits_Linear_8,3,1,48,89,1633208300
1916,18,Jits_Linear_8,0,5,56,103,1633700300
1916,18,Jits_Linear_8,1,5,80,127,1633709732
1916,18,Jits_Linear_8,2,1,48,111,1633717100
1916,18,Jits_Linear_8,3,5,63,98,1633729856
1916,18,Jits_Linear_8,0,5,56,103,1634200008
1916,18,Jits_Linear_8,1,1,48,106,1634230724
1916,18,Jits_Linear_8,2,1,38,22,1634240952
1916,18,Jits_Linear_8,3,5,63,98,1634250248
1916,18,Jits_Linear_8,4,5,80,127,1634279876
1916,18,Jits_Linear_8,0,5,56,103,1634669948
1916,18,Jits_Linear_8,1,5,63,98,1634680424
1916,18,Jits_Linear_8,2,5,80,127,1634730568
1916,18,Jits_Linear_8,3,1,48,109,1634745500
1916,18,Jits_Linear_8,0,5,56,103,1635179896
1916,18,Jits_Linear_8,1,5,80,127,1635182884
1916,18,Jits_Linear_8,2,1,48,86,1635238464
1916,18,Jits_Linear_8,3,5,63,98,1635339664
1916,18,Jits_Linear_8,0,5,63,98,1635710424
1916,18,Jits_Linear_8,1,1,48,92,1635733804
1916,18,Jits_Linear_8,2,5,56,103,1635779912
1916,18,Jits_Linear_8,3,5,80,127,1635819856
1916,18,Jits_Linear_8,0,1,48,110,1636244704
1916,18,Jits_Linear_8,1,5,63,98,1636260440
1916,18,Jits_Linear_8,2,5,56,103,1636350640
1916,18,Jits_Linear_8,3,5,80,127,1636353544
1916,18,Jits_Linear_8,0,5,56,103,1636749756
1916,18,Jits_Linear_8,1,1,48,69,1636767988
1916,18,Jits_Linear_8,2,5,63,98,1636839736
1916,18,Jits_Linear_8,3,5,80,127,1636849988
1916,18,Jits_Linear_8,0,5,56,103,1637229908
1916,18,Jits_Linear_8,1,5,63,98,1637280352
1916,18,Jits_Linear_8,2,1,48,111,1637282064
1916,18,Jits_Linear_8,3,5,80,127,1637309676
1916,18,Jits_Linear_8,0,1,48,89,1637780920
1916,18,Jits_Linear_8,1,5,63,98,1637809444
1916,18,Jits_Linear_8,2,5,80,127,1637819772
1916,18,Jits_Linear_8,3,5,56,103,1637880344
1916,18,Jits_Linear_8,0,5,63,98,1638230348
1916,18,Jits_Linear_8,1,5,80,127,1638289768
1916,18,Jits_Linear_8,2,1,48,85,1638299244
1916,18,Jits_Linear_8,3,1,38,19,1638309176
1916,18,Jits_Linear_8,4,5,56,103,1638329616
1916,18,Jits_Linear_8,0,1,48,97,1638821752
1916,18,Jits_Linear_8,1,5,56,103,1638829412
1916,18,Jits_Linear_8,2,5,80,127,1638849912
1916,18,Jits_Linear_8,3,5,63,98,1638870336
1916,18,Jits_Linear_8,0,5,63,98,1639250312
1916,18,Jits_Linear_8,1,5,56,103,1639269620
1916,18,Jits_Linear_8,2,5,80,127,1639309668
1916,18,Jits_Linear_8,3,1,48,103,1639343516
1916,18,Jits_Linear_8,0,5,63,98,1639760320
1916,18,Jits_Linear_8,1,5,80,127,1639790096
1916,18,Jits_Linear_8,2,5,56,103,1639810396
1916,18,Jits_Linear_8,3,1,48,101,1639860556
1916,18,Jits_Linear_8,0,5,80,127,1640230156
1916,18,Jits_Linear_8,1,5,56,103,1640280424
1916,18,Jits_Linear_8,2,5,63,98,1640339768
1916,18,Jits_Linear_8,3,1,48,89,1640365540
1916,18,Jits_Linear_8,0,5,63,98,1640709504
1916,18,Jits_Linear_8,1,5,56,103,1640830404
1916,18,Jits_Linear_8,2,5,80,127,1640860104
1916,18,Jits_Linear_8,3,1,48,82,1640861588
1916,18,Jits_Linear_8,0,5,80,127,1641240000
1916,18,Jits_Linear_8,1,5,63,98,1641260352
1916,18,Jits_Linear_8,2,5,56,103,1641330216
1916,18,Jits_Linear_8,3,1,48,88,1641347944
1916,18,Jits_Linear_8,0,5,63,98,1641749868
1916,18,Jits_Linear_8,1,5,56,103,1641760048
1916,18,Jits_Linear_8,2,1,48,103,1641825832
1916,18,Jits_Linear_8,3,5,80,127,1641840072
1916,18,Jits_Linear_8,0,5,56,103,1642300048
1916,18,Jits_Linear_8,1,1,48,80,1642310496
1916,18,Jits_Linear_8,2,5,80,127,1642329448
1916,18,Jits_Linear_8,3,5,63,98,1642339624
1916,18,Jits_Linear_8,0,9999,9999,9999,1531957324
1916,18,Jits_Linear_8,1,9999,9999,9999,1532777596
1916,18,Jits_Linear_8,2,9999,9999,9999,1533597816
1916,18,Jits_Linear_8,3,9999,9999,9999,1534418016
1916,18,Jits_Linear_8,4,9999,9999,9999,1535237188
1916,18,Jits_Linear_8,5,9999,9999,9999,1536047212
1916,18,Jits_Linear_8,6,9999,9999,9999,1536857176
1916,18,Jits_Linear_8,7,9999,9999,9999,1537667160
1916,18,Jits_Linear_8,8,9999,9999,9999,1538477136
1916,18,Jits_Linear_8,9,9999,9999,9999,1539287152
1916,18,Jits_Linear_8,10,9999,9999,9999,1540087920
1916,18,Jits_Linear_8,11,9999,9999,9999,1540887636
1916,18,Jits_Linear_8,12,9999,9999,9999,1541687352
1916,18,Jits_Linear_8,13,9999,9999,9999,1542487148
1916,18,Jits_Linear_8,14,9999,9999,9999,1543287880
1916,18,Jits_Linear_8,15,9999,9999,9999,1544077388
1916,18,Jits_Linear_8,16,9999,9999,9999,1544867948
1916,18,Jits_Linear_8,17,9999,9999,9999,1545657428
1916,18,Jits_Linear_8,18,9999,9999,9999,1546447980
1916,18,Jits_Linear_8,19,9999,9999,9999,1547237452
1916,18,Jits_Linear_8,20,9999,9999,9999,1548017728
1916,18,Jits_Linear_8,21,9999,9999,9999,1548798056
1916,18,Jits_Linear_8,22,9999,9999,9999,1549577272
1916,18,Jits_Linear_8,23,9999,9999,9999,1550357612
1916,18,Jits_Linear_8,24,9999,9999,9999,1551137868
1916,18,Jits_Linear_8,25,9999,9999,9999,1551907900
1916,18,Jits_Linear_8,26,9999,9999,9999,1552678000
1916,18,Jits_Linear_8,27,9999,9999,9999,1553448032
1916,18,Jits_Linear_8,28,9999,9999,9999,1554218112
1916,18,Jits_Linear_8,29,9999,9999,9999,1554987096
1916,18,Jits_Linear_8,30,9999,9999,9999,1555747912
1916,18,Jits_Linear_8,31,9999,9999,9999,1556507756
1916,18,Jits_Linear_8,32,9999,9999,9999,1557267572
1916,18,Jits_Linear_8,33,9999,9999,9999,1558027340
1916,18,Jits_Linear_8,34,9999,9999,9999,1558787132
1916,18,Jits_Linear_8,35,9999,9999,9999,1559537768
1916,18,Jits_Linear_8,36,9999,9999,9999,1560287316
1916,18,Jits_Linear_8,37,9999,9999,9999,1561037904
1916,18,Jits_Linear_8,38,9999,9999,9999,1561787468
1916,18,Jits_Linear_8,39,9999,9999,9999,1562538072
1916,18,Jits_Linear_8,40,9999,9999,9999,1563277372
1916,18,Jits_Linear_8,41,9999,9999,9999,1564017760
1916,18,Jits_Linear_8,42,9999,9999,9999,1564758084
1916,18,Jits_Linear_8,43,9999,9999,9999,1565507688
1916,18,Jits_Linear_8,44,9999,9999,9999,1566248056
1916,18,Jits_Linear_8,45,9999,9999,9999,1566977096
1916,18,Jits_Linear_8,46,9999,9999,9999,1567707256
1916,18,Jits_Linear_8,47,9999,9999,9999,1568437340
1916,18,Jits_Linear_8,48,9999,9999,9999,1569167424
1916,18,Jits_Linear_8,49,9999,9999,9999,1569897548
1916,18,Jits_Linear_8,50,9999,9999,9999,1570617444
1916,18,Jits_Linear_8,51,9999,9999,9999,1571337284
1916,18,Jits_Linear_8,52,9999,9999,9999,1572057208
1916,18,Jits_Linear_8,53,9999,9999,9999,1572778112
1916,18,Jits_Linear_8,54,9999,9999,9999,1573497920
1916,18,Jits_Linear_8,55,9999,9999,9999,1574207576
1916,18,Jits_Linear_8,56,9999,9999,9999,1574917220
1916,18,Jits_Linear_8,57,9999,9999,9999,1575627852
1916,18,Jits_Linear_8,58,9999,9999,9999,1576337528
1916,18,Jits_Linear_8,59,9999,9999,9999,1577047164
1916,18,Jits_Linear_8,60,9999,9999,9999,1577747552
1916,18,Jits_Linear_8,61,9999,9999,9999,1578447944
1916,18,Jits_Linear_8,62,9999,9999,9999,1579147360
1916,18,Jits_Linear_8,63,9999,9999,9999,1579847772
1916,18,Jits_Linear_8,64,9999,9999,9999,1580547132
1916,18,Jits_Linear_8,65,9999,9999,9999,1581237340
1916,18,Jits_Linear_8,66,9999,9999,9999,1581927552
1916,18,Jits_Linear_8,67,9999,9999,9999,1582617724
1916,18,Jits_Linear_8,68,9999,9999,9999,1583307852
1916,18,Jits_Linear_8,69,9999,9999,9999,1583998080
1916,18,Jits_Linear_8,70,9999,9999,9999,1584677960
1916,18,Jits_Linear_8,71,9999,9999,9999,1585357948
1916,18,Jits_Linear_8,72,9999,9999,9999,1586037828
1916,18,Jits_Linear_8,73,9999,9999,9999,1586717792
1916,18,Jits_Linear_8,74,9999,9999,9999,1587397708
1916,18,Jits_Linear_8,75,9999,9999,9999,1588067452
1916,18,Jits_Linear_8,76,9999,9999,9999,1588737104
1916,18,Jits_Linear_8,77,9999,9999,9999,1589407848
1916,18,Jits_Linear_8,78,9999,9999,9999,1590077532
1916,18,Jits_Linear_8,79,9999,9999,9999,1590747192
1916,18,Jits_Linear_8,80,9999,9999,9999,1591407720
1916,18,Jits_Linear_8,81,9999,9999,9999,1592067176
1916,18,Jits_Linear_8,82,9999,9999,9999,1592727624
1916,18,Jits_Linear_8,83,9999,9999,9999,1593387084
1916,18,Jits_Linear_8,84,9999,9999,9999,1594047556
1916,18,Jits_Linear_8,85,9999,9999,9999,1594697812
1916,18,Jits_Linear_8,86,9999,9999,9999,1595348028
1916,18,Jits_Linear_8,87,9999,9999,9999,1595997244
1916,18,Jits_Linear_8,88,9999,9999,9999,1596647528
1916,18,Jits_Linear_8,89,9999,9999,9999,1597297780
1916,18,Jits_Linear_8,90,9999,9999,9999,1597937752
1916,18,Jits_Linear_8,91,9999,9999,9999,1598577784
1916,18,Jits_Linear_8,92,9999,9999,9999,1599217740
1916,18,Jits_Linear_8,93,9999,9999,9999,1599857728
1916,18,Jits_Linear_8,94,9999,9999,9999,1600497740
1916,18,Jits_Linear_8,95,9999,9999,9999,1601127500
1916,18,Jits_Linear_8,96,9999,9999,9999,1601757288
1916,18,Jits_Linear_8,97,9999,9999,9999,1602388044
1916,18,Jits_Linear_8,98,9999,9999,9999,1603017828
1916,18,Jits_Linear_8,99,9999,9999,9999,1603647588
1916,18,Jits_Linear_8,100,9999,9999,9999,1604267128
1916,18,Jits_Linear_8,101,9999,9999,9999,1604887672
1916,18,Jits_Linear_8,102,9999,9999,9999,1605507140
1916,18,Jits_Linear_8,103,9999,9999,9999,1606127696
1916,18,Jits_Linear_8,104,9999,9999,9999,1606747264
1916,18,Jits_Linear_8,105,9999,9999,9999,1607357520
1916,18,Jits_Linear_8,106,9999,9999,9999,1607967812
1916,18,Jits_Linear_8,107,9999,9999,9999,1608577100
1916,18,Jits_Linear_8,108,9999,9999,9999,1609187400
1916,18,Jits_Linear_8,109,9999,9999,9999,1609797720
1916,18,Jits_Linear_8,110,9999,9999,9999,1610397756
1916,18,Jits_Linear_8,111,9999,9999,9999,1610997832
1916,18,Jits_Linear_8,112,9999,9999,9999,1611597892
1916,18,Jits_Linear_8,113,9999,9999,9999,1612197996
1916,18,Jits_Linear_8,114,9999,9999,9999,1612798072
1916,18,Jits_Linear_8,115,9999,9999,9999,1613387840
1916,18,Jits_Linear_8,116,9999,9999,9999,1613977692
1916,18,Jits_Linear_8,117,9999,9999,9999,1614567520
1916,18,Jits_Linear_8,118,9999,9999,9999,1615157356
1916,18,Jits_Linear_8,119,9999,9999,9999,1615747156
1916,18,Jits_Linear_8,120,9999,9999,9999,1616327804
1916,18,Jits_Linear_8,121,9999,9999,9999,1616907364
1916,18,Jits_Linear_8,122,9999,9999,9999,1617488000
1916,18,Jits_Linear_8,123,9999,9999,9999,1618067576
1916,18,Jits_Linear_8,124,9999,9999,9999,1618647156
1916,18,Jits_Linear_8,125,9999,9999,9999,1619217496
1916,18,Jits_Linear_8,126,9999,9999,9999,1619787896
1916,18,Jits_Linear_8,127,9999,9999,9999,1620357240
1916,18,Jits_Linear_8,128,9999,9999,9999,1620927612
1916,18,Jits_Linear_8,129,9999,9999,9999,1621497924
1916,18,Jits_Linear_8,130,9999,9999,9999,1622058044
1916,18,Jits_Linear_8,131,9999,9999,9999,1622617200
1916,18,Jits_Linear_8,132,9999,9999,9999,1623177272
1916,18,Jits_Linear_8,133,9999,9999,9999,1623737432
1916,18,Jits_Linear_8,134,9999,9999,9999,1624297568
1916,18,Jits_Linear_8,135,9999,9999,9999,1624847424
1916,18,Jits_Linear_8,136,9999,9999,9999,1625397312
1916,18,Jits_Linear_8,137,9999,9999,9999,1625947208
1916,18,Jits_Linear_8,138,9999,9999,9999,1626497124
1916,18,Jits_Linear_8,139,9999,9999,9999,1627048060
1916,18,Jits_Linear_8,140,9999,9999,9999,1627587712
1916,18,Jits_Linear_8,141,9999,9999,9999,1628127296
1916,18,Jits_Linear_8,142,9999,9999,9999,1628668028
1916,18,Jits_Linear_8,143,9999,9999,9999,1629207644
1916,18,Jits_Linear_8,144,9999,9999,9999,1629747276
1916,18,Jits_Linear_8,145,9999,9999,9999,1630277700
1916,18,Jits_Linear_8,146,9999,9999,9999,1630807168
1916,18,Jits_Linear_8,147,9999,9999,9999,1631337596
1916,18,Jits_Linear_8,148,9999,9999,9999,1631868000
1916,18,Jits_Linear_8,149,9999,9999,9999,1632397372
1916,18,Jits_Linear_8,150,9999,9999,9999,1632917632
1916,18,Jits_Linear_8,151,9999,9999,9999,1633437812
1916,18,Jits_Linear_8,152,9999,9999,9999,1633958008
1916,18,Jits_Linear_8,153,9999,9999,9999,1634477116
1916,18,Jits_Linear_8,154,9999,9999,9999,1634997312
1916,18,Jits_Linear_8,155,9999,9999,9999,1635507256
1916,18,Jits_Linear_8,156,9999,9999,9999,1636017276
1916,18,Jits_Linear_8,157,9999,9999,9999,1636527204
1916,18,Jits_Linear_8,158,9999,9999,9999,1637037160
1916,18,Jits_Linear_8,159,9999,9999,9999,1637547104
1916,18,Jits_Linear_8,160,9999,9999,9999,1638047860
1916,18,Jits_Linear_8,161,9999,9999,9999,1638547568
1916,18,Jits_Linear_8,162,9999,9999,9999,1639047264
1916,18,Jits_Linear_8,163,9999,9999,9999,1639547984
1916,18,Jits_Linear_8,164,9999,9999,9999,1640047720
1916,18,Jits_Linear_8,165,9999,9999,9999,1640537152
1916,18,Jits_Linear_8,166,9999,9999,9999,1641027648
1916,18,Jits_Linear_8,167,9999,9999,9999,1641517156
1916,18,Jits_Linear_8,168,9999,9999,9999,1642007652
1916,18,Jits_Linear_8,169,9999,9999,9999,1642497104
1917,17,Jits_Phase_5,0,5,56,103,1658903972
1917,17,Jits_Phase_5,1,5,63,98,1658907064
1917,17,Jits_Phase_5,2,5,80,127,1658910260
1917,17,Jits_Phase_5,0,5,56,103,1659403752
1917,17,Jits_Phase_5,1,5,63,98,1659406620
1917,17,Jits_Phase_5,2,5,80,127,1659409816
1917,17,Jits_Phase_5,0,1,48,43,1659872104
1917,17,Jits_Phase_5,1,1,38,17,1659883376
1917,17,Jits_Phase_5,2,5,56,103,1659904340
1917,17,Jits_Phase_5,3,5,80,127,1659913552
1917,17,Jits_Phase_5,4,5,63,98,1659934344
1917,17,Jits_Phase_5,0,5,63,98,1660354020
1917,17,Jits_Phase_5,1,1,48,90,1660363948
1917,17,Jits_Phase_5,2,1,38,20,1660373576
1917,17,Jits_Phase_5,3,5,80,127,1660383548
1917,17,Jits_Phase_5,4,5,56,103,1660393948
1917,17,Jits_Phase_5,0,1,48,111,1660838560
1917,17,Jits_Phase_5,1,5,80,127,1660914428
1917,17,Jits_Phase_5,2,5,56,103,1660924384
1917,17,Jits_Phase_5,3,5,63,98,1660953992
1917,17,Jits_Phase_5,0,1,48,98,1661339380
1917,17,Jits_Phase_5,1,5,63,98,1661403516
1917,17,Jits_Phase_5,2,5,56,103,1661434184
1917,17,Jits_Phase_5,3,5,80,127,1661443452
1917,17,Jits_Phase_5,0,1,48,93,1661853232
1917,17,Jits_Phase_5,1,5,56,103,1661855024
1917,17,Jits_Phase_5,2,5,63,98,1661904316
1917,17,Jits_Phase_5,3,5,80,127,1661923624
1917,17,Jits_Phase_5,0,1,48,100,1662342784
1917,17,Jits_Phase_5,1,5,80,127,1662353876
1917,17,Jits_Phase_5,2,5,63,98,1662404140
1917,17,Jits_Phase_5,3,5,56,103,1662444068
1917,17,Jits_Phase_5,0,1,48,82,1662841572
1917,17,Jits_Phase_5,1,5,56,103,1662853428
1917,17,Jits_Phase_5,2,5,63,98,1662884172
1917,17,Jits_Phase_5,3,5,80,127,1662953864
1917,17,Jits_Phase_5,0,1,48,92,1663339584
1917,17,Jits_Phase_5,1,5,56,103,1663354148
1917,17,Jits_Phase_5,2,5,80,127,1663413616
1917,17,Jits_Phase_5,3,5,63,98,1663444196
1917,17,Jits_Phase_5,0,1,48,99,1663857884
1917,17,Jits_Phase_5,1,5,56,103,1663864072
1917,17,Jits_Phase_5,2,5,63,98,1663874548
1917,17,Jits_Phase_5,3,5,80,127,1663914492
1917,17,Jits_Phase_5,0,1,48,109,1664349628
1917,17,Jits_Phase_5,1,5,63,98,1664353772
1917,17,Jits_Phase_5,2,5,80,127,1664433680
1917,17,Jits_Phase_5,3,5,56,103,1664443772
1917,17,Jits_Phase_5,0,1,48,89,1664826672
1917,17,Jits_Phase_5,1,5,63,98,1664903464
1917,17,Jits_Phase_5,2,5,56,103,1664943392
1917,17,Jits_Phase_5,3,5,80,127,1664946528
1917,17,Jits_Phase_5,0,1,48,107,1665307484
1917,17,Jits_Phase_5,1,5,56,103,1665373488
1917,17,Jits_Phase_5,2,5,63,98,1665383964
1917,17,Jits_Phase_5,3,5,80,127,1665423844
1917,17,Jits_Phase_5,0,1,48,116,1665780328
1917,17,Jits_Phase_5,1,5,56,103,1665863980
1917,17,Jits_Phase_5,2,5,63,98,1665867044
1917,17,Jits_Phase_5,3,5,80,127,1665883496
1917,17,Jits_Phase_5,0,1,48,113,1666246952
1917,17,Jits_Phase_5,1,5,80,127,1666373968
1917,17,Jits_Phase_5,2,5,56,103,1666384368
1917,17,Jits_Phase_5,3,5,63,98,1666453808
1917,17,Jits_Phase_5,0,1,48,108,1666748744
1917,17,Jits_Phase_5,1,5,63,98,1666863420
1917,17,Jits_Phase_5,2,5,56,103,1666884068
1917,17,Jits_Phase_5,3,5,80,127,1666963900
1917,17,Jits_Phase_5,0,1,48,114,1667220840
1917,17,Jits_Phase_5,1,5,56,103,1667373368
1917,17,Jits_Phase_5,2,5,80,127,1667414584
1917,17,Jits_Phase_5,3,5,63,98,1667423640
1917,17,Jits_Phase_5,0,1,48,93,1667705216
1917,17,Jits_Phase_5,1,5,80,127,1667863940
1917,17,Jits_Phase_5,2,5,63,98,1667893788
1917,17,Jits_Phase_5,3,5,56,103,1667933512
1917,17,Jits_Phase_5,0,1,48,97,1668180916
1917,17,Jits_Phase_5,1,5,56,103,1668384104
1917,17,Jits_Phase_5,2,5,63,98,1668413880
1917,17,Jits_Phase_5,3,5,80,127,1668463920
1917,17,Jits_Phase_5,4,1,48,121,1668652452
1917,17,Jits_Phase_5,0,5,80,127,1668883776
1917,17,Jits_Phase_5,1,5,56,103,1668923720
1917,17,Jits_Phase_5,2,5,63,98,1668933972
1917,17,Jits_Phase_5,3,1,48,90,1669127808
1917,17,Jits_Phase_5,0,5,80,127,1669364016
1917,17,Jits_Phase_5,1,5,63,98,1669403964
1917,17,Jits_Phase_5,2,5,56,103,1669464400
1917,17,Jits_Phase_5,3,1,48,81,1669612924
1917,17,Jits_Phase_5,0,5,56,103,1669863784
1917,17,Jits_Phase_5,1,5,80,127,1669873960
1917,17,Jits_Phase_5,2,5,63,98,1669954068
1917,17,Jits_Phase_5,3,1,48,122,1670094140
1917,17,Jits_Phase_5,0,5,80,127,1670363708
1917,17,Jits_Phase_5,1,5,63,98,1670423920
1917,17,Jits_Phase_5,2,5,56,103,1670453696
1917,17,Jits_Phase_5,3,1,48,104,1670571188
1917,17,Jits_Phase_5,0,5,56,103,1670864288
1917,17,Jits_Phase_5,1,5,80,127,1670923904
1917,17,Jits_Phase_5,2,5,63,98,1670963848
1917,17,Jits_Phase_5,3,1,48,116,1671052172
1917,17,Jits_Phase_5,0,5,56,103,1671414252
1917,17,Jits_Phase_5,1,5,63,98,1671424804
1917,17,Jits_Phase_5,2,5,80,127,1671428012
1917,17,Jits_Phase_5,3,1,48,104,1671554328
1917,17,Jits_Phase_5,0,5,80,127,1671863832
1917,17,Jits_Phase_5,1,5,63,98,1671953892
1917,17,Jits_Phase_5,2,5,56,103,1671964144
1917,17,Jits_Phase_5,3,1,48,100,1672057924
1917,17,Jits_Phase_5,0,5,56,103,1672364644
1917,17,Jits_Phase_5,1,5,63,98,1672367740
1917,17,Jits_Phase_5,2,5,80,127,1672371000
1917,17,Jits_Phase_5,3,1,48,96,1672568512
1917,17,Jits_Phase_5,0,5,80,127,1672893720
1917,17,Jits_Phase_5,1,5,63,98,1672943840
1917,17,Jits_Phase_5,2,5,56,103,1672973612
1917,17,Jits_Phase_5,3,1,48,108,1673056596
1917,17,Jits_Phase_5,0,5,56,103,1673374052
1917,17,Jits_Phase_5,1,5,80,127,1673384452
1917,17,Jits_Phase_5,2,5,63,98,1673453864
1917,17,Jits_Phase_5,3,1,48,106,1673564372
1917,17,Jits_Phase_5,0,5,56,103,1673883996
1917,17,Jits_Phase_5,1,5,63,98,1673903600
1917,17,Jits_Phase_5,2,5,80,127,1673963812
1917,17,Jits_Phase_5,3,1,48,99,1674052036
1917,17,Jits_Phase_5,0,5,80,127,1674364392
1917,17,Jits_Phase_5,1,5,63,98,1674434032
1917,17,Jits_Phase_5,2,5,56,103,1674454528
1917,17,Jits_Phase_5,3,1,48,104,1674533848
1917,17,Jits_Phase_5,0,5,80,127,1674883392
1917,17,Jits_Phase_5,1,5,56,103,1674893644
1917,17,Jits_Phase_5,2,5,63,98,1674903972
1917,17,Jits_Phase_5,3,1,48,105,1675017244
1917,17,Jits_Phase_5,0,5,80,127,1675374012
1917,17,Jits_Phase_5,1,5,56,103,1675394388
1917,17,Jits_Phase_5,2,5,63,98,1675464096
1917,17,Jits_Phase_5,3,1,48,98,1675516344
1917,17,Jits_Phase_5,0,5,56,103,1675883952
1917,17,Jits_Phase_5,1,5,80,127,1675913604
1917,17,Jits_Phase_5,2,5,63,98,1675933952
1917,17,Jits_Phase_5,3,1,48,118,1676011092
1917,17,Jits_Phase_5,0,5,63,98,1676374376
1917,17,Jits_Phase_5,1,5,56,103,1676433796
1917,17,Jits_Phase_5,2,5,80,127,1676463492
1917,17,Jits_Phase_5,3,1,48,92,1676502140
1917,17,Jits_Phase_5,4,1,38,20,1676512212
1917,17,Jits_Phase_5,0,5,63,98,1676863820
1917,17,Jits_Phase_5,1,5,80,127,1676867104
1917,17,Jits_Phase_5,2,5,56,103,1676953972
1917,17,Jits_Phase_5,3,1,48,110,1676984832
1917,17,Jits_Phase_5,0,5,56,103,1677383916
1917,17,Jits_Phase_5,1,5,63,98,1677413692
1917,17,Jits_Phase_5,2,5,80,127,1677453584
1917,17,Jits_Phase_5,3,1,48,101,1677471052
1917,17,Jits_Phase_5,4,1,38,21,1677480532
1917,17,Jits_Phase_5,0,5,63,98,1677883708
1917,17,Jits_Phase_5,1,5,56,103,1677923652
1917,17,Jits_Phase_5,2,5,80,127,1677944252
1917,17,Jits_Phase_5,3,1,48,102,1677956040
1917,17,Jits_Phase_5,0,5,63,98,1678393640
1917,17,Jits_Phase_5,1,5,56,103,1678433584
1917,17,Jits_Phase_5,2,5,80,127,1678443764
1917,17,Jits_Phase_5,3,1,48,92,1678451504
1917,17,Jits_Phase_5,4,1,38,19,1678462308
1917,17,Jits_Phase_5,0,5,80,127,1678873816
1917,17,Jits_Phase_5,1,1,48,108,1678928456
1917,17,Jits_Phase_5,2,5,63,98,1678943744
1917,17,Jits_Phase_5,3,5,56,103,1678964240
1917,17,Jits_Phase_5,0,5,56,103,1679363392
1917,17,Jits_Phase_5,1,5,80,127,1679383820
1917,17,Jits_Phase_5,2,1,48,104,1679416844
1917,17,Jits_Phase_5,3,5,63,98,1679423828
1917,17,Jits_Phase_5,0,5,63,98,1679874380
1917,17,Jits_Phase_5,1,5,80,127,1679893832
1917,17,Jits_Phase_5,2,1,48,111,1679904428
1917,17,Jits_Phase_5,3,5,56,103,1679933772
1917,17,Jits_Phase_5,0,5,63,98,1680374208
1917,17,Jits_Phase_5,1,1,48,113,1680387868
1917,17,Jits_Phase_5,2,5,56,103,1680393512
1917,17,Jits_Phase_5,3,5,80,127,1680403764
1917,17,Jits_Phase_5,0,1,48,95,1680874040
1917,17,Jits_Phase_5,1,5,80,127,1680875532
1917,17,Jits_Phase_5,2,1,38,20,1680884184
1917,17,Jits_Phase_5,3,5,56,103,1680894304
1917,17,Jits_Phase_5,4,5,63,98,1680924004
1917,17,Jits_Phase_5,0,1,48,92,1681360756
1917,17,Jits_Phase_5,1,5,56,103,1681444332
1917,17,Jits_Phase_5,2,5,80,127,1681447248
1917,17,Jits_Phase_5,3,5,63,98,1681463624
1917,17,Jits_Phase_5,0,1,48,109,1681840976
1917,17,Jits_Phase_5,1,5,63,98,1681864128
1917,17,Jits_Phase_5,2,5,56,103,1681893752
1917,17,Jits_Phase_5,3,5,80,127,1681954024
1917,17,Jits_Phase_5,0,1,48,97,1682340672
1917,17,Jits_Phase_5,1,5,63,98,1682443612
1917,17,Jits_Phase_5,2,5,56,103,1682454164
1917,17,Jits_Phase_5,3,5,80,127,1682464268
1917,17,Jits_Phase_5,0,1,48,108,1682845376
1917,17,Jits_Phase_5,1,5,56,103,1682904412
1917,17,Jits_Phase_5,2,5,80,127,1682934112
1917,17,Jits_Phase_5,3,5,63,98,1682944352
1917,17,Jits_Phase_5,0,1,48,106,1683356144
1917,17,Jits_Phase_5,1,5,63,98,1683444056
1917,17,Jits_Phase_5,2,5,56,103,1683454444
1917,17,Jits_Phase_5,3,5,80,127,1683473676
1917,17,Jits_Phase_5,0,1,48,84,1683865272
1917,17,Jits_Phase_5,1,5,56,103,1683874200
1917,17,Jits_Phase_5,2,1,38,19,1683875608
1917,17,Jits_Phase_5,3,5,63,98,1683933512
1917,17,Jits_Phase_5,4,5,80,127,1683937020
1917,17,Jits_Phase_5,0,1,48,84,1684350224
1917,17,Jits_Phase_5,1,5,80,127,1684394308
1917,17,Jits_Phase_5,2,5,56,103,1684403444
1917,17,Jits_Phase_5,3,5,63,98,1684474184
1917,17,Jits_Phase_5,0,5,80,127,1684884116
1917,17,Jits_Phase_5,1,1,48,77,1684892252
1917,17,Jits_Phase_5,2,5,56,103,1684953376
1917,17,Jits_Phase_5,3,5,63,98,1684963780
1917,17,Jits_Phase_5,0,5,63,98,1685423376
1917,17,Jits_Phase_5,1,1,48,94,1685431192
1917,17,Jits_Phase_5,2,5,56,103,1685433844
1917,17,Jits_Phase_5,3,5,80,127,1685454120
1917,17,Jits_Phase_5,0,5,80,127,1685874108
1917,17,Jits_Phase_5,1,5,63,98,1685933452
1917,17,Jits_Phase_5,2,1,48,106,1685946212
1917,17,Jits_Phase_5,3,5,56,103,1685974288
1917,17,Jits_Phase_5,0,5,56,103,1686413628
1917,17,Jits_Phase_5,1,5,63,98,1686423880
1917,17,Jits_Phase_5,2,1,48,123,1686460044
1917,17,Jits_Phase_5,3,5,80,127,1686464116
1917,17,Jits_Phase_5,0,5,56,103,1686873360
1917,17,Jits_Phase_5,1,5,80,127,1686904132
1917,17,Jits_Phase_5,2,5,63,98,1686954468
1917,17,Jits_Phase_5,3,1,48,87,1686982416
1917,17,Jits_Phase_5,4,1,38,19,1686992420
1917,17,Jits_Phase_5,0,5,56,103,1687414144
1917,17,Jits_Phase_5,1,5,63,98,1687454012
1917,17,Jits_Phase_5,2,5,80,127,1687457296
1917,17,Jits_Phase_5,3,1,48,93,1687469316
1917,17,Jits_Phase_5,4,1,38,20,1687479320
1917,17,Jits_Phase_5,0,5,56,103,1687913812
1917,17,Jits_Phase_5,1,5,63,98,1687924068
1917,17,Jits_Phase_5,2,5,80,127,1687943472
1917,17,Jits_Phase_5,3,1,48,99,1687957728
1917,17,Jits_Phase_5,0,5,56,103,1688373852
1917,17,Jits_Phase_5,1,5,80,127,1688376912
1917,17,Jits_Phase_5,2,5,63,98,1688413572
1917,17,Jits_Phase_5,3,1,48,90,1688444456
1917,17,Jits_Phase_5,4,1,38,20,1688454608
1917,17,Jits_Phase_5,0,5,63,98,1688914224
1917,17,Jits_Phase_5,1,1,48,98,1688942796
1917,17,Jits_Phase_5,2,5,56,103,1688944664
1917,17,Jits_Phase_5,3,5,80,127,1688963544
1917,17,Jits_Phase_5,0,5,80,127,1689384280
1917,17,Jits_Phase_5,1,5,56,103,1689393488
1917,17,Jits_Phase_5,2,5,63,98,1689403964
1917,17,Jits_Phase_5,3,1,48,106,1689429288
1917,17,Jits_Phase_5,0,5,56,103,1689883900
1917,17,Jits_Phase_5,1,1,48,89,1689907132
1917,17,Jits_Phase_5,2,5,80,127,1689923840
1917,17,Jits_Phase_5,3,5,63,98,1689953908
1917,17,Jits_Phase_5,0,1,48,101,1690381844
1917,17,Jits_Phase_5,1,5,63,98,1690393904
1917,17,Jits_Phase_5,2,5,80,127,1690404156
1917,17,Jits_Phase_5,3,5,56,103,1690413588
1917,17,Jits_Phase_5,0,1,48,118,1690877936
1917,17,Jits_Phase_5,1,5,56,103,1690883724
1917,17,Jits_Phase_5,2,5,63,98,1690954040
1917,17,Jits_Phase_5,3,5,80,127,1690964292
1917,17,Jits_Phase_5,0,1,48,104,1691364408
1917,17,Jits_Phase_5,1,5,80,127,1691394424
1917,17,Jits_Phase_5,2,5,56,103,1691403632
1917,17,Jits_Phase_5,3,5,63,98,1691453748
1917,17,Jits_Phase_5,0,1,48,122,1691872928
1917,17,Jits_Phase_5,1,5,80,127,1691904216
1917,17,Jits_Phase_5,2,5,56,103,1691963756
1917,17,Jits_Phase_5,3,5,63,98,1691993588
1917,17,Jits_Phase_5,0,1,48,99,1692387584
1917,17,Jits_Phase_5,1,5,56,103,1692404060
1917,17,Jits_Phase_5,2,5,80,127,1692407124
1917,17,Jits_Phase_5,3,5,63,98,1692444156
1917,17,Jits_Phase_5,0,1,48,103,1692879680
1917,17,Jits_Phase_5,1,1,38,22,1692889464
1917,17,Jits_Phase_5,2,5,56,103,1692933476
1917,17,Jits_Phase_5,3,5,63,98,1692964220
1917,17,Jits_Phase_5,4,5,80,127,1692973500
1917,17,Jits_Phase_5,0,1,48,112,1693371644
1917,17,Jits_Phase_5,1,5,63,98,1693443612
1917,17,Jits_Phase_5,2,5,80,127,1693453864
1917,17,Jits_Phase_5,3,5,56,103,1693463896
1917,17,Jits_Phase_5,0,1,48,107,1693872612
1917,17,Jits_Phase_5,1,1,38,22,1693882544
1917,17,Jits_Phase_5,2,5,80,127,1693893932
1917,17,Jits_Phase_5,3,5,56,103,1693944040
1917,17,Jits_Phase_5,4,5,63,98,1693947180
1917,17,Jits_Phase_5,0,1,48,112,1694371620
1917,17,Jits_Phase_5,1,5,56,103,1694424536
1917,17,Jits_Phase_5,2,5,80,127,1694443916
1917,17,Jits_Phase_5,3,5,63,98,1694454244
1917,17,Jits_Phase_5,0,1,48,99,1694878656
1917,17,Jits_Phase_5,1,5,63,98,1694903744
1917,17,Jits_Phase_5,2,5,56,103,1694934492
1917,17,Jits_Phase_5,3,5,80,127,1694953944
1917,17,Jits_Phase_5,0,1,48,108,1695378184
1917,17,Jits_Phase_5,1,5,56,103,1695413592
1917,17,Jits_Phase_5,2,5,80,127,1695423920
1917,17,Jits_Phase_5,3,5,63,98,1695493540
1917,17,Jits_Phase_5,0,1,48,102,1695879380
1917,17,Jits_Phase_5,1,5,63,98,1695904092
1917,17,Jits_Phase_5,2,5,80,127,1695944040
1917,17,Jits_Phase_5,3,5,56,103,1695983972
1917,17,Jits_Phase_5,0,1,48,91,1696365000
1917,17,Jits_Phase_5,1,1,38,20,1696375412
1917,17,Jits_Phase_5,2,5,56,103,1696414036
1917,17,Jits_Phase_5,3,5,63,98,1696424660
1917,17,Jits_Phase_5,4,5,80,127,1696443744
1917,17,Jits_Phase_5,0,1,48,73,1696872180
1917,17,Jits_Phase_5,1,5,63,98,1696953604
1917,17,Jits_Phase_5,2,5,80,127,1696974312
1917,17,Jits_Phase_5,3,5,56,103,1696993616
1917,17,Jits_Phase_5,0,1,48,91,1697387784
1917,17,Jits_Phase_5,1,5,56,103,1697394168
1917,17,Jits_Phase_5,2,1,38,20,1697398276
1917,17,Jits_Phase_5,3,5,80,127,1697473996
1917,17,Jits_Phase_5,4,5,63,98,1697484980
1917,17,Jits_Phase_5,0,1,48,91,1697902236
1917,17,Jits_Phase_5,1,1,38,20,1697912572
1917,17,Jits_Phase_5,2,5,80,127,1697933688
1917,17,Jits_Phase_5,3,5,63,98,1697944016
1917,17,Jits_Phase_5,4,5,56,103,1697973640
1917,17,Jits_Phase_5,0,5,63,98,1698393436
1917,17,Jits_Phase_5,1,1,48,119,1698396328
1917,17,Jits_Phase_5,2,5,80,127,1698434372
1917,17,Jits_Phase_5,3,5,56,103,1698493748
1917,17,Jits_Phase_5,0,1,48,95,1698893764
1917,17,Jits_Phase_5,1,1,38,21,1698904248
1917,17,Jits_Phase_5,2,5,63,98,1698906628
1917,17,Jits_Phase_5,3,5,56,103,1698953560
1917,17,Jits_Phase_5,4,5,80,127,1698984528
1917,17,Jits_Phase_5,0,1,48,95,1699393524
1917,17,Jits_Phase_5,1,1,38,21,1699403404
1917,17,Jits_Phase_5,2,5,80,127,1699405948
1917,17,Jits_Phase_5,3,5,63,98,1699414484
1917,17,Jits_Phase_5,4,5,56,103,1699484144
1917,17,Jits_Phase_5,0,1,48,105,1699891804
1917,17,Jits_Phase_5,1,5,80,127,1699964320
1917,17,Jits_Phase_5,2,5,56,103,1699973528
1917,17,Jits_Phase_5,3,5,63,98,1699976516
1917,17,Jits_Phase_5,0,1,48,96,1700373620
1917,17,Jits_Phase_5,1,5,56,103,1700403484
1917,17,Jits_Phase_5,2,5,80,127,1700423984
1917,17,Jits_Phase_5,3,5,63,98,1700434388
1917,17,Jits_Phase_5,0,1,48,114,1700849348
1917,17,Jits_Phase_5,1,5,63,98,1700913408
1917,17,Jits_Phase_5,2,5,56,103,1700953412
1917,17,Jits_Phase_5,3,5,80,127,1700974060
1917,17,Jits_Phase_5,0,1,48,119,1701327288
1917,17,Jits_Phase_5,1,5,63,98,1701414452
1917,17,Jits_Phase_5,2,5,56,103,1701473752
1917,17,Jits_Phase_5,3,5,80,127,1701476668
1917,17,Jits_Phase_5,0,1,48,105,1701808880
1917,17,Jits_Phase_5,1,5,56,103,1701874132
1917,17,Jits_Phase_5,2,5,80,127,1701893512
1917,17,Jits_Phase_5,3,5,63,98,1701933368
1917,17,Jits_Phase_5,0,1,48,74,1702330340
1917,17,Jits_Phase_5,1,5,56,103,1702403376
1917,17,Jits_Phase_5,2,5,63,98,1702423876
1917,17,Jits_Phase_5,3,5,80,127,1702434260
1917,17,Jits_Phase_5,0,1,48,106,1702827480
1917,17,Jits_Phase_5,1,5,80,127,1702873356
1917,17,Jits_Phase_5,2,5,56,103,1702904248
1917,17,Jits_Phase_5,3,5,63,98,1702944252
1917,17,Jits_Phase_5,0,1,48,83,1703341084
1917,17,Jits_Phase_5,1,1,38,19,1703350784
1917,17,Jits_Phase_5,2,5,80,127,1703384476
1917,17,Jits_Phase_5,3,5,56,103,1703404004
1917,17,Jits_Phase_5,4,5,63,98,1703464248
1917,17,Jits_Phase_5,0,1,48,116,1703839948
1917,17,Jits_Phase_5,1,5,56,103,1703894352
1917,17,Jits_Phase_5,2,5,80,127,1703914104
1917,17,Jits_Phase_5,3,5,63,98,1703974376
1917,17,Jits_Phase_5,0,1,48,104,1704329776
1917,17,Jits_Phase_5,1,5,80,127,1704373564
1917,17,Jits_Phase_5,2,5,56,103,1704384040
1917,17,Jits_Phase_5,3,5,63,98,1704423984
1917,17,Jits_Phase_5,0,1,48,92,1704813228
1917,17,Jits_Phase_5,1,1,38,21,1704823564
1917,17,Jits_Phase_5,2,5,63,98,1704874300
1917,17,Jits_Phase_5,3,5,56,103,1704914228
1917,17,Jits_Phase_5,4,5,80,127,1704917216
1917,17,Jits_Phase_5,0,1,48,88,1705320240
1917,17,Jits_Phase_5,1,1,38,19,1705330020
1917,17,Jits_Phase_5,2,5,63,98,1705393504
1917,17,Jits_Phase_5,3,5,80,127,1705433408
1917,17,Jits_Phase_5,4,5,56,103,1705464152
1917,17,Jits_Phase_5,0,1,48,81,1705790452
1917,17,Jits_Phase_5,1,5,56,103,1705884216
1917,17,Jits_Phase_5,2,5,63,98,1705894244
1917,17,Jits_Phase_5,3,5,80,127,1705923944
1917,17,Jits_Phase_5,0,1,48,87,1706263360
1917,17,Jits_Phase_5,1,1,38,20,1706273212
1917,17,Jits_Phase_5,2,5,80,127,1706374340
1917,17,Jits_Phase_5,3,5,63,98,1706444128
1917,17,Jits_Phase_5,4,5,56,103,1706454308
1917,17,Jits_Phase_5,0,1,48,94,1706803956
1917,17,Jits_Phase_5,1,5,63,98,1706874308
1917,17,Jits_Phase_5,2,5,56,103,1706943860
1917,17,Jits_Phase_5,3,5,80,127,1706954112
1917,17,Jits_Phase_5,0,5,63,98,1707353400
1917,17,Jits_Phase_5,1,5,56,103,1707374048
1917,17,Jits_Phase_5,2,1,48,127,1707414388
1917,17,Jits_Phase_5,3,5,80,127,1707415952
1917,17,Jits_Phase_5,0,5,56,103,1707833640
1917,17,Jits_Phase_5,1,5,63,98,1707843892
1917,17,Jits_Phase_5,2,1,48,113,1707907684
1917,17,Jits_Phase_5,3,5,80,127,1707923868
1917,17,Jits_Phase_5,0,5,63,98,1708324140
1917,17,Jits_Phase_5,1,5,56,103,1708354060
1917,17,Jits_Phase_5,2,5,80,127,1708394004
1917,17,Jits_Phase_5,3,1,48,95,1708401752
1917,17,Jits_Phase_5,0,5,56,103,1708823812
1917,17,Jits_Phase_5,1,5,63,98,1708863832
1917,17,Jits_Phase_5,2,1,48,88,1708894396
1917,17,Jits_Phase_5,3,5,80,127,1708903768
1917,17,Jits_Phase_5,4,1,38,19,1708904808
1917,17,Jits_Phase_5,0,5,80,127,1709323896
1917,17,Jits_Phase_5,1,1,48,114,1709361104
1917,17,Jits_Phase_5,2,5,56,103,1709403476
1917,17,Jits_Phase_5,3,5,63,98,1709413952
1917,17,Jits_Phase_5,0,1,48,107,1709858868
1917,17,Jits_Phase_5,1,5,56,103,1709864352
1917,17,Jits_Phase_5,2,5,63,98,1709867344
1917,17,Jits_Phase_5,3,5,80,127,1709873412
1917,17,Jits_Phase_5,0,1,48,106,1710355944
1917,17,Jits_Phase_5,1,5,56,103,1710383420
1917,17,Jits_Phase_5,2,5,63,98,1710403920
1917,17,Jits_Phase_5,3,5,80,127,1710414172
1917,17,Jits_Phase_5,0,5,63,98,1710844308
1917,17,Jits_Phase_5,1,5,80,127,1710853368
1917,17,Jits_Phase_5,2,5,56,103,1710874088
1917,17,Jits_Phase_5,3,1,48,91,1710889688
1917,17,Jits_Phase_5,0,5,63,98,1711343908
1917,17,Jits_Phase_5,1,1,48,115,1711367368
1917,17,Jits_Phase_5,2,5,56,103,1711423784
1917,17,Jits_Phase_5,3,5,80,127,1711426848
1917,17,Jits_Phase_5,0,5,63,98,1711843960
1917,17,Jits_Phase_5,1,1,48,102,1711856652
1917,17,Jits_Phase_5,2,5,56,103,1711864156
1917,17,Jits_Phase_5,3,5,80,127,1711893856
1917,17,Jits_Phase_5,0,1,48,99,1712330816
1917,17,Jits_Phase_5,1,5,56,103,1712344684
1917,17,Jits_Phase_5,2,5,63,98,1712363768
1917,17,Jits_Phase_5,3,5,80,127,1712374096
1917,17,Jits_Phase_5,0,1,48,65,1712800124
1917,17,Jits_Phase_5,1,5,56,103,1712873828
1917,17,Jits_Phase_5,2,5,63,98,1712903660
1917,17,Jits_Phase_5,3,5,80,127,1712907020
1917,17,Jits_Phase_5,0,1,48,121,1713288648
1917,17,Jits_Phase_5,1,5,56,103,1713324504
1917,17,Jits_Phase_5,2,5,63,98,1713364300
1917,17,Jits_Phase_5,3,5,80,127,1713423824
1917,17,Jits_Phase_5,0,1,48,110,1713756168
1917,17,Jits_Phase_5,1,5,56,103,1713853660
1917,17,Jits_Phase_5,2,5,63,98,1713864060
1917,17,Jits_Phase_5,3,5,80,127,1713923376
1917,17,Jits_Phase_5,0,1,48,115,1714263572
1917,17,Jits_Phase_5,1,5,56,103,1714353744
1917,17,Jits_Phase_5,2,5,80,127,1714373860
1917,17,Jits_Phase_5,3,5,63,98,1714403780
1917,17,Jits_Phase_5,0,1,48,99,1714783912
1917,17,Jits_Phase_5,1,5,80,127,1714854344
1917,17,Jits_Phase_5,2,5,56,103,1714863404
1917,17,Jits_Phase_5,3,5,63,98,1714884036
1917,17,Jits_Phase_5,0,1,48,111,1715300708
1917,17,Jits_Phase_5,1,5,63,98,1715343700
1917,17,Jits_Phase_5,2,5,80,127,1715423496
1917,17,Jits_Phase_5,3,5,56,103,1715433820
1917,17,Jits_Phase_5,0,1,48,108,1715811408
1917,17,Jits_Phase_5,1,5,80,127,1715933664
1917,17,Jits_Phase_5,2,5,56,103,1715954160
1917,17,Jits_Phase_5,3,5,63,98,1715957224
1917,17,Jits_Phase_5,0,1,48,120,1716325092
1917,17,Jits_Phase_5,1,5,63,98,1716434252
1917,17,Jits_Phase_5,2,5,80,127,1716437908
1917,17,Jits_Phase_5,3,5,56,103,1716493792
1917,17,Jits_Phase_5,0,1,48,126,1716835256
1917,17,Jits_Phase_5,1,5,56,103,1716913616
1917,17,Jits_Phase_5,2,5,80,127,1716923724
1917,17,Jits_Phase_5,3,5,63,98,1716963652
1917,17,Jits_Phase_5,0,1,48,108,1717349760
1917,17,Jits_Phase_5,1,5,56,103,1717393720
1917,17,Jits_Phase_5,2,5,63,98,1717454068
1917,17,Jits_Phase_5,3,5,80,127,1717464544
1917,17,Jits_Phase_5,0,1,48,94,1717860752
1917,17,Jits_Phase_5,1,5,63,98,1717903816
1917,17,Jits_Phase_5,2,5,80,127,1717943688
1917,17,Jits_Phase_5,3,5,56,103,1717983616
1917,17,Jits_Phase_5,0,1,48,92,1718391864
1917,17,Jits_Phase_5,1,5,56,103,1718403640
1917,17,Jits_Phase_5,2,5,63,98,1718484344
1917,17,Jits_Phase_5,3,5,80,127,1718487556
1917,17,Jits_Phase_5,0,1,48,127,1718915996
1917,17,Jits_Phase_5,1,5,80,127,1718963520
1917,17,Jits_Phase_5,2,5,56,103,1718994412
1917,17,Jits_Phase_5,3,5,63,98,1718997476
1917,17,Jits_Phase_5,0,1,48,111,1719420476
1917,17,Jits_Phase_5,1,5,56,103,1719424400
1917,17,Jits_Phase_5,2,5,80,127,1719443704
1917,17,Jits_Phase_5,3,5,63,98,1719483724
1917,17,Jits_Phase_5,0,5,80,127,1719903592
1917,17,Jits_Phase_5,1,1,48,98,1719917852
1917,17,Jits_Phase_5,2,5,63,98,1719924108
1917,17,Jits_Phase_5,3,5,56,103,1719983424
1917,17,Jits_Phase_5,0,1,48,118,1720416340
1917,17,Jits_Phase_5,1,5,63,98,1720423844
1917,17,Jits_Phase_5,2,5,56,103,1720434320
1917,17,Jits_Phase_5,3,5,80,127,1720484508
1917,17,Jits_Phase_5,0,1,48,115,1720907932
1917,17,Jits_Phase_5,1,5,56,103,1720914240
1917,17,Jits_Phase_5,2,5,63,98,1720933696
1917,17,Jits_Phase_5,3,5,80,127,1720944096
1917,17,Jits_Phase_5,0,5,56,103,1721403616
1917,17,Jits_Phase_5,1,5,63,98,1721406908
1917,17,Jits_Phase_5,2,1,48,106,1721418924
1917,17,Jits_Phase_5,3,5,80,127,1721424484
1917,17,Jits_Phase_5,0,1,48,86,1721930712
1917,17,Jits_Phase_5,1,5,63,98,1721944360
1917,17,Jits_Phase_5,2,5,56,103,1721974236
1917,17,Jits_Phase_5,3,5,80,127,1722003932
1917,17,Jits_Phase_5,0,5,80,127,1722404404
1917,17,Jits_Phase_5,1,1,48,97,1722444468
1917,17,Jits_Phase_5,2,5,56,103,1722494328
1917,17,Jits_Phase_5,3,5,63,98,1722497244
1917,17,Jits_Phase_5,0,5,56,103,1722904080
1917,17,Jits_Phase_5,1,5,80,127,1722906992
1917,17,Jits_Phase_5,2,1,48,89,1722971208
1917,17,Jits_Phase_5,3,5,63,98,1722983880
1917,17,Jits_Phase_5,0,5,80,127,1723403684
1917,17,Jits_Phase_5,1,1,48,110,1723457352
1917,17,Jits_Phase_5,2,5,63,98,1723464040
1917,17,Jits_Phase_5,3,5,56,103,1723493668
1917,17,Jits_Phase_5,0,5,63,98,1723904356
1917,17,Jits_Phase_5,1,5,80,127,1723913568
1917,17,Jits_Phase_5,2,1,48,73,1723977032
1917,17,Jits_Phase_5,3,5,56,103,1723984388
1917,17,Jits_Phase_5,0,5,56,103,1724463568
1917,17,Jits_Phase_5,1,1,48,107,1724465932
1917,17,Jits_Phase_5,2,5,80,127,1724494156
1917,17,Jits_Phase_5,3,5,63,98,1724544444
1917,17,Jits_Phase_5,0,1,48,96,1724980796
1917,17,Jits_Phase_5,1,5,63,98,1725054300
1917,17,Jits_Phase_5,2,5,56,103,1725084208
1917,17,Jits_Phase_5,3,5,80,127,1725087196
1917,17,Jits_Phase_5,0,1,48,106,1725478596
1917,17,Jits_Phase_5,1,5,63,98,1725554492
1917,17,Jits_Phase_5,2,5,80,127,1725573352
1917,17,Jits_Phase_5,3,5,56,103,1725583588
1917,17,Jits_Phase_5,0,1,48,105,1726003432
1917,17,Jits_Phase_5,1,5,56,103,1726064108
1917,17,Jits_Phase_5,2,5,63,98,1726067172
1917,17,Jits_Phase_5,3,5,80,127,1726083416
1917,17,Jits_Phase_5,0,5,56,103,1726513452
1917,17,Jits_Phase_5,1,1,48,127,1726517612
1917,17,Jits_Phase_5,2,5,63,98,1726523848
1917,17,Jits_Phase_5,3,5,80,127,1726553396
1917,17,Jits_Phase_5,0,5,63,98,1727034012
1917,17,Jits_Phase_5,1,1,48,120,1727035876
1917,17,Jits_Phase_5,2,5,80,127,1727054208
1917,17,Jits_Phase_5,3,5,56,103,1727094180
1917,17,Jits_Phase_5,0,1,48,70,1727548624
1917,17,Jits_Phase_5,1,5,56,103,1727564136
1917,17,Jits_Phase_5,2,5,63,98,1727604180
1917,17,Jits_Phase_5,3,5,80,127,1727607392
1917,17,Jits_Phase_5,0,5,80,127,1728003384
1917,17,Jits_Phase_5,1,5,56,103,1728044820
1917,17,Jits_Phase_5,2,1,48,88,1728069620
1917,17,Jits_Phase_5,3,1,38,20,1728079476
1917,17,Jits_Phase_5,4,5,63,98,1728093496
1917,17,Jits_Phase_5,0,5,56,103,1728563512
1917,17,Jits_Phase_5,1,1,48,84,1728564924
1917,17,Jits_Phase_5,2,5,80,127,1728574060
1917,17,Jits_Phase_5,3,5,63,98,1728603388
1917,17,Jits_Phase_5,0,5,56,103,1729014140
1917,17,Jits_Phase_5,1,5,80,127,1729054012
1917,17,Jits_Phase_5,2,1,48,117,1729077692
1917,17,Jits_Phase_5,3,5,63,98,1729104268
1917,17,Jits_Phase_5,0,5,56,103,1729513916
1917,17,Jits_Phase_5,1,5,80,127,1729554008
1917,17,Jits_Phase_5,2,1,48,72,1729567368
1917,17,Jits_Phase_5,3,5,63,98,1729604268
1917,17,Jits_Phase_5,0,5,80,127,1730004332
1917,17,Jits_Phase_5,1,1,48,114,1730072824
1917,17,Jits_Phase_5,2,5,63,98,1730084284
1917,17,Jits_Phase_5,3,5,56,103,1730093492
1917,17,Jits_Phase_5,0,5,80,127,1730554148
1917,17,Jits_Phase_5,1,1,48,87,1730561388
1917,17,Jits_Phase_5,2,5,56,103,1730563348
1917,17,Jits_Phase_5,3,5,63,98,1730584072
1917,17,Jits_Phase_5,0,5,63,98,1731024296
1917,17,Jits_Phase_5,1,1,48,109,1731060684
1917,17,Jits_Phase_5,2,5,56,103,1731093928
1917,17,Jits_Phase_5,3,5,80,127,1731096844
1917,17,Jits_Phase_5,0,5,80,127,1731513880
1917,17,Jits_Phase_5,1,1,48,105,1731536660
1917,17,Jits_Phase_5,2,5,63,98,1731563988
1917,17,Jits_Phase_5,3,5,56,103,1731603784
1917,17,Jits_Phase_5,0,1,48,100,1732028876
1917,17,Jits_Phase_5,1,5,63,98,1732054484
1917,17,Jits_Phase_5,2,5,56,103,1732094208
1917,17,Jits_Phase_5,3,5,80,127,1732103492
1917,17,Jits_Phase_5,0,1,48,74,1732536208
1917,17,Jits_Phase_5,1,5,63,98,1732543868
1917,17,Jits_Phase_5,2,5,56,103,1732564440
1917,17,Jits_Phase_5,3,5,80,127,1732583672
1917,17,Jits_Phase_5,0,5,80,127,1733003688
1917,17,Jits_Phase_5,1,5,56,103,1733014016
1917,17,Jits_Phase_5,2,1,48,127,1733031480
1917,17,Jits_Phase_5,3,5,63,98,1733034284
1917,17,Jits_Phase_5,0,1,48,100,1733502236
1917,17,Jits_Phase_5,1,5,63,98,1733533968
1917,17,Jits_Phase_5,2,5,56,103,1733573992
1917,17,Jits_Phase_5,3,5,80,127,1733603676
1917,17,Jits_Phase_5,0,5,56,103,1733993792
1917,17,Jits_Phase_5,1,1,48,95,1733997876
1917,17,Jits_Phase_5,2,5,63,98,1734023952
1917,17,Jits_Phase_5,3,5,80,127,1734054104
1917,17,Jits_Phase_5,0,5,80,127,1734413612
1917,17,Jits_Phase_5,1,5,56,103,1734484440
1917,17,Jits_Phase_5,2,5,63,98,1734487652
1917,17,Jits_Phase_5,3,1,48,116,1734500716
1917,17,Jits_Phase_5,0,5,56,103,1734923848
1917,17,Jits_Phase_5,1,5,63,98,1734973816
1917,17,Jits_Phase_5,2,1,48,88,1734992492
1917,17,Jits_Phase_5,3,5,80,127,1735003656
1917,17,Jits_Phase_5,0,5,63,98,1735403940
1917,17,Jits_Phase_5,1,5,80,127,1735407300
1917,17,Jits_Phase_5,2,1,48,98,1735447512
1917,17,Jits_Phase_5,3,5,56,103,1735464368
1917,17,Jits_Phase_5,0,1,48,117,1735927648
1917,17,Jits_Phase_5,1,5,56,103,1735934260
1917,17,Jits_Phase_5,2,5,80,127,1735943768
1917,17,Jits_Phase_5,3,5,63,98,1735993660
1917,17,Jits_Phase_5,0,5,63,98,1736404276
1917,17,Jits_Phase_5,1,5,56,103,1736413708
1917,17,Jits_Phase_5,2,1,48,99,1736428936
1917,17,Jits_Phase_5,3,5,80,127,1736444296
1917,17,Jits_Phase_5,0,1,48,91,1736913564
1917,17,Jits_Phase_5,1,5,63,98,1736933708
1917,17,Jits_Phase_5,2,5,80,127,1736937064
1917,17,Jits_Phase_5,3,5,56,103,1736963404
1917,17,Jits_Phase_5,0,1,48,117,1737415616
1917,17,Jits_Phase_5,1,5,63,98,1737453864
1917,17,Jits_Phase_5,2,5,56,103,1737474512
1917,17,Jits_Phase_5,3,5,80,127,1737477428
1917,17,Jits_Phase_5,0,5,63,98,1737913848
1917,17,Jits_Phase_5,1,1,48,100,1737914816
1917,17,Jits_Phase_5,2,5,56,103,1737984528
1917,17,Jits_Phase_5,3,5,80,127,1738003756
1917,17,Jits_Phase_5,0,5,56,103,1738404188
1917,17,Jits_Phase_5,1,5,63,98,1738413620
1917,17,Jits_Phase_5,2,1,48,95,1738421976
1917,17,Jits_Phase_5,3,5,80,127,1738503516
1917,17,Jits_Phase_5,0,1,48,94,1738917600
1917,17,Jits_Phase_5,1,5,56,103,1738924732
1917,17,Jits_Phase_5,2,5,80,127,1738964604
1917,17,Jits_Phase_5,3,5,63,98,1738973440
1917,17,Jits_Phase_5,0,1,48,117,1739413916
1917,17,Jits_Phase_5,1,5,56,103,1739443560
1917,17,Jits_Phase_5,2,5,63,98,1739474528
1917,17,Jits_Phase_5,3,5,80,127,1739504004
1917,17,Jits_Phase_5,0,1,48,114,1739896712
1917,17,Jits_Phase_5,1,5,80,127,1739904444
1917,17,Jits_Phase_5,2,5,63,98,1739944464
1917,17,Jits_Phase_5,3,5,56,103,1739963696
1917,17,Jits_Phase_5,0,1,48,96,1740398108
1917,17,Jits_Phase_5,1,5,56,103,1740444160
1917,17,Jits_Phase_5,2,5,80,127,1740463540
1917,17,Jits_Phase_5,3,5,63,98,1740483888
1917,17,Jits_Phase_5,0,5,63,98,1740914000
1917,17,Jits_Phase_5,1,1,48,105,1740918836
1917,17,Jits_Phase_5,2,5,56,103,1740924472
1917,17,Jits_Phase_5,3,5,80,127,1740983564
1917,17,Jits_Phase_5,0,5,56,103,1741413736
1917,17,Jits_Phase_5,1,1,48,92,1741434232
1917,17,Jits_Phase_5,2,1,38,21,1741444080
1917,17,Jits_Phase_5,3,5,63,98,1741484496
1917,17,Jits_Phase_5,4,5,80,127,1741503800
1917,17,Jits_Phase_5,0,5,56,103,1741913440
1917,17,Jits_Phase_5,1,1,48,82,1741935628
1917,17,Jits_Phase_5,2,5,63,98,1741944276
1917,17,Jits_Phase_5,3,1,38,19,1741945916
1917,17,Jits_Phase_5,4,5,80,127,1741984288
1917,17,Jits_Phase_5,0,5,63,98,1742403880
1917,17,Jits_Phase_5,1,1,48,96,1742424276
1917,17,Jits_Phase_5,2,5,56,103,1742454236
1917,17,Jits_Phase_5,3,5,80,127,1742464268
1917,17,Jits_Phase_5,0,1,48,105,1742940000
1917,17,Jits_Phase_5,1,5,56,103,1742943552
1917,17,Jits_Phase_5,2,5,63,98,1742993916
1917,17,Jits_Phase_5,3,5,80,127,1743004392
1917,17,Jits_Phase_5,0,5,56,103,1743413568
1917,17,Jits_Phase_5,1,5,63,98,1743423824
1917,17,Jits_Phase_5,2,1,48,116,1743458644
1917,17,Jits_Phase_5,3,5,80,127,1743503644
1917,17,Jits_Phase_5,0,9999,9999,9999,1659151440
1917,17,Jits_Phase_5,1,9999,9999,9999,1659651144
1917,17,Jits_Phase_5,2,9999,9999,9999,1660151920
1917,17,Jits_Phase_5,3,9999,9999,9999,1660651604
1917,17,Jits_Phase_5,4,9999,9999,9999,1661151340
1917,17,Jits_Phase_5,5,9999,9999,9999,1661652092
1917,17,Jits_Phase_5,6,9999,9999,9999,1662151764
1917,17,Jits_Phase_5,7,9999,9999,9999,1662651512
1917,17,Jits_Phase_5,8,9999,9999,9999,1663151216
1917,17,Jits_Phase_5,9,9999,9999,9999,1663651936
1917,17,Jits_Phase_5,10,9999,9999,9999,1664151612
1917,17,Jits_Phase_5,11,9999,9999,9999,1664651364
1917,17,Jits_Phase_5,12,9999,9999,9999,1665152104
1917,17,Jits_Phase_5,13,9999,9999,9999,1665662020
1917,17,Jits_Phase_5,14,9999,9999,9999,1666161756
1917,17,Jits_Phase_5,15,9999,9999,9999,1666661448
1917,17,Jits_Phase_5,16,9999,9999,9999,1667161148
1917,17,Jits_Phase_5,17,9999,9999,9999,1667661892
1917,17,Jits_Phase_5,18,9999,9999,9999,1668161592
1917,17,Jits_Phase_5,19,9999,9999,9999,1668661336
1917,17,Jits_Phase_5,20,9999,9999,9999,1669162048
1917,17,Jits_Phase_5,21,9999,9999,9999,1669661816
1917,17,Jits_Phase_5,22,9999,9999,9999,1670161504
1917,17,Jits_Phase_5,23,9999,9999,9999,1670661204
1917,17,Jits_Phase_5,24,9999,9999,9999,1671161920
1917,17,Jits_Phase_5,25,9999,9999,9999,1671661688
1917,17,Jits_Phase_5,26,9999,9999,9999,1672161396
1917,17,Jits_Phase_5,27,9999,9999,9999,1672662116
1917,17,Jits_Phase_5,28,9999,9999,9999,1673172056
1917,17,Jits_Phase_5,29,9999,9999,9999,1673671756
1917,17,Jits_Phase_5,30,9999,9999,9999,1674161212
1917,17,Jits_Phase_5,31,9999,9999,9999,1674661952
1917,17,Jits_Phase_5,32,9999,9999,9999,1675161724
1917,17,Jits_Phase_5,33,9999,9999,9999,1675661424
1917,17,Jits_Phase_5,34,9999,9999,9999,1676161116
1917,17,Jits_Phase_5,35,9999,9999,9999,1676661816
1917,17,Jits_Phase_5,36,9999,9999,9999,1677161592
1917,17,Jits_Phase_5,37,9999,9999,9999,1677661308
1917,17,Jits_Phase_5,38,9999,9999,9999,1678162040
1917,17,Jits_Phase_5,39,9999,9999,9999,1678661692
1917,17,Jits_Phase_5,40,9999,9999,9999,1679161400
1917,17,Jits_Phase_5,41,9999,9999,9999,1679661172
1917,17,Jits_Phase_5,42,9999,9999,9999,1680161912
1917,17,Jits_Phase_5,43,9999,9999,9999,1680661596
1917,17,Jits_Phase_5,44,9999,9999,9999,1681161316
1917,17,Jits_Phase_5,45,9999,9999,9999,1681662016
1917,17,Jits_Phase_5,46,9999,9999,9999,1682161764
1917,17,Jits_Phase_5,47,9999,9999,9999,1682661468
1917,17,Jits_Phase_5,48,9999,9999,9999,1683171388
1917,17,Jits_Phase_5,49,9999,9999,9999,1683671096
1917,17,Jits_Phase_5,50,9999,9999,9999,1684171872
1917,17,Jits_Phase_5,51,9999,9999,9999,1684671604
1917,17,Jits_Phase_5,52,9999,9999,9999,1685171284
1917,17,Jits_Phase_5,53,9999,9999,9999,1685672020
1917,17,Jits_Phase_5,54,9999,9999,9999,1686171768
1917,17,Jits_Phase_5,55,9999,9999,9999,1686671468
1917,17,Jits_Phase_5,56,9999,9999,9999,1687171192
1917,17,Jits_Phase_5,57,9999,9999,9999,1687671932
1917,17,Jits_Phase_5,58,9999,9999,9999,1688171580
1917,17,Jits_Phase_5,59,9999,9999,9999,1688671348
1917,17,Jits_Phase_5,60,9999,9999,9999,1689172068
1917,17,Jits_Phase_5,61,9999,9999,9999,1689671736
1917,17,Jits_Phase_5,62,9999,9999,9999,1690171512
1917,17,Jits_Phase_5,63,9999,9999,9999,1690671196
1917,17,Jits_Phase_5,64,9999,9999,9999,1691191392
1917,17,Jits_Phase_5,65,9999,9999,9999,1691691088
1917,17,Jits_Phase_5,66,9999,9999,9999,1692191832
1917,17,Jits_Phase_5,67,9999,9999,9999,1692691520
1917,17,Jits_Phase_5,68,9999,9999,9999,1693191236
1917,17,Jits_Phase_5,69,9999,9999,9999,1693691964
1917,17,Jits_Phase_5,70,9999,9999,9999,1694191676
1917,17,Jits_Phase_5,71,9999,9999,9999,1694691436
1917,17,Jits_Phase_5,72,9999,9999,9999,1695191140
1917,17,Jits_Phase_5,73,9999,9999,9999,1695691860
1917,17,Jits_Phase_5,74,9999,9999,9999,1696191564
1917,17,Jits_Phase_5,75,9999,9999,9999,1696691304
1917,17,Jits_Phase_5,76,9999,9999,9999,1697192008
1917,17,Jits_Phase_5,77,9999,9999,9999,1697691736
1917,17,Jits_Phase_5,78,9999,9999,9999,1698191436
1917,17,Jits_Phase_5,79,9999,9999,9999,1698691168
1917,17,Jits_Phase_5,80,9999,9999,9999,1699191928
1917,17,Jits_Phase_5,81,9999,9999,9999,1699671104
1917,17,Jits_Phase_5,82,9999,9999,9999,1700171880
1917,17,Jits_Phase_5,83,9999,9999,9999,1700671580
1917,17,Jits_Phase_5,84,9999,9999,9999,1701171256
1917,17,Jits_Phase_5,85,9999,9999,9999,1701671996
1917,17,Jits_Phase_5,86,9999,9999,9999,1702171768
1917,17,Jits_Phase_5,87,9999,9999,9999,1702671468
1917,17,Jits_Phase_5,88,9999,9999,9999,1703171144
1917,17,Jits_Phase_5,89,9999,9999,9999,1703671916
1917,17,Jits_Phase_5,90,9999,9999,9999,1704171576
1917,17,Jits_Phase_5,91,9999,9999,9999,1704671348
1917,17,Jits_Phase_5,92,9999,9999,9999,1705172060
1917,17,Jits_Phase_5,93,9999,9999,9999,1705671744
1917,17,Jits_Phase_5,94,9999,9999,9999,1706171472
1917,17,Jits_Phase_5,95,9999,9999,9999,1706671172
1917,17,Jits_Phase_5,96,9999,9999,9999,1707171948
1917,17,Jits_Phase_5,97,9999,9999,9999,1707621488
1917,17,Jits_Phase_5,98,9999,9999,9999,1708121176
1917,17,Jits_Phase_5,99,9999,9999,9999,1708621916
1917,17,Jits_Phase_5,100,9999,9999,9999,1709121632
1917,17,Jits_Phase_5,101,9999,9999,9999,1709621308
1917,17,Jits_Phase_5,102,9999,9999,9999,1710122044
1917,17,Jits_Phase_5,103,9999,9999,9999,1710621824
1917,17,Jits_Phase_5,104,9999,9999,9999,1711121520
1917,17,Jits_Phase_5,105,9999,9999,9999,1711621192
1917,17,Jits_Phase_5,106,9999,9999,9999,1712121924
1917,17,Jits_Phase_5,107,9999,9999,9999,1712621680
1917,17,Jits_Phase_5,108,9999,9999,9999,1713121352
1917,17,Jits_Phase_5,109,9999,9999,9999,1713622144
1917,17,Jits_Phase_5,110,9999,9999,9999,1714132088
1917,17,Jits_Phase_5,111,9999,9999,9999,1714631788
1917,17,Jits_Phase_5,112,9999,9999,9999,1715131488
1917,17,Jits_Phase_5,113,9999,9999,9999,1715631168
1917,17,Jits_Phase_5,114,9999,9999,9999,1716182096
1917,17,Jits_Phase_5,115,9999,9999,9999,1716692036
1917,17,Jits_Phase_5,116,9999,9999,9999,1717191808
1917,17,Jits_Phase_5,117,9999,9999,9999,1717691508
1917,17,Jits_Phase_5,118,9999,9999,9999,1718191208
1917,17,Jits_Phase_5,119,9999,9999,9999,1718691924
1917,17,Jits_Phase_5,120,9999,9999,9999,1719191672
1917,17,Jits_Phase_5,121,9999,9999,9999,1719691372
1917,17,Jits_Phase_5,122,9999,9999,9999,1720192120
1917,17,Jits_Phase_5,123,9999,9999,9999,1720702032
1917,17,Jits_Phase_5,124,9999,9999,9999,1721201780
1917,17,Jits_Phase_5,125,9999,9999,9999,1721701464
1917,17,Jits_Phase_5,126,9999,9999,9999,1722201168
1917,17,Jits_Phase_5,127,9999,9999,9999,1722701880
1917,17,Jits_Phase_5,128,9999,9999,9999,1723201628
1917,17,Jits_Phase_5,129,9999,9999,9999,1723701316
1917,17,Jits_Phase_5,130,9999,9999,9999,1724202064
1917,17,Jits_Phase_5,131,9999,9999,9999,1724801084
1917,17,Jits_Phase_5,132,9999,9999,9999,1725301824
1917,17,Jits_Phase_5,133,9999,9999,9999,1725801548
1917,17,Jits_Phase_5,134,9999,9999,9999,1726301288
1917,17,Jits_Phase_5,135,9999,9999,9999,1726802028
1917,17,Jits_Phase_5,136,9999,9999,9999,1727301732
1917,17,Jits_Phase_5,137,9999,9999,9999,1727801412
1917,17,Jits_Phase_5,138,9999,9999,9999,1728301116
1917,17,Jits_Phase_5,139,9999,9999,9999,1728801912
1917,17,Jits_Phase_5,140,9999,9999,9999,1729301600
1917,17,Jits_Phase_5,141,9999,9999,9999,1729801304
1917,17,Jits_Phase_5,142,9999,9999,9999,1730302040
1917,17,Jits_Phase_5,143,9999,9999,9999,1730801744
1917,17,Jits_Phase_5,144,9999,9999,9999,1731301432
1917,17,Jits_Phase_5,145,9999,9999,9999,1731801192
1917,17,Jits_Phase_5,146,9999,9999,9999,1732301940
1917,17,Jits_Phase_5,147,9999,9999,9999,1732801644
1917,17,Jits_Phase_5,148,9999,9999,9999,1733301316
1917,17,Jits_Phase_5,149,9999,9999,9999,1733802064
1917,17,Jits_Phase_5,150,9999,9999,9999,1734201456
1917,17,Jits_Phase_5,151,9999,9999,9999,1734701140
1917,17,Jits_Phase_5,152,9999,9999,9999,1735201884
1917,17,Jits_Phase_5,153,9999,9999,9999,1735701560
1917,17,Jits_Phase_5,154,9999,9999,9999,1736201312
1917,17,Jits_Phase_5,155,9999,9999,9999,1736702052
1917,17,Jits_Phase_5,156,9999,9999,9999,1737201716
1917,17,Jits_Phase_5,157,9999,9999,9999,1737701460
1917,17,Jits_Phase_5,158,9999,9999,9999,1738201164
1917,17,Jits_Phase_5,159,9999,9999,9999,1738701896
1917,17,Jits_Phase_5,160,9999,9999,9999,1739201656
1917,17,Jits_Phase_5,161,9999,9999,9999,1739701336
1917,17,Jits_Phase_5,162,9999,9999,9999,1740202080
1917,17,Jits_Phase_5,163,9999,9999,9999,1740701784
1917,17,Jits_Phase_5,164,9999,9999,9999,1741201460
1917,17,Jits_Phase_5,165,9999,9999,9999,1741701180
1917,17,Jits_Phase_5,166,9999,9999,9999,1742201936
1917,17,Jits_Phase_5,167,9999,9999,9999,1742701656
1917,17,Jits_Phase_5,168,9999,9999,9999,1743201404
1917,17,Jits_Phase_5,169,9999,9999,9999,1743702072
1918,15,Jits_Phase_8,0,5,56,103,1755711924
1918,15,Jits_Phase_8,1,5,63,98,1755715168
1918,15,Jits_Phase_8,2,5,80,127,1755718284
1918,15,Jits_Phase_8,0,5,56,103,1756511732
1918,15,Jits_Phase_8,1,5,63,98,1756514976
1918,15,Jits_Phase_8,2,5,80,127,1756518016
1918,15,Jits_Phase_8,3,1,48,100,1756666840
1918,15,Jits_Phase_8,0,5,80,127,1757251920
1918,15,Jits_Phase_8,1,5,63,98,1757342004
1918,15,Jits_Phase_8,2,5,56,103,1757352260
1918,15,Jits_Phase_8,3,1,48,79,1757369272
1918,15,Jits_Phase_8,0,5,56,103,1758072084
1918,15,Jits_Phase_8,1,5,63,98,1758082560
1918,15,Jits_Phase_8,2,1,48,114,1758170596
1918,15,Jits_Phase_8,3,5,80,127,1758172460
1918,15,Jits_Phase_8,0,5,63,98,1758842492
1918,15,Jits_Phase_8,1,5,80,127,1758872044
1918,15,Jits_Phase_8,2,5,56,103,1758901668
1918,15,Jits_Phase_8,3,1,48,103,1758918988
1918,15,Jits_Phase_8,0,5,56,103,1759641904
1918,15,Jits_Phase_8,1,1,48,105,1759685476
1918,15,Jits_Phase_8,2,5,80,127,1759742424
1918,15,Jits_Phase_8,3,5,63,98,1759791484
1918,15,Jits_Phase_8,0,5,56,103,1760441636
1918,15,Jits_Phase_8,1,1,48,96,1760481852
1918,15,Jits_Phase_8,2,5,80,127,1760491896
1918,15,Jits_Phase_8,3,5,63,98,1760531692
1918,15,Jits_Phase_8,0,1,48,111,1761271940
1918,15,Jits_Phase_8,1,5,80,127,1761273648
1918,15,Jits_Phase_8,2,5,63,98,1761301860
1918,15,Jits_Phase_8,3,5,56,103,1761371480
1918,15,Jits_Phase_8,0,1,48,105,1762099624
1918,15,Jits_Phase_8,1,5,63,98,1762101588
1918,15,Jits_Phase_8,2,5,56,103,1762132332
1918,15,Jits_Phase_8,3,5,80,127,1762191676
1918,15,Jits_Phase_8,0,5,56,103,1762841932
1918,15,Jits_Phase_8,1,5,80,127,1762844916
1918,15,Jits_Phase_8,2,1,48,95,1762913332
1918,15,Jits_Phase_8,3,5,63,98,1762961768
1918,15,Jits_Phase_8,0,5,56,103,1763721468
1918,15,Jits_Phase_8,1,1,48,102,1763722952
1918,15,Jits_Phase_8,2,5,80,127,1763761560
1918,15,Jits_Phase_8,3,5,63,98,1763771664
1918,15,Jits_Phase_8,0,5,56,103,1764482532
1918,15,Jits_Phase_8,1,5,80,127,1764501984
1918,15,Jits_Phase_8,2,1,48,109,1764546608
1918,15,Jits_Phase_8,3,5,63,98,1764581640
1918,15,Jits_Phase_8,0,5,80,127,1765272016
1918,15,Jits_Phase_8,1,1,48,104,1765368612
1918,15,Jits_Phase_8,2,5,56,103,1765372236
1918,15,Jits_Phase_8,3,5,63,98,1765381372
1918,15,Jits_Phase_8,0,5,63,98,1766041904
1918,15,Jits_Phase_8,1,5,80,127,1766102492
1918,15,Jits_Phase_8,2,5,56,103,1766111552
1918,15,Jits_Phase_8,3,1,48,107,1766192892
1918,15,Jits_Phase_8,0,5,56,103,1766841764
1918,15,Jits_Phase_8,1,5,63,98,1766912296
1918,15,Jits_Phase_8,2,5,80,127,1766915656
1918,15,Jits_Phase_8,3,1,48,86,1766960440
1918,15,Jits_Phase_8,0,5,63,98,1767672284
1918,15,Jits_Phase_8,1,5,56,103,1767722472
1918,15,Jits_Phase_8,2,5,80,127,1767725536
1918,15,Jits_Phase_8,3,1,48,87,1767787504
1918,15,Jits_Phase_8,0,5,56,103,1768432180
1918,15,Jits_Phase_8,1,5,80,127,1768435316
1918,15,Jits_Phase_8,2,5,63,98,1768522084
1918,15,Jits_Phase_8,3,1,48,112,1768550488
1918,15,Jits_Phase_8,0,5,63,98,1769271612
1918,15,Jits_Phase_8,1,1,48,121,1769345800
1918,15,Jits_Phase_8,2,5,56,103,1769361764
1918,15,Jits_Phase_8,3,5,80,127,1769391540
1918,15,Jits_Phase_8,0,5,56,103,1770062132
1918,15,Jits_Phase_8,1,5,63,98,1770161492
1918,15,Jits_Phase_8,2,1,48,119,1770188752
1918,15,Jits_Phase_8,3,5,80,127,1770192452
1918,15,Jits_Phase_8,0,5,63,98,1770882460
1918,15,Jits_Phase_8,1,5,56,103,1770891888
1918,15,Jits_Phase_8,2,5,80,127,1770981944
1918,15,Jits_Phase_8,3,1,48,120,1771012512
1918,15,Jits_Phase_8,0,5,63,98,1771701548
1918,15,Jits_Phase_8,1,5,56,103,1771781432
1918,15,Jits_Phase_8,2,5,80,127,1771784792
1918,15,Jits_Phase_8,3,1,48,118,1771799960
1918,15,Jits_Phase_8,0,5,80,127,1772461540
1918,15,Jits_Phase_8,1,5,63,98,1772482040
1918,15,Jits_Phase_8,2,5,56,103,1772542180
1918,15,Jits_Phase_8,3,1,48,125,1772639216
1918,15,Jits_Phase_8,0,5,56,103,1773302104
1918,15,Jits_Phase_8,1,5,63,98,1773321708
1918,15,Jits_Phase_8,2,5,80,127,1773324992
1918,15,Jits_Phase_8,3,1,48,122,1773422892
1918,15,Jits_Phase_8,0,5,63,98,1774041540
1918,15,Jits_Phase_8,1,5,80,127,1774122324
1918,15,Jits_Phase_8,2,5,56,103,1774131532
1918,15,Jits_Phase_8,3,1,48,120,1774263604
1918,15,Jits_Phase_8,0,5,63,98,1774861824
1918,15,Jits_Phase_8,1,5,56,103,1774882100
1918,15,Jits_Phase_8,2,5,80,127,1774932364
1918,15,Jits_Phase_8,3,1,48,111,1775076848
1918,15,Jits_Phase_8,0,5,80,127,1775661312
1918,15,Jits_Phase_8,1,5,63,98,1775702452
1918,15,Jits_Phase_8,2,5,56,103,1775721760
1918,15,Jits_Phase_8,3,1,48,106,1775808496
1918,15,Jits_Phase_8,0,5,56,103,1776502048
1918,15,Jits_Phase_8,1,5,63,98,1776512228
1918,15,Jits_Phase_8,2,5,80,127,1776531904
1918,15,Jits_Phase_8,3,1,48,127,1776607180
1918,15,Jits_Phase_8,0,5,56,103,1777232192
1918,15,Jits_Phase_8,1,5,63,98,1777322276
1918,15,Jits_Phase_8,2,1,48,103,1777367196
1918,15,Jits_Phase_8,3,5,80,127,1777381812
1918,15,Jits_Phase_8,0,5,80,127,1778061792
1918,15,Jits_Phase_8,1,5,56,103,1778071896
1918,15,Jits_Phase_8,2,5,63,98,1778141756
1918,15,Jits_Phase_8,3,1,48,112,1778173368
1918,15,Jits_Phase_8,0,5,63,98,1778892036
1918,15,Jits_Phase_8,1,1,48,101,1778936208
1918,15,Jits_Phase_8,2,5,80,127,1778982308
1918,15,Jits_Phase_8,3,5,56,103,1778991740
1918,15,Jits_Phase_8,0,5,63,98,1779622344
1918,15,Jits_Phase_8,1,5,80,127,1779672536
1918,15,Jits_Phase_8,2,1,48,100,1779716340
1918,15,Jits_Phase_8,3,5,56,103,1779731776
1918,15,Jits_Phase_8,0,5,56,103,1780441580
1918,15,Jits_Phase_8,1,1,48,109,1780457032
1918,15,Jits_Phase_8,2,5,80,127,1780491620
1918,15,Jits_Phase_8,3,5,63,98,1780512120
1918,15,Jits_Phase_8,0,1,48,67,1781183312
1918,15,Jits_Phase_8,1,5,56,103,1781211688
1918,15,Jits_Phase_8,2,5,80,127,1781271976
1918,15,Jits_Phase_8,3,5,63,98,1781341528
1918,15,Jits_Phase_8,0,5,56,103,1782012516
1918,15,Jits_Phase_8,1,1,48,66,1782042216
1918,15,Jits_Phase_8,2,5,80,127,1782043780
1918,15,Jits_Phase_8,3,5,63,98,1782071764
1918,15,Jits_Phase_8,0,1,48,76,1782799320
1918,15,Jits_Phase_8,1,5,56,103,1782851940
1918,15,Jits_Phase_8,2,5,80,127,1782872368
1918,15,Jits_Phase_8,3,5,63,98,1782931768
1918,15,Jits_Phase_8,0,1,48,76,1783606132
1918,15,Jits_Phase_8,1,5,80,127,1783731536
1918,15,Jits_Phase_8,2,5,56,103,1783741788
1918,15,Jits_Phase_8,3,5,63,98,1783752264
1918,15,Jits_Phase_8,0,1,48,80,1784435412
1918,15,Jits_Phase_8,1,5,56,103,1784492436
1918,15,Jits_Phase_8,2,5,80,127,1784532456
1918,15,Jits_Phase_8,3,5,63,98,1784561920
1918,15,Jits_Phase_8,0,1,48,72,1785252700
1918,15,Jits_Phase_8,1,5,56,103,1785261404
1918,15,Jits_Phase_8,2,5,63,98,1785292152
1918,15,Jits_Phase_8,3,5,80,127,1785332244
1918,15,Jits_Phase_8,0,5,80,127,1786012120
1918,15,Jits_Phase_8,1,1,48,60,1786052264
1918,15,Jits_Phase_8,2,5,63,98,1786062308
1918,15,Jits_Phase_8,3,5,56,103,1786081540
1918,15,Jits_Phase_8,0,1,48,95,1786823020
1918,15,Jits_Phase_8,1,5,56,103,1786841448
1918,15,Jits_Phase_8,2,5,80,127,1786912280
1918,15,Jits_Phase_8,3,5,63,98,1786971436
1918,15,Jits_Phase_8,0,5,80,127,1787642428
1918,15,Jits_Phase_8,1,1,48,91,1787663576
1918,15,Jits_Phase_8,2,5,63,98,1787732336
1918,15,Jits_Phase_8,3,5,56,103,1787751864
1918,15,Jits_Phase_8,0,5,63,98,1788461376
1918,15,Jits_Phase_8,1,5,56,103,1788481876
1918,15,Jits_Phase_8,2,1,48,105,1788511324
1918,15,Jits_Phase_8,3,5,80,127,1788521888
1918,15,Jits_Phase_8,0,5,80,127,1789222272
1918,15,Jits_Phase_8,1,5,63,98,1789241656
1918,15,Jits_Phase_8,2,1,48,81,1789313152
1918,15,Jits_Phase_8,3,5,56,103,1789321480
1918,15,Jits_Phase_8,0,5,63,98,1790011664
1918,15,Jits_Phase_8,1,1,48,91,1790057328
1918,15,Jits_Phase_8,2,5,56,103,1790122380
1918,15,Jits_Phase_8,3,5,80,127,1790125368
1918,15,Jits_Phase_8,0,1,48,78,1790807432
1918,15,Jits_Phase_8,1,5,63,98,1790832240
1918,15,Jits_Phase_8,2,5,56,103,1790842272
1918,15,Jits_Phase_8,3,5,80,127,1790845260
1918,15,Jits_Phase_8,0,5,56,103,1791612412
1918,15,Jits_Phase_8,1,1,48,85,1791613380
1918,15,Jits_Phase_8,2,5,80,127,1791732068
1918,15,Jits_Phase_8,3,5,63,98,1791772164
1918,15,Jits_Phase_8,0,1,48,95,1792380996
1918,15,Jits_Phase_8,1,5,56,103,1792431352
1918,15,Jits_Phase_8,2,5,80,127,1792512420
1918,15,Jits_Phase_8,3,5,63,98,1792531952
1918,15,Jits_Phase_8,0,1,48,90,1793173592
1918,15,Jits_Phase_8,1,5,56,103,1793232180
1918,15,Jits_Phase_8,2,5,63,98,1793341964
1918,15,Jits_Phase_8,3,5,80,127,1793345324
1918,15,Jits_Phase_8,0,1,48,103,1793953916
1918,15,Jits_Phase_8,1,5,56,103,1794071880
1918,15,Jits_Phase_8,2,5,80,127,1794101728
1918,15,Jits_Phase_8,3,5,63,98,1794122004
1918,15,Jits_Phase_8,0,1,48,107,1794720732
1918,15,Jits_Phase_8,1,5,63,98,1794861360
1918,15,Jits_Phase_8,2,5,56,103,1794871688
1918,15,Jits_Phase_8,3,5,80,127,1794882092
1918,15,Jits_Phase_8,0,1,48,96,1795499144
1918,15,Jits_Phase_8,1,5,80,127,1795652032
1918,15,Jits_Phase_8,2,5,56,103,1795702248
1918,15,Jits_Phase_8,3,5,63,98,1795742044
1918,15,Jits_Phase_8,0,1,48,85,1796337276
1918,15,Jits_Phase_8,1,1,38,19,1796347652
1918,15,Jits_Phase_8,2,5,80,127,1796472204
1918,15,Jits_Phase_8,3,5,63,98,1796491808
1918,15,Jits_Phase_8,4,5,56,103,1796541924
1918,15,Jits_Phase_8,0,1,48,85,1797124952
1918,15,Jits_Phase_8,1,5,80,127,1797282140
1918,15,Jits_Phase_8,2,5,56,103,1797311988
1918,15,Jits_Phase_8,3,5,63,98,1797381700
1918,15,Jits_Phase_8,0,1,48,87,1797989668
1918,15,Jits_Phase_8,1,5,56,103,1798132032
1918,15,Jits_Phase_8,2,5,80,127,1798142288
1918,15,Jits_Phase_8,3,5,63,98,1798182232
1918,15,Jits_Phase_8,0,5,56,103,1798841712
1918,15,Jits_Phase_8,1,5,63,98,1798862136
1918,15,Jits_Phase_8,2,1,48,80,1798884244
1918,15,Jits_Phase_8,3,1,38,19,1798894624
1918,15,Jits_Phase_8,4,5,80,127,1798931820
1918,15,Jits_Phase_8,0,5,63,98,1799661928
1918,15,Jits_Phase_8,1,1,48,122,1799670884
1918,15,Jits_Phase_8,2,5,80,127,1799722288
1918,15,Jits_Phase_8,3,5,56,103,1799741888
1918,15,Jits_Phase_8,0,5,80,127,1800451544
1918,15,Jits_Phase_8,1,1,48,87,1800463036
1918,15,Jits_Phase_8,2,5,56,103,1800482060
1918,15,Jits_Phase_8,3,5,63,98,1800511836
1918,15,Jits_Phase_8,0,5,56,103,1801252080
1918,15,Jits_Phase_8,1,1,48,81,1801259764
1918,15,Jits_Phase_8,2,5,63,98,1801311692
1918,15,Jits_Phase_8,3,5,80,127,1801372140
1918,15,Jits_Phase_8,0,5,80,127,1802072516
1918,15,Jits_Phase_8,1,1,48,92,1802081620
1918,15,Jits_Phase_8,2,5,56,103,1802092284
1918,15,Jits_Phase_8,3,5,63,98,1802161700
1918,15,Jits_Phase_8,0,5,80,127,1802872260
1918,15,Jits_Phase_8,1,1,48,87,1802888904
1918,15,Jits_Phase_8,2,5,63,98,1802891560
1918,15,Jits_Phase_8,3,5,56,103,1802922676
1918,15,Jits_Phase_8,0,5,80,127,1803661656
1918,15,Jits_Phase_8,1,1,48,112,1803679568
1918,15,Jits_Phase_8,2,5,63,98,1803682224
1918,15,Jits_Phase_8,3,5,56,103,1803741616
1918,15,Jits_Phase_8,0,5,80,127,1804461532
1918,15,Jits_Phase_8,1,1,48,99,1804501596
1918,15,Jits_Phase_8,2,5,56,103,1804561828
1918,15,Jits_Phase_8,3,5,63,98,1804591604
1918,15,Jits_Phase_8,0,5,63,98,1805251904
1918,15,Jits_Phase_8,1,5,80,127,1805302244
1918,15,Jits_Phase_8,2,1,48,105,1805316948
1918,15,Jits_Phase_8,3,5,56,103,1805321544
1918,15,Jits_Phase_8,0,1,48,95,1806083740
1918,15,Jits_Phase_8,1,5,80,127,1806091624
1918,15,Jits_Phase_8,2,5,56,103,1806122444
1918,15,Jits_Phase_8,3,5,63,98,1806125504
1918,15,Jits_Phase_8,0,1,48,91,1806908332
1918,15,Jits_Phase_8,1,5,63,98,1806941508
1918,15,Jits_Phase_8,2,5,56,103,1806981480
1918,15,Jits_Phase_8,3,5,80,127,1807001904
1918,15,Jits_Phase_8,0,5,80,127,1807702400
1918,15,Jits_Phase_8,1,1,48,95,1807719268
1918,15,Jits_Phase_8,2,5,63,98,1807782232
1918,15,Jits_Phase_8,3,5,56,103,1807822236
1918,15,Jits_Phase_8,0,5,63,98,1808521668
1918,15,Jits_Phase_8,1,1,48,83,1808556120
1918,15,Jits_Phase_8,2,5,80,127,1808601548
1918,15,Jits_Phase_8,3,5,56,103,1808622196
1918,15,Jits_Phase_8,0,5,56,103,1809362216
1918,15,Jits_Phase_8,1,5,63,98,1809371572
1918,15,Jits_Phase_8,2,1,48,111,1809388964
1918,15,Jits_Phase_8,3,5,80,127,1809411512
1918,15,Jits_Phase_8,0,5,56,103,1810092384
1918,15,Jits_Phase_8,1,5,80,127,1810095448
1918,15,Jits_Phase_8,2,1,48,98,1810175744
1918,15,Jits_Phase_8,3,5,63,98,1810231720
1918,15,Jits_Phase_8,0,5,56,103,1810892164
1918,15,Jits_Phase_8,1,1,48,101,1810952428
1918,15,Jits_Phase_8,2,5,63,98,1810982144
1918,15,Jits_Phase_8,3,5,80,127,1811052612
1918,15,Jits_Phase_8,0,1,48,110,1811721340
1918,15,Jits_Phase_8,1,5,63,98,1811771768
1918,15,Jits_Phase_8,2,5,80,127,1811775424
1918,15,Jits_Phase_8,3,5,56,103,1811832288
1918,15,Jits_Phase_8,0,1,48,109,1812491512
1918,15,Jits_Phase_8,1,5,80,127,1812611372
1918,15,Jits_Phase_8,2,5,56,103,1812632020
1918,15,Jits_Phase_8,3,5,63,98,1812642272
1918,15,Jits_Phase_8,0,1,48,91,1813269548
1918,15,Jits_Phase_8,1,5,56,103,1813322160
1918,15,Jits_Phase_8,2,5,63,98,1813332416
1918,15,Jits_Phase_8,3,5,80,127,1813402060
1918,15,Jits_Phase_8,0,1,48,93,1814097296
1918,15,Jits_Phase_8,1,5,80,127,1814121788
1918,15,Jits_Phase_8,2,5,56,103,1814172156
1918,15,Jits_Phase_8,3,5,63,98,1814222184
1918,15,Jits_Phase_8,0,1,48,100,1814930320
1918,15,Jits_Phase_8,1,5,56,103,1815001400
1918,15,Jits_Phase_8,2,5,63,98,1815011800
1918,15,Jits_Phase_8,3,5,80,127,1815051508
1918,15,Jits_Phase_8,0,5,56,103,1815741976
1918,15,Jits_Phase_8,1,1,48,84,1815753996
1918,15,Jits_Phase_8,2,5,63,98,1815781920
1918,15,Jits_Phase_8,3,5,80,127,1815832108
1918,15,Jits_Phase_8,0,5,80,127,1816501904
1918,15,Jits_Phase_8,1,1,48,96,1816523200
1918,15,Jits_Phase_8,2,5,56,103,1816551796
1918,15,Jits_Phase_8,3,5,63,98,1816572220
1918,15,Jits_Phase_8,0,5,80,127,1817311720
1918,15,Jits_Phase_8,1,1,48,93,1817314012
1918,15,Jits_Phase_8,2,5,63,98,1817372004
1918,15,Jits_Phase_8,3,5,56,103,1817451972
1918,15,Jits_Phase_8,0,5,80,127,1818091996
1918,15,Jits_Phase_8,1,1,48,113,1818100352
1918,15,Jits_Phase_8,2,5,56,103,1818131936
1918,15,Jits_Phase_8,3,5,63,98,1818152288
1918,15,Jits_Phase_8,0,1,48,105,1818880768
1918,15,Jits_Phase_8,1,5,56,103,1818941900
1918,15,Jits_Phase_8,2,5,80,127,1818951932
1918,15,Jits_Phase_8,3,5,63,98,1818991960
1918,15,Jits_Phase_8,0,1,48,79,1819704796
1918,15,Jits_Phase_8,1,5,56,103,1819812244
1918,15,Jits_Phase_8,2,5,63,98,1819852188
1918,15,Jits_Phase_8,3,5,80,127,1819855768
1918,15,Jits_Phase_8,0,5,63,98,1820481948
1918,15,Jits_Phase_8,1,5,80,127,1820521820
1918,15,Jits_Phase_8,2,1,48,85,1820525452
1918,15,Jits_Phase_8,3,5,56,103,1820591676
1918,15,Jits_Phase_8,0,5,63,98,1821251932
1918,15,Jits_Phase_8,1,1,48,103,1821307720
1918,15,Jits_Phase_8,2,5,56,103,1821331688
1918,15,Jits_Phase_8,3,5,80,127,1821392200
1918,15,Jits_Phase_8,0,5,80,127,1822061992
1918,15,Jits_Phase_8,1,1,48,95,1822063548
1918,15,Jits_Phase_8,2,5,63,98,1822112032
1918,15,Jits_Phase_8,3,5,56,103,1822141728
1918,15,Jits_Phase_8,0,5,56,103,1822851460
1918,15,Jits_Phase_8,1,1,48,114,1822890408
1918,15,Jits_Phase_8,2,5,63,98,1822901648
1918,15,Jits_Phase_8,3,5,80,127,1822911828
1918,15,Jits_Phase_8,0,5,56,103,1823661572
1918,15,Jits_Phase_8,1,1,48,105,1823700444
1918,15,Jits_Phase_8,2,5,63,98,1823771968
1918,15,Jits_Phase_8,3,5,80,127,1823791572
1918,15,Jits_Phase_8,0,5,63,98,1824462200
1918,15,Jits_Phase_8,1,5,80,127,1824512692
1918,15,Jits_Phase_8,2,1,48,112,1824525080
1918,15,Jits_Phase_8,3,5,56,103,1824601544
1918,15,Jits_Phase_8,0,5,63,98,1825251740
1918,15,Jits_Phase_8,1,5,80,127,1825282488
1918,15,Jits_Phase_8,2,1,48,123,1825339292
1918,15,Jits_Phase_8,3,5,56,103,1825371416
1918,15,Jits_Phase_8,0,5,63,98,1826051452
1918,15,Jits_Phase_8,1,5,56,103,1826061632
1918,15,Jits_Phase_8,2,1,48,118,1826123160
1918,15,Jits_Phase_8,3,5,80,127,1826162024
1918,15,Jits_Phase_8,0,1,48,101,1826920168
1918,15,Jits_Phase_8,1,5,63,98,1826951556
1918,15,Jits_Phase_8,2,5,80,127,1826982524
1918,15,Jits_Phase_8,3,5,56,103,1827011924
1918,15,Jits_Phase_8,0,1,48,93,1827763528
1918,15,Jits_Phase_8,1,5,80,127,1827771856
1918,15,Jits_Phase_8,2,5,63,98,1827782112
1918,15,Jits_Phase_8,3,5,56,103,1827811660
1918,15,Jits_Phase_8,0,5,80,127,1828472316
1918,15,Jits_Phase_8,1,5,63,98,1828491552
1918,15,Jits_Phase_8,2,5,56,103,1828541816
1918,15,Jits_Phase_8,3,1,48,97,1828573500
1918,15,Jits_Phase_8,0,5,63,98,1829301504
1918,15,Jits_Phase_8,1,1,48,99,1829362240
1918,15,Jits_Phase_8,2,5,80,127,1829363732
1918,15,Jits_Phase_8,3,5,56,103,1829381540
1918,15,Jits_Phase_8,0,5,63,98,1830061412
1918,15,Jits_Phase_8,1,1,48,78,1830100044
1918,15,Jits_Phase_8,2,5,56,103,1830111524
1918,15,Jits_Phase_8,3,5,80,127,1830121852
1918,15,Jits_Phase_8,0,1,48,90,1830852552
1918,15,Jits_Phase_8,1,5,56,103,1830892068
1918,15,Jits_Phase_8,2,5,80,127,1830902100
1918,15,Jits_Phase_8,3,5,63,98,1831001416
1918,15,Jits_Phase_8,0,1,48,78,1831631316
1918,15,Jits_Phase_8,1,5,80,127,1831651760
1918,15,Jits_Phase_8,2,5,63,98,1831661864
1918,15,Jits_Phase_8,3,5,56,103,1831811312
1918,15,Jits_Phase_8,0,1,48,124,1832447608
1918,15,Jits_Phase_8,1,5,63,98,1832461708
1918,15,Jits_Phase_8,2,5,80,127,1832501656
1918,15,Jits_Phase_8,3,5,56,103,1832581400
1918,15,Jits_Phase_8,0,5,56,103,1833212228
1918,15,Jits_Phase_8,1,1,48,127,1833225516
1918,15,Jits_Phase_8,2,5,80,127,1833311704
1918,15,Jits_Phase_8,3,5,63,98,1833332212
1918,15,Jits_Phase_8,0,1,48,101,1834000864
1918,15,Jits_Phase_8,1,5,80,127,1834031552
1918,15,Jits_Phase_8,2,5,56,103,1834041956
1918,15,Jits_Phase_8,3,5,63,98,1834132096
1918,15,Jits_Phase_8,0,1,48,92,1834775452
1918,15,Jits_Phase_8,1,5,56,103,1834832180
1918,15,Jits_Phase_8,2,5,63,98,1834851636
1918,15,Jits_Phase_8,3,5,80,127,1834931528
1918,15,Jits_Phase_8,0,1,48,111,1835543004
1918,15,Jits_Phase_8,1,5,63,98,1835581924
1918,15,Jits_Phase_8,2,5,56,103,1835671992
1918,15,Jits_Phase_8,3,5,80,127,1835674904
1918,15,Jits_Phase_8,0,1,48,104,1836324840
1918,15,Jits_Phase_8,1,5,56,103,1836412332
1918,15,Jits_Phase_8,2,5,80,127,1836471712
1918,15,Jits_Phase_8,3,5,63,98,1836482116
1918,15,Jits_Phase_8,0,1,48,120,1837150684
1918,15,Jits_Phase_8,1,5,80,127,1837262088
1918,15,Jits_Phase_8,2,5,56,103,1837272412
1918,15,Jits_Phase_8,3,5,63,98,1837275548
1918,15,Jits_Phase_8,0,1,48,101,1837990148
1918,15,Jits_Phase_8,1,5,56,103,1838021956
1918,15,Jits_Phase_8,2,5,80,127,1838032360
1918,15,Jits_Phase_8,3,5,63,98,1838051960
1918,15,Jits_Phase_8,0,1,48,86,1838769532
1918,15,Jits_Phase_8,1,5,63,98,1838792064
1918,15,Jits_Phase_8,2,5,80,127,1838851460
1918,15,Jits_Phase_8,3,5,56,103,1838901784
1918,15,Jits_Phase_8,0,1,48,104,1839585980
1918,15,Jits_Phase_8,1,5,63,98,1839671652
1918,15,Jits_Phase_8,2,5,56,103,1839681984
1918,15,Jits_Phase_8,3,5,80,127,1839732184
1918,15,Jits_Phase_8,0,5,63,98,1840372140
1918,15,Jits_Phase_8,1,5,80,127,1840391668
1918,15,Jits_Phase_8,2,5,56,103,1840401848
1918,15,Jits_Phase_8,3,1,48,88,1840411324
1918,15,Jits_Phase_8,0,5,63,98,1841171832
1918,15,Jits_Phase_8,1,5,80,127,1841175040
1918,15,Jits_Phase_8,2,1,48,99,1841199264
1918,15,Jits_Phase_8,3,5,56,103,1841211920
1918,15,Jits_Phase_8,0,1,48,117,1841984652
1918,15,Jits_Phase_8,1,5,63,98,1842042148
1918,15,Jits_Phase_8,2,5,80,127,1842071848
1918,15,Jits_Phase_8,3,5,56,103,1842082088
1918,15,Jits_Phase_8,0,5,56,103,1842791748
1918,15,Jits_Phase_8,1,1,48,114,1842805352
1918,15,Jits_Phase_8,2,5,80,127,1842821612
1918,15,Jits_Phase_8,3,5,63,98,1842852136
1918,15,Jits_Phase_8,0,1,48,111,1843613672
1918,15,Jits_Phase_8,1,5,63,98,1843691792
1918,15,Jits_Phase_8,2,5,56,103,1843731944
1918,15,Jits_Phase_8,3,5,80,127,1843735008
1918,15,Jits_Phase_8,0,5,80,127,1844392268
1918,15,Jits_Phase_8,1,1,48,117,1844411244
1918,15,Jits_Phase_8,2,5,56,103,1844472296
1918,15,Jits_Phase_8,3,5,63,98,1844522548
1918,15,Jits_Phase_8,0,5,80,127,1845171508
1918,15,Jits_Phase_8,1,5,56,103,1845192008
1918,15,Jits_Phase_8,2,1,48,106,1845208724
1918,15,Jits_Phase_8,3,5,63,98,1845282276
1918,15,Jits_Phase_8,0,5,80,127,1846012140
1918,15,Jits_Phase_8,1,1,48,102,1846036792
1918,15,Jits_Phase_8,2,5,63,98,1846052156
1918,15,Jits_Phase_8,3,5,56,103,1846092100
1918,15,Jits_Phase_8,0,5,63,98,1846822412
1918,15,Jits_Phase_8,1,1,48,106,1846844532
1918,15,Jits_Phase_8,2,5,80,127,1846881656
1918,15,Jits_Phase_8,3,5,56,103,1846912572
1918,15,Jits_Phase_8,0,1,48,111,1847636076
1918,15,Jits_Phase_8,1,5,56,103,1847662008
1918,15,Jits_Phase_8,2,5,80,127,1847691708
1918,15,Jits_Phase_8,3,5,63,98,1847781896
1918,15,Jits_Phase_8,0,1,48,97,1848421444
1918,15,Jits_Phase_8,1,5,56,103,1848471904
1918,15,Jits_Phase_8,2,5,80,127,1848581468
1918,15,Jits_Phase_8,3,5,63,98,1848612140
1918,15,Jits_Phase_8,0,1,48,97,1849199608
1918,15,Jits_Phase_8,1,5,56,103,1849321776
1918,15,Jits_Phase_8,2,5,63,98,1849382364
1918,15,Jits_Phase_8,3,5,80,127,1849411916
1918,15,Jits_Phase_8,0,1,48,92,1849966264
1918,15,Jits_Phase_8,1,5,56,103,1850091868
1918,15,Jits_Phase_8,2,5,63,98,1850161436
1918,15,Jits_Phase_8,3,5,80,127,1850181932
1918,15,Jits_Phase_8,0,1,48,122,1850758340
1918,15,Jits_Phase_8,1,5,80,127,1850862024
1918,15,Jits_Phase_8,2,5,63,98,1850882376
1918,15,Jits_Phase_8,3,5,56,103,1850931524
1918,15,Jits_Phase_8,0,1,48,106,1851586116
1918,15,Jits_Phase_8,1,5,63,98,1851682392
1918,15,Jits_Phase_8,2,5,80,127,1851692348
1918,15,Jits_Phase_8,3,5,56,103,1851741496
1918,15,Jits_Phase_8,0,1,48,103,1852379100
1918,15,Jits_Phase_8,1,5,63,98,1852482116
1918,15,Jits_Phase_8,2,5,80,127,1852551484
1918,15,Jits_Phase_8,3,5,56,103,1852572132
1918,15,Jits_Phase_8,0,1,48,91,1853212648
1918,15,Jits_Phase_8,1,5,63,98,1853312388
1918,15,Jits_Phase_8,2,5,80,127,1853315672
1918,15,Jits_Phase_8,3,5,56,103,1853382096
1918,15,Jits_Phase_8,0,5,80,127,1854062064
1918,15,Jits_Phase_8,1,1,48,108,1854069432
1918,15,Jits_Phase_8,2,5,56,103,1854082408
1918,15,Jits_Phase_8,3,5,63,98,1854091544
1918,15,Jits_Phase_8,0,1,48,92,1854868996
1918,15,Jits_Phase_8,1,5,56,103,1854882272
1918,15,Jits_Phase_8,2,5,63,98,1854972240
1918,15,Jits_Phase_8,3,5,80,127,1854975448
1918,15,Jits_Phase_8,0,5,80,127,1855652348
1918,15,Jits_Phase_8,1,5,56,103,1855661336
1918,15,Jits_Phase_8,2,5,63,98,1855682056
1918,15,Jits_Phase_8,3,1,48,105,1855686668
1918,15,Jits_Phase_8,0,1,48,117,1856437140
1918,15,Jits_Phase_8,1,5,63,98,1856452208
1918,15,Jits_Phase_8,2,5,80,127,1856512352
1918,15,Jits_Phase_8,3,5,56,103,1856521560
1918,15,Jits_Phase_8,0,1,48,122,1857221992
1918,15,Jits_Phase_8,1,5,63,98,1857322376
1918,15,Jits_Phase_8,2,5,80,127,1857352076
1918,15,Jits_Phase_8,3,5,56,103,1857392120
1918,15,Jits_Phase_8,0,1,48,105,1857995164
1918,15,Jits_Phase_8,1,5,56,103,1858111936
1918,15,Jits_Phase_8,2,5,80,127,1858122188
1918,15,Jits_Phase_8,3,5,63,98,1858162084
1918,15,Jits_Phase_8,0,1,48,106,1858786064
1918,15,Jits_Phase_8,1,5,80,127,1858871736
1918,15,Jits_Phase_8,2,5,56,103,1858951484
1918,15,Jits_Phase_8,3,5,63,98,1858962184
1918,15,Jits_Phase_8,0,1,48,105,1859620508
1918,15,Jits_Phase_8,1,5,80,127,1859721588
1918,15,Jits_Phase_8,2,5,56,103,1859801328
1918,15,Jits_Phase_8,3,5,63,98,1859811876
1918,15,Jits_Phase_8,0,1,48,108,1860421432
1918,15,Jits_Phase_8,1,5,80,127,1860562308
1918,15,Jits_Phase_8,2,5,56,103,1860611384
1918,15,Jits_Phase_8,3,5,63,98,1860661648
1918,15,Jits_Phase_8,0,1,48,105,1861306588
1918,15,Jits_Phase_8,1,5,56,103,1861502368
1918,15,Jits_Phase_8,2,5,63,98,1861505280
1918,15,Jits_Phase_8,3,5,80,127,1861551364
1918,15,Jits_Phase_8,0,1,48,98,1862252488
1918,15,Jits_Phase_8,1,5,56,103,1862321556
1918,15,Jits_Phase_8,2,5,63,98,1862352284
1918,15,Jits_Phase_8,3,5,80,127,1862361792
1918,15,Jits_Phase_8,0,5,63,98,1863032184
1918,15,Jits_Phase_8,1,5,56,103,1863101904
1918,15,Jits_Phase_8,2,1,48,98,1863116832
1918,15,Jits_Phase_8,3,5,80,127,1863152088
1918,15,Jits_Phase_8,0,5,63,98,1863861660
1918,15,Jits_Phase_8,1,5,56,103,1863871836
1918,15,Jits_Phase_8,2,5,80,127,1863874900
1918,15,Jits_Phase_8,3,1,48,125,1863943832
1918,15,Jits_Phase_8,0,5,80,127,1864612360
1918,15,Jits_Phase_8,1,5,56,103,1864671832
1918,15,Jits_Phase_8,2,1,48,114,1864733360
1918,15,Jits_Phase_8,3,5,63,98,1864761808
1918,15,Jits_Phase_8,0,5,80,127,1865411940
1918,15,Jits_Phase_8,1,5,56,103,1865512320
1918,15,Jits_Phase_8,2,1,48,87,1865531448
1918,15,Jits_Phase_8,3,5,63,98,1865552184
1918,15,Jits_Phase_8,0,5,56,103,1866261996
1918,15,Jits_Phase_8,1,5,63,98,1866282572
1918,15,Jits_Phase_8,2,5,80,127,1866322220
1918,15,Jits_Phase_8,3,1,48,92,1866350048
1918,15,Jits_Phase_8,0,5,63,98,1867031872
1918,15,Jits_Phase_8,1,5,56,103,1867052596
1918,15,Jits_Phase_8,2,5,80,127,1867151804
1918,15,Jits_Phase_8,3,1,48,87,1867185052
1918,15,Jits_Phase_8,0,5,63,98,1867821628
1918,15,Jits_Phase_8,1,5,80,127,1867931984
1918,15,Jits_Phase_8,2,1,48,90,1867951260
1918,15,Jits_Phase_8,3,5,56,103,1867961752
1918,15,Jits_Phase_8,0,5,56,103,1868641680
1918,15,Jits_Phase_8,1,5,63,98,1868672380
1918,15,Jits_Phase_8,2,5,80,127,1868721600
1918,15,Jits_Phase_8,3,1,48,108,1868746176
1918,15,Jits_Phase_8,0,5,63,98,1869411640
1918,15,Jits_Phase_8,1,5,56,103,1869442556
1918,15,Jits_Phase_8,2,5,80,127,1869491628
1918,15,Jits_Phase_8,3,1,48,107,1869538784
1918,15,Jits_Phase_8,0,5,56,103,1870242112
1918,15,Jits_Phase_8,1,5,63,98,1870261716
1918,15,Jits_Phase_8,2,1,48,81,1870298184
1918,15,Jits_Phase_8,3,5,80,127,1870341444
1918,15,Jits_Phase_8,0,5,63,98,1871012496
1918,15,Jits_Phase_8,1,5,56,103,1871071596
1918,15,Jits_Phase_8,2,5,80,127,1871102268
1918,15,Jits_Phase_8,3,1,48,82,1871145540
1918,15,Jits_Phase_8,0,5,56,103,1871851992
1918,15,Jits_Phase_8,1,5,80,127,1871912208
1918,15,Jits_Phase_8,2,1,48,92,1871932528
1918,15,Jits_Phase_8,3,5,63,98,1871952444
1918,15,Jits_Phase_8,0,5,63,98,1872632340
1918,15,Jits_Phase_8,1,5,56,103,1872691512
1918,15,Jits_Phase_8,2,1,48,109,1872742444
1918,15,Jits_Phase_8,3,5,80,127,1872762284
1918,15,Jits_Phase_8,0,5,56,103,1873511816
1918,15,Jits_Phase_8,1,5,63,98,1873522372
1918,15,Jits_Phase_8,2,5,80,127,1873525500
1918,15,Jits_Phase_8,3,1,48,103,1873572228
1918,15,Jits_Phase_8,0,5,63,98,1874252200
1918,15,Jits_Phase_8,1,5,56,103,1874311472
1918,15,Jits_Phase_8,2,5,80,127,1874314532
1918,15,Jits_Phase_8,3,1,48,77,1874380700
1918,15,Jits_Phase_8,0,5,63,98,1875032524
1918,15,Jits_Phase_8,1,5,80,127,1875062176
1918,15,Jits_Phase_8,2,5,56,103,1875081632
1918,15,Jits_Phase_8,3,1,48,110,1875175688
1918,15,Jits_Phase_8,0,5,56,103,1875761408
1918,15,Jits_Phase_8,1,5,63,98,1875811824
1918,15,Jits_Phase_8,2,5,80,127,1875891436
1918,15,Jits_Phase_8,3,1,48,99,1875934108
1918,15,Jits_Phase_8,0,5,80,127,1876462108
1918,15,Jits_Phase_8,1,5,63,98,1876501980
1918,15,Jits_Phase_8,2,5,56,103,1876522404
1918,15,Jits_Phase_8,3,1,48,84,1876725972
1918,15,Jits_Phase_8,0,5,56,103,1877332280
1918,15,Jits_Phase_8,1,5,80,127,1877341564
1918,15,Jits_Phase_8,2,5,63,98,1877362164
1918,15,Jits_Phase_8,3,1,48,106,1877468476
1918,15,Jits_Phase_8,0,5,56,103,1878111744
1918,15,Jits_Phase_8,1,5,63,98,1878161964
1918,15,Jits_Phase_8,2,5,80,127,1878191588
1918,15,Jits_Phase_8,3,1,48,90,1878292228
1918,15,Jits_Phase_8,0,5,56,103,1878862176
1918,15,Jits_Phase_8,1,5,63,98,1878872504
1918,15,Jits_Phase_8,2,5,80,127,1878921604
1918,15,Jits_Phase_8,3,1,48,117,1879045044
1918,15,Jits_Phase_8,0,5,56,103,1879651652
1918,15,Jits_Phase_8,1,5,80,127,1879654640
1918,15,Jits_Phase_8,2,1,48,92,1879785500
1918,15,Jits_Phase_8,3,5,63,98,1879811552
1918,15,Jits_Phase_8,0,5,63,98,1880472080
1918,15,Jits_Phase_8,1,5,56,103,1880541496
1918,15,Jits_Phase_8,2,5,80,127,1880581368
1918,15,Jits_Phase_8,3,1,48,114,1880609920
1918,15,Jits_Phase_8,0,5,63,98,1881311732
1918,15,Jits_Phase_8,1,1,48,99,1881380896
1918,15,Jits_Phase_8,2,5,56,103,1881401852
1918,15,Jits_Phase_8,3,5,80,127,1881404988
1918,15,Jits_Phase_8,0,5,56,103,1882091984
1918,15,Jits_Phase_8,1,5,63,98,1882182044
1918,15,Jits_Phase_8,2,1,48,107,1882192740
1918,15,Jits_Phase_8,3,5,80,127,1882194156
1918,15,Jits_Phase_8,0,5,56,103,1882861948
1918,15,Jits_Phase_8,1,5,63,98,1882912068
1918,15,Jits_Phase_8,2,5,80,127,1882941768
1918,15,Jits_Phase_8,3,1,48,89,1882993968
1918,15,Jits_Phase_8,0,5,63,98,1883741624
1918,15,Jits_Phase_8,1,5,80,127,1883751828
1918,15,Jits_Phase_8,2,1,48,96,1883787772
1918,15,Jits_Phase_8,3,5,56,103,1883812108
1918,15,Jits_Phase_8,0,5,63,98,1884461304
1918,15,Jits_Phase_8,1,5,80,127,1884521992
1918,15,Jits_Phase_8,2,1,48,77,1884550988
1918,15,Jits_Phase_8,3,5,56,103,1884561928
1918,15,Jits_Phase_8,0,1,48,107,1885295700
1918,15,Jits_Phase_8,1,5,56,103,1885361624
1918,15,Jits_Phase_8,2,5,80,127,1885382048
1918,15,Jits_Phase_8,3,5,63,98,1885401488
1918,15,Jits_Phase_8,0,5,63,98,1886082384
1918,15,Jits_Phase_8,1,5,56,103,1886101836
1918,15,Jits_Phase_8,2,1,48,67,1886124248
1918,15,Jits_Phase_8,3,5,80,127,1886141924
1918,15,Jits_Phase_8,0,5,63,98,1886892552
1918,15,Jits_Phase_8,1,5,80,127,1886922104
1918,15,Jits_Phase_8,2,5,56,103,1886941708
1918,15,Jits_Phase_8,3,1,48,88,1886959700
1918,15,Jits_Phase_8,0,5,80,127,1887661584
1918,15,Jits_Phase_8,1,5,56,103,1887711704
1918,15,Jits_Phase_8,2,5,63,98,1887771992
1918,15,Jits_Phase_8,3,1,48,87,1887784604
1918,15,Jits_Phase_8,0,5,63,98,1888451804
1918,15,Jits_Phase_8,1,5,56,103,1888571704
1918,15,Jits_Phase_8,2,1,48,84,1888584764
1918,15,Jits_Phase_8,3,5,80,127,1888601544
1918,15,Jits_Phase_8,0,5,80,127,1889291672
1918,15,Jits_Phase_8,1,5,63,98,1889312320
1918,15,Jits_Phase_8,2,1,48,88,1889372356
1918,15,Jits_Phase_8,3,5,56,103,1889381676
1918,15,Jits_Phase_8,0,5,63,98,1890111808
1918,15,Jits_Phase_8,1,5,56,103,1890122136
1918,15,Jits_Phase_8,2,1,48,100,1890157880
1918,15,Jits_Phase_8,3,5,80,127,1890202040
1918,15,Jits_Phase_8,0,5,56,103,1890971912
1918,15,Jits_Phase_8,1,1,48,65,1890989320
1918,15,Jits_Phase_8,2,5,80,127,1891001604
1918,15,Jits_Phase_8,3,5,63,98,1891011936
1918,15,Jits_Phase_8,0,9999,9999,9999,1756109892
1918,15,Jits_Phase_8,1,9999,9999,9999,1756909676
1918,15,Jits_Phase_8,2,9999,9999,9999,1757709408
1918,15,Jits_Phase_8,3,9999,9999,9999,1758509124
1918,15,Jits_Phase_8,4,9999,9999,9999,1759309896
1918,15,Jits_Phase_8,5,9999,9999,9999,1760109688
1918,15,Jits_Phase_8,6,9999,9999,9999,1760909436
1918,15,Jits_Phase_8,7,9999,9999,9999,1761709156
1918,15,Jits_Phase_8,8,9999,9999,9999,1762509940
1918,15,Jits_Phase_8,9,9999,9999,9999,1763309652
1918,15,Jits_Phase_8,10,9999,9999,9999,1764109376
1918,15,Jits_Phase_8,11,9999,9999,9999,1764909180
1918,15,Jits_Phase_8,12,9999,9999,9999,1765709880
1918,15,Jits_Phase_8,13,9999,9999,9999,1766509680
1918,15,Jits_Phase_8,14,9999,9999,9999,1767309408
1918,15,Jits_Phase_8,15,9999,9999,9999,1768109116
1918,15,Jits_Phase_8,16,9999,9999,9999,1768909920
1918,15,Jits_Phase_8,17,9999,9999,9999,1769709656
1918,15,Jits_Phase_8,18,9999,9999,9999,1770509376
1918,15,Jits_Phase_8,19,9999,9999,9999,1771309180
1918,15,Jits_Phase_8,20,9999,9999,9999,1772109936
1918,15,Jits_Phase_8,21,9999,9999,9999,1772909672
1918,15,Jits_Phase_8,22,9999,9999,9999,1773709392
1918,15,Jits_Phase_8,23,9999,9999,9999,1774509120
1918,15,Jits_Phase_8,24,9999,9999,9999,1775309880
1918,15,Jits_Phase_8,25,9999,9999,9999,1776109668
1918,15,Jits_Phase_8,26,9999,9999,9999,1776909396
1918,15,Jits_Phase_8,27,9999,9999,9999,1777709128
1918,15,Jits_Phase_8,28,9999,9999,9999,1778509896
1918,15,Jits_Phase_8,29,9999,9999,9999,1779309656
1918,15,Jits_Phase_8,30,9999,9999,9999,1780089924
1918,15,Jits_Phase_8,31,9999,9999,9999,1780889716
1918,15,Jits_Phase_8,32,9999,9999,9999,1781689448
1918,15,Jits_Phase_8,33,9999,9999,9999,1782489144
1918,15,Jits_Phase_8,34,9999,9999,9999,1783289984
1918,15,Jits_Phase_8,35,9999,9999,9999,1784089692
1918,15,Jits_Phase_8,36,9999,9999,9999,1784889400
1918,15,Jits_Phase_8,37,9999,9999,9999,1785689176
1918,15,Jits_Phase_8,38,9999,9999,9999,1786489944
1918,15,Jits_Phase_8,39,9999,9999,9999,1787289664
1918,15,Jits_Phase_8,40,9999,9999,9999,1788089448
1918,15,Jits_Phase_8,41,9999,9999,9999,1788889168
1918,15,Jits_Phase_8,42,9999,9999,9999,1789689924
1918,15,Jits_Phase_8,43,9999,9999,9999,1790489708
1918,15,Jits_Phase_8,44,9999,9999,9999,1791289468
1918,15,Jits_Phase_8,45,9999,9999,9999,1792089176
1918,15,Jits_Phase_8,46,9999,9999,9999,1792889968
1918,15,Jits_Phase_8,47,9999,9999,9999,1793689664
1918,15,Jits_Phase_8,48,9999,9999,9999,1794509932
1918,15,Jits_Phase_8,49,9999,9999,9999,1795309660
1918,15,Jits_Phase_8,50,9999,9999,9999,1796109388
1918,15,Jits_Phase_8,51,9999,9999,9999,1796909120
1918,15,Jits_Phase_8,52,9999,9999,9999,1797709928
1918,15,Jits_Phase_8,53,9999,9999,9999,1798509664
1918,15,Jits_Phase_8,54,9999,9999,9999,1799309388
1918,15,Jits_Phase_8,55,9999,9999,9999,1800109168
1918,15,Jits_Phase_8,56,9999,9999,9999,1800909920
1918,15,Jits_Phase_8,57,9999,9999,9999,1801709640
1918,15,Jits_Phase_8,58,9999,9999,9999,1802509432
1918,15,Jits_Phase_8,59,9999,9999,9999,1803309152
1918,15,Jits_Phase_8,60,9999,9999,9999,1804109912
1918,15,Jits_Phase_8,61,9999,9999,9999,1804909668
1918,15,Jits_Phase_8,62,9999,9999,9999,1805709384
1918,15,Jits_Phase_8,63,9999,9999,9999,1806509164
1918,15,Jits_Phase_8,64,9999,9999,9999,1807349860
1918,15,Jits_Phase_8,65,9999,9999,9999,1808149568
1918,15,Jits_Phase_8,66,9999,9999,9999,1808949364
1918,15,Jits_Phase_8,67,9999,9999,9999,1809750116
1918,15,Jits_Phase_8,68,9999,9999,9999,1810560104
1918,15,Jits_Phase_8,69,9999,9999,9999,1811370068
1918,15,Jits_Phase_8,70,9999,9999,9999,1812169792
1918,15,Jits_Phase_8,71,9999,9999,9999,1812969528
1918,15,Jits_Phase_8,72,9999,9999,9999,1813769328
1918,15,Jits_Phase_8,73,9999,9999,9999,1814570076
1918,15,Jits_Phase_8,74,9999,9999,9999,1815369788
1918,15,Jits_Phase_8,75,9999,9999,9999,1816169596
1918,15,Jits_Phase_8,76,9999,9999,9999,1816969336
1918,15,Jits_Phase_8,77,9999,9999,9999,1817770104
1918,15,Jits_Phase_8,78,9999,9999,9999,1818569816
1918,15,Jits_Phase_8,79,9999,9999,9999,1819369548
1918,15,Jits_Phase_8,80,9999,9999,9999,1820169276
1918,15,Jits_Phase_8,81,9999,9999,9999,1820929088
1918,15,Jits_Phase_8,82,9999,9999,9999,1821729908
1918,15,Jits_Phase_8,83,9999,9999,9999,1822529620
1918,15,Jits_Phase_8,84,9999,9999,9999,1823329332
1918,15,Jits_Phase_8,85,9999,9999,9999,1824129084
1918,15,Jits_Phase_8,86,9999,9999,9999,1824929856
1918,15,Jits_Phase_8,87,9999,9999,9999,1825729640
1918,15,Jits_Phase_8,88,9999,9999,9999,1826529348
1918,15,Jits_Phase_8,89,9999,9999,9999,1827329144
1918,15,Jits_Phase_8,90,9999,9999,9999,1828129852
1918,15,Jits_Phase_8,91,9999,9999,9999,1828929624
1918,15,Jits_Phase_8,92,9999,9999,9999,1829729344
1918,15,Jits_Phase_8,93,9999,9999,9999,1830529140
1918,15,Jits_Phase_8,94,9999,9999,9999,1831329888
1918,15,Jits_Phase_8,95,9999,9999,9999,1832129592
1918,15,Jits_Phase_8,96,9999,9999,9999,1832929368
1918,15,Jits_Phase_8,97,9999,9999,9999,1833649224
1918,15,Jits_Phase_8,98,9999,9999,9999,1834450000
1918,15,Jits_Phase_8,99,9999,9999,9999,1835249732
1918,15,Jits_Phase_8,100,9999,9999,9999,1836049504
1918,15,Jits_Phase_8,101,9999,9999,9999,1836849232
1918,15,Jits_Phase_8,102,9999,9999,9999,1837650000
1918,15,Jits_Phase_8,103,9999,9999,9999,1838449752
1918,15,Jits_Phase_8,104,9999,9999,9999,1839249480
1918,15,Jits_Phase_8,105,9999,9999,9999,1840049268
1918,15,Jits_Phase_8,106,9999,9999,9999,1840850032
1918,15,Jits_Phase_8,107,9999,9999,9999,1841649720
1918,15,Jits_Phase_8,108,9999,9999,9999,1842449504
1918,15,Jits_Phase_8,109,9999,9999,9999,1843249228
1918,15,Jits_Phase_8,110,9999,9999,9999,1844050000
1918,15,Jits_Phase_8,111,9999,9999,9999,1844849756
1918,15,Jits_Phase_8,112,9999,9999,9999,1845649480
1918,15,Jits_Phase_8,113,9999,9999,9999,1846449208
1918,15,Jits_Phase_8,114,9999,9999,9999,1847329856
1918,15,Jits_Phase_8,115,9999,9999,9999,1848129644
1918,15,Jits_Phase_8,116,9999,9999,9999,1848929372
1918,15,Jits_Phase_8,117,9999,9999,9999,1849729100
1918,15,Jits_Phase_8,118,9999,9999,9999,1850529852
1918,15,Jits_Phase_8,119,9999,9999,9999,1851329624
1918,15,Jits_Phase_8,120,9999,9999,9999,1852129352
1918,15,Jits_Phase_8,121,9999,9999,9999,1852929080
1918,15,Jits_Phase_8,122,9999,9999,9999,1853729920
1918,15,Jits_Phase_8,123,9999,9999,9999,1854529612
1918,15,Jits_Phase_8,124,9999,9999,9999,1855329336
1918,15,Jits_Phase_8,125,9999,9999,9999,1856129124
1918,15,Jits_Phase_8,126,9999,9999,9999,1856929892
1918,15,Jits_Phase_8,127,9999,9999,9999,1857729624
1918,15,Jits_Phase_8,128,9999,9999,9999,1858529352
1918,15,Jits_Phase_8,129,9999,9999,9999,1859329080
1918,15,Jits_Phase_8,130,9999,9999,9999,1860129860
1918,15,Jits_Phase_8,131,9999,9999,9999,1861089364
1918,15,Jits_Phase_8,132,9999,9999,9999,1861889088
1918,15,Jits_Phase_8,133,9999,9999,9999,1862689868
1918,15,Jits_Phase_8,134,9999,9999,9999,1863489644
1918,15,Jits_Phase_8,135,9999,9999,9999,1864289340
1918,15,Jits_Phase_8,136,9999,9999,9999,1865089148
1918,15,Jits_Phase_8,137,9999,9999,9999,1865889844
1918,15,Jits_Phase_8,138,9999,9999,9999,1866689640
1918,15,Jits_Phase_8,139,9999,9999,9999,1867489360
1918,15,Jits_Phase_8,140,9999,9999,9999,1868289140
1918,15,Jits_Phase_8,141,9999,9999,9999,1869089888
1918,15,Jits_Phase_8,142,9999,9999,9999,1869889608
1918,15,Jits_Phase_8,143,9999,9999,9999,1870689396
1918,15,Jits_Phase_8,144,9999,9999,9999,1871489128
1918,15,Jits_Phase_8,145,9999,9999,9999,1872289880
1918,15,Jits_Phase_8,146,9999,9999,9999,1873089604
1918,15,Jits_Phase_8,147,9999,9999,9999,1873889388
1918,15,Jits_Phase_8,148,9999,9999,9999,1874689112
1918,15,Jits_Phase_8,149,9999,9999,9999,1875489856
1918,15,Jits_Phase_8,150,9999,9999,9999,1876129896
1918,15,Jits_Phase_8,151,9999,9999,9999,1876929612
1918,15,Jits_Phase_8,152,9999,9999,9999,1877729332
1918,15,Jits_Phase_8,153,9999,9999,9999,1878529144
1918,15,Jits_Phase_8,154,9999,9999,9999,1879329904
1918,15,Jits_Phase_8,155,9999,9999,9999,1880129596
1918,15,Jits_Phase_8,156,9999,9999,9999,1880929388
1918,15,Jits_Phase_8,157,9999,9999,9999,1881729120
1918,15,Jits_Phase_8,158,9999,9999,9999,1882529876
1918,15,Jits_Phase_8,159,9999,9999,9999,1883329604
1918,15,Jits_Phase_8,160,9999,9999,9999,1884129404
1918,15,Jits_Phase_8,161,9999,9999,9999,1884929108
1918,15,Jits_Phase_8,162,9999,9999,9999,1885729864
1918,15,Jits_Phase_8,163,9999,9999,9999,1886529592
1918,15,Jits_Phase_8,164,9999,9999,9999,1887329368
1918,15,Jits_Phase_8,165,9999,9999,9999,1888129092
1918,15,Jits_Phase_8,166,9999,9999,9999,1888929856
1918,15,Jits_Phase_8,167,9999,9999,9999,1889729632
1918,15,Jits_Phase_8,168,9999,9999,9999,1890529352
1918,15,Jits_Phase_8,169,9999,9999,9999,1891329080
1919,5,ISIP_5,0,5,42,127,1945836892
1919,5,ISIP_5,1,5,42,127,1946336960
1919,5,ISIP_5,2,1,48,59,1946667612
1919,5,ISIP_5,3,5,42,127,1946837308
1919,5,ISIP_5,4,1,48,95,1947288732
1919,5,ISIP_5,5,5,42,127,1947337000
1919,5,ISIP_5,6,1,48,104,1947828356
1919,5,ISIP_5,7,5,42,127,1947836676
1919,5,ISIP_5,8,1,48,114,1948308620
1919,5,ISIP_5,9,5,42,127,1948336576
1919,5,ISIP_5,10,1,48,106,1948799924
1919,5,ISIP_5,11,5,42,127,1948837148
1919,5,ISIP_5,12,1,48,102,1949309388
1919,5,ISIP_5,13,5,42,127,1949336900
1919,5,ISIP_5,14,1,48,110,1949831392
1919,5,ISIP_5,15,5,42,127,1949836724
1919,5,ISIP_5,16,1,48,111,1950327704
1919,5,ISIP_5,17,5,42,127,1950337596
1919,5,ISIP_5,18,1,48,110,1950834472
1919,5,ISIP_5,19,5,42,127,1950837048
1919,5,ISIP_5,20,1,48,105,1951335144
1919,5,ISIP_5,21,5,42,127,1951336800
1919,5,ISIP_5,22,1,48,88,1951833576
1919,5,ISIP_5,23,5,42,127,1951836376
1919,5,ISIP_5,24,1,48,87,1952325412
1919,5,ISIP_5,25,5,42,127,1952337396
1919,5,ISIP_5,26,1,48,106,1952821132
1919,5,ISIP_5,27,5,42,127,1952837072
1919,5,ISIP_5,28,1,48,114,1953321112
1919,5,ISIP_5,29,5,42,127,1953336672
1919,5,ISIP_5,30,1,48,86,1953826756
1919,5,ISIP_5,31,5,42,127,1953837320
1919,5,ISIP_5,32,5,42,127,1954337376
1919,5,ISIP_5,33,1,48,80,1954346016
1919,5,ISIP_5,34,5,42,127,1954836976
1919,5,ISIP_5,35,1,48,107,1954843300
1919,5,ISIP_5,36,5,42,127,1955336580
1919,5,ISIP_5,37,1,48,106,1955359404
1919,5,ISIP_5,38,5,42,127,1955837372
1919,5,ISIP_5,39,1,48,93,1955869836
1919,5,ISIP_5,40,5,42,127,1956336976
1919,5,ISIP_5,41,1,48,114,1956373844
1919,5,ISIP_5,42,5,42,127,1956836804
1919,5,ISIP_5,43,1,48,114,1956850520
1919,5,ISIP_5,44,5,42,127,1957336552
1919,5,ISIP_5,45,1,48,86,1957349676
1919,5,ISIP_5,46,1,38,19,1957359584
1919,5,ISIP_5,47,1,48,98,1957836932
1919,5,ISIP_5,48,5,42,127,1957838564
1919,5,ISIP_5,49,1,48,89,1958328576
1919,5,ISIP_5,50,5,42,127,1958336824
1919,5,ISIP_5,51,1,48,105,1958829152
1919,5,ISIP_5,52,5,42,127,1958836724
1919,5,ISIP_5,53,1,48,84,1959333156
1919,5,ISIP_5,54,5,42,127,1959337372
1919,5,ISIP_5,55,1,38,19,1959343548
1919,5,ISIP_5,56,5,42,127,1959837096
1919,5,ISIP_5,57,1,48,94,1959855144
1919,5,ISIP_5,58,1,48,97,1960327324
1919,5,ISIP_5,59,5,42,127,1960336616
1919,5,ISIP_5,60,1,48,81,1960832452
1919,5,ISIP_5,61,5,42,127,1960836592
1919,5,ISIP_5,62,1,48,104,1961337392
1919,5,ISIP_5,63,5,42,127,1961338956
1919,5,ISIP_5,64,5,42,127,1961836996
1919,5,ISIP_5,65,1,48,91,1961840112
1919,5,ISIP_5,66,5,42,127,1962336524
1919,5,ISIP_5,67,1,48,116,1962337488
1919,5,ISIP_5,68,1,48,111,1962826424
1919,5,ISIP_5,69,5,42,127,1962837288
1919,5,ISIP_5,70,1,48,93,1963336824
1919,5,ISIP_5,71,5,42,127,1963338456
1919,5,ISIP_5,72,1,48,119,1963833396
1919,5,ISIP_5,73,5,42,127,1963836936
1919,5,ISIP_5,74,1,48,96,1964332624
1919,5,ISIP_5,75,5,42,127,1964336468
1919,5,ISIP_5,76,1,48,113,1964825208
1919,5,ISIP_5,77,5,42,127,1964837192
1919,5,ISIP_5,78,1,48,95,1965323092
1919,5,ISIP_5,79,5,42,127,1965336868
1919,5,ISIP_5,80,1,48,105,1965827028
1919,5,ISIP_5,81,1,48,100,1966309300
1919,5,ISIP_5,82,1,48,89,1966778284
1919,5,ISIP_5,83,1,38,20,1966788272
1919,5,ISIP_5,84,1,48,119,1967275668
1919,5,ISIP_5,85,1,48,127,1967766004
1919,5,ISIP_5,86,1,48,93,1968254552
1919,5,ISIP_5,87,1,38,21,1968264316
1919,5,ISIP_5,88,1,48,126,1968751716
1919,5,ISIP_5,89,1,48,119,1969237620
1919,5,ISIP_5,90,1,48,90,1969710412
1919,5,ISIP_5,91,1,48,76,1970191416
1919,5,ISIP_5,92,1,48,113,1970696316
1919,5,ISIP_5,93,1,48,100,1971189264
1919,5,ISIP_5,94,1,48,110,1971671684
1919,5,ISIP_5,95,1,48,120,1972152468
1919,5,ISIP_5,96,1,48,127,1972651464
1919,5,ISIP_5,97,1,48,116,1973142924
1919,5,ISIP_5,98,1,48,100,1973645956
1919,5,ISIP_5,99,1,48,94,1974127784
1919,5,ISIP_5,100,1,38,21,1974137616
1919,5,ISIP_5,101,1,48,113,1974633756
1919,5,ISIP_5,102,1,48,123,1975137460
1919,5,ISIP_5,103,1,48,112,1975617388
1919,5,ISIP_5,104,1,48,113,1976112436
1919,5,ISIP_5,105,1,48,111,1976615240
1919,5,ISIP_5,106,1,48,124,1977106172
1919,5,ISIP_5,107,1,48,98,1977604652
1919,5,ISIP_5,108,1,38,21,1977614936
1919,5,ISIP_5,109,1,48,95,1978093372
1919,5,ISIP_5,110,1,38,21,1978103360
1919,5,ISIP_5,111,1,48,105,1978585308
1919,5,ISIP_5,112,1,48,106,1979075944
1919,5,ISIP_5,113,1,48,127,1979577556
1919,5,ISIP_5,114,1,48,90,1980072152
1919,5,ISIP_5,115,1,38,21,1980082132
1919,5,ISIP_5,116,1,48,101,1980570880
1919,5,ISIP_5,117,1,38,21,1980581016
1919,5,ISIP_5,118,1,48,105,1981057732
1919,5,ISIP_5,119,1,48,115,1981552180
1919,5,ISIP_5,120,1,48,97,1982043240
1919,5,ISIP_5,121,1,38,22,1982054156
1919,5,ISIP_5,122,1,48,102,1982533912
1919,5,ISIP_5,123,1,48,108,1983017676
1919,5,ISIP_5,124,1,48,123,1983518544
1919,5,ISIP_5,125,1,48,126,1984010600
1919,5,ISIP_5,126,1,48,122,1984484508
1919,5,ISIP_5,127,1,48,112,1984986044
1919,5,ISIP_5,128,1,48,124,1985489380
1919,5,ISIP_5,129,1,48,116,1985980164
1919,5,ISIP_5,130,1,48,91,1986482004
1919,5,ISIP_5,131,1,48,121,1986955840
1919,5,ISIP_5,132,1,48,110,1987453644
1919,5,ISIP_5,133,1,48,117,1987942788
1919,5,ISIP_5,134,1,48,127,1988441240
1919,5,ISIP_5,135,1,48,97,1988927844
1919,5,ISIP_5,136,1,38,21,1988938280
1919,5,ISIP_5,137,1,48,112,1989426496
1919,5,ISIP_5,138,1,48,120,1989919148
1919,5,ISIP_5,139,1,48,126,1990425616
1919,5,ISIP_5,140,1,48,102,1990908560
1919,5,ISIP_5,141,1,48,109,1991392748
1919,5,ISIP_5,142,1,48,120,1991898396
1919,5,ISIP_5,143,1,48,114,1992394704
1919,5,ISIP_5,144,1,48,105,1992881084
1919,5,ISIP_5,145,1,48,114,1993391216
1919,5,ISIP_5,146,1,48,102,1993879688
1919,5,ISIP_5,147,1,48,108,1994381748
1919,5,ISIP_5,148,1,48,97,1994871412
1919,5,ISIP_5,149,1,38,21,1994881252
1919,5,ISIP_5,150,1,48,112,1995360436
1919,5,ISIP_5,151,1,48,116,1995863516
1919,5,ISIP_5,152,1,48,115,1996354824
1919,5,ISIP_5,153,1,48,107,1996845608
1919,5,ISIP_5,154,1,48,127,1997345132
1919,5,ISIP_5,155,1,48,111,1997834260
1919,5,ISIP_5,156,1,48,127,1998325944
1919,5,ISIP_5,157,1,48,124,1998827104
1919,5,ISIP_5,158,1,48,106,1999332828
1919,5,ISIP_5,159,1,48,127,1999824728
1919,5,ISIP_5,160,1,48,127,2000314624
1919,5,ISIP_5,161,1,48,116,2000824524
1919,5,ISIP_5,162,1,48,127,2001328676
1919,5,ISIP_5,163,1,48,113,2001844040
1919,5,ISIP_5,164,1,48,81,2002347596
1919,5,ISIP_5,165,1,38,20,2002357584
1919,5,ISIP_5,166,1,48,124,2002854240
1919,5,ISIP_5,167,1,48,127,2003349808
1919,5,ISIP_5,168,1,48,127,2003857092
1919,5,ISIP_5,169,1,48,115,2004358264
1919,5,ISIP_5,170,1,48,127,2004861664
1919,5,ISIP_5,171,1,48,117,2005363056
1919,5,ISIP_5,172,1,48,114,2005858472
1919,5,ISIP_5,173,1,48,108,2006359908
1919,5,ISIP_5,174,1,48,109,2006847404
1919,5,ISIP_5,175,1,48,127,2007334148
1919,5,ISIP_5,176,1,48,127,2007827920
1919,5,ISIP_5,177,1,48,127,2008326548
1919,5,ISIP_5,178,1,48,115,2008828604
1919,5,ISIP_5,179,1,48,121,2009329024
1919,5,ISIP_5,180,1,48,127,2009826532
1919,5,ISIP_5,181,1,48,117,2010316792
1919,5,ISIP_5,182,1,48,113,2010831324
1919,5,ISIP_5,183,1,48,127,2011345272
1919,5,ISIP_5,184,1,48,126,2011820736
1919,5,ISIP_5,185,1,48,124,2012325264
1919,5,ISIP_5,186,1,48,114,2012831580
1919,5,ISIP_5,187,1,48,114,2013322368
1919,5,ISIP_5,188,1,48,115,2013834524
1919,5,ISIP_5,189,1,48,113,2014310208
1919,5,ISIP_5,190,1,48,121,2014808440
1919,5,ISIP_5,191,1,48,111,2015296456
1919,5,ISIP_5,192,1,48,127,2015795460
1919,5,ISIP_5,193,1,48,119,2016302524
1919,5,ISIP_5,194,1,48,115,2016804884
1919,5,ISIP_5,195,1,48,119,2017303208
1919,5,ISIP_5,196,1,48,116,2017799896
1919,5,ISIP_5,197,1,48,83,2018309428
1919,5,ISIP_5,198,1,38,19,2018319260
1919,5,ISIP_5,199,1,48,125,2018801808
1919,5,ISIP_5,200,1,48,127,2019301848
1919,5,ISIP_5,201,1,48,127,2019800400
1919,5,ISIP_5,202,1,48,122,2020306048
1919,5,ISIP_5,203,1,48,127,2020797428
1919,5,ISIP_5,204,1,48,113,2021297096
1919,5,ISIP_5,205,1,48,105,2021792820
1919,5,ISIP_5,206,1,48,122,2022282928
1919,5,ISIP_5,207,1,48,118,2022784468
1919,5,ISIP_5,208,1,48,127,2023280556
1919,5,ISIP_5,209,1,48,92,2023792176
1919,5,ISIP_5,210,1,48,109,2024303568
1919,5,ISIP_5,211,1,48,123,2024792096
1919,5,ISIP_5,212,1,48,114,2025286688
1919,5,ISIP_5,213,1,48,88,2025800100
1919,5,ISIP_5,214,1,38,20,2025810012
1919,5,ISIP_5,0,9999,9999,9999,1945834608
1919,5,ISIP_5,1,9999,9999,9999,1946334304
1919,5,ISIP_5,2,9999,9999,9999,1946835024
1919,5,ISIP_5,3,9999,9999,9999,1947334716
1919,5,ISIP_5,4,9999,9999,9999,1947834468
1919,5,ISIP_5,5,9999,9999,9999,1948334144
1919,5,ISIP_5,6,9999,9999,9999,1948834864
1919,5,ISIP_5,7,9999,9999,9999,1949334616
1919,5,ISIP_5,8,9999,9999,9999,1949834292
1919,5,ISIP_5,9,9999,9999,9999,1950335088
1919,5,ISIP_5,10,9999,9999,9999,1950834764
1919,5,ISIP_5,11,9999,9999,9999,1951334452
1919,5,ISIP_5,12,9999,9999,9999,1951834164
1919,5,ISIP_5,13,9999,9999,9999,1952334964
1919,5,ISIP_5,14,9999,9999,9999,1952834640
1919,5,ISIP_5,15,9999,9999,9999,1953334388
1919,5,ISIP_5,16,9999,9999,9999,1953835112
1919,5,ISIP_5,17,9999,9999,9999,1954334792
1919,5,ISIP_5,18,9999,9999,9999,1954834544
1919,5,ISIP_5,19,9999,9999,9999,1955334220
1919,5,ISIP_5,20,9999,9999,9999,1955834940
1919,5,ISIP_5,21,9999,9999,9999,1956334692
1919,5,ISIP_5,22,9999,9999,9999,1956834372
1919,5,ISIP_5,23,9999,9999,9999,1957334120
1919,5,ISIP_5,24,9999,9999,9999,1957834868
1919,5,ISIP_5,25,9999,9999,9999,1958334540
1919,5,ISIP_5,26,9999,9999,9999,1958834292
1919,5,ISIP_5,27,9999,9999,9999,1959335012
1919,5,ISIP_5,28,9999,9999,9999,1959834736
1919,5,ISIP_5,29,9999,9999,9999,1960334408
1919,5,ISIP_5,30,9999,9999,9999,1960834160
1919,5,ISIP_5,31,9999,9999,9999,1961334884
1919,5,ISIP_5,32,9999,9999,9999,1961834564
1919,5,ISIP_5,33,9999,9999,9999,1962334316
1919,5,ISIP_5,34,9999,9999,9999,1962835004
1919,5,ISIP_5,35,9999,9999,9999,1963334760
1919,5,ISIP_5,36,9999,9999,9999,1963834432
1919,5,ISIP_5,37,9999,9999,9999,1964334184
1919,5,ISIP_5,38,9999,9999,9999,1964834908
1919,5,ISIP_5,39,9999,9999,9999,1965334584
1919,5,ISIP_5,40,9999,9999,9999,1965834340
1919,5,ISIP_5,41,9999,9999,9999,1966335056
1919,5,ISIP_5,42,9999,9999,9999,1966834784
1919,5,ISIP_5,43,9999,9999,9999,1967334500
1919,5,ISIP_5,44,9999,9999,9999,1967834172
1919,5,ISIP_5,45,9999,9999,9999,1968334944
1919,5,ISIP_5,46,9999,9999,9999,1968834664
1919,5,ISIP_5,47,9999,9999,9999,1969334336
1919,5,ISIP_5,48,9999,9999,9999,1969835112
1919,5,ISIP_5,49,9999,9999,9999,1970334784
1919,5,ISIP_5,50,9999,9999,9999,1970834528
1919,5,ISIP_5,51,9999,9999,9999,1971334200
1919,5,ISIP_5,52,9999,9999,9999,1971834992
1919,5,ISIP_5,53,9999,9999,9999,1972334664
1919,5,ISIP_5,54,9999,9999,9999,1972834412
1919,5,ISIP_5,55,9999,9999,9999,1973334132
1919,5,ISIP_5,56,9999,9999,9999,1973834852
1919,5,ISIP_5,57,9999,9999,9999,1974334548
1919,5,ISIP_5,58,9999,9999,9999,1974834296
1919,5,ISIP_5,59,9999,9999,9999,1975335012
1919,5,ISIP_5,60,9999,9999,9999,1975834684
1919,5,ISIP_5,61,9999,9999,9999,1976334432
1919,5,ISIP_5,62,9999,9999,9999,1976834104
1919,5,ISIP_5,63,9999,9999,9999,1977334892
1919,5,ISIP_5,64,9999,9999,9999,1977834592
1919,5,ISIP_5,65,9999,9999,9999,1978334292
1919,5,ISIP_5,66,9999,9999,9999,1978835008
1919,5,ISIP_5,67,9999,9999,9999,1979334756
1919,5,ISIP_5,68,9999,9999,9999,1979834428
1919,5,ISIP_5,69,9999,9999,9999,1980334200
1919,5,ISIP_5,70,9999,9999,9999,1980834872
1919,5,ISIP_5,71,9999,9999,9999,1981334616
1919,5,ISIP_5,72,9999,9999,9999,1981834288
1919,5,ISIP_5,73,9999,9999,9999,1982335044
1919,5,ISIP_5,74,9999,9999,9999,1982834788
1919,5,ISIP_5,75,9999,9999,9999,1983334460
1919,5,ISIP_5,76,9999,9999,9999,1983834180
1919,5,ISIP_5,77,9999,9999,9999,1984334900
1919,5,ISIP_5,78,9999,9999,9999,1984834648
1919,5,ISIP_5,79,9999,9999,9999,1985334392
1919,5,ISIP_5,80,9999,9999,9999,1985835112
1919,5,ISIP_5,81,9999,9999,9999,1986334784
1919,5,ISIP_5,82,9999,9999,9999,1986834528
1919,5,ISIP_5,83,9999,9999,9999,1987334204
1919,5,ISIP_5,84,9999,9999,9999,1987834992
1919,5,ISIP_5,85,9999,9999,9999,1988334664
1919,5,ISIP_5,86,9999,9999,9999,1988834412
1919,5,ISIP_5,87,9999,9999,9999,1989334108
1919,5,ISIP_5,88,9999,9999,9999,1989834828
1919,5,ISIP_5,89,9999,9999,9999,1990334572
1919,5,ISIP_5,90,9999,9999,9999,1990834244
1919,5,ISIP_5,91,9999,9999,9999,1991335012
1919,5,ISIP_5,92,9999,9999,9999,1991834680
1919,5,ISIP_5,93,9999,9999,9999,1992334428
1919,5,ISIP_5,94,9999,9999,9999,1992834100
1919,5,ISIP_5,95,9999,9999,9999,1993334892
1919,5,ISIP_5,96,9999,9999,9999,1993834568
1919,5,ISIP_5,97,9999,9999,9999,1994334312
1919,5,ISIP_5,98,9999,9999,9999,1994835004
1919,5,ISIP_5,99,9999,9999,9999,1995334704
1919,5,ISIP_5,100,9999,9999,9999,1995834452
1919,5,ISIP_5,101,9999,9999,9999,1996334196
1919,5,ISIP_5,102,9999,9999,9999,1996834912
1919,5,ISIP_5,103,9999,9999,9999,1997334584
1919,5,ISIP_5,104,9999,9999,9999,1997834324
1919,5,ISIP_5,105,9999,9999,9999,1998335040
1919,5,ISIP_5,106,9999,9999,9999,1998834788
1919,5,ISIP_5,107,9999,9999,9999,1999334460
1919,5,ISIP_5,108,9999,9999,9999,1999834204
1919,5,ISIP_5,109,9999,9999,9999,2000334924
1919,5,ISIP_5,110,9999,9999,9999,2000834668
1919,5,ISIP_5,111,9999,9999,9999,2001334340
1919,5,ISIP_5,112,9999,9999,9999,2001835064
1919,5,ISIP_5,113,9999,9999,9999,2002334812
1919,5,ISIP_5,114,9999,9999,9999,2002834508
1919,5,ISIP_5,115,9999,9999,9999,2003334256
1919,5,ISIP_5,116,9999,9999,9999,2003834972
1919,5,ISIP_5,117,9999,9999,9999,2004334644
1919,5,ISIP_5,118,9999,9999,9999,2004834392
1919,5,ISIP_5,119,9999,9999,9999,2005334112
1919,5,ISIP_5,120,9999,9999,9999,2005834832
1919,5,ISIP_5,121,9999,9999,9999,2006334576
1919,5,ISIP_5,122,9999,9999,9999,2006834248
1919,5,ISIP_5,123,9999,9999,9999,2007335032
1919,5,ISIP_5,124,9999,9999,9999,2007834704
1919,5,ISIP_5,125,9999,9999,9999,2008334452
1919,5,ISIP_5,126,9999,9999,9999,2008834124
1919,5,ISIP_5,127,9999,9999,9999,2009334840
1919,5,ISIP_5,128,9999,9999,9999,2009834584
1919,5,ISIP_5,129,9999,9999,9999,2010334260
1919,5,ISIP_5,130,9999,9999,9999,2010835048
1919,5,ISIP_5,131,9999,9999,9999,2011334728
1919,5,ISIP_5,132,9999,9999,9999,2011834468
1919,5,ISIP_5,133,9999,9999,9999,2012334140
1919,5,ISIP_5,134,9999,9999,9999,2012834932
1919,5,ISIP_5,135,9999,9999,9999,2013334604
1919,5,ISIP_5,136,9999,9999,9999,2013834312
1919,5,ISIP_5,137,9999,9999,9999,2014335068
1919,5,ISIP_5,138,9999,9999,9999,2014834736
1919,5,ISIP_5,139,9999,9999,9999,2015334484
1919,5,ISIP_5,140,9999,9999,9999,2015834228
1919,5,ISIP_5,141,9999,9999,9999,2016334920
1919,5,ISIP_5,142,9999,9999,9999,2016834668
1919,5,ISIP_5,143,9999,9999,9999,2017334340
1919,5,ISIP_5,144,9999,9999,9999,2017835060
1919,5,ISIP_5,145,9999,9999,9999,2018334784
1919,5,ISIP_5,146,9999,9999,9999,2018834500
1919,5,ISIP_5,147,9999,9999,9999,2019334248
1919,5,ISIP_5,148,9999,9999,9999,2019834964
1919,5,ISIP_5,149,9999,9999,9999,2020334708
1919,5,ISIP_5,150,9999,9999,9999,2020834384
1919,5,ISIP_5,151,9999,9999,9999,2021334128
1919,5,ISIP_5,152,9999,9999,9999,2021834844
1919,5,ISIP_5,153,9999,9999,9999,2022334520
1919,5,ISIP_5,154,9999,9999,9999,2022834264
1919,5,ISIP_5,155,9999,9999,9999,2023334984
1919,5,ISIP_5,156,9999,9999,9999,2023834728
1919,5,ISIP_5,157,9999,9999,9999,2024334400
1919,5,ISIP_5,158,9999,9999,9999,2024834148
1919,5,ISIP_5,159,9999,9999,9999,2025334864
1920,3,ISIP_8,0,5,42,127,2048054484
1920,3,ISIP_8,1,5,42,127,2048855508
1920,3,ISIP_8,2,1,48,102,2049637296
1920,3,ISIP_8,3,5,42,127,2049655180
1920,3,ISIP_8,4,1,48,105,2050407836
1920,3,ISIP_8,5,5,42,127,2050454840
1920,3,ISIP_8,6,5,42,127,2051254576
1920,3,ISIP_8,7,1,48,100,2051282852
1920,3,ISIP_8,8,5,42,127,2052055432
1920,3,ISIP_8,9,1,48,96,2052061312
1920,3,ISIP_8,10,1,48,110,2052841384
1920,3,ISIP_8,11,5,42,127,2052855156
1920,3,ISIP_8,12,1,48,100,2053634324
1920,3,ISIP_8,13,5,42,127,2053654816
1920,3,ISIP_8,14,5,42,127,2054454852
1920,3,ISIP_8,15,1,48,118,2054455816
1920,3,ISIP_8,16,1,48,120,2055247748
1920,3,ISIP_8,17,5,42,127,2055255796
1920,3,ISIP_8,18,1,48,101,2056038848
1920,3,ISIP_8,19,5,42,127,2056055084
1920,3,ISIP_8,20,1,48,123,2056836712
1920,3,ISIP_8,21,5,42,127,2056854816
1920,3,ISIP_8,22,1,48,114,2057640108
1920,3,ISIP_8,23,5,42,127,2057654772
1920,3,ISIP_8,24,1,48,101,2058433040
1920,3,ISIP_8,25,5,42,127,2058455476
1920,3,ISIP_8,26,1,48,114,2059238000
1920,3,ISIP_8,27,5,42,127,2059255132
1920,3,ISIP_8,28,1,48,109,2060049684
1920,3,ISIP_8,29,5,42,127,2060054868
1920,3,ISIP_8,30,1,48,124,2060841204
1920,3,ISIP_8,31,5,42,127,2060854524
1920,3,ISIP_8,32,1,48,118,2061647576
1920,3,ISIP_8,33,5,42,127,2061655328
1920,3,ISIP_8,34,1,48,107,2062442480
1920,3,ISIP_8,35,5,42,127,2062455432
1920,3,ISIP_8,36,1,48,95,2063230340
1920,3,ISIP_8,37,5,42,127,2063254792
1920,3,ISIP_8,38,1,48,99,2064003712
1920,3,ISIP_8,39,5,42,127,2064054672
1920,3,ISIP_8,40,1,48,116,2064807624
1920,3,ISIP_8,41,5,42,127,2064855380
1920,3,ISIP_8,42,1,48,118,2065618340
1920,3,ISIP_8,43,5,42,127,2065655408
1920,3,ISIP_8,44,1,48,118,2066414188
1920,3,ISIP_8,45,5,42,127,2066454992
1920,3,ISIP_8,46,1,48,103,2067190176
1920,3,ISIP_8,47,1,38,21,2067200092
1920,3,ISIP_8,48,5,42,127,2067254484
1920,3,ISIP_8,49,1,48,112,2067998076
1920,3,ISIP_8,50,5,42,127,2068055408
1920,3,ISIP_8,51,1,48,100,2068809756
1920,3,ISIP_8,52,5,42,127,2068855212
1920,3,ISIP_8,53,1,48,112,2069617648
1920,3,ISIP_8,54,5,42,127,2069654944
1920,3,ISIP_8,55,1,48,122,2070442252
1920,3,ISIP_8,56,5,42,127,2070454604
1920,3,ISIP_8,57,5,42,127,2071255316
1920,3,ISIP_8,58,1,48,108,2071258800
1920,3,ISIP_8,59,1,48,112,2072070848
1920,3,ISIP_8,60,1,48,111,2072860800
1920,3,ISIP_8,61,1,48,101,2073664708
1920,3,ISIP_8,62,1,48,114,2074479768
1920,3,ISIP_8,63,1,48,100,2075291216
1920,3,ISIP_8,64,1,48,120,2076067276
1920,3,ISIP_8,65,1,48,113,2076856772
1920,3,ISIP_8,66,1,48,116,2077648792
1920,3,ISIP_8,67,1,48,101,2078448680
1920,3,ISIP_8,68,1,48,123,2079253344
1920,3,ISIP_8,69,1,48,116,2080038348
1920,3,ISIP_8,70,1,48,124,2080832552
1920,3,ISIP_8,71,1,48,125,2081606964
1920,3,ISIP_8,72,1,48,97,2082405972
1920,3,ISIP_8,73,1,48,111,2083181732
1920,3,ISIP_8,74,1,48,104,2083980488
1920,3,ISIP_8,75,1,48,116,2084773048
1920,3,ISIP_8,76,1,48,121,2085537452
1920,3,ISIP_8,77,1,48,116,2086307016
1920,3,ISIP_8,78,1,48,116,2087102712
1920,3,ISIP_8,79,1,48,127,2087883176
1920,3,ISIP_8,80,1,48,116,2088654600
1920,3,ISIP_8,81,1,48,118,2089430064
1920,3,ISIP_8,82,1,48,105,2090176100
1920,3,ISIP_8,83,1,48,76,2091011672
1920,3,ISIP_8,84,1,48,102,2091753304
1920,3,ISIP_8,85,1,48,112,2092490984
1920,3,ISIP_8,86,1,48,108,2093262408
1920,3,ISIP_8,87,1,48,104,2094069600
1920,3,ISIP_8,88,1,48,116,2094833264
1920,3,ISIP_8,89,1,48,113,2095646356
1920,3,ISIP_8,90,1,48,121,2096434960
1920,3,ISIP_8,91,1,48,85,2097206760
1920,3,ISIP_8,92,1,48,102,2097977892
1920,3,ISIP_8,93,1,48,116,2098756408
1920,3,ISIP_8,94,1,48,104,2099534116
1920,3,ISIP_8,95,1,48,92,2100325876
1920,3,ISIP_8,96,1,48,108,2101115376
1920,3,ISIP_8,97,1,48,95,2101860148
1920,3,ISIP_8,98,1,38,20,2101870432
1920,3,ISIP_8,99,1,48,111,2102665652
1920,3,ISIP_8,100,1,48,119,2103451564
1920,3,ISIP_8,101,1,48,100,2104220832
1920,3,ISIP_8,102,1,38,20,2104231264
1920,3,ISIP_8,103,1,48,112,2105043212
1920,3,ISIP_8,104,1,48,103,2105833452
1920,3,ISIP_8,105,1,48,111,2106634308
1920,3,ISIP_8,106,1,48,119,2107426268
1920,3,ISIP_8,107,1,48,78,2108202472
1920,3,ISIP_8,108,1,38,19,2108212388
1920,3,ISIP_8,109,1,48,117,2108995136
1920,3,ISIP_8,110,1,48,97,2109742444
1920,3,ISIP_8,111,1,48,96,2110536644
1920,3,ISIP_8,112,1,48,114,2111332288
1920,3,ISIP_8,113,1,48,93,2112085128
1920,3,ISIP_8,114,1,48,95,2112899940
1920,3,ISIP_8,115,1,48,120,2113659420
1920,3,ISIP_8,116,1,48,102,2114471320
1920,3,ISIP_8,117,1,48,103,2115275904
1920,3,ISIP_8,118,1,48,106,2116080412
1920,3,ISIP_8,119,1,48,117,2116862072
1920,3,ISIP_8,120,1,48,84,2117680168
1920,3,ISIP_8,121,1,38,19,2117690224
1920,3,ISIP_8,122,1,48,107,2118447128
1920,3,ISIP_8,123,1,48,87,2119262500
1920,3,ISIP_8,124,1,48,104,2120079324
1920,3,ISIP_8,125,1,48,83,2120886672
1920,3,ISIP_8,126,1,38,19,2120896812
1920,3,ISIP_8,127,1,48,116,2121717416
1920,3,ISIP_8,128,1,48,121,2122547216
1920,3,ISIP_8,129,1,48,109,2123331932
1920,3,ISIP_8,130,1,48,117,2124190600
1920,3,ISIP_8,131,1,48,103,2125019972
1920,3,ISIP_8,132,1,48,114,2125841804
1920,3,ISIP_8,133,1,48,104,2126620400
1920,3,ISIP_8,134,1,48,111,2127429312
1920,3,ISIP_8,135,1,48,101,2128263344
1920,3,ISIP_8,136,1,48,103,2129100256
1920,3,ISIP_8,137,1,48,94,2129867056
1920,3,ISIP_8,138,1,48,124,2130658192
1920,3,ISIP_8,139,1,48,126,2131465468
1920,3,ISIP_8,140,1,48,116,2132278412
1920,3,ISIP_8,141,1,48,127,2133115644
1920,3,ISIP_8,142,1,48,110,2133857360
1920,3,ISIP_8,143,1,48,100,2134642672
1920,3,ISIP_8,144,1,48,76,2135462636
1920,3,ISIP_8,145,1,38,19,2135472028
1920,3,ISIP_8,146,1,48,87,2136242008
1920,3,ISIP_8,147,1,38,19,2136252596
1920,3,ISIP_8,148,1,48,110,2137025260
1920,3,ISIP_8,149,1,48,108,2137826932
1920,3,ISIP_8,150,1,48,95,2138622552
1920,3,ISIP_8,151,1,48,127,2139399584
1920,3,ISIP_8,152,1,48,113,2140202220
1920,3,ISIP_8,153,1,48,104,2141042896
1920,3,ISIP_8,154,1,48,105,2141831348
1920,3,ISIP_8,155,1,48,100,2142596204
1920,3,ISIP_8,156,1,48,111,2143444244
1920,3,ISIP_8,157,1,48,109,2144220896
1920,3,ISIP_8,158,1,48,107,2145037504
1920,3,ISIP_8,159,1,48,105,2145835364
1920,3,ISIP_8,160,1,48,96,2146633668
1920,3,ISIP_8,161,1,48,105,2147445072
1920,3,ISIP_8,162,1,48,92,2148245548
1920,3,ISIP_8,163,1,48,113,2149076712
1920,3,ISIP_8,164,1,48,117,2149908252
1920,3,ISIP_8,165,1,48,93,2150706560
1920,3,ISIP_8,166,1,48,105,2151528416
1920,3,ISIP_8,167,1,48,100,2152300744
1920,3,ISIP_8,168,1,48,106,2153112644
1920,3,ISIP_8,169,1,48,105,2153963744
1920,3,ISIP_8,170,1,48,122,2154795136
1920,3,ISIP_8,171,1,48,106,2155596800
1920,3,ISIP_8,172,1,48,127,2156426872
1920,3,ISIP_8,173,1,48,122,2157231380
1920,3,ISIP_8,174,1,48,114,2158040888
1920,3,ISIP_8,175,1,48,82,2158789316
1920,3,ISIP_8,176,1,48,119,2159572916
1920,3,ISIP_8,177,1,48,101,2160362716
1920,3,ISIP_8,178,1,48,111,2161116224
1920,3,ISIP_8,179,1,48,125,2161937832
1920,3,ISIP_8,180,1,48,108,2162753688
1920,3,ISIP_8,181,1,48,127,2163558668
1920,3,ISIP_8,182,1,48,110,2164378108
1920,3,ISIP_8,183,1,48,126,2165176420
1920,3,ISIP_8,184,1,48,86,2165946804
1920,3,ISIP_8,185,1,48,89,2166741748
1920,3,ISIP_8,186,1,48,116,2167482264
1920,3,ISIP_8,0,9999,9999,9999,2048052272
1920,3,ISIP_8,1,9999,9999,9999,2048853072
1920,3,ISIP_8,2,9999,9999,9999,2049652820
1920,3,ISIP_8,3,9999,9999,9999,2050452556
1920,3,ISIP_8,4,9999,9999,9999,2051252292
1920,3,ISIP_8,5,9999,9999,9999,2052053068
1920,3,ISIP_8,6,9999,9999,9999,2052852800
1920,3,ISIP_8,7,9999,9999,9999,2053652532
1920,3,ISIP_8,8,9999,9999,9999,2054452268
1920,3,ISIP_8,9,9999,9999,9999,2055253040
1920,3,ISIP_8,10,9999,9999,9999,2056052800
1920,3,ISIP_8,11,9999,9999,9999,2056852532
1920,3,ISIP_8,12,9999,9999,9999,2057652340
1920,3,ISIP_8,13,9999,9999,9999,2058453044
1920,3,ISIP_8,14,9999,9999,9999,2059252848
1920,3,ISIP_8,15,9999,9999,9999,2060052580
1920,3,ISIP_8,16,9999,9999,9999,2060852316
1920,3,ISIP_8,17,9999,9999,9999,2061653092
1920,3,ISIP_8,18,9999,9999,9999,2062452848
1920,3,ISIP_8,19,9999,9999,9999,2063252580
1920,3,ISIP_8,20,9999,9999,9999,2064052316
1920,3,ISIP_8,21,9999,9999,9999,2064853092
1920,3,ISIP_8,22,9999,9999,9999,2065652824
1920,3,ISIP_8,23,9999,9999,9999,2066452560
1920,3,ISIP_8,24,9999,9999,9999,2067252272
1920,3,ISIP_8,25,9999,9999,9999,2068053096
1920,3,ISIP_8,26,9999,9999,9999,2068852856
1920,3,ISIP_8,27,9999,9999,9999,2069652588
1920,3,ISIP_8,28,9999,9999,9999,2070452320
1920,3,ISIP_8,29,9999,9999,9999,2071253104
1920,3,ISIP_8,30,9999,9999,9999,2072052836
1920,3,ISIP_8,31,9999,9999,9999,2072852564
1920,3,ISIP_8,32,9999,9999,9999,2073652292
1920,3,ISIP_8,33,9999,9999,9999,2074453088
1920,3,ISIP_8,34,9999,9999,9999,2075252816
1920,3,ISIP_8,35,9999,9999,9999,2076052548
1920,3,ISIP_8,36,9999,9999,9999,2076852276
1920,3,ISIP_8,37,9999,9999,9999,2077653040
1920,3,ISIP_8,38,9999,9999,9999,2078452848
1920,3,ISIP_8,39,9999,9999,9999,2079252580
1920,3,ISIP_8,40,9999,9999,9999,2080052304
1920,3,ISIP_8,41,9999,9999,9999,2080853100
1920,3,ISIP_8,42,9999,9999,9999,2081652828
1920,3,ISIP_8,43,9999,9999,9999,2082452556
1920,3,ISIP_8,44,9999,9999,9999,2083252284
1920,3,ISIP_8,45,9999,9999,9999,2084053056
1920,3,ISIP_8,46,9999,9999,9999,2084852784
1920,3,ISIP_8,47,9999,9999,9999,2085652572
1920,3,ISIP_8,48,9999,9999,9999,2086452300
1920,3,ISIP_8,49,9999,9999,9999,2087253100
1920,3,ISIP_8,50,9999,9999,9999,2088052828
1920,3,ISIP_8,51,9999,9999,9999,2088852556
1920,3,ISIP_8,52,9999,9999,9999,2089652284
1920,3,ISIP_8,53,9999,9999,9999,2090453060
1920,3,ISIP_8,54,9999,9999,9999,2091252784
1920,3,ISIP_8,55,9999,9999,9999,2092052588
1920,3,ISIP_8,56,9999,9999,9999,2092852316
1920,3,ISIP_8,57,9999,9999,9999,2093653040
1920,3,ISIP_8,58,9999,9999,9999,2094452844
1920,3,ISIP_8,59,9999,9999,9999,2095252572
1920,3,ISIP_8,60,9999,9999,9999,2096052300
1920,3,ISIP_8,61,9999,9999,9999,2096853072
1920,3,ISIP_8,62,9999,9999,9999,2097652800
1920,3,ISIP_8,63,9999,9999,9999,2098452528
1920,3,ISIP_8,64,9999,9999,9999,2099252332
1920,3,ISIP_8,65,9999,9999,9999,2100053056
1920,3,ISIP_8,66,9999,9999,9999,2100852788
1920,3,ISIP_8,67,9999,9999,9999,2101652588
1920,3,ISIP_8,68,9999,9999,9999,2102452272
1920,3,ISIP_8,69,9999,9999,9999,2103253044
1920,3,ISIP_8,70,9999,9999,9999,2104052848
1920,3,ISIP_8,71,9999,9999,9999,2104852532
1920,3,ISIP_8,72,9999,9999,9999,2105652332
1920,3,ISIP_8,73,9999,9999,9999,2106453056
1920,3,ISIP_8,74,9999,9999,9999,2107252784
1920,3,ISIP_8,75,9999,9999,9999,2108052588
1920,3,ISIP_8,76,9999,9999,9999,2108852272
1920,3,ISIP_8,77,9999,9999,9999,2109653044
1920,3,ISIP_8,78,9999,9999,9999,2110452848
1920,3,ISIP_8,79,9999,9999,9999,2111252572
1920,3,ISIP_8,80,9999,9999,9999,2112052304
1920,3,ISIP_8,81,9999,9999,9999,2112853100
1920,3,ISIP_8,82,9999,9999,9999,2113652828
1920,3,ISIP_8,83,9999,9999,9999,2114452560
1920,3,ISIP_8,84,9999,9999,9999,2115252288
1920,3,ISIP_8,85,9999,9999,9999,2116053064
1920,3,ISIP_8,86,9999,9999,9999,2116852792
1920,3,ISIP_8,87,9999,9999,9999,2117652592
1920,3,ISIP_8,88,9999,9999,9999,2118452344
1920,3,ISIP_8,89,9999,9999,9999,2119253072
1920,3,ISIP_8,90,9999,9999,9999,2120052800
1920,3,ISIP_8,91,9999,9999,9999,2120852532
1920,3,ISIP_8,92,9999,9999,9999,2121652284
1920,3,ISIP_8,93,9999,9999,9999,2122453108
1920,3,ISIP_8,94,9999,9999,9999,2123252836
1920,3,ISIP_8,95,9999,9999,9999,2124052564
1920,3,ISIP_8,96,9999,9999,9999,2124852292
1920,3,ISIP_8,97,9999,9999,9999,2125653088
1920,3,ISIP_8,98,9999,9999,9999,2126452820
1920,3,ISIP_8,99,9999,9999,9999,2127252548
1920,3,ISIP_8,100,9999,9999,9999,2128052276
1920,3,ISIP_8,101,9999,9999,9999,2128853048
1920,3,ISIP_8,102,9999,9999,9999,2129652852
1920,3,ISIP_8,103,9999,9999,9999,2130452580
1920,3,ISIP_8,104,9999,9999,9999,2131252308
1920,3,ISIP_8,105,9999,9999,9999,2132053104
1920,3,ISIP_8,106,9999,9999,9999,2132852832
1920,3,ISIP_8,107,9999,9999,9999,2133652560
1920,3,ISIP_8,108,9999,9999,9999,2134452292
1920,3,ISIP_8,109,9999,9999,9999,2135253064
1920,3,ISIP_8,110,9999,9999,9999,2136052824
1920,3,ISIP_8,111,9999,9999,9999,2136852580
1920,3,ISIP_8,112,9999,9999,9999,2137652308
1920,3,ISIP_8,113,9999,9999,9999,2138453104
1920,3,ISIP_8,114,9999,9999,9999,2139252832
1920,3,ISIP_8,115,9999,9999,9999,2140052560
1920,3,ISIP_8,116,9999,9999,9999,2140852288
1920,3,ISIP_8,117,9999,9999,9999,2141653060
1920,3,ISIP_8,118,9999,9999,9999,2142452788
1920,3,ISIP_8,119,9999,9999,9999,2143252592
1920,3,ISIP_8,120,9999,9999,9999,2144052320
1920,3,ISIP_8,121,9999,9999,9999,2144853044
1920,3,ISIP_8,122,9999,9999,9999,2145652844
1920,3,ISIP_8,123,9999,9999,9999,2146452576
1920,3,ISIP_8,124,9999,9999,9999,2147252300
1920,3,ISIP_8,125,9999,9999,9999,2148053076
1920,3,ISIP_8,126,9999,9999,9999,2148852804
1920,3,ISIP_8,127,9999,9999,9999,2149652532
1920,3,ISIP_8,128,9999,9999,9999,2150452336
1920,3,ISIP_8,129,9999,9999,9999,2151253060
1920,3,ISIP_8,130,9999,9999,9999,2152052788
1920,3,ISIP_8,131,9999,9999,9999,2152852592
1920,3,ISIP_8,132,9999,9999,9999,2153652320
1920,3,ISIP_8,133,9999,9999,9999,2154453092
1920,3,ISIP_8,134,9999,9999,9999,2155252820
1920,3,ISIP_8,135,9999,9999,9999,2156052548
1920,3,ISIP_8,136,9999,9999,9999,2156852280
1920,3,ISIP_8,137,9999,9999,9999,2157653076
1920,3,ISIP_8,138,9999,9999,9999,2158452804
1920,3,ISIP_8,139,9999,9999,9999,2159252532
1920,3,ISIP_8,140,9999,9999,9999,2160052336
1920,3,ISIP_8,141,9999,9999,9999,2160853108
1920,3,ISIP_8,142,9999,9999,9999,2161652836
1920,3,ISIP_8,143,9999,9999,9999,2162452564
1920,3,ISIP_8,144,9999,9999,9999,2163252296
1920,3,ISIP_8,145,9999,9999,9999,2164053092
1920,3,ISIP_8,146,9999,9999,9999,2164852824
1920,3,ISIP_8,147,9999,9999,9999,2165652552
1920,3,ISIP_8,148,9999,9999,9999,2166452280
1920,3,ISIP_8,149,9999,9999,9999,2167253052
1921,11,Pattern_Practice,0,5,42,127,2263748080
1921,11,Pattern_Practice,1,5,42,127,2264247776
1921,11,Pattern_Practice,2,5,42,127,2264748296
1921,11,Pattern_Practice,3,5,42,127,2265248068
1921,11,Pattern_Practice,4,1,48,94,2265741300
1921,11,Pattern_Practice,5,5,42,127,2265747836
1921,11,Pattern_Practice,6,1,38,63,2265752892
1921,11,Pattern_Practice,7,1,48,81,2265992860
1921,11,Pattern_Practice,8,5,42,127,2266247760
1921,11,Pattern_Practice,9,1,48,84,2266260136
1921,11,Pattern_Practice,10,1,48,71,2266493116
1921,11,Pattern_Practice,11,5,42,127,2266748240
1921,11,Pattern_Practice,12,1,48,99,2266756876
1921,11,Pattern_Practice,13,1,38,87,2266774560
1921,11,Pattern_Practice,14,1,48,105,2267008924
1921,11,Pattern_Practice,15,1,48,104,2267246032
1921,11,Pattern_Practice,16,5,42,127,2267247916
1921,11,Pattern_Practice,17,1,48,103,2267491412
1921,11,Pattern_Practice,18,1,48,98,2267745836
1921,11,Pattern_Practice,19,5,42,127,2267747644
1921,11,Pattern_Practice,20,1,38,83,2267755616
1921,11,Pattern_Practice,21,1,48,111,2267994760
1921,11,Pattern_Practice,22,1,48,89,2268245512
1921,11,Pattern_Practice,23,5,42,127,2268248608
1921,11,Pattern_Practice,24,1,48,110,2268490984
1921,11,Pattern_Practice,25,1,48,127,2268734688
1921,11,Pattern_Practice,26,1,38,102,2268746748
1921,11,Pattern_Practice,27,5,42,127,2268749900
1921,11,Pattern_Practice,28,1,48,108,2268980944
1921,11,Pattern_Practice,29,1,48,105,2269230352
1921,11,Pattern_Practice,30,5,42,127,2269247712
1921,11,Pattern_Practice,31,1,48,110,2269476640
1921,11,Pattern_Practice,32,1,48,120,2269733368
1921,11,Pattern_Practice,33,1,38,94,2269736632
1921,11,Pattern_Practice,34,5,42,127,2269747496
1921,11,Pattern_Practice,35,1,48,97,2269990964
1921,11,Pattern_Practice,36,1,48,105,2270232900
1921,11,Pattern_Practice,37,5,42,127,2270248240
1921,11,Pattern_Practice,38,1,48,104,2270474856
1921,11,Pattern_Practice,39,1,48,120,2270715304
1921,11,Pattern_Practice,40,1,38,93,2270723128
1921,11,Pattern_Practice,41,5,42,127,2270747952
1921,11,Pattern_Practice,42,1,48,89,2270974316
1921,11,Pattern_Practice,43,1,48,89,2271230296
1921,11,Pattern_Practice,44,5,42,127,2271247724
1921,11,Pattern_Practice,45,1,48,106,2271476208
1921,11,Pattern_Practice,46,1,48,123,2271730244
1921,11,Pattern_Practice,47,1,38,91,2271743592
1921,11,Pattern_Practice,48,5,42,127,2271747360
1921,11,Pattern_Practice,49,1,48,102,2271990976
1921,11,Pattern_Practice,50,1,48,98,2272247360
1921,11,Pattern_Practice,51,5,42,127,2272249152
1921,11,Pattern_Practice,52,1,48,106,2272472484
1921,11,Pattern_Practice,53,1,48,104,2272731748
1921,11,Pattern_Practice,54,1,38,98,2272736580
1921,11,Pattern_Practice,55,5,42,127,2272747744
1921,11,Pattern_Practice,56,1,48,98,2272982324
1921,11,Pattern_Practice,57,1,48,108,2273241060
1921,11,Pattern_Practice,58,5,42,127,2273247596
1921,11,Pattern_Practice,59,1,48,116,2273483992
1921,11,Pattern_Practice,60,1,48,124,2273745944
1921,11,Pattern_Practice,61,5,42,127,2273748292
1921,11,Pattern_Practice,62,1,38,97,2273753648
1921,11,Pattern_Practice,63,1,48,97,2274001236
1921,11,Pattern_Practice,64,5,42,127,2274248364
1921,11,Pattern_Practice,65,1,48,93,2274253644
1921,11,Pattern_Practice,66,1,48,83,2274503800
1921,11,Pattern_Practice,67,1,38,19,2274513636
1921,11,Pattern_Practice,68,1,48,88,2274746772
1921,11,Pattern_Practice,69,5,42,127,2274748564
1921,11,Pattern_Practice,70,1,38,92,2274760560
1921,11,Pattern_Practice,71,1,48,88,2275004192
1921,11,Pattern_Practice,72,1,48,87,2275238740
1921,11,Pattern_Practice,73,5,42,127,2275247440
1921,11,Pattern_Practice,74,1,48,105,2275502208
1921,11,Pattern_Practice,75,1,48,118,2275747768
1921,11,Pattern_Practice,76,5,42,127,2275749480
1921,11,Pattern_Practice,77,1,38,102,2275753044
1921,11,Pattern_Practice,78,1,48,108,2275993312
1921,11,Pattern_Practice,79,5,42,127,2276247988
1921,11,Pattern_Practice,80,1,48,110,2276249472
1921,11,Pattern_Practice,81,1,48,102,2276496104
1921,11,Pattern_Practice,82,1,48,108,2276746592
1921,11,Pattern_Practice,83,5,42,127,2276748460
1921,11,Pattern_Practice,84,1,38,107,2276752316
1921,11,Pattern_Practice,85,1,48,88,2276997520
1921,11,Pattern_Practice,86,5,42,127,2277248460
1921,11,Pattern_Practice,87,1,48,89,2277256948
1921,11,Pattern_Practice,88,1,38,20,2277266860
1921,11,Pattern_Practice,89,1,48,98,2277512056
1921,11,Pattern_Practice,90,1,38,21,2277521968
1921,11,Pattern_Practice,91,5,42,127,2277748168
1921,11,Pattern_Practice,92,1,48,127,2277750912
1921,11,Pattern_Practice,93,1,38,94,2277756264
1921,11,Pattern_Practice,94,1,48,123,2277997956
1921,11,Pattern_Practice,95,5,42,127,2278247776
1921,11,Pattern_Practice,96,1,48,105,2278262608
1921,11,Pattern_Practice,97,1,48,121,2278511124
1921,11,Pattern_Practice,98,5,42,127,2278747504
1921,11,Pattern_Practice,99,1,48,121,2278750168
1921,11,Pattern_Practice,100,1,38,97,2278753956
1921,11,Pattern_Practice,101,1,48,92,2279003416
1921,11,Pattern_Practice,102,5,42,127,2279248232
1921,11,Pattern_Practice,103,1,48,84,2279264112
1921,11,Pattern_Practice,104,1,38,19,2279274100
1921,11,Pattern_Practice,105,1,48,120,2279519072
1921,11,Pattern_Practice,106,5,42,127,2279747964
1921,11,Pattern_Practice,107,1,48,127,2279757720
1921,11,Pattern_Practice,108,1,38,87,2279763080
1921,11,Pattern_Practice,109,1,48,116,2280014544
1921,11,Pattern_Practice,110,5,42,127,2280247692
1921,11,Pattern_Practice,111,1,48,99,2280272264
1921,11,Pattern_Practice,112,1,48,127,2280521668
1921,11,Pattern_Practice,113,5,42,127,2280748320
1921,11,Pattern_Practice,114,1,48,127,2280771672
1921,11,Pattern_Practice,115,1,38,104,2280778704
1921,11,Pattern_Practice,116,1,48,108,2281019248
1921,11,Pattern_Practice,117,5,42,127,2281248088
1921,11,Pattern_Practice,118,1,48,101,2281269796
1921,11,Pattern_Practice,119,1,48,117,2281514644
1921,11,Pattern_Practice,120,5,42,127,2281748040
1921,11,Pattern_Practice,121,1,48,125,2281763028
1921,11,Pattern_Practice,122,1,38,88,2281766292
1921,11,Pattern_Practice,123,1,48,127,2282005068
1921,11,Pattern_Practice,124,1,38,88,2282015204
1921,11,Pattern_Practice,125,5,42,127,2282247600
1921,11,Pattern_Practice,126,1,48,127,2282264224
1921,11,Pattern_Practice,127,1,38,84,2282266676
1921,11,Pattern_Practice,128,1,48,127,2282517844
1921,11,Pattern_Practice,129,1,38,105,2282521708
1921,11,Pattern_Practice,130,5,42,127,2282748280
1921,11,Pattern_Practice,131,1,48,121,2282775960
1921,11,Pattern_Practice,132,1,38,127,2282778548
1921,11,Pattern_Practice,133,1,38,89,2283022556
1921,11,Pattern_Practice,134,1,48,123,2283024996
1921,11,Pattern_Practice,135,5,42,127,2283247988
1921,11,Pattern_Practice,136,1,38,77,2283265512
1921,11,Pattern_Practice,137,1,48,127,2283274676
1921,11,Pattern_Practice,138,1,48,115,2283511964
1921,11,Pattern_Practice,139,1,38,76,2283515300
1921,11,Pattern_Practice,140,5,42,127,2283747844
1921,11,Pattern_Practice,141,1,48,108,2283762308
1921,11,Pattern_Practice,142,1,38,70,2283765572
1921,11,Pattern_Practice,143,1,48,114,2284002932
1921,11,Pattern_Practice,144,1,38,88,2284007840
1921,11,Pattern_Practice,145,1,38,70,2284242808
1921,11,Pattern_Practice,146,1,48,114,2284246540
1921,11,Pattern_Practice,147,5,42,127,2284248724
1921,11,Pattern_Practice,148,1,38,77,2284483004
1921,11,Pattern_Practice,149,1,48,103,2284488960
1921,11,Pattern_Practice,150,1,38,69,2284743264
1921,11,Pattern_Practice,151,5,42,127,2284748080
1921,11,Pattern_Practice,152,1,48,113,2284749044
1921,11,Pattern_Practice,153,1,38,89,2284993556
1921,11,Pattern_Practice,154,1,48,109,2285001520
1921,11,Pattern_Practice,155,1,38,90,2285238584
1921,11,Pattern_Practice,156,1,48,105,2285244984
1921,11,Pattern_Practice,157,5,42,127,2285247932
1921,11,Pattern_Practice,158,1,48,100,2285485720
1921,11,Pattern_Practice,159,1,38,67,2285503548
1921,11,Pattern_Practice,160,5,42,127,2285747668
1921,11,Pattern_Practice,161,1,48,127,2285764744
1921,11,Pattern_Practice,162,1,38,97,2286019828
1921,11,Pattern_Practice,163,5,42,127,2286248216
1921,11,Pattern_Practice,164,1,48,99,2286268952
1921,11,Pattern_Practice,165,1,38,113,2286542480
1921,11,Pattern_Practice,166,5,42,127,2286748096
1921,11,Pattern_Practice,167,1,48,86,2286791676
1921,11,Pattern_Practice,168,1,38,106,2287048032
1921,11,Pattern_Practice,169,5,42,127,2287247600
1921,11,Pattern_Practice,170,1,48,98,2287279984
1921,11,Pattern_Practice,171,1,38,99,2287524612
1921,11,Pattern_Practice,172,5,42,127,2287747628
1921,11,Pattern_Practice,173,1,48,116,2287765152
1921,11,Pattern_Practice,174,1,38,112,2287777452
1921,11,Pattern_Practice,175,1,48,104,2288012796
1921,11,Pattern_Practice,176,5,42,127,2288248060
1921,11,Pattern_Practice,177,1,48,106,2288263788
1921,11,Pattern_Practice,178,1,38,111,2288500204
1921,11,Pattern_Practice,179,1,48,127,2288504664
1921,11,Pattern_Practice,180,5,42,127,2288747816
1921,11,Pattern_Practice,181,1,48,111,2288761532
1921,11,Pattern_Practice,182,1,48,101,2289009748
1921,11,Pattern_Practice,183,5,42,127,2289247472
1921,11,Pattern_Practice,184,1,38,100,2289257448
1921,11,Pattern_Practice,185,1,48,121,2289263780
1921,11,Pattern_Practice,186,1,48,100,2289517560
1921,11,Pattern_Practice,187,5,42,127,2289748272
1921,11,Pattern_Practice,188,1,48,127,2289769532
1921,11,Pattern_Practice,189,1,38,87,2289779664
1921,11,Pattern_Practice,190,1,48,98,2290012396
1921,11,Pattern_Practice,191,5,42,127,2290248104
1921,11,Pattern_Practice,192,1,48,93,2290280568
1921,11,Pattern_Practice,193,1,38,95,2290499956
1921,11,Pattern_Practice,194,1,48,127,2290508896
1921,11,Pattern_Practice,195,5,42,127,2290747612
1921,11,Pattern_Practice,196,1,48,109,2290759112
1921,11,Pattern_Practice,197,1,48,98,2291007676
1921,11,Pattern_Practice,198,1,38,119,2291243860
1921,11,Pattern_Practice,199,5,42,127,2291247628
1921,11,Pattern_Practice,200,1,48,106,2291255452
1921,11,Pattern_Practice,201,1,48,100,2291501248
1921,11,Pattern_Practice,202,1,38,102,2291733852
1921,11,Pattern_Practice,203,5,42,127,2291748368
1921,11,Pattern_Practice,204,1,48,108,2291749852
1921,11,Pattern_Practice,205,1,48,102,2291995712
1921,11,Pattern_Practice,206,1,48,113,2292244144
1921,11,Pattern_Practice,207,5,42,127,2292247840
1921,11,Pattern_Practice,208,1,38,89,2292496108
1921,11,Pattern_Practice,209,1,48,124,2292499300
1921,11,Pattern_Practice,210,5,42,127,2292747676
1921,11,Pattern_Practice,211,1,48,117,2292755416
1921,11,Pattern_Practice,212,1,48,95,2293006548
1921,11,Pattern_Practice,213,5,42,127,2293248600
1921,11,Pattern_Practice,214,1,38,112,2293257320
1921,11,Pattern_Practice,215,1,48,100,2293262072
1921,11,Pattern_Practice,216,1,48,84,2293503612
1921,11,Pattern_Practice,217,5,42,127,2293748132
1921,11,Pattern_Practice,218,1,48,122,2293755056
1921,11,Pattern_Practice,219,1,38,91,2293771468
1921,11,Pattern_Practice,220,1,48,108,2294008076
1921,11,Pattern_Practice,221,5,42,127,2294247740
1921,11,Pattern_Practice,222,1,48,111,2294258096
1921,11,Pattern_Practice,223,1,38,113,2294498544
1921,11,Pattern_Practice,224,1,48,118,2294501884
1921,11,Pattern_Practice,225,5,42,127,2294747424
1921,11,Pattern_Practice,226,1,48,87,2294750316
1921,11,Pattern_Practice,227,1,48,97,2295001436
1921,11,Pattern_Practice,228,5,42,127,2295248196
1921,11,Pattern_Practice,229,1,48,124,2295249604
1921,11,Pattern_Practice,230,1,38,112,2295257280
1921,11,Pattern_Practice,231,1,48,107,2295499636
1921,11,Pattern_Practice,232,5,42,127,2295747892
1921,11,Pattern_Practice,233,1,48,103,2295761236
1921,11,Pattern_Practice,234,1,38,102,2295774656
1921,11,Pattern_Practice,235,1,48,83,2296014252
1921,11,Pattern_Practice,236,5,42,127,2296247648
1921,11,Pattern_Practice,237,1,48,85,2296260468
1921,11,Pattern_Practice,238,1,38,20,2296270528
1921,11,Pattern_Practice,239,1,48,116,2296501164
1921,11,Pattern_Practice,240,1,38,97,2296504508
1921,11,Pattern_Practice,241,5,42,127,2296748476
1921,11,Pattern_Practice,242,1,48,89,2296755992
1921,11,Pattern_Practice,243,1,48,108,2297017272
1921,11,Pattern_Practice,244,5,42,127,2297248056
1921,11,Pattern_Practice,245,1,48,103,2297261252
1921,11,Pattern_Practice,246,1,38,107,2297272952
1921,11,Pattern_Practice,247,1,48,96,2297501128
1921,11,Pattern_Practice,248,5,42,127,2297747888
1921,11,Pattern_Practice,249,1,48,116,2297755108
1921,11,Pattern_Practice,250,1,38,92,2297764568
1921,11,Pattern_Practice,251,1,48,103,2298008200
1921,11,Pattern_Practice,252,5,42,127,2298247496
1921,11,Pattern_Practice,253,1,48,104,2298260692
1921,11,Pattern_Practice,254,1,48,127,2298509576
1921,11,Pattern_Practice,255,1,38,117,2298515076
1921,11,Pattern_Practice,256,5,42,127,2298748296
1921,11,Pattern_Practice,257,1,48,114,2298762612
1921,11,Pattern_Practice,258,1,48,113,2299019256
1921,11,Pattern_Practice,259,5,42,127,2299248248
1921,11,Pattern_Practice,260,1,48,109,2299268168
1921,11,Pattern_Practice,261,1,38,100,2299272476
1921,11,Pattern_Practice,262,1,48,102,2299518864
1921,11,Pattern_Practice,263,5,42,127,2299747708
1921,11,Pattern_Practice,264,1,38,94,2299768896
1921,11,Pattern_Practice,265,1,48,127,2299772084
1921,11,Pattern_Practice,266,1,48,103,2300002348
1921,11,Pattern_Practice,267,5,42,127,2300248360
1921,11,Pattern_Practice,268,1,48,89,2300261632
1921,11,Pattern_Practice,269,1,38,98,2300500880
1921,11,Pattern_Practice,270,1,48,127,2300507288
1921,11,Pattern_Practice,271,5,42,127,2300748120
1921,11,Pattern_Practice,272,1,48,124,2300753840
1921,11,Pattern_Practice,273,1,48,120,2300996232
1921,11,Pattern_Practice,274,1,48,120,2301247824
1921,11,Pattern_Practice,275,5,42,127,2301249452
1921,11,Pattern_Practice,276,1,38,115,2301270516
1921,11,Pattern_Practice,277,1,48,119,2301495900
1921,11,Pattern_Practice,278,1,48,126,2301741576
1921,11,Pattern_Practice,279,5,42,127,2301747584
1921,11,Pattern_Practice,280,1,38,101,2301750328
1921,11,Pattern_Practice,281,1,48,112,2301990368
1921,11,Pattern_Practice,282,1,48,81,2302247048
1921,11,Pattern_Practice,283,5,42,127,2302249072
1921,11,Pattern_Practice,284,1,38,19,2302257412
1921,11,Pattern_Practice,285,1,48,104,2302504400
1921,11,Pattern_Practice,286,1,38,103,2302524016
1921,11,Pattern_Practice,287,5,42,127,2302748124
1921,11,Pattern_Practice,288,1,48,108,2302756992
1921,11,Pattern_Practice,289,1,48,123,2303018792
1921,11,Pattern_Practice,290,5,42,127,2303247852
1921,11,Pattern_Practice,291,1,48,115,2303262020
1921,11,Pattern_Practice,292,1,38,113,2303265884
1921,11,Pattern_Practice,293,1,48,100,2303508620
1921,11,Pattern_Practice,0,9999,9999,9999,2263745648
1921,11,Pattern_Practice,1,9999,9999,9999,2264245344
1921,11,Pattern_Practice,2,9999,9999,9999,2264746088
1921,11,Pattern_Practice,3,9999,9999,9999,2265245784
1921,11,Pattern_Practice,4,9999,9999,9999,2265745476
1921,11,Pattern_Practice,5,9999,9999,9999,2266245180
1921,11,Pattern_Practice,6,9999,9999,9999,2266745956
1921,11,Pattern_Practice,7,9999,9999,9999,2267245660
1921,11,Pattern_Practice,8,9999,9999,9999,2267745384
1921,11,Pattern_Practice,9,9999,9999,9999,2268246104
1921,11,Pattern_Practice,10,9999,9999,9999,2268745828
1921,11,Pattern_Practice,11,9999,9999,9999,2269245500
1921,11,Pattern_Practice,12,9999,9999,9999,2269745212
1921,11,Pattern_Practice,13,9999,9999,9999,2270245956
1921,11,Pattern_Practice,14,9999,9999,9999,2270745668
1921,11,Pattern_Practice,15,9999,9999,9999,2271245368
1921,11,Pattern_Practice,16,9999,9999,9999,2271745076
1921,11,Pattern_Practice,17,9999,9999,9999,2272245828
1921,11,Pattern_Practice,18,9999,9999,9999,2272745532
1921,11,Pattern_Practice,19,9999,9999,9999,2273245236
1921,11,Pattern_Practice,20,9999,9999,9999,2273746008
1921,11,Pattern_Practice,21,9999,9999,9999,2274245708
1921,11,Pattern_Practice,22,9999,9999,9999,2274745464
1921,11,Pattern_Practice,23,9999,9999,9999,2275245156
1921,11,Pattern_Practice,24,9999,9999,9999,2275745860
1921,11,Pattern_Practice,25,9999,9999,9999,2276245556
1921,11,Pattern_Practice,26,9999,9999,9999,2276745284
1921,11,Pattern_Practice,27,9999,9999,9999,2277246024
1921,11,Pattern_Practice,28,9999,9999,9999,2277745736
1921,11,Pattern_Practice,29,9999,9999,9999,2278245492
1921,11,Pattern_Practice,30,9999,9999,9999,2278745148
1921,11,Pattern_Practice,31,9999,9999,9999,2279245872
1921,11,Pattern_Practice,32,9999,9999,9999,2279745604
1921,11,Pattern_Practice,33,9999,9999,9999,2280245336
1921,11,Pattern_Practice,34,9999,9999,9999,2280746036
1921,11,Pattern_Practice,35,9999,9999,9999,2281245804
1921,11,Pattern_Practice,36,9999,9999,9999,2281745460
1921,11,Pattern_Practice,37,9999,9999,9999,2282245240
1921,11,Pattern_Practice,38,9999,9999,9999,2282745920
1921,11,Pattern_Practice,39,9999,9999,9999,2283245628
1921,11,Pattern_Practice,40,9999,9999,9999,2283745340
1921,11,Pattern_Practice,41,9999,9999,9999,2284246088
1921,11,Pattern_Practice,42,9999,9999,9999,2284745796
1921,11,Pattern_Practice,43,9999,9999,9999,2285245500
1921,11,Pattern_Practice,44,9999,9999,9999,2285745236
1921,11,Pattern_Practice,45,9999,9999,9999,2286246008
1921,11,Pattern_Practice,46,9999,9999,9999,2286745664
1921,11,Pattern_Practice,47,9999,9999,9999,2287245392
1921,11,Pattern_Practice,48,9999,9999,9999,2287745120
1921,11,Pattern_Practice,49,9999,9999,9999,2288245848
1921,11,Pattern_Practice,50,9999,9999,9999,2288745528
1921,11,Pattern_Practice,51,9999,9999,9999,2289245260
1921,11,Pattern_Practice,52,9999,9999,9999,2289745988
1921,11,Pattern_Practice,53,9999,9999,9999,2290245744
1921,11,Pattern_Practice,54,9999,9999,9999,2290745404
1921,11,Pattern_Practice,55,9999,9999,9999,2291245124
1921,11,Pattern_Practice,56,9999,9999,9999,2291745864
1921,11,Pattern_Practice,57,9999,9999,9999,2292245556
1921,11,Pattern_Practice,58,9999,9999,9999,2292745320
1921,11,Pattern_Practice,59,9999,9999,9999,2293246016
1921,11,Pattern_Practice,60,9999,9999,9999,2293745776
1921,11,Pattern_Practice,61,9999,9999,9999,2294245456
1921,11,Pattern_Practice,62,9999,9999,9999,2294745140
1921,11,Pattern_Practice,63,9999,9999,9999,2295245912
1921,11,Pattern_Practice,64,9999,9999,9999,2295745608
1921,11,Pattern_Practice,65,9999,9999,9999,2296245364
1921,11,Pattern_Practice,66,9999,9999,9999,2296746044
1921,11,Pattern_Practice,67,9999,9999,9999,2297245772
1921,11,Pattern_Practice,68,9999,9999,9999,2297745528
1921,11,Pattern_Practice,69,9999,9999,9999,2298245212
1921,11,Pattern_Practice,70,9999,9999,9999,2298745936
1921,11,Pattern_Practice,71,9999,9999,9999,2299245664
1921,11,Pattern_Practice,72,9999,9999,9999,2299745348
1921,11,Pattern_Practice,73,9999,9999,9999,2300246076
1921,11,Pattern_Practice,74,9999,9999,9999,2300745832
1921,11,Pattern_Practice,75,9999,9999,9999,2301245540
1921,11,Pattern_Practice,76,9999,9999,9999,2301745228
1921,11,Pattern_Practice,77,9999,9999,9999,2302245972
1921,11,Pattern_Practice,78,9999,9999,9999,2302745692
1921,11,Pattern_Practice,79,9999,9999,9999,2303245420
1922,13,Improv_Metronome,0,5,42,127,2342264184
1922,13,Improv_Metronome,1,5,42,127,2342764028
1922,13,Improv_Metronome,2,5,42,127,2343263580
1922,13,Improv_Metronome,3,5,42,127,2343764248
1922,13,Improv_Metronome,4,5,42,127,2344264092
1922,13,Improv_Metronome,5,5,42,127,2344763692
1922,13,Improv_Metronome,6,5,42,127,2345263392
1922,13,Improv_Metronome,7,5,42,127,2345764208
1922,13,Improv_Metronome,8,1,48,113,2346240492
1922,13,Improv_Metronome,9,1,38,95,2346256152
1922,13,Improv_Metronome,10,5,42,127,2346263952
1922,13,Improv_Metronome,11,1,48,93,2346480692
1922,13,Improv_Metronome,12,1,48,91,2346718744
1922,13,Improv_Metronome,13,5,42,127,2346763880
1922,13,Improv_Metronome,14,1,48,98,2346950544
1922,13,Improv_Metronome,15,1,48,127,2347219072
1922,13,Improv_Metronome,16,1,38,113,2347231372
1922,13,Improv_Metronome,17,5,42,127,2347264264
1922,13,Improv_Metronome,18,1,48,112,2347469060
1922,13,Improv_Metronome,19,1,48,109,2347720108
1922,13,Improv_Metronome,20,5,42,127,2347764196
1922,13,Improv_Metronome,21,1,48,95,2347963488
1922,13,Improv_Metronome,22,1,48,127,2348241568
1922,13,Improv_Metronome,23,1,38,82,2348250880
1922,13,Improv_Metronome,24,5,42,127,2348263832
1922,13,Improv_Metronome,25,1,48,108,2348501548
1922,13,Improv_Metronome,26,1,48,104,2348744456
1922,13,Improv_Metronome,27,5,42,127,2348763460
1922,13,Improv_Metronome,28,1,48,105,2348999336
1922,13,Improv_Metronome,29,5,42,127,2349264168
1922,13,Improv_Metronome,30,1,48,127,2349267208
1922,13,Improv_Metronome,31,1,38,70,2349282268
1922,13,Improv_Metronome,32,1,48,117,2349515836
1922,13,Improv_Metronome,33,5,42,127,2349763936
1922,13,Improv_Metronome,34,1,48,102,2349770788
1922,13,Improv_Metronome,35,1,48,111,2350016832
1922,13,Improv_Metronome,36,5,42,127,2350263888
1922,13,Improv_Metronome,37,1,48,127,2350265748
1922,13,Improv_Metronome,38,1,38,112,2350273416
1922,13,Improv_Metronome,39,1,48,109,2350510704
1922,13,Improv_Metronome,40,5,42,127,2350764704
1922,13,Improv_Metronome,41,1,48,118,2350767224
1922,13,Improv_Metronome,42,1,48,106,2351013940
1922,13,Improv_Metronome,43,1,48,120,2351243636
1922,13,Improv_Metronome,44,1,38,76,2351247424
1922,13,Improv_Metronome,45,5,42,127,2351264036
1922,13,Improv_Metronome,46,1,48,117,2351497424
1922,13,Improv_Metronome,47,1,48,105,2351752052
1922,13,Improv_Metronome,48,5,42,127,2351763736
1922,13,Improv_Metronome,49,1,48,115,2351998936
1922,13,Improv_Metronome,50,1,48,127,2352247152
1922,13,Improv_Metronome,51,1,38,87,2352256096
1922,13,Improv_Metronome,52,5,42,127,2352263744
1922,13,Improv_Metronome,53,1,48,126,2352496456
1922,13,Improv_Metronome,54,1,48,107,2352759008
1922,13,Improv_Metronome,55,5,42,127,2352764340
1922,13,Improv_Metronome,56,1,48,115,2353008956
1922,13,Improv_Metronome,57,1,48,112,2353243428
1922,13,Improv_Metronome,58,1,38,92,2353256628
1922,13,Improv_Metronome,59,5,42,127,2353263828
1922,13,Improv_Metronome,60,1,48,122,2353507964
1922,13,Improv_Metronome,61,5,42,127,2353763612
1922,13,Improv_Metronome,62,1,48,109,2353766576
1922,13,Improv_Metronome,63,1,48,105,2354012328
1922,13,Improv_Metronome,64,1,38,95,2354250604
1922,13,Improv_Metronome,65,1,48,105,2354253792
1922,13,Improv_Metronome,66,5,42,127,2354264656
1922,13,Improv_Metronome,67,1,48,90,2354510512
1922,13,Improv_Metronome,68,1,48,116,2354758572
1922,13,Improv_Metronome,69,5,42,127,2354764060
1922,13,Improv_Metronome,70,1,48,111,2355014420
1922,13,Improv_Metronome,71,1,38,82,2355256788
1922,13,Improv_Metronome,72,1,48,123,2355259980
1922,13,Improv_Metronome,73,5,42,127,2355263844
1922,13,Improv_Metronome,74,1,48,116,2355493468
1922,13,Improv_Metronome,75,1,48,87,2355749972
1922,13,Improv_Metronome,76,1,38,20,2355759956
1922,13,Improv_Metronome,77,5,42,127,2355763500
1922,13,Improv_Metronome,78,1,48,97,2355991428
1922,13,Improv_Metronome,79,1,48,103,2356240840
1922,13,Improv_Metronome,80,1,38,93,2356250828
1922,13,Improv_Metronome,81,5,42,127,2356264376
1922,13,Improv_Metronome,82,1,48,89,2356512616
1922,13,Improv_Metronome,83,5,42,127,2356763932
1922,13,Improv_Metronome,84,1,48,110,2356767568
1922,13,Improv_Metronome,85,1,48,125,2357009808
1922,13,Improv_Metronome,86,1,48,125,2357260488
1922,13,Improv_Metronome,87,5,42,127,2357263656
1922,13,Improv_Metronome,88,1,38,89,2357273188
1922,13,Improv_Metronome,89,1,48,119,2357514728
1922,13,Improv_Metronome,90,5,42,127,2357763356
1922,13,Improv_Metronome,91,1,48,123,2357778572
1922,13,Improv_Metronome,92,1,48,99,2358030140
1922,13,Improv_Metronome,93,5,42,127,2358264428
1922,13,Improv_Metronome,94,1,48,127,2358270232
1922,13,Improv_Metronome,95,1,38,86,2358279020
1922,13,Improv_Metronome,96,1,48,93,2358525116
1922,13,Improv_Metronome,97,5,42,127,2358763736
1922,13,Improv_Metronome,98,1,48,114,2358768868
1922,13,Improv_Metronome,99,1,48,104,2359015884
1922,13,Improv_Metronome,100,1,48,114,2359261260
1922,13,Improv_Metronome,101,5,42,127,2359263756
1922,13,Improv_Metronome,102,1,38,80,2359264796
1922,13,Improv_Metronome,103,1,48,87,2359512716
1922,13,Improv_Metronome,104,1,48,89,2359758688
1922,13,Improv_Metronome,105,5,42,127,2359764472
1922,13,Improv_Metronome,106,1,48,103,2360023944
1922,13,Improv_Metronome,107,5,42,127,2360264208
1922,13,Improv_Metronome,108,1,38,94,2360267396
1922,13,Improv_Metronome,109,1,48,126,2360274396
1922,13,Improv_Metronome,110,1,48,118,2360535280
1922,13,Improv_Metronome,111,5,42,127,2360763668
1922,13,Improv_Metronome,112,1,48,117,2360798664
1922,13,Improv_Metronome,113,1,48,115,2361039856
1922,13,Improv_Metronome,114,5,42,127,2361263324
1922,13,Improv_Metronome,115,1,48,127,2361298916
1922,13,Improv_Metronome,116,1,38,101,2361302188
1922,13,Improv_Metronome,117,1,48,122,2361548280
1922,13,Improv_Metronome,118,5,42,127,2361764348
1922,13,Improv_Metronome,119,1,48,102,2361798080
1922,13,Improv_Metronome,120,1,48,105,2362045624
1922,13,Improv_Metronome,121,5,42,127,2362264080
1922,13,Improv_Metronome,122,1,48,118,2362274140
1922,13,Improv_Metronome,123,1,38,80,2362409200
1922,13,Improv_Metronome,124,1,48,109,2362511580
1922,13,Improv_Metronome,125,1,38,74,2362632076
1922,13,Improv_Metronome,126,1,48,127,2362746400
1922,13,Improv_Metronome,127,5,42,127,2362763608
1922,13,Improv_Metronome,128,1,38,79,2362852056
1922,13,Improv_Metronome,129,1,48,105,2362968180
1922,13,Improv_Metronome,130,1,38,36,2363052908
1922,13,Improv_Metronome,131,1,48,102,2363203872
1922,13,Improv_Metronome,132,5,42,127,2363264316
1922,13,Improv_Metronome,133,1,38,91,2363290656
1922,13,Improv_Metronome,134,1,48,91,2363423664
1922,13,Improv_Metronome,135,1,38,95,2363517984
1922,13,Improv_Metronome,136,1,48,100,2363668872
1922,13,Improv_Metronome,137,1,38,85,2363757152
1922,13,Improv_Metronome,138,5,42,127,2363764056
1922,13,Improv_Metronome,139,1,48,101,2363906836
1922,13,Improv_Metronome,140,1,38,91,2364003016
1922,13,Improv_Metronome,141,1,48,108,2364149880
1922,13,Improv_Metronome,142,5,42,127,2364263648
1922,13,Improv_Metronome,143,1,38,87,2364264612
1922,13,Improv_Metronome,144,1,48,83,2364392408
1922,13,Improv_Metronome,145,1,38,22,2364399484
1922,13,Improv_Metronome,146,1,38,92,2364508184
1922,13,Improv_Metronome,147,1,48,127,2364648696
1922,13,Improv_Metronome,148,1,38,73,2364742496
1922,13,Improv_Metronome,149,5,42,127,2364763352
1922,13,Improv_Metronome,150,1,48,76,2364885772
1922,13,Improv_Metronome,151,1,38,80,2364986184
1922,13,Improv_Metronome,152,1,48,99,2365137772
1922,13,Improv_Metronome,153,1,38,95,2365244084
1922,13,Improv_Metronome,154,5,42,127,2365264156
1922,13,Improv_Metronome,155,1,48,60,2365388224
1922,13,Improv_Metronome,156,1,38,93,2365477436
1922,13,Improv_Metronome,157,1,48,60,2365645512
1922,13,Improv_Metronome,158,1,38,86,2365728232
1922,13,Improv_Metronome,159,5,42,127,2365763892
1922,13,Improv_Metronome,160,1,48,62,2365903048
1922,13,Improv_Metronome,161,1,38,88,2365952904
1922,13,Improv_Metronome,162,1,38,114,2366226192
1922,13,Improv_Metronome,163,1,48,99,2366231028
1922,13,Improv_Metronome,164,5,42,127,2366263840
1922,13,Improv_Metronome,165,1,48,90,2366503952
1922,13,Improv_Metronome,166,1,48,90,2366759700
1922,13,Improv_Metronome,167,5,42,127,2366764440
1922,13,Improv_Metronome,168,1,48,103,2367016592
1922,13,Improv_Metronome,169,5,42,127,2367264176
1922,13,Improv_Metronome,170,1,48,93,2367265812
1922,13,Improv_Metronome,171,1,38,102,2367270944
1922,13,Improv_Metronome,172,1,48,107,2367510388
1922,13,Improv_Metronome,173,5,42,127,2367764092
1922,13,Improv_Metronome,174,1,48,112,2367768176
1922,13,Improv_Metronome,175,1,48,111,2368020200
1922,13,Improv_Metronome,176,5,42,127,2368263524
1922,13,Improv_Metronome,177,1,48,127,2368269556
1922,13,Improv_Metronome,178,1,38,91,2368272144
1922,13,Improv_Metronome,179,1,48,96,2368519056
1922,13,Improv_Metronome,180,5,42,127,2368764176
1922,13,Improv_Metronome,181,1,48,88,2368777744
1922,13,Improv_Metronome,182,1,48,105,2369041116
1922,13,Improv_Metronome,183,5,42,127,2369263904
1922,13,Improv_Metronome,184,1,48,113,2369276056
1922,13,Improv_Metronome,185,1,38,95,2369282308
1922,13,Improv_Metronome,186,1,48,76,2369522948
1922,13,Improv_Metronome,187,5,42,127,2369763736
1922,13,Improv_Metronome,188,1,48,78,2369769384
1922,13,Improv_Metronome,189,1,48,77,2370030968
1922,13,Improv_Metronome,190,5,42,127,2370264508
1922,13,Improv_Metronome,191,1,48,67,2370267624
1922,13,Improv_Metronome,192,1,38,92,2370270888
1922,13,Improv_Metronome,193,1,48,101,2370517816
1922,13,Improv_Metronome,194,5,42,127,2370764132
1922,13,Improv_Metronome,195,1,48,112,2370778372
1922,13,Improv_Metronome,196,1,48,112,2371023444
1922,13,Improv_Metronome,197,5,42,127,2371263932
1922,13,Improv_Metronome,198,1,48,127,2371268696
1922,13,Improv_Metronome,199,1,38,86,2371272552
1922,13,Improv_Metronome,200,1,48,119,2371514020
1922,13,Improv_Metronome,201,5,42,127,2371763692
1922,13,Improv_Metronome,202,1,48,100,2371769500
1922,13,Improv_Metronome,203,1,48,97,2372020696
1922,13,Improv_Metronome,204,1,48,92,2372262656
1922,13,Improv_Metronome,205,5,42,127,2372264236
1922,13,Improv_Metronome,206,1,38,69,2372269744
1922,13,Improv_Metronome,207,1,48,102,2372506952
1922,13,Improv_Metronome,208,5,42,127,2372764016
1922,13,Improv_Metronome,209,1,48,117,2372768180
1922,13,Improv_Metronome,210,1,48,126,2373019452
1922,13,Improv_Metronome,211,5,42,127,2373263676
1922,13,Improv_Metronome,212,1,38,105,2373266412
1922,13,Improv_Metronome,213,1,48,127,2373269532
1922,13,Improv_Metronome,214,1,48,103,2373523840
1922,13,Improv_Metronome,215,5,42,127,2373763580
1922,13,Improv_Metronome,216,1,48,113,2373773040
1922,13,Improv_Metronome,217,1,48,106,2374036788
1922,13,Improv_Metronome,218,5,42,127,2374264056
1922,13,Improv_Metronome,219,1,38,105,2374276652
1922,13,Improv_Metronome,220,1,48,125,2374281416
1922,13,Improv_Metronome,221,1,48,93,2374534452
1922,13,Improv_Metronome,222,5,42,127,2374763812
1922,13,Improv_Metronome,223,1,38,108,2374776708
1922,13,Improv_Metronome,224,1,48,125,2374784232
1922,13,Improv_Metronome,225,1,48,86,2375047280
1922,13,Improv_Metronome,226,5,42,127,2375263572
1922,13,Improv_Metronome,227,1,48,107,2375302076
1922,13,Improv_Metronome,228,1,38,108,2375545212
1922,13,Improv_Metronome,229,1,48,122,2375548332
1922,13,Improv_Metronome,230,5,42,127,2375764592
1922,13,Improv_Metronome,231,1,48,88,2375800868
1922,13,Improv_Metronome,232,1,48,106,2376046312
1922,13,Improv_Metronome,233,5,42,127,2376264172
1922,13,Improv_Metronome,234,1,38,105,2376292900
1922,13,Improv_Metronome,235,1,48,119,2376296164
1922,13,Improv_Metronome,236,1,48,80,2376536216
1922,13,Improv_Metronome,237,5,42,127,2376763684
1922,13,Improv_Metronome,238,1,48,127,2376785708
1922,13,Improv_Metronome,239,1,38,95,2376790548
1922,13,Improv_Metronome,240,1,48,54,2377037760
1922,13,Improv_Metronome,241,5,42,127,2377263736
1922,13,Improv_Metronome,242,1,48,92,2377303244
1922,13,Improv_Metronome,243,1,38,121,2377526860
1922,13,Improv_Metronome,244,1,48,127,2377540320
1922,13,Improv_Metronome,245,5,42,127,2377764400
1922,13,Improv_Metronome,246,1,48,106,2377778272
1922,13,Improv_Metronome,247,1,48,104,2378029544
1922,13,Improv_Metronome,248,5,42,127,2378263904
1922,13,Improv_Metronome,249,1,38,100,2378276428
1922,13,Improv_Metronome,250,1,48,110,2378280740
1922,13,Improv_Metronome,251,1,48,81,2378517496
1922,13,Improv_Metronome,252,1,48,65,2378750924
1922,13,Improv_Metronome,253,1,38,106,2378755012
1922,13,Improv_Metronome,254,5,42,127,2378763784
1922,13,Improv_Metronome,255,1,48,55,2379017484
1922,13,Improv_Metronome,256,1,48,96,2379263260
1922,13,Improv_Metronome,257,5,42,127,2379265132
1922,13,Improv_Metronome,258,1,48,117,2379498172
1922,13,Improv_Metronome,259,1,38,127,2379512488
1922,13,Improv_Metronome,260,5,42,127,2379764220
1922,13,Improv_Metronome,261,1,48,105,2379775992
1922,13,Improv_Metronome,262,1,48,127,2380010468
1922,13,Improv_Metronome,263,1,48,127,2380259280
1922,13,Improv_Metronome,264,5,42,127,2380263720
1922,13,Improv_Metronome,265,1,38,101,2380275124
1922,13,Improv_Metronome,266,1,48,103,2380522936
1922,13,Improv_Metronome,267,1,48,123,2380759352
1922,13,Improv_Metronome,268,5,42,127,2380763640
1922,13,Improv_Metronome,269,1,38,110,2380772952
1922,13,Improv_Metronome,270,1,48,96,2381032804
1922,13,Improv_Metronome,271,5,42,127,2381264180
1922,13,Improv_Metronome,272,1,48,127,2381281484
1922,13,Improv_Metronome,273,1,48,124,2381511324
1922,13,Improv_Metronome,274,1,38,121,2381518768
1922,13,Improv_Metronome,275,5,42,127,2381763936
1922,13,Improv_Metronome,276,1,48,103,2381766976
1922,13,Improv_Metronome,277,1,48,117,2382019144
1922,13,Improv_Metronome,278,1,48,113,2382258992
1922,13,Improv_Metronome,279,5,42,127,2382263508
1922,13,Improv_Metronome,280,1,38,98,2382278420
1922,13,Improv_Metronome,281,1,48,103,2382511672
1922,13,Improv_Metronome,282,1,48,119,2382752868
1922,13,Improv_Metronome,283,1,38,103,2382756060
1922,13,Improv_Metronome,284,5,42,127,2382764380
1922,13,Improv_Metronome,285,1,48,94,2383016656
1922,13,Improv_Metronome,286,1,48,107,2383256428
1922,13,Improv_Metronome,287,5,42,127,2383264232
1922,13,Improv_Metronome,288,1,48,127,2383495404
1922,13,Improv_Metronome,289,1,38,88,2383506588
1922,13,Improv_Metronome,290,1,48,117,2383759320
1922,13,Improv_Metronome,291,5,42,127,2383763912
1922,13,Improv_Metronome,292,1,48,118,2384011960
1922,13,Improv_Metronome,293,1,48,114,2384262060
1922,13,Improv_Metronome,294,5,42,127,2384263640
1922,13,Improv_Metronome,295,1,38,118,2384271464
1922,13,Improv_Metronome,296,1,48,114,2384510240
1922,13,Improv_Metronome,297,1,48,105,2384761064
1922,13,Improv_Metronome,298,5,42,127,2384764232
1922,13,Improv_Metronome,299,1,38,115,2384773172
1922,13,Improv_Metronome,300,1,48,101,2385021656
1922,13,Improv_Metronome,301,5,42,127,2385264156
1922,13,Improv_Metronome,302,1,48,96,2385265344
1922,13,Improv_Metronome,303,1,48,116,2385519968
1922,13,Improv_Metronome,304,1,38,112,2385524876
1922,13,Improv_Metronome,305,5,42,127,2385763616
1922,13,Improv_Metronome,306,1,48,111,2385774648
1922,13,Improv_Metronome,307,1,48,117,2386024052
1922,13,Improv_Metronome,308,1,48,98,2386262352
1922,13,Improv_Metronome,309,5,42,127,2386264312
1922,13,Improv_Metronome,310,1,38,102,2386275716
1922,13,Improv_Metronome,311,1,48,98,2386520016
1922,13,Improv_Metronome,312,5,42,127,2386764164
1922,13,Improv_Metronome,313,1,48,123,2386767424
1922,13,Improv_Metronome,314,1,38,90,2386784508
1922,13,Improv_Metronome,315,1,48,109,2387033736
1922,13,Improv_Metronome,316,5,42,127,2387263920
1922,13,Improv_Metronome,317,1,48,96,2387272336
1922,13,Improv_Metronome,318,1,48,94,2387515368
1922,13,Improv_Metronome,319,1,38,114,2387521936
1922,13,Improv_Metronome,320,5,42,127,2387763564
1922,13,Improv_Metronome,321,1,48,107,2387770416
1922,13,Improv_Metronome,322,1,48,86,2388022508
1922,13,Improv_Metronome,323,5,42,127,2388264264
1922,13,Improv_Metronome,324,1,48,82,2388275964
1922,13,Improv_Metronome,325,1,38,104,2388288532
1922,13,Improv_Metronome,326,1,48,102,2388539852
1922,13,Improv_Metronome,327,5,42,127,2388763956
1922,13,Improv_Metronome,328,1,38,95,2388775656
1922,13,Improv_Metronome,329,1,48,103,2388783108
1922,13,Improv_Metronome,330,1,48,83,2389036520
1922,13,Improv_Metronome,331,5,42,127,2389263936
1922,13,Improv_Metronome,332,1,48,78,2389289972
1922,13,Improv_Metronome,333,1,38,109,2389536848
1922,13,Improv_Metronome,334,1,48,127,2389540036
1922,13,Improv_Metronome,335,5,42,127,2389763396
1922,13,Improv_Metronome,336,1,48,102,2389784356
1922,13,Improv_Metronome,337,1,48,110,2390022936
1922,13,Improv_Metronome,338,5,42,127,2390264244
1922,13,Improv_Metronome,339,1,48,116,2390274824
1922,13,Improv_Metronome,340,1,38,95,2390278244
1922,13,Improv_Metronome,341,1,48,47,2390530608
1922,13,Improv_Metronome,342,5,42,127,2390763852
1922,13,Improv_Metronome,343,1,48,48,2390780260
1922,13,Improv_Metronome,344,1,48,115,2391020556
1922,13,Improv_Metronome,345,1,38,99,2391024940
1922,13,Improv_Metronome,346,1,48,78,2391259832
1922,13,Improv_Metronome,347,5,42,127,2391264044
1922,13,Improv_Metronome,348,1,48,83,2391530316
1922,13,Improv_Metronome,349,1,38,19,2391540304
1922,13,Improv_Metronome,350,5,42,127,2391764332
1922,13,Improv_Metronome,351,1,48,110,2391780740
1922,13,Improv_Metronome,352,1,38,94,2391783328
1922,13,Improv_Metronome,353,1,48,120,2392033832
1922,13,Improv_Metronome,354,5,42,127,2392263940
1922,13,Improv_Metronome,355,1,48,127,2392269072
1922,13,Improv_Metronome,356,1,38,106,2392272336
1922,13,Improv_Metronome,357,1,48,115,2392525300
1922,13,Improv_Metronome,358,5,42,127,2392763844
1922,13,Improv_Metronome,359,1,48,101,2392783536
1922,13,Improv_Metronome,360,1,48,103,2393033172
1922,13,Improv_Metronome,361,1,38,93,2393037480
1922,13,Improv_Metronome,362,5,42,127,2393263604
1922,13,Improv_Metronome,363,1,48,105,2393279640
1922,13,Improv_Metronome,364,1,48,108,2393525536
1922,13,Improv_Metronome,365,1,48,127,2393762876
1922,13,Improv_Metronome,366,5,42,127,2393764668
1922,13,Improv_Metronome,367,1,38,97,2393768680
1922,13,Improv_Metronome,368,1,48,86,2394027692
1922,13,Improv_Metronome,369,5,42,127,2394263848
1922,13,Improv_Metronome,370,1,48,120,2394272040
1922,13,Improv_Metronome,371,1,38,110,2394292480
1922,13,Improv_Metronome,372,1,48,108,2394537972
1922,13,Improv_Metronome,373,5,42,127,2394763680
1922,13,Improv_Metronome,374,1,48,108,2394787028
1922,13,Improv_Metronome,375,1,38,82,2395027476
1922,13,Improv_Metronome,376,1,48,127,2395030668
1922,13,Improv_Metronome,377,5,42,127,2395264256
1922,13,Improv_Metronome,378,1,48,101,2395274616
1922,13,Improv_Metronome,379,1,48,102,2395527904
1922,13,Improv_Metronome,380,5,42,127,2395764060
1922,13,Improv_Metronome,381,1,48,122,2395766724
1922,13,Improv_Metronome,382,1,38,107,2395769840
1922,13,Improv_Metronome,383,1,48,117,2396010484
1922,13,Improv_Metronome,384,1,48,127,2396256536
1922,13,Improv_Metronome,385,5,42,127,2396263736
1922,13,Improv_Metronome,386,1,38,94,2396266400
1922,13,Improv_Metronome,387,1,48,121,2396502640
1922,13,Improv_Metronome,388,1,48,111,2396758320
1922,13,Improv_Metronome,389,5,42,127,2396763580
1922,13,Improv_Metronome,390,1,48,124,2397009020
1922,13,Improv_Metronome,391,1,38,105,2397017364
1922,13,Improv_Metronome,392,1,48,109,2397251580
1922,13,Improv_Metronome,393,5,42,127,2397264236
1922,13,Improv_Metronome,394,1,48,108,2397508548
1922,13,Improv_Metronome,395,1,38,75,2397759828
1922,13,Improv_Metronome,396,1,48,104,2397762368
1922,13,Improv_Metronome,397,5,42,127,2397764392
1922,13,Improv_Metronome,398,1,48,67,2398015396
1922,13,Improv_Metronome,399,5,42,127,2398263556
1922,13,Improv_Metronome,400,1,48,121,2398270504
1922,13,Improv_Metronome,401,1,38,113,2398280116
1922,13,Improv_Metronome,402,1,48,103,2398513936
1922,13,Improv_Metronome,403,5,42,127,2398764508
1922,13,Improv_Metronome,404,1,48,92,2398780940
1922,13,Improv_Metronome,405,1,48,95,2399033608
1922,13,Improv_Metronome,406,5,42,127,2399264236
1922,13,Improv_Metronome,407,1,48,127,2399268396
1922,13,Improv_Metronome,408,1,38,111,2399275620
1922,13,Improv_Metronome,409,1,48,105,2399517304
1922,13,Improv_Metronome,410,5,42,127,2399763692
1922,13,Improv_Metronome,411,1,48,116,2399770388
1922,13,Improv_Metronome,412,1,48,104,2400006656
1922,13,Improv_Metronome,413,1,48,113,2400245984
1922,13,Improv_Metronome,414,5,42,127,2400263488
1922,13,Improv_Metronome,415,1,38,114,2400264528
1922,13,Improv_Metronome,416,1,48,92,2400500600
1922,13,Improv_Metronome,417,1,48,97,2400753292
1922,13,Improv_Metronome,418,5,42,127,2400764452
1922,13,Improv_Metronome,419,1,48,104,2401010788
1922,13,Improv_Metronome,420,1,48,127,2401253244
1922,13,Improv_Metronome,421,1,38,97,2401260548
1922,13,Improv_Metronome,422,5,42,127,2401263940
1922,13,Improv_Metronome,423,1,48,113,2401502624
1922,13,Improv_Metronome,424,1,48,100,2401761832
1922,13,Improv_Metronome,425,5,42,127,2401763568
1922,13,Improv_Metronome,426,1,48,111,2401993768
1922,13,Improv_Metronome,427,1,48,127,2402246456
1922,13,Improv_Metronome,428,1,38,103,2402256372
1922,13,Improv_Metronome,429,5,42,127,2402264396
1922,13,Improv_Metronome,430,1,48,104,2402493148
1922,13,Improv_Metronome,431,1,48,122,2402742032
1922,13,Improv_Metronome,432,5,42,127,2402764244
1922,13,Improv_Metronome,433,1,48,100,2402993328
1922,13,Improv_Metronome,434,1,48,127,2403253188
1922,13,Improv_Metronome,435,5,42,127,2403263756
1922,13,Improv_Metronome,436,1,38,78,2403266492
1922,13,Improv_Metronome,437,1,48,121,2403503408
1922,13,Improv_Metronome,438,1,48,122,2403759832
1922,13,Improv_Metronome,439,5,42,127,2403763600
1922,13,Improv_Metronome,440,1,48,104,2403996188
1922,13,Improv_Metronome,441,1,48,121,2404246644
1922,13,Improv_Metronome,442,1,38,127,2404254460
1922,13,Improv_Metronome,443,5,42,127,2404264280
1922,13,Improv_Metronome,444,1,48,84,2404501772
1922,13,Improv_Metronome,445,5,42,127,2404764208
1922,13,Improv_Metronome,446,1,48,106,2404768444
1922,13,Improv_Metronome,447,1,48,109,2405009420
1922,13,Improv_Metronome,448,1,48,127,2405255084
1922,13,Improv_Metronome,449,1,38,112,2405258356
1922,13,Improv_Metronome,450,5,42,127,2405263840
1922,13,Improv_Metronome,451,1,48,118,2405495060
1922,13,Improv_Metronome,452,1,48,113,2405755516
1922,13,Improv_Metronome,453,5,42,127,2405763316
1922,13,Improv_Metronome,454,1,48,116,2406003152
1922,13,Improv_Metronome,455,1,48,127,2406248828
1922,13,Improv_Metronome,456,1,38,98,2406258740
1922,13,Improv_Metronome,457,5,42,127,2406264372
1922,13,Improv_Metronome,458,1,48,90,2406492080
1922,13,Improv_Metronome,459,1,48,98,2406742536
1922,13,Improv_Metronome,460,5,42,127,2406764148
1922,13,Improv_Metronome,461,1,48,125,2406978972
1922,13,Improv_Metronome,462,1,38,127,2406983280
1922,13,Improv_Metronome,463,1,48,111,2407241996
1922,13,Improv_Metronome,464,5,42,127,2407263536
1922,13,Improv_Metronome,465,1,48,85,2407492392
1922,13,Improv_Metronome,466,1,48,123,2407747776
1922,13,Improv_Metronome,467,1,38,101,2407752160
1922,13,Improv_Metronome,468,5,42,127,2407764288
1922,13,Improv_Metronome,469,1,48,96,2408003800
1922,13,Improv_Metronome,470,1,48,100,2408252084
1922,13,Improv_Metronome,471,1,38,127,2408255348
1922,13,Improv_Metronome,472,5,42,127,2408264048
1922,13,Improv_Metronome,473,1,48,118,2408502184
1922,13,Improv_Metronome,474,1,48,92,2408761000
1922,13,Improv_Metronome,475,5,42,127,2408763896
1922,13,Improv_Metronome,476,1,38,116,2409013564
1922,13,Improv_Metronome,477,1,48,104,2409016080
1922,13,Improv_Metronome,478,5,42,127,2409263412
1922,13,Improv_Metronome,479,1,48,119,2409270336
1922,13,Improv_Metronome,480,1,48,104,2409519064
1922,13,Improv_Metronome,481,5,42,127,2409764184
1922,13,Improv_Metronome,482,1,48,93,2409765148
1922,13,Improv_Metronome,483,1,38,119,2409768860
1922,13,Improv_Metronome,484,1,48,102,2410009132
1922,13,Improv_Metronome,485,1,48,126,2410250252
1922,13,Improv_Metronome,486,1,38,119,2410261352
1922,13,Improv_Metronome,487,5,42,127,2410264300
1922,13,Improv_Metronome,488,1,48,119,2410514412
1922,13,Improv_Metronome,489,1,48,99,2410761444
1922,13,Improv_Metronome,490,5,42,127,2410763556
1922,13,Improv_Metronome,491,1,38,122,2410766596
1922,13,Improv_Metronome,492,1,48,98,2411019412
1922,13,Improv_Metronome,493,5,42,127,2411264228
1922,13,Improv_Metronome,494,1,48,116,2411272492
1922,13,Improv_Metronome,495,1,38,92,2411275008
1922,13,Improv_Metronome,496,1,48,114,2411521256
1922,13,Improv_Metronome,497,5,42,127,2411764132
1922,13,Improv_Metronome,498,1,48,101,2411777328
1922,13,Improv_Metronome,499,1,38,105,2411794032
1922,13,Improv_Metronome,500,1,48,117,2412020864
1922,13,Improv_Metronome,501,1,48,127,2412257356
1922,13,Improv_Metronome,0,9999,9999,9999,2342261828
1922,13,Improv_Metronome,1,9999,9999,9999,2342761524
1922,13,Improv_Metronome,2,9999,9999,9999,2343261296
1922,13,Improv_Metronome,3,9999,9999,9999,2343762040
1922,13,Improv_Metronome,4,9999,9999,9999,2344261736
1922,13,Improv_Metronome,5,9999,9999,9999,2344761408
1922,13,Improv_Metronome,6,9999,9999,9999,2345261108
1922,13,Improv_Metronome,7,9999,9999,9999,2345761852
1922,13,Improv_Metronome,8,9999,9999,9999,2346261596
1922,13,Improv_Metronome,9,9999,9999,9999,2346761300
1922,13,Improv_Metronome,10,9999,9999,9999,2347262052
1922,13,Improv_Metronome,11,9999,9999,9999,2347761768
1922,13,Improv_Metronome,12,9999,9999,9999,2348261476
1922,13,Improv_Metronome,13,9999,9999,9999,2348761180
1922,13,Improv_Metronome,14,9999,9999,9999,2349261884
1922,13,Improv_Metronome,15,9999,9999,9999,2349761656
1922,13,Improv_Metronome,16,9999,9999,9999,2350261308
1922,13,Improv_Metronome,17,9999,9999,9999,2350762048
1922,13,Improv_Metronome,18,9999,9999,9999,2351261752
1922,13,Improv_Metronome,19,9999,9999,9999,2351761528
1922,13,Improv_Metronome,20,9999,9999,9999,2352261240
1922,13,Improv_Metronome,21,9999,9999,9999,2352761912
1922,13,Improv_Metronome,22,9999,9999,9999,2353261620
1922,13,Improv_Metronome,23,9999,9999,9999,2353761328
1922,13,Improv_Metronome,24,9999,9999,9999,2354262076
1922,13,Improv_Metronome,25,9999,9999,9999,2354761780
1922,13,Improv_Metronome,26,9999,9999,9999,2355261544
1922,13,Improv_Metronome,27,9999,9999,9999,2355761216
1922,13,Improv_Metronome,28,9999,9999,9999,2356261944
1922,13,Improv_Metronome,29,9999,9999,9999,2356761648
1922,13,Improv_Metronome,30,9999,9999,9999,2357261372
1922,13,Improv_Metronome,31,9999,9999,9999,2357761076
1922,13,Improv_Metronome,32,9999,9999,9999,2358261848
1922,13,Improv_Metronome,33,9999,9999,9999,2358761528
1922,13,Improv_Metronome,34,9999,9999,9999,2359261324
1922,13,Improv_Metronome,35,9999,9999,9999,2359762040
1922,13,Improv_Metronome,36,9999,9999,9999,2360261704
1922,13,Improv_Metronome,37,9999,9999,9999,2360761460
1922,13,Improv_Metronome,38,9999,9999,9999,2361261116
1922,13,Improv_Metronome,39,9999,9999,9999,2361761844
1922,13,Improv_Metronome,40,9999,9999,9999,2362261572
1922,13,Improv_Metronome,41,9999,9999,9999,2362761328
1922,13,Improv_Metronome,42,9999,9999,9999,2363262032
1922,13,Improv_Metronome,43,9999,9999,9999,2363761772
1922,13,Improv_Metronome,44,9999,9999,9999,2364261440
1922,13,Improv_Metronome,45,9999,9999,9999,2364761144
1922,13,Improv_Metronome,46,9999,9999,9999,2365261876
1922,13,Improv_Metronome,47,9999,9999,9999,2365761612
1922,13,Improv_Metronome,48,9999,9999,9999,2366261336
1922,13,Improv_Metronome,49,9999,9999,9999,2366762080
1922,13,Improv_Metronome,50,9999,9999,9999,2367261744
1922,13,Improv_Metronome,51,9999,9999,9999,2367761512
1922,13,Improv_Metronome,52,9999,9999,9999,2368261240
1922,13,Improv_Metronome,53,9999,9999,9999,2368761968
1922,13,Improv_Metronome,54,9999,9999,9999,2369261620
1922,13,Improv_Metronome,55,9999,9999,9999,2369761376
1922,13,Improv_Metronome,56,9999,9999,9999,2370262076
1922,13,Improv_Metronome,57,9999,9999,9999,2370761848
1922,13,Improv_Metronome,58,9999,9999,9999,2371261504
1922,13,Improv_Metronome,59,9999,9999,9999,2371761260
1922,13,Improv_Metronome,60,9999,9999,9999,2372261968
1922,13,Improv_Metronome,61,9999,9999,9999,2372761660
1922,13,Improv_Metronome,62,9999,9999,9999,2373261392
1922,13,Improv_Metronome,63,9999,9999,9999,2373761072
1922,13,Improv_Metronome,64,9999,9999,9999,2374261848
1922,13,Improv_Metronome,65,9999,9999,9999,2374761532
1922,13,Improv_Metronome,66,9999,9999,9999,2375261288
1922,13,Improv_Metronome,67,9999,9999,9999,2375762012
1922,13,Improv_Metronome,68,9999,9999,9999,2376261744
1922,13,Improv_Metronome,69,9999,9999,9999,2376761400
1922,13,Improv_Metronome,70,9999,9999,9999,2377261156
1922,13,Improv_Metronome,71,9999,9999,9999,2377761896
1922,13,Improv_Metronome,72,9999,9999,9999,2378261624
1922,13,Improv_Metronome,73,9999,9999,9999,2378761280
1922,13,Improv_Metronome,74,9999,9999,9999,2379262032
1922,13,Improv_Metronome,75,9999,9999,9999,2379761716
1922,13,Improv_Metronome,76,9999,9999,9999,2380261440
1922,13,Improv_Metronome,77,9999,9999,9999,2380761208
1922,13,Improv_Metronome,78,9999,9999,9999,2381261896
1922,13,Improv_Metronome,79,9999,9999,9999,2381761652
1922,13,Improv_Metronome,80,9999,9999,9999,2382261300
1922,13,Improv_Metronome,81,9999,9999,9999,2382762096
1922,13,Improv_Metronome,82,9999,9999,9999,2383261800
1922,13,Improv_Metronome,83,9999,9999,9999,2383761480
1922,13,Improv_Metronome,84,9999,9999,9999,2384261216
1922,13,Improv_Metronome,85,9999,9999,9999,2384761948
1922,13,Improv_Metronome,86,9999,9999,9999,2385261652
1922,13,Improv_Metronome,87,9999,9999,9999,2385761336
1922,13,Improv_Metronome,88,9999,9999,9999,2386262068
1922,13,Improv_Metronome,89,9999,9999,9999,2386761804
1922,13,Improv_Metronome,90,9999,9999,9999,2387261488
1922,13,Improv_Metronome,91,9999,9999,9999,2387761208
1922,13,Improv_Metronome,92,9999,9999,9999,2388261980
1922,13,Improv_Metronome,93,9999,9999,9999,2388761676
1922,13,Improv_Metronome,94,9999,9999,9999,2389261428
1922,13,Improv_Metronome,95,9999,9999,9999,2389761112
1922,13,Improv_Metronome,96,9999,9999,9999,2390261812
1922,13,Improv_Metronome,97,9999,9999,9999,2390761568
1922,13,Improv_Metronome,98,9999,9999,9999,2391261244
1922,13,Improv_Metronome,99,9999,9999,9999,2391761976
1922,13,Improv_Metronome,100,9999,9999,9999,2392261732
1922,13,Improv_Metronome,101,9999,9999,9999,2392761412
1922,13,Improv_Metronome,102,9999,9999,9999,2393261172
1922,13,Improv_Metronome,103,9999,9999,9999,2393761872
1922,13,Improv_Metronome,104,9999,9999,9999,2394261564
1922,13,Improv_Metronome,105,9999,9999,9999,2394761320
1922,13,Improv_Metronome,106,9999,9999,9999,2395262048
1922,13,Improv_Metronome,107,9999,9999,9999,2395761776
1922,13,Improv_Metronome,108,9999,9999,9999,2396261456
1922,13,Improv_Metronome,109,9999,9999,9999,2396761148
1922,13,Improv_Metronome,110,9999,9999,9999,2397261880
1922,13,Improv_Metronome,111,9999,9999,9999,2397761608
1922,13,Improv_Metronome,112,9999,9999,9999,2398261344
1922,13,Improv_Metronome,113,9999,9999,9999,2398762076
1922,13,Improv_Metronome,114,9999,9999,9999,2399261804
1922,13,Improv_Metronome,115,9999,9999,9999,2399761484
1922,13,Improv_Metronome,116,9999,9999,9999,2400261208
1922,13,Improv_Metronome,117,9999,9999,9999,2400761944
1922,13,Improv_Metronome,118,9999,9999,9999,2401261656
1922,13,Improv_Metronome,119,9999,9999,9999,2401761384
1922,13,Improv_Metronome,120,9999,9999,9999,2402262112
1922,13,Improv_Metronome,121,9999,9999,9999,2402761816
1922,13,Improv_Metronome,122,9999,9999,9999,2403261548
1922,13,Improv_Metronome,123,9999,9999,9999,2403761244
1922,13,Improv_Metronome,124,9999,9999,9999,2404261996
1922,13,Improv_Metronome,125,9999,9999,9999,2404761704
1922,13,Improv_Metronome,126,9999,9999,9999,2405261408
1922,13,Improv_Metronome,127,9999,9999,9999,2405761108
1922,13,Improv_Metronome,128,9999,9999,9999,2406261864
1922,13,Improv_Metronome,129,9999,9999,9999,2406761568
1922,13,Improv_Metronome,130,9999,9999,9999,2407261252
1922,13,Improv_Metronome,131,9999,9999,9999,2407762008
1922,13,Improv_Metronome,132,9999,9999,9999,2408261692
1922,13,Improv_Metronome,133,9999,9999,9999,2408761464
1922,13,Improv_Metronome,134,9999,9999,9999,2409261128
1922,13,Improv_Metronome,135,9999,9999,9999,2409761900
1922,13,Improv_Metronome,136,9999,9999,9999,2410261572
1922,13,Improv_Metronome,137,9999,9999,9999,2410761316
1922,13,Improv_Metronome,138,9999,9999,9999,2411262016
1922,13,Improv_Metronome,139,9999,9999,9999,2411761772
1923,14,Improv_Melody,0,2,48,80,2460709268
1923,14,Improv_Melody,1,2,72,80,2460711428
1923,14,Improv_Melody,2,5,42,127,2460713956
1923,14,Improv_Melody,3,5,42,110,2461206868
1923,14,Improv_Melody,4,5,42,110,2461706572
1923,14,Improv_Melody,5,5,42,110,2462207392
1923,14,Improv_Melody,6,5,42,127,2462706948
1923,14,Improv_Melody,7,5,42,110,2463206648
1923,14,Improv_Melody,8,5,42,110,2463706352
1923,14,Improv_Melody,9,5,42,110,2464207472
1923,14,Improv_Melody,10,2,43,80,2464709456
1923,14,Improv_Melody,11,2,67,80,2464711452
1923,14,Improv_Melody,12,5,42,127,2464714060
1923,14,Improv_Melody,13,5,42,110,2465206596
1923,14,Improv_Melody,14,5,42,110,2465707420
1923,14,Improv_Melody,15,5,42,110,2466207196
1923,14,Improv_Melody,16,5,42,127,2466706900
1923,14,Improv_Melody,17,5,42,110,2467206528
1923,14,Improv_Melody,18,5,42,110,2467707424
1923,14,Improv_Melody,19,5,42,110,2468207128
1923,14,Improv_Melody,20,2,45,80,2468709104
1923,14,Improv_Melody,21,2,69,80,2468711256
1923,14,Improv_Melody,22,5,42,127,2468713864
1923,14,Improv_Melody,23,5,42,110,2469207368
1923,14,Improv_Melody,24,5,42,110,2469707072
1923,14,Improv_Melody,25,5,42,110,2470206772
1923,14,Improv_Melody,26,5,42,127,2470706676
1923,14,Improv_Melody,27,5,42,110,2471207396
1923,14,Improv_Melody,28,5,42,110,2471707100
1923,14,Improv_Melody,29,5,42,110,2472206580
1923,14,Improv_Melody,30,2,41,80,2472709080
1923,14,Improv_Melody,31,2,65,80,2472710932
1923,14,Improv_Melody,32,5,42,127,2472713392
1923,14,Improv_Melody,33,5,42,110,2473207120
1923,14,Improv_Melody,34,5,42,110,2473707120
1923,14,Improv_Melody,35,5,42,110,2474206600
1923,14,Improv_Melody,36,5,42,127,2474707420
1923,14,Improv_Melody,37,5,42,110,2475207048
1923,14,Improv_Melody,38,5,42,110,2475706828
1923,14,Improv_Melody,39,5,42,110,2476206380
1923,14,Improv_Melody,40,1,48,88,2476676320
1923,14,Improv_Melody,41,1,38,68,2476693248
1923,14,Improv_Melody,42,2,48,80,2476709752
1923,14,Improv_Melody,43,2,72,80,2476711824
1923,14,Improv_Melody,44,5,42,127,2476714580
1923,14,Improv_Melody,45,1,48,80,2476939308
1923,14,Improv_Melody,46,1,48,86,2477186400
1923,14,Improv_Melody,47,5,42,110,2477206824
1923,14,Improv_Melody,48,1,48,80,2477422536
1923,14,Improv_Melody,49,1,48,103,2477685912
1923,14,Improv_Melody,50,1,38,96,2477693804
1923,14,Improv_Melody,51,5,42,110,2477706760
1923,14,Improv_Melody,52,1,48,104,2477936188
1923,14,Improv_Melody,53,1,48,105,2478197096
1923,14,Improv_Melody,54,5,42,110,2478207216
1923,14,Improv_Melody,55,1,48,97,2478445104
1923,14,Improv_Melody,56,1,48,107,2478693768
1923,14,Improv_Melody,57,1,38,91,2478699272
1923,14,Improv_Melody,58,5,42,127,2478707080
1923,14,Improv_Melody,59,1,48,103,2478944120
1923,14,Improv_Melody,60,1,48,71,2479189940
1923,14,Improv_Melody,61,5,42,110,2479206636
1923,14,Improv_Melody,62,1,48,85,2479416456
1923,14,Improv_Melody,63,1,48,119,2479682360
1923,14,Improv_Melody,64,1,38,99,2479690260
1923,14,Improv_Melody,65,5,42,110,2479706648
1923,14,Improv_Melody,66,1,48,112,2479930480
1923,14,Improv_Melody,67,1,48,125,2480188624
1923,14,Improv_Melody,68,1,38,79,2480205124
1923,14,Improv_Melody,69,5,42,110,2480207984
1923,14,Improv_Melody,70,1,48,116,2480447040
1923,14,Improv_Melody,71,2,43,80,2480709676
1923,14,Improv_Melody,72,2,67,80,2480711592
1923,14,Improv_Melody,73,1,38,121,2480713756
1923,14,Improv_Melody,74,5,42,127,2480716436
1923,14,Improv_Melody,75,1,48,117,2480717328
1923,14,Improv_Melody,76,1,48,97,2480965272
1923,14,Improv_Melody,77,5,42,110,2481206736
1923,14,Improv_Melody,78,1,48,106,2481225984
1923,14,Improv_Melody,79,1,48,92,2481476956
1923,14,Improv_Melody,80,5,42,110,2481707568
1923,14,Improv_Melody,81,1,48,93,2481716980
1923,14,Improv_Melody,82,1,38,101,2481736824
1923,14,Improv_Melody,83,1,48,73,2481964968
1923,14,Improv_Melody,84,5,42,110,2482207032
1923,14,Improv_Melody,85,1,48,88,2482220748
1923,14,Improv_Melody,86,1,48,100,2482447152
1923,14,Improv_Melody,87,1,48,94,2482694252
1923,14,Improv_Melody,88,1,38,89,2482698036
1923,14,Improv_Melody,89,5,42,127,2482706812
1923,14,Improv_Melody,90,1,48,112,2482946100
1923,14,Improv_Melody,91,1,48,108,2483198788
1923,14,Improv_Melody,92,5,42,110,2483206444
1923,14,Improv_Melody,93,1,48,89,2483451580
1923,14,Improv_Melody,94,1,48,122,2483694940
1923,14,Improv_Melody,95,1,38,105,2483698204
1923,14,Improv_Melody,96,5,42,110,2483707204
1923,14,Improv_Melody,97,1,48,109,2483945964
1923,14,Improv_Melody,98,1,48,127,2484198132
1923,14,Improv_Melody,99,5,42,110,2484206984
1923,14,Improv_Melody,100,1,38,79,2484216444
1923,14,Improv_Melody,101,1,48,109,2484453432
1923,14,Improv_Melody,102,2,45,80,2484708964
1923,14,Improv_Melody,103,2,69,80,2484711336
1923,14,Improv_Melody,104,1,48,117,2484712456
1923,14,Improv_Melody,105,1,38,114,2484713104
1923,14,Improv_Melody,106,5,42,127,2484718176
1923,14,Improv_Melody,107,1,48,97,2484960972
1923,14,Improv_Melody,108,5,42,110,2485207512
1923,14,Improv_Melody,109,1,48,98,2485222124
1923,14,Improv_Melody,110,1,48,80,2485471388
1923,14,Improv_Melody,111,1,48,80,2485698460
1923,14,Improv_Melody,112,1,38,76,2485705712
1923,14,Improv_Melody,113,5,42,110,2485708636
1923,14,Improv_Melody,114,1,48,95,2485947996
1923,14,Improv_Melody,115,5,42,110,2486206784
1923,14,Improv_Melody,116,1,48,100,2486210944
1923,14,Improv_Melody,117,1,48,104,2486450792
1923,14,Improv_Melody,118,1,48,112,2486700572
1923,14,Improv_Melody,119,5,42,127,2486706660
1923,14,Improv_Melody,120,1,38,99,2486710376
1923,14,Improv_Melody,121,1,48,107,2486951240
1923,14,Improv_Melody,122,1,48,103,2487205216
1923,14,Improv_Melody,123,5,42,110,2487207180
1923,14,Improv_Melody,124,1,48,102,2487450152
1923,14,Improv_Melody,125,1,48,121,2487700228
1923,14,Improv_Melody,126,1,38,98,2487704540
1923,14,Improv_Melody,127,5,42,110,2487708092
1923,14,Improv_Melody,128,1,48,105,2487956036
1923,14,Improv_Melody,129,1,48,98,2488201712
1923,14,Improv_Melody,130,5,42,110,2488206756
1923,14,Improv_Melody,131,1,38,92,2488209424
1923,14,Improv_Melody,132,1,48,112,2488473812
1923,14,Improv_Melody,133,2,41,80,2488709112
1923,14,Improv_Melody,134,2,65,80,2488711188
1923,14,Improv_Melody,135,5,42,127,2488713644
1923,14,Improv_Melody,136,1,48,122,2488723176
1923,14,Improv_Melody,137,1,38,98,2488730400
1923,14,Improv_Melody,138,1,48,106,2488992032
1923,14,Improv_Melody,139,5,42,110,2489207280
1923,14,Improv_Melody,140,1,48,115,2489245192
1923,14,Improv_Melody,141,1,48,91,2489480112
1923,14,Improv_Melody,142,5,42,110,2489706940
1923,14,Improv_Melody,143,1,48,118,2489731192
1923,14,Improv_Melody,144,1,38,104,2489754020
1923,14,Improv_Melody,145,1,48,108,2489988464
1923,14,Improv_Melody,146,5,42,110,2490206628
1923,14,Improv_Melody,147,1,48,88,2490238268
1923,14,Improv_Melody,148,1,48,70,2490488948
1923,14,Improv_Melody,149,5,42,127,2490707184
1923,14,Improv_Melody,150,1,48,100,2490727320
1923,14,Improv_Melody,151,1,38,95,2490735216
1923,14,Improv_Melody,152,1,48,92,2490973696
1923,14,Improv_Melody,153,5,42,110,2491206944
1923,14,Improv_Melody,154,1,48,101,2491217004
1923,14,Improv_Melody,155,1,48,106,2491465740
1923,14,Improv_Melody,156,5,42,110,2491706608
1923,14,Improv_Melody,157,1,48,119,2491716216
1923,14,Improv_Melody,158,1,38,81,2491719932
1923,14,Improv_Melody,159,1,48,110,2491966772
1923,14,Improv_Melody,160,1,48,111,2492202120
1923,14,Improv_Melody,161,5,42,110,2492206560
1923,14,Improv_Melody,162,1,38,86,2492212388
1923,14,Improv_Melody,163,1,48,98,2492449048
1923,14,Improv_Melody,164,1,48,127,2492709888
1923,14,Improv_Melody,165,2,48,80,2492711452
1923,14,Improv_Melody,166,2,72,80,2492713300
1923,14,Improv_Melody,167,5,42,127,2492715904
1923,14,Improv_Melody,168,1,38,96,2492719988
1923,14,Improv_Melody,169,1,48,106,2492970044
1923,14,Improv_Melody,170,5,42,110,2493206876
1923,14,Improv_Melody,171,1,48,114,2493228360
1923,14,Improv_Melody,172,1,48,88,2493465368
1923,14,Improv_Melody,173,5,42,110,2493706684
1923,14,Improv_Melody,174,1,48,113,2493709352
1923,14,Improv_Melody,175,1,38,104,2493728744
1923,14,Improv_Melody,176,1,48,109,2493968792
1923,14,Improv_Melody,177,5,42,110,2494207264
1923,14,Improv_Melody,178,1,48,107,2494239276
1923,14,Improv_Melody,179,1,48,93,2494469644
1923,14,Improv_Melody,180,5,42,127,2494707000
1923,14,Improv_Melody,181,1,48,119,2494713324
1923,14,Improv_Melody,182,1,38,96,2494718236
1923,14,Improv_Melody,183,1,48,108,2494967536
1923,14,Improv_Melody,184,5,42,110,2495206984
1923,14,Improv_Melody,185,1,48,103,2495220780
1923,14,Improv_Melody,186,1,48,87,2495473916
1923,14,Improv_Melody,187,1,48,115,2495706124
1923,14,Improv_Melody,188,5,42,110,2495707980
1923,14,Improv_Melody,189,1,38,107,2495721024
1923,14,Improv_Melody,190,1,48,95,2495957632
1923,14,Improv_Melody,191,1,38,107,2496202708
1923,14,Improv_Melody,192,1,48,108,2496206016
1923,14,Improv_Melody,193,5,42,110,2496208036
1923,14,Improv_Melody,194,1,48,107,2496469420
1923,14,Improv_Melody,195,1,38,96,2496698964
1923,14,Improv_Melody,196,2,43,80,2496709724
1923,14,Improv_Melody,197,1,48,105,2496711880
1923,14,Improv_Melody,198,2,67,80,2496713512
1923,14,Improv_Melody,199,5,42,127,2496715976
1923,14,Improv_Melody,200,1,48,89,2496947640
1923,14,Improv_Melody,201,5,42,110,2497206576
1923,14,Improv_Melody,202,1,48,96,2497209620
1923,14,Improv_Melody,203,1,48,94,2497448344
1923,14,Improv_Melody,204,1,48,111,2497685808
1923,14,Improv_Melody,205,5,42,110,2497707500
1923,14,Improv_Melody,206,1,38,93,2497715016
1923,14,Improv_Melody,207,1,48,104,2497938264
1923,14,Improv_Melody,208,1,48,107,2498196560
1923,14,Improv_Melody,209,5,42,110,2498207052
1923,14,Improv_Melody,210,1,48,116,2498447412
1923,14,Improv_Melody,211,1,48,109,2498672996
1923,14,Improv_Melody,212,1,38,118,2498688732
1923,14,Improv_Melody,213,5,42,127,2498706768
1923,14,Improv_Melody,214,1,48,100,2498928056
1923,14,Improv_Melody,215,1,48,97,2499195900
1923,14,Improv_Melody,216,5,42,110,2499206696
1923,14,Improv_Melody,217,1,48,97,2499443920
1923,14,Improv_Melody,218,1,48,112,2499682872
1923,14,Improv_Melody,219,1,38,97,2499688304
1923,14,Improv_Melody,220,5,42,110,2499707532
1923,14,Improv_Melody,221,1,48,97,2499944876
1923,14,Improv_Melody,222,1,48,82,2500197496
1923,14,Improv_Melody,223,1,38,115,2500200764
1923,14,Improv_Melody,224,5,42,110,2500206924
1923,14,Improv_Melody,225,1,48,99,2500443296
1923,14,Improv_Melody,226,1,48,84,2500709136
1923,14,Improv_Melody,227,2,45,80,2500710928
1923,14,Improv_Melody,228,2,69,80,2500712700
1923,14,Improv_Melody,229,5,42,127,2500715228
1923,14,Improv_Melody,230,1,38,21,2500721404
1923,14,Improv_Melody,231,1,38,86,2500725868
1923,14,Improv_Melody,232,1,48,93,2500964716
1923,14,Improv_Melody,233,5,42,110,2501207452
1923,14,Improv_Melody,234,1,48,100,2501227888
1923,14,Improv_Melody,235,1,48,86,2501467664
1923,14,Improv_Melody,236,1,48,118,2501702356
1923,14,Improv_Melody,237,5,42,110,2501707252
1923,14,Improv_Melody,238,1,38,77,2501729484
1923,14,Improv_Melody,239,1,48,102,2501953172
1923,14,Improv_Melody,240,5,42,110,2502206884
1923,14,Improv_Melody,241,1,48,109,2502218212
1923,14,Improv_Melody,242,1,48,105,2502462388
1923,14,Improv_Melody,243,1,48,115,2502704476
1923,14,Improv_Melody,244,5,42,127,2502706460
1923,14,Improv_Melody,245,1,38,100,2502714432
1923,14,Improv_Melody,246,1,48,76,2502948696
1923,14,Improv_Melody,247,5,42,110,2503207484
1923,14,Improv_Melody,248,1,48,86,2503224812
1923,14,Improv_Melody,249,1,48,103,2503467476
1923,14,Improv_Melody,250,5,42,110,2503706920
1923,14,Improv_Melody,251,1,48,127,2503707888
1923,14,Improv_Melody,252,1,38,111,2503716152
1923,14,Improv_Melody,253,1,48,118,2503968892
1923,14,Improv_Melody,254,5,42,110,2504206696
1923,14,Improv_Melody,255,1,48,102,2504229596
1923,14,Improv_Melody,256,1,38,84,2504245068
1923,14,Improv_Melody,257,1,48,127,2504483596
1923,14,Improv_Melody,258,2,41,80,2504708816
1923,14,Improv_Melody,259,2,65,80,2504711196
1923,14,Improv_Melody,260,5,42,127,2504713724
1923,14,Improv_Melody,261,1,38,94,2504733940
1923,14,Improv_Melody,262,1,48,127,2504737280
1923,14,Improv_Melody,263,1,48,123,2504981432
1923,14,Improv_Melody,264,5,42,110,2505207288
1923,14,Improv_Melody,265,1,48,107,2505230492
1923,14,Improv_Melody,266,1,48,93,2505464292
1923,14,Improv_Melody,267,5,42,110,2505706876
1923,14,Improv_Melody,268,1,48,104,2505714244
1923,14,Improv_Melody,269,1,38,101,2505723484
1923,14,Improv_Melody,270,1,48,108,2505961888
1923,14,Improv_Melody,271,5,42,110,2506206488
1923,14,Improv_Melody,272,1,48,105,2506224532
1923,14,Improv_Melody,273,1,48,120,2506467448
1923,14,Improv_Melody,274,5,42,127,2506707488
1923,14,Improv_Melody,275,1,48,109,2506709424
1923,14,Improv_Melody,276,1,38,74,2506712244
1923,14,Improv_Melody,277,1,48,98,2506950344
1923,14,Improv_Melody,278,1,48,98,2507206588
1923,14,Improv_Melody,279,5,42,110,2507208300
1923,14,Improv_Melody,280,1,48,83,2507440820
1923,14,Improv_Melody,281,1,48,99,2507681636
1923,14,Improv_Melody,282,1,38,103,2507696552
1923,14,Improv_Melody,283,5,42,110,2507706600
1923,14,Improv_Melody,284,1,48,85,2507934380
1923,14,Improv_Melody,285,1,48,121,2508187224
1923,14,Improv_Melody,286,1,38,92,2508196316
1923,14,Improv_Melody,287,5,42,110,2508206360
1923,14,Improv_Melody,288,1,48,109,2508446092
1923,14,Improv_Melody,289,1,48,59,2508706472
1923,14,Improv_Melody,290,2,48,80,2508710660
1923,14,Improv_Melody,291,1,38,98,2508711772
1923,14,Improv_Melody,292,2,72,80,2508716176
1923,14,Improv_Melody,293,5,42,127,2508718484
1923,14,Improv_Melody,294,1,48,77,2508966800
1923,14,Improv_Melody,295,5,42,110,2509206772
1923,14,Improv_Melody,296,1,48,83,2509224224
1923,14,Improv_Melody,297,1,48,79,2509465864
1923,14,Improv_Melody,298,1,48,115,2509704840
1923,14,Improv_Melody,299,5,42,110,2509706576
1923,14,Improv_Melody,300,1,38,107,2509720668
1923,14,Improv_Melody,301,1,48,108,2509967280
1923,14,Improv_Melody,302,5,42,110,2510207400
1923,14,Improv_Melody,303,1,48,110,2510211636
1923,14,Improv_Melody,304,1,48,108,2510457532
1923,14,Improv_Melody,305,1,48,127,2510700296
1923,14,Improv_Melody,306,1,38,105,2510707116
1923,14,Improv_Melody,307,5,42,127,2510710024
1923,14,Improv_Melody,308,1,48,113,2510946768
1923,14,Improv_Melody,309,1,48,94,2511204556
1923,14,Improv_Melody,310,5,42,110,2511206668
1923,14,Improv_Melody,311,1,48,104,2511441648
1923,14,Improv_Melody,312,1,48,125,2511689864
1923,14,Improv_Melody,313,1,38,106,2511697752
1923,14,Improv_Melody,314,5,42,110,2511706456
1923,14,Improv_Melody,315,1,48,100,2511956196
1923,14,Improv_Melody,316,1,48,117,2512201348
1923,14,Improv_Melody,317,5,42,110,2512207360
1923,14,Improv_Melody,318,1,38,108,2512211964
1923,14,Improv_Melody,319,1,48,96,2512474192
1923,14,Improv_Melody,320,2,43,80,2512709568
1923,14,Improv_Melody,321,2,67,80,2512712016
1923,14,Improv_Melody,322,5,42,127,2512714320
1923,14,Improv_Melody,323,1,48,96,2512718780
1923,14,Improv_Melody,324,1,38,98,2512727944
1923,14,Improv_Melody,325,1,48,119,2512972400
1923,14,Improv_Melody,326,5,42,110,2513206544
1923,14,Improv_Melody,327,1,48,97,2513228852
1923,14,Improv_Melody,328,1,48,110,2513470792
1923,14,Improv_Melody,329,5,42,110,2513707228
1923,14,Improv_Melody,330,1,48,97,2513715664
1923,14,Improv_Melody,331,1,38,98,2513735504
1923,14,Improv_Melody,332,1,48,116,2513960972
1923,14,Improv_Melody,333,5,42,110,2514207060
1923,14,Improv_Melody,334,1,48,91,2514215772
1923,14,Improv_Melody,335,1,48,104,2514462124
1923,14,Improv_Melody,336,1,48,116,2514691960
1923,14,Improv_Melody,337,1,38,107,2514695752
1923,14,Improv_Melody,338,5,42,127,2514706916
1923,14,Improv_Melody,339,1,48,105,2514944188
1923,14,Improv_Melody,340,1,48,94,2515191952
1923,14,Improv_Melody,341,5,42,110,2515206476
1923,14,Improv_Melody,342,1,48,97,2515437196
1923,14,Improv_Melody,343,1,48,127,2515681004
1923,14,Improv_Melody,344,1,38,117,2515700776
1923,14,Improv_Melody,345,5,42,110,2515707236
1923,14,Improv_Melody,346,1,48,112,2515937780
1923,14,Improv_Melody,347,1,48,110,2516184352
1923,14,Improv_Melody,348,1,38,91,2516187692
1923,14,Improv_Melody,349,5,42,110,2516206848
1923,14,Improv_Melody,350,1,48,117,2516447996
1923,14,Improv_Melody,351,1,48,107,2516696360
1923,14,Improv_Melody,352,1,38,105,2516705360
1923,14,Improv_Melody,353,2,45,80,2516711432
1923,14,Improv_Melody,354,2,69,80,2516713576
1923,14,Improv_Melody,355,5,42,127,2516716032
1923,14,Improv_Melody,356,1,48,118,2516951656
1923,14,Improv_Melody,357,1,48,115,2517197552
1923,14,Improv_Melody,358,5,42,110,2517207376
1923,14,Improv_Melody,359,1,48,111,2517444820
1923,14,Improv_Melody,360,1,48,122,2517692736
1923,14,Improv_Melody,361,1,38,122,2517696672
1923,14,Improv_Melody,362,5,42,110,2517707240
1923,14,Improv_Melody,363,1,48,105,2517946000
1923,14,Improv_Melody,364,5,42,110,2518206880
1923,14,Improv_Melody,365,1,48,105,2518207844
1923,14,Improv_Melody,366,1,48,98,2518453652
1923,14,Improv_Melody,367,1,48,114,2518691780
1923,14,Improv_Melody,368,1,38,92,2518702888
1923,14,Improv_Melody,369,5,42,127,2518706812
1923,14,Improv_Melody,370,1,48,94,2518949232
1923,14,Improv_Melody,371,1,48,107,2519200136
1923,14,Improv_Melody,372,5,42,110,2519207192
1923,14,Improv_Melody,373,1,48,118,2519443364
1923,14,Improv_Melody,374,1,48,99,2519675524
1923,14,Improv_Melody,375,1,38,102,2519697012
1923,14,Improv_Melody,376,5,42,110,2519706980
1923,14,Improv_Melody,377,1,48,112,2519929684
1923,14,Improv_Melody,378,1,38,105,2520170736
1923,14,Improv_Melody,379,1,48,115,2520177208
1923,14,Improv_Melody,380,5,42,110,2520206816
1923,14,Improv_Melody,381,1,48,104,2520428928
1923,14,Improv_Melody,382,1,48,105,2520673252
1923,14,Improv_Melody,383,1,38,103,2520675852
1923,14,Improv_Melody,384,2,41,80,2520709160
1923,14,Improv_Melody,385,2,65,80,2520711308
1923,14,Improv_Melody,386,5,42,127,2520713908
1923,14,Improv_Melody,387,1,48,65,2520911676
1923,14,Improv_Melody,388,1,48,101,2521172288
1923,14,Improv_Melody,389,5,42,110,2521207048
1923,14,Improv_Melody,390,1,48,101,2521423580
1923,14,Improv_Melody,391,1,48,122,2521676796
1923,14,Improv_Melody,392,1,38,89,2521681260
1923,14,Improv_Melody,393,5,42,110,2521706836
1923,14,Improv_Melody,394,1,48,112,2521926404
1923,14,Improv_Melody,395,1,48,104,2522186640
1923,14,Improv_Melody,396,5,42,110,2522206544
1923,14,Improv_Melody,397,1,48,99,2522427412
1923,14,Improv_Melody,398,1,48,118,2522697428
1923,14,Improv_Melody,399,1,38,105,2522701220
1923,14,Improv_Melody,400,5,42,127,2522707452
1923,14,Improv_Melody,401,1,48,109,2522944492
1923,14,Improv_Melody,402,1,38,65,2522950376
1923,14,Improv_Melody,403,1,48,103,2523198568
1923,14,Improv_Melody,404,1,38,94,2523202952
1923,14,Improv_Melody,405,5,42,110,2523206948
1923,14,Improv_Melody,406,1,38,94,2523451304
1923,14,Improv_Melody,407,1,48,105,2523454500
1923,14,Improv_Melody,408,1,48,126,2523703656
1923,14,Improv_Melody,409,5,42,110,2523706680
1923,14,Improv_Melody,410,1,38,63,2523707644
1923,14,Improv_Melody,411,1,38,90,2523948620
1923,14,Improv_Melody,412,1,48,117,2523953268
1923,14,Improv_Melody,413,1,48,80,2524191048
1923,14,Improv_Melody,414,1,38,84,2524194988
1923,14,Improv_Melody,415,5,42,110,2524206524
1923,14,Improv_Melody,416,1,38,90,2524431144
1923,14,Improv_Melody,417,1,48,118,2524436424
1923,14,Improv_Melody,418,1,48,111,2524696712
1923,14,Improv_Melody,419,1,38,95,2524706468
1923,14,Improv_Melody,420,2,48,80,2524712524
1923,14,Improv_Melody,421,2,72,80,2524714444
1923,14,Improv_Melody,422,5,42,127,2524716824
1923,14,Improv_Melody,423,1,48,84,2524954616
1923,14,Improv_Melody,424,5,42,110,2525206760
1923,14,Improv_Melody,425,1,48,113,2525216668
1923,14,Improv_Melody,426,1,48,112,2525463384
1923,14,Improv_Melody,427,1,48,105,2525703908
1923,14,Improv_Melody,428,5,42,110,2525706488
1923,14,Improv_Melody,429,1,38,96,2525707528
1923,14,Improv_Melody,430,1,48,84,2525935384
1923,14,Improv_Melody,431,1,48,116,2526188824
1923,14,Improv_Melody,432,5,42,110,2526207456
1923,14,Improv_Melody,433,1,48,110,2526447892
1923,14,Improv_Melody,434,1,48,118,2526680944
1923,14,Improv_Melody,435,1,38,108,2526686528
1923,14,Improv_Melody,436,5,42,127,2526707100
1923,14,Improv_Melody,437,1,48,78,2526931376
1923,14,Improv_Melody,438,1,48,101,2527185936
1923,14,Improv_Melody,439,5,42,110,2527206804
1923,14,Improv_Melody,440,1,48,108,2527430508
1923,14,Improv_Melody,441,1,48,111,2527688428
1923,14,Improv_Melody,442,1,38,105,2527693264
1923,14,Improv_Melody,443,5,42,110,2527706372
1923,14,Improv_Melody,444,1,48,103,2527945952
1923,14,Improv_Melody,445,1,38,87,2528179828
1923,14,Improv_Melody,446,1,48,116,2528183544
1923,14,Improv_Melody,447,5,42,110,2528207400
1923,14,Improv_Melody,448,1,48,105,2528442952
1923,14,Improv_Melody,449,1,48,108,2528691540
1923,14,Improv_Melody,450,1,38,106,2528699356
1923,14,Improv_Melody,451,2,43,80,2528709672
1923,14,Improv_Melody,452,2,67,80,2528711820
1923,14,Improv_Melody,453,5,42,127,2528714420
1923,14,Improv_Melody,454,1,48,91,2528960056
1923,14,Improv_Melody,455,1,48,101,2529204480
1923,14,Improv_Melody,456,5,42,110,2529206592
1923,14,Improv_Melody,457,1,48,92,2529454488
1923,14,Improv_Melody,458,1,48,106,2529702552
1923,14,Improv_Melody,459,1,38,103,2529706980
1923,14,Improv_Melody,460,5,42,110,2529710116
1923,14,Improv_Melody,461,1,48,101,2529946860
1923,14,Improv_Melody,462,5,42,110,2530207288
1923,14,Improv_Melody,463,1,48,93,2530212496
1923,14,Improv_Melody,464,1,48,117,2530451000
1923,14,Improv_Melody,465,1,48,112,2530701384
1923,14,Improv_Melody,466,5,42,127,2530707240
1923,14,Improv_Melody,467,1,38,100,2530715956
1923,14,Improv_Melody,468,1,48,105,2530944428
1923,14,Improv_Melody,469,1,48,103,2531194652
1923,14,Improv_Melody,470,5,42,110,2531206420
1923,14,Improv_Melody,471,1,48,99,2531447152
1923,14,Improv_Melody,472,1,48,112,2531697752
1923,14,Improv_Melody,473,5,42,110,2531707348
1923,14,Improv_Melody,474,1,38,96,2531713228
1923,14,Improv_Melody,475,1,48,80,2531953640
1923,14,Improv_Melody,476,1,48,100,2532206908
1923,14,Improv_Melody,477,5,42,110,2532208464
1923,14,Improv_Melody,478,1,38,94,2532225248
1923,14,Improv_Melody,479,1,48,87,2532465512
1923,14,Improv_Melody,480,2,45,80,2532709184
1923,14,Improv_Melody,481,2,69,80,2532711328
1923,14,Improv_Melody,482,5,42,127,2532714012
1923,14,Improv_Melody,483,1,38,104,2532723324
1923,14,Improv_Melody,484,1,48,78,2532726516
1923,14,Improv_Melody,485,1,48,50,2532959248
1923,14,Improv_Melody,486,1,38,15,2532966472
1923,14,Improv_Melody,487,5,42,110,2533207384
1923,14,Improv_Melody,488,1,48,80,2533232596
1923,14,Improv_Melody,489,1,48,78,2533476556
1923,14,Improv_Melody,490,5,42,110,2533707264
1923,14,Improv_Melody,491,1,48,89,2533717400
1923,14,Improv_Melody,492,1,38,81,2533730896
1923,14,Improv_Melody,493,1,48,81,2533969148
1923,14,Improv_Melody,494,1,38,19,2533980628
1923,14,Improv_Melody,495,5,42,110,2534206680
1923,14,Improv_Melody,496,1,48,94,2534226820
1923,14,Improv_Melody,497,1,48,113,2534460400
1923,14,Improv_Melody,498,1,48,116,2534706196
1923,14,Improv_Melody,499,5,42,127,2534708052
1923,14,Improv_Melody,500,1,38,97,2534714976
1923,14,Improv_Melody,501,1,48,96,2534950740
1923,14,Improv_Melody,502,1,48,116,2535206008
1923,14,Improv_Melody,503,5,42,110,2535207724
1923,14,Improv_Melody,504,1,48,96,2535440620
1923,14,Improv_Melody,505,1,48,106,2535692040
1923,14,Improv_Melody,506,1,38,109,2535696504
1923,14,Improv_Melody,507,5,42,110,2535707068
1923,14,Improv_Melody,508,1,48,95,2535950908
1923,14,Improv_Melody,509,1,38,108,2536188148
1923,14,Improv_Melody,510,1,48,86,2536191412
1923,14,Improv_Melody,511,5,42,110,2536206832
1923,14,Improv_Melody,512,1,48,69,2536446192
1923,14,Improv_Melody,513,1,48,118,2536699484
1923,14,Improv_Melody,514,1,38,105,2536702748
1923,14,Improv_Melody,515,2,41,80,2536709176
1923,14,Improv_Melody,516,2,65,80,2536711248
1923,14,Improv_Melody,517,5,42,127,2536714072
1923,14,Improv_Melody,518,1,48,103,2536943656
1923,14,Improv_Melody,519,1,48,85,2537203588
1923,14,Improv_Melody,520,5,42,110,2537207212
1923,14,Improv_Melody,521,1,48,98,2537450036
1923,14,Improv_Melody,522,1,48,112,2537702508
1923,14,Improv_Melody,523,5,42,110,2537707244
1923,14,Improv_Melody,524,1,38,108,2537709692
1923,14,Improv_Melody,525,1,48,113,2537958772
1923,14,Improv_Melody,526,5,42,110,2538206656
1923,14,Improv_Melody,527,1,48,105,2538209696
1923,14,Improv_Melody,528,1,48,114,2538460376
1923,14,Improv_Melody,529,1,48,127,2538698652
1923,14,Improv_Melody,530,1,38,92,2538701172
1923,14,Improv_Melody,531,5,42,127,2538707332
1923,14,Improv_Melody,532,1,48,95,2538958612
1923,14,Improv_Melody,533,1,48,105,2539204828
1923,14,Improv_Melody,534,5,42,110,2539206940
1923,14,Improv_Melody,535,1,48,112,2539442816
1923,14,Improv_Melody,536,1,38,123,2539699164
1923,14,Improv_Melody,537,1,48,127,2539701688
1923,14,Improv_Melody,538,5,42,110,2539706804
1923,14,Improv_Melody,539,1,38,110,2539936528
1923,14,Improv_Melody,540,1,48,127,2539939716
1923,14,Improv_Melody,541,1,38,89,2540184540
1923,14,Improv_Melody,542,1,48,126,2540193780
1923,14,Improv_Melody,543,5,42,110,2540206368
1923,14,Improv_Melody,544,1,48,124,2540439452
1923,14,Improv_Melody,545,1,38,110,2540442648
1923,14,Improv_Melody,546,1,38,107,2540699416
1923,14,Improv_Melody,547,1,48,127,2540702604
1923,14,Improv_Melody,548,2,48,80,2540709932
1923,14,Improv_Melody,549,2,72,80,2540712080
1923,14,Improv_Melody,550,5,42,127,2540714680
1923,14,Improv_Melody,551,1,48,74,2540950684
1923,14,Improv_Melody,552,5,42,110,2541206856
1923,14,Improv_Melody,553,1,48,101,2541216612
1923,14,Improv_Melody,554,1,48,93,2541470132
1923,14,Improv_Melody,0,9999,9999,9999,2460704816
1923,14,Improv_Melody,1,9999,9999,9999,2461204576
1923,14,Improv_Melody,2,9999,9999,9999,2461704280
1923,14,Improv_Melody,3,9999,9999,9999,2462205028
1923,14,Improv_Melody,4,9999,9999,9999,2462704732
1923,14,Improv_Melody,5,9999,9999,9999,2463204436
1923,14,Improv_Melody,6,9999,9999,9999,2463704136
1923,14,Improv_Melody,7,9999,9999,9999,2464204888
1923,14,Improv_Melody,8,9999,9999,9999,2464704588
1923,14,Improv_Melody,9,9999,9999,9999,2465204308
1923,14,Improv_Melody,10,9999,9999,9999,2465705056
1923,14,Improv_Melody,11,9999,9999,9999,2466204756
1923,14,Improv_Melody,12,9999,9999,9999,2466704460
1923,14,Improv_Melody,13,9999,9999,9999,2467204164
1923,14,Improv_Melody,14,9999,9999,9999,2467704912
1923,14,Improv_Melody,15,9999,9999,9999,2468204616
1923,14,Improv_Melody,16,9999,9999,9999,2468704316
1923,14,Improv_Melody,17,9999,9999,9999,2469205080
1923,14,Improv_Melody,18,9999,9999,9999,2469704784
1923,14,Improv_Melody,19,9999,9999,9999,2470204484
1923,14,Improv_Melody,20,9999,9999,9999,2470704236
1923,14,Improv_Melody,21,9999,9999,9999,2471204960
1923,14,Improv_Melody,22,9999,9999,9999,2471704664
1923,14,Improv_Melody,23,9999,9999,9999,2472204364
1923,14,Improv_Melody,24,9999,9999,9999,2472704068
1923,14,Improv_Melody,25,9999,9999,9999,2473204828
1923,14,Improv_Melody,26,9999,9999,9999,2473704532
1923,14,Improv_Melody,27,9999,9999,9999,2474204236
1923,14,Improv_Melody,28,9999,9999,9999,2474704984
1923,14,Improv_Melody,29,9999,9999,9999,2475204684
1923,14,Improv_Melody,30,9999,9999,9999,2475704388
1923,14,Improv_Melody,31,9999,9999,9999,2476204092
1923,14,Improv_Melody,32,9999,9999,9999,2476704888
1923,14,Improv_Melody,33,9999,9999,9999,2477204536
1923,14,Improv_Melody,34,9999,9999,9999,2477704252
1923,14,Improv_Melody,35,9999,9999,9999,2478205000
1923,14,Improv_Melody,36,9999,9999,9999,2478704716
1923,14,Improv_Melody,37,9999,9999,9999,2479204420
1923,14,Improv_Melody,38,9999,9999,9999,2479704140
1923,14,Improv_Melody,39,9999,9999,9999,2480204908
1923,14,Improv_Melody,40,9999,9999,9999,2480704584
1923,14,Improv_Melody,41,9999,9999,9999,2481204296
1923,14,Improv_Melody,42,9999,9999,9999,2481705056
1923,14,Improv_Melody,43,9999,9999,9999,2482204740
1923,14,Improv_Melody,44,9999,9999,9999,2482704448
1923,14,Improv_Melody,45,9999,9999,9999,2483204156
1923,14,Improv_Melody,46,9999,9999,9999,2483704916
1923,14,Improv_Melody,47,9999,9999,9999,2484204620
1923,14,Improv_Melody,48,9999,9999,9999,2484704328
1923,14,Improv_Melody,49,9999,9999,9999,2485205072
1923,14,Improv_Melody,50,9999,9999,9999,2485704800
1923,14,Improv_Melody,51,9999,9999,9999,2486204492
1923,14,Improv_Melody,52,9999,9999,9999,2486704224
1923,14,Improv_Melody,53,9999,9999,9999,2487204928
1923,14,Improv_Melody,54,9999,9999,9999,2487704680
1923,14,Improv_Melody,55,9999,9999,9999,2488204392
1923,14,Improv_Melody,56,9999,9999,9999,2488704096
1923,14,Improv_Melody,57,9999,9999,9999,2489204844
1923,14,Improv_Melody,58,9999,9999,9999,2489704504
1923,14,Improv_Melody,59,9999,9999,9999,2490204264
1923,14,Improv_Melody,60,9999,9999,9999,2490704968
1923,14,Improv_Melody,61,9999,9999,9999,2491204656
1923,14,Improv_Melody,62,9999,9999,9999,2491704392
1923,14,Improv_Melody,63,9999,9999,9999,2492204124
1923,14,Improv_Melody,64,9999,9999,9999,2492704872
1923,14,Improv_Melody,65,9999,9999,9999,2493204584
1923,14,Improv_Melody,66,9999,9999,9999,2493704244
1923,14,Improv_Melody,67,9999,9999,9999,2494204976
1923,14,Improv_Melody,68,9999,9999,9999,2494704712
1923,14,Improv_Melody,69,9999,9999,9999,2495204472
1923,14,Improv_Melody,70,9999,9999,9999,2495704128
1923,14,Improv_Melody,71,9999,9999,9999,2496204868
1923,14,Improv_Melody,72,9999,9999,9999,2496704628
1923,14,Improv_Melody,73,9999,9999,9999,2497204288
1923,14,Improv_Melody,74,9999,9999,9999,2497705064
1923,14,Improv_Melody,75,9999,9999,9999,2498204760
1923,14,Improv_Melody,76,9999,9999,9999,2498704480
1923,14,Improv_Melody,77,9999,9999,9999,2499204184
1923,14,Improv_Melody,78,9999,9999,9999,2499704948
1923,14,Improv_Melody,79,9999,9999,9999,2500204636
1923,14,Improv_Melody,80,9999,9999,9999,2500704348
1923,14,Improv_Melody,81,9999,9999,9999,2501205084
1923,14,Improv_Melody,82,9999,9999,9999,2501704812
1923,14,Improv_Melody,83,9999,9999,9999,2502204520
1923,14,Improv_Melody,84,9999,9999,9999,2502704188
1923,14,Improv_Melody,85,9999,9999,9999,2503204972
1923,14,Improv_Melody,86,9999,9999,9999,2503704632
1923,14,Improv_Melody,87,9999,9999,9999,2504204408
1923,14,Improv_Melody,88,9999,9999,9999,2504704104
1923,14,Improv_Melody,89,9999,9999,9999,2505204852
1923,14,Improv_Melody,90,9999,9999,9999,2505704512
1923,14,Improv_Melody,91,9999,9999,9999,2506204272
1923,14,Improv_Melody,92,9999,9999,9999,2506704976
1923,14,Improv_Melody,93,9999,9999,9999,2507204676
1923,14,Improv_Melody,94,9999,9999,9999,2507704384
1923,14,Improv_Melody,95,9999,9999,9999,2508204148
1923,14,Improv_Melody,96,9999,9999,9999,2508704828
1923,14,Improv_Melody,97,9999,9999,9999,2509204556
1923,14,Improv_Melody,98,9999,9999,9999,2509704308
1923,14,Improv_Melody,99,9999,9999,9999,2510205036
1923,14,Improv_Melody,100,9999,9999,9999,2510704692
1923,14,Improv_Melody,101,9999,9999,9999,2511204416
1923,14,Improv_Melody,102,9999,9999,9999,2511704168
1923,14,Improv_Melody,103,9999,9999,9999,2512204920
1923,14,Improv_Melody,104,9999,9999,9999,2512704628
1923,14,Improv_Melody,105,9999,9999,9999,2513204328
1923,14,Improv_Melody,106,9999,9999,9999,2513705008
1923,14,Improv_Melody,107,9999,9999,9999,2514204772
1923,14,Improv_Melody,108,9999,9999,9999,2514704480
1923,14,Improv_Melody,109,9999,9999,9999,2515204184
1923,14,Improv_Melody,110,9999,9999,9999,2515704944
1923,14,Improv_Melody,111,9999,9999,9999,2516204632
1923,14,Improv_Melody,112,9999,9999,9999,2516704340
1923,14,Improv_Melody,113,9999,9999,9999,2517205084
1923,14,Improv_Melody,114,9999,9999,9999,2517704800
1923,14,Improv_Melody,115,9999,9999,9999,2518204516
1923,14,Improv_Melody,116,9999,9999,9999,2518704224
1923,14,Improv_Melody,117,9999,9999,9999,2519204976
1923,14,Improv_Melody,118,9999,9999,9999,2519704692
1923,14,Improv_Melody,119,9999,9999,9999,2520204380
1923,14,Improv_Melody,120,9999,9999,9999,2520704068
1923,14,Improv_Melody,121,9999,9999,9999,2521204832
1923,14,Improv_Melody,122,9999,9999,9999,2521704548
1923,14,Improv_Melody,123,9999,9999,9999,2522204256
1923,14,Improv_Melody,124,9999,9999,9999,2522705016
1923,14,Improv_Melody,125,9999,9999,9999,2523204656
1923,14,Improv_Melody,126,9999,9999,9999,2523704392
1923,14,Improv_Melody,127,9999,9999,9999,2524204088
1923,14,Improv_Melody,128,9999,9999,9999,2524704836
1923,14,Improv_Melody,129,9999,9999,9999,2525204544
1923,14,Improv_Melody,130,9999,9999,9999,2525704276
1923,14,Improv_Melody,131,9999,9999,9999,2526205016
1923,14,Improv_Melody,132,9999,9999,9999,2526704736
1923,14,Improv_Melody,133,9999,9999,9999,2527204440
1923,14,Improv_Melody,134,9999,9999,9999,2527704156
1923,14,Improv_Melody,135,9999,9999,9999,2528204888
1923,14,Improv_Melody,136,9999,9999,9999,2528704580
1923,14,Improv_Melody,137,9999,9999,9999,2529204348
1923,14,Improv_Melody,138,9999,9999,9999,2529705008
1923,14,Improv_Melody,139,9999,9999,9999,2530204776
1923,14,Improv_Melody,140,9999,9999,9999,2530704504
1923,14,Improv_Melody,141,9999,9999,9999,2531204204
1923,14,Improv_Melody,142,9999,9999,9999,2531704912
1923,14,Improv_Melody,143,9999,9999,9999,2532204616
1923,14,Improv_Melody,144,9999,9999,9999,2532704316
1923,14,Improv_Melody,145,9999,9999,9999,2533205092
1923,14,Improv_Melody,146,9999,9999,9999,2533704752
1923,14,Improv_Melody,147,9999,9999,9999,2534204468
1923,14,Improv_Melody,148,9999,9999,9999,2534704204
1923,14,Improv_Melody,149,9999,9999,9999,2535204924
1923,14,Improv_Melody,150,9999,9999,9999,2535704632
1923,14,Improv_Melody,151,9999,9999,9999,2536204396
1923,14,Improv_Melody,152,9999,9999,9999,2536704084
1923,14,Improv_Melody,153,9999,9999,9999,2537204848
1923,14,Improv_Melody,154,9999,9999,9999,2537704512
1923,14,Improv_Melody,155,9999,9999,9999,2538204216
1923,14,Improv_Melody,156,9999,9999,9999,2538704972
1923,14,Improv_Melody,157,9999,9999,9999,2539204688
1923,14,Improv_Melody,158,9999,9999,9999,2539704440
1923,14,Improv_Melody,159,9999,9999,9999,2540204080
1923,14,Improv_Melody,160,9999,9999,9999,2540704840
1923,14,Improv_Melody,161,9999,9999,9999,2541204564
19