pid,taskRunCount,taskID,taskName,i,channel,pitch,velocity,microseconds
1,0,Ticks_Pract_8,0,5,42,127,88405500
151,0,Ticks_Pract_8,1,5,42,127,89205108
151,0,Ticks_Pract_8,2,5,42,127,90004864
151,0,Ticks_Pract_8,3,5,42,127,90804472
151,0,Ticks_Pract_8,4,1,48,48,91559012
151,0,Ticks_Pract_8,5,5,42,127,91605336
151,0,Ticks_Pract_8,6,1,48,43,92339704
151,0,Ticks_Pract_8,7,5,42,127,92405220
151,0,Ticks_Pract_8,8,1,48,45,93171172
151,0,Ticks_Pract_8,9,5,42,127,93205128
151,0,Ticks_Pract_8,10,1,48,43,93964180
151,0,Ticks_Pract_8,11,5,42,127,94004488
151,0,Ticks_Pract_8,12,1,48,41,94751616
151,0,Ticks_Pract_8,13,5,42,127,94805416
151,0,Ticks_Pract_8,14,1,48,44,95540076
151,0,Ticks_Pract_8,15,5,42,127,95605076
151,0,Ticks_Pract_8,16,5,42,127,96404888
151,0,Ticks_Pract_8,17,1,48,37,96420696
151,0,Ticks_Pract_8,18,5,42,127,97204620
151,0,Ticks_Pract_8,19,1,48,36,97227900
151,0,Ticks_Pract_8,20,5,42,127,98005328
151,0,Ticks_Pract_8,21,1,48,39,98078580
151,0,Ticks_Pract_8,22,5,42,127,98805060
151,0,Ticks_Pract_8,23,1,48,35,98893620
151,0,Ticks_Pract_8,24,1,48,38,99540092
151,0,Ticks_Pract_8,25,5,42,127,99604812
151,0,Ticks_Pract_8,26,1,48,43,100296580
151,0,Ticks_Pract_8,27,5,42,127,100404824
151,0,Ticks_Pract_8,28,1,48,39,101073464
151,0,Ticks_Pract_8,29,5,42,127,101205600
151,0,Ticks_Pract_8,30,1,48,38,101893436
151,0,Ticks_Pract_8,31,5,42,127,102005036
151,0,Ticks_Pract_8,32,1,48,40,102753900
151,0,Ticks_Pract_8,33,5,42,127,102804860
151,0,Ticks_Pract_8,34,1,48,39,103549452
151,0,Ticks_Pract_8,35,5,42,127,103604668
151,0,Ticks_Pract_8,36,1,48,41,104364860
151,0,Ticks_Pract_8,37,5,42,127,104405520
151,0,Ticks_Pract_8,38,1,48,39,105155860
151,0,Ticks_Pract_8,39,5,42,127,105205028
151,0,Ticks_Pract_8,40,1,48,37,105915792
151,0,Ticks_Pract_8,41,5,42,127,106004936
151,0,Ticks_Pract_8,42,1,48,39,106715380
151,0,Ticks_Pract_8,43,5,42,127,106804668
151,0,Ticks_Pract_8,44,1,48,34,107499432
151,0,Ticks_Pract_8,45,5,42,127,107605432
151,0,Ticks_Pract_8,46,1,48,35,108291400
151,0,Ticks_Pract_8,47,5,42,127,108405312
151,0,Ticks_Pract_8,48,1,48,32,109101684
151,0,Ticks_Pract_8,49,5,42,127,109204900
151,0,Ticks_Pract_8,50,1,48,42,109883424
151,0,Ticks_Pract_8,51,5,42,127,110004708
151,0,Ticks_Pract_8,52,1,48,41,110735124
151,0,Ticks_Pract_8,53,5,42,127,110805200
151,0,Ticks_Pract_8,54,1,48,41,111556584
151,0,Ticks_Pract_8,55,5,42,127,111605304
151,0,Ticks_Pract_8,56,1,48,40,112356840
151,0,Ticks_Pract_8,0,9999,9999,9999,88402992
151,0,Ticks_Pract_8,1,9999,9999,9999,89202748
151,0,Ticks_Pract_8,2,9999,9999,9999,90002504
151,0,Ticks_Pract_8,3,9999,9999,9999,90802260
151,0,Ticks_Pract_8,4,9999,9999,9999,91603052
151,0,Ticks_Pract_8,5,9999,9999,9999,92402788
151,0,Ticks_Pract_8,6,9999,9999,9999,93202548
151,0,Ticks_Pract_8,7,9999,9999,9999,94002280
151,0,Ticks_Pract_8,8,9999,9999,9999,94803056
151,0,Ticks_Pract_8,9,9999,9999,9999,95602792
151,0,Ticks_Pract_8,10,9999,9999,9999,96402528
151,0,Ticks_Pract_8,11,9999,9999,9999,97202264
151,0,Ticks_Pract_8,12,9999,9999,9999,98003040
151,0,Ticks_Pract_8,13,9999,9999,9999,98802772
151,0,Ticks_Pract_8,14,9999,9999,9999,99602528
151,0,Ticks_Pract_8,15,9999,9999,9999,100402244
151,0,Ticks_Pract_8,16,9999,9999,9999,101203020
151,0,Ticks_Pract_8,17,9999,9999,9999,102002752
151,0,Ticks_Pract_8,18,9999,9999,9999,102802500
151,0,Ticks_Pract_8,19,9999,9999,9999,103602236
151,0,Ticks_Pract_8,20,9999,9999,9999,104403012
151,0,Ticks_Pract_8,21,9999,9999,9999,105202744
151,0,Ticks_Pract_8,22,9999,9999,9999,106002504
151,0,Ticks_Pract_8,23,9999,9999,9999,106802236
151,0,Ticks_Pract_8,24,9999,9999,9999,107603000
151,0,Ticks_Pract_8,25,9999,9999,9999,108402804
151,0,Ticks_Pract_8,26,9999,9999,9999,109202540
151,0,Ticks_Pract_8,27,9999,9999,9999,110002272
151,0,Ticks_Pract_8,28,9999,9999,9999,110802992
151,0,Ticks_Pract_8,29,9999,9999,9999,111602800
152,1,Ticks_Pract_5,0,5,42,127,133490120
152,1,Ticks_Pract_5,1,5,42,127,133989892
152,1,Ticks_Pract_5,2,5,42,127,134489368
152,1,Ticks_Pract_5,3,5,42,127,134990188
152,1,Ticks_Pract_5,4,1,48,39,135467296
152,1,Ticks_Pract_5,5,5,42,127,135490024
152,1,Ticks_Pract_5,6,1,48,41,135923480
152,1,Ticks_Pract_5,7,5,42,127,135989552
152,1,Ticks_Pract_5,8,1,48,38,136445112
152,1,Ticks_Pract_5,9,5,42,127,136490272
152,1,Ticks_Pract_5,10,1,48,39,136959424
152,1,Ticks_Pract_5,11,5,42,127,136990096
152,1,Ticks_Pract_5,12,5,42,127,137490004
152,1,Ticks_Pract_5,13,1,48,34,137491716
152,1,Ticks_Pract_5,14,1,48,33,137984684
152,1,Ticks_Pract_5,15,5,42,127,137989572
152,1,Ticks_Pract_5,16,1,48,32,138472336
152,1,Ticks_Pract_5,17,5,42,127,138490148
152,1,Ticks_Pract_5,18,1,48,26,138948648
152,1,Ticks_Pract_5,19,5,42,127,138990044
152,1,Ticks_Pract_5,20,1,48,27,139456456
152,1,Ticks_Pract_5,21,5,42,127,139489720
152,1,Ticks_Pract_5,22,5,42,127,139990304
152,1,Ticks_Pract_5,23,1,48,34,139999836
152,1,Ticks_Pract_5,24,5,42,127,140489980
152,1,Ticks_Pract_5,25,1,48,28,140540508
152,1,Ticks_Pract_5,26,5,42,127,140989876
152,1,Ticks_Pract_5,27,1,48,32,141019276
152,1,Ticks_Pract_5,28,5,42,127,141489700
152,1,Ticks_Pract_5,29,1,48,33,141548072
152,1,Ticks_Pract_5,30,5,42,127,141990196
152,1,Ticks_Pract_5,31,1,48,29,142021460
152,1,Ticks_Pract_5,32,5,42,127,142489872
152,1,Ticks_Pract_5,33,1,48,32,142502920
152,1,Ticks_Pract_5,34,5,42,127,142989552
152,1,Ticks_Pract_5,35,1,48,31,142994156
152,1,Ticks_Pract_5,36,5,42,127,143490492
152,1,Ticks_Pract_5,37,1,48,36,143500480
152,1,Ticks_Pract_5,38,5,42,127,143990096
152,1,Ticks_Pract_5,39,1,48,29,144015980
152,1,Ticks_Pract_5,40,5,42,127,144489700
152,1,Ticks_Pract_5,41,1,48,29,144504912
152,1,Ticks_Pract_5,42,1,48,29,144985672
152,1,Ticks_Pract_5,43,5,42,127,144989444
152,1,Ticks_Pract_5,44,5,42,127,145490544
152,1,Ticks_Pract_5,45,1,48,28,145493508
152,1,Ticks_Pract_5,46,1,48,24,145977408
152,1,Ticks_Pract_5,47,5,42,127,145989988
152,1,Ticks_Pract_5,48,5,42,127,146489672
152,1,Ticks_Pract_5,49,1,48,26,146503460
152,1,Ticks_Pract_5,50,5,42,127,146989572
152,1,Ticks_Pract_5,51,1,48,27,146997912
152,1,Ticks_Pract_5,52,5,42,127,147490144
152,1,Ticks_Pract_5,53,1,48,24,147500428
152,1,Ticks_Pract_5,54,5,42,127,147989820
152,1,Ticks_Pract_5,55,1,48,24,147994424
152,1,Ticks_Pract_5,56,5,42,127,148489696
152,1,Ticks_Pract_5,57,1,48,22,148501872
152,1,Ticks_Pract_5,58,1,48,34,148966180
152,1,Ticks_Pract_5,59,5,42,127,148990412
152,1,Ticks_Pract_5,60,5,42,127,149490244
152,1,Ticks_Pract_5,61,1,48,31,149499108
152,1,Ticks_Pract_5,62,1,48,29,149955152
152,1,Ticks_Pract_5,63,5,42,127,149989836
152,1,Ticks_Pract_5,64,5,42,127,150489520
152,1,Ticks_Pract_5,65,1,48,28,150505324
152,1,Ticks_Pract_5,66,1,48,31,150987732
152,1,Ticks_Pract_5,67,5,42,127,150990236
152,1,Ticks_Pract_5,68,5,42,127,151489840
152,1,Ticks_Pract_5,69,1,48,28,151501244
152,1,Ticks_Pract_5,70,5,42,127,151989740
152,1,Ticks_Pract_5,71,1,48,27,152008684
152,1,Ticks_Pract_5,72,5,42,127,152490312
152,1,Ticks_Pract_5,73,1,48,22,152526204
152,1,Ticks_Pract_5,74,5,42,127,152990136
152,1,Ticks_Pract_5,75,1,48,20,153003480
152,1,Ticks_Pract_5,0,9999,9999,9999,133487692
152,1,Ticks_Pract_5,1,9999,9999,9999,133987388
152,1,Ticks_Pract_5,2,9999,9999,9999,134487160
152,1,Ticks_Pract_5,3,9999,9999,9999,134987828
152,1,Ticks_Pract_5,4,9999,9999,9999,135487596
152,1,Ticks_Pract_5,5,9999,9999,9999,135987272
152,1,Ticks_Pract_5,6,9999,9999,9999,136487992
152,1,Ticks_Pract_5,7,9999,9999,9999,136987740
152,1,Ticks_Pract_5,8,9999,9999,9999,137487424
152,1,Ticks_Pract_5,9,9999,9999,9999,137987144
152,1,Ticks_Pract_5,10,9999,9999,9999,138487864
152,1,Ticks_Pract_5,11,9999,9999,9999,138987616
152,1,Ticks_Pract_5,12,9999,9999,9999,139487292
152,1,Ticks_Pract_5,13,9999,9999,9999,139988092
152,1,Ticks_Pract_5,14,9999,9999,9999,140487768
152,1,Ticks_Pract_5,15,9999,9999,9999,140987444
152,1,Ticks_Pract_5,16,9999,9999,9999,141487196
152,1,Ticks_Pract_5,17,9999,9999,9999,141987912
152,1,Ticks_Pract_5,18,9999,9999,9999,142487664
152,1,Ticks_Pract_5,19,9999,9999,9999,142987344
152,1,Ticks_Pract_5,20,9999,9999,9999,143488064
152,1,Ticks_Pract_5,21,9999,9999,9999,143987812
152,1,Ticks_Pract_5,22,9999,9999,9999,144487488
152,1,Ticks_Pract_5,23,9999,9999,9999,144987236
152,1,Ticks_Pract_5,24,9999,9999,9999,145487964
152,1,Ticks_Pract_5,25,9999,9999,9999,145987704
152,1,Ticks_Pract_5,26,9999,9999,9999,146487388
152,1,Ticks_Pract_5,27,9999,9999,9999,146987068
152,1,Ticks_Pract_5,28,9999,9999,9999,147487860
152,1,Ticks_Pract_5,29,9999,9999,9999,147987536
152,1,Ticks_Pract_5,30,9999,9999,9999,148487264
152,1,Ticks_Pract_5,31,9999,9999,9999,148987980
152,1,Ticks_Pract_5,32,9999,9999,9999,149487736
152,1,Ticks_Pract_5,33,9999,9999,9999,149987404
152,1,Ticks_Pract_5,34,9999,9999,9999,150487164
152,1,Ticks_Pract_5,35,9999,9999,9999,150987876
152,1,Ticks_Pract_5,36,9999,9999,9999,151487560
152,1,Ticks_Pract_5,37,9999,9999,9999,151987308
152,1,Ticks_Pract_5,38,9999,9999,9999,152488028
152,1,Ticks_Pract_5,39,9999,9999,9999,152987704
153,2,T1_SMS_8,0,5,42,127,225962536
153,2,T1_SMS_8,1,5,42,127,226762216
153,2,T1_SMS_8,2,1,48,48,227557372
153,2,T1_SMS_8,3,5,42,127,227561892
153,2,T1_SMS_8,4,1,48,49,228349864
153,2,T1_SMS_8,5,5,42,127,228361424
153,2,T1_SMS_8,6,1,48,41,229144024
153,2,T1_SMS_8,7,5,42,127,229162352
153,2,T1_SMS_8,8,5,42,127,229962016
153,2,T1_SMS_8,9,1,48,43,229965132
153,2,T1_SMS_8,10,1,48,31,230697712
153,2,T1_SMS_8,11,5,42,127,230761968
153,2,T1_SMS_8,12,5,42,127,231561560
153,2,T1_SMS_8,13,1,48,14,231660628
153,2,T1_SMS_8,14,5,42,127,232362484
153,2,T1_SMS_8,15,1,48,40,232412492
153,2,T1_SMS_8,16,5,42,127,233162292
153,2,T1_SMS_8,17,1,48,46,233200804
153,2,T1_SMS_8,18,5,42,127,233961948
153,2,T1_SMS_8,19,1,48,36,233981340
153,2,T1_SMS_8,20,5,42,127,234761484
153,2,T1_SMS_8,21,1,48,26,234823812
153,2,T1_SMS_8,22,5,42,127,235562264
153,2,T1_SMS_8,23,1,48,32,235567468
153,2,T1_SMS_8,24,5,42,127,236362216
153,2,T1_SMS_8,25,1,48,32,236389824
153,2,T1_SMS_8,26,5,42,127,237161804
153,2,T1_SMS_8,27,1,48,36,237162768
153,2,T1_SMS_8,28,1,48,38,237943720
153,2,T1_SMS_8,29,5,42,127,237961828
153,2,T1_SMS_8,30,1,48,32,238729044
153,2,T1_SMS_8,31,5,42,127,238762236
153,2,T1_SMS_8,32,1,48,21,239485392
153,2,T1_SMS_8,33,5,42,127,239561968
153,2,T1_SMS_8,34,1,48,29,240310216
153,2,T1_SMS_8,35,5,42,127,240361700
153,2,T1_SMS_8,36,1,48,33,241075452
153,2,T1_SMS_8,37,5,42,127,241161756
153,2,T1_SMS_8,38,1,48,30,241879516
153,2,T1_SMS_8,39,5,42,127,241962460
153,2,T1_SMS_8,40,1,48,33,242711608
153,2,T1_SMS_8,41,5,42,127,242762044
153,2,T1_SMS_8,42,1,48,30,243503204
153,2,T1_SMS_8,43,5,42,127,243561776
153,2,T1_SMS_8,44,1,48,33,244285308
153,2,T1_SMS_8,45,5,42,127,244361584
153,2,T1_SMS_8,46,1,48,30,245111108
153,2,T1_SMS_8,47,5,42,127,245162440
153,2,T1_SMS_8,48,1,48,25,245889112
153,2,T1_SMS_8,49,5,42,127,245962096
153,2,T1_SMS_8,50,1,48,30,246681900
153,2,T1_SMS_8,51,5,42,127,246761832
153,2,T1_SMS_8,52,1,48,32,247457884
153,2,T1_SMS_8,53,5,42,127,247561428
153,2,T1_SMS_8,54,1,48,29,248245520
153,2,T1_SMS_8,55,5,42,127,248362204
153,2,T1_SMS_8,56,1,48,35,249008368
153,2,T1_SMS_8,57,5,42,127,249162232
153,2,T1_SMS_8,58,1,48,33,249793760
153,2,T1_SMS_8,59,5,42,127,249961740
153,2,T1_SMS_8,60,1,48,30,250639216
153,2,T1_SMS_8,61,5,42,127,250761624
153,2,T1_SMS_8,62,1,48,28,251482336
153,2,T1_SMS_8,63,5,42,127,251562488
153,2,T1_SMS_8,64,1,48,31,252288564
153,2,T1_SMS_8,65,5,42,127,252362072
153,2,T1_SMS_8,66,1,48,33,253126080
153,2,T1_SMS_8,67,5,42,127,253162104
153,2,T1_SMS_8,68,1,48,28,253929248
153,2,T1_SMS_8,69,5,42,127,253961564
153,2,T1_SMS_8,70,1,48,33,254719572
153,2,T1_SMS_8,71,5,42,127,254762196
153,2,T1_SMS_8,72,5,42,127,255562084
153,2,T1_SMS_8,73,1,48,33,255572220
153,2,T1_SMS_8,74,5,42,127,256361964
153,2,T1_SMS_8,75,1,48,38,256395768
153,2,T1_SMS_8,76,5,42,127,257161700
153,2,T1_SMS_8,77,1,48,26,257210884
153,2,T1_SMS_8,78,5,42,127,257962548
153,2,T1_SMS_8,79,1,48,24,258021220
153,2,T1_SMS_8,80,5,42,127,258762060
153,2,T1_SMS_8,81,1,48,25,258812812
153,2,T1_SMS_8,82,5,42,127,259561868
153,2,T1_SMS_8,83,1,48,31,259579396
153,2,T1_SMS_8,84,5,42,127,260361772
153,2,T1_SMS_8,85,1,48,22,260413576
153,2,T1_SMS_8,86,5,42,127,261162552
153,2,T1_SMS_8,87,1,48,22,261193820
153,2,T1_SMS_8,88,1,48,26,261951716
153,2,T1_SMS_8,89,5,42,127,261961980
153,2,T1_SMS_8,90,1,48,28,262710828
153,2,T1_SMS_8,91,5,42,127,262761788
153,2,T1_SMS_8,92,1,48,26,263460084
153,2,T1_SMS_8,93,5,42,127,263561728
153,2,T1_SMS_8,94,1,48,23,264340908
153,2,T1_SMS_8,95,5,42,127,264362596
153,2,T1_SMS_8,96,1,48,25,265110472
153,2,T1_SMS_8,97,5,42,127,265162032
153,2,T1_SMS_8,98,1,48,28,265920436
153,2,T1_SMS_8,99,5,42,127,265961840
153,2,T1_SMS_8,100,1,48,25,266670444
153,2,T1_SMS_8,101,5,42,127,266761452
153,2,T1_SMS_8,102,5,42,127,267562456
153,2,T1_SMS_8,103,1,48,23,267582372
153,2,T1_SMS_8,104,1,48,24,268340276
153,2,T1_SMS_8,105,5,42,127,268362260
153,2,T1_SMS_8,106,1,48,27,269153376
153,2,T1_SMS_8,107,5,42,127,269161772
153,2,T1_SMS_8,108,5,42,127,269961508
153,2,T1_SMS_8,109,1,48,27,269977916
153,2,T1_SMS_8,110,5,42,127,270762288
153,2,T1_SMS_8,111,1,48,28,270797656
153,2,T1_SMS_8,112,5,42,127,271562320
153,2,T1_SMS_8,113,1,48,29,271605528
153,2,T1_SMS_8,114,5,42,127,272361976
153,2,T1_SMS_8,115,1,48,22,272454272
153,2,T1_SMS_8,116,5,42,127,273161512
153,2,T1_SMS_8,117,1,48,31,273310012
153,2,T1_SMS_8,118,5,42,127,273962212
153,2,T1_SMS_8,119,1,48,27,274329680
153,2,T1_SMS_8,120,5,42,127,274762168
153,2,T1_SMS_8,121,1,48,29,275169880
153,2,T1_SMS_8,122,5,42,127,275561904
153,2,T1_SMS_8,123,1,48,28,275977176
153,2,T1_SMS_8,124,5,42,127,276361784
153,2,T1_SMS_8,125,1,48,28,276772732
153,2,T1_SMS_8,126,5,42,127,277162192
153,2,T1_SMS_8,127,1,48,29,277561788
153,2,T1_SMS_8,128,5,42,127,277962148
153,2,T1_SMS_8,129,1,48,25,278318364
153,2,T1_SMS_8,130,5,42,127,278761884
153,2,T1_SMS_8,131,1,48,32,279132732
153,2,T1_SMS_8,132,5,42,127,279561644
153,2,T1_SMS_8,133,1,48,31,279958604
153,2,T1_SMS_8,134,5,42,127,280362420
153,2,T1_SMS_8,135,1,48,21,280702924
153,2,T1_SMS_8,136,5,42,127,281162152
153,2,T1_SMS_8,137,1,48,31,281552688
153,2,T1_SMS_8,138,5,42,127,281961812
153,2,T1_SMS_8,139,1,48,32,282345176
153,2,T1_SMS_8,140,5,42,127,282761620
153,2,T1_SMS_8,141,1,48,29,283147852
153,2,T1_SMS_8,142,5,42,127,283562472
153,2,T1_SMS_8,143,1,48,39,283947436
153,2,T1_SMS_8,144,5,42,127,284362056
153,2,T1_SMS_8,145,1,48,36,284842520
153,2,T1_SMS_8,146,5,42,127,285161788
153,2,T1_SMS_8,147,1,48,36,285650692
153,2,T1_SMS_8,148,5,42,127,285961472
153,2,T1_SMS_8,149,1,48,31,286460800
153,2,T1_SMS_8,150,5,42,127,286762548
153,2,T1_SMS_8,151,1,48,34,287337248
153,2,T1_SMS_8,152,5,42,127,287562280
153,2,T1_SMS_8,153,1,48,28,288236820
153,2,T1_SMS_8,154,5,42,127,288361868
153,2,T1_SMS_8,155,1,48,33,289013932
153,2,T1_SMS_8,156,5,42,127,289161524
153,2,T1_SMS_8,157,1,48,26,289847964
153,2,T1_SMS_8,158,5,42,127,289962452
153,2,T1_SMS_8,159,5,42,127,290762208
153,2,T1_SMS_8,160,1,48,28,290801764
153,2,T1_SMS_8,161,5,42,127,291561792
153,2,T1_SMS_8,162,1,48,30,291768112
153,2,T1_SMS_8,163,5,42,127,292361624
153,2,T1_SMS_8,164,5,42,127,293162276
153,2,T1_SMS_8,165,1,48,19,293376112
153,2,T1_SMS_8,166,1,48,21,293918508
153,2,T1_SMS_8,167,5,42,127,293962148
153,2,T1_SMS_8,168,5,42,127,294761964
153,2,T1_SMS_8,169,1,48,26,294784120
153,2,T1_SMS_8,170,5,42,127,295561476
153,2,T1_SMS_8,171,1,48,24,295595724
153,2,T1_SMS_8,172,1,48,24,296351984
153,2,T1_SMS_8,173,5,42,127,296362248
153,2,T1_SMS_8,174,5,42,127,297162064
153,2,T1_SMS_8,175,1,48,28,297182796
153,2,T1_SMS_8,176,5,42,127,297961720
153,2,T1_SMS_8,177,1,48,28,297962684
153,2,T1_SMS_8,178,5,42,127,298761848
153,2,T1_SMS_8,179,1,48,29,298766680
153,2,T1_SMS_8,180,1,48,24,299537120
153,2,T1_SMS_8,181,5,42,127,299562248
153,2,T1_SMS_8,182,1,48,29,300338724
153,2,T1_SMS_8,183,5,42,127,300362056
153,2,T1_SMS_8,184,1,48,30,301152796
153,2,T1_SMS_8,185,5,42,127,301161788
153,2,T1_SMS_8,186,1,48,32,301925868
153,2,T1_SMS_8,187,5,42,127,301961744
153,2,T1_SMS_8,188,1,48,25,302758984
153,2,T1_SMS_8,189,5,42,127,302762448
153,2,T1_SMS_8,190,1,48,29,303549756
153,2,T1_SMS_8,191,5,42,127,303562108
153,2,T1_SMS_8,192,1,48,28,304357480
153,2,T1_SMS_8,193,5,42,127,304361764
153,2,T1_SMS_8,194,1,48,32,305161008
153,2,T1_SMS_8,195,5,42,127,305162720
153,2,T1_SMS_8,196,1,48,33,305951144
153,2,T1_SMS_8,197,5,42,127,305962524
153,2,T1_SMS_8,198,1,48,30,306750128
153,2,T1_SMS_8,199,5,42,127,306761964
153,2,T1_SMS_8,200,1,48,31,307529032
153,2,T1_SMS_8,201,5,42,127,307561696
153,2,T1_SMS_8,202,1,48,35,308320700
153,2,T1_SMS_8,203,5,42,127,308361576
153,2,T1_SMS_8,204,1,48,31,309127972
153,2,T1_SMS_8,205,5,42,127,309162280
153,2,T1_SMS_8,206,1,48,33,309935916
153,2,T1_SMS_8,207,5,42,127,309962236
153,2,T1_SMS_8,208,1,48,39,310724004
153,2,T1_SMS_8,209,5,42,127,310761896
153,2,T1_SMS_8,210,5,42,127,311561512
153,2,T1_SMS_8,211,1,48,33,311579336
153,2,T1_SMS_8,212,5,42,127,312362292
153,2,T1_SMS_8,213,1,48,29,312394076
153,2,T1_SMS_8,214,5,42,127,313162096
153,2,T1_SMS_8,215,1,48,41,313193436
153,2,T1_SMS_8,216,5,42,127,313961904
153,2,T1_SMS_8,217,5,42,127,314761436
153,2,T1_SMS_8,218,1,48,27,315462432
153,2,T1_SMS_8,219,5,42,127,315562956
153,2,T1_SMS_8,220,1,48,29,316306292
153,2,T1_SMS_8,221,5,42,127,316362184
153,2,T1_SMS_8,222,1,48,28,317101700
153,2,T1_SMS_8,223,5,42,127,317162068
153,2,T1_SMS_8,224,5,42,127,317961680
153,2,T1_SMS_8,225,1,48,28,317989068
153,2,T1_SMS_8,226,5,42,127,318762384
153,2,T1_SMS_8,227,1,48,29,318789772
153,2,T1_SMS_8,228,5,42,127,319562044
153,2,T1_SMS_8,229,1,48,27,319592712
153,2,T1_SMS_8,230,5,42,127,320361776
153,2,T1_SMS_8,231,1,48,27,320381836
153,2,T1_SMS_8,232,5,42,127,321161584
153,2,T1_SMS_8,233,1,48,27,321302644
153,2,T1_SMS_8,234,5,42,127,321962364
153,2,T1_SMS_8,235,1,48,34,322220432
153,2,T1_SMS_8,236,5,42,127,322761948
153,2,T1_SMS_8,237,1,48,30,323123684
153,2,T1_SMS_8,238,5,42,127,323561904
153,2,T1_SMS_8,239,1,48,25,323940068
153,2,T1_SMS_8,240,5,42,127,324361588
153,2,T1_SMS_8,241,1,48,24,324723672
153,2,T1_SMS_8,242,5,42,127,325162588
153,2,T1_SMS_8,243,1,48,18,325557608
153,2,T1_SMS_8,244,5,42,127,325962244
153,2,T1_SMS_8,245,1,48,23,326368320
153,2,T1_SMS_8,246,5,42,127,326761832
153,2,T1_SMS_8,247,1,48,16,327191144
153,2,T1_SMS_8,248,5,42,127,327561636
153,2,T1_SMS_8,249,1,48,16,327915808
153,2,T1_SMS_8,250,5,42,127,328362416
153,2,T1_SMS_8,251,1,48,20,328768136
153,2,T1_SMS_8,252,5,42,127,329162220
153,2,T1_SMS_8,253,1,48,23,329577200
153,2,T1_SMS_8,254,5,42,127,329961732
153,2,T1_SMS_8,255,1,48,20,330401576
153,2,T1_SMS_8,256,5,42,127,330761640
153,2,T1_SMS_8,257,1,48,20,331119544
153,2,T1_SMS_8,258,5,42,127,331562416
153,2,T1_SMS_8,259,1,48,26,331939288
153,2,T1_SMS_8,260,5,42,127,332362076
153,2,T1_SMS_8,261,1,48,27,332735284
153,2,T1_SMS_8,262,5,42,127,333161956
153,2,T1_SMS_8,263,1,48,28,333548984
153,2,T1_SMS_8,264,5,42,127,333961688
153,2,T1_SMS_8,265,1,48,29,334352476
153,2,T1_SMS_8,266,5,42,127,334762316
153,2,T1_SMS_8,267,1,48,15,335203952
153,2,T1_SMS_8,268,5,42,127,335562052
153,2,T1_SMS_8,269,1,48,48,335977628
153,2,T1_SMS_8,270,5,42,127,336361860
153,2,T1_SMS_8,271,1,48,35,336801856
153,2,T1_SMS_8,272,5,42,127,337161840
153,2,T1_SMS_8,0,9999,9999,9999,225960032
153,2,T1_SMS_8,1,9999,9999,9999,226759784
153,2,T1_SMS_8,2,9999,9999,9999,227559532
153,2,T1_SMS_8,3,9999,9999,9999,228359216
153,2,T1_SMS_8,4,9999,9999,9999,229159992
153,2,T1_SMS_8,5,9999,9999,9999,229959732
153,2,T1_SMS_8,6,9999,9999,9999,230759536
153,2,T1_SMS_8,7,9999,9999,9999,231559276
153,2,T1_SMS_8,8,9999,9999,9999,232360052
153,2,T1_SMS_8,9,9999,9999,9999,233159784
153,2,T1_SMS_8,10,9999,9999,9999,233959516
153,2,T1_SMS_8,11,9999,9999,9999,234759272
153,2,T1_SMS_8,12,9999,9999,9999,235560052
153,2,T1_SMS_8,13,9999,9999,9999,236359784
153,2,T1_SMS_8,14,9999,9999,9999,237159520
153,2,T1_SMS_8,15,9999,9999,9999,237959248
153,2,T1_SMS_8,16,9999,9999,9999,238760024
153,2,T1_SMS_8,17,9999,9999,9999,239559756
153,2,T1_SMS_8,18,9999,9999,9999,240359492
153,2,T1_SMS_8,19,9999,9999,9999,241159248
153,2,T1_SMS_8,20,9999,9999,9999,241960028
153,2,T1_SMS_8,21,9999,9999,9999,242759760
153,2,T1_SMS_8,22,9999,9999,9999,243559492
153,2,T1_SMS_8,23,9999,9999,9999,244359224
153,2,T1_SMS_8,24,9999,9999,9999,245160004
153,2,T1_SMS_8,25,9999,9999,9999,245959740
153,2,T1_SMS_8,26,9999,9999,9999,246759472
153,2,T1_SMS_8,27,9999,9999,9999,247559216
153,2,T1_SMS_8,28,9999,9999,9999,248359992
153,2,T1_SMS_8,29,9999,9999,9999,249159800
153,2,T1_SMS_8,30,9999,9999,9999,249959532
153,2,T1_SMS_8,31,9999,9999,9999,250759264
153,2,T1_SMS_8,32,9999,9999,9999,251559984
153,2,T1_SMS_8,33,9999,9999,9999,252359788
153,2,T1_SMS_8,34,9999,9999,9999,253159524
153,2,T1_SMS_8,35,9999,9999,9999,253959280
153,2,T1_SMS_8,36,9999,9999,9999,254759984
153,2,T1_SMS_8,37,9999,9999,9999,255559800
153,2,T1_SMS_8,38,9999,9999,9999,256359532
153,2,T1_SMS_8,39,9999,9999,9999,257159268
153,2,T1_SMS_8,40,9999,9999,9999,257960044
153,2,T1_SMS_8,41,9999,9999,9999,258759776
153,2,T1_SMS_8,42,9999,9999,9999,259559508
153,2,T1_SMS_8,43,9999,9999,9999,260359264
153,2,T1_SMS_8,44,9999,9999,9999,261160044
153,2,T1_SMS_8,45,9999,9999,9999,261959772
153,2,T1_SMS_8,46,9999,9999,9999,262759504
153,2,T1_SMS_8,47,9999,9999,9999,263559224
153,2,T1_SMS_8,48,9999,9999,9999,264360016
153,2,T1_SMS_8,49,9999,9999,9999,265159748
153,2,T1_SMS_8,50,9999,9999,9999,265959480
153,2,T1_SMS_8,51,9999,9999,9999,266759240
153,2,T1_SMS_8,52,9999,9999,9999,267560024
153,2,T1_SMS_8,53,9999,9999,9999,268359752
153,2,T1_SMS_8,54,9999,9999,9999,269159488
153,2,T1_SMS_8,55,9999,9999,9999,269959224
153,2,T1_SMS_8,56,9999,9999,9999,270760004
153,2,T1_SMS_8,57,9999,9999,9999,271559736
153,2,T1_SMS_8,58,9999,9999,9999,272359544
153,2,T1_SMS_8,59,9999,9999,9999,273159228
153,2,T1_SMS_8,60,9999,9999,9999,273960004
153,2,T1_SMS_8,61,9999,9999,9999,274759736
153,2,T1_SMS_8,62,9999,9999,9999,275559468
153,2,T1_SMS_8,63,9999,9999,9999,276359276
153,2,T1_SMS_8,64,9999,9999,9999,277159984
153,2,T1_SMS_8,65,9999,9999,9999,277959788
153,2,T1_SMS_8,66,9999,9999,9999,278759524
153,2,T1_SMS_8,67,9999,9999,9999,279559284
153,2,T1_SMS_8,68,9999,9999,9999,280359988
153,2,T1_SMS_8,69,9999,9999,9999,281159792
153,2,T1_SMS_8,70,9999,9999,9999,281959524
153,2,T1_SMS_8,71,9999,9999,9999,282759260
153,2,T1_SMS_8,72,9999,9999,9999,283560036
153,2,T1_SMS_8,73,9999,9999,9999,284359772
153,2,T1_SMS_8,74,9999,9999,9999,285159504
153,2,T1_SMS_8,75,9999,9999,9999,285959260
153,2,T1_SMS_8,76,9999,9999,9999,286760040
153,2,T1_SMS_8,77,9999,9999,9999,287559772
153,2,T1_SMS_8,78,9999,9999,9999,288359508
153,2,T1_SMS_8,79,9999,9999,9999,289159240
153,2,T1_SMS_8,80,9999,9999,9999,289960020
153,2,T1_SMS_8,81,9999,9999,9999,290759772
153,2,T1_SMS_8,82,9999,9999,9999,291559508
153,2,T1_SMS_8,83,9999,9999,9999,292359264
153,2,T1_SMS_8,84,9999,9999,9999,293159992
153,2,T1_SMS_8,85,9999,9999,9999,293959792
153,2,T1_SMS_8,86,9999,9999,9999,294759532
153,2,T1_SMS_8,87,9999,9999,9999,295559264
153,2,T1_SMS_8,88,9999,9999,9999,296360036
153,2,T1_SMS_8,89,9999,9999,9999,297159776
153,2,T1_SMS_8,90,9999,9999,9999,297959508
153,2,T1_SMS_8,91,9999,9999,9999,298759268
153,2,T1_SMS_8,92,9999,9999,9999,299560040
153,2,T1_SMS_8,93,9999,9999,9999,300359772
153,2,T1_SMS_8,94,9999,9999,9999,301159504
153,2,T1_SMS_8,95,9999,9999,9999,301959236
153,2,T1_SMS_8,96,9999,9999,9999,302760016
153,2,T1_SMS_8,97,9999,9999,9999,303559748
153,2,T1_SMS_8,98,9999,9999,9999,304359480
153,2,T1_SMS_8,99,9999,9999,9999,305159248
153,2,T1_SMS_8,100,9999,9999,9999,305960016
153,2,T1_SMS_8,101,9999,9999,9999,306759752
153,2,T1_SMS_8,102,9999,9999,9999,307559488
153,2,T1_SMS_8,103,9999,9999,9999,308359220
153,2,T1_SMS_8,104,9999,9999,9999,309159996
153,2,T1_SMS_8,105,9999,9999,9999,309959728
153,2,T1_SMS_8,106,9999,9999,9999,310759536
153,2,T1_SMS_8,107,9999,9999,9999,311559228
153,2,T1_SMS_8,108,9999,9999,9999,312360004
153,2,T1_SMS_8,109,9999,9999,9999,313159740
153,2,T1_SMS_8,110,9999,9999,9999,313959472
153,2,T1_SMS_8,111,9999,9999,9999,314759228
153,2,T1_SMS_8,112,9999,9999,9999,315560020
153,2,T1_SMS_8,113,9999,9999,9999,316359752
153,2,T1_SMS_8,114,9999,9999,9999,317159484
153,2,T1_SMS_8,115,9999,9999,9999,317959248
153,2,T1_SMS_8,116,9999,9999,9999,318760028
153,2,T1_SMS_8,117,9999,9999,9999,319559760
153,2,T1_SMS_8,118,9999,9999,9999,320359492
153,2,T1_SMS_8,119,9999,9999,9999,321159224
153,2,T1_SMS_8,120,9999,9999,9999,321960004
153,2,T1_SMS_8,121,9999,9999,9999,322759736
153,2,T1_SMS_8,122,9999,9999,9999,323559472
153,2,T1_SMS_8,123,9999,9999,9999,324359228
153,2,T1_SMS_8,124,9999,9999,9999,325160008
153,2,T1_SMS_8,125,9999,9999,9999,325959740
153,2,T1_SMS_8,126,9999,9999,9999,326759472
153,2,T1_SMS_8,127,9999,9999,9999,327559280
153,2,T1_SMS_8,128,9999,9999,9999,328359980
153,2,T1_SMS_8,129,9999,9999,9999,329159788
153,2,T1_SMS_8,130,9999,9999,9999,329959520
153,2,T1_SMS_8,131,9999,9999,9999,330759280
153,2,T1_SMS_8,132,9999,9999,9999,331559984
153,2,T1_SMS_8,133,9999,9999,9999,332359788
153,2,T1_SMS_8,134,9999,9999,9999,333159524
153,2,T1_SMS_8,135,9999,9999,9999,333959256
153,2,T1_SMS_8,136,9999,9999,9999,334760032
153,2,T1_SMS_8,137,9999,9999,9999,335559768
153,2,T1_SMS_8,138,9999,9999,9999,336359500
153,2,T1_SMS_8,139,9999,9999,9999,337159260
154,4,T1_SMS_5,0,5,42,127,361152824
154,4,T1_SMS_5,1,5,42,127,361652744
154,4,T1_SMS_5,2,5,42,127,362153268
154,4,T1_SMS_5,3,5,42,127,362652964
154,4,T1_SMS_5,4,1,48,47,363096016
154,4,T1_SMS_5,5,5,42,127,363152728
154,4,T1_SMS_5,6,1,48,38,363575012
154,4,T1_SMS_5,7,5,42,127,363652408
154,4,T1_SMS_5,8,1,48,36,364087008
154,4,T1_SMS_5,9,5,42,127,364153128
154,4,T1_SMS_5,10,1,48,34,364603564
154,4,T1_SMS_5,11,5,42,127,364652880
154,4,T1_SMS_5,12,1,48,29,365141396
154,4,T1_SMS_5,13,5,42,127,365152632
154,4,T1_SMS_5,14,5,42,127,365653288
154,4,T1_SMS_5,15,1,48,40,365669620
154,4,T1_SMS_5,16,5,42,127,366153188
154,4,T1_SMS_5,17,1,48,33,366172952
154,4,T1_SMS_5,18,5,42,127,366652788
154,4,T1_SMS_5,19,1,48,32,366673228
154,4,T1_SMS_5,20,5,42,127,367152392
154,4,T1_SMS_5,21,1,48,29,367170592
154,4,T1_SMS_5,22,5,42,127,367653264
154,4,T1_SMS_5,23,1,48,29,367667052
154,4,T1_SMS_5,24,5,42,127,368153012
154,4,T1_SMS_5,25,1,48,25,368182488
154,4,T1_SMS_5,26,1,48,23,368639880
154,4,T1_SMS_5,27,5,42,127,368652684
154,4,T1_SMS_5,28,1,48,22,369123324
154,4,T1_SMS_5,29,5,42,127,369153256
154,4,T1_SMS_5,30,1,48,23,369629576
154,4,T1_SMS_5,31,5,42,127,369653280
154,4,T1_SMS_5,32,1,48,26,370117300
154,4,T1_SMS_5,33,5,42,127,370152732
154,4,T1_SMS_5,34,1,48,24,370623328
154,4,T1_SMS_5,35,5,42,127,370652560
154,4,T1_SMS_5,36,1,48,26,371117928
154,4,T1_SMS_5,37,5,42,127,371153208
154,4,T1_SMS_5,38,1,48,23,371627536
154,4,T1_SMS_5,39,5,42,127,371653108
154,4,T1_SMS_5,40,1,48,21,372135720
154,4,T1_SMS_5,41,5,42,127,372152636
154,4,T1_SMS_5,42,1,48,21,372620320
154,4,T1_SMS_5,43,5,42,127,372653428
154,4,T1_SMS_5,44,1,48,27,373126192
154,4,T1_SMS_5,45,5,42,127,373153104
154,4,T1_SMS_5,46,1,48,28,373649688
154,4,T1_SMS_5,47,5,42,127,373652932
154,4,T1_SMS_5,48,1,48,27,374145776
154,4,T1_SMS_5,49,5,42,127,374152532
154,4,T1_SMS_5,50,5,42,127,374653188
154,4,T1_SMS_5,51,1,48,24,374684752
154,4,T1_SMS_5,52,5,42,127,375153012
154,4,T1_SMS_5,53,1,48,16,375197192
154,4,T1_SMS_5,54,5,42,127,375652984
154,4,T1_SMS_5,55,1,48,27,375718380
154,4,T1_SMS_5,56,5,42,127,376152364
154,4,T1_SMS_5,57,1,48,36,376180344
154,4,T1_SMS_5,58,1,48,28,376624744
154,4,T1_SMS_5,59,5,42,127,376653152
154,4,T1_SMS_5,60,1,48,30,377125168
154,4,T1_SMS_5,61,5,42,127,377152904
154,4,T1_SMS_5,62,1,48,29,377582552
154,4,T1_SMS_5,63,5,42,127,377652656
154,4,T1_SMS_5,64,1,48,28,378118400
154,4,T1_SMS_5,65,5,42,127,378153228
154,4,T1_SMS_5,66,5,42,127,378653060
154,4,T1_SMS_5,67,1,48,27,378666032
154,4,T1_SMS_5,68,5,42,127,379152884
154,4,T1_SMS_5,69,1,48,21,379168920
154,4,T1_SMS_5,70,5,42,127,379652412
154,4,T1_SMS_5,71,1,48,20,379683600
154,4,T1_SMS_5,72,5,42,127,380153184
154,4,T1_SMS_5,73,1,48,22,380176256
154,4,T1_SMS_5,74,5,42,127,380653008
154,4,T1_SMS_5,75,1,48,19,380670264
154,4,T1_SMS_5,76,1,48,19,381146672
154,4,T1_SMS_5,77,5,42,127,381152532
154,4,T1_SMS_5,78,5,42,127,381653484
154,4,T1_SMS_5,79,1,48,19,381669144
154,4,T1_SMS_5,80,5,42,127,382153012
154,4,T1_SMS_5,81,1,48,23,382208572
154,4,T1_SMS_5,82,5,42,127,382652688
154,4,T1_SMS_5,83,1,48,18,382666328
154,4,T1_SMS_5,84,1,48,20,383147024
154,4,T1_SMS_5,85,5,42,127,383152656
154,4,T1_SMS_5,86,5,42,127,383653460
154,4,T1_SMS_5,87,1,48,18,383661356
154,4,T1_SMS_5,88,1,48,18,384141448
154,4,T1_SMS_5,89,5,42,127,384152908
154,4,T1_SMS_5,90,1,48,19,384634404
154,4,T1_SMS_5,91,5,42,127,384652584
154,4,T1_SMS_5,92,5,42,127,385153384
154,4,T1_SMS_5,93,1,48,22,385156868
154,4,T1_SMS_5,94,5,42,127,385653212
154,4,T1_SMS_5,95,1,48,24,385657816
154,4,T1_SMS_5,96,1,48,23,386134332
154,4,T1_SMS_5,97,5,42,127,386152736
154,4,T1_SMS_5,98,5,42,127,386652568
154,4,T1_SMS_5,99,1,48,21,386664192
154,4,T1_SMS_5,100,1,48,20,387132864
154,4,T1_SMS_5,101,5,42,127,387153432
154,4,T1_SMS_5,102,1,48,18,387597372
154,4,T1_SMS_5,103,5,42,127,387653108
154,4,T1_SMS_5,104,1,48,18,388110564
154,4,T1_SMS_5,105,5,42,127,388152636
154,4,T1_SMS_5,106,5,42,127,388653516
154,4,T1_SMS_5,107,1,48,17,388724132
154,4,T1_SMS_5,108,1,48,13,389142100
154,4,T1_SMS_5,109,5,42,127,389153336
154,4,T1_SMS_5,110,1,48,20,389635508
154,4,T1_SMS_5,111,5,42,127,389652792
154,4,T1_SMS_5,112,1,48,23,390108724
154,4,T1_SMS_5,113,5,42,127,390152468
154,4,T1_SMS_5,114,1,48,21,390579800
154,4,T1_SMS_5,115,5,42,127,390653260
154,4,T1_SMS_5,116,1,48,19,391074472
154,4,T1_SMS_5,117,5,42,127,391153212
154,4,T1_SMS_5,118,1,48,16,391636648
154,4,T1_SMS_5,119,5,42,127,391652664
154,4,T1_SMS_5,120,5,42,127,392152348
154,4,T1_SMS_5,121,1,48,16,392249576
154,4,T1_SMS_5,122,5,42,127,392653144
154,4,T1_SMS_5,123,1,48,16,392736856
154,4,T1_SMS_5,124,5,42,127,393153120
154,4,T1_SMS_5,125,1,48,18,393154156
154,4,T1_SMS_5,126,1,48,16,393624380
154,4,T1_SMS_5,127,5,42,127,393652716
154,4,T1_SMS_5,128,1,48,16,394119804
154,4,T1_SMS_5,129,5,42,127,394153436
154,4,T1_SMS_5,130,1,48,15,394636948
154,4,T1_SMS_5,131,5,42,127,394652964
154,4,T1_SMS_5,132,1,48,19,395122364
154,4,T1_SMS_5,133,5,42,127,395152936
154,4,T1_SMS_5,134,1,48,18,395612336
154,4,T1_SMS_5,135,5,42,127,395652320
154,4,T1_SMS_5,136,1,48,18,396138820
154,4,T1_SMS_5,137,5,42,127,396153188
154,4,T1_SMS_5,138,5,42,127,396652796
154,4,T1_SMS_5,139,1,48,18,396660168
154,4,T1_SMS_5,140,1,48,16,397122864
154,4,T1_SMS_5,141,5,42,127,397152840
154,4,T1_SMS_5,142,5,42,127,397653344
154,4,T1_SMS_5,143,1,48,16,397656456
154,4,T1_SMS_5,144,1,48,16,398151508
154,4,T1_SMS_5,145,5,42,127,398153236
154,4,T1_SMS_5,146,5,42,127,398652772
154,4,T1_SMS_5,147,1,48,14,398677536
154,4,T1_SMS_5,148,1,48,16,399143520
154,4,T1_SMS_5,149,5,42,127,399152664
154,4,T1_SMS_5,150,1,48,18,399648428
154,4,T1_SMS_5,151,5,42,127,399653164
154,4,T1_SMS_5,152,1,48,17,400130776
154,4,T1_SMS_5,153,5,42,127,400152916
154,4,T1_SMS_5,154,5,42,127,400652748
154,4,T1_SMS_5,155,1,48,20,400658396
154,4,T1_SMS_5,156,5,42,127,401153320
154,4,T1_SMS_5,157,1,48,23,401635028
154,4,T1_SMS_5,158,5,42,127,401653060
154,4,T1_SMS_5,159,5,42,127,402152816
154,4,T1_SMS_5,160,1,48,22,402159068
154,4,T1_SMS_5,161,1,48,20,402620568
154,4,T1_SMS_5,162,5,42,127,402652484
154,4,T1_SMS_5,163,1,48,24,403112700
154,4,T1_SMS_5,164,5,42,127,403153356
154,4,T1_SMS_5,165,1,48,26,403649640
154,4,T1_SMS_5,166,5,42,127,403653108
154,4,T1_SMS_5,167,1,48,20,404126388
154,4,T1_SMS_5,168,5,42,127,404152560
154,4,T1_SMS_5,169,1,48,17,404649292
154,4,T1_SMS_5,170,5,42,127,404653432
154,4,T1_SMS_5,171,1,48,21,405134852
154,4,T1_SMS_5,172,5,42,127,405153404
154,4,T1_SMS_5,173,1,48,27,405652568
154,4,T1_SMS_5,174,5,42,127,405654420
154,4,T1_SMS_5,175,5,42,127,406152540
154,4,T1_SMS_5,176,1,48,25,406179400
154,4,T1_SMS_5,177,5,42,127,406653260
154,4,T1_SMS_5,178,1,48,26,407123424
154,4,T1_SMS_5,179,5,42,127,407152952
154,4,T1_SMS_5,180,5,42,127,407652564
154,4,T1_SMS_5,181,1,48,36,408086428
154,4,T1_SMS_5,182,5,42,127,408152400
154,4,T1_SMS_5,183,1,48,27,408634648
154,4,T1_SMS_5,184,5,42,127,408653348
154,4,T1_SMS_5,185,1,48,20,409128648
154,4,T1_SMS_5,186,5,42,127,409152728
154,4,T1_SMS_5,187,1,48,20,409599576
154,4,T1_SMS_5,188,5,42,127,409652628
154,4,T1_SMS_5,189,1,48,20,410146892
154,4,T1_SMS_5,190,5,42,127,410153200
154,4,T1_SMS_5,191,1,48,18,410622820
154,4,T1_SMS_5,192,5,42,127,410653172
154,4,T1_SMS_5,193,1,48,14,411150592
154,4,T1_SMS_5,194,5,42,127,411152852
154,4,T1_SMS_5,195,1,48,21,411580936
154,4,T1_SMS_5,196,5,42,127,411652308
154,4,T1_SMS_5,197,5,42,127,412153332
154,4,T1_SMS_5,198,1,48,32,412534384
154,4,T1_SMS_5,199,5,42,127,412653060
154,4,T1_SMS_5,200,1,48,28,413006284
154,4,T1_SMS_5,201,5,42,127,413152512
154,4,T1_SMS_5,202,1,48,24,413589600
154,4,T1_SMS_5,203,5,42,127,413653324
154,4,T1_SMS_5,204,1,48,26,414106072
154,4,T1_SMS_5,205,5,42,127,414153000
154,4,T1_SMS_5,206,1,48,20,414647864
154,4,T1_SMS_5,207,5,42,127,414653120
154,4,T1_SMS_5,208,5,42,127,415152432
154,4,T1_SMS_5,209,1,48,21,415186088
154,4,T1_SMS_5,210,5,42,127,415653156
154,4,T1_SMS_5,211,1,48,19,415655892
154,4,T1_SMS_5,212,5,42,127,416152904
154,4,T1_SMS_5,213,1,48,21,416171996
154,4,T1_SMS_5,214,1,48,19,416644104
154,4,T1_SMS_5,215,5,42,127,416652648
154,4,T1_SMS_5,216,1,48,21,417123092
154,4,T1_SMS_5,217,5,42,127,417153372
154,4,T1_SMS_5,218,1,48,17,417628820
154,4,T1_SMS_5,219,5,42,127,417653048
154,4,T1_SMS_5,220,1,48,21,418139476
154,4,T1_SMS_5,221,5,42,127,418152948
154,4,T1_SMS_5,222,1,48,16,418639672
154,4,T1_SMS_5,223,5,42,127,418652624
154,4,T1_SMS_5,224,1,48,19,419093200
154,4,T1_SMS_5,225,5,42,127,419153196
154,4,T1_SMS_5,226,1,48,14,419584440
154,4,T1_SMS_5,227,5,42,127,419653024
154,4,T1_SMS_5,228,1,48,13,420055196
154,4,T1_SMS_5,229,5,42,127,420152608
154,4,T1_SMS_5,230,5,42,127,420653576
154,4,T1_SMS_5,231,1,48,25,421005360
154,4,T1_SMS_5,232,5,42,127,421153100
154,4,T1_SMS_5,233,1,48,27,421493236
154,4,T1_SMS_5,234,5,42,127,421652780
154,4,T1_SMS_5,235,1,48,22,422072664
154,4,T1_SMS_5,236,5,42,127,422152696
154,4,T1_SMS_5,237,1,48,22,422613928
154,4,T1_SMS_5,238,5,42,127,422653564
154,4,T1_SMS_5,239,1,48,24,423109056
154,4,T1_SMS_5,240,5,42,127,423152920
154,4,T1_SMS_5,241,5,42,127,423652676
154,4,T1_SMS_5,242,1,48,26,423668936
154,4,T1_SMS_5,243,5,42,127,424152428
154,4,T1_SMS_5,244,1,48,25,424203204
154,4,T1_SMS_5,245,5,42,127,424653296
154,4,T1_SMS_5,246,1,48,22,424687100
154,4,T1_SMS_5,247,5,42,127,425152752
154,4,T1_SMS_5,248,1,48,22,425217572
154,4,T1_SMS_5,249,5,42,127,425652576
154,4,T1_SMS_5,250,1,48,20,425667260
154,4,T1_SMS_5,251,5,42,127,426153520
154,4,T1_SMS_5,252,1,48,25,426157084
154,4,T1_SMS_5,253,1,48,23,426642328
154,4,T1_SMS_5,254,5,42,127,426653116
154,4,T1_SMS_5,255,1,48,20,427103100
154,4,T1_SMS_5,256,5,42,127,427152644
154,4,T1_SMS_5,257,5,42,127,427652404
154,4,T1_SMS_5,258,1,48,20,427663128
154,4,T1_SMS_5,259,1,48,17,428142400
154,4,T1_SMS_5,260,5,42,127,428153264
154,4,T1_SMS_5,261,1,48,22,428634984
154,4,T1_SMS_5,262,5,42,127,428652868
154,4,T1_SMS_5,263,5,42,127,429152624
154,4,T1_SMS_5,264,1,48,21,429160668
154,4,T1_SMS_5,265,1,48,21,429613136
154,4,T1_SMS_5,266,5,42,127,429653488
154,4,T1_SMS_5,267,1,48,18,430152876
154,4,T1_SMS_5,268,5,42,127,430154508
154,4,T1_SMS_5,269,1,48,21,430622488
154,4,T1_SMS_5,270,5,42,127,430652768
154,4,T1_SMS_5,271,1,48,20,431104544
154,4,T1_SMS_5,272,5,42,127,431152444
154,4,T1_SMS_5,273,1,48,19,431605704
154,4,T1_SMS_5,274,5,42,127,431653160
154,4,T1_SMS_5,275,1,48,22,432134952
154,4,T1_SMS_5,276,5,42,127,432153132
154,4,T1_SMS_5,277,5,42,127,432652520
154,4,T1_SMS_5,278,1,48,22,432681620
154,4,T1_SMS_5,279,5,42,127,433153388
154,4,T1_SMS_5,280,1,48,19,433196824
154,4,T1_SMS_5,281,5,42,127,433653116
154,4,T1_SMS_5,282,1,48,20,433682812
154,4,T1_SMS_5,283,5,42,127,434152844
154,4,T1_SMS_5,284,1,48,17,434255368
154,4,T1_SMS_5,285,5,42,127,434652444
154,4,T1_SMS_5,286,1,48,13,434879076
154,4,T1_SMS_5,287,5,42,127,435153240
154,4,T1_SMS_5,288,1,48,20,435632884
154,4,T1_SMS_5,289,5,42,127,435653080
154,4,T1_SMS_5,0,9999,9999,9999,361150540
154,4,T1_SMS_5,1,9999,9999,9999,361650240
154,4,T1_SMS_5,2,9999,9999,9999,362150984
154,4,T1_SMS_5,3,9999,9999,9999,362650680
154,4,T1_SMS_5,4,9999,9999,9999,363150448
154,4,T1_SMS_5,5,9999,9999,9999,363650124
154,4,T1_SMS_5,6,9999,9999,9999,364150844
154,4,T1_SMS_5,7,9999,9999,9999,364650596
154,4,T1_SMS_5,8,9999,9999,9999,365150276
154,4,T1_SMS_5,9,9999,9999,9999,365651004
154,4,T1_SMS_5,10,9999,9999,9999,366150756
154,4,T1_SMS_5,11,9999,9999,9999,366650432
154,4,T1_SMS_5,12,9999,9999,9999,367150184
154,4,T1_SMS_5,13,9999,9999,9999,367650904
154,4,T1_SMS_5,14,9999,9999,9999,368150580
154,4,T1_SMS_5,15,9999,9999,9999,368650328
154,4,T1_SMS_5,16,9999,9999,9999,369151048
154,4,T1_SMS_5,17,9999,9999,9999,369650772
154,4,T1_SMS_5,18,9999,9999,9999,370150452
154,4,T1_SMS_5,19,9999,9999,9999,370650204
154,4,T1_SMS_5,20,9999,9999,9999,371150924
154,4,T1_SMS_5,21,9999,9999,9999,371650676
154,4,T1_SMS_5,22,9999,9999,9999,372150352
154,4,T1_SMS_5,23,9999,9999,9999,372651072
154,4,T1_SMS_5,24,9999,9999,9999,373150824
154,4,T1_SMS_5,25,9999,9999,9999,373650500
154,4,T1_SMS_5,26,9999,9999,9999,374150248
154,4,T1_SMS_5,27,9999,9999,9999,374650976
154,4,T1_SMS_5,28,9999,9999,9999,375150656
154,4,T1_SMS_5,29,9999,9999,9999,375650404
154,4,T1_SMS_5,30,9999,9999,9999,376150080
154,4,T1_SMS_5,31,9999,9999,9999,376650872
154,4,T1_SMS_5,32,9999,9999,9999,377150548
154,4,T1_SMS_5,33,9999,9999,9999,377650224
154,4,T1_SMS_5,34,9999,9999,9999,378151020
154,4,T1_SMS_5,35,9999,9999,9999,378650700
154,4,T1_SMS_5,36,9999,9999,9999,379150452
154,4,T1_SMS_5,37,9999,9999,9999,379650132
154,4,T1_SMS_5,38,9999,9999,9999,380150900
154,4,T1_SMS_5,39,9999,9999,9999,380650576
154,4,T1_SMS_5,40,9999,9999,9999,381150324
154,4,T1_SMS_5,41,9999,9999,9999,381651052
154,4,T1_SMS_5,42,9999,9999,9999,382150728
154,4,T1_SMS_5,43,9999,9999,9999,382650480
154,4,T1_SMS_5,44,9999,9999,9999,383150152
154,4,T1_SMS_5,45,9999,9999,9999,383650880
154,4,T1_SMS_5,46,9999,9999,9999,384150624
154,4,T1_SMS_5,47,9999,9999,9999,384650300
154,4,T1_SMS_5,48,9999,9999,9999,385151028
154,4,T1_SMS_5,49,9999,9999,9999,385650780
154,4,T1_SMS_5,50,9999,9999,9999,386150452
154,4,T1_SMS_5,51,9999,9999,9999,386650208
154,4,T1_SMS_5,52,9999,9999,9999,387150924
154,4,T1_SMS_5,53,9999,9999,9999,387650676
154,4,T1_SMS_5,54,9999,9999,9999,388150356
154,4,T1_SMS_5,55,9999,9999,9999,388651084
154,4,T1_SMS_5,56,9999,9999,9999,389150828
154,4,T1_SMS_5,57,9999,9999,9999,389650508
154,4,T1_SMS_5,58,9999,9999,9999,390150260
154,4,T1_SMS_5,59,9999,9999,9999,390650980
154,4,T1_SMS_5,60,9999,9999,9999,391150704
154,4,T1_SMS_5,61,9999,9999,9999,391650380
154,4,T1_SMS_5,62,9999,9999,9999,392150064
154,4,T1_SMS_5,63,9999,9999,9999,392650860
154,4,T1_SMS_5,64,9999,9999,9999,393150540
154,4,T1_SMS_5,65,9999,9999,9999,393650284
154,4,T1_SMS_5,66,9999,9999,9999,394151008
154,4,T1_SMS_5,67,9999,9999,9999,394650680
154,4,T1_SMS_5,68,9999,9999,9999,395150432
154,4,T1_SMS_5,69,9999,9999,9999,395650108
154,4,T1_SMS_5,70,9999,9999,9999,396150904
154,4,T1_SMS_5,71,9999,9999,9999,396650588
154,4,T1_SMS_5,72,9999,9999,9999,397150256
154,4,T1_SMS_5,73,9999,9999,9999,397651060
154,4,T1_SMS_5,74,9999,9999,9999,398150736
154,4,T1_SMS_5,75,9999,9999,9999,398650488
154,4,T1_SMS_5,76,9999,9999,9999,399150160
154,4,T1_SMS_5,77,9999,9999,9999,399650880
154,4,T1_SMS_5,78,9999,9999,9999,400150632
154,4,T1_SMS_5,79,9999,9999,9999,400650316
154,4,T1_SMS_5,80,9999,9999,9999,401151036
154,4,T1_SMS_5,81,9999,9999,9999,401650776
154,4,T1_SMS_5,82,9999,9999,9999,402150460
154,4,T1_SMS_5,83,9999,9999,9999,402650204
154,4,T1_SMS_5,84,9999,9999,9999,403150924
154,4,T1_SMS_5,85,9999,9999,9999,403650676
154,4,T1_SMS_5,86,9999,9999,9999,404150352
154,4,T1_SMS_5,87,9999,9999,9999,404651072
154,4,T1_SMS_5,88,9999,9999,9999,405150824
154,4,T1_SMS_5,89,9999,9999,9999,405650508
154,4,T1_SMS_5,90,9999,9999,9999,406150256
154,4,T1_SMS_5,91,9999,9999,9999,406650980
154,4,T1_SMS_5,92,9999,9999,9999,407150672
154,4,T1_SMS_5,93,9999,9999,9999,407650352
154,4,T1_SMS_5,94,9999,9999,9999,408150120
154,4,T1_SMS_5,95,9999,9999,9999,408650840
154,4,T1_SMS_5,96,9999,9999,9999,409150520
154,4,T1_SMS_5,97,9999,9999,9999,409650268
154,4,T1_SMS_5,98,9999,9999,9999,410150992
154,4,T1_SMS_5,99,9999,9999,9999,410650740
154,4,T1_SMS_5,100,9999,9999,9999,411150456
154,4,T1_SMS_5,101,9999,9999,9999,411650096
154,4,T1_SMS_5,102,9999,9999,9999,412150900
154,4,T1_SMS_5,103,9999,9999,9999,412650552
154,4,T1_SMS_5,104,9999,9999,9999,413150304
154,4,T1_SMS_5,105,9999,9999,9999,413651040
154,4,T1_SMS_5,106,9999,9999,9999,414150716
154,4,T1_SMS_5,107,9999,9999,9999,414650468
154,4,T1_SMS_5,108,9999,9999,9999,415150152
154,4,T1_SMS_5,109,9999,9999,9999,415650872
154,4,T1_SMS_5,110,9999,9999,9999,416150620
154,4,T1_SMS_5,111,9999,9999,9999,416650292
154,4,T1_SMS_5,112,9999,9999,9999,417151088
154,4,T1_SMS_5,113,9999,9999,9999,417650764
154,4,T1_SMS_5,114,9999,9999,9999,418150516
154,4,T1_SMS_5,115,9999,9999,9999,418650192
154,4,T1_SMS_5,116,9999,9999,9999,419150916
154,4,T1_SMS_5,117,9999,9999,9999,419650668
154,4,T1_SMS_5,118,9999,9999,9999,420150328
154,4,T1_SMS_5,119,9999,9999,9999,420651068
154,4,T1_SMS_5,120,9999,9999,9999,421150820
154,4,T1_SMS_5,121,9999,9999,9999,421650496
154,4,T1_SMS_5,122,9999,9999,9999,422150264
154,4,T1_SMS_5,123,9999,9999,9999,422650984
154,4,T1_SMS_5,124,9999,9999,9999,423150712
154,4,T1_SMS_5,125,9999,9999,9999,423650396
154,4,T1_SMS_5,126,9999,9999,9999,424150068
154,4,T1_SMS_5,127,9999,9999,9999,424650868
154,4,T1_SMS_5,128,9999,9999,9999,425150540
154,4,T1_SMS_5,129,9999,9999,9999,425650292
154,4,T1_SMS_5,130,9999,9999,9999,426151016
154,4,T1_SMS_5,131,9999,9999,9999,426650684
154,4,T1_SMS_5,132,9999,9999,9999,427150436
154,4,T1_SMS_5,133,9999,9999,9999,427650120
154,4,T1_SMS_5,134,9999,9999,9999,428150832
154,4,T1_SMS_5,135,9999,9999,9999,428650584
154,4,T1_SMS_5,136,9999,9999,9999,429150264
154,4,T1_SMS_5,137,9999,9999,9999,429651056
154,4,T1_SMS_5,138,9999,9999,9999,430150740
154,4,T1_SMS_5,139,9999,9999,9999,430650484
154,4,T1_SMS_5,140,9999,9999,9999,431150164
154,4,T1_SMS_5,141,9999,9999,9999,431650880
154,4,T1_SMS_5,142,9999,9999,9999,432150628
154,4,T1_SMS_5,143,9999,9999,9999,432650312
154,4,T1_SMS_5,144,9999,9999,9999,433151032
154,4,T1_SMS_5,145,9999,9999,9999,433650756
154,4,T1_SMS_5,146,9999,9999,9999,434150484
154,4,T1_SMS_5,147,9999,9999,9999,434650164
154,4,T1_SMS_5,148,9999,9999,9999,435150956
154,4,T1_SMS_5,149,9999,9999,9999,435650648
155,20,Ticks_Linear_8,0,5,42,127,454871304
155,20,Ticks_Linear_8,1,5,42,127,455690736
155,20,Ticks_Linear_8,2,1,48,31,456473016
155,20,Ticks_Linear_8,3,5,42,127,456510960
155,20,Ticks_Linear_8,4,1,48,27,457308092
155,20,Ticks_Linear_8,5,5,42,127,457331168
155,20,Ticks_Linear_8,6,1,48,27,458083228
155,20,Ticks_Linear_8,7,5,42,127,458151304
155,20,Ticks_Linear_8,8,1,48,26,458940824
155,20,Ticks_Linear_8,9,5,42,127,458961124
155,20,Ticks_Linear_8,10,1,48,28,459760736
155,20,Ticks_Linear_8,11,5,42,127,459771116
155,20,Ticks_Linear_8,12,1,48,23,460579568
155,20,Ticks_Linear_8,13,5,42,127,460581376
155,20,Ticks_Linear_8,14,5,42,127,461391128
155,20,Ticks_Linear_8,15,1,48,17,461402840
155,20,Ticks_Linear_8,16,5,42,127,462201396
155,20,Ticks_Linear_8,17,1,48,27,462229860
155,20,Ticks_Linear_8,18,1,48,23,462994492
155,20,Ticks_Linear_8,19,5,42,127,463000816
155,20,Ticks_Linear_8,20,5,42,127,463800772
155,20,Ticks_Linear_8,21,1,48,20,463853152
155,20,Ticks_Linear_8,22,1,48,21,464562912
155,20,Ticks_Linear_8,23,5,42,127,464600416
155,20,Ticks_Linear_8,24,1,48,24,465352996
155,20,Ticks_Linear_8,25,5,42,127,465401284
155,20,Ticks_Linear_8,26,1,48,21,466171660
155,20,Ticks_Linear_8,27,5,42,127,466201084
155,20,Ticks_Linear_8,28,1,48,20,466985288
155,20,Ticks_Linear_8,29,5,42,127,466990496
155,20,Ticks_Linear_8,30,5,42,127,467781180
155,20,Ticks_Linear_8,31,1,48,21,467799256
155,20,Ticks_Linear_8,32,5,42,127,468570364
155,20,Ticks_Linear_8,33,1,48,18,468612652
155,20,Ticks_Linear_8,34,1,48,18,469312324
155,20,Ticks_Linear_8,35,5,42,127,469361184
155,20,Ticks_Linear_8,36,1,48,19,470097088
155,20,Ticks_Linear_8,37,5,42,127,470150444
155,20,Ticks_Linear_8,38,1,48,19,470890468
155,20,Ticks_Linear_8,39,5,42,127,470930952
155,20,Ticks_Linear_8,40,1,48,24,471707684
155,20,Ticks_Linear_8,41,5,42,127,471711092
155,20,Ticks_Linear_8,42,1,48,20,472483488
155,20,Ticks_Linear_8,43,5,42,127,472491380
155,20,Ticks_Linear_8,44,5,42,127,473270628
155,20,Ticks_Linear_8,45,1,48,21,473288764
155,20,Ticks_Linear_8,46,1,48,21,474034564
155,20,Ticks_Linear_8,47,5,42,127,474050908
155,20,Ticks_Linear_8,48,1,48,23,474809552
155,20,Ticks_Linear_8,49,5,42,127,474820952
155,20,Ticks_Linear_8,50,1,48,21,475545796
155,20,Ticks_Linear_8,51,5,42,127,475590996
155,20,Ticks_Linear_8,52,5,42,127,476360972
155,20,Ticks_Linear_8,53,1,48,17,476376788
155,20,Ticks_Linear_8,54,5,42,127,477131016
155,20,Ticks_Linear_8,55,1,48,13,477159404
155,20,Ticks_Linear_8,56,5,42,127,477901060
155,20,Ticks_Linear_8,57,1,48,25,478443328
155,20,Ticks_Linear_8,58,5,42,127,478660936
155,20,Ticks_Linear_8,59,1,48,29,479168360
155,20,Ticks_Linear_8,60,5,42,127,479420888
155,20,Ticks_Linear_8,61,1,48,24,479890416
155,20,Ticks_Linear_8,62,5,42,127,480180692
155,20,Ticks_Linear_8,63,1,48,20,480604084
155,20,Ticks_Linear_8,64,5,42,127,480941612
155,20,Ticks_Linear_8,65,1,48,19,481339976
155,20,Ticks_Linear_8,66,5,42,127,481710540
155,20,Ticks_Linear_8,67,1,48,18,482133932
155,20,Ticks_Linear_8,68,5,42,127,482461072
155,20,Ticks_Linear_8,69,1,48,21,482830944
155,20,Ticks_Linear_8,70,5,42,127,483210556
155,20,Ticks_Linear_8,71,1,48,23,483641132
155,20,Ticks_Linear_8,72,5,42,127,483961236
155,20,Ticks_Linear_8,73,1,48,19,484372604
155,20,Ticks_Linear_8,74,5,42,127,484710796
155,20,Ticks_Linear_8,75,1,48,19,485121116
155,20,Ticks_Linear_8,76,5,42,127,485461552
155,20,Ticks_Linear_8,77,1,48,19,485773684
155,20,Ticks_Linear_8,78,5,42,127,486200628
155,20,Ticks_Linear_8,79,1,48,20,486572264
155,20,Ticks_Linear_8,80,5,42,127,486940916
155,20,Ticks_Linear_8,81,1,48,23,487330276
155,20,Ticks_Linear_8,82,5,42,127,487681428
155,20,Ticks_Linear_8,83,1,48,20,488036612
155,20,Ticks_Linear_8,84,5,42,127,488420720
155,20,Ticks_Linear_8,85,1,48,19,488795892
155,20,Ticks_Linear_8,86,5,42,127,489161012
155,20,Ticks_Linear_8,87,1,48,24,489552936
155,20,Ticks_Linear_8,88,5,42,127,489891352
155,20,Ticks_Linear_8,89,1,48,23,490340248
155,20,Ticks_Linear_8,90,5,42,127,490621252
155,20,Ticks_Linear_8,91,1,48,19,491046220
155,20,Ticks_Linear_8,92,5,42,127,491351376
155,20,Ticks_Linear_8,93,1,48,23,491780756
155,20,Ticks_Linear_8,94,5,42,127,492080376
155,20,Ticks_Linear_8,95,1,48,18,492540040
155,20,Ticks_Linear_8,96,5,42,127,492810572
155,20,Ticks_Linear_8,97,1,48,20,493317772
155,20,Ticks_Linear_8,98,5,42,127,493530428
155,20,Ticks_Linear_8,99,1,48,20,494128428
155,20,Ticks_Linear_8,100,5,42,127,494251280
155,20,Ticks_Linear_8,101,5,42,127,494971180
155,20,Ticks_Linear_8,102,1,48,24,494981100
155,20,Ticks_Linear_8,103,5,42,127,495691060
155,20,Ticks_Linear_8,104,1,48,27,495824260
155,20,Ticks_Linear_8,105,5,42,127,496410868
155,20,Ticks_Linear_8,106,1,48,25,496852852
155,20,Ticks_Linear_8,107,5,42,127,497120848
155,20,Ticks_Linear_8,108,1,48,26,497734764
155,20,Ticks_Linear_8,109,5,42,127,497831160
155,20,Ticks_Linear_8,110,1,48,27,498531428
155,20,Ticks_Linear_8,111,5,42,127,498541036
155,20,Ticks_Linear_8,112,5,42,127,499250752
155,20,Ticks_Linear_8,113,1,48,24,499357328
155,20,Ticks_Linear_8,114,5,42,127,499961212
155,20,Ticks_Linear_8,115,1,48,26,500234540
155,20,Ticks_Linear_8,116,5,42,127,500660660
155,20,Ticks_Linear_8,117,1,48,21,500995164
155,20,Ticks_Linear_8,118,5,42,127,501360952
155,20,Ticks_Linear_8,119,1,48,21,501712328
155,20,Ticks_Linear_8,120,5,42,127,502061464
155,20,Ticks_Linear_8,121,1,48,21,502466068
155,20,Ticks_Linear_8,122,5,42,127,502771028
155,20,Ticks_Linear_8,123,1,48,20,503242924
155,20,Ticks_Linear_8,124,5,42,127,503470548
155,20,Ticks_Linear_8,125,1,48,20,504069888
155,20,Ticks_Linear_8,126,5,42,127,504160540
155,20,Ticks_Linear_8,127,1,48,22,504750496
155,20,Ticks_Linear_8,128,5,42,127,504850872
155,20,Ticks_Linear_8,129,1,48,20,505453628
155,20,Ticks_Linear_8,130,5,42,127,505540840
155,20,Ticks_Linear_8,131,5,42,127,506231268
155,20,Ticks_Linear_8,132,1,48,21,506246116
155,20,Ticks_Linear_8,133,1,48,20,506921024
155,20,Ticks_Linear_8,134,5,42,127,506922580
155,20,Ticks_Linear_8,135,5,42,127,507601400
155,20,Ticks_Linear_8,136,1,48,14,507680804
155,20,Ticks_Linear_8,137,1,48,17,508214244
155,20,Ticks_Linear_8,138,5,42,127,508281348
155,20,Ticks_Linear_8,139,1,48,15,508871528
155,20,Ticks_Linear_8,140,5,42,127,508961084
155,20,Ticks_Linear_8,141,1,48,18,509554700
155,20,Ticks_Linear_8,142,5,42,127,509641164
155,20,Ticks_Linear_8,143,1,48,18,510236296
155,20,Ticks_Linear_8,144,5,42,127,510320972
155,20,Ticks_Linear_8,145,1,48,20,510945464
155,20,Ticks_Linear_8,146,5,42,127,510990612
155,20,Ticks_Linear_8,147,5,42,127,511661504
155,20,Ticks_Linear_8,148,1,48,16,511745756
155,20,Ticks_Linear_8,149,1,48,21,512319516
155,20,Ticks_Linear_8,150,5,42,127,512341304
155,20,Ticks_Linear_8,151,1,48,25,512971332
155,20,Ticks_Linear_8,152,5,42,127,513011092
155,20,Ticks_Linear_8,153,1,48,26,513608140
155,20,Ticks_Linear_8,154,5,42,127,513680860
155,20,Ticks_Linear_8,155,1,48,32,514215708
155,20,Ticks_Linear_8,156,5,42,127,514341140
155,20,Ticks_Linear_8,157,1,48,29,514901872
155,20,Ticks_Linear_8,158,5,42,127,515000736
155,20,Ticks_Linear_8,159,1,48,25,515618908
155,20,Ticks_Linear_8,160,5,42,127,515661120
155,20,Ticks_Linear_8,161,1,48,27,516317828
155,20,Ticks_Linear_8,162,5,42,127,516320568
155,20,Ticks_Linear_8,163,5,42,127,516981092
155,20,Ticks_Linear_8,164,1,48,21,517021216
155,20,Ticks_Linear_8,165,5,42,127,517631296
155,20,Ticks_Linear_8,166,1,48,25,517682188
155,20,Ticks_Linear_8,167,5,42,127,518280800
155,20,Ticks_Linear_8,168,1,48,21,518317332
155,20,Ticks_Linear_8,169,5,42,127,518930928
155,20,Ticks_Linear_8,170,1,48,14,518954152
155,20,Ticks_Linear_8,171,1,48,23,519574400
155,20,Ticks_Linear_8,172,5,42,127,519581024
155,20,Ticks_Linear_8,173,1,48,28,520154000
155,20,Ticks_Linear_8,174,5,42,127,520231300
155,20,Ticks_Linear_8,175,1,48,22,520871688
155,20,Ticks_Linear_8,176,5,42,127,520872948
155,20,Ticks_Linear_8,177,5,42,127,521511276
155,20,Ticks_Linear_8,178,1,48,26,521536592
155,20,Ticks_Linear_8,179,1,48,28,522148836
155,20,Ticks_Linear_8,180,5,42,127,522151500
155,20,Ticks_Linear_8,181,1,48,26,522777884
155,20,Ticks_Linear_8,182,5,42,127,522791388
155,20,Ticks_Linear_8,183,5,42,127,523431328
155,20,Ticks_Linear_8,184,1,48,23,523479456
155,20,Ticks_Linear_8,185,5,42,127,524060972
155,20,Ticks_Linear_8,186,1,48,23,524169432
155,20,Ticks_Linear_8,187,5,42,127,524690740
155,20,Ticks_Linear_8,188,1,48,24,524791220
155,20,Ticks_Linear_8,189,5,42,127,525320532
155,20,Ticks_Linear_8,190,1,48,26,525403640
155,20,Ticks_Linear_8,191,5,42,127,525951416
155,20,Ticks_Linear_8,192,1,48,28,526079192
155,20,Ticks_Linear_8,193,5,42,127,526581136
155,20,Ticks_Linear_8,194,1,48,24,526706108
155,20,Ticks_Linear_8,195,5,42,127,527200588
155,20,Ticks_Linear_8,196,1,48,20,527336392
155,20,Ticks_Linear_8,197,5,42,127,527821160
155,20,Ticks_Linear_8,198,1,48,20,528143552
155,20,Ticks_Linear_8,199,5,42,127,528440784
155,20,Ticks_Linear_8,200,1,48,22,528783260
155,20,Ticks_Linear_8,201,5,42,127,529061276
155,20,Ticks_Linear_8,202,1,48,20,529481988
155,20,Ticks_Linear_8,203,5,42,127,529680680
155,20,Ticks_Linear_8,204,1,48,19,530165228
155,20,Ticks_Linear_8,205,5,42,127,530291156
155,20,Ticks_Linear_8,206,5,42,127,530901432
155,20,Ticks_Linear_8,207,1,48,24,530934176
155,20,Ticks_Linear_8,208,5,42,127,531510592
155,20,Ticks_Linear_8,209,1,48,26,531626884
155,20,Ticks_Linear_8,210,5,42,127,532120844
155,20,Ticks_Linear_8,211,1,48,26,532347884
155,20,Ticks_Linear_8,212,5,42,127,532731276
155,20,Ticks_Linear_8,213,1,48,21,533168268
155,20,Ticks_Linear_8,214,5,42,127,533331288
155,20,Ticks_Linear_8,215,1,48,18,533924464
155,20,Ticks_Linear_8,216,5,42,127,533931316
155,20,Ticks_Linear_8,217,5,42,127,534530312
155,20,Ticks_Linear_8,218,1,48,20,534682728
155,20,Ticks_Linear_8,219,5,42,127,535130548
155,20,Ticks_Linear_8,220,1,48,21,535482148
155,20,Ticks_Linear_8,221,5,42,127,535730412
155,20,Ticks_Linear_8,222,1,48,18,536317848
155,20,Ticks_Linear_8,223,5,42,127,536321340
155,20,Ticks_Linear_8,224,5,42,127,536911192
155,20,Ticks_Linear_8,225,1,48,15,537000584
155,20,Ticks_Linear_8,226,5,42,127,537501112
155,20,Ticks_Linear_8,227,1,48,19,538061928
155,20,Ticks_Linear_8,228,5,42,127,538090896
155,20,Ticks_Linear_8,229,1,48,25,538605508
155,20,Ticks_Linear_8,230,5,42,127,538680620
155,20,Ticks_Linear_8,231,1,48,25,539205824
155,20,Ticks_Linear_8,232,5,42,127,539261192
155,20,Ticks_Linear_8,233,5,42,127,539840952
155,20,Ticks_Linear_8,234,1,48,21,539857964
155,20,Ticks_Linear_8,235,5,42,127,540420504
155,20,Ticks_Linear_8,236,1,48,24,540455240
155,20,Ticks_Linear_8,237,5,42,127,541001004
155,20,Ticks_Linear_8,238,1,48,27,541013088
155,20,Ticks_Linear_8,239,5,42,127,541580532
155,20,Ticks_Linear_8,240,1,48,21,541702912
155,20,Ticks_Linear_8,241,5,42,127,542150940
155,20,Ticks_Linear_8,242,1,48,20,542181044
155,20,Ticks_Linear_8,243,5,42,127,542721516
155,20,Ticks_Linear_8,244,1,48,17,542820852
155,20,Ticks_Linear_8,245,5,42,127,543290728
155,20,Ticks_Linear_8,246,1,48,18,543300276
155,20,Ticks_Linear_8,247,5,42,127,543861208
155,20,Ticks_Linear_8,248,1,48,20,543919504
155,20,Ticks_Linear_8,249,5,42,127,544430348
155,20,Ticks_Linear_8,250,1,48,22,544455136
155,20,Ticks_Linear_8,251,5,42,127,544990508
155,20,Ticks_Linear_8,252,1,48,24,545025492
155,20,Ticks_Linear_8,253,5,42,127,545550624
155,20,Ticks_Linear_8,254,1,48,33,546064484
155,20,Ticks_Linear_8,255,5,42,127,546110728
155,20,Ticks_Linear_8,256,1,48,30,546632644
155,20,Ticks_Linear_8,257,5,42,127,546670816
155,20,Ticks_Linear_8,258,5,42,127,547231284
155,20,Ticks_Linear_8,259,1,48,27,547278208
155,20,Ticks_Linear_8,260,5,42,127,547780912
155,20,Ticks_Linear_8,261,1,48,29,547828752
155,20,Ticks_Linear_8,262,5,42,127,548330832
155,20,Ticks_Linear_8,263,1,48,31,548492888
155,20,Ticks_Linear_8,264,5,42,127,548881124
155,20,Ticks_Linear_8,265,1,48,25,549296572
155,20,Ticks_Linear_8,266,5,42,127,549431120
155,20,Ticks_Linear_8,267,1,48,24,549977500
155,20,Ticks_Linear_8,268,5,42,127,549980540
155,20,Ticks_Linear_8,269,5,42,127,550521120
155,20,Ticks_Linear_8,270,1,48,19,550532608
155,20,Ticks_Linear_8,271,1,48,21,551034136
155,20,Ticks_Linear_8,272,5,42,127,551061016
155,20,Ticks_Linear_8,273,1,48,21,551568888
155,20,Ticks_Linear_8,274,5,42,127,551600476
155,20,Ticks_Linear_8,275,1,48,21,552137188
155,20,Ticks_Linear_8,276,5,42,127,552141124
155,20,Ticks_Linear_8,277,1,48,21,552664392
155,20,Ticks_Linear_8,278,5,42,127,552680956
155,20,Ticks_Linear_8,279,5,42,127,553211224
155,20,Ticks_Linear_8,280,1,48,20,553213964
155,20,Ticks_Linear_8,281,1,48,22,553713248
155,20,Ticks_Linear_8,282,5,42,127,553740804
155,20,Ticks_Linear_8,283,1,48,23,554256884
155,20,Ticks_Linear_8,284,5,42,127,554271140
155,20,Ticks_Linear_8,285,5,42,127,554800436
155,20,Ticks_Linear_8,286,1,48,24,554804372
155,20,Ticks_Linear_8,287,5,42,127,555330916
155,20,Ticks_Linear_8,288,1,48,22,555343228
155,20,Ticks_Linear_8,289,5,42,127,555851084
155,20,Ticks_Linear_8,290,1,48,25,555970756
155,20,Ticks_Linear_8,291,5,42,127,556371176
155,20,Ticks_Linear_8,292,1,48,24,556389548
155,20,Ticks_Linear_8,293,5,42,127,556890668
155,20,Ticks_Linear_8,294,1,48,21,556933260
155,20,Ticks_Linear_8,295,5,42,127,557410836
155,20,Ticks_Linear_8,296,1,48,22,557416712
155,20,Ticks_Linear_8,297,1,48,21,557929724
155,20,Ticks_Linear_8,298,5,42,127,557931516
155,20,Ticks_Linear_8,299,5,42,127,558440780
155,20,Ticks_Linear_8,300,1,48,22,558447400
155,20,Ticks_Linear_8,301,5,42,127,558950704
155,20,Ticks_Linear_8,302,1,48,19,559017136
155,20,Ticks_Linear_8,303,5,42,127,559460776
155,20,Ticks_Linear_8,304,1,48,20,559501500
155,20,Ticks_Linear_8,305,5,42,127,559970704
155,20,Ticks_Linear_8,306,1,48,25,559983908
155,20,Ticks_Linear_8,307,5,42,127,560480776
155,20,Ticks_Linear_8,308,1,48,24,560487776
155,20,Ticks_Linear_8,309,5,42,127,560981356
155,20,Ticks_Linear_8,310,1,48,24,561004352
155,20,Ticks_Linear_8,311,1,48,24,561479912
155,20,Ticks_Linear_8,312,5,42,127,561481700
155,20,Ticks_Linear_8,313,1,48,24,561980948
155,20,Ticks_Linear_8,314,5,42,127,561982512
155,20,Ticks_Linear_8,315,5,42,127,562480480
155,20,Ticks_Linear_8,316,1,48,22,562491072
155,20,Ticks_Linear_8,317,5,42,127,562981356
155,20,Ticks_Linear_8,318,1,48,24,562998760
155,20,Ticks_Linear_8,319,5,42,127,563470724
155,20,Ticks_Linear_8,320,1,48,21,563499264
155,20,Ticks_Linear_8,321,5,42,127,563961284
155,20,Ticks_Linear_8,322,1,48,23,564007380
155,20,Ticks_Linear_8,323,5,42,127,564450552
155,20,Ticks_Linear_8,324,1,48,23,564490100
155,20,Ticks_Linear_8,325,1,48,21,564931796
155,20,Ticks_Linear_8,326,5,42,127,564941328
155,20,Ticks_Linear_8,327,1,48,19,565427132
155,20,Ticks_Linear_8,328,5,42,127,565430624
155,20,Ticks_Linear_8,0,9999,9999,9999,454869080
155,20,Ticks_Linear_8,1,9999,9999,9999,455688292
155,20,Ticks_Linear_8,2,9999,9999,9999,456508516
155,20,Ticks_Linear_8,3,9999,9999,9999,457328728
155,20,Ticks_Linear_8,4,9999,9999,9999,458148936
155,20,Ticks_Linear_8,5,9999,9999,9999,458958904
155,20,Ticks_Linear_8,6,9999,9999,9999,459768896
155,20,Ticks_Linear_8,7,9999,9999,9999,460578948
155,20,Ticks_Linear_8,8,9999,9999,9999,461388908
155,20,Ticks_Linear_8,9,9999,9999,9999,462198876
155,20,Ticks_Linear_8,10,9999,9999,9999,462998596
155,20,Ticks_Linear_8,11,9999,9999,9999,463798328
155,20,Ticks_Linear_8,12,9999,9999,9999,464598120
155,20,Ticks_Linear_8,13,9999,9999,9999,465398840
155,20,Ticks_Linear_8,14,9999,9999,9999,466198640
155,20,Ticks_Linear_8,15,9999,9999,9999,466988124
155,20,Ticks_Linear_8,16,9999,9999,9999,467778660
155,20,Ticks_Linear_8,17,9999,9999,9999,468568144
155,20,Ticks_Linear_8,18,9999,9999,9999,469358664
155,20,Ticks_Linear_8,19,9999,9999,9999,470148224
155,20,Ticks_Linear_8,20,9999,9999,9999,470928508
155,20,Ticks_Linear_8,21,9999,9999,9999,471708800
155,20,Ticks_Linear_8,22,9999,9999,9999,472489084
155,20,Ticks_Linear_8,23,9999,9999,9999,473268332
155,20,Ticks_Linear_8,24,9999,9999,9999,474048612
155,20,Ticks_Linear_8,25,9999,9999,9999,474818656
155,20,Ticks_Linear_8,26,9999,9999,9999,475588700
155,20,Ticks_Linear_8,27,9999,9999,9999,476358752
155,20,Ticks_Linear_8,28,9999,9999,9999,477128792
155,20,Ticks_Linear_8,29,9999,9999,9999,477898840
155,20,Ticks_Linear_8,30,9999,9999,9999,478658640
155,20,Ticks_Linear_8,31,9999,9999,9999,479418444
155,20,Ticks_Linear_8,32,9999,9999,9999,480178248
155,20,Ticks_Linear_8,33,9999,9999,9999,480939096
155,20,Ticks_Linear_8,34,9999,9999,9999,481708096
155,20,Ticks_Linear_8,35,9999,9999,9999,482458700
155,20,Ticks_Linear_8,36,9999,9999,9999,483208264
155,20,Ticks_Linear_8,37,9999,9999,9999,483958868
155,20,Ticks_Linear_8,38,9999,9999,9999,484708428
155,20,Ticks_Linear_8,39,9999,9999,9999,485459032
155,20,Ticks_Linear_8,40,9999,9999,9999,486198328
155,20,Ticks_Linear_8,41,9999,9999,9999,486938696
155,20,Ticks_Linear_8,42,9999,9999,9999,487679056
155,20,Ticks_Linear_8,43,9999,9999,9999,488418424
155,20,Ticks_Linear_8,44,9999,9999,9999,489158716
155,20,Ticks_Linear_8,45,9999,9999,9999,489888836
155,20,Ticks_Linear_8,46,9999,9999,9999,490618956
155,20,Ticks_Linear_8,47,9999,9999,9999,491349080
155,20,Ticks_Linear_8,48,9999,9999,9999,492078156
155,20,Ticks_Linear_8,49,9999,9999,9999,492808276
155,20,Ticks_Linear_8,50,9999,9999,9999,493528132
155,20,Ticks_Linear_8,51,9999,9999,9999,494249060
155,20,Ticks_Linear_8,52,9999,9999,9999,494968884
155,20,Ticks_Linear_8,53,9999,9999,9999,495688764
155,20,Ticks_Linear_8,54,9999,9999,9999,496408644
155,20,Ticks_Linear_8,55,9999,9999,9999,497118328
155,20,Ticks_Linear_8,56,9999,9999,9999,497828940
155,20,Ticks_Linear_8,57,9999,9999,9999,498538592
155,20,Ticks_Linear_8,58,9999,9999,9999,499248236
155,20,Ticks_Linear_8,59,9999,9999,9999,499958844
155,20,Ticks_Linear_8,60,9999,9999,9999,500658292
155,20,Ticks_Linear_8,61,9999,9999,9999,501358656
155,20,Ticks_Linear_8,62,9999,9999,9999,502059096
155,20,Ticks_Linear_8,63,9999,9999,9999,502768736
155,20,Ticks_Linear_8,64,9999,9999,9999,503468104
155,20,Ticks_Linear_8,65,9999,9999,9999,504158320
155,20,Ticks_Linear_8,66,9999,9999,9999,504848504
155,20,Ticks_Linear_8,67,9999,9999,9999,505538620
155,20,Ticks_Linear_8,68,9999,9999,9999,506228824
155,20,Ticks_Linear_8,69,9999,9999,9999,506919024
155,20,Ticks_Linear_8,70,9999,9999,9999,507598956
155,20,Ticks_Linear_8,71,9999,9999,9999,508278908
155,20,Ticks_Linear_8,72,9999,9999,9999,508958788
155,20,Ticks_Linear_8,73,9999,9999,9999,509638720
155,20,Ticks_Linear_8,74,9999,9999,9999,510318676
155,20,Ticks_Linear_8,75,9999,9999,9999,510988392
155,20,Ticks_Linear_8,76,9999,9999,9999,511659136
155,20,Ticks_Linear_8,77,9999,9999,9999,512339008
155,20,Ticks_Linear_8,78,9999,9999,9999,513008724
155,20,Ticks_Linear_8,79,9999,9999,9999,513678416
155,20,Ticks_Linear_8,80,9999,9999,9999,514338920
155,20,Ticks_Linear_8,81,9999,9999,9999,514998364
155,20,Ticks_Linear_8,82,9999,9999,9999,515658824
155,20,Ticks_Linear_8,83,9999,9999,9999,516318272
155,20,Ticks_Linear_8,84,9999,9999,9999,516978796
155,20,Ticks_Linear_8,85,9999,9999,9999,517629000
155,20,Ticks_Linear_8,86,9999,9999,9999,518278208
155,20,Ticks_Linear_8,87,9999,9999,9999,518928484
155,20,Ticks_Linear_8,88,9999,9999,9999,519578728
155,20,Ticks_Linear_8,89,9999,9999,9999,520228928
155,20,Ticks_Linear_8,90,9999,9999,9999,520868944
155,20,Ticks_Linear_8,91,9999,9999,9999,521508980
155,20,Ticks_Linear_8,92,9999,9999,9999,522148984
155,20,Ticks_Linear_8,93,9999,9999,9999,522788944
155,20,Ticks_Linear_8,94,9999,9999,9999,523428956
155,20,Ticks_Linear_8,95,9999,9999,9999,524058752
155,20,Ticks_Linear_8,96,9999,9999,9999,524688444
155,20,Ticks_Linear_8,97,9999,9999,9999,525318236
155,20,Ticks_Linear_8,98,9999,9999,9999,525949048
155,20,Ticks_Linear_8,99,9999,9999,9999,526578764
155,20,Ticks_Linear_8,100,9999,9999,9999,527198292
155,20,Ticks_Linear_8,101,9999,9999,9999,527818860
155,20,Ticks_Linear_8,102,9999,9999,9999,528438340
155,20,Ticks_Linear_8,103,9999,9999,9999,529058908
155,20,Ticks_Linear_8,104,9999,9999,9999,529678460
155,20,Ticks_Linear_8,105,9999,9999,9999,530288712
155,20,Ticks_Linear_8,106,9999,9999,9999,530899064
155,20,Ticks_Linear_8,107,9999,9999,9999,531508296
155,20,Ticks_Linear_8,108,9999,9999,9999,532118624
155,20,Ticks_Linear_8,109,9999,9999,9999,532728904
155,20,Ticks_Linear_8,110,9999,9999,9999,533328992
155,20,Ticks_Linear_8,111,9999,9999,9999,533929020
155,20,Ticks_Linear_8,112,9999,9999,9999,534528092
155,20,Ticks_Linear_8,113,9999,9999,9999,535128176
155,20,Ticks_Linear_8,114,9999,9999,9999,535728192
155,20,Ticks_Linear_8,115,9999,9999,9999,536319044
155,20,Ticks_Linear_8,116,9999,9999,9999,536908896
155,20,Ticks_Linear_8,117,9999,9999,9999,537498744
155,20,Ticks_Linear_8,118,9999,9999,9999,538088528
155,20,Ticks_Linear_8,119,9999,9999,9999,538678396
155,20,Ticks_Linear_8,120,9999,9999,9999,539258972
155,20,Ticks_Linear_8,121,9999,9999,9999,539838580
155,20,Ticks_Linear_8,122,9999,9999,9999,540418136
155,20,Ticks_Linear_8,123,9999,9999,9999,540998780
155,20,Ticks_Linear_8,124,9999,9999,9999,541578308
155,20,Ticks_Linear_8,125,9999,9999,9999,542148716
155,20,Ticks_Linear_8,126,9999,9999,9999,542719072
155,20,Ticks_Linear_8,127,9999,9999,9999,543288432
155,20,Ticks_Linear_8,128,9999,9999,9999,543858764
155,20,Ticks_Linear_8,129,9999,9999,9999,544428124
155,20,Ticks_Linear_8,130,9999,9999,9999,544988288
155,20,Ticks_Linear_8,131,9999,9999,9999,545548404
155,20,Ticks_Linear_8,132,9999,9999,9999,546108508
155,20,Ticks_Linear_8,133,9999,9999,9999,546668596
155,20,Ticks_Linear_8,134,9999,9999,9999,547228768
155,20,Ticks_Linear_8,135,9999,9999,9999,547778616
155,20,Ticks_Linear_8,136,9999,9999,9999,548328536
155,20,Ticks_Linear_8,137,9999,9999,9999,548878456
155,20,Ticks_Linear_8,138,9999,9999,9999,549428304
155,20,Ticks_Linear_8,139,9999,9999,9999,549978168
155,20,Ticks_Linear_8,140,9999,9999,9999,550518900
155,20,Ticks_Linear_8,141,9999,9999,9999,551058500
155,20,Ticks_Linear_8,142,9999,9999,9999,551598180
155,20,Ticks_Linear_8,143,9999,9999,9999,552138828
155,20,Ticks_Linear_8,144,9999,9999,9999,552678512
155,20,Ticks_Linear_8,145,9999,9999,9999,553208928
155,20,Ticks_Linear_8,146,9999,9999,9999,553738360
155,20,Ticks_Linear_8,147,9999,9999,9999,554268768
155,20,Ticks_Linear_8,148,9999,9999,9999,554798140
155,20,Ticks_Linear_8,149,9999,9999,9999,555328620
155,20,Ticks_Linear_8,150,9999,9999,9999,555848788
155,20,Ticks_Linear_8,151,9999,9999,9999,556368956
155,20,Ticks_Linear_8,152,9999,9999,9999,556888152
155,20,Ticks_Linear_8,153,9999,9999,9999,557408316
155,20,Ticks_Linear_8,154,9999,9999,9999,557928556
155,20,Ticks_Linear_8,155,9999,9999,9999,558438484
155,20,Ticks_Linear_8,156,9999,9999,9999,558948412
155,20,Ticks_Linear_8,157,9999,9999,9999,559458408
155,20,Ticks_Linear_8,158,9999,9999,9999,559968332
155,20,Ticks_Linear_8,159,9999,9999,9999,560478332
155,20,Ticks_Linear_8,160,9999,9999,9999,560979060
155,20,Ticks_Linear_8,161,9999,9999,9999,561478744
155,20,Ticks_Linear_8,162,9999,9999,9999,561978428
155,20,Ticks_Linear_8,163,9999,9999,9999,562478184
155,20,Ticks_Linear_8,164,9999,9999,9999,562978912
155,20,Ticks_Linear_8,165,9999,9999,9999,563468356
155,20,Ticks_Linear_8,166,9999,9999,9999,563958840
155,20,Ticks_Linear_8,167,9999,9999,9999,564448332
155,20,Ticks_Linear_8,168,9999,9999,9999,564938812
155,20,Ticks_Linear_8,169,9999,9999,9999,565428328
156,21,Ticks_Linear_5,0,5,42,127,576352752
156,21,Ticks_Linear_5,1,5,42,127,576832872
156,21,Ticks_Linear_5,2,5,42,127,577313060
156,21,Ticks_Linear_5,3,5,42,127,577793252
156,21,Ticks_Linear_5,4,1,48,34,578219240
156,21,Ticks_Linear_5,5,5,42,127,578272516
156,21,Ticks_Linear_5,6,1,48,32,578697088
156,21,Ticks_Linear_5,7,5,42,127,578763000
156,21,Ticks_Linear_5,8,1,48,29,579177484
156,21,Ticks_Linear_5,9,5,42,127,579252588
156,21,Ticks_Linear_5,10,1,48,29,579652276
156,21,Ticks_Linear_5,11,5,42,127,579743000
156,21,Ticks_Linear_5,12,1,48,29,580144100
156,21,Ticks_Linear_5,13,5,42,127,580232588
156,21,Ticks_Linear_5,14,1,48,22,580681324
156,21,Ticks_Linear_5,15,5,42,127,580722928
156,21,Ticks_Linear_5,16,1,48,27,581170764
156,21,Ticks_Linear_5,17,5,42,127,581222760
156,21,Ticks_Linear_5,18,1,48,29,581674548
156,21,Ticks_Linear_5,19,5,42,127,581722440
156,21,Ticks_Linear_5,20,1,48,23,582176172
156,21,Ticks_Linear_5,21,5,42,127,582223240
156,21,Ticks_Linear_5,22,1,48,26,582666584
156,21,Ticks_Linear_5,23,5,42,127,582722848
156,21,Ticks_Linear_5,24,1,48,27,583207012
156,21,Ticks_Linear_5,25,5,42,127,583222680
156,21,Ticks_Linear_5,26,1,48,32,583719252
156,21,Ticks_Linear_5,27,5,42,127,583732532
156,21,Ticks_Linear_5,28,1,48,27,584233220
156,21,Ticks_Linear_5,29,5,42,127,584242604
156,21,Ticks_Linear_5,30,1,48,32,584717044
156,21,Ticks_Linear_5,31,5,42,127,584752528
156,21,Ticks_Linear_5,32,1,48,31,585214488
156,21,Ticks_Linear_5,33,5,42,127,585262452
156,21,Ticks_Linear_5,34,1,48,25,585745044
156,21,Ticks_Linear_5,35,5,42,127,585773348
156,21,Ticks_Linear_5,36,1,48,26,586274632
156,21,Ticks_Linear_5,37,5,42,127,586302860
156,21,Ticks_Linear_5,38,1,48,21,586785232
156,21,Ticks_Linear_5,39,5,42,127,586823400
156,21,Ticks_Linear_5,40,1,48,25,587337768
156,21,Ticks_Linear_5,41,5,42,127,587343268
156,21,Ticks_Linear_5,42,5,42,127,587863292
156,21,Ticks_Linear_5,43,1,48,28,587886436
156,21,Ticks_Linear_5,44,5,42,127,588382564
156,21,Ticks_Linear_5,45,1,48,24,588447720
156,21,Ticks_Linear_5,46,5,42,127,588913120
156,21,Ticks_Linear_5,47,1,48,27,588922072
156,21,Ticks_Linear_5,48,1,48,32,589432788
156,21,Ticks_Linear_5,49,5,42,127,589442328
156,21,Ticks_Linear_5,50,1,48,34,589972292
156,21,Ticks_Linear_5,51,5,42,127,589974004
156,21,Ticks_Linear_5,52,5,42,127,590503224
156,21,Ticks_Linear_5,53,1,48,24,590515980
156,21,Ticks_Linear_5,54,1,48,30,590988872
156,21,Ticks_Linear_5,55,5,42,127,591032656
156,21,Ticks_Linear_5,56,1,48,27,591491184
156,21,Ticks_Linear_5,57,5,42,127,591573232
156,21,Ticks_Linear_5,58,1,48,29,592040640
156,21,Ticks_Linear_5,59,5,42,127,592113008
156,21,Ticks_Linear_5,60,1,48,29,592542500
156,21,Ticks_Linear_5,61,5,42,127,592652676
156,21,Ticks_Linear_5,62,1,48,25,593115964
156,21,Ticks_Linear_5,63,5,42,127,593193268
156,21,Ticks_Linear_5,64,1,48,21,593671080
156,21,Ticks_Linear_5,65,5,42,127,593733020
156,21,Ticks_Linear_5,66,1,48,29,594197368
156,21,Ticks_Linear_5,67,5,42,127,594282796
156,21,Ticks_Linear_5,68,5,42,127,594832872
156,21,Ticks_Linear_5,69,1,48,24,594836432
156,21,Ticks_Linear_5,70,5,42,127,595382716
156,21,Ticks_Linear_5,71,1,48,30,595421204
156,21,Ticks_Linear_5,72,5,42,127,595932788
156,21,Ticks_Linear_5,73,1,48,31,595968892
156,21,Ticks_Linear_5,74,5,42,127,596482364
156,21,Ticks_Linear_5,75,1,48,29,596553584
156,21,Ticks_Linear_5,76,5,42,127,597042528
156,21,Ticks_Linear_5,77,1,48,32,597058272
156,21,Ticks_Linear_5,78,1,48,36,597578564
156,21,Ticks_Linear_5,79,5,42,127,597602760
156,21,Ticks_Linear_5,80,5,42,127,598162784
156,21,Ticks_Linear_5,81,1,48,21,598296376
156,21,Ticks_Linear_5,82,5,42,127,598722868
156,21,Ticks_Linear_5,83,1,48,20,598899600
156,21,Ticks_Linear_5,84,5,42,127,599283060
156,21,Ticks_Linear_5,85,1,48,28,599495284
156,21,Ticks_Linear_5,86,5,42,127,599853616
156,21,Ticks_Linear_5,87,1,48,24,600098528
156,21,Ticks_Linear_5,88,5,42,127,600432996
156,21,Ticks_Linear_5,89,1,48,23,600723444
156,21,Ticks_Linear_5,90,5,42,127,601003476
156,21,Ticks_Linear_5,91,1,48,22,601381796
156,21,Ticks_Linear_5,92,5,42,127,601572684
156,21,Ticks_Linear_5,93,1,48,18,602124524
156,21,Ticks_Linear_5,94,5,42,127,602143032
156,21,Ticks_Linear_5,95,5,42,127,602722640
156,21,Ticks_Linear_5,96,1,48,21,602746832
156,21,Ticks_Linear_5,97,5,42,127,603303512
156,21,Ticks_Linear_5,98,1,48,25,603395172
156,21,Ticks_Linear_5,99,5,42,127,603882916
156,21,Ticks_Linear_5,100,1,48,23,604374104
156,21,Ticks_Linear_5,101,5,42,127,604462460
156,21,Ticks_Linear_5,102,1,48,17,604967700
156,21,Ticks_Linear_5,103,5,42,127,605043180
156,21,Ticks_Linear_5,104,1,48,24,605628196
156,21,Ticks_Linear_5,105,5,42,127,605633172
156,21,Ticks_Linear_5,106,1,48,19,606198104
156,21,Ticks_Linear_5,107,5,42,127,606222596
156,21,Ticks_Linear_5,108,1,48,23,606785784
156,21,Ticks_Linear_5,109,5,42,127,606812516
156,21,Ticks_Linear_5,110,1,48,18,607392004
156,21,Ticks_Linear_5,111,5,42,127,607403256
156,21,Ticks_Linear_5,112,5,42,127,607993204
156,21,Ticks_Linear_5,113,1,48,22,607994168
156,21,Ticks_Linear_5,114,5,42,127,608593144
156,21,Ticks_Linear_5,115,1,48,27,608612036
156,21,Ticks_Linear_5,116,5,42,127,609193308
156,21,Ticks_Linear_5,117,1,48,31,609666272
156,21,Ticks_Linear_5,118,5,42,127,609793344
156,21,Ticks_Linear_5,119,1,48,30,610206996
156,21,Ticks_Linear_5,120,5,42,127,610392384
156,21,Ticks_Linear_5,121,1,48,32,610824972
156,21,Ticks_Linear_5,122,5,42,127,610992616
156,21,Ticks_Linear_5,123,1,48,31,611372136
156,21,Ticks_Linear_5,124,5,42,127,611602820
156,21,Ticks_Linear_5,125,1,48,26,612136488
156,21,Ticks_Linear_5,126,5,42,127,612213164
156,21,Ticks_Linear_5,127,5,42,127,612823352
156,21,Ticks_Linear_5,128,1,48,32,612947152
156,21,Ticks_Linear_5,129,5,42,127,613432956
156,21,Ticks_Linear_5,130,1,48,24,613545076
156,21,Ticks_Linear_5,131,5,42,127,614042988
156,21,Ticks_Linear_5,132,1,48,21,614230036
156,21,Ticks_Linear_5,133,5,42,127,614662760
156,21,Ticks_Linear_5,134,1,48,19,615022584
156,21,Ticks_Linear_5,135,5,42,127,615283032
156,21,Ticks_Linear_5,136,1,48,28,615668076
156,21,Ticks_Linear_5,137,5,42,127,615902780
156,21,Ticks_Linear_5,138,1,48,20,616375372
156,21,Ticks_Linear_5,139,5,42,127,616523076
156,21,Ticks_Linear_5,140,1,48,28,617063100
156,21,Ticks_Linear_5,141,5,42,127,617142836
156,21,Ticks_Linear_5,142,5,42,127,617773608
156,21,Ticks_Linear_5,143,1,48,27,617857464
156,21,Ticks_Linear_5,144,5,42,127,618413396
156,21,Ticks_Linear_5,145,1,48,22,618494212
156,21,Ticks_Linear_5,146,5,42,127,619053576
156,21,Ticks_Linear_5,147,1,48,20,619095272
156,21,Ticks_Linear_5,148,5,42,127,619693512
156,21,Ticks_Linear_5,149,1,48,21,620038780
156,21,Ticks_Linear_5,150,5,42,127,620333620
156,21,Ticks_Linear_5,151,1,48,28,620759308
156,21,Ticks_Linear_5,152,5,42,127,620973552
156,21,Ticks_Linear_5,153,1,48,27,621568924
156,21,Ticks_Linear_5,154,5,42,127,621613452
156,21,Ticks_Linear_5,155,5,42,127,622253396
156,21,Ticks_Linear_5,156,1,48,26,622733468
156,21,Ticks_Linear_5,157,5,42,127,622893504
156,21,Ticks_Linear_5,158,5,42,127,623533384
156,21,Ticks_Linear_5,159,1,48,23,623538292
156,21,Ticks_Linear_5,160,5,42,127,624193008
156,21,Ticks_Linear_5,161,1,48,17,624315140
156,21,Ticks_Linear_5,162,5,42,127,624843332
156,21,Ticks_Linear_5,163,1,48,15,625062608
156,21,Ticks_Linear_5,164,5,42,127,625493384
156,21,Ticks_Linear_5,165,1,48,19,625916108
156,21,Ticks_Linear_5,166,5,42,127,626142440
156,21,Ticks_Linear_5,167,1,48,29,626648596
156,21,Ticks_Linear_5,168,5,42,127,626792792
156,21,Ticks_Linear_5,169,5,42,127,627453328
156,21,Ticks_Linear_5,170,1,48,22,627468628
156,21,Ticks_Linear_5,171,5,42,127,628112852
156,21,Ticks_Linear_5,172,1,48,24,628429164
156,21,Ticks_Linear_5,173,5,42,127,628773296
156,21,Ticks_Linear_5,174,1,48,19,629202060
156,21,Ticks_Linear_5,175,5,42,127,629432592
156,21,Ticks_Linear_5,176,1,48,22,629975088
156,21,Ticks_Linear_5,177,5,42,127,630093112
156,21,Ticks_Linear_5,178,5,42,127,630762996
156,21,Ticks_Linear_5,179,1,48,26,630880268
156,21,Ticks_Linear_5,180,5,42,127,631432536
156,21,Ticks_Linear_5,181,1,48,21,631624896
156,21,Ticks_Linear_5,182,5,42,127,632103148
156,21,Ticks_Linear_5,183,1,48,29,632369296
156,21,Ticks_Linear_5,184,5,42,127,632772984
156,21,Ticks_Linear_5,185,1,48,24,633102340
156,21,Ticks_Linear_5,186,5,42,127,633442776
156,21,Ticks_Linear_5,187,1,48,20,633810444
156,21,Ticks_Linear_5,188,5,42,127,634122804
156,21,Ticks_Linear_5,189,1,48,22,634584460
156,21,Ticks_Linear_5,190,5,42,127,634802664
156,21,Ticks_Linear_5,191,1,48,24,635282512
156,21,Ticks_Linear_5,192,5,42,127,635482616
156,21,Ticks_Linear_5,193,1,48,21,635986160
156,21,Ticks_Linear_5,194,5,42,127,636162424
156,21,Ticks_Linear_5,195,1,48,14,636741404
156,21,Ticks_Linear_5,196,5,42,127,636843404
156,21,Ticks_Linear_5,197,1,48,20,637507708
156,21,Ticks_Linear_5,198,5,42,127,637532720
156,21,Ticks_Linear_5,199,1,48,24,638180496
156,21,Ticks_Linear_5,200,5,42,127,638222620
156,21,Ticks_Linear_5,201,5,42,127,638912800
156,21,Ticks_Linear_5,202,1,48,20,638932588
156,21,Ticks_Linear_5,203,5,42,127,639603000
156,21,Ticks_Linear_5,204,1,48,19,639655824
156,21,Ticks_Linear_5,205,5,42,127,640293120
156,21,Ticks_Linear_5,206,1,48,24,640326212
156,21,Ticks_Linear_5,207,1,48,28,640992936
156,21,Ticks_Linear_5,208,5,42,127,640994428
156,21,Ticks_Linear_5,209,5,42,127,641693008
156,21,Ticks_Linear_5,210,1,48,27,641696120
156,21,Ticks_Linear_5,211,5,42,127,642392328
156,21,Ticks_Linear_5,212,1,48,27,642417640
156,21,Ticks_Linear_5,213,5,42,127,643092844
156,21,Ticks_Linear_5,214,1,48,25,643143208
156,21,Ticks_Linear_5,215,5,42,127,643793260
156,21,Ticks_Linear_5,216,1,48,25,644014848
156,21,Ticks_Linear_5,217,5,42,127,644502824
156,21,Ticks_Linear_5,218,1,48,20,644747368
156,21,Ticks_Linear_5,219,5,42,127,645212388
156,21,Ticks_Linear_5,220,1,48,20,645429932
156,21,Ticks_Linear_5,221,5,42,127,645923288
156,21,Ticks_Linear_5,222,1,48,21,646217396
156,21,Ticks_Linear_5,223,5,42,127,646632776
156,21,Ticks_Linear_5,224,1,48,19,646957092
156,21,Ticks_Linear_5,225,5,42,127,647342392
156,21,Ticks_Linear_5,226,1,48,23,647684300
156,21,Ticks_Linear_5,227,5,42,127,648063316
156,21,Ticks_Linear_5,228,1,48,16,648415212
156,21,Ticks_Linear_5,229,5,42,127,648783344
156,21,Ticks_Linear_5,230,1,48,17,649141680
156,21,Ticks_Linear_5,231,5,42,127,649503296
156,21,Ticks_Linear_5,232,1,48,23,649893180
156,21,Ticks_Linear_5,233,5,42,127,650223252
156,21,Ticks_Linear_5,234,1,48,24,650595416
156,21,Ticks_Linear_5,235,5,42,127,650942956
156,21,Ticks_Linear_5,236,1,48,21,651303484
156,21,Ticks_Linear_5,237,5,42,127,651672928
156,21,Ticks_Linear_5,238,1,48,27,652084140
156,21,Ticks_Linear_5,239,5,42,127,652403052
156,21,Ticks_Linear_5,240,1,48,21,652829656
156,21,Ticks_Linear_5,241,5,42,127,653133168
156,21,Ticks_Linear_5,242,1,48,26,653850620
156,21,Ticks_Linear_5,243,5,42,127,653863156
156,21,Ticks_Linear_5,244,5,42,127,654593508
156,21,Ticks_Linear_5,245,1,48,21,655149160
156,21,Ticks_Linear_5,246,5,42,127,655332828
156,21,Ticks_Linear_5,247,1,48,17,655742004
156,21,Ticks_Linear_5,248,5,42,127,656073020
156,21,Ticks_Linear_5,249,1,48,26,656711088
156,21,Ticks_Linear_5,250,5,42,127,656813604
156,21,Ticks_Linear_5,251,1,48,24,657425580
156,21,Ticks_Linear_5,252,5,42,127,657562940
156,21,Ticks_Linear_5,253,5,42,127,658303400
156,21,Ticks_Linear_5,254,1,48,21,658321848
156,21,Ticks_Linear_5,255,5,42,127,659052888
156,21,Ticks_Linear_5,256,1,48,22,659279780
156,21,Ticks_Linear_5,257,5,42,127,659802524
156,21,Ticks_Linear_5,258,1,48,30,660070160
156,21,Ticks_Linear_5,259,5,42,127,660553276
156,21,Ticks_Linear_5,260,1,48,21,660987140
156,21,Ticks_Linear_5,261,5,42,127,661302616
156,21,Ticks_Linear_5,262,1,48,19,661796064
156,21,Ticks_Linear_5,263,5,42,127,662053368
156,21,Ticks_Linear_5,264,1,48,20,662594068
156,21,Ticks_Linear_5,265,5,42,127,662813248
156,21,Ticks_Linear_5,266,1,48,27,663305052
156,21,Ticks_Linear_5,267,5,42,127,663572900
156,21,Ticks_Linear_5,268,5,42,127,664332648
156,21,Ticks_Linear_5,269,1,48,18,664878800
156,21,Ticks_Linear_5,270,5,42,127,665092448
156,21,Ticks_Linear_5,271,5,42,127,665853172
156,21,Ticks_Linear_5,272,1,48,31,666060156
156,21,Ticks_Linear_5,273,5,42,127,666623212
156,21,Ticks_Linear_5,274,1,48,38,667095332
156,21,Ticks_Linear_5,275,5,42,127,667393256
156,21,Ticks_Linear_5,276,1,48,43,667662852
156,21,Ticks_Linear_5,277,5,42,127,668162332
156,21,Ticks_Linear_5,278,5,42,127,668932472
156,21,Ticks_Linear_5,279,1,48,33,668975432
156,21,Ticks_Linear_5,280,1,48,32,669490264
156,21,Ticks_Linear_5,281,5,42,127,669702644
156,21,Ticks_Linear_5,282,1,48,20,670254704
156,21,Ticks_Linear_5,283,5,42,127,670483152
156,21,Ticks_Linear_5,284,5,42,127,671263088
156,21,Ticks_Linear_5,285,1,48,27,671478848
156,21,Ticks_Linear_5,286,5,42,127,672043300
156,21,Ticks_Linear_5,287,1,48,26,672262280
156,21,Ticks_Linear_5,288,5,42,127,672822764
156,21,Ticks_Linear_5,289,1,48,25,673122036
156,21,Ticks_Linear_5,290,5,42,127,673602976
156,21,Ticks_Linear_5,291,1,48,23,673924228
156,21,Ticks_Linear_5,292,5,42,127,674392384
156,21,Ticks_Linear_5,293,1,48,27,674763128
156,21,Ticks_Linear_5,294,5,42,127,675182836
156,21,Ticks_Linear_5,295,1,48,30,675504236
156,21,Ticks_Linear_5,296,5,42,127,675972464
156,21,Ticks_Linear_5,297,1,48,26,676274800
156,21,Ticks_Linear_5,298,5,42,127,676762992
156,21,Ticks_Linear_5,299,1,48,30,677099664
156,21,Ticks_Linear_5,300,5,42,127,677552552
156,21,Ticks_Linear_5,301,1,48,19,677975056
156,21,Ticks_Linear_5,302,5,42,127,678353468
156,21,Ticks_Linear_5,303,1,48,22,678718556
156,21,Ticks_Linear_5,304,5,42,127,679153144
156,21,Ticks_Linear_5,305,1,48,26,679580788
156,21,Ticks_Linear_5,306,5,42,127,679952796
156,21,Ticks_Linear_5,307,1,48,27,680414968
156,21,Ticks_Linear_5,308,5,42,127,680752520
156,21,Ticks_Linear_5,309,1,48,28,681282832
156,21,Ticks_Linear_5,310,5,42,127,681553364
156,21,Ticks_Linear_5,311,1,48,29,682114696
156,21,Ticks_Linear_5,312,5,42,127,682363328
156,21,Ticks_Linear_5,313,1,48,26,683023380
156,21,Ticks_Linear_5,314,5,42,127,683173520
156,21,Ticks_Linear_5,315,1,48,26,683933592
156,21,Ticks_Linear_5,316,5,42,127,683983200
156,21,Ticks_Linear_5,317,5,42,127,684793424
156,21,Ticks_Linear_5,318,1,48,28,684798780
156,21,Ticks_Linear_5,319,5,42,127,685603244
156,21,Ticks_Linear_5,0,9999,9999,9999,576350312
156,21,Ticks_Linear_5,1,9999,9999,9999,576830576
156,21,Ticks_Linear_5,2,9999,9999,9999,577310840
156,21,Ticks_Linear_5,3,9999,9999,9999,577791032
156,21,Ticks_Linear_5,4,9999,9999,9999,578270296
156,21,Ticks_Linear_5,5,9999,9999,9999,578760780
156,21,Ticks_Linear_5,6,9999,9999,9999,579250296
156,21,Ticks_Linear_5,7,9999,9999,9999,579740780
156,21,Ticks_Linear_5,8,9999,9999,9999,580230220
156,21,Ticks_Linear_5,9,9999,9999,9999,580720708
156,21,Ticks_Linear_5,10,9999,9999,9999,581220464
156,21,Ticks_Linear_5,11,9999,9999,9999,581720144
156,21,Ticks_Linear_5,12,9999,9999,9999,582220872
156,21,Ticks_Linear_5,13,9999,9999,9999,582720628
156,21,Ticks_Linear_5,14,9999,9999,9999,583220312
156,21,Ticks_Linear_5,15,9999,9999,9999,583730236
156,21,Ticks_Linear_5,16,9999,9999,9999,584240236
156,21,Ticks_Linear_5,17,9999,9999,9999,584750160
156,21,Ticks_Linear_5,18,9999,9999,9999,585260160
156,21,Ticks_Linear_5,19,9999,9999,9999,585771128
156,21,Ticks_Linear_5,20,9999,9999,9999,586300492
156,21,Ticks_Linear_5,21,9999,9999,9999,586820732
156,21,Ticks_Linear_5,22,9999,9999,9999,587340900
156,21,Ticks_Linear_5,23,9999,9999,9999,587861072
156,21,Ticks_Linear_5,24,9999,9999,9999,588380268
156,21,Ticks_Linear_5,25,9999,9999,9999,588910676
156,21,Ticks_Linear_5,26,9999,9999,9999,589440108
156,21,Ticks_Linear_5,27,9999,9999,9999,589970524
156,21,Ticks_Linear_5,28,9999,9999,9999,590500928
156,21,Ticks_Linear_5,29,9999,9999,9999,591030360
156,21,Ticks_Linear_5,30,9999,9999,9999,591571012
156,21,Ticks_Linear_5,31,9999,9999,9999,592110716
156,21,Ticks_Linear_5,32,9999,9999,9999,592650304
156,21,Ticks_Linear_5,33,9999,9999,9999,593190972
156,21,Ticks_Linear_5,34,9999,9999,9999,593730648
156,21,Ticks_Linear_5,35,9999,9999,9999,594280572
156,21,Ticks_Linear_5,36,9999,9999,9999,594830428
156,21,Ticks_Linear_5,37,9999,9999,9999,595380348
156,21,Ticks_Linear_5,38,9999,9999,9999,595930196
156,21,Ticks_Linear_5,39,9999,9999,9999,596480068
156,21,Ticks_Linear_5,40,9999,9999,9999,597040232
156,21,Ticks_Linear_5,41,9999,9999,9999,597600316
156,21,Ticks_Linear_5,42,9999,9999,9999,598160488
156,21,Ticks_Linear_5,43,9999,9999,9999,598720576
156,21,Ticks_Linear_5,44,9999,9999,9999,599280764
156,21,Ticks_Linear_5,45,9999,9999,9999,599851096
156,21,Ticks_Linear_5,46,9999,9999,9999,600430700
156,21,Ticks_Linear_5,47,9999,9999,9999,601001032
156,21,Ticks_Linear_5,48,9999,9999,9999,601570392
156,21,Ticks_Linear_5,49,9999,9999,9999,602140736
156,21,Ticks_Linear_5,50,9999,9999,9999,602720348
156,21,Ticks_Linear_5,51,9999,9999,9999,603300920
156,21,Ticks_Linear_5,52,9999,9999,9999,603880548
156,21,Ticks_Linear_5,53,9999,9999,9999,604460092
156,21,Ticks_Linear_5,54,9999,9999,9999,605040736
156,21,Ticks_Linear_5,55,9999,9999,9999,605630580
156,21,Ticks_Linear_5,56,9999,9999,9999,606220376
156,21,Ticks_Linear_5,57,9999,9999,9999,606810220
156,21,Ticks_Linear_5,58,9999,9999,9999,607401036
156,21,Ticks_Linear_5,59,9999,9999,9999,607990912
156,21,Ticks_Linear_5,60,9999,9999,9999,608590924
156,21,Ticks_Linear_5,61,9999,9999,9999,609191012
156,21,Ticks_Linear_5,62,9999,9999,9999,609791048
156,21,Ticks_Linear_5,63,9999,9999,9999,610390088
156,21,Ticks_Linear_5,64,9999,9999,9999,610990172
156,21,Ticks_Linear_5,65,9999,9999,9999,611600452
156,21,Ticks_Linear_5,66,9999,9999,9999,612210796
156,21,Ticks_Linear_5,67,9999,9999,9999,612821056
156,21,Ticks_Linear_5,68,9999,9999,9999,613430364
156,21,Ticks_Linear_5,69,9999,9999,9999,614040692
156,21,Ticks_Linear_5,70,9999,9999,9999,614660168
156,21,Ticks_Linear_5,71,9999,9999,9999,615280736
156,21,Ticks_Linear_5,72,9999,9999,9999,615900260
156,21,Ticks_Linear_5,73,9999,9999,9999,616520780
156,21,Ticks_Linear_5,74,9999,9999,9999,617140320
156,21,Ticks_Linear_5,75,9999,9999,9999,617771092
156,21,Ticks_Linear_5,76,9999,9999,9999,618411100
156,21,Ticks_Linear_5,77,9999,9999,9999,619051132
156,21,Ticks_Linear_5,78,9999,9999,9999,619691068
156,21,Ticks_Linear_5,79,9999,9999,9999,620331100
156,21,Ticks_Linear_5,80,9999,9999,9999,620971108
156,21,Ticks_Linear_5,81,9999,9999,9999,621611084
156,21,Ticks_Linear_5,82,9999,9999,9999,622251100
156,21,Ticks_Linear_5,83,9999,9999,9999,622891132
156,21,Ticks_Linear_5,84,9999,9999,9999,623531088
156,21,Ticks_Linear_5,85,9999,9999,9999,624190564
156,21,Ticks_Linear_5,86,9999,9999,9999,624840812
156,21,Ticks_Linear_5,87,9999,9999,9999,625491012
156,21,Ticks_Linear_5,88,9999,9999,9999,626140220
156,21,Ticks_Linear_5,89,9999,9999,9999,626790496
156,21,Ticks_Linear_5,90,9999,9999,9999,627450960
156,21,Ticks_Linear_5,91,9999,9999,9999,628110408
156,21,Ticks_Linear_5,92,9999,9999,9999,628770928
156,21,Ticks_Linear_5,93,9999,9999,9999,629430372
156,21,Ticks_Linear_5,94,9999,9999,9999,630090816
156,21,Ticks_Linear_5,95,9999,9999,9999,630760552
156,21,Ticks_Linear_5,96,9999,9999,9999,631430240
156,21,Ticks_Linear_5,97,9999,9999,9999,632100928
156,21,Ticks_Linear_5,98,9999,9999,9999,632770616
156,21,Ticks_Linear_5,99,9999,9999,9999,633440332
156,21,Ticks_Linear_5,100,9999,9999,9999,634120288
156,21,Ticks_Linear_5,101,9999,9999,9999,634800220
156,21,Ticks_Linear_5,102,9999,9999,9999,635480172
156,21,Ticks_Linear_5,103,9999,9999,9999,636160056
156,21,Ticks_Linear_5,104,9999,9999,9999,636841032
156,21,Ticks_Linear_5,105,9999,9999,9999,637530204
156,21,Ticks_Linear_5,106,9999,9999,9999,638220400
156,21,Ticks_Linear_5,107,9999,9999,9999,638910580
156,21,Ticks_Linear_5,108,9999,9999,9999,639600704
156,21,Ticks_Linear_5,109,9999,9999,9999,640290900
156,21,Ticks_Linear_5,110,9999,9999,9999,640990272
156,21,Ticks_Linear_5,111,9999,9999,9999,641690712
156,21,Ticks_Linear_5,112,9999,9999,9999,642390108
156,21,Ticks_Linear_5,113,9999,9999,9999,643090548
156,21,Ticks_Linear_5,114,9999,9999,9999,643790964
156,21,Ticks_Linear_5,115,9999,9999,9999,644500600
156,21,Ticks_Linear_5,116,9999,9999,9999,645210164
156,21,Ticks_Linear_5,117,9999,9999,9999,645920844
156,21,Ticks_Linear_5,118,9999,9999,9999,646630484
156,21,Ticks_Linear_5,119,9999,9999,9999,647340096
156,21,Ticks_Linear_5,120,9999,9999,9999,648061020
156,21,Ticks_Linear_5,121,9999,9999,9999,648780900
156,21,Ticks_Linear_5,122,9999,9999,9999,649500780
156,21,Ticks_Linear_5,123,9999,9999,9999,650220656
156,21,Ticks_Linear_5,124,9999,9999,9999,650940512
156,21,Ticks_Linear_5,125,9999,9999,9999,651670636
156,21,Ticks_Linear_5,126,9999,9999,9999,652400756
156,21,Ticks_Linear_5,127,9999,9999,9999,653130876
156,21,Ticks_Linear_5,128,9999,9999,9999,653860936
156,21,Ticks_Linear_5,129,9999,9999,9999,654591064
156,21,Ticks_Linear_5,130,9999,9999,9999,655330384
156,21,Ticks_Linear_5,131,9999,9999,9999,656070724
156,21,Ticks_Linear_5,132,9999,9999,9999,656811088
156,21,Ticks_Linear_5,133,9999,9999,9999,657560648
156,21,Ticks_Linear_5,134,9999,9999,9999,658301032
156,21,Ticks_Linear_5,135,9999,9999,9999,659050592
156,21,Ticks_Linear_5,136,9999,9999,9999,659800152
156,21,Ticks_Linear_5,137,9999,9999,9999,660550760
156,21,Ticks_Linear_5,138,9999,9999,9999,661300320
156,21,Ticks_Linear_5,139,9999,9999,9999,662050924
156,21,Ticks_Linear_5,140,9999,9999,9999,662810728
156,21,Ticks_Linear_5,141,9999,9999,9999,663570532
156,21,Ticks_Linear_5,142,9999,9999,9999,664330352
156,21,Ticks_Linear_5,143,9999,9999,9999,665090156
156,21,Ticks_Linear_5,144,9999,9999,9999,665850948
156,21,Ticks_Linear_5,145,9999,9999,9999,666620992
156,21,Ticks_Linear_5,146,9999,9999,9999,667391036
156,21,Ticks_Linear_5,147,9999,9999,9999,668160112
156,21,Ticks_Linear_5,148,9999,9999,9999,668930100
156,21,Ticks_Linear_5,149,9999,9999,9999,669700200
156,21,Ticks_Linear_5,150,9999,9999,9999,670480484
156,21,Ticks_Linear_5,151,9999,9999,9999,671260792
156,21,Ticks_Linear_5,152,9999,9999,9999,672041076
156,21,Ticks_Linear_5,153,9999,9999,9999,672820320
156,21,Ticks_Linear_5,154,9999,9999,9999,673600604
156,21,Ticks_Linear_5,155,9999,9999,9999,674390088
156,21,Ticks_Linear_5,156,9999,9999,9999,675180616
156,21,Ticks_Linear_5,157,9999,9999,9999,675970172
156,21,Ticks_Linear_5,158,9999,9999,9999,676760700
156,21,Ticks_Linear_5,159,9999,9999,9999,677550180
156,21,Ticks_Linear_5,160,9999,9999,9999,678350952
156,21,Ticks_Linear_5,161,9999,9999,9999,679150700
156,21,Ticks_Linear_5,162,9999,9999,9999,679950424
156,21,Ticks_Linear_5,163,9999,9999,9999,680750148
156,21,Ticks_Linear_5,164,9999,9999,9999,681550920
156,21,Ticks_Linear_5,165,9999,9999,9999,682360884
156,21,Ticks_Linear_5,166,9999,9999,9999,683170928
156,21,Ticks_Linear_5,167,9999,9999,9999,683980908
156,21,Ticks_Linear_5,168,9999,9999,9999,684790904
156,21,Ticks_Linear_5,169,9999,9999,9999,685600872
157,9,Ticks_ISO_T2_8,0,5,42,127,706216244
157,9,Ticks_ISO_T2_8,1,5,42,127,707016220
157,9,Ticks_ISO_T2_8,2,1,48,43,707797492
157,9,Ticks_ISO_T2_8,3,5,42,127,707815844
157,9,Ticks_ISO_T2_8,4,1,48,37,708573480
157,9,Ticks_ISO_T2_8,5,5,42,127,708615552
157,9,Ticks_ISO_T2_8,6,1,48,27,709357980
157,9,Ticks_ISO_T2_8,7,5,42,127,709416256
157,9,Ticks_ISO_T2_8,8,1,48,35,710177648
157,9,Ticks_ISO_T2_8,9,5,42,127,710216064
157,9,Ticks_ISO_T2_8,10,5,42,127,711015876
157,9,Ticks_ISO_T2_8,11,1,48,26,711074848
157,9,Ticks_ISO_T2_8,12,5,42,127,711815460
157,9,Ticks_ISO_T2_8,13,1,48,29,711856584
157,9,Ticks_ISO_T2_8,14,1,48,27,712587900
157,9,Ticks_ISO_T2_8,15,5,42,127,712616232
157,9,Ticks_ISO_T2_8,16,5,42,127,713415972
157,9,Ticks_ISO_T2_8,17,1,48,30,713437404
157,9,Ticks_ISO_T2_8,18,1,48,23,714177876
157,9,Ticks_ISO_T2_8,19,5,42,127,714215940
157,9,Ticks_ISO_T2_8,20,1,48,26,714993460
157,9,Ticks_ISO_T2_8,21,5,42,127,715015596
157,9,Ticks_ISO_T2_8,22,1,48,20,715751904
157,9,Ticks_ISO_T2_8,23,5,42,127,715816228
157,9,Ticks_ISO_T2_8,24,1,48,35,716575376
157,9,Ticks_ISO_T2_8,25,5,42,127,716615960
157,9,Ticks_ISO_T2_8,26,1,48,38,717398488
157,9,Ticks_ISO_T2_8,27,5,42,127,717415692
157,9,Ticks_ISO_T2_8,28,5,42,127,718215436
157,9,Ticks_ISO_T2_8,29,1,48,23,718246928
157,9,Ticks_ISO_T2_8,30,1,48,28,718987276
157,9,Ticks_ISO_T2_8,31,5,42,127,719016356
157,9,Ticks_ISO_T2_8,32,5,42,127,719816244
157,9,Ticks_ISO_T2_8,33,1,48,33,719891520
157,9,Ticks_ISO_T2_8,34,1,48,29,720603248
157,9,Ticks_ISO_T2_8,35,5,42,127,720615772
157,9,Ticks_ISO_T2_8,36,5,42,127,721415512
157,9,Ticks_ISO_T2_8,37,1,48,20,721428332
157,9,Ticks_ISO_T2_8,38,1,48,34,722178396
157,9,Ticks_ISO_T2_8,39,5,42,127,722216508
157,9,Ticks_ISO_T2_8,40,5,42,127,723016024
157,9,Ticks_ISO_T2_8,41,1,48,33,723094632
157,9,Ticks_ISO_T2_8,42,1,48,28,723800188
157,9,Ticks_ISO_T2_8,43,5,42,127,723815748
157,9,Ticks_ISO_T2_8,44,1,48,21,724590136
157,9,Ticks_ISO_T2_8,45,5,42,127,724615480
157,9,Ticks_ISO_T2_8,46,1,48,30,725259344
157,9,Ticks_ISO_T2_8,47,5,42,127,725416248
157,9,Ticks_ISO_T2_8,48,1,48,21,726108584
157,9,Ticks_ISO_T2_8,49,5,42,127,726216128
157,9,Ticks_ISO_T2_8,50,1,48,24,726917204
157,9,Ticks_ISO_T2_8,51,5,42,127,727015960
157,9,Ticks_ISO_T2_8,52,5,42,127,727815568
157,9,Ticks_ISO_T2_8,53,1,48,18,727831900
157,9,Ticks_ISO_T2_8,54,5,42,127,728616268
157,9,Ticks_ISO_T2_8,55,1,48,25,728640964
157,9,Ticks_ISO_T2_8,56,5,42,127,729415928
157,9,Ticks_ISO_T2_8,57,1,48,29,729454736
157,9,Ticks_ISO_T2_8,58,5,42,127,730215956
157,9,Ticks_ISO_T2_8,59,1,48,26,730264996
157,9,Ticks_ISO_T2_8,60,5,42,127,731015392
157,9,Ticks_ISO_T2_8,61,1,48,24,731074432
157,9,Ticks_ISO_T2_8,62,5,42,127,731816244
157,9,Ticks_ISO_T2_8,63,1,48,31,731851168
157,9,Ticks_ISO_T2_8,64,5,42,127,732616124
157,9,Ticks_ISO_T2_8,65,1,48,22,732709396
157,9,Ticks_ISO_T2_8,66,5,42,127,733415884
157,9,Ticks_ISO_T2_8,67,1,48,20,733558484
157,9,Ticks_ISO_T2_8,68,5,42,127,734215692
157,9,Ticks_ISO_T2_8,69,1,48,19,734383680
157,9,Ticks_ISO_T2_8,70,5,42,127,735016244
157,9,Ticks_ISO_T2_8,71,1,48,27,735705868
157,9,Ticks_ISO_T2_8,72,5,42,127,735815980
157,9,Ticks_ISO_T2_8,73,1,48,18,736480160
157,9,Ticks_ISO_T2_8,74,5,42,127,736615860
157,9,Ticks_ISO_T2_8,75,1,48,21,737399520
157,9,Ticks_ISO_T2_8,76,5,42,127,737415680
157,9,Ticks_ISO_T2_8,77,1,48,26,738210084
157,9,Ticks_ISO_T2_8,78,5,42,127,738216384
157,9,Ticks_ISO_T2_8,79,5,42,127,739015900
157,9,Ticks_ISO_T2_8,80,1,48,36,739642080
157,9,Ticks_ISO_T2_8,81,5,42,127,739815660
157,9,Ticks_ISO_T2_8,82,1,48,24,740155424
157,9,Ticks_ISO_T2_8,83,5,42,127,740615468
157,9,Ticks_ISO_T2_8,84,1,48,27,741058272
157,9,Ticks_ISO_T2_8,85,5,42,127,741416320
157,9,Ticks_ISO_T2_8,86,1,48,19,741757424
157,9,Ticks_ISO_T2_8,87,5,42,127,742216424
157,9,Ticks_ISO_T2_8,88,1,48,28,742598448
157,9,Ticks_ISO_T2_8,89,5,42,127,743015636
157,9,Ticks_ISO_T2_8,90,1,48,31,743367192
157,9,Ticks_ISO_T2_8,91,5,42,127,743815592
157,9,Ticks_ISO_T2_8,92,1,48,18,744257156
157,9,Ticks_ISO_T2_8,93,5,42,127,744616220
157,9,Ticks_ISO_T2_8,94,1,48,32,745034264
157,9,Ticks_ISO_T2_8,95,5,42,127,745416400
157,9,Ticks_ISO_T2_8,96,1,48,28,745874620
157,9,Ticks_ISO_T2_8,97,5,42,127,746215712
157,9,Ticks_ISO_T2_8,98,1,48,29,746549280
157,9,Ticks_ISO_T2_8,99,5,42,127,747015448
157,9,Ticks_ISO_T2_8,100,1,48,23,747304132
157,9,Ticks_ISO_T2_8,101,5,42,127,747816300
157,9,Ticks_ISO_T2_8,102,1,48,24,748134104
157,9,Ticks_ISO_T2_8,103,5,42,127,748616032
157,9,Ticks_ISO_T2_8,104,1,48,27,748934436
157,9,Ticks_ISO_T2_8,105,5,42,127,749416060
157,9,Ticks_ISO_T2_8,106,1,48,18,749747012
157,9,Ticks_ISO_T2_8,107,5,42,127,750215572
157,9,Ticks_ISO_T2_8,108,1,48,29,750577236
157,9,Ticks_ISO_T2_8,109,5,42,127,751016276
157,9,Ticks_ISO_T2_8,110,1,48,29,751350460
157,9,Ticks_ISO_T2_8,111,5,42,127,751816008
157,9,Ticks_ISO_T2_8,112,1,48,27,752135780
157,9,Ticks_ISO_T2_8,113,5,42,127,752615988
157,9,Ticks_ISO_T2_8,114,1,48,29,752929540
157,9,Ticks_ISO_T2_8,115,5,42,127,753415648
157,9,Ticks_ISO_T2_8,116,1,48,30,753738836
157,9,Ticks_ISO_T2_8,117,5,42,127,754216280
157,9,Ticks_ISO_T2_8,118,1,48,29,754556560
157,9,Ticks_ISO_T2_8,119,5,42,127,755016088
157,9,Ticks_ISO_T2_8,120,1,48,34,755239064
157,9,Ticks_ISO_T2_8,121,5,42,127,755815892
157,9,Ticks_ISO_T2_8,122,1,48,19,756059332
157,9,Ticks_ISO_T2_8,123,5,42,127,756615700
157,9,Ticks_ISO_T2_8,124,1,48,25,756943516
157,9,Ticks_ISO_T2_8,125,5,42,127,757416480
157,9,Ticks_ISO_T2_8,126,1,48,27,757745436
157,9,Ticks_ISO_T2_8,127,5,42,127,758215992
157,9,Ticks_ISO_T2_8,128,1,48,28,758488768
157,9,Ticks_ISO_T2_8,129,5,42,127,759015724
157,9,Ticks_ISO_T2_8,130,1,48,18,759298584
157,9,Ticks_ISO_T2_8,131,5,42,127,759815604
157,9,Ticks_ISO_T2_8,132,1,48,27,760164480
157,9,Ticks_ISO_T2_8,133,5,42,127,760616456
157,9,Ticks_ISO_T2_8,134,1,48,16,761001100
157,9,Ticks_ISO_T2_8,135,5,42,127,761416040
157,9,Ticks_ISO_T2_8,136,1,48,38,761748336
157,9,Ticks_ISO_T2_8,137,5,42,127,762215852
157,9,Ticks_ISO_T2_8,138,1,48,40,762908632
157,9,Ticks_ISO_T2_8,139,5,42,127,763015656
157,9,Ticks_ISO_T2_8,140,5,42,127,763816380
157,9,Ticks_ISO_T2_8,141,1,48,21,763879332
157,9,Ticks_ISO_T2_8,142,5,42,127,764616116
157,9,Ticks_ISO_T2_8,143,1,48,40,764672720
157,9,Ticks_ISO_T2_8,144,5,42,127,765415652
157,9,Ticks_ISO_T2_8,145,1,48,34,765834636
157,9,Ticks_ISO_T2_8,146,5,42,127,766215608
157,9,Ticks_ISO_T2_8,147,1,48,21,766508548
157,9,Ticks_ISO_T2_8,148,5,42,127,767016384
157,9,Ticks_ISO_T2_8,149,1,48,26,767399160
157,9,Ticks_ISO_T2_8,150,5,42,127,767816264
157,9,Ticks_ISO_T2_8,151,1,48,27,768267236
157,9,Ticks_ISO_T2_8,152,5,42,127,768616000
157,9,Ticks_ISO_T2_8,153,1,48,23,769018364
157,9,Ticks_ISO_T2_8,154,5,42,127,769415508
157,9,Ticks_ISO_T2_8,155,1,48,30,769858340
157,9,Ticks_ISO_T2_8,156,5,42,127,770216288
157,9,Ticks_ISO_T2_8,157,1,48,15,770749100
157,9,Ticks_ISO_T2_8,158,5,42,127,771016092
157,9,Ticks_ISO_T2_8,159,5,42,127,771815948
157,9,Ticks_ISO_T2_8,160,1,48,30,772211120
157,9,Ticks_ISO_T2_8,161,5,42,127,772615828
157,9,Ticks_ISO_T2_8,162,1,48,31,772902648
157,9,Ticks_ISO_T2_8,163,5,42,127,773416164
157,9,Ticks_ISO_T2_8,164,1,48,19,773824624
157,9,Ticks_ISO_T2_8,165,5,42,127,774216120
157,9,Ticks_ISO_T2_8,166,1,48,18,774710776
157,9,Ticks_ISO_T2_8,167,5,42,127,775015704
157,9,Ticks_ISO_T2_8,168,1,48,19,775595560
157,9,Ticks_ISO_T2_8,169,5,42,127,775815660
157,9,Ticks_ISO_T2_8,170,1,48,20,776457816
157,9,Ticks_ISO_T2_8,171,5,42,127,776616360
157,9,Ticks_ISO_T2_8,172,1,48,20,777300560
157,9,Ticks_ISO_T2_8,173,5,42,127,777416024
157,9,Ticks_ISO_T2_8,174,1,48,26,778136736
157,9,Ticks_ISO_T2_8,175,5,42,127,778215720
157,9,Ticks_ISO_T2_8,176,1,48,28,778975248
157,9,Ticks_ISO_T2_8,177,5,42,127,779015456
157,9,Ticks_ISO_T2_8,178,5,42,127,779816312
157,9,Ticks_ISO_T2_8,179,1,48,24,779852208
157,9,Ticks_ISO_T2_8,180,5,42,127,780616268
157,9,Ticks_ISO_T2_8,181,1,48,27,780618788
157,9,Ticks_ISO_T2_8,182,5,42,127,781415780
157,9,Ticks_ISO_T2_8,183,1,48,23,781455484
157,9,Ticks_ISO_T2_8,184,1,48,17,782200988
157,9,Ticks_ISO_T2_8,185,5,42,127,782215504
157,9,Ticks_ISO_T2_8,186,5,42,127,783016436
157,9,Ticks_ISO_T2_8,187,1,48,23,783149060
157,9,Ticks_ISO_T2_8,188,5,42,127,783816096
157,9,Ticks_ISO_T2_8,189,1,48,21,783880468
157,9,Ticks_ISO_T2_8,190,5,42,127,784615776
157,9,Ticks_ISO_T2_8,191,1,48,29,784640992
157,9,Ticks_ISO_T2_8,192,1,48,28,785387920
157,9,Ticks_ISO_T2_8,193,5,42,127,785415580
157,9,Ticks_ISO_T2_8,194,5,42,127,786216440
157,9,Ticks_ISO_T2_8,195,1,48,19,786253308
157,9,Ticks_ISO_T2_8,196,5,42,127,787016100
157,9,Ticks_ISO_T2_8,197,1,48,24,787063568
157,9,Ticks_ISO_T2_8,198,5,42,127,787815760
157,9,Ticks_ISO_T2_8,199,1,48,26,787836568
157,9,Ticks_ISO_T2_8,200,5,42,127,788615564
157,9,Ticks_ISO_T2_8,201,1,48,24,788638320
157,9,Ticks_ISO_T2_8,202,5,42,127,789416344
157,9,Ticks_ISO_T2_8,203,1,48,26,789437904
157,9,Ticks_ISO_T2_8,204,5,42,127,790216004
157,9,Ticks_ISO_T2_8,205,1,48,20,790314720
157,9,Ticks_ISO_T2_8,206,5,42,127,791016056
157,9,Ticks_ISO_T2_8,207,1,48,24,791107884
157,9,Ticks_ISO_T2_8,208,5,42,127,791815420
157,9,Ticks_ISO_T2_8,209,1,48,21,791872820
157,9,Ticks_ISO_T2_8,210,5,42,127,792616196
157,9,Ticks_ISO_T2_8,211,1,48,21,792632300
157,9,Ticks_ISO_T2_8,212,1,48,33,793397068
157,9,Ticks_ISO_T2_8,213,5,42,127,793416072
157,9,Ticks_ISO_T2_8,214,5,42,127,794215740
157,9,Ticks_ISO_T2_8,215,1,48,29,794244168
157,9,Ticks_ISO_T2_8,216,5,42,127,795015768
157,9,Ticks_ISO_T2_8,217,1,48,19,795064060
157,9,Ticks_ISO_T2_8,218,5,42,127,795816324
157,9,Ticks_ISO_T2_8,219,1,48,27,795846392
157,9,Ticks_ISO_T2_8,220,5,42,127,796615904
157,9,Ticks_ISO_T2_8,221,1,48,27,796658396
157,9,Ticks_ISO_T2_8,222,5,42,127,797415812
157,9,Ticks_ISO_T2_8,223,1,48,20,797432072
157,9,Ticks_ISO_T2_8,224,1,48,29,798200420
157,9,Ticks_ISO_T2_8,225,5,42,127,798215760
157,9,Ticks_ISO_T2_8,226,1,48,29,799003816
157,9,Ticks_ISO_T2_8,227,5,42,127,799016540
157,9,Ticks_ISO_T2_8,228,5,42,127,799815984
157,9,Ticks_ISO_T2_8,229,1,48,25,799851952
157,9,Ticks_ISO_T2_8,230,5,42,127,800615712
157,9,Ticks_ISO_T2_8,231,1,48,31,800656912
157,9,Ticks_ISO_T2_8,232,5,42,127,801415668
157,9,Ticks_ISO_T2_8,233,1,48,16,801490840
157,9,Ticks_ISO_T2_8,0,9999,9999,9999,706213960
157,9,Ticks_ISO_T2_8,1,9999,9999,9999,707013716
157,9,Ticks_ISO_T2_8,2,9999,9999,9999,707813488
157,9,Ticks_ISO_T2_8,3,9999,9999,9999,708613196
157,9,Ticks_ISO_T2_8,4,9999,9999,9999,709413972
157,9,Ticks_ISO_T2_8,5,9999,9999,9999,710213704
157,9,Ticks_ISO_T2_8,6,9999,9999,9999,711013444
157,9,Ticks_ISO_T2_8,7,9999,9999,9999,711813176
157,9,Ticks_ISO_T2_8,8,9999,9999,9999,712613948
157,9,Ticks_ISO_T2_8,9,9999,9999,9999,713413688
157,9,Ticks_ISO_T2_8,10,9999,9999,9999,714213432
157,9,Ticks_ISO_T2_8,11,9999,9999,9999,715013240
157,9,Ticks_ISO_T2_8,12,9999,9999,9999,715813944
157,9,Ticks_ISO_T2_8,13,9999,9999,9999,716613748
157,9,Ticks_ISO_T2_8,14,9999,9999,9999,717413484
157,9,Ticks_ISO_T2_8,15,9999,9999,9999,718213224
157,9,Ticks_ISO_T2_8,16,9999,9999,9999,719013996
157,9,Ticks_ISO_T2_8,17,9999,9999,9999,719813736
157,9,Ticks_ISO_T2_8,18,9999,9999,9999,720613488
157,9,Ticks_ISO_T2_8,19,9999,9999,9999,721413228
157,9,Ticks_ISO_T2_8,20,9999,9999,9999,722214000
157,9,Ticks_ISO_T2_8,21,9999,9999,9999,723013736
157,9,Ticks_ISO_T2_8,22,9999,9999,9999,723813464
157,9,Ticks_ISO_T2_8,23,9999,9999,9999,724613196
157,9,Ticks_ISO_T2_8,24,9999,9999,9999,725413960
157,9,Ticks_ISO_T2_8,25,9999,9999,9999,726213696
157,9,Ticks_ISO_T2_8,26,9999,9999,9999,727013452
157,9,Ticks_ISO_T2_8,27,9999,9999,9999,727813208
157,9,Ticks_ISO_T2_8,28,9999,9999,9999,728613984
157,9,Ticks_ISO_T2_8,29,9999,9999,9999,729413716
157,9,Ticks_ISO_T2_8,30,9999,9999,9999,730213452
157,9,Ticks_ISO_T2_8,31,9999,9999,9999,731013184
157,9,Ticks_ISO_T2_8,32,9999,9999,9999,731813960
157,9,Ticks_ISO_T2_8,33,9999,9999,9999,732613692
157,9,Ticks_ISO_T2_8,34,9999,9999,9999,733413448
157,9,Ticks_ISO_T2_8,35,9999,9999,9999,734213184
157,9,Ticks_ISO_T2_8,36,9999,9999,9999,735013960
157,9,Ticks_ISO_T2_8,37,9999,9999,9999,735813692
157,9,Ticks_ISO_T2_8,38,9999,9999,9999,736613424
157,9,Ticks_ISO_T2_8,39,9999,9999,9999,737413176
157,9,Ticks_ISO_T2_8,40,9999,9999,9999,738213952
157,9,Ticks_ISO_T2_8,41,9999,9999,9999,739013692
157,9,Ticks_ISO_T2_8,42,9999,9999,9999,739813452
157,9,Ticks_ISO_T2_8,43,9999,9999,9999,740613184
157,9,Ticks_ISO_T2_8,44,9999,9999,9999,741413960
157,9,Ticks_ISO_T2_8,45,9999,9999,9999,742213692
157,9,Ticks_ISO_T2_8,46,9999,9999,9999,743013424
157,9,Ticks_ISO_T2_8,47,9999,9999,9999,743813232
157,9,Ticks_ISO_T2_8,48,9999,9999,9999,744613936
157,9,Ticks_ISO_T2_8,49,9999,9999,9999,745413744
157,9,Ticks_ISO_T2_8,50,9999,9999,9999,746213428
157,9,Ticks_ISO_T2_8,51,9999,9999,9999,747013236
157,9,Ticks_ISO_T2_8,52,9999,9999,9999,747813940
157,9,Ticks_ISO_T2_8,53,9999,9999,9999,748613748
157,9,Ticks_ISO_T2_8,54,9999,9999,9999,749413480
157,9,Ticks_ISO_T2_8,55,9999,9999,9999,750213212
157,9,Ticks_ISO_T2_8,56,9999,9999,9999,751013992
157,9,Ticks_ISO_T2_8,57,9999,9999,9999,751813724
157,9,Ticks_ISO_T2_8,58,9999,9999,9999,752613480
157,9,Ticks_ISO_T2_8,59,9999,9999,9999,753413216
157,9,Ticks_ISO_T2_8,60,9999,9999,9999,754213992
157,9,Ticks_ISO_T2_8,61,9999,9999,9999,755013728
157,9,Ticks_ISO_T2_8,62,9999,9999,9999,755813460
157,9,Ticks_ISO_T2_8,63,9999,9999,9999,756613192
157,9,Ticks_ISO_T2_8,64,9999,9999,9999,757413972
157,9,Ticks_ISO_T2_8,65,9999,9999,9999,758213704
157,9,Ticks_ISO_T2_8,66,9999,9999,9999,759013440
157,9,Ticks_ISO_T2_8,67,9999,9999,9999,759813172
157,9,Ticks_ISO_T2_8,68,9999,9999,9999,760613952
157,9,Ticks_ISO_T2_8,69,9999,9999,9999,761413684
157,9,Ticks_ISO_T2_8,70,9999,9999,9999,762213492
157,9,Ticks_ISO_T2_8,71,9999,9999,9999,763013224
157,9,Ticks_ISO_T2_8,72,9999,9999,9999,763813948
157,9,Ticks_ISO_T2_8,73,9999,9999,9999,764613680
157,9,Ticks_ISO_T2_8,74,9999,9999,9999,765413440
157,9,Ticks_ISO_T2_8,75,9999,9999,9999,766213172
157,9,Ticks_ISO_T2_8,76,9999,9999,9999,767013952
157,9,Ticks_ISO_T2_8,77,9999,9999,9999,767813684
157,9,Ticks_ISO_T2_8,78,9999,9999,9999,768613492
157,9,Ticks_ISO_T2_8,79,9999,9999,9999,769413224
157,9,Ticks_ISO_T2_8,80,9999,9999,9999,770214004
157,9,Ticks_ISO_T2_8,81,9999,9999,9999,771013736
157,9,Ticks_ISO_T2_8,82,9999,9999,9999,771813440
157,9,Ticks_ISO_T2_8,83,9999,9999,9999,772613176
157,9,Ticks_ISO_T2_8,84,9999,9999,9999,773413952
157,9,Ticks_ISO_T2_8,85,9999,9999,9999,774213688
157,9,Ticks_ISO_T2_8,86,9999,9999,9999,775013492
157,9,Ticks_ISO_T2_8,87,9999,9999,9999,775813228
157,9,Ticks_ISO_T2_8,88,9999,9999,9999,776614004
157,9,Ticks_ISO_T2_8,89,9999,9999,9999,777413740
157,9,Ticks_ISO_T2_8,90,9999,9999,9999,778213436
157,9,Ticks_ISO_T2_8,91,9999,9999,9999,779013172
157,9,Ticks_ISO_T2_8,92,9999,9999,9999,779813956
157,9,Ticks_ISO_T2_8,93,9999,9999,9999,780613688
157,9,Ticks_ISO_T2_8,94,9999,9999,9999,781413492
157,9,Ticks_ISO_T2_8,95,9999,9999,9999,782213220
157,9,Ticks_ISO_T2_8,96,9999,9999,9999,783014004
157,9,Ticks_ISO_T2_8,97,9999,9999,9999,783813736
157,9,Ticks_ISO_T2_8,98,9999,9999,9999,784613492
157,9,Ticks_ISO_T2_8,99,9999,9999,9999,785413220
157,9,Ticks_ISO_T2_8,100,9999,9999,9999,786214008
157,9,Ticks_ISO_T2_8,101,9999,9999,9999,787013740
157,9,Ticks_ISO_T2_8,102,9999,9999,9999,787813476
157,9,Ticks_ISO_T2_8,103,9999,9999,9999,788613204
157,9,Ticks_ISO_T2_8,104,9999,9999,9999,789413984
157,9,Ticks_ISO_T2_8,105,9999,9999,9999,790213720
157,9,Ticks_ISO_T2_8,106,9999,9999,9999,791013476
157,9,Ticks_ISO_T2_8,107,9999,9999,9999,791813208
157,9,Ticks_ISO_T2_8,108,9999,9999,9999,792613984
157,9,Ticks_ISO_T2_8,109,9999,9999,9999,793413712
157,9,Ticks_ISO_T2_8,110,9999,9999,9999,794213456
157,9,Ticks_ISO_T2_8,111,9999,9999,9999,795013184
157,9,Ticks_ISO_T2_8,112,9999,9999,9999,795813964
157,9,Ticks_ISO_T2_8,113,9999,9999,9999,796613696
157,9,Ticks_ISO_T2_8,114,9999,9999,9999,797413452
157,9,Ticks_ISO_T2_8,115,9999,9999,9999,798213180
157,9,Ticks_ISO_T2_8,116,9999,9999,9999,799013960
157,9,Ticks_ISO_T2_8,117,9999,9999,9999,799813696
157,9,Ticks_ISO_T2_8,118,9999,9999,9999,800613428
157,9,Ticks_ISO_T2_8,119,9999,9999,9999,801413236
158,10,Ticks_ISO_T2_5,0,5,42,127,813071712
158,10,Ticks_ISO_T2_5,1,5,42,127,813571636
158,10,Ticks_ISO_T2_5,2,5,42,127,814072228
158,10,Ticks_ISO_T2_5,3,5,42,127,814571928
158,10,Ticks_ISO_T2_5,4,1,48,35,814975676
158,10,Ticks_ISO_T2_5,5,5,42,127,815071532
158,10,Ticks_ISO_T2_5,6,1,48,24,815472516
158,10,Ticks_ISO_T2_5,7,5,42,127,815572696
158,10,Ticks_ISO_T2_5,8,1,48,23,816015436
158,10,Ticks_ISO_T2_5,9,5,42,127,816072216
158,10,Ticks_ISO_T2_5,10,1,48,20,816475384
158,10,Ticks_ISO_T2_5,11,5,42,127,816571672
158,10,Ticks_ISO_T2_5,12,1,48,14,817007464
158,10,Ticks_ISO_T2_5,13,5,42,127,817071720
158,10,Ticks_ISO_T2_5,14,1,48,21,817494748
158,10,Ticks_ISO_T2_5,15,5,42,127,817572368
158,10,Ticks_ISO_T2_5,16,1,48,19,818027880
158,10,Ticks_ISO_T2_5,17,5,42,127,818071892
158,10,Ticks_ISO_T2_5,18,1,48,19,818544576
158,10,Ticks_ISO_T2_5,19,5,42,127,818571644
158,10,Ticks_ISO_T2_5,20,5,42,127,819072520
158,10,Ticks_ISO_T2_5,21,1,48,16,819089372
158,10,Ticks_ISO_T2_5,22,1,48,20,819568496
158,10,Ticks_ISO_T2_5,23,5,42,127,819572264
158,10,Ticks_ISO_T2_5,24,5,42,127,820071652
158,10,Ticks_ISO_T2_5,25,1,48,16,820090220
158,10,Ticks_ISO_T2_5,26,5,42,127,820571476
158,10,Ticks_ISO_T2_5,27,1,48,14,820577724
158,10,Ticks_ISO_T2_5,28,5,42,127,821072344
158,10,Ticks_ISO_T2_5,29,1,48,18,821148188
158,10,Ticks_ISO_T2_5,30,1,48,20,821546368
158,10,Ticks_ISO_T2_5,31,5,42,127,821572012
158,10,Ticks_ISO_T2_5,32,5,42,127,822071548
158,10,Ticks_ISO_T2_5,33,1,48,22,822514228
158,10,Ticks_ISO_T2_5,34,5,42,127,822572360
158,10,Ticks_ISO_T2_5,35,1,48,19,823006884
158,10,Ticks_ISO_T2_5,36,5,42,127,823072256
158,10,Ticks_ISO_T2_5,37,1,48,21,823489212
158,10,Ticks_ISO_T2_5,38,5,42,127,823571932
158,10,Ticks_ISO_T2_5,39,1,48,19,824019980
158,10,Ticks_ISO_T2_5,40,5,42,127,824071464
158,10,Ticks_ISO_T2_5,41,1,48,19,824509248
158,10,Ticks_ISO_T2_5,42,5,42,127,824572256
158,10,Ticks_ISO_T2_5,43,1,48,22,825026468
158,10,Ticks_ISO_T2_5,44,5,42,127,825072156
158,10,Ticks_ISO_T2_5,45,1,48,19,825529660
158,10,Ticks_ISO_T2_5,46,5,42,127,825571980
158,10,Ticks_ISO_T2_5,47,5,42,127,826072336
158,10,Ticks_ISO_T2_5,48,1,48,21,826556512
158,10,Ticks_ISO_T2_5,49,5,42,127,826572076
158,10,Ticks_ISO_T2_5,50,1,48,26,827030200
158,10,Ticks_ISO_T2_5,51,5,42,127,827071828
158,10,Ticks_ISO_T2_5,52,1,48,26,827520544
158,10,Ticks_ISO_T2_5,53,5,42,127,827571576
158,10,Ticks_ISO_T2_5,54,1,48,25,828037320
158,10,Ticks_ISO_T2_5,55,5,42,127,828072152
158,10,Ticks_ISO_T2_5,56,5,42,127,828572128
158,10,Ticks_ISO_T2_5,57,1,48,24,828581440
158,10,Ticks_ISO_T2_5,58,5,42,127,829071804
158,10,Ticks_ISO_T2_5,59,1,48,26,829099192
158,10,Ticks_ISO_T2_5,60,5,42,127,829571556
158,10,Ticks_ISO_T2_5,61,1,48,25,829579376
158,10,Ticks_ISO_T2_5,62,1,48,23,830025940
158,10,Ticks_ISO_T2_5,63,5,42,127,830072344
158,10,Ticks_ISO_T2_5,64,1,48,24,830554216
158,10,Ticks_ISO_T2_5,65,5,42,127,830571872
158,10,Ticks_ISO_T2_5,66,1,48,22,831052852
158,10,Ticks_ISO_T2_5,67,5,42,127,831071772
158,10,Ticks_ISO_T2_5,68,1,48,21,831547596
158,10,Ticks_ISO_T2_5,69,5,42,127,831572196
158,10,Ticks_ISO_T2_5,70,1,48,23,832050484
158,10,Ticks_ISO_T2_5,71,5,42,127,832071948
158,10,Ticks_ISO_T2_5,72,1,48,23,832520736
158,10,Ticks_ISO_T2_5,73,5,42,127,832571920
158,10,Ticks_ISO_T2_5,74,1,48,21,833044532
158,10,Ticks_ISO_T2_5,75,5,42,127,833071372
158,10,Ticks_ISO_T2_5,76,1,48,18,833553092
158,10,Ticks_ISO_T2_5,77,5,42,127,833572316
158,10,Ticks_ISO_T2_5,78,1,48,22,834057476
158,10,Ticks_ISO_T2_5,79,5,42,127,834071920
158,10,Ticks_ISO_T2_5,80,1,48,23,834523400
158,10,Ticks_ISO_T2_5,81,5,42,127,834571820
158,10,Ticks_ISO_T2_5,82,1,48,25,835024168
158,10,Ticks_ISO_T2_5,83,5,42,127,835072540
158,10,Ticks_ISO_T2_5,84,5,42,127,835572000
158,10,Ticks_ISO_T2_5,85,1,48,29,836031980
158,10,Ticks_ISO_T2_5,86,5,42,127,836071840
158,10,Ticks_ISO_T2_5,87,1,48,31,836523520
158,10,Ticks_ISO_T2_5,88,5,42,127,836571592
158,10,Ticks_ISO_T2_5,89,1,48,22,837028568
158,10,Ticks_ISO_T2_5,90,5,42,127,837072140
158,10,Ticks_ISO_T2_5,91,1,48,20,837492256
158,10,Ticks_ISO_T2_5,92,5,42,127,837572040
158,10,Ticks_ISO_T2_5,93,1,48,23,838008212
158,10,Ticks_ISO_T2_5,94,5,42,127,838071568
158,10,Ticks_ISO_T2_5,95,1,48,27,838491388
158,10,Ticks_ISO_T2_5,96,5,42,127,838572512
158,10,Ticks_ISO_T2_5,97,1,48,21,839010328
158,10,Ticks_ISO_T2_5,98,5,42,127,839072040
158,10,Ticks_ISO_T2_5,99,1,48,29,839506564
158,10,Ticks_ISO_T2_5,100,5,42,127,839571864
158,10,Ticks_ISO_T2_5,101,1,48,32,839992356
158,10,Ticks_ISO_T2_5,102,5,42,127,840071468
158,10,Ticks_ISO_T2_5,103,1,48,27,840518092
158,10,Ticks_ISO_T2_5,104,5,42,127,840572412
158,10,Ticks_ISO_T2_5,105,5,42,127,841072092
158,10,Ticks_ISO_T2_5,106,1,48,23,841246008
158,10,Ticks_ISO_T2_5,107,5,42,127,841571548
158,10,Ticks_ISO_T2_5,108,1,48,21,841702372
158,10,Ticks_ISO_T2_5,109,5,42,127,842072492
158,10,Ticks_ISO_T2_5,110,1,48,19,842169692
158,10,Ticks_ISO_T2_5,111,5,42,127,842572392
158,10,Ticks_ISO_T2_5,112,1,48,27,842627852
158,10,Ticks_ISO_T2_5,113,5,42,127,843071848
158,10,Ticks_ISO_T2_5,114,1,48,29,843076300
158,10,Ticks_ISO_T2_5,115,1,48,23,843521304
158,10,Ticks_ISO_T2_5,116,5,42,127,843571516
158,10,Ticks_ISO_T2_5,117,1,48,24,844021952
158,10,Ticks_ISO_T2_5,118,5,42,127,844072464
158,10,Ticks_ISO_T2_5,119,1,48,23,844503628
158,10,Ticks_ISO_T2_5,120,5,42,127,844572136
158,10,Ticks_ISO_T2_5,121,1,48,20,845026676
158,10,Ticks_ISO_T2_5,122,5,42,127,845071740
158,10,Ticks_ISO_T2_5,123,1,48,23,845551444
158,10,Ticks_ISO_T2_5,124,5,42,127,845571344
158,10,Ticks_ISO_T2_5,125,1,48,27,846044100
158,10,Ticks_ISO_T2_5,126,5,42,127,846072212
158,10,Ticks_ISO_T2_5,127,1,48,23,846563264
158,10,Ticks_ISO_T2_5,128,5,42,127,846572040
158,10,Ticks_ISO_T2_5,129,1,48,26,847047088
158,10,Ticks_ISO_T2_5,130,5,42,127,847071568
158,10,Ticks_ISO_T2_5,131,1,48,30,847512788
158,10,Ticks_ISO_T2_5,132,5,42,127,847572284
158,10,Ticks_ISO_T2_5,133,1,48,23,848029564
158,10,Ticks_ISO_T2_5,134,5,42,127,848072012
158,10,Ticks_ISO_T2_5,135,1,48,25,848520952
158,10,Ticks_ISO_T2_5,136,5,42,127,848571912
158,10,Ticks_ISO_T2_5,137,1,48,26,848999500
158,10,Ticks_ISO_T2_5,138,5,42,127,849071368
158,10,Ticks_ISO_T2_5,139,1,48,30,849467592
158,10,Ticks_ISO_T2_5,140,5,42,127,849572224
158,10,Ticks_ISO_T2_5,141,1,48,27,849994144
158,10,Ticks_ISO_T2_5,142,5,42,127,850072060
158,10,Ticks_ISO_T2_5,143,1,48,19,850522792
158,10,Ticks_ISO_T2_5,144,5,42,127,850571740
158,10,Ticks_ISO_T2_5,145,5,42,127,851072244
158,10,Ticks_ISO_T2_5,146,1,48,22,851076328
158,10,Ticks_ISO_T2_5,147,5,42,127,851572068
158,10,Ticks_ISO_T2_5,148,1,48,16,851616252
158,10,Ticks_ISO_T2_5,149,5,42,127,852071744
158,10,Ticks_ISO_T2_5,150,1,48,26,852074712
158,10,Ticks_ISO_T2_5,151,1,48,23,852543752
158,10,Ticks_ISO_T2_5,152,5,42,127,852571936
158,10,Ticks_ISO_T2_5,153,1,48,24,853033792
158,10,Ticks_ISO_T2_5,154,5,42,127,853072136
158,10,Ticks_ISO_T2_5,155,1,48,23,853503232
158,10,Ticks_ISO_T2_5,156,5,42,127,853571888
158,10,Ticks_ISO_T2_5,157,1,48,21,853997376
158,10,Ticks_ISO_T2_5,158,5,42,127,854071788
158,10,Ticks_ISO_T2_5,159,1,48,21,854498404
158,10,Ticks_ISO_T2_5,160,5,42,127,854572284
158,10,Ticks_ISO_T2_5,161,1,48,22,854996804
158,10,Ticks_ISO_T2_5,162,5,42,127,855072036
158,10,Ticks_ISO_T2_5,163,1,48,19,855488696
158,10,Ticks_ISO_T2_5,164,5,42,127,855571712
158,10,Ticks_ISO_T2_5,165,1,48,18,856058064
158,10,Ticks_ISO_T2_5,166,5,42,127,856071760
158,10,Ticks_ISO_T2_5,167,1,48,25,856572116
158,10,Ticks_ISO_T2_5,168,5,42,127,856573748
158,10,Ticks_ISO_T2_5,169,5,42,127,857071944
158,10,Ticks_ISO_T2_5,170,1,48,22,857077368
158,10,Ticks_ISO_T2_5,171,1,48,29,857551020
158,10,Ticks_ISO_T2_5,172,5,42,127,857571760
158,10,Ticks_ISO_T2_5,173,1,48,29,858039420
158,10,Ticks_ISO_T2_5,174,5,42,127,858072704
158,10,Ticks_ISO_T2_5,175,1,48,22,858545368
158,10,Ticks_ISO_T2_5,176,5,42,127,858572280
158,10,Ticks_ISO_T2_5,177,1,48,22,859057512
158,10,Ticks_ISO_T2_5,178,5,42,127,859071808
158,10,Ticks_ISO_T2_5,179,1,48,32,859513800
158,10,Ticks_ISO_T2_5,180,5,42,127,859571560
158,10,Ticks_ISO_T2_5,181,1,48,26,860069780
158,10,Ticks_ISO_T2_5,182,5,42,127,860072352
158,10,Ticks_ISO_T2_5,183,1,48,22,860567288
158,10,Ticks_ISO_T2_5,184,5,42,127,860572028
158,10,Ticks_ISO_T2_5,185,1,48,24,861038368
158,10,Ticks_ISO_T2_5,186,5,42,127,861071856
158,10,Ticks_ISO_T2_5,187,5,42,127,861571540
158,10,Ticks_ISO_T2_5,188,1,48,19,861604296
158,10,Ticks_ISO_T2_5,189,5,42,127,862072184
158,10,Ticks_ISO_T2_5,190,1,48,27,862107256
158,10,Ticks_ISO_T2_5,191,1,48,20,862569352
158,10,Ticks_ISO_T2_5,192,5,42,127,862572076
158,10,Ticks_ISO_T2_5,193,1,48,24,863042676
158,10,Ticks_ISO_T2_5,194,5,42,127,863071456
158,10,Ticks_ISO_T2_5,195,1,48,18,863561388
158,10,Ticks_ISO_T2_5,196,5,42,127,863572252
158,10,Ticks_ISO_T2_5,197,1,48,22,864063976
158,10,Ticks_ISO_T2_5,198,5,42,127,864072372
158,10,Ticks_ISO_T2_5,199,1,48,16,864551184
158,10,Ticks_ISO_T2_5,200,5,42,127,864571680
158,10,Ticks_ISO_T2_5,201,1,48,21,865054292
158,10,Ticks_ISO_T2_5,202,5,42,127,865071428
158,10,Ticks_ISO_T2_5,203,5,42,127,865572380
158,10,Ticks_ISO_T2_5,204,1,48,31,866047248
158,10,Ticks_ISO_T2_5,205,5,42,127,866072000
158,10,Ticks_ISO_T2_5,206,5,42,127,866571608
158,10,Ticks_ISO_T2_5,207,1,48,41,866983352
158,10,Ticks_ISO_T2_5,208,5,42,127,867072272
158,10,Ticks_ISO_T2_5,209,1,48,31,867475108
158,10,Ticks_ISO_T2_5,210,5,42,127,867572168
158,10,Ticks_ISO_T2_5,211,1,48,27,868009288
158,10,Ticks_ISO_T2_5,212,5,42,127,868071920
158,10,Ticks_ISO_T2_5,213,1,48,28,868502692
158,10,Ticks_ISO_T2_5,214,5,42,127,868571448
158,10,Ticks_ISO_T2_5,215,5,42,127,869072324
158,10,Ticks_ISO_T2_5,216,1,48,19,869078796
158,10,Ticks_ISO_T2_5,217,1,48,24,869545424
158,10,Ticks_ISO_T2_5,218,5,42,127,869571892
158,10,Ticks_ISO_T2_5,219,1,48,25,870066308
158,10,Ticks_ISO_T2_5,220,5,42,127,870072016
158,10,Ticks_ISO_T2_5,221,5,42,127,870572372
158,10,Ticks_ISO_T2_5,222,1,48,16,870575188
158,10,Ticks_ISO_T2_5,223,5,42,127,871072048
158,10,Ticks_ISO_T2_5,224,1,48,25,871495692
158,10,Ticks_ISO_T2_5,225,5,42,127,871572036
158,10,Ticks_ISO_T2_5,226,1,48,28,871962580
158,10,Ticks_ISO_T2_5,227,5,42,127,872071400
158,10,Ticks_ISO_T2_5,228,1,48,21,872446724
158,10,Ticks_ISO_T2_5,229,5,42,127,872572196
158,10,Ticks_ISO_T2_5,230,5,42,127,873071892
158,10,Ticks_ISO_T2_5,231,1,48,28,873340488
158,10,Ticks_ISO_T2_5,232,5,42,127,873571720
158,10,Ticks_ISO_T2_5,233,1,48,33,873718748
158,10,Ticks_ISO_T2_5,234,5,42,127,874072368
158,10,Ticks_ISO_T2_5,235,1,48,22,874128124
158,10,Ticks_ISO_T2_5,236,5,42,127,874572044
158,10,Ticks_ISO_T2_5,237,1,48,21,874915088
158,10,Ticks_ISO_T2_5,238,5,42,127,875071868
158,10,Ticks_ISO_T2_5,239,1,48,21,875301188
158,10,Ticks_ISO_T2_5,240,5,42,127,875571692
158,10,Ticks_ISO_T2_5,241,1,48,21,875976340
158,10,Ticks_ISO_T2_5,242,5,42,127,876072860
158,10,Ticks_ISO_T2_5,243,1,48,21,876426132
158,10,Ticks_ISO_T2_5,244,5,42,127,876571864
158,10,Ticks_ISO_T2_5,245,1,48,22,877025452
158,10,Ticks_ISO_T2_5,246,5,42,127,877071704
158,10,Ticks_ISO_T2_5,247,1,48,21,877524008
158,10,Ticks_ISO_T2_5,248,5,42,127,877571604
158,10,Ticks_ISO_T2_5,249,1,48,18,877997596
158,10,Ticks_ISO_T2_5,0,9999,9999,9999,813069428
158,10,Ticks_ISO_T2_5,1,9999,9999,9999,813569128
158,10,Ticks_ISO_T2_5,2,9999,9999,9999,814069868
158,10,Ticks_ISO_T2_5,3,9999,9999,9999,814569568
158,10,Ticks_ISO_T2_5,4,9999,9999,9999,815069248
158,10,Ticks_ISO_T2_5,5,9999,9999,9999,815569988
158,10,Ticks_ISO_T2_5,6,9999,9999,9999,816069708
158,10,Ticks_ISO_T2_5,7,9999,9999,9999,816569460
158,10,Ticks_ISO_T2_5,8,9999,9999,9999,817069140
158,10,Ticks_ISO_T2_5,9,9999,9999,9999,817569860
158,10,Ticks_ISO_T2_5,10,9999,9999,9999,818069608
158,10,Ticks_ISO_T2_5,11,9999,9999,9999,818569288
158,10,Ticks_ISO_T2_5,12,9999,9999,9999,819070016
158,10,Ticks_ISO_T2_5,13,9999,9999,9999,819569756
158,10,Ticks_ISO_T2_5,14,9999,9999,9999,820069440
158,10,Ticks_ISO_T2_5,15,9999,9999,9999,820569192
158,10,Ticks_ISO_T2_5,16,9999,9999,9999,821069912
158,10,Ticks_ISO_T2_5,17,9999,9999,9999,821569656
158,10,Ticks_ISO_T2_5,18,9999,9999,9999,822069336
158,10,Ticks_ISO_T2_5,19,9999,9999,9999,822570076
158,10,Ticks_ISO_T2_5,20,9999,9999,9999,823069752
158,10,Ticks_ISO_T2_5,21,9999,9999,9999,823569500
158,10,Ticks_ISO_T2_5,22,9999,9999,9999,824069180
158,10,Ticks_ISO_T2_5,23,9999,9999,9999,824569972
158,10,Ticks_ISO_T2_5,24,9999,9999,9999,825069648
158,10,Ticks_ISO_T2_5,25,9999,9999,9999,825569400
158,10,Ticks_ISO_T2_5,26,9999,9999,9999,826070128
158,10,Ticks_ISO_T2_5,27,9999,9999,9999,826569792
158,10,Ticks_ISO_T2_5,28,9999,9999,9999,827069544
158,10,Ticks_ISO_T2_5,29,9999,9999,9999,827569220
158,10,Ticks_ISO_T2_5,30,9999,9999,9999,828069940
158,10,Ticks_ISO_T2_5,31,9999,9999,9999,828569696
158,10,Ticks_ISO_T2_5,32,9999,9999,9999,829069372
158,10,Ticks_ISO_T2_5,33,9999,9999,9999,829569124
158,10,Ticks_ISO_T2_5,34,9999,9999,9999,830069840
158,10,Ticks_ISO_T2_5,35,9999,9999,9999,830569588
158,10,Ticks_ISO_T2_5,36,9999,9999,9999,831069268
158,10,Ticks_ISO_T2_5,37,9999,9999,9999,831569988
158,10,Ticks_ISO_T2_5,38,9999,9999,9999,832069736
158,10,Ticks_ISO_T2_5,39,9999,9999,9999,832569412
158,10,Ticks_ISO_T2_5,40,9999,9999,9999,833069164
158,10,Ticks_ISO_T2_5,41,9999,9999,9999,833569884
158,10,Ticks_ISO_T2_5,42,9999,9999,9999,834069560
158,10,Ticks_ISO_T2_5,43,9999,9999,9999,834569312
158,10,Ticks_ISO_T2_5,44,9999,9999,9999,835070032
158,10,Ticks_ISO_T2_5,45,9999,9999,9999,835569716
158,10,Ticks_ISO_T2_5,46,9999,9999,9999,836069484
158,10,Ticks_ISO_T2_5,47,9999,9999,9999,836569160
158,10,Ticks_ISO_T2_5,48,9999,9999,9999,837069928
158,10,Ticks_ISO_T2_5,49,9999,9999,9999,837569608
158,10,Ticks_ISO_T2_5,50,9999,9999,9999,838069360
158,10,Ticks_ISO_T2_5,51,9999,9999,9999,838570080
158,10,Ticks_ISO_T2_5,52,9999,9999,9999,839069756
158,10,Ticks_ISO_T2_5,53,9999,9999,9999,839569508
158,10,Ticks_ISO_T2_5,54,9999,9999,9999,840069184
158,10,Ticks_ISO_T2_5,55,9999,9999,9999,840569904
158,10,Ticks_ISO_T2_5,56,9999,9999,9999,841069660
158,10,Ticks_ISO_T2_5,57,9999,9999,9999,841569336
158,10,Ticks_ISO_T2_5,58,9999,9999,9999,842070132
158,10,Ticks_ISO_T2_5,59,9999,9999,9999,842569808
158,10,Ticks_ISO_T2_5,60,9999,9999,9999,843069560
158,10,Ticks_ISO_T2_5,61,9999,9999,9999,843569232
158,10,Ticks_ISO_T2_5,62,9999,9999,9999,844069956
158,10,Ticks_ISO_T2_5,63,9999,9999,9999,844569704
158,10,Ticks_ISO_T2_5,64,9999,9999,9999,845069380
158,10,Ticks_ISO_T2_5,65,9999,9999,9999,845569136
158,10,Ticks_ISO_T2_5,66,9999,9999,9999,846069856
158,10,Ticks_ISO_T2_5,67,9999,9999,9999,846569532
158,10,Ticks_ISO_T2_5,68,9999,9999,9999,847069284
158,10,Ticks_ISO_T2_5,69,9999,9999,9999,847570004
158,10,Ticks_ISO_T2_5,70,9999,9999,9999,848069728
158,10,Ticks_ISO_T2_5,71,9999,9999,9999,848569404
158,10,Ticks_ISO_T2_5,72,9999,9999,9999,849069160
158,10,Ticks_ISO_T2_5,73,9999,9999,9999,849569864
158,10,Ticks_ISO_T2_5,74,9999,9999,9999,850069556
158,10,Ticks_ISO_T2_5,75,9999,9999,9999,850569308
158,10,Ticks_ISO_T2_5,76,9999,9999,9999,851070032
158,10,Ticks_ISO_T2_5,77,9999,9999,9999,851569784
158,10,Ticks_ISO_T2_5,78,9999,9999,9999,852069460
158,10,Ticks_ISO_T2_5,79,9999,9999,9999,852569208
158,10,Ticks_ISO_T2_5,80,9999,9999,9999,853069928
158,10,Ticks_ISO_T2_5,81,9999,9999,9999,853569604
158,10,Ticks_ISO_T2_5,82,9999,9999,9999,854069356
158,10,Ticks_ISO_T2_5,83,9999,9999,9999,854570076
158,10,Ticks_ISO_T2_5,84,9999,9999,9999,855069752
158,10,Ticks_ISO_T2_5,85,9999,9999,9999,855569504
158,10,Ticks_ISO_T2_5,86,9999,9999,9999,856069180
158,10,Ticks_ISO_T2_5,87,9999,9999,9999,856569904
158,10,Ticks_ISO_T2_5,88,9999,9999,9999,857069656
158,10,Ticks_ISO_T2_5,89,9999,9999,9999,857569328
158,10,Ticks_ISO_T2_5,90,9999,9999,9999,858070124
158,10,Ticks_ISO_T2_5,91,9999,9999,9999,858569848
158,10,Ticks_ISO_T2_5,92,9999,9999,9999,859069524
158,10,Ticks_ISO_T2_5,93,9999,9999,9999,859569200
158,10,Ticks_ISO_T2_5,94,9999,9999,9999,860069996
158,10,Ticks_ISO_T2_5,95,9999,9999,9999,860569672
158,10,Ticks_ISO_T2_5,96,9999,9999,9999,861069424
158,10,Ticks_ISO_T2_5,97,9999,9999,9999,861569104
158,10,Ticks_ISO_T2_5,98,9999,9999,9999,862069824
158,10,Ticks_ISO_T2_5,99,9999,9999,9999,862569572
158,10,Ticks_ISO_T2_5,100,9999,9999,9999,863069248
158,10,Ticks_ISO_T2_5,101,9999,9999,9999,863570040
158,10,Ticks_ISO_T2_5,102,9999,9999,9999,864069716
158,10,Ticks_ISO_T2_5,103,9999,9999,9999,864569396
158,10,Ticks_ISO_T2_5,104,9999,9999,9999,865069144
158,10,Ticks_ISO_T2_5,105,9999,9999,9999,865569876
158,10,Ticks_ISO_T2_5,106,9999,9999,9999,866069564
158,10,Ticks_ISO_T2_5,107,9999,9999,9999,866569324
158,10,Ticks_ISO_T2_5,108,9999,9999,9999,867070060
158,10,Ticks_ISO_T2_5,109,9999,9999,9999,867569736
158,10,Ticks_ISO_T2_5,110,9999,9999,9999,868069488
158,10,Ticks_ISO_T2_5,111,9999,9999,9999,868569164
158,10,Ticks_ISO_T2_5,112,9999,9999,9999,869069940
158,10,Ticks_ISO_T2_5,113,9999,9999,9999,869569608
158,10,Ticks_ISO_T2_5,114,9999,9999,9999,870069360
158,10,Ticks_ISO_T2_5,115,9999,9999,9999,870570088
158,10,Ticks_ISO_T2_5,116,9999,9999,9999,871069764
158,10,Ticks_ISO_T2_5,117,9999,9999,9999,871569528
158,10,Ticks_ISO_T2_5,118,9999,9999,9999,872069192
158,10,Ticks_ISO_T2_5,119,9999,9999,9999,872569912
158,10,Ticks_ISO_T2_5,120,9999,9999,9999,873069684
158,10,Ticks_ISO_T2_5,121,9999,9999,9999,873569360
158,10,Ticks_ISO_T2_5,122,9999,9999,9999,874070084
158,10,Ticks_ISO_T2_5,123,9999,9999,9999,874569832
158,10,Ticks_ISO_T2_5,124,9999,9999,9999,875069508
158,10,Ticks_ISO_T2_5,125,9999,9999,9999,875569260
158,10,Ticks_ISO_T2_5,126,9999,9999,9999,876069996
158,10,Ticks_ISO_T2_5,127,9999,9999,9999,876569656
158,10,Ticks_ISO_T2_5,128,9999,9999,9999,877069420
158,10,Ticks_ISO_T2_5,129,9999,9999,9999,877569100
151,22,Ticks_Phase_8,0,5,42,127,29180224
151,22,Ticks_Phase_8,1,5,42,127,29980136
151,22,Ticks_Phase_8,2,1,48,20,30760396
151,22,Ticks_Phase_8,3,5,42,127,30779936
151,22,Ticks_Phase_8,4,1,48,29,31568188
151,22,Ticks_Phase_8,5,5,42,127,31579428
151,22,Ticks_Phase_8,6,5,42,127,32380340
151,22,Ticks_Phase_8,7,1,48,29,32411488
151,22,Ticks_Phase_8,8,1,48,24,33178312
151,22,Ticks_Phase_8,9,5,42,127,33179972
151,22,Ticks_Phase_8,10,5,42,127,33979916
151,22,Ticks_Phase_8,11,1,48,25,34006720
151,22,Ticks_Phase_8,12,5,42,127,34779628
151,22,Ticks_Phase_8,13,1,48,24,34798148
151,22,Ticks_Phase_8,14,5,42,127,35580536
151,22,Ticks_Phase_8,15,1,48,19,35605876
151,22,Ticks_Phase_8,16,1,48,19,36341860
151,22,Ticks_Phase_8,17,5,42,127,36380116
151,22,Ticks_Phase_8,18,1,48,21,37134840
151,22,Ticks_Phase_8,19,5,42,127,37179680
151,22,Ticks_Phase_8,20,1,48,21,37951924
151,22,Ticks_Phase_8,21,5,42,127,37979616
151,22,Ticks_Phase_8,22,5,42,127,38780528
151,22,Ticks_Phase_8,23,1,48,21,38790452
151,22,Ticks_Phase_8,24,1,48,24,39577828
151,22,Ticks_Phase_8,25,5,42,127,39579940
151,22,Ticks_Phase_8,26,5,42,127,40379732
151,22,Ticks_Phase_8,27,1,48,26,40387548
151,22,Ticks_Phase_8,28,5,42,127,41179596
151,22,Ticks_Phase_8,29,1,48,16,41240756
151,22,Ticks_Phase_8,30,5,42,127,41980356
151,22,Ticks_Phase_8,31,1,48,31,41981320
151,22,Ticks_Phase_8,32,1,48,28,42684928
151,22,Ticks_Phase_8,33,5,42,127,42780160
151,22,Ticks_Phase_8,34,1,48,27,43526128
151,22,Ticks_Phase_8,35,5,42,127,43579796
151,22,Ticks_Phase_8,36,1,48,32,44304312
151,22,Ticks_Phase_8,37,5,42,127,44379484
151,22,Ticks_Phase_8,38,1,48,28,45100892
151,22,Ticks_Phase_8,39,5,42,127,45180172
151,22,Ticks_Phase_8,40,1,48,25,45894248
151,22,Ticks_Phase_8,41,5,42,127,45980256
151,22,Ticks_Phase_8,42,1,48,29,46731424
151,22,Ticks_Phase_8,43,5,42,127,46779968
151,22,Ticks_Phase_8,44,1,48,28,47540032
151,22,Ticks_Phase_8,45,5,42,127,47579608
151,22,Ticks_Phase_8,46,1,48,25,48299896
151,22,Ticks_Phase_8,47,5,42,127,48380220
151,22,Ticks_Phase_8,48,5,42,127,49180112
151,22,Ticks_Phase_8,49,1,48,31,49706448
151,22,Ticks_Phase_8,50,5,42,127,49979824
151,22,Ticks_Phase_8,51,1,48,28,50393180
151,22,Ticks_Phase_8,52,5,42,127,50779908
151,22,Ticks_Phase_8,53,1,48,27,51162088
151,22,Ticks_Phase_8,54,5,42,127,51580220
151,22,Ticks_Phase_8,55,1,48,28,51902592
151,22,Ticks_Phase_8,56,5,42,127,52380008
151,22,Ticks_Phase_8,57,1,48,30,52723680
151,22,Ticks_Phase_8,58,5,42,127,53160284
151,22,Ticks_Phase_8,59,1,48,24,53530452
151,22,Ticks_Phase_8,60,5,42,127,53959996
151,22,Ticks_Phase_8,61,1,48,27,54412552
151,22,Ticks_Phase_8,62,5,42,127,54759708
151,22,Ticks_Phase_8,63,1,48,26,55086660
151,22,Ticks_Phase_8,64,5,42,127,55559796
151,22,Ticks_Phase_8,65,1,48,26,55966892
151,22,Ticks_Phase_8,66,5,42,127,56360432
151,22,Ticks_Phase_8,67,1,48,20,56701344
151,22,Ticks_Phase_8,68,5,42,127,57159996
151,22,Ticks_Phase_8,69,1,48,22,57564968
151,22,Ticks_Phase_8,70,5,42,127,57959708
151,22,Ticks_Phase_8,71,1,48,21,58349512
151,22,Ticks_Phase_8,72,5,42,127,58759496
151,22,Ticks_Phase_8,73,1,48,22,59206884
151,22,Ticks_Phase_8,74,5,42,127,59560476
151,22,Ticks_Phase_8,75,1,48,15,59944100
151,22,Ticks_Phase_8,76,5,42,127,60359964
151,22,Ticks_Phase_8,77,1,48,19,60819480
151,22,Ticks_Phase_8,78,5,42,127,61159756
151,22,Ticks_Phase_8,79,1,48,18,61620012
151,22,Ticks_Phase_8,80,5,42,127,61959468
151,22,Ticks_Phase_8,81,1,48,30,62445588
151,22,Ticks_Phase_8,82,5,42,127,62760472
151,22,Ticks_Phase_8,83,1,48,24,63334288
151,22,Ticks_Phase_8,84,5,42,127,63560188
151,22,Ticks_Phase_8,85,1,48,23,64047128
151,22,Ticks_Phase_8,86,5,42,127,64359824
151,22,Ticks_Phase_8,87,1,48,23,64739164
151,22,Ticks_Phase_8,88,5,42,127,65159536
151,22,Ticks_Phase_8,89,1,48,27,65586740
151,22,Ticks_Phase_8,90,5,42,127,65960296
151,22,Ticks_Phase_8,91,1,48,27,66364628
151,22,Ticks_Phase_8,92,5,42,127,66760012
151,22,Ticks_Phase_8,93,1,48,24,67165084
151,22,Ticks_Phase_8,94,5,42,127,67580208
151,22,Ticks_Phase_8,95,1,48,22,67995680
151,22,Ticks_Phase_8,96,5,42,127,68380020
151,22,Ticks_Phase_8,97,1,48,24,68804664
151,22,Ticks_Phase_8,98,5,42,127,69180032
151,22,Ticks_Phase_8,99,5,42,127,69979396
151,22,Ticks_Phase_8,100,1,48,33,70246732
151,22,Ticks_Phase_8,101,5,42,127,70780228
151,22,Ticks_Phase_8,102,1,48,22,71121964
151,22,Ticks_Phase_8,103,5,42,127,71580088
151,22,Ticks_Phase_8,104,1,48,32,71895052
151,22,Ticks_Phase_8,105,5,42,127,72379652
151,22,Ticks_Phase_8,106,1,48,31,72744060
151,22,Ticks_Phase_8,107,5,42,127,73179584
151,22,Ticks_Phase_8,108,1,48,29,73612104
151,22,Ticks_Phase_8,109,5,42,127,73980196
151,22,Ticks_Phase_8,110,1,48,31,74420940
151,22,Ticks_Phase_8,111,5,42,127,74780156
151,22,Ticks_Phase_8,112,1,48,30,75250036
151,22,Ticks_Phase_8,113,5,42,127,75579720
151,22,Ticks_Phase_8,114,1,48,25,75928860
151,22,Ticks_Phase_8,115,5,42,127,76379656
151,22,Ticks_Phase_8,116,1,48,30,76727364
151,22,Ticks_Phase_8,117,5,42,127,77180636
151,22,Ticks_Phase_8,118,1,48,18,77523564
151,22,Ticks_Phase_8,119,5,42,127,77979976
151,22,Ticks_Phase_8,120,1,48,19,78413164
151,22,Ticks_Phase_8,121,1,48,21,78770156
151,22,Ticks_Phase_8,122,5,42,127,78779680
151,22,Ticks_Phase_8,123,1,48,15,79554016
151,22,Ticks_Phase_8,124,5,42,127,79579544
151,22,Ticks_Phase_8,125,5,42,127,80420256
151,22,Ticks_Phase_8,126,1,48,25,80469952
151,22,Ticks_Phase_8,127,5,42,127,81219896
151,22,Ticks_Phase_8,128,1,48,24,81288952
151,22,Ticks_Phase_8,129,5,42,127,82019832
151,22,Ticks_Phase_8,130,1,48,25,82232004
151,22,Ticks_Phase_8,131,5,42,127,82819472
151,22,Ticks_Phase_8,132,1,48,22,83233740
151,22,Ticks_Phase_8,133,5,42,127,83620156
151,22,Ticks_Phase_8,134,1,48,24,84073156
151,22,Ticks_Phase_8,135,5,42,127,84420388
151,22,Ticks_Phase_8,136,1,48,33,84930668
151,22,Ticks_Phase_8,137,5,42,127,85219656
151,22,Ticks_Phase_8,138,1,48,29,85686484
151,22,Ticks_Phase_8,139,5,42,127,86019292
151,22,Ticks_Phase_8,140,1,48,26,86568692
151,22,Ticks_Phase_8,141,5,42,127,86820076
151,22,Ticks_Phase_8,142,1,48,31,87420808
151,22,Ticks_Phase_8,143,5,42,127,87620084
151,22,Ticks_Phase_8,144,1,48,25,88224624
151,22,Ticks_Phase_8,145,5,42,127,88419648
151,22,Ticks_Phase_8,146,1,48,28,89140404
151,22,Ticks_Phase_8,147,5,42,127,89219528
151,22,Ticks_Phase_8,148,1,48,15,89971436
151,22,Ticks_Phase_8,149,5,42,127,90020060
151,22,Ticks_Phase_8,150,5,42,127,90819928
151,22,Ticks_Phase_8,151,1,48,24,90845764
151,22,Ticks_Phase_8,152,5,42,127,91619940
151,22,Ticks_Phase_8,153,1,48,25,91652060
151,22,Ticks_Phase_8,154,5,42,127,92419428
151,22,Ticks_Phase_8,155,1,48,30,92483344
151,22,Ticks_Phase_8,156,1,48,33,93219008
151,22,Ticks_Phase_8,157,5,42,127,93220800
151,22,Ticks_Phase_8,158,5,42,127,93980004
151,22,Ticks_Phase_8,159,1,48,30,94131224
151,22,Ticks_Phase_8,160,5,42,127,94779716
151,22,Ticks_Phase_8,161,1,48,29,94979456
151,22,Ticks_Phase_8,162,5,42,127,95579504
151,22,Ticks_Phase_8,163,1,48,29,95825608
151,22,Ticks_Phase_8,164,5,42,127,96380260
151,22,Ticks_Phase_8,165,1,48,28,96682596
151,22,Ticks_Phase_8,166,5,42,127,97180096
151,22,Ticks_Phase_8,167,1,48,22,97557976
151,22,Ticks_Phase_8,168,5,42,127,97979812
151,22,Ticks_Phase_8,169,1,48,22,98400744
151,22,Ticks_Phase_8,170,5,42,127,98779452
151,22,Ticks_Phase_8,171,1,48,24,99307968
151,22,Ticks_Phase_8,172,5,42,127,99580432
151,22,Ticks_Phase_8,173,1,48,21,100223428
151,22,Ticks_Phase_8,174,5,42,127,100380096
151,22,Ticks_Phase_8,175,5,42,127,101179684
151,22,Ticks_Phase_8,176,1,48,30,101184288
151,22,Ticks_Phase_8,177,5,42,127,101979548
151,22,Ticks_Phase_8,178,1,48,22,101990440
151,22,Ticks_Phase_8,179,5,42,127,102780376
151,22,Ticks_Phase_8,180,1,48,27,102818116
151,22,Ticks_Phase_8,181,5,42,127,103580016
151,22,Ticks_Phase_8,182,1,48,15,103659692
151,22,Ticks_Phase_8,183,5,42,127,104379728
151,22,Ticks_Phase_8,184,1,48,20,104449008
151,22,Ticks_Phase_8,185,5,42,127,105179516
151,22,Ticks_Phase_8,186,1,48,23,105189064
151,22,Ticks_Phase_8,187,1,48,19,105961920
151,22,Ticks_Phase_8,188,5,42,127,105980268
151,22,Ticks_Phase_8,189,1,48,20,106668268
151,22,Ticks_Phase_8,190,5,42,127,106700140
151,22,Ticks_Phase_8,191,1,48,18,107405544
151,22,Ticks_Phase_8,192,5,42,127,107500076
151,22,Ticks_Phase_8,193,1,48,19,108241592
151,22,Ticks_Phase_8,194,5,42,127,108299592
151,22,Ticks_Phase_8,195,1,48,24,109061940
151,22,Ticks_Phase_8,196,5,42,127,109100348
151,22,Ticks_Phase_8,197,5,42,127,109900068
151,22,Ticks_Phase_8,198,1,48,19,109918660
151,22,Ticks_Phase_8,199,5,42,127,110700076
151,22,Ticks_Phase_8,200,1,48,24,110710076
151,22,Ticks_Phase_8,201,5,42,127,111499716
151,22,Ticks_Phase_8,202,1,48,25,111561968
151,22,Ticks_Phase_8,203,5,42,127,112300324
151,22,Ticks_Phase_8,204,1,48,36,112831604
151,22,Ticks_Phase_8,205,5,42,127,113100036
151,22,Ticks_Phase_8,206,1,48,29,113577624
151,22,Ticks_Phase_8,207,5,42,127,113899824
151,22,Ticks_Phase_8,208,1,48,29,114264604
151,22,Ticks_Phase_8,209,5,42,127,114699636
151,22,Ticks_Phase_8,210,1,48,26,115030680
151,22,Ticks_Phase_8,211,5,42,127,115500692
151,22,Ticks_Phase_8,212,1,48,21,115946412
151,22,Ticks_Phase_8,213,5,42,127,116300108
151,22,Ticks_Phase_8,214,1,48,21,116741944
151,22,Ticks_Phase_8,215,5,42,127,117099820
151,22,Ticks_Phase_8,216,5,42,127,117899776
151,22,Ticks_Phase_8,217,1,48,24,118316440
151,22,Ticks_Phase_8,218,5,42,127,118700612
151,22,Ticks_Phase_8,219,1,48,21,119077128
151,22,Ticks_Phase_8,220,5,42,127,119500252
151,22,Ticks_Phase_8,221,1,48,18,120014704
151,22,Ticks_Phase_8,222,5,42,127,120379760
151,22,Ticks_Phase_8,223,1,48,14,120797532
151,22,Ticks_Phase_8,224,5,42,127,121179472
151,22,Ticks_Phase_8,225,1,48,19,121830892
151,22,Ticks_Phase_8,226,5,42,127,121980232
151,22,Ticks_Phase_8,227,5,42,127,122780260
151,22,Ticks_Phase_8,228,1,48,21,122786888
151,22,Ticks_Phase_8,229,5,42,127,123579828
151,22,Ticks_Phase_8,230,1,48,21,123796704
151,22,Ticks_Phase_8,231,5,42,127,124379468
151,22,Ticks_Phase_8,232,1,48,19,124596272
151,22,Ticks_Phase_8,233,5,42,127,125180300
151,22,Ticks_Phase_8,234,1,48,19,125501580
151,22,Ticks_Phase_8,235,5,42,127,125980188
151,22,Ticks_Phase_8,236,1,48,24,126253292
151,22,Ticks_Phase_8,237,5,42,127,126779900
151,22,Ticks_Phase_8,238,1,48,13,127175604
151,22,Ticks_Phase_8,239,5,42,127,127579464
151,22,Ticks_Phase_8,240,5,42,127,128380244
151,22,Ticks_Phase_8,241,1,48,27,128973720
151,22,Ticks_Phase_8,242,5,42,127,129180032
151,22,Ticks_Phase_8,243,1,48,15,129822352
151,22,Ticks_Phase_8,244,5,42,127,129979968
151,22,Ticks_Phase_8,245,1,48,16,130692788
151,22,Ticks_Phase_8,246,5,42,127,130779692
151,22,Ticks_Phase_8,247,1,48,17,131476648
151,22,Ticks_Phase_8,248,5,42,127,131580140
151,22,Ticks_Phase_8,249,1,48,17,132371788
151,22,Ticks_Phase_8,250,5,42,127,132380188
151,22,Ticks_Phase_8,251,1,48,18,133143836
151,22,Ticks_Phase_8,252,5,42,127,133179904
151,22,Ticks_Phase_8,253,1,48,21,133934352
151,22,Ticks_Phase_8,254,5,42,127,134140412
151,22,Ticks_Phase_8,255,1,48,27,134742960
151,22,Ticks_Phase_8,256,5,42,127,134940152
151,22,Ticks_Phase_8,257,1,48,26,135569148
151,22,Ticks_Phase_8,258,5,42,127,135739864
151,22,Ticks_Phase_8,259,1,48,17,136398612
151,22,Ticks_Phase_8,260,5,42,127,136539576
151,22,Ticks_Phase_8,261,1,48,21,137265776
151,22,Ticks_Phase_8,262,5,42,127,137340424
151,22,Ticks_Phase_8,263,1,48,18,138105560
151,22,Ticks_Phase_8,264,5,42,127,138140212
151,22,Ticks_Phase_8,265,5,42,127,138939708
151,22,Ticks_Phase_8,266,1,48,27,139483092
151,22,Ticks_Phase_8,267,5,42,127,139739492
151,22,Ticks_Phase_8,268,1,48,21,140150112
151,22,Ticks_Phase_8,269,5,42,127,140540548
151,22,Ticks_Phase_8,270,1,48,27,140936360
151,22,Ticks_Phase_8,271,5,42,127,141339916
151,22,Ticks_Phase_8,272,1,48,29,141742804
151,22,Ticks_Phase_8,273,5,42,127,142139704
151,22,Ticks_Phase_8,274,1,48,24,142567104
151,22,Ticks_Phase_8,275,5,42,127,142939492
151,22,Ticks_Phase_8,276,1,48,28,143401836
151,22,Ticks_Phase_8,277,5,42,127,143740248
151,22,Ticks_Phase_8,278,1,48,23,144210228
151,22,Ticks_Phase_8,279,5,42,127,144540108
151,22,Ticks_Phase_8,280,1,48,23,144988856
151,22,Ticks_Phase_8,281,5,42,127,145339748
151,22,Ticks_Phase_8,282,1,48,19,145822504
151,22,Ticks_Phase_8,283,5,42,127,146139612
151,22,Ticks_Phase_8,284,1,48,21,146519204
151,22,Ticks_Phase_8,285,5,42,127,146940368
151,22,Ticks_Phase_8,286,1,48,16,147271360
151,22,Ticks_Phase_8,287,5,42,127,147740180
151,22,Ticks_Phase_8,288,1,48,21,148064344
151,22,Ticks_Phase_8,289,5,42,127,148539896
151,22,Ticks_Phase_8,290,1,48,30,148749304
151,22,Ticks_Phase_8,291,5,42,127,149179972
151,22,Ticks_Phase_8,292,5,42,127,149979408
151,22,Ticks_Phase_8,293,1,48,37,150470168
151,22,Ticks_Phase_8,294,5,42,127,150780240
151,22,Ticks_Phase_8,295,1,48,27,151122372
151,22,Ticks_Phase_8,296,5,42,127,151580052
151,22,Ticks_Phase_8,297,1,48,31,152279844
151,22,Ticks_Phase_8,298,5,42,127,152379840
151,22,Ticks_Phase_8,299,1,48,31,152972424
151,22,Ticks_Phase_8,300,5,42,127,153179776
151,22,Ticks_Phase_8,301,1,48,27,153931404
151,22,Ticks_Phase_8,302,5,42,127,153980252
151,22,Ticks_Phase_8,303,5,42,127,154779972
151,22,Ticks_Phase_8,304,1,48,28,154790636
151,22,Ticks_Phase_8,305,5,42,127,155579684
151,22,Ticks_Phase_8,306,1,48,19,155640812
151,22,Ticks_Phase_8,307,5,42,127,156379620
151,22,Ticks_Phase_8,308,1,48,27,156394464
151,22,Ticks_Phase_8,309,5,42,127,157180376
151,22,Ticks_Phase_8,310,1,48,24,157282800
151,22,Ticks_Phase_8,311,1,48,29,157959452
151,22,Ticks_Phase_8,312,5,42,127,157980108
151,22,Ticks_Phase_8,313,5,42,127,158779680
151,22,Ticks_Phase_8,314,1,48,28,158801856
151,22,Ticks_Phase_8,315,5,42,127,159579396
151,22,Ticks_Phase_8,316,1,48,27,159602464
151,22,Ticks_Phase_8,317,5,42,127,160380372
151,22,Ticks_Phase_8,318,1,48,23,160409736
151,22,Ticks_Phase_8,319,5,42,127,161179864
151,22,Ticks_Phase_8,320,1,48,21,161284352
151,22,Ticks_Phase_8,321,5,42,127,161979876
151,22,Ticks_Phase_8,322,1,48,35,162341224
151,22,Ticks_Phase_8,323,5,42,127,162779516
151,22,Ticks_Phase_8,324,1,48,33,163115732
151,22,Ticks_Phase_8,325,5,42,127,163580200
151,22,Ticks_Phase_8,326,1,48,21,164026168
151,22,Ticks_Phase_8,327,5,42,127,164380232
151,22,Ticks_Phase_8,0,9999,9999,9999,29177944
151,22,Ticks_Phase_8,1,9999,9999,9999,29977704
151,22,Ticks_Phase_8,2,9999,9999,9999,30777432
151,22,Ticks_Phase_8,3,9999,9999,9999,31577144
151,22,Ticks_Phase_8,4,9999,9999,9999,32377984
151,22,Ticks_Phase_8,5,9999,9999,9999,33177716
151,22,Ticks_Phase_8,6,9999,9999,9999,33977408
151,22,Ticks_Phase_8,7,9999,9999,9999,34777196
151,22,Ticks_Phase_8,8,9999,9999,9999,35577956
151,22,Ticks_Phase_8,9,9999,9999,9999,36377684
151,22,Ticks_Phase_8,10,9999,9999,9999,37177472
151,22,Ticks_Phase_8,11,9999,9999,9999,37977184
151,22,Ticks_Phase_8,12,9999,9999,9999,38777948
151,22,Ticks_Phase_8,13,9999,9999,9999,39577700
151,22,Ticks_Phase_8,14,9999,9999,9999,40377448
151,22,Ticks_Phase_8,15,9999,9999,9999,41177164
151,22,Ticks_Phase_8,16,9999,9999,9999,41977924
151,22,Ticks_Phase_8,17,9999,9999,9999,42777728
151,22,Ticks_Phase_8,18,9999,9999,9999,43577440
151,22,Ticks_Phase_8,19,9999,9999,9999,44377204
151,22,Ticks_Phase_8,20,9999,9999,9999,45177964
151,22,Ticks_Phase_8,21,9999,9999,9999,45977676
151,22,Ticks_Phase_8,22,9999,9999,9999,46777464
151,22,Ticks_Phase_8,23,9999,9999,9999,47577176
151,22,Ticks_Phase_8,24,9999,9999,9999,48377932
151,22,Ticks_Phase_8,25,9999,9999,9999,49177680
151,22,Ticks_Phase_8,26,9999,9999,9999,49977468
151,22,Ticks_Phase_8,27,9999,9999,9999,50777180
151,22,Ticks_Phase_8,28,9999,9999,9999,51577940
151,22,Ticks_Phase_8,29,9999,9999,9999,52377724
151,22,Ticks_Phase_8,30,9999,9999,9999,53158000
151,22,Ticks_Phase_8,31,9999,9999,9999,53957712
151,22,Ticks_Phase_8,32,9999,9999,9999,54757500
151,22,Ticks_Phase_8,33,9999,9999,9999,55557216
151,22,Ticks_Phase_8,34,9999,9999,9999,56358000
151,22,Ticks_Phase_8,35,9999,9999,9999,57157712
151,22,Ticks_Phase_8,36,9999,9999,9999,57957500
151,22,Ticks_Phase_8,37,9999,9999,9999,58757212
151,22,Ticks_Phase_8,38,9999,9999,9999,59557968
151,22,Ticks_Phase_8,39,9999,9999,9999,60357756
151,22,Ticks_Phase_8,40,9999,9999,9999,61157472
151,22,Ticks_Phase_8,41,9999,9999,9999,61957184
151,22,Ticks_Phase_8,42,9999,9999,9999,62757968
151,22,Ticks_Phase_8,43,9999,9999,9999,63557756
151,22,Ticks_Phase_8,44,9999,9999,9999,64357468
151,22,Ticks_Phase_8,45,9999,9999,9999,65157180
151,22,Ticks_Phase_8,46,9999,9999,9999,65958012
151,22,Ticks_Phase_8,47,9999,9999,9999,66757728
151,22,Ticks_Phase_8,48,9999,9999,9999,67577924
151,22,Ticks_Phase_8,49,9999,9999,9999,68377664
151,22,Ticks_Phase_8,50,9999,9999,9999,69177452
151,22,Ticks_Phase_8,51,9999,9999,9999,69977184
151,22,Ticks_Phase_8,52,9999,9999,9999,70777944
151,22,Ticks_Phase_8,53,9999,9999,9999,71577656
151,22,Ticks_Phase_8,54,9999,9999,9999,72377440
151,22,Ticks_Phase_8,55,9999,9999,9999,73177156
151,22,Ticks_Phase_8,56,9999,9999,9999,73977912
151,22,Ticks_Phase_8,57,9999,9999,9999,74777724
151,22,Ticks_Phase_8,58,9999,9999,9999,75577436
151,22,Ticks_Phase_8,59,9999,9999,9999,76377148
151,22,Ticks_Phase_8,60,9999,9999,9999,77177980
151,22,Ticks_Phase_8,61,9999,9999,9999,77977692
151,22,Ticks_Phase_8,62,9999,9999,9999,78777472
151,22,Ticks_Phase_8,63,9999,9999,9999,79577184
151,22,Ticks_Phase_8,64,9999,9999,9999,80417900
151,22,Ticks_Phase_8,65,9999,9999,9999,81217612
151,22,Ticks_Phase_8,66,9999,9999,9999,82017400
151,22,Ticks_Phase_8,67,9999,9999,9999,82817112
151,22,Ticks_Phase_8,68,9999,9999,9999,83617872
151,22,Ticks_Phase_8,69,9999,9999,9999,84417656
151,22,Ticks_Phase_8,70,9999,9999,9999,85217372
151,22,Ticks_Phase_8,71,9999,9999,9999,86017084
151,22,Ticks_Phase_8,72,9999,9999,9999,86817868
151,22,Ticks_Phase_8,73,9999,9999,9999,87617652
151,22,Ticks_Phase_8,74,9999,9999,9999,88417368
151,22,Ticks_Phase_8,75,9999,9999,9999,89217096
151,22,Ticks_Phase_8,76,9999,9999,9999,90017852
151,22,Ticks_Phase_8,77,9999,9999,9999,90817644
151,22,Ticks_Phase_8,78,9999,9999,9999,91617360
151,22,Ticks_Phase_8,79,9999,9999,9999,92417148
151,22,Ticks_Phase_8,80,9999,9999,9999,93217856
151,22,Ticks_Phase_8,81,9999,9999,9999,93977720
151,22,Ticks_Phase_8,82,9999,9999,9999,94777432
151,22,Ticks_Phase_8,83,9999,9999,9999,95577148
151,22,Ticks_Phase_8,84,9999,9999,9999,96377976
151,22,Ticks_Phase_8,85,9999,9999,9999,97177668
151,22,Ticks_Phase_8,86,9999,9999,9999,97977456
151,22,Ticks_Phase_8,87,9999,9999,9999,98777168
151,22,Ticks_Phase_8,88,9999,9999,9999,99577928
151,22,Ticks_Phase_8,89,9999,9999,9999,100377664
151,22,Ticks_Phase_8,90,9999,9999,9999,101177400
151,22,Ticks_Phase_8,91,9999,9999,9999,101977188
151,22,Ticks_Phase_8,92,9999,9999,9999,102777944
151,22,Ticks_Phase_8,93,9999,9999,9999,103577660
151,22,Ticks_Phase_8,94,9999,9999,9999,104377444
151,22,Ticks_Phase_8,95,9999,9999,9999,105177160
151,22,Ticks_Phase_8,96,9999,9999,9999,105977984
151,22,Ticks_Phase_8,97,9999,9999,9999,106697856
151,22,Ticks_Phase_8,98,9999,9999,9999,107497568
151,22,Ticks_Phase_8,99,9999,9999,9999,108297284
151,22,Ticks_Phase_8,100,9999,9999,9999,109098064
151,22,Ticks_Phase_8,101,9999,9999,9999,109897856
151,22,Ticks_Phase_8,102,9999,9999,9999,110697572
151,22,Ticks_Phase_8,103,9999,9999,9999,111497284
151,22,Ticks_Phase_8,104,9999,9999,9999,112298040
151,22,Ticks_Phase_8,105,9999,9999,9999,113097828
151,22,Ticks_Phase_8,106,9999,9999,9999,113897540
151,22,Ticks_Phase_8,107,9999,9999,9999,114697328
151,22,Ticks_Phase_8,108,9999,9999,9999,115498112
151,22,Ticks_Phase_8,109,9999,9999,9999,116297824
151,22,Ticks_Phase_8,110,9999,9999,9999,117097536
151,22,Ticks_Phase_8,111,9999,9999,9999,117897272
151,22,Ticks_Phase_8,112,9999,9999,9999,118698104
151,22,Ticks_Phase_8,113,9999,9999,9999,119497816
151,22,Ticks_Phase_8,114,9999,9999,9999,120377404
151,22,Ticks_Phase_8,115,9999,9999,9999,121177192
151,22,Ticks_Phase_8,116,9999,9999,9999,121977948
151,22,Ticks_Phase_8,117,9999,9999,9999,122777680
151,22,Ticks_Phase_8,118,9999,9999,9999,123577472
151,22,Ticks_Phase_8,119,9999,9999,9999,124377184
151,22,Ticks_Phase_8,120,9999,9999,9999,125177944
151,22,Ticks_Phase_8,121,9999,9999,9999,125977680
151,22,Ticks_Phase_8,122,9999,9999,9999,126777468
151,22,Ticks_Phase_8,123,9999,9999,9999,127577184
151,22,Ticks_Phase_8,124,9999,9999,9999,128377960
151,22,Ticks_Phase_8,125,9999,9999,9999,129177672
151,22,Ticks_Phase_8,126,9999,9999,9999,129977460
151,22,Ticks_Phase_8,127,9999,9999,9999,130777188
151,22,Ticks_Phase_8,128,9999,9999,9999,131577932
151,22,Ticks_Phase_8,129,9999,9999,9999,132377684
151,22,Ticks_Phase_8,130,9999,9999,9999,133177472
151,22,Ticks_Phase_8,131,9999,9999,9999,134137980
151,22,Ticks_Phase_8,132,9999,9999,9999,134937720
151,22,Ticks_Phase_8,133,9999,9999,9999,135737432
151,22,Ticks_Phase_8,134,9999,9999,9999,136537144
151,22,Ticks_Phase_8,135,9999,9999,9999,137337916
151,22,Ticks_Phase_8,136,9999,9999,9999,138137704
151,22,Ticks_Phase_8,137,9999,9999,9999,138937424
151,22,Ticks_Phase_8,138,9999,9999,9999,139737212
151,22,Ticks_Phase_8,139,9999,9999,9999,140537968
151,22,Ticks_Phase_8,140,9999,9999,9999,141337708
151,22,Ticks_Phase_8,141,9999,9999,9999,142137420
151,22,Ticks_Phase_8,142,9999,9999,9999,142937208
151,22,Ticks_Phase_8,143,9999,9999,9999,143737964
151,22,Ticks_Phase_8,144,9999,9999,9999,144537676
151,22,Ticks_Phase_8,145,9999,9999,9999,145337464
151,22,Ticks_Phase_8,146,9999,9999,9999,146137180
151,22,Ticks_Phase_8,147,9999,9999,9999,146937936
151,22,Ticks_Phase_8,148,9999,9999,9999,147737676
151,22,Ticks_Phase_8,149,9999,9999,9999,148537464
151,22,Ticks_Phase_8,150,9999,9999,9999,149177464
151,22,Ticks_Phase_8,151,9999,9999,9999,149977200
151,22,Ticks_Phase_8,152,9999,9999,9999,150777956
151,22,Ticks_Phase_8,153,9999,9999,9999,151577696
151,22,Ticks_Phase_8,154,9999,9999,9999,152377408
151,22,Ticks_Phase_8,155,9999,9999,9999,153177196
151,22,Ticks_Phase_8,156,9999,9999,9999,153977972
151,22,Ticks_Phase_8,157,9999,9999,9999,154777688
151,22,Ticks_Phase_8,158,9999,9999,9999,155577400
151,22,Ticks_Phase_8,159,9999,9999,9999,156377188
151,22,Ticks_Phase_8,160,9999,9999,9999,157177944
151,22,Ticks_Phase_8,161,9999,9999,9999,157977676
151,22,Ticks_Phase_8,162,9999,9999,9999,158777472
151,22,Ticks_Phase_8,163,9999,9999,9999,159577184
151,22,Ticks_Phase_8,164,9999,9999,9999,160377940
151,22,Ticks_Phase_8,165,9999,9999,9999,161177656
151,22,Ticks_Phase_8,166,9999,9999,9999,161977444
151,22,Ticks_Phase_8,167,9999,9999,9999,162777156
151,22,Ticks_Phase_8,168,9999,9999,9999,163577916
151,22,Ticks_Phase_8,169,9999,9999,9999,164377728
152,23,Ticks_Phase_5,0,5,42,127,176467512
152,23,Ticks_Phase_5,1,5,42,127,176967056
152,23,Ticks_Phase_5,2,5,42,127,177466676
152,23,Ticks_Phase_5,3,5,42,127,177966444
152,23,Ticks_Phase_5,4,1,48,38,178416660
152,23,Ticks_Phase_5,5,5,42,127,178467396
152,23,Ticks_Phase_5,6,1,48,24,178920060
152,23,Ticks_Phase_5,7,5,42,127,178966992
152,23,Ticks_Phase_5,8,1,48,28,179433112
152,23,Ticks_Phase_5,9,5,42,127,179466592
152,23,Ticks_Phase_5,10,1,48,24,179951544
152,23,Ticks_Phase_5,11,5,42,127,179967280
152,23,Ticks_Phase_5,12,1,48,29,180443296
152,23,Ticks_Phase_5,13,5,42,127,180467024
152,23,Ticks_Phase_5,14,1,48,24,180952088
152,23,Ticks_Phase_5,15,5,42,127,180966696
152,23,Ticks_Phase_5,16,1,48,27,181418936
152,23,Ticks_Phase_5,17,5,42,127,181466368
152,23,Ticks_Phase_5,18,1,48,23,181912624
152,23,Ticks_Phase_5,19,5,42,127,181967380
152,23,Ticks_Phase_5,20,1,48,27,182397048
152,23,Ticks_Phase_5,21,5,42,127,182466904
152,23,Ticks_Phase_5,22,1,48,23,182917876
152,23,Ticks_Phase_5,23,5,42,127,182966500
152,23,Ticks_Phase_5,24,1,48,19,183435716
152,23,Ticks_Phase_5,25,5,42,127,183467368
152,23,Ticks_Phase_5,26,1,48,20,183929180
152,23,Ticks_Phase_5,27,5,42,127,183967036
152,23,Ticks_Phase_5,28,5,42,127,184466716
152,23,Ticks_Phase_5,29,1,48,21,184494212
152,23,Ticks_Phase_5,30,1,48,18,184965332
152,23,Ticks_Phase_5,31,5,42,127,184967120
152,23,Ticks_Phase_5,32,1,48,22,185433416
152,23,Ticks_Phase_5,33,5,42,127,185467168
152,23,Ticks_Phase_5,34,5,42,127,185966996
152,23,Ticks_Phase_5,35,1,48,17,186021024
152,23,Ticks_Phase_5,36,5,42,127,186466592
152,23,Ticks_Phase_5,37,1,48,17,186492428
152,23,Ticks_Phase_5,38,1,48,22,186946644
152,23,Ticks_Phase_5,39,5,42,127,186967452
152,23,Ticks_Phase_5,40,5,42,127,187466980
152,23,Ticks_Phase_5,41,5,42,127,187967044
152,23,Ticks_Phase_5,42,1,48,17,188100840
152,23,Ticks_Phase_5,43,5,42,127,188466416
152,23,Ticks_Phase_5,44,1,48,17,188474696
152,23,Ticks_Phase_5,45,1,48,21,188938984
152,23,Ticks_Phase_5,46,5,42,127,188967276
152,23,Ticks_Phase_5,47,1,48,22,189414324
152,23,Ticks_Phase_5,48,5,42,127,189466948
152,23,Ticks_Phase_5,49,1,48,27,189894408
152,23,Ticks_Phase_5,50,5,42,127,189966916
152,23,Ticks_Phase_5,51,1,48,22,190361560
152,23,Ticks_Phase_5,52,5,42,127,190466544
152,23,Ticks_Phase_5,53,1,48,20,190871924
152,23,Ticks_Phase_5,54,5,42,127,190967112
152,23,Ticks_Phase_5,55,1,48,21,191407188
152,23,Ticks_Phase_5,56,5,42,127,191456780
152,23,Ticks_Phase_5,57,1,48,20,191928688
152,23,Ticks_Phase_5,58,5,42,127,191957496
152,23,Ticks_Phase_5,59,1,48,25,192410408
152,23,Ticks_Phase_5,60,5,42,127,192457092
152,23,Ticks_Phase_5,61,1,48,22,192921364
152,23,Ticks_Phase_5,62,5,42,127,192956984
152,23,Ticks_Phase_5,63,1,48,20,193382008
152,23,Ticks_Phase_5,64,5,42,127,193456432
152,23,Ticks_Phase_5,65,1,48,21,193877572
152,23,Ticks_Phase_5,66,5,42,127,193957372
152,23,Ticks_Phase_5,67,1,48,21,194420008
152,23,Ticks_Phase_5,68,5,42,127,194456820
152,23,Ticks_Phase_5,69,1,48,16,194925736
152,23,Ticks_Phase_5,70,5,42,127,194956788
152,23,Ticks_Phase_5,71,1,48,21,195403488
152,23,Ticks_Phase_5,72,5,42,127,195457360
152,23,Ticks_Phase_5,73,1,48,19,195889412
152,23,Ticks_Phase_5,74,5,42,127,195957024
152,23,Ticks_Phase_5,75,1,48,16,196392368
152,23,Ticks_Phase_5,76,5,42,127,196456772
152,23,Ticks_Phase_5,77,1,48,20,196914700
152,23,Ticks_Phase_5,78,5,42,127,196956664
152,23,Ticks_Phase_5,79,1,48,24,197426628
152,23,Ticks_Phase_5,80,5,42,127,197457380
152,23,Ticks_Phase_5,81,1,48,21,197927564
152,23,Ticks_Phase_5,82,5,42,127,197957052
152,23,Ticks_Phase_5,83,5,42,127,198456656
152,23,Ticks_Phase_5,84,1,48,14,198459400
152,23,Ticks_Phase_5,85,1,48,24,198902884
152,23,Ticks_Phase_5,86,5,42,127,198957444
152,23,Ticks_Phase_5,87,5,42,127,199467512
152,23,Ticks_Phase_5,88,1,48,26,199897612
152,23,Ticks_Phase_5,89,5,42,127,199967044
152,23,Ticks_Phase_5,90,1,48,26,200388460
152,23,Ticks_Phase_5,91,5,42,127,200477032
152,23,Ticks_Phase_5,92,1,48,21,200904492
152,23,Ticks_Phase_5,93,5,42,127,200976776
152,23,Ticks_Phase_5,94,1,48,18,201394384
152,23,Ticks_Phase_5,95,5,42,127,201476596
152,23,Ticks_Phase_5,96,1,48,29,201878652
152,23,Ticks_Phase_5,97,5,42,127,201977360
152,23,Ticks_Phase_5,98,1,48,29,202349088
152,23,Ticks_Phase_5,99,5,42,127,202477016
152,23,Ticks_Phase_5,100,1,48,21,202868496
152,23,Ticks_Phase_5,101,5,42,127,202976688
152,23,Ticks_Phase_5,102,1,48,13,203398148
152,23,Ticks_Phase_5,103,5,42,127,203477420
152,23,Ticks_Phase_5,104,1,48,24,203900356
152,23,Ticks_Phase_5,105,5,42,127,203977164
152,23,Ticks_Phase_5,106,1,48,18,204385304
152,23,Ticks_Phase_5,107,5,42,127,204476760
152,23,Ticks_Phase_5,108,5,42,127,204976512
152,23,Ticks_Phase_5,109,1,48,19,204987480
152,23,Ticks_Phase_5,110,5,42,127,205477152
152,23,Ticks_Phase_5,111,1,48,21,205541044
152,23,Ticks_Phase_5,112,5,42,127,205977196
152,23,Ticks_Phase_5,113,1,48,21,206027708
152,23,Ticks_Phase_5,114,5,42,127,206476792
152,23,Ticks_Phase_5,115,1,48,18,206500388
152,23,Ticks_Phase_5,116,5,42,127,206977288
152,23,Ticks_Phase_5,117,1,48,13,206978252
152,23,Ticks_Phase_5,118,1,48,20,207472952
152,23,Ticks_Phase_5,119,5,42,127,207477096
152,23,Ticks_Phase_5,120,1,48,23,207938308
152,23,Ticks_Phase_5,121,5,42,127,207976988
152,23,Ticks_Phase_5,122,1,48,17,208489044
152,23,Ticks_Phase_5,123,5,42,127,208496996
152,23,Ticks_Phase_5,124,1,48,21,208983104
152,23,Ticks_Phase_5,125,5,42,127,208996668
152,23,Ticks_Phase_5,126,5,42,127,209496492
152,23,Ticks_Phase_5,127,1,48,26,209497980
152,23,Ticks_Phase_5,128,5,42,127,209997136
152,23,Ticks_Phase_5,129,1,48,23,210025076
152,23,Ticks_Phase_5,130,1,48,20,210472172
152,23,Ticks_Phase_5,131,5,42,127,210497096
152,23,Ticks_Phase_5,132,1,48,20,210971992
152,23,Ticks_Phase_5,133,5,42,127,210996768
152,23,Ticks_Phase_5,134,1,48,17,211472932
152,23,Ticks_Phase_5,135,5,42,127,211497264
152,23,Ticks_Phase_5,136,1,48,18,211956732
152,23,Ticks_Phase_5,137,5,42,127,211997080
152,23,Ticks_Phase_5,138,1,48,24,212458944
152,23,Ticks_Phase_5,139,5,42,127,212496752
152,23,Ticks_Phase_5,140,1,48,19,212898956
152,23,Ticks_Phase_5,141,5,42,127,212996632
152,23,Ticks_Phase_5,142,1,48,30,213399516
152,23,Ticks_Phase_5,143,5,42,127,213497248
152,23,Ticks_Phase_5,144,1,48,22,213953912
152,23,Ticks_Phase_5,145,5,42,127,213996860
152,23,Ticks_Phase_5,146,1,48,24,214439904
152,23,Ticks_Phase_5,147,5,42,127,214496752
152,23,Ticks_Phase_5,148,1,48,26,214926572
152,23,Ticks_Phase_5,149,5,42,127,214997616
152,23,Ticks_Phase_5,150,1,48,21,215420628
152,23,Ticks_Phase_5,151,5,42,127,215496920
152,23,Ticks_Phase_5,152,1,48,27,215960148
152,23,Ticks_Phase_5,153,5,42,127,215996812
152,23,Ticks_Phase_5,154,1,48,20,216464760
152,23,Ticks_Phase_5,155,5,42,127,216496708
152,23,Ticks_Phase_5,156,5,42,127,216976724
152,23,Ticks_Phase_5,157,1,48,16,216991876
152,23,Ticks_Phase_5,158,5,42,127,217476544
152,23,Ticks_Phase_5,159,1,48,19,217525044
152,23,Ticks_Phase_5,160,1,48,18,217961528
152,23,Ticks_Phase_5,161,5,42,127,217977180
152,23,Ticks_Phase_5,162,1,48,20,218451400
152,23,Ticks_Phase_5,163,5,42,127,218476928
152,23,Ticks_Phase_5,164,1,48,19,218922360
152,23,Ticks_Phase_5,165,5,42,127,218976596
152,23,Ticks_Phase_5,166,1,48,18,219392624
152,23,Ticks_Phase_5,167,5,42,127,219477312
152,23,Ticks_Phase_5,168,1,48,17,219904120
152,23,Ticks_Phase_5,169,5,42,127,219977060
152,23,Ticks_Phase_5,170,1,48,19,220390100
152,23,Ticks_Phase_5,171,5,42,127,220476728
152,23,Ticks_Phase_5,172,1,48,21,220864880
152,23,Ticks_Phase_5,173,5,42,127,220976460
152,23,Ticks_Phase_5,174,1,48,19,221398116
152,23,Ticks_Phase_5,175,5,42,127,221477340
152,23,Ticks_Phase_5,176,1,48,18,221938604
152,23,Ticks_Phase_5,177,5,42,127,221977232
152,23,Ticks_Phase_5,178,1,48,20,222413296
152,23,Ticks_Phase_5,179,5,42,127,222476680
152,23,Ticks_Phase_5,180,5,42,127,222977480
152,23,Ticks_Phase_5,181,1,48,13,223005564
152,23,Ticks_Phase_5,182,5,42,127,223477272
152,23,Ticks_Phase_5,183,1,48,25,223490284
152,23,Ticks_Phase_5,184,5,42,127,223976792
152,23,Ticks_Phase_5,185,1,48,24,223993360
152,23,Ticks_Phase_5,186,1,48,22,224415200
152,23,Ticks_Phase_5,187,5,42,127,224476604
152,23,Ticks_Phase_5,188,1,48,21,224922336
152,23,Ticks_Phase_5,189,5,42,127,224927080
152,23,Ticks_Phase_5,190,1,48,18,225364588
152,23,Ticks_Phase_5,191,5,42,127,225427052
152,23,Ticks_Phase_5,192,1,48,22,225832492
152,23,Ticks_Phase_5,193,5,42,127,225926572
152,23,Ticks_Phase_5,194,1,48,20,226287884
152,23,Ticks_Phase_5,195,5,42,127,226427272
152,23,Ticks_Phase_5,196,5,42,127,226927112
152,23,Ticks_Phase_5,197,1,48,32,227335420
152,23,Ticks_Phase_5,198,5,42,127,227426580
152,23,Ticks_Phase_5,199,1,48,21,227849516
152,23,Ticks_Phase_5,200,5,42,127,227927372
152,23,Ticks_Phase_5,201,1,48,26,228311476
152,23,Ticks_Phase_5,202,5,42,127,228427100
152,23,Ticks_Phase_5,203,1,48,22,228830736
152,23,Ticks_Phase_5,204,5,42,127,228928116
152,23,Ticks_Phase_5,205,1,48,22,229327940
152,23,Ticks_Phase_5,206,5,42,127,229426512
152,23,Ticks_Phase_5,207,1,48,23,229796584
152,23,Ticks_Phase_5,208,5,42,127,229927228
152,23,Ticks_Phase_5,209,1,48,20,230311352
152,23,Ticks_Phase_5,210,5,42,127,230426972
152,23,Ticks_Phase_5,211,1,48,22,230857752
152,23,Ticks_Phase_5,212,5,42,127,230926808
152,23,Ticks_Phase_5,213,1,48,26,231372072
152,23,Ticks_Phase_5,214,5,42,127,231426404
152,23,Ticks_Phase_5,215,1,48,20,231910916
152,23,Ticks_Phase_5,216,5,42,127,231927024
152,23,Ticks_Phase_5,217,1,48,16,232425180
152,23,Ticks_Phase_5,218,5,42,127,232426844
152,23,Ticks_Phase_5,219,5,42,127,232926816
152,23,Ticks_Phase_5,220,1,48,20,232928156
152,23,Ticks_Phase_5,221,1,48,19,233397600
152,23,Ticks_Phase_5,222,5,42,127,233476524
152,23,Ticks_Phase_5,223,1,48,21,233955136
152,23,Ticks_Phase_5,224,5,42,127,233977140
152,23,Ticks_Phase_5,225,5,42,127,234476892
152,23,Ticks_Phase_5,226,1,48,16,234485392
152,23,Ticks_Phase_5,227,1,48,20,234964408
152,23,Ticks_Phase_5,228,5,42,127,234976628
152,23,Ticks_Phase_5,229,5,42,127,235477352
152,23,Ticks_Phase_5,230,1,48,18,235484660
152,23,Ticks_Phase_5,231,1,48,20,235956580
152,23,Ticks_Phase_5,232,5,42,127,235977016
152,23,Ticks_Phase_5,233,5,42,127,236476692
152,23,Ticks_Phase_5,234,1,48,16,236478104
152,23,Ticks_Phase_5,235,5,42,127,236976588
152,23,Ticks_Phase_5,236,1,48,17,236981424
152,23,Ticks_Phase_5,237,5,42,127,237477304
152,23,Ticks_Phase_5,238,1,48,26,237960588
152,23,Ticks_Phase_5,239,5,42,127,237976844
152,23,Ticks_Phase_5,240,1,48,24,238417496
152,23,Ticks_Phase_5,241,5,42,127,238476588
152,23,Ticks_Phase_5,242,5,42,127,238977388
152,23,Ticks_Phase_5,243,1,48,29,239408340
152,23,Ticks_Phase_5,244,5,42,127,239477220
152,23,Ticks_Phase_5,245,1,48,32,239879968
152,23,Ticks_Phase_5,246,5,42,127,239976872
152,23,Ticks_Phase_5,247,5,42,127,240476640
152,23,Ticks_Phase_5,248,1,48,19,240750864
152,23,Ticks_Phase_5,249,5,42,127,240977504
152,23,Ticks_Phase_5,250,1,48,22,241189980
152,23,Ticks_Phase_5,251,5,42,127,241477104
152,23,Ticks_Phase_5,252,1,48,15,241734816
152,23,Ticks_Phase_5,253,5,42,127,242077104
152,23,Ticks_Phase_5,254,1,48,20,242273268
152,23,Ticks_Phase_5,255,5,42,127,242576700
152,23,Ticks_Phase_5,256,1,48,19,242830140
152,23,Ticks_Phase_5,257,5,42,127,243076520
152,23,Ticks_Phase_5,258,1,48,20,243342520
152,23,Ticks_Phase_5,259,5,42,127,243577164
152,23,Ticks_Phase_5,260,1,48,19,243913356
152,23,Ticks_Phase_5,261,5,42,127,244077128
152,23,Ticks_Phase_5,262,5,42,127,244576524
152,23,Ticks_Phase_5,263,1,48,35,244855988
152,23,Ticks_Phase_5,264,5,42,127,245077316
152,23,Ticks_Phase_5,265,1,48,28,245360288
152,23,Ticks_Phase_5,266,5,42,127,245577060
152,23,Ticks_Phase_5,267,1,48,32,245845532
152,23,Ticks_Phase_5,268,5,42,127,246076956
152,23,Ticks_Phase_5,269,1,48,30,246380788
152,23,Ticks_Phase_5,270,5,42,127,246576552
152,23,Ticks_Phase_5,271,1,48,25,246883888
152,23,Ticks_Phase_5,272,5,42,127,247077340
152,23,Ticks_Phase_5,273,1,48,21,247363972
152,23,Ticks_Phase_5,274,5,42,127,247577236
152,23,Ticks_Phase_5,275,1,48,27,247940052
152,23,Ticks_Phase_5,276,5,42,127,248076684
152,23,Ticks_Phase_5,277,1,48,19,248465524
152,23,Ticks_Phase_5,278,5,42,127,248577252
152,23,Ticks_Phase_5,279,1,48,30,248984096
152,23,Ticks_Phase_5,280,5,42,127,249077136
152,23,Ticks_Phase_5,281,5,42,127,249576812
152,23,Ticks_Phase_5,282,1,48,23,249585016
152,23,Ticks_Phase_5,283,5,42,127,250076408
152,23,Ticks_Phase_5,284,1,48,18,250126652
152,23,Ticks_Phase_5,285,5,42,127,250577200
152,23,Ticks_Phase_5,286,1,48,21,250637384
152,23,Ticks_Phase_5,287,5,42,127,251076944
152,23,Ticks_Phase_5,288,1,48,27,251113844
152,23,Ticks_Phase_5,289,5,42,127,251477404
152,23,Ticks_Phase_5,290,1,48,28,251596700
152,23,Ticks_Phase_5,291,5,42,127,251977148
152,23,Ticks_Phase_5,292,1,48,16,252160912
152,23,Ticks_Phase_5,293,5,42,127,252476896
152,23,Ticks_Phase_5,294,1,48,19,252692728
152,23,Ticks_Phase_5,295,5,42,127,252976420
152,23,Ticks_Phase_5,296,1,48,16,253181532
152,23,Ticks_Phase_5,297,5,42,127,253477208
152,23,Ticks_Phase_5,298,1,48,20,253691744
152,23,Ticks_Phase_5,299,5,42,127,253977028
152,23,Ticks_Phase_5,300,1,48,20,254227104
152,23,Ticks_Phase_5,301,5,42,127,254476772
152,23,Ticks_Phase_5,302,1,48,22,254769912
152,23,Ticks_Phase_5,303,5,42,127,254977344
152,23,Ticks_Phase_5,304,1,48,20,255455216
152,23,Ticks_Phase_5,305,5,42,127,255477076
152,23,Ticks_Phase_5,306,5,42,127,255976752
152,23,Ticks_Phase_5,307,1,48,21,256133520
152,23,Ticks_Phase_5,308,5,42,127,256476572
152,23,Ticks_Phase_5,309,1,48,21,256549316
152,23,Ticks_Phase_5,310,5,42,127,256977212
152,23,Ticks_Phase_5,311,1,48,22,257442252
152,23,Ticks_Phase_5,312,5,42,127,257476896
152,23,Ticks_Phase_5,313,1,48,22,257908808
152,23,Ticks_Phase_5,314,5,42,127,257976716
152,23,Ticks_Phase_5,315,1,48,20,258386200
152,23,Ticks_Phase_5,316,5,42,127,258477360
152,23,Ticks_Phase_5,317,1,48,16,258901264
152,23,Ticks_Phase_5,318,5,42,127,258987572
152,23,Ticks_Phase_5,319,5,42,127,259487024
152,23,Ticks_Phase_5,320,1,48,27,259855776
152,23,Ticks_Phase_5,321,5,42,127,259986696
152,23,Ticks_Phase_5,322,1,48,23,260351180
152,23,Ticks_Phase_5,323,5,42,127,260486440
152,23,Ticks_Phase_5,324,1,48,25,260846268
152,23,Ticks_Phase_5,325,5,42,127,260987380
152,23,Ticks_Phase_5,0,9999,9999,9999,176465008
152,23,Ticks_Phase_5,1,9999,9999,9999,176964700
152,23,Ticks_Phase_5,2,9999,9999,9999,177464392
152,23,Ticks_Phase_5,3,9999,9999,9999,177964160
152,23,Ticks_Phase_5,4,9999,9999,9999,178464892
152,23,Ticks_Phase_5,5,9999,9999,9999,178964560
152,23,Ticks_Phase_5,6,9999,9999,9999,179464308
152,23,Ticks_Phase_5,7,9999,9999,9999,179964996
152,23,Ticks_Phase_5,8,9999,9999,9999,180464744
152,23,Ticks_Phase_5,9,9999,9999,9999,180964412
152,23,Ticks_Phase_5,10,9999,9999,9999,181464156
152,23,Ticks_Phase_5,11,9999,9999,9999,181964876
152,23,Ticks_Phase_5,12,9999,9999,9999,182464620
152,23,Ticks_Phase_5,13,9999,9999,9999,182964292
152,23,Ticks_Phase_5,14,9999,9999,9999,183465084
152,23,Ticks_Phase_5,15,9999,9999,9999,183964752
152,23,Ticks_Phase_5,16,9999,9999,9999,184464504
152,23,Ticks_Phase_5,17,9999,9999,9999,184964176
152,23,Ticks_Phase_5,18,9999,9999,9999,185464884
152,23,Ticks_Phase_5,19,9999,9999,9999,185964636
152,23,Ticks_Phase_5,20,9999,9999,9999,186464380
152,23,Ticks_Phase_5,21,9999,9999,9999,186965092
152,23,Ticks_Phase_5,22,9999,9999,9999,187464772
152,23,Ticks_Phase_5,23,9999,9999,9999,187964536
152,23,Ticks_Phase_5,24,9999,9999,9999,188464208
152,23,Ticks_Phase_5,25,9999,9999,9999,188964992
152,23,Ticks_Phase_5,26,9999,9999,9999,189464664
152,23,Ticks_Phase_5,27,9999,9999,9999,189964408
152,23,Ticks_Phase_5,28,9999,9999,9999,190464112
152,23,Ticks_Phase_5,29,9999,9999,9999,190964828
152,23,Ticks_Phase_5,30,9999,9999,9999,191454272
152,23,Ticks_Phase_5,31,9999,9999,9999,191955064
152,23,Ticks_Phase_5,32,9999,9999,9999,192454736
152,23,Ticks_Phase_5,33,9999,9999,9999,192954480
152,23,Ticks_Phase_5,34,9999,9999,9999,193454148
152,23,Ticks_Phase_5,35,9999,9999,9999,193954940
152,23,Ticks_Phase_5,36,9999,9999,9999,194454612
152,23,Ticks_Phase_5,37,9999,9999,9999,194954356
152,23,Ticks_Phase_5,38,9999,9999,9999,195455072
152,23,Ticks_Phase_5,39,9999,9999,9999,195954744
152,23,Ticks_Phase_5,40,9999,9999,9999,196454488
152,23,Ticks_Phase_5,41,9999,9999,9999,196954236
152,23,Ticks_Phase_5,42,9999,9999,9999,197454948
152,23,Ticks_Phase_5,43,9999,9999,9999,197954620
152,23,Ticks_Phase_5,44,9999,9999,9999,198454372
152,23,Ticks_Phase_5,45,9999,9999,9999,198955084
152,23,Ticks_Phase_5,46,9999,9999,9999,199465076
152,23,Ticks_Phase_5,47,9999,9999,9999,199964760
152,23,Ticks_Phase_5,48,9999,9999,9999,200474748
152,23,Ticks_Phase_5,49,9999,9999,9999,200974420
152,23,Ticks_Phase_5,50,9999,9999,9999,201474140
152,23,Ticks_Phase_5,51,9999,9999,9999,201974856
152,23,Ticks_Phase_5,52,9999,9999,9999,202474584
152,23,Ticks_Phase_5,53,9999,9999,9999,202974332
152,23,Ticks_Phase_5,54,9999,9999,9999,203475064
152,23,Ticks_Phase_5,55,9999,9999,9999,203974732
152,23,Ticks_Phase_5,56,9999,9999,9999,204474476
152,23,Ticks_Phase_5,57,9999,9999,9999,204974156
152,23,Ticks_Phase_5,58,9999,9999,9999,205474868
152,23,Ticks_Phase_5,59,9999,9999,9999,205974616
152,23,Ticks_Phase_5,60,9999,9999,9999,206474360
152,23,Ticks_Phase_5,61,9999,9999,9999,206975076
152,23,Ticks_Phase_5,62,9999,9999,9999,207474812
152,23,Ticks_Phase_5,63,9999,9999,9999,207974484
152,23,Ticks_Phase_5,64,9999,9999,9999,208494712
152,23,Ticks_Phase_5,65,9999,9999,9999,208994384
152,23,Ticks_Phase_5,66,9999,9999,9999,209494136
152,23,Ticks_Phase_5,67,9999,9999,9999,209994852
152,23,Ticks_Phase_5,68,9999,9999,9999,210494588
152,23,Ticks_Phase_5,69,9999,9999,9999,210994260
152,23,Ticks_Phase_5,70,9999,9999,9999,211494980
152,23,Ticks_Phase_5,71,9999,9999,9999,211994724
152,23,Ticks_Phase_5,72,9999,9999,9999,212494392
152,23,Ticks_Phase_5,73,9999,9999,9999,212994124
152,23,Ticks_Phase_5,74,9999,9999,9999,213494888
152,23,Ticks_Phase_5,75,9999,9999,9999,213994576
152,23,Ticks_Phase_5,76,9999,9999,9999,214494320
152,23,Ticks_Phase_5,77,9999,9999,9999,214995040
152,23,Ticks_Phase_5,78,9999,9999,9999,215494708
152,23,Ticks_Phase_5,79,9999,9999,9999,215994456
152,23,Ticks_Phase_5,80,9999,9999,9999,216494200
152,23,Ticks_Phase_5,81,9999,9999,9999,216974440
152,23,Ticks_Phase_5,82,9999,9999,9999,217474112
152,23,Ticks_Phase_5,83,9999,9999,9999,217974896
152,23,Ticks_Phase_5,84,9999,9999,9999,218474568
152,23,Ticks_Phase_5,85,9999,9999,9999,218974316
152,23,Ticks_Phase_5,86,9999,9999,9999,219475032
152,23,Ticks_Phase_5,87,9999,9999,9999,219974776
152,23,Ticks_Phase_5,88,9999,9999,9999,220474444
152,23,Ticks_Phase_5,89,9999,9999,9999,220974176
152,23,Ticks_Phase_5,90,9999,9999,9999,221474908
152,23,Ticks_Phase_5,91,9999,9999,9999,221974652
152,23,Ticks_Phase_5,92,9999,9999,9999,222474320
152,23,Ticks_Phase_5,93,9999,9999,9999,222975092
152,23,Ticks_Phase_5,94,9999,9999,9999,223474764
152,23,Ticks_Phase_5,95,9999,9999,9999,223974508
152,23,Ticks_Phase_5,96,9999,9999,9999,224474172
152,23,Ticks_Phase_5,97,9999,9999,9999,224924796
152,23,Ticks_Phase_5,98,9999,9999,9999,225424472
152,23,Ticks_Phase_5,99,9999,9999,9999,225924216
152,23,Ticks_Phase_5,100,9999,9999,9999,226424916
152,23,Ticks_Phase_5,101,9999,9999,9999,226924608
152,23,Ticks_Phase_5,102,9999,9999,9999,227424368
152,23,Ticks_Phase_5,103,9999,9999,9999,227925088
152,23,Ticks_Phase_5,104,9999,9999,9999,228424816
152,23,Ticks_Phase_5,105,9999,9999,9999,228924500
152,23,Ticks_Phase_5,106,9999,9999,9999,229424232
152,23,Ticks_Phase_5,107,9999,9999,9999,229924948
152,23,Ticks_Phase_5,108,9999,9999,9999,230424688
152,23,Ticks_Phase_5,109,9999,9999,9999,230924376
152,23,Ticks_Phase_5,110,9999,9999,9999,231424124
152,23,Ticks_Phase_5,111,9999,9999,9999,231924812
152,23,Ticks_Phase_5,112,9999,9999,9999,232424584
152,23,Ticks_Phase_5,113,9999,9999,9999,232924236
152,23,Ticks_Phase_5,114,9999,9999,9999,233474164
152,23,Ticks_Phase_5,115,9999,9999,9999,233974856
152,23,Ticks_Phase_5,116,9999,9999,9999,234474608
152,23,Ticks_Phase_5,117,9999,9999,9999,234974272
152,23,Ticks_Phase_5,118,9999,9999,9999,235475068
152,23,Ticks_Phase_5,119,9999,9999,9999,235974732
152,23,Ticks_Phase_5,120,9999,9999,9999,236474484
152,23,Ticks_Phase_5,121,9999,9999,9999,236974156
152,23,Ticks_Phase_5,122,9999,9999,9999,237474872
152,23,Ticks_Phase_5,123,9999,9999,9999,237974632
152,23,Ticks_Phase_5,124,9999,9999,9999,238474304
152,23,Ticks_Phase_5,125,9999,9999,9999,238975100
152,23,Ticks_Phase_5,126,9999,9999,9999,239474788
152,23,Ticks_Phase_5,127,9999,9999,9999,239974516
152,23,Ticks_Phase_5,128,9999,9999,9999,240474208
152,23,Ticks_Phase_5,129,9999,9999,9999,240974924
152,23,Ticks_Phase_5,130,9999,9999,9999,241474672
152,23,Ticks_Phase_5,131,9999,9999,9999,242074744
152,23,Ticks_Phase_5,132,9999,9999,9999,242574416
152,23,Ticks_Phase_5,133,9999,9999,9999,243074164
152,23,Ticks_Phase_5,134,9999,9999,9999,243574880
152,23,Ticks_Phase_5,135,9999,9999,9999,244074548
152,23,Ticks_Phase_5,136,9999,9999,9999,244574316
152,23,Ticks_Phase_5,137,9999,9999,9999,245075032
152,23,Ticks_Phase_5,138,9999,9999,9999,245574776
152,23,Ticks_Phase_5,139,9999,9999,9999,246074448
152,23,Ticks_Phase_5,140,9999,9999,9999,246574196
152,23,Ticks_Phase_5,141,9999,9999,9999,247074908
152,23,Ticks_Phase_5,142,9999,9999,9999,247574656
152,23,Ticks_Phase_5,143,9999,9999,9999,248074324
152,23,Ticks_Phase_5,144,9999,9999,9999,248575040
152,23,Ticks_Phase_5,145,9999,9999,9999,249074776
152,23,Ticks_Phase_5,146,9999,9999,9999,249574452
152,23,Ticks_Phase_5,147,9999,9999,9999,250074200
152,23,Ticks_Phase_5,148,9999,9999,9999,250574916
152,23,Ticks_Phase_5,149,9999,9999,9999,251074660
152,23,Ticks_Phase_5,150,9999,9999,9999,251475048
152,23,Ticks_Phase_5,151,9999,9999,9999,251974716
152,23,Ticks_Phase_5,152,9999,9999,9999,252474464
152,23,Ticks_Phase_5,153,9999,9999,9999,252974136
152,23,Ticks_Phase_5,154,9999,9999,9999,253474924
152,23,Ticks_Phase_5,155,9999,9999,9999,253974596
152,23,Ticks_Phase_5,156,9999,9999,9999,254474340
152,23,Ticks_Phase_5,157,9999,9999,9999,254975056
152,23,Ticks_Phase_5,158,9999,9999,9999,255474792
152,23,Ticks_Phase_5,159,9999,9999,9999,255974468
152,23,Ticks_Phase_5,160,9999,9999,9999,256474212
152,23,Ticks_Phase_5,161,9999,9999,9999,256974928
152,23,Ticks_Phase_5,162,9999,9999,9999,257474616
152,23,Ticks_Phase_5,163,9999,9999,9999,257974360
152,23,Ticks_Phase_5,164,9999,9999,9999,258475076
152,23,Ticks_Phase_5,165,9999,9999,9999,258985064
152,23,Ticks_Phase_5,166,9999,9999,9999,259484740
152,23,Ticks_Phase_5,167,9999,9999,9999,259984484
152,23,Ticks_Phase_5,168,9999,9999,9999,260484156
152,23,Ticks_Phase_5,169,9999,9999,9999,260984948
153,24,Jits_Pract_8,0,5,56,103,329196020
153,24,Jits_Pract_8,1,5,63,98,329199116
153,24,Jits_Pract_8,2,5,80,127,329202084
153,24,Jits_Pract_8,0,5,56,103,329995716
153,24,Jits_Pract_8,1,5,63,98,329998884
153,24,Jits_Pract_8,2,5,80,127,330002000
153,24,Jits_Pract_8,0,5,80,127,330735912
153,24,Jits_Pract_8,1,5,63,98,330826144
153,24,Jits_Pract_8,2,5,56,103,330836324
153,24,Jits_Pract_8,0,5,56,103,331556196
153,24,Jits_Pract_8,1,5,63,98,331565552
153,24,Jits_Pract_8,2,5,80,127,331655680
153,24,Jits_Pract_8,0,5,63,98,332326192
153,24,Jits_Pract_8,1,5,80,127,332356040
153,24,Jits_Pract_8,2,5,56,103,332385888
153,24,Jits_Pract_8,0,5,56,103,333125932
153,24,Jits_Pract_8,1,5,80,127,333226460
153,24,Jits_Pract_8,2,5,63,98,333275756
153,24,Jits_Pract_8,0,5,56,103,333925700
153,24,Jits_Pract_8,1,5,80,127,333975968
153,24,Jits_Pract_8,2,5,63,98,334015836
153,24,Jits_Pract_8,0,5,80,127,334756344
153,24,Jits_Pract_8,1,5,63,98,334785900
153,24,Jits_Pract_8,2,5,56,103,334855708
153,24,Jits_Pract_8,0,5,63,98,335585580
153,24,Jits_Pract_8,1,5,56,103,335616720
153,24,Jits_Pract_8,2,5,80,127,335675740
153,24,Jits_Pract_8,0,5,56,103,336326088
153,24,Jits_Pract_8,1,5,80,127,336328928
153,24,Jits_Pract_8,2,5,63,98,336445784
153,24,Jits_Pract_8,0,5,56,103,337205668
153,24,Jits_Pract_8,1,5,80,127,337245616
153,24,Jits_Pract_8,2,5,63,98,337255720
153,24,Jits_Pract_8,0,5,56,103,337965420
153,24,Jits_Pract_8,1,5,80,127,337985848
153,24,Jits_Pract_8,2,5,63,98,338065728
153,24,Jits_Pract_8,0,5,80,127,338756128
153,24,Jits_Pract_8,1,5,56,103,338856360
153,24,Jits_Pract_8,2,5,63,98,338865420
153,24,Jits_Pract_8,0,5,63,98,339525976
153,24,Jits_Pract_8,1,5,80,127,339586416
153,24,Jits_Pract_8,2,5,56,103,339595624
153,24,Jits_Pract_8,0,1,48,26,340197684
153,24,Jits_Pract_8,1,5,56,103,340325696
153,24,Jits_Pract_8,2,5,63,98,340396456
153,24,Jits_Pract_8,3,5,80,127,340399740
153,24,Jits_Pract_8,0,9999,9999,9999,329593908
153,24,Jits_Pract_8,1,9999,9999,9999,330393724
153,24,Jits_Pract_8,2,9999,9999,9999,331193412
153,24,Jits_Pract_8,3,9999,9999,9999,331993180
153,24,Jits_Pract_8,4,9999,9999,9999,332793932
153,24,Jits_Pract_8,5,9999,9999,9999,333593684
153,24,Jits_Pract_8,6,9999,9999,9999,334393440
153,24,Jits_Pract_8,7,9999,9999,9999,335193204
153,24,Jits_Pract_8,8,9999,9999,9999,335993940
153,24,Jits_Pract_8,9,9999,9999,9999,336793672
153,24,Jits_Pract_8,10,9999,9999,9999,337593440
153,24,Jits_Pract_8,11,9999,9999,9999,338393200
153,24,Jits_Pract_8,12,9999,9999,9999,339193964
153,24,Jits_Pract_8,13,9999,9999,9999,339993720
153,24,Jits_Pract_8,14,9999,9999,9999,340793432
154,25,Jits_Pract_5,0,5,56,103,348029336
154,25,Jits_Pract_5,1,5,63,98,348032276
154,25,Jits_Pract_5,2,5,80,127,348035396
154,25,Jits_Pract_5,0,5,56,103,348528916
154,25,Jits_Pract_5,1,5,63,98,348531936
154,25,Jits_Pract_5,2,5,80,127,348535056
154,25,Jits_Pract_5,0,5,56,103,349028748
154,25,Jits_Pract_5,1,5,80,127,349038928
154,25,Jits_Pract_5,2,5,63,98,349058528
154,25,Jits_Pract_5,0,5,63,98,349479360
154,25,Jits_Pract_5,1,5,80,127,349508912
154,25,Jits_Pract_5,2,5,56,103,349519388
154,25,Jits_Pract_5,0,5,80,127,350039304
154,25,Jits_Pract_5,1,5,56,103,350048812
154,25,Jits_Pract_5,2,5,63,98,350079332
154,25,Jits_Pract_5,0,5,63,98,350528816
154,25,Jits_Pract_5,1,5,56,103,350558888
154,25,Jits_Pract_5,2,5,80,127,350568772
154,25,Jits_Pract_5,0,5,56,103,350978448
154,25,Jits_Pract_5,1,5,63,98,351028640
154,25,Jits_Pract_5,2,5,80,127,351049212
154,25,Jits_Pract_5,0,5,80,127,351479092
154,25,Jits_Pract_5,1,5,63,98,351529584
154,25,Jits_Pract_5,2,5,56,103,351569156
154,25,Jits_Pract_5,0,5,56,103,351978820
154,25,Jits_Pract_5,1,5,63,98,352008548
154,25,Jits_Pract_5,2,5,80,127,352079080
154,25,Jits_Pract_5,0,5,56,103,352478500
154,25,Jits_Pract_5,1,5,80,127,352538892
154,25,Jits_Pract_5,2,5,63,98,352568664
154,25,Jits_Pract_5,0,5,56,103,352988724
154,25,Jits_Pract_5,1,5,63,98,352998756
154,25,Jits_Pract_5,2,5,80,127,353038652
154,25,Jits_Pract_5,0,5,63,98,353479048
154,25,Jits_Pract_5,1,5,80,127,353559036
154,25,Jits_Pract_5,2,5,56,103,353569064
154,25,Jits_Pract_5,0,5,63,98,354028896
154,25,Jits_Pract_5,1,5,56,103,354068712
154,25,Jits_Pract_5,2,5,80,127,354072076
154,25,Jits_Pract_5,0,5,56,103,354488688
154,25,Jits_Pract_5,1,5,63,98,354499016
154,25,Jits_Pract_5,2,5,80,127,354538964
154,25,Jits_Pract_5,0,5,56,103,354979460
154,25,Jits_Pract_5,1,5,63,98,354982520
154,25,Jits_Pract_5,2,5,80,127,354998616
154,25,Jits_Pract_5,0,9999,9999,9999,348276804
154,25,Jits_Pract_5,1,9999,9999,9999,348776540
154,25,Jits_Pract_5,2,9999,9999,9999,349276220
154,25,Jits_Pract_5,3,9999,9999,9999,349777012
154,25,Jits_Pract_5,4,9999,9999,9999,350276680
154,25,Jits_Pract_5,5,9999,9999,9999,350776440
154,25,Jits_Pract_5,6,9999,9999,9999,351276104
154,25,Jits_Pract_5,7,9999,9999,9999,351776824
154,25,Jits_Pract_5,8,9999,9999,9999,352276576
154,25,Jits_Pract_5,9,9999,9999,9999,352776260
154,25,Jits_Pract_5,10,9999,9999,9999,353276980
154,25,Jits_Pract_5,11,9999,9999,9999,353776708
154,25,Jits_Pract_5,12,9999,9999,9999,354276436
154,25,Jits_Pract_5,13,9999,9999,9999,354776172
154,25,Jits_Pract_5,14,9999,9999,9999,355276880
155,18,Jits_Linear_8,0,5,56,103,393542180
155,18,Jits_Linear_8,1,5,63,98,393545276
155,18,Jits_Linear_8,2,5,80,127,393548540
155,18,Jits_Linear_8,0,5,56,103,394362492
155,18,Jits_Linear_8,1,5,63,98,394365588
155,18,Jits_Linear_8,2,5,80,127,394368628
155,18,Jits_Linear_8,0,5,80,127,395122232
155,18,Jits_Linear_8,1,1,48,41,395184884
155,18,Jits_Linear_8,2,5,63,98,395212140
155,18,Jits_Linear_8,3,5,56,103,395222320
155,18,Jits_Linear_8,0,5,56,103,395961692
155,18,Jits_Linear_8,1,1,48,41,395969432
155,18,Jits_Linear_8,2,5,63,98,395972016
155,18,Jits_Linear_8,3,1,48,21,396051208
155,18,Jits_Linear_8,4,5,80,127,396062148
155,18,Jits_Linear_8,0,5,63,98,396752352
155,18,Jits_Linear_8,1,1,48,44,396772900
155,18,Jits_Linear_8,2,5,80,127,396781824
155,18,Jits_Linear_8,3,5,56,103,396811624
155,18,Jits_Linear_8,0,5,56,103,397571396
155,18,Jits_Linear_8,1,1,48,38,397600764
155,18,Jits_Linear_8,2,5,80,127,397671768
155,18,Jits_Linear_8,3,5,63,98,397721944
155,18,Jits_Linear_8,0,5,56,103,398381376
155,18,Jits_Linear_8,1,5,80,127,398431572
155,18,Jits_Linear_8,2,1,48,41,398434160
155,18,Jits_Linear_8,3,5,63,98,398471512
155,18,Jits_Linear_8,0,1,48,43,399111372
155,18,Jits_Linear_8,1,5,80,127,399222304
155,18,Jits_Linear_8,2,5,63,98,399251780
155,18,Jits_Linear_8,3,5,56,103,399321644
155,18,Jits_Linear_8,0,1,48,34,399965016
155,18,Jits_Linear_8,1,5,63,98,400061748
155,18,Jits_Linear_8,2,5,56,103,400091448
155,18,Jits_Linear_8,3,5,80,127,400152060
155,18,Jits_Linear_8,0,1,48,32,400773124
155,18,Jits_Linear_8,1,5,56,103,400812416
155,18,Jits_Linear_8,2,5,80,127,400815628
155,18,Jits_Linear_8,3,5,63,98,400932176
155,18,Jits_Linear_8,0,1,48,30,401586292
155,18,Jits_Linear_8,1,5,56,103,401702340
155,18,Jits_Linear_8,2,5,80,127,401742216
155,18,Jits_Linear_8,3,5,63,98,401752396
155,18,Jits_Linear_8,0,5,56,103,402462000
155,18,Jits_Linear_8,1,5,80,127,402481456
155,18,Jits_Linear_8,2,1,48,29,402497204
155,18,Jits_Linear_8,3,5,63,98,402562304
155,18,Jits_Linear_8,0,5,80,127,403251640
155,18,Jits_Linear_8,1,1,48,39,403310556
155,18,Jits_Linear_8,2,5,56,103,403352016
155,18,Jits_Linear_8,3,5,63,98,403362120
155,18,Jits_Linear_8,0,5,63,98,404021680
155,18,Jits_Linear_8,1,5,80,127,404081972
155,18,Jits_Linear_8,2,5,56,103,404092224
155,18,Jits_Linear_8,3,1,48,31,404100056
155,18,Jits_Linear_8,0,5,56,103,404822292
155,18,Jits_Linear_8,1,1,48,30,404849184
155,18,Jits_Linear_8,2,5,63,98,404892072
155,18,Jits_Linear_8,3,5,80,127,404895360
155,18,Jits_Linear_8,0,5,63,98,405652008
155,18,Jits_Linear_8,1,1,48,30,405661788
155,18,Jits_Linear_8,2,5,56,103,405702120
155,18,Jits_Linear_8,3,5,80,127,405705184
155,18,Jits_Linear_8,0,5,56,103,406402272
155,18,Jits_Linear_8,1,5,80,127,406405340
155,18,Jits_Linear_8,2,1,48,28,406440328
155,18,Jits_Linear_8,3,5,63,98,406491432
155,18,Jits_Linear_8,0,5,63,98,407231844
155,18,Jits_Linear_8,1,1,48,31,407241620
155,18,Jits_Linear_8,2,5,56,103,407322000
155,18,Jits_Linear_8,3,5,80,127,407351832
155,18,Jits_Linear_8,0,5,56,103,408022668
155,18,Jits_Linear_8,1,1,48,31,408056768
155,18,Jits_Linear_8,2,5,63,98,408121652
155,18,Jits_Linear_8,3,5,80,127,408152456
155,18,Jits_Linear_8,0,5,63,98,408832456
155,18,Jits_Linear_8,1,5,56,103,408841740
155,18,Jits_Linear_8,2,5,80,127,408931872
155,18,Jits_Linear_8,3,1,48,24,408939856
155,18,Jits_Linear_8,0,5,63,98,409632180
155,18,Jits_Linear_8,1,1,48,28,409677772
155,18,Jits_Linear_8,2,5,56,103,409711832
155,18,Jits_Linear_8,3,5,80,127,409714900
155,18,Jits_Linear_8,0,5,80,127,410371388
155,18,Jits_Linear_8,1,5,63,98,410391960
155,18,Jits_Linear_8,2,1,48,21,410436356
155,18,Jits_Linear_8,3,5,56,103,410452468
155,18,Jits_Linear_8,0,1,48,22,411148784
155,18,Jits_Linear_8,1,5,56,103,411191756
155,18,Jits_Linear_8,2,5,63,98,411212104
155,18,Jits_Linear_8,3,5,80,127,411215688
155,18,Jits_Linear_8,0,5,63,98,411911516
155,18,Jits_Linear_8,1,1,48,32,411914484
155,18,Jits_Linear_8,2,5,80,127,411992444
155,18,Jits_Linear_8,3,5,56,103,412001800
155,18,Jits_Linear_8,0,1,48,22,412698552
155,18,Jits_Linear_8,1,5,63,98,412712500
155,18,Jits_Linear_8,2,5,56,103,412731732
155,18,Jits_Linear_8,3,5,80,127,412781924
155,18,Jits_Linear_8,0,1,48,32,413452056
155,18,Jits_Linear_8,1,5,80,127,413491652
155,18,Jits_Linear_8,2,5,63,98,413531600
155,18,Jits_Linear_8,3,5,56,103,413552012
155,18,Jits_Linear_8,0,1,48,25,414203088
155,18,Jits_Linear_8,1,5,56,103,414301608
155,18,Jits_Linear_8,2,5,63,98,414311864
155,18,Jits_Linear_8,3,5,80,127,414332508
155,18,Jits_Linear_8,0,1,48,31,414943396
155,18,Jits_Linear_8,1,5,56,103,415002012
155,18,Jits_Linear_8,2,5,63,98,415092280
155,18,Jits_Linear_8,3,5,80,127,415151524
155,18,Jits_Linear_8,0,1,48,26,415725984
155,18,Jits_Linear_8,1,5,80,127,415801736
155,18,Jits_Linear_8,2,5,56,103,415811840
155,18,Jits_Linear_8,3,5,63,98,415881688
155,18,Jits_Linear_8,0,1,48,31,416517576
155,18,Jits_Linear_8,1,5,63,98,416601312
155,18,Jits_Linear_8,2,5,80,127,416691504
155,18,Jits_Linear_8,3,5,56,103,416701980
155,18,Jits_Linear_8,0,5,63,98,417301856
155,18,Jits_Linear_8,1,1,48,22,417321132
155,18,Jits_Linear_8,2,5,80,127,417352116
155,18,Jits_Linear_8,3,5,56,103,417411436
155,18,Jits_Linear_8,0,1,48,34,418087028
155,18,Jits_Linear_8,1,5,56,103,418092292
155,18,Jits_Linear_8,2,5,80,127,418141588
155,18,Jits_Linear_8,3,5,63,98,418162312
155,18,Jits_Linear_8,0,5,56,103,418821412
155,18,Jits_Linear_8,1,5,80,127,418881780
155,18,Jits_Linear_8,2,1,48,25,418893492
155,18,Jits_Linear_8,3,5,63,98,418951636
155,18,Jits_Linear_8,0,5,56,103,419582252
155,18,Jits_Linear_8,1,5,80,127,419612176
155,18,Jits_Linear_8,2,5,63,98,419641728
155,18,Jits_Linear_8,3,1,48,37,419655308
155,18,Jits_Linear_8,0,1,48,37,420333300
155,18,Jits_Linear_8,1,5,56,103,420382268
155,18,Jits_Linear_8,2,5,80,127,420401652
155,18,Jits_Linear_8,3,5,63,98,420462076
155,18,Jits_Linear_8,0,1,48,36,421097112
155,18,Jits_Linear_8,1,5,80,127,421221696
155,18,Jits_Linear_8,2,5,56,103,421231952
155,18,Jits_Linear_8,3,5,63,98,421242128
155,18,Jits_Linear_8,0,1,48,36,421881768
155,18,Jits_Linear_8,1,5,56,103,421932284
155,18,Jits_Linear_8,2,5,80,127,421972304
155,18,Jits_Linear_8,3,5,63,98,422002064
155,18,Jits_Linear_8,0,5,56,103,422652208
155,18,Jits_Linear_8,1,1,48,36,422653912
155,18,Jits_Linear_8,2,5,63,98,422682052
155,18,Jits_Linear_8,3,5,80,127,422722000
155,18,Jits_Linear_8,0,5,80,127,423351544
155,18,Jits_Linear_8,1,1,48,41,423401364
155,18,Jits_Linear_8,2,5,63,98,423403000
155,18,Jits_Linear_8,3,5,56,103,423422404
155,18,Jits_Linear_8,0,5,56,103,424132052
155,18,Jits_Linear_8,1,1,48,30,424183812
155,18,Jits_Linear_8,2,5,80,127,424201492
155,18,Jits_Linear_8,3,5,63,98,424262076
155,18,Jits_Linear_8,0,5,80,127,424872328
155,18,Jits_Linear_8,1,5,63,98,424962268
155,18,Jits_Linear_8,2,1,48,32,424981044
155,18,Jits_Linear_8,3,5,56,103,424982908
155,18,Jits_Linear_8,0,5,63,98,425632056
155,18,Jits_Linear_8,1,5,56,103,425651436
155,18,Jits_Linear_8,2,5,80,127,425691456
155,18,Jits_Linear_8,3,1,48,36,425740072
155,18,Jits_Linear_8,0,5,80,127,426331548
155,18,Jits_Linear_8,1,5,63,98,426352120
155,18,Jits_Linear_8,2,5,56,103,426431784
155,18,Jits_Linear_8,3,1,48,24,426447456
155,18,Jits_Linear_8,0,5,63,98,427061792
155,18,Jits_Linear_8,1,1,48,31,427098708
155,18,Jits_Linear_8,2,5,56,103,427172188
155,18,Jits_Linear_8,3,5,80,127,427175248
155,18,Jits_Linear_8,0,5,63,98,427821488
155,18,Jits_Linear_8,1,5,56,103,427831812
155,18,Jits_Linear_8,2,5,80,127,427834728
155,18,Jits_Linear_8,3,1,48,24,427854152
155,18,Jits_Linear_8,0,1,48,26,428499280
155,18,Jits_Linear_8,1,5,56,103,428542424
155,18,Jits_Linear_8,2,5,80,127,428662164
155,18,Jits_Linear_8,3,5,63,98,428702036
155,18,Jits_Linear_8,0,1,48,29,429270300
155,18,Jits_Linear_8,1,5,56,103,429291788
155,18,Jits_Linear_8,2,5,80,127,429371684
155,18,Jits_Linear_8,3,5,63,98,429392112
155,18,Jits_Linear_8,0,5,56,103,430022032
155,18,Jits_Linear_8,1,1,48,43,430027756
155,18,Jits_Linear_8,2,5,63,98,430131840
155,18,Jits_Linear_8,3,5,80,127,430135124
155,18,Jits_Linear_8,0,1,48,36,430729368
155,18,Jits_Linear_8,1,5,56,103,430781744
155,18,Jits_Linear_8,2,5,80,127,430811740
155,18,Jits_Linear_8,3,5,63,98,430831880
155,18,Jits_Linear_8,0,1,48,36,431480024
155,18,Jits_Linear_8,1,5,63,98,431491488
155,18,Jits_Linear_8,2,5,56,103,431501816
155,18,Jits_Linear_8,3,5,80,127,431511992
155,18,Jits_Linear_8,0,1,48,39,432194384
155,18,Jits_Linear_8,1,5,80,127,432201972
155,18,Jits_Linear_8,2,5,56,103,432252240
155,18,Jits_Linear_8,3,5,63,98,432292096
155,18,Jits_Linear_8,0,1,48,37,432893352
155,18,Jits_Linear_8,1,5,80,127,432941624
155,18,Jits_Linear_8,2,5,63,98,432961976
155,18,Jits_Linear_8,3,5,56,103,433012152
155,18,Jits_Linear_8,0,5,80,127,433671568
155,18,Jits_Linear_8,1,1,48,35,433686420
155,18,Jits_Linear_8,2,5,56,103,433702532
155,18,Jits_Linear_8,3,5,63,98,433771948
155,18,Jits_Linear_8,0,1,48,27,434361528
155,18,Jits_Linear_8,1,5,56,103,434441536
155,18,Jits_Linear_8,2,5,80,127,434451788
155,18,Jits_Linear_8,3,5,63,98,434491644
155,18,Jits_Linear_8,0,5,56,103,435072500
155,18,Jits_Linear_8,1,5,63,98,435091808
155,18,Jits_Linear_8,2,1,48,29,435131200
155,18,Jits_Linear_8,3,5,80,127,435161588
155,18,Jits_Linear_8,0,5,63,98,435811652
155,18,Jits_Linear_8,1,5,80,127,435872168
155,18,Jits_Linear_8,2,1,48,26,435888740
155,18,Jits_Linear_8,3,5,56,103,435891616
155,18,Jits_Linear_8,0,5,80,127,436512052
155,18,Jits_Linear_8,1,5,56,103,436541752
155,18,Jits_Linear_8,2,5,63,98,436571380
155,18,Jits_Linear_8,3,1,48,28,436592440
155,18,Jits_Linear_8,0,5,56,103,437221776
155,18,Jits_Linear_8,1,1,48,30,437271440
155,18,Jits_Linear_8,2,5,63,98,437282236
155,18,Jits_Linear_8,3,5,80,127,437341480
155,18,Jits_Linear_8,0,5,80,127,437951956
155,18,Jits_Linear_8,1,1,48,28,437964720
155,18,Jits_Linear_8,2,5,56,103,437972304
155,18,Jits_Linear_8,3,5,63,98,438042116
155,18,Jits_Linear_8,0,5,80,127,438661572
155,18,Jits_Linear_8,1,5,63,98,438682072
155,18,Jits_Linear_8,2,1,48,38,438693488
155,18,Jits_Linear_8,3,5,56,103,438711616
155,18,Jits_Linear_8,0,5,80,127,439351584
155,18,Jits_Linear_8,1,5,63,98,439372308
155,18,Jits_Linear_8,2,1,48,26,439427104
155,18,Jits_Linear_8,3,5,56,103,439431396
155,18,Jits_Linear_8,0,5,80,127,440052288
155,18,Jits_Linear_8,1,5,56,103,440152300
155,18,Jits_Linear_8,2,1,48,31,440153264
155,18,Jits_Linear_8,3,5,63,98,440182068
155,18,Jits_Linear_8,0,5,63,98,440742356
155,18,Jits_Linear_8,1,5,80,127,440792476
155,18,Jits_Linear_8,2,5,56,103,440812080
155,18,Jits_Linear_8,3,1,48,40,440898828
155,18,Jits_Linear_8,0,5,80,127,441481720
155,18,Jits_Linear_8,1,5,56,103,441512244
155,18,Jits_Linear_8,2,5,63,98,441515232
155,18,Jits_Linear_8,3,1,48,40,441584788
155,18,Jits_Linear_8,0,5,63,98,442211668
155,18,Jits_Linear_8,1,5,56,103,442251616
155,18,Jits_Linear_8,2,5,80,127,442272192
155,18,Jits_Linear_8,3,1,48,29,442280620
155,18,Jits_Linear_8,0,5,80,127,442851984
155,18,Jits_Linear_8,1,5,63,98,442931528
155,18,Jits_Linear_8,2,5,56,103,442971620
155,18,Jits_Linear_8,3,1,48,24,442993652
155,18,Jits_Linear_8,0,5,63,98,443562348
155,18,Jits_Linear_8,1,5,80,127,443642336
155,18,Jits_Linear_8,2,1,48,24,443645004
155,18,Jits_Linear_8,3,5,56,103,443661784
155,18,Jits_Linear_8,0,5,56,103,444291324
155,18,Jits_Linear_8,1,5,63,98,444301728
155,18,Jits_Linear_8,2,1,48,26,444341452
155,18,Jits_Linear_8,3,5,80,127,444342932
155,18,Jits_Linear_8,0,5,56,103,444901804
155,18,Jits_Linear_8,1,5,80,127,444904792
155,18,Jits_Linear_8,2,1,48,19,445015036
155,18,Jits_Linear_8,3,5,63,98,445042140
155,18,Jits_Linear_8,0,5,56,103,445581636
155,18,Jits_Linear_8,1,5,63,98,445672068
155,18,Jits_Linear_8,2,5,80,127,445741364
155,18,Jits_Linear_8,0,1,48,25,446316596
155,18,Jits_Linear_8,1,5,63,98,446341532
155,18,Jits_Linear_8,2,5,80,127,446344892
155,18,Jits_Linear_8,3,5,56,103,446402048
155,18,Jits_Linear_8,0,1,48,20,447026860
155,18,Jits_Linear_8,1,5,80,127,447062420
155,18,Jits_Linear_8,2,5,56,103,447081804
155,18,Jits_Linear_8,3,5,63,98,447091984
155,18,Jits_Linear_8,0,5,56,103,447661312
155,18,Jits_Linear_8,1,5,63,98,447671788
155,18,Jits_Linear_8,2,1,48,26,447680368
155,18,Jits_Linear_8,3,5,80,127,447742196
155,18,Jits_Linear_8,0,5,80,127,448342496
155,18,Jits_Linear_8,1,1,48,20,448384136
155,18,Jits_Linear_8,2,5,56,103,448391640
155,18,Jits_Linear_8,3,5,63,98,448441756
155,18,Jits_Linear_8,0,1,48,29,449052080
155,18,Jits_Linear_8,1,5,56,103,449102068
155,18,Jits_Linear_8,2,5,63,98,449112400
155,18,Jits_Linear_8,3,5,80,127,449152328
155,18,Jits_Linear_8,0,5,56,103,449721820
155,18,Jits_Linear_8,1,1,48,29,449737800
155,18,Jits_Linear_8,2,5,63,98,449761836
155,18,Jits_Linear_8,3,5,80,127,449811832
155,18,Jits_Linear_8,0,5,80,127,450351704
155,18,Jits_Linear_8,1,5,56,103,450401748
155,18,Jits_Linear_8,2,1,48,30,450419660
155,18,Jits_Linear_8,3,5,63,98,450422092
155,18,Jits_Linear_8,0,5,80,127,451032564
155,18,Jits_Linear_8,1,5,63,98,451091764
155,18,Jits_Linear_8,2,1,48,23,451105640
155,18,Jits_Linear_8,3,5,56,103,451171640
155,18,Jits_Linear_8,0,5,80,127,451681816
155,18,Jits_Linear_8,1,5,56,103,451721840
155,18,Jits_Linear_8,2,5,63,98,451741968
155,18,Jits_Linear_8,3,1,48,26,451787784
155,18,Jits_Linear_8,0,5,56,103,452401592
155,18,Jits_Linear_8,1,1,48,21,452411248
155,18,Jits_Linear_8,2,5,80,127,452412960
155,18,Jits_Linear_8,3,5,63,98,452451712
155,18,Jits_Linear_8,0,1,48,27,453048084
155,18,Jits_Linear_8,1,5,56,103,453131696
155,18,Jits_Linear_8,2,5,63,98,453171628
155,18,Jits_Linear_8,3,5,80,127,453174764
155,18,Jits_Linear_8,0,5,63,98,453681508
155,18,Jits_Linear_8,1,5,80,127,453721456
155,18,Jits_Linear_8,2,1,48,24,453781264
155,18,Jits_Linear_8,3,5,56,103,453791984
155,18,Jits_Linear_8,0,5,63,98,454331836
155,18,Jits_Linear_8,1,1,48,30,454402520
155,18,Jits_Linear_8,2,5,56,103,454411596
155,18,Jits_Linear_8,3,5,80,127,454472032
155,18,Jits_Linear_8,0,5,80,127,455001420
155,18,Jits_Linear_8,1,1,48,30,455021672
155,18,Jits_Linear_8,2,5,63,98,455051608
155,18,Jits_Linear_8,3,5,56,103,455082428
155,18,Jits_Linear_8,0,5,56,103,455651684
155,18,Jits_Linear_8,1,1,48,24,455664848
155,18,Jits_Linear_8,2,5,63,98,455701752
155,18,Jits_Linear_8,3,5,80,127,455712080
155,18,Jits_Linear_8,0,5,56,103,456322324
155,18,Jits_Linear_8,1,1,48,16,456349832
155,18,Jits_Linear_8,2,5,63,98,456432000
155,18,Jits_Linear_8,3,5,80,127,456451512
155,18,Jits_Linear_8,0,5,63,98,456971728
155,18,Jits_Linear_8,1,5,80,127,457021848
155,18,Jits_Linear_8,2,1,48,28,457026528
155,18,Jits_Linear_8,3,5,56,103,457111896
155,18,Jits_Linear_8,0,5,63,98,457611516
155,18,Jits_Linear_8,1,5,80,127,457642336
155,18,Jits_Linear_8,2,1,48,28,457657564
155,18,Jits_Linear_8,3,5,56,103,457731364
155,18,Jits_Linear_8,0,5,63,98,458261940
155,18,Jits_Linear_8,1,5,56,103,458272196
155,18,Jits_Linear_8,2,1,48,25,458314876
155,18,Jits_Linear_8,3,5,80,127,458371372
155,18,Jits_Linear_8,0,1,48,22,458930424
155,18,Jits_Linear_8,1,5,63,98,459011324
155,18,Jits_Linear_8,2,5,80,127,459042428
155,18,Jits_Linear_8,3,5,56,103,459071832
155,18,Jits_Linear_8,0,1,48,24,459612576
155,18,Jits_Linear_8,1,5,80,127,459672360
155,18,Jits_Linear_8,2,5,63,98,459682316
155,18,Jits_Linear_8,3,5,56,103,459711928
155,18,Jits_Linear_8,0,5,80,127,460211636
155,18,Jits_Linear_8,1,5,63,98,460232212
155,18,Jits_Linear_8,2,5,56,103,460282356
155,18,Jits_Linear_8,3,1,48,21,460297880
155,18,Jits_Linear_8,0,5,63,98,460882276
155,18,Jits_Linear_8,1,1,48,21,460902296
155,18,Jits_Linear_8,2,5,80,127,460942112
155,18,Jits_Linear_8,3,5,56,103,460962388
155,18,Jits_Linear_8,0,5,63,98,461482272
155,18,Jits_Linear_8,1,5,56,103,461531496
155,18,Jits_Linear_8,2,5,80,127,461541676
155,18,Jits_Linear_8,3,1,48,14,461552672
155,18,Jits_Linear_8,0,5,56,103,462152296
155,18,Jits_Linear_8,1,5,80,127,462162252
155,18,Jits_Linear_8,2,1,48,27,462209724
155,18,Jits_Linear_8,3,5,63,98,462261724
155,18,Jits_Linear_8,0,5,80,127,462752156
155,18,Jits_Linear_8,1,5,63,98,462762260
155,18,Jits_Linear_8,2,1,48,20,462829264
155,18,Jits_Linear_8,3,5,56,103,462912020
155,18,Jits_Linear_8,0,5,63,98,463392132
155,18,Jits_Linear_8,1,5,80,127,463432152
155,18,Jits_Linear_8,2,1,48,26,463436092
155,18,Jits_Linear_8,3,5,56,103,463512180
155,18,Jits_Linear_8,0,5,56,103,464011796
155,18,Jits_Linear_8,1,1,48,23,464100032
155,18,Jits_Linear_8,2,5,80,127,464112196
155,18,Jits_Linear_8,3,5,63,98,464131500
155,18,Jits_Linear_8,0,5,80,127,464701960
155,18,Jits_Linear_8,1,5,56,103,464712140
155,18,Jits_Linear_8,2,1,48,18,464760360
155,18,Jits_Linear_8,3,5,63,98,464802116
155,18,Jits_Linear_8,0,5,56,103,465331668
155,18,Jits_Linear_8,1,5,63,98,465352024
155,18,Jits_Linear_8,2,1,48,28,465384980
155,18,Jits_Linear_8,3,5,80,127,465431852
155,18,Jits_Linear_8,0,5,63,98,465901940
155,18,Jits_Linear_8,1,5,56,103,465992076
155,18,Jits_Linear_8,2,5,80,127,465995060
155,18,Jits_Linear_8,3,1,48,24,466037140
155,18,Jits_Linear_8,0,5,56,103,466552120
155,18,Jits_Linear_8,1,5,80,127,466611664
155,18,Jits_Linear_8,2,5,63,98,466622068
155,18,Jits_Linear_8,3,1,48,30,466640816
155,18,Jits_Linear_8,0,1,48,34,467208516
155,18,Jits_Linear_8,1,5,80,127,467221936
155,18,Jits_Linear_8,2,5,56,103,467232040
155,18,Jits_Linear_8,3,5,63,98,467235176
155,18,Jits_Linear_8,0,5,56,103,467801440
155,18,Jits_Linear_8,1,5,80,127,467811916
155,18,Jits_Linear_8,2,1,48,25,467814436
155,18,Jits_Linear_8,3,5,63,98,467832112
155,18,Jits_Linear_8,0,5,63,98,468392172
155,18,Jits_Linear_8,1,1,48,20,468415928
155,18,Jits_Linear_8,2,5,80,127,468451860
155,18,Jits_Linear_8,3,5,56,103,468501856
155,18,Jits_Linear_8,0,1,48,24,469034572
155,18,Jits_Linear_8,1,5,63,98,469091896
155,18,Jits_Linear_8,2,5,56,103,469101928
155,18,Jits_Linear_8,3,5,80,127,469152104
155,18,Jits_Linear_8,0,5,63,98,469601776
155,18,Jits_Linear_8,1,5,80,127,469622052
155,18,Jits_Linear_8,2,5,56,103,469632308
155,18,Jits_Linear_8,3,1,48,27,469660712
155,18,Jits_Linear_8,0,1,48,29,470178912
155,18,Jits_Linear_8,1,5,63,98,470212080
155,18,Jits_Linear_8,2,5,80,127,470215588
155,18,Jits_Linear_8,3,5,56,103,470252200
155,18,Jits_Linear_8,0,1,48,29,470764336
155,18,Jits_Linear_8,1,5,63,98,470891808
155,18,Jits_Linear_8,2,5,80,127,470921732
155,18,Jits_Linear_8,3,5,56,103,470931764
155,18,Jits_Linear_8,0,1,48,21,471403760
155,18,Jits_Linear_8,1,5,56,103,471452032
155,18,Jits_Linear_8,2,5,80,127,471481584
155,18,Jits_Linear_8,3,5,63,98,471512612
155,18,Jits_Linear_8,0,1,48,15,472039816
155,18,Jits_Linear_8,1,5,63,98,472152564
155,18,Jits_Linear_8,2,5,56,103,472192584
155,18,Jits_Linear_8,3,5,80,127,472195720
155,18,Jits_Linear_8,0,5,80,127,472652132
155,18,Jits_Linear_8,1,1,48,23,472681508
155,18,Jits_Linear_8,2,5,56,103,472731940
155,18,Jits_Linear_8,3,5,63,98,472782188
155,18,Jits_Linear_8,0,5,80,127,473231652
155,18,Jits_Linear_8,1,5,56,103,473252376
155,18,Jits_Linear_8,2,1,48,18,473308292
155,18,Jits_Linear_8,3,5,63,98,473342524
155,18,Jits_Linear_8,0,5,80,127,473871628
155,18,Jits_Linear_8,1,1,48,22,473890604
155,18,Jits_Linear_8,2,5,63,98,473911644
155,18,Jits_Linear_8,3,5,56,103,473951592
155,18,Jits_Linear_8,0,5,63,98,474442024
155,18,Jits_Linear_8,1,5,80,127,474501640
155,18,Jits_Linear_8,2,5,56,103,474532312
155,18,Jits_Linear_8,0,5,56,103,475042268
155,18,Jits_Linear_8,1,1,48,23,475046500
155,18,Jits_Linear_8,2,5,80,127,475071740
155,18,Jits_Linear_8,3,5,63,98,475161956
155,18,Jits_Linear_8,0,5,56,103,475642308
155,18,Jits_Linear_8,1,1,48,24,475649176
155,18,Jits_Linear_8,2,5,80,127,475751648
155,18,Jits_Linear_8,3,5,63,98,475781420
155,18,Jits_Linear_8,0,1,48,18,476267348
155,18,Jits_Linear_8,1,5,56,103,476282340
155,18,Jits_Linear_8,2,5,63,98,476341660
155,18,Jits_Linear_8,3,5,80,127,476372392
155,18,Jits_Linear_8,0,5,56,103,476851684
155,18,Jits_Linear_8,1,1,48,29,476908744
155,18,Jits_Linear_8,2,5,63,98,476922240
155,18,Jits_Linear_8,3,5,80,127,476941772
155,18,Jits_Linear_8,0,5,80,127,477411756
155,18,Jits_Linear_8,1,5,63,98,477432356
155,18,Jits_Linear_8,2,5,56,103,477482476
155,18,Jits_Linear_8,3,1,48,22,477535024
155,18,Jits_Linear_8,0,5,63,98,478011648
155,18,Jits_Linear_8,1,5,80,127,478022124
155,18,Jits_Linear_8,2,5,56,103,478072392
155,18,Jits_Linear_8,0,5,63,98,478592224
155,18,Jits_Linear_8,1,1,48,36,478656140
155,18,Jits_Linear_8,2,5,80,127,478662304
155,18,Jits_Linear_8,3,5,56,103,478681388
155,18,Jits_Linear_8,0,5,63,98,479201792
155,18,Jits_Linear_8,1,1,48,29,479203296
155,18,Jits_Linear_8,2,5,80,127,479206416
155,18,Jits_Linear_8,3,5,56,103,479272344
155,18,Jits_Linear_8,0,5,80,127,479732172
155,18,Jits_Linear_8,1,5,56,103,479751480
155,18,Jits_Linear_8,2,5,63,98,479761880
155,18,Jits_Linear_8,3,1,48,19,479825276
155,18,Jits_Linear_8,0,5,56,103,480332404
155,18,Jits_Linear_8,1,1,48,24,480354892
155,18,Jits_Linear_8,2,5,63,98,480422456
155,18,Jits_Linear_8,3,5,80,127,480425740
155,18,Jits_Linear_8,0,5,80,127,480882296
155,18,Jits_Linear_8,1,5,56,103,480892252
155,18,Jits_Linear_8,2,1,48,33,480902548
155,18,Jits_Linear_8,3,5,63,98,480911700
155,18,Jits_Linear_8,0,1,48,32,481430364
155,18,Jits_Linear_8,1,5,63,98,481452304
155,18,Jits_Linear_8,2,5,80,127,481511700
155,18,Jits_Linear_8,3,5,56,103,481522200
155,18,Jits_Linear_8,0,1,48,28,482011812
155,18,Jits_Linear_8,1,5,63,98,482092348
155,18,Jits_Linear_8,2,5,80,127,482122180
155,18,Jits_Linear_8,3,5,56,103,482162200
155,18,Jits_Linear_8,0,5,56,103,482651444
155,18,Jits_Linear_8,1,1,48,22,482657244
155,18,Jits_Linear_8,2,5,80,127,482661840
155,18,Jits_Linear_8,3,5,63,98,482701788
155,18,Jits_Linear_8,0,5,80,127,483182120
155,18,Jits_Linear_8,1,5,56,103,483261936
155,18,Jits_Linear_8,2,5,63,98,483272040
155,18,Jits_Linear_8,3,1,48,21,483280996
155,18,Jits_Linear_8,0,5,80,127,483792164
155,18,Jits_Linear_8,1,5,56,103,483872224
155,18,Jits_Linear_8,2,5,63,98,483882404
155,18,Jits_Linear_8,3,1,48,23,483890160
155,18,Jits_Linear_8,0,5,80,127,484312448
155,18,Jits_Linear_8,1,5,56,103,484361548
155,18,Jits_Linear_8,2,5,63,98,484411964
155,18,Jits_Linear_8,3,1,48,22,484451360
155,18,Jits_Linear_8,0,5,56,103,484931940
155,18,Jits_Linear_8,1,5,63,98,484935152
155,18,Jits_Linear_8,2,5,80,127,484982136
155,18,Jits_Linear_8,3,1,48,20,484986292
155,18,Jits_Linear_8,0,5,56,103,485511388
155,18,Jits_Linear_8,1,5,63,98,485542208
155,18,Jits_Linear_8,2,1,48,18,485545100
155,18,Jits_Linear_8,3,5,80,127,485551484
155,18,Jits_Linear_8,0,5,63,98,485992028
155,18,Jits_Linear_8,1,5,56,103,486061372
155,18,Jits_Linear_8,2,1,48,19,486079360
155,18,Jits_Linear_8,3,5,80,127,486111560
155,18,Jits_Linear_8,0,5,63,98,486581932
155,18,Jits_Linear_8,1,5,56,103,486591964
155,18,Jits_Linear_8,2,5,80,127,486595100
155,18,Jits_Linear_8,3,1,48,19,486619840
155,18,Jits_Linear_8,0,1,48,21,487072916
155,18,Jits_Linear_8,1,5,80,127,487082364
155,18,Jits_Linear_8,2,5,56,103,487142128
155,18,Jits_Linear_8,3,5,63,98,487232048
155,18,Jits_Linear_8,0,5,80,127,487632180
155,18,Jits_Linear_8,1,1,48,23,487671228
155,18,Jits_Linear_8,2,5,56,103,487731760
155,18,Jits_Linear_8,3,5,63,98,487771468
155,18,Jits_Linear_8,0,1,48,26,488188796
155,18,Jits_Linear_8,1,5,56,103,488232660
155,18,Jits_Linear_8,2,5,63,98,488251744
155,18,Jits_Linear_8,3,5,80,127,488291752
155,18,Jits_Linear_8,0,1,48,26,488723432
155,18,Jits_Linear_8,1,5,63,98,488751440
155,18,Jits_Linear_8,2,5,56,103,488772012
155,18,Jits_Linear_8,3,5,80,127,488872372
155,18,Jits_Linear_8,0,1,48,21,489228660
155,18,Jits_Linear_8,1,5,63,98,489281952
155,18,Jits_Linear_8,2,5,80,127,489391888
155,18,Jits_Linear_8,3,5,56,103,489422116
155,18,Jits_Linear_8,0,5,56,103,489842020
155,18,Jits_Linear_8,1,1,48,21,489864212
155,18,Jits_Linear_8,2,5,63,98,489871716
155,18,Jits_Linear_8,3,5,80,127,489921836
155,18,Jits_Linear_8,0,5,63,98,490352052
155,18,Jits_Linear_8,1,5,56,103,490381828
155,18,Jits_Linear_8,2,1,48,19,490401476
155,18,Jits_Linear_8,3,5,80,127,490431944
155,18,Jits_Linear_8,0,5,56,103,490922428
155,18,Jits_Linear_8,1,1,48,21,490934972
155,18,Jits_Linear_8,2,5,63,98,490941808
155,18,Jits_Linear_8,3,5,80,127,491021864
155,18,Jits_Linear_8,0,5,63,98,491432312
155,18,Jits_Linear_8,1,1,48,26,491454348
155,18,Jits_Linear_8,2,5,56,103,491491776
155,18,Jits_Linear_8,3,5,80,127,491522544
155,18,Jits_Linear_8,0,5,56,103,492011844
155,18,Jits_Linear_8,1,1,48,27,492038064
155,18,Jits_Linear_8,2,5,80,127,492072576
155,18,Jits_Linear_8,3,5,63,98,492112372
155,18,Jits_Linear_8,0,5,63,98,492521784
155,18,Jits_Linear_8,1,5,56,103,492582372
155,18,Jits_Linear_8,2,1,48,28,492594392
155,18,Jits_Linear_8,3,5,80,127,492651856
155,18,Jits_Linear_8,0,5,56,103,493132032
155,18,Jits_Linear_8,1,5,63,98,493142508
155,18,Jits_Linear_8,2,5,80,127,493145720
155,18,Jits_Linear_8,3,1,48,23,493146612
155,18,Jits_Linear_8,0,5,63,98,493602120
155,18,Jits_Linear_8,1,5,56,103,493661516
155,18,Jits_Linear_8,2,5,80,127,493664652
155,18,Jits_Linear_8,0,5,63,98,494112160
155,18,Jits_Linear_8,1,5,80,127,494141936
155,18,Jits_Linear_8,2,1,48,31,494142900
155,18,Jits_Linear_8,3,5,56,103,494162428
155,18,Jits_Linear_8,0,5,56,103,494641624
155,18,Jits_Linear_8,1,5,63,98,494691672
155,18,Jits_Linear_8,2,1,48,26,494697172
155,18,Jits_Linear_8,3,5,80,127,494771548
155,18,Jits_Linear_8,0,5,80,127,495142460
155,18,Jits_Linear_8,1,1,48,31,495172880
155,18,Jits_Linear_8,2,5,63,98,495182404
155,18,Jits_Linear_8,3,5,56,103,495201708
155,18,Jits_Linear_8,0,5,56,103,495732008
155,18,Jits_Linear_8,1,1,48,23,495741432
155,18,Jits_Linear_8,2,5,80,127,495743300
155,18,Jits_Linear_8,3,5,63,98,495761856
155,18,Jits_Linear_8,0,5,56,103,496231796
155,18,Jits_Linear_8,1,5,63,98,496281992
155,18,Jits_Linear_8,2,1,48,23,496287716
155,18,Jits_Linear_8,3,5,80,127,496311688
155,18,Jits_Linear_8,0,5,56,103,496701672
155,18,Jits_Linear_8,1,5,63,98,496711924
155,18,Jits_Linear_8,2,5,80,127,496762416
155,18,Jits_Linear_8,3,1,48,17,496905032
155,18,Jits_Linear_8,0,5,56,103,497211620
155,18,Jits_Linear_8,1,5,80,127,497214764
155,18,Jits_Linear_8,2,5,63,98,497371460
155,18,Jits_Linear_8,0,5,63,98,497742400
155,18,Jits_Linear_8,1,5,56,103,497811892
155,18,Jits_Linear_8,2,5,80,127,497851764
155,18,Jits_Linear_8,0,1,48,28,498157192
155,18,Jits_Linear_8,1,5,63,98,498292368
155,18,Jits_Linear_8,2,5,56,103,498382352
155,18,Jits_Linear_8,3,5,80,127,498385416
155,18,Jits_Linear_8,0,1,48,26,498570720
155,18,Jits_Linear_8,1,5,56,103,498781432
155,18,Jits_Linear_8,2,5,63,98,498871644
155,18,Jits_Linear_8,3,5,80,127,498882044
155,18,Jits_Linear_8,0,5,56,103,499272328
155,18,Jits_Linear_8,1,5,63,98,499322372
155,18,Jits_Linear_8,2,5,80,127,499351776
155,18,Jits_Linear_8,0,5,63,98,499851652
155,18,Jits_Linear_8,1,5,80,127,499861980
155,18,Jits_Linear_8,2,5,56,103,499922272
155,18,Jits_Linear_8,3,1,48,30,499997352
155,18,Jits_Linear_8,0,5,63,98,500271460
155,18,Jits_Linear_8,1,5,80,127,500331972
155,18,Jits_Linear_8,2,1,48,28,500356180
155,18,Jits_Linear_8,3,5,56,103,500371764
155,18,Jits_Linear_8,0,5,56,103,500871460
155,18,Jits_Linear_8,1,5,80,127,500892260
155,18,Jits_Linear_8,2,5,63,98,500911416
155,18,Jits_Linear_8,3,1,48,20,501049016
155,18,Jits_Linear_8,0,5,63,98,501292420
155,18,Jits_Linear_8,1,5,56,103,501311800
155,18,Jits_Linear_8,2,5,80,127,501351896
155,18,Jits_Linear_8,3,1,48,13,501388364
155,18,Jits_Linear_8,0,5,63,98,501811568
155,18,Jits_Linear_8,1,5,80,127,501842240
155,18,Jits_Linear_8,2,5,56,103,501861844
155,18,Jits_Linear_8,0,5,80,127,502281524
155,18,Jits_Linear_8,1,1,48,30,502319032
155,18,Jits_Linear_8,2,5,56,103,502331712
155,18,Jits_Linear_8,3,5,63,98,502392296
155,18,Jits_Linear_8,0,1,48,21,502629028
155,18,Jits_Linear_8,1,5,63,98,502762068
155,18,Jits_Linear_8,2,5,56,103,502881524
155,18,Jits_Linear_8,3,5,80,127,502912344
155,18,Jits_Linear_8,0,1,48,22,503267864
155,18,Jits_Linear_8,1,5,80,127,503292304
155,18,Jits_Linear_8,2,5,63,98,503311908
155,18,Jits_Linear_8,3,5,56,103,503382356
155,18,Jits_Linear_8,0,1,48,28,503587304
155,18,Jits_Linear_8,1,5,63,98,503802164
155,18,Jits_Linear_8,2,5,56,103,503811300
155,18,Jits_Linear_8,3,5,80,127,503892304
155,18,Jits_Linear_8,0,1,48,22,504269808
155,18,Jits_Linear_8,1,5,56,103,504352224
155,18,Jits_Linear_8,2,5,80,127,504381984
155,18,Jits_Linear_8,3,5,63,98,504392088
155,18,Jits_Linear_8,0,9999,9999,9999,393949256
155,18,Jits_Linear_8,1,9999,9999,9999,394769520
155,18,Jits_Linear_8,2,9999,9999,9999,395589756
155,18,Jits_Linear_8,3,9999,9999,9999,396409964
155,18,Jits_Linear_8,4,9999,9999,9999,397229144
155,18,Jits_Linear_8,5,9999,9999,9999,398039116
155,18,Jits_Linear_8,6,9999,9999,9999,398849120
155,18,Jits_Linear_8,7,9999,9999,9999,399659104
155,18,Jits_Linear_8,8,9999,9999,9999,400470124
155,18,Jits_Linear_8,9,9999,9999,9999,401280080
155,18,Jits_Linear_8,10,9999,9999,9999,402090052
155,18,Jits_Linear_8,11,9999,9999,9999,402889852
155,18,Jits_Linear_8,12,9999,9999,9999,403689592
155,18,Jits_Linear_8,13,9999,9999,9999,404489272
155,18,Jits_Linear_8,14,9999,9999,9999,405290096
155,18,Jits_Linear_8,15,9999,9999,9999,406079576
155,18,Jits_Linear_8,16,9999,9999,9999,406870084
155,18,Jits_Linear_8,17,9999,9999,9999,407669824
155,18,Jits_Linear_8,18,9999,9999,9999,408459380
155,18,Jits_Linear_8,19,9999,9999,9999,409249912
155,18,Jits_Linear_8,20,9999,9999,9999,410029140
155,18,Jits_Linear_8,21,9999,9999,9999,410809408
155,18,Jits_Linear_8,22,9999,9999,9999,411589688
155,18,Jits_Linear_8,23,9999,9999,9999,412370032
155,18,Jits_Linear_8,24,9999,9999,9999,413149260
155,18,Jits_Linear_8,25,9999,9999,9999,413919288
155,18,Jits_Linear_8,26,9999,9999,9999,414689392
155,18,Jits_Linear_8,27,9999,9999,9999,415459420
155,18,Jits_Linear_8,28,9999,9999,9999,416229444
155,18,Jits_Linear_8,29,9999,9999,9999,416999480
155,18,Jits_Linear_8,30,9999,9999,9999,417759324
155,18,Jits_Linear_8,31,9999,9999,9999,418519104
155,18,Jits_Linear_8,32,9999,9999,9999,419279928
155,18,Jits_Linear_8,33,9999,9999,9999,420039788
155,18,Jits_Linear_8,34,9999,9999,9999,420799584
155,18,Jits_Linear_8,35,9999,9999,9999,421549124
155,18,Jits_Linear_8,36,9999,9999,9999,422299712
155,18,Jits_Linear_8,37,9999,9999,9999,423049324
155,18,Jits_Linear_8,38,9999,9999,9999,423799912
155,18,Jits_Linear_8,39,9999,9999,9999,424549464
155,18,Jits_Linear_8,40,9999,9999,9999,425289816
155,18,Jits_Linear_8,41,9999,9999,9999,426029120
155,18,Jits_Linear_8,42,9999,9999,9999,426769520
155,18,Jits_Linear_8,43,9999,9999,9999,427509856
155,18,Jits_Linear_8,44,9999,9999,9999,428249176
155,18,Jits_Linear_8,45,9999,9999,9999,428979268
155,18,Jits_Linear_8,46,9999,9999,9999,429709424
155,18,Jits_Linear_8,47,9999,9999,9999,430439508
155,18,Jits_Linear_8,48,9999,9999,9999,431169612
155,18,Jits_Linear_8,49,9999,9999,9999,431899768
155,18,Jits_Linear_8,50,9999,9999,9999,432619584
155,18,Jits_Linear_8,51,9999,9999,9999,433339492
155,18,Jits_Linear_8,52,9999,9999,9999,434059336
155,18,Jits_Linear_8,53,9999,9999,9999,434779196
155,18,Jits_Linear_8,54,9999,9999,9999,435499108
155,18,Jits_Linear_8,55,9999,9999,9999,436209768
155,18,Jits_Linear_8,56,9999,9999,9999,436919408
155,18,Jits_Linear_8,57,9999,9999,9999,437630060
155,18,Jits_Linear_8,58,9999,9999,9999,438339672
155,18,Jits_Linear_8,59,9999,9999,9999,439049284
155,18,Jits_Linear_8,60,9999,9999,9999,439749740
155,18,Jits_Linear_8,61,9999,9999,9999,440449112
155,18,Jits_Linear_8,62,9999,9999,9999,441149520
155,18,Jits_Linear_8,63,9999,9999,9999,441849980
155,18,Jits_Linear_8,64,9999,9999,9999,442549328
155,18,Jits_Linear_8,65,9999,9999,9999,443239480
155,18,Jits_Linear_8,66,9999,9999,9999,443929724
155,18,Jits_Linear_8,67,9999,9999,9999,444619856
155,18,Jits_Linear_8,68,9999,9999,9999,445310004
155,18,Jits_Linear_8,69,9999,9999,9999,445999220
155,18,Jits_Linear_8,70,9999,9999,9999,446679116
155,18,Jits_Linear_8,71,9999,9999,9999,447360072
155,18,Jits_Linear_8,72,9999,9999,9999,448049248
155,18,Jits_Linear_8,73,9999,9999,9999,448729144
155,18,Jits_Linear_8,74,9999,9999,9999,449409144
155,18,Jits_Linear_8,75,9999,9999,9999,450079848
155,18,Jits_Linear_8,76,9999,9999,9999,450749564
155,18,Jits_Linear_8,77,9999,9999,9999,451419240
155,18,Jits_Linear_8,78,9999,9999,9999,452089948
155,18,Jits_Linear_8,79,9999,9999,9999,452759664
155,18,Jits_Linear_8,80,9999,9999,9999,453419092
155,18,Jits_Linear_8,81,9999,9999,9999,454079596
155,18,Jits_Linear_8,82,9999,9999,9999,454740048
155,18,Jits_Linear_8,83,9999,9999,9999,455399508
155,18,Jits_Linear_8,84,9999,9999,9999,456059968
155,18,Jits_Linear_8,85,9999,9999,9999,456709224
155,18,Jits_Linear_8,86,9999,9999,9999,457359420
155,18,Jits_Linear_8,87,9999,9999,9999,458009700
155,18,Jits_Linear_8,88,9999,9999,9999,458659952
155,18,Jits_Linear_8,89,9999,9999,9999,459309124
155,18,Jits_Linear_8,90,9999,9999,9999,459949148
155,18,Jits_Linear_8,91,9999,9999,9999,460589180
155,18,Jits_Linear_8,92,9999,9999,9999,461229136
155,18,Jits_Linear_8,93,9999,9999,9999,461869164
155,18,Jits_Linear_8,94,9999,9999,9999,462509176
155,18,Jits_Linear_8,95,9999,9999,9999,463139948
155,18,Jits_Linear_8,96,9999,9999,9999,463769728
155,18,Jits_Linear_8,97,9999,9999,9999,464399440
155,18,Jits_Linear_8,98,9999,9999,9999,465029224
155,18,Jits_Linear_8,99,9999,9999,9999,465660004
155,18,Jits_Linear_8,100,9999,9999,9999,466279528
155,18,Jits_Linear_8,101,9999,9999,9999,466900024
155,18,Jits_Linear_8,102,9999,9999,9999,467519576
155,18,Jits_Linear_8,103,9999,9999,9999,468139096
155,18,Jits_Linear_8,104,9999,9999,9999,468759624
155,18,Jits_Linear_8,105,9999,9999,9999,469369952
155,18,Jits_Linear_8,106,9999,9999,9999,469979220
155,18,Jits_Linear_8,107,9999,9999,9999,470589548
155,18,Jits_Linear_8,108,9999,9999,9999,471199868
155,18,Jits_Linear_8,109,9999,9999,9999,471809088
155,18,Jits_Linear_8,110,9999,9999,9999,472409164
155,18,Jits_Linear_8,111,9999,9999,9999,473009240
155,18,Jits_Linear_8,112,9999,9999,9999,473609272
155,18,Jits_Linear_8,113,9999,9999,9999,474209364
155,18,Jits_Linear_8,114,9999,9999,9999,474809468
155,18,Jits_Linear_8,115,9999,9999,9999,475399252
155,18,Jits_Linear_8,116,9999,9999,9999,475990068
155,18,Jits_Linear_8,117,9999,9999,9999,476589120
155,18,Jits_Linear_8,118,9999,9999,9999,477180020
155,18,Jits_Linear_8,119,9999,9999,9999,477769784
155,18,Jits_Linear_8,120,9999,9999,9999,478349396
155,18,Jits_Linear_8,121,9999,9999,9999,478930032
155,18,Jits_Linear_8,122,9999,9999,9999,479509624
155,18,Jits_Linear_8,123,9999,9999,9999,480089200
155,18,Jits_Linear_8,124,9999,9999,9999,480669756
155,18,Jits_Linear_8,125,9999,9999,9999,481239100
155,18,Jits_Linear_8,126,9999,9999,9999,481809516
155,18,Jits_Linear_8,127,9999,9999,9999,482379900
155,18,Jits_Linear_8,128,9999,9999,9999,482949240
155,18,Jits_Linear_8,129,9999,9999,9999,483519560
155,18,Jits_Linear_8,130,9999,9999,9999,484079740
155,18,Jits_Linear_8,131,9999,9999,9999,484639816
155,18,Jits_Linear_8,132,9999,9999,9999,485199960
155,18,Jits_Linear_8,133,9999,9999,9999,485760116
155,18,Jits_Linear_8,134,9999,9999,9999,486329464
155,18,Jits_Linear_8,135,9999,9999,9999,486879344
155,18,Jits_Linear_8,136,9999,9999,9999,487429184
155,18,Jits_Linear_8,137,9999,9999,9999,487979072
155,18,Jits_Linear_8,138,9999,9999,9999,488530016
155,18,Jits_Linear_8,139,9999,9999,9999,489079904
155,18,Jits_Linear_8,140,9999,9999,9999,489619548
155,18,Jits_Linear_8,141,9999,9999,9999,490159188
155,18,Jits_Linear_8,142,9999,9999,9999,490699884
155,18,Jits_Linear_8,143,9999,9999,9999,491239524
155,18,Jits_Linear_8,144,9999,9999,9999,491779196
155,18,Jits_Linear_8,145,9999,9999,9999,492309568
155,18,Jits_Linear_8,146,9999,9999,9999,492839996
155,18,Jits_Linear_8,147,9999,9999,9999,493369460
155,18,Jits_Linear_8,148,9999,9999,9999,493899856
155,18,Jits_Linear_8,149,9999,9999,9999,494429252
155,18,Jits_Linear_8,150,9999,9999,9999,494949448
155,18,Jits_Linear_8,151,9999,9999,9999,495469652
155,18,Jits_Linear_8,152,9999,9999,9999,495989860
155,18,Jits_Linear_8,153,9999,9999,9999,496510076
155,18,Jits_Linear_8,154,9999,9999,9999,497029232
155,18,Jits_Linear_8,155,9999,9999,9999,497539132
155,18,Jits_Linear_8,156,9999,9999,9999,498049124
155,18,Jits_Linear_8,157,9999,9999,9999,498560120
155,18,Jits_Linear_8,158,9999,9999,9999,499079252
155,18,Jits_Linear_8,159,9999,9999,9999,499589220
155,18,Jits_Linear_8,160,9999,9999,9999,500089932
155,18,Jits_Linear_8,161,9999,9999,9999,500589672
155,18,Jits_Linear_8,162,9999,9999,9999,501089400
155,18,Jits_Linear_8,163,9999,9999,9999,501590140
155,18,Jits_Linear_8,164,9999,9999,9999,502100036
155,18,Jits_Linear_8,165,9999,9999,9999,502589492
155,18,Jits_Linear_8,166,9999,9999,9999,503080012
155,18,Jits_Linear_8,167,9999,9999,9999,503569468
155,18,Jits_Linear_8,168,9999,9999,9999,504059972
155,18,Jits_Linear_8,169,9999,9999,9999,504549488
156,19,Jits_Linear_5,0,5,56,103,515225916
156,19,Jits_Linear_5,1,5,63,98,515229012
156,19,Jits_Linear_5,2,5,80,127,515232128
156,19,Jits_Linear_5,0,5,56,103,515706428
156,19,Jits_Linear_5,1,5,63,98,515709376
156,19,Jits_Linear_5,2,5,80,127,515712564
156,19,Jits_Linear_5,0,5,56,103,516185536
156,19,Jits_Linear_5,1,5,80,127,516195644
156,19,Jits_Linear_5,2,5,63,98,516216292
156,19,Jits_Linear_5,0,5,63,98,516615504
156,19,Jits_Linear_5,1,5,80,127,516646400
156,19,Jits_Linear_5,2,5,56,103,516655388
156,19,Jits_Linear_5,0,1,48,45,517059900
156,19,Jits_Linear_5,1,5,80,127,517156280
156,19,Jits_Linear_5,2,5,56,103,517165416
156,19,Jits_Linear_5,3,5,63,98,517196460
156,19,Jits_Linear_5,0,1,48,38,517523724
156,19,Jits_Linear_5,1,5,63,98,517635428
156,19,Jits_Linear_5,2,5,56,103,517666252
156,19,Jits_Linear_5,3,5,80,127,517676504
156,19,Jits_Linear_5,0,1,48,38,518038544
156,19,Jits_Linear_5,1,5,56,103,518075744
156,19,Jits_Linear_5,2,5,63,98,518125816
156,19,Jits_Linear_5,3,5,80,127,518146524
156,19,Jits_Linear_5,0,1,48,33,518502492
156,19,Jits_Linear_5,1,5,80,127,518566404
156,19,Jits_Linear_5,2,5,63,98,518616288
156,19,Jits_Linear_5,3,5,56,103,518656336
156,19,Jits_Linear_5,0,1,48,29,519036764
156,19,Jits_Linear_5,1,5,56,103,519055644
156,19,Jits_Linear_5,2,5,63,98,519085424
156,19,Jits_Linear_5,3,5,80,127,519156264
156,19,Jits_Linear_5,0,1,48,29,519511716
156,19,Jits_Linear_5,1,5,56,103,519546160
156,19,Jits_Linear_5,2,5,80,127,519605480
156,19,Jits_Linear_5,3,5,63,98,519636436
156,19,Jits_Linear_5,0,1,48,29,520028196
156,19,Jits_Linear_5,1,5,56,103,520046096
156,19,Jits_Linear_5,2,5,63,98,520056276
156,19,Jits_Linear_5,3,5,80,127,520096296
156,19,Jits_Linear_5,0,1,48,27,520531260
156,19,Jits_Linear_5,1,5,63,98,520536452
156,19,Jits_Linear_5,2,5,80,127,520616196
156,19,Jits_Linear_5,3,5,56,103,520625464
156,19,Jits_Linear_5,0,1,48,22,521069948
156,19,Jits_Linear_5,1,5,63,98,521086356
156,19,Jits_Linear_5,2,5,56,103,521126228
156,19,Jits_Linear_5,3,5,80,127,521129440
156,19,Jits_Linear_5,0,5,56,103,521546052
156,19,Jits_Linear_5,1,5,63,98,521556380
156,19,Jits_Linear_5,2,1,48,29,521574160
156,19,Jits_Linear_5,3,5,80,127,521596172
156,19,Jits_Linear_5,0,5,56,103,522035524
156,19,Jits_Linear_5,1,5,63,98,522038660
156,19,Jits_Linear_5,2,5,80,127,522056024
156,19,Jits_Linear_5,3,1,48,27,522073120
156,19,Jits_Linear_5,0,1,48,26,522554144
156,19,Jits_Linear_5,1,5,80,127,522555724
156,19,Jits_Linear_5,2,5,56,103,522566276
156,19,Jits_Linear_5,3,5,63,98,522635544
156,19,Jits_Linear_5,0,5,63,98,523055440
156,19,Jits_Linear_5,1,1,48,24,523070440
156,19,Jits_Linear_5,2,5,56,103,523075936
156,19,Jits_Linear_5,3,5,80,127,523155896
156,19,Jits_Linear_5,0,1,48,26,523558556
156,19,Jits_Linear_5,1,5,56,103,523575712
156,19,Jits_Linear_5,2,5,80,127,523615516
156,19,Jits_Linear_5,3,5,63,98,523625768
156,19,Jits_Linear_5,0,1,48,24,524062824
156,19,Jits_Linear_5,1,5,80,127,524076320
156,19,Jits_Linear_5,2,5,63,98,524106024
156,19,Jits_Linear_5,3,5,56,103,524146044
156,19,Jits_Linear_5,0,1,48,21,524564188
156,19,Jits_Linear_5,1,5,56,103,524605876
156,19,Jits_Linear_5,2,5,63,98,524635504
156,19,Jits_Linear_5,3,5,80,127,524685832
156,19,Jits_Linear_5,0,1,48,21,525081536
156,19,Jits_Linear_5,1,5,80,127,525126080
156,19,Jits_Linear_5,2,5,56,103,525166104
156,19,Jits_Linear_5,3,5,63,98,525176048
156,19,Jits_Linear_5,0,1,48,18,525614920
156,19,Jits_Linear_5,1,5,80,127,525625788
156,19,Jits_Linear_5,2,5,63,98,525665588
156,19,Jits_Linear_5,3,5,56,103,525726012
156,19,Jits_Linear_5,0,1,48,20,526121424
156,19,Jits_Linear_5,1,5,56,103,526145916
156,19,Jits_Linear_5,2,5,80,127,526156096
156,19,Jits_Linear_5,3,5,63,98,526235896
156,19,Jits_Linear_5,0,1,48,28,526598844
156,19,Jits_Linear_5,1,5,80,127,526666192
156,19,Jits_Linear_5,2,5,63,98,526725428
156,19,Jits_Linear_5,3,5,56,103,526756172
156,19,Jits_Linear_5,0,1,48,28,527135360
156,19,Jits_Linear_5,1,5,56,103,527186244
156,19,Jits_Linear_5,2,5,80,127,527245776
156,19,Jits_Linear_5,3,5,63,98,527285872
156,19,Jits_Linear_5,0,1,48,17,527615100
156,19,Jits_Linear_5,1,5,56,103,527765752
156,19,Jits_Linear_5,2,5,63,98,527776080
156,19,Jits_Linear_5,3,5,80,127,527779736
156,19,Jits_Linear_5,0,1,48,24,528148156
156,19,Jits_Linear_5,1,5,80,127,528246228
156,19,Jits_Linear_5,2,5,63,98,528336292
156,19,Jits_Linear_5,3,5,56,103,528345576
156,19,Jits_Linear_5,0,1,48,28,528621080
156,19,Jits_Linear_5,1,5,56,103,528775620
156,19,Jits_Linear_5,2,5,63,98,528778716
156,19,Jits_Linear_5,3,5,80,127,528781904
156,19,Jits_Linear_5,0,1,48,22,529158092
156,19,Jits_Linear_5,1,5,80,127,529325288
156,19,Jits_Linear_5,2,5,63,98,529375780
156,19,Jits_Linear_5,3,5,56,103,529406256
156,19,Jits_Linear_5,0,1,48,30,529746972
156,19,Jits_Linear_5,1,5,56,103,529836380
156,19,Jits_Linear_5,2,5,80,127,529845796
156,19,Jits_Linear_5,3,5,63,98,529916212
156,19,Jits_Linear_5,0,1,48,24,530334040
156,19,Jits_Linear_5,1,5,56,103,530376172
156,19,Jits_Linear_5,2,5,63,98,530395552
156,19,Jits_Linear_5,3,5,80,127,530455932
156,19,Jits_Linear_5,0,1,48,26,530901204
156,19,Jits_Linear_5,1,5,80,127,530905576
156,19,Jits_Linear_5,2,5,63,98,530975996
156,19,Jits_Linear_5,3,5,56,103,530995656
156,19,Jits_Linear_5,0,5,80,127,531465752
156,19,Jits_Linear_5,1,5,56,103,531475784
156,19,Jits_Linear_5,2,1,48,26,531478448
156,19,Jits_Linear_5,3,5,63,98,531486032
156,19,Jits_Linear_5,0,5,80,127,531996064
156,19,Jits_Linear_5,1,1,48,34,532003432
156,19,Jits_Linear_5,2,5,56,103,532015736
156,19,Jits_Linear_5,3,5,63,98,532086124
156,19,Jits_Linear_5,0,5,56,103,532545828
156,19,Jits_Linear_5,1,5,80,127,532575532
156,19,Jits_Linear_5,2,1,48,31,532579164
156,19,Jits_Linear_5,3,5,63,98,532596100
156,19,Jits_Linear_5,0,1,48,33,533083448
156,19,Jits_Linear_5,1,5,63,98,533085488
156,19,Jits_Linear_5,2,5,56,103,533146076
156,19,Jits_Linear_5,3,5,80,127,533175628
156,19,Jits_Linear_5,0,5,63,98,533626336
156,19,Jits_Linear_5,1,5,80,127,533629548
156,19,Jits_Linear_5,2,1,48,27,533638428
156,19,Jits_Linear_5,3,5,56,103,533716756
156,19,Jits_Linear_5,0,1,48,34,534135580
156,19,Jits_Linear_5,1,5,56,103,534195520
156,19,Jits_Linear_5,2,5,63,98,534226416
156,19,Jits_Linear_5,3,5,80,127,534266148
156,19,Jits_Linear_5,0,1,48,24,534738724
156,19,Jits_Linear_5,1,5,63,98,534745560
156,19,Jits_Linear_5,2,5,56,103,534786432
156,19,Jits_Linear_5,3,5,80,127,534805812
156,19,Jits_Linear_5,0,1,48,29,535217116
156,19,Jits_Linear_5,1,5,63,98,535305508
156,19,Jits_Linear_5,2,5,56,103,535345444
156,19,Jits_Linear_5,3,5,80,127,535355620
156,19,Jits_Linear_5,0,5,80,127,535835964
156,19,Jits_Linear_5,1,1,48,17,535881036
156,19,Jits_Linear_5,2,5,63,98,535905600
156,19,Jits_Linear_5,3,5,56,103,535926472
156,19,Jits_Linear_5,0,5,56,103,536385804
156,19,Jits_Linear_5,1,1,48,30,536388772
156,19,Jits_Linear_5,2,5,80,127,536406448
156,19,Jits_Linear_5,3,5,63,98,536446396
156,19,Jits_Linear_5,0,1,48,17,536939488
156,19,Jits_Linear_5,1,5,63,98,536956496
156,19,Jits_Linear_5,2,5,80,127,536975732
156,19,Jits_Linear_5,3,5,56,103,537015752
156,19,Jits_Linear_5,0,1,48,28,537472176
156,19,Jits_Linear_5,1,5,63,98,537516420
156,19,Jits_Linear_5,2,5,56,103,537535948
156,19,Jits_Linear_5,3,5,80,127,537546572
156,19,Jits_Linear_5,0,1,48,22,538036596
156,19,Jits_Linear_5,1,5,80,127,538075440
156,19,Jits_Linear_5,2,5,56,103,538096116
156,19,Jits_Linear_5,3,5,63,98,538125740
156,19,Jits_Linear_5,0,1,48,26,538557544
156,19,Jits_Linear_5,1,5,56,103,538715476
156,19,Jits_Linear_5,2,5,80,127,538718536
156,19,Jits_Linear_5,3,5,63,98,538736200
156,19,Jits_Linear_5,0,1,48,22,539123300
156,19,Jits_Linear_5,1,5,63,98,539206216
156,19,Jits_Linear_5,2,5,56,103,539235828
156,19,Jits_Linear_5,3,5,80,127,539296192
156,19,Jits_Linear_5,0,1,48,15,539688840
156,19,Jits_Linear_5,1,5,63,98,539856180
156,19,Jits_Linear_5,2,5,56,103,539865392
156,19,Jits_Linear_5,3,5,80,127,539875644
156,19,Jits_Linear_5,0,1,48,15,540321292
156,19,Jits_Linear_5,1,5,56,103,540376380
156,19,Jits_Linear_5,2,5,80,127,540406328
156,19,Jits_Linear_5,3,5,63,98,540416420
156,19,Jits_Linear_5,0,1,48,28,540863180
156,19,Jits_Linear_5,1,5,63,98,540985680
156,19,Jits_Linear_5,2,5,56,103,540996452
156,19,Jits_Linear_5,3,5,80,127,541016360
156,19,Jits_Linear_5,0,1,48,20,541461360
156,19,Jits_Linear_5,1,5,56,103,541485480
156,19,Jits_Linear_5,2,5,63,98,541545772
156,19,Jits_Linear_5,3,5,80,127,541549280
156,19,Jits_Linear_5,0,1,48,28,541999432
156,19,Jits_Linear_5,1,5,80,127,542095876
156,19,Jits_Linear_5,2,5,56,103,542106116
156,19,Jits_Linear_5,3,5,63,98,542175680
156,19,Jits_Linear_5,0,5,80,127,542666052
156,19,Jits_Linear_5,1,5,56,103,542735720
156,19,Jits_Linear_5,2,5,63,98,542746048
156,19,Jits_Linear_5,0,1,48,27,543222108
156,19,Jits_Linear_5,1,5,63,98,543285500
156,19,Jits_Linear_5,2,5,56,103,543295976
156,19,Jits_Linear_5,3,5,80,127,543316400
156,19,Jits_Linear_5,0,1,48,36,543826496
156,19,Jits_Linear_5,1,5,80,127,543828140
156,19,Jits_Linear_5,2,5,63,98,543885964
156,19,Jits_Linear_5,3,5,56,103,543925672
156,19,Jits_Linear_5,0,1,48,31,544414968
156,19,Jits_Linear_5,1,5,56,103,544456056
156,19,Jits_Linear_5,2,5,63,98,544466236
156,19,Jits_Linear_5,3,5,80,127,544506208
156,19,Jits_Linear_5,0,5,56,103,545006056
156,19,Jits_Linear_5,1,5,80,127,545035612
156,19,Jits_Linear_5,2,1,48,26,545044336
156,19,Jits_Linear_5,3,5,63,98,545086244
156,19,Jits_Linear_5,0,1,48,26,545580168
156,19,Jits_Linear_5,1,5,56,103,545635624
156,19,Jits_Linear_5,2,5,63,98,545675568
156,19,Jits_Linear_5,3,5,80,127,545679812
156,19,Jits_Linear_5,0,1,48,28,546183076
156,19,Jits_Linear_5,1,5,56,103,546225456
156,19,Jits_Linear_5,2,5,63,98,546235860
156,19,Jits_Linear_5,3,5,80,127,546256212
156,19,Jits_Linear_5,0,1,48,29,546750104
156,19,Jits_Linear_5,1,5,56,103,546776392
156,19,Jits_Linear_5,2,5,80,127,546779676
156,19,Jits_Linear_5,3,5,63,98,546816288
156,19,Jits_Linear_5,0,1,48,30,547335480
156,19,Jits_Linear_5,1,5,63,98,547406260
156,19,Jits_Linear_5,2,5,56,103,547435948
156,19,Jits_Linear_5,3,5,80,127,547456300
156,19,Jits_Linear_5,0,1,48,27,547946036
156,19,Jits_Linear_5,1,5,80,127,547975756
156,19,Jits_Linear_5,2,5,56,103,547985936
156,19,Jits_Linear_5,3,5,63,98,547996112
156,19,Jits_Linear_5,0,1,48,17,548532640
156,19,Jits_Linear_5,1,5,56,103,548575760
156,19,Jits_Linear_5,2,5,80,127,548615732
156,19,Jits_Linear_5,3,5,63,98,548646240
156,19,Jits_Linear_5,0,1,48,29,549094916
156,19,Jits_Linear_5,1,5,63,98,549185892
156,19,Jits_Linear_5,2,5,80,127,549196132
156,19,Jits_Linear_5,3,5,56,103,549206388
156,19,Jits_Linear_5,0,1,48,20,549730368
156,19,Jits_Linear_5,1,5,56,103,549765704
156,19,Jits_Linear_5,2,5,63,98,549836080
156,19,Jits_Linear_5,3,5,80,127,549846336
156,19,Jits_Linear_5,0,5,80,127,550375764
156,19,Jits_Linear_5,1,1,48,29,550376652
156,19,Jits_Linear_5,2,5,56,103,550386008
156,19,Jits_Linear_5,3,5,63,98,550436204
156,19,Jits_Linear_5,0,1,48,22,550961608
156,19,Jits_Linear_5,1,5,80,127,550996420
156,19,Jits_Linear_5,2,5,56,103,551055668
156,19,Jits_Linear_5,3,5,63,98,551085728
156,19,Jits_Linear_5,0,1,48,28,551514656
156,19,Jits_Linear_5,1,5,56,103,551605556
156,19,Jits_Linear_5,2,5,80,127,551608620
156,19,Jits_Linear_5,3,5,63,98,551645564
156,19,Jits_Linear_5,0,1,48,37,552131696
156,19,Jits_Linear_5,1,5,56,103,552245732
156,19,Jits_Linear_5,2,5,63,98,552276556
156,19,Jits_Linear_5,3,5,80,127,552285688
156,19,Jits_Linear_5,0,1,48,29,552740856
156,19,Jits_Linear_5,1,5,63,98,552866164
156,19,Jits_Linear_5,2,5,80,127,552876568
156,19,Jits_Linear_5,3,5,56,103,552885556
156,19,Jits_Linear_5,0,1,48,29,553338260
156,19,Jits_Linear_5,1,5,80,127,553426544
156,19,Jits_Linear_5,2,5,56,103,553475556
156,19,Jits_Linear_5,3,5,63,98,553478472
156,19,Jits_Linear_5,0,1,48,23,553965960
156,19,Jits_Linear_5,1,5,56,103,554075476
156,19,Jits_Linear_5,2,5,80,127,554095904
156,19,Jits_Linear_5,3,5,63,98,554106156
156,19,Jits_Linear_5,0,1,48,27,554624836
156,19,Jits_Linear_5,1,5,63,98,554675428
156,19,Jits_Linear_5,2,5,56,103,554706472
156,19,Jits_Linear_5,3,5,80,127,554725712
156,19,Jits_Linear_5,0,1,48,35,555260016
156,19,Jits_Linear_5,1,5,56,103,555306716
156,19,Jits_Linear_5,2,5,80,127,555315480
156,19,Jits_Linear_5,3,5,63,98,555386300
156,19,Jits_Linear_5,0,5,63,98,555915640
156,19,Jits_Linear_5,1,1,48,27,555925116
156,19,Jits_Linear_5,2,5,80,127,555955508
156,19,Jits_Linear_5,3,5,56,103,555995456
156,19,Jits_Linear_5,0,5,56,103,556555544
156,19,Jits_Linear_5,1,5,63,98,556565800
156,19,Jits_Linear_5,2,5,80,127,556586372
156,19,Jits_Linear_5,0,1,48,25,557103284
156,19,Jits_Linear_5,1,5,63,98,557226480
156,19,Jits_Linear_5,2,5,80,127,557245936
156,19,Jits_Linear_5,3,5,56,103,557266288
156,19,Jits_Linear_5,0,1,48,29,557762600
156,19,Jits_Linear_5,1,5,56,103,557795620
156,19,Jits_Linear_5,2,5,80,127,557875592
156,19,Jits_Linear_5,3,5,63,98,557885848
156,19,Jits_Linear_5,0,1,48,14,558372648
156,19,Jits_Linear_5,1,5,80,127,558466544
156,19,Jits_Linear_5,2,5,63,98,558475608
156,19,Jits_Linear_5,3,5,56,103,558506500
156,19,Jits_Linear_5,0,1,48,29,559033244
156,19,Jits_Linear_5,1,5,63,98,559056324
156,19,Jits_Linear_5,2,5,80,127,559096368
156,19,Jits_Linear_5,3,5,56,103,559155676
156,19,Jits_Linear_5,0,1,48,29,559635092
156,19,Jits_Linear_5,1,5,63,98,559696300
156,19,Jits_Linear_5,2,5,56,103,559746336
156,19,Jits_Linear_5,3,5,80,127,559776108
156,19,Jits_Linear_5,0,1,48,29,560301068
156,19,Jits_Linear_5,1,5,80,127,560345384
156,19,Jits_Linear_5,2,5,63,98,560355860
156,19,Jits_Linear_5,3,5,56,103,560426380
156,19,Jits_Linear_5,0,1,48,26,560970340
156,19,Jits_Linear_5,1,5,80,127,561056164
156,19,Jits_Linear_5,2,5,56,103,561066420
156,19,Jits_Linear_5,3,5,63,98,561069480
156,19,Jits_Linear_5,0,1,48,29,561598320
156,19,Jits_Linear_5,1,5,56,103,561635676
156,19,Jits_Linear_5,2,5,80,127,561656252
156,19,Jits_Linear_5,3,5,63,98,561666284
156,19,Jits_Linear_5,0,1,48,39,562216584
156,19,Jits_Linear_5,1,5,63,98,562286172
156,19,Jits_Linear_5,2,5,56,103,562325956
156,19,Jits_Linear_5,3,5,80,127,562346236
156,19,Jits_Linear_5,0,1,48,37,562838212
156,19,Jits_Linear_5,1,5,63,98,562936088
156,19,Jits_Linear_5,2,5,56,103,562995780
156,19,Jits_Linear_5,3,5,80,127,562998696
156,19,Jits_Linear_5,0,1,48,31,563510716
156,19,Jits_Linear_5,1,5,56,103,563545384
156,19,Jits_Linear_5,2,5,80,127,563566032
156,19,Jits_Linear_5,3,5,63,98,563606564
156,19,Jits_Linear_5,0,1,48,16,564178792
156,19,Jits_Linear_5,1,5,56,103,564226420
156,19,Jits_Linear_5,2,5,63,98,564245872
156,19,Jits_Linear_5,3,5,80,127,564255980
156,19,Jits_Linear_5,0,1,48,35,564805604
156,19,Jits_Linear_5,1,5,80,127,564845948
156,19,Jits_Linear_5,2,5,56,103,564875576
156,19,Jits_Linear_5,3,5,63,98,564915508
156,19,Jits_Linear_5,0,1,48,31,565423856
156,19,Jits_Linear_5,1,5,80,127,565506408
156,19,Jits_Linear_5,2,5,56,103,565525848
156,19,Jits_Linear_5,3,5,63,98,565586212
156,19,Jits_Linear_5,0,1,48,29,566085676
156,19,Jits_Linear_5,1,5,56,103,566165808
156,19,Jits_Linear_5,2,5,80,127,566186292
156,19,Jits_Linear_5,3,5,63,98,566245860
156,19,Jits_Linear_5,0,1,48,31,566710356
156,19,Jits_Linear_5,1,5,80,127,566805768
156,19,Jits_Linear_5,2,5,56,103,566816244
156,19,Jits_Linear_5,3,5,63,98,566856116
156,19,Jits_Linear_5,0,1,48,28,567355268
156,19,Jits_Linear_5,1,5,63,98,567466280
156,19,Jits_Linear_5,2,5,56,103,567506300
156,19,Jits_Linear_5,3,5,80,127,567509216
156,19,Jits_Linear_5,0,1,48,39,567971628
156,19,Jits_Linear_5,1,5,63,98,568146260
156,19,Jits_Linear_5,2,5,80,127,568186208
156,19,Jits_Linear_5,3,5,56,103,568215908
156,19,Jits_Linear_5,0,1,48,40,568690148
156,19,Jits_Linear_5,1,5,56,103,568795784
156,19,Jits_Linear_5,2,5,63,98,568805840
156,19,Jits_Linear_5,3,5,80,127,568835392
156,19,Jits_Linear_5,0,1,48,34,569369388
156,19,Jits_Linear_5,1,5,80,127,569455964
156,19,Jits_Linear_5,2,5,63,98,569525816
156,19,Jits_Linear_5,3,5,56,103,569535848
156,19,Jits_Linear_5,0,1,48,31,570052268
156,19,Jits_Linear_5,1,5,63,98,570125784
156,19,Jits_Linear_5,2,5,56,103,570196604
156,19,Jits_Linear_5,3,5,80,127,570205668
156,19,Jits_Linear_5,0,1,48,32,570692320
156,19,Jits_Linear_5,1,5,63,98,570796460
156,19,Jits_Linear_5,2,5,56,103,570815840
156,19,Jits_Linear_5,3,5,80,127,570855740
156,19,Jits_Linear_5,0,1,48,33,571354864
156,19,Jits_Linear_5,1,5,56,103,571476376
156,19,Jits_Linear_5,2,5,63,98,571485660
156,19,Jits_Linear_5,3,5,80,127,571565620
156,19,Jits_Linear_5,0,1,48,38,572034416
156,19,Jits_Linear_5,1,5,63,98,572135800
156,19,Jits_Linear_5,2,5,56,103,572165648
156,19,Jits_Linear_5,3,5,80,127,572205524
156,19,Jits_Linear_5,0,1,48,15,572762264
156,19,Jits_Linear_5,1,5,56,103,572805680
156,19,Jits_Linear_5,2,5,63,98,572845628
156,19,Jits_Linear_5,3,5,80,127,572886532
156,19,Jits_Linear_5,0,1,48,26,573405364
156,19,Jits_Linear_5,1,5,80,127,573485376
156,19,Jits_Linear_5,2,5,56,103,573566444
156,19,Jits_Linear_5,3,5,63,98,573575576
156,19,Jits_Linear_5,0,1,48,32,574111080
156,19,Jits_Linear_5,1,5,56,103,574206428
156,19,Jits_Linear_5,2,5,63,98,574210372
156,19,Jits_Linear_5,3,5,80,127,574215624
156,19,Jits_Linear_5,0,1,48,39,574725468
156,19,Jits_Linear_5,1,5,56,103,574905672
156,19,Jits_Linear_5,2,5,63,98,574926468
156,19,Jits_Linear_5,3,5,80,127,574936576
156,19,Jits_Linear_5,0,1,48,37,575477868
156,19,Jits_Linear_5,1,5,63,98,575545736
156,19,Jits_Linear_5,2,5,80,127,575555916
156,19,Jits_Linear_5,3,5,56,103,575576476
156,19,Jits_Linear_5,0,1,48,40,576108532
156,19,Jits_Linear_5,1,5,63,98,576235956
156,19,Jits_Linear_5,2,5,56,103,576315772
156,19,Jits_Linear_5,3,5,80,127,576318760
156,19,Jits_Linear_5,0,1,48,32,576801676
156,19,Jits_Linear_5,1,5,63,98,576926164
156,19,Jits_Linear_5,2,5,56,103,576945396
156,19,Jits_Linear_5,3,5,80,127,576976292
156,19,Jits_Linear_5,0,1,48,34,577490096
156,19,Jits_Linear_5,1,5,56,103,577616324
156,19,Jits_Linear_5,2,5,63,98,577635632
156,19,Jits_Linear_5,3,5,80,127,577646032
156,19,Jits_Linear_5,0,1,48,37,578124992
156,19,Jits_Linear_5,1,5,56,103,578336180
156,19,Jits_Linear_5,2,5,63,98,578365808
156,19,Jits_Linear_5,3,5,80,127,578369312
156,19,Jits_Linear_5,0,1,48,35,578927560
156,19,Jits_Linear_5,1,5,56,103,578976136
156,19,Jits_Linear_5,2,5,63,98,579016232
156,19,Jits_Linear_5,3,5,80,127,579075340
156,19,Jits_Linear_5,0,1,48,36,579610092
156,19,Jits_Linear_5,1,5,56,103,579685820
156,19,Jits_Linear_5,2,5,63,98,579696372
156,19,Jits_Linear_5,3,5,80,127,579756428
156,19,Jits_Linear_5,0,1,48,38,580245852
156,19,Jits_Linear_5,1,5,56,103,580386204
156,19,Jits_Linear_5,2,5,80,127,580405516
156,19,Jits_Linear_5,3,5,63,98,580436260
156,19,Jits_Linear_5,0,1,48,37,581001896
156,19,Jits_Linear_5,1,5,80,127,581085632
156,19,Jits_Linear_5,2,5,56,103,581095752
156,19,Jits_Linear_5,3,5,63,98,581116324
156,19,Jits_Linear_5,0,1,48,35,581646212
156,19,Jits_Linear_5,1,5,63,98,581775628
156,19,Jits_Linear_5,2,5,80,127,581855596
156,19,Jits_Linear_5,3,5,56,103,581866096
156,19,Jits_Linear_5,0,1,48,28,582350332
156,19,Jits_Linear_5,1,5,80,127,582535580
156,19,Jits_Linear_5,2,5,56,103,582556228
156,19,Jits_Linear_5,3,5,63,98,582559292
156,19,Jits_Linear_5,0,1,48,29,582998980
156,19,Jits_Linear_5,1,5,63,98,583215336
156,19,Jits_Linear_5,2,5,80,127,583218628
156,19,Jits_Linear_5,3,5,56,103,583276004
156,19,Jits_Linear_5,0,1,48,33,583791160
156,19,Jits_Linear_5,1,5,56,103,583905772
156,19,Jits_Linear_5,2,5,80,127,583916024
156,19,Jits_Linear_5,3,5,63,98,583955752
156,19,Jits_Linear_5,0,1,48,38,584465972
156,19,Jits_Linear_5,1,5,56,103,584595980
156,19,Jits_Linear_5,2,5,63,98,584656276
156,19,Jits_Linear_5,3,5,80,127,584665484
156,19,Jits_Linear_5,0,1,48,33,585250520
156,19,Jits_Linear_5,1,5,63,98,585315928
156,19,Jits_Linear_5,2,5,80,127,585355564
156,19,Jits_Linear_5,3,5,56,103,585395440
156,19,Jits_Linear_5,0,1,48,36,585858980
156,19,Jits_Linear_5,1,5,56,103,586026420
156,19,Jits_Linear_5,2,5,63,98,586106160
156,19,Jits_Linear_5,3,5,80,127,586109444
156,19,Jits_Linear_5,0,1,48,32,586633596
156,19,Jits_Linear_5,1,5,80,127,586796388
156,19,Jits_Linear_5,2,5,56,103,586826236
156,19,Jits_Linear_5,3,5,63,98,586829148
156,19,Jits_Linear_5,0,1,48,40,587264284
156,19,Jits_Linear_5,1,5,56,103,587476348
156,19,Jits_Linear_5,2,5,80,127,587495904
156,19,Jits_Linear_5,3,5,63,98,587535924
156,19,Jits_Linear_5,0,1,48,29,588045848
156,19,Jits_Linear_5,1,5,80,127,588175932
156,19,Jits_Linear_5,2,5,63,98,588196136
156,19,Jits_Linear_5,3,5,56,103,588255752
156,19,Jits_Linear_5,0,1,48,34,588734164
156,19,Jits_Linear_5,1,5,63,98,588905784
156,19,Jits_Linear_5,2,5,56,103,588916040
156,19,Jits_Linear_5,3,5,80,127,588966160
156,19,Jits_Linear_5,0,1,48,32,589540352
156,19,Jits_Linear_5,1,5,56,103,589615560
156,19,Jits_Linear_5,2,5,63,98,589635896
156,19,Jits_Linear_5,3,5,80,127,589646224
156,19,Jits_Linear_5,0,1,48,29,590239768
156,19,Jits_Linear_5,1,5,56,103,590336296
156,19,Jits_Linear_5,2,5,63,98,590339356
156,19,Jits_Linear_5,3,5,80,127,590355748
156,19,Jits_Linear_5,0,1,48,28,591003896
156,19,Jits_Linear_5,1,5,63,98,591106696
156,19,Jits_Linear_5,2,5,56,103,591136028
156,19,Jits_Linear_5,3,5,80,127,591165804
156,19,Jits_Linear_5,0,1,48,28,591771688
156,19,Jits_Linear_5,1,5,80,127,591795656
156,19,Jits_Linear_5,2,5,56,103,591885800
156,19,Jits_Linear_5,3,5,63,98,591888788
156,19,Jits_Linear_5,0,1,48,35,592508596
156,19,Jits_Linear_5,1,5,56,103,592525676
156,19,Jits_Linear_5,2,5,80,127,592528812
156,19,Jits_Linear_5,3,5,63,98,592605636
156,19,Jits_Linear_5,0,1,48,36,593212796
156,19,Jits_Linear_5,1,5,80,127,593255692
156,19,Jits_Linear_5,2,5,63,98,593316492
156,19,Jits_Linear_5,3,5,56,103,593345824
156,19,Jits_Linear_5,0,1,48,32,593977696
156,19,Jits_Linear_5,1,5,63,98,593996124
156,19,Jits_Linear_5,2,5,80,127,594006600
156,19,Jits_Linear_5,3,5,56,103,594076004
156,19,Jits_Linear_5,0,1,48,34,594680784
156,19,Jits_Linear_5,1,5,56,103,594745596
156,19,Jits_Linear_5,2,5,80,127,594776404
156,19,Jits_Linear_5,3,5,63,98,594825624
156,19,Jits_Linear_5,0,1,48,31,595427352
156,19,Jits_Linear_5,1,5,63,98,595525876
156,19,Jits_Linear_5,2,5,56,103,595555724
156,19,Jits_Linear_5,3,5,80,127,595558636
156,19,Jits_Linear_5,0,1,48,20,596251608
156,19,Jits_Linear_5,1,5,63,98,596266308
156,19,Jits_Linear_5,2,5,80,127,596285912
156,19,Jits_Linear_5,3,5,56,103,596296164
156,19,Jits_Linear_5,0,1,48,36,596935104
156,19,Jits_Linear_5,1,5,56,103,597016008
156,19,Jits_Linear_5,2,5,63,98,597018996
156,19,Jits_Linear_5,3,5,80,127,597036492
156,19,Jits_Linear_5,0,1,48,40,597659576
156,19,Jits_Linear_5,1,5,56,103,597716456
156,19,Jits_Linear_5,2,5,63,98,597725516
156,19,Jits_Linear_5,3,5,80,127,597756420
156,19,Jits_Linear_5,0,1,48,36,598398728
156,19,Jits_Linear_5,1,5,63,98,598486352
156,19,Jits_Linear_5,2,5,80,127,598505816
156,19,Jits_Linear_5,3,5,56,103,598545840
156,19,Jits_Linear_5,0,1,48,29,599172436
156,19,Jits_Linear_5,1,5,56,103,599265536
156,19,Jits_Linear_5,2,5,63,98,599305556
156,19,Jits_Linear_5,3,5,80,127,599309064
156,19,Jits_Linear_5,0,5,80,127,599955760
156,19,Jits_Linear_5,1,1,48,38,599995636
156,19,Jits_Linear_5,2,5,56,103,599997268
156,19,Jits_Linear_5,3,5,63,98,600046068
156,19,Jits_Linear_5,0,1,48,45,600752852
156,19,Jits_Linear_5,1,5,56,103,600765684
156,19,Jits_Linear_5,2,5,80,127,600776308
156,19,Jits_Linear_5,3,5,63,98,600805664
156,19,Jits_Linear_5,0,5,56,103,601466100
156,19,Jits_Linear_5,1,5,80,127,601506272
156,19,Jits_Linear_5,2,1,48,33,601523216
156,19,Jits_Linear_5,3,5,63,98,601556308
156,19,Jits_Linear_5,0,5,56,103,602226208
156,19,Jits_Linear_5,1,1,48,35,602260064
156,19,Jits_Linear_5,2,5,80,127,602265928
156,19,Jits_Linear_5,3,5,63,98,602316124
156,19,Jits_Linear_5,0,5,80,127,602975780
156,19,Jits_Linear_5,1,1,48,37,603018908
156,19,Jits_Linear_5,2,5,63,98,603055588
156,19,Jits_Linear_5,3,5,56,103,603065988
156,19,Jits_Linear_5,0,1,48,40,603728524
156,19,Jits_Linear_5,1,5,80,127,603785552
156,19,Jits_Linear_5,2,5,56,103,603796176
156,19,Jits_Linear_5,3,5,63,98,603816232
156,19,Jits_Linear_5,0,5,63,98,604515812
156,19,Jits_Linear_5,1,1,48,30,604517672
156,19,Jits_Linear_5,2,5,56,103,604586344
156,19,Jits_Linear_5,3,5,80,127,604589404
156,19,Jits_Linear_5,0,5,80,127,605275456
156,19,Jits_Linear_5,1,1,48,33,605287992
156,19,Jits_Linear_5,2,5,63,98,605325868
156,19,Jits_Linear_5,3,5,56,103,605365888
156,19,Jits_Linear_5,0,1,48,26,605996344
156,19,Jits_Linear_5,1,5,63,98,606085456
156,19,Jits_Linear_5,2,5,56,103,606125388
156,19,Jits_Linear_5,3,5,80,127,606135788
156,19,Jits_Linear_5,0,1,48,30,606767808
156,19,Jits_Linear_5,1,5,63,98,606846300
156,19,Jits_Linear_5,2,5,56,103,606865964
156,19,Jits_Linear_5,3,5,80,127,606886316
156,19,Jits_Linear_5,0,1,48,35,607562528
156,19,Jits_Linear_5,1,5,80,127,607585828
156,19,Jits_Linear_5,2,5,56,103,607595860
156,19,Jits_Linear_5,3,5,63,98,607616284
156,19,Jits_Linear_5,0,1,48,40,608311776
156,19,Jits_Linear_5,1,5,63,98,608386312
156,19,Jits_Linear_5,2,5,56,103,608426244
156,19,Jits_Linear_5,3,5,80,127,608455948
156,19,Jits_Linear_5,0,1,48,25,609073464
156,19,Jits_Linear_5,1,5,56,103,609165620
156,19,Jits_Linear_5,2,5,63,98,609196444
156,19,Jits_Linear_5,3,5,80,127,609226140
156,19,Jits_Linear_5,0,1,48,29,609871836
156,19,Jits_Linear_5,1,5,80,127,609916380
156,19,Jits_Linear_5,2,5,56,103,609985860
156,19,Jits_Linear_5,3,5,63,98,609988996
156,19,Jits_Linear_5,0,1,48,20,610656992
156,19,Jits_Linear_5,1,5,56,103,610705788
156,19,Jits_Linear_5,2,5,63,98,610755896
156,19,Jits_Linear_5,3,5,80,127,610785768
156,19,Jits_Linear_5,0,1,48,21,611420672
156,19,Jits_Linear_5,1,5,63,98,611465584
156,19,Jits_Linear_5,2,5,80,127,611468872
156,19,Jits_Linear_5,3,5,56,103,611525936
156,19,Jits_Linear_5,0,1,48,34,612137748
156,19,Jits_Linear_5,1,5,56,103,612275692
156,19,Jits_Linear_5,2,5,80,127,612285800
156,19,Jits_Linear_5,3,5,63,98,612336092
156,19,Jits_Linear_5,0,1,48,44,612843920
156,19,Jits_Linear_5,1,5,63,98,613036536
156,19,Jits_Linear_5,2,5,56,103,613045524
156,19,Jits_Linear_5,3,5,80,127,613076344
156,19,Jits_Linear_5,0,1,48,32,613581832
156,19,Jits_Linear_5,1,5,63,98,613855896
156,19,Jits_Linear_5,2,5,80,127,613858876
156,19,Jits_Linear_5,3,5,56,103,613886412
156,19,Jits_Linear_5,0,1,48,37,614300624
156,19,Jits_Linear_5,1,5,63,98,614665572
156,19,Jits_Linear_5,2,5,56,103,614685996
156,19,Jits_Linear_5,3,5,80,127,614689428
156,19,Jits_Linear_5,4,1,48,40,615025240
156,19,Jits_Linear_5,0,5,63,98,615416308
156,19,Jits_Linear_5,1,5,56,103,615485656
156,19,Jits_Linear_5,2,5,80,127,615506452
156,19,Jits_Linear_5,0,1,48,35,615854140
156,19,Jits_Linear_5,1,5,56,103,616195412
156,19,Jits_Linear_5,2,5,63,98,616205740
156,19,Jits_Linear_5,3,5,80,127,616295876
156,19,Jits_Linear_5,0,1,48,33,616644064
156,19,Jits_Linear_5,1,5,56,103,617005456
156,19,Jits_Linear_5,2,5,80,127,617046376
156,19,Jits_Linear_5,3,5,63,98,617055584
156,19,Jits_Linear_5,0,1,48,37,617464440
156,19,Jits_Linear_5,1,5,56,103,617825532
156,19,Jits_Linear_5,2,5,63,98,617856356
156,19,Jits_Linear_5,3,5,80,127,617886204
156,19,Jits_Linear_5,0,1,48,35,618261848
156,19,Jits_Linear_5,1,5,80,127,618585552
156,19,Jits_Linear_5,2,5,63,98,618626472
156,19,Jits_Linear_5,3,5,56,103,618645924
156,19,Jits_Linear_5,0,1,48,38,619096672
156,19,Jits_Linear_5,1,5,56,103,619426272
156,19,Jits_Linear_5,2,5,80,127,619445508
156,19,Jits_Linear_5,3,5,63,98,619466232
156,19,Jits_Linear_5,0,1,48,34,619930888
156,19,Jits_Linear_5,1,5,63,98,620196244
156,19,Jits_Linear_5,2,5,56,103,620205384
156,19,Jits_Linear_5,3,5,80,127,620265844
156,19,Jits_Linear_5,0,1,48,25,620725696
156,19,Jits_Linear_5,1,5,56,103,621006156
156,19,Jits_Linear_5,2,5,63,98,621075900
156,19,Jits_Linear_5,3,5,80,127,621096252
156,19,Jits_Linear_5,4,1,48,35,621401976
156,19,Jits_Linear_5,0,5,56,103,621816168
156,19,Jits_Linear_5,1,5,63,98,621846096
156,19,Jits_Linear_5,2,5,80,127,621885968
156,19,Jits_Linear_5,3,1,48,26,622201944
156,19,Jits_Linear_5,0,5,63,98,622615996
156,19,Jits_Linear_5,1,5,56,103,622666116
156,19,Jits_Linear_5,2,5,80,127,622676444
156,19,Jits_Linear_5,0,1,48,29,623075588
156,19,Jits_Linear_5,1,5,56,103,623465928
156,19,Jits_Linear_5,2,5,63,98,623515972
156,19,Jits_Linear_5,3,5,80,127,623526152
156,19,Jits_Linear_5,0,1,48,25,623907940
156,19,Jits_Linear_5,1,5,56,103,624246144
156,19,Jits_Linear_5,2,5,63,98,624256548
156,19,Jits_Linear_5,3,5,80,127,624336136
156,19,Jits_Linear_5,0,9999,9999,9999,515463232
156,19,Jits_Linear_5,1,9999,9999,9999,515943516
156,19,Jits_Linear_5,2,9999,9999,9999,516423748
156,19,Jits_Linear_5,3,9999,9999,9999,516904048
156,19,Jits_Linear_5,4,9999,9999,9999,517383276
156,19,Jits_Linear_5,5,9999,9999,9999,517873792
156,19,Jits_Linear_5,6,9999,9999,9999,518363232
156,19,Jits_Linear_5,7,9999,9999,9999,518853740
156,19,Jits_Linear_5,8,9999,9999,9999,519343208
156,19,Jits_Linear_5,9,9999,9999,9999,519833720
156,19,Jits_Linear_5,10,9999,9999,9999,520333432
156,19,Jits_Linear_5,11,9999,9999,9999,520833140
156,19,Jits_Linear_5,12,9999,9999,9999,521333820
156,19,Jits_Linear_5,13,9999,9999,9999,521833528
156,19,Jits_Linear_5,14,9999,9999,9999,522333312
156,19,Jits_Linear_5,15,9999,9999,9999,522843208
156,19,Jits_Linear_5,16,9999,9999,9999,523353164
156,19,Jits_Linear_5,17,9999,9999,9999,523863124
156,19,Jits_Linear_5,18,9999,9999,9999,524374128
156,19,Jits_Linear_5,19,9999,9999,9999,524893288
156,19,Jits_Linear_5,20,9999,9999,9999,525413492
156,19,Jits_Linear_5,21,9999,9999,9999,525933620
156,19,Jits_Linear_5,22,9999,9999,9999,526453820
156,19,Jits_Linear_5,23,9999,9999,9999,526974024
156,19,Jits_Linear_5,24,9999,9999,9999,527493180
156,19,Jits_Linear_5,25,9999,9999,9999,528023624
156,19,Jits_Linear_5,26,9999,9999,9999,528554080
156,19,Jits_Linear_5,27,9999,9999,9999,529083456
156,19,Jits_Linear_5,28,9999,9999,9999,529613908
156,19,Jits_Linear_5,29,9999,9999,9999,530143312
156,19,Jits_Linear_5,30,9999,9999,9999,530684028
156,19,Jits_Linear_5,31,9999,9999,9999,531223676
156,19,Jits_Linear_5,32,9999,9999,9999,531763324
156,19,Jits_Linear_5,33,9999,9999,9999,532303960
156,19,Jits_Linear_5,34,9999,9999,9999,532843628
156,19,Jits_Linear_5,35,9999,9999,9999,533393464
156,19,Jits_Linear_5,36,9999,9999,9999,533943352
156,19,Jits_Linear_5,37,9999,9999,9999,534493248
156,19,Jits_Linear_5,38,9999,9999,9999,535043168
156,19,Jits_Linear_5,39,9999,9999,9999,535594036
156,19,Jits_Linear_5,40,9999,9999,9999,536153212
156,19,Jits_Linear_5,41,9999,9999,9999,536713292
156,19,Jits_Linear_5,42,9999,9999,9999,537273448
156,19,Jits_Linear_5,43,9999,9999,9999,537833544
156,19,Jits_Linear_5,44,9999,9999,9999,538393684
156,19,Jits_Linear_5,45,9999,9999,9999,538964072
156,19,Jits_Linear_5,46,9999,9999,9999,539533420
156,19,Jits_Linear_5,47,9999,9999,9999,540103788
156,19,Jits_Linear_5,48,9999,9999,9999,540673092
156,19,Jits_Linear_5,49,9999,9999,9999,541243484
156,19,Jits_Linear_5,50,9999,9999,9999,541824112
156,19,Jits_Linear_5,51,9999,9999,9999,542413948
156,19,Jits_Linear_5,52,9999,9999,9999,542993516
156,19,Jits_Linear_5,53,9999,9999,9999,543574104
156,19,Jits_Linear_5,54,9999,9999,9999,544163944
156,19,Jits_Linear_5,55,9999,9999,9999,544753732
156,19,Jits_Linear_5,56,9999,9999,9999,545343572
156,19,Jits_Linear_5,57,9999,9999,9999,545933420
156,19,Jits_Linear_5,58,9999,9999,9999,546523260
156,19,Jits_Linear_5,59,9999,9999,9999,547114072
156,19,Jits_Linear_5,60,9999,9999,9999,547713116
156,19,Jits_Linear_5,61,9999,9999,9999,548313196
156,19,Jits_Linear_5,62,9999,9999,9999,548913228
156,19,Jits_Linear_5,63,9999,9999,9999,549513312
156,19,Jits_Linear_5,64,9999,9999,9999,550113396
156,19,Jits_Linear_5,65,9999,9999,9999,550723668
156,19,Jits_Linear_5,66,9999,9999,9999,551333944
156,19,Jits_Linear_5,67,9999,9999,9999,551943240
156,19,Jits_Linear_5,68,9999,9999,9999,552553576
156,19,Jits_Linear_5,69,9999,9999,9999,553163836
156,19,Jits_Linear_5,70,9999,9999,9999,553783380
156,19,Jits_Linear_5,71,9999,9999,9999,554403956
156,19,Jits_Linear_5,72,9999,9999,9999,555023440
156,19,Jits_Linear_5,73,9999,9999,9999,555644016
156,19,Jits_Linear_5,74,9999,9999,9999,556263500
156,19,Jits_Linear_5,75,9999,9999,9999,556893296
156,19,Jits_Linear_5,76,9999,9999,9999,557524076
156,19,Jits_Linear_5,77,9999,9999,9999,558153808
156,19,Jits_Linear_5,78,9999,9999,9999,558783588
156,19,Jits_Linear_5,79,9999,9999,9999,559413316
156,19,Jits_Linear_5,80,9999,9999,9999,560053344
156,19,Jits_Linear_5,81,9999,9999,9999,560693368
156,19,Jits_Linear_5,82,9999,9999,9999,561333316
156,19,Jits_Linear_5,83,9999,9999,9999,561973344
156,19,Jits_Linear_5,84,9999,9999,9999,562613376
156,19,Jits_Linear_5,85,9999,9999,9999,563263592
156,19,Jits_Linear_5,86,9999,9999,9999,563913788
156,19,Jits_Linear_5,87,9999,9999,9999,564564084
156,19,Jits_Linear_5,88,9999,9999,9999,565213308
156,19,Jits_Linear_5,89,9999,9999,9999,565863524
156,19,Jits_Linear_5,90,9999,9999,9999,566523992
156,19,Jits_Linear_5,91,9999,9999,9999,567183460
156,19,Jits_Linear_5,92,9999,9999,9999,567843912
156,19,Jits_Linear_5,93,9999,9999,9999,568503388
156,19,Jits_Linear_5,94,9999,9999,9999,569163856
156,19,Jits_Linear_5,95,9999,9999,9999,569833600
156,19,Jits_Linear_5,96,9999,9999,9999,570503244
156,19,Jits_Linear_5,97,9999,9999,9999,571173956
156,19,Jits_Linear_5,98,9999,9999,9999,571843676
156,19,Jits_Linear_5,99,9999,9999,9999,572513344
156,19,Jits_Linear_5,100,9999,9999,9999,573193336
156,19,Jits_Linear_5,101,9999,9999,9999,573873228
156,19,Jits_Linear_5,102,9999,9999,9999,574553212
156,19,Jits_Linear_5,103,9999,9999,9999,575233132
156,19,Jits_Linear_5,104,9999,9999,9999,575914064
156,19,Jits_Linear_5,105,9999,9999,9999,576603252
156,19,Jits_Linear_5,106,9999,9999,9999,577293412
156,19,Jits_Linear_5,107,9999,9999,9999,577983548
156,19,Jits_Linear_5,108,9999,9999,9999,578673780
156,19,Jits_Linear_5,109,9999,9999,9999,579363940
156,19,Jits_Linear_5,110,9999,9999,9999,580063352
156,19,Jits_Linear_5,111,9999,9999,9999,580763752
156,19,Jits_Linear_5,112,9999,9999,9999,581463112
156,19,Jits_Linear_5,113,9999,9999,9999,582163524
156,19,Jits_Linear_5,114,9999,9999,9999,582863976
156,19,Jits_Linear_5,115,9999,9999,9999,583573584
156,19,Jits_Linear_5,116,9999,9999,9999,584283244
156,19,Jits_Linear_5,117,9999,9999,9999,584993900
156,19,Jits_Linear_5,118,9999,9999,9999,585703508
156,19,Jits_Linear_5,119,9999,9999,9999,586413160
156,19,Jits_Linear_5,120,9999,9999,9999,587134060
156,19,Jits_Linear_5,121,9999,9999,9999,587853916
156,19,Jits_Linear_5,122,9999,9999,9999,588573824
156,19,Jits_Linear_5,123,9999,9999,9999,589293676
156,19,Jits_Linear_5,124,9999,9999,9999,590013508
156,19,Jits_Linear_5,125,9999,9999,9999,590743668
156,19,Jits_Linear_5,126,9999,9999,9999,591473776
156,19,Jits_Linear_5,127,9999,9999,9999,592203872
156,19,Jits_Linear_5,128,9999,9999,9999,592933960
156,19,Jits_Linear_5,129,9999,9999,9999,593664068
156,19,Jits_Linear_5,130,9999,9999,9999,594413688
156,19,Jits_Linear_5,131,9999,9999,9999,595154012
156,19,Jits_Linear_5,132,9999,9999,9999,595893312
156,19,Jits_Linear_5,133,9999,9999,9999,596633664
156,19,Jits_Linear_5,134,9999,9999,9999,597374080
156,19,Jits_Linear_5,135,9999,9999,9999,598123628
156,19,Jits_Linear_5,136,9999,9999,9999,598873180
156,19,Jits_Linear_5,137,9999,9999,9999,599623772
156,19,Jits_Linear_5,138,9999,9999,9999,600373324
156,19,Jits_Linear_5,139,9999,9999,9999,601123940
156,19,Jits_Linear_5,140,9999,9999,9999,601883736
156,19,Jits_Linear_5,141,9999,9999,9999,602643552
156,19,Jits_Linear_5,142,9999,9999,9999,603403364
156,19,Jits_Linear_5,143,9999,9999,9999,604163180
156,19,Jits_Linear_5,144,9999,9999,9999,604924016
156,19,Jits_Linear_5,145,9999,9999,9999,605694064
156,19,Jits_Linear_5,146,9999,9999,9999,606464056
156,19,Jits_Linear_5,147,9999,9999,9999,607243376
156,19,Jits_Linear_5,148,9999,9999,9999,608013416
156,19,Jits_Linear_5,149,9999,9999,9999,608783464
156,19,Jits_Linear_5,150,9999,9999,9999,609563756
156,19,Jits_Linear_5,151,9999,9999,9999,610344036
156,19,Jits_Linear_5,152,9999,9999,9999,611123284
156,19,Jits_Linear_5,153,9999,9999,9999,611903560
156,19,Jits_Linear_5,154,9999,9999,9999,612683852
156,19,Jits_Linear_5,155,9999,9999,9999,613473340
156,19,Jits_Linear_5,156,9999,9999,9999,614263864
156,19,Jits_Linear_5,157,9999,9999,9999,615053420
156,19,Jits_Linear_5,158,9999,9999,9999,615843968
156,19,Jits_Linear_5,159,9999,9999,9999,616633464
156,19,Jits_Linear_5,160,9999,9999,9999,617433184
156,19,Jits_Linear_5,161,9999,9999,9999,618233912
156,19,Jits_Linear_5,162,9999,9999,9999,619033720
156,19,Jits_Linear_5,163,9999,9999,9999,619833460
156,19,Jits_Linear_5,164,9999,9999,9999,620633200
156,19,Jits_Linear_5,165,9999,9999,9999,621443184
156,19,Jits_Linear_5,166,9999,9999,9999,622253168
156,19,Jits_Linear_5,167,9999,9999,9999,623063096
156,19,Jits_Linear_5,168,9999,9999,9999,623873116
156,19,Jits_Linear_5,169,9999,9999,9999,624683100
157,7,Jits_ISO_8,0,5,56,103,664258956
157,7,Jits_ISO_8,1,5,63,98,664261900
157,7,Jits_ISO_8,2,5,80,127,664265168
157,7,Jits_ISO_8,0,5,56,103,665058792
157,7,Jits_ISO_8,1,5,63,98,665062036
157,7,Jits_ISO_8,2,5,80,127,665065000
157,7,Jits_ISO_8,0,5,80,127,665799052
157,7,Jits_ISO_8,1,1,48,48,665863520
157,7,Jits_ISO_8,2,5,63,98,665889056
157,7,Jits_ISO_8,3,5,56,103,665899236
157,7,Jits_ISO_8,0,5,56,103,666619112
157,7,Jits_ISO_8,1,1,48,48,666628020
157,7,Jits_ISO_8,2,5,63,98,666629804
157,7,Jits_ISO_8,3,5,80,127,666718668
157,7,Jits_ISO_8,0,5,63,98,667389180
157,7,Jits_ISO_8,1,1,48,41,667400820
157,7,Jits_ISO_8,2,5,80,127,667419024
157,7,Jits_ISO_8,3,5,56,103,667448872
157,7,Jits_ISO_8,0,1,48,43,668157480
157,7,Jits_ISO_8,1,5,56,103,668188916
157,7,Jits_ISO_8,2,5,80,127,668289728
157,7,Jits_ISO_8,3,5,63,98,668338656
157,7,Jits_ISO_8,0,5,56,103,668988752
157,7,Jits_ISO_8,1,5,80,127,669038872
157,7,Jits_ISO_8,2,1,48,39,669053940
157,7,Jits_ISO_8,3,5,63,98,669078884
157,7,Jits_ISO_8,0,5,80,127,669819104
157,7,Jits_ISO_8,1,5,63,98,669848804
157,7,Jits_ISO_8,2,1,48,42,669856616
157,7,Jits_ISO_8,3,5,56,103,669918536
157,7,Jits_ISO_8,0,1,48,33,670634828
157,7,Jits_ISO_8,1,5,63,98,670648704
157,7,Jits_ISO_8,2,5,56,103,670679524
157,7,Jits_ISO_8,3,5,80,127,670738780
157,7,Jits_ISO_8,0,5,56,103,671388916
157,7,Jits_ISO_8,1,5,80,127,671392056
157,7,Jits_ISO_8,2,1,48,32,671406096
157,7,Jits_ISO_8,3,5,63,98,671508752
157,7,Jits_ISO_8,0,1,48,38,672248064
157,7,Jits_ISO_8,1,5,56,103,672268580
157,7,Jits_ISO_8,2,5,80,127,672308604
157,7,Jits_ISO_8,3,5,63,98,672318856
157,7,Jits_ISO_8,0,5,56,103,673028400
157,7,Jits_ISO_8,1,5,80,127,673048824
157,7,Jits_ISO_8,2,1,48,37,673054552
157,7,Jits_ISO_8,3,5,63,98,673128852
157,7,Jits_ISO_8,0,5,80,127,673818888
157,7,Jits_ISO_8,1,1,48,33,673855276
157,7,Jits_ISO_8,2,5,56,103,673919560
157,7,Jits_ISO_8,3,5,63,98,673928548
157,7,Jits_ISO_8,0,5,63,98,674589028
157,7,Jits_ISO_8,1,5,80,127,674648424
157,7,Jits_ISO_8,2,5,56,103,674658528
157,7,Jits_ISO_8,3,1,48,33,674669568
157,7,Jits_ISO_8,0,5,56,103,675388768
157,7,Jits_ISO_8,1,1,48,35,675436452
157,7,Jits_ISO_8,2,5,63,98,675458404
157,7,Jits_ISO_8,3,5,80,127,675462056
157,7,Jits_ISO_8,0,1,48,34,676200680
157,7,Jits_ISO_8,1,5,63,98,676219328
157,7,Jits_ISO_8,2,5,56,103,676269372
157,7,Jits_ISO_8,3,5,80,127,676272508
157,7,Jits_ISO_8,0,1,48,31,676955080
157,7,Jits_ISO_8,1,5,56,103,676979196
157,7,Jits_ISO_8,2,5,80,127,676982256
157,7,Jits_ISO_8,3,5,63,98,677069388
157,7,Jits_ISO_8,0,1,48,33,677730280
157,7,Jits_ISO_8,1,5,63,98,677818872
157,7,Jits_ISO_8,2,5,56,103,677908720
157,7,Jits_ISO_8,3,5,80,127,677938420
157,7,Jits_ISO_8,0,1,48,25,678572668
157,7,Jits_ISO_8,1,5,56,103,678609276
157,7,Jits_ISO_8,2,5,63,98,678708548
157,7,Jits_ISO_8,3,5,80,127,678739292
157,7,Jits_ISO_8,0,1,48,31,679397884
157,7,Jits_ISO_8,1,5,63,98,679428352
157,7,Jits_ISO_8,2,5,56,103,679438608
157,7,Jits_ISO_8,3,5,80,127,679529020
157,7,Jits_ISO_8,0,1,48,35,680095348
157,7,Jits_ISO_8,1,5,63,98,680248656
157,7,Jits_ISO_8,2,5,56,103,680328616
157,7,Jits_ISO_8,3,5,80,127,680331604
157,7,Jits_ISO_8,0,1,48,32,680826344
157,7,Jits_ISO_8,1,5,80,127,681008452
157,7,Jits_ISO_8,2,5,63,98,681029100
157,7,Jits_ISO_8,3,5,56,103,681089392
157,7,Jits_ISO_8,0,1,48,30,681631784
157,7,Jits_ISO_8,1,5,56,103,681849188
157,7,Jits_ISO_8,2,5,63,98,681868860
157,7,Jits_ISO_8,3,5,80,127,681872144
157,7,Jits_ISO_8,0,1,48,26,682337432
157,7,Jits_ISO_8,1,5,63,98,682588488
157,7,Jits_ISO_8,2,5,80,127,682669348
157,7,Jits_ISO_8,3,5,56,103,682678780
157,7,Jits_ISO_8,0,1,48,29,683144644
157,7,Jits_ISO_8,1,5,63,98,683409024
157,7,Jits_ISO_8,2,5,56,103,683429156
157,7,Jits_ISO_8,3,5,80,127,683479568
157,7,Jits_ISO_8,0,1,48,28,683899712
157,7,Jits_ISO_8,1,5,80,127,684208520
157,7,Jits_ISO_8,2,5,63,98,684248392
157,7,Jits_ISO_8,3,5,56,103,684269216
157,7,Jits_ISO_8,4,1,48,31,684647272
157,7,Jits_ISO_8,0,5,56,103,685049160
157,7,Jits_ISO_8,1,5,63,98,685058292
157,7,Jits_ISO_8,2,5,80,127,685078868
157,7,Jits_ISO_8,3,1,48,35,685446136
157,7,Jits_ISO_8,0,5,56,103,685779260
157,7,Jits_ISO_8,1,5,63,98,685869492
157,7,Jits_ISO_8,2,5,80,127,685928884
157,7,Jits_ISO_8,3,1,48,35,686252560
157,7,Jits_ISO_8,0,5,80,127,686608740
157,7,Jits_ISO_8,1,5,56,103,686618920
157,7,Jits_ISO_8,2,5,63,98,686688784
157,7,Jits_ISO_8,0,1,48,36,687079544
157,7,Jits_ISO_8,1,5,63,98,687439208
157,7,Jits_ISO_8,2,5,80,127,687529344
157,7,Jits_ISO_8,3,5,56,103,687538624
157,7,Jits_ISO_8,4,1,48,36,687820420
157,7,Jits_ISO_8,0,5,63,98,688178628
157,7,Jits_ISO_8,1,5,80,127,688228748
157,7,Jits_ISO_8,2,5,56,103,688289112
157,7,Jits_ISO_8,0,1,48,34,688662132
157,7,Jits_ISO_8,1,5,56,103,689008932
157,7,Jits_ISO_8,2,5,80,127,689059276
157,7,Jits_ISO_8,3,5,63,98,689078804
157,7,Jits_ISO_8,0,1,48,28,689473312
157,7,Jits_ISO_8,1,5,56,103,689778984
157,7,Jits_ISO_8,2,5,80,127,689838528
157,7,Jits_ISO_8,3,5,63,98,689909088
157,7,Jits_ISO_8,0,1,48,35,690272984
157,7,Jits_ISO_8,1,5,56,103,690578876
157,7,Jits_ISO_8,2,5,80,127,690608728
157,7,Jits_ISO_8,3,5,63,98,690639324
157,7,Jits_ISO_8,0,1,48,27,691065924
157,7,Jits_ISO_8,1,5,56,103,691418420
157,7,Jits_ISO_8,2,5,80,127,691438996
157,7,Jits_ISO_8,3,5,63,98,691499356
157,7,Jits_ISO_8,0,1,48,28,691899540
157,7,Jits_ISO_8,1,5,80,127,692299096
157,7,Jits_ISO_8,2,5,56,103,692309572
157,7,Jits_ISO_8,3,5,63,98,692318632
157,7,Jits_ISO_8,0,1,48,32,692719740
157,7,Jits_ISO_8,1,5,56,103,693058840
157,7,Jits_ISO_8,2,5,80,127,693098712
157,7,Jits_ISO_8,3,5,63,98,693128636
157,7,Jits_ISO_8,0,1,48,24,693547080
157,7,Jits_ISO_8,1,5,56,103,693828964
157,7,Jits_ISO_8,2,5,63,98,693858592
157,7,Jits_ISO_8,3,5,80,127,693898612
157,7,Jits_ISO_8,0,1,48,38,694268896
157,7,Jits_ISO_8,1,5,80,127,694578452
157,7,Jits_ISO_8,2,5,63,98,694628648
157,7,Jits_ISO_8,3,5,56,103,694649296
157,7,Jits_ISO_8,0,1,48,23,695112320
157,7,Jits_ISO_8,1,5,56,103,695408864
157,7,Jits_ISO_8,2,5,80,127,695478580
157,7,Jits_ISO_8,3,5,63,98,695539192
157,7,Jits_ISO_8,0,1,48,29,695956960
157,7,Jits_ISO_8,1,5,80,127,696208688
157,7,Jits_ISO_8,2,5,63,98,696298848
157,7,Jits_ISO_8,3,5,56,103,696319348
157,7,Jits_ISO_8,0,1,48,27,696708836
157,7,Jits_ISO_8,1,5,63,98,697029156
157,7,Jits_ISO_8,2,5,56,103,697048632
157,7,Jits_ISO_8,3,5,80,127,697089472
157,7,Jits_ISO_8,0,1,48,24,697533324
157,7,Jits_ISO_8,1,5,80,127,697788656
157,7,Jits_ISO_8,2,5,63,98,697809232
157,7,Jits_ISO_8,3,5,56,103,697889216
157,7,Jits_ISO_8,0,1,48,22,698298376
157,7,Jits_ISO_8,1,5,63,98,698579420
157,7,Jits_ISO_8,2,5,56,103,698689028
157,7,Jits_ISO_8,3,5,80,127,698692164
157,7,Jits_ISO_8,0,1,48,29,699104856
157,7,Jits_ISO_8,1,5,63,98,699398484
157,7,Jits_ISO_8,2,5,56,103,699408656
157,7,Jits_ISO_8,3,5,80,127,699411948
157,7,Jits_ISO_8,0,1,48,26,699918728
157,7,Jits_ISO_8,1,5,56,103,700178764
157,7,Jits_ISO_8,2,5,80,127,700298592
157,7,Jits_ISO_8,3,5,63,98,700338464
157,7,Jits_ISO_8,0,1,48,31,700739272
157,7,Jits_ISO_8,1,5,56,103,700999008
157,7,Jits_ISO_8,2,5,80,127,701079044
157,7,Jits_ISO_8,3,5,63,98,701099320
157,7,Jits_ISO_8,0,1,48,33,701599084
157,7,Jits_ISO_8,1,5,56,103,701798976
157,7,Jits_ISO_8,2,5,63,98,701909228
157,7,Jits_ISO_8,3,5,80,127,701912664
157,7,Jits_ISO_8,0,1,48,29,702373284
157,7,Jits_ISO_8,1,5,56,103,702629216
157,7,Jits_ISO_8,2,5,80,127,702659064
157,7,Jits_ISO_8,3,5,63,98,702679488
157,7,Jits_ISO_8,0,1,48,33,703168980
157,7,Jits_ISO_8,1,5,63,98,703408444
157,7,Jits_ISO_8,2,5,56,103,703418844
157,7,Jits_ISO_8,3,5,80,127,703429100
157,7,Jits_ISO_8,0,1,48,22,703951216
157,7,Jits_ISO_8,1,5,80,127,704199060
157,7,Jits_ISO_8,2,5,56,103,704249132
157,7,Jits_ISO_8,3,5,63,98,704289224
157,7,Jits_ISO_8,0,1,48,28,704722760
157,7,Jits_ISO_8,1,5,80,127,705019328
157,7,Jits_ISO_8,2,5,63,98,705038784
157,7,Jits_ISO_8,3,5,56,103,705088976
157,7,Jits_ISO_8,0,1,48,35,705566284
157,7,Jits_ISO_8,1,5,80,127,705829172
157,7,Jits_ISO_8,2,5,56,103,705858872
157,7,Jits_ISO_8,3,5,63,98,705928736
157,7,Jits_ISO_8,0,1,48,30,706430068
157,7,Jits_ISO_8,1,5,56,103,706679032
157,7,Jits_ISO_8,2,5,80,127,706689360
157,7,Jits_ISO_8,3,5,63,98,706729380
157,7,Jits_ISO_8,0,1,48,29,707309356
157,7,Jits_ISO_8,1,5,56,103,707388748
157,7,Jits_ISO_8,2,5,63,98,707409676
157,7,Jits_ISO_8,3,5,80,127,707479096
157,7,Jits_ISO_8,0,5,63,98,708208992
157,7,Jits_ISO_8,1,5,80,127,708269508
157,7,Jits_ISO_8,2,5,56,103,708288740
157,7,Jits_ISO_8,3,1,48,32,708368840
157,7,Jits_ISO_8,0,5,80,127,708998720
157,7,Jits_ISO_8,1,5,56,103,709029096
157,7,Jits_ISO_8,2,5,63,98,709059016
157,7,Jits_ISO_8,3,1,48,37,709125648
157,7,Jits_ISO_8,0,5,56,103,709799300
157,7,Jits_ISO_8,1,1,48,33,709852180
157,7,Jits_ISO_8,2,5,63,98,709858640
157,7,Jits_ISO_8,3,5,80,127,709919152
157,7,Jits_ISO_8,0,5,80,127,710618684
157,7,Jits_ISO_8,1,1,48,38,710634588
157,7,Jits_ISO_8,2,5,56,103,710638884
157,7,Jits_ISO_8,3,5,63,98,710708520
157,7,Jits_ISO_8,0,1,48,34,711382036
157,7,Jits_ISO_8,1,5,80,127,711419336
157,7,Jits_ISO_8,2,5,63,98,711438572
157,7,Jits_ISO_8,3,5,56,103,711469392
157,7,Jits_ISO_8,0,5,80,127,712208844
157,7,Jits_ISO_8,1,5,63,98,712229492
157,7,Jits_ISO_8,2,1,48,17,712242628
157,7,Jits_ISO_8,3,5,56,103,712288660
157,7,Jits_ISO_8,0,1,48,35,712966392
157,7,Jits_ISO_8,1,5,80,127,713008596
157,7,Jits_ISO_8,2,5,56,103,713108884
157,7,Jits_ISO_8,3,5,63,98,713138660
157,7,Jits_ISO_8,0,1,48,26,713774804
157,7,Jits_ISO_8,1,5,63,98,713798924
157,7,Jits_ISO_8,2,5,80,127,713849488
157,7,Jits_ISO_8,3,5,56,103,713868644
157,7,Jits_ISO_8,0,1,48,37,714460036
157,7,Jits_ISO_8,1,5,80,127,714638596
157,7,Jits_ISO_8,2,5,56,103,714669412
157,7,Jits_ISO_8,3,5,63,98,714672400
157,7,Jits_ISO_8,0,1,48,33,715263064
157,7,Jits_ISO_8,1,5,63,98,715469372
157,7,Jits_ISO_8,2,5,56,103,715509196
157,7,Jits_ISO_8,3,5,80,127,715528504
157,7,Jits_ISO_8,0,1,48,36,716122508
157,7,Jits_ISO_8,1,5,80,127,716208484
157,7,Jits_ISO_8,2,5,63,98,716289352
157,7,Jits_ISO_8,3,5,56,103,716329372
157,7,Jits_ISO_8,0,1,48,38,717016916
157,7,Jits_ISO_8,1,5,63,98,717028756
157,7,Jits_ISO_8,2,5,80,127,717108720
157,7,Jits_ISO_8,3,5,56,103,717129204
157,7,Jits_ISO_8,0,5,56,103,717869280
157,7,Jits_ISO_8,1,5,63,98,717878712
157,7,Jits_ISO_8,2,5,80,127,717918508
157,7,Jits_ISO_8,3,1,48,31,717946444
157,7,Jits_ISO_8,0,5,56,103,718589308
157,7,Jits_ISO_8,1,5,80,127,718592368
157,7,Jits_ISO_8,2,1,48,41,718707012
157,7,Jits_ISO_8,3,5,63,98,718728424
157,7,Jits_ISO_8,0,5,56,103,719378808
157,7,Jits_ISO_8,1,5,63,98,719469020
157,7,Jits_ISO_8,2,5,80,127,719538512
157,7,Jits_ISO_8,3,1,48,32,719560172
157,7,Jits_ISO_8,0,5,63,98,720258384
157,7,Jits_ISO_8,1,5,80,127,720261668
157,7,Jits_ISO_8,2,1,48,37,720308472
157,7,Jits_ISO_8,3,5,56,103,720318892
157,7,Jits_ISO_8,0,1,48,36,721095112
157,7,Jits_ISO_8,1,5,80,127,721099260
157,7,Jits_ISO_8,2,5,56,103,721118592
157,7,Jits_ISO_8,3,5,63,98,721129288
157,7,Jits_ISO_8,0,5,56,103,721808888
157,7,Jits_ISO_8,1,5,63,98,721818920
157,7,Jits_ISO_8,2,1,48,26,721857416
157,7,Jits_ISO_8,3,5,80,127,721888652
157,7,Jits_ISO_8,0,1,48,37,722569048
157,7,Jits_ISO_8,1,5,80,127,722608492
157,7,Jits_ISO_8,2,5,56,103,722658860
157,7,Jits_ISO_8,3,5,63,98,722709036
157,7,Jits_ISO_8,0,1,48,41,723402372
157,7,Jits_ISO_8,1,5,56,103,723489120
157,7,Jits_ISO_8,2,5,63,98,723499432
157,7,Jits_ISO_8,3,5,80,127,723539304
157,7,Jits_ISO_8,0,1,48,34,724228068
157,7,Jits_ISO_8,1,5,56,103,724229856
157,7,Jits_ISO_8,2,5,63,98,724269360
157,7,Jits_ISO_8,3,5,80,127,724318728
157,7,Jits_ISO_8,0,1,48,34,724981560
157,7,Jits_ISO_8,1,5,80,127,724989292
157,7,Jits_ISO_8,2,5,56,103,725038592
157,7,Jits_ISO_8,3,5,63,98,725058792
157,7,Jits_ISO_8,0,1,48,38,725753544
157,7,Jits_ISO_8,1,5,80,127,725799204
157,7,Jits_ISO_8,2,5,63,98,725858884
157,7,Jits_ISO_8,3,5,56,103,725938696
157,7,Jits_ISO_8,0,1,48,36,726565412
157,7,Jits_ISO_8,1,5,80,127,726578760
157,7,Jits_ISO_8,2,5,56,103,726618636
157,7,Jits_ISO_8,3,5,63,98,726638912
157,7,Jits_ISO_8,0,1,48,39,727331648
157,7,Jits_ISO_8,1,5,56,103,727428752
157,7,Jits_ISO_8,2,5,80,127,727438860
157,7,Jits_ISO_8,3,5,63,98,727478732
157,7,Jits_ISO_8,0,1,48,39,728084796
157,7,Jits_ISO_8,1,5,56,103,728298840
157,7,Jits_ISO_8,2,5,63,98,728338784
157,7,Jits_ISO_8,3,5,80,127,728342068
157,7,Jits_ISO_8,0,1,48,32,728979248
157,7,Jits_ISO_8,1,5,63,98,728989000
157,7,Jits_ISO_8,2,5,80,127,729028948
157,7,Jits_ISO_8,3,5,56,103,729098672
157,7,Jits_ISO_8,0,5,63,98,729778652
157,7,Jits_ISO_8,1,1,48,30,729803828
157,7,Jits_ISO_8,2,5,56,103,729858560
157,7,Jits_ISO_8,3,5,80,127,729918908
157,7,Jits_ISO_8,0,5,80,127,730588744
157,7,Jits_ISO_8,1,1,48,30,730589708
157,7,Jits_ISO_8,2,5,63,98,730638636
157,7,Jits_ISO_8,3,5,56,103,730669604
157,7,Jits_ISO_8,0,1,48,24,731351816
157,7,Jits_ISO_8,1,5,56,103,731379148
157,7,Jits_ISO_8,2,5,63,98,731429344
157,7,Jits_ISO_8,3,5,80,127,731438480
157,7,Jits_ISO_8,0,1,48,27,732092360
157,7,Jits_ISO_8,1,5,56,103,732188988
157,7,Jits_ISO_8,2,5,63,98,732298480
157,7,Jits_ISO_8,3,5,80,127,732319128
157,7,Jits_ISO_8,0,1,48,28,732869084
157,7,Jits_ISO_8,1,5,63,98,732988724
157,7,Jits_ISO_8,2,5,80,127,733038844
157,7,Jits_ISO_8,3,5,56,103,733128972
157,7,Jits_ISO_8,0,1,48,29,733634340
157,7,Jits_ISO_8,1,5,63,98,733779564
157,7,Jits_ISO_8,2,5,80,127,733809044
157,7,Jits_ISO_8,3,5,56,103,733899248
157,7,Jits_ISO_8,0,1,48,32,734383524
157,7,Jits_ISO_8,1,5,63,98,734579016
157,7,Jits_ISO_8,2,5,56,103,734589344
157,7,Jits_ISO_8,3,5,80,127,734688624
157,7,Jits_ISO_8,0,1,48,27,735243656
157,7,Jits_ISO_8,1,5,63,98,735479240
157,7,Jits_ISO_8,2,5,80,127,735508940
157,7,Jits_ISO_8,3,5,56,103,735538568
157,7,Jits_ISO_8,0,1,48,31,736014164
157,7,Jits_ISO_8,1,5,80,127,736299340
157,7,Jits_ISO_8,2,5,63,98,736308552
157,7,Jits_ISO_8,3,5,56,103,736339368
157,7,Jits_ISO_8,0,1,48,25,736859332
157,7,Jits_ISO_8,1,5,80,127,736998720
157,7,Jits_ISO_8,2,5,63,98,737019292
157,7,Jits_ISO_8,3,5,56,103,737069484
157,7,Jits_ISO_8,0,1,48,25,737641648
157,7,Jits_ISO_8,1,5,63,98,737829204
157,7,Jits_ISO_8,2,5,80,127,737888676
157,7,Jits_ISO_8,3,5,56,103,737909248
157,7,Jits_ISO_8,0,1,48,25,738406372
157,7,Jits_ISO_8,1,5,63,98,738589232
157,7,Jits_ISO_8,2,5,56,103,738639352
157,7,Jits_ISO_8,3,5,80,127,738648412
157,7,Jits_ISO_8,0,1,48,28,739155708
157,7,Jits_ISO_8,1,5,56,103,739418448
157,7,Jits_ISO_8,2,5,80,127,739428924
157,7,Jits_ISO_8,3,5,63,98,739529228
157,7,Jits_ISO_8,0,1,48,25,740009028
157,7,Jits_ISO_8,1,5,80,127,740179372
157,7,Jits_ISO_8,2,5,63,98,740188508
157,7,Jits_ISO_8,3,5,56,103,740339020
157,7,Jits_ISO_8,0,1,48,25,740947104
157,7,Jits_ISO_8,1,5,63,98,740989232
157,7,Jits_ISO_8,2,5,80,127,741029332
157,7,Jits_ISO_8,3,5,56,103,741109300
157,7,Jits_ISO_8,0,1,48,29,741759116
157,7,Jits_ISO_8,1,5,56,103,741778956
157,7,Jits_ISO_8,2,5,80,127,741879272
157,7,Jits_ISO_8,3,5,63,98,741898580
157,7,Jits_ISO_8,0,1,48,27,742606196
157,7,Jits_ISO_8,1,5,80,127,742639092
157,7,Jits_ISO_8,2,5,56,103,742649200
157,7,Jits_ISO_8,3,5,63,98,742739312
157,7,Jits_ISO_8,0,1,48,27,743417880
157,7,Jits_ISO_8,1,5,56,103,743438844
157,7,Jits_ISO_8,2,5,63,98,743459120
157,7,Jits_ISO_8,3,5,80,127,743538992
157,7,Jits_ISO_8,0,5,63,98,744189308
157,7,Jits_ISO_8,1,1,48,29,744249720
157,7,Jits_ISO_8,2,5,56,103,744279280
157,7,Jits_ISO_8,3,5,80,127,744282496
157,7,Jits_ISO_8,0,5,56,103,745018740
157,7,Jits_ISO_8,1,1,48,32,745048036
157,7,Jits_ISO_8,2,5,80,127,745079100
157,7,Jits_ISO_8,3,5,63,98,745089352
157,7,Jits_ISO_8,0,1,48,38,745842548
157,7,Jits_ISO_8,1,5,80,127,745868760
157,7,Jits_ISO_8,2,5,56,103,745878864
157,7,Jits_ISO_8,3,5,63,98,745882072
157,7,Jits_ISO_8,0,5,56,103,746628568
157,7,Jits_ISO_8,1,5,80,127,746638672
157,7,Jits_ISO_8,2,5,63,98,746659172
157,7,Jits_ISO_8,3,1,48,42,746664228
157,7,Jits_ISO_8,0,5,63,98,747398780
157,7,Jits_ISO_8,1,5,80,127,747458852
157,7,Jits_ISO_8,2,1,48,32,747476344
157,7,Jits_ISO_8,3,5,56,103,747509064
157,7,Jits_ISO_8,0,1,48,30,748196540
157,7,Jits_ISO_8,1,5,63,98,748279108
157,7,Jits_ISO_8,2,5,56,103,748289572
157,7,Jits_ISO_8,3,5,80,127,748338864
157,7,Jits_ISO_8,0,5,63,98,748978840
157,7,Jits_ISO_8,1,5,80,127,748998968
157,7,Jits_ISO_8,2,5,56,103,749009220
157,7,Jits_ISO_8,3,1,48,33,749145404
157,7,Jits_ISO_8,0,5,63,98,749779472
157,7,Jits_ISO_8,1,5,80,127,749782832
157,7,Jits_ISO_8,2,5,56,103,749819120
157,7,Jits_ISO_8,3,1,48,29,749920132
157,7,Jits_ISO_8,0,5,63,98,750648768
157,7,Jits_ISO_8,1,5,80,127,750679740
157,7,Jits_ISO_8,2,5,56,103,750688504
157,7,Jits_ISO_8,0,1,48,36,751062940
157,7,Jits_ISO_8,1,5,56,103,751399320
157,7,Jits_ISO_8,2,5,80,127,751428952
157,7,Jits_ISO_8,3,5,63,98,751458652
157,7,Jits_ISO_8,4,1,48,32,751762280
157,7,Jits_ISO_8,0,5,63,98,752299472
157,7,Jits_ISO_8,1,5,56,103,752339420
157,7,Jits_ISO_8,2,5,80,127,752342480
157,7,Jits_ISO_8,0,1,48,30,752662316
157,7,Jits_ISO_8,1,5,80,127,752998780
157,7,Jits_ISO_8,2,5,56,103,753078592
157,7,Jits_ISO_8,3,5,63,98,753128808
157,7,Jits_ISO_8,4,1,48,34,753416056
157,7,Jits_ISO_8,0,5,80,127,753779032
157,7,Jits_ISO_8,1,5,56,103,753798560
157,7,Jits_ISO_8,2,5,63,98,753888640
157,7,Jits_ISO_8,3,1,48,33,754235720
157,7,Jits_ISO_8,0,5,80,127,754618732
157,7,Jits_ISO_8,1,5,63,98,754658704
157,7,Jits_ISO_8,2,5,56,103,754698504
157,7,Jits_ISO_8,3,1,48,32,755029956
157,7,Jits_ISO_8,0,5,63,98,755388800
157,7,Jits_ISO_8,1,5,80,127,755449196
157,7,Jits_ISO_8,2,5,56,103,755478968
157,7,Jits_ISO_8,0,1,48,38,755862356
157,7,Jits_ISO_8,1,5,56,103,756188524
157,7,Jits_ISO_8,2,5,80,127,756219344
157,7,Jits_ISO_8,3,5,63,98,756309472
157,7,Jits_ISO_8,0,1,48,29,756665380
157,7,Jits_ISO_8,1,5,56,103,756998500
157,7,Jits_ISO_8,2,5,80,127,757109276
157,7,Jits_ISO_8,3,5,63,98,757138828
157,7,Jits_ISO_8,4,1,48,34,757441484
157,7,Jits_ISO_8,0,5,56,103,757848388
157,7,Jits_ISO_8,1,5,63,98,757909048
157,7,Jits_ISO_8,2,5,80,127,757938528
157,7,Jits_ISO_8,3,1,48,25,758225104
157,7,Jits_ISO_8,0,5,56,103,758618460
157,7,Jits_ISO_8,1,5,63,98,758689220
157,7,Jits_ISO_8,2,5,80,127,758708524
157,7,Jits_ISO_8,0,1,48,25,759096208
157,7,Jits_ISO_8,1,5,80,127,759388568
157,7,Jits_ISO_8,2,5,63,98,759408996
157,7,Jits_ISO_8,3,5,56,103,759459188
157,7,Jits_ISO_8,4,1,48,32,759782664
157,7,Jits_ISO_8,0,9999,9999,9999,664657004
157,7,Jits_ISO_8,1,9999,9999,9999,665456736
157,7,Jits_ISO_8,2,9999,9999,9999,666256472
157,7,Jits_ISO_8,3,9999,9999,9999,667056232
157,7,Jits_ISO_8,4,9999,9999,9999,667856960
157,7,Jits_ISO_8,5,9999,9999,9999,668656740
157,7,Jits_ISO_8,6,9999,9999,9999,669456484
157,7,Jits_ISO_8,7,9999,9999,9999,670256248
157,7,Jits_ISO_8,8,9999,9999,9999,671056988
157,7,Jits_ISO_8,9,9999,9999,9999,671856728
157,7,Jits_ISO_8,10,9999,9999,9999,672656496
157,7,Jits_ISO_8,11,9999,9999,9999,673456248
157,7,Jits_ISO_8,12,9999,9999,9999,674256984
157,7,Jits_ISO_8,13,9999,9999,9999,675056760
157,7,Jits_ISO_8,14,9999,9999,9999,675856496
157,7,Jits_ISO_8,15,9999,9999,9999,676656248
157,7,Jits_ISO_8,16,9999,9999,9999,677456952
157,7,Jits_ISO_8,17,9999,9999,9999,678256704
157,7,Jits_ISO_8,18,9999,9999,9999,679056456
157,7,Jits_ISO_8,19,9999,9999,9999,679856204
157,7,Jits_ISO_8,20,9999,9999,9999,680656996
157,7,Jits_ISO_8,21,9999,9999,9999,681456760
157,7,Jits_ISO_8,22,9999,9999,9999,682256500
157,7,Jits_ISO_8,23,9999,9999,9999,683056244
157,7,Jits_ISO_8,24,9999,9999,9999,683857008
157,7,Jits_ISO_8,25,9999,9999,9999,684656748
157,7,Jits_ISO_8,26,9999,9999,9999,685456452
157,7,Jits_ISO_8,27,9999,9999,9999,686256212
157,7,Jits_ISO_8,28,9999,9999,9999,687056948
157,7,Jits_ISO_8,29,9999,9999,9999,687856704
157,7,Jits_ISO_8,30,9999,9999,9999,688656440
157,7,Jits_ISO_8,31,9999,9999,9999,689456200
157,7,Jits_ISO_8,32,9999,9999,9999,690256988
157,7,Jits_ISO_8,33,9999,9999,9999,691056728
157,7,Jits_ISO_8,34,9999,9999,9999,691856456
157,7,Jits_ISO_8,35,9999,9999,9999,692656212
157,7,Jits_ISO_8,36,9999,9999,9999,693457016
157,7,Jits_ISO_8,37,9999,9999,9999,694256708
157,7,Jits_ISO_8,38,9999,9999,9999,695056456
157,7,Jits_ISO_8,39,9999,9999,9999,695856208
157,7,Jits_ISO_8,40,9999,9999,9999,696657004
157,7,Jits_ISO_8,41,9999,9999,9999,697456744
157,7,Jits_ISO_8,42,9999,9999,9999,698256484
157,7,Jits_ISO_8,43,9999,9999,9999,699056224
157,7,Jits_ISO_8,44,9999,9999,9999,699857000
157,7,Jits_ISO_8,45,9999,9999,9999,700656696
157,7,Jits_ISO_8,46,9999,9999,9999,701456444
157,7,Jits_ISO_8,47,9999,9999,9999,702256236
157,7,Jits_ISO_8,48,9999,9999,9999,703057004
157,7,Jits_ISO_8,49,9999,9999,9999,703856748
157,7,Jits_ISO_8,50,9999,9999,9999,704656496
157,7,Jits_ISO_8,51,9999,9999,9999,705456248
157,7,Jits_ISO_8,52,9999,9999,9999,706256964
157,7,Jits_ISO_8,53,9999,9999,9999,707056740
157,7,Jits_ISO_8,54,9999,9999,9999,707856488
157,7,Jits_ISO_8,55,9999,9999,9999,708656240
157,7,Jits_ISO_8,56,9999,9999,9999,709456956
157,7,Jits_ISO_8,57,9999,9999,9999,710256716
157,7,Jits_ISO_8,58,9999,9999,9999,711056480
157,7,Jits_ISO_8,59,9999,9999,9999,711856240
157,7,Jits_ISO_8,60,9999,9999,9999,712656960
157,7,Jits_ISO_8,61,9999,9999,9999,713456744
157,7,Jits_ISO_8,62,9999,9999,9999,714256492
157,7,Jits_ISO_8,63,9999,9999,9999,715056228
157,7,Jits_ISO_8,64,9999,9999,9999,715856956
157,7,Jits_ISO_8,65,9999,9999,9999,716656708
157,7,Jits_ISO_8,66,9999,9999,9999,717456464
157,7,Jits_ISO_8,67,9999,9999,9999,718256216
157,7,Jits_ISO_8,68,9999,9999,9999,719057012
157,7,Jits_ISO_8,69,9999,9999,9999,719856720
157,7,Jits_ISO_8,70,9999,9999,9999,720656480
157,7,Jits_ISO_8,71,9999,9999,9999,721456240
157,7,Jits_ISO_8,72,9999,9999,9999,722256952
157,7,Jits_ISO_8,73,9999,9999,9999,723056716
157,7,Jits_ISO_8,74,9999,9999,9999,723856468
157,7,Jits_ISO_8,75,9999,9999,9999,724656220
157,7,Jits_ISO_8,76,9999,9999,9999,725457008
157,7,Jits_ISO_8,77,9999,9999,9999,726256704
157,7,Jits_ISO_8,78,9999,9999,9999,727056448
157,7,Jits_ISO_8,79,9999,9999,9999,727856196
157,7,Jits_ISO_8,80,9999,9999,9999,728656992
157,7,Jits_ISO_8,81,9999,9999,9999,729456740
157,7,Jits_ISO_8,82,9999,9999,9999,730256488
157,7,Jits_ISO_8,83,9999,9999,9999,731056232
157,7,Jits_ISO_8,84,9999,9999,9999,731856960
157,7,Jits_ISO_8,85,9999,9999,9999,732656732
157,7,Jits_ISO_8,86,9999,9999,9999,733456480
157,7,Jits_ISO_8,87,9999,9999,9999,734256228
157,7,Jits_ISO_8,88,9999,9999,9999,735057016
157,7,Jits_ISO_8,89,9999,9999,9999,735856700
157,7,Jits_ISO_8,90,9999,9999,9999,736656460
157,7,Jits_ISO_8,91,9999,9999,9999,737456204
157,7,Jits_ISO_8,92,9999,9999,9999,738257000
157,7,Jits_ISO_8,93,9999,9999,9999,739056688
157,7,Jits_ISO_8,94,9999,9999,9999,739856436
157,7,Jits_ISO_8,95,9999,9999,9999,740656184
157,7,Jits_ISO_8,96,9999,9999,9999,741456976
157,7,Jits_ISO_8,97,9999,9999,9999,742256724
157,7,Jits_ISO_8,98,9999,9999,9999,743056476
157,7,Jits_ISO_8,99,9999,9999,9999,743856228
157,7,Jits_ISO_8,100,9999,9999,9999,744657012
157,7,Jits_ISO_8,101,9999,9999,9999,745456708
157,7,Jits_ISO_8,102,9999,9999,9999,746256464
157,7,Jits_ISO_8,103,9999,9999,9999,747056212
157,7,Jits_ISO_8,104,9999,9999,9999,747856944
157,7,Jits_ISO_8,105,9999,9999,9999,748656704
157,7,Jits_ISO_8,106,9999,9999,9999,749456444
157,7,Jits_ISO_8,107,9999,9999,9999,750256224
157,7,Jits_ISO_8,108,9999,9999,9999,751056968
157,7,Jits_ISO_8,109,9999,9999,9999,751856736
157,7,Jits_ISO_8,110,9999,9999,9999,752656436
157,7,Jits_ISO_8,111,9999,9999,9999,753456212
157,7,Jits_ISO_8,112,9999,9999,9999,754256952
157,7,Jits_ISO_8,113,9999,9999,9999,755056716
157,7,Jits_ISO_8,114,9999,9999,9999,755856484
157,7,Jits_ISO_8,115,9999,9999,9999,756656180
157,7,Jits_ISO_8,116,9999,9999,9999,757456956
157,7,Jits_ISO_8,117,9999,9999,9999,758256752
157,7,Jits_ISO_8,118,9999,9999,9999,759056452
157,7,Jits_ISO_8,119,9999,9999,9999,759856240
158,16,Jits_ISO_5,0,5,56,103,785245616
158,16,Jits_ISO_5,1,5,63,98,785248708
158,16,Jits_ISO_5,2,5,80,127,785251748
158,16,Jits_ISO_5,0,5,56,103,785755596
158,16,Jits_ISO_5,1,5,63,98,785758840
158,16,Jits_ISO_5,2,5,80,127,785761952
158,16,Jits_ISO_5,0,5,56,103,786256248
158,16,Jits_ISO_5,1,5,80,127,786265752
158,16,Jits_ISO_5,2,5,63,98,786285804
158,16,Jits_ISO_5,0,5,63,98,786705672
158,16,Jits_ISO_5,1,5,80,127,786735592
158,16,Jits_ISO_5,2,5,56,103,786745696
158,16,Jits_ISO_5,0,1,48,47,787193916
158,16,Jits_ISO_5,1,5,80,127,787265832
158,16,Jits_ISO_5,2,5,56,103,787276236
158,16,Jits_ISO_5,3,5,63,98,787305920
158,16,Jits_ISO_5,0,1,48,37,787722996
158,16,Jits_ISO_5,1,5,63,98,787756616
158,16,Jits_ISO_5,2,5,56,103,787786092
158,16,Jits_ISO_5,3,5,80,127,787796420
158,16,Jits_ISO_5,0,5,56,103,788205896
158,16,Jits_ISO_5,1,1,48,34,788212368
158,16,Jits_ISO_5,2,5,63,98,788256080
158,16,Jits_ISO_5,3,5,80,127,788275608
158,16,Jits_ISO_5,0,5,80,127,788705592
158,16,Jits_ISO_5,1,1,48,35,788721632
158,16,Jits_ISO_5,2,5,63,98,788755776
158,16,Jits_ISO_5,3,5,56,103,788795868
158,16,Jits_ISO_5,0,5,56,103,789206480
158,16,Jits_ISO_5,1,1,48,32,789234140
158,16,Jits_ISO_5,2,5,63,98,789236024
158,16,Jits_ISO_5,3,5,80,127,789305660
158,16,Jits_ISO_5,0,1,48,29,789697812
158,16,Jits_ISO_5,1,5,56,103,789716408
158,16,Jits_ISO_5,2,5,80,127,789775580
158,16,Jits_ISO_5,3,5,63,98,789805712
158,16,Jits_ISO_5,0,5,56,103,790226640
158,16,Jits_ISO_5,1,5,63,98,790235476
158,16,Jits_ISO_5,2,1,48,25,790238444
158,16,Jits_ISO_5,3,5,80,127,790275416
158,16,Jits_ISO_5,0,5,63,98,790715764
158,16,Jits_ISO_5,1,1,48,35,790722012
158,16,Jits_ISO_5,2,5,80,127,790795592
158,16,Jits_ISO_5,3,5,56,103,790805848
158,16,Jits_ISO_5,0,1,48,28,791236884
158,16,Jits_ISO_5,1,5,63,98,791265580
158,16,Jits_ISO_5,2,5,56,103,791305524
158,16,Jits_ISO_5,3,5,80,127,791308656
158,16,Jits_ISO_5,0,5,56,103,791725520
158,16,Jits_ISO_5,1,5,63,98,791735624
158,16,Jits_ISO_5,2,1,48,31,791737556
158,16,Jits_ISO_5,3,5,80,127,791775512
158,16,Jits_ISO_5,0,5,56,103,792216000
158,16,Jits_ISO_5,1,5,63,98,792218912
158,16,Jits_ISO_5,2,5,80,127,792236352
158,16,Jits_ISO_5,3,1,48,23,792262192
158,16,Jits_ISO_5,0,1,48,30,792715356
158,16,Jits_ISO_5,1,5,80,127,792725996
158,16,Jits_ISO_5,2,5,56,103,792736400
158,16,Jits_ISO_5,3,5,63,98,792805688
158,16,Jits_ISO_5,0,5,63,98,793216336
158,16,Jits_ISO_5,1,1,48,31,793221012
158,16,Jits_ISO_5,2,5,56,103,793235856
158,16,Jits_ISO_5,3,5,80,127,793316644
158,16,Jits_ISO_5,0,1,48,30,793700116
158,16,Jits_ISO_5,1,5,56,103,793726552
158,16,Jits_ISO_5,2,5,80,127,793766424
158,16,Jits_ISO_5,3,5,63,98,793775484
158,16,Jits_ISO_5,0,5,80,127,794215992
158,16,Jits_ISO_5,1,1,48,28,794231512
158,16,Jits_ISO_5,2,5,63,98,794245536
158,16,Jits_ISO_5,3,5,56,103,794285404
158,16,Jits_ISO_5,0,5,56,103,794736176
158,16,Jits_ISO_5,1,1,48,34,794748048
158,16,Jits_ISO_5,2,5,63,98,794765724
158,16,Jits_ISO_5,3,5,80,127,794815836
158,16,Jits_ISO_5,0,5,80,127,795235652
158,16,Jits_ISO_5,1,1,48,37,795248788
158,16,Jits_ISO_5,2,5,56,103,795275664
158,16,Jits_ISO_5,3,5,63,98,795285840
158,16,Jits_ISO_5,0,5,80,127,795716048
158,16,Jits_ISO_5,1,1,48,36,795733512
158,16,Jits_ISO_5,2,5,63,98,795755912
158,16,Jits_ISO_5,3,5,56,103,795816272
158,16,Jits_ISO_5,0,1,48,26,796211884
158,16,Jits_ISO_5,1,5,56,103,796215736
158,16,Jits_ISO_5,2,5,80,127,796226360
158,16,Jits_ISO_5,3,5,63,98,796305724
158,16,Jits_ISO_5,0,5,80,127,796716320
158,16,Jits_ISO_5,1,1,48,34,796730344
158,16,Jits_ISO_5,2,5,63,98,796775780
158,16,Jits_ISO_5,3,5,56,103,796805624
158,16,Jits_ISO_5,0,5,56,103,797226260
158,16,Jits_ISO_5,1,1,48,37,797255632
158,16,Jits_ISO_5,2,5,80,127,797285724
158,16,Jits_ISO_5,3,5,63,98,797325888
158,16,Jits_ISO_5,0,1,48,33,797765648
158,16,Jits_ISO_5,1,5,56,103,797776360
158,16,Jits_ISO_5,2,5,63,98,797785492
158,16,Jits_ISO_5,3,5,80,127,797789148
158,16,Jits_ISO_5,0,5,80,127,798225628
158,16,Jits_ISO_5,1,1,48,35,798247216
158,16,Jits_ISO_5,2,5,63,98,798315824
158,16,Jits_ISO_5,3,5,56,103,798326228
158,16,Jits_ISO_5,0,5,56,103,798725608
158,16,Jits_ISO_5,1,5,63,98,798728704
158,16,Jits_ISO_5,2,5,80,127,798731964
158,16,Jits_ISO_5,3,1,48,37,798775252
158,16,Jits_ISO_5,0,5,80,127,799245784
158,16,Jits_ISO_5,1,1,48,33,799258996
158,16,Jits_ISO_5,2,5,63,98,799296044
158,16,Jits_ISO_5,3,5,56,103,799325520
158,16,Jits_ISO_5,0,5,56,103,799726108
158,16,Jits_ISO_5,1,5,80,127,799736140
158,16,Jits_ISO_5,2,1,48,33,799754064
158,16,Jits_ISO_5,3,5,63,98,799805916
158,16,Jits_ISO_5,0,5,56,103,800236048
158,16,Jits_ISO_5,1,1,48,31,800246944
158,16,Jits_ISO_5,2,5,63,98,800256392
158,16,Jits_ISO_5,3,5,80,127,800315928
158,16,Jits_ISO_5,0,1,48,41,800701644
158,16,Jits_ISO_5,1,5,80,127,800726236
158,16,Jits_ISO_5,2,5,63,98,800796004
158,16,Jits_ISO_5,3,5,56,103,800815460
158,16,Jits_ISO_5,0,1,48,32,801239420
158,16,Jits_ISO_5,1,5,80,127,801256052
158,16,Jits_ISO_5,2,5,56,103,801266160
158,16,Jits_ISO_5,3,5,63,98,801276264
158,16,Jits_ISO_5,0,1,48,32,801715964
158,16,Jits_ISO_5,1,5,80,127,801746308
158,16,Jits_ISO_5,2,5,56,103,801765908
158,16,Jits_ISO_5,3,5,63,98,801836352
158,16,Jits_ISO_5,0,1,48,42,802209652
158,16,Jits_ISO_5,1,5,56,103,802256380
158,16,Jits_ISO_5,2,5,80,127,802285932
158,16,Jits_ISO_5,3,5,63,98,802306416
158,16,Jits_ISO_5,0,1,48,32,802722488
158,16,Jits_ISO_5,1,5,63,98,802745788
158,16,Jits_ISO_5,2,5,56,103,802806176
158,16,Jits_ISO_5,3,5,80,127,802836084
158,16,Jits_ISO_5,0,5,63,98,803236272
158,16,Jits_ISO_5,1,5,80,127,803239780
158,16,Jits_ISO_5,2,1,48,31,803242968
158,16,Jits_ISO_5,3,5,56,103,803326268
158,16,Jits_ISO_5,0,1,48,36,803745484
158,16,Jits_ISO_5,1,5,56,103,803756280
158,16,Jits_ISO_5,2,5,63,98,803786052
158,16,Jits_ISO_5,3,5,80,127,803826096
158,16,Jits_ISO_5,0,5,63,98,804256192
158,16,Jits_ISO_5,1,1,48,27,804265592
158,16,Jits_ISO_5,2,5,56,103,804295980
158,16,Jits_ISO_5,3,5,80,127,804315460
158,16,Jits_ISO_5,0,1,48,24,804737808
158,16,Jits_ISO_5,1,5,63,98,804766036
158,16,Jits_ISO_5,2,5,56,103,804805980
158,16,Jits_ISO_5,3,5,80,127,804816260
158,16,Jits_ISO_5,0,1,48,35,805241300
158,16,Jits_ISO_5,1,5,80,127,805246272
158,16,Jits_ISO_5,2,5,63,98,805315836
158,16,Jits_ISO_5,3,5,56,103,805336564
158,16,Jits_ISO_5,0,5,56,103,805735716
158,16,Jits_ISO_5,1,1,48,33,805756436
158,16,Jits_ISO_5,2,5,80,127,805757920
158,16,Jits_ISO_5,3,5,63,98,805796224
158,16,Jits_ISO_5,0,5,63,98,806245728
158,16,Jits_ISO_5,1,5,80,127,806266224
158,16,Jits_ISO_5,2,1,48,27,806272624
158,16,Jits_ISO_5,3,5,56,103,806306088
158,16,Jits_ISO_5,0,1,48,36,806744128
158,16,Jits_ISO_5,1,5,63,98,806745996
158,16,Jits_ISO_5,2,5,56,103,806765900
158,16,Jits_ISO_5,3,5,80,127,806776600
158,16,Jits_ISO_5,0,1,48,27,807236076
158,16,Jits_ISO_5,1,5,80,127,807246048
158,16,Jits_ISO_5,2,5,56,103,807265876
158,16,Jits_ISO_5,3,5,63,98,807296620
158,16,Jits_ISO_5,0,1,48,35,807714892
158,16,Jits_ISO_5,1,5,56,103,807815716
158,16,Jits_ISO_5,2,5,80,127,807818852
158,16,Jits_ISO_5,3,5,63,98,807835920
158,16,Jits_ISO_5,0,5,63,98,808236732
158,16,Jits_ISO_5,1,5,56,103,808266132
158,16,Jits_ISO_5,2,5,80,127,808325524
158,16,Jits_ISO_5,0,1,48,28,808719904
158,16,Jits_ISO_5,1,5,63,98,808826204
158,16,Jits_ISO_5,2,5,56,103,808835636
158,16,Jits_ISO_5,3,5,80,127,808845664
158,16,Jits_ISO_5,0,1,48,32,809251824
158,16,Jits_ISO_5,1,5,56,103,809275720
158,16,Jits_ISO_5,2,5,80,127,809305568
158,16,Jits_ISO_5,3,5,63,98,809315672
158,16,Jits_ISO_5,0,1,48,29,809745384
158,16,Jits_ISO_5,1,5,63,98,809816684
158,16,Jits_ISO_5,2,5,56,103,809825672
158,16,Jits_ISO_5,3,5,80,127,809846080
158,16,Jits_ISO_5,0,5,56,103,810245476
158,16,Jits_ISO_5,1,1,48,27,810265648
158,16,Jits_ISO_5,2,5,63,98,810305832
158,16,Jits_ISO_5,3,5,80,127,810309264
158,16,Jits_ISO_5,0,1,48,33,810760152
158,16,Jits_ISO_5,1,5,80,127,810765644
158,16,Jits_ISO_5,2,5,56,103,810775824
158,16,Jits_ISO_5,3,5,63,98,810845532
158,16,Jits_ISO_5,0,5,80,127,811256132
158,16,Jits_ISO_5,1,1,48,30,811267920
158,16,Jits_ISO_5,2,5,56,103,811325764
158,16,Jits_ISO_5,3,5,63,98,811336168
158,16,Jits_ISO_5,0,1,48,30,811785420
158,16,Jits_ISO_5,1,5,63,98,811795764
158,16,Jits_ISO_5,2,5,56,103,811806020
158,16,Jits_ISO_5,3,5,80,127,811825696
158,16,Jits_ISO_5,0,5,80,127,812246464
158,16,Jits_ISO_5,1,1,48,25,812275460
158,16,Jits_ISO_5,2,5,63,98,812305776
158,16,Jits_ISO_5,3,5,56,103,812345648
158,16,Jits_ISO_5,0,1,48,36,812759512
158,16,Jits_ISO_5,1,5,56,103,812796268
158,16,Jits_ISO_5,2,5,63,98,812805400
158,16,Jits_ISO_5,3,5,80,127,812845568
158,16,Jits_ISO_5,0,5,56,103,813256140
158,16,Jits_ISO_5,1,1,48,35,813262784
158,16,Jits_ISO_5,2,5,80,127,813285788
158,16,Jits_ISO_5,3,5,63,98,813335900
158,16,Jits_ISO_5,0,1,48,32,813777520
158,16,Jits_ISO_5,1,5,56,103,813795648
158,16,Jits_ISO_5,2,5,63,98,813835592
158,16,Jits_ISO_5,3,5,80,127,813838948
158,16,Jits_ISO_5,0,1,48,21,814284280
158,16,Jits_ISO_5,1,5,56,103,814296364
158,16,Jits_ISO_5,2,5,63,98,814305572
158,16,Jits_ISO_5,3,5,80,127,814326368
158,16,Jits_ISO_5,0,5,56,103,814756312
158,16,Jits_ISO_5,1,5,80,127,814759224
158,16,Jits_ISO_5,2,1,48,29,814781256
158,16,Jits_ISO_5,3,5,63,98,814796320
158,16,Jits_ISO_5,0,1,48,31,815212644
158,16,Jits_ISO_5,1,5,63,98,815295852
158,16,Jits_ISO_5,2,5,56,103,815325560
158,16,Jits_ISO_5,3,5,80,127,815345984
158,16,Jits_ISO_5,0,5,80,127,815765772
158,16,Jits_ISO_5,1,1,48,35,815769332
158,16,Jits_ISO_5,2,5,56,103,815776316
158,16,Jits_ISO_5,3,5,63,98,815786348
158,16,Jits_ISO_5,0,5,56,103,816265688
158,16,Jits_ISO_5,1,1,48,29,816283992
158,16,Jits_ISO_5,2,5,80,127,816305552
158,16,Jits_ISO_5,3,5,63,98,816336248
158,16,Jits_ISO_5,0,1,48,32,816773812
158,16,Jits_ISO_5,1,5,63,98,816775548
158,16,Jits_ISO_5,2,5,80,127,816785876
158,16,Jits_ISO_5,3,5,56,103,816796424
158,16,Jits_ISO_5,0,5,56,103,817255932
158,16,Jits_ISO_5,1,1,48,32,817284336
158,16,Jits_ISO_5,2,5,63,98,817325564
158,16,Jits_ISO_5,3,5,80,127,817335592
158,16,Jits_ISO_5,0,5,80,127,817755556
158,16,Jits_ISO_5,1,5,56,103,817765812
158,16,Jits_ISO_5,2,1,48,19,817778872
158,16,Jits_ISO_5,3,5,63,98,817815992
158,16,Jits_ISO_5,0,1,48,36,818232544
158,16,Jits_ISO_5,1,5,80,127,818265564
158,16,Jits_ISO_5,2,5,56,103,818326076
158,16,Jits_ISO_5,3,5,63,98,818355536
158,16,Jits_ISO_5,0,5,56,103,818766220
158,16,Jits_ISO_5,1,5,80,127,818769208
158,16,Jits_ISO_5,2,1,48,32,818786468
158,16,Jits_ISO_5,3,5,63,98,818806160
158,16,Jits_ISO_5,0,1,48,22,819284872
158,16,Jits_ISO_5,1,5,56,103,819295592
158,16,Jits_ISO_5,2,5,63,98,819326340
158,16,Jits_ISO_5,3,5,80,127,819335548
158,16,Jits_ISO_5,0,1,48,36,819773244
158,16,Jits_ISO_5,1,5,63,98,819805596
158,16,Jits_ISO_5,2,5,80,127,819815924
158,16,Jits_ISO_5,3,5,56,103,819826028
158,16,Jits_ISO_5,0,1,48,31,820233288
158,16,Jits_ISO_5,1,5,80,127,820266308
158,16,Jits_ISO_5,2,5,56,103,820315452
158,16,Jits_ISO_5,3,5,63,98,820318440
158,16,Jits_ISO_5,0,1,48,29,820734908
158,16,Jits_ISO_5,1,5,56,103,820795964
158,16,Jits_ISO_5,2,5,80,127,820816164
158,16,Jits_ISO_5,3,5,63,98,820826332
158,16,Jits_ISO_5,0,1,48,24,821267500
158,16,Jits_ISO_5,1,5,63,98,821276048
158,16,Jits_ISO_5,2,5,56,103,821305824
158,16,Jits_ISO_5,3,5,80,127,821326396
158,16,Jits_ISO_5,0,1,48,23,821784932
158,16,Jits_ISO_5,1,5,56,103,821786800
158,16,Jits_ISO_5,2,5,80,127,821796304
158,16,Jits_ISO_5,3,5,63,98,821866012
158,16,Jits_ISO_5,0,5,63,98,822275488
158,16,Jits_ISO_5,1,1,48,29,822304560
158,16,Jits_ISO_5,2,5,80,127,822316400
158,16,Jits_ISO_5,3,5,56,103,822356272
158,16,Jits_ISO_5,0,1,48,39,822761596
158,16,Jits_ISO_5,1,5,56,103,822786312
158,16,Jits_ISO_5,2,5,63,98,822795892
158,16,Jits_ISO_5,3,5,80,127,822816092
158,16,Jits_ISO_5,0,1,48,22,823263680
158,16,Jits_ISO_5,1,5,63,98,823325932
158,16,Jits_ISO_5,2,5,80,127,823345608
158,16,Jits_ISO_5,3,5,56,103,823366092
158,16,Jits_ISO_5,0,1,48,38,823759836
158,16,Jits_ISO_5,1,5,56,103,823766304
158,16,Jits_ISO_5,2,5,80,127,823846188
158,16,Jits_ISO_5,3,5,63,98,823855604
158,16,Jits_ISO_5,0,1,48,32,824297600
158,16,Jits_ISO_5,1,5,80,127,824316248
158,16,Jits_ISO_5,2,5,63,98,824325752
158,16,Jits_ISO_5,3,5,56,103,824356196
158,16,Jits_ISO_5,0,1,48,33,824775140
158,16,Jits_ISO_5,1,5,63,98,824776932
158,16,Jits_ISO_5,2,5,80,127,824816080
158,16,Jits_ISO_5,3,5,56,103,824876276
158,16,Jits_ISO_5,0,5,63,98,825285968
158,16,Jits_ISO_5,1,1,48,28,825304744
158,16,Jits_ISO_5,2,5,56,103,825336252
158,16,Jits_ISO_5,3,5,80,127,825365948
158,16,Jits_ISO_5,0,1,48,20,825783748
158,16,Jits_ISO_5,1,5,80,127,825796036
158,16,Jits_ISO_5,2,5,63,98,825806240
158,16,Jits_ISO_5,3,5,56,103,825875800
158,16,Jits_ISO_5,0,1,48,27,826276836
158,16,Jits_ISO_5,1,5,80,127,826366268
158,16,Jits_ISO_5,2,5,56,103,826375608
158,16,Jits_ISO_5,3,5,63,98,826378744
158,16,Jits_ISO_5,0,5,56,103,826805568
158,16,Jits_ISO_5,1,1,48,31,826815792
158,16,Jits_ISO_5,2,5,80,127,826826060
158,16,Jits_ISO_5,3,5,63,98,826836192
158,16,Jits_ISO_5,0,5,63,98,827315656
158,16,Jits_ISO_5,1,1,48,29,827318476
158,16,Jits_ISO_5,2,5,56,103,827355624
158,16,Jits_ISO_5,3,5,80,127,827376120
158,16,Jits_ISO_5,0,1,48,42,827804244
158,16,Jits_ISO_5,1,5,63,98,827816156
158,16,Jits_ISO_5,2,5,56,103,827875648
158,16,Jits_ISO_5,3,5,80,127,827878708
158,16,Jits_ISO_5,0,5,56,103,828276120
158,16,Jits_ISO_5,1,5,80,127,828295576
158,16,Jits_ISO_5,2,1,48,31,828300332
158,16,Jits_ISO_5,3,5,63,98,828335512
158,16,Jits_ISO_5,0,5,56,103,828805728
158,16,Jits_ISO_5,1,1,48,29,828813488
158,16,Jits_ISO_5,2,5,63,98,828825924
158,16,Jits_ISO_5,3,5,80,127,828836100
158,16,Jits_ISO_5,0,5,80,127,829275428
158,16,Jits_ISO_5,1,5,56,103,829306396
158,16,Jits_ISO_5,2,1,48,29,829321476
158,16,Jits_ISO_5,3,5,63,98,829346188
158,16,Jits_ISO_5,0,5,80,127,829785444
158,16,Jits_ISO_5,1,1,48,25,829786484
158,16,Jits_ISO_5,2,5,56,103,829805788
158,16,Jits_ISO_5,3,5,63,98,829866592
158,16,Jits_ISO_5,0,5,56,103,830296576
158,16,Jits_ISO_5,1,1,48,29,830298060
158,16,Jits_ISO_5,2,5,80,127,830315876
158,16,Jits_ISO_5,3,5,63,98,830376312
158,16,Jits_ISO_5,0,5,80,127,830775780
158,16,Jits_ISO_5,1,5,56,103,830785960
158,16,Jits_ISO_5,2,1,48,25,830804412
158,16,Jits_ISO_5,3,5,63,98,830825824
158,16,Jits_ISO_5,0,5,63,98,831276368
158,16,Jits_ISO_5,1,1,48,31,831299448
158,16,Jits_ISO_5,2,5,56,103,831316304
158,16,Jits_ISO_5,3,5,80,127,831319440
158,16,Jits_ISO_5,0,1,48,27,831772780
158,16,Jits_ISO_5,1,5,63,98,831805948
158,16,Jits_ISO_5,2,5,80,127,831845596
158,16,Jits_ISO_5,3,5,56,103,831875576
158,16,Jits_ISO_5,0,1,48,25,832267232
158,16,Jits_ISO_5,1,5,56,103,832296428
158,16,Jits_ISO_5,2,5,63,98,832305488
158,16,Jits_ISO_5,3,5,80,127,832336528
158,16,Jits_ISO_5,0,1,48,38,832757784
158,16,Jits_ISO_5,1,5,80,127,832785708
158,16,Jits_ISO_5,2,5,63,98,832856304
158,16,Jits_ISO_5,3,5,56,103,832865584
158,16,Jits_ISO_5,0,1,48,33,833281760
158,16,Jits_ISO_5,1,5,63,98,833285612
158,16,Jits_ISO_5,2,5,56,103,833356372
158,16,Jits_ISO_5,3,5,80,127,833366552
158,16,Jits_ISO_5,0,1,48,30,833740060
158,16,Jits_ISO_5,1,5,63,98,833786312
158,16,Jits_ISO_5,2,5,56,103,833805696
158,16,Jits_ISO_5,3,5,80,127,833845696
158,16,Jits_ISO_5,0,1,48,26,834286192
158,16,Jits_ISO_5,1,5,56,103,834296388
158,16,Jits_ISO_5,2,5,63,98,834306492
158,16,Jits_ISO_5,3,5,80,127,834386208
158,16,Jits_ISO_5,0,1,48,29,834783316
158,16,Jits_ISO_5,1,5,63,98,834785744
158,16,Jits_ISO_5,2,5,56,103,834816340
158,16,Jits_ISO_5,3,5,80,127,834856284
158,16,Jits_ISO_5,0,1,48,33,835286180
158,16,Jits_ISO_5,1,5,56,103,835287808
158,16,Jits_ISO_5,2,5,63,98,835326340
158,16,Jits_ISO_5,3,5,80,127,835366136
158,16,Jits_ISO_5,0,1,48,27,835781524
158,16,Jits_ISO_5,1,5,80,127,835796468
158,16,Jits_ISO_5,2,5,56,103,835876352
158,16,Jits_ISO_5,3,5,63,98,835885400
158,16,Jits_ISO_5,0,1,48,27,836322372
158,16,Jits_ISO_5,1,5,56,103,836336016
158,16,Jits_ISO_5,2,5,63,98,836339152
158,16,Jits_ISO_5,3,5,80,127,836346196
158,16,Jits_ISO_5,0,1,48,28,836820172
158,16,Jits_ISO_5,1,5,56,103,836856180
158,16,Jits_ISO_5,2,5,63,98,836875560
158,16,Jits_ISO_5,3,5,80,127,836886036
158,16,Jits_ISO_5,0,1,48,32,837305480
158,16,Jits_ISO_5,1,5,63,98,837316120
158,16,Jits_ISO_5,2,5,80,127,837326324
158,16,Jits_ISO_5,3,5,56,103,837345556
158,16,Jits_ISO_5,0,5,63,98,837815880
158,16,Jits_ISO_5,1,1,48,27,837840932
158,16,Jits_ISO_5,2,5,56,103,837895632
158,16,Jits_ISO_5,3,5,80,127,837898544
158,16,Jits_ISO_5,0,5,63,98,838316524
158,16,Jits_ISO_5,1,5,56,103,838336052
158,16,Jits_ISO_5,2,1,48,20,838339020
158,16,Jits_ISO_5,3,5,80,127,838365624
158,16,Jits_ISO_5,0,1,48,25,838805784
158,16,Jits_ISO_5,1,5,56,103,838816128
158,16,Jits_ISO_5,2,5,63,98,838835584
158,16,Jits_ISO_5,3,5,80,127,838845836
158,16,Jits_ISO_5,0,1,48,29,839284668
158,16,Jits_ISO_5,1,5,56,103,839345504
158,16,Jits_ISO_5,2,5,63,98,839376780
158,16,Jits_ISO_5,3,5,80,127,839380064
158,16,Jits_ISO_5,0,1,48,29,839779400
158,16,Jits_ISO_5,1,5,56,103,839796032
158,16,Jits_ISO_5,2,5,63,98,839835904
158,16,Jits_ISO_5,3,5,80,127,839896348
158,16,Jits_ISO_5,0,1,48,35,840291036
158,16,Jits_ISO_5,1,5,56,103,840316204
158,16,Jits_ISO_5,2,5,63,98,840325336
158,16,Jits_ISO_5,3,5,80,127,840385920
158,16,Jits_ISO_5,0,1,48,31,840807852
158,16,Jits_ISO_5,1,5,56,103,840816176
158,16,Jits_ISO_5,2,5,80,127,840835408
158,16,Jits_ISO_5,3,5,63,98,840866152
158,16,Jits_ISO_5,0,1,48,34,841297652
158,16,Jits_ISO_5,1,5,80,127,841315780
158,16,Jits_ISO_5,2,5,56,103,841325960
158,16,Jits_ISO_5,3,5,63,98,841346604
158,16,Jits_ISO_5,0,1,48,32,841758060
158,16,Jits_ISO_5,1,5,63,98,841806184
158,16,Jits_ISO_5,2,5,80,127,841886124
158,16,Jits_ISO_5,3,5,56,103,841896228
158,16,Jits_ISO_5,0,1,48,24,842317724
158,16,Jits_ISO_5,1,5,80,127,842366220
158,16,Jits_ISO_5,2,5,56,103,842385972
158,16,Jits_ISO_5,3,5,63,98,842388960
158,16,Jits_ISO_5,0,5,63,98,842836284
158,16,Jits_ISO_5,1,5,80,127,842839716
158,16,Jits_ISO_5,2,1,48,26,842842080
158,16,Jits_ISO_5,3,5,56,103,842895816
158,16,Jits_ISO_5,0,5,56,103,843325932
158,16,Jits_ISO_5,1,1,48,31,843329344
158,16,Jits_ISO_5,2,5,80,127,843336108
158,16,Jits_ISO_5,3,5,63,98,843375976
158,16,Jits_ISO_5,0,1,48,24,843803216
158,16,Jits_ISO_5,1,5,56,103,843806024
158,16,Jits_ISO_5,2,5,63,98,843865564
158,16,Jits_ISO_5,3,5,80,127,843875816
158,16,Jits_ISO_5,0,5,63,98,844316028
158,16,Jits_ISO_5,1,1,48,34,844321524
158,16,Jits_ISO_5,2,5,80,127,844355892
158,16,Jits_ISO_5,3,5,56,103,844395760
158,16,Jits_ISO_5,0,5,56,103,844815704
158,16,Jits_ISO_5,1,1,48,29,844829584
158,16,Jits_ISO_5,2,5,63,98,844895656
158,16,Jits_ISO_5,3,5,80,127,844899012
158,16,Jits_ISO_5,0,9999,9999,9999,785494120
158,16,Jits_ISO_5,1,9999,9999,9999,786004028
158,16,Jits_ISO_5,2,9999,9999,9999,786503788
158,16,Jits_ISO_5,3,9999,9999,9999,787003464
158,16,Jits_ISO_5,4,9999,9999,9999,787503188
158,16,Jits_ISO_5,5,9999,9999,9999,788003916
158,16,Jits_ISO_5,6,9999,9999,9999,788503672
158,16,Jits_ISO_5,7,9999,9999,9999,789003368
158,16,Jits_ISO_5,8,9999,9999,9999,789504108
158,16,Jits_ISO_5,9,9999,9999,9999,790014044
158,16,Jits_ISO_5,10,9999,9999,9999,790513720
158,16,Jits_ISO_5,11,9999,9999,9999,791013496
158,16,Jits_ISO_5,12,9999,9999,9999,791513172
158,16,Jits_ISO_5,13,9999,9999,9999,792013940
158,16,Jits_ISO_5,14,9999,9999,9999,792513616
158,16,Jits_ISO_5,15,9999,9999,9999,793013308
158,16,Jits_ISO_5,16,9999,9999,9999,793514036
158,16,Jits_ISO_5,17,9999,9999,9999,794013788
158,16,Jits_ISO_5,18,9999,9999,9999,794513468
158,16,Jits_ISO_5,19,9999,9999,9999,795013240
158,16,Jits_ISO_5,20,9999,9999,9999,795513980
158,16,Jits_ISO_5,21,9999,9999,9999,796013676
158,16,Jits_ISO_5,22,9999,9999,9999,796513368
158,16,Jits_ISO_5,23,9999,9999,9999,797014096
158,16,Jits_ISO_5,24,9999,9999,9999,797524040
158,16,Jits_ISO_5,25,9999,9999,9999,798023800
158,16,Jits_ISO_5,26,9999,9999,9999,798523480
158,16,Jits_ISO_5,27,9999,9999,9999,799023224
158,16,Jits_ISO_5,28,9999,9999,9999,799523892
158,16,Jits_ISO_5,29,9999,9999,9999,800023656
158,16,Jits_ISO_5,30,9999,9999,9999,800523356
158,16,Jits_ISO_5,31,9999,9999,9999,801024092
158,16,Jits_ISO_5,32,9999,9999,9999,801534016
158,16,Jits_ISO_5,33,9999,9999,9999,802033768
158,16,Jits_ISO_5,34,9999,9999,9999,802533448
158,16,Jits_ISO_5,35,9999,9999,9999,803033204
158,16,Jits_ISO_5,36,9999,9999,9999,803533892
158,16,Jits_ISO_5,37,9999,9999,9999,804033644
158,16,Jits_ISO_5,38,9999,9999,9999,804533328
158,16,Jits_ISO_5,39,9999,9999,9999,805034052
158,16,Jits_ISO_5,40,9999,9999,9999,805533808
158,16,Jits_ISO_5,41,9999,9999,9999,806033488
158,16,Jits_ISO_5,42,9999,9999,9999,806533180
158,16,Jits_ISO_5,43,9999,9999,9999,807033980
158,16,Jits_ISO_5,44,9999,9999,9999,807533660
158,16,Jits_ISO_5,45,9999,9999,9999,808033336
158,16,Jits_ISO_5,46,9999,9999,9999,808534084
158,16,Jits_ISO_5,47,9999,9999,9999,809044056
158,16,Jits_ISO_5,48,9999,9999,9999,809543736
158,16,Jits_ISO_5,49,9999,9999,9999,810043500
158,16,Jits_ISO_5,50,9999,9999,9999,810543168
158,16,Jits_ISO_5,51,9999,9999,9999,811043908
158,16,Jits_ISO_5,52,9999,9999,9999,811543664
158,16,Jits_ISO_5,53,9999,9999,9999,812043364
158,16,Jits_ISO_5,54,9999,9999,9999,812544096
158,16,Jits_ISO_5,55,9999,9999,9999,813054040
158,16,Jits_ISO_5,56,9999,9999,9999,813553720
158,16,Jits_ISO_5,57,9999,9999,9999,814053484
158,16,Jits_ISO_5,58,9999,9999,9999,814553164
158,16,Jits_ISO_5,59,9999,9999,9999,815053876
158,16,Jits_ISO_5,60,9999,9999,9999,815553624
158,16,Jits_ISO_5,61,9999,9999,9999,816053372
158,16,Jits_ISO_5,62,9999,9999,9999,816554040
158,16,Jits_ISO_5,63,9999,9999,9999,817053804
158,16,Jits_ISO_5,64,9999,9999,9999,817553488
158,16,Jits_ISO_5,65,9999,9999,9999,818053180
158,16,Jits_ISO_5,66,9999,9999,9999,818553924
158,16,Jits_ISO_5,67,9999,9999,9999,819053668
158,16,Jits_ISO_5,68,9999,9999,9999,819553368
158,16,Jits_ISO_5,69,9999,9999,9999,820054092
158,16,Jits_ISO_5,70,9999,9999,9999,820564076
158,16,Jits_ISO_5,71,9999,9999,9999,821063756
158,16,Jits_ISO_5,72,9999,9999,9999,821563512
158,16,Jits_ISO_5,73,9999,9999,9999,822063192
158,16,Jits_ISO_5,74,9999,9999,9999,822563920
158,16,Jits_ISO_5,75,9999,9999,9999,823063672
158,16,Jits_ISO_5,76,9999,9999,9999,823563360
158,16,Jits_ISO_5,77,9999,9999,9999,824064088
158,16,Jits_ISO_5,78,9999,9999,9999,824574016
158,16,Jits_ISO_5,79,9999,9999,9999,825073768
158,16,Jits_ISO_5,80,9999,9999,9999,825573448
158,16,Jits_ISO_5,81,9999,9999,9999,826073204
158,16,Jits_ISO_5,82,9999,9999,9999,826573924
158,16,Jits_ISO_5,83,9999,9999,9999,827073648
158,16,Jits_ISO_5,84,9999,9999,9999,827573348
158,16,Jits_ISO_5,85,9999,9999,9999,828074068
158,16,Jits_ISO_5,86,9999,9999,9999,828573816
158,16,Jits_ISO_5,87,9999,9999,9999,829073512
158,16,Jits_ISO_5,88,9999,9999,9999,829573204
158,16,Jits_ISO_5,89,9999,9999,9999,830073944
158,16,Jits_ISO_5,90,9999,9999,9999,830573640
158,16,Jits_ISO_5,91,9999,9999,9999,831073332
158,16,Jits_ISO_5,92,9999,9999,9999,831574132
158,16,Jits_ISO_5,93,9999,9999,9999,832084060
158,16,Jits_ISO_5,94,9999,9999,9999,832583740
158,16,Jits_ISO_5,95,9999,9999,9999,833083492
158,16,Jits_ISO_5,96,9999,9999,9999,833583172
158,16,Jits_ISO_5,97,9999,9999,9999,834083944
158,16,Jits_ISO_5,98,9999,9999,9999,834583628
158,16,Jits_ISO_5,99,9999,9999,9999,835083376
158,16,Jits_ISO_5,100,9999,9999,9999,835584104
158,16,Jits_ISO_5,101,9999,9999,9999,836094032
158,16,Jits_ISO_5,102,9999,9999,9999,836593776
158,16,Jits_ISO_5,103,9999,9999,9999,837093460
158,16,Jits_ISO_5,104,9999,9999,9999,837593212
158,16,Jits_ISO_5,105,9999,9999,9999,838093932
158,16,Jits_ISO_5,106,9999,9999,9999,838593660
158,16,Jits_ISO_5,107,9999,9999,9999,839093344
158,16,Jits_ISO_5,108,9999,9999,9999,839594064
158,16,Jits_ISO_5,109,9999,9999,9999,840093816
158,16,Jits_ISO_5,110,9999,9999,9999,840593492
158,16,Jits_ISO_5,111,9999,9999,9999,841093172
158,16,Jits_ISO_5,112,9999,9999,9999,841593964
158,16,Jits_ISO_5,113,9999,9999,9999,842093648
158,16,Jits_ISO_5,114,9999,9999,9999,842593396
158,16,Jits_ISO_5,115,9999,9999,9999,843094116
158,16,Jits_ISO_5,116,9999,9999,9999,843604036
158,16,Jits_ISO_5,117,9999,9999,9999,844103804
158,16,Jits_ISO_5,118,9999,9999,9999,844603484
158,16,Jits_ISO_5,119,9999,9999,9999,845103228
159,15,Jits_Phase_8,0,5,56,103,861416924
159,15,Jits_Phase_8,1,5,63,98,861419792
159,15,Jits_Phase_8,2,5,80,127,861423060
159,15,Jits_Phase_8,0,5,56,103,862216828
159,15,Jits_Phase_8,1,5,63,98,862219696
159,15,Jits_Phase_8,2,5,80,127,862222888
159,15,Jits_Phase_8,0,5,80,127,862956908
159,15,Jits_Phase_8,1,1,48,51,863026744
159,15,Jits_Phase_8,2,5,63,98,863047184
159,15,Jits_Phase_8,3,5,56,103,863057216
159,15,Jits_Phase_8,0,1,48,47,863743884
159,15,Jits_Phase_8,1,5,56,103,863777136
159,15,Jits_Phase_8,2,5,63,98,863787464
159,15,Jits_Phase_8,3,5,80,127,863876608
159,15,Jits_Phase_8,0,1,48,47,864505560
159,15,Jits_Phase_8,1,5,63,98,864547244
159,15,Jits_Phase_8,2,5,80,127,864576872
159,15,Jits_Phase_8,3,5,56,103,864606780
159,15,Jits_Phase_8,0,1,48,38,865336096
159,15,Jits_Phase_8,1,5,56,103,865346816
159,15,Jits_Phase_8,2,5,80,127,865447328
159,15,Jits_Phase_8,3,5,63,98,865496500
159,15,Jits_Phase_8,0,5,56,103,866146624
159,15,Jits_Phase_8,1,1,48,38,866188252
159,15,Jits_Phase_8,2,5,80,127,866196808
159,15,Jits_Phase_8,3,5,63,98,866236828
159,15,Jits_Phase_8,0,1,48,42,866968988
159,15,Jits_Phase_8,1,5,80,127,866977240
159,15,Jits_Phase_8,2,5,63,98,867006796
159,15,Jits_Phase_8,3,5,56,103,867076516
159,15,Jits_Phase_8,0,1,48,39,867762276
159,15,Jits_Phase_8,1,5,63,98,867806464
159,15,Jits_Phase_8,2,5,56,103,867837508
159,15,Jits_Phase_8,3,5,80,127,867896736
159,15,Jits_Phase_8,0,5,56,103,868546856
159,15,Jits_Phase_8,1,5,80,127,868549920
159,15,Jits_Phase_8,2,1,48,43,868587992
159,15,Jits_Phase_8,3,5,63,98,868666620
159,15,Jits_Phase_8,0,1,48,43,869414104
159,15,Jits_Phase_8,1,5,56,103,869426484
159,15,Jits_Phase_8,2,5,80,127,869466580
159,15,Jits_Phase_8,3,5,63,98,869476612
159,15,Jits_Phase_8,0,1,48,38,870171056
159,15,Jits_Phase_8,1,5,56,103,870187616
159,15,Jits_Phase_8,2,5,80,127,870206700
159,15,Jits_Phase_8,3,5,63,98,870286716
159,15,Jits_Phase_8,0,5,80,127,870976808
159,15,Jits_Phase_8,1,1,48,38,871031524
159,15,Jits_Phase_8,2,5,56,103,871077328
159,15,Jits_Phase_8,3,5,63,98,871086464
159,15,Jits_Phase_8,0,5,63,98,871746856
159,15,Jits_Phase_8,1,1,48,33,871798656
159,15,Jits_Phase_8,2,5,80,127,871807508
159,15,Jits_Phase_8,3,5,56,103,871816420
159,15,Jits_Phase_8,0,1,48,30,872502252
159,15,Jits_Phase_8,1,5,56,103,872546568
159,15,Jits_Phase_8,2,5,63,98,872617312
159,15,Jits_Phase_8,3,5,80,127,872620816
159,15,Jits_Phase_8,0,1,48,34,873364116
159,15,Jits_Phase_8,1,5,63,98,873377316
159,15,Jits_Phase_8,2,5,56,103,873427384
159,15,Jits_Phase_8,3,5,80,127,873430520
159,15,Jits_Phase_8,0,1,48,33,874113644
159,15,Jits_Phase_8,1,5,56,103,874136940
159,15,Jits_Phase_8,2,5,80,127,874139928
159,15,Jits_Phase_8,3,5,63,98,874227152
159,15,Jits_Phase_8,0,1,48,38,874873408
159,15,Jits_Phase_8,1,5,63,98,874976752
159,15,Jits_Phase_8,2,5,56,103,875066660
159,15,Jits_Phase_8,3,5,80,127,875096284
159,15,Jits_Phase_8,0,1,48,21,875725240
159,15,Jits_Phase_8,1,5,56,103,875767296
159,15,Jits_Phase_8,2,5,63,98,875866464
159,15,Jits_Phase_8,3,5,80,127,875897284
159,15,Jits_Phase_8,0,1,48,33,876584560
159,15,Jits_Phase_8,1,5,63,98,876587292
159,15,Jits_Phase_8,2,5,56,103,876596576
159,15,Jits_Phase_8,3,5,80,127,876686912
159,15,Jits_Phase_8,0,5,63,98,877406624
159,15,Jits_Phase_8,1,1,48,41,877417596
159,15,Jits_Phase_8,2,5,56,103,877486500
159,15,Jits_Phase_8,3,5,80,127,877489636
159,15,Jits_Phase_8,0,5,80,127,878167376
159,15,Jits_Phase_8,1,5,63,98,878186904
159,15,Jits_Phase_8,2,1,48,39,878219488
159,15,Jits_Phase_8,3,5,56,103,878247408
159,15,Jits_Phase_8,0,5,56,103,879007056
159,15,Jits_Phase_8,1,1,48,35,879014424
159,15,Jits_Phase_8,2,5,63,98,879026424
159,15,Jits_Phase_8,3,5,80,127,879030080
159,15,Jits_Phase_8,0,5,63,98,879746500
159,15,Jits_Phase_8,1,5,80,127,879827308
159,15,Jits_Phase_8,2,1,48,25,879830792
159,15,Jits_Phase_8,3,5,56,103,879836660
159,15,Jits_Phase_8,0,1,48,44,880561888
159,15,Jits_Phase_8,1,5,63,98,880566784
159,15,Jits_Phase_8,2,5,56,103,880587012
159,15,Jits_Phase_8,3,5,80,127,880637280
159,15,Jits_Phase_8,0,1,48,46,881307168
159,15,Jits_Phase_8,1,5,80,127,881367504
159,15,Jits_Phase_8,2,5,63,98,881408108
159,15,Jits_Phase_8,3,5,56,103,881426964
159,15,Jits_Phase_8,0,1,48,35,882182304
159,15,Jits_Phase_8,1,5,56,103,882206944
159,15,Jits_Phase_8,2,5,63,98,882217420
159,15,Jits_Phase_8,3,5,80,127,882236872
159,15,Jits_Phase_8,0,5,56,103,882937336
159,15,Jits_Phase_8,1,1,48,32,883023164
159,15,Jits_Phase_8,2,5,63,98,883027312
159,15,Jits_Phase_8,3,5,80,127,883086928
159,15,Jits_Phase_8,0,1,48,27,883737120
159,15,Jits_Phase_8,1,5,80,127,883766836
159,15,Jits_Phase_8,2,5,56,103,883776868
159,15,Jits_Phase_8,3,5,63,98,883846640
159,15,Jits_Phase_8,0,1,48,27,884554700
159,15,Jits_Phase_8,1,5,63,98,884597004
159,15,Jits_Phase_8,2,5,80,127,884687292
159,15,Jits_Phase_8,3,5,56,103,884696648
159,15,Jits_Phase_8,0,5,63,98,885327252
159,15,Jits_Phase_8,1,5,80,127,885377596
159,15,Jits_Phase_8,2,5,56,103,885436764
159,15,Jits_Phase_8,3,1,48,33,885472432
159,15,Jits_Phase_8,0,5,56,103,886146500
159,15,Jits_Phase_8,1,5,80,127,886196548
159,15,Jits_Phase_8,2,5,63,98,886217220
159,15,Jits_Phase_8,3,1,48,29,886222496
159,15,Jits_Phase_8,0,5,56,103,886916620
159,15,Jits_Phase_8,1,5,80,127,886976836
159,15,Jits_Phase_8,2,1,48,35,886987532
159,15,Jits_Phase_8,3,5,63,98,887046568
159,15,Jits_Phase_8,0,5,56,103,887717180
159,15,Jits_Phase_8,1,5,80,127,887746956
159,15,Jits_Phase_8,2,1,48,30,887775552
159,15,Jits_Phase_8,3,5,63,98,887777268
159,15,Jits_Phase_8,0,1,48,35,888527080
159,15,Jits_Phase_8,1,5,56,103,888556948
159,15,Jits_Phase_8,2,5,80,127,888577668
159,15,Jits_Phase_8,3,5,63,98,888636824
159,15,Jits_Phase_8,0,1,48,33,889299052
159,15,Jits_Phase_8,1,5,80,127,889436468
159,15,Jits_Phase_8,2,5,56,103,889446648
159,15,Jits_Phase_8,3,5,63,98,889457196
159,15,Jits_Phase_8,0,1,48,28,890165800
159,15,Jits_Phase_8,1,5,56,103,890197532
159,15,Jits_Phase_8,2,5,80,127,890237556
159,15,Jits_Phase_8,3,5,63,98,890267092
159,15,Jits_Phase_8,0,1,48,41,890908604
159,15,Jits_Phase_8,1,5,56,103,890967420
159,15,Jits_Phase_8,2,5,63,98,890997124
159,15,Jits_Phase_8,3,5,80,127,891037128
159,15,Jits_Phase_8,0,1,48,43,891702564
159,15,Jits_Phase_8,1,5,80,127,891716960
159,15,Jits_Phase_8,2,5,63,98,891767376
159,15,Jits_Phase_8,3,5,56,103,891786532
159,15,Jits_Phase_8,0,1,48,43,892476336
159,15,Jits_Phase_8,1,5,56,103,892546372
159,15,Jits_Phase_8,2,5,80,127,892617064
159,15,Jits_Phase_8,3,5,63,98,892676532
159,15,Jits_Phase_8,0,5,80,127,893347372
159,15,Jits_Phase_8,1,1,48,37,893373292
159,15,Jits_Phase_8,2,5,63,98,893437228
159,15,Jits_Phase_8,3,5,56,103,893456760
159,15,Jits_Phase_8,0,5,63,98,894167264
159,15,Jits_Phase_8,1,5,56,103,894186940
159,15,Jits_Phase_8,2,5,80,127,894226816
159,15,Jits_Phase_8,3,1,48,46,894235696
159,15,Jits_Phase_8,0,5,80,127,894927344
159,15,Jits_Phase_8,1,5,63,98,894946800
159,15,Jits_Phase_8,2,5,56,103,895026536
159,15,Jits_Phase_8,3,1,48,32,895097108
159,15,Jits_Phase_8,0,5,63,98,895716688
159,15,Jits_Phase_8,1,1,48,32,895825180
159,15,Jits_Phase_8,2,5,56,103,895827224
159,15,Jits_Phase_8,3,5,80,127,895830288
159,15,Jits_Phase_8,0,5,63,98,896537188
159,15,Jits_Phase_8,1,5,56,103,896547216
159,15,Jits_Phase_8,2,5,80,127,896550204
159,15,Jits_Phase_8,3,1,48,30,896569552
159,15,Jits_Phase_8,0,5,56,103,897317148
159,15,Jits_Phase_8,1,1,48,32,897380396
159,15,Jits_Phase_8,2,5,80,127,897437192
159,15,Jits_Phase_8,3,5,63,98,897477120
159,15,Jits_Phase_8,0,5,56,103,898136460
159,15,Jits_Phase_8,1,5,80,127,898217392
159,15,Jits_Phase_8,2,1,48,18,898235416
159,15,Jits_Phase_8,3,5,63,98,898237212
159,15,Jits_Phase_8,0,5,56,103,898937172
159,15,Jits_Phase_8,1,1,48,28,899027820
159,15,Jits_Phase_8,2,5,63,98,899046992
159,15,Jits_Phase_8,3,5,80,127,899050276
159,15,Jits_Phase_8,0,5,56,103,899776920
159,15,Jits_Phase_8,1,5,80,127,899806500
159,15,Jits_Phase_8,2,1,48,37,899812896
159,15,Jits_Phase_8,3,5,63,98,899827068
159,15,Jits_Phase_8,0,5,63,98,900567412
159,15,Jits_Phase_8,1,5,56,103,900576992
159,15,Jits_Phase_8,2,1,48,22,900578480
159,15,Jits_Phase_8,3,5,80,127,900587016
159,15,Jits_Phase_8,0,1,48,32,901343824
159,15,Jits_Phase_8,1,5,80,127,901356804
159,15,Jits_Phase_8,2,5,56,103,901407144
159,15,Jits_Phase_8,3,5,63,98,901447004
159,15,Jits_Phase_8,0,1,48,30,902126212
159,15,Jits_Phase_8,1,5,80,127,902177096
159,15,Jits_Phase_8,2,5,63,98,902196772
159,15,Jits_Phase_8,3,5,56,103,902246724
159,15,Jits_Phase_8,0,1,48,30,902938196
159,15,Jits_Phase_8,1,5,80,127,902987064
159,15,Jits_Phase_8,2,5,56,103,903016840
159,15,Jits_Phase_8,3,5,63,98,903086684
159,15,Jits_Phase_8,0,1,48,34,903725660
159,15,Jits_Phase_8,1,5,56,103,903836888
159,15,Jits_Phase_8,2,5,80,127,903847220
159,15,Jits_Phase_8,3,5,63,98,903887188
159,15,Jits_Phase_8,0,1,48,24,904520520
159,15,Jits_Phase_8,1,5,56,103,904546660
159,15,Jits_Phase_8,2,5,63,98,904567084
159,15,Jits_Phase_8,3,5,80,127,904636856
159,15,Jits_Phase_8,0,1,48,35,905354956
159,15,Jits_Phase_8,1,5,63,98,905366796
159,15,Jits_Phase_8,2,5,80,127,905427628
159,15,Jits_Phase_8,3,5,56,103,905446788
159,15,Jits_Phase_8,0,5,80,127,906157548
159,15,Jits_Phase_8,1,1,48,40,906170232
159,15,Jits_Phase_8,2,5,56,103,906186968
159,15,Jits_Phase_8,3,5,63,98,906216668
159,15,Jits_Phase_8,0,1,48,42,906912588
159,15,Jits_Phase_8,1,5,56,103,906957304
159,15,Jits_Phase_8,2,5,63,98,907016680
159,15,Jits_Phase_8,3,5,80,127,907076968
159,15,Jits_Phase_8,0,1,48,38,907701324
159,15,Jits_Phase_8,1,5,80,127,907777444
159,15,Jits_Phase_8,2,5,56,103,907796812
159,15,Jits_Phase_8,3,5,63,98,907866672
159,15,Jits_Phase_8,0,1,48,31,908551484
159,15,Jits_Phase_8,1,5,80,127,908577464
159,15,Jits_Phase_8,2,5,63,98,908596548
159,15,Jits_Phase_8,3,5,56,103,908627592
159,15,Jits_Phase_8,0,5,80,127,909366652
159,15,Jits_Phase_8,1,1,48,41,909374636
159,15,Jits_Phase_8,2,5,63,98,909387220
159,15,Jits_Phase_8,3,5,56,103,909446612
159,15,Jits_Phase_8,0,5,80,127,910167436
159,15,Jits_Phase_8,1,1,48,19,910194248
159,15,Jits_Phase_8,2,5,56,103,910266612
159,15,Jits_Phase_8,3,5,63,98,910296472
159,15,Jits_Phase_8,0,5,63,98,910957008
159,15,Jits_Phase_8,1,5,80,127,911007200
159,15,Jits_Phase_8,2,1,48,30,911022500
159,15,Jits_Phase_8,3,5,56,103,911026724
159,15,Jits_Phase_8,0,1,48,30,911750188
159,15,Jits_Phase_8,1,5,80,127,911796516
159,15,Jits_Phase_8,2,5,56,103,911827360
159,15,Jits_Phase_8,3,5,63,98,911830568
159,15,Jits_Phase_8,0,1,48,32,912512648
159,15,Jits_Phase_8,1,1,48,21,912575096
159,15,Jits_Phase_8,2,5,63,98,912646424
159,15,Jits_Phase_8,3,5,56,103,912686356
159,15,Jits_Phase_8,4,5,80,127,912706856
159,15,Jits_Phase_8,0,5,80,127,913407396
159,15,Jits_Phase_8,1,1,48,29,913409108
159,15,Jits_Phase_8,2,5,63,98,913487276
159,15,Jits_Phase_8,3,5,56,103,913527060
159,15,Jits_Phase_8,0,1,48,34,914212260
159,15,Jits_Phase_8,1,5,63,98,914226504
159,15,Jits_Phase_8,2,5,80,127,914306392
159,15,Jits_Phase_8,3,5,56,103,914326876
159,15,Jits_Phase_8,0,1,48,35,915029052
159,15,Jits_Phase_8,1,5,56,103,915067300
159,15,Jits_Phase_8,2,5,63,98,915076360
159,15,Jits_Phase_8,3,5,80,127,915117348
159,15,Jits_Phase_8,0,5,56,103,915787224
159,15,Jits_Phase_8,1,5,80,127,915790136
159,15,Jits_Phase_8,2,1,48,30,915862204
159,15,Jits_Phase_8,3,5,63,98,915927260
159,15,Jits_Phase_8,0,5,56,103,916576560
159,15,Jits_Phase_8,1,5,63,98,916666844
159,15,Jits_Phase_8,2,1,48,33,916679856
159,15,Jits_Phase_8,3,5,80,127,916737320
159,15,Jits_Phase_8,0,1,48,41,917398476
159,15,Jits_Phase_8,1,5,63,98,917457244
159,15,Jits_Phase_8,2,5,80,127,917460456
159,15,Jits_Phase_8,3,5,56,103,917516696
159,15,Jits_Phase_8,0,1,48,45,918241304
159,15,Jits_Phase_8,1,5,80,127,918297204
159,15,Jits_Phase_8,2,5,56,103,918317556
159,15,Jits_Phase_8,3,5,63,98,918326916
159,15,Jits_Phase_8,0,5,56,103,919006524
159,15,Jits_Phase_8,1,5,63,98,919017072
159,15,Jits_Phase_8,2,5,80,127,919086488
159,15,Jits_Phase_8,3,1,48,41,919136348
159,15,Jits_Phase_8,0,5,80,127,919807452
159,15,Jits_Phase_8,1,5,56,103,919856600
159,15,Jits_Phase_8,2,5,63,98,919906940
159,15,Jits_Phase_8,3,1,48,13,919909832
159,15,Jits_Phase_8,0,1,48,24,920679560
159,15,Jits_Phase_8,1,5,56,103,920686916
159,15,Jits_Phase_8,2,5,63,98,920697172
159,15,Jits_Phase_8,3,5,80,127,920737116
159,15,Jits_Phase_8,0,5,56,103,921427168
159,15,Jits_Phase_8,1,1,48,40,921449280
159,15,Jits_Phase_8,2,5,63,98,921467184
159,15,Jits_Phase_8,3,5,80,127,921517376
159,15,Jits_Phase_8,0,5,80,127,922186976
159,15,Jits_Phase_8,1,1,48,40,922196080
159,15,Jits_Phase_8,2,5,56,103,922237236
159,15,Jits_Phase_8,3,5,63,98,922256764
159,15,Jits_Phase_8,0,1,48,38,922944652
159,15,Jits_Phase_8,1,5,80,127,922997172
159,15,Jits_Phase_8,2,5,63,98,923056776
159,15,Jits_Phase_8,3,5,56,103,923137504
159,15,Jits_Phase_8,0,1,48,28,923699032
159,15,Jits_Phase_8,1,5,80,127,923777596
159,15,Jits_Phase_8,2,5,56,103,923817456
159,15,Jits_Phase_8,3,5,63,98,923836908
159,15,Jits_Phase_8,0,5,56,103,924627388
159,15,Jits_Phase_8,1,5,80,127,924636744
159,15,Jits_Phase_8,2,5,63,98,924676692
159,15,Jits_Phase_8,0,1,48,37,925240628
159,15,Jits_Phase_8,1,5,56,103,925496624
159,15,Jits_Phase_8,2,5,63,98,925536644
159,15,Jits_Phase_8,3,5,80,127,925539928
159,15,Jits_Phase_8,0,1,48,32,925940952
159,15,Jits_Phase_8,1,5,63,98,926167548
159,15,Jits_Phase_8,2,5,80,127,926207344
159,15,Jits_Phase_8,3,5,56,103,926276984
159,15,Jits_Phase_8,0,1,48,29,926667676
159,15,Jits_Phase_8,1,5,63,98,926936532
159,15,Jits_Phase_8,2,5,56,103,927017540
159,15,Jits_Phase_8,3,5,80,127,927076632
159,15,Jits_Phase_8,4,1,48,33,927410324
159,15,Jits_Phase_8,0,5,80,127,927746560
159,15,Jits_Phase_8,1,5,63,98,927796528
159,15,Jits_Phase_8,2,5,56,103,927827348
159,15,Jits_Phase_8,3,1,48,29,928213704
159,15,Jits_Phase_8,0,5,56,103,928536868
159,15,Jits_Phase_8,1,5,63,98,928586988
159,15,Jits_Phase_8,2,5,80,127,928597536
159,15,Jits_Phase_8,3,1,48,19,929012020
159,15,Jits_Phase_8,0,5,56,103,929347068
159,15,Jits_Phase_8,1,5,63,98,929456428
159,15,Jits_Phase_8,2,5,80,127,929476876
159,15,Jits_Phase_8,0,1,48,29,929824564
159,15,Jits_Phase_8,1,5,63,98,930146524
159,15,Jits_Phase_8,2,5,80,127,930196940
159,15,Jits_Phase_8,3,5,56,103,930287092
159,15,Jits_Phase_8,0,1,48,32,930643568
159,15,Jits_Phase_8,1,5,63,98,930937344
159,15,Jits_Phase_8,2,5,80,127,930966748
159,15,Jits_Phase_8,3,5,56,103,931057272
159,15,Jits_Phase_8,0,1,48,18,931499396
159,15,Jits_Phase_8,1,5,63,98,931736840
159,15,Jits_Phase_8,2,5,56,103,931747388
159,15,Jits_Phase_8,3,5,80,127,931846444
159,15,Jits_Phase_8,0,1,48,27,932325700
159,15,Jits_Phase_8,1,5,63,98,932637332
159,15,Jits_Phase_8,2,5,80,127,932666660
159,15,Jits_Phase_8,3,5,56,103,932696360
159,15,Jits_Phase_8,0,1,48,34,933146972
159,15,Jits_Phase_8,1,5,80,127,933457260
159,15,Jits_Phase_8,2,5,63,98,933466472
159,15,Jits_Phase_8,3,5,56,103,933497068
159,15,Jits_Phase_8,0,1,48,28,933962548
159,15,Jits_Phase_8,1,5,80,127,934156620
159,15,Jits_Phase_8,2,5,63,98,934177268
159,15,Jits_Phase_8,3,5,56,103,934227384
159,15,Jits_Phase_8,0,1,48,34,934726604
159,15,Jits_Phase_8,1,5,63,98,934987008
159,15,Jits_Phase_8,2,5,80,127,935046548
159,15,Jits_Phase_8,3,5,56,103,935067124
159,15,Jits_Phase_8,0,1,48,23,935592588
159,15,Jits_Phase_8,1,5,63,98,935747088
159,15,Jits_Phase_8,2,5,56,103,935797280
159,15,Jits_Phase_8,3,5,80,127,935807384
159,15,Jits_Phase_8,0,1,48,27,936414420
159,15,Jits_Phase_8,1,5,56,103,936577328
159,15,Jits_Phase_8,2,5,80,127,936586536
159,15,Jits_Phase_8,3,5,63,98,936687232
159,15,Jits_Phase_8,0,1,48,24,937242324
159,15,Jits_Phase_8,1,5,80,127,937337124
159,15,Jits_Phase_8,2,5,63,98,937346320
159,15,Jits_Phase_8,3,5,56,103,937496904
159,15,Jits_Phase_8,0,1,48,20,938075344
159,15,Jits_Phase_8,1,5,63,98,938147168
159,15,Jits_Phase_8,2,5,80,127,938187052
159,15,Jits_Phase_8,3,5,56,103,938267080
159,15,Jits_Phase_8,0,5,56,103,938897008
159,15,Jits_Phase_8,1,1,48,25,938917328
159,15,Jits_Phase_8,2,5,80,127,938997184
159,15,Jits_Phase_8,3,5,63,98,939016472
159,15,Jits_Phase_8,0,1,48,29,939716300
159,15,Jits_Phase_8,1,5,80,127,939718088
159,15,Jits_Phase_8,2,5,56,103,939727148
159,15,Jits_Phase_8,3,5,63,98,939817336
159,15,Jits_Phase_8,0,1,48,33,940415528
159,15,Jits_Phase_8,1,5,56,103,940516908
159,15,Jits_Phase_8,2,5,63,98,940537260
159,15,Jits_Phase_8,3,5,80,127,940616992
159,15,Jits_Phase_8,0,1,48,24,941241796
159,15,Jits_Phase_8,1,5,63,98,941267436
159,15,Jits_Phase_8,2,5,56,103,941357624
159,15,Jits_Phase_8,3,5,80,127,941360832
159,15,Jits_Phase_8,0,1,48,31,942036016
159,15,Jits_Phase_8,1,5,56,103,942096844
159,15,Jits_Phase_8,2,5,80,127,942157120
159,15,Jits_Phase_8,3,5,63,98,942167820
159,15,Jits_Phase_8,0,1,48,29,942882104
159,15,Jits_Phase_8,1,5,80,127,942946616
159,15,Jits_Phase_8,2,5,56,103,942956868
159,15,Jits_Phase_8,3,5,63,98,942959928
159,15,Jits_Phase_8,0,1,48,30,943693940
159,15,Jits_Phase_8,1,5,56,103,943706764
159,15,Jits_Phase_8,2,5,80,127,943716796
159,15,Jits_Phase_8,3,5,63,98,943737144
159,15,Jits_Phase_8,0,1,48,38,944462104
159,15,Jits_Phase_8,1,5,63,98,944476648
159,15,Jits_Phase_8,2,5,80,127,944537012
159,15,Jits_Phase_8,3,5,56,103,944587064
159,15,Jits_Phase_8,0,1,48,32,945255632
159,15,Jits_Phase_8,1,5,63,98,945357136
159,15,Jits_Phase_8,2,5,56,103,945367684
159,15,Jits_Phase_8,3,5,80,127,945416608
159,15,Jits_Phase_8,0,5,63,98,946056560
159,15,Jits_Phase_8,1,5,80,127,946076988
159,15,Jits_Phase_8,2,5,56,103,946087464
159,15,Jits_Phase_8,3,1,48,41,946104576
159,15,Jits_Phase_8,0,1,48,38,946828192
159,15,Jits_Phase_8,1,5,63,98,946857464
159,15,Jits_Phase_8,2,5,80,127,946860748
159,15,Jits_Phase_8,3,5,56,103,946897508
159,15,Jits_Phase_8,0,1,48,24,947665404
159,15,Jits_Phase_8,1,5,63,98,947726684
159,15,Jits_Phase_8,2,5,80,127,947757432
159,15,Jits_Phase_8,3,5,56,103,947766628
159,15,Jits_Phase_8,0,1,48,29,948458320
159,15,Jits_Phase_8,1,5,56,103,948477492
159,15,Jits_Phase_8,2,5,80,127,948506972
159,15,Jits_Phase_8,3,5,63,98,948536596
159,15,Jits_Phase_8,0,1,48,26,949237100
159,15,Jits_Phase_8,1,5,63,98,949377352
159,15,Jits_Phase_8,2,5,56,103,949417444
159,15,Jits_Phase_8,3,5,80,127,949420432
159,15,Jits_Phase_8,0,1,48,27,949999728
159,15,Jits_Phase_8,1,5,80,127,950076868
159,15,Jits_Phase_8,2,5,56,103,950156740
159,15,Jits_Phase_8,3,5,63,98,950206784
159,15,Jits_Phase_8,0,1,48,25,950836036
159,15,Jits_Phase_8,1,5,80,127,950857148
159,15,Jits_Phase_8,2,5,56,103,950876456
159,15,Jits_Phase_8,3,5,63,98,950966644
159,15,Jits_Phase_8,0,1,48,25,951624840
159,15,Jits_Phase_8,1,5,80,127,951696736
159,15,Jits_Phase_8,2,5,63,98,951736672
159,15,Jits_Phase_8,3,5,56,103,951776640
159,15,Jits_Phase_8,0,1,48,25,952505440
159,15,Jits_Phase_8,1,5,63,98,952507232
159,15,Jits_Phase_8,2,5,80,127,952567324
159,15,Jits_Phase_8,3,5,56,103,952596800
159,15,Jits_Phase_8,0,1,48,25,953333712
159,15,Jits_Phase_8,1,5,56,103,953346544
159,15,Jits_Phase_8,2,5,80,127,953377140
159,15,Jits_Phase_8,3,5,63,98,953467256
159,15,Jits_Phase_8,0,5,56,103,954157416
159,15,Jits_Phase_8,1,5,80,127,954267072
159,15,Jits_Phase_8,2,5,63,98,954296624
159,15,Jits_Phase_8,0,1,48,44,954985440
159,15,Jits_Phase_8,1,5,56,103,955007228
159,15,Jits_Phase_8,2,5,63,98,955066624
159,15,Jits_Phase_8,3,5,80,127,955096480
159,15,Jits_Phase_8,0,1,48,40,955731680
159,15,Jits_Phase_8,1,5,56,103,955777412
159,15,Jits_Phase_8,2,5,63,98,955847212
159,15,Jits_Phase_8,3,5,80,127,955866368
159,15,Jits_Phase_8,0,1,48,38,956455800
159,15,Jits_Phase_8,1,5,80,127,956546328
159,15,Jits_Phase_8,2,5,63,98,956567036
159,15,Jits_Phase_8,3,5,56,103,956617100
159,15,Jits_Phase_8,0,1,48,38,957275564
159,15,Jits_Phase_8,1,5,63,98,957366540
159,15,Jits_Phase_8,2,5,80,127,957377076
159,15,Jits_Phase_8,3,5,56,103,957426920
159,15,Jits_Phase_8,0,1,48,42,958076556
159,15,Jits_Phase_8,1,5,63,98,958167332
159,15,Jits_Phase_8,2,5,80,127,958237180
159,15,Jits_Phase_8,3,5,56,103,958256484
159,15,Jits_Phase_8,0,1,48,40,958867304
159,15,Jits_Phase_8,1,5,63,98,958996812
159,15,Jits_Phase_8,2,5,80,127,959000316
159,15,Jits_Phase_8,3,5,56,103,959066448
159,15,Jits_Phase_8,0,1,48,34,959693216
159,15,Jits_Phase_8,1,5,80,127,959746656
159,15,Jits_Phase_8,2,5,56,103,959766784
159,15,Jits_Phase_8,3,5,63,98,959777112
159,15,Jits_Phase_8,0,1,48,33,960504596
159,15,Jits_Phase_8,1,5,56,103,960566716
159,15,Jits_Phase_8,2,5,63,98,960656832
159,15,Jits_Phase_8,3,5,80,127,960660192
159,15,Jits_Phase_8,0,1,48,27,961335164
159,15,Jits_Phase_8,1,5,80,127,961336892
159,15,Jits_Phase_8,2,5,56,103,961347072
159,15,Jits_Phase_8,3,5,63,98,961367348
159,15,Jits_Phase_8,0,5,63,98,962136540
159,15,Jits_Phase_8,1,1,48,32,962157684
159,15,Jits_Phase_8,2,5,80,127,962196828
159,15,Jits_Phase_8,3,5,56,103,962207228
159,15,Jits_Phase_8,0,1,48,30,962952752
159,15,Jits_Phase_8,1,5,63,98,963006940
159,15,Jits_Phase_8,2,5,80,127,963036788
159,15,Jits_Phase_8,3,5,56,103,963076720
159,15,Jits_Phase_8,0,5,56,103,963797324
159,15,Jits_Phase_8,1,5,80,127,963806680
159,15,Jits_Phase_8,2,1,48,27,963825736
159,15,Jits_Phase_8,3,5,63,98,963846696
159,15,Jits_Phase_8,0,5,80,127,964557272
159,15,Jits_Phase_8,1,1,48,33,964566672
159,15,Jits_Phase_8,2,5,56,103,964637004
159,15,Jits_Phase_8,3,5,63,98,964647256
159,15,Jits_Phase_8,0,1,48,28,965398788
159,15,Jits_Phase_8,1,5,80,127,965407192
159,15,Jits_Phase_8,2,5,56,103,965487080
159,15,Jits_Phase_8,3,5,63,98,965497244
159,15,Jits_Phase_8,0,1,48,31,966208024
159,15,Jits_Phase_8,1,5,80,127,966246720
159,15,Jits_Phase_8,2,5,56,103,966296988
159,15,Jits_Phase_8,3,5,63,98,966347040
159,15,Jits_Phase_8,0,1,48,37,967036016
159,15,Jits_Phase_8,1,5,56,103,967186760
159,15,Jits_Phase_8,2,5,63,98,967189968
159,15,Jits_Phase_8,3,5,80,127,967236948
159,15,Jits_Phase_8,0,1,48,38,967857420
159,15,Jits_Phase_8,1,5,56,103,968006976
159,15,Jits_Phase_8,2,5,63,98,968036676
159,15,Jits_Phase_8,3,5,80,127,968047152
159,15,Jits_Phase_8,0,5,63,98,968716596
159,15,Jits_Phase_8,1,1,48,29,968724488
159,15,Jits_Phase_8,2,5,56,103,968787568
159,15,Jits_Phase_8,3,5,80,127,968836480
159,15,Jits_Phase_8,0,1,48,23,969509700
159,15,Jits_Phase_8,1,5,63,98,969547056
159,15,Jits_Phase_8,2,5,56,103,969557224
159,15,Jits_Phase_8,3,5,80,127,969560440
159,15,Jits_Phase_8,0,5,80,127,970296736
159,15,Jits_Phase_8,1,1,48,37,970317280
159,15,Jits_Phase_8,2,5,56,103,970357392
159,15,Jits_Phase_8,3,5,63,98,970447604
159,15,Jits_Phase_8,0,5,80,127,971096400
159,15,Jits_Phase_8,1,1,48,22,971141544
159,15,Jits_Phase_8,2,5,56,103,971196772
159,15,Jits_Phase_8,3,5,63,98,971236656
159,15,Jits_Phase_8,0,5,56,103,971947376
159,15,Jits_Phase_8,1,5,63,98,971966756
159,15,Jits_Phase_8,2,1,48,37,971975508
159,15,Jits_Phase_8,3,5,80,127,972006868
159,15,Jits_Phase_8,0,5,63,98,972717420
159,15,Jits_Phase_8,1,1,48,30,972721280
159,15,Jits_Phase_8,2,5,56,103,972736964
159,15,Jits_Phase_8,3,5,80,127,972837324
159,15,Jits_Phase_8,0,1,48,37,973432804
159,15,Jits_Phase_8,1,5,63,98,973507212
159,15,Jits_Phase_8,2,5,80,127,973616480
159,15,Jits_Phase_8,3,5,56,103,973647148
159,15,Jits_Phase_8,0,5,56,103,974327288
159,15,Jits_Phase_8,1,1,48,25,974336396
159,15,Jits_Phase_8,2,5,63,98,974356984
159,15,Jits_Phase_8,3,5,80,127,974407100
159,15,Jits_Phase_8,0,5,63,98,975097256
159,15,Jits_Phase_8,1,1,48,29,975127476
159,15,Jits_Phase_8,2,5,56,103,975128892
159,15,Jits_Phase_8,3,5,80,127,975177068
159,15,Jits_Phase_8,0,1,48,23,975913092
159,15,Jits_Phase_8,1,5,56,103,975926588
159,15,Jits_Phase_8,2,5,63,98,975947164
159,15,Jits_Phase_8,3,5,80,127,976027180
159,15,Jits_Phase_8,0,5,63,98,976696848
159,15,Jits_Phase_8,1,1,48,24,976711032
159,15,Jits_Phase_8,2,5,56,103,976756984
159,15,Jits_Phase_8,3,5,80,127,976786908
159,15,Jits_Phase_8,0,1,48,34,977504004
159,15,Jits_Phase_8,1,5,56,103,977537324
159,15,Jits_Phase_8,2,5,80,127,977597528
159,15,Jits_Phase_8,3,5,63,98,977636896
159,15,Jits_Phase_8,0,1,48,35,978282412
159,15,Jits_Phase_8,1,5,63,98,978317004
159,15,Jits_Phase_8,2,5,56,103,978377024
159,15,Jits_Phase_8,3,5,80,127,978446792
159,15,Jits_Phase_8,0,1,48,36,979089176
159,15,Jits_Phase_8,1,5,56,103,979197296
159,15,Jits_Phase_8,2,5,63,98,979206576
159,15,Jits_Phase_8,3,5,80,127,979210008
159,15,Jits_Phase_8,0,1,48,27,979878576
159,15,Jits_Phase_8,1,5,63,98,979936672
159,15,Jits_Phase_8,2,5,56,103,979997168
159,15,Jits_Phase_8,3,5,80,127,980000080
159,15,Jits_Phase_8,0,5,63,98,980716872
159,15,Jits_Phase_8,1,5,80,127,980746872
159,15,Jits_Phase_8,2,5,56,103,980767076
159,15,Jits_Phase_8,3,1,48,32,980779612
159,15,Jits_Phase_8,0,5,56,103,981446880
159,15,Jits_Phase_8,1,5,63,98,981497148
159,15,Jits_Phase_8,2,1,48,36,981538776
159,15,Jits_Phase_8,3,5,80,127,981577096
159,15,Jits_Phase_8,0,5,80,127,982146380
159,15,Jits_Phase_8,1,5,63,98,982187448
159,15,Jits_Phase_8,2,5,56,103,982206680
159,15,Jits_Phase_8,3,1,48,29,982232916
159,15,Jits_Phase_8,0,1,48,46,982915944
159,15,Jits_Phase_8,1,5,56,103,983016804
159,15,Jits_Phase_8,2,5,80,127,983026908
159,15,Jits_Phase_8,3,5,63,98,983046736
159,15,Jits_Phase_8,0,1,48,39,983712972
159,15,Jits_Phase_8,1,5,56,103,983797100
159,15,Jits_Phase_8,2,5,63,98,983847280
159,15,Jits_Phase_8,3,5,80,127,983876904
159,15,Jits_Phase_8,0,1,48,39,984543088
159,15,Jits_Phase_8,1,5,56,103,984546788
159,15,Jits_Phase_8,2,5,63,98,984556972
159,15,Jits_Phase_8,3,5,80,127,984607012
159,15,Jits_Phase_8,0,1,48,44,985298984
159,15,Jits_Phase_8,1,5,56,103,985337224
159,15,Jits_Phase_8,2,5,80,127,985340436
159,15,Jits_Phase_8,3,5,63,98,985496896
159,15,Jits_Phase_8,0,1,48,44,986086952
159,15,Jits_Phase_8,1,5,63,98,986157508
159,15,Jits_Phase_8,2,5,56,103,986226984
159,15,Jits_Phase_8,3,5,80,127,986267076
159,15,Jits_Phase_8,0,1,48,34,986980164
159,15,Jits_Phase_8,1,5,63,98,986997248
159,15,Jits_Phase_8,2,5,56,103,987087388
159,15,Jits_Phase_8,3,5,80,127,987090376
159,15,Jits_Phase_8,0,5,56,103,987777528
159,15,Jits_Phase_8,1,1,48,31,987812948
159,15,Jits_Phase_8,2,5,63,98,987866560
159,15,Jits_Phase_8,3,5,80,127,987876812
159,15,Jits_Phase_8,0,5,56,103,988546456
159,15,Jits_Phase_8,1,1,48,36,988583148
159,15,Jits_Phase_8,2,5,63,98,988596568
159,15,Jits_Phase_8,3,5,80,127,988627412
159,15,Jits_Phase_8,0,1,48,28,989347132
159,15,Jits_Phase_8,1,5,63,98,989426916
159,15,Jits_Phase_8,2,5,80,127,989437468
159,15,Jits_Phase_8,3,5,56,103,989496772
159,15,Jits_Phase_8,0,1,48,18,990143436
159,15,Jits_Phase_8,1,5,63,98,990146916
159,15,Jits_Phase_8,2,5,80,127,990207356
159,15,Jits_Phase_8,3,5,56,103,990247360
159,15,Jits_Phase_8,0,1,48,31,990843804
159,15,Jits_Phase_8,1,5,56,103,991047296
159,15,Jits_Phase_8,2,5,80,127,991066604
159,15,Jits_Phase_8,3,5,63,98,991087180
159,15,Jits_Phase_8,0,1,48,19,991631424
159,15,Jits_Phase_8,1,5,63,98,991766844
159,15,Jits_Phase_8,2,5,56,103,991787344
159,15,Jits_Phase_8,3,5,80,127,991827440
159,15,Jits_Phase_8,0,1,48,34,992403240
159,15,Jits_Phase_8,1,5,63,98,992577040
159,15,Jits_Phase_8,2,5,80,127,992606444
159,15,Jits_Phase_8,3,5,56,103,992627164
159,15,Jits_Phase_8,0,1,48,32,993303364
159,15,Jits_Phase_8,1,5,80,127,993347008
159,15,Jits_Phase_8,2,5,56,103,993397124
159,15,Jits_Phase_8,3,5,63,98,993456432
159,15,Jits_Phase_8,0,5,63,98,994136564
159,15,Jits_Phase_8,1,1,48,39,994197048
159,15,Jits_Phase_8,2,5,56,103,994257156
159,15,Jits_Phase_8,3,5,80,127,994287080
159,15,Jits_Phase_8,0,5,80,127,994977128
159,15,Jits_Phase_8,1,5,63,98,994996584
159,15,Jits_Phase_8,2,1,48,32,995003352
159,15,Jits_Phase_8,3,5,56,103,995067284
159,15,Jits_Phase_8,0,5,63,98,995797312
159,15,Jits_Phase_8,1,5,56,103,995806448
159,15,Jits_Phase_8,2,1,48,20,995834380
159,15,Jits_Phase_8,3,5,80,127,995886472
159,15,Jits_Phase_8,0,1,48,29,996595968
159,15,Jits_Phase_8,1,5,56,103,996656576
159,15,Jits_Phase_8,2,5,80,127,996687172
159,15,Jits_Phase_8,3,5,63,98,996696368
159,15,Jits_Phase_8,0,9999,9999,9999,861814864
159,15,Jits_Phase_8,1,9999,9999,9999,862614620
159,15,Jits_Phase_8,2,9999,9999,9999,863414368
159,15,Jits_Phase_8,3,9999,9999,9999,864214136
159,15,Jits_Phase_8,4,9999,9999,9999,865014904
159,15,Jits_Phase_8,5,9999,9999,9999,865814628
159,15,Jits_Phase_8,6,9999,9999,9999,866614352
159,15,Jits_Phase_8,7,9999,9999,9999,867414092
159,15,Jits_Phase_8,8,9999,9999,9999,868214864
159,15,Jits_Phase_8,9,9999,9999,9999,869014652
159,15,Jits_Phase_8,10,9999,9999,9999,869814392
159,15,Jits_Phase_8,11,9999,9999,9999,870614072
159,15,Jits_Phase_8,12,9999,9999,9999,871414848
159,15,Jits_Phase_8,13,9999,9999,9999,872214656
159,15,Jits_Phase_8,14,9999,9999,9999,873014368
159,15,Jits_Phase_8,15,9999,9999,9999,873814084
159,15,Jits_Phase_8,16,9999,9999,9999,874614912
159,15,Jits_Phase_8,17,9999,9999,9999,875414640
159,15,Jits_Phase_8,18,9999,9999,9999,876214368
159,15,Jits_Phase_8,19,9999,9999,9999,877014120
159,15,Jits_Phase_8,20,9999,9999,9999,877814888
159,15,Jits_Phase_8,21,9999,9999,9999,878614612
159,15,Jits_Phase_8,22,9999,9999,9999,879414340
159,15,Jits_Phase_8,23,9999,9999,9999,880214080
159,15,Jits_Phase_8,24,9999,9999,9999,881014848
159,15,Jits_Phase_8,25,9999,9999,9999,881814644
159,15,Jits_Phase_8,26,9999,9999,9999,882614372
159,15,Jits_Phase_8,27,9999,9999,9999,883414120
159,15,Jits_Phase_8,28,9999,9999,9999,884214900
159,15,Jits_Phase_8,29,9999,9999,9999,885014632
159,15,Jits_Phase_8,30,9999,9999,9999,885794908
159,15,Jits_Phase_8,31,9999,9999,9999,886594636
159,15,Jits_Phase_8,32,9999,9999,9999,887394372
159,15,Jits_Phase_8,33,9999,9999,9999,888194104
159,15,Jits_Phase_8,34,9999,9999,9999,888994892
159,15,Jits_Phase_8,35,9999,9999,9999,889794624
159,15,Jits_Phase_8,36,9999,9999,9999,890594376
159,15,Jits_Phase_8,37,9999,9999,9999,891394172
159,15,Jits_Phase_8,38,9999,9999,9999,892194936
159,15,Jits_Phase_8,39,9999,9999,9999,892994664
159,15,Jits_Phase_8,40,9999,9999,9999,893794392
159,15,Jits_Phase_8,41,9999,9999,9999,894594132
159,15,Jits_Phase_8,42,9999,9999,9999,895394896
159,15,Jits_Phase_8,43,9999,9999,9999,896194628
159,15,Jits_Phase_8,44,9999,9999,9999,896994360
159,15,Jits_Phase_8,45,9999,9999,9999,897794132
159,15,Jits_Phase_8,46,9999,9999,9999,898594916
159,15,Jits_Phase_8,47,9999,9999,9999,899394648
159,15,Jits_Phase_8,48,9999,9999,9999,900214884
159,15,Jits_Phase_8,49,9999,9999,9999,901014616
159,15,Jits_Phase_8,50,9999,9999,9999,901814344
159,15,Jits_Phase_8,51,9999,9999,9999,902614092
159,15,Jits_Phase_8,52,9999,9999,9999,903414864
159,15,Jits_Phase_8,53,9999,9999,9999,904214596
159,15,Jits_Phase_8,54,9999,9999,9999,905014392
159,15,Jits_Phase_8,55,9999,9999,9999,905814112
159,15,Jits_Phase_8,56,9999,9999,9999,906614880
159,15,Jits_Phase_8,57,9999,9999,9999,907414620
159,15,Jits_Phase_8,58,9999,9999,9999,908214344
159,15,Jits_Phase_8,59,9999,9999,9999,909014092
159,15,Jits_Phase_8,60,9999,9999,9999,909814860
159,15,Jits_Phase_8,61,9999,9999,9999,910614604
159,15,Jits_Phase_8,62,9999,9999,9999,911414340
159,15,Jits_Phase_8,63,9999,9999,9999,912214128
159,15,Jits_Phase_8,64,9999,9999,9999,913054824
159,15,Jits_Phase_8,65,9999,9999,9999,913854536
159,15,Jits_Phase_8,66,9999,9999,9999,914654304
159,15,Jits_Phase_8,67,9999,9999,9999,915455084
159,15,Jits_Phase_8,68,9999,9999,9999,916254796
159,15,Jits_Phase_8,69,9999,9999,9999,917054540
159,15,Jits_Phase_8,70,9999,9999,9999,917854272
159,15,Jits_Phase_8,71,9999,9999,9999,918655056
159,15,Jits_Phase_8,72,9999,9999,9999,919454776
159,15,Jits_Phase_8,73,9999,9999,9999,920254592
159,15,Jits_Phase_8,74,9999,9999,9999,921054264
159,15,Jits_Phase_8,75,9999,9999,9999,921855036
159,15,Jits_Phase_8,76,9999,9999,9999,922654776
159,15,Jits_Phase_8,77,9999,9999,9999,923454592
159,15,Jits_Phase_8,78,9999,9999,9999,924254308
159,15,Jits_Phase_8,79,9999,9999,9999,925055100
159,15,Jits_Phase_8,80,9999,9999,9999,925854776
159,15,Jits_Phase_8,81,9999,9999,9999,926614632
159,15,Jits_Phase_8,82,9999,9999,9999,927414352
159,15,Jits_Phase_8,83,9999,9999,9999,928214080
159,15,Jits_Phase_8,84,9999,9999,9999,929014856
159,15,Jits_Phase_8,85,9999,9999,9999,929814600
159,15,Jits_Phase_8,86,9999,9999,9999,930614348
159,15,Jits_Phase_8,87,9999,9999,9999,931414144
159,15,Jits_Phase_8,88,9999,9999,9999,932214904
159,15,Jits_Phase_8,89,9999,9999,9999,933014640
159,15,Jits_Phase_8,90,9999,9999,9999,933814376
159,15,Jits_Phase_8,91,9999,9999,9999,934614124
159,15,Jits_Phase_8,92,9999,9999,9999,935414892
159,15,Jits_Phase_8,93,9999,9999,9999,936214612
159,15,Jits_Phase_8,94,9999,9999,9999,937014340
159,15,Jits_Phase_8,95,9999,9999,9999,937814136
159,15,Jits_Phase_8,96,9999,9999,9999,938614904
159,15,Jits_Phase_8,97,9999,9999,9999,939334752
159,15,Jits_Phase_8,98,9999,9999,9999,940134496
159,15,Jits_Phase_8,99,9999,9999,9999,940934228
159,15,Jits_Phase_8,100,9999,9999,9999,941734988
159,15,Jits_Phase_8,101,9999,9999,9999,942534740
159,15,Jits_Phase_8,102,9999,9999,9999,943334460
159,15,Jits_Phase_8,103,9999,9999,9999,944134260
159,15,Jits_Phase_8,104,9999,9999,9999,944935032
159,15,Jits_Phase_8,105,9999,9999,9999,945734740
159,15,Jits_Phase_8,106,9999,9999,9999,946534456
159,15,Jits_Phase_8,107,9999,9999,9999,947334236
159,15,Jits_Phase_8,108,9999,9999,9999,948135012
159,15,Jits_Phase_8,109,9999,9999,9999,948934756
159,15,Jits_Phase_8,110,9999,9999,9999,949734484
159,15,Jits_Phase_8,111,9999,9999,9999,950534216
159,15,Jits_Phase_8,112,9999,9999,9999,951334980
159,15,Jits_Phase_8,113,9999,9999,9999,952134780
159,15,Jits_Phase_8,114,9999,9999,9999,953014380
159,15,Jits_Phase_8,115,9999,9999,9999,953814128
159,15,Jits_Phase_8,116,9999,9999,9999,954614852
159,15,Jits_Phase_8,117,9999,9999,9999,955414612
159,15,Jits_Phase_8,118,9999,9999,9999,956214340
159,15,Jits_Phase_8,119,9999,9999,9999,957014132
159,15,Jits_Phase_8,120,9999,9999,9999,957814900
159,15,Jits_Phase_8,121,9999,9999,9999,958614624
159,15,Jits_Phase_8,122,9999,9999,9999,959414344
159,15,Jits_Phase_8,123,9999,9999,9999,960214088
159,15,Jits_Phase_8,124,9999,9999,9999,961014852
159,15,Jits_Phase_8,125,9999,9999,9999,961814644
159,15,Jits_Phase_8,126,9999,9999,9999,962614368
159,15,Jits_Phase_8,127,9999,9999,9999,963414144
159,15,Jits_Phase_8,128,9999,9999,9999,964214844
159,15,Jits_Phase_8,129,9999,9999,9999,965014656
159,15,Jits_Phase_8,130,9999,9999,9999,965814328
159,15,Jits_Phase_8,131,9999,9999,9999,966774880
159,15,Jits_Phase_8,132,9999,9999,9999,967574600
159,15,Jits_Phase_8,133,9999,9999,9999,968374332
159,15,Jits_Phase_8,134,9999,9999,9999,969174080
159,15,Jits_Phase_8,135,9999,9999,9999,969974912
159,15,Jits_Phase_8,136,9999,9999,9999,970774636
159,15,Jits_Phase_8,137,9999,9999,9999,971574380
159,15,Jits_Phase_8,138,9999,9999,9999,972374116
159,15,Jits_Phase_8,139,9999,9999,9999,973174900
159,15,Jits_Phase_8,140,9999,9999,9999,973974628
159,15,Jits_Phase_8,141,9999,9999,9999,974774352
159,15,Jits_Phase_8,142,9999,9999,9999,975574108
159,15,Jits_Phase_8,143,9999,9999,9999,976374880
159,15,Jits_Phase_8,144,9999,9999,9999,977174600
159,15,Jits_Phase_8,145,9999,9999,9999,977974400
159,15,Jits_Phase_8,146,9999,9999,9999,978774124
159,15,Jits_Phase_8,147,9999,9999,9999,979574888
159,15,Jits_Phase_8,148,9999,9999,9999,980374608
159,15,Jits_Phase_8,149,9999,9999,9999,981174328
159,15,Jits_Phase_8,150,9999,9999,9999,981814372
159,15,Jits_Phase_8,151,9999,9999,9999,982614108
159,15,Jits_Phase_8,152,9999,9999,9999,983414896
159,15,Jits_Phase_8,153,9999,9999,9999,984214628
159,15,Jits_Phase_8,154,9999,9999,9999,985014348
159,15,Jits_Phase_8,155,9999,9999,9999,985814080
159,15,Jits_Phase_8,156,9999,9999,9999,986614848
159,15,Jits_Phase_8,157,9999,9999,9999,987414644
159,15,Jits_Phase_8,158,9999,9999,9999,988214376
159,15,Jits_Phase_8,159,9999,9999,9999,989014112
159,15,Jits_Phase_8,160,9999,9999,9999,989814900
159,15,Jits_Phase_8,161,9999,9999,9999,990614628
159,15,Jits_Phase_8,162,9999,9999,9999,991414360
159,15,Jits_Phase_8,163,9999,9999,9999,992214104
159,15,Jits_Phase_8,164,9999,9999,9999,993014872
159,15,Jits_Phase_8,165,9999,9999,9999,993814596
159,15,Jits_Phase_8,166,9999,9999,9999,994614396
159,15,Jits_Phase_8,167,9999,9999,9999,995414120
159,15,Jits_Phase_8,168,9999,9999,9999,996214908
159,15,Jits_Phase_8,169,9999,9999,9999,997014648
1510,17,Jits_Phase_5,0,5,56,103,1021225232
1510,17,Jits_Phase_5,1,5,63,98,1021228328
1510,17,Jits_Phase_5,2,5,80,127,1021231668
1510,17,Jits_Phase_5,0,5,56,103,1021725156
1510,17,Jits_Phase_5,1,5,63,98,1021728176
1510,17,Jits_Phase_5,2,5,80,127,1021731216
1510,17,Jits_Phase_5,0,5,56,103,1022224872
1510,17,Jits_Phase_5,1,5,80,127,1022234980
1510,17,Jits_Phase_5,2,5,63,98,1022254656
1510,17,Jits_Phase_5,0,5,63,98,1022675452
1510,17,Jits_Phase_5,1,5,80,127,1022705004
1510,17,Jits_Phase_5,2,5,56,103,1022715184
1510,17,Jits_Phase_5,0,1,48,55,1023175048
1510,17,Jits_Phase_5,1,5,80,127,1023234384
1510,17,Jits_Phase_5,2,5,56,103,1023244784
1510,17,Jits_Phase_5,3,5,63,98,1023275512
1510,17,Jits_Phase_5,0,1,48,46,1023696796
1510,17,Jits_Phase_5,1,5,63,98,1023724948
1510,17,Jits_Phase_5,2,5,56,103,1023754648
1510,17,Jits_Phase_5,3,5,80,127,1023764976
1510,17,Jits_Phase_5,0,5,56,103,1024174656
1510,17,Jits_Phase_5,1,1,48,43,1024190580
1510,17,Jits_Phase_5,2,5,63,98,1024224568
1510,17,Jits_Phase_5,3,5,80,127,1024244992
1510,17,Jits_Phase_5,0,5,80,127,1024675472
1510,17,Jits_Phase_5,1,1,48,43,1024706508
1510,17,Jits_Phase_5,2,5,63,98,1024725532
1510,17,Jits_Phase_5,3,5,56,103,1024765400
1510,17,Jits_Phase_5,0,5,56,103,1025174872
1510,17,Jits_Phase_5,1,5,63,98,1025204720
1510,17,Jits_Phase_5,2,1,48,32,1025205612
1510,17,Jits_Phase_5,3,5,80,127,1025275492
1510,17,Jits_Phase_5,0,5,56,103,1025674644
1510,17,Jits_Phase_5,1,1,48,32,1025698472
1510,17,Jits_Phase_5,2,5,80,127,1025735028
1510,17,Jits_Phase_5,3,5,63,98,1025764652
1510,17,Jits_Phase_5,0,5,56,103,1026184508
1510,17,Jits_Phase_5,1,5,63,98,1026194688
1510,17,Jits_Phase_5,2,1,48,35,1026228312
1510,17,Jits_Phase_5,3,5,80,127,1026234624
1510,17,Jits_Phase_5,0,5,63,98,1026674924
1510,17,Jits_Phase_5,1,1,48,43,1026700168
1510,17,Jits_Phase_5,2,5,80,127,1026754828
1510,17,Jits_Phase_5,3,5,56,103,1026765304
1510,17,Jits_Phase_5,0,1,48,31,1027218396
1510,17,Jits_Phase_5,1,5,63,98,1027224864
1510,17,Jits_Phase_5,2,5,56,103,1027264832
1510,17,Jits_Phase_5,3,5,80,127,1027267892
1510,17,Jits_Phase_5,0,5,56,103,1027684680
1510,17,Jits_Phase_5,1,5,63,98,1027694936
1510,17,Jits_Phase_5,2,5,80,127,1027734808
1510,17,Jits_Phase_5,3,1,48,36,1027741424
1510,17,Jits_Phase_5,0,5,56,103,1028175472
1510,17,Jits_Phase_5,1,5,63,98,1028178532
1510,17,Jits_Phase_5,2,5,80,127,1028194776
1510,17,Jits_Phase_5,3,1,48,47,1028222632
1510,17,Jits_Phase_5,0,1,48,35,1028663312
1510,17,Jits_Phase_5,1,5,80,127,1028685248
1510,17,Jits_Phase_5,2,5,56,103,1028695352
1510,17,Jits_Phase_5,3,5,63,98,1028765120
1510,17,Jits_Phase_5,0,5,63,98,1029174544
1510,17,Jits_Phase_5,1,5,56,103,1029195264
1510,17,Jits_Phase_5,2,5,80,127,1029275144
1510,17,Jits_Phase_5,3,1,48,24,1029279756
1510,17,Jits_Phase_5,0,1,48,31,1029677404
1510,17,Jits_Phase_5,1,5,56,103,1029684464
1510,17,Jits_Phase_5,2,5,80,127,1029724408
1510,17,Jits_Phase_5,3,5,63,98,1029734736
1510,17,Jits_Phase_5,0,5,80,127,1030175248
1510,17,Jits_Phase_5,1,1,48,31,1030180008
1510,17,Jits_Phase_5,2,5,63,98,1030204648
1510,17,Jits_Phase_5,3,5,56,103,1030244588
1510,17,Jits_Phase_5,0,1,48,29,1030669296
1510,17,Jits_Phase_5,1,5,56,103,1030695432
1510,17,Jits_Phase_5,2,5,63,98,1030725132
1510,17,Jits_Phase_5,3,5,80,127,1030775232
1510,17,Jits_Phase_5,0,1,48,28,1031167784
1510,17,Jits_Phase_5,1,5,80,127,1031195116
1510,17,Jits_Phase_5,2,5,56,103,1031235060
1510,17,Jits_Phase_5,3,5,63,98,1031245464
1510,17,Jits_Phase_5,0,5,80,127,1031675436
1510,17,Jits_Phase_5,1,1,48,25,1031688120
1510,17,Jits_Phase_5,2,5,63,98,1031715300
1510,17,Jits_Phase_5,3,5,56,103,1031774616
1510,17,Jits_Phase_5,0,5,56,103,1032175136
1510,17,Jits_Phase_5,1,5,80,127,1032185316
1510,17,Jits_Phase_5,2,1,48,31,1032187756
1510,17,Jits_Phase_5,3,5,63,98,1032265336
1510,17,Jits_Phase_5,0,5,80,127,1032674536
1510,17,Jits_Phase_5,1,1,48,23,1032707196
1510,17,Jits_Phase_5,2,5,63,98,1032735116
1510,17,Jits_Phase_5,3,5,56,103,1032764668
1510,17,Jits_Phase_5,0,5,56,103,1033175356
1510,17,Jits_Phase_5,1,1,48,22,1033212564
1510,17,Jits_Phase_5,2,5,80,127,1033234744
1510,17,Jits_Phase_5,3,5,63,98,1033274760
1510,17,Jits_Phase_5,0,1,48,28,1033696188
1510,17,Jits_Phase_5,1,5,56,103,1033725312
1510,17,Jits_Phase_5,2,5,63,98,1033734444
1510,17,Jits_Phase_5,3,5,80,127,1033737804
1510,17,Jits_Phase_5,0,5,80,127,1034175180
1510,17,Jits_Phase_5,1,1,48,27,1034194900
1510,17,Jits_Phase_5,2,5,63,98,1034265080
1510,17,Jits_Phase_5,3,5,56,103,1034275184
1510,17,Jits_Phase_5,0,5,56,103,1034674620
1510,17,Jits_Phase_5,1,5,63,98,1034677712
1510,17,Jits_Phase_5,2,5,80,127,1034680976
1510,17,Jits_Phase_5,3,1,48,29,1034699380
1510,17,Jits_Phase_5,0,1,48,31,1035161472
1510,17,Jits_Phase_5,1,5,80,127,1035194792
1510,17,Jits_Phase_5,2,5,63,98,1035244984
1510,17,Jits_Phase_5,3,5,56,103,1035274744
1510,17,Jits_Phase_5,0,5,56,103,1035675164
1510,17,Jits_Phase_5,1,1,48,21,1035677456
1510,17,Jits_Phase_5,2,5,80,127,1035685188
1510,17,Jits_Phase_5,3,5,63,98,1035755292
1510,17,Jits_Phase_5,0,1,48,28,1036174760
1510,17,Jits_Phase_5,1,5,56,103,1036185028
1510,17,Jits_Phase_5,2,5,63,98,1036205304
1510,17,Jits_Phase_5,3,5,80,127,1036264940
1510,17,Jits_Phase_5,0,1,48,36,1036658732
1510,17,Jits_Phase_5,1,5,80,127,1036665192
1510,17,Jits_Phase_5,2,5,63,98,1036734928
1510,17,Jits_Phase_5,3,5,56,103,1036756236
1510,17,Jits_Phase_5,0,5,80,127,1037185376
1510,17,Jits_Phase_5,1,5,56,103,1037194584
1510,17,Jits_Phase_5,2,5,63,98,1037204836
1510,17,Jits_Phase_5,3,1,48,22,1037214016
1510,17,Jits_Phase_5,0,1,48,28,1037666640
1510,17,Jits_Phase_5,1,5,80,127,1037674968
1510,17,Jits_Phase_5,2,5,56,103,1037695468
1510,17,Jits_Phase_5,3,5,63,98,1037765112
1510,17,Jits_Phase_5,0,1,48,32,1038156976
1510,17,Jits_Phase_5,1,5,56,103,1038185048
1510,17,Jits_Phase_5,2,5,80,127,1038214820
1510,17,Jits_Phase_5,3,5,63,98,1038234948
1510,17,Jits_Phase_5,0,1,48,23,1038655236
1510,17,Jits_Phase_5,1,5,63,98,1038675380
1510,17,Jits_Phase_5,2,5,56,103,1038734700
1510,17,Jits_Phase_5,3,5,80,127,1038765504
1510,17,Jits_Phase_5,0,5,63,98,1039164976
1510,17,Jits_Phase_5,1,5,80,127,1039168188
1510,17,Jits_Phase_5,2,1,48,21,1039184476
1510,17,Jits_Phase_5,3,5,56,103,1039254948
1510,17,Jits_Phase_5,0,1,48,24,1039663728
1510,17,Jits_Phase_5,1,5,56,103,1039684992
1510,17,Jits_Phase_5,2,5,63,98,1039714840
1510,17,Jits_Phase_5,3,5,80,127,1039754856
1510,17,Jits_Phase_5,0,1,48,25,1040137380
1510,17,Jits_Phase_5,1,5,63,98,1040184976
1510,17,Jits_Phase_5,2,5,56,103,1040224700
1510,17,Jits_Phase_5,3,5,80,127,1040244960
1510,17,Jits_Phase_5,0,1,48,24,1040624424
1510,17,Jits_Phase_5,1,5,63,98,1040694908
1510,17,Jits_Phase_5,2,5,56,103,1040734912
1510,17,Jits_Phase_5,3,5,80,127,1040744796
1510,17,Jits_Phase_5,0,1,48,21,1041172116
1510,17,Jits_Phase_5,1,5,80,127,1041174924
1510,17,Jits_Phase_5,2,5,63,98,1041244712
1510,17,Jits_Phase_5,3,5,56,103,1041266164
1510,17,Jits_Phase_5,0,5,56,103,1041665492
1510,17,Jits_Phase_5,1,1,48,39,1041670096
1510,17,Jits_Phase_5,2,5,80,127,1041684792
1510,17,Jits_Phase_5,3,5,63,98,1041724808
1510,17,Jits_Phase_5,0,1,48,34,1042159692
1510,17,Jits_Phase_5,1,5,63,98,1042184704
1510,17,Jits_Phase_5,2,5,80,127,1042204980
1510,17,Jits_Phase_5,3,5,56,103,1042244848
1510,17,Jits_Phase_5,0,1,48,30,1042675912
1510,17,Jits_Phase_5,1,5,63,98,1042685432
1510,17,Jits_Phase_5,2,5,56,103,1042704736
1510,17,Jits_Phase_5,3,5,80,127,1042714840
1510,17,Jits_Phase_5,0,1,48,35,1043184516
1510,17,Jits_Phase_5,1,5,80,127,1043186156
1510,17,Jits_Phase_5,2,5,56,103,1043204640
1510,17,Jits_Phase_5,3,5,63,98,1043235164
1510,17,Jits_Phase_5,0,1,48,37,1043684100
1510,17,Jits_Phase_5,1,5,56,103,1043755552
1510,17,Jits_Phase_5,2,5,80,127,1043758612
1510,17,Jits_Phase_5,3,5,63,98,1043774928
1510,17,Jits_Phase_5,0,5,63,98,1044175360
1510,17,Jits_Phase_5,1,5,56,103,1044204912
1510,17,Jits_Phase_5,2,1,48,29,1044234360
1510,17,Jits_Phase_5,3,5,80,127,1044265340
1510,17,Jits_Phase_5,0,1,48,35,1044682404
1510,17,Jits_Phase_5,1,5,63,98,1044754696
1510,17,Jits_Phase_5,2,5,56,103,1044765024
1510,17,Jits_Phase_5,3,5,80,127,1044775484
1510,17,Jits_Phase_5,0,1,48,35,1045179332
1510,17,Jits_Phase_5,1,5,56,103,1045214744
1510,17,Jits_Phase_5,2,5,80,127,1045245488
1510,17,Jits_Phase_5,3,5,63,98,1045254548
1510,17,Jits_Phase_5,0,1,48,29,1045720528
1510,17,Jits_Phase_5,1,5,63,98,1045755268
1510,17,Jits_Phase_5,2,5,56,103,1045764772
1510,17,Jits_Phase_5,3,5,80,127,1045784972
1510,17,Jits_Phase_5,0,5,56,103,1046185748
1510,17,Jits_Phase_5,1,1,48,26,1046219548
1510,17,Jits_Phase_5,2,5,63,98,1046244784
1510,17,Jits_Phase_5,3,5,80,127,1046248216
1510,17,Jits_Phase_5,0,1,48,36,1046698568
1510,17,Jits_Phase_5,1,5,80,127,1046704508
1510,17,Jits_Phase_5,2,5,56,103,1046714712
1510,17,Jits_Phase_5,3,5,63,98,1046785464
1510,17,Jits_Phase_5,0,5,80,127,1047194996
1510,17,Jits_Phase_5,1,1,48,27,1047246820
1510,17,Jits_Phase_5,2,5,56,103,1047264580
1510,17,Jits_Phase_5,3,5,63,98,1047274832
1510,17,Jits_Phase_5,0,1,48,27,1047713820
1510,17,Jits_Phase_5,1,5,63,98,1047734632
1510,17,Jits_Phase_5,2,5,56,103,1047744764
1510,17,Jits_Phase_5,3,5,80,127,1047765484
1510,17,Jits_Phase_5,0,5,80,127,1048185484
1510,17,Jits_Phase_5,1,1,48,29,1048191512
1510,17,Jits_Phase_5,2,5,63,98,1048244724
1510,17,Jits_Phase_5,3,5,56,103,1048284468
1510,17,Jits_Phase_5,0,1,48,31,1048683592
1510,17,Jits_Phase_5,1,5,56,103,1048724824
1510,17,Jits_Phase_5,2,5,63,98,1048735376
1510,17,Jits_Phase_5,3,5,80,127,1048774896
1510,17,Jits_Phase_5,0,1,48,29,1049178552
1510,17,Jits_Phase_5,1,5,56,103,1049184492
1510,17,Jits_Phase_5,2,5,80,127,1049215312
1510,17,Jits_Phase_5,3,5,63,98,1049264456
1510,17,Jits_Phase_5,0,1,48,24,1049685644
1510,17,Jits_Phase_5,1,5,56,103,1049725456
1510,17,Jits_Phase_5,2,5,63,98,1049765252
1510,17,Jits_Phase_5,3,5,80,127,1049768612
1510,17,Jits_Phase_5,0,1,48,24,1050210664
1510,17,Jits_Phase_5,1,5,56,103,1050225132
1510,17,Jits_Phase_5,2,5,63,98,1050235384
1510,17,Jits_Phase_5,3,5,80,127,1050254688
1510,17,Jits_Phase_5,0,5,56,103,1050684652
1510,17,Jits_Phase_5,1,5,80,127,1050687792
1510,17,Jits_Phase_5,2,1,48,30,1050693012
1510,17,Jits_Phase_5,3,5,63,98,1050724596
1510,17,Jits_Phase_5,0,1,48,30,1051198888
1510,17,Jits_Phase_5,1,5,63,98,1051224500
1510,17,Jits_Phase_5,2,5,56,103,1051255392
1510,17,Jits_Phase_5,3,5,80,127,1051274548
1510,17,Jits_Phase_5,0,1,48,35,1051685788
1510,17,Jits_Phase_5,1,5,80,127,1051694716
1510,17,Jits_Phase_5,2,5,56,103,1051704672
1510,17,Jits_Phase_5,3,5,63,98,1051715148
1510,17,Jits_Phase_5,0,1,48,27,1052181720
1510,17,Jits_Phase_5,1,5,56,103,1052195292
1510,17,Jits_Phase_5,2,5,80,127,1052235236
1510,17,Jits_Phase_5,3,5,63,98,1052264936
1510,17,Jits_Phase_5,0,1,48,32,1052677148
1510,17,Jits_Phase_5,1,5,63,98,1052705072
1510,17,Jits_Phase_5,2,5,80,127,1052715400
1510,17,Jits_Phase_5,3,5,56,103,1052724532
1510,17,Jits_Phase_5,0,1,48,33,1053118032
1510,17,Jits_Phase_5,1,5,56,103,1053194504
1510,17,Jits_Phase_5,2,5,63,98,1053265320
1510,17,Jits_Phase_5,3,5,80,127,1053274456
1510,17,Jits_Phase_5,0,1,48,24,1053644648
1510,17,Jits_Phase_5,1,5,80,127,1053704436
1510,17,Jits_Phase_5,2,5,56,103,1053714836
1510,17,Jits_Phase_5,3,5,63,98,1053765236
1510,17,Jits_Phase_5,0,1,48,29,1054176268
1510,17,Jits_Phase_5,1,5,80,127,1054214588
1510,17,Jits_Phase_5,2,5,56,103,1054275012
1510,17,Jits_Phase_5,3,5,63,98,1054304560
1510,17,Jits_Phase_5,0,1,48,31,1054658672
1510,17,Jits_Phase_5,1,5,56,103,1054715244
1510,17,Jits_Phase_5,2,5,80,127,1054718228
1510,17,Jits_Phase_5,3,5,63,98,1054755616
1510,17,Jits_Phase_5,0,1,48,37,1055146352
1510,17,Jits_Phase_5,1,5,56,103,1055244756
1510,17,Jits_Phase_5,2,5,63,98,1055275488
1510,17,Jits_Phase_5,3,5,80,127,1055284472
1510,17,Jits_Phase_5,0,1,48,21,1055690332
1510,17,Jits_Phase_5,1,5,63,98,1055754688
1510,17,Jits_Phase_5,2,5,80,127,1055764944
1510,17,Jits_Phase_5,3,5,56,103,1055774972
1510,17,Jits_Phase_5,0,5,80,127,1056205020
1510,17,Jits_Phase_5,1,1,48,29,1056241628
1510,17,Jits_Phase_5,2,5,56,103,1056255276
1510,17,Jits_Phase_5,3,5,63,98,1056258484
1510,17,Jits_Phase_5,0,1,48,30,1056718948
1510,17,Jits_Phase_5,1,5,56,103,1056734536
1510,17,Jits_Phase_5,2,5,80,127,1056755036
1510,17,Jits_Phase_5,3,5,63,98,1056765364
1510,17,Jits_Phase_5,0,5,63,98,1057215076
1510,17,Jits_Phase_5,1,1,48,28,1057233160
1510,17,Jits_Phase_5,2,5,56,103,1057244472
1510,17,Jits_Phase_5,3,5,80,127,1057265120
1510,17,Jits_Phase_5,0,1,48,38,1057697720
1510,17,Jits_Phase_5,1,5,56,103,1057724924
1510,17,Jits_Phase_5,2,5,80,127,1057735180
1510,17,Jits_Phase_5,3,5,63,98,1057804800
1510,17,Jits_Phase_5,0,1,48,25,1058200840
1510,17,Jits_Phase_5,1,5,63,98,1058215232
1510,17,Jits_Phase_5,2,5,80,127,1058255356
1510,17,Jits_Phase_5,3,5,56,103,1058295060
1510,17,Jits_Phase_5,0,1,48,26,1058715564
1510,17,Jits_Phase_5,1,5,56,103,1058725092
1510,17,Jits_Phase_5,2,5,63,98,1058734300
1510,17,Jits_Phase_5,3,5,80,127,1058755044
1510,17,Jits_Phase_5,0,1,48,21,1059215476
1510,17,Jits_Phase_5,1,5,63,98,1059264884
1510,17,Jits_Phase_5,2,5,80,127,1059285236
1510,17,Jits_Phase_5,3,5,56,103,1059304840
1510,17,Jits_Phase_5,0,5,56,103,1059705236
1510,17,Jits_Phase_5,1,1,48,27,1059770892
1510,17,Jits_Phase_5,2,5,80,127,1059785064
1510,17,Jits_Phase_5,3,5,63,98,1059795392
1510,17,Jits_Phase_5,0,5,80,127,1060244804
1510,17,Jits_Phase_5,1,5,63,98,1060255060
1510,17,Jits_Phase_5,2,5,56,103,1060284632
1510,17,Jits_Phase_5,0,5,63,98,1060704800
1510,17,Jits_Phase_5,1,1,48,33,1060713904
1510,17,Jits_Phase_5,2,5,80,127,1060744812
1510,17,Jits_Phase_5,3,5,56,103,1060804900
1510,17,Jits_Phase_5,0,1,48,31,1061196448
1510,17,Jits_Phase_5,1,5,63,98,1061214724
1510,17,Jits_Phase_5,2,5,56,103,1061264768
1510,17,Jits_Phase_5,3,5,80,127,1061294748
1510,17,Jits_Phase_5,0,1,48,36,1061704440
1510,17,Jits_Phase_5,1,5,80,127,1061715236
1510,17,Jits_Phase_5,2,5,63,98,1061724740
1510,17,Jits_Phase_5,3,5,56,103,1061795272
1510,17,Jits_Phase_5,0,1,48,32,1062218180
1510,17,Jits_Phase_5,1,5,80,127,1062274604
1510,17,Jits_Phase_5,2,5,56,103,1062284784
1510,17,Jits_Phase_5,3,5,63,98,1062287768
1510,17,Jits_Phase_5,0,5,56,103,1062714684
1510,17,Jits_Phase_5,1,5,80,127,1062735260
1510,17,Jits_Phase_5,2,5,63,98,1062744540
1510,17,Jits_Phase_5,3,1,48,30,1062747508
1510,17,Jits_Phase_5,0,5,63,98,1063224704
1510,17,Jits_Phase_5,1,1,48,29,1063250400
1510,17,Jits_Phase_5,2,5,56,103,1063264792
1510,17,Jits_Phase_5,3,5,80,127,1063285216
1510,17,Jits_Phase_5,0,5,63,98,1063725584
1510,17,Jits_Phase_5,1,1,48,31,1063749864
1510,17,Jits_Phase_5,2,5,56,103,1063784668
1510,17,Jits_Phase_5,3,5,80,127,1063787808
1510,17,Jits_Phase_5,0,5,56,103,1064185252
1510,17,Jits_Phase_5,1,5,80,127,1064204632
1510,17,Jits_Phase_5,2,1,48,39,1064228604
1510,17,Jits_Phase_5,3,5,63,98,1064244720
1510,17,Jits_Phase_5,0,5,56,103,1064714492
1510,17,Jits_Phase_5,1,5,63,98,1064735140
1510,17,Jits_Phase_5,2,5,80,127,1064745320
1510,17,Jits_Phase_5,3,1,48,38,1064750968
1510,17,Jits_Phase_5,0,5,80,127,1065184572
1510,17,Jits_Phase_5,1,1,48,40,1065202184
1510,17,Jits_Phase_5,2,5,56,103,1065215608
1510,17,Jits_Phase_5,3,5,63,98,1065255552
1510,17,Jits_Phase_5,0,5,80,127,1065694440
1510,17,Jits_Phase_5,1,5,56,103,1065715012
1510,17,Jits_Phase_5,2,1,48,35,1065719688
1510,17,Jits_Phase_5,3,5,63,98,1065774620
1510,17,Jits_Phase_5,0,5,56,103,1066204456
1510,17,Jits_Phase_5,1,5,80,127,1066224956
1510,17,Jits_Phase_5,2,1,48,24,1066282876
1510,17,Jits_Phase_5,3,5,63,98,1066285460
1510,17,Jits_Phase_5,0,5,80,127,1066684856
1510,17,Jits_Phase_5,1,5,56,103,1066694960
1510,17,Jits_Phase_5,2,5,63,98,1066734832
1510,17,Jits_Phase_5,3,1,48,29,1066745428
1510,17,Jits_Phase_5,0,5,63,98,1067184376
1510,17,Jits_Phase_5,1,5,56,103,1067224492
1510,17,Jits_Phase_5,2,5,80,127,1067227408
1510,17,Jits_Phase_5,3,1,48,21,1067427576
1510,17,Jits_Phase_5,0,5,63,98,1067704716
1510,17,Jits_Phase_5,1,5,80,127,1067744588
1510,17,Jits_Phase_5,2,5,56,103,1067775476
1510,17,Jits_Phase_5,3,1,48,28,1067917836
1510,17,Jits_Phase_5,0,5,56,103,1068195172
1510,17,Jits_Phase_5,1,5,63,98,1068205280
1510,17,Jits_Phase_5,2,5,80,127,1068235076
1510,17,Jits_Phase_5,0,1,48,34,1068626044
1510,17,Jits_Phase_5,1,5,80,127,1068684780
1510,17,Jits_Phase_5,2,5,63,98,1068755476
1510,17,Jits_Phase_5,3,5,56,103,1068764612
1510,17,Jits_Phase_5,0,5,63,98,1069185588
1510,17,Jits_Phase_5,1,1,48,26,1069186552
1510,17,Jits_Phase_5,2,5,56,103,1069255172
1510,17,Jits_Phase_5,3,5,80,127,1069265276
1510,17,Jits_Phase_5,0,5,63,98,1069664484
1510,17,Jits_Phase_5,1,5,56,103,1069685280
1510,17,Jits_Phase_5,2,5,80,127,1069725224
1510,17,Jits_Phase_5,3,1,48,29,1069862220
1510,17,Jits_Phase_5,0,5,56,103,1070155264
1510,17,Jits_Phase_5,1,5,63,98,1070165444
1510,17,Jits_Phase_5,2,5,80,127,1070245324
1510,17,Jits_Phase_5,0,1,48,30,1070502848
1510,17,Jits_Phase_5,1,5,63,98,1070644712
1510,17,Jits_Phase_5,2,5,56,103,1070675308
1510,17,Jits_Phase_5,3,5,80,127,1070715252
1510,17,Jits_Phase_5,0,1,48,27,1071066296
1510,17,Jits_Phase_5,1,5,56,103,1071145304
1510,17,Jits_Phase_5,2,5,63,98,1071185232
1510,17,Jits_Phase_5,3,5,80,127,1071225324
1510,17,Jits_Phase_5,0,1,48,26,1071638148
1510,17,Jits_Phase_5,1,5,80,127,1071645136
1510,17,Jits_Phase_5,2,5,56,103,1071725016
1510,17,Jits_Phase_5,3,5,63,98,1071735256
1510,17,Jits_Phase_5,0,5,56,103,1072184764
1510,17,Jits_Phase_5,1,5,63,98,1072187824
1510,17,Jits_Phase_5,2,5,80,127,1072195316
1510,17,Jits_Phase_5,3,1,48,14,1072337180
1510,17,Jits_Phase_5,0,5,56,103,1072705020
1510,17,Jits_Phase_5,1,5,63,98,1072725296
1510,17,Jits_Phase_5,2,5,80,127,1072734652
1510,17,Jits_Phase_5,0,5,63,98,1073164652
1510,17,Jits_Phase_5,1,5,80,127,1073175056
1510,17,Jits_Phase_5,2,5,56,103,1073195332
1510,17,Jits_Phase_5,3,1,48,25,1073206072
1510,17,Jits_Phase_5,0,1,48,28,1073663332
1510,17,Jits_Phase_5,1,5,63,98,1073665372
1510,17,Jits_Phase_5,2,5,56,103,1073745256
1510,17,Jits_Phase_5,3,5,80,127,1073748464
1510,17,Jits_Phase_5,0,1,48,26,1074158216
1510,17,Jits_Phase_5,1,5,63,98,1074165052
1510,17,Jits_Phase_5,2,5,56,103,1074184508
1510,17,Jits_Phase_5,3,5,80,127,1074215180
1510,17,Jits_Phase_5,0,5,56,103,1074664968
1510,17,Jits_Phase_5,1,1,48,24,1074680868
1510,17,Jits_Phase_5,2,5,63,98,1074685388
1510,17,Jits_Phase_5,3,5,80,127,1074694372
1510,17,Jits_Phase_5,0,1,48,26,1075151312
1510,17,Jits_Phase_5,1,5,56,103,1075195176
1510,17,Jits_Phase_5,2,5,63,98,1075225024
1510,17,Jits_Phase_5,3,5,80,127,1075228232
1510,17,Jits_Phase_5,0,5,56,103,1075645048
1510,17,Jits_Phase_5,1,1,48,29,1075658784
1510,17,Jits_Phase_5,2,5,63,98,1075684988
1510,17,Jits_Phase_5,3,5,80,127,1075745052
1510,17,Jits_Phase_5,0,1,48,27,1076154596
1510,17,Jits_Phase_5,1,5,56,103,1076164936
1510,17,Jits_Phase_5,2,5,63,98,1076175340
1510,17,Jits_Phase_5,3,5,80,127,1076234508
1510,17,Jits_Phase_5,0,1,48,21,1076651024
1510,17,Jits_Phase_5,1,5,56,103,1076664768
1510,17,Jits_Phase_5,2,5,80,127,1076685268
1510,17,Jits_Phase_5,3,5,63,98,1076715040
1510,17,Jits_Phase_5,0,1,48,21,1077150332
1510,17,Jits_Phase_5,1,5,80,127,1077165548
1510,17,Jits_Phase_5,2,5,56,103,1077174532
1510,17,Jits_Phase_5,3,5,63,98,1077195204
1510,17,Jits_Phase_5,0,1,48,25,1077653860
1510,17,Jits_Phase_5,1,5,63,98,1077655732
1510,17,Jits_Phase_5,2,5,80,127,1077734892
1510,17,Jits_Phase_5,3,5,56,103,1077745576
1510,17,Jits_Phase_5,0,1,48,22,1078121724
1510,17,Jits_Phase_5,1,5,80,127,1078244732
1510,17,Jits_Phase_5,2,5,56,103,1078265156
1510,17,Jits_Phase_5,3,5,63,98,1078268512
1510,17,Jits_Phase_5,0,1,48,26,1078679296
1510,17,Jits_Phase_5,1,5,63,98,1078735224
1510,17,Jits_Phase_5,2,5,80,127,1078738504
1510,17,Jits_Phase_5,3,5,56,103,1078794896
1510,17,Jits_Phase_5,0,5,56,103,1079214616
1510,17,Jits_Phase_5,1,5,80,127,1079224892
1510,17,Jits_Phase_5,2,1,48,26,1079228828
1510,17,Jits_Phase_5,3,5,63,98,1079264832
1510,17,Jits_Phase_5,0,5,56,103,1079694864
1510,17,Jits_Phase_5,1,1,48,25,1079710092
1510,17,Jits_Phase_5,2,5,63,98,1079755176
1510,17,Jits_Phase_5,3,5,80,127,1079765428
1510,17,Jits_Phase_5,0,5,63,98,1080204592
1510,17,Jits_Phase_5,1,1,48,30,1080210764
1510,17,Jits_Phase_5,2,5,80,127,1080244680
1510,17,Jits_Phase_5,3,5,56,103,1080284648
1510,17,Jits_Phase_5,0,5,56,103,1080705388
1510,17,Jits_Phase_5,1,1,48,25,1080723988
1510,17,Jits_Phase_5,2,5,63,98,1080785216
1510,17,Jits_Phase_5,3,5,80,127,1080788720
1510,17,Jits_Phase_5,0,1,48,29,1081236012
1510,17,Jits_Phase_5,1,5,80,127,1081264756
1510,17,Jits_Phase_5,2,5,56,103,1081295152
1510,17,Jits_Phase_5,3,5,63,98,1081298140
1510,17,Jits_Phase_5,0,5,56,103,1081725252
1510,17,Jits_Phase_5,1,5,80,127,1081744708
1510,17,Jits_Phase_5,2,1,48,26,1081782680
1510,17,Jits_Phase_5,3,5,63,98,1081784648
1510,17,Jits_Phase_5,0,5,80,127,1082204584
1510,17,Jits_Phase_5,1,5,63,98,1082224936
1510,17,Jits_Phase_5,2,1,48,28,1082263880
1510,17,Jits_Phase_5,3,5,56,103,1082285512
1510,17,Jits_Phase_5,0,5,63,98,1082714604
1510,17,Jits_Phase_5,1,5,56,103,1082724708
1510,17,Jits_Phase_5,2,1,48,27,1082755648
1510,17,Jits_Phase_5,3,5,80,127,1082774820
1510,17,Jits_Phase_5,0,5,56,103,1083204936
1510,17,Jits_Phase_5,1,1,48,21,1083222952
1510,17,Jits_Phase_5,2,5,63,98,1083224680
1510,17,Jits_Phase_5,3,5,80,127,1083234712
1510,17,Jits_Phase_5,0,5,56,103,1083694608
1510,17,Jits_Phase_5,1,5,63,98,1083697592
1510,17,Jits_Phase_5,2,5,80,127,1083714808
1510,17,Jits_Phase_5,3,1,48,24,1083736840
1510,17,Jits_Phase_5,0,1,48,28,1084184616
1510,17,Jits_Phase_5,1,5,63,98,1084234976
1510,17,Jits_Phase_5,2,5,56,103,1084264676
1510,17,Jits_Phase_5,3,5,80,127,1084294656
1510,17,Jits_Phase_5,0,5,80,127,1084694876
1510,17,Jits_Phase_5,1,1,48,22,1084733448
1510,17,Jits_Phase_5,2,5,56,103,1084785000
1510,17,Jits_Phase_5,3,5,63,98,1084788136
1510,17,Jits_Phase_5,0,5,56,103,1085194488
1510,17,Jits_Phase_5,1,5,80,127,1085197632
1510,17,Jits_Phase_5,2,1,48,30,1085246072
1510,17,Jits_Phase_5,3,5,63,98,1085274444
1510,17,Jits_Phase_5,0,5,80,127,1085695452
1510,17,Jits_Phase_5,1,1,48,26,1085732980
1510,17,Jits_Phase_5,2,5,63,98,1085754840
1510,17,Jits_Phase_5,3,5,56,103,1085784540
1510,17,Jits_Phase_5,0,1,48,36,1086166400
1510,17,Jits_Phase_5,1,5,63,98,1086195000
1510,17,Jits_Phase_5,2,5,80,127,1086205548
1510,17,Jits_Phase_5,3,5,56,103,1086275020
1510,17,Jits_Phase_5,0,1,48,25,1086702740
1510,17,Jits_Phase_5,1,5,56,103,1086755116
1510,17,Jits_Phase_5,2,5,80,127,1086784964
1510,17,Jits_Phase_5,3,5,63,98,1086834992
1510,17,Jits_Phase_5,0,1,48,30,1087224928
1510,17,Jits_Phase_5,1,5,63,98,1087345204
1510,17,Jits_Phase_5,2,5,56,103,1087374828
1510,17,Jits_Phase_5,3,5,80,127,1087377964
1510,17,Jits_Phase_5,0,1,48,26,1087754304
1510,17,Jits_Phase_5,1,5,63,98,1087844600
1510,17,Jits_Phase_5,2,5,80,127,1087865384
1510,17,Jits_Phase_5,3,5,56,103,1087874444
1510,17,Jits_Phase_5,0,1,48,36,1088317184
1510,17,Jits_Phase_5,1,5,56,103,1088354532
1510,17,Jits_Phase_5,2,5,63,98,1088357820
1510,17,Jits_Phase_5,3,5,80,127,1088375332
1510,17,Jits_Phase_5,0,5,56,103,1088805376
1510,17,Jits_Phase_5,1,5,63,98,1088814364
1510,17,Jits_Phase_5,2,5,80,127,1088845256
1510,17,Jits_Phase_5,3,1,48,33,1088860104
1510,17,Jits_Phase_5,0,1,48,27,1089302040
1510,17,Jits_Phase_5,1,5,63,98,1089325484
1510,17,Jits_Phase_5,2,5,80,127,1089344792
1510,17,Jits_Phase_5,3,5,56,103,1089384960
1510,17,Jits_Phase_5,0,1,48,37,1089782128
1510,17,Jits_Phase_5,1,5,56,103,1089854716
1510,17,Jits_Phase_5,2,5,63,98,1089894720
1510,17,Jits_Phase_5,3,5,80,127,1089898228
1510,17,Jits_Phase_5,0,1,48,22,1090256388
1510,17,Jits_Phase_5,1,5,80,127,1090295304
1510,17,Jits_Phase_5,2,5,56,103,1090335176
1510,17,Jits_Phase_5,3,5,63,98,1090385352
1510,17,Jits_Phase_5,0,1,48,43,1090790544
1510,17,Jits_Phase_5,1,5,56,103,1090855348
1510,17,Jits_Phase_5,2,5,80,127,1090864556
1510,17,Jits_Phase_5,3,5,63,98,1090895360
1510,17,Jits_Phase_5,0,1,48,33,1091285528
1510,17,Jits_Phase_5,1,5,56,103,1091304772
1510,17,Jits_Phase_5,2,5,80,127,1091344720
1510,17,Jits_Phase_5,3,5,63,98,1091395116
1510,17,Jits_Phase_5,0,1,48,34,1091774892
1510,17,Jits_Phase_5,1,5,56,103,1091804532
1510,17,Jits_Phase_5,2,5,80,127,1091844404
1510,17,Jits_Phase_5,3,5,63,98,1091894580
1510,17,Jits_Phase_5,0,1,48,29,1092225188
1510,17,Jits_Phase_5,1,5,80,127,1092295240
1510,17,Jits_Phase_5,2,5,63,98,1092375036
1510,17,Jits_Phase_5,3,5,56,103,1092385140
1510,17,Jits_Phase_5,0,1,48,36,1092803352
1510,17,Jits_Phase_5,1,5,80,127,1092845184
1510,17,Jits_Phase_5,2,5,56,103,1092855140
1510,17,Jits_Phase_5,3,5,63,98,1092874596
1510,17,Jits_Phase_5,0,1,48,27,1093297700
1510,17,Jits_Phase_5,1,5,63,98,1093314884
1510,17,Jits_Phase_5,2,5,56,103,1093384520
1510,17,Jits_Phase_5,3,5,80,127,1093387580
1510,17,Jits_Phase_5,0,5,80,127,1093805488
1510,17,Jits_Phase_5,1,1,48,27,1093808076
1510,17,Jits_Phase_5,2,5,63,98,1093854580
1510,17,Jits_Phase_5,3,5,56,103,1093894448
1510,17,Jits_Phase_5,0,1,48,34,1094284888
1510,17,Jits_Phase_5,1,5,63,98,1094345220
1510,17,Jits_Phase_5,2,5,56,103,1094385152
1510,17,Jits_Phase_5,3,5,80,127,1094395328
1510,17,Jits_Phase_5,0,1,48,28,1094798108
1510,17,Jits_Phase_5,1,5,63,98,1094834492
1510,17,Jits_Phase_5,2,5,56,103,1094855016
1510,17,Jits_Phase_5,3,5,80,127,1094874472
1510,17,Jits_Phase_5,0,1,48,27,1095258604
1510,17,Jits_Phase_5,1,5,80,127,1095295208
1510,17,Jits_Phase_5,2,5,56,103,1095304492
1510,17,Jits_Phase_5,3,5,63,98,1095325140
1510,17,Jits_Phase_5,0,1,48,32,1095753576
1510,17,Jits_Phase_5,1,5,63,98,1095824880
1510,17,Jits_Phase_5,2,5,56,103,1095864760
1510,17,Jits_Phase_5,3,5,80,127,1095895432
1510,17,Jits_Phase_5,0,5,56,103,1096284412
1510,17,Jits_Phase_5,1,1,48,20,1096293444
1510,17,Jits_Phase_5,2,5,63,98,1096315152
1510,17,Jits_Phase_5,3,5,80,127,1096344924
1510,17,Jits_Phase_5,0,5,80,127,1096705364
1510,17,Jits_Phase_5,1,5,56,103,1096775000
1510,17,Jits_Phase_5,2,5,63,98,1096778060
1510,17,Jits_Phase_5,3,1,48,33,1096792092
1510,17,Jits_Phase_5,0,5,56,103,1097215224
1510,17,Jits_Phase_5,1,1,48,35,1097238004
1510,17,Jits_Phase_5,2,5,63,98,1097264364
1510,17,Jits_Phase_5,3,5,80,127,1097295108
1510,17,Jits_Phase_5,0,5,63,98,1097694652
1510,17,Jits_Phase_5,1,5,80,127,1097698012
1510,17,Jits_Phase_5,2,1,48,31,1097699196
1510,17,Jits_Phase_5,3,5,56,103,1097755008
1510,17,Jits_Phase_5,0,1,48,25,1098191664
1510,17,Jits_Phase_5,1,5,56,103,1098224984
1510,17,Jits_Phase_5,2,5,80,127,1098235388
1510,17,Jits_Phase_5,3,5,63,98,1098285356
1510,17,Jits_Phase_5,0,1,48,32,1098653568
1510,17,Jits_Phase_5,1,5,63,98,1098694980
1510,17,Jits_Phase_5,2,5,56,103,1098705160
1510,17,Jits_Phase_5,3,5,80,127,1098735004
1510,17,Jits_Phase_5,0,1,48,22,1099129080
1510,17,Jits_Phase_5,1,5,63,98,1099224328
1510,17,Jits_Phase_5,2,5,80,127,1099227768
1510,17,Jits_Phase_5,3,5,56,103,1099255152
1510,17,Jits_Phase_5,0,5,63,98,1099744896
1510,17,Jits_Phase_5,1,5,56,103,1099765096
1510,17,Jits_Phase_5,2,5,80,127,1099768012
1510,17,Jits_Phase_5,0,1,48,35,1100099652
1510,17,Jits_Phase_5,1,5,63,98,1100205428
1510,17,Jits_Phase_5,2,5,56,103,1100275016
1510,17,Jits_Phase_5,3,5,80,127,1100294764
1510,17,Jits_Phase_5,0,1,48,34,1100595008
1510,17,Jits_Phase_5,1,5,56,103,1100695616
1510,17,Jits_Phase_5,2,5,63,98,1100705196
1510,17,Jits_Phase_5,3,5,80,127,1100795196
1510,17,Jits_Phase_5,0,1,48,27,1101094692
1510,17,Jits_Phase_5,1,5,56,103,1101215048
1510,17,Jits_Phase_5,2,5,80,127,1101254944
1510,17,Jits_Phase_5,3,5,63,98,1101265200
1510,17,Jits_Phase_5,0,1,48,32,1101598112
1510,17,Jits_Phase_5,1,5,56,103,1101735224
1510,17,Jits_Phase_5,2,5,63,98,1101764948
1510,17,Jits_Phase_5,3,5,80,127,1101794648
1510,17,Jits_Phase_5,0,1,48,34,1102111108
1510,17,Jits_Phase_5,1,5,80,127,1102194988
1510,17,Jits_Phase_5,2,5,63,98,1102234992
1510,17,Jits_Phase_5,3,5,56,103,1102254668
1510,17,Jits_Phase_5,0,1,48,35,1102634360
1510,17,Jits_Phase_5,1,5,56,103,1102734744
1510,17,Jits_Phase_5,2,5,80,127,1102755244
1510,17,Jits_Phase_5,3,5,63,98,1102774576
1510,17,Jits_Phase_5,0,1,48,32,1103153044
1510,17,Jits_Phase_5,1,5,63,98,1103204752
1510,17,Jits_Phase_5,2,5,56,103,1103214932
1510,17,Jits_Phase_5,3,5,80,127,1103275572
1510,17,Jits_Phase_5,0,1,48,25,1103648752
1510,17,Jits_Phase_5,1,5,56,103,1103704508
1510,17,Jits_Phase_5,2,5,63,98,1103774956
1510,17,Jits_Phase_5,3,5,80,127,1103794708
1510,17,Jits_Phase_5,0,1,48,38,1104194976
1510,17,Jits_Phase_5,1,5,56,103,1104205020
1510,17,Jits_Phase_5,2,5,63,98,1104234944
1510,17,Jits_Phase_5,3,5,80,127,1104274888
1510,17,Jits_Phase_5,0,5,63,98,1104694688
1510,17,Jits_Phase_5,1,1,48,35,1104729584
1510,17,Jits_Phase_5,2,5,56,103,1104744800
1510,17,Jits_Phase_5,3,5,80,127,1104755200
1510,17,Jits_Phase_5,0,5,56,103,1105235504
1510,17,Jits_Phase_5,1,1,48,26,1105260300
1510,17,Jits_Phase_5,2,5,63,98,1105284420
1510,17,Jits_Phase_5,3,5,80,127,1105294676
1510,17,Jits_Phase_5,0,5,56,103,1105705440
1510,17,Jits_Phase_5,1,5,63,98,1105714572
1510,17,Jits_Phase_5,2,1,48,28,1105777968
1510,17,Jits_Phase_5,3,5,80,127,1105794524
1510,17,Jits_Phase_5,0,9999,9999,9999,1021472848
1510,17,Jits_Phase_5,1,9999,9999,9999,1021972548
1510,17,Jits_Phase_5,2,9999,9999,9999,1022472268
1510,17,Jits_Phase_5,3,9999,9999,9999,1022973028
1510,17,Jits_Phase_5,4,9999,9999,9999,1023472712
1510,17,Jits_Phase_5,5,9999,9999,9999,1023972476
1510,17,Jits_Phase_5,6,9999,9999,9999,1024472160
1510,17,Jits_Phase_5,7,9999,9999,9999,1024972904
1510,17,Jits_Phase_5,8,9999,9999,9999,1025472600
1510,17,Jits_Phase_5,9,9999,9999,9999,1025972348
1510,17,Jits_Phase_5,10,9999,9999,9999,1026473080
1510,17,Jits_Phase_5,11,9999,9999,9999,1026972776
1510,17,Jits_Phase_5,12,9999,9999,9999,1027472456
1510,17,Jits_Phase_5,13,9999,9999,9999,1027972212
1510,17,Jits_Phase_5,14,9999,9999,9999,1028472940
1510,17,Jits_Phase_5,15,9999,9999,9999,1028972640
1510,17,Jits_Phase_5,16,9999,9999,9999,1029472320
1510,17,Jits_Phase_5,17,9999,9999,9999,1029973044
1510,17,Jits_Phase_5,18,9999,9999,9999,1030472804
1510,17,Jits_Phase_5,19,9999,9999,9999,1030972504
1510,17,Jits_Phase_5,20,9999,9999,9999,1031472188
1510,17,Jits_Phase_5,21,9999,9999,9999,1031972916
1510,17,Jits_Phase_5,22,9999,9999,9999,1032472688
1510,17,Jits_Phase_5,23,9999,9999,9999,1032972392
1510,17,Jits_Phase_5,24,9999,9999,9999,1033472092
1510,17,Jits_Phase_5,25,9999,9999,9999,1033972828
1510,17,Jits_Phase_5,26,9999,9999,9999,1034472512
1510,17,Jits_Phase_5,27,9999,9999,9999,1034972264
1510,17,Jits_Phase_5,28,9999,9999,9999,1035472984
1510,17,Jits_Phase_5,29,9999,9999,9999,1035972668
1510,17,Jits_Phase_5,30,9999,9999,9999,1036462172
1510,17,Jits_Phase_5,31,9999,9999,9999,1036962904
1510,17,Jits_Phase_5,32,9999,9999,9999,1037462584
1510,17,Jits_Phase_5,33,9999,9999,9999,1037962360
1510,17,Jits_Phase_5,34,9999,9999,9999,1038463088
1510,17,Jits_Phase_5,35,9999,9999,9999,1038962776
1510,17,Jits_Phase_5,36,9999,9999,9999,1039462524
1510,17,Jits_Phase_5,37,9999,9999,9999,1039962208
1510,17,Jits_Phase_5,38,9999,9999,9999,1040462940
1510,17,Jits_Phase_5,39,9999,9999,9999,1040962628
1510,17,Jits_Phase_5,40,9999,9999,9999,1041462392
1510,17,Jits_Phase_5,41,9999,9999,9999,1041963120
1510,17,Jits_Phase_5,42,9999,9999,9999,1042473060
1510,17,Jits_Phase_5,43,9999,9999,9999,1042972744
1510,17,Jits_Phase_5,44,9999,9999,9999,1043472504
1510,17,Jits_Phase_5,45,9999,9999,9999,1043972184
1510,17,Jits_Phase_5,46,9999,9999,9999,1044472916
1510,17,Jits_Phase_5,47,9999,9999,9999,1044972608
1510,17,Jits_Phase_5,48,9999,9999,9999,1045482612
1510,17,Jits_Phase_5,49,9999,9999,9999,1045982304
1510,17,Jits_Phase_5,50,9999,9999,9999,1046483020
1510,17,Jits_Phase_5,51,9999,9999,9999,1046982720
1510,17,Jits_Phase_5,52,9999,9999,9999,1047482480
1510,17,Jits_Phase_5,53,9999,9999,9999,1047982160
1510,17,Jits_Phase_5,54,9999,9999,9999,1048482892
1510,17,Jits_Phase_5,55,9999,9999,9999,1048982596
1510,17,Jits_Phase_5,56,9999,9999,9999,1049482352
1510,17,Jits_Phase_5,57,9999,9999,9999,1049983072
1510,17,Jits_Phase_5,58,9999,9999,9999,1050482752
1510,17,Jits_Phase_5,59,9999,9999,9999,1050982500
1510,17,Jits_Phase_5,60,9999,9999,9999,1051482200
1510,17,Jits_Phase_5,61,9999,9999,9999,1051982924
1510,17,Jits_Phase_5,62,9999,9999,9999,1052482680
1510,17,Jits_Phase_5,63,9999,9999,9999,1052982364
1510,17,Jits_Phase_5,64,9999,9999,9999,1053502536
1510,17,Jits_Phase_5,65,9999,9999,9999,1054002292
1510,17,Jits_Phase_5,66,9999,9999,9999,1054503024
1510,17,Jits_Phase_5,67,9999,9999,9999,1055002696
1510,17,Jits_Phase_5,68,9999,9999,9999,1055502456
1510,17,Jits_Phase_5,69,9999,9999,9999,1056002140
1510,17,Jits_Phase_5,70,9999,9999,9999,1056502860
1510,17,Jits_Phase_5,71,9999,9999,9999,1057002556
1510,17,Jits_Phase_5,72,9999,9999,9999,1057502312
1510,17,Jits_Phase_5,73,9999,9999,9999,1058003040
1510,17,Jits_Phase_5,74,9999,9999,9999,1058502724
1510,17,Jits_Phase_5,75,9999,9999,9999,1059002480
1510,17,Jits_Phase_5,76,9999,9999,9999,1059502144
1510,17,Jits_Phase_5,77,9999,9999,9999,1060002940
1510,17,Jits_Phase_5,78,9999,9999,9999,1060502592
1510,17,Jits_Phase_5,79,9999,9999,9999,1061002356
1510,17,Jits_Phase_5,80,9999,9999,9999,1061503088
1510,17,Jits_Phase_5,81,9999,9999,9999,1061982284
1510,17,Jits_Phase_5,82,9999,9999,9999,1062483008
1510,17,Jits_Phase_5,83,9999,9999,9999,1062982772
1510,17,Jits_Phase_5,84,9999,9999,9999,1063482472
1510,17,Jits_Phase_5,85,9999,9999,9999,1063982152
1510,17,Jits_Phase_5,86,9999,9999,9999,1064482880
1510,17,Jits_Phase_5,87,9999,9999,9999,1064982652
1510,17,Jits_Phase_5,88,9999,9999,9999,1065482348
1510,17,Jits_Phase_5,89,9999,9999,9999,1065983092
1510,17,Jits_Phase_5,90,9999,9999,9999,1066482788
1510,17,Jits_Phase_5,91,9999,9999,9999,1066982484
1510,17,Jits_Phase_5,92,9999,9999,9999,1067482184
1510,17,Jits_Phase_5,93,9999,9999,9999,1067982912
1510,17,Jits_Phase_5,94,9999,9999,9999,1068482676
1510,17,Jits_Phase_5,95,9999,9999,9999,1068982348
1510,17,Jits_Phase_5,96,9999,9999,9999,1069483072
1510,17,Jits_Phase_5,97,9999,9999,9999,1069942904
1510,17,Jits_Phase_5,98,9999,9999,9999,1070442592
1510,17,Jits_Phase_5,99,9999,9999,9999,1070942284
1510,17,Jits_Phase_5,100,9999,9999,9999,1071443012
1510,17,Jits_Phase_5,101,9999,9999,9999,1071942772
1510,17,Jits_Phase_5,102,9999,9999,9999,1072442444
1510,17,Jits_Phase_5,103,9999,9999,9999,1072942172
1510,17,Jits_Phase_5,104,9999,9999,9999,1073442908
1510,17,Jits_Phase_5,105,9999,9999,9999,1073942584
1510,17,Jits_Phase_5,106,9999,9999,9999,1074442348
1510,17,Jits_Phase_5,107,9999,9999,9999,1074943076
1510,17,Jits_Phase_5,108,9999,9999,9999,1075442768
1510,17,Jits_Phase_5,109,9999,9999,9999,1075942456
1510,17,Jits_Phase_5,110,9999,9999,9999,1076442228
1510,17,Jits_Phase_5,111,9999,9999,9999,1076942960
1510,17,Jits_Phase_5,112,9999,9999,9999,1077442640
1510,17,Jits_Phase_5,113,9999,9999,9999,1077942376
1510,17,Jits_Phase_5,114,9999,9999,9999,1078492264
1510,17,Jits_Phase_5,115,9999,9999,9999,1078992988
1510,17,Jits_Phase_5,116,9999,9999,9999,1079492672
1510,17,Jits_Phase_5,117,9999,9999,9999,1079992372
1510,17,Jits_Phase_5,118,9999,9999,9999,1080492124
1510,17,Jits_Phase_5,119,9999,9999,9999,1080992840
1510,17,Jits_Phase_5,120,9999,9999,9999,1081492532
1510,17,Jits_Phase_5,121,9999,9999,9999,1081992272
1510,17,Jits_Phase_5,122,9999,9999,9999,1082493012
1510,17,Jits_Phase_5,123,9999,9999,9999,1082992712
1510,17,Jits_Phase_5,124,9999,9999,9999,1083492468
1510,17,Jits_Phase_5,125,9999,9999,9999,1083992148
1510,17,Jits_Phase_5,126,9999,9999,9999,1084492896
1510,17,Jits_Phase_5,127,9999,9999,9999,1084992576
1510,17,Jits_Phase_5,128,9999,9999,9999,1085492340
1510,17,Jits_Phase_5,129,9999,9999,9999,1085993084
1510,17,Jits_Phase_5,130,9999,9999,9999,1086492780
1510,17,Jits_Phase_5,131,9999,9999,9999,1087092832
1510,17,Jits_Phase_5,132,9999,9999,9999,1087592512
1510,17,Jits_Phase_5,133,9999,9999,9999,1088092276
1510,17,Jits_Phase_5,134,9999,9999,9999,1088593004
1510,17,Jits_Phase_5,135,9999,9999,9999,1089092684
1510,17,Jits_Phase_5,136,9999,9999,9999,1089592384
1510,17,Jits_Phase_5,137,9999,9999,9999,1090092140
1510,17,Jits_Phase_5,138,9999,9999,9999,1090592868
1510,17,Jits_Phase_5,139,9999,9999,9999,1091092556
1510,17,Jits_Phase_5,140,9999,9999,9999,1091592316
1510,17,Jits_Phase_5,141,9999,9999,9999,1092093044
1510,17,Jits_Phase_5,142,9999,9999,9999,1092592728
1510,17,Jits_Phase_5,143,9999,9999,9999,1093092416
1510,17,Jits_Phase_5,144,9999,9999,9999,1093592168
1510,17,Jits_Phase_5,145,9999,9999,9999,1094092896
1510,17,Jits_Phase_5,146,9999,9999,9999,1094592604
1510,17,Jits_Phase_5,147,9999,9999,9999,1095092340
1510,17,Jits_Phase_5,148,9999,9999,9999,1095593064
1510,17,Jits_Phase_5,149,9999,9999,9999,1096092752
1510,17,Jits_Phase_5,150,9999,9999,9999,1096492152
1510,17,Jits_Phase_5,151,9999,9999,9999,1096992888
1510,17,Jits_Phase_5,152,9999,9999,9999,1097492584
1510,17,Jits_Phase_5,153,9999,9999,9999,1097992272
1510,17,Jits_Phase_5,154,9999,9999,9999,1098493004
1510,17,Jits_Phase_5,155,9999,9999,9999,1098992760
1510,17,Jits_Phase_5,156,9999,9999,9999,1099492432
1510,17,Jits_Phase_5,157,9999,9999,9999,1099992132
1510,17,Jits_Phase_5,158,9999,9999,9999,1100492860
1510,17,Jits_Phase_5,159,9999,9999,9999,1100992620
1510,17,Jits_Phase_5,160,9999,9999,9999,1101492280
1510,17,Jits_Phase_5,161,9999,9999,9999,1101993088
1510,17,Jits_Phase_5,162,9999,9999,9999,1102492768
1510,17,Jits_Phase_5,163,9999,9999,9999,1102992456
1510,17,Jits_Phase_5,164,9999,9999,9999,1103492216
1510,17,Jits_Phase_5,165,9999,9999,9999,1103992948
1510,17,Jits_Phase_5,166,9999,9999,9999,1104492632
1510,17,Jits_Phase_5,167,9999,9999,9999,1104992316
1510,17,Jits_Phase_5,168,9999,9999,9999,1105493048
1510,17,Jits_Phase_5,169,9999,9999,9999,1105992824
1511,3,ISIP_8,0,5,42,127,1166571808
1511,3,ISIP_8,1,5,42,127,1167371488
1511,3,ISIP_8,2,5,42,127,1168172364
1511,3,ISIP_8,3,1,48,41,1168196384
1511,3,ISIP_8,4,1,48,41,1168961680
1511,3,ISIP_8,5,5,42,127,1168972088
1511,3,ISIP_8,6,1,48,39,1169743708
1511,3,ISIP_8,7,5,42,127,1169771896
1511,3,ISIP_8,8,1,48,36,1170529032
1511,3,ISIP_8,9,5,42,127,1170571556
1511,3,ISIP_8,10,1,48,37,1171314132
1511,3,ISIP_8,11,5,42,127,1171372336
1511,3,ISIP_8,12,1,48,36,1172129764
1511,3,ISIP_8,13,5,42,127,1172172016
1511,3,ISIP_8,14,1,48,47,1172918552
1511,3,ISIP_8,15,5,42,127,1172972120
1511,3,ISIP_8,16,5,42,127,1173771640
1511,3,ISIP_8,17,1,48,30,1173801188
1511,3,ISIP_8,18,5,42,127,1174572344
1511,3,ISIP_8,19,1,48,35,1174614364
1511,3,ISIP_8,20,1,48,35,1175367404
1511,3,ISIP_8,21,5,42,127,1175372216
1511,3,ISIP_8,22,1,48,27,1176170604
1511,3,ISIP_8,23,5,42,127,1176172172
1511,3,ISIP_8,24,1,48,28,1176950520
1511,3,ISIP_8,25,5,42,127,1176971832
1511,3,ISIP_8,26,1,48,26,1177682892
1511,3,ISIP_8,27,5,42,127,1177772540
1511,3,ISIP_8,28,1,48,23,1178447912
1511,3,ISIP_8,29,5,42,127,1178572056
1511,3,ISIP_8,30,1,48,29,1179220608
1511,3,ISIP_8,31,5,42,127,1179371788
1511,3,ISIP_8,32,1,48,24,1179953812
1511,3,ISIP_8,33,5,42,127,1180171744
1511,3,ISIP_8,34,1,48,33,1180774004
1511,3,ISIP_8,35,5,42,127,1180972672
1511,3,ISIP_8,36,1,48,28,1181540804
1511,3,ISIP_8,37,5,42,127,1181772032
1511,3,ISIP_8,38,1,48,27,1182307232
1511,3,ISIP_8,39,5,42,127,1182571840
1511,3,ISIP_8,40,1,48,27,1183060448
1511,3,ISIP_8,41,5,42,127,1183371648
1511,3,ISIP_8,42,1,48,26,1183909536
1511,3,ISIP_8,43,5,42,127,1184172500
1511,3,ISIP_8,44,1,48,24,1184763628
1511,3,ISIP_8,45,5,42,127,1184972380
1511,3,ISIP_8,46,1,48,24,1185633780
1511,3,ISIP_8,47,5,42,127,1185771888
1511,3,ISIP_8,48,1,48,26,1186463676
1511,3,ISIP_8,49,5,42,127,1186571548
1511,3,ISIP_8,50,1,48,26,1187244444
1511,3,ISIP_8,51,5,42,127,1187372324
1511,3,ISIP_8,52,1,48,25,1188078028
1511,3,ISIP_8,53,5,42,127,1188172292
1511,3,ISIP_8,54,1,48,19,1188861108
1511,3,ISIP_8,55,5,42,127,1188971792
1511,3,ISIP_8,56,1,48,26,1189674584
1511,3,ISIP_8,57,5,42,127,1189771600
1511,3,ISIP_8,58,1,48,26,1190449896
1511,3,ISIP_8,59,1,48,23,1191239616
1511,3,ISIP_8,60,1,48,28,1192006420
1511,3,ISIP_8,61,1,48,26,1192777472
1511,3,ISIP_8,62,1,48,27,1193565556
1511,3,ISIP_8,63,1,48,25,1194346912
1511,3,ISIP_8,64,1,48,25,1195091456
1511,3,ISIP_8,65,1,48,26,1195816364
1511,3,ISIP_8,66,1,48,27,1196543584
1511,3,ISIP_8,67,1,48,29,1197334424
1511,3,ISIP_8,68,1,48,32,1198086592
1511,3,ISIP_8,69,1,48,29,1198816724
1511,3,ISIP_8,70,1,48,27,1199593756
1511,3,ISIP_8,71,1,48,31,1200358384
1511,3,ISIP_8,72,1,48,26,1201104276
1511,3,ISIP_8,73,1,48,36,1201792716
1511,3,ISIP_8,74,1,48,29,1202547700
1511,3,ISIP_8,75,1,48,26,1203261636
1511,3,ISIP_8,76,1,48,32,1204002296
1511,3,ISIP_8,77,1,48,29,1204741912
1511,3,ISIP_8,78,1,48,37,1205445768
1511,3,ISIP_8,79,1,48,37,1206213684
1511,3,ISIP_8,80,1,48,30,1206953944
1511,3,ISIP_8,81,1,48,35,1207683780
1511,3,ISIP_8,82,1,48,37,1208397264
1511,3,ISIP_8,83,1,48,29,1209133520
1511,3,ISIP_8,84,1,48,21,1209783460
1511,3,ISIP_8,85,1,48,29,1210532516
1511,3,ISIP_8,86,1,48,29,1211165280
1511,3,ISIP_8,87,1,48,24,1211909824
1511,3,ISIP_8,88,1,48,36,1212582880
1511,3,ISIP_8,89,1,48,31,1213274864
1511,3,ISIP_8,90,1,48,33,1213900600
1511,3,ISIP_8,91,1,48,22,1214631984
1511,3,ISIP_8,92,1,48,32,1215313268
1511,3,ISIP_8,93,1,48,28,1216051392
1511,3,ISIP_8,94,1,48,27,1216790860
1511,3,ISIP_8,95,1,48,29,1217526824
1511,3,ISIP_8,96,1,48,17,1218250676
1511,3,ISIP_8,97,1,48,33,1218940020
1511,3,ISIP_8,98,1,48,35,1219618180
1511,3,ISIP_8,99,1,48,29,1220353764
1511,3,ISIP_8,100,1,48,43,1221064632
1511,3,ISIP_8,101,1,48,24,1221820304
1511,3,ISIP_8,102,1,48,22,1222432048
1511,3,ISIP_8,103,1,48,38,1223170020
1511,3,ISIP_8,104,1,48,33,1223783940
1511,3,ISIP_8,105,1,48,26,1224490108
1511,3,ISIP_8,106,1,48,29,1225164088
1511,3,ISIP_8,107,1,48,29,1225803688
1511,3,ISIP_8,108,1,48,29,1226488940
1511,3,ISIP_8,109,1,48,29,1227211672
1511,3,ISIP_8,110,1,48,27,1227887128
1511,3,ISIP_8,111,1,48,23,1228567228
1511,3,ISIP_8,112,1,48,29,1229290340
1511,3,ISIP_8,113,1,48,28,1229979456
1511,3,ISIP_8,114,1,48,23,1230673820
1511,3,ISIP_8,115,1,48,31,1231381328
1511,3,ISIP_8,116,1,48,32,1232057840
1511,3,ISIP_8,117,1,48,24,1232791084
1511,3,ISIP_8,118,1,48,25,1233444160
1511,3,ISIP_8,119,1,48,26,1234703252
1511,3,ISIP_8,120,1,48,33,1235333444
1511,3,ISIP_8,121,1,48,36,1236020564
1511,3,ISIP_8,122,1,48,43,1236679836
1511,3,ISIP_8,123,1,48,32,1237344384
1511,3,ISIP_8,124,1,48,42,1238008280
1511,3,ISIP_8,125,1,48,33,1238671184
1511,3,ISIP_8,126,1,48,31,1239349412
1511,3,ISIP_8,127,1,48,30,1240032048
1511,3,ISIP_8,128,1,48,25,1240670984
1511,3,ISIP_8,129,1,48,29,1241444952
1511,3,ISIP_8,130,1,48,27,1242153356
1511,3,ISIP_8,131,1,48,21,1242836668
1511,3,ISIP_8,132,1,48,24,1243513536
1511,3,ISIP_8,133,1,48,28,1244201184
1511,3,ISIP_8,134,1,48,29,1244934064
1511,3,ISIP_8,135,1,48,26,1245654568
1511,3,ISIP_8,136,1,48,31,1246382760
1511,3,ISIP_8,137,1,48,35,1247116308
1511,3,ISIP_8,138,1,48,28,1247822760
1511,3,ISIP_8,139,1,48,21,1248528560
1511,3,ISIP_8,140,1,48,34,1249197092
1511,3,ISIP_8,141,1,48,13,1249913752
1511,3,ISIP_8,142,1,48,35,1250524100
1511,3,ISIP_8,143,1,48,37,1251209108
1511,3,ISIP_8,144,1,48,23,1251896756
1511,3,ISIP_8,145,1,48,26,1252640928
1511,3,ISIP_8,146,1,48,39,1253326856
1511,3,ISIP_8,147,1,48,29,1254041356
1511,3,ISIP_8,148,1,48,35,1254717056
1511,3,ISIP_8,149,1,48,27,1255413068
1511,3,ISIP_8,150,1,48,29,1256085440
1511,3,ISIP_8,151,1,48,38,1256719096
1511,3,ISIP_8,152,1,48,28,1257400096
1511,3,ISIP_8,153,1,48,34,1258089812
1511,3,ISIP_8,154,1,48,25,1258786044
1511,3,ISIP_8,155,1,48,19,1259505496
1511,3,ISIP_8,156,1,48,31,1260192076
1511,3,ISIP_8,157,1,48,30,1260936460
1511,3,ISIP_8,158,1,48,39,1261653596
1511,3,ISIP_8,159,1,48,21,1262376788
1511,3,ISIP_8,160,1,48,34,1263112072
1511,3,ISIP_8,161,1,48,35,1263813684
1511,3,ISIP_8,162,1,48,32,1264521468
1511,3,ISIP_8,163,1,48,27,1265257420
1511,3,ISIP_8,164,1,48,41,1265931480
1511,3,ISIP_8,165,1,48,29,1266595356
1511,3,ISIP_8,166,1,48,21,1267279844
1511,3,ISIP_8,167,1,48,24,1267993328
1511,3,ISIP_8,168,1,48,26,1268663656
1511,3,ISIP_8,169,1,48,30,1269364116
1511,3,ISIP_8,170,1,48,15,1270071404
1511,3,ISIP_8,171,1,48,25,1270774204
1511,3,ISIP_8,172,1,48,20,1271436284
1511,3,ISIP_8,173,1,48,24,1272170080
1511,3,ISIP_8,174,1,48,24,1272811264
1511,3,ISIP_8,175,1,48,36,1273466480
1511,3,ISIP_8,176,1,48,31,1274133964
1511,3,ISIP_8,177,1,48,33,1274832288
1511,3,ISIP_8,178,1,48,20,1275502580
1511,3,ISIP_8,179,1,48,26,1276230328
1511,3,ISIP_8,180,1,48,31,1276851948
1511,3,ISIP_8,181,1,48,16,1277622032
1511,3,ISIP_8,182,1,48,23,1278340940
1511,3,ISIP_8,183,1,48,21,1279094520
1511,3,ISIP_8,184,1,48,36,1279780596
1511,3,ISIP_8,185,1,48,27,1280476980
1511,3,ISIP_8,186,1,48,25,1281145560
1511,3,ISIP_8,187,1,48,17,1281860612
1511,3,ISIP_8,188,1,48,30,1282490524
1511,3,ISIP_8,189,1,48,28,1283186208
1511,3,ISIP_8,190,1,48,22,1283864596
1511,3,ISIP_8,191,1,48,31,1284499500
1511,3,ISIP_8,192,1,48,26,1285590348
1511,3,ISIP_8,193,1,48,35,1287010136
1511,3,ISIP_8,194,1,48,46,1287553124
1511,3,ISIP_8,195,1,48,43,1288148088
1511,3,ISIP_8,196,1,48,38,1288790304
1511,3,ISIP_8,197,1,48,30,1289438748
1511,3,ISIP_8,198,1,48,35,1290211216
1511,3,ISIP_8,199,1,48,42,1291094956
1511,3,ISIP_8,200,1,48,27,1291960868
1511,3,ISIP_8,201,1,48,30,1292792856
1511,3,ISIP_8,202,1,48,30,1293619164
1511,3,ISIP_8,203,1,48,30,1294363792
1511,3,ISIP_8,0,9999,9999,9999,1166569524
1511,3,ISIP_8,1,9999,9999,9999,1167369280
1511,3,ISIP_8,2,9999,9999,9999,1168170080
1511,3,ISIP_8,3,9999,9999,9999,1168969804
1511,3,ISIP_8,4,9999,9999,9999,1169769536
1511,3,ISIP_8,5,9999,9999,9999,1170569272
1511,3,ISIP_8,6,9999,9999,9999,1171370048
1511,3,ISIP_8,7,9999,9999,9999,1172169808
1511,3,ISIP_8,8,9999,9999,9999,1172969540
1511,3,ISIP_8,9,9999,9999,9999,1173769280
1511,3,ISIP_8,10,9999,9999,9999,1174570060
1511,3,ISIP_8,11,9999,9999,9999,1175369784
1511,3,ISIP_8,12,9999,9999,9999,1176169524
1511,3,ISIP_8,13,9999,9999,9999,1176969328
1511,3,ISIP_8,14,9999,9999,9999,1177770104
1511,3,ISIP_8,15,9999,9999,9999,1178569848
1511,3,ISIP_8,16,9999,9999,9999,1179369580
1511,3,ISIP_8,17,9999,9999,9999,1180169312
1511,3,ISIP_8,18,9999,9999,9999,1180970088
1511,3,ISIP_8,19,9999,9999,9999,1181769820
1511,3,ISIP_8,20,9999,9999,9999,1182569556
1511,3,ISIP_8,21,9999,9999,9999,1183369288
1511,3,ISIP_8,22,9999,9999,9999,1184170064
1511,3,ISIP_8,23,9999,9999,9999,1184969800
1511,3,ISIP_8,24,9999,9999,9999,1185769528
1511,3,ISIP_8,25,9999,9999,9999,1186569264
1511,3,ISIP_8,26,9999,9999,9999,1187370040
1511,3,ISIP_8,27,9999,9999,9999,1188169788
1511,3,ISIP_8,28,9999,9999,9999,1188969580
1511,3,ISIP_8,29,9999,9999,9999,1189769316
1511,3,ISIP_8,30,9999,9999,9999,1190570092
1511,3,ISIP_8,31,9999,9999,9999,1191369844
1511,3,ISIP_8,32,9999,9999,9999,1192169576
1511,3,ISIP_8,33,9999,9999,9999,1192969304
1511,3,ISIP_8,34,9999,9999,9999,1193770076
1511,3,ISIP_8,35,9999,9999,9999,1194569804
1511,3,ISIP_8,36,9999,9999,9999,1195369532
1511,3,ISIP_8,37,9999,9999,9999,1196169264
1511,3,ISIP_8,38,9999,9999,9999,1196970036
1511,3,ISIP_8,39,9999,9999,9999,1197769788
1511,3,ISIP_8,40,9999,9999,9999,1198569592
1511,3,ISIP_8,41,9999,9999,9999,1199369320
1511,3,ISIP_8,42,9999,9999,9999,1200170092
1511,3,ISIP_8,43,9999,9999,9999,1200969824
1511,3,ISIP_8,44,9999,9999,9999,1201769552
1511,3,ISIP_8,45,9999,9999,9999,1202569272
1511,3,ISIP_8,46,9999,9999,9999,1203370028
1511,3,ISIP_8,47,9999,9999,9999,1204169784
1511,3,ISIP_8,48,9999,9999,9999,1204969588
1511,3,ISIP_8,49,9999,9999,9999,1205769316
1511,3,ISIP_8,50,9999,9999,9999,1206570088
1511,3,ISIP_8,51,9999,9999,9999,1207369816
1511,3,ISIP_8,52,9999,9999,9999,1208169544
1511,3,ISIP_8,53,9999,9999,9999,1208969272
1511,3,ISIP_8,54,9999,9999,9999,1209770048
1511,3,ISIP_8,55,9999,9999,9999,1210569792
1511,3,ISIP_8,56,9999,9999,9999,1211369580
1511,3,ISIP_8,57,9999,9999,9999,1212169308
1511,3,ISIP_8,58,9999,9999,9999,1212970084
1511,3,ISIP_8,59,9999,9999,9999,1213769812
1511,3,ISIP_8,60,9999,9999,9999,1214569540
1511,3,ISIP_8,61,9999,9999,9999,1215369336
1511,3,ISIP_8,62,9999,9999,9999,1216170092
1511,3,ISIP_8,63,9999,9999,9999,1216969848
1511,3,ISIP_8,64,9999,9999,9999,1217769576
1511,3,ISIP_8,65,9999,9999,9999,1218569304
1511,3,ISIP_8,66,9999,9999,9999,1219370076
1511,3,ISIP_8,67,9999,9999,9999,1220169804
1511,3,ISIP_8,68,9999,9999,9999,1220969532
1511,3,ISIP_8,69,9999,9999,9999,1221769336
1511,3,ISIP_8,70,9999,9999,9999,1222570088
1511,3,ISIP_8,71,9999,9999,9999,1223369840
1511,3,ISIP_8,72,9999,9999,9999,1224169572
1511,3,ISIP_8,73,9999,9999,9999,1224969300
1511,3,ISIP_8,74,9999,9999,9999,1225770072
1511,3,ISIP_8,75,9999,9999,9999,1226569796
1511,3,ISIP_8,76,9999,9999,9999,1227369580
1511,3,ISIP_8,77,9999,9999,9999,1228169308
1511,3,ISIP_8,78,9999,9999,9999,1228970036
1511,3,ISIP_8,79,9999,9999,9999,1229769836
1511,3,ISIP_8,80,9999,9999,9999,1230569564
1511,3,ISIP_8,81,9999,9999,9999,1231369292
1511,3,ISIP_8,82,9999,9999,9999,1232170044
1511,3,ISIP_8,83,9999,9999,9999,1232969776
1511,3,ISIP_8,84,9999,9999,9999,1233769576
1511,3,ISIP_8,85,9999,9999,9999,1234569328
1511,3,ISIP_8,86,9999,9999,9999,1235370044
1511,3,ISIP_8,87,9999,9999,9999,1236169832
1511,3,ISIP_8,88,9999,9999,9999,1236969560
1511,3,ISIP_8,89,9999,9999,9999,1237769288
1511,3,ISIP_8,90,9999,9999,9999,1238570060
1511,3,ISIP_8,91,9999,9999,9999,1239369784
1511,3,ISIP_8,92,9999,9999,9999,1240169572
1511,3,ISIP_8,93,9999,9999,9999,1240969300
1511,3,ISIP_8,94,9999,9999,9999,1241770096
1511,3,ISIP_8,95,9999,9999,9999,1242569824
1511,3,ISIP_8,96,9999,9999,9999,1243369552
1511,3,ISIP_8,97,9999,9999,9999,1244169280
1511,3,ISIP_8,98,9999,9999,9999,1244970048
1511,3,ISIP_8,99,9999,9999,9999,1245769832
1511,3,ISIP_8,100,9999,9999,9999,1246569564
1511,3,ISIP_8,101,9999,9999,9999,1247369288
1511,3,ISIP_8,102,9999,9999,9999,1248170088
1511,3,ISIP_8,103,9999,9999,9999,1248969820
1511,3,ISIP_8,104,9999,9999,9999,1249769548
1511,3,ISIP_8,105,9999,9999,9999,1250569268
1511,3,ISIP_8,106,9999,9999,9999,1251370100
1511,3,ISIP_8,107,9999,9999,9999,1252169828
1511,3,ISIP_8,108,9999,9999,9999,1252969556
1511,3,ISIP_8,109,9999,9999,9999,1253769284
1511,3,ISIP_8,110,9999,9999,9999,1254570084
1511,3,ISIP_8,111,9999,9999,9999,1255369812
1511,3,ISIP_8,112,9999,9999,9999,1256169536
1511,3,ISIP_8,113,9999,9999,9999,1256969324
1511,3,ISIP_8,114,9999,9999,9999,1257770096
1511,3,ISIP_8,115,9999,9999,9999,1258569824
1511,3,ISIP_8,116,9999,9999,9999,1259369552
1511,3,ISIP_8,117,9999,9999,9999,1260169280
1511,3,ISIP_8,118,9999,9999,9999,1260970076
1511,3,ISIP_8,119,9999,9999,9999,1261769784
1511,3,ISIP_8,120,9999,9999,9999,1262569588
1511,3,ISIP_8,121,9999,9999,9999,1263369316
1511,3,ISIP_8,122,9999,9999,9999,1264170092
1511,3,ISIP_8,123,9999,9999,9999,1264969820
1511,3,ISIP_8,124,9999,9999,9999,1265769548
1511,3,ISIP_8,125,9999,9999,9999,1266569276
1511,3,ISIP_8,126,9999,9999,9999,1267370064
1511,3,ISIP_8,127,9999,9999,9999,1268169780
1511,3,ISIP_8,128,9999,9999,9999,1268969580
1511,3,ISIP_8,129,9999,9999,9999,1269769308
1511,3,ISIP_8,130,9999,9999,9999,1270570084
1511,3,ISIP_8,131,9999,9999,9999,1271369812
1511,3,ISIP_8,132,9999,9999,9999,1272169556
1511,3,ISIP_8,133,9999,9999,9999,1272969320
1511,3,ISIP_8,134,9999,9999,9999,1273770040
1511,3,ISIP_8,135,9999,9999,9999,1274569848
1511,3,ISIP_8,136,9999,9999,9999,1275369576
1511,3,ISIP_8,137,9999,9999,9999,1276169304
1511,3,ISIP_8,138,9999,9999,9999,1276970056
1511,3,ISIP_8,139,9999,9999,9999,1277769784
1511,3,ISIP_8,140,9999,9999,9999,1278569584
1511,3,ISIP_8,141,9999,9999,9999,1279369312
1511,3,ISIP_8,142,9999,9999,9999,1280170036
1511,3,ISIP_8,143,9999,9999,9999,1280969840
1511,3,ISIP_8,144,9999,9999,9999,1281769568
1511,3,ISIP_8,145,9999,9999,9999,1282569292
1511,3,ISIP_8,146,9999,9999,9999,1283370048
1511,3,ISIP_8,147,9999,9999,9999,1284169776
1511,3,ISIP_8,148,9999,9999,9999,1284969580
1511,3,ISIP_8,149,9999,9999,9999,1285769308
1511,3,ISIP_8,150,9999,9999,9999,1286570052
1511,3,ISIP_8,151,9999,9999,9999,1287369780
1511,3,ISIP_8,152,9999,9999,9999,1288169576
1511,3,ISIP_8,153,9999,9999,9999,1288969292
1511,3,ISIP_8,154,9999,9999,9999,1289770064
1511,3,ISIP_8,155,9999,9999,9999,1290569792
1511,3,ISIP_8,156,9999,9999,9999,1291369524
1511,3,ISIP_8,157,9999,9999,9999,1292169324
1511,3,ISIP_8,158,9999,9999,9999,1292970048
1511,3,ISIP_8,159,9999,9999,9999,1293769776
1512,5,ISIP_5,0,5,42,127,1338601736
1512,5,ISIP_5,1,5,42,127,1339101656
1512,5,ISIP_5,2,5,42,127,1339602176
1512,5,ISIP_5,3,5,42,127,1340101948
1512,5,ISIP_5,4,1,48,59,1340574252
1512,5,ISIP_5,5,5,42,127,1340601716
1512,5,ISIP_5,6,1,48,46,1341077516
1512,5,ISIP_5,7,5,42,127,1341101468
1512,5,ISIP_5,8,1,48,49,1341560684
1512,5,ISIP_5,9,5,42,127,1341602040
1512,5,ISIP_5,10,1,48,53,1342064696
1512,5,ISIP_5,11,5,42,127,1342101840
1512,5,ISIP_5,12,1,48,47,1342582068
1512,5,ISIP_5,13,5,42,127,1342601588
1512,5,ISIP_5,14,1,48,49,1343076592
1512,5,ISIP_5,15,5,42,127,1343102384
1512,5,ISIP_5,16,1,48,50,1343600556
1512,5,ISIP_5,17,5,42,127,1343602284
1512,5,ISIP_5,18,5,42,127,1344101668
1512,5,ISIP_5,19,1,48,48,1344117476
1512,5,ISIP_5,20,5,42,127,1344601572
1512,5,ISIP_5,21,1,48,46,1344614392
1512,5,ISIP_5,22,5,42,127,1345102440
1512,5,ISIP_5,23,1,48,43,1345147668
1512,5,ISIP_5,24,5,42,127,1345601820
1512,5,ISIP_5,25,1,48,43,1345625544
1512,5,ISIP_5,26,5,42,127,1346101644
1512,5,ISIP_5,27,1,48,43,1346105436
1512,5,ISIP_5,28,5,42,127,1346602292
1512,5,ISIP_5,29,1,48,40,1346611456
1512,5,ISIP_5,30,1,48,39,1347084152
1512,5,ISIP_5,31,5,42,127,1347102256
1512,5,ISIP_5,32,1,48,35,1347591744
1512,5,ISIP_5,33,5,42,127,1347601936
1512,5,ISIP_5,34,1,48,37,1348059240
1512,5,ISIP_5,35,5,42,127,1348101464
1512,5,ISIP_5,36,1,48,37,1348586248
1512,5,ISIP_5,37,5,42,127,1348602336
1512,5,ISIP_5,38,1,48,41,1349090704
1512,5,ISIP_5,39,5,42,127,1349102012
1512,5,ISIP_5,40,5,42,127,1349601620
1512,5,ISIP_5,41,1,48,38,1349611680
1512,5,ISIP_5,42,1,48,35,1350095884
1512,5,ISIP_5,43,5,42,127,1350102264
1512,5,ISIP_5,44,1,48,27,1350594064
1512,5,ISIP_5,45,5,42,127,1350602164
1512,5,ISIP_5,46,1,48,29,1351086424
1512,5,ISIP_5,47,5,42,127,1351102064
1512,5,ISIP_5,48,1,48,29,1351535752
1512,5,ISIP_5,49,5,42,127,1351601588
1512,5,ISIP_5,50,1,48,28,1352062004
1512,5,ISIP_5,51,5,42,127,1352102384
1512,5,ISIP_5,52,1,48,27,1352568476
1512,5,ISIP_5,53,5,42,127,1352602184
1512,5,ISIP_5,54,1,48,35,1353029100
1512,5,ISIP_5,55,5,42,127,1353101788
1512,5,ISIP_5,56,1,48,32,1353546400
1512,5,ISIP_5,57,5,42,127,1353602288
1512,5,ISIP_5,58,1,48,25,1354101292
1512,5,ISIP_5,59,5,42,127,1354102936
1512,5,ISIP_5,60,1,48,21,1354576296
1512,5,ISIP_5,61,5,42,127,1354602088
1512,5,ISIP_5,62,1,48,32,1355059916
1512,5,ISIP_5,63,5,42,127,1355101392
1512,5,ISIP_5,64,1,48,29,1355597904
1512,5,ISIP_5,65,5,42,127,1355602264
1512,5,ISIP_5,66,1,48,27,1356090856
1512,5,ISIP_5,67,5,42,127,1356102016
1512,5,ISIP_5,68,5,42,127,1356601844
1512,5,ISIP_5,69,1,48,28,1356602812
1512,5,ISIP_5,70,5,42,127,1357101448
1512,5,ISIP_5,71,1,48,30,1357109420
1512,5,ISIP_5,72,5,42,127,1357602168
1512,5,ISIP_5,73,1,48,31,1357603132
1512,5,ISIP_5,74,5,42,127,1358101844
1512,5,ISIP_5,75,1,48,21,1358137372
1512,5,ISIP_5,76,1,48,36,1358618148
1512,5,ISIP_5,77,1,48,24,1359145820
1512,5,ISIP_5,78,1,48,32,1359678504
1512,5,ISIP_5,79,1,48,21,1360167416
1512,5,ISIP_5,80,1,48,25,1360683148
1512,5,ISIP_5,81,1,48,21,1361182892
1512,5,ISIP_5,82,1,48,28,1361688616
1512,5,ISIP_5,83,1,48,28,1362188660
1512,5,ISIP_5,84,1,48,28,1362715284
1512,5,ISIP_5,85,1,48,26,1363216224
1512,5,ISIP_5,86,1,48,24,1363729112
1512,5,ISIP_5,87,1,48,28,1364226176
1512,5,ISIP_5,88,1,48,23,1364719948
1512,5,ISIP_5,89,1,48,28,1365212528
1512,5,ISIP_5,90,1,48,25,1365714584
1512,5,ISIP_5,91,1,48,26,1366190512
1512,5,ISIP_5,92,1,48,28,1366680680
1512,5,ISIP_5,93,1,48,27,1367176468
1512,5,ISIP_5,94,1,48,26,1367696296
1512,5,ISIP_5,95,1,48,31,1368186044
1512,5,ISIP_5,96,1,48,24,1368684820
1512,5,ISIP_5,97,1,48,23,1369187476
1512,5,ISIP_5,98,1,48,27,1369686028
1512,5,ISIP_5,99,1,48,29,1370187864
1512,5,ISIP_5,100,1,48,34,1370693580
1512,5,ISIP_5,101,1,48,26,1371197512
1512,5,ISIP_5,102,1,48,22,1371706444
1512,5,ISIP_5,103,1,48,26,1372211340
1512,5,ISIP_5,104,1,48,27,1372732212
1512,5,ISIP_5,105,1,48,24,1373232636
1512,5,ISIP_5,106,1,48,28,1373751648
1512,5,ISIP_5,107,1,48,26,1374234748
1512,5,ISIP_5,108,1,48,26,1374739796
1512,5,ISIP_5,109,1,48,25,1375247304
1512,5,ISIP_5,110,1,48,30,1375726296
1512,5,ISIP_5,111,1,48,27,1376227908
1512,5,ISIP_5,112,1,48,30,1376731688
1512,5,ISIP_5,113,1,48,22,1377229196
1512,5,ISIP_5,114,1,48,26,1377709452
1512,5,ISIP_5,115,1,48,29,1378200812
1512,5,ISIP_5,116,1,48,24,1378692716
1512,5,ISIP_5,117,1,48,25,1379144900
1512,5,ISIP_5,118,1,48,29,1379644496
1512,5,ISIP_5,119,1,48,28,1380130572
1512,5,ISIP_5,120,1,48,27,1380617628
1512,5,ISIP_5,121,1,48,32,1381097648
1512,5,ISIP_5,122,1,48,27,1381595380
1512,5,ISIP_5,123,1,48,37,1382091536
1512,5,ISIP_5,124,1,48,27,1382566640
1512,5,ISIP_5,125,1,48,28,1383058600
1512,5,ISIP_5,126,1,48,31,1383588836
1512,5,ISIP_5,127,1,48,23,1384070112
1512,5,ISIP_5,128,1,48,28,1384561124
1512,5,ISIP_5,129,1,48,17,1385022568
1512,5,ISIP_5,130,1,48,32,1385522756
1512,5,ISIP_5,131,1,48,27,1386005184
1512,5,ISIP_5,132,1,48,31,1386468112
1512,5,ISIP_5,133,1,48,21,1386950388
1512,5,ISIP_5,134,1,48,13,1387462680
1512,5,ISIP_5,135,1,48,22,1387905208
1512,5,ISIP_5,136,1,48,26,1388397184
1512,5,ISIP_5,137,1,48,22,1388866836
1512,5,ISIP_5,138,1,48,26,1389351948
1512,5,ISIP_5,139,1,48,27,1389798976
1512,5,ISIP_5,140,1,48,28,1390271016
1512,5,ISIP_5,141,1,48,27,1390778680
1512,5,ISIP_5,142,1,48,27,1391259060
1512,5,ISIP_5,143,1,48,32,1391703848
1512,5,ISIP_5,144,1,48,24,1392162744
1512,5,ISIP_5,145,1,48,23,1392628896
1512,5,ISIP_5,146,1,48,21,1393127368
1512,5,ISIP_5,147,1,48,29,1393563832
1512,5,ISIP_5,148,1,48,36,1394029948
1512,5,ISIP_5,149,1,48,28,1394502816
1512,5,ISIP_5,150,1,48,24,1394998824
1512,5,ISIP_5,151,1,48,29,1395439356
1512,5,ISIP_5,152,1,48,26,1395932756
1512,5,ISIP_5,153,1,48,27,1396416896
1512,5,ISIP_5,154,1,48,20,1396897080
1512,5,ISIP_5,155,1,48,27,1397346096
1512,5,ISIP_5,156,1,48,18,1397821504
1512,5,ISIP_5,157,1,48,26,1398282112
1512,5,ISIP_5,158,1,48,19,1398756100
1512,5,ISIP_5,159,1,48,28,1399211640
1512,5,ISIP_5,160,1,48,31,1399688664
1512,5,ISIP_5,161,1,48,25,1400162572
1512,5,ISIP_5,162,1,48,32,1400628644
1512,5,ISIP_5,163,1,48,19,1401091264
1512,5,ISIP_5,164,1,48,34,1401563532
1512,5,ISIP_5,165,1,48,34,1402036916
1512,5,ISIP_5,166,1,48,33,1402937164
1512,5,ISIP_5,167,1,48,17,1403456632
1512,5,ISIP_5,168,1,48,33,1403912392
1512,5,ISIP_5,169,1,48,24,1404386604
1512,5,ISIP_5,170,1,48,30,1404837436
1512,5,ISIP_5,171,1,48,29,1405279364
1512,5,ISIP_5,172,1,48,21,1405773804
1512,5,ISIP_5,173,1,48,31,1406210604
1512,5,ISIP_5,174,1,48,20,1406685860
1512,5,ISIP_5,175,1,48,26,1407134452
1512,5,ISIP_5,176,1,48,24,1407588468
1512,5,ISIP_5,177,1,48,25,1408041684
1512,5,ISIP_5,178,1,48,29,1408512240
1512,5,ISIP_5,179,1,48,27,1409064184
1512,5,ISIP_5,180,1,48,23,1409548096
1512,5,ISIP_5,181,1,48,23,1410037988
1512,5,ISIP_5,182,1,48,27,1410496288
1512,5,ISIP_5,183,1,48,21,1410994396
1512,5,ISIP_5,184,1,48,31,1411468652
1512,5,ISIP_5,185,1,48,26,1411935092
1512,5,ISIP_5,186,1,48,23,1412438128
1512,5,ISIP_5,187,1,48,38,1412905092
1512,5,ISIP_5,188,1,48,27,1413379820
1512,5,ISIP_5,189,1,48,29,1413862544
1512,5,ISIP_5,190,1,48,27,1414336452
1512,5,ISIP_5,191,1,48,29,1414801004
1512,5,ISIP_5,192,1,48,17,1415260204
1512,5,ISIP_5,193,1,48,28,1415744268
1512,5,ISIP_5,194,1,48,27,1416186000
1512,5,ISIP_5,195,1,48,21,1416678052
1512,5,ISIP_5,196,1,48,29,1417140240
1512,5,ISIP_5,197,1,48,30,1417620844
1512,5,ISIP_5,198,1,48,24,1418093540
1512,5,ISIP_5,199,1,48,22,1418525560
1512,5,ISIP_5,0,9999,9999,9999,1338599524
1512,5,ISIP_5,1,9999,9999,9999,1339099224
1512,5,ISIP_5,2,9999,9999,9999,1339599968
1512,5,ISIP_5,3,9999,9999,9999,1340099664
1512,5,ISIP_5,4,9999,9999,9999,1340599356
1512,5,ISIP_5,5,9999,9999,9999,1341099108
1512,5,ISIP_5,6,9999,9999,9999,1341599804
1512,5,ISIP_5,7,9999,9999,9999,1342099556
1512,5,ISIP_5,8,9999,9999,9999,1342599232
1512,5,ISIP_5,9,9999,9999,9999,1343099952
1512,5,ISIP_5,10,9999,9999,9999,1343599712
1512,5,ISIP_5,11,9999,9999,9999,1344099388
1512,5,ISIP_5,12,9999,9999,9999,1344599140
1512,5,ISIP_5,13,9999,9999,9999,1345099860
1512,5,ISIP_5,14,9999,9999,9999,1345599536
1512,5,ISIP_5,15,9999,9999,9999,1346099288
1512,5,ISIP_5,16,9999,9999,9999,1346600008
1512,5,ISIP_5,17,9999,9999,9999,1347099752
1512,5,ISIP_5,18,9999,9999,9999,1347599428
1512,5,ISIP_5,19,9999,9999,9999,1348099180
1512,5,ISIP_5,20,9999,9999,9999,1348599904
1512,5,ISIP_5,21,9999,9999,9999,1349099584
1512,5,ISIP_5,22,9999,9999,9999,1349599340
1512,5,ISIP_5,23,9999,9999,9999,1350100052
1512,5,ISIP_5,24,9999,9999,9999,1350599732
1512,5,ISIP_5,25,9999,9999,9999,1351099484
1512,5,ISIP_5,26,9999,9999,9999,1351599160
1512,5,ISIP_5,27,9999,9999,9999,1352099952
1512,5,ISIP_5,28,9999,9999,9999,1352599604
1512,5,ISIP_5,29,9999,9999,9999,1353099356
1512,5,ISIP_5,30,9999,9999,9999,1353600080
1512,5,ISIP_5,31,9999,9999,9999,1354099764
1512,5,ISIP_5,32,9999,9999,9999,1354599508
1512,5,ISIP_5,33,9999,9999,9999,1355099184
1512,5,ISIP_5,34,9999,9999,9999,1355599980
1512,5,ISIP_5,35,9999,9999,9999,1356099656
1512,5,ISIP_5,36,9999,9999,9999,1356599416
1512,5,ISIP_5,37,9999,9999,9999,1357099092
1512,5,ISIP_5,38,9999,9999,9999,1357599812
1512,5,ISIP_5,39,9999,9999,9999,1358099564
1512,5,ISIP_5,40,9999,9999,9999,1358599240
1512,5,ISIP_5,41,9999,9999,9999,1359099956
1512,5,ISIP_5,42,9999,9999,9999,1359599704
1512,5,ISIP_5,43,9999,9999,9999,1360099448
1512,5,ISIP_5,44,9999,9999,9999,1360599120
1512,5,ISIP_5,45,9999,9999,9999,1361099840
1512,5,ISIP_5,46,9999,9999,9999,1361599584
1512,5,ISIP_5,47,9999,9999,9999,1362099260
1512,5,ISIP_5,48,9999,9999,9999,1362600048
1512,5,ISIP_5,49,9999,9999,9999,1363099696
1512,5,ISIP_5,50,9999,9999,9999,1363599444
1512,5,ISIP_5,51,9999,9999,9999,1364099188
1512,5,ISIP_5,52,9999,9999,9999,1364599908
1512,5,ISIP_5,53,9999,9999,9999,1365099580
1512,5,ISIP_5,54,9999,9999,9999,1365599324
1512,5,ISIP_5,55,9999,9999,9999,1366100044
1512,5,ISIP_5,56,9999,9999,9999,1366599792
1512,5,ISIP_5,57,9999,9999,9999,1367099464
1512,5,ISIP_5,58,9999,9999,9999,1367599208
1512,5,ISIP_5,59,9999,9999,9999,1368099924
1512,5,ISIP_5,60,9999,9999,9999,1368599672
1512,5,ISIP_5,61,9999,9999,9999,1369099344
1512,5,ISIP_5,62,9999,9999,9999,1369600060
1512,5,ISIP_5,63,9999,9999,9999,1370099808
1512,5,ISIP_5,64,9999,9999,9999,1370599480
1512,5,ISIP_5,65,9999,9999,9999,1371099224
1512,5,ISIP_5,66,9999,9999,9999,1371599940
1512,5,ISIP_5,67,9999,9999,9999,1372099688
1512,5,ISIP_5,68,9999,9999,9999,1372599360
1512,5,ISIP_5,69,9999,9999,9999,1373099104
1512,5,ISIP_5,70,9999,9999,9999,1373599824
1512,5,ISIP_5,71,9999,9999,9999,1374099548
1512,5,ISIP_5,72,9999,9999,9999,1374599220
1512,5,ISIP_5,73,9999,9999,9999,1375100012
1512,5,ISIP_5,74,9999,9999,9999,1375599684
1512,5,ISIP_5,75,9999,9999,9999,1376099432
1512,5,ISIP_5,76,9999,9999,9999,1376599104
1512,5,ISIP_5,77,9999,9999,9999,1377099896
1512,5,ISIP_5,78,9999,9999,9999,1377599568
1512,5,ISIP_5,79,9999,9999,9999,1378099316
1512,5,ISIP_5,80,9999,9999,9999,1378600032
1512,5,ISIP_5,81,9999,9999,9999,1379099704
1512,5,ISIP_5,82,9999,9999,9999,1379599452
1512,5,ISIP_5,83,9999,9999,9999,1380099120
1512,5,ISIP_5,84,9999,9999,9999,1380599912
1512,5,ISIP_5,85,9999,9999,9999,1381099580
1512,5,ISIP_5,86,9999,9999,9999,1381599324
1512,5,ISIP_5,87,9999,9999,9999,1382100044
1512,5,ISIP_5,88,9999,9999,9999,1382599788
1512,5,ISIP_5,89,9999,9999,9999,1383099460
1512,5,ISIP_5,90,9999,9999,9999,1383599208
1512,5,ISIP_5,91,9999,9999,9999,1384099924
1512,5,ISIP_5,92,9999,9999,9999,1384599644
1512,5,ISIP_5,93,9999,9999,9999,1385099320
1512,5,ISIP_5,94,9999,9999,9999,1385600108
1512,5,ISIP_5,95,9999,9999,9999,1386099768
1512,5,ISIP_5,96,9999,9999,9999,1386599512
1512,5,ISIP_5,97,9999,9999,9999,1387099184
1512,5,ISIP_5,98,9999,9999,9999,1387599976
1512,5,ISIP_5,99,9999,9999,9999,1388099648
1512,5,ISIP_5,100,9999,9999,9999,1388599396
1512,5,ISIP_5,101,9999,9999,9999,1389099068
1512,5,ISIP_5,102,9999,9999,9999,1389599856
1512,5,ISIP_5,103,9999,9999,9999,1390099528
1512,5,ISIP_5,104,9999,9999,9999,1390599276
1512,5,ISIP_5,105,9999,9999,9999,1391099992
1512,5,ISIP_5,106,9999,9999,9999,1391599664
1512,5,ISIP_5,107,9999,9999,9999,1392099412
1512,5,ISIP_5,108,9999,9999,9999,1392599156
1512,5,ISIP_5,109,9999,9999,9999,1393099872
1512,5,ISIP_5,110,9999,9999,9999,1393599588
1512,5,ISIP_5,111,9999,9999,9999,1394099260
1512,5,ISIP_5,112,9999,9999,9999,1394600036
1512,5,ISIP_5,113,9999,9999,9999,1395099708
1512,5,ISIP_5,114,9999,9999,9999,1395599428
1512,5,ISIP_5,115,9999,9999,9999,1396099176
1512,5,ISIP_5,116,9999,9999,9999,1396599892
1512,5,ISIP_5,117,9999,9999,9999,1397099640
1512,5,ISIP_5,118,9999,9999,9999,1397599308
1512,5,ISIP_5,119,9999,9999,9999,1398100024
1512,5,ISIP_5,120,9999,9999,9999,1398599772
1512,5,ISIP_5,121,9999,9999,9999,1399099444
1512,5,ISIP_5,122,9999,9999,9999,1399599192
1512,5,ISIP_5,123,9999,9999,9999,1400099904
1512,5,ISIP_5,124,9999,9999,9999,1400599652
1512,5,ISIP_5,125,9999,9999,9999,1401099320
1512,5,ISIP_5,126,9999,9999,9999,1401600108
1512,5,ISIP_5,127,9999,9999,9999,1402099780
1512,5,ISIP_5,128,9999,9999,9999,1402599532
1512,5,ISIP_5,129,9999,9999,9999,1403099204
1512,5,ISIP_5,130,9999,9999,9999,1403599924
1512,5,ISIP_5,131,9999,9999,9999,1404099668
1512,5,ISIP_5,132,9999,9999,9999,1404599416
1512,5,ISIP_5,133,9999,9999,9999,1405099088
1512,5,ISIP_5,134,9999,9999,9999,1405599804
1512,5,ISIP_5,135,9999,9999,9999,1406099524
1512,5,ISIP_5,136,9999,9999,9999,1406599272
1512,5,ISIP_5,137,9999,9999,9999,1407099988
1512,5,ISIP_5,138,9999,9999,9999,1407599728
1512,5,ISIP_5,139,9999,9999,9999,1408099400
1512,5,ISIP_5,140,9999,9999,9999,1408599148
1512,5,ISIP_5,141,9999,9999,9999,1409099864
1512,5,ISIP_5,142,9999,9999,9999,1409599536
1512,5,ISIP_5,143,9999,9999,9999,1410099284
1512,5,ISIP_5,144,9999,9999,9999,1410599984
1512,5,ISIP_5,145,9999,9999,9999,1411099732
1512,5,ISIP_5,146,9999,9999,9999,1411599476
1512,5,ISIP_5,147,9999,9999,9999,1412099148
1512,5,ISIP_5,148,9999,9999,9999,1412599864
1512,5,ISIP_5,149,9999,9999,9999,1413099612
1512,5,ISIP_5,150,9999,9999,9999,1413599284
1512,5,ISIP_5,151,9999,9999,9999,1414100076
1512,5,ISIP_5,152,9999,9999,9999,1414599748
1512,5,ISIP_5,153,9999,9999,9999,1415099492
1512,5,ISIP_5,154,9999,9999,9999,1415599164
1512,5,ISIP_5,155,9999,9999,9999,1416099956
1512,5,ISIP_5,156,9999,9999,9999,1416599604
1512,5,ISIP_5,157,9999,9999,9999,1417099352
1512,5,ISIP_5,158,9999,9999,9999,1417600068
1512,5,ISIP_5,159,9999,9999,9999,1418099808
1513,11,Pattern_Practice,0,1,38,29,1529852872
1513,11,Pattern_Practice,1,1,48,30,1529853536
1513,11,Pattern_Practice,2,5,42,127,1530354020
1513,11,Pattern_Practice,3,5,42,127,1530853940
1513,11,Pattern_Practice,4,5,42,127,1531353488
1513,11,Pattern_Practice,5,5,42,127,1531854160
1513,11,Pattern_Practice,6,5,42,127,1532354080
1513,11,Pattern_Practice,7,5,42,127,1532853556
1513,11,Pattern_Practice,8,5,42,127,1533354296
1513,11,Pattern_Practice,9,5,42,127,1533854068
1513,11,Pattern_Practice,10,1,38,26,1534276792
1513,11,Pattern_Practice,11,5,42,127,1534353832
1513,11,Pattern_Practice,12,1,48,32,1534814324
1513,11,Pattern_Practice,13,5,42,127,1534853336
1513,11,Pattern_Practice,14,1,38,39,1535319524
1513,11,Pattern_Practice,15,5,42,127,1535354280
1513,11,Pattern_Practice,16,1,48,40,1535762148
1513,11,Pattern_Practice,17,5,42,127,1535853808
1513,11,Pattern_Practice,18,1,38,31,1535966996
1513,11,Pattern_Practice,19,5,42,127,1536353840
1513,11,Pattern_Practice,20,1,48,36,1536391604
1513,11,Pattern_Practice,21,1,48,40,1536847724
1513,11,Pattern_Practice,22,1,38,35,1536852652
1513,11,Pattern_Practice,23,5,42,127,1536855212
1513,11,Pattern_Practice,24,1,48,42,1537342728
1513,11,Pattern_Practice,25,5,42,127,1537353964
1513,11,Pattern_Practice,26,1,38,46,1537603352
1513,11,Pattern_Practice,27,5,42,127,1537853848
1513,11,Pattern_Practice,28,1,48,30,1538023056
1513,11,Pattern_Practice,29,1,38,44,1538316748
1513,11,Pattern_Practice,30,5,42,127,1538353740
1513,11,Pattern_Practice,31,1,48,30,1538770348
1513,11,Pattern_Practice,32,5,42,127,1538854388
1513,11,Pattern_Practice,33,1,48,29,1539266140
1513,11,Pattern_Practice,34,5,42,127,1539353992
1513,11,Pattern_Practice,35,1,38,46,1539515868
1513,11,Pattern_Practice,36,5,42,127,1539853728
1513,11,Pattern_Practice,37,1,48,40,1539931216
1513,11,Pattern_Practice,38,5,42,127,1540354600
1513,11,Pattern_Practice,39,1,48,32,1540373092
1513,11,Pattern_Practice,40,1,38,48,1540621004
1513,11,Pattern_Practice,41,5,42,127,1540854028
1513,11,Pattern_Practice,42,1,38,32,1540861472
1513,11,Pattern_Practice,43,1,48,38,1541142916
1513,11,Pattern_Practice,44,5,42,127,1541353908
1513,11,Pattern_Practice,45,1,38,46,1541625940
1513,11,Pattern_Practice,46,5,42,127,1541853508
1513,11,Pattern_Practice,47,1,48,47,1542065952
1513,11,Pattern_Practice,48,5,42,127,1542354228
1513,11,Pattern_Practice,49,1,48,40,1542539468
1513,11,Pattern_Practice,50,1,38,45,1542814288
1513,11,Pattern_Practice,51,5,42,127,1542853900
1513,11,Pattern_Practice,52,1,38,28,1543027472
1513,11,Pattern_Practice,53,1,38,26,1543306672
1513,11,Pattern_Practice,54,5,42,127,1543353924
1513,11,Pattern_Practice,55,1,48,29,1543667456
1513,11,Pattern_Practice,56,5,42,127,1543853360
1513,11,Pattern_Practice,57,1,48,29,1544186400
1513,11,Pattern_Practice,58,5,42,127,1544354456
1513,11,Pattern_Practice,59,1,38,40,1544675996
1513,11,Pattern_Practice,60,5,42,127,1544853760
1513,11,Pattern_Practice,61,1,48,35,1545102840
1513,11,Pattern_Practice,62,5,42,127,1545353460
1513,11,Pattern_Practice,63,1,38,43,1545362496
1513,11,Pattern_Practice,64,1,48,20,1545817256
1513,11,Pattern_Practice,65,5,42,127,1545854248
1513,11,Pattern_Practice,66,1,48,25,1546125596
1513,11,Pattern_Practice,67,1,38,33,1546340724
1513,11,Pattern_Practice,68,5,42,127,1546354276
1513,11,Pattern_Practice,69,5,42,127,1546853588
1513,11,Pattern_Practice,70,1,48,31,1546901376
1513,11,Pattern_Practice,71,5,42,127,1547353560
1513,11,Pattern_Practice,72,1,48,24,1547393936
1513,11,Pattern_Practice,73,5,42,127,1547854280
1513,11,Pattern_Practice,74,1,38,39,1547857768
1513,11,Pattern_Practice,75,1,48,32,1548300456
1513,11,Pattern_Practice,76,5,42,127,1548354100
1513,11,Pattern_Practice,77,1,48,31,1548603868
1513,11,Pattern_Practice,78,5,42,127,1548853464
1513,11,Pattern_Practice,79,1,38,40,1549026180
1513,11,Pattern_Practice,80,1,38,38,1549303588
1513,11,Pattern_Practice,81,5,42,127,1549354256
1513,11,Pattern_Practice,82,1,48,28,1549706544
1513,11,Pattern_Practice,83,5,42,127,1549853992
1513,11,Pattern_Practice,84,1,48,26,1550210180
1513,11,Pattern_Practice,85,5,42,127,1550354036
1513,11,Pattern_Practice,86,1,48,23,1550739820
1513,11,Pattern_Practice,87,1,38,44,1550811784
1513,11,Pattern_Practice,88,5,42,127,1550853472
1513,11,Pattern_Practice,89,1,38,35,1551289492
1513,11,Pattern_Practice,90,5,42,127,1551354192
1513,11,Pattern_Practice,91,1,48,33,1551590364
1513,11,Pattern_Practice,92,5,42,127,1551853928
1513,11,Pattern_Practice,93,1,48,29,1552031872
1513,11,Pattern_Practice,94,1,38,44,1552309432
1513,11,Pattern_Practice,95,5,42,127,1552353600
1513,11,Pattern_Practice,96,1,48,27,1552797236
1513,11,Pattern_Practice,97,5,42,127,1552854244
1513,11,Pattern_Practice,98,1,48,27,1553314608
1513,11,Pattern_Practice,99,5,42,127,1553353996
1513,11,Pattern_Practice,100,1,38,34,1553816376
1513,11,Pattern_Practice,101,5,42,127,1553854044
1513,11,Pattern_Practice,102,1,38,34,1554216268
1513,11,Pattern_Practice,103,5,42,127,1554353632
1513,11,Pattern_Practice,104,1,48,26,1554502576
1513,11,Pattern_Practice,105,5,42,127,1554854280
1513,11,Pattern_Practice,106,1,48,27,1554943340
1513,11,Pattern_Practice,107,1,38,40,1555185652
1513,11,Pattern_Practice,108,5,42,127,1555354080
1513,11,Pattern_Practice,109,1,48,28,1555607824
1513,11,Pattern_Practice,110,5,42,127,1555853736
1513,11,Pattern_Practice,111,1,38,40,1556084396
1513,11,Pattern_Practice,112,5,42,127,1556354532
1513,11,Pattern_Practice,113,1,38,42,1556592812
1513,11,Pattern_Practice,114,5,42,127,1556854056
1513,11,Pattern_Practice,115,1,48,41,1557074564
1513,11,Pattern_Practice,116,1,38,48,1557344360
1513,11,Pattern_Practice,117,5,42,127,1557353800
1513,11,Pattern_Practice,118,1,48,38,1557774064
1513,11,Pattern_Practice,119,5,42,127,1557853628
1513,11,Pattern_Practice,120,1,48,34,1558270012
1513,11,Pattern_Practice,121,5,42,127,1558354572
1513,11,Pattern_Practice,122,1,38,51,1558556848
1513,11,Pattern_Practice,123,5,42,127,1558854012
1513,11,Pattern_Practice,124,1,48,37,1558969156
1513,11,Pattern_Practice,125,5,42,127,1559353836
1513,11,Pattern_Practice,126,1,48,26,1559447328
1513,11,Pattern_Practice,127,1,38,51,1559705700
1513,11,Pattern_Practice,128,5,42,127,1559853788
1513,11,Pattern_Practice,129,1,48,30,1559920224
1513,11,Pattern_Practice,130,1,38,50,1560113260
1513,11,Pattern_Practice,131,5,42,127,1560354264
1513,11,Pattern_Practice,132,1,48,30,1560608448
1513,11,Pattern_Practice,133,5,42,127,1560853868
1513,11,Pattern_Practice,134,1,48,34,1561102528
1513,11,Pattern_Practice,135,5,42,127,1561353544
1513,11,Pattern_Practice,136,1,38,45,1561659028
1513,11,Pattern_Practice,137,5,42,127,1561854560
1513,11,Pattern_Practice,138,1,38,38,1562133388
1513,11,Pattern_Practice,139,5,42,127,1562354164
1513,11,Pattern_Practice,140,1,48,27,1562627840
1513,11,Pattern_Practice,141,5,42,127,1562853768
1513,11,Pattern_Practice,142,1,38,43,1563092344
1513,11,Pattern_Practice,143,1,48,42,1563344364
1513,11,Pattern_Practice,144,5,42,127,1563353584
1513,11,Pattern_Practice,145,1,38,44,1563816932
1513,11,Pattern_Practice,146,5,42,127,1563854380
1513,11,Pattern_Practice,147,1,48,43,1564078312
1513,11,Pattern_Practice,148,5,42,127,1564353820
1513,11,Pattern_Practice,149,1,38,44,1564539060
1513,11,Pattern_Practice,150,5,42,127,1564853644
1513,11,Pattern_Practice,151,1,38,40,1565002896
1513,11,Pattern_Practice,152,5,42,127,1565354292
1513,11,Pattern_Practice,153,1,48,40,1565447980
1513,11,Pattern_Practice,154,5,42,127,1565854192
1513,11,Pattern_Practice,155,1,48,45,1565929664
1513,11,Pattern_Practice,156,1,48,48,1566194156
1513,11,Pattern_Practice,157,5,42,127,1566353696
1513,11,Pattern_Practice,158,1,38,35,1566720412
1513,11,Pattern_Practice,159,5,42,127,1566853496
1513,11,Pattern_Practice,160,1,48,43,1567182904
1513,11,Pattern_Practice,161,5,42,127,1567354144
1513,11,Pattern_Practice,162,1,48,35,1567665780
1513,11,Pattern_Practice,163,5,42,127,1567854120
1513,11,Pattern_Practice,164,1,38,40,1567957244
1513,11,Pattern_Practice,165,1,48,35,1568143028
1513,11,Pattern_Practice,166,5,42,127,1568353624
1513,11,Pattern_Practice,167,1,48,28,1568461156
1513,11,Pattern_Practice,168,5,42,127,1568854496
1513,11,Pattern_Practice,169,1,38,41,1568919984
1513,11,Pattern_Practice,170,1,48,38,1569314032
1513,11,Pattern_Practice,171,5,42,127,1569354016
1513,11,Pattern_Practice,172,1,48,28,1569743812
1513,11,Pattern_Practice,173,5,42,127,1569853976
1513,11,Pattern_Practice,174,1,38,48,1570010340
1513,11,Pattern_Practice,175,1,38,33,1570271620
1513,11,Pattern_Practice,0,9999,9999,9999,1530351736
1513,11,Pattern_Practice,1,9999,9999,9999,1530851432
1513,11,Pattern_Practice,2,9999,9999,9999,1531351132
1513,11,Pattern_Practice,3,9999,9999,9999,1531851872
1513,11,Pattern_Practice,4,9999,9999,9999,1532351572
1513,11,Pattern_Practice,5,9999,9999,9999,1532851268
1513,11,Pattern_Practice,6,9999,9999,9999,1533352012
1513,11,Pattern_Practice,7,9999,9999,9999,1533851708
1513,11,Pattern_Practice,8,9999,9999,9999,1534351448
1513,11,Pattern_Practice,9,9999,9999,9999,1534851124
1513,11,Pattern_Practice,10,9999,9999,9999,1535351920
1513,11,Pattern_Practice,11,9999,9999,9999,1535851596
1513,11,Pattern_Practice,12,9999,9999,9999,1536351332
1513,11,Pattern_Practice,13,9999,9999,9999,1536852048
1513,11,Pattern_Practice,14,9999,9999,9999,1537351752
1513,11,Pattern_Practice,15,9999,9999,9999,1537851488
1513,11,Pattern_Practice,16,9999,9999,9999,1538351160
1513,11,Pattern_Practice,17,9999,9999,9999,1538851956
1513,11,Pattern_Practice,18,9999,9999,9999,1539351632
1513,11,Pattern_Practice,19,9999,9999,9999,1539851368
1513,11,Pattern_Practice,20,9999,9999,9999,1540352092
1513,11,Pattern_Practice,21,9999,9999,9999,1540851816
1513,11,Pattern_Practice,22,9999,9999,9999,1541351472
1513,11,Pattern_Practice,23,9999,9999,9999,1541851224
1513,11,Pattern_Practice,24,9999,9999,9999,1542351944
1513,11,Pattern_Practice,25,9999,9999,9999,1542851688
1513,11,Pattern_Practice,26,9999,9999,9999,1543351416
1513,11,Pattern_Practice,27,9999,9999,9999,1543851076
1513,11,Pattern_Practice,28,9999,9999,9999,1544351796
1513,11,Pattern_Practice,29,9999,9999,9999,1544851548
1513,11,Pattern_Practice,30,9999,9999,9999,1545351248
1513,11,Pattern_Practice,31,9999,9999,9999,1545851964
1513,11,Pattern_Practice,32,9999,9999,9999,1546351692
1513,11,Pattern_Practice,33,9999,9999,9999,1546851376
1513,11,Pattern_Practice,34,9999,9999,9999,1547351128
1513,11,Pattern_Practice,35,9999,9999,9999,1547851848
1513,11,Pattern_Practice,36,9999,9999,9999,1548351592
1513,11,Pattern_Practice,37,9999,9999,9999,1548851256
1513,11,Pattern_Practice,38,9999,9999,9999,1549352044
1513,11,Pattern_Practice,39,9999,9999,9999,1549851708
1513,11,Pattern_Practice,40,9999,9999,9999,1550351456
1513,11,Pattern_Practice,41,9999,9999,9999,1550851188
1513,11,Pattern_Practice,42,9999,9999,9999,1551351908
1513,11,Pattern_Practice,43,9999,9999,9999,1551851568
1513,11,Pattern_Practice,44,9999,9999,9999,1552351312
1513,11,Pattern_Practice,45,9999,9999,9999,1552852032
1513,11,Pattern_Practice,46,9999,9999,9999,1553351784
1513,11,Pattern_Practice,47,9999,9999,9999,1553851464
1513,11,Pattern_Practice,48,9999,9999,9999,1554351196
1513,11,Pattern_Practice,49,9999,9999,9999,1554851920
1513,11,Pattern_Practice,50,9999,9999,9999,1555351648
1513,11,Pattern_Practice,51,9999,9999,9999,1555851376
1513,11,Pattern_Practice,52,9999,9999,9999,1556352096
1513,11,Pattern_Practice,53,9999,9999,9999,1556851772
1513,11,Pattern_Practice,54,9999,9999,9999,1557351516
1513,11,Pattern_Practice,55,9999,9999,9999,1557851192
1513,11,Pattern_Practice,56,9999,9999,9999,1558351988
1513,11,Pattern_Practice,57,9999,9999,9999,1558851652
1513,11,Pattern_Practice,58,9999,9999,9999,1559351404
1513,11,Pattern_Practice,59,9999,9999,9999,1559851060
1513,11,Pattern_Practice,60,9999,9999,9999,1560351832
1513,11,Pattern_Practice,61,9999,9999,9999,1560851508
1513,11,Pattern_Practice,62,9999,9999,9999,1561351260
1513,11,Pattern_Practice,63,9999,9999,9999,1561851980
1513,11,Pattern_Practice,64,9999,9999,9999,1562351732
1513,11,Pattern_Practice,65,9999,9999,9999,1562851408
1513,11,Pattern_Practice,66,9999,9999,9999,1563351152
1513,11,Pattern_Practice,67,9999,9999,9999,1563851872
1513,11,Pattern_Practice,68,9999,9999,9999,1564351608
1513,11,Pattern_Practice,69,9999,9999,9999,1564851284
1513,11,Pattern_Practice,70,9999,9999,9999,1565352008
1513,11,Pattern_Practice,71,9999,9999,9999,1565851756
1513,11,Pattern_Practice,72,9999,9999,9999,1566351412
1513,11,Pattern_Practice,73,9999,9999,9999,1566851140
1513,11,Pattern_Practice,74,9999,9999,9999,1567351860
1513,11,Pattern_Practice,75,9999,9999,9999,1567851612
1513,11,Pattern_Practice,76,9999,9999,9999,1568351340
1513,11,Pattern_Practice,77,9999,9999,9999,1568852060
1513,11,Pattern_Practice,78,9999,9999,9999,1569351732
1513,11,Pattern_Practice,79,9999,9999,9999,1569851468
1514,12,Pattern_Record,0,5,42,127,1590352124
1514,12,Pattern_Record,1,5,42,127,1590852044
1514,12,Pattern_Record,2,5,42,127,1591351668
1514,12,Pattern_Record,3,5,42,127,1591852336
1514,12,Pattern_Record,4,5,42,127,1592352108
1514,12,Pattern_Record,5,1,38,44,1592364036
1514,12,Pattern_Record,6,1,38,51,1592840692
1514,12,Pattern_Record,7,5,42,127,1592851924
1514,12,Pattern_Record,8,1,48,62,1593121552
1514,12,Pattern_Record,9,5,42,127,1593351440
1514,12,Pattern_Record,10,1,48,48,1593591804
1514,12,Pattern_Record,11,1,38,61,1593836364
1514,12,Pattern_Record,12,5,42,127,1593852228
1514,12,Pattern_Record,13,1,38,48,1593863092
1514,12,Pattern_Record,14,1,38,58,1594348864
1514,12,Pattern_Record,15,5,42,127,1594352104
1514,12,Pattern_Record,16,5,42,127,1594851864
1514,12,Pattern_Record,17,1,38,54,1594872824
1514,12,Pattern_Record,18,1,48,52,1595266280
1514,12,Pattern_Record,19,5,42,127,1595352432
1514,12,Pattern_Record,20,1,38,59,1595512944
1514,12,Pattern_Record,21,5,42,127,1595852092
1514,12,Pattern_Record,22,1,38,44,1595984316
1514,12,Pattern_Record,23,5,42,127,1596351772
1514,12,Pattern_Record,24,1,48,46,1596443220
1514,12,Pattern_Record,25,1,48,43,1596711372
1514,12,Pattern_Record,26,5,42,127,1596851648
1514,12,Pattern_Record,27,1,38,36,1597142648
1514,12,Pattern_Record,28,5,42,127,1597352444
1514,12,Pattern_Record,29,1,48,40,1597673312
1514,12,Pattern_Record,30,5,42,127,1597852048
1514,12,Pattern_Record,31,1,38,39,1598332336
1514,12,Pattern_Record,32,5,42,127,1598351736
1514,12,Pattern_Record,33,1,48,38,1598597520
1514,12,Pattern_Record,34,5,42,127,1598851596
1514,12,Pattern_Record,35,1,48,37,1599057996
1514,12,Pattern_Record,36,1,38,50,1599334432
1514,12,Pattern_Record,37,5,42,127,1599352084
1514,12,Pattern_Record,38,1,38,57,1599851392
1514,12,Pattern_Record,39,5,42,127,1599854004
1514,12,Pattern_Record,40,1,38,35,1599896180
1514,12,Pattern_Record,41,1,38,46,1600298440
1514,12,Pattern_Record,42,5,42,127,1600351492
1514,12,Pattern_Record,43,5,42,127,1600852368
1514,12,Pattern_Record,44,1,48,37,1601008360
1514,12,Pattern_Record,45,5,42,127,1601352116
1514,12,Pattern_Record,46,1,48,46,1601475708
1514,12,Pattern_Record,47,1,38,56,1601764912
1514,12,Pattern_Record,48,5,42,127,1601851640
1514,12,Pattern_Record,49,1,38,60,1602279296
1514,12,Pattern_Record,50,1,38,41,1602326916
1514,12,Pattern_Record,51,5,42,127,1602351588
1514,12,Pattern_Record,52,1,48,40,1602829952
1514,12,Pattern_Record,53,5,42,127,1602852460
1514,12,Pattern_Record,54,1,48,39,1603290048
1514,12,Pattern_Record,55,5,42,127,1603351764
1514,12,Pattern_Record,56,1,38,44,1603553296
1514,12,Pattern_Record,57,1,48,21,1603827268
1514,12,Pattern_Record,58,5,42,127,1603851644
1514,12,Pattern_Record,59,1,38,43,1603938380
1514,12,Pattern_Record,60,5,42,127,1604352424
1514,12,Pattern_Record,61,1,48,28,1604400864
1514,12,Pattern_Record,62,1,48,38,1604815840
1514,12,Pattern_Record,63,5,42,127,1604852020
1514,12,Pattern_Record,64,1,38,43,1605082296
1514,12,Pattern_Record,65,5,42,127,1605351828
1514,12,Pattern_Record,66,1,38,46,1605555244
1514,12,Pattern_Record,67,5,42,127,1605851432
1514,12,Pattern_Record,68,1,38,44,1606327420
1514,12,Pattern_Record,69,5,42,127,1606352316
1514,12,Pattern_Record,70,1,48,22,1606674520
1514,12,Pattern_Record,71,5,42,127,1606852204
1514,12,Pattern_Record,72,1,48,43,1606935820
1514,12,Pattern_Record,73,1,38,43,1607226592
1514,12,Pattern_Record,74,5,42,127,1607351632
1514,12,Pattern_Record,75,1,38,47,1607751732
1514,12,Pattern_Record,76,5,42,127,1607852504
1514,12,Pattern_Record,77,1,38,37,1608014448
1514,12,Pattern_Record,78,5,42,127,1608352032
1514,12,Pattern_Record,79,1,48,33,1608487612
1514,12,Pattern_Record,80,1,38,53,1608761516
1514,12,Pattern_Record,81,5,42,127,1608851924
1514,12,Pattern_Record,82,1,38,40,1609033564
1514,12,Pattern_Record,83,1,48,43,1609332932
1514,12,Pattern_Record,84,5,42,127,1609351704
1514,12,Pattern_Record,85,1,38,38,1609784448
1514,12,Pattern_Record,86,5,42,127,1609852204
1514,12,Pattern_Record,87,1,48,52,1610032452
1514,12,Pattern_Record,88,5,42,127,1610352160
1514,12,Pattern_Record,89,1,48,44,1610466040
1514,12,Pattern_Record,90,1,48,48,1610717088
1514,12,Pattern_Record,91,5,42,127,1610851816
1514,12,Pattern_Record,92,1,38,49,1610963084
1514,12,Pattern_Record,93,1,48,46,1611229812
1514,12,Pattern_Record,94,5,42,127,1611352368
1514,12,Pattern_Record,95,1,48,42,1611705296
1514,12,Pattern_Record,96,5,42,127,1611852044
1514,12,Pattern_Record,97,1,38,42,1611971444
1514,12,Pattern_Record,98,5,42,127,1612351872
1514,12,Pattern_Record,99,1,38,39,1612413452
1514,12,Pattern_Record,100,1,38,34,1612632320
1514,12,Pattern_Record,101,1,38,25,1612791896
1514,12,Pattern_Record,102,5,42,127,1612851444
1514,12,Pattern_Record,103,1,48,37,1613054760
1514,12,Pattern_Record,104,5,42,127,1613352300
1514,12,Pattern_Record,105,1,48,50,1613482900
1514,12,Pattern_Record,106,1,38,50,1613757552
1514,12,Pattern_Record,107,5,42,127,1613852852
1514,12,Pattern_Record,108,1,48,41,1614131900
1514,12,Pattern_Record,109,5,42,127,1614351852
1514,12,Pattern_Record,110,1,48,20,1614498288
1514,12,Pattern_Record,111,5,42,127,1614851380
1514,12,Pattern_Record,112,1,38,48,1614914980
1514,12,Pattern_Record,113,1,48,44,1615131228
1514,12,Pattern_Record,114,5,42,127,1615352300
1514,12,Pattern_Record,115,1,48,29,1615409704
1514,12,Pattern_Record,116,1,48,50,1615637536
1514,12,Pattern_Record,117,5,42,127,1615851884
1514,12,Pattern_Record,118,1,38,51,1616092332
1514,12,Pattern_Record,119,5,42,127,1616351856
1514,12,Pattern_Record,120,1,38,48,1616469296
1514,12,Pattern_Record,121,5,42,127,1616852280
1514,12,Pattern_Record,122,1,38,37,1616894448
1514,12,Pattern_Record,123,1,48,45,1617132808
1514,12,Pattern_Record,124,5,42,127,1617352084
1514,12,Pattern_Record,125,1,38,42,1617359532
1514,12,Pattern_Record,126,1,48,43,1617600948
1514,12,Pattern_Record,127,5,42,127,1617851740
1514,12,Pattern_Record,128,1,48,40,1618031752
1514,12,Pattern_Record,129,1,48,41,1618322480
1514,12,Pattern_Record,130,5,42,127,1618351556
1514,12,Pattern_Record,131,1,38,39,1618801292
1514,12,Pattern_Record,132,5,42,127,1618852204
1514,12,Pattern_Record,133,1,48,46,1619340796
1514,12,Pattern_Record,134,5,42,127,1619351804
1514,12,Pattern_Record,135,1,38,50,1619847912
1514,12,Pattern_Record,136,5,42,127,1619851704
1514,12,Pattern_Record,137,5,42,127,1620352484
1514,12,Pattern_Record,138,1,48,58,1620383696
1514,12,Pattern_Record,139,1,48,42,1620757884
1514,12,Pattern_Record,140,5,42,127,1620852004
1514,12,Pattern_Record,141,1,38,56,1621057716
1514,12,Pattern_Record,142,5,42,127,1621351812
1514,12,Pattern_Record,143,1,48,43,1621520576
1514,12,Pattern_Record,144,5,42,127,1621851488
1514,12,Pattern_Record,145,1,48,49,1621979184
1514,12,Pattern_Record,146,1,38,50,1622266820
1514,12,Pattern_Record,147,5,42,127,1622352352
1514,12,Pattern_Record,148,1,38,34,1622490708
1514,12,Pattern_Record,149,1,38,43,1622758492
1514,12,Pattern_Record,150,5,42,127,1622852144
1514,12,Pattern_Record,151,1,48,38,1623180652
1514,12,Pattern_Record,152,5,42,127,1623351596
1514,12,Pattern_Record,153,1,38,53,1623635800
1514,12,Pattern_Record,154,5,42,127,1623852392
1514,12,Pattern_Record,155,1,38,47,1623913076
1514,12,Pattern_Record,156,5,42,127,1624352364
1514,12,Pattern_Record,157,1,48,35,1624389380
1514,12,Pattern_Record,158,1,48,51,1624713412
1514,12,Pattern_Record,159,5,42,127,1624851796
1514,12,Pattern_Record,160,1,38,51,1625157884
1514,12,Pattern_Record,161,5,42,127,1625351472
1514,12,Pattern_Record,162,1,48,31,1625420824
1514,12,Pattern_Record,163,1,48,24,1625672540
1514,12,Pattern_Record,164,5,42,127,1625852172
1514,12,Pattern_Record,165,1,48,27,1625903156
1514,12,Pattern_Record,166,1,38,43,1626148748
1514,12,Pattern_Record,167,5,42,127,1626352044
1514,12,Pattern_Record,168,1,48,25,1626595556
1514,12,Pattern_Record,169,5,42,127,1626851648
1514,12,Pattern_Record,170,1,48,28,1626869996
1514,12,Pattern_Record,171,1,38,40,1627328880
1514,12,Pattern_Record,172,5,42,127,1627352436
1514,12,Pattern_Record,173,1,48,30,1627851136
1514,12,Pattern_Record,174,5,42,127,1627853008
1514,12,Pattern_Record,175,5,42,127,1628351796
1514,12,Pattern_Record,176,1,38,51,1628404120
1514,12,Pattern_Record,177,5,42,127,1628851544
1514,12,Pattern_Record,178,1,48,41,1628898788
1514,12,Pattern_Record,179,1,48,35,1629281036
1514,12,Pattern_Record,180,5,42,127,1629352408
1514,12,Pattern_Record,181,1,38,48,1629548012
1514,12,Pattern_Record,182,5,42,127,1629852068
1514,12,Pattern_Record,183,1,48,38,1629968912
1514,12,Pattern_Record,0,9999,9999,9999,1590349912
1514,12,Pattern_Record,1,9999,9999,9999,1590849612
1514,12,Pattern_Record,2,9999,9999,9999,1591349308
1514,12,Pattern_Record,3,9999,9999,9999,1591850052
1514,12,Pattern_Record,4,9999,9999,9999,1592349752
1514,12,Pattern_Record,5,9999,9999,9999,1592849492
1514,12,Pattern_Record,6,9999,9999,9999,1593349228
1514,12,Pattern_Record,7,9999,9999,9999,1593849944
1514,12,Pattern_Record,8,9999,9999,9999,1594349672
1514,12,Pattern_Record,9,9999,9999,9999,1594849360
1514,12,Pattern_Record,10,9999,9999,9999,1595350076
1514,12,Pattern_Record,11,9999,9999,9999,1595849812
1514,12,Pattern_Record,12,9999,9999,9999,1596349488
1514,12,Pattern_Record,13,9999,9999,9999,1596849216
1514,12,Pattern_Record,14,9999,9999,9999,1597349936
1514,12,Pattern_Record,15,9999,9999,9999,1597849688
1514,12,Pattern_Record,16,9999,9999,9999,1598349380
1514,12,Pattern_Record,17,9999,9999,9999,1598849088
1514,12,Pattern_Record,18,9999,9999,9999,1599349876
1514,12,Pattern_Record,19,9999,9999,9999,1599849560
1514,12,Pattern_Record,20,9999,9999,9999,1600349284
1514,12,Pattern_Record,21,9999,9999,9999,1600850008
1514,12,Pattern_Record,22,9999,9999,9999,1601349684
1514,12,Pattern_Record,23,9999,9999,9999,1601849432
1514,12,Pattern_Record,24,9999,9999,9999,1602349160
1514,12,Pattern_Record,25,9999,9999,9999,1602849880
1514,12,Pattern_Record,26,9999,9999,9999,1603349556
1514,12,Pattern_Record,27,9999,9999,9999,1603849288
1514,12,Pattern_Record,28,9999,9999,9999,1604350068
1514,12,Pattern_Record,29,9999,9999,9999,1604849736
1514,12,Pattern_Record,30,9999,9999,9999,1605349472
1514,12,Pattern_Record,31,9999,9999,9999,1605849148
1514,12,Pattern_Record,32,9999,9999,9999,1606349884
1514,12,Pattern_Record,33,9999,9999,9999,1606849624
1514,12,Pattern_Record,34,9999,9999,9999,1607349352
1514,12,Pattern_Record,35,9999,9999,9999,1607850072
1514,12,Pattern_Record,36,9999,9999,9999,1608349748
1514,12,Pattern_Record,37,9999,9999,9999,1608849492
1514,12,Pattern_Record,38,9999,9999,9999,1609349200
1514,12,Pattern_Record,39,9999,9999,9999,1609849920
1514,12,Pattern_Record,40,9999,9999,9999,1610349656
1514,12,Pattern_Record,41,9999,9999,9999,1610849384
1514,12,Pattern_Record,42,9999,9999,9999,1611350084
1514,12,Pattern_Record,43,9999,9999,9999,1611849836
1514,12,Pattern_Record,44,9999,9999,9999,1612349512
1514,12,Pattern_Record,45,9999,9999,9999,1612849236
1514,12,Pattern_Record,46,9999,9999,9999,1613349940
1514,12,Pattern_Record,47,9999,9999,9999,1613849688
1514,12,Pattern_Record,48,9999,9999,9999,1614349420
1514,12,Pattern_Record,49,9999,9999,9999,1614849096
1514,12,Pattern_Record,50,9999,9999,9999,1615349868
1514,12,Pattern_Record,51,9999,9999,9999,1615849524
1514,12,Pattern_Record,52,9999,9999,9999,1616349276
1514,12,Pattern_Record,53,9999,9999,9999,1616849996
1514,12,Pattern_Record,54,9999,9999,9999,1617349728
1514,12,Pattern_Record,55,9999,9999,9999,1617849456
1514,12,Pattern_Record,56,9999,9999,9999,1618349128
1514,12,Pattern_Record,57,9999,9999,9999,1618849848
1514,12,Pattern_Record,58,9999,9999,9999,1619349596
1514,12,Pattern_Record,59,9999,9999,9999,1619849272
1514,12,Pattern_Record,60,9999,9999,9999,1620350052
1514,12,Pattern_Record,61,9999,9999,9999,1620849720
1514,12,Pattern_Record,62,9999,9999,9999,1621349456
1514,12,Pattern_Record,63,9999,9999,9999,1621849204
1514,12,Pattern_Record,64,9999,9999,9999,1622349920
1514,12,Pattern_Record,65,9999,9999,9999,1622849652
1514,12,Pattern_Record,66,9999,9999,9999,1623349312
1514,12,Pattern_Record,67,9999,9999,9999,1623850032
1514,12,Pattern_Record,68,9999,9999,9999,1624349784
1514,12,Pattern_Record,69,9999,9999,9999,1624849512
1514,12,Pattern_Record,70,9999,9999,9999,1625349188
1514,12,Pattern_Record,71,9999,9999,9999,1625849964
1514,12,Pattern_Record,72,9999,9999,9999,1626349688
1514,12,Pattern_Record,73,9999,9999,9999,1626849364
1514,12,Pattern_Record,74,9999,9999,9999,1627350076
1514,12,Pattern_Record,75,9999,9999,9999,1627849836
1514,12,Pattern_Record,76,9999,9999,9999,1628349512
1514,12,Pattern_Record,77,9999,9999,9999,1628849260
1514,12,Pattern_Record,78,9999,9999,9999,1629349976
1514,12,Pattern_Record,79,9999,9999,9999,1629849712
1515,13,Improv_Metronome,0,5,42,127,1703794116
1515,13,Improv_Metronome,1,5,42,127,1704293668
1515,13,Improv_Metronome,2,5,42,127,1704793368
1515,13,Improv_Metronome,3,5,42,127,1705294260
1515,13,Improv_Metronome,4,5,42,127,1705793808
1515,13,Improv_Metronome,5,1,38,20,1705809168
1515,13,Improv_Metronome,6,1,38,31,1706260736
1515,13,Improv_Metronome,7,5,42,127,1706293552
1515,13,Improv_Metronome,8,1,38,32,1706415700
1515,13,Improv_Metronome,9,5,42,127,1706794256
1515,13,Improv_Metronome,10,1,38,33,1706826048
1515,13,Improv_Metronome,11,1,38,48,1707017204
1515,13,Improv_Metronome,12,5,42,127,1707294284
1515,13,Improv_Metronome,13,1,38,46,1707439152
1515,13,Improv_Metronome,14,5,42,127,1707793960
1515,13,Improv_Metronome,15,1,38,46,1707931208
1515,13,Improv_Metronome,16,1,38,43,1708141984
1515,13,Improv_Metronome,17,5,42,127,1708293468
1515,13,Improv_Metronome,18,1,38,46,1708520172
1515,13,Improv_Metronome,19,1,38,42,1708708496
1515,13,Improv_Metronome,20,5,42,127,1708794108
1515,13,Improv_Metronome,21,1,38,46,1708896668
1515,13,Improv_Metronome,22,1,48,59,1709169072
1515,13,Improv_Metronome,23,5,42,127,1709294120
1515,13,Improv_Metronome,24,1,38,51,1709556592
1515,13,Improv_Metronome,25,1,48,62,1709790916
1515,13,Improv_Metronome,26,5,42,127,1709793492
1515,13,Improv_Metronome,27,1,48,41,1710202156
1515,13,Improv_Metronome,28,5,42,127,1710294288
1515,13,Improv_Metronome,29,1,38,62,1710405580
1515,13,Improv_Metronome,30,1,38,43,1710663808
1515,13,Improv_Metronome,31,5,42,127,1710794224
1515,13,Improv_Metronome,32,1,38,48,1710942124
1515,13,Improv_Metronome,33,5,42,127,1711293752
1515,13,Improv_Metronome,34,1,38,48,1711351972
1515,13,Improv_Metronome,35,1,38,57,1711558440
1515,13,Improv_Metronome,36,5,42,127,1711793480
1515,13,Improv_Metronome,37,1,48,52,1711827732
1515,13,Improv_Metronome,38,1,38,57,1712046524
1515,13,Improv_Metronome,39,5,42,127,1712294180
1515,13,Improv_Metronome,40,1,48,52,1712560684
1515,13,Improv_Metronome,41,5,42,127,1712793856
1515,13,Improv_Metronome,42,1,48,38,1713039228
1515,13,Improv_Metronome,43,1,48,43,1713260984
1515,13,Improv_Metronome,44,5,42,127,1713293824
1515,13,Improv_Metronome,45,1,48,54,1713500776
1515,13,Improv_Metronome,46,5,42,127,1713794384
1515,13,Improv_Metronome,47,1,38,13,1713802428
1515,13,Improv_Metronome,48,1,48,56,1714051008
1515,13,Improv_Metronome,49,1,38,59,1714283596
1515,13,Improv_Metronome,50,5,42,127,1714294008
1515,13,Improv_Metronome,51,1,48,47,1714575084
1515,13,Improv_Metronome,52,5,42,127,1714793892
1515,13,Improv_Metronome,53,1,48,40,1714868940
1515,13,Improv_Metronome,54,5,42,127,1715293644
1515,13,Improv_Metronome,55,1,38,53,1715300492
1515,13,Improv_Metronome,56,1,48,46,1715565584
1515,13,Improv_Metronome,57,5,42,127,1715794420
1515,13,Improv_Metronome,58,1,38,59,1715997756
1515,13,Improv_Metronome,59,1,38,43,1716259932
1515,13,Improv_Metronome,60,5,42,127,1716294016
1515,13,Improv_Metronome,61,1,38,49,1716455144
1515,13,Improv_Metronome,62,1,48,49,1716699324
1515,13,Improv_Metronome,63,5,42,127,1716793968
1515,13,Improv_Metronome,64,1,38,62,1717092868
1515,13,Improv_Metronome,65,5,42,127,1717293404
1515,13,Improv_Metronome,66,1,48,57,1717327884
1515,13,Improv_Metronome,67,1,38,44,1717783032
1515,13,Improv_Metronome,68,5,42,127,1717794120
1515,13,Improv_Metronome,69,1,38,68,1718007896
1515,13,Improv_Metronome,70,1,38,44,1718218172
1515,13,Improv_Metronome,71,5,42,127,1718293924
1515,13,Improv_Metronome,72,1,38,57,1718432880
1515,13,Improv_Metronome,73,5,42,127,1718793588
1515,13,Improv_Metronome,74,1,48,52,1718838140
1515,13,Improv_Metronome,75,1,38,65,1719039684
1515,13,Improv_Metronome,76,5,42,127,1719294284
1515,13,Improv_Metronome,77,1,48,58,1719431460
1515,13,Improv_Metronome,78,1,38,66,1719680864
1515,13,Improv_Metronome,79,5,42,127,1719794164
1515,13,Improv_Metronome,80,1,38,48,1720225272
1515,13,Improv_Metronome,81,5,42,127,1720293780
1515,13,Improv_Metronome,82,1,38,50,1720680412
1515,13,Improv_Metronome,83,5,42,127,1720793812
1515,13,Improv_Metronome,84,1,38,45,1720856140
1515,13,Improv_Metronome,85,1,38,62,1721031396
1515,13,Improv_Metronome,86,1,48,52,1721293992
1515,13,Improv_Metronome,87,5,42,127,1721295700
1515,13,Improv_Metronome,88,1,38,63,1721742772
1515,13,Improv_Metronome,89,5,42,127,1721793884
1515,13,Improv_Metronome,90,1,48,60,1721956484
1515,13,Improv_Metronome,91,5,42,127,1722293544
1515,13,Improv_Metronome,92,1,38,48,1722309424
1515,13,Improv_Metronome,93,1,38,48,1722554128
1515,13,Improv_Metronome,94,1,38,59,1722727648
1515,13,Improv_Metronome,95,5,42,127,1722794384
1515,13,Improv_Metronome,96,1,38,49,1722935704
1515,13,Improv_Metronome,97,5,42,127,1723294196
1515,13,Improv_Metronome,98,1,48,46,1723371980
1515,13,Improv_Metronome,99,1,38,64,1723583904
1515,13,Improv_Metronome,100,5,42,127,1723793628
1515,13,Improv_Metronome,101,1,48,57,1724050576
1515,13,Improv_Metronome,102,1,38,59,1724280464
1515,13,Improv_Metronome,103,5,42,127,1724293444
1515,13,Improv_Metronome,104,1,48,55,1724503904
1515,13,Improv_Metronome,105,1,48,64,1724744056
1515,13,Improv_Metronome,106,5,42,127,1724794488
1515,13,Improv_Metronome,107,1,48,19,1724867956
1515,13,Improv_Metronome,108,1,38,59,1725169336
1515,13,Improv_Metronome,109,5,42,127,1725294132
1515,13,Improv_Metronome,110,1,38,33,1725490224
1515,13,Improv_Metronome,111,5,42,127,1725793584
1515,13,Improv_Metronome,112,1,38,42,1725895816
1515,13,Improv_Metronome,113,1,38,58,1726143348
1515,13,Improv_Metronome,114,5,42,127,1726294284
1515,13,Improv_Metronome,115,1,48,49,1726379488
1515,13,Improv_Metronome,116,1,48,57,1726650700
1515,13,Improv_Metronome,117,1,48,16,1726764700
1515,13,Improv_Metronome,118,5,42,127,1726794156
1515,13,Improv_Metronome,119,1,38,64,1727086712
1515,13,Improv_Metronome,120,1,38,44,1727114940
1515,13,Improv_Metronome,121,5,42,127,1727293872
1515,13,Improv_Metronome,122,1,48,59,1727356796
1515,13,Improv_Metronome,123,5,42,127,1727793472
1515,13,Improv_Metronome,124,1,48,53,1728042428
1515,13,Improv_Metronome,125,5,42,127,1728294268
1515,13,Improv_Metronome,126,1,48,57,1728323440
1515,13,Improv_Metronome,127,1,48,45,1728551492
1515,13,Improv_Metronome,128,5,42,127,1728794068
1515,13,Improv_Metronome,129,1,38,60,1728798080
1515,13,Improv_Metronome,130,1,48,46,1729215448
1515,13,Improv_Metronome,131,5,42,127,1729293664
1515,13,Improv_Metronome,132,1,48,54,1729483024
1515,13,Improv_Metronome,133,5,42,127,1729794300
1515,13,Improv_Metronome,134,1,38,62,1729938340
1515,13,Improv_Metronome,135,1,38,44,1730183496
1515,13,Improv_Metronome,136,5,42,127,1730294176
1515,13,Improv_Metronome,137,1,38,55,1730397352
1515,13,Improv_Metronome,138,1,38,48,1730619348
1515,13,Improv_Metronome,139,5,42,127,1730794052
1515,13,Improv_Metronome,140,1,48,70,1731048764
1515,13,Improv_Metronome,141,5,42,127,1731293580
1515,13,Improv_Metronome,142,1,48,61,1731336424
1515,13,Improv_Metronome,143,1,38,56,1731736988
1515,13,Improv_Metronome,144,5,42,127,1731794296
1515,13,Improv_Metronome,145,1,38,35,1731994032
1515,13,Improv_Metronome,146,1,38,52,1732248964
1515,13,Improv_Metronome,147,5,42,127,1732294100
1515,13,Improv_Metronome,148,1,38,46,1732477160
1515,13,Improv_Metronome,149,5,42,127,1732793684
1515,13,Improv_Metronome,150,1,48,65,1732935916
1515,13,Improv_Metronome,151,1,48,62,1733251132
1515,13,Improv_Metronome,152,5,42,127,1733293356
1515,13,Improv_Metronome,153,1,48,24,1733335140
1515,13,Improv_Metronome,154,1,38,45,1733745836
1515,13,Improv_Metronome,155,5,42,127,1733794204
1515,13,Improv_Metronome,156,1,38,40,1734009000
1515,13,Improv_Metronome,157,1,38,52,1734232864
1515,13,Improv_Metronome,158,5,42,127,1734293932
1515,13,Improv_Metronome,159,1,48,56,1734533988
1515,13,Improv_Metronome,160,5,42,127,1734793520
1515,13,Improv_Metronome,161,1,48,52,1735055992
1515,13,Improv_Metronome,162,5,42,127,1735294292
1515,13,Improv_Metronome,163,1,48,60,1735343800
1515,13,Improv_Metronome,164,5,42,127,1735793968
1515,13,Improv_Metronome,165,1,38,49,1735876636
1515,13,Improv_Metronome,166,1,48,47,1736114988
1515,13,Improv_Metronome,167,5,42,127,1736293772
1515,13,Improv_Metronome,168,1,48,50,1736400704
1515,13,Improv_Metronome,169,1,38,55,1736663028
1515,13,Improv_Metronome,170,5,42,127,1736793724
1515,13,Improv_Metronome,171,1,48,48,1737096172
1515,13,Improv_Metronome,172,5,42,127,1737294224
1515,13,Improv_Metronome,173,1,38,53,1737393764
1515,13,Improv_Metronome,174,5,42,127,1737793976
1515,13,Improv_Metronome,175,1,48,52,1737807096
1515,13,Improv_Metronome,176,1,48,56,1738104220
1515,13,Improv_Metronome,177,5,42,127,1738293852
1515,13,Improv_Metronome,178,1,38,63,1738328776
1515,13,Improv_Metronome,179,1,38,28,1738626000
1515,13,Improv_Metronome,180,5,42,127,1738794404
1515,13,Improv_Metronome,181,1,38,61,1738847924
1515,13,Improv_Metronome,182,1,48,58,1739113084
1515,13,Improv_Metronome,183,5,42,127,1739294060
1515,13,Improv_Metronome,184,1,48,51,1739616276
1515,13,Improv_Metronome,185,5,42,127,1739793812
1515,13,Improv_Metronome,186,1,48,57,1739868908
1515,13,Improv_Metronome,187,5,42,127,1740293564
1515,13,Improv_Metronome,188,1,38,45,1740312428
1515,13,Improv_Metronome,189,1,48,57,1740548548
1515,13,Improv_Metronome,190,1,38,50,1740748448
1515,13,Improv_Metronome,191,5,42,127,1740794180
1515,13,Improv_Metronome,192,1,48,57,1740969276
1515,13,Improv_Metronome,193,5,42,127,1741293920
1515,13,Improv_Metronome,194,1,48,57,1741433012
1515,13,Improv_Metronome,195,1,48,57,1741671440
1515,13,Improv_Metronome,196,5,42,127,1741793648
1515,13,Improv_Metronome,197,1,38,48,1742136472
1515,13,Improv_Metronome,198,5,42,127,1742294592
1515,13,Improv_Metronome,199,1,38,47,1742382160
1515,13,Improv_Metronome,200,1,38,50,1742534944
1515,13,Improv_Metronome,201,5,42,127,1742794248
1515,13,Improv_Metronome,202,1,38,45,1742803336
1515,13,Improv_Metronome,203,1,48,55,1743251840
1515,13,Improv_Metronome,204,5,42,127,1743293916
1515,13,Improv_Metronome,205,1,38,57,1743470032
1515,13,Improv_Metronome,206,5,42,127,1743793504
1515,13,Improv_Metronome,207,1,38,37,1743967468
1515,13,Improv_Metronome,208,1,38,43,1744258268
1515,13,Improv_Metronome,209,5,42,127,1744294292
1515,13,Improv_Metronome,210,1,38,53,1744468612
1515,13,Improv_Metronome,211,1,48,46,1744720776
1515,13,Improv_Metronome,212,5,42,127,1744793868
1515,13,Improv_Metronome,213,1,48,52,1745175584
1515,13,Improv_Metronome,214,5,42,127,1745293532
1515,13,Improv_Metronome,215,1,38,59,1745457268
1515,13,Improv_Metronome,216,5,42,127,1745794328
1515,13,Improv_Metronome,217,1,48,44,1745897580
1515,13,Improv_Metronome,218,1,48,50,1746146236
1515,13,Improv_Metronome,219,5,42,127,1746294404
1515,13,Improv_Metronome,220,1,38,62,1746383044
1515,13,Improv_Metronome,221,1,38,42,1746635440
1515,13,Improv_Metronome,222,5,42,127,1746793912
1515,13,Improv_Metronome,223,1,38,34,1747128240
1515,13,Improv_Metronome,224,5,42,127,1747293588
1515,13,Improv_Metronome,225,1,38,37,1747394320
1515,13,Improv_Metronome,226,5,42,127,1747794308
1515,13,Improv_Metronome,227,1,38,56,1747830428
1515,13,Improv_Metronome,228,1,48,56,1748055272
1515,13,Improv_Metronome,229,1,38,56,1748245688
1515,13,Improv_Metronome,230,5,42,127,1748294256
1515,13,Improv_Metronome,231,1,48,59,1748481152
1515,13,Improv_Metronome,232,5,42,127,1748793696
1515,13,Improv_Metronome,233,1,38,45,1748959840
1515,13,Improv_Metronome,234,1,38,47,1749234488
1515,13,Improv_Metronome,235,5,42,127,1749293292
1515,13,Improv_Metronome,236,1,38,49,1749618772
1515,13,Improv_Metronome,237,5,42,127,1749794292
1515,13,Improv_Metronome,238,1,48,45,1749826528
1515,13,Improv_Metronome,239,1,38,48,1750188120
1515,13,Improv_Metronome,240,5,42,127,1750293948
1515,13,Improv_Metronome,241,1,38,54,1750455324
1515,13,Improv_Metronome,242,5,42,127,1750793480
1515,13,Improv_Metronome,243,1,48,46,1750868944
1515,13,Improv_Metronome,244,1,48,43,1751114692
1515,13,Improv_Metronome,245,5,42,127,1751294324
1515,13,Improv_Metronome,246,1,38,55,1751385112
1515,13,Improv_Metronome,247,1,38,43,1751655124
1515,13,Improv_Metronome,248,5,42,127,1751793908
1515,13,Improv_Metronome,249,1,38,29,1751987008
1515,13,Improv_Metronome,250,1,38,33,1752215064
1515,13,Improv_Metronome,251,5,42,127,1752293948
1515,13,Improv_Metronome,252,1,38,58,1752392928
1515,13,Improv_Metronome,253,1,48,51,1752673400
1515,13,Improv_Metronome,254,5,42,127,1752793440
1515,13,Improv_Metronome,255,1,38,54,1753117368
1515,13,Improv_Metronome,256,5,42,127,1753294164
1515,13,Improv_Metronome,257,1,48,55,1753368212
1515,13,Improv_Metronome,258,5,42,127,1753793916
1515,13,Improv_Metronome,259,1,48,65,1753814280
1515,13,Improv_Metronome,260,1,48,68,1754041804
1515,13,Improv_Metronome,261,1,38,73,1754236080
1515,13,Improv_Metronome,262,1,38,45,1754269532
1515,13,Improv_Metronome,263,5,42,127,1754293540
1515,13,Improv_Metronome,264,1,38,51,1754468904
1515,13,Improv_Metronome,265,5,42,127,1754794244
1515,13,Improv_Metronome,266,1,38,61,1754883004
1515,13,Improv_Metronome,267,1,48,54,1755162656
1515,13,Improv_Metronome,268,5,42,127,1755294048
1515,13,Improv_Metronome,269,1,48,54,1755598340
1515,13,Improv_Metronome,270,5,42,127,1755793948
1515,13,Improv_Metronome,271,1,48,56,1755854412
1515,13,Improv_Metronome,272,1,38,54,1756001044
1515,13,Improv_Metronome,273,1,38,51,1756260756
1515,13,Improv_Metronome,274,5,42,127,1756293596
1515,13,Improv_Metronome,275,1,38,56,1756692252
1515,13,Improv_Metronome,276,5,42,127,1756794280
1515,13,Improv_Metronome,277,1,48,55,1756948628
1515,13,Improv_Metronome,278,5,42,127,1757294104
1515,13,Improv_Metronome,279,1,48,58,1757344812
1515,13,Improv_Metronome,280,1,38,58,1757582044
1515,13,Improv_Metronome,281,1,38,38,1757625488
1515,13,Improv_Metronome,282,1,48,54,1757753220
1515,13,Improv_Metronome,283,5,42,127,1757793732
1515,13,Improv_Metronome,284,1,48,55,1758020496
1515,13,Improv_Metronome,285,5,42,127,1758294364
1515,13,Improv_Metronome,286,1,38,65,1758417500
1515,13,Improv_Metronome,287,1,38,29,1758660636
1515,13,Improv_Metronome,288,5,42,127,1758794020
1515,13,Improv_Metronome,289,1,38,52,1758995040
1515,13,Improv_Metronome,290,1,38,44,1759208080
1515,13,Improv_Metronome,291,5,42,127,1759293764
1515,13,Improv_Metronome,292,1,38,45,1759351740
1515,13,Improv_Metronome,293,1,38,49,1759553736
1515,13,Improv_Metronome,294,5,42,127,1759793476
1515,13,Improv_Metronome,295,1,48,51,1759983744
1515,13,Improv_Metronome,296,1,48,57,1760253088
1515,13,Improv_Metronome,297,5,42,127,1760294116
1515,13,Improv_Metronome,298,1,38,56,1760606456
1515,13,Improv_Metronome,299,5,42,127,1760793924
1515,13,Improv_Metronome,300,1,38,47,1760823696
1515,13,Improv_Metronome,301,1,38,54,1760961692
1515,13,Improv_Metronome,302,5,42,127,1761293580
1515,13,Improv_Metronome,303,1,38,43,1761299304
1515,13,Improv_Metronome,304,1,48,41,1761767976
1515,13,Improv_Metronome,305,5,42,127,1761794444
1515,13,Improv_Metronome,306,1,48,54,1762248764
1515,13,Improv_Metronome,307,5,42,127,1762294048
1515,13,Improv_Metronome,308,1,38,46,1762496992
1515,13,Improv_Metronome,309,5,42,127,1762793708
1515,13,Improv_Metronome,310,1,48,57,1762913156
1515,13,Improv_Metronome,311,1,48,48,1763142404
1515,13,Improv_Metronome,312,5,42,127,1763293664
1515,13,Improv_Metronome,313,1,38,58,1763343524
1515,13,Improv_Metronome,314,1,48,63,1763575160
1515,13,Improv_Metronome,315,1,38,55,1763791408
1515,13,Improv_Metronome,316,5,42,127,1763794504
1515,13,Improv_Metronome,317,1,38,49,1764014924
1515,13,Improv_Metronome,318,1,38,46,1764245364
1515,13,Improv_Metronome,319,5,42,127,1764293936
1515,13,Improv_Metronome,320,1,38,27,1764396128
1515,13,Improv_Metronome,321,1,38,30,1764641872
1515,13,Improv_Metronome,322,5,42,127,1764793648
1515,13,Improv_Metronome,323,1,38,42,1764864344
1515,13,Improv_Metronome,324,1,48,54,1765196860
1515,13,Improv_Metronome,325,5,42,127,1765293380
1515,13,Improv_Metronome,326,1,38,41,1765515308
1515,13,Improv_Metronome,327,1,48,49,1765782484
1515,13,Improv_Metronome,328,5,42,127,1765794244
1515,13,Improv_Metronome,329,1,48,48,1766198508
1515,13,Improv_Metronome,330,5,42,127,1766294500
1515,13,Improv_Metronome,331,1,48,47,1766448380
1515,13,Improv_Metronome,332,1,38,51,1766630508
1515,13,Improv_Metronome,333,5,42,127,1766793636
1515,13,Improv_Metronome,334,1,48,55,1766876276
1515,13,Improv_Metronome,335,5,42,127,1767294428
1515,13,Improv_Metronome,336,1,38,61,1767301504
1515,13,Improv_Metronome,337,1,38,58,1767542896
1515,13,Improv_Metronome,338,5,42,127,1767794208
1515,13,Improv_Metronome,339,1,48,59,1767954684
1515,13,Improv_Metronome,340,1,38,54,1768191468
1515,13,Improv_Metronome,341,5,42,127,1768293716
1515,13,Improv_Metronome,342,1,38,47,1768667476
1515,13,Improv_Metronome,343,5,42,127,1768793468
1515,13,Improv_Metronome,344,1,38,44,1769079988
1515,13,Improv_Metronome,345,5,42,127,1769294264
1515,13,Improv_Metronome,346,1,48,57,1769540604
1515,13,Improv_Metronome,347,5,42,127,1769794088
1515,13,Improv_Metronome,348,1,48,58,1770009516
1515,13,Improv_Metronome,349,1,38,64,1770240408
1515,13,Improv_Metronome,350,1,38,43,1770270552
1515,13,Improv_Metronome,351,5,42,127,1770293512
1515,13,Improv_Metronome,352,1,38,27,1770708624
1515,13,Improv_Metronome,353,5,42,127,1770794384
1515,13,Improv_Metronome,354,1,38,53,1770863868
1515,13,Improv_Metronome,355,1,38,45,1771115508
1515,13,Improv_Metronome,356,5,42,127,1771294244
1515,13,Improv_Metronome,357,1,38,57,1771307144
1515,13,Improv_Metronome,358,1,48,54,1771772448
1515,13,Improv_Metronome,359,5,42,127,1771793988
1515,13,Improv_Metronome,360,1,48,48,1772229040
1515,13,Improv_Metronome,361,5,42,127,1772293368
1515,13,Improv_Metronome,362,1,48,56,1772499820
1515,13,Improv_Metronome,363,5,42,127,1772794148
1515,13,Improv_Metronome,364,1,48,47,1772964624
1515,13,Improv_Metronome,365,1,48,53,1773197980
1515,13,Improv_Metronome,366,5,42,127,1773293952
1515,13,Improv_Metronome,367,1,48,56,1773420944
1515,13,Improv_Metronome,368,1,48,53,1773666548
1515,13,Improv_Metronome,0,9999,9999,9999,1703791684
1515,13,Improv_Metronome,1,9999,9999,9999,1704291384
1515,13,Improv_Metronome,2,9999,9999,9999,1704791156
1515,13,Improv_Metronome,3,9999,9999,9999,1705291824
1515,13,Improv_Metronome,4,9999,9999,9999,1705791596
1515,13,Improv_Metronome,5,9999,9999,9999,1706291268
1515,13,Improv_Metronome,6,9999,9999,9999,1706792048
1515,13,Improv_Metronome,7,9999,9999,9999,1707291700
1515,13,Improv_Metronome,8,9999,9999,9999,1707791452
1515,13,Improv_Metronome,9,9999,9999,9999,1708291180
1515,13,Improv_Metronome,10,9999,9999,9999,1708791896
1515,13,Improv_Metronome,11,9999,9999,9999,1709291608
1515,13,Improv_Metronome,12,9999,9999,9999,1709791280
1515,13,Improv_Metronome,13,9999,9999,9999,1710292076
1515,13,Improv_Metronome,14,9999,9999,9999,1710791792
1515,13,Improv_Metronome,15,9999,9999,9999,1711291464
1515,13,Improv_Metronome,16,9999,9999,9999,1711791196
1515,13,Improv_Metronome,17,9999,9999,9999,1712291896
1515,13,Improv_Metronome,18,9999,9999,9999,1712791644
1515,13,Improv_Metronome,19,9999,9999,9999,1713291316
1515,13,Improv_Metronome,20,9999,9999,9999,1713792072
1515,13,Improv_Metronome,21,9999,9999,9999,1714291796
1515,13,Improv_Metronome,22,9999,9999,9999,1714791532
1515,13,Improv_Metronome,23,9999,9999,9999,1715291212
1515,13,Improv_Metronome,24,9999,9999,9999,1715791984
1515,13,Improv_Metronome,25,9999,9999,9999,1716291656
1515,13,Improv_Metronome,26,9999,9999,9999,1716791384
1515,13,Improv_Metronome,27,9999,9999,9999,1717291120
1515,13,Improv_Metronome,28,9999,9999,9999,1717791836
1515,13,Improv_Metronome,29,9999,9999,9999,1718291564
1515,13,Improv_Metronome,30,9999,9999,9999,1718791228
1515,13,Improv_Metronome,31,9999,9999,9999,1719292000
1515,13,Improv_Metronome,32,9999,9999,9999,1719791728
1515,13,Improv_Metronome,33,9999,9999,9999,1720291420
1515,13,Improv_Metronome,34,9999,9999,9999,1720791156
1515,13,Improv_Metronome,35,9999,9999,9999,1721291856
1515,13,Improv_Metronome,36,9999,9999,9999,1721791600
1515,13,Improv_Metronome,37,9999,9999,9999,1722291260
1515,13,Improv_Metronome,38,9999,9999,9999,1722792028
1515,13,Improv_Metronome,39,9999,9999,9999,1723291760
1515,13,Improv_Metronome,40,9999,9999,9999,1723791416
1515,13,Improv_Metronome,41,9999,9999,9999,1724291160
1515,13,Improv_Metronome,42,9999,9999,9999,1724791908
1515,13,Improv_Metronome,43,9999,9999,9999,1725291624
1515,13,Improv_Metronome,44,9999,9999,9999,1725791300
1515,13,Improv_Metronome,45,9999,9999,9999,1726292072
1515,13,Improv_Metronome,46,9999,9999,9999,1726791796
1515,13,Improv_Metronome,47,9999,9999,9999,1727291512
1515,13,Improv_Metronome,48,9999,9999,9999,1727791188
1515,13,Improv_Metronome,49,9999,9999,9999,1728291908
1515,13,Improv_Metronome,50,9999,9999,9999,1728791636
1515,13,Improv_Metronome,51,9999,9999,9999,1729291380
1515,13,Improv_Metronome,52,9999,9999,9999,1729792088
1515,13,Improv_Metronome,53,9999,9999,9999,1730291816
1515,13,Improv_Metronome,54,9999,9999,9999,1730791544
1515,13,Improv_Metronome,55,9999,9999,9999,1731291220
1515,13,Improv_Metronome,56,9999,9999,9999,1731791936
1515,13,Improv_Metronome,57,9999,9999,9999,1732291668
1515,13,Improv_Metronome,58,9999,9999,9999,1732791400
1515,13,Improv_Metronome,59,9999,9999,9999,1733291072
1515,13,Improv_Metronome,60,9999,9999,9999,1733791844
1515,13,Improv_Metronome,61,9999,9999,9999,1734291572
1515,13,Improv_Metronome,62,9999,9999,9999,1734791236
1515,13,Improv_Metronome,63,9999,9999,9999,1735292004
1515,13,Improv_Metronome,64,9999,9999,9999,1735791684
1515,13,Improv_Metronome,65,9999,9999,9999,1736291412
1515,13,Improv_Metronome,66,9999,9999,9999,1736791140
1515,13,Improv_Metronome,67,9999,9999,9999,1737291864
1515,13,Improv_Metronome,68,9999,9999,9999,1737791540
1515,13,Improv_Metronome,69,9999,9999,9999,1738291268
1515,13,Improv_Metronome,70,9999,9999,9999,1738792044
1515,13,Improv_Metronome,71,9999,9999,9999,1739291700
1515,13,Improv_Metronome,72,9999,9999,9999,1739791452
1515,13,Improv_Metronome,73,9999,9999,9999,1740291128
1515,13,Improv_Metronome,74,9999,9999,9999,1740791896
1515,13,Improv_Metronome,75,9999,9999,9999,1741291636
1515,13,Improv_Metronome,76,9999,9999,9999,1741791288
1515,13,Improv_Metronome,77,9999,9999,9999,1742292084
1515,13,Improv_Metronome,78,9999,9999,9999,1742791736
1515,13,Improv_Metronome,79,9999,9999,9999,1743291484
1515,13,Improv_Metronome,80,9999,9999,9999,1743791216
1515,13,Improv_Metronome,81,9999,9999,9999,1744291932
1515,13,Improv_Metronome,82,9999,9999,9999,1744791660
1515,13,Improv_Metronome,83,9999,9999,9999,1745291320
1515,13,Improv_Metronome,84,9999,9999,9999,1745792116
1515,13,Improv_Metronome,85,9999,9999,9999,1746291820
1515,13,Improv_Metronome,86,9999,9999,9999,1746791476
1515,13,Improv_Metronome,87,9999,9999,9999,1747291228
1515,13,Improv_Metronome,88,9999,9999,9999,1747791948
1515,13,Improv_Metronome,89,9999,9999,9999,1748291672
1515,13,Improv_Metronome,90,9999,9999,9999,1748791408
1515,13,Improv_Metronome,91,9999,9999,9999,1749291080
1515,13,Improv_Metronome,92,9999,9999,9999,1749791860
1515,13,Improv_Metronome,93,9999,9999,9999,1750291516
1515,13,Improv_Metronome,94,9999,9999,9999,1750791268
1515,13,Improv_Metronome,95,9999,9999,9999,1751291964
1515,13,Improv_Metronome,96,9999,9999,9999,1751791696
1515,13,Improv_Metronome,97,9999,9999,9999,1752291440
1515,13,Improv_Metronome,98,9999,9999,9999,1752791156
1515,13,Improv_Metronome,99,9999,9999,9999,1753291876
1515,13,Improv_Metronome,100,9999,9999,9999,1753791556
1515,13,Improv_Metronome,101,9999,9999,9999,1754291256
1515,13,Improv_Metronome,102,9999,9999,9999,1754792032
1515,13,Improv_Metronome,103,9999,9999,9999,1755291764
1515,13,Improv_Metronome,104,9999,9999,9999,1755791440
1515,13,Improv_Metronome,105,9999,9999,9999,1756291164
1515,13,Improv_Metronome,106,9999,9999,9999,1756791916
1515,13,Improv_Metronome,107,9999,9999,9999,1757291596
1515,13,Improv_Metronome,108,9999,9999,9999,1757791300
1515,13,Improv_Metronome,109,9999,9999,9999,1758292076
1515,13,Improv_Metronome,110,9999,9999,9999,1758791732
1515,13,Improv_Metronome,111,9999,9999,9999,1759291476
1515,13,Improv_Metronome,112,9999,9999,9999,1759791192
1515,13,Improv_Metronome,113,9999,9999,9999,1760291904
1515,13,Improv_Metronome,114,9999,9999,9999,1760791640
1515,13,Improv_Metronome,115,9999,9999,9999,1761291368
1515,13,Improv_Metronome,116,9999,9999,9999,1761792084
1515,13,Improv_Metronome,117,9999,9999,9999,1762291764
1515,13,Improv_Metronome,118,9999,9999,9999,1762791500
1515,13,Improv_Metronome,119,9999,9999,9999,1763291228
1515,13,Improv_Metronome,120,9999,9999,9999,1763791924
1515,13,Improv_Metronome,121,9999,9999,9999,1764291652
1515,13,Improv_Metronome,122,9999,9999,9999,1764791364
1515,13,Improv_Metronome,123,9999,9999,9999,1765291068
1515,13,Improv_Metronome,124,9999,9999,9999,1765791812
1515,13,Improv_Metronome,125,9999,9999,9999,1766291560
1515,13,Improv_Metronome,126,9999,9999,9999,1766791276
1515,13,Improv_Metronome,127,9999,9999,9999,1767291996
1515,13,Improv_Metronome,128,9999,9999,9999,1767791700
1515,13,Improv_Metronome,129,9999,9999,9999,1768291432
1515,13,Improv_Metronome,130,9999,9999,9999,1768791108
1515,13,Improv_Metronome,131,9999,9999,9999,1769291828
1515,13,Improv_Metronome,132,9999,9999,9999,1769791580
1515,13,Improv_Metronome,133,9999,9999,9999,1770291300
1515,13,Improv_Metronome,134,9999,9999,9999,1770792024
1515,13,Improv_Metronome,135,9999,9999,9999,1771291736
1515,13,Improv_Metronome,136,9999,9999,9999,1771791480
1515,13,Improv_Metronome,137,9999,9999,9999,1772291156
1515,13,Improv_Metronome,138,9999,9999,9999,1772791864
1515,13,Improv_Metronome,139,9999,9999,9999,1773291592
15