pid,taskRunCount,taskID,taskName,i,channel,pitch,velocity,microseconds
17,1,1,Ticks_Pract_5,0,5,42,127,94475560
17,1,1,Ticks_Pract_5,1,5,42,127,94976300
17,1,1,Ticks_Pract_5,2,5,42,127,95476296
17,1,1,Ticks_Pract_5,3,5,42,127,95975844
17,1,1,Ticks_Pract_5,4,5,42,127,96475468
17,1,1,Ticks_Pract_5,5,1,48,21,96558412
17,1,1,Ticks_Pract_5,6,5,42,127,96976264
17,1,1,Ticks_Pract_5,7,1,48,23,97008500
17,1,1,Ticks_Pract_5,8,1,48,23,97473060
17,1,1,Ticks_Pract_5,9,5,42,127,97476080
17,1,1,Ticks_Pract_5,10,1,48,23,97959892
17,1,1,Ticks_Pract_5,11,5,42,127,97975608
17,1,1,Ticks_Pract_5,12,1,48,25,98429180
17,1,1,Ticks_Pract_5,13,5,42,127,98476404
17,1,1,Ticks_Pract_5,14,1,48,26,98956556
17,1,1,Ticks_Pract_5,15,5,42,127,98976080
17,1,1,Ticks_Pract_5,16,1,48,27,99446004
17,1,1,Ticks_Pract_5,17,5,42,127,99476052
17,1,1,Ticks_Pract_5,18,1,48,31,99935072
17,1,1,Ticks_Pract_5,19,5,42,127,99975584
17,1,1,Ticks_Pract_5,20,1,48,27,100443860
17,1,1,Ticks_Pract_5,21,5,42,127,100476156
17,1,1,Ticks_Pract_5,22,1,48,21,100968404
17,1,1,Ticks_Pract_5,23,5,42,127,100975908
17,1,1,Ticks_Pract_5,24,1,48,23,101475212
17,1,1,Ticks_Pract_5,25,5,42,127,101476996
17,1,1,Ticks_Pract_5,26,1,48,21,101950408
17,1,1,Ticks_Pract_5,27,5,42,127,101976452
17,1,1,Ticks_Pract_5,28,1,48,25,102442764
17,1,1,Ticks_Pract_5,29,5,42,127,102476200
17,1,1,Ticks_Pract_5,30,1,48,25,102951776
17,1,1,Ticks_Pract_5,31,5,42,127,102976000
17,1,1,Ticks_Pract_5,32,1,48,24,103475660
17,1,1,Ticks_Pract_5,33,5,42,127,103477300
17,1,1,Ticks_Pract_5,34,1,48,22,103955060
17,1,1,Ticks_Pract_5,35,5,42,127,103976152
17,1,1,Ticks_Pract_5,36,1,48,23,104469972
17,1,1,Ticks_Pract_5,37,5,42,127,104475976
17,1,1,Ticks_Pract_5,38,1,48,21,104958300
17,1,1,Ticks_Pract_5,39,5,42,127,104975652
17,1,1,Ticks_Pract_5,40,1,48,26,105431464
17,1,1,Ticks_Pract_5,41,5,42,127,105475552
17,1,1,Ticks_Pract_5,42,1,48,21,105953912
17,1,1,Ticks_Pract_5,43,5,42,127,105976200
17,1,1,Ticks_Pract_5,44,1,48,23,106448884
17,1,1,Ticks_Pract_5,45,5,42,127,106475804
17,1,1,Ticks_Pract_5,46,1,48,23,106948044
17,1,1,Ticks_Pract_5,47,5,42,127,106975776
17,1,1,Ticks_Pract_5,48,1,48,23,107456080
17,1,1,Ticks_Pract_5,49,5,42,127,107476348
17,1,1,Ticks_Pract_5,50,1,48,30,107942388
17,1,1,Ticks_Pract_5,51,5,42,127,107976172
17,1,1,Ticks_Pract_5,52,1,48,28,108463128
17,1,1,Ticks_Pract_5,53,5,42,127,108475700
17,1,1,Ticks_Pract_5,54,1,48,27,108941968
17,1,1,Ticks_Pract_5,55,5,42,127,108975748
17,1,1,Ticks_Pract_5,56,1,48,26,109433500
17,1,1,Ticks_Pract_5,57,5,42,127,109476100
17,1,1,Ticks_Pract_5,58,1,48,26,109955432
17,1,1,Ticks_Pract_5,59,5,42,127,109975848
17,1,1,Ticks_Pract_5,60,1,48,28,110472128
17,1,1,Ticks_Pract_5,61,5,42,127,110475672
17,1,1,Ticks_Pract_5,62,1,48,26,110961952
17,1,1,Ticks_Pract_5,63,5,42,127,110976616
17,1,1,Ticks_Pract_5,64,1,48,27,111463644
17,1,1,Ticks_Pract_5,65,5,42,127,111475996
17,1,1,Ticks_Pract_5,66,1,48,25,111945320
17,1,1,Ticks_Pract_5,67,5,42,127,111975672
17,1,1,Ticks_Pract_5,68,1,48,27,112451796
17,1,1,Ticks_Pract_5,69,5,42,127,112475424
17,1,1,Ticks_Pract_5,70,1,48,28,112969096
17,1,1,Ticks_Pract_5,71,5,42,127,112976368
17,1,1,Ticks_Pract_5,72,1,48,25,113460532
17,1,1,Ticks_Pract_5,73,5,42,127,113476040
17,1,1,Ticks_Pract_5,74,1,48,31,113964312
17,1,1,Ticks_Pract_5,75,5,42,127,113975620
17,1,1,Ticks_Pract_5,76,1,48,32,114436356
17,1,1,Ticks_Pract_5,0,9999,9999,9999,94473276
17,1,1,Ticks_Pract_5,1,9999,9999,9999,94974020
17,1,1,Ticks_Pract_5,2,9999,9999,9999,95473716
17,1,1,Ticks_Pract_5,3,9999,9999,9999,95973488
17,1,1,Ticks_Pract_5,4,9999,9999,9999,96473188
17,1,1,Ticks_Pract_5,5,9999,9999,9999,96973908
17,1,1,Ticks_Pract_5,6,9999,9999,9999,97473652
17,1,1,Ticks_Pract_5,7,9999,9999,9999,97973328
17,1,1,Ticks_Pract_5,8,9999,9999,9999,98474048
17,1,1,Ticks_Pract_5,9,9999,9999,9999,98973796
17,1,1,Ticks_Pract_5,10,9999,9999,9999,99473472
17,1,1,Ticks_Pract_5,11,9999,9999,9999,99973224
17,1,1,Ticks_Pract_5,12,9999,9999,9999,100473948
17,1,1,Ticks_Pract_5,13,9999,9999,9999,100973624
17,1,1,Ticks_Pract_5,14,9999,9999,9999,101473380
17,1,1,Ticks_Pract_5,15,9999,9999,9999,101974096
17,1,1,Ticks_Pract_5,16,9999,9999,9999,102473844
17,1,1,Ticks_Pract_5,17,9999,9999,9999,102973496
17,1,1,Ticks_Pract_5,18,9999,9999,9999,103473228
17,1,1,Ticks_Pract_5,19,9999,9999,9999,103973944
17,1,1,Ticks_Pract_5,20,9999,9999,9999,104473696
17,1,1,Ticks_Pract_5,21,9999,9999,9999,104973372
17,1,1,Ticks_Pract_5,22,9999,9999,9999,105473120
17,1,1,Ticks_Pract_5,23,9999,9999,9999,105973844
17,1,1,Ticks_Pract_5,24,9999,9999,9999,106473520
17,1,1,Ticks_Pract_5,25,9999,9999,9999,106973272
17,1,1,Ticks_Pract_5,26,9999,9999,9999,107473992
17,1,1,Ticks_Pract_5,27,9999,9999,9999,107973744
17,1,1,Ticks_Pract_5,28,9999,9999,9999,108473420
17,1,1,Ticks_Pract_5,29,9999,9999,9999,108973172
17,1,1,Ticks_Pract_5,30,9999,9999,9999,109473892
17,1,1,Ticks_Pract_5,31,9999,9999,9999,109973568
17,1,1,Ticks_Pract_5,32,9999,9999,9999,110473316
17,1,1,Ticks_Pract_5,33,9999,9999,9999,110974036
17,1,1,Ticks_Pract_5,34,9999,9999,9999,111473716
17,1,1,Ticks_Pract_5,35,9999,9999,9999,111973464
17,1,1,Ticks_Pract_5,36,9999,9999,9999,112473140
17,1,1,Ticks_Pract_5,37,9999,9999,9999,112973936
17,1,1,Ticks_Pract_5,38,9999,9999,9999,113473612
17,1,1,Ticks_Pract_5,39,9999,9999,9999,113973336
17,2,0,Ticks_Pract_8,0,5,42,127,120112476
17,2,0,Ticks_Pract_8,1,5,42,127,120913296
17,2,0,Ticks_Pract_8,2,5,42,127,121713052
17,2,0,Ticks_Pract_8,3,1,48,16,121829820
17,2,0,Ticks_Pract_8,4,1,48,19,122489228
17,2,0,Ticks_Pract_8,5,5,42,127,122513004
17,2,0,Ticks_Pract_8,6,1,48,20,123279172
17,2,0,Ticks_Pract_8,7,5,42,127,123312436
17,2,0,Ticks_Pract_8,8,1,48,24,124055308
17,2,0,Ticks_Pract_8,9,5,42,127,124113216
17,2,0,Ticks_Pract_8,10,1,48,22,124838540
17,2,0,Ticks_Pract_8,11,5,42,127,124913024
17,2,0,Ticks_Pract_8,12,1,48,19,125643804
17,2,0,Ticks_Pract_8,13,5,42,127,125713052
17,2,0,Ticks_Pract_8,14,1,48,21,126401792
17,2,0,Ticks_Pract_8,15,5,42,127,126512624
17,2,0,Ticks_Pract_8,16,1,48,16,127216832
17,2,0,Ticks_Pract_8,17,5,42,127,127313280
17,2,0,Ticks_Pract_8,18,1,48,17,128014624
17,2,0,Ticks_Pract_8,19,5,42,127,128112936
17,2,0,Ticks_Pract_8,20,1,48,17,128777092
17,2,0,Ticks_Pract_8,21,5,42,127,128912744
17,2,0,Ticks_Pract_8,22,1,48,18,129616952
17,2,0,Ticks_Pract_8,23,5,42,127,129712492
17,2,0,Ticks_Pract_8,24,1,48,21,130395180
17,2,0,Ticks_Pract_8,25,5,42,127,130513332
17,2,0,Ticks_Pract_8,26,1,48,15,131186620
17,2,0,Ticks_Pract_8,27,5,42,127,131313064
17,2,0,Ticks_Pract_8,28,1,48,13,131974636
17,2,0,Ticks_Pract_8,29,5,42,127,132112648
17,2,0,Ticks_Pract_8,30,1,48,15,132711496
17,2,0,Ticks_Pract_8,31,5,42,127,132912604
17,2,0,Ticks_Pract_8,32,1,48,15,133485016
17,2,0,Ticks_Pract_8,33,5,42,127,133713480
17,2,0,Ticks_Pract_8,34,1,48,15,134283928
17,2,0,Ticks_Pract_8,35,5,42,127,134513064
17,2,0,Ticks_Pract_8,36,5,42,127,135312672
17,2,0,Ticks_Pract_8,37,1,48,15,135328628
17,2,0,Ticks_Pract_8,38,1,48,24,136054344
17,2,0,Ticks_Pract_8,39,5,42,127,136112396
17,2,0,Ticks_Pract_8,40,1,48,20,136828464
17,2,0,Ticks_Pract_8,41,5,42,127,136913472
17,2,0,Ticks_Pract_8,42,1,48,20,137640444
17,2,0,Ticks_Pract_8,43,5,42,127,137713060
17,2,0,Ticks_Pract_8,44,1,48,20,138407244
17,2,0,Ticks_Pract_8,45,5,42,127,138512704
17,2,0,Ticks_Pract_8,46,1,48,20,139225872
17,2,0,Ticks_Pract_8,47,5,42,127,139312524
17,2,0,Ticks_Pract_8,48,1,48,17,140056748
17,2,0,Ticks_Pract_8,49,5,42,127,140113108
17,2,0,Ticks_Pract_8,50,1,48,19,140868524
17,2,0,Ticks_Pract_8,51,5,42,127,140913284
17,2,0,Ticks_Pract_8,52,1,48,23,141587212
17,2,0,Ticks_Pract_8,53,5,42,127,141712632
17,2,0,Ticks_Pract_8,54,5,42,127,142512460
17,2,0,Ticks_Pract_8,55,1,48,18,143197176
17,2,0,Ticks_Pract_8,56,5,42,127,143313240
17,2,0,Ticks_Pract_8,57,1,48,21,143984892
17,2,0,Ticks_Pract_8,0,9999,9999,9999,120110188
17,2,0,Ticks_Pract_8,1,9999,9999,9999,120910940
17,2,0,Ticks_Pract_8,2,9999,9999,9999,121710696
17,2,0,Ticks_Pract_8,3,9999,9999,9999,122510420
17,2,0,Ticks_Pract_8,4,9999,9999,9999,123310152
17,2,0,Ticks_Pract_8,5,9999,9999,9999,124110932
17,2,0,Ticks_Pract_8,6,9999,9999,9999,124910664
17,2,0,Ticks_Pract_8,7,9999,9999,9999,125710396
17,2,0,Ticks_Pract_8,8,9999,9999,9999,126510188
17,2,0,Ticks_Pract_8,9,9999,9999,9999,127310920
17,2,0,Ticks_Pract_8,10,9999,9999,9999,128110652
17,2,0,Ticks_Pract_8,11,9999,9999,9999,128910384
17,2,0,Ticks_Pract_8,12,9999,9999,9999,129710132
17,2,0,Ticks_Pract_8,13,9999,9999,9999,130510896
17,2,0,Ticks_Pract_8,14,9999,9999,9999,131310704
17,2,0,Ticks_Pract_8,15,9999,9999,9999,132110436
17,2,0,Ticks_Pract_8,16,9999,9999,9999,132910168
17,2,0,Ticks_Pract_8,17,9999,9999,9999,133710900
17,2,0,Ticks_Pract_8,18,9999,9999,9999,134510708
17,2,0,Ticks_Pract_8,19,9999,9999,9999,135310384
17,2,0,Ticks_Pract_8,20,9999,9999,9999,136110188
17,2,0,Ticks_Pract_8,21,9999,9999,9999,136910964
17,2,0,Ticks_Pract_8,22,9999,9999,9999,137710700
17,2,0,Ticks_Pract_8,23,9999,9999,9999,138510420
17,2,0,Ticks_Pract_8,24,9999,9999,9999,139310168
17,2,0,Ticks_Pract_8,25,9999,9999,9999,140110896
17,2,0,Ticks_Pract_8,26,9999,9999,9999,140910704
17,2,0,Ticks_Pract_8,27,9999,9999,9999,141710420
17,2,0,Ticks_Pract_8,28,9999,9999,9999,142510176
17,2,0,Ticks_Pract_8,29,9999,9999,9999,143310952
17,3,4,T1_SMS_5,0,5,42,127,222513572
17,3,4,T1_SMS_5,1,5,42,127,223014240
17,3,4,T1_SMS_5,2,1,48,18,223234000
17,3,4,T1_SMS_5,3,5,42,127,223514288
17,3,4,T1_SMS_5,4,1,48,22,223900596
17,3,4,T1_SMS_5,5,5,42,127,224013672
17,3,4,T1_SMS_5,6,1,48,27,224425364
17,3,4,T1_SMS_5,7,5,42,127,224514332
17,3,4,T1_SMS_5,8,1,48,29,224950508
17,3,4,T1_SMS_5,9,5,42,127,225014232
17,3,4,T1_SMS_5,10,1,48,29,225468776
17,3,4,T1_SMS_5,11,5,42,127,225513760
17,3,4,T1_SMS_5,12,1,48,29,225975764
17,3,4,T1_SMS_5,13,5,42,127,226013508
17,3,4,T1_SMS_5,14,1,48,38,226476856
17,3,4,T1_SMS_5,15,5,42,127,226514232
17,3,4,T1_SMS_5,16,1,48,31,227007528
17,3,4,T1_SMS_5,17,5,42,127,227014280
17,3,4,T1_SMS_5,18,1,48,24,227499736
17,3,4,T1_SMS_5,19,5,42,127,227513808
17,3,4,T1_SMS_5,20,5,42,127,228013344
17,3,4,T1_SMS_5,21,1,48,26,228020564
17,3,4,T1_SMS_5,22,1,48,27,228487136
17,3,4,T1_SMS_5,23,5,42,127,228514280
17,3,4,T1_SMS_5,24,1,48,29,228978980
17,3,4,T1_SMS_5,25,5,42,127,229013956
17,3,4,T1_SMS_5,26,1,48,24,229477156
17,3,4,T1_SMS_5,27,5,42,127,229513560
17,3,4,T1_SMS_5,28,1,48,26,229997368
17,3,4,T1_SMS_5,29,5,42,127,230014356
17,3,4,T1_SMS_5,30,1,48,29,230506532
17,3,4,T1_SMS_5,31,5,42,127,230514032
17,3,4,T1_SMS_5,32,1,48,24,230995380
17,3,4,T1_SMS_5,33,5,42,127,231014008
17,3,4,T1_SMS_5,34,1,48,25,231511276
17,3,4,T1_SMS_5,35,5,42,127,231513388
17,3,4,T1_SMS_5,36,1,48,30,231964092
17,3,4,T1_SMS_5,37,5,42,127,232014256
17,3,4,T1_SMS_5,38,1,48,25,232483260
17,3,4,T1_SMS_5,39,5,42,127,232514008
17,3,4,T1_SMS_5,40,1,48,35,232974648
17,3,4,T1_SMS_5,41,5,42,127,233013732
17,3,4,T1_SMS_5,42,1,48,41,233494180
17,3,4,T1_SMS_5,43,5,42,127,233514304
17,3,4,T1_SMS_5,44,1,48,29,234013464
17,3,4,T1_SMS_5,45,5,42,127,234015176
17,3,4,T1_SMS_5,46,1,48,37,234500480
17,3,4,T1_SMS_5,47,5,42,127,234513732
17,3,4,T1_SMS_5,48,1,48,47,235007696
17,3,4,T1_SMS_5,49,5,42,127,235013556
17,3,4,T1_SMS_5,50,1,48,42,235514212
17,3,4,T1_SMS_5,51,5,42,127,235515768
17,3,4,T1_SMS_5,52,5,42,127,236013960
17,3,4,T1_SMS_5,53,1,48,46,236015000
17,3,4,T1_SMS_5,54,1,48,35,236510088
17,3,4,T1_SMS_5,55,5,42,127,236513704
17,3,4,T1_SMS_5,56,1,48,38,237005136
17,3,4,T1_SMS_5,57,5,42,127,237014500
17,3,4,T1_SMS_5,58,1,48,42,237507196
17,3,4,T1_SMS_5,59,5,42,127,237514028
17,3,4,T1_SMS_5,60,5,42,127,238013788
17,3,4,T1_SMS_5,61,1,48,46,238019512
17,3,4,T1_SMS_5,62,1,48,39,238499308
17,3,4,T1_SMS_5,63,5,42,127,238513384
17,3,4,T1_SMS_5,64,1,48,44,239003168
17,3,4,T1_SMS_5,65,5,42,127,239014176
17,3,4,T1_SMS_5,66,1,48,43,239495376
17,3,4,T1_SMS_5,67,5,42,127,239514076
17,3,4,T1_SMS_5,68,5,42,127,240013536
17,3,4,T1_SMS_5,69,1,48,41,240014500
17,3,4,T1_SMS_5,70,1,48,43,240511156
17,3,4,T1_SMS_5,71,5,42,127,240514324
17,3,4,T1_SMS_5,72,1,48,45,240987240
17,3,4,T1_SMS_5,73,5,42,127,241014224
17,3,4,T1_SMS_5,74,5,42,127,241513760
17,3,4,T1_SMS_5,75,1,48,40,241522996
17,3,4,T1_SMS_5,76,5,42,127,242013436
17,3,4,T1_SMS_5,77,1,48,28,242020060
17,3,4,T1_SMS_5,78,1,48,37,242503212
17,3,4,T1_SMS_5,79,5,42,127,242514448
17,3,4,T1_SMS_5,80,1,48,31,242965608
17,3,4,T1_SMS_5,81,5,42,127,243013976
17,3,4,T1_SMS_5,82,1,48,39,243505604
17,3,4,T1_SMS_5,83,5,42,127,243513656
17,3,4,T1_SMS_5,84,5,42,127,244013388
17,3,4,T1_SMS_5,85,1,48,32,244016944
17,3,4,T1_SMS_5,86,5,42,127,244514404
17,3,4,T1_SMS_5,87,1,48,34,244519908
17,3,4,T1_SMS_5,88,1,48,33,245003736
17,3,4,T1_SMS_5,89,5,42,127,245014148
17,3,4,T1_SMS_5,90,5,42,127,245513680
17,3,4,T1_SMS_5,91,1,48,31,245542036
17,3,4,T1_SMS_5,92,5,42,127,246014256
17,3,4,T1_SMS_5,93,1,48,19,246044620
17,3,4,T1_SMS_5,94,5,42,127,246514156
17,3,4,T1_SMS_5,95,1,48,25,246533920
17,3,4,T1_SMS_5,96,1,48,29,246988772
17,3,4,T1_SMS_5,97,5,42,127,247013752
17,3,4,T1_SMS_5,98,1,48,27,247510852
17,3,4,T1_SMS_5,99,5,42,127,247513428
17,3,4,T1_SMS_5,100,5,42,127,248014080
17,3,4,T1_SMS_5,101,1,48,29,248015044
17,3,4,T1_SMS_5,102,1,48,35,248481236
17,3,4,T1_SMS_5,103,5,42,127,248514048
17,3,4,T1_SMS_5,104,5,42,127,249013732
17,3,4,T1_SMS_5,105,1,48,26,249053212
17,3,4,T1_SMS_5,106,1,48,31,249510604
17,3,4,T1_SMS_5,107,5,42,127,249514296
17,3,4,T1_SMS_5,108,1,48,29,249963160
17,3,4,T1_SMS_5,109,5,42,127,250014196
17,3,4,T1_SMS_5,110,1,48,28,250503236
17,3,4,T1_SMS_5,111,5,42,127,250513872
17,3,4,T1_SMS_5,112,1,48,37,251010976
17,3,4,T1_SMS_5,113,5,42,127,251013548
17,3,4,T1_SMS_5,114,1,48,27,251497960
17,3,4,T1_SMS_5,115,5,42,127,251514196
17,3,4,T1_SMS_5,116,1,48,28,251988304
17,3,4,T1_SMS_5,117,5,42,127,252014020
17,3,4,T1_SMS_5,118,1,48,32,252499032
17,3,4,T1_SMS_5,119,5,42,127,252513848
17,3,4,T1_SMS_5,120,1,48,30,252982052
17,3,4,T1_SMS_5,121,5,42,127,253014492
17,3,4,T1_SMS_5,122,5,42,127,253513956
17,3,4,T1_SMS_5,123,1,48,26,253521252
17,3,4,T1_SMS_5,124,1,48,30,254004460
17,3,4,T1_SMS_5,125,5,42,127,254013848
17,3,4,T1_SMS_5,126,1,48,24,254502488
17,3,4,T1_SMS_5,127,5,42,127,254513724
17,3,4,T1_SMS_5,128,5,42,127,255014228
17,3,4,T1_SMS_5,129,1,48,27,255033196
17,3,4,T1_SMS_5,130,5,42,127,255513904
17,3,4,T1_SMS_5,131,1,48,36,255517612
17,3,4,T1_SMS_5,132,1,48,28,255974412
17,3,4,T1_SMS_5,133,5,42,127,256013872
17,3,4,T1_SMS_5,134,1,48,33,256488056
17,3,4,T1_SMS_5,135,5,42,127,256514668
17,3,4,T1_SMS_5,136,1,48,31,256986684
17,3,4,T1_SMS_5,137,5,42,127,257013976
17,3,4,T1_SMS_5,138,1,48,28,257500480
17,3,4,T1_SMS_5,139,5,42,127,257513800
17,3,4,T1_SMS_5,140,1,48,21,257975884
17,3,4,T1_SMS_5,141,5,42,127,258013628
17,3,4,T1_SMS_5,142,1,48,29,258489456
17,3,4,T1_SMS_5,143,5,42,127,258514128
17,3,4,T1_SMS_5,144,1,48,31,258999584
17,3,4,T1_SMS_5,145,5,42,127,259014028
17,3,4,T1_SMS_5,146,1,48,33,259494932
17,3,4,T1_SMS_5,147,5,42,127,259513704
17,3,4,T1_SMS_5,148,1,48,32,260004164
17,3,4,T1_SMS_5,149,5,42,127,260013380
17,3,4,T1_SMS_5,150,1,48,30,260477552
17,3,4,T1_SMS_5,151,5,42,127,260514180
17,3,4,T1_SMS_5,152,1,48,34,260977304
17,3,4,T1_SMS_5,153,5,42,127,261013928
17,3,4,T1_SMS_5,154,1,48,27,261512860
17,3,4,T1_SMS_5,155,5,42,127,261514576
17,3,4,T1_SMS_5,156,1,48,24,261990476
17,3,4,T1_SMS_5,157,5,42,127,262014476
17,3,4,T1_SMS_5,158,1,48,27,262477748
17,3,4,T1_SMS_5,159,5,42,127,262514004
17,3,4,T1_SMS_5,160,1,48,30,262987360
17,3,4,T1_SMS_5,161,5,42,127,263013680
17,3,4,T1_SMS_5,162,1,48,29,263490628
17,3,4,T1_SMS_5,163,5,42,127,263513508
17,3,4,T1_SMS_5,164,1,48,27,264006132
17,3,4,T1_SMS_5,165,5,42,127,264014452
17,3,4,T1_SMS_5,166,1,48,27,264506408
17,3,4,T1_SMS_5,167,5,42,127,264513760
17,3,4,T1_SMS_5,168,5,42,127,265013516
17,3,4,T1_SMS_5,169,1,48,21,265021260
17,3,4,T1_SMS_5,170,1,48,29,265499460
17,3,4,T1_SMS_5,171,5,42,127,265514204
17,3,4,T1_SMS_5,172,1,48,28,265990100
17,3,4,T1_SMS_5,173,5,42,127,266014104
17,3,4,T1_SMS_5,174,1,48,31,266479100
17,3,4,T1_SMS_5,175,5,42,127,266513708
17,3,4,T1_SMS_5,176,1,48,38,267000884
17,3,4,T1_SMS_5,177,5,42,127,267013532
17,3,4,T1_SMS_5,178,1,48,29,267505480
17,3,4,T1_SMS_5,179,5,42,127,267514328
17,3,4,T1_SMS_5,180,1,48,35,267979248
17,3,4,T1_SMS_5,181,5,42,127,268014004
17,3,4,T1_SMS_5,182,1,48,45,268493864
17,3,4,T1_SMS_5,183,5,42,127,268513684
17,3,4,T1_SMS_5,184,5,42,127,269014484
17,3,4,T1_SMS_5,185,1,48,41,269015972
17,3,4,T1_SMS_5,186,1,48,34,269491844
17,3,4,T1_SMS_5,187,5,42,127,269514204
17,3,4,T1_SMS_5,188,1,48,18,269571740
17,3,4,T1_SMS_5,189,1,48,38,270007708
17,3,4,T1_SMS_5,190,5,42,127,270014084
17,3,4,T1_SMS_5,191,1,48,37,270482592
17,3,4,T1_SMS_5,192,5,42,127,270513612
17,3,4,T1_SMS_5,193,1,48,32,270992424
17,3,4,T1_SMS_5,194,5,42,127,271014332
17,3,4,T1_SMS_5,195,1,48,28,271490828
17,3,4,T1_SMS_5,196,5,42,127,271513864
17,3,4,T1_SMS_5,197,1,48,37,271998052
17,3,4,T1_SMS_5,198,5,42,127,272013764
17,3,4,T1_SMS_5,199,1,48,32,272499516
17,3,4,T1_SMS_5,200,5,42,127,272514484
17,3,4,T1_SMS_5,201,1,48,34,272990904
17,3,4,T1_SMS_5,202,5,42,127,273014088
17,3,4,T1_SMS_5,203,1,48,22,273052132
17,3,4,T1_SMS_5,204,1,48,38,273476820
17,3,4,T1_SMS_5,205,5,42,127,273513964
17,3,4,T1_SMS_5,206,1,48,24,273538940
17,3,4,T1_SMS_5,207,1,48,32,273992904
17,3,4,T1_SMS_5,208,5,42,127,274013472
17,3,4,T1_SMS_5,209,5,42,127,274514348
17,3,4,T1_SMS_5,210,1,48,41,274532320
17,3,4,T1_SMS_5,211,1,48,25,274592264
17,3,4,T1_SMS_5,212,5,42,127,275013928
17,3,4,T1_SMS_5,213,1,48,41,275039220
17,3,4,T1_SMS_5,214,5,42,127,275513756
17,3,4,T1_SMS_5,215,1,48,37,275517312
17,3,4,T1_SMS_5,216,1,48,26,275568148
17,3,4,T1_SMS_5,217,1,48,45,276010952
17,3,4,T1_SMS_5,218,5,42,127,276013748
17,3,4,T1_SMS_5,219,1,48,32,276073480
17,3,4,T1_SMS_5,220,1,48,39,276496496
17,3,4,T1_SMS_5,221,5,42,127,276514076
17,3,4,T1_SMS_5,222,1,48,24,276555284
17,3,4,T1_SMS_5,223,1,48,39,276999812
17,3,4,T1_SMS_5,224,5,42,127,277013808
17,3,4,T1_SMS_5,225,1,48,27,277059724
17,3,4,T1_SMS_5,226,1,48,43,277506408
17,3,4,T1_SMS_5,227,5,42,127,277513760
17,3,4,T1_SMS_5,228,1,48,28,277572216
17,3,4,T1_SMS_5,229,5,42,127,278014168
17,3,4,T1_SMS_5,230,1,48,40,278015132
17,3,4,T1_SMS_5,231,1,48,25,278078672
17,3,4,T1_SMS_5,232,5,42,127,278514048
17,3,4,T1_SMS_5,233,1,48,47,278534336
17,3,4,T1_SMS_5,234,5,42,127,279013724
17,3,4,T1_SMS_5,235,1,48,38,279049020
17,3,4,T1_SMS_5,236,5,42,127,279513696
17,3,4,T1_SMS_5,237,1,48,39,279527792
17,3,4,T1_SMS_5,238,1,48,34,280004520
17,3,4,T1_SMS_5,239,5,42,127,280014040
17,3,4,T1_SMS_5,240,1,48,38,280485824
17,3,4,T1_SMS_5,241,5,42,127,280513864
17,3,4,T1_SMS_5,242,1,48,38,281012568
17,3,4,T1_SMS_5,243,5,42,127,281014440
17,3,4,T1_SMS_5,244,5,42,127,281514568
17,3,4,T1_SMS_5,245,1,48,35,281515532
17,3,4,T1_SMS_5,246,1,48,24,281569036
17,3,4,T1_SMS_5,247,1,48,31,281985288
17,3,4,T1_SMS_5,248,5,42,127,282014144
17,3,4,T1_SMS_5,249,1,48,41,282512396
17,3,4,T1_SMS_5,250,5,42,127,282514340
17,3,4,T1_SMS_5,251,1,48,26,282568368
17,3,4,T1_SMS_5,252,1,48,31,283005896
17,3,4,T1_SMS_5,253,5,42,127,283013476
17,3,4,T1_SMS_5,254,1,48,27,283503260
17,3,4,T1_SMS_5,255,5,42,127,283514196
17,3,4,T1_SMS_5,256,1,48,39,284009808
17,3,4,T1_SMS_5,257,5,42,127,284014020
17,3,4,T1_SMS_5,258,1,48,25,284066700
17,3,4,T1_SMS_5,259,1,48,35,284509540
17,3,4,T1_SMS_5,260,5,42,127,284513676
17,3,4,T1_SMS_5,261,5,42,127,285014404
17,3,4,T1_SMS_5,262,1,48,32,285026928
17,3,4,T1_SMS_5,263,1,48,30,285490272
17,3,4,T1_SMS_5,264,5,42,127,285514224
17,3,4,T1_SMS_5,265,5,42,127,286013684
17,3,4,T1_SMS_5,266,1,48,39,286032180
17,3,4,T1_SMS_5,267,1,48,25,286089732
17,3,4,T1_SMS_5,268,1,48,28,286479376
17,3,4,T1_SMS_5,269,5,42,127,286513604
17,3,4,T1_SMS_5,270,1,48,32,286997644
17,3,4,T1_SMS_5,271,5,42,127,287014176
17,3,4,T1_SMS_5,272,1,48,32,287495824
17,3,4,T1_SMS_5,0,9999,9999,9999,222511216
17,3,4,T1_SMS_5,1,9999,9999,9999,223011960
17,3,4,T1_SMS_5,2,9999,9999,9999,223511636
17,3,4,T1_SMS_5,3,9999,9999,9999,224011312
17,3,4,T1_SMS_5,4,9999,9999,9999,224512052
17,3,4,T1_SMS_5,5,9999,9999,9999,225011800
17,3,4,T1_SMS_5,6,9999,9999,9999,225511476
17,3,4,T1_SMS_5,7,9999,9999,9999,226011228
17,3,4,T1_SMS_5,8,9999,9999,9999,226511948
17,3,4,T1_SMS_5,9,9999,9999,9999,227011700
17,3,4,T1_SMS_5,10,9999,9999,9999,227511376
17,3,4,T1_SMS_5,11,9999,9999,9999,228011060
17,3,4,T1_SMS_5,12,9999,9999,9999,228511848
17,3,4,T1_SMS_5,13,9999,9999,9999,229011528
17,3,4,T1_SMS_5,14,9999,9999,9999,229511276
17,3,4,T1_SMS_5,15,9999,9999,9999,230012000
17,3,4,T1_SMS_5,16,9999,9999,9999,230511676
17,3,4,T1_SMS_5,17,9999,9999,9999,231011428
17,3,4,T1_SMS_5,18,9999,9999,9999,231511148
17,3,4,T1_SMS_5,19,9999,9999,9999,232011824
17,3,4,T1_SMS_5,20,9999,9999,9999,232511576
17,3,4,T1_SMS_5,21,9999,9999,9999,233011300
17,3,4,T1_SMS_5,22,9999,9999,9999,233512020
17,3,4,T1_SMS_5,23,9999,9999,9999,234011704
17,3,4,T1_SMS_5,24,9999,9999,9999,234511448
17,3,4,T1_SMS_5,25,9999,9999,9999,235011124
17,3,4,T1_SMS_5,26,9999,9999,9999,235511928
17,3,4,T1_SMS_5,27,9999,9999,9999,236011604
17,3,4,T1_SMS_5,28,9999,9999,9999,236511348
17,3,4,T1_SMS_5,29,9999,9999,9999,237012072
17,3,4,T1_SMS_5,30,9999,9999,9999,237511744
17,3,4,T1_SMS_5,31,9999,9999,9999,238011504
17,3,4,T1_SMS_5,32,9999,9999,9999,238511176
17,3,4,T1_SMS_5,33,9999,9999,9999,239011896
17,3,4,T1_SMS_5,34,9999,9999,9999,239511644
17,3,4,T1_SMS_5,35,9999,9999,9999,240011328
17,3,4,T1_SMS_5,36,9999,9999,9999,240512116
17,3,4,T1_SMS_5,37,9999,9999,9999,241011792
17,3,4,T1_SMS_5,38,9999,9999,9999,241511476
17,3,4,T1_SMS_5,39,9999,9999,9999,242011228
17,3,4,T1_SMS_5,40,9999,9999,9999,242511944
17,3,4,T1_SMS_5,41,9999,9999,9999,243011696
17,3,4,T1_SMS_5,42,9999,9999,9999,243511372
17,3,4,T1_SMS_5,43,9999,9999,9999,244011104
17,3,4,T1_SMS_5,44,9999,9999,9999,244511824
17,3,4,T1_SMS_5,45,9999,9999,9999,245011568
17,3,4,T1_SMS_5,46,9999,9999,9999,245511252
17,3,4,T1_SMS_5,47,9999,9999,9999,246011972
17,3,4,T1_SMS_5,48,9999,9999,9999,246511724
17,3,4,T1_SMS_5,49,9999,9999,9999,247011392
17,3,4,T1_SMS_5,50,9999,9999,9999,247511144
17,3,4,T1_SMS_5,51,9999,9999,9999,248011872
17,3,4,T1_SMS_5,52,9999,9999,9999,248511544
17,3,4,T1_SMS_5,53,9999,9999,9999,249011300
17,3,4,T1_SMS_5,54,9999,9999,9999,249512012
17,3,4,T1_SMS_5,55,9999,9999,9999,250011764
17,3,4,T1_SMS_5,56,9999,9999,9999,250511440
17,3,4,T1_SMS_5,57,9999,9999,9999,251011192
17,3,4,T1_SMS_5,58,9999,9999,9999,251511912
17,3,4,T1_SMS_5,59,9999,9999,9999,252011592
17,3,4,T1_SMS_5,60,9999,9999,9999,252511340
17,3,4,T1_SMS_5,61,9999,9999,9999,253012064
17,3,4,T1_SMS_5,62,9999,9999,9999,253511744
17,3,4,T1_SMS_5,63,9999,9999,9999,254011492
17,3,4,T1_SMS_5,64,9999,9999,9999,254511220
17,3,4,T1_SMS_5,65,9999,9999,9999,255011944
17,3,4,T1_SMS_5,66,9999,9999,9999,255511620
17,3,4,T1_SMS_5,67,9999,9999,9999,256011364
17,3,4,T1_SMS_5,68,9999,9999,9999,256512088
17,3,4,T1_SMS_5,69,9999,9999,9999,257011768
17,3,4,T1_SMS_5,70,9999,9999,9999,257511520
17,3,4,T1_SMS_5,71,9999,9999,9999,258011196
17,3,4,T1_SMS_5,72,9999,9999,9999,258511920
17,3,4,T1_SMS_5,73,9999,9999,9999,259011672
17,3,4,T1_SMS_5,74,9999,9999,9999,259511348
17,3,4,T1_SMS_5,75,9999,9999,9999,260011100
17,3,4,T1_SMS_5,76,9999,9999,9999,260511820
17,3,4,T1_SMS_5,77,9999,9999,9999,261011572
17,3,4,T1_SMS_5,78,9999,9999,9999,261511256
17,3,4,T1_SMS_5,79,9999,9999,9999,262011972
17,3,4,T1_SMS_5,80,9999,9999,9999,262511720
17,3,4,T1_SMS_5,81,9999,9999,9999,263011396
17,3,4,T1_SMS_5,82,9999,9999,9999,263511152
17,3,4,T1_SMS_5,83,9999,9999,9999,264011872
17,3,4,T1_SMS_5,84,9999,9999,9999,264511552
17,3,4,T1_SMS_5,85,9999,9999,9999,265011284
17,3,4,T1_SMS_5,86,9999,9999,9999,265511996
17,3,4,T1_SMS_5,87,9999,9999,9999,266011748
17,3,4,T1_SMS_5,88,9999,9999,9999,266511424
17,3,4,T1_SMS_5,89,9999,9999,9999,267011176
17,3,4,T1_SMS_5,90,9999,9999,9999,267511896
17,3,4,T1_SMS_5,91,9999,9999,9999,268011572
17,3,4,T1_SMS_5,92,9999,9999,9999,268511324
17,3,4,T1_SMS_5,93,9999,9999,9999,269012052
17,3,4,T1_SMS_5,94,9999,9999,9999,269511776
17,3,4,T1_SMS_5,95,9999,9999,9999,270011504
17,3,4,T1_SMS_5,96,9999,9999,9999,270511184
17,3,4,T1_SMS_5,97,9999,9999,9999,271011904
17,3,4,T1_SMS_5,98,9999,9999,9999,271511656
17,3,4,T1_SMS_5,99,9999,9999,9999,272011332
17,3,4,T1_SMS_5,100,9999,9999,9999,272512052
17,3,4,T1_SMS_5,101,9999,9999,9999,273011804
17,3,4,T1_SMS_5,102,9999,9999,9999,273511532
17,3,4,T1_SMS_5,103,9999,9999,9999,274011188
17,3,4,T1_SMS_5,104,9999,9999,9999,274511992
17,3,4,T1_SMS_5,105,9999,9999,9999,275011644
17,3,4,T1_SMS_5,106,9999,9999,9999,275511396
17,3,4,T1_SMS_5,107,9999,9999,9999,276011096
17,3,4,T1_SMS_5,108,9999,9999,9999,276511796
17,3,4,T1_SMS_5,109,9999,9999,9999,277011528
17,3,4,T1_SMS_5,110,9999,9999,9999,277511256
17,3,4,T1_SMS_5,111,9999,9999,9999,278011960
17,3,4,T1_SMS_5,112,9999,9999,9999,278511692
17,3,4,T1_SMS_5,113,9999,9999,9999,279011440
17,3,4,T1_SMS_5,114,9999,9999,9999,279511116
17,3,4,T1_SMS_5,115,9999,9999,9999,280011832
17,3,4,T1_SMS_5,116,9999,9999,9999,280511584
17,3,4,T1_SMS_5,117,9999,9999,9999,281011268
17,3,4,T1_SMS_5,118,9999,9999,9999,281511988
17,3,4,T1_SMS_5,119,9999,9999,9999,282011712
17,3,4,T1_SMS_5,120,9999,9999,9999,282511472
17,3,4,T1_SMS_5,121,9999,9999,9999,283011192
17,3,4,T1_SMS_5,122,9999,9999,9999,283511916
17,3,4,T1_SMS_5,123,9999,9999,9999,284011592
17,3,4,T1_SMS_5,124,9999,9999,9999,284511320
17,3,4,T1_SMS_5,125,9999,9999,9999,285012048
17,3,4,T1_SMS_5,126,9999,9999,9999,285511792
17,3,4,T1_SMS_5,127,9999,9999,9999,286011476
17,3,4,T1_SMS_5,128,9999,9999,9999,286511172
17,3,4,T1_SMS_5,129,9999,9999,9999,287011896
17,4,2,T1_SMS_8,0,5,42,127,320060700
17,4,2,T1_SMS_8,1,5,42,127,320860676
17,4,2,T1_SMS_8,2,5,42,127,321661552
17,4,2,T1_SMS_8,3,1,48,26,321671388
17,4,2,T1_SMS_8,4,1,48,26,322401360
17,4,2,T1_SMS_8,5,5,42,127,322460904
17,4,2,T1_SMS_8,6,1,48,23,323174432
17,4,2,T1_SMS_8,7,5,42,127,323260712
17,4,2,T1_SMS_8,8,1,48,24,323993656
17,4,2,T1_SMS_8,9,5,42,127,324060444
17,4,2,T1_SMS_8,10,1,48,24,324746716
17,4,2,T1_SMS_8,11,5,42,127,324861504
17,4,2,T1_SMS_8,12,1,48,25,325550408
17,4,2,T1_SMS_8,13,5,42,127,325661164
17,4,2,T1_SMS_8,14,1,48,18,326327208
17,4,2,T1_SMS_8,15,5,42,127,326460848
17,4,2,T1_SMS_8,16,1,48,26,327126200
17,4,2,T1_SMS_8,17,5,42,127,327260432
17,4,2,T1_SMS_8,18,1,48,20,327937584
17,4,2,T1_SMS_8,19,5,42,127,328061432
17,4,2,T1_SMS_8,20,1,48,24,328764448
17,4,2,T1_SMS_8,21,5,42,127,328861164
17,4,2,T1_SMS_8,22,1,48,28,329518232
17,4,2,T1_SMS_8,23,5,42,127,329660748
17,4,2,T1_SMS_8,24,1,48,25,330317388
17,4,2,T1_SMS_8,25,5,42,127,330460480
17,4,2,T1_SMS_8,26,1,48,18,331143188
17,4,2,T1_SMS_8,27,5,42,127,331261184
17,4,2,T1_SMS_8,28,1,48,23,331934852
17,4,2,T1_SMS_8,29,5,42,127,332061292
17,4,2,T1_SMS_8,30,1,48,23,332720252
17,4,2,T1_SMS_8,31,5,42,127,332860900
17,4,2,T1_SMS_8,32,1,48,22,333492128
17,4,2,T1_SMS_8,33,5,42,127,333660632
17,4,2,T1_SMS_8,34,1,48,28,334284320
17,4,2,T1_SMS_8,35,1,48,21,334339484
17,4,2,T1_SMS_8,36,5,42,127,334461164
17,4,2,T1_SMS_8,37,1,48,24,335095980
17,4,2,T1_SMS_8,38,5,42,127,335261048
17,4,2,T1_SMS_8,39,1,48,17,335888772
17,4,2,T1_SMS_8,40,5,42,127,336060784
17,4,2,T1_SMS_8,41,1,48,26,336671476
17,4,2,T1_SMS_8,42,5,42,127,336860736
17,4,2,T1_SMS_8,43,1,48,21,337482060
17,4,2,T1_SMS_8,44,5,42,127,337661292
17,4,2,T1_SMS_8,45,1,48,20,338270448
17,4,2,T1_SMS_8,46,5,42,127,338461028
17,4,2,T1_SMS_8,47,1,48,20,339042100
17,4,2,T1_SMS_8,48,5,42,127,339260712
17,4,2,T1_SMS_8,49,1,48,19,339848704
17,4,2,T1_SMS_8,50,5,42,127,340060592
17,4,2,T1_SMS_8,51,1,48,16,340637012
17,4,2,T1_SMS_8,52,5,42,127,340861148
17,4,2,T1_SMS_8,53,1,48,21,341380064
17,4,2,T1_SMS_8,54,5,42,127,341660956
17,4,2,T1_SMS_8,55,1,48,21,342234908
17,4,2,T1_SMS_8,56,5,42,127,342460688
17,4,2,T1_SMS_8,57,1,48,18,342975424
17,4,2,T1_SMS_8,58,5,42,127,343260496
17,4,2,T1_SMS_8,59,1,48,18,343851032
17,4,2,T1_SMS_8,60,5,42,127,344061496
17,4,2,T1_SMS_8,61,1,48,16,344681996
17,4,2,T1_SMS_8,62,5,42,127,344860932
17,4,2,T1_SMS_8,63,1,48,19,345436996
17,4,2,T1_SMS_8,64,5,42,127,345660764
17,4,2,T1_SMS_8,65,1,48,20,346214408
17,4,2,T1_SMS_8,66,5,42,127,346460568
17,4,2,T1_SMS_8,67,1,48,18,347034524
17,4,2,T1_SMS_8,68,5,42,127,347261272
17,4,2,T1_SMS_8,69,1,48,19,347854868
17,4,2,T1_SMS_8,70,5,42,127,348060908
17,4,2,T1_SMS_8,71,1,48,19,348581768
17,4,2,T1_SMS_8,72,5,42,127,348860712
17,4,2,T1_SMS_8,73,1,48,21,349464612
17,4,2,T1_SMS_8,74,5,42,127,349660448
17,4,2,T1_SMS_8,75,1,48,20,350225812
17,4,2,T1_SMS_8,76,5,42,127,350461296
17,4,2,T1_SMS_8,77,5,42,127,351261124
17,4,2,T1_SMS_8,78,1,48,17,351912392
17,4,2,T1_SMS_8,79,5,42,127,352060660
17,4,2,T1_SMS_8,80,1,48,18,352735572
17,4,2,T1_SMS_8,81,5,42,127,352860544
17,4,2,T1_SMS_8,82,1,48,22,353497068
17,4,2,T1_SMS_8,83,5,42,127,353661396
17,4,2,T1_SMS_8,84,1,48,18,354275972
17,4,2,T1_SMS_8,85,5,42,127,354460980
17,4,2,T1_SMS_8,86,1,48,21,355052260
17,4,2,T1_SMS_8,87,5,42,127,355260936
17,4,2,T1_SMS_8,88,1,48,20,355828472
17,4,2,T1_SMS_8,89,5,42,127,356060448
17,4,2,T1_SMS_8,90,1,48,18,356684676
17,4,2,T1_SMS_8,91,5,42,127,356861224
17,4,2,T1_SMS_8,92,1,48,15,357488220
17,4,2,T1_SMS_8,93,5,42,127,357661032
17,4,2,T1_SMS_8,94,1,48,19,358266296
17,4,2,T1_SMS_8,95,5,42,127,358460860
17,4,2,T1_SMS_8,96,1,48,21,359070888
17,4,2,T1_SMS_8,97,5,42,127,359260672
17,4,2,T1_SMS_8,98,1,48,21,359906612
17,4,2,T1_SMS_8,99,5,42,127,360061228
17,4,2,T1_SMS_8,100,1,48,22,360661616
17,4,2,T1_SMS_8,101,5,42,127,360860884
17,4,2,T1_SMS_8,102,1,48,20,361489576
17,4,2,T1_SMS_8,103,5,42,127,361660768
17,4,2,T1_SMS_8,104,1,48,17,362229272
17,4,2,T1_SMS_8,105,5,42,127,362460796
17,4,2,T1_SMS_8,106,1,48,20,363126252
17,4,2,T1_SMS_8,107,5,42,127,363261500
17,4,2,T1_SMS_8,108,1,48,17,363954656
17,4,2,T1_SMS_8,109,5,42,127,364061084
17,4,2,T1_SMS_8,110,1,48,23,364803304
17,4,2,T1_SMS_8,111,5,42,127,364860708
17,4,2,T1_SMS_8,112,1,48,23,365559500
17,4,2,T1_SMS_8,113,5,42,127,365660652
17,4,2,T1_SMS_8,114,1,48,24,366377972
17,4,2,T1_SMS_8,115,5,42,127,366461296
17,4,2,T1_SMS_8,116,1,48,30,367223284
17,4,2,T1_SMS_8,117,5,42,127,367260952
17,4,2,T1_SMS_8,118,1,48,29,367963948
17,4,2,T1_SMS_8,119,1,48,21,368021204
17,4,2,T1_SMS_8,120,5,42,127,368060812
17,4,2,T1_SMS_8,121,1,48,26,368775084
17,4,2,T1_SMS_8,122,5,42,127,368860548
17,4,2,T1_SMS_8,123,1,48,26,369584004
17,4,2,T1_SMS_8,124,5,42,127,369661176
17,4,2,T1_SMS_8,125,1,48,20,370354912
17,4,2,T1_SMS_8,126,5,42,127,370461188
17,4,2,T1_SMS_8,127,1,48,27,371138144
17,4,2,T1_SMS_8,128,5,42,127,371260652
17,4,2,T1_SMS_8,129,1,48,23,371999784
17,4,2,T1_SMS_8,130,5,42,127,372060472
17,4,2,T1_SMS_8,131,1,48,23,372822312
17,4,2,T1_SMS_8,132,5,42,127,372861252
17,4,2,T1_SMS_8,133,1,48,27,373593372
17,4,2,T1_SMS_8,134,1,48,20,373650628
17,4,2,T1_SMS_8,135,5,42,127,373661260
17,4,2,T1_SMS_8,136,1,48,29,374386584
17,4,2,T1_SMS_8,137,5,42,127,374460772
17,4,2,T1_SMS_8,138,1,48,19,374462692
17,4,2,T1_SMS_8,139,1,48,33,375259056
17,4,2,T1_SMS_8,140,5,42,127,375260856
17,4,2,T1_SMS_8,141,1,48,21,375333548
17,4,2,T1_SMS_8,142,5,42,127,376061248
17,4,2,T1_SMS_8,143,1,48,24,376062212
17,4,2,T1_SMS_8,144,5,42,127,376860980
17,4,2,T1_SMS_8,145,1,48,24,376865732
17,4,2,T1_SMS_8,146,1,48,19,376923084
17,4,2,T1_SMS_8,147,1,48,27,377579260
17,4,2,T1_SMS_8,148,1,48,20,377637108
17,4,2,T1_SMS_8,149,5,42,127,377660988
17,4,2,T1_SMS_8,150,1,48,27,378354548
17,4,2,T1_SMS_8,151,1,48,19,378417508
17,4,2,T1_SMS_8,152,5,42,127,378460548
17,4,2,T1_SMS_8,153,1,48,29,379166812
17,4,2,T1_SMS_8,154,1,48,20,379229908
17,4,2,T1_SMS_8,155,5,42,127,379261232
17,4,2,T1_SMS_8,156,1,48,21,379964004
17,4,2,T1_SMS_8,157,5,42,127,380060952
17,4,2,T1_SMS_8,158,1,48,22,380776880
17,4,2,T1_SMS_8,159,5,42,127,380860924
17,4,2,T1_SMS_8,160,1,48,30,381615444
17,4,2,T1_SMS_8,161,5,42,127,381660656
17,4,2,T1_SMS_8,162,1,48,27,382397180
17,4,2,T1_SMS_8,163,5,42,127,382461136
17,4,2,T1_SMS_8,164,1,48,26,383228280
17,4,2,T1_SMS_8,165,5,42,127,383260944
17,4,2,T1_SMS_8,166,1,48,27,384019724
17,4,2,T1_SMS_8,167,5,42,127,384060704
17,4,2,T1_SMS_8,168,1,48,20,384083512
17,4,2,T1_SMS_8,169,5,42,127,384860568
17,4,2,T1_SMS_8,170,1,48,24,384908636
17,4,2,T1_SMS_8,171,1,48,24,385648912
17,4,2,T1_SMS_8,172,5,42,127,385661712
17,4,2,T1_SMS_8,173,1,48,19,385708644
17,4,2,T1_SMS_8,174,1,48,25,386448400
17,4,2,T1_SMS_8,175,5,42,127,386460976
17,4,2,T1_SMS_8,176,1,48,19,386507012
17,4,2,T1_SMS_8,177,1,48,28,387212864
17,4,2,T1_SMS_8,178,5,42,127,387260836
17,4,2,T1_SMS_8,179,1,48,20,387277744
17,4,2,T1_SMS_8,180,1,48,23,387941788
17,4,2,T1_SMS_8,181,1,48,19,387993212
17,4,2,T1_SMS_8,182,5,42,127,388060528
17,4,2,T1_SMS_8,183,1,48,18,388742544
17,4,2,T1_SMS_8,184,5,42,127,388861440
17,4,2,T1_SMS_8,185,1,48,23,389513972
17,4,2,T1_SMS_8,186,1,48,19,389568840
17,4,2,T1_SMS_8,187,5,42,127,389661596
17,4,2,T1_SMS_8,188,1,48,22,390341916
17,4,2,T1_SMS_8,189,5,42,127,390460688
17,4,2,T1_SMS_8,190,1,48,21,391129180
17,4,2,T1_SMS_8,191,5,42,127,391260572
17,4,2,T1_SMS_8,192,1,48,20,391955720
17,4,2,T1_SMS_8,193,5,42,127,392061348
17,4,2,T1_SMS_8,194,1,48,22,392739548
17,4,2,T1_SMS_8,195,5,42,127,392861008
17,4,2,T1_SMS_8,196,1,48,23,393544232
17,4,2,T1_SMS_8,197,5,42,127,393660668
17,4,2,T1_SMS_8,198,1,48,21,394388848
17,4,2,T1_SMS_8,199,5,42,127,394460492
17,4,2,T1_SMS_8,200,1,48,28,395195748
17,4,2,T1_SMS_8,201,1,48,19,395255388
17,4,2,T1_SMS_8,202,5,42,127,395261248
17,4,2,T1_SMS_8,203,1,48,26,395970072
17,4,2,T1_SMS_8,204,5,42,127,396061128
17,4,2,T1_SMS_8,205,1,48,24,396778916
17,4,2,T1_SMS_8,206,5,42,127,396860884
17,4,2,T1_SMS_8,207,1,48,23,397593352
17,4,2,T1_SMS_8,208,5,42,127,397660396
17,4,2,T1_SMS_8,209,1,48,25,398373448
17,4,2,T1_SMS_8,210,1,48,21,398425200
17,4,2,T1_SMS_8,211,5,42,127,398461224
17,4,2,T1_SMS_8,212,1,48,29,399185204
17,4,2,T1_SMS_8,213,5,42,127,399260956
17,4,2,T1_SMS_8,214,1,48,24,399946932
17,4,2,T1_SMS_8,215,1,48,19,400002392
17,4,2,T1_SMS_8,216,5,42,127,400060744
17,4,2,T1_SMS_8,217,1,48,29,400804888
17,4,2,T1_SMS_8,218,5,42,127,400860476
17,4,2,T1_SMS_8,219,1,48,21,400869996
17,4,2,T1_SMS_8,220,1,48,25,401640068
17,4,2,T1_SMS_8,221,5,42,127,401661232
17,4,2,T1_SMS_8,222,1,48,21,402432260
17,4,2,T1_SMS_8,223,5,42,127,402461040
17,4,2,T1_SMS_8,224,1,48,18,402486188
17,4,2,T1_SMS_8,225,1,48,27,403217932
17,4,2,T1_SMS_8,226,5,42,127,403260704
17,4,2,T1_SMS_8,227,1,48,19,403285676
17,4,2,T1_SMS_8,228,1,48,28,404009528
17,4,2,T1_SMS_8,229,5,42,127,404060712
17,4,2,T1_SMS_8,230,1,48,21,404077628
17,4,2,T1_SMS_8,231,1,48,25,404801100
17,4,2,T1_SMS_8,232,5,42,127,404861172
17,4,2,T1_SMS_8,233,1,48,18,404865092
17,4,2,T1_SMS_8,234,1,48,26,405640244
17,4,2,T1_SMS_8,235,5,42,127,405661032
17,4,2,T1_SMS_8,236,1,48,20,405702664
17,4,2,T1_SMS_8,237,5,42,127,406460824
17,4,2,T1_SMS_8,238,1,48,26,406497316
17,4,2,T1_SMS_8,239,1,48,19,406557552
17,4,2,T1_SMS_8,240,1,48,26,407259024
17,4,2,T1_SMS_8,241,5,42,127,407260900
17,4,2,T1_SMS_8,242,1,48,19,407318064
17,4,2,T1_SMS_8,243,1,48,23,408060768
17,4,2,T1_SMS_8,244,5,42,127,408062552
17,4,2,T1_SMS_8,245,5,42,127,408861396
17,4,2,T1_SMS_8,246,1,48,31,408905676
17,4,2,T1_SMS_8,247,1,48,20,408972940
17,4,2,T1_SMS_8,248,5,42,127,409660764
17,4,2,T1_SMS_8,249,1,48,27,409704196
17,4,2,T1_SMS_8,250,1,48,20,409762568
17,4,2,T1_SMS_8,251,5,42,127,410460476
17,4,2,T1_SMS_8,252,1,48,23,410465308
17,4,2,T1_SMS_8,253,1,48,32,411227612
17,4,2,T1_SMS_8,254,5,42,127,411261248
17,4,2,T1_SMS_8,255,1,48,23,411295480
17,4,2,T1_SMS_8,256,1,48,28,412012688
17,4,2,T1_SMS_8,257,5,42,127,412061180
17,4,2,T1_SMS_8,258,1,48,20,412081236
17,4,2,T1_SMS_8,259,1,48,32,412805156
17,4,2,T1_SMS_8,260,5,42,127,412860744
17,4,2,T1_SMS_8,261,1,48,21,412878552
17,4,2,T1_SMS_8,262,1,48,39,413601956
17,4,2,T1_SMS_8,263,5,42,127,413660456
17,4,2,T1_SMS_8,264,1,48,19,413689168
17,4,2,T1_SMS_8,265,1,48,43,414436684
17,4,2,T1_SMS_8,266,5,42,127,414461212
17,4,2,T1_SMS_8,267,1,48,26,414527208
17,4,2,T1_SMS_8,268,5,42,127,415261156
17,4,2,T1_SMS_8,269,1,48,33,415283184
17,4,2,T1_SMS_8,270,1,48,21,415358804
17,4,2,T1_SMS_8,0,9999,9999,9999,320058416
17,4,2,T1_SMS_8,1,9999,9999,9999,320858168
17,4,2,T1_SMS_8,2,9999,9999,9999,321658968
17,4,2,T1_SMS_8,3,9999,9999,9999,322458696
17,4,2,T1_SMS_8,4,9999,9999,9999,323258428
17,4,2,T1_SMS_8,5,9999,9999,9999,324058160
17,4,2,T1_SMS_8,6,9999,9999,9999,324858996
17,4,2,T1_SMS_8,7,9999,9999,9999,325658732
17,4,2,T1_SMS_8,8,9999,9999,9999,326458488
17,4,2,T1_SMS_8,9,9999,9999,9999,327258220
17,4,2,T1_SMS_8,10,9999,9999,9999,328059000
17,4,2,T1_SMS_8,11,9999,9999,9999,328858732
17,4,2,T1_SMS_8,12,9999,9999,9999,329658464
17,4,2,T1_SMS_8,13,9999,9999,9999,330458196
17,4,2,T1_SMS_8,14,9999,9999,9999,331258976
17,4,2,T1_SMS_8,15,9999,9999,9999,332058708
17,4,2,T1_SMS_8,16,9999,9999,9999,332858468
17,4,2,T1_SMS_8,17,9999,9999,9999,333658200
17,4,2,T1_SMS_8,18,9999,9999,9999,334458956
17,4,2,T1_SMS_8,19,9999,9999,9999,335258688
17,4,2,T1_SMS_8,20,9999,9999,9999,336058424
17,4,2,T1_SMS_8,21,9999,9999,9999,336858228
17,4,2,T1_SMS_8,22,9999,9999,9999,337658932
17,4,2,T1_SMS_8,23,9999,9999,9999,338458744
17,4,2,T1_SMS_8,24,9999,9999,9999,339258428
17,4,2,T1_SMS_8,25,9999,9999,9999,340058160
17,4,2,T1_SMS_8,26,9999,9999,9999,340858936
17,4,2,T1_SMS_8,27,9999,9999,9999,341658672
17,4,2,T1_SMS_8,28,9999,9999,9999,342458476
17,4,2,T1_SMS_8,29,9999,9999,9999,343258212
17,4,2,T1_SMS_8,30,9999,9999,9999,344058988
17,4,2,T1_SMS_8,31,9999,9999,9999,344858720
17,4,2,T1_SMS_8,32,9999,9999,9999,345658480
17,4,2,T1_SMS_8,33,9999,9999,9999,346458212
17,4,2,T1_SMS_8,34,9999,9999,9999,347258988
17,4,2,T1_SMS_8,35,9999,9999,9999,348058696
17,4,2,T1_SMS_8,36,9999,9999,9999,348858428
17,4,2,T1_SMS_8,37,9999,9999,9999,349658160
17,4,2,T1_SMS_8,38,9999,9999,9999,350458936
17,4,2,T1_SMS_8,39,9999,9999,9999,351258692
17,4,2,T1_SMS_8,40,9999,9999,9999,352058452
17,4,2,T1_SMS_8,41,9999,9999,9999,352858184
17,4,2,T1_SMS_8,42,9999,9999,9999,353658964
17,4,2,T1_SMS_8,43,9999,9999,9999,354458696
17,4,2,T1_SMS_8,44,9999,9999,9999,355258428
17,4,2,T1_SMS_8,45,9999,9999,9999,356058160
17,4,2,T1_SMS_8,46,9999,9999,9999,356858940
17,4,2,T1_SMS_8,47,9999,9999,9999,357658672
17,4,2,T1_SMS_8,48,9999,9999,9999,358458428
17,4,2,T1_SMS_8,49,9999,9999,9999,359258164
17,4,2,T1_SMS_8,50,9999,9999,9999,360058944
17,4,2,T1_SMS_8,51,9999,9999,9999,360858676
17,4,2,T1_SMS_8,52,9999,9999,9999,361658484
17,4,2,T1_SMS_8,53,9999,9999,9999,362458216
17,4,2,T1_SMS_8,54,9999,9999,9999,363258992
17,4,2,T1_SMS_8,55,9999,9999,9999,364058724
17,4,2,T1_SMS_8,56,9999,9999,9999,364858424
17,4,2,T1_SMS_8,57,9999,9999,9999,365658196
17,4,2,T1_SMS_8,58,9999,9999,9999,366458936
17,4,2,T1_SMS_8,59,9999,9999,9999,367258668
17,4,2,T1_SMS_8,60,9999,9999,9999,368058456
17,4,2,T1_SMS_8,61,9999,9999,9999,368858188
17,4,2,T1_SMS_8,62,9999,9999,9999,369658968
17,4,2,T1_SMS_8,63,9999,9999,9999,370458684
17,4,2,T1_SMS_8,64,9999,9999,9999,371258440
17,4,2,T1_SMS_8,65,9999,9999,9999,372058188
17,4,2,T1_SMS_8,66,9999,9999,9999,372858968
17,4,2,T1_SMS_8,67,9999,9999,9999,373658680
17,4,2,T1_SMS_8,68,9999,9999,9999,374458488
17,4,2,T1_SMS_8,69,9999,9999,9999,375258208
17,4,2,T1_SMS_8,70,9999,9999,9999,376058964
17,4,2,T1_SMS_8,71,9999,9999,9999,376858696
17,4,2,T1_SMS_8,72,9999,9999,9999,377658480
17,4,2,T1_SMS_8,73,9999,9999,9999,378458192
17,4,2,T1_SMS_8,74,9999,9999,9999,379258948
17,4,2,T1_SMS_8,75,9999,9999,9999,380058684
17,4,2,T1_SMS_8,76,9999,9999,9999,380858416
17,4,2,T1_SMS_8,77,9999,9999,9999,381658224
17,4,2,T1_SMS_8,78,9999,9999,9999,382458924
17,4,2,T1_SMS_8,79,9999,9999,9999,383258732
17,4,2,T1_SMS_8,80,9999,9999,9999,384058420
17,4,2,T1_SMS_8,81,9999,9999,9999,384858208
17,4,2,T1_SMS_8,82,9999,9999,9999,385658980
17,4,2,T1_SMS_8,83,9999,9999,9999,386458692
17,4,2,T1_SMS_8,84,9999,9999,9999,387258480
17,4,2,T1_SMS_8,85,9999,9999,9999,388058168
17,4,2,T1_SMS_8,86,9999,9999,9999,388858932
17,4,2,T1_SMS_8,87,9999,9999,9999,389658732
17,4,2,T1_SMS_8,88,9999,9999,9999,390458476
17,4,2,T1_SMS_8,89,9999,9999,9999,391258212
17,4,2,T1_SMS_8,90,9999,9999,9999,392058992
17,4,2,T1_SMS_8,91,9999,9999,9999,392858724
17,4,2,T1_SMS_8,92,9999,9999,9999,393658460
17,4,2,T1_SMS_8,93,9999,9999,9999,394458208
17,4,2,T1_SMS_8,94,9999,9999,9999,395258964
17,4,2,T1_SMS_8,95,9999,9999,9999,396058696
17,4,2,T1_SMS_8,96,9999,9999,9999,396858452
17,4,2,T1_SMS_8,97,9999,9999,9999,397658184
17,4,2,T1_SMS_8,98,9999,9999,9999,398458940
17,4,2,T1_SMS_8,99,9999,9999,9999,399258672
17,4,2,T1_SMS_8,100,9999,9999,9999,400058460
17,4,2,T1_SMS_8,101,9999,9999,9999,400858192
17,4,2,T1_SMS_8,102,9999,9999,9999,401658948
17,4,2,T1_SMS_8,103,9999,9999,9999,402458680
17,4,2,T1_SMS_8,104,9999,9999,9999,403258420
17,4,2,T1_SMS_8,105,9999,9999,9999,404058204
17,4,2,T1_SMS_8,106,9999,9999,9999,404858960
17,4,2,T1_SMS_8,107,9999,9999,9999,405658672
17,4,2,T1_SMS_8,108,9999,9999,9999,406458464
17,4,2,T1_SMS_8,109,9999,9999,9999,407258176
17,4,2,T1_SMS_8,110,9999,9999,9999,408058932
17,4,2,T1_SMS_8,111,9999,9999,9999,408858740
17,4,2,T1_SMS_8,112,9999,9999,9999,409658480
17,4,2,T1_SMS_8,113,9999,9999,9999,410458188
17,4,2,T1_SMS_8,114,9999,9999,9999,411258964
17,4,2,T1_SMS_8,115,9999,9999,9999,412058676
17,4,2,T1_SMS_8,116,9999,9999,9999,412858460
17,4,2,T1_SMS_8,117,9999,9999,9999,413658172
17,4,2,T1_SMS_8,118,9999,9999,9999,414458928
17,4,2,T1_SMS_8,119,9999,9999,9999,415258720
17,5,21,Ticks_Linear_5,0,5,42,127,437842200
17,5,21,Ticks_Linear_5,1,5,42,127,438321420
17,5,21,Ticks_Linear_5,2,5,42,127,438801884
17,5,21,Ticks_Linear_5,3,5,42,127,439282148
17,5,21,Ticks_Linear_5,4,5,42,127,439762192
17,5,21,Ticks_Linear_5,5,1,48,34,439795432
17,5,21,Ticks_Linear_5,6,1,48,36,440227132
17,5,21,Ticks_Linear_5,7,5,42,127,440251996
17,5,21,Ticks_Linear_5,8,1,48,35,440725092
17,5,21,Ticks_Linear_5,9,5,42,127,440742256
17,5,21,Ticks_Linear_5,10,1,48,32,441195096
17,5,21,Ticks_Linear_5,11,5,42,127,441231920
17,5,21,Ticks_Linear_5,12,1,48,37,441690896
17,5,21,Ticks_Linear_5,13,5,42,127,441722260
17,5,21,Ticks_Linear_5,14,1,48,35,442208512
17,5,21,Ticks_Linear_5,15,5,42,127,442211924
17,5,21,Ticks_Linear_5,16,1,48,30,442712732
17,5,21,Ticks_Linear_5,17,5,42,127,442714296
17,5,21,Ticks_Linear_5,18,1,48,28,443210576
17,5,21,Ticks_Linear_5,19,5,42,127,443222428
17,5,21,Ticks_Linear_5,20,1,48,40,443706588
17,5,21,Ticks_Linear_5,21,5,42,127,443722036
17,5,21,Ticks_Linear_5,22,1,48,35,444210988
17,5,21,Ticks_Linear_5,23,5,42,127,444221792
17,5,21,Ticks_Linear_5,24,1,48,32,444714624
17,5,21,Ticks_Linear_5,25,5,42,127,444721920
17,5,21,Ticks_Linear_5,26,1,48,30,445208152
17,5,21,Ticks_Linear_5,27,5,42,127,445231624
17,5,21,Ticks_Linear_5,28,1,48,28,445703052
17,5,21,Ticks_Linear_5,29,5,42,127,445741472
17,5,21,Ticks_Linear_5,30,1,48,35,446224112
17,5,21,Ticks_Linear_5,31,5,42,127,446252516
17,5,21,Ticks_Linear_5,32,1,48,30,446742792
17,5,21,Ticks_Linear_5,33,5,42,127,446762292
17,5,21,Ticks_Linear_5,34,1,48,30,447257412
17,5,21,Ticks_Linear_5,35,5,42,127,447272660
17,5,21,Ticks_Linear_5,36,1,48,32,447781104
17,5,21,Ticks_Linear_5,37,5,42,127,447791680
17,5,21,Ticks_Linear_5,38,1,48,33,448270968
17,5,21,Ticks_Linear_5,39,5,42,127,448311552
17,5,21,Ticks_Linear_5,40,5,42,127,448831796
17,5,21,Ticks_Linear_5,41,1,48,28,448852628
17,5,21,Ticks_Linear_5,42,1,48,27,449328360
17,5,21,Ticks_Linear_5,43,5,42,127,449352032
17,5,21,Ticks_Linear_5,44,1,48,25,449809396
17,5,21,Ticks_Linear_5,45,5,42,127,449872492
17,5,21,Ticks_Linear_5,46,1,48,32,450355240
17,5,21,Ticks_Linear_5,47,5,42,127,450401560
17,5,21,Ticks_Linear_5,48,1,48,34,450877192
17,5,21,Ticks_Linear_5,49,5,42,127,450932192
17,5,21,Ticks_Linear_5,50,1,48,31,451422268
17,5,21,Ticks_Linear_5,51,5,42,127,451461408
17,5,21,Ticks_Linear_5,52,1,48,34,451929356
17,5,21,Ticks_Linear_5,53,5,42,127,451991888
17,5,21,Ticks_Linear_5,54,1,48,25,452485020
17,5,21,Ticks_Linear_5,55,5,42,127,452522300
17,5,21,Ticks_Linear_5,56,1,48,29,453032704
17,5,21,Ticks_Linear_5,57,5,42,127,453062124
17,5,21,Ticks_Linear_5,58,1,48,29,453534624
17,5,21,Ticks_Linear_5,59,5,42,127,453601580
17,5,21,Ticks_Linear_5,60,5,42,127,454142388
17,5,21,Ticks_Linear_5,61,1,48,23,454150816
17,5,21,Ticks_Linear_5,62,1,48,21,454664672
17,5,21,Ticks_Linear_5,63,5,42,127,454681912
17,5,21,Ticks_Linear_5,64,5,42,127,455221476
17,5,21,Ticks_Linear_5,65,1,48,20,455231320
17,5,21,Ticks_Linear_5,66,1,48,26,455696408
17,5,21,Ticks_Linear_5,67,5,42,127,455771612
17,5,21,Ticks_Linear_5,68,1,48,24,456255252
17,5,21,Ticks_Linear_5,69,5,42,127,456322432
17,5,21,Ticks_Linear_5,70,1,48,26,456818328
17,5,21,Ticks_Linear_5,71,5,42,127,456881400
17,5,21,Ticks_Linear_5,72,1,48,26,457411172
17,5,21,Ticks_Linear_5,73,5,42,127,457432444
17,5,21,Ticks_Linear_5,74,1,48,24,457899916
17,5,21,Ticks_Linear_5,75,5,42,127,457991464
17,5,21,Ticks_Linear_5,76,1,48,23,458467244
17,5,21,Ticks_Linear_5,77,5,42,127,458551652
17,5,21,Ticks_Linear_5,78,1,48,23,459058612
17,5,21,Ticks_Linear_5,79,5,42,127,459112036
17,5,21,Ticks_Linear_5,80,1,48,25,459653620
17,5,21,Ticks_Linear_5,81,5,42,127,459671904
17,5,21,Ticks_Linear_5,82,1,48,26,460215052
17,5,21,Ticks_Linear_5,83,5,42,127,460232140
17,5,21,Ticks_Linear_5,84,1,48,35,460739400
17,5,21,Ticks_Linear_5,85,5,42,127,460792228
17,5,21,Ticks_Linear_5,86,1,48,27,461324240
17,5,21,Ticks_Linear_5,87,5,42,127,461361464
17,5,21,Ticks_Linear_5,88,1,48,25,461875080
17,5,21,Ticks_Linear_5,89,5,42,127,461931872
17,5,21,Ticks_Linear_5,90,1,48,22,462435548
17,5,21,Ticks_Linear_5,91,5,42,127,462502204
17,5,21,Ticks_Linear_5,92,1,48,26,463022480
17,5,21,Ticks_Linear_5,93,5,42,127,463071784
17,5,21,Ticks_Linear_5,94,1,48,23,463581524
17,5,21,Ticks_Linear_5,95,5,42,127,463642116
17,5,21,Ticks_Linear_5,96,1,48,20,464142732
17,5,21,Ticks_Linear_5,97,5,42,127,464221672
17,5,21,Ticks_Linear_5,98,1,48,24,464759504
17,5,21,Ticks_Linear_5,99,5,42,127,464802092
17,5,21,Ticks_Linear_5,100,1,48,31,465368568
17,5,21,Ticks_Linear_5,101,5,42,127,465381624
17,5,21,Ticks_Linear_5,102,1,48,37,465918932
17,5,21,Ticks_Linear_5,103,5,42,127,465962368
17,5,21,Ticks_Linear_5,104,1,48,29,466539456
17,5,21,Ticks_Linear_5,105,5,42,127,466541972
17,5,21,Ticks_Linear_5,106,1,48,26,467113164
17,5,21,Ticks_Linear_5,107,5,42,127,467131816
17,5,21,Ticks_Linear_5,108,1,48,27,467701364
17,5,21,Ticks_Linear_5,109,5,42,127,467721588
17,5,21,Ticks_Linear_5,110,5,42,127,468312508
17,5,21,Ticks_Linear_5,111,1,48,33,468321908
17,5,21,Ticks_Linear_5,112,1,48,32,468903132
17,5,21,Ticks_Linear_5,113,5,42,127,468911544
17,5,21,Ticks_Linear_5,114,1,48,42,469488032
17,5,21,Ticks_Linear_5,115,5,42,127,469502580
17,5,21,Ticks_Linear_5,116,1,48,34,470096816
17,5,21,Ticks_Linear_5,117,5,42,127,470102620
17,5,21,Ticks_Linear_5,118,1,48,27,470698476
17,5,21,Ticks_Linear_5,119,5,42,127,470701512
17,5,21,Ticks_Linear_5,120,5,42,127,471301604
17,5,21,Ticks_Linear_5,121,1,48,27,471324980
17,5,21,Ticks_Linear_5,122,1,48,33,471871840
17,5,21,Ticks_Linear_5,123,5,42,127,471901484
17,5,21,Ticks_Linear_5,124,1,48,27,472471404
17,5,21,Ticks_Linear_5,125,5,42,127,472501500
17,5,21,Ticks_Linear_5,126,1,48,24,473059376
17,5,21,Ticks_Linear_5,127,5,42,127,473111900
17,5,21,Ticks_Linear_5,128,1,48,29,473692980
17,5,21,Ticks_Linear_5,129,5,42,127,473722256
17,5,21,Ticks_Linear_5,130,1,48,26,474292396
17,5,21,Ticks_Linear_5,131,5,42,127,474331388
17,5,21,Ticks_Linear_5,132,5,42,127,474941896
17,5,21,Ticks_Linear_5,133,1,48,25,474948592
17,5,21,Ticks_Linear_5,134,1,48,27,475535276
17,5,21,Ticks_Linear_5,135,5,42,127,475552072
17,5,21,Ticks_Linear_5,136,5,42,127,476171604
17,5,21,Ticks_Linear_5,137,1,48,24,476195124
17,5,21,Ticks_Linear_5,138,1,48,22,476721180
17,5,21,Ticks_Linear_5,139,5,42,127,476792312
17,5,21,Ticks_Linear_5,140,1,48,29,477333896
17,5,21,Ticks_Linear_5,141,5,42,127,477412132
17,5,21,Ticks_Linear_5,142,1,48,27,477962320
17,5,21,Ticks_Linear_5,143,5,42,127,478032212
17,5,21,Ticks_Linear_5,144,1,48,31,478552036
17,5,21,Ticks_Linear_5,145,5,42,127,478651720
17,5,21,Ticks_Linear_5,146,1,48,27,479208564
17,5,21,Ticks_Linear_5,147,5,42,127,479281528
17,5,21,Ticks_Linear_5,148,1,48,33,479839488
17,5,21,Ticks_Linear_5,149,5,42,127,479912336
17,5,21,Ticks_Linear_5,150,1,48,29,480475228
17,5,21,Ticks_Linear_5,151,5,42,127,480542032
17,5,21,Ticks_Linear_5,152,1,48,28,481144712
17,5,21,Ticks_Linear_5,153,5,42,127,481172044
17,5,21,Ticks_Linear_5,154,1,48,27,481768948
17,5,21,Ticks_Linear_5,155,5,42,127,481801664
17,5,21,Ticks_Linear_5,156,1,48,27,482377356
17,5,21,Ticks_Linear_5,157,5,42,127,482441548
17,5,21,Ticks_Linear_5,158,1,48,23,483020516
17,5,21,Ticks_Linear_5,159,5,42,127,483081856
17,5,21,Ticks_Linear_5,160,1,48,36,483638784
17,5,21,Ticks_Linear_5,161,5,42,127,483721816
17,5,21,Ticks_Linear_5,162,1,48,38,484301676
17,5,21,Ticks_Linear_5,163,5,42,127,484361672
17,5,21,Ticks_Linear_5,164,1,48,33,484910092
17,5,21,Ticks_Linear_5,165,5,42,127,485001636
17,5,21,Ticks_Linear_5,166,1,48,29,485593308
17,5,21,Ticks_Linear_5,167,5,42,127,485651736
17,5,21,Ticks_Linear_5,168,1,48,32,486277296
17,5,21,Ticks_Linear_5,169,5,42,127,486302084
17,5,21,Ticks_Linear_5,170,5,42,127,486952440
17,5,21,Ticks_Linear_5,171,1,48,29,486988972
17,5,21,Ticks_Linear_5,172,1,48,23,487584180
17,5,21,Ticks_Linear_5,173,5,42,127,487601568
17,5,21,Ticks_Linear_5,174,1,48,38,488206916
17,5,21,Ticks_Linear_5,175,5,42,127,488251620
17,5,21,Ticks_Linear_5,176,1,48,33,488868556
17,5,21,Ticks_Linear_5,177,5,42,127,488912188
17,5,21,Ticks_Linear_5,178,1,48,30,489520784
17,5,21,Ticks_Linear_5,179,5,42,127,489571588
17,5,21,Ticks_Linear_5,180,1,48,25,490186056
17,5,21,Ticks_Linear_5,181,5,42,127,490232080
17,5,21,Ticks_Linear_5,182,1,48,29,490811744
17,5,21,Ticks_Linear_5,183,5,42,127,490891628
17,5,21,Ticks_Linear_5,184,1,48,33,491458624
17,5,21,Ticks_Linear_5,185,5,42,127,491552196
17,5,21,Ticks_Linear_5,186,1,48,34,492123412
17,5,21,Ticks_Linear_5,187,5,42,127,492221824
17,5,21,Ticks_Linear_5,188,1,48,31,492794368
17,5,21,Ticks_Linear_5,189,5,42,127,492891612
17,5,21,Ticks_Linear_5,190,1,48,30,493466468
17,5,21,Ticks_Linear_5,191,5,42,127,493562420
17,5,21,Ticks_Linear_5,192,1,48,31,494133500
17,5,21,Ticks_Linear_5,193,5,42,127,494232284
17,5,21,Ticks_Linear_5,194,1,48,21,494806324
17,5,21,Ticks_Linear_5,195,5,42,127,494901628
17,5,21,Ticks_Linear_5,196,1,48,28,495505500
17,5,21,Ticks_Linear_5,197,5,42,127,495581648
17,5,21,Ticks_Linear_5,198,1,48,31,496203472
17,5,21,Ticks_Linear_5,199,5,42,127,496261456
17,5,21,Ticks_Linear_5,200,1,48,32,496924444
17,5,21,Ticks_Linear_5,201,5,42,127,496941488
17,5,21,Ticks_Linear_5,202,1,48,37,497600000
17,5,21,Ticks_Linear_5,203,5,42,127,497622388
17,5,21,Ticks_Linear_5,204,1,48,37,498249976
17,5,21,Ticks_Linear_5,205,5,42,127,498302196
17,5,21,Ticks_Linear_5,206,1,48,34,498932520
17,5,21,Ticks_Linear_5,207,5,42,127,498991496
17,5,21,Ticks_Linear_5,208,1,48,32,499619720
17,5,21,Ticks_Linear_5,209,5,42,127,499681596
17,5,21,Ticks_Linear_5,210,1,48,36,500305808
17,5,21,Ticks_Linear_5,211,5,42,127,500371944
17,5,21,Ticks_Linear_5,212,1,48,32,501003392
17,5,21,Ticks_Linear_5,213,5,42,127,501062144
17,5,21,Ticks_Linear_5,214,1,48,30,501640364
17,5,21,Ticks_Linear_5,215,1,48,19,501714720
17,5,21,Ticks_Linear_5,216,5,42,127,501752072
17,5,21,Ticks_Linear_5,217,1,48,30,502352368
17,5,21,Ticks_Linear_5,218,5,42,127,502451528
17,5,21,Ticks_Linear_5,219,1,48,37,503046944
17,5,21,Ticks_Linear_5,220,5,42,127,503151968
17,5,21,Ticks_Linear_5,221,1,48,40,503754268
17,5,21,Ticks_Linear_5,222,5,42,127,503852332
17,5,21,Ticks_Linear_5,223,1,48,23,504469820
17,5,21,Ticks_Linear_5,224,5,42,127,504551940
17,5,21,Ticks_Linear_5,225,1,48,22,505170556
17,5,21,Ticks_Linear_5,226,5,42,127,505252308
17,5,21,Ticks_Linear_5,227,1,48,30,505881140
17,5,21,Ticks_Linear_5,228,5,42,127,505961796
17,5,21,Ticks_Linear_5,229,1,48,34,506603636
17,5,21,Ticks_Linear_5,230,5,42,127,506671432
17,5,21,Ticks_Linear_5,231,1,48,29,507349300
17,5,21,Ticks_Linear_5,232,5,42,127,507382092
17,5,21,Ticks_Linear_5,233,1,48,29,508047872
17,5,21,Ticks_Linear_5,234,5,42,127,508091732
17,5,21,Ticks_Linear_5,235,1,48,32,508753700
17,5,21,Ticks_Linear_5,236,5,42,127,508802636
17,5,21,Ticks_Linear_5,237,1,48,32,509471840
17,5,21,Ticks_Linear_5,238,5,42,127,509531612
17,5,21,Ticks_Linear_5,239,1,48,27,510226452
17,5,21,Ticks_Linear_5,240,5,42,127,510252536
17,5,21,Ticks_Linear_5,241,1,48,28,510944540
17,5,21,Ticks_Linear_5,242,5,42,127,510972464
17,5,21,Ticks_Linear_5,243,1,48,27,511617464
17,5,21,Ticks_Linear_5,244,5,42,127,511692048
17,5,21,Ticks_Linear_5,245,1,48,27,512336972
17,5,21,Ticks_Linear_5,246,5,42,127,512412076
17,5,21,Ticks_Linear_5,247,1,48,36,513060520
17,5,21,Ticks_Linear_5,248,5,42,127,513142272
17,5,21,Ticks_Linear_5,249,1,48,27,513846928
17,5,21,Ticks_Linear_5,250,5,42,127,513872540
17,5,21,Ticks_Linear_5,251,1,48,27,514553852
17,5,21,Ticks_Linear_5,252,5,42,127,514602440
17,5,21,Ticks_Linear_5,253,1,48,22,515302520
17,5,21,Ticks_Linear_5,254,5,42,127,515331416
17,5,21,Ticks_Linear_5,255,1,48,31,515971340
17,5,21,Ticks_Linear_5,256,5,42,127,516061468
17,5,21,Ticks_Linear_5,257,1,48,39,516698008
17,5,21,Ticks_Linear_5,258,5,42,127,516801960
17,5,21,Ticks_Linear_5,259,1,48,24,517475684
17,5,21,Ticks_Linear_5,260,5,42,127,517542192
17,5,21,Ticks_Linear_5,261,1,48,27,518175500
17,5,21,Ticks_Linear_5,262,5,42,127,518281692
17,5,21,Ticks_Linear_5,263,1,48,18,518884144
17,5,21,Ticks_Linear_5,264,5,42,127,519022056
17,5,21,Ticks_Linear_5,265,1,48,24,519647080
17,5,21,Ticks_Linear_5,266,5,42,127,519762196
17,5,21,Ticks_Linear_5,267,1,48,29,520391340
17,5,21,Ticks_Linear_5,268,1,48,18,520469356
17,5,21,Ticks_Linear_5,269,5,42,127,520512120
17,5,21,Ticks_Linear_5,270,1,48,28,521181920
17,5,21,Ticks_Linear_5,271,5,42,127,521261308
17,5,21,Ticks_Linear_5,272,1,48,27,521916744
17,5,21,Ticks_Linear_5,273,5,42,127,522012096
17,5,21,Ticks_Linear_5,274,1,48,31,522664664
17,5,21,Ticks_Linear_5,275,5,42,127,522761732
17,5,21,Ticks_Linear_5,276,1,48,28,523403160
17,5,21,Ticks_Linear_5,277,5,42,127,523512264
17,5,21,Ticks_Linear_5,278,1,48,26,524217464
17,5,21,Ticks_Linear_5,279,5,42,127,524271932
17,5,21,Ticks_Linear_5,280,1,48,21,524960972
17,5,21,Ticks_Linear_5,281,1,48,18,525024568
17,5,21,Ticks_Linear_5,282,5,42,127,525031860
17,5,21,Ticks_Linear_5,283,1,48,19,525739740
17,5,21,Ticks_Linear_5,284,5,42,127,525791812
17,5,21,Ticks_Linear_5,285,1,48,18,526536168
17,5,21,Ticks_Linear_5,286,5,42,127,526552360
17,5,21,Ticks_Linear_5,287,1,48,25,527258212
17,5,21,Ticks_Linear_5,288,5,42,127,527321584
17,5,21,Ticks_Linear_5,289,1,48,21,527984676
17,5,21,Ticks_Linear_5,290,5,42,127,528091616
17,5,21,Ticks_Linear_5,291,1,48,29,528749108
17,5,21,Ticks_Linear_5,292,5,42,127,528861584
17,5,21,Ticks_Linear_5,293,1,48,33,529567152
17,5,21,Ticks_Linear_5,294,5,42,127,529631864
17,5,21,Ticks_Linear_5,295,1,48,31,530299440
17,5,21,Ticks_Linear_5,296,1,48,20,530374112
17,5,21,Ticks_Linear_5,297,5,42,127,530401664
17,5,21,Ticks_Linear_5,298,1,48,30,531097652
17,5,21,Ticks_Linear_5,299,5,42,127,531171636
17,5,21,Ticks_Linear_5,300,1,48,28,531890060
17,5,21,Ticks_Linear_5,301,5,42,127,531951848
17,5,21,Ticks_Linear_5,302,1,48,24,532662348
17,5,21,Ticks_Linear_5,303,5,42,127,532732432
17,5,21,Ticks_Linear_5,304,1,48,28,533460504
17,5,21,Ticks_Linear_5,305,5,42,127,533511604
17,5,21,Ticks_Linear_5,306,1,48,20,533530556
17,5,21,Ticks_Linear_5,307,1,48,30,534217432
17,5,21,Ticks_Linear_5,308,5,42,127,534291716
17,5,21,Ticks_Linear_5,309,1,48,29,535000496
17,5,21,Ticks_Linear_5,310,5,42,127,535072324
17,5,21,Ticks_Linear_5,311,1,48,28,535740332
17,5,21,Ticks_Linear_5,312,5,42,127,535861572
17,5,21,Ticks_Linear_5,313,1,48,29,536501852
17,5,21,Ticks_Linear_5,314,5,42,127,536652396
17,5,21,Ticks_Linear_5,315,1,48,24,537338128
17,5,21,Ticks_Linear_5,316,5,42,127,537441728
17,5,21,Ticks_Linear_5,317,1,48,25,538184604
17,5,21,Ticks_Linear_5,318,5,42,127,538232420
17,5,21,Ticks_Linear_5,319,1,48,17,538249732
17,5,21,Ticks_Linear_5,320,5,42,127,539021592
17,5,21,Ticks_Linear_5,321,1,48,24,539024328
17,5,21,Ticks_Linear_5,322,1,48,24,539769152
17,5,21,Ticks_Linear_5,323,5,42,127,539821308
17,5,21,Ticks_Linear_5,324,1,48,31,540562376
17,5,21,Ticks_Linear_5,325,5,42,127,540622300
17,5,21,Ticks_Linear_5,326,1,48,31,541392456
17,5,21,Ticks_Linear_5,327,5,42,127,541422176
17,5,21,Ticks_Linear_5,328,1,48,26,542186044
17,5,21,Ticks_Linear_5,329,5,42,127,542221676
17,5,21,Ticks_Linear_5,330,1,48,29,542979648
17,5,21,Ticks_Linear_5,331,5,42,127,543021356
17,5,21,Ticks_Linear_5,332,1,48,31,543805032
17,5,21,Ticks_Linear_5,333,5,42,127,543832364
17,5,21,Ticks_Linear_5,334,1,48,32,544604164
17,5,21,Ticks_Linear_5,335,5,42,127,544642556
17,5,21,Ticks_Linear_5,336,1,48,28,545397300
17,5,21,Ticks_Linear_5,337,5,42,127,545461868
17,5,21,Ticks_Linear_5,338,1,48,34,546234332
17,5,21,Ticks_Linear_5,339,5,42,127,546271684
17,5,21,Ticks_Linear_5,340,1,48,42,547051784
17,5,21,Ticks_Linear_5,341,5,42,127,547081800
17,5,21,Ticks_Linear_5,0,9999,9999,9999,437839980
17,5,21,Ticks_Linear_5,1,9999,9999,9999,438319200
17,5,21,Ticks_Linear_5,2,9999,9999,9999,438799440
17,5,21,Ticks_Linear_5,3,9999,9999,9999,439279704
17,5,21,Ticks_Linear_5,4,9999,9999,9999,439759968
17,5,21,Ticks_Linear_5,5,9999,9999,9999,440249404
17,5,21,Ticks_Linear_5,6,9999,9999,9999,440739964
17,5,21,Ticks_Linear_5,7,9999,9999,9999,441229404
17,5,21,Ticks_Linear_5,8,9999,9999,9999,441719888
17,5,21,Ticks_Linear_5,9,9999,9999,9999,442209404
17,5,21,Ticks_Linear_5,10,9999,9999,9999,442710140
17,5,21,Ticks_Linear_5,11,9999,9999,9999,443220056
17,5,21,Ticks_Linear_5,12,9999,9999,9999,443719740
17,5,21,Ticks_Linear_5,13,9999,9999,9999,444219496
17,5,21,Ticks_Linear_5,14,9999,9999,9999,444719180
17,5,21,Ticks_Linear_5,15,9999,9999,9999,445229180
17,5,21,Ticks_Linear_5,16,9999,9999,9999,445739104
17,5,21,Ticks_Linear_5,17,9999,9999,9999,446250072
17,5,21,Ticks_Linear_5,18,9999,9999,9999,446759996
17,5,21,Ticks_Linear_5,19,9999,9999,9999,447269996
17,5,21,Ticks_Linear_5,20,9999,9999,9999,447789164
17,5,21,Ticks_Linear_5,21,9999,9999,9999,448309332
17,5,21,Ticks_Linear_5,22,9999,9999,9999,448829500
17,5,21,Ticks_Linear_5,23,9999,9999,9999,449349736
17,5,21,Ticks_Linear_5,24,9999,9999,9999,449869900
17,5,21,Ticks_Linear_5,25,9999,9999,9999,450399340
17,5,21,Ticks_Linear_5,26,9999,9999,9999,450929748
17,5,21,Ticks_Linear_5,27,9999,9999,9999,451459184
17,5,21,Ticks_Linear_5,28,9999,9999,9999,451989592
17,5,21,Ticks_Linear_5,29,9999,9999,9999,452520004
17,5,21,Ticks_Linear_5,30,9999,9999,9999,453059684
17,5,21,Ticks_Linear_5,31,9999,9999,9999,453599288
17,5,21,Ticks_Linear_5,32,9999,9999,9999,454140020
17,5,21,Ticks_Linear_5,33,9999,9999,9999,454679616
17,5,21,Ticks_Linear_5,34,9999,9999,9999,455219252
17,5,21,Ticks_Linear_5,35,9999,9999,9999,455769168
17,5,21,Ticks_Linear_5,36,9999,9999,9999,456320064
17,5,21,Ticks_Linear_5,37,9999,9999,9999,456879180
17,5,21,Ticks_Linear_5,38,9999,9999,9999,457430072
17,5,21,Ticks_Linear_5,39,9999,9999,9999,457989240
17,5,21,Ticks_Linear_5,40,9999,9999,9999,458549356
17,5,21,Ticks_Linear_5,41,9999,9999,9999,459109444
17,5,21,Ticks_Linear_5,42,9999,9999,9999,459669608
17,5,21,Ticks_Linear_5,43,9999,9999,9999,460229700
17,5,21,Ticks_Linear_5,44,9999,9999,9999,460789860
17,5,21,Ticks_Linear_5,45,9999,9999,9999,461359172
17,5,21,Ticks_Linear_5,46,9999,9999,9999,461929576
17,5,21,Ticks_Linear_5,47,9999,9999,9999,462499908
17,5,21,Ticks_Linear_5,48,9999,9999,9999,463069268
17,5,21,Ticks_Linear_5,49,9999,9999,9999,463639672
17,5,21,Ticks_Linear_5,50,9999,9999,9999,464219228
17,5,21,Ticks_Linear_5,51,9999,9999,9999,464799800
17,5,21,Ticks_Linear_5,52,9999,9999,9999,465379404
17,5,21,Ticks_Linear_5,53,9999,9999,9999,465960000
17,5,21,Ticks_Linear_5,54,9999,9999,9999,466539604
17,5,21,Ticks_Linear_5,55,9999,9999,9999,467129448
17,5,21,Ticks_Linear_5,56,9999,9999,9999,467719292
17,5,21,Ticks_Linear_5,57,9999,9999,9999,468310136
17,5,21,Ticks_Linear_5,58,9999,9999,9999,468909176
17,5,21,Ticks_Linear_5,59,9999,9999,9999,469499988
17,5,21,Ticks_Linear_5,60,9999,9999,9999,470100028
17,5,21,Ticks_Linear_5,61,9999,9999,9999,470699072
17,5,21,Ticks_Linear_5,62,9999,9999,9999,471299164
17,5,21,Ticks_Linear_5,63,9999,9999,9999,471899192
17,5,21,Ticks_Linear_5,64,9999,9999,9999,472499276
17,5,21,Ticks_Linear_5,65,9999,9999,9999,473109608
17,5,21,Ticks_Linear_5,66,9999,9999,9999,473719884
17,5,21,Ticks_Linear_5,67,9999,9999,9999,474329168
17,5,21,Ticks_Linear_5,68,9999,9999,9999,474939452
17,5,21,Ticks_Linear_5,69,9999,9999,9999,475549776
17,5,21,Ticks_Linear_5,70,9999,9999,9999,476169308
17,5,21,Ticks_Linear_5,71,9999,9999,9999,476789868
17,5,21,Ticks_Linear_5,72,9999,9999,9999,477409396
17,5,21,Ticks_Linear_5,73,9999,9999,9999,478029916
17,5,21,Ticks_Linear_5,74,9999,9999,9999,478649424
17,5,21,Ticks_Linear_5,75,9999,9999,9999,479279160
17,5,21,Ticks_Linear_5,76,9999,9999,9999,479909968
17,5,21,Ticks_Linear_5,77,9999,9999,9999,480539736
17,5,21,Ticks_Linear_5,78,9999,9999,9999,481169528
17,5,21,Ticks_Linear_5,79,9999,9999,9999,481799220
17,5,21,Ticks_Linear_5,80,9999,9999,9999,482439256
17,5,21,Ticks_Linear_5,81,9999,9999,9999,483079264
17,5,21,Ticks_Linear_5,82,9999,9999,9999,483719224
17,5,21,Ticks_Linear_5,83,9999,9999,9999,484359232
17,5,21,Ticks_Linear_5,84,9999,9999,9999,484999264
17,5,21,Ticks_Linear_5,85,9999,9999,9999,485649516
17,5,21,Ticks_Linear_5,86,9999,9999,9999,486299716
17,5,21,Ticks_Linear_5,87,9999,9999,9999,486949996
17,5,21,Ticks_Linear_5,88,9999,9999,9999,487599200
17,5,21,Ticks_Linear_5,89,9999,9999,9999,488249400
17,5,21,Ticks_Linear_5,90,9999,9999,9999,488909896
17,5,21,Ticks_Linear_5,91,9999,9999,9999,489569368
17,5,21,Ticks_Linear_5,92,9999,9999,9999,490229860
17,5,21,Ticks_Linear_5,93,9999,9999,9999,490889332
17,5,21,Ticks_Linear_5,94,9999,9999,9999,491549752
17,5,21,Ticks_Linear_5,95,9999,9999,9999,492219456
17,5,21,Ticks_Linear_5,96,9999,9999,9999,492889168
17,5,21,Ticks_Linear_5,97,9999,9999,9999,493559904
17,5,21,Ticks_Linear_5,98,9999,9999,9999,494229616
17,5,21,Ticks_Linear_5,99,9999,9999,9999,494899276
17,5,21,Ticks_Linear_5,100,9999,9999,9999,495579204
17,5,21,Ticks_Linear_5,101,9999,9999,9999,496259160
17,5,21,Ticks_Linear_5,102,9999,9999,9999,496939116
17,5,21,Ticks_Linear_5,103,9999,9999,9999,497620092
17,5,21,Ticks_Linear_5,104,9999,9999,9999,498299976
17,5,21,Ticks_Linear_5,105,9999,9999,9999,498989128
17,5,21,Ticks_Linear_5,106,9999,9999,9999,499679304
17,5,21,Ticks_Linear_5,107,9999,9999,9999,500369500
17,5,21,Ticks_Linear_5,108,9999,9999,9999,501059700
17,5,21,Ticks_Linear_5,109,9999,9999,9999,501749852
17,5,21,Ticks_Linear_5,110,9999,9999,9999,502449232
17,5,21,Ticks_Linear_5,111,9999,9999,9999,503149672
17,5,21,Ticks_Linear_5,112,9999,9999,9999,503850036
17,5,21,Ticks_Linear_5,113,9999,9999,9999,504549500
17,5,21,Ticks_Linear_5,114,9999,9999,9999,505249864
17,5,21,Ticks_Linear_5,115,9999,9999,9999,505959500
17,5,21,Ticks_Linear_5,116,9999,9999,9999,506669140
17,5,21,Ticks_Linear_5,117,9999,9999,9999,507379796
17,5,21,Ticks_Linear_5,118,9999,9999,9999,508089436
17,5,21,Ticks_Linear_5,119,9999,9999,9999,508800116
17,5,21,Ticks_Linear_5,120,9999,9999,9999,509529168
17,5,21,Ticks_Linear_5,121,9999,9999,9999,510250092
17,5,21,Ticks_Linear_5,122,9999,9999,9999,510969948
17,5,21,Ticks_Linear_5,123,9999,9999,9999,511689828
17,5,21,Ticks_Linear_5,124,9999,9999,9999,512409704
17,5,21,Ticks_Linear_5,125,9999,9999,9999,513139828
17,5,21,Ticks_Linear_5,126,9999,9999,9999,513869948
17,5,21,Ticks_Linear_5,127,9999,9999,9999,514599996
17,5,21,Ticks_Linear_5,128,9999,9999,9999,515329120
17,5,21,Ticks_Linear_5,129,9999,9999,9999,516059244
17,5,21,Ticks_Linear_5,130,9999,9999,9999,516799592
17,5,21,Ticks_Linear_5,131,9999,9999,9999,517539896
17,5,21,Ticks_Linear_5,132,9999,9999,9999,518279248
17,5,21,Ticks_Linear_5,133,9999,9999,9999,519019612
17,5,21,Ticks_Linear_5,134,9999,9999,9999,519759976
17,5,21,Ticks_Linear_5,135,9999,9999,9999,520509528
17,5,21,Ticks_Linear_5,136,9999,9999,9999,521259088
17,5,21,Ticks_Linear_5,137,9999,9999,9999,522009728
17,5,21,Ticks_Linear_5,138,9999,9999,9999,522759228
17,5,21,Ticks_Linear_5,139,9999,9999,9999,523509820
17,5,21,Ticks_Linear_5,140,9999,9999,9999,524269636
17,5,21,Ticks_Linear_5,141,9999,9999,9999,525029492
17,5,21,Ticks_Linear_5,142,9999,9999,9999,525789292
17,5,21,Ticks_Linear_5,143,9999,9999,9999,526550140
17,5,21,Ticks_Linear_5,144,9999,9999,9999,527319140
17,5,21,Ticks_Linear_5,145,9999,9999,9999,528089172
17,5,21,Ticks_Linear_5,146,9999,9999,9999,528859216
17,5,21,Ticks_Linear_5,147,9999,9999,9999,529629272
17,5,21,Ticks_Linear_5,148,9999,9999,9999,530399296
17,5,21,Ticks_Linear_5,149,9999,9999,9999,531169344
17,5,21,Ticks_Linear_5,150,9999,9999,9999,531949628
17,5,21,Ticks_Linear_5,151,9999,9999,9999,532729916
17,5,21,Ticks_Linear_5,152,9999,9999,9999,533509232
17,5,21,Ticks_Linear_5,153,9999,9999,9999,534289496
17,5,21,Ticks_Linear_5,154,9999,9999,9999,535069808
17,5,21,Ticks_Linear_5,155,9999,9999,9999,535859276
17,5,21,Ticks_Linear_5,156,9999,9999,9999,536649804
17,5,21,Ticks_Linear_5,157,9999,9999,9999,537439360
17,5,21,Ticks_Linear_5,158,9999,9999,9999,538229828
17,5,21,Ticks_Linear_5,159,9999,9999,9999,539019372
17,5,21,Ticks_Linear_5,160,9999,9999,9999,539819088
17,5,21,Ticks_Linear_5,161,9999,9999,9999,540619860
17,5,21,Ticks_Linear_5,162,9999,9999,9999,541419584
17,5,21,Ticks_Linear_5,163,9999,9999,9999,542219384
17,5,21,Ticks_Linear_5,164,9999,9999,9999,543019132
17,5,21,Ticks_Linear_5,165,9999,9999,9999,543830072
17,5,21,Ticks_Linear_5,166,9999,9999,9999,544640112
17,5,21,Ticks_Linear_5,167,9999,9999,9999,545459276
17,5,21,Ticks_Linear_5,168,9999,9999,9999,546269240
17,5,21,Ticks_Linear_5,169,9999,9999,9999,547079284
17,6,20,Ticks_Linear_8,0,5,42,127,568362344
17,6,20,Ticks_Linear_8,1,5,42,127,569181976
17,6,20,Ticks_Linear_8,2,5,42,127,570001760
17,6,20,Ticks_Linear_8,3,1,48,33,570005844
17,6,20,Ticks_Linear_8,4,1,48,29,570776612
17,6,20,Ticks_Linear_8,5,5,42,127,570821964
17,6,20,Ticks_Linear_8,6,1,48,24,571561316
17,6,20,Ticks_Linear_8,7,5,42,127,571642248
17,6,20,Ticks_Linear_8,8,1,48,31,572367236
17,6,20,Ticks_Linear_8,9,5,42,127,572452236
17,6,20,Ticks_Linear_8,10,1,48,28,573166816
17,6,20,Ticks_Linear_8,11,5,42,127,573262192
17,6,20,Ticks_Linear_8,12,1,48,22,573941952
17,6,20,Ticks_Linear_8,13,5,42,127,574072304
17,6,20,Ticks_Linear_8,14,1,48,20,574724024
17,6,20,Ticks_Linear_8,15,5,42,127,574882272
17,6,20,Ticks_Linear_8,16,1,48,20,575587916
17,6,20,Ticks_Linear_8,17,5,42,127,575692016
17,6,20,Ticks_Linear_8,18,1,48,21,576380548
17,6,20,Ticks_Linear_8,19,5,42,127,576491964
17,6,20,Ticks_Linear_8,20,1,48,16,577241724
17,6,20,Ticks_Linear_8,21,5,42,127,577291780
17,6,20,Ticks_Linear_8,22,1,48,20,578028736
17,6,20,Ticks_Linear_8,23,5,42,127,578092276
17,6,20,Ticks_Linear_8,24,1,48,19,578867732
17,6,20,Ticks_Linear_8,25,5,42,127,578892296
17,6,20,Ticks_Linear_8,26,1,48,19,579603364
17,6,20,Ticks_Linear_8,27,5,42,127,579691876
17,6,20,Ticks_Linear_8,28,1,48,19,580394296
17,6,20,Ticks_Linear_8,29,5,42,127,580482404
17,6,20,Ticks_Linear_8,30,1,48,19,581203292
17,6,20,Ticks_Linear_8,31,5,42,127,581282352
17,6,20,Ticks_Linear_8,32,1,48,19,582014748
17,6,20,Ticks_Linear_8,33,5,42,127,582071688
17,6,20,Ticks_Linear_8,34,1,48,14,582821208
17,6,20,Ticks_Linear_8,35,5,42,127,582862288
17,6,20,Ticks_Linear_8,36,1,48,23,583592520
17,6,20,Ticks_Linear_8,37,1,48,18,583648788
17,6,20,Ticks_Linear_8,38,5,42,127,583651752
17,6,20,Ticks_Linear_8,39,1,48,36,584391328
17,6,20,Ticks_Linear_8,40,5,42,127,584432188
17,6,20,Ticks_Linear_8,41,1,48,26,585151060
17,6,20,Ticks_Linear_8,42,5,42,127,585212252
17,6,20,Ticks_Linear_8,43,1,48,20,585947932
17,6,20,Ticks_Linear_8,44,5,42,127,585991640
17,6,20,Ticks_Linear_8,45,1,48,25,586742956
17,6,20,Ticks_Linear_8,46,5,42,127,586771852
17,6,20,Ticks_Linear_8,47,5,42,127,587552100
17,6,20,Ticks_Linear_8,48,1,48,30,587572036
17,6,20,Ticks_Linear_8,49,1,48,22,587634960
17,6,20,Ticks_Linear_8,50,5,42,127,588322120
17,6,20,Ticks_Linear_8,51,1,48,22,588361948
17,6,20,Ticks_Linear_8,52,5,42,127,589092092
17,6,20,Ticks_Linear_8,53,1,48,30,589157628
17,6,20,Ticks_Linear_8,54,5,42,127,589862136
17,6,20,Ticks_Linear_8,55,1,48,23,589885132
17,6,20,Ticks_Linear_8,56,1,48,33,590627712
17,6,20,Ticks_Linear_8,57,5,42,127,590632320
17,6,20,Ticks_Linear_8,58,1,48,35,591379580
17,6,20,Ticks_Linear_8,59,5,42,127,591402292
17,6,20,Ticks_Linear_8,60,1,48,26,592146696
17,6,20,Ticks_Linear_8,61,5,42,127,592162168
17,6,20,Ticks_Linear_8,62,5,42,127,592922124
17,6,20,Ticks_Linear_8,63,1,48,26,592963672
17,6,20,Ticks_Linear_8,64,5,42,127,593681832
17,6,20,Ticks_Linear_8,65,1,48,32,593737296
17,6,20,Ticks_Linear_8,66,5,42,127,594441704
17,6,20,Ticks_Linear_8,67,1,48,40,594502560
17,6,20,Ticks_Linear_8,68,5,42,127,595202556
17,6,20,Ticks_Linear_8,69,1,48,32,595305872
17,6,20,Ticks_Linear_8,70,1,48,22,595369396
17,6,20,Ticks_Linear_8,71,5,42,127,595962184
17,6,20,Ticks_Linear_8,72,1,48,27,595968956
17,6,20,Ticks_Linear_8,73,1,48,30,596697196
17,6,20,Ticks_Linear_8,74,5,42,127,596711888
17,6,20,Ticks_Linear_8,75,1,48,28,597430388
17,6,20,Ticks_Linear_8,76,5,42,127,597462568
17,6,20,Ticks_Linear_8,77,1,48,33,598176876
17,6,20,Ticks_Linear_8,78,5,42,127,598211908
17,6,20,Ticks_Linear_8,79,5,42,127,598961624
17,6,20,Ticks_Linear_8,80,1,48,20,598988960
17,6,20,Ticks_Linear_8,81,5,42,127,599701840
17,6,20,Ticks_Linear_8,82,1,48,33,599714000
17,6,20,Ticks_Linear_8,83,1,48,30,600369032
17,6,20,Ticks_Linear_8,84,5,42,127,600442200
17,6,20,Ticks_Linear_8,85,1,48,27,601118000
17,6,20,Ticks_Linear_8,86,1,48,21,601169260
17,6,20,Ticks_Linear_8,87,5,42,127,601181496
17,6,20,Ticks_Linear_8,88,1,48,39,601876108
17,6,20,Ticks_Linear_8,89,5,42,127,601921860
17,6,20,Ticks_Linear_8,90,1,48,29,602624104
17,6,20,Ticks_Linear_8,91,5,42,127,602662148
17,6,20,Ticks_Linear_8,92,1,48,29,603371576
17,6,20,Ticks_Linear_8,93,5,42,127,603392468
17,6,20,Ticks_Linear_8,94,1,48,26,604120040
17,6,20,Ticks_Linear_8,95,5,42,127,604121768
17,6,20,Ticks_Linear_8,96,1,48,38,604789640
17,6,20,Ticks_Linear_8,97,5,42,127,604851592
17,6,20,Ticks_Linear_8,98,1,48,36,605476928
17,6,20,Ticks_Linear_8,99,1,48,25,605528864
17,6,20,Ticks_Linear_8,100,5,42,127,605581544
17,6,20,Ticks_Linear_8,101,1,48,29,606281200
17,6,20,Ticks_Linear_8,102,5,42,127,606311740
17,6,20,Ticks_Linear_8,103,1,48,39,606979228
17,6,20,Ticks_Linear_8,104,5,42,127,607031548
17,6,20,Ticks_Linear_8,105,1,48,31,607694832
17,6,20,Ticks_Linear_8,106,5,42,127,607751624
17,6,20,Ticks_Linear_8,107,1,48,35,608408956
17,6,20,Ticks_Linear_8,108,5,42,127,608472548
17,6,20,Ticks_Linear_8,109,1,48,21,608474468
17,6,20,Ticks_Linear_8,110,1,48,29,609147280
17,6,20,Ticks_Linear_8,111,5,42,127,609201384
17,6,20,Ticks_Linear_8,112,1,48,17,609912848
17,6,20,Ticks_Linear_8,113,5,42,127,609922532
17,6,20,Ticks_Linear_8,114,1,48,20,610584584
17,6,20,Ticks_Linear_8,115,5,42,127,610642264
17,6,20,Ticks_Linear_8,116,1,48,34,611338896
17,6,20,Ticks_Linear_8,117,5,42,127,611352192
17,6,20,Ticks_Linear_8,118,1,48,29,612046064
17,6,20,Ticks_Linear_8,119,5,42,127,612061660
17,6,20,Ticks_Linear_8,120,1,48,32,612767884
17,6,20,Ticks_Linear_8,121,5,42,127,612772192
17,6,20,Ticks_Linear_8,122,1,48,21,613468996
17,6,20,Ticks_Linear_8,123,5,42,127,613481904
17,6,20,Ticks_Linear_8,124,5,42,127,614182352
17,6,20,Ticks_Linear_8,125,1,48,18,614185612
17,6,20,Ticks_Linear_8,126,1,48,21,614832708
17,6,20,Ticks_Linear_8,127,5,42,127,614881792
17,6,20,Ticks_Linear_8,128,1,48,24,615524920
17,6,20,Ticks_Linear_8,129,5,42,127,615581936
17,6,20,Ticks_Linear_8,130,1,48,27,616245624
17,6,20,Ticks_Linear_8,131,5,42,127,616281552
17,6,20,Ticks_Linear_8,132,1,48,22,616955456
17,6,20,Ticks_Linear_8,133,5,42,127,616981820
17,6,20,Ticks_Linear_8,134,5,42,127,617672176
17,6,20,Ticks_Linear_8,135,1,48,24,617694356
17,6,20,Ticks_Linear_8,136,1,48,29,618320016
17,6,20,Ticks_Linear_8,137,5,42,127,618362512
17,6,20,Ticks_Linear_8,138,5,42,127,619052644
17,6,20,Ticks_Linear_8,139,1,48,21,619067048
17,6,20,Ticks_Linear_8,140,1,48,21,619738436
17,6,20,Ticks_Linear_8,141,5,42,127,619741548
17,6,20,Ticks_Linear_8,142,1,48,17,620403220
17,6,20,Ticks_Linear_8,143,5,42,127,620431672
17,6,20,Ticks_Linear_8,144,1,48,22,621093644
17,6,20,Ticks_Linear_8,145,5,42,127,621111704
17,6,20,Ticks_Linear_8,146,5,42,127,621791496
17,6,20,Ticks_Linear_8,147,1,48,21,621840596
17,6,20,Ticks_Linear_8,148,5,42,127,622471528
17,6,20,Ticks_Linear_8,149,1,48,33,622494152
17,6,20,Ticks_Linear_8,150,1,48,16,623098548
17,6,20,Ticks_Linear_8,151,5,42,127,623151552
17,6,20,Ticks_Linear_8,152,1,48,24,623760944
17,6,20,Ticks_Linear_8,153,5,42,127,623832456
17,6,20,Ticks_Linear_8,154,1,48,17,623840940
17,6,20,Ticks_Linear_8,155,1,48,17,624450972
17,6,20,Ticks_Linear_8,156,5,42,127,624512464
17,6,20,Ticks_Linear_8,157,1,48,19,625158188
17,6,20,Ticks_Linear_8,158,5,42,127,625182104
17,6,20,Ticks_Linear_8,159,1,48,18,625805024
17,6,20,Ticks_Linear_8,160,5,42,127,625851644
17,6,20,Ticks_Linear_8,161,5,42,127,626521444
17,6,20,Ticks_Linear_8,162,1,48,16,626530240
17,6,20,Ticks_Linear_8,163,1,48,18,627143084
17,6,20,Ticks_Linear_8,164,5,42,127,627192244
17,6,20,Ticks_Linear_8,165,1,48,23,627817804
17,6,20,Ticks_Linear_8,166,5,42,127,627851568
17,6,20,Ticks_Linear_8,167,1,48,20,628492880
17,6,20,Ticks_Linear_8,168,5,42,127,628512084
17,6,20,Ticks_Linear_8,169,1,48,20,629150636
17,6,20,Ticks_Linear_8,170,5,42,127,629171460
17,6,20,Ticks_Linear_8,171,1,48,27,629818920
17,6,20,Ticks_Linear_8,172,5,42,127,629832200
17,6,20,Ticks_Linear_8,173,5,42,127,630491432
17,6,20,Ticks_Linear_8,174,1,48,37,630516668
17,6,20,Ticks_Linear_8,175,5,42,127,631141932
17,6,20,Ticks_Linear_8,176,1,48,43,631168368
17,6,20,Ticks_Linear_8,177,1,48,46,631787572
17,6,20,Ticks_Linear_8,178,5,42,127,631791952
17,6,20,Ticks_Linear_8,179,1,48,45,632369528
17,6,20,Ticks_Linear_8,180,5,42,127,632442080
17,6,20,Ticks_Linear_8,181,1,48,47,632789252
17,6,20,Ticks_Linear_8,182,5,42,127,633091348
17,6,20,Ticks_Linear_8,183,1,48,38,633704812
17,6,20,Ticks_Linear_8,184,5,42,127,633741640
17,6,20,Ticks_Linear_8,185,5,42,127,634381656
17,6,20,Ticks_Linear_8,186,1,48,33,634397948
17,6,20,Ticks_Linear_8,187,5,42,127,635021616
17,6,20,Ticks_Linear_8,188,1,48,33,635081928
17,6,20,Ticks_Linear_8,189,5,42,127,635661700
17,6,20,Ticks_Linear_8,190,1,48,35,635719796
17,6,20,Ticks_Linear_8,191,5,42,127,636301660
17,6,20,Ticks_Linear_8,192,1,48,36,636333928
17,6,20,Ticks_Linear_8,193,5,42,127,636941668
17,6,20,Ticks_Linear_8,194,1,48,34,636968948
17,6,20,Ticks_Linear_8,195,5,42,127,637571684
17,6,20,Ticks_Linear_8,196,1,48,36,637592672
17,6,20,Ticks_Linear_8,197,1,48,38,638169340
17,6,20,Ticks_Linear_8,198,5,42,127,638202416
17,6,20,Ticks_Linear_8,199,5,42,127,638831920
17,6,20,Ticks_Linear_8,200,1,48,28,638834808
17,6,20,Ticks_Linear_8,201,1,48,32,639450132
17,6,20,Ticks_Linear_8,202,5,42,127,639461680
17,6,20,Ticks_Linear_8,203,1,48,32,640076548
17,6,20,Ticks_Linear_8,204,5,42,127,640091624
17,6,20,Ticks_Linear_8,205,5,42,127,640711976
17,6,20,Ticks_Linear_8,206,1,48,37,640719948
17,6,20,Ticks_Linear_8,207,1,48,27,640779968
17,6,20,Ticks_Linear_8,208,1,48,28,641329920
17,6,20,Ticks_Linear_8,209,5,42,127,641331648
17,6,20,Ticks_Linear_8,210,1,48,34,641925412
17,6,20,Ticks_Linear_8,211,5,42,127,641952292
17,6,20,Ticks_Linear_8,212,1,48,29,642549196
17,6,20,Ticks_Linear_8,213,5,42,127,642571524
17,6,20,Ticks_Linear_8,214,1,48,27,643171216
17,6,20,Ticks_Linear_8,215,5,42,127,643192192
17,6,20,Ticks_Linear_8,216,5,42,127,643801408
17,6,20,Ticks_Linear_8,217,1,48,22,643817752
17,6,20,Ticks_Linear_8,218,1,48,29,644399148
17,6,20,Ticks_Linear_8,219,5,42,127,644411900
17,6,20,Ticks_Linear_8,220,1,48,22,644986596
17,6,20,Ticks_Linear_8,221,5,42,127,645022304
17,6,20,Ticks_Linear_8,222,5,42,127,645632344
17,6,20,Ticks_Linear_8,223,1,48,27,645639428
17,6,20,Ticks_Linear_8,224,1,48,30,646227392
17,6,20,Ticks_Linear_8,225,5,42,127,646241792
17,6,20,Ticks_Linear_8,226,1,48,25,646814776
17,6,20,Ticks_Linear_8,227,5,42,127,646841804
17,6,20,Ticks_Linear_8,228,1,48,19,647418148
17,6,20,Ticks_Linear_8,229,5,42,127,647441668
17,6,20,Ticks_Linear_8,230,5,42,127,648041936
17,6,20,Ticks_Linear_8,231,1,48,28,648055664
17,6,20,Ticks_Linear_8,232,5,42,127,648642024
17,6,20,Ticks_Linear_8,233,1,48,34,648673772
17,6,20,Ticks_Linear_8,234,1,48,34,649237216
17,6,20,Ticks_Linear_8,235,5,42,127,649241976
17,6,20,Ticks_Linear_8,236,5,42,127,649831976
17,6,20,Ticks_Linear_8,237,1,48,32,649867004
17,6,20,Ticks_Linear_8,238,1,48,30,650385060
17,6,20,Ticks_Linear_8,239,5,42,127,650421812
17,6,20,Ticks_Linear_8,240,1,48,35,650976996
17,6,20,Ticks_Linear_8,241,5,42,127,651011512
17,6,20,Ticks_Linear_8,242,1,48,32,651590572
17,6,20,Ticks_Linear_8,243,5,42,127,651602352
17,6,20,Ticks_Linear_8,244,1,48,31,652184004
17,6,20,Ticks_Linear_8,245,5,42,127,652192048
17,6,20,Ticks_Linear_8,246,5,42,127,652771728
17,6,20,Ticks_Linear_8,247,1,48,24,652809076
17,6,20,Ticks_Linear_8,248,5,42,127,653352252
17,6,20,Ticks_Linear_8,249,1,48,28,653373536
17,6,20,Ticks_Linear_8,250,5,42,127,653932004
17,6,20,Ticks_Linear_8,251,1,48,35,653945064
17,6,20,Ticks_Linear_8,252,1,48,26,654479180
17,6,20,Ticks_Linear_8,253,5,42,127,654511676
17,6,20,Ticks_Linear_8,254,1,48,27,655068128
17,6,20,Ticks_Linear_8,255,5,42,127,655092024
17,6,20,Ticks_Linear_8,256,5,42,127,655661416
17,6,20,Ticks_Linear_8,257,1,48,25,655683672
17,6,20,Ticks_Linear_8,258,5,42,127,656231676
17,6,20,Ticks_Linear_8,259,1,48,30,656236280
17,6,20,Ticks_Linear_8,260,1,48,24,656777052
17,6,20,Ticks_Linear_8,261,5,42,127,656802220
17,6,20,Ticks_Linear_8,262,1,48,27,657368100
17,6,20,Ticks_Linear_8,263,5,42,127,657371732
17,6,20,Ticks_Linear_8,264,5,42,127,657942024
17,6,20,Ticks_Linear_8,265,1,48,23,657958368
17,6,20,Ticks_Linear_8,266,1,48,24,658461848
17,6,20,Ticks_Linear_8,267,5,42,127,658501884
17,6,20,Ticks_Linear_8,268,5,42,127,659062052
17,6,20,Ticks_Linear_8,269,1,48,27,659081992
17,6,20,Ticks_Linear_8,270,5,42,127,659622216
17,6,20,Ticks_Linear_8,271,1,48,22,659697848
17,6,20,Ticks_Linear_8,272,5,42,127,660182528
17,6,20,Ticks_Linear_8,273,1,48,20,660282264
17,6,20,Ticks_Linear_8,274,5,42,127,660741648
17,6,20,Ticks_Linear_8,275,1,48,24,660832860
17,6,20,Ticks_Linear_8,276,5,42,127,661292344
17,6,20,Ticks_Linear_8,277,1,48,21,661434360
17,6,20,Ticks_Linear_8,278,5,42,127,661842488
17,6,20,Ticks_Linear_8,279,1,48,21,661992516
17,6,20,Ticks_Linear_8,280,5,42,127,662392408
17,6,20,Ticks_Linear_8,281,1,48,23,662552856
17,6,20,Ticks_Linear_8,282,5,42,127,662942036
17,6,20,Ticks_Linear_8,283,1,48,22,663041448
17,6,20,Ticks_Linear_8,284,5,42,127,663492108
17,6,20,Ticks_Linear_8,285,1,48,21,663554360
17,6,20,Ticks_Linear_8,286,5,42,127,664031564
17,6,20,Ticks_Linear_8,287,1,48,19,664045216
17,6,20,Ticks_Linear_8,288,1,48,21,664514972
17,6,20,Ticks_Linear_8,289,5,42,127,664572208
17,6,20,Ticks_Linear_8,290,1,48,23,665066160
17,6,20,Ticks_Linear_8,291,5,42,127,665112060
17,6,20,Ticks_Linear_8,292,1,48,21,665646316
17,6,20,Ticks_Linear_8,293,5,42,127,665651516
17,6,20,Ticks_Linear_8,294,1,48,22,666181740
17,6,20,Ticks_Linear_8,295,5,42,127,666192244
17,6,20,Ticks_Linear_8,296,1,48,26,666689112
17,6,20,Ticks_Linear_8,297,5,42,127,666721756
17,6,20,Ticks_Linear_8,298,5,42,127,667252172
17,6,20,Ticks_Linear_8,299,1,48,22,667272264
17,6,20,Ticks_Linear_8,300,1,48,22,667772068
17,6,20,Ticks_Linear_8,301,5,42,127,667781380
17,6,20,Ticks_Linear_8,302,1,48,24,668280796
17,6,20,Ticks_Linear_8,303,5,42,127,668312012
17,6,20,Ticks_Linear_8,304,1,48,23,668828916
17,6,20,Ticks_Linear_8,305,5,42,127,668842344
17,6,20,Ticks_Linear_8,306,1,48,19,669357460
17,6,20,Ticks_Linear_8,307,5,42,127,669361540
17,6,20,Ticks_Linear_8,308,1,48,21,669833144
17,6,20,Ticks_Linear_8,309,5,42,127,669881856
17,6,20,Ticks_Linear_8,310,1,48,24,670397720
17,6,20,Ticks_Linear_8,311,5,42,127,670401952
17,6,20,Ticks_Linear_8,312,1,48,19,670916536
17,6,20,Ticks_Linear_8,313,5,42,127,670922044
17,6,20,Ticks_Linear_8,314,5,42,127,671442220
17,6,20,Ticks_Linear_8,315,1,48,19,671445184
17,6,20,Ticks_Linear_8,316,1,48,16,671946332
17,6,20,Ticks_Linear_8,317,5,42,127,671952136
17,6,20,Ticks_Linear_8,318,1,48,22,672460864
17,6,20,Ticks_Linear_8,319,5,42,127,672462656
17,6,20,Ticks_Linear_8,320,5,42,127,672972144
17,6,20,Ticks_Linear_8,321,1,48,27,673443916
17,6,20,Ticks_Linear_8,322,5,42,127,673482084
17,6,20,Ticks_Linear_8,323,5,42,127,673992016
17,6,20,Ticks_Linear_8,324,1,48,28,673998868
17,6,20,Ticks_Linear_8,325,5,42,127,674491772
17,6,20,Ticks_Linear_8,326,1,48,30,674532648
17,6,20,Ticks_Linear_8,327,5,42,127,674991752
17,6,20,Ticks_Linear_8,328,1,48,26,675022384
17,6,20,Ticks_Linear_8,329,5,42,127,675492112
17,6,20,Ticks_Linear_8,330,1,48,26,675496192
17,6,20,Ticks_Linear_8,331,1,48,26,675956448
17,6,20,Ticks_Linear_8,332,5,42,127,675992084
17,6,20,Ticks_Linear_8,333,1,48,29,676455688
17,6,20,Ticks_Linear_8,334,5,42,127,676491768
17,6,20,Ticks_Linear_8,335,5,42,127,676982260
17,6,20,Ticks_Linear_8,336,1,48,26,677004368
17,6,20,Ticks_Linear_8,337,5,42,127,677471552
17,6,20,Ticks_Linear_8,338,1,48,27,677484160
17,6,20,Ticks_Linear_8,339,1,48,21,677953020
17,6,20,Ticks_Linear_8,340,5,42,127,677961956
17,6,20,Ticks_Linear_8,341,1,48,24,678403852
17,6,20,Ticks_Linear_8,342,5,42,127,678451692
17,6,20,Ticks_Linear_8,343,1,48,26,678917592
17,6,20,Ticks_Linear_8,344,5,42,127,678942032
17,6,20,Ticks_Linear_8,0,9999,9999,9999,568360048
17,6,20,Ticks_Linear_8,1,9999,9999,9999,569179236
17,6,20,Ticks_Linear_8,2,9999,9999,9999,569999464
17,6,20,Ticks_Linear_8,3,9999,9999,9999,570819668
17,6,20,Ticks_Linear_8,4,9999,9999,9999,571639876
17,6,20,Ticks_Linear_8,5,9999,9999,9999,572449868
17,6,20,Ticks_Linear_8,6,9999,9999,9999,573259836
17,6,20,Ticks_Linear_8,7,9999,9999,9999,574069860
17,6,20,Ticks_Linear_8,8,9999,9999,9999,574879828
17,6,20,Ticks_Linear_8,9,9999,9999,9999,575689796
17,6,20,Ticks_Linear_8,10,9999,9999,9999,576489596
17,6,20,Ticks_Linear_8,11,9999,9999,9999,577289336
17,6,20,Ticks_Linear_8,12,9999,9999,9999,578090056
17,6,20,Ticks_Linear_8,13,9999,9999,9999,578889856
17,6,20,Ticks_Linear_8,14,9999,9999,9999,579689580
17,6,20,Ticks_Linear_8,15,9999,9999,9999,580480108
17,6,20,Ticks_Linear_8,16,9999,9999,9999,581279832
17,6,20,Ticks_Linear_8,17,9999,9999,9999,582069316
17,6,20,Ticks_Linear_8,18,9999,9999,9999,582859844
17,6,20,Ticks_Linear_8,19,9999,9999,9999,583649384
17,6,20,Ticks_Linear_8,20,9999,9999,9999,584429668
17,6,20,Ticks_Linear_8,21,9999,9999,9999,585209956
17,6,20,Ticks_Linear_8,22,9999,9999,9999,585989196
17,6,20,Ticks_Linear_8,23,9999,9999,9999,586769484
17,6,20,Ticks_Linear_8,24,9999,9999,9999,587549800
17,6,20,Ticks_Linear_8,25,9999,9999,9999,588319824
17,6,20,Ticks_Linear_8,26,9999,9999,9999,589089868
17,6,20,Ticks_Linear_8,27,9999,9999,9999,589859912
17,6,20,Ticks_Linear_8,28,9999,9999,9999,590629952
17,6,20,Ticks_Linear_8,29,9999,9999,9999,591399996
17,6,20,Ticks_Linear_8,30,9999,9999,9999,592159796
17,6,20,Ticks_Linear_8,31,9999,9999,9999,592919656
17,6,20,Ticks_Linear_8,32,9999,9999,9999,593679460
17,6,20,Ticks_Linear_8,33,9999,9999,9999,594439264
17,6,20,Ticks_Linear_8,34,9999,9999,9999,595200108
17,6,20,Ticks_Linear_8,35,9999,9999,9999,595959892
17,6,20,Ticks_Linear_8,36,9999,9999,9999,596709448
17,6,20,Ticks_Linear_8,37,9999,9999,9999,597460052
17,6,20,Ticks_Linear_8,38,9999,9999,9999,598209612
17,6,20,Ticks_Linear_8,39,9999,9999,9999,598959180
17,6,20,Ticks_Linear_8,40,9999,9999,9999,599699544
17,6,20,Ticks_Linear_8,41,9999,9999,9999,600439904
17,6,20,Ticks_Linear_8,42,9999,9999,9999,601179200
17,6,20,Ticks_Linear_8,43,9999,9999,9999,601919564
17,6,20,Ticks_Linear_8,44,9999,9999,9999,602659928
17,6,20,Ticks_Linear_8,45,9999,9999,9999,603390024
17,6,20,Ticks_Linear_8,46,9999,9999,9999,604119108
17,6,20,Ticks_Linear_8,47,9999,9999,9999,604849224
17,6,20,Ticks_Linear_8,48,9999,9999,9999,605579324
17,6,20,Ticks_Linear_8,49,9999,9999,9999,606309444
17,6,20,Ticks_Linear_8,50,9999,9999,9999,607029324
17,6,20,Ticks_Linear_8,51,9999,9999,9999,607749180
17,6,20,Ticks_Linear_8,52,9999,9999,9999,608470104
17,6,20,Ticks_Linear_8,53,9999,9999,9999,609199164
17,6,20,Ticks_Linear_8,54,9999,9999,9999,609920088
17,6,20,Ticks_Linear_8,55,9999,9999,9999,610639968
17,6,20,Ticks_Linear_8,56,9999,9999,9999,611349584
17,6,20,Ticks_Linear_8,57,9999,9999,9999,612059216
17,6,20,Ticks_Linear_8,58,9999,9999,9999,612769896
17,6,20,Ticks_Linear_8,59,9999,9999,9999,613479532
17,6,20,Ticks_Linear_8,60,9999,9999,9999,614179908
17,6,20,Ticks_Linear_8,61,9999,9999,9999,614879348
17,6,20,Ticks_Linear_8,62,9999,9999,9999,615579712
17,6,20,Ticks_Linear_8,63,9999,9999,9999,616279108
17,6,20,Ticks_Linear_8,64,9999,9999,9999,616979524
17,6,20,Ticks_Linear_8,65,9999,9999,9999,617669732
17,6,20,Ticks_Linear_8,66,9999,9999,9999,618359920
17,6,20,Ticks_Linear_8,67,9999,9999,9999,619050052
17,6,20,Ticks_Linear_8,68,9999,9999,9999,619739252
17,6,20,Ticks_Linear_8,69,9999,9999,9999,620429376
17,6,20,Ticks_Linear_8,70,9999,9999,9999,621109336
17,6,20,Ticks_Linear_8,71,9999,9999,9999,621789276
17,6,20,Ticks_Linear_8,72,9999,9999,9999,622469232
17,6,20,Ticks_Linear_8,73,9999,9999,9999,623149180
17,6,20,Ticks_Linear_8,74,9999,9999,9999,623830084
17,6,20,Ticks_Linear_8,75,9999,9999,9999,624510020
17,6,20,Ticks_Linear_8,76,9999,9999,9999,625179736
17,6,20,Ticks_Linear_8,77,9999,9999,9999,625849424
17,6,20,Ticks_Linear_8,78,9999,9999,9999,626519148
17,6,20,Ticks_Linear_8,79,9999,9999,9999,627189872
17,6,20,Ticks_Linear_8,80,9999,9999,9999,627849272
17,6,20,Ticks_Linear_8,81,9999,9999,9999,628509788
17,6,20,Ticks_Linear_8,82,9999,9999,9999,629169240
17,6,20,Ticks_Linear_8,83,9999,9999,9999,629829756
17,6,20,Ticks_Linear_8,84,9999,9999,9999,630489212
17,6,20,Ticks_Linear_8,85,9999,9999,9999,631139412
17,6,20,Ticks_Linear_8,86,9999,9999,9999,631789660
17,6,20,Ticks_Linear_8,87,9999,9999,9999,632439860
17,6,20,Ticks_Linear_8,88,9999,9999,9999,633089128
17,6,20,Ticks_Linear_8,89,9999,9999,9999,633739344
17,6,20,Ticks_Linear_8,90,9999,9999,9999,634379360
17,6,20,Ticks_Linear_8,91,9999,9999,9999,635019320
17,6,20,Ticks_Linear_8,92,9999,9999,9999,635659328
17,6,20,Ticks_Linear_8,93,9999,9999,9999,636299364
17,6,20,Ticks_Linear_8,94,9999,9999,9999,636939372
17,6,20,Ticks_Linear_8,95,9999,9999,9999,637569092
17,6,20,Ticks_Linear_8,96,9999,9999,9999,638199896
17,6,20,Ticks_Linear_8,97,9999,9999,9999,638829624
17,6,20,Ticks_Linear_8,98,9999,9999,9999,639459384
17,6,20,Ticks_Linear_8,99,9999,9999,9999,640089180
17,6,20,Ticks_Linear_8,100,9999,9999,9999,640709756
17,6,20,Ticks_Linear_8,101,9999,9999,9999,641329216
17,6,20,Ticks_Linear_8,102,9999,9999,9999,641949776
17,6,20,Ticks_Linear_8,103,9999,9999,9999,642569304
17,6,20,Ticks_Linear_8,104,9999,9999,9999,643189820
17,6,20,Ticks_Linear_8,105,9999,9999,9999,643799112
17,6,20,Ticks_Linear_8,106,9999,9999,9999,644409456
17,6,20,Ticks_Linear_8,107,9999,9999,9999,645019712
17,6,20,Ticks_Linear_8,108,9999,9999,9999,645630048
17,6,20,Ticks_Linear_8,109,9999,9999,9999,646239348
17,6,20,Ticks_Linear_8,110,9999,9999,9999,646839364
17,6,20,Ticks_Linear_8,111,9999,9999,9999,647439448
17,6,20,Ticks_Linear_8,112,9999,9999,9999,648039492
17,6,20,Ticks_Linear_8,113,9999,9999,9999,648639580
17,6,20,Ticks_Linear_8,114,9999,9999,9999,649239680
17,6,20,Ticks_Linear_8,115,9999,9999,9999,649829456
17,6,20,Ticks_Linear_8,116,9999,9999,9999,650419292
17,6,20,Ticks_Linear_8,117,9999,9999,9999,651009140
17,6,20,Ticks_Linear_8,118,9999,9999,9999,651599980
17,6,20,Ticks_Linear_8,119,9999,9999,9999,652189752
17,6,20,Ticks_Linear_8,120,9999,9999,9999,652769360
17,6,20,Ticks_Linear_8,121,9999,9999,9999,653349956
17,6,20,Ticks_Linear_8,122,9999,9999,9999,653929560
17,6,20,Ticks_Linear_8,123,9999,9999,9999,654509156
17,6,20,Ticks_Linear_8,124,9999,9999,9999,655089728
17,6,20,Ticks_Linear_8,125,9999,9999,9999,655659124
17,6,20,Ticks_Linear_8,126,9999,9999,9999,656229452
17,6,20,Ticks_Linear_8,127,9999,9999,9999,656799852
17,6,20,Ticks_Linear_8,128,9999,9999,9999,657369216
17,6,20,Ticks_Linear_8,129,9999,9999,9999,657939576
17,6,20,Ticks_Linear_8,130,9999,9999,9999,658499660
17,6,20,Ticks_Linear_8,131,9999,9999,9999,659059832
17,6,20,Ticks_Linear_8,132,9999,9999,9999,659619920
17,6,20,Ticks_Linear_8,133,9999,9999,9999,660180084
17,6,20,Ticks_Linear_8,134,9999,9999,9999,660739128
17,6,20,Ticks_Linear_8,135,9999,9999,9999,661290048
17,6,20,Ticks_Linear_8,136,9999,9999,9999,661839972
17,6,20,Ticks_Linear_8,137,9999,9999,9999,662389816
17,6,20,Ticks_Linear_8,138,9999,9999,9999,662939740
17,6,20,Ticks_Linear_8,139,9999,9999,9999,663489660
17,6,20,Ticks_Linear_8,140,9999,9999,9999,664029268
17,6,20,Ticks_Linear_8,141,9999,9999,9999,664569912
17,6,20,Ticks_Linear_8,142,9999,9999,9999,665109616
17,6,20,Ticks_Linear_8,143,9999,9999,9999,665649224
17,6,20,Ticks_Linear_8,144,9999,9999,9999,666189948
17,6,20,Ticks_Linear_8,145,9999,9999,9999,666719312
17,6,20,Ticks_Linear_8,146,9999,9999,9999,667249728
17,6,20,Ticks_Linear_8,147,9999,9999,9999,667779160
17,6,20,Ticks_Linear_8,148,9999,9999,9999,668309568
17,6,20,Ticks_Linear_8,149,9999,9999,9999,668840048
17,6,20,Ticks_Linear_8,150,9999,9999,9999,669359172
17,6,20,Ticks_Linear_8,151,9999,9999,9999,669879412
17,6,20,Ticks_Linear_8,152,9999,9999,9999,670399580
17,6,20,Ticks_Linear_8,153,9999,9999,9999,670919748
17,6,20,Ticks_Linear_8,154,9999,9999,9999,671439996
17,6,20,Ticks_Linear_8,155,9999,9999,9999,671949916
17,6,20,Ticks_Linear_8,156,9999,9999,9999,672459848
17,6,20,Ticks_Linear_8,157,9999,9999,9999,672969848
17,6,20,Ticks_Linear_8,158,9999,9999,9999,673479788
17,6,20,Ticks_Linear_8,159,9999,9999,9999,673989720
17,6,20,Ticks_Linear_8,160,9999,9999,9999,674489404
17,6,20,Ticks_Linear_8,161,9999,9999,9999,674989160
17,6,20,Ticks_Linear_8,162,9999,9999,9999,675489888
17,6,20,Ticks_Linear_8,163,9999,9999,9999,675989564
17,6,20,Ticks_Linear_8,164,9999,9999,9999,676489324
17,6,20,Ticks_Linear_8,165,9999,9999,9999,676979816
17,6,20,Ticks_Linear_8,166,9999,9999,9999,677469256
17,6,20,Ticks_Linear_8,167,9999,9999,9999,677959736
17,6,20,Ticks_Linear_8,168,9999,9999,9999,678449248
17,6,20,Ticks_Linear_8,169,9999,9999,9999,678939736
17,7,10,Ticks_ISO_T2_5,0,5,42,127,693783028
17,7,10,Ticks_ISO_T2_5,1,5,42,127,694282552
17,7,10,Ticks_ISO_T2_5,2,5,42,127,694783296
17,7,10,Ticks_ISO_T2_5,3,5,42,127,695282920
17,7,10,Ticks_ISO_T2_5,4,1,48,29,695761888
17,7,10,Ticks_ISO_T2_5,5,5,42,127,695782980
17,7,10,Ticks_ISO_T2_5,6,1,48,29,696255292
17,7,10,Ticks_ISO_T2_5,7,5,42,127,696282436
17,7,10,Ticks_ISO_T2_5,8,5,42,127,696783088
17,7,10,Ticks_ISO_T2_5,9,1,48,27,696785096
17,7,10,Ticks_ISO_T2_5,10,1,48,33,697266592
17,7,10,Ticks_ISO_T2_5,11,5,42,127,697283056
17,7,10,Ticks_ISO_T2_5,12,1,48,24,697775900
17,7,10,Ticks_ISO_T2_5,13,5,42,127,697782732
17,7,10,Ticks_ISO_T2_5,14,5,42,127,698283508
17,7,10,Ticks_ISO_T2_5,15,1,48,28,698286100
17,7,10,Ticks_ISO_T2_5,16,1,48,23,698774036
17,7,10,Ticks_ISO_T2_5,17,5,42,127,698783028
17,7,10,Ticks_ISO_T2_5,18,1,48,26,699247876
17,7,10,Ticks_ISO_T2_5,19,5,42,127,699282780
17,7,10,Ticks_ISO_T2_5,20,5,42,127,699782612
17,7,10,Ticks_ISO_T2_5,21,1,48,20,699831652
17,7,10,Ticks_ISO_T2_5,22,5,42,127,700283184
17,7,10,Ticks_ISO_T2_5,23,1,48,23,700287564
17,7,10,Ticks_ISO_T2_5,24,1,48,26,700739660
17,7,10,Ticks_ISO_T2_5,25,5,42,127,700782852
17,7,10,Ticks_ISO_T2_5,26,1,48,24,701281100
17,7,10,Ticks_ISO_T2_5,27,5,42,127,701282828
17,7,10,Ticks_ISO_T2_5,28,1,48,29,701765592
17,7,10,Ticks_ISO_T2_5,29,5,42,127,701783476
17,7,10,Ticks_ISO_T2_5,30,1,48,29,702253472
17,7,10,Ticks_ISO_T2_5,31,5,42,127,702283300
17,7,10,Ticks_ISO_T2_5,32,5,42,127,702782760
17,7,10,Ticks_ISO_T2_5,33,1,48,26,702793340
17,7,10,Ticks_ISO_T2_5,34,1,48,28,703266340
17,7,10,Ticks_ISO_T2_5,35,5,42,127,703282580
17,7,10,Ticks_ISO_T2_5,36,1,48,33,703748376
17,7,10,Ticks_ISO_T2_5,37,5,42,127,703783528
17,7,10,Ticks_ISO_T2_5,38,1,48,28,704279140
17,7,10,Ticks_ISO_T2_5,39,5,42,127,704282908
17,7,10,Ticks_ISO_T2_5,40,1,48,28,704761988
17,7,10,Ticks_ISO_T2_5,41,5,42,127,704782704
17,7,10,Ticks_ISO_T2_5,42,1,48,29,705269724
17,7,10,Ticks_ISO_T2_5,43,5,42,127,705282456
17,7,10,Ticks_ISO_T2_5,44,1,48,27,705733560
17,7,10,Ticks_ISO_T2_5,45,5,42,127,705783252
17,7,10,Ticks_ISO_T2_5,46,1,48,27,706248544
17,7,10,Ticks_ISO_T2_5,47,5,42,127,706282780
17,7,10,Ticks_ISO_T2_5,48,1,48,26,706768384
17,7,10,Ticks_ISO_T2_5,49,5,42,127,706782528
17,7,10,Ticks_ISO_T2_5,50,1,48,25,707260444
17,7,10,Ticks_ISO_T2_5,51,5,42,127,707283472
17,7,10,Ticks_ISO_T2_5,52,1,48,22,707755932
17,7,10,Ticks_ISO_T2_5,53,5,42,127,707783000
17,7,10,Ticks_ISO_T2_5,54,1,48,19,708265840
17,7,10,Ticks_ISO_T2_5,55,5,42,127,708282676
17,7,10,Ticks_ISO_T2_5,56,1,48,23,708749088
17,7,10,Ticks_ISO_T2_5,57,5,42,127,708782428
17,7,10,Ticks_ISO_T2_5,58,1,48,22,709280352
17,7,10,Ticks_ISO_T2_5,59,5,42,127,709283296
17,7,10,Ticks_ISO_T2_5,60,5,42,127,709782832
17,7,10,Ticks_ISO_T2_5,61,1,48,30,709787584
17,7,10,Ticks_ISO_T2_5,62,1,48,27,710270372
17,7,10,Ticks_ISO_T2_5,63,5,42,127,710282576
17,7,10,Ticks_ISO_T2_5,64,1,48,21,710763996
17,7,10,Ticks_ISO_T2_5,65,5,42,127,710783296
17,7,10,Ticks_ISO_T2_5,66,1,48,25,711241196
17,7,10,Ticks_ISO_T2_5,67,5,42,127,711283420
17,7,10,Ticks_ISO_T2_5,68,1,48,29,711764840
17,7,10,Ticks_ISO_T2_5,69,5,42,127,711782944
17,7,10,Ticks_ISO_T2_5,70,1,48,23,712274448
17,7,10,Ticks_ISO_T2_5,71,5,42,127,712282548
17,7,10,Ticks_ISO_T2_5,72,1,48,24,712775020
17,7,10,Ticks_ISO_T2_5,73,5,42,127,712783196
17,7,10,Ticks_ISO_T2_5,74,1,48,26,713246244
17,7,10,Ticks_ISO_T2_5,75,5,42,127,713283168
17,7,10,Ticks_ISO_T2_5,76,5,42,127,713782776
17,7,10,Ticks_ISO_T2_5,77,1,48,27,713801876
17,7,10,Ticks_ISO_T2_5,78,1,48,22,714260160
17,7,10,Ticks_ISO_T2_5,79,5,42,127,714283416
17,7,10,Ticks_ISO_T2_5,80,1,48,33,714747712
17,7,10,Ticks_ISO_T2_5,81,5,42,127,714783020
17,7,10,Ticks_ISO_T2_5,82,5,42,127,715282924
17,7,10,Ticks_ISO_T2_5,83,1,48,23,715304704
17,7,10,Ticks_ISO_T2_5,84,5,42,127,715782428
17,7,10,Ticks_ISO_T2_5,85,1,48,27,715802364
17,7,10,Ticks_ISO_T2_5,86,1,48,29,716270336
17,7,10,Ticks_ISO_T2_5,87,5,42,127,716283292
17,7,10,Ticks_ISO_T2_5,88,1,48,23,716767852
17,7,10,Ticks_ISO_T2_5,89,5,42,127,716782968
17,7,10,Ticks_ISO_T2_5,90,1,48,28,717280988
17,7,10,Ticks_ISO_T2_5,91,5,42,127,717282868
17,7,10,Ticks_ISO_T2_5,92,1,48,27,717760936
17,7,10,Ticks_ISO_T2_5,93,5,42,127,717783368
17,7,10,Ticks_ISO_T2_5,94,5,42,127,718282976
17,7,10,Ticks_ISO_T2_5,95,1,48,32,718305128
17,7,10,Ticks_ISO_T2_5,96,1,48,24,718771036
17,7,10,Ticks_ISO_T2_5,97,5,42,127,718782872
17,7,10,Ticks_ISO_T2_5,98,5,42,127,719282704
17,7,10,Ticks_ISO_T2_5,99,1,48,22,719284188
17,7,10,Ticks_ISO_T2_5,100,5,42,127,719783128
17,7,10,Ticks_ISO_T2_5,101,1,48,42,719793032
17,7,10,Ticks_ISO_T2_5,102,1,48,18,720281064
17,7,10,Ticks_ISO_T2_5,103,5,42,127,720282944
17,7,10,Ticks_ISO_T2_5,104,1,48,24,720776984
17,7,10,Ticks_ISO_T2_5,105,5,42,127,720782844
17,7,10,Ticks_ISO_T2_5,106,5,42,127,721282528
17,7,10,Ticks_ISO_T2_5,107,1,48,24,721293180
17,7,10,Ticks_ISO_T2_5,108,1,48,24,721772980
17,7,10,Ticks_ISO_T2_5,109,5,42,127,721783316
17,7,10,Ticks_ISO_T2_5,110,5,42,127,722282848
17,7,10,Ticks_ISO_T2_5,111,1,48,25,722314564
17,7,10,Ticks_ISO_T2_5,112,1,48,24,722773004
17,7,10,Ticks_ISO_T2_5,113,5,42,127,722782520
17,7,10,Ticks_ISO_T2_5,114,1,48,18,723229440
17,7,10,Ticks_ISO_T2_5,115,5,42,127,723283316
17,7,10,Ticks_ISO_T2_5,116,5,42,127,723782996
17,7,10,Ticks_ISO_T2_5,117,1,48,34,723795000
17,7,10,Ticks_ISO_T2_5,118,5,42,127,724282672
17,7,10,Ticks_ISO_T2_5,119,1,48,21,724321560
17,7,10,Ticks_ISO_T2_5,120,1,48,27,724764384
17,7,10,Ticks_ISO_T2_5,121,5,42,127,724782568
17,7,10,Ticks_ISO_T2_5,122,1,48,21,725275636
17,7,10,Ticks_ISO_T2_5,123,5,42,127,725283064
17,7,10,Ticks_ISO_T2_5,124,1,48,28,725772604
17,7,10,Ticks_ISO_T2_5,125,5,42,127,725782888
17,7,10,Ticks_ISO_T2_5,126,1,48,35,726260328
17,7,10,Ticks_ISO_T2_5,127,5,42,127,726282468
17,7,10,Ticks_ISO_T2_5,128,1,48,20,726775684
17,7,10,Ticks_ISO_T2_5,129,5,42,127,726783260
17,7,10,Ticks_ISO_T2_5,130,1,48,27,727276780
17,7,10,Ticks_ISO_T2_5,131,5,42,127,727283160
17,7,10,Ticks_ISO_T2_5,132,1,48,25,727737028
17,7,10,Ticks_ISO_T2_5,133,5,42,127,727782616
17,7,10,Ticks_ISO_T2_5,134,1,48,27,728278672
17,7,10,Ticks_ISO_T2_5,135,5,42,127,728282440
17,7,10,Ticks_ISO_T2_5,136,1,48,31,728772520
17,7,10,Ticks_ISO_T2_5,137,5,42,127,728783384
17,7,10,Ticks_ISO_T2_5,138,5,42,127,729282844
17,7,10,Ticks_ISO_T2_5,139,1,48,26,729287224
17,7,10,Ticks_ISO_T2_5,140,5,42,127,729782596
17,7,10,Ticks_ISO_T2_5,141,1,48,23,729794368
17,7,10,Ticks_ISO_T2_5,142,1,48,31,730239072
17,7,10,Ticks_ISO_T2_5,143,5,42,127,730283308
17,7,10,Ticks_ISO_T2_5,144,5,42,127,730783144
17,7,10,Ticks_ISO_T2_5,145,1,48,31,730800520
17,7,10,Ticks_ISO_T2_5,146,5,42,127,731282668
17,7,10,Ticks_ISO_T2_5,147,1,48,36,731309004
17,7,10,Ticks_ISO_T2_5,148,5,42,127,731782396
17,7,10,Ticks_ISO_T2_5,149,1,48,29,731799096
17,7,10,Ticks_ISO_T2_5,150,1,48,15,732280840
17,7,10,Ticks_ISO_T2_5,151,5,42,127,732283332
17,7,10,Ticks_ISO_T2_5,152,1,48,20,732775656
17,7,10,Ticks_ISO_T2_5,153,5,42,127,732783084
17,7,10,Ticks_ISO_T2_5,154,1,48,24,733254644
17,7,10,Ticks_ISO_T2_5,155,5,42,127,733282536
17,7,10,Ticks_ISO_T2_5,156,5,42,127,733783488
17,7,10,Ticks_ISO_T2_5,157,1,48,20,733795112
17,7,10,Ticks_ISO_T2_5,158,1,48,21,734279388
17,7,10,Ticks_ISO_T2_5,159,5,42,127,734283080
17,7,10,Ticks_ISO_T2_5,160,1,48,26,734747328
17,7,10,Ticks_ISO_T2_5,161,5,42,127,734783056
17,7,10,Ticks_ISO_T2_5,162,1,48,35,735263432
17,7,10,Ticks_ISO_T2_5,163,5,42,127,735282656
17,7,10,Ticks_ISO_T2_5,164,1,48,24,735780284
17,7,10,Ticks_ISO_T2_5,165,5,42,127,735783304
17,7,10,Ticks_ISO_T2_5,166,1,48,26,736269032
17,7,10,Ticks_ISO_T2_5,167,5,42,127,736282908
17,7,10,Ticks_ISO_T2_5,168,1,48,27,736779760
17,7,10,Ticks_ISO_T2_5,169,5,42,127,736782808
17,7,10,Ticks_ISO_T2_5,170,1,48,36,737274064
17,7,10,Ticks_ISO_T2_5,171,5,42,127,737282532
17,7,10,Ticks_ISO_T2_5,172,1,48,32,737763808
17,7,10,Ticks_ISO_T2_5,173,5,42,127,737783104
17,7,10,Ticks_ISO_T2_5,174,1,48,30,738275432
17,7,10,Ticks_ISO_T2_5,175,5,42,127,738282932
17,7,10,Ticks_ISO_T2_5,176,1,48,33,738767488
17,7,10,Ticks_ISO_T2_5,177,5,42,127,738782756
17,7,10,Ticks_ISO_T2_5,178,5,42,127,739283260
17,7,10,Ticks_ISO_T2_5,179,1,48,25,739292796
17,7,10,Ticks_ISO_T2_5,180,5,42,127,739783084
17,7,10,Ticks_ISO_T2_5,181,1,48,24,739785828
17,7,10,Ticks_ISO_T2_5,182,1,48,27,740280644
17,7,10,Ticks_ISO_T2_5,183,5,42,127,740282680
17,7,10,Ticks_ISO_T2_5,184,1,48,24,740775228
17,7,10,Ticks_ISO_T2_5,185,5,42,127,740782652
17,7,10,Ticks_ISO_T2_5,186,1,48,24,741246232
17,7,10,Ticks_ISO_T2_5,187,5,42,127,741283080
17,7,10,Ticks_ISO_T2_5,188,5,42,127,741782836
17,7,10,Ticks_ISO_T2_5,189,1,48,32,741807756
17,7,10,Ticks_ISO_T2_5,190,1,48,21,742271124
17,7,10,Ticks_ISO_T2_5,191,5,42,127,742282804
17,7,10,Ticks_ISO_T2_5,192,1,48,21,742768408
17,7,10,Ticks_ISO_T2_5,193,5,42,127,742783600
17,7,10,Ticks_ISO_T2_5,194,1,48,24,743281320
17,7,10,Ticks_ISO_T2_5,195,5,42,127,743282980
17,7,10,Ticks_ISO_T2_5,196,1,48,27,743754844
17,7,10,Ticks_ISO_T2_5,197,5,42,127,743782732
17,7,10,Ticks_ISO_T2_5,198,1,48,28,744278640
17,7,10,Ticks_ISO_T2_5,199,5,42,127,744282704
17,7,10,Ticks_ISO_T2_5,200,1,48,28,744781696
17,7,10,Ticks_ISO_T2_5,201,5,42,127,744783424
17,7,10,Ticks_ISO_T2_5,202,1,48,28,745259548
17,7,10,Ticks_ISO_T2_5,203,5,42,127,745282880
17,7,10,Ticks_ISO_T2_5,204,5,42,127,745782640
17,7,10,Ticks_ISO_T2_5,205,1,48,27,745784928
17,7,10,Ticks_ISO_T2_5,206,5,42,127,746283580
17,7,10,Ticks_ISO_T2_5,207,1,48,26,746288788
17,7,10,Ticks_ISO_T2_5,208,1,48,25,746741976
17,7,10,Ticks_ISO_T2_5,209,5,42,127,746783252
17,7,10,Ticks_ISO_T2_5,210,1,48,25,747234632
17,7,10,Ticks_ISO_T2_5,211,5,42,127,747282928
17,7,10,Ticks_ISO_T2_5,212,1,48,17,747780924
17,7,10,Ticks_ISO_T2_5,213,5,42,127,747782508
17,7,10,Ticks_ISO_T2_5,214,1,48,29,748249224
17,7,10,Ticks_ISO_T2_5,215,5,42,127,748283376
17,7,10,Ticks_ISO_T2_5,216,5,42,127,748783060
17,7,10,Ticks_ISO_T2_5,217,1,48,20,748809848
17,7,10,Ticks_ISO_T2_5,218,5,42,127,749282516
17,7,10,Ticks_ISO_T2_5,219,1,48,25,749286072
17,7,10,Ticks_ISO_T2_5,220,1,48,27,749736520
17,7,10,Ticks_ISO_T2_5,221,5,42,127,749783524
17,7,10,Ticks_ISO_T2_5,222,5,42,127,750283356
17,7,10,Ticks_ISO_T2_5,223,1,48,24,750775844
17,7,10,Ticks_ISO_T2_5,224,5,42,127,750782752
17,7,10,Ticks_ISO_T2_5,225,1,48,27,751250060
17,7,10,Ticks_ISO_T2_5,226,5,42,127,751282504
17,7,10,Ticks_ISO_T2_5,227,5,42,127,751783380
17,7,10,Ticks_ISO_T2_5,228,1,48,38,751811208
17,7,10,Ticks_ISO_T2_5,229,1,48,28,752256356
17,7,10,Ticks_ISO_T2_5,230,5,42,127,752283272
17,7,10,Ticks_ISO_T2_5,231,1,48,24,752768428
17,7,10,Ticks_ISO_T2_5,232,5,42,127,752782648
17,7,10,Ticks_ISO_T2_5,233,1,48,29,753258548
17,7,10,Ticks_ISO_T2_5,234,5,42,127,753282400
17,7,10,Ticks_ISO_T2_5,235,5,42,127,753783128
17,7,10,Ticks_ISO_T2_5,236,1,48,21,753791916
17,7,10,Ticks_ISO_T2_5,237,1,48,27,754273580
17,7,10,Ticks_ISO_T2_5,238,5,42,127,754282796
17,7,10,Ticks_ISO_T2_5,239,1,48,24,754741444
17,7,10,Ticks_ISO_T2_5,240,5,42,127,754782620
17,7,10,Ticks_ISO_T2_5,241,1,48,27,755269420
17,7,10,Ticks_ISO_T2_5,242,5,42,127,755283344
17,7,10,Ticks_ISO_T2_5,243,1,48,22,755767000
17,7,10,Ticks_ISO_T2_5,244,5,42,127,755782944
17,7,10,Ticks_ISO_T2_5,245,1,48,24,756266308
17,7,10,Ticks_ISO_T2_5,246,5,42,127,756282992
17,7,10,Ticks_ISO_T2_5,247,1,48,29,756749484
17,7,10,Ticks_ISO_T2_5,248,5,42,127,756782520
17,7,10,Ticks_ISO_T2_5,249,1,48,28,757271932
17,7,10,Ticks_ISO_T2_5,250,5,42,127,757283168
17,7,10,Ticks_ISO_T2_5,251,1,48,27,757753584
17,7,10,Ticks_ISO_T2_5,252,5,42,127,757782992
17,7,10,Ticks_ISO_T2_5,253,1,48,25,758271260
17,7,10,Ticks_ISO_T2_5,254,5,42,127,758282716
17,7,10,Ticks_ISO_T2_5,255,1,48,28,758778328
17,7,10,Ticks_ISO_T2_5,0,9999,9999,9999,693780600
17,7,10,Ticks_ISO_T2_5,1,9999,9999,9999,694280272
17,7,10,Ticks_ISO_T2_5,2,9999,9999,9999,694781012
17,7,10,Ticks_ISO_T2_5,3,9999,9999,9999,695280712
17,7,10,Ticks_ISO_T2_5,4,9999,9999,9999,695780400
17,7,10,Ticks_ISO_T2_5,5,9999,9999,9999,696280152
17,7,10,Ticks_ISO_T2_5,6,9999,9999,9999,696780880
17,7,10,Ticks_ISO_T2_5,7,9999,9999,9999,697280624
17,7,10,Ticks_ISO_T2_5,8,9999,9999,9999,697780300
17,7,10,Ticks_ISO_T2_5,9,9999,9999,9999,698281076
17,7,10,Ticks_ISO_T2_5,10,9999,9999,9999,698780748
17,7,10,Ticks_ISO_T2_5,11,9999,9999,9999,699280500
17,7,10,Ticks_ISO_T2_5,12,9999,9999,9999,699780180
17,7,10,Ticks_ISO_T2_5,13,9999,9999,9999,700280904
17,7,10,Ticks_ISO_T2_5,14,9999,9999,9999,700780644
17,7,10,Ticks_ISO_T2_5,15,9999,9999,9999,701280332
17,7,10,Ticks_ISO_T2_5,16,9999,9999,9999,701781044
17,7,10,Ticks_ISO_T2_5,17,9999,9999,9999,702280796
17,7,10,Ticks_ISO_T2_5,18,9999,9999,9999,702780480
17,7,10,Ticks_ISO_T2_5,19,9999,9999,9999,703280224
17,7,10,Ticks_ISO_T2_5,20,9999,9999,9999,703780948
17,7,10,Ticks_ISO_T2_5,21,9999,9999,9999,704280624
17,7,10,Ticks_ISO_T2_5,22,9999,9999,9999,704780348
17,7,10,Ticks_ISO_T2_5,23,9999,9999,9999,705280100
17,7,10,Ticks_ISO_T2_5,24,9999,9999,9999,705780820
17,7,10,Ticks_ISO_T2_5,25,9999,9999,9999,706280496
17,7,10,Ticks_ISO_T2_5,26,9999,9999,9999,706780248
17,7,10,Ticks_ISO_T2_5,27,9999,9999,9999,707280968
17,7,10,Ticks_ISO_T2_5,28,9999,9999,9999,707780716
17,7,10,Ticks_ISO_T2_5,29,9999,9999,9999,708280396
17,7,10,Ticks_ISO_T2_5,30,9999,9999,9999,708780144
17,7,10,Ticks_ISO_T2_5,31,9999,9999,9999,709280864
17,7,10,Ticks_ISO_T2_5,32,9999,9999,9999,709780548
17,7,10,Ticks_ISO_T2_5,33,9999,9999,9999,710280292
17,7,10,Ticks_ISO_T2_5,34,9999,9999,9999,710781012
17,7,10,Ticks_ISO_T2_5,35,9999,9999,9999,711280692
17,7,10,Ticks_ISO_T2_5,36,9999,9999,9999,711780440
17,7,10,Ticks_ISO_T2_5,37,9999,9999,9999,712280116
17,7,10,Ticks_ISO_T2_5,38,9999,9999,9999,712780912
17,7,10,Ticks_ISO_T2_5,39,9999,9999,9999,713280588
17,7,10,Ticks_ISO_T2_5,40,9999,9999,9999,713780344
17,7,10,Ticks_ISO_T2_5,41,9999,9999,9999,714281060
17,7,10,Ticks_ISO_T2_5,42,9999,9999,9999,714780736
17,7,10,Ticks_ISO_T2_5,43,9999,9999,9999,715280492
17,7,10,Ticks_ISO_T2_5,44,9999,9999,9999,715780144
17,7,10,Ticks_ISO_T2_5,45,9999,9999,9999,716280932
17,7,10,Ticks_ISO_T2_5,46,9999,9999,9999,716780612
17,7,10,Ticks_ISO_T2_5,47,9999,9999,9999,717280388
17,7,10,Ticks_ISO_T2_5,48,9999,9999,9999,717781084
17,7,10,Ticks_ISO_T2_5,49,9999,9999,9999,718280768
17,7,10,Ticks_ISO_T2_5,50,9999,9999,9999,718780512
17,7,10,Ticks_ISO_T2_5,51,9999,9999,9999,719280196
17,7,10,Ticks_ISO_T2_5,52,9999,9999,9999,719780916
17,7,10,Ticks_ISO_T2_5,53,9999,9999,9999,720280692
17,7,10,Ticks_ISO_T2_5,54,9999,9999,9999,720780340
17,7,10,Ticks_ISO_T2_5,55,9999,9999,9999,721280096
17,7,10,Ticks_ISO_T2_5,56,9999,9999,9999,721780812
17,7,10,Ticks_ISO_T2_5,57,9999,9999,9999,722280568
17,7,10,Ticks_ISO_T2_5,58,9999,9999,9999,722780236
17,7,10,Ticks_ISO_T2_5,59,9999,9999,9999,723280960
17,7,10,Ticks_ISO_T2_5,60,9999,9999,9999,723780716
17,7,10,Ticks_ISO_T2_5,61,9999,9999,9999,724280392
17,7,10,Ticks_ISO_T2_5,62,9999,9999,9999,724780136
17,7,10,Ticks_ISO_T2_5,63,9999,9999,9999,725280856
17,7,10,Ticks_ISO_T2_5,64,9999,9999,9999,725780532
17,7,10,Ticks_ISO_T2_5,65,9999,9999,9999,726280256
17,7,10,Ticks_ISO_T2_5,66,9999,9999,9999,726780980
17,7,10,Ticks_ISO_T2_5,67,9999,9999,9999,727280732
17,7,10,Ticks_ISO_T2_5,68,9999,9999,9999,727780408
17,7,10,Ticks_ISO_T2_5,69,9999,9999,9999,728280156
17,7,10,Ticks_ISO_T2_5,70,9999,9999,9999,728780876
17,7,10,Ticks_ISO_T2_5,71,9999,9999,9999,729280560
17,7,10,Ticks_ISO_T2_5,72,9999,9999,9999,729780312
17,7,10,Ticks_ISO_T2_5,73,9999,9999,9999,730281024
17,7,10,Ticks_ISO_T2_5,74,9999,9999,9999,730780784
17,7,10,Ticks_ISO_T2_5,75,9999,9999,9999,731280460
17,7,10,Ticks_ISO_T2_5,76,9999,9999,9999,731780184
17,7,10,Ticks_ISO_T2_5,77,9999,9999,9999,732280900
17,7,10,Ticks_ISO_T2_5,78,9999,9999,9999,732780652
17,7,10,Ticks_ISO_T2_5,79,9999,9999,9999,733280328
17,7,10,Ticks_ISO_T2_5,80,9999,9999,9999,733781056
17,7,10,Ticks_ISO_T2_5,81,9999,9999,9999,734280800
17,7,10,Ticks_ISO_T2_5,82,9999,9999,9999,734780476
17,7,10,Ticks_ISO_T2_5,83,9999,9999,9999,735280228
17,7,10,Ticks_ISO_T2_5,84,9999,9999,9999,735780948
17,7,10,Ticks_ISO_T2_5,85,9999,9999,9999,736280624
17,7,10,Ticks_ISO_T2_5,86,9999,9999,9999,736780352
17,7,10,Ticks_ISO_T2_5,87,9999,9999,9999,737280100
17,7,10,Ticks_ISO_T2_5,88,9999,9999,9999,737780824
17,7,10,Ticks_ISO_T2_5,89,9999,9999,9999,738280500
17,7,10,Ticks_ISO_T2_5,90,9999,9999,9999,738780252
17,7,10,Ticks_ISO_T2_5,91,9999,9999,9999,739280976
17,7,10,Ticks_ISO_T2_5,92,9999,9999,9999,739780728
17,7,10,Ticks_ISO_T2_5,93,9999,9999,9999,740280436
17,7,10,Ticks_ISO_T2_5,94,9999,9999,9999,740780148
17,7,10,Ticks_ISO_T2_5,95,9999,9999,9999,741280872
17,7,10,Ticks_ISO_T2_5,96,9999,9999,9999,741780556
17,7,10,Ticks_ISO_T2_5,97,9999,9999,9999,742280300
17,7,10,Ticks_ISO_T2_5,98,9999,9999,9999,742781020
17,7,10,Ticks_ISO_T2_5,99,9999,9999,9999,743280720
17,7,10,Ticks_ISO_T2_5,100,9999,9999,9999,743780448
17,7,10,Ticks_ISO_T2_5,101,9999,9999,9999,744280124
17,7,10,Ticks_ISO_T2_5,102,9999,9999,9999,744780852
17,7,10,Ticks_ISO_T2_5,103,9999,9999,9999,745280596
17,7,10,Ticks_ISO_T2_5,104,9999,9999,9999,745780280
17,7,10,Ticks_ISO_T2_5,105,9999,9999,9999,746281076
17,7,10,Ticks_ISO_T2_5,106,9999,9999,9999,746780748
17,7,10,Ticks_ISO_T2_5,107,9999,9999,9999,747280496
17,7,10,Ticks_ISO_T2_5,108,9999,9999,9999,747780156
17,7,10,Ticks_ISO_T2_5,109,9999,9999,9999,748280944
17,7,10,Ticks_ISO_T2_5,110,9999,9999,9999,748780628
17,7,10,Ticks_ISO_T2_5,111,9999,9999,9999,749280304
17,7,10,Ticks_ISO_T2_5,112,9999,9999,9999,749781096
17,7,10,Ticks_ISO_T2_5,113,9999,9999,9999,750280776
17,7,10,Ticks_ISO_T2_5,114,9999,9999,9999,750780468
17,7,10,Ticks_ISO_T2_5,115,9999,9999,9999,751280220
17,7,10,Ticks_ISO_T2_5,116,9999,9999,9999,751780944
17,7,10,Ticks_ISO_T2_5,117,9999,9999,9999,752280692
17,7,10,Ticks_ISO_T2_5,118,9999,9999,9999,752780368
17,7,10,Ticks_ISO_T2_5,119,9999,9999,9999,753280116
17,7,10,Ticks_ISO_T2_5,120,9999,9999,9999,753780844
17,7,10,Ticks_ISO_T2_5,121,9999,9999,9999,754280516
17,7,10,Ticks_ISO_T2_5,122,9999,9999,9999,754780264
17,7,10,Ticks_ISO_T2_5,123,9999,9999,9999,755280988
17,7,10,Ticks_ISO_T2_5,124,9999,9999,9999,755780660
17,7,10,Ticks_ISO_T2_5,125,9999,9999,9999,756280412
17,7,10,Ticks_ISO_T2_5,126,9999,9999,9999,756780088
17,7,10,Ticks_ISO_T2_5,127,9999,9999,9999,757280884
17,7,10,Ticks_ISO_T2_5,128,9999,9999,9999,757780560
17,7,10,Ticks_ISO_T2_5,129,9999,9999,9999,758280284
17,8,9,Ticks_ISO_T2_8,0,5,42,127,770575652
17,8,9,Ticks_ISO_T2_8,1,5,42,127,771375556
17,8,9,Ticks_ISO_T2_8,2,5,42,127,772176204
17,8,9,Ticks_ISO_T2_8,3,1,48,24,772266980
17,8,9,Ticks_ISO_T2_8,4,1,48,35,772951928
17,8,9,Ticks_ISO_T2_8,5,5,42,127,772976080
17,8,9,Ticks_ISO_T2_8,6,1,48,41,773705364
17,8,9,Ticks_ISO_T2_8,7,5,42,127,773775588
17,8,9,Ticks_ISO_T2_8,8,1,48,36,774522272
17,8,9,Ticks_ISO_T2_8,9,5,42,127,774575620
17,8,9,Ticks_ISO_T2_8,10,1,48,26,775288928
17,8,9,Ticks_ISO_T2_8,11,5,42,127,775376176
17,8,9,Ticks_ISO_T2_8,12,1,48,32,776073428
17,8,9,Ticks_ISO_T2_8,13,5,42,127,776175968
17,8,9,Ticks_ISO_T2_8,14,1,48,28,776912216
17,8,9,Ticks_ISO_T2_8,15,5,42,127,776976040
17,8,9,Ticks_ISO_T2_8,16,1,48,22,777764240
17,8,9,Ticks_ISO_T2_8,17,5,42,127,777775548
17,8,9,Ticks_ISO_T2_8,18,1,48,33,778522604
17,8,9,Ticks_ISO_T2_8,19,5,42,127,778576180
17,8,9,Ticks_ISO_T2_8,20,1,48,24,779288888
17,8,9,Ticks_ISO_T2_8,21,5,42,127,779376060
17,8,9,Ticks_ISO_T2_8,22,1,48,24,780066736
17,8,9,Ticks_ISO_T2_8,23,5,42,127,780176000
17,8,9,Ticks_ISO_T2_8,24,1,48,26,780881628
17,8,9,Ticks_ISO_T2_8,25,5,42,127,780975512
17,8,9,Ticks_ISO_T2_8,26,1,48,24,781696892
17,8,9,Ticks_ISO_T2_8,27,5,42,127,781776304
17,8,9,Ticks_ISO_T2_8,28,1,48,18,782536648
17,8,9,Ticks_ISO_T2_8,29,5,42,127,782576036
17,8,9,Ticks_ISO_T2_8,30,1,48,28,783280384
17,8,9,Ticks_ISO_T2_8,31,5,42,127,783375720
17,8,9,Ticks_ISO_T2_8,32,1,48,28,784124764
17,8,9,Ticks_ISO_T2_8,33,5,42,127,784175748
17,8,9,Ticks_ISO_T2_8,34,1,48,33,784899860
17,8,9,Ticks_ISO_T2_8,35,5,42,127,784976156
17,8,9,Ticks_ISO_T2_8,36,5,42,127,785775968
17,8,9,Ticks_ISO_T2_8,37,1,48,18,785785956
17,8,9,Ticks_ISO_T2_8,38,1,48,24,786523692
17,8,9,Ticks_ISO_T2_8,39,5,42,127,786575696
17,8,9,Ticks_ISO_T2_8,40,1,48,22,787328504
17,8,9,Ticks_ISO_T2_8,41,5,42,127,787375728
17,8,9,Ticks_ISO_T2_8,42,1,48,23,788081716
17,8,9,Ticks_ISO_T2_8,43,5,42,127,788176504
17,8,9,Ticks_ISO_T2_8,44,1,48,22,788926700
17,8,9,Ticks_ISO_T2_8,45,5,42,127,788976016
17,8,9,Ticks_ISO_T2_8,46,1,48,27,789734424
17,8,9,Ticks_ISO_T2_8,47,5,42,127,789775848
17,8,9,Ticks_ISO_T2_8,48,1,48,27,790547476
17,8,9,Ticks_ISO_T2_8,49,5,42,127,790575436
17,8,9,Ticks_ISO_T2_8,50,1,48,24,791350716
17,8,9,Ticks_ISO_T2_8,51,5,42,127,791376360
17,8,9,Ticks_ISO_T2_8,52,5,42,127,792175876
17,8,9,Ticks_ISO_T2_8,53,1,48,26,792186908
17,8,9,Ticks_ISO_T2_8,54,1,48,32,792933904
17,8,9,Ticks_ISO_T2_8,55,5,42,127,792975752
17,8,9,Ticks_ISO_T2_8,56,5,42,127,793775492
17,8,9,Ticks_ISO_T2_8,57,1,48,14,793796004
17,8,9,Ticks_ISO_T2_8,58,1,48,16,794568768
17,8,9,Ticks_ISO_T2_8,59,5,42,127,794576188
17,8,9,Ticks_ISO_T2_8,60,5,42,127,795376224
17,8,9,Ticks_ISO_T2_8,61,1,48,23,795392708
17,8,9,Ticks_ISO_T2_8,62,1,48,26,796133056
17,8,9,Ticks_ISO_T2_8,63,5,42,127,796175604
17,8,9,Ticks_ISO_T2_8,64,1,48,27,796928904
17,8,9,Ticks_ISO_T2_8,65,5,42,127,796975484
17,8,9,Ticks_ISO_T2_8,66,1,48,19,797734636
17,8,9,Ticks_ISO_T2_8,67,5,42,127,797776112
17,8,9,Ticks_ISO_T2_8,68,1,48,22,798526752
17,8,9,Ticks_ISO_T2_8,69,5,42,127,798576144
17,8,9,Ticks_ISO_T2_8,70,1,48,22,799350456
17,8,9,Ticks_ISO_T2_8,71,5,42,127,799375876
17,8,9,Ticks_ISO_T2_8,72,5,42,127,800175392
17,8,9,Ticks_ISO_T2_8,73,1,48,28,800179556
17,8,9,Ticks_ISO_T2_8,74,1,48,22,800947680
17,8,9,Ticks_ISO_T2_8,75,5,42,127,800976164
17,8,9,Ticks_ISO_T2_8,76,5,42,127,801775900
17,8,9,Ticks_ISO_T2_8,77,5,42,127,802576052
17,8,9,Ticks_ISO_T2_8,78,1,48,17,802593880
17,8,9,Ticks_ISO_T2_8,79,1,48,22,803356932
17,8,9,Ticks_ISO_T2_8,80,5,42,127,803375484
17,8,9,Ticks_ISO_T2_8,81,1,48,32,804130008
17,8,9,Ticks_ISO_T2_8,82,5,42,127,804176184
17,8,9,Ticks_ISO_T2_8,83,5,42,127,804975924
17,8,9,Ticks_ISO_T2_8,84,1,48,24,804977184
17,8,9,Ticks_ISO_T2_8,85,5,42,127,805775952
17,8,9,Ticks_ISO_T2_8,86,1,48,16,805787732
17,8,9,Ticks_ISO_T2_8,87,5,42,127,806575536
17,8,9,Ticks_ISO_T2_8,88,1,48,21,806579332
17,8,9,Ticks_ISO_T2_8,89,1,48,21,807348428
17,8,9,Ticks_ISO_T2_8,90,5,42,127,807376312
17,8,9,Ticks_ISO_T2_8,91,5,42,127,808175900
17,8,9,Ticks_ISO_T2_8,92,1,48,20,808194252
17,8,9,Ticks_ISO_T2_8,93,1,48,24,808929600
17,8,9,Ticks_ISO_T2_8,94,5,42,127,808975652
17,8,9,Ticks_ISO_T2_8,95,1,48,34,809742944
17,8,9,Ticks_ISO_T2_8,96,5,42,127,809775460
17,8,9,Ticks_ISO_T2_8,97,1,48,35,810552012
17,8,9,Ticks_ISO_T2_8,98,5,42,127,810576384
17,8,9,Ticks_ISO_T2_8,99,1,48,21,811347412
17,8,9,Ticks_ISO_T2_8,100,5,42,127,811376048
17,8,9,Ticks_ISO_T2_8,101,5,42,127,812175712
17,8,9,Ticks_ISO_T2_8,102,1,48,19,812196224
17,8,9,Ticks_ISO_T2_8,103,1,48,35,812952928
17,8,9,Ticks_ISO_T2_8,104,5,42,127,812975436
17,8,9,Ticks_ISO_T2_8,105,1,48,27,813746464
17,8,9,Ticks_ISO_T2_8,106,5,42,127,813776436
17,8,9,Ticks_ISO_T2_8,107,1,48,22,814530892
17,8,9,Ticks_ISO_T2_8,108,5,42,127,814576096
17,8,9,Ticks_ISO_T2_8,109,1,48,23,815364376
17,8,9,Ticks_ISO_T2_8,110,5,42,127,815375708
17,8,9,Ticks_ISO_T2_8,111,1,48,26,816158380
17,8,9,Ticks_ISO_T2_8,112,5,42,127,816175588
17,8,9,Ticks_ISO_T2_8,113,1,48,24,816965356
17,8,9,Ticks_ISO_T2_8,114,5,42,127,816976220
17,8,9,Ticks_ISO_T2_8,115,1,48,28,817750680
17,8,9,Ticks_ISO_T2_8,116,5,42,127,817776100
17,8,9,Ticks_ISO_T2_8,117,1,48,20,818561612
17,8,9,Ticks_ISO_T2_8,118,5,42,127,818575832
17,8,9,Ticks_ISO_T2_8,119,1,48,26,819369408
17,8,9,Ticks_ISO_T2_8,120,5,42,127,819375416
17,8,9,Ticks_ISO_T2_8,121,5,42,127,820176124
17,8,9,Ticks_ISO_T2_8,122,1,48,20,820193356
17,8,9,Ticks_ISO_T2_8,123,1,48,29,820928028
17,8,9,Ticks_ISO_T2_8,124,5,42,127,820976072
17,8,9,Ticks_ISO_T2_8,125,1,48,29,821750756
17,8,9,Ticks_ISO_T2_8,126,5,42,127,821775832
17,8,9,Ticks_ISO_T2_8,127,1,48,23,822563732
17,8,9,Ticks_ISO_T2_8,128,5,42,127,822575564
17,8,9,Ticks_ISO_T2_8,129,1,48,38,823374008
17,8,9,Ticks_ISO_T2_8,130,5,42,127,823376120
17,8,9,Ticks_ISO_T2_8,131,1,48,28,824159912
17,8,9,Ticks_ISO_T2_8,132,5,42,127,824176000
17,8,9,Ticks_ISO_T2_8,133,5,42,127,824975816
17,8,9,Ticks_ISO_T2_8,134,1,48,24,824992148
17,8,9,Ticks_ISO_T2_8,135,5,42,127,825775696
17,8,9,Ticks_ISO_T2_8,136,1,48,27,825786352
17,8,9,Ticks_ISO_T2_8,137,5,42,127,826576176
17,8,9,Ticks_ISO_T2_8,138,1,48,20,826586756
17,8,9,Ticks_ISO_T2_8,139,5,42,127,827375984
17,8,9,Ticks_ISO_T2_8,140,1,48,23,827413472
17,8,9,Ticks_ISO_T2_8,141,1,48,29,828146552
17,8,9,Ticks_ISO_T2_8,142,5,42,127,828175660
17,8,9,Ticks_ISO_T2_8,143,5,42,127,828975476
17,8,9,Ticks_ISO_T2_8,144,1,48,38,829007408
17,8,9,Ticks_ISO_T2_8,145,1,48,32,829730808
17,8,9,Ticks_ISO_T2_8,146,5,42,127,829776244
17,8,9,Ticks_ISO_T2_8,147,1,48,32,830509936
17,8,9,Ticks_ISO_T2_8,148,5,42,127,830575904
17,8,9,Ticks_ISO_T2_8,149,1,48,19,831338268
17,8,9,Ticks_ISO_T2_8,150,5,42,127,831375712
17,8,9,Ticks_ISO_T2_8,151,5,42,127,832175528
17,8,9,Ticks_ISO_T2_8,152,1,48,31,832200824
17,8,9,Ticks_ISO_T2_8,153,5,42,127,832976304
17,8,9,Ticks_ISO_T2_8,154,1,48,24,833036568
17,8,9,Ticks_ISO_T2_8,155,1,48,24,833736344
17,8,9,Ticks_ISO_T2_8,156,5,42,127,833775956
17,8,9,Ticks_ISO_T2_8,157,5,42,127,834575648
17,8,9,Ticks_ISO_T2_8,158,1,48,41,834591380
17,8,9,Ticks_ISO_T2_8,159,1,48,31,835365336
17,8,9,Ticks_ISO_T2_8,160,5,42,127,835375524
17,8,9,Ticks_ISO_T2_8,161,5,42,127,836176160
17,8,9,Ticks_ISO_T2_8,162,1,48,27,836191220
17,8,9,Ticks_ISO_T2_8,163,1,48,35,836974688
17,8,9,Ticks_ISO_T2_8,164,5,42,127,836976332
17,8,9,Ticks_ISO_T2_8,165,5,42,127,837775776
17,8,9,Ticks_ISO_T2_8,166,1,48,17,837806520
17,8,9,Ticks_ISO_T2_8,167,1,48,28,838559788
17,8,9,Ticks_ISO_T2_8,168,5,42,127,838575428
17,8,9,Ticks_ISO_T2_8,169,1,48,32,839348168
17,8,9,Ticks_ISO_T2_8,170,5,42,127,839376352
17,8,9,Ticks_ISO_T2_8,171,1,48,32,840163732
17,8,9,Ticks_ISO_T2_8,172,5,42,127,840176160
17,8,9,Ticks_ISO_T2_8,173,1,48,34,840932252
17,8,9,Ticks_ISO_T2_8,174,5,42,127,840975624
17,8,9,Ticks_ISO_T2_8,175,5,42,127,841775436
17,8,9,Ticks_ISO_T2_8,176,1,48,16,841787664
17,8,9,Ticks_ISO_T2_8,177,1,48,29,842557880
17,8,9,Ticks_ISO_T2_8,178,5,42,127,842576356
17,8,9,Ticks_ISO_T2_8,179,1,48,28,843308480
17,8,9,Ticks_ISO_T2_8,180,5,42,127,843375940
17,8,9,Ticks_ISO_T2_8,181,1,48,20,844100676
17,8,9,Ticks_ISO_T2_8,182,5,42,127,844175896
17,8,9,Ticks_ISO_T2_8,183,1,48,18,844948568
17,8,9,Ticks_ISO_T2_8,184,5,42,127,844975408
17,8,9,Ticks_ISO_T2_8,185,1,48,24,845769356
17,8,9,Ticks_ISO_T2_8,186,5,42,127,845776332
17,8,9,Ticks_ISO_T2_8,187,1,48,24,846543032
17,8,9,Ticks_ISO_T2_8,188,5,42,127,846575844
17,8,9,Ticks_ISO_T2_8,189,1,48,25,847274884
17,8,9,Ticks_ISO_T2_8,190,5,42,127,847375736
17,8,9,Ticks_ISO_T2_8,191,1,48,13,848089332
17,8,9,Ticks_ISO_T2_8,192,5,42,127,848175632
17,8,9,Ticks_ISO_T2_8,193,1,48,29,848908276
17,8,9,Ticks_ISO_T2_8,194,5,42,127,848976188
17,8,9,Ticks_ISO_T2_8,195,1,48,27,849727572
17,8,9,Ticks_ISO_T2_8,196,5,42,127,849775844
17,8,9,Ticks_ISO_T2_8,197,1,48,26,850492732
17,8,9,Ticks_ISO_T2_8,198,5,42,127,850575652
17,8,9,Ticks_ISO_T2_8,199,1,48,21,851333012
17,8,9,Ticks_ISO_T2_8,200,5,42,127,851375832
17,8,9,Ticks_ISO_T2_8,201,1,48,17,852127220
17,8,9,Ticks_ISO_T2_8,202,5,42,127,852176088
17,8,9,Ticks_ISO_T2_8,203,1,48,21,852889244
17,8,9,Ticks_ISO_T2_8,204,5,42,127,852975896
17,8,9,Ticks_ISO_T2_8,205,1,48,22,853673816
17,8,9,Ticks_ISO_T2_8,206,5,42,127,853775716
17,8,9,Ticks_ISO_T2_8,207,1,48,26,854483780
17,8,9,Ticks_ISO_T2_8,208,5,42,127,854575596
17,8,9,Ticks_ISO_T2_8,209,1,48,33,855248416
17,8,9,Ticks_ISO_T2_8,210,5,42,127,855376372
17,8,9,Ticks_ISO_T2_8,211,1,48,20,856034860
17,8,9,Ticks_ISO_T2_8,212,5,42,127,856176108
17,8,9,Ticks_ISO_T2_8,213,1,48,19,856847612
17,8,9,Ticks_ISO_T2_8,214,5,42,127,856975616
17,8,9,Ticks_ISO_T2_8,215,1,48,17,857693712
17,8,9,Ticks_ISO_T2_8,216,5,42,127,857775512
17,8,9,Ticks_ISO_T2_8,217,1,48,21,858455812
17,8,9,Ticks_ISO_T2_8,218,5,42,127,858576204
17,8,9,Ticks_ISO_T2_8,219,1,48,21,859322156
17,8,9,Ticks_ISO_T2_8,220,5,42,127,859376176
17,8,9,Ticks_ISO_T2_8,221,1,48,18,860123236
17,8,9,Ticks_ISO_T2_8,222,5,42,127,860175708
17,8,9,Ticks_ISO_T2_8,223,1,48,21,860959132
17,8,9,Ticks_ISO_T2_8,224,5,42,127,860975444
17,8,9,Ticks_ISO_T2_8,225,1,48,21,861713088
17,8,9,Ticks_ISO_T2_8,226,5,42,127,861776148
17,8,9,Ticks_ISO_T2_8,227,1,48,20,862492960
17,8,9,Ticks_ISO_T2_8,228,5,42,127,862576252
17,8,9,Ticks_ISO_T2_8,229,1,48,21,863275888
17,8,9,Ticks_ISO_T2_8,230,5,42,127,863375820
17,8,9,Ticks_ISO_T2_8,231,1,48,20,864068084
17,8,9,Ticks_ISO_T2_8,232,5,42,127,864175404
17,8,9,Ticks_ISO_T2_8,233,1,48,28,864901940
17,8,9,Ticks_ISO_T2_8,234,5,42,127,864976200
17,8,9,Ticks_ISO_T2_8,235,1,48,22,865717584
17,8,9,Ticks_ISO_T2_8,236,5,42,127,865775932
17,8,9,Ticks_ISO_T2_8,0,9999,9999,9999,770573368
17,8,9,Ticks_ISO_T2_8,1,9999,9999,9999,771373124
17,8,9,Ticks_ISO_T2_8,2,9999,9999,9999,772173920
17,8,9,Ticks_ISO_T2_8,3,9999,9999,9999,772973648
17,8,9,Ticks_ISO_T2_8,4,9999,9999,9999,773773380
17,8,9,Ticks_ISO_T2_8,5,9999,9999,9999,774573112
17,8,9,Ticks_ISO_T2_8,6,9999,9999,9999,775373892
17,8,9,Ticks_ISO_T2_8,7,9999,9999,9999,776173684
17,8,9,Ticks_ISO_T2_8,8,9999,9999,9999,776973384
17,8,9,Ticks_ISO_T2_8,9,9999,9999,9999,777773116
17,8,9,Ticks_ISO_T2_8,10,9999,9999,9999,778573896
17,8,9,Ticks_ISO_T2_8,11,9999,9999,9999,779373628
17,8,9,Ticks_ISO_T2_8,12,9999,9999,9999,780173420
17,8,9,Ticks_ISO_T2_8,13,9999,9999,9999,780973112
17,8,9,Ticks_ISO_T2_8,14,9999,9999,9999,781773868
17,8,9,Ticks_ISO_T2_8,15,9999,9999,9999,782573676
17,8,9,Ticks_ISO_T2_8,16,9999,9999,9999,783373360
17,8,9,Ticks_ISO_T2_8,17,9999,9999,9999,784173168
17,8,9,Ticks_ISO_T2_8,18,9999,9999,9999,784973872
17,8,9,Ticks_ISO_T2_8,19,9999,9999,9999,785773684
17,8,9,Ticks_ISO_T2_8,20,9999,9999,9999,786573412
17,8,9,Ticks_ISO_T2_8,21,9999,9999,9999,787373144
17,8,9,Ticks_ISO_T2_8,22,9999,9999,9999,788173924
17,8,9,Ticks_ISO_T2_8,23,9999,9999,9999,788973656
17,8,9,Ticks_ISO_T2_8,24,9999,9999,9999,789773416
17,8,9,Ticks_ISO_T2_8,25,9999,9999,9999,790573152
17,8,9,Ticks_ISO_T2_8,26,9999,9999,9999,791373928
17,8,9,Ticks_ISO_T2_8,27,9999,9999,9999,792173668
17,8,9,Ticks_ISO_T2_8,28,9999,9999,9999,792973392
17,8,9,Ticks_ISO_T2_8,29,9999,9999,9999,793773132
17,8,9,Ticks_ISO_T2_8,30,9999,9999,9999,794573904
17,8,9,Ticks_ISO_T2_8,31,9999,9999,9999,795373644
17,8,9,Ticks_ISO_T2_8,32,9999,9999,9999,796173392
17,8,9,Ticks_ISO_T2_8,33,9999,9999,9999,796973128
17,8,9,Ticks_ISO_T2_8,34,9999,9999,9999,797773904
17,8,9,Ticks_ISO_T2_8,35,9999,9999,9999,798573636
17,8,9,Ticks_ISO_T2_8,36,9999,9999,9999,799373368
17,8,9,Ticks_ISO_T2_8,37,9999,9999,9999,800173108
17,8,9,Ticks_ISO_T2_8,38,9999,9999,9999,800973880
17,8,9,Ticks_ISO_T2_8,39,9999,9999,9999,801773616
17,8,9,Ticks_ISO_T2_8,40,9999,9999,9999,802573396
17,8,9,Ticks_ISO_T2_8,41,9999,9999,9999,803373124
17,8,9,Ticks_ISO_T2_8,42,9999,9999,9999,804173900
17,8,9,Ticks_ISO_T2_8,43,9999,9999,9999,804973640
17,8,9,Ticks_ISO_T2_8,44,9999,9999,9999,805773372
17,8,9,Ticks_ISO_T2_8,45,9999,9999,9999,806573104
17,8,9,Ticks_ISO_T2_8,46,9999,9999,9999,807373876
17,8,9,Ticks_ISO_T2_8,47,9999,9999,9999,808173616
17,8,9,Ticks_ISO_T2_8,48,9999,9999,9999,808973368
17,8,9,Ticks_ISO_T2_8,49,9999,9999,9999,809773176
17,8,9,Ticks_ISO_T2_8,50,9999,9999,9999,810573880
17,8,9,Ticks_ISO_T2_8,51,9999,9999,9999,811373612
17,8,9,Ticks_ISO_T2_8,52,9999,9999,9999,812173428
17,8,9,Ticks_ISO_T2_8,53,9999,9999,9999,812973152
17,8,9,Ticks_ISO_T2_8,54,9999,9999,9999,813773932
17,8,9,Ticks_ISO_T2_8,55,9999,9999,9999,814573664
17,8,9,Ticks_ISO_T2_8,56,9999,9999,9999,815373424
17,8,9,Ticks_ISO_T2_8,57,9999,9999,9999,816173156
17,8,9,Ticks_ISO_T2_8,58,9999,9999,9999,816973932
17,8,9,Ticks_ISO_T2_8,59,9999,9999,9999,817773668
17,8,9,Ticks_ISO_T2_8,60,9999,9999,9999,818573400
17,8,9,Ticks_ISO_T2_8,61,9999,9999,9999,819373132
17,8,9,Ticks_ISO_T2_8,62,9999,9999,9999,820173916
17,8,9,Ticks_ISO_T2_8,63,9999,9999,9999,820973640
17,8,9,Ticks_ISO_T2_8,64,9999,9999,9999,821773400
17,8,9,Ticks_ISO_T2_8,65,9999,9999,9999,822573132
17,8,9,Ticks_ISO_T2_8,66,9999,9999,9999,823373880
17,8,9,Ticks_ISO_T2_8,67,9999,9999,9999,824173640
17,8,9,Ticks_ISO_T2_8,68,9999,9999,9999,824973384
17,8,9,Ticks_ISO_T2_8,69,9999,9999,9999,825773116
17,8,9,Ticks_ISO_T2_8,70,9999,9999,9999,826573892
17,8,9,Ticks_ISO_T2_8,71,9999,9999,9999,827373624
17,8,9,Ticks_ISO_T2_8,72,9999,9999,9999,828173376
17,8,9,Ticks_ISO_T2_8,73,9999,9999,9999,828973116
17,8,9,Ticks_ISO_T2_8,74,9999,9999,9999,829773884
17,8,9,Ticks_ISO_T2_8,75,9999,9999,9999,830573620
17,8,9,Ticks_ISO_T2_8,76,9999,9999,9999,831373428
17,8,9,Ticks_ISO_T2_8,77,9999,9999,9999,832173168
17,8,9,Ticks_ISO_T2_8,78,9999,9999,9999,832973872
17,8,9,Ticks_ISO_T2_8,79,9999,9999,9999,833773672
17,8,9,Ticks_ISO_T2_8,80,9999,9999,9999,834573364
17,8,9,Ticks_ISO_T2_8,81,9999,9999,9999,835373164
17,8,9,Ticks_ISO_T2_8,82,9999,9999,9999,836173876
17,8,9,Ticks_ISO_T2_8,83,9999,9999,9999,836973680
17,8,9,Ticks_ISO_T2_8,84,9999,9999,9999,837773416
17,8,9,Ticks_ISO_T2_8,85,9999,9999,9999,838573144
17,8,9,Ticks_ISO_T2_8,86,9999,9999,9999,839373920
17,8,9,Ticks_ISO_T2_8,87,9999,9999,9999,840173652
17,8,9,Ticks_ISO_T2_8,88,9999,9999,9999,840973412
17,8,9,Ticks_ISO_T2_8,89,9999,9999,9999,841773152
17,8,9,Ticks_ISO_T2_8,90,9999,9999,9999,842573924
17,8,9,Ticks_ISO_T2_8,91,9999,9999,9999,843373656
17,8,9,Ticks_ISO_T2_8,92,9999,9999,9999,844173388
17,8,9,Ticks_ISO_T2_8,93,9999,9999,9999,844973124
17,8,9,Ticks_ISO_T2_8,94,9999,9999,9999,845773900
17,8,9,Ticks_ISO_T2_8,95,9999,9999,9999,846573636
17,8,9,Ticks_ISO_T2_8,96,9999,9999,9999,847373376
17,8,9,Ticks_ISO_T2_8,97,9999,9999,9999,848173124
17,8,9,Ticks_ISO_T2_8,98,9999,9999,9999,848973900
17,8,9,Ticks_ISO_T2_8,99,9999,9999,9999,849773632
17,8,9,Ticks_ISO_T2_8,100,9999,9999,9999,850573368
17,8,9,Ticks_ISO_T2_8,101,9999,9999,9999,851373104
17,8,9,Ticks_ISO_T2_8,102,9999,9999,9999,852173880
17,8,9,Ticks_ISO_T2_8,103,9999,9999,9999,852973688
17,8,9,Ticks_ISO_T2_8,104,9999,9999,9999,853773428
17,8,9,Ticks_ISO_T2_8,105,9999,9999,9999,854573104
17,8,9,Ticks_ISO_T2_8,106,9999,9999,9999,855373940
17,8,9,Ticks_ISO_T2_8,107,9999,9999,9999,856173672
17,8,9,Ticks_ISO_T2_8,108,9999,9999,9999,856973408
17,8,9,Ticks_ISO_T2_8,109,9999,9999,9999,857773152
17,8,9,Ticks_ISO_T2_8,110,9999,9999,9999,858573920
17,8,9,Ticks_ISO_T2_8,111,9999,9999,9999,859373668
17,8,9,Ticks_ISO_T2_8,112,9999,9999,9999,860173424
17,8,9,Ticks_ISO_T2_8,113,9999,9999,9999,860973160
17,8,9,Ticks_ISO_T2_8,114,9999,9999,9999,861773936
17,8,9,Ticks_ISO_T2_8,115,9999,9999,9999,862573668
17,8,9,Ticks_ISO_T2_8,116,9999,9999,9999,863373388
17,8,9,Ticks_ISO_T2_8,117,9999,9999,9999,864173120
17,8,9,Ticks_ISO_T2_8,118,9999,9999,9999,864973916
17,8,9,Ticks_ISO_T2_8,119,9999,9999,9999,865773648
17,9,23,Ticks_Phase_5,0,5,42,127,897880512
17,9,23,Ticks_Phase_5,1,5,42,127,898390372
17,9,23,Ticks_Phase_5,2,5,42,127,898890284
17,9,23,Ticks_Phase_5,3,5,42,127,899389756
17,9,23,Ticks_Phase_5,4,5,42,127,899889448
17,9,23,Ticks_Phase_5,5,1,48,48,899903700
17,9,23,Ticks_Phase_5,6,5,42,127,900390388
17,9,23,Ticks_Phase_5,7,1,48,43,900411368
17,9,23,Ticks_Phase_5,8,1,48,45,900870364
17,9,23,Ticks_Phase_5,9,5,42,127,900890052
17,9,23,Ticks_Phase_5,10,5,42,127,901389652
17,9,23,Ticks_Phase_5,11,1,48,45,901408176
17,9,23,Ticks_Phase_5,12,1,48,38,901859884
17,9,23,Ticks_Phase_5,13,5,42,127,901890512
17,9,23,Ticks_Phase_5,14,5,42,127,902400504
17,9,23,Ticks_Phase_5,15,1,48,38,902423584
17,9,23,Ticks_Phase_5,16,1,48,23,902837228
17,9,23,Ticks_Phase_5,17,5,42,127,902900072
17,9,23,Ticks_Phase_5,18,5,42,127,903399896
17,9,23,Ticks_Phase_5,19,1,48,43,903407732
17,9,23,Ticks_Phase_5,20,1,48,40,903900012
17,9,23,Ticks_Phase_5,21,5,42,127,903901428
17,9,23,Ticks_Phase_5,22,1,48,37,904368184
17,9,23,Ticks_Phase_5,23,5,42,127,904400280
17,9,23,Ticks_Phase_5,24,1,48,33,904862460
17,9,23,Ticks_Phase_5,25,5,42,127,904900244
17,9,23,Ticks_Phase_5,26,1,48,38,905370356
17,9,23,Ticks_Phase_5,27,5,42,127,905399768
17,9,23,Ticks_Phase_5,28,1,48,34,905889172
17,9,23,Ticks_Phase_5,29,5,42,127,905900336
17,9,23,Ticks_Phase_5,30,1,48,31,906350788
17,9,23,Ticks_Phase_5,31,5,42,127,906400080
17,9,23,Ticks_Phase_5,32,1,48,32,906875640
17,9,23,Ticks_Phase_5,33,5,42,127,906899828
17,9,23,Ticks_Phase_5,34,1,48,30,907375608
17,9,23,Ticks_Phase_5,35,5,42,127,907399572
17,9,23,Ticks_Phase_5,36,1,48,39,907877836
17,9,23,Ticks_Phase_5,37,5,42,127,907900288
17,9,23,Ticks_Phase_5,38,1,48,39,908386612
17,9,23,Ticks_Phase_5,39,5,42,127,908399956
17,9,23,Ticks_Phase_5,40,1,48,36,908867832
17,9,23,Ticks_Phase_5,41,5,42,127,908899852
17,9,23,Ticks_Phase_5,42,1,48,23,909384764
17,9,23,Ticks_Phase_5,43,5,42,127,909400716
17,9,23,Ticks_Phase_5,44,5,42,127,909910564
17,9,23,Ticks_Phase_5,45,1,48,31,909942164
17,9,23,Ticks_Phase_5,46,1,48,36,910372220
17,9,23,Ticks_Phase_5,47,5,42,127,910410076
17,9,23,Ticks_Phase_5,48,1,48,44,910876744
17,9,23,Ticks_Phase_5,49,5,42,127,910909900
17,9,23,Ticks_Phase_5,50,1,48,40,911367604
17,9,23,Ticks_Phase_5,51,5,42,127,911409720
17,9,23,Ticks_Phase_5,52,1,48,27,911890000
17,9,23,Ticks_Phase_5,53,5,42,127,911910288
17,9,23,Ticks_Phase_5,54,1,48,33,912365412
17,9,23,Ticks_Phase_5,55,5,42,127,912410108
17,9,23,Ticks_Phase_5,56,5,42,127,912899396
17,9,23,Ticks_Phase_5,57,1,48,33,912917840
17,9,23,Ticks_Phase_5,58,1,48,28,913379720
17,9,23,Ticks_Phase_5,59,5,42,127,913400156
17,9,23,Ticks_Phase_5,60,1,48,16,913890676
17,9,23,Ticks_Phase_5,61,5,42,127,913899752
17,9,23,Ticks_Phase_5,62,1,48,32,914387644
17,9,23,Ticks_Phase_5,63,5,42,127,914399572
17,9,23,Ticks_Phase_5,64,1,48,32,914848748
17,9,23,Ticks_Phase_5,65,5,42,127,914900436
17,9,23,Ticks_Phase_5,66,1,48,26,915393492
17,9,23,Ticks_Phase_5,67,5,42,127,915399960
17,9,23,Ticks_Phase_5,68,1,48,35,915895484
17,9,23,Ticks_Phase_5,69,5,42,127,915899704
17,9,23,Ticks_Phase_5,70,1,48,30,916362636
17,9,23,Ticks_Phase_5,71,5,42,127,916399376
17,9,23,Ticks_Phase_5,72,1,48,37,916878008
17,9,23,Ticks_Phase_5,73,5,42,127,916900608
17,9,23,Ticks_Phase_5,74,5,42,127,917399916
17,9,23,Ticks_Phase_5,75,1,48,39,917411332
17,9,23,Ticks_Phase_5,76,5,42,127,917899588
17,9,23,Ticks_Phase_5,77,1,48,35,917927140
17,9,23,Ticks_Phase_5,78,5,42,127,918400228
17,9,23,Ticks_Phase_5,79,1,48,38,918418600
17,9,23,Ticks_Phase_5,80,1,48,31,918474044
17,9,23,Ticks_Phase_5,81,5,42,127,918900396
17,9,23,Ticks_Phase_5,82,1,48,41,918943064
17,9,23,Ticks_Phase_5,83,5,42,127,919399848
17,9,23,Ticks_Phase_5,84,1,48,38,919421724
17,9,23,Ticks_Phase_5,85,1,48,31,919473436
17,9,23,Ticks_Phase_5,86,1,48,31,919891680
17,9,23,Ticks_Phase_5,87,5,42,127,919899488
17,9,23,Ticks_Phase_5,88,5,42,127,920400432
17,9,23,Ticks_Phase_5,89,1,48,42,920440040
17,9,23,Ticks_Phase_5,90,1,48,32,920488760
17,9,23,Ticks_Phase_5,91,5,42,127,920900156
17,9,23,Ticks_Phase_5,92,1,48,35,920902748
17,9,23,Ticks_Phase_5,93,1,48,44,921394704
17,9,23,Ticks_Phase_5,94,5,42,127,921399600
17,9,23,Ticks_Phase_5,95,1,48,33,921448612
17,9,23,Ticks_Phase_5,96,1,48,41,921872680
17,9,23,Ticks_Phase_5,97,5,42,127,921909568
17,9,23,Ticks_Phase_5,98,1,48,34,921921640
17,9,23,Ticks_Phase_5,99,1,48,33,922400816
17,9,23,Ticks_Phase_5,100,5,42,127,922410336
17,9,23,Ticks_Phase_5,101,1,48,25,922447984
17,9,23,Ticks_Phase_5,102,1,48,41,922893732
17,9,23,Ticks_Phase_5,103,5,42,127,922910212
17,9,23,Ticks_Phase_5,104,1,48,31,922956588
17,9,23,Ticks_Phase_5,105,1,48,37,923368840
17,9,23,Ticks_Phase_5,106,5,42,127,923409932
17,9,23,Ticks_Phase_5,107,1,48,29,923428292
17,9,23,Ticks_Phase_5,108,5,42,127,923909516
17,9,23,Ticks_Phase_5,109,1,48,42,923928556
17,9,23,Ticks_Phase_5,110,1,48,36,924410056
17,9,23,Ticks_Phase_5,111,5,42,127,924411540
17,9,23,Ticks_Phase_5,112,1,48,27,924469024
17,9,23,Ticks_Phase_5,113,5,42,127,924909928
17,9,23,Ticks_Phase_5,114,1,48,36,924914012
17,9,23,Ticks_Phase_5,115,5,42,127,925409748
17,9,23,Ticks_Phase_5,116,1,48,40,925429164
17,9,23,Ticks_Phase_5,117,1,48,30,925896140
17,9,23,Ticks_Phase_5,118,5,42,127,925910308
17,9,23,Ticks_Phase_5,119,1,48,28,926389240
17,9,23,Ticks_Phase_5,120,5,42,127,926410128
17,9,23,Ticks_Phase_5,121,1,48,32,926887256
17,9,23,Ticks_Phase_5,122,5,42,127,926909800
17,9,23,Ticks_Phase_5,123,1,48,37,927373924
17,9,23,Ticks_Phase_5,124,5,42,127,927409472
17,9,23,Ticks_Phase_5,125,1,48,37,927864996
17,9,23,Ticks_Phase_5,126,5,42,127,927910332
17,9,23,Ticks_Phase_5,127,1,48,38,928362276
17,9,23,Ticks_Phase_5,128,5,42,127,928409932
17,9,23,Ticks_Phase_5,129,1,48,33,928871292
17,9,23,Ticks_Phase_5,130,5,42,127,928909900
17,9,23,Ticks_Phase_5,131,1,48,37,929344120
17,9,23,Ticks_Phase_5,132,5,42,127,929410468
17,9,23,Ticks_Phase_5,133,1,48,55,929871236
17,9,23,Ticks_Phase_5,134,5,42,127,929939824
17,9,23,Ticks_Phase_5,135,1,48,42,930381668
17,9,23,Ticks_Phase_5,136,5,42,127,930439640
17,9,23,Ticks_Phase_5,137,1,48,32,930891656
17,9,23,Ticks_Phase_5,138,5,42,127,930940136
17,9,23,Ticks_Phase_5,139,1,48,40,931437076
17,9,23,Ticks_Phase_5,140,5,42,127,931439956
17,9,23,Ticks_Phase_5,141,1,48,35,931910740
17,9,23,Ticks_Phase_5,142,5,42,127,931939700
17,9,23,Ticks_Phase_5,143,5,42,127,932440644
17,9,23,Ticks_Phase_5,144,1,48,42,932447360
17,9,23,Ticks_Phase_5,145,1,48,43,932932428
17,9,23,Ticks_Phase_5,146,5,42,127,932950328
17,9,23,Ticks_Phase_5,147,1,48,51,933441296
17,9,23,Ticks_Phase_5,148,5,42,127,933450072
17,9,23,Ticks_Phase_5,149,1,48,47,933930580
17,9,23,Ticks_Phase_5,150,5,42,127,933949820
17,9,23,Ticks_Phase_5,151,1,48,50,934441904
17,9,23,Ticks_Phase_5,152,5,42,127,934449564
17,9,23,Ticks_Phase_5,153,1,48,41,934923108
17,9,23,Ticks_Phase_5,154,5,42,127,934950356
17,9,23,Ticks_Phase_5,155,1,48,55,935426368
17,9,23,Ticks_Phase_5,156,5,42,127,935449952
17,9,23,Ticks_Phase_5,157,1,48,47,935922128
17,9,23,Ticks_Phase_5,158,5,42,127,935949696
17,9,23,Ticks_Phase_5,159,1,48,57,936406024
17,9,23,Ticks_Phase_5,160,5,42,127,936450488
17,9,23,Ticks_Phase_5,161,1,48,48,936891864
17,9,23,Ticks_Phase_5,162,5,42,127,936960620
17,9,23,Ticks_Phase_5,163,1,48,47,937451340
17,9,23,Ticks_Phase_5,164,5,42,127,937460044
17,9,23,Ticks_Phase_5,165,5,42,127,937959724
17,9,23,Ticks_Phase_5,166,1,48,46,937974796
17,9,23,Ticks_Phase_5,167,1,48,41,938414420
17,9,23,Ticks_Phase_5,168,5,42,127,938440244
17,9,23,Ticks_Phase_5,169,5,42,127,938939700
17,9,23,Ticks_Phase_5,170,1,48,39,938942436
17,9,23,Ticks_Phase_5,171,1,48,49,939426468
17,9,23,Ticks_Phase_5,172,5,42,127,939439364
17,9,23,Ticks_Phase_5,173,1,48,42,939906624
17,9,23,Ticks_Phase_5,174,5,42,127,939940304
17,9,23,Ticks_Phase_5,175,1,48,48,940427304
17,9,23,Ticks_Phase_5,176,5,42,127,940439900
17,9,23,Ticks_Phase_5,177,1,48,50,940916956
17,9,23,Ticks_Phase_5,178,5,42,127,940939572
17,9,23,Ticks_Phase_5,179,5,42,127,941440368
17,9,23,Ticks_Phase_5,180,1,48,48,941442956
17,9,23,Ticks_Phase_5,181,1,48,46,941919524
17,9,23,Ticks_Phase_5,182,5,42,127,941940328
17,9,23,Ticks_Phase_5,183,1,48,46,942427940
17,9,23,Ticks_Phase_5,184,5,42,127,942439776
17,9,23,Ticks_Phase_5,185,1,48,52,942917352
17,9,23,Ticks_Phase_5,186,5,42,127,942939448
17,9,23,Ticks_Phase_5,187,5,42,127,943440172
17,9,23,Ticks_Phase_5,188,1,48,50,943444256
17,9,23,Ticks_Phase_5,189,1,48,42,943902872
17,9,23,Ticks_Phase_5,190,5,42,127,943940132
17,9,23,Ticks_Phase_5,191,5,42,127,944440104
17,9,23,Ticks_Phase_5,192,1,48,51,944448160
17,9,23,Ticks_Phase_5,193,5,42,127,944940524
17,9,23,Ticks_Phase_5,194,1,48,52,944948360
17,9,23,Ticks_Phase_5,195,1,48,41,945437532
17,9,23,Ticks_Phase_5,196,5,42,127,945440188
17,9,23,Ticks_Phase_5,197,1,48,49,945929888
17,9,23,Ticks_Phase_5,198,5,42,127,945939788
17,9,23,Ticks_Phase_5,199,5,42,127,946390320
17,9,23,Ticks_Phase_5,200,1,48,50,946438916
17,9,23,Ticks_Phase_5,201,5,42,127,946890140
17,9,23,Ticks_Phase_5,202,1,48,44,946907000
17,9,23,Ticks_Phase_5,203,1,48,41,947375268
17,9,23,Ticks_Phase_5,204,5,42,127,947389952
17,9,23,Ticks_Phase_5,205,1,48,36,947851836
17,9,23,Ticks_Phase_5,206,5,42,127,947889472
17,9,23,Ticks_Phase_5,207,1,48,45,948364440
17,9,23,Ticks_Phase_5,208,5,42,127,948390116
17,9,23,Ticks_Phase_5,209,1,48,48,948881304
17,9,23,Ticks_Phase_5,210,5,42,127,948889936
17,9,23,Ticks_Phase_5,211,5,42,127,949389684
17,9,23,Ticks_Phase_5,212,1,48,37,949417464
17,9,23,Ticks_Phase_5,213,5,42,127,949890476
17,9,23,Ticks_Phase_5,214,1,48,46,949896724
17,9,23,Ticks_Phase_5,215,1,48,34,950367148
17,9,23,Ticks_Phase_5,216,5,42,127,950400232
17,9,23,Ticks_Phase_5,217,5,42,127,950900060
17,9,23,Ticks_Phase_5,218,1,48,42,950906604
17,9,23,Ticks_Phase_5,219,1,48,38,951388932
17,9,23,Ticks_Phase_5,220,5,42,127,951399948
17,9,23,Ticks_Phase_5,221,1,48,39,951889792
17,9,23,Ticks_Phase_5,222,5,42,127,951899692
17,9,23,Ticks_Phase_5,223,5,42,127,952400192
17,9,23,Ticks_Phase_5,224,1,48,45,952409440
17,9,23,Ticks_Phase_5,225,5,42,127,952899860
17,9,23,Ticks_Phase_5,226,1,48,48,952906108
17,9,23,Ticks_Phase_5,227,1,48,48,953389028
17,9,23,Ticks_Phase_5,228,5,42,127,953399600
17,9,23,Ticks_Phase_5,229,5,42,127,953900472
17,9,23,Ticks_Phase_5,230,1,48,38,953911740
17,9,23,Ticks_Phase_5,231,5,42,127,954400148
17,9,23,Ticks_Phase_5,232,1,48,37,954416932
17,9,23,Ticks_Phase_5,233,1,48,40,954883184
17,9,23,Ticks_Phase_5,234,5,42,127,954950128
17,9,23,Ticks_Phase_5,235,5,42,127,955449732
17,9,23,Ticks_Phase_5,236,1,48,44,955473476
17,9,23,Ticks_Phase_5,237,5,42,127,955949548
17,9,23,Ticks_Phase_5,238,1,48,44,955978840
17,9,23,Ticks_Phase_5,239,1,48,46,956432740
17,9,23,Ticks_Phase_5,240,5,42,127,956450112
17,9,23,Ticks_Phase_5,241,1,48,50,956898524
17,9,23,Ticks_Phase_5,242,5,42,127,956950004
17,9,23,Ticks_Phase_5,243,1,48,42,957407612
17,9,23,Ticks_Phase_5,244,5,42,127,957449604
17,9,23,Ticks_Phase_5,245,1,48,43,957891424
17,9,23,Ticks_Phase_5,246,5,42,127,957950392
17,9,23,Ticks_Phase_5,247,1,48,29,958387588
17,9,23,Ticks_Phase_5,248,5,42,127,958449964
17,9,23,Ticks_Phase_5,249,1,48,36,958910132
17,9,23,Ticks_Phase_5,250,5,42,127,958949708
17,9,23,Ticks_Phase_5,251,1,48,40,959413984
17,9,23,Ticks_Phase_5,252,5,42,127,959449532
17,9,23,Ticks_Phase_5,253,1,48,40,959873880
17,9,23,Ticks_Phase_5,254,5,42,127,959950396
17,9,23,Ticks_Phase_5,255,1,48,24,960413924
17,9,23,Ticks_Phase_5,256,5,42,127,960449768
17,9,23,Ticks_Phase_5,257,5,42,127,960949520
17,9,23,Ticks_Phase_5,258,1,48,32,960953152
17,9,23,Ticks_Phase_5,259,5,42,127,961450236
17,9,23,Ticks_Phase_5,260,1,48,34,961451572
17,9,23,Ticks_Phase_5,261,1,48,43,961923996
17,9,23,Ticks_Phase_5,262,5,42,127,961950348
17,9,23,Ticks_Phase_5,263,1,48,40,962445648
17,9,23,Ticks_Phase_5,264,5,42,127,962449796
17,9,23,Ticks_Phase_5,265,1,48,39,962933284
17,9,23,Ticks_Phase_5,266,5,42,127,962949392
17,9,23,Ticks_Phase_5,267,1,48,47,963419360
17,9,23,Ticks_Phase_5,268,5,42,127,963549528
17,9,23,Ticks_Phase_5,269,1,48,38,963955952
17,9,23,Ticks_Phase_5,270,5,42,127,964050260
17,9,23,Ticks_Phase_5,271,5,42,127,964550160
17,9,23,Ticks_Phase_5,272,1,48,33,964613556
17,9,23,Ticks_Phase_5,273,5,42,127,965049684
17,9,23,Ticks_Phase_5,274,1,48,36,965088316
17,9,23,Ticks_Phase_5,275,5,42,127,965549352
17,9,23,Ticks_Phase_5,276,1,48,27,965578044
17,9,23,Ticks_Phase_5,277,1,48,27,966048940
17,9,23,Ticks_Phase_5,278,5,42,127,966050656
17,9,23,Ticks_Phase_5,279,1,48,27,966518832
17,9,23,Ticks_Phase_5,280,5,42,127,966549880
17,9,23,Ticks_Phase_5,281,1,48,46,967008180
17,9,23,Ticks_Phase_5,282,5,42,127,967049476
17,9,23,Ticks_Phase_5,283,1,48,40,967520340
17,9,23,Ticks_Phase_5,284,5,42,127,967550340
17,9,23,Ticks_Phase_5,285,1,48,46,968019856
17,9,23,Ticks_Phase_5,286,5,42,127,968050012
17,9,23,Ticks_Phase_5,287,1,48,47,968507500
17,9,23,Ticks_Phase_5,288,5,42,127,968549984
17,9,23,Ticks_Phase_5,289,1,48,42,969027876
17,9,23,Ticks_Phase_5,290,5,42,127,969049508
17,9,23,Ticks_Phase_5,291,1,48,45,969516392
17,9,23,Ticks_Phase_5,292,5,42,127,969550072
17,9,23,Ticks_Phase_5,293,1,48,45,970038652
17,9,23,Ticks_Phase_5,294,5,42,127,970049892
17,9,23,Ticks_Phase_5,295,1,48,36,970516560
17,9,23,Ticks_Phase_5,296,5,42,127,970549564
17,9,23,Ticks_Phase_5,297,1,48,37,971032156
17,9,23,Ticks_Phase_5,298,5,42,127,971050280
17,9,23,Ticks_Phase_5,299,1,48,38,971526216
17,9,23,Ticks_Phase_5,300,5,42,127,971550024
17,9,23,Ticks_Phase_5,301,5,42,127,972050000
17,9,23,Ticks_Phase_5,302,1,48,34,972063648
17,9,23,Ticks_Phase_5,303,1,48,32,972519784
17,9,23,Ticks_Phase_5,304,5,42,127,972549592
17,9,23,Ticks_Phase_5,305,5,42,127,972949884
17,9,23,Ticks_Phase_5,306,1,48,39,973003312
17,9,23,Ticks_Phase_5,307,1,48,23,973425288
17,9,23,Ticks_Phase_5,308,5,42,127,973449696
17,9,23,Ticks_Phase_5,309,1,48,30,973859776
17,9,23,Ticks_Phase_5,310,5,42,127,973950268
17,9,23,Ticks_Phase_5,311,1,48,24,974389576
17,9,23,Ticks_Phase_5,312,5,42,127,974450160
17,9,23,Ticks_Phase_5,313,1,48,30,974892608
17,9,23,Ticks_Phase_5,314,5,42,127,974949680
17,9,23,Ticks_Phase_5,315,1,48,34,975393768
17,9,23,Ticks_Phase_5,316,5,42,127,975449724
17,9,23,Ticks_Phase_5,317,1,48,22,975884240
17,9,23,Ticks_Phase_5,318,5,42,127,975950068
17,9,23,Ticks_Phase_5,319,1,48,33,976405964
17,9,23,Ticks_Phase_5,320,5,42,127,976449888
17,9,23,Ticks_Phase_5,321,1,48,25,976902500
17,9,23,Ticks_Phase_5,322,5,42,127,976949632
17,9,23,Ticks_Phase_5,323,1,48,34,977373512
17,9,23,Ticks_Phase_5,324,5,42,127,977450644
17,9,23,Ticks_Phase_5,325,1,48,29,977911088
17,9,23,Ticks_Phase_5,326,5,42,127,977950016
17,9,23,Ticks_Phase_5,327,1,48,31,978423388
17,9,23,Ticks_Phase_5,328,5,42,127,978449688
17,9,23,Ticks_Phase_5,329,1,48,34,978902204
17,9,23,Ticks_Phase_5,330,5,42,127,978949580
17,9,23,Ticks_Phase_5,331,1,48,32,979395812
17,9,23,Ticks_Phase_5,332,5,42,127,979450444
17,9,23,Ticks_Phase_5,333,1,48,29,979875148
17,9,23,Ticks_Phase_5,334,5,42,127,979949792
17,9,23,Ticks_Phase_5,335,1,48,30,980407724
17,9,23,Ticks_Phase_5,336,5,42,127,980449760
17,9,23,Ticks_Phase_5,337,1,48,35,980905880
17,9,23,Ticks_Phase_5,338,5,42,127,980950624
17,9,23,Ticks_Phase_5,339,1,48,38,981365112
17,9,23,Ticks_Phase_5,340,5,42,127,981450148
17,9,23,Ticks_Phase_5,341,1,48,17,981907388
17,9,23,Ticks_Phase_5,342,5,42,127,981949672
17,9,23,Ticks_Phase_5,343,1,48,34,982430248
17,9,23,Ticks_Phase_5,344,5,42,127,982449488
17,9,23,Ticks_Phase_5,0,9999,9999,9999,897878080
17,9,23,Ticks_Phase_5,1,9999,9999,9999,898388088
17,9,23,Ticks_Phase_5,2,9999,9999,9999,898887780
17,9,23,Ticks_Phase_5,3,9999,9999,9999,899387472
17,9,23,Ticks_Phase_5,4,9999,9999,9999,899887164
17,9,23,Ticks_Phase_5,5,9999,9999,9999,900387956
17,9,23,Ticks_Phase_5,6,9999,9999,9999,900887620
17,9,23,Ticks_Phase_5,7,9999,9999,9999,901387372
17,9,23,Ticks_Phase_5,8,9999,9999,9999,901888080
17,9,23,Ticks_Phase_5,9,9999,9999,9999,902398048
17,9,23,Ticks_Phase_5,10,9999,9999,9999,902897788
17,9,23,Ticks_Phase_5,11,9999,9999,9999,903397464
17,9,23,Ticks_Phase_5,12,9999,9999,9999,903897208
17,9,23,Ticks_Phase_5,13,9999,9999,9999,904397920
17,9,23,Ticks_Phase_5,14,9999,9999,9999,904897664
17,9,23,Ticks_Phase_5,15,9999,9999,9999,905397336
17,9,23,Ticks_Phase_5,16,9999,9999,9999,905898052
17,9,23,Ticks_Phase_5,17,9999,9999,9999,906397800
17,9,23,Ticks_Phase_5,18,9999,9999,9999,906897468
17,9,23,Ticks_Phase_5,19,9999,9999,9999,907397216
17,9,23,Ticks_Phase_5,20,9999,9999,9999,907897928
17,9,23,Ticks_Phase_5,21,9999,9999,9999,908397676
17,9,23,Ticks_Phase_5,22,9999,9999,9999,908897344
17,9,23,Ticks_Phase_5,23,9999,9999,9999,909398136
17,9,23,Ticks_Phase_5,24,9999,9999,9999,909908056
17,9,23,Ticks_Phase_5,25,9999,9999,9999,910407796
17,9,23,Ticks_Phase_5,26,9999,9999,9999,910907468
17,9,23,Ticks_Phase_5,27,9999,9999,9999,911407212
17,9,23,Ticks_Phase_5,28,9999,9999,9999,911907928
17,9,23,Ticks_Phase_5,29,9999,9999,9999,912407676
17,9,23,Ticks_Phase_5,30,9999,9999,9999,912897112
17,9,23,Ticks_Phase_5,31,9999,9999,9999,913397872
17,9,23,Ticks_Phase_5,32,9999,9999,9999,913897544
17,9,23,Ticks_Phase_5,33,9999,9999,9999,914397288
17,9,23,Ticks_Phase_5,34,9999,9999,9999,914898004
17,9,23,Ticks_Phase_5,35,9999,9999,9999,915397752
17,9,23,Ticks_Phase_5,36,9999,9999,9999,915897420
17,9,23,Ticks_Phase_5,37,9999,9999,9999,916397168
17,9,23,Ticks_Phase_5,38,9999,9999,9999,916897880
17,9,23,Ticks_Phase_5,39,9999,9999,9999,917397632
17,9,23,Ticks_Phase_5,40,9999,9999,9999,917897304
17,9,23,Ticks_Phase_5,41,9999,9999,9999,918398020
17,9,23,Ticks_Phase_5,42,9999,9999,9999,918897744
17,9,23,Ticks_Phase_5,43,9999,9999,9999,919397488
17,9,23,Ticks_Phase_5,44,9999,9999,9999,919897204
17,9,23,Ticks_Phase_5,45,9999,9999,9999,920397928
17,9,23,Ticks_Phase_5,46,9999,9999,9999,920897652
17,9,23,Ticks_Phase_5,47,9999,9999,9999,921397316
17,9,23,Ticks_Phase_5,48,9999,9999,9999,921907284
17,9,23,Ticks_Phase_5,49,9999,9999,9999,922408052
17,9,23,Ticks_Phase_5,50,9999,9999,9999,922907704
17,9,23,Ticks_Phase_5,51,9999,9999,9999,923407428
17,9,23,Ticks_Phase_5,52,9999,9999,9999,923907156
17,9,23,Ticks_Phase_5,53,9999,9999,9999,924407920
17,9,23,Ticks_Phase_5,54,9999,9999,9999,924907644
17,9,23,Ticks_Phase_5,55,9999,9999,9999,925407316
17,9,23,Ticks_Phase_5,56,9999,9999,9999,925908024
17,9,23,Ticks_Phase_5,57,9999,9999,9999,926407768
17,9,23,Ticks_Phase_5,58,9999,9999,9999,926907516
17,9,23,Ticks_Phase_5,59,9999,9999,9999,927407188
17,9,23,Ticks_Phase_5,60,9999,9999,9999,927907900
17,9,23,Ticks_Phase_5,61,9999,9999,9999,928407648
17,9,23,Ticks_Phase_5,62,9999,9999,9999,928907392
17,9,23,Ticks_Phase_5,63,9999,9999,9999,929408108
17,9,23,Ticks_Phase_5,64,9999,9999,9999,929937464
17,9,23,Ticks_Phase_5,65,9999,9999,9999,930437208
17,9,23,Ticks_Phase_5,66,9999,9999,9999,930937924
17,9,23,Ticks_Phase_5,67,9999,9999,9999,931437672
17,9,23,Ticks_Phase_5,68,9999,9999,9999,931937340
17,9,23,Ticks_Phase_5,69,9999,9999,9999,932438140
17,9,23,Ticks_Phase_5,70,9999,9999,9999,932948044
17,9,23,Ticks_Phase_5,71,9999,9999,9999,933447788
17,9,23,Ticks_Phase_5,72,9999,9999,9999,933947464
17,9,23,Ticks_Phase_5,73,9999,9999,9999,934447208
17,9,23,Ticks_Phase_5,74,9999,9999,9999,934947924
17,9,23,Ticks_Phase_5,75,9999,9999,9999,935447672
17,9,23,Ticks_Phase_5,76,9999,9999,9999,935947340
17,9,23,Ticks_Phase_5,77,9999,9999,9999,936448056
17,9,23,Ticks_Phase_5,78,9999,9999,9999,936958040
17,9,23,Ticks_Phase_5,79,9999,9999,9999,937457764
17,9,23,Ticks_Phase_5,80,9999,9999,9999,937957440
17,9,23,Ticks_Phase_5,81,9999,9999,9999,938437740
17,9,23,Ticks_Phase_5,82,9999,9999,9999,938937416
17,9,23,Ticks_Phase_5,83,9999,9999,9999,939437156
17,9,23,Ticks_Phase_5,84,9999,9999,9999,939937872
17,9,23,Ticks_Phase_5,85,9999,9999,9999,940437620
17,9,23,Ticks_Phase_5,86,9999,9999,9999,940937288
17,9,23,Ticks_Phase_5,87,9999,9999,9999,941438012
17,9,23,Ticks_Phase_5,88,9999,9999,9999,941937748
17,9,23,Ticks_Phase_5,89,9999,9999,9999,942437496
17,9,23,Ticks_Phase_5,90,9999,9999,9999,942937164
17,9,23,Ticks_Phase_5,91,9999,9999,9999,943437888
17,9,23,Ticks_Phase_5,92,9999,9999,9999,943937624
17,9,23,Ticks_Phase_5,93,9999,9999,9999,944437376
17,9,23,Ticks_Phase_5,94,9999,9999,9999,944938092
17,9,23,Ticks_Phase_5,95,9999,9999,9999,945437756
17,9,23,Ticks_Phase_5,96,9999,9999,9999,945937504
17,9,23,Ticks_Phase_5,97,9999,9999,9999,946388036
17,9,23,Ticks_Phase_5,98,9999,9999,9999,946887780
17,9,23,Ticks_Phase_5,99,9999,9999,9999,947387520
17,9,23,Ticks_Phase_5,100,9999,9999,9999,947887192
17,9,23,Ticks_Phase_5,101,9999,9999,9999,948387908
17,9,23,Ticks_Phase_5,102,9999,9999,9999,948887652
17,9,23,Ticks_Phase_5,103,9999,9999,9999,949387328
17,9,23,Ticks_Phase_5,104,9999,9999,9999,949888120
17,9,23,Ticks_Phase_5,105,9999,9999,9999,950398024
17,9,23,Ticks_Phase_5,106,9999,9999,9999,950897776
17,9,23,Ticks_Phase_5,107,9999,9999,9999,951397440
17,9,23,Ticks_Phase_5,108,9999,9999,9999,951897184
17,9,23,Ticks_Phase_5,109,9999,9999,9999,952397908
17,9,23,Ticks_Phase_5,110,9999,9999,9999,952897652
17,9,23,Ticks_Phase_5,111,9999,9999,9999,953397316
17,9,23,Ticks_Phase_5,112,9999,9999,9999,953898040
17,9,23,Ticks_Phase_5,113,9999,9999,9999,954397788
17,9,23,Ticks_Phase_5,114,9999,9999,9999,954947692
17,9,23,Ticks_Phase_5,115,9999,9999,9999,955447372
17,9,23,Ticks_Phase_5,116,9999,9999,9999,955947120
17,9,23,Ticks_Phase_5,117,9999,9999,9999,956447832
17,9,23,Ticks_Phase_5,118,9999,9999,9999,956947576
17,9,23,Ticks_Phase_5,119,9999,9999,9999,957447244
17,9,23,Ticks_Phase_5,120,9999,9999,9999,957947960
17,9,23,Ticks_Phase_5,121,9999,9999,9999,958447680
17,9,23,Ticks_Phase_5,122,9999,9999,9999,958947424
17,9,23,Ticks_Phase_5,123,9999,9999,9999,959447100
17,9,23,Ticks_Phase_5,124,9999,9999,9999,959947888
17,9,23,Ticks_Phase_5,125,9999,9999,9999,960447560
17,9,23,Ticks_Phase_5,126,9999,9999,9999,960947312
17,9,23,Ticks_Phase_5,127,9999,9999,9999,961448028
17,9,23,Ticks_Phase_5,128,9999,9999,9999,961947768
17,9,23,Ticks_Phase_5,129,9999,9999,9999,962447436
17,9,23,Ticks_Phase_5,130,9999,9999,9999,962947184
17,9,23,Ticks_Phase_5,131,9999,9999,9999,963547244
17,9,23,Ticks_Phase_5,132,9999,9999,9999,964047976
17,9,23,Ticks_Phase_5,133,9999,9999,9999,964547652
17,9,23,Ticks_Phase_5,134,9999,9999,9999,965047400
17,9,23,Ticks_Phase_5,135,9999,9999,9999,965547072
17,9,23,Ticks_Phase_5,136,9999,9999,9999,966047860
17,9,23,Ticks_Phase_5,137,9999,9999,9999,966547524
17,9,23,Ticks_Phase_5,138,9999,9999,9999,967047268
17,9,23,Ticks_Phase_5,139,9999,9999,9999,967547984
17,9,23,Ticks_Phase_5,140,9999,9999,9999,968047728
17,9,23,Ticks_Phase_5,141,9999,9999,9999,968547404
17,9,23,Ticks_Phase_5,142,9999,9999,9999,969047148
17,9,23,Ticks_Phase_5,143,9999,9999,9999,969547864
17,9,23,Ticks_Phase_5,144,9999,9999,9999,970047608
17,9,23,Ticks_Phase_5,145,9999,9999,9999,970547280
17,9,23,Ticks_Phase_5,146,9999,9999,9999,971047996
17,9,23,Ticks_Phase_5,147,9999,9999,9999,971547740
17,9,23,Ticks_Phase_5,148,9999,9999,9999,972047420
17,9,23,Ticks_Phase_5,149,9999,9999,9999,972547160
17,9,23,Ticks_Phase_5,150,9999,9999,9999,972947528
17,9,23,Ticks_Phase_5,151,9999,9999,9999,973447268
17,9,23,Ticks_Phase_5,152,9999,9999,9999,973947984
17,9,23,Ticks_Phase_5,153,9999,9999,9999,974447728
17,9,23,Ticks_Phase_5,154,9999,9999,9999,974947400
17,9,23,Ticks_Phase_5,155,9999,9999,9999,975447144
17,9,23,Ticks_Phase_5,156,9999,9999,9999,975947860
17,9,23,Ticks_Phase_5,157,9999,9999,9999,976447604
17,9,23,Ticks_Phase_5,158,9999,9999,9999,976947276
17,9,23,Ticks_Phase_5,159,9999,9999,9999,977448064
17,9,23,Ticks_Phase_5,160,9999,9999,9999,977947736
17,9,23,Ticks_Phase_5,161,9999,9999,9999,978447480
17,9,23,Ticks_Phase_5,162,9999,9999,9999,978947148
17,9,23,Ticks_Phase_5,163,9999,9999,9999,979447916
17,9,23,Ticks_Phase_5,164,9999,9999,9999,979947584
17,9,23,Ticks_Phase_5,165,9999,9999,9999,980447332
17,9,23,Ticks_Phase_5,166,9999,9999,9999,980948044
17,9,23,Ticks_Phase_5,167,9999,9999,9999,981447792
17,9,23,Ticks_Phase_5,168,9999,9999,9999,981947464
17,9,23,Ticks_Phase_5,169,9999,9999,9999,982447208
17,10,22,Ticks_Phase_8,0,5,42,127,993100208
17,10,22,Ticks_Phase_8,1,5,42,127,993900020
17,10,22,Ticks_Phase_8,2,5,42,127,994699604
17,10,22,Ticks_Phase_8,3,1,48,38,994789748
17,10,22,Ticks_Phase_8,4,1,48,37,995496136
17,10,22,Ticks_Phase_8,5,5,42,127,995500504
17,10,22,Ticks_Phase_8,6,1,48,46,996252264
17,10,22,Ticks_Phase_8,7,5,42,127,996299996
17,10,22,Ticks_Phase_8,8,1,48,54,997050112
17,10,22,Ticks_Phase_8,9,5,42,127,997099928
17,10,22,Ticks_Phase_8,10,1,48,56,997871428
17,10,22,Ticks_Phase_8,11,5,42,127,997899596
17,10,22,Ticks_Phase_8,12,1,48,58,998651576
17,10,22,Ticks_Phase_8,13,5,42,127,998700576
17,10,22,Ticks_Phase_8,14,1,48,55,999410520
17,10,22,Ticks_Phase_8,15,5,42,127,999500288
17,10,22,Ticks_Phase_8,16,1,48,52,1000259376
17,10,22,Ticks_Phase_8,17,5,42,127,1000299928
17,10,22,Ticks_Phase_8,18,5,42,127,1001099644
17,10,22,Ticks_Phase_8,19,1,48,48,1001193292
17,10,22,Ticks_Phase_8,20,1,48,47,1001845864
17,10,22,Ticks_Phase_8,21,5,42,127,1001900396
17,10,22,Ticks_Phase_8,22,1,48,46,1002628984
17,10,22,Ticks_Phase_8,23,5,42,127,1002700256
17,10,22,Ticks_Phase_8,24,1,48,45,1003416200
17,10,22,Ticks_Phase_8,25,5,42,127,1003499972
17,10,22,Ticks_Phase_8,26,1,48,48,1004171512
17,10,22,Ticks_Phase_8,27,5,42,127,1004299696
17,10,22,Ticks_Phase_8,28,1,48,43,1004957760
17,10,22,Ticks_Phase_8,29,5,42,127,1005100376
17,10,22,Ticks_Phase_8,30,1,48,52,1005793212
17,10,22,Ticks_Phase_8,31,5,42,127,1005900016
17,10,22,Ticks_Phase_8,32,1,48,51,1006577516
17,10,22,Ticks_Phase_8,33,5,42,127,1006699952
17,10,22,Ticks_Phase_8,34,1,48,41,1007395056
17,10,22,Ticks_Phase_8,35,5,42,127,1007499592
17,10,22,Ticks_Phase_8,36,1,48,40,1008214280
17,10,22,Ticks_Phase_8,37,5,42,127,1008300440
17,10,22,Ticks_Phase_8,38,1,48,51,1009038452
17,10,22,Ticks_Phase_8,39,5,42,127,1009100080
17,10,22,Ticks_Phase_8,40,1,48,53,1009809680
17,10,22,Ticks_Phase_8,41,5,42,127,1009900016
17,10,22,Ticks_Phase_8,42,1,48,44,1010653196
17,10,22,Ticks_Phase_8,43,5,42,127,1010699604
17,10,22,Ticks_Phase_8,44,1,48,39,1011456592
17,10,22,Ticks_Phase_8,45,5,42,127,1011500364
17,10,22,Ticks_Phase_8,46,1,48,39,1012277700
17,10,22,Ticks_Phase_8,47,5,42,127,1012300080
17,10,22,Ticks_Phase_8,48,1,48,47,1013006900
17,10,22,Ticks_Phase_8,49,5,42,127,1013100520
17,10,22,Ticks_Phase_8,50,1,48,40,1013867464
17,10,22,Ticks_Phase_8,51,5,42,127,1013899800
17,10,22,Ticks_Phase_8,52,1,48,46,1014627572
17,10,22,Ticks_Phase_8,53,5,42,127,1014700336
17,10,22,Ticks_Phase_8,54,1,48,37,1015403724
17,10,22,Ticks_Phase_8,55,5,42,127,1015500184
17,10,22,Ticks_Phase_8,56,1,48,36,1016213004
17,10,22,Ticks_Phase_8,57,5,42,127,1016299840
17,10,22,Ticks_Phase_8,58,1,48,36,1016998004
17,10,22,Ticks_Phase_8,59,5,42,127,1017080064
17,10,22,Ticks_Phase_8,60,1,48,33,1017843384
17,10,22,Ticks_Phase_8,61,5,42,127,1017880000
17,10,22,Ticks_Phase_8,62,1,48,36,1018558396
17,10,22,Ticks_Phase_8,63,5,42,127,1018679772
17,10,22,Ticks_Phase_8,64,1,48,30,1019360576
17,10,22,Ticks_Phase_8,65,5,42,127,1019480456
17,10,22,Ticks_Phase_8,66,1,48,36,1020197908
17,10,22,Ticks_Phase_8,67,5,42,127,1020290572
17,10,22,Ticks_Phase_8,68,1,48,29,1020972432
17,10,22,Ticks_Phase_8,69,5,42,127,1021100512
17,10,22,Ticks_Phase_8,70,1,48,39,1021787256
17,10,22,Ticks_Phase_8,71,5,42,127,1021900376
17,10,22,Ticks_Phase_8,72,1,48,29,1022604224
17,10,22,Ticks_Phase_8,73,5,42,127,1022699804
17,10,22,Ticks_Phase_8,74,1,48,39,1023384128
17,10,22,Ticks_Phase_8,75,5,42,127,1023499528
17,10,22,Ticks_Phase_8,76,1,48,26,1024204620
17,10,22,Ticks_Phase_8,77,5,42,127,1024300376
17,10,22,Ticks_Phase_8,78,1,48,38,1025046296
17,10,22,Ticks_Phase_8,79,5,42,127,1025100088
17,10,22,Ticks_Phase_8,80,1,48,27,1025856104
17,10,22,Ticks_Phase_8,81,5,42,127,1025899876
17,10,22,Ticks_Phase_8,82,1,48,27,1026628692
17,10,22,Ticks_Phase_8,83,5,42,127,1026699588
17,10,22,Ticks_Phase_8,84,1,48,38,1027453216
17,10,22,Ticks_Phase_8,85,5,42,127,1027500348
17,10,22,Ticks_Phase_8,86,1,48,40,1028235728
17,10,22,Ticks_Phase_8,87,5,42,127,1028300208
17,10,22,Ticks_Phase_8,88,1,48,42,1029075140
17,10,22,Ticks_Phase_8,89,5,42,127,1029100144
17,10,22,Ticks_Phase_8,90,1,48,36,1029872840
17,10,22,Ticks_Phase_8,91,5,42,127,1029899584
17,10,22,Ticks_Phase_8,92,1,48,50,1030651716
17,10,22,Ticks_Phase_8,93,5,42,127,1030700492
17,10,22,Ticks_Phase_8,94,1,48,38,1031473932
17,10,22,Ticks_Phase_8,95,5,42,127,1031519792
17,10,22,Ticks_Phase_8,96,1,48,46,1032263032
17,10,22,Ticks_Phase_8,97,5,42,127,1032320332
17,10,22,Ticks_Phase_8,98,1,48,34,1033087112
17,10,22,Ticks_Phase_8,99,5,42,127,1033120044
17,10,22,Ticks_Phase_8,100,1,48,44,1033862008
17,10,22,Ticks_Phase_8,101,5,42,127,1033919980
17,10,22,Ticks_Phase_8,102,1,48,35,1034707024
17,10,22,Ticks_Phase_8,103,5,42,127,1034719844
17,10,22,Ticks_Phase_8,104,1,48,40,1035444316
17,10,22,Ticks_Phase_8,105,5,42,127,1035520476
17,10,22,Ticks_Phase_8,106,1,48,43,1036274752
17,10,22,Ticks_Phase_8,107,5,42,127,1036320040
17,10,22,Ticks_Phase_8,108,5,42,127,1037119984
17,10,22,Ticks_Phase_8,109,1,48,35,1037130648
17,10,22,Ticks_Phase_8,110,1,48,46,1037873308
17,10,22,Ticks_Phase_8,111,5,42,127,1037919764
17,10,22,Ticks_Phase_8,112,1,48,47,1038637296
17,10,22,Ticks_Phase_8,113,5,42,127,1038720596
17,10,22,Ticks_Phase_8,114,1,48,52,1039454268
17,10,22,Ticks_Phase_8,115,5,42,127,1039520236
17,10,22,Ticks_Phase_8,116,1,48,51,1040234240
17,10,22,Ticks_Phase_8,117,5,42,127,1040319952
17,10,22,Ticks_Phase_8,118,1,48,50,1041041512
17,10,22,Ticks_Phase_8,119,5,42,127,1041119592
17,10,22,Ticks_Phase_8,120,1,48,32,1041861332
17,10,22,Ticks_Phase_8,121,5,42,127,1041920448
17,10,22,Ticks_Phase_8,122,1,48,40,1042652744
17,10,22,Ticks_Phase_8,123,5,42,127,1042720384
17,10,22,Ticks_Phase_8,124,1,48,47,1043476552
17,10,22,Ticks_Phase_8,125,5,42,127,1043519876
17,10,22,Ticks_Phase_8,126,1,48,45,1044265724
17,10,22,Ticks_Phase_8,127,5,42,127,1044359500
17,10,22,Ticks_Phase_8,128,1,48,26,1045105360
17,10,22,Ticks_Phase_8,129,5,42,127,1045160272
17,10,22,Ticks_Phase_8,130,1,48,29,1045936996
17,10,22,Ticks_Phase_8,131,5,42,127,1045960212
17,10,22,Ticks_Phase_8,132,1,48,40,1046719452
17,10,22,Ticks_Phase_8,133,5,42,127,1046759776
17,10,22,Ticks_Phase_8,134,1,48,46,1047508700
17,10,22,Ticks_Phase_8,135,5,42,127,1047559516
17,10,22,Ticks_Phase_8,136,1,48,48,1048284704
17,10,22,Ticks_Phase_8,137,5,42,127,1048360200
17,10,22,Ticks_Phase_8,138,1,48,48,1049055708
17,10,22,Ticks_Phase_8,139,5,42,127,1049160044
17,10,22,Ticks_Phase_8,140,1,48,48,1049874208
17,10,22,Ticks_Phase_8,141,5,42,127,1049960216
17,10,22,Ticks_Phase_8,142,1,48,46,1050674668
17,10,22,Ticks_Phase_8,143,5,42,127,1050759408
17,10,22,Ticks_Phase_8,144,5,42,127,1051560248
17,10,22,Ticks_Phase_8,145,1,48,40,1051595060
17,10,22,Ticks_Phase_8,146,1,48,43,1052309240
17,10,22,Ticks_Phase_8,147,5,42,127,1052359956
17,10,22,Ticks_Phase_8,148,1,48,48,1053059832
17,10,22,Ticks_Phase_8,149,5,42,127,1053159952
17,10,22,Ticks_Phase_8,150,1,48,57,1053907752
17,10,22,Ticks_Phase_8,151,5,42,127,1053959556
17,10,22,Ticks_Phase_8,152,1,48,50,1054650356
17,10,22,Ticks_Phase_8,153,5,42,127,1054760296
17,10,22,Ticks_Phase_8,154,1,48,52,1055458824
17,10,22,Ticks_Phase_8,155,5,42,127,1055560156
17,10,22,Ticks_Phase_8,156,1,48,46,1056241556
17,10,22,Ticks_Phase_8,157,5,42,127,1056359944
17,10,22,Ticks_Phase_8,158,1,48,43,1057024916
17,10,22,Ticks_Phase_8,159,5,42,127,1057159584
17,10,22,Ticks_Phase_8,160,1,48,45,1057823064
17,10,22,Ticks_Phase_8,161,5,42,127,1057920348
17,10,22,Ticks_Phase_8,162,1,48,38,1058615596
17,10,22,Ticks_Phase_8,163,5,42,127,1058720132
17,10,22,Ticks_Phase_8,164,1,48,40,1059374120
17,10,22,Ticks_Phase_8,165,5,42,127,1059519844
17,10,22,Ticks_Phase_8,166,1,48,30,1060181088
17,10,22,Ticks_Phase_8,167,5,42,127,1060319560
17,10,22,Ticks_Phase_8,168,1,48,32,1060958596
17,10,22,Ticks_Phase_8,169,5,42,127,1061120636
17,10,22,Ticks_Phase_8,170,1,48,46,1061777600
17,10,22,Ticks_Phase_8,171,5,42,127,1061920128
17,10,22,Ticks_Phase_8,172,1,48,37,1062572816
17,10,22,Ticks_Phase_8,173,5,42,127,1062719768
17,10,22,Ticks_Phase_8,174,1,48,41,1063364828
17,10,22,Ticks_Phase_8,175,5,42,127,1063519556
17,10,22,Ticks_Phase_8,176,1,48,22,1064145772
17,10,22,Ticks_Phase_8,177,5,42,127,1064320460
17,10,22,Ticks_Phase_8,178,1,48,39,1064993732
17,10,22,Ticks_Phase_8,179,5,42,127,1065120324
17,10,22,Ticks_Phase_8,180,1,48,40,1065789792
17,10,22,Ticks_Phase_8,181,5,42,127,1065919812
17,10,22,Ticks_Phase_8,182,1,48,39,1066566316
17,10,22,Ticks_Phase_8,183,5,42,127,1066719452
17,10,22,Ticks_Phase_8,184,1,48,33,1067369180
17,10,22,Ticks_Phase_8,185,5,42,127,1067520308
17,10,22,Ticks_Phase_8,186,1,48,37,1068152068
17,10,22,Ticks_Phase_8,187,5,42,127,1068320096
17,10,22,Ticks_Phase_8,188,1,48,39,1068942208
17,10,22,Ticks_Phase_8,189,5,42,127,1069119808
17,10,22,Ticks_Phase_8,190,1,48,35,1069725244
17,10,22,Ticks_Phase_8,191,5,42,127,1069919524
17,10,22,Ticks_Phase_8,192,1,48,37,1070518540
17,10,22,Ticks_Phase_8,193,5,42,127,1070639392
17,10,22,Ticks_Phase_8,194,1,48,39,1071323776
17,10,22,Ticks_Phase_8,195,5,42,127,1071440148
17,10,22,Ticks_Phase_8,196,1,48,40,1072074144
17,10,22,Ticks_Phase_8,197,5,42,127,1072240084
17,10,22,Ticks_Phase_8,198,1,48,35,1072827428
17,10,22,Ticks_Phase_8,199,5,42,127,1073039944
17,10,22,Ticks_Phase_8,200,1,48,36,1073674564
17,10,22,Ticks_Phase_8,201,5,42,127,1073839364
17,10,22,Ticks_Phase_8,202,1,48,32,1074414896
17,10,22,Ticks_Phase_8,203,5,42,127,1074640192
17,10,22,Ticks_Phase_8,204,1,48,40,1075276904
17,10,22,Ticks_Phase_8,205,5,42,127,1075439980
17,10,22,Ticks_Phase_8,206,1,48,40,1076067880
17,10,22,Ticks_Phase_8,207,5,42,127,1076240016
17,10,22,Ticks_Phase_8,208,1,48,32,1076812864
17,10,22,Ticks_Phase_8,209,5,42,127,1077039432
17,10,22,Ticks_Phase_8,210,1,48,38,1077590376
17,10,22,Ticks_Phase_8,211,5,42,127,1077840264
17,10,22,Ticks_Phase_8,212,5,42,127,1078639996
17,10,22,Ticks_Phase_8,213,1,48,39,1079358356
17,10,22,Ticks_Phase_8,214,5,42,127,1079439800
17,10,22,Ticks_Phase_8,215,1,48,44,1080093244
17,10,22,Ticks_Phase_8,216,5,42,127,1080239648
17,10,22,Ticks_Phase_8,217,1,48,42,1080906632
17,10,22,Ticks_Phase_8,218,5,42,127,1081040256
17,10,22,Ticks_Phase_8,219,1,48,32,1081703212
17,10,22,Ticks_Phase_8,220,5,42,127,1081840120
17,10,22,Ticks_Phase_8,221,1,48,32,1082461736
17,10,22,Ticks_Phase_8,222,5,42,127,1082639708
17,10,22,Ticks_Phase_8,223,1,48,44,1083292996
17,10,22,Ticks_Phase_8,224,5,42,127,1083439496
17,10,22,Ticks_Phase_8,225,1,48,39,1084089200
17,10,22,Ticks_Phase_8,226,5,42,127,1084320100
17,10,22,Ticks_Phase_8,227,1,48,34,1084964440
17,10,22,Ticks_Phase_8,228,5,42,127,1085119740
17,10,22,Ticks_Phase_8,229,1,48,34,1085811480
17,10,22,Ticks_Phase_8,230,5,42,127,1085919452
17,10,22,Ticks_Phase_8,231,1,48,38,1086679004
17,10,22,Ticks_Phase_8,232,5,42,127,1086720400
17,10,22,Ticks_Phase_8,233,1,48,42,1087470416
17,10,22,Ticks_Phase_8,234,5,42,127,1087520184
17,10,22,Ticks_Phase_8,235,1,48,37,1088292208
17,10,22,Ticks_Phase_8,236,5,42,127,1088319824
17,10,22,Ticks_Phase_8,237,1,48,34,1089110760
17,10,22,Ticks_Phase_8,238,5,42,127,1089119536
17,10,22,Ticks_Phase_8,239,1,48,45,1089908532
17,10,22,Ticks_Phase_8,240,5,42,127,1089920220
17,10,22,Ticks_Phase_8,241,1,48,38,1090656648
17,10,22,Ticks_Phase_8,242,5,42,127,1090720084
17,10,22,Ticks_Phase_8,243,5,42,127,1091520024
17,10,22,Ticks_Phase_8,244,1,48,40,1091523664
17,10,22,Ticks_Phase_8,245,1,48,38,1092251072
17,10,22,Ticks_Phase_8,246,5,42,127,1092319584
17,10,22,Ticks_Phase_8,247,1,48,30,1093102820
17,10,22,Ticks_Phase_8,248,5,42,127,1093120440
17,10,22,Ticks_Phase_8,249,1,48,40,1093875632
17,10,22,Ticks_Phase_8,250,5,42,127,1093920080
17,10,22,Ticks_Phase_8,251,1,48,38,1094669824
17,10,22,Ticks_Phase_8,252,5,42,127,1094720092
17,10,22,Ticks_Phase_8,253,1,48,40,1095478292
17,10,22,Ticks_Phase_8,254,5,42,127,1095519656
17,10,22,Ticks_Phase_8,255,1,48,44,1096302668
17,10,22,Ticks_Phase_8,256,5,42,127,1096320264
17,10,22,Ticks_Phase_8,257,1,48,30,1097058200
17,10,22,Ticks_Phase_8,258,5,42,127,1097120052
17,10,22,Ticks_Phase_8,259,1,48,34,1097909120
17,10,22,Ticks_Phase_8,260,5,42,127,1098079840
17,10,22,Ticks_Phase_8,261,5,42,127,1098880320
17,10,22,Ticks_Phase_8,262,1,48,32,1098981220
17,10,22,Ticks_Phase_8,263,1,48,35,1099656960
17,10,22,Ticks_Phase_8,264,5,42,127,1099680100
17,10,22,Ticks_Phase_8,265,1,48,40,1100387292
17,10,22,Ticks_Phase_8,266,5,42,127,1100481064
17,10,22,Ticks_Phase_8,267,1,48,42,1101210344
17,10,22,Ticks_Phase_8,268,5,42,127,1101279748
17,10,22,Ticks_Phase_8,269,1,48,25,1102032036
17,10,22,Ticks_Phase_8,270,5,42,127,1102080608
17,10,22,Ticks_Phase_8,271,1,48,40,1102805724
17,10,22,Ticks_Phase_8,272,5,42,127,1102880244
17,10,22,Ticks_Phase_8,273,1,48,50,1103597972
17,10,22,Ticks_Phase_8,274,5,42,127,1103679736
17,10,22,Ticks_Phase_8,275,1,48,32,1104402260
17,10,22,Ticks_Phase_8,276,5,42,127,1104479672
17,10,22,Ticks_Phase_8,277,1,48,43,1105186344
17,10,22,Ticks_Phase_8,278,5,42,127,1105281532
17,10,22,Ticks_Phase_8,279,1,48,45,1105980536
17,10,22,Ticks_Phase_8,280,5,42,127,1106080424
17,10,22,Ticks_Phase_8,281,1,48,29,1106748100
17,10,22,Ticks_Phase_8,282,5,42,127,1106879916
17,10,22,Ticks_Phase_8,283,1,48,47,1107570988
17,10,22,Ticks_Phase_8,284,5,42,127,1107679556
17,10,22,Ticks_Phase_8,285,1,48,48,1108353276
17,10,22,Ticks_Phase_8,286,5,42,127,1108480412
17,10,22,Ticks_Phase_8,287,1,48,27,1109140132
17,10,22,Ticks_Phase_8,288,5,42,127,1109280272
17,10,22,Ticks_Phase_8,289,1,48,40,1109915764
17,10,22,Ticks_Phase_8,290,5,42,127,1110079836
17,10,22,Ticks_Phase_8,291,1,48,45,1110716072
17,10,22,Ticks_Phase_8,292,5,42,127,1110879548
17,10,22,Ticks_Phase_8,293,1,48,39,1111497688
17,10,22,Ticks_Phase_8,294,5,42,127,1111680380
17,10,22,Ticks_Phase_8,295,1,48,46,1112345352
17,10,22,Ticks_Phase_8,296,5,42,127,1112480244
17,10,22,Ticks_Phase_8,297,1,48,34,1113088704
17,10,22,Ticks_Phase_8,298,5,42,127,1113120280
17,10,22,Ticks_Phase_8,299,1,48,34,1113828064
17,10,22,Ticks_Phase_8,300,5,42,127,1113920276
17,10,22,Ticks_Phase_8,301,1,48,31,1114693136
17,10,22,Ticks_Phase_8,302,5,42,127,1114719484
17,10,22,Ticks_Phase_8,303,1,48,38,1115477144
17,10,22,Ticks_Phase_8,304,5,42,127,1115520392
17,10,22,Ticks_Phase_8,305,1,48,46,1116228948
17,10,22,Ticks_Phase_8,306,5,42,127,1116320180
17,10,22,Ticks_Phase_8,307,1,48,30,1117013104
17,10,22,Ticks_Phase_8,308,5,42,127,1117120028
17,10,22,Ticks_Phase_8,309,1,48,41,1117825300
17,10,22,Ticks_Phase_8,310,5,42,127,1117919592
17,10,22,Ticks_Phase_8,311,1,48,30,1118672412
17,10,22,Ticks_Phase_8,312,5,42,127,1118720388
17,10,22,Ticks_Phase_8,313,1,48,36,1119425092
17,10,22,Ticks_Phase_8,314,5,42,127,1119520028
17,10,22,Ticks_Phase_8,315,1,48,43,1120264532
17,10,22,Ticks_Phase_8,316,5,42,127,1120319812
17,10,22,Ticks_Phase_8,317,1,48,40,1121050868
17,10,22,Ticks_Phase_8,318,5,42,127,1121119676
17,10,22,Ticks_Phase_8,319,1,48,29,1121896396
17,10,22,Ticks_Phase_8,320,5,42,127,1121920508
17,10,22,Ticks_Phase_8,321,1,48,46,1122659188
17,10,22,Ticks_Phase_8,322,5,42,127,1122720144
17,10,22,Ticks_Phase_8,323,1,48,35,1123456572
17,10,22,Ticks_Phase_8,324,5,42,127,1123519712
17,10,22,Ticks_Phase_8,325,1,48,36,1124256064
17,10,22,Ticks_Phase_8,326,5,42,127,1124319500
17,10,22,Ticks_Phase_8,327,1,48,46,1125038444
17,10,22,Ticks_Phase_8,328,5,42,127,1125120652
17,10,22,Ticks_Phase_8,329,1,48,34,1125879824
17,10,22,Ticks_Phase_8,330,5,42,127,1125920216
17,10,22,Ticks_Phase_8,331,1,48,28,1126659044
17,10,22,Ticks_Phase_8,332,5,42,127,1126719780
17,10,22,Ticks_Phase_8,333,1,48,40,1127447384
17,10,22,Ticks_Phase_8,334,5,42,127,1127519568
17,10,22,Ticks_Phase_8,335,1,48,42,1128247488
17,10,22,Ticks_Phase_8,336,5,42,127,1128320476
17,10,22,Ticks_Phase_8,0,9999,9999,9999,993097852
17,10,22,Ticks_Phase_8,1,9999,9999,9999,993897588
17,10,22,Ticks_Phase_8,2,9999,9999,9999,994697324
17,10,22,Ticks_Phase_8,3,9999,9999,9999,995498072
17,10,22,Ticks_Phase_8,4,9999,9999,9999,996297788
17,10,22,Ticks_Phase_8,5,9999,9999,9999,997097572
17,10,22,Ticks_Phase_8,6,9999,9999,9999,997897312
17,10,22,Ticks_Phase_8,7,9999,9999,9999,998698068
17,10,22,Ticks_Phase_8,8,9999,9999,9999,999497856
17,10,22,Ticks_Phase_8,9,9999,9999,9999,1000297572
17,10,22,Ticks_Phase_8,10,9999,9999,9999,1001097288
17,10,22,Ticks_Phase_8,11,9999,9999,9999,1001898112
17,10,22,Ticks_Phase_8,12,9999,9999,9999,1002697824
17,10,22,Ticks_Phase_8,13,9999,9999,9999,1003497540
17,10,22,Ticks_Phase_8,14,9999,9999,9999,1004297336
17,10,22,Ticks_Phase_8,15,9999,9999,9999,1005098096
17,10,22,Ticks_Phase_8,16,9999,9999,9999,1005897808
17,10,22,Ticks_Phase_8,17,9999,9999,9999,1006697596
17,10,22,Ticks_Phase_8,18,9999,9999,9999,1007497308
17,10,22,Ticks_Phase_8,19,9999,9999,9999,1008298080
17,10,22,Ticks_Phase_8,20,9999,9999,9999,1009097796
17,10,22,Ticks_Phase_8,21,9999,9999,9999,1009897584
17,10,22,Ticks_Phase_8,22,9999,9999,9999,1010697320
17,10,22,Ticks_Phase_8,23,9999,9999,9999,1011498080
17,10,22,Ticks_Phase_8,24,9999,9999,9999,1012297796
17,10,22,Ticks_Phase_8,25,9999,9999,9999,1013097584
17,10,22,Ticks_Phase_8,26,9999,9999,9999,1013897296
17,10,22,Ticks_Phase_8,27,9999,9999,9999,1014698052
17,10,22,Ticks_Phase_8,28,9999,9999,9999,1015497824
17,10,22,Ticks_Phase_8,29,9999,9999,9999,1016297552
17,10,22,Ticks_Phase_8,30,9999,9999,9999,1017077836
17,10,22,Ticks_Phase_8,31,9999,9999,9999,1017877568
17,10,22,Ticks_Phase_8,32,9999,9999,9999,1018677340
17,10,22,Ticks_Phase_8,33,9999,9999,9999,1019478096
17,10,22,Ticks_Phase_8,34,9999,9999,9999,1020288068
17,10,22,Ticks_Phase_8,35,9999,9999,9999,1021098080
17,10,22,Ticks_Phase_8,36,9999,9999,9999,1021897796
17,10,22,Ticks_Phase_8,37,9999,9999,9999,1022697596
17,10,22,Ticks_Phase_8,38,9999,9999,9999,1023497320
17,10,22,Ticks_Phase_8,39,9999,9999,9999,1024298092
17,10,22,Ticks_Phase_8,40,9999,9999,9999,1025097804
17,10,22,Ticks_Phase_8,41,9999,9999,9999,1025897592
17,10,22,Ticks_Phase_8,42,9999,9999,9999,1026697304
17,10,22,Ticks_Phase_8,43,9999,9999,9999,1027498064
17,10,22,Ticks_Phase_8,44,9999,9999,9999,1028297852
17,10,22,Ticks_Phase_8,45,9999,9999,9999,1029097564
17,10,22,Ticks_Phase_8,46,9999,9999,9999,1029897300
17,10,22,Ticks_Phase_8,47,9999,9999,9999,1030698060
17,10,22,Ticks_Phase_8,48,9999,9999,9999,1031517288
17,10,22,Ticks_Phase_8,49,9999,9999,9999,1032318048
17,10,22,Ticks_Phase_8,50,9999,9999,9999,1033117760
17,10,22,Ticks_Phase_8,51,9999,9999,9999,1033917548
17,10,22,Ticks_Phase_8,52,9999,9999,9999,1034717264
17,10,22,Ticks_Phase_8,53,9999,9999,9999,1035518048
17,10,22,Ticks_Phase_8,54,9999,9999,9999,1036317760
17,10,22,Ticks_Phase_8,55,9999,9999,9999,1037117552
17,10,22,Ticks_Phase_8,56,9999,9999,9999,1037917260
17,10,22,Ticks_Phase_8,57,9999,9999,9999,1038718016
17,10,22,Ticks_Phase_8,58,9999,9999,9999,1039517804
17,10,22,Ticks_Phase_8,59,9999,9999,9999,1040317520
17,10,22,Ticks_Phase_8,60,9999,9999,9999,1041117308
17,10,22,Ticks_Phase_8,61,9999,9999,9999,1041918016
17,10,22,Ticks_Phase_8,62,9999,9999,9999,1042717804
17,10,22,Ticks_Phase_8,63,9999,9999,9999,1043517516
17,10,22,Ticks_Phase_8,64,9999,9999,9999,1044357248
17,10,22,Ticks_Phase_8,65,9999,9999,9999,1045157992
17,10,22,Ticks_Phase_8,66,9999,9999,9999,1045957704
17,10,22,Ticks_Phase_8,67,9999,9999,9999,1046757492
17,10,22,Ticks_Phase_8,68,9999,9999,9999,1047557232
17,10,22,Ticks_Phase_8,69,9999,9999,9999,1048357988
17,10,22,Ticks_Phase_8,70,9999,9999,9999,1049157760
17,10,22,Ticks_Phase_8,71,9999,9999,9999,1049957488
17,10,22,Ticks_Phase_8,72,9999,9999,9999,1050757200
17,10,22,Ticks_Phase_8,73,9999,9999,9999,1051557964
17,10,22,Ticks_Phase_8,74,9999,9999,9999,1052357748
17,10,22,Ticks_Phase_8,75,9999,9999,9999,1053157444
17,10,22,Ticks_Phase_8,76,9999,9999,9999,1053957196
17,10,22,Ticks_Phase_8,77,9999,9999,9999,1054758012
17,10,22,Ticks_Phase_8,78,9999,9999,9999,1055557724
17,10,22,Ticks_Phase_8,79,9999,9999,9999,1056357440
17,10,22,Ticks_Phase_8,80,9999,9999,9999,1057157224
17,10,22,Ticks_Phase_8,81,9999,9999,9999,1057918060
17,10,22,Ticks_Phase_8,82,9999,9999,9999,1058717776
17,10,22,Ticks_Phase_8,83,9999,9999,9999,1059517564
17,10,22,Ticks_Phase_8,84,9999,9999,9999,1060317276
17,10,22,Ticks_Phase_8,85,9999,9999,9999,1061118056
17,10,22,Ticks_Phase_8,86,9999,9999,9999,1061917772
17,10,22,Ticks_Phase_8,87,9999,9999,9999,1062717556
17,10,22,Ticks_Phase_8,88,9999,9999,9999,1063517272
17,10,22,Ticks_Phase_8,89,9999,9999,9999,1064318028
17,10,22,Ticks_Phase_8,90,9999,9999,9999,1065117816
17,10,22,Ticks_Phase_8,91,9999,9999,9999,1065917532
17,10,22,Ticks_Phase_8,92,9999,9999,9999,1066717244
17,10,22,Ticks_Phase_8,93,9999,9999,9999,1067518028
17,10,22,Ticks_Phase_8,94,9999,9999,9999,1068317812
17,10,22,Ticks_Phase_8,95,9999,9999,9999,1069117528
17,10,22,Ticks_Phase_8,96,9999,9999,9999,1069917312
17,10,22,Ticks_Phase_8,97,9999,9999,9999,1070637180
17,10,22,Ticks_Phase_8,98,9999,9999,9999,1071437940
17,10,22,Ticks_Phase_8,99,9999,9999,9999,1072237652
17,10,22,Ticks_Phase_8,100,9999,9999,9999,1073037440
17,10,22,Ticks_Phase_8,101,9999,9999,9999,1073837152
17,10,22,Ticks_Phase_8,102,9999,9999,9999,1074637912
17,10,22,Ticks_Phase_8,103,9999,9999,9999,1075437624
17,10,22,Ticks_Phase_8,104,9999,9999,9999,1076237436
17,10,22,Ticks_Phase_8,105,9999,9999,9999,1077037148
17,10,22,Ticks_Phase_8,106,9999,9999,9999,1077837908
17,10,22,Ticks_Phase_8,107,9999,9999,9999,1078637640
17,10,22,Ticks_Phase_8,108,9999,9999,9999,1079437368
17,10,22,Ticks_Phase_8,109,9999,9999,9999,1080237140
17,10,22,Ticks_Phase_8,110,9999,9999,9999,1081037900
17,10,22,Ticks_Phase_8,111,9999,9999,9999,1081837688
17,10,22,Ticks_Phase_8,112,9999,9999,9999,1082637424
17,10,22,Ticks_Phase_8,113,9999,9999,9999,1083437140
17,10,22,Ticks_Phase_8,114,9999,9999,9999,1084317816
17,10,22,Ticks_Phase_8,115,9999,9999,9999,1085117532
17,10,22,Ticks_Phase_8,116,9999,9999,9999,1085917244
17,10,22,Ticks_Phase_8,117,9999,9999,9999,1086718040
17,10,22,Ticks_Phase_8,118,9999,9999,9999,1087517756
17,10,22,Ticks_Phase_8,119,9999,9999,9999,1088317540
17,10,22,Ticks_Phase_8,120,9999,9999,9999,1089117256
17,10,22,Ticks_Phase_8,121,9999,9999,9999,1089918012
17,10,22,Ticks_Phase_8,122,9999,9999,9999,1090717800
17,10,22,Ticks_Phase_8,123,9999,9999,9999,1091517520
17,10,22,Ticks_Phase_8,124,9999,9999,9999,1092317304
17,10,22,Ticks_Phase_8,125,9999,9999,9999,1093118008
17,10,22,Ticks_Phase_8,126,9999,9999,9999,1093917796
17,10,22,Ticks_Phase_8,127,9999,9999,9999,1094717512
17,10,22,Ticks_Phase_8,128,9999,9999,9999,1095517300
17,10,22,Ticks_Phase_8,129,9999,9999,9999,1096318056
17,10,22,Ticks_Phase_8,130,9999,9999,9999,1097117768
17,10,22,Ticks_Phase_8,131,9999,9999,9999,1098077256
17,10,22,Ticks_Phase_8,132,9999,9999,9999,1098878036
17,10,22,Ticks_Phase_8,133,9999,9999,9999,1099677816
17,10,22,Ticks_Phase_8,134,9999,9999,9999,1100477532
17,10,22,Ticks_Phase_8,135,9999,9999,9999,1101277244
17,10,22,Ticks_Phase_8,136,9999,9999,9999,1102078028
17,10,22,Ticks_Phase_8,137,9999,9999,9999,1102877816
17,10,22,Ticks_Phase_8,138,9999,9999,9999,1103677528
17,10,22,Ticks_Phase_8,139,9999,9999,9999,1104477240
17,10,22,Ticks_Phase_8,140,9999,9999,9999,1105278072
17,10,22,Ticks_Phase_8,141,9999,9999,9999,1106077768
17,10,22,Ticks_Phase_8,142,9999,9999,9999,1106877560
17,10,22,Ticks_Phase_8,143,9999,9999,9999,1107677272
17,10,22,Ticks_Phase_8,144,9999,9999,9999,1108478052
17,10,22,Ticks_Phase_8,145,9999,9999,9999,1109277764
17,10,22,Ticks_Phase_8,146,9999,9999,9999,1110077552
17,10,22,Ticks_Phase_8,147,9999,9999,9999,1110877264
17,10,22,Ticks_Phase_8,148,9999,9999,9999,1111678024
17,10,22,Ticks_Phase_8,149,9999,9999,9999,1112477808
17,10,22,Ticks_Phase_8,150,9999,9999,9999,1113117772
17,10,22,Ticks_Phase_8,151,9999,9999,9999,1113917564
17,10,22,Ticks_Phase_8,152,9999,9999,9999,1114717276
17,10,22,Ticks_Phase_8,153,9999,9999,9999,1115518036
17,10,22,Ticks_Phase_8,154,9999,9999,9999,1116317824
17,10,22,Ticks_Phase_8,155,9999,9999,9999,1117117520
17,10,22,Ticks_Phase_8,156,9999,9999,9999,1117917256
17,10,22,Ticks_Phase_8,157,9999,9999,9999,1118718032
17,10,22,Ticks_Phase_8,158,9999,9999,9999,1119517816
17,10,22,Ticks_Phase_8,159,9999,9999,9999,1120317532
17,10,22,Ticks_Phase_8,160,9999,9999,9999,1121117244
17,10,22,Ticks_Phase_8,161,9999,9999,9999,1121918076
17,10,22,Ticks_Phase_8,162,9999,9999,9999,1122717788
17,10,22,Ticks_Phase_8,163,9999,9999,9999,1123517504
17,10,22,Ticks_Phase_8,164,9999,9999,9999,1124317292
17,10,22,Ticks_Phase_8,165,9999,9999,9999,1125118072
17,10,22,Ticks_Phase_8,166,9999,9999,9999,1125917788
17,10,22,Ticks_Phase_8,167,9999,9999,9999,1126717500
17,10,22,Ticks_Phase_8,168,9999,9999,9999,1127517288
17,10,22,Ticks_Phase_8,169,9999,9999,9999,1128318044
17,11,25,Jits_Pract_5,0,5,56,103,1191768440
17,11,25,Jits_Pract_5,1,5,63,98,1191771612
17,11,25,Jits_Pract_5,2,5,80,127,1191774652
17,11,25,Jits_Pract_5,0,5,56,103,1192269116
17,11,25,Jits_Pract_5,1,5,63,98,1192272432
17,11,25,Jits_Pract_5,2,5,80,127,1192275472
17,11,25,Jits_Pract_5,0,5,56,103,1192768832
17,11,25,Jits_Pract_5,1,5,80,127,1192779308
17,11,25,Jits_Pract_5,2,5,63,98,1192798468
17,11,25,Jits_Pract_5,0,5,63,98,1193218296
17,11,25,Jits_Pract_5,1,5,80,127,1193249264
17,11,25,Jits_Pract_5,2,5,56,103,1193259368
17,11,25,Jits_Pract_5,0,5,80,127,1193778432
17,11,25,Jits_Pract_5,1,5,56,103,1193789056
17,11,25,Jits_Pract_5,2,5,63,98,1193818460
17,11,25,Jits_Pract_5,0,5,63,98,1194269100
17,11,25,Jits_Pract_5,1,5,56,103,1194298804
17,11,25,Jits_Pract_5,2,5,80,127,1194309128
17,11,25,Jits_Pract_5,0,5,56,103,1194718448
17,11,25,Jits_Pract_5,1,5,63,98,1194769112
17,11,25,Jits_Pract_5,2,5,80,127,1194789316
17,11,25,Jits_Pract_5,0,5,80,127,1195219288
17,11,25,Jits_Pract_5,1,5,63,98,1195268464
17,11,25,Jits_Pract_5,2,5,56,103,1195309380
17,11,25,Jits_Pract_5,0,5,56,103,1195719232
17,11,25,Jits_Pract_5,1,5,63,98,1195748932
17,11,25,Jits_Pract_5,2,5,80,127,1195819344
17,11,25,Jits_Pract_5,0,5,56,103,1196218876
17,11,25,Jits_Pract_5,1,5,80,127,1196279120
17,11,25,Jits_Pract_5,2,5,63,98,1196309040
17,11,25,Jits_Pract_5,0,5,56,103,1196728612
17,11,25,Jits_Pract_5,1,5,63,98,1196739164
17,11,25,Jits_Pract_5,2,5,80,127,1196779060
17,11,25,Jits_Pract_5,0,5,63,98,1197219132
17,11,25,Jits_Pract_5,1,5,80,127,1197299116
17,11,25,Jits_Pract_5,2,5,56,103,1197309372
17,11,25,Jits_Pract_5,0,5,63,98,1197768952
17,11,25,Jits_Pract_5,1,5,56,103,1197809000
17,11,25,Jits_Pract_5,2,5,80,127,1197812136
17,11,25,Jits_Pract_5,0,5,56,103,1198229084
17,11,25,Jits_Pract_5,1,5,63,98,1198239116
17,11,25,Jits_Pract_5,2,5,80,127,1198278912
17,11,25,Jits_Pract_5,0,5,56,103,1198719304
17,11,25,Jits_Pract_5,1,5,63,98,1198722288
17,11,25,Jits_Pract_5,2,5,80,127,1198738904
17,11,25,Jits_Pract_5,0,9999,9999,9999,1192016956
17,11,25,Jits_Pract_5,1,9999,9999,9999,1192516660
17,11,25,Jits_Pract_5,2,9999,9999,9999,1193016384
17,11,25,Jits_Pract_5,3,9999,9999,9999,1193516096
17,11,25,Jits_Pract_5,4,9999,9999,9999,1194016852
17,11,25,Jits_Pract_5,5,9999,9999,9999,1194516576
17,11,25,Jits_Pract_5,6,9999,9999,9999,1195016280
17,11,25,Jits_Pract_5,7,9999,9999,9999,1195517048
17,11,25,Jits_Pract_5,8,9999,9999,9999,1196016692
17,11,25,Jits_Pract_5,9,9999,9999,9999,1196516460
17,11,25,Jits_Pract_5,10,9999,9999,9999,1197016172
17,11,25,Jits_Pract_5,11,9999,9999,9999,1197516864
17,11,25,Jits_Pract_5,12,9999,9999,9999,1198016568
17,11,25,Jits_Pract_5,13,9999,9999,9999,1198516344
17,11,25,Jits_Pract_5,14,9999,9999,9999,1199017020
17,12,24,Jits_Pract_8,0,5,56,103,1204363544
17,12,24,Jits_Pract_8,1,5,63,98,1204366640
17,12,24,Jits_Pract_8,2,5,80,127,1204369688
17,12,24,Jits_Pract_8,0,5,56,103,1205164528
17,12,24,Jits_Pract_8,1,5,63,98,1205167472
17,12,24,Jits_Pract_8,2,5,80,127,1205170664
17,12,24,Jits_Pract_8,0,5,80,127,1205903672
17,12,24,Jits_Pract_8,1,5,63,98,1205993828
17,12,24,Jits_Pract_8,2,5,56,103,1206004080
17,12,24,Jits_Pract_8,0,5,56,103,1206723892
17,12,24,Jits_Pract_8,1,5,63,98,1206734368
17,12,24,Jits_Pract_8,2,5,80,127,1206824448
17,12,24,Jits_Pract_8,0,5,63,98,1207493852
17,12,24,Jits_Pract_8,1,5,80,127,1207523552
17,12,24,Jits_Pract_8,2,5,56,103,1207554544
17,12,24,Jits_Pract_8,0,5,56,103,1208293712
17,12,24,Jits_Pract_8,1,5,80,127,1208394340
17,12,24,Jits_Pract_8,2,5,63,98,1208444456
17,12,24,Jits_Pract_8,0,5,56,103,1209093396
17,12,24,Jits_Pract_8,1,5,80,127,1209143588
17,12,24,Jits_Pract_8,2,5,63,98,1209183608
17,12,24,Jits_Pract_8,0,5,80,127,1209924160
17,12,24,Jits_Pract_8,1,5,63,98,1209953712
17,12,24,Jits_Pract_8,2,5,56,103,1210024172
17,12,24,Jits_Pract_8,0,5,63,98,1210754408
17,12,24,Jits_Pract_8,1,5,56,103,1210784184
17,12,24,Jits_Pract_8,2,5,80,127,1210843352
17,12,24,Jits_Pract_8,0,5,56,103,1211493764
17,12,24,Jits_Pract_8,1,5,80,127,1211496824
17,12,24,Jits_Pract_8,2,5,63,98,1211613436
17,12,24,Jits_Pract_8,0,5,56,103,1212374264
17,12,24,Jits_Pract_8,1,5,80,127,1212414384
17,12,24,Jits_Pract_8,2,5,63,98,1212423592
17,12,24,Jits_Pract_8,0,5,56,103,1213134280
17,12,24,Jits_Pract_8,1,5,80,127,1213153664
17,12,24,Jits_Pract_8,2,5,63,98,1213233496
17,12,24,Jits_Pract_8,0,5,80,127,1213923616
17,12,24,Jits_Pract_8,1,5,56,103,1214024220
17,12,24,Jits_Pract_8,2,5,63,98,1214034324
17,12,24,Jits_Pract_8,0,5,63,98,1214693856
17,12,24,Jits_Pract_8,1,5,80,127,1214754220
17,12,24,Jits_Pract_8,2,5,56,103,1214764400
17,12,24,Jits_Pract_8,0,5,56,103,1215493424
17,12,24,Jits_Pract_8,1,5,63,98,1215564180
17,12,24,Jits_Pract_8,2,5,80,127,1215567388
17,12,24,Jits_Pract_8,0,9999,9999,9999,1204761660
17,12,24,Jits_Pract_8,1,9999,9999,9999,1205561444
17,12,24,Jits_Pract_8,2,9999,9999,9999,1206361172
17,12,24,Jits_Pract_8,3,9999,9999,9999,1207161944
17,12,24,Jits_Pract_8,4,9999,9999,9999,1207961668
17,12,24,Jits_Pract_8,5,9999,9999,9999,1208761460
17,12,24,Jits_Pract_8,6,9999,9999,9999,1209561192
17,12,24,Jits_Pract_8,7,9999,9999,9999,1210361916
17,12,24,Jits_Pract_8,8,9999,9999,9999,1211161724
17,12,24,Jits_Pract_8,9,9999,9999,9999,1211961424
17,12,24,Jits_Pract_8,10,9999,9999,9999,1212761160
17,12,24,Jits_Pract_8,11,9999,9999,9999,1213561940
17,12,24,Jits_Pract_8,12,9999,9999,9999,1214361648
17,12,24,Jits_Pract_8,13,9999,9999,9999,1215161428
17,12,24,Jits_Pract_8,14,9999,9999,9999,1215961208
17,13,19,Jits_Linear_5,0,5,56,103,1243085200
17,13,19,Jits_Linear_5,1,5,63,98,1243088520
17,13,19,Jits_Linear_5,2,5,80,127,1243091632
17,13,19,Jits_Linear_5,0,5,56,103,1243565528
17,13,19,Jits_Linear_5,1,5,63,98,1243568624
17,13,19,Jits_Linear_5,2,5,80,127,1243571888
17,13,19,Jits_Linear_5,0,5,56,103,1244044604
17,13,19,Jits_Linear_5,1,5,80,127,1244055008
17,13,19,Jits_Linear_5,2,5,63,98,1244075656
17,13,19,Jits_Linear_5,0,5,63,98,1244474836
17,13,19,Jits_Linear_5,1,5,80,127,1244504688
17,13,19,Jits_Linear_5,2,5,56,103,1244514868
17,13,19,Jits_Linear_5,0,5,80,127,1245015680
17,13,19,Jits_Linear_5,1,5,56,103,1245024592
17,13,19,Jits_Linear_5,2,1,48,45,1245030620
17,13,19,Jits_Linear_5,3,5,63,98,1245055480
17,13,19,Jits_Linear_5,0,1,48,39,1245491056
17,13,19,Jits_Linear_5,1,5,63,98,1245494832
17,13,19,Jits_Linear_5,2,5,56,103,1245525356
17,13,19,Jits_Linear_5,3,5,80,127,1245534564
17,13,19,Jits_Linear_5,0,5,56,103,1245935008
17,13,19,Jits_Linear_5,1,1,48,45,1245955480
17,13,19,Jits_Linear_5,2,5,63,98,1245985124
17,13,19,Jits_Linear_5,3,5,80,127,1246004652
17,13,19,Jits_Linear_5,0,1,48,45,1246407664
17,13,19,Jits_Linear_5,1,5,80,127,1246424600
17,13,19,Jits_Linear_5,2,5,63,98,1246474600
17,13,19,Jits_Linear_5,3,5,56,103,1246514528
17,13,19,Jits_Linear_5,0,5,56,103,1246914964
17,13,19,Jits_Linear_5,1,1,48,42,1246929220
17,13,19,Jits_Linear_5,2,5,63,98,1246944660
17,13,19,Jits_Linear_5,3,5,80,127,1247015492
17,13,19,Jits_Linear_5,0,5,56,103,1247405384
17,13,19,Jits_Linear_5,1,1,48,47,1247411484
17,13,19,Jits_Linear_5,2,5,80,127,1247464800
17,13,19,Jits_Linear_5,3,5,63,98,1247494424
17,13,19,Jits_Linear_5,0,1,48,44,1247894080
17,13,19,Jits_Linear_5,1,5,56,103,1247905172
17,13,19,Jits_Linear_5,2,5,63,98,1247915352
17,13,19,Jits_Linear_5,3,5,80,127,1247955448
17,13,19,Jits_Linear_5,0,1,48,45,1248365808
17,13,19,Jits_Linear_5,1,5,63,98,1248394556
17,13,19,Jits_Linear_5,2,5,80,127,1248474432
17,13,19,Jits_Linear_5,3,5,56,103,1248484636
17,13,19,Jits_Linear_5,0,1,48,41,1248899096
17,13,19,Jits_Linear_5,1,5,63,98,1248944528
17,13,19,Jits_Linear_5,2,5,56,103,1248984548
17,13,19,Jits_Linear_5,3,5,80,127,1248987536
17,13,19,Jits_Linear_5,0,5,56,103,1249405556
17,13,19,Jits_Linear_5,1,5,63,98,1249414472
17,13,19,Jits_Linear_5,2,1,48,39,1249429468
17,13,19,Jits_Linear_5,3,5,80,127,1249454560
17,13,19,Jits_Linear_5,0,5,56,103,1249894728
17,13,19,Jits_Linear_5,1,5,63,98,1249897792
17,13,19,Jits_Linear_5,2,1,48,35,1249911148
17,13,19,Jits_Linear_5,3,5,80,127,1249915444
17,13,19,Jits_Linear_5,0,1,48,37,1250382200
17,13,19,Jits_Linear_5,1,5,80,127,1250415072
17,13,19,Jits_Linear_5,2,5,56,103,1250425400
17,13,19,Jits_Linear_5,3,5,63,98,1250494876
17,13,19,Jits_Linear_5,0,1,48,43,1250900380
17,13,19,Jits_Linear_5,1,5,63,98,1250914700
17,13,19,Jits_Linear_5,2,5,56,103,1250935352
17,13,19,Jits_Linear_5,3,5,80,127,1251015220
17,13,19,Jits_Linear_5,0,1,48,42,1251387372
17,13,19,Jits_Linear_5,1,5,56,103,1251434752
17,13,19,Jits_Linear_5,2,5,80,127,1251474776
17,13,19,Jits_Linear_5,3,5,63,98,1251485164
17,13,19,Jits_Linear_5,0,1,48,40,1251894416
17,13,19,Jits_Linear_5,1,5,80,127,1251934456
17,13,19,Jits_Linear_5,2,5,63,98,1251965352
17,13,19,Jits_Linear_5,3,5,56,103,1252005284
17,13,19,Jits_Linear_5,0,1,48,32,1252430088
17,13,19,Jits_Linear_5,1,5,56,103,1252465124
17,13,19,Jits_Linear_5,2,5,63,98,1252494676
17,13,19,Jits_Linear_5,3,5,80,127,1252545004
17,13,19,Jits_Linear_5,0,1,48,39,1252934144
17,13,19,Jits_Linear_5,1,5,80,127,1252975080
17,13,19,Jits_Linear_5,2,5,56,103,1253015028
17,13,19,Jits_Linear_5,3,5,63,98,1253025284
17,13,19,Jits_Linear_5,0,1,48,36,1253458232
17,13,19,Jits_Linear_5,1,5,80,127,1253474640
17,13,19,Jits_Linear_5,2,5,63,98,1253514664
17,13,19,Jits_Linear_5,3,5,56,103,1253575012
17,13,19,Jits_Linear_5,0,1,48,34,1253977680
17,13,19,Jits_Linear_5,1,5,56,103,1253995060
17,13,19,Jits_Linear_5,2,5,80,127,1254005020
17,13,19,Jits_Linear_5,3,5,63,98,1254085188
17,13,19,Jits_Linear_5,0,1,48,35,1254510064
17,13,19,Jits_Linear_5,1,5,80,127,1254515032
17,13,19,Jits_Linear_5,2,5,63,98,1254574432
17,13,19,Jits_Linear_5,3,5,56,103,1254605176
17,13,19,Jits_Linear_5,0,1,48,32,1255025112
17,13,19,Jits_Linear_5,1,5,56,103,1255035308
17,13,19,Jits_Linear_5,2,5,80,127,1255094632
17,13,19,Jits_Linear_5,3,5,63,98,1255134636
17,13,19,Jits_Linear_5,0,1,48,31,1255548744
17,13,19,Jits_Linear_5,1,5,56,103,1255614900
17,13,19,Jits_Linear_5,2,5,63,98,1255625004
17,13,19,Jits_Linear_5,3,5,80,127,1255628436
17,13,19,Jits_Linear_5,0,1,48,35,1256085552
17,13,19,Jits_Linear_5,1,5,80,127,1256095148
17,13,19,Jits_Linear_5,2,5,63,98,1256185148
17,13,19,Jits_Linear_5,3,5,56,103,1256194284
17,13,19,Jits_Linear_5,0,1,48,34,1256617048
17,13,19,Jits_Linear_5,1,5,56,103,1256624456
17,13,19,Jits_Linear_5,2,5,63,98,1256627708
17,13,19,Jits_Linear_5,3,5,80,127,1256630968
17,13,19,Jits_Linear_5,0,1,48,34,1257089420
17,13,19,Jits_Linear_5,1,5,80,127,1257175468
17,13,19,Jits_Linear_5,2,5,63,98,1257224552
17,13,19,Jits_Linear_5,3,5,56,103,1257255372
17,13,19,Jits_Linear_5,0,1,48,33,1257652252
17,13,19,Jits_Linear_5,1,5,56,103,1257685496
17,13,19,Jits_Linear_5,2,5,80,127,1257694704
17,13,19,Jits_Linear_5,3,5,63,98,1257765104
17,13,19,Jits_Linear_5,0,1,48,23,1258185252
17,13,19,Jits_Linear_5,1,5,56,103,1258225092
17,13,19,Jits_Linear_5,2,5,63,98,1258244400
17,13,19,Jits_Linear_5,3,5,80,127,1258304824
17,13,19,Jits_Linear_5,0,1,48,24,1258726868
17,13,19,Jits_Linear_5,1,5,80,127,1258754272
17,13,19,Jits_Linear_5,2,5,63,98,1258826068
17,13,19,Jits_Linear_5,3,5,56,103,1258844404
17,13,19,Jits_Linear_5,0,1,48,27,1259252908
17,13,19,Jits_Linear_5,1,5,80,127,1259314488
17,13,19,Jits_Linear_5,2,5,56,103,1259324892
17,13,19,Jits_Linear_5,3,5,63,98,1259334920
17,13,19,Jits_Linear_5,0,1,48,29,1259811984
17,13,19,Jits_Linear_5,1,5,80,127,1259844928
17,13,19,Jits_Linear_5,2,5,56,103,1259864536
17,13,19,Jits_Linear_5,3,5,63,98,1259934980
17,13,19,Jits_Linear_5,0,1,48,25,1260356568
17,13,19,Jits_Linear_5,1,5,56,103,1260395044
17,13,19,Jits_Linear_5,2,5,80,127,1260424748
17,13,19,Jits_Linear_5,3,5,63,98,1260445024
17,13,19,Jits_Linear_5,0,1,48,29,1260881176
17,13,19,Jits_Linear_5,1,5,63,98,1260934468
17,13,19,Jits_Linear_5,2,5,56,103,1260994972
17,13,19,Jits_Linear_5,3,5,80,127,1261024892
17,13,19,Jits_Linear_5,0,1,48,33,1261443128
17,13,19,Jits_Linear_5,1,5,63,98,1261475160
17,13,19,Jits_Linear_5,2,5,80,127,1261478740
17,13,19,Jits_Linear_5,3,5,56,103,1261565152
17,13,19,Jits_Linear_5,0,1,48,22,1261993752
17,13,19,Jits_Linear_5,1,5,56,103,1262044788
17,13,19,Jits_Linear_5,2,5,63,98,1262075264
17,13,19,Jits_Linear_5,3,5,80,127,1262115120
17,13,19,Jits_Linear_5,0,1,48,27,1262545964
17,13,19,Jits_Linear_5,1,5,63,98,1262594708
17,13,19,Jits_Linear_5,2,5,56,103,1262635256
17,13,19,Jits_Linear_5,3,5,80,127,1262654768
17,13,19,Jits_Linear_5,0,1,48,27,1263121456
17,13,19,Jits_Linear_5,1,5,63,98,1263154624
17,13,19,Jits_Linear_5,2,5,56,103,1263194648
17,13,19,Jits_Linear_5,3,5,80,127,1263204828
17,13,19,Jits_Linear_5,0,5,80,127,1263684856
17,13,19,Jits_Linear_5,1,1,48,28,1263703684
17,13,19,Jits_Linear_5,2,5,63,98,1263754716
17,13,19,Jits_Linear_5,3,5,56,103,1263775068
17,13,19,Jits_Linear_5,0,5,56,103,1264234840
17,13,19,Jits_Linear_5,1,5,80,127,1264255560
17,13,19,Jits_Linear_5,2,1,48,33,1264266536
17,13,19,Jits_Linear_5,3,5,63,98,1264295208
17,13,19,Jits_Linear_5,0,5,63,98,1264805308
17,13,19,Jits_Linear_5,1,1,48,33,1264806348
17,13,19,Jits_Linear_5,2,5,80,127,1264824756
17,13,19,Jits_Linear_5,3,5,56,103,1264864704
17,13,19,Jits_Linear_5,0,1,48,20,1265359868
17,13,19,Jits_Linear_5,1,1,48,34,1265364372
17,13,19,Jits_Linear_5,2,5,63,98,1265365788
17,13,19,Jits_Linear_5,3,5,56,103,1265384748
17,13,19,Jits_Linear_5,4,5,80,127,1265395004
17,13,19,Jits_Linear_5,0,1,48,29,1265900280
17,13,19,Jits_Linear_5,1,5,80,127,1265924548
17,13,19,Jits_Linear_5,2,5,56,103,1265944900
17,13,19,Jits_Linear_5,3,5,63,98,1265974676
17,13,19,Jits_Linear_5,0,1,48,26,1266451516
17,13,19,Jits_Linear_5,1,5,56,103,1266564556
17,13,19,Jits_Linear_5,2,5,80,127,1266567544
17,13,19,Jits_Linear_5,3,5,63,98,1266584984
17,13,19,Jits_Linear_5,0,5,63,98,1267054928
17,13,19,Jits_Linear_5,1,1,48,31,1267069112
17,13,19,Jits_Linear_5,2,5,56,103,1267084772
17,13,19,Jits_Linear_5,3,5,80,127,1267145064
17,13,19,Jits_Linear_5,0,1,48,29,1267583552
17,13,19,Jits_Linear_5,1,5,63,98,1267705132
17,13,19,Jits_Linear_5,2,5,56,103,1267714640
17,13,19,Jits_Linear_5,3,5,80,127,1267724596
17,13,19,Jits_Linear_5,0,1,48,33,1268129176
17,13,19,Jits_Linear_5,1,5,56,103,1268226528
17,13,19,Jits_Linear_5,2,5,80,127,1268255036
17,13,19,Jits_Linear_5,3,5,63,98,1268265588
17,13,19,Jits_Linear_5,0,1,48,35,1268672648
17,13,19,Jits_Linear_5,1,5,63,98,1268834692
17,13,19,Jits_Linear_5,2,5,56,103,1268844948
17,13,19,Jits_Linear_5,3,5,80,127,1268865448
17,13,19,Jits_Linear_5,0,1,48,30,1269252096
17,13,19,Jits_Linear_5,1,5,56,103,1269344812
17,13,19,Jits_Linear_5,2,5,63,98,1269405088
17,13,19,Jits_Linear_5,3,5,80,127,1269408596
17,13,19,Jits_Linear_5,0,1,48,25,1269829360
17,13,19,Jits_Linear_5,1,5,80,127,1269944644
17,13,19,Jits_Linear_5,2,5,56,103,1269954896
17,13,19,Jits_Linear_5,3,5,63,98,1270024488
17,13,19,Jits_Linear_5,0,1,48,23,1270402672
17,13,19,Jits_Linear_5,1,5,80,127,1270515196
17,13,19,Jits_Linear_5,2,5,56,103,1270584620
17,13,19,Jits_Linear_5,3,5,63,98,1270594948
17,13,19,Jits_Linear_5,0,1,48,23,1270965348
17,13,19,Jits_Linear_5,1,5,63,98,1271134504
17,13,19,Jits_Linear_5,2,5,56,103,1271144832
17,13,19,Jits_Linear_5,3,5,80,127,1271165256
17,13,19,Jits_Linear_5,0,1,48,23,1271551456
17,13,19,Jits_Linear_5,1,5,80,127,1271664948
17,13,19,Jits_Linear_5,2,5,63,98,1271725392
17,13,19,Jits_Linear_5,3,5,56,103,1271765340
17,13,19,Jits_Linear_5,0,1,48,25,1272179748
17,13,19,Jits_Linear_5,1,5,56,103,1272294756
17,13,19,Jits_Linear_5,2,5,63,98,1272305084
17,13,19,Jits_Linear_5,3,5,80,127,1272345032
17,13,19,Jits_Linear_5,0,1,48,22,1272820020
17,13,19,Jits_Linear_5,1,5,56,103,1272844736
17,13,19,Jits_Linear_5,2,5,80,127,1272875484
17,13,19,Jits_Linear_5,3,5,63,98,1272924616
17,13,19,Jits_Linear_5,0,1,48,21,1273443820
17,13,19,Jits_Linear_5,1,5,56,103,1273474512
17,13,19,Jits_Linear_5,2,5,63,98,1273515504
17,13,19,Jits_Linear_5,3,5,80,127,1273518788
17,13,19,Jits_Linear_5,0,1,48,24,1274000200
17,13,19,Jits_Linear_5,1,5,56,103,1274065236
17,13,19,Jits_Linear_5,2,5,63,98,1274074444
17,13,19,Jits_Linear_5,3,5,80,127,1274095116
17,13,19,Jits_Linear_5,0,1,48,22,1274592596
17,13,19,Jits_Linear_5,1,5,56,103,1274615272
17,13,19,Jits_Linear_5,2,5,80,127,1274618112
17,13,19,Jits_Linear_5,3,5,63,98,1274655072
17,13,19,Jits_Linear_5,0,1,48,22,1275166100
17,13,19,Jits_Linear_5,1,5,63,98,1275244888
17,13,19,Jits_Linear_5,2,5,56,103,1275274576
17,13,19,Jits_Linear_5,3,5,80,127,1275295300
17,13,19,Jits_Linear_5,0,1,48,31,1275740888
17,13,19,Jits_Linear_5,1,5,80,127,1275815276
17,13,19,Jits_Linear_5,2,5,56,103,1275824488
17,13,19,Jits_Linear_5,3,5,63,98,1275834948
17,13,19,Jits_Linear_5,0,1,48,25,1276330792
17,13,19,Jits_Linear_5,1,5,56,103,1276415300
17,13,19,Jits_Linear_5,2,5,80,127,1276455308
17,13,19,Jits_Linear_5,3,5,63,98,1276484936
17,13,19,Jits_Linear_5,0,1,48,21,1276962532
17,13,19,Jits_Linear_5,1,5,63,98,1277024656
17,13,19,Jits_Linear_5,2,5,80,127,1277034988
17,13,19,Jits_Linear_5,3,5,56,103,1277045016
17,13,19,Jits_Linear_5,0,1,48,20,1277537936
17,13,19,Jits_Linear_5,1,5,56,103,1277605208
17,13,19,Jits_Linear_5,2,5,63,98,1277675012
17,13,19,Jits_Linear_5,3,5,80,127,1277685116
17,13,19,Jits_Linear_5,0,1,48,22,1278132420
17,13,19,Jits_Linear_5,1,5,80,127,1278214444
17,13,19,Jits_Linear_5,2,5,56,103,1278225144
17,13,19,Jits_Linear_5,3,5,63,98,1278274948
17,13,19,Jits_Linear_5,0,1,48,23,1278762716
17,13,19,Jits_Linear_5,1,5,80,127,1278835012
17,13,19,Jits_Linear_5,2,5,56,103,1278894396
17,13,19,Jits_Linear_5,3,5,63,98,1278925140
17,13,19,Jits_Linear_5,0,1,48,22,1279420176
17,13,19,Jits_Linear_5,1,5,56,103,1279445264
17,13,19,Jits_Linear_5,2,5,80,127,1279448332
17,13,19,Jits_Linear_5,3,5,63,98,1279485164
17,13,19,Jits_Linear_5,0,1,48,24,1279995520
17,13,19,Jits_Linear_5,1,5,56,103,1280085228
17,13,19,Jits_Linear_5,2,5,63,98,1280114992
17,13,19,Jits_Linear_5,3,5,80,127,1280125172
17,13,19,Jits_Linear_5,0,1,48,27,1280611604
17,13,19,Jits_Linear_5,1,5,63,98,1280704972
17,13,19,Jits_Linear_5,2,5,80,127,1280715076
17,13,19,Jits_Linear_5,3,5,56,103,1280725552
17,13,19,Jits_Linear_5,0,1,48,24,1281197024
17,13,19,Jits_Linear_5,1,5,80,127,1281265000
17,13,19,Jits_Linear_5,2,5,56,103,1281315104
17,13,19,Jits_Linear_5,3,5,63,98,1281318240
17,13,19,Jits_Linear_5,0,1,48,26,1281835496
17,13,19,Jits_Linear_5,1,5,56,103,1281915328
17,13,19,Jits_Linear_5,2,5,80,127,1281934936
17,13,19,Jits_Linear_5,3,5,63,98,1281944876
17,13,19,Jits_Linear_5,0,1,48,20,1282459052
17,13,19,Jits_Linear_5,1,1,38,8,1282468908
17,13,19,Jits_Linear_5,2,5,63,98,1282515312
17,13,19,Jits_Linear_5,3,5,56,103,1282544964
17,13,19,Jits_Linear_5,4,5,80,127,1282564552
17,13,19,Jits_Linear_5,0,1,48,20,1283087552
17,13,19,Jits_Linear_5,1,5,56,103,1283145024
17,13,19,Jits_Linear_5,2,5,80,127,1283155204
17,13,19,Jits_Linear_5,3,5,63,98,1283224828
17,13,19,Jits_Linear_5,0,5,63,98,1283755280
17,13,19,Jits_Linear_5,1,5,80,127,1283795380
17,13,19,Jits_Linear_5,2,5,56,103,1283835204
17,13,19,Jits_Linear_5,0,5,56,103,1284395552
17,13,19,Jits_Linear_5,1,5,63,98,1284404612
17,13,19,Jits_Linear_5,2,5,80,127,1284425184
17,13,19,Jits_Linear_5,0,1,48,25,1284740516
17,13,19,Jits_Linear_5,1,5,63,98,1285065140
17,13,19,Jits_Linear_5,2,5,80,127,1285084744
17,13,19,Jits_Linear_5,3,5,56,103,1285105048
17,13,19,Jits_Linear_5,4,1,48,29,1285293200
17,13,19,Jits_Linear_5,0,5,56,103,1285634520
17,13,19,Jits_Linear_5,1,5,80,127,1285715452
17,13,19,Jits_Linear_5,2,5,63,98,1285724736
17,13,19,Jits_Linear_5,3,1,48,28,1285889124
17,13,19,Jits_Linear_5,0,5,80,127,1286305072
17,13,19,Jits_Linear_5,1,5,63,98,1286315624
17,13,19,Jits_Linear_5,2,5,56,103,1286344952
17,13,19,Jits_Linear_5,3,1,48,36,1286474192
17,13,19,Jits_Linear_5,0,5,63,98,1286895016
17,13,19,Jits_Linear_5,1,5,80,127,1286934968
17,13,19,Jits_Linear_5,2,5,56,103,1286995256
17,13,19,Jits_Linear_5,3,1,48,24,1287094480
17,13,19,Jits_Linear_5,0,5,63,98,1287534816
17,13,19,Jits_Linear_5,1,5,56,103,1287585084
17,13,19,Jits_Linear_5,2,5,80,127,1287614860
17,13,19,Jits_Linear_5,3,1,48,27,1287741020
17,13,19,Jits_Linear_5,0,5,80,127,1288185172
17,13,19,Jits_Linear_5,1,5,63,98,1288194532
17,13,19,Jits_Linear_5,2,5,56,103,1288264920
17,13,19,Jits_Linear_5,3,1,48,27,1288307668
17,13,19,Jits_Linear_5,0,1,48,25,1288843508
17,13,19,Jits_Linear_5,1,5,80,127,1288894840
17,13,19,Jits_Linear_5,2,5,56,103,1288905016
17,13,19,Jits_Linear_5,3,5,63,98,1288908228
17,13,19,Jits_Linear_5,0,1,48,27,1289437132
17,13,19,Jits_Linear_5,1,5,56,103,1289474584
17,13,19,Jits_Linear_5,2,5,80,127,1289494864
17,13,19,Jits_Linear_5,3,5,63,98,1289505116
17,13,19,Jits_Linear_5,0,1,48,33,1289999080
17,13,19,Jits_Linear_5,1,5,63,98,1290124612
17,13,19,Jits_Linear_5,2,5,56,103,1290164636
17,13,19,Jits_Linear_5,3,5,80,127,1290185284
17,13,19,Jits_Linear_5,0,1,48,30,1290616364
17,13,19,Jits_Linear_5,1,5,63,98,1290774828
17,13,19,Jits_Linear_5,2,5,56,103,1290835272
17,13,19,Jits_Linear_5,3,5,80,127,1290838408
17,13,19,Jits_Linear_5,0,1,48,27,1291292916
17,13,19,Jits_Linear_5,1,5,56,103,1291385388
17,13,19,Jits_Linear_5,2,5,80,127,1291404532
17,13,19,Jits_Linear_5,3,5,63,98,1291444552
17,13,19,Jits_Linear_5,0,1,48,28,1291917736
17,13,19,Jits_Linear_5,1,5,56,103,1292065352
17,13,19,Jits_Linear_5,2,5,63,98,1292084584
17,13,19,Jits_Linear_5,3,5,80,127,1292094764
17,13,19,Jits_Linear_5,0,1,48,29,1292603340
17,13,19,Jits_Linear_5,1,5,80,127,1292684596
17,13,19,Jits_Linear_5,2,5,56,103,1292715328
17,13,19,Jits_Linear_5,3,5,63,98,1292755424
17,13,19,Jits_Linear_5,0,1,48,32,1293238188
17,13,19,Jits_Linear_5,1,5,80,127,1293345268
17,13,19,Jits_Linear_5,2,5,56,103,1293364648
17,13,19,Jits_Linear_5,3,5,63,98,1293424940
17,13,19,Jits_Linear_5,0,1,48,33,1293884004
17,13,19,Jits_Linear_5,1,5,56,103,1294004588
17,13,19,Jits_Linear_5,2,5,80,127,1294025312
17,13,19,Jits_Linear_5,3,5,63,98,1294084360
17,13,19,Jits_Linear_5,0,5,80,127,1294644580
17,13,19,Jits_Linear_5,1,5,56,103,1294654756
17,13,19,Jits_Linear_5,2,5,63,98,1294694704
17,13,19,Jits_Linear_5,0,1,48,27,1295185384
17,13,19,Jits_Linear_5,1,5,63,98,1295305300
17,13,19,Jits_Linear_5,2,5,56,103,1295345268
17,13,19,Jits_Linear_5,3,5,80,127,1295348332
17,13,19,Jits_Linear_5,0,1,48,32,1295832036
17,13,19,Jits_Linear_5,1,5,63,98,1295985344
17,13,19,Jits_Linear_5,2,5,80,127,1296025220
17,13,19,Jits_Linear_5,3,5,56,103,1296054624
17,13,19,Jits_Linear_5,0,1,48,35,1296537308
17,13,19,Jits_Linear_5,1,5,56,103,1296635348
17,13,19,Jits_Linear_5,2,5,63,98,1296644396
17,13,19,Jits_Linear_5,3,5,80,127,1296675288
17,13,19,Jits_Linear_5,0,1,48,33,1297191256
17,13,19,Jits_Linear_5,1,5,80,127,1297294872
17,13,19,Jits_Linear_5,2,5,63,98,1297365340
17,13,19,Jits_Linear_5,3,5,56,103,1297374548
17,13,19,Jits_Linear_5,0,1,48,28,1297874200
17,13,19,Jits_Linear_5,1,5,63,98,1297965280
17,13,19,Jits_Linear_5,2,5,56,103,1298034980
17,13,19,Jits_Linear_5,3,5,80,127,1298045308
17,13,19,Jits_Linear_5,0,1,48,38,1298481392
17,13,19,Jits_Linear_5,1,5,63,98,1298634976
17,13,19,Jits_Linear_5,2,5,56,103,1298654508
17,13,19,Jits_Linear_5,3,5,80,127,1298694604
17,13,19,Jits_Linear_5,0,1,48,23,1299197336
17,13,19,Jits_Linear_5,1,5,56,103,1299315008
17,13,19,Jits_Linear_5,2,5,63,98,1299325264
17,13,19,Jits_Linear_5,3,5,80,127,1299405224
17,13,19,Jits_Linear_5,0,1,48,30,1299901372
17,13,19,Jits_Linear_5,1,5,63,98,1299974668
17,13,19,Jits_Linear_5,2,5,56,103,1300005176
17,13,19,Jits_Linear_5,3,5,80,127,1300045272
17,13,19,Jits_Linear_5,0,1,48,35,1300534028
17,13,19,Jits_Linear_5,1,5,56,103,1300645188
17,13,19,Jits_Linear_5,2,5,63,98,1300685208
17,13,19,Jits_Linear_5,3,5,80,127,1300725180
17,13,19,Jits_Linear_5,0,1,48,28,1301202004
17,13,19,Jits_Linear_5,1,5,80,127,1301325092
17,13,19,Jits_Linear_5,2,5,56,103,1301404908
17,13,19,Jits_Linear_5,3,5,63,98,1301415384
17,13,19,Jits_Linear_5,0,1,48,34,1301907348
17,13,19,Jits_Linear_5,1,5,56,103,1302045016
17,13,19,Jits_Linear_5,2,5,63,98,1302048152
17,13,19,Jits_Linear_5,3,5,80,127,1302055272
17,13,19,Jits_Linear_5,0,1,48,28,1302606400
17,13,19,Jits_Linear_5,1,5,56,103,1302744568
17,13,19,Jits_Linear_5,2,5,63,98,1302764868
17,13,19,Jits_Linear_5,3,5,80,127,1302775048
17,13,19,Jits_Linear_5,0,1,48,30,1303337996
17,13,19,Jits_Linear_5,1,5,63,98,1303384480
17,13,19,Jits_Linear_5,2,5,80,127,1303394660
17,13,19,Jits_Linear_5,3,5,56,103,1303415232
17,13,19,Jits_Linear_5,0,1,48,27,1303979064
17,13,19,Jits_Linear_5,1,5,63,98,1304074768
17,13,19,Jits_Linear_5,2,5,56,103,1304154728
17,13,19,Jits_Linear_5,3,5,80,127,1304157716
17,13,19,Jits_Linear_5,0,1,48,32,1304687840
17,13,19,Jits_Linear_5,1,5,63,98,1304764984
17,13,19,Jits_Linear_5,2,5,56,103,1304786144
17,13,19,Jits_Linear_5,3,5,80,127,1304814900
17,13,19,Jits_Linear_5,0,1,48,37,1305311716
17,13,19,Jits_Linear_5,1,5,56,103,1305454832
17,13,19,Jits_Linear_5,2,5,63,98,1305474508
17,13,19,Jits_Linear_5,3,5,80,127,1305484692
17,13,19,Jits_Linear_5,0,1,48,32,1305985184
17,13,19,Jits_Linear_5,1,5,56,103,1306174736
17,13,19,Jits_Linear_5,2,5,63,98,1306204660
17,13,19,Jits_Linear_5,3,5,80,127,1306207868
17,13,19,Jits_Linear_5,0,1,48,39,1306735372
17,13,19,Jits_Linear_5,1,5,56,103,1306814760
17,13,19,Jits_Linear_5,2,5,63,98,1306854720
17,13,19,Jits_Linear_5,3,5,80,127,1306915308
17,13,19,Jits_Linear_5,0,1,48,33,1307424636
17,13,19,Jits_Linear_5,1,5,56,103,1307524652
17,13,19,Jits_Linear_5,2,5,63,98,1307534832
17,13,19,Jits_Linear_5,3,5,80,127,1307594976
17,13,19,Jits_Linear_5,0,1,48,36,1308093976
17,13,19,Jits_Linear_5,1,5,56,103,1308224908
17,13,19,Jits_Linear_5,2,5,80,127,1308245480
17,13,19,Jits_Linear_5,3,5,63,98,1308275036
17,13,19,Jits_Linear_5,0,1,48,32,1308819128
17,13,19,Jits_Linear_5,1,5,80,127,1308925460
17,13,19,Jits_Linear_5,2,5,56,103,1308934520
17,13,19,Jits_Linear_5,3,5,63,98,1308954948
17,13,19,Jits_Linear_5,0,1,48,39,1309497472
17,13,19,Jits_Linear_5,1,5,63,98,1309614548
17,13,19,Jits_Linear_5,2,5,80,127,1309695432
17,13,19,Jits_Linear_5,3,5,56,103,1309704492
17,13,19,Jits_Linear_5,0,1,48,30,1310216504
17,13,19,Jits_Linear_5,1,5,80,127,1310375388
17,13,19,Jits_Linear_5,2,5,56,103,1310394696
17,13,19,Jits_Linear_5,3,5,63,98,1310397904
17,13,19,Jits_Linear_5,0,1,48,38,1310948916
17,13,19,Jits_Linear_5,1,5,63,98,1311055368
17,13,19,Jits_Linear_5,2,5,80,127,1311058504
17,13,19,Jits_Linear_5,3,5,56,103,1311114688
17,13,19,Jits_Linear_5,0,1,48,35,1311649284
17,13,19,Jits_Linear_5,1,5,56,103,1311745368
17,13,19,Jits_Linear_5,2,5,80,127,1311754648
17,13,19,Jits_Linear_5,3,5,63,98,1311794524
17,13,19,Jits_Linear_5,0,1,48,34,1312365100
17,13,19,Jits_Linear_5,1,5,56,103,1312434612
17,13,19,Jits_Linear_5,2,5,63,98,1312494844
17,13,19,Jits_Linear_5,3,5,80,127,1312505468
17,13,19,Jits_Linear_5,0,1,48,34,1313067740
17,13,19,Jits_Linear_5,1,5,63,98,1313154312
17,13,19,Jits_Linear_5,2,5,80,127,1313195368
17,13,19,Jits_Linear_5,3,5,56,103,1313235240
17,13,19,Jits_Linear_5,0,1,48,29,1313773308
17,13,19,Jits_Linear_5,1,5,56,103,1313865844
17,13,19,Jits_Linear_5,2,5,63,98,1313945132
17,13,19,Jits_Linear_5,3,5,80,127,1313948344
17,13,19,Jits_Linear_5,0,1,48,28,1314500368
17,13,19,Jits_Linear_5,1,5,80,127,1314635276
17,13,19,Jits_Linear_5,2,5,56,103,1314664980
17,13,19,Jits_Linear_5,3,5,63,98,1314667892
17,13,19,Jits_Linear_5,0,1,48,29,1315221260
17,13,19,Jits_Linear_5,1,5,56,103,1315315268
17,13,19,Jits_Linear_5,2,5,80,127,1315334488
17,13,19,Jits_Linear_5,3,5,63,98,1315374584
17,13,19,Jits_Linear_5,0,1,48,30,1315926760
17,13,19,Jits_Linear_5,1,5,80,127,1316014452
17,13,19,Jits_Linear_5,2,5,63,98,1316034864
17,13,19,Jits_Linear_5,3,5,56,103,1316095476
17,13,19,Jits_Linear_5,0,1,48,29,1316654392
17,13,19,Jits_Linear_5,1,5,63,98,1316744548
17,13,19,Jits_Linear_5,2,5,56,103,1316754716
17,13,19,Jits_Linear_5,3,5,80,127,1316805204
17,13,19,Jits_Linear_5,0,1,48,26,1317392104
17,13,19,Jits_Linear_5,1,5,56,103,1317455196
17,13,19,Jits_Linear_5,2,5,63,98,1317474800
17,13,19,Jits_Linear_5,3,5,80,127,1317485188
17,13,19,Jits_Linear_5,0,1,48,30,1318141052
17,13,19,Jits_Linear_5,1,5,56,103,1318175264
17,13,19,Jits_Linear_5,2,5,63,98,1318178328
17,13,19,Jits_Linear_5,3,5,80,127,1318194500
17,13,19,Jits_Linear_5,0,1,48,35,1318828852
17,13,19,Jits_Linear_5,1,5,63,98,1318945132
17,13,19,Jits_Linear_5,2,5,56,103,1318974908
17,13,19,Jits_Linear_5,3,5,80,127,1319004460
17,13,19,Jits_Linear_5,0,1,48,36,1319597104
17,13,19,Jits_Linear_5,1,5,80,127,1319635428
17,13,19,Jits_Linear_5,2,5,56,103,1319725348
17,13,19,Jits_Linear_5,3,5,63,98,1319728484
17,13,19,Jits_Linear_5,0,1,48,38,1320346268
17,13,19,Jits_Linear_5,1,5,56,103,1320365440
17,13,19,Jits_Linear_5,2,5,80,127,1320368356
17,13,19,Jits_Linear_5,3,5,63,98,1320445264
17,13,19,Jits_Linear_5,0,1,48,36,1321041484
17,13,19,Jits_Linear_5,1,5,80,127,1321094628
17,13,19,Jits_Linear_5,2,5,63,98,1321154908
17,13,19,Jits_Linear_5,3,5,56,103,1321184708
17,13,19,Jits_Linear_5,0,1,48,36,1321768668
17,13,19,Jits_Linear_5,1,5,63,98,1321824728
17,13,19,Jits_Linear_5,2,5,80,127,1321835056
17,13,19,Jits_Linear_5,3,5,56,103,1321904460
17,13,19,Jits_Linear_5,0,1,48,29,1322445116
17,13,19,Jits_Linear_5,1,5,56,103,1322575076
17,13,19,Jits_Linear_5,2,5,80,127,1322605000
17,13,19,Jits_Linear_5,3,5,63,98,1322655044
17,13,19,Jits_Linear_5,0,1,48,27,1323180136
17,13,19,Jits_Linear_5,1,5,63,98,1323354612
17,13,19,Jits_Linear_5,2,5,56,103,1323385136
17,13,19,Jits_Linear_5,3,5,80,127,1323388272
17,13,19,Jits_Linear_5,0,1,48,25,1323945612
17,13,19,Jits_Linear_5,1,5,63,98,1324094948
17,13,19,Jits_Linear_5,2,5,80,127,1324115224
17,13,19,Jits_Linear_5,3,5,56,103,1324124508
17,13,19,Jits_Linear_5,0,1,48,25,1324750276
17,13,19,Jits_Linear_5,1,5,56,103,1324845700
17,13,19,Jits_Linear_5,2,5,63,98,1324849792
17,13,19,Jits_Linear_5,3,5,80,127,1324864844
17,13,19,Jits_Linear_5,0,1,48,27,1325503868
17,13,19,Jits_Linear_5,1,5,56,103,1325544752
17,13,19,Jits_Linear_5,2,5,63,98,1325555008
17,13,19,Jits_Linear_5,3,5,80,127,1325584708
17,13,19,Jits_Linear_5,0,1,48,28,1326245772
17,13,19,Jits_Linear_5,1,5,63,98,1326314940
17,13,19,Jits_Linear_5,2,5,80,127,1326335292
17,13,19,Jits_Linear_5,3,5,56,103,1326375224
17,13,19,Jits_Linear_5,0,1,48,30,1326976472
17,13,19,Jits_Linear_5,1,5,56,103,1327095140
17,13,19,Jits_Linear_5,2,5,63,98,1327135160
17,13,19,Jits_Linear_5,3,5,80,127,1327138296
17,13,19,Jits_Linear_5,0,1,48,36,1327749936
17,13,19,Jits_Linear_5,1,5,80,127,1327785204
17,13,19,Jits_Linear_5,2,5,56,103,1327825376
17,13,19,Jits_Linear_5,3,5,63,98,1327874608
17,13,19,Jits_Linear_5,0,1,48,33,1328481308
17,13,19,Jits_Linear_5,1,5,56,103,1328595316
17,13,19,Jits_Linear_5,2,5,80,127,1328604700
17,13,19,Jits_Linear_5,3,5,63,98,1328635448
17,13,19,Jits_Linear_5,0,1,48,31,1329216420
17,13,19,Jits_Linear_5,1,5,56,103,1329294692
17,13,19,Jits_Linear_5,2,5,80,127,1329334700
17,13,19,Jits_Linear_5,3,5,63,98,1329384768
17,13,19,Jits_Linear_5,0,1,48,34,1329938064
17,13,19,Jits_Linear_5,1,5,56,103,1330054616
17,13,19,Jits_Linear_5,2,5,80,127,1330094564
17,13,19,Jits_Linear_5,3,5,63,98,1330144560
17,13,19,Jits_Linear_5,0,1,48,23,1330670624
17,13,19,Jits_Linear_5,1,5,80,127,1330805208
17,13,19,Jits_Linear_5,2,5,63,98,1330885024
17,13,19,Jits_Linear_5,3,5,56,103,1330895572
17,13,19,Jits_Linear_5,0,1,48,28,1331527212
17,13,19,Jits_Linear_5,1,5,80,127,1331615128
17,13,19,Jits_Linear_5,2,5,56,103,1331625444
17,13,19,Jits_Linear_5,3,5,63,98,1331644748
17,13,19,Jits_Linear_5,0,1,48,27,1332295912
17,13,19,Jits_Linear_5,1,5,63,98,1332345300
17,13,19,Jits_Linear_5,2,5,56,103,1332414700
17,13,19,Jits_Linear_5,3,5,80,127,1332417992
17,13,19,Jits_Linear_5,0,1,48,27,1333066536
17,13,19,Jits_Linear_5,1,5,80,127,1333105012
17,13,19,Jits_Linear_5,2,5,63,98,1333155280
17,13,19,Jits_Linear_5,3,5,56,103,1333195288
17,13,19,Jits_Linear_5,0,1,48,33,1333859084
17,13,19,Jits_Linear_5,1,5,63,98,1333914920
17,13,19,Jits_Linear_5,2,5,56,103,1333954940
17,13,19,Jits_Linear_5,3,5,80,127,1333965552
17,13,19,Jits_Linear_5,0,1,48,29,1334615744
17,13,19,Jits_Linear_5,1,5,63,98,1334674860
17,13,19,Jits_Linear_5,2,5,56,103,1334695364
17,13,19,Jits_Linear_5,3,5,80,127,1334714804
17,13,19,Jits_Linear_5,0,1,48,28,1335376212
17,13,19,Jits_Linear_5,1,5,80,127,1335405032
17,13,19,Jits_Linear_5,2,5,56,103,1335415360
17,13,19,Jits_Linear_5,3,5,63,98,1335434592
17,13,19,Jits_Linear_5,0,1,48,29,1336107268
17,13,19,Jits_Linear_5,1,5,63,98,1336204744
17,13,19,Jits_Linear_5,2,5,56,103,1336244696
17,13,19,Jits_Linear_5,3,5,80,127,1336275292
17,13,19,Jits_Linear_5,0,1,48,28,1336915684
17,13,19,Jits_Linear_5,1,5,56,103,1336984904
17,13,19,Jits_Linear_5,2,5,63,98,1337014604
17,13,19,Jits_Linear_5,3,5,80,127,1337045556
17,13,19,Jits_Linear_5,0,1,48,28,1337644660
17,13,19,Jits_Linear_5,1,5,80,127,1337734444
17,13,19,Jits_Linear_5,2,1,48,16,1337765148
17,13,19,Jits_Linear_5,3,5,56,103,1337805260
17,13,19,Jits_Linear_5,4,5,63,98,1337808472
17,13,19,Jits_Linear_5,0,1,48,29,1338520288
17,13,19,Jits_Linear_5,1,5,56,103,1338525112
17,13,19,Jits_Linear_5,2,5,63,98,1338575160
17,13,19,Jits_Linear_5,3,5,80,127,1338604888
17,13,19,Jits_Linear_5,0,5,63,98,1339285060
17,13,19,Jits_Linear_5,1,5,80,127,1339288344
17,13,19,Jits_Linear_5,2,1,48,26,1339304484
17,13,19,Jits_Linear_5,3,5,56,103,1339345268
17,13,19,Jits_Linear_5,0,1,48,25,1339991316
17,13,19,Jits_Linear_5,1,5,56,103,1340095004
17,13,19,Jits_Linear_5,2,5,80,127,1340105184
17,13,19,Jits_Linear_5,3,5,63,98,1340155256
17,13,19,Jits_Linear_5,0,1,48,24,1340785152
17,13,19,Jits_Linear_5,1,5,63,98,1340854812
17,13,19,Jits_Linear_5,2,5,56,103,1340865068
17,13,19,Jits_Linear_5,3,5,80,127,1340894556
17,13,19,Jits_Linear_5,0,1,48,21,1341511792
17,13,19,Jits_Linear_5,1,5,63,98,1341674972
17,13,19,Jits_Linear_5,2,5,80,127,1341678404
17,13,19,Jits_Linear_5,3,5,56,103,1341704524
17,13,19,Jits_Linear_5,0,1,48,23,1342336432
17,13,19,Jits_Linear_5,1,5,63,98,1342485068
17,13,19,Jits_Linear_5,2,5,56,103,1342505344
17,13,19,Jits_Linear_5,3,5,80,127,1342508404
17,13,19,Jits_Linear_5,0,1,48,21,1343142772
17,13,19,Jits_Linear_5,1,5,63,98,1343234392
17,13,19,Jits_Linear_5,2,5,56,103,1343304992
17,13,19,Jits_Linear_5,3,5,80,127,1343324668
17,13,19,Jits_Linear_5,0,1,48,22,1343938324
17,13,19,Jits_Linear_5,1,5,56,103,1344014824
17,13,19,Jits_Linear_5,2,5,63,98,1344025080
17,13,19,Jits_Linear_5,3,5,80,127,1344115048
17,13,19,Jits_Linear_5,0,1,48,21,1344699008
17,13,19,Jits_Linear_5,1,5,56,103,1344824640
17,13,19,Jits_Linear_5,2,5,80,127,1344864740
17,13,19,Jits_Linear_5,3,5,63,98,1344874772
17,13,19,Jits_Linear_5,0,1,48,25,1345526148
17,13,19,Jits_Linear_5,1,5,56,103,1345644864
17,13,19,Jits_Linear_5,2,5,63,98,1345674864
17,13,19,Jits_Linear_5,3,5,80,127,1345705460
17,13,19,Jits_Linear_5,0,1,48,26,1346352888
17,13,19,Jits_Linear_5,1,5,80,127,1346404672
17,13,19,Jits_Linear_5,2,5,63,98,1346444768
17,13,19,Jits_Linear_5,3,5,56,103,1346465176
17,13,19,Jits_Linear_5,0,1,48,31,1347181320
17,13,19,Jits_Linear_5,1,5,56,103,1347245384
17,13,19,Jits_Linear_5,2,5,80,127,1347264912
17,13,19,Jits_Linear_5,3,5,63,98,1347285324
17,13,19,Jits_Linear_5,0,5,63,98,1348014604
17,13,19,Jits_Linear_5,1,5,56,103,1348024636
17,13,19,Jits_Linear_5,2,1,48,33,1348025672
17,13,19,Jits_Linear_5,3,5,80,127,1348085168
17,13,19,Jits_Linear_5,0,1,48,31,1348817364
17,13,19,Jits_Linear_5,1,5,56,103,1348824648
17,13,19,Jits_Linear_5,2,5,63,98,1348895040
17,13,19,Jits_Linear_5,3,5,80,127,1348914552
17,13,19,Jits_Linear_5,0,5,56,103,1349634556
17,13,19,Jits_Linear_5,1,1,48,30,1349642468
17,13,19,Jits_Linear_5,2,5,63,98,1349665000
17,13,19,Jits_Linear_5,3,5,80,127,1349705096
17,13,19,Jits_Linear_5,0,1,48,28,1350403308
17,13,19,Jits_Linear_5,1,5,63,98,1350435340
17,13,19,Jits_Linear_5,2,5,56,103,1350485608
17,13,19,Jits_Linear_5,3,5,80,127,1350495848
17,13,19,Jits_Linear_5,0,1,48,30,1351222632
17,13,19,Jits_Linear_5,1,5,56,103,1351285180
17,13,19,Jits_Linear_5,2,5,63,98,1351335364
17,13,19,Jits_Linear_5,3,5,80,127,1351344648
17,13,19,Jits_Linear_5,0,1,48,37,1351993264
17,13,19,Jits_Linear_5,1,5,56,103,1352065544
17,13,19,Jits_Linear_5,2,5,63,98,1352074752
17,13,19,Jits_Linear_5,3,5,80,127,1352154796
17,13,19,Jits_Linear_5,0,9999,9999,9999,1243322440
17,13,19,Jits_Linear_5,1,9999,9999,9999,1243802692
17,13,19,Jits_Linear_5,2,9999,9999,9999,1244282968
17,13,19,Jits_Linear_5,3,9999,9999,9999,1244762188
17,13,19,Jits_Linear_5,4,9999,9999,9999,1245242432
17,13,19,Jits_Linear_5,5,9999,9999,9999,1245732956
17,13,19,Jits_Linear_5,6,9999,9999,9999,1246222416
17,13,19,Jits_Linear_5,7,9999,9999,9999,1246712936
17,13,19,Jits_Linear_5,8,9999,9999,9999,1247202420
17,13,19,Jits_Linear_5,9,9999,9999,9999,1247692864
17,13,19,Jits_Linear_5,10,9999,9999,9999,1248192584
17,13,19,Jits_Linear_5,11,9999,9999,9999,1248692292
17,13,19,Jits_Linear_5,12,9999,9999,9999,1249193036
17,13,19,Jits_Linear_5,13,9999,9999,9999,1249692736
17,13,19,Jits_Linear_5,14,9999,9999,9999,1250192440
17,13,19,Jits_Linear_5,15,9999,9999,9999,1250702408
17,13,19,Jits_Linear_5,16,9999,9999,9999,1251212360
17,13,19,Jits_Linear_5,17,9999,9999,9999,1251722312
17,13,19,Jits_Linear_5,18,9999,9999,9999,1252232264
17,13,19,Jits_Linear_5,19,9999,9999,9999,1252742220
17,13,19,Jits_Linear_5,20,9999,9999,9999,1253262420
17,13,19,Jits_Linear_5,21,9999,9999,9999,1253782624
17,13,19,Jits_Linear_5,22,9999,9999,9999,1254302816
17,13,19,Jits_Linear_5,23,9999,9999,9999,1254823016
17,13,19,Jits_Linear_5,24,9999,9999,9999,1255342168
17,13,19,Jits_Linear_5,25,9999,9999,9999,1255872608
17,13,19,Jits_Linear_5,26,9999,9999,9999,1256403060
17,13,19,Jits_Linear_5,27,9999,9999,9999,1256932456
17,13,19,Jits_Linear_5,28,9999,9999,9999,1257462908
17,13,19,Jits_Linear_5,29,9999,9999,9999,1257992308
17,13,19,Jits_Linear_5,30,9999,9999,9999,1258532924
17,13,19,Jits_Linear_5,31,9999,9999,9999,1259072572
17,13,19,Jits_Linear_5,32,9999,9999,9999,1259612216
17,13,19,Jits_Linear_5,33,9999,9999,9999,1260152908
17,13,19,Jits_Linear_5,34,9999,9999,9999,1260692552
17,13,19,Jits_Linear_5,35,9999,9999,9999,1261242448
17,13,19,Jits_Linear_5,36,9999,9999,9999,1261792328
17,13,19,Jits_Linear_5,37,9999,9999,9999,1262342248
17,13,19,Jits_Linear_5,38,9999,9999,9999,1262892144
17,13,19,Jits_Linear_5,39,9999,9999,9999,1263443008
17,13,19,Jits_Linear_5,40,9999,9999,9999,1264002108
17,13,19,Jits_Linear_5,41,9999,9999,9999,1264562256
17,13,19,Jits_Linear_5,42,9999,9999,9999,1265122428
17,13,19,Jits_Linear_5,43,9999,9999,9999,1265682540
17,13,19,Jits_Linear_5,44,9999,9999,9999,1266242624
17,13,19,Jits_Linear_5,45,9999,9999,9999,1266813008
17,13,19,Jits_Linear_5,46,9999,9999,9999,1267382348
17,13,19,Jits_Linear_5,47,9999,9999,9999,1267952768
17,13,19,Jits_Linear_5,48,9999,9999,9999,1268523080
17,13,19,Jits_Linear_5,49,9999,9999,9999,1269102672
17,13,19,Jits_Linear_5,50,9999,9999,9999,1269682248
17,13,19,Jits_Linear_5,51,9999,9999,9999,1270262904
17,13,19,Jits_Linear_5,52,9999,9999,9999,1270842492
17,13,19,Jits_Linear_5,53,9999,9999,9999,1271423048
17,13,19,Jits_Linear_5,54,9999,9999,9999,1272002640
17,13,19,Jits_Linear_5,55,9999,9999,9999,1272592500
17,13,19,Jits_Linear_5,56,9999,9999,9999,1273182332
17,13,19,Jits_Linear_5,57,9999,9999,9999,1273772156
17,13,19,Jits_Linear_5,58,9999,9999,9999,1274362988
17,13,19,Jits_Linear_5,59,9999,9999,9999,1274952784
17,13,19,Jits_Linear_5,60,9999,9999,9999,1275552868
17,13,19,Jits_Linear_5,61,9999,9999,9999,1276152892
17,13,19,Jits_Linear_5,62,9999,9999,9999,1276752972
17,13,19,Jits_Linear_5,63,9999,9999,9999,1277353048
17,13,19,Jits_Linear_5,64,9999,9999,9999,1277952108
17,13,19,Jits_Linear_5,65,9999,9999,9999,1278562432
17,13,19,Jits_Linear_5,66,9999,9999,9999,1279172684
17,13,19,Jits_Linear_5,67,9999,9999,9999,1279783028
17,13,19,Jits_Linear_5,68,9999,9999,9999,1280392312
17,13,19,Jits_Linear_5,69,9999,9999,9999,1281002592
17,13,19,Jits_Linear_5,70,9999,9999,9999,1281622104
17,13,19,Jits_Linear_5,71,9999,9999,9999,1282242676
17,13,19,Jits_Linear_5,72,9999,9999,9999,1282862192
17,13,19,Jits_Linear_5,73,9999,9999,9999,1283482696
17,13,19,Jits_Linear_5,74,9999,9999,9999,1284102264
17,13,19,Jits_Linear_5,75,9999,9999,9999,1284733008
17,13,19,Jits_Linear_5,76,9999,9999,9999,1285362756
17,13,19,Jits_Linear_5,77,9999,9999,9999,1285992528
17,13,19,Jits_Linear_5,78,9999,9999,9999,1286622316
17,13,19,Jits_Linear_5,79,9999,9999,9999,1287253096
17,13,19,Jits_Linear_5,80,9999,9999,9999,1287893120
17,13,19,Jits_Linear_5,81,9999,9999,9999,1288533080
17,13,19,Jits_Linear_5,82,9999,9999,9999,1289173112
17,13,19,Jits_Linear_5,83,9999,9999,9999,1289813076
17,13,19,Jits_Linear_5,84,9999,9999,9999,1290453096
17,13,19,Jits_Linear_5,85,9999,9999,9999,1291102336
17,13,19,Jits_Linear_5,86,9999,9999,9999,1291752548
17,13,19,Jits_Linear_5,87,9999,9999,9999,1292402812
17,13,19,Jits_Linear_5,88,9999,9999,9999,1293053028
17,13,19,Jits_Linear_5,89,9999,9999,9999,1293702248
17,13,19,Jits_Linear_5,90,9999,9999,9999,1294362712
17,13,19,Jits_Linear_5,91,9999,9999,9999,1295022196
17,13,19,Jits_Linear_5,92,9999,9999,9999,1295682636
17,13,19,Jits_Linear_5,93,9999,9999,9999,1296342108
17,13,19,Jits_Linear_5,94,9999,9999,9999,1297002560
17,13,19,Jits_Linear_5,95,9999,9999,9999,1297672276
17,13,19,Jits_Linear_5,96,9999,9999,9999,1298343036
17,13,19,Jits_Linear_5,97,9999,9999,9999,1299012672
17,13,19,Jits_Linear_5,98,9999,9999,9999,1299682412
17,13,19,Jits_Linear_5,99,9999,9999,9999,1300352124
17,13,19,Jits_Linear_5,100,9999,9999,9999,1301033080
17,13,19,Jits_Linear_5,101,9999,9999,9999,1301712964
17,13,19,Jits_Linear_5,102,9999,9999,9999,1302392936
17,13,19,Jits_Linear_5,103,9999,9999,9999,1303072852
17,13,19,Jits_Linear_5,104,9999,9999,9999,1303752808
17,13,19,Jits_Linear_5,105,9999,9999,9999,1304442960
17,13,19,Jits_Linear_5,106,9999,9999,9999,1305132148
17,13,19,Jits_Linear_5,107,9999,9999,9999,1305822308
17,13,19,Jits_Linear_5,108,9999,9999,9999,1306512484
17,13,19,Jits_Linear_5,109,9999,9999,9999,1307202640
17,13,19,Jits_Linear_5,110,9999,9999,9999,1307903044
17,13,19,Jits_Linear_5,111,9999,9999,9999,1308602452
17,13,19,Jits_Linear_5,112,9999,9999,9999,1309302860
17,13,19,Jits_Linear_5,113,9999,9999,9999,1310002292
17,13,19,Jits_Linear_5,114,9999,9999,9999,1310702692
17,13,19,Jits_Linear_5,115,9999,9999,9999,1311412344
17,13,19,Jits_Linear_5,116,9999,9999,9999,1312122984
17,13,19,Jits_Linear_5,117,9999,9999,9999,1312832588
17,13,19,Jits_Linear_5,118,9999,9999,9999,1313542268
17,13,19,Jits_Linear_5,119,9999,9999,9999,1314252884
17,13,19,Jits_Linear_5,120,9999,9999,9999,1314972728
17,13,19,Jits_Linear_5,121,9999,9999,9999,1315692652
17,13,19,Jits_Linear_5,122,9999,9999,9999,1316412504
17,13,19,Jits_Linear_5,123,9999,9999,9999,1317132352
17,13,19,Jits_Linear_5,124,9999,9999,9999,1317852252
17,13,19,Jits_Linear_5,125,9999,9999,9999,1318582332
17,13,19,Jits_Linear_5,126,9999,9999,9999,1319312508
17,13,19,Jits_Linear_5,127,9999,9999,9999,1320042596
17,13,19,Jits_Linear_5,128,9999,9999,9999,1320772680
17,13,19,Jits_Linear_5,129,9999,9999,9999,1321502776
17,13,19,Jits_Linear_5,130,9999,9999,9999,1322242148
17,13,19,Jits_Linear_5,131,9999,9999,9999,1322982488
17,13,19,Jits_Linear_5,132,9999,9999,9999,1323722872
17,13,19,Jits_Linear_5,133,9999,9999,9999,1324462176
17,13,19,Jits_Linear_5,134,9999,9999,9999,1325202508
17,13,19,Jits_Linear_5,135,9999,9999,9999,1325952124
17,13,19,Jits_Linear_5,136,9999,9999,9999,1326702720
17,13,19,Jits_Linear_5,137,9999,9999,9999,1327452260
17,13,19,Jits_Linear_5,138,9999,9999,9999,1328202848
17,13,19,Jits_Linear_5,139,9999,9999,9999,1328952396
17,13,19,Jits_Linear_5,140,9999,9999,9999,1329712188
17,13,19,Jits_Linear_5,141,9999,9999,9999,1330473024
17,13,19,Jits_Linear_5,142,9999,9999,9999,1331232892
17,13,19,Jits_Linear_5,143,9999,9999,9999,1331992684
17,13,19,Jits_Linear_5,144,9999,9999,9999,1332752468
17,13,19,Jits_Linear_5,145,9999,9999,9999,1333522508
17,13,19,Jits_Linear_5,146,9999,9999,9999,1334292552
17,13,19,Jits_Linear_5,147,9999,9999,9999,1335062588
17,13,19,Jits_Linear_5,148,9999,9999,9999,1335832696
17,13,19,Jits_Linear_5,149,9999,9999,9999,1336602736
17,13,19,Jits_Linear_5,150,9999,9999,9999,1337383024
17,13,19,Jits_Linear_5,151,9999,9999,9999,1338162232
17,13,19,Jits_Linear_5,152,9999,9999,9999,1338942536
17,13,19,Jits_Linear_5,153,9999,9999,9999,1339722808
17,13,19,Jits_Linear_5,154,9999,9999,9999,1340502120
17,13,19,Jits_Linear_5,155,9999,9999,9999,1341292652
17,13,19,Jits_Linear_5,156,9999,9999,9999,1342082128
17,13,19,Jits_Linear_5,157,9999,9999,9999,1342872700
17,13,19,Jits_Linear_5,158,9999,9999,9999,1343662184
17,13,19,Jits_Linear_5,159,9999,9999,9999,1344452712
17,13,19,Jits_Linear_5,160,9999,9999,9999,1345252472
17,13,19,Jits_Linear_5,161,9999,9999,9999,1346052204
17,13,19,Jits_Linear_5,162,9999,9999,9999,1346852976
17,13,19,Jits_Linear_5,163,9999,9999,9999,1347652708
17,13,19,Jits_Linear_5,164,9999,9999,9999,1348452436
17,13,19,Jits_Linear_5,165,9999,9999,9999,1349262464
17,13,19,Jits_Linear_5,166,9999,9999,9999,1350072436
17,13,19,Jits_Linear_5,167,9999,9999,9999,1350882380
17,13,19,Jits_Linear_5,168,9999,9999,9999,1351692360
17,13,19,Jits_Linear_5,169,9999,9999,9999,1352502336
17,14,18,Jits_Linear_8,0,5,56,103,1374211460
17,14,18,Jits_Linear_8,1,5,63,98,1374214404
17,14,18,Jits_Linear_8,2,5,80,127,1374217672
17,14,18,Jits_Linear_8,0,5,56,103,1375031508
17,14,18,Jits_Linear_8,1,5,63,98,1375034604
17,14,18,Jits_Linear_8,2,5,80,127,1375037724
17,14,18,Jits_Linear_8,0,5,80,127,1375791372
17,14,18,Jits_Linear_8,1,1,48,45,1375872572
17,14,18,Jits_Linear_8,2,5,63,98,1375881572
17,14,18,Jits_Linear_8,3,5,56,103,1375891828
17,14,18,Jits_Linear_8,0,5,56,103,1376632312
17,14,18,Jits_Linear_8,1,5,63,98,1376642344
17,14,18,Jits_Linear_8,2,1,48,50,1376708424
17,14,18,Jits_Linear_8,3,5,80,127,1376731520
17,14,18,Jits_Linear_8,0,1,48,47,1377384284
17,14,18,Jits_Linear_8,1,5,63,98,1377421712
17,14,18,Jits_Linear_8,2,5,80,127,1377452312
17,14,18,Jits_Linear_8,3,5,56,103,1377482084
17,14,18,Jits_Linear_8,0,1,48,50,1378194088
17,14,18,Jits_Linear_8,1,5,56,103,1378241764
17,14,18,Jits_Linear_8,2,5,80,127,1378342380
17,14,18,Jits_Linear_8,3,5,63,98,1378392572
17,14,18,Jits_Linear_8,0,5,56,103,1379051836
17,14,18,Jits_Linear_8,1,5,80,127,1379102176
17,14,18,Jits_Linear_8,2,1,48,47,1379118968
17,14,18,Jits_Linear_8,3,5,63,98,1379142116
17,14,18,Jits_Linear_8,0,1,48,42,1379829448
17,14,18,Jits_Linear_8,1,5,80,127,1379891496
17,14,18,Jits_Linear_8,2,5,63,98,1379922244
17,14,18,Jits_Linear_8,3,5,56,103,1379991940
17,14,18,Jits_Linear_8,0,1,48,49,1380647492
17,14,18,Jits_Linear_8,1,5,63,98,1380732200
17,14,18,Jits_Linear_8,2,5,56,103,1380762184
17,14,18,Jits_Linear_8,3,5,80,127,1380822476
17,14,18,Jits_Linear_8,0,5,56,103,1381482180
17,14,18,Jits_Linear_8,1,5,80,127,1381485236
17,14,18,Jits_Linear_8,2,1,48,48,1381492104
17,14,18,Jits_Linear_8,3,5,63,98,1381601632
17,14,18,Jits_Linear_8,0,1,48,45,1382265552
17,14,18,Jits_Linear_8,1,5,56,103,1382361500
17,14,18,Jits_Linear_8,2,5,80,127,1382402404
17,14,18,Jits_Linear_8,3,5,63,98,1382411612
17,14,18,Jits_Linear_8,0,1,48,38,1383097136
17,14,18,Jits_Linear_8,1,5,56,103,1383122228
17,14,18,Jits_Linear_8,2,5,80,127,1383141932
17,14,18,Jits_Linear_8,3,5,63,98,1383221652
17,14,18,Jits_Linear_8,0,1,48,46,1383890208
17,14,18,Jits_Linear_8,1,5,80,127,1383912020
17,14,18,Jits_Linear_8,2,5,56,103,1384012088
17,14,18,Jits_Linear_8,3,5,63,98,1384022344
17,14,18,Jits_Linear_8,0,5,63,98,1384681900
17,14,18,Jits_Linear_8,1,1,48,43,1384716724
17,14,18,Jits_Linear_8,2,5,80,127,1384742188
17,14,18,Jits_Linear_8,3,5,56,103,1384751320
17,14,18,Jits_Linear_8,0,1,48,44,1385432884
17,14,18,Jits_Linear_8,1,5,56,103,1385481828
17,14,18,Jits_Linear_8,2,5,63,98,1385552200
17,14,18,Jits_Linear_8,3,5,80,127,1385555632
17,14,18,Jits_Linear_8,0,1,48,39,1386238188
17,14,18,Jits_Linear_8,1,5,63,98,1386311976
17,14,18,Jits_Linear_8,2,5,56,103,1386362300
17,14,18,Jits_Linear_8,3,5,80,127,1386365288
17,14,18,Jits_Linear_8,0,5,56,103,1387061792
17,14,18,Jits_Linear_8,1,5,80,127,1387064780
17,14,18,Jits_Linear_8,2,1,48,47,1387110984
17,14,18,Jits_Linear_8,3,5,63,98,1387151916
17,14,18,Jits_Linear_8,0,1,48,40,1387888616
17,14,18,Jits_Linear_8,1,5,63,98,1387891948
17,14,18,Jits_Linear_8,2,5,56,103,1387982156
17,14,18,Jits_Linear_8,3,5,80,127,1388011868
17,14,18,Jits_Linear_8,0,1,48,40,1388666952
17,14,18,Jits_Linear_8,1,5,56,103,1388672296
17,14,18,Jits_Linear_8,2,5,63,98,1388771644
17,14,18,Jits_Linear_8,3,5,80,127,1388802612
17,14,18,Jits_Linear_8,0,1,48,38,1389403180
17,14,18,Jits_Linear_8,1,5,63,98,1389482488
17,14,18,Jits_Linear_8,2,5,56,103,1389491696
17,14,18,Jits_Linear_8,3,5,80,127,1389581912
17,14,18,Jits_Linear_8,0,1,48,42,1390163772
17,14,18,Jits_Linear_8,1,5,63,98,1390282192
17,14,18,Jits_Linear_8,2,5,56,103,1390362028
17,14,18,Jits_Linear_8,3,5,80,127,1390365164
17,14,18,Jits_Linear_8,0,1,48,38,1390990424
17,14,18,Jits_Linear_8,1,5,80,127,1391021560
17,14,18,Jits_Linear_8,2,5,63,98,1391041836
17,14,18,Jits_Linear_8,3,5,56,103,1391102432
17,14,18,Jits_Linear_8,0,1,48,40,1391751240
17,14,18,Jits_Linear_8,1,5,56,103,1391841720
17,14,18,Jits_Linear_8,2,5,63,98,1391862052
17,14,18,Jits_Linear_8,3,5,80,127,1391865412
17,14,18,Jits_Linear_8,4,1,48,17,1391868896
17,14,18,Jits_Linear_8,0,5,63,98,1392561520
17,14,18,Jits_Linear_8,1,1,48,44,1392574656
17,14,18,Jits_Linear_8,2,5,80,127,1392642692
17,14,18,Jits_Linear_8,3,5,56,103,1392651608
17,14,18,Jits_Linear_8,0,1,48,44,1393317660
17,14,18,Jits_Linear_8,1,5,63,98,1393362424
17,14,18,Jits_Linear_8,2,5,56,103,1393381680
17,14,18,Jits_Linear_8,3,5,80,127,1393431856
17,14,18,Jits_Linear_8,0,1,48,36,1394096284
17,14,18,Jits_Linear_8,1,5,80,127,1394141520
17,14,18,Jits_Linear_8,2,5,63,98,1394181468
17,14,18,Jits_Linear_8,3,5,56,103,1394201952
17,14,18,Jits_Linear_8,0,1,48,36,1394914504
17,14,18,Jits_Linear_8,1,5,56,103,1394951704
17,14,18,Jits_Linear_8,2,5,63,98,1394961884
17,14,18,Jits_Linear_8,3,5,80,127,1394982236
17,14,18,Jits_Linear_8,0,5,56,103,1395652000
17,14,18,Jits_Linear_8,1,1,48,32,1395684232
17,14,18,Jits_Linear_8,2,5,63,98,1395742152
17,14,18,Jits_Linear_8,3,5,80,127,1395801384
17,14,18,Jits_Linear_8,0,1,48,32,1396435240
17,14,18,Jits_Linear_8,1,5,80,127,1396451752
17,14,18,Jits_Linear_8,2,5,56,103,1396461932
17,14,18,Jits_Linear_8,3,5,63,98,1396531496
17,14,18,Jits_Linear_8,0,1,48,30,1397207228
17,14,18,Jits_Linear_8,1,5,63,98,1397251388
17,14,18,Jits_Linear_8,2,5,80,127,1397341436
17,14,18,Jits_Linear_8,3,5,56,103,1397351988
17,14,18,Jits_Linear_8,0,5,63,98,1397951840
17,14,18,Jits_Linear_8,1,1,48,29,1397992456
17,14,18,Jits_Linear_8,2,5,80,127,1398002200
17,14,18,Jits_Linear_8,3,5,56,103,1398061444
17,14,18,Jits_Linear_8,0,1,48,32,1398688980
17,14,18,Jits_Linear_8,1,5,56,103,1398742344
17,14,18,Jits_Linear_8,2,5,80,127,1398791556
17,14,18,Jits_Linear_8,3,5,63,98,1398812128
17,14,18,Jits_Linear_8,0,1,48,31,1399456212
17,14,18,Jits_Linear_8,1,5,56,103,1399471428
17,14,18,Jits_Linear_8,2,5,80,127,1399531820
17,14,18,Jits_Linear_8,3,5,63,98,1399601368
17,14,18,Jits_Linear_8,0,5,56,103,1400232252
17,14,18,Jits_Linear_8,1,1,48,25,1400255332
17,14,18,Jits_Linear_8,2,5,80,127,1400262096
17,14,18,Jits_Linear_8,3,5,63,98,1400291600
17,14,18,Jits_Linear_8,0,1,48,27,1400956688
17,14,18,Jits_Linear_8,1,5,56,103,1401032268
17,14,18,Jits_Linear_8,2,5,80,127,1401051452
17,14,18,Jits_Linear_8,3,5,63,98,1401112248
17,14,18,Jits_Linear_8,0,1,48,32,1401720144
17,14,18,Jits_Linear_8,1,5,80,127,1401871792
17,14,18,Jits_Linear_8,2,5,56,103,1401882048
17,14,18,Jits_Linear_8,3,5,63,98,1401892152
17,14,18,Jits_Linear_8,0,1,48,28,1402550236
17,14,18,Jits_Linear_8,1,5,56,103,1402582596
17,14,18,Jits_Linear_8,2,5,80,127,1402622248
17,14,18,Jits_Linear_8,3,5,63,98,1402652156
17,14,18,Jits_Linear_8,0,5,56,103,1403302200
17,14,18,Jits_Linear_8,1,5,63,98,1403332124
17,14,18,Jits_Linear_8,2,1,48,30,1403359036
17,14,18,Jits_Linear_8,3,5,80,127,1403372012
17,14,18,Jits_Linear_8,0,5,80,127,1404001852
17,14,18,Jits_Linear_8,1,5,63,98,1404051748
17,14,18,Jits_Linear_8,2,5,56,103,1404072248
17,14,18,Jits_Linear_8,3,1,48,27,1404116048
17,14,18,Jits_Linear_8,0,5,56,103,1404781984
17,14,18,Jits_Linear_8,1,1,48,24,1404802160
17,14,18,Jits_Linear_8,2,5,80,127,1404851472
17,14,18,Jits_Linear_8,3,5,63,98,1404912068
17,14,18,Jits_Linear_8,0,5,80,127,1405522256
17,14,18,Jits_Linear_8,1,1,48,29,1405572348
17,14,18,Jits_Linear_8,2,5,63,98,1405612388
17,14,18,Jits_Linear_8,3,5,56,103,1405631840
17,14,18,Jits_Linear_8,0,5,63,98,1406282128
17,14,18,Jits_Linear_8,1,5,56,103,1406301660
17,14,18,Jits_Linear_8,2,5,80,127,1406341380
17,14,18,Jits_Linear_8,3,1,48,27,1406369932
17,14,18,Jits_Linear_8,0,5,80,127,1406981468
17,14,18,Jits_Linear_8,1,5,63,98,1407001820
17,14,18,Jits_Linear_8,2,5,56,103,1407082004
17,14,18,Jits_Linear_8,3,1,48,32,1407090360
17,14,18,Jits_Linear_8,0,5,63,98,1407711784
17,14,18,Jits_Linear_8,1,5,56,103,1407822112
17,14,18,Jits_Linear_8,2,5,80,127,1407825176
17,14,18,Jits_Linear_8,3,1,48,24,1407826140
17,14,18,Jits_Linear_8,0,5,63,98,1408472376
17,14,18,Jits_Linear_8,1,5,56,103,1408481732
17,14,18,Jits_Linear_8,2,5,80,127,1408484644
17,14,18,Jits_Linear_8,3,1,48,24,1408518348
17,14,18,Jits_Linear_8,0,5,56,103,1409192316
17,14,18,Jits_Linear_8,1,1,48,22,1409219972
17,14,18,Jits_Linear_8,2,5,80,127,1409312092
17,14,18,Jits_Linear_8,3,5,63,98,1409352024
17,14,18,Jits_Linear_8,0,5,56,103,1409941940
17,14,18,Jits_Linear_8,1,1,48,24,1410006852
17,14,18,Jits_Linear_8,2,5,80,127,1410021696
17,14,18,Jits_Linear_8,3,5,63,98,1410042344
17,14,18,Jits_Linear_8,0,5,56,103,1410671964
17,14,18,Jits_Linear_8,1,1,48,16,1410755404
17,14,18,Jits_Linear_8,2,5,63,98,1410781636
17,14,18,Jits_Linear_8,3,5,80,127,1410784996
17,14,18,Jits_Linear_8,0,5,56,103,1411431752
17,14,18,Jits_Linear_8,1,5,80,127,1411461676
17,14,18,Jits_Linear_8,2,1,48,22,1411470632
17,14,18,Jits_Linear_8,3,5,63,98,1411481944
17,14,18,Jits_Linear_8,0,5,63,98,1412141652
17,14,18,Jits_Linear_8,1,5,56,103,1412151756
17,14,18,Jits_Linear_8,2,5,80,127,1412161936
17,14,18,Jits_Linear_8,3,1,48,20,1412208416
17,14,18,Jits_Linear_8,0,1,48,21,1412845588
17,14,18,Jits_Linear_8,1,5,80,127,1412851976
17,14,18,Jits_Linear_8,2,5,56,103,1412902540
17,14,18,Jits_Linear_8,3,5,63,98,1412942100
17,14,18,Jits_Linear_8,0,1,48,27,1413570268
17,14,18,Jits_Linear_8,1,5,80,127,1413592380
17,14,18,Jits_Linear_8,2,5,63,98,1413611836
17,14,18,Jits_Linear_8,3,5,56,103,1413662100
17,14,18,Jits_Linear_8,0,1,48,24,1414287096
17,14,18,Jits_Linear_8,1,5,80,127,1414321616
17,14,18,Jits_Linear_8,2,5,56,103,1414352360
17,14,18,Jits_Linear_8,3,5,63,98,1414421860
17,14,18,Jits_Linear_8,0,1,48,26,1415066328
17,14,18,Jits_Linear_8,1,5,56,103,1415091644
17,14,18,Jits_Linear_8,2,5,80,127,1415101748
17,14,18,Jits_Linear_8,3,5,63,98,1415141720
17,14,18,Jits_Linear_8,0,5,56,103,1415722556
17,14,18,Jits_Linear_8,1,5,63,98,1415741788
17,14,18,Jits_Linear_8,2,1,48,23,1415789244
17,14,18,Jits_Linear_8,3,5,80,127,1415811420
17,14,18,Jits_Linear_8,0,5,63,98,1416461776
17,14,18,Jits_Linear_8,1,1,48,24,1416493540
17,14,18,Jits_Linear_8,2,5,80,127,1416522136
17,14,18,Jits_Linear_8,3,5,56,103,1416541668
17,14,18,Jits_Linear_8,0,5,80,127,1417172236
17,14,18,Jits_Linear_8,1,5,56,103,1417202112
17,14,18,Jits_Linear_8,2,1,48,22,1417204476
17,14,18,Jits_Linear_8,3,5,63,98,1417231732
17,14,18,Jits_Linear_8,0,5,56,103,1417881916
17,14,18,Jits_Linear_8,1,1,48,24,1417938352
17,14,18,Jits_Linear_8,2,5,63,98,1417942596
17,14,18,Jits_Linear_8,3,5,80,127,1418001916
17,14,18,Jits_Linear_8,0,5,80,127,1418612012
17,14,18,Jits_Linear_8,1,5,56,103,1418631468
17,14,18,Jits_Linear_8,2,1,48,29,1418673920
17,14,18,Jits_Linear_8,3,5,63,98,1418702292
17,14,18,Jits_Linear_8,0,5,80,127,1419321616
17,14,18,Jits_Linear_8,1,5,63,98,1419342264
17,14,18,Jits_Linear_8,2,5,56,103,1419371892
17,14,18,Jits_Linear_8,3,1,48,28,1419389432
17,14,18,Jits_Linear_8,0,5,80,127,1420011992
17,14,18,Jits_Linear_8,1,1,48,32,1420030908
17,14,18,Jits_Linear_8,2,5,63,98,1420032636
17,14,18,Jits_Linear_8,3,5,56,103,1420091732
17,14,18,Jits_Linear_8,0,5,80,127,1420712296
17,14,18,Jits_Linear_8,1,1,48,30,1420737620
17,14,18,Jits_Linear_8,2,5,56,103,1420811652
17,14,18,Jits_Linear_8,3,5,63,98,1420842384
17,14,18,Jits_Linear_8,0,5,63,98,1421401564
17,14,18,Jits_Linear_8,1,5,80,127,1421451684
17,14,18,Jits_Linear_8,2,5,56,103,1421472184
17,14,18,Jits_Linear_8,3,1,48,25,1421509092
17,14,18,Jits_Linear_8,0,1,48,24,1422141744
17,14,18,Jits_Linear_8,1,5,80,127,1422143304
17,14,18,Jits_Linear_8,2,5,56,103,1422171512
17,14,18,Jits_Linear_8,3,5,63,98,1422174572
17,14,18,Jits_Linear_8,0,1,48,23,1422811952
17,14,18,Jits_Linear_8,1,5,63,98,1422871888
17,14,18,Jits_Linear_8,2,5,56,103,1422912120
17,14,18,Jits_Linear_8,3,5,80,127,1422932320
17,14,18,Jits_Linear_8,0,5,80,127,1423512056
17,14,18,Jits_Linear_8,1,1,48,26,1423553092
17,14,18,Jits_Linear_8,2,5,63,98,1423591816
17,14,18,Jits_Linear_8,3,5,56,103,1423631612
17,14,18,Jits_Linear_8,0,5,63,98,1424221444
17,14,18,Jits_Linear_8,1,1,48,27,1424259716
17,14,18,Jits_Linear_8,2,5,80,127,1424301476
17,14,18,Jits_Linear_8,3,5,56,103,1424321976
17,14,18,Jits_Linear_8,0,1,48,25,1424916856
17,14,18,Jits_Linear_8,1,5,56,103,1424951820
17,14,18,Jits_Linear_8,2,5,63,98,1424961848
17,14,18,Jits_Linear_8,3,5,80,127,1425002020
17,14,18,Jits_Linear_8,0,5,56,103,1425561832
17,14,18,Jits_Linear_8,1,5,80,127,1425564972
17,14,18,Jits_Linear_8,2,1,48,24,1425638336
17,14,18,Jits_Linear_8,3,5,63,98,1425702320
17,14,18,Jits_Linear_8,0,5,56,103,1426252208
17,14,18,Jits_Linear_8,1,5,63,98,1426342196
17,14,18,Jits_Linear_8,2,1,48,28,1426363784
17,14,18,Jits_Linear_8,3,5,80,127,1426412076
17,14,18,Jits_Linear_8,0,5,63,98,1427012004
17,14,18,Jits_Linear_8,1,5,80,127,1427015288
17,14,18,Jits_Linear_8,2,5,56,103,1427072368
17,14,18,Jits_Linear_8,3,1,48,27,1427092388
17,14,18,Jits_Linear_8,0,5,80,127,1427731988
17,14,18,Jits_Linear_8,1,1,48,24,1427752416
17,14,18,Jits_Linear_8,2,5,56,103,1427754052
17,14,18,Jits_Linear_8,3,5,63,98,1427761396
17,14,18,Jits_Linear_8,0,5,56,103,1428321828
17,14,18,Jits_Linear_8,1,5,63,98,1428331932
17,14,18,Jits_Linear_8,2,5,80,127,1428401644
17,14,18,Jits_Linear_8,3,1,48,26,1428406328
17,14,18,Jits_Linear_8,0,1,48,20,1428941168
17,14,18,Jits_Linear_8,1,5,80,127,1429001728
17,14,18,Jits_Linear_8,2,5,56,103,1429051688
17,14,18,Jits_Linear_8,3,5,63,98,1429102100
17,14,18,Jits_Linear_8,0,1,48,23,1429738356
17,14,18,Jits_Linear_8,1,5,56,103,1429762552
17,14,18,Jits_Linear_8,2,5,63,98,1429771688
17,14,18,Jits_Linear_8,3,5,80,127,1429811712
17,14,18,Jits_Linear_8,0,5,56,103,1430382008
17,14,18,Jits_Linear_8,1,5,63,98,1430421808
17,14,18,Jits_Linear_8,2,1,48,28,1430445036
17,14,18,Jits_Linear_8,3,5,80,127,1430472068
17,14,18,Jits_Linear_8,0,5,80,127,1431011660
17,14,18,Jits_Linear_8,1,5,56,103,1431062004
17,14,18,Jits_Linear_8,2,5,63,98,1431082208
17,14,18,Jits_Linear_8,3,1,48,26,1431090564
17,14,18,Jits_Linear_8,0,5,80,127,1431691696
17,14,18,Jits_Linear_8,1,5,63,98,1431751988
17,14,18,Jits_Linear_8,2,1,48,23,1431775168
17,14,18,Jits_Linear_8,3,5,56,103,1431832040
17,14,18,Jits_Linear_8,0,5,80,127,1432341840
17,14,18,Jits_Linear_8,1,5,56,103,1432381864
17,14,18,Jits_Linear_8,2,5,63,98,1432402140
17,14,18,Jits_Linear_8,3,1,48,24,1432437480
17,14,18,Jits_Linear_8,0,5,56,103,1433061688
17,14,18,Jits_Linear_8,1,1,48,21,1433069056
17,14,18,Jits_Linear_8,2,5,80,127,1433072084
17,14,18,Jits_Linear_8,3,5,63,98,1433111808
17,14,18,Jits_Linear_8,0,1,48,23,1433745800
17,14,18,Jits_Linear_8,1,5,56,103,1433791760
17,14,18,Jits_Linear_8,2,5,63,98,1433831808
17,14,18,Jits_Linear_8,3,5,80,127,1433834940
17,14,18,Jits_Linear_8,0,5,63,98,1434341740
17,14,18,Jits_Linear_8,1,5,80,127,1434381688
17,14,18,Jits_Linear_8,2,5,56,103,1434452520
17,14,18,Jits_Linear_8,3,1,48,19,1434491020
17,14,18,Jits_Linear_8,0,5,63,98,1434991916
17,14,18,Jits_Linear_8,1,5,56,103,1435071728
17,14,18,Jits_Linear_8,2,5,80,127,1435132416
17,14,18,Jits_Linear_8,3,1,48,24,1435200528
17,14,18,Jits_Linear_8,0,5,80,127,1435661716
17,14,18,Jits_Linear_8,1,5,63,98,1435711836
17,14,18,Jits_Linear_8,2,5,56,103,1435741608
17,14,18,Jits_Linear_8,3,1,48,15,1435891336
17,14,18,Jits_Linear_8,0,5,56,103,1436311828
17,14,18,Jits_Linear_8,1,5,63,98,1436362096
17,14,18,Jits_Linear_8,2,5,80,127,1436372448
17,14,18,Jits_Linear_8,3,1,48,15,1436519688
17,14,18,Jits_Linear_8,0,5,56,103,1436981488
17,14,18,Jits_Linear_8,1,5,63,98,1437092340
17,14,18,Jits_Linear_8,2,5,80,127,1437111572
17,14,18,Jits_Linear_8,3,1,48,22,1437123508
17,14,18,Jits_Linear_8,0,5,63,98,1437631980
17,14,18,Jits_Linear_8,1,5,80,127,1437682052
17,14,18,Jits_Linear_8,2,5,56,103,1437772256
17,14,18,Jits_Linear_8,3,1,48,22,1437797056
17,14,18,Jits_Linear_8,0,5,63,98,1438271868
17,14,18,Jits_Linear_8,1,5,80,127,1438301496
17,14,18,Jits_Linear_8,2,5,56,103,1438391772
17,14,18,Jits_Linear_8,3,1,48,20,1438483468
17,14,18,Jits_Linear_8,0,5,63,98,1438922040
17,14,18,Jits_Linear_8,1,5,56,103,1438932244
17,14,18,Jits_Linear_8,2,5,80,127,1439031724
17,14,18,Jits_Linear_8,3,1,48,21,1439121220
17,14,18,Jits_Linear_8,0,5,63,98,1439671648
17,14,18,Jits_Linear_8,1,5,80,127,1439702420
17,14,18,Jits_Linear_8,2,1,48,22,1439725728
17,14,18,Jits_Linear_8,3,5,56,103,1439732336
17,14,18,Jits_Linear_8,0,5,80,127,1440332336
17,14,18,Jits_Linear_8,1,5,63,98,1440342516
17,14,18,Jits_Linear_8,2,5,56,103,1440372292
17,14,18,Jits_Linear_8,3,1,48,21,1440393056
17,14,18,Jits_Linear_8,0,5,80,127,1440871688
17,14,18,Jits_Linear_8,1,5,63,98,1440892264
17,14,18,Jits_Linear_8,2,5,56,103,1440941560
17,14,18,Jits_Linear_8,3,1,48,27,1440999512
17,14,18,Jits_Linear_8,0,5,63,98,1441541424
17,14,18,Jits_Linear_8,1,5,80,127,1441601792
17,14,18,Jits_Linear_8,2,5,56,103,1441622512
17,14,18,Jits_Linear_8,3,1,48,22,1441628836
17,14,18,Jits_Linear_8,0,5,63,98,1442141492
17,14,18,Jits_Linear_8,1,5,56,103,1442191612
17,14,18,Jits_Linear_8,2,5,80,127,1442202164
17,14,18,Jits_Linear_8,3,1,48,26,1442224944
17,14,18,Jits_Linear_8,0,5,56,103,1442812184
17,14,18,Jits_Linear_8,1,5,80,127,1442821544
17,14,18,Jits_Linear_8,2,1,48,24,1442838480
17,14,18,Jits_Linear_8,3,5,63,98,1442921688
17,14,18,Jits_Linear_8,0,5,80,127,1443412192
17,14,18,Jits_Linear_8,1,5,63,98,1443421624
17,14,18,Jits_Linear_8,2,1,48,26,1443551392
17,14,18,Jits_Linear_8,3,5,56,103,1443572276
17,14,18,Jits_Linear_8,0,5,63,98,1444052232
17,14,18,Jits_Linear_8,1,5,80,127,1444092256
17,14,18,Jits_Linear_8,2,1,48,24,1444148764
17,14,18,Jits_Linear_8,3,5,56,103,1444172208
17,14,18,Jits_Linear_8,0,5,56,103,1444672040
17,14,18,Jits_Linear_8,1,5,80,127,1444772196
17,14,18,Jits_Linear_8,2,5,63,98,1444791580
17,14,18,Jits_Linear_8,3,1,48,24,1444808896
17,14,18,Jits_Linear_8,0,5,80,127,1445361976
17,14,18,Jits_Linear_8,1,5,56,103,1445372232
17,14,18,Jits_Linear_8,2,1,48,30,1445423292
17,14,18,Jits_Linear_8,3,5,63,98,1445462284
17,14,18,Jits_Linear_8,0,5,56,103,1445991908
17,14,18,Jits_Linear_8,1,5,63,98,1446012184
17,14,18,Jits_Linear_8,2,5,80,127,1446092144
17,14,18,Jits_Linear_8,3,1,48,31,1446110092
17,14,18,Jits_Linear_8,0,5,63,98,1446562220
17,14,18,Jits_Linear_8,1,5,56,103,1446652228
17,14,18,Jits_Linear_8,2,5,80,127,1446655364
17,14,18,Jits_Linear_8,3,1,48,24,1446731036
17,14,18,Jits_Linear_8,0,5,56,103,1447212412
17,14,18,Jits_Linear_8,1,5,80,127,1447271956
17,14,18,Jits_Linear_8,2,5,63,98,1447282064
17,14,18,Jits_Linear_8,3,1,48,25,1447371488
17,14,18,Jits_Linear_8,0,5,80,127,1447882060
17,14,18,Jits_Linear_8,1,5,56,103,1447892484
17,14,18,Jits_Linear_8,2,5,63,98,1447895472
17,14,18,Jits_Linear_8,3,1,48,18,1447898288
17,14,18,Jits_Linear_8,0,5,56,103,1448461816
17,14,18,Jits_Linear_8,1,5,80,127,1448471920
17,14,18,Jits_Linear_8,2,5,63,98,1448492420
17,14,18,Jits_Linear_8,3,1,48,22,1448499804
17,14,18,Jits_Linear_8,0,5,63,98,1449051496
17,14,18,Jits_Linear_8,1,1,48,23,1449098952
17,14,18,Jits_Linear_8,2,5,80,127,1449111856
17,14,18,Jits_Linear_8,3,5,56,103,1449162048
17,14,18,Jits_Linear_8,0,1,48,26,1449737628
17,14,18,Jits_Linear_8,1,5,63,98,1449751952
17,14,18,Jits_Linear_8,2,5,56,103,1449762132
17,14,18,Jits_Linear_8,3,5,80,127,1449812328
17,14,18,Jits_Linear_8,0,5,63,98,1450261828
17,14,18,Jits_Linear_8,1,5,80,127,1450282476
17,14,18,Jits_Linear_8,2,5,56,103,1450291536
17,14,18,Jits_Linear_8,3,1,48,22,1450392472
17,14,18,Jits_Linear_8,0,5,63,98,1450872128
17,14,18,Jits_Linear_8,1,5,80,127,1450875784
17,14,18,Jits_Linear_8,2,5,56,103,1450912152
17,14,18,Jits_Linear_8,3,1,48,17,1451033756
17,14,18,Jits_Linear_8,0,5,63,98,1451552016
17,14,18,Jits_Linear_8,1,5,80,127,1451581792
17,14,18,Jits_Linear_8,2,5,56,103,1451592048
17,14,18,Jits_Linear_8,3,1,48,16,1451613488
17,14,18,Jits_Linear_8,0,5,56,103,1452112140
17,14,18,Jits_Linear_8,1,5,80,127,1452141920
17,14,18,Jits_Linear_8,2,5,63,98,1452171620
17,14,18,Jits_Linear_8,3,1,48,18,1452228420
17,14,18,Jits_Linear_8,0,1,48,13,1452776756
17,14,18,Jits_Linear_8,1,5,63,98,1452811572
17,14,18,Jits_Linear_8,2,5,56,103,1452851668
17,14,18,Jits_Linear_8,3,5,80,127,1452854652
17,14,18,Jits_Linear_8,0,5,80,127,1453312464
17,14,18,Jits_Linear_8,1,5,56,103,1453392352
17,14,18,Jits_Linear_8,2,1,48,19,1453415584
17,14,18,Jits_Linear_8,3,5,63,98,1453442760
17,14,18,Jits_Linear_8,0,5,80,127,1453891976
17,14,18,Jits_Linear_8,1,5,56,103,1453912552
17,14,18,Jits_Linear_8,2,5,63,98,1454001788
17,14,18,Jits_Linear_8,0,5,80,127,1454531920
17,14,18,Jits_Linear_8,1,5,63,98,1454571820
17,14,18,Jits_Linear_8,2,1,48,21,1454579708
17,14,18,Jits_Linear_8,3,5,56,103,1454611908
17,14,18,Jits_Linear_8,0,5,63,98,1455102408
17,14,18,Jits_Linear_8,1,5,80,127,1455161656
17,14,18,Jits_Linear_8,2,5,56,103,1455192548
17,14,18,Jits_Linear_8,0,5,56,103,1455702548
17,14,18,Jits_Linear_8,1,1,48,26,1455725708
17,14,18,Jits_Linear_8,2,5,80,127,1455732092
17,14,18,Jits_Linear_8,3,5,63,98,1455822224
17,14,18,Jits_Linear_8,0,5,56,103,1456301560
17,14,18,Jits_Linear_8,1,1,48,28,1456335636
17,14,18,Jits_Linear_8,2,5,80,127,1456411984
17,14,18,Jits_Linear_8,3,5,63,98,1456441740
17,14,18,Jits_Linear_8,0,5,56,103,1456941540
17,14,18,Jits_Linear_8,1,1,48,36,1456968504
17,14,18,Jits_Linear_8,2,5,63,98,1457001900
17,14,18,Jits_Linear_8,3,5,80,127,1457031528
17,14,18,Jits_Linear_8,0,5,56,103,1457501468
17,14,18,Jits_Linear_8,1,5,63,98,1457572152
17,14,18,Jits_Linear_8,2,1,48,36,1457573116
17,14,18,Jits_Linear_8,3,5,80,127,1457591600
17,14,18,Jits_Linear_8,0,5,80,127,1458061612
17,14,18,Jits_Linear_8,1,5,63,98,1458082112
17,14,18,Jits_Linear_8,2,5,56,103,1458132624
17,14,18,Jits_Linear_8,3,1,48,36,1458166028
17,14,18,Jits_Linear_8,0,5,63,98,1458661712
17,14,18,Jits_Linear_8,1,5,80,127,1458672192
17,14,18,Jits_Linear_8,2,5,56,103,1458722236
17,14,18,Jits_Linear_8,3,1,48,33,1458803056
17,14,18,Jits_Linear_8,0,5,63,98,1459242328
17,14,18,Jits_Linear_8,1,5,80,127,1459311900
17,14,18,Jits_Linear_8,2,5,56,103,1459331576
17,14,18,Jits_Linear_8,3,1,48,29,1459459396
17,14,18,Jits_Linear_8,0,5,63,98,1459851520
17,14,18,Jits_Linear_8,1,5,80,127,1459854884
17,14,18,Jits_Linear_8,2,5,56,103,1459922380
17,14,18,Jits_Linear_8,3,1,48,27,1460049708
17,14,18,Jits_Linear_8,0,5,80,127,1460382244
17,14,18,Jits_Linear_8,1,5,56,103,1460401404
17,14,18,Jits_Linear_8,2,5,63,98,1460411880
17,14,18,Jits_Linear_8,3,1,48,24,1460623900
17,14,18,Jits_Linear_8,0,5,56,103,1460982420
17,14,18,Jits_Linear_8,1,5,63,98,1461072180
17,14,18,Jits_Linear_8,2,5,80,127,1461075688
17,14,18,Jits_Linear_8,3,1,48,23,1461239692
17,14,18,Jits_Linear_8,0,5,80,127,1461532084
17,14,18,Jits_Linear_8,1,5,56,103,1461542260
17,14,18,Jits_Linear_8,2,5,63,98,1461561716
17,14,18,Jits_Linear_8,0,1,48,22,1461960068
17,14,18,Jits_Linear_8,1,5,63,98,1462102512
17,14,18,Jits_Linear_8,2,5,80,127,1462161832
17,14,18,Jits_Linear_8,3,5,56,103,1462172088
17,14,18,Jits_Linear_8,0,1,48,20,1462683120
17,14,18,Jits_Linear_8,1,5,63,98,1462742336
17,14,18,Jits_Linear_8,2,5,80,127,1462772188
17,14,18,Jits_Linear_8,3,5,56,103,1462812192
17,14,18,Jits_Linear_8,0,5,56,103,1463301504
17,14,18,Jits_Linear_8,1,5,80,127,1463311608
17,14,18,Jits_Linear_8,2,1,48,27,1463344268
17,14,18,Jits_Linear_8,3,5,63,98,1463351700
17,14,18,Jits_Linear_8,0,5,80,127,1463832100
17,14,18,Jits_Linear_8,1,5,56,103,1463911992
17,14,18,Jits_Linear_8,2,5,63,98,1463922244
17,14,18,Jits_Linear_8,3,1,48,21,1463948088
17,14,18,Jits_Linear_8,0,5,80,127,1464442288
17,14,18,Jits_Linear_8,1,1,48,22,1464515480
17,14,18,Jits_Linear_8,2,5,56,103,1464522316
17,14,18,Jits_Linear_8,3,5,63,98,1464532300
17,14,18,Jits_Linear_8,0,5,80,127,1464962344
17,14,18,Jits_Linear_8,1,5,56,103,1465011568
17,14,18,Jits_Linear_8,2,5,63,98,1465061860
17,14,18,Jits_Linear_8,3,1,48,25,1465107972
17,14,18,Jits_Linear_8,0,5,56,103,1465582044
17,14,18,Jits_Linear_8,1,5,63,98,1465585028
17,14,18,Jits_Linear_8,2,5,80,127,1465632088
17,14,18,Jits_Linear_8,3,1,48,19,1465747604
17,14,18,Jits_Linear_8,0,5,56,103,1466161412
17,14,18,Jits_Linear_8,1,5,63,98,1466192232
17,14,18,Jits_Linear_8,2,5,80,127,1466201588
17,14,18,Jits_Linear_8,3,1,48,24,1466242252
17,14,18,Jits_Linear_8,0,5,63,98,1466631504
17,14,18,Jits_Linear_8,1,5,56,103,1466702116
17,14,18,Jits_Linear_8,2,5,80,127,1466752312
17,14,18,Jits_Linear_8,3,1,48,24,1466791180
17,14,18,Jits_Linear_8,0,5,63,98,1467222376
17,14,18,Jits_Linear_8,1,5,56,103,1467231504
17,14,18,Jits_Linear_8,2,5,80,127,1467234644
17,14,18,Jits_Linear_8,3,1,48,23,1467312480
17,14,18,Jits_Linear_8,0,5,80,127,1467721984
17,14,18,Jits_Linear_8,1,5,56,103,1467781452
17,14,18,Jits_Linear_8,2,5,63,98,1467871536
17,14,18,Jits_Linear_8,3,1,48,23,1467877712
17,14,18,Jits_Linear_8,0,5,80,127,1468282276
17,14,18,Jits_Linear_8,1,5,56,103,1468381636
17,14,18,Jits_Linear_8,2,5,63,98,1468421508
17,14,18,Jits_Linear_8,3,1,48,24,1468426712
17,14,18,Jits_Linear_8,0,5,56,103,1468882164
17,14,18,Jits_Linear_8,1,5,63,98,1468901992
17,14,18,Jits_Linear_8,2,5,80,127,1468941716
17,14,18,Jits_Linear_8,3,1,48,21,1468966808
17,14,18,Jits_Linear_8,0,5,63,98,1469411788
17,14,18,Jits_Linear_8,1,5,56,103,1469432216
17,14,18,Jits_Linear_8,2,5,80,127,1469531472
17,14,18,Jits_Linear_8,3,1,48,19,1469540428
17,14,18,Jits_Linear_8,0,5,63,98,1469942076
17,14,18,Jits_Linear_8,1,5,80,127,1470051808
17,14,18,Jits_Linear_8,2,1,48,19,1470078548
17,14,18,Jits_Linear_8,3,5,56,103,1470082320
17,14,18,Jits_Linear_8,0,5,56,103,1470502280
17,14,18,Jits_Linear_8,1,5,63,98,1470531832
17,14,18,Jits_Linear_8,2,5,80,127,1470582100
17,14,18,Jits_Linear_8,3,1,48,20,1470622236
17,14,18,Jits_Linear_8,0,5,63,98,1471012232
17,14,18,Jits_Linear_8,1,5,56,103,1471041936
17,14,18,Jits_Linear_8,2,5,80,127,1471092124
17,14,18,Jits_Linear_8,3,1,48,18,1471116924
17,14,18,Jits_Linear_8,0,5,56,103,1471591804
17,14,18,Jits_Linear_8,1,5,63,98,1471612232
17,14,18,Jits_Linear_8,2,1,48,19,1471627080
17,14,18,Jits_Linear_8,3,5,80,127,1471692108
17,14,18,Jits_Linear_8,0,5,63,98,1472101684
17,14,18,Jits_Linear_8,1,1,48,24,1472139584
17,14,18,Jits_Linear_8,2,5,56,103,1472162116
17,14,18,Jits_Linear_8,3,5,80,127,1472191820
17,14,18,Jits_Linear_8,0,1,48,19,1472637532
17,14,18,Jits_Linear_8,1,5,56,103,1472682224
17,14,18,Jits_Linear_8,2,5,80,127,1472741780
17,14,18,Jits_Linear_8,3,5,63,98,1472781652
17,14,18,Jits_Linear_8,0,5,63,98,1473192248
17,14,18,Jits_Linear_8,1,5,56,103,1473251816
17,14,18,Jits_Linear_8,2,1,48,25,1473266968
17,14,18,Jits_Linear_8,3,5,80,127,1473322568
17,14,18,Jits_Linear_8,0,5,56,103,1473801700
17,14,18,Jits_Linear_8,1,5,63,98,1473811952
17,14,18,Jits_Linear_8,2,5,80,127,1473815160
17,14,18,Jits_Linear_8,3,1,48,19,1473818124
17,14,18,Jits_Linear_8,0,5,63,98,1474271780
17,14,18,Jits_Linear_8,1,1,48,19,1474314464
17,14,18,Jits_Linear_8,2,5,56,103,1474331912
17,14,18,Jits_Linear_8,3,5,80,127,1474335124
17,14,18,Jits_Linear_8,0,5,63,98,1474781644
17,14,18,Jits_Linear_8,1,5,80,127,1474812388
17,14,18,Jits_Linear_8,2,5,56,103,1474831844
17,14,18,Jits_Linear_8,0,5,56,103,1475311996
17,14,18,Jits_Linear_8,1,5,63,98,1475362040
17,14,18,Jits_Linear_8,2,1,48,17,1475416828
17,14,18,Jits_Linear_8,3,5,80,127,1475441992
17,14,18,Jits_Linear_8,0,5,80,127,1475811780
17,14,18,Jits_Linear_8,1,5,63,98,1475851804
17,14,18,Jits_Linear_8,2,5,56,103,1475872080
17,14,18,Jits_Linear_8,3,1,48,21,1475974216
17,14,18,Jits_Linear_8,0,5,56,103,1476401692
17,14,18,Jits_Linear_8,1,5,80,127,1476411796
17,14,18,Jits_Linear_8,2,5,63,98,1476432220
17,14,18,Jits_Linear_8,3,1,48,18,1476530472
17,14,18,Jits_Linear_8,0,5,56,103,1476902444
17,14,18,Jits_Linear_8,1,5,63,98,1476952416
17,14,18,Jits_Linear_8,2,5,80,127,1476982044
17,14,18,Jits_Linear_8,3,1,48,19,1477015444
17,14,18,Jits_Linear_8,0,5,56,103,1477372388
17,14,18,Jits_Linear_8,1,5,63,98,1477381600
17,14,18,Jits_Linear_8,2,5,80,127,1477431792
17,14,18,Jits_Linear_8,3,1,48,16,1477511272
17,14,18,Jits_Linear_8,0,5,56,103,1477882488
17,14,18,Jits_Linear_8,1,5,80,127,1477885548
17,14,18,Jits_Linear_8,2,5,63,98,1478041880
17,14,18,Jits_Linear_8,0,5,63,98,1478411584
17,14,18,Jits_Linear_8,1,5,56,103,1478482572
17,14,18,Jits_Linear_8,2,5,80,127,1478522368
17,14,18,Jits_Linear_8,3,1,48,18,1478549256
17,14,18,Jits_Linear_8,0,5,63,98,1478961472
17,14,18,Jits_Linear_8,1,1,48,18,1479046928
17,14,18,Jits_Linear_8,2,5,56,103,1479051748
17,14,18,Jits_Linear_8,3,5,80,127,1479054880
17,14,18,Jits_Linear_8,0,5,56,103,1479451964
17,14,18,Jits_Linear_8,1,5,63,98,1479542100
17,14,18,Jits_Linear_8,2,5,80,127,1479552428
17,14,18,Jits_Linear_8,3,1,48,22,1479565784
17,14,18,Jits_Linear_8,0,5,56,103,1479932228
17,14,18,Jits_Linear_8,1,5,63,98,1479981452
17,14,18,Jits_Linear_8,2,5,80,127,1480012348
17,14,18,Jits_Linear_8,3,1,48,18,1480064376
17,14,18,Jits_Linear_8,0,5,63,98,1480511824
17,14,18,Jits_Linear_8,1,5,80,127,1480522300
17,14,18,Jits_Linear_8,2,1,48,17,1480562964
17,14,18,Jits_Linear_8,3,5,56,103,1480581464
17,14,18,Jits_Linear_8,0,5,63,98,1480931640
17,14,18,Jits_Linear_8,1,5,80,127,1480992304
17,14,18,Jits_Linear_8,2,5,56,103,1481032324
17,14,18,Jits_Linear_8,3,1,48,20,1481069612
17,14,18,Jits_Linear_8,0,5,56,103,1481531860
17,14,18,Jits_Linear_8,1,5,80,127,1481552436
17,14,18,Jits_Linear_8,2,5,63,98,1481571592
17,14,18,Jits_Linear_8,3,1,48,14,1481599156
17,14,18,Jits_Linear_8,0,5,63,98,1481951548
17,14,18,Jits_Linear_8,1,5,56,103,1481972344
17,14,18,Jits_Linear_8,2,5,80,127,1482012144
17,14,18,Jits_Linear_8,3,1,48,19,1482108288
17,14,18,Jits_Linear_8,0,5,63,98,1482461484
17,14,18,Jits_Linear_8,1,5,80,127,1482492456
17,14,18,Jits_Linear_8,2,5,56,103,1482511688
17,14,18,Jits_Linear_8,3,1,48,20,1482687852
17,14,18,Jits_Linear_8,0,5,80,127,1482931460
17,14,18,Jits_Linear_8,1,5,56,103,1482981752
17,14,18,Jits_Linear_8,2,5,63,98,1483042192
17,14,18,Jits_Linear_8,3,1,48,17,1483219500
17,14,18,Jits_Linear_8,0,5,63,98,1483411720
17,14,18,Jits_Linear_8,1,5,56,103,1483531572
17,14,18,Jits_Linear_8,2,5,80,127,1483562320
17,14,18,Jits_Linear_8,0,1,48,19,1483749132
17,14,18,Jits_Linear_8,1,5,80,127,1483942136
17,14,18,Jits_Linear_8,2,5,63,98,1483961892
17,14,18,Jits_Linear_8,3,5,56,103,1484032228
17,14,18,Jits_Linear_8,0,1,48,19,1484311152
17,14,18,Jits_Linear_8,1,5,63,98,1484452232
17,14,18,Jits_Linear_8,2,5,56,103,1484461440
17,14,18,Jits_Linear_8,3,5,80,127,1484542248
17,14,18,Jits_Linear_8,0,1,48,22,1484874724
17,14,18,Jits_Linear_8,1,5,56,103,1485002120
17,14,18,Jits_Linear_8,2,5,80,127,1485031772
17,14,18,Jits_Linear_8,3,5,63,98,1485042248
17,14,18,Jits_Linear_8,0,9999,9999,9999,1374619728
17,14,18,Jits_Linear_8,1,9999,9999,9999,1375439932
17,14,18,Jits_Linear_8,2,9999,9999,9999,1376259188
17,14,18,Jits_Linear_8,3,9999,9999,9999,1377079408
17,14,18,Jits_Linear_8,4,9999,9999,9999,1377899624
17,14,18,Jits_Linear_8,5,9999,9999,9999,1378709592
17,14,18,Jits_Linear_8,6,9999,9999,9999,1379519548
17,14,18,Jits_Linear_8,7,9999,9999,9999,1380329552
17,14,18,Jits_Linear_8,8,9999,9999,9999,1381139512
17,14,18,Jits_Linear_8,9,9999,9999,9999,1381949532
17,14,18,Jits_Linear_8,10,9999,9999,9999,1382749272
17,14,18,Jits_Linear_8,11,9999,9999,9999,1383550036
17,14,18,Jits_Linear_8,12,9999,9999,9999,1384349756
17,14,18,Jits_Linear_8,13,9999,9999,9999,1385149540
17,14,18,Jits_Linear_8,14,9999,9999,9999,1385949268
17,14,18,Jits_Linear_8,15,9999,9999,9999,1386739772
17,14,18,Jits_Linear_8,16,9999,9999,9999,1387529300
17,14,18,Jits_Linear_8,17,9999,9999,9999,1388319836
17,14,18,Jits_Linear_8,18,9999,9999,9999,1389109308
17,14,18,Jits_Linear_8,19,9999,9999,9999,1389899900
17,14,18,Jits_Linear_8,20,9999,9999,9999,1390679120
17,14,18,Jits_Linear_8,21,9999,9999,9999,1391459388
17,14,18,Jits_Linear_8,22,9999,9999,9999,1392239700
17,14,18,Jits_Linear_8,23,9999,9999,9999,1393019984
17,14,18,Jits_Linear_8,24,9999,9999,9999,1393799280
17,14,18,Jits_Linear_8,25,9999,9999,9999,1394569300
17,14,18,Jits_Linear_8,26,9999,9999,9999,1395339324
17,14,18,Jits_Linear_8,27,9999,9999,9999,1396109424
17,14,18,Jits_Linear_8,28,9999,9999,9999,1396879456
17,14,18,Jits_Linear_8,29,9999,9999,9999,1397649484
17,14,18,Jits_Linear_8,30,9999,9999,9999,1398409332
17,14,18,Jits_Linear_8,31,9999,9999,9999,1399169080
17,14,18,Jits_Linear_8,32,9999,9999,9999,1399929972
17,14,18,Jits_Linear_8,33,9999,9999,9999,1400689740
17,14,18,Jits_Linear_8,34,9999,9999,9999,1401449532
17,14,18,Jits_Linear_8,35,9999,9999,9999,1402199144
17,14,18,Jits_Linear_8,36,9999,9999,9999,1402949728
17,14,18,Jits_Linear_8,37,9999,9999,9999,1403699264
17,14,18,Jits_Linear_8,38,9999,9999,9999,1404449848
17,14,18,Jits_Linear_8,39,9999,9999,9999,1405199468
17,14,18,Jits_Linear_8,40,9999,9999,9999,1405939820
17,14,18,Jits_Linear_8,41,9999,9999,9999,1406679116
17,14,18,Jits_Linear_8,42,9999,9999,9999,1407419492
17,14,18,Jits_Linear_8,43,9999,9999,9999,1408159820
17,14,18,Jits_Linear_8,44,9999,9999,9999,1408899164
17,14,18,Jits_Linear_8,45,9999,9999,9999,1409629252
17,14,18,Jits_Linear_8,46,9999,9999,9999,1410359424
17,14,18,Jits_Linear_8,47,9999,9999,9999,1411089512
17,14,18,Jits_Linear_8,48,9999,9999,9999,1411819612
17,14,18,Jits_Linear_8,49,9999,9999,9999,1412549752
17,14,18,Jits_Linear_8,50,9999,9999,9999,1413269588
17,14,18,Jits_Linear_8,51,9999,9999,9999,1413989500
17,14,18,Jits_Linear_8,52,9999,9999,9999,1414709336
17,14,18,Jits_Linear_8,53,9999,9999,9999,1415429184
17,14,18,Jits_Linear_8,54,9999,9999,9999,1416150132
17,14,18,Jits_Linear_8,55,9999,9999,9999,1416869960
17,14,18,Jits_Linear_8,56,9999,9999,9999,1417579620
17,14,18,Jits_Linear_8,57,9999,9999,9999,1418289228
17,14,18,Jits_Linear_8,58,9999,9999,9999,1418999876
17,14,18,Jits_Linear_8,59,9999,9999,9999,1419709528
17,14,18,Jits_Linear_8,60,9999,9999,9999,1420409928
17,14,18,Jits_Linear_8,61,9999,9999,9999,1421109368
17,14,18,Jits_Linear_8,62,9999,9999,9999,1421809768
17,14,18,Jits_Linear_8,63,9999,9999,9999,1422509156
17,14,18,Jits_Linear_8,64,9999,9999,9999,1423209548
17,14,18,Jits_Linear_8,65,9999,9999,9999,1423899776
17,14,18,Jits_Linear_8,66,9999,9999,9999,1424589912
17,14,18,Jits_Linear_8,67,9999,9999,9999,1425280056
17,14,18,Jits_Linear_8,68,9999,9999,9999,1425979464
17,14,18,Jits_Linear_8,69,9999,9999,9999,1426669620
17,14,18,Jits_Linear_8,70,9999,9999,9999,1427349576
17,14,18,Jits_Linear_8,71,9999,9999,9999,1428029556
17,14,18,Jits_Linear_8,72,9999,9999,9999,1428709464
17,14,18,Jits_Linear_8,73,9999,9999,9999,1429389428
17,14,18,Jits_Linear_8,74,9999,9999,9999,1430069332
17,14,18,Jits_Linear_8,75,9999,9999,9999,1430740032
17,14,18,Jits_Linear_8,76,9999,9999,9999,1431409748
17,14,18,Jits_Linear_8,77,9999,9999,9999,1432079416
17,14,18,Jits_Linear_8,78,9999,9999,9999,1432749124
17,14,18,Jits_Linear_8,79,9999,9999,9999,1433419832
17,14,18,Jits_Linear_8,80,9999,9999,9999,1434079328
17,14,18,Jits_Linear_8,81,9999,9999,9999,1434739824
17,14,18,Jits_Linear_8,82,9999,9999,9999,1435399228
17,14,18,Jits_Linear_8,83,9999,9999,9999,1436059724
17,14,18,Jits_Linear_8,84,9999,9999,9999,1436719212
17,14,18,Jits_Linear_8,85,9999,9999,9999,1437369408
17,14,18,Jits_Linear_8,86,9999,9999,9999,1438019700
17,14,18,Jits_Linear_8,87,9999,9999,9999,1438669880
17,14,18,Jits_Linear_8,88,9999,9999,9999,1439319104
17,14,18,Jits_Linear_8,89,9999,9999,9999,1439969392
17,14,18,Jits_Linear_8,90,9999,9999,9999,1440609336
17,14,18,Jits_Linear_8,91,9999,9999,9999,1441249380
17,14,18,Jits_Linear_8,92,9999,9999,9999,1441889404
17,14,18,Jits_Linear_8,93,9999,9999,9999,1442529356
17,14,18,Jits_Linear_8,94,9999,9999,9999,1443169360
17,14,18,Jits_Linear_8,95,9999,9999,9999,1443799160
17,14,18,Jits_Linear_8,96,9999,9999,9999,1444429904
17,14,18,Jits_Linear_8,97,9999,9999,9999,1445059660
17,14,18,Jits_Linear_8,98,9999,9999,9999,1445689464
17,14,18,Jits_Linear_8,99,9999,9999,9999,1446319168
17,14,18,Jits_Linear_8,100,9999,9999,9999,1446939756
17,14,18,Jits_Linear_8,101,9999,9999,9999,1447559272
17,14,18,Jits_Linear_8,102,9999,9999,9999,1448179792
17,14,18,Jits_Linear_8,103,9999,9999,9999,1448799320
17,14,18,Jits_Linear_8,104,9999,9999,9999,1449419892
17,14,18,Jits_Linear_8,105,9999,9999,9999,1450029116
17,14,18,Jits_Linear_8,106,9999,9999,9999,1450639416
17,14,18,Jits_Linear_8,107,9999,9999,9999,1451249736
17,14,18,Jits_Linear_8,108,9999,9999,9999,1451860056
17,14,18,Jits_Linear_8,109,9999,9999,9999,1452469320
17,14,18,Jits_Linear_8,110,9999,9999,9999,1453069424
17,14,18,Jits_Linear_8,111,9999,9999,9999,1453669496
17,14,18,Jits_Linear_8,112,9999,9999,9999,1454269516
17,14,18,Jits_Linear_8,113,9999,9999,9999,1454869604
17,14,18,Jits_Linear_8,114,9999,9999,9999,1455469632
17,14,18,Jits_Linear_8,115,9999,9999,9999,1456059476
17,14,18,Jits_Linear_8,116,9999,9999,9999,1456649344
17,14,18,Jits_Linear_8,117,9999,9999,9999,1457239116
17,14,18,Jits_Linear_8,118,9999,9999,9999,1457830000
17,14,18,Jits_Linear_8,119,9999,9999,9999,1458419780
17,14,18,Jits_Linear_8,120,9999,9999,9999,1458999368
17,14,18,Jits_Linear_8,121,9999,9999,9999,1459579988
17,14,18,Jits_Linear_8,122,9999,9999,9999,1460159552
17,14,18,Jits_Linear_8,123,9999,9999,9999,1460739144
17,14,18,Jits_Linear_8,124,9999,9999,9999,1461319788
17,14,18,Jits_Linear_8,125,9999,9999,9999,1461889128
17,14,18,Jits_Linear_8,126,9999,9999,9999,1462459488
17,14,18,Jits_Linear_8,127,9999,9999,9999,1463029816
17,14,18,Jits_Linear_8,128,9999,9999,9999,1463599220
17,14,18,Jits_Linear_8,129,9999,9999,9999,1464169536
17,14,18,Jits_Linear_8,130,9999,9999,9999,1464729688
17,14,18,Jits_Linear_8,131,9999,9999,9999,1465289832
17,14,18,Jits_Linear_8,132,9999,9999,9999,1465849916
17,14,18,Jits_Linear_8,133,9999,9999,9999,1466410064
17,14,18,Jits_Linear_8,134,9999,9999,9999,1466969164
17,14,18,Jits_Linear_8,135,9999,9999,9999,1467520084
17,14,18,Jits_Linear_8,136,9999,9999,9999,1468079164
17,14,18,Jits_Linear_8,137,9999,9999,9999,1468630132
17,14,18,Jits_Linear_8,138,9999,9999,9999,1469189232
17,14,18,Jits_Linear_8,139,9999,9999,9999,1469739128
17,14,18,Jits_Linear_8,140,9999,9999,9999,1470279736
17,14,18,Jits_Linear_8,141,9999,9999,9999,1470819444
17,14,18,Jits_Linear_8,142,9999,9999,9999,1471360060
17,14,18,Jits_Linear_8,143,9999,9999,9999,1471910016
17,14,18,Jits_Linear_8,144,9999,9999,9999,1472449660
17,14,18,Jits_Linear_8,145,9999,9999,9999,1472980052
17,14,18,Jits_Linear_8,146,9999,9999,9999,1473509444
17,14,18,Jits_Linear_8,147,9999,9999,9999,1474039872
17,14,18,Jits_Linear_8,148,9999,9999,9999,1474569268
17,14,18,Jits_Linear_8,149,9999,9999,9999,1475099724
17,14,18,Jits_Linear_8,150,9999,9999,9999,1475619964
17,14,18,Jits_Linear_8,151,9999,9999,9999,1476139116
17,14,18,Jits_Linear_8,152,9999,9999,9999,1476659320
17,14,18,Jits_Linear_8,153,9999,9999,9999,1477179456
17,14,18,Jits_Linear_8,154,9999,9999,9999,1477699648
17,14,18,Jits_Linear_8,155,9999,9999,9999,1478209616
17,14,18,Jits_Linear_8,156,9999,9999,9999,1478719556
17,14,18,Jits_Linear_8,157,9999,9999,9999,1479229492
17,14,18,Jits_Linear_8,158,9999,9999,9999,1479739516
17,14,18,Jits_Linear_8,159,9999,9999,9999,1480249472
17,14,18,Jits_Linear_8,160,9999,9999,9999,1480749116
17,14,18,Jits_Linear_8,161,9999,9999,9999,1481249852
17,14,18,Jits_Linear_8,162,9999,9999,9999,1481749632
17,14,18,Jits_Linear_8,163,9999,9999,9999,1482249340
17,14,18,Jits_Linear_8,164,9999,9999,9999,1482750020
17,14,18,Jits_Linear_8,165,9999,9999,9999,1483239540
17,14,18,Jits_Linear_8,166,9999,9999,9999,1483729984
17,14,18,Jits_Linear_8,167,9999,9999,9999,1484219464
17,14,18,Jits_Linear_8,168,9999,9999,9999,1484709960
17,14,18,Jits_Linear_8,169,9999,9999,9999,1485199420
17,15,16,Jits_ISO_5,0,5,56,103,1512229264
17,15,16,Jits_ISO_5,1,5,63,98,1512232208
17,15,16,Jits_ISO_5,2,5,80,127,1512235328
17,15,16,Jits_ISO_5,0,5,56,103,1512728896
17,15,16,Jits_ISO_5,1,5,63,98,1512731912
17,15,16,Jits_ISO_5,2,5,80,127,1512734956
17,15,16,Jits_ISO_5,0,5,56,103,1513228688
17,15,16,Jits_ISO_5,1,5,80,127,1513239092
17,15,16,Jits_ISO_5,2,5,63,98,1513259368
17,15,16,Jits_ISO_5,3,1,48,28,1513353188
17,15,16,Jits_ISO_5,0,5,63,98,1513679164
17,15,16,Jits_ISO_5,1,5,80,127,1513708864
17,15,16,Jits_ISO_5,2,5,56,103,1513719192
17,15,16,Jits_ISO_5,3,1,48,38,1513788720
17,15,16,Jits_ISO_5,0,1,48,34,1514236752
17,15,16,Jits_ISO_5,1,5,80,127,1514239336
17,15,16,Jits_ISO_5,2,5,56,103,1514248692
17,15,16,Jits_ISO_5,3,5,63,98,1514279212
17,15,16,Jits_ISO_5,0,5,63,98,1514728852
17,15,16,Jits_ISO_5,1,1,48,28,1514741168
17,15,16,Jits_ISO_5,2,5,56,103,1514758696
17,15,16,Jits_ISO_5,3,5,80,127,1514768724
17,15,16,Jits_ISO_5,0,5,56,103,1515179660
17,15,16,Jits_ISO_5,1,5,63,98,1515228684
17,15,16,Jits_ISO_5,2,1,48,31,1515231648
17,15,16,Jits_ISO_5,3,5,80,127,1515248876
17,15,16,Jits_ISO_5,0,1,48,31,1515674452
17,15,16,Jits_ISO_5,1,5,80,127,1515679124
17,15,16,Jits_ISO_5,2,5,63,98,1515729264
17,15,16,Jits_ISO_5,3,5,56,103,1515769196
17,15,16,Jits_ISO_5,0,5,56,103,1516178724
17,15,16,Jits_ISO_5,1,1,48,26,1516185796
17,15,16,Jits_ISO_5,2,5,63,98,1516208640
17,15,16,Jits_ISO_5,3,5,80,127,1516279108
17,15,16,Jits_ISO_5,0,1,48,30,1516673288
17,15,16,Jits_ISO_5,1,5,56,103,1516678776
17,15,16,Jits_ISO_5,2,5,80,127,1516739064
17,15,16,Jits_ISO_5,3,5,63,98,1516768552
17,15,16,Jits_ISO_5,0,1,48,36,1517182388
17,15,16,Jits_ISO_5,1,5,56,103,1517188400
17,15,16,Jits_ISO_5,2,5,63,98,1517198804
17,15,16,Jits_ISO_5,3,5,80,127,1517238748
17,15,16,Jits_ISO_5,0,5,63,98,1517679176
17,15,16,Jits_ISO_5,1,1,48,41,1517681332
17,15,16,Jits_ISO_5,2,5,80,127,1517758756
17,15,16,Jits_ISO_5,3,5,56,103,1517769008
17,15,16,Jits_ISO_5,0,1,48,39,1518199916
17,15,16,Jits_ISO_5,1,5,63,98,1518228884
17,15,16,Jits_ISO_5,2,5,56,103,1518268828
17,15,16,Jits_ISO_5,3,5,80,127,1518271964
17,15,16,Jits_ISO_5,0,5,56,103,1518688472
17,15,16,Jits_ISO_5,1,5,63,98,1518698800
17,15,16,Jits_ISO_5,2,1,48,33,1518718520
17,15,16,Jits_ISO_5,3,5,80,127,1518738736
17,15,16,Jits_ISO_5,0,5,56,103,1519179252
17,15,16,Jits_ISO_5,1,1,48,39,1519180160
17,15,16,Jits_ISO_5,2,5,63,98,1519183652
17,15,16,Jits_ISO_5,3,5,80,127,1519198628
17,15,16,Jits_ISO_5,0,1,48,30,1519652196
17,15,16,Jits_ISO_5,1,5,80,127,1519688948
17,15,16,Jits_ISO_5,2,5,56,103,1519699496
17,15,16,Jits_ISO_5,3,5,63,98,1519768896
17,15,16,Jits_ISO_5,0,5,63,98,1520178532
17,15,16,Jits_ISO_5,1,1,48,29,1520194280
17,15,16,Jits_ISO_5,2,5,56,103,1520199472
17,15,16,Jits_ISO_5,3,5,80,127,1520278756
17,15,16,Jits_ISO_5,0,1,48,32,1520653488
17,15,16,Jits_ISO_5,1,5,56,103,1520688448
17,15,16,Jits_ISO_5,2,5,80,127,1520728540
17,15,16,Jits_ISO_5,3,5,63,98,1520738720
17,15,16,Jits_ISO_5,0,1,48,30,1521167532
17,15,16,Jits_ISO_5,1,5,80,127,1521178916
17,15,16,Jits_ISO_5,2,5,63,98,1521208616
17,15,16,Jits_ISO_5,3,5,56,103,1521248488
17,15,16,Jits_ISO_5,0,1,48,34,1521670636
17,15,16,Jits_ISO_5,1,5,56,103,1521699380
17,15,16,Jits_ISO_5,2,5,63,98,1521728856
17,15,16,Jits_ISO_5,3,5,80,127,1521779476
17,15,16,Jits_ISO_5,0,1,48,36,1522157000
17,15,16,Jits_ISO_5,1,5,80,127,1522198828
17,15,16,Jits_ISO_5,2,5,56,103,1522238700
17,15,16,Jits_ISO_5,3,5,63,98,1522250208
17,15,16,Jits_ISO_5,0,5,80,127,1522679360
17,15,16,Jits_ISO_5,1,1,48,30,1522709256
17,15,16,Jits_ISO_5,2,5,63,98,1522719300
17,15,16,Jits_ISO_5,3,5,56,103,1522778392
17,15,16,Jits_ISO_5,0,5,56,103,1523178824
17,15,16,Jits_ISO_5,1,5,80,127,1523189080
17,15,16,Jits_ISO_5,2,1,48,25,1523264356
17,15,16,Jits_ISO_5,3,5,63,98,1523269176
17,15,16,Jits_ISO_5,0,5,80,127,1523678516
17,15,16,Jits_ISO_5,1,1,48,30,1523724404
17,15,16,Jits_ISO_5,2,5,63,98,1523739240
17,15,16,Jits_ISO_5,3,5,56,103,1523768644
17,15,16,Jits_ISO_5,0,5,56,103,1524179180
17,15,16,Jits_ISO_5,1,1,48,35,1524198152
17,15,16,Jits_ISO_5,2,5,80,127,1524238712
17,15,16,Jits_ISO_5,3,5,63,98,1524278584
17,15,16,Jits_ISO_5,0,1,48,30,1524710248
17,15,16,Jits_ISO_5,1,5,56,103,1524729196
17,15,16,Jits_ISO_5,2,5,63,98,1524738476
17,15,16,Jits_ISO_5,3,5,80,127,1524741764
17,15,16,Jits_ISO_5,0,5,80,127,1525178660
17,15,16,Jits_ISO_5,1,1,48,32,1525189332
17,15,16,Jits_ISO_5,2,5,63,98,1525268808
17,15,16,Jits_ISO_5,3,5,56,103,1525279360
17,15,16,Jits_ISO_5,0,5,56,103,1525678484
17,15,16,Jits_ISO_5,1,5,63,98,1525681576
17,15,16,Jits_ISO_5,2,5,80,127,1525684620
17,15,16,Jits_ISO_5,3,1,48,27,1525705160
17,15,16,Jits_ISO_5,0,1,48,30,1526161296
17,15,16,Jits_ISO_5,1,5,80,127,1526198576
17,15,16,Jits_ISO_5,2,5,63,98,1526248716
17,15,16,Jits_ISO_5,3,5,56,103,1526278548
17,15,16,Jits_ISO_5,0,5,56,103,1526678884
17,15,16,Jits_ISO_5,1,1,48,30,1526679852
17,15,16,Jits_ISO_5,2,5,80,127,1526689280
17,15,16,Jits_ISO_5,3,5,63,98,1526758940
17,15,16,Jits_ISO_5,0,1,48,34,1527167696
17,15,16,Jits_ISO_5,1,5,56,103,1527189032
17,15,16,Jits_ISO_5,2,5,63,98,1527209236
17,15,16,Jits_ISO_5,3,5,80,127,1527268784
17,15,16,Jits_ISO_5,0,1,48,31,1527670728
17,15,16,Jits_ISO_5,1,5,80,127,1527679208
17,15,16,Jits_ISO_5,2,5,63,98,1527749144
17,15,16,Jits_ISO_5,3,5,56,103,1527768384
17,15,16,Jits_ISO_5,0,1,48,33,1528175480
17,15,16,Jits_ISO_5,1,5,80,127,1528198480
17,15,16,Jits_ISO_5,2,5,56,103,1528208736
17,15,16,Jits_ISO_5,3,5,63,98,1528219060
17,15,16,Jits_ISO_5,0,1,48,28,1528663048
17,15,16,Jits_ISO_5,1,5,80,127,1528689252
17,15,16,Jits_ISO_5,2,5,56,103,1528708332
17,15,16,Jits_ISO_5,3,5,63,98,1528779148
17,15,16,Jits_ISO_5,0,5,56,103,1529198856
17,15,16,Jits_ISO_5,1,1,48,30,1529208780
17,15,16,Jits_ISO_5,2,5,80,127,1529228552
17,15,16,Jits_ISO_5,3,5,63,98,1529249124
17,15,16,Jits_ISO_5,0,1,48,30,1529676508
17,15,16,Jits_ISO_5,1,5,63,98,1529688444
17,15,16,Jits_ISO_5,2,5,56,103,1529748952
17,15,16,Jits_ISO_5,3,5,80,127,1529778488
17,15,16,Jits_ISO_5,0,1,48,27,1530167380
17,15,16,Jits_ISO_5,1,5,63,98,1530178992
17,15,16,Jits_ISO_5,2,5,80,127,1530182128
17,15,16,Jits_ISO_5,3,5,56,103,1530269100
17,15,16,Jits_ISO_5,0,5,56,103,1530699080
17,15,16,Jits_ISO_5,1,1,48,27,1530709604
17,15,16,Jits_ISO_5,2,5,63,98,1530728924
17,15,16,Jits_ISO_5,3,5,80,127,1530768720
17,15,16,Jits_ISO_5,0,1,48,32,1531196656
17,15,16,Jits_ISO_5,1,5,63,98,1531199136
17,15,16,Jits_ISO_5,2,5,56,103,1531239156
17,15,16,Jits_ISO_5,3,5,80,127,1531259136
17,15,16,Jits_ISO_5,0,5,63,98,1531708920
17,15,16,Jits_ISO_5,1,1,48,28,1531709884
17,15,16,Jits_ISO_5,2,5,56,103,1531748784
17,15,16,Jits_ISO_5,3,5,80,127,1531758964
17,15,16,Jits_ISO_5,0,5,80,127,1532188928
17,15,16,Jits_ISO_5,1,1,48,27,1532226284
17,15,16,Jits_ISO_5,2,5,63,98,1532258784
17,15,16,Jits_ISO_5,3,5,56,103,1532279056
17,15,16,Jits_ISO_5,0,5,56,103,1532678596
17,15,16,Jits_ISO_5,1,5,80,127,1532698944
17,15,16,Jits_ISO_5,2,1,48,30,1532711408
17,15,16,Jits_ISO_5,3,5,63,98,1532738884
17,15,16,Jits_ISO_5,0,5,63,98,1533188752
17,15,16,Jits_ISO_5,1,1,48,29,1533195224
17,15,16,Jits_ISO_5,2,5,80,127,1533208872
17,15,16,Jits_ISO_5,3,5,56,103,1533248968
17,15,16,Jits_ISO_5,0,1,48,24,1533680768
17,15,16,Jits_ISO_5,1,5,63,98,1533689168
17,15,16,Jits_ISO_5,2,5,56,103,1533708844
17,15,16,Jits_ISO_5,3,5,80,127,1533718948
17,15,16,Jits_ISO_5,0,1,48,22,1534145468
17,15,16,Jits_ISO_5,1,5,80,127,1534188840
17,15,16,Jits_ISO_5,2,5,56,103,1534209340
17,15,16,Jits_ISO_5,3,5,63,98,1534238960
17,15,16,Jits_ISO_5,0,1,48,25,1534673444
17,15,16,Jits_ISO_5,1,5,56,103,1534759336
17,15,16,Jits_ISO_5,2,5,80,127,1534762324
17,15,16,Jits_ISO_5,3,5,63,98,1534778776
17,15,16,Jits_ISO_5,0,5,63,98,1535179508
17,15,16,Jits_ISO_5,1,5,56,103,1535208764
17,15,16,Jits_ISO_5,2,1,48,25,1535215688
17,15,16,Jits_ISO_5,3,5,80,127,1535269340
17,15,16,Jits_ISO_5,0,1,48,24,1535671728
17,15,16,Jits_ISO_5,1,5,63,98,1535758688
17,15,16,Jits_ISO_5,2,5,56,103,1535769752
17,15,16,Jits_ISO_5,3,5,80,127,1535779032
17,15,16,Jits_ISO_5,0,1,48,24,1536188916
17,15,16,Jits_ISO_5,1,5,56,103,1536209452
17,15,16,Jits_ISO_5,2,5,80,127,1536238856
17,15,16,Jits_ISO_5,3,5,63,98,1536249332
17,15,16,Jits_ISO_5,0,1,48,28,1536684536
17,15,16,Jits_ISO_5,1,5,63,98,1536748844
17,15,16,Jits_ISO_5,2,5,56,103,1536759024
17,15,16,Jits_ISO_5,3,5,80,127,1536778700
17,15,16,Jits_ISO_5,0,5,56,103,1537178872
17,15,16,Jits_ISO_5,1,1,48,27,1537204344
17,15,16,Jits_ISO_5,2,5,63,98,1537239548
17,15,16,Jits_ISO_5,3,5,80,127,1537242904
17,15,16,Jits_ISO_5,0,1,48,25,1537694132
17,15,16,Jits_ISO_5,1,5,80,127,1537699176
17,15,16,Jits_ISO_5,2,5,56,103,1537709724
17,15,16,Jits_ISO_5,3,5,63,98,1537779160
17,15,16,Jits_ISO_5,0,5,80,127,1538188684
17,15,16,Jits_ISO_5,1,1,48,22,1538223504
17,15,16,Jits_ISO_5,2,5,56,103,1538259532
17,15,16,Jits_ISO_5,3,5,63,98,1538268520
17,15,16,Jits_ISO_5,0,1,48,31,1538729212
17,15,16,Jits_ISO_5,1,5,63,98,1538730844
17,15,16,Jits_ISO_5,2,5,56,103,1538738416
17,15,16,Jits_ISO_5,3,5,80,127,1538758988
17,15,16,Jits_ISO_5,0,5,80,127,1539178848
17,15,16,Jits_ISO_5,1,1,48,24,1539210464
17,15,16,Jits_ISO_5,2,5,63,98,1539239356
17,15,16,Jits_ISO_5,3,5,56,103,1539279472
17,15,16,Jits_ISO_5,0,1,48,20,1539718924
17,15,16,Jits_ISO_5,1,5,56,103,1539720416
17,15,16,Jits_ISO_5,2,5,63,98,1539728728
17,15,16,Jits_ISO_5,3,5,80,127,1539768820
17,15,16,Jits_ISO_5,0,5,56,103,1540179484
17,15,16,Jits_ISO_5,1,5,80,127,1540208960
17,15,16,Jits_ISO_5,2,1,48,24,1540214240
17,15,16,Jits_ISO_5,3,5,63,98,1540259144
17,15,16,Jits_ISO_5,0,1,48,23,1540717520
17,15,16,Jits_ISO_5,1,5,56,103,1540719400
17,15,16,Jits_ISO_5,2,5,63,98,1540758824
17,15,16,Jits_ISO_5,3,5,80,127,1540762404
17,15,16,Jits_ISO_5,0,1,48,26,1541211416
17,15,16,Jits_ISO_5,1,5,56,103,1541218624
17,15,16,Jits_ISO_5,2,5,63,98,1541228876
17,15,16,Jits_ISO_5,3,5,80,127,1541249452
17,15,16,Jits_ISO_5,0,5,56,103,1541678512
17,15,16,Jits_ISO_5,1,5,80,127,1541681572
17,15,16,Jits_ISO_5,2,1,48,35,1541703760
17,15,16,Jits_ISO_5,3,5,63,98,1541719568
17,15,16,Jits_ISO_5,0,1,48,23,1542152644
17,15,16,Jits_ISO_5,1,5,63,98,1542219240
17,15,16,Jits_ISO_5,2,5,56,103,1542248792
17,15,16,Jits_ISO_5,3,5,80,127,1542269424
17,15,16,Jits_ISO_5,0,5,80,127,1542689380
17,15,16,Jits_ISO_5,1,1,48,35,1542696976
17,15,16,Jits_ISO_5,2,5,56,103,1542699480
17,15,16,Jits_ISO_5,3,5,63,98,1542708464
17,15,16,Jits_ISO_5,0,1,48,39,1543167792
17,15,16,Jits_ISO_5,1,5,56,103,1543188908
17,15,16,Jits_ISO_5,2,5,80,127,1543228632
17,15,16,Jits_ISO_5,3,5,63,98,1543258480
17,15,16,Jits_ISO_5,0,5,63,98,1543698764
17,15,16,Jits_ISO_5,1,5,80,127,1543709240
17,15,16,Jits_ISO_5,2,1,48,36,1543719048
17,15,16,Jits_ISO_5,3,5,56,103,1543720684
17,15,16,Jits_ISO_5,0,5,56,103,1544179140
17,15,16,Jits_ISO_5,1,1,48,35,1544195932
17,15,16,Jits_ISO_5,2,5,63,98,1544248548
17,15,16,Jits_ISO_5,3,5,80,127,1544258876
17,15,16,Jits_ISO_5,0,5,80,127,1544678752
17,15,16,Jits_ISO_5,1,5,56,103,1544689156
17,15,16,Jits_ISO_5,2,1,48,21,1544713952
17,15,16,Jits_ISO_5,3,5,63,98,1544739192
17,15,16,Jits_ISO_5,0,5,80,127,1545188612
17,15,16,Jits_ISO_5,1,1,48,33,1545212072
17,15,16,Jits_ISO_5,2,5,56,103,1545249488
17,15,16,Jits_ISO_5,3,5,63,98,1545278892
17,15,16,Jits_ISO_5,0,5,56,103,1545688524
17,15,16,Jits_ISO_5,1,5,80,127,1545691512
17,15,16,Jits_ISO_5,2,1,48,35,1545723344
17,15,16,Jits_ISO_5,3,5,63,98,1545729284
17,15,16,Jits_ISO_5,0,5,56,103,1546219312
17,15,16,Jits_ISO_5,1,1,48,26,1546232904
17,15,16,Jits_ISO_5,2,5,63,98,1546248636
17,15,16,Jits_ISO_5,3,5,80,127,1546258740
17,15,16,Jits_ISO_5,0,5,63,98,1546728956
17,15,16,Jits_ISO_5,1,5,80,127,1546739136
17,15,16,Jits_ISO_5,2,1,48,22,1546749164
17,15,16,Jits_ISO_5,3,5,56,103,1546750800
17,15,16,Jits_ISO_5,0,5,80,127,1547179392
17,15,16,Jits_ISO_5,1,1,48,24,1547220972
17,15,16,Jits_ISO_5,2,5,56,103,1547228480
17,15,16,Jits_ISO_5,3,5,63,98,1547231616
17,15,16,Jits_ISO_5,0,5,56,103,1547708988
17,15,16,Jits_ISO_5,1,5,80,127,1547729212
17,15,16,Jits_ISO_5,2,1,48,27,1547735908
17,15,16,Jits_ISO_5,3,5,63,98,1547738416
17,15,16,Jits_ISO_5,0,5,63,98,1548189080
17,15,16,Jits_ISO_5,1,5,56,103,1548218632
17,15,16,Jits_ISO_5,2,1,48,23,1548219596
17,15,16,Jits_ISO_5,3,5,80,127,1548239148
17,15,16,Jits_ISO_5,0,1,48,23,1548693348
17,15,16,Jits_ISO_5,1,5,56,103,1548699212
17,15,16,Jits_ISO_5,2,5,80,127,1548709172
17,15,16,Jits_ISO_5,3,5,63,98,1548778904
17,15,16,Jits_ISO_5,0,5,63,98,1549188352
17,15,16,Jits_ISO_5,1,5,80,127,1549229568
17,15,16,Jits_ISO_5,2,1,48,29,1549239644
17,15,16,Jits_ISO_5,3,5,56,103,1549269380
17,15,16,Jits_ISO_5,0,1,48,28,1549698348
17,15,16,Jits_ISO_5,1,5,56,103,1549699984
17,15,16,Jits_ISO_5,2,5,63,98,1549708596
17,15,16,Jits_ISO_5,3,5,80,127,1549729092
17,15,16,Jits_ISO_5,0,1,48,29,1550173896
17,15,16,Jits_ISO_5,1,5,63,98,1550239072
17,15,16,Jits_ISO_5,2,5,80,127,1550258452
17,15,16,Jits_ISO_5,3,5,56,103,1550279012
17,15,16,Jits_ISO_5,0,5,56,103,1550679372
17,15,16,Jits_ISO_5,1,1,48,24,1550733864
17,15,16,Jits_ISO_5,2,5,80,127,1550759324
17,15,16,Jits_ISO_5,3,5,63,98,1550768460
17,15,16,Jits_ISO_5,0,5,80,127,1551219004
17,15,16,Jits_ISO_5,1,5,63,98,1551229404
17,15,16,Jits_ISO_5,2,1,48,22,1551256292
17,15,16,Jits_ISO_5,3,5,56,103,1551259024
17,15,16,Jits_ISO_5,0,5,63,98,1551678908
17,15,16,Jits_ISO_5,1,1,48,27,1551710372
17,15,16,Jits_ISO_5,2,5,80,127,1551718844
17,15,16,Jits_ISO_5,3,5,56,103,1551779204
17,15,16,Jits_ISO_5,0,5,63,98,1552189052
17,15,16,Jits_ISO_5,1,1,48,32,1552225368
17,15,16,Jits_ISO_5,2,5,56,103,1552238940
17,15,16,Jits_ISO_5,3,5,80,127,1552268712
17,15,16,Jits_ISO_5,0,5,80,127,1552698748
17,15,16,Jits_ISO_5,1,5,63,98,1552709152
17,15,16,Jits_ISO_5,2,1,48,36,1552710188
17,15,16,Jits_ISO_5,3,5,56,103,1552778852
17,15,16,Jits_ISO_5,0,1,48,28,1553255688
17,15,16,Jits_ISO_5,1,5,80,127,1553269112
17,15,16,Jits_ISO_5,2,5,56,103,1553279512
17,15,16,Jits_ISO_5,3,5,63,98,1553282424
17,15,16,Jits_ISO_5,0,5,56,103,1553709328
17,15,16,Jits_ISO_5,1,5,80,127,1553729004
17,15,16,Jits_ISO_5,2,1,48,31,1553737904
17,15,16,Jits_ISO_5,3,5,63,98,1553739768
17,15,16,Jits_ISO_5,0,1,48,26,1554217220
17,15,16,Jits_ISO_5,1,5,63,98,1554219332
17,15,16,Jits_ISO_5,2,5,56,103,1554259352
17,15,16,Jits_ISO_5,3,5,80,127,1554278880
17,15,16,Jits_ISO_5,0,1,48,35,1554711584
17,15,16,Jits_ISO_5,1,5,63,98,1554719160
17,15,16,Jits_ISO_5,2,5,56,103,1554778552
17,15,16,Jits_ISO_5,3,5,80,127,1554781760
17,15,16,Jits_ISO_5,0,5,56,103,1555178824
17,15,16,Jits_ISO_5,1,5,80,127,1555199396
17,15,16,Jits_ISO_5,2,1,48,30,1555239636
17,15,16,Jits_ISO_5,3,5,63,98,1555241128
17,15,16,Jits_ISO_5,0,5,56,103,1555709252
17,15,16,Jits_ISO_5,1,1,48,35,1555721420
17,15,16,Jits_ISO_5,2,5,63,98,1555728848
17,15,16,Jits_ISO_5,3,5,80,127,1555739104
17,15,16,Jits_ISO_5,0,5,80,127,1556179476
17,15,16,Jits_ISO_5,1,5,56,103,1556208876
17,15,16,Jits_ISO_5,2,1,48,27,1556226656
17,15,16,Jits_ISO_5,3,5,63,98,1556248964
17,15,16,Jits_ISO_5,0,5,80,127,1556689628
17,15,16,Jits_ISO_5,1,1,48,34,1556705384
17,15,16,Jits_ISO_5,2,5,56,103,1556708780
17,15,16,Jits_ISO_5,3,5,63,98,1556769216
17,15,16,Jits_ISO_5,0,5,56,103,1557199116
17,15,16,Jits_ISO_5,1,1,48,37,1557207328
17,15,16,Jits_ISO_5,2,5,80,127,1557218788
17,15,16,Jits_ISO_5,3,5,63,98,1557279148
17,15,16,Jits_ISO_5,0,5,80,127,1557678588
17,15,16,Jits_ISO_5,1,5,56,103,1557688544
17,15,16,Jits_ISO_5,2,1,48,38,1557718012
17,15,16,Jits_ISO_5,3,5,63,98,1557728656
17,15,16,Jits_ISO_5,0,5,63,98,1558179096
17,15,16,Jits_ISO_5,1,1,48,32,1558190740
17,15,16,Jits_ISO_5,2,5,56,103,1558219060
17,15,16,Jits_ISO_5,3,5,80,127,1558222268
17,15,16,Jits_ISO_5,0,5,63,98,1558699476
17,15,16,Jits_ISO_5,1,1,48,33,1558701484
17,15,16,Jits_ISO_5,2,5,80,127,1558739436
17,15,16,Jits_ISO_5,3,5,56,103,1558768988
17,15,16,Jits_ISO_5,0,5,56,103,1559188748
17,15,16,Jits_ISO_5,1,5,63,98,1559199004
17,15,16,Jits_ISO_5,2,1,48,33,1559207732
17,15,16,Jits_ISO_5,3,5,80,127,1559228844
17,15,16,Jits_ISO_5,0,5,80,127,1559679456
17,15,16,Jits_ISO_5,1,1,48,26,1559723480
17,15,16,Jits_ISO_5,2,5,63,98,1559749016
17,15,16,Jits_ISO_5,3,5,56,103,1559759144
17,15,16,Jits_ISO_5,0,5,63,98,1560179076
17,15,16,Jits_ISO_5,1,1,48,28,1560234912
17,15,16,Jits_ISO_5,2,5,56,103,1560248784
17,15,16,Jits_ISO_5,3,5,80,127,1560259036
17,15,16,Jits_ISO_5,0,5,63,98,1560678680
17,15,16,Jits_ISO_5,1,1,48,35,1560682164
17,15,16,Jits_ISO_5,2,5,56,103,1560699320
17,15,16,Jits_ISO_5,3,5,80,127,1560739412
17,15,16,Jits_ISO_5,0,1,48,31,1561163952
17,15,16,Jits_ISO_5,1,5,56,103,1561188664
17,15,16,Jits_ISO_5,2,5,63,98,1561199068
17,15,16,Jits_ISO_5,3,5,80,127,1561278860
17,15,16,Jits_ISO_5,0,1,48,27,1561670812
17,15,16,Jits_ISO_5,1,5,63,98,1561679360
17,15,16,Jits_ISO_5,2,5,56,103,1561708764
17,15,16,Jits_ISO_5,3,5,80,127,1561748708
17,15,16,Jits_ISO_5,0,1,48,34,1562155216
17,15,16,Jits_ISO_5,1,5,56,103,1562178884
17,15,16,Jits_ISO_5,2,5,63,98,1562218828
17,15,16,Jits_ISO_5,3,5,80,127,1562258832
17,15,16,Jits_ISO_5,0,5,80,127,1562678640
17,15,16,Jits_ISO_5,1,1,48,31,1562681456
17,15,16,Jits_ISO_5,2,5,56,103,1562758444
17,15,16,Jits_ISO_5,3,5,63,98,1562768620
17,15,16,Jits_ISO_5,0,1,48,35,1563200880
17,15,16,Jits_ISO_5,1,5,56,103,1563219304
17,15,16,Jits_ISO_5,2,5,63,98,1563222368
17,15,16,Jits_ISO_5,3,5,80,127,1563228736
17,15,16,Jits_ISO_5,0,1,48,33,1563690448
17,15,16,Jits_ISO_5,1,5,56,103,1563738344
17,15,16,Jits_ISO_5,2,5,63,98,1563759064
17,15,16,Jits_ISO_5,3,5,80,127,1563769392
17,15,16,Jits_ISO_5,0,5,63,98,1564199504
17,15,16,Jits_ISO_5,1,5,80,127,1564208488
17,15,16,Jits_ISO_5,2,1,48,27,1564226868
17,15,16,Jits_ISO_5,3,5,56,103,1564228908
17,15,16,Jits_ISO_5,0,5,63,98,1564699176
17,15,16,Jits_ISO_5,1,1,48,28,1564728996
17,15,16,Jits_ISO_5,2,5,56,103,1564778980
17,15,16,Jits_ISO_5,3,5,80,127,1564782116
17,15,16,Jits_ISO_5,0,5,63,98,1565198848
17,15,16,Jits_ISO_5,1,5,56,103,1565219348
17,15,16,Jits_ISO_5,2,1,48,28,1565233604
17,15,16,Jits_ISO_5,3,5,80,127,1565248968
17,15,16,Jits_ISO_5,0,5,56,103,1565698376
17,15,16,Jits_ISO_5,1,1,48,23,1565704696
17,15,16,Jits_ISO_5,2,5,63,98,1565719016
17,15,16,Jits_ISO_5,3,5,80,127,1565729120
17,15,16,Jits_ISO_5,0,1,48,24,1566193088
17,15,16,Jits_ISO_5,1,5,56,103,1566228720
17,15,16,Jits_ISO_5,2,5,63,98,1566258644
17,15,16,Jits_ISO_5,3,5,80,127,1566261928
17,15,16,Jits_ISO_5,0,5,56,103,1566679260
17,15,16,Jits_ISO_5,1,1,48,28,1566692988
17,15,16,Jits_ISO_5,2,5,63,98,1566719272
17,15,16,Jits_ISO_5,3,5,80,127,1566778660
17,15,16,Jits_ISO_5,0,1,48,29,1567157128
17,15,16,Jits_ISO_5,1,5,56,103,1567198612
17,15,16,Jits_ISO_5,2,5,63,98,1567209012
17,15,16,Jits_ISO_5,3,5,80,127,1567269136
17,15,16,Jits_ISO_5,0,5,56,103,1567699264
17,15,16,Jits_ISO_5,1,1,48,13,1567713668
17,15,16,Jits_ISO_5,2,5,80,127,1567718712
17,15,16,Jits_ISO_5,3,5,63,98,1567748412
17,15,16,Jits_ISO_5,0,5,80,127,1568199228
17,15,16,Jits_ISO_5,1,1,48,24,1568201188
17,15,16,Jits_ISO_5,2,5,56,103,1568209348
17,15,16,Jits_ISO_5,3,5,63,98,1568228580
17,15,16,Jits_ISO_5,0,1,48,27,1568670532
17,15,16,Jits_ISO_5,1,5,63,98,1568688508
17,15,16,Jits_ISO_5,2,5,80,127,1568769316
17,15,16,Jits_ISO_5,3,5,56,103,1568778804
17,15,16,Jits_ISO_5,0,1,48,22,1569207316
17,15,16,Jits_ISO_5,1,5,80,127,1569248576
17,15,16,Jits_ISO_5,2,5,56,103,1569269144
17,15,16,Jits_ISO_5,3,5,63,98,1569272280
17,15,16,Jits_ISO_5,0,5,63,98,1569718596
17,15,16,Jits_ISO_5,1,5,80,127,1569722104
17,15,16,Jits_ISO_5,2,1,48,26,1569744616
17,15,16,Jits_ISO_5,3,5,56,103,1569779128
17,15,16,Jits_ISO_5,0,5,56,103,1570199044
17,15,16,Jits_ISO_5,1,5,80,127,1570209148
17,15,16,Jits_ISO_5,2,1,48,29,1570218700
17,15,16,Jits_ISO_5,3,5,63,98,1570249188
17,15,16,Jits_ISO_5,0,5,56,103,1570679064
17,15,16,Jits_ISO_5,1,1,48,30,1570710156
17,15,16,Jits_ISO_5,2,5,63,98,1570738528
17,15,16,Jits_ISO_5,3,5,80,127,1570748928
17,15,16,Jits_ISO_5,0,5,63,98,1571189076
17,15,16,Jits_ISO_5,1,1,48,31,1571223148
17,15,16,Jits_ISO_5,2,5,80,127,1571229016
17,15,16,Jits_ISO_5,3,5,56,103,1571268956
17,15,16,Jits_ISO_5,0,5,56,103,1571688828
17,15,16,Jits_ISO_5,1,1,48,27,1571741904
17,15,16,Jits_ISO_5,2,5,63,98,1571768924
17,15,16,Jits_ISO_5,3,5,80,127,1571772208
17,15,16,Jits_ISO_5,0,9999,9999,9999,1512476728
17,15,16,Jits_ISO_5,1,9999,9999,9999,1512976504
17,15,16,Jits_ISO_5,2,9999,9999,9999,1513476208
17,15,16,Jits_ISO_5,3,9999,9999,9999,1513976936
17,15,16,Jits_ISO_5,4,9999,9999,9999,1514476616
17,15,16,Jits_ISO_5,5,9999,9999,9999,1514976372
17,15,16,Jits_ISO_5,6,9999,9999,9999,1515477092
17,15,16,Jits_ISO_5,7,9999,9999,9999,1515976760
17,15,16,Jits_ISO_5,8,9999,9999,9999,1516476500
17,15,16,Jits_ISO_5,9,9999,9999,9999,1516976192
17,15,16,Jits_ISO_5,10,9999,9999,9999,1517476980
17,15,16,Jits_ISO_5,11,9999,9999,9999,1517976656
17,15,16,Jits_ISO_5,12,9999,9999,9999,1518476400
17,15,16,Jits_ISO_5,13,9999,9999,9999,1518976072
17,15,16,Jits_ISO_5,14,9999,9999,9999,1519476792
17,15,16,Jits_ISO_5,15,9999,9999,9999,1519976560
17,15,16,Jits_ISO_5,16,9999,9999,9999,1520476232
17,15,16,Jits_ISO_5,17,9999,9999,9999,1520976956
17,15,16,Jits_ISO_5,18,9999,9999,9999,1521476696
17,15,16,Jits_ISO_5,19,9999,9999,9999,1521976372
17,15,16,Jits_ISO_5,20,9999,9999,9999,1522476120
17,15,16,Jits_ISO_5,21,9999,9999,9999,1522976840
17,15,16,Jits_ISO_5,22,9999,9999,9999,1523476600
17,15,16,Jits_ISO_5,23,9999,9999,9999,1523976292
17,15,16,Jits_ISO_5,24,9999,9999,9999,1524477028
17,15,16,Jits_ISO_5,25,9999,9999,9999,1524976712
17,15,16,Jits_ISO_5,26,9999,9999,9999,1525476464
17,15,16,Jits_ISO_5,27,9999,9999,9999,1525976128
17,15,16,Jits_ISO_5,28,9999,9999,9999,1526476860
17,15,16,Jits_ISO_5,29,9999,9999,9999,1526976584
17,15,16,Jits_ISO_5,30,9999,9999,9999,1527476348
17,15,16,Jits_ISO_5,31,9999,9999,9999,1527977068
17,15,16,Jits_ISO_5,32,9999,9999,9999,1528476740
17,15,16,Jits_ISO_5,33,9999,9999,9999,1528976468
17,15,16,Jits_ISO_5,34,9999,9999,9999,1529476212
17,15,16,Jits_ISO_5,35,9999,9999,9999,1529976952
17,15,16,Jits_ISO_5,36,9999,9999,9999,1530476616
17,15,16,Jits_ISO_5,37,9999,9999,9999,1530976368
17,15,16,Jits_ISO_5,38,9999,9999,9999,1531477104
17,15,16,Jits_ISO_5,39,9999,9999,9999,1531976780
17,15,16,Jits_ISO_5,40,9999,9999,9999,1532476532
17,15,16,Jits_ISO_5,41,9999,9999,9999,1532976220
17,15,16,Jits_ISO_5,42,9999,9999,9999,1533476956
17,15,16,Jits_ISO_5,43,9999,9999,9999,1533976628
17,15,16,Jits_ISO_5,44,9999,9999,9999,1534476372
17,15,16,Jits_ISO_5,45,9999,9999,9999,1534976120
17,15,16,Jits_ISO_5,46,9999,9999,9999,1535476840
17,15,16,Jits_ISO_5,47,9999,9999,9999,1535976524
17,15,16,Jits_ISO_5,48,9999,9999,9999,1536476276
17,15,16,Jits_ISO_5,49,9999,9999,9999,1536977000
17,15,16,Jits_ISO_5,50,9999,9999,9999,1537476708
17,15,16,Jits_ISO_5,51,9999,9999,9999,1537976392
17,15,16,Jits_ISO_5,52,9999,9999,9999,1538476140
17,15,16,Jits_ISO_5,53,9999,9999,9999,1538976880
17,15,16,Jits_ISO_5,54,9999,9999,9999,1539476552
17,15,16,Jits_ISO_5,55,9999,9999,9999,1539976244
17,15,16,Jits_ISO_5,56,9999,9999,9999,1540477036
17,15,16,Jits_ISO_5,57,9999,9999,9999,1540976716
17,15,16,Jits_ISO_5,58,9999,9999,9999,1541476468
17,15,16,Jits_ISO_5,59,9999,9999,9999,1541976128
17,15,16,Jits_ISO_5,60,9999,9999,9999,1542476864
17,15,16,Jits_ISO_5,61,9999,9999,9999,1542976608
17,15,16,Jits_ISO_5,62,9999,9999,9999,1543476300
17,15,16,Jits_ISO_5,63,9999,9999,9999,1543977016
17,15,16,Jits_ISO_5,64,9999,9999,9999,1544476764
17,15,16,Jits_ISO_5,65,9999,9999,9999,1544976452
17,15,16,Jits_ISO_5,66,9999,9999,9999,1545476220
17,15,16,Jits_ISO_5,67,9999,9999,9999,1545976940
17,15,16,Jits_ISO_5,68,9999,9999,9999,1546476632
17,15,16,Jits_ISO_5,69,9999,9999,9999,1546976324
17,15,16,Jits_ISO_5,70,9999,9999,9999,1547477108
17,15,16,Jits_ISO_5,71,9999,9999,9999,1547976772
17,15,16,Jits_ISO_5,72,9999,9999,9999,1548476532
17,15,16,Jits_ISO_5,73,9999,9999,9999,1548976208
17,15,16,Jits_ISO_5,74,9999,9999,9999,1549476928
17,15,16,Jits_ISO_5,75,9999,9999,9999,1549976676
17,15,16,Jits_ISO_5,76,9999,9999,9999,1550476352
17,15,16,Jits_ISO_5,77,9999,9999,9999,1550976104
17,15,16,Jits_ISO_5,78,9999,9999,9999,1551476844
17,15,16,Jits_ISO_5,79,9999,9999,9999,1551976532
17,15,16,Jits_ISO_5,80,9999,9999,9999,1552476208
17,15,16,Jits_ISO_5,81,9999,9999,9999,1552977004
17,15,16,Jits_ISO_5,82,9999,9999,9999,1553476692
17,15,16,Jits_ISO_5,83,9999,9999,9999,1553976440
17,15,16,Jits_ISO_5,84,9999,9999,9999,1554476136
17,15,16,Jits_ISO_5,85,9999,9999,9999,1554976848
17,15,16,Jits_ISO_5,86,9999,9999,9999,1555476596
17,15,16,Jits_ISO_5,87,9999,9999,9999,1555976292
17,15,16,Jits_ISO_5,88,9999,9999,9999,1556477024
17,15,16,Jits_ISO_5,89,9999,9999,9999,1556976712
17,15,16,Jits_ISO_5,90,9999,9999,9999,1557476404
17,15,16,Jits_ISO_5,91,9999,9999,9999,1557976164
17,15,16,Jits_ISO_5,92,9999,9999,9999,1558476884
17,15,16,Jits_ISO_5,93,9999,9999,9999,1558976608
17,15,16,Jits_ISO_5,94,9999,9999,9999,1559476276
17,15,16,Jits_ISO_5,95,9999,9999,9999,1559977012
17,15,16,Jits_ISO_5,96,9999,9999,9999,1560476780
17,15,16,Jits_ISO_5,97,9999,9999,9999,1560976452
17,15,16,Jits_ISO_5,98,9999,9999,9999,1561476200
17,15,16,Jits_ISO_5,99,9999,9999,9999,1561976920
17,15,16,Jits_ISO_5,100,9999,9999,9999,1562476664
17,15,16,Jits_ISO_5,101,9999,9999,9999,1562976340
17,15,16,Jits_ISO_5,102,9999,9999,9999,1563477064
17,15,16,Jits_ISO_5,103,9999,9999,9999,1563976816
17,15,16,Jits_ISO_5,104,9999,9999,9999,1564476488
17,15,16,Jits_ISO_5,105,9999,9999,9999,1564976232
17,15,16,Jits_ISO_5,106,9999,9999,9999,1565476952
17,15,16,Jits_ISO_5,107,9999,9999,9999,1565976628
17,15,16,Jits_ISO_5,108,9999,9999,9999,1566476384
17,15,16,Jits_ISO_5,109,9999,9999,9999,1566976064
17,15,16,Jits_ISO_5,110,9999,9999,9999,1567476800
17,15,16,Jits_ISO_5,111,9999,9999,9999,1567976548
17,15,16,Jits_ISO_5,112,9999,9999,9999,1568476236
17,15,16,Jits_ISO_5,113,9999,9999,9999,1568976972
17,15,16,Jits_ISO_5,114,9999,9999,9999,1569476692
17,15,16,Jits_ISO_5,115,9999,9999,9999,1569976428
17,15,16,Jits_ISO_5,116,9999,9999,9999,1570476104
17,15,16,Jits_ISO_5,117,9999,9999,9999,1570976840
17,15,16,Jits_ISO_5,118,9999,9999,9999,1571476532
17,15,16,Jits_ISO_5,119,9999,9999,9999,1571976276
17,16,7,Jits_ISO_8,0,5,56,103,1586170196
17,16,7,Jits_ISO_8,1,5,63,98,1586173292
17,16,7,Jits_ISO_8,2,5,80,127,1586176336
17,16,7,Jits_ISO_8,0,5,56,103,1586970128
17,16,7,Jits_ISO_8,1,5,63,98,1586973444
17,16,7,Jits_ISO_8,2,5,80,127,1586976336
17,16,7,Jits_ISO_8,3,1,48,43,1587231972
17,16,7,Jits_ISO_8,0,5,80,127,1587710264
17,16,7,Jits_ISO_8,1,1,48,47,1587789076
17,16,7,Jits_ISO_8,2,5,63,98,1587800468
17,16,7,Jits_ISO_8,3,5,56,103,1587809676
17,16,7,Jits_ISO_8,0,5,56,103,1588529464
17,16,7,Jits_ISO_8,1,5,63,98,1588539868
17,16,7,Jits_ISO_8,2,1,48,53,1588607444
17,16,7,Jits_ISO_8,3,5,80,127,1588630064
17,16,7,Jits_ISO_8,0,1,48,49,1589253408
17,16,7,Jits_ISO_8,1,5,63,98,1589299516
17,16,7,Jits_ISO_8,2,5,80,127,1589330336
17,16,7,Jits_ISO_8,3,5,56,103,1589360172
17,16,7,Jits_ISO_8,0,1,48,52,1590062120
17,16,7,Jits_ISO_8,1,5,56,103,1590100364
17,16,7,Jits_ISO_8,2,5,80,127,1590199536
17,16,7,Jits_ISO_8,3,5,63,98,1590249976
17,16,7,Jits_ISO_8,0,1,48,54,1590898832
17,16,7,Jits_ISO_8,1,5,56,103,1590900624
17,16,7,Jits_ISO_8,2,5,80,127,1590950224
17,16,7,Jits_ISO_8,3,5,63,98,1590990048
17,16,7,Jits_ISO_8,0,1,48,52,1591625380
17,16,7,Jits_ISO_8,1,5,80,127,1591729520
17,16,7,Jits_ISO_8,2,5,63,98,1591760364
17,16,7,Jits_ISO_8,3,5,56,103,1591830004
17,16,7,Jits_ISO_8,0,1,48,57,1592503808
17,16,7,Jits_ISO_8,1,5,63,98,1592560188
17,16,7,Jits_ISO_8,2,5,56,103,1592590112
17,16,7,Jits_ISO_8,3,5,80,127,1592650164
17,16,7,Jits_ISO_8,0,1,48,54,1593244688
17,16,7,Jits_ISO_8,1,5,56,103,1593300316
17,16,7,Jits_ISO_8,2,5,80,127,1593303300
17,16,7,Jits_ISO_8,3,5,63,98,1593420124
17,16,7,Jits_ISO_8,0,1,48,49,1594077952
17,16,7,Jits_ISO_8,1,5,56,103,1594180060
17,16,7,Jits_ISO_8,2,5,80,127,1594219856
17,16,7,Jits_ISO_8,3,5,63,98,1594230260
17,16,7,Jits_ISO_8,0,1,48,53,1594865940
17,16,7,Jits_ISO_8,1,5,56,103,1594939800
17,16,7,Jits_ISO_8,2,5,80,127,1594960140
17,16,7,Jits_ISO_8,3,5,63,98,1595040096
17,16,7,Jits_ISO_8,0,1,48,53,1595712208
17,16,7,Jits_ISO_8,1,5,80,127,1595730188
17,16,7,Jits_ISO_8,2,5,56,103,1595829808
17,16,7,Jits_ISO_8,3,5,63,98,1595839912
17,16,7,Jits_ISO_8,0,5,63,98,1596500244
17,16,7,Jits_ISO_8,1,1,48,46,1596508148
17,16,7,Jits_ISO_8,2,5,80,127,1596559780
17,16,7,Jits_ISO_8,3,5,56,103,1596569960
17,16,7,Jits_ISO_8,0,5,56,103,1597300128
17,16,7,Jits_ISO_8,1,1,48,53,1597316916
17,16,7,Jits_ISO_8,2,5,63,98,1597369684
17,16,7,Jits_ISO_8,3,5,80,127,1597373192
17,16,7,Jits_ISO_8,0,1,48,51,1598048976
17,16,7,Jits_ISO_8,1,5,63,98,1598129708
17,16,7,Jits_ISO_8,2,5,56,103,1598179908
17,16,7,Jits_ISO_8,3,5,80,127,1598182972
17,16,7,Jits_ISO_8,0,1,48,54,1598878476
17,16,7,Jits_ISO_8,1,5,56,103,1598890312
17,16,7,Jits_ISO_8,2,5,80,127,1598893448
17,16,7,Jits_ISO_8,3,5,63,98,1598979556
17,16,7,Jits_ISO_8,0,1,48,46,1599670116
17,16,7,Jits_ISO_8,1,5,63,98,1599729928
17,16,7,Jits_ISO_8,2,5,56,103,1599820124
17,16,7,Jits_ISO_8,3,5,80,127,1599849900
17,16,7,Jits_ISO_8,0,1,48,51,1600480056
17,16,7,Jits_ISO_8,1,5,56,103,1600519648
17,16,7,Jits_ISO_8,2,5,63,98,1600620016
17,16,7,Jits_ISO_8,3,5,80,127,1600649492
17,16,7,Jits_ISO_8,0,1,48,45,1601296236
17,16,7,Jits_ISO_8,1,5,63,98,1601339660
17,16,7,Jits_ISO_8,2,5,56,103,1601350060
17,16,7,Jits_ISO_8,3,5,80,127,1601440104
17,16,7,Jits_ISO_8,0,1,48,44,1602094032
17,16,7,Jits_ISO_8,1,5,63,98,1602160036
17,16,7,Jits_ISO_8,2,5,56,103,1602239756
17,16,7,Jits_ISO_8,3,5,80,127,1602243044
17,16,7,Jits_ISO_8,0,5,80,127,1602919760
17,16,7,Jits_ISO_8,1,1,48,41,1602922876
17,16,7,Jits_ISO_8,2,5,63,98,1602940480
17,16,7,Jits_ISO_8,3,5,56,103,1602999724
17,16,7,Jits_ISO_8,0,1,48,37,1603717240
17,16,7,Jits_ISO_8,1,5,56,103,1603759372
17,16,7,Jits_ISO_8,2,5,63,98,1603780092
17,16,7,Jits_ISO_8,3,5,80,127,1603783476
17,16,7,Jits_ISO_8,0,5,63,98,1604499788
17,16,7,Jits_ISO_8,1,1,48,32,1604549828
17,16,7,Jits_ISO_8,2,5,80,127,1604579692
17,16,7,Jits_ISO_8,3,5,56,103,1604589944
17,16,7,Jits_ISO_8,0,1,48,54,1605306956
17,16,7,Jits_ISO_8,1,5,63,98,1605320328
17,16,7,Jits_ISO_8,2,5,56,103,1605339488
17,16,7,Jits_ISO_8,3,5,80,127,1605389604
17,16,7,Jits_ISO_8,0,1,48,46,1606054408
17,16,7,Jits_ISO_8,1,5,80,127,1606119764
17,16,7,Jits_ISO_8,2,5,63,98,1606159772
17,16,7,Jits_ISO_8,3,5,56,103,1606180420
17,16,7,Jits_ISO_8,0,1,48,49,1606914000
17,16,7,Jits_ISO_8,1,5,56,103,1606959512
17,16,7,Jits_ISO_8,2,5,63,98,1606969768
17,16,7,Jits_ISO_8,3,5,80,127,1606990116
17,16,7,Jits_ISO_8,0,5,56,103,1607689544
17,16,7,Jits_ISO_8,1,1,48,28,1607762216
17,16,7,Jits_ISO_8,2,5,63,98,1607779672
17,16,7,Jits_ISO_8,3,5,80,127,1607840332
17,16,7,Jits_ISO_8,0,5,80,127,1608520184
17,16,7,Jits_ISO_8,1,5,56,103,1608530440
17,16,7,Jits_ISO_8,2,1,48,39,1608543428
17,16,7,Jits_ISO_8,3,5,63,98,1608599996
17,16,7,Jits_ISO_8,0,1,48,45,1609294312
17,16,7,Jits_ISO_8,1,5,63,98,1609349548
17,16,7,Jits_ISO_8,2,5,80,127,1609439620
17,16,7,Jits_ISO_8,3,5,56,103,1609449948
17,16,7,Jits_ISO_8,0,5,63,98,1610089836
17,16,7,Jits_ISO_8,1,1,48,49,1610117096
17,16,7,Jits_ISO_8,2,5,80,127,1610140172
17,16,7,Jits_ISO_8,3,5,56,103,1610200632
17,16,7,Jits_ISO_8,0,1,48,14,1610914212
17,16,7,Jits_ISO_8,1,5,56,103,1610920452
17,16,7,Jits_ISO_8,2,5,80,127,1610969404
17,16,7,Jits_ISO_8,3,5,63,98,1610990124
17,16,7,Jits_ISO_8,0,5,56,103,1611690424
17,16,7,Jits_ISO_8,1,1,48,52,1611697808
17,16,7,Jits_ISO_8,2,5,80,127,1611749836
17,16,7,Jits_ISO_8,3,5,63,98,1611820360
17,16,7,Jits_ISO_8,0,5,56,103,1612490048
17,16,7,Jits_ISO_8,1,1,48,50,1612499524
17,16,7,Jits_ISO_8,2,5,80,127,1612519968
17,16,7,Jits_ISO_8,3,5,63,98,1612549372
17,16,7,Jits_ISO_8,0,1,48,48,1613296708
17,16,7,Jits_ISO_8,1,5,56,103,1613329880
17,16,7,Jits_ISO_8,2,5,80,127,1613350156
17,16,7,Jits_ISO_8,3,5,63,98,1613409608
17,16,7,Jits_ISO_8,0,1,48,47,1614080448
17,16,7,Jits_ISO_8,1,5,80,127,1614210528
17,16,7,Jits_ISO_8,2,5,56,103,1614219736
17,16,7,Jits_ISO_8,3,5,63,98,1614229916
17,16,7,Jits_ISO_8,0,1,48,38,1614896408
17,16,7,Jits_ISO_8,1,5,56,103,1614970268
17,16,7,Jits_ISO_8,2,5,80,127,1615010200
17,16,7,Jits_ISO_8,3,5,63,98,1615040048
17,16,7,Jits_ISO_8,0,1,48,27,1615689500
17,16,7,Jits_ISO_8,1,5,56,103,1615740240
17,16,7,Jits_ISO_8,2,5,63,98,1615769940
17,16,7,Jits_ISO_8,3,5,80,127,1615809872
17,16,7,Jits_ISO_8,0,5,80,127,1616489720
17,16,7,Jits_ISO_8,1,1,48,38,1616522304
17,16,7,Jits_ISO_8,2,5,63,98,1616539908
17,16,7,Jits_ISO_8,3,5,56,103,1616559732
17,16,7,Jits_ISO_8,0,1,48,40,1617259960
17,16,7,Jits_ISO_8,1,5,56,103,1617320272
17,16,7,Jits_ISO_8,2,5,80,127,1617389848
17,16,7,Jits_ISO_8,3,5,63,98,1617450508
17,16,7,Jits_ISO_8,0,1,48,31,1618081092
17,16,7,Jits_ISO_8,1,5,80,127,1618119960
17,16,7,Jits_ISO_8,2,5,63,98,1618210156
17,16,7,Jits_ISO_8,3,5,56,103,1618229908
17,16,7,Jits_ISO_8,0,1,48,35,1618905680
17,16,7,Jits_ISO_8,1,5,63,98,1618940196
17,16,7,Jits_ISO_8,2,5,56,103,1618959876
17,16,7,Jits_ISO_8,3,5,80,127,1619001000
17,16,7,Jits_ISO_8,0,5,80,127,1619700144
17,16,7,Jits_ISO_8,1,5,63,98,1619719748
17,16,7,Jits_ISO_8,2,1,48,40,1619725924
17,16,7,Jits_ISO_8,3,5,56,103,1619800452
17,16,7,Jits_ISO_8,0,5,63,98,1620489572
17,16,7,Jits_ISO_8,1,1,48,38,1620492464
17,16,7,Jits_ISO_8,2,5,56,103,1620600104
17,16,7,Jits_ISO_8,3,5,80,127,1620603236
17,16,7,Jits_ISO_8,0,1,48,41,1621233836
17,16,7,Jits_ISO_8,1,5,63,98,1621309784
17,16,7,Jits_ISO_8,2,5,56,103,1621320036
17,16,7,Jits_ISO_8,3,5,80,127,1621323024
17,16,7,Jits_ISO_8,0,1,48,30,1622016644
17,16,7,Jits_ISO_8,1,5,56,103,1622090056
17,16,7,Jits_ISO_8,2,5,80,127,1622209796
17,16,7,Jits_ISO_8,3,5,63,98,1622249816
17,16,7,Jits_ISO_8,0,1,48,41,1622875376
17,16,7,Jits_ISO_8,1,5,56,103,1622910412
17,16,7,Jits_ISO_8,2,5,80,127,1622990460
17,16,7,Jits_ISO_8,3,5,63,98,1623009616
17,16,7,Jits_ISO_8,0,1,48,42,1623644448
17,16,7,Jits_ISO_8,1,5,56,103,1623710148
17,16,7,Jits_ISO_8,2,5,63,98,1623819592
17,16,7,Jits_ISO_8,3,5,80,127,1623822876
17,16,7,Jits_ISO_8,0,1,48,48,1624394580
17,16,7,Jits_ISO_8,1,5,56,103,1624539584
17,16,7,Jits_ISO_8,2,5,80,127,1624570408
17,16,7,Jits_ISO_8,3,5,63,98,1624589564
17,16,7,Jits_ISO_8,0,1,48,32,1625238456
17,16,7,Jits_ISO_8,1,5,63,98,1625319740
17,16,7,Jits_ISO_8,2,5,56,103,1625329996
17,16,7,Jits_ISO_8,3,5,80,127,1625340380
17,16,7,Jits_ISO_8,0,1,48,38,1626073368
17,16,7,Jits_ISO_8,1,5,80,127,1626110344
17,16,7,Jits_ISO_8,2,5,56,103,1626159568
17,16,7,Jits_ISO_8,3,5,63,98,1626200468
17,16,7,Jits_ISO_8,0,1,48,41,1626818480
17,16,7,Jits_ISO_8,1,5,80,127,1626929440
17,16,7,Jits_ISO_8,2,5,63,98,1626950088
17,16,7,Jits_ISO_8,3,5,56,103,1627000356
17,16,7,Jits_ISO_8,0,1,48,43,1627582232
17,16,7,Jits_ISO_8,1,5,80,127,1627739428
17,16,7,Jits_ISO_8,2,5,56,103,1627770468
17,16,7,Jits_ISO_8,3,5,63,98,1627839736
17,16,7,Jits_ISO_8,0,1,48,37,1628408188
17,16,7,Jits_ISO_8,1,5,56,103,1628589356
17,16,7,Jits_ISO_8,2,5,80,127,1628599760
17,16,7,Jits_ISO_8,3,5,63,98,1628639656
17,16,7,Jits_ISO_8,0,1,48,28,1629248392
17,16,7,Jits_ISO_8,1,5,56,103,1629300324
17,16,7,Jits_ISO_8,2,5,63,98,1629319484
17,16,7,Jits_ISO_8,3,5,80,127,1629390400
17,16,7,Jits_ISO_8,0,1,48,27,1630025152
17,16,7,Jits_ISO_8,1,5,63,98,1630120252
17,16,7,Jits_ISO_8,2,5,80,127,1630179584
17,16,7,Jits_ISO_8,3,5,56,103,1630200232
17,16,7,Jits_ISO_8,0,1,48,34,1630766688
17,16,7,Jits_ISO_8,1,5,80,127,1630910100
17,16,7,Jits_ISO_8,2,5,56,103,1630939380
17,16,7,Jits_ISO_8,3,5,63,98,1630970276
17,16,7,Jits_ISO_8,0,1,48,34,1631607040
17,16,7,Jits_ISO_8,1,5,56,103,1631709412
17,16,7,Jits_ISO_8,2,5,63,98,1631770000
17,16,7,Jits_ISO_8,3,5,80,127,1631830512
17,16,7,Jits_ISO_8,0,1,48,35,1632465148
17,16,7,Jits_ISO_8,1,5,80,127,1632530028
17,16,7,Jits_ISO_8,2,5,56,103,1632550380
17,16,7,Jits_ISO_8,3,5,63,98,1632620080
17,16,7,Jits_ISO_8,0,1,48,41,1633318004
17,16,7,Jits_ISO_8,1,5,80,127,1633329544
17,16,7,Jits_ISO_8,2,5,63,98,1633350120
17,16,7,Jits_ISO_8,3,5,56,103,1633379596
17,16,7,Jits_ISO_8,0,1,48,42,1634076732
17,16,7,Jits_ISO_8,1,5,80,127,1634120000
17,16,7,Jits_ISO_8,2,5,63,98,1634139384
17,16,7,Jits_ISO_8,3,5,56,103,1634200028
17,16,7,Jits_ISO_8,0,1,48,38,1634878732
17,16,7,Jits_ISO_8,1,5,80,127,1634919740
17,16,7,Jits_ISO_8,2,5,56,103,1635020132
17,16,7,Jits_ISO_8,3,5,63,98,1635049980
17,16,7,Jits_ISO_8,0,5,63,98,1635710360
17,16,7,Jits_ISO_8,1,1,48,39,1635733520
17,16,7,Jits_ISO_8,2,5,80,127,1635759504
17,16,7,Jits_ISO_8,3,5,56,103,1635779952
17,16,7,Jits_ISO_8,0,1,48,33,1636473112
17,16,7,Jits_ISO_8,1,5,80,127,1636549984
17,16,7,Jits_ISO_8,2,5,56,103,1636579892
17,16,7,Jits_ISO_8,3,5,63,98,1636583028
17,16,7,Jits_ISO_8,0,1,48,46,1637312332
17,16,7,Jits_ISO_8,1,5,63,98,1637379336
17,16,7,Jits_ISO_8,2,5,56,103,1637420312
17,16,7,Jits_ISO_8,3,5,80,127,1637439988
17,16,7,Jits_ISO_8,0,5,80,127,1638119916
17,16,7,Jits_ISO_8,1,1,48,42,1638141508
17,16,7,Jits_ISO_8,2,5,63,98,1638199872
17,16,7,Jits_ISO_8,3,5,56,103,1638239732
17,16,7,Jits_ISO_8,0,1,48,43,1638936088
17,16,7,Jits_ISO_8,1,5,63,98,1638939864
17,16,7,Jits_ISO_8,2,5,80,127,1639019828
17,16,7,Jits_ISO_8,3,5,56,103,1639040312
17,16,7,Jits_ISO_8,0,1,48,40,1639721696
17,16,7,Jits_ISO_8,1,5,56,103,1639779844
17,16,7,Jits_ISO_8,2,5,63,98,1639789876
17,16,7,Jits_ISO_8,3,5,80,127,1639829732
17,16,7,Jits_ISO_8,0,5,56,103,1640499704
17,16,7,Jits_ISO_8,1,5,80,127,1640502688
17,16,7,Jits_ISO_8,2,1,48,46,1640562728
17,16,7,Jits_ISO_8,3,5,63,98,1640639788
17,16,7,Jits_ISO_8,0,1,48,43,1641234972
17,16,7,Jits_ISO_8,1,5,56,103,1641290060
17,16,7,Jits_ISO_8,2,5,63,98,1641380328
17,16,7,Jits_ISO_8,3,5,80,127,1641449768
17,16,7,Jits_ISO_8,0,1,48,37,1642104196
17,16,7,Jits_ISO_8,1,5,63,98,1642169676
17,16,7,Jits_ISO_8,2,5,80,127,1642172960
17,16,7,Jits_ISO_8,3,5,56,103,1642230124
17,16,7,Jits_ISO_8,0,1,48,34,1642941780
17,16,7,Jits_ISO_8,1,5,80,127,1643010792
17,16,7,Jits_ISO_8,2,5,56,103,1643029800
17,16,7,Jits_ISO_8,3,5,63,98,1643039964
17,16,7,Jits_ISO_8,0,5,56,103,1643720040
17,16,7,Jits_ISO_8,1,5,63,98,1643730368
17,16,7,Jits_ISO_8,2,1,48,34,1643766084
17,16,7,Jits_ISO_8,3,5,80,127,1643799776
17,16,7,Jits_ISO_8,0,1,48,28,1644489536
17,16,7,Jits_ISO_8,1,5,80,127,1644519780
17,16,7,Jits_ISO_8,2,5,56,103,1644569824
17,16,7,Jits_ISO_8,3,5,63,98,1644620076
17,16,7,Jits_ISO_8,0,1,48,30,1645310072
17,16,7,Jits_ISO_8,1,5,56,103,1645400520
17,16,7,Jits_ISO_8,2,5,63,98,1645409568
17,16,7,Jits_ISO_8,3,5,80,127,1645449512
17,16,7,Jits_ISO_8,0,1,48,38,1646135456
17,16,7,Jits_ISO_8,1,5,56,103,1646139680
17,16,7,Jits_ISO_8,2,5,63,98,1646179552
17,16,7,Jits_ISO_8,3,5,80,127,1646230396
17,16,7,Jits_ISO_8,0,5,80,127,1646899556
17,16,7,Jits_ISO_8,1,1,48,39,1646904388
17,16,7,Jits_ISO_8,2,5,56,103,1646949672
17,16,7,Jits_ISO_8,3,5,63,98,1646970320
17,16,7,Jits_ISO_8,0,1,48,42,1647638836
17,16,7,Jits_ISO_8,1,5,80,127,1647709544
17,16,7,Jits_ISO_8,2,5,63,98,1647770044
17,16,7,Jits_ISO_8,3,5,56,103,1647849804
17,16,7,Jits_ISO_8,0,1,48,46,1648481876
17,16,7,Jits_ISO_8,1,5,80,127,1648489980
17,16,7,Jits_ISO_8,2,5,56,103,1648529780
17,16,7,Jits_ISO_8,3,5,63,98,1648550204
17,16,7,Jits_ISO_8,0,1,48,43,1649282056
17,16,7,Jits_ISO_8,1,5,56,103,1649339752
17,16,7,Jits_ISO_8,2,5,80,127,1649350252
17,16,7,Jits_ISO_8,3,5,63,98,1649389812
17,16,7,Jits_ISO_8,0,1,48,44,1650101684
17,16,7,Jits_ISO_8,1,5,56,103,1650210324
17,16,7,Jits_ISO_8,2,5,63,98,1650250344
17,16,7,Jits_ISO_8,3,5,80,127,1650253628
17,16,7,Jits_ISO_8,0,1,48,42,1650876504
17,16,7,Jits_ISO_8,1,5,63,98,1650900424
17,16,7,Jits_ISO_8,2,5,80,127,1650940296
17,16,7,Jits_ISO_8,3,5,56,103,1651009772
17,16,7,Jits_ISO_8,0,5,63,98,1651689840
17,16,7,Jits_ISO_8,1,1,48,32,1651717572
17,16,7,Jits_ISO_8,2,5,56,103,1651769800
17,16,7,Jits_ISO_8,3,5,80,127,1651830372
17,16,7,Jits_ISO_8,0,5,80,127,1652499752
17,16,7,Jits_ISO_8,1,1,48,24,1652530840
17,16,7,Jits_ISO_8,2,5,63,98,1652550088
17,16,7,Jits_ISO_8,3,5,56,103,1652579788
17,16,7,Jits_ISO_8,0,5,56,103,1653290444
17,16,7,Jits_ISO_8,1,5,63,98,1653339520
17,16,7,Jits_ISO_8,2,5,80,127,1653349700
17,16,7,Jits_ISO_8,3,1,48,33,1653417120
17,16,7,Jits_ISO_8,0,5,56,103,1654100436
17,16,7,Jits_ISO_8,1,1,48,32,1654109912
17,16,7,Jits_ISO_8,2,5,63,98,1654209872
17,16,7,Jits_ISO_8,3,5,80,127,1654230444
17,16,7,Jits_ISO_8,0,5,63,98,1654900188
17,16,7,Jits_ISO_8,1,1,48,35,1654928664
17,16,7,Jits_ISO_8,2,5,80,127,1654950224
17,16,7,Jits_ISO_8,3,5,56,103,1655040364
17,16,7,Jits_ISO_8,0,5,63,98,1655689452
17,16,7,Jits_ISO_8,1,1,48,34,1655693532
17,16,7,Jits_ISO_8,2,5,80,127,1655720188
17,16,7,Jits_ISO_8,3,5,56,103,1655810332
17,16,7,Jits_ISO_8,0,1,48,31,1656450996
17,16,7,Jits_ISO_8,1,5,63,98,1656490368
17,16,7,Jits_ISO_8,2,5,56,103,1656499580
17,16,7,Jits_ISO_8,3,5,80,127,1656600040
17,16,7,Jits_ISO_8,0,1,48,34,1657202332
17,16,7,Jits_ISO_8,1,5,63,98,1657389296
17,16,7,Jits_ISO_8,2,5,80,127,1657420044
17,16,7,Jits_ISO_8,3,5,56,103,1657449964
17,16,7,Jits_ISO_8,0,1,48,26,1658107852
17,16,7,Jits_ISO_8,1,5,80,127,1658209684
17,16,7,Jits_ISO_8,2,5,63,98,1658220012
17,16,7,Jits_ISO_8,3,5,56,103,1658249564
17,16,7,Jits_ISO_8,0,5,80,127,1658909968
17,16,7,Jits_ISO_8,1,1,48,28,1658913528
17,16,7,Jits_ISO_8,2,5,63,98,1658929716
17,16,7,Jits_ISO_8,3,5,56,103,1658979832
17,16,7,Jits_ISO_8,0,1,48,28,1659632412
17,16,7,Jits_ISO_8,1,5,63,98,1659739760
17,16,7,Jits_ISO_8,2,5,80,127,1659799980
17,16,7,Jits_ISO_8,3,5,56,103,1659820480
17,16,7,Jits_ISO_8,0,1,48,20,1660366248
17,16,7,Jits_ISO_8,1,5,63,98,1660500456
17,16,7,Jits_ISO_8,2,5,56,103,1660549604
17,16,7,Jits_ISO_8,3,5,80,127,1660559932
17,16,7,Jits_ISO_8,0,1,48,22,1661202492
17,16,7,Jits_ISO_8,1,5,56,103,1661329808
17,16,7,Jits_ISO_8,2,5,80,127,1661339988
17,16,7,Jits_ISO_8,3,5,63,98,1661440688
17,16,7,Jits_ISO_8,0,1,48,30,1662071192
17,16,7,Jits_ISO_8,1,5,80,127,1662089692
17,16,7,Jits_ISO_8,2,5,63,98,1662099948
17,16,7,Jits_ISO_8,3,5,56,103,1662250220
17,16,7,Jits_ISO_8,0,1,48,18,1662843472
17,16,7,Jits_ISO_8,1,5,63,98,1662899752
17,16,7,Jits_ISO_8,2,5,80,127,1662939636
17,16,7,Jits_ISO_8,3,5,56,103,1663020564
17,16,7,Jits_ISO_8,0,1,48,26,1663567884
17,16,7,Jits_ISO_8,1,5,56,103,1663690000
17,16,7,Jits_ISO_8,2,5,80,127,1663789560
17,16,7,Jits_ISO_8,3,5,63,98,1663809836
17,16,7,Jits_ISO_8,0,1,48,31,1664346228
17,16,7,Jits_ISO_8,1,5,80,127,1664550548
17,16,7,Jits_ISO_8,2,5,56,103,1664559532
17,16,7,Jits_ISO_8,3,5,63,98,1664649516
17,16,7,Jits_ISO_8,0,1,48,29,1665256844
17,16,7,Jits_ISO_8,1,5,56,103,1665350152
17,16,7,Jits_ISO_8,2,5,63,98,1665369592
17,16,7,Jits_ISO_8,3,5,80,127,1665450524
17,16,7,Jits_ISO_8,0,1,48,30,1665999820
17,16,7,Jits_ISO_8,1,5,63,98,1666099468
17,16,7,Jits_ISO_8,2,5,56,103,1666189672
17,16,7,Jits_ISO_8,3,5,80,127,1666192732
17,16,7,Jits_ISO_8,0,1,48,27,1666714772
17,16,7,Jits_ISO_8,1,5,56,103,1666930232
17,16,7,Jits_ISO_8,2,5,80,127,1666989552
17,16,7,Jits_ISO_8,3,5,63,98,1666999804
17,16,7,Jits_ISO_8,0,1,48,34,1667507860
17,16,7,Jits_ISO_8,1,5,80,127,1667779808
17,16,7,Jits_ISO_8,2,5,56,103,1667790360
17,16,7,Jits_ISO_8,3,5,63,98,1667793348
17,16,7,Jits_ISO_8,0,5,56,103,1668539892
17,16,7,Jits_ISO_8,1,5,80,127,1668550168
17,16,7,Jits_ISO_8,2,5,63,98,1668569624
17,16,7,Jits_ISO_8,3,1,48,37,1668628236
17,16,7,Jits_ISO_8,0,1,48,29,1669221800
17,16,7,Jits_ISO_8,1,5,63,98,1669309716
17,16,7,Jits_ISO_8,2,5,80,127,1669370364
17,16,7,Jits_ISO_8,3,5,56,103,1669420260
17,16,7,Jits_ISO_8,0,1,48,23,1670017088
17,16,7,Jits_ISO_8,1,5,63,98,1670189468
17,16,7,Jits_ISO_8,2,5,56,103,1670199648
17,16,7,Jits_ISO_8,3,5,80,127,1670249768
17,16,7,Jits_ISO_8,0,5,63,98,1670890196
17,16,7,Jits_ISO_8,1,1,48,27,1670897192
17,16,7,Jits_ISO_8,2,5,80,127,1670910172
17,16,7,Jits_ISO_8,3,5,56,103,1670919604
17,16,7,Jits_ISO_8,0,1,48,22,1671650704
17,16,7,Jits_ISO_8,1,5,63,98,1671689620
17,16,7,Jits_ISO_8,2,5,80,127,1671692904
17,16,7,Jits_ISO_8,3,5,56,103,1671729568
17,16,7,Jits_ISO_8,0,1,48,22,1672498668
17,16,7,Jits_ISO_8,1,5,63,98,1672559948
17,16,7,Jits_ISO_8,2,5,80,127,1672589576
17,16,7,Jits_ISO_8,3,5,56,103,1672600036
17,16,7,Jits_ISO_8,0,5,56,103,1673309504
17,16,7,Jits_ISO_8,1,5,80,127,1673340252
17,16,7,Jits_ISO_8,2,5,63,98,1673370176
17,16,7,Jits_ISO_8,3,1,48,32,1673414892
17,16,7,Jits_ISO_8,0,1,48,35,1674097088
17,16,7,Jits_ISO_8,1,5,63,98,1674209780
17,16,7,Jits_ISO_8,2,5,56,103,1674249656
17,16,7,Jits_ISO_8,3,5,80,127,1674253012
17,16,7,Jits_ISO_8,0,5,80,127,1674910184
17,16,7,Jits_ISO_8,1,5,56,103,1674990100
17,16,7,Jits_ISO_8,2,1,48,35,1675012212
17,16,7,Jits_ISO_8,3,5,63,98,1675040136
17,16,7,Jits_ISO_8,0,5,80,127,1675690268
17,16,7,Jits_ISO_8,1,5,56,103,1675709944
17,16,7,Jits_ISO_8,2,5,63,98,1675799880
17,16,7,Jits_ISO_8,3,1,48,35,1675807692
17,16,7,Jits_ISO_8,0,5,80,127,1676529980
17,16,7,Jits_ISO_8,1,1,48,28,1676544092
17,16,7,Jits_ISO_8,2,5,63,98,1676570072
17,16,7,Jits_ISO_8,3,5,56,103,1676609944
17,16,7,Jits_ISO_8,0,5,63,98,1677300040
17,16,7,Jits_ISO_8,1,1,48,29,1677336056
17,16,7,Jits_ISO_8,2,5,80,127,1677359428
17,16,7,Jits_ISO_8,3,5,56,103,1677390176
17,16,7,Jits_ISO_8,0,5,56,103,1678100000
17,16,7,Jits_ISO_8,1,1,48,25,1678128496
17,16,7,Jits_ISO_8,2,5,80,127,1678130292
17,16,7,Jits_ISO_8,3,5,63,98,1678220032
17,16,7,Jits_ISO_8,0,5,56,103,1678909772
17,16,7,Jits_ISO_8,1,1,48,24,1678990824
17,16,7,Jits_ISO_8,2,5,80,127,1679020392
17,16,7,Jits_ISO_8,3,5,63,98,1679050040
17,16,7,Jits_ISO_8,0,5,56,103,1679759788
17,16,7,Jits_ISO_8,1,5,63,98,1679820180
17,16,7,Jits_ISO_8,2,5,80,127,1679849804
17,16,7,Jits_ISO_8,3,1,48,27,1679857396
17,16,7,Jits_ISO_8,0,5,56,103,1680529628
17,16,7,Jits_ISO_8,1,5,63,98,1680600636
17,16,7,Jits_ISO_8,2,5,80,127,1680619868
17,16,7,Jits_ISO_8,3,1,48,28,1680711008
17,16,7,Jits_ISO_8,0,5,80,127,1681299756
17,16,7,Jits_ISO_8,1,5,63,98,1681320256
17,16,7,Jits_ISO_8,2,5,56,103,1681369428
17,16,7,Jits_ISO_8,3,1,48,25,1681427052
17,16,7,Jits_ISO_8,0,9999,9999,9999,1586567248
17,16,7,Jits_ISO_8,1,9999,9999,9999,1587368052
17,16,7,Jits_ISO_8,2,9999,9999,9999,1588167752
17,16,7,Jits_ISO_8,3,9999,9999,9999,1588967508
17,16,7,Jits_ISO_8,4,9999,9999,9999,1589767252
17,16,7,Jits_ISO_8,5,9999,9999,9999,1590568036
17,16,7,Jits_ISO_8,6,9999,9999,9999,1591367772
17,16,7,Jits_ISO_8,7,9999,9999,9999,1592167508
17,16,7,Jits_ISO_8,8,9999,9999,9999,1592967252
17,16,7,Jits_ISO_8,9,9999,9999,9999,1593768020
17,16,7,Jits_ISO_8,10,9999,9999,9999,1594567788
17,16,7,Jits_ISO_8,11,9999,9999,9999,1595367528
17,16,7,Jits_ISO_8,12,9999,9999,9999,1596167272
17,16,7,Jits_ISO_8,13,9999,9999,9999,1596968048
17,16,7,Jits_ISO_8,14,9999,9999,9999,1597767776
17,16,7,Jits_ISO_8,15,9999,9999,9999,1598567524
17,16,7,Jits_ISO_8,16,9999,9999,9999,1599367244
17,16,7,Jits_ISO_8,17,9999,9999,9999,1600168032
17,16,7,Jits_ISO_8,18,9999,9999,9999,1600967800
17,16,7,Jits_ISO_8,19,9999,9999,9999,1601767536
17,16,7,Jits_ISO_8,20,9999,9999,9999,1602567268
17,16,7,Jits_ISO_8,21,9999,9999,9999,1603368048
17,16,7,Jits_ISO_8,22,9999,9999,9999,1604167788
17,16,7,Jits_ISO_8,23,9999,9999,9999,1604967520
17,16,7,Jits_ISO_8,24,9999,9999,9999,1605767252
17,16,7,Jits_ISO_8,25,9999,9999,9999,1606568032
17,16,7,Jits_ISO_8,26,9999,9999,9999,1607367792
17,16,7,Jits_ISO_8,27,9999,9999,9999,1608167528
17,16,7,Jits_ISO_8,28,9999,9999,9999,1608967276
17,16,7,Jits_ISO_8,29,9999,9999,9999,1609768004
17,16,7,Jits_ISO_8,30,9999,9999,9999,1610567740
17,16,7,Jits_ISO_8,31,9999,9999,9999,1611367476
17,16,7,Jits_ISO_8,32,9999,9999,9999,1612167284
17,16,7,Jits_ISO_8,33,9999,9999,9999,1612968000
17,16,7,Jits_ISO_8,34,9999,9999,9999,1613767776
17,16,7,Jits_ISO_8,35,9999,9999,9999,1614567520
17,16,7,Jits_ISO_8,36,9999,9999,9999,1615367260
17,16,7,Jits_ISO_8,37,9999,9999,9999,1616168040
17,16,7,Jits_ISO_8,38,9999,9999,9999,1616967772
17,16,7,Jits_ISO_8,39,9999,9999,9999,1617767524
17,16,7,Jits_ISO_8,40,9999,9999,9999,1618567264
17,16,7,Jits_ISO_8,41,9999,9999,9999,1619368048
17,16,7,Jits_ISO_8,42,9999,9999,9999,1620167804
17,16,7,Jits_ISO_8,43,9999,9999,9999,1620967544
17,16,7,Jits_ISO_8,44,9999,9999,9999,1621767264
17,16,7,Jits_ISO_8,45,9999,9999,9999,1622568024
17,16,7,Jits_ISO_8,46,9999,9999,9999,1623367760
17,16,7,Jits_ISO_8,47,9999,9999,9999,1624167492
17,16,7,Jits_ISO_8,48,9999,9999,9999,1624967228
17,16,7,Jits_ISO_8,49,9999,9999,9999,1625768004
17,16,7,Jits_ISO_8,50,9999,9999,9999,1626567764
17,16,7,Jits_ISO_8,51,9999,9999,9999,1627367504
17,16,7,Jits_ISO_8,52,9999,9999,9999,1628167244
17,16,7,Jits_ISO_8,53,9999,9999,9999,1628968032
17,16,7,Jits_ISO_8,54,9999,9999,9999,1629767768
17,16,7,Jits_ISO_8,55,9999,9999,9999,1630567500
17,16,7,Jits_ISO_8,56,9999,9999,9999,1631367236
17,16,7,Jits_ISO_8,57,9999,9999,9999,1632168016
17,16,7,Jits_ISO_8,58,9999,9999,9999,1632967780
17,16,7,Jits_ISO_8,59,9999,9999,9999,1633767512
17,16,7,Jits_ISO_8,60,9999,9999,9999,1634567248
17,16,7,Jits_ISO_8,61,9999,9999,9999,1635368040
17,16,7,Jits_ISO_8,62,9999,9999,9999,1636167772
17,16,7,Jits_ISO_8,63,9999,9999,9999,1636967504
17,16,7,Jits_ISO_8,64,9999,9999,9999,1637767248
17,16,7,Jits_ISO_8,65,9999,9999,9999,1638568036
17,16,7,Jits_ISO_8,66,9999,9999,9999,1639367744
17,16,7,Jits_ISO_8,67,9999,9999,9999,1640167484
17,16,7,Jits_ISO_8,68,9999,9999,9999,1640967256
17,16,7,Jits_ISO_8,69,9999,9999,9999,1641768048
17,16,7,Jits_ISO_8,70,9999,9999,9999,1642567776
17,16,7,Jits_ISO_8,71,9999,9999,9999,1643367520
17,16,7,Jits_ISO_8,72,9999,9999,9999,1644167256
17,16,7,Jits_ISO_8,73,9999,9999,9999,1644968048
17,16,7,Jits_ISO_8,74,9999,9999,9999,1645767744
17,16,7,Jits_ISO_8,75,9999,9999,9999,1646567484
17,16,7,Jits_ISO_8,76,9999,9999,9999,1647367292
17,16,7,Jits_ISO_8,77,9999,9999,9999,1648168012
17,16,7,Jits_ISO_8,78,9999,9999,9999,1648967740
17,16,7,Jits_ISO_8,79,9999,9999,9999,1649767476
17,16,7,Jits_ISO_8,80,9999,9999,9999,1650567284
17,16,7,Jits_ISO_8,81,9999,9999,9999,1651367992
17,16,7,Jits_ISO_8,82,9999,9999,9999,1652167752
17,16,7,Jits_ISO_8,83,9999,9999,9999,1652967484
17,16,7,Jits_ISO_8,84,9999,9999,9999,1653767228
17,16,7,Jits_ISO_8,85,9999,9999,9999,1654568024
17,16,7,Jits_ISO_8,86,9999,9999,9999,1655367772
17,16,7,Jits_ISO_8,87,9999,9999,9999,1656167504
17,16,7,Jits_ISO_8,88,9999,9999,9999,1656967236
17,16,7,Jits_ISO_8,89,9999,9999,9999,1657768024
17,16,7,Jits_ISO_8,90,9999,9999,9999,1658567796
17,16,7,Jits_ISO_8,91,9999,9999,9999,1659367532
17,16,7,Jits_ISO_8,92,9999,9999,9999,1660167284
17,16,7,Jits_ISO_8,93,9999,9999,9999,1660968060
17,16,7,Jits_ISO_8,94,9999,9999,9999,1661767796
17,16,7,Jits_ISO_8,95,9999,9999,9999,1662567532
17,16,7,Jits_ISO_8,96,9999,9999,9999,1663367272
17,16,7,Jits_ISO_8,97,9999,9999,9999,1664168056
17,16,7,Jits_ISO_8,98,9999,9999,9999,1664967748
17,16,7,Jits_ISO_8,99,9999,9999,9999,1665767488
17,16,7,Jits_ISO_8,100,9999,9999,9999,1666567288
17,16,7,Jits_ISO_8,101,9999,9999,9999,1667367996
17,16,7,Jits_ISO_8,102,9999,9999,9999,1668167800
17,16,7,Jits_ISO_8,103,9999,9999,9999,1668967532
17,16,7,Jits_ISO_8,104,9999,9999,9999,1669767260
17,16,7,Jits_ISO_8,105,9999,9999,9999,1670568048
17,16,7,Jits_ISO_8,106,9999,9999,9999,1671367800
17,16,7,Jits_ISO_8,107,9999,9999,9999,1672167520
17,16,7,Jits_ISO_8,108,9999,9999,9999,1672967260
17,16,7,Jits_ISO_8,109,9999,9999,9999,1673768036
17,16,7,Jits_ISO_8,110,9999,9999,9999,1674567788
17,16,7,Jits_ISO_8,111,9999,9999,9999,1675367528
17,16,7,Jits_ISO_8,112,9999,9999,9999,1676167276
17,16,7,Jits_ISO_8,113,9999,9999,9999,1676968000
17,16,7,Jits_ISO_8,114,9999,9999,9999,1677767772
17,16,7,Jits_ISO_8,115,9999,9999,9999,1678567508
17,16,7,Jits_ISO_8,116,9999,9999,9999,1679367264
17,16,7,Jits_ISO_8,117,9999,9999,9999,1680167992
17,16,7,Jits_ISO_8,118,9999,9999,9999,1680967744
17,16,7,Jits_ISO_8,119,9999,9999,9999,1681767484
17,17,17,Jits_Phase_5,0,5,56,103,1702484596
17,17,17,Jits_Phase_5,1,5,63,98,1702487696
17,17,17,Jits_Phase_5,2,5,80,127,1702490736
17,17,17,Jits_Phase_5,0,5,56,103,1702983992
17,17,17,Jits_Phase_5,1,5,63,98,1702987164
17,17,17,Jits_Phase_5,2,5,80,127,1702990208
17,17,17,Jits_Phase_5,0,5,56,103,1703483860
17,17,17,Jits_Phase_5,1,5,80,127,1703493964
17,17,17,Jits_Phase_5,2,5,63,98,1703513564
17,17,17,Jits_Phase_5,0,5,63,98,1703934288
17,17,17,Jits_Phase_5,1,5,80,127,1703964060
17,17,17,Jits_Phase_5,2,5,56,103,1703974388
17,17,17,Jits_Phase_5,3,1,48,30,1704077788
17,17,17,Jits_Phase_5,0,5,80,127,1704493728
17,17,17,Jits_Phase_5,1,5,56,103,1704503612
17,17,17,Jits_Phase_5,2,1,48,30,1704516148
17,17,17,Jits_Phase_5,3,5,63,98,1704534496
17,17,17,Jits_Phase_5,0,5,63,98,1704983932
17,17,17,Jits_Phase_5,1,1,48,40,1704996544
17,17,17,Jits_Phase_5,2,5,56,103,1705013476
17,17,17,Jits_Phase_5,3,5,80,127,1705023952
17,17,17,Jits_Phase_5,0,5,56,103,1705433656
17,17,17,Jits_Phase_5,1,5,63,98,1705483624
17,17,17,Jits_Phase_5,2,1,48,40,1705499224
17,17,17,Jits_Phase_5,3,5,80,127,1705504044
17,17,17,Jits_Phase_5,0,5,80,127,1705934472
17,17,17,Jits_Phase_5,1,1,48,39,1705962804
17,17,17,Jits_Phase_5,2,5,63,98,1705984660
17,17,17,Jits_Phase_5,3,5,56,103,1706024456
17,17,17,Jits_Phase_5,0,5,56,103,1706434024
17,17,17,Jits_Phase_5,1,5,63,98,1706463576
17,17,17,Jits_Phase_5,2,1,48,40,1706482848
17,17,17,Jits_Phase_5,3,5,80,127,1706534468
17,17,17,Jits_Phase_5,0,5,56,103,1706933696
17,17,17,Jits_Phase_5,1,1,48,44,1706961584
17,17,17,Jits_Phase_5,2,5,80,127,1706994004
17,17,17,Jits_Phase_5,3,5,63,98,1707023704
17,17,17,Jits_Phase_5,0,1,48,40,1707443348
17,17,17,Jits_Phase_5,1,5,56,103,1707444980
17,17,17,Jits_Phase_5,2,5,63,98,1707453768
17,17,17,Jits_Phase_5,3,5,80,127,1707493788
17,17,17,Jits_Phase_5,0,5,63,98,1707934052
17,17,17,Jits_Phase_5,1,1,48,38,1707965464
17,17,17,Jits_Phase_5,2,5,80,127,1708014028
17,17,17,Jits_Phase_5,3,5,56,103,1708024428
17,17,17,Jits_Phase_5,0,5,63,98,1708484096
17,17,17,Jits_Phase_5,1,1,48,40,1708485580
17,17,17,Jits_Phase_5,2,5,56,103,1708523812
17,17,17,Jits_Phase_5,3,5,80,127,1708526796
17,17,17,Jits_Phase_5,0,5,56,103,1708943660
17,17,17,Jits_Phase_5,1,5,63,98,1708953912
17,17,17,Jits_Phase_5,2,5,80,127,1708993956
17,17,17,Jits_Phase_5,3,1,48,40,1709022952
17,17,17,Jits_Phase_5,0,5,56,103,1709434532
17,17,17,Jits_Phase_5,1,5,63,98,1709437512
17,17,17,Jits_Phase_5,2,5,80,127,1709453680
17,17,17,Jits_Phase_5,3,1,48,33,1709475344
17,17,17,Jits_Phase_5,0,5,80,127,1709944236
17,17,17,Jits_Phase_5,1,1,48,38,1709951828
17,17,17,Jits_Phase_5,2,5,56,103,1709954556
17,17,17,Jits_Phase_5,3,5,63,98,1710024292
17,17,17,Jits_Phase_5,0,5,63,98,1710433540
17,17,17,Jits_Phase_5,1,5,56,103,1710454264
17,17,17,Jits_Phase_5,2,1,48,35,1710476300
17,17,17,Jits_Phase_5,3,5,80,127,1710534084
17,17,17,Jits_Phase_5,0,1,48,32,1710934312
17,17,17,Jits_Phase_5,1,5,56,103,1710943464
17,17,17,Jits_Phase_5,2,5,80,127,1710983408
17,17,17,Jits_Phase_5,3,5,63,98,1710993660
17,17,17,Jits_Phase_5,0,1,48,32,1711440716
17,17,17,Jits_Phase_5,1,5,80,127,1711444340
17,17,17,Jits_Phase_5,2,5,63,98,1711474116
17,17,17,Jits_Phase_5,3,5,56,103,1711513984
17,17,17,Jits_Phase_5,0,1,48,36,1711933304
17,17,17,Jits_Phase_5,1,5,56,103,1711963544
17,17,17,Jits_Phase_5,2,5,63,98,1711994140
17,17,17,Jits_Phase_5,3,5,80,127,1712044392
17,17,17,Jits_Phase_5,0,1,48,36,1712437172
17,17,17,Jits_Phase_5,1,5,80,127,1712464132
17,17,17,Jits_Phase_5,2,5,56,103,1712504376
17,17,17,Jits_Phase_5,3,5,63,98,1712514628
17,17,17,Jits_Phase_5,0,1,48,34,1712943404
17,17,17,Jits_Phase_5,1,5,80,127,1712945112
17,17,17,Jits_Phase_5,2,5,63,98,1712984388
17,17,17,Jits_Phase_5,3,5,56,103,1713043688
17,17,17,Jits_Phase_5,0,5,56,103,1713444136
17,17,17,Jits_Phase_5,1,5,80,127,1713453568
17,17,17,Jits_Phase_5,2,1,48,32,1713469312
17,17,17,Jits_Phase_5,3,5,63,98,1713534260
17,17,17,Jits_Phase_5,0,1,48,34,1713935268
17,17,17,Jits_Phase_5,1,5,80,127,1713943900
17,17,17,Jits_Phase_5,2,5,63,98,1714004188
17,17,17,Jits_Phase_5,3,5,56,103,1714034244
17,17,17,Jits_Phase_5,0,5,56,103,1714443592
17,17,17,Jits_Phase_5,1,1,48,36,1714448272
17,17,17,Jits_Phase_5,2,5,80,127,1714504172
17,17,17,Jits_Phase_5,3,5,63,98,1714544116
17,17,17,Jits_Phase_5,0,1,48,26,1714973404
17,17,17,Jits_Phase_5,1,5,56,103,1714993472
17,17,17,Jits_Phase_5,2,5,63,98,1715003872
17,17,17,Jits_Phase_5,3,5,80,127,1715007232
17,17,17,Jits_Phase_5,0,5,80,127,1715444240
17,17,17,Jits_Phase_5,1,1,48,29,1715474280
17,17,17,Jits_Phase_5,2,5,63,98,1715534288
17,17,17,Jits_Phase_5,3,5,56,103,1715544396
17,17,17,Jits_Phase_5,0,5,56,103,1715943928
17,17,17,Jits_Phase_5,1,5,63,98,1715946868
17,17,17,Jits_Phase_5,2,5,80,127,1715949988
17,17,17,Jits_Phase_5,3,1,48,38,1715996336
17,17,17,Jits_Phase_5,0,1,48,43,1716456076
17,17,17,Jits_Phase_5,1,5,80,127,1716463956
17,17,17,Jits_Phase_5,2,5,63,98,1716514224
17,17,17,Jits_Phase_5,3,5,56,103,1716543996
17,17,17,Jits_Phase_5,0,5,56,103,1716944128
17,17,17,Jits_Phase_5,1,5,80,127,1716953484
17,17,17,Jits_Phase_5,2,1,48,40,1716995788
17,17,17,Jits_Phase_5,3,5,63,98,1717024012
17,17,17,Jits_Phase_5,0,5,56,103,1717454148
17,17,17,Jits_Phase_5,1,1,48,38,1717458232
17,17,17,Jits_Phase_5,2,5,63,98,1717473816
17,17,17,Jits_Phase_5,3,5,80,127,1717534028
17,17,17,Jits_Phase_5,0,1,48,39,1717924024
17,17,17,Jits_Phase_5,1,5,80,127,1717933324
17,17,17,Jits_Phase_5,2,5,63,98,1718004032
17,17,17,Jits_Phase_5,3,5,56,103,1718023620
17,17,17,Jits_Phase_5,0,5,80,127,1718453584
17,17,17,Jits_Phase_5,1,5,56,103,1718463788
17,17,17,Jits_Phase_5,2,5,63,98,1718474188
17,17,17,Jits_Phase_5,3,1,48,30,1718518656
17,17,17,Jits_Phase_5,0,1,48,37,1718937160
17,17,17,Jits_Phase_5,1,5,80,127,1718944072
17,17,17,Jits_Phase_5,2,5,56,103,1718963748
17,17,17,Jits_Phase_5,3,5,63,98,1719034216
17,17,17,Jits_Phase_5,0,5,56,103,1719454012
17,17,17,Jits_Phase_5,1,1,48,35,1719474408
17,17,17,Jits_Phase_5,2,5,80,127,1719484100
17,17,17,Jits_Phase_5,3,5,63,98,1719504228
17,17,17,Jits_Phase_5,0,5,63,98,1719943388
17,17,17,Jits_Phase_5,1,1,48,34,1719948520
17,17,17,Jits_Phase_5,2,5,56,103,1720003844
17,17,17,Jits_Phase_5,3,5,80,127,1720033764
17,17,17,Jits_Phase_5,0,5,63,98,1720434020
17,17,17,Jits_Phase_5,1,5,80,127,1720437228
17,17,17,Jits_Phase_5,2,1,48,31,1720454564
17,17,17,Jits_Phase_5,3,5,56,103,1720524088
17,17,17,Jits_Phase_5,0,1,48,28,1720914436
17,17,17,Jits_Phase_5,1,5,56,103,1720954324
17,17,17,Jits_Phase_5,2,5,63,98,1720983804
17,17,17,Jits_Phase_5,3,5,80,127,1721023908
17,17,17,Jits_Phase_5,0,1,48,31,1721422128
17,17,17,Jits_Phase_5,1,5,63,98,1721453860
17,17,17,Jits_Phase_5,2,5,56,103,1721493880
17,17,17,Jits_Phase_5,3,5,80,127,1721514216
17,17,17,Jits_Phase_5,0,1,48,28,1721922112
17,17,17,Jits_Phase_5,1,5,63,98,1721963868
17,17,17,Jits_Phase_5,2,5,56,103,1722003812
17,17,17,Jits_Phase_5,3,5,80,127,1722013992
17,17,17,Jits_Phase_5,0,1,48,37,1722428740
17,17,17,Jits_Phase_5,1,5,80,127,1722444252
17,17,17,Jits_Phase_5,2,5,63,98,1722513816
17,17,17,Jits_Phase_5,3,5,56,103,1722534224
17,17,17,Jits_Phase_5,0,5,56,103,1722933772
17,17,17,Jits_Phase_5,1,5,80,127,1722953976
17,17,17,Jits_Phase_5,2,1,48,38,1722982452
17,17,17,Jits_Phase_5,3,5,63,98,1722993988
17,17,17,Jits_Phase_5,0,1,48,32,1723441676
17,17,17,Jits_Phase_5,1,5,63,98,1723443484
17,17,17,Jits_Phase_5,2,5,80,127,1723464060
17,17,17,Jits_Phase_5,3,5,56,103,1723503928
17,17,17,Jits_Phase_5,0,1,48,35,1723935732
17,17,17,Jits_Phase_5,1,5,63,98,1723944288
17,17,17,Jits_Phase_5,2,5,56,103,1723963740
17,17,17,Jits_Phase_5,3,5,80,127,1723973996
17,17,17,Jits_Phase_5,0,1,48,34,1724433772
17,17,17,Jits_Phase_5,1,5,80,127,1724444044
17,17,17,Jits_Phase_5,2,5,56,103,1724463720
17,17,17,Jits_Phase_5,3,5,63,98,1724494168
17,17,17,Jits_Phase_5,0,1,48,32,1724925300
17,17,17,Jits_Phase_5,1,5,56,103,1725014628
17,17,17,Jits_Phase_5,2,5,80,127,1725017544
17,17,17,Jits_Phase_5,3,5,63,98,1725033772
17,17,17,Jits_Phase_5,0,5,63,98,1725434364
17,17,17,Jits_Phase_5,1,5,56,103,1725463988
17,17,17,Jits_Phase_5,2,1,48,36,1725473992
17,17,17,Jits_Phase_5,3,5,80,127,1725524416
17,17,17,Jits_Phase_5,0,1,48,29,1725977920
17,17,17,Jits_Phase_5,1,5,63,98,1726013700
17,17,17,Jits_Phase_5,2,5,56,103,1726024176
17,17,17,Jits_Phase_5,3,5,80,127,1726034428
17,17,17,Jits_Phase_5,0,5,56,103,1726473460
17,17,17,Jits_Phase_5,1,1,48,36,1726477988
17,17,17,Jits_Phase_5,2,5,80,127,1726504568
17,17,17,Jits_Phase_5,3,5,63,98,1726513556
17,17,17,Jits_Phase_5,0,1,48,32,1726951272
17,17,17,Jits_Phase_5,1,5,63,98,1727014360
17,17,17,Jits_Phase_5,2,5,56,103,1727023568
17,17,17,Jits_Phase_5,3,5,80,127,1727043844
17,17,17,Jits_Phase_5,0,5,56,103,1727444496
17,17,17,Jits_Phase_5,1,1,48,21,1727502672
17,17,17,Jits_Phase_5,2,5,63,98,1727504568
17,17,17,Jits_Phase_5,3,5,80,127,1727507692
17,17,17,Jits_Phase_5,0,5,80,127,1727963632
17,17,17,Jits_Phase_5,1,1,48,40,1727964968
17,17,17,Jits_Phase_5,2,5,56,103,1727973732
17,17,17,Jits_Phase_5,3,5,63,98,1728044488
17,17,17,Jits_Phase_5,0,5,80,127,1728454356
17,17,17,Jits_Phase_5,1,1,48,26,1728482164
17,17,17,Jits_Phase_5,2,5,56,103,1728523692
17,17,17,Jits_Phase_5,3,5,63,98,1728533948
17,17,17,Jits_Phase_5,0,1,48,24,1728965920
17,17,17,Jits_Phase_5,1,5,63,98,1728993700
17,17,17,Jits_Phase_5,2,5,56,103,1729003804
17,17,17,Jits_Phase_5,3,5,80,127,1729024524
17,17,17,Jits_Phase_5,0,1,48,42,1729432304
17,17,17,Jits_Phase_5,1,5,80,127,1729444364
17,17,17,Jits_Phase_5,2,5,63,98,1729503632
17,17,17,Jits_Phase_5,3,5,56,103,1729543488
17,17,17,Jits_Phase_5,0,1,48,38,1729980544
17,17,17,Jits_Phase_5,1,5,56,103,1729983720
17,17,17,Jits_Phase_5,2,5,63,98,1729994344
17,17,17,Jits_Phase_5,3,5,80,127,1730034288
17,17,17,Jits_Phase_5,0,5,56,103,1730443672
17,17,17,Jits_Phase_5,1,1,48,37,1730474492
17,17,17,Jits_Phase_5,2,5,80,127,1730475972
17,17,17,Jits_Phase_5,3,5,63,98,1730523432
17,17,17,Jits_Phase_5,0,1,48,27,1730936224
17,17,17,Jits_Phase_5,1,5,56,103,1730984416
17,17,17,Jits_Phase_5,2,5,63,98,1731024164
17,17,17,Jits_Phase_5,3,5,80,127,1731027668
17,17,17,Jits_Phase_5,0,1,48,21,1731450328
17,17,17,Jits_Phase_5,1,5,56,103,1731484096
17,17,17,Jits_Phase_5,2,5,63,98,1731494420
17,17,17,Jits_Phase_5,3,5,80,127,1731513728
17,17,17,Jits_Phase_5,0,5,56,103,1731943844
17,17,17,Jits_Phase_5,1,1,48,28,1731947128
17,17,17,Jits_Phase_5,2,5,80,127,1731948620
17,17,17,Jits_Phase_5,3,5,63,98,1731983708
17,17,17,Jits_Phase_5,0,1,48,33,1732420904
17,17,17,Jits_Phase_5,1,5,63,98,1732483464
17,17,17,Jits_Phase_5,2,5,56,103,1732514432
17,17,17,Jits_Phase_5,3,5,80,127,1732533720
17,17,17,Jits_Phase_5,0,1,48,36,1732949236
17,17,17,Jits_Phase_5,1,5,80,127,1732953380
17,17,17,Jits_Phase_5,2,5,56,103,1732963708
17,17,17,Jits_Phase_5,3,5,63,98,1732974188
17,17,17,Jits_Phase_5,0,1,48,35,1733446224
17,17,17,Jits_Phase_5,1,5,56,103,1733454480
17,17,17,Jits_Phase_5,2,5,80,127,1733494348
17,17,17,Jits_Phase_5,3,5,63,98,1733523824
17,17,17,Jits_Phase_5,0,1,48,34,1733934768
17,17,17,Jits_Phase_5,1,5,63,98,1733964260
17,17,17,Jits_Phase_5,2,5,80,127,1733974292
17,17,17,Jits_Phase_5,3,5,56,103,1733983576
17,17,17,Jits_Phase_5,0,1,48,41,1734443652
17,17,17,Jits_Phase_5,1,5,56,103,1734453476
17,17,17,Jits_Phase_5,2,5,63,98,1734524308
17,17,17,Jits_Phase_5,3,5,80,127,1734533588
17,17,17,Jits_Phase_5,0,1,48,35,1734955672
17,17,17,Jits_Phase_5,1,5,80,127,1734963628
17,17,17,Jits_Phase_5,2,5,56,103,1734973884
17,17,17,Jits_Phase_5,3,5,63,98,1735024220
17,17,17,Jits_Phase_5,0,1,48,36,1735466720
17,17,17,Jits_Phase_5,1,5,80,127,1735473560
17,17,17,Jits_Phase_5,2,5,56,103,1735533996
17,17,17,Jits_Phase_5,3,5,63,98,1735564872
17,17,17,Jits_Phase_5,0,5,56,103,1735974220
17,17,17,Jits_Phase_5,1,5,80,127,1735977280
17,17,17,Jits_Phase_5,2,1,48,32,1736003964
17,17,17,Jits_Phase_5,3,5,63,98,1736014232
17,17,17,Jits_Phase_5,0,1,48,27,1736476268
17,17,17,Jits_Phase_5,1,5,56,103,1736503596
17,17,17,Jits_Phase_5,2,5,63,98,1736534344
17,17,17,Jits_Phase_5,3,5,80,127,1736543480
17,17,17,Jits_Phase_5,0,1,48,33,1736959128
17,17,17,Jits_Phase_5,1,5,63,98,1737013536
17,17,17,Jits_Phase_5,2,5,80,127,1737023788
17,17,17,Jits_Phase_5,3,5,56,103,1737033968
17,17,17,Jits_Phase_5,0,5,80,127,1737464232
17,17,17,Jits_Phase_5,1,5,56,103,1737514196
17,17,17,Jits_Phase_5,2,5,63,98,1737517264
17,17,17,Jits_Phase_5,3,1,48,33,1737519272
17,17,17,Jits_Phase_5,0,5,56,103,1737993692
17,17,17,Jits_Phase_5,1,1,48,32,1738010260
17,17,17,Jits_Phase_5,2,5,80,127,1738013960
17,17,17,Jits_Phase_5,3,5,63,98,1738024360
17,17,17,Jits_Phase_5,0,1,48,36,1738472356
17,17,17,Jits_Phase_5,1,5,63,98,1738474084
17,17,17,Jits_Phase_5,2,5,56,103,1738503488
17,17,17,Jits_Phase_5,3,5,80,127,1738524132
17,17,17,Jits_Phase_5,0,1,48,35,1738971952
17,17,17,Jits_Phase_5,1,5,56,103,1738983864
17,17,17,Jits_Phase_5,2,5,80,127,1738993896
17,17,17,Jits_Phase_5,3,5,63,98,1739063604
17,17,17,Jits_Phase_5,0,5,63,98,1739474284
17,17,17,Jits_Phase_5,1,1,48,26,1739507916
17,17,17,Jits_Phase_5,2,5,80,127,1739514296
17,17,17,Jits_Phase_5,3,5,56,103,1739554240
17,17,17,Jits_Phase_5,0,1,48,45,1739982776
17,17,17,Jits_Phase_5,1,5,56,103,1739984652
17,17,17,Jits_Phase_5,2,5,63,98,1739993640
17,17,17,Jits_Phase_5,3,5,80,127,1740013988
17,17,17,Jits_Phase_5,0,1,48,43,1740484164
17,17,17,Jits_Phase_5,1,5,63,98,1740523832
17,17,17,Jits_Phase_5,2,5,80,127,1740544328
17,17,17,Jits_Phase_5,3,5,56,103,1740563708
17,17,17,Jits_Phase_5,0,5,56,103,1740964260
17,17,17,Jits_Phase_5,1,1,48,35,1740973220
17,17,17,Jits_Phase_5,2,5,80,127,1741044016
17,17,17,Jits_Phase_5,3,5,63,98,1741054416
17,17,17,Jits_Phase_5,0,1,48,40,1741494216
17,17,17,Jits_Phase_5,1,5,80,127,1741503840
17,17,17,Jits_Phase_5,2,5,63,98,1741514168
17,17,17,Jits_Phase_5,3,5,56,103,1741543868
17,17,17,Jits_Phase_5,0,5,63,98,1741963792
17,17,17,Jits_Phase_5,1,1,48,30,1741979916
17,17,17,Jits_Phase_5,2,5,80,127,1742003808
17,17,17,Jits_Phase_5,3,5,56,103,1742063968
17,17,17,Jits_Phase_5,0,1,48,32,1742460660
17,17,17,Jits_Phase_5,1,5,63,98,1742473708
17,17,17,Jits_Phase_5,2,5,56,103,1742523852
17,17,17,Jits_Phase_5,3,5,80,127,1742553400
17,17,17,Jits_Phase_5,0,1,48,13,1742929756
17,17,17,Jits_Phase_5,1,5,80,127,1742974216
17,17,17,Jits_Phase_5,2,5,63,98,1742983648
17,17,17,Jits_Phase_5,3,5,56,103,1743054040
17,17,17,Jits_Phase_5,0,5,80,127,1743533596
17,17,17,Jits_Phase_5,1,5,56,103,1743543924
17,17,17,Jits_Phase_5,2,5,63,98,1743546984
17,17,17,Jits_Phase_5,3,1,48,28,1743562080
17,17,17,Jits_Phase_5,0,5,56,103,1743973732
17,17,17,Jits_Phase_5,1,5,80,127,1743994156
17,17,17,Jits_Phase_5,2,1,48,33,1744003368
17,17,17,Jits_Phase_5,3,5,63,98,1744004996
17,17,17,Jits_Phase_5,0,1,48,22,1744456796
17,17,17,Jits_Phase_5,1,5,63,98,1744483676
17,17,17,Jits_Phase_5,2,5,56,103,1744523768
17,17,17,Jits_Phase_5,3,5,80,127,1744544268
17,17,17,Jits_Phase_5,0,5,63,98,1744984788
17,17,17,Jits_Phase_5,1,1,48,32,1745018196
17,17,17,Jits_Phase_5,2,5,56,103,1745043800
17,17,17,Jits_Phase_5,3,5,80,127,1745046936
17,17,17,Jits_Phase_5,0,5,56,103,1745444156
17,17,17,Jits_Phase_5,1,5,80,127,1745463684
17,17,17,Jits_Phase_5,2,1,48,22,1745469336
17,17,17,Jits_Phase_5,3,5,63,98,1745503548
17,17,17,Jits_Phase_5,0,1,48,33,1745968868
17,17,17,Jits_Phase_5,1,5,56,103,1745973616
17,17,17,Jits_Phase_5,2,5,63,98,1745993964
17,17,17,Jits_Phase_5,3,5,80,127,1746004440
17,17,17,Jits_Phase_5,0,5,80,127,1746443684
17,17,17,Jits_Phase_5,1,1,48,19,1746448964
17,17,17,Jits_Phase_5,2,5,56,103,1746474496
17,17,17,Jits_Phase_5,3,5,63,98,1746514512
17,17,17,Jits_Phase_5,0,5,80,127,1746953552
17,17,17,Jits_Phase_5,1,5,56,103,1746974052
17,17,17,Jits_Phase_5,2,1,48,42,1746985996
17,17,17,Jits_Phase_5,3,5,63,98,1747033656
17,17,17,Jits_Phase_5,0,1,48,28,1747414328
17,17,17,Jits_Phase_5,1,5,56,103,1747463492
17,17,17,Jits_Phase_5,2,5,80,127,1747484068
17,17,17,Jits_Phase_5,3,5,63,98,1747544412
17,17,17,Jits_Phase_5,0,5,80,127,1747943884
17,17,17,Jits_Phase_5,1,1,48,26,1747945444
17,17,17,Jits_Phase_5,2,5,56,103,1747953984
17,17,17,Jits_Phase_5,3,5,63,98,1747993928
17,17,17,Jits_Phase_5,0,5,63,98,1748443508
17,17,17,Jits_Phase_5,1,1,48,19,1748458516
17,17,17,Jits_Phase_5,2,5,56,103,1748483372
17,17,17,Jits_Phase_5,3,5,80,127,1748486508
17,17,17,Jits_Phase_5,0,5,63,98,1748963676
17,17,17,Jits_Phase_5,1,1,48,27,1748981364
17,17,17,Jits_Phase_5,2,5,80,127,1749003616
17,17,17,Jits_Phase_5,3,5,56,103,1749034508
17,17,17,Jits_Phase_5,0,5,56,103,1749454308
17,17,17,Jits_Phase_5,1,5,63,98,1749464488
17,17,17,Jits_Phase_5,2,1,48,37,1749467384
17,17,17,Jits_Phase_5,3,5,80,127,1749494328
17,17,17,Jits_Phase_5,0,5,80,127,1749943660
17,17,17,Jits_Phase_5,1,1,48,49,1749959064
17,17,17,Jits_Phase_5,2,5,63,98,1750014584
17,17,17,Jits_Phase_5,3,5,56,103,1750023572
17,17,17,Jits_Phase_5,0,1,48,34,1750413340
17,17,17,Jits_Phase_5,1,5,63,98,1750444472
17,17,17,Jits_Phase_5,2,5,56,103,1750513900
17,17,17,Jits_Phase_5,3,5,80,127,1750524524
17,17,17,Jits_Phase_5,0,5,63,98,1750923748
17,17,17,Jits_Phase_5,1,5,56,103,1750944320
17,17,17,Jits_Phase_5,2,5,80,127,1750984140
17,17,17,Jits_Phase_5,3,1,48,16,1751018516
17,17,17,Jits_Phase_5,0,5,56,103,1751414236
17,17,17,Jits_Phase_5,1,5,63,98,1751424416
17,17,17,Jits_Phase_5,2,5,80,127,1751504392
17,17,17,Jits_Phase_5,3,1,48,36,1751561736
17,17,17,Jits_Phase_5,0,5,63,98,1751903612
17,17,17,Jits_Phase_5,1,5,56,103,1751934284
17,17,17,Jits_Phase_5,2,5,80,127,1751974228
17,17,17,Jits_Phase_5,0,1,48,17,1752269616
17,17,17,Jits_Phase_5,1,5,56,103,1752404264
17,17,17,Jits_Phase_5,2,5,63,98,1752444432
17,17,17,Jits_Phase_5,3,5,80,127,1752484452
17,17,17,Jits_Phase_5,0,5,80,127,1752904116
17,17,17,Jits_Phase_5,1,1,48,26,1752912696
17,17,17,Jits_Phase_5,2,5,56,103,1752984068
17,17,17,Jits_Phase_5,3,5,63,98,1752994320
17,17,17,Jits_Phase_5,0,5,56,103,1753443680
17,17,17,Jits_Phase_5,1,5,63,98,1753446668
17,17,17,Jits_Phase_5,2,5,80,127,1753454232
17,17,17,Jits_Phase_5,3,1,48,33,1753467068
17,17,17,Jits_Phase_5,0,1,48,23,1753950956
17,17,17,Jits_Phase_5,1,5,56,103,1753964084
17,17,17,Jits_Phase_5,2,5,63,98,1753984432
17,17,17,Jits_Phase_5,3,5,80,127,1753993492
17,17,17,Jits_Phase_5,0,5,63,98,1754423616
17,17,17,Jits_Phase_5,1,5,80,127,1754434168
17,17,17,Jits_Phase_5,2,5,56,103,1754454440
17,17,17,Jits_Phase_5,3,1,48,27,1754493456
17,17,17,Jits_Phase_5,0,5,63,98,1754924344
17,17,17,Jits_Phase_5,1,1,48,32,1754931808
17,17,17,Jits_Phase_5,2,5,56,103,1755004220
17,17,17,Jits_Phase_5,3,5,80,127,1755007356
17,17,17,Jits_Phase_5,0,5,63,98,1755424104
17,17,17,Jits_Phase_5,1,5,56,103,1755443556
17,17,17,Jits_Phase_5,2,1,48,22,1755461096
17,17,17,Jits_Phase_5,3,5,80,127,1755474144
17,17,17,Jits_Phase_5,0,1,48,29,1755918212
17,17,17,Jits_Phase_5,1,5,56,103,1755924076
17,17,17,Jits_Phase_5,2,5,63,98,1755944352
17,17,17,Jits_Phase_5,3,5,80,127,1755953636
17,17,17,Jits_Phase_5,0,1,48,39,1756398904
17,17,17,Jits_Phase_5,1,5,56,103,1756454204
17,17,17,Jits_Phase_5,2,5,63,98,1756483904
17,17,17,Jits_Phase_5,3,5,80,127,1756487336
17,17,17,Jits_Phase_5,0,5,56,103,1756904000
17,17,17,Jits_Phase_5,1,5,63,98,1756943648
17,17,17,Jits_Phase_5,2,1,48,26,1756944612
17,17,17,Jits_Phase_5,3,5,80,127,1757004300
17,17,17,Jits_Phase_5,0,5,56,103,1757423968
17,17,17,Jits_Phase_5,1,1,48,16,1757434000
17,17,17,Jits_Phase_5,2,5,63,98,1757435560
17,17,17,Jits_Phase_5,3,1,38,8,1757447428
17,17,17,Jits_Phase_5,4,5,80,127,1757493600
17,17,17,Jits_Phase_5,0,5,56,103,1757923780
17,17,17,Jits_Phase_5,1,5,80,127,1757944056
17,17,17,Jits_Phase_5,2,1,48,15,1757946792
17,17,17,Jits_Phase_5,3,5,63,98,1757973824
17,17,17,Jits_Phase_5,0,1,48,39,1758414472
17,17,17,Jits_Phase_5,1,5,80,127,1758424296
17,17,17,Jits_Phase_5,2,5,56,103,1758433728
17,17,17,Jits_Phase_5,3,5,63,98,1758454004
17,17,17,Jits_Phase_5,0,5,63,98,1758914036
17,17,17,Jits_Phase_5,1,1,48,32,1758931504
17,17,17,Jits_Phase_5,2,5,80,127,1758993912
17,17,17,Jits_Phase_5,3,5,56,103,1759003944
17,17,17,Jits_Phase_5,0,1,48,21,1759459160
17,17,17,Jits_Phase_5,1,5,80,127,1759503772
17,17,17,Jits_Phase_5,2,5,56,103,1759524196
17,17,17,Jits_Phase_5,3,5,63,98,1759527552
17,17,17,Jits_Phase_5,0,1,48,38,1759971944
17,17,17,Jits_Phase_5,1,5,63,98,1759994248
17,17,17,Jits_Phase_5,2,5,80,127,1759997828
17,17,17,Jits_Phase_5,3,5,56,103,1760053564
17,17,17,Jits_Phase_5,0,5,56,103,1760473592
17,17,17,Jits_Phase_5,1,5,80,127,1760483848
17,17,17,Jits_Phase_5,2,1,48,14,1760499076
17,17,17,Jits_Phase_5,3,5,63,98,1760523708
17,17,17,Jits_Phase_5,0,5,56,103,1760953920
17,17,17,Jits_Phase_5,1,1,48,27,1760963248
17,17,17,Jits_Phase_5,2,5,63,98,1761014056
17,17,17,Jits_Phase_5,3,5,80,127,1761024308
17,17,17,Jits_Phase_5,0,5,63,98,1761463768
17,17,17,Jits_Phase_5,1,1,48,19,1761465848
17,17,17,Jits_Phase_5,2,5,80,127,1761503704
17,17,17,Jits_Phase_5,3,5,56,103,1761543648
17,17,17,Jits_Phase_5,0,5,56,103,1761964400
17,17,17,Jits_Phase_5,1,1,48,26,1761997600
17,17,17,Jits_Phase_5,2,5,63,98,1762044372
17,17,17,Jits_Phase_5,3,5,80,127,1762047804
17,17,17,Jits_Phase_5,0,1,48,19,1762500724
17,17,17,Jits_Phase_5,1,5,80,127,1762523864
17,17,17,Jits_Phase_5,2,5,56,103,1762554084
17,17,17,Jits_Phase_5,3,5,63,98,1762557148
17,17,17,Jits_Phase_5,0,5,56,103,1762984340
17,17,17,Jits_Phase_5,1,5,80,127,1763003744
17,17,17,Jits_Phase_5,2,1,48,25,1763018000
17,17,17,Jits_Phase_5,3,5,63,98,1763043828
17,17,17,Jits_Phase_5,0,5,80,127,1763463764
17,17,17,Jits_Phase_5,1,5,63,98,1763483892
17,17,17,Jits_Phase_5,2,1,48,36,1763523304
17,17,17,Jits_Phase_5,3,5,56,103,1763544416
17,17,17,Jits_Phase_5,0,1,48,37,1763967164
17,17,17,Jits_Phase_5,1,5,63,98,1763973624
17,17,17,Jits_Phase_5,2,5,56,103,1763983656
17,17,17,Jits_Phase_5,3,5,80,127,1764033868
17,17,17,Jits_Phase_5,0,5,56,103,1764463968
17,17,17,Jits_Phase_5,1,1,48,27,1764469096
17,17,17,Jits_Phase_5,2,5,63,98,1764483712
17,17,17,Jits_Phase_5,3,5,80,127,1764493816
17,17,17,Jits_Phase_5,0,1,48,32,1764951056
17,17,17,Jits_Phase_5,1,5,56,103,1764953556
17,17,17,Jits_Phase_5,2,5,63,98,1764956468
17,17,17,Jits_Phase_5,3,5,80,127,1764973984
17,17,17,Jits_Phase_5,0,1,48,41,1765435404
17,17,17,Jits_Phase_5,1,5,63,98,1765494064
17,17,17,Jits_Phase_5,2,5,56,103,1765523840
17,17,17,Jits_Phase_5,3,5,80,127,1765553452
17,17,17,Jits_Phase_5,0,5,80,127,1765954044
17,17,17,Jits_Phase_5,1,1,48,29,1765986628
17,17,17,Jits_Phase_5,2,5,56,103,1766043944
17,17,17,Jits_Phase_5,3,5,63,98,1766047076
17,17,17,Jits_Phase_5,0,5,56,103,1766453660
17,17,17,Jits_Phase_5,1,5,80,127,1766456792
17,17,17,Jits_Phase_5,2,1,48,36,1766494396
17,17,17,Jits_Phase_5,3,5,63,98,1766533532
17,17,17,Jits_Phase_5,0,5,80,127,1766954392
17,17,17,Jits_Phase_5,1,1,48,13,1766960496
17,17,17,Jits_Phase_5,2,1,48,27,1766964964
17,17,17,Jits_Phase_5,3,5,63,98,1767013684
17,17,17,Jits_Phase_5,4,5,56,103,1767043528
17,17,17,Jits_Phase_5,0,5,63,98,1767454076
17,17,17,Jits_Phase_5,1,5,80,127,1767464552
17,17,17,Jits_Phase_5,2,1,48,22,1767497808
17,17,17,Jits_Phase_5,3,5,56,103,1767533884
17,17,17,Jits_Phase_5,0,1,48,17,1767968232
17,17,17,Jits_Phase_5,1,5,56,103,1768014632
17,17,17,Jits_Phase_5,2,5,80,127,1768043736
17,17,17,Jits_Phase_5,3,5,63,98,1768093912
17,17,17,Jits_Phase_5,0,1,48,27,1768526324
17,17,17,Jits_Phase_5,1,5,63,98,1768603988
17,17,17,Jits_Phase_5,2,5,56,103,1768633696
17,17,17,Jits_Phase_5,3,5,80,127,1768636980
17,17,17,Jits_Phase_5,0,1,48,34,1769053684
17,17,17,Jits_Phase_5,1,5,63,98,1769103816
17,17,17,Jits_Phase_5,2,5,80,127,1769124168
17,17,17,Jits_Phase_5,3,5,56,103,1769133600
17,17,17,Jits_Phase_5,0,1,48,29,1769586048
17,17,17,Jits_Phase_5,1,5,56,103,1769613676
17,17,17,Jits_Phase_5,2,5,63,98,1769616956
17,17,17,Jits_Phase_5,3,5,80,127,1769634100
17,17,17,Jits_Phase_5,0,5,56,103,1770064292
17,17,17,Jits_Phase_5,1,5,63,98,1770073428
17,17,17,Jits_Phase_5,2,1,48,29,1770089628
17,17,17,Jits_Phase_5,3,5,80,127,1770104312
17,17,17,Jits_Phase_5,0,1,48,26,1770566124
17,17,17,Jits_Phase_5,1,5,63,98,1770584548
17,17,17,Jits_Phase_5,2,5,80,127,1770603780
17,17,17,Jits_Phase_5,3,5,56,103,1770643724
17,17,17,Jits_Phase_5,0,1,48,32,1771107392
17,17,17,Jits_Phase_5,1,5,56,103,1771113780
17,17,17,Jits_Phase_5,2,5,63,98,1771153644
17,17,17,Jits_Phase_5,3,5,80,127,1771157232
17,17,17,Jits_Phase_5,0,5,80,127,1771554380
17,17,17,Jits_Phase_5,1,1,48,27,1771560632
17,17,17,Jits_Phase_5,2,5,56,103,1771594248
17,17,17,Jits_Phase_5,3,5,63,98,1771644364
17,17,17,Jits_Phase_5,0,1,48,28,1772097728
17,17,17,Jits_Phase_5,1,5,56,103,1772114432
17,17,17,Jits_Phase_5,2,5,80,127,1772123568
17,17,17,Jits_Phase_5,3,5,63,98,1772154460
17,17,17,Jits_Phase_5,0,5,56,103,1772563720
17,17,17,Jits_Phase_5,1,1,48,27,1772577828
17,17,17,Jits_Phase_5,2,5,80,127,1772603732
17,17,17,Jits_Phase_5,3,5,63,98,1772653924
17,17,17,Jits_Phase_5,0,5,56,103,1773063496
17,17,17,Jits_Phase_5,1,5,80,127,1773103444
17,17,17,Jits_Phase_5,2,1,48,25,1773117848
17,17,17,Jits_Phase_5,3,5,63,98,1773153624
17,17,17,Jits_Phase_5,0,5,80,127,1773554068
17,17,17,Jits_Phase_5,1,1,48,29,1773587776
17,17,17,Jits_Phase_5,2,5,63,98,1773634020
17,17,17,Jits_Phase_5,3,5,56,103,1773644200
17,17,17,Jits_Phase_5,0,5,80,127,1774103888
17,17,17,Jits_Phase_5,1,5,56,103,1774114288
17,17,17,Jits_Phase_5,2,1,48,14,1774120168
17,17,17,Jits_Phase_5,3,1,48,26,1774124712
17,17,17,Jits_Phase_5,4,1,38,9,1774133480
17,17,17,Jits_Phase_5,5,5,63,98,1774135784
17,17,17,Jits_Phase_5,0,5,63,98,1774574128
17,17,17,Jits_Phase_5,1,1,48,15,1774614344
17,17,17,Jits_Phase_5,2,5,56,103,1774643612
17,17,17,Jits_Phase_5,3,5,80,127,1774646748
17,17,17,Jits_Phase_5,0,5,80,127,1775064384
17,17,17,Jits_Phase_5,1,1,48,25,1775079760
17,17,17,Jits_Phase_5,2,5,63,98,1775113600
17,17,17,Jits_Phase_5,3,5,56,103,1775153540
17,17,17,Jits_Phase_5,0,1,48,21,1775575272
17,17,17,Jits_Phase_5,1,5,63,98,1775604316
17,17,17,Jits_Phase_5,2,5,56,103,1775644336
17,17,17,Jits_Phase_5,3,5,80,127,1775654216
17,17,17,Jits_Phase_5,0,1,48,30,1776073316
17,17,17,Jits_Phase_5,1,5,63,98,1776093608
17,17,17,Jits_Phase_5,2,5,56,103,1776114036
17,17,17,Jits_Phase_5,3,5,80,127,1776133488
17,17,17,Jits_Phase_5,0,5,80,127,1776554384
17,17,17,Jits_Phase_5,1,5,56,103,1776563516
17,17,17,Jits_Phase_5,2,1,48,18,1776579140
17,17,17,Jits_Phase_5,3,5,63,98,1776584328
17,17,17,Jits_Phase_5,0,1,48,21,1777063176
17,17,17,Jits_Phase_5,1,5,63,98,1777083640
17,17,17,Jits_Phase_5,2,5,56,103,1777123736
17,17,17,Jits_Phase_5,3,5,80,127,1777155584
17,17,17,Jits_Phase_5,0,5,56,103,1777543520
17,17,17,Jits_Phase_5,1,5,63,98,1777574264
17,17,17,Jits_Phase_5,2,5,80,127,1777603912
17,17,17,Jits_Phase_5,3,1,48,22,1777608896
17,17,17,Jits_Phase_5,0,5,80,127,1777964324
17,17,17,Jits_Phase_5,1,5,56,103,1778033960
17,17,17,Jits_Phase_5,2,5,63,98,1778037020
17,17,17,Jits_Phase_5,3,1,48,16,1778169912
17,17,17,Jits_Phase_5,0,5,56,103,1778474408
17,17,17,Jits_Phase_5,1,5,63,98,1778523480
17,17,17,Jits_Phase_5,2,5,80,127,1778554296
17,17,17,Jits_Phase_5,0,5,63,98,1778953556
17,17,17,Jits_Phase_5,1,5,80,127,1778956840
17,17,17,Jits_Phase_5,2,5,56,103,1779014140
17,17,17,Jits_Phase_5,3,1,48,37,1779118360
17,17,17,Jits_Phase_5,0,5,56,103,1779484044
17,17,17,Jits_Phase_5,1,5,80,127,1779494372
17,17,17,Jits_Phase_5,2,5,63,98,1779544564
17,17,17,Jits_Phase_5,3,1,48,27,1779612076
17,17,17,Jits_Phase_5,0,5,63,98,1779954052
17,17,17,Jits_Phase_5,1,5,56,103,1779964232
17,17,17,Jits_Phase_5,2,5,80,127,1779994076
17,17,17,Jits_Phase_5,3,1,48,30,1780102196
17,17,17,Jits_Phase_5,0,5,63,98,1780483424
17,17,17,Jits_Phase_5,1,5,80,127,1780486708
17,17,17,Jits_Phase_5,2,5,56,103,1780514096
17,17,17,Jits_Phase_5,3,1,48,30,1780594536
17,17,17,Jits_Phase_5,0,5,63,98,1781003892
17,17,17,Jits_Phase_5,1,5,56,103,1781024092
17,17,17,Jits_Phase_5,2,5,80,127,1781027156
17,17,17,Jits_Phase_5,3,1,48,32,1781099220
17,17,17,Jits_Phase_5,0,5,63,98,1781464824
17,17,17,Jits_Phase_5,1,5,56,103,1781534092
17,17,17,Jits_Phase_5,2,5,80,127,1781553472
17,17,17,Jits_Phase_5,3,1,48,23,1781620368
17,17,17,Jits_Phase_5,0,5,56,103,1781953972
17,17,17,Jits_Phase_5,1,5,63,98,1781964080
17,17,17,Jits_Phase_5,2,5,80,127,1782054204
17,17,17,Jits_Phase_5,3,1,48,26,1782129552
17,17,17,Jits_Phase_5,0,5,56,103,1782474164
17,17,17,Jits_Phase_5,1,5,80,127,1782514108
17,17,17,Jits_Phase_5,2,5,63,98,1782524436
17,17,17,Jits_Phase_5,3,1,48,27,1782579452
17,17,17,Jits_Phase_5,0,5,56,103,1782994136
17,17,17,Jits_Phase_5,1,5,63,98,1783023912
17,17,17,Jits_Phase_5,2,1,48,29,1783032044
17,17,17,Jits_Phase_5,3,5,80,127,1783053752
17,17,17,Jits_Phase_5,0,5,80,127,1783453948
17,17,17,Jits_Phase_5,1,1,48,28,1783454912
17,17,17,Jits_Phase_5,2,5,63,98,1783493912
17,17,17,Jits_Phase_5,3,5,56,103,1783513440
17,17,17,Jits_Phase_5,0,1,48,26,1783957572
17,17,17,Jits_Phase_5,1,5,56,103,1783993828
17,17,17,Jits_Phase_5,2,5,80,127,1784014176
17,17,17,Jits_Phase_5,3,5,63,98,1784033852
17,17,17,Jits_Phase_5,0,5,63,98,1784463876
17,17,17,Jits_Phase_5,1,5,56,103,1784473908
17,17,17,Jits_Phase_5,2,1,48,30,1784490328
17,17,17,Jits_Phase_5,3,5,80,127,1784534360
17,17,17,Jits_Phase_5,0,5,56,103,1784963628
17,17,17,Jits_Phase_5,1,1,48,27,1784966960
17,17,17,Jits_Phase_5,2,5,63,98,1785034104
17,17,17,Jits_Phase_5,3,5,80,127,1785053780
17,17,17,Jits_Phase_5,0,1,48,40,1785442584
17,17,17,Jits_Phase_5,1,5,56,103,1785464364
17,17,17,Jits_Phase_5,2,5,63,98,1785493768
17,17,17,Jits_Phase_5,3,5,80,127,1785533872
17,17,17,Jits_Phase_5,0,1,48,38,1785922968
17,17,17,Jits_Phase_5,1,5,63,98,1785953880
17,17,17,Jits_Phase_5,2,5,56,103,1786003924
17,17,17,Jits_Phase_5,3,5,80,127,1786014760
17,17,17,Jits_Phase_5,0,1,48,32,1786463108
17,17,17,Jits_Phase_5,1,5,56,103,1786494248
17,17,17,Jits_Phase_5,2,5,63,98,1786543616
17,17,17,Jits_Phase_5,3,5,80,127,1786553748
17,17,17,Jits_Phase_5,0,1,48,36,1786955172
17,17,17,Jits_Phase_5,1,5,56,103,1786973668
17,17,17,Jits_Phase_5,2,5,63,98,1786983924
17,17,17,Jits_Phase_5,3,5,80,127,1787063664
17,17,17,Jits_Phase_5,0,9999,9999,9999,1702731840
17,17,17,Jits_Phase_5,1,9999,9999,9999,1703231608
17,17,17,Jits_Phase_5,2,9999,9999,9999,1703731328
17,17,17,Jits_Phase_5,3,9999,9999,9999,1704232060
17,17,17,Jits_Phase_5,4,9999,9999,9999,1704731752
17,17,17,Jits_Phase_5,5,9999,9999,9999,1705231456
17,17,17,Jits_Phase_5,6,9999,9999,9999,1705731136
17,17,17,Jits_Phase_5,7,9999,9999,9999,1706231880
17,17,17,Jits_Phase_5,8,9999,9999,9999,1706731580
17,17,17,Jits_Phase_5,9,9999,9999,9999,1707231356
17,17,17,Jits_Phase_5,10,9999,9999,9999,1707732024
17,17,17,Jits_Phase_5,11,9999,9999,9999,1708231784
17,17,17,Jits_Phase_5,12,9999,9999,9999,1708731512
17,17,17,Jits_Phase_5,13,9999,9999,9999,1709231192
17,17,17,Jits_Phase_5,14,9999,9999,9999,1709731920
17,17,17,Jits_Phase_5,15,9999,9999,9999,1710231620
17,17,17,Jits_Phase_5,16,9999,9999,9999,1710731320
17,17,17,Jits_Phase_5,17,9999,9999,9999,1711232120
17,17,17,Jits_Phase_5,18,9999,9999,9999,1711742052
17,17,17,Jits_Phase_5,19,9999,9999,9999,1712241740
17,17,17,Jits_Phase_5,20,9999,9999,9999,1712741500
17,17,17,Jits_Phase_5,21,9999,9999,9999,1713241184
17,17,17,Jits_Phase_5,22,9999,9999,9999,1713741912
17,17,17,Jits_Phase_5,23,9999,9999,9999,1714241612
17,17,17,Jits_Phase_5,24,9999,9999,9999,1714741376
17,17,17,Jits_Phase_5,25,9999,9999,9999,1715242112
17,17,17,Jits_Phase_5,26,9999,9999,9999,1715741800
17,17,17,Jits_Phase_5,27,9999,9999,9999,1716241476
17,17,17,Jits_Phase_5,28,9999,9999,9999,1716741180
17,17,17,Jits_Phase_5,29,9999,9999,9999,1717241980
17,17,17,Jits_Phase_5,30,9999,9999,9999,1717731436
17,17,17,Jits_Phase_5,31,9999,9999,9999,1718231136
17,17,17,Jits_Phase_5,32,9999,9999,9999,1718731864
17,17,17,Jits_Phase_5,33,9999,9999,9999,1719231564
17,17,17,Jits_Phase_5,34,9999,9999,9999,1719731300
17,17,17,Jits_Phase_5,35,9999,9999,9999,1720232040
17,17,17,Jits_Phase_5,36,9999,9999,9999,1720731716
17,17,17,Jits_Phase_5,37,9999,9999,9999,1721231472
17,17,17,Jits_Phase_5,38,9999,9999,9999,1721731156
17,17,17,Jits_Phase_5,39,9999,9999,9999,1722231884
17,17,17,Jits_Phase_5,40,9999,9999,9999,1722731644
17,17,17,Jits_Phase_5,41,9999,9999,9999,1723231324
17,17,17,Jits_Phase_5,42,9999,9999,9999,1723732068
17,17,17,Jits_Phase_5,43,9999,9999,9999,1724231752
17,17,17,Jits_Phase_5,44,9999,9999,9999,1724731508
17,17,17,Jits_Phase_5,45,9999,9999,9999,1725231192
17,17,17,Jits_Phase_5,46,9999,9999,9999,1725731920
17,17,17,Jits_Phase_5,47,9999,9999,9999,1726231612
17,17,17,Jits_Phase_5,48,9999,9999,9999,1726741620
17,17,17,Jits_Phase_5,49,9999,9999,9999,1727241324
17,17,17,Jits_Phase_5,50,9999,9999,9999,1727742044
17,17,17,Jits_Phase_5,51,9999,9999,9999,1728241748
17,17,17,Jits_Phase_5,52,9999,9999,9999,1728741448
17,17,17,Jits_Phase_5,53,9999,9999,9999,1729241152
17,17,17,Jits_Phase_5,54,9999,9999,9999,1729741880
17,17,17,Jits_Phase_5,55,9999,9999,9999,1730241640
17,17,17,Jits_Phase_5,56,9999,9999,9999,1730741304
17,17,17,Jits_Phase_5,57,9999,9999,9999,1731242108
17,17,17,Jits_Phase_5,58,9999,9999,9999,1731741792
17,17,17,Jits_Phase_5,59,9999,9999,9999,1732241464
17,17,17,Jits_Phase_5,60,9999,9999,9999,1732741240
17,17,17,Jits_Phase_5,61,9999,9999,9999,1733241964
17,17,17,Jits_Phase_5,62,9999,9999,9999,1733741648
17,17,17,Jits_Phase_5,63,9999,9999,9999,1734241404
17,17,17,Jits_Phase_5,64,9999,9999,9999,1734761580
17,17,17,Jits_Phase_5,65,9999,9999,9999,1735261264
17,17,17,Jits_Phase_5,66,9999,9999,9999,1735761996
17,17,17,Jits_Phase_5,67,9999,9999,9999,1736261744
17,17,17,Jits_Phase_5,68,9999,9999,9999,1736761448
17,17,17,Jits_Phase_5,69,9999,9999,9999,1737261136
17,17,17,Jits_Phase_5,70,9999,9999,9999,1737761852
17,17,17,Jits_Phase_5,71,9999,9999,9999,1738261628
17,17,17,Jits_Phase_5,72,9999,9999,9999,1738761324
17,17,17,Jits_Phase_5,73,9999,9999,9999,1739262056
17,17,17,Jits_Phase_5,74,9999,9999,9999,1739761744
17,17,17,Jits_Phase_5,75,9999,9999,9999,1740261500
17,17,17,Jits_Phase_5,76,9999,9999,9999,1740761188
17,17,17,Jits_Phase_5,77,9999,9999,9999,1741261916
17,17,17,Jits_Phase_5,78,9999,9999,9999,1741761616
17,17,17,Jits_Phase_5,79,9999,9999,9999,1742261348
17,17,17,Jits_Phase_5,80,9999,9999,9999,1742762072
17,17,17,Jits_Phase_5,81,9999,9999,9999,1743241340
17,17,17,Jits_Phase_5,82,9999,9999,9999,1743742044
17,17,17,Jits_Phase_5,83,9999,9999,9999,1744241744
17,17,17,Jits_Phase_5,84,9999,9999,9999,1744741452
17,17,17,Jits_Phase_5,85,9999,9999,9999,1745241208
17,17,17,Jits_Phase_5,86,9999,9999,9999,1745741932
17,17,17,Jits_Phase_5,87,9999,9999,9999,1746241632
17,17,17,Jits_Phase_5,88,9999,9999,9999,1746741312
17,17,17,Jits_Phase_5,89,9999,9999,9999,1747242056
17,17,17,Jits_Phase_5,90,9999,9999,9999,1747741756
17,17,17,Jits_Phase_5,91,9999,9999,9999,1748241512
17,17,17,Jits_Phase_5,92,9999,9999,9999,1748741200
17,17,17,Jits_Phase_5,93,9999,9999,9999,1749241936
17,17,17,Jits_Phase_5,94,9999,9999,9999,1749741692
17,17,17,Jits_Phase_5,95,9999,9999,9999,1750241392
17,17,17,Jits_Phase_5,96,9999,9999,9999,1750742136
17,17,17,Jits_Phase_5,97,9999,9999,9999,1751201856
17,17,17,Jits_Phase_5,98,9999,9999,9999,1751701620
17,17,17,Jits_Phase_5,99,9999,9999,9999,1752201340
17,17,17,Jits_Phase_5,100,9999,9999,9999,1752702064
17,17,17,Jits_Phase_5,101,9999,9999,9999,1753201748
17,17,17,Jits_Phase_5,102,9999,9999,9999,1753701436
17,17,17,Jits_Phase_5,103,9999,9999,9999,1754201144
17,17,17,Jits_Phase_5,104,9999,9999,9999,1754701944
17,17,17,Jits_Phase_5,105,9999,9999,9999,1755201628
17,17,17,Jits_Phase_5,106,9999,9999,9999,1755701312
17,17,17,Jits_Phase_5,107,9999,9999,9999,1756202044
17,17,17,Jits_Phase_5,108,9999,9999,9999,1756701800
17,17,17,Jits_Phase_5,109,9999,9999,9999,1757201484
17,17,17,Jits_Phase_5,110,9999,9999,9999,1757701220
17,17,17,Jits_Phase_5,111,9999,9999,9999,1758201964
17,17,17,Jits_Phase_5,112,9999,9999,9999,1758701664
17,17,17,Jits_Phase_5,113,9999,9999,9999,1759201348
17,17,17,Jits_Phase_5,114,9999,9999,9999,1759751288
17,17,17,Jits_Phase_5,115,9999,9999,9999,1760252016
17,17,17,Jits_Phase_5,116,9999,9999,9999,1760751704
17,17,17,Jits_Phase_5,117,9999,9999,9999,1761251404
17,17,17,Jits_Phase_5,118,9999,9999,9999,1761751152
17,17,17,Jits_Phase_5,119,9999,9999,9999,1762251876
17,17,17,Jits_Phase_5,120,9999,9999,9999,1762751572
17,17,17,Jits_Phase_5,121,9999,9999,9999,1763251304
17,17,17,Jits_Phase_5,122,9999,9999,9999,1763752040
17,17,17,Jits_Phase_5,123,9999,9999,9999,1764251740
17,17,17,Jits_Phase_5,124,9999,9999,9999,1764751424
17,17,17,Jits_Phase_5,125,9999,9999,9999,1765251184
17,17,17,Jits_Phase_5,126,9999,9999,9999,1765751916
17,17,17,Jits_Phase_5,127,9999,9999,9999,1766251592
17,17,17,Jits_Phase_5,128,9999,9999,9999,1766751356
17,17,17,Jits_Phase_5,129,9999,9999,9999,1767252076
17,17,17,Jits_Phase_5,130,9999,9999,9999,1767751780
17,17,17,Jits_Phase_5,131,9999,9999,9999,1768351832
17,17,17,Jits_Phase_5,132,9999,9999,9999,1768851508
17,17,17,Jits_Phase_5,133,9999,9999,9999,1769351272
17,17,17,Jits_Phase_5,134,9999,9999,9999,1769851996
17,17,17,Jits_Phase_5,135,9999,9999,9999,1770351676
17,17,17,Jits_Phase_5,136,9999,9999,9999,1770851452
17,17,17,Jits_Phase_5,137,9999,9999,9999,1771351132
17,17,17,Jits_Phase_5,138,9999,9999,9999,1771851868
17,17,17,Jits_Phase_5,139,9999,9999,9999,1772351572
17,17,17,Jits_Phase_5,140,9999,9999,9999,1772851256
17,17,17,Jits_Phase_5,141,9999,9999,9999,1773352004
17,17,17,Jits_Phase_5,142,9999,9999,9999,1773851704
17,17,17,Jits_Phase_5,143,9999,9999,9999,1774351416
17,17,17,Jits_Phase_5,144,9999,9999,9999,1774851188
17,17,17,Jits_Phase_5,145,9999,9999,9999,1775351920
17,17,17,Jits_Phase_5,146,9999,9999,9999,1775851624
17,17,17,Jits_Phase_5,147,9999,9999,9999,1776351312
17,17,17,Jits_Phase_5,148,9999,9999,9999,1776852032
17,17,17,Jits_Phase_5,149,9999,9999,9999,1777351736
17,17,17,Jits_Phase_5,150,9999,9999,9999,1777751108
17,17,17,Jits_Phase_5,151,9999,9999,9999,1778251864
17,17,17,Jits_Phase_5,152,9999,9999,9999,1778751572
17,17,17,Jits_Phase_5,153,9999,9999,9999,1779251324
17,17,17,Jits_Phase_5,154,9999,9999,9999,1779752056
17,17,17,Jits_Phase_5,155,9999,9999,9999,1780251752
17,17,17,Jits_Phase_5,156,9999,9999,9999,1780751428
17,17,17,Jits_Phase_5,157,9999,9999,9999,1781251184
17,17,17,Jits_Phase_5,158,9999,9999,9999,1781751916
17,17,17,Jits_Phase_5,159,9999,9999,9999,1782251604
17,17,17,Jits_Phase_5,160,9999,9999,9999,1782751304
17,17,17,Jits_Phase_5,161,9999,9999,9999,1783252056
17,17,17,Jits_Phase_5,162,9999,9999,9999,1783751752
17,17,17,Jits_Phase_5,163,9999,9999,9999,1784251452
17,17,17,Jits_Phase_5,164,9999,9999,9999,1784751184
17,17,17,Jits_Phase_5,165,9999,9999,9999,1785251908
17,17,17,Jits_Phase_5,166,9999,9999,9999,1785751608
17,17,17,Jits_Phase_5,167,9999,9999,9999,1786251368
17,17,17,Jits_Phase_5,168,9999,9999,9999,1786752100
17,17,17,Jits_Phase_5,169,9999,9999,9999,1787262028
17,18,15,Jits_Phase_8,0,5,56,103,1800137104
17,18,15,Jits_Phase_8,1,5,63,98,1800140196
17,18,15,Jits_Phase_8,2,5,80,127,1800143316
17,18,15,Jits_Phase_8,0,5,56,103,1800936980
17,18,15,Jits_Phase_8,1,5,63,98,1800940004
17,18,15,Jits_Phase_8,2,5,80,127,1800943116
17,18,15,Jits_Phase_8,0,5,80,127,1801677108
17,18,15,Jits_Phase_8,1,1,48,35,1801753740
17,18,15,Jits_Phase_8,2,5,63,98,1801767160
17,18,15,Jits_Phase_8,3,5,56,103,1801776444
17,18,15,Jits_Phase_8,0,5,56,103,1802497484
17,18,15,Jits_Phase_8,1,5,63,98,1802506540
17,18,15,Jits_Phase_8,2,1,48,45,1802545932
17,18,15,Jits_Phase_8,3,5,80,127,1802597036
17,18,15,Jits_Phase_8,0,1,48,52,1803236964
17,18,15,Jits_Phase_8,1,5,63,98,1803266536
17,18,15,Jits_Phase_8,2,5,80,127,1803297060
17,18,15,Jits_Phase_8,3,5,56,103,1803326832
17,18,15,Jits_Phase_8,0,1,48,51,1804017900
17,18,15,Jits_Phase_8,1,5,56,103,1804067140
17,18,15,Jits_Phase_8,2,5,80,127,1804166752
17,18,15,Jits_Phase_8,3,5,63,98,1804216748
17,18,15,Jits_Phase_8,0,1,48,52,1804862708
17,18,15,Jits_Phase_8,1,5,56,103,1804867000
17,18,15,Jits_Phase_8,2,5,80,127,1804917120
17,18,15,Jits_Phase_8,3,5,63,98,1804957048
17,18,15,Jits_Phase_8,0,1,48,40,1805657412
17,18,15,Jits_Phase_8,1,5,80,127,1805697376
17,18,15,Jits_Phase_8,2,5,63,98,1805727224
17,18,15,Jits_Phase_8,3,5,56,103,1805796652
17,18,15,Jits_Phase_8,0,1,48,43,1806493768
17,18,15,Jits_Phase_8,1,5,63,98,1806526736
17,18,15,Jits_Phase_8,2,5,56,103,1806556732
17,18,15,Jits_Phase_8,3,5,80,127,1806617008
17,18,15,Jits_Phase_8,0,5,56,103,1807267188
17,18,15,Jits_Phase_8,1,5,80,127,1807270252
17,18,15,Jits_Phase_8,2,1,48,43,1807308104
17,18,15,Jits_Phase_8,3,5,63,98,1807386884
17,18,15,Jits_Phase_8,0,1,48,30,1808071684
17,18,15,Jits_Phase_8,1,5,56,103,1808146736
17,18,15,Jits_Phase_8,2,5,80,127,1808186668
17,18,15,Jits_Phase_8,3,5,63,98,1808196920
17,18,15,Jits_Phase_8,0,5,56,103,1808906592
17,18,15,Jits_Phase_8,1,5,80,127,1808927020
17,18,15,Jits_Phase_8,2,1,48,34,1808941944
17,18,15,Jits_Phase_8,3,5,63,98,1809006896
17,18,15,Jits_Phase_8,0,5,80,127,1809697044
17,18,15,Jits_Phase_8,1,1,48,28,1809724848
17,18,15,Jits_Phase_8,2,5,56,103,1809796596
17,18,15,Jits_Phase_8,3,5,63,98,1809806628
17,18,15,Jits_Phase_8,0,5,63,98,1810467304
17,18,15,Jits_Phase_8,1,5,80,127,1810526624
17,18,15,Jits_Phase_8,2,5,56,103,1810536728
17,18,15,Jits_Phase_8,3,1,48,17,1810572144
17,18,15,Jits_Phase_8,0,5,56,103,1811267012
17,18,15,Jits_Phase_8,1,1,48,29,1811286956
17,18,15,Jits_Phase_8,2,5,63,98,1811336568
17,18,15,Jits_Phase_8,3,5,80,127,1811339856
17,18,15,Jits_Phase_8,0,1,48,46,1812062724
17,18,15,Jits_Phase_8,1,5,63,98,1812097464
17,18,15,Jits_Phase_8,2,5,56,103,1812146532
17,18,15,Jits_Phase_8,3,5,80,127,1812149696
17,18,15,Jits_Phase_8,0,5,56,103,1812857228
17,18,15,Jits_Phase_8,1,5,80,127,1812860440
17,18,15,Jits_Phase_8,2,1,48,53,1812889888
17,18,15,Jits_Phase_8,3,5,63,98,1812947448
17,18,15,Jits_Phase_8,0,1,48,49,1813634700
17,18,15,Jits_Phase_8,1,5,63,98,1813696752
17,18,15,Jits_Phase_8,2,5,56,103,1813787096
17,18,15,Jits_Phase_8,3,5,80,127,1813816644
17,18,15,Jits_Phase_8,0,5,56,103,1814487352
17,18,15,Jits_Phase_8,1,1,48,47,1814509532
17,18,15,Jits_Phase_8,2,5,63,98,1814586824
17,18,15,Jits_Phase_8,3,5,80,127,1814616436
17,18,15,Jits_Phase_8,0,5,63,98,1815306528
17,18,15,Jits_Phase_8,1,5,56,103,1815316784
17,18,15,Jits_Phase_8,2,1,48,47,1815350412
17,18,15,Jits_Phase_8,3,5,80,127,1815407128
17,18,15,Jits_Phase_8,0,1,48,49,1816102988
17,18,15,Jits_Phase_8,1,5,63,98,1816126728
17,18,15,Jits_Phase_8,2,5,56,103,1816206672
17,18,15,Jits_Phase_8,3,5,80,127,1816210032
17,18,15,Jits_Phase_8,0,5,80,127,1816886580
17,18,15,Jits_Phase_8,1,5,63,98,1816907300
17,18,15,Jits_Phase_8,2,5,56,103,1816966472
17,18,15,Jits_Phase_8,3,1,48,46,1816997036
17,18,15,Jits_Phase_8,0,5,56,103,1817727216
17,18,15,Jits_Phase_8,1,1,48,32,1817736092
17,18,15,Jits_Phase_8,2,5,63,98,1817746884
17,18,15,Jits_Phase_8,3,5,80,127,1817750172
17,18,15,Jits_Phase_8,0,5,63,98,1818466648
17,18,15,Jits_Phase_8,1,5,80,127,1818546536
17,18,15,Jits_Phase_8,2,1,48,40,1818552588
17,18,15,Jits_Phase_8,3,5,56,103,1818556880
17,18,15,Jits_Phase_8,0,5,63,98,1819287076
17,18,15,Jits_Phase_8,1,1,48,31,1819293256
17,18,15,Jits_Phase_8,2,5,56,103,1819307276
17,18,15,Jits_Phase_8,3,5,80,127,1819356520
17,18,15,Jits_Phase_8,0,1,48,32,1820062068
17,18,15,Jits_Phase_8,1,5,80,127,1820086728
17,18,15,Jits_Phase_8,2,5,63,98,1820126752
17,18,15,Jits_Phase_8,3,5,56,103,1820147028
17,18,15,Jits_Phase_8,0,1,48,33,1820858520
17,18,15,Jits_Phase_8,1,5,56,103,1820927280
17,18,15,Jits_Phase_8,2,5,63,98,1820936488
17,18,15,Jits_Phase_8,3,5,80,127,1820957120
17,18,15,Jits_Phase_8,0,5,56,103,1821656468
17,18,15,Jits_Phase_8,1,1,48,33,1821726828
17,18,15,Jits_Phase_8,2,5,63,98,1821746668
17,18,15,Jits_Phase_8,3,5,80,127,1821806884
17,18,15,Jits_Phase_8,0,1,48,38,1822416376
17,18,15,Jits_Phase_8,1,5,80,127,1822487004
17,18,15,Jits_Phase_8,2,5,56,103,1822497184
17,18,15,Jits_Phase_8,3,5,63,98,1822566952
17,18,15,Jits_Phase_8,0,1,48,36,1823161320
17,18,15,Jits_Phase_8,1,5,63,98,1823317364
17,18,15,Jits_Phase_8,2,5,80,127,1823406380
17,18,15,Jits_Phase_8,3,5,56,103,1823416880
17,18,15,Jits_Phase_8,0,1,48,30,1823995092
17,18,15,Jits_Phase_8,1,5,63,98,1824046420
17,18,15,Jits_Phase_8,2,5,80,127,1824096972
17,18,15,Jits_Phase_8,3,5,56,103,1824157112
17,18,15,Jits_Phase_8,0,1,48,29,1824754772
17,18,15,Jits_Phase_8,1,5,56,103,1824866616
17,18,15,Jits_Phase_8,2,5,80,127,1824916736
17,18,15,Jits_Phase_8,3,5,63,98,1824937456
17,18,15,Jits_Phase_8,0,1,48,29,1825599148
17,18,15,Jits_Phase_8,1,5,56,103,1825636872
17,18,15,Jits_Phase_8,2,5,80,127,1825697076
17,18,15,Jits_Phase_8,3,5,63,98,1825766736
17,18,15,Jits_Phase_8,0,1,48,34,1826411200
17,18,15,Jits_Phase_8,1,5,56,103,1826436512
17,18,15,Jits_Phase_8,2,5,80,127,1826467112
17,18,15,Jits_Phase_8,3,5,63,98,1826496908
17,18,15,Jits_Phase_8,0,1,48,29,1827161464
17,18,15,Jits_Phase_8,1,5,56,103,1827277140
17,18,15,Jits_Phase_8,2,5,80,127,1827296820
17,18,15,Jits_Phase_8,3,5,63,98,1827356960
17,18,15,Jits_Phase_8,0,1,48,29,1827945704
17,18,15,Jits_Phase_8,1,5,80,127,1828156812
17,18,15,Jits_Phase_8,2,5,56,103,1828166988
17,18,15,Jits_Phase_8,3,5,63,98,1828177172
17,18,15,Jits_Phase_8,0,1,48,29,1828852320
17,18,15,Jits_Phase_8,1,5,56,103,1828916604
17,18,15,Jits_Phase_8,2,5,80,127,1828956612
17,18,15,Jits_Phase_8,3,5,63,98,1828987580
17,18,15,Jits_Phase_8,0,1,48,23,1829672608
17,18,15,Jits_Phase_8,1,5,56,103,1829686776
17,18,15,Jits_Phase_8,2,5,63,98,1829717452
17,18,15,Jits_Phase_8,3,5,80,127,1829757396
17,18,15,Jits_Phase_8,0,1,48,35,1830388632
17,18,15,Jits_Phase_8,1,5,80,127,1830437352
17,18,15,Jits_Phase_8,2,5,63,98,1830487608
17,18,15,Jits_Phase_8,3,5,56,103,1830506908
17,18,15,Jits_Phase_8,0,1,48,27,1831214308
17,18,15,Jits_Phase_8,1,5,56,103,1831266608
17,18,15,Jits_Phase_8,2,5,80,127,1831337428
17,18,15,Jits_Phase_8,3,5,63,98,1831396696
17,18,15,Jits_Phase_8,0,1,48,31,1831926208
17,18,15,Jits_Phase_8,1,5,80,127,1832066388
17,18,15,Jits_Phase_8,2,5,63,98,1832156468
17,18,15,Jits_Phase_8,3,5,56,103,1832177116
17,18,15,Jits_Phase_8,0,1,48,30,1832679624
17,18,15,Jits_Phase_8,1,5,63,98,1832886620
17,18,15,Jits_Phase_8,2,5,56,103,1832907048
17,18,15,Jits_Phase_8,3,5,80,127,1832947068
17,18,15,Jits_Phase_8,0,1,48,32,1833473196
17,18,15,Jits_Phase_8,1,5,80,127,1833646516
17,18,15,Jits_Phase_8,2,5,63,98,1833666892
17,18,15,Jits_Phase_8,3,5,56,103,1833746848
17,18,15,Jits_Phase_8,0,1,48,32,1834282848
17,18,15,Jits_Phase_8,1,5,63,98,1834436828
17,18,15,Jits_Phase_8,2,5,56,103,1834546480
17,18,15,Jits_Phase_8,3,5,80,127,1834549616
17,18,15,Jits_Phase_8,0,1,48,28,1835061540
17,18,15,Jits_Phase_8,1,5,63,98,1835257396
17,18,15,Jits_Phase_8,2,5,56,103,1835266380
17,18,15,Jits_Phase_8,3,5,80,127,1835269296
17,18,15,Jits_Phase_8,0,1,48,31,1835860044
17,18,15,Jits_Phase_8,1,5,56,103,1836036376
17,18,15,Jits_Phase_8,2,5,80,127,1836157320
17,18,15,Jits_Phase_8,3,5,63,98,1836197416
17,18,15,Jits_Phase_8,0,1,48,22,1836752300
17,18,15,Jits_Phase_8,1,5,56,103,1836856732
17,18,15,Jits_Phase_8,2,5,80,127,1836936620
17,18,15,Jits_Phase_8,3,5,63,98,1836956972
17,18,15,Jits_Phase_8,0,1,48,32,1837542740
17,18,15,Jits_Phase_8,1,5,56,103,1837656372
17,18,15,Jits_Phase_8,2,5,63,98,1837767244
17,18,15,Jits_Phase_8,3,5,80,127,1837770456
17,18,15,Jits_Phase_8,0,1,48,23,1838318444
17,18,15,Jits_Phase_8,1,5,56,103,1838497140
17,18,15,Jits_Phase_8,2,5,80,127,1838526944
17,18,15,Jits_Phase_8,3,5,63,98,1838547220
17,18,15,Jits_Phase_8,0,1,48,33,1839077620
17,18,15,Jits_Phase_8,1,5,63,98,1839286708
17,18,15,Jits_Phase_8,2,5,56,103,1839296964
17,18,15,Jits_Phase_8,3,5,80,127,1839307288
17,18,15,Jits_Phase_8,0,1,48,32,1839975764
17,18,15,Jits_Phase_8,1,5,80,127,1840077140
17,18,15,Jits_Phase_8,2,5,56,103,1840127484
17,18,15,Jits_Phase_8,3,5,63,98,1840167352
17,18,15,Jits_Phase_8,0,1,48,35,1840710020
17,18,15,Jits_Phase_8,1,5,80,127,1840897276
17,18,15,Jits_Phase_8,2,5,63,98,1840917176
17,18,15,Jits_Phase_8,3,5,56,103,1840967068
17,18,15,Jits_Phase_8,0,1,48,29,1841549528
17,18,15,Jits_Phase_8,1,5,80,127,1841707456
17,18,15,Jits_Phase_8,2,5,56,103,1841737008
17,18,15,Jits_Phase_8,3,5,63,98,1841806872
17,18,15,Jits_Phase_8,0,1,48,25,1842402668
17,18,15,Jits_Phase_8,1,5,56,103,1842557288
17,18,15,Jits_Phase_8,2,5,80,127,1842566644
17,18,15,Jits_Phase_8,3,5,63,98,1842606520
17,18,15,Jits_Phase_8,0,1,48,22,1843259236
17,18,15,Jits_Phase_8,1,5,56,103,1843266968
17,18,15,Jits_Phase_8,2,5,63,98,1843287396
17,18,15,Jits_Phase_8,3,5,80,127,1843357180
17,18,15,Jits_Phase_8,0,1,48,27,1844009652
17,18,15,Jits_Phase_8,1,5,63,98,1844087168
17,18,15,Jits_Phase_8,2,5,80,127,1844146424
17,18,15,Jits_Phase_8,3,5,56,103,1844166996
17,18,15,Jits_Phase_8,0,1,48,21,1844845196
17,18,15,Jits_Phase_8,1,5,80,127,1844876780
17,18,15,Jits_Phase_8,2,5,56,103,1844907232
17,18,15,Jits_Phase_8,3,5,63,98,1844937028
17,18,15,Jits_Phase_8,0,1,48,32,1845625528
17,18,15,Jits_Phase_8,1,5,56,103,1845677384
17,18,15,Jits_Phase_8,2,5,63,98,1845736864
17,18,15,Jits_Phase_8,3,5,80,127,1845797156
17,18,15,Jits_Phase_8,0,1,48,33,1846453604
17,18,15,Jits_Phase_8,1,5,80,127,1846496720
17,18,15,Jits_Phase_8,2,5,56,103,1846516996
17,18,15,Jits_Phase_8,3,5,63,98,1846586844
17,18,15,Jits_Phase_8,0,5,80,127,1847297488
17,18,15,Jits_Phase_8,1,1,48,27,1847310696
17,18,15,Jits_Phase_8,2,5,63,98,1847316708
17,18,15,Jits_Phase_8,3,5,56,103,1847346484
17,18,15,Jits_Phase_8,0,5,80,127,1848086960
17,18,15,Jits_Phase_8,1,1,48,27,1848103828
17,18,15,Jits_Phase_8,2,5,63,98,1848107532
17,18,15,Jits_Phase_8,3,5,56,103,1848166772
17,18,15,Jits_Phase_8,0,5,80,127,1848886612
17,18,15,Jits_Phase_8,1,1,48,29,1848914548
17,18,15,Jits_Phase_8,2,5,56,103,1848986912
17,18,15,Jits_Phase_8,3,5,63,98,1849016696
17,18,15,Jits_Phase_8,0,5,63,98,1849677140
17,18,15,Jits_Phase_8,1,5,80,127,1849727484
17,18,15,Jits_Phase_8,2,1,48,34,1849730156
17,18,15,Jits_Phase_8,3,5,56,103,1849746784
17,18,15,Jits_Phase_8,0,1,48,35,1850445036
17,18,15,Jits_Phase_8,1,5,80,127,1850516784
17,18,15,Jits_Phase_8,2,5,56,103,1850546692
17,18,15,Jits_Phase_8,3,5,63,98,1850549680
17,18,15,Jits_Phase_8,0,1,48,38,1851322516
17,18,15,Jits_Phase_8,1,5,63,98,1851366752
17,18,15,Jits_Phase_8,2,5,56,103,1851406552
17,18,15,Jits_Phase_8,3,5,80,127,1851427408
17,18,15,Jits_Phase_8,0,1,48,30,1852081916
17,18,15,Jits_Phase_8,1,5,80,127,1852126528
17,18,15,Jits_Phase_8,2,5,63,98,1852206328
17,18,15,Jits_Phase_8,3,5,56,103,1852247392
17,18,15,Jits_Phase_8,0,1,48,35,1852939456
17,18,15,Jits_Phase_8,1,5,63,98,1852946736
17,18,15,Jits_Phase_8,2,5,80,127,1853026700
17,18,15,Jits_Phase_8,3,5,56,103,1853047108
17,18,15,Jits_Phase_8,0,1,48,43,1853668416
17,18,15,Jits_Phase_8,1,5,56,103,1853786384
17,18,15,Jits_Phase_8,2,5,63,98,1853796712
17,18,15,Jits_Phase_8,3,5,80,127,1853836508
17,18,15,Jits_Phase_8,0,1,48,26,1854500736
17,18,15,Jits_Phase_8,1,5,56,103,1854507348
17,18,15,Jits_Phase_8,2,5,80,127,1854510488
17,18,15,Jits_Phase_8,3,5,63,98,1854646628
17,18,15,Jits_Phase_8,0,5,56,103,1855296740
17,18,15,Jits_Phase_8,1,1,48,28,1855346452
17,18,15,Jits_Phase_8,2,5,63,98,1855387164
17,18,15,Jits_Phase_8,3,5,80,127,1855456588
17,18,15,Jits_Phase_8,0,1,48,30,1856073164
17,18,15,Jits_Phase_8,1,5,63,98,1856176724
17,18,15,Jits_Phase_8,2,5,80,127,1856180156
17,18,15,Jits_Phase_8,3,5,56,103,1856236936
17,18,15,Jits_Phase_8,0,1,48,25,1856905272
17,18,15,Jits_Phase_8,1,5,80,127,1857017344
17,18,15,Jits_Phase_8,2,5,56,103,1857036648
17,18,15,Jits_Phase_8,3,5,63,98,1857046828
17,18,15,Jits_Phase_8,0,5,56,103,1857726804
17,18,15,Jits_Phase_8,1,5,63,98,1857737356
17,18,15,Jits_Phase_8,2,1,48,31,1857750200
17,18,15,Jits_Phase_8,3,5,80,127,1857806692
17,18,15,Jits_Phase_8,0,1,48,24,1858441196
17,18,15,Jits_Phase_8,1,5,80,127,1858526524
17,18,15,Jits_Phase_8,2,5,56,103,1858576704
17,18,15,Jits_Phase_8,3,5,63,98,1858627044
17,18,15,Jits_Phase_8,0,1,48,32,1859247872
17,18,15,Jits_Phase_8,1,5,56,103,1859407128
17,18,15,Jits_Phase_8,2,5,63,98,1859416412
17,18,15,Jits_Phase_8,3,5,80,127,1859457404
17,18,15,Jits_Phase_8,0,5,56,103,1860146508
17,18,15,Jits_Phase_8,1,1,48,21,1860156208
17,18,15,Jits_Phase_8,2,5,63,98,1860186452
17,18,15,Jits_Phase_8,3,5,80,127,1860236644
17,18,15,Jits_Phase_8,0,5,80,127,1860907348
17,18,15,Jits_Phase_8,1,1,48,22,1860927144
17,18,15,Jits_Phase_8,2,5,56,103,1860956488
17,18,15,Jits_Phase_8,3,5,63,98,1860977060
17,18,15,Jits_Phase_8,0,1,48,28,1861646456
17,18,15,Jits_Phase_8,1,5,80,127,1861717308
17,18,15,Jits_Phase_8,2,5,63,98,1861776840
17,18,15,Jits_Phase_8,3,5,56,103,1861856672
17,18,15,Jits_Phase_8,0,5,80,127,1862496536
17,18,15,Jits_Phase_8,1,5,56,103,1862536484
17,18,15,Jits_Phase_8,2,5,63,98,1862556984
17,18,15,Jits_Phase_8,3,1,48,16,1862569300
17,18,15,Jits_Phase_8,0,1,48,30,1863208116
17,18,15,Jits_Phase_8,1,5,56,103,1863346744
17,18,15,Jits_Phase_8,2,5,80,127,1863356924
17,18,15,Jits_Phase_8,3,5,63,98,1863396872
17,18,15,Jits_Phase_8,0,1,48,31,1864072368
17,18,15,Jits_Phase_8,1,5,56,103,1864216844
17,18,15,Jits_Phase_8,2,5,63,98,1864256860
17,18,15,Jits_Phase_8,3,5,80,127,1864260148
17,18,15,Jits_Phase_8,0,5,63,98,1864886728
17,18,15,Jits_Phase_8,1,5,80,127,1864926528
17,18,15,Jits_Phase_8,2,5,56,103,1864997360
17,18,15,Jits_Phase_8,3,1,48,26,1865025232
17,18,15,Jits_Phase_8,0,5,63,98,1865656968
17,18,15,Jits_Phase_8,1,1,48,36,1865675648
17,18,15,Jits_Phase_8,2,5,56,103,1865736700
17,18,15,Jits_Phase_8,3,5,80,127,1865797048
17,18,15,Jits_Phase_8,0,5,80,127,1866466780
17,18,15,Jits_Phase_8,1,1,48,41,1866498692
17,18,15,Jits_Phase_8,2,5,63,98,1866516816
17,18,15,Jits_Phase_8,3,5,56,103,1866546740
17,18,15,Jits_Phase_8,0,5,56,103,1867257148
17,18,15,Jits_Phase_8,1,1,48,40,1867276948
17,18,15,Jits_Phase_8,2,5,63,98,1867307340
17,18,15,Jits_Phase_8,3,5,80,127,1867316696
17,18,15,Jits_Phase_8,0,1,48,31,1868026772
17,18,15,Jits_Phase_8,1,5,56,103,1868067116
17,18,15,Jits_Phase_8,2,5,63,98,1868176828
17,18,15,Jits_Phase_8,3,5,80,127,1868197180
17,18,15,Jits_Phase_8,0,1,48,28,1868847660
17,18,15,Jits_Phase_8,1,5,63,98,1868867128
17,18,15,Jits_Phase_8,2,5,80,127,1868917028
17,18,15,Jits_Phase_8,3,5,56,103,1869007240
17,18,15,Jits_Phase_8,0,1,48,29,1869611460
17,18,15,Jits_Phase_8,1,5,63,98,1869656520
17,18,15,Jits_Phase_8,2,5,80,127,1869687116
17,18,15,Jits_Phase_8,3,5,56,103,1869777332
17,18,15,Jits_Phase_8,0,1,48,27,1870433384
17,18,15,Jits_Phase_8,1,5,63,98,1870457272
17,18,15,Jits_Phase_8,2,5,56,103,1870466480
17,18,15,Jits_Phase_8,3,5,80,127,1870566716
17,18,15,Jits_Phase_8,0,1,48,34,1871194728
17,18,15,Jits_Phase_8,1,5,63,98,1871357440
17,18,15,Jits_Phase_8,2,5,80,127,1871386844
17,18,15,Jits_Phase_8,3,5,56,103,1871416692
17,18,15,Jits_Phase_8,0,1,48,17,1872097916
17,18,15,Jits_Phase_8,1,5,80,127,1872176552
17,18,15,Jits_Phase_8,2,5,63,98,1872186732
17,18,15,Jits_Phase_8,3,5,56,103,1872216564
17,18,15,Jits_Phase_8,0,5,80,127,1872876948
17,18,15,Jits_Phase_8,1,5,63,98,1872897524
17,18,15,Jits_Phase_8,2,1,48,30,1872924336
17,18,15,Jits_Phase_8,3,5,56,103,1872946588
17,18,15,Jits_Phase_8,0,1,48,31,1873612156
17,18,15,Jits_Phase_8,1,5,63,98,1873707392
17,18,15,Jits_Phase_8,2,5,80,127,1873766708
17,18,15,Jits_Phase_8,3,5,56,103,1873787360
17,18,15,Jits_Phase_8,0,1,48,30,1874442988
17,18,15,Jits_Phase_8,1,5,63,98,1874467256
17,18,15,Jits_Phase_8,2,5,56,103,1874517524
17,18,15,Jits_Phase_8,3,5,80,127,1874526656
17,18,15,Jits_Phase_8,0,1,48,35,1875158412
17,18,15,Jits_Phase_8,1,5,56,103,1875296572
17,18,15,Jits_Phase_8,2,5,80,127,1875306748
17,18,15,Jits_Phase_8,3,5,63,98,1875407148
17,18,15,Jits_Phase_8,0,1,48,23,1876035464
17,18,15,Jits_Phase_8,1,5,80,127,1876056356
17,18,15,Jits_Phase_8,2,5,63,98,1876066612
17,18,15,Jits_Phase_8,3,5,56,103,1876217252
17,18,15,Jits_Phase_8,0,1,48,31,1876776756
17,18,15,Jits_Phase_8,1,5,63,98,1876866464
17,18,15,Jits_Phase_8,2,5,80,127,1876907516
17,18,15,Jits_Phase_8,3,5,56,103,1876987200
17,18,15,Jits_Phase_8,0,1,48,29,1877559564
17,18,15,Jits_Phase_8,1,5,56,103,1877617108
17,18,15,Jits_Phase_8,2,5,80,127,1877717420
17,18,15,Jits_Phase_8,3,5,63,98,1877736952
17,18,15,Jits_Phase_8,0,1,48,27,1878373564
17,18,15,Jits_Phase_8,1,5,80,127,1878437324
17,18,15,Jits_Phase_8,2,5,56,103,1878446772
17,18,15,Jits_Phase_8,3,5,63,98,1878536588
17,18,15,Jits_Phase_8,0,1,48,32,1879227084
17,18,15,Jits_Phase_8,1,5,56,103,1879237056
17,18,15,Jits_Phase_8,2,5,63,98,1879256364
17,18,15,Jits_Phase_8,3,5,80,127,1879337280
17,18,15,Jits_Phase_8,0,5,63,98,1879986672
17,18,15,Jits_Phase_8,1,1,48,33,1879992920
17,18,15,Jits_Phase_8,2,5,56,103,1880076568
17,18,15,Jits_Phase_8,3,5,80,127,1880079712
17,18,15,Jits_Phase_8,0,1,48,35,1880756052
17,18,15,Jits_Phase_8,1,5,56,103,1880817184
17,18,15,Jits_Phase_8,2,5,80,127,1880877388
17,18,15,Jits_Phase_8,3,5,63,98,1880886744
17,18,15,Jits_Phase_8,0,1,48,30,1881562412
17,18,15,Jits_Phase_8,1,5,80,127,1881666916
17,18,15,Jits_Phase_8,2,5,56,103,1881677244
17,18,15,Jits_Phase_8,3,5,63,98,1881680232
17,18,15,Jits_Phase_8,0,5,56,103,1882426928
17,18,15,Jits_Phase_8,1,1,48,39,1882434148
17,18,15,Jits_Phase_8,2,5,80,127,1882437176
17,18,15,Jits_Phase_8,3,5,63,98,1882456332
17,18,15,Jits_Phase_8,0,1,48,36,1883167456
17,18,15,Jits_Phase_8,1,5,63,98,1883196876
17,18,15,Jits_Phase_8,2,5,80,127,1883257240
17,18,15,Jits_Phase_8,3,5,56,103,1883307348
17,18,15,Jits_Phase_8,0,1,48,34,1883984584
17,18,15,Jits_Phase_8,1,5,63,98,1884078552
17,18,15,Jits_Phase_8,2,5,56,103,1884086564
17,18,15,Jits_Phase_8,3,5,80,127,1884136904
17,18,15,Jits_Phase_8,0,5,63,98,1884776848
17,18,15,Jits_Phase_8,1,1,48,35,1884787896
17,18,15,Jits_Phase_8,2,5,80,127,1884797340
17,18,15,Jits_Phase_8,3,5,56,103,1884806548
17,18,15,Jits_Phase_8,0,1,48,26,1885535160
17,18,15,Jits_Phase_8,1,5,63,98,1885576840
17,18,15,Jits_Phase_8,2,5,80,127,1885579980
17,18,15,Jits_Phase_8,3,5,56,103,1885616440
17,18,15,Jits_Phase_8,0,1,48,35,1886288332
17,18,15,Jits_Phase_8,1,5,63,98,1886446932
17,18,15,Jits_Phase_8,2,5,80,127,1886476784
17,18,15,Jits_Phase_8,3,5,56,103,1886486888
17,18,15,Jits_Phase_8,0,1,48,37,1887142040
17,18,15,Jits_Phase_8,1,5,56,103,1887196472
17,18,15,Jits_Phase_8,2,5,80,127,1887227220
17,18,15,Jits_Phase_8,3,5,63,98,1887256980
17,18,15,Jits_Phase_8,0,1,48,41,1887997500
17,18,15,Jits_Phase_8,1,5,63,98,1888097364
17,18,15,Jits_Phase_8,2,5,56,103,1888136784
17,18,15,Jits_Phase_8,3,5,80,127,1888139700
17,18,15,Jits_Phase_8,0,5,80,127,1888797096
17,18,15,Jits_Phase_8,1,1,48,40,1888864224
17,18,15,Jits_Phase_8,2,5,56,103,1888876900
17,18,15,Jits_Phase_8,3,5,63,98,1888927092
17,18,15,Jits_Phase_8,0,5,80,127,1889577300
17,18,15,Jits_Phase_8,1,5,56,103,1889596832
17,18,15,Jits_Phase_8,2,1,48,38,1889615432
17,18,15,Jits_Phase_8,3,5,63,98,1889686880
17,18,15,Jits_Phase_8,0,1,48,35,1890334348
17,18,15,Jits_Phase_8,1,5,80,127,1890417032
17,18,15,Jits_Phase_8,2,5,63,98,1890457040
17,18,15,Jits_Phase_8,3,5,56,103,1890496864
17,18,15,Jits_Phase_8,0,1,48,41,1891138640
17,18,15,Jits_Phase_8,1,5,63,98,1891226920
17,18,15,Jits_Phase_8,2,5,80,127,1891287520
17,18,15,Jits_Phase_8,3,5,56,103,1891317144
17,18,15,Jits_Phase_8,0,1,48,37,1891942072
17,18,15,Jits_Phase_8,1,5,56,103,1892066652
17,18,15,Jits_Phase_8,2,5,80,127,1892097548
17,18,15,Jits_Phase_8,3,5,63,98,1892186628
17,18,15,Jits_Phase_8,0,5,56,103,1892876632
17,18,15,Jits_Phase_8,1,1,48,36,1892927920
17,18,15,Jits_Phase_8,2,5,80,127,1892987476
17,18,15,Jits_Phase_8,3,5,63,98,1893017024
17,18,15,Jits_Phase_8,0,1,48,35,1893664424
17,18,15,Jits_Phase_8,1,5,56,103,1893726620
17,18,15,Jits_Phase_8,2,5,63,98,1893786896
17,18,15,Jits_Phase_8,3,5,80,127,1893816620
17,18,15,Jits_Phase_8,0,5,56,103,1894496576
17,18,15,Jits_Phase_8,1,1,48,30,1894503872
17,18,15,Jits_Phase_8,2,5,63,98,1894567476
17,18,15,Jits_Phase_8,3,5,80,127,1894586584
17,18,15,Jits_Phase_8,0,5,80,127,1895266536
17,18,15,Jits_Phase_8,1,5,63,98,1895287184
17,18,15,Jits_Phase_8,2,1,48,38,1895316780
17,18,15,Jits_Phase_8,3,5,56,103,1895337292
17,18,15,Jits_Phase_8,0,1,48,45,1896038396
17,18,15,Jits_Phase_8,1,5,63,98,1896086892
17,18,15,Jits_Phase_8,2,5,80,127,1896097368
17,18,15,Jits_Phase_8,3,5,56,103,1896147420
17,18,15,Jits_Phase_8,0,5,63,98,1896886636
17,18,15,Jits_Phase_8,1,5,80,127,1896957244
17,18,15,Jits_Phase_8,2,5,56,103,1896976700
17,18,15,Jits_Phase_8,0,1,48,39,1897578972
17,18,15,Jits_Phase_8,1,5,63,98,1897717376
17,18,15,Jits_Phase_8,2,5,80,127,1897720516
17,18,15,Jits_Phase_8,3,5,56,103,1897786792
17,18,15,Jits_Phase_8,0,5,80,127,1898466768
17,18,15,Jits_Phase_8,1,5,56,103,1898487268
17,18,15,Jits_Phase_8,2,5,63,98,1898497376
17,18,15,Jits_Phase_8,3,1,48,39,1898504068
17,18,15,Jits_Phase_8,0,5,56,103,1899286836
17,18,15,Jits_Phase_8,1,1,48,42,1899305660
17,18,15,Jits_Phase_8,2,5,63,98,1899377108
17,18,15,Jits_Phase_8,3,5,80,127,1899380468
17,18,15,Jits_Phase_8,0,5,80,127,1900057156
17,18,15,Jits_Phase_8,1,5,56,103,1900067112
17,18,15,Jits_Phase_8,2,5,63,98,1900086716
17,18,15,Jits_Phase_8,3,1,48,28,1900220804
17,18,15,Jits_Phase_8,0,5,63,98,1900856652
17,18,15,Jits_Phase_8,1,1,48,35,1900876080
17,18,15,Jits_Phase_8,2,5,80,127,1900917232
17,18,15,Jits_Phase_8,3,5,56,103,1900927336
17,18,15,Jits_Phase_8,0,1,48,39,1901628428
17,18,15,Jits_Phase_8,1,5,63,98,1901727016
17,18,15,Jits_Phase_8,2,5,80,127,1901756744
17,18,15,Jits_Phase_8,3,5,56,103,1901796840
17,18,15,Jits_Phase_8,0,1,48,33,1902433444
17,18,15,Jits_Phase_8,1,5,56,103,1902516748
17,18,15,Jits_Phase_8,2,5,80,127,1902527004
17,18,15,Jits_Phase_8,3,5,63,98,1902566712
17,18,15,Jits_Phase_8,0,1,48,43,1903200920
17,18,15,Jits_Phase_8,1,5,80,127,1903277496
17,18,15,Jits_Phase_8,2,5,56,103,1903357216
17,18,15,Jits_Phase_8,3,5,63,98,1903366424
17,18,15,Jits_Phase_8,0,1,48,36,1904079052
17,18,15,Jits_Phase_8,1,5,80,127,1904127392
17,18,15,Jits_Phase_8,2,5,56,103,1904207264
17,18,15,Jits_Phase_8,3,5,63,98,1904216472
17,18,15,Jits_Phase_8,0,5,80,127,1904967136
17,18,15,Jits_Phase_8,1,1,48,42,1905004668
17,18,15,Jits_Phase_8,2,5,56,103,1905017176
17,18,15,Jits_Phase_8,3,5,63,98,1905067368
17,18,15,Jits_Phase_8,0,1,48,40,1905796596
17,18,15,Jits_Phase_8,1,5,56,103,1905907172
17,18,15,Jits_Phase_8,2,5,63,98,1905910016
17,18,15,Jits_Phase_8,3,5,80,127,1905957364
17,18,15,Jits_Phase_8,0,1,48,40,1906642992
17,18,15,Jits_Phase_8,1,5,56,103,1906727168
17,18,15,Jits_Phase_8,2,5,63,98,1906757076
17,18,15,Jits_Phase_8,3,5,80,127,1906767180
17,18,15,Jits_Phase_8,0,5,63,98,1907436992
17,18,15,Jits_Phase_8,1,1,48,42,1907499864
17,18,15,Jits_Phase_8,2,5,56,103,1907506848
17,18,15,Jits_Phase_8,3,5,80,127,1907556668
17,18,15,Jits_Phase_8,0,1,48,27,1908261500
17,18,15,Jits_Phase_8,1,5,63,98,1908267368
17,18,15,Jits_Phase_8,2,5,56,103,1908276720
17,18,15,Jits_Phase_8,3,5,80,127,1908279784
17,18,15,Jits_Phase_8,0,5,80,127,1909016884
17,18,15,Jits_Phase_8,1,1,48,27,1909050664
17,18,15,Jits_Phase_8,2,5,56,103,1909077392
17,18,15,Jits_Phase_8,3,5,63,98,1909166560
17,18,15,Jits_Phase_8,0,5,80,127,1909816536
17,18,15,Jits_Phase_8,1,1,48,21,1909846060
17,18,15,Jits_Phase_8,2,5,56,103,1909916908
17,18,15,Jits_Phase_8,3,5,63,98,1909956864
17,18,15,Jits_Phase_8,0,1,48,36,1910608376
17,18,15,Jits_Phase_8,1,5,56,103,1910666744
17,18,15,Jits_Phase_8,2,5,63,98,1910686948
17,18,15,Jits_Phase_8,3,5,80,127,1910726900
17,18,15,Jits_Phase_8,0,1,48,32,1911326412
17,18,15,Jits_Phase_8,1,5,63,98,1911436600
17,18,15,Jits_Phase_8,2,5,56,103,1911457172
17,18,15,Jits_Phase_8,3,5,80,127,1911556752
17,18,15,Jits_Phase_8,0,1,48,36,1912098076
17,18,15,Jits_Phase_8,1,5,63,98,1912227112
17,18,15,Jits_Phase_8,2,5,80,127,1912336864
17,18,15,Jits_Phase_8,3,5,56,103,1912366640
17,18,15,Jits_Phase_8,0,1,48,32,1912928608
17,18,15,Jits_Phase_8,1,5,56,103,1913047420
17,18,15,Jits_Phase_8,2,5,63,98,1913077120
17,18,15,Jits_Phase_8,3,5,80,127,1913127384
17,18,15,Jits_Phase_8,0,5,63,98,1913816636
17,18,15,Jits_Phase_8,1,1,48,25,1913827684
17,18,15,Jits_Phase_8,2,5,56,103,1913847448
17,18,15,Jits_Phase_8,3,5,80,127,1913897564
17,18,15,Jits_Phase_8,0,1,48,28,1914551752
17,18,15,Jits_Phase_8,1,5,56,103,1914647060
17,18,15,Jits_Phase_8,2,5,63,98,1914667340
17,18,15,Jits_Phase_8,3,5,80,127,1914747368
17,18,15,Jits_Phase_8,0,1,48,27,1915370244
17,18,15,Jits_Phase_8,1,5,63,98,1915416948
17,18,15,Jits_Phase_8,2,5,56,103,1915477520
17,18,15,Jits_Phase_8,3,5,80,127,1915507072
17,18,15,Jits_Phase_8,0,1,48,24,1916216180
17,18,15,Jits_Phase_8,1,5,56,103,1916256672
17,18,15,Jits_Phase_8,2,5,80,127,1916317020
17,18,15,Jits_Phase_8,3,5,63,98,1916356844
17,18,15,Jits_Phase_8,0,1,48,29,1917030104
17,18,15,Jits_Phase_8,1,5,63,98,1917036864
17,18,15,Jits_Phase_8,2,5,56,103,1917097452
17,18,15,Jits_Phase_8,3,5,80,127,1917167076
17,18,15,Jits_Phase_8,0,1,48,24,1917878372
17,18,15,Jits_Phase_8,1,5,56,103,1917916540
17,18,15,Jits_Phase_8,2,5,63,98,1917926868
17,18,15,Jits_Phase_8,3,5,80,127,1917930300
17,18,15,Jits_Phase_8,0,5,63,98,1918656940
17,18,15,Jits_Phase_8,1,1,48,24,1918669552
17,18,15,Jits_Phase_8,2,5,56,103,1918717140
17,18,15,Jits_Phase_8,3,5,80,127,1918720360
17,18,15,Jits_Phase_8,0,1,48,29,1919349700
17,18,15,Jits_Phase_8,1,5,63,98,1919437116
17,18,15,Jits_Phase_8,2,5,80,127,1919466952
17,18,15,Jits_Phase_8,3,5,56,103,1919487228
17,18,15,Jits_Phase_8,0,5,56,103,1920167244
17,18,15,Jits_Phase_8,1,5,63,98,1920216496
17,18,15,Jits_Phase_8,2,1,48,22,1920230680
17,18,15,Jits_Phase_8,3,5,80,127,1920297268
17,18,15,Jits_Phase_8,0,5,80,127,1920866612
17,18,15,Jits_Phase_8,1,5,63,98,1920906556
17,18,15,Jits_Phase_8,2,5,56,103,1920927132
17,18,15,Jits_Phase_8,3,1,48,20,1921052844
17,18,15,Jits_Phase_8,0,1,48,22,1921651704
17,18,15,Jits_Phase_8,1,5,56,103,1921737180
17,18,15,Jits_Phase_8,2,5,80,127,1921747284
17,18,15,Jits_Phase_8,3,5,63,98,1921766872
17,18,15,Jits_Phase_8,0,1,48,18,1922479872
17,18,15,Jits_Phase_8,1,5,56,103,1922517372
17,18,15,Jits_Phase_8,2,5,63,98,1922566448
17,18,15,Jits_Phase_8,3,5,80,127,1922597180
17,18,15,Jits_Phase_8,0,5,56,103,1923266908
17,18,15,Jits_Phase_8,1,5,63,98,1923277384
17,18,15,Jits_Phase_8,2,1,48,24,1923311988
17,18,15,Jits_Phase_8,3,5,80,127,1923327348
17,18,15,Jits_Phase_8,0,1,48,21,1923924228
17,18,15,Jits_Phase_8,1,5,56,103,1924056360
17,18,15,Jits_Phase_8,2,5,80,127,1924059348
17,18,15,Jits_Phase_8,3,5,63,98,1924217164
17,18,15,Jits_Phase_8,0,1,48,28,1924874064
17,18,15,Jits_Phase_8,1,5,63,98,1924876940
17,18,15,Jits_Phase_8,2,5,56,103,1924947328
17,18,15,Jits_Phase_8,3,5,80,127,1924987188
17,18,15,Jits_Phase_8,0,1,48,21,1925677976
17,18,15,Jits_Phase_8,1,5,63,98,1925717344
17,18,15,Jits_Phase_8,2,5,56,103,1925806516
17,18,15,Jits_Phase_8,3,5,80,127,1925809804
17,18,15,Jits_Phase_8,0,1,48,21,1926485544
17,18,15,Jits_Phase_8,1,5,56,103,1926496784
17,18,15,Jits_Phase_8,2,5,63,98,1926586856
17,18,15,Jits_Phase_8,3,5,80,127,1926597032
17,18,15,Jits_Phase_8,0,1,48,26,1927235748
17,18,15,Jits_Phase_8,1,5,56,103,1927266804
17,18,15,Jits_Phase_8,2,5,63,98,1927316852
17,18,15,Jits_Phase_8,3,5,80,127,1927346488
17,18,15,Jits_Phase_8,0,1,48,26,1927925132
17,18,15,Jits_Phase_8,1,5,63,98,1928147452
17,18,15,Jits_Phase_8,2,5,80,127,1928156664
17,18,15,Jits_Phase_8,3,5,56,103,1928216952
17,18,15,Jits_Phase_8,0,1,48,28,1928801952
17,18,15,Jits_Phase_8,1,5,63,98,1928867208
17,18,15,Jits_Phase_8,2,5,80,127,1928926760
17,18,15,Jits_Phase_8,3,5,56,103,1928966780
17,18,15,Jits_Phase_8,0,1,48,27,1929585220
17,18,15,Jits_Phase_8,1,5,56,103,1929767228
17,18,15,Jits_Phase_8,2,5,80,127,1929786612
17,18,15,Jits_Phase_8,3,5,63,98,1929807184
17,18,15,Jits_Phase_8,0,1,48,31,1930462888
17,18,15,Jits_Phase_8,1,5,63,98,1930487008
17,18,15,Jits_Phase_8,2,5,56,103,1930506612
17,18,15,Jits_Phase_8,3,5,80,127,1930546704
17,18,15,Jits_Phase_8,0,1,48,35,1931236128
17,18,15,Jits_Phase_8,1,5,63,98,1931297036
17,18,15,Jits_Phase_8,2,5,80,127,1931326812
17,18,15,Jits_Phase_8,3,5,56,103,1931347296
17,18,15,Jits_Phase_8,0,1,48,32,1932008236
17,18,15,Jits_Phase_8,1,5,80,127,1932067128
17,18,15,Jits_Phase_8,2,5,56,103,1932117456
17,18,15,Jits_Phase_8,3,5,63,98,1932176700
17,18,15,Jits_Phase_8,0,1,48,30,1932851920
17,18,15,Jits_Phase_8,1,5,63,98,1932856744
17,18,15,Jits_Phase_8,2,5,56,103,1932976432
17,18,15,Jits_Phase_8,3,5,80,127,1933007400
17,18,15,Jits_Phase_8,0,1,48,29,1933673248
17,18,15,Jits_Phase_8,1,5,80,127,1933697520
17,18,15,Jits_Phase_8,2,5,63,98,1933716824
17,18,15,Jits_Phase_8,3,5,56,103,1933786696
17,18,15,Jits_Phase_8,0,1,48,30,1934506212
17,18,15,Jits_Phase_8,1,5,63,98,1934516480
17,18,15,Jits_Phase_8,2,5,56,103,1934526884
17,18,15,Jits_Phase_8,3,5,80,127,1934606676
17,18,15,Jits_Phase_8,0,1,48,32,1935274792
17,18,15,Jits_Phase_8,1,5,56,103,1935376620
17,18,15,Jits_Phase_8,2,5,80,127,1935406396
17,18,15,Jits_Phase_8,3,5,63,98,1935416648
17,18,15,Jits_Phase_8,0,9999,9999,9999,1800534076
17,18,15,Jits_Phase_8,1,9999,9999,9999,1801334848
17,18,15,Jits_Phase_8,2,9999,9999,9999,1802134644
17,18,15,Jits_Phase_8,3,9999,9999,9999,1802934396
17,18,15,Jits_Phase_8,4,9999,9999,9999,1803734116
17,18,15,Jits_Phase_8,5,9999,9999,9999,1804534876
17,18,15,Jits_Phase_8,6,9999,9999,9999,1805334584
17,18,15,Jits_Phase_8,7,9999,9999,9999,1806134372
17,18,15,Jits_Phase_8,8,9999,9999,9999,1806934092
17,18,15,Jits_Phase_8,9,9999,9999,9999,1807734912
17,18,15,Jits_Phase_8,10,9999,9999,9999,1808534644
17,18,15,Jits_Phase_8,11,9999,9999,9999,1809334384
17,18,15,Jits_Phase_8,12,9999,9999,9999,1810134116
17,18,15,Jits_Phase_8,13,9999,9999,9999,1810934884
17,18,15,Jits_Phase_8,14,9999,9999,9999,1811734580
17,18,15,Jits_Phase_8,15,9999,9999,9999,1812534372
17,18,15,Jits_Phase_8,16,9999,9999,9999,1813334072
17,18,15,Jits_Phase_8,17,9999,9999,9999,1814134848
17,18,15,Jits_Phase_8,18,9999,9999,9999,1814934640
17,18,15,Jits_Phase_8,19,9999,9999,9999,1815734392
17,18,15,Jits_Phase_8,20,9999,9999,9999,1816534104
17,18,15,Jits_Phase_8,21,9999,9999,9999,1817334860
17,18,15,Jits_Phase_8,22,9999,9999,9999,1818134652
17,18,15,Jits_Phase_8,23,9999,9999,9999,1818934380
17,18,15,Jits_Phase_8,24,9999,9999,9999,1819734088
17,18,15,Jits_Phase_8,25,9999,9999,9999,1820534844
17,18,15,Jits_Phase_8,26,9999,9999,9999,1821334632
17,18,15,Jits_Phase_8,27,9999,9999,9999,1822134372
17,18,15,Jits_Phase_8,28,9999,9999,9999,1822934096
17,18,15,Jits_Phase_8,29,9999,9999,9999,1823734860
17,18,15,Jits_Phase_8,30,9999,9999,9999,1824514160
17,18,15,Jits_Phase_8,31,9999,9999,9999,1825314920
17,18,15,Jits_Phase_8,32,9999,9999,9999,1826114632
17,18,15,Jits_Phase_8,33,9999,9999,9999,1826914416
17,18,15,Jits_Phase_8,34,9999,9999,9999,1827714128
17,18,15,Jits_Phase_8,35,9999,9999,9999,1828514896
17,18,15,Jits_Phase_8,36,9999,9999,9999,1829314640
17,18,15,Jits_Phase_8,37,9999,9999,9999,1830114428
17,18,15,Jits_Phase_8,38,9999,9999,9999,1830914136
17,18,15,Jits_Phase_8,39,9999,9999,9999,1831714900
17,18,15,Jits_Phase_8,40,9999,9999,9999,1832514620
17,18,15,Jits_Phase_8,41,9999,9999,9999,1833314408
17,18,15,Jits_Phase_8,42,9999,9999,9999,1834114116
17,18,15,Jits_Phase_8,43,9999,9999,9999,1834914940
17,18,15,Jits_Phase_8,44,9999,9999,9999,1835714660
17,18,15,Jits_Phase_8,45,9999,9999,9999,1836514380
17,18,15,Jits_Phase_8,46,9999,9999,9999,1837314168
17,18,15,Jits_Phase_8,47,9999,9999,9999,1838114916
17,18,15,Jits_Phase_8,48,9999,9999,9999,1838934080
17,18,15,Jits_Phase_8,49,9999,9999,9999,1839734908
17,18,15,Jits_Phase_8,50,9999,9999,9999,1840534620
17,18,15,Jits_Phase_8,51,9999,9999,9999,1841334360
17,18,15,Jits_Phase_8,52,9999,9999,9999,1842134076
17,18,15,Jits_Phase_8,53,9999,9999,9999,1842934844
17,18,15,Jits_Phase_8,54,9999,9999,9999,1843734628
17,18,15,Jits_Phase_8,55,9999,9999,9999,1844534340
17,18,15,Jits_Phase_8,56,9999,9999,9999,1845334120
17,18,15,Jits_Phase_8,57,9999,9999,9999,1846134876
17,18,15,Jits_Phase_8,58,9999,9999,9999,1846934588
17,18,15,Jits_Phase_8,59,9999,9999,9999,1847734396
17,18,15,Jits_Phase_8,60,9999,9999,9999,1848534124
17,18,15,Jits_Phase_8,61,9999,9999,9999,1849334900
17,18,15,Jits_Phase_8,62,9999,9999,9999,1850134624
17,18,15,Jits_Phase_8,63,9999,9999,9999,1850934376
17,18,15,Jits_Phase_8,64,9999,9999,9999,1851775076
17,18,15,Jits_Phase_8,65,9999,9999,9999,1852574796
17,18,15,Jits_Phase_8,66,9999,9999,9999,1853374536
17,18,15,Jits_Phase_8,67,9999,9999,9999,1854174328
17,18,15,Jits_Phase_8,68,9999,9999,9999,1854975076
17,18,15,Jits_Phase_8,69,9999,9999,9999,1855774788
17,18,15,Jits_Phase_8,70,9999,9999,9999,1856574588
17,18,15,Jits_Phase_8,71,9999,9999,9999,1857374308
17,18,15,Jits_Phase_8,72,9999,9999,9999,1858175060
17,18,15,Jits_Phase_8,73,9999,9999,9999,1858974788
17,18,15,Jits_Phase_8,74,9999,9999,9999,1859774584
17,18,15,Jits_Phase_8,75,9999,9999,9999,1860574304
17,18,15,Jits_Phase_8,76,9999,9999,9999,1861375072
17,18,15,Jits_Phase_8,77,9999,9999,9999,1862174800
17,18,15,Jits_Phase_8,78,9999,9999,9999,1862974580
17,18,15,Jits_Phase_8,79,9999,9999,9999,1863774308
17,18,15,Jits_Phase_8,80,9999,9999,9999,1864575064
17,18,15,Jits_Phase_8,81,9999,9999,9999,1865334836
17,18,15,Jits_Phase_8,82,9999,9999,9999,1866134624
17,18,15,Jits_Phase_8,83,9999,9999,9999,1866934356
17,18,15,Jits_Phase_8,84,9999,9999,9999,1867734076
17,18,15,Jits_Phase_8,85,9999,9999,9999,1868534856
17,18,15,Jits_Phase_8,86,9999,9999,9999,1869334644
17,18,15,Jits_Phase_8,87,9999,9999,9999,1870134352
17,18,15,Jits_Phase_8,88,9999,9999,9999,1870934132
17,18,15,Jits_Phase_8,89,9999,9999,9999,1871734896
17,18,15,Jits_Phase_8,90,9999,9999,9999,1872534620
17,18,15,Jits_Phase_8,91,9999,9999,9999,1873334352
17,18,15,Jits_Phase_8,92,9999,9999,9999,1874134084
17,18,15,Jits_Phase_8,93,9999,9999,9999,1874934840
17,18,15,Jits_Phase_8,94,9999,9999,9999,1875734628
17,18,15,Jits_Phase_8,95,9999,9999,9999,1876534340
17,18,15,Jits_Phase_8,96,9999,9999,9999,1877334124
17,18,15,Jits_Phase_8,97,9999,9999,9999,1878055008
17,18,15,Jits_Phase_8,98,9999,9999,9999,1878854720
17,18,15,Jits_Phase_8,99,9999,9999,9999,1879654512
17,18,15,Jits_Phase_8,100,9999,9999,9999,1880454220
17,18,15,Jits_Phase_8,101,9999,9999,9999,1881254980
17,18,15,Jits_Phase_8,102,9999,9999,9999,1882054780
17,18,15,Jits_Phase_8,103,9999,9999,9999,1882854492
17,18,15,Jits_Phase_8,104,9999,9999,9999,1883654220
17,18,15,Jits_Phase_8,105,9999,9999,9999,1884455036
17,18,15,Jits_Phase_8,106,9999,9999,9999,1885254740
17,18,15,Jits_Phase_8,107,9999,9999,9999,1886054512
17,18,15,Jits_Phase_8,108,9999,9999,9999,1886854228
17,18,15,Jits_Phase_8,109,9999,9999,9999,1887654980
17,18,15,Jits_Phase_8,110,9999,9999,9999,1888454716
17,18,15,Jits_Phase_8,111,9999,9999,9999,1889254508
17,18,15,Jits_Phase_8,112,9999,9999,9999,1890054232
17,18,15,Jits_Phase_8,113,9999,9999,9999,1890855004
17,18,15,Jits_Phase_8,114,9999,9999,9999,1891734588
17,18,15,Jits_Phase_8,115,9999,9999,9999,1892534328
17,18,15,Jits_Phase_8,116,9999,9999,9999,1893334120
17,18,15,Jits_Phase_8,117,9999,9999,9999,1894134900
17,18,15,Jits_Phase_8,118,9999,9999,9999,1894934612
17,18,15,Jits_Phase_8,119,9999,9999,9999,1895734332
17,18,15,Jits_Phase_8,120,9999,9999,9999,1896534132
17,18,15,Jits_Phase_8,121,9999,9999,9999,1897334840
17,18,15,Jits_Phase_8,122,9999,9999,9999,1898134612
17,18,15,Jits_Phase_8,123,9999,9999,9999,1898934344
17,18,15,Jits_Phase_8,124,9999,9999,9999,1899734136
17,18,15,Jits_Phase_8,125,9999,9999,9999,1900534900
17,18,15,Jits_Phase_8,126,9999,9999,9999,1901334624
17,18,15,Jits_Phase_8,127,9999,9999,9999,1902134340
17,18,15,Jits_Phase_8,128,9999,9999,9999,1902934128
17,18,15,Jits_Phase_8,129,9999,9999,9999,1903734884
17,18,15,Jits_Phase_8,130,9999,9999,9999,1904534604
17,18,15,Jits_Phase_8,131,9999,9999,9999,1905494096
17,18,15,Jits_Phase_8,132,9999,9999,9999,1906294864
17,18,15,Jits_Phase_8,133,9999,9999,9999,1907094588
17,18,15,Jits_Phase_8,134,9999,9999,9999,1907894328
17,18,15,Jits_Phase_8,135,9999,9999,9999,1908694100
17,18,15,Jits_Phase_8,136,9999,9999,9999,1909494860
17,18,15,Jits_Phase_8,137,9999,9999,9999,1910294588
17,18,15,Jits_Phase_8,138,9999,9999,9999,1911094388
17,18,15,Jits_Phase_8,139,9999,9999,9999,1911894104
17,18,15,Jits_Phase_8,140,9999,9999,9999,1912694864
17,18,15,Jits_Phase_8,141,9999,9999,9999,1913494648
17,18,15,Jits_Phase_8,142,9999,9999,9999,1914294384
17,18,15,Jits_Phase_8,143,9999,9999,9999,1915094096
17,18,15,Jits_Phase_8,144,9999,9999,9999,1915894852
17,18,15,Jits_Phase_8,145,9999,9999,9999,1916694640
17,18,15,Jits_Phase_8,146,9999,9999,9999,1917494332
17,18,15,Jits_Phase_8,147,9999,9999,9999,1918294116
17,18,15,Jits_Phase_8,148,9999,9999,9999,1919094864
17,18,15,Jits_Phase_8,149,9999,9999,9999,1919894648
17,18,15,Jits_Phase_8,150,9999,9999,9999,1920534616
17,18,15,Jits_Phase_8,151,9999,9999,9999,1921334336
17,18,15,Jits_Phase_8,152,9999,9999,9999,1922134140
17,18,15,Jits_Phase_8,153,9999,9999,9999,1922934900
17,18,15,Jits_Phase_8,154,9999,9999,9999,1923734608
17,18,15,Jits_Phase_8,155,9999,9999,9999,1924534348
17,18,15,Jits_Phase_8,156,9999,9999,9999,1925334136
17,18,15,Jits_Phase_8,157,9999,9999,9999,1926134892
17,18,15,Jits_Phase_8,158,9999,9999,9999,1926934608
17,18,15,Jits_Phase_8,159,9999,9999,9999,1927734392
17,18,15,Jits_Phase_8,160,9999,9999,9999,1928534112
17,18,15,Jits_Phase_8,161,9999,9999,9999,1929334868
17,18,15,Jits_Phase_8,162,9999,9999,9999,1930134588
17,18,15,Jits_Phase_8,163,9999,9999,9999,1930934396
17,18,15,Jits_Phase_8,164,9999,9999,9999,1931734108
17,18,15,Jits_Phase_8,165,9999,9999,9999,1932534864
17,18,15,Jits_Phase_8,166,9999,9999,9999,1933334656
17,18,15,Jits_Phase_8,167,9999,9999,9999,1934134368
17,18,15,Jits_Phase_8,168,9999,9999,9999,1934934080
17,18,15,Jits_Phase_8,169,9999,9999,9999,1935734852
17,19,5,ISIP_5,0,5,42,127,1998253400
17,19,5,ISIP_5,1,5,42,127,1998753148
17,19,5,ISIP_5,2,5,42,127,1999252696
17,19,5,ISIP_5,3,5,42,127,1999752468
17,19,5,ISIP_5,4,5,42,127,2000253360
17,19,5,ISIP_5,5,1,48,52,2000286416
17,19,5,ISIP_5,6,5,42,127,2000752964
17,19,5,ISIP_5,7,1,48,45,2000794980
17,19,5,ISIP_5,8,5,42,127,2001252640
17,19,5,ISIP_5,9,1,48,50,2001280100
17,19,5,ISIP_5,10,5,42,127,2001752312
17,19,5,ISIP_5,11,1,48,46,2001758564
17,19,5,ISIP_5,12,5,42,127,2002253184
17,19,5,ISIP_5,13,1,48,48,2002266304
17,19,5,ISIP_5,14,1,48,46,2002751584
17,19,5,ISIP_5,15,5,42,127,2002753376
17,19,5,ISIP_5,16,5,42,127,2003252540
17,19,5,ISIP_5,17,1,48,33,2003257216
17,19,5,ISIP_5,18,5,42,127,2003753260
17,19,5,ISIP_5,19,1,48,45,2003779824
17,19,5,ISIP_5,20,1,48,39,2004202264
17,19,5,ISIP_5,21,5,42,127,2004253152
17,19,5,ISIP_5,22,1,48,32,2004742416
17,19,5,ISIP_5,23,5,42,127,2004752680
17,19,5,ISIP_5,24,5,42,127,2005252364
17,19,5,ISIP_5,25,1,48,43,2005278548
17,19,5,ISIP_5,26,1,48,38,2005699804
17,19,5,ISIP_5,27,5,42,127,2005753152
17,19,5,ISIP_5,28,1,48,38,2006226960
17,19,5,ISIP_5,29,5,42,127,2006252976
17,19,5,ISIP_5,30,1,48,38,2006730516
17,19,5,ISIP_5,31,5,42,127,2006752948
17,19,5,ISIP_5,32,1,48,40,2007239900
17,19,5,ISIP_5,33,5,42,127,2007253224
17,19,5,ISIP_5,34,1,48,39,2007736960
17,19,5,ISIP_5,35,5,42,127,2007752976
17,19,5,ISIP_5,36,1,48,37,2008243732
17,19,5,ISIP_5,37,5,42,127,2008252728
17,19,5,ISIP_5,38,1,48,41,2008731812
17,19,5,ISIP_5,39,5,42,127,2008752476
17,19,5,ISIP_5,40,1,48,40,2009248360
17,19,5,ISIP_5,41,5,42,127,2009253124
17,19,5,ISIP_5,42,5,42,127,2009752856
17,19,5,ISIP_5,43,1,48,35,2009769064
17,19,5,ISIP_5,44,1,48,35,2010251856
17,19,5,ISIP_5,45,5,42,127,2010253644
17,19,5,ISIP_5,46,1,48,40,2010733200
17,19,5,ISIP_5,47,5,42,127,2010753472
17,19,5,ISIP_5,48,5,42,127,2011253080
17,19,5,ISIP_5,49,1,48,41,2011255824
17,19,5,ISIP_5,50,5,42,127,2011752756
17,19,5,ISIP_5,51,1,48,44,2011760728
17,19,5,ISIP_5,52,1,48,39,2012251068
17,19,5,ISIP_5,53,5,42,127,2012252648
17,19,5,ISIP_5,54,5,42,127,2012753304
17,19,5,ISIP_5,55,1,48,51,2012769184
17,19,5,ISIP_5,56,5,42,127,2013252904
17,19,5,ISIP_5,57,1,48,40,2013255796
17,19,5,ISIP_5,58,5,42,127,2013752732
17,19,5,ISIP_5,59,1,48,40,2013754360
17,19,5,ISIP_5,60,1,48,40,2014241760
17,19,5,ISIP_5,61,5,42,127,2014253520
17,19,5,ISIP_5,62,1,48,44,2014741664
17,19,5,ISIP_5,63,5,42,127,2014753196
17,19,5,ISIP_5,64,5,42,127,2015252880
17,19,5,ISIP_5,65,1,48,30,2015284216
17,19,5,ISIP_5,66,5,42,127,2015752480
17,19,5,ISIP_5,67,1,48,39,2015778740
17,19,5,ISIP_5,68,1,48,31,2016214856
17,19,5,ISIP_5,69,5,42,127,2016253272
17,19,5,ISIP_5,70,1,48,32,2016721772
17,19,5,ISIP_5,71,5,42,127,2016752948
17,19,5,ISIP_5,72,5,42,127,2017252704
17,19,5,ISIP_5,73,1,48,33,2017260752
17,19,5,ISIP_5,74,1,48,37,2017745916
17,19,5,ISIP_5,75,5,42,127,2017752448
17,19,5,ISIP_5,76,1,48,29,2018250004
17,19,5,ISIP_5,77,1,48,38,2019058332
17,19,5,ISIP_5,78,1,48,32,2019565392
17,19,5,ISIP_5,79,1,48,36,2020064092
17,19,5,ISIP_5,80,1,48,38,2020572432
17,19,5,ISIP_5,81,1,48,35,2021076656
17,19,5,ISIP_5,82,1,48,37,2021568264
17,19,5,ISIP_5,83,1,48,31,2022082576
17,19,5,ISIP_5,84,1,48,41,2022596808
17,19,5,ISIP_5,85,1,48,38,2023127172
17,19,5,ISIP_5,86,1,48,33,2023627964
17,19,5,ISIP_5,87,1,48,41,2024140476
17,19,5,ISIP_5,88,1,48,35,2024670616
17,19,5,ISIP_5,89,1,48,33,2025170212
17,19,5,ISIP_5,90,1,48,44,2025675628
17,19,5,ISIP_5,91,1,48,29,2026156040
17,19,5,ISIP_5,92,1,48,37,2026652100
17,19,5,ISIP_5,93,1,48,18,2027176364
17,19,5,ISIP_5,94,1,48,35,2027669140
17,19,5,ISIP_5,95,1,48,35,2028154472
17,19,5,ISIP_5,96,1,48,38,2028645784
17,19,5,ISIP_5,97,1,48,34,2029155464
17,19,5,ISIP_5,98,1,48,48,2029649904
17,19,5,ISIP_5,99,1,48,40,2030147484
17,19,5,ISIP_5,100,1,48,34,2030645140
17,19,5,ISIP_5,101,1,48,39,2031167360
17,19,5,ISIP_5,102,1,48,35,2031670920
17,19,5,ISIP_5,103,1,48,47,2032166260
17,19,5,ISIP_5,104,1,48,36,2032678928
17,19,5,ISIP_5,105,1,48,30,2033166944
17,19,5,ISIP_5,106,1,48,33,2033679688
17,19,5,ISIP_5,107,1,48,39,2034163752
17,19,5,ISIP_5,108,1,48,35,2034667608
17,19,5,ISIP_5,109,1,48,51,2035177132
17,19,5,ISIP_5,110,1,48,32,2035673744
17,19,5,ISIP_5,111,1,48,17,2036191488
17,19,5,ISIP_5,112,1,48,36,2036681524
17,19,5,ISIP_5,113,1,48,32,2037180972
17,19,5,ISIP_5,114,1,48,36,2037684824
17,19,5,ISIP_5,115,1,48,36,2038187264
17,19,5,ISIP_5,116,1,48,38,2038680408
17,19,5,ISIP_5,117,1,48,38,2039191808
17,19,5,ISIP_5,118,1,48,35,2039699388
17,19,5,ISIP_5,119,1,48,31,2040189360
17,19,5,ISIP_5,120,1,48,33,2040704412
17,19,5,ISIP_5,121,1,48,40,2041189820
17,19,5,ISIP_5,122,1,48,34,2041667088
17,19,5,ISIP_5,123,1,48,35,2042152424
17,19,5,ISIP_5,124,1,48,31,2042651124
17,19,5,ISIP_5,125,1,48,29,2043157516
17,19,5,ISIP_5,126,1,48,36,2043635232
17,19,5,ISIP_5,127,1,48,22,2044099508
17,19,5,ISIP_5,128,1,48,22,2044627780
17,19,5,ISIP_5,129,1,48,33,2045133356
17,19,5,ISIP_5,130,1,48,35,2045621676
17,19,5,ISIP_5,131,1,48,29,2046107660
17,19,5,ISIP_5,132,1,48,37,2046610992
17,19,5,ISIP_5,133,1,48,29,2047108044
17,19,5,ISIP_5,134,1,48,24,2047631544
17,19,5,ISIP_5,135,1,48,25,2048126656
17,19,5,ISIP_5,136,1,48,42,2048616696
17,19,5,ISIP_5,137,1,48,30,2049076188
17,19,5,ISIP_5,138,1,48,35,2049605136
17,19,5,ISIP_5,139,1,48,44,2050112872
17,19,5,ISIP_5,140,1,48,35,2050587980
17,19,5,ISIP_5,141,1,48,47,2051096980
17,19,5,ISIP_5,142,1,48,43,2051569924
17,19,5,ISIP_5,143,1,48,27,2052094232
17,19,5,ISIP_5,144,1,48,51,2052621536
17,19,5,ISIP_5,145,1,48,50,2053124864
17,19,5,ISIP_5,146,1,48,50,2053621696
17,19,5,ISIP_5,147,1,48,32,2054088744
17,19,5,ISIP_5,148,1,48,48,2054604992
17,19,5,ISIP_5,149,1,48,52,2055128628
17,19,5,ISIP_5,150,1,48,30,2055593652
17,19,5,ISIP_5,151,1,48,39,2056119464
17,19,5,ISIP_5,152,1,48,42,2056599464
17,19,5,ISIP_5,153,1,48,38,2057098020
17,19,5,ISIP_5,154,1,48,38,2057614416
17,19,5,ISIP_5,155,1,48,46,2058121332
17,19,5,ISIP_5,156,1,48,47,2058630712
17,19,5,ISIP_5,157,1,48,29,2059117532
17,19,5,ISIP_5,158,1,48,36,2059648496
17,19,5,ISIP_5,159,1,48,29,2060207632
17,19,5,ISIP_5,160,1,48,33,2060744560
17,19,5,ISIP_5,161,1,48,47,2061227660
17,19,5,ISIP_5,162,1,48,33,2061722976
17,19,5,ISIP_5,163,1,48,38,2062247988
17,19,5,ISIP_5,164,1,48,48,2062749500
17,19,5,ISIP_5,165,1,48,45,2063268252
17,19,5,ISIP_5,166,1,48,47,2063778748
17,19,5,ISIP_5,167,1,48,35,2064289252
17,19,5,ISIP_5,168,1,48,45,2064814608
17,19,5,ISIP_5,169,1,48,49,2065349524
17,19,5,ISIP_5,170,1,48,44,2065888924
17,19,5,ISIP_5,171,1,48,40,2066385604
17,19,5,ISIP_5,172,1,48,43,2066891180
17,19,5,ISIP_5,173,1,48,43,2067427368
17,19,5,ISIP_5,174,1,48,53,2067944284
17,19,5,ISIP_5,175,1,48,46,2068476660
17,19,5,ISIP_5,176,1,48,54,2069005832
17,19,5,ISIP_5,177,1,48,47,2069524548
17,19,5,ISIP_5,178,1,48,41,2070051248
17,19,5,ISIP_5,179,1,48,44,2070553904
17,19,5,ISIP_5,180,1,48,50,2071079860
17,19,5,ISIP_5,181,1,48,39,2071610600
17,19,5,ISIP_5,182,1,48,53,2072114000
17,19,5,ISIP_5,183,1,48,43,2072632788
17,19,5,ISIP_5,184,1,48,50,2073169952
17,19,5,ISIP_5,185,1,48,48,2073709416
17,19,5,ISIP_5,186,1,48,50,2074269740
17,19,5,ISIP_5,187,1,48,45,2074785536
17,19,5,ISIP_5,188,1,48,40,2075289068
17,19,5,ISIP_5,189,1,48,46,2075800764
17,19,5,ISIP_5,190,1,48,48,2076312684
17,19,5,ISIP_5,191,1,48,49,2076831712
17,19,5,ISIP_5,192,1,48,45,2077366632
17,19,5,ISIP_5,193,1,48,54,2077889680
17,19,5,ISIP_5,0,9999,9999,9999,1998251116
17,19,5,ISIP_5,1,9999,9999,9999,1998750788
17,19,5,ISIP_5,2,9999,9999,9999,1999250488
17,19,5,ISIP_5,3,9999,9999,9999,1999750260
17,19,5,ISIP_5,4,9999,9999,9999,2000250928
17,19,5,ISIP_5,5,9999,9999,9999,2000750680
17,19,5,ISIP_5,6,9999,9999,9999,2001250356
17,19,5,ISIP_5,7,9999,9999,9999,2001750104
17,19,5,ISIP_5,8,9999,9999,9999,2002250828
17,19,5,ISIP_5,9,9999,9999,9999,2002750580
17,19,5,ISIP_5,10,9999,9999,9999,2003250256
17,19,5,ISIP_5,11,9999,9999,9999,2003750976
17,19,5,ISIP_5,12,9999,9999,9999,2004250720
17,19,5,ISIP_5,13,9999,9999,9999,2004750396
17,19,5,ISIP_5,14,9999,9999,9999,2005250152
17,19,5,ISIP_5,15,9999,9999,9999,2005750868
17,19,5,ISIP_5,16,9999,9999,9999,2006250544
17,19,5,ISIP_5,17,9999,9999,9999,2006750296
17,19,5,ISIP_5,18,9999,9999,9999,2007251016
17,19,5,ISIP_5,19,9999,9999,9999,2007750768
17,19,5,ISIP_5,20,9999,9999,9999,2008250444
17,19,5,ISIP_5,21,9999,9999,9999,2008750196
17,19,5,ISIP_5,22,9999,9999,9999,2009250916
17,19,5,ISIP_5,23,9999,9999,9999,2009750648
17,19,5,ISIP_5,24,9999,9999,9999,2010250324
17,19,5,ISIP_5,25,9999,9999,9999,2010751040
17,19,5,ISIP_5,26,9999,9999,9999,2011250796
17,19,5,ISIP_5,27,9999,9999,9999,2011750472
17,19,5,ISIP_5,28,9999,9999,9999,2012250224
17,19,5,ISIP_5,29,9999,9999,9999,2012750944
17,19,5,ISIP_5,30,9999,9999,9999,2013250624
17,19,5,ISIP_5,31,9999,9999,9999,2013750372
17,19,5,ISIP_5,32,9999,9999,9999,2014251088
17,19,5,ISIP_5,33,9999,9999,9999,2014750840
17,19,5,ISIP_5,34,9999,9999,9999,2015250520
17,19,5,ISIP_5,35,9999,9999,9999,2015750196
17,19,5,ISIP_5,36,9999,9999,9999,2016250988
17,19,5,ISIP_5,37,9999,9999,9999,2016750664
17,19,5,ISIP_5,38,9999,9999,9999,2017250424
17,19,5,ISIP_5,39,9999,9999,9999,2017750092
17,19,5,ISIP_5,40,9999,9999,9999,2018250816
17,19,5,ISIP_5,41,9999,9999,9999,2018750568
17,19,5,ISIP_5,42,9999,9999,9999,2019250236
17,19,5,ISIP_5,43,9999,9999,9999,2019751028
17,19,5,ISIP_5,44,9999,9999,9999,2020250676
17,19,5,ISIP_5,45,9999,9999,9999,2020750424
17,19,5,ISIP_5,46,9999,9999,9999,2021250096
17,19,5,ISIP_5,47,9999,9999,9999,2021750888
17,19,5,ISIP_5,48,9999,9999,9999,2022250560
17,19,5,ISIP_5,49,9999,9999,9999,2022750308
17,19,5,ISIP_5,50,9999,9999,9999,2023251024
17,19,5,ISIP_5,51,9999,9999,9999,2023750772
17,19,5,ISIP_5,52,9999,9999,9999,2024250444
17,19,5,ISIP_5,53,9999,9999,9999,2024750132
17,19,5,ISIP_5,54,9999,9999,9999,2025250920
17,19,5,ISIP_5,55,9999,9999,9999,2025750592
17,19,5,ISIP_5,56,9999,9999,9999,2026250324
17,19,5,ISIP_5,57,9999,9999,9999,2026751040
17,19,5,ISIP_5,58,9999,9999,9999,2027250804
17,19,5,ISIP_5,59,9999,9999,9999,2027750476
17,19,5,ISIP_5,60,9999,9999,9999,2028250220
17,19,5,ISIP_5,61,9999,9999,9999,2028750920
17,19,5,ISIP_5,62,9999,9999,9999,2029250608
17,19,5,ISIP_5,63,9999,9999,9999,2029750340
17,19,5,ISIP_5,64,9999,9999,9999,2030251056
17,19,5,ISIP_5,65,9999,9999,9999,2030750780
17,19,5,ISIP_5,66,9999,9999,9999,2031250540
17,19,5,ISIP_5,67,9999,9999,9999,2031750212
17,19,5,ISIP_5,68,9999,9999,9999,2032250928
17,19,5,ISIP_5,69,9999,9999,9999,2032750676
17,19,5,ISIP_5,70,9999,9999,9999,2033250420
17,19,5,ISIP_5,71,9999,9999,9999,2033750092
17,19,5,ISIP_5,72,9999,9999,9999,2034250808
17,19,5,ISIP_5,73,9999,9999,9999,2034750556
17,19,5,ISIP_5,74,9999,9999,9999,2035250228
17,19,5,ISIP_5,75,9999,9999,9999,2035751020
17,19,5,ISIP_5,76,9999,9999,9999,2036250692
17,19,5,ISIP_5,77,9999,9999,9999,2036750440
17,19,5,ISIP_5,78,9999,9999,9999,2037250112
17,19,5,ISIP_5,79,9999,9999,9999,2037750900
17,19,5,ISIP_5,80,9999,9999,9999,2038250572
17,19,5,ISIP_5,81,9999,9999,9999,2038750320
17,19,5,ISIP_5,82,9999,9999,9999,2039251036
17,19,5,ISIP_5,83,9999,9999,9999,2039750708
17,19,5,ISIP_5,84,9999,9999,9999,2040250456
17,19,5,ISIP_5,85,9999,9999,9999,2040750200
17,19,5,ISIP_5,86,9999,9999,9999,2041250916
17,19,5,ISIP_5,87,9999,9999,9999,2041750636
17,19,5,ISIP_5,88,9999,9999,9999,2042250308
17,19,5,ISIP_5,89,9999,9999,9999,2042751084
17,19,5,ISIP_5,90,9999,9999,9999,2043250772
17,19,5,ISIP_5,91,9999,9999,9999,2043750504
17,19,5,ISIP_5,92,9999,9999,9999,2044250176
17,19,5,ISIP_5,93,9999,9999,9999,2044750968
17,19,5,ISIP_5,94,9999,9999,9999,2045250640
17,19,5,ISIP_5,95,9999,9999,9999,2045750388
17,19,5,ISIP_5,96,9999,9999,9999,2046251104
17,19,5,ISIP_5,97,9999,9999,9999,2046750776
17,19,5,ISIP_5,98,9999,9999,9999,2047250520
17,19,5,ISIP_5,99,9999,9999,9999,2047750196
17,19,5,ISIP_5,100,9999,9999,9999,2048250984
17,19,5,ISIP_5,101,9999,9999,9999,2048750656
17,19,5,ISIP_5,102,9999,9999,9999,2049250404
17,19,5,ISIP_5,103,9999,9999,9999,2049750072
17,19,5,ISIP_5,104,9999,9999,9999,2050250864
17,19,5,ISIP_5,105,9999,9999,9999,2050750536
17,19,5,ISIP_5,106,9999,9999,9999,2051250284
17,19,5,ISIP_5,107,9999,9999,9999,2051751000
17,19,5,ISIP_5,108,9999,9999,9999,2052250720
17,19,5,ISIP_5,109,9999,9999,9999,2052750392
17,19,5,ISIP_5,110,9999,9999,9999,2053250140
17,19,5,ISIP_5,111,9999,9999,9999,2053750856
17,19,5,ISIP_5,112,9999,9999,9999,2054250604
17,19,5,ISIP_5,113,9999,9999,9999,2054750276
17,19,5,ISIP_5,114,9999,9999,9999,2055250992
17,19,5,ISIP_5,115,9999,9999,9999,2055750740
17,19,5,ISIP_5,116,9999,9999,9999,2056250484
17,19,5,ISIP_5,117,9999,9999,9999,2056750156
17,19,5,ISIP_5,118,9999,9999,9999,2057250872
17,19,5,ISIP_5,119,9999,9999,9999,2057750616
17,19,5,ISIP_5,120,9999,9999,9999,2058250292
17,19,5,ISIP_5,121,9999,9999,9999,2058751080
17,19,5,ISIP_5,122,9999,9999,9999,2059250752
17,19,5,ISIP_5,123,9999,9999,9999,2059750500
17,19,5,ISIP_5,124,9999,9999,9999,2060250188
17,19,5,ISIP_5,125,9999,9999,9999,2060750900
17,19,5,ISIP_5,126,9999,9999,9999,2061250648
17,19,5,ISIP_5,127,9999,9999,9999,2061750324
17,19,5,ISIP_5,128,9999,9999,9999,2062251116
17,19,5,ISIP_5,129,9999,9999,9999,2062750784
17,19,5,ISIP_5,130,9999,9999,9999,2063250512
17,19,5,ISIP_5,131,9999,9999,9999,2063750260
17,19,5,ISIP_5,132,9999,9999,9999,2064250976
17,19,5,ISIP_5,133,9999,9999,9999,2064750648
17,19,5,ISIP_5,134,9999,9999,9999,2065250396
17,19,5,ISIP_5,135,9999,9999,9999,2065750068
17,19,5,ISIP_5,136,9999,9999,9999,2066250856
17,19,5,ISIP_5,137,9999,9999,9999,2066750532
17,19,5,ISIP_5,138,9999,9999,9999,2067250276
17,19,5,ISIP_5,139,9999,9999,9999,2067750992
17,19,5,ISIP_5,140,9999,9999,9999,2068250740
17,19,5,ISIP_5,141,9999,9999,9999,2068750412
17,19,5,ISIP_5,142,9999,9999,9999,2069250160
17,19,5,ISIP_5,143,9999,9999,9999,2069750876
17,19,5,ISIP_5,144,9999,9999,9999,2070250548
17,19,5,ISIP_5,145,9999,9999,9999,2070750296
17,19,5,ISIP_5,146,9999,9999,9999,2071251012
17,19,5,ISIP_5,147,9999,9999,9999,2071750756
17,19,5,ISIP_5,148,9999,9999,9999,2072250428
17,19,5,ISIP_5,149,9999,9999,9999,2072750176
17,19,5,ISIP_5,150,9999,9999,9999,2073250908
17,19,5,ISIP_5,151,9999,9999,9999,2073750628
17,19,5,ISIP_5,152,9999,9999,9999,2074250308
17,19,5,ISIP_5,153,9999,9999,9999,2074751072
17,19,5,ISIP_5,154,9999,9999,9999,2075250744
17,19,5,ISIP_5,155,9999,9999,9999,2075750492
17,19,5,ISIP_5,156,9999,9999,9999,2076250164
17,19,5,ISIP_5,157,9999,9999,9999,2076750956
17,19,5,ISIP_5,158,9999,9999,9999,2077250628
17,19,5,ISIP_5,159,9999,9999,9999,2077750372
17,20,3,ISIP_8,0,5,42,127,2102786316
17,20,3,ISIP_8,1,5,42,127,2103586368
17,20,3,ISIP_8,2,5,42,127,2104386048
17,20,3,ISIP_8,3,1,48,40,2104402380
17,20,3,ISIP_8,4,1,48,47,2105128020
17,20,3,ISIP_8,5,5,42,127,2105185700
17,20,3,ISIP_8,6,1,48,48,2105930144
17,20,3,ISIP_8,7,5,42,127,2105986404
17,20,3,ISIP_8,8,1,48,44,2106712624
17,20,3,ISIP_8,9,5,42,127,2106786236
17,20,3,ISIP_8,10,1,48,43,2107490180
17,20,3,ISIP_8,11,5,42,127,2107585952
17,20,3,ISIP_8,12,1,48,44,2108287672
17,20,3,ISIP_8,13,5,42,127,2108385628
17,20,3,ISIP_8,14,1,48,48,2109053280
17,20,3,ISIP_8,15,5,42,127,2109186464
17,20,3,ISIP_8,16,1,48,46,2109832480
17,20,3,ISIP_8,17,5,42,127,2109986120
17,20,3,ISIP_8,18,1,48,48,2110636416
17,20,3,ISIP_8,19,5,42,127,2110786004
17,20,3,ISIP_8,20,1,48,47,2111453024
17,20,3,ISIP_8,21,5,42,127,2111585660
17,20,3,ISIP_8,22,1,48,49,2112234388
17,20,3,ISIP_8,23,5,42,127,2112386368
17,20,3,ISIP_8,24,1,48,47,2113090948
17,20,3,ISIP_8,25,5,42,127,2113186212
17,20,3,ISIP_8,26,1,48,45,2113910396
17,20,3,ISIP_8,27,5,42,127,2113986020
17,20,3,ISIP_8,28,1,48,48,2114703632
17,20,3,ISIP_8,29,5,42,127,2114785680
17,20,3,ISIP_8,30,1,48,47,2115470512
17,20,3,ISIP_8,31,5,42,127,2115586516
17,20,3,ISIP_8,32,1,48,46,2116281840
17,20,3,ISIP_8,33,5,42,127,2116386028
17,20,3,ISIP_8,34,1,48,43,2117082396
17,20,3,ISIP_8,35,5,42,127,2117185836
17,20,3,ISIP_8,36,1,48,44,2117931712
17,20,3,ISIP_8,37,5,42,127,2117985584
17,20,3,ISIP_8,38,1,48,42,2118726668
17,20,3,ISIP_8,39,5,42,127,2118786584
17,20,3,ISIP_8,40,1,48,38,2119528336
17,20,3,ISIP_8,41,5,42,127,2119586044
17,20,3,ISIP_8,42,1,48,45,2120282820
17,20,3,ISIP_8,43,5,42,127,2120385984
17,20,3,ISIP_8,44,1,48,44,2121109512
17,20,3,ISIP_8,45,5,42,127,2121185512
17,20,3,ISIP_8,46,1,48,41,2121892540
17,20,3,ISIP_8,47,5,42,127,2121987016
17,20,3,ISIP_8,48,1,48,42,2122671812
17,20,3,ISIP_8,49,5,42,127,2122786228
17,20,3,ISIP_8,50,1,48,45,2123493052
17,20,3,ISIP_8,51,5,42,127,2123586200
17,20,3,ISIP_8,52,1,48,45,2124294728
17,20,3,ISIP_8,53,5,42,127,2124385708
17,20,3,ISIP_8,54,1,48,41,2125099612
17,20,3,ISIP_8,55,5,42,127,2125186488
17,20,3,ISIP_8,56,1,48,41,2125865220
17,20,3,ISIP_8,57,5,42,127,2125986080
17,20,3,ISIP_8,58,1,48,34,2126687124
17,20,3,ISIP_8,59,1,48,45,2127560432
17,20,3,ISIP_8,60,1,48,47,2128333504
17,20,3,ISIP_8,61,1,48,47,2129139808
17,20,3,ISIP_8,62,1,48,46,2129929232
17,20,3,ISIP_8,63,1,48,46,2130729480
17,20,3,ISIP_8,64,1,48,49,2131546308
17,20,3,ISIP_8,65,1,48,39,2132386996
17,20,3,ISIP_8,66,1,48,43,2133238996
17,20,3,ISIP_8,67,1,48,24,2133303860
17,20,3,ISIP_8,68,1,48,38,2134132684
17,20,3,ISIP_8,69,1,48,47,2135008384
17,20,3,ISIP_8,70,1,48,46,2135860308
17,20,3,ISIP_8,71,1,48,44,2136758556
17,20,3,ISIP_8,72,1,48,42,2137677676
17,20,3,ISIP_8,73,1,48,23,2137743444
17,20,3,ISIP_8,74,1,48,42,2138543272
17,20,3,ISIP_8,75,1,48,47,2139497496
17,20,3,ISIP_8,76,1,48,27,2139557680
17,20,3,ISIP_8,77,1,48,48,2140359804
17,20,3,ISIP_8,78,1,48,34,2140414008
17,20,3,ISIP_8,79,1,48,46,2141214928
17,20,3,ISIP_8,80,1,48,31,2141267696
17,20,3,ISIP_8,81,1,48,43,2142116960
17,20,3,ISIP_8,82,1,48,28,2142166964
17,20,3,ISIP_8,83,1,48,51,2143062056
17,20,3,ISIP_8,84,1,48,35,2143121768
17,20,3,ISIP_8,85,1,48,45,2143928020
17,20,3,ISIP_8,86,1,48,37,2143972652
17,20,3,ISIP_8,87,1,48,45,2144751624
17,20,3,ISIP_8,88,1,48,27,2144806112
17,20,3,ISIP_8,89,1,48,48,2145584184
17,20,3,ISIP_8,90,1,48,35,2145630756
17,20,3,ISIP_8,91,1,48,50,2146378964
17,20,3,ISIP_8,92,1,48,36,2146427772
17,20,3,ISIP_8,93,1,48,50,2147244996
17,20,3,ISIP_8,94,1,48,40,2147290976
17,20,3,ISIP_8,95,1,48,51,2148047024
17,20,3,ISIP_8,96,1,48,43,2148081724
17,20,3,ISIP_8,97,1,48,53,2148860024
17,20,3,ISIP_8,98,1,48,41,2148907044
17,20,3,ISIP_8,99,1,48,49,2149684296
17,20,3,ISIP_8,100,1,48,40,2149730940
17,20,3,ISIP_8,101,1,48,50,2150510884
17,20,3,ISIP_8,102,1,48,39,2150554944
17,20,3,ISIP_8,103,1,48,47,2151363780
17,20,3,ISIP_8,104,1,48,50,2152227352
17,20,3,ISIP_8,105,1,48,41,2152263544
17,20,3,ISIP_8,106,1,48,49,2153053644
17,20,3,ISIP_8,107,1,48,38,2153087448
17,20,3,ISIP_8,108,1,48,49,2153880328
17,20,3,ISIP_8,109,1,48,40,2153917572
17,20,3,ISIP_8,110,1,48,49,2154708784
17,20,3,ISIP_8,111,1,48,38,2155590744
17,20,3,ISIP_8,112,1,48,49,2156472032
17,20,3,ISIP_8,113,1,48,38,2156511140
17,20,3,ISIP_8,114,1,48,46,2157233584
17,20,3,ISIP_8,115,1,48,49,2158096332
17,20,3,ISIP_8,116,1,48,38,2158131260
17,20,3,ISIP_8,117,1,48,47,2158918368
17,20,3,ISIP_8,118,1,48,39,2158947992
17,20,3,ISIP_8,119,1,48,48,2159715236
17,20,3,ISIP_8,120,1,48,39,2159747848
17,20,3,ISIP_8,121,1,48,45,2160516512
17,20,3,ISIP_8,122,1,48,51,2161367268
17,20,3,ISIP_8,123,1,48,40,2161400472
17,20,3,ISIP_8,124,1,48,47,2162222900
17,20,3,ISIP_8,125,1,48,45,2163071464
17,20,3,ISIP_8,126,1,48,45,2163903628
17,20,3,ISIP_8,127,1,48,45,2164793108
17,20,3,ISIP_8,128,1,48,46,2165652504
17,20,3,ISIP_8,129,1,48,50,2166544096
17,20,3,ISIP_8,130,1,48,40,2166578948
17,20,3,ISIP_8,131,1,48,48,2167393236
17,20,3,ISIP_8,132,1,48,40,2167426596
17,20,3,ISIP_8,133,1,48,45,2168287808
17,20,3,ISIP_8,134,1,48,37,2168330348
17,20,3,ISIP_8,135,1,48,46,2169152924
17,20,3,ISIP_8,136,1,48,46,2170065740
17,20,3,ISIP_8,137,1,48,47,2170940892
17,20,3,ISIP_8,138,1,48,48,2171785192
17,20,3,ISIP_8,139,1,48,40,2171815368
17,20,3,ISIP_8,140,1,48,55,2172669160
17,20,3,ISIP_8,141,1,48,46,2172704752
17,20,3,ISIP_8,142,1,48,47,2173541220
17,20,3,ISIP_8,143,1,48,47,2174421768
17,20,3,ISIP_8,144,1,48,46,2175320588
17,20,3,ISIP_8,145,1,48,51,2176216372
17,20,3,ISIP_8,146,1,48,38,2176249652
17,20,3,ISIP_8,147,1,48,47,2177105680
17,20,3,ISIP_8,148,1,48,49,2178042692
17,20,3,ISIP_8,149,1,48,50,2178992168
17,20,3,ISIP_8,150,1,48,38,2179028436
17,20,3,ISIP_8,151,1,48,44,2179874680
17,20,3,ISIP_8,152,1,48,36,2179909912
17,20,3,ISIP_8,153,1,48,48,2180725840
17,20,3,ISIP_8,154,1,48,37,2180761984
17,20,3,ISIP_8,155,1,48,42,2181583440
17,20,3,ISIP_8,156,1,48,47,2182454032
17,20,3,ISIP_8,157,1,48,37,2182491352
17,20,3,ISIP_8,158,1,48,49,2183302948
17,20,3,ISIP_8,159,1,48,41,2183336480
17,20,3,ISIP_8,160,1,48,46,2184176008
17,20,3,ISIP_8,161,1,48,36,2184210560
17,20,3,ISIP_8,162,1,48,32,2184954060
17,20,3,ISIP_8,163,1,48,41,2185792316
17,20,3,ISIP_8,164,1,48,40,2186602504
17,20,3,ISIP_8,165,1,48,42,2187410592
17,20,3,ISIP_8,166,1,48,27,2187460252
17,20,3,ISIP_8,167,1,48,41,2188262292
17,20,3,ISIP_8,168,1,48,28,2188312900
17,20,3,ISIP_8,169,1,48,40,2189097764
17,20,3,ISIP_8,170,1,48,28,2189149044
17,20,3,ISIP_8,171,1,48,44,2189920476
17,20,3,ISIP_8,172,1,48,35,2189974616
17,20,3,ISIP_8,173,1,48,50,2190756492
17,20,3,ISIP_8,174,1,48,50,2191517464
17,20,3,ISIP_8,175,1,48,38,2191559936
17,20,3,ISIP_8,176,1,48,47,2192316128
17,20,3,ISIP_8,177,1,48,36,2192359192
17,20,3,ISIP_8,178,1,48,48,2193151528
17,20,3,ISIP_8,179,1,48,39,2193193932
17,20,3,ISIP_8,180,1,48,51,2193969008
17,20,3,ISIP_8,181,1,48,39,2194016268
17,20,3,ISIP_8,182,1,48,48,2194839168
17,20,3,ISIP_8,183,1,48,36,2194881788
17,20,3,ISIP_8,184,1,48,49,2195688904
17,20,3,ISIP_8,185,1,48,38,2195733012
17,20,3,ISIP_8,186,1,48,45,2196429176
17,20,3,ISIP_8,187,1,48,35,2196479184
17,20,3,ISIP_8,188,1,48,49,2197290632
17,20,3,ISIP_8,189,1,48,39,2197330784
17,20,3,ISIP_8,190,1,48,46,2198131632
17,20,3,ISIP_8,191,1,48,32,2198171664
17,20,3,ISIP_8,192,1,48,49,2198976620
17,20,3,ISIP_8,193,1,48,37,2199020276
17,20,3,ISIP_8,194,1,48,47,2199799472
17,20,3,ISIP_8,195,1,48,33,2199841640
17,20,3,ISIP_8,196,1,48,48,2200615532
17,20,3,ISIP_8,197,1,48,37,2200659196
17,20,3,ISIP_8,198,1,48,48,2201439436
17,20,3,ISIP_8,199,1,48,37,2201489740
17,20,3,ISIP_8,200,1,48,47,2202287180
17,20,3,ISIP_8,201,1,48,37,2202335692
17,20,3,ISIP_8,202,1,48,49,2203100100
17,20,3,ISIP_8,203,1,48,41,2203144436
17,20,3,ISIP_8,204,1,48,47,2203930572
17,20,3,ISIP_8,205,1,48,38,2203983420
17,20,3,ISIP_8,206,1,48,46,2204760596
17,20,3,ISIP_8,207,1,48,36,2204820336
17,20,3,ISIP_8,208,1,48,54,2205605800
17,20,3,ISIP_8,209,1,48,37,2205667084
17,20,3,ISIP_8,210,1,48,52,2206455168
17,20,3,ISIP_8,211,1,48,47,2206511596
17,20,3,ISIP_8,212,1,48,48,2207280192
17,20,3,ISIP_8,213,1,48,40,2207330192
17,20,3,ISIP_8,214,1,48,57,2208118572
17,20,3,ISIP_8,215,1,48,49,2208933484
17,20,3,ISIP_8,216,1,48,39,2208984012
17,20,3,ISIP_8,217,1,48,49,2209760896
17,20,3,ISIP_8,218,1,48,36,2209812024
17,20,3,ISIP_8,219,1,48,46,2210562764
17,20,3,ISIP_8,220,1,48,36,2210607096
17,20,3,ISIP_8,221,1,48,48,2211405556
17,20,3,ISIP_8,222,1,48,39,2211455196
17,20,3,ISIP_8,223,1,48,48,2212199592
17,20,3,ISIP_8,224,1,48,38,2212241156
17,20,3,ISIP_8,225,1,48,45,2213151720
17,20,3,ISIP_8,226,1,48,35,2213199580
17,20,3,ISIP_8,227,1,48,40,2213942844
17,20,3,ISIP_8,228,1,48,48,2214739212
17,20,3,ISIP_8,229,1,48,36,2214788860
17,20,3,ISIP_8,230,1,48,47,2215560424
17,20,3,ISIP_8,231,1,48,37,2215615468
17,20,3,ISIP_8,232,1,48,43,2216358588
17,20,3,ISIP_8,233,1,48,32,2216416600
17,20,3,ISIP_8,234,1,48,51,2217179724
17,20,3,ISIP_8,235,1,48,40,2217245276
17,20,3,ISIP_8,236,1,48,39,2217967256
17,20,3,ISIP_8,237,1,48,27,2218018552
17,20,3,ISIP_8,238,1,48,46,2218758232
17,20,3,ISIP_8,239,1,48,32,2218811088
17,20,3,ISIP_8,240,1,48,40,2219548080
17,20,3,ISIP_8,241,1,48,44,2220315028
17,20,3,ISIP_8,242,1,48,29,2220363020
17,20,3,ISIP_8,243,1,48,39,2221112116
17,20,3,ISIP_8,244,1,48,47,2221909532
17,20,3,ISIP_8,245,1,48,34,2221959692
17,20,3,ISIP_8,246,1,48,38,2222745704
17,20,3,ISIP_8,0,9999,9999,9999,2102784104
17,20,3,ISIP_8,1,9999,9999,9999,2103583860
17,20,3,ISIP_8,2,9999,9999,9999,2104383540
17,20,3,ISIP_8,3,9999,9999,9999,2105183340
17,20,3,ISIP_8,4,9999,9999,9999,2105984120
17,20,3,ISIP_8,5,9999,9999,9999,2106783800
17,20,3,ISIP_8,6,9999,9999,9999,2107583536
17,20,3,ISIP_8,7,9999,9999,9999,2108383340
17,20,3,ISIP_8,8,9999,9999,9999,2109184104
17,20,3,ISIP_8,9,9999,9999,9999,2109983836
17,20,3,ISIP_8,10,9999,9999,9999,2110783572
17,20,3,ISIP_8,11,9999,9999,9999,2111583300
17,20,3,ISIP_8,12,9999,9999,9999,2112384080
17,20,3,ISIP_8,13,9999,9999,9999,2113183852
17,20,3,ISIP_8,14,9999,9999,9999,2113983584
17,20,3,ISIP_8,15,9999,9999,9999,2114783320
17,20,3,ISIP_8,16,9999,9999,9999,2115584084
17,20,3,ISIP_8,17,9999,9999,9999,2116383816
17,20,3,ISIP_8,18,9999,9999,9999,2117183548
17,20,3,ISIP_8,19,9999,9999,9999,2117983296
17,20,3,ISIP_8,20,9999,9999,9999,2118784076
17,20,3,ISIP_8,21,9999,9999,9999,2119583832
17,20,3,ISIP_8,22,9999,9999,9999,2120383552
17,20,3,ISIP_8,23,9999,9999,9999,2121183300
17,20,3,ISIP_8,24,9999,9999,9999,2121984080
17,20,3,ISIP_8,25,9999,9999,9999,2122783796
17,20,3,ISIP_8,26,9999,9999,9999,2123583544
17,20,3,ISIP_8,27,9999,9999,9999,2124383352
17,20,3,ISIP_8,28,9999,9999,9999,2125184056
17,20,3,ISIP_8,29,9999,9999,9999,2125983796
17,20,3,ISIP_8,30,9999,9999,9999,2126783544
17,20,3,ISIP_8,31,9999,9999,9999,2127583348
17,20,3,ISIP_8,32,9999,9999,9999,2128384048
17,20,3,ISIP_8,33,9999,9999,9999,2129183848
17,20,3,ISIP_8,34,9999,9999,9999,2129983576
17,20,3,ISIP_8,35,9999,9999,9999,2130783308
17,20,3,ISIP_8,36,9999,9999,9999,2131584080
17,20,3,ISIP_8,37,9999,9999,9999,2132383840
17,20,3,ISIP_8,38,9999,9999,9999,2133183568
17,20,3,ISIP_8,39,9999,9999,9999,2133983324
17,20,3,ISIP_8,40,9999,9999,9999,2134784100
17,20,3,ISIP_8,41,9999,9999,9999,2135583828
17,20,3,ISIP_8,42,9999,9999,9999,2136383556
17,20,3,ISIP_8,43,9999,9999,9999,2137183284
17,20,3,ISIP_8,44,9999,9999,9999,2137984112
17,20,3,ISIP_8,45,9999,9999,9999,2138783864
17,20,3,ISIP_8,46,9999,9999,9999,2139583584
17,20,3,ISIP_8,47,9999,9999,9999,2140383312
17,20,3,ISIP_8,48,9999,9999,9999,2141184072
17,20,3,ISIP_8,49,9999,9999,9999,2141983852
17,20,3,ISIP_8,50,9999,9999,9999,2142783560
17,20,3,ISIP_8,51,9999,9999,9999,2143583336
17,20,3,ISIP_8,52,9999,9999,9999,2144384092
17,20,3,ISIP_8,53,9999,9999,9999,2145183820
17,20,3,ISIP_8,54,9999,9999,9999,2145983604
17,20,3,ISIP_8,55,9999,9999,9999,2146783312
17,20,3,ISIP_8,56,9999,9999,9999,2147584064
17,20,3,ISIP_8,57,9999,9999,9999,2148383844
17,20,3,ISIP_8,58,9999,9999,9999,2149183548
17,20,3,ISIP_8,59,9999,9999,9999,2149983332
17,20,3,ISIP_8,60,9999,9999,9999,2150784084
17,20,3,ISIP_8,61,9999,9999,9999,2151583836
17,20,3,ISIP_8,62,9999,9999,9999,2152383544
17,20,3,ISIP_8,63,9999,9999,9999,2153183284
17,20,3,ISIP_8,64,9999,9999,9999,2153984092
17,20,3,ISIP_8,65,9999,9999,9999,2154783820
17,20,3,ISIP_8,66,9999,9999,9999,2155583552
17,20,3,ISIP_8,67,9999,9999,9999,2156383280
17,20,3,ISIP_8,68,9999,9999,9999,2157184108
17,20,3,ISIP_8,69,9999,9999,9999,2157983860
17,20,3,ISIP_8,70,9999,9999,9999,2158783568
17,20,3,ISIP_8,71,9999,9999,9999,2159583348
17,20,3,ISIP_8,72,9999,9999,9999,2160384100
17,20,3,ISIP_8,73,9999,9999,9999,2161183828
17,20,3,ISIP_8,74,9999,9999,9999,2161983536
17,20,3,ISIP_8,75,9999,9999,9999,2162783336
17,20,3,ISIP_8,76,9999,9999,9999,2163584112
17,20,3,ISIP_8,77,9999,9999,9999,2164383788
17,20,3,ISIP_8,78,9999,9999,9999,2165183592
17,20,3,ISIP_8,79,9999,9999,9999,2165983320
17,20,3,ISIP_8,80,9999,9999,9999,2166784072
17,20,3,ISIP_8,81,9999,9999,9999,2167583852
17,20,3,ISIP_8,82,9999,9999,9999,2168383576
17,20,3,ISIP_8,83,9999,9999,9999,2169183304
17,20,3,ISIP_8,84,9999,9999,9999,2169984084
17,20,3,ISIP_8,85,9999,9999,9999,2170783836
17,20,3,ISIP_8,86,9999,9999,9999,2171583564
17,20,3,ISIP_8,87,9999,9999,9999,2172383348
17,20,3,ISIP_8,88,9999,9999,9999,2173184100
17,20,3,ISIP_8,89,9999,9999,9999,2173983828
17,20,3,ISIP_8,90,9999,9999,9999,2174783556
17,20,3,ISIP_8,91,9999,9999,9999,2175583280
17,20,3,ISIP_8,92,9999,9999,9999,2176384112
17,20,3,ISIP_8,93,9999,9999,9999,2177183800
17,20,3,ISIP_8,94,9999,9999,9999,2177983536
17,20,3,ISIP_8,95,9999,9999,9999,2178783340
17,20,3,ISIP_8,96,9999,9999,9999,2179584092
17,20,3,ISIP_8,97,9999,9999,9999,2180383800
17,20,3,ISIP_8,98,9999,9999,9999,2181183580
17,20,3,ISIP_8,99,9999,9999,9999,2181983308
17,20,3,ISIP_8,100,9999,9999,9999,2182784060
17,20,3,ISIP_8,101,9999,9999,9999,2183583792
17,20,3,ISIP_8,102,9999,9999,9999,2184383572
17,20,3,ISIP_8,103,9999,9999,9999,2185183300
17,20,3,ISIP_8,104,9999,9999,9999,2185984072
17,20,3,ISIP_8,105,9999,9999,9999,2186783800
17,20,3,ISIP_8,106,9999,9999,9999,2187583580
17,20,3,ISIP_8,107,9999,9999,9999,2188383304
17,20,3,ISIP_8,108,9999,9999,9999,2189184056
17,20,3,ISIP_8,109,9999,9999,9999,2189983860
17,20,3,ISIP_8,110,9999,9999,9999,2190783588
17,20,3,ISIP_8,111,9999,9999,9999,2191583296
17,20,3,ISIP_8,112,9999,9999,9999,2192384048
17,20,3,ISIP_8,113,9999,9999,9999,2193183848
17,20,3,ISIP_8,114,9999,9999,9999,2193983556
17,20,3,ISIP_8,115,9999,9999,9999,2194783344
17,20,3,ISIP_8,116,9999,9999,9999,2195584096
17,20,3,ISIP_8,117,9999,9999,9999,2196383828
17,20,3,ISIP_8,118,9999,9999,9999,2197183536
17,20,3,ISIP_8,119,9999,9999,9999,2197983316
17,20,3,ISIP_8,120,9999,9999,9999,2198784072
17,20,3,ISIP_8,121,9999,9999,9999,2199583848
17,20,3,ISIP_8,122,9999,9999,9999,2200383556
17,20,3,ISIP_8,123,9999,9999,9999,2201183336
17,20,3,ISIP_8,124,9999,9999,9999,2201984092
17,20,3,ISIP_8,125,9999,9999,9999,2202783824
17,20,3,ISIP_8,126,9999,9999,9999,2203583604
17,20,3,ISIP_8,127,9999,9999,9999,2204383312
17,20,3,ISIP_8,128,9999,9999,9999,2205184064
17,20,3,ISIP_8,129,9999,9999,9999,2205983844
17,20,3,ISIP_8,130,9999,9999,9999,2206783552
17,20,3,ISIP_8,131,9999,9999,9999,2207583332
17,20,3,ISIP_8,132,9999,9999,9999,2208384104
17,20,3,ISIP_8,133,9999,9999,9999,2209183836
17,20,3,ISIP_8,134,9999,9999,9999,2209983544
17,20,3,ISIP_8,135,9999,9999,9999,2210783324
17,20,3,ISIP_8,136,9999,9999,9999,2211584076
17,20,3,ISIP_8,137,9999,9999,9999,2212383856
17,20,3,ISIP_8,138,9999,9999,9999,2213183596
17,20,3,ISIP_8,139,9999,9999,9999,2213983304
17,20,3,ISIP_8,140,9999,9999,9999,2214784080
17,20,3,ISIP_8,141,9999,9999,9999,2215583808
17,20,3,ISIP_8,142,9999,9999,9999,2216383588
17,20,3,ISIP_8,143,9999,9999,9999,2217183296
17,20,3,ISIP_8,144,9999,9999,9999,2217984052
17,20,3,ISIP_8,145,9999,9999,9999,2218783832
17,20,3,ISIP_8,146,9999,9999,9999,2219583536
17,20,3,ISIP_8,147,9999,9999,9999,2220383320
17,20,3,ISIP_8,148,9999,9999,9999,2221184092
17,20,3,ISIP_8,149,9999,9999,9999,2221983820
17,21,11,Pattern_Practice,0,5,42,127,2315668952
17,21,11,Pattern_Practice,1,5,42,127,2316168772
17,21,11,Pattern_Practice,2,5,42,127,2316669368
17,21,11,Pattern_Practice,3,5,42,127,2317168916
17,21,11,Pattern_Practice,4,5,42,127,2317668688
17,21,11,Pattern_Practice,5,1,48,36,2317704804
17,21,11,Pattern_Practice,6,5,42,127,2318168512
17,21,11,Pattern_Practice,7,1,48,39,2318197016
17,21,11,Pattern_Practice,8,5,42,127,2318669160
17,21,11,Pattern_Practice,9,1,48,46,2318750404
17,21,11,Pattern_Practice,10,5,42,127,2319168912
17,21,11,Pattern_Practice,11,1,38,47,2319186584
17,21,11,Pattern_Practice,12,1,48,36,2319630540
17,21,11,Pattern_Practice,13,5,42,127,2319668804
17,21,11,Pattern_Practice,14,1,48,41,2320125804
17,21,11,Pattern_Practice,15,5,42,127,2320169304
17,21,11,Pattern_Practice,16,1,48,49,2320662968
17,21,11,Pattern_Practice,17,5,42,127,2320668980
17,21,11,Pattern_Practice,18,5,42,127,2321168812
17,21,11,Pattern_Practice,19,1,38,63,2321179540
17,21,11,Pattern_Practice,20,5,42,127,2321668416
17,21,11,Pattern_Practice,21,1,48,44,2321670200
17,21,11,Pattern_Practice,22,1,48,41,2322145500
17,21,11,Pattern_Practice,23,5,42,127,2322169352
17,21,11,Pattern_Practice,24,1,48,46,2322657572
17,21,11,Pattern_Practice,25,5,42,127,2322668880
17,21,11,Pattern_Practice,26,5,42,127,2323168708
17,21,11,Pattern_Practice,27,1,38,57,2323206176
17,21,11,Pattern_Practice,28,1,48,39,2323665360
17,21,11,Pattern_Practice,29,5,42,127,2323669648
17,21,11,Pattern_Practice,30,1,38,57,2324141736
17,21,11,Pattern_Practice,31,5,42,127,2324169028
17,21,11,Pattern_Practice,32,1,48,42,2324638572
17,21,11,Pattern_Practice,33,5,42,127,2324668704
17,21,11,Pattern_Practice,34,1,38,59,2325135260
17,21,11,Pattern_Practice,35,5,42,127,2325168528
17,21,11,Pattern_Practice,36,1,48,44,2325643452
17,21,11,Pattern_Practice,37,5,42,127,2325669396
17,21,11,Pattern_Practice,38,1,48,50,2326150272
17,21,11,Pattern_Practice,39,5,42,127,2326168924
17,21,11,Pattern_Practice,40,5,42,127,2326668756
17,21,11,Pattern_Practice,41,1,48,56,2326685456
17,21,11,Pattern_Practice,42,5,42,127,2327169376
17,21,11,Pattern_Practice,43,1,38,55,2327173832
17,21,11,Pattern_Practice,44,1,48,49,2327660124
17,21,11,Pattern_Practice,45,5,42,127,2327669344
17,21,11,Pattern_Practice,46,1,48,50,2328145240
17,21,11,Pattern_Practice,47,5,42,127,2328168800
17,21,11,Pattern_Practice,48,5,42,127,2328668408
17,21,11,Pattern_Practice,49,1,48,60,2328674132
17,21,11,Pattern_Practice,50,5,42,127,2329169200
17,21,11,Pattern_Practice,51,1,38,64,2329179856
17,21,11,Pattern_Practice,52,1,48,41,2329668200
17,21,11,Pattern_Practice,53,5,42,127,2329670068
17,21,11,Pattern_Practice,54,1,48,47,2330161940
17,21,11,Pattern_Practice,55,5,42,127,2330168624
17,21,11,Pattern_Practice,56,1,48,47,2330652284
17,21,11,Pattern_Practice,57,5,42,127,2330669272
17,21,11,Pattern_Practice,58,1,38,57,2331143892
17,21,11,Pattern_Practice,59,5,42,127,2331169244
17,21,11,Pattern_Practice,60,1,48,46,2331629612
17,21,11,Pattern_Practice,61,5,42,127,2331668920
17,21,11,Pattern_Practice,62,1,48,48,2332119580
17,21,11,Pattern_Practice,63,5,42,127,2332168524
17,21,11,Pattern_Practice,64,1,48,59,2332628368
17,21,11,Pattern_Practice,65,5,42,127,2332669172
17,21,11,Pattern_Practice,66,1,38,54,2333166416
17,21,11,Pattern_Practice,67,5,42,127,2333169068
17,21,11,Pattern_Practice,68,1,38,20,2333264684
17,21,11,Pattern_Practice,69,1,48,45,2333652856
17,21,11,Pattern_Practice,70,5,42,127,2333668948
17,21,11,Pattern_Practice,71,1,48,46,2334140516
17,21,11,Pattern_Practice,72,5,42,127,2334168548
17,21,11,Pattern_Practice,73,1,48,49,2334638020
17,21,11,Pattern_Practice,74,5,42,127,2334669120
17,21,11,Pattern_Practice,75,1,38,69,2335152484
17,21,11,Pattern_Practice,76,5,42,127,2335168872
17,21,11,Pattern_Practice,77,1,48,42,2335659700
17,21,11,Pattern_Practice,78,5,42,127,2335668472
17,21,11,Pattern_Practice,79,1,48,40,2336155044
17,21,11,Pattern_Practice,80,5,42,127,2336169268
17,21,11,Pattern_Practice,81,1,48,48,2336654424
17,21,11,Pattern_Practice,82,5,42,127,2336669020
17,21,11,Pattern_Practice,83,5,42,127,2337168924
17,21,11,Pattern_Practice,84,1,38,63,2337187720
17,21,11,Pattern_Practice,85,5,42,127,2337668504
17,21,11,Pattern_Practice,86,1,48,47,2337703672
17,21,11,Pattern_Practice,87,5,42,127,2338169224
17,21,11,Pattern_Practice,88,1,48,42,2338174504
17,21,11,Pattern_Practice,89,5,42,127,2338668900
17,21,11,Pattern_Practice,90,1,48,49,2338705940
17,21,11,Pattern_Practice,91,1,38,67,2339165548
17,21,11,Pattern_Practice,92,5,42,127,2339168796
17,21,11,Pattern_Practice,93,5,42,127,2339669300
17,21,11,Pattern_Practice,94,1,48,50,2339672860
17,21,11,Pattern_Practice,95,1,48,49,2340142500
17,21,11,Pattern_Practice,96,5,42,127,2340169044
17,21,11,Pattern_Practice,97,5,42,127,2340668728
17,21,11,Pattern_Practice,98,1,48,39,2340674680
17,21,11,Pattern_Practice,99,5,42,127,2341168628
17,21,11,Pattern_Practice,100,1,38,71,2341240660
17,21,11,Pattern_Practice,101,1,38,52,2341660872
17,21,11,Pattern_Practice,102,5,42,127,2341669488
17,21,11,Pattern_Practice,103,1,38,61,2342129628
17,21,11,Pattern_Practice,104,5,42,127,2342168868
17,21,11,Pattern_Practice,105,1,38,59,2342593016
17,21,11,Pattern_Practice,106,5,42,127,2342668696
17,21,11,Pattern_Practice,107,1,38,57,2343130852
17,21,11,Pattern_Practice,108,5,42,127,2343169492
17,21,11,Pattern_Practice,109,1,38,67,2343630452
17,21,11,Pattern_Practice,110,5,42,127,2343669092
17,21,11,Pattern_Practice,111,1,38,64,2344124228
17,21,11,Pattern_Practice,112,1,48,16,2344134216
17,21,11,Pattern_Practice,113,5,42,127,2344168748
17,21,11,Pattern_Practice,114,1,38,18,2344219484
17,21,11,Pattern_Practice,115,1,38,63,2344614204
17,21,11,Pattern_Practice,116,5,42,127,2344668600
17,21,11,Pattern_Practice,117,1,38,57,2345117388
17,21,11,Pattern_Practice,118,5,42,127,2345169468
17,21,11,Pattern_Practice,119,1,38,57,2345645812
17,21,11,Pattern_Practice,120,5,42,127,2345668924
17,21,11,Pattern_Practice,121,1,38,61,2346125252
17,21,11,Pattern_Practice,122,5,42,127,2346168600
17,21,11,Pattern_Practice,123,1,38,45,2346640836
17,21,11,Pattern_Practice,124,5,42,127,2346669320
17,21,11,Pattern_Practice,125,1,38,59,2347156044
17,21,11,Pattern_Practice,126,5,42,127,2347169296
17,21,11,Pattern_Practice,127,1,38,49,2347623736
17,21,11,Pattern_Practice,128,5,42,127,2347668824
17,21,11,Pattern_Practice,129,5,42,127,2348168652
17,21,11,Pattern_Practice,130,1,38,66,2348173484
17,21,11,Pattern_Practice,131,1,48,71,2348642124
17,21,11,Pattern_Practice,132,5,42,127,2348669492
17,21,11,Pattern_Practice,133,1,38,67,2349149720
17,21,11,Pattern_Practice,134,5,42,127,2349169092
17,21,11,Pattern_Practice,135,1,48,65,2349658876
17,21,11,Pattern_Practice,136,5,42,127,2349668696
17,21,11,Pattern_Practice,137,1,38,77,2350122712
17,21,11,Pattern_Practice,138,5,42,127,2350168296
17,21,11,Pattern_Practice,139,1,48,65,2350635976
17,21,11,Pattern_Practice,140,5,42,127,2350669240
17,21,11,Pattern_Practice,141,1,38,80,2351154548
17,21,11,Pattern_Practice,142,5,42,127,2351168844
17,21,11,Pattern_Practice,143,1,38,45,2351222796
17,21,11,Pattern_Practice,144,1,48,71,2351667064
17,21,11,Pattern_Practice,145,5,42,127,2351668796
17,21,11,Pattern_Practice,146,1,38,77,2352156412
17,21,11,Pattern_Practice,147,5,42,127,2352169296
17,21,11,Pattern_Practice,148,1,48,69,2352653104
17,21,11,Pattern_Practice,149,5,42,127,2352669192
17,21,11,Pattern_Practice,150,1,38,67,2353127844
17,21,11,Pattern_Practice,151,5,42,127,2353168720
17,21,11,Pattern_Practice,152,1,38,40,2353200348
17,21,11,Pattern_Practice,153,1,48,63,2353634440
17,21,11,Pattern_Practice,154,5,42,127,2353668376
17,21,11,Pattern_Practice,155,1,38,84,2354127392
17,21,11,Pattern_Practice,156,5,42,127,2354169172
17,21,11,Pattern_Practice,157,1,48,61,2354635432
17,21,11,Pattern_Practice,158,5,42,127,2354669068
17,21,11,Pattern_Practice,159,1,38,83,2355155052
17,21,11,Pattern_Practice,160,5,42,127,2355168676
17,21,11,Pattern_Practice,161,1,48,51,2355651740
17,21,11,Pattern_Practice,162,1,38,15,2355663740
17,21,11,Pattern_Practice,0,9999,9999,9999,2315666516
17,21,11,Pattern_Practice,1,9999,9999,9999,2316166264
17,21,11,Pattern_Practice,2,9999,9999,9999,2316666932
17,21,11,Pattern_Practice,3,9999,9999,9999,2317166704
17,21,11,Pattern_Practice,4,9999,9999,9999,2317666404
17,21,11,Pattern_Practice,5,9999,9999,9999,2318166080
17,21,11,Pattern_Practice,6,9999,9999,9999,2318666872
17,21,11,Pattern_Practice,7,9999,9999,9999,2319166552
17,21,11,Pattern_Practice,8,9999,9999,9999,2319666296
17,21,11,Pattern_Practice,9,9999,9999,9999,2320167016
17,21,11,Pattern_Practice,10,9999,9999,9999,2320666696
17,21,11,Pattern_Practice,11,9999,9999,9999,2321166452
17,21,11,Pattern_Practice,12,9999,9999,9999,2321666128
17,21,11,Pattern_Practice,13,9999,9999,9999,2322166844
17,21,11,Pattern_Practice,14,9999,9999,9999,2322666592
17,21,11,Pattern_Practice,15,9999,9999,9999,2323166276
17,21,11,Pattern_Practice,16,9999,9999,9999,2323667064
17,21,11,Pattern_Practice,17,9999,9999,9999,2324166740
17,21,11,Pattern_Practice,18,9999,9999,9999,2324666416
17,21,11,Pattern_Practice,19,9999,9999,9999,2325166168
17,21,11,Pattern_Practice,20,9999,9999,9999,2325666888
17,21,11,Pattern_Practice,21,9999,9999,9999,2326166640
17,21,11,Pattern_Practice,22,9999,9999,9999,2326666320
17,21,11,Pattern_Practice,23,9999,9999,9999,2327167092
17,21,11,Pattern_Practice,24,9999,9999,9999,2327666760
17,21,11,Pattern_Practice,25,9999,9999,9999,2328166512
17,21,11,Pattern_Practice,26,9999,9999,9999,2328666196
17,21,11,Pattern_Practice,27,9999,9999,9999,2329166916
17,21,11,Pattern_Practice,28,9999,9999,9999,2329666668
17,21,11,Pattern_Practice,29,9999,9999,9999,2330166340
17,21,11,Pattern_Practice,30,9999,9999,9999,2330667064
17,21,11,Pattern_Practice,31,9999,9999,9999,2331166812
17,21,11,Pattern_Practice,32,9999,9999,9999,2331666488
17,21,11,Pattern_Practice,33,9999,9999,9999,2332166236
17,21,11,Pattern_Practice,34,9999,9999,9999,2332666960
17,21,11,Pattern_Practice,35,9999,9999,9999,2333166708
17,21,11,Pattern_Practice,36,9999,9999,9999,2333666364
17,21,11,Pattern_Practice,37,9999,9999,9999,2334166116
17,21,11,Pattern_Practice,38,9999,9999,9999,2334666836
17,21,11,Pattern_Practice,39,9999,9999,9999,2335166512
17,21,11,Pattern_Practice,40,9999,9999,9999,2335666264
17,21,11,Pattern_Practice,41,9999,9999,9999,2336166984
17,21,11,Pattern_Practice,42,9999,9999,9999,2336666736
17,21,11,Pattern_Practice,43,9999,9999,9999,2337166416
17,21,11,Pattern_Practice,44,9999,9999,9999,2337666144
17,21,11,Pattern_Practice,45,9999,9999,9999,2338166864
17,21,11,Pattern_Practice,46,9999,9999,9999,2338666616
17,21,11,Pattern_Practice,47,9999,9999,9999,2339166288
17,21,11,Pattern_Practice,48,9999,9999,9999,2339667016
17,21,11,Pattern_Practice,49,9999,9999,9999,2340166760
17,21,11,Pattern_Practice,50,9999,9999,9999,2340666444
17,21,11,Pattern_Practice,51,9999,9999,9999,2341166192
17,21,11,Pattern_Practice,52,9999,9999,9999,2341666908
17,21,11,Pattern_Practice,53,9999,9999,9999,2342166584
17,21,11,Pattern_Practice,54,9999,9999,9999,2342666336
17,21,11,Pattern_Practice,55,9999,9999,9999,2343167056
17,21,11,Pattern_Practice,56,9999,9999,9999,2343666808
17,21,11,Pattern_Practice,57,9999,9999,9999,2344166464
17,21,11,Pattern_Practice,58,9999,9999,9999,2344666168
17,21,11,Pattern_Practice,59,9999,9999,9999,2345166960
17,21,11,Pattern_Practice,60,9999,9999,9999,2345666640
17,21,11,Pattern_Practice,61,9999,9999,9999,2346166388
17,21,11,Pattern_Practice,62,9999,9999,9999,2346667112
17,21,11,Pattern_Practice,63,9999,9999,9999,2347166788
17,21,11,Pattern_Practice,64,9999,9999,9999,2347666536
17,21,11,Pattern_Practice,65,9999,9999,9999,2348166196
17,21,11,Pattern_Practice,66,9999,9999,9999,2348666984
17,21,11,Pattern_Practice,67,9999,9999,9999,2349166660
17,21,11,Pattern_Practice,68,9999,9999,9999,2349666408
17,21,11,Pattern_Practice,69,9999,9999,9999,2350166088
17,21,11,Pattern_Practice,70,9999,9999,9999,2350666808
17,21,11,Pattern_Practice,71,9999,9999,9999,2351166560
17,21,11,Pattern_Practice,72,9999,9999,9999,2351666296
17,21,11,Pattern_Practice,73,9999,9999,9999,2352167008
17,21,11,Pattern_Practice,74,9999,9999,9999,2352666684
17,21,11,Pattern_Practice,75,9999,9999,9999,2353166436
17,21,11,Pattern_Practice,76,9999,9999,9999,2353666164
17,21,11,Pattern_Practice,77,9999,9999,9999,2354166888
17,21,11,Pattern_Practice,78,9999,9999,9999,2354666560
17,21,11,Pattern_Practice,79,9999,9999,9999,2355166316
17,22,13,Improv_Metronome,0,5,42,127,2390863224
17,22,13,Improv_Metronome,1,5,42,127,2391362848
17,22,13,Improv_Metronome,2,5,42,127,2391862768
17,22,13,Improv_Metronome,3,5,42,127,2392363436
17,22,13,Improv_Metronome,4,1,38,41,2392858612
17,22,13,Improv_Metronome,5,5,42,127,2392863276
17,22,13,Improv_Metronome,6,5,42,127,2393362888
17,22,13,Improv_Metronome,7,1,38,54,2393374436
17,22,13,Improv_Metronome,8,5,42,127,2393862488
17,22,13,Improv_Metronome,9,1,38,73,2393893380
17,22,13,Improv_Metronome,10,5,42,127,2394363208
17,22,13,Improv_Metronome,11,1,38,59,2394365948
17,22,13,Improv_Metronome,12,1,38,32,2394427304
17,22,13,Improv_Metronome,13,1,38,57,2394851924
17,22,13,Improv_Metronome,14,5,42,127,2394863008
17,22,13,Improv_Metronome,15,1,38,33,2394913300
17,22,13,Improv_Metronome,16,1,38,60,2395358572
17,22,13,Improv_Metronome,17,5,42,127,2395363008
17,22,13,Improv_Metronome,18,1,38,32,2395426896
17,22,13,Improv_Metronome,19,5,42,127,2395863344
17,22,13,Improv_Metronome,20,1,38,67,2395890204
17,22,13,Improv_Metronome,21,5,42,127,2396363092
17,22,13,Improv_Metronome,22,1,38,71,2396373524
17,22,13,Improv_Metronome,23,1,38,34,2396442952
17,22,13,Improv_Metronome,24,5,42,127,2396862748
17,22,13,Improv_Metronome,25,1,48,49,2396897748
17,22,13,Improv_Metronome,26,5,42,127,2397362576
17,22,13,Improv_Metronome,27,1,38,75,2397386224
17,22,13,Improv_Metronome,28,1,38,25,2397460728
17,22,13,Improv_Metronome,29,1,38,65,2397837552
17,22,13,Improv_Metronome,30,5,42,127,2397863272
17,22,13,Improv_Metronome,31,1,38,38,2397887128
17,22,13,Improv_Metronome,32,1,38,87,2398358860
17,22,13,Improv_Metronome,33,5,42,127,2398362924
17,22,13,Improv_Metronome,34,1,38,35,2398426732
17,22,13,Improv_Metronome,35,1,48,56,2398862364
17,22,13,Improv_Metronome,36,5,42,127,2398864072
17,22,13,Improv_Metronome,37,1,38,80,2399325460
17,22,13,Improv_Metronome,38,5,42,127,2399362452
17,22,13,Improv_Metronome,39,1,38,25,2399404976
17,22,13,Improv_Metronome,40,1,38,86,2399833672
17,22,13,Improv_Metronome,41,5,42,127,2399863056
17,22,13,Improv_Metronome,42,1,38,78,2400335440
17,22,13,Improv_Metronome,43,5,42,127,2400362804
17,22,13,Improv_Metronome,44,1,38,44,2400396992
17,22,13,Improv_Metronome,45,1,48,49,2400856824
17,22,13,Improv_Metronome,46,5,42,127,2400862684
17,22,13,Improv_Metronome,47,1,38,84,2401324916
17,22,13,Improv_Metronome,48,5,42,127,2401363480
17,22,13,Improv_Metronome,49,1,38,44,2401392868
17,22,13,Improv_Metronome,50,1,38,75,2401845924
17,22,13,Improv_Metronome,51,5,42,127,2401862912
17,22,13,Improv_Metronome,52,1,38,22,2401935104
17,22,13,Improv_Metronome,53,1,38,84,2402354544
17,22,13,Improv_Metronome,54,5,42,127,2402362716
17,22,13,Improv_Metronome,55,1,38,23,2402442600
17,22,13,Improv_Metronome,56,5,42,127,2402862600
17,22,13,Improv_Metronome,57,1,48,47,2402867360
17,22,13,Improv_Metronome,58,1,38,79,2403332516
17,22,13,Improv_Metronome,59,5,42,127,2403363088
17,22,13,Improv_Metronome,60,1,38,35,2403408008
17,22,13,Improv_Metronome,61,1,38,76,2403841576
17,22,13,Improv_Metronome,62,5,42,127,2403862892
17,22,13,Improv_Metronome,63,1,38,35,2403914980
17,22,13,Improv_Metronome,64,1,38,75,2404356984
17,22,13,Improv_Metronome,65,5,42,127,2404362472
17,22,13,Improv_Metronome,66,5,42,127,2404863424
17,22,13,Improv_Metronome,67,1,48,53,2404889912
17,22,13,Improv_Metronome,68,1,38,73,2405326024
17,22,13,Improv_Metronome,69,5,42,127,2405363240
17,22,13,Improv_Metronome,70,1,38,39,2405399648
17,22,13,Improv_Metronome,71,1,38,79,2405825604
17,22,13,Improv_Metronome,72,5,42,127,2405862672
17,22,13,Improv_Metronome,73,1,38,34,2405900868
17,22,13,Improv_Metronome,74,1,38,82,2406341760
17,22,13,Improv_Metronome,75,5,42,127,2406362624
17,22,13,Improv_Metronome,76,1,38,24,2406429872
17,22,13,Improv_Metronome,77,1,48,51,2406847164
17,22,13,Improv_Metronome,78,5,42,127,2406863476
17,22,13,Improv_Metronome,79,1,38,78,2407295364
17,22,13,Improv_Metronome,80,5,42,127,2407362780
17,22,13,Improv_Metronome,81,1,38,30,2407382380
17,22,13,Improv_Metronome,82,1,38,71,2407812816
17,22,13,Improv_Metronome,83,5,42,127,2407862660
17,22,13,Improv_Metronome,84,1,38,69,2408330268
17,22,13,Improv_Metronome,85,5,42,127,2408363452
17,22,13,Improv_Metronome,86,1,48,54,2408839576
17,22,13,Improv_Metronome,87,5,42,127,2408863276
17,22,13,Improv_Metronome,88,1,38,81,2409315852
17,22,13,Improv_Metronome,89,5,42,127,2409362656
17,22,13,Improv_Metronome,90,1,38,34,2409403088
17,22,13,Improv_Metronome,91,1,38,68,2409837308
17,22,13,Improv_Metronome,92,5,42,127,2409862608
17,22,13,Improv_Metronome,93,1,38,74,2410338256
17,22,13,Improv_Metronome,94,5,42,127,2410363380
17,22,13,Improv_Metronome,95,1,48,48,2410829420
17,22,13,Improv_Metronome,96,5,42,127,2410862980
17,22,13,Improv_Metronome,97,1,38,77,2411341944
17,22,13,Improv_Metronome,98,5,42,127,2411362732
17,22,13,Improv_Metronome,99,5,42,127,2411863388
17,22,13,Improv_Metronome,100,1,38,59,2411866280
17,22,13,Improv_Metronome,101,5,42,127,2412363064
17,22,13,Improv_Metronome,102,1,38,68,2412375216
17,22,13,Improv_Metronome,103,5,42,127,2412862816
17,22,13,Improv_Metronome,104,1,48,56,2412865632
17,22,13,Improv_Metronome,105,1,38,76,2413327952
17,22,13,Improv_Metronome,106,5,42,127,2413362560
17,22,13,Improv_Metronome,107,1,38,38,2413396496
17,22,13,Improv_Metronome,108,1,38,71,2413834848
17,22,13,Improv_Metronome,109,5,42,127,2413863256
17,22,13,Improv_Metronome,110,1,38,57,2414361736
17,22,13,Improv_Metronome,111,5,42,127,2414364496
17,22,13,Improv_Metronome,112,5,42,127,2414862840
17,22,13,Improv_Metronome,113,1,48,54,2414863952
17,22,13,Improv_Metronome,114,1,38,68,2415324620
17,22,13,Improv_Metronome,115,5,42,127,2415362288
17,22,13,Improv_Metronome,116,1,38,26,2415410636
17,22,13,Improv_Metronome,117,5,42,127,2415862992
17,22,13,Improv_Metronome,118,1,38,50,2415927860
17,22,13,Improv_Metronome,119,1,38,55,2416330148
17,22,13,Improv_Metronome,120,5,42,127,2416362960
17,22,13,Improv_Metronome,121,1,38,36,2416393088
17,22,13,Improv_Metronome,122,1,48,58,2416799936
17,22,13,Improv_Metronome,123,5,42,127,2416862540
17,22,13,Improv_Metronome,124,1,38,74,2417321712
17,22,13,Improv_Metronome,125,5,42,127,2417363264
17,22,13,Improv_Metronome,126,1,38,68,2417817204
17,22,13,Improv_Metronome,127,5,42,127,2417862940
17,22,13,Improv_Metronome,128,1,38,32,2417891428
17,22,13,Improv_Metronome,129,1,38,65,2418322760
17,22,13,Improv_Metronome,130,5,42,127,2418362744
17,22,13,Improv_Metronome,131,5,42,127,2418862576
17,22,13,Improv_Metronome,132,1,38,48,2418865172
17,22,13,Improv_Metronome,133,1,38,57,2419349292
17,22,13,Improv_Metronome,134,5,42,127,2419363140
17,22,13,Improv_Metronome,135,1,38,59,2419840580
17,22,13,Improv_Metronome,136,5,42,127,2419862792
17,22,13,Improv_Metronome,137,1,38,58,2420309248
17,22,13,Improv_Metronome,138,5,42,127,2420362768
17,22,13,Improv_Metronome,139,1,38,67,2420837292
17,22,13,Improv_Metronome,140,5,42,127,2420863240
17,22,13,Improv_Metronome,141,1,38,58,2421319876
17,22,13,Improv_Metronome,142,5,42,127,2421362920
17,22,13,Improv_Metronome,143,1,38,35,2421387700
17,22,13,Improv_Metronome,144,1,38,52,2421791752
17,22,13,Improv_Metronome,145,5,42,127,2421862720
17,22,13,Improv_Metronome,146,1,38,63,2422292920
17,22,13,Improv_Metronome,147,1,38,32,2422363800
17,22,13,Improv_Metronome,148,5,42,127,2422365584
17,22,13,Improv_Metronome,149,1,38,60,2422804220
17,22,13,Improv_Metronome,150,5,42,127,2422863096
17,22,13,Improv_Metronome,151,1,38,67,2423317788
17,22,13,Improv_Metronome,152,5,42,127,2423362772
17,22,13,Improv_Metronome,153,1,38,29,2423390740
17,22,13,Improv_Metronome,154,1,38,51,2423782796
17,22,13,Improv_Metronome,155,5,42,127,2423862728
17,22,13,Improv_Metronome,156,1,38,62,2424302932
17,22,13,Improv_Metronome,157,5,42,127,2424363524
17,22,13,Improv_Metronome,158,1,38,24,2424379840
17,22,13,Improv_Metronome,159,5,42,127,2424863036
17,22,13,Improv_Metronome,160,1,48,58,2424885268
17,22,13,Improv_Metronome,161,1,38,67,2425357968
17,22,13,Improv_Metronome,162,5,42,127,2425362704
17,22,13,Improv_Metronome,163,5,42,127,2425862536
17,22,13,Improv_Metronome,164,1,38,74,2425865200
17,22,13,Improv_Metronome,165,1,38,23,2425945160
17,22,13,Improv_Metronome,166,5,42,127,2426363384
17,22,13,Improv_Metronome,167,1,38,62,2426391440
17,22,13,Improv_Metronome,168,5,42,127,2426862912
17,22,13,Improv_Metronome,169,1,48,60,2426892612
17,22,13,Improv_Metronome,170,5,42,127,2427362664
17,22,13,Improv_Metronome,171,1,38,57,2427379148
17,22,13,Improv_Metronome,172,1,38,32,2427461484
17,22,13,Improv_Metronome,173,1,38,79,2427860932
17,22,13,Improv_Metronome,174,5,42,127,2427863656
17,22,13,Improv_Metronome,175,1,38,22,2427946208
17,22,13,Improv_Metronome,176,5,42,127,2428363464
17,22,13,Improv_Metronome,177,1,38,84,2428395180
17,22,13,Improv_Metronome,178,5,42,127,2428862696
17,22,13,Improv_Metronome,179,1,48,66,2428892764
17,22,13,Improv_Metronome,180,1,38,69,2429358524
17,22,13,Improv_Metronome,181,5,42,127,2429362440
17,22,13,Improv_Metronome,182,1,38,43,2429427440
17,22,13,Improv_Metronome,183,1,38,70,2429842868
17,22,13,Improv_Metronome,184,5,42,127,2429863212
17,22,13,Improv_Metronome,185,1,38,73,2430357104
17,22,13,Improv_Metronome,186,5,42,127,2430363112
17,22,13,Improv_Metronome,187,1,38,37,2430435956
17,22,13,Improv_Metronome,188,5,42,127,2430862628
17,22,13,Improv_Metronome,189,1,48,61,2430870744
17,22,13,Improv_Metronome,190,1,38,81,2431348424
17,22,13,Improv_Metronome,191,5,42,127,2431362372
17,22,13,Improv_Metronome,192,1,38,66,2431815696
17,22,13,Improv_Metronome,193,5,42,127,2431863364
17,22,13,Improv_Metronome,194,1,38,31,2431887552
17,22,13,Improv_Metronome,195,5,42,127,2432362876
17,22,13,Improv_Metronome,196,1,38,76,2432363988
17,22,13,Improv_Metronome,197,5,42,127,2432862552
17,22,13,Improv_Metronome,198,1,48,64,2432871644
17,22,13,Improv_Metronome,199,1,38,73,2433324404
17,22,13,Improv_Metronome,200,5,42,127,2433363416
17,22,13,Improv_Metronome,201,1,38,33,2433395940
17,22,13,Improv_Metronome,202,1,38,70,2433796876
17,22,13,Improv_Metronome,203,5,42,127,2433863072
17,22,13,Improv_Metronome,204,1,38,34,2433864916
17,22,13,Improv_Metronome,205,1,38,73,2434290936
17,22,13,Improv_Metronome,206,5,42,127,2434362652
17,22,13,Improv_Metronome,207,1,48,61,2434821228
17,22,13,Improv_Metronome,208,5,42,127,2434862476
17,22,13,Improv_Metronome,209,1,38,64,2435324484
17,22,13,Improv_Metronome,210,5,42,127,2435363272
17,22,13,Improv_Metronome,211,1,38,71,2435835436
17,22,13,Improv_Metronome,212,5,42,127,2435863024
17,22,13,Improv_Metronome,213,1,38,63,2436328020
17,22,13,Improv_Metronome,214,5,42,127,2436362700
17,22,13,Improv_Metronome,215,5,42,127,2436863428
17,22,13,Improv_Metronome,216,1,48,64,2436865364
17,22,13,Improv_Metronome,217,1,38,75,2437347608
17,22,13,Improv_Metronome,218,5,42,127,2437362948
17,22,13,Improv_Metronome,219,1,38,63,2437825032
17,22,13,Improv_Metronome,220,5,42,127,2437863144
17,22,13,Improv_Metronome,221,1,38,24,2437899028
17,22,13,Improv_Metronome,222,1,38,76,2438337604
17,22,13,Improv_Metronome,223,5,42,127,2438362504
17,22,13,Improv_Metronome,224,1,48,56,2438843780
17,22,13,Improv_Metronome,225,5,42,127,2438863228
17,22,13,Improv_Metronome,226,1,38,67,2439302084
17,22,13,Improv_Metronome,227,5,42,127,2439363124
17,22,13,Improv_Metronome,228,1,38,39,2439368244
17,22,13,Improv_Metronome,229,1,38,77,2439814584
17,22,13,Improv_Metronome,230,5,42,127,2439862560
17,22,13,Improv_Metronome,231,1,38,70,2440328820
17,22,13,Improv_Metronome,232,5,42,127,2440363352
17,22,13,Improv_Metronome,233,1,48,49,2440819364
17,22,13,Improv_Metronome,234,5,42,127,2440863028
17,22,13,Improv_Metronome,235,1,38,66,2441293352
17,22,13,Improv_Metronome,236,1,38,41,2441355484
17,22,13,Improv_Metronome,237,5,42,127,2441362832
17,22,13,Improv_Metronome,238,1,38,74,2441785688
17,22,13,Improv_Metronome,239,1,38,30,2441862344
17,22,13,Improv_Metronome,240,5,42,127,2441864652
17,22,13,Improv_Metronome,241,1,38,65,2442293260
17,22,13,Improv_Metronome,242,5,42,127,2442363108
17,22,13,Improv_Metronome,243,1,38,27,2442389232
17,22,13,Improv_Metronome,244,1,48,48,2442802692
17,22,13,Improv_Metronome,245,5,42,127,2442862912
17,22,13,Improv_Metronome,246,1,38,67,2443304984
17,22,13,Improv_Metronome,247,5,42,127,2443362736
17,22,13,Improv_Metronome,248,1,38,38,2443384280
17,22,13,Improv_Metronome,249,1,38,67,2443785892
17,22,13,Improv_Metronome,250,1,38,30,2443862064
17,22,13,Improv_Metronome,251,5,42,127,2443864092
17,22,13,Improv_Metronome,252,1,38,72,2444292124
17,22,13,Improv_Metronome,253,5,42,127,2444363092
17,22,13,Improv_Metronome,254,1,38,37,2444366132
17,22,13,Improv_Metronome,255,1,48,52,2444848824
17,22,13,Improv_Metronome,256,5,42,127,2444862672
17,22,13,Improv_Metronome,257,1,38,67,2445315720
17,22,13,Improv_Metronome,258,5,42,127,2445362720
17,22,13,Improv_Metronome,259,1,38,43,2445377468
17,22,13,Improv_Metronome,260,1,38,71,2445810296
17,22,13,Improv_Metronome,261,5,42,127,2445863348
17,22,13,Improv_Metronome,262,1,38,39,2445882948
17,22,13,Improv_Metronome,263,1,38,52,2446323244
17,22,13,Improv_Metronome,264,5,42,127,2446362928
17,22,13,Improv_Metronome,265,1,38,56,2446806640
17,22,13,Improv_Metronome,266,5,42,127,2446862680
17,22,13,Improv_Metronome,267,1,38,46,2447304076
17,22,13,Improv_Metronome,268,1,48,16,2447313464
17,22,13,Improv_Metronome,269,5,42,127,2447362484
17,22,13,Improv_Metronome,270,1,38,59,2447812068
17,22,13,Improv_Metronome,271,5,42,127,2447863324
17,22,13,Improv_Metronome,272,1,38,58,2448317868
17,22,13,Improv_Metronome,273,5,42,127,2448362780
17,22,13,Improv_Metronome,274,1,38,56,2448833296
17,22,13,Improv_Metronome,275,5,42,127,2448862532
17,22,13,Improv_Metronome,276,1,38,57,2449314528
17,22,13,Improv_Metronome,277,5,42,127,2449363472
17,22,13,Improv_Metronome,278,1,38,58,2449782520
17,22,13,Improv_Metronome,279,5,42,127,2449863076
17,22,13,Improv_Metronome,280,1,38,74,2450296908
17,22,13,Improv_Metronome,281,5,42,127,2450362676
17,22,13,Improv_Metronome,282,1,38,52,2450816916
17,22,13,Improv_Metronome,283,5,42,127,2450862352
17,22,13,Improv_Metronome,284,5,42,127,2451363304
17,22,13,Improv_Metronome,285,1,38,72,2451375304
17,22,13,Improv_Metronome,286,5,42,127,2451862756
17,22,13,Improv_Metronome,287,1,48,81,2451905596
17,22,13,Improv_Metronome,288,5,42,127,2452362580
17,22,13,Improv_Metronome,289,1,38,61,2452383464
17,22,13,Improv_Metronome,290,5,42,127,2452863228
17,22,13,Improv_Metronome,291,1,38,68,2452885452
17,22,13,Improv_Metronome,292,1,38,73,2453363324
17,22,13,Improv_Metronome,293,5,42,127,2453365704
17,22,13,Improv_Metronome,294,1,38,44,2453424012
17,22,13,Improv_Metronome,295,5,42,127,2453862976
17,22,13,Improv_Metronome,296,1,48,80,2453904872
17,22,13,Improv_Metronome,297,5,42,127,2454362432
17,22,13,Improv_Metronome,298,1,38,69,2454375852
17,22,13,Improv_Metronome,299,1,38,27,2454454932
17,22,13,Improv_Metronome,300,1,38,63,2454842032
17,22,13,Improv_Metronome,301,5,42,127,2454863272
17,22,13,Improv_Metronome,302,5,42,127,2455363028
17,22,13,Improv_Metronome,303,1,38,65,2455418120
17,22,13,Improv_Metronome,304,5,42,127,2455862484
17,22,13,Improv_Metronome,305,1,48,51,2455892108
17,22,13,Improv_Metronome,306,1,38,58,2456330904
17,22,13,Improv_Metronome,307,5,42,127,2456363348
17,22,13,Improv_Metronome,308,1,38,31,2456395196
17,22,13,Improv_Metronome,309,1,38,60,2456785456
17,22,13,Improv_Metronome,310,5,42,127,2456863224
17,22,13,Improv_Metronome,311,1,38,68,2457303132
17,22,13,Improv_Metronome,312,5,42,127,2457362828
17,22,13,Improv_Metronome,313,1,48,57,2457801764
17,22,13,Improv_Metronome,314,5,42,127,2457862500
17,22,13,Improv_Metronome,315,1,38,62,2458317940
17,22,13,Improv_Metronome,316,5,42,127,2458363296
17,22,13,Improv_Metronome,317,1,38,27,2458391788
17,22,13,Improv_Metronome,318,1,38,62,2458788544
17,22,13,Improv_Metronome,319,5,42,127,2458862880
17,22,13,Improv_Metronome,320,1,38,26,2458867848
17,22,13,Improv_Metronome,321,1,38,58,2459315680
17,22,13,Improv_Metronome,322,5,42,127,2459362608
17,22,13,Improv_Metronome,323,1,48,61,2459841568
17,22,13,Improv_Metronome,324,5,42,127,2459863256
17,22,13,Improv_Metronome,325,1,38,72,2460332800
17,22,13,Improv_Metronome,326,5,42,127,2460363080
17,22,13,Improv_Metronome,327,1,38,27,2460421288
17,22,13,Improv_Metronome,328,1,38,67,2460838880
17,22,13,Improv_Metronome,0,9999,9999,9999,2390860868
17,22,13,Improv_Metronome,1,9999,9999,9999,2391360564
17,22,13,Improv_Metronome,2,9999,9999,9999,2391860340
17,22,13,Improv_Metronome,3,9999,9999,9999,2392361080
17,22,13,Improv_Metronome,4,9999,9999,9999,2392860772
17,22,13,Improv_Metronome,5,9999,9999,9999,2393360456
17,22,13,Improv_Metronome,6,9999,9999,9999,2393860208
17,22,13,Improv_Metronome,7,9999,9999,9999,2394360928
17,22,13,Improv_Metronome,8,9999,9999,9999,2394860652
17,22,13,Improv_Metronome,9,9999,9999,9999,2395360356
17,22,13,Improv_Metronome,10,9999,9999,9999,2395861060
17,22,13,Improv_Metronome,11,9999,9999,9999,2396360812
17,22,13,Improv_Metronome,12,9999,9999,9999,2396860468
17,22,13,Improv_Metronome,13,9999,9999,9999,2397360220
17,22,13,Improv_Metronome,14,9999,9999,9999,2397860912
17,22,13,Improv_Metronome,15,9999,9999,9999,2398360644
17,22,13,Improv_Metronome,16,9999,9999,9999,2398860376
17,22,13,Improv_Metronome,17,9999,9999,9999,2399360096
17,22,13,Improv_Metronome,18,9999,9999,9999,2399860848
17,22,13,Improv_Metronome,19,9999,9999,9999,2400360520
17,22,13,Improv_Metronome,20,9999,9999,9999,2400860252
17,22,13,Improv_Metronome,21,9999,9999,9999,2401360976
17,22,13,Improv_Metronome,22,9999,9999,9999,2401860704
17,22,13,Improv_Metronome,23,9999,9999,9999,2402360432
17,22,13,Improv_Metronome,24,9999,9999,9999,2402860092
17,22,13,Improv_Metronome,25,9999,9999,9999,2403360880
17,22,13,Improv_Metronome,26,9999,9999,9999,2403860536
17,22,13,Improv_Metronome,27,9999,9999,9999,2404360264
17,22,13,Improv_Metronome,28,9999,9999,9999,2404860992
17,22,13,Improv_Metronome,29,9999,9999,9999,2405360736
17,22,13,Improv_Metronome,30,9999,9999,9999,2405860464
17,22,13,Improv_Metronome,31,9999,9999,9999,2406360120
17,22,13,Improv_Metronome,32,9999,9999,9999,2406860896
17,22,13,Improv_Metronome,33,9999,9999,9999,2407360568
17,22,13,Improv_Metronome,34,9999,9999,9999,2407860300
17,22,13,Improv_Metronome,35,9999,9999,9999,2408361024
17,22,13,Improv_Metronome,36,9999,9999,9999,2408860772
17,22,13,Improv_Metronome,37,9999,9999,9999,2409360448
17,22,13,Improv_Metronome,38,9999,9999,9999,2409860176
17,22,13,Improv_Metronome,39,9999,9999,9999,2410360948
17,22,13,Improv_Metronome,40,9999,9999,9999,2410860624
17,22,13,Improv_Metronome,41,9999,9999,9999,2411360376
17,22,13,Improv_Metronome,42,9999,9999,9999,2411861104
17,22,13,Improv_Metronome,43,9999,9999,9999,2412360780
17,22,13,Improv_Metronome,44,9999,9999,9999,2412860532
17,22,13,Improv_Metronome,45,9999,9999,9999,2413360200
17,22,13,Improv_Metronome,46,9999,9999,9999,2413860972
17,22,13,Improv_Metronome,47,9999,9999,9999,2414360656
17,22,13,Improv_Metronome,48,9999,9999,9999,2414860408
17,22,13,Improv_Metronome,49,9999,9999,9999,2415360080
17,22,13,Improv_Metronome,50,9999,9999,9999,2415860784
17,22,13,Improv_Metronome,51,9999,9999,9999,2416360528
17,22,13,Improv_Metronome,52,9999,9999,9999,2416860260
17,22,13,Improv_Metronome,53,9999,9999,9999,2417360980
17,22,13,Improv_Metronome,54,9999,9999,9999,2417860656
17,22,13,Improv_Metronome,55,9999,9999,9999,2418360384
17,22,13,Improv_Metronome,56,9999,9999,9999,2418860144
17,22,13,Improv_Metronome,57,9999,9999,9999,2419360860
17,22,13,Improv_Metronome,58,9999,9999,9999,2419860584
17,22,13,Improv_Metronome,59,9999,9999,9999,2420360264
17,22,13,Improv_Metronome,60,9999,9999,9999,2420861032
17,22,13,Improv_Metronome,61,9999,9999,9999,2421360712
17,22,13,Improv_Metronome,62,9999,9999,9999,2421860440
17,22,13,Improv_Metronome,63,9999,9999,9999,2422360116
17,22,13,Improv_Metronome,64,9999,9999,9999,2422860888
17,22,13,Improv_Metronome,65,9999,9999,9999,2423360564
17,22,13,Improv_Metronome,66,9999,9999,9999,2423860296
17,22,13,Improv_Metronome,67,9999,9999,9999,2424361016
17,22,13,Improv_Metronome,68,9999,9999,9999,2424860752
17,22,13,Improv_Metronome,69,9999,9999,9999,2425360496
17,22,13,Improv_Metronome,70,9999,9999,9999,2425860180
17,22,13,Improv_Metronome,71,9999,9999,9999,2426360880
17,22,13,Improv_Metronome,72,9999,9999,9999,2426860632
17,22,13,Improv_Metronome,73,9999,9999,9999,2427360308
17,22,13,Improv_Metronome,74,9999,9999,9999,2427861076
17,22,13,Improv_Metronome,75,9999,9999,9999,2428360808
17,22,13,Improv_Metronome,76,9999,9999,9999,2428860488
17,22,13,Improv_Metronome,77,9999,9999,9999,2429360232
17,22,13,Improv_Metronome,78,9999,9999,9999,2429860932
17,22,13,Improv_Metronome,79,9999,9999,9999,2430360684
17,22,13,Improv_Metronome,80,9999,9999,9999,2430860344
17,22,13,Improv_Metronome,81,9999,9999,9999,2431360088
17,22,13,Improv_Metronome,82,9999,9999,9999,2431860784
17,22,13,Improv_Metronome,83,9999,9999,9999,2432360520
17,22,13,Improv_Metronome,84,9999,9999,9999,2432860272
17,22,13,Improv_Metronome,85,9999,9999,9999,2433360984
17,22,13,Improv_Metronome,86,9999,9999,9999,2433860712
17,22,13,Improv_Metronome,87,9999,9999,9999,2434360368
17,22,13,Improv_Metronome,88,9999,9999,9999,2434860120
17,22,13,Improv_Metronome,89,9999,9999,9999,2435360840
17,22,13,Improv_Metronome,90,9999,9999,9999,2435860592
17,22,13,Improv_Metronome,91,9999,9999,9999,2436360268
17,22,13,Improv_Metronome,92,9999,9999,9999,2436860996
17,22,13,Improv_Metronome,93,9999,9999,9999,2437360740
17,22,13,Improv_Metronome,94,9999,9999,9999,2437860416
17,22,13,Improv_Metronome,95,9999,9999,9999,2438360148
17,22,13,Improv_Metronome,96,9999,9999,9999,2438860868
17,22,13,Improv_Metronome,97,9999,9999,9999,2439360620
17,22,13,Improv_Metronome,98,9999,9999,9999,2439860276
17,22,13,Improv_Metronome,99,9999,9999,9999,2440361068
17,22,13,Improv_Metronome,100,9999,9999,9999,2440860748
17,22,13,Improv_Metronome,101,9999,9999,9999,2441360476
17,22,13,Improv_Metronome,102,9999,9999,9999,2441860152
17,22,13,Improv_Metronome,103,9999,9999,9999,2442360900
17,22,13,Improv_Metronome,104,9999,9999,9999,2442860632
17,22,13,Improv_Metronome,105,9999,9999,9999,2443360308
17,22,13,Improv_Metronome,106,9999,9999,9999,2443861140
17,22,13,Improv_Metronome,107,9999,9999,9999,2444360812
17,22,13,Improv_Metronome,108,9999,9999,9999,2444860464
17,22,13,Improv_Metronome,109,9999,9999,9999,2445360216
17,22,13,Improv_Metronome,110,9999,9999,9999,2445860916
17,22,13,Improv_Metronome,111,9999,9999,9999,2446360648
17,22,13,Improv_Metronome,112,9999,9999,9999,2446860396
17,22,13,Improv_Metronome,113,9999,9999,9999,2447360052
17,22,13,Improv_Metronome,114,9999,9999,9999,2447860820
17,22,13,Improv_Metronome,115,9999,9999,9999,2448360496
17,22,13,Improv_Metronome,116,9999,9999,9999,2448860248
17,22,13,Improv_Metronome,117,9999,9999,9999,2449360968
17,22,13,Improv_Metronome,118,9999,9999,9999,2449860716
17,22,13,Improv_Metronome,119,9999,9999,9999,2450360392
17,22,13,Improv_Metronome,120,9999,9999,9999,2450860144
17,22,13,Improv_Metronome,121,9999,9999,9999,2451360872
17,22,13,Improv_Metronome,122,9999,9999,9999,2451860548
17,22,13,Improv_Metronome,123,9999,9999,9999,2452360296
17,22,13,Improv_Metronome,124,9999,9999,9999,2452860992
17,22,13,Improv_Metronome,125,9999,9999,9999,2453360744
17,22,13,Improv_Metronome,126,9999,9999,9999,2453860472
17,22,13,Improv_Metronome,127,9999,9999,9999,2454360148
17,22,13,Improv_Metronome,128,9999,9999,9999,2454860916
17,22,13,Improv_Metronome,129,9999,9999,9999,2455360600
17,22,13,Improv_Metronome,130,9999,9999,9999,2455860276
17,22,13,Improv_Metronome,131,9999,9999,9999,2456361064
17,22,13,Improv_Metronome,132,9999,9999,9999,2456860792
17,22,13,Improv_Metronome,133,9999,9999,9999,2457360468
17,22,13,Improv_Metronome,134,9999,9999,9999,2457860144
17,22,13,Improv_Metronome,135,9999,9999,9999,2458360940
17,22,13,Improv_Metronome,136,9999,9999,9999,2458860596
17,22,13,Improv_Metronome,137,9999,9999,9999,2459360324
17,22,13,Improv_Metronome,138,9999,9999,9999,2459861044
17,22,13,Improv_Metronome,139,9999,9999,9999,2460360796
17,23,14,Improv_Melody,0,2,48,80,2517238148
17,23,14,Improv_Melody,1,2,72,80,2517240304
17,23,14,Improv_Melody,2,5,42,127,2517242912
17,23,14,Improv_Melody,3,5,42,110,2517735744
17,23,14,Improv_Melody,4,5,42,110,2518235448
17,23,14,Improv_Melody,5,5,42,110,2518736196
17,23,14,Improv_Melody,6,5,42,127,2519236120
17,23,14,Improv_Melody,7,5,42,110,2519735604
17,23,14,Improv_Melody,8,5,42,110,2520236352
17,23,14,Improv_Melody,9,5,42,110,2520735980
17,23,14,Improv_Melody,10,2,43,80,2521238336
17,23,14,Improv_Melody,11,2,67,80,2521240632
17,23,14,Improv_Melody,12,5,42,127,2521243088
17,23,14,Improv_Melody,13,5,42,110,2521735624
17,23,14,Improv_Melody,14,5,42,110,2522236220
17,23,14,Improv_Melody,15,5,42,110,2522735972
17,23,14,Improv_Melody,16,5,42,127,2523235824
17,23,14,Improv_Melody,17,5,42,110,2523736648
17,23,14,Improv_Melody,18,5,42,110,2524236056
17,23,14,Improv_Melody,19,5,42,110,2524735832
17,23,14,Improv_Melody,20,2,45,80,2525238036
17,23,14,Improv_Melody,21,2,69,80,2525240260
17,23,14,Improv_Melody,22,5,42,127,2525242720
17,23,14,Improv_Melody,23,5,42,110,2525736224
17,23,14,Improv_Melody,24,5,42,110,2526235928
17,23,14,Improv_Melody,25,5,42,110,2526735704
17,23,14,Improv_Melody,26,5,42,127,2527235704
17,23,14,Improv_Melody,27,5,42,110,2527736080
17,23,14,Improv_Melody,28,5,42,110,2528235856
17,23,14,Improv_Melody,29,5,42,110,2528735560
17,23,14,Improv_Melody,30,2,41,80,2529239116
17,23,14,Improv_Melody,31,2,65,80,2529241260
17,23,14,Improv_Melody,32,5,42,127,2529243716
17,23,14,Improv_Melody,33,5,42,110,2529736100
17,23,14,Improv_Melody,34,5,42,110,2530235732
17,23,14,Improv_Melody,35,5,42,110,2530735432
17,23,14,Improv_Melody,36,5,42,127,2531236404
17,23,14,Improv_Melody,37,5,42,110,2531735960
17,23,14,Improv_Melody,38,5,42,110,2532235512
17,23,14,Improv_Melody,39,5,42,110,2532736408
17,23,14,Improv_Melody,40,2,48,80,2533238592
17,23,14,Improv_Melody,41,2,72,80,2533241076
17,23,14,Improv_Melody,42,5,42,127,2533243528
17,23,14,Improv_Melody,43,1,38,46,2533277408
17,23,14,Improv_Melody,44,1,48,51,2533287320
17,23,14,Improv_Melody,45,5,42,110,2533735748
17,23,14,Improv_Melody,46,1,38,49,2533759868
17,23,14,Improv_Melody,47,1,48,45,2533791508
17,23,14,Improv_Melody,48,5,42,110,2534235456
17,23,14,Improv_Melody,49,1,48,53,2534245140
17,23,14,Improv_Melody,50,1,48,55,2534714328
17,23,14,Improv_Melody,51,5,42,110,2534736252
17,23,14,Improv_Melody,52,1,38,64,2535208416
17,23,14,Improv_Melody,53,1,48,70,2535212800
17,23,14,Improv_Melody,54,5,42,127,2535236212
17,23,14,Improv_Melody,55,1,38,27,2535272468
17,23,14,Improv_Melody,56,1,38,61,2535698992
17,23,14,Improv_Melody,57,1,48,72,2535706888
17,23,14,Improv_Melody,58,5,42,110,2535735600
17,23,14,Improv_Melody,59,5,42,110,2536236308
17,23,14,Improv_Melody,60,1,48,67,2536241288
17,23,14,Improv_Melody,61,1,48,64,2536684340
17,23,14,Improv_Melody,62,5,42,110,2536736056
17,23,14,Improv_Melody,63,1,48,77,2537204860
17,23,14,Improv_Melody,64,1,38,78,2537210292
17,23,14,Improv_Melody,65,2,43,80,2537238292
17,23,14,Improv_Melody,66,2,67,80,2537240368
17,23,14,Improv_Melody,67,5,42,127,2537243124
17,23,14,Improv_Melody,68,1,38,78,2537688824
17,23,14,Improv_Melody,69,1,48,83,2537709716
17,23,14,Improv_Melody,70,5,42,110,2537735516
17,23,14,Improv_Melody,71,1,48,71,2538202348
17,23,14,Improv_Melody,72,5,42,110,2538236140
17,23,14,Improv_Melody,73,1,48,68,2538721444
17,23,14,Improv_Melody,74,5,42,110,2538736116
17,23,14,Improv_Melody,75,1,48,76,2539204700
17,23,14,Improv_Melody,76,1,38,76,2539221700
17,23,14,Improv_Melody,77,5,42,127,2539235632
17,23,14,Improv_Melody,78,1,38,78,2539697464
17,23,14,Improv_Melody,79,1,48,67,2539699980
17,23,14,Improv_Melody,80,5,42,110,2539736384
17,23,14,Improv_Melody,81,1,48,69,2540219724
17,23,14,Improv_Melody,82,5,42,110,2540236112
17,23,14,Improv_Melody,83,1,48,71,2540729260
17,23,14,Improv_Melody,84,5,42,110,2540735944
17,23,14,Improv_Melody,85,1,48,76,2541237680
17,23,14,Improv_Melody,86,2,45,80,2541239848
17,23,14,Improv_Melody,87,2,69,80,2541241772
17,23,14,Improv_Melody,88,5,42,127,2541244224
17,23,14,Improv_Melody,89,1,38,83,2541250552
17,23,14,Improv_Melody,90,1,38,79,2541722404
17,23,14,Improv_Melody,91,5,42,110,2541736408
17,23,14,Improv_Melody,92,1,48,76,2541737964
17,23,14,Improv_Melody,93,1,38,39,2541781096
17,23,14,Improv_Melody,94,5,42,110,2542236264
17,23,14,Improv_Melody,95,1,48,62,2542258572
17,23,14,Improv_Melody,96,1,48,64,2542726268
17,23,14,Improv_Melody,97,5,42,110,2542735864
17,23,14,Improv_Melody,98,1,48,68,2543203376
17,23,14,Improv_Melody,99,1,38,73,2543225568
17,23,14,Improv_Melody,100,5,42,127,2543235464
17,23,14,Improv_Melody,101,1,38,70,2543694580
17,23,14,Improv_Melody,102,1,48,67,2543702108
17,23,14,Improv_Melody,103,5,42,110,2543736072
17,23,14,Improv_Melody,104,1,38,29,2543752388
17,23,14,Improv_Melody,105,5,42,110,2544235832
17,23,14,Improv_Melody,106,1,48,64,2544238348
17,23,14,Improv_Melody,107,1,48,59,2544727704
17,23,14,Improv_Melody,108,5,42,110,2544735880
17,23,14,Improv_Melody,109,2,41,80,2545239048
17,23,14,Improv_Melody,110,1,48,65,2545240604
17,23,14,Improv_Melody,111,2,65,80,2545243060
17,23,14,Improv_Melody,112,5,42,127,2545245224
17,23,14,Improv_Melody,113,1,38,80,2545260356
17,23,14,Improv_Melody,114,1,38,75,2545721608
17,23,14,Improv_Melody,115,5,42,110,2545735984
17,23,14,Improv_Melody,116,1,48,72,2545737464
17,23,14,Improv_Melody,117,1,38,44,2545766408
17,23,14,Improv_Melody,118,5,42,110,2546235688
17,23,14,Improv_Melody,119,1,48,68,2546253888
17,23,14,Improv_Melody,120,5,42,110,2546735444
17,23,14,Improv_Melody,121,1,48,68,2546736408
17,23,14,Improv_Melody,122,5,42,127,2547236100
17,23,14,Improv_Melody,123,1,48,77,2547239588
17,23,14,Improv_Melody,124,1,38,31,2547304980
17,23,14,Improv_Melody,125,1,38,72,2547728744
17,23,14,Improv_Melody,126,5,42,110,2547735804
17,23,14,Improv_Melody,127,1,48,72,2547742276
17,23,14,Improv_Melody,128,1,38,40,2547775256
17,23,14,Improv_Melody,129,5,42,110,2548235580
17,23,14,Improv_Melody,130,1,48,71,2548245264
17,23,14,Improv_Melody,131,1,48,71,2548733200
17,23,14,Improv_Melody,132,5,42,110,2548736452
17,23,14,Improv_Melody,133,1,48,69,2549228928
17,23,14,Improv_Melody,134,2,48,80,2549238560
17,23,14,Improv_Melody,135,2,72,80,2549240708
17,23,14,Improv_Melody,136,5,42,127,2549243464
17,23,14,Improv_Melody,137,1,38,72,2549251732
17,23,14,Improv_Melody,138,1,38,75,2549707748
17,23,14,Improv_Melody,139,1,48,68,2549715424
17,23,14,Improv_Melody,140,5,42,110,2549735848
17,23,14,Improv_Melody,141,1,38,46,2549746340
17,23,14,Improv_Melody,142,1,48,65,2550224092
17,23,14,Improv_Melody,143,5,42,110,2550235484
17,23,14,Improv_Melody,144,5,42,110,2550736512
17,23,14,Improv_Melody,145,1,48,70,2550746496
17,23,14,Improv_Melody,146,1,48,72,2551220020
17,23,14,Improv_Melody,147,1,38,74,2551227844
17,23,14,Improv_Melody,148,5,42,127,2551236092
17,23,14,Improv_Melody,149,1,38,74,2551713156
17,23,14,Improv_Melody,150,1,48,81,2551724416
17,23,14,Improv_Melody,151,5,42,110,2551735652
17,23,14,Improv_Melody,152,1,38,43,2551750028
17,23,14,Improv_Melody,153,5,42,110,2552236488
17,23,14,Improv_Melody,154,1,48,67,2552248188
17,23,14,Improv_Melody,155,1,48,60,2552712748
17,23,14,Improv_Melody,156,5,42,110,2552736384
17,23,14,Improv_Melody,157,1,48,70,2553228040
17,23,14,Improv_Melody,158,2,43,80,2553238348
17,23,14,Improv_Melody,159,2,67,80,2553240492
17,23,14,Improv_Melody,160,5,42,127,2553243248
17,23,14,Improv_Melody,161,1,38,69,2553252636
17,23,14,Improv_Melody,162,1,38,67,2553703032
17,23,14,Improv_Melody,163,5,42,110,2553735432
17,23,14,Improv_Melody,164,1,38,46,2553739200
17,23,14,Improv_Melody,165,1,48,75,2553751876
17,23,14,Improv_Melody,166,5,42,110,2554236320
17,23,14,Improv_Melody,167,1,48,67,2554257508
17,23,14,Improv_Melody,168,1,48,66,2554715840
17,23,14,Improv_Melody,169,5,42,110,2554736116
17,23,14,Improv_Melody,170,1,48,68,2555209476
17,23,14,Improv_Melody,171,1,38,69,2555224012
17,23,14,Improv_Melody,172,5,42,127,2555235632
17,23,14,Improv_Melody,173,1,38,75,2555681704
17,23,14,Improv_Melody,174,1,48,65,2555700432
17,23,14,Improv_Melody,175,1,38,42,2555724228
17,23,14,Improv_Melody,176,5,42,110,2555736440
17,23,14,Improv_Melody,177,1,48,67,2556207308
17,23,14,Improv_Melody,178,5,42,110,2556236092
17,23,14,Improv_Melody,179,5,42,110,2556736004
17,23,14,Improv_Melody,180,1,48,58,2556736968
17,23,14,Improv_Melody,181,2,45,80,2557238188
17,23,14,Improv_Melody,182,2,69,80,2557240184
17,23,14,Improv_Melody,183,5,42,127,2557242868
17,23,14,Improv_Melody,184,1,48,68,2557249868
17,23,14,Improv_Melody,185,1,38,68,2557253204
17,23,14,Improv_Melody,186,1,38,40,2557304804
17,23,14,Improv_Melody,187,1,38,70,2557722272
17,23,14,Improv_Melody,188,1,48,68,2557731736
17,23,14,Improv_Melody,189,5,42,110,2557736256
17,23,14,Improv_Melody,190,1,38,45,2557759672
17,23,14,Improv_Melody,191,5,42,110,2558235976
17,23,14,Improv_Melody,192,1,48,58,2558252456
17,23,14,Improv_Melody,193,5,42,110,2558735580
17,23,14,Improv_Melody,194,1,48,64,2558739740
17,23,14,Improv_Melody,195,1,48,70,2559214380
17,23,14,Improv_Melody,196,1,38,65,2559235464
17,23,14,Improv_Melody,197,5,42,127,2559238300
17,23,14,Improv_Melody,198,1,38,38,2559289256
17,23,14,Improv_Melody,199,1,38,72,2559715272
17,23,14,Improv_Melody,200,1,48,70,2559721080
17,23,14,Improv_Melody,201,5,42,110,2559736204
17,23,14,Improv_Melody,202,1,38,42,2559758044
17,23,14,Improv_Melody,203,5,42,110,2560236064
17,23,14,Improv_Melody,204,1,48,66,2560250752
17,23,14,Improv_Melody,205,5,42,110,2560735600
17,23,14,Improv_Melody,206,1,48,63,2560749840
17,23,14,Improv_Melody,207,2,41,80,2561238600
17,23,14,Improv_Melody,208,2,65,80,2561240900
17,23,14,Improv_Melody,209,5,42,127,2561243360
17,23,14,Improv_Melody,210,1,48,65,2561251028
17,23,14,Improv_Melody,211,1,38,66,2561264224
17,23,14,Improv_Melody,212,1,38,40,2561315880
17,23,14,Improv_Melody,213,1,38,65,2561730768
17,23,14,Improv_Melody,214,5,42,110,2561736104
17,23,14,Improv_Melody,215,1,48,64,2561760428
17,23,14,Improv_Melody,216,1,38,44,2561764884
17,23,14,Improv_Melody,217,5,42,110,2562235888
17,23,14,Improv_Melody,218,1,48,66,2562253116
17,23,14,Improv_Melody,219,5,42,110,2562735348
17,23,14,Improv_Melody,220,1,48,62,2562751756
17,23,14,Improv_Melody,221,1,38,65,2563218184
17,23,14,Improv_Melody,222,1,48,74,2563221444
17,23,14,Improv_Melody,223,5,42,127,2563236124
17,23,14,Improv_Melody,224,1,38,32,2563278648
17,23,14,Improv_Melody,225,1,38,80,2563713092
17,23,14,Improv_Melody,226,1,48,67,2563731668
17,23,14,Improv_Melody,227,5,42,110,2563736108
17,23,14,Improv_Melody,228,1,38,45,2563762656
17,23,14,Improv_Melody,229,1,48,67,2564229280
17,23,14,Improv_Melody,230,5,42,110,2564235592
17,23,14,Improv_Melody,231,1,48,62,2564734884
17,23,14,Improv_Melody,232,5,42,110,2564736688
17,23,14,Improv_Melody,233,2,48,80,2565238876
17,23,14,Improv_Melody,234,2,72,80,2565240944
17,23,14,Improv_Melody,235,5,42,127,2565243548
17,23,14,Improv_Melody,236,1,48,64,2565269964
17,23,14,Improv_Melody,237,1,38,62,2565274796
17,23,14,Improv_Melody,238,1,38,35,2565327940
17,23,14,Improv_Melody,239,1,38,66,2565733928
17,23,14,Improv_Melody,240,5,42,110,2565736860
17,23,14,Improv_Melody,241,1,48,67,2565761432
17,23,14,Improv_Melody,242,1,38,46,2565766484
17,23,14,Improv_Melody,243,5,42,110,2566235672
17,23,14,Improv_Melody,244,1,48,58,2566239756
17,23,14,Improv_Melody,245,5,42,110,2566736320
17,23,14,Improv_Melody,246,1,48,59,2566742572
17,23,14,Improv_Melody,247,1,38,67,2567234724
17,23,14,Improv_Melody,248,5,42,127,2567237640
17,23,14,Improv_Melody,249,1,48,67,2567246952
17,23,14,Improv_Melody,250,1,38,40,2567279188
17,23,14,Improv_Melody,251,1,38,68,2567727296
17,23,14,Improv_Melody,252,5,42,110,2567735696
17,23,14,Improv_Melody,253,1,48,63,2567746052
17,23,14,Improv_Melody,254,1,38,41,2567768732
17,23,14,Improv_Melody,255,5,42,110,2568236668
17,23,14,Improv_Melody,256,1,48,57,2568250164
17,23,14,Improv_Melody,257,5,42,110,2568736128
17,23,14,Improv_Melody,258,1,48,57,2568746636
17,23,14,Improv_Melody,259,2,43,80,2569238388
17,23,14,Improv_Melody,260,2,67,80,2569240688
17,23,14,Improv_Melody,261,5,42,127,2569243292
17,23,14,Improv_Melody,262,1,38,63,2569266568
17,23,14,Improv_Melody,263,1,48,62,2569279548
17,23,14,Improv_Melody,264,1,38,38,2569320816
17,23,14,Improv_Melody,265,5,42,110,2569735512
17,23,14,Improv_Melody,266,1,38,61,2569741764
17,23,14,Improv_Melody,267,1,48,57,2569745480
17,23,14,Improv_Melody,268,1,38,27,2569803924
17,23,14,Improv_Melody,269,5,42,110,2570236408
17,23,14,Improv_Melody,270,1,48,56,2570254756
17,23,14,Improv_Melody,271,1,48,54,2570720136
17,23,14,Improv_Melody,272,5,42,110,2570735936
17,23,14,Improv_Melody,273,1,38,54,2571219372
17,23,14,Improv_Melody,274,1,48,59,2571224728
17,23,14,Improv_Melody,275,5,42,127,2571235672
17,23,14,Improv_Melody,276,1,38,64,2571717360
17,23,14,Improv_Melody,277,1,48,59,2571726304
17,23,14,Improv_Melody,278,5,42,110,2571736424
17,23,14,Improv_Melody,279,1,38,33,2571774472
17,23,14,Improv_Melody,280,1,48,52,2572223696
17,23,14,Improv_Melody,281,5,42,110,2572236352
17,23,14,Improv_Melody,282,5,42,110,2572735820
17,23,14,Improv_Melody,283,1,48,52,2572755584
17,23,14,Improv_Melody,284,2,45,80,2573238308
17,23,14,Improv_Melody,285,2,69,80,2573240300
17,23,14,Improv_Melody,286,1,48,62,2573241788
17,23,14,Improv_Melody,287,5,42,127,2573244392
17,23,14,Improv_Melody,288,1,38,68,2573246984
17,23,14,Improv_Melody,289,1,38,35,2573308048
17,23,14,Improv_Melody,290,1,38,57,2573724116
17,23,14,Improv_Melody,291,1,48,57,2573733956
17,23,14,Improv_Melody,292,5,42,110,2573736232
17,23,14,Improv_Melody,293,5,42,110,2574236192
17,23,14,Improv_Melody,294,1,48,57,2574242072
17,23,14,Improv_Melody,295,1,48,51,2574733832
17,23,14,Improv_Melody,296,5,42,110,2574735644
17,23,14,Improv_Melody,297,1,38,64,2575219132
17,23,14,Improv_Melody,298,1,48,54,2575221916
17,23,14,Improv_Melody,299,5,42,127,2575235392
17,23,14,Improv_Melody,300,1,38,35,2575279412
17,23,14,Improv_Melody,301,1,48,59,2575723308
17,23,14,Improv_Melody,302,1,38,69,2575726728
17,23,14,Improv_Melody,303,5,42,110,2575736200
17,23,14,Improv_Melody,304,5,42,110,2576236056
17,23,14,Improv_Melody,305,1,48,50,2576258464
17,23,14,Improv_Melody,306,1,48,50,2576721800
17,23,14,Improv_Melody,307,5,42,110,2576735584
17,23,14,Improv_Melody,308,1,48,54,2577215140
17,23,14,Improv_Melody,309,1,38,61,2577233268
17,23,14,Improv_Melody,310,2,41,80,2577239020
17,23,14,Improv_Melody,311,2,65,80,2577241168
17,23,14,Improv_Melody,312,5,42,127,2577243700
17,23,14,Improv_Melody,313,1,38,62,2577717332
17,23,14,Improv_Melody,314,1,48,50,2577720596
17,23,14,Improv_Melody,315,5,42,110,2577736312
17,23,14,Improv_Melody,316,1,48,53,2578228764
17,23,14,Improv_Melody,317,5,42,110,2578235896
17,23,14,Improv_Melody,318,5,42,110,2578735508
17,23,14,Improv_Melody,319,1,48,54,2578736472
17,23,14,Improv_Melody,320,1,48,63,2579235032
17,23,14,Improv_Melody,321,5,42,127,2579236820
17,23,14,Improv_Melody,322,1,38,57,2579243744
17,23,14,Improv_Melody,323,1,38,63,2579727248
17,23,14,Improv_Melody,324,5,42,110,2579735800
17,23,14,Improv_Melody,325,1,48,63,2579737212
17,23,14,Improv_Melody,326,1,38,35,2579784072
17,23,14,Improv_Melody,327,1,48,51,2580234608
17,23,14,Improv_Melody,328,5,42,110,2580236396
17,23,14,Improv_Melody,329,5,42,110,2580736308
17,23,14,Improv_Melody,330,1,48,50,2580758240
17,23,14,Improv_Melody,331,2,48,80,2581239092
17,23,14,Improv_Melody,332,2,72,80,2581240868
17,23,14,Improv_Melody,333,5,42,127,2581243320
17,23,14,Improv_Melody,334,1,48,60,2581244284
17,23,14,Improv_Melody,335,1,38,54,2581268536
17,23,14,Improv_Melody,336,5,42,110,2581735960
17,23,14,Improv_Melody,337,1,48,61,2581753784
17,23,14,Improv_Melody,338,1,38,61,2581760340
17,23,14,Improv_Melody,339,1,38,31,2581815500
17,23,14,Improv_Melody,340,5,42,110,2582235588
17,23,14,Improv_Melody,341,1,48,57,2582250576
17,23,14,Improv_Melody,342,1,48,52,2582731488
17,23,14,Improv_Melody,343,5,42,110,2582736232
17,23,14,Improv_Melody,344,1,48,63,2583219744
17,23,14,Improv_Melody,345,1,38,70,2583231528
17,23,14,Improv_Melody,346,5,42,127,2583235968
17,23,14,Improv_Melody,347,1,38,40,2583288280
17,23,14,Improv_Melody,348,5,42,110,2583735756
17,23,14,Improv_Melody,349,1,48,59,2583741636
17,23,14,Improv_Melody,350,1,38,69,2583747592
17,23,14,Improv_Melody,351,5,42,110,2584236512
17,23,14,Improv_Melody,352,1,48,54,2584244480
17,23,14,Improv_Melody,353,1,48,55,2584732792
17,23,14,Improv_Melody,354,5,42,110,2584735964
17,23,14,Improv_Melody,355,2,43,80,2585238380
17,23,14,Improv_Melody,356,1,48,62,2585240460
17,23,14,Improv_Melody,357,2,67,80,2585242176
17,23,14,Improv_Melody,358,5,42,127,2585244408
17,23,14,Improv_Melody,359,1,38,69,2585256484
17,23,14,Improv_Melody,360,1,38,62,2585727956
17,23,14,Improv_Melody,361,5,42,110,2585735616
17,23,14,Improv_Melody,362,1,48,61,2585742988
17,23,14,Improv_Melody,363,1,38,35,2585775896
17,23,14,Improv_Melody,364,5,42,110,2586236148
17,23,14,Improv_Melody,365,1,48,62,2586249420
17,23,14,Improv_Melody,366,1,48,54,2586721496
17,23,14,Improv_Melody,367,5,42,110,2586735944
17,23,14,Improv_Melody,368,1,48,64,2587220728
17,23,14,Improv_Melody,369,5,42,127,2587235776
17,23,14,Improv_Melody,370,1,38,70,2587240464
17,23,14,Improv_Melody,371,1,38,69,2587705668
17,23,14,Improv_Melody,372,1,48,60,2587711548
17,23,14,Improv_Melody,373,5,42,110,2587736524
17,23,14,Improv_Melody,374,1,38,36,2587762848
17,23,14,Improv_Melody,375,1,48,61,2588217124
17,23,14,Improv_Melody,376,5,42,110,2588236280
17,23,14,Improv_Melody,377,1,48,56,2588715244
17,23,14,Improv_Melody,378,5,42,110,2588735816
17,23,14,Improv_Melody,379,2,45,80,2589238000
17,23,14,Improv_Melody,380,2,69,80,2589240224
17,23,14,Improv_Melody,381,5,42,127,2589242760
17,23,14,Improv_Melody,382,1,48,66,2589243724
17,23,14,Improv_Melody,383,1,38,68,2589262296
17,23,14,Improv_Melody,384,5,42,110,2589736580
17,23,14,Improv_Melody,385,1,38,64,2589767176
17,23,14,Improv_Melody,386,1,48,60,2589772532
17,23,14,Improv_Melody,387,1,38,38,2589820920
17,23,14,Improv_Melody,388,5,42,110,2590235896
17,23,14,Improv_Melody,389,1,48,58,2590246848
17,23,14,Improv_Melody,390,5,42,110,2590735728
17,23,14,Improv_Melody,391,1,48,58,2590748324
17,23,14,Improv_Melody,392,5,42,127,2591235556
17,23,14,Improv_Melody,393,1,48,67,2591245472
17,23,14,Improv_Melody,394,1,38,74,2591271660
17,23,14,Improv_Melody,395,5,42,110,2591736252
17,23,14,Improv_Melody,396,1,48,59,2591739072
17,23,14,Improv_Melody,397,1,38,62,2591753012
17,23,14,Improv_Melody,398,1,48,54,2592213068
17,23,14,Improv_Melody,399,5,42,110,2592235956
17,23,14,Improv_Melody,400,5,42,110,2592735496
17,23,14,Improv_Melody,401,1,48,57,2592755704
17,23,14,Improv_Melody,402,2,41,80,2593238948
17,23,14,Improv_Melody,403,2,65,80,2593241020
17,23,14,Improv_Melody,404,5,42,127,2593243628
17,23,14,Improv_Melody,405,1,48,56,2593258168
17,23,14,Improv_Melody,406,1,38,78,2593273752
17,23,14,Improv_Melody,407,5,42,110,2593736168
17,23,14,Improv_Melody,408,1,38,69,2593737352
17,23,14,Improv_Melody,409,1,48,55,2593746368
17,23,14,Improv_Melody,410,1,38,38,2593784580
17,23,14,Improv_Melody,411,1,48,57,2594234592
17,23,14,Improv_Melody,412,5,42,110,2594236308
17,23,14,Improv_Melody,413,1,48,57,2594724452
17,23,14,Improv_Melody,414,5,42,110,2594735616
17,23,14,Improv_Melody,415,5,42,127,2595236200
17,23,14,Improv_Melody,416,1,48,57,2595238288
17,23,14,Improv_Melody,417,1,38,75,2595248496
17,23,14,Improv_Melody,418,1,48,62,2595727740
17,23,14,Improv_Melody,419,1,38,65,2595732724
17,23,14,Improv_Melody,420,5,42,110,2595736196
17,23,14,Improv_Melody,421,1,38,40,2595774092
17,23,14,Improv_Melody,422,5,42,110,2596235612
17,23,14,Improv_Melody,423,1,48,59,2596241116
17,23,14,Improv_Melody,424,5,42,110,2596736416
17,23,14,Improv_Melody,425,1,48,59,2596738932
17,23,14,Improv_Melody,426,2,48,80,2597238448
17,23,14,Improv_Melody,427,2,72,80,2597240672
17,23,14,Improv_Melody,428,5,42,127,2597243208
17,23,14,Improv_Melody,429,1,48,63,2597246100
17,23,14,Improv_Melody,430,1,38,58,2597277968
17,23,14,Improv_Melody,431,1,38,27,2597339996
17,23,14,Improv_Melody,432,5,42,110,2597735924
17,23,14,Improv_Melody,433,1,48,66,2597753104
17,23,14,Improv_Melody,434,1,38,65,2597759656
17,23,14,Improv_Melody,435,1,38,36,2597811680
17,23,14,Improv_Melody,0,9999,9999,9999,2517233768
17,23,14,Improv_Melody,1,9999,9999,9999,2517733456
17,23,14,Improv_Melody,2,9999,9999,9999,2518233156
17,23,14,Improv_Melody,3,9999,9999,9999,2518733904
17,23,14,Improv_Melody,4,9999,9999,9999,2519233608
17,23,14,Improv_Melody,5,9999,9999,9999,2519733312
17,23,14,Improv_Melody,6,9999,9999,9999,2520234060
17,23,14,Improv_Melody,7,9999,9999,9999,2520733764
17,23,14,Improv_Melody,8,9999,9999,9999,2521233468
17,23,14,Improv_Melody,9,9999,9999,9999,2521733184
17,23,14,Improv_Melody,10,9999,9999,9999,2522233932
17,23,14,Improv_Melody,11,9999,9999,9999,2522733684
17,23,14,Improv_Melody,12,9999,9999,9999,2523233388
17,23,14,Improv_Melody,13,9999,9999,9999,2523734136
17,23,14,Improv_Melody,14,9999,9999,9999,2524233840
17,23,14,Improv_Melody,15,9999,9999,9999,2524733544
17,23,14,Improv_Melody,16,9999,9999,9999,2525233248
17,23,14,Improv_Melody,17,9999,9999,9999,2525734008
17,23,14,Improv_Melody,18,9999,9999,9999,2526233712
17,23,14,Improv_Melody,19,9999,9999,9999,2526733416
17,23,14,Improv_Melody,20,9999,9999,9999,2527233116
17,23,14,Improv_Melody,21,9999,9999,9999,2527733864
17,23,14,Improv_Melody,22,9999,9999,9999,2528233568
17,23,14,Improv_Melody,23,9999,9999,9999,2528733272
17,23,14,Improv_Melody,24,9999,9999,9999,2529234020
17,23,14,Improv_Melody,25,9999,9999,9999,2529733736
17,23,14,Improv_Melody,26,9999,9999,9999,2530233440
17,23,14,Improv_Melody,27,9999,9999,9999,2530733144
17,23,14,Improv_Melody,28,9999,9999,9999,2531233892
17,23,14,Improv_Melody,29,9999,9999,9999,2531733596
17,23,14,Improv_Melody,30,9999,9999,9999,2532233296
17,23,14,Improv_Melody,31,9999,9999,9999,2532734044
17,23,14,Improv_Melody,32,9999,9999,9999,2533233724
17,23,14,Improv_Melody,33,9999,9999,9999,2533733456
17,23,14,Improv_Melody,34,9999,9999,9999,2534233168
17,23,14,Improv_Melody,35,9999,9999,9999,2534733888
17,23,14,Improv_Melody,36,9999,9999,9999,2535233624
17,23,14,Improv_Melody,37,9999,9999,9999,2535733312
17,23,14,Improv_Melody,38,9999,9999,9999,2536234092
17,23,14,Improv_Melody,39,9999,9999,9999,2536733768
17,23,14,Improv_Melody,40,9999,9999,9999,2537233504
17,23,14,Improv_Melody,41,9999,9999,9999,2537733224
17,23,14,Improv_Melody,42,9999,9999,9999,2538233924
17,23,14,Improv_Melody,43,9999,9999,9999,2538733680
17,23,14,Improv_Melody,44,9999,9999,9999,2539233344
17,23,14,Improv_Melody,45,9999,9999,9999,2539734096
17,23,14,Improv_Melody,46,9999,9999,9999,2540233824
17,23,14,Improv_Melody,47,9999,9999,9999,2540733508
17,23,14,Improv_Melody,48,9999,9999,9999,2541233268
17,23,14,Improv_Melody,49,9999,9999,9999,2541733968
17,23,14,Improv_Melody,50,9999,9999,9999,2542233676
17,23,14,Improv_Melody,51,9999,9999,9999,2542733428
17,23,14,Improv_Melody,52,9999,9999,9999,2543233104
17,23,14,Improv_Melody,53,9999,9999,9999,2543733836
17,23,14,Improv_Melody,54,9999,9999,9999,2544233544
17,23,14,Improv_Melody,55,9999,9999,9999,2544733292
17,23,14,Improv_Melody,56,9999,9999,9999,2545234024
17,23,14,Improv_Melody,57,9999,9999,9999,2545733692
17,23,14,Improv_Melody,58,9999,9999,9999,2546233400
17,23,14,Improv_Melody,59,9999,9999,9999,2546733156
17,23,14,Improv_Melody,60,9999,9999,9999,2547233884
17,23,14,Improv_Melody,61,9999,9999,9999,2547733588
17,23,14,Improv_Melody,62,9999,9999,9999,2548233292
17,23,14,Improv_Melody,63,9999,9999,9999,2548734012
17,23,14,Improv_Melody,64,9999,9999,9999,2549233768
17,23,14,Improv_Melody,65,9999,9999,9999,2549733488
17,23,14,Improv_Melody,66,9999,9999,9999,2550233192
17,23,14,Improv_Melody,67,9999,9999,9999,2550733924
17,23,14,Improv_Melody,68,9999,9999,9999,2551233656
17,23,14,Improv_Melody,69,9999,9999,9999,2551733364
17,23,14,Improv_Melody,70,9999,9999,9999,2552234048
17,23,14,Improv_Melody,71,9999,9999,9999,2552733796
17,23,14,Improv_Melody,72,9999,9999,9999,2553233480
17,23,14,Improv_Melody,73,9999,9999,9999,2553733216
17,23,14,Improv_Melody,74,9999,9999,9999,2554233956
17,23,14,Improv_Melody,75,9999,9999,9999,2554733680
17,23,14,Improv_Melody,76,9999,9999,9999,2555233340
17,23,14,Improv_Melody,77,9999,9999,9999,2555734076
17,23,14,Improv_Melody,78,9999,9999,9999,2556233804
17,23,14,Improv_Melody,79,9999,9999,9999,2556733492
17,23,14,Improv_Melody,80,9999,9999,9999,2557233248
17,23,14,Improv_Melody,81,9999,9999,9999,2557733968
17,23,14,Improv_Melody,82,9999,9999,9999,2558233684
17,23,14,Improv_Melody,83,9999,9999,9999,2558733364
17,23,14,Improv_Melody,84,9999,9999,9999,2559233116
17,23,14,Improv_Melody,85,9999,9999,9999,2559733840
17,23,14,Improv_Melody,86,9999,9999,9999,2560233552
17,23,14,Improv_Melody,87,9999,9999,9999,2560733236
17,23,14,Improv_Melody,88,9999,9999,9999,2561234036
17,23,14,Improv_Melody,89,9999,9999,9999,2561733744
17,23,14,Improv_Melody,90,9999,9999,9999,2562233448
17,23,14,Improv_Melody,91,9999,9999,9999,2562733132
17,23,14,Improv_Melody,92,9999,9999,9999,2563233908
17,23,14,Improv_Melody,93,9999,9999,9999,2563733596
17,23,14,Improv_Melody,94,9999,9999,9999,2564233300
17,23,14,Improv_Melody,95,9999,9999,9999,2564734036
17,23,14,Improv_Melody,96,9999,9999,9999,2565233764
17,23,14,Improv_Melody,97,9999,9999,9999,2565733476
17,23,14,Improv_Melody,98,9999,9999,9999,2566233160
17,23,14,Improv_Melody,99,9999,9999,9999,2566733884
17,23,14,Improv_Melody,100,9999,9999,9999,2567233640
17,23,14,Improv_Melody,101,9999,9999,9999,2567733332
17,23,14,Improv_Melody,102,9999,9999,9999,2568234084
17,23,14,Improv_Melody,103,9999,9999,9999,2568733764
17,23,14,Improv_Melody,104,9999,9999,9999,2569233524
17,23,14,Improv_Melody,105,9999,9999,9999,2569733224
17,23,14,Improv_Melody,106,9999,9999,9999,2570233968
17,23,14,Improv_Melody,107,9999,9999,9999,2570733644
17,23,14,Improv_Melody,108,9999,9999,9999,2571233380
17,23,14,Improv_Melody,109,9999,9999,9999,2571734136
17,23,14,Improv_Melody,110,9999,9999,9999,2572233844
17,23,14,Improv_Melody,111,9999,9999,9999,2572733532
17,23,14,Improv_Melody,112,9999,9999,9999,2573233212
17,23,14,Improv_Melody,113,9999,9999,9999,2573734020
17,23,14,Improv_Melody,114,9999,9999,9999,2574233680
17,23,14,Improv_Melody,115,9999,9999,9999,2574733380
17,23,14,Improv_Melody,116,9999,9999,9999,2575233104
17,23,14,Improv_Melody,117,9999,9999,9999,2575733836
17,23,14,Improv_Melody,118,9999,9999,9999,2576233544
17,23,14,Improv_Melody,119,9999,9999,9999,2576733292
17,23,14,Improv_Melody,120,9999,9999,9999,2577234004
17,23,14,Improv_Melody,121,9999,9999,9999,2577733728
17,23,14,Improv_Melody,122,9999,9999,9999,2578233456
17,23,14,Improv_Melody,123,9999,9999,9999,2578733144
17,23,14,Improv_Melody,124,9999,9999,9999,2579233872
17,23,14,Improv_Melody,125,9999,9999,9999,2579733588
17,23,14,Improv_Melody,126,9999,9999,9999,2580233292
17,23,14,Improv_Melody,127,9999,9999,9999,2580734020
17,23,14,Improv_Melody,128,9999,9999,9999,2581233776
17,23,14,Improv_Melody,129,9999,9999,9999,2581733448
17,23,14,Improv_Melody,130,9999,9999,9999,2582233148
17,23,14,Improv_Melody,131,9999,9999,9999,2582733944
17,23,14,Improv_Melody,132,9999,9999,9999,2583233604
17,23,14,Improv_Melody,133,9999,9999,9999,2583733320
17,23,14,Improv_Melody,134,9999,9999,9999,2584234072
17,23,14,Improv_Melody,135,9999,9999,9999,2584733748
17,23,14,Improv_Melody,136,9999,9999,9999,2585233512
17,23,14,Improv_Melody,137,9999,9999,9999,2585733180
17,23,14,Improv_Melody,138,9999,9999,9999,2586233932
17,23,14,Improv_Melody,139,9999,9999,9999,2586733656
17,23,14,Improv_Melody,140,9999,9999,9999,2587233340
17,23,14,Improv_Melody,141,9999,9999,9999,2587734088
17,23,14,Improv_Melody,142,9999,9999,9999,2588233844
17,23,14,Improv_Melody,143,9999,9999,9999,2588733524
17,23,14,Improv_Melody,144,9999,9999,9999,2589233212
17,23,14,Improv_Melody,145,9999,9999,9999,2589733992
17,23,14,Improv_Melody,146,9999,9999,9999,2590233684
17,23,14,Improv_Melody,147,9999,9999,9999,2590733364
17,23,14,Improv_Melody,148,9999,9999,9999,2591233120
17,23,14,Improv_Melody,149,9999,9999,9999,2591733816
17,23,14,Improv_Melody,150,9999,9999,9999,2592233592
17,23,14,Improv_Melody,151,9999,9999,9999,2592733280
17,23,14,Improv_Melody,152,9999,9999,9999,2593234008
17,23,14,Improv_Melody,153,9999,9999,9999,2593733728
17,23,14,Improv_Melody,154,9999,9999,9999,2594233432
17,23,14,Improv_Melody,155,9999,9999,9999,2594733104
17,23,14,Improv_Melody,156,9999,9999,9999,2595233912
17,23,14,Improv_Melody,157,9999,9999,9999,2595733608
17,23,14,Improv_Melody,158,9999,9999,9999,2596233324
17,23,14,Improv_Melody,159,9999,9999,9999,2596734052
17,23,14,Improv_Melody,160,9999,9999,9999,2597233736
17,23,14,Improv_Melody,161,9999,9999,9999,2597733488
