pid,taskRunCount,taskID,taskName,i,channel,pitch,velocity,microseconds
1,0,Ticks_Pract_8,0,5,42,127,63052084
261,0,Ticks_Pract_8,1,5,42,127,63851836
261,0,Ticks_Pract_8,2,5,42,127,64651888
261,0,Ticks_Pract_8,3,5,42,127,65452344
261,0,Ticks_Pract_8,4,5,42,127,66252024
261,0,Ticks_Pract_8,5,5,42,127,67051780
261,0,Ticks_Pract_8,6,5,42,127,67851608
261,0,Ticks_Pract_8,7,5,42,127,68652412
261,0,Ticks_Pract_8,8,5,42,127,69452092
261,0,Ticks_Pract_8,9,5,42,127,70251848
261,0,Ticks_Pract_8,10,5,42,127,71051604
261,0,Ticks_Pract_8,11,5,42,127,71852428
261,0,Ticks_Pract_8,12,5,42,127,72652108
261,0,Ticks_Pract_8,13,5,42,127,73451792
261,0,Ticks_Pract_8,14,5,42,127,74251620
261,0,Ticks_Pract_8,15,5,42,127,75052496
261,0,Ticks_Pract_8,16,5,42,127,75852104
261,0,Ticks_Pract_8,17,5,42,127,76651784
261,0,Ticks_Pract_8,18,1,48,52,76684376
261,0,Ticks_Pract_8,19,1,48,50,77426196
261,0,Ticks_Pract_8,20,5,42,127,77451664
261,0,Ticks_Pract_8,21,5,42,127,78252400
261,0,Ticks_Pract_8,22,1,48,53,78271296
261,0,Ticks_Pract_8,23,5,42,127,79052280
261,0,Ticks_Pract_8,24,1,48,54,79086584
261,0,Ticks_Pract_8,25,1,48,54,79842700
261,0,Ticks_Pract_8,26,5,42,127,79851932
261,0,Ticks_Pract_8,27,5,42,127,80651600
261,0,Ticks_Pract_8,28,1,48,52,80659132
261,0,Ticks_Pract_8,29,1,48,52,81449052
261,0,Ticks_Pract_8,30,5,42,127,81452300
261,0,Ticks_Pract_8,31,1,48,20,81555328
261,0,Ticks_Pract_8,32,5,42,127,82252236
261,0,Ticks_Pract_8,33,1,48,50,82272184
261,0,Ticks_Pract_8,34,5,42,127,83052120
261,0,Ticks_Pract_8,35,1,48,54,83089048
261,0,Ticks_Pract_8,36,5,42,127,83851556
261,0,Ticks_Pract_8,37,1,48,53,83863272
261,0,Ticks_Pract_8,38,1,48,53,84652808
261,0,Ticks_Pract_8,39,5,42,127,84654224
261,0,Ticks_Pract_8,40,1,48,52,85435820
261,0,Ticks_Pract_8,41,5,42,127,85452236
261,0,Ticks_Pract_8,42,1,48,56,86243560
261,0,Ticks_Pract_8,43,5,42,127,86251972
261,0,Ticks_Pract_8,0,9999,9999,9999,63049796
261,0,Ticks_Pract_8,1,9999,9999,9999,63849548
261,0,Ticks_Pract_8,2,9999,9999,9999,64649304
261,0,Ticks_Pract_8,3,9999,9999,9999,65450056
261,0,Ticks_Pract_8,4,9999,9999,9999,66249812
261,0,Ticks_Pract_8,5,9999,9999,9999,67049568
261,0,Ticks_Pract_8,6,9999,9999,9999,67849320
261,0,Ticks_Pract_8,7,9999,9999,9999,68650048
261,0,Ticks_Pract_8,8,9999,9999,9999,69449804
261,0,Ticks_Pract_8,9,9999,9999,9999,70249560
261,0,Ticks_Pract_8,10,9999,9999,9999,71049316
261,0,Ticks_Pract_8,11,9999,9999,9999,71850068
261,0,Ticks_Pract_8,12,9999,9999,9999,72649820
261,0,Ticks_Pract_8,13,9999,9999,9999,73449580
261,0,Ticks_Pract_8,14,9999,9999,9999,74249332
261,0,Ticks_Pract_8,15,9999,9999,9999,75050060
261,0,Ticks_Pract_8,16,9999,9999,9999,75849816
261,0,Ticks_Pract_8,17,9999,9999,9999,76649572
261,0,Ticks_Pract_8,18,9999,9999,9999,77449300
261,0,Ticks_Pract_8,19,9999,9999,9999,78250036
261,0,Ticks_Pract_8,20,9999,9999,9999,79049844
261,0,Ticks_Pract_8,21,9999,9999,9999,79849572
261,0,Ticks_Pract_8,22,9999,9999,9999,80649312
261,0,Ticks_Pract_8,23,9999,9999,9999,81450084
261,0,Ticks_Pract_8,24,9999,9999,9999,82249800
261,0,Ticks_Pract_8,25,9999,9999,9999,83049536
261,0,Ticks_Pract_8,26,9999,9999,9999,83849268
261,0,Ticks_Pract_8,27,9999,9999,9999,84650072
261,0,Ticks_Pract_8,28,9999,9999,9999,85449800
261,0,Ticks_Pract_8,29,9999,9999,9999,86249532
262,1,Ticks_Pract_5,0,5,42,127,99333600
262,1,Ticks_Pract_5,1,5,42,127,99834288
262,1,Ticks_Pract_5,2,5,42,127,100333856
262,1,Ticks_Pract_5,3,5,42,127,100833720
262,1,Ticks_Pract_5,4,5,42,127,101334484
262,1,Ticks_Pract_5,5,5,42,127,101834276
262,1,Ticks_Pract_5,6,5,42,127,102333696
262,1,Ticks_Pract_5,7,5,42,127,102833636
262,1,Ticks_Pract_5,8,5,42,127,103334324
262,1,Ticks_Pract_5,9,5,42,127,103834164
262,1,Ticks_Pract_5,10,5,42,127,104333732
262,1,Ticks_Pract_5,11,5,42,127,104834348
262,1,Ticks_Pract_5,12,1,48,36,105299244
262,1,Ticks_Pract_5,13,5,42,127,105334204
262,1,Ticks_Pract_5,14,5,42,127,105833832
262,1,Ticks_Pract_5,15,1,48,40,105844132
262,1,Ticks_Pract_5,16,1,48,34,106333752
262,1,Ticks_Pract_5,17,5,42,127,106335244
262,1,Ticks_Pract_5,18,5,42,127,106834268
262,1,Ticks_Pract_5,19,1,48,36,106863644
262,1,Ticks_Pract_5,20,1,48,35,107323000
262,1,Ticks_Pract_5,21,5,42,127,107334328
262,1,Ticks_Pract_5,22,5,42,127,107833584
262,1,Ticks_Pract_5,23,1,48,39,107848972
262,1,Ticks_Pract_5,24,1,48,39,108328600
262,1,Ticks_Pract_5,25,5,42,127,108333344
262,1,Ticks_Pract_5,26,5,42,127,108834168
262,1,Ticks_Pract_5,27,1,48,38,108849852
262,1,Ticks_Pract_5,28,1,48,37,109328284
262,1,Ticks_Pract_5,29,5,42,127,109334004
262,1,Ticks_Pract_5,30,1,48,38,109829776
262,1,Ticks_Pract_5,31,5,42,127,109833476
262,1,Ticks_Pract_5,32,1,48,38,110331416
262,1,Ticks_Pract_5,33,5,42,127,110334364
262,1,Ticks_Pract_5,34,1,48,37,110832712
262,1,Ticks_Pract_5,35,5,42,127,110834432
262,1,Ticks_Pract_5,36,5,42,127,111333836
262,1,Ticks_Pract_5,37,1,48,35,111337328
262,1,Ticks_Pract_5,38,5,42,127,111833380
262,1,Ticks_Pract_5,39,1,48,38,111846448
262,1,Ticks_Pract_5,40,1,48,38,112334344
262,1,Ticks_Pract_5,41,5,42,127,112335912
262,1,Ticks_Pract_5,42,5,42,127,112833892
262,1,Ticks_Pract_5,43,1,48,37,112844784
262,1,Ticks_Pract_5,44,1,48,37,113327036
262,1,Ticks_Pract_5,45,5,42,127,113333800
262,1,Ticks_Pract_5,46,1,48,41,113826208
262,1,Ticks_Pract_5,47,5,42,127,113834396
262,1,Ticks_Pract_5,48,1,48,41,114317432
262,1,Ticks_Pract_5,49,5,42,127,114334016
262,1,Ticks_Pract_5,50,1,48,40,114812408
262,1,Ticks_Pract_5,51,5,42,127,114833984
262,1,Ticks_Pract_5,52,1,48,39,115322128
262,1,Ticks_Pract_5,53,5,42,127,115333456
262,1,Ticks_Pract_5,54,1,48,41,115813292
262,1,Ticks_Pract_5,55,5,42,127,115834272
262,1,Ticks_Pract_5,56,5,42,127,116333896
262,1,Ticks_Pract_5,57,1,48,43,116335160
262,1,Ticks_Pract_5,58,5,42,127,116833740
262,1,Ticks_Pract_5,59,1,48,39,116855860
262,1,Ticks_Pract_5,60,1,48,37,117320528
262,1,Ticks_Pract_5,61,5,42,127,117334400
262,1,Ticks_Pract_5,62,1,48,43,117832968
262,1,Ticks_Pract_5,63,5,42,127,117834768
262,1,Ticks_Pract_5,64,5,42,127,118333872
262,1,Ticks_Pract_5,65,1,48,40,118341624
262,1,Ticks_Pract_5,66,1,48,40,118819832
262,1,Ticks_Pract_5,67,5,42,127,118833704
262,1,Ticks_Pract_5,0,9999,9999,9999,99331168
262,1,Ticks_Pract_5,1,9999,9999,9999,99831928
262,1,Ticks_Pract_5,2,9999,9999,9999,100331572
262,1,Ticks_Pract_5,3,9999,9999,9999,100831288
262,1,Ticks_Pract_5,4,9999,9999,9999,101332052
262,1,Ticks_Pract_5,5,9999,9999,9999,101831768
262,1,Ticks_Pract_5,6,9999,9999,9999,102331484
262,1,Ticks_Pract_5,7,9999,9999,9999,102831200
262,1,Ticks_Pract_5,8,9999,9999,9999,103331888
262,1,Ticks_Pract_5,9,9999,9999,9999,103831656
262,1,Ticks_Pract_5,10,9999,9999,9999,104331372
262,1,Ticks_Pract_5,11,9999,9999,9999,104832060
262,1,Ticks_Pract_5,12,9999,9999,9999,105331768
262,1,Ticks_Pract_5,13,9999,9999,9999,105831544
262,1,Ticks_Pract_5,14,9999,9999,9999,106331240
262,1,Ticks_Pract_5,15,9999,9999,9999,106831984
262,1,Ticks_Pract_5,16,9999,9999,9999,107331672
262,1,Ticks_Pract_5,17,9999,9999,9999,107831372
262,1,Ticks_Pract_5,18,9999,9999,9999,108331060
262,1,Ticks_Pract_5,19,9999,9999,9999,108831808
262,1,Ticks_Pract_5,20,9999,9999,9999,109331568
262,1,Ticks_Pract_5,21,9999,9999,9999,109831264
262,1,Ticks_Pract_5,22,9999,9999,9999,110332004
262,1,Ticks_Pract_5,23,9999,9999,9999,110831708
262,1,Ticks_Pract_5,24,9999,9999,9999,111331400
262,1,Ticks_Pract_5,25,9999,9999,9999,111831096
262,1,Ticks_Pract_5,26,9999,9999,9999,112331836
262,1,Ticks_Pract_5,27,9999,9999,9999,112831604
262,1,Ticks_Pract_5,28,9999,9999,9999,113331292
262,1,Ticks_Pract_5,29,9999,9999,9999,113832036
262,1,Ticks_Pract_5,30,9999,9999,9999,114331728
262,1,Ticks_Pract_5,31,9999,9999,9999,114831476
262,1,Ticks_Pract_5,32,9999,9999,9999,115331168
262,1,Ticks_Pract_5,33,9999,9999,9999,115831908
262,1,Ticks_Pract_5,34,9999,9999,9999,116331612
262,1,Ticks_Pract_5,35,9999,9999,9999,116831304
262,1,Ticks_Pract_5,36,9999,9999,9999,117332040
262,1,Ticks_Pract_5,37,9999,9999,9999,117831740
262,1,Ticks_Pract_5,38,9999,9999,9999,118331508
262,1,Ticks_Pract_5,39,9999,9999,9999,118831196
263,2,T1_SMS_8,0,5,42,127,209111508
263,2,T1_SMS_8,1,5,42,127,209911188
263,2,T1_SMS_8,2,5,42,127,210710944
263,2,T1_SMS_8,3,5,42,127,211510772
263,2,T1_SMS_8,4,1,48,48,212297324
263,2,T1_SMS_8,5,5,42,127,212311492
263,2,T1_SMS_8,6,1,48,46,213097884
263,2,T1_SMS_8,7,5,42,127,213111080
263,2,T1_SMS_8,8,1,48,51,213890808
263,2,T1_SMS_8,9,5,42,127,213910836
263,2,T1_SMS_8,10,5,42,127,214710724
263,2,T1_SMS_8,11,1,48,56,214728652
263,2,T1_SMS_8,12,5,42,127,215511504
263,2,T1_SMS_8,13,1,48,52,215546708
263,2,T1_SMS_8,14,5,42,127,216311088
263,2,T1_SMS_8,15,1,48,52,216313908
263,2,T1_SMS_8,16,1,48,51,217109456
263,2,T1_SMS_8,17,5,42,127,217111188
263,2,T1_SMS_8,18,5,42,127,217910484
263,2,T1_SMS_8,19,1,48,51,217916744
263,2,T1_SMS_8,20,5,42,127,218711708
263,2,T1_SMS_8,21,1,48,52,218716476
263,2,T1_SMS_8,22,5,42,127,219511068
263,2,T1_SMS_8,23,1,48,50,219528476
263,2,T1_SMS_8,24,1,48,51,220304104
263,2,T1_SMS_8,25,5,42,127,220310820
263,2,T1_SMS_8,26,5,42,127,221110488
263,2,T1_SMS_8,27,1,48,48,221119964
263,2,T1_SMS_8,28,1,48,46,221873232
263,2,T1_SMS_8,29,5,42,127,221911560
263,2,T1_SMS_8,30,1,48,49,222698096
263,2,T1_SMS_8,31,5,42,127,222711440
263,2,T1_SMS_8,32,1,48,47,223490500
263,2,T1_SMS_8,33,5,42,127,223510952
263,2,T1_SMS_8,34,1,48,56,224305488
263,2,T1_SMS_8,35,5,42,127,224310684
263,2,T1_SMS_8,36,5,42,127,225111544
263,2,T1_SMS_8,37,1,48,49,225120648
263,2,T1_SMS_8,38,1,48,49,225910448
263,2,T1_SMS_8,39,5,42,127,225912244
263,2,T1_SMS_8,40,1,48,48,226698104
263,2,T1_SMS_8,41,5,42,127,226710880
263,2,T1_SMS_8,42,1,48,49,227505272
263,2,T1_SMS_8,43,5,42,127,227510616
263,2,T1_SMS_8,44,5,42,127,228311328
263,2,T1_SMS_8,45,1,48,51,228330376
263,2,T1_SMS_8,46,5,42,127,229111284
263,2,T1_SMS_8,47,1,48,48,229112400
263,2,T1_SMS_8,48,1,48,51,229883380
263,2,T1_SMS_8,49,5,42,127,229911012
263,2,T1_SMS_8,50,5,42,127,230710532
263,2,T1_SMS_8,51,1,48,48,230713500
263,2,T1_SMS_8,52,1,48,48,231497060
263,2,T1_SMS_8,53,5,42,127,231511380
263,2,T1_SMS_8,54,1,48,47,232295892
263,2,T1_SMS_8,55,5,42,127,232311260
263,2,T1_SMS_8,56,1,48,47,233091888
263,2,T1_SMS_8,57,5,42,127,233110944
263,2,T1_SMS_8,58,1,48,47,233895680
263,2,T1_SMS_8,59,5,42,127,233910976
263,2,T1_SMS_8,60,1,48,50,234698556
263,2,T1_SMS_8,61,5,42,127,234711308
263,2,T1_SMS_8,62,1,48,49,235507120
263,2,T1_SMS_8,63,5,42,127,235511116
263,2,T1_SMS_8,64,5,42,127,236310784
263,2,T1_SMS_8,65,1,48,47,236317416
263,2,T1_SMS_8,66,1,48,42,237080780
263,2,T1_SMS_8,67,5,42,127,237110732
263,2,T1_SMS_8,68,1,48,50,237870716
263,2,T1_SMS_8,69,5,42,127,237911364
263,2,T1_SMS_8,70,1,48,48,238696852
263,2,T1_SMS_8,71,5,42,127,238711096
263,2,T1_SMS_8,72,1,48,53,239493148
263,2,T1_SMS_8,73,5,42,127,239510856
263,2,T1_SMS_8,74,5,42,127,240310596
263,2,T1_SMS_8,75,1,48,57,240311484
263,2,T1_SMS_8,76,1,48,57,241106468
263,2,T1_SMS_8,77,5,42,127,241111516
263,2,T1_SMS_8,78,1,48,60,241861928
263,2,T1_SMS_8,79,5,42,127,241911176
263,2,T1_SMS_8,80,1,48,60,242688512
263,2,T1_SMS_8,81,5,42,127,242710760
263,2,T1_SMS_8,82,1,48,56,243458552
263,2,T1_SMS_8,83,5,42,127,243510496
263,2,T1_SMS_8,84,1,48,58,244273692
263,2,T1_SMS_8,85,5,42,127,244311352
263,2,T1_SMS_8,86,1,48,59,245105892
263,2,T1_SMS_8,87,5,42,127,245111160
263,2,T1_SMS_8,88,1,48,62,245911148
263,2,T1_SMS_8,89,5,42,127,245912712
263,2,T1_SMS_8,90,5,42,127,246710508
263,2,T1_SMS_8,91,1,48,57,246717744
263,2,T1_SMS_8,92,1,48,56,247492320
263,2,T1_SMS_8,93,5,42,127,247511580
263,2,T1_SMS_8,94,5,42,127,248311096
263,2,T1_SMS_8,95,1,48,56,248325804
263,2,T1_SMS_8,96,1,48,51,249103384
263,2,T1_SMS_8,97,5,42,127,249110968
263,2,T1_SMS_8,98,1,48,56,249894588
263,2,T1_SMS_8,99,5,42,127,249910628
263,2,T1_SMS_8,100,1,48,51,250698584
263,2,T1_SMS_8,101,5,42,127,250711336
263,2,T1_SMS_8,102,5,42,127,251511148
263,2,T1_SMS_8,103,1,48,53,251519060
263,2,T1_SMS_8,104,1,48,50,252286900
263,2,T1_SMS_8,105,5,42,127,252310824
263,2,T1_SMS_8,106,1,48,48,253099084
263,2,T1_SMS_8,107,5,42,127,253110708
263,2,T1_SMS_8,108,1,48,52,253907644
263,2,T1_SMS_8,109,5,42,127,253911268
263,2,T1_SMS_8,110,1,48,50,254692420
263,2,T1_SMS_8,111,5,42,127,254711004
263,2,T1_SMS_8,112,1,48,52,255492824
263,2,T1_SMS_8,113,5,42,127,255510960
263,2,T1_SMS_8,114,1,48,47,256297048
263,2,T1_SMS_8,115,5,42,127,256310768
263,2,T1_SMS_8,116,1,48,47,257093336
263,2,T1_SMS_8,117,5,42,127,257111324
263,2,T1_SMS_8,118,1,48,48,257898232
263,2,T1_SMS_8,119,5,42,127,257911208
263,2,T1_SMS_8,120,1,48,47,258688248
263,2,T1_SMS_8,121,5,42,127,258711040
263,2,T1_SMS_8,122,1,48,50,259503708
263,2,T1_SMS_8,123,5,42,127,259510920
263,2,T1_SMS_8,124,1,48,47,260294988
263,2,T1_SMS_8,125,5,42,127,260311328
263,2,T1_SMS_8,126,1,48,50,261098312
263,2,T1_SMS_8,127,5,42,127,261111140
263,2,T1_SMS_8,128,1,48,51,261901040
263,2,T1_SMS_8,129,5,42,127,261910948
263,2,T1_SMS_8,130,1,48,48,262703088
263,2,T1_SMS_8,131,5,42,127,262710976
263,2,T1_SMS_8,132,1,48,44,263492656
263,2,T1_SMS_8,133,5,42,127,263511460
263,2,T1_SMS_8,134,1,48,50,264310068
263,2,T1_SMS_8,135,5,42,127,264311940
263,2,T1_SMS_8,136,1,48,49,265072224
263,2,T1_SMS_8,137,5,42,127,265110876
263,2,T1_SMS_8,138,5,42,127,265910616
263,2,T1_SMS_8,139,1,48,46,265917324
263,2,T1_SMS_8,140,1,48,42,266701936
263,2,T1_SMS_8,141,5,42,127,266711392
263,2,T1_SMS_8,142,5,42,127,267511280
263,2,T1_SMS_8,143,1,48,48,267531900
263,2,T1_SMS_8,144,1,48,42,268294664
263,2,T1_SMS_8,145,5,42,127,268310856
263,2,T1_SMS_8,146,1,48,21,268367664
263,2,T1_SMS_8,147,5,42,127,269110576
263,2,T1_SMS_8,148,1,48,48,269127684
263,2,T1_SMS_8,149,5,42,127,269911504
263,2,T1_SMS_8,150,1,48,48,269935264
263,2,T1_SMS_8,151,5,42,127,270711012
263,2,T1_SMS_8,152,1,48,47,270736896
263,2,T1_SMS_8,153,5,42,127,271510848
263,2,T1_SMS_8,154,1,48,48,271516284
263,2,T1_SMS_8,155,1,48,47,272288324
263,2,T1_SMS_8,156,5,42,127,272310572
263,2,T1_SMS_8,157,1,48,47,273108480
263,2,T1_SMS_8,158,5,42,127,273111356
263,2,T1_SMS_8,159,1,48,49,273907840
263,2,T1_SMS_8,160,5,42,127,273911236
263,2,T1_SMS_8,161,1,48,47,274704348
263,2,T1_SMS_8,162,5,42,127,274710896
263,2,T1_SMS_8,163,1,48,48,275506408
263,2,T1_SMS_8,164,5,42,127,275510628
263,2,T1_SMS_8,165,1,48,49,276302772
263,2,T1_SMS_8,166,5,42,127,276311336
263,2,T1_SMS_8,167,5,42,127,277111152
263,2,T1_SMS_8,168,1,48,46,277136356
263,2,T1_SMS_8,169,5,42,127,277910764
263,2,T1_SMS_8,170,1,48,46,277929068
263,2,T1_SMS_8,171,5,42,127,278710572
263,2,T1_SMS_8,172,1,48,50,278730664
263,2,T1_SMS_8,173,1,48,45,279506892
263,2,T1_SMS_8,174,5,42,127,279511344
263,2,T1_SMS_8,175,1,48,48,280304760
263,2,T1_SMS_8,176,5,42,127,280311224
263,2,T1_SMS_8,177,5,42,127,281111040
263,2,T1_SMS_8,178,1,48,49,281116780
263,2,T1_SMS_8,179,5,42,127,281910552
263,2,T1_SMS_8,180,1,48,62,281924064
263,2,T1_SMS_8,181,5,42,127,282711404
263,2,T1_SMS_8,182,1,48,57,282728208
263,2,T1_SMS_8,183,1,48,57,283502196
263,2,T1_SMS_8,184,5,42,127,283511204
263,2,T1_SMS_8,185,1,48,53,284300204
263,2,T1_SMS_8,186,5,42,127,284310960
263,2,T1_SMS_8,187,1,48,53,285099516
263,2,T1_SMS_8,188,5,42,127,285110916
263,2,T1_SMS_8,189,5,42,127,285911260
263,2,T1_SMS_8,190,1,48,51,285930008
263,2,T1_SMS_8,191,1,48,54,286692924
263,2,T1_SMS_8,192,5,42,127,286711060
263,2,T1_SMS_8,193,5,42,127,287510800
263,2,T1_SMS_8,194,1,48,59,287515336
263,2,T1_SMS_8,195,1,48,57,288301292
263,2,T1_SMS_8,196,5,42,127,288310824
263,2,T1_SMS_8,197,1,48,59,289082552
263,2,T1_SMS_8,198,5,42,127,289111456
263,2,T1_SMS_8,199,1,48,53,289910592
263,2,T1_SMS_8,200,5,42,127,289912236
263,2,T1_SMS_8,201,5,42,127,290710804
263,2,T1_SMS_8,202,1,48,55,290725436
263,2,T1_SMS_8,203,5,42,127,291510908
263,2,T1_SMS_8,204,1,48,57,291518520
263,2,T1_SMS_8,205,5,42,127,292311612
263,2,T1_SMS_8,206,1,48,58,292329096
263,2,T1_SMS_8,207,5,42,127,293111124
263,2,T1_SMS_8,208,1,48,59,293115732
263,2,T1_SMS_8,209,5,42,127,293910784
263,2,T1_SMS_8,210,1,48,52,293929088
263,2,T1_SMS_8,211,5,42,127,294710516
263,2,T1_SMS_8,212,1,48,55,294725524
263,2,T1_SMS_8,213,5,42,127,295511520
263,2,T1_SMS_8,214,1,48,57,295527880
263,2,T1_SMS_8,215,5,42,127,296311100
263,2,T1_SMS_8,216,1,48,57,296332624
263,2,T1_SMS_8,217,5,42,127,297110936
263,2,T1_SMS_8,218,1,48,59,297124672
263,2,T1_SMS_8,219,1,48,55,297903748
263,2,T1_SMS_8,220,5,42,127,297910664
263,2,T1_SMS_8,221,1,48,59,298709632
263,2,T1_SMS_8,222,5,42,127,298711368
263,2,T1_SMS_8,223,5,42,127,299511556
263,2,T1_SMS_8,224,1,48,53,299520956
263,2,T1_SMS_8,225,5,42,127,300310844
263,2,T1_SMS_8,226,1,48,57,300327204
263,2,T1_SMS_8,227,1,48,53,301098716
263,2,T1_SMS_8,228,5,42,127,301110496
263,2,T1_SMS_8,229,1,48,54,301898980
263,2,T1_SMS_8,230,5,42,127,301911352
263,2,T1_SMS_8,231,5,42,127,302711240
263,2,T1_SMS_8,232,1,48,50,302718624
263,2,T1_SMS_8,233,1,48,58,303450200
263,2,T1_SMS_8,234,5,42,127,303511140
263,2,T1_SMS_8,235,1,48,48,304289152
263,2,T1_SMS_8,236,5,42,127,304310500
263,2,T1_SMS_8,0,9999,9999,9999,209109068
263,2,T1_SMS_8,1,9999,9999,9999,209908824
263,2,T1_SMS_8,2,9999,9999,9999,210708580
263,2,T1_SMS_8,3,9999,9999,9999,211508336
263,2,T1_SMS_8,4,9999,9999,9999,212309056
263,2,T1_SMS_8,5,9999,9999,9999,213108792
263,2,T1_SMS_8,6,9999,9999,9999,213908548
263,2,T1_SMS_8,7,9999,9999,9999,214708288
263,2,T1_SMS_8,8,9999,9999,9999,215509068
263,2,T1_SMS_8,9,9999,9999,9999,216308800
263,2,T1_SMS_8,10,9999,9999,9999,217108536
263,2,T1_SMS_8,11,9999,9999,9999,217908268
263,2,T1_SMS_8,12,9999,9999,9999,218709048
263,2,T1_SMS_8,13,9999,9999,9999,219508780
263,2,T1_SMS_8,14,9999,9999,9999,220308532
263,2,T1_SMS_8,15,9999,9999,9999,221108272
263,2,T1_SMS_8,16,9999,9999,9999,221909048
263,2,T1_SMS_8,17,9999,9999,9999,222708856
263,2,T1_SMS_8,18,9999,9999,9999,223508588
263,2,T1_SMS_8,19,9999,9999,9999,224308320
263,2,T1_SMS_8,20,9999,9999,9999,225109108
263,2,T1_SMS_8,21,9999,9999,9999,225908840
263,2,T1_SMS_8,22,9999,9999,9999,226708592
263,2,T1_SMS_8,23,9999,9999,9999,227508328
263,2,T1_SMS_8,24,9999,9999,9999,228309040
263,2,T1_SMS_8,25,9999,9999,9999,229108848
263,2,T1_SMS_8,26,9999,9999,9999,229908576
263,2,T1_SMS_8,27,9999,9999,9999,230708316
263,2,T1_SMS_8,28,9999,9999,9999,231509092
263,2,T1_SMS_8,29,9999,9999,9999,232308824
263,2,T1_SMS_8,30,9999,9999,9999,233108584
263,2,T1_SMS_8,31,9999,9999,9999,233908316
263,2,T1_SMS_8,32,9999,9999,9999,234709096
263,2,T1_SMS_8,33,9999,9999,9999,235508828
263,2,T1_SMS_8,34,9999,9999,9999,236308568
263,2,T1_SMS_8,35,9999,9999,9999,237108296
263,2,T1_SMS_8,36,9999,9999,9999,237909076
263,2,T1_SMS_8,37,9999,9999,9999,238708808
263,2,T1_SMS_8,38,9999,9999,9999,239508568
263,2,T1_SMS_8,39,9999,9999,9999,240308304
263,2,T1_SMS_8,40,9999,9999,9999,241109080
263,2,T1_SMS_8,41,9999,9999,9999,241908816
263,2,T1_SMS_8,42,9999,9999,9999,242708548
263,2,T1_SMS_8,43,9999,9999,9999,243508284
263,2,T1_SMS_8,44,9999,9999,9999,244309064
263,2,T1_SMS_8,45,9999,9999,9999,245108796
263,2,T1_SMS_8,46,9999,9999,9999,245908564
263,2,T1_SMS_8,47,9999,9999,9999,246708296
263,2,T1_SMS_8,48,9999,9999,9999,247509068
263,2,T1_SMS_8,49,9999,9999,9999,248308808
263,2,T1_SMS_8,50,9999,9999,9999,249108532
263,2,T1_SMS_8,51,9999,9999,9999,249908340
263,2,T1_SMS_8,52,9999,9999,9999,250709048
263,2,T1_SMS_8,53,9999,9999,9999,251508788
263,2,T1_SMS_8,54,9999,9999,9999,252308536
263,2,T1_SMS_8,55,9999,9999,9999,253108272
263,2,T1_SMS_8,56,9999,9999,9999,253909056
263,2,T1_SMS_8,57,9999,9999,9999,254708788
263,2,T1_SMS_8,58,9999,9999,9999,255508600
263,2,T1_SMS_8,59,9999,9999,9999,256308332
263,2,T1_SMS_8,60,9999,9999,9999,257109112
263,2,T1_SMS_8,61,9999,9999,9999,257908844
263,2,T1_SMS_8,62,9999,9999,9999,258708528
263,2,T1_SMS_8,63,9999,9999,9999,259508336
263,2,T1_SMS_8,64,9999,9999,9999,260309040
263,2,T1_SMS_8,65,9999,9999,9999,261108848
263,2,T1_SMS_8,66,9999,9999,9999,261908584
263,2,T1_SMS_8,67,9999,9999,9999,262708316
263,2,T1_SMS_8,68,9999,9999,9999,263509096
263,2,T1_SMS_8,69,9999,9999,9999,264308836
263,2,T1_SMS_8,70,9999,9999,9999,265108588
263,2,T1_SMS_8,71,9999,9999,9999,265908328
263,2,T1_SMS_8,72,9999,9999,9999,266709104
263,2,T1_SMS_8,73,9999,9999,9999,267508844
263,2,T1_SMS_8,74,9999,9999,9999,268308568
263,2,T1_SMS_8,75,9999,9999,9999,269108288
263,2,T1_SMS_8,76,9999,9999,9999,269909068
263,2,T1_SMS_8,77,9999,9999,9999,270708800
263,2,T1_SMS_8,78,9999,9999,9999,271508560
263,2,T1_SMS_8,79,9999,9999,9999,272308288
263,2,T1_SMS_8,80,9999,9999,9999,273109068
263,2,T1_SMS_8,81,9999,9999,9999,273908800
263,2,T1_SMS_8,82,9999,9999,9999,274708532
263,2,T1_SMS_8,83,9999,9999,9999,275508340
263,2,T1_SMS_8,84,9999,9999,9999,276309048
263,2,T1_SMS_8,85,9999,9999,9999,277108788
263,2,T1_SMS_8,86,9999,9999,9999,277908548
263,2,T1_SMS_8,87,9999,9999,9999,278708280
263,2,T1_SMS_8,88,9999,9999,9999,279509056
263,2,T1_SMS_8,89,9999,9999,9999,280308788
263,2,T1_SMS_8,90,9999,9999,9999,281108528
263,2,T1_SMS_8,91,9999,9999,9999,281908336
263,2,T1_SMS_8,92,9999,9999,9999,282709040
263,2,T1_SMS_8,93,9999,9999,9999,283508844
263,2,T1_SMS_8,94,9999,9999,9999,284308600
263,2,T1_SMS_8,95,9999,9999,9999,285108332
263,2,T1_SMS_8,96,9999,9999,9999,285909044
263,2,T1_SMS_8,97,9999,9999,9999,286708844
263,2,T1_SMS_8,98,9999,9999,9999,287508584
263,2,T1_SMS_8,99,9999,9999,9999,288308312
263,2,T1_SMS_8,100,9999,9999,9999,289109092
263,2,T1_SMS_8,101,9999,9999,9999,289908832
263,2,T1_SMS_8,102,9999,9999,9999,290708588
263,2,T1_SMS_8,103,9999,9999,9999,291508324
263,2,T1_SMS_8,104,9999,9999,9999,292309100
263,2,T1_SMS_8,105,9999,9999,9999,293108836
263,2,T1_SMS_8,106,9999,9999,9999,293908568
263,2,T1_SMS_8,107,9999,9999,9999,294708304
263,2,T1_SMS_8,108,9999,9999,9999,295509080
263,2,T1_SMS_8,109,9999,9999,9999,296308812
263,2,T1_SMS_8,110,9999,9999,9999,297108572
263,2,T1_SMS_8,111,9999,9999,9999,297908300
263,2,T1_SMS_8,112,9999,9999,9999,298709104
263,2,T1_SMS_8,113,9999,9999,9999,299508820
263,2,T1_SMS_8,114,9999,9999,9999,300308556
263,2,T1_SMS_8,115,9999,9999,9999,301108284
263,2,T1_SMS_8,116,9999,9999,9999,301909064
263,2,T1_SMS_8,117,9999,9999,9999,302708804
263,2,T1_SMS_8,118,9999,9999,9999,303508556
263,2,T1_SMS_8,119,9999,9999,9999,304308288
264,4,T1_SMS_5,0,5,42,127,327243360
264,4,T1_SMS_5,1,5,42,127,327742928
264,4,T1_SMS_5,2,5,42,127,328242420
264,4,T1_SMS_5,3,5,42,127,328743260
264,4,T1_SMS_5,4,5,42,127,329243124
264,4,T1_SMS_5,5,1,48,53,329300400
264,4,T1_SMS_5,6,5,42,127,329742672
264,4,T1_SMS_5,7,1,48,48,329817744
264,4,T1_SMS_5,8,5,42,127,330242292
264,4,T1_SMS_5,9,5,42,127,330743352
264,4,T1_SMS_5,10,1,48,45,331239140
264,4,T1_SMS_5,11,5,42,127,331242912
264,4,T1_SMS_5,12,5,42,127,331742616
264,4,T1_SMS_5,13,1,48,48,331783876
264,4,T1_SMS_5,14,5,42,127,332243428
264,4,T1_SMS_5,15,1,48,46,332276168
264,4,T1_SMS_5,16,5,42,127,332742900
264,4,T1_SMS_5,17,1,48,46,332756192
264,4,T1_SMS_5,18,5,42,127,333243116
264,4,T1_SMS_5,19,1,48,43,333248480
264,4,T1_SMS_5,20,5,42,127,333742440
264,4,T1_SMS_5,21,1,48,46,333759920
264,4,T1_SMS_5,22,5,42,127,334243108
264,4,T1_SMS_5,23,1,48,48,334253928
264,4,T1_SMS_5,24,5,42,127,334743100
264,4,T1_SMS_5,25,1,48,48,334755344
264,4,T1_SMS_5,26,5,42,127,335242544
264,4,T1_SMS_5,27,1,48,46,335269848
264,4,T1_SMS_5,28,5,42,127,335743288
264,4,T1_SMS_5,29,1,48,44,335745804
264,4,T1_SMS_5,30,5,42,127,336242908
264,4,T1_SMS_5,31,1,48,46,336258144
264,4,T1_SMS_5,32,5,42,127,336743048
264,4,T1_SMS_5,33,1,48,45,336752224
264,4,T1_SMS_5,34,5,42,127,337242444
264,4,T1_SMS_5,35,1,48,37,337277132
264,4,T1_SMS_5,36,5,42,127,337743184
264,4,T1_SMS_5,37,1,48,44,337745852
264,4,T1_SMS_5,38,1,48,51,338240836
264,4,T1_SMS_5,39,5,42,127,338242872
264,4,T1_SMS_5,40,5,42,127,338742724
264,4,T1_SMS_5,41,1,48,53,338761696
264,4,T1_SMS_5,42,1,48,55,339239016
264,4,T1_SMS_5,43,5,42,127,339243308
264,4,T1_SMS_5,44,5,42,127,339743160
264,4,T1_SMS_5,45,1,48,53,339754876
264,4,T1_SMS_5,46,1,48,53,340239148
264,4,T1_SMS_5,47,5,42,127,340242772
264,4,T1_SMS_5,48,5,42,127,340742696
264,4,T1_SMS_5,49,1,48,53,340747236
264,4,T1_SMS_5,50,1,48,55,341238612
264,4,T1_SMS_5,51,5,42,127,341243208
264,4,T1_SMS_5,52,1,48,48,341737636
264,4,T1_SMS_5,53,5,42,127,341742976
264,4,T1_SMS_5,54,5,42,127,342242684
264,4,T1_SMS_5,55,1,48,52,342245724
264,4,T1_SMS_5,56,1,48,55,342739348
264,4,T1_SMS_5,57,5,42,127,342743568
264,4,T1_SMS_5,58,5,42,127,343242972
264,4,T1_SMS_5,59,1,48,55,343258580
264,4,T1_SMS_5,60,5,42,127,343742888
264,4,T1_SMS_5,61,1,48,54,343759176
264,4,T1_SMS_5,62,5,42,127,344242804
264,4,T1_SMS_5,63,1,48,58,344255052
264,4,T1_SMS_5,64,1,48,55,344742648
264,4,T1_SMS_5,65,5,42,127,344744440
264,4,T1_SMS_5,66,5,42,127,345242948
264,4,T1_SMS_5,67,1,48,54,345251600
264,4,T1_SMS_5,68,1,48,55,345713476
264,4,T1_SMS_5,69,5,42,127,345742636
264,4,T1_SMS_5,70,5,42,127,346242536
264,4,T1_SMS_5,71,1,48,52,346259596
264,4,T1_SMS_5,72,1,48,50,346723640
264,4,T1_SMS_5,73,5,42,127,346743048
264,4,T1_SMS_5,74,5,42,127,347242896
264,4,T1_SMS_5,75,1,48,53,347266216
264,4,T1_SMS_5,76,1,48,58,347724448
264,4,T1_SMS_5,77,5,42,127,347742512
264,4,T1_SMS_5,78,5,42,127,348243408
264,4,T1_SMS_5,79,1,48,54,348274200
264,4,T1_SMS_5,80,5,42,127,348743100
264,4,T1_SMS_5,81,1,48,55,348744068
264,4,T1_SMS_5,82,1,48,54,349223756
264,4,T1_SMS_5,83,5,42,127,349242792
264,4,T1_SMS_5,84,5,42,127,349742344
264,4,T1_SMS_5,85,1,48,53,349743756
264,4,T1_SMS_5,86,5,42,127,350243236
264,4,T1_SMS_5,87,1,48,58,350262136
264,4,T1_SMS_5,88,5,42,127,350742784
264,4,T1_SMS_5,89,1,48,54,350752628
264,4,T1_SMS_5,90,5,42,127,351242476
264,4,T1_SMS_5,91,1,48,56,351253444
264,4,T1_SMS_5,92,1,48,52,351728068
264,4,T1_SMS_5,93,5,42,127,351743284
264,4,T1_SMS_5,94,5,42,127,352243284
264,4,T1_SMS_5,95,1,48,51,352266300
264,4,T1_SMS_5,96,5,42,127,352742756
264,4,T1_SMS_5,97,1,48,49,352752232
264,4,T1_SMS_5,98,5,42,127,353242376
264,4,T1_SMS_5,99,1,48,49,353251628
264,4,T1_SMS_5,100,5,42,127,353743340
264,4,T1_SMS_5,101,1,48,46,353746984
264,4,T1_SMS_5,102,5,42,127,354242884
264,4,T1_SMS_5,103,1,48,48,354254456
264,4,T1_SMS_5,104,5,42,127,354742580
264,4,T1_SMS_5,105,1,48,50,354743992
264,4,T1_SMS_5,106,1,48,50,355242944
264,4,T1_SMS_5,107,5,42,127,355244660
264,4,T1_SMS_5,108,5,42,127,355743240
264,4,T1_SMS_5,109,1,48,48,355757952
264,4,T1_SMS_5,110,1,48,49,356238932
264,4,T1_SMS_5,111,5,42,127,356242780
264,4,T1_SMS_5,112,1,48,48,356726332
264,4,T1_SMS_5,113,5,42,127,356742376
264,4,T1_SMS_5,114,1,48,49,357232088
264,4,T1_SMS_5,115,5,42,127,357243192
264,4,T1_SMS_5,116,1,48,51,357733952
264,4,T1_SMS_5,117,5,42,127,357743036
264,4,T1_SMS_5,118,5,42,127,358242592
264,4,T1_SMS_5,119,1,48,47,358251992
264,4,T1_SMS_5,120,5,42,127,358743408
264,4,T1_SMS_5,121,1,48,46,358747576
264,4,T1_SMS_5,122,5,42,127,359243104
264,4,T1_SMS_5,123,1,48,48,359249364
264,4,T1_SMS_5,124,1,48,48,359741668
264,4,T1_SMS_5,125,5,42,127,359743384
264,4,T1_SMS_5,126,5,42,127,360242568
264,4,T1_SMS_5,127,1,48,48,360259448
264,4,T1_SMS_5,128,1,48,49,360731224
264,4,T1_SMS_5,129,5,42,127,360743376
264,4,T1_SMS_5,130,5,42,127,361243004
264,4,T1_SMS_5,131,1,48,51,361247024
264,4,T1_SMS_5,132,5,42,127,361742548
264,4,T1_SMS_5,133,1,48,50,361749860
264,4,T1_SMS_5,134,5,42,127,362242468
264,4,T1_SMS_5,135,1,48,48,362250304
264,4,T1_SMS_5,136,5,42,127,362743136
264,4,T1_SMS_5,137,1,48,46,362750592
264,4,T1_SMS_5,138,5,42,127,363243128
264,4,T1_SMS_5,139,1,48,50,363261212
264,4,T1_SMS_5,140,5,42,127,363742528
264,4,T1_SMS_5,141,1,48,49,363763900
264,4,T1_SMS_5,142,5,42,127,364243344
264,4,T1_SMS_5,143,1,48,48,364248784
264,4,T1_SMS_5,144,5,42,127,364742968
264,4,T1_SMS_5,145,1,48,51,364752888
264,4,T1_SMS_5,146,5,42,127,365242736
264,4,T1_SMS_5,147,1,48,49,365250492
264,4,T1_SMS_5,148,5,42,127,365742580
264,4,T1_SMS_5,149,1,48,50,365749516
264,4,T1_SMS_5,150,5,42,127,366243176
264,4,T1_SMS_5,151,1,48,51,366282344
264,4,T1_SMS_5,152,1,48,52,366737820
264,4,T1_SMS_5,153,5,42,127,366742864
264,4,T1_SMS_5,154,1,48,46,367223644
264,4,T1_SMS_5,155,5,42,127,367242780
264,4,T1_SMS_5,156,1,48,47,367736884
264,4,T1_SMS_5,157,5,42,127,367743276
264,4,T1_SMS_5,158,5,42,127,368242976
264,4,T1_SMS_5,159,1,48,48,368261204
264,4,T1_SMS_5,160,5,42,127,368742748
264,4,T1_SMS_5,161,1,48,44,368760152
264,4,T1_SMS_5,162,5,42,127,369242664
264,4,T1_SMS_5,163,1,48,46,369245412
264,4,T1_SMS_5,164,1,48,43,369734236
264,4,T1_SMS_5,165,5,42,127,369743176
264,4,T1_SMS_5,166,1,48,46,370236400
264,4,T1_SMS_5,167,5,42,127,370242948
264,4,T1_SMS_5,168,1,48,49,370735428
264,4,T1_SMS_5,169,5,42,127,370742568
264,4,T1_SMS_5,170,1,48,50,371224496
264,4,T1_SMS_5,171,5,42,127,371243532
264,4,T1_SMS_5,172,5,42,127,371743012
264,4,T1_SMS_5,173,1,48,47,371754284
264,4,T1_SMS_5,174,5,42,127,372242928
264,4,T1_SMS_5,175,1,48,48,372262356
264,4,T1_SMS_5,176,1,48,48,372739520
264,4,T1_SMS_5,177,5,42,127,372742692
264,4,T1_SMS_5,178,1,48,46,373221936
264,4,T1_SMS_5,179,5,42,127,373243136
264,4,T1_SMS_5,180,5,42,127,373742912
264,4,T1_SMS_5,181,1,48,53,373756056
264,4,T1_SMS_5,182,5,42,127,374242608
264,4,T1_SMS_5,183,1,48,46,374259940
264,4,T1_SMS_5,184,5,42,127,374743572
264,4,T1_SMS_5,185,1,48,45,374753500
264,4,T1_SMS_5,186,5,42,127,375243044
264,4,T1_SMS_5,187,1,48,47,375245636
264,4,T1_SMS_5,188,1,48,49,375736940
264,4,T1_SMS_5,189,5,42,127,375742808
264,4,T1_SMS_5,190,5,42,127,376242656
264,4,T1_SMS_5,191,1,48,44,376246380
264,4,T1_SMS_5,192,5,42,127,376743324
264,4,T1_SMS_5,193,1,48,43,376753696
264,4,T1_SMS_5,194,5,42,127,377243316
264,4,T1_SMS_5,195,1,48,45,377244504
264,4,T1_SMS_5,196,1,48,43,377719684
264,4,T1_SMS_5,197,5,42,127,377742704
264,4,T1_SMS_5,198,5,42,127,378242384
264,4,T1_SMS_5,199,1,48,41,378247228
264,4,T1_SMS_5,200,5,42,127,378743272
264,4,T1_SMS_5,201,1,48,45,378753352
264,4,T1_SMS_5,202,5,42,127,379242820
264,4,T1_SMS_5,203,1,48,43,379256108
264,4,T1_SMS_5,204,1,48,47,379716512
264,4,T1_SMS_5,205,5,42,127,379742432
264,4,T1_SMS_5,206,1,48,41,380234088
264,4,T1_SMS_5,207,5,42,127,380243248
264,4,T1_SMS_5,208,5,42,127,380743172
264,4,T1_SMS_5,209,1,48,46,380748460
264,4,T1_SMS_5,210,5,42,127,381242644
264,4,T1_SMS_5,211,1,48,51,381243684
264,4,T1_SMS_5,212,1,48,51,381734968
264,4,T1_SMS_5,213,5,42,127,381742552
264,4,T1_SMS_5,214,5,42,127,382243376
264,4,T1_SMS_5,215,1,48,34,382260264
264,4,T1_SMS_5,216,1,38,11,382272280
264,4,T1_SMS_5,217,1,48,46,382741132
264,4,T1_SMS_5,218,5,42,127,382742796
264,4,T1_SMS_5,219,1,48,53,383236548
264,4,T1_SMS_5,220,5,42,127,383242492
264,4,T1_SMS_5,221,5,42,127,383743388
264,4,T1_SMS_5,222,1,48,56,383746060
264,4,T1_SMS_5,223,1,48,57,384236984
264,4,T1_SMS_5,224,5,42,127,384243148
264,4,T1_SMS_5,225,1,48,51,384731148
264,4,T1_SMS_5,226,5,42,127,384742696
264,4,T1_SMS_5,227,1,48,54,385239592
264,4,T1_SMS_5,228,5,42,127,385242468
264,4,T1_SMS_5,229,5,42,127,385743140
264,4,T1_SMS_5,230,1,48,56,385752468
264,4,T1_SMS_5,231,5,42,127,386243060
264,4,T1_SMS_5,232,1,48,51,386248424
264,4,T1_SMS_5,233,1,48,54,386739208
264,4,T1_SMS_5,234,5,42,127,386742604
264,4,T1_SMS_5,235,5,42,127,387243276
264,4,T1_SMS_5,236,1,48,57,387245212
264,4,T1_SMS_5,237,5,42,127,387742972
264,4,T1_SMS_5,238,1,48,46,387753864
264,4,T1_SMS_5,239,1,48,56,388240620
264,4,T1_SMS_5,240,5,42,127,388243104
264,4,T1_SMS_5,241,5,42,127,388742560
264,4,T1_SMS_5,242,1,48,57,388770312
264,4,T1_SMS_5,243,1,48,54,389241180
264,4,T1_SMS_5,244,5,42,127,389243144
264,4,T1_SMS_5,245,1,48,59,389737500
264,4,T1_SMS_5,246,5,42,127,389742840
264,4,T1_SMS_5,247,1,48,58,390222232
264,4,T1_SMS_5,248,5,42,127,390242760
264,4,T1_SMS_5,249,1,48,51,390738236
264,4,T1_SMS_5,250,5,42,127,390743428
264,4,T1_SMS_5,251,1,48,54,391216612
264,4,T1_SMS_5,252,5,42,127,391243120
264,4,T1_SMS_5,253,1,48,54,391720568
264,4,T1_SMS_5,254,5,42,127,391742964
264,4,T1_SMS_5,255,1,48,56,392232604
264,4,T1_SMS_5,0,9999,9999,9999,327240776
264,4,T1_SMS_5,1,9999,9999,9999,327740492
264,4,T1_SMS_5,2,9999,9999,9999,328240208
264,4,T1_SMS_5,3,9999,9999,9999,328740972
264,4,T1_SMS_5,4,9999,9999,9999,329240688
264,4,T1_SMS_5,5,9999,9999,9999,329740384
264,4,T1_SMS_5,6,9999,9999,9999,330240080
264,4,T1_SMS_5,7,9999,9999,9999,330740840
264,4,T1_SMS_5,8,9999,9999,9999,331240552
264,4,T1_SMS_5,9,9999,9999,9999,331740252
264,4,T1_SMS_5,10,9999,9999,9999,332240992
264,4,T1_SMS_5,11,9999,9999,9999,332740688
264,4,T1_SMS_5,12,9999,9999,9999,333240384
264,4,T1_SMS_5,13,9999,9999,9999,333740152
264,4,T1_SMS_5,14,9999,9999,9999,334240820
264,4,T1_SMS_5,15,9999,9999,9999,334740592
264,4,T1_SMS_5,16,9999,9999,9999,335240260
264,4,T1_SMS_5,17,9999,9999,9999,335741000
264,4,T1_SMS_5,18,9999,9999,9999,336240692
264,4,T1_SMS_5,19,9999,9999,9999,336740464
264,4,T1_SMS_5,20,9999,9999,9999,337240160
264,4,T1_SMS_5,21,9999,9999,9999,337740900
264,4,T1_SMS_5,22,9999,9999,9999,338240624
264,4,T1_SMS_5,23,9999,9999,9999,338740288
264,4,T1_SMS_5,24,9999,9999,9999,339241024
264,4,T1_SMS_5,25,9999,9999,9999,339740724
264,4,T1_SMS_5,26,9999,9999,9999,340240488
264,4,T1_SMS_5,27,9999,9999,9999,340740188
264,4,T1_SMS_5,28,9999,9999,9999,341240924
264,4,T1_SMS_5,29,9999,9999,9999,341740616
264,4,T1_SMS_5,30,9999,9999,9999,342240320
264,4,T1_SMS_5,31,9999,9999,9999,342741056
264,4,T1_SMS_5,32,9999,9999,9999,343240756
264,4,T1_SMS_5,33,9999,9999,9999,343740528
264,4,T1_SMS_5,34,9999,9999,9999,344240220
264,4,T1_SMS_5,35,9999,9999,9999,344740964
264,4,T1_SMS_5,36,9999,9999,9999,345240660
264,4,T1_SMS_5,37,9999,9999,9999,345740348
264,4,T1_SMS_5,38,9999,9999,9999,346240100
264,4,T1_SMS_5,39,9999,9999,9999,346740836
264,4,T1_SMS_5,40,9999,9999,9999,347240536
264,4,T1_SMS_5,41,9999,9999,9999,347740224
264,4,T1_SMS_5,42,9999,9999,9999,348240972
264,4,T1_SMS_5,43,9999,9999,9999,348740668
264,4,T1_SMS_5,44,9999,9999,9999,349240432
264,4,T1_SMS_5,45,9999,9999,9999,349740132
264,4,T1_SMS_5,46,9999,9999,9999,350240876
264,4,T1_SMS_5,47,9999,9999,9999,350740568
264,4,T1_SMS_5,48,9999,9999,9999,351240264
264,4,T1_SMS_5,49,9999,9999,9999,351741000
264,4,T1_SMS_5,50,9999,9999,9999,352240700
264,4,T1_SMS_5,51,9999,9999,9999,352740468
264,4,T1_SMS_5,52,9999,9999,9999,353240164
264,4,T1_SMS_5,53,9999,9999,9999,353740904
264,4,T1_SMS_5,54,9999,9999,9999,354240600
264,4,T1_SMS_5,55,9999,9999,9999,354740296
264,4,T1_SMS_5,56,9999,9999,9999,355241036
264,4,T1_SMS_5,57,9999,9999,9999,355740732
264,4,T1_SMS_5,58,9999,9999,9999,356240492
264,4,T1_SMS_5,59,9999,9999,9999,356740164
264,4,T1_SMS_5,60,9999,9999,9999,357240908
264,4,T1_SMS_5,61,9999,9999,9999,357740600
264,4,T1_SMS_5,62,9999,9999,9999,358240304
264,4,T1_SMS_5,63,9999,9999,9999,358741048
264,4,T1_SMS_5,64,9999,9999,9999,359240816
264,4,T1_SMS_5,65,9999,9999,9999,359740512
264,4,T1_SMS_5,66,9999,9999,9999,360240204
264,4,T1_SMS_5,67,9999,9999,9999,360740940
264,4,T1_SMS_5,68,9999,9999,9999,361240640
264,4,T1_SMS_5,69,9999,9999,9999,361740336
264,4,T1_SMS_5,70,9999,9999,9999,362240108
264,4,T1_SMS_5,71,9999,9999,9999,362740848
264,4,T1_SMS_5,72,9999,9999,9999,363240544
264,4,T1_SMS_5,73,9999,9999,9999,363740240
264,4,T1_SMS_5,74,9999,9999,9999,364240984
264,4,T1_SMS_5,75,9999,9999,9999,364740680
264,4,T1_SMS_5,76,9999,9999,9999,365240376
264,4,T1_SMS_5,77,9999,9999,9999,365740144
264,4,T1_SMS_5,78,9999,9999,9999,366240888
264,4,T1_SMS_5,79,9999,9999,9999,366740576
264,4,T1_SMS_5,80,9999,9999,9999,367240244
264,4,T1_SMS_5,81,9999,9999,9999,367740988
264,4,T1_SMS_5,82,9999,9999,9999,368240688
264,4,T1_SMS_5,83,9999,9999,9999,368740460
264,4,T1_SMS_5,84,9999,9999,9999,369240156
264,4,T1_SMS_5,85,9999,9999,9999,369740888
264,4,T1_SMS_5,86,9999,9999,9999,370240584
264,4,T1_SMS_5,87,9999,9999,9999,370740280
264,4,T1_SMS_5,88,9999,9999,9999,371241020
264,4,T1_SMS_5,89,9999,9999,9999,371740724
264,4,T1_SMS_5,90,9999,9999,9999,372240492
264,4,T1_SMS_5,91,9999,9999,9999,372740184
264,4,T1_SMS_5,92,9999,9999,9999,373240924
264,4,T1_SMS_5,93,9999,9999,9999,373740624
264,4,T1_SMS_5,94,9999,9999,9999,374240320
264,4,T1_SMS_5,95,9999,9999,9999,374741064
264,4,T1_SMS_5,96,9999,9999,9999,375240756
264,4,T1_SMS_5,97,9999,9999,9999,375740520
264,4,T1_SMS_5,98,9999,9999,9999,376240220
264,4,T1_SMS_5,99,9999,9999,9999,376740964
264,4,T1_SMS_5,100,9999,9999,9999,377240656
264,4,T1_SMS_5,101,9999,9999,9999,377740344
264,4,T1_SMS_5,102,9999,9999,9999,378240096
264,4,T1_SMS_5,103,9999,9999,9999,378740836
264,4,T1_SMS_5,104,9999,9999,9999,379240532
264,4,T1_SMS_5,105,9999,9999,9999,379740220
264,4,T1_SMS_5,106,9999,9999,9999,380240960
264,4,T1_SMS_5,107,9999,9999,9999,380740664
264,4,T1_SMS_5,108,9999,9999,9999,381240432
264,4,T1_SMS_5,109,9999,9999,9999,381740120
264,4,T1_SMS_5,110,9999,9999,9999,382240868
264,4,T1_SMS_5,111,9999,9999,9999,382740532
264,4,T1_SMS_5,112,9999,9999,9999,383240280
264,4,T1_SMS_5,113,9999,9999,9999,383741028
264,4,T1_SMS_5,114,9999,9999,9999,384240716
264,4,T1_SMS_5,115,9999,9999,9999,384740412
264,4,T1_SMS_5,116,9999,9999,9999,385240180
264,4,T1_SMS_5,117,9999,9999,9999,385740852
264,4,T1_SMS_5,118,9999,9999,9999,386240624
264,4,T1_SMS_5,119,9999,9999,9999,386740316
264,4,T1_SMS_5,120,9999,9999,9999,387241064
264,4,T1_SMS_5,121,9999,9999,9999,387740760
264,4,T1_SMS_5,122,9999,9999,9999,388240484
264,4,T1_SMS_5,123,9999,9999,9999,388740200
264,4,T1_SMS_5,124,9999,9999,9999,389240892
264,4,T1_SMS_5,125,9999,9999,9999,389740628
264,4,T1_SMS_5,126,9999,9999,9999,390240324
264,4,T1_SMS_5,127,9999,9999,9999,390741068
264,4,T1_SMS_5,128,9999,9999,9999,391240760
264,4,T1_SMS_5,129,9999,9999,9999,391740532
265,22,Ticks_Phase_8,0,5,42,127,406325748
265,22,Ticks_Phase_8,1,5,42,127,407126456
265,22,Ticks_Phase_8,2,5,42,127,407926112
265,22,Ticks_Phase_8,3,5,42,127,408725872
265,22,Ticks_Phase_8,4,1,48,59,409524400
265,22,Ticks_Phase_8,5,5,42,127,409526192
265,22,Ticks_Phase_8,6,1,48,50,410314052
265,22,Ticks_Phase_8,7,5,42,127,410326284
265,22,Ticks_Phase_8,8,5,42,127,411126072
265,22,Ticks_Phase_8,9,1,48,50,411187460
265,22,Ticks_Phase_8,10,5,42,127,411926008
265,22,Ticks_Phase_8,11,1,48,49,411954448
265,22,Ticks_Phase_8,12,1,48,49,412712128
265,22,Ticks_Phase_8,13,5,42,127,412725564
265,22,Ticks_Phase_8,14,5,42,127,413526336
265,22,Ticks_Phase_8,15,1,48,47,413533876
265,22,Ticks_Phase_8,16,5,42,127,414326116
265,22,Ticks_Phase_8,17,1,48,50,414354280
265,22,Ticks_Phase_8,18,5,42,127,415125780
265,22,Ticks_Phase_8,19,1,48,48,415143644
265,22,Ticks_Phase_8,20,5,42,127,415925788
265,22,Ticks_Phase_8,21,1,48,48,415953764
265,22,Ticks_Phase_8,22,5,42,127,416726252
265,22,Ticks_Phase_8,23,1,48,49,416736860
265,22,Ticks_Phase_8,24,5,42,127,417526260
265,22,Ticks_Phase_8,25,1,48,49,417542632
265,22,Ticks_Phase_8,26,5,42,127,418325752
265,22,Ticks_Phase_8,27,1,48,42,418348044
265,22,Ticks_Phase_8,28,5,42,127,419125608
265,22,Ticks_Phase_8,29,1,48,44,419128580
265,22,Ticks_Phase_8,30,5,42,127,419926520
265,22,Ticks_Phase_8,31,1,48,47,419927484
265,22,Ticks_Phase_8,32,1,48,46,420722896
265,22,Ticks_Phase_8,33,5,42,127,420726072
265,22,Ticks_Phase_8,34,5,42,127,421525964
265,22,Ticks_Phase_8,35,1,48,47,421533420
265,22,Ticks_Phase_8,36,5,42,127,422325752
265,22,Ticks_Phase_8,37,1,48,46,422349540
265,22,Ticks_Phase_8,38,5,42,127,423126588
265,22,Ticks_Phase_8,39,1,48,41,423134952
265,22,Ticks_Phase_8,40,1,48,50,423914512
265,22,Ticks_Phase_8,41,5,42,127,423926216
265,22,Ticks_Phase_8,42,5,42,127,424725860
265,22,Ticks_Phase_8,43,1,48,47,424726828
265,22,Ticks_Phase_8,44,1,48,51,425522684
265,22,Ticks_Phase_8,45,5,42,127,425525564
265,22,Ticks_Phase_8,46,1,48,44,426326108
265,22,Ticks_Phase_8,47,5,42,127,426327668
265,22,Ticks_Phase_8,48,5,42,127,427126116
265,22,Ticks_Phase_8,49,1,48,50,427145440
265,22,Ticks_Phase_8,50,5,42,127,427925924
265,22,Ticks_Phase_8,51,1,48,51,427948148
265,22,Ticks_Phase_8,52,1,48,46,428713092
265,22,Ticks_Phase_8,53,5,42,127,428725556
265,22,Ticks_Phase_8,54,1,48,50,429504348
265,22,Ticks_Phase_8,55,5,42,127,429526540
265,22,Ticks_Phase_8,56,5,42,127,430305740
265,22,Ticks_Phase_8,57,1,48,47,430313124
265,22,Ticks_Phase_8,58,5,42,127,431106428
265,22,Ticks_Phase_8,59,1,48,48,431130584
265,22,Ticks_Phase_8,60,1,48,49,431907600
265,22,Ticks_Phase_8,61,5,42,127,431916392
265,22,Ticks_Phase_8,62,5,42,127,432716332
265,22,Ticks_Phase_8,63,1,48,44,432742440
265,22,Ticks_Phase_8,64,5,42,127,433516044
265,22,Ticks_Phase_8,65,1,48,47,433530692
265,22,Ticks_Phase_8,66,5,42,127,434315704
265,22,Ticks_Phase_8,67,1,48,46,434331404
265,22,Ticks_Phase_8,68,1,48,44,435114720
265,22,Ticks_Phase_8,69,5,42,127,435116460
265,22,Ticks_Phase_8,70,1,48,46,435910000
265,22,Ticks_Phase_8,71,5,42,127,435916096
265,22,Ticks_Phase_8,72,1,48,43,436707616
265,22,Ticks_Phase_8,73,5,42,127,436716104
265,22,Ticks_Phase_8,74,5,42,127,437515820
265,22,Ticks_Phase_8,75,1,48,48,437521408
265,22,Ticks_Phase_8,76,5,42,127,438316360
265,22,Ticks_Phase_8,77,1,48,47,438333172
265,22,Ticks_Phase_8,78,1,48,46,439101052
265,22,Ticks_Phase_8,79,5,42,127,439116136
265,22,Ticks_Phase_8,80,5,42,127,439916152
265,22,Ticks_Phase_8,81,1,48,45,439917120
265,22,Ticks_Phase_8,82,5,42,127,440715740
265,22,Ticks_Phase_8,83,1,48,44,440717532
265,22,Ticks_Phase_8,84,5,42,127,441516504
265,22,Ticks_Phase_8,85,1,48,49,441538572
265,22,Ticks_Phase_8,86,1,48,45,442311452
265,22,Ticks_Phase_8,87,5,42,127,442316204
265,22,Ticks_Phase_8,88,5,42,127,443115848
265,22,Ticks_Phase_8,89,1,48,42,443124816
265,22,Ticks_Phase_8,90,5,42,127,443915784
265,22,Ticks_Phase_8,91,1,48,40,443930960
265,22,Ticks_Phase_8,92,5,42,127,444735716
265,22,Ticks_Phase_8,93,1,48,46,444738764
265,22,Ticks_Phase_8,94,5,42,127,445535652
265,22,Ticks_Phase_8,95,1,48,47,445571664
265,22,Ticks_Phase_8,96,5,42,127,446336332
265,22,Ticks_Phase_8,97,1,48,39,446357828
265,22,Ticks_Phase_8,98,1,48,40,447130712
265,22,Ticks_Phase_8,99,5,42,127,447135984
265,22,Ticks_Phase_8,100,5,42,127,447935780
265,22,Ticks_Phase_8,101,1,48,40,447947892
265,22,Ticks_Phase_8,102,1,48,43,448729908
265,22,Ticks_Phase_8,103,5,42,127,448735484
265,22,Ticks_Phase_8,104,5,42,127,449536624
265,22,Ticks_Phase_8,105,1,48,45,449543868
265,22,Ticks_Phase_8,106,5,42,127,450335964
265,22,Ticks_Phase_8,107,1,48,41,450354516
265,22,Ticks_Phase_8,108,5,42,127,451135972
265,22,Ticks_Phase_8,109,1,48,43,451155868
265,22,Ticks_Phase_8,110,5,42,127,451935684
265,22,Ticks_Phase_8,111,1,48,43,451946672
265,22,Ticks_Phase_8,112,1,48,42,452729292
265,22,Ticks_Phase_8,113,5,42,127,452736360
265,22,Ticks_Phase_8,114,5,42,127,453536252
265,22,Ticks_Phase_8,115,1,48,37,453570000
265,22,Ticks_Phase_8,116,1,48,43,454314516
265,22,Ticks_Phase_8,117,5,42,127,454335808
265,22,Ticks_Phase_8,118,5,42,127,455135452
265,22,Ticks_Phase_8,119,1,48,48,455177740
265,22,Ticks_Phase_8,120,5,42,127,455936364
265,22,Ticks_Phase_8,121,1,48,30,455939852
265,22,Ticks_Phase_8,122,5,42,127,456736296
265,22,Ticks_Phase_8,123,1,48,43,456758888
265,22,Ticks_Phase_8,124,1,48,42,457517328
265,22,Ticks_Phase_8,125,5,42,127,457575768
265,22,Ticks_Phase_8,126,1,48,37,458342268
265,22,Ticks_Phase_8,127,5,42,127,458375504
265,22,Ticks_Phase_8,128,1,48,44,459176192
265,22,Ticks_Phase_8,129,5,42,127,459177680
265,22,Ticks_Phase_8,130,5,42,127,459976056
265,22,Ticks_Phase_8,131,1,48,39,460000368
265,22,Ticks_Phase_8,132,1,48,43,460768092
265,22,Ticks_Phase_8,133,5,42,127,460775984
265,22,Ticks_Phase_8,134,5,42,127,461575480
265,22,Ticks_Phase_8,135,1,48,46,461591324
265,22,Ticks_Phase_8,136,5,42,127,462376236
265,22,Ticks_Phase_8,137,1,48,41,462386848
265,22,Ticks_Phase_8,138,5,42,127,463176172
265,22,Ticks_Phase_8,139,1,48,44,463191644
265,22,Ticks_Phase_8,140,5,42,127,463976036
265,22,Ticks_Phase_8,141,1,48,41,463997728
265,22,Ticks_Phase_8,142,1,48,40,464775024
265,22,Ticks_Phase_8,143,5,42,127,464776964
265,22,Ticks_Phase_8,144,5,42,127,465576308
265,22,Ticks_Phase_8,145,1,48,35,465605868
265,22,Ticks_Phase_8,146,1,48,43,466363932
265,22,Ticks_Phase_8,147,5,42,127,466376012
265,22,Ticks_Phase_8,148,5,42,127,467175880
265,22,Ticks_Phase_8,149,1,48,38,467188888
265,22,Ticks_Phase_8,150,1,48,39,467974840
265,22,Ticks_Phase_8,151,5,42,127,467976636
265,22,Ticks_Phase_8,152,5,42,127,468776280
265,22,Ticks_Phase_8,153,1,48,34,468794228
265,22,Ticks_Phase_8,154,5,42,127,469575988
265,22,Ticks_Phase_8,155,1,48,38,469580084
265,22,Ticks_Phase_8,156,1,48,35,470373260
265,22,Ticks_Phase_8,157,5,42,127,470375772
265,22,Ticks_Phase_8,158,5,42,127,471135500
265,22,Ticks_Phase_8,159,1,48,38,471187024
265,22,Ticks_Phase_8,160,5,42,127,471936484
265,22,Ticks_Phase_8,161,1,48,35,471965316
265,22,Ticks_Phase_8,162,1,48,40,472734480
265,22,Ticks_Phase_8,163,5,42,127,472736136
265,22,Ticks_Phase_8,164,5,42,127,473535780
265,22,Ticks_Phase_8,165,1,48,44,473548188
265,22,Ticks_Phase_8,166,5,42,127,474335716
265,22,Ticks_Phase_8,167,1,48,38,474387364
265,22,Ticks_Phase_8,168,5,42,127,475136552
265,22,Ticks_Phase_8,169,1,48,32,475138264
265,22,Ticks_Phase_8,170,1,48,43,475927464
265,22,Ticks_Phase_8,171,5,42,127,475936104
265,22,Ticks_Phase_8,172,1,48,41,476699540
265,22,Ticks_Phase_8,173,5,42,127,476735816
265,22,Ticks_Phase_8,174,1,48,41,477530780
265,22,Ticks_Phase_8,175,5,42,127,477535604
265,22,Ticks_Phase_8,176,5,42,127,478336448
265,22,Ticks_Phase_8,177,1,48,41,478349000
265,22,Ticks_Phase_8,178,1,48,39,479134188
265,22,Ticks_Phase_8,179,5,42,127,479136148
265,22,Ticks_Phase_8,180,1,48,38,479925124
265,22,Ticks_Phase_8,181,5,42,127,479935860
265,22,Ticks_Phase_8,182,1,48,43,480713744
265,22,Ticks_Phase_8,183,5,42,127,480735572
265,22,Ticks_Phase_8,184,5,42,127,481536340
265,22,Ticks_Phase_8,185,1,48,38,481560948
265,22,Ticks_Phase_8,186,5,42,127,482336048
265,22,Ticks_Phase_8,187,1,48,37,482337016
265,22,Ticks_Phase_8,188,5,42,127,483136060
265,22,Ticks_Phase_8,189,1,48,40,483146368
265,22,Ticks_Phase_8,190,5,42,127,483855792
265,22,Ticks_Phase_8,191,1,48,42,483968796
265,22,Ticks_Phase_8,192,5,42,127,484655580
265,22,Ticks_Phase_8,193,1,48,43,484787608
265,22,Ticks_Phase_8,194,5,42,127,485456116
265,22,Ticks_Phase_8,195,1,48,38,486228552
265,22,Ticks_Phase_8,196,5,42,127,486255916
265,22,Ticks_Phase_8,197,1,48,41,487022864
265,22,Ticks_Phase_8,198,5,42,127,487055800
265,22,Ticks_Phase_8,199,1,48,44,487853248
265,22,Ticks_Phase_8,200,5,42,127,487855364
265,22,Ticks_Phase_8,201,1,48,43,488650620
265,22,Ticks_Phase_8,202,5,42,127,488656120
265,22,Ticks_Phase_8,203,5,42,127,489455916
265,22,Ticks_Phase_8,204,1,48,44,489473940
265,22,Ticks_Phase_8,205,5,42,127,490256148
265,22,Ticks_Phase_8,206,1,48,40,490259496
265,22,Ticks_Phase_8,207,1,48,40,491055412
265,22,Ticks_Phase_8,208,5,42,127,491056972
265,22,Ticks_Phase_8,209,5,42,127,491856320
265,22,Ticks_Phase_8,210,1,48,41,491864164
265,22,Ticks_Phase_8,211,1,48,38,492644988
265,22,Ticks_Phase_8,212,5,42,127,492656096
265,22,Ticks_Phase_8,213,1,48,32,493438184
265,22,Ticks_Phase_8,214,5,42,127,493455908
265,22,Ticks_Phase_8,215,5,42,127,494255476
265,22,Ticks_Phase_8,216,1,48,39,494268636
265,22,Ticks_Phase_8,217,1,48,43,495023628
265,22,Ticks_Phase_8,218,5,42,127,495056524
265,22,Ticks_Phase_8,219,1,48,45,495843784
265,22,Ticks_Phase_8,220,5,42,127,495856088
265,22,Ticks_Phase_8,221,1,48,38,496653768
265,22,Ticks_Phase_8,222,5,42,127,496655652
265,22,Ticks_Phase_8,223,1,48,44,497435796
265,22,Ticks_Phase_8,224,5,42,127,497536480
265,22,Ticks_Phase_8,225,5,42,127,498336064
265,22,Ticks_Phase_8,226,1,48,33,498355060
265,22,Ticks_Phase_8,227,5,42,127,499135848
265,22,Ticks_Phase_8,228,1,48,43,499152664
265,22,Ticks_Phase_8,229,1,48,44,499932972
265,22,Ticks_Phase_8,230,5,42,127,499935556
265,22,Ticks_Phase_8,231,5,42,127,500736544
265,22,Ticks_Phase_8,232,1,48,45,500744688
265,22,Ticks_Phase_8,233,1,48,38,501518024
265,22,Ticks_Phase_8,234,5,42,127,501536248
265,22,Ticks_Phase_8,235,5,42,127,502335816
265,22,Ticks_Phase_8,236,1,48,38,502341032
265,22,Ticks_Phase_8,237,1,48,40,503133012
265,22,Ticks_Phase_8,238,5,42,127,503135744
265,22,Ticks_Phase_8,239,5,42,127,503936388
265,22,Ticks_Phase_8,240,1,48,40,503940628
265,22,Ticks_Phase_8,241,1,48,40,504735720
265,22,Ticks_Phase_8,242,5,42,127,504737512
265,22,Ticks_Phase_8,243,5,42,127,505535736
265,22,Ticks_Phase_8,244,1,48,43,505557804
265,22,Ticks_Phase_8,245,1,48,38,506274984
265,22,Ticks_Phase_8,246,5,42,127,506335740
265,22,Ticks_Phase_8,247,1,48,42,507119396
265,22,Ticks_Phase_8,248,5,42,127,507136280
265,22,Ticks_Phase_8,249,1,48,42,507915740
265,22,Ticks_Phase_8,250,5,42,127,507936064
265,22,Ticks_Phase_8,251,1,48,41,508728336
265,22,Ticks_Phase_8,252,5,42,127,508735924
265,22,Ticks_Phase_8,253,1,48,41,509533376
265,22,Ticks_Phase_8,254,5,42,127,509535488
265,22,Ticks_Phase_8,255,1,48,43,510319292
265,22,Ticks_Phase_8,256,5,42,127,510336276
265,22,Ticks_Phase_8,257,1,48,39,511144796
265,22,Ticks_Phase_8,258,5,42,127,511295780
265,22,Ticks_Phase_8,259,5,42,127,512095588
265,22,Ticks_Phase_8,260,1,48,46,512190316
265,22,Ticks_Phase_8,261,5,42,127,512896304
265,22,Ticks_Phase_8,262,1,48,42,512913040
265,22,Ticks_Phase_8,263,1,48,42,513695408
265,22,Ticks_Phase_8,264,5,42,127,513697204
265,22,Ticks_Phase_8,265,5,42,127,514495724
265,22,Ticks_Phase_8,266,1,48,37,514497140
265,22,Ticks_Phase_8,267,5,42,127,515295884
265,22,Ticks_Phase_8,268,1,48,43,515313840
265,22,Ticks_Phase_8,269,5,42,127,516096348
265,22,Ticks_Phase_8,270,1,48,47,516128520
265,22,Ticks_Phase_8,271,5,42,127,516896056
265,22,Ticks_Phase_8,272,1,48,35,516925092
265,22,Ticks_Phase_8,273,1,48,39,517684432
265,22,Ticks_Phase_8,274,5,42,127,517695984
265,22,Ticks_Phase_8,275,1,48,39,518482632
265,22,Ticks_Phase_8,276,5,42,127,518495848
265,22,Ticks_Phase_8,277,1,48,38,519294824
265,22,Ticks_Phase_8,278,5,42,127,519296484
265,22,Ticks_Phase_8,279,5,42,127,520096124
265,22,Ticks_Phase_8,280,1,48,43,520105992
265,22,Ticks_Phase_8,281,5,42,127,520895836
265,22,Ticks_Phase_8,282,1,48,38,520917532
265,22,Ticks_Phase_8,283,1,48,38,521676268
265,22,Ticks_Phase_8,284,5,42,127,521695616
265,22,Ticks_Phase_8,285,5,42,127,522496532
265,22,Ticks_Phase_8,286,1,48,43,522507892
265,22,Ticks_Phase_8,287,5,42,127,523296092
265,22,Ticks_Phase_8,288,1,48,41,523318088
265,22,Ticks_Phase_8,289,1,48,38,524087760
265,22,Ticks_Phase_8,290,5,42,127,524095800
265,22,Ticks_Phase_8,291,5,42,127,524895664
265,22,Ticks_Phase_8,292,1,48,33,524916460
265,22,Ticks_Phase_8,293,5,42,127,525696304
265,22,Ticks_Phase_8,294,1,48,43,525706316
265,22,Ticks_Phase_8,295,5,42,127,526336408
265,22,Ticks_Phase_8,296,1,48,36,526542044
265,22,Ticks_Phase_8,297,5,42,127,527136116
265,22,Ticks_Phase_8,298,1,48,33,527249572
265,22,Ticks_Phase_8,299,5,42,127,527935828
265,22,Ticks_Phase_8,300,1,48,40,528691636
265,22,Ticks_Phase_8,301,5,42,127,528735480
265,22,Ticks_Phase_8,302,1,48,40,529528496
265,22,Ticks_Phase_8,303,5,42,127,529536560
265,22,Ticks_Phase_8,304,1,48,37,530333612
265,22,Ticks_Phase_8,305,5,42,127,530336196
265,22,Ticks_Phase_8,306,1,48,43,531109368
265,22,Ticks_Phase_8,307,5,42,127,531136132
265,22,Ticks_Phase_8,308,5,42,127,531935480
265,22,Ticks_Phase_8,309,1,48,35,531962404
265,22,Ticks_Phase_8,310,5,42,127,532736312
265,22,Ticks_Phase_8,311,1,48,41,532761144
265,22,Ticks_Phase_8,312,5,42,127,533536096
265,22,Ticks_Phase_8,313,1,48,39,533537288
265,22,Ticks_Phase_8,314,5,42,127,534336180
265,22,Ticks_Phase_8,315,1,48,39,534349188
265,22,Ticks_Phase_8,316,5,42,127,535135668
265,22,Ticks_Phase_8,317,1,48,42,535154148
265,22,Ticks_Phase_8,318,5,42,127,535936304
265,22,Ticks_Phase_8,319,1,48,39,535942564
265,22,Ticks_Phase_8,320,5,42,127,536736016
265,22,Ticks_Phase_8,321,1,48,41,536742276
265,22,Ticks_Phase_8,322,5,42,127,537535952
265,22,Ticks_Phase_8,323,1,48,38,537560116
265,22,Ticks_Phase_8,324,1,48,42,538316912
265,22,Ticks_Phase_8,325,5,42,127,538335732
265,22,Ticks_Phase_8,326,1,48,40,539120060
265,22,Ticks_Phase_8,327,5,42,127,539136268
265,22,Ticks_Phase_8,328,1,48,39,539908616
265,22,Ticks_Phase_8,329,5,42,127,539935980
265,22,Ticks_Phase_8,330,1,48,46,540733032
265,22,Ticks_Phase_8,331,5,42,127,540735764
265,22,Ticks_Phase_8,332,5,42,127,541535928
265,22,Ticks_Phase_8,0,9999,9999,9999,406323312
265,22,Ticks_Phase_8,1,9999,9999,9999,407124092
265,22,Ticks_Phase_8,2,9999,9999,9999,407923828
265,22,Ticks_Phase_8,3,9999,9999,9999,408723508
265,22,Ticks_Phase_8,4,9999,9999,9999,409523316
265,22,Ticks_Phase_8,5,9999,9999,9999,410324068
265,22,Ticks_Phase_8,6,9999,9999,9999,411123788
265,22,Ticks_Phase_8,7,9999,9999,9999,411923572
265,22,Ticks_Phase_8,8,9999,9999,9999,412723280
265,22,Ticks_Phase_8,9,9999,9999,9999,413524044
265,22,Ticks_Phase_8,10,9999,9999,9999,414323832
265,22,Ticks_Phase_8,11,9999,9999,9999,415123568
265,22,Ticks_Phase_8,12,9999,9999,9999,415923280
265,22,Ticks_Phase_8,13,9999,9999,9999,416724036
265,22,Ticks_Phase_8,14,9999,9999,9999,417523824
265,22,Ticks_Phase_8,15,9999,9999,9999,418323536
265,22,Ticks_Phase_8,16,9999,9999,9999,419123324
265,22,Ticks_Phase_8,17,9999,9999,9999,419924080
265,22,Ticks_Phase_8,18,9999,9999,9999,420723788
265,22,Ticks_Phase_8,19,9999,9999,9999,421523528
265,22,Ticks_Phase_8,20,9999,9999,9999,422323316
265,22,Ticks_Phase_8,21,9999,9999,9999,423124072
265,22,Ticks_Phase_8,22,9999,9999,9999,423923780
265,22,Ticks_Phase_8,23,9999,9999,9999,424723572
265,22,Ticks_Phase_8,24,9999,9999,9999,425523276
265,22,Ticks_Phase_8,25,9999,9999,9999,426324044
265,22,Ticks_Phase_8,26,9999,9999,9999,427123828
265,22,Ticks_Phase_8,27,9999,9999,9999,427923564
265,22,Ticks_Phase_8,28,9999,9999,9999,428723268
265,22,Ticks_Phase_8,29,9999,9999,9999,429524028
265,22,Ticks_Phase_8,30,9999,9999,9999,430303304
265,22,Ticks_Phase_8,31,9999,9999,9999,431104064
265,22,Ticks_Phase_8,32,9999,9999,9999,431914104
265,22,Ticks_Phase_8,33,9999,9999,9999,432713820
265,22,Ticks_Phase_8,34,9999,9999,9999,433513532
265,22,Ticks_Phase_8,35,9999,9999,9999,434313272
265,22,Ticks_Phase_8,36,9999,9999,9999,435114120
265,22,Ticks_Phase_8,37,9999,9999,9999,435913808
265,22,Ticks_Phase_8,38,9999,9999,9999,436713592
265,22,Ticks_Phase_8,39,9999,9999,9999,437513312
265,22,Ticks_Phase_8,40,9999,9999,9999,438314072
265,22,Ticks_Phase_8,41,9999,9999,9999,439113848
265,22,Ticks_Phase_8,42,9999,9999,9999,439913568
265,22,Ticks_Phase_8,43,9999,9999,9999,440713308
265,22,Ticks_Phase_8,44,9999,9999,9999,441514064
265,22,Ticks_Phase_8,45,9999,9999,9999,442313844
265,22,Ticks_Phase_8,46,9999,9999,9999,443113564
265,22,Ticks_Phase_8,47,9999,9999,9999,443913276
265,22,Ticks_Phase_8,48,9999,9999,9999,444733504
265,22,Ticks_Phase_8,49,9999,9999,9999,445533292
265,22,Ticks_Phase_8,50,9999,9999,9999,446334044
265,22,Ticks_Phase_8,51,9999,9999,9999,447133772
265,22,Ticks_Phase_8,52,9999,9999,9999,447933568
265,22,Ticks_Phase_8,53,9999,9999,9999,448733272
265,22,Ticks_Phase_8,54,9999,9999,9999,449534036
265,22,Ticks_Phase_8,55,9999,9999,9999,450333752
265,22,Ticks_Phase_8,56,9999,9999,9999,451133536
265,22,Ticks_Phase_8,57,9999,9999,9999,451933248
265,22,Ticks_Phase_8,58,9999,9999,9999,452734072
265,22,Ticks_Phase_8,59,9999,9999,9999,453533816
265,22,Ticks_Phase_8,60,9999,9999,9999,454333524
265,22,Ticks_Phase_8,61,9999,9999,9999,455133240
265,22,Ticks_Phase_8,62,9999,9999,9999,455934072
265,22,Ticks_Phase_8,63,9999,9999,9999,456733784
265,22,Ticks_Phase_8,64,9999,9999,9999,457573480
265,22,Ticks_Phase_8,65,9999,9999,9999,458373216
265,22,Ticks_Phase_8,66,9999,9999,9999,459173980
265,22,Ticks_Phase_8,67,9999,9999,9999,459973692
265,22,Ticks_Phase_8,68,9999,9999,9999,460773476
265,22,Ticks_Phase_8,69,9999,9999,9999,461573192
265,22,Ticks_Phase_8,70,9999,9999,9999,462373952
265,22,Ticks_Phase_8,71,9999,9999,9999,463173736
265,22,Ticks_Phase_8,72,9999,9999,9999,463973448
265,22,Ticks_Phase_8,73,9999,9999,9999,464773188
265,22,Ticks_Phase_8,74,9999,9999,9999,465573944
265,22,Ticks_Phase_8,75,9999,9999,9999,466373728
265,22,Ticks_Phase_8,76,9999,9999,9999,467173444
265,22,Ticks_Phase_8,77,9999,9999,9999,467973232
265,22,Ticks_Phase_8,78,9999,9999,9999,468773992
265,22,Ticks_Phase_8,79,9999,9999,9999,469573704
265,22,Ticks_Phase_8,80,9999,9999,9999,470373484
265,22,Ticks_Phase_8,81,9999,9999,9999,471133284
265,22,Ticks_Phase_8,82,9999,9999,9999,471934048
265,22,Ticks_Phase_8,83,9999,9999,9999,472733788
265,22,Ticks_Phase_8,84,9999,9999,9999,473533492
265,22,Ticks_Phase_8,85,9999,9999,9999,474333280
265,22,Ticks_Phase_8,86,9999,9999,9999,475134040
265,22,Ticks_Phase_8,87,9999,9999,9999,475933820
265,22,Ticks_Phase_8,88,9999,9999,9999,476733532
265,22,Ticks_Phase_8,89,9999,9999,9999,477533244
265,22,Ticks_Phase_8,90,9999,9999,9999,478334008
265,22,Ticks_Phase_8,91,9999,9999,9999,479133820
265,22,Ticks_Phase_8,92,9999,9999,9999,479933500
265,22,Ticks_Phase_8,93,9999,9999,9999,480733288
265,22,Ticks_Phase_8,94,9999,9999,9999,481534052
265,22,Ticks_Phase_8,95,9999,9999,9999,482333764
265,22,Ticks_Phase_8,96,9999,9999,9999,483133548
265,22,Ticks_Phase_8,97,9999,9999,9999,483853428
265,22,Ticks_Phase_8,98,9999,9999,9999,484653144
265,22,Ticks_Phase_8,99,9999,9999,9999,485453900
265,22,Ticks_Phase_8,100,9999,9999,9999,486253628
265,22,Ticks_Phase_8,101,9999,9999,9999,487053440
265,22,Ticks_Phase_8,102,9999,9999,9999,487853120
265,22,Ticks_Phase_8,103,9999,9999,9999,488653908
265,22,Ticks_Phase_8,104,9999,9999,9999,489453628
265,22,Ticks_Phase_8,105,9999,9999,9999,490253412
265,22,Ticks_Phase_8,106,9999,9999,9999,491053124
265,22,Ticks_Phase_8,107,9999,9999,9999,491853884
265,22,Ticks_Phase_8,108,9999,9999,9999,492653660
265,22,Ticks_Phase_8,109,9999,9999,9999,493453396
265,22,Ticks_Phase_8,110,9999,9999,9999,494253116
265,22,Ticks_Phase_8,111,9999,9999,9999,495053940
265,22,Ticks_Phase_8,112,9999,9999,9999,495853652
265,22,Ticks_Phase_8,113,9999,9999,9999,496653396
265,22,Ticks_Phase_8,114,9999,9999,9999,497534016
265,22,Ticks_Phase_8,115,9999,9999,9999,498333776
265,22,Ticks_Phase_8,116,9999,9999,9999,499133560
265,22,Ticks_Phase_8,117,9999,9999,9999,499933268
265,22,Ticks_Phase_8,118,9999,9999,9999,500734032
265,22,Ticks_Phase_8,119,9999,9999,9999,501533812
265,22,Ticks_Phase_8,120,9999,9999,9999,502333532
265,22,Ticks_Phase_8,121,9999,9999,9999,503133308
265,22,Ticks_Phase_8,122,9999,9999,9999,503934076
265,22,Ticks_Phase_8,123,9999,9999,9999,504733812
265,22,Ticks_Phase_8,124,9999,9999,9999,505533524
265,22,Ticks_Phase_8,125,9999,9999,9999,506333304
265,22,Ticks_Phase_8,126,9999,9999,9999,507134064
265,22,Ticks_Phase_8,127,9999,9999,9999,507933776
265,22,Ticks_Phase_8,128,9999,9999,9999,508733564
265,22,Ticks_Phase_8,129,9999,9999,9999,509533248
265,22,Ticks_Phase_8,130,9999,9999,9999,510334060
265,22,Ticks_Phase_8,131,9999,9999,9999,511293492
265,22,Ticks_Phase_8,132,9999,9999,9999,512093304
265,22,Ticks_Phase_8,133,9999,9999,9999,512894012
265,22,Ticks_Phase_8,134,9999,9999,9999,513693800
265,22,Ticks_Phase_8,135,9999,9999,9999,514493512
265,22,Ticks_Phase_8,136,9999,9999,9999,515293300
265,22,Ticks_Phase_8,137,9999,9999,9999,516094056
265,22,Ticks_Phase_8,138,9999,9999,9999,516893772
265,22,Ticks_Phase_8,139,9999,9999,9999,517693548
265,22,Ticks_Phase_8,140,9999,9999,9999,518493264
265,22,Ticks_Phase_8,141,9999,9999,9999,519294052
265,22,Ticks_Phase_8,142,9999,9999,9999,520093764
265,22,Ticks_Phase_8,143,9999,9999,9999,520893552
265,22,Ticks_Phase_8,144,9999,9999,9999,521693256
265,22,Ticks_Phase_8,145,9999,9999,9999,522494020
265,22,Ticks_Phase_8,146,9999,9999,9999,523293808
265,22,Ticks_Phase_8,147,9999,9999,9999,524093512
265,22,Ticks_Phase_8,148,9999,9999,9999,524893304
265,22,Ticks_Phase_8,149,9999,9999,9999,525694012
265,22,Ticks_Phase_8,150,9999,9999,9999,526334044
265,22,Ticks_Phase_8,151,9999,9999,9999,527133756
265,22,Ticks_Phase_8,152,9999,9999,9999,527933540
265,22,Ticks_Phase_8,153,9999,9999,9999,528733268
265,22,Ticks_Phase_8,154,9999,9999,9999,529534048
265,22,Ticks_Phase_8,155,9999,9999,9999,530333760
265,22,Ticks_Phase_8,156,9999,9999,9999,531133548
265,22,Ticks_Phase_8,157,9999,9999,9999,531933268
265,22,Ticks_Phase_8,158,9999,9999,9999,532734024
265,22,Ticks_Phase_8,159,9999,9999,9999,533533808
265,22,Ticks_Phase_8,160,9999,9999,9999,534333520
265,22,Ticks_Phase_8,161,9999,9999,9999,535133308
265,22,Ticks_Phase_8,162,9999,9999,9999,535934016
265,22,Ticks_Phase_8,163,9999,9999,9999,536733800
265,22,Ticks_Phase_8,164,9999,9999,9999,537533516
265,22,Ticks_Phase_8,165,9999,9999,9999,538333296
265,22,Ticks_Phase_8,166,9999,9999,9999,539134056
265,22,Ticks_Phase_8,167,9999,9999,9999,539933768
265,22,Ticks_Phase_8,168,9999,9999,9999,540733552
265,22,Ticks_Phase_8,169,9999,9999,9999,541533272
266,23,Ticks_Phase_5,0,5,42,127,553759256
266,23,Ticks_Phase_5,1,5,42,127,554258744
266,23,Ticks_Phase_5,2,5,42,127,554758604
266,23,Ticks_Phase_5,3,5,42,127,555259208
266,23,Ticks_Phase_5,4,5,42,127,555759068
266,23,Ticks_Phase_5,5,1,48,53,555805020
266,23,Ticks_Phase_5,6,5,42,127,556258536
266,23,Ticks_Phase_5,7,1,48,47,556318644
266,23,Ticks_Phase_5,8,5,42,127,556759468
266,23,Ticks_Phase_5,9,1,48,30,556770824
266,23,Ticks_Phase_5,10,5,42,127,557259080
266,23,Ticks_Phase_5,11,1,48,38,557266536
266,23,Ticks_Phase_5,12,5,42,127,557759068
266,23,Ticks_Phase_5,13,1,48,40,557762556
266,23,Ticks_Phase_5,14,5,42,127,558258532
266,23,Ticks_Phase_5,15,1,48,40,558273404
266,23,Ticks_Phase_5,16,5,42,127,558759192
266,23,Ticks_Phase_5,17,1,48,38,558762164
266,23,Ticks_Phase_5,18,1,48,38,559251804
266,23,Ticks_Phase_5,19,5,42,127,559258872
266,23,Ticks_Phase_5,20,5,42,127,559758572
266,23,Ticks_Phase_5,21,1,48,38,559763856
266,23,Ticks_Phase_5,22,1,48,40,560253792
266,23,Ticks_Phase_5,23,5,42,127,560258624
266,23,Ticks_Phase_5,24,1,48,38,560754732
266,23,Ticks_Phase_5,25,5,42,127,560759036
266,23,Ticks_Phase_5,26,5,42,127,561259032
266,23,Ticks_Phase_5,27,1,48,38,561274128
266,23,Ticks_Phase_5,28,5,42,127,561758692
266,23,Ticks_Phase_5,29,1,48,38,561761812
266,23,Ticks_Phase_5,30,1,48,37,562256164
266,23,Ticks_Phase_5,31,5,42,127,562259272
266,23,Ticks_Phase_5,32,1,48,37,562750020
266,23,Ticks_Phase_5,33,5,42,127,562758960
266,23,Ticks_Phase_5,34,5,42,127,563258728
266,23,Ticks_Phase_5,35,1,48,38,563263340
266,23,Ticks_Phase_5,36,5,42,127,563758864
266,23,Ticks_Phase_5,37,1,48,35,563766240
266,23,Ticks_Phase_5,38,5,42,127,564259076
266,23,Ticks_Phase_5,39,1,48,36,564291100
266,23,Ticks_Phase_5,40,1,48,35,564752884
266,23,Ticks_Phase_5,41,5,42,127,564758832
266,23,Ticks_Phase_5,42,1,48,41,565258900
266,23,Ticks_Phase_5,43,5,42,127,565260392
266,23,Ticks_Phase_5,44,5,42,127,565759632
266,23,Ticks_Phase_5,45,1,48,39,565773760
266,23,Ticks_Phase_5,46,1,48,39,566248356
266,23,Ticks_Phase_5,47,5,42,127,566259020
266,23,Ticks_Phase_5,48,5,42,127,566758716
266,23,Ticks_Phase_5,49,1,48,39,566789620
266,23,Ticks_Phase_5,50,1,48,38,567249828
266,23,Ticks_Phase_5,51,5,42,127,567258696
266,23,Ticks_Phase_5,52,5,42,127,567759288
266,23,Ticks_Phase_5,53,1,48,38,567778812
266,23,Ticks_Phase_5,54,1,48,34,568247560
266,23,Ticks_Phase_5,55,5,42,127,568258896
266,23,Ticks_Phase_5,56,5,42,127,568749528
266,23,Ticks_Phase_5,57,1,48,37,568758644
266,23,Ticks_Phase_5,58,1,48,39,569245880
266,23,Ticks_Phase_5,59,5,42,127,569259544
266,23,Ticks_Phase_5,60,5,42,127,569759016
266,23,Ticks_Phase_5,61,1,48,40,569769028
266,23,Ticks_Phase_5,62,5,42,127,570258776
266,23,Ticks_Phase_5,63,1,48,42,570262192
266,23,Ticks_Phase_5,64,5,42,127,570758616
266,23,Ticks_Phase_5,65,1,48,40,570775504
266,23,Ticks_Phase_5,66,1,48,42,571257992
266,23,Ticks_Phase_5,67,5,42,127,571259492
266,23,Ticks_Phase_5,68,5,42,127,571759088
266,23,Ticks_Phase_5,69,1,48,43,571768428
266,23,Ticks_Phase_5,70,1,48,42,572257112
266,23,Ticks_Phase_5,71,5,42,127,572258768
266,23,Ticks_Phase_5,72,5,42,127,572759584
266,23,Ticks_Phase_5,73,1,48,45,572766832
266,23,Ticks_Phase_5,74,5,42,127,573259124
266,23,Ticks_Phase_5,75,1,48,41,573273324
266,23,Ticks_Phase_5,76,1,48,42,573754576
266,23,Ticks_Phase_5,77,5,42,127,573758804
266,23,Ticks_Phase_5,78,5,42,127,574258424
266,23,Ticks_Phase_5,79,1,48,41,574261916
266,23,Ticks_Phase_5,80,5,42,127,574759384
266,23,Ticks_Phase_5,81,1,48,38,574771640
266,23,Ticks_Phase_5,82,5,42,127,575259000
266,23,Ticks_Phase_5,83,1,48,56,575267216
266,23,Ticks_Phase_5,84,1,48,59,575741872
266,23,Ticks_Phase_5,85,5,42,127,575758752
266,23,Ticks_Phase_5,86,5,42,127,576258524
266,23,Ticks_Phase_5,87,1,48,46,576266964
266,23,Ticks_Phase_5,88,5,42,127,576759256
266,23,Ticks_Phase_5,89,1,48,46,576770764
266,23,Ticks_Phase_5,90,5,42,127,577258800
266,23,Ticks_Phase_5,91,1,48,49,577261916
266,23,Ticks_Phase_5,92,1,48,57,577768368
266,23,Ticks_Phase_5,93,5,42,127,577770156
266,23,Ticks_Phase_5,94,1,48,30,578264124
266,23,Ticks_Phase_5,95,5,42,127,578268576
266,23,Ticks_Phase_5,96,1,48,45,578752656
266,23,Ticks_Phase_5,97,5,42,127,578769388
266,23,Ticks_Phase_5,98,5,42,127,579269080
266,23,Ticks_Phase_5,99,1,48,22,579272724
266,23,Ticks_Phase_5,100,1,48,50,579724620
266,23,Ticks_Phase_5,101,5,42,127,579768616
266,23,Ticks_Phase_5,102,5,42,127,580269356
266,23,Ticks_Phase_5,103,1,48,37,580298092
266,23,Ticks_Phase_5,104,5,42,127,580779452
266,23,Ticks_Phase_5,105,1,48,43,580784144
266,23,Ticks_Phase_5,106,1,48,48,581246520
266,23,Ticks_Phase_5,107,5,42,127,581279208
266,23,Ticks_Phase_5,108,5,42,127,581778904
266,23,Ticks_Phase_5,109,1,48,43,581780388
266,23,Ticks_Phase_5,110,5,42,127,582278372
266,23,Ticks_Phase_5,111,1,48,41,582282980
266,23,Ticks_Phase_5,112,1,48,40,582779104
266,23,Ticks_Phase_5,113,5,42,127,582780968
266,23,Ticks_Phase_5,114,5,42,127,583278916
266,23,Ticks_Phase_5,115,1,48,44,583289104
266,23,Ticks_Phase_5,116,1,48,41,583762688
266,23,Ticks_Phase_5,117,5,42,127,583778600
266,23,Ticks_Phase_5,118,5,42,127,584279488
266,23,Ticks_Phase_5,119,1,48,38,584292044
266,23,Ticks_Phase_5,120,5,42,127,584779180
266,23,Ticks_Phase_5,121,1,48,37,584785512
266,23,Ticks_Phase_5,122,1,48,41,585250224
266,23,Ticks_Phase_5,123,5,42,127,585279008
266,23,Ticks_Phase_5,124,1,48,33,585777476
266,23,Ticks_Phase_5,125,5,42,127,585798920
266,23,Ticks_Phase_5,126,1,48,34,586288176
266,23,Ticks_Phase_5,127,5,42,127,586298904
266,23,Ticks_Phase_5,128,1,48,33,586795116
266,23,Ticks_Phase_5,129,5,42,127,586798372
266,23,Ticks_Phase_5,130,1,48,38,587279756
266,23,Ticks_Phase_5,131,5,42,127,587299104
266,23,Ticks_Phase_5,132,1,48,39,587775464
266,23,Ticks_Phase_5,133,5,42,127,587799016
266,23,Ticks_Phase_5,134,1,48,35,588288792
266,23,Ticks_Phase_5,135,5,42,127,588298556
266,23,Ticks_Phase_5,136,1,48,39,588793868
266,23,Ticks_Phase_5,137,5,42,127,588799292
266,23,Ticks_Phase_5,138,1,48,40,589277240
266,23,Ticks_Phase_5,139,5,42,127,589298980
266,23,Ticks_Phase_5,140,5,42,127,589798900
266,23,Ticks_Phase_5,141,1,48,40,589828008
266,23,Ticks_Phase_5,142,5,42,127,590298588
266,23,Ticks_Phase_5,143,1,48,38,590333160
266,23,Ticks_Phase_5,144,1,48,31,590797896
266,23,Ticks_Phase_5,145,5,42,127,590799692
266,23,Ticks_Phase_5,146,1,48,38,591282576
266,23,Ticks_Phase_5,147,5,42,127,591298784
266,23,Ticks_Phase_5,148,1,48,36,591776712
266,23,Ticks_Phase_5,149,5,42,127,591798696
266,23,Ticks_Phase_5,150,1,48,37,592285536
266,23,Ticks_Phase_5,151,5,42,127,592299356
266,23,Ticks_Phase_5,152,1,48,37,592786592
266,23,Ticks_Phase_5,153,5,42,127,592799120
266,23,Ticks_Phase_5,154,1,48,51,593286108
266,23,Ticks_Phase_5,155,5,42,127,593298732
266,23,Ticks_Phase_5,156,1,48,50,593789552
266,23,Ticks_Phase_5,157,5,42,127,593798568
266,23,Ticks_Phase_5,158,1,48,52,594276248
266,23,Ticks_Phase_5,159,5,42,127,594278764
266,23,Ticks_Phase_5,160,1,48,51,594767716
266,23,Ticks_Phase_5,161,5,42,127,594778600
266,23,Ticks_Phase_5,162,5,42,127,595279416
266,23,Ticks_Phase_5,163,1,48,51,595281280
266,23,Ticks_Phase_5,164,5,42,127,595778880
266,23,Ticks_Phase_5,165,1,48,50,595796892
266,23,Ticks_Phase_5,166,1,48,50,596248204
266,23,Ticks_Phase_5,167,5,42,127,596278636
266,23,Ticks_Phase_5,168,1,48,50,596763836
266,23,Ticks_Phase_5,169,5,42,127,596779520
266,23,Ticks_Phase_5,170,5,42,127,597279068
266,23,Ticks_Phase_5,171,1,48,51,597284652
266,23,Ticks_Phase_5,172,5,42,127,597778828
266,23,Ticks_Phase_5,173,1,48,47,597803216
266,23,Ticks_Phase_5,174,1,48,52,598273312
266,23,Ticks_Phase_5,175,5,42,127,598278512
266,23,Ticks_Phase_5,176,1,48,45,598761544
266,23,Ticks_Phase_5,177,5,42,127,598779396
266,23,Ticks_Phase_5,178,1,48,48,599260484
266,23,Ticks_Phase_5,179,5,42,127,599278936
266,23,Ticks_Phase_5,180,1,48,48,599759720
266,23,Ticks_Phase_5,181,5,42,127,599778624
266,23,Ticks_Phase_5,182,1,48,48,600249976
266,23,Ticks_Phase_5,183,5,42,127,600279436
266,23,Ticks_Phase_5,184,1,48,51,600767192
266,23,Ticks_Phase_5,185,5,42,127,600779272
266,23,Ticks_Phase_5,186,1,48,47,601269196
266,23,Ticks_Phase_5,187,5,42,127,601279036
266,23,Ticks_Phase_5,188,1,48,48,601748896
266,23,Ticks_Phase_5,189,5,42,127,601778504
266,23,Ticks_Phase_5,190,5,42,127,602229044
266,23,Ticks_Phase_5,191,1,48,48,602263312
266,23,Ticks_Phase_5,192,1,48,50,602697148
266,23,Ticks_Phase_5,193,5,42,127,602729000
266,23,Ticks_Phase_5,194,1,48,49,603200952
266,23,Ticks_Phase_5,195,5,42,127,603228464
266,23,Ticks_Phase_5,196,1,48,53,603695540
266,23,Ticks_Phase_5,197,5,42,127,603729200
266,23,Ticks_Phase_5,198,1,48,49,604203168
266,23,Ticks_Phase_5,199,5,42,127,604229036
266,23,Ticks_Phase_5,200,1,48,48,604694840
266,23,Ticks_Phase_5,201,5,42,127,604728648
266,23,Ticks_Phase_5,202,1,48,46,605195500
266,23,Ticks_Phase_5,203,5,42,127,605229312
266,23,Ticks_Phase_5,204,1,48,47,605704096
266,23,Ticks_Phase_5,205,5,42,127,605739404
266,23,Ticks_Phase_5,206,1,48,46,606194200
266,23,Ticks_Phase_5,207,5,42,127,606239168
266,23,Ticks_Phase_5,208,1,48,39,606718312
266,23,Ticks_Phase_5,209,5,42,127,606738784
266,23,Ticks_Phase_5,210,1,48,39,607197484
266,23,Ticks_Phase_5,211,5,42,127,607238620
266,23,Ticks_Phase_5,212,1,48,43,607715804
266,23,Ticks_Phase_5,213,5,42,127,607739204
266,23,Ticks_Phase_5,214,1,48,42,608228832
266,23,Ticks_Phase_5,215,5,42,127,608238820
266,23,Ticks_Phase_5,216,1,48,42,608725364
266,23,Ticks_Phase_5,217,5,42,127,608739028
266,23,Ticks_Phase_5,218,1,48,39,609226864
266,23,Ticks_Phase_5,219,5,42,127,609239540
266,23,Ticks_Phase_5,220,1,48,31,609721452
266,23,Ticks_Phase_5,221,5,42,127,609739080
266,23,Ticks_Phase_5,222,5,42,127,610238924
266,23,Ticks_Phase_5,223,1,48,40,610241296
266,23,Ticks_Phase_5,224,1,48,42,610736788
266,23,Ticks_Phase_5,225,5,42,127,610788860
266,23,Ticks_Phase_5,226,1,48,41,611251968
266,23,Ticks_Phase_5,227,5,42,127,611288472
266,23,Ticks_Phase_5,228,1,48,41,611744760
266,23,Ticks_Phase_5,229,5,42,127,611789132
266,23,Ticks_Phase_5,230,1,48,41,612249776
266,23,Ticks_Phase_5,231,5,42,127,612288968
266,23,Ticks_Phase_5,232,1,48,37,612727076
266,23,Ticks_Phase_5,233,5,42,127,612788732
266,23,Ticks_Phase_5,234,1,48,40,613253416
266,23,Ticks_Phase_5,235,5,42,127,613289244
266,23,Ticks_Phase_5,236,1,48,41,613758796
266,23,Ticks_Phase_5,237,5,42,127,613789004
266,23,Ticks_Phase_5,238,1,48,44,614282448
266,23,Ticks_Phase_5,239,5,42,127,614288844
266,23,Ticks_Phase_5,240,5,42,127,614788688
266,23,Ticks_Phase_5,241,1,48,45,614789652
266,23,Ticks_Phase_5,242,5,42,127,615289348
266,23,Ticks_Phase_5,243,1,48,40,615318980
266,23,Ticks_Phase_5,244,5,42,127,615788936
266,23,Ticks_Phase_5,245,1,48,35,615822856
266,23,Ticks_Phase_5,246,5,42,127,616288624
266,23,Ticks_Phase_5,247,1,48,30,616297516
266,23,Ticks_Phase_5,248,1,48,40,616752548
266,23,Ticks_Phase_5,249,5,42,127,616789648
266,23,Ticks_Phase_5,250,1,48,40,617272304
266,23,Ticks_Phase_5,251,5,42,127,617288964
266,23,Ticks_Phase_5,252,1,48,45,617773120
266,23,Ticks_Phase_5,253,5,42,127,617788728
266,23,Ticks_Phase_5,254,1,48,43,618277012
266,23,Ticks_Phase_5,255,5,42,127,618288640
266,23,Ticks_Phase_5,256,1,48,45,618768304
266,23,Ticks_Phase_5,257,5,42,127,618789376
266,23,Ticks_Phase_5,258,1,48,43,619297424
266,23,Ticks_Phase_5,259,5,42,127,619389420
266,23,Ticks_Phase_5,260,5,42,127,619889256
266,23,Ticks_Phase_5,261,1,48,41,620003680
266,23,Ticks_Phase_5,262,5,42,127,620388720
266,23,Ticks_Phase_5,263,1,48,40,620408348
266,23,Ticks_Phase_5,264,5,42,127,620888412
266,23,Ticks_Phase_5,265,1,48,46,620901936
266,23,Ticks_Phase_5,266,1,48,43,621380348
266,23,Ticks_Phase_5,267,5,42,127,621389140
266,23,Ticks_Phase_5,268,1,48,40,621876524
266,23,Ticks_Phase_5,269,5,42,127,621888752
266,23,Ticks_Phase_5,270,1,48,35,622386632
266,23,Ticks_Phase_5,271,5,42,127,622388516
266,23,Ticks_Phase_5,272,5,42,127,622889408
266,23,Ticks_Phase_5,273,1,48,38,622901964
266,23,Ticks_Phase_5,274,1,48,34,623374976
266,23,Ticks_Phase_5,275,5,42,127,623389312
266,23,Ticks_Phase_5,276,1,48,36,623839996
266,23,Ticks_Phase_5,277,5,42,127,623888776
266,23,Ticks_Phase_5,278,1,48,42,624378700
266,23,Ticks_Phase_5,279,5,42,127,624388392
266,23,Ticks_Phase_5,280,1,48,40,624887616
266,23,Ticks_Phase_5,281,5,42,127,624889348
266,23,Ticks_Phase_5,282,5,42,127,625389044
266,23,Ticks_Phase_5,283,1,48,43,625391792
266,23,Ticks_Phase_5,284,1,48,43,625885768
266,23,Ticks_Phase_5,285,5,42,127,625889096
266,23,Ticks_Phase_5,286,1,48,44,626385380
266,23,Ticks_Phase_5,287,5,42,127,626389388
266,23,Ticks_Phase_5,288,1,48,48,626884172
266,23,Ticks_Phase_5,289,5,42,127,626889296
266,23,Ticks_Phase_5,290,1,48,41,627371432
266,23,Ticks_Phase_5,291,5,42,127,627388912
266,23,Ticks_Phase_5,292,1,48,41,627871048
266,23,Ticks_Phase_5,293,5,42,127,627888452
266,23,Ticks_Phase_5,294,1,48,36,628359800
266,23,Ticks_Phase_5,295,5,42,127,628389188
266,23,Ticks_Phase_5,296,5,42,127,628788584
266,23,Ticks_Phase_5,297,1,48,39,628856792
266,23,Ticks_Phase_5,298,5,42,127,629289320
266,23,Ticks_Phase_5,299,1,48,37,629325084
266,23,Ticks_Phase_5,300,1,48,39,629777968
266,23,Ticks_Phase_5,301,5,42,127,629789076
266,23,Ticks_Phase_5,302,1,48,39,630263492
266,23,Ticks_Phase_5,303,5,42,127,630288988
266,23,Ticks_Phase_5,304,1,48,38,630769252
266,23,Ticks_Phase_5,305,5,42,127,630788528
266,23,Ticks_Phase_5,306,5,42,127,631289120
266,23,Ticks_Phase_5,307,1,48,35,631303692
266,23,Ticks_Phase_5,308,1,48,36,631774240
266,23,Ticks_Phase_5,309,5,42,127,631788952
266,23,Ticks_Phase_5,310,1,48,35,632272576
266,23,Ticks_Phase_5,311,5,42,127,632288564
266,23,Ticks_Phase_5,312,1,48,38,632745600
266,23,Ticks_Phase_5,313,5,42,127,632789300
266,23,Ticks_Phase_5,314,5,42,127,633289068
266,23,Ticks_Phase_5,315,1,48,37,633293532
266,23,Ticks_Phase_5,316,5,42,127,633788904
266,23,Ticks_Phase_5,317,1,48,42,633811568
266,23,Ticks_Phase_5,318,5,42,127,634288592
266,23,Ticks_Phase_5,319,1,48,45,634294176
266,23,Ticks_Phase_5,320,1,48,37,634762856
266,23,Ticks_Phase_5,321,5,42,127,634789172
266,23,Ticks_Phase_5,322,1,48,38,635260596
266,23,Ticks_Phase_5,323,5,42,127,635288936
266,23,Ticks_Phase_5,324,1,48,30,635773464
266,23,Ticks_Phase_5,325,5,42,127,635788772
266,23,Ticks_Phase_5,326,1,48,36,636276980
266,23,Ticks_Phase_5,327,5,42,127,636289360
266,23,Ticks_Phase_5,328,1,48,37,636759040
266,23,Ticks_Phase_5,329,5,42,127,636789124
266,23,Ticks_Phase_5,330,1,48,30,637278504
266,23,Ticks_Phase_5,331,5,42,127,637288788
266,23,Ticks_Phase_5,332,5,42,127,637788556
266,23,Ticks_Phase_5,333,1,48,32,637792424
266,23,Ticks_Phase_5,334,5,42,127,638289368
266,23,Ticks_Phase_5,0,9999,9999,9999,553756744
266,23,Ticks_Phase_5,1,9999,9999,9999,554256456
266,23,Ticks_Phase_5,2,9999,9999,9999,554756168
266,23,Ticks_Phase_5,3,9999,9999,9999,555256920
266,23,Ticks_Phase_5,4,9999,9999,9999,555756632
266,23,Ticks_Phase_5,5,9999,9999,9999,556256320
266,23,Ticks_Phase_5,6,9999,9999,9999,556757104
266,23,Ticks_Phase_5,7,9999,9999,9999,557256796
266,23,Ticks_Phase_5,8,9999,9999,9999,557756484
266,23,Ticks_Phase_5,9,9999,9999,9999,558256244
266,23,Ticks_Phase_5,10,9999,9999,9999,558756980
266,23,Ticks_Phase_5,11,9999,9999,9999,559256660
266,23,Ticks_Phase_5,12,9999,9999,9999,559756356
266,23,Ticks_Phase_5,13,9999,9999,9999,560256112
266,23,Ticks_Phase_5,14,9999,9999,9999,560756824
266,23,Ticks_Phase_5,15,9999,9999,9999,561256520
266,23,Ticks_Phase_5,16,9999,9999,9999,561756256
266,23,Ticks_Phase_5,17,9999,9999,9999,562256984
266,23,Ticks_Phase_5,18,9999,9999,9999,562756676
266,23,Ticks_Phase_5,19,9999,9999,9999,563256444
266,23,Ticks_Phase_5,20,9999,9999,9999,563756132
266,23,Ticks_Phase_5,21,9999,9999,9999,564256864
266,23,Ticks_Phase_5,22,9999,9999,9999,564756544
266,23,Ticks_Phase_5,23,9999,9999,9999,565256316
266,23,Ticks_Phase_5,24,9999,9999,9999,565757048
266,23,Ticks_Phase_5,25,9999,9999,9999,566256732
266,23,Ticks_Phase_5,26,9999,9999,9999,566756428
266,23,Ticks_Phase_5,27,9999,9999,9999,567256184
266,23,Ticks_Phase_5,28,9999,9999,9999,567756924
266,23,Ticks_Phase_5,29,9999,9999,9999,568256608
266,23,Ticks_Phase_5,30,9999,9999,9999,568747092
266,23,Ticks_Phase_5,31,9999,9999,9999,569257032
266,23,Ticks_Phase_5,32,9999,9999,9999,569756800
266,23,Ticks_Phase_5,33,9999,9999,9999,570256488
266,23,Ticks_Phase_5,34,9999,9999,9999,570756180
266,23,Ticks_Phase_5,35,9999,9999,9999,571256888
266,23,Ticks_Phase_5,36,9999,9999,9999,571756652
266,23,Ticks_Phase_5,37,9999,9999,9999,572256340
266,23,Ticks_Phase_5,38,9999,9999,9999,572757076
266,23,Ticks_Phase_5,39,9999,9999,9999,573256764
266,23,Ticks_Phase_5,40,9999,9999,9999,573756516
266,23,Ticks_Phase_5,41,9999,9999,9999,574256212
266,23,Ticks_Phase_5,42,9999,9999,9999,574756948
266,23,Ticks_Phase_5,43,9999,9999,9999,575256636
266,23,Ticks_Phase_5,44,9999,9999,9999,575756392
266,23,Ticks_Phase_5,45,9999,9999,9999,576256088
266,23,Ticks_Phase_5,46,9999,9999,9999,576756820
266,23,Ticks_Phase_5,47,9999,9999,9999,577256512
266,23,Ticks_Phase_5,48,9999,9999,9999,577766460
266,23,Ticks_Phase_5,49,9999,9999,9999,578266216
266,23,Ticks_Phase_5,50,9999,9999,9999,578766952
266,23,Ticks_Phase_5,51,9999,9999,9999,579266644
266,23,Ticks_Phase_5,52,9999,9999,9999,579766328
266,23,Ticks_Phase_5,53,9999,9999,9999,580267068
266,23,Ticks_Phase_5,54,9999,9999,9999,580777016
266,23,Ticks_Phase_5,55,9999,9999,9999,581276776
266,23,Ticks_Phase_5,56,9999,9999,9999,581776468
266,23,Ticks_Phase_5,57,9999,9999,9999,582276156
266,23,Ticks_Phase_5,58,9999,9999,9999,582776892
266,23,Ticks_Phase_5,59,9999,9999,9999,583276628
266,23,Ticks_Phase_5,60,9999,9999,9999,583776312
266,23,Ticks_Phase_5,61,9999,9999,9999,584277052
266,23,Ticks_Phase_5,62,9999,9999,9999,584776816
266,23,Ticks_Phase_5,63,9999,9999,9999,585276500
266,23,Ticks_Phase_5,64,9999,9999,9999,585796708
266,23,Ticks_Phase_5,65,9999,9999,9999,586296396
266,23,Ticks_Phase_5,66,9999,9999,9999,586796160
266,23,Ticks_Phase_5,67,9999,9999,9999,587296892
266,23,Ticks_Phase_5,68,9999,9999,9999,587796580
266,23,Ticks_Phase_5,69,9999,9999,9999,588296268
266,23,Ticks_Phase_5,70,9999,9999,9999,588797004
266,23,Ticks_Phase_5,71,9999,9999,9999,589296768
266,23,Ticks_Phase_5,72,9999,9999,9999,589796464
266,23,Ticks_Phase_5,73,9999,9999,9999,590296156
266,23,Ticks_Phase_5,74,9999,9999,9999,590796888
266,23,Ticks_Phase_5,75,9999,9999,9999,591296572
266,23,Ticks_Phase_5,76,9999,9999,9999,591796336
266,23,Ticks_Phase_5,77,9999,9999,9999,592297068
266,23,Ticks_Phase_5,78,9999,9999,9999,592796756
266,23,Ticks_Phase_5,79,9999,9999,9999,593296448
266,23,Ticks_Phase_5,80,9999,9999,9999,593796208
266,23,Ticks_Phase_5,81,9999,9999,9999,594276476
266,23,Ticks_Phase_5,82,9999,9999,9999,594776164
266,23,Ticks_Phase_5,83,9999,9999,9999,595276904
266,23,Ticks_Phase_5,84,9999,9999,9999,595776592
266,23,Ticks_Phase_5,85,9999,9999,9999,596276348
266,23,Ticks_Phase_5,86,9999,9999,9999,596777084
266,23,Ticks_Phase_5,87,9999,9999,9999,597276780
266,23,Ticks_Phase_5,88,9999,9999,9999,597776468
266,23,Ticks_Phase_5,89,9999,9999,9999,598276224
266,23,Ticks_Phase_5,90,9999,9999,9999,598776960
266,23,Ticks_Phase_5,91,9999,9999,9999,599276648
266,23,Ticks_Phase_5,92,9999,9999,9999,599776340
266,23,Ticks_Phase_5,93,9999,9999,9999,600277076
266,23,Ticks_Phase_5,94,9999,9999,9999,600776764
266,23,Ticks_Phase_5,95,9999,9999,9999,601276528
266,23,Ticks_Phase_5,96,9999,9999,9999,601776216
266,23,Ticks_Phase_5,97,9999,9999,9999,602226756
266,23,Ticks_Phase_5,98,9999,9999,9999,602726488
266,23,Ticks_Phase_5,99,9999,9999,9999,603226180
266,23,Ticks_Phase_5,100,9999,9999,9999,603726912
266,23,Ticks_Phase_5,101,9999,9999,9999,604226676
266,23,Ticks_Phase_5,102,9999,9999,9999,604726364
266,23,Ticks_Phase_5,103,9999,9999,9999,605227100
266,23,Ticks_Phase_5,104,9999,9999,9999,605737044
266,23,Ticks_Phase_5,105,9999,9999,9999,606236732
266,23,Ticks_Phase_5,106,9999,9999,9999,606736496
266,23,Ticks_Phase_5,107,9999,9999,9999,607236184
266,23,Ticks_Phase_5,108,9999,9999,9999,607736920
266,23,Ticks_Phase_5,109,9999,9999,9999,608236608
266,23,Ticks_Phase_5,110,9999,9999,9999,608736372
266,23,Ticks_Phase_5,111,9999,9999,9999,609237104
266,23,Ticks_Phase_5,112,9999,9999,9999,609736792
266,23,Ticks_Phase_5,113,9999,9999,9999,610236488
266,23,Ticks_Phase_5,114,9999,9999,9999,610786424
266,23,Ticks_Phase_5,115,9999,9999,9999,611286112
266,23,Ticks_Phase_5,116,9999,9999,9999,611786848
266,23,Ticks_Phase_5,117,9999,9999,9999,612286532
266,23,Ticks_Phase_5,118,9999,9999,9999,612786296
266,23,Ticks_Phase_5,119,9999,9999,9999,613287032
266,23,Ticks_Phase_5,120,9999,9999,9999,613786720
266,23,Ticks_Phase_5,121,9999,9999,9999,614286408
266,23,Ticks_Phase_5,122,9999,9999,9999,614786176
266,23,Ticks_Phase_5,123,9999,9999,9999,615286912
266,23,Ticks_Phase_5,124,9999,9999,9999,615786576
266,23,Ticks_Phase_5,125,9999,9999,9999,616286336
266,23,Ticks_Phase_5,126,9999,9999,9999,616787064
266,23,Ticks_Phase_5,127,9999,9999,9999,617286752
266,23,Ticks_Phase_5,128,9999,9999,9999,617786440
266,23,Ticks_Phase_5,129,9999,9999,9999,618286204
266,23,Ticks_Phase_5,130,9999,9999,9999,618786940
266,23,Ticks_Phase_5,131,9999,9999,9999,619387000
266,23,Ticks_Phase_5,132,9999,9999,9999,619886672
266,23,Ticks_Phase_5,133,9999,9999,9999,620386360
266,23,Ticks_Phase_5,134,9999,9999,9999,620886124
266,23,Ticks_Phase_5,135,9999,9999,9999,621386852
266,23,Ticks_Phase_5,136,9999,9999,9999,621886540
266,23,Ticks_Phase_5,137,9999,9999,9999,622386256
266,23,Ticks_Phase_5,138,9999,9999,9999,622886972
266,23,Ticks_Phase_5,139,9999,9999,9999,623386728
266,23,Ticks_Phase_5,140,9999,9999,9999,623886416
266,23,Ticks_Phase_5,141,9999,9999,9999,624386104
266,23,Ticks_Phase_5,142,9999,9999,9999,624886844
266,23,Ticks_Phase_5,143,9999,9999,9999,625386608
266,23,Ticks_Phase_5,144,9999,9999,9999,625886288
266,23,Ticks_Phase_5,145,9999,9999,9999,626387024
266,23,Ticks_Phase_5,146,9999,9999,9999,626886712
266,23,Ticks_Phase_5,147,9999,9999,9999,627386476
266,23,Ticks_Phase_5,148,9999,9999,9999,627886164
266,23,Ticks_Phase_5,149,9999,9999,9999,628386900
266,23,Ticks_Phase_5,150,9999,9999,9999,628786296
266,23,Ticks_Phase_5,151,9999,9999,9999,629287032
266,23,Ticks_Phase_5,152,9999,9999,9999,629786716
266,23,Ticks_Phase_5,153,9999,9999,9999,630286404
266,23,Ticks_Phase_5,154,9999,9999,9999,630786168
266,23,Ticks_Phase_5,155,9999,9999,9999,631286908
266,23,Ticks_Phase_5,156,9999,9999,9999,631786592
266,23,Ticks_Phase_5,157,9999,9999,9999,632286276
266,23,Ticks_Phase_5,158,9999,9999,9999,632787012
266,23,Ticks_Phase_5,159,9999,9999,9999,633286780
266,23,Ticks_Phase_5,160,9999,9999,9999,633786468
266,23,Ticks_Phase_5,161,9999,9999,9999,634286160
266,23,Ticks_Phase_5,162,9999,9999,9999,634786888
266,23,Ticks_Phase_5,163,9999,9999,9999,635286648
266,23,Ticks_Phase_5,164,9999,9999,9999,635786340
266,23,Ticks_Phase_5,165,9999,9999,9999,636287072
266,23,Ticks_Phase_5,166,9999,9999,9999,636786812
266,23,Ticks_Phase_5,167,9999,9999,9999,637286500
266,23,Ticks_Phase_5,168,9999,9999,9999,637786196
266,23,Ticks_Phase_5,169,9999,9999,9999,638286932
267,9,Ticks_ISO_T2_8,0,5,42,127,651252984
267,9,Ticks_ISO_T2_8,1,5,42,127,652053112
267,9,Ticks_ISO_T2_8,2,5,42,127,652852496
267,9,Ticks_ISO_T2_8,3,5,42,127,653653296
267,9,Ticks_ISO_T2_8,4,1,48,41,654449492
267,9,Ticks_ISO_T2_8,5,5,42,127,654453216
267,9,Ticks_ISO_T2_8,6,1,48,34,655240356
267,9,Ticks_ISO_T2_8,7,5,42,127,655253024
267,9,Ticks_ISO_T2_8,8,5,42,127,656052692
267,9,Ticks_ISO_T2_8,9,1,48,35,656079744
267,9,Ticks_ISO_T2_8,10,5,42,127,656853396
267,9,Ticks_ISO_T2_8,11,1,48,35,656865568
267,9,Ticks_ISO_T2_8,12,5,42,127,657653056
267,9,Ticks_ISO_T2_8,13,1,48,30,657670084
267,9,Ticks_ISO_T2_8,14,5,42,127,658452864
267,9,Ticks_ISO_T2_8,15,1,48,29,658469744
267,9,Ticks_ISO_T2_8,16,1,48,34,659249792
267,9,Ticks_ISO_T2_8,17,5,42,127,659252816
267,9,Ticks_ISO_T2_8,18,5,42,127,660053228
267,9,Ticks_ISO_T2_8,19,1,48,28,660062104
267,9,Ticks_ISO_T2_8,20,5,42,127,660853136
267,9,Ticks_ISO_T2_8,21,1,48,32,660859472
267,9,Ticks_ISO_T2_8,22,5,42,127,661652872
267,9,Ticks_ISO_T2_8,23,1,48,28,661676636
267,9,Ticks_ISO_T2_8,24,1,48,32,662452152
267,9,Ticks_ISO_T2_8,25,5,42,127,662453944
267,9,Ticks_ISO_T2_8,26,5,42,127,663253536
267,9,Ticks_ISO_T2_8,27,1,48,35,663254428
267,9,Ticks_ISO_T2_8,28,5,42,127,664053192
267,9,Ticks_ISO_T2_8,29,1,48,29,664060576
267,9,Ticks_ISO_T2_8,30,5,42,127,664852852
267,9,Ticks_ISO_T2_8,31,1,48,37,664854264
267,9,Ticks_ISO_T2_8,32,5,42,127,665652512
267,9,Ticks_ISO_T2_8,33,1,48,31,665686968
267,9,Ticks_ISO_T2_8,34,1,48,36,666423104
267,9,Ticks_ISO_T2_8,35,5,42,127,666453432
267,9,Ticks_ISO_T2_8,36,5,42,127,667253272
267,9,Ticks_ISO_T2_8,37,1,48,35,667274348
267,9,Ticks_ISO_T2_8,38,5,42,127,668052784
267,9,Ticks_ISO_T2_8,39,1,48,34,668086648
267,9,Ticks_ISO_T2_8,40,1,48,30,668849636
267,9,Ticks_ISO_T2_8,41,5,42,127,668852512
267,9,Ticks_ISO_T2_8,42,1,48,36,669645028
267,9,Ticks_ISO_T2_8,43,5,42,127,669653288
267,9,Ticks_ISO_T2_8,44,5,42,127,670453256
267,9,Ticks_ISO_T2_8,45,1,48,32,670456372
267,9,Ticks_ISO_T2_8,46,1,48,38,671237912
267,9,Ticks_ISO_T2_8,47,5,42,127,671252832
267,9,Ticks_ISO_T2_8,48,5,42,127,672052572
267,9,Ticks_ISO_T2_8,49,1,48,37,672061680
267,9,Ticks_ISO_T2_8,50,5,42,127,672853428
267,9,Ticks_ISO_T2_8,51,1,48,38,672873076
267,9,Ticks_ISO_T2_8,52,1,48,35,673617444
267,9,Ticks_ISO_T2_8,53,5,42,127,673653324
267,9,Ticks_ISO_T2_8,54,1,48,34,674432384
267,9,Ticks_ISO_T2_8,55,5,42,127,674452836
267,9,Ticks_ISO_T2_8,56,1,48,54,675238476
267,9,Ticks_ISO_T2_8,57,5,42,127,675252572
267,9,Ticks_ISO_T2_8,58,5,42,127,676053280
267,9,Ticks_ISO_T2_8,59,1,48,46,676081232
267,9,Ticks_ISO_T2_8,60,1,48,46,676834876
267,9,Ticks_ISO_T2_8,61,5,42,127,676853160
267,9,Ticks_ISO_T2_8,62,1,48,46,677629820
267,9,Ticks_ISO_T2_8,63,5,42,127,677653116
267,9,Ticks_ISO_T2_8,64,1,48,49,678449676
267,9,Ticks_ISO_T2_8,65,5,42,127,678452480
267,9,Ticks_ISO_T2_8,66,5,42,127,679253340
267,9,Ticks_ISO_T2_8,67,1,48,46,679284836
267,9,Ticks_ISO_T2_8,68,1,48,41,680045400
267,9,Ticks_ISO_T2_8,69,5,42,127,680053092
267,9,Ticks_ISO_T2_8,70,1,48,43,680822272
267,9,Ticks_ISO_T2_8,71,5,42,127,680852900
267,9,Ticks_ISO_T2_8,72,1,48,41,681628964
267,9,Ticks_ISO_T2_8,73,5,42,127,681652708
267,9,Ticks_ISO_T2_8,74,5,42,127,682453344
267,9,Ticks_ISO_T2_8,75,1,48,39,682456912
267,9,Ticks_ISO_T2_8,76,1,48,33,683240172
267,9,Ticks_ISO_T2_8,77,5,42,127,683253072
267,9,Ticks_ISO_T2_8,78,1,48,36,684046568
267,9,Ticks_ISO_T2_8,79,5,42,127,684052804
267,9,Ticks_ISO_T2_8,80,5,42,127,684852544
267,9,Ticks_ISO_T2_8,81,1,48,37,684865984
267,9,Ticks_ISO_T2_8,82,1,48,25,685650368
267,9,Ticks_ISO_T2_8,83,5,42,127,685653540
267,9,Ticks_ISO_T2_8,84,1,48,38,686453308
267,9,Ticks_ISO_T2_8,85,5,42,127,686454872
267,9,Ticks_ISO_T2_8,86,1,48,39,687244248
267,9,Ticks_ISO_T2_8,87,5,42,127,687252812
267,9,Ticks_ISO_T2_8,88,1,48,33,688030592
267,9,Ticks_ISO_T2_8,89,5,42,127,688052544
267,9,Ticks_ISO_T2_8,90,5,42,127,688853628
267,9,Ticks_ISO_T2_8,91,1,48,39,688862288
267,9,Ticks_ISO_T2_8,92,5,42,127,689652988
267,9,Ticks_ISO_T2_8,93,1,48,36,689681088
267,9,Ticks_ISO_T2_8,94,1,48,40,690441240
267,9,Ticks_ISO_T2_8,95,5,42,127,690452792
267,9,Ticks_ISO_T2_8,96,5,42,127,691252532
267,9,Ticks_ISO_T2_8,97,1,48,40,691257292
267,9,Ticks_ISO_T2_8,98,5,42,127,692053460
267,9,Ticks_ISO_T2_8,99,1,48,31,692066532
267,9,Ticks_ISO_T2_8,100,1,48,38,692830640
267,9,Ticks_ISO_T2_8,101,5,42,127,692853136
267,9,Ticks_ISO_T2_8,102,1,48,45,693649096
267,9,Ticks_ISO_T2_8,103,5,42,127,693652796
267,9,Ticks_ISO_T2_8,104,5,42,127,694452460
267,9,Ticks_ISO_T2_8,105,1,48,41,694478764
267,9,Ticks_ISO_T2_8,106,1,48,40,695208772
267,9,Ticks_ISO_T2_8,107,5,42,127,695253312
267,9,Ticks_ISO_T2_8,108,1,48,34,696025336
267,9,Ticks_ISO_T2_8,109,5,42,127,696053268
267,9,Ticks_ISO_T2_8,110,1,48,42,696848488
267,9,Ticks_ISO_T2_8,111,5,42,127,696852780
267,9,Ticks_ISO_T2_8,112,5,42,127,697652668
267,9,Ticks_ISO_T2_8,113,1,48,43,697666332
267,9,Ticks_ISO_T2_8,114,5,42,127,698453224
267,9,Ticks_ISO_T2_8,115,1,48,43,698470484
267,9,Ticks_ISO_T2_8,116,1,48,41,699251544
267,9,Ticks_ISO_T2_8,117,5,42,127,699253348
267,9,Ticks_ISO_T2_8,118,1,48,40,700035396
267,9,Ticks_ISO_T2_8,119,5,42,127,700052936
267,9,Ticks_ISO_T2_8,120,1,48,42,700852304
267,9,Ticks_ISO_T2_8,121,5,42,127,700854012
267,9,Ticks_ISO_T2_8,122,5,42,127,701653304
267,9,Ticks_ISO_T2_8,123,1,48,49,701657996
267,9,Ticks_ISO_T2_8,124,1,48,48,702437216
267,9,Ticks_ISO_T2_8,125,5,42,127,702452956
267,9,Ticks_ISO_T2_8,126,1,48,51,703243080
267,9,Ticks_ISO_T2_8,127,5,42,127,703252764
267,9,Ticks_ISO_T2_8,128,5,42,127,704052656
267,9,Ticks_ISO_T2_8,129,1,48,52,704054064
267,9,Ticks_ISO_T2_8,130,5,42,127,704853212
267,9,Ticks_ISO_T2_8,131,1,48,50,704859548
267,9,Ticks_ISO_T2_8,132,5,42,127,705652968
267,9,Ticks_ISO_T2_8,133,1,48,59,705685184
267,9,Ticks_ISO_T2_8,134,5,42,127,706452928
267,9,Ticks_ISO_T2_8,135,1,48,49,706496432
267,9,Ticks_ISO_T2_8,136,5,42,127,707252584
267,9,Ticks_ISO_T2_8,137,1,48,48,707293700
267,9,Ticks_ISO_T2_8,138,1,48,50,708039716
267,9,Ticks_ISO_T2_8,139,5,42,127,708053360
267,9,Ticks_ISO_T2_8,140,1,48,43,708844008
267,9,Ticks_ISO_T2_8,141,5,42,127,708853168
267,9,Ticks_ISO_T2_8,142,1,48,41,709648680
267,9,Ticks_ISO_T2_8,143,5,42,127,709652900
267,9,Ticks_ISO_T2_8,144,1,48,40,710452040
267,9,Ticks_ISO_T2_8,145,5,42,127,710453604
267,9,Ticks_ISO_T2_8,146,5,42,127,711253420
267,9,Ticks_ISO_T2_8,147,1,48,43,711269856
267,9,Ticks_ISO_T2_8,148,5,42,127,712053176
267,9,Ticks_ISO_T2_8,149,1,48,36,712055040
267,9,Ticks_ISO_T2_8,150,1,48,38,712834992
267,9,Ticks_ISO_T2_8,151,5,42,127,712852756
267,9,Ticks_ISO_T2_8,152,1,48,40,713649616
267,9,Ticks_ISO_T2_8,153,5,42,127,713652636
267,9,Ticks_ISO_T2_8,154,1,48,37,714446960
267,9,Ticks_ISO_T2_8,155,5,42,127,714453492
267,9,Ticks_ISO_T2_8,156,5,42,127,715253236
267,9,Ticks_ISO_T2_8,157,1,48,40,715288596
267,9,Ticks_ISO_T2_8,158,1,48,32,716034304
267,9,Ticks_ISO_T2_8,159,5,42,127,716052812
267,9,Ticks_ISO_T2_8,160,1,48,40,716833364
267,9,Ticks_ISO_T2_8,161,5,42,127,716852620
267,9,Ticks_ISO_T2_8,162,5,42,127,717653408
267,9,Ticks_ISO_T2_8,163,1,48,36,717656532
267,9,Ticks_ISO_T2_8,164,1,48,42,718446924
267,9,Ticks_ISO_T2_8,165,5,42,127,718453084
267,9,Ticks_ISO_T2_8,166,1,48,33,719249720
267,9,Ticks_ISO_T2_8,167,5,42,127,719252896
267,9,Ticks_ISO_T2_8,168,1,48,32,720040404
267,9,Ticks_ISO_T2_8,169,5,42,127,720052628
267,9,Ticks_ISO_T2_8,170,1,48,33,720835944
267,9,Ticks_ISO_T2_8,171,5,42,127,720853332
267,9,Ticks_ISO_T2_8,172,1,48,37,721640468
267,9,Ticks_ISO_T2_8,173,5,42,127,721653064
267,9,Ticks_ISO_T2_8,174,5,42,127,722452880
267,9,Ticks_ISO_T2_8,175,1,48,42,722456220
267,9,Ticks_ISO_T2_8,176,5,42,127,723252464
267,9,Ticks_ISO_T2_8,177,1,48,35,723270316
267,9,Ticks_ISO_T2_8,178,1,48,34,724034276
267,9,Ticks_ISO_T2_8,179,5,42,127,724053460
267,9,Ticks_ISO_T2_8,180,1,48,36,724829452
267,9,Ticks_ISO_T2_8,181,5,42,127,724853068
267,9,Ticks_ISO_T2_8,182,1,48,35,725627940
267,9,Ticks_ISO_T2_8,183,5,42,127,725652952
267,9,Ticks_ISO_T2_8,184,5,42,127,726452844
267,9,Ticks_ISO_T2_8,185,1,48,41,726460604
267,9,Ticks_ISO_T2_8,186,1,48,37,727240048
267,9,Ticks_ISO_T2_8,187,5,42,127,727253320
267,9,Ticks_ISO_T2_8,188,5,42,127,728052984
267,9,Ticks_ISO_T2_8,189,1,48,40,728060812
267,9,Ticks_ISO_T2_8,190,5,42,127,728852720
267,9,Ticks_ISO_T2_8,191,1,48,52,728902136
267,9,Ticks_ISO_T2_8,192,5,42,127,729652896
267,9,Ticks_ISO_T2_8,193,1,48,59,729675840
267,9,Ticks_ISO_T2_8,194,5,42,127,730453528
267,9,Ticks_ISO_T2_8,195,1,48,51,730482400
267,9,Ticks_ISO_T2_8,196,1,48,45,731201236
267,9,Ticks_ISO_T2_8,197,5,42,127,731253132
267,9,Ticks_ISO_T2_8,198,1,48,49,732038696
267,9,Ticks_ISO_T2_8,199,5,42,127,732052864
267,9,Ticks_ISO_T2_8,200,5,42,127,732852680
267,9,Ticks_ISO_T2_8,201,1,48,48,732871732
267,9,Ticks_ISO_T2_8,202,1,48,39,733646684
267,9,Ticks_ISO_T2_8,203,5,42,127,733653452
267,9,Ticks_ISO_T2_8,204,1,48,38,734447020
267,9,Ticks_ISO_T2_8,205,5,42,127,734452960
267,9,Ticks_ISO_T2_8,206,5,42,127,735252776
267,9,Ticks_ISO_T2_8,207,1,48,47,735257540
267,9,Ticks_ISO_T2_8,208,5,42,127,736052584
267,9,Ticks_ISO_T2_8,209,1,48,47,736056220
267,9,Ticks_ISO_T2_8,210,1,48,48,736847712
267,9,Ticks_ISO_T2_8,211,5,42,127,736853504
267,9,Ticks_ISO_T2_8,212,1,48,46,737646952
267,9,Ticks_ISO_T2_8,213,5,42,127,737652964
267,9,Ticks_ISO_T2_8,214,1,48,46,738439280
267,9,Ticks_ISO_T2_8,215,5,42,127,738452848
267,9,Ticks_ISO_T2_8,216,1,48,44,739252664
267,9,Ticks_ISO_T2_8,217,5,42,127,739254224
267,9,Ticks_ISO_T2_8,218,5,42,127,740053368
267,9,Ticks_ISO_T2_8,219,1,48,44,740061872
267,9,Ticks_ISO_T2_8,220,1,48,45,740831672
267,9,Ticks_ISO_T2_8,221,5,42,127,740853244
267,9,Ticks_ISO_T2_8,222,5,42,127,741652984
267,9,Ticks_ISO_T2_8,223,1,48,43,741673160
267,9,Ticks_ISO_T2_8,224,1,48,47,742445720
267,9,Ticks_ISO_T2_8,225,5,42,127,742452488
267,9,Ticks_ISO_T2_8,226,5,42,127,743253276
267,9,Ticks_ISO_T2_8,227,1,48,50,743270536
267,9,Ticks_ISO_T2_8,228,5,42,127,744053032
267,9,Ticks_ISO_T2_8,229,1,48,47,744054000
267,9,Ticks_ISO_T2_8,230,1,48,45,744848764
267,9,Ticks_ISO_T2_8,231,5,42,127,744853132
267,9,Ticks_ISO_T2_8,232,5,42,127,745652572
267,9,Ticks_ISO_T2_8,233,1,48,46,745655692
267,9,Ticks_ISO_T2_8,234,5,42,127,746453280
267,9,Ticks_ISO_T2_8,235,1,48,49,746454468
267,9,Ticks_ISO_T2_8,0,9999,9999,9999,651250772
267,9,Ticks_ISO_T2_8,1,9999,9999,9999,652050524
267,9,Ticks_ISO_T2_8,2,9999,9999,9999,652850280
267,9,Ticks_ISO_T2_8,3,9999,9999,9999,653651008
267,9,Ticks_ISO_T2_8,4,9999,9999,9999,654450780
267,9,Ticks_ISO_T2_8,5,9999,9999,9999,655250516
267,9,Ticks_ISO_T2_8,6,9999,9999,9999,656050252
267,9,Ticks_ISO_T2_8,7,9999,9999,9999,656851036
267,9,Ticks_ISO_T2_8,8,9999,9999,9999,657650768
267,9,Ticks_ISO_T2_8,9,9999,9999,9999,658450500
267,9,Ticks_ISO_T2_8,10,9999,9999,9999,659250232
267,9,Ticks_ISO_T2_8,11,9999,9999,9999,660051016
267,9,Ticks_ISO_T2_8,12,9999,9999,9999,660850776
267,9,Ticks_ISO_T2_8,13,9999,9999,9999,661650508
267,9,Ticks_ISO_T2_8,14,9999,9999,9999,662450244
267,9,Ticks_ISO_T2_8,15,9999,9999,9999,663251024
267,9,Ticks_ISO_T2_8,16,9999,9999,9999,664050756
267,9,Ticks_ISO_T2_8,17,9999,9999,9999,664850492
267,9,Ticks_ISO_T2_8,18,9999,9999,9999,665650224
267,9,Ticks_ISO_T2_8,19,9999,9999,9999,666450996
267,9,Ticks_ISO_T2_8,20,9999,9999,9999,667250760
267,9,Ticks_ISO_T2_8,21,9999,9999,9999,668050496
267,9,Ticks_ISO_T2_8,22,9999,9999,9999,668850224
267,9,Ticks_ISO_T2_8,23,9999,9999,9999,669651000
267,9,Ticks_ISO_T2_8,24,9999,9999,9999,670450744
267,9,Ticks_ISO_T2_8,25,9999,9999,9999,671250544
267,9,Ticks_ISO_T2_8,26,9999,9999,9999,672050284
267,9,Ticks_ISO_T2_8,27,9999,9999,9999,672850992
267,9,Ticks_ISO_T2_8,28,9999,9999,9999,673650740
267,9,Ticks_ISO_T2_8,29,9999,9999,9999,674450548
267,9,Ticks_ISO_T2_8,30,9999,9999,9999,675250284
267,9,Ticks_ISO_T2_8,31,9999,9999,9999,676050992
267,9,Ticks_ISO_T2_8,32,9999,9999,9999,676850796
267,9,Ticks_ISO_T2_8,33,9999,9999,9999,677650528
267,9,Ticks_ISO_T2_8,34,9999,9999,9999,678450264
267,9,Ticks_ISO_T2_8,35,9999,9999,9999,679251052
267,9,Ticks_ISO_T2_8,36,9999,9999,9999,680050804
267,9,Ticks_ISO_T2_8,37,9999,9999,9999,680850536
267,9,Ticks_ISO_T2_8,38,9999,9999,9999,681650268
267,9,Ticks_ISO_T2_8,39,9999,9999,9999,682451056
267,9,Ticks_ISO_T2_8,40,9999,9999,9999,683250784
267,9,Ticks_ISO_T2_8,41,9999,9999,9999,684050516
267,9,Ticks_ISO_T2_8,42,9999,9999,9999,684850256
267,9,Ticks_ISO_T2_8,43,9999,9999,9999,685651032
267,9,Ticks_ISO_T2_8,44,9999,9999,9999,686450796
267,9,Ticks_ISO_T2_8,45,9999,9999,9999,687250524
267,9,Ticks_ISO_T2_8,46,9999,9999,9999,688050256
267,9,Ticks_ISO_T2_8,47,9999,9999,9999,688851044
267,9,Ticks_ISO_T2_8,48,9999,9999,9999,689650776
267,9,Ticks_ISO_T2_8,49,9999,9999,9999,690450504
267,9,Ticks_ISO_T2_8,50,9999,9999,9999,691250244
267,9,Ticks_ISO_T2_8,51,9999,9999,9999,692051024
267,9,Ticks_ISO_T2_8,52,9999,9999,9999,692850776
267,9,Ticks_ISO_T2_8,53,9999,9999,9999,693650508
267,9,Ticks_ISO_T2_8,54,9999,9999,9999,694450248
267,9,Ticks_ISO_T2_8,55,9999,9999,9999,695251024
267,9,Ticks_ISO_T2_8,56,9999,9999,9999,696050756
267,9,Ticks_ISO_T2_8,57,9999,9999,9999,696850492
267,9,Ticks_ISO_T2_8,58,9999,9999,9999,697650232
267,9,Ticks_ISO_T2_8,59,9999,9999,9999,698451012
267,9,Ticks_ISO_T2_8,60,9999,9999,9999,699250772
267,9,Ticks_ISO_T2_8,61,9999,9999,9999,700050496
267,9,Ticks_ISO_T2_8,62,9999,9999,9999,700850236
267,9,Ticks_ISO_T2_8,63,9999,9999,9999,701651016
267,9,Ticks_ISO_T2_8,64,9999,9999,9999,702450744
267,9,Ticks_ISO_T2_8,65,9999,9999,9999,703250480
267,9,Ticks_ISO_T2_8,66,9999,9999,9999,704050292
267,9,Ticks_ISO_T2_8,67,9999,9999,9999,704851000
267,9,Ticks_ISO_T2_8,68,9999,9999,9999,705650756
267,9,Ticks_ISO_T2_8,69,9999,9999,9999,706450488
267,9,Ticks_ISO_T2_8,70,9999,9999,9999,707250224
267,9,Ticks_ISO_T2_8,71,9999,9999,9999,708050996
267,9,Ticks_ISO_T2_8,72,9999,9999,9999,708850804
267,9,Ticks_ISO_T2_8,73,9999,9999,9999,709650536
267,9,Ticks_ISO_T2_8,74,9999,9999,9999,710450276
267,9,Ticks_ISO_T2_8,75,9999,9999,9999,711251056
267,9,Ticks_ISO_T2_8,76,9999,9999,9999,712050740
267,9,Ticks_ISO_T2_8,77,9999,9999,9999,712850544
267,9,Ticks_ISO_T2_8,78,9999,9999,9999,713650276
267,9,Ticks_ISO_T2_8,79,9999,9999,9999,714451056
267,9,Ticks_ISO_T2_8,80,9999,9999,9999,715250796
267,9,Ticks_ISO_T2_8,81,9999,9999,9999,716050524
267,9,Ticks_ISO_T2_8,82,9999,9999,9999,716850260
267,9,Ticks_ISO_T2_8,83,9999,9999,9999,717651048
267,9,Ticks_ISO_T2_8,84,9999,9999,9999,718450800
267,9,Ticks_ISO_T2_8,85,9999,9999,9999,719250532
267,9,Ticks_ISO_T2_8,86,9999,9999,9999,720050264
267,9,Ticks_ISO_T2_8,87,9999,9999,9999,720851044
267,9,Ticks_ISO_T2_8,88,9999,9999,9999,721650776
267,9,Ticks_ISO_T2_8,89,9999,9999,9999,722450516
267,9,Ticks_ISO_T2_8,90,9999,9999,9999,723250248
267,9,Ticks_ISO_T2_8,91,9999,9999,9999,724051024
267,9,Ticks_ISO_T2_8,92,9999,9999,9999,724850784
267,9,Ticks_ISO_T2_8,93,9999,9999,9999,725650516
267,9,Ticks_ISO_T2_8,94,9999,9999,9999,726450256
267,9,Ticks_ISO_T2_8,95,9999,9999,9999,727251032
267,9,Ticks_ISO_T2_8,96,9999,9999,9999,728050772
267,9,Ticks_ISO_T2_8,97,9999,9999,9999,728850504
267,9,Ticks_ISO_T2_8,98,9999,9999,9999,729650236
267,9,Ticks_ISO_T2_8,99,9999,9999,9999,730451016
267,9,Ticks_ISO_T2_8,100,9999,9999,9999,731250768
267,9,Ticks_ISO_T2_8,101,9999,9999,9999,732050500
267,9,Ticks_ISO_T2_8,102,9999,9999,9999,732850240
267,9,Ticks_ISO_T2_8,103,9999,9999,9999,733651016
267,9,Ticks_ISO_T2_8,104,9999,9999,9999,734450748
267,9,Ticks_ISO_T2_8,105,9999,9999,9999,735250488
267,9,Ticks_ISO_T2_8,106,9999,9999,9999,736050296
267,9,Ticks_ISO_T2_8,107,9999,9999,9999,736850996
267,9,Ticks_ISO_T2_8,108,9999,9999,9999,737650752
267,9,Ticks_ISO_T2_8,109,9999,9999,9999,738450484
267,9,Ticks_ISO_T2_8,110,9999,9999,9999,739250228
267,9,Ticks_ISO_T2_8,111,9999,9999,9999,740051008
267,9,Ticks_ISO_T2_8,112,9999,9999,9999,740850736
267,9,Ticks_ISO_T2_8,113,9999,9999,9999,741650548
267,9,Ticks_ISO_T2_8,114,9999,9999,9999,742450276
267,9,Ticks_ISO_T2_8,115,9999,9999,9999,743251064
267,9,Ticks_ISO_T2_8,116,9999,9999,9999,744050744
267,9,Ticks_ISO_T2_8,117,9999,9999,9999,744850548
267,9,Ticks_ISO_T2_8,118,9999,9999,9999,745650284
267,9,Ticks_ISO_T2_8,119,9999,9999,9999,746450992
268,10,Ticks_ISO_T2_5,0,5,42,127,758994444
268,10,Ticks_ISO_T2_5,1,5,42,127,759493940
268,10,Ticks_ISO_T2_5,2,5,42,127,759993656
268,10,Ticks_ISO_T2_5,3,5,42,127,760493372
268,10,Ticks_ISO_T2_5,4,5,42,127,760994136
268,10,Ticks_ISO_T2_5,5,1,48,54,761027396
268,10,Ticks_ISO_T2_5,6,5,42,127,761493756
268,10,Ticks_ISO_T2_5,7,1,48,46,761516016
268,10,Ticks_ISO_T2_5,8,1,48,38,761990420
268,10,Ticks_ISO_T2_5,9,5,42,127,761993520
268,10,Ticks_ISO_T2_5,10,5,42,127,762494268
268,10,Ticks_ISO_T2_5,11,1,48,28,762512120
268,10,Ticks_ISO_T2_5,12,5,42,127,762994184
268,10,Ticks_ISO_T2_5,13,1,48,32,763011444
268,10,Ticks_ISO_T2_5,14,5,42,127,763493632
268,10,Ticks_ISO_T2_5,15,1,48,33,763506804
268,10,Ticks_ISO_T2_5,16,5,42,127,763993552
268,10,Ticks_ISO_T2_5,17,1,48,43,764010356
268,10,Ticks_ISO_T2_5,18,5,42,127,764494192
268,10,Ticks_ISO_T2_5,19,1,48,46,764495160
268,10,Ticks_ISO_T2_5,20,5,42,127,764994112
268,10,Ticks_ISO_T2_5,21,1,48,43,765003440
268,10,Ticks_ISO_T2_5,22,5,42,127,765493508
268,10,Ticks_ISO_T2_5,23,1,48,40,765501940
268,10,Ticks_ISO_T2_5,24,5,42,127,765994324
268,10,Ticks_ISO_T2_5,25,1,48,35,766011732
268,10,Ticks_ISO_T2_5,26,1,48,37,766491664
268,10,Ticks_ISO_T2_5,27,5,42,127,766494312
268,10,Ticks_ISO_T2_5,28,1,48,37,766988064
268,10,Ticks_ISO_T2_5,29,5,42,127,766993856
268,10,Ticks_ISO_T2_5,30,5,42,127,767493408
268,10,Ticks_ISO_T2_5,31,1,48,36,767508576
268,10,Ticks_ISO_T2_5,32,5,42,127,767994224
268,10,Ticks_ISO_T2_5,33,1,48,47,768007520
268,10,Ticks_ISO_T2_5,34,5,42,127,768493996
268,10,Ticks_ISO_T2_5,35,1,48,49,768527784
268,10,Ticks_ISO_T2_5,36,5,42,127,768993616
268,10,Ticks_ISO_T2_5,37,1,48,39,769009452
268,10,Ticks_ISO_T2_5,38,5,42,127,769494432
268,10,Ticks_ISO_T2_5,39,1,48,44,769507580
268,10,Ticks_ISO_T2_5,40,5,42,127,769994052
268,10,Ticks_ISO_T2_5,41,1,48,46,770015500
268,10,Ticks_ISO_T2_5,42,1,48,45,770485176
268,10,Ticks_ISO_T2_5,43,5,42,127,770493816
268,10,Ticks_ISO_T2_5,44,1,48,42,770984724
268,10,Ticks_ISO_T2_5,45,5,42,127,770993364
268,10,Ticks_ISO_T2_5,46,1,48,46,771486896
268,10,Ticks_ISO_T2_5,47,5,42,127,771494104
268,10,Ticks_ISO_T2_5,48,5,42,127,771993956
268,10,Ticks_ISO_T2_5,49,1,48,49,771999844
268,10,Ticks_ISO_T2_5,50,5,42,127,772493872
268,10,Ticks_ISO_T2_5,51,1,48,46,772506868
268,10,Ticks_ISO_T2_5,52,1,48,46,772991656
268,10,Ticks_ISO_T2_5,53,5,42,127,772994312
268,10,Ticks_ISO_T2_5,54,5,42,127,773494088
268,10,Ticks_ISO_T2_5,55,1,48,48,773501692
268,10,Ticks_ISO_T2_5,56,5,42,127,773993756
268,10,Ticks_ISO_T2_5,57,1,48,44,774008544
268,10,Ticks_ISO_T2_5,58,5,42,127,774493652
268,10,Ticks_ISO_T2_5,59,1,48,40,774499912
268,10,Ticks_ISO_T2_5,60,1,48,41,774987100
268,10,Ticks_ISO_T2_5,61,5,42,127,774994160
268,10,Ticks_ISO_T2_5,62,1,48,45,775487164
268,10,Ticks_ISO_T2_5,63,5,42,127,775493856
268,10,Ticks_ISO_T2_5,64,1,48,39,775984012
268,10,Ticks_ISO_T2_5,65,5,42,127,775993848
268,10,Ticks_ISO_T2_5,66,1,48,42,776474136
268,10,Ticks_ISO_T2_5,67,5,42,127,776493392
268,10,Ticks_ISO_T2_5,68,1,48,44,776963436
268,10,Ticks_ISO_T2_5,69,5,42,127,776994060
268,10,Ticks_ISO_T2_5,70,1,48,45,777493540
268,10,Ticks_ISO_T2_5,71,5,42,127,777495248
268,10,Ticks_ISO_T2_5,72,5,42,127,777993532
268,10,Ticks_ISO_T2_5,73,1,48,44,777995468
268,10,Ticks_ISO_T2_5,74,1,48,45,778479724
268,10,Ticks_ISO_T2_5,75,5,42,127,778494340
268,10,Ticks_ISO_T2_5,76,1,48,41,778987944
268,10,Ticks_ISO_T2_5,77,5,42,127,778993884
268,10,Ticks_ISO_T2_5,78,1,48,38,779484940
268,10,Ticks_ISO_T2_5,79,5,42,127,779493728
268,10,Ticks_ISO_T2_5,80,1,48,42,779957640
268,10,Ticks_ISO_T2_5,81,5,42,127,779993572
268,10,Ticks_ISO_T2_5,82,1,48,53,780494396
268,10,Ticks_ISO_T2_5,83,5,42,127,780495888
268,10,Ticks_ISO_T2_5,84,5,42,127,780993868
268,10,Ticks_ISO_T2_5,85,1,48,51,781008360
268,10,Ticks_ISO_T2_5,86,5,42,127,781493560
268,10,Ticks_ISO_T2_5,87,1,48,48,781499972
268,10,Ticks_ISO_T2_5,88,1,48,44,781994600
268,10,Ticks_ISO_T2_5,89,5,42,127,781996092
268,10,Ticks_ISO_T2_5,90,5,42,127,782494000
268,10,Ticks_ISO_T2_5,91,1,48,48,782496740
268,10,Ticks_ISO_T2_5,92,5,42,127,782993768
268,10,Ticks_ISO_T2_5,93,1,48,44,783003844
268,10,Ticks_ISO_T2_5,94,1,48,47,783467548
268,10,Ticks_ISO_T2_5,95,5,42,127,783493456
268,10,Ticks_ISO_T2_5,96,5,42,127,783994500
268,10,Ticks_ISO_T2_5,97,1,48,33,784016020
268,10,Ticks_ISO_T2_5,98,5,42,127,784493972
268,10,Ticks_ISO_T2_5,99,1,48,38,784505244
268,10,Ticks_ISO_T2_5,100,1,48,41,784978940
268,10,Ticks_ISO_T2_5,101,5,42,127,784993712
268,10,Ticks_ISO_T2_5,102,5,42,127,785494460
268,10,Ticks_ISO_T2_5,103,1,48,38,785500796
268,10,Ticks_ISO_T2_5,104,1,48,38,785994228
268,10,Ticks_ISO_T2_5,105,5,42,127,785995792
268,10,Ticks_ISO_T2_5,106,5,42,127,786493700
268,10,Ticks_ISO_T2_5,107,1,48,32,786501456
268,10,Ticks_ISO_T2_5,108,1,48,43,786984452
268,10,Ticks_ISO_T2_5,109,5,42,127,786993536
268,10,Ticks_ISO_T2_5,110,1,48,21,787481608
268,10,Ticks_ISO_T2_5,111,5,42,127,787494352
268,10,Ticks_ISO_T2_5,112,1,48,36,787978532
268,10,Ticks_ISO_T2_5,113,5,42,127,787994048
268,10,Ticks_ISO_T2_5,114,5,42,127,788493748
268,10,Ticks_ISO_T2_5,115,1,48,34,788496340
268,10,Ticks_ISO_T2_5,116,1,48,37,788989736
268,10,Ticks_ISO_T2_5,117,5,42,127,788994484
268,10,Ticks_ISO_T2_5,118,1,48,45,789470956
268,10,Ticks_ISO_T2_5,119,5,42,127,789494104
268,10,Ticks_ISO_T2_5,120,5,42,127,789994028
268,10,Ticks_ISO_T2_5,121,1,48,38,789998728
268,10,Ticks_ISO_T2_5,122,5,42,127,790493432
268,10,Ticks_ISO_T2_5,123,1,48,38,790509116
268,10,Ticks_ISO_T2_5,124,1,48,38,790979624
268,10,Ticks_ISO_T2_5,125,5,42,127,790994240
268,10,Ticks_ISO_T2_5,126,1,48,30,791490984
268,10,Ticks_ISO_T2_5,127,5,42,127,791494232
268,10,Ticks_ISO_T2_5,128,1,48,24,791993488
268,10,Ticks_ISO_T2_5,129,5,42,127,791995268
268,10,Ticks_ISO_T2_5,130,5,42,127,792493404
268,10,Ticks_ISO_T2_5,131,1,48,37,792494444
268,10,Ticks_ISO_T2_5,132,1,48,39,792992180
268,10,Ticks_ISO_T2_5,133,5,42,127,792994064
268,10,Ticks_ISO_T2_5,134,1,48,41,793469788
268,10,Ticks_ISO_T2_5,135,5,42,127,793493984
268,10,Ticks_ISO_T2_5,136,1,48,40,793980704
268,10,Ticks_ISO_T2_5,137,5,42,127,793993528
268,10,Ticks_ISO_T2_5,138,1,48,43,794475616
268,10,Ticks_ISO_T2_5,139,5,42,127,794494196
268,10,Ticks_ISO_T2_5,140,1,48,40,794985252
268,10,Ticks_ISO_T2_5,141,5,42,127,794993968
268,10,Ticks_ISO_T2_5,142,1,48,36,795468544
268,10,Ticks_ISO_T2_5,143,5,42,127,795493784
268,10,Ticks_ISO_T2_5,144,1,48,39,795984692
268,10,Ticks_ISO_T2_5,145,5,42,127,795993332
268,10,Ticks_ISO_T2_5,146,5,42,127,796494152
268,10,Ticks_ISO_T2_5,147,1,48,28,796503852
268,10,Ticks_ISO_T2_5,148,5,42,127,796993924
268,10,Ticks_ISO_T2_5,149,1,48,35,797005640
268,10,Ticks_ISO_T2_5,150,1,48,38,797471436
268,10,Ticks_ISO_T2_5,151,5,42,127,797493836
268,10,Ticks_ISO_T2_5,152,1,48,29,797961488
268,10,Ticks_ISO_T2_5,153,5,42,127,797994352
268,10,Ticks_ISO_T2_5,154,1,48,35,798462452
268,10,Ticks_ISO_T2_5,155,5,42,127,798493976
268,10,Ticks_ISO_T2_5,156,1,48,44,798968504
268,10,Ticks_ISO_T2_5,157,5,42,127,798993892
268,10,Ticks_ISO_T2_5,158,1,48,48,799475832
268,10,Ticks_ISO_T2_5,159,5,42,127,799493588
268,10,Ticks_ISO_T2_5,160,5,42,127,799994188
268,10,Ticks_ISO_T2_5,161,1,48,41,800015856
268,10,Ticks_ISO_T2_5,162,1,48,40,800488984
268,10,Ticks_ISO_T2_5,163,5,42,127,800493804
268,10,Ticks_ISO_T2_5,164,5,42,127,800993728
268,10,Ticks_ISO_T2_5,165,1,48,40,801000664
268,10,Ticks_ISO_T2_5,166,1,48,41,801483432
268,10,Ticks_ISO_T2_5,167,5,42,127,801494460
268,10,Ticks_ISO_T2_5,168,5,42,127,801994164
268,10,Ticks_ISO_T2_5,169,1,48,34,802016284
268,10,Ticks_ISO_T2_5,170,5,42,127,802493708
268,10,Ticks_ISO_T2_5,171,1,48,37,802524652
268,10,Ticks_ISO_T2_5,172,5,42,127,802993552
268,10,Ticks_ISO_T2_5,173,1,48,39,803001460
268,10,Ticks_ISO_T2_5,174,1,48,48,803483480
268,10,Ticks_ISO_T2_5,175,5,42,127,803494212
268,10,Ticks_ISO_T2_5,176,5,42,127,803993916
268,10,Ticks_ISO_T2_5,177,1,48,45,803998908
268,10,Ticks_ISO_T2_5,178,5,42,127,804493684
268,10,Ticks_ISO_T2_5,179,1,48,40,804510796
268,10,Ticks_ISO_T2_5,180,1,48,33,804962504
268,10,Ticks_ISO_T2_5,181,5,42,127,804994496
268,10,Ticks_ISO_T2_5,182,1,48,37,805477976
268,10,Ticks_ISO_T2_5,183,5,42,127,805494188
268,10,Ticks_ISO_T2_5,184,1,48,38,805976100
268,10,Ticks_ISO_T2_5,185,5,42,127,805993808
268,10,Ticks_ISO_T2_5,186,1,48,31,806470036
268,10,Ticks_ISO_T2_5,187,5,42,127,806493628
268,10,Ticks_ISO_T2_5,188,1,48,20,806972120
268,10,Ticks_ISO_T2_5,189,1,38,11,806984220
268,10,Ticks_ISO_T2_5,190,5,42,127,806994500
268,10,Ticks_ISO_T2_5,191,1,48,30,807477080
268,10,Ticks_ISO_T2_5,192,5,42,127,807493872
268,10,Ticks_ISO_T2_5,193,1,48,50,807988968
268,10,Ticks_ISO_T2_5,194,5,42,127,807993712
268,10,Ticks_ISO_T2_5,195,1,48,46,808490756
268,10,Ticks_ISO_T2_5,196,5,42,127,808493408
268,10,Ticks_ISO_T2_5,197,5,42,127,808994384
268,10,Ticks_ISO_T2_5,198,1,48,41,809018000
268,10,Ticks_ISO_T2_5,199,1,48,46,809487460
268,10,Ticks_ISO_T2_5,200,5,42,127,809493844
268,10,Ticks_ISO_T2_5,201,1,48,49,809968300
268,10,Ticks_ISO_T2_5,202,5,42,127,809993544
268,10,Ticks_ISO_T2_5,203,1,48,49,810465152
268,10,Ticks_ISO_T2_5,204,5,42,127,810494356
268,10,Ticks_ISO_T2_5,205,1,48,52,810969932
268,10,Ticks_ISO_T2_5,206,5,42,127,810994052
268,10,Ticks_ISO_T2_5,207,1,48,49,811478756
268,10,Ticks_ISO_T2_5,208,5,42,127,811493748
268,10,Ticks_ISO_T2_5,209,1,48,48,811959828
268,10,Ticks_ISO_T2_5,210,5,42,127,811993444
268,10,Ticks_ISO_T2_5,211,1,48,50,812494636
268,10,Ticks_ISO_T2_5,212,5,42,127,812495980
268,10,Ticks_ISO_T2_5,213,5,42,127,812994036
268,10,Ticks_ISO_T2_5,214,1,48,53,812996860
268,10,Ticks_ISO_T2_5,215,1,48,51,813475888
268,10,Ticks_ISO_T2_5,216,5,42,127,813493500
268,10,Ticks_ISO_T2_5,217,5,42,127,813994396
268,10,Ticks_ISO_T2_5,218,1,48,52,814000212
268,10,Ticks_ISO_T2_5,219,5,42,127,814493944
268,10,Ticks_ISO_T2_5,220,1,48,54,814505364
268,10,Ticks_ISO_T2_5,221,5,42,127,814993712
268,10,Ticks_ISO_T2_5,222,1,48,50,815000196
268,10,Ticks_ISO_T2_5,223,5,42,127,815493480
268,10,Ticks_ISO_T2_5,224,1,48,52,815500788
268,10,Ticks_ISO_T2_5,225,1,48,53,815989772
268,10,Ticks_ISO_T2_5,226,5,42,127,815994364
268,10,Ticks_ISO_T2_5,227,1,48,51,816462732
268,10,Ticks_ISO_T2_5,228,5,42,127,816494132
268,10,Ticks_ISO_T2_5,229,1,48,55,816972452
268,10,Ticks_ISO_T2_5,230,5,42,127,816993656
268,10,Ticks_ISO_T2_5,231,1,48,50,817477836
268,10,Ticks_ISO_T2_5,232,5,42,127,817494248
268,10,Ticks_ISO_T2_5,233,1,48,50,817972668
268,10,Ticks_ISO_T2_5,234,5,42,127,817994020
268,10,Ticks_ISO_T2_5,235,1,48,51,818473856
268,10,Ticks_ISO_T2_5,236,5,42,127,818493936
268,10,Ticks_ISO_T2_5,237,1,48,49,818966440
268,10,Ticks_ISO_T2_5,238,5,42,127,818993408
268,10,Ticks_ISO_T2_5,239,1,48,50,819478932
268,10,Ticks_ISO_T2_5,240,5,42,127,819494296
268,10,Ticks_ISO_T2_5,241,1,48,53,819991804
268,10,Ticks_ISO_T2_5,242,5,42,127,819993916
268,10,Ticks_ISO_T2_5,243,1,48,51,820488644
268,10,Ticks_ISO_T2_5,244,5,42,127,820493836
268,10,Ticks_ISO_T2_5,245,1,48,48,820981752
268,10,Ticks_ISO_T2_5,246,5,42,127,820994280
268,10,Ticks_ISO_T2_5,247,1,48,48,821481444
268,10,Ticks_ISO_T2_5,248,5,42,127,821494196
268,10,Ticks_ISO_T2_5,249,1,48,53,821968280
268,10,Ticks_ISO_T2_5,250,5,42,127,821993744
268,10,Ticks_ISO_T2_5,251,1,48,52,822483012
268,10,Ticks_ISO_T2_5,252,5,42,127,822493812
268,10,Ticks_ISO_T2_5,253,1,48,51,822988536
268,10,Ticks_ISO_T2_5,254,5,42,127,822994400
268,10,Ticks_ISO_T2_5,255,5,42,127,823493880
268,10,Ticks_ISO_T2_5,256,1,48,55,823496852
268,10,Ticks_ISO_T2_5,0,9999,9999,9999,758991936
268,10,Ticks_ISO_T2_5,1,9999,9999,9999,759491652
268,10,Ticks_ISO_T2_5,2,9999,9999,9999,759991368
268,10,Ticks_ISO_T2_5,3,9999,9999,9999,760491084
268,10,Ticks_ISO_T2_5,4,9999,9999,9999,760991848
268,10,Ticks_ISO_T2_5,5,9999,9999,9999,761491544
268,10,Ticks_ISO_T2_5,6,9999,9999,9999,761991232
268,10,Ticks_ISO_T2_5,7,9999,9999,9999,762491980
268,10,Ticks_ISO_T2_5,8,9999,9999,9999,762991676
268,10,Ticks_ISO_T2_5,9,9999,9999,9999,763491420
268,10,Ticks_ISO_T2_5,10,9999,9999,9999,763991116
268,10,Ticks_ISO_T2_5,11,9999,9999,9999,764491832
268,10,Ticks_ISO_T2_5,12,9999,9999,9999,764991604
268,10,Ticks_ISO_T2_5,13,9999,9999,9999,765491296
268,10,Ticks_ISO_T2_5,14,9999,9999,9999,765992040
268,10,Ticks_ISO_T2_5,15,9999,9999,9999,766491728
268,10,Ticks_ISO_T2_5,16,9999,9999,9999,766991420
268,10,Ticks_ISO_T2_5,17,9999,9999,9999,767491124
268,10,Ticks_ISO_T2_5,18,9999,9999,9999,767991864
268,10,Ticks_ISO_T2_5,19,9999,9999,9999,768491636
268,10,Ticks_ISO_T2_5,20,9999,9999,9999,768991332
268,10,Ticks_ISO_T2_5,21,9999,9999,9999,769492072
268,10,Ticks_ISO_T2_5,22,9999,9999,9999,769991768
268,10,Ticks_ISO_T2_5,23,9999,9999,9999,770491456
268,10,Ticks_ISO_T2_5,24,9999,9999,9999,770991152
268,10,Ticks_ISO_T2_5,25,9999,9999,9999,771491892
268,10,Ticks_ISO_T2_5,26,9999,9999,9999,771991668
268,10,Ticks_ISO_T2_5,27,9999,9999,9999,772491364
268,10,Ticks_ISO_T2_5,28,9999,9999,9999,772992096
268,10,Ticks_ISO_T2_5,29,9999,9999,9999,773491800
268,10,Ticks_ISO_T2_5,30,9999,9999,9999,773991544
268,10,Ticks_ISO_T2_5,31,9999,9999,9999,774491216
268,10,Ticks_ISO_T2_5,32,9999,9999,9999,774991948
268,10,Ticks_ISO_T2_5,33,9999,9999,9999,775491644
268,10,Ticks_ISO_T2_5,34,9999,9999,9999,775991412
268,10,Ticks_ISO_T2_5,35,9999,9999,9999,776491108
268,10,Ticks_ISO_T2_5,36,9999,9999,9999,776991848
268,10,Ticks_ISO_T2_5,37,9999,9999,9999,777491552
268,10,Ticks_ISO_T2_5,38,9999,9999,9999,777991244
268,10,Ticks_ISO_T2_5,39,9999,9999,9999,778491980
268,10,Ticks_ISO_T2_5,40,9999,9999,9999,778991672
268,10,Ticks_ISO_T2_5,41,9999,9999,9999,779491444
268,10,Ticks_ISO_T2_5,42,9999,9999,9999,779991136
268,10,Ticks_ISO_T2_5,43,9999,9999,9999,780491888
268,10,Ticks_ISO_T2_5,44,9999,9999,9999,780991580
268,10,Ticks_ISO_T2_5,45,9999,9999,9999,781491276
268,10,Ticks_ISO_T2_5,46,9999,9999,9999,781992016
268,10,Ticks_ISO_T2_5,47,9999,9999,9999,782491712
268,10,Ticks_ISO_T2_5,48,9999,9999,9999,782991480
268,10,Ticks_ISO_T2_5,49,9999,9999,9999,783491172
268,10,Ticks_ISO_T2_5,50,9999,9999,9999,783991916
268,10,Ticks_ISO_T2_5,51,9999,9999,9999,784491612
268,10,Ticks_ISO_T2_5,52,9999,9999,9999,784991352
268,10,Ticks_ISO_T2_5,53,9999,9999,9999,785492024
268,10,Ticks_ISO_T2_5,54,9999,9999,9999,785991792
268,10,Ticks_ISO_T2_5,55,9999,9999,9999,786491488
268,10,Ticks_ISO_T2_5,56,9999,9999,9999,786991176
268,10,Ticks_ISO_T2_5,57,9999,9999,9999,787491920
268,10,Ticks_ISO_T2_5,58,9999,9999,9999,787991612
268,10,Ticks_ISO_T2_5,59,9999,9999,9999,788491312
268,10,Ticks_ISO_T2_5,60,9999,9999,9999,788992048
268,10,Ticks_ISO_T2_5,61,9999,9999,9999,789491816
268,10,Ticks_ISO_T2_5,62,9999,9999,9999,789991520
268,10,Ticks_ISO_T2_5,63,9999,9999,9999,790491216
268,10,Ticks_ISO_T2_5,64,9999,9999,9999,790991952
268,10,Ticks_ISO_T2_5,65,9999,9999,9999,791491648
268,10,Ticks_ISO_T2_5,66,9999,9999,9999,791991348
268,10,Ticks_ISO_T2_5,67,9999,9999,9999,792491120
268,10,Ticks_ISO_T2_5,68,9999,9999,9999,792991808
268,10,Ticks_ISO_T2_5,69,9999,9999,9999,793491548
268,10,Ticks_ISO_T2_5,70,9999,9999,9999,793991244
268,10,Ticks_ISO_T2_5,71,9999,9999,9999,794491984
268,10,Ticks_ISO_T2_5,72,9999,9999,9999,794991680
268,10,Ticks_ISO_T2_5,73,9999,9999,9999,795491424
268,10,Ticks_ISO_T2_5,74,9999,9999,9999,795991120
268,10,Ticks_ISO_T2_5,75,9999,9999,9999,796491868
268,10,Ticks_ISO_T2_5,76,9999,9999,9999,796991560
268,10,Ticks_ISO_T2_5,77,9999,9999,9999,797491252
268,10,Ticks_ISO_T2_5,78,9999,9999,9999,797991992
268,10,Ticks_ISO_T2_5,79,9999,9999,9999,798491764
268,10,Ticks_ISO_T2_5,80,9999,9999,9999,798991460
268,10,Ticks_ISO_T2_5,81,9999,9999,9999,799491156
268,10,Ticks_ISO_T2_5,82,9999,9999,9999,799991900
268,10,Ticks_ISO_T2_5,83,9999,9999,9999,800491592
268,10,Ticks_ISO_T2_5,84,9999,9999,9999,800991292
268,10,Ticks_ISO_T2_5,85,9999,9999,9999,801492028
268,10,Ticks_ISO_T2_5,86,9999,9999,9999,801991728
268,10,Ticks_ISO_T2_5,87,9999,9999,9999,802491496
268,10,Ticks_ISO_T2_5,88,9999,9999,9999,802991192
268,10,Ticks_ISO_T2_5,89,9999,9999,9999,803491928
268,10,Ticks_ISO_T2_5,90,9999,9999,9999,803991628
268,10,Ticks_ISO_T2_5,91,9999,9999,9999,804491324
268,10,Ticks_ISO_T2_5,92,9999,9999,9999,804992060
268,10,Ticks_ISO_T2_5,93,9999,9999,9999,805491828
268,10,Ticks_ISO_T2_5,94,9999,9999,9999,805991524
268,10,Ticks_ISO_T2_5,95,9999,9999,9999,806491196
268,10,Ticks_ISO_T2_5,96,9999,9999,9999,806991992
268,10,Ticks_ISO_T2_5,97,9999,9999,9999,807491660
268,10,Ticks_ISO_T2_5,98,9999,9999,9999,807991352
268,10,Ticks_ISO_T2_5,99,9999,9999,9999,808491124
268,10,Ticks_ISO_T2_5,100,9999,9999,9999,808991796
268,10,Ticks_ISO_T2_5,101,9999,9999,9999,809491560
268,10,Ticks_ISO_T2_5,102,9999,9999,9999,809991256
268,10,Ticks_ISO_T2_5,103,9999,9999,9999,810491996
268,10,Ticks_ISO_T2_5,104,9999,9999,9999,810991692
268,10,Ticks_ISO_T2_5,105,9999,9999,9999,811491388
268,10,Ticks_ISO_T2_5,106,9999,9999,9999,811991156
268,10,Ticks_ISO_T2_5,107,9999,9999,9999,812491832
268,10,Ticks_ISO_T2_5,108,9999,9999,9999,812991600
268,10,Ticks_ISO_T2_5,109,9999,9999,9999,813491288
268,10,Ticks_ISO_T2_5,110,9999,9999,9999,813992036
268,10,Ticks_ISO_T2_5,111,9999,9999,9999,814491732
268,10,Ticks_ISO_T2_5,112,9999,9999,9999,814991424
268,10,Ticks_ISO_T2_5,113,9999,9999,9999,815491192
268,10,Ticks_ISO_T2_5,114,9999,9999,9999,815991928
268,10,Ticks_ISO_T2_5,115,9999,9999,9999,816491620
268,10,Ticks_ISO_T2_5,116,9999,9999,9999,816991292
268,10,Ticks_ISO_T2_5,117,9999,9999,9999,817492036
268,10,Ticks_ISO_T2_5,118,9999,9999,9999,817991732
268,10,Ticks_ISO_T2_5,119,9999,9999,9999,818491500
268,10,Ticks_ISO_T2_5,120,9999,9999,9999,818991196
268,10,Ticks_ISO_T2_5,121,9999,9999,9999,819491936
268,10,Ticks_ISO_T2_5,122,9999,9999,9999,819991668
268,10,Ticks_ISO_T2_5,123,9999,9999,9999,820491328
268,10,Ticks_ISO_T2_5,124,9999,9999,9999,820992068
268,10,Ticks_ISO_T2_5,125,9999,9999,9999,821491764
268,10,Ticks_ISO_T2_5,126,9999,9999,9999,821991532
268,10,Ticks_ISO_T2_5,127,9999,9999,9999,822491228
268,10,Ticks_ISO_T2_5,128,9999,9999,9999,822991968
268,10,Ticks_ISO_T2_5,129,9999,9999,9999,823491668
269,20,Ticks_Linear_8,0,5,42,127,838613268
269,20,Ticks_Linear_8,1,5,42,127,839432560
269,20,Ticks_Linear_8,2,5,42,127,840252896
269,20,Ticks_Linear_8,3,5,42,127,841072964
269,20,Ticks_Linear_8,4,5,42,127,841893224
269,20,Ticks_Linear_8,5,1,48,48,841898960
269,20,Ticks_Linear_8,6,5,42,127,842703136
269,20,Ticks_Linear_8,7,1,48,48,842726244
269,20,Ticks_Linear_8,8,5,42,127,843513192
269,20,Ticks_Linear_8,9,1,48,48,843524924
269,20,Ticks_Linear_8,10,1,48,48,844318552
269,20,Ticks_Linear_8,11,5,42,127,844323316
269,20,Ticks_Linear_8,12,1,48,48,845131112
269,20,Ticks_Linear_8,13,5,42,127,845133080
269,20,Ticks_Linear_8,14,5,42,127,845943020
269,20,Ticks_Linear_8,15,1,48,50,845953404
269,20,Ticks_Linear_8,16,5,42,127,846742892
269,20,Ticks_Linear_8,17,1,48,45,846773124
269,20,Ticks_Linear_8,18,5,42,127,847542616
269,20,Ticks_Linear_8,19,1,48,23,847545808
269,20,Ticks_Linear_8,20,1,38,11,847557848
269,20,Ticks_Linear_8,21,1,48,54,848313188
269,20,Ticks_Linear_8,22,5,42,127,848343556
269,20,Ticks_Linear_8,23,5,42,127,849143136
269,20,Ticks_Linear_8,24,1,48,57,849173368
269,20,Ticks_Linear_8,25,5,42,127,849942788
269,20,Ticks_Linear_8,26,1,48,54,849966500
269,20,Ticks_Linear_8,27,5,42,127,850733672
269,20,Ticks_Linear_8,28,1,48,57,850742640
269,20,Ticks_Linear_8,29,1,48,59,851529372
269,20,Ticks_Linear_8,30,5,42,127,851533164
269,20,Ticks_Linear_8,31,5,42,127,852322784
269,20,Ticks_Linear_8,32,1,48,57,852379616
269,20,Ticks_Linear_8,33,5,42,127,853113396
269,20,Ticks_Linear_8,34,1,48,54,853114808
269,20,Ticks_Linear_8,35,5,42,127,853902640
269,20,Ticks_Linear_8,36,1,48,54,853908372
269,20,Ticks_Linear_8,37,5,42,127,854682892
269,20,Ticks_Linear_8,38,1,48,58,854689672
269,20,Ticks_Linear_8,39,5,42,127,855463516
269,20,Ticks_Linear_8,40,1,48,55,855491576
269,20,Ticks_Linear_8,41,5,42,127,856242500
269,20,Ticks_Linear_8,42,1,48,53,856244208
269,20,Ticks_Linear_8,43,5,42,127,857023124
269,20,Ticks_Linear_8,44,1,48,50,857034184
269,20,Ticks_Linear_8,45,5,42,127,857803152
269,20,Ticks_Linear_8,46,1,48,53,857805672
269,20,Ticks_Linear_8,47,5,42,127,858573372
269,20,Ticks_Linear_8,48,1,48,51,858592448
269,20,Ticks_Linear_8,49,5,42,127,859343216
269,20,Ticks_Linear_8,50,1,48,51,859378160
269,20,Ticks_Linear_8,51,5,42,127,860113360
269,20,Ticks_Linear_8,52,1,48,58,860132960
269,20,Ticks_Linear_8,53,5,42,127,860883276
269,20,Ticks_Linear_8,54,1,48,56,860897408
269,20,Ticks_Linear_8,55,5,42,127,861653272
269,20,Ticks_Linear_8,56,1,48,54,861676308
269,20,Ticks_Linear_8,57,5,42,127,862413304
269,20,Ticks_Linear_8,58,1,48,59,862443456
269,20,Ticks_Linear_8,59,5,42,127,863172964
269,20,Ticks_Linear_8,60,1,48,57,863190468
269,20,Ticks_Linear_8,61,5,42,127,863933068
269,20,Ticks_Linear_8,62,1,48,54,863935592
269,20,Ticks_Linear_8,63,1,48,59,864686244
269,20,Ticks_Linear_8,64,5,42,127,864692724
269,20,Ticks_Linear_8,65,1,48,60,865429868
269,20,Ticks_Linear_8,66,5,42,127,865453576
269,20,Ticks_Linear_8,67,1,48,51,866207880
269,20,Ticks_Linear_8,68,5,42,127,866213240
269,20,Ticks_Linear_8,69,5,42,127,866962796
269,20,Ticks_Linear_8,70,1,48,57,866996768
269,20,Ticks_Linear_8,71,5,42,127,867713540
269,20,Ticks_Linear_8,72,1,48,53,867740936
269,20,Ticks_Linear_8,73,1,48,53,868459820
269,20,Ticks_Linear_8,74,5,42,127,868462936
269,20,Ticks_Linear_8,75,5,42,127,869212692
269,20,Ticks_Linear_8,76,1,48,55,869213660
269,20,Ticks_Linear_8,77,5,42,127,869952956
269,20,Ticks_Linear_8,78,1,48,56,869999380
269,20,Ticks_Linear_8,79,5,42,127,870693292
269,20,Ticks_Linear_8,80,1,48,57,870718580
269,20,Ticks_Linear_8,81,5,42,127,871432732
269,20,Ticks_Linear_8,82,1,48,59,871469768
269,20,Ticks_Linear_8,83,5,42,127,872172996
269,20,Ticks_Linear_8,84,1,48,57,872196932
269,20,Ticks_Linear_8,85,1,48,53,872907364
269,20,Ticks_Linear_8,86,5,42,127,872913400
269,20,Ticks_Linear_8,87,5,42,127,873643556
269,20,Ticks_Linear_8,88,1,48,57,873653648
269,20,Ticks_Linear_8,89,5,42,127,874372368
269,20,Ticks_Linear_8,90,1,48,57,874413232
269,20,Ticks_Linear_8,91,1,48,56,875096752
269,20,Ticks_Linear_8,92,5,42,127,875102564
269,20,Ticks_Linear_8,93,1,48,50,875823540
269,20,Ticks_Linear_8,94,5,42,127,875832640
269,20,Ticks_Linear_8,95,5,42,127,876562800
269,20,Ticks_Linear_8,96,1,48,52,876591012
269,20,Ticks_Linear_8,97,5,42,127,877282620
269,20,Ticks_Linear_8,98,1,48,54,877322884
269,20,Ticks_Linear_8,99,5,42,127,878002512
269,20,Ticks_Linear_8,100,1,48,53,878031176
269,20,Ticks_Linear_8,101,5,42,127,878722408
269,20,Ticks_Linear_8,102,1,48,47,878747692
269,20,Ticks_Linear_8,103,5,42,127,879443320
269,20,Ticks_Linear_8,104,1,48,50,879457072
269,20,Ticks_Linear_8,105,5,42,127,880163340
269,20,Ticks_Linear_8,106,1,48,48,880172532
269,20,Ticks_Linear_8,107,5,42,127,880872976
269,20,Ticks_Linear_8,108,1,48,45,880913164
269,20,Ticks_Linear_8,109,5,42,127,881582312
269,20,Ticks_Linear_8,110,1,48,47,881595012
269,20,Ticks_Linear_8,111,5,42,127,882293216
269,20,Ticks_Linear_8,112,1,48,48,882301804
269,20,Ticks_Linear_8,113,5,42,127,883002676
269,20,Ticks_Linear_8,114,1,48,53,883014256
269,20,Ticks_Linear_8,115,5,42,127,883713284
269,20,Ticks_Linear_8,116,1,48,51,883718944
269,20,Ticks_Linear_8,117,5,42,127,884412880
269,20,Ticks_Linear_8,118,1,48,51,884434952
269,20,Ticks_Linear_8,119,1,48,47,885095060
269,20,Ticks_Linear_8,120,5,42,127,885113152
269,20,Ticks_Linear_8,121,5,42,127,885812732
269,20,Ticks_Linear_8,122,1,48,50,885835468
269,20,Ticks_Linear_8,123,5,42,127,886512928
269,20,Ticks_Linear_8,124,1,48,43,886514268
269,20,Ticks_Linear_8,125,5,42,127,887213428
269,20,Ticks_Linear_8,126,1,48,43,887226056
269,20,Ticks_Linear_8,127,1,48,41,887898200
269,20,Ticks_Linear_8,128,5,42,127,887912868
269,20,Ticks_Linear_8,129,1,48,41,888590692
269,20,Ticks_Linear_8,130,5,42,127,888602936
269,20,Ticks_Linear_8,131,1,48,49,889280932
269,20,Ticks_Linear_8,132,5,42,127,889293096
269,20,Ticks_Linear_8,133,5,42,127,889983268
269,20,Ticks_Linear_8,134,1,48,48,890007656
269,20,Ticks_Linear_8,135,1,48,49,890645576
269,20,Ticks_Linear_8,136,5,42,127,890672652
269,20,Ticks_Linear_8,137,1,48,50,891326152
269,20,Ticks_Linear_8,138,5,42,127,891352332
269,20,Ticks_Linear_8,139,5,42,127,892033588
269,20,Ticks_Linear_8,140,1,48,50,892039776
269,20,Ticks_Linear_8,141,5,42,127,892713468
269,20,Ticks_Linear_8,142,1,48,42,892721240
269,20,Ticks_Linear_8,143,1,48,45,893381568
269,20,Ticks_Linear_8,144,5,42,127,893393140
269,20,Ticks_Linear_8,145,5,42,127,894073204
269,20,Ticks_Linear_8,146,1,48,40,894107324
269,20,Ticks_Linear_8,147,1,48,51,894740704
269,20,Ticks_Linear_8,148,5,42,127,894742816
269,20,Ticks_Linear_8,149,1,48,52,895410016
269,20,Ticks_Linear_8,150,5,42,127,895412536
269,20,Ticks_Linear_8,151,5,42,127,896083436
269,20,Ticks_Linear_8,152,1,48,52,896092700
269,20,Ticks_Linear_8,153,5,42,127,896752928
269,20,Ticks_Linear_8,154,1,48,45,896767280
269,20,Ticks_Linear_8,155,1,48,45,897420824
269,20,Ticks_Linear_8,156,5,42,127,897422560
269,20,Ticks_Linear_8,157,5,42,127,898083124
269,20,Ticks_Linear_8,158,1,48,45,898089236
269,20,Ticks_Linear_8,159,5,42,127,898742512
269,20,Ticks_Linear_8,160,1,48,43,898757688
269,20,Ticks_Linear_8,161,1,48,38,899384148
269,20,Ticks_Linear_8,162,5,42,127,899403284
269,20,Ticks_Linear_8,163,1,48,40,900052224
269,20,Ticks_Linear_8,164,5,42,127,900062520
269,20,Ticks_Linear_8,165,5,42,127,900723332
269,20,Ticks_Linear_8,166,1,48,44,900731848
269,20,Ticks_Linear_8,167,5,42,127,901373480
269,20,Ticks_Linear_8,168,1,48,42,901393604
269,20,Ticks_Linear_8,169,1,48,38,902017316
269,20,Ticks_Linear_8,170,5,42,127,902022528
269,20,Ticks_Linear_8,171,1,48,40,902667164
269,20,Ticks_Linear_8,172,5,42,127,902672752
269,20,Ticks_Linear_8,173,5,42,127,903323080
269,20,Ticks_Linear_8,174,1,48,38,903330924
269,20,Ticks_Linear_8,175,1,48,37,903960068
269,20,Ticks_Linear_8,176,5,42,127,903973220
269,20,Ticks_Linear_8,177,1,48,40,904601488
269,20,Ticks_Linear_8,178,5,42,127,904613136
269,20,Ticks_Linear_8,179,5,42,127,905253180
269,20,Ticks_Linear_8,180,1,48,41,905261100
269,20,Ticks_Linear_8,181,5,42,127,905893240
269,20,Ticks_Linear_8,182,1,48,45,905906092
269,20,Ticks_Linear_8,183,5,42,127,906533132
269,20,Ticks_Linear_8,184,1,48,45,906537672
269,20,Ticks_Linear_8,185,1,48,45,907167676
269,20,Ticks_Linear_8,186,5,42,127,907173116
269,20,Ticks_Linear_8,187,5,42,127,907802900
269,20,Ticks_Linear_8,188,1,48,47,907807368
269,20,Ticks_Linear_8,189,5,42,127,908432704
269,20,Ticks_Linear_8,190,1,48,42,908436196
269,20,Ticks_Linear_8,191,1,48,42,909044768
269,20,Ticks_Linear_8,192,5,42,127,909062552
269,20,Ticks_Linear_8,193,1,48,34,909683332
269,20,Ticks_Linear_8,194,5,42,127,909693256
269,20,Ticks_Linear_8,195,1,48,42,910306892
269,20,Ticks_Linear_8,196,5,42,127,910323184
269,20,Ticks_Linear_8,197,5,42,127,910942564
269,20,Ticks_Linear_8,198,1,48,42,910960892
269,20,Ticks_Linear_8,199,1,48,38,911537844
269,20,Ticks_Linear_8,200,5,42,127,911563200
269,20,Ticks_Linear_8,201,5,42,127,912182724
269,20,Ticks_Linear_8,202,1,48,40,912205760
269,20,Ticks_Linear_8,203,5,42,127,912803168
269,20,Ticks_Linear_8,204,1,48,46,912828000
269,20,Ticks_Linear_8,205,1,48,41,913408852
269,20,Ticks_Linear_8,206,5,42,127,913422680
269,20,Ticks_Linear_8,207,5,42,127,914032876
269,20,Ticks_Linear_8,208,1,48,41,914047524
269,20,Ticks_Linear_8,209,5,42,127,914643256
269,20,Ticks_Linear_8,210,1,48,51,914658580
269,20,Ticks_Linear_8,211,5,42,127,915252816
269,20,Ticks_Linear_8,212,1,48,45,915266340
269,20,Ticks_Linear_8,213,5,42,127,915862852
269,20,Ticks_Linear_8,214,1,48,63,915866116
269,20,Ticks_Linear_8,215,1,48,59,916472632
269,20,Ticks_Linear_8,216,5,42,127,916474420
269,20,Ticks_Linear_8,217,5,42,127,917073284
269,20,Ticks_Linear_8,218,1,48,57,917079544
269,20,Ticks_Linear_8,219,5,42,127,917673284
269,20,Ticks_Linear_8,220,1,48,56,917675224
269,20,Ticks_Linear_8,221,1,48,54,918263028
269,20,Ticks_Linear_8,222,5,42,127,918273548
269,20,Ticks_Linear_8,223,1,48,52,918872028
269,20,Ticks_Linear_8,224,5,42,127,918873672
269,20,Ticks_Linear_8,225,5,42,127,919472408
269,20,Ticks_Linear_8,226,1,48,46,919503832
269,20,Ticks_Linear_8,227,1,48,47,920062792
269,20,Ticks_Linear_8,228,5,42,127,920064508
269,20,Ticks_Linear_8,229,5,42,127,920653108
269,20,Ticks_Linear_8,230,1,48,51,920660416
269,20,Ticks_Linear_8,231,1,48,57,921226624
269,20,Ticks_Linear_8,232,5,42,127,921242992
269,20,Ticks_Linear_8,233,5,42,127,921832716
269,20,Ticks_Linear_8,234,1,48,51,921833752
269,20,Ticks_Linear_8,235,5,42,127,922422724
269,20,Ticks_Linear_8,236,1,48,57,922423692
269,20,Ticks_Linear_8,237,5,42,127,923003256
269,20,Ticks_Linear_8,238,1,48,54,923027416
269,20,Ticks_Linear_8,239,1,48,57,923571288
269,20,Ticks_Linear_8,240,5,42,127,923582780
269,20,Ticks_Linear_8,241,1,48,61,924160648
269,20,Ticks_Linear_8,242,5,42,127,924162384
269,20,Ticks_Linear_8,243,5,42,127,924743192
269,20,Ticks_Linear_8,244,1,48,57,924761068
269,20,Ticks_Linear_8,245,1,48,57,925321772
269,20,Ticks_Linear_8,246,5,42,127,925323492
269,20,Ticks_Linear_8,247,5,42,127,925893064
269,20,Ticks_Linear_8,248,1,48,58,925917304
269,20,Ticks_Linear_8,249,5,42,127,926463312
269,20,Ticks_Linear_8,250,1,48,56,926469644
269,20,Ticks_Linear_8,251,5,42,127,927032584
269,20,Ticks_Linear_8,252,1,48,58,927046108
269,20,Ticks_Linear_8,253,5,42,127,927603220
269,20,Ticks_Linear_8,254,1,48,54,927609780
269,20,Ticks_Linear_8,255,1,48,52,928160084
269,20,Ticks_Linear_8,256,5,42,127,928173384
269,20,Ticks_Linear_8,257,1,48,55,928736476
269,20,Ticks_Linear_8,258,5,42,127,928742880
269,20,Ticks_Linear_8,259,5,42,127,929303020
269,20,Ticks_Linear_8,260,1,48,55,929326212
269,20,Ticks_Linear_8,261,1,48,59,929839440
269,20,Ticks_Linear_8,262,5,42,127,929863148
269,20,Ticks_Linear_8,263,5,42,127,930423312
269,20,Ticks_Linear_8,264,1,48,53,930444032
269,20,Ticks_Linear_8,265,5,42,127,930983224
269,20,Ticks_Linear_8,266,1,48,46,931020708
269,20,Ticks_Linear_8,267,1,48,47,931530348
269,20,Ticks_Linear_8,268,5,42,127,931533168
269,20,Ticks_Linear_8,269,1,48,57,932072144
269,20,Ticks_Linear_8,270,5,42,127,932083116
269,20,Ticks_Linear_8,271,5,42,127,932633144
269,20,Ticks_Linear_8,272,1,48,47,932634712
269,20,Ticks_Linear_8,273,5,42,127,933182872
269,20,Ticks_Linear_8,274,1,48,47,933202472
269,20,Ticks_Linear_8,275,5,42,127,933732776
269,20,Ticks_Linear_8,276,1,48,46,933745256
269,20,Ticks_Linear_8,277,5,42,127,934273364
269,20,Ticks_Linear_8,278,1,48,51,934274332
269,20,Ticks_Linear_8,279,1,48,52,934803124
269,20,Ticks_Linear_8,280,5,42,127,934813048
269,20,Ticks_Linear_8,281,5,42,127,935352820
269,20,Ticks_Linear_8,282,1,48,52,935355264
269,20,Ticks_Linear_8,283,1,48,51,935884148
269,20,Ticks_Linear_8,284,5,42,127,935893472
269,20,Ticks_Linear_8,285,1,48,54,936430344
269,20,Ticks_Linear_8,286,5,42,127,936433016
269,20,Ticks_Linear_8,287,5,42,127,936962528
269,20,Ticks_Linear_8,288,1,48,50,936968788
269,20,Ticks_Linear_8,289,5,42,127,937492932
269,20,Ticks_Linear_8,290,1,48,51,937513504
269,20,Ticks_Linear_8,291,1,48,38,938020136
269,20,Ticks_Linear_8,292,5,42,127,938023252
269,20,Ticks_Linear_8,293,5,42,127,938552692
269,20,Ticks_Linear_8,294,1,48,47,938556108
269,20,Ticks_Linear_8,295,1,48,53,939078620
269,20,Ticks_Linear_8,296,5,42,127,939083164
269,20,Ticks_Linear_8,297,5,42,127,939603464
269,20,Ticks_Linear_8,298,1,48,51,939617020
269,20,Ticks_Linear_8,299,5,42,127,940122564
269,20,Ticks_Linear_8,300,1,48,48,940136916
269,20,Ticks_Linear_8,301,1,48,53,940597996
269,20,Ticks_Linear_8,302,5,42,127,940642624
269,20,Ticks_Linear_8,303,1,48,38,941151196
269,20,Ticks_Linear_8,304,5,42,127,941162916
269,20,Ticks_Linear_8,305,1,48,49,941680464
269,20,Ticks_Linear_8,306,5,42,127,941683064
269,20,Ticks_Linear_8,307,5,42,127,942192952
269,20,Ticks_Linear_8,308,1,48,51,942207232
269,20,Ticks_Linear_8,309,1,48,52,942685788
269,20,Ticks_Linear_8,310,5,42,127,942702832
269,20,Ticks_Linear_8,311,5,42,127,943212872
269,20,Ticks_Linear_8,312,1,48,49,943226324
269,20,Ticks_Linear_8,313,1,48,46,943719328
269,20,Ticks_Linear_8,314,5,42,127,943722972
269,20,Ticks_Linear_8,315,1,48,46,944229140
269,20,Ticks_Linear_8,316,5,42,127,944232860
269,20,Ticks_Linear_8,317,1,48,54,944714368
269,20,Ticks_Linear_8,318,5,42,127,944732708
269,20,Ticks_Linear_8,319,1,48,49,945223060
269,20,Ticks_Linear_8,320,5,42,127,945233208
269,20,Ticks_Linear_8,321,5,42,127,945732988
269,20,Ticks_Linear_8,322,1,48,43,945749508
269,20,Ticks_Linear_8,323,1,48,47,946220516
269,20,Ticks_Linear_8,324,5,42,127,946232756
269,20,Ticks_Linear_8,325,1,48,57,946702984
269,20,Ticks_Linear_8,326,5,42,127,946733356
269,20,Ticks_Linear_8,327,5,42,127,947233432
269,20,Ticks_Linear_8,328,1,48,45,947236476
269,20,Ticks_Linear_8,329,5,42,127,947722728
269,20,Ticks_Linear_8,330,1,48,52,947733188
269,20,Ticks_Linear_8,331,5,42,127,948213288
269,20,Ticks_Linear_8,332,1,48,51,948216112
269,20,Ticks_Linear_8,333,1,48,50,948699904
269,20,Ticks_Linear_8,334,5,42,127,948702576
269,20,Ticks_Linear_8,335,5,42,127,949193292
269,20,Ticks_Linear_8,336,1,48,57,949194332
269,20,Ticks_Linear_8,0,9999,9999,9999,838611044
269,20,Ticks_Linear_8,1,9999,9999,9999,839430260
269,20,Ticks_Linear_8,2,9999,9999,9999,840250448
269,20,Ticks_Linear_8,3,9999,9999,9999,841070664
269,20,Ticks_Linear_8,4,9999,9999,9999,841890928
269,20,Ticks_Linear_8,5,9999,9999,9999,842700912
269,20,Ticks_Linear_8,6,9999,9999,9999,843510896
269,20,Ticks_Linear_8,7,9999,9999,9999,844320868
269,20,Ticks_Linear_8,8,9999,9999,9999,845130820
269,20,Ticks_Linear_8,9,9999,9999,9999,845940796
269,20,Ticks_Linear_8,10,9999,9999,9999,846740596
269,20,Ticks_Linear_8,11,9999,9999,9999,847540320
269,20,Ticks_Linear_8,12,9999,9999,9999,848341108
269,20,Ticks_Linear_8,13,9999,9999,9999,849140840
269,20,Ticks_Linear_8,14,9999,9999,9999,849940560
269,20,Ticks_Linear_8,15,9999,9999,9999,850731076
269,20,Ticks_Linear_8,16,9999,9999,9999,851530868
269,20,Ticks_Linear_8,17,9999,9999,9999,852320336
269,20,Ticks_Linear_8,18,9999,9999,9999,853110872
269,20,Ticks_Linear_8,19,9999,9999,9999,853900412
269,20,Ticks_Linear_8,20,9999,9999,9999,854680668
269,20,Ticks_Linear_8,21,9999,9999,9999,855460920
269,20,Ticks_Linear_8,22,9999,9999,9999,856240200
269,20,Ticks_Linear_8,23,9999,9999,9999,857020528
269,20,Ticks_Linear_8,24,9999,9999,9999,857800780
269,20,Ticks_Linear_8,25,9999,9999,9999,858570848
269,20,Ticks_Linear_8,26,9999,9999,9999,859340916
269,20,Ticks_Linear_8,27,9999,9999,9999,860110912
269,20,Ticks_Linear_8,28,9999,9999,9999,860880980
269,20,Ticks_Linear_8,29,9999,9999,9999,861651048
269,20,Ticks_Linear_8,30,9999,9999,9999,862410856
269,20,Ticks_Linear_8,31,9999,9999,9999,863170664
269,20,Ticks_Linear_8,32,9999,9999,9999,863930472
269,20,Ticks_Linear_8,33,9999,9999,9999,864690276
269,20,Ticks_Linear_8,34,9999,9999,9999,865451132
269,20,Ticks_Linear_8,35,9999,9999,9999,866210940
269,20,Ticks_Linear_8,36,9999,9999,9999,866960496
269,20,Ticks_Linear_8,37,9999,9999,9999,867711092
269,20,Ticks_Linear_8,38,9999,9999,9999,868460636
269,20,Ticks_Linear_8,39,9999,9999,9999,869210172
269,20,Ticks_Linear_8,40,9999,9999,9999,869950580
269,20,Ticks_Linear_8,41,9999,9999,9999,870690920
269,20,Ticks_Linear_8,42,9999,9999,9999,871430208
269,20,Ticks_Linear_8,43,9999,9999,9999,872170620
269,20,Ticks_Linear_8,44,9999,9999,9999,872910952
269,20,Ticks_Linear_8,45,9999,9999,9999,873641036
269,20,Ticks_Linear_8,46,9999,9999,9999,874370140
269,20,Ticks_Linear_8,47,9999,9999,9999,875100264
269,20,Ticks_Linear_8,48,9999,9999,9999,875830344
269,20,Ticks_Linear_8,49,9999,9999,9999,876560504
269,20,Ticks_Linear_8,50,9999,9999,9999,877280320
269,20,Ticks_Linear_8,51,9999,9999,9999,878000216
269,20,Ticks_Linear_8,52,9999,9999,9999,878720108
269,20,Ticks_Linear_8,53,9999,9999,9999,879441024
269,20,Ticks_Linear_8,54,9999,9999,9999,880160892
269,20,Ticks_Linear_8,55,9999,9999,9999,880870528
269,20,Ticks_Linear_8,56,9999,9999,9999,881580088
269,20,Ticks_Linear_8,57,9999,9999,9999,882290768
269,20,Ticks_Linear_8,58,9999,9999,9999,883000380
269,20,Ticks_Linear_8,59,9999,9999,9999,883711060
269,20,Ticks_Linear_8,60,9999,9999,9999,884410432
269,20,Ticks_Linear_8,61,9999,9999,9999,885110852
269,20,Ticks_Linear_8,62,9999,9999,9999,885810284
269,20,Ticks_Linear_8,63,9999,9999,9999,886510704
269,20,Ticks_Linear_8,64,9999,9999,9999,887211124
269,20,Ticks_Linear_8,65,9999,9999,9999,887910496
269,20,Ticks_Linear_8,66,9999,9999,9999,888600636
269,20,Ticks_Linear_8,67,9999,9999,9999,889290872
269,20,Ticks_Linear_8,68,9999,9999,9999,889981044
269,20,Ticks_Linear_8,69,9999,9999,9999,890670204
269,20,Ticks_Linear_8,70,9999,9999,9999,891350108
269,20,Ticks_Linear_8,71,9999,9999,9999,892031068
269,20,Ticks_Linear_8,72,9999,9999,9999,892711020
269,20,Ticks_Linear_8,73,9999,9999,9999,893390916
269,20,Ticks_Linear_8,74,9999,9999,9999,894070904
269,20,Ticks_Linear_8,75,9999,9999,9999,894740556
269,20,Ticks_Linear_8,76,9999,9999,9999,895410240
269,20,Ticks_Linear_8,77,9999,9999,9999,896080988
269,20,Ticks_Linear_8,78,9999,9999,9999,896750704
269,20,Ticks_Linear_8,79,9999,9999,9999,897420360
269,20,Ticks_Linear_8,80,9999,9999,9999,898080828
269,20,Ticks_Linear_8,81,9999,9999,9999,898740288
269,20,Ticks_Linear_8,82,9999,9999,9999,899400764
269,20,Ticks_Linear_8,83,9999,9999,9999,900060224
269,20,Ticks_Linear_8,84,9999,9999,9999,900720736
269,20,Ticks_Linear_8,85,9999,9999,9999,901370956
269,20,Ticks_Linear_8,86,9999,9999,9999,902020156
269,20,Ticks_Linear_8,87,9999,9999,9999,902670452
269,20,Ticks_Linear_8,88,9999,9999,9999,903320632
269,20,Ticks_Linear_8,89,9999,9999,9999,903970920
269,20,Ticks_Linear_8,90,9999,9999,9999,904610912
269,20,Ticks_Linear_8,91,9999,9999,9999,905250880
269,20,Ticks_Linear_8,92,9999,9999,9999,905890944
269,20,Ticks_Linear_8,93,9999,9999,9999,906530908
269,20,Ticks_Linear_8,94,9999,9999,9999,907170888
269,20,Ticks_Linear_8,95,9999,9999,9999,907800676
269,20,Ticks_Linear_8,96,9999,9999,9999,908430408
269,20,Ticks_Linear_8,97,9999,9999,9999,909060180
269,20,Ticks_Linear_8,98,9999,9999,9999,909690956
269,20,Ticks_Linear_8,99,9999,9999,9999,910320736
269,20,Ticks_Linear_8,100,9999,9999,9999,910940264
269,20,Ticks_Linear_8,101,9999,9999,9999,911560824
269,20,Ticks_Linear_8,102,9999,9999,9999,912180276
269,20,Ticks_Linear_8,103,9999,9999,9999,912800868
269,20,Ticks_Linear_8,104,9999,9999,9999,913420380
269,20,Ticks_Linear_8,105,9999,9999,9999,914030652
269,20,Ticks_Linear_8,106,9999,9999,9999,914640960
269,20,Ticks_Linear_8,107,9999,9999,9999,915250296
269,20,Ticks_Linear_8,108,9999,9999,9999,915860552
269,20,Ticks_Linear_8,109,9999,9999,9999,916470860
269,20,Ticks_Linear_8,110,9999,9999,9999,917070908
269,20,Ticks_Linear_8,111,9999,9999,9999,917670984
269,20,Ticks_Linear_8,112,9999,9999,9999,918271100
269,20,Ticks_Linear_8,113,9999,9999,9999,918870108
269,20,Ticks_Linear_8,114,9999,9999,9999,919470184
269,20,Ticks_Linear_8,115,9999,9999,9999,920061020
269,20,Ticks_Linear_8,116,9999,9999,9999,920650812
269,20,Ticks_Linear_8,117,9999,9999,9999,921240692
269,20,Ticks_Linear_8,118,9999,9999,9999,921830488
269,20,Ticks_Linear_8,119,9999,9999,9999,922420276
269,20,Ticks_Linear_8,120,9999,9999,9999,923000956
269,20,Ticks_Linear_8,121,9999,9999,9999,923580480
269,20,Ticks_Linear_8,122,9999,9999,9999,924160112
269,20,Ticks_Linear_8,123,9999,9999,9999,924740668
269,20,Ticks_Linear_8,124,9999,9999,9999,925320300
269,20,Ticks_Linear_8,125,9999,9999,9999,925890616
269,20,Ticks_Linear_8,126,9999,9999,9999,926461012
269,20,Ticks_Linear_8,127,9999,9999,9999,927030356
269,20,Ticks_Linear_8,128,9999,9999,9999,927600700
269,20,Ticks_Linear_8,129,9999,9999,9999,928171088
269,20,Ticks_Linear_8,130,9999,9999,9999,928740432
269,20,Ticks_Linear_8,131,9999,9999,9999,929300572
269,20,Ticks_Linear_8,132,9999,9999,9999,929860700
269,20,Ticks_Linear_8,133,9999,9999,9999,930420864
269,20,Ticks_Linear_8,134,9999,9999,9999,930980924
269,20,Ticks_Linear_8,135,9999,9999,9999,931530868
269,20,Ticks_Linear_8,136,9999,9999,9999,932080744
269,20,Ticks_Linear_8,137,9999,9999,9999,932630624
269,20,Ticks_Linear_8,138,9999,9999,9999,933180500
269,20,Ticks_Linear_8,139,9999,9999,9999,933730400
269,20,Ticks_Linear_8,140,9999,9999,9999,934271064
269,20,Ticks_Linear_8,141,9999,9999,9999,934810748
269,20,Ticks_Linear_8,142,9999,9999,9999,935350372
269,20,Ticks_Linear_8,143,9999,9999,9999,935891024
269,20,Ticks_Linear_8,144,9999,9999,9999,936430716
269,20,Ticks_Linear_8,145,9999,9999,9999,936960080
269,20,Ticks_Linear_8,146,9999,9999,9999,937490556
269,20,Ticks_Linear_8,147,9999,9999,9999,938020956
269,20,Ticks_Linear_8,148,9999,9999,9999,938550392
269,20,Ticks_Linear_8,149,9999,9999,9999,939080788
269,20,Ticks_Linear_8,150,9999,9999,9999,939601016
269,20,Ticks_Linear_8,151,9999,9999,9999,940120188
269,20,Ticks_Linear_8,152,9999,9999,9999,940640328
269,20,Ticks_Linear_8,153,9999,9999,9999,941160544
269,20,Ticks_Linear_8,154,9999,9999,9999,941680764
269,20,Ticks_Linear_8,155,9999,9999,9999,942190656
269,20,Ticks_Linear_8,156,9999,9999,9999,942700608
269,20,Ticks_Linear_8,157,9999,9999,9999,943210572
269,20,Ticks_Linear_8,158,9999,9999,9999,943720524
269,20,Ticks_Linear_8,159,9999,9999,9999,944230488
269,20,Ticks_Linear_8,160,9999,9999,9999,944730236
269,20,Ticks_Linear_8,161,9999,9999,9999,945230908
269,20,Ticks_Linear_8,162,9999,9999,9999,945730616
269,20,Ticks_Linear_8,163,9999,9999,9999,946230384
269,20,Ticks_Linear_8,164,9999,9999,9999,946731132
269,20,Ticks_Linear_8,165,9999,9999,9999,947230836
269,20,Ticks_Linear_8,166,9999,9999,9999,947720280
269,20,Ticks_Linear_8,167,9999,9999,9999,948210768
269,20,Ticks_Linear_8,168,9999,9999,9999,948700276
269,20,Ticks_Linear_8,169,9999,9999,9999,949190772
2610,21,Ticks_Linear_5,0,5,42,127,963880432
2610,21,Ticks_Linear_5,1,5,42,127,964359488
2610,21,Ticks_Linear_5,2,5,42,127,964839736
2610,21,Ticks_Linear_5,3,5,42,127,965319984
2610,21,Ticks_Linear_5,4,5,42,127,965800460
2610,21,Ticks_Linear_5,5,5,42,127,966289700
2610,21,Ticks_Linear_5,6,5,42,127,966780356
2610,21,Ticks_Linear_5,7,5,42,127,967269820
2610,21,Ticks_Linear_5,8,5,42,127,967760452
2610,21,Ticks_Linear_5,9,1,48,42,967764020
2610,21,Ticks_Linear_5,10,1,48,47,968249292
2610,21,Ticks_Linear_5,11,5,42,127,968251232
2610,21,Ticks_Linear_5,12,1,48,49,968737184
2610,21,Ticks_Linear_5,13,5,42,127,968749288
2610,21,Ticks_Linear_5,14,1,48,48,969226172
2610,21,Ticks_Linear_5,15,5,42,127,969250260
2610,21,Ticks_Linear_5,16,1,48,45,969742200
2610,21,Ticks_Linear_5,17,5,42,127,969749808
2610,21,Ticks_Linear_5,18,1,48,48,970231420
2610,21,Ticks_Linear_5,19,5,42,127,970249508
2610,21,Ticks_Linear_5,20,1,48,50,970726472
2610,21,Ticks_Linear_5,21,5,42,127,970750332
2610,21,Ticks_Linear_5,22,1,48,43,971233588
2610,21,Ticks_Linear_5,23,5,42,127,971260288
2610,21,Ticks_Linear_5,24,1,48,49,971739212
2610,21,Ticks_Linear_5,25,5,42,127,971770320
2610,21,Ticks_Linear_5,26,1,48,51,972250884
2610,21,Ticks_Linear_5,27,5,42,127,972280056
2610,21,Ticks_Linear_5,28,1,48,50,972757988
2610,21,Ticks_Linear_5,29,5,42,127,972790312
2610,21,Ticks_Linear_5,30,1,48,48,973281060
2610,21,Ticks_Linear_5,31,5,42,127,973300048
2610,21,Ticks_Linear_5,32,1,48,50,973774320
2610,21,Ticks_Linear_5,33,5,42,127,973820196
2610,21,Ticks_Linear_5,34,1,48,46,974291100
2610,21,Ticks_Linear_5,35,5,42,127,974339364
2610,21,Ticks_Linear_5,36,1,48,58,974847404
2610,21,Ticks_Linear_5,37,5,42,127,974859584
2610,21,Ticks_Linear_5,38,5,42,127,975380032
2610,21,Ticks_Linear_5,39,1,48,54,975396176
2610,21,Ticks_Linear_5,40,5,42,127,975900028
2610,21,Ticks_Linear_5,41,1,48,54,975916096
2610,21,Ticks_Linear_5,42,1,48,57,976420272
2610,21,Ticks_Linear_5,43,5,42,127,976429376
2610,21,Ticks_Linear_5,44,5,42,127,976960080
2610,21,Ticks_Linear_5,45,1,48,58,976967464
2610,21,Ticks_Linear_5,46,5,42,127,977490260
2610,21,Ticks_Linear_5,47,1,48,54,977493972
2610,21,Ticks_Linear_5,48,5,42,127,978019792
2610,21,Ticks_Linear_5,49,1,48,54,978025604
2610,21,Ticks_Linear_5,50,5,42,127,978550196
2610,21,Ticks_Linear_5,51,1,48,56,978565444
2610,21,Ticks_Linear_5,52,1,48,51,979070368
2610,21,Ticks_Linear_5,53,5,42,127,979089952
2610,21,Ticks_Linear_5,54,1,48,55,979598676
2610,21,Ticks_Linear_5,55,5,42,127,979629344
2610,21,Ticks_Linear_5,56,1,48,61,980162920
2610,21,Ticks_Linear_5,57,5,42,127,980170080
2610,21,Ticks_Linear_5,58,5,42,127,980709924
2610,21,Ticks_Linear_5,59,1,48,50,980733632
2610,21,Ticks_Linear_5,60,5,42,127,981250288
2610,21,Ticks_Linear_5,61,1,48,54,981254232
2610,21,Ticks_Linear_5,62,1,48,56,981803852
2610,21,Ticks_Linear_5,63,5,42,127,981809740
2610,21,Ticks_Linear_5,64,5,42,127,982360668
2610,21,Ticks_Linear_5,65,1,48,61,982395936
2610,21,Ticks_Linear_5,66,1,48,56,982901756
2610,21,Ticks_Linear_5,67,5,42,127,982919696
2610,21,Ticks_Linear_5,68,5,42,127,983469580
2610,21,Ticks_Linear_5,69,1,48,52,983512388
2610,21,Ticks_Linear_5,70,5,42,127,984020724
2610,21,Ticks_Linear_5,71,1,48,55,984047816
2610,21,Ticks_Linear_5,72,5,42,127,984579588
2610,21,Ticks_Linear_5,73,1,48,56,984580924
2610,21,Ticks_Linear_5,74,1,48,54,985124836
2610,21,Ticks_Linear_5,75,5,42,127,985139712
2610,21,Ticks_Linear_5,76,1,48,56,985657876
2610,21,Ticks_Linear_5,77,5,42,127,985699724
2610,21,Ticks_Linear_5,78,5,42,127,986259712
2610,21,Ticks_Linear_5,79,1,48,58,986284916
2610,21,Ticks_Linear_5,80,5,42,127,986819920
2610,21,Ticks_Linear_5,81,1,48,55,986843336
2610,21,Ticks_Linear_5,82,1,48,50,987372140
2610,21,Ticks_Linear_5,83,5,42,127,987390604
2610,21,Ticks_Linear_5,84,5,42,127,987959660
2610,21,Ticks_Linear_5,85,1,48,50,987965472
2610,21,Ticks_Linear_5,86,5,42,127,988530152
2610,21,Ticks_Linear_5,87,1,48,44,988537908
2610,21,Ticks_Linear_5,88,1,48,52,989095844
2610,21,Ticks_Linear_5,89,5,42,127,989100460
2610,21,Ticks_Linear_5,90,1,48,38,989660032
2610,21,Ticks_Linear_5,91,5,42,127,989669660
2610,21,Ticks_Linear_5,92,1,48,36,990239336
2610,21,Ticks_Linear_5,93,5,42,127,990250532
2610,21,Ticks_Linear_5,94,1,48,42,990789140
2610,21,Ticks_Linear_5,95,5,42,127,990829940
2610,21,Ticks_Linear_5,96,1,48,40,991393324
2610,21,Ticks_Linear_5,97,5,42,127,991409472
2610,21,Ticks_Linear_5,98,1,48,47,991987600
2610,21,Ticks_Linear_5,99,5,42,127,991990196
2610,21,Ticks_Linear_5,100,1,48,45,992565340
2610,21,Ticks_Linear_5,101,5,42,127,992569656
2610,21,Ticks_Linear_5,102,1,48,40,993129552
2610,21,Ticks_Linear_5,103,5,42,127,993159544
2610,21,Ticks_Linear_5,104,1,48,53,993732140
2610,21,Ticks_Linear_5,105,5,42,127,993750452
2610,21,Ticks_Linear_5,106,1,48,42,994324020
2610,21,Ticks_Linear_5,107,5,42,127,994340316
2610,21,Ticks_Linear_5,108,1,48,43,994885728
2610,21,Ticks_Linear_5,109,5,42,127,994930204
2610,21,Ticks_Linear_5,110,1,48,46,995504524
2610,21,Ticks_Linear_5,111,5,42,127,995519996
2610,21,Ticks_Linear_5,112,5,42,127,996120128
2610,21,Ticks_Linear_5,113,1,48,56,996123772
2610,21,Ticks_Linear_5,114,1,48,47,996689356
2610,21,Ticks_Linear_5,115,5,42,127,996720120
2610,21,Ticks_Linear_5,116,1,48,50,997313532
2610,21,Ticks_Linear_5,117,5,42,127,997320092
2610,21,Ticks_Linear_5,118,1,48,49,997900632
2610,21,Ticks_Linear_5,119,5,42,127,997920140
2610,21,Ticks_Linear_5,120,5,42,127,998520148
2610,21,Ticks_Linear_5,121,1,48,55,998526484
2610,21,Ticks_Linear_5,122,1,48,47,999107800
2610,21,Ticks_Linear_5,123,5,42,127,999129404
2610,21,Ticks_Linear_5,124,5,42,127,999739940
2610,21,Ticks_Linear_5,125,1,48,51,999750476
2610,21,Ticks_Linear_5,126,5,42,127,1000350272
2610,21,Ticks_Linear_5,127,1,48,48,1000359764
2610,21,Ticks_Linear_5,128,5,42,127,1000960284
2610,21,Ticks_Linear_5,129,1,48,53,1000966400
2610,21,Ticks_Linear_5,130,5,42,127,1001569944
2610,21,Ticks_Linear_5,131,1,48,53,1001570984
2610,21,Ticks_Linear_5,132,5,42,127,1002190136
2610,21,Ticks_Linear_5,133,1,48,48,1002212348
2610,21,Ticks_Linear_5,134,1,48,48,1002808528
2610,21,Ticks_Linear_5,135,5,42,127,1002810320
2610,21,Ticks_Linear_5,136,1,48,59,1003425552
2610,21,Ticks_Linear_5,137,5,42,127,1003430320
2610,21,Ticks_Linear_5,138,5,42,127,1004049772
2610,21,Ticks_Linear_5,139,1,48,43,1004052364
2610,21,Ticks_Linear_5,140,1,48,47,1004650996
2610,21,Ticks_Linear_5,141,5,42,127,1004670280
2610,21,Ticks_Linear_5,142,1,48,52,1005274100
2610,21,Ticks_Linear_5,143,5,42,127,1005300132
2610,21,Ticks_Linear_5,144,5,42,127,1005929944
2610,21,Ticks_Linear_5,145,1,48,59,1005956796
2610,21,Ticks_Linear_5,146,1,48,46,1006535332
2610,21,Ticks_Linear_5,147,5,42,127,1006559716
2610,21,Ticks_Linear_5,148,1,48,45,1007163616
2610,21,Ticks_Linear_5,149,5,42,127,1007190616
2610,21,Ticks_Linear_5,150,1,48,45,1007809448
2610,21,Ticks_Linear_5,151,5,42,127,1007820120
2610,21,Ticks_Linear_5,152,1,48,60,1008438560
2610,21,Ticks_Linear_5,153,5,42,127,1008460088
2610,21,Ticks_Linear_5,154,1,48,47,1009053672
2610,21,Ticks_Linear_5,155,5,42,127,1009100152
2610,21,Ticks_Linear_5,156,1,48,52,1009714904
2610,21,Ticks_Linear_5,157,5,42,127,1009740336
2610,21,Ticks_Linear_5,158,1,48,50,1010379884
2610,21,Ticks_Linear_5,159,5,42,127,1010381520
2610,21,Ticks_Linear_5,160,1,48,59,1011008576
2610,21,Ticks_Linear_5,161,5,42,127,1011020292
2610,21,Ticks_Linear_5,162,5,42,127,1011670396
2610,21,Ticks_Linear_5,163,1,48,52,1011700552
2610,21,Ticks_Linear_5,164,1,48,46,1012294652
2610,21,Ticks_Linear_5,165,5,42,127,1012319516
2610,21,Ticks_Linear_5,166,1,48,43,1012946104
2610,21,Ticks_Linear_5,167,5,42,127,1012969812
2610,21,Ticks_Linear_5,168,5,42,127,1013620140
2610,21,Ticks_Linear_5,169,1,48,47,1013632324
2610,21,Ticks_Linear_5,170,1,48,34,1014227176
2610,21,Ticks_Linear_5,171,5,42,127,1014270432
2610,21,Ticks_Linear_5,172,1,48,43,1014925800
2610,21,Ticks_Linear_5,173,5,42,127,1014929668
2610,21,Ticks_Linear_5,174,5,42,127,1015590308
2610,21,Ticks_Linear_5,175,1,48,41,1015593128
2610,21,Ticks_Linear_5,176,1,48,45,1016244844
2610,21,Ticks_Linear_5,177,5,42,127,1016249688
2610,21,Ticks_Linear_5,178,5,42,127,1016910324
2610,21,Ticks_Linear_5,179,1,48,46,1016938260
2610,21,Ticks_Linear_5,180,1,48,39,1017557596
2610,21,Ticks_Linear_5,181,5,42,127,1017569628
2610,21,Ticks_Linear_5,182,1,48,41,1018194344
2610,21,Ticks_Linear_5,183,5,42,127,1018240244
2610,21,Ticks_Linear_5,184,5,42,127,1018910020
2610,21,Ticks_Linear_5,185,1,48,44,1018925488
2610,21,Ticks_Linear_5,186,1,48,43,1019566208
2610,21,Ticks_Linear_5,187,5,42,127,1019579732
2610,21,Ticks_Linear_5,188,1,48,44,1020240028
2610,21,Ticks_Linear_5,189,5,42,127,1020249376
2610,21,Ticks_Linear_5,190,5,42,127,1020920124
2610,21,Ticks_Linear_5,191,1,48,41,1020927952
2610,21,Ticks_Linear_5,192,1,48,56,1021573540
2610,21,Ticks_Linear_5,193,5,42,127,1021600168
2610,21,Ticks_Linear_5,194,1,48,57,1022251844
2610,21,Ticks_Linear_5,195,5,42,127,1022280048
2610,21,Ticks_Linear_5,196,5,42,127,1022960032
2610,21,Ticks_Linear_5,197,1,48,60,1023018796
2610,21,Ticks_Linear_5,198,5,42,127,1023639936
2610,21,Ticks_Linear_5,199,1,48,56,1023641424
2610,21,Ticks_Linear_5,200,1,48,67,1024312800
2610,21,Ticks_Linear_5,201,5,42,127,1024319884
2610,21,Ticks_Linear_5,202,1,48,50,1024971288
2610,21,Ticks_Linear_5,203,5,42,127,1025009972
2610,21,Ticks_Linear_5,204,1,48,51,1025647288
2610,21,Ticks_Linear_5,205,5,42,127,1025700208
2610,21,Ticks_Linear_5,206,1,48,48,1026373448
2610,21,Ticks_Linear_5,207,5,42,127,1026390520
2610,21,Ticks_Linear_5,208,1,48,54,1027053880
2610,21,Ticks_Linear_5,209,5,42,127,1027079612
2610,21,Ticks_Linear_5,210,1,48,42,1027758132
2610,21,Ticks_Linear_5,211,5,42,127,1027769772
2610,21,Ticks_Linear_5,212,1,48,44,1028451880
2610,21,Ticks_Linear_5,213,5,42,127,1028470268
2610,21,Ticks_Linear_5,214,1,48,40,1029131388
2610,21,Ticks_Linear_5,215,5,42,127,1029169696
2610,21,Ticks_Linear_5,216,1,48,57,1029814580
2610,21,Ticks_Linear_5,217,5,42,127,1029869968
2610,21,Ticks_Linear_5,218,1,48,37,1030484796
2610,21,Ticks_Linear_5,219,5,42,127,1030570536
2610,21,Ticks_Linear_5,220,1,48,48,1031261192
2610,21,Ticks_Linear_5,221,5,42,127,1031269692
2610,21,Ticks_Linear_5,222,1,48,44,1031978536
2610,21,Ticks_Linear_5,223,5,42,127,1031980348
2610,21,Ticks_Linear_5,224,1,48,55,1032669504
2610,21,Ticks_Linear_5,225,5,42,127,1032689984
2610,21,Ticks_Linear_5,226,1,48,47,1033373140
2610,21,Ticks_Linear_5,227,5,42,127,1033399620
2610,21,Ticks_Linear_5,228,1,48,50,1034101052
2610,21,Ticks_Linear_5,229,5,42,127,1034110376
2610,21,Ticks_Linear_5,230,1,48,49,1034809540
2610,21,Ticks_Linear_5,231,5,42,127,1034820060
2610,21,Ticks_Linear_5,232,1,48,56,1035529360
2610,21,Ticks_Linear_5,233,5,42,127,1035539956
2610,21,Ticks_Linear_5,234,5,42,127,1036259780
2610,21,Ticks_Linear_5,235,1,48,43,1036261268
2610,21,Ticks_Linear_5,236,5,42,127,1036979600
2610,21,Ticks_Linear_5,237,1,48,48,1036999052
2610,21,Ticks_Linear_5,238,1,48,46,1037650220
2610,21,Ticks_Linear_5,239,5,42,127,1037699412
2610,21,Ticks_Linear_5,240,1,48,48,1038405152
2610,21,Ticks_Linear_5,241,5,42,127,1038420548
2610,21,Ticks_Linear_5,242,1,48,46,1039149192
2610,21,Ticks_Linear_5,243,5,42,127,1039150676
2610,21,Ticks_Linear_5,244,1,48,43,1039876816
2610,21,Ticks_Linear_5,245,5,42,127,1039879484
2610,21,Ticks_Linear_5,246,1,48,39,1040571628
2610,21,Ticks_Linear_5,247,5,42,127,1040609564
2610,21,Ticks_Linear_5,248,1,48,48,1041339648
2610,21,Ticks_Linear_5,249,5,42,127,1041341280
2610,21,Ticks_Linear_5,250,5,42,127,1042070024
2610,21,Ticks_Linear_5,251,1,48,49,1042083624
2610,21,Ticks_Linear_5,252,5,42,127,1042810360
2610,21,Ticks_Linear_5,253,1,48,43,1042840516
2610,21,Ticks_Linear_5,254,1,48,48,1043539772
2610,21,Ticks_Linear_5,255,5,42,127,1043549424
2610,21,Ticks_Linear_5,256,5,42,127,1044289964
2610,21,Ticks_Linear_5,257,1,48,53,1044297272
2610,21,Ticks_Linear_5,258,5,42,127,1045030300
2610,21,Ticks_Linear_5,259,1,48,54,1045034392
2610,21,Ticks_Linear_5,260,5,42,127,1045769592
2610,21,Ticks_Linear_5,261,1,48,37,1045799520
2610,21,Ticks_Linear_5,262,1,48,48,1046463072
2610,21,Ticks_Linear_5,263,5,42,127,1046520104
2610,21,Ticks_Linear_5,264,1,48,61,1047265712
2610,21,Ticks_Linear_5,265,5,42,127,1047270028
2610,21,Ticks_Linear_5,266,1,48,47,1048011224
2610,21,Ticks_Linear_5,267,5,42,127,1048020400
2610,21,Ticks_Linear_5,268,1,48,42,1048740624
2610,21,Ticks_Linear_5,269,5,42,127,1048769872
2610,21,Ticks_Linear_5,270,5,42,127,1049519652
2610,21,Ticks_Linear_5,271,1,48,39,1049521064
2610,21,Ticks_Linear_5,272,5,42,127,1050280432
2610,21,Ticks_Linear_5,273,1,48,46,1050298088
2610,21,Ticks_Linear_5,274,1,48,40,1051022220
2610,21,Ticks_Linear_5,275,5,42,127,1051040164
2610,21,Ticks_Linear_5,276,5,42,127,1051800052
2610,21,Ticks_Linear_5,277,1,48,44,1051842040
2610,21,Ticks_Linear_5,278,5,42,127,1052559712
2610,21,Ticks_Linear_5,279,1,48,47,1052566416
2610,21,Ticks_Linear_5,280,1,48,48,1053315572
2610,21,Ticks_Linear_5,281,5,42,127,1053319588
2610,21,Ticks_Linear_5,282,1,48,50,1054076204
2610,21,Ticks_Linear_5,283,5,42,127,1054089584
2610,21,Ticks_Linear_5,284,1,48,51,1054850844
2610,21,Ticks_Linear_5,285,5,42,127,1054859576
2610,21,Ticks_Linear_5,286,5,42,127,1055629648
2610,21,Ticks_Linear_5,287,1,48,49,1055634564
2610,21,Ticks_Linear_5,288,5,42,127,1056399640
2610,21,Ticks_Linear_5,289,1,48,54,1056426416
2610,21,Ticks_Linear_5,290,1,48,43,1057141204
2610,21,Ticks_Linear_5,291,5,42,127,1057169780
2610,21,Ticks_Linear_5,292,1,48,42,1057916956
2610,21,Ticks_Linear_5,293,5,42,127,1057950028
2610,21,Ticks_Linear_5,294,1,48,49,1058681416
2610,21,Ticks_Linear_5,295,5,42,127,1058730508
2610,21,Ticks_Linear_5,296,1,48,53,1059497012
2610,21,Ticks_Linear_5,297,5,42,127,1059509640
2610,21,Ticks_Linear_5,298,1,48,37,1060240580
2610,21,Ticks_Linear_5,299,5,42,127,1060290192
2610,21,Ticks_Linear_5,300,1,48,35,1061022324
2610,21,Ticks_Linear_5,301,5,42,127,1061070296
2610,21,Ticks_Linear_5,302,1,48,39,1061780040
2610,21,Ticks_Linear_5,303,5,42,127,1061859760
2610,21,Ticks_Linear_5,304,1,48,45,1062641168
2610,21,Ticks_Linear_5,305,5,42,127,1062650344
2610,21,Ticks_Linear_5,306,5,42,127,1063439816
2610,21,Ticks_Linear_5,307,1,48,21,1063447124
2610,21,Ticks_Linear_5,308,1,48,32,1064200024
2610,21,Ticks_Linear_5,309,5,42,127,1064230392
2610,21,Ticks_Linear_5,310,1,48,45,1065008592
2610,21,Ticks_Linear_5,311,5,42,127,1065019712
2610,21,Ticks_Linear_5,312,1,48,50,1065748704
2610,21,Ticks_Linear_5,313,5,42,127,1065819384
2610,21,Ticks_Linear_5,314,1,48,41,1066577844
2610,21,Ticks_Linear_5,315,5,42,127,1066620228
2610,21,Ticks_Linear_5,316,1,48,52,1067332044
2610,21,Ticks_Linear_5,317,5,42,127,1067420100
2610,21,Ticks_Linear_5,318,1,48,50,1068195440
2610,21,Ticks_Linear_5,319,5,42,127,1068219972
2610,21,Ticks_Linear_5,320,1,48,62,1068996888
2610,21,Ticks_Linear_5,321,5,42,127,1069019548
2610,21,Ticks_Linear_5,322,1,48,54,1069783360
2610,21,Ticks_Linear_5,323,5,42,127,1069829532
2610,21,Ticks_Linear_5,324,1,48,49,1070557924
2610,21,Ticks_Linear_5,325,5,42,127,1070639516
2610,21,Ticks_Linear_5,326,1,48,59,1071386392
2610,21,Ticks_Linear_5,327,5,42,127,1071449596
2610,21,Ticks_Linear_5,328,5,42,127,1072259660
2610,21,Ticks_Linear_5,329,1,48,60,1072273860
2610,21,Ticks_Linear_5,330,1,48,41,1073036936
2610,21,Ticks_Linear_5,331,5,42,127,1073069488
2610,21,Ticks_Linear_5,0,9999,9999,9999,963877984
2610,21,Ticks_Linear_5,1,9999,9999,9999,964357188
2610,21,Ticks_Linear_5,2,9999,9999,9999,964837436
2610,21,Ticks_Linear_5,3,9999,9999,9999,965317688
2610,21,Ticks_Linear_5,4,9999,9999,9999,965798012
2610,21,Ticks_Linear_5,5,9999,9999,9999,966287476
2610,21,Ticks_Linear_5,6,9999,9999,9999,966777984
2610,21,Ticks_Linear_5,7,9999,9999,9999,967267448
2610,21,Ticks_Linear_5,8,9999,9999,9999,967757928
2610,21,Ticks_Linear_5,9,9999,9999,9999,968247372
2610,21,Ticks_Linear_5,10,9999,9999,9999,968747064
2610,21,Ticks_Linear_5,11,9999,9999,9999,969247812
2610,21,Ticks_Linear_5,12,9999,9999,9999,969747512
2610,21,Ticks_Linear_5,13,9999,9999,9999,970247284
2610,21,Ticks_Linear_5,14,9999,9999,9999,970747956
2610,21,Ticks_Linear_5,15,9999,9999,9999,971257916
2610,21,Ticks_Linear_5,16,9999,9999,9999,971767876
2610,21,Ticks_Linear_5,17,9999,9999,9999,972277832
2610,21,Ticks_Linear_5,18,9999,9999,9999,972787792
2610,21,Ticks_Linear_5,19,9999,9999,9999,973297752
2610,21,Ticks_Linear_5,20,9999,9999,9999,973817972
2610,21,Ticks_Linear_5,21,9999,9999,9999,974337144
2610,21,Ticks_Linear_5,22,9999,9999,9999,974857284
2610,21,Ticks_Linear_5,23,9999,9999,9999,975377512
2610,21,Ticks_Linear_5,24,9999,9999,9999,975897728
2610,21,Ticks_Linear_5,25,9999,9999,9999,976427076
2610,21,Ticks_Linear_5,26,9999,9999,9999,976957560
2610,21,Ticks_Linear_5,27,9999,9999,9999,977487960
2610,21,Ticks_Linear_5,28,9999,9999,9999,978017344
2610,21,Ticks_Linear_5,29,9999,9999,9999,978547820
2610,21,Ticks_Linear_5,30,9999,9999,9999,979087428
2610,21,Ticks_Linear_5,31,9999,9999,9999,979627120
2610,21,Ticks_Linear_5,32,9999,9999,9999,980167780
2610,21,Ticks_Linear_5,33,9999,9999,9999,980707400
2610,21,Ticks_Linear_5,34,9999,9999,9999,981248064
2610,21,Ticks_Linear_5,35,9999,9999,9999,981807220
2610,21,Ticks_Linear_5,36,9999,9999,9999,982358072
2610,21,Ticks_Linear_5,37,9999,9999,9999,982917176
2610,21,Ticks_Linear_5,38,9999,9999,9999,983467132
2610,21,Ticks_Linear_5,39,9999,9999,9999,984017976
2610,21,Ticks_Linear_5,40,9999,9999,9999,984577140
2610,21,Ticks_Linear_5,41,9999,9999,9999,985137268
2610,21,Ticks_Linear_5,42,9999,9999,9999,985697352
2610,21,Ticks_Linear_5,43,9999,9999,9999,986257488
2610,21,Ticks_Linear_5,44,9999,9999,9999,986817624
2610,21,Ticks_Linear_5,45,9999,9999,9999,987388008
2610,21,Ticks_Linear_5,46,9999,9999,9999,987957360
2610,21,Ticks_Linear_5,47,9999,9999,9999,988527704
2610,21,Ticks_Linear_5,48,9999,9999,9999,989098088
2610,21,Ticks_Linear_5,49,9999,9999,9999,989667436
2610,21,Ticks_Linear_5,50,9999,9999,9999,990248012
2610,21,Ticks_Linear_5,51,9999,9999,9999,990827644
2610,21,Ticks_Linear_5,52,9999,9999,9999,991407172
2610,21,Ticks_Linear_5,53,9999,9999,9999,991987824
2610,21,Ticks_Linear_5,54,9999,9999,9999,992567356
2610,21,Ticks_Linear_5,55,9999,9999,9999,993157244
2610,21,Ticks_Linear_5,56,9999,9999,9999,993748080
2610,21,Ticks_Linear_5,57,9999,9999,9999,994337868
2610,21,Ticks_Linear_5,58,9999,9999,9999,994927684
2610,21,Ticks_Linear_5,59,9999,9999,9999,995517552
2610,21,Ticks_Linear_5,60,9999,9999,9999,996117608
2610,21,Ticks_Linear_5,61,9999,9999,9999,996717672
2610,21,Ticks_Linear_5,62,9999,9999,9999,997317720
2610,21,Ticks_Linear_5,63,9999,9999,9999,997917768
2610,21,Ticks_Linear_5,64,9999,9999,9999,998517852
2610,21,Ticks_Linear_5,65,9999,9999,9999,999127104
2610,21,Ticks_Linear_5,66,9999,9999,9999,999737420
2610,21,Ticks_Linear_5,67,9999,9999,9999,1000347752
2610,21,Ticks_Linear_5,68,9999,9999,9999,1000958060
2610,21,Ticks_Linear_5,69,9999,9999,9999,1001567348
2610,21,Ticks_Linear_5,70,9999,9999,9999,1002187840
2610,21,Ticks_Linear_5,71,9999,9999,9999,1002807360
2610,21,Ticks_Linear_5,72,9999,9999,9999,1003427944
2610,21,Ticks_Linear_5,73,9999,9999,9999,1004047472
2610,21,Ticks_Linear_5,74,9999,9999,9999,1004667984
2610,21,Ticks_Linear_5,75,9999,9999,9999,1005297760
2610,21,Ticks_Linear_5,76,9999,9999,9999,1005927496
2610,21,Ticks_Linear_5,77,9999,9999,9999,1006557268
2610,21,Ticks_Linear_5,78,9999,9999,9999,1007188092
2610,21,Ticks_Linear_5,79,9999,9999,9999,1007817824
2610,21,Ticks_Linear_5,80,9999,9999,9999,1008457788
2610,21,Ticks_Linear_5,81,9999,9999,9999,1009097852
2610,21,Ticks_Linear_5,82,9999,9999,9999,1009737816
2610,21,Ticks_Linear_5,83,9999,9999,9999,1010377808
2610,21,Ticks_Linear_5,84,9999,9999,9999,1011017844
2610,21,Ticks_Linear_5,85,9999,9999,9999,1011668024
2610,21,Ticks_Linear_5,86,9999,9999,9999,1012317292
2610,21,Ticks_Linear_5,87,9999,9999,9999,1012967516
2610,21,Ticks_Linear_5,88,9999,9999,9999,1013617768
2610,21,Ticks_Linear_5,89,9999,9999,9999,1014267984
2610,21,Ticks_Linear_5,90,9999,9999,9999,1014927448
2610,21,Ticks_Linear_5,91,9999,9999,9999,1015587936
2610,21,Ticks_Linear_5,92,9999,9999,9999,1016247388
2610,21,Ticks_Linear_5,93,9999,9999,9999,1016907876
2610,21,Ticks_Linear_5,94,9999,9999,9999,1017567328
2610,21,Ticks_Linear_5,95,9999,9999,9999,1018238020
2610,21,Ticks_Linear_5,96,9999,9999,9999,1018907720
2610,21,Ticks_Linear_5,97,9999,9999,9999,1019577432
2610,21,Ticks_Linear_5,98,9999,9999,9999,1020247152
2610,21,Ticks_Linear_5,99,9999,9999,9999,1020917824
2610,21,Ticks_Linear_5,100,9999,9999,9999,1021597796
2610,21,Ticks_Linear_5,101,9999,9999,9999,1022277748
2610,21,Ticks_Linear_5,102,9999,9999,9999,1022957660
2610,21,Ticks_Linear_5,103,9999,9999,9999,1023637564
2610,21,Ticks_Linear_5,104,9999,9999,9999,1024317508
2610,21,Ticks_Linear_5,105,9999,9999,9999,1025007676
2610,21,Ticks_Linear_5,106,9999,9999,9999,1025697912
2610,21,Ticks_Linear_5,107,9999,9999,9999,1026388048
2610,21,Ticks_Linear_5,108,9999,9999,9999,1027077240
2610,21,Ticks_Linear_5,109,9999,9999,9999,1027767400
2610,21,Ticks_Linear_5,110,9999,9999,9999,1028467824
2610,21,Ticks_Linear_5,111,9999,9999,9999,1029167172
2610,21,Ticks_Linear_5,112,9999,9999,9999,1029867596
2610,21,Ticks_Linear_5,113,9999,9999,9999,1030568016
2610,21,Ticks_Linear_5,114,9999,9999,9999,1031267392
2610,21,Ticks_Linear_5,115,9999,9999,9999,1031978076
2610,21,Ticks_Linear_5,116,9999,9999,9999,1032687684
2610,21,Ticks_Linear_5,117,9999,9999,9999,1033397320
2610,21,Ticks_Linear_5,118,9999,9999,9999,1034108004
2610,21,Ticks_Linear_5,119,9999,9999,9999,1034817612
2610,21,Ticks_Linear_5,120,9999,9999,9999,1035537508
2610,21,Ticks_Linear_5,121,9999,9999,9999,1036257336
2610,21,Ticks_Linear_5,122,9999,9999,9999,1036977228
2610,21,Ticks_Linear_5,123,9999,9999,9999,1037697112
2610,21,Ticks_Linear_5,124,9999,9999,9999,1038418024
2610,21,Ticks_Linear_5,125,9999,9999,9999,1039147116
2610,21,Ticks_Linear_5,126,9999,9999,9999,1039877188
2610,21,Ticks_Linear_5,127,9999,9999,9999,1040607340
2610,21,Ticks_Linear_5,128,9999,9999,9999,1041337424
2610,21,Ticks_Linear_5,129,9999,9999,9999,1042067576
2610,21,Ticks_Linear_5,130,9999,9999,9999,1042807912
2610,21,Ticks_Linear_5,131,9999,9999,9999,1043547200
2610,21,Ticks_Linear_5,132,9999,9999,9999,1044287592
2610,21,Ticks_Linear_5,133,9999,9999,9999,1045027928
2610,21,Ticks_Linear_5,134,9999,9999,9999,1045767292
2610,21,Ticks_Linear_5,135,9999,9999,9999,1046517880
2610,21,Ticks_Linear_5,136,9999,9999,9999,1047267432
2610,21,Ticks_Linear_5,137,9999,9999,9999,1048018028
2610,21,Ticks_Linear_5,138,9999,9999,9999,1048767576
2610,21,Ticks_Linear_5,139,9999,9999,9999,1049517132
2610,21,Ticks_Linear_5,140,9999,9999,9999,1050277984
2610,21,Ticks_Linear_5,141,9999,9999,9999,1051037792
2610,21,Ticks_Linear_5,142,9999,9999,9999,1051797604
2610,21,Ticks_Linear_5,143,9999,9999,9999,1052557412
2610,21,Ticks_Linear_5,144,9999,9999,9999,1053317216
2610,21,Ticks_Linear_5,145,9999,9999,9999,1054087284
2610,21,Ticks_Linear_5,146,9999,9999,9999,1054857276
2610,21,Ticks_Linear_5,147,9999,9999,9999,1055627352
2610,21,Ticks_Linear_5,148,9999,9999,9999,1056397416
2610,21,Ticks_Linear_5,149,9999,9999,9999,1057167480
2610,21,Ticks_Linear_5,150,9999,9999,9999,1057947732
2610,21,Ticks_Linear_5,151,9999,9999,9999,1058728060
2610,21,Ticks_Linear_5,152,9999,9999,9999,1059507268
2610,21,Ticks_Linear_5,153,9999,9999,9999,1060287596
2610,21,Ticks_Linear_5,154,9999,9999,9999,1061067848
2610,21,Ticks_Linear_5,155,9999,9999,9999,1061857388
2610,21,Ticks_Linear_5,156,9999,9999,9999,1062647896
2610,21,Ticks_Linear_5,157,9999,9999,9999,1063437368
2610,21,Ticks_Linear_5,158,9999,9999,9999,1064227948
2610,21,Ticks_Linear_5,159,9999,9999,9999,1065017412
2610,21,Ticks_Linear_5,160,9999,9999,9999,1065817160
2610,21,Ticks_Linear_5,161,9999,9999,9999,1066617932
2610,21,Ticks_Linear_5,162,9999,9999,9999,1067417652
2610,21,Ticks_Linear_5,163,9999,9999,9999,1068217452
2610,21,Ticks_Linear_5,164,9999,9999,9999,1069017176
2610,21,Ticks_Linear_5,165,9999,9999,9999,1069827160
2610,21,Ticks_Linear_5,166,9999,9999,9999,1070637144
2610,21,Ticks_Linear_5,167,9999,9999,9999,1071447148
2610,21,Ticks_Linear_5,168,9999,9999,9999,1072257136
2610,21,Ticks_Linear_5,169,9999,9999,9999,1073067112
2611,24,Jits_Pract_8,0,5,56,103,1137416768
2611,24,Jits_Pract_8,1,5,63,98,1137419944
2611,24,Jits_Pract_8,2,5,80,127,1137422988
2611,24,Jits_Pract_8,0,5,56,103,1138217308
2611,24,Jits_Pract_8,1,5,63,98,1138220404
2611,24,Jits_Pract_8,2,5,80,127,1138223600
2611,24,Jits_Pract_8,0,5,80,127,1138956652
2611,24,Jits_Pract_8,1,5,63,98,1139046812
2611,24,Jits_Pract_8,2,5,56,103,1139056936
2611,24,Jits_Pract_8,0,5,56,103,1139776840
2611,24,Jits_Pract_8,1,5,63,98,1139787112
2611,24,Jits_Pract_8,2,5,80,127,1139877192
2611,24,Jits_Pract_8,0,5,63,98,1140546904
2611,24,Jits_Pract_8,1,5,80,127,1140576680
2611,24,Jits_Pract_8,2,5,56,103,1140607472
2611,24,Jits_Pract_8,0,5,56,103,1141346788
2611,24,Jits_Pract_8,1,5,80,127,1141446888
2611,24,Jits_Pract_8,2,5,63,98,1141497164
2611,24,Jits_Pract_8,0,5,56,103,1142146752
2611,24,Jits_Pract_8,1,5,80,127,1142196656
2611,24,Jits_Pract_8,2,5,63,98,1142236444
2611,24,Jits_Pract_8,0,5,80,127,1142976824
2611,24,Jits_Pract_8,1,5,63,98,1143006504
2611,24,Jits_Pract_8,2,5,56,103,1143077376
2611,24,Jits_Pract_8,0,5,63,98,1143807428
2611,24,Jits_Pract_8,1,5,56,103,1143837028
2611,24,Jits_Pract_8,2,5,80,127,1143896320
2611,24,Jits_Pract_8,0,5,56,103,1144546692
2611,24,Jits_Pract_8,1,5,80,127,1144549608
2611,24,Jits_Pract_8,2,5,63,98,1144666588
2611,24,Jits_Pract_8,0,5,56,103,1145427576
2611,24,Jits_Pract_8,1,5,80,127,1145467440
2611,24,Jits_Pract_8,2,5,63,98,1145476664
2611,24,Jits_Pract_8,0,5,56,103,1146187212
2611,24,Jits_Pract_8,1,5,80,127,1146206500
2611,24,Jits_Pract_8,2,5,63,98,1146286592
2611,24,Jits_Pract_8,0,5,80,127,1146976484
2611,24,Jits_Pract_8,1,5,56,103,1147076960
2611,24,Jits_Pract_8,2,5,63,98,1147087228
2611,24,Jits_Pract_8,0,5,63,98,1147746628
2611,24,Jits_Pract_8,1,5,80,127,1147807168
2611,24,Jits_Pract_8,2,5,56,103,1147817288
2611,24,Jits_Pract_8,0,5,56,103,1148546492
2611,24,Jits_Pract_8,1,5,63,98,1148617220
2611,24,Jits_Pract_8,2,5,80,127,1148620512
2611,24,Jits_Pract_8,0,9999,9999,9999,1137814652
2611,24,Jits_Pract_8,1,9999,9999,9999,1138614368
2611,24,Jits_Pract_8,2,9999,9999,9999,1139414100
2611,24,Jits_Pract_8,3,9999,9999,9999,1140214880
2611,24,Jits_Pract_8,4,9999,9999,9999,1141014608
2611,24,Jits_Pract_8,5,9999,9999,9999,1141814328
2611,24,Jits_Pract_8,6,9999,9999,9999,1142614088
2611,24,Jits_Pract_8,7,9999,9999,9999,1143414868
2611,24,Jits_Pract_8,8,9999,9999,9999,1144214608
2611,24,Jits_Pract_8,9,9999,9999,9999,1145014392
2611,24,Jits_Pract_8,10,9999,9999,9999,1145814132
2611,24,Jits_Pract_8,11,9999,9999,9999,1146614840
2611,24,Jits_Pract_8,12,9999,9999,9999,1147414580
2611,24,Jits_Pract_8,13,9999,9999,9999,1148214384
2611,24,Jits_Pract_8,14,9999,9999,9999,1149014120
2612,25,Jits_Pract_5,0,5,56,103,1157337420
2612,25,Jits_Pract_5,1,5,63,98,1157340816
2612,25,Jits_Pract_5,2,5,80,127,1157343932
2612,25,Jits_Pract_5,0,5,56,103,1157838116
2612,25,Jits_Pract_5,1,5,63,98,1157841284
2612,25,Jits_Pract_5,2,5,80,127,1157844332
2612,25,Jits_Pract_5,0,5,56,103,1158337856
2612,25,Jits_Pract_5,1,5,80,127,1158348052
2612,25,Jits_Pract_5,2,5,63,98,1158367612
2612,25,Jits_Pract_5,0,5,63,98,1158787552
2612,25,Jits_Pract_5,1,5,80,127,1158818052
2612,25,Jits_Pract_5,2,5,56,103,1158828696
2612,25,Jits_Pract_5,0,5,80,127,1159347516
2612,25,Jits_Pract_5,1,5,56,103,1159357712
2612,25,Jits_Pract_5,2,5,63,98,1159387684
2612,25,Jits_Pract_5,0,5,63,98,1159838272
2612,25,Jits_Pract_5,1,5,56,103,1159867800
2612,25,Jits_Pract_5,2,5,80,127,1159878216
2612,25,Jits_Pract_5,0,5,56,103,1160287732
2612,25,Jits_Pract_5,1,5,63,98,1160337784
2612,25,Jits_Pract_5,2,5,80,127,1160358172
2612,25,Jits_Pract_5,0,5,80,127,1160788448
2612,25,Jits_Pract_5,1,5,63,98,1160837604
2612,25,Jits_Pract_5,2,5,56,103,1160877468
2612,25,Jits_Pract_5,0,5,56,103,1161288164
2612,25,Jits_Pract_5,1,5,63,98,1161317792
2612,25,Jits_Pract_5,2,5,80,127,1161388592
2612,25,Jits_Pract_5,0,5,56,103,1161787908
2612,25,Jits_Pract_5,1,5,80,127,1161848176
2612,25,Jits_Pract_5,2,5,63,98,1161877852
2612,25,Jits_Pract_5,0,5,56,103,1162297844
2612,25,Jits_Pract_5,1,5,63,98,1162307888
2612,25,Jits_Pract_5,2,5,80,127,1162347776
2612,25,Jits_Pract_5,0,5,63,98,1162788068
2612,25,Jits_Pract_5,1,5,80,127,1162868040
2612,25,Jits_Pract_5,2,5,56,103,1162878532
2612,25,Jits_Pract_5,0,5,63,98,1163338072
2612,25,Jits_Pract_5,1,5,56,103,1163378032
2612,25,Jits_Pract_5,2,5,80,127,1163381024
2612,25,Jits_Pract_5,0,5,56,103,1163797936
2612,25,Jits_Pract_5,1,5,63,98,1163807980
2612,25,Jits_Pract_5,2,5,80,127,1163848068
2612,25,Jits_Pract_5,0,5,56,103,1164288612
2612,25,Jits_Pract_5,1,5,63,98,1164291672
2612,25,Jits_Pract_5,2,5,80,127,1164307872
2612,25,Jits_Pract_5,0,9999,9999,9999,1157585972
2612,25,Jits_Pract_5,1,9999,9999,9999,1158085700
2612,25,Jits_Pract_5,2,9999,9999,9999,1158585444
2612,25,Jits_Pract_5,3,9999,9999,9999,1159085112
2612,25,Jits_Pract_5,4,9999,9999,9999,1159585892
2612,25,Jits_Pract_5,5,9999,9999,9999,1160085564
2612,25,Jits_Pract_5,6,9999,9999,9999,1160585292
2612,25,Jits_Pract_5,7,9999,9999,9999,1161086008
2612,25,Jits_Pract_5,8,9999,9999,9999,1161585748
2612,25,Jits_Pract_5,9,9999,9999,9999,1162085492
2612,25,Jits_Pract_5,10,9999,9999,9999,1162585164
2612,25,Jits_Pract_5,11,9999,9999,9999,1163085876
2612,25,Jits_Pract_5,12,9999,9999,9999,1163585652
2612,25,Jits_Pract_5,13,9999,9999,9999,1164085304
2612,25,Jits_Pract_5,14,9999,9999,9999,1164586080
2613,15,Jits_Phase_8,0,5,56,103,1225730452
2613,15,Jits_Phase_8,1,5,63,98,1225733772
2613,15,Jits_Phase_8,2,5,80,127,1225736816
2613,15,Jits_Phase_8,0,5,56,103,1226531140
2613,15,Jits_Phase_8,1,5,63,98,1226534160
2613,15,Jits_Phase_8,2,5,80,127,1226537584
2613,15,Jits_Phase_8,0,5,80,127,1227270784
2613,15,Jits_Phase_8,1,5,63,98,1227360724
2613,15,Jits_Phase_8,2,5,56,103,1227370992
2613,15,Jits_Phase_8,0,5,56,103,1228090680
2613,15,Jits_Phase_8,1,5,63,98,1228101100
2613,15,Jits_Phase_8,2,5,80,127,1228191080
2613,15,Jits_Phase_8,0,5,63,98,1228860648
2613,15,Jits_Phase_8,1,5,80,127,1228890792
2613,15,Jits_Phase_8,2,5,56,103,1228921140
2613,15,Jits_Phase_8,0,5,56,103,1229660680
2613,15,Jits_Phase_8,1,5,80,127,1229760932
2613,15,Jits_Phase_8,2,5,63,98,1229811056
2613,15,Jits_Phase_8,0,5,56,103,1230461392
2613,15,Jits_Phase_8,1,5,80,127,1230510400
2613,15,Jits_Phase_8,2,1,48,50,1230543704
2613,15,Jits_Phase_8,3,5,63,98,1230551748
2613,15,Jits_Phase_8,0,5,80,127,1231290832
2613,15,Jits_Phase_8,1,1,48,49,1231304140
2613,15,Jits_Phase_8,2,5,63,98,1231320652
2613,15,Jits_Phase_8,3,5,56,103,1231391004
2613,15,Jits_Phase_8,0,5,63,98,1232121472
2613,15,Jits_Phase_8,1,1,48,46,1232135308
2613,15,Jits_Phase_8,2,5,56,103,1232150768
2613,15,Jits_Phase_8,3,5,80,127,1232211404
2613,15,Jits_Phase_8,0,5,56,103,1232860472
2613,15,Jits_Phase_8,1,5,80,127,1232863464
2613,15,Jits_Phase_8,2,1,48,43,1232955660
2613,15,Jits_Phase_8,3,5,63,98,1232981484
2613,15,Jits_Phase_8,0,1,48,48,1233725076
2613,15,Jits_Phase_8,1,5,56,103,1233741464
2613,15,Jits_Phase_8,2,5,80,127,1233780956
2613,15,Jits_Phase_8,3,5,63,98,1233791448
2613,15,Jits_Phase_8,0,5,56,103,1234501448
2613,15,Jits_Phase_8,1,1,48,44,1234516108
2613,15,Jits_Phase_8,2,5,80,127,1234520484
2613,15,Jits_Phase_8,3,5,63,98,1234601544
2613,15,Jits_Phase_8,0,5,80,127,1235290512
2613,15,Jits_Phase_8,1,1,48,46,1235337752
2613,15,Jits_Phase_8,2,5,56,103,1235390904
2613,15,Jits_Phase_8,3,5,63,98,1235401024
2613,15,Jits_Phase_8,0,5,63,98,1236060624
2613,15,Jits_Phase_8,1,5,80,127,1236120940
2613,15,Jits_Phase_8,2,5,56,103,1236131208
2613,15,Jits_Phase_8,3,1,48,48,1236173508
2613,15,Jits_Phase_8,0,5,56,103,1236861424
2613,15,Jits_Phase_8,1,1,48,41,1236904844
2613,15,Jits_Phase_8,2,5,63,98,1236930792
2613,15,Jits_Phase_8,3,5,80,127,1236934384
2613,15,Jits_Phase_8,0,1,48,38,1237683256
2613,15,Jits_Phase_8,1,5,63,98,1237690776
2613,15,Jits_Phase_8,2,5,56,103,1237741124
2613,15,Jits_Phase_8,3,5,80,127,1237744264
2613,15,Jits_Phase_8,0,5,56,103,1238450516
2613,15,Jits_Phase_8,1,5,80,127,1238453584
2613,15,Jits_Phase_8,2,1,48,41,1238477452
2613,15,Jits_Phase_8,3,5,63,98,1238540720
2613,15,Jits_Phase_8,0,1,48,42,1239267396
2613,15,Jits_Phase_8,1,5,63,98,1239291252
2613,15,Jits_Phase_8,2,5,56,103,1239381472
2613,15,Jits_Phase_8,3,5,80,127,1239411220
2613,15,Jits_Phase_8,0,5,56,103,1240080684
2613,15,Jits_Phase_8,1,1,48,42,1240093096
2613,15,Jits_Phase_8,2,5,63,98,1240181248
2613,15,Jits_Phase_8,3,5,80,127,1240210684
2613,15,Jits_Phase_8,0,5,63,98,1240901160
2613,15,Jits_Phase_8,1,1,48,43,1240903172
2613,15,Jits_Phase_8,2,5,56,103,1240911352
2613,15,Jits_Phase_8,3,5,80,127,1241001316
2613,15,Jits_Phase_8,0,1,48,43,1241683432
2613,15,Jits_Phase_8,1,5,63,98,1241721072
2613,15,Jits_Phase_8,2,5,56,103,1241800996
2613,15,Jits_Phase_8,3,5,80,127,1241804064
2613,15,Jits_Phase_8,0,5,80,127,1242481120
2613,15,Jits_Phase_8,1,5,63,98,1242500532
2613,15,Jits_Phase_8,2,1,48,43,1242516980
2613,15,Jits_Phase_8,3,5,56,103,1242561064
2613,15,Jits_Phase_8,0,1,48,45,1243296360
2613,15,Jits_Phase_8,1,5,56,103,1243320816
2613,15,Jits_Phase_8,2,5,63,98,1243341124
2613,15,Jits_Phase_8,3,5,80,127,1243344340
2613,15,Jits_Phase_8,0,5,63,98,1244061084
2613,15,Jits_Phase_8,1,1,48,35,1244082036
2613,15,Jits_Phase_8,2,5,80,127,1244141096
2613,15,Jits_Phase_8,3,5,56,103,1244151144
2613,15,Jits_Phase_8,0,1,48,40,1244846784
2613,15,Jits_Phase_8,1,5,63,98,1244881212
2613,15,Jits_Phase_8,2,5,56,103,1244900848
2613,15,Jits_Phase_8,3,5,80,127,1244950884
2613,15,Jits_Phase_8,0,1,48,41,1245618144
2613,15,Jits_Phase_8,1,5,80,127,1245680968
2613,15,Jits_Phase_8,2,5,63,98,1245720968
2613,15,Jits_Phase_8,3,5,56,103,1245741352
2613,15,Jits_Phase_8,0,1,48,51,1246445024
2613,15,Jits_Phase_8,1,5,56,103,1246520880
2613,15,Jits_Phase_8,2,5,63,98,1246530852
2613,15,Jits_Phase_8,3,5,80,127,1246551320
2613,15,Jits_Phase_8,0,5,56,103,1247250964
2613,15,Jits_Phase_8,1,1,48,55,1247267264
2613,15,Jits_Phase_8,2,5,63,98,1247340896
2613,15,Jits_Phase_8,3,5,80,127,1247401268
2613,15,Jits_Phase_8,0,1,48,54,1248077920
2613,15,Jits_Phase_8,1,5,80,127,1248081176
2613,15,Jits_Phase_8,2,5,56,103,1248090772
2613,15,Jits_Phase_8,3,5,63,98,1248161052
2613,15,Jits_Phase_8,0,1,48,59,1248841568
2613,15,Jits_Phase_8,1,5,63,98,1248910824
2613,15,Jits_Phase_8,2,5,80,127,1249000796
2613,15,Jits_Phase_8,3,5,56,103,1249010916
2613,15,Jits_Phase_8,0,5,63,98,1249640772
2613,15,Jits_Phase_8,1,1,48,56,1249674228
2613,15,Jits_Phase_8,2,5,80,127,1249691040
2613,15,Jits_Phase_8,3,5,56,103,1249751428
2613,15,Jits_Phase_8,0,1,48,49,1250441984
2613,15,Jits_Phase_8,1,5,56,103,1250460968
2613,15,Jits_Phase_8,2,5,80,127,1250511096
2613,15,Jits_Phase_8,3,5,63,98,1250530808
2613,15,Jits_Phase_8,0,5,56,103,1251231208
2613,15,Jits_Phase_8,1,1,48,53,1251240628
2613,15,Jits_Phase_8,2,5,80,127,1251290772
2613,15,Jits_Phase_8,3,5,63,98,1251361112
2613,15,Jits_Phase_8,0,5,56,103,1252030832
2613,15,Jits_Phase_8,1,1,48,51,1252055672
2613,15,Jits_Phase_8,2,5,80,127,1252060500
2613,15,Jits_Phase_8,3,5,63,98,1252091224
2613,15,Jits_Phase_8,0,1,48,46,1252826732
2613,15,Jits_Phase_8,1,5,56,103,1252870748
2613,15,Jits_Phase_8,2,5,80,127,1252890984
2613,15,Jits_Phase_8,3,5,63,98,1252951532
2613,15,Jits_Phase_8,0,1,48,49,1253645972
2613,15,Jits_Phase_8,1,5,80,127,1253751056
2613,15,Jits_Phase_8,2,5,56,103,1253761476
2613,15,Jits_Phase_8,3,5,63,98,1253770552
2613,15,Jits_Phase_8,0,1,48,52,1254464396
2613,15,Jits_Phase_8,1,5,56,103,1254510904
2613,15,Jits_Phase_8,2,5,80,127,1254550772
2613,15,Jits_Phase_8,3,5,63,98,1254580580
2613,15,Jits_Phase_8,0,1,48,49,1255266056
2613,15,Jits_Phase_8,1,5,56,103,1255280924
2613,15,Jits_Phase_8,2,5,63,98,1255310824
2613,15,Jits_Phase_8,3,5,80,127,1255350612
2613,15,Jits_Phase_8,0,5,80,127,1256030568
2613,15,Jits_Phase_8,1,1,48,48,1256052492
2613,15,Jits_Phase_8,2,5,63,98,1256080616
2613,15,Jits_Phase_8,3,5,56,103,1256101448
2613,15,Jits_Phase_8,0,1,48,51,1256835088
2613,15,Jits_Phase_8,1,5,56,103,1256861040
2613,15,Jits_Phase_8,2,5,80,127,1256931228
2613,15,Jits_Phase_8,3,5,63,98,1256991020
2613,15,Jits_Phase_8,0,1,48,47,1257633500
2613,15,Jits_Phase_8,1,5,80,127,1257660728
2613,15,Jits_Phase_8,2,5,63,98,1257750848
2613,15,Jits_Phase_8,3,5,56,103,1257771528
2613,15,Jits_Phase_8,0,1,48,49,1258455288
2613,15,Jits_Phase_8,1,5,63,98,1258480944
2613,15,Jits_Phase_8,2,5,56,103,1258500432
2613,15,Jits_Phase_8,3,5,80,127,1258541416
2613,15,Jits_Phase_8,0,1,48,46,1259201180
2613,15,Jits_Phase_8,1,5,80,127,1259240692
2613,15,Jits_Phase_8,2,5,63,98,1259261300
2613,15,Jits_Phase_8,3,5,56,103,1259341400
2613,15,Jits_Phase_8,0,1,48,44,1259979360
2613,15,Jits_Phase_8,1,5,63,98,1260031448
2613,15,Jits_Phase_8,2,5,56,103,1260141000
2613,15,Jits_Phase_8,3,5,80,127,1260144064
2613,15,Jits_Phase_8,0,1,48,54,1260762320
2613,15,Jits_Phase_8,1,5,63,98,1260850532
2613,15,Jits_Phase_8,2,5,56,103,1260860704
2613,15,Jits_Phase_8,3,5,80,127,1260863924
2613,15,Jits_Phase_8,0,1,48,61,1261562656
2613,15,Jits_Phase_8,1,5,56,103,1261631012
2613,15,Jits_Phase_8,2,5,80,127,1261750752
2613,15,Jits_Phase_8,3,5,63,98,1261790688
2613,15,Jits_Phase_8,0,1,48,53,1262377620
2613,15,Jits_Phase_8,1,5,56,103,1262451252
2613,15,Jits_Phase_8,2,5,80,127,1262530812
2613,15,Jits_Phase_8,3,5,63,98,1262551496
2613,15,Jits_Phase_8,0,1,48,61,1263166588
2613,15,Jits_Phase_8,1,5,56,103,1263250932
2613,15,Jits_Phase_8,2,5,63,98,1263361352
2613,15,Jits_Phase_8,3,5,80,127,1263364640
2613,15,Jits_Phase_8,0,1,48,58,1263952136
2613,15,Jits_Phase_8,1,5,56,103,1264090604
2613,15,Jits_Phase_8,2,5,80,127,1264121176
2613,15,Jits_Phase_8,3,5,63,98,1264140664
2613,15,Jits_Phase_8,0,1,48,52,1264806352
2613,15,Jits_Phase_8,1,5,63,98,1264881084
2613,15,Jits_Phase_8,2,5,56,103,1264891208
2613,15,Jits_Phase_8,3,5,80,127,1264900416
2613,15,Jits_Phase_8,0,1,48,54,1265616000
2613,15,Jits_Phase_8,1,5,80,127,1265670576
2613,15,Jits_Phase_8,2,5,56,103,1265720764
2613,15,Jits_Phase_8,3,5,63,98,1265760504
2613,15,Jits_Phase_8,0,1,48,52,1266375220
2613,15,Jits_Phase_8,1,5,80,127,1266490696
2613,15,Jits_Phase_8,2,5,63,98,1266511184
2613,15,Jits_Phase_8,3,5,56,103,1266561384
2613,15,Jits_Phase_8,0,1,48,58,1267219944
2613,15,Jits_Phase_8,1,5,80,127,1267300832
2613,15,Jits_Phase_8,2,5,56,103,1267330492
2613,15,Jits_Phase_8,3,5,63,98,1267401216
2613,15,Jits_Phase_8,0,1,48,51,1268051344
2613,15,Jits_Phase_8,1,5,56,103,1268150924
2613,15,Jits_Phase_8,2,5,80,127,1268161044
2613,15,Jits_Phase_8,3,5,63,98,1268201056
2613,15,Jits_Phase_8,0,5,56,103,1268861328
2613,15,Jits_Phase_8,1,5,63,98,1268880888
2613,15,Jits_Phase_8,2,1,48,56,1268905208
2613,15,Jits_Phase_8,3,5,80,127,1268951384
2613,15,Jits_Phase_8,0,5,63,98,1269680500
2613,15,Jits_Phase_8,1,1,48,53,1269683324
2613,15,Jits_Phase_8,2,5,80,127,1269740960
2613,15,Jits_Phase_8,3,5,56,103,1269761268
2613,15,Jits_Phase_8,0,5,80,127,1270470968
2613,15,Jits_Phase_8,1,1,48,51,1270481656
2613,15,Jits_Phase_8,2,5,56,103,1270500860
2613,15,Jits_Phase_8,3,5,63,98,1270530388
2613,15,Jits_Phase_8,0,1,48,57,1271234284
2613,15,Jits_Phase_8,1,5,56,103,1271270952
2613,15,Jits_Phase_8,2,5,63,98,1271331120
2613,15,Jits_Phase_8,3,5,80,127,1271390696
2613,15,Jits_Phase_8,0,1,48,52,1272066340
2613,15,Jits_Phase_8,1,5,80,127,1272090872
2613,15,Jits_Phase_8,2,5,56,103,1272110432
2613,15,Jits_Phase_8,3,5,63,98,1272181092
2613,15,Jits_Phase_8,0,5,80,127,1272890932
2613,15,Jits_Phase_8,1,1,48,54,1272908528
2613,15,Jits_Phase_8,2,5,63,98,1272911188
2613,15,Jits_Phase_8,3,5,56,103,1272940860
2613,15,Jits_Phase_8,0,5,80,127,1273681212
2613,15,Jits_Phase_8,1,5,63,98,1273700700
2613,15,Jits_Phase_8,2,1,48,51,1273722696
2613,15,Jits_Phase_8,3,5,56,103,1273761156
2613,15,Jits_Phase_8,0,5,80,127,1274480908
2613,15,Jits_Phase_8,1,1,48,54,1274501636
2613,15,Jits_Phase_8,2,5,56,103,1274581448
2613,15,Jits_Phase_8,3,5,63,98,1274610960
2613,15,Jits_Phase_8,0,5,63,98,1275270496
2613,15,Jits_Phase_8,1,1,48,48,1275320172
2613,15,Jits_Phase_8,2,5,80,127,1275321888
2613,15,Jits_Phase_8,3,5,56,103,1275341152
2613,15,Jits_Phase_8,0,1,48,54,1276105804
2613,15,Jits_Phase_8,1,5,80,127,1276111152
2613,15,Jits_Phase_8,2,5,56,103,1276140976
2613,15,Jits_Phase_8,3,5,63,98,1276144336
2613,15,Jits_Phase_8,0,1,48,48,1276906752
2613,15,Jits_Phase_8,1,5,63,98,1276961100
2613,15,Jits_Phase_8,2,5,56,103,1277001068
2613,15,Jits_Phase_8,3,5,80,127,1277020764
2613,15,Jits_Phase_8,0,1,48,56,1277713564
2613,15,Jits_Phase_8,1,5,80,127,1277720936
2613,15,Jits_Phase_8,2,5,63,98,1277800832
2613,15,Jits_Phase_8,3,5,56,103,1277840752
2613,15,Jits_Phase_8,0,1,48,67,1278536424
2613,15,Jits_Phase_8,1,5,63,98,1278541252
2613,15,Jits_Phase_8,2,5,80,127,1278620976
2613,15,Jits_Phase_8,3,5,56,103,1278640448
2613,15,Jits_Phase_8,0,5,56,103,1279380808
2613,15,Jits_Phase_8,1,5,63,98,1279391300
2613,15,Jits_Phase_8,2,1,48,62,1279398832
2613,15,Jits_Phase_8,3,5,80,127,1279431008
2613,15,Jits_Phase_8,0,5,56,103,1280100792
2613,15,Jits_Phase_8,1,5,80,127,1280103708
2613,15,Jits_Phase_8,2,1,48,63,1280203616
2613,15,Jits_Phase_8,3,5,63,98,1280240956
2613,15,Jits_Phase_8,0,5,56,103,1280891476
2613,15,Jits_Phase_8,1,5,63,98,1280981388
2613,15,Jits_Phase_8,2,1,48,58,1281046912
2613,15,Jits_Phase_8,3,5,80,127,1281051064
2613,15,Jits_Phase_8,0,5,63,98,1281770892
2613,15,Jits_Phase_8,1,5,80,127,1281774328
2613,15,Jits_Phase_8,2,5,56,103,1281831504
2613,15,Jits_Phase_8,3,1,48,63,1281833220
2613,15,Jits_Phase_8,0,5,80,127,1282610504
2613,15,Jits_Phase_8,1,5,56,103,1282630988
2613,15,Jits_Phase_8,2,1,48,62,1282631952
2613,15,Jits_Phase_8,3,5,63,98,1282641252
2613,15,Jits_Phase_8,0,5,56,103,1283321272
2613,15,Jits_Phase_8,1,5,63,98,1283330420
2613,15,Jits_Phase_8,2,1,48,63,1283385224
2613,15,Jits_Phase_8,3,5,80,127,1283400944
2613,15,Jits_Phase_8,0,5,80,127,1284120968
2613,15,Jits_Phase_8,1,5,56,103,1284171196
2613,15,Jits_Phase_8,2,1,48,67,1284201964
2613,15,Jits_Phase_8,3,5,63,98,1284221168
2613,15,Jits_Phase_8,0,1,48,67,1284984040
2613,15,Jits_Phase_8,1,5,56,103,1285000480
2613,15,Jits_Phase_8,2,5,63,98,1285010676
2613,15,Jits_Phase_8,3,5,80,127,1285050688
2613,15,Jits_Phase_8,0,5,56,103,1285741056
2613,15,Jits_Phase_8,1,1,48,59,1285767920
2613,15,Jits_Phase_8,2,5,63,98,1285780768
2613,15,Jits_Phase_8,3,5,80,127,1285831192
2613,15,Jits_Phase_8,0,5,80,127,1286500600
2613,15,Jits_Phase_8,1,5,56,103,1286551100
2613,15,Jits_Phase_8,2,5,63,98,1286571484
2613,15,Jits_Phase_8,3,1,48,58,1286577896
2613,15,Jits_Phase_8,0,5,80,127,1287310700
2613,15,Jits_Phase_8,1,1,48,61,1287361468
2613,15,Jits_Phase_8,2,5,63,98,1287371008
2613,15,Jits_Phase_8,3,5,56,103,1287451172
2613,15,Jits_Phase_8,0,5,80,127,1288091140
2613,15,Jits_Phase_8,1,5,56,103,1288131080
2613,15,Jits_Phase_8,2,5,63,98,1288151392
2613,15,Jits_Phase_8,3,1,48,59,1288175404
2613,15,Jits_Phase_8,0,5,56,103,1288940956
2613,15,Jits_Phase_8,1,5,80,127,1288951076
2613,15,Jits_Phase_8,2,5,63,98,1288991016
2613,15,Jits_Phase_8,3,1,48,65,1288992280
2613,15,Jits_Phase_8,0,5,56,103,1289811180
2613,15,Jits_Phase_8,1,1,48,62,1289819028
2613,15,Jits_Phase_8,2,5,63,98,1289851188
2613,15,Jits_Phase_8,3,5,80,127,1289854548
2613,15,Jits_Phase_8,0,5,63,98,1290481088
2613,15,Jits_Phase_8,1,5,80,127,1290520880
2613,15,Jits_Phase_8,2,5,56,103,1290590732
2613,15,Jits_Phase_8,3,1,48,60,1290631536
2613,15,Jits_Phase_8,0,5,63,98,1291251028
2613,15,Jits_Phase_8,1,5,56,103,1291331220
2613,15,Jits_Phase_8,2,5,80,127,1291391236
2613,15,Jits_Phase_8,3,1,48,61,1291418096
2613,15,Jits_Phase_8,0,5,80,127,1292060900
2613,15,Jits_Phase_8,1,5,63,98,1292111276
2613,15,Jits_Phase_8,2,5,56,103,1292140952
2613,15,Jits_Phase_8,3,1,48,62,1292200188
2613,15,Jits_Phase_8,0,5,56,103,1292850404
2613,15,Jits_Phase_8,1,5,63,98,1292901004
2613,15,Jits_Phase_8,2,5,80,127,1292911124
2613,15,Jits_Phase_8,3,1,48,51,1292982864
2613,15,Jits_Phase_8,0,5,56,103,1293660460
2613,15,Jits_Phase_8,1,1,48,61,1293740304
2613,15,Jits_Phase_8,2,5,63,98,1293771116
2613,15,Jits_Phase_8,3,5,80,127,1293790824
2613,15,Jits_Phase_8,0,5,63,98,1294461284
2613,15,Jits_Phase_8,1,5,80,127,1294510664
2613,15,Jits_Phase_8,2,1,48,63,1294532664
2613,15,Jits_Phase_8,3,5,56,103,1294600636
2613,15,Jits_Phase_8,0,5,63,98,1295250924
2613,15,Jits_Phase_8,1,5,80,127,1295280676
2613,15,Jits_Phase_8,2,1,48,60,1295302524
2613,15,Jits_Phase_8,3,5,56,103,1295370872
2613,15,Jits_Phase_8,0,5,63,98,1296050752
2613,15,Jits_Phase_8,1,5,56,103,1296060876
2613,15,Jits_Phase_8,2,1,48,57,1296081600
2613,15,Jits_Phase_8,3,5,80,127,1296161112
2613,15,Jits_Phase_8,0,1,48,58,1296854512
2613,15,Jits_Phase_8,1,5,63,98,1296950804
2613,15,Jits_Phase_8,2,5,80,127,1296981328
2613,15,Jits_Phase_8,3,5,56,103,1297010928
2613,15,Jits_Phase_8,0,1,48,62,1297670544
2613,15,Jits_Phase_8,1,5,80,127,1297770824
2613,15,Jits_Phase_8,2,5,63,98,1297781096
2613,15,Jits_Phase_8,3,5,56,103,1297810768
2613,15,Jits_Phase_8,0,5,80,127,1298471160
2613,15,Jits_Phase_8,1,5,63,98,1298490948
2613,15,Jits_Phase_8,2,1,48,59,1298519200
2613,15,Jits_Phase_8,3,5,56,103,1298540868
2613,15,Jits_Phase_8,0,5,63,98,1299300700
2613,15,Jits_Phase_8,1,1,48,62,1299305692
2613,15,Jits_Phase_8,2,5,80,127,1299361160
2613,15,Jits_Phase_8,3,5,56,103,1299380496
2613,15,Jits_Phase_8,0,5,63,98,1300060676
2613,15,Jits_Phase_8,1,1,48,54,1300097800
2613,15,Jits_Phase_8,2,5,56,103,1300110724
2613,15,Jits_Phase_8,3,5,80,127,1300121068
2613,15,Jits_Phase_8,0,1,48,61,1300873880
2613,15,Jits_Phase_8,1,5,56,103,1300890920
2613,15,Jits_Phase_8,2,5,80,127,1300901116
2613,15,Jits_Phase_8,3,5,63,98,1301000668
2613,15,Jits_Phase_8,0,5,80,127,1301650900
2613,15,Jits_Phase_8,1,5,63,98,1301661020
2613,15,Jits_Phase_8,2,1,48,57,1301675600
2613,15,Jits_Phase_8,3,5,56,103,1301810464
2613,15,Jits_Phase_8,0,1,48,59,1302453332
2613,15,Jits_Phase_8,1,5,63,98,1302460852
2613,15,Jits_Phase_8,2,5,80,127,1302500716
2613,15,Jits_Phase_8,3,5,56,103,1302580568
2613,15,Jits_Phase_8,0,5,56,103,1303211388
2613,15,Jits_Phase_8,1,1,48,58,1303292724
2613,15,Jits_Phase_8,2,5,80,127,1303310660
2613,15,Jits_Phase_8,3,5,63,98,1303331044
2613,15,Jits_Phase_8,0,5,80,127,1304030724
2613,15,Jits_Phase_8,1,5,56,103,1304040920
2613,15,Jits_Phase_8,2,1,48,59,1304092136
2613,15,Jits_Phase_8,3,5,63,98,1304130920
2613,15,Jits_Phase_8,0,5,56,103,1304831320
2613,15,Jits_Phase_8,1,1,48,66,1304834140
2613,15,Jits_Phase_8,2,5,63,98,1304850652
2613,15,Jits_Phase_8,3,5,80,127,1304930604
2613,15,Jits_Phase_8,0,5,63,98,1305580900
2613,15,Jits_Phase_8,1,1,48,67,1305636456
2613,15,Jits_Phase_8,2,5,56,103,1305670896
2613,15,Jits_Phase_8,3,5,80,127,1305674044
2613,15,Jits_Phase_8,0,5,56,103,1306411364
2613,15,Jits_Phase_8,1,1,48,62,1306413808
2613,15,Jits_Phase_8,2,5,80,127,1306470728
2613,15,Jits_Phase_8,3,5,63,98,1306481000
2613,15,Jits_Phase_8,0,1,48,64,1307202216
2613,15,Jits_Phase_8,1,5,80,127,1307261428
2613,15,Jits_Phase_8,2,5,56,103,1307270576
2613,15,Jits_Phase_8,3,5,63,98,1307273568
2613,15,Jits_Phase_8,0,1,48,64,1308018660
2613,15,Jits_Phase_8,1,5,56,103,1308021248
2613,15,Jits_Phase_8,2,5,80,127,1308031296
2613,15,Jits_Phase_8,3,5,63,98,1308051304
2613,15,Jits_Phase_8,0,5,63,98,1308791340
2613,15,Jits_Phase_8,1,1,48,62,1308814392
2613,15,Jits_Phase_8,2,5,80,127,1308850456
2613,15,Jits_Phase_8,3,5,56,103,1308900656
2613,15,Jits_Phase_8,0,1,48,63,1309595712
2613,15,Jits_Phase_8,1,5,63,98,1309671112
2613,15,Jits_Phase_8,2,5,56,103,1309681236
2613,15,Jits_Phase_8,3,5,80,127,1309731344
2613,15,Jits_Phase_8,0,5,63,98,1310371240
2613,15,Jits_Phase_8,1,5,80,127,1310390580
2613,15,Jits_Phase_8,2,5,56,103,1310400996
2613,15,Jits_Phase_8,3,1,48,67,1310425084
2613,15,Jits_Phase_8,0,5,63,98,1311171064
2613,15,Jits_Phase_8,1,5,80,127,1311174204
2613,15,Jits_Phase_8,2,1,48,65,1311200184
2613,15,Jits_Phase_8,3,5,56,103,1311211144
2613,15,Jits_Phase_8,0,1,48,59,1311971596
2613,15,Jits_Phase_8,1,5,63,98,1312041300
2613,15,Jits_Phase_8,2,5,80,127,1312071584
2613,15,Jits_Phase_8,3,5,56,103,1312081260
2613,15,Jits_Phase_8,0,1,48,65,1312750156
2613,15,Jits_Phase_8,1,5,56,103,1312791084
2613,15,Jits_Phase_8,2,5,80,127,1312820540
2613,15,Jits_Phase_8,3,5,63,98,1312851272
2613,15,Jits_Phase_8,0,1,48,67,1313542936
2613,15,Jits_Phase_8,1,5,63,98,1313691020
2613,15,Jits_Phase_8,2,5,56,103,1313731108
2613,15,Jits_Phase_8,3,5,80,127,1313734172
2613,15,Jits_Phase_8,0,1,48,68,1314344412
2613,15,Jits_Phase_8,1,5,80,127,1314391444
2613,15,Jits_Phase_8,2,5,56,103,1314471152
2613,15,Jits_Phase_8,3,5,63,98,1314520452
2613,15,Jits_Phase_8,0,1,48,65,1315164500
2613,15,Jits_Phase_8,1,5,80,127,1315170600
2613,15,Jits_Phase_8,2,5,56,103,1315191056
2613,15,Jits_Phase_8,3,5,63,98,1315281324
2613,15,Jits_Phase_8,0,1,48,64,1315942676
2613,15,Jits_Phase_8,1,5,80,127,1316011332
2613,15,Jits_Phase_8,2,5,63,98,1316051184
2613,15,Jits_Phase_8,3,5,56,103,1316091196
2613,15,Jits_Phase_8,0,1,48,66,1316748192
2613,15,Jits_Phase_8,1,5,63,98,1316821504
2613,15,Jits_Phase_8,2,5,80,127,1316880984
2613,15,Jits_Phase_8,3,5,56,103,1316910360
2613,15,Jits_Phase_8,0,1,48,71,1317550580
2613,15,Jits_Phase_8,1,5,56,103,1317661100
2613,15,Jits_Phase_8,2,5,80,127,1317690848
2613,15,Jits_Phase_8,3,5,63,98,1317780856
2613,15,Jits_Phase_8,0,1,48,68,1318363220
2613,15,Jits_Phase_8,1,5,56,103,1318471140
2613,15,Jits_Phase_8,2,5,80,127,1318580608
2613,15,Jits_Phase_8,3,5,63,98,1318611328
2613,15,Jits_Phase_8,0,1,48,70,1319161184
2613,15,Jits_Phase_8,1,5,56,103,1319320952
2613,15,Jits_Phase_8,2,5,63,98,1319381272
2613,15,Jits_Phase_8,3,5,80,127,1319411020
2613,15,Jits_Phase_8,0,5,56,103,1320090920
2613,15,Jits_Phase_8,1,1,48,57,1320101088
2613,15,Jits_Phase_8,2,5,63,98,1320160672
2613,15,Jits_Phase_8,3,5,80,127,1320181056
2613,15,Jits_Phase_8,0,5,80,127,1320861024
2613,15,Jits_Phase_8,1,5,63,98,1320880436
2613,15,Jits_Phase_8,2,1,48,69,1320920792
2613,15,Jits_Phase_8,3,5,56,103,1320930780
2613,15,Jits_Phase_8,0,5,63,98,1321681168
2613,15,Jits_Phase_8,1,5,80,127,1321690692
2613,15,Jits_Phase_8,2,1,48,69,1321698072
2613,15,Jits_Phase_8,3,5,56,103,1321740736
2613,15,Jits_Phase_8,0,1,48,65,1322474292
2613,15,Jits_Phase_8,1,5,63,98,1322480916
2613,15,Jits_Phase_8,2,5,80,127,1322550748
2613,15,Jits_Phase_8,3,5,56,103,1322571008
2613,15,Jits_Phase_8,0,1,48,68,1323290844
2613,15,Jits_Phase_8,1,5,63,98,1323310644
2613,15,Jits_Phase_8,2,5,80,127,1323314004
2613,15,Jits_Phase_8,3,5,56,103,1323381096
2613,15,Jits_Phase_8,0,5,80,127,1324061024
2613,15,Jits_Phase_8,1,5,56,103,1324080584
2613,15,Jits_Phase_8,2,5,63,98,1324090780
2613,15,Jits_Phase_8,3,1,48,66,1324123064
2613,15,Jits_Phase_8,0,1,48,63,1324864444
2613,15,Jits_Phase_8,1,5,56,103,1324881556
2613,15,Jits_Phase_8,2,5,63,98,1324971600
2613,15,Jits_Phase_8,3,5,80,127,1324974816
2613,15,Jits_Phase_8,0,5,80,127,1325651272
2613,15,Jits_Phase_8,1,5,56,103,1325660420
2613,15,Jits_Phase_8,2,1,48,64,1325662940
2613,15,Jits_Phase_8,3,5,63,98,1325680872
2613,15,Jits_Phase_8,0,1,48,69,1326449752
2613,15,Jits_Phase_8,1,5,63,98,1326451548
2613,15,Jits_Phase_8,2,5,80,127,1326510520
2613,15,Jits_Phase_8,3,5,56,103,1326520644
2613,15,Jits_Phase_8,0,1,48,75,1327255312
2613,15,Jits_Phase_8,1,5,63,98,1327320680
2613,15,Jits_Phase_8,2,5,80,127,1327351252
2613,15,Jits_Phase_8,3,5,56,103,1327391028
2613,15,Jits_Phase_8,0,1,48,74,1328062800
2613,15,Jits_Phase_8,1,5,56,103,1328110924
2613,15,Jits_Phase_8,2,5,80,127,1328121640
2613,15,Jits_Phase_8,3,5,63,98,1328161120
2613,15,Jits_Phase_8,0,1,48,74,1328841648
2613,15,Jits_Phase_8,1,5,80,127,1328870896
2613,15,Jits_Phase_8,2,5,56,103,1328950680
2613,15,Jits_Phase_8,3,5,63,98,1328960828
2613,15,Jits_Phase_8,0,1,48,72,1329705536
2613,15,Jits_Phase_8,1,5,80,127,1329720632
2613,15,Jits_Phase_8,2,5,56,103,1329800588
2613,15,Jits_Phase_8,3,5,63,98,1329810708
2613,15,Jits_Phase_8,0,1,48,70,1330473764
2613,15,Jits_Phase_8,1,5,80,127,1330561480
2613,15,Jits_Phase_8,2,5,56,103,1330610396
2613,15,Jits_Phase_8,3,5,63,98,1330660744
2613,15,Jits_Phase_8,0,1,48,74,1331322760
2613,15,Jits_Phase_8,1,5,56,103,1331501388
2613,15,Jits_Phase_8,2,5,63,98,1331504528
2613,15,Jits_Phase_8,3,5,80,127,1331550568
2613,15,Jits_Phase_8,0,1,48,67,1332312768
2613,15,Jits_Phase_8,1,5,56,103,1332320588
2613,15,Jits_Phase_8,2,5,63,98,1332351384
2613,15,Jits_Phase_8,3,5,80,127,1332360608
2613,15,Jits_Phase_8,0,5,63,98,1333031252
2613,15,Jits_Phase_8,1,5,56,103,1333100884
2613,15,Jits_Phase_8,2,5,80,127,1333151308
2613,15,Jits_Phase_8,3,1,48,74,1333177192
2613,15,Jits_Phase_8,0,5,63,98,1333860704
2613,15,Jits_Phase_8,1,5,56,103,1333871048
2613,15,Jits_Phase_8,2,5,80,127,1333873968
2613,15,Jits_Phase_8,3,1,48,73,1333928176
2613,15,Jits_Phase_8,0,5,80,127,1334611304
2613,15,Jits_Phase_8,1,1,48,68,1334627456
2613,15,Jits_Phase_8,2,5,56,103,1334670716
2613,15,Jits_Phase_8,3,5,63,98,1334760904
2613,15,Jits_Phase_8,0,5,80,127,1335410996
2613,15,Jits_Phase_8,1,1,48,67,1335415460
2613,15,Jits_Phase_8,2,5,56,103,1335511540
2613,15,Jits_Phase_8,3,5,63,98,1335551236
2613,15,Jits_Phase_8,0,1,48,69,1336249404
2613,15,Jits_Phase_8,1,5,56,103,1336261184
2613,15,Jits_Phase_8,2,5,63,98,1336280376
2613,15,Jits_Phase_8,3,5,80,127,1336321508
2613,15,Jits_Phase_8,0,1,48,66,1337027416
2613,15,Jits_Phase_8,1,5,63,98,1337031048
2613,15,Jits_Phase_8,2,5,56,103,1337050388
2613,15,Jits_Phase_8,3,5,80,127,1337151012
2613,15,Jits_Phase_8,0,5,63,98,1337820400
2613,15,Jits_Phase_8,1,1,48,63,1337821364
2613,15,Jits_Phase_8,2,5,80,127,1337930980
2613,15,Jits_Phase_8,3,5,56,103,1337960804
2613,15,Jits_Phase_8,0,5,56,103,1338640900
2613,15,Jits_Phase_8,1,1,48,66,1338664768
2613,15,Jits_Phase_8,2,5,63,98,1338670420
2613,15,Jits_Phase_8,3,5,80,127,1338720792
2613,15,Jits_Phase_8,0,5,63,98,1339411220
2613,15,Jits_Phase_8,1,5,56,103,1339440600
2613,15,Jits_Phase_8,2,1,48,53,1339477004
2613,15,Jits_Phase_8,3,5,80,127,1339490820
2613,15,Jits_Phase_8,0,1,48,64,1340197820
2613,15,Jits_Phase_8,1,5,56,103,1340241260
2613,15,Jits_Phase_8,2,5,63,98,1340260824
2613,15,Jits_Phase_8,3,5,80,127,1340340528
2613,15,Jits_Phase_8,0,1,48,69,1341007792
2613,15,Jits_Phase_8,1,5,63,98,1341011276
2613,15,Jits_Phase_8,2,5,56,103,1341070844
2613,15,Jits_Phase_8,3,5,80,127,1341101564
2613,15,Jits_Phase_8,0,1,48,73,1341796760
2613,15,Jits_Phase_8,1,5,56,103,1341850888
2613,15,Jits_Phase_8,2,5,80,127,1341911488
2613,15,Jits_Phase_8,3,5,63,98,1341951428
2613,15,Jits_Phase_8,0,1,48,72,1342615032
2613,15,Jits_Phase_8,1,5,63,98,1342631248
2613,15,Jits_Phase_8,2,5,56,103,1342690740
2613,15,Jits_Phase_8,3,5,80,127,1342761300
2613,15,Jits_Phase_8,0,1,48,69,1343444904
2613,15,Jits_Phase_8,1,5,56,103,1343510872
2613,15,Jits_Phase_8,2,5,63,98,1343520988
2613,15,Jits_Phase_8,3,5,80,127,1343524280
2613,15,Jits_Phase_8,0,5,63,98,1344251216
2613,15,Jits_Phase_8,1,1,48,76,1344262952
2613,15,Jits_Phase_8,2,5,56,103,1344310704
2613,15,Jits_Phase_8,3,5,80,127,1344313844
2613,15,Jits_Phase_8,0,5,63,98,1345030660
2613,15,Jits_Phase_8,1,5,80,127,1345061236
2613,15,Jits_Phase_8,2,5,56,103,1345081020
2613,15,Jits_Phase_8,3,1,48,72,1345082660
2613,15,Jits_Phase_8,0,5,56,103,1345760784
2613,15,Jits_Phase_8,1,5,63,98,1345810840
2613,15,Jits_Phase_8,2,1,48,70,1345840708
2613,15,Jits_Phase_8,3,5,80,127,1345890648
2613,15,Jits_Phase_8,0,5,80,127,1346461072
2613,15,Jits_Phase_8,1,5,63,98,1346500936
2613,15,Jits_Phase_8,2,5,56,103,1346520572
2613,15,Jits_Phase_8,3,1,48,68,1346577772
2613,15,Jits_Phase_8,0,5,56,103,1347330588
2613,15,Jits_Phase_8,1,5,80,127,1347340856
2613,15,Jits_Phase_8,2,1,48,65,1347355060
2613,15,Jits_Phase_8,3,5,63,98,1347361088
2613,15,Jits_Phase_8,0,5,56,103,1348110804
2613,15,Jits_Phase_8,1,1,48,71,1348126132
2613,15,Jits_Phase_8,2,5,63,98,1348160876
2613,15,Jits_Phase_8,3,5,80,127,1348190776
2613,15,Jits_Phase_8,0,5,56,103,1348861352
2613,15,Jits_Phase_8,1,5,63,98,1348870948
2613,15,Jits_Phase_8,2,1,48,69,1348902612
2613,15,Jits_Phase_8,3,5,80,127,1348920620
2613,15,Jits_Phase_8,0,1,48,69,1349627064
2613,15,Jits_Phase_8,1,5,56,103,1349650920
2613,15,Jits_Phase_8,2,5,80,127,1349653912
2613,15,Jits_Phase_8,3,5,63,98,1349810732
2613,15,Jits_Phase_8,0,1,48,71,1350448328
2613,15,Jits_Phase_8,1,5,63,98,1350471072
2613,15,Jits_Phase_8,2,5,56,103,1350540680
2613,15,Jits_Phase_8,3,5,80,127,1350580604
2613,15,Jits_Phase_8,0,1,48,70,1351223268
2613,15,Jits_Phase_8,1,5,63,98,1351310612
2613,15,Jits_Phase_8,2,5,56,103,1351400724
2613,15,Jits_Phase_8,3,5,80,127,1351403872
2613,15,Jits_Phase_8,0,1,48,73,1352019168
2613,15,Jits_Phase_8,1,5,56,103,1352090888
2613,15,Jits_Phase_8,2,5,63,98,1352181380
2613,15,Jits_Phase_8,3,5,80,127,1352191652
2613,15,Jits_Phase_8,0,1,48,70,1352822292
2613,15,Jits_Phase_8,1,5,56,103,1352861052
2613,15,Jits_Phase_8,2,5,63,98,1352911256
2613,15,Jits_Phase_8,3,5,80,127,1352940916
2613,15,Jits_Phase_8,0,1,48,62,1353630212
2613,15,Jits_Phase_8,1,5,63,98,1353740508
2613,15,Jits_Phase_8,2,5,80,127,1353750780
2613,15,Jits_Phase_8,3,5,56,103,1353811268
2613,15,Jits_Phase_8,0,1,48,59,1354449308
2613,15,Jits_Phase_8,1,5,63,98,1354460420
2613,15,Jits_Phase_8,2,5,80,127,1354520812
2613,15,Jits_Phase_8,3,5,56,103,1354560832
2613,15,Jits_Phase_8,0,1,48,57,1355255268
2613,15,Jits_Phase_8,1,5,56,103,1355360580
2613,15,Jits_Phase_8,2,5,80,127,1355381260
2613,15,Jits_Phase_8,3,5,63,98,1355400448
2613,15,Jits_Phase_8,0,1,48,62,1356067692
2613,15,Jits_Phase_8,1,5,63,98,1356080468
2613,15,Jits_Phase_8,2,5,56,103,1356101100
2613,15,Jits_Phase_8,3,5,80,127,1356140816
2613,15,Jits_Phase_8,0,1,48,60,1356875044
2613,15,Jits_Phase_8,1,5,63,98,1356890360
2613,15,Jits_Phase_8,2,5,80,127,1356921380
2613,15,Jits_Phase_8,3,5,56,103,1356940644
2613,15,Jits_Phase_8,0,5,80,127,1357660452
2613,15,Jits_Phase_8,1,1,48,55,1357672936
2613,15,Jits_Phase_8,2,5,56,103,1357710724
2613,15,Jits_Phase_8,3,5,63,98,1357771616
2613,15,Jits_Phase_8,0,5,63,98,1358451228
2613,15,Jits_Phase_8,1,1,48,55,1358479456
2613,15,Jits_Phase_8,2,5,56,103,1358570800
2613,15,Jits_Phase_8,3,5,80,127,1358600460
2613,15,Jits_Phase_8,0,5,80,127,1359290696
2613,15,Jits_Phase_8,1,1,48,54,1359309640
2613,15,Jits_Phase_8,2,5,63,98,1359311372
2613,15,Jits_Phase_8,3,5,56,103,1359381124
2613,15,Jits_Phase_8,0,5,63,98,1360111144
2613,15,Jits_Phase_8,1,5,56,103,1360121116
2613,15,Jits_Phase_8,2,1,48,56,1360127228
2613,15,Jits_Phase_8,3,5,80,127,1360201080
2613,15,Jits_Phase_8,0,5,56,103,1360971240
2613,15,Jits_Phase_8,1,1,48,54,1360999100
2613,15,Jits_Phase_8,2,5,80,127,1361000988
2613,15,Jits_Phase_8,3,5,63,98,1361011256
2613,15,Jits_Phase_8,0,9999,9999,9999,1226128484
2613,15,Jits_Phase_8,1,9999,9999,9999,1226928200
2613,15,Jits_Phase_8,2,9999,9999,9999,1227728988
2613,15,Jits_Phase_8,3,9999,9999,9999,1228528696
2613,15,Jits_Phase_8,4,9999,9999,9999,1229328504
2613,15,Jits_Phase_8,5,9999,9999,9999,1230128228
2613,15,Jits_Phase_8,6,9999,9999,9999,1230929008
2613,15,Jits_Phase_8,7,9999,9999,9999,1231728708
2613,15,Jits_Phase_8,8,9999,9999,9999,1232528484
2613,15,Jits_Phase_8,9,9999,9999,9999,1233328228
2613,15,Jits_Phase_8,10,9999,9999,9999,1234128980
2613,15,Jits_Phase_8,11,9999,9999,9999,1234928740
2613,15,Jits_Phase_8,12,9999,9999,9999,1235728444
2613,15,Jits_Phase_8,13,9999,9999,9999,1236528212
2613,15,Jits_Phase_8,14,9999,9999,9999,1237328956
2613,15,Jits_Phase_8,15,9999,9999,9999,1238128720
2613,15,Jits_Phase_8,16,9999,9999,9999,1238928464
2613,15,Jits_Phase_8,17,9999,9999,9999,1239728240
2613,15,Jits_Phase_8,18,9999,9999,9999,1240528976
2613,15,Jits_Phase_8,19,9999,9999,9999,1241328748
2613,15,Jits_Phase_8,20,9999,9999,9999,1242128504
2613,15,Jits_Phase_8,21,9999,9999,9999,1242928184
2613,15,Jits_Phase_8,22,9999,9999,9999,1243729020
2613,15,Jits_Phase_8,23,9999,9999,9999,1244528700
2613,15,Jits_Phase_8,24,9999,9999,9999,1245328456
2613,15,Jits_Phase_8,25,9999,9999,9999,1246128212
2613,15,Jits_Phase_8,26,9999,9999,9999,1246929016
2613,15,Jits_Phase_8,27,9999,9999,9999,1247728700
2613,15,Jits_Phase_8,28,9999,9999,9999,1248528472
2613,15,Jits_Phase_8,29,9999,9999,9999,1249328236
2613,15,Jits_Phase_8,30,9999,9999,9999,1250108512
2613,15,Jits_Phase_8,31,9999,9999,9999,1250908212
2613,15,Jits_Phase_8,32,9999,9999,9999,1251709016
2613,15,Jits_Phase_8,33,9999,9999,9999,1252508780
2613,15,Jits_Phase_8,34,9999,9999,9999,1253308480
2613,15,Jits_Phase_8,35,9999,9999,9999,1254108248
2613,15,Jits_Phase_8,36,9999,9999,9999,1254908984
2613,15,Jits_Phase_8,37,9999,9999,9999,1255708744
2613,15,Jits_Phase_8,38,9999,9999,9999,1256508496
2613,15,Jits_Phase_8,39,9999,9999,9999,1257308216
2613,15,Jits_Phase_8,40,9999,9999,9999,1258109024
2613,15,Jits_Phase_8,41,9999,9999,9999,1258908784
2613,15,Jits_Phase_8,42,9999,9999,9999,1259708536
2613,15,Jits_Phase_8,43,9999,9999,9999,1260508284
2613,15,Jits_Phase_8,44,9999,9999,9999,1261308996
2613,15,Jits_Phase_8,45,9999,9999,9999,1262108756
2613,15,Jits_Phase_8,46,9999,9999,9999,1262908516
2613,15,Jits_Phase_8,47,9999,9999,9999,1263708284
2613,15,Jits_Phase_8,48,9999,9999,9999,1264528500
2613,15,Jits_Phase_8,49,9999,9999,9999,1265328252
2613,15,Jits_Phase_8,50,9999,9999,9999,1266128984
2613,15,Jits_Phase_8,51,9999,9999,9999,1266928740
2613,15,Jits_Phase_8,52,9999,9999,9999,1267728500
2613,15,Jits_Phase_8,53,9999,9999,9999,1268528192
2613,15,Jits_Phase_8,54,9999,9999,9999,1269329016
2613,15,Jits_Phase_8,55,9999,9999,9999,1270128712
2613,15,Jits_Phase_8,56,9999,9999,9999,1270928468
2613,15,Jits_Phase_8,57,9999,9999,9999,1271728244
2613,15,Jits_Phase_8,58,9999,9999,9999,1272528976
2613,15,Jits_Phase_8,59,9999,9999,9999,1273328728
2613,15,Jits_Phase_8,60,9999,9999,9999,1274128500
2613,15,Jits_Phase_8,61,9999,9999,9999,1274928204
2613,15,Jits_Phase_8,62,9999,9999,9999,1275728972
2613,15,Jits_Phase_8,63,9999,9999,9999,1276528720
2613,15,Jits_Phase_8,64,9999,9999,9999,1277368420
2613,15,Jits_Phase_8,65,9999,9999,9999,1278168184
2613,15,Jits_Phase_8,66,9999,9999,9999,1278968924
2613,15,Jits_Phase_8,67,9999,9999,9999,1279768688
2613,15,Jits_Phase_8,68,9999,9999,9999,1280568376
2613,15,Jits_Phase_8,69,9999,9999,9999,1281368164
2613,15,Jits_Phase_8,70,9999,9999,9999,1282168904
2613,15,Jits_Phase_8,71,9999,9999,9999,1282968668
2613,15,Jits_Phase_8,72,9999,9999,9999,1283768436
2613,15,Jits_Phase_8,73,9999,9999,9999,1284568136
2613,15,Jits_Phase_8,74,9999,9999,9999,1285368888
2613,15,Jits_Phase_8,75,9999,9999,9999,1286168644
2613,15,Jits_Phase_8,76,9999,9999,9999,1286968412
2613,15,Jits_Phase_8,77,9999,9999,9999,1287768128
2613,15,Jits_Phase_8,78,9999,9999,9999,1288568944
2613,15,Jits_Phase_8,79,9999,9999,9999,1289368644
2613,15,Jits_Phase_8,80,9999,9999,9999,1290168416
2613,15,Jits_Phase_8,81,9999,9999,9999,1290928252
2613,15,Jits_Phase_8,82,9999,9999,9999,1291728984
2613,15,Jits_Phase_8,83,9999,9999,9999,1292528740
2613,15,Jits_Phase_8,84,9999,9999,9999,1293328504
2613,15,Jits_Phase_8,85,9999,9999,9999,1294128204
2613,15,Jits_Phase_8,86,9999,9999,9999,1294928976
2613,15,Jits_Phase_8,87,9999,9999,9999,1295728728
2613,15,Jits_Phase_8,88,9999,9999,9999,1296528480
2613,15,Jits_Phase_8,89,9999,9999,9999,1297328244
2613,15,Jits_Phase_8,90,9999,9999,9999,1298128984
2613,15,Jits_Phase_8,91,9999,9999,9999,1298928736
2613,15,Jits_Phase_8,92,9999,9999,9999,1299728436
2613,15,Jits_Phase_8,93,9999,9999,9999,1300528192
2613,15,Jits_Phase_8,94,9999,9999,9999,1301329024
2613,15,Jits_Phase_8,95,9999,9999,9999,1302128704
2613,15,Jits_Phase_8,96,9999,9999,9999,1302928472
2613,15,Jits_Phase_8,97,9999,9999,9999,1303648372
2613,15,Jits_Phase_8,98,9999,9999,9999,1304448072
2613,15,Jits_Phase_8,99,9999,9999,9999,1305248892
2613,15,Jits_Phase_8,100,9999,9999,9999,1306048584
2613,15,Jits_Phase_8,101,9999,9999,9999,1306848344
2613,15,Jits_Phase_8,102,9999,9999,9999,1307648112
2613,15,Jits_Phase_8,103,9999,9999,9999,1308448836
2613,15,Jits_Phase_8,104,9999,9999,9999,1309248624
2613,15,Jits_Phase_8,105,9999,9999,9999,1310048316
2613,15,Jits_Phase_8,106,9999,9999,9999,1310848068
2613,15,Jits_Phase_8,107,9999,9999,9999,1311648856
2613,15,Jits_Phase_8,108,9999,9999,9999,1312448616
2613,15,Jits_Phase_8,109,9999,9999,9999,1313248368
2613,15,Jits_Phase_8,110,9999,9999,9999,1314048128
2613,15,Jits_Phase_8,111,9999,9999,9999,1314848856
2613,15,Jits_Phase_8,112,9999,9999,9999,1315648632
2613,15,Jits_Phase_8,113,9999,9999,9999,1316448316
2613,15,Jits_Phase_8,114,9999,9999,9999,1317328980
2613,15,Jits_Phase_8,115,9999,9999,9999,1318128736
2613,15,Jits_Phase_8,116,9999,9999,9999,1318928500
2613,15,Jits_Phase_8,117,9999,9999,9999,1319728188
2613,15,Jits_Phase_8,118,9999,9999,9999,1320529020
2613,15,Jits_Phase_8,119,9999,9999,9999,1321328712
2613,15,Jits_Phase_8,120,9999,9999,9999,1322128484
2613,15,Jits_Phase_8,121,9999,9999,9999,1322928240
2613,15,Jits_Phase_8,122,9999,9999,9999,1323728960
2613,15,Jits_Phase_8,123,9999,9999,9999,1324528712
2613,15,Jits_Phase_8,124,9999,9999,9999,1325328476
2613,15,Jits_Phase_8,125,9999,9999,9999,1326128220
2613,15,Jits_Phase_8,126,9999,9999,9999,1326928984
2613,15,Jits_Phase_8,127,9999,9999,9999,1327728744
2613,15,Jits_Phase_8,128,9999,9999,9999,1328528500
2613,15,Jits_Phase_8,129,9999,9999,9999,1329328184
2613,15,Jits_Phase_8,130,9999,9999,9999,1330128996
2613,15,Jits_Phase_8,131,9999,9999,9999,1331088504
2613,15,Jits_Phase_8,132,9999,9999,9999,1331888184
2613,15,Jits_Phase_8,133,9999,9999,9999,1332688996
2613,15,Jits_Phase_8,134,9999,9999,9999,1333488756
2613,15,Jits_Phase_8,135,9999,9999,9999,1334288504
2613,15,Jits_Phase_8,136,9999,9999,9999,1335088188
2613,15,Jits_Phase_8,137,9999,9999,9999,1335888952
2613,15,Jits_Phase_8,138,9999,9999,9999,1336688728
2613,15,Jits_Phase_8,139,9999,9999,9999,1337488484
2613,15,Jits_Phase_8,140,9999,9999,9999,1338288236
2613,15,Jits_Phase_8,141,9999,9999,9999,1339088960
2613,15,Jits_Phase_8,142,9999,9999,9999,1339888724
2613,15,Jits_Phase_8,143,9999,9999,9999,1340688484
2613,15,Jits_Phase_8,144,9999,9999,9999,1341488236
2613,15,Jits_Phase_8,145,9999,9999,9999,1342288996
2613,15,Jits_Phase_8,146,9999,9999,9999,1343088756
2613,15,Jits_Phase_8,147,9999,9999,9999,1343888508
2613,15,Jits_Phase_8,148,9999,9999,9999,1344688184
2613,15,Jits_Phase_8,149,9999,9999,9999,1345488960
2613,15,Jits_Phase_8,150,9999,9999,9999,1346128992
2613,15,Jits_Phase_8,151,9999,9999,9999,1346928756
2613,15,Jits_Phase_8,152,9999,9999,9999,1347728456
2613,15,Jits_Phase_8,153,9999,9999,9999,1348528228
2613,15,Jits_Phase_8,154,9999,9999,9999,1349328964
2613,15,Jits_Phase_8,155,9999,9999,9999,1350128724
2613,15,Jits_Phase_8,156,9999,9999,9999,1350928484
2613,15,Jits_Phase_8,157,9999,9999,9999,1351728236
2613,15,Jits_Phase_8,158,9999,9999,9999,1352528996
2613,15,Jits_Phase_8,159,9999,9999,9999,1353328748
2613,15,Jits_Phase_8,160,9999,9999,9999,1354128436
2613,15,Jits_Phase_8,161,9999,9999,9999,1354928192
2613,15,Jits_Phase_8,162,9999,9999,9999,1355729000
2613,15,Jits_Phase_8,163,9999,9999,9999,1356528756
2613,15,Jits_Phase_8,164,9999,9999,9999,1357328440
2613,15,Jits_Phase_8,165,9999,9999,9999,1358128192
2613,15,Jits_Phase_8,166,9999,9999,9999,1358928960
2613,15,Jits_Phase_8,167,9999,9999,9999,1359728720
2613,15,Jits_Phase_8,168,9999,9999,9999,1360528496
2613,15,Jits_Phase_8,169,9999,9999,9999,1361328188
2614,17,Jits_Phase_5,0,5,56,103,1383906612
2614,17,Jits_Phase_5,1,5,63,98,1383910012
2614,17,Jits_Phase_5,2,5,80,127,1383913128
2614,17,Jits_Phase_5,0,5,56,103,1384407368
2614,17,Jits_Phase_5,1,5,63,98,1384410540
2614,17,Jits_Phase_5,2,5,80,127,1384413588
2614,17,Jits_Phase_5,0,5,56,103,1384907016
2614,17,Jits_Phase_5,1,5,80,127,1384917288
2614,17,Jits_Phase_5,2,5,63,98,1384936920
2614,17,Jits_Phase_5,0,5,63,98,1385356624
2614,17,Jits_Phase_5,1,5,80,127,1385387348
2614,17,Jits_Phase_5,2,5,56,103,1385396492
2614,17,Jits_Phase_5,0,5,80,127,1385916864
2614,17,Jits_Phase_5,1,5,56,103,1385927136
2614,17,Jits_Phase_5,2,5,63,98,1385956884
2614,17,Jits_Phase_5,0,5,63,98,1386416372
2614,17,Jits_Phase_5,1,5,56,103,1386447168
2614,17,Jits_Phase_5,2,5,80,127,1386456392
2614,17,Jits_Phase_5,0,5,56,103,1386867012
2614,17,Jits_Phase_5,1,5,63,98,1386917212
2614,17,Jits_Phase_5,2,5,80,127,1386936776
2614,17,Jits_Phase_5,0,5,80,127,1387366960
2614,17,Jits_Phase_5,1,5,63,98,1387417088
2614,17,Jits_Phase_5,2,5,56,103,1387457024
2614,17,Jits_Phase_5,0,5,56,103,1387866388
2614,17,Jits_Phase_5,1,5,63,98,1387897112
2614,17,Jits_Phase_5,2,1,48,57,1387931916
2614,17,Jits_Phase_5,3,5,80,127,1387967152
2614,17,Jits_Phase_5,0,5,56,103,1388367272
2614,17,Jits_Phase_5,1,5,80,127,1388426692
2614,17,Jits_Phase_5,2,1,48,65,1388447120
2614,17,Jits_Phase_5,3,5,63,98,1388457332
2614,17,Jits_Phase_5,0,5,56,103,1388877152
2614,17,Jits_Phase_5,1,5,63,98,1388887352
2614,17,Jits_Phase_5,2,5,80,127,1388927360
2614,17,Jits_Phase_5,3,1,48,63,1388956856
2614,17,Jits_Phase_5,0,5,63,98,1389366700
2614,17,Jits_Phase_5,1,5,80,127,1389446716
2614,17,Jits_Phase_5,2,5,56,103,1389456764
2614,17,Jits_Phase_5,3,1,48,62,1389465132
2614,17,Jits_Phase_5,0,5,63,98,1389916792
2614,17,Jits_Phase_5,1,5,56,103,1389956580
2614,17,Jits_Phase_5,2,5,80,127,1389959720
2614,17,Jits_Phase_5,3,1,48,62,1389980444
2614,17,Jits_Phase_5,0,5,56,103,1390377180
2614,17,Jits_Phase_5,1,5,63,98,1390386628
2614,17,Jits_Phase_5,2,5,80,127,1390426440
2614,17,Jits_Phase_5,3,1,48,59,1390471804
2614,17,Jits_Phase_5,0,5,56,103,1390866900
2614,17,Jits_Phase_5,1,5,63,98,1390869896
2614,17,Jits_Phase_5,2,5,80,127,1390887136
2614,17,Jits_Phase_5,3,1,48,58,1390955832
2614,17,Jits_Phase_5,0,5,80,127,1391376692
2614,17,Jits_Phase_5,1,5,56,103,1391386888
2614,17,Jits_Phase_5,2,1,48,60,1391448016
2614,17,Jits_Phase_5,3,5,63,98,1391456808
2614,17,Jits_Phase_5,0,5,63,98,1391867156
2614,17,Jits_Phase_5,1,5,56,103,1391886716
2614,17,Jits_Phase_5,2,1,48,59,1391930236
2614,17,Jits_Phase_5,3,5,80,127,1391966676
2614,17,Jits_Phase_5,0,5,56,103,1392377244
2614,17,Jits_Phase_5,1,5,80,127,1392417036
2614,17,Jits_Phase_5,2,1,48,62,1392419628
2614,17,Jits_Phase_5,3,5,63,98,1392427372
2614,17,Jits_Phase_5,0,5,80,127,1392866820
2614,17,Jits_Phase_5,1,1,48,63,1392896792
2614,17,Jits_Phase_5,2,5,63,98,1392898584
2614,17,Jits_Phase_5,3,5,56,103,1392937472
2614,17,Jits_Phase_5,0,5,56,103,1393386808
2614,17,Jits_Phase_5,1,5,63,98,1393416560
2614,17,Jits_Phase_5,2,1,48,63,1393417524
2614,17,Jits_Phase_5,3,5,80,127,1393466776
2614,17,Jits_Phase_5,0,5,80,127,1393886572
2614,17,Jits_Phase_5,1,1,48,61,1393918832
2614,17,Jits_Phase_5,2,5,56,103,1393926724
2614,17,Jits_Phase_5,3,5,63,98,1393936700
2614,17,Jits_Phase_5,0,5,80,127,1394366780
2614,17,Jits_Phase_5,1,5,63,98,1394406644
2614,17,Jits_Phase_5,2,1,48,60,1394416136
2614,17,Jits_Phase_5,3,5,56,103,1394467324
2614,17,Jits_Phase_5,0,5,56,103,1394866692
2614,17,Jits_Phase_5,1,5,80,127,1394876740
2614,17,Jits_Phase_5,2,1,48,65,1394929828
2614,17,Jits_Phase_5,3,5,63,98,1394956672
2614,17,Jits_Phase_5,0,5,80,127,1395367576
2614,17,Jits_Phase_5,1,1,48,63,1395401864
2614,17,Jits_Phase_5,2,5,63,98,1395426616
2614,17,Jits_Phase_5,3,5,56,103,1395457488
2614,17,Jits_Phase_5,0,5,56,103,1395866896
2614,17,Jits_Phase_5,1,1,48,67,1395918560
2614,17,Jits_Phase_5,2,5,80,127,1395927576
2614,17,Jits_Phase_5,3,5,63,98,1395967584
2614,17,Jits_Phase_5,0,5,56,103,1396416856
2614,17,Jits_Phase_5,1,5,63,98,1396427124
2614,17,Jits_Phase_5,2,5,80,127,1396430412
2614,17,Jits_Phase_5,3,1,48,65,1396437584
2614,17,Jits_Phase_5,0,5,80,127,1396866636
2614,17,Jits_Phase_5,1,1,48,64,1396941000
2614,17,Jits_Phase_5,2,5,63,98,1396956388
2614,17,Jits_Phase_5,3,5,56,103,1396966884
2614,17,Jits_Phase_5,0,5,56,103,1397367136
2614,17,Jits_Phase_5,1,5,63,98,1397370000
2614,17,Jits_Phase_5,2,5,80,127,1397373576
2614,17,Jits_Phase_5,3,1,48,66,1397449072
2614,17,Jits_Phase_5,0,5,80,127,1397887488
2614,17,Jits_Phase_5,1,5,63,98,1397936568
2614,17,Jits_Phase_5,2,1,48,62,1397942004
2614,17,Jits_Phase_5,3,5,56,103,1397967356
2614,17,Jits_Phase_5,0,5,56,103,1398366652
2614,17,Jits_Phase_5,1,5,80,127,1398376996
2614,17,Jits_Phase_5,2,5,63,98,1398446452
2614,17,Jits_Phase_5,3,1,48,63,1398454676
2614,17,Jits_Phase_5,0,5,56,103,1398876460
2614,17,Jits_Phase_5,1,5,63,98,1398896920
2614,17,Jits_Phase_5,2,1,48,65,1398907984
2614,17,Jits_Phase_5,3,5,80,127,1398957376
2614,17,Jits_Phase_5,0,5,80,127,1399356896
2614,17,Jits_Phase_5,1,1,48,63,1399416208
2614,17,Jits_Phase_5,2,5,63,98,1399426344
2614,17,Jits_Phase_5,3,5,56,103,1399446876
2614,17,Jits_Phase_5,0,5,80,127,1399876964
2614,17,Jits_Phase_5,1,5,56,103,1399887384
2614,17,Jits_Phase_5,2,1,48,61,1399894336
2614,17,Jits_Phase_5,3,5,63,98,1399896376
2614,17,Jits_Phase_5,0,5,80,127,1400366364
2614,17,Jits_Phase_5,1,5,56,103,1400387292
2614,17,Jits_Phase_5,2,1,48,65,1400388260
2614,17,Jits_Phase_5,3,5,63,98,1400456516
2614,17,Jits_Phase_5,0,5,56,103,1400877436
2614,17,Jits_Phase_5,1,1,48,67,1400895796
2614,17,Jits_Phase_5,2,5,80,127,1400907204
2614,17,Jits_Phase_5,3,5,63,98,1400926464
2614,17,Jits_Phase_5,0,5,63,98,1401366860
2614,17,Jits_Phase_5,1,1,48,65,1401383384
2614,17,Jits_Phase_5,2,5,56,103,1401427268
2614,17,Jits_Phase_5,3,5,80,127,1401457088
2614,17,Jits_Phase_5,0,5,63,98,1401857320
2614,17,Jits_Phase_5,1,5,80,127,1401860608
2614,17,Jits_Phase_5,2,1,48,64,1401866288
2614,17,Jits_Phase_5,3,5,56,103,1401946492
2614,17,Jits_Phase_5,0,1,48,66,1402364800
2614,17,Jits_Phase_5,1,5,56,103,1402386940
2614,17,Jits_Phase_5,2,5,63,98,1402416468
2614,17,Jits_Phase_5,3,5,80,127,1402456428
2614,17,Jits_Phase_5,0,5,63,98,1402886400
2614,17,Jits_Phase_5,1,5,56,103,1402926488
2614,17,Jits_Phase_5,2,1,48,67,1402945004
2614,17,Jits_Phase_5,3,5,80,127,1402946888
2614,17,Jits_Phase_5,0,5,63,98,1403396412
2614,17,Jits_Phase_5,1,5,56,103,1403437548
2614,17,Jits_Phase_5,2,5,80,127,1403446620
2614,17,Jits_Phase_5,3,1,48,64,1403464736
2614,17,Jits_Phase_5,0,5,80,127,1403876680
2614,17,Jits_Phase_5,1,5,63,98,1403947260
2614,17,Jits_Phase_5,2,1,48,64,1403953064
2614,17,Jits_Phase_5,3,5,56,103,1403966760
2614,17,Jits_Phase_5,0,5,56,103,1404367156
2614,17,Jits_Phase_5,1,5,80,127,1404386716
2614,17,Jits_Phase_5,2,5,63,98,1404426504
2614,17,Jits_Phase_5,3,1,48,60,1404456592
2614,17,Jits_Phase_5,0,5,63,98,1404877180
2614,17,Jits_Phase_5,1,5,80,127,1404896668
2614,17,Jits_Phase_5,2,5,56,103,1404936532
2614,17,Jits_Phase_5,3,1,48,65,1404939280
2614,17,Jits_Phase_5,0,5,63,98,1405377076
2614,17,Jits_Phase_5,1,5,56,103,1405397312
2614,17,Jits_Phase_5,2,5,80,127,1405406460
2614,17,Jits_Phase_5,3,1,48,64,1405414212
2614,17,Jits_Phase_5,0,5,80,127,1405876524
2614,17,Jits_Phase_5,1,1,48,60,1405877568
2614,17,Jits_Phase_5,2,5,56,103,1405897052
2614,17,Jits_Phase_5,3,5,63,98,1405926876
2614,17,Jits_Phase_5,0,1,48,62,1406400220
2614,17,Jits_Phase_5,1,5,56,103,1406447000
2614,17,Jits_Phase_5,2,5,80,127,1406450140
2614,17,Jits_Phase_5,3,5,63,98,1406466564
2614,17,Jits_Phase_5,0,5,63,98,1406866744
2614,17,Jits_Phase_5,1,5,56,103,1406896492
2614,17,Jits_Phase_5,2,1,48,64,1406930620
2614,17,Jits_Phase_5,3,5,80,127,1406957168
2614,17,Jits_Phase_5,0,1,48,61,1407420920
2614,17,Jits_Phase_5,1,5,63,98,1407447400
2614,17,Jits_Phase_5,2,5,56,103,1407456548
2614,17,Jits_Phase_5,3,5,80,127,1407467040
2614,17,Jits_Phase_5,0,5,56,103,1407907152
2614,17,Jits_Phase_5,1,1,48,64,1407923072
2614,17,Jits_Phase_5,2,5,80,127,1407937116
2614,17,Jits_Phase_5,3,5,63,98,1407947088
2614,17,Jits_Phase_5,0,1,48,59,1408425008
2614,17,Jits_Phase_5,1,5,63,98,1408446844
2614,17,Jits_Phase_5,2,5,56,103,1408457040
2614,17,Jits_Phase_5,3,5,80,127,1408476528
2614,17,Jits_Phase_5,0,5,56,103,1408877076
2614,17,Jits_Phase_5,1,1,48,61,1408934204
2614,17,Jits_Phase_5,2,5,63,98,1408937308
2614,17,Jits_Phase_5,3,5,80,127,1408940672
2614,17,Jits_Phase_5,0,1,48,60,1409396076
2614,17,Jits_Phase_5,1,5,80,127,1409398024
2614,17,Jits_Phase_5,2,5,56,103,1409407396
2614,17,Jits_Phase_5,3,5,63,98,1409477072
2614,17,Jits_Phase_5,0,5,80,127,1409886544
2614,17,Jits_Phase_5,1,1,48,62,1409904264
2614,17,Jits_Phase_5,2,5,56,103,1409957340
2614,17,Jits_Phase_5,3,5,63,98,1409966416
2614,17,Jits_Phase_5,0,5,63,98,1410427216
2614,17,Jits_Phase_5,1,1,48,63,1410433772
2614,17,Jits_Phase_5,2,5,56,103,1410436432
2614,17,Jits_Phase_5,3,5,80,127,1410457116
2614,17,Jits_Phase_5,0,5,80,127,1410876920
2614,17,Jits_Phase_5,1,1,48,61,1410924996
2614,17,Jits_Phase_5,2,5,63,98,1410937152
2614,17,Jits_Phase_5,3,5,56,103,1410977016
2614,17,Jits_Phase_5,0,5,56,103,1411416392
2614,17,Jits_Phase_5,1,5,63,98,1411427036
2614,17,Jits_Phase_5,2,1,48,64,1411430684
2614,17,Jits_Phase_5,3,5,80,127,1411466968
2614,17,Jits_Phase_5,0,5,56,103,1411877176
2614,17,Jits_Phase_5,1,5,80,127,1411906876
2614,17,Jits_Phase_5,2,1,48,62,1411928648
2614,17,Jits_Phase_5,3,5,63,98,1411957068
2614,17,Jits_Phase_5,0,1,48,57,1412410116
2614,17,Jits_Phase_5,1,5,56,103,1412417112
2614,17,Jits_Phase_5,2,5,63,98,1412456752
2614,17,Jits_Phase_5,3,5,80,127,1412460412
2614,17,Jits_Phase_5,0,1,48,63,1412915336
2614,17,Jits_Phase_5,1,5,56,103,1412917052
2614,17,Jits_Phase_5,2,5,63,98,1412926828
2614,17,Jits_Phase_5,3,5,80,127,1412947360
2614,17,Jits_Phase_5,0,5,56,103,1413377248
2614,17,Jits_Phase_5,1,5,80,127,1413380468
2614,17,Jits_Phase_5,2,1,48,64,1413412356
2614,17,Jits_Phase_5,3,5,63,98,1413417256
2614,17,Jits_Phase_5,0,1,48,67,1413882208
2614,17,Jits_Phase_5,1,5,63,98,1413927416
2614,17,Jits_Phase_5,2,5,56,103,1413957116
2614,17,Jits_Phase_5,3,5,80,127,1413976364
2614,17,Jits_Phase_5,0,5,80,127,1414397280
2614,17,Jits_Phase_5,1,5,56,103,1414406580
2614,17,Jits_Phase_5,2,1,48,62,1414409996
2614,17,Jits_Phase_5,3,5,63,98,1414416840
2614,17,Jits_Phase_5,0,5,56,103,1414896968
2614,17,Jits_Phase_5,1,1,48,64,1414907876
2614,17,Jits_Phase_5,2,5,80,127,1414936900
2614,17,Jits_Phase_5,3,5,63,98,1414966648
2614,17,Jits_Phase_5,0,5,63,98,1415407044
2614,17,Jits_Phase_5,1,1,48,66,1415415724
2614,17,Jits_Phase_5,2,5,80,127,1415417604
2614,17,Jits_Phase_5,3,5,56,103,1415426308
2614,17,Jits_Phase_5,0,5,56,103,1415896380
2614,17,Jits_Phase_5,1,1,48,72,1415904528
2614,17,Jits_Phase_5,2,5,63,98,1415967024
2614,17,Jits_Phase_5,3,5,80,127,1415977220
2614,17,Jits_Phase_5,0,5,80,127,1416407528
2614,17,Jits_Phase_5,1,5,56,103,1416416752
2614,17,Jits_Phase_5,2,1,48,75,1416422936
2614,17,Jits_Phase_5,3,5,63,98,1416466792
2614,17,Jits_Phase_5,0,5,80,127,1416917548
2614,17,Jits_Phase_5,1,1,48,72,1416924724
2614,17,Jits_Phase_5,2,5,56,103,1416976736
2614,17,Jits_Phase_5,3,5,63,98,1417006636
2614,17,Jits_Phase_5,0,5,56,103,1417417164
2614,17,Jits_Phase_5,1,5,80,127,1417420156
2614,17,Jits_Phase_5,2,1,48,69,1417438864
2614,17,Jits_Phase_5,3,5,63,98,1417456944
2614,17,Jits_Phase_5,0,1,48,67,1417910292
2614,17,Jits_Phase_5,1,5,56,103,1417946580
2614,17,Jits_Phase_5,2,5,63,98,1417977080
2614,17,Jits_Phase_5,3,5,80,127,1417986600
2614,17,Jits_Phase_5,0,1,48,70,1418410640
2614,17,Jits_Phase_5,1,5,63,98,1418456524
2614,17,Jits_Phase_5,2,5,80,127,1418466644
2614,17,Jits_Phase_5,3,5,56,103,1418476912
2614,17,Jits_Phase_5,0,5,80,127,1418906904
2614,17,Jits_Phase_5,1,1,48,70,1418915792
2614,17,Jits_Phase_5,2,5,56,103,1418957096
2614,17,Jits_Phase_5,3,5,63,98,1418960164
2614,17,Jits_Phase_5,0,1,48,65,1419396292
2614,17,Jits_Phase_5,1,5,56,103,1419437664
2614,17,Jits_Phase_5,2,5,80,127,1419456852
2614,17,Jits_Phase_5,3,5,63,98,1419467052
2614,17,Jits_Phase_5,0,1,48,65,1419904360
2614,17,Jits_Phase_5,1,5,63,98,1419916592
2614,17,Jits_Phase_5,2,5,56,103,1419947388
2614,17,Jits_Phase_5,3,5,80,127,1419966872
2614,17,Jits_Phase_5,0,1,48,68,1420393224
2614,17,Jits_Phase_5,1,5,56,103,1420426600
2614,17,Jits_Phase_5,2,5,80,127,1420436872
2614,17,Jits_Phase_5,3,5,63,98,1420506608
2614,17,Jits_Phase_5,0,5,63,98,1420916996
2614,17,Jits_Phase_5,1,5,80,127,1420957156
2614,17,Jits_Phase_5,2,5,56,103,1420996944
2614,17,Jits_Phase_5,0,1,48,58,1421401980
2614,17,Jits_Phase_5,1,5,56,103,1421426964
2614,17,Jits_Phase_5,2,5,63,98,1421437456
2614,17,Jits_Phase_5,3,5,80,127,1421456720
2614,17,Jits_Phase_5,0,1,48,70,1421906608
2614,17,Jits_Phase_5,1,5,63,98,1421966568
2614,17,Jits_Phase_5,2,5,80,127,1421987472
2614,17,Jits_Phase_5,3,5,56,103,1422006500
2614,17,Jits_Phase_5,0,5,56,103,1422407140
2614,17,Jits_Phase_5,1,1,48,72,1422421864
2614,17,Jits_Phase_5,2,5,80,127,1422486852
2614,17,Jits_Phase_5,3,5,63,98,1422497124
2614,17,Jits_Phase_5,0,1,48,74,1422936620
2614,17,Jits_Phase_5,1,5,80,127,1422946532
2614,17,Jits_Phase_5,2,5,63,98,1422956876
2614,17,Jits_Phase_5,3,5,56,103,1422986476
2614,17,Jits_Phase_5,0,5,63,98,1423406408
2614,17,Jits_Phase_5,1,1,48,70,1423414728
2614,17,Jits_Phase_5,2,5,80,127,1423447340
2614,17,Jits_Phase_5,3,5,56,103,1423506900
2614,17,Jits_Phase_5,0,5,63,98,1423917544
2614,17,Jits_Phase_5,1,1,48,73,1423930200
2614,17,Jits_Phase_5,2,5,56,103,1423966564
2614,17,Jits_Phase_5,3,5,80,127,1423997360
2614,17,Jits_Phase_5,0,5,80,127,1424417296
2614,17,Jits_Phase_5,1,1,48,67,1424423108
2614,17,Jits_Phase_5,2,5,63,98,1424427484
2614,17,Jits_Phase_5,3,5,56,103,1424497260
2614,17,Jits_Phase_5,0,1,48,70,1424914312
2614,17,Jits_Phase_5,1,5,80,127,1424977384
2614,17,Jits_Phase_5,2,5,56,103,1424986456
2614,17,Jits_Phase_5,3,5,63,98,1424989672
2614,17,Jits_Phase_5,0,5,56,103,1425416432
2614,17,Jits_Phase_5,1,1,48,70,1425428916
2614,17,Jits_Phase_5,2,5,80,127,1425437328
2614,17,Jits_Phase_5,3,5,63,98,1425447448
2614,17,Jits_Phase_5,0,1,48,71,1425915340
2614,17,Jits_Phase_5,1,5,63,98,1425926452
2614,17,Jits_Phase_5,2,5,56,103,1425966316
2614,17,Jits_Phase_5,3,5,80,127,1425986800
2614,17,Jits_Phase_5,0,1,48,66,1426397636
2614,17,Jits_Phase_5,1,5,63,98,1426427252
2614,17,Jits_Phase_5,2,5,56,103,1426486696
2614,17,Jits_Phase_5,3,5,80,127,1426489764
2614,17,Jits_Phase_5,0,5,56,103,1426887148
2614,17,Jits_Phase_5,1,5,80,127,1426906336
2614,17,Jits_Phase_5,2,1,48,65,1426914556
2614,17,Jits_Phase_5,3,5,63,98,1426946340
2614,17,Jits_Phase_5,0,1,48,62,1427400212
2614,17,Jits_Phase_5,1,5,56,103,1427416424
2614,17,Jits_Phase_5,2,5,63,98,1427436884
2614,17,Jits_Phase_5,3,5,80,127,1427447228
2614,17,Jits_Phase_5,0,5,80,127,1427886360
2614,17,Jits_Phase_5,1,1,48,57,1427888300
2614,17,Jits_Phase_5,2,5,56,103,1427917372
2614,17,Jits_Phase_5,3,5,63,98,1427957384
2614,17,Jits_Phase_5,0,5,80,127,1428397432
2614,17,Jits_Phase_5,1,1,48,59,1428413956
2614,17,Jits_Phase_5,2,5,56,103,1428416988
2614,17,Jits_Phase_5,3,5,63,98,1428477224
2614,17,Jits_Phase_5,0,5,56,103,1428907312
2614,17,Jits_Phase_5,1,1,48,62,1428912748
2614,17,Jits_Phase_5,2,5,80,127,1428926940
2614,17,Jits_Phase_5,3,5,63,98,1428987104
2614,17,Jits_Phase_5,0,5,80,127,1429386624
2614,17,Jits_Phase_5,1,5,56,103,1429396968
2614,17,Jits_Phase_5,2,1,48,57,1429400384
2614,17,Jits_Phase_5,3,5,63,98,1429437048
2614,17,Jits_Phase_5,0,1,48,56,1429873452
2614,17,Jits_Phase_5,1,5,63,98,1429887348
2614,17,Jits_Phase_5,2,5,56,103,1429927212
2614,17,Jits_Phase_5,3,5,80,127,1429930500
2614,17,Jits_Phase_5,0,1,48,63,1430371168
2614,17,Jits_Phase_5,1,5,63,98,1430406492
2614,17,Jits_Phase_5,2,5,80,127,1430446428
2614,17,Jits_Phase_5,3,5,56,103,1430477208
2614,17,Jits_Phase_5,0,1,48,75,1430869132
2614,17,Jits_Phase_5,1,5,56,103,1430897172
2614,17,Jits_Phase_5,2,5,63,98,1430907220
2614,17,Jits_Phase_5,3,5,80,127,1430937044
2614,17,Jits_Phase_5,0,1,48,67,1431357264
2614,17,Jits_Phase_5,1,5,80,127,1431386360
2614,17,Jits_Phase_5,2,5,63,98,1431457072
2614,17,Jits_Phase_5,3,5,56,103,1431467492
2614,17,Jits_Phase_5,0,1,48,68,1431867436
2614,17,Jits_Phase_5,1,5,63,98,1431887160
2614,17,Jits_Phase_5,2,5,56,103,1431956988
2614,17,Jits_Phase_5,3,5,80,127,1431967096
2614,17,Jits_Phase_5,0,1,48,71,1432353140
2614,17,Jits_Phase_5,1,5,63,98,1432366360
2614,17,Jits_Phase_5,2,5,56,103,1432387216
2614,17,Jits_Phase_5,3,5,80,127,1432426852
2614,17,Jits_Phase_5,0,5,56,103,1432846564
2614,17,Jits_Phase_5,1,5,63,98,1432857056
2614,17,Jits_Phase_5,2,1,48,70,1432861224
2614,17,Jits_Phase_5,3,5,80,127,1432937016
2614,17,Jits_Phase_5,0,1,48,69,1433320960
2614,17,Jits_Phase_5,1,5,63,98,1433337244
2614,17,Jits_Phase_5,2,5,56,103,1433366996
2614,17,Jits_Phase_5,3,5,80,127,1433406956
2614,17,Jits_Phase_5,0,1,48,62,1433822124
2614,17,Jits_Phase_5,1,5,56,103,1433836992
2614,17,Jits_Phase_5,2,5,63,98,1433877080
2614,17,Jits_Phase_5,3,5,80,127,1433917924
2614,17,Jits_Phase_5,0,1,48,69,1434323444
2614,17,Jits_Phase_5,1,5,80,127,1434336740
2614,17,Jits_Phase_5,2,5,56,103,1434416532
2614,17,Jits_Phase_5,3,5,63,98,1434426812
2614,17,Jits_Phase_5,0,1,48,70,1434826952
2614,17,Jits_Phase_5,1,5,56,103,1434877316
2614,17,Jits_Phase_5,2,5,63,98,1434880460
2614,17,Jits_Phase_5,3,5,80,127,1434886468
2614,17,Jits_Phase_5,0,1,48,71,1435334244
2614,17,Jits_Phase_5,1,5,56,103,1435396392
2614,17,Jits_Phase_5,2,5,63,98,1435417000
2614,17,Jits_Phase_5,3,5,80,127,1435427272
2614,17,Jits_Phase_5,0,1,48,67,1435821940
2614,17,Jits_Phase_5,1,5,63,98,1435857408
2614,17,Jits_Phase_5,2,5,80,127,1435866408
2614,17,Jits_Phase_5,3,5,56,103,1435886944
2614,17,Jits_Phase_5,0,1,48,73,1436319748
2614,17,Jits_Phase_5,1,5,63,98,1436356936
2614,17,Jits_Phase_5,2,5,56,103,1436436936
2614,17,Jits_Phase_5,3,5,80,127,1436439852
2614,17,Jits_Phase_5,0,1,48,69,1436822560
2614,17,Jits_Phase_5,1,5,63,98,1436856828
2614,17,Jits_Phase_5,2,5,56,103,1436877064
2614,17,Jits_Phase_5,3,5,80,127,1436906812
2614,17,Jits_Phase_5,0,1,48,67,1437303124
2614,17,Jits_Phase_5,1,5,56,103,1437357328
2614,17,Jits_Phase_5,2,5,63,98,1437376960
2614,17,Jits_Phase_5,3,5,80,127,1437387080
2614,17,Jits_Phase_5,0,1,48,73,1437805956
2614,17,Jits_Phase_5,1,5,56,103,1437886740
2614,17,Jits_Phase_5,2,5,63,98,1437916696
2614,17,Jits_Phase_5,3,5,80,127,1437919912
2614,17,Jits_Phase_5,0,1,48,69,1438307496
2614,17,Jits_Phase_5,1,5,56,103,1438337560
2614,17,Jits_Phase_5,2,5,63,98,1438377496
2614,17,Jits_Phase_5,3,5,80,127,1438436672
2614,17,Jits_Phase_5,0,1,48,69,1438803560
2614,17,Jits_Phase_5,1,5,56,103,1438866756
2614,17,Jits_Phase_5,2,5,63,98,1438877248
2614,17,Jits_Phase_5,3,5,80,127,1438936724
2614,17,Jits_Phase_5,0,1,48,69,1439332080
2614,17,Jits_Phase_5,1,5,56,103,1439366652
2614,17,Jits_Phase_5,2,5,80,127,1439386964
2614,17,Jits_Phase_5,3,5,63,98,1439416712
2614,17,Jits_Phase_5,0,1,48,69,1439839924
2614,17,Jits_Phase_5,1,5,80,127,1439867372
2614,17,Jits_Phase_5,2,5,56,103,1439876672
2614,17,Jits_Phase_5,3,5,63,98,1439897056
2614,17,Jits_Phase_5,0,1,48,73,1440335264
2614,17,Jits_Phase_5,1,5,63,98,1440356860
2614,17,Jits_Phase_5,2,5,80,127,1440436564
2614,17,Jits_Phase_5,3,5,56,103,1440446760
2614,17,Jits_Phase_5,0,1,48,71,1440855320
2614,17,Jits_Phase_5,1,5,80,127,1440946516
2614,17,Jits_Phase_5,2,5,56,103,1440967032
2614,17,Jits_Phase_5,3,5,63,98,1440970100
2614,17,Jits_Phase_5,0,1,48,71,1441344400
2614,17,Jits_Phase_5,1,5,63,98,1441447288
2614,17,Jits_Phase_5,2,5,80,127,1441450652
2614,17,Jits_Phase_5,3,5,56,103,1441506780
2614,17,Jits_Phase_5,0,1,48,71,1441859892
2614,17,Jits_Phase_5,1,5,56,103,1441926596
2614,17,Jits_Phase_5,2,5,80,127,1441936720
2614,17,Jits_Phase_5,3,5,63,98,1441976712
2614,17,Jits_Phase_5,0,1,48,73,1442374852
2614,17,Jits_Phase_5,1,5,56,103,1442406860
2614,17,Jits_Phase_5,2,5,63,98,1442467312
2614,17,Jits_Phase_5,3,5,80,127,1442477508
2614,17,Jits_Phase_5,0,1,48,73,1442883496
2614,17,Jits_Phase_5,1,5,63,98,1442916724
2614,17,Jits_Phase_5,2,5,80,127,1442956660
2614,17,Jits_Phase_5,3,5,56,103,1442996732
2614,17,Jits_Phase_5,0,1,48,66,1443379336
2614,17,Jits_Phase_5,1,5,56,103,1443416768
2614,17,Jits_Phase_5,2,5,63,98,1443497748
2614,17,Jits_Phase_5,3,5,80,127,1443500884
2614,17,Jits_Phase_5,0,1,48,75,1443916708
2614,17,Jits_Phase_5,1,5,80,127,1443976744
2614,17,Jits_Phase_5,2,5,56,103,1444007388
2614,17,Jits_Phase_5,3,5,63,98,1444011116
2614,17,Jits_Phase_5,0,5,56,103,1444437612
2614,17,Jits_Phase_5,1,1,48,73,1444454280
2614,17,Jits_Phase_5,2,5,80,127,1444456868
2614,17,Jits_Phase_5,3,5,63,98,1444496808
2614,17,Jits_Phase_5,0,5,80,127,1444916992
2614,17,Jits_Phase_5,1,5,63,98,1444936928
2614,17,Jits_Phase_5,2,1,48,66,1444952552
2614,17,Jits_Phase_5,3,5,56,103,1444996636
2614,17,Jits_Phase_5,0,1,48,71,1445420068
2614,17,Jits_Phase_5,1,5,63,98,1445426684
2614,17,Jits_Phase_5,2,5,56,103,1445436752
2614,17,Jits_Phase_5,3,5,80,127,1445487096
2614,17,Jits_Phase_5,0,1,48,60,1445885052
2614,17,Jits_Phase_5,1,5,56,103,1445916988
2614,17,Jits_Phase_5,2,5,63,98,1445936620
2614,17,Jits_Phase_5,3,5,80,127,1445946692
2614,17,Jits_Phase_5,0,1,48,76,1446385616
2614,17,Jits_Phase_5,1,5,56,103,1446406468
2614,17,Jits_Phase_5,2,5,63,98,1446409608
2614,17,Jits_Phase_5,3,5,80,127,1446426924
2614,17,Jits_Phase_5,0,1,48,81,1446901592
2614,17,Jits_Phase_5,1,5,63,98,1446947400
2614,17,Jits_Phase_5,2,5,56,103,1446976876
2614,17,Jits_Phase_5,3,5,80,127,1447006608
2614,17,Jits_Phase_5,0,1,48,76,1447401344
2614,17,Jits_Phase_5,1,5,80,127,1447406848
2614,17,Jits_Phase_5,2,5,56,103,1447497588
2614,17,Jits_Phase_5,3,5,63,98,1447500500
2614,17,Jits_Phase_5,0,5,56,103,1447906668
2614,17,Jits_Phase_5,1,5,80,127,1447909808
2614,17,Jits_Phase_5,2,1,48,70,1447927172
2614,17,Jits_Phase_5,3,5,63,98,1447986528
2614,17,Jits_Phase_5,0,1,48,83,1448404356
2614,17,Jits_Phase_5,1,5,80,127,1448407536
2614,17,Jits_Phase_5,2,5,63,98,1448466804
2614,17,Jits_Phase_5,3,5,56,103,1448496480
2614,17,Jits_Phase_5,0,5,63,98,1448907216
2614,17,Jits_Phase_5,1,1,48,76,1448917412
2614,17,Jits_Phase_5,2,5,80,127,1448919052
2614,17,Jits_Phase_5,3,5,56,103,1448986932
2614,17,Jits_Phase_5,0,1,48,79,1449413668
2614,17,Jits_Phase_5,1,5,56,103,1449467488
2614,17,Jits_Phase_5,2,5,80,127,1449497164
2614,17,Jits_Phase_5,3,5,63,98,1449547300
2614,17,Jits_Phase_5,0,1,48,72,1449905780
2614,17,Jits_Phase_5,1,5,63,98,1450057296
2614,17,Jits_Phase_5,2,5,56,103,1450086824
2614,17,Jits_Phase_5,3,5,80,127,1450089888
2614,17,Jits_Phase_5,0,1,48,78,1450440728
2614,17,Jits_Phase_5,1,5,63,98,1450556820
2614,17,Jits_Phase_5,2,5,80,127,1450577128
2614,17,Jits_Phase_5,3,5,56,103,1450586428
2614,17,Jits_Phase_5,0,1,48,78,1450981980
2614,17,Jits_Phase_5,1,5,56,103,1451066844
2614,17,Jits_Phase_5,2,5,63,98,1451069692
2614,17,Jits_Phase_5,3,5,80,127,1451087364
2614,17,Jits_Phase_5,0,5,56,103,1451517276
2614,17,Jits_Phase_5,1,1,48,77,1451519944
2614,17,Jits_Phase_5,2,5,63,98,1451526420
2614,17,Jits_Phase_5,3,5,80,127,1451557364
2614,17,Jits_Phase_5,0,1,48,72,1451996412
2614,17,Jits_Phase_5,1,5,63,98,1452036440
2614,17,Jits_Phase_5,2,5,80,127,1452057048
2614,17,Jits_Phase_5,3,5,56,103,1452097596
2614,17,Jits_Phase_5,0,1,48,73,1452500572
2614,17,Jits_Phase_5,1,5,56,103,1452567056
2614,17,Jits_Phase_5,2,5,63,98,1452606852
2614,17,Jits_Phase_5,3,5,80,127,1452610440
2614,17,Jits_Phase_5,0,1,48,73,1453000316
2614,17,Jits_Phase_5,1,5,80,127,1453007312
2614,17,Jits_Phase_5,2,5,56,103,1453047028
2614,17,Jits_Phase_5,3,5,63,98,1453097376
2614,17,Jits_Phase_5,0,1,48,58,1453497600
2614,17,Jits_Phase_5,1,5,56,103,1453567296
2614,17,Jits_Phase_5,2,5,80,127,1453576520
2614,17,Jits_Phase_5,3,5,63,98,1453607224
2614,17,Jits_Phase_5,0,1,48,51,1454009184
2614,17,Jits_Phase_5,1,5,56,103,1454016928
2614,17,Jits_Phase_5,2,5,80,127,1454056940
2614,17,Jits_Phase_5,3,5,63,98,1454106976
2614,17,Jits_Phase_5,0,1,48,59,1454482632
2614,17,Jits_Phase_5,1,5,56,103,1454516608
2614,17,Jits_Phase_5,2,5,80,127,1454556396
2614,17,Jits_Phase_5,3,5,63,98,1454606580
2614,17,Jits_Phase_5,0,1,48,60,1454986884
2614,17,Jits_Phase_5,1,5,80,127,1455007064
2614,17,Jits_Phase_5,2,5,63,98,1455087140
2614,17,Jits_Phase_5,3,5,56,103,1455097188
2614,17,Jits_Phase_5,0,1,48,55,1455488212
2614,17,Jits_Phase_5,1,5,80,127,1455557012
2614,17,Jits_Phase_5,2,5,56,103,1455567280
2614,17,Jits_Phase_5,3,5,63,98,1455586604
2614,17,Jits_Phase_5,0,1,48,39,1456011028
2614,17,Jits_Phase_5,1,5,63,98,1456027092
2614,17,Jits_Phase_5,2,5,56,103,1456096696
2614,17,Jits_Phase_5,3,5,80,127,1456099612
2614,17,Jits_Phase_5,0,1,48,60,1456497968
2614,17,Jits_Phase_5,1,5,80,127,1456516420
2614,17,Jits_Phase_5,2,5,63,98,1456566624
2614,17,Jits_Phase_5,3,5,56,103,1456606544
2614,17,Jits_Phase_5,0,1,48,56,1456975468
2614,17,Jits_Phase_5,1,5,63,98,1457057300
2614,17,Jits_Phase_5,2,5,56,103,1457097224
2614,17,Jits_Phase_5,3,5,80,127,1457107420
2614,17,Jits_Phase_5,0,1,48,63,1457504892
2614,17,Jits_Phase_5,1,5,63,98,1457546568
2614,17,Jits_Phase_5,2,5,56,103,1457567104
2614,17,Jits_Phase_5,3,5,80,127,1457586516
2614,17,Jits_Phase_5,0,1,48,62,1457989352
2614,17,Jits_Phase_5,1,5,80,127,1458007292
2614,17,Jits_Phase_5,2,5,56,103,1458016808
2614,17,Jits_Phase_5,3,5,63,98,1458036968
2614,17,Jits_Phase_5,0,1,48,79,1458481428
2614,17,Jits_Phase_5,1,5,63,98,1458536924
2614,17,Jits_Phase_5,2,5,56,103,1458576940
2614,17,Jits_Phase_5,3,5,80,127,1458606596
2614,17,Jits_Phase_5,0,1,48,70,1458979984
2614,17,Jits_Phase_5,1,5,56,103,1458996520
2614,17,Jits_Phase_5,2,5,63,98,1459027244
2614,17,Jits_Phase_5,3,5,80,127,1459057140
2614,17,Jits_Phase_5,0,5,80,127,1459416400
2614,17,Jits_Phase_5,1,1,48,74,1459465672
2614,17,Jits_Phase_5,2,5,56,103,1459487116
2614,17,Jits_Phase_5,3,5,63,98,1459490184
2614,17,Jits_Phase_5,0,5,56,103,1459927464
2614,17,Jits_Phase_5,1,1,48,68,1459941892
2614,17,Jits_Phase_5,2,5,63,98,1459976684
2614,17,Jits_Phase_5,3,5,80,127,1460007180
2614,17,Jits_Phase_5,0,5,63,98,1460406700
2614,17,Jits_Phase_5,1,5,80,127,1460409840
2614,17,Jits_Phase_5,2,1,48,80,1460428028
2614,17,Jits_Phase_5,3,5,56,103,1460467080
2614,17,Jits_Phase_5,0,1,48,73,1460896368
2614,17,Jits_Phase_5,1,5,56,103,1460937148
2614,17,Jits_Phase_5,2,5,80,127,1460947344
2614,17,Jits_Phase_5,3,5,63,98,1460997004
2614,17,Jits_Phase_5,0,1,48,73,1461397916
2614,17,Jits_Phase_5,1,5,63,98,1461407156
2614,17,Jits_Phase_5,2,5,56,103,1461417348
2614,17,Jits_Phase_5,3,5,80,127,1461447096
2614,17,Jits_Phase_5,0,1,48,72,1461884316
2614,17,Jits_Phase_5,1,5,63,98,1461936568
2614,17,Jits_Phase_5,2,5,80,127,1461940008
2614,17,Jits_Phase_5,3,5,56,103,1461967144
2614,17,Jits_Phase_5,0,1,48,70,1462382260
2614,17,Jits_Phase_5,1,5,63,98,1462456616
2614,17,Jits_Phase_5,2,5,56,103,1462477148
2614,17,Jits_Phase_5,3,5,80,127,1462481172
2614,17,Jits_Phase_5,0,1,48,75,1462900288
2614,17,Jits_Phase_5,1,5,63,98,1462916424
2614,17,Jits_Phase_5,2,5,56,103,1462987076
2614,17,Jits_Phase_5,3,5,80,127,1463006996
2614,17,Jits_Phase_5,0,5,56,103,1463406892
2614,17,Jits_Phase_5,1,1,48,68,1463410912
2614,17,Jits_Phase_5,2,5,63,98,1463417156
2614,17,Jits_Phase_5,3,5,80,127,1463507344
2614,17,Jits_Phase_5,0,1,48,75,1463876660
2614,17,Jits_Phase_5,1,5,56,103,1463927024
2614,17,Jits_Phase_5,2,5,80,127,1463967036
2614,17,Jits_Phase_5,3,5,63,98,1463977440
2614,17,Jits_Phase_5,0,1,48,71,1464366568
2614,17,Jits_Phase_5,1,5,56,103,1464447304
2614,17,Jits_Phase_5,2,5,63,98,1464477112
2614,17,Jits_Phase_5,3,5,80,127,1464506788
2614,17,Jits_Phase_5,0,5,80,127,1464907056
2614,17,Jits_Phase_5,1,1,48,59,1464911148
2614,17,Jits_Phase_5,2,5,63,98,1464946988
2614,17,Jits_Phase_5,3,5,56,103,1464966768
2614,17,Jits_Phase_5,0,1,48,70,1465397796
2614,17,Jits_Phase_5,1,5,56,103,1465446744
2614,17,Jits_Phase_5,2,5,80,127,1465467128
2614,17,Jits_Phase_5,3,5,63,98,1465486764
2614,17,Jits_Phase_5,0,1,48,70,1465894068
2614,17,Jits_Phase_5,1,5,63,98,1465916900
2614,17,Jits_Phase_5,2,5,56,103,1465927024
2614,17,Jits_Phase_5,3,5,80,127,1465986584
2614,17,Jits_Phase_5,0,1,48,76,1466409628
2614,17,Jits_Phase_5,1,5,56,103,1466416552
2614,17,Jits_Phase_5,2,5,63,98,1466487080
2614,17,Jits_Phase_5,3,5,80,127,1466506716
2614,17,Jits_Phase_5,0,5,56,103,1466917428
2614,17,Jits_Phase_5,1,1,48,79,1466929468
2614,17,Jits_Phase_5,2,5,63,98,1466946824
2614,17,Jits_Phase_5,3,5,80,127,1466986908
2614,17,Jits_Phase_5,0,5,63,98,1467406632
2614,17,Jits_Phase_5,1,1,48,76,1467409604
2614,17,Jits_Phase_5,2,5,56,103,1467456852
2614,17,Jits_Phase_5,3,5,80,127,1467467044
2614,17,Jits_Phase_5,0,1,48,78,1467899976
2614,17,Jits_Phase_5,1,5,56,103,1467947500
2614,17,Jits_Phase_5,2,5,63,98,1467996664
2614,17,Jits_Phase_5,3,5,80,127,1468006712
2614,17,Jits_Phase_5,0,1,48,75,1468397256
2614,17,Jits_Phase_5,1,5,56,103,1468417508
2614,17,Jits_Phase_5,2,5,63,98,1468426584
2614,17,Jits_Phase_5,3,5,80,127,1468506384
2614,17,Jits_Phase_5,0,9999,9999,9999,1384154192
2614,17,Jits_Phase_5,1,9999,9999,9999,1384654948
2614,17,Jits_Phase_5,2,9999,9999,9999,1385154676
2614,17,Jits_Phase_5,3,9999,9999,9999,1385654400
2614,17,Jits_Phase_5,4,9999,9999,9999,1386155088
2614,17,Jits_Phase_5,5,9999,9999,9999,1386665080
2614,17,Jits_Phase_5,6,9999,9999,9999,1387164788
2614,17,Jits_Phase_5,7,9999,9999,9999,1387664440
2614,17,Jits_Phase_5,8,9999,9999,9999,1388164220
2614,17,Jits_Phase_5,9,9999,9999,9999,1388664956
2614,17,Jits_Phase_5,10,9999,9999,9999,1389164644
2614,17,Jits_Phase_5,11,9999,9999,9999,1389664308
2614,17,Jits_Phase_5,12,9999,9999,9999,1390165096
2614,17,Jits_Phase_5,13,9999,9999,9999,1390664772
2614,17,Jits_Phase_5,14,9999,9999,9999,1391164520
2614,17,Jits_Phase_5,15,9999,9999,9999,1391664184
2614,17,Jits_Phase_5,16,9999,9999,9999,1392164988
2614,17,Jits_Phase_5,17,9999,9999,9999,1392664660
2614,17,Jits_Phase_5,18,9999,9999,9999,1393164352
2614,17,Jits_Phase_5,19,9999,9999,9999,1393664112
2614,17,Jits_Phase_5,20,9999,9999,9999,1394164848
2614,17,Jits_Phase_5,21,9999,9999,9999,1394664536
2614,17,Jits_Phase_5,22,9999,9999,9999,1395164224
2614,17,Jits_Phase_5,23,9999,9999,9999,1395664964
2614,17,Jits_Phase_5,24,9999,9999,9999,1396164728
2614,17,Jits_Phase_5,25,9999,9999,9999,1396664408
2614,17,Jits_Phase_5,26,9999,9999,9999,1397164100
2614,17,Jits_Phase_5,27,9999,9999,9999,1397664880
2614,17,Jits_Phase_5,28,9999,9999,9999,1398164572
2614,17,Jits_Phase_5,29,9999,9999,9999,1398664260
2614,17,Jits_Phase_5,30,9999,9999,9999,1399154812
2614,17,Jits_Phase_5,31,9999,9999,9999,1399654504
2614,17,Jits_Phase_5,32,9999,9999,9999,1400154192
2614,17,Jits_Phase_5,33,9999,9999,9999,1400654928
2614,17,Jits_Phase_5,34,9999,9999,9999,1401154616
2614,17,Jits_Phase_5,35,9999,9999,9999,1401654356
2614,17,Jits_Phase_5,36,9999,9999,9999,1402155064
2614,17,Jits_Phase_5,37,9999,9999,9999,1402665076
2614,17,Jits_Phase_5,38,9999,9999,9999,1403164752
2614,17,Jits_Phase_5,39,9999,9999,9999,1403664500
2614,17,Jits_Phase_5,40,9999,9999,9999,1404164176
2614,17,Jits_Phase_5,41,9999,9999,9999,1404664908
2614,17,Jits_Phase_5,42,9999,9999,9999,1405164596
2614,17,Jits_Phase_5,43,9999,9999,9999,1405664344
2614,17,Jits_Phase_5,44,9999,9999,9999,1406165064
2614,17,Jits_Phase_5,45,9999,9999,9999,1406664824
2614,17,Jits_Phase_5,46,9999,9999,9999,1407164496
2614,17,Jits_Phase_5,47,9999,9999,9999,1407664252
2614,17,Jits_Phase_5,48,9999,9999,9999,1408174192
2614,17,Jits_Phase_5,49,9999,9999,9999,1408674936
2614,17,Jits_Phase_5,50,9999,9999,9999,1409174600
2614,17,Jits_Phase_5,51,9999,9999,9999,1409674364
2614,17,Jits_Phase_5,52,9999,9999,9999,1410175088
2614,17,Jits_Phase_5,53,9999,9999,9999,1410674780
2614,17,Jits_Phase_5,54,9999,9999,9999,1411174528
2614,17,Jits_Phase_5,55,9999,9999,9999,1411674220
2614,17,Jits_Phase_5,56,9999,9999,9999,1412174956
2614,17,Jits_Phase_5,57,9999,9999,9999,1412674640
2614,17,Jits_Phase_5,58,9999,9999,9999,1413174364
2614,17,Jits_Phase_5,59,9999,9999,9999,1413675072
2614,17,Jits_Phase_5,60,9999,9999,9999,1414185024
2614,17,Jits_Phase_5,61,9999,9999,9999,1414684772
2614,17,Jits_Phase_5,62,9999,9999,9999,1415184508
2614,17,Jits_Phase_5,63,9999,9999,9999,1415684196
2614,17,Jits_Phase_5,64,9999,9999,9999,1416204400
2614,17,Jits_Phase_5,65,9999,9999,9999,1416704084
2614,17,Jits_Phase_5,66,9999,9999,9999,1417204820
2614,17,Jits_Phase_5,67,9999,9999,9999,1417704572
2614,17,Jits_Phase_5,68,9999,9999,9999,1418204264
2614,17,Jits_Phase_5,69,9999,9999,9999,1418704988
2614,17,Jits_Phase_5,70,9999,9999,9999,1419204724
2614,17,Jits_Phase_5,71,9999,9999,9999,1419704416
2614,17,Jits_Phase_5,72,9999,9999,9999,1420204088
2614,17,Jits_Phase_5,73,9999,9999,9999,1420704884
2614,17,Jits_Phase_5,74,9999,9999,9999,1421204584
2614,17,Jits_Phase_5,75,9999,9999,9999,1421704272
2614,17,Jits_Phase_5,76,9999,9999,9999,1422204996
2614,17,Jits_Phase_5,77,9999,9999,9999,1422704748
2614,17,Jits_Phase_5,78,9999,9999,9999,1423204440
2614,17,Jits_Phase_5,79,9999,9999,9999,1423704192
2614,17,Jits_Phase_5,80,9999,9999,9999,1424204912
2614,17,Jits_Phase_5,81,9999,9999,9999,1424684112
2614,17,Jits_Phase_5,82,9999,9999,9999,1425184844
2614,17,Jits_Phase_5,83,9999,9999,9999,1425684592
2614,17,Jits_Phase_5,84,9999,9999,9999,1426184288
2614,17,Jits_Phase_5,85,9999,9999,9999,1426685008
2614,17,Jits_Phase_5,86,9999,9999,9999,1427184752
2614,17,Jits_Phase_5,87,9999,9999,9999,1427684444
2614,17,Jits_Phase_5,88,9999,9999,9999,1428184192
2614,17,Jits_Phase_5,89,9999,9999,9999,1428684924
2614,17,Jits_Phase_5,90,9999,9999,9999,1429184616
2614,17,Jits_Phase_5,91,9999,9999,9999,1429684300
2614,17,Jits_Phase_5,92,9999,9999,9999,1430185024
2614,17,Jits_Phase_5,93,9999,9999,9999,1430684772
2614,17,Jits_Phase_5,94,9999,9999,9999,1431184448
2614,17,Jits_Phase_5,95,9999,9999,9999,1431684200
2614,17,Jits_Phase_5,96,9999,9999,9999,1432184924
2614,17,Jits_Phase_5,97,9999,9999,9999,1432634480
2614,17,Jits_Phase_5,98,9999,9999,9999,1433134204
2614,17,Jits_Phase_5,99,9999,9999,9999,1433634932
2614,17,Jits_Phase_5,100,9999,9999,9999,1434134604
2614,17,Jits_Phase_5,101,9999,9999,9999,1434634356
2614,17,Jits_Phase_5,102,9999,9999,9999,1435135064
2614,17,Jits_Phase_5,103,9999,9999,9999,1435634748
2614,17,Jits_Phase_5,104,9999,9999,9999,1436134496
2614,17,Jits_Phase_5,105,9999,9999,9999,1436634164
2614,17,Jits_Phase_5,106,9999,9999,9999,1437134960
2614,17,Jits_Phase_5,107,9999,9999,9999,1437634632
2614,17,Jits_Phase_5,108,9999,9999,9999,1438134376
2614,17,Jits_Phase_5,109,9999,9999,9999,1438635100
2614,17,Jits_Phase_5,110,9999,9999,9999,1439145040
2614,17,Jits_Phase_5,111,9999,9999,9999,1439644784
2614,17,Jits_Phase_5,112,9999,9999,9999,1440144460
2614,17,Jits_Phase_5,113,9999,9999,9999,1440644212
2614,17,Jits_Phase_5,114,9999,9999,9999,1441195124
2614,17,Jits_Phase_5,115,9999,9999,9999,1441705056
2614,17,Jits_Phase_5,116,9999,9999,9999,1442204728
2614,17,Jits_Phase_5,117,9999,9999,9999,1442704476
2614,17,Jits_Phase_5,118,9999,9999,9999,1443204224
2614,17,Jits_Phase_5,119,9999,9999,9999,1443704936
2614,17,Jits_Phase_5,120,9999,9999,9999,1444204604
2614,17,Jits_Phase_5,121,9999,9999,9999,1444704356
2614,17,Jits_Phase_5,122,9999,9999,9999,1445205084
2614,17,Jits_Phase_5,123,9999,9999,9999,1445704764
2614,17,Jits_Phase_5,124,9999,9999,9999,1446204508
2614,17,Jits_Phase_5,125,9999,9999,9999,1446704216
2614,17,Jits_Phase_5,126,9999,9999,9999,1447204936
2614,17,Jits_Phase_5,127,9999,9999,9999,1447704676
2614,17,Jits_Phase_5,128,9999,9999,9999,1448204416
2614,17,Jits_Phase_5,129,9999,9999,9999,1448704104
2614,17,Jits_Phase_5,130,9999,9999,9999,1449204820
2614,17,Jits_Phase_5,131,9999,9999,9999,1449804908
2614,17,Jits_Phase_5,132,9999,9999,9999,1450304576
2614,17,Jits_Phase_5,133,9999,9999,9999,1450804328
2614,17,Jits_Phase_5,134,9999,9999,9999,1451305020
2614,17,Jits_Phase_5,135,9999,9999,9999,1451804764
2614,17,Jits_Phase_5,136,9999,9999,9999,1452304460
2614,17,Jits_Phase_5,137,9999,9999,9999,1452804204
2614,17,Jits_Phase_5,138,9999,9999,9999,1453304924
2614,17,Jits_Phase_5,139,9999,9999,9999,1453804604
2614,17,Jits_Phase_5,140,9999,9999,9999,1454304352
2614,17,Jits_Phase_5,141,9999,9999,9999,1454805076
2614,17,Jits_Phase_5,142,9999,9999,9999,1455304828
2614,17,Jits_Phase_5,143,9999,9999,9999,1455804504
2614,17,Jits_Phase_5,144,9999,9999,9999,1456304244
2614,17,Jits_Phase_5,145,9999,9999,9999,1456804968
2614,17,Jits_Phase_5,146,9999,9999,9999,1457304648
2614,17,Jits_Phase_5,147,9999,9999,9999,1457804400
2614,17,Jits_Phase_5,148,9999,9999,9999,1458304072
2614,17,Jits_Phase_5,149,9999,9999,9999,1458804796
2614,17,Jits_Phase_5,150,9999,9999,9999,1459204216
2614,17,Jits_Phase_5,151,9999,9999,9999,1459704928
2614,17,Jits_Phase_5,152,9999,9999,9999,1460204620
2614,17,Jits_Phase_5,153,9999,9999,9999,1460704368
2614,17,Jits_Phase_5,154,9999,9999,9999,1461205092
2614,17,Jits_Phase_5,155,9999,9999,9999,1461704764
2614,17,Jits_Phase_5,156,9999,9999,9999,1462204508
2614,17,Jits_Phase_5,157,9999,9999,9999,1462704248
2614,17,Jits_Phase_5,158,9999,9999,9999,1463204972
2614,17,Jits_Phase_5,159,9999,9999,9999,1463704648
2614,17,Jits_Phase_5,160,9999,9999,9999,1464204412
2614,17,Jits_Phase_5,161,9999,9999,9999,1464704092
2614,17,Jits_Phase_5,162,9999,9999,9999,1465204812
2614,17,Jits_Phase_5,163,9999,9999,9999,1465704504
2614,17,Jits_Phase_5,164,9999,9999,9999,1466204248
2614,17,Jits_Phase_5,165,9999,9999,9999,1466704976
2614,17,Jits_Phase_5,166,9999,9999,9999,1467204720
2614,17,Jits_Phase_5,167,9999,9999,9999,1467704412
2614,17,Jits_Phase_5,168,9999,9999,9999,1468204140
2614,17,Jits_Phase_5,169,9999,9999,9999,1468704856
2615,7,Jits_ISO_8,0,5,56,103,1479696004
2615,7,Jits_ISO_8,1,5,63,98,1479699108
2615,7,Jits_ISO_8,2,5,80,127,1479702076
2615,7,Jits_ISO_8,0,5,56,103,1480495408
2615,7,Jits_ISO_8,1,5,63,98,1480498608
2615,7,Jits_ISO_8,2,5,80,127,1480501872
2615,7,Jits_ISO_8,0,5,80,127,1481236004
2615,7,Jits_ISO_8,1,5,63,98,1481326092
2615,7,Jits_ISO_8,2,5,56,103,1481336064
2615,7,Jits_ISO_8,0,5,56,103,1482055904
2615,7,Jits_ISO_8,1,5,63,98,1482066252
2615,7,Jits_ISO_8,2,5,80,127,1482156308
2615,7,Jits_ISO_8,0,5,63,98,1482826028
2615,7,Jits_ISO_8,1,1,48,73,1482849072
2615,7,Jits_ISO_8,2,5,80,127,1482855996
2615,7,Jits_ISO_8,3,5,56,103,1482885448
2615,7,Jits_ISO_8,0,1,48,73,1483621044
2615,7,Jits_ISO_8,1,5,56,103,1483625872
2615,7,Jits_ISO_8,2,5,80,127,1483726256
2615,7,Jits_ISO_8,3,5,63,98,1483776312
2615,7,Jits_ISO_8,0,5,56,103,1484425516
2615,7,Jits_ISO_8,1,1,48,68,1484469164
2615,7,Jits_ISO_8,2,5,80,127,1484475936
2615,7,Jits_ISO_8,3,5,63,98,1484515800
2615,7,Jits_ISO_8,0,1,48,76,1485255352
2615,7,Jits_ISO_8,1,5,80,127,1485256996
2615,7,Jits_ISO_8,2,5,63,98,1485285700
2615,7,Jits_ISO_8,3,5,56,103,1485356336
2615,7,Jits_ISO_8,0,5,63,98,1486085560
2615,7,Jits_ISO_8,1,1,48,71,1486091820
2615,7,Jits_ISO_8,2,5,56,103,1486116200
2615,7,Jits_ISO_8,3,5,80,127,1486175792
2615,7,Jits_ISO_8,0,5,56,103,1486825700
2615,7,Jits_ISO_8,1,5,80,127,1486828696
2615,7,Jits_ISO_8,2,1,48,70,1486889652
2615,7,Jits_ISO_8,3,5,63,98,1486945820
2615,7,Jits_ISO_8,0,1,48,75,1487670880
2615,7,Jits_ISO_8,1,5,56,103,1487705452
2615,7,Jits_ISO_8,2,5,80,127,1487746368
2615,7,Jits_ISO_8,3,5,63,98,1487755812
2615,7,Jits_ISO_8,0,1,48,72,1488463924
2615,7,Jits_ISO_8,1,5,56,103,1488466432
2615,7,Jits_ISO_8,2,5,80,127,1488485916
2615,7,Jits_ISO_8,3,5,63,98,1488565772
2615,7,Jits_ISO_8,0,5,80,127,1489255884
2615,7,Jits_ISO_8,1,1,48,67,1489291740
2615,7,Jits_ISO_8,2,5,56,103,1489356128
2615,7,Jits_ISO_8,3,5,63,98,1489366324
2615,7,Jits_ISO_8,0,5,63,98,1490025796
2615,7,Jits_ISO_8,1,5,80,127,1490086336
2615,7,Jits_ISO_8,2,5,56,103,1490095784
2615,7,Jits_ISO_8,3,1,48,73,1490116664
2615,7,Jits_ISO_8,0,5,56,103,1490825724
2615,7,Jits_ISO_8,1,1,48,71,1490870572
2615,7,Jits_ISO_8,2,5,63,98,1490896140
2615,7,Jits_ISO_8,3,5,80,127,1490899736
2615,7,Jits_ISO_8,0,1,48,69,1491621052
2615,7,Jits_ISO_8,1,5,63,98,1491656144
2615,7,Jits_ISO_8,2,5,56,103,1491706272
2615,7,Jits_ISO_8,3,5,80,127,1491709340
2615,7,Jits_ISO_8,0,5,56,103,1492415836
2615,7,Jits_ISO_8,1,5,80,127,1492418980
2615,7,Jits_ISO_8,2,1,48,73,1492433704
2615,7,Jits_ISO_8,3,5,63,98,1492505888
2615,7,Jits_ISO_8,0,1,48,76,1493228176
2615,7,Jits_ISO_8,1,5,63,98,1493255628
2615,7,Jits_ISO_8,2,5,56,103,1493345548
2615,7,Jits_ISO_8,3,5,80,127,1493376644
2615,7,Jits_ISO_8,0,5,56,103,1494045980
2615,7,Jits_ISO_8,1,1,48,69,1494068236
2615,7,Jits_ISO_8,2,5,63,98,1494146400
2615,7,Jits_ISO_8,3,5,80,127,1494176208
2615,7,Jits_ISO_8,0,5,63,98,1494866264
2615,7,Jits_ISO_8,1,5,56,103,1494875636
2615,7,Jits_ISO_8,2,1,48,69,1494877932
2615,7,Jits_ISO_8,3,5,80,127,1494965616
2615,7,Jits_ISO_8,0,1,48,67,1495681296
2615,7,Jits_ISO_8,1,5,63,98,1495685524
2615,7,Jits_ISO_8,2,5,56,103,1495766368
2615,7,Jits_ISO_8,3,5,80,127,1495769508
2615,7,Jits_ISO_8,0,5,80,127,1496446200
2615,7,Jits_ISO_8,1,5,63,98,1496465760
2615,7,Jits_ISO_8,2,1,48,67,1496514060
2615,7,Jits_ISO_8,3,5,56,103,1496526592
2615,7,Jits_ISO_8,0,5,56,103,1497286080
2615,7,Jits_ISO_8,1,1,48,69,1497296544
2615,7,Jits_ISO_8,2,5,63,98,1497305408
2615,7,Jits_ISO_8,3,5,80,127,1497308696
2615,7,Jits_ISO_8,0,5,63,98,1498026304
2615,7,Jits_ISO_8,1,1,48,60,1498078276
2615,7,Jits_ISO_8,2,5,80,127,1498106392
2615,7,Jits_ISO_8,3,5,56,103,1498115396
2615,7,Jits_ISO_8,0,1,48,58,1498839312
2615,7,Jits_ISO_8,1,5,63,98,1498845412
2615,7,Jits_ISO_8,2,5,56,103,1498866168
2615,7,Jits_ISO_8,3,5,80,127,1498916148
2615,7,Jits_ISO_8,0,1,48,67,1499592184
2615,7,Jits_ISO_8,1,5,80,127,1499646240
2615,7,Jits_ISO_8,2,5,63,98,1499686404
2615,7,Jits_ISO_8,3,5,56,103,1499705824
2615,7,Jits_ISO_8,0,1,48,65,1500423896
2615,7,Jits_ISO_8,1,5,56,103,1500486056
2615,7,Jits_ISO_8,2,5,63,98,1500496104
2615,7,Jits_ISO_8,3,5,80,127,1500515740
2615,7,Jits_ISO_8,0,1,48,65,1501214788
2615,7,Jits_ISO_8,1,5,56,103,1501216508
2615,7,Jits_ISO_8,2,5,63,98,1501306300
2615,7,Jits_ISO_8,3,5,80,127,1501365480
2615,7,Jits_ISO_8,0,1,48,57,1502027988
2615,7,Jits_ISO_8,1,5,80,127,1502045548
2615,7,Jits_ISO_8,2,5,56,103,1502055668
2615,7,Jits_ISO_8,3,5,63,98,1502125276
2615,7,Jits_ISO_8,0,1,48,72,1502831660
2615,7,Jits_ISO_8,1,5,63,98,1502876196
2615,7,Jits_ISO_8,2,5,80,127,1502966020
2615,7,Jits_ISO_8,3,5,56,103,1502976364
2615,7,Jits_ISO_8,0,5,63,98,1503616280
2615,7,Jits_ISO_8,1,5,80,127,1503665436
2615,7,Jits_ISO_8,2,1,48,74,1503688712
2615,7,Jits_ISO_8,3,5,56,103,1503726116
2615,7,Jits_ISO_8,0,5,56,103,1504446104
2615,7,Jits_ISO_8,1,1,48,72,1504461956
2615,7,Jits_ISO_8,2,5,80,127,1504495928
2615,7,Jits_ISO_8,3,5,63,98,1504515416
2615,7,Jits_ISO_8,0,5,56,103,1505215860
2615,7,Jits_ISO_8,1,1,48,70,1505231112
2615,7,Jits_ISO_8,2,5,80,127,1505276172
2615,7,Jits_ISO_8,3,5,63,98,1505346160
2615,7,Jits_ISO_8,0,5,56,103,1506015808
2615,7,Jits_ISO_8,1,1,48,72,1506046456
2615,7,Jits_ISO_8,2,5,80,127,1506047944
2615,7,Jits_ISO_8,3,5,63,98,1506076052
2615,7,Jits_ISO_8,0,1,48,77,1506807400
2615,7,Jits_ISO_8,1,5,56,103,1506856424
2615,7,Jits_ISO_8,2,5,80,127,1506876088
2615,7,Jits_ISO_8,3,5,63,98,1506936164
2615,7,Jits_ISO_8,0,1,48,76,1507661972
2615,7,Jits_ISO_8,1,5,80,127,1507735880
2615,7,Jits_ISO_8,2,5,56,103,1507746228
2615,7,Jits_ISO_8,3,5,63,98,1507756348
2615,7,Jits_ISO_8,0,5,56,103,1508495892
2615,7,Jits_ISO_8,1,1,48,81,1508498864
2615,7,Jits_ISO_8,2,5,80,127,1508535828
2615,7,Jits_ISO_8,3,5,63,98,1508566328
2615,7,Jits_ISO_8,0,5,56,103,1509265732
2615,7,Jits_ISO_8,1,5,63,98,1509295632
2615,7,Jits_ISO_8,2,1,48,83,1509317856
2615,7,Jits_ISO_8,3,5,80,127,1509336384
2615,7,Jits_ISO_8,0,5,80,127,1510016232
2615,7,Jits_ISO_8,1,1,48,72,1510065908
2615,7,Jits_ISO_8,2,5,63,98,1510067328
2615,7,Jits_ISO_8,3,5,56,103,1510085988
2615,7,Jits_ISO_8,0,1,48,71,1510814640
2615,7,Jits_ISO_8,1,5,56,103,1510845832
2615,7,Jits_ISO_8,2,5,80,127,1510915576
2615,7,Jits_ISO_8,3,5,63,98,1510975844
2615,7,Jits_ISO_8,0,1,48,81,1511642588
2615,7,Jits_ISO_8,1,5,80,127,1511645844
2615,7,Jits_ISO_8,2,5,63,98,1511735636
2615,7,Jits_ISO_8,3,5,56,103,1511756080
2615,7,Jits_ISO_8,0,5,63,98,1512465644
2615,7,Jits_ISO_8,1,1,48,81,1512483140
2615,7,Jits_ISO_8,2,5,56,103,1512486244
2615,7,Jits_ISO_8,3,5,80,127,1512526060
2615,7,Jits_ISO_8,0,5,80,127,1513225788
2615,7,Jits_ISO_8,1,5,63,98,1513246028
2615,7,Jits_ISO_8,2,1,48,80,1513264164
2615,7,Jits_ISO_8,3,5,56,103,1513325916
2615,7,Jits_ISO_8,0,5,63,98,1514015996
2615,7,Jits_ISO_8,1,1,48,79,1514038996
2615,7,Jits_ISO_8,2,5,56,103,1514125632
2615,7,Jits_ISO_8,3,5,80,127,1514128696
2615,7,Jits_ISO_8,0,1,48,76,1514810136
2615,7,Jits_ISO_8,1,5,63,98,1514836392
2615,7,Jits_ISO_8,2,5,56,103,1514845764
2615,7,Jits_ISO_8,3,5,80,127,1514848680
2615,7,Jits_ISO_8,0,1,48,78,1515587884
2615,7,Jits_ISO_8,1,5,56,103,1515615484
2615,7,Jits_ISO_8,2,5,80,127,1515736468
2615,7,Jits_ISO_8,3,5,63,98,1515776404
2615,7,Jits_ISO_8,0,5,56,103,1516435724
2615,7,Jits_ISO_8,1,1,48,66,1516436692
2615,7,Jits_ISO_8,2,5,80,127,1516515592
2615,7,Jits_ISO_8,3,5,63,98,1516536260
2615,7,Jits_ISO_8,0,5,56,103,1517235600
2615,7,Jits_ISO_8,1,1,48,88,1517257524
2615,7,Jits_ISO_8,2,5,63,98,1517346104
2615,7,Jits_ISO_8,3,5,80,127,1517350352
2615,7,Jits_ISO_8,0,5,56,103,1518065960
2615,7,Jits_ISO_8,1,5,80,127,1518095712
2615,7,Jits_ISO_8,2,1,48,87,1518098380
2615,7,Jits_ISO_8,3,5,63,98,1518116388
2615,7,Jits_ISO_8,0,5,63,98,1518846352
2615,7,Jits_ISO_8,1,5,56,103,1518855504
2615,7,Jits_ISO_8,2,5,80,127,1518865920
2615,7,Jits_ISO_8,3,1,48,80,1518937836
2615,7,Jits_ISO_8,0,5,80,127,1519635868
2615,7,Jits_ISO_8,1,5,56,103,1519685948
2615,7,Jits_ISO_8,2,5,63,98,1519725884
2615,7,Jits_ISO_8,3,1,48,70,1519741288
2615,7,Jits_ISO_8,0,5,80,127,1520455920
2615,7,Jits_ISO_8,1,5,63,98,1520475632
2615,7,Jits_ISO_8,2,1,48,74,1520510512
2615,7,Jits_ISO_8,3,5,56,103,1520525976
2615,7,Jits_ISO_8,0,5,80,127,1521266204
2615,7,Jits_ISO_8,1,1,48,79,1521286708
2615,7,Jits_ISO_8,2,5,56,103,1521295724
2615,7,Jits_ISO_8,3,5,63,98,1521366380
2615,7,Jits_ISO_8,0,1,48,83,1522070840
2615,7,Jits_ISO_8,1,5,56,103,1522115972
2615,7,Jits_ISO_8,2,5,80,127,1522126540
2615,7,Jits_ISO_8,3,5,63,98,1522166404
2615,7,Jits_ISO_8,0,5,56,103,1522825636
2615,7,Jits_ISO_8,1,5,63,98,1522846320
2615,7,Jits_ISO_8,2,1,48,67,1522907280
2615,7,Jits_ISO_8,3,5,80,127,1522915920
2615,7,Jits_ISO_8,0,1,48,79,1523610632
2615,7,Jits_ISO_8,1,5,63,98,1523645800
2615,7,Jits_ISO_8,2,5,80,127,1523706404
2615,7,Jits_ISO_8,3,5,56,103,1523725668
2615,7,Jits_ISO_8,0,5,80,127,1524436224
2615,7,Jits_ISO_8,1,1,48,70,1524443160
2615,7,Jits_ISO_8,2,5,56,103,1524465968
2615,7,Jits_ISO_8,3,5,63,98,1524495644
2615,7,Jits_ISO_8,0,1,48,76,1525230360
2615,7,Jits_ISO_8,1,5,56,103,1525236236
2615,7,Jits_ISO_8,2,5,63,98,1525295532
2615,7,Jits_ISO_8,3,5,80,127,1525355832
2615,7,Jits_ISO_8,0,5,80,127,1526056184
2615,7,Jits_ISO_8,1,1,48,80,1526066228
2615,7,Jits_ISO_8,2,5,56,103,1526075692
2615,7,Jits_ISO_8,3,5,63,98,1526146344
2615,7,Jits_ISO_8,0,5,80,127,1526856228
2615,7,Jits_ISO_8,1,5,63,98,1526875492
2615,7,Jits_ISO_8,2,1,48,65,1526897640
2615,7,Jits_ISO_8,3,5,56,103,1526906356
2615,7,Jits_ISO_8,0,1,48,75,1527643868
2615,7,Jits_ISO_8,1,5,80,127,1527645532
2615,7,Jits_ISO_8,2,5,63,98,1527666068
2615,7,Jits_ISO_8,3,5,56,103,1527725408
2615,7,Jits_ISO_8,0,5,80,127,1528446296
2615,7,Jits_ISO_8,1,1,48,81,1528466576
2615,7,Jits_ISO_8,2,5,56,103,1528545716
2615,7,Jits_ISO_8,3,5,63,98,1528576276
2615,7,Jits_ISO_8,0,5,63,98,1529235912
2615,7,Jits_ISO_8,1,1,48,80,1529242920
2615,7,Jits_ISO_8,2,5,80,127,1529286032
2615,7,Jits_ISO_8,3,5,56,103,1529305596
2615,7,Jits_ISO_8,0,1,48,77,1530073036
2615,7,Jits_ISO_8,1,5,80,127,1530075472
2615,7,Jits_ISO_8,2,5,56,103,1530106192
2615,7,Jits_ISO_8,3,5,63,98,1530109336
2615,7,Jits_ISO_8,0,1,48,78,1530892744
2615,7,Jits_ISO_8,1,5,63,98,1530905964
2615,7,Jits_ISO_8,2,5,56,103,1530946080
2615,7,Jits_ISO_8,3,5,80,127,1530966388
2615,7,Jits_ISO_8,0,5,80,127,1531646424
2615,7,Jits_ISO_8,1,1,48,78,1531722984
2615,7,Jits_ISO_8,2,5,63,98,1531726164
2615,7,Jits_ISO_8,3,5,56,103,1531766028
2615,7,Jits_ISO_8,0,5,63,98,1532465732
2615,7,Jits_ISO_8,1,1,48,73,1532481880
2615,7,Jits_ISO_8,2,5,80,127,1532546420
2615,7,Jits_ISO_8,3,5,56,103,1532565980
2615,7,Jits_ISO_8,0,5,56,103,1533306132
2615,7,Jits_ISO_8,1,1,48,86,1533313912
2615,7,Jits_ISO_8,2,5,63,98,1533315720
2615,7,Jits_ISO_8,3,5,80,127,1533356332
2615,7,Jits_ISO_8,0,5,56,103,1534025988
2615,7,Jits_ISO_8,1,5,80,127,1534029132
2615,7,Jits_ISO_8,2,5,63,98,1534166464
2615,7,Jits_ISO_8,0,5,56,103,1534815808
2615,7,Jits_ISO_8,1,5,63,98,1534905720
2615,7,Jits_ISO_8,2,1,48,67,1534922020
2615,7,Jits_ISO_8,3,5,80,127,1534976368
2615,7,Jits_ISO_8,0,1,48,81,1535683524
2615,7,Jits_ISO_8,1,5,63,98,1535696224
2615,7,Jits_ISO_8,2,5,80,127,1535699660
2615,7,Jits_ISO_8,3,5,56,103,1535755864
2615,7,Jits_ISO_8,0,1,48,76,1536485044
2615,7,Jits_ISO_8,1,5,80,127,1536535868
2615,7,Jits_ISO_8,2,5,56,103,1536556548
2615,7,Jits_ISO_8,3,5,63,98,1536565724
2615,7,Jits_ISO_8,0,5,56,103,1537245756
2615,7,Jits_ISO_8,1,5,63,98,1537255800
2615,7,Jits_ISO_8,2,1,48,78,1537276456
2615,7,Jits_ISO_8,3,5,80,127,1537325948
2615,7,Jits_ISO_8,0,5,80,127,1538046300
2615,7,Jits_ISO_8,1,1,48,78,1538056012
2615,7,Jits_ISO_8,2,5,56,103,1538095472
2615,7,Jits_ISO_8,3,5,63,98,1538145672
2615,7,Jits_ISO_8,0,1,48,83,1538821412
2615,7,Jits_ISO_8,1,5,56,103,1538925824
2615,7,Jits_ISO_8,2,5,63,98,1538936168
2615,7,Jits_ISO_8,3,5,80,127,1538976256
2615,7,Jits_ISO_8,0,5,56,103,1539666144
2615,7,Jits_ISO_8,1,1,48,84,1539681400
2615,7,Jits_ISO_8,2,5,63,98,1539706304
2615,7,Jits_ISO_8,3,5,80,127,1539756356
2615,7,Jits_ISO_8,0,5,80,127,1540426084
2615,7,Jits_ISO_8,1,5,56,103,1540476216
2615,7,Jits_ISO_8,2,1,48,72,1540494032
2615,7,Jits_ISO_8,3,5,63,98,1540495696
2615,7,Jits_ISO_8,0,5,80,127,1541236068
2615,7,Jits_ISO_8,1,1,48,77,1541259188
2615,7,Jits_ISO_8,2,5,63,98,1541295408
2615,7,Jits_ISO_8,3,5,56,103,1541376456
2615,7,Jits_ISO_8,0,5,80,127,1542016312
2615,7,Jits_ISO_8,1,5,56,103,1542056400
2615,7,Jits_ISO_8,2,5,63,98,1542075884
2615,7,Jits_ISO_8,3,1,48,92,1542092860
2615,7,Jits_ISO_8,4,1,48,29,1542471348
2615,7,Jits_ISO_8,0,5,56,103,1542866372
2615,7,Jits_ISO_8,1,5,80,127,1542875448
2615,7,Jits_ISO_8,2,5,63,98,1542915608
2615,7,Jits_ISO_8,3,1,48,56,1542916648
2615,7,Jits_ISO_8,0,1,48,76,1543659988
2615,7,Jits_ISO_8,1,5,56,103,1543735644
2615,7,Jits_ISO_8,2,5,63,98,1543775568
2615,7,Jits_ISO_8,3,5,80,127,1543778932
2615,7,Jits_ISO_8,0,5,63,98,1544425796
2615,7,Jits_ISO_8,1,5,80,127,1544465736
2615,7,Jits_ISO_8,2,1,48,77,1544475304
2615,7,Jits_ISO_8,3,5,56,103,1544536408
2615,7,Jits_ISO_8,0,5,63,98,1545216284
2615,7,Jits_ISO_8,1,1,48,86,1545266560
2615,7,Jits_ISO_8,2,5,56,103,1545296472
2615,7,Jits_ISO_8,3,5,80,127,1545355592
2615,7,Jits_ISO_8,0,5,80,127,1546026332
2615,7,Jits_ISO_8,1,1,48,74,1546031792
2615,7,Jits_ISO_8,2,5,63,98,1546075356
2615,7,Jits_ISO_8,3,5,56,103,1546106304
2615,7,Jits_ISO_8,0,1,48,26,1546503328
2615,7,Jits_ISO_8,1,5,56,103,1546815940
2615,7,Jits_ISO_8,2,5,63,98,1546866220
2615,7,Jits_ISO_8,3,5,80,127,1546876488
2615,7,Jits_ISO_8,4,1,48,54,1546920288
2615,7,Jits_ISO_8,0,5,56,103,1547625780
2615,7,Jits_ISO_8,1,1,48,73,1547657072
2615,7,Jits_ISO_8,2,5,63,98,1547736440
2615,7,Jits_ISO_8,3,5,80,127,1547756660
2615,7,Jits_ISO_8,0,5,63,98,1548425508
2615,7,Jits_ISO_8,1,1,48,69,1548446160
2615,7,Jits_ISO_8,2,5,80,127,1548475632
2615,7,Jits_ISO_8,3,5,56,103,1548565972
2615,7,Jits_ISO_8,0,5,63,98,1549216224
2615,7,Jits_ISO_8,1,1,48,81,1549231552
2615,7,Jits_ISO_8,2,5,80,127,1549245892
2615,7,Jits_ISO_8,3,5,56,103,1549335936
2615,7,Jits_ISO_8,0,5,63,98,1550016228
2615,7,Jits_ISO_8,1,5,56,103,1550026276
2615,7,Jits_ISO_8,2,1,48,77,1550072464
2615,7,Jits_ISO_8,3,5,80,127,1550125344
2615,7,Jits_ISO_8,0,1,48,84,1550831028
2615,7,Jits_ISO_8,1,5,63,98,1550916272
2615,7,Jits_ISO_8,2,5,80,127,1550945636
2615,7,Jits_ISO_8,3,5,56,103,1550976356
2615,7,Jits_ISO_8,0,1,48,74,1551685700
2615,7,Jits_ISO_8,1,5,80,127,1551736144
2615,7,Jits_ISO_8,2,5,63,98,1551746344
2615,7,Jits_ISO_8,3,5,56,103,1551776240
2615,7,Jits_ISO_8,0,5,80,127,1552435548
2615,7,Jits_ISO_8,1,5,63,98,1552456080
2615,7,Jits_ISO_8,2,1,48,81,1552497940
2615,7,Jits_ISO_8,3,5,56,103,1552506428
2615,7,Jits_ISO_8,0,1,48,79,1553252080
2615,7,Jits_ISO_8,1,5,63,98,1553265904
2615,7,Jits_ISO_8,2,5,80,127,1553325324
2615,7,Jits_ISO_8,3,5,56,103,1553345856
2615,7,Jits_ISO_8,0,5,63,98,1554025912
2615,7,Jits_ISO_8,1,1,48,76,1554055032
2615,7,Jits_ISO_8,2,5,56,103,1554076180
2615,7,Jits_ISO_8,3,5,80,127,1554086376
2615,7,Jits_ISO_8,0,1,48,82,1554841612
2615,7,Jits_ISO_8,1,5,56,103,1554856252
2615,7,Jits_ISO_8,2,5,80,127,1554865476
2615,7,Jits_ISO_8,3,5,63,98,1554965928
2615,7,Jits_ISO_8,0,5,80,127,1555616032
2615,7,Jits_ISO_8,1,5,63,98,1555626228
2615,7,Jits_ISO_8,2,1,48,76,1555639832
2615,7,Jits_ISO_8,3,5,56,103,1555775996
2615,7,Jits_ISO_8,0,1,48,84,1556425712
2615,7,Jits_ISO_8,1,5,63,98,1556427428
2615,7,Jits_ISO_8,2,5,80,127,1556466024
2615,7,Jits_ISO_8,3,5,56,103,1556545904
2615,7,Jits_ISO_8,0,5,56,103,1557215760
2615,7,Jits_ISO_8,1,1,48,86,1557234696
2615,7,Jits_ISO_8,2,5,80,127,1557316028
2615,7,Jits_ISO_8,3,5,63,98,1557336548
2615,7,Jits_ISO_8,0,1,48,78,1558046620
2615,7,Jits_ISO_8,1,5,80,127,1558075740
2615,7,Jits_ISO_8,2,5,56,103,1558085940
2615,7,Jits_ISO_8,3,5,63,98,1558176128
2615,7,Jits_ISO_8,0,1,48,72,1558849724
2615,7,Jits_ISO_8,1,5,56,103,1558875752
2615,7,Jits_ISO_8,2,5,63,98,1558895912
2615,7,Jits_ISO_8,3,5,80,127,1558975768
2615,7,Jits_ISO_8,0,5,63,98,1559626244
2615,7,Jits_ISO_8,1,1,48,75,1559671760
2615,7,Jits_ISO_8,2,5,56,103,1559716148
2615,7,Jits_ISO_8,3,5,80,127,1559719216
2615,7,Jits_ISO_8,0,1,48,81,1560434604
2615,7,Jits_ISO_8,1,5,56,103,1560455756
2615,7,Jits_ISO_8,2,5,80,127,1560515924
2615,7,Jits_ISO_8,3,5,63,98,1560526120
2615,7,Jits_ISO_8,0,1,48,81,1561247716
2615,7,Jits_ISO_8,1,5,80,127,1561305812
2615,7,Jits_ISO_8,2,5,56,103,1561315784
2615,7,Jits_ISO_8,3,5,63,98,1561318848
2615,7,Jits_ISO_8,0,5,56,103,1562066340
2615,7,Jits_ISO_8,1,5,80,127,1562075488
2615,7,Jits_ISO_8,2,1,48,85,1562080024
2615,7,Jits_ISO_8,3,5,63,98,1562095864
2615,7,Jits_ISO_8,0,1,48,82,1562829912
2615,7,Jits_ISO_8,1,5,63,98,1562836532
2615,7,Jits_ISO_8,2,5,80,127,1562895728
2615,7,Jits_ISO_8,3,5,56,103,1562945940
2615,7,Jits_ISO_8,0,1,48,81,1563624308
2615,7,Jits_ISO_8,1,5,63,98,1563715912
2615,7,Jits_ISO_8,2,5,56,103,1563726244
2615,7,Jits_ISO_8,3,5,80,127,1563776444
2615,7,Jits_ISO_8,0,5,63,98,1564416484
2615,7,Jits_ISO_8,1,5,80,127,1564435900
2615,7,Jits_ISO_8,2,5,56,103,1564446096
2615,7,Jits_ISO_8,3,1,48,79,1564469392
2615,7,Jits_ISO_8,0,1,48,76,1565215648
2615,7,Jits_ISO_8,1,5,63,98,1565217396
2615,7,Jits_ISO_8,2,5,80,127,1565220512
2615,7,Jits_ISO_8,3,5,56,103,1565255992
2615,7,Jits_ISO_8,0,1,48,81,1566015724
2615,7,Jits_ISO_8,1,5,63,98,1566085576
2615,7,Jits_ISO_8,2,5,80,127,1566116804
2615,7,Jits_ISO_8,3,5,56,103,1566125656
2615,7,Jits_ISO_8,0,1,48,73,1566828844
2615,7,Jits_ISO_8,1,5,56,103,1566836060
2615,7,Jits_ISO_8,2,5,80,127,1566865664
2615,7,Jits_ISO_8,3,5,63,98,1566895412
2615,7,Jits_ISO_8,0,1,48,78,1567643144
2615,7,Jits_ISO_8,1,5,63,98,1567736384
2615,7,Jits_ISO_8,2,5,56,103,1567776308
2615,7,Jits_ISO_8,3,5,80,127,1567779452
2615,7,Jits_ISO_8,0,5,80,127,1568435632
2615,7,Jits_ISO_8,1,1,48,72,1568480176
2615,7,Jits_ISO_8,2,5,56,103,1568515572
2615,7,Jits_ISO_8,3,5,63,98,1568565576
2615,7,Jits_ISO_8,0,5,80,127,1569215804
2615,7,Jits_ISO_8,1,5,56,103,1569236264
2615,7,Jits_ISO_8,2,1,48,78,1569264260
2615,7,Jits_ISO_8,3,5,63,98,1569325440
2615,7,Jits_ISO_8,0,1,48,78,1570047928
2615,7,Jits_ISO_8,1,5,80,127,1570055528
2615,7,Jits_ISO_8,2,5,63,98,1570095492
2615,7,Jits_ISO_8,3,5,56,103,1570136404
2615,7,Jits_ISO_8,0,5,63,98,1570825576
2615,7,Jits_ISO_8,1,1,48,84,1570867312
2615,7,Jits_ISO_8,2,5,80,127,1570886360
2615,7,Jits_ISO_8,3,5,56,103,1570915812
2615,7,Jits_ISO_8,0,5,56,103,1571626484
2615,7,Jits_ISO_8,1,1,48,85,1571634780
2615,7,Jits_ISO_8,2,5,80,127,1571656152
2615,7,Jits_ISO_8,3,5,63,98,1571746192
2615,7,Jits_ISO_8,0,1,48,80,1572430660
2615,7,Jits_ISO_8,1,5,56,103,1572436236
2615,7,Jits_ISO_8,2,5,80,127,1572546064
2615,7,Jits_ISO_8,3,5,63,98,1572575740
2615,7,Jits_ISO_8,0,1,48,81,1573256608
2615,7,Jits_ISO_8,1,5,56,103,1573286228
2615,7,Jits_ISO_8,2,5,63,98,1573345796
2615,7,Jits_ISO_8,3,5,80,127,1573376356
2615,7,Jits_ISO_8,0,5,56,103,1574056276
2615,7,Jits_ISO_8,1,1,48,84,1574094244
2615,7,Jits_ISO_8,2,5,63,98,1574126104
2615,7,Jits_ISO_8,3,5,80,127,1574146488
2615,7,Jits_ISO_8,0,5,80,127,1574826260
2615,7,Jits_ISO_8,1,5,63,98,1574845896
2615,7,Jits_ISO_8,2,1,48,78,1574894356
2615,7,Jits_ISO_8,3,5,56,103,1574896236
2615,7,Jits_ISO_8,0,9999,9999,9999,1480093748
2615,7,Jits_ISO_8,1,9999,9999,9999,1480893520
2615,7,Jits_ISO_8,2,9999,9999,9999,1481693240
2615,7,Jits_ISO_8,3,9999,9999,9999,1482494008
2615,7,Jits_ISO_8,4,9999,9999,9999,1483293772
2615,7,Jits_ISO_8,5,9999,9999,9999,1484093508
2615,7,Jits_ISO_8,6,9999,9999,9999,1484893288
2615,7,Jits_ISO_8,7,9999,9999,9999,1485694060
2615,7,Jits_ISO_8,8,9999,9999,9999,1486493776
2615,7,Jits_ISO_8,9,9999,9999,9999,1487293540
2615,7,Jits_ISO_8,10,9999,9999,9999,1488093276
2615,7,Jits_ISO_8,11,9999,9999,9999,1488894032
2615,7,Jits_ISO_8,12,9999,9999,9999,1489693748
2615,7,Jits_ISO_8,13,9999,9999,9999,1490493492
2615,7,Jits_ISO_8,14,9999,9999,9999,1491293264
2615,7,Jits_ISO_8,15,9999,9999,9999,1492094024
2615,7,Jits_ISO_8,16,9999,9999,9999,1492893788
2615,7,Jits_ISO_8,17,9999,9999,9999,1493693520
2615,7,Jits_ISO_8,18,9999,9999,9999,1494493308
2615,7,Jits_ISO_8,19,9999,9999,9999,1495294008
2615,7,Jits_ISO_8,20,9999,9999,9999,1496093788
2615,7,Jits_ISO_8,21,9999,9999,9999,1496893516
2615,7,Jits_ISO_8,22,9999,9999,9999,1497693232
2615,7,Jits_ISO_8,23,9999,9999,9999,1498494004
2615,7,Jits_ISO_8,24,9999,9999,9999,1499293784
2615,7,Jits_ISO_8,25,9999,9999,9999,1500093492
2615,7,Jits_ISO_8,26,9999,9999,9999,1500893276
2615,7,Jits_ISO_8,27,9999,9999,9999,1501694036
2615,7,Jits_ISO_8,28,9999,9999,9999,1502493748
2615,7,Jits_ISO_8,29,9999,9999,9999,1503293560
2615,7,Jits_ISO_8,30,9999,9999,9999,1504093268
2615,7,Jits_ISO_8,31,9999,9999,9999,1504894024
2615,7,Jits_ISO_8,32,9999,9999,9999,1505693748
2615,7,Jits_ISO_8,33,9999,9999,9999,1506493544
2615,7,Jits_ISO_8,34,9999,9999,9999,1507293268
2615,7,Jits_ISO_8,35,9999,9999,9999,1508094032
2615,7,Jits_ISO_8,36,9999,9999,9999,1508893744
2615,7,Jits_ISO_8,37,9999,9999,9999,1509693496
2615,7,Jits_ISO_8,38,9999,9999,9999,1510493292
2615,7,Jits_ISO_8,39,9999,9999,9999,1511294064
2615,7,Jits_ISO_8,40,9999,9999,9999,1512093776
2615,7,Jits_ISO_8,41,9999,9999,9999,1512893560
2615,7,Jits_ISO_8,42,9999,9999,9999,1513693264
2615,7,Jits_ISO_8,43,9999,9999,9999,1514494028
2615,7,Jits_ISO_8,44,9999,9999,9999,1515293792
2615,7,Jits_ISO_8,45,9999,9999,9999,1516093528
2615,7,Jits_ISO_8,46,9999,9999,9999,1516893236
2615,7,Jits_ISO_8,47,9999,9999,9999,1517694004
2615,7,Jits_ISO_8,48,9999,9999,9999,1518493800
2615,7,Jits_ISO_8,49,9999,9999,9999,1519293520
2615,7,Jits_ISO_8,50,9999,9999,9999,1520093304
2615,7,Jits_ISO_8,51,9999,9999,9999,1520894072
2615,7,Jits_ISO_8,52,9999,9999,9999,1521693800
2615,7,Jits_ISO_8,53,9999,9999,9999,1522493552
2615,7,Jits_ISO_8,54,9999,9999,9999,1523293256
2615,7,Jits_ISO_8,55,9999,9999,9999,1524094028
2615,7,Jits_ISO_8,56,9999,9999,9999,1524893808
2615,7,Jits_ISO_8,57,9999,9999,9999,1525693532
2615,7,Jits_ISO_8,58,9999,9999,9999,1526493244
2615,7,Jits_ISO_8,59,9999,9999,9999,1527294008
2615,7,Jits_ISO_8,60,9999,9999,9999,1528093804
2615,7,Jits_ISO_8,61,9999,9999,9999,1528893548
2615,7,Jits_ISO_8,62,9999,9999,9999,1529693272
2615,7,Jits_ISO_8,63,9999,9999,9999,1530494020
2615,7,Jits_ISO_8,64,9999,9999,9999,1531293812
2615,7,Jits_ISO_8,65,9999,9999,9999,1532093524
2615,7,Jits_ISO_8,66,9999,9999,9999,1532893252
2615,7,Jits_ISO_8,67,9999,9999,9999,1533694020
2615,7,Jits_ISO_8,68,9999,9999,9999,1534493752
2615,7,Jits_ISO_8,69,9999,9999,9999,1535293552
2615,7,Jits_ISO_8,70,9999,9999,9999,1536093276
2615,7,Jits_ISO_8,71,9999,9999,9999,1536894044
2615,7,Jits_ISO_8,72,9999,9999,9999,1537693748
2615,7,Jits_ISO_8,73,9999,9999,9999,1538493548
2615,7,Jits_ISO_8,74,9999,9999,9999,1539293280
2615,7,Jits_ISO_8,75,9999,9999,9999,1540094040
2615,7,Jits_ISO_8,76,9999,9999,9999,1540893756
2615,7,Jits_ISO_8,77,9999,9999,9999,1541693504
2615,7,Jits_ISO_8,78,9999,9999,9999,1542493288
2615,7,Jits_ISO_8,79,9999,9999,9999,1543294060
2615,7,Jits_ISO_8,80,9999,9999,9999,1544093788
2615,7,Jits_ISO_8,81,9999,9999,9999,1544893492
2615,7,Jits_ISO_8,82,9999,9999,9999,1545693276
2615,7,Jits_ISO_8,83,9999,9999,9999,1546494036
2615,7,Jits_ISO_8,84,9999,9999,9999,1547293800
2615,7,Jits_ISO_8,85,9999,9999,9999,1548093560
2615,7,Jits_ISO_8,86,9999,9999,9999,1548893280
2615,7,Jits_ISO_8,87,9999,9999,9999,1549694036
2615,7,Jits_ISO_8,88,9999,9999,9999,1550493816
2615,7,Jits_ISO_8,89,9999,9999,9999,1551293528
2615,7,Jits_ISO_8,90,9999,9999,9999,1552093252
2615,7,Jits_ISO_8,91,9999,9999,9999,1552894004
2615,7,Jits_ISO_8,92,9999,9999,9999,1553693804
2615,7,Jits_ISO_8,93,9999,9999,9999,1554493532
2615,7,Jits_ISO_8,94,9999,9999,9999,1555293240
2615,7,Jits_ISO_8,95,9999,9999,9999,1556094068
2615,7,Jits_ISO_8,96,9999,9999,9999,1556893788
2615,7,Jits_ISO_8,97,9999,9999,9999,1557693500
2615,7,Jits_ISO_8,98,9999,9999,9999,1558493304
2615,7,Jits_ISO_8,99,9999,9999,9999,1559294060
2615,7,Jits_ISO_8,100,9999,9999,9999,1560093760
2615,7,Jits_ISO_8,101,9999,9999,9999,1560893496
2615,7,Jits_ISO_8,102,9999,9999,9999,1561693272
2615,7,Jits_ISO_8,103,9999,9999,9999,1562494028
2615,7,Jits_ISO_8,104,9999,9999,9999,1563293752
2615,7,Jits_ISO_8,105,9999,9999,9999,1564093544
2615,7,Jits_ISO_8,106,9999,9999,9999,1564893248
2615,7,Jits_ISO_8,107,9999,9999,9999,1565694060
2615,7,Jits_ISO_8,108,9999,9999,9999,1566493772
2615,7,Jits_ISO_8,109,9999,9999,9999,1567293500
2615,7,Jits_ISO_8,110,9999,9999,9999,1568093284
2615,7,Jits_ISO_8,111,9999,9999,9999,1568894044
2615,7,Jits_ISO_8,112,9999,9999,9999,1569693764
2615,7,Jits_ISO_8,113,9999,9999,9999,1570493492
2615,7,Jits_ISO_8,114,9999,9999,9999,1571293276
2615,7,Jits_ISO_8,115,9999,9999,9999,1572094008
2615,7,Jits_ISO_8,116,9999,9999,9999,1572893808
2615,7,Jits_ISO_8,117,9999,9999,9999,1573693552
2615,7,Jits_ISO_8,118,9999,9999,9999,1574493264
2615,7,Jits_ISO_8,119,9999,9999,9999,1575294028
2616,16,Jits_ISO_5,0,5,56,103,1586211148
2616,16,Jits_ISO_5,1,5,63,98,1586214168
2616,16,Jits_ISO_5,2,5,80,127,1586217516
2616,16,Jits_ISO_5,0,5,56,103,1586710764
2616,16,Jits_ISO_5,1,5,63,98,1586713940
2616,16,Jits_ISO_5,2,5,80,127,1586716992
2616,16,Jits_ISO_5,0,5,56,103,1587210584
2616,16,Jits_ISO_5,1,5,80,127,1587220780
2616,16,Jits_ISO_5,2,5,63,98,1587241388
2616,16,Jits_ISO_5,0,5,63,98,1587661372
2616,16,Jits_ISO_5,1,5,80,127,1587690900
2616,16,Jits_ISO_5,2,5,56,103,1587701316
2616,16,Jits_ISO_5,0,5,80,127,1588221480
2616,16,Jits_ISO_5,1,5,56,103,1588230552
2616,16,Jits_ISO_5,2,5,63,98,1588261420
2616,16,Jits_ISO_5,0,5,63,98,1588710808
2616,16,Jits_ISO_5,1,5,56,103,1588740556
2616,16,Jits_ISO_5,2,5,80,127,1588750604
2616,16,Jits_ISO_5,0,5,56,103,1589161464
2616,16,Jits_ISO_5,1,5,63,98,1589210616
2616,16,Jits_ISO_5,2,5,80,127,1589230852
2616,16,Jits_ISO_5,0,5,80,127,1589660980
2616,16,Jits_ISO_5,1,5,63,98,1589711404
2616,16,Jits_ISO_5,2,5,56,103,1589751336
2616,16,Jits_ISO_5,0,5,56,103,1590160864
2616,16,Jits_ISO_5,1,5,63,98,1590190612
2616,16,Jits_ISO_5,2,1,48,72,1590224740
2616,16,Jits_ISO_5,3,5,80,127,1590261328
2616,16,Jits_ISO_5,0,5,56,103,1590660464
2616,16,Jits_ISO_5,1,5,80,127,1590721000
2616,16,Jits_ISO_5,2,1,48,74,1590721964
2616,16,Jits_ISO_5,3,5,63,98,1590750516
2616,16,Jits_ISO_5,0,5,56,103,1591170548
2616,16,Jits_ISO_5,1,5,63,98,1591180744
2616,16,Jits_ISO_5,2,1,48,77,1591205436
2616,16,Jits_ISO_5,3,5,80,127,1591220524
2616,16,Jits_ISO_5,0,5,63,98,1591660856
2616,16,Jits_ISO_5,1,1,48,73,1591683676
2616,16,Jits_ISO_5,2,5,80,127,1591740792
2616,16,Jits_ISO_5,3,5,56,103,1591750912
2616,16,Jits_ISO_5,0,1,48,68,1592200944
2616,16,Jits_ISO_5,1,5,63,98,1592210856
2616,16,Jits_ISO_5,2,5,56,103,1592250716
2616,16,Jits_ISO_5,3,5,80,127,1592253860
2616,16,Jits_ISO_5,0,5,56,103,1592670584
2616,16,Jits_ISO_5,1,5,63,98,1592680928
2616,16,Jits_ISO_5,2,1,48,71,1592707120
2616,16,Jits_ISO_5,3,5,80,127,1592720784
2616,16,Jits_ISO_5,0,5,56,103,1593161416
2616,16,Jits_ISO_5,1,5,63,98,1593164252
2616,16,Jits_ISO_5,2,5,80,127,1593180600
2616,16,Jits_ISO_5,3,1,48,77,1593191588
2616,16,Jits_ISO_5,0,5,80,127,1593671112
2616,16,Jits_ISO_5,1,1,48,75,1593675804
2616,16,Jits_ISO_5,2,5,56,103,1593681376
2616,16,Jits_ISO_5,3,5,63,98,1593750980
2616,16,Jits_ISO_5,0,5,63,98,1594160452
2616,16,Jits_ISO_5,1,1,48,73,1594161340
2616,16,Jits_ISO_5,2,5,56,103,1594180828
2616,16,Jits_ISO_5,3,5,80,127,1594260976
2616,16,Jits_ISO_5,0,1,48,70,1594664092
2616,16,Jits_ISO_5,1,5,56,103,1594670516
2616,16,Jits_ISO_5,2,5,80,127,1594711352
2616,16,Jits_ISO_5,3,5,63,98,1594720572
2616,16,Jits_ISO_5,0,1,48,72,1595159576
2616,16,Jits_ISO_5,1,5,80,127,1595161228
2616,16,Jits_ISO_5,2,5,63,98,1595190628
2616,16,Jits_ISO_5,3,5,56,103,1595230492
2616,16,Jits_ISO_5,0,1,48,71,1595667220
2616,16,Jits_ISO_5,1,5,56,103,1595681264
2616,16,Jits_ISO_5,2,5,63,98,1595710740
2616,16,Jits_ISO_5,3,5,80,127,1595761444
2616,16,Jits_ISO_5,0,1,48,64,1596160972
2616,16,Jits_ISO_5,1,5,80,127,1596180700
2616,16,Jits_ISO_5,2,5,56,103,1596220664
2616,16,Jits_ISO_5,3,5,63,98,1596231456
2616,16,Jits_ISO_5,0,5,80,127,1596671300
2616,16,Jits_ISO_5,1,1,48,72,1596679596
2616,16,Jits_ISO_5,2,5,63,98,1596711232
2616,16,Jits_ISO_5,3,5,56,103,1596770596
2616,16,Jits_ISO_5,0,5,56,103,1597171348
2616,16,Jits_ISO_5,1,5,80,127,1597181248
2616,16,Jits_ISO_5,2,1,48,70,1597188348
2616,16,Jits_ISO_5,3,5,63,98,1597261128
2616,16,Jits_ISO_5,0,5,80,127,1597670724
2616,16,Jits_ISO_5,1,1,48,73,1597686876
2616,16,Jits_ISO_5,2,5,63,98,1597731180
2616,16,Jits_ISO_5,3,5,56,103,1597760956
2616,16,Jits_ISO_5,0,5,56,103,1598170548
2616,16,Jits_ISO_5,1,1,48,73,1598183780
2616,16,Jits_ISO_5,2,5,80,127,1598231004
2616,16,Jits_ISO_5,3,5,63,98,1598271040
2616,16,Jits_ISO_5,0,1,48,77,1598694232
2616,16,Jits_ISO_5,1,5,56,103,1598721308
2616,16,Jits_ISO_5,2,5,63,98,1598730752
2616,16,Jits_ISO_5,3,5,80,127,1598734116
2616,16,Jits_ISO_5,0,5,80,127,1599170920
2616,16,Jits_ISO_5,1,1,48,73,1599180488
2616,16,Jits_ISO_5,2,5,63,98,1599260972
2616,16,Jits_ISO_5,3,5,56,103,1599271168
2616,16,Jits_ISO_5,0,5,56,103,1599670500
2616,16,Jits_ISO_5,1,5,63,98,1599673904
2616,16,Jits_ISO_5,2,5,80,127,1599676948
2616,16,Jits_ISO_5,3,1,48,73,1599698052
2616,16,Jits_ISO_5,0,1,48,76,1600168180
2616,16,Jits_ISO_5,1,5,80,127,1600190988
2616,16,Jits_ISO_5,2,5,63,98,1600241116
2616,16,Jits_ISO_5,3,5,56,103,1600270704
2616,16,Jits_ISO_5,0,5,56,103,1600671176
2616,16,Jits_ISO_5,1,1,48,75,1600674144
2616,16,Jits_ISO_5,2,5,80,127,1600681292
2616,16,Jits_ISO_5,3,5,63,98,1600751040
2616,16,Jits_ISO_5,0,1,48,72,1601178520
2616,16,Jits_ISO_5,1,5,56,103,1601181104
2616,16,Jits_ISO_5,2,5,63,98,1601200444
2616,16,Jits_ISO_5,3,5,80,127,1601261056
2616,16,Jits_ISO_5,0,1,48,66,1601670508
2616,16,Jits_ISO_5,1,5,80,127,1601672144
2616,16,Jits_ISO_5,2,5,63,98,1601741156
2616,16,Jits_ISO_5,3,5,56,103,1601760492
2616,16,Jits_ISO_5,0,1,48,73,1602175892
2616,16,Jits_ISO_5,1,5,80,127,1602190984
2616,16,Jits_ISO_5,2,5,56,103,1602201032
2616,16,Jits_ISO_5,3,5,63,98,1602211076
2616,16,Jits_ISO_5,0,1,48,74,1602669192
2616,16,Jits_ISO_5,1,5,80,127,1602681200
2616,16,Jits_ISO_5,2,5,56,103,1602700612
2616,16,Jits_ISO_5,3,5,63,98,1602771172
2616,16,Jits_ISO_5,0,1,48,72,1603165988
2616,16,Jits_ISO_5,1,5,56,103,1603191272
2616,16,Jits_ISO_5,2,5,80,127,1603221020
2616,16,Jits_ISO_5,3,5,63,98,1603241180
2616,16,Jits_ISO_5,0,1,48,77,1603672624
2616,16,Jits_ISO_5,1,5,63,98,1603680816
2616,16,Jits_ISO_5,2,5,56,103,1603740984
2616,16,Jits_ISO_5,3,5,80,127,1603770940
2616,16,Jits_ISO_5,0,5,63,98,1604171192
2616,16,Jits_ISO_5,1,5,80,127,1604174556
2616,16,Jits_ISO_5,2,1,48,73,1604179340
2616,16,Jits_ISO_5,3,5,56,103,1604261088
2616,16,Jits_ISO_5,0,1,48,78,1604666460
2616,16,Jits_ISO_5,1,5,56,103,1604691288
2616,16,Jits_ISO_5,2,5,63,98,1604721112
2616,16,Jits_ISO_5,3,5,80,127,1604761404
2616,16,Jits_ISO_5,0,1,48,77,1605163124
2616,16,Jits_ISO_5,1,5,63,98,1605191168
2616,16,Jits_ISO_5,2,5,56,103,1605231032
2616,16,Jits_ISO_5,3,5,80,127,1605250296
2616,16,Jits_ISO_5,0,1,48,81,1605663356
2616,16,Jits_ISO_5,1,5,63,98,1605700944
2616,16,Jits_ISO_5,2,5,56,103,1605740880
2616,16,Jits_ISO_5,3,5,80,127,1605751224
2616,16,Jits_ISO_5,0,5,80,127,1606181104
2616,16,Jits_ISO_5,1,1,48,82,1606185740
2616,16,Jits_ISO_5,2,5,63,98,1606250876
2616,16,Jits_ISO_5,3,5,56,103,1606271332
2616,16,Jits_ISO_5,0,5,56,103,1606670812
2616,16,Jits_ISO_5,1,5,80,127,1606691124
2616,16,Jits_ISO_5,2,1,48,73,1606705800
2616,16,Jits_ISO_5,3,5,63,98,1606731152
2616,16,Jits_ISO_5,0,1,48,67,1607174864
2616,16,Jits_ISO_5,1,5,63,98,1607180736
2616,16,Jits_ISO_5,2,5,80,127,1607201048
2616,16,Jits_ISO_5,3,5,56,103,1607241008
2616,16,Jits_ISO_5,0,1,48,75,1607676688
2616,16,Jits_ISO_5,1,5,63,98,1607681740
2616,16,Jits_ISO_5,2,5,56,103,1607700704
2616,16,Jits_ISO_5,3,5,80,127,1607711048
2616,16,Jits_ISO_5,0,5,80,127,1608181024
2616,16,Jits_ISO_5,1,1,48,75,1608192016
2616,16,Jits_ISO_5,2,5,56,103,1608200728
2616,16,Jits_ISO_5,3,5,63,98,1608231372
2616,16,Jits_ISO_5,0,1,48,78,1608673468
2616,16,Jits_ISO_5,1,5,56,103,1608750532
2616,16,Jits_ISO_5,2,5,80,127,1608753376
2616,16,Jits_ISO_5,3,5,63,98,1608770900
2616,16,Jits_ISO_5,0,5,63,98,1609171280
2616,16,Jits_ISO_5,1,5,56,103,1609201028
2616,16,Jits_ISO_5,2,1,48,82,1609218468
2616,16,Jits_ISO_5,3,5,80,127,1609261580
2616,16,Jits_ISO_5,0,1,48,81,1609705432
2616,16,Jits_ISO_5,1,5,63,98,1609751016
2616,16,Jits_ISO_5,2,5,56,103,1609761064
2616,16,Jits_ISO_5,3,5,80,127,1609771584
2616,16,Jits_ISO_5,0,5,56,103,1610200568
2616,16,Jits_ISO_5,1,1,48,77,1610203612
2616,16,Jits_ISO_5,2,5,80,127,1610231060
2616,16,Jits_ISO_5,3,5,63,98,1610241776
2616,16,Jits_ISO_5,0,1,48,75,1610699092
2616,16,Jits_ISO_5,1,5,63,98,1610741068
2616,16,Jits_ISO_5,2,5,56,103,1610751412
2616,16,Jits_ISO_5,3,5,80,127,1610770820
2616,16,Jits_ISO_5,0,5,56,103,1611171284
2616,16,Jits_ISO_5,1,1,48,83,1611195456
2616,16,Jits_ISO_5,2,5,63,98,1611230544
2616,16,Jits_ISO_5,3,5,80,127,1611233908
2616,16,Jits_ISO_5,0,1,48,74,1611690048
2616,16,Jits_ISO_5,1,5,80,127,1611691764
2616,16,Jits_ISO_5,2,5,56,103,1611700692
2616,16,Jits_ISO_5,3,5,63,98,1611771192
2616,16,Jits_ISO_5,0,5,80,127,1612180948
2616,16,Jits_ISO_5,1,1,48,82,1612182360
2616,16,Jits_ISO_5,2,5,56,103,1612250620
2616,16,Jits_ISO_5,3,5,63,98,1612260668
2616,16,Jits_ISO_5,0,1,48,76,1612686948
2616,16,Jits_ISO_5,1,5,63,98,1612720400
2616,16,Jits_ISO_5,2,5,56,103,1612730596
2616,16,Jits_ISO_5,3,5,80,127,1612751424
2616,16,Jits_ISO_5,0,5,80,127,1613170996
2616,16,Jits_ISO_5,1,1,48,78,1613183628
2616,16,Jits_ISO_5,2,5,63,98,1613230552
2616,16,Jits_ISO_5,3,5,56,103,1613271388
2616,16,Jits_ISO_5,0,1,48,80,1613670492
2616,16,Jits_ISO_5,1,5,56,103,1613710744
2616,16,Jits_ISO_5,2,5,63,98,1613721012
2616,16,Jits_ISO_5,3,5,80,127,1613760800
2616,16,Jits_ISO_5,0,5,56,103,1614170700
2616,16,Jits_ISO_5,1,1,48,81,1614176960
2616,16,Jits_ISO_5,2,5,80,127,1614201340
2616,16,Jits_ISO_5,3,5,63,98,1614251316
2616,16,Jits_ISO_5,0,1,48,76,1614678364
2616,16,Jits_ISO_5,1,5,56,103,1614711492
2616,16,Jits_ISO_5,2,5,63,98,1614751132
2616,16,Jits_ISO_5,3,5,80,127,1614754720
2616,16,Jits_ISO_5,0,1,48,80,1615183696
2616,16,Jits_ISO_5,1,5,56,103,1615210848
2616,16,Jits_ISO_5,2,5,63,98,1615221044
2616,16,Jits_ISO_5,3,5,80,127,1615240532
2616,16,Jits_ISO_5,0,1,48,79,1615667328
2616,16,Jits_ISO_5,1,5,56,103,1615670500
2616,16,Jits_ISO_5,2,5,80,127,1615673496
2616,16,Jits_ISO_5,3,5,63,98,1615710516
2616,16,Jits_ISO_5,0,1,48,77,1616156904
2616,16,Jits_ISO_5,1,5,63,98,1616211500
2616,16,Jits_ISO_5,2,5,56,103,1616240952
2616,16,Jits_ISO_5,3,5,80,127,1616260348
2616,16,Jits_ISO_5,0,1,48,76,1616676116
2616,16,Jits_ISO_5,1,5,80,127,1616681268
2616,16,Jits_ISO_5,2,5,56,103,1616690492
2616,16,Jits_ISO_5,3,5,63,98,1616700984
2616,16,Jits_ISO_5,0,1,48,76,1617174652
2616,16,Jits_ISO_5,1,5,56,103,1617181268
2616,16,Jits_ISO_5,2,5,80,127,1617220860
2616,16,Jits_ISO_5,3,5,63,98,1617250608
2616,16,Jits_ISO_5,0,1,48,79,1617684416
2616,16,Jits_ISO_5,1,5,63,98,1617691192
2616,16,Jits_ISO_5,2,5,80,127,1617701388
2616,16,Jits_ISO_5,3,5,56,103,1617710412
2616,16,Jits_ISO_5,0,5,56,103,1618171448
2616,16,Jits_ISO_5,1,1,48,79,1618185356
2616,16,Jits_ISO_5,2,5,63,98,1618240996
2616,16,Jits_ISO_5,3,5,80,127,1618251268
2616,16,Jits_ISO_5,0,5,80,127,1618670816
2616,16,Jits_ISO_5,1,1,48,77,1618679116
2616,16,Jits_ISO_5,2,5,56,103,1618681304
2616,16,Jits_ISO_5,3,5,63,98,1618731304
2616,16,Jits_ISO_5,0,1,48,74,1619180448
2616,16,Jits_ISO_5,1,5,80,127,1619182164
2616,16,Jits_ISO_5,2,5,56,103,1619241456
2616,16,Jits_ISO_5,3,5,63,98,1619271132
2616,16,Jits_ISO_5,0,5,56,103,1619680560
2616,16,Jits_ISO_5,1,5,80,127,1619684000
2616,16,Jits_ISO_5,2,1,48,74,1619708616
2616,16,Jits_ISO_5,3,5,63,98,1619720564
2616,16,Jits_ISO_5,0,1,48,82,1620178680
2616,16,Jits_ISO_5,1,5,56,103,1620211008
2616,16,Jits_ISO_5,2,5,63,98,1620240684
2616,16,Jits_ISO_5,3,5,80,127,1620251028
2616,16,Jits_ISO_5,0,1,48,84,1620689368
2616,16,Jits_ISO_5,1,5,63,98,1620721080
2616,16,Jits_ISO_5,2,5,80,127,1620731200
2616,16,Jits_ISO_5,3,5,56,103,1620740424
2616,16,Jits_ISO_5,0,1,48,58,1621169796
2616,16,Jits_ISO_5,1,5,80,127,1621171592
2616,16,Jits_ISO_5,2,5,56,103,1621220672
2616,16,Jits_ISO_5,3,5,63,98,1621223960
2616,16,Jits_ISO_5,0,1,48,69,1621662300
2616,16,Jits_ISO_5,1,5,56,103,1621700984
2616,16,Jits_ISO_5,2,5,80,127,1621720472
2616,16,Jits_ISO_5,3,5,63,98,1621730816
2616,16,Jits_ISO_5,0,1,48,74,1622151624
2616,16,Jits_ISO_5,1,5,63,98,1622181168
2616,16,Jits_ISO_5,2,5,56,103,1622211212
2616,16,Jits_ISO_5,3,5,80,127,1622231376
2616,16,Jits_ISO_5,0,1,48,73,1622657492
2616,16,Jits_ISO_5,1,5,56,103,1622691088
2616,16,Jits_ISO_5,2,5,80,127,1622701284
2616,16,Jits_ISO_5,3,5,63,98,1622771020
2616,16,Jits_ISO_5,0,1,48,71,1623156924
2616,16,Jits_ISO_5,1,5,63,98,1623181152
2616,16,Jits_ISO_5,2,5,80,127,1623220496
2616,16,Jits_ISO_5,3,5,56,103,1623260492
2616,16,Jits_ISO_5,0,1,48,67,1623636948
2616,16,Jits_ISO_5,1,5,56,103,1623690480
2616,16,Jits_ISO_5,2,5,63,98,1623701048
2616,16,Jits_ISO_5,3,5,80,127,1623721208
2616,16,Jits_ISO_5,0,1,48,71,1624129880
2616,16,Jits_ISO_5,1,5,63,98,1624231252
2616,16,Jits_ISO_5,2,5,80,127,1624250812
2616,16,Jits_ISO_5,3,5,56,103,1624271200
2616,16,Jits_ISO_5,0,1,48,73,1624647060
2616,16,Jits_ISO_5,1,5,56,103,1624670472
2616,16,Jits_ISO_5,2,5,80,127,1624750324
2616,16,Jits_ISO_5,3,5,63,98,1624760968
2616,16,Jits_ISO_5,0,1,48,72,1625149056
2616,16,Jits_ISO_5,1,5,80,127,1625211184
2616,16,Jits_ISO_5,2,5,63,98,1625220408
2616,16,Jits_ISO_5,3,5,56,103,1625251112
2616,16,Jits_ISO_5,0,1,48,71,1625650216
2616,16,Jits_ISO_5,1,5,63,98,1625670988
2616,16,Jits_ISO_5,2,5,80,127,1625711076
2616,16,Jits_ISO_5,3,5,56,103,1625771296
2616,16,Jits_ISO_5,0,1,48,74,1626172340
2616,16,Jits_ISO_5,1,5,63,98,1626180984
2616,16,Jits_ISO_5,2,5,56,103,1626231112
2616,16,Jits_ISO_5,3,5,80,127,1626261008
2616,16,Jits_ISO_5,0,1,48,67,1626682336
2616,16,Jits_ISO_5,1,5,80,127,1626690908
2616,16,Jits_ISO_5,2,5,63,98,1626701104
2616,16,Jits_ISO_5,3,5,56,103,1626770780
2616,16,Jits_ISO_5,0,1,48,70,1627191888
2616,16,Jits_ISO_5,1,5,80,127,1627261216
2616,16,Jits_ISO_5,2,5,56,103,1627270436
2616,16,Jits_ISO_5,3,5,63,98,1627273724
2616,16,Jits_ISO_5,0,1,48,67,1627692816
2616,16,Jits_ISO_5,1,5,56,103,1627700708
2616,16,Jits_ISO_5,2,5,80,127,1627721020
2616,16,Jits_ISO_5,3,5,63,98,1627731216
2616,16,Jits_ISO_5,0,1,48,75,1628192600
2616,16,Jits_ISO_5,1,5,63,98,1628210484
2616,16,Jits_ISO_5,2,5,56,103,1628250348
2616,16,Jits_ISO_5,3,5,80,127,1628270952
2616,16,Jits_ISO_5,0,1,48,71,1628690312
2616,16,Jits_ISO_5,1,5,63,98,1628711416
2616,16,Jits_ISO_5,2,5,56,103,1628770828
2616,16,Jits_ISO_5,3,5,80,127,1628773968
2616,16,Jits_ISO_5,0,5,56,103,1629171044
2616,16,Jits_ISO_5,1,5,80,127,1629190680
2616,16,Jits_ISO_5,2,1,48,69,1629200548
2616,16,Jits_ISO_5,3,5,63,98,1629230408
2616,16,Jits_ISO_5,0,1,48,71,1629673148
2616,16,Jits_ISO_5,1,5,56,103,1629700448
2616,16,Jits_ISO_5,2,5,63,98,1629720980
2616,16,Jits_ISO_5,3,5,80,127,1629731176
2616,16,Jits_ISO_5,0,5,80,127,1630170592
2616,16,Jits_ISO_5,1,1,48,73,1630190496
2616,16,Jits_ISO_5,2,5,56,103,1630201084
2616,16,Jits_ISO_5,3,5,63,98,1630241020
2616,16,Jits_ISO_5,0,5,80,127,1630680756
2616,16,Jits_ISO_5,1,1,48,71,1630693164
2616,16,Jits_ISO_5,2,5,56,103,1630700908
2616,16,Jits_ISO_5,3,5,63,98,1630761320
2616,16,Jits_ISO_5,0,1,48,76,1631186756
2616,16,Jits_ISO_5,1,5,56,103,1631191656
2616,16,Jits_ISO_5,2,5,80,127,1631210772
2616,16,Jits_ISO_5,3,5,63,98,1631271260
2616,16,Jits_ISO_5,0,5,80,127,1631670948
2616,16,Jits_ISO_5,1,5,56,103,1631680772
2616,16,Jits_ISO_5,2,1,48,70,1631703892
2616,16,Jits_ISO_5,3,5,63,98,1631720776
2616,16,Jits_ISO_5,0,5,63,98,1632171520
2616,16,Jits_ISO_5,1,1,48,67,1632183180
2616,16,Jits_ISO_5,2,5,56,103,1632211220
2616,16,Jits_ISO_5,3,5,80,127,1632214516
2616,16,Jits_ISO_5,0,1,48,80,1632647900
2616,16,Jits_ISO_5,1,5,63,98,1632690640
2616,16,Jits_ISO_5,2,5,80,127,1632730576
2616,16,Jits_ISO_5,3,5,56,103,1632761132
2616,16,Jits_ISO_5,0,1,48,78,1633161732
2616,16,Jits_ISO_5,1,5,56,103,1633181084
2616,16,Jits_ISO_5,2,5,63,98,1633191428
2616,16,Jits_ISO_5,3,5,80,127,1633221028
2616,16,Jits_ISO_5,0,1,48,81,1633651800
2616,16,Jits_ISO_5,1,5,80,127,1633670700
2616,16,Jits_ISO_5,2,5,63,98,1633741204
2616,16,Jits_ISO_5,3,5,56,103,1633751460
2616,16,Jits_ISO_5,0,1,48,71,1634150484
2616,16,Jits_ISO_5,1,5,63,98,1634171184
2616,16,Jits_ISO_5,2,5,56,103,1634240864
2616,16,Jits_ISO_5,3,5,80,127,1634251120
2616,16,Jits_ISO_5,0,1,48,75,1634668636
2616,16,Jits_ISO_5,1,5,63,98,1634670992
2616,16,Jits_ISO_5,2,5,56,103,1634690552
2616,16,Jits_ISO_5,3,5,80,127,1634731536
2616,16,Jits_ISO_5,0,1,48,73,1635159168
2616,16,Jits_ISO_5,1,5,56,103,1635180912
2616,16,Jits_ISO_5,2,5,63,98,1635191032
2616,16,Jits_ISO_5,3,5,80,127,1635270956
2616,16,Jits_ISO_5,0,1,48,67,1635654316
2616,16,Jits_ISO_5,1,5,63,98,1635671428
2616,16,Jits_ISO_5,2,5,56,103,1635700956
2616,16,Jits_ISO_5,3,5,80,127,1635740892
2616,16,Jits_ISO_5,0,1,48,77,1636151136
2616,16,Jits_ISO_5,1,5,56,103,1636171016
2616,16,Jits_ISO_5,2,5,63,98,1636210952
2616,16,Jits_ISO_5,3,5,80,127,1636250948
2616,16,Jits_ISO_5,0,1,48,81,1636646964
2616,16,Jits_ISO_5,1,5,80,127,1636670748
2616,16,Jits_ISO_5,2,5,56,103,1636750676
2616,16,Jits_ISO_5,3,5,63,98,1636760868
2616,16,Jits_ISO_5,0,1,48,79,1637169560
2616,16,Jits_ISO_5,1,5,56,103,1637210412
2616,16,Jits_ISO_5,2,5,63,98,1637213552
2616,16,Jits_ISO_5,3,5,80,127,1637220832
2616,16,Jits_ISO_5,0,1,48,76,1637660944
2616,16,Jits_ISO_5,1,5,56,103,1637730592
2616,16,Jits_ISO_5,2,5,63,98,1637751348
2616,16,Jits_ISO_5,3,5,80,127,1637761604
2616,16,Jits_ISO_5,0,1,48,76,1638170124
2616,16,Jits_ISO_5,1,5,63,98,1638190400
2616,16,Jits_ISO_5,2,5,80,127,1638200596
2616,16,Jits_ISO_5,3,5,56,103,1638221276
2616,16,Jits_ISO_5,0,1,48,73,1638666324
2616,16,Jits_ISO_5,1,5,63,98,1638691448
2616,16,Jits_ISO_5,2,5,56,103,1638771076
2616,16,Jits_ISO_5,3,5,80,127,1638774368
2616,16,Jits_ISO_5,0,1,48,75,1639173888
2616,16,Jits_ISO_5,1,5,63,98,1639190852
2616,16,Jits_ISO_5,2,5,56,103,1639211484
2616,16,Jits_ISO_5,3,5,80,127,1639241008
2616,16,Jits_ISO_5,0,1,48,70,1639664476
2616,16,Jits_ISO_5,1,5,56,103,1639690508
2616,16,Jits_ISO_5,2,5,63,98,1639711264
2616,16,Jits_ISO_5,3,5,80,127,1639721484
2616,16,Jits_ISO_5,0,1,48,76,1640140608
2616,16,Jits_ISO_5,1,5,56,103,1640221020
2616,16,Jits_ISO_5,2,5,63,98,1640250704
2616,16,Jits_ISO_5,3,5,80,127,1640254216
2616,16,Jits_ISO_5,0,5,56,103,1640670556
2616,16,Jits_ISO_5,1,1,48,76,1640680872
2616,16,Jits_ISO_5,2,5,63,98,1640710488
2616,16,Jits_ISO_5,3,5,80,127,1640770824
2616,16,Jits_ISO_5,0,5,56,103,1641190756
2616,16,Jits_ISO_5,1,5,63,98,1641201252
2616,16,Jits_ISO_5,2,1,48,81,1641208484
2616,16,Jits_ISO_5,3,5,80,127,1641261356
2616,16,Jits_ISO_5,0,5,56,103,1641690428
2616,16,Jits_ISO_5,1,5,80,127,1641710888
2616,16,Jits_ISO_5,2,1,48,81,1641712376
2616,16,Jits_ISO_5,3,5,63,98,1641740556
2616,16,Jits_ISO_5,0,1,48,77,1642177620
2616,16,Jits_ISO_5,1,5,80,127,1642191436
2616,16,Jits_ISO_5,2,5,56,103,1642200360
2616,16,Jits_ISO_5,3,5,63,98,1642221188
2616,16,Jits_ISO_5,0,1,48,80,1642658016
2616,16,Jits_ISO_5,1,5,63,98,1642680824
2616,16,Jits_ISO_5,2,5,80,127,1642760604
2616,16,Jits_ISO_5,3,5,56,103,1642770800
2616,16,Jits_ISO_5,0,1,48,73,1643193044
2616,16,Jits_ISO_5,1,5,80,127,1643240872
2616,16,Jits_ISO_5,2,5,56,103,1643261252
2616,16,Jits_ISO_5,3,5,63,98,1643264320
2616,16,Jits_ISO_5,0,1,48,70,1643708048
2616,16,Jits_ISO_5,1,5,63,98,1643710700
2616,16,Jits_ISO_5,2,5,80,127,1643714216
2616,16,Jits_ISO_5,3,5,56,103,1643771240
2616,16,Jits_ISO_5,0,5,56,103,1644191256
2616,16,Jits_ISO_5,1,1,48,71,1644198564
2616,16,Jits_ISO_5,2,5,80,127,1644201220
2616,16,Jits_ISO_5,3,5,63,98,1644241232
2616,16,Jits_ISO_5,0,5,56,103,1644671448
2616,16,Jits_ISO_5,1,1,48,70,1644684152
2616,16,Jits_ISO_5,2,5,63,98,1644730784
2616,16,Jits_ISO_5,3,5,80,127,1644741200
2616,16,Jits_ISO_5,0,1,48,73,1645153852
2616,16,Jits_ISO_5,1,5,63,98,1645181376
2616,16,Jits_ISO_5,2,5,80,127,1645221164
2616,16,Jits_ISO_5,3,5,56,103,1645261160
2616,16,Jits_ISO_5,0,1,48,66,1645666768
2616,16,Jits_ISO_5,1,5,56,103,1645681184
2616,16,Jits_ISO_5,2,5,63,98,1645761036
2616,16,Jits_ISO_5,3,5,80,127,1645764400
2616,16,Jits_ISO_5,0,9999,9999,9999,1586458700
2616,16,Jits_ISO_5,1,9999,9999,9999,1586958424
2616,16,Jits_ISO_5,2,9999,9999,9999,1587458140
2616,16,Jits_ISO_5,3,9999,9999,9999,1587958844
2616,16,Jits_ISO_5,4,9999,9999,9999,1588458572
2616,16,Jits_ISO_5,5,9999,9999,9999,1588958320
2616,16,Jits_ISO_5,6,9999,9999,9999,1589459012
2616,16,Jits_ISO_5,7,9999,9999,9999,1589958752
2616,16,Jits_ISO_5,8,9999,9999,9999,1590458468
2616,16,Jits_ISO_5,9,9999,9999,9999,1590958140
2616,16,Jits_ISO_5,10,9999,9999,9999,1591458932
2616,16,Jits_ISO_5,11,9999,9999,9999,1591958608
2616,16,Jits_ISO_5,12,9999,9999,9999,1592458340
2616,16,Jits_ISO_5,13,9999,9999,9999,1592959044
2616,16,Jits_ISO_5,14,9999,9999,9999,1593458780
2616,16,Jits_ISO_5,15,9999,9999,9999,1593958452
2616,16,Jits_ISO_5,16,9999,9999,9999,1594458204
2616,16,Jits_ISO_5,17,9999,9999,9999,1594958908
2616,16,Jits_ISO_5,18,9999,9999,9999,1595458640
2616,16,Jits_ISO_5,19,9999,9999,9999,1595958372
2616,16,Jits_ISO_5,20,9999,9999,9999,1596459084
2616,16,Jits_ISO_5,21,9999,9999,9999,1596969080
2616,16,Jits_ISO_5,22,9999,9999,9999,1597468728
2616,16,Jits_ISO_5,23,9999,9999,9999,1597968476
2616,16,Jits_ISO_5,24,9999,9999,9999,1598468152
2616,16,Jits_ISO_5,25,9999,9999,9999,1598968936
2616,16,Jits_ISO_5,26,9999,9999,9999,1599468600
2616,16,Jits_ISO_5,27,9999,9999,9999,1599968324
2616,16,Jits_ISO_5,28,9999,9999,9999,1600469048
2616,16,Jits_ISO_5,29,9999,9999,9999,1600968780
2616,16,Jits_ISO_5,30,9999,9999,9999,1601468528
2616,16,Jits_ISO_5,31,9999,9999,9999,1601968188
2616,16,Jits_ISO_5,32,9999,9999,9999,1602468964
2616,16,Jits_ISO_5,33,9999,9999,9999,1602968696
2616,16,Jits_ISO_5,34,9999,9999,9999,1603468356
2616,16,Jits_ISO_5,35,9999,9999,9999,1603968092
2616,16,Jits_ISO_5,36,9999,9999,9999,1604468860
2616,16,Jits_ISO_5,37,9999,9999,9999,1604968520
2616,16,Jits_ISO_5,38,9999,9999,9999,1605468252
2616,16,Jits_ISO_5,39,9999,9999,9999,1605968960
2616,16,Jits_ISO_5,40,9999,9999,9999,1606468696
2616,16,Jits_ISO_5,41,9999,9999,9999,1606968436
2616,16,Jits_ISO_5,42,9999,9999,9999,1607468108
2616,16,Jits_ISO_5,43,9999,9999,9999,1607968860
2616,16,Jits_ISO_5,44,9999,9999,9999,1608468584
2616,16,Jits_ISO_5,45,9999,9999,9999,1608968252
2616,16,Jits_ISO_5,46,9999,9999,9999,1609469028
2616,16,Jits_ISO_5,47,9999,9999,9999,1609968696
2616,16,Jits_ISO_5,48,9999,9999,9999,1610468432
2616,16,Jits_ISO_5,49,9999,9999,9999,1610968184
2616,16,Jits_ISO_5,50,9999,9999,9999,1611468880
2616,16,Jits_ISO_5,51,9999,9999,9999,1611968628
2616,16,Jits_ISO_5,52,9999,9999,9999,1612468288
2616,16,Jits_ISO_5,53,9999,9999,9999,1612969012
2616,16,Jits_ISO_5,54,9999,9999,9999,1613468748
2616,16,Jits_ISO_5,55,9999,9999,9999,1613968496
2616,16,Jits_ISO_5,56,9999,9999,9999,1614468152
2616,16,Jits_ISO_5,57,9999,9999,9999,1614968944
2616,16,Jits_ISO_5,58,9999,9999,9999,1615468604
2616,16,Jits_ISO_5,59,9999,9999,9999,1615968324
2616,16,Jits_ISO_5,60,9999,9999,9999,1616469108
2616,16,Jits_ISO_5,61,9999,9999,9999,1616968760
2616,16,Jits_ISO_5,62,9999,9999,9999,1617468492
2616,16,Jits_ISO_5,63,9999,9999,9999,1617968224
2616,16,Jits_ISO_5,64,9999,9999,9999,1618468976
2616,16,Jits_ISO_5,65,9999,9999,9999,1618968640
2616,16,Jits_ISO_5,66,9999,9999,9999,1619468392
2616,16,Jits_ISO_5,67,9999,9999,9999,1619968112
2616,16,Jits_ISO_5,68,9999,9999,9999,1620468836
2616,16,Jits_ISO_5,69,9999,9999,9999,1620968572
2616,16,Jits_ISO_5,70,9999,9999,9999,1621468220
2616,16,Jits_ISO_5,71,9999,9999,9999,1621969004
2616,16,Jits_ISO_5,72,9999,9999,9999,1622468660
2616,16,Jits_ISO_5,73,9999,9999,9999,1622968396
2616,16,Jits_ISO_5,74,9999,9999,9999,1623468128
2616,16,Jits_ISO_5,75,9999,9999,9999,1623968832
2616,16,Jits_ISO_5,76,9999,9999,9999,1624468572
2616,16,Jits_ISO_5,77,9999,9999,9999,1624968308
2616,16,Jits_ISO_5,78,9999,9999,9999,1625469012
2616,16,Jits_ISO_5,79,9999,9999,9999,1625968748
2616,16,Jits_ISO_5,80,9999,9999,9999,1626468408
2616,16,Jits_ISO_5,81,9999,9999,9999,1626968140
2616,16,Jits_ISO_5,82,9999,9999,9999,1627468916
2616,16,Jits_ISO_5,83,9999,9999,9999,1627968576
2616,16,Jits_ISO_5,84,9999,9999,9999,1628468312
2616,16,Jits_ISO_5,85,9999,9999,9999,1628969012
2616,16,Jits_ISO_5,86,9999,9999,9999,1629468792
2616,16,Jits_ISO_5,87,9999,9999,9999,1629968464
2616,16,Jits_ISO_5,88,9999,9999,9999,1630468196
2616,16,Jits_ISO_5,89,9999,9999,9999,1630968920
2616,16,Jits_ISO_5,90,9999,9999,9999,1631468596
2616,16,Jits_ISO_5,91,9999,9999,9999,1631968324
2616,16,Jits_ISO_5,92,9999,9999,9999,1632469112
2616,16,Jits_ISO_5,93,9999,9999,9999,1632968772
2616,16,Jits_ISO_5,94,9999,9999,9999,1633468504
2616,16,Jits_ISO_5,95,9999,9999,9999,1633968236
2616,16,Jits_ISO_5,96,9999,9999,9999,1634468944
2616,16,Jits_ISO_5,97,9999,9999,9999,1634968672
2616,16,Jits_ISO_5,98,9999,9999,9999,1635468408
2616,16,Jits_ISO_5,99,9999,9999,9999,1635968064
2616,16,Jits_ISO_5,100,9999,9999,9999,1636468848
2616,16,Jits_ISO_5,101,9999,9999,9999,1636968508
2616,16,Jits_ISO_5,102,9999,9999,9999,1637468232
2616,16,Jits_ISO_5,103,9999,9999,9999,1637969016
2616,16,Jits_ISO_5,104,9999,9999,9999,1638468676
2616,16,Jits_ISO_5,105,9999,9999,9999,1638968380
2616,16,Jits_ISO_5,106,9999,9999,9999,1639468108
2616,16,Jits_ISO_5,107,9999,9999,9999,1639968860
2616,16,Jits_ISO_5,108,9999,9999,9999,1640468580
2616,16,Jits_ISO_5,109,9999,9999,9999,1640968312
2616,16,Jits_ISO_5,110,9999,9999,9999,1641469028
2616,16,Jits_ISO_5,111,9999,9999,9999,1641968700
2616,16,Jits_ISO_5,112,9999,9999,9999,1642468444
2616,16,Jits_ISO_5,113,9999,9999,9999,1642968176
2616,16,Jits_ISO_5,114,9999,9999,9999,1643468876
2616,16,Jits_ISO_5,115,9999,9999,9999,1643968600
2616,16,Jits_ISO_5,116,9999,9999,9999,1644468332
2616,16,Jits_ISO_5,117,9999,9999,9999,1644969052
2616,16,Jits_ISO_5,118,9999,9999,9999,1645468724
2616,16,Jits_ISO_5,119,9999,9999,9999,1645968448
2617,18,Jits_Linear_8,0,5,56,103,1657673172
2617,18,Jits_Linear_8,1,5,63,98,1657676420
2617,18,Jits_Linear_8,2,5,80,127,1657679468
2617,18,Jits_Linear_8,0,5,56,103,1658493408
2617,18,Jits_Linear_8,1,5,63,98,1658496428
2617,18,Jits_Linear_8,2,5,80,127,1658499556
2617,18,Jits_Linear_8,0,5,80,127,1659253048
2617,18,Jits_Linear_8,1,5,63,98,1659343184
2617,18,Jits_Linear_8,2,5,56,103,1659352408
2617,18,Jits_Linear_8,0,5,56,103,1660092784
2617,18,Jits_Linear_8,1,5,63,98,1660103128
2617,18,Jits_Linear_8,2,5,80,127,1660193412
2617,18,Jits_Linear_8,0,1,48,65,1660857560
2617,18,Jits_Linear_8,1,5,63,98,1660883508
2617,18,Jits_Linear_8,2,5,80,127,1660912888
2617,18,Jits_Linear_8,3,5,56,103,1660942788
2617,18,Jits_Linear_8,0,1,48,77,1661647264
2617,18,Jits_Linear_8,1,5,56,103,1661702444
2617,18,Jits_Linear_8,2,5,80,127,1661802780
2617,18,Jits_Linear_8,3,5,63,98,1661852908
2617,18,Jits_Linear_8,0,5,56,103,1662512352
2617,18,Jits_Linear_8,1,1,48,80,1662524760
2617,18,Jits_Linear_8,2,5,80,127,1662562696
2617,18,Jits_Linear_8,3,5,63,98,1662602560
2617,18,Jits_Linear_8,0,5,80,127,1663353396
2617,18,Jits_Linear_8,1,1,48,77,1663355840
2617,18,Jits_Linear_8,2,5,63,98,1663382916
2617,18,Jits_Linear_8,3,5,56,103,1663452508
2617,18,Jits_Linear_8,0,5,63,98,1664192880
2617,18,Jits_Linear_8,1,1,48,86,1664194892
2617,18,Jits_Linear_8,2,5,56,103,1664222476
2617,18,Jits_Linear_8,3,5,80,127,1664282940
2617,18,Jits_Linear_8,0,5,56,103,1664942584
2617,18,Jits_Linear_8,1,5,80,127,1664945504
2617,18,Jits_Linear_8,2,1,48,79,1665021900
2617,18,Jits_Linear_8,3,5,63,98,1665063304
2617,18,Jits_Linear_8,0,1,48,90,1665804724
2617,18,Jits_Linear_8,1,5,56,103,1665823328
2617,18,Jits_Linear_8,2,5,80,127,1665863292
2617,18,Jits_Linear_8,3,5,63,98,1665873340
2617,18,Jits_Linear_8,0,5,56,103,1666582936
2617,18,Jits_Linear_8,1,5,80,127,1666603424
2617,18,Jits_Linear_8,2,1,48,85,1666629836
2617,18,Jits_Linear_8,3,5,63,98,1666683360
2617,18,Jits_Linear_8,0,5,80,127,1667373292
2617,18,Jits_Linear_8,1,1,48,81,1667428100
2617,18,Jits_Linear_8,2,5,56,103,1667472712
2617,18,Jits_Linear_8,3,5,63,98,1667483280
2617,18,Jits_Linear_8,0,5,63,98,1668142424
2617,18,Jits_Linear_8,1,5,80,127,1668202816
2617,18,Jits_Linear_8,2,5,56,103,1668213084
2617,18,Jits_Linear_8,3,1,48,87,1668244296
2617,18,Jits_Linear_8,0,5,56,103,1668943068
2617,18,Jits_Linear_8,1,1,48,82,1669012440
2617,18,Jits_Linear_8,2,5,63,98,1669014260
2617,18,Jits_Linear_8,3,5,80,127,1669017232
2617,18,Jits_Linear_8,0,5,63,98,1669772868
2617,18,Jits_Linear_8,1,1,48,82,1669781768
2617,18,Jits_Linear_8,2,5,56,103,1669822916
2617,18,Jits_Linear_8,3,5,80,127,1669825908
2617,18,Jits_Linear_8,0,5,56,103,1670523240
2617,18,Jits_Linear_8,1,5,80,127,1670526376
2617,18,Jits_Linear_8,2,1,48,84,1670571464
2617,18,Jits_Linear_8,3,5,63,98,1670613364
2617,18,Jits_Linear_8,0,5,63,98,1671352664
2617,18,Jits_Linear_8,1,1,48,82,1671367768
2617,18,Jits_Linear_8,2,5,56,103,1671442940
2617,18,Jits_Linear_8,3,5,80,127,1671472476
2617,18,Jits_Linear_8,0,5,56,103,1672133088
2617,18,Jits_Linear_8,1,1,48,94,1672191584
2617,18,Jits_Linear_8,2,5,63,98,1672233284
2617,18,Jits_Linear_8,3,5,80,127,1672263108
2617,18,Jits_Linear_8,0,5,63,98,1672943056
2617,18,Jits_Linear_8,1,5,56,103,1672953100
2617,18,Jits_Linear_8,2,1,48,86,1672988132
2617,18,Jits_Linear_8,3,5,80,127,1673043252
2617,18,Jits_Linear_8,0,5,63,98,1673742960
2617,18,Jits_Linear_8,1,1,48,81,1673769180
2617,18,Jits_Linear_8,2,5,56,103,1673822700
2617,18,Jits_Linear_8,3,5,80,127,1673825916
2617,18,Jits_Linear_8,0,5,80,127,1674483000
2617,18,Jits_Linear_8,1,5,63,98,1674502636
2617,18,Jits_Linear_8,2,1,48,91,1674549900
2617,18,Jits_Linear_8,3,5,56,103,1674562900
2617,18,Jits_Linear_8,0,5,56,103,1675303248
2617,18,Jits_Linear_8,1,5,63,98,1675322884
2617,18,Jits_Linear_8,2,5,80,127,1675326096
2617,18,Jits_Linear_8,3,1,48,84,1675333872
2617,18,Jits_Linear_8,0,5,63,98,1676023188
2617,18,Jits_Linear_8,1,5,80,127,1676103012
2617,18,Jits_Linear_8,2,1,48,87,1676107772
2617,18,Jits_Linear_8,3,5,56,103,1676113128
2617,18,Jits_Linear_8,0,5,63,98,1676822868
2617,18,Jits_Linear_8,1,5,56,103,1676843352
2617,18,Jits_Linear_8,2,1,48,96,1676863256
2617,18,Jits_Linear_8,3,5,80,127,1676892724
2617,18,Jits_Linear_8,0,5,80,127,1677603240
2617,18,Jits_Linear_8,1,1,48,80,1677614452
2617,18,Jits_Linear_8,2,5,63,98,1677643100
2617,18,Jits_Linear_8,3,5,56,103,1677662588
2617,18,Jits_Linear_8,0,1,48,88,1678385812
2617,18,Jits_Linear_8,1,5,56,103,1678413116
2617,18,Jits_Linear_8,2,5,63,98,1678423536
2617,18,Jits_Linear_8,3,5,80,127,1678442872
2617,18,Jits_Linear_8,0,5,56,103,1679112756
2617,18,Jits_Linear_8,1,1,48,76,1679191356
2617,18,Jits_Linear_8,2,5,63,98,1679202760
2617,18,Jits_Linear_8,3,5,80,127,1679263004
2617,18,Jits_Linear_8,0,5,80,127,1679913596
2617,18,Jits_Linear_8,1,5,56,103,1679922600
2617,18,Jits_Linear_8,2,1,48,101,1679957032
2617,18,Jits_Linear_8,3,5,63,98,1679993172
2617,18,Jits_Linear_8,0,5,63,98,1680713080
2617,18,Jits_Linear_8,1,1,48,78,1680727436
2617,18,Jits_Linear_8,2,5,80,127,1680803284
2617,18,Jits_Linear_8,3,5,56,103,1680813704
2617,18,Jits_Linear_8,0,5,63,98,1681412644
2617,18,Jits_Linear_8,1,5,80,127,1681462576
2617,18,Jits_Linear_8,2,1,48,86,1681497900
2617,18,Jits_Linear_8,3,5,56,103,1681523032
2617,18,Jits_Linear_8,0,5,56,103,1682202880
2617,18,Jits_Linear_8,1,1,48,91,1682241020
2617,18,Jits_Linear_8,2,5,80,127,1682253324
2617,18,Jits_Linear_8,3,5,63,98,1682272588
2617,18,Jits_Linear_8,0,5,56,103,1682933040
2617,18,Jits_Linear_8,1,1,48,86,1682992412
2617,18,Jits_Linear_8,2,5,80,127,1682994044
2617,18,Jits_Linear_8,3,5,63,98,1683063132
2617,18,Jits_Linear_8,0,5,56,103,1683692876
2617,18,Jits_Linear_8,1,5,80,127,1683722552
2617,18,Jits_Linear_8,2,5,63,98,1683753448
2617,18,Jits_Linear_8,3,1,48,87,1683786012
2617,18,Jits_Linear_8,0,5,56,103,1684492640
2617,18,Jits_Linear_8,1,5,80,127,1684513248
2617,18,Jits_Linear_8,2,1,48,85,1684538864
2617,18,Jits_Linear_8,3,5,63,98,1684572460
2617,18,Jits_Linear_8,0,1,48,83,1685275064
2617,18,Jits_Linear_8,1,5,80,127,1685333332
2617,18,Jits_Linear_8,2,5,56,103,1685342480
2617,18,Jits_Linear_8,3,5,63,98,1685352752
2617,18,Jits_Linear_8,0,5,56,103,1686042868
2617,18,Jits_Linear_8,1,1,48,92,1686045840
2617,18,Jits_Linear_8,2,5,80,127,1686082828
2617,18,Jits_Linear_8,3,5,63,98,1686112724
2617,18,Jits_Linear_8,0,5,56,103,1686762848
2617,18,Jits_Linear_8,1,5,63,98,1686792452
2617,18,Jits_Linear_8,2,1,48,90,1686801268
2617,18,Jits_Linear_8,3,5,80,127,1686832484
2617,18,Jits_Linear_8,0,5,80,127,1687463496
2617,18,Jits_Linear_8,1,5,63,98,1687512428
2617,18,Jits_Linear_8,2,5,56,103,1687532888
2617,18,Jits_Linear_8,3,1,48,81,1687557804
2617,18,Jits_Linear_8,0,5,56,103,1688242512
2617,18,Jits_Linear_8,1,1,48,86,1688296872
2617,18,Jits_Linear_8,2,5,80,127,1688313384
2617,18,Jits_Linear_8,3,5,63,98,1688372528
2617,18,Jits_Linear_8,0,5,80,127,1688982868
2617,18,Jits_Linear_8,1,1,48,82,1689063160
2617,18,Jits_Linear_8,2,5,63,98,1689073148
2617,18,Jits_Linear_8,3,5,56,103,1689092412
2617,18,Jits_Linear_8,0,5,63,98,1689742560
2617,18,Jits_Linear_8,1,5,56,103,1689763168
2617,18,Jits_Linear_8,2,5,80,127,1689803180
2617,18,Jits_Linear_8,3,1,48,77,1689820076
2617,18,Jits_Linear_8,0,5,80,127,1690443104
2617,18,Jits_Linear_8,1,5,63,98,1690462448
2617,18,Jits_Linear_8,2,1,48,89,1690528792
2617,18,Jits_Linear_8,3,5,56,103,1690542308
2617,18,Jits_Linear_8,0,5,63,98,1691173192
2617,18,Jits_Linear_8,1,1,48,95,1691256032
2617,18,Jits_Linear_8,2,5,56,103,1691282732
2617,18,Jits_Linear_8,3,5,80,127,1691285796
2617,18,Jits_Linear_8,0,5,63,98,1691933132
2617,18,Jits_Linear_8,1,5,56,103,1691943276
2617,18,Jits_Linear_8,2,5,80,127,1691946488
2617,18,Jits_Linear_8,3,1,48,90,1691967596
2617,18,Jits_Linear_8,0,5,56,103,1692653076
2617,18,Jits_Linear_8,1,1,48,84,1692698748
2617,18,Jits_Linear_8,2,5,80,127,1692773048
2617,18,Jits_Linear_8,3,5,63,98,1692812600
2617,18,Jits_Linear_8,0,5,56,103,1693402356
2617,18,Jits_Linear_8,1,1,48,73,1693459256
2617,18,Jits_Linear_8,2,5,80,127,1693483368
2617,18,Jits_Linear_8,3,5,63,98,1693503004
2617,18,Jits_Linear_8,0,5,56,103,1694132524
2617,18,Jits_Linear_8,1,1,48,79,1694219992
2617,18,Jits_Linear_8,2,5,63,98,1694243352
2617,18,Jits_Linear_8,3,5,80,127,1694246640
2617,18,Jits_Linear_8,0,5,56,103,1694893324
2617,18,Jits_Linear_8,1,5,80,127,1694923224
2617,18,Jits_Linear_8,2,1,48,84,1694928884
2617,18,Jits_Linear_8,3,5,63,98,1694942632
2617,18,Jits_Linear_8,0,5,63,98,1695603040
2617,18,Jits_Linear_8,1,5,56,103,1695613312
2617,18,Jits_Linear_8,2,5,80,127,1695622384
2617,18,Jits_Linear_8,3,1,48,80,1695640796
2617,18,Jits_Linear_8,0,5,80,127,1696312808
2617,18,Jits_Linear_8,1,1,48,81,1696327988
2617,18,Jits_Linear_8,2,5,56,103,1696362932
2617,18,Jits_Linear_8,3,5,63,98,1696402944
2617,18,Jits_Linear_8,0,5,80,127,1697052992
2617,18,Jits_Linear_8,1,1,48,76,1697064604
2617,18,Jits_Linear_8,2,5,63,98,1697072348
2617,18,Jits_Linear_8,3,5,56,103,1697122848
2617,18,Jits_Linear_8,0,5,80,127,1697793348
2617,18,Jits_Linear_8,1,1,48,84,1697796764
2617,18,Jits_Linear_8,2,5,56,103,1697823092
2617,18,Jits_Linear_8,3,5,63,98,1697892848
2617,18,Jits_Linear_8,0,5,56,103,1698562380
2617,18,Jits_Linear_8,1,1,48,73,1698568184
2617,18,Jits_Linear_8,2,5,80,127,1698572864
2617,18,Jits_Linear_8,3,5,63,98,1698612680
2617,18,Jits_Linear_8,0,5,56,103,1699193128
2617,18,Jits_Linear_8,1,5,63,98,1699212764
2617,18,Jits_Linear_8,2,1,48,65,1699282364
2617,18,Jits_Linear_8,3,5,80,127,1699284012
2617,18,Jits_Linear_8,0,1,48,90,1699932952
2617,18,Jits_Linear_8,1,5,63,98,1699934300
2617,18,Jits_Linear_8,2,5,80,127,1699992896
2617,18,Jits_Linear_8,3,5,56,103,1700013428
2617,18,Jits_Linear_8,0,5,80,127,1700632892
2617,18,Jits_Linear_8,1,5,56,103,1700662816
2617,18,Jits_Linear_8,2,1,48,84,1700672088
2617,18,Jits_Linear_8,3,5,63,98,1700693308
2617,18,Jits_Linear_8,0,5,56,103,1701342604
2617,18,Jits_Linear_8,1,1,48,74,1701392704
2617,18,Jits_Linear_8,2,5,63,98,1701403140
2617,18,Jits_Linear_8,3,5,80,127,1701463628
2617,18,Jits_Linear_8,0,1,48,87,1702072176
2617,18,Jits_Linear_8,1,5,80,127,1702073964
2617,18,Jits_Linear_8,2,5,56,103,1702093080
2617,18,Jits_Linear_8,3,5,63,98,1702163940
2617,18,Jits_Linear_8,0,5,80,127,1702783300
2617,18,Jits_Linear_8,1,1,48,79,1702786044
2617,18,Jits_Linear_8,2,5,63,98,1702802784
2617,18,Jits_Linear_8,3,5,56,103,1702832756
2617,18,Jits_Linear_8,0,5,80,127,1703472712
2617,18,Jits_Linear_8,1,5,63,98,1703492952
2617,18,Jits_Linear_8,2,1,48,67,1703503860
2617,18,Jits_Linear_8,3,5,56,103,1703553632
2617,18,Jits_Linear_8,0,5,80,127,1704172816
2617,18,Jits_Linear_8,1,1,48,76,1704222092
2617,18,Jits_Linear_8,2,5,56,103,1704273528
2617,18,Jits_Linear_8,3,5,63,98,1704302908
2617,18,Jits_Linear_8,0,5,63,98,1704862976
2617,18,Jits_Linear_8,1,5,80,127,1704913548
2617,18,Jits_Linear_8,2,5,56,103,1704932664
2617,18,Jits_Linear_8,3,1,48,67,1704955336
2617,18,Jits_Linear_8,0,1,48,80,1705565220
2617,18,Jits_Linear_8,1,5,80,127,1705602632
2617,18,Jits_Linear_8,2,5,56,103,1705633132
2617,18,Jits_Linear_8,3,5,63,98,1705636272
2617,18,Jits_Linear_8,0,1,48,65,1706267312
2617,18,Jits_Linear_8,1,5,63,98,1706332556
2617,18,Jits_Linear_8,2,5,56,103,1706372556
2617,18,Jits_Linear_8,3,5,80,127,1706393164
2617,18,Jits_Linear_8,0,5,80,127,1706972492
2617,18,Jits_Linear_8,1,1,48,74,1707021768
2617,18,Jits_Linear_8,2,5,63,98,1707053652
2617,18,Jits_Linear_8,3,5,56,103,1707093588
2617,18,Jits_Linear_8,0,5,63,98,1707683480
2617,18,Jits_Linear_8,1,1,48,54,1707740928
2617,18,Jits_Linear_8,2,5,80,127,1707763272
2617,18,Jits_Linear_8,3,5,56,103,1707782388
2617,18,Jits_Linear_8,0,5,56,103,1708413420
2617,18,Jits_Linear_8,1,5,63,98,1708422568
2617,18,Jits_Linear_8,2,1,48,73,1708453632
2617,18,Jits_Linear_8,3,5,80,127,1708462500
2617,18,Jits_Linear_8,0,5,56,103,1709022644
2617,18,Jits_Linear_8,1,5,80,127,1709025560
2617,18,Jits_Linear_8,2,1,48,86,1709154424
2617,18,Jits_Linear_8,3,5,63,98,1709162912
2617,18,Jits_Linear_8,0,5,56,103,1709702384
2617,18,Jits_Linear_8,1,5,63,98,1709792596
2617,18,Jits_Linear_8,2,1,48,67,1709852132
2617,18,Jits_Linear_8,3,5,80,127,1709863412
2617,18,Jits_Linear_8,0,1,48,74,1710462356
2617,18,Jits_Linear_8,1,5,63,98,1710464176
2617,18,Jits_Linear_8,2,5,80,127,1710467452
2617,18,Jits_Linear_8,3,5,56,103,1710522608
2617,18,Jits_Linear_8,0,1,48,75,1711171372
2617,18,Jits_Linear_8,1,5,80,127,1711183452
2617,18,Jits_Linear_8,2,5,56,103,1711202644
2617,18,Jits_Linear_8,3,5,63,98,1711212768
2617,18,Jits_Linear_8,0,5,56,103,1711773192
2617,18,Jits_Linear_8,1,5,63,98,1711783316
2617,18,Jits_Linear_8,2,5,80,127,1711852920
2617,18,Jits_Linear_8,3,1,48,62,1711909472
2617,18,Jits_Linear_8,0,5,80,127,1712453164
2617,18,Jits_Linear_8,1,5,56,103,1712503072
2617,18,Jits_Linear_8,2,5,63,98,1712553272
2617,18,Jits_Linear_8,3,1,48,77,1712560744
2617,18,Jits_Linear_8,0,5,56,103,1713212932
2617,18,Jits_Linear_8,1,5,63,98,1713223276
2617,18,Jits_Linear_8,2,1,48,67,1713243632
2617,18,Jits_Linear_8,3,5,80,127,1713263136
2617,18,Jits_Linear_8,0,5,56,103,1713833400
2617,18,Jits_Linear_8,1,5,63,98,1713873264
2617,18,Jits_Linear_8,2,5,80,127,1713922344
2617,18,Jits_Linear_8,3,1,48,70,1713931616
2617,18,Jits_Linear_8,0,5,80,127,1714463152
2617,18,Jits_Linear_8,1,5,56,103,1714513232
2617,18,Jits_Linear_8,2,5,63,98,1714532572
2617,18,Jits_Linear_8,3,1,48,74,1714608648
2617,18,Jits_Linear_8,0,5,80,127,1715142972
2617,18,Jits_Linear_8,1,1,48,69,1715173064
2617,18,Jits_Linear_8,2,5,63,98,1715202388
2617,18,Jits_Linear_8,3,5,56,103,1715283312
2617,18,Jits_Linear_8,0,5,80,127,1715793200
2617,18,Jits_Linear_8,1,5,56,103,1715833292
2617,18,Jits_Linear_8,2,5,63,98,1715852776
2617,18,Jits_Linear_8,3,1,48,62,1715930132
2617,18,Jits_Linear_8,0,5,56,103,1716513104
2617,18,Jits_Linear_8,1,5,80,127,1716523300
2617,18,Jits_Linear_8,2,5,63,98,1716563240
2617,18,Jits_Linear_8,3,1,48,60,1716567852
2617,18,Jits_Linear_8,0,1,48,65,1717203956
2617,18,Jits_Linear_8,1,5,56,103,1717243320
2617,18,Jits_Linear_8,2,5,63,98,1717283136
2617,18,Jits_Linear_8,3,5,80,127,1717286500
2617,18,Jits_Linear_8,0,5,63,98,1717793212
2617,18,Jits_Linear_8,1,5,80,127,1717833152
2617,18,Jits_Linear_8,2,1,48,54,1717881084
2617,18,Jits_Linear_8,3,5,56,103,1717902828
2617,18,Jits_Linear_8,0,5,63,98,1718443324
2617,18,Jits_Linear_8,1,1,48,67,1718509000
2617,18,Jits_Linear_8,2,5,56,103,1718523192
2617,18,Jits_Linear_8,3,5,80,127,1718582708
2617,18,Jits_Linear_8,0,1,48,66,1719109904
2617,18,Jits_Linear_8,1,5,80,127,1719113012
2617,18,Jits_Linear_8,2,5,63,98,1719163364
2617,18,Jits_Linear_8,3,5,56,103,1719193040
2617,18,Jits_Linear_8,0,5,56,103,1719763280
2617,18,Jits_Linear_8,1,1,48,58,1719767892
2617,18,Jits_Linear_8,2,5,63,98,1719812580
2617,18,Jits_Linear_8,3,5,80,127,1719822700
2617,18,Jits_Linear_8,0,1,48,62,1720389936
2617,18,Jits_Linear_8,1,5,56,103,1720432976
2617,18,Jits_Linear_8,2,5,63,98,1720542656
2617,18,Jits_Linear_8,3,5,80,127,1720563264
2617,18,Jits_Linear_8,0,5,63,98,1721083176
2617,18,Jits_Linear_8,1,1,48,69,1721126400
2617,18,Jits_Linear_8,2,5,80,127,1721133544
2617,18,Jits_Linear_8,3,5,56,103,1721222484
2617,18,Jits_Linear_8,0,5,63,98,1721723204
2617,18,Jits_Linear_8,1,5,80,127,1721752952
2617,18,Jits_Linear_8,2,1,48,60,1721757720
2617,18,Jits_Linear_8,3,5,56,103,1721843004
2617,18,Jits_Linear_8,0,5,63,98,1722372636
2617,18,Jits_Linear_8,1,5,56,103,1722382832
2617,18,Jits_Linear_8,2,1,48,60,1722421796
2617,18,Jits_Linear_8,3,5,80,127,1722483024
2617,18,Jits_Linear_8,0,1,48,62,1723045884
2617,18,Jits_Linear_8,1,5,63,98,1723123016
2617,18,Jits_Linear_8,2,5,80,127,1723152900
2617,18,Jits_Linear_8,3,5,56,103,1723182376
2617,18,Jits_Linear_8,0,1,48,56,1723723908
2617,18,Jits_Linear_8,1,5,80,127,1723782672
2617,18,Jits_Linear_8,2,5,63,98,1723792944
2617,18,Jits_Linear_8,3,5,56,103,1723822752
2617,18,Jits_Linear_8,0,5,80,127,1724323116
2617,18,Jits_Linear_8,1,5,63,98,1724342824
2617,18,Jits_Linear_8,2,5,56,103,1724392956
2617,18,Jits_Linear_8,3,1,48,60,1724420208
2617,18,Jits_Linear_8,0,5,63,98,1724992820
2617,18,Jits_Linear_8,1,1,48,63,1724994304
2617,18,Jits_Linear_8,2,5,80,127,1725053280
2617,18,Jits_Linear_8,3,5,56,103,1725072988
2617,18,Jits_Linear_8,0,5,63,98,1725592884
2617,18,Jits_Linear_8,1,1,48,63,1725623432
2617,18,Jits_Linear_8,2,5,56,103,1725643080
2617,18,Jits_Linear_8,3,5,80,127,1725653504
2617,18,Jits_Linear_8,0,1,48,59,1726228716
2617,18,Jits_Linear_8,1,5,56,103,1726262712
2617,18,Jits_Linear_8,2,5,80,127,1726272836
2617,18,Jits_Linear_8,3,5,63,98,1726373512
2617,18,Jits_Linear_8,0,5,80,127,1726862640
2617,18,Jits_Linear_8,1,1,48,62,1726871168
2617,18,Jits_Linear_8,2,5,63,98,1726872904
2617,18,Jits_Linear_8,3,5,56,103,1727022528
2617,18,Jits_Linear_8,0,5,63,98,1727502728
2617,18,Jits_Linear_8,1,5,80,127,1727542620
2617,18,Jits_Linear_8,2,1,48,69,1727576600
2617,18,Jits_Linear_8,3,5,56,103,1727622632
2617,18,Jits_Linear_8,0,5,56,103,1728123200
2617,18,Jits_Linear_8,1,1,48,65,1728186176
2617,18,Jits_Linear_8,2,5,80,127,1728222696
2617,18,Jits_Linear_8,3,5,63,98,1728242932
2617,18,Jits_Linear_8,0,5,80,127,1728813512
2617,18,Jits_Linear_8,1,1,48,56,1728815156
2617,18,Jits_Linear_8,2,5,56,103,1728822732
2617,18,Jits_Linear_8,3,5,63,98,1728912848
2617,18,Jits_Linear_8,0,1,48,61,1729440832
2617,18,Jits_Linear_8,1,5,56,103,1729443336
2617,18,Jits_Linear_8,2,5,63,98,1729462600
2617,18,Jits_Linear_8,3,5,80,127,1729542680
2617,18,Jits_Linear_8,0,5,63,98,1730012548
2617,18,Jits_Linear_8,1,1,48,62,1730059416
2617,18,Jits_Linear_8,2,5,56,103,1730102700
2617,18,Jits_Linear_8,3,5,80,127,1730105692
2617,18,Jits_Linear_8,0,5,56,103,1730662832
2617,18,Jits_Linear_8,1,1,48,70,1730674492
2617,18,Jits_Linear_8,2,5,80,127,1730723220
2617,18,Jits_Linear_8,3,5,63,98,1730733564
2617,18,Jits_Linear_8,0,1,48,72,1731294500
2617,18,Jits_Linear_8,1,5,80,127,1731332512
2617,18,Jits_Linear_8,2,5,56,103,1731342784
2617,18,Jits_Linear_8,3,5,63,98,1731345848
2617,18,Jits_Linear_8,0,1,48,70,1731906344
2617,18,Jits_Linear_8,1,5,56,103,1731913044
2617,18,Jits_Linear_8,2,5,80,127,1731923388
2617,18,Jits_Linear_8,3,5,63,98,1731942652
2617,18,Jits_Linear_8,0,5,63,98,1732502776
2617,18,Jits_Linear_8,1,1,48,70,1732505672
2617,18,Jits_Linear_8,2,5,80,127,1732563384
2617,18,Jits_Linear_8,3,5,56,103,1732612452
2617,18,Jits_Linear_8,0,1,48,59,1733145740
2617,18,Jits_Linear_8,1,5,63,98,1733203184
2617,18,Jits_Linear_8,2,5,56,103,1733212484
2617,18,Jits_Linear_8,3,5,80,127,1733262668
2617,18,Jits_Linear_8,0,5,63,98,1733713356
2617,18,Jits_Linear_8,1,5,80,127,1733732696
2617,18,Jits_Linear_8,2,5,56,103,1733742816
2617,18,Jits_Linear_8,3,1,48,64,1733770280
2617,18,Jits_Linear_8,0,5,63,98,1734322484
2617,18,Jits_Linear_8,1,5,80,127,1734325848
2617,18,Jits_Linear_8,2,1,48,65,1734349948
2617,18,Jits_Linear_8,3,5,56,103,1734362416
2617,18,Jits_Linear_8,0,1,48,75,1734907140
2617,18,Jits_Linear_8,1,5,63,98,1735002428
2617,18,Jits_Linear_8,2,5,80,127,1735033136
2617,18,Jits_Linear_8,3,5,56,103,1735042436
2617,18,Jits_Linear_8,0,1,48,62,1735518776
2617,18,Jits_Linear_8,1,5,56,103,1735562712
2617,18,Jits_Linear_8,2,5,80,127,1735593360
2617,18,Jits_Linear_8,3,5,63,98,1735623172
2617,18,Jits_Linear_8,0,1,48,63,1736139664
2617,18,Jits_Linear_8,1,5,63,98,1736263036
2617,18,Jits_Linear_8,2,5,56,103,1736303048
2617,18,Jits_Linear_8,3,5,80,127,1736306188
2617,18,Jits_Linear_8,0,5,80,127,1736762728
2617,18,Jits_Linear_8,1,1,48,68,1736794992
2617,18,Jits_Linear_8,2,5,56,103,1736842520
2617,18,Jits_Linear_8,3,5,63,98,1736892636
2617,18,Jits_Linear_8,0,5,80,127,1737343332
2617,18,Jits_Linear_8,1,5,56,103,1737362744
2617,18,Jits_Linear_8,2,1,48,64,1737374700
2617,18,Jits_Linear_8,3,5,63,98,1737453168
2617,18,Jits_Linear_8,0,1,48,63,1737953868
2617,18,Jits_Linear_8,1,5,80,127,1737983340
2617,18,Jits_Linear_8,2,5,63,98,1738023308
2617,18,Jits_Linear_8,3,5,56,103,1738063228
2617,18,Jits_Linear_8,0,5,63,98,1738552576
2617,18,Jits_Linear_8,1,1,48,66,1738553540
2617,18,Jits_Linear_8,2,5,80,127,1738613036
2617,18,Jits_Linear_8,3,5,56,103,1738643008
2617,18,Jits_Linear_8,0,1,48,74,1739148332
2617,18,Jits_Linear_8,1,5,56,103,1739152708
2617,18,Jits_Linear_8,2,5,80,127,1739182388
2617,18,Jits_Linear_8,3,5,63,98,1739272504
2617,18,Jits_Linear_8,0,1,48,72,1739746532
2617,18,Jits_Linear_8,1,5,56,103,1739752852
2617,18,Jits_Linear_8,2,5,80,127,1739863376
2617,18,Jits_Linear_8,3,5,63,98,1739893128
2617,18,Jits_Linear_8,0,1,48,62,1740368504
2617,18,Jits_Linear_8,1,5,56,103,1740392964
2617,18,Jits_Linear_8,2,5,63,98,1740453208
2617,18,Jits_Linear_8,3,5,80,127,1740482868
2617,18,Jits_Linear_8,0,5,56,103,1740953188
2617,18,Jits_Linear_8,1,1,48,59,1740976008
2617,18,Jits_Linear_8,2,5,63,98,1741022792
2617,18,Jits_Linear_8,3,5,80,127,1741042952
2617,18,Jits_Linear_8,0,5,80,127,1741513040
2617,18,Jits_Linear_8,1,5,63,98,1741532456
2617,18,Jits_Linear_8,2,5,56,103,1741583028
2617,18,Jits_Linear_8,3,1,48,59,1741602212
2617,18,Jits_Linear_8,0,5,63,98,1742113072
2617,18,Jits_Linear_8,1,5,80,127,1742123420
2617,18,Jits_Linear_8,2,5,56,103,1742172648
2617,18,Jits_Linear_8,3,1,48,65,1742184308
2617,18,Jits_Linear_8,0,5,63,98,1742692908
2617,18,Jits_Linear_8,1,1,48,63,1742731848
2617,18,Jits_Linear_8,2,5,80,127,1742763412
2617,18,Jits_Linear_8,3,5,56,103,1742782972
2617,18,Jits_Linear_8,0,1,48,60,1743302408
2617,18,Jits_Linear_8,1,5,63,98,1743304152
2617,18,Jits_Linear_8,2,5,80,127,1743307200
2617,18,Jits_Linear_8,3,5,56,103,1743372916
2617,18,Jits_Linear_8,0,5,80,127,1743832428
2617,18,Jits_Linear_8,1,5,56,103,1743853036
2617,18,Jits_Linear_8,2,5,63,98,1743863008
2617,18,Jits_Linear_8,3,1,48,64,1743894596
2617,18,Jits_Linear_8,0,1,48,67,1744403480
2617,18,Jits_Linear_8,1,5,56,103,1744432372
2617,18,Jits_Linear_8,2,5,63,98,1744522716
2617,18,Jits_Linear_8,3,5,80,127,1744526004
2617,18,Jits_Linear_8,0,5,80,127,1744983364
2617,18,Jits_Linear_8,1,5,56,103,1744992884
2617,18,Jits_Linear_8,2,1,48,67,1745007844
2617,18,Jits_Linear_8,3,5,63,98,1745013116
2617,18,Jits_Linear_8,0,5,63,98,1745552796
2617,18,Jits_Linear_8,1,1,48,55,1745578684
2617,18,Jits_Linear_8,2,5,80,127,1745613256
2617,18,Jits_Linear_8,3,5,56,103,1745623380
2617,18,Jits_Linear_8,0,1,48,66,1746146080
2617,18,Jits_Linear_8,1,5,63,98,1746192864
2617,18,Jits_Linear_8,2,5,80,127,1746222640
2617,18,Jits_Linear_8,3,5,56,103,1746263612
2617,18,Jits_Linear_8,0,5,56,103,1746752964
2617,18,Jits_Linear_8,1,1,48,66,1746754004
2617,18,Jits_Linear_8,2,5,80,127,1746763228
2617,18,Jits_Linear_8,3,5,63,98,1746803016
2617,18,Jits_Linear_8,0,5,80,127,1747283368
2617,18,Jits_Linear_8,1,1,48,64,1747342388
2617,18,Jits_Linear_8,2,5,56,103,1747363088
2617,18,Jits_Linear_8,3,5,63,98,1747373356
2617,18,Jits_Linear_8,0,1,48,66,1747892892
2617,18,Jits_Linear_8,1,5,80,127,1747894532
2617,18,Jits_Linear_8,2,5,56,103,1747972460
2617,18,Jits_Linear_8,3,5,63,98,1747982584
2617,18,Jits_Linear_8,0,5,80,127,1748412804
2617,18,Jits_Linear_8,1,5,56,103,1748463156
2617,18,Jits_Linear_8,2,1,48,67,1748488972
2617,18,Jits_Linear_8,3,5,63,98,1748513156
2617,18,Jits_Linear_8,0,1,48,57,1749017572
2617,18,Jits_Linear_8,1,5,56,103,1749033436
2617,18,Jits_Linear_8,2,5,63,98,1749036504
2617,18,Jits_Linear_8,3,5,80,127,1749082740
2617,18,Jits_Linear_8,0,1,48,60,1749559896
2617,18,Jits_Linear_8,1,5,56,103,1749612904
2617,18,Jits_Linear_8,2,5,63,98,1749642580
2617,18,Jits_Linear_8,3,5,80,127,1749653000
2617,18,Jits_Linear_8,0,5,63,98,1750083072
2617,18,Jits_Linear_8,1,1,48,58,1750123060
2617,18,Jits_Linear_8,2,5,56,103,1750152676
2617,18,Jits_Linear_8,3,5,80,127,1750202876
2617,18,Jits_Linear_8,0,1,48,68,1750650064
2617,18,Jits_Linear_8,1,5,63,98,1750672952
2617,18,Jits_Linear_8,2,5,56,103,1750682996
2617,18,Jits_Linear_8,3,5,80,127,1750685988
2617,18,Jits_Linear_8,0,5,80,127,1751172544
2617,18,Jits_Linear_8,1,1,48,62,1751181592
2617,18,Jits_Linear_8,2,5,56,103,1751232932
2617,18,Jits_Linear_8,3,5,63,98,1751323048
2617,18,Jits_Linear_8,0,5,80,127,1751723696
2617,18,Jits_Linear_8,1,1,48,64,1751747488
2617,18,Jits_Linear_8,2,5,56,103,1751822596
2617,18,Jits_Linear_8,3,5,63,98,1751862692
2617,18,Jits_Linear_8,0,1,48,59,1752319776
2617,18,Jits_Linear_8,1,5,56,103,1752322508
2617,18,Jits_Linear_8,2,5,63,98,1752342820
2617,18,Jits_Linear_8,3,5,80,127,1752382784
2617,18,Jits_Linear_8,0,5,63,98,1752842648
2617,18,Jits_Linear_8,1,1,48,71,1752853336
2617,18,Jits_Linear_8,2,5,56,103,1752862976
2617,18,Jits_Linear_8,3,5,80,127,1752962384
2617,18,Jits_Linear_8,0,5,63,98,1753373212
2617,18,Jits_Linear_8,1,1,48,61,1753392148
2617,18,Jits_Linear_8,2,5,80,127,1753482748
2617,18,Jits_Linear_8,3,5,56,103,1753513456
2617,18,Jits_Linear_8,0,5,56,103,1753933428
2617,18,Jits_Linear_8,1,1,48,66,1753962128
2617,18,Jits_Linear_8,2,5,63,98,1753963920
2617,18,Jits_Linear_8,3,5,80,127,1754013004
2617,18,Jits_Linear_8,0,5,63,98,1754443080
2617,18,Jits_Linear_8,1,5,56,103,1754472908
2617,18,Jits_Linear_8,2,1,48,75,1754505092
2617,18,Jits_Linear_8,3,5,80,127,1754523104
2617,18,Jits_Linear_8,0,5,56,103,1755012580
2617,18,Jits_Linear_8,1,1,48,58,1755014872
2617,18,Jits_Linear_8,2,5,63,98,1755032884
2617,18,Jits_Linear_8,3,5,80,127,1755112736
2617,18,Jits_Linear_8,0,5,63,98,1755522536
2617,18,Jits_Linear_8,1,1,48,72,1755563344
2617,18,Jits_Linear_8,2,5,56,103,1755582844
2617,18,Jits_Linear_8,3,5,80,127,1755612520
2617,18,Jits_Linear_8,0,1,48,72,1756102596
2617,18,Jits_Linear_8,1,5,56,103,1756104384
2617,18,Jits_Linear_8,2,5,80,127,1756162388
2617,18,Jits_Linear_8,3,5,63,98,1756203456
2617,18,Jits_Linear_8,0,5,63,98,1756612920
2617,18,Jits_Linear_8,1,1,48,81,1756654624
2617,18,Jits_Linear_8,2,5,56,103,1756673452
2617,18,Jits_Linear_8,3,5,80,127,1756743308
2617,18,Jits_Linear_8,0,1,48,73,1757205992
2617,18,Jits_Linear_8,1,5,56,103,1757223424
2617,18,Jits_Linear_8,2,5,63,98,1757232500
2617,18,Jits_Linear_8,3,5,80,127,1757235788
2617,18,Jits_Linear_8,0,5,63,98,1757693404
2617,18,Jits_Linear_8,1,5,56,103,1757752544
2617,18,Jits_Linear_8,2,5,80,127,1757755688
2617,18,Jits_Linear_8,3,1,48,86,1757763612
2617,18,Jits_Linear_8,0,5,63,98,1758203188
2617,18,Jits_Linear_8,1,5,80,127,1758233012
2617,18,Jits_Linear_8,2,5,56,103,1758253348
2617,18,Jits_Linear_8,3,1,48,86,1758271008
2617,18,Jits_Linear_8,0,5,56,103,1758732536
2617,18,Jits_Linear_8,1,1,48,75,1758757176
2617,18,Jits_Linear_8,2,5,63,98,1758782760
2617,18,Jits_Linear_8,3,5,80,127,1758862688
2617,18,Jits_Linear_8,0,5,80,127,1759233276
2617,18,Jits_Linear_8,1,5,63,98,1759273316
2617,18,Jits_Linear_8,2,1,48,70,1759278608
2617,18,Jits_Linear_8,3,5,56,103,1759292872
2617,18,Jits_Linear_8,0,1,48,78,1759798732
2617,18,Jits_Linear_8,1,5,56,103,1759823188
2617,18,Jits_Linear_8,2,5,80,127,1759832340
2617,18,Jits_Linear_8,3,5,63,98,1759853020
2617,18,Jits_Linear_8,0,1,48,77,1760314676
2617,18,Jits_Linear_8,1,5,56,103,1760323020
2617,18,Jits_Linear_8,2,5,63,98,1760373076
2617,18,Jits_Linear_8,3,5,80,127,1760402748
2617,18,Jits_Linear_8,0,5,56,103,1760793160
2617,18,Jits_Linear_8,1,5,63,98,1760803156
2617,18,Jits_Linear_8,2,1,48,80,1760853508
2617,18,Jits_Linear_8,3,5,80,127,1760855076
2617,18,Jits_Linear_8,0,5,56,103,1761302960
2617,18,Jits_Linear_8,1,5,80,127,1761306100
2617,18,Jits_Linear_8,2,1,48,68,1761316220
2617,18,Jits_Linear_8,3,5,63,98,1761462620
2617,18,Jits_Linear_8,0,5,63,98,1761833312
2617,18,Jits_Linear_8,1,1,48,75,1761851500
2617,18,Jits_Linear_8,2,5,56,103,1761902988
2617,18,Jits_Linear_8,3,5,80,127,1761942928
2617,18,Jits_Linear_8,0,1,48,69,1762359620
2617,18,Jits_Linear_8,1,5,63,98,1762383256
2617,18,Jits_Linear_8,2,5,56,103,1762473220
2617,18,Jits_Linear_8,3,5,80,127,1762476368
2617,18,Jits_Linear_8,0,5,56,103,1762872600
2617,18,Jits_Linear_8,1,1,48,76,1762904192
2617,18,Jits_Linear_8,2,5,63,98,1762962952
2617,18,Jits_Linear_8,3,5,80,127,1762973000
2617,18,Jits_Linear_8,0,5,56,103,1763353088
2617,18,Jits_Linear_8,1,5,63,98,1763403168
2617,18,Jits_Linear_8,2,5,80,127,1763432992
2617,18,Jits_Linear_8,3,1,48,78,1763433884
2617,18,Jits_Linear_8,0,1,48,76,1763907232
2617,18,Jits_Linear_8,1,5,63,98,1763932516
2617,18,Jits_Linear_8,2,5,80,127,1763942860
2617,18,Jits_Linear_8,3,5,56,103,1764003236
2617,18,Jits_Linear_8,0,5,63,98,1764353360
2617,18,Jits_Linear_8,1,5,80,127,1764412732
2617,18,Jits_Linear_8,2,1,48,73,1764432636
2617,18,Jits_Linear_8,3,5,56,103,1764452812
2617,18,Jits_Linear_8,0,1,48,80,1764929216
2617,18,Jits_Linear_8,1,5,56,103,1764952480
2617,18,Jits_Linear_8,2,5,80,127,1764973012
2617,18,Jits_Linear_8,3,5,63,98,1764993472
2617,18,Jits_Linear_8,0,5,63,98,1765373248
2617,18,Jits_Linear_8,1,5,56,103,1765392888
2617,18,Jits_Linear_8,2,5,80,127,1765432848
2617,18,Jits_Linear_8,3,1,48,88,1765441296
2617,18,Jits_Linear_8,0,5,63,98,1765883116
2617,18,Jits_Linear_8,1,5,80,127,1765913092
2617,18,Jits_Linear_8,2,5,56,103,1765933276
2617,18,Jits_Linear_8,3,1,48,91,1765934244
2617,18,Jits_Linear_8,0,5,80,127,1766353272
2617,18,Jits_Linear_8,1,5,56,103,1766402284
2617,18,Jits_Linear_8,2,1,48,84,1766427568
2617,18,Jits_Linear_8,3,5,63,98,1766462816
2617,18,Jits_Linear_8,0,5,63,98,1766832416
2617,18,Jits_Linear_8,1,1,48,83,1766927608
2617,18,Jits_Linear_8,2,5,56,103,1766953360
2617,18,Jits_Linear_8,3,5,80,127,1766982960
2617,18,Jits_Linear_8,0,5,80,127,1767362964
2617,18,Jits_Linear_8,1,5,63,98,1767383500
2617,18,Jits_Linear_8,2,1,48,79,1767426020
2617,18,Jits_Linear_8,3,5,56,103,1767453048
2617,18,Jits_Linear_8,0,5,63,98,1767872844
2617,18,Jits_Linear_8,1,5,56,103,1767883040
2617,18,Jits_Linear_8,2,1,48,71,1767920536
2617,18,Jits_Linear_8,3,5,80,127,1767963052
2617,18,Jits_Linear_8,0,1,48,68,1768387444
2617,18,Jits_Linear_8,1,5,56,103,1768422916
2617,18,Jits_Linear_8,2,5,80,127,1768452744
2617,18,Jits_Linear_8,3,5,63,98,1768462864
2617,18,Jits_Linear_8,0,9999,9999,9999,1658080332
2617,18,Jits_Linear_8,1,9999,9999,9999,1658900568
2617,18,Jits_Linear_8,2,9999,9999,9999,1659720772
2617,18,Jits_Linear_8,3,9999,9999,9999,1660541028
2617,18,Jits_Linear_8,4,9999,9999,9999,1661360212
2617,18,Jits_Linear_8,5,9999,9999,9999,1662170236
2617,18,Jits_Linear_8,6,9999,9999,9999,1662980176
2617,18,Jits_Linear_8,7,9999,9999,9999,1663790160
2617,18,Jits_Linear_8,8,9999,9999,9999,1664600128
2617,18,Jits_Linear_8,9,9999,9999,9999,1665410132
2617,18,Jits_Linear_8,10,9999,9999,9999,1666210880
2617,18,Jits_Linear_8,11,9999,9999,9999,1667010636
2617,18,Jits_Linear_8,12,9999,9999,9999,1667810408
2617,18,Jits_Linear_8,13,9999,9999,9999,1668610172
2617,18,Jits_Linear_8,14,9999,9999,9999,1669410912
2617,18,Jits_Linear_8,15,9999,9999,9999,1670200408
2617,18,Jits_Linear_8,16,9999,9999,9999,1670990928
2617,18,Jits_Linear_8,17,9999,9999,9999,1671780440
2617,18,Jits_Linear_8,18,9999,9999,9999,1672570980
2617,18,Jits_Linear_8,19,9999,9999,9999,1673360488
2617,18,Jits_Linear_8,20,9999,9999,9999,1674140760
2617,18,Jits_Linear_8,21,9999,9999,9999,1674921036
2617,18,Jits_Linear_8,22,9999,9999,9999,1675700344
2617,18,Jits_Linear_8,23,9999,9999,9999,1676480628
2617,18,Jits_Linear_8,24,9999,9999,9999,1677260900
2617,18,Jits_Linear_8,25,9999,9999,9999,1678030912
2617,18,Jits_Linear_8,26,9999,9999,9999,1678801016
2617,18,Jits_Linear_8,27,9999,9999,9999,1679571024
2617,18,Jits_Linear_8,28,9999,9999,9999,1680341048
2617,18,Jits_Linear_8,29,9999,9999,9999,1681110120
2617,18,Jits_Linear_8,30,9999,9999,9999,1681870908
2617,18,Jits_Linear_8,31,9999,9999,9999,1682630724
2617,18,Jits_Linear_8,32,9999,9999,9999,1683390556
2617,18,Jits_Linear_8,33,9999,9999,9999,1684150388
2617,18,Jits_Linear_8,34,9999,9999,9999,1684910148
2617,18,Jits_Linear_8,35,9999,9999,9999,1685660772
2617,18,Jits_Linear_8,36,9999,9999,9999,1686410332
2617,18,Jits_Linear_8,37,9999,9999,9999,1687160956
2617,18,Jits_Linear_8,38,9999,9999,9999,1687910524
2617,18,Jits_Linear_8,39,9999,9999,9999,1688661072
2617,18,Jits_Linear_8,40,9999,9999,9999,1689400384
2617,18,Jits_Linear_8,41,9999,9999,9999,1690140788
2617,18,Jits_Linear_8,42,9999,9999,9999,1690880068
2617,18,Jits_Linear_8,43,9999,9999,9999,1691620416
2617,18,Jits_Linear_8,44,9999,9999,9999,1692360816
2617,18,Jits_Linear_8,45,9999,9999,9999,1693090896
2617,18,Jits_Linear_8,46,9999,9999,9999,1693820988
2617,18,Jits_Linear_8,47,9999,9999,9999,1694550104
2617,18,Jits_Linear_8,48,9999,9999,9999,1695280196
2617,18,Jits_Linear_8,49,9999,9999,9999,1696010332
2617,18,Jits_Linear_8,50,9999,9999,9999,1696730220
2617,18,Jits_Linear_8,51,9999,9999,9999,1697451096
2617,18,Jits_Linear_8,52,9999,9999,9999,1698180192
2617,18,Jits_Linear_8,53,9999,9999,9999,1698901072
2617,18,Jits_Linear_8,54,9999,9999,9999,1699620972
2617,18,Jits_Linear_8,55,9999,9999,9999,1700330592
2617,18,Jits_Linear_8,56,9999,9999,9999,1701040212
2617,18,Jits_Linear_8,57,9999,9999,9999,1701750904
2617,18,Jits_Linear_8,58,9999,9999,9999,1702460468
2617,18,Jits_Linear_8,59,9999,9999,9999,1703170144
2617,18,Jits_Linear_8,60,9999,9999,9999,1703870572
2617,18,Jits_Linear_8,61,9999,9999,9999,1704571000
2617,18,Jits_Linear_8,62,9999,9999,9999,1705270372
2617,18,Jits_Linear_8,63,9999,9999,9999,1705970744
2617,18,Jits_Linear_8,64,9999,9999,9999,1706670188
2617,18,Jits_Linear_8,65,9999,9999,9999,1707360340
2617,18,Jits_Linear_8,66,9999,9999,9999,1708050556
2617,18,Jits_Linear_8,67,9999,9999,9999,1708740704
2617,18,Jits_Linear_8,68,9999,9999,9999,1709430856
2617,18,Jits_Linear_8,69,9999,9999,9999,1710121020
2617,18,Jits_Linear_8,70,9999,9999,9999,1710800964
2617,18,Jits_Linear_8,71,9999,9999,9999,1711480932
2617,18,Jits_Linear_8,72,9999,9999,9999,1712160888
2617,18,Jits_Linear_8,73,9999,9999,9999,1712840760
2617,18,Jits_Linear_8,74,9999,9999,9999,1713520740
2617,18,Jits_Linear_8,75,9999,9999,9999,1714190432
2617,18,Jits_Linear_8,76,9999,9999,9999,1714860136
2617,18,Jits_Linear_8,77,9999,9999,9999,1715530820
2617,18,Jits_Linear_8,78,9999,9999,9999,1716200572
2617,18,Jits_Linear_8,79,9999,9999,9999,1716870208
2617,18,Jits_Linear_8,80,9999,9999,9999,1717530676
2617,18,Jits_Linear_8,81,9999,9999,9999,1718190172
2617,18,Jits_Linear_8,82,9999,9999,9999,1718850648
2617,18,Jits_Linear_8,83,9999,9999,9999,1719510128
2617,18,Jits_Linear_8,84,9999,9999,9999,1720170600
2617,18,Jits_Linear_8,85,9999,9999,9999,1720820808
2617,18,Jits_Linear_8,86,9999,9999,9999,1721471096
2617,18,Jits_Linear_8,87,9999,9999,9999,1722120312
2617,18,Jits_Linear_8,88,9999,9999,9999,1722770520
2617,18,Jits_Linear_8,89,9999,9999,9999,1723420792
2617,18,Jits_Linear_8,90,9999,9999,9999,1724060748
2617,18,Jits_Linear_8,91,9999,9999,9999,1724700744
2617,18,Jits_Linear_8,92,9999,9999,9999,1725340784
2617,18,Jits_Linear_8,93,9999,9999,9999,1725980776
2617,18,Jits_Linear_8,94,9999,9999,9999,1726620724
2617,18,Jits_Linear_8,95,9999,9999,9999,1727250536
2617,18,Jits_Linear_8,96,9999,9999,9999,1727880312
2617,18,Jits_Linear_8,97,9999,9999,9999,1728511100
2617,18,Jits_Linear_8,98,9999,9999,9999,1729140804
2617,18,Jits_Linear_8,99,9999,9999,9999,1729770560
2617,18,Jits_Linear_8,100,9999,9999,9999,1730390124
2617,18,Jits_Linear_8,101,9999,9999,9999,1731010652
2617,18,Jits_Linear_8,102,9999,9999,9999,1731630156
2617,18,Jits_Linear_8,103,9999,9999,9999,1732250748
2617,18,Jits_Linear_8,104,9999,9999,9999,1732870220
2617,18,Jits_Linear_8,105,9999,9999,9999,1733480512
2617,18,Jits_Linear_8,106,9999,9999,9999,1734090836
2617,18,Jits_Linear_8,107,9999,9999,9999,1734700132
2617,18,Jits_Linear_8,108,9999,9999,9999,1735310392
2617,18,Jits_Linear_8,109,9999,9999,9999,1735920720
2617,18,Jits_Linear_8,110,9999,9999,9999,1736520816
2617,18,Jits_Linear_8,111,9999,9999,9999,1737120888
2617,18,Jits_Linear_8,112,9999,9999,9999,1737720892
2617,18,Jits_Linear_8,113,9999,9999,9999,1738321000
2617,18,Jits_Linear_8,114,9999,9999,9999,1738921064
2617,18,Jits_Linear_8,115,9999,9999,9999,1739510872
2617,18,Jits_Linear_8,116,9999,9999,9999,1740100708
2617,18,Jits_Linear_8,117,9999,9999,9999,1740690520
2617,18,Jits_Linear_8,118,9999,9999,9999,1741280328
2617,18,Jits_Linear_8,119,9999,9999,9999,1741870172
2617,18,Jits_Linear_8,120,9999,9999,9999,1742450772
2617,18,Jits_Linear_8,121,9999,9999,9999,1743030388
2617,18,Jits_Linear_8,122,9999,9999,9999,1743610968
2617,18,Jits_Linear_8,123,9999,9999,9999,1744190524
2617,18,Jits_Linear_8,124,9999,9999,9999,1744770148
2617,18,Jits_Linear_8,125,9999,9999,9999,1745340540
2617,18,Jits_Linear_8,126,9999,9999,9999,1745910876
2617,18,Jits_Linear_8,127,9999,9999,9999,1746480184
2617,18,Jits_Linear_8,128,9999,9999,9999,1747050584
2617,18,Jits_Linear_8,129,9999,9999,9999,1747620924
2617,18,Jits_Linear_8,130,9999,9999,9999,1748181080
2617,18,Jits_Linear_8,131,9999,9999,9999,1748740172
2617,18,Jits_Linear_8,132,9999,9999,9999,1749300340
2617,18,Jits_Linear_8,133,9999,9999,9999,1749860416
2617,18,Jits_Linear_8,134,9999,9999,9999,1750420552
2617,18,Jits_Linear_8,135,9999,9999,9999,1750970492
2617,18,Jits_Linear_8,136,9999,9999,9999,1751520360
2617,18,Jits_Linear_8,137,9999,9999,9999,1752070248
2617,18,Jits_Linear_8,138,9999,9999,9999,1752620088
2617,18,Jits_Linear_8,139,9999,9999,9999,1753171008
2617,18,Jits_Linear_8,140,9999,9999,9999,1753710696
2617,18,Jits_Linear_8,141,9999,9999,9999,1754250304
2617,18,Jits_Linear_8,142,9999,9999,9999,1754790968
2617,18,Jits_Linear_8,143,9999,9999,9999,1755330652
2617,18,Jits_Linear_8,144,9999,9999,9999,1755870276
2617,18,Jits_Linear_8,145,9999,9999,9999,1756400748
2617,18,Jits_Linear_8,146,9999,9999,9999,1756930172
2617,18,Jits_Linear_8,147,9999,9999,9999,1757460564
2617,18,Jits_Linear_8,148,9999,9999,9999,1757990968
2617,18,Jits_Linear_8,149,9999,9999,9999,1758520388
2617,18,Jits_Linear_8,150,9999,9999,9999,1759040600
2617,18,Jits_Linear_8,151,9999,9999,9999,1759560816
2617,18,Jits_Linear_8,152,9999,9999,9999,1760080964
2617,18,Jits_Linear_8,153,9999,9999,9999,1760600124
2617,18,Jits_Linear_8,154,9999,9999,9999,1761120328
2617,18,Jits_Linear_8,155,9999,9999,9999,1761630272
2617,18,Jits_Linear_8,156,9999,9999,9999,1762140228
2617,18,Jits_Linear_8,157,9999,9999,9999,1762650168
2617,18,Jits_Linear_8,158,9999,9999,9999,1763160184
2617,18,Jits_Linear_8,159,9999,9999,9999,1763670140
2617,18,Jits_Linear_8,160,9999,9999,9999,1764170812
2617,18,Jits_Linear_8,161,9999,9999,9999,1764670564
2617,18,Jits_Linear_8,162,9999,9999,9999,1765170248
2617,18,Jits_Linear_8,163,9999,9999,9999,1765670972
2617,18,Jits_Linear_8,164,9999,9999,9999,1766170700
2617,18,Jits_Linear_8,165,9999,9999,9999,1766660168
2617,18,Jits_Linear_8,166,9999,9999,9999,1767150644
2617,18,Jits_Linear_8,167,9999,9999,9999,1767640136
2617,18,Jits_Linear_8,168,9999,9999,9999,1768130664
2617,18,Jits_Linear_8,169,9999,9999,9999,1768620088
2618,19,Jits_Linear_5,0,5,56,103,1780942288
2618,19,Jits_Linear_5,1,5,63,98,1780945308
2618,19,Jits_Linear_5,2,5,80,127,1780948284
2618,19,Jits_Linear_5,0,5,56,103,1781421476
2618,19,Jits_Linear_5,1,5,63,98,1781424500
2618,19,Jits_Linear_5,2,5,80,127,1781427624
2618,19,Jits_Linear_5,0,5,56,103,1781901584
2618,19,Jits_Linear_5,1,5,80,127,1781912152
2618,19,Jits_Linear_5,2,5,63,98,1781932316
2618,19,Jits_Linear_5,0,5,63,98,1782331792
2618,19,Jits_Linear_5,1,5,80,127,1782361320
2618,19,Jits_Linear_5,2,5,56,103,1782371812
2618,19,Jits_Linear_5,0,1,48,59,1782803280
2618,19,Jits_Linear_5,1,5,80,127,1782872412
2618,19,Jits_Linear_5,2,5,56,103,1782881636
2618,19,Jits_Linear_5,3,5,63,98,1782912344
2618,19,Jits_Linear_5,0,1,48,70,1783323228
2618,19,Jits_Linear_5,1,5,63,98,1783351652
2618,19,Jits_Linear_5,2,5,56,103,1783382376
2618,19,Jits_Linear_5,3,5,80,127,1783391524
2618,19,Jits_Linear_5,0,5,56,103,1783791984
2618,19,Jits_Linear_5,1,5,63,98,1783842216
2618,19,Jits_Linear_5,2,1,48,82,1783843624
2618,19,Jits_Linear_5,3,5,80,127,1783861472
2618,19,Jits_Linear_5,0,5,80,127,1784281420
2618,19,Jits_Linear_5,1,1,48,70,1784312040
2618,19,Jits_Linear_5,2,5,63,98,1784331616
2618,19,Jits_Linear_5,3,5,56,103,1784371656
2618,19,Jits_Linear_5,0,5,56,103,1784772204
2618,19,Jits_Linear_5,1,5,63,98,1784801660
2618,19,Jits_Linear_5,2,1,48,74,1784807392
2618,19,Jits_Linear_5,3,5,80,127,1784872332
2618,19,Jits_Linear_5,0,5,56,103,1785261496
2618,19,Jits_Linear_5,1,1,48,70,1785289256
2618,19,Jits_Linear_5,2,5,80,127,1785321956
2618,19,Jits_Linear_5,3,5,63,98,1785351484
2618,19,Jits_Linear_5,0,5,56,103,1785762100
2618,19,Jits_Linear_5,1,5,63,98,1785772372
2618,19,Jits_Linear_5,2,1,48,66,1785777880
2618,19,Jits_Linear_5,3,5,80,127,1785812228
2618,19,Jits_Linear_5,0,5,63,98,1786251612
2618,19,Jits_Linear_5,1,1,48,72,1786254432
2618,19,Jits_Linear_5,2,5,80,127,1786331480
2618,19,Jits_Linear_5,3,5,56,103,1786342048
2618,19,Jits_Linear_5,0,1,48,66,1786771876
2618,19,Jits_Linear_5,1,5,63,98,1786801496
2618,19,Jits_Linear_5,2,5,56,103,1786841508
2618,19,Jits_Linear_5,3,5,80,127,1786844424
2618,19,Jits_Linear_5,0,5,56,103,1787262296
2618,19,Jits_Linear_5,1,5,63,98,1787271448
2618,19,Jits_Linear_5,2,1,48,60,1787284152
2618,19,Jits_Linear_5,3,5,80,127,1787311528
2618,19,Jits_Linear_5,0,5,56,103,1787751732
2618,19,Jits_Linear_5,1,5,63,98,1787754944
2618,19,Jits_Linear_5,2,5,80,127,1787772340
2618,19,Jits_Linear_5,3,1,48,65,1787777104
2618,19,Jits_Linear_5,0,1,48,64,1788261132
2618,19,Jits_Linear_5,1,5,80,127,1788271944
2618,19,Jits_Linear_5,2,5,56,103,1788282216
2618,19,Jits_Linear_5,3,5,63,98,1788351824
2618,19,Jits_Linear_5,0,1,48,68,1788758108
2618,19,Jits_Linear_5,1,5,63,98,1788771928
2618,19,Jits_Linear_5,2,5,56,103,1788792092
2618,19,Jits_Linear_5,3,5,80,127,1788872096
2618,19,Jits_Linear_5,0,1,48,67,1789259220
2618,19,Jits_Linear_5,1,5,56,103,1789291848
2618,19,Jits_Linear_5,2,5,80,127,1789331936
2618,19,Jits_Linear_5,3,5,63,98,1789342132
2618,19,Jits_Linear_5,0,1,48,63,1789760492
2618,19,Jits_Linear_5,1,5,80,127,1789791760
2618,19,Jits_Linear_5,2,5,63,98,1789822260
2618,19,Jits_Linear_5,3,5,56,103,1789862184
2618,19,Jits_Linear_5,0,1,48,62,1790295088
2618,19,Jits_Linear_5,1,5,56,103,1790322160
2618,19,Jits_Linear_5,2,5,63,98,1790351764
2618,19,Jits_Linear_5,3,5,80,127,1790401804
2618,19,Jits_Linear_5,0,5,80,127,1790831976
2618,19,Jits_Linear_5,1,1,48,66,1790842220
2618,19,Jits_Linear_5,2,5,56,103,1790871836
2618,19,Jits_Linear_5,3,5,63,98,1790882180
2618,19,Jits_Linear_5,0,5,80,127,1791331680
2618,19,Jits_Linear_5,1,1,48,67,1791340052
2618,19,Jits_Linear_5,2,5,63,98,1791371840
2618,19,Jits_Linear_5,3,5,56,103,1791432080
2618,19,Jits_Linear_5,0,1,48,66,1791847824
2618,19,Jits_Linear_5,1,5,56,103,1791851980
2618,19,Jits_Linear_5,2,5,80,127,1791862176
2618,19,Jits_Linear_5,3,5,63,98,1791941956
2618,19,Jits_Linear_5,0,5,80,127,1792372128
2618,19,Jits_Linear_5,1,1,48,66,1792397040
2618,19,Jits_Linear_5,2,5,63,98,1792431616
2618,19,Jits_Linear_5,3,5,56,103,1792462264
2618,19,Jits_Linear_5,0,5,56,103,1792892208
2618,19,Jits_Linear_5,1,1,48,57,1792907760
2618,19,Jits_Linear_5,2,5,80,127,1792951844
2618,19,Jits_Linear_5,3,5,63,98,1792991860
2618,19,Jits_Linear_5,0,1,48,72,1793442376
2618,19,Jits_Linear_5,1,5,56,103,1793471772
2618,19,Jits_Linear_5,2,5,63,98,1793482044
2618,19,Jits_Linear_5,3,5,80,127,1793485704
2618,19,Jits_Linear_5,0,5,80,127,1793952052
2618,19,Jits_Linear_5,1,1,48,61,1793981624
2618,19,Jits_Linear_5,2,5,63,98,1794042108
2618,19,Jits_Linear_5,3,5,56,103,1794051556
2618,19,Jits_Linear_5,0,5,56,103,1794481484
2618,19,Jits_Linear_5,1,5,63,98,1794484652
2618,19,Jits_Linear_5,2,5,80,127,1794487704
2618,19,Jits_Linear_5,3,1,48,76,1794508884
2618,19,Jits_Linear_5,0,1,48,77,1795015452
2618,19,Jits_Linear_5,1,5,80,127,1795032712
2618,19,Jits_Linear_5,2,5,63,98,1795081648
2618,19,Jits_Linear_5,3,5,56,103,1795112232
2618,19,Jits_Linear_5,0,5,56,103,1795542528
2618,19,Jits_Linear_5,1,5,80,127,1795551676
2618,19,Jits_Linear_5,2,1,48,82,1795573672
2618,19,Jits_Linear_5,3,5,63,98,1795622200
2618,19,Jits_Linear_5,0,5,56,103,1796082012
2618,19,Jits_Linear_5,1,5,63,98,1796101648
2618,19,Jits_Linear_5,2,1,48,69,1796115328
2618,19,Jits_Linear_5,3,5,80,127,1796161912
2618,19,Jits_Linear_5,0,5,80,127,1796611384
2618,19,Jits_Linear_5,1,1,48,67,1796655656
2618,19,Jits_Linear_5,2,5,63,98,1796682060
2618,19,Jits_Linear_5,3,5,56,103,1796701472
2618,19,Jits_Linear_5,0,5,80,127,1797171420
2618,19,Jits_Linear_5,1,5,56,103,1797181768
2618,19,Jits_Linear_5,2,5,63,98,1797192112
2618,19,Jits_Linear_5,3,1,48,68,1797213812
2618,19,Jits_Linear_5,0,5,80,127,1797702132
2618,19,Jits_Linear_5,1,5,56,103,1797721620
2618,19,Jits_Linear_5,2,1,48,57,1797747888
2618,19,Jits_Linear_5,3,5,63,98,1797792120
2618,19,Jits_Linear_5,0,5,56,103,1798251884
2618,19,Jits_Linear_5,1,5,80,127,1798281560
2618,19,Jits_Linear_5,2,1,48,70,1798302168
2618,19,Jits_Linear_5,3,5,63,98,1798303808
2618,19,Jits_Linear_5,0,5,63,98,1798791520
2618,19,Jits_Linear_5,1,1,48,66,1798839280
2618,19,Jits_Linear_5,2,5,56,103,1798851980
2618,19,Jits_Linear_5,3,5,80,127,1798881656
2618,19,Jits_Linear_5,0,5,63,98,1799332264
2618,19,Jits_Linear_5,1,5,80,127,1799335628
2618,19,Jits_Linear_5,2,1,48,67,1799370676
2618,19,Jits_Linear_5,3,5,56,103,1799422540
2618,19,Jits_Linear_5,0,5,56,103,1799901544
2618,19,Jits_Linear_5,1,1,48,63,1799919736
2618,19,Jits_Linear_5,2,5,63,98,1799932336
2618,19,Jits_Linear_5,3,5,80,127,1799972376
2618,19,Jits_Linear_5,0,5,63,98,1800451372
2618,19,Jits_Linear_5,1,1,48,68,1800475044
2618,19,Jits_Linear_5,2,5,56,103,1800492528
2618,19,Jits_Linear_5,3,5,80,127,1800511792
2618,19,Jits_Linear_5,0,5,63,98,1801011548
2618,19,Jits_Linear_5,1,1,48,70,1801021792
2618,19,Jits_Linear_5,2,5,56,103,1801051484
2618,19,Jits_Linear_5,3,5,80,127,1801061680
2618,19,Jits_Linear_5,0,5,80,127,1801542028
2618,19,Jits_Linear_5,1,1,48,74,1801608376
2618,19,Jits_Linear_5,2,5,63,98,1801611556
2618,19,Jits_Linear_5,3,5,56,103,1801632464
2618,19,Jits_Linear_5,0,5,56,103,1802091856
2618,19,Jits_Linear_5,1,5,80,127,1802112316
2618,19,Jits_Linear_5,2,1,48,78,1802138956
2618,19,Jits_Linear_5,3,5,63,98,1802152248
2618,19,Jits_Linear_5,0,5,63,98,1802662280
2618,19,Jits_Linear_5,1,1,48,73,1802671548
2618,19,Jits_Linear_5,2,5,80,127,1802681612
2618,19,Jits_Linear_5,3,5,56,103,1802721700
2618,19,Jits_Linear_5,0,5,63,98,1803222424
2618,19,Jits_Linear_5,1,5,56,103,1803241764
2618,19,Jits_Linear_5,2,1,48,70,1803248924
2618,19,Jits_Linear_5,3,5,80,127,1803252548
2618,19,Jits_Linear_5,0,5,80,127,1803781440
2618,19,Jits_Linear_5,1,1,48,51,1803787248
2618,19,Jits_Linear_5,2,5,56,103,1803802144
2618,19,Jits_Linear_5,3,5,63,98,1803831668
2618,19,Jits_Linear_5,0,1,48,76,1804338060
2618,19,Jits_Linear_5,1,5,56,103,1804421412
2618,19,Jits_Linear_5,2,5,80,127,1804424552
2618,19,Jits_Linear_5,3,5,63,98,1804442228
2618,19,Jits_Linear_5,0,5,63,98,1804912108
2618,19,Jits_Linear_5,1,1,48,73,1804938748
2618,19,Jits_Linear_5,2,5,56,103,1804941632
2618,19,Jits_Linear_5,3,5,80,127,1805002100
2618,19,Jits_Linear_5,0,1,48,69,1805496792
2618,19,Jits_Linear_5,1,5,63,98,1805562160
2618,19,Jits_Linear_5,2,5,56,103,1805571384
2618,19,Jits_Linear_5,3,5,80,127,1805581656
2618,19,Jits_Linear_5,0,1,48,77,1806081104
2618,19,Jits_Linear_5,1,5,56,103,1806082824
2618,19,Jits_Linear_5,2,5,80,127,1806112080
2618,19,Jits_Linear_5,3,5,63,98,1806122276
2618,19,Jits_Linear_5,0,1,48,60,1806663132
2618,19,Jits_Linear_5,1,5,63,98,1806691632
2618,19,Jits_Linear_5,2,5,56,103,1806702200
2618,19,Jits_Linear_5,3,5,80,127,1806722508
2618,19,Jits_Linear_5,0,5,56,103,1807192448
2618,19,Jits_Linear_5,1,5,63,98,1807252092
2618,19,Jits_Linear_5,2,1,48,64,1807254052
2618,19,Jits_Linear_5,3,5,80,127,1807256648
2618,19,Jits_Linear_5,0,5,80,127,1807791416
2618,19,Jits_Linear_5,1,1,48,67,1807799868
2618,19,Jits_Linear_5,2,5,56,103,1807801680
2618,19,Jits_Linear_5,3,5,63,98,1807872480
2618,19,Jits_Linear_5,0,5,80,127,1808361988
2618,19,Jits_Linear_5,1,1,48,65,1808377612
2618,19,Jits_Linear_5,2,5,56,103,1808431544
2618,19,Jits_Linear_5,3,5,63,98,1808441812
2618,19,Jits_Linear_5,0,1,48,62,1808972792
2618,19,Jits_Linear_5,1,5,63,98,1808982260
2618,19,Jits_Linear_5,2,5,56,103,1808991708
2618,19,Jits_Linear_5,3,5,80,127,1809012020
2618,19,Jits_Linear_5,0,5,80,127,1809511996
2618,19,Jits_Linear_5,1,1,48,67,1809566504
2618,19,Jits_Linear_5,2,5,63,98,1809572084
2618,19,Jits_Linear_5,3,5,56,103,1809612100
2618,19,Jits_Linear_5,0,5,56,103,1810141616
2618,19,Jits_Linear_5,1,1,48,71,1810148400
2618,19,Jits_Linear_5,2,5,63,98,1810152028
2618,19,Jits_Linear_5,3,5,80,127,1810191968
2618,19,Jits_Linear_5,0,5,56,103,1810691440
2618,19,Jits_Linear_5,1,5,80,127,1810722112
2618,19,Jits_Linear_5,2,1,48,81,1810735420
2618,19,Jits_Linear_5,3,5,63,98,1810772308
2618,19,Jits_Linear_5,0,1,48,67,1811290632
2618,19,Jits_Linear_5,1,5,56,103,1811322196
2618,19,Jits_Linear_5,2,5,63,98,1811362284
2618,19,Jits_Linear_5,3,5,80,127,1811365496
2618,19,Jits_Linear_5,0,1,48,54,1811876084
2618,19,Jits_Linear_5,1,5,56,103,1811922268
2618,19,Jits_Linear_5,2,5,63,98,1811931496
2618,19,Jits_Linear_5,3,5,80,127,1811952028
2618,19,Jits_Linear_5,0,1,48,63,1812453768
2618,19,Jits_Linear_5,1,5,56,103,1812472224
2618,19,Jits_Linear_5,2,5,80,127,1812475216
2618,19,Jits_Linear_5,3,5,63,98,1812512040
2618,19,Jits_Linear_5,0,1,48,69,1813056108
2618,19,Jits_Linear_5,1,5,63,98,1813101920
2618,19,Jits_Linear_5,2,5,56,103,1813131744
2618,19,Jits_Linear_5,3,5,80,127,1813152056
2618,19,Jits_Linear_5,0,1,48,51,1813662940
2618,19,Jits_Linear_5,1,5,80,127,1813672180
2618,19,Jits_Linear_5,2,5,56,103,1813681552
2618,19,Jits_Linear_5,3,5,63,98,1813691676
2618,19,Jits_Linear_5,0,1,48,62,1814245028
2618,19,Jits_Linear_5,1,5,56,103,1814272476
2618,19,Jits_Linear_5,2,5,80,127,1814312444
2618,19,Jits_Linear_5,3,5,63,98,1814341880
2618,19,Jits_Linear_5,0,1,48,69,1814854424
2618,19,Jits_Linear_5,1,5,63,98,1814881876
2618,19,Jits_Linear_5,2,5,80,127,1814892000
2618,19,Jits_Linear_5,3,5,56,103,1814902120
2618,19,Jits_Linear_5,0,5,56,103,1815462180
2618,19,Jits_Linear_5,1,1,48,63,1815471228
2618,19,Jits_Linear_5,2,5,63,98,1815531936
2618,19,Jits_Linear_5,3,5,80,127,1815542056
2618,19,Jits_Linear_5,0,5,80,127,1816071792
2618,19,Jits_Linear_5,1,1,48,66,1816074392
2618,19,Jits_Linear_5,2,5,56,103,1816081836
2618,19,Jits_Linear_5,3,5,63,98,1816131912
2618,19,Jits_Linear_5,0,1,48,57,1816687680
2618,19,Jits_Linear_5,1,5,80,127,1816692056
2618,19,Jits_Linear_5,2,5,56,103,1816751704
2618,19,Jits_Linear_5,3,5,63,98,1816782128
2618,19,Jits_Linear_5,0,5,56,103,1817302560
2618,19,Jits_Linear_5,1,5,80,127,1817305624
2618,19,Jits_Linear_5,2,1,48,60,1817337068
2618,19,Jits_Linear_5,3,5,63,98,1817342492
2618,19,Jits_Linear_5,0,1,48,60,1817925112
2618,19,Jits_Linear_5,1,5,56,103,1817942448
2618,19,Jits_Linear_5,2,5,63,98,1817972052
2618,19,Jits_Linear_5,3,5,80,127,1817982248
2618,19,Jits_Linear_5,0,1,48,53,1818515756
2618,19,Jits_Linear_5,1,5,63,98,1818561792
2618,19,Jits_Linear_5,2,5,80,127,1818572136
2618,19,Jits_Linear_5,3,5,56,103,1818582556
2618,19,Jits_Linear_5,0,5,80,127,1819122096
2618,19,Jits_Linear_5,1,1,48,52,1819163976
2618,19,Jits_Linear_5,2,5,56,103,1819172316
2618,19,Jits_Linear_5,3,5,63,98,1819175232
2618,19,Jits_Linear_5,0,1,48,53,1819752068
2618,19,Jits_Linear_5,1,5,56,103,1819772396
2618,19,Jits_Linear_5,2,5,80,127,1819791660
2618,19,Jits_Linear_5,3,5,63,98,1819802080
2618,19,Jits_Linear_5,0,1,48,76,1820340160
2618,19,Jits_Linear_5,1,5,63,98,1820372548
2618,19,Jits_Linear_5,2,5,56,103,1820402004
2618,19,Jits_Linear_5,3,5,80,127,1820421416
2618,19,Jits_Linear_5,0,1,48,71,1820953896
2618,19,Jits_Linear_5,1,5,56,103,1821001952
2618,19,Jits_Linear_5,2,5,80,127,1821012668
2618,19,Jits_Linear_5,3,5,63,98,1821081964
2618,19,Jits_Linear_5,0,1,48,61,1821607836
2618,19,Jits_Linear_5,1,5,63,98,1821612668
2618,19,Jits_Linear_5,2,5,80,127,1821652536
2618,19,Jits_Linear_5,3,5,56,103,1821692400
2618,19,Jits_Linear_5,0,5,56,103,1822252416
2618,19,Jits_Linear_5,1,1,48,70,1822253384
2618,19,Jits_Linear_5,2,5,63,98,1822261560
2618,19,Jits_Linear_5,3,5,80,127,1822282020
2618,19,Jits_Linear_5,0,1,48,73,1822872260
2618,19,Jits_Linear_5,1,5,63,98,1822922260
2618,19,Jits_Linear_5,2,5,80,127,1822941600
2618,19,Jits_Linear_5,3,5,56,103,1822961984
2618,19,Jits_Linear_5,0,5,56,103,1823491412
2618,19,Jits_Linear_5,1,1,48,64,1823569840
2618,19,Jits_Linear_5,2,5,80,127,1823572352
2618,19,Jits_Linear_5,3,5,63,98,1823581648
2618,19,Jits_Linear_5,0,5,80,127,1824162484
2618,19,Jits_Linear_5,1,5,63,98,1824172532
2618,19,Jits_Linear_5,2,1,48,68,1824185468
2618,19,Jits_Linear_5,3,5,56,103,1824202204
2618,19,Jits_Linear_5,0,5,63,98,1824751944
2618,19,Jits_Linear_5,1,1,48,63,1824783464
2618,19,Jits_Linear_5,2,5,80,127,1824791904
2618,19,Jits_Linear_5,3,5,56,103,1824852296
2618,19,Jits_Linear_5,0,5,63,98,1825402472
2618,19,Jits_Linear_5,1,1,48,75,1825417280
2618,19,Jits_Linear_5,2,5,56,103,1825452376
2618,19,Jits_Linear_5,3,5,80,127,1825482348
2618,19,Jits_Linear_5,0,1,48,83,1826029040
2618,19,Jits_Linear_5,1,5,80,127,1826051332
2618,19,Jits_Linear_5,2,5,63,98,1826061900
2618,19,Jits_Linear_5,3,5,56,103,1826132192
2618,19,Jits_Linear_5,0,1,48,82,1826684668
2618,19,Jits_Linear_5,1,5,80,127,1826762244
2618,19,Jits_Linear_5,2,5,56,103,1826772292
2618,19,Jits_Linear_5,3,5,63,98,1826776316
2618,19,Jits_Linear_5,0,5,56,103,1827341652
2618,19,Jits_Linear_5,1,5,80,127,1827362360
2618,19,Jits_Linear_5,2,5,63,98,1827372336
2618,19,Jits_Linear_5,3,1,48,76,1827378668
2618,19,Jits_Linear_5,0,5,63,98,1827992048
2618,19,Jits_Linear_5,1,5,56,103,1828031988
2618,19,Jits_Linear_5,2,1,48,85,1828038172
2618,19,Jits_Linear_5,3,5,80,127,1828052292
2618,19,Jits_Linear_5,0,5,63,98,1828632168
2618,19,Jits_Linear_5,1,1,48,74,1828644880
2618,19,Jits_Linear_5,2,5,56,103,1828692404
2618,19,Jits_Linear_5,3,5,80,127,1828695320
2618,19,Jits_Linear_5,0,5,56,103,1829251424
2618,19,Jits_Linear_5,1,5,80,127,1829272032
2618,19,Jits_Linear_5,2,5,63,98,1829312048
2618,19,Jits_Linear_5,3,1,48,65,1829335988
2618,19,Jits_Linear_5,0,5,56,103,1829932456
2618,19,Jits_Linear_5,1,1,48,69,1829940976
2618,19,Jits_Linear_5,2,5,63,98,1829952012
2618,19,Jits_Linear_5,3,5,80,127,1829962060
2618,19,Jits_Linear_5,0,5,80,127,1830552104
2618,19,Jits_Linear_5,1,5,56,103,1830581560
2618,19,Jits_Linear_5,2,1,48,61,1830598756
2618,19,Jits_Linear_5,3,5,63,98,1830621568
2618,19,Jits_Linear_5,0,5,80,127,1831212312
2618,19,Jits_Linear_5,1,5,56,103,1831232024
2618,19,Jits_Linear_5,2,1,48,66,1831255224
2618,19,Jits_Linear_5,3,5,63,98,1831292188
2618,19,Jits_Linear_5,0,5,56,103,1831871972
2618,19,Jits_Linear_5,1,5,80,127,1831892208
2618,19,Jits_Linear_5,2,1,48,66,1831928212
2618,19,Jits_Linear_5,3,5,63,98,1831951916
2618,19,Jits_Linear_5,0,5,80,127,1832511880
2618,19,Jits_Linear_5,1,5,56,103,1832522076
2618,19,Jits_Linear_5,2,5,63,98,1832562240
2618,19,Jits_Linear_5,3,1,48,66,1832563804
2618,19,Jits_Linear_5,0,5,63,98,1833172284
2618,19,Jits_Linear_5,1,5,56,103,1833212224
2618,19,Jits_Linear_5,2,5,80,127,1833215288
2618,19,Jits_Linear_5,3,1,48,67,1833234292
2618,19,Jits_Linear_5,0,1,48,63,1833838488
2618,19,Jits_Linear_5,1,5,63,98,1833852236
2618,19,Jits_Linear_5,2,5,80,127,1833892180
2618,19,Jits_Linear_5,3,5,56,103,1833922004
2618,19,Jits_Linear_5,0,5,56,103,1834501480
2618,19,Jits_Linear_5,1,5,63,98,1834512196
2618,19,Jits_Linear_5,2,1,48,56,1834521720
2618,19,Jits_Linear_5,3,5,80,127,1834541296
2618,19,Jits_Linear_5,0,5,80,127,1835162128
2618,19,Jits_Linear_5,1,1,48,74,1835183828
2618,19,Jits_Linear_5,2,5,63,98,1835231732
2618,19,Jits_Linear_5,3,5,56,103,1835241928
2618,19,Jits_Linear_5,0,5,63,98,1835831920
2618,19,Jits_Linear_5,1,1,48,70,1835847924
2618,19,Jits_Linear_5,2,5,56,103,1835902200
2618,19,Jits_Linear_5,3,5,80,127,1835911496
2618,19,Jits_Linear_5,0,5,63,98,1836502356
2618,19,Jits_Linear_5,1,5,56,103,1836521768
2618,19,Jits_Linear_5,2,5,80,127,1836561856
2618,19,Jits_Linear_5,3,1,48,62,1836580968
2618,19,Jits_Linear_5,0,5,56,103,1837182324
2618,19,Jits_Linear_5,1,5,63,98,1837191552
2618,19,Jits_Linear_5,2,1,48,65,1837205980
2618,19,Jits_Linear_5,3,5,80,127,1837272312
2618,19,Jits_Linear_5,0,5,63,98,1837841760
2618,19,Jits_Linear_5,1,1,48,76,1837847972
2618,19,Jits_Linear_5,2,5,56,103,1837871680
2618,19,Jits_Linear_5,3,5,80,127,1837912516
2618,19,Jits_Linear_5,0,5,56,103,1838511468
2618,19,Jits_Linear_5,1,1,48,81,1838539920
2618,19,Jits_Linear_5,2,5,63,98,1838552376
2618,19,Jits_Linear_5,3,5,80,127,1838592388
2618,19,Jits_Linear_5,0,5,80,127,1839192572
2618,19,Jits_Linear_5,1,1,48,70,1839252716
2618,19,Jits_Linear_5,2,5,56,103,1839272368
2618,19,Jits_Linear_5,3,5,63,98,1839281816
2618,19,Jits_Linear_5,0,5,56,103,1839912496
2618,19,Jits_Linear_5,1,5,63,98,1839915488
2618,19,Jits_Linear_5,2,5,80,127,1839921796
2618,19,Jits_Linear_5,3,1,48,77,1840007988
2618,19,Jits_Linear_5,0,5,56,103,1840611564
2618,19,Jits_Linear_5,1,5,63,98,1840632176
2618,19,Jits_Linear_5,2,5,80,127,1840642592
2618,19,Jits_Linear_5,3,1,48,69,1840772572
2618,19,Jits_Linear_5,0,5,63,98,1841251620
2618,19,Jits_Linear_5,1,5,80,127,1841261892
2618,19,Jits_Linear_5,2,5,56,103,1841282572
2618,19,Jits_Linear_5,3,1,48,57,1841450616
2618,19,Jits_Linear_5,0,5,63,98,1841942080
2618,19,Jits_Linear_5,1,5,56,103,1842021728
2618,19,Jits_Linear_5,2,5,80,127,1842024868
2618,19,Jits_Linear_5,3,1,48,58,1842048220
2618,19,Jits_Linear_5,0,5,63,98,1842631988
2618,19,Jits_Linear_5,1,5,56,103,1842651624
2618,19,Jits_Linear_5,2,5,80,127,1842682344
2618,19,Jits_Linear_5,3,1,48,63,1842756504
2618,19,Jits_Linear_5,0,5,56,103,1843322296
2618,19,Jits_Linear_5,1,5,63,98,1843341784
2618,19,Jits_Linear_5,2,5,80,127,1843352056
2618,19,Jits_Linear_5,0,1,48,59,1844002280
2618,19,Jits_Linear_5,1,5,56,103,1844042016
2618,19,Jits_Linear_5,2,5,63,98,1844071844
2618,19,Jits_Linear_5,3,5,80,127,1844075356
2618,19,Jits_Linear_5,0,5,56,103,1844682104
2618,19,Jits_Linear_5,1,5,63,98,1844721968
2618,19,Jits_Linear_5,2,1,48,63,1844728676
2618,19,Jits_Linear_5,3,5,80,127,1844781404
2618,19,Jits_Linear_5,0,1,48,58,1845363928
2618,19,Jits_Linear_5,1,5,56,103,1845391680
2618,19,Jits_Linear_5,2,5,63,98,1845401948
2618,19,Jits_Linear_5,3,5,80,127,1845462400
2618,19,Jits_Linear_5,0,1,48,60,1846059564
2618,19,Jits_Linear_5,1,5,56,103,1846092100
2618,19,Jits_Linear_5,2,5,80,127,1846111588
2618,19,Jits_Linear_5,3,5,63,98,1846142388
2618,19,Jits_Linear_5,0,5,80,127,1846791460
2618,19,Jits_Linear_5,1,1,48,68,1846792428
2618,19,Jits_Linear_5,2,5,56,103,1846801652
2618,19,Jits_Linear_5,3,5,63,98,1846822356
2618,19,Jits_Linear_5,0,5,63,98,1847481780
2618,19,Jits_Linear_5,1,1,48,65,1847501840
2618,19,Jits_Linear_5,2,5,80,127,1847561572
2618,19,Jits_Linear_5,3,5,56,103,1847571992
2618,19,Jits_Linear_5,0,1,48,77,1848220540
2618,19,Jits_Linear_5,1,5,80,127,1848241468
2618,19,Jits_Linear_5,2,5,56,103,1848262076
2618,19,Jits_Linear_5,3,5,63,98,1848265292
2618,19,Jits_Linear_5,0,5,63,98,1848921356
2618,19,Jits_Linear_5,1,5,80,127,1848924652
2618,19,Jits_Linear_5,2,1,48,78,1848950408
2618,19,Jits_Linear_5,3,5,56,103,1848981748
2618,19,Jits_Linear_5,0,5,56,103,1849611492
2618,19,Jits_Linear_5,1,5,80,127,1849621788
2618,19,Jits_Linear_5,2,1,48,76,1849634120
2618,19,Jits_Linear_5,3,5,63,98,1849661720
2618,19,Jits_Linear_5,0,5,56,103,1850301736
2618,19,Jits_Linear_5,1,1,48,82,1850335048
2618,19,Jits_Linear_5,2,5,63,98,1850362352
2618,19,Jits_Linear_5,3,5,80,127,1850371428
2618,19,Jits_Linear_5,0,1,48,75,1850999660
2618,19,Jits_Linear_5,1,5,63,98,1851021728
2618,19,Jits_Linear_5,2,5,80,127,1851061520
2618,19,Jits_Linear_5,3,5,56,103,1851101444
2618,19,Jits_Linear_5,0,1,48,77,1851715076
2618,19,Jits_Linear_5,1,5,56,103,1851732260
2618,19,Jits_Linear_5,2,5,63,98,1851812268
2618,19,Jits_Linear_5,3,5,80,127,1851815556
2618,19,Jits_Linear_5,0,1,48,70,1852453932
2618,19,Jits_Linear_5,1,5,80,127,1852502436
2618,19,Jits_Linear_5,2,5,56,103,1852532332
2618,19,Jits_Linear_5,3,5,63,98,1852535248
2618,19,Jits_Linear_5,0,5,56,103,1853182304
2618,19,Jits_Linear_5,1,5,80,127,1853202016
2618,19,Jits_Linear_5,2,1,48,74,1853227260
2618,19,Jits_Linear_5,3,5,63,98,1853241972
2618,19,Jits_Linear_5,0,5,80,127,1853881996
2618,19,Jits_Linear_5,1,5,63,98,1853902160
2618,19,Jits_Linear_5,2,1,48,72,1853935540
2618,19,Jits_Linear_5,3,5,56,103,1853961568
2618,19,Jits_Linear_5,0,5,63,98,1854611880
2618,19,Jits_Linear_5,1,5,56,103,1854622000
2618,19,Jits_Linear_5,2,1,48,76,1854632464
2618,19,Jits_Linear_5,3,5,80,127,1854672196
2618,19,Jits_Linear_5,0,5,56,103,1855321444
2618,19,Jits_Linear_5,1,1,48,70,1855330040
2618,19,Jits_Linear_5,2,5,63,98,1855342048
2618,19,Jits_Linear_5,3,5,80,127,1855352244
2618,19,Jits_Linear_5,0,1,48,62,1856030992
2618,19,Jits_Linear_5,1,5,56,103,1856042324
2618,19,Jits_Linear_5,2,5,63,98,1856045392
2618,19,Jits_Linear_5,3,5,80,127,1856062108
2618,19,Jits_Linear_5,0,1,48,62,1856766796
2618,19,Jits_Linear_5,1,5,63,98,1856812336
2618,19,Jits_Linear_5,2,5,56,103,1856842012
2618,19,Jits_Linear_5,3,5,80,127,1856871748
2618,19,Jits_Linear_5,0,5,80,127,1857501508
2618,19,Jits_Linear_5,1,1,48,63,1857518476
2618,19,Jits_Linear_5,2,5,56,103,1857591884
2618,19,Jits_Linear_5,3,5,63,98,1857594952
2618,19,Jits_Linear_5,0,5,56,103,1858231984
2618,19,Jits_Linear_5,1,5,80,127,1858234968
2618,19,Jits_Linear_5,2,1,48,63,1858262968
2618,19,Jits_Linear_5,3,5,63,98,1858311620
2618,19,Jits_Linear_5,0,5,80,127,1858961856
2618,19,Jits_Linear_5,1,1,48,73,1858986620
2618,19,Jits_Linear_5,2,5,63,98,1859022168
2618,19,Jits_Linear_5,3,5,56,103,1859051848
2618,19,Jits_Linear_5,0,5,63,98,1859691744
2618,19,Jits_Linear_5,1,5,80,127,1859702240
2618,19,Jits_Linear_5,2,1,48,73,1859730312
2618,19,Jits_Linear_5,3,5,56,103,1859771764
2618,19,Jits_Linear_5,0,1,48,67,1860441236
2618,19,Jits_Linear_5,1,5,56,103,1860442944
2618,19,Jits_Linear_5,2,5,80,127,1860472324
2618,19,Jits_Linear_5,3,5,63,98,1860522304
2618,19,Jits_Linear_5,0,1,48,63,1861133432
2618,19,Jits_Linear_5,1,5,63,98,1861221672
2618,19,Jits_Linear_5,2,5,56,103,1861251552
2618,19,Jits_Linear_5,3,5,80,127,1861254472
2618,19,Jits_Linear_5,0,1,48,74,1861947372
2618,19,Jits_Linear_5,1,5,63,98,1861972360
2618,19,Jits_Linear_5,2,5,80,127,1861991920
2618,19,Jits_Linear_5,3,5,56,103,1862001968
2618,19,Jits_Linear_5,0,1,48,55,1862716436
2618,19,Jits_Linear_5,1,5,56,103,1862721932
2618,19,Jits_Linear_5,2,5,63,98,1862725072
2618,19,Jits_Linear_5,3,5,80,127,1862742540
2618,19,Jits_Linear_5,0,5,56,103,1863422184
2618,19,Jits_Linear_5,1,5,63,98,1863431628
2618,19,Jits_Linear_5,2,1,48,70,1863440600
2618,19,Jits_Linear_5,3,5,80,127,1863462296
2618,19,Jits_Linear_5,0,1,48,77,1864112992
2618,19,Jits_Linear_5,1,5,63,98,1864192516
2618,19,Jits_Linear_5,2,5,80,127,1864211764
2618,19,Jits_Linear_5,3,5,56,103,1864251704
2618,19,Jits_Linear_5,0,1,48,67,1864886436
2618,19,Jits_Linear_5,1,5,56,103,1864971512
2618,19,Jits_Linear_5,2,5,63,98,1865011536
2618,19,Jits_Linear_5,3,5,80,127,1865014676
2618,19,Jits_Linear_5,0,5,80,127,1865661672
2618,19,Jits_Linear_5,1,5,56,103,1865701612
2618,19,Jits_Linear_5,2,1,48,78,1865703552
2618,19,Jits_Linear_5,3,5,63,98,1865751908
2618,19,Jits_Linear_5,0,5,56,103,1866471724
2618,19,Jits_Linear_5,1,5,80,127,1866481996
2618,19,Jits_Linear_5,2,1,48,108,1866497548
2618,19,Jits_Linear_5,3,5,63,98,1866511812
2618,19,Jits_Linear_5,0,5,56,103,1867172396
2618,19,Jits_Linear_5,1,5,80,127,1867212412
2618,19,Jits_Linear_5,2,5,63,98,1867262540
2618,19,Jits_Linear_5,3,1,48,76,1867284496
2618,19,Jits_Linear_5,4,1,48,27,1867347764
2618,19,Jits_Linear_5,0,5,56,103,1867932000
2618,19,Jits_Linear_5,1,5,80,127,1867971940
2618,19,Jits_Linear_5,2,1,48,78,1867986812
2618,19,Jits_Linear_5,3,5,63,98,1868022288
2618,19,Jits_Linear_5,0,5,80,127,1868681588
2618,19,Jits_Linear_5,1,1,48,57,1868694444
2618,19,Jits_Linear_5,2,5,63,98,1868761456
2618,19,Jits_Linear_5,3,5,56,103,1868771728
2618,19,Jits_Linear_5,0,1,48,64,1869472204
2618,19,Jits_Linear_5,1,5,80,127,1869491708
2618,19,Jits_Linear_5,2,5,56,103,1869501756
2618,19,Jits_Linear_5,3,5,63,98,1869522292
2618,19,Jits_Linear_5,0,5,63,98,1870221732
2618,19,Jits_Linear_5,1,1,48,66,1870242840
2618,19,Jits_Linear_5,2,5,56,103,1870292308
2618,19,Jits_Linear_5,3,5,80,127,1870295372
2618,19,Jits_Linear_5,0,1,48,58,1870976876
2618,19,Jits_Linear_5,1,5,80,127,1870981632
2618,19,Jits_Linear_5,2,5,63,98,1871031616
2618,19,Jits_Linear_5,3,5,56,103,1871072660
2618,19,Jits_Linear_5,0,1,48,59,1871763920
2618,19,Jits_Linear_5,1,5,63,98,1871791520
2618,19,Jits_Linear_5,2,5,56,103,1871832360
2618,19,Jits_Linear_5,3,5,80,127,1871841584
2618,19,Jits_Linear_5,0,1,48,63,1872524284
2618,19,Jits_Linear_5,1,5,63,98,1872552408
2618,19,Jits_Linear_5,2,5,56,103,1872571748
2618,19,Jits_Linear_5,3,5,80,127,1872592432
2618,19,Jits_Linear_5,0,5,80,127,1873282288
2618,19,Jits_Linear_5,1,5,56,103,1873291660
2618,19,Jits_Linear_5,2,1,48,72,1873296944
2618,19,Jits_Linear_5,3,5,63,98,1873312112
2618,19,Jits_Linear_5,0,1,48,71,1874037148
2618,19,Jits_Linear_5,1,5,63,98,1874082284
2618,19,Jits_Linear_5,2,5,56,103,1874122300
2618,19,Jits_Linear_5,3,5,80,127,1874151736
2618,19,Jits_Linear_5,0,1,48,66,1874828004
2618,19,Jits_Linear_5,1,5,56,103,1874861308
2618,19,Jits_Linear_5,2,5,63,98,1874892256
2618,19,Jits_Linear_5,3,5,80,127,1874921992
2618,19,Jits_Linear_5,0,1,48,65,1875588220
2618,19,Jits_Linear_5,1,5,80,127,1875612004
2618,19,Jits_Linear_5,2,5,56,103,1875682888
2618,19,Jits_Linear_5,3,5,63,98,1875685560
2618,19,Jits_Linear_5,0,1,48,67,1876393536
2618,19,Jits_Linear_5,1,5,56,103,1876401504
2618,19,Jits_Linear_5,2,5,63,98,1876451560
2618,19,Jits_Linear_5,3,5,80,127,1876482356
2618,19,Jits_Linear_5,0,5,63,98,1877162320
2618,19,Jits_Linear_5,1,5,80,127,1877165532
2618,19,Jits_Linear_5,2,1,48,59,1877185964
2618,19,Jits_Linear_5,3,5,56,103,1877221804
2618,19,Jits_Linear_5,0,1,48,82,1877919180
2618,19,Jits_Linear_5,1,5,56,103,1877972260
2618,19,Jits_Linear_5,2,5,80,127,1877981560
2618,19,Jits_Linear_5,3,5,63,98,1878031900
2618,19,Jits_Linear_5,0,1,48,61,1878718352
2618,19,Jits_Linear_5,1,5,63,98,1878732100
2618,19,Jits_Linear_5,2,5,56,103,1878742448
2618,19,Jits_Linear_5,3,5,80,127,1878772196
2618,19,Jits_Linear_5,0,1,48,70,1879474968
2618,19,Jits_Linear_5,1,5,63,98,1879552324
2618,19,Jits_Linear_5,2,5,80,127,1879555460
2618,19,Jits_Linear_5,3,5,56,103,1879582056
2618,19,Jits_Linear_5,0,1,48,65,1880269304
2618,19,Jits_Linear_5,1,5,63,98,1880363084
2618,19,Jits_Linear_5,2,5,56,103,1880382040
2618,19,Jits_Linear_5,3,5,80,127,1880385180
2618,19,Jits_Linear_5,0,1,48,58,1881082712
2618,19,Jits_Linear_5,1,5,63,98,1881111912
2618,19,Jits_Linear_5,2,5,56,103,1881181584
2618,19,Jits_Linear_5,3,5,80,127,1881201968
2618,19,Jits_Linear_5,0,5,56,103,1881892136
2618,19,Jits_Linear_5,1,5,63,98,1881901288
2618,19,Jits_Linear_5,2,1,48,55,1881920744
2618,19,Jits_Linear_5,3,5,80,127,1881991712
2618,19,Jits_Linear_5,0,5,56,103,1882702112
2618,19,Jits_Linear_5,1,1,48,54,1882704048
2618,19,Jits_Linear_5,2,5,80,127,1882742120
2618,19,Jits_Linear_5,3,5,63,98,1882752316
2618,19,Jits_Linear_5,0,1,48,68,1883476012
2618,19,Jits_Linear_5,1,5,56,103,1883522344
2618,19,Jits_Linear_5,2,5,63,98,1883552096
2618,19,Jits_Linear_5,3,5,80,127,1883581832
2618,19,Jits_Linear_5,0,5,80,127,1884282636
2618,19,Jits_Linear_5,1,1,48,81,1884310864
2618,19,Jits_Linear_5,2,5,63,98,1884322200
2618,19,Jits_Linear_5,3,5,56,103,1884341684
2618,19,Jits_Linear_5,0,5,56,103,1885121756
2618,19,Jits_Linear_5,1,5,80,127,1885142664
2618,19,Jits_Linear_5,2,1,48,64,1885151108
2618,19,Jits_Linear_5,3,5,63,98,1885161772
2618,19,Jits_Linear_5,0,5,63,98,1885891948
2618,19,Jits_Linear_5,1,5,56,103,1885902068
2618,19,Jits_Linear_5,2,1,48,75,1885927280
2618,19,Jits_Linear_5,3,5,80,127,1885961704
2618,19,Jits_Linear_5,0,5,56,103,1886701980
2618,19,Jits_Linear_5,1,1,48,60,1886735368
2618,19,Jits_Linear_5,2,5,63,98,1886771756
2618,19,Jits_Linear_5,3,5,80,127,1886791992
2618,19,Jits_Linear_5,0,5,56,103,1887511980
2618,19,Jits_Linear_5,1,1,48,61,1887527308
2618,19,Jits_Linear_5,2,5,63,98,1887541728
2618,19,Jits_Linear_5,3,5,80,127,1887581664
2618,19,Jits_Linear_5,0,1,48,58,1888311616
2618,19,Jits_Linear_5,1,5,63,98,1888313328
2618,19,Jits_Linear_5,2,5,56,103,1888361816
2618,19,Jits_Linear_5,3,5,80,127,1888372084
2618,19,Jits_Linear_5,0,1,48,81,1889138764
2618,19,Jits_Linear_5,1,5,56,103,1889161652
2618,19,Jits_Linear_5,2,5,63,98,1889211708
2618,19,Jits_Linear_5,3,5,80,127,1889221976
2618,19,Jits_Linear_5,0,5,56,103,1889941800
2618,19,Jits_Linear_5,1,5,63,98,1889951996
2618,19,Jits_Linear_5,2,1,48,67,1890004932
2618,19,Jits_Linear_5,3,5,80,127,1890031936
2618,19,Jits_Linear_5,0,9999,9999,9999,1781179476
2618,19,Jits_Linear_5,1,9999,9999,9999,1781659712
2618,19,Jits_Linear_5,2,9999,9999,9999,1782139972
2618,19,Jits_Linear_5,3,9999,9999,9999,1782619252
2618,19,Jits_Linear_5,4,9999,9999,9999,1783099476
2618,19,Jits_Linear_5,5,9999,9999,9999,1783589952
2618,19,Jits_Linear_5,6,9999,9999,9999,1784079428
2618,19,Jits_Linear_5,7,9999,9999,9999,1784569984
2618,19,Jits_Linear_5,8,9999,9999,9999,1785059424
2618,19,Jits_Linear_5,9,9999,9999,9999,1785549912
2618,19,Jits_Linear_5,10,9999,9999,9999,1786049612
2618,19,Jits_Linear_5,11,9999,9999,9999,1786549320
2618,19,Jits_Linear_5,12,9999,9999,9999,1787050048
2618,19,Jits_Linear_5,13,9999,9999,9999,1787549808
2618,19,Jits_Linear_5,14,9999,9999,9999,1788049496
2618,19,Jits_Linear_5,15,9999,9999,9999,1788559464
2618,19,Jits_Linear_5,16,9999,9999,9999,1789069416
2618,19,Jits_Linear_5,17,9999,9999,9999,1789579368
2618,19,Jits_Linear_5,18,9999,9999,9999,1790089320
2618,19,Jits_Linear_5,19,9999,9999,9999,1790599276
2618,19,Jits_Linear_5,20,9999,9999,9999,1791119416
2618,19,Jits_Linear_5,21,9999,9999,9999,1791639648
2618,19,Jits_Linear_5,22,9999,9999,9999,1792159804
2618,19,Jits_Linear_5,23,9999,9999,9999,1792680020
2618,19,Jits_Linear_5,24,9999,9999,9999,1793199204
2618,19,Jits_Linear_5,25,9999,9999,9999,1793729616
2618,19,Jits_Linear_5,26,9999,9999,9999,1794260020
2618,19,Jits_Linear_5,27,9999,9999,9999,1794789444
2618,19,Jits_Linear_5,28,9999,9999,9999,1795319864
2618,19,Jits_Linear_5,29,9999,9999,9999,1795849296
2618,19,Jits_Linear_5,30,9999,9999,9999,1796390004
2618,19,Jits_Linear_5,31,9999,9999,9999,1796929636
2618,19,Jits_Linear_5,32,9999,9999,9999,1797469268
2618,19,Jits_Linear_5,33,9999,9999,9999,1798009948
2618,19,Jits_Linear_5,34,9999,9999,9999,1798549584
2618,19,Jits_Linear_5,35,9999,9999,9999,1799099488
2618,19,Jits_Linear_5,36,9999,9999,9999,1799649364
2618,19,Jits_Linear_5,37,9999,9999,9999,1800199248
2618,19,Jits_Linear_5,38,9999,9999,9999,1800749176
2618,19,Jits_Linear_5,39,9999,9999,9999,1801300032
2618,19,Jits_Linear_5,40,9999,9999,9999,1801859136
2618,19,Jits_Linear_5,41,9999,9999,9999,1802419296
2618,19,Jits_Linear_5,42,9999,9999,9999,1802979384
2618,19,Jits_Linear_5,43,9999,9999,9999,1803539528
2618,19,Jits_Linear_5,44,9999,9999,9999,1804099692
2618,19,Jits_Linear_5,45,9999,9999,9999,1804670040
2618,19,Jits_Linear_5,46,9999,9999,9999,1805239408
2618,19,Jits_Linear_5,47,9999,9999,9999,1805809748
2618,19,Jits_Linear_5,48,9999,9999,9999,1806379064
2618,19,Jits_Linear_5,49,9999,9999,9999,1806949480
2618,19,Jits_Linear_5,50,9999,9999,9999,1807530072
2618,19,Jits_Linear_5,51,9999,9999,9999,1808109644
2618,19,Jits_Linear_5,52,9999,9999,9999,1808689236
2618,19,Jits_Linear_5,53,9999,9999,9999,1809269852
2618,19,Jits_Linear_5,54,9999,9999,9999,1809849408
2618,19,Jits_Linear_5,55,9999,9999,9999,1810439240
2618,19,Jits_Linear_5,56,9999,9999,9999,1811030068
2618,19,Jits_Linear_5,57,9999,9999,9999,1811629108
2618,19,Jits_Linear_5,58,9999,9999,9999,1812219976
2618,19,Jits_Linear_5,59,9999,9999,9999,1812809804
2618,19,Jits_Linear_5,60,9999,9999,9999,1813409888
2618,19,Jits_Linear_5,61,9999,9999,9999,1814009964
2618,19,Jits_Linear_5,62,9999,9999,9999,1814609992
2618,19,Jits_Linear_5,63,9999,9999,9999,1815210072
2618,19,Jits_Linear_5,64,9999,9999,9999,1815809104
2618,19,Jits_Linear_5,65,9999,9999,9999,1816419412
2618,19,Jits_Linear_5,66,9999,9999,9999,1817029700
2618,19,Jits_Linear_5,67,9999,9999,9999,1817640056
2618,19,Jits_Linear_5,68,9999,9999,9999,1818249296
2618,19,Jits_Linear_5,69,9999,9999,9999,1818859644
2618,19,Jits_Linear_5,70,9999,9999,9999,1819479148
2618,19,Jits_Linear_5,71,9999,9999,9999,1820099696
2618,19,Jits_Linear_5,72,9999,9999,9999,1820719204
2618,19,Jits_Linear_5,73,9999,9999,9999,1821339740
2618,19,Jits_Linear_5,74,9999,9999,9999,1821959224
2618,19,Jits_Linear_5,75,9999,9999,9999,1822590048
2618,19,Jits_Linear_5,76,9999,9999,9999,1823219820
2618,19,Jits_Linear_5,77,9999,9999,9999,1823849596
2618,19,Jits_Linear_5,78,9999,9999,9999,1824479292
2618,19,Jits_Linear_5,79,9999,9999,9999,1825110132
2618,19,Jits_Linear_5,80,9999,9999,9999,1825750076
2618,19,Jits_Linear_5,81,9999,9999,9999,1826390112
2618,19,Jits_Linear_5,82,9999,9999,9999,1827030128
2618,19,Jits_Linear_5,83,9999,9999,9999,1827670092
2618,19,Jits_Linear_5,84,9999,9999,9999,1828310128
2618,19,Jits_Linear_5,85,9999,9999,9999,1828969568
2618,19,Jits_Linear_5,86,9999,9999,9999,1829619768
2618,19,Jits_Linear_5,87,9999,9999,9999,1830270012
2618,19,Jits_Linear_5,88,9999,9999,9999,1830919256
2618,19,Jits_Linear_5,89,9999,9999,9999,1831569500
2618,19,Jits_Linear_5,90,9999,9999,9999,1832230008
2618,19,Jits_Linear_5,91,9999,9999,9999,1832889440
2618,19,Jits_Linear_5,92,9999,9999,9999,1833549932
2618,19,Jits_Linear_5,93,9999,9999,9999,1834209356
2618,19,Jits_Linear_5,94,9999,9999,9999,1834869844
2618,19,Jits_Linear_5,95,9999,9999,9999,1835539548
2618,19,Jits_Linear_5,96,9999,9999,9999,1836209264
2618,19,Jits_Linear_5,97,9999,9999,9999,1836879940
2618,19,Jits_Linear_5,98,9999,9999,9999,1837549624
2618,19,Jits_Linear_5,99,9999,9999,9999,1838219348
2618,19,Jits_Linear_5,100,9999,9999,9999,1838899316
2618,19,Jits_Linear_5,101,9999,9999,9999,1839579208
2618,19,Jits_Linear_5,102,9999,9999,9999,1840259188
2618,19,Jits_Linear_5,103,9999,9999,9999,1840939104
2618,19,Jits_Linear_5,104,9999,9999,9999,1841620040
2618,19,Jits_Linear_5,105,9999,9999,9999,1842309224
2618,19,Jits_Linear_5,106,9999,9999,9999,1842999384
2618,19,Jits_Linear_5,107,9999,9999,9999,1843689540
2618,19,Jits_Linear_5,108,9999,9999,9999,1844379720
2618,19,Jits_Linear_5,109,9999,9999,9999,1845069880
2618,19,Jits_Linear_5,110,9999,9999,9999,1845769320
2618,19,Jits_Linear_5,111,9999,9999,9999,1846469744
2618,19,Jits_Linear_5,112,9999,9999,9999,1847169116
2618,19,Jits_Linear_5,113,9999,9999,9999,1847869560
2618,19,Jits_Linear_5,114,9999,9999,9999,1848569952
2618,19,Jits_Linear_5,115,9999,9999,9999,1849279584
2618,19,Jits_Linear_5,116,9999,9999,9999,1849989228
2618,19,Jits_Linear_5,117,9999,9999,9999,1850699856
2618,19,Jits_Linear_5,118,9999,9999,9999,1851409488
2618,19,Jits_Linear_5,119,9999,9999,9999,1852119116
2618,19,Jits_Linear_5,120,9999,9999,9999,1852840060
2618,19,Jits_Linear_5,121,9999,9999,9999,1853559892
2618,19,Jits_Linear_5,122,9999,9999,9999,1854279736
2618,19,Jits_Linear_5,123,9999,9999,9999,1854999652
2618,19,Jits_Linear_5,124,9999,9999,9999,1855719528
2618,19,Jits_Linear_5,125,9999,9999,9999,1856449624
2618,19,Jits_Linear_5,126,9999,9999,9999,1857179716
2618,19,Jits_Linear_5,127,9999,9999,9999,1857909876
2618,19,Jits_Linear_5,128,9999,9999,9999,1858639976
2618,19,Jits_Linear_5,129,9999,9999,9999,1859370088
2618,19,Jits_Linear_5,130,9999,9999,9999,1860109384
2618,19,Jits_Linear_5,131,9999,9999,9999,1860849732
2618,19,Jits_Linear_5,132,9999,9999,9999,1861590084
2618,19,Jits_Linear_5,133,9999,9999,9999,1862339660
2618,19,Jits_Linear_5,134,9999,9999,9999,1863080012
2618,19,Jits_Linear_5,135,9999,9999,9999,1863829580
2618,19,Jits_Linear_5,136,9999,9999,9999,1864579148
2618,19,Jits_Linear_5,137,9999,9999,9999,1865329764
2618,19,Jits_Linear_5,138,9999,9999,9999,1866079340
2618,19,Jits_Linear_5,139,9999,9999,9999,1866829904
2618,19,Jits_Linear_5,140,9999,9999,9999,1867589748
2618,19,Jits_Linear_5,141,9999,9999,9999,1868349520
2618,19,Jits_Linear_5,142,9999,9999,9999,1869109372
2618,19,Jits_Linear_5,143,9999,9999,9999,1869869152
2618,19,Jits_Linear_5,144,9999,9999,9999,1870629952
2618,19,Jits_Linear_5,145,9999,9999,9999,1871400056
2618,19,Jits_Linear_5,146,9999,9999,9999,1872170088
2618,19,Jits_Linear_5,147,9999,9999,9999,1872939068
2618,19,Jits_Linear_5,148,9999,9999,9999,1873709164
2618,19,Jits_Linear_5,149,9999,9999,9999,1874479208
2618,19,Jits_Linear_5,150,9999,9999,9999,1875259504
2618,19,Jits_Linear_5,151,9999,9999,9999,1876039784
2618,19,Jits_Linear_5,152,9999,9999,9999,1876820076
2618,19,Jits_Linear_5,153,9999,9999,9999,1877599304
2618,19,Jits_Linear_5,154,9999,9999,9999,1878379596
2618,19,Jits_Linear_5,155,9999,9999,9999,1879169100
2618,19,Jits_Linear_5,156,9999,9999,9999,1879959620
2618,19,Jits_Linear_5,157,9999,9999,9999,1880749120
2618,19,Jits_Linear_5,158,9999,9999,9999,1881539676
2618,19,Jits_Linear_5,159,9999,9999,9999,1882329180
2618,19,Jits_Linear_5,160,9999,9999,9999,1883129940
2618,19,Jits_Linear_5,161,9999,9999,9999,1883929676
2618,19,Jits_Linear_5,162,9999,9999,9999,1884729448
2618,19,Jits_Linear_5,163,9999,9999,9999,1885529156
2618,19,Jits_Linear_5,164,9999,9999,9999,1886329912
2618,19,Jits_Linear_5,165,9999,9999,9999,1887139948
2618,19,Jits_Linear_5,166,9999,9999,9999,1887949924
2618,19,Jits_Linear_5,167,9999,9999,9999,1888759896
2618,19,Jits_Linear_5,168,9999,9999,9999,1889569884
2618,19,Jits_Linear_5,169,9999,9999,9999,1890379840
2619,3,ISIP_8,0,5,42,127,1948068200
2619,3,ISIP_8,1,5,42,127,1948867880
2619,3,ISIP_8,2,5,42,127,1949667860
2619,3,ISIP_8,3,5,42,127,1950467464
2619,3,ISIP_8,4,1,48,69,1951252624
2619,3,ISIP_8,5,5,42,127,1951268064
2619,3,ISIP_8,6,1,48,55,1952020264
2619,3,ISIP_8,7,5,42,127,1952067944
2619,3,ISIP_8,8,1,48,53,1952804964
2619,3,ISIP_8,9,5,42,127,1952867676
2619,3,ISIP_8,10,1,48,54,1953598716
2619,3,ISIP_8,11,5,42,127,1953667632
2619,3,ISIP_8,12,1,48,56,1954411088
2619,3,ISIP_8,13,5,42,127,1954468188
2619,3,ISIP_8,14,1,48,54,1955237668
2619,3,ISIP_8,15,5,42,127,1955267924
2619,3,ISIP_8,16,1,48,59,1956038680
2619,3,ISIP_8,17,5,42,127,1956067808
2619,3,ISIP_8,18,1,48,56,1956851952
2619,3,ISIP_8,19,5,42,127,1956867540
2619,3,ISIP_8,20,1,48,53,1957643756
2619,3,ISIP_8,21,5,42,127,1957668420
2619,3,ISIP_8,22,1,48,58,1958461236
2619,3,ISIP_8,23,5,42,127,1958467856
2619,3,ISIP_8,24,1,48,56,1959255216
2619,3,ISIP_8,25,5,42,127,1959267736
2619,3,ISIP_8,26,1,48,46,1960067256
2619,3,ISIP_8,27,5,42,127,1960068892
2619,3,ISIP_8,28,1,48,53,1960851912
2619,3,ISIP_8,29,5,42,127,1960868176
2619,3,ISIP_8,30,1,48,60,1961662268
2619,3,ISIP_8,31,5,42,127,1961668132
2619,3,ISIP_8,32,1,48,57,1962458484
2619,3,ISIP_8,33,5,42,127,1962467644
2619,3,ISIP_8,34,1,48,62,1963260612
2619,3,ISIP_8,35,5,42,127,1963267304
2619,3,ISIP_8,36,1,48,60,1964057004
2619,3,ISIP_8,37,5,42,127,1964068108
2619,3,ISIP_8,38,1,48,54,1964849484
2619,3,ISIP_8,39,5,42,127,1964868216
2619,3,ISIP_8,40,1,48,53,1965652136
2619,3,ISIP_8,41,5,42,127,1965667576
2619,3,ISIP_8,42,1,48,54,1966431220
2619,3,ISIP_8,43,5,42,127,1966467308
2619,3,ISIP_8,44,1,48,56,1967245692
2619,3,ISIP_8,45,5,42,127,1967268164
2619,3,ISIP_8,46,5,42,127,1968067904
2619,3,ISIP_8,47,1,48,57,1968076404
2619,3,ISIP_8,48,1,48,76,1968856896
2619,3,ISIP_8,49,5,42,127,1968867776
2619,3,ISIP_8,50,1,48,63,1969667816
2619,3,ISIP_8,51,5,42,127,1969669236
2619,3,ISIP_8,52,1,48,65,1970457888
2619,3,ISIP_8,53,5,42,127,1970468240
2619,3,ISIP_8,54,1,48,73,1971249244
2619,3,ISIP_8,55,5,42,127,1971267900
2619,3,ISIP_8,56,1,48,68,1972062440
2619,3,ISIP_8,57,1,48,66,1972886336
2619,3,ISIP_8,58,1,48,61,1973706040
2619,3,ISIP_8,59,1,48,63,1974491636
2619,3,ISIP_8,60,1,48,57,1975282016
2619,3,ISIP_8,61,1,48,66,1976073516
2619,3,ISIP_8,62,1,48,63,1976880600
2619,3,ISIP_8,63,1,48,57,1977671876
2619,3,ISIP_8,64,1,48,57,1978460300
2619,3,ISIP_8,65,1,48,60,1979257556
2619,3,ISIP_8,66,1,48,63,1980032900
2619,3,ISIP_8,67,1,48,62,1980823656
2619,3,ISIP_8,68,1,48,62,1981631912
2619,3,ISIP_8,69,1,48,60,1982411820
2619,3,ISIP_8,70,1,48,64,1983203396
2619,3,ISIP_8,71,1,48,59,1983990704
2619,3,ISIP_8,72,1,48,61,1984820680
2619,3,ISIP_8,73,1,48,59,1985609488
2619,3,ISIP_8,74,1,48,60,1986390888
2619,3,ISIP_8,75,1,48,62,1987173716
2619,3,ISIP_8,76,1,48,64,1987971280
2619,3,ISIP_8,77,1,48,66,1988769284
2619,3,ISIP_8,78,1,48,52,1989543804
2619,3,ISIP_8,79,1,48,57,1990352736
2619,3,ISIP_8,80,1,48,56,1991135784
2619,3,ISIP_8,81,1,48,57,1991925120
2619,3,ISIP_8,82,1,48,50,1992707944
2619,3,ISIP_8,83,1,48,56,1993488248
2619,3,ISIP_8,84,1,48,58,1994282520
2619,3,ISIP_8,85,1,48,57,1995052928
2619,3,ISIP_8,86,1,48,62,1995845176
2619,3,ISIP_8,87,1,48,64,1996658744
2619,3,ISIP_8,88,1,48,57,1997453908
2619,3,ISIP_8,89,1,48,50,1998239204
2619,3,ISIP_8,90,1,48,54,1999027184
2619,3,ISIP_8,91,1,48,64,1999798868
2619,3,ISIP_8,92,1,48,57,2000588876
2619,3,ISIP_8,93,1,48,57,2001360628
2619,3,ISIP_8,94,1,48,59,2002145920
2619,3,ISIP_8,95,1,48,67,2002951336
2619,3,ISIP_8,96,1,48,58,2003768592
2619,3,ISIP_8,97,1,48,62,2004525832
2619,3,ISIP_8,98,1,48,54,2005353312
2619,3,ISIP_8,99,1,48,54,2006117592
2619,3,ISIP_8,100,1,48,55,2006887920
2619,3,ISIP_8,101,1,48,55,2007673068
2619,3,ISIP_8,102,1,48,56,2008476688
2619,3,ISIP_8,103,1,48,54,2009260856
2619,3,ISIP_8,104,1,48,55,2010056772
2619,3,ISIP_8,105,1,48,56,2010838624
2619,3,ISIP_8,106,1,48,58,2011610752
2619,3,ISIP_8,107,1,48,56,2012398812
2619,3,ISIP_8,108,1,48,58,2013186044
2619,3,ISIP_8,109,1,48,54,2013965904
2619,3,ISIP_8,110,1,48,57,2014778576
2619,3,ISIP_8,111,1,48,56,2015542176
2619,3,ISIP_8,112,1,48,54,2016318796
2619,3,ISIP_8,113,1,48,55,2017063696
2619,3,ISIP_8,114,1,48,56,2017850936
2619,3,ISIP_8,115,1,48,56,2018610048
2619,3,ISIP_8,116,1,48,57,2019407308
2619,3,ISIP_8,117,1,48,53,2020197692
2619,3,ISIP_8,118,1,48,63,2020990316
2619,3,ISIP_8,119,1,48,57,2021799764
2619,3,ISIP_8,120,1,48,54,2022617896
2619,3,ISIP_8,121,1,48,54,2023382992
2619,3,ISIP_8,122,1,48,55,2024171352
2619,3,ISIP_8,123,1,48,63,2024970660
2619,3,ISIP_8,124,1,48,64,2025762456
2619,3,ISIP_8,125,1,48,66,2026570564
2619,3,ISIP_8,126,1,48,64,2027370668
2619,3,ISIP_8,127,1,48,68,2028155508
2619,3,ISIP_8,128,1,48,63,2028956812
2619,3,ISIP_8,129,1,48,60,2029743896
2619,3,ISIP_8,130,1,48,63,2030552232
2619,3,ISIP_8,131,1,48,57,2031359064
2619,3,ISIP_8,132,1,48,54,2032156272
2619,3,ISIP_8,133,1,48,51,2032980832
2619,3,ISIP_8,134,1,48,56,2033754388
2619,3,ISIP_8,135,1,48,63,2034540052
2619,3,ISIP_8,136,1,48,65,2035321980
2619,3,ISIP_8,137,1,48,66,2036133304
2619,3,ISIP_8,138,1,48,62,2036935124
2619,3,ISIP_8,139,1,48,61,2037731264
2619,3,ISIP_8,140,1,48,58,2038547100
2619,3,ISIP_8,141,1,48,54,2039339352
2619,3,ISIP_8,142,1,48,64,2040125840
2619,3,ISIP_8,143,1,48,63,2040929084
2619,3,ISIP_8,144,1,48,60,2041713480
2619,3,ISIP_8,145,1,48,61,2042499228
2619,3,ISIP_8,146,1,48,50,2043266636
2619,3,ISIP_8,147,1,48,62,2044082972
2619,3,ISIP_8,148,1,48,59,2044864664
2619,3,ISIP_8,149,1,48,61,2045622204
2619,3,ISIP_8,150,1,48,61,2046392836
2619,3,ISIP_8,151,1,48,56,2047178204
2619,3,ISIP_8,152,1,48,63,2047967464
2619,3,ISIP_8,153,1,48,61,2048769808
2619,3,ISIP_8,154,1,48,55,2049567168
2619,3,ISIP_8,155,1,48,59,2050331744
2619,3,ISIP_8,156,1,48,58,2051114272
2619,3,ISIP_8,157,1,48,56,2051899416
2619,3,ISIP_8,158,1,48,62,2052662192
2619,3,ISIP_8,159,1,48,63,2053456912
2619,3,ISIP_8,160,1,48,58,2054223204
2619,3,ISIP_8,161,1,48,60,2055028468
2619,3,ISIP_8,162,1,48,59,2055804336
2619,3,ISIP_8,163,1,48,59,2056614164
2619,3,ISIP_8,164,1,48,58,2057390928
2619,3,ISIP_8,165,1,48,61,2058164704
2619,3,ISIP_8,166,1,48,59,2058892028
2619,3,ISIP_8,167,1,48,59,2059667296
2619,3,ISIP_8,168,1,48,59,2060437708
2619,3,ISIP_8,169,1,48,56,2061228832
2619,3,ISIP_8,170,1,48,60,2061980772
2619,3,ISIP_8,171,1,48,50,2062720808
2619,3,ISIP_8,172,1,48,49,2063520684
2619,3,ISIP_8,173,1,48,61,2064291096
2619,3,ISIP_8,174,1,48,58,2065074964
2619,3,ISIP_8,175,1,48,58,2065847916
2619,3,ISIP_8,176,1,48,61,2066606656
2619,3,ISIP_8,177,1,48,59,2067363080
2619,3,ISIP_8,0,9999,9999,9999,1948065912
2619,3,ISIP_8,1,9999,9999,9999,1948865592
2619,3,ISIP_8,2,9999,9999,9999,1949665348
2619,3,ISIP_8,3,9999,9999,9999,1950465100
2619,3,ISIP_8,4,9999,9999,9999,1951265848
2619,3,ISIP_8,5,9999,9999,9999,1952065584
2619,3,ISIP_8,6,9999,9999,9999,1952865388
2619,3,ISIP_8,7,9999,9999,9999,1953665124
2619,3,ISIP_8,8,9999,9999,9999,1954465900
2619,3,ISIP_8,9,9999,9999,9999,1955265636
2619,3,ISIP_8,10,9999,9999,9999,1956065368
2619,3,ISIP_8,11,9999,9999,9999,1956865100
2619,3,ISIP_8,12,9999,9999,9999,1957665908
2619,3,ISIP_8,13,9999,9999,9999,1958465640
2619,3,ISIP_8,14,9999,9999,9999,1959265376
2619,3,ISIP_8,15,9999,9999,9999,1960065116
2619,3,ISIP_8,16,9999,9999,9999,1960865888
2619,3,ISIP_8,17,9999,9999,9999,1961665620
2619,3,ISIP_8,18,9999,9999,9999,1962465352
2619,3,ISIP_8,19,9999,9999,9999,1963265088
2619,3,ISIP_8,20,9999,9999,9999,1964065892
2619,3,ISIP_8,21,9999,9999,9999,1964865628
2619,3,ISIP_8,22,9999,9999,9999,1965665360
2619,3,ISIP_8,23,9999,9999,9999,1966465092
2619,3,ISIP_8,24,9999,9999,9999,1967265872
2619,3,ISIP_8,25,9999,9999,9999,1968065612
2619,3,ISIP_8,26,9999,9999,9999,1968865340
2619,3,ISIP_8,27,9999,9999,9999,1969665080
2619,3,ISIP_8,28,9999,9999,9999,1970465876
2619,3,ISIP_8,29,9999,9999,9999,1971265612
2619,3,ISIP_8,30,9999,9999,9999,1972065344
2619,3,ISIP_8,31,9999,9999,9999,1972865080
2619,3,ISIP_8,32,9999,9999,9999,1973665856
2619,3,ISIP_8,33,9999,9999,9999,1974465584
2619,3,ISIP_8,34,9999,9999,9999,1975265388
2619,3,ISIP_8,35,9999,9999,9999,1976065120
2619,3,ISIP_8,36,9999,9999,9999,1976865844
2619,3,ISIP_8,37,9999,9999,9999,1977665648
2619,3,ISIP_8,38,9999,9999,9999,1978465372
2619,3,ISIP_8,39,9999,9999,9999,1979265100
2619,3,ISIP_8,40,9999,9999,9999,1980065876
2619,3,ISIP_8,41,9999,9999,9999,1980865604
2619,3,ISIP_8,42,9999,9999,9999,1981665336
2619,3,ISIP_8,43,9999,9999,9999,1982465136
2619,3,ISIP_8,44,9999,9999,9999,1983265864
2619,3,ISIP_8,45,9999,9999,9999,1984065592
2619,3,ISIP_8,46,9999,9999,9999,1984865396
2619,3,ISIP_8,47,9999,9999,9999,1985665124
2619,3,ISIP_8,48,9999,9999,9999,1986465900
2619,3,ISIP_8,49,9999,9999,9999,1987265616
2619,3,ISIP_8,50,9999,9999,9999,1988065360
2619,3,ISIP_8,51,9999,9999,9999,1988865088
2619,3,ISIP_8,52,9999,9999,9999,1989665876
2619,3,ISIP_8,53,9999,9999,9999,1990465604
2619,3,ISIP_8,54,9999,9999,9999,1991265332
2619,3,ISIP_8,55,9999,9999,9999,1992065140
2619,3,ISIP_8,56,9999,9999,9999,1992865840
2619,3,ISIP_8,57,9999,9999,9999,1993665644
2619,3,ISIP_8,58,9999,9999,9999,1994465372
2619,3,ISIP_8,59,9999,9999,9999,1995265104
2619,3,ISIP_8,60,9999,9999,9999,1996065904
2619,3,ISIP_8,61,9999,9999,9999,1996865632
2619,3,ISIP_8,62,9999,9999,9999,1997665360
2619,3,ISIP_8,63,9999,9999,9999,1998465088
2619,3,ISIP_8,64,9999,9999,9999,1999265864
2619,3,ISIP_8,65,9999,9999,9999,2000065596
2619,3,ISIP_8,66,9999,9999,9999,2000865396
2619,3,ISIP_8,67,9999,9999,9999,2001665128
2619,3,ISIP_8,68,9999,9999,9999,2002465852
2619,3,ISIP_8,69,9999,9999,9999,2003265584
2619,3,ISIP_8,70,9999,9999,9999,2004065388
2619,3,ISIP_8,71,9999,9999,9999,2004865116
2619,3,ISIP_8,72,9999,9999,9999,2005665892
2619,3,ISIP_8,73,9999,9999,9999,2006465620
2619,3,ISIP_8,74,9999,9999,9999,2007265348
2619,3,ISIP_8,75,9999,9999,9999,2008065080
2619,3,ISIP_8,76,9999,9999,9999,2008865880
2619,3,ISIP_8,77,9999,9999,9999,2009665612
2619,3,ISIP_8,78,9999,9999,9999,2010465340
2619,3,ISIP_8,79,9999,9999,9999,2011265144
2619,3,ISIP_8,80,9999,9999,9999,2012065844
2619,3,ISIP_8,81,9999,9999,9999,2012865644
2619,3,ISIP_8,82,9999,9999,9999,2013665376
2619,3,ISIP_8,83,9999,9999,9999,2014465104
2619,3,ISIP_8,84,9999,9999,9999,2015265904
2619,3,ISIP_8,85,9999,9999,9999,2016065636
2619,3,ISIP_8,86,9999,9999,9999,2016865364
2619,3,ISIP_8,87,9999,9999,9999,2017665096
2619,3,ISIP_8,88,9999,9999,9999,2018465872
2619,3,ISIP_8,89,9999,9999,9999,2019265600
2619,3,ISIP_8,90,9999,9999,9999,2020065332
2619,3,ISIP_8,91,9999,9999,9999,2020865136
2619,3,ISIP_8,92,9999,9999,9999,2021665860
2619,3,ISIP_8,93,9999,9999,9999,2022465588
2619,3,ISIP_8,94,9999,9999,9999,2023265392
2619,3,ISIP_8,95,9999,9999,9999,2024065124
2619,3,ISIP_8,96,9999,9999,9999,2024865896
2619,3,ISIP_8,97,9999,9999,9999,2025665628
2619,3,ISIP_8,98,9999,9999,9999,2026465356
2619,3,ISIP_8,99,9999,9999,9999,2027265084
2619,3,ISIP_8,100,9999,9999,9999,2028065884
2619,3,ISIP_8,101,9999,9999,9999,2028865612
2619,3,ISIP_8,102,9999,9999,9999,2029665344
2619,3,ISIP_8,103,9999,9999,9999,2030465072
2619,3,ISIP_8,104,9999,9999,9999,2031265848
2619,3,ISIP_8,105,9999,9999,9999,2032065652
2619,3,ISIP_8,106,9999,9999,9999,2032865380
2619,3,ISIP_8,107,9999,9999,9999,2033665108
2619,3,ISIP_8,108,9999,9999,9999,2034465908
2619,3,ISIP_8,109,9999,9999,9999,2035265636
2619,3,ISIP_8,110,9999,9999,9999,2036065368
2619,3,ISIP_8,111,9999,9999,9999,2036865096
2619,3,ISIP_8,112,9999,9999,9999,2037665872
2619,3,ISIP_8,113,9999,9999,9999,2038465600
2619,3,ISIP_8,114,9999,9999,9999,2039265332
2619,3,ISIP_8,115,9999,9999,9999,2040065136
2619,3,ISIP_8,116,9999,9999,9999,2040865860
2619,3,ISIP_8,117,9999,9999,9999,2041665592
2619,3,ISIP_8,118,9999,9999,9999,2042465396
2619,3,ISIP_8,119,9999,9999,9999,2043265124
2619,3,ISIP_8,120,9999,9999,9999,2044065900
2619,3,ISIP_8,121,9999,9999,9999,2044865624
2619,3,ISIP_8,122,9999,9999,9999,2045665352
2619,3,ISIP_8,123,9999,9999,9999,2046465080
2619,3,ISIP_8,124,9999,9999,9999,2047265880
2619,3,ISIP_8,125,9999,9999,9999,2048065596
2619,3,ISIP_8,126,9999,9999,9999,2048865340
2619,3,ISIP_8,127,9999,9999,9999,2049665128
2619,3,ISIP_8,128,9999,9999,9999,2050465900
2619,3,ISIP_8,129,9999,9999,9999,2051265632
2619,3,ISIP_8,130,9999,9999,9999,2052065364
2619,3,ISIP_8,131,9999,9999,9999,2052865092
2619,3,ISIP_8,132,9999,9999,9999,2053665892
2619,3,ISIP_8,133,9999,9999,9999,2054465620
2619,3,ISIP_8,134,9999,9999,9999,2055265352
2619,3,ISIP_8,135,9999,9999,9999,2056065080
2619,3,ISIP_8,136,9999,9999,9999,2056865856
2619,3,ISIP_8,137,9999,9999,9999,2057665584
2619,3,ISIP_8,138,9999,9999,9999,2058465388
2619,3,ISIP_8,139,9999,9999,9999,2059265120
2619,3,ISIP_8,140,9999,9999,9999,2060065844
2619,3,ISIP_8,141,9999,9999,9999,2060865648
2619,3,ISIP_8,142,9999,9999,9999,2061665376
2619,3,ISIP_8,143,9999,9999,9999,2062465104
2619,3,ISIP_8,144,9999,9999,9999,2063265880
2619,3,ISIP_8,145,9999,9999,9999,2064065612
2619,3,ISIP_8,146,9999,9999,9999,2064865340
2619,3,ISIP_8,147,9999,9999,9999,2065665068
2619,3,ISIP_8,148,9999,9999,9999,2066465868
2619,3,ISIP_8,149,9999,9999,9999,2067265600
2620,5,ISIP_5,0,5,42,127,2093252992
2620,5,ISIP_5,1,5,42,127,2093752632
2620,5,ISIP_5,2,5,42,127,2094253324
2620,5,ISIP_5,3,5,42,127,2094753336
2620,5,ISIP_5,4,5,42,127,2095252756
2620,5,ISIP_5,5,5,42,127,2095752548
2620,5,ISIP_5,6,5,42,127,2096253236
2620,5,ISIP_5,7,5,42,127,2096753104
2620,5,ISIP_5,8,5,42,127,2097252596
2620,5,ISIP_5,9,5,42,127,2097752388
2620,5,ISIP_5,10,5,42,127,2098253300
2620,5,ISIP_5,11,5,42,127,2098753016
2620,5,ISIP_5,12,5,42,127,2099252584
2620,5,ISIP_5,13,1,48,78,2099290336
2620,5,ISIP_5,14,5,42,127,2099753252
2620,5,ISIP_5,15,1,48,69,2099798108
2620,5,ISIP_5,16,5,42,127,2100252948
2620,5,ISIP_5,17,1,48,68,2100273940
2620,5,ISIP_5,18,1,48,67,2100753012
2620,5,ISIP_5,19,5,42,127,2100754580
2620,5,ISIP_5,20,5,42,127,2101252412
2620,5,ISIP_5,21,1,48,67,2101253600
2620,5,ISIP_5,22,1,48,71,2101741568
2620,5,ISIP_5,23,5,42,127,2101753124
2620,5,ISIP_5,24,1,48,73,2102242536
2620,5,ISIP_5,25,5,42,127,2102253188
2620,5,ISIP_5,26,5,42,127,2102752740
2620,5,ISIP_5,27,1,48,75,2102787452
2620,5,ISIP_5,28,5,42,127,2103253408
2620,5,ISIP_5,29,1,48,67,2103266628
2620,5,ISIP_5,30,5,42,127,2103752956
2620,5,ISIP_5,31,1,48,75,2103764448
2620,5,ISIP_5,32,5,42,127,2104252948
2620,5,ISIP_5,33,1,48,62,2104269008
2620,5,ISIP_5,34,1,48,58,2104743772
2620,5,ISIP_5,35,5,42,127,2104752412
2620,5,ISIP_5,36,1,48,68,2105240928
2620,5,ISIP_5,37,5,42,127,2105253080
2620,5,ISIP_5,38,5,42,127,2105752932
2620,5,ISIP_5,39,1,48,65,2105756800
2620,5,ISIP_5,40,1,48,66,2106243832
2620,5,ISIP_5,41,5,42,127,2106252620
2620,5,ISIP_5,42,1,48,64,2106732528
2620,5,ISIP_5,43,5,42,127,2106753284
2620,5,ISIP_5,44,1,48,67,2107250252
2620,5,ISIP_5,45,5,42,127,2107252980
2620,5,ISIP_5,46,5,42,127,2107752756
2620,5,ISIP_5,47,1,48,67,2107759692
2620,5,ISIP_5,48,5,42,127,2108252748
2620,5,ISIP_5,49,1,48,67,2108256164
2620,5,ISIP_5,50,1,48,65,2108739536
2620,5,ISIP_5,51,5,42,127,2108753184
2620,5,ISIP_5,52,1,48,60,2109240128
2620,5,ISIP_5,53,5,42,127,2109252880
2620,5,ISIP_5,54,5,42,127,2109752656
2620,5,ISIP_5,55,1,48,69,2109793848
2620,5,ISIP_5,56,5,42,127,2110253696
2620,5,ISIP_5,57,1,48,64,2110319344
2620,5,ISIP_5,58,5,42,127,2110753016
2620,5,ISIP_5,59,1,48,60,2110786952
2620,5,ISIP_5,60,5,42,127,2111252860
2620,5,ISIP_5,61,1,48,61,2111271392
2620,5,ISIP_5,62,5,42,127,2111752708
2620,5,ISIP_5,63,1,48,51,2111783280
2620,5,ISIP_5,64,5,42,127,2112253500
2620,5,ISIP_5,65,1,48,59,2112286188
2620,5,ISIP_5,66,5,42,127,2112753044
2620,5,ISIP_5,67,1,48,66,2112793812
2620,5,ISIP_5,68,1,48,65,2113301208
2620,5,ISIP_5,69,1,48,64,2113854152
2620,5,ISIP_5,70,1,48,62,2114337164
2620,5,ISIP_5,71,1,48,71,2114836404
2620,5,ISIP_5,72,1,48,73,2115348212
2620,5,ISIP_5,73,1,48,66,2115858604
2620,5,ISIP_5,74,1,48,70,2116378936
2620,5,ISIP_5,75,1,48,66,2116885508
2620,5,ISIP_5,76,1,48,69,2117402620
2620,5,ISIP_5,77,1,48,67,2117936276
2620,5,ISIP_5,78,1,48,66,2118428184
2620,5,ISIP_5,79,1,48,57,2118933184
2620,5,ISIP_5,80,1,48,63,2119461300
2620,5,ISIP_5,81,1,48,60,2119968320
2620,5,ISIP_5,82,1,48,59,2120477432
2620,5,ISIP_5,83,1,48,60,2120977500
2620,5,ISIP_5,84,1,48,57,2121415760
2620,5,ISIP_5,85,1,48,57,2121979324
2620,5,ISIP_5,86,1,48,55,2122506040
2620,5,ISIP_5,87,1,48,60,2123028392
2620,5,ISIP_5,88,1,48,58,2123542372
2620,5,ISIP_5,89,1,48,61,2124056568
2620,5,ISIP_5,90,1,48,59,2124579004
2620,5,ISIP_5,91,1,48,55,2125099936
2620,5,ISIP_5,92,1,48,53,2125604188
2620,5,ISIP_5,93,1,48,62,2126107168
2620,5,ISIP_5,94,1,48,59,2126634760
2620,5,ISIP_5,95,1,48,57,2127121512
2620,5,ISIP_5,96,1,48,57,2127638708
2620,5,ISIP_5,97,1,48,58,2128129128
2620,5,ISIP_5,98,1,48,60,2128648856
2620,5,ISIP_5,99,1,48,63,2129131096
2620,5,ISIP_5,100,1,48,56,2129664176
2620,5,ISIP_5,101,1,48,61,2130185176
2620,5,ISIP_5,102,1,48,61,2130713748
2620,5,ISIP_5,103,1,48,59,2131277620
2620,5,ISIP_5,104,1,48,59,2131820100
2620,5,ISIP_5,105,1,48,57,2132315676
2620,5,ISIP_5,106,1,48,63,2132819332
2620,5,ISIP_5,107,1,48,56,2133346324
2620,5,ISIP_5,108,1,48,57,2133870472
2620,5,ISIP_5,109,1,48,60,2134402700
2620,5,ISIP_5,110,1,48,61,2134961704
2620,5,ISIP_5,111,1,48,57,2135499168
2620,5,ISIP_5,112,1,48,54,2136025932
2620,5,ISIP_5,113,1,48,55,2136533852
2620,5,ISIP_5,114,1,48,59,2137050376
2620,5,ISIP_5,115,1,48,57,2137558740
2620,5,ISIP_5,116,1,48,59,2138089096
2620,5,ISIP_5,117,1,48,60,2138610404
2620,5,ISIP_5,118,1,48,52,2139138840
2620,5,ISIP_5,119,1,48,56,2139642996
2620,5,ISIP_5,120,1,48,57,2140162608
2620,5,ISIP_5,121,1,48,57,2140690944
2620,5,ISIP_5,122,1,48,57,2141237980
2620,5,ISIP_5,123,1,48,51,2141737372
2620,5,ISIP_5,124,1,48,49,2142234744
2620,5,ISIP_5,125,1,48,53,2142740572
2620,5,ISIP_5,126,1,48,54,2143224452
2620,5,ISIP_5,127,1,48,56,2143775792
2620,5,ISIP_5,128,1,48,54,2144325296
2620,5,ISIP_5,129,1,48,55,2144813840
2620,5,ISIP_5,130,1,48,55,2145345096
2620,5,ISIP_5,131,1,48,56,2145874704
2620,5,ISIP_5,132,1,48,56,2146371636
2620,5,ISIP_5,133,1,48,50,2146916424
2620,5,ISIP_5,134,1,48,53,2147438928
2620,5,ISIP_5,135,1,48,52,2147996812
2620,5,ISIP_5,136,1,48,52,2148515948
2620,5,ISIP_5,137,1,48,60,2149061716
2620,5,ISIP_5,138,1,48,56,2149602092
2620,5,ISIP_5,139,1,48,59,2150158880
2620,5,ISIP_5,140,1,48,53,2150670764
2620,5,ISIP_5,141,1,48,51,2151202916
2620,5,ISIP_5,142,1,48,57,2151742248
2620,5,ISIP_5,143,1,48,54,2152316820
2620,5,ISIP_5,144,1,48,55,2152835660
2620,5,ISIP_5,145,1,48,52,2153374100
2620,5,ISIP_5,146,1,48,52,2153894960
2620,5,ISIP_5,147,1,48,54,2154407660
2620,5,ISIP_5,148,1,48,54,2154955596
2620,5,ISIP_5,149,1,48,51,2155499720
2620,5,ISIP_5,150,1,48,51,2155999784
2620,5,ISIP_5,151,1,48,52,2156558136
2620,5,ISIP_5,152,1,48,48,2157099344
2620,5,ISIP_5,153,1,48,51,2157635832
2620,5,ISIP_5,154,1,48,62,2158172252
2620,5,ISIP_5,155,1,48,57,2158685404
2620,5,ISIP_5,156,1,48,68,2159235508
2620,5,ISIP_5,157,1,48,59,2159792656
2620,5,ISIP_5,158,1,48,56,2160283672
2620,5,ISIP_5,159,1,48,60,2160822556
2620,5,ISIP_5,160,1,48,57,2161309528
2620,5,ISIP_5,161,1,48,56,2161806456
2620,5,ISIP_5,162,1,48,58,2162359404
2620,5,ISIP_5,163,1,48,58,2162902992
2620,5,ISIP_5,164,1,48,65,2163428340
2620,5,ISIP_5,165,1,48,58,2163951220
2620,5,ISIP_5,166,1,48,63,2164451508
2620,5,ISIP_5,167,1,48,61,2164981116
2620,5,ISIP_5,168,1,48,60,2165456716
2620,5,ISIP_5,169,1,48,52,2165990968
2620,5,ISIP_5,170,1,48,54,2166530328
2620,5,ISIP_5,171,1,48,58,2167039736
2620,5,ISIP_5,172,1,48,54,2167584532
2620,5,ISIP_5,173,1,48,57,2168111604
2620,5,ISIP_5,174,1,48,58,2168637316
2620,5,ISIP_5,175,1,48,55,2169175680
2620,5,ISIP_5,176,1,48,56,2169664152
2620,5,ISIP_5,177,1,48,54,2170191444
2620,5,ISIP_5,178,1,48,59,2170725544
2620,5,ISIP_5,179,1,48,53,2171255992
2620,5,ISIP_5,180,1,48,64,2171767124
2620,5,ISIP_5,181,1,48,56,2172290156
2620,5,ISIP_5,182,1,48,59,2172798964
2620,5,ISIP_5,0,9999,9999,9999,2093250632
2620,5,ISIP_5,1,9999,9999,9999,2093750348
2620,5,ISIP_5,2,9999,9999,9999,2094251112
2620,5,ISIP_5,3,9999,9999,9999,2094750828
2620,5,ISIP_5,4,9999,9999,9999,2095250544
2620,5,ISIP_5,5,9999,9999,9999,2095750260
2620,5,ISIP_5,6,9999,9999,9999,2096250952
2620,5,ISIP_5,7,9999,9999,9999,2096750668
2620,5,ISIP_5,8,9999,9999,9999,2097250384
2620,5,ISIP_5,9,9999,9999,9999,2097750100
2620,5,ISIP_5,10,9999,9999,9999,2098250864
2620,5,ISIP_5,11,9999,9999,9999,2098750580
2620,5,ISIP_5,12,9999,9999,9999,2099250296
2620,5,ISIP_5,13,9999,9999,9999,2099750964
2620,5,ISIP_5,14,9999,9999,9999,2100250736
2620,5,ISIP_5,15,9999,9999,9999,2100750428
2620,5,ISIP_5,16,9999,9999,9999,2101250124
2620,5,ISIP_5,17,9999,9999,9999,2101750836
2620,5,ISIP_5,18,9999,9999,9999,2102250604
2620,5,ISIP_5,19,9999,9999,9999,2102750308
2620,5,ISIP_5,20,9999,9999,9999,2103251048
2620,5,ISIP_5,21,9999,9999,9999,2103750744
2620,5,ISIP_5,22,9999,9999,9999,2104250436
2620,5,ISIP_5,23,9999,9999,9999,2104750200
2620,5,ISIP_5,24,9999,9999,9999,2105250868
2620,5,ISIP_5,25,9999,9999,9999,2105750644
2620,5,ISIP_5,26,9999,9999,9999,2106250332
2620,5,ISIP_5,27,9999,9999,9999,2106751072
2620,5,ISIP_5,28,9999,9999,9999,2107250768
2620,5,ISIP_5,29,9999,9999,9999,2107750468
2620,5,ISIP_5,30,9999,9999,9999,2108250164
2620,5,ISIP_5,31,9999,9999,9999,2108750900
2620,5,ISIP_5,32,9999,9999,9999,2109250668
2620,5,ISIP_5,33,9999,9999,9999,2109750368
2620,5,ISIP_5,34,9999,9999,9999,2110251112
2620,5,ISIP_5,35,9999,9999,9999,2110750804
2620,5,ISIP_5,36,9999,9999,9999,2111250500
2620,5,ISIP_5,37,9999,9999,9999,2111750196
2620,5,ISIP_5,38,9999,9999,9999,2112250988
2620,5,ISIP_5,39,9999,9999,9999,2112750684
2620,5,ISIP_5,40,9999,9999,9999,2113250380
2620,5,ISIP_5,41,9999,9999,9999,2113750072
2620,5,ISIP_5,42,9999,9999,9999,2114250808
2620,5,ISIP_5,43,9999,9999,9999,2114750572
2620,5,ISIP_5,44,9999,9999,9999,2115250264
2620,5,ISIP_5,45,9999,9999,9999,2115751000
2620,5,ISIP_5,46,9999,9999,9999,2116250692
2620,5,ISIP_5,47,9999,9999,9999,2116750456
2620,5,ISIP_5,48,9999,9999,9999,2117250148
2620,5,ISIP_5,49,9999,9999,9999,2117750884
2620,5,ISIP_5,50,9999,9999,9999,2118250572
2620,5,ISIP_5,51,9999,9999,9999,2118750264
2620,5,ISIP_5,52,9999,9999,9999,2119251000
2620,5,ISIP_5,53,9999,9999,9999,2119750768
2620,5,ISIP_5,54,9999,9999,9999,2120250460
2620,5,ISIP_5,55,9999,9999,9999,2120750148
2620,5,ISIP_5,56,9999,9999,9999,2121250888
2620,5,ISIP_5,57,9999,9999,9999,2121750576
2620,5,ISIP_5,58,9999,9999,9999,2122250340
2620,5,ISIP_5,59,9999,9999,9999,2122751080
2620,5,ISIP_5,60,9999,9999,9999,2123250744
2620,5,ISIP_5,61,9999,9999,9999,2123750512
2620,5,ISIP_5,62,9999,9999,9999,2124250200
2620,5,ISIP_5,63,9999,9999,9999,2124750940
2620,5,ISIP_5,64,9999,9999,9999,2125250628
2620,5,ISIP_5,65,9999,9999,9999,2125750320
2620,5,ISIP_5,66,9999,9999,9999,2126251056
2620,5,ISIP_5,67,9999,9999,9999,2126750824
2620,5,ISIP_5,68,9999,9999,9999,2127250512
2620,5,ISIP_5,69,9999,9999,9999,2127750204
2620,5,ISIP_5,70,9999,9999,9999,2128250944
2620,5,ISIP_5,71,9999,9999,9999,2128750708
2620,5,ISIP_5,72,9999,9999,9999,2129250400
2620,5,ISIP_5,73,9999,9999,9999,2129750108
2620,5,ISIP_5,74,9999,9999,9999,2130250844
2620,5,ISIP_5,75,9999,9999,9999,2130750536
2620,5,ISIP_5,76,9999,9999,9999,2131250232
2620,5,ISIP_5,77,9999,9999,9999,2131750972
2620,5,ISIP_5,78,9999,9999,9999,2132250736
2620,5,ISIP_5,79,9999,9999,9999,2132750428
2620,5,ISIP_5,80,9999,9999,9999,2133250116
2620,5,ISIP_5,81,9999,9999,9999,2133750904
2620,5,ISIP_5,82,9999,9999,9999,2134250596
2620,5,ISIP_5,83,9999,9999,9999,2134750284
2620,5,ISIP_5,84,9999,9999,9999,2135251020
2620,5,ISIP_5,85,9999,9999,9999,2135750712
2620,5,ISIP_5,86,9999,9999,9999,2136250480
2620,5,ISIP_5,87,9999,9999,9999,2136750168
2620,5,ISIP_5,88,9999,9999,9999,2137250908
2620,5,ISIP_5,89,9999,9999,9999,2137750600
2620,5,ISIP_5,90,9999,9999,9999,2138250288
2620,5,ISIP_5,91,9999,9999,9999,2138751024
2620,5,ISIP_5,92,9999,9999,9999,2139250792
2620,5,ISIP_5,93,9999,9999,9999,2139750480
2620,5,ISIP_5,94,9999,9999,9999,2140250188
2620,5,ISIP_5,95,9999,9999,9999,2140750924
2620,5,ISIP_5,96,9999,9999,9999,2141250616
2620,5,ISIP_5,97,9999,9999,9999,2141750380
2620,5,ISIP_5,98,9999,9999,9999,2142251116
2620,5,ISIP_5,99,9999,9999,9999,2142750808
2620,5,ISIP_5,100,9999,9999,9999,2143250500
2620,5,ISIP_5,101,9999,9999,9999,2143750196
2620,5,ISIP_5,102,9999,9999,9999,2144250984
2620,5,ISIP_5,103,9999,9999,9999,2144750672
2620,5,ISIP_5,104,9999,9999,9999,2145250364
2620,5,ISIP_5,105,9999,9999,9999,2145750128
2620,5,ISIP_5,106,9999,9999,9999,2146250868
2620,5,ISIP_5,107,9999,9999,9999,2146750556
2620,5,ISIP_5,108,9999,9999,9999,2147250248
2620,5,ISIP_5,109,9999,9999,9999,2147750984
2620,5,ISIP_5,110,9999,9999,9999,2148250676
2620,5,ISIP_5,111,9999,9999,9999,2148750440
2620,5,ISIP_5,112,9999,9999,9999,2149250132
2620,5,ISIP_5,113,9999,9999,9999,2149750868
2620,5,ISIP_5,114,9999,9999,9999,2150250592
2620,5,ISIP_5,115,9999,9999,9999,2150750264
2620,5,ISIP_5,116,9999,9999,9999,2151251000
2620,5,ISIP_5,117,9999,9999,9999,2151750768
2620,5,ISIP_5,118,9999,9999,9999,2152250464
2620,5,ISIP_5,119,9999,9999,9999,2152750156
2620,5,ISIP_5,120,9999,9999,9999,2153250892
2620,5,ISIP_5,121,9999,9999,9999,2153750584
2620,5,ISIP_5,122,9999,9999,9999,2154250348
2620,5,ISIP_5,123,9999,9999,9999,2154751084
2620,5,ISIP_5,124,9999,9999,9999,2155250748
2620,5,ISIP_5,125,9999,9999,9999,2155750516
2620,5,ISIP_5,126,9999,9999,9999,2156250204
2620,5,ISIP_5,127,9999,9999,9999,2156750940
2620,5,ISIP_5,128,9999,9999,9999,2157250632
2620,5,ISIP_5,129,9999,9999,9999,2157750328
2620,5,ISIP_5,130,9999,9999,9999,2158251080
2620,5,ISIP_5,131,9999,9999,9999,2158750768
2620,5,ISIP_5,132,9999,9999,9999,2159250532
2620,5,ISIP_5,133,9999,9999,9999,2159750232
2620,5,ISIP_5,134,9999,9999,9999,2160250968
2620,5,ISIP_5,135,9999,9999,9999,2160750660
2620,5,ISIP_5,136,9999,9999,9999,2161250424
2620,5,ISIP_5,137,9999,9999,9999,2161750116
2620,5,ISIP_5,138,9999,9999,9999,2162250852
2620,5,ISIP_5,139,9999,9999,9999,2162750544
2620,5,ISIP_5,140,9999,9999,9999,2163250232
2620,5,ISIP_5,141,9999,9999,9999,2163750968
2620,5,ISIP_5,142,9999,9999,9999,2164250736
2620,5,ISIP_5,143,9999,9999,9999,2164750424
2620,5,ISIP_5,144,9999,9999,9999,2165250116
2620,5,ISIP_5,145,9999,9999,9999,2165750900
2620,5,ISIP_5,146,9999,9999,9999,2166250592
2620,5,ISIP_5,147,9999,9999,9999,2166750284
2620,5,ISIP_5,148,9999,9999,9999,2167251020
2620,5,ISIP_5,149,9999,9999,9999,2167750712
2620,5,ISIP_5,150,9999,9999,9999,2168250476
2620,5,ISIP_5,151,9999,9999,9999,2168750168
2620,5,ISIP_5,152,9999,9999,9999,2169250920
2620,5,ISIP_5,153,9999,9999,9999,2169750612
2620,5,ISIP_5,154,9999,9999,9999,2170250304
2620,5,ISIP_5,155,9999,9999,9999,2170751040
2620,5,ISIP_5,156,9999,9999,9999,2171250736
2620,5,ISIP_5,157,9999,9999,9999,2171750504
2620,5,ISIP_5,158,9999,9999,9999,2172250196
2620,5,ISIP_5,159,9999,9999,9999,2172750932
2621,11,Pattern_Practice,0,5,42,127,2275231008
2621,11,Pattern_Practice,1,5,42,127,2275731020
2621,11,Pattern_Practice,2,5,42,127,2276230440
2621,11,Pattern_Practice,3,5,42,127,2276731128
2621,11,Pattern_Practice,4,5,42,127,2277231144
2621,11,Pattern_Practice,5,5,42,127,2277730636
2621,11,Pattern_Practice,6,5,42,127,2278231400
2621,11,Pattern_Practice,7,5,42,127,2278731120
2621,11,Pattern_Practice,8,5,42,127,2279230760
2621,11,Pattern_Practice,9,1,48,64,2279249136
2621,11,Pattern_Practice,10,5,42,127,2279730456
2621,11,Pattern_Practice,11,5,42,127,2280231220
2621,11,Pattern_Practice,12,5,42,127,2280731084
2621,11,Pattern_Practice,13,5,42,127,2281230652
2621,11,Pattern_Practice,14,5,42,127,2281730516
2621,11,Pattern_Practice,15,5,42,127,2282231276
2621,11,Pattern_Practice,16,5,42,127,2282730748
2621,11,Pattern_Practice,17,5,42,127,2283230760
2621,11,Pattern_Practice,18,5,42,127,2283731376
2621,11,Pattern_Practice,19,5,42,127,2284231020
2621,11,Pattern_Practice,20,5,42,127,2284730660
2621,11,Pattern_Practice,21,5,42,127,2285230376
2621,11,Pattern_Practice,22,5,42,127,2285731140
2621,11,Pattern_Practice,23,5,42,127,2286230856
2621,11,Pattern_Practice,24,5,42,127,2286730796
2621,11,Pattern_Practice,25,5,42,127,2287231560
2621,11,Pattern_Practice,26,5,42,127,2287731128
2621,11,Pattern_Practice,27,5,42,127,2288230696
2621,11,Pattern_Practice,28,5,42,127,2288730560
2621,11,Pattern_Practice,29,5,42,127,2289231176
2621,11,Pattern_Practice,30,1,38,49,2289241476
2621,11,Pattern_Practice,31,1,38,46,2289706148
2621,11,Pattern_Practice,32,5,42,127,2289730792
2621,11,Pattern_Practice,33,1,38,50,2290222372
2621,11,Pattern_Practice,34,5,42,127,2290230632
2621,11,Pattern_Practice,35,1,38,46,2290728496
2621,11,Pattern_Practice,36,5,42,127,2290731452
2621,11,Pattern_Practice,37,1,38,59,2291226396
2621,11,Pattern_Practice,38,5,42,127,2291231144
2621,11,Pattern_Practice,39,5,42,127,2291730700
2621,11,Pattern_Practice,40,1,38,46,2291740848
2621,11,Pattern_Practice,41,1,38,46,2292211428
2621,11,Pattern_Practice,42,5,42,127,2292230388
2621,11,Pattern_Practice,43,1,38,41,2292702348
2621,11,Pattern_Practice,44,5,42,127,2292731352
2621,11,Pattern_Practice,45,1,48,46,2292954956
2621,11,Pattern_Practice,46,1,38,42,2293201348
2621,11,Pattern_Practice,47,5,42,127,2293230928
2621,11,Pattern_Practice,48,1,38,46,2293727892
2621,11,Pattern_Practice,49,5,42,127,2293730620
2621,11,Pattern_Practice,50,5,42,127,2294231368
2621,11,Pattern_Practice,51,1,38,50,2294238380
2621,11,Pattern_Practice,52,1,38,47,2294703500
2621,11,Pattern_Practice,53,5,42,127,2294731356
2621,11,Pattern_Practice,54,1,48,51,2294931580
2621,11,Pattern_Practice,55,1,38,48,2295196212
2621,11,Pattern_Practice,56,5,42,127,2295230880
2621,11,Pattern_Practice,57,1,38,48,2295721640
2621,11,Pattern_Practice,58,5,42,127,2295730424
2621,11,Pattern_Practice,59,1,38,48,2296224400
2621,11,Pattern_Practice,60,5,42,127,2296231392
2621,11,Pattern_Practice,61,1,38,49,2296695076
2621,11,Pattern_Practice,62,5,42,127,2296731084
2621,11,Pattern_Practice,63,1,48,44,2296952548
2621,11,Pattern_Practice,64,1,38,49,2297219284
2621,11,Pattern_Practice,65,5,42,127,2297230684
2621,11,Pattern_Practice,66,1,38,47,2297722116
2621,11,Pattern_Practice,67,5,42,127,2297730304
2621,11,Pattern_Practice,68,1,38,48,2298213056
2621,11,Pattern_Practice,69,5,42,127,2298231268
2621,11,Pattern_Practice,70,1,38,49,2298710140
2621,11,Pattern_Practice,71,5,42,127,2298730964
2621,11,Pattern_Practice,72,1,48,36,2298992820
2621,11,Pattern_Practice,73,1,48,25,2299122748
2621,11,Pattern_Practice,74,5,42,127,2299230620
2621,11,Pattern_Practice,75,1,38,50,2299253484
2621,11,Pattern_Practice,76,5,42,127,2299731288
2621,11,Pattern_Practice,77,1,38,46,2299749288
2621,11,Pattern_Practice,78,1,38,52,2300202372
2621,11,Pattern_Practice,79,5,42,127,2300231052
2621,11,Pattern_Practice,80,1,38,55,2300671324
2621,11,Pattern_Practice,81,5,42,127,2300730972
2621,11,Pattern_Practice,82,1,48,34,2300909780
2621,11,Pattern_Practice,83,1,48,24,2301071044
2621,11,Pattern_Practice,84,1,38,48,2301196332
2621,11,Pattern_Practice,85,5,42,127,2301230400
2621,11,Pattern_Practice,86,5,42,127,2301731152
2621,11,Pattern_Practice,87,1,38,49,2301751772
2621,11,Pattern_Practice,88,5,42,127,2302231140
2621,11,Pattern_Practice,89,1,38,49,2302256180
2621,11,Pattern_Practice,90,1,38,50,2302724364
2621,11,Pattern_Practice,91,5,42,127,2302730460
2621,11,Pattern_Practice,92,1,48,33,2302966724
2621,11,Pattern_Practice,93,1,38,49,2303215480
2621,11,Pattern_Practice,94,5,42,127,2303231252
2621,11,Pattern_Practice,95,1,38,52,2303710616
2621,11,Pattern_Practice,96,5,42,127,2303731168
2621,11,Pattern_Practice,97,1,38,48,2304219364
2621,11,Pattern_Practice,98,5,42,127,2304230916
2621,11,Pattern_Practice,99,1,38,49,2304705140
2621,11,Pattern_Practice,100,5,42,127,2304730460
2621,11,Pattern_Practice,101,1,48,35,2304998896
2621,11,Pattern_Practice,102,1,48,25,2305123736
2621,11,Pattern_Practice,103,1,38,41,2305225888
2621,11,Pattern_Practice,104,5,42,127,2305231160
2621,11,Pattern_Practice,105,5,42,127,2305730860
2621,11,Pattern_Practice,106,1,38,48,2305733904
2621,11,Pattern_Practice,107,5,42,127,2306230628
2621,11,Pattern_Practice,108,1,38,53,2306243772
2621,11,Pattern_Practice,109,1,38,54,2306696772
2621,11,Pattern_Practice,110,5,42,127,2306731440
2621,11,Pattern_Practice,111,1,48,40,2306965916
2621,11,Pattern_Practice,112,1,38,42,2307208860
2621,11,Pattern_Practice,113,5,42,127,2307230964
2621,11,Pattern_Practice,114,5,42,127,2307730812
2621,11,Pattern_Practice,115,1,38,54,2307732828
2621,11,Pattern_Practice,116,1,38,51,2308220816
2621,11,Pattern_Practice,117,5,42,127,2308230876
2621,11,Pattern_Practice,118,1,38,51,2308710492
2621,11,Pattern_Practice,119,5,42,127,2308731096
2621,11,Pattern_Practice,120,1,48,30,2308967744
2621,11,Pattern_Practice,121,1,38,46,2309202832
2621,11,Pattern_Practice,122,5,42,127,2309230844
2621,11,Pattern_Practice,123,1,38,48,2309690716
2621,11,Pattern_Practice,124,5,42,127,2309730540
2621,11,Pattern_Practice,125,1,38,45,2310198560
2621,11,Pattern_Practice,126,5,42,127,2310231580
2621,11,Pattern_Practice,127,1,38,47,2310687036
2621,11,Pattern_Practice,128,5,42,127,2310731200
2621,11,Pattern_Practice,129,1,48,45,2310990888
2621,11,Pattern_Practice,130,1,48,34,2311099472
2621,11,Pattern_Practice,131,5,42,127,2311230708
2621,11,Pattern_Practice,132,1,38,48,2311247064
2621,11,Pattern_Practice,133,1,38,45,2311717492
2621,11,Pattern_Practice,134,5,42,127,2311730696
2621,11,Pattern_Practice,135,1,38,46,2312224220
2621,11,Pattern_Practice,136,5,42,127,2312231360
2621,11,Pattern_Practice,137,1,38,48,2312712324
2621,11,Pattern_Practice,138,5,42,127,2312730908
2621,11,Pattern_Practice,139,1,48,42,2313020960
2621,11,Pattern_Practice,140,1,48,17,2313164176
2621,11,Pattern_Practice,141,5,42,127,2313230656
2621,11,Pattern_Practice,142,1,38,43,2313254116
2621,11,Pattern_Practice,143,1,38,49,2313719960
2621,11,Pattern_Practice,144,5,42,127,2313730388
2621,11,Pattern_Practice,145,1,38,49,2314197408
2621,11,Pattern_Practice,146,5,42,127,2314231204
2621,11,Pattern_Practice,147,1,38,46,2314693668
2621,11,Pattern_Practice,148,5,42,127,2314730800
2621,11,Pattern_Practice,149,1,48,39,2314971032
2621,11,Pattern_Practice,150,1,38,51,2315205680
2621,11,Pattern_Practice,0,9999,9999,9999,2275228796
2621,11,Pattern_Practice,1,9999,9999,9999,2275728436
2621,11,Pattern_Practice,2,9999,9999,9999,2276228152
2621,11,Pattern_Practice,3,9999,9999,9999,2276728916
2621,11,Pattern_Practice,4,9999,9999,9999,2277228632
2621,11,Pattern_Practice,5,9999,9999,9999,2277728348
2621,11,Pattern_Practice,6,9999,9999,9999,2278229112
2621,11,Pattern_Practice,7,9999,9999,9999,2278728756
2621,11,Pattern_Practice,8,9999,9999,9999,2279228472
2621,11,Pattern_Practice,9,9999,9999,9999,2279728240
2621,11,Pattern_Practice,10,9999,9999,9999,2280228932
2621,11,Pattern_Practice,11,9999,9999,9999,2280728644
2621,11,Pattern_Practice,12,9999,9999,9999,2281228364
2621,11,Pattern_Practice,13,9999,9999,9999,2281728080
2621,11,Pattern_Practice,14,9999,9999,9999,2282228840
2621,11,Pattern_Practice,15,9999,9999,9999,2282728536
2621,11,Pattern_Practice,16,9999,9999,9999,2283228252
2621,11,Pattern_Practice,17,9999,9999,9999,2283729016
2621,11,Pattern_Practice,18,9999,9999,9999,2284228656
2621,11,Pattern_Practice,19,9999,9999,9999,2284728372
2621,11,Pattern_Practice,20,9999,9999,9999,2285228088
2621,11,Pattern_Practice,21,9999,9999,9999,2285728852
2621,11,Pattern_Practice,22,9999,9999,9999,2286228568
2621,11,Pattern_Practice,23,9999,9999,9999,2286728284
2621,11,Pattern_Practice,24,9999,9999,9999,2287229048
2621,11,Pattern_Practice,25,9999,9999,9999,2287728692
2621,11,Pattern_Practice,26,9999,9999,9999,2288228408
2621,11,Pattern_Practice,27,9999,9999,9999,2288728124
2621,11,Pattern_Practice,28,9999,9999,9999,2289228888
2621,11,Pattern_Practice,29,9999,9999,9999,2289728576
2621,11,Pattern_Practice,30,9999,9999,9999,2290228344
2621,11,Pattern_Practice,31,9999,9999,9999,2290729012
2621,11,Pattern_Practice,32,9999,9999,9999,2291228784
2621,11,Pattern_Practice,33,9999,9999,9999,2291728484
2621,11,Pattern_Practice,34,9999,9999,9999,2292228176
2621,11,Pattern_Practice,35,9999,9999,9999,2292728916
2621,11,Pattern_Practice,36,9999,9999,9999,2293228640
2621,11,Pattern_Practice,37,9999,9999,9999,2293728336
2621,11,Pattern_Practice,38,9999,9999,9999,2294229080
2621,11,Pattern_Practice,39,9999,9999,9999,2294728772
2621,11,Pattern_Practice,40,9999,9999,9999,2295228516
2621,11,Pattern_Practice,41,9999,9999,9999,2295728212
2621,11,Pattern_Practice,42,9999,9999,9999,2296228956
2621,11,Pattern_Practice,43,9999,9999,9999,2296728648
2621,11,Pattern_Practice,44,9999,9999,9999,2297228396
2621,11,Pattern_Practice,45,9999,9999,9999,2297728092
2621,11,Pattern_Practice,46,9999,9999,9999,2298228832
2621,11,Pattern_Practice,47,9999,9999,9999,2298728528
2621,11,Pattern_Practice,48,9999,9999,9999,2299228260
2621,11,Pattern_Practice,49,9999,9999,9999,2299729000
2621,11,Pattern_Practice,50,9999,9999,9999,2300228692
2621,11,Pattern_Practice,51,9999,9999,9999,2300728384
2621,11,Pattern_Practice,52,9999,9999,9999,2301228112
2621,11,Pattern_Practice,53,9999,9999,9999,2301728860
2621,11,Pattern_Practice,54,9999,9999,9999,2302228556
2621,11,Pattern_Practice,55,9999,9999,9999,2302728244
2621,11,Pattern_Practice,56,9999,9999,9999,2303229036
2621,11,Pattern_Practice,57,9999,9999,9999,2303728732
2621,11,Pattern_Practice,58,9999,9999,9999,2304228404
2621,11,Pattern_Practice,59,9999,9999,9999,2304728172
2621,11,Pattern_Practice,60,9999,9999,9999,2305228872
2621,11,Pattern_Practice,61,9999,9999,9999,2305728572
2621,11,Pattern_Practice,62,9999,9999,9999,2306228340
2621,11,Pattern_Practice,63,9999,9999,9999,2306729076
2621,11,Pattern_Practice,64,9999,9999,9999,2307228748
2621,11,Pattern_Practice,65,9999,9999,9999,2307728452
2621,11,Pattern_Practice,66,9999,9999,9999,2308228216
2621,11,Pattern_Practice,67,9999,9999,9999,2308728880
2621,11,Pattern_Practice,68,9999,9999,9999,2309228632
2621,11,Pattern_Practice,69,9999,9999,9999,2309728328
2621,11,Pattern_Practice,70,9999,9999,9999,2310229068
2621,11,Pattern_Practice,71,9999,9999,9999,2310728764
2621,11,Pattern_Practice,72,9999,9999,9999,2311228496
2621,11,Pattern_Practice,73,9999,9999,9999,2311728184
2621,11,Pattern_Practice,74,9999,9999,9999,2312228924
2621,11,Pattern_Practice,75,9999,9999,9999,2312728696
2621,11,Pattern_Practice,76,9999,9999,9999,2313228368
2621,11,Pattern_Practice,77,9999,9999,9999,2313728100
2621,11,Pattern_Practice,78,9999,9999,9999,2314228840
2621,11,Pattern_Practice,79,9999,9999,9999,2314728512
2622,13,Improv_Metronome,0,5,42,127,2355235184
2622,13,Improv_Metronome,1,5,42,127,2355734824
2622,13,Improv_Metronome,2,5,42,127,2356234692
2622,13,Improv_Metronome,3,5,42,127,2356735600
2622,13,Improv_Metronome,4,5,42,127,2357235020
2622,13,Improv_Metronome,5,5,42,127,2357734712
2622,13,Improv_Metronome,6,5,42,127,2358234428
2622,13,Improv_Metronome,7,5,42,127,2358735340
2622,13,Improv_Metronome,8,5,42,127,2359234908
2622,13,Improv_Metronome,9,1,48,46,2359270792
2622,13,Improv_Metronome,10,5,42,127,2359734528
2622,13,Improv_Metronome,11,1,48,46,2359735492
2622,13,Improv_Metronome,12,1,48,53,2360229692
2622,13,Improv_Metronome,13,5,42,127,2360235336
2622,13,Improv_Metronome,14,5,42,127,2360735336
2622,13,Improv_Metronome,15,1,48,51,2360768528
2622,13,Improv_Metronome,16,1,38,32,2361031744
2622,13,Improv_Metronome,17,5,42,127,2361234860
2622,13,Improv_Metronome,18,1,48,38,2361285776
2622,13,Improv_Metronome,19,1,48,49,2361715140
2622,13,Improv_Metronome,20,5,42,127,2361734472
2622,13,Improv_Metronome,21,1,48,54,2362207804
2622,13,Improv_Metronome,22,5,42,127,2362235212
2622,13,Improv_Metronome,23,1,48,52,2362724628
2622,13,Improv_Metronome,24,5,42,127,2362735204
2622,13,Improv_Metronome,25,1,38,38,2362987036
2622,13,Improv_Metronome,26,1,38,26,2363115292
2622,13,Improv_Metronome,27,5,42,127,2363234640
2622,13,Improv_Metronome,28,1,48,43,2363263488
2622,13,Improv_Metronome,29,1,48,46,2363725092
2622,13,Improv_Metronome,30,5,42,127,2363735376
2622,13,Improv_Metronome,31,1,48,46,2364207140
2622,13,Improv_Metronome,32,5,42,127,2364235220
2622,13,Improv_Metronome,33,1,48,49,2364695616
2622,13,Improv_Metronome,34,5,42,127,2364734764
2622,13,Improv_Metronome,35,1,38,42,2364966180
2622,13,Improv_Metronome,36,5,42,127,2365234520
2622,13,Improv_Metronome,37,1,48,41,2365246088
2622,13,Improv_Metronome,38,1,48,47,2365711664
2622,13,Improv_Metronome,39,5,42,127,2365735404
2622,13,Improv_Metronome,40,1,48,41,2366203872
2622,13,Improv_Metronome,41,5,42,127,2366235024
2622,13,Improv_Metronome,42,1,48,38,2366692480
2622,13,Improv_Metronome,43,5,42,127,2366734944
2622,13,Improv_Metronome,44,1,38,45,2366989016
2622,13,Improv_Metronome,45,1,38,37,2367134328
2622,13,Improv_Metronome,46,5,42,127,2367234600
2622,13,Improv_Metronome,47,1,48,41,2367275048
2622,13,Improv_Metronome,48,1,48,40,2367719724
2622,13,Improv_Metronome,49,5,42,127,2367735188
2622,13,Improv_Metronome,50,1,48,46,2368205880
2622,13,Improv_Metronome,51,5,42,127,2368234856
2622,13,Improv_Metronome,52,1,48,46,2368689616
2622,13,Improv_Metronome,53,5,42,127,2368734752
2622,13,Improv_Metronome,54,1,38,44,2368940880
2622,13,Improv_Metronome,55,1,48,47,2369218084
2622,13,Improv_Metronome,56,5,42,127,2369235172
2622,13,Improv_Metronome,57,5,42,127,2369734948
2622,13,Improv_Metronome,58,1,48,40,2369745548
2622,13,Improv_Metronome,59,1,48,42,2370213960
2622,13,Improv_Metronome,60,5,42,127,2370235008
2622,13,Improv_Metronome,61,1,48,41,2370730336
2622,13,Improv_Metronome,62,5,42,127,2370734552
2622,13,Improv_Metronome,63,1,38,47,2371011516
2622,13,Improv_Metronome,64,1,38,35,2371127004
2622,13,Improv_Metronome,65,5,42,127,2371235256
2622,13,Improv_Metronome,66,1,48,39,2371260820
2622,13,Improv_Metronome,67,1,48,46,2371724516
2622,13,Improv_Metronome,68,5,42,127,2371735020
2622,13,Improv_Metronome,69,1,48,46,2372234196
2622,13,Improv_Metronome,70,5,42,127,2372235984
2622,13,Improv_Metronome,71,5,42,127,2372735388
2622,13,Improv_Metronome,72,1,48,48,2372740752
2622,13,Improv_Metronome,73,1,38,53,2372990508
2622,13,Improv_Metronome,74,5,42,127,2373235064
2622,13,Improv_Metronome,75,1,48,44,2373246188
2622,13,Improv_Metronome,76,1,48,44,2373731728
2622,13,Improv_Metronome,77,5,42,127,2373734828
2622,13,Improv_Metronome,78,5,42,127,2374234600
2622,13,Improv_Metronome,79,1,48,44,2374237648
2622,13,Improv_Metronome,80,5,42,127,2374735196
2622,13,Improv_Metronome,81,1,48,40,2374740188
2622,13,Improv_Metronome,82,1,38,51,2375011408
2622,13,Improv_Metronome,83,1,38,33,2375135472
2622,13,Improv_Metronome,84,5,42,127,2375234920
2622,13,Improv_Metronome,85,1,48,41,2375304760
2622,13,Improv_Metronome,86,5,42,127,2375734588
2622,13,Improv_Metronome,87,1,48,43,2375749904
2622,13,Improv_Metronome,88,1,48,40,2376229604
2622,13,Improv_Metronome,89,5,42,127,2376235472
2622,13,Improv_Metronome,90,1,48,40,2376719052
2622,13,Improv_Metronome,91,5,42,127,2376735168
2622,13,Improv_Metronome,92,1,38,46,2376940776
2622,13,Improv_Metronome,93,1,48,40,2377227552
2622,13,Improv_Metronome,94,5,42,127,2377234764
2622,13,Improv_Metronome,95,1,48,44,2377728816
2622,13,Improv_Metronome,96,5,42,127,2377734384
2622,13,Improv_Metronome,97,1,48,44,2378224544
2622,13,Improv_Metronome,98,5,42,127,2378235200
2622,13,Improv_Metronome,99,1,48,42,2378718456
2622,13,Improv_Metronome,100,5,42,127,2378734896
2622,13,Improv_Metronome,101,1,38,43,2378981540
2622,13,Improv_Metronome,102,1,38,38,2379105780
2622,13,Improv_Metronome,103,1,38,20,2379201800
2622,13,Improv_Metronome,104,5,42,127,2379234592
2622,13,Improv_Metronome,105,1,48,40,2379272968
2622,13,Improv_Metronome,106,1,48,42,2379702508
2622,13,Improv_Metronome,107,5,42,127,2379735524
2622,13,Improv_Metronome,108,1,48,45,2380228980
2622,13,Improv_Metronome,109,5,42,127,2380235220
2622,13,Improv_Metronome,110,1,48,43,2380713564
2622,13,Improv_Metronome,111,5,42,127,2380734840
2622,13,Improv_Metronome,112,1,38,45,2380944492
2622,13,Improv_Metronome,113,5,42,127,2381234672
2622,13,Improv_Metronome,114,1,48,48,2381247592
2622,13,Improv_Metronome,115,5,42,127,2381735488
2622,13,Improv_Metronome,116,1,48,43,2381764560
2622,13,Improv_Metronome,117,1,48,43,2382227512
2622,13,Improv_Metronome,118,5,42,127,2382235100
2622,13,Improv_Metronome,119,1,48,42,2382704244
2622,13,Improv_Metronome,120,5,42,127,2382734720
2622,13,Improv_Metronome,121,1,38,49,2382987672
2622,13,Improv_Metronome,122,1,38,44,2383120368
2622,13,Improv_Metronome,123,5,42,127,2383234304
2622,13,Improv_Metronome,124,1,48,42,2383270264
2622,13,Improv_Metronome,125,5,42,127,2383735268
2622,13,Improv_Metronome,126,1,48,42,2383757468
2622,13,Improv_Metronome,127,5,42,127,2384234892
2622,13,Improv_Metronome,128,1,48,43,2384249232
2622,13,Improv_Metronome,129,1,48,46,2384719508
2622,13,Improv_Metronome,130,5,42,127,2384734428
2622,13,Improv_Metronome,131,1,38,40,2384953428
2622,13,Improv_Metronome,132,1,48,44,2385234176
2622,13,Improv_Metronome,133,5,42,127,2385235820
2622,13,Improv_Metronome,134,5,42,127,2385735148
2622,13,Improv_Metronome,135,1,48,48,2385740512
2622,13,Improv_Metronome,136,1,48,44,2386227920
2622,13,Improv_Metronome,137,5,42,127,2386234612
2622,13,Improv_Metronome,138,1,48,46,2386718712
2622,13,Improv_Metronome,139,5,42,127,2386734384
2622,13,Improv_Metronome,140,1,38,54,2386998928
2622,13,Improv_Metronome,141,1,38,39,2387126364
2622,13,Improv_Metronome,142,5,42,127,2387235088
2622,13,Improv_Metronome,143,1,48,42,2387272612
2622,13,Improv_Metronome,144,5,42,127,2387735228
2622,13,Improv_Metronome,145,1,48,52,2387749120
2622,13,Improv_Metronome,146,5,42,127,2388234476
2622,13,Improv_Metronome,147,1,48,59,2388254200
2622,13,Improv_Metronome,148,1,48,54,2388724032
2622,13,Improv_Metronome,149,5,42,127,2388735284
2622,13,Improv_Metronome,150,1,38,54,2388973580
2622,13,Improv_Metronome,151,5,42,127,2389235188
2622,13,Improv_Metronome,152,1,48,53,2389261424
2622,13,Improv_Metronome,153,5,42,127,2389734860
2622,13,Improv_Metronome,154,1,48,46,2389750800
2622,13,Improv_Metronome,155,1,48,51,2390224864
2622,13,Improv_Metronome,156,5,42,127,2390234324
2622,13,Improv_Metronome,157,1,48,43,2390726732
2622,13,Improv_Metronome,158,5,42,127,2390735068
2622,13,Improv_Metronome,159,1,48,43,2391219472
2622,13,Improv_Metronome,160,5,42,127,2391234912
2622,13,Improv_Metronome,161,1,48,53,2391679744
2622,13,Improv_Metronome,162,5,42,127,2391734608
2622,13,Improv_Metronome,163,1,48,55,2392177944
2622,13,Improv_Metronome,164,5,42,127,2392235496
2622,13,Improv_Metronome,165,1,48,51,2392723568
2622,13,Improv_Metronome,166,5,42,127,2392735040
2622,13,Improv_Metronome,167,1,38,46,2392988592
2622,13,Improv_Metronome,168,5,42,127,2393234944
2622,13,Improv_Metronome,169,1,48,49,2393235984
2622,13,Improv_Metronome,170,5,42,127,2393734716
2622,13,Improv_Metronome,171,1,48,49,2393746136
2622,13,Improv_Metronome,172,1,48,47,2394225772
2622,13,Improv_Metronome,173,5,42,127,2394235152
2622,13,Improv_Metronome,174,1,48,48,2394706316
2622,13,Improv_Metronome,175,5,42,127,2394734848
2622,13,Improv_Metronome,176,1,38,48,2394998948
2622,13,Improv_Metronome,177,1,38,23,2395134708
2622,13,Improv_Metronome,178,5,42,127,2395234880
2622,13,Improv_Metronome,179,1,48,44,2395275248
2622,13,Improv_Metronome,180,5,42,127,2395735696
2622,13,Improv_Metronome,181,1,48,49,2395751984
2622,13,Improv_Metronome,182,5,42,127,2396235096
2622,13,Improv_Metronome,183,1,48,42,2396241656
2622,13,Improv_Metronome,184,1,48,49,2396696676
2622,13,Improv_Metronome,185,5,42,127,2396734780
2622,13,Improv_Metronome,186,1,38,51,2396948544
2622,13,Improv_Metronome,187,1,48,50,2397230756
2622,13,Improv_Metronome,188,5,42,127,2397234680
2622,13,Improv_Metronome,189,1,48,50,2397722372
2622,13,Improv_Metronome,190,5,42,127,2397735200
2622,13,Improv_Metronome,191,1,48,47,2398223112
2622,13,Improv_Metronome,192,5,42,127,2398234968
2622,13,Improv_Metronome,193,1,48,44,2398712264
2622,13,Improv_Metronome,194,5,42,127,2398734736
2622,13,Improv_Metronome,195,1,38,56,2399000404
2622,13,Improv_Metronome,196,1,38,34,2399110264
2622,13,Improv_Metronome,197,5,42,127,2399234540
2622,13,Improv_Metronome,198,1,48,41,2399303408
2622,13,Improv_Metronome,199,5,42,127,2399735136
2622,13,Improv_Metronome,200,1,48,44,2399789640
2622,13,Improv_Metronome,201,5,42,127,2400234756
2622,13,Improv_Metronome,202,1,48,50,2400247372
2622,13,Improv_Metronome,203,1,48,50,2400720696
2622,13,Improv_Metronome,204,5,42,127,2400734492
2622,13,Improv_Metronome,205,1,38,52,2400986176
2622,13,Improv_Metronome,206,5,42,127,2401235440
2622,13,Improv_Metronome,207,1,48,48,2401254420
2622,13,Improv_Metronome,208,5,42,127,2401734988
2622,13,Improv_Metronome,209,1,48,44,2401740720
2622,13,Improv_Metronome,210,5,42,127,2402234680
2622,13,Improv_Metronome,211,1,48,41,2402241092
2622,13,Improv_Metronome,212,1,48,46,2402718780
2622,13,Improv_Metronome,213,5,42,127,2402734368
2622,13,Improv_Metronome,214,1,38,57,2402979468
2622,13,Improv_Metronome,215,1,38,39,2403068032
2622,13,Improv_Metronome,216,1,38,20,2403142356
2622,13,Improv_Metronome,217,5,42,127,2403235496
2622,13,Improv_Metronome,218,1,48,40,2403263600
2622,13,Improv_Metronome,219,1,48,41,2403726172
2622,13,Improv_Metronome,220,5,42,127,2403734960
2622,13,Improv_Metronome,221,5,42,127,2404234588
2622,13,Improv_Metronome,222,1,48,42,2404248852
2622,13,Improv_Metronome,223,5,42,127,2404735328
2622,13,Improv_Metronome,224,1,48,48,2404740320
2622,13,Improv_Metronome,225,1,38,53,2404962400
2622,13,Improv_Metronome,226,5,42,127,2405235152
2622,13,Improv_Metronome,227,1,48,48,2405252632
2622,13,Improv_Metronome,228,5,42,127,2405734700
2622,13,Improv_Metronome,229,1,48,48,2405756888
2622,13,Improv_Metronome,230,1,48,45,2406225376
2622,13,Improv_Metronome,231,5,42,127,2406234460
2622,13,Improv_Metronome,232,1,38,52,2406698148
2622,13,Improv_Metronome,233,5,42,127,2406735424
2622,13,Improv_Metronome,234,5,42,127,2407235052
2622,13,Improv_Metronome,235,1,48,48,2407258148
2622,13,Improv_Metronome,236,1,38,46,2407720276
2622,13,Improv_Metronome,237,5,42,127,2407734520
2622,13,Improv_Metronome,238,1,48,44,2407975428
2622,13,Improv_Metronome,239,5,42,127,2408235396
2622,13,Improv_Metronome,240,1,48,44,2408474076
2622,13,Improv_Metronome,241,1,38,53,2408698472
2622,13,Improv_Metronome,242,5,42,127,2408735228
2622,13,Improv_Metronome,243,1,48,51,2409212900
2622,13,Improv_Metronome,244,5,42,127,2409234776
2622,13,Improv_Metronome,245,1,38,54,2409715660
2622,13,Improv_Metronome,246,5,42,127,2409734472
2622,13,Improv_Metronome,247,1,48,48,2409952768
2622,13,Improv_Metronome,248,5,42,127,2410235196
2622,13,Improv_Metronome,249,1,48,49,2410442064
2622,13,Improv_Metronome,250,1,38,47,2410704236
2622,13,Improv_Metronome,251,5,42,127,2410734960
2622,13,Improv_Metronome,252,1,48,50,2410937400
2622,13,Improv_Metronome,253,1,48,39,2411184080
2622,13,Improv_Metronome,254,5,42,127,2411234756
2622,13,Improv_Metronome,255,1,38,58,2411688116
2622,13,Improv_Metronome,256,5,42,127,2411735348
2622,13,Improv_Metronome,257,1,48,48,2411943720
2622,13,Improv_Metronome,258,5,42,127,2412235028
2622,13,Improv_Metronome,259,1,48,52,2412430552
2622,13,Improv_Metronome,260,1,38,59,2412713588
2622,13,Improv_Metronome,261,5,42,127,2412735012
2622,13,Improv_Metronome,262,1,48,56,2413201692
2622,13,Improv_Metronome,263,5,42,127,2413234484
2622,13,Improv_Metronome,264,1,38,57,2413726964
2622,13,Improv_Metronome,265,5,42,127,2413735152
2622,13,Improv_Metronome,266,1,48,44,2413964616
2622,13,Improv_Metronome,267,5,42,127,2414234976
2622,13,Improv_Metronome,268,1,48,44,2414480168
2622,13,Improv_Metronome,269,5,42,127,2414734820
2622,13,Improv_Metronome,270,1,38,59,2414750812
2622,13,Improv_Metronome,271,1,38,50,2414877588
2622,13,Improv_Metronome,272,5,42,127,2415234420
2622,13,Improv_Metronome,273,1,48,51,2415281744
2622,13,Improv_Metronome,274,1,38,57,2415732804
2622,13,Improv_Metronome,275,5,42,127,2415735676
2622,13,Improv_Metronome,276,1,48,48,2415999252
2622,13,Improv_Metronome,277,5,42,127,2416234908
2622,13,Improv_Metronome,278,1,48,52,2416505080
2622,13,Improv_Metronome,279,5,42,127,2416734752
2622,13,Improv_Metronome,280,1,38,59,2416765248
2622,13,Improv_Metronome,281,5,42,127,2417235272
2622,13,Improv_Metronome,282,1,48,52,2417241236
2622,13,Improv_Metronome,283,5,42,127,2417734964
2622,13,Improv_Metronome,284,1,38,57,2417736524
2622,13,Improv_Metronome,285,1,48,48,2417997556
2622,13,Improv_Metronome,286,5,42,127,2418234788
2622,13,Improv_Metronome,287,1,48,48,2418455216
2622,13,Improv_Metronome,288,1,38,48,2418689788
2622,13,Improv_Metronome,289,5,42,127,2418734700
2622,13,Improv_Metronome,290,1,38,35,2418874836
2622,13,Improv_Metronome,291,1,48,43,2419193876
2622,13,Improv_Metronome,292,5,42,127,2419235120
2622,13,Improv_Metronome,293,1,38,60,2419719748
2622,13,Improv_Metronome,294,5,42,127,2419734892
2622,13,Improv_Metronome,295,1,48,51,2419986796
2622,13,Improv_Metronome,296,5,42,127,2420234792
2622,13,Improv_Metronome,297,1,48,51,2420464952
2622,13,Improv_Metronome,298,1,38,64,2420728092
2622,13,Improv_Metronome,299,5,42,127,2420735604
2622,13,Improv_Metronome,300,5,42,127,2421234936
2622,13,Improv_Metronome,301,1,48,57,2421261988
2622,13,Improv_Metronome,302,5,42,127,2421734828
2622,13,Improv_Metronome,303,1,38,59,2421738468
2622,13,Improv_Metronome,304,1,48,52,2421990520
2622,13,Improv_Metronome,305,5,42,127,2422234548
2622,13,Improv_Metronome,306,1,48,44,2422469340
2622,13,Improv_Metronome,307,1,38,61,2422733020
2622,13,Improv_Metronome,308,5,42,127,2422735728
2622,13,Improv_Metronome,309,1,38,42,2422836696
2622,13,Improv_Metronome,310,1,38,41,2422899356
2622,13,Improv_Metronome,311,1,48,35,2423177828
2622,13,Improv_Metronome,312,5,42,127,2423234860
2622,13,Improv_Metronome,313,1,38,66,2423728084
2622,13,Improv_Metronome,314,5,42,127,2423734628
2622,13,Improv_Metronome,315,1,48,43,2424014432
2622,13,Improv_Metronome,316,5,42,127,2424235504
2622,13,Improv_Metronome,317,1,48,42,2424489596
2622,13,Improv_Metronome,318,5,42,127,2424734976
2622,13,Improv_Metronome,319,1,38,65,2424755072
2622,13,Improv_Metronome,0,9999,9999,9999,2355232820
2622,13,Improv_Metronome,1,9999,9999,9999,2355732540
2622,13,Improv_Metronome,2,9999,9999,9999,2356232256
2622,13,Improv_Metronome,3,9999,9999,9999,2356733016
2622,13,Improv_Metronome,4,9999,9999,9999,2357232736
2622,13,Improv_Metronome,5,9999,9999,9999,2357732428
2622,13,Improv_Metronome,6,9999,9999,9999,2358232140
2622,13,Improv_Metronome,7,9999,9999,9999,2358732904
2622,13,Improv_Metronome,8,9999,9999,9999,2359232620
2622,13,Improv_Metronome,9,9999,9999,9999,2359732316
2622,13,Improv_Metronome,10,9999,9999,9999,2360233052
2622,13,Improv_Metronome,11,9999,9999,9999,2360732752
2622,13,Improv_Metronome,12,9999,9999,9999,2361232500
2622,13,Improv_Metronome,13,9999,9999,9999,2361732188
2622,13,Improv_Metronome,14,9999,9999,9999,2362232928
2622,13,Improv_Metronome,15,9999,9999,9999,2362732620
2622,13,Improv_Metronome,16,9999,9999,9999,2363232352
2622,13,Improv_Metronome,17,9999,9999,9999,2363733088
2622,13,Improv_Metronome,18,9999,9999,9999,2364232784
2622,13,Improv_Metronome,19,9999,9999,9999,2364732480
2622,13,Improv_Metronome,20,9999,9999,9999,2365232236
2622,13,Improv_Metronome,21,9999,9999,9999,2365732972
2622,13,Improv_Metronome,22,9999,9999,9999,2366232664
2622,13,Improv_Metronome,23,9999,9999,9999,2366732360
2622,13,Improv_Metronome,24,9999,9999,9999,2367232092
2622,13,Improv_Metronome,25,9999,9999,9999,2367732824
2622,13,Improv_Metronome,26,9999,9999,9999,2368232496
2622,13,Improv_Metronome,27,9999,9999,9999,2368732240
2622,13,Improv_Metronome,28,9999,9999,9999,2369232960
2622,13,Improv_Metronome,29,9999,9999,9999,2369732664
2622,13,Improv_Metronome,30,9999,9999,9999,2370232424
2622,13,Improv_Metronome,31,9999,9999,9999,2370732120
2622,13,Improv_Metronome,32,9999,9999,9999,2371232820
2622,13,Improv_Metronome,33,9999,9999,9999,2371732584
2622,13,Improv_Metronome,34,9999,9999,9999,2372232288
2622,13,Improv_Metronome,35,9999,9999,9999,2372733028
2622,13,Improv_Metronome,36,9999,9999,9999,2373232700
2622,13,Improv_Metronome,37,9999,9999,9999,2373732464
2622,13,Improv_Metronome,38,9999,9999,9999,2374232164
2622,13,Improv_Metronome,39,9999,9999,9999,2374732908
2622,13,Improv_Metronome,40,9999,9999,9999,2375232632
2622,13,Improv_Metronome,41,9999,9999,9999,2375732304
2622,13,Improv_Metronome,42,9999,9999,9999,2376233036
2622,13,Improv_Metronome,43,9999,9999,9999,2376732732
2622,13,Improv_Metronome,44,9999,9999,9999,2377232480
2622,13,Improv_Metronome,45,9999,9999,9999,2377732172
2622,13,Improv_Metronome,46,9999,9999,9999,2378232912
2622,13,Improv_Metronome,47,9999,9999,9999,2378732608
2622,13,Improv_Metronome,48,9999,9999,9999,2379232308
2622,13,Improv_Metronome,49,9999,9999,9999,2379733092
2622,13,Improv_Metronome,50,9999,9999,9999,2380232788
2622,13,Improv_Metronome,51,9999,9999,9999,2380732480
2622,13,Improv_Metronome,52,9999,9999,9999,2381232236
2622,13,Improv_Metronome,53,9999,9999,9999,2381732976
2622,13,Improv_Metronome,54,9999,9999,9999,2382232664
2622,13,Improv_Metronome,55,9999,9999,9999,2382732360
2622,13,Improv_Metronome,56,9999,9999,9999,2383232092
2622,13,Improv_Metronome,57,9999,9999,9999,2383732836
2622,13,Improv_Metronome,58,9999,9999,9999,2384232532
2622,13,Improv_Metronome,59,9999,9999,9999,2384732216
2622,13,Improv_Metronome,60,9999,9999,9999,2385232944
2622,13,Improv_Metronome,61,9999,9999,9999,2385732716
2622,13,Improv_Metronome,62,9999,9999,9999,2386232404
2622,13,Improv_Metronome,63,9999,9999,9999,2386732096
2622,13,Improv_Metronome,64,9999,9999,9999,2387232876
2622,13,Improv_Metronome,65,9999,9999,9999,2387732568
2622,13,Improv_Metronome,66,9999,9999,9999,2388232264
2622,13,Improv_Metronome,67,9999,9999,9999,2388733000
2622,13,Improv_Metronome,68,9999,9999,9999,2389232752
2622,13,Improv_Metronome,69,9999,9999,9999,2389732424
2622,13,Improv_Metronome,70,9999,9999,9999,2390232112
2622,13,Improv_Metronome,71,9999,9999,9999,2390732856
2622,13,Improv_Metronome,72,9999,9999,9999,2391232624
2622,13,Improv_Metronome,73,9999,9999,9999,2391732320
2622,13,Improv_Metronome,74,9999,9999,9999,2392233060
2622,13,Improv_Metronome,75,9999,9999,9999,2392732756
2622,13,Improv_Metronome,76,9999,9999,9999,2393232436
2622,13,Improv_Metronome,77,9999,9999,9999,2393732204
2622,13,Improv_Metronome,78,9999,9999,9999,2394232940
2622,13,Improv_Metronome,79,9999,9999,9999,2394732636
2622,13,Improv_Metronome,80,9999,9999,9999,2395232372
2622,13,Improv_Metronome,81,9999,9999,9999,2395733112
2622,13,Improv_Metronome,82,9999,9999,9999,2396232808
2622,13,Improv_Metronome,83,9999,9999,9999,2396732496
2622,13,Improv_Metronome,84,9999,9999,9999,2397232244
2622,13,Improv_Metronome,85,9999,9999,9999,2397732912
2622,13,Improv_Metronome,86,9999,9999,9999,2398232680
2622,13,Improv_Metronome,87,9999,9999,9999,2398732376
2622,13,Improv_Metronome,88,9999,9999,9999,2399232108
2622,13,Improv_Metronome,89,9999,9999,9999,2399732848
2622,13,Improv_Metronome,90,9999,9999,9999,2400232544
2622,13,Improv_Metronome,91,9999,9999,9999,2400732280
2622,13,Improv_Metronome,92,9999,9999,9999,2401233004
2622,13,Improv_Metronome,93,9999,9999,9999,2401732700
2622,13,Improv_Metronome,94,9999,9999,9999,2402232392
2622,13,Improv_Metronome,95,9999,9999,9999,2402732084
2622,13,Improv_Metronome,96,9999,9999,9999,2403232884
2622,13,Improv_Metronome,97,9999,9999,9999,2403732600
2622,13,Improv_Metronome,98,9999,9999,9999,2404232300
2622,13,Improv_Metronome,99,9999,9999,9999,2404733040
2622,13,Improv_Metronome,100,9999,9999,9999,2405232716
2622,13,Improv_Metronome,101,9999,9999,9999,2405732412
2622,13,Improv_Metronome,102,9999,9999,9999,2406232172
2622,13,Improv_Metronome,103,9999,9999,9999,2406732916
2622,13,Improv_Metronome,104,9999,9999,9999,2407232616
2622,13,Improv_Metronome,105,9999,9999,9999,2407732308
2622,13,Improv_Metronome,106,9999,9999,9999,2408233032
2622,13,Improv_Metronome,107,9999,9999,9999,2408732720
2622,13,Improv_Metronome,108,9999,9999,9999,2409232492
2622,13,Improv_Metronome,109,9999,9999,9999,2409732188
2622,13,Improv_Metronome,110,9999,9999,9999,2410232912
2622,13,Improv_Metronome,111,9999,9999,9999,2410732600
2622,13,Improv_Metronome,112,9999,9999,9999,2411232320
2622,13,Improv_Metronome,113,9999,9999,9999,2411733060
2622,13,Improv_Metronome,114,9999,9999,9999,2412232816
2622,13,Improv_Metronome,115,9999,9999,9999,2412732504
2622,13,Improv_Metronome,116,9999,9999,9999,2413232196
2622,13,Improv_Metronome,117,9999,9999,9999,2413732940
2622,13,Improv_Metronome,118,9999,9999,9999,2414232692
2622,13,Improv_Metronome,119,9999,9999,9999,2414732388
2622,13,Improv_Metronome,120,9999,9999,9999,2415232060
2622,13,Improv_Metronome,121,9999,9999,9999,2415732868
2622,13,Improv_Metronome,122,9999,9999,9999,2416232548
2622,13,Improv_Metronome,123,9999,9999,9999,2416732244
2622,13,Improv_Metronome,124,9999,9999,9999,2417232984
2622,13,Improv_Metronome,125,9999,9999,9999,2417732680
2622,13,Improv_Metronome,126,9999,9999,9999,2418232428
2622,13,Improv_Metronome,127,9999,9999,9999,2418732116
2622,13,Improv_Metronome,128,9999,9999,9999,2419232836
2622,13,Improv_Metronome,129,9999,9999,9999,2419732532
2622,13,Improv_Metronome,130,9999,9999,9999,2420232284
2622,13,Improv_Metronome,131,9999,9999,9999,2420733020
2622,13,Improv_Metronome,132,9999,9999,9999,2421232724
2622,13,Improv_Metronome,133,9999,9999,9999,2421732468
2622,13,Improv_Metronome,134,9999,9999,9999,2422232116
2622,13,Improv_Metronome,135,9999,9999,9999,2422732888
2622,13,Improv_Metronome,136,9999,9999,9999,2423232572
2622,13,Improv_Metronome,137,9999,9999,9999,2423732344
2622,13,Improv_Metronome,138,9999,9999,9999,2424233068
2622,13,Improv_Metronome,139,9999,9999,9999,2424732764
2623,14,Improv_Melody,0,2,48,80,2480696616
2623,14,Improv_Melody,1,2,72,80,2480698852
2623,14,Improv_Melody,2,5,42,127,2480701236
2623,14,Improv_Melody,3,5,42,110,2481195424
2623,14,Improv_Melody,4,5,42,110,2481695220
2623,14,Improv_Melody,5,5,42,110,2482194868
2623,14,Improv_Melody,6,5,42,127,2482694440
2623,14,Improv_Melody,7,5,42,110,2483195432
2623,14,Improv_Melody,8,5,42,110,2483694856
2623,14,Improv_Melody,9,5,42,110,2484194724
2623,14,Improv_Melody,10,2,43,80,2484698128
2623,14,Improv_Melody,11,2,67,80,2484700280
2623,14,Improv_Melody,12,5,42,127,2484702888
2623,14,Improv_Melody,13,5,42,110,2485195056
2623,14,Improv_Melody,14,5,42,110,2485694928
2623,14,Improv_Melody,15,5,42,110,2486194796
2623,14,Improv_Melody,16,5,42,127,2486695416
2623,14,Improv_Melody,17,5,42,110,2487194988
2623,14,Improv_Melody,18,5,42,110,2487694712
2623,14,Improv_Melody,19,5,42,110,2488194580
2623,14,Improv_Melody,20,2,45,80,2488697708
2623,14,Improv_Melody,21,2,69,80,2488699708
2623,14,Improv_Melody,22,5,42,127,2488702172
2623,14,Improv_Melody,23,5,42,110,2489194864
2623,14,Improv_Melody,24,5,42,110,2489694660
2623,14,Improv_Melody,25,5,42,110,2490195424
2623,14,Improv_Melody,26,5,42,127,2490695000
2623,14,Improv_Melody,27,5,42,110,2491194868
2623,14,Improv_Melody,28,5,42,110,2491694516
2623,14,Improv_Melody,29,5,42,110,2492195284
2623,14,Improv_Melody,30,2,41,80,2492697584
2623,14,Improv_Melody,31,2,65,80,2492699744
2623,14,Improv_Melody,32,5,42,127,2492702276
2623,14,Improv_Melody,33,5,42,110,2493194520
2623,14,Improv_Melody,34,1,38,29,2493684544
2623,14,Improv_Melody,35,5,42,110,2493695428
2623,14,Improv_Melody,36,5,42,110,2494195356
2623,14,Improv_Melody,37,1,38,49,2494199748
2623,14,Improv_Melody,38,1,38,50,2494672476
2623,14,Improv_Melody,39,5,42,127,2494694680
2623,14,Improv_Melody,40,1,38,46,2495171204
2623,14,Improv_Melody,41,5,42,110,2495194356
2623,14,Improv_Melody,42,1,38,49,2495666036
2623,14,Improv_Melody,43,5,42,110,2495695176
2623,14,Improv_Melody,44,1,38,54,2496178608
2623,14,Improv_Melody,45,5,42,110,2496194876
2623,14,Improv_Melody,46,1,48,58,2496476404
2623,14,Improv_Melody,47,1,48,41,2496572448
2623,14,Improv_Melody,48,2,48,80,2496697192
2623,14,Improv_Melody,49,2,72,80,2496699268
2623,14,Improv_Melody,50,5,42,127,2496702032
2623,14,Improv_Melody,51,1,38,53,2496727292
2623,14,Improv_Melody,52,5,42,110,2497195296
2623,14,Improv_Melody,53,1,38,51,2497196784
2623,14,Improv_Melody,54,1,38,56,2497675052
2623,14,Improv_Melody,55,5,42,110,2497694992
2623,14,Improv_Melody,56,1,38,55,2498157548
2623,14,Improv_Melody,57,5,42,110,2498195136
2623,14,Improv_Melody,58,1,38,49,2498652988
2623,14,Improv_Melody,59,5,42,127,2498694392
2623,14,Improv_Melody,60,1,38,52,2499165700
2623,14,Improv_Melody,61,5,42,110,2499195136
2623,14,Improv_Melody,62,1,38,56,2499667348
2623,14,Improv_Melody,63,5,42,110,2499694984
2623,14,Improv_Melody,64,1,38,57,2500174228
2623,14,Improv_Melody,65,5,42,110,2500194536
2623,14,Improv_Melody,66,1,48,51,2500430584
2623,14,Improv_Melody,67,1,38,57,2500697244
2623,14,Improv_Melody,68,2,43,80,2500700540
2623,14,Improv_Melody,69,2,67,80,2500702540
2623,14,Improv_Melody,70,5,42,127,2500705072
2623,14,Improv_Melody,71,1,38,48,2501188056
2623,14,Improv_Melody,72,5,42,110,2501195124
2623,14,Improv_Melody,73,1,38,54,2501685884
2623,14,Improv_Melody,74,5,42,110,2501695048
2623,14,Improv_Melody,75,1,38,54,2502175484
2623,14,Improv_Melody,76,5,42,110,2502194524
2623,14,Improv_Melody,77,1,38,43,2502424364
2623,14,Improv_Melody,78,1,38,49,2502674940
2623,14,Improv_Melody,79,5,42,127,2502695324
2623,14,Improv_Melody,80,1,38,49,2503176364
2623,14,Improv_Melody,81,5,42,110,2503194876
2623,14,Improv_Melody,82,1,38,44,2503681896
2623,14,Improv_Melody,83,5,42,110,2503694800
2623,14,Improv_Melody,84,1,38,48,2504183612
2623,14,Improv_Melody,85,5,42,110,2504194424
2623,14,Improv_Melody,86,1,38,44,2504477072
2623,14,Improv_Melody,87,1,38,46,2504683892
2623,14,Improv_Melody,88,2,45,80,2504697576
2623,14,Improv_Melody,89,2,69,80,2504699656
2623,14,Improv_Melody,90,5,42,127,2504702196
2623,14,Improv_Melody,91,1,38,25,2505142816
2623,14,Improv_Melody,92,5,42,110,2505194864
2623,14,Improv_Melody,93,1,38,37,2505656652
2623,14,Improv_Melody,94,5,42,110,2505694688
2623,14,Improv_Melody,95,5,42,110,2506195712
2623,14,Improv_Melody,96,1,38,60,2506206760
2623,14,Improv_Melody,97,1,38,57,2506677568
2623,14,Improv_Melody,98,5,42,127,2506694960
2623,14,Improv_Melody,99,1,38,54,2507192620
2623,14,Improv_Melody,100,5,42,110,2507195328
2623,14,Improv_Melody,101,1,38,23,2507653408
2623,14,Improv_Melody,102,5,42,110,2507694656
2623,14,Improv_Melody,103,1,38,55,2508178688
2623,14,Improv_Melody,104,5,42,110,2508195032
2623,14,Improv_Melody,105,1,38,54,2508489200
2623,14,Improv_Melody,106,1,38,30,2508570732
2623,14,Improv_Melody,107,1,38,44,2508647224
2623,14,Improv_Melody,108,2,41,80,2508697188
2623,14,Improv_Melody,109,2,65,80,2508699564
2623,14,Improv_Melody,110,5,42,127,2508702032
2623,14,Improv_Melody,111,1,38,49,2509144100
2623,14,Improv_Melody,112,5,42,110,2509194476
2623,14,Improv_Melody,113,1,38,51,2509666388
2623,14,Improv_Melody,114,5,42,110,2509695596
2623,14,Improv_Melody,115,1,38,53,2510180072
2623,14,Improv_Melody,116,5,42,110,2510195072
2623,14,Improv_Melody,117,1,38,55,2510670052
2623,14,Improv_Melody,118,5,42,127,2510694848
2623,14,Improv_Melody,119,1,38,58,2511184036
2623,14,Improv_Melody,120,5,42,110,2511194544
2623,14,Improv_Melody,121,1,38,51,2511651648
2623,14,Improv_Melody,122,5,42,110,2511695068
2623,14,Improv_Melody,123,1,38,50,2512185008
2623,14,Improv_Melody,124,5,42,110,2512194920
2623,14,Improv_Melody,125,1,38,56,2512490512
2623,14,Improv_Melody,126,1,38,46,2512560120
2623,14,Improv_Melody,127,1,38,51,2512624372
2623,14,Improv_Melody,128,1,38,41,2512696940
2623,14,Improv_Melody,129,2,48,80,2512700288
2623,14,Improv_Melody,130,2,72,80,2512702288
2623,14,Improv_Melody,131,5,42,127,2512704680
2623,14,Improv_Melody,132,1,38,50,2513166640
2623,14,Improv_Melody,133,5,42,110,2513195548
2623,14,Improv_Melody,134,1,38,49,2513687132
2623,14,Improv_Melody,135,5,42,110,2513695028
2623,14,Improv_Melody,136,5,42,110,2514194656
2623,14,Improv_Melody,137,1,38,53,2514214900
2623,14,Improv_Melody,138,1,38,53,2514682196
2623,14,Improv_Melody,139,5,42,127,2514694572
2623,14,Improv_Melody,140,1,38,51,2515173364
2623,14,Improv_Melody,141,5,42,110,2515195244
2623,14,Improv_Melody,142,1,38,54,2515676556
2623,14,Improv_Melody,143,5,42,110,2515695392
2623,14,Improv_Melody,144,1,38,39,2515765516
2623,14,Improv_Melody,145,1,38,48,2515832212
2623,14,Improv_Melody,146,1,38,35,2515930024
2623,14,Improv_Melody,147,1,38,48,2516138936
2623,14,Improv_Melody,148,5,42,110,2516194576
2623,14,Improv_Melody,149,1,38,35,2516233512
2623,14,Improv_Melody,150,1,38,38,2516403280
2623,14,Improv_Melody,151,1,38,27,2516479200
2623,14,Improv_Melody,152,1,38,58,2516657272
2623,14,Improv_Melody,153,2,43,80,2516697808
2623,14,Improv_Melody,154,2,67,80,2516700192
2623,14,Improv_Melody,155,5,42,127,2516702576
2623,14,Improv_Melody,156,5,42,110,2517195176
2623,14,Improv_Melody,157,1,38,57,2517212732
2623,14,Improv_Melody,158,5,42,110,2517694876
2623,14,Improv_Melody,159,1,38,56,2517701740
2623,14,Improv_Melody,160,1,38,55,2518188844
2623,14,Improv_Melody,161,5,42,110,2518194496
2623,14,Improv_Melody,162,1,38,56,2518688396
2623,14,Improv_Melody,163,5,42,127,2518695240
2623,14,Improv_Melody,164,1,38,49,2519187120
2623,14,Improv_Melody,165,5,42,110,2519195240
2623,14,Improv_Melody,166,1,38,49,2519689892
2623,14,Improv_Melody,167,5,42,110,2519694568
2623,14,Improv_Melody,168,5,42,110,2520194348
2623,14,Improv_Melody,169,1,38,36,2520231648
2623,14,Improv_Melody,170,1,48,51,2520485736
2623,14,Improv_Melody,171,2,45,80,2520697648
2623,14,Improv_Melody,172,2,69,80,2520699876
2623,14,Improv_Melody,173,5,42,127,2520702340
2623,14,Improv_Melody,174,1,38,46,2520717952
2623,14,Improv_Melody,175,1,38,55,2521185988
2623,14,Improv_Melody,176,5,42,110,2521195000
2623,14,Improv_Melody,177,5,42,110,2521694560
2623,14,Improv_Melody,178,1,38,58,2521698272
2623,14,Improv_Melody,179,1,38,57,2522191972
2623,14,Improv_Melody,180,5,42,110,2522195224
2623,14,Improv_Melody,181,1,38,54,2522672152
2623,14,Improv_Melody,182,5,42,127,2522695000
2623,14,Improv_Melody,183,1,38,56,2523177008
2623,14,Improv_Melody,184,5,42,110,2523194848
2623,14,Improv_Melody,185,1,38,52,2523660404
2623,14,Improv_Melody,186,5,42,110,2523694548
2623,14,Improv_Melody,187,1,38,51,2524146260
2623,14,Improv_Melody,188,5,42,110,2524195144
2623,14,Improv_Melody,189,1,38,54,2524471660
2623,14,Improv_Melody,190,1,38,39,2524550100
2623,14,Improv_Melody,191,1,38,53,2524634896
2623,14,Improv_Melody,192,2,41,80,2524697300
2623,14,Improv_Melody,193,2,65,80,2524699684
2623,14,Improv_Melody,194,5,42,127,2524702220
2623,14,Improv_Melody,195,1,38,41,2525143292
2623,14,Improv_Melody,196,5,42,110,2525194812
2623,14,Improv_Melody,197,1,38,47,2525653236
2623,14,Improv_Melody,198,5,42,110,2525695560
2623,14,Improv_Melody,199,1,38,51,2526187668
2623,14,Improv_Melody,200,5,42,110,2526195036
2623,14,Improv_Melody,201,1,38,52,2526670512
2623,14,Improv_Melody,202,5,42,127,2526694812
2623,14,Improv_Melody,203,1,38,54,2527184200
2623,14,Improv_Melody,204,5,42,110,2527194632
2623,14,Improv_Melody,205,1,38,52,2527646424
2623,14,Improv_Melody,206,5,42,110,2527695156
2623,14,Improv_Melody,207,1,38,60,2528003032
2623,14,Improv_Melody,208,1,38,44,2528090308
2623,14,Improv_Melody,209,1,38,53,2528149600
2623,14,Improv_Melody,210,5,42,110,2528194888
2623,14,Improv_Melody,211,1,38,49,2528474616
2623,14,Improv_Melody,212,1,38,35,2528560112
2623,14,Improv_Melody,213,1,38,48,2528636088
2623,14,Improv_Melody,214,2,48,80,2528697196
2623,14,Improv_Melody,215,2,72,80,2528699428
2623,14,Improv_Melody,216,5,42,127,2528702112
2623,14,Improv_Melody,217,1,38,25,2528734932
2623,14,Improv_Melody,218,1,38,45,2529085888
2623,14,Improv_Melody,219,5,42,110,2529195492
2623,14,Improv_Melody,220,1,38,54,2529650588
2623,14,Improv_Melody,221,5,42,110,2529695056
2623,14,Improv_Melody,222,1,38,50,2530161580
2623,14,Improv_Melody,223,5,42,110,2530194756
2623,14,Improv_Melody,224,1,38,53,2530677140
2623,14,Improv_Melody,225,5,42,127,2530694680
2623,14,Improv_Melody,226,5,42,110,2531195136
2623,14,Improv_Melody,227,1,38,51,2531196548
2623,14,Improv_Melody,228,1,38,54,2531688732
2623,14,Improv_Melody,229,5,42,110,2531694828
2623,14,Improv_Melody,230,1,48,40,2531972012
2623,14,Improv_Melody,231,5,42,110,2532194588
2623,14,Improv_Melody,232,1,38,51,2532215508
2623,14,Improv_Melody,233,1,48,54,2532476036
2623,14,Improv_Melody,234,2,43,80,2532697888
2623,14,Improv_Melody,235,2,67,80,2532700200
2623,14,Improv_Melody,236,5,42,127,2532702656
2623,14,Improv_Melody,237,1,38,55,2532710564
2623,14,Improv_Melody,238,5,42,110,2533195176
2623,14,Improv_Melody,239,1,38,55,2533207868
2623,14,Improv_Melody,240,1,38,49,2533688548
2623,14,Improv_Melody,241,5,42,110,2533694720
2623,14,Improv_Melody,242,1,38,46,2534181812
2623,14,Improv_Melody,243,5,42,110,2534194492
2623,14,Improv_Melody,244,1,38,50,2534675156
2623,14,Improv_Melody,245,5,42,127,2534695540
2623,14,Improv_Melody,246,1,38,55,2535194724
2623,14,Improv_Melody,247,5,42,110,2535197404
2623,14,Improv_Melody,248,1,38,57,2535687944
2623,14,Improv_Melody,249,5,42,110,2535694568
2623,14,Improv_Melody,250,1,38,54,2536170140
2623,14,Improv_Melody,251,5,42,110,2536194488
2623,14,Improv_Melody,252,1,38,47,2536465168
2623,14,Improv_Melody,253,1,38,36,2536540324
2623,14,Improv_Melody,254,1,38,57,2536649804
2623,14,Improv_Melody,255,2,45,80,2536697844
2623,14,Improv_Melody,256,2,69,80,2536699848
2623,14,Improv_Melody,257,5,42,127,2536702460
2623,14,Improv_Melody,258,5,42,110,2537194764
2623,14,Improv_Melody,259,1,38,56,2537215756
2623,14,Improv_Melody,260,5,42,110,2537694540
2623,14,Improv_Melody,261,1,38,59,2537697884
2623,14,Improv_Melody,262,1,38,54,2538191476
2623,14,Improv_Melody,263,5,42,110,2538195256
2623,14,Improv_Melody,264,1,38,53,2538672256
2623,14,Improv_Melody,265,5,42,127,2538695104
2623,14,Improv_Melody,266,1,38,59,2539176364
2623,14,Improv_Melody,267,5,42,110,2539194656
2623,14,Improv_Melody,268,1,38,54,2539690356
2623,14,Improv_Melody,269,5,42,110,2539694504
2623,14,Improv_Melody,270,1,38,57,2540188480
2623,14,Improv_Melody,271,5,42,110,2540195104
2623,14,Improv_Melody,272,1,48,54,2540441400
2623,14,Improv_Melody,273,2,41,80,2540697592
2623,14,Improv_Melody,274,1,38,56,2540699232
2623,14,Improv_Melody,275,2,65,80,2540702592
2623,14,Improv_Melody,276,5,42,127,2540705056
2623,14,Improv_Melody,277,5,42,110,2541194588
2623,14,Improv_Melody,278,1,38,52,2541202872
2623,14,Improv_Melody,279,1,38,49,2541690580
2623,14,Improv_Melody,280,5,42,110,2541695332
2623,14,Improv_Melody,281,1,38,52,2542169788
2623,14,Improv_Melody,282,5,42,110,2542195180
2623,14,Improv_Melody,283,1,38,54,2542674276
2623,14,Improv_Melody,284,5,42,127,2542694660
2623,14,Improv_Melody,285,1,38,52,2543175172
2623,14,Improv_Melody,286,5,42,110,2543194436
2623,14,Improv_Melody,287,1,38,55,2543679664
2623,14,Improv_Melody,288,5,42,110,2543695108
2623,14,Improv_Melody,289,1,48,47,2543931376
2623,14,Improv_Melody,290,1,38,49,2544194112
2623,14,Improv_Melody,291,5,42,110,2544196880
2623,14,Improv_Melody,292,1,48,49,2544451252
2623,14,Improv_Melody,293,1,48,46,2544552360
2623,14,Improv_Melody,294,2,48,80,2544697324
2623,14,Improv_Melody,295,2,72,80,2544699480
2623,14,Improv_Melody,296,5,42,127,2544702088
2623,14,Improv_Melody,297,1,38,47,2544716952
2623,14,Improv_Melody,298,1,38,51,2545166212
2623,14,Improv_Melody,299,5,42,110,2545195276
2623,14,Improv_Melody,300,1,38,56,2545663892
2623,14,Improv_Melody,301,5,42,110,2545695052
2623,14,Improv_Melody,302,1,38,57,2546166736
2623,14,Improv_Melody,303,5,42,110,2546194976
2623,14,Improv_Melody,304,1,38,62,2546666516
2623,14,Improv_Melody,305,5,42,127,2546694752
2623,14,Improv_Melody,306,1,38,49,2546915316
2623,14,Improv_Melody,307,1,38,59,2547175616
2623,14,Improv_Melody,308,5,42,110,2547195324
2623,14,Improv_Melody,309,1,38,58,2547686836
2623,14,Improv_Melody,310,5,42,110,2547695176
2623,14,Improv_Melody,311,5,42,110,2548194660
2623,14,Improv_Melody,312,1,38,55,2548216476
2623,14,Improv_Melody,313,1,38,48,2548500264
2623,14,Improv_Melody,314,1,38,28,2548581772
2623,14,Improv_Melody,315,2,43,80,2548698068
2623,14,Improv_Melody,316,2,67,80,2548700144
2623,14,Improv_Melody,317,5,42,127,2548702928
2623,14,Improv_Melody,318,1,38,56,2548705900
2623,14,Improv_Melody,319,5,42,110,2549195052
2623,14,Improv_Melody,320,1,38,60,2549227288
2623,14,Improv_Melody,321,5,42,110,2549694904
2623,14,Improv_Melody,322,1,38,59,2549705204
2623,14,Improv_Melody,323,1,38,60,2550183484
2623,14,Improv_Melody,324,5,42,110,2550194820
2623,14,Improv_Melody,325,1,38,60,2550676608
2623,14,Improv_Melody,326,5,42,127,2550695344
2623,14,Improv_Melody,327,1,38,60,2551186628
2623,14,Improv_Melody,328,5,42,110,2551194892
2623,14,Improv_Melody,329,1,38,57,2551674804
2623,14,Improv_Melody,330,5,42,110,2551694668
2623,14,Improv_Melody,331,1,38,47,2551936920
2623,14,Improv_Melody,332,1,38,56,2552186156
2623,14,Improv_Melody,333,5,42,110,2552194348
2623,14,Improv_Melody,334,1,38,46,2552439372
2623,14,Improv_Melody,335,1,38,32,2552541624
2623,14,Improv_Melody,336,1,38,59,2552648556
2623,14,Improv_Melody,337,2,45,80,2552697776
2623,14,Improv_Melody,338,2,69,80,2552700008
2623,14,Improv_Melody,339,5,42,127,2552702540
2623,14,Improv_Melody,340,1,38,56,2553187620
2623,14,Improv_Melody,341,5,42,110,2553194764
2623,14,Improv_Melody,342,1,38,42,2553462900
2623,14,Improv_Melody,343,5,42,110,2553694448
2623,14,Improv_Melody,344,1,38,54,2553709764
2623,14,Improv_Melody,345,5,42,110,2554195268
2623,14,Improv_Melody,346,1,38,58,2554204144
2623,14,Improv_Melody,347,5,42,127,2554694968
2623,14,Improv_Melody,348,1,38,60,2554696604
2623,14,Improv_Melody,349,1,38,40,2554959656
2623,14,Improv_Melody,350,5,42,110,2555194720
2623,14,Improv_Melody,351,1,38,59,2555202400
2623,14,Improv_Melody,352,5,42,110,2555694496
2623,14,Improv_Melody,353,1,38,53,2555707864
2623,14,Improv_Melody,354,1,38,40,2555975564
2623,14,Improv_Melody,355,1,38,29,2556049524
2623,14,Improv_Melody,356,1,38,42,2556180720
2623,14,Improv_Melody,357,5,42,110,2556195192
2623,14,Improv_Melody,358,1,38,42,2556469236
2623,14,Improv_Melody,359,1,38,28,2556550376
2623,14,Improv_Melody,360,2,41,80,2556697436
2623,14,Improv_Melody,361,2,65,80,2556699668
2623,14,Improv_Melody,362,5,42,127,2556702348
2623,14,Improv_Melody,363,1,38,54,2556708912
2623,14,Improv_Melody,364,5,42,110,2557194496
2623,14,Improv_Melody,365,1,38,50,2557195980
2623,14,Improv_Melody,366,1,38,43,2557684500
2623,14,Improv_Melody,367,5,42,110,2557695384
2623,14,Improv_Melody,368,1,38,57,2557937340
2623,14,Improv_Melody,369,1,38,49,2558182756
2623,14,Improv_Melody,370,5,42,110,2558195060
2623,14,Improv_Melody,371,1,38,47,2558690388
2623,14,Improv_Melody,372,5,42,127,2558694760
2623,14,Improv_Melody,373,1,38,37,2558950108
2623,14,Improv_Melody,374,1,38,41,2559166552
2623,14,Improv_Melody,375,5,42,110,2559194412
2623,14,Improv_Melody,376,1,38,47,2559491276
2623,14,Improv_Melody,377,5,42,110,2559695416
2623,14,Improv_Melody,378,1,38,43,2559732824
2623,14,Improv_Melody,379,1,38,45,2559966188
2623,14,Improv_Melody,380,1,38,37,2560041420
2623,14,Improv_Melody,381,1,38,43,2560161224
2623,14,Improv_Melody,382,5,42,110,2560195068
2623,14,Improv_Melody,383,1,38,40,2560461040
2623,14,Improv_Melody,384,1,38,28,2560543392
2623,14,Improv_Melody,385,1,38,49,2560688180
2623,14,Improv_Melody,386,2,48,80,2560697156
2623,14,Improv_Melody,387,2,72,80,2560699232
2623,14,Improv_Melody,388,5,42,127,2560701624
2623,14,Improv_Melody,389,1,38,43,2561173008
2623,14,Improv_Melody,390,5,42,110,2561195336
2623,14,Improv_Melody,391,1,38,56,2561685872
2623,14,Improv_Melody,0,9999,9999,9999,2480692308
2623,14,Improv_Melody,1,9999,9999,9999,2481193056
2623,14,Improv_Melody,2,9999,9999,9999,2481692780
2623,14,Improv_Melody,3,9999,9999,9999,2482192500
2623,14,Improv_Melody,4,9999,9999,9999,2482692148
2623,14,Improv_Melody,5,9999,9999,9999,2483192916
2623,14,Improv_Melody,6,9999,9999,9999,2483692636
2623,14,Improv_Melody,7,9999,9999,9999,2484192336
2623,14,Improv_Melody,8,9999,9999,9999,2484693104
2623,14,Improv_Melody,9,9999,9999,9999,2485192764
2623,14,Improv_Melody,10,9999,9999,9999,2485692488
2623,14,Improv_Melody,11,9999,9999,9999,2486192208
2623,14,Improv_Melody,12,9999,9999,9999,2486692976
2623,14,Improv_Melody,13,9999,9999,9999,2487192696
2623,14,Improv_Melody,14,9999,9999,9999,2487692344
2623,14,Improv_Melody,15,9999,9999,9999,2488192068
2623,14,Improv_Melody,16,9999,9999,9999,2488692836
2623,14,Improv_Melody,17,9999,9999,9999,2489192496
2623,14,Improv_Melody,18,9999,9999,9999,2489692220
2623,14,Improv_Melody,19,9999,9999,9999,2490192984
2623,14,Improv_Melody,20,9999,9999,9999,2490692708
2623,14,Improv_Melody,21,9999,9999,9999,2491192428
2623,14,Improv_Melody,22,9999,9999,9999,2491692152
2623,14,Improv_Melody,23,9999,9999,9999,2492192844
2623,14,Improv_Melody,24,9999,9999,9999,2492692564
2623,14,Improv_Melody,25,9999,9999,9999,2493192300
2623,14,Improv_Melody,26,9999,9999,9999,2493692988
2623,14,Improv_Melody,27,9999,9999,9999,2494192696
2623,14,Improv_Melody,28,9999,9999,9999,2494692460
2623,14,Improv_Melody,29,9999,9999,9999,2495192136
2623,14,Improv_Melody,30,9999,9999,9999,2495692884
2623,14,Improv_Melody,31,9999,9999,9999,2496192584
2623,14,Improv_Melody,32,9999,9999,9999,2496692320
2623,14,Improv_Melody,33,9999,9999,9999,2497193080
2623,14,Improv_Melody,34,9999,9999,9999,2497692776
2623,14,Improv_Melody,35,9999,9999,9999,2498192476
2623,14,Improv_Melody,36,9999,9999,9999,2498692176
2623,14,Improv_Melody,37,9999,9999,9999,2499192920
2623,14,Improv_Melody,38,9999,9999,9999,2499692620
2623,14,Improv_Melody,39,9999,9999,9999,2500192320
2623,14,Improv_Melody,40,9999,9999,9999,2500693052
2623,14,Improv_Melody,41,9999,9999,9999,2501192760
2623,14,Improv_Melody,42,9999,9999,9999,2501692532
2623,14,Improv_Melody,43,9999,9999,9999,2502192232
2623,14,Improv_Melody,44,9999,9999,9999,2502692960
2623,14,Improv_Melody,45,9999,9999,9999,2503192660
2623,14,Improv_Melody,46,9999,9999,9999,2503692360
2623,14,Improv_Melody,47,9999,9999,9999,2504192060
2623,14,Improv_Melody,48,9999,9999,9999,2504692784
2623,14,Improv_Melody,49,9999,9999,9999,2505192496
2623,14,Improv_Melody,50,9999,9999,9999,2505692248
2623,14,Improv_Melody,51,9999,9999,9999,2506192972
2623,14,Improv_Melody,52,9999,9999,9999,2506692668
2623,14,Improv_Melody,53,9999,9999,9999,2507192404
2623,14,Improv_Melody,54,9999,9999,9999,2507692144
2623,14,Improv_Melody,55,9999,9999,9999,2508192816
2623,14,Improv_Melody,56,9999,9999,9999,2508692544
2623,14,Improv_Melody,57,9999,9999,9999,2509192260
2623,14,Improv_Melody,58,9999,9999,9999,2509693004
2623,14,Improv_Melody,59,9999,9999,9999,2510192704
2623,14,Improv_Melody,60,9999,9999,9999,2510692408
2623,14,Improv_Melody,61,9999,9999,9999,2511192180
2623,14,Improv_Melody,62,9999,9999,9999,2511692852
2623,14,Improv_Melody,63,9999,9999,9999,2512192628
2623,14,Improv_Melody,64,9999,9999,9999,2512692284
2623,14,Improv_Melody,65,9999,9999,9999,2513193036
2623,14,Improv_Melody,66,9999,9999,9999,2513692736
2623,14,Improv_Melody,67,9999,9999,9999,2514192440
2623,14,Improv_Melody,68,9999,9999,9999,2514692208
2623,14,Improv_Melody,69,9999,9999,9999,2515192952
2623,14,Improv_Melody,70,9999,9999,9999,2515692652
2623,14,Improv_Melody,71,9999,9999,9999,2516192360
2623,14,Improv_Melody,72,9999,9999,9999,2516693088
2623,14,Improv_Melody,73,9999,9999,9999,2517192808
2623,14,Improv_Melody,74,9999,9999,9999,2517692508
2623,14,Improv_Melody,75,9999,9999,9999,2518192204
2623,14,Improv_Melody,76,9999,9999,9999,2518692952
2623,14,Improv_Melody,77,9999,9999,9999,2519192648
2623,14,Improv_Melody,78,9999,9999,9999,2519692352
2623,14,Improv_Melody,79,9999,9999,9999,2520192056
2623,14,Improv_Melody,80,9999,9999,9999,2520692856
2623,14,Improv_Melody,81,9999,9999,9999,2521192560
2623,14,Improv_Melody,82,9999,9999,9999,2521692268
2623,14,Improv_Melody,83,9999,9999,9999,2522193008
2623,14,Improv_Melody,84,9999,9999,9999,2522692708
2623,14,Improv_Melody,85,9999,9999,9999,2523192408
2623,14,Improv_Melody,86,9999,9999,9999,2523692108
2623,14,Improv_Melody,87,9999,9999,9999,2524192852
2623,14,Improv_Melody,88,9999,9999,9999,2524692584
2623,14,Improv_Melody,89,9999,9999,9999,2525192300
2623,14,Improv_Melody,90,9999,9999,9999,2525693044
2623,14,Improv_Melody,91,9999,9999,9999,2526192744
2623,14,Improv_Melody,92,9999,9999,9999,2526692444
2623,14,Improv_Melody,93,9999,9999,9999,2527192120
2623,14,Improv_Melody,94,9999,9999,9999,2527692868
2623,14,Improv_Melody,95,9999,9999,9999,2528192596
2623,14,Improv_Melody,96,9999,9999,9999,2528692328
2623,14,Improv_Melody,97,9999,9999,9999,2529193052
2623,14,Improv_Melody,98,9999,9999,9999,2529692764
2623,14,Improv_Melody,99,9999,9999,9999,2530192464
2623,14,Improv_Melody,100,9999,9999,9999,2530692168
2623,14,Improv_Melody,101,9999,9999,9999,2531192920
2623,14,Improv_Melody,102,9999,9999,9999,2531692612
2623,14,Improv_Melody,103,9999,9999,9999,2532192372
2623,14,Improv_Melody,104,9999,9999,9999,2532693096
2623,14,Improv_Melody,105,9999,9999,9999,2533192808
2623,14,Improv_Melody,106,9999,9999,9999,2533692504
2623,14,Improv_Melody,107,9999,9999,9999,2534192204
2623,14,Improv_Melody,108,9999,9999,9999,2534692948
2623,14,Improv_Melody,109,9999,9999,9999,2535192656
2623,14,Improv_Melody,110,9999,9999,9999,2535692348
2623,14,Improv_Melody,111,9999,9999,9999,2536192048
2623,14,Improv_Melody,112,9999,9999,9999,2536692824
2623,14,Improv_Melody,113,9999,9999,9999,2537192548
2623,14,Improv_Melody,114,9999,9999,9999,2537692224
2623,14,Improv_Melody,115,9999,9999,9999,2538192964
2623,14,Improv_Melody,116,9999,9999,9999,2538692664
2623,14,Improv_Melody,117,9999,9999,9999,2539192440
2623,14,Improv_Melody,118,9999,9999,9999,2539692140
2623,14,Improv_Melody,119,9999,9999,9999,2540192888
2623,14,Improv_Melody,120,9999,9999,9999,2540692572
2623,14,Improv_Melody,121,9999,9999,9999,2541192300
2623,14,Improv_Melody,122,9999,9999,9999,2541693040
2623,14,Improv_Melody,123,9999,9999,9999,2542192740
2623,14,Improv_Melody,124,9999,9999,9999,2542692444
2623,14,Improv_Melody,125,9999,9999,9999,2543192144
2623,14,Improv_Melody,126,9999,9999,9999,2543692892
2623,14,Improv_Melody,127,9999,9999,9999,2544192576
2623,14,Improv_Melody,128,9999,9999,9999,2544692304
2623,14,Improv_Melody,129,9999,9999,9999,2545193060
2623,14,Improv_Melody,130,9999,9999,9999,2545692760
2623,14,Improv_Melody,131,9999,9999,9999,2546192460
2623,14,Improv_Melody,132,9999,9999,9999,2546692160
2623,14,Improv_Melody,133,9999,9999,9999,2547192888
2623,14,Improv_Melody,134,9999,9999,9999,2547692660
2623,14,Improv_Melody,135,9999,9999,9999,2548192368
2623,14,Improv_Melody,136,9999,9999,9999,2548693044
2623,14,Improv_Melody,137,9999,9999,9999,2549192760
2623,14,Improv_Melody,138,9999,9999,9999,2549692536
2623,14,Improv_Melody,139,9999,9999,9999,2550192228
2623,14,Improv_Melody,140,9999,9999,9999,2550692976
2623,14,Improv_Melody,141,9999,9999,9999,2551192676
2623,14,Improv_Melody,142,9999,9999,9999,2551692376
2623,14,Improv_Melody,143,9999,9999,9999,2552192056
2623,14,Improv_Melody,144,9999,9999,9999,2552692832
2623,14,Improv_Melody,145,9999,9999,9999,2553192544
2623,14,Improv_Melody,146,9999,9999,9999,2553692232
2623,14,Improv_Melody,147,9999,9999,9999,2554192976
2623,14,Improv_Melody,148,9999,9999,9999,2554692676
2623,14,Improv_Melody,149,9999,9999,9999,2555192428
2623,14,Improv_Melody,150,9999,9999,9999,2555692128
2623,14,Improv_Melody,151,9999,9999,9999,2556192828
2623,14,Improv_Melody,152,9999,9999,9999,2556692564
2623,14,Improv_Melody,153,9999,9999,9999,2557192280
2623,14,Improv_Melody,154,9999,9999,9999,2557693020
2623,14,Improv_Melody,155,9999,9999,9999,2558192696
2623,14,Improv_Melody,156,9999,9999,9999,2558692472
2623,14,Improv_Melody,157,9999,9999,9999,2559192124
2623,14,Improv_Melody,158,9999,9999,9999,2559692904
2623,14,Improv_Melody,159,9999,9999,9999,2560192628
2623,14,Improv_Melody,160,9999,9999,9999,2560692284
2623,14,Improv_Melody,161,9999,9999,9999,2561193044
26