pid,taskRunCount,taskID,taskName,i,channel,pitch,velocity,microseconds
1,0,Ticks_Pract_8,0,5,42,127,87000608
201,0,Ticks_Pract_8,1,5,42,127,87801704
201,0,Ticks_Pract_8,2,5,42,127,88600792
201,0,Ticks_Pract_8,3,1,38,15,89300592
201,0,Ticks_Pract_8,4,5,42,127,89400548
201,0,Ticks_Pract_8,5,1,38,38,90073668
201,0,Ticks_Pract_8,6,5,42,127,90200504
201,0,Ticks_Pract_8,7,1,38,38,90959524
201,0,Ticks_Pract_8,8,5,42,127,91001224
201,0,Ticks_Pract_8,9,1,38,37,91791888
201,0,Ticks_Pract_8,10,5,42,127,91800884
201,0,Ticks_Pract_8,11,1,38,45,92595356
201,0,Ticks_Pract_8,12,5,42,127,92600692
201,0,Ticks_Pract_8,13,5,42,127,93400356
201,0,Ticks_Pract_8,14,1,38,35,93402440
201,0,Ticks_Pract_8,15,5,42,127,94201060
201,0,Ticks_Pract_8,16,1,38,39,94207384
201,0,Ticks_Pract_8,17,5,42,127,95001092
201,0,Ticks_Pract_8,18,1,38,47,95004728
201,0,Ticks_Pract_8,19,1,38,48,95775992
201,0,Ticks_Pract_8,20,5,42,127,95800620
201,0,Ticks_Pract_8,21,5,42,127,96600432
201,0,Ticks_Pract_8,22,1,38,44,96634828
201,0,Ticks_Pract_8,23,1,38,48,97375032
201,0,Ticks_Pract_8,24,5,42,127,97401056
201,0,Ticks_Pract_8,25,1,38,35,98171556
201,0,Ticks_Pract_8,26,5,42,127,98200864
201,0,Ticks_Pract_8,27,1,38,33,98978984
201,0,Ticks_Pract_8,28,5,42,127,99000820
201,0,Ticks_Pract_8,29,1,38,42,99742644
201,0,Ticks_Pract_8,30,5,42,127,99800624
201,0,Ticks_Pract_8,31,1,38,30,100579044
201,0,Ticks_Pract_8,32,5,42,127,100601184
201,0,Ticks_Pract_8,33,1,38,29,101374592
201,0,Ticks_Pract_8,34,5,42,127,101400840
201,0,Ticks_Pract_8,35,1,38,42,102119744
201,0,Ticks_Pract_8,36,5,42,127,102200968
201,0,Ticks_Pract_8,37,1,38,43,102971772
201,0,Ticks_Pract_8,38,5,42,127,103000628
201,0,Ticks_Pract_8,39,5,42,127,103801040
201,0,Ticks_Pract_8,40,1,38,26,103809456
201,0,Ticks_Pract_8,41,1,38,45,104548464
201,0,Ticks_Pract_8,42,5,42,127,104601064
201,0,Ticks_Pract_8,43,1,38,43,105387324
201,0,Ticks_Pract_8,44,5,42,127,105400648
201,0,Ticks_Pract_8,45,1,38,30,106196756
201,0,Ticks_Pract_8,46,5,42,127,106200528
201,0,Ticks_Pract_8,47,1,38,42,106996492
201,0,Ticks_Pract_8,48,5,42,127,107001160
201,0,Ticks_Pract_8,49,5,42,127,107801048
201,0,Ticks_Pract_8,50,1,38,33,107826964
201,0,Ticks_Pract_8,51,5,42,127,108600660
201,0,Ticks_Pract_8,52,1,38,21,108619676
201,0,Ticks_Pract_8,53,5,42,127,109400392
201,0,Ticks_Pract_8,54,1,38,38,109408288
201,0,Ticks_Pract_8,55,1,38,45,110185820
201,0,Ticks_Pract_8,56,5,42,127,110201460
201,0,Ticks_Pract_8,0,9999,9999,9999,86998100
201,0,Ticks_Pract_8,1,9999,9999,9999,87798900
201,0,Ticks_Pract_8,2,9999,9999,9999,88598580
201,0,Ticks_Pract_8,3,9999,9999,9999,89398340
201,0,Ticks_Pract_8,4,9999,9999,9999,90198072
201,0,Ticks_Pract_8,5,9999,9999,9999,90998868
201,0,Ticks_Pract_8,6,9999,9999,9999,91798600
201,0,Ticks_Pract_8,7,9999,9999,9999,92598332
201,0,Ticks_Pract_8,8,9999,9999,9999,93398072
201,0,Ticks_Pract_8,9,9999,9999,9999,94198848
201,0,Ticks_Pract_8,10,9999,9999,9999,94998584
201,0,Ticks_Pract_8,11,9999,9999,9999,95798332
201,0,Ticks_Pract_8,12,9999,9999,9999,96598072
201,0,Ticks_Pract_8,13,9999,9999,9999,97398844
201,0,Ticks_Pract_8,14,9999,9999,9999,98198580
201,0,Ticks_Pract_8,15,9999,9999,9999,98998388
201,0,Ticks_Pract_8,16,9999,9999,9999,99798120
201,0,Ticks_Pract_8,17,9999,9999,9999,100598896
201,0,Ticks_Pract_8,18,9999,9999,9999,101398628
201,0,Ticks_Pract_8,19,9999,9999,9999,102198388
201,0,Ticks_Pract_8,20,9999,9999,9999,102998120
201,0,Ticks_Pract_8,21,9999,9999,9999,103798832
201,0,Ticks_Pract_8,22,9999,9999,9999,104598632
201,0,Ticks_Pract_8,23,9999,9999,9999,105398364
201,0,Ticks_Pract_8,24,9999,9999,9999,106198096
201,0,Ticks_Pract_8,25,9999,9999,9999,106998876
201,0,Ticks_Pract_8,26,9999,9999,9999,107798612
201,0,Ticks_Pract_8,27,9999,9999,9999,108598372
201,0,Ticks_Pract_8,28,9999,9999,9999,109398104
201,0,Ticks_Pract_8,29,9999,9999,9999,110198880
202,1,Ticks_Pract_5,0,5,42,127,146311636
202,1,Ticks_Pract_5,1,5,42,127,146812156
202,1,Ticks_Pract_5,2,1,48,34,146896140
202,1,Ticks_Pract_5,3,5,42,127,147311832
202,1,Ticks_Pract_5,4,1,48,25,147342500
202,1,Ticks_Pract_5,5,1,48,26,147747176
202,1,Ticks_Pract_5,6,5,42,127,147811652
202,1,Ticks_Pract_5,7,1,48,21,148241152
202,1,Ticks_Pract_5,8,5,42,127,148312520
202,1,Ticks_Pract_5,9,1,48,29,148747848
202,1,Ticks_Pract_5,10,5,42,127,148812196
202,1,Ticks_Pract_5,11,1,48,27,149284284
202,1,Ticks_Pract_5,12,5,42,127,149311800
202,1,Ticks_Pract_5,13,1,48,27,149776240
202,1,Ticks_Pract_5,14,5,42,127,149811624
202,1,Ticks_Pract_5,15,1,48,31,150267636
202,1,Ticks_Pract_5,16,5,42,127,150312568
202,1,Ticks_Pract_5,17,1,48,29,150782540
202,1,Ticks_Pract_5,18,5,42,127,150811924
202,1,Ticks_Pract_5,19,1,48,29,151251008
202,1,Ticks_Pract_5,20,5,42,127,151311600
202,1,Ticks_Pract_5,21,1,48,29,151791004
202,1,Ticks_Pract_5,22,5,42,127,151811500
202,1,Ticks_Pract_5,23,1,48,32,152257604
202,1,Ticks_Pract_5,24,5,42,127,152312368
202,1,Ticks_Pract_5,25,1,48,35,152804244
202,1,Ticks_Pract_5,26,5,42,127,152811820
202,1,Ticks_Pract_5,27,5,42,127,153311504
202,1,Ticks_Pract_5,28,1,48,28,153315064
202,1,Ticks_Pract_5,29,1,48,33,153759020
202,1,Ticks_Pract_5,30,5,42,127,153812440
202,1,Ticks_Pract_5,31,1,48,32,154308952
202,1,Ticks_Pract_5,32,5,42,127,154312116
202,1,Ticks_Pract_5,33,1,48,32,154761804
202,1,Ticks_Pract_5,34,5,42,127,154811792
202,1,Ticks_Pract_5,35,5,42,127,155311400
202,1,Ticks_Pract_5,36,1,48,29,155314136
202,1,Ticks_Pract_5,37,1,48,30,155812272
202,1,Ticks_Pract_5,38,5,42,127,155813756
202,1,Ticks_Pract_5,39,5,42,127,156311872
202,1,Ticks_Pract_5,40,1,48,28,156331712
202,1,Ticks_Pract_5,41,1,48,33,156780516
202,1,Ticks_Pract_5,42,5,42,127,156811616
202,1,Ticks_Pract_5,43,1,48,27,157279376
202,1,Ticks_Pract_5,44,5,42,127,157312336
202,1,Ticks_Pract_5,45,1,48,32,157770988
202,1,Ticks_Pract_5,46,5,42,127,157812236
202,1,Ticks_Pract_5,47,1,48,29,158252588
202,1,Ticks_Pract_5,48,5,42,127,158311764
202,1,Ticks_Pract_5,49,1,48,29,158784148
202,1,Ticks_Pract_5,50,5,42,127,158811440
202,1,Ticks_Pract_5,51,1,48,32,159249532
202,1,Ticks_Pract_5,52,5,42,127,159312164
202,1,Ticks_Pract_5,53,1,48,24,159753388
202,1,Ticks_Pract_5,54,5,42,127,159812060
202,1,Ticks_Pract_5,55,1,48,30,160245968
202,1,Ticks_Pract_5,56,5,42,127,160311512
202,1,Ticks_Pract_5,57,1,48,29,160757072
202,1,Ticks_Pract_5,58,5,42,127,160812456
202,1,Ticks_Pract_5,59,1,48,29,161240836
202,1,Ticks_Pract_5,60,5,42,127,161312184
202,1,Ticks_Pract_5,61,1,48,25,161748480
202,1,Ticks_Pract_5,62,5,42,127,161811836
202,1,Ticks_Pract_5,63,1,48,30,162217468
202,1,Ticks_Pract_5,64,5,42,127,162311512
202,1,Ticks_Pract_5,65,1,48,33,162726176
202,1,Ticks_Pract_5,66,5,42,127,162812308
202,1,Ticks_Pract_5,67,1,48,30,163247956
202,1,Ticks_Pract_5,68,5,42,127,163311912
202,1,Ticks_Pract_5,69,1,48,29,163740692
202,1,Ticks_Pract_5,70,5,42,127,163811960
202,1,Ticks_Pract_5,71,1,48,32,164258212
202,1,Ticks_Pract_5,72,5,42,127,164312532
202,1,Ticks_Pract_5,73,1,48,27,164797692
202,1,Ticks_Pract_5,74,5,42,127,164812208
202,1,Ticks_Pract_5,75,5,42,127,165311816
202,1,Ticks_Pract_5,76,1,48,35,165342484
202,1,Ticks_Pract_5,77,1,48,32,165808168
202,1,Ticks_Pract_5,78,5,42,127,165811784
202,1,Ticks_Pract_5,79,1,48,28,166286036
202,1,Ticks_Pract_5,0,9999,9999,9999,146309208
202,1,Ticks_Pract_5,1,9999,9999,9999,146809948
202,1,Ticks_Pract_5,2,9999,9999,9999,147309624
202,1,Ticks_Pract_5,3,9999,9999,9999,147809368
202,1,Ticks_Pract_5,4,9999,9999,9999,148310092
202,1,Ticks_Pract_5,5,9999,9999,9999,148809840
202,1,Ticks_Pract_5,6,9999,9999,9999,149309516
202,1,Ticks_Pract_5,7,9999,9999,9999,149809268
202,1,Ticks_Pract_5,8,9999,9999,9999,150309988
202,1,Ticks_Pract_5,9,9999,9999,9999,150809712
202,1,Ticks_Pract_5,10,9999,9999,9999,151309392
202,1,Ticks_Pract_5,11,9999,9999,9999,151809144
202,1,Ticks_Pract_5,12,9999,9999,9999,152309864
202,1,Ticks_Pract_5,13,9999,9999,9999,152809540
202,1,Ticks_Pract_5,14,9999,9999,9999,153309296
202,1,Ticks_Pract_5,15,9999,9999,9999,153810012
202,1,Ticks_Pract_5,16,9999,9999,9999,154309688
202,1,Ticks_Pract_5,17,9999,9999,9999,154809436
202,1,Ticks_Pract_5,18,9999,9999,9999,155309120
202,1,Ticks_Pract_5,19,9999,9999,9999,155809840
202,1,Ticks_Pract_5,20,9999,9999,9999,156309588
202,1,Ticks_Pract_5,21,9999,9999,9999,156809336
202,1,Ticks_Pract_5,22,9999,9999,9999,157310056
202,1,Ticks_Pract_5,23,9999,9999,9999,157809732
202,1,Ticks_Pract_5,24,9999,9999,9999,158309480
202,1,Ticks_Pract_5,25,9999,9999,9999,158809160
202,1,Ticks_Pract_5,26,9999,9999,9999,159309880
202,1,Ticks_Pract_5,27,9999,9999,9999,159809632
202,1,Ticks_Pract_5,28,9999,9999,9999,160309304
202,1,Ticks_Pract_5,29,9999,9999,9999,160810100
202,1,Ticks_Pract_5,30,9999,9999,9999,161309752
202,1,Ticks_Pract_5,31,9999,9999,9999,161809480
202,1,Ticks_Pract_5,32,9999,9999,9999,162309232
202,1,Ticks_Pract_5,33,9999,9999,9999,162809952
202,1,Ticks_Pract_5,34,9999,9999,9999,163309628
202,1,Ticks_Pract_5,35,9999,9999,9999,163809380
202,1,Ticks_Pract_5,36,9999,9999,9999,164310100
202,1,Ticks_Pract_5,37,9999,9999,9999,164809776
202,1,Ticks_Pract_5,38,9999,9999,9999,165309532
202,1,Ticks_Pract_5,39,9999,9999,9999,165809204
203,2,T1_SMS_8,0,5,42,127,231266804
203,2,T1_SMS_8,1,1,48,34,231740028
203,2,T1_SMS_8,2,5,42,127,232066392
203,2,T1_SMS_8,3,1,48,32,232458720
203,2,T1_SMS_8,4,5,42,127,232867244
203,2,T1_SMS_8,5,1,48,30,233300736
203,2,T1_SMS_8,6,5,42,127,233666900
203,2,T1_SMS_8,7,5,42,127,234466656
203,2,T1_SMS_8,8,1,48,38,235256508
203,2,T1_SMS_8,9,5,42,127,235266552
203,2,T1_SMS_8,10,1,48,32,236062096
203,2,T1_SMS_8,11,5,42,127,236067280
203,2,T1_SMS_8,12,1,48,38,236825432
203,2,T1_SMS_8,13,5,42,127,236866940
203,2,T1_SMS_8,14,5,42,127,237666604
203,2,T1_SMS_8,15,1,48,38,237668308
203,2,T1_SMS_8,16,1,48,37,238460172
203,2,T1_SMS_8,17,5,42,127,238466480
203,2,T1_SMS_8,18,1,48,38,239201288
203,2,T1_SMS_8,19,5,42,127,239267328
203,2,T1_SMS_8,20,1,48,29,240058964
203,2,T1_SMS_8,21,5,42,127,240066916
203,2,T1_SMS_8,22,5,42,127,240866780
203,2,T1_SMS_8,23,1,48,28,240896772
203,2,T1_SMS_8,24,5,42,127,241666360
203,2,T1_SMS_8,25,1,48,31,241709224
203,2,T1_SMS_8,26,5,42,127,242467240
203,2,T1_SMS_8,27,1,48,31,242482144
203,2,T1_SMS_8,28,1,48,37,243251696
203,2,T1_SMS_8,29,5,42,127,243266892
203,2,T1_SMS_8,30,1,48,35,244040380
203,2,T1_SMS_8,31,5,42,127,244066552
203,2,T1_SMS_8,32,5,42,127,244866440
203,2,T1_SMS_8,33,5,42,127,245667164
203,2,T1_SMS_8,34,5,42,127,246466992
203,2,T1_SMS_8,35,1,48,25,246498256
203,2,T1_SMS_8,36,5,42,127,247266652
203,2,T1_SMS_8,37,1,48,34,247270660
203,2,T1_SMS_8,38,1,48,34,248033936
203,2,T1_SMS_8,39,5,42,127,248066528
203,2,T1_SMS_8,40,1,48,35,248858040
203,2,T1_SMS_8,41,5,42,127,248867108
203,2,T1_SMS_8,42,1,48,32,249650380
203,2,T1_SMS_8,43,5,42,127,249666992
203,2,T1_SMS_8,44,1,48,35,250446676
203,2,T1_SMS_8,45,5,42,127,250466652
203,2,T1_SMS_8,46,1,48,38,251219752
203,2,T1_SMS_8,47,5,42,127,251266532
203,2,T1_SMS_8,48,5,42,127,252067244
203,2,T1_SMS_8,49,1,48,38,252077824
203,2,T1_SMS_8,50,1,48,36,252845132
203,2,T1_SMS_8,51,5,42,127,252866896
203,2,T1_SMS_8,52,1,48,38,253619996
203,2,T1_SMS_8,53,5,42,127,253666552
203,2,T1_SMS_8,54,1,48,32,254368132
203,2,T1_SMS_8,55,5,42,127,254466716
203,2,T1_SMS_8,56,1,48,40,255204824
203,2,T1_SMS_8,57,5,42,127,255267164
203,2,T1_SMS_8,58,1,48,30,256059020
203,2,T1_SMS_8,59,5,42,127,256067044
203,2,T1_SMS_8,60,1,48,34,256844192
203,2,T1_SMS_8,61,5,42,127,256866632
203,2,T1_SMS_8,62,1,48,38,257551156
203,2,T1_SMS_8,63,5,42,127,257666276
203,2,T1_SMS_8,64,5,42,127,258467296
203,2,T1_SMS_8,65,1,48,32,258546648
203,2,T1_SMS_8,66,1,48,30,259228908
203,2,T1_SMS_8,67,5,42,127,259266800
203,2,T1_SMS_8,68,5,42,127,260066688
203,2,T1_SMS_8,69,1,48,30,260145244
203,2,T1_SMS_8,70,1,48,32,260824784
203,2,T1_SMS_8,71,5,42,127,260866340
203,2,T1_SMS_8,72,1,48,38,261540216
203,2,T1_SMS_8,73,5,42,127,261667132
203,2,T1_SMS_8,74,1,48,35,262369300
203,2,T1_SMS_8,75,5,42,127,262466864
203,2,T1_SMS_8,76,1,48,32,263258216
203,2,T1_SMS_8,77,5,42,127,263266608
203,2,T1_SMS_8,78,5,42,127,264066424
203,2,T1_SMS_8,79,1,48,36,264106572
203,2,T1_SMS_8,80,1,48,33,264822580
203,2,T1_SMS_8,81,5,42,127,264867272
203,2,T1_SMS_8,82,1,48,35,265592592
203,2,T1_SMS_8,83,5,42,127,265666928
203,2,T1_SMS_8,84,1,48,36,266416228
203,2,T1_SMS_8,85,5,42,127,266466736
203,2,T1_SMS_8,86,5,42,127,267266404
203,2,T1_SMS_8,87,1,48,31,267279144
203,2,T1_SMS_8,88,1,48,35,268034804
203,2,T1_SMS_8,89,5,42,127,268067048
203,2,T1_SMS_8,90,1,48,37,268818332
203,2,T1_SMS_8,91,5,42,127,268866932
203,2,T1_SMS_8,92,1,48,35,269633996
203,2,T1_SMS_8,93,5,42,127,269666960
203,2,T1_SMS_8,94,1,48,36,270420736
203,2,T1_SMS_8,95,5,42,127,270466472
203,2,T1_SMS_8,96,1,48,23,271232416
203,2,T1_SMS_8,97,5,42,127,271267176
203,2,T1_SMS_8,98,5,42,127,272066912
203,2,T1_SMS_8,99,1,48,26,272109752
203,2,T1_SMS_8,100,5,42,127,272866868
203,2,T1_SMS_8,101,1,48,29,272894176
203,2,T1_SMS_8,102,5,42,127,273666528
203,2,T1_SMS_8,103,1,48,34,273700132
203,2,T1_SMS_8,104,1,48,29,274453900
203,2,T1_SMS_8,105,5,42,127,274467104
203,2,T1_SMS_8,106,1,48,32,275230580
203,2,T1_SMS_8,107,5,42,127,275266908
203,2,T1_SMS_8,108,1,48,23,276045548
203,2,T1_SMS_8,109,5,42,127,276066568
203,2,T1_SMS_8,110,1,48,18,276795320
203,2,T1_SMS_8,111,5,42,127,276866672
203,2,T1_SMS_8,112,5,42,127,277667160
203,2,T1_SMS_8,113,1,48,27,277708208
203,2,T1_SMS_8,114,5,42,127,278466820
203,2,T1_SMS_8,115,1,48,30,278521084
203,2,T1_SMS_8,116,5,42,127,279266776
203,2,T1_SMS_8,117,1,48,29,279384460
203,2,T1_SMS_8,118,5,42,127,280066584
203,2,T1_SMS_8,119,1,48,35,280815368
203,2,T1_SMS_8,120,5,42,127,280867324
203,2,T1_SMS_8,121,1,48,37,281600468
203,2,T1_SMS_8,122,5,42,127,281666836
203,2,T1_SMS_8,123,1,48,34,282426056
203,2,T1_SMS_8,124,5,42,127,282466568
203,2,T1_SMS_8,125,5,42,127,283266380
203,2,T1_SMS_8,126,1,48,34,283281888
203,2,T1_SMS_8,127,1,48,37,284066704
203,2,T1_SMS_8,128,5,42,127,284068420
203,2,T1_SMS_8,129,5,42,127,284866892
203,2,T1_SMS_8,130,1,48,29,284907940
203,2,T1_SMS_8,131,5,42,127,285666624
203,2,T1_SMS_8,132,1,48,37,285856216
203,2,T1_SMS_8,133,5,42,127,286466356
203,2,T1_SMS_8,134,5,42,127,287267032
203,2,T1_SMS_8,135,1,48,35,287514420
203,2,T1_SMS_8,136,5,42,127,288067212
203,2,T1_SMS_8,137,1,48,27,288103104
203,2,T1_SMS_8,138,1,48,32,288825464
203,2,T1_SMS_8,139,5,42,127,288866568
203,2,T1_SMS_8,140,5,42,127,289666384
203,2,T1_SMS_8,141,1,48,23,289734232
203,2,T1_SMS_8,142,5,42,127,290467084
203,2,T1_SMS_8,143,1,48,25,290540312
203,2,T1_SMS_8,144,5,42,127,291267040
203,2,T1_SMS_8,145,1,48,30,291296588
203,2,T1_SMS_8,146,1,48,25,292003932
203,2,T1_SMS_8,147,5,42,127,292066692
203,2,T1_SMS_8,148,1,48,36,292839880
203,2,T1_SMS_8,149,5,42,127,292866352
203,2,T1_SMS_8,150,1,48,33,293641104
203,2,T1_SMS_8,151,5,42,127,293667152
203,2,T1_SMS_8,152,1,48,32,294426980
203,2,T1_SMS_8,153,5,42,127,294466888
203,2,T1_SMS_8,154,1,48,30,295179716
203,2,T1_SMS_8,155,5,42,127,295266840
203,2,T1_SMS_8,156,1,48,25,296021736
203,2,T1_SMS_8,157,5,42,127,296066352
203,2,T1_SMS_8,158,1,48,25,296777044
203,2,T1_SMS_8,159,5,42,127,296867132
203,2,T1_SMS_8,160,1,48,34,297576320
203,2,T1_SMS_8,161,5,42,127,297666936
203,2,T1_SMS_8,162,1,48,33,298395544
203,2,T1_SMS_8,163,5,42,127,298466744
203,2,T1_SMS_8,164,1,48,29,299223876
203,2,T1_SMS_8,165,5,42,127,299266552
203,2,T1_SMS_8,166,5,42,127,300067216
203,2,T1_SMS_8,167,1,48,22,300069728
203,2,T1_SMS_8,168,1,48,27,300811328
203,2,T1_SMS_8,169,5,42,127,300866944
203,2,T1_SMS_8,170,1,48,28,301587764
203,2,T1_SMS_8,171,5,42,127,301666600
203,2,T1_SMS_8,172,1,48,19,302335448
203,2,T1_SMS_8,173,5,42,127,302466320
203,2,T1_SMS_8,174,1,48,21,303155444
203,2,T1_SMS_8,175,5,42,127,303267544
203,2,T1_SMS_8,176,1,48,28,303945464
203,2,T1_SMS_8,177,5,42,127,304067052
203,2,T1_SMS_8,178,1,48,31,304834208
203,2,T1_SMS_8,179,5,42,127,304866800
203,2,T1_SMS_8,180,1,48,34,305625284
203,2,T1_SMS_8,181,5,42,127,305666460
203,2,T1_SMS_8,182,1,48,32,306407096
203,2,T1_SMS_8,183,5,42,127,306467336
203,2,T1_SMS_8,184,1,48,33,307263972
203,2,T1_SMS_8,185,5,42,127,307266848
203,2,T1_SMS_8,186,5,42,127,308066736
203,2,T1_SMS_8,187,1,48,33,308075748
203,2,T1_SMS_8,188,1,48,30,308823196
203,2,T1_SMS_8,189,5,42,127,308866316
203,2,T1_SMS_8,190,1,48,26,309648312
203,2,T1_SMS_8,191,5,42,127,309667168
203,2,T1_SMS_8,192,1,48,30,310380920
203,2,T1_SMS_8,193,5,42,127,310467124
203,2,T1_SMS_8,194,1,48,30,311133312
203,2,T1_SMS_8,195,5,42,127,311266544
203,2,T1_SMS_8,196,1,48,20,312056620
203,2,T1_SMS_8,197,5,42,127,312066292
203,2,T1_SMS_8,198,1,48,27,312796016
203,2,T1_SMS_8,199,5,42,127,312867168
203,2,T1_SMS_8,200,1,48,29,313621016
203,2,T1_SMS_8,201,5,42,127,313666976
203,2,T1_SMS_8,202,1,48,30,314434412
203,2,T1_SMS_8,203,5,42,127,314466784
203,2,T1_SMS_8,204,1,48,30,315211668
203,2,T1_SMS_8,205,5,42,127,315266368
203,2,T1_SMS_8,206,1,48,26,316030596
203,2,T1_SMS_8,207,5,42,127,316067220
203,2,T1_SMS_8,208,1,48,26,316814196
203,2,T1_SMS_8,209,5,42,127,316866876
203,2,T1_SMS_8,210,1,48,21,317648800
203,2,T1_SMS_8,211,5,42,127,317666608
203,2,T1_SMS_8,212,5,42,127,318466572
203,2,T1_SMS_8,213,1,48,30,318511528
203,2,T1_SMS_8,214,1,48,29,319266320
203,2,T1_SMS_8,215,5,42,127,319267968
203,2,T1_SMS_8,216,5,42,127,320066888
203,2,T1_SMS_8,217,1,48,32,320213812
203,2,T1_SMS_8,218,5,42,127,320866620
203,2,T1_SMS_8,219,1,48,30,320876448
203,2,T1_SMS_8,220,1,48,32,321664232
203,2,T1_SMS_8,221,5,42,127,321666424
203,2,T1_SMS_8,222,1,48,35,322432816
203,2,T1_SMS_8,223,5,42,127,322467052
203,2,T1_SMS_8,224,1,48,29,323258908
203,2,T1_SMS_8,225,5,42,127,323266860
203,2,T1_SMS_8,226,1,48,31,324054460
203,2,T1_SMS_8,227,5,42,127,324066592
203,2,T1_SMS_8,228,1,48,35,324823280
203,2,T1_SMS_8,229,5,42,127,324866476
203,2,T1_SMS_8,230,1,48,36,325573280
203,2,T1_SMS_8,231,5,42,127,325667204
203,2,T1_SMS_8,232,1,48,29,326436360
203,2,T1_SMS_8,233,5,42,127,326466788
203,2,T1_SMS_8,0,9999,9999,9999,231264368
203,2,T1_SMS_8,1,9999,9999,9999,232064104
203,2,T1_SMS_8,2,9999,9999,9999,232864880
203,2,T1_SMS_8,3,9999,9999,9999,233664612
203,2,T1_SMS_8,4,9999,9999,9999,234464368
203,2,T1_SMS_8,5,9999,9999,9999,235264116
203,2,T1_SMS_8,6,9999,9999,9999,236064844
203,2,T1_SMS_8,7,9999,9999,9999,236864576
203,2,T1_SMS_8,8,9999,9999,9999,237664316
203,2,T1_SMS_8,9,9999,9999,9999,238464116
203,2,T1_SMS_8,10,9999,9999,9999,239264820
203,2,T1_SMS_8,11,9999,9999,9999,240064628
203,2,T1_SMS_8,12,9999,9999,9999,240864340
203,2,T1_SMS_8,13,9999,9999,9999,241664072
203,2,T1_SMS_8,14,9999,9999,9999,242464876
203,2,T1_SMS_8,15,9999,9999,9999,243264604
203,2,T1_SMS_8,16,9999,9999,9999,244064336
203,2,T1_SMS_8,17,9999,9999,9999,244864076
203,2,T1_SMS_8,18,9999,9999,9999,245664876
203,2,T1_SMS_8,19,9999,9999,9999,246464632
203,2,T1_SMS_8,20,9999,9999,9999,247264364
203,2,T1_SMS_8,21,9999,9999,9999,248064092
203,2,T1_SMS_8,22,9999,9999,9999,248864820
203,2,T1_SMS_8,23,9999,9999,9999,249664628
203,2,T1_SMS_8,24,9999,9999,9999,250464364
203,2,T1_SMS_8,25,9999,9999,9999,251264096
203,2,T1_SMS_8,26,9999,9999,9999,252064880
203,2,T1_SMS_8,27,9999,9999,9999,252864608
203,2,T1_SMS_8,28,9999,9999,9999,253664340
203,2,T1_SMS_8,29,9999,9999,9999,254464072
203,2,T1_SMS_8,30,9999,9999,9999,255264876
203,2,T1_SMS_8,31,9999,9999,9999,256064608
203,2,T1_SMS_8,32,9999,9999,9999,256864344
203,2,T1_SMS_8,33,9999,9999,9999,257664060
203,2,T1_SMS_8,34,9999,9999,9999,258464860
203,2,T1_SMS_8,35,9999,9999,9999,259264588
203,2,T1_SMS_8,36,9999,9999,9999,260064328
203,2,T1_SMS_8,37,9999,9999,9999,260864052
203,2,T1_SMS_8,38,9999,9999,9999,261664844
203,2,T1_SMS_8,39,9999,9999,9999,262464576
203,2,T1_SMS_8,40,9999,9999,9999,263264324
203,2,T1_SMS_8,41,9999,9999,9999,264064060
203,2,T1_SMS_8,42,9999,9999,9999,264864836
203,2,T1_SMS_8,43,9999,9999,9999,265664568
203,2,T1_SMS_8,44,9999,9999,9999,266464376
203,2,T1_SMS_8,45,9999,9999,9999,267264112
203,2,T1_SMS_8,46,9999,9999,9999,268064836
203,2,T1_SMS_8,47,9999,9999,9999,268864568
203,2,T1_SMS_8,48,9999,9999,9999,269664376
203,2,T1_SMS_8,49,9999,9999,9999,270464108
203,2,T1_SMS_8,50,9999,9999,9999,271264888
203,2,T1_SMS_8,51,9999,9999,9999,272064624
203,2,T1_SMS_8,52,9999,9999,9999,272864360
203,2,T1_SMS_8,53,9999,9999,9999,273664092
203,2,T1_SMS_8,54,9999,9999,9999,274464812
203,2,T1_SMS_8,55,9999,9999,9999,275264620
203,2,T1_SMS_8,56,9999,9999,9999,276064356
203,2,T1_SMS_8,57,9999,9999,9999,276864088
203,2,T1_SMS_8,58,9999,9999,9999,277664872
203,2,T1_SMS_8,59,9999,9999,9999,278464604
203,2,T1_SMS_8,60,9999,9999,9999,279264340
203,2,T1_SMS_8,61,9999,9999,9999,280064072
203,2,T1_SMS_8,62,9999,9999,9999,280864816
203,2,T1_SMS_8,63,9999,9999,9999,281664620
203,2,T1_SMS_8,64,9999,9999,9999,282464356
203,2,T1_SMS_8,65,9999,9999,9999,283264092
203,2,T1_SMS_8,66,9999,9999,9999,284064872
203,2,T1_SMS_8,67,9999,9999,9999,284864604
203,2,T1_SMS_8,68,9999,9999,9999,285664336
203,2,T1_SMS_8,69,9999,9999,9999,286464068
203,2,T1_SMS_8,70,9999,9999,9999,287264820
203,2,T1_SMS_8,71,9999,9999,9999,288064624
203,2,T1_SMS_8,72,9999,9999,9999,288864352
203,2,T1_SMS_8,73,9999,9999,9999,289664092
203,2,T1_SMS_8,74,9999,9999,9999,290464872
203,2,T1_SMS_8,75,9999,9999,9999,291264604
203,2,T1_SMS_8,76,9999,9999,9999,292064328
203,2,T1_SMS_8,77,9999,9999,9999,292864064
203,2,T1_SMS_8,78,9999,9999,9999,293664864
203,2,T1_SMS_8,79,9999,9999,9999,294464600
203,2,T1_SMS_8,80,9999,9999,9999,295264332
203,2,T1_SMS_8,81,9999,9999,9999,296064064
203,2,T1_SMS_8,82,9999,9999,9999,296864844
203,2,T1_SMS_8,83,9999,9999,9999,297664576
203,2,T1_SMS_8,84,9999,9999,9999,298464308
203,2,T1_SMS_8,85,9999,9999,9999,299264116
203,2,T1_SMS_8,86,9999,9999,9999,300064852
203,2,T1_SMS_8,87,9999,9999,9999,300864580
203,2,T1_SMS_8,88,9999,9999,9999,301664312
203,2,T1_SMS_8,89,9999,9999,9999,302464108
203,2,T1_SMS_8,90,9999,9999,9999,303264884
203,2,T1_SMS_8,91,9999,9999,9999,304064616
203,2,T1_SMS_8,92,9999,9999,9999,304864364
203,2,T1_SMS_8,93,9999,9999,9999,305664100
203,2,T1_SMS_8,94,9999,9999,9999,306464828
203,2,T1_SMS_8,95,9999,9999,9999,307264560
203,2,T1_SMS_8,96,9999,9999,9999,308064372
203,2,T1_SMS_8,97,9999,9999,9999,308864100
203,2,T1_SMS_8,98,9999,9999,9999,309664880
203,2,T1_SMS_8,99,9999,9999,9999,310464612
203,2,T1_SMS_8,100,9999,9999,9999,311264328
203,2,T1_SMS_8,101,9999,9999,9999,312064080
203,2,T1_SMS_8,102,9999,9999,9999,312864880
203,2,T1_SMS_8,103,9999,9999,9999,313664612
203,2,T1_SMS_8,104,9999,9999,9999,314464344
203,2,T1_SMS_8,105,9999,9999,9999,315264080
203,2,T1_SMS_8,106,9999,9999,9999,316064856
203,2,T1_SMS_8,107,9999,9999,9999,316864588
203,2,T1_SMS_8,108,9999,9999,9999,317664320
203,2,T1_SMS_8,109,9999,9999,9999,318464060
203,2,T1_SMS_8,110,9999,9999,9999,319264864
203,2,T1_SMS_8,111,9999,9999,9999,320064596
203,2,T1_SMS_8,112,9999,9999,9999,320864332
203,2,T1_SMS_8,113,9999,9999,9999,321664096
203,2,T1_SMS_8,114,9999,9999,9999,322464840
203,2,T1_SMS_8,115,9999,9999,9999,323264572
203,2,T1_SMS_8,116,9999,9999,9999,324064304
203,2,T1_SMS_8,117,9999,9999,9999,324864112
203,2,T1_SMS_8,118,9999,9999,9999,325664840
203,2,T1_SMS_8,119,9999,9999,9999,326464576
204,4,T1_SMS_5,0,5,42,127,336985444
204,4,T1_SMS_5,1,5,42,127,337486112
204,4,T1_SMS_5,2,1,48,33,337533580
204,4,T1_SMS_5,3,5,42,127,337985864
204,4,T1_SMS_5,4,1,48,29,338016080
204,4,T1_SMS_5,5,5,42,127,338485688
204,4,T1_SMS_5,6,1,48,28,338502844
204,4,T1_SMS_5,7,1,48,26,338950800
204,4,T1_SMS_5,8,5,42,127,338986624
204,4,T1_SMS_5,9,1,48,29,339391412
204,4,T1_SMS_5,10,5,42,127,339485932
204,4,T1_SMS_5,11,1,48,26,339921036
204,4,T1_SMS_5,12,5,42,127,339985656
204,4,T1_SMS_5,13,1,48,32,340412992
204,4,T1_SMS_5,14,5,42,127,340485684
204,4,T1_SMS_5,15,5,42,127,340986188
204,4,T1_SMS_5,16,1,48,21,341203116
204,4,T1_SMS_5,17,5,42,127,341485864
204,4,T1_SMS_5,18,1,48,31,341617140
204,4,T1_SMS_5,19,5,42,127,341985688
204,4,T1_SMS_5,20,1,48,29,342062900
204,4,T1_SMS_5,21,1,48,29,342479952
204,4,T1_SMS_5,22,5,42,127,342486556
204,4,T1_SMS_5,23,1,48,28,342944452
204,4,T1_SMS_5,24,5,42,127,342986004
204,4,T1_SMS_5,25,1,48,32,343444128
204,4,T1_SMS_5,26,5,42,127,343485684
204,4,T1_SMS_5,27,1,48,31,343927156
204,4,T1_SMS_5,28,5,42,127,343985580
204,4,T1_SMS_5,29,1,48,32,344444304
204,4,T1_SMS_5,30,5,42,127,344486376
204,4,T1_SMS_5,31,1,48,35,344950700
204,4,T1_SMS_5,32,5,42,127,344985832
204,4,T1_SMS_5,33,1,48,30,345419840
204,4,T1_SMS_5,34,5,42,127,345485656
204,4,T1_SMS_5,35,1,48,29,345917800
204,4,T1_SMS_5,36,5,42,127,345986528
204,4,T1_SMS_5,37,1,48,29,346482140
204,4,T1_SMS_5,38,5,42,127,346486056
204,4,T1_SMS_5,39,1,48,34,346936112
204,4,T1_SMS_5,40,5,42,127,346985952
204,4,T1_SMS_5,41,1,48,30,347430044
204,4,T1_SMS_5,42,5,42,127,347485480
204,4,T1_SMS_5,43,1,48,34,347922996
204,4,T1_SMS_5,44,5,42,127,347986276
204,4,T1_SMS_5,45,1,48,30,348421828
204,4,T1_SMS_5,46,5,42,127,348486176
204,4,T1_SMS_5,47,1,48,32,348933156
204,4,T1_SMS_5,48,5,42,127,348985852
204,4,T1_SMS_5,49,1,48,33,349421104
204,4,T1_SMS_5,50,5,42,127,349485380
204,4,T1_SMS_5,51,1,48,30,349925488
204,4,T1_SMS_5,52,5,42,127,349986176
204,4,T1_SMS_5,53,1,48,35,350433148
204,4,T1_SMS_5,54,5,42,127,350486076
204,4,T1_SMS_5,55,1,48,33,350914156
204,4,T1_SMS_5,56,5,42,127,350985504
204,4,T1_SMS_5,57,1,48,28,351422048
204,4,T1_SMS_5,58,5,42,127,351486300
204,4,T1_SMS_5,59,1,48,33,351927252
204,4,T1_SMS_5,60,5,42,127,351986272
204,4,T1_SMS_5,61,1,48,33,352409080
204,4,T1_SMS_5,62,5,42,127,352485952
204,4,T1_SMS_5,63,1,48,31,352922652
204,4,T1_SMS_5,64,5,42,127,352985404
204,4,T1_SMS_5,65,1,48,32,353422320
204,4,T1_SMS_5,66,5,42,127,353486272
204,4,T1_SMS_5,67,1,48,34,353902660
204,4,T1_SMS_5,68,5,42,127,353986024
204,4,T1_SMS_5,69,1,48,30,354448108
204,4,T1_SMS_5,70,5,42,127,354485552
204,4,T1_SMS_5,71,1,48,29,354926276
204,4,T1_SMS_5,72,5,42,127,354986272
204,4,T1_SMS_5,73,1,48,32,355422228
204,4,T1_SMS_5,74,5,42,127,355486176
204,4,T1_SMS_5,75,1,48,33,355922272
204,4,T1_SMS_5,76,5,42,127,355985924
204,4,T1_SMS_5,77,1,48,32,356417772
204,4,T1_SMS_5,78,5,42,127,356485600
204,4,T1_SMS_5,79,1,48,34,356916996
204,4,T1_SMS_5,80,5,42,127,356986176
204,4,T1_SMS_5,81,1,48,35,357394940
204,4,T1_SMS_5,82,5,42,127,357485852
204,4,T1_SMS_5,83,1,48,28,357939276
204,4,T1_SMS_5,84,5,42,127,357985900
204,4,T1_SMS_5,85,1,48,28,358452244
204,4,T1_SMS_5,86,5,42,127,358486476
204,4,T1_SMS_5,87,1,48,31,358959756
204,4,T1_SMS_5,88,5,42,127,358986000
204,4,T1_SMS_5,89,1,48,32,359446140
204,4,T1_SMS_5,90,5,42,127,359485900
204,4,T1_SMS_5,91,1,48,32,359936388
204,4,T1_SMS_5,92,5,42,127,359985724
204,4,T1_SMS_5,93,1,48,32,360390960
204,4,T1_SMS_5,94,5,42,127,360487332
204,4,T1_SMS_5,95,1,48,32,360938276
204,4,T1_SMS_5,96,5,42,127,360985824
204,4,T1_SMS_5,97,1,48,30,361466396
204,4,T1_SMS_5,98,5,42,127,361485772
204,4,T1_SMS_5,99,1,48,34,361945096
204,4,T1_SMS_5,100,5,42,127,361986496
204,4,T1_SMS_5,101,1,48,30,362425652
204,4,T1_SMS_5,102,5,42,127,362486096
204,4,T1_SMS_5,103,1,48,30,362906584
204,4,T1_SMS_5,104,5,42,127,362985772
204,4,T1_SMS_5,105,1,48,30,363483024
204,4,T1_SMS_5,106,5,42,127,363485524
204,4,T1_SMS_5,107,5,42,127,363986472
204,4,T1_SMS_5,108,1,48,30,363996008
204,4,T1_SMS_5,109,1,48,32,364474464
204,4,T1_SMS_5,110,5,42,127,364485920
204,4,T1_SMS_5,111,5,42,127,364985824
204,4,T1_SMS_5,112,1,48,28,364995812
204,4,T1_SMS_5,113,5,42,127,365485652
204,4,T1_SMS_5,114,1,48,32,365491900
204,4,T1_SMS_5,115,1,48,29,365939292
204,4,T1_SMS_5,116,5,42,127,365986440
204,4,T1_SMS_5,117,1,48,28,366452556
204,4,T1_SMS_5,118,5,42,127,366485820
204,4,T1_SMS_5,119,1,48,27,366977404
204,4,T1_SMS_5,120,5,42,127,366985500
204,4,T1_SMS_5,121,1,48,34,367476252
204,4,T1_SMS_5,122,5,42,127,367486516
204,4,T1_SMS_5,123,5,42,127,367986052
204,4,T1_SMS_5,124,1,48,26,367989096
204,4,T1_SMS_5,125,5,42,127,368485656
204,4,T1_SMS_5,126,1,48,34,368491908
204,4,T1_SMS_5,127,1,48,24,368973944
204,4,T1_SMS_5,128,5,42,127,368985400
204,4,T1_SMS_5,129,1,48,29,369476376
204,4,T1_SMS_5,130,5,42,127,369486120
204,4,T1_SMS_5,131,1,48,28,369954696
204,4,T1_SMS_5,132,5,42,127,369985872
204,4,T1_SMS_5,133,1,48,18,370446208
204,4,T1_SMS_5,134,5,42,127,370485548
204,4,T1_SMS_5,135,1,48,25,370926096
204,4,T1_SMS_5,136,5,42,127,370986416
204,4,T1_SMS_5,137,1,48,27,371413008
204,4,T1_SMS_5,138,5,42,127,371486244
204,4,T1_SMS_5,139,1,48,21,371970028
204,4,T1_SMS_5,140,5,42,127,371985620
204,4,T1_SMS_5,141,1,48,20,372467468
204,4,T1_SMS_5,142,5,42,127,372485420
204,4,T1_SMS_5,143,1,48,30,372947580
204,4,T1_SMS_5,144,5,42,127,372986144
204,4,T1_SMS_5,145,1,48,33,373442100
204,4,T1_SMS_5,146,5,42,127,373486040
204,4,T1_SMS_5,147,1,48,31,373940512
204,4,T1_SMS_5,148,5,42,127,373985716
204,4,T1_SMS_5,149,1,48,26,374431896
204,4,T1_SMS_5,150,5,42,127,374486516
204,4,T1_SMS_5,151,1,48,30,374907900
204,4,T1_SMS_5,152,5,42,127,374986116
204,4,T1_SMS_5,153,1,48,33,375397200
204,4,T1_SMS_5,154,5,42,127,375485940
204,4,T1_SMS_5,155,1,48,26,375920024
204,4,T1_SMS_5,156,5,42,127,375985544
204,4,T1_SMS_5,157,1,48,30,376435376
204,4,T1_SMS_5,158,5,42,127,376486116
204,4,T1_SMS_5,159,1,48,33,376895404
204,4,T1_SMS_5,160,5,42,127,376986092
204,4,T1_SMS_5,161,1,48,33,377414492
204,4,T1_SMS_5,162,5,42,127,377485616
204,4,T1_SMS_5,163,1,48,32,377892516
204,4,T1_SMS_5,164,5,42,127,377986328
204,4,T1_SMS_5,165,1,48,29,378403692
204,4,T1_SMS_5,166,5,42,127,378486016
204,4,T1_SMS_5,167,1,48,29,378875860
204,4,T1_SMS_5,168,5,42,127,378985900
204,4,T1_SMS_5,169,1,48,31,379450764
204,4,T1_SMS_5,170,5,42,127,379485740
204,4,T1_SMS_5,171,1,48,33,379959920
204,4,T1_SMS_5,172,5,42,127,379986236
204,4,T1_SMS_5,173,1,48,33,380454516
204,4,T1_SMS_5,174,5,42,127,380486064
204,4,T1_SMS_5,175,1,48,35,380935208
204,4,T1_SMS_5,176,5,42,127,380985740
204,4,T1_SMS_5,177,1,48,32,381426512
204,4,T1_SMS_5,178,5,42,127,381485492
204,4,T1_SMS_5,179,1,48,31,381912004
204,4,T1_SMS_5,180,5,42,127,381986212
204,4,T1_SMS_5,181,1,48,32,382387112
204,4,T1_SMS_5,182,5,42,127,382485872
204,4,T1_SMS_5,183,1,48,22,382897768
204,4,T1_SMS_5,184,5,42,127,382985760
204,4,T1_SMS_5,185,1,48,29,383385944
204,4,T1_SMS_5,186,5,42,127,383486468
204,4,T1_SMS_5,187,1,48,30,383881364
204,4,T1_SMS_5,188,5,42,127,383985996
204,4,T1_SMS_5,189,1,48,32,384395600
204,4,T1_SMS_5,190,5,42,127,384485836
204,4,T1_SMS_5,191,1,48,30,384902740
204,4,T1_SMS_5,192,5,42,127,384985660
204,4,T1_SMS_5,193,1,48,35,385427284
204,4,T1_SMS_5,194,5,42,127,385486232
204,4,T1_SMS_5,195,1,48,31,385893584
204,4,T1_SMS_5,196,5,42,127,385985984
204,4,T1_SMS_5,197,1,48,26,386434552
204,4,T1_SMS_5,198,5,42,127,386485736
204,4,T1_SMS_5,199,1,48,34,386918024
204,4,T1_SMS_5,200,5,42,127,386986384
204,4,T1_SMS_5,201,1,48,34,387444656
204,4,T1_SMS_5,202,5,42,127,387485984
204,4,T1_SMS_5,203,5,42,127,387985816
204,4,T1_SMS_5,204,1,48,35,387997148
204,4,T1_SMS_5,205,5,42,127,388485420
204,4,T1_SMS_5,206,1,48,29,388523332
204,4,T1_SMS_5,207,1,48,36,388962804
204,4,T1_SMS_5,208,5,42,127,388986432
204,4,T1_SMS_5,209,1,48,35,389434408
204,4,T1_SMS_5,210,5,42,127,389486036
204,4,T1_SMS_5,211,1,48,29,389917504
204,4,T1_SMS_5,212,5,42,127,389985636
204,4,T1_SMS_5,213,1,48,35,390431736
204,4,T1_SMS_5,214,5,42,127,390486436
204,4,T1_SMS_5,215,1,48,32,390935600
204,4,T1_SMS_5,216,5,42,127,390986256
204,4,T1_SMS_5,217,5,42,127,391485792
204,4,T1_SMS_5,218,1,48,39,391488984
204,4,T1_SMS_5,219,5,42,127,391985468
204,4,T1_SMS_5,220,1,48,38,392006128
204,4,T1_SMS_5,221,1,48,31,392479880
204,4,T1_SMS_5,222,5,42,127,392486404
204,4,T1_SMS_5,223,1,48,33,392962132
204,4,T1_SMS_5,224,5,42,127,392986084
204,4,T1_SMS_5,225,1,48,31,393447696
204,4,T1_SMS_5,226,5,42,127,393485976
204,4,T1_SMS_5,227,1,48,32,393962444
204,4,T1_SMS_5,228,5,42,127,393986380
204,4,T1_SMS_5,229,1,48,37,394431508
204,4,T1_SMS_5,230,5,42,127,394486124
204,4,T1_SMS_5,231,1,48,32,394927156
204,4,T1_SMS_5,232,5,42,127,394985728
204,4,T1_SMS_5,233,1,48,34,395404128
204,4,T1_SMS_5,234,5,42,127,395485480
204,4,T1_SMS_5,235,1,48,36,395895816
204,4,T1_SMS_5,236,5,42,127,395986276
204,4,T1_SMS_5,237,1,48,35,396378468
204,4,T1_SMS_5,238,5,42,127,396486088
204,4,T1_SMS_5,239,1,48,35,396902188
204,4,T1_SMS_5,240,5,42,127,396985928
204,4,T1_SMS_5,241,1,48,33,397398208
204,4,T1_SMS_5,242,5,42,127,397485304
204,4,T1_SMS_5,243,1,48,40,397899004
204,4,T1_SMS_5,244,5,42,127,397986176
204,4,T1_SMS_5,245,1,48,27,398415552
204,4,T1_SMS_5,246,5,42,127,398486076
204,4,T1_SMS_5,247,1,48,37,398876620
204,4,T1_SMS_5,248,5,42,127,398985440
204,4,T1_SMS_5,249,1,48,35,399360820
204,4,T1_SMS_5,250,5,42,127,399486160
204,4,T1_SMS_5,251,1,48,37,399842944
204,4,T1_SMS_5,252,5,42,127,399986132
204,4,T1_SMS_5,253,1,48,40,400343220
204,4,T1_SMS_5,254,5,42,127,400485736
204,4,T1_SMS_5,255,1,48,40,400847300
204,4,T1_SMS_5,256,5,42,127,400985560
204,4,T1_SMS_5,257,1,48,35,401370944
204,4,T1_SMS_5,258,5,42,127,401486132
204,4,T1_SMS_5,259,1,48,36,401901384
204,4,T1_SMS_5,0,9999,9999,9999,336983160
204,4,T1_SMS_5,1,9999,9999,9999,337483828
204,4,T1_SMS_5,2,9999,9999,9999,337983580
204,4,T1_SMS_5,3,9999,9999,9999,338483256
204,4,T1_SMS_5,4,9999,9999,9999,338984044
204,4,T1_SMS_5,5,9999,9999,9999,339483724
204,4,T1_SMS_5,6,9999,9999,9999,339983448
204,4,T1_SMS_5,7,9999,9999,9999,340483176
204,4,T1_SMS_5,8,9999,9999,9999,340983904
204,4,T1_SMS_5,9,9999,9999,9999,341483580
204,4,T1_SMS_5,10,9999,9999,9999,341983332
204,4,T1_SMS_5,11,9999,9999,9999,342484048
204,4,T1_SMS_5,12,9999,9999,9999,342983796
204,4,T1_SMS_5,13,9999,9999,9999,343483472
204,4,T1_SMS_5,14,9999,9999,9999,343983224
204,4,T1_SMS_5,15,9999,9999,9999,344483944
204,4,T1_SMS_5,16,9999,9999,9999,344983624
204,4,T1_SMS_5,17,9999,9999,9999,345483372
204,4,T1_SMS_5,18,9999,9999,9999,345984096
204,4,T1_SMS_5,19,9999,9999,9999,346483772
204,4,T1_SMS_5,20,9999,9999,9999,346983524
204,4,T1_SMS_5,21,9999,9999,9999,347483200
204,4,T1_SMS_5,22,9999,9999,9999,347983920
204,4,T1_SMS_5,23,9999,9999,9999,348483672
204,4,T1_SMS_5,24,9999,9999,9999,348983348
204,4,T1_SMS_5,25,9999,9999,9999,349483096
204,4,T1_SMS_5,26,9999,9999,9999,349983820
204,4,T1_SMS_5,27,9999,9999,9999,350483568
204,4,T1_SMS_5,28,9999,9999,9999,350983220
204,4,T1_SMS_5,29,9999,9999,9999,351484020
204,4,T1_SMS_5,30,9999,9999,9999,351983692
204,4,T1_SMS_5,31,9999,9999,9999,352483444
204,4,T1_SMS_5,32,9999,9999,9999,352983124
204,4,T1_SMS_5,33,9999,9999,9999,353483844
204,4,T1_SMS_5,34,9999,9999,9999,353983592
204,4,T1_SMS_5,35,9999,9999,9999,354483272
204,4,T1_SMS_5,36,9999,9999,9999,354983992
204,4,T1_SMS_5,37,9999,9999,9999,355483744
204,4,T1_SMS_5,38,9999,9999,9999,355983420
204,4,T1_SMS_5,39,9999,9999,9999,356483172
204,4,T1_SMS_5,40,9999,9999,9999,356983892
204,4,T1_SMS_5,41,9999,9999,9999,357483568
204,4,T1_SMS_5,42,9999,9999,9999,357983320
204,4,T1_SMS_5,43,9999,9999,9999,358484040
204,4,T1_SMS_5,44,9999,9999,9999,358983792
204,4,T1_SMS_5,45,9999,9999,9999,359483468
204,4,T1_SMS_5,46,9999,9999,9999,359983220
204,4,T1_SMS_5,47,9999,9999,9999,360483940
204,4,T1_SMS_5,48,9999,9999,9999,360983616
204,4,T1_SMS_5,49,9999,9999,9999,361483340
204,4,T1_SMS_5,50,9999,9999,9999,361984064
204,4,T1_SMS_5,51,9999,9999,9999,362483812
204,4,T1_SMS_5,52,9999,9999,9999,362983488
204,4,T1_SMS_5,53,9999,9999,9999,363483240
204,4,T1_SMS_5,54,9999,9999,9999,363983968
204,4,T1_SMS_5,55,9999,9999,9999,364483636
204,4,T1_SMS_5,56,9999,9999,9999,364983392
204,4,T1_SMS_5,57,9999,9999,9999,365483068
204,4,T1_SMS_5,58,9999,9999,9999,365983860
204,4,T1_SMS_5,59,9999,9999,9999,366483536
204,4,T1_SMS_5,60,9999,9999,9999,366983216
204,4,T1_SMS_5,61,9999,9999,9999,367484012
204,4,T1_SMS_5,62,9999,9999,9999,367983692
204,4,T1_SMS_5,63,9999,9999,9999,368483444
204,4,T1_SMS_5,64,9999,9999,9999,368983116
204,4,T1_SMS_5,65,9999,9999,9999,369483836
204,4,T1_SMS_5,66,9999,9999,9999,369983588
204,4,T1_SMS_5,67,9999,9999,9999,370483264
204,4,T1_SMS_5,68,9999,9999,9999,370983984
204,4,T1_SMS_5,69,9999,9999,9999,371483736
204,4,T1_SMS_5,70,9999,9999,9999,371983412
204,4,T1_SMS_5,71,9999,9999,9999,372483140
204,4,T1_SMS_5,72,9999,9999,9999,372983860
204,4,T1_SMS_5,73,9999,9999,9999,373483608
204,4,T1_SMS_5,74,9999,9999,9999,373983284
204,4,T1_SMS_5,75,9999,9999,9999,374484080
204,4,T1_SMS_5,76,9999,9999,9999,374983760
204,4,T1_SMS_5,77,9999,9999,9999,375483512
204,4,T1_SMS_5,78,9999,9999,9999,375983184
204,4,T1_SMS_5,79,9999,9999,9999,376483908
204,4,T1_SMS_5,80,9999,9999,9999,376983660
204,4,T1_SMS_5,81,9999,9999,9999,377483336
204,4,T1_SMS_5,82,9999,9999,9999,377984076
204,4,T1_SMS_5,83,9999,9999,9999,378483808
204,4,T1_SMS_5,84,9999,9999,9999,378983544
204,4,T1_SMS_5,85,9999,9999,9999,379483236
204,4,T1_SMS_5,86,9999,9999,9999,379983956
204,4,T1_SMS_5,87,9999,9999,9999,380483632
204,4,T1_SMS_5,88,9999,9999,9999,380983384
204,4,T1_SMS_5,89,9999,9999,9999,381483060
204,4,T1_SMS_5,90,9999,9999,9999,381983856
204,4,T1_SMS_5,91,9999,9999,9999,382483532
204,4,T1_SMS_5,92,9999,9999,9999,382983256
204,4,T1_SMS_5,93,9999,9999,9999,383483964
204,4,T1_SMS_5,94,9999,9999,9999,383983712
204,4,T1_SMS_5,95,9999,9999,9999,384483404
204,4,T1_SMS_5,96,9999,9999,9999,384983156
204,4,T1_SMS_5,97,9999,9999,9999,385483876
204,4,T1_SMS_5,98,9999,9999,9999,385983552
204,4,T1_SMS_5,99,9999,9999,9999,386483304
204,4,T1_SMS_5,100,9999,9999,9999,386984024
204,4,T1_SMS_5,101,9999,9999,9999,387483704
204,4,T1_SMS_5,102,9999,9999,9999,387983460
204,4,T1_SMS_5,103,9999,9999,9999,388483136
204,4,T1_SMS_5,104,9999,9999,9999,388983928
204,4,T1_SMS_5,105,9999,9999,9999,389483604
204,4,T1_SMS_5,106,9999,9999,9999,389983280
204,4,T1_SMS_5,107,9999,9999,9999,390484076
204,4,T1_SMS_5,108,9999,9999,9999,390983752
204,4,T1_SMS_5,109,9999,9999,9999,391483508
204,4,T1_SMS_5,110,9999,9999,9999,391983184
204,4,T1_SMS_5,111,9999,9999,9999,392483900
204,4,T1_SMS_5,112,9999,9999,9999,392983652
204,4,T1_SMS_5,113,9999,9999,9999,393483376
204,4,T1_SMS_5,114,9999,9999,9999,393984092
204,4,T1_SMS_5,115,9999,9999,9999,394483768
204,4,T1_SMS_5,116,9999,9999,9999,394983520
204,4,T1_SMS_5,117,9999,9999,9999,395483200
204,4,T1_SMS_5,118,9999,9999,9999,395983992
204,4,T1_SMS_5,119,9999,9999,9999,396483656
204,4,T1_SMS_5,120,9999,9999,9999,396983348
204,4,T1_SMS_5,121,9999,9999,9999,397483096
204,4,T1_SMS_5,122,9999,9999,9999,397983820
204,4,T1_SMS_5,123,9999,9999,9999,398483572
204,4,T1_SMS_5,124,9999,9999,9999,398983232
204,4,T1_SMS_5,125,9999,9999,9999,399483952
204,4,T1_SMS_5,126,9999,9999,9999,399983704
204,4,T1_SMS_5,127,9999,9999,9999,400483380
204,4,T1_SMS_5,128,9999,9999,9999,400983128
204,4,T1_SMS_5,129,9999,9999,9999,401483848
205,22,Ticks_Phase_8,0,5,42,127,428148008
205,22,Ticks_Phase_8,1,1,48,29,428915548
205,22,Ticks_Phase_8,2,5,42,127,428947884
205,22,Ticks_Phase_8,3,1,48,26,429635880
205,22,Ticks_Phase_8,4,5,42,127,429747660
205,22,Ticks_Phase_8,5,5,42,127,430548588
205,22,Ticks_Phase_8,6,1,48,30,430555056
205,22,Ticks_Phase_8,7,5,42,127,431348152
205,22,Ticks_Phase_8,8,1,48,32,431396156
205,22,Ticks_Phase_8,9,5,42,127,432147892
205,22,Ticks_Phase_8,10,1,48,28,432166484
205,22,Ticks_Phase_8,11,5,42,127,432947456
205,22,Ticks_Phase_8,12,1,48,29,432966272
205,22,Ticks_Phase_8,13,5,42,127,433748364
205,22,Ticks_Phase_8,14,1,48,27,433763660
205,22,Ticks_Phase_8,15,1,48,29,434548596
205,22,Ticks_Phase_8,16,5,42,127,434550232
205,22,Ticks_Phase_8,17,5,42,127,435347712
205,22,Ticks_Phase_8,18,1,48,28,435377892
205,22,Ticks_Phase_8,19,1,48,25,436075384
205,22,Ticks_Phase_8,20,5,42,127,436147496
205,22,Ticks_Phase_8,21,1,48,27,436862096
205,22,Ticks_Phase_8,22,5,42,127,436948252
205,22,Ticks_Phase_8,23,1,48,28,437719080
205,22,Ticks_Phase_8,24,5,42,127,437748112
205,22,Ticks_Phase_8,25,1,48,31,438544300
205,22,Ticks_Phase_8,26,5,42,127,438547924
205,22,Ticks_Phase_8,27,1,48,32,439339536
205,22,Ticks_Phase_8,28,5,42,127,439347416
205,22,Ticks_Phase_8,29,1,48,32,440148328
205,22,Ticks_Phase_8,30,5,42,127,440149960
205,22,Ticks_Phase_8,31,5,42,127,440948188
205,22,Ticks_Phase_8,32,1,48,28,440964080
205,22,Ticks_Phase_8,33,1,48,30,441729624
205,22,Ticks_Phase_8,34,5,42,127,441747824
205,22,Ticks_Phase_8,35,1,48,27,442515812
205,22,Ticks_Phase_8,36,5,42,127,442547536
205,22,Ticks_Phase_8,37,5,42,127,443348300
205,22,Ticks_Phase_8,38,1,48,27,443351036
205,22,Ticks_Phase_8,39,5,42,127,444148012
205,22,Ticks_Phase_8,40,1,48,28,444151348
205,22,Ticks_Phase_8,41,1,48,31,444935284
205,22,Ticks_Phase_8,42,5,42,127,444947816
205,22,Ticks_Phase_8,43,1,48,31,445713628
205,22,Ticks_Phase_8,44,5,42,127,445747680
205,22,Ticks_Phase_8,45,5,42,127,446548296
205,22,Ticks_Phase_8,46,1,48,26,446571144
205,22,Ticks_Phase_8,47,5,42,127,447348008
205,22,Ticks_Phase_8,48,1,48,31,447374520
205,22,Ticks_Phase_8,49,5,42,127,448147796
205,22,Ticks_Phase_8,50,1,48,27,448181036
205,22,Ticks_Phase_8,51,1,48,32,448908524
205,22,Ticks_Phase_8,52,5,42,127,448947428
205,22,Ticks_Phase_8,53,1,48,35,449651264
205,22,Ticks_Phase_8,54,5,42,127,449748408
205,22,Ticks_Phase_8,55,1,48,39,450509296
205,22,Ticks_Phase_8,56,5,42,127,450548048
205,22,Ticks_Phase_8,57,5,42,127,451347944
205,22,Ticks_Phase_8,58,1,48,36,451357340
205,22,Ticks_Phase_8,59,5,42,127,452128068
205,22,Ticks_Phase_8,60,1,48,32,452168048
205,22,Ticks_Phase_8,61,1,48,36,452894320
205,22,Ticks_Phase_8,62,5,42,127,452927928
205,22,Ticks_Phase_8,63,5,42,127,453727572
205,22,Ticks_Phase_8,64,1,48,32,453736748
205,22,Ticks_Phase_8,65,1,48,42,454433264
205,22,Ticks_Phase_8,66,5,42,127,454528472
205,22,Ticks_Phase_8,67,1,48,35,455263032
205,22,Ticks_Phase_8,68,5,42,127,455328040
205,22,Ticks_Phase_8,69,5,42,127,456127756
205,22,Ticks_Phase_8,70,1,48,28,456166384
205,22,Ticks_Phase_8,71,5,42,127,456927544
205,22,Ticks_Phase_8,72,1,48,33,456939632
205,22,Ticks_Phase_8,73,5,42,127,457728448
205,22,Ticks_Phase_8,74,1,48,24,457744140
205,22,Ticks_Phase_8,75,5,42,127,458528188
205,22,Ticks_Phase_8,76,1,48,37,458535556
205,22,Ticks_Phase_8,77,1,48,32,459311488
205,22,Ticks_Phase_8,78,5,42,127,459328040
205,22,Ticks_Phase_8,79,1,48,33,460080256
205,22,Ticks_Phase_8,80,5,42,127,460127608
205,22,Ticks_Phase_8,81,1,48,36,460858060
205,22,Ticks_Phase_8,82,5,42,127,460928436
205,22,Ticks_Phase_8,83,5,42,127,461728084
205,22,Ticks_Phase_8,84,1,48,28,461778744
205,22,Ticks_Phase_8,85,1,48,27,462510936
205,22,Ticks_Phase_8,86,5,42,127,462528012
205,22,Ticks_Phase_8,87,1,48,33,463233564
205,22,Ticks_Phase_8,88,5,42,127,463327800
205,22,Ticks_Phase_8,89,5,42,127,464128340
205,22,Ticks_Phase_8,90,5,42,127,464928100
205,22,Ticks_Phase_8,91,1,48,31,464962984
205,22,Ticks_Phase_8,92,1,48,36,465675600
205,22,Ticks_Phase_8,93,5,42,127,465727732
205,22,Ticks_Phase_8,94,1,48,34,466545892
205,22,Ticks_Phase_8,95,5,42,127,466548080
205,22,Ticks_Phase_8,96,1,48,35,467299472
205,22,Ticks_Phase_8,97,5,42,127,467347792
205,22,Ticks_Phase_8,98,1,48,33,468110768
205,22,Ticks_Phase_8,99,5,42,127,468147808
205,22,Ticks_Phase_8,100,1,48,29,468945388
205,22,Ticks_Phase_8,101,5,42,127,468948268
205,22,Ticks_Phase_8,102,1,48,32,469631840
205,22,Ticks_Phase_8,103,5,42,127,469748040
205,22,Ticks_Phase_8,104,1,48,29,470486960
205,22,Ticks_Phase_8,105,5,42,127,470547868
205,22,Ticks_Phase_8,106,1,48,33,471251752
205,22,Ticks_Phase_8,107,5,42,127,471347508
205,22,Ticks_Phase_8,108,1,48,23,472130512
205,22,Ticks_Phase_8,109,5,42,127,472148264
205,22,Ticks_Phase_8,110,5,42,127,472948132
205,22,Ticks_Phase_8,111,1,48,29,472990716
205,22,Ticks_Phase_8,112,1,48,32,473731804
205,22,Ticks_Phase_8,113,5,42,127,473747764
205,22,Ticks_Phase_8,114,1,48,34,474511412
205,22,Ticks_Phase_8,115,5,42,127,474547552
205,22,Ticks_Phase_8,116,5,42,127,475348316
205,22,Ticks_Phase_8,117,1,48,35,475374676
205,22,Ticks_Phase_8,118,1,48,40,476060072
205,22,Ticks_Phase_8,119,5,42,127,476148392
205,22,Ticks_Phase_8,120,1,48,32,476850364
205,22,Ticks_Phase_8,121,5,42,127,476947684
205,22,Ticks_Phase_8,122,5,42,127,477747628
205,22,Ticks_Phase_8,123,1,48,27,477797400
205,22,Ticks_Phase_8,124,5,42,127,478548388
205,22,Ticks_Phase_8,125,1,48,18,478580656
205,22,Ticks_Phase_8,126,1,48,21,479325716
205,22,Ticks_Phase_8,127,5,42,127,479387944
205,22,Ticks_Phase_8,128,1,48,30,480134016
205,22,Ticks_Phase_8,129,5,42,127,480188028
205,22,Ticks_Phase_8,130,1,48,31,480936948
205,22,Ticks_Phase_8,131,5,42,127,480987448
205,22,Ticks_Phase_8,132,1,48,33,481735920
205,22,Ticks_Phase_8,133,5,42,127,481788280
205,22,Ticks_Phase_8,134,5,42,127,482588096
205,22,Ticks_Phase_8,135,1,48,32,482591136
205,22,Ticks_Phase_8,136,1,48,33,483370652
205,22,Ticks_Phase_8,137,5,42,127,483387952
205,22,Ticks_Phase_8,138,1,48,28,484149060
205,22,Ticks_Phase_8,139,5,42,127,484187368
205,22,Ticks_Phase_8,140,1,48,29,484965524
205,22,Ticks_Phase_8,141,5,42,127,484988200
205,22,Ticks_Phase_8,142,1,48,28,485698024
205,22,Ticks_Phase_8,143,5,42,127,485787988
205,22,Ticks_Phase_8,144,1,48,32,486571596
205,22,Ticks_Phase_8,145,5,42,127,486587700
205,22,Ticks_Phase_8,146,5,42,127,487387644
205,22,Ticks_Phase_8,147,1,48,33,487394260
205,22,Ticks_Phase_8,148,5,42,127,488188180
205,22,Ticks_Phase_8,149,1,48,33,488194872
205,22,Ticks_Phase_8,150,5,42,127,488987916
205,22,Ticks_Phase_8,151,1,48,34,488996712
205,22,Ticks_Phase_8,152,1,48,33,489730596
205,22,Ticks_Phase_8,153,5,42,127,489787620
205,22,Ticks_Phase_8,154,5,42,127,490587712
205,22,Ticks_Phase_8,155,1,48,37,490696992
205,22,Ticks_Phase_8,156,5,42,127,491388244
205,22,Ticks_Phase_8,157,1,48,21,491403616
205,22,Ticks_Phase_8,158,1,48,34,492159736
205,22,Ticks_Phase_8,159,5,42,127,492187952
205,22,Ticks_Phase_8,160,1,48,29,492944492
205,22,Ticks_Phase_8,161,5,42,127,492947968
205,22,Ticks_Phase_8,162,1,48,31,493653744
205,22,Ticks_Phase_8,163,5,42,127,493747964
205,22,Ticks_Phase_8,164,5,42,127,494548596
205,22,Ticks_Phase_8,165,1,48,26,494610348
205,22,Ticks_Phase_8,166,5,42,127,495348088
205,22,Ticks_Phase_8,167,1,48,18,495475024
205,22,Ticks_Phase_8,168,1,48,24,496100288
205,22,Ticks_Phase_8,169,5,42,127,496147744
205,22,Ticks_Phase_8,170,1,48,27,496898436
205,22,Ticks_Phase_8,171,5,42,127,496947608
205,22,Ticks_Phase_8,172,1,48,23,497680300
205,22,Ticks_Phase_8,173,5,42,127,497748364
205,22,Ticks_Phase_8,174,5,42,127,498548232
205,22,Ticks_Phase_8,175,1,48,19,498634624
205,22,Ticks_Phase_8,176,5,42,127,499347724
205,22,Ticks_Phase_8,177,1,48,23,499381340
205,22,Ticks_Phase_8,178,5,42,127,500147512
205,22,Ticks_Phase_8,179,1,48,24,500190768
205,22,Ticks_Phase_8,180,1,48,24,500881840
205,22,Ticks_Phase_8,181,5,42,127,500948412
205,22,Ticks_Phase_8,182,1,48,28,501630048
205,22,Ticks_Phase_8,183,5,42,127,501748184
205,22,Ticks_Phase_8,184,1,48,27,502510728
205,22,Ticks_Phase_8,185,5,42,127,502548012
205,22,Ticks_Phase_8,186,1,48,34,503323020
205,22,Ticks_Phase_8,187,5,42,127,503347648
205,22,Ticks_Phase_8,188,1,48,29,504102100
205,22,Ticks_Phase_8,189,5,42,127,504148260
205,22,Ticks_Phase_8,190,5,42,127,504948052
205,22,Ticks_Phase_8,191,1,48,24,504971124
205,22,Ticks_Phase_8,192,5,42,127,505668000
205,22,Ticks_Phase_8,193,1,48,20,505754612
205,22,Ticks_Phase_8,194,1,48,27,506454804
205,22,Ticks_Phase_8,195,5,42,127,506467852
205,22,Ticks_Phase_8,196,1,48,28,507252204
205,22,Ticks_Phase_8,197,5,42,127,507267716
205,22,Ticks_Phase_8,198,1,48,32,507960340
205,22,Ticks_Phase_8,199,5,42,127,508068160
205,22,Ticks_Phase_8,200,1,48,28,508855824
205,22,Ticks_Phase_8,201,5,42,127,508867888
205,22,Ticks_Phase_8,202,5,42,127,509667904
205,22,Ticks_Phase_8,203,1,48,27,509680816
205,22,Ticks_Phase_8,204,5,42,127,510467544
205,22,Ticks_Phase_8,205,1,48,27,510495320
205,22,Ticks_Phase_8,206,1,48,28,511216060
205,22,Ticks_Phase_8,207,5,42,127,511268368
205,22,Ticks_Phase_8,208,5,42,127,512068016
205,22,Ticks_Phase_8,209,1,48,21,512125028
205,22,Ticks_Phase_8,210,5,42,127,512867652
205,22,Ticks_Phase_8,211,1,48,13,513170356
205,22,Ticks_Phase_8,212,5,42,127,513667588
205,22,Ticks_Phase_8,213,5,42,127,514468368
205,22,Ticks_Phase_8,214,1,48,36,514581780
205,22,Ticks_Phase_8,215,5,42,127,515268008
205,22,Ticks_Phase_8,216,1,48,35,515343284
205,22,Ticks_Phase_8,217,5,42,127,516067648
205,22,Ticks_Phase_8,218,1,48,27,516142628
205,22,Ticks_Phase_8,219,1,48,29,516799440
205,22,Ticks_Phase_8,220,5,42,127,516867828
205,22,Ticks_Phase_8,221,5,42,127,517668444
205,22,Ticks_Phase_8,222,1,48,26,517670376
205,22,Ticks_Phase_8,223,1,48,31,518468080
205,22,Ticks_Phase_8,224,5,42,127,518469416
205,22,Ticks_Phase_8,225,1,48,25,519242184
205,22,Ticks_Phase_8,226,5,42,127,519347544
205,22,Ticks_Phase_8,227,5,42,127,520148400
205,22,Ticks_Phase_8,228,1,48,36,520190688
205,22,Ticks_Phase_8,229,5,42,127,520948188
205,22,Ticks_Phase_8,230,1,48,28,521111164
205,22,Ticks_Phase_8,231,5,42,127,521747924
205,22,Ticks_Phase_8,232,1,48,21,521909084
205,22,Ticks_Phase_8,233,5,42,127,522547564
205,22,Ticks_Phase_8,234,1,48,20,522625964
205,22,Ticks_Phase_8,235,5,42,127,523348320
205,22,Ticks_Phase_8,236,1,48,34,523364136
205,22,Ticks_Phase_8,237,1,48,34,524132744
205,22,Ticks_Phase_8,238,5,42,127,524147952
205,22,Ticks_Phase_8,239,1,48,38,524919976
205,22,Ticks_Phase_8,240,5,42,127,524947888
205,22,Ticks_Phase_8,241,1,48,31,525694780
205,22,Ticks_Phase_8,242,5,42,127,525747528
205,22,Ticks_Phase_8,243,1,48,37,526468636
205,22,Ticks_Phase_8,244,5,42,127,526548284
205,22,Ticks_Phase_8,245,1,48,28,527288984
205,22,Ticks_Phase_8,246,5,42,127,527348072
205,22,Ticks_Phase_8,247,1,48,28,528070752
205,22,Ticks_Phase_8,248,5,42,127,528147960
205,22,Ticks_Phase_8,249,1,48,32,528865460
205,22,Ticks_Phase_8,250,5,42,127,528947744
205,22,Ticks_Phase_8,251,1,48,26,529743984
205,22,Ticks_Phase_8,252,5,42,127,529748284
205,22,Ticks_Phase_8,253,5,42,127,530548152
205,22,Ticks_Phase_8,254,1,48,21,530570852
205,22,Ticks_Phase_8,255,1,48,35,531316356
205,22,Ticks_Phase_8,256,5,42,127,531347856
205,22,Ticks_Phase_8,257,1,48,36,532124652
205,22,Ticks_Phase_8,258,5,42,127,532147792
205,22,Ticks_Phase_8,259,1,48,35,532925488
205,22,Ticks_Phase_8,260,5,42,127,533108028
205,22,Ticks_Phase_8,261,5,42,127,533907840
205,22,Ticks_Phase_8,262,1,48,34,534627472
205,22,Ticks_Phase_8,263,5,42,127,534707492
205,22,Ticks_Phase_8,264,1,48,36,535395712
205,22,Ticks_Phase_8,265,5,42,127,535508460
205,22,Ticks_Phase_8,266,1,48,35,536271744
205,22,Ticks_Phase_8,267,5,42,127,536307964
205,22,Ticks_Phase_8,268,1,48,29,537064200
205,22,Ticks_Phase_8,269,5,42,127,537107852
205,22,Ticks_Phase_8,270,1,48,28,537876208
205,22,Ticks_Phase_8,271,5,42,127,537907564
205,22,Ticks_Phase_8,272,1,48,27,538676376
205,22,Ticks_Phase_8,273,5,42,127,538708320
205,22,Ticks_Phase_8,274,5,42,127,539508340
205,22,Ticks_Phase_8,275,1,48,31,539544792
205,22,Ticks_Phase_8,276,1,48,32,540251864
205,22,Ticks_Phase_8,277,5,42,127,540307672
205,22,Ticks_Phase_8,278,1,48,26,541098016
205,22,Ticks_Phase_8,279,5,42,127,541107536
205,22,Ticks_Phase_8,280,1,48,28,541891288
205,22,Ticks_Phase_8,281,5,42,127,541908292
205,22,Ticks_Phase_8,282,1,48,26,542663788
205,22,Ticks_Phase_8,283,5,42,127,542708080
205,22,Ticks_Phase_8,284,1,48,33,543457224
205,22,Ticks_Phase_8,285,5,42,127,543507820
205,22,Ticks_Phase_8,286,1,48,26,544305796
205,22,Ticks_Phase_8,287,5,42,127,544307456
205,22,Ticks_Phase_8,288,1,48,25,545107772
205,22,Ticks_Phase_8,289,5,42,127,545109560
205,22,Ticks_Phase_8,290,1,48,24,545877920
205,22,Ticks_Phase_8,291,5,42,127,545908004
205,22,Ticks_Phase_8,292,1,48,35,546683088
205,22,Ticks_Phase_8,293,5,42,127,546708164
205,22,Ticks_Phase_8,294,1,48,25,547505924
205,22,Ticks_Phase_8,295,5,42,127,547507580
205,22,Ticks_Phase_8,296,5,42,127,548147608
205,22,Ticks_Phase_8,297,1,48,18,548274596
205,22,Ticks_Phase_8,298,1,48,26,548866100
205,22,Ticks_Phase_8,299,5,42,127,548948284
205,22,Ticks_Phase_8,300,1,48,20,549698928
205,22,Ticks_Phase_8,301,5,42,127,549748076
205,22,Ticks_Phase_8,302,1,48,19,550460736
205,22,Ticks_Phase_8,303,5,42,127,550547936
205,22,Ticks_Phase_8,304,1,48,28,551202800
205,22,Ticks_Phase_8,305,5,42,127,551347708
205,22,Ticks_Phase_8,306,1,48,20,552128796
205,22,Ticks_Phase_8,307,5,42,127,552148260
205,22,Ticks_Phase_8,308,1,48,33,552858976
205,22,Ticks_Phase_8,309,5,42,127,552948196
205,22,Ticks_Phase_8,310,1,48,25,553649348
205,22,Ticks_Phase_8,311,5,42,127,553748740
205,22,Ticks_Phase_8,312,1,48,29,554459744
205,22,Ticks_Phase_8,313,5,42,127,554547500
205,22,Ticks_Phase_8,314,1,48,32,555278628
205,22,Ticks_Phase_8,315,5,42,127,555348552
205,22,Ticks_Phase_8,316,1,48,28,556084980
205,22,Ticks_Phase_8,317,5,42,127,556148116
205,22,Ticks_Phase_8,318,1,48,17,556946092
205,22,Ticks_Phase_8,319,5,42,127,556947756
205,22,Ticks_Phase_8,320,1,48,24,557698768
205,22,Ticks_Phase_8,321,5,42,127,557747616
205,22,Ticks_Phase_8,322,1,48,28,558512160
205,22,Ticks_Phase_8,323,5,42,127,558548524
205,22,Ticks_Phase_8,324,1,48,31,559312992
205,22,Ticks_Phase_8,325,5,42,127,559348084
205,22,Ticks_Phase_8,326,1,48,29,560142708
205,22,Ticks_Phase_8,327,5,42,127,560147828
205,22,Ticks_Phase_8,328,1,48,25,560932108
205,22,Ticks_Phase_8,329,5,42,127,560947688
205,22,Ticks_Phase_8,330,1,48,32,561713048
205,22,Ticks_Phase_8,331,5,42,127,561748296
205,22,Ticks_Phase_8,332,1,48,30,562481368
205,22,Ticks_Phase_8,333,5,42,127,562548012
205,22,Ticks_Phase_8,334,1,48,22,563270016
205,22,Ticks_Phase_8,335,5,42,127,563348020
205,22,Ticks_Phase_8,0,9999,9999,9999,428145724
205,22,Ticks_Phase_8,1,9999,9999,9999,428945524
205,22,Ticks_Phase_8,2,9999,9999,9999,429745224
205,22,Ticks_Phase_8,3,9999,9999,9999,430546004
205,22,Ticks_Phase_8,4,9999,9999,9999,431345716
205,22,Ticks_Phase_8,5,9999,9999,9999,432145532
205,22,Ticks_Phase_8,6,9999,9999,9999,432945244
205,22,Ticks_Phase_8,7,9999,9999,9999,433746004
205,22,Ticks_Phase_8,8,9999,9999,9999,434545792
205,22,Ticks_Phase_8,9,9999,9999,9999,435345504
205,22,Ticks_Phase_8,10,9999,9999,9999,436145208
205,22,Ticks_Phase_8,11,9999,9999,9999,436946040
205,22,Ticks_Phase_8,12,9999,9999,9999,437745756
205,22,Ticks_Phase_8,13,9999,9999,9999,438545492
205,22,Ticks_Phase_8,14,9999,9999,9999,439345204
205,22,Ticks_Phase_8,15,9999,9999,9999,440146044
205,22,Ticks_Phase_8,16,9999,9999,9999,440945756
205,22,Ticks_Phase_8,17,9999,9999,9999,441745464
205,22,Ticks_Phase_8,18,9999,9999,9999,442545252
205,22,Ticks_Phase_8,19,9999,9999,9999,443346012
205,22,Ticks_Phase_8,20,9999,9999,9999,444145728
205,22,Ticks_Phase_8,21,9999,9999,9999,444945532
205,22,Ticks_Phase_8,22,9999,9999,9999,445745244
205,22,Ticks_Phase_8,23,9999,9999,9999,446546012
205,22,Ticks_Phase_8,24,9999,9999,9999,447345724
205,22,Ticks_Phase_8,25,9999,9999,9999,448145512
205,22,Ticks_Phase_8,26,9999,9999,9999,448945216
205,22,Ticks_Phase_8,27,9999,9999,9999,449745976
205,22,Ticks_Phase_8,28,9999,9999,9999,450545764
205,22,Ticks_Phase_8,29,9999,9999,9999,451345508
205,22,Ticks_Phase_8,30,9999,9999,9999,452125784
205,22,Ticks_Phase_8,31,9999,9999,9999,452925564
205,22,Ticks_Phase_8,32,9999,9999,9999,453725284
205,22,Ticks_Phase_8,33,9999,9999,9999,454526040
205,22,Ticks_Phase_8,34,9999,9999,9999,455325752
205,22,Ticks_Phase_8,35,9999,9999,9999,456125548
205,22,Ticks_Phase_8,36,9999,9999,9999,456925256
205,22,Ticks_Phase_8,37,9999,9999,9999,457726016
205,22,Ticks_Phase_8,38,9999,9999,9999,458525752
205,22,Ticks_Phase_8,39,9999,9999,9999,459325532
205,22,Ticks_Phase_8,40,9999,9999,9999,460125248
205,22,Ticks_Phase_8,41,9999,9999,9999,460926076
205,22,Ticks_Phase_8,42,9999,9999,9999,461725796
205,22,Ticks_Phase_8,43,9999,9999,9999,462525504
205,22,Ticks_Phase_8,44,9999,9999,9999,463325292
205,22,Ticks_Phase_8,45,9999,9999,9999,464126056
205,22,Ticks_Phase_8,46,9999,9999,9999,464925816
205,22,Ticks_Phase_8,47,9999,9999,9999,465725520
205,22,Ticks_Phase_8,48,9999,9999,9999,466545756
205,22,Ticks_Phase_8,49,9999,9999,9999,467345508
205,22,Ticks_Phase_8,50,9999,9999,9999,468145224
205,22,Ticks_Phase_8,51,9999,9999,9999,468945980
205,22,Ticks_Phase_8,52,9999,9999,9999,469745756
205,22,Ticks_Phase_8,53,9999,9999,9999,470545508
205,22,Ticks_Phase_8,54,9999,9999,9999,471345220
205,22,Ticks_Phase_8,55,9999,9999,9999,472145980
205,22,Ticks_Phase_8,56,9999,9999,9999,472945772
205,22,Ticks_Phase_8,57,9999,9999,9999,473745480
205,22,Ticks_Phase_8,58,9999,9999,9999,474545268
205,22,Ticks_Phase_8,59,9999,9999,9999,475346028
205,22,Ticks_Phase_8,60,9999,9999,9999,476145736
205,22,Ticks_Phase_8,61,9999,9999,9999,476945472
205,22,Ticks_Phase_8,62,9999,9999,9999,477745268
205,22,Ticks_Phase_8,63,9999,9999,9999,478546028
205,22,Ticks_Phase_8,64,9999,9999,9999,479385660
205,22,Ticks_Phase_8,65,9999,9999,9999,480185448
205,22,Ticks_Phase_8,66,9999,9999,9999,480985160
205,22,Ticks_Phase_8,67,9999,9999,9999,481785920
205,22,Ticks_Phase_8,68,9999,9999,9999,482585664
205,22,Ticks_Phase_8,69,9999,9999,9999,483385444
205,22,Ticks_Phase_8,70,9999,9999,9999,484185160
205,22,Ticks_Phase_8,71,9999,9999,9999,484985916
205,22,Ticks_Phase_8,72,9999,9999,9999,485785704
205,22,Ticks_Phase_8,73,9999,9999,9999,486585416
205,22,Ticks_Phase_8,74,9999,9999,9999,487385208
205,22,Ticks_Phase_8,75,9999,9999,9999,488185968
205,22,Ticks_Phase_8,76,9999,9999,9999,488985704
205,22,Ticks_Phase_8,77,9999,9999,9999,489785408
205,22,Ticks_Phase_8,78,9999,9999,9999,490585204
205,22,Ticks_Phase_8,79,9999,9999,9999,491385960
205,22,Ticks_Phase_8,80,9999,9999,9999,492185668
205,22,Ticks_Phase_8,81,9999,9999,9999,492945532
205,22,Ticks_Phase_8,82,9999,9999,9999,493745248
205,22,Ticks_Phase_8,83,9999,9999,9999,494546012
205,22,Ticks_Phase_8,84,9999,9999,9999,495345724
205,22,Ticks_Phase_8,85,9999,9999,9999,496145532
205,22,Ticks_Phase_8,86,9999,9999,9999,496945244
205,22,Ticks_Phase_8,87,9999,9999,9999,497746004
205,22,Ticks_Phase_8,88,9999,9999,9999,498545724
205,22,Ticks_Phase_8,89,9999,9999,9999,499345512
205,22,Ticks_Phase_8,90,9999,9999,9999,500145224
205,22,Ticks_Phase_8,91,9999,9999,9999,500945976
205,22,Ticks_Phase_8,92,9999,9999,9999,501745748
205,22,Ticks_Phase_8,93,9999,9999,9999,502545504
205,22,Ticks_Phase_8,94,9999,9999,9999,503345216
205,22,Ticks_Phase_8,95,9999,9999,9999,504145976
205,22,Ticks_Phase_8,96,9999,9999,9999,504945768
205,22,Ticks_Phase_8,97,9999,9999,9999,505665636
205,22,Ticks_Phase_8,98,9999,9999,9999,506465344
205,22,Ticks_Phase_8,99,9999,9999,9999,507265132
205,22,Ticks_Phase_8,100,9999,9999,9999,508065876
205,22,Ticks_Phase_8,101,9999,9999,9999,508865600
205,22,Ticks_Phase_8,102,9999,9999,9999,509665396
205,22,Ticks_Phase_8,103,9999,9999,9999,510465108
205,22,Ticks_Phase_8,104,9999,9999,9999,511265860
205,22,Ticks_Phase_8,105,9999,9999,9999,512065656
205,22,Ticks_Phase_8,106,9999,9999,9999,512865368
205,22,Ticks_Phase_8,107,9999,9999,9999,513665080
205,22,Ticks_Phase_8,108,9999,9999,9999,514465860
205,22,Ticks_Phase_8,109,9999,9999,9999,515265648
205,22,Ticks_Phase_8,110,9999,9999,9999,516065364
205,22,Ticks_Phase_8,111,9999,9999,9999,516865144
205,22,Ticks_Phase_8,112,9999,9999,9999,517665860
205,22,Ticks_Phase_8,113,9999,9999,9999,518465648
205,22,Ticks_Phase_8,114,9999,9999,9999,519345260
205,22,Ticks_Phase_8,115,9999,9999,9999,520146040
205,22,Ticks_Phase_8,116,9999,9999,9999,520945752
205,22,Ticks_Phase_8,117,9999,9999,9999,521745492
205,22,Ticks_Phase_8,118,9999,9999,9999,522545280
205,22,Ticks_Phase_8,119,9999,9999,9999,523346036
205,22,Ticks_Phase_8,120,9999,9999,9999,524145744
205,22,Ticks_Phase_8,121,9999,9999,9999,524945528
205,22,Ticks_Phase_8,122,9999,9999,9999,525745244
205,22,Ticks_Phase_8,123,9999,9999,9999,526546000
205,22,Ticks_Phase_8,124,9999,9999,9999,527345788
205,22,Ticks_Phase_8,125,9999,9999,9999,528145524
205,22,Ticks_Phase_8,126,9999,9999,9999,528945236
205,22,Ticks_Phase_8,127,9999,9999,9999,529745996
205,22,Ticks_Phase_8,128,9999,9999,9999,530545792
205,22,Ticks_Phase_8,129,9999,9999,9999,531345496
205,22,Ticks_Phase_8,130,9999,9999,9999,532145212
205,22,Ticks_Phase_8,131,9999,9999,9999,533105744
205,22,Ticks_Phase_8,132,9999,9999,9999,533905480
205,22,Ticks_Phase_8,133,9999,9999,9999,534705208
205,22,Ticks_Phase_8,134,9999,9999,9999,535506024
205,22,Ticks_Phase_8,135,9999,9999,9999,536305752
205,22,Ticks_Phase_8,136,9999,9999,9999,537105492
205,22,Ticks_Phase_8,137,9999,9999,9999,537905276
205,22,Ticks_Phase_8,138,9999,9999,9999,538706036
205,22,Ticks_Phase_8,139,9999,9999,9999,539505756
205,22,Ticks_Phase_8,140,9999,9999,9999,540305464
205,22,Ticks_Phase_8,141,9999,9999,9999,541105252
205,22,Ticks_Phase_8,142,9999,9999,9999,541906008
205,22,Ticks_Phase_8,143,9999,9999,9999,542705720
205,22,Ticks_Phase_8,144,9999,9999,9999,543505532
205,22,Ticks_Phase_8,145,9999,9999,9999,544305272
205,22,Ticks_Phase_8,146,9999,9999,9999,545106012
205,22,Ticks_Phase_8,147,9999,9999,9999,545905720
205,22,Ticks_Phase_8,148,9999,9999,9999,546705508
205,22,Ticks_Phase_8,149,9999,9999,9999,547505232
205,22,Ticks_Phase_8,150,9999,9999,9999,548145248
205,22,Ticks_Phase_8,151,9999,9999,9999,548946000
205,22,Ticks_Phase_8,152,9999,9999,9999,549745788
205,22,Ticks_Phase_8,153,9999,9999,9999,550545504
205,22,Ticks_Phase_8,154,9999,9999,9999,551345276
205,22,Ticks_Phase_8,155,9999,9999,9999,552145972
205,22,Ticks_Phase_8,156,9999,9999,9999,552945760
205,22,Ticks_Phase_8,157,9999,9999,9999,553745500
205,22,Ticks_Phase_8,158,9999,9999,9999,554545212
205,22,Ticks_Phase_8,159,9999,9999,9999,555346044
205,22,Ticks_Phase_8,160,9999,9999,9999,556145756
205,22,Ticks_Phase_8,161,9999,9999,9999,556945492
205,22,Ticks_Phase_8,162,9999,9999,9999,557745256
205,22,Ticks_Phase_8,163,9999,9999,9999,558546016
205,22,Ticks_Phase_8,164,9999,9999,9999,559345728
205,22,Ticks_Phase_8,165,9999,9999,9999,560145464
205,22,Ticks_Phase_8,166,9999,9999,9999,560945256
205,22,Ticks_Phase_8,167,9999,9999,9999,561746012
205,22,Ticks_Phase_8,168,9999,9999,9999,562545728
205,22,Ticks_Phase_8,169,9999,9999,9999,563345512
206,23,Ticks_Phase_5,0,5,42,127,574463256
206,23,Ticks_Phase_5,1,5,42,127,574963000
206,23,Ticks_Phase_5,2,1,48,19,575439472
206,23,Ticks_Phase_5,3,5,42,127,575462832
206,23,Ticks_Phase_5,4,1,48,13,575950968
206,23,Ticks_Phase_5,5,5,42,127,575962428
206,23,Ticks_Phase_5,6,1,48,16,576456456
206,23,Ticks_Phase_5,7,5,42,127,576463144
206,23,Ticks_Phase_5,8,1,48,23,576907756
206,23,Ticks_Phase_5,9,5,42,127,576963036
206,23,Ticks_Phase_5,10,5,42,127,577462788
206,23,Ticks_Phase_5,11,1,48,19,577480776
206,23,Ticks_Phase_5,12,1,48,17,577949784
206,23,Ticks_Phase_5,13,5,42,127,577963496
206,23,Ticks_Phase_5,14,1,48,19,578405868
206,23,Ticks_Phase_5,15,5,42,127,578463092
206,23,Ticks_Phase_5,16,1,48,19,578959516
206,23,Ticks_Phase_5,17,5,42,127,578962764
206,23,Ticks_Phase_5,18,1,48,17,579454776
206,23,Ticks_Phase_5,19,5,42,127,579462508
206,23,Ticks_Phase_5,20,1,48,25,579919676
206,23,Ticks_Phase_5,21,5,42,127,579963300
206,23,Ticks_Phase_5,22,1,48,18,580431920
206,23,Ticks_Phase_5,23,5,42,127,580462896
206,23,Ticks_Phase_5,24,1,48,16,580944968
206,23,Ticks_Phase_5,25,5,42,127,580962640
206,23,Ticks_Phase_5,26,5,42,127,581463364
206,23,Ticks_Phase_5,27,1,48,23,581908668
206,23,Ticks_Phase_5,28,5,42,127,581963272
206,23,Ticks_Phase_5,29,5,42,127,582462804
206,23,Ticks_Phase_5,30,1,48,24,582469876
206,23,Ticks_Phase_5,31,5,42,127,582962476
206,23,Ticks_Phase_5,32,1,48,24,582981368
206,23,Ticks_Phase_5,33,1,48,22,583453660
206,23,Ticks_Phase_5,34,5,42,127,583463188
206,23,Ticks_Phase_5,35,5,42,127,583962936
206,23,Ticks_Phase_5,36,1,48,20,583964196
206,23,Ticks_Phase_5,37,1,48,21,584422324
206,23,Ticks_Phase_5,38,5,42,127,584462676
206,23,Ticks_Phase_5,39,5,42,127,584962352
206,23,Ticks_Phase_5,40,1,48,24,584970780
206,23,Ticks_Phase_5,41,1,48,24,585416648
206,23,Ticks_Phase_5,42,5,42,127,585463408
206,23,Ticks_Phase_5,43,5,42,127,585962788
206,23,Ticks_Phase_5,44,1,48,18,585964724
206,23,Ticks_Phase_5,45,1,48,19,586448884
206,23,Ticks_Phase_5,46,5,42,127,586462528
206,23,Ticks_Phase_5,47,1,48,25,586915292
206,23,Ticks_Phase_5,48,5,42,127,586963244
206,23,Ticks_Phase_5,49,5,42,127,587462996
206,23,Ticks_Phase_5,50,1,48,18,587485552
206,23,Ticks_Phase_5,51,5,42,127,587962668
206,23,Ticks_Phase_5,52,1,48,20,588431456
206,23,Ticks_Phase_5,53,5,42,127,588462356
206,23,Ticks_Phase_5,54,1,48,22,588943904
206,23,Ticks_Phase_5,55,5,42,127,588963148
206,23,Ticks_Phase_5,56,1,48,22,589443204
206,23,Ticks_Phase_5,57,5,42,127,589452872
206,23,Ticks_Phase_5,58,1,48,24,589944440
206,23,Ticks_Phase_5,59,5,42,127,589953368
206,23,Ticks_Phase_5,60,5,42,127,590453044
206,23,Ticks_Phase_5,61,1,48,24,590454904
206,23,Ticks_Phase_5,62,5,42,127,590952940
206,23,Ticks_Phase_5,63,1,48,19,591000608
206,23,Ticks_Phase_5,64,5,42,127,591452464
206,23,Ticks_Phase_5,65,1,48,18,591522944
206,23,Ticks_Phase_5,66,5,42,127,591953180
206,23,Ticks_Phase_5,67,1,48,19,591960560
206,23,Ticks_Phase_5,68,1,48,19,592374888
206,23,Ticks_Phase_5,69,5,42,127,592452992
206,23,Ticks_Phase_5,70,1,48,22,592946204
206,23,Ticks_Phase_5,71,5,42,127,592953108
206,23,Ticks_Phase_5,72,5,42,127,593453312
206,23,Ticks_Phase_5,73,1,48,20,593468980
206,23,Ticks_Phase_5,74,5,42,127,593963224
206,23,Ticks_Phase_5,75,1,48,20,593968432
206,23,Ticks_Phase_5,76,1,48,21,594453888
206,23,Ticks_Phase_5,77,5,42,127,594462960
206,23,Ticks_Phase_5,78,5,42,127,594962788
206,23,Ticks_Phase_5,79,1,48,28,594974952
206,23,Ticks_Phase_5,80,1,48,20,595460344
206,23,Ticks_Phase_5,81,5,42,127,595462752
206,23,Ticks_Phase_5,82,1,48,23,595938140
206,23,Ticks_Phase_5,83,5,42,127,595963144
206,23,Ticks_Phase_5,84,1,48,21,596454984
206,23,Ticks_Phase_5,85,5,42,127,596462940
206,23,Ticks_Phase_5,86,5,42,127,596962620
206,23,Ticks_Phase_5,87,1,48,24,596965208
206,23,Ticks_Phase_5,88,1,48,16,597435636
206,23,Ticks_Phase_5,89,5,42,127,597463848
206,23,Ticks_Phase_5,90,1,48,13,597947044
206,23,Ticks_Phase_5,91,5,42,127,597963148
206,23,Ticks_Phase_5,92,1,48,24,598435952
206,23,Ticks_Phase_5,93,5,42,127,598473064
206,23,Ticks_Phase_5,94,1,48,19,598970852
206,23,Ticks_Phase_5,95,5,42,127,598972736
206,23,Ticks_Phase_5,96,5,42,127,599472412
206,23,Ticks_Phase_5,97,1,48,23,599473376
206,23,Ticks_Phase_5,98,5,42,127,599973204
206,23,Ticks_Phase_5,99,1,48,26,600002568
206,23,Ticks_Phase_5,100,5,42,127,600472876
206,23,Ticks_Phase_5,101,1,48,18,600482872
206,23,Ticks_Phase_5,102,1,48,24,600914864
206,23,Ticks_Phase_5,103,5,42,127,600972764
206,23,Ticks_Phase_5,104,1,48,27,601409448
206,23,Ticks_Phase_5,105,5,42,127,601473332
206,23,Ticks_Phase_5,106,1,48,23,601950848
206,23,Ticks_Phase_5,107,5,42,127,601973076
206,23,Ticks_Phase_5,108,5,42,127,602472828
206,23,Ticks_Phase_5,109,1,48,28,602482900
206,23,Ticks_Phase_5,110,5,42,127,602972648
206,23,Ticks_Phase_5,111,1,48,26,603002908
206,23,Ticks_Phase_5,112,1,48,26,603465400
206,23,Ticks_Phase_5,113,5,42,127,603473432
206,23,Ticks_Phase_5,114,5,42,127,603972960
206,23,Ticks_Phase_5,115,1,48,19,603980328
206,23,Ticks_Phase_5,116,1,48,21,604449040
206,23,Ticks_Phase_5,117,5,42,127,604472624
206,23,Ticks_Phase_5,118,1,48,28,604944004
206,23,Ticks_Phase_5,119,5,42,127,604973416
206,23,Ticks_Phase_5,120,1,48,23,605444648
206,23,Ticks_Phase_5,121,5,42,127,605483476
206,23,Ticks_Phase_5,122,1,48,22,605965476
206,23,Ticks_Phase_5,123,5,42,127,605983448
206,23,Ticks_Phase_5,124,1,48,26,606457196
206,23,Ticks_Phase_5,125,5,42,127,606503308
206,23,Ticks_Phase_5,126,1,48,28,606994724
206,23,Ticks_Phase_5,127,5,42,127,607003272
206,23,Ticks_Phase_5,128,5,42,127,607502580
206,23,Ticks_Phase_5,129,1,48,28,607514668
206,23,Ticks_Phase_5,130,5,42,127,608002396
206,23,Ticks_Phase_5,131,1,48,27,608012840
206,23,Ticks_Phase_5,132,1,48,20,608498116
206,23,Ticks_Phase_5,133,5,42,127,608503304
206,23,Ticks_Phase_5,134,1,48,27,608980956
206,23,Ticks_Phase_5,135,5,42,127,609002904
206,23,Ticks_Phase_5,136,1,48,26,609470996
206,23,Ticks_Phase_5,137,5,42,127,609502424
206,23,Ticks_Phase_5,138,1,48,24,610000708
206,23,Ticks_Phase_5,139,5,42,127,610003364
206,23,Ticks_Phase_5,140,5,42,127,610503116
206,23,Ticks_Phase_5,141,1,48,19,610533368
206,23,Ticks_Phase_5,142,1,48,23,610996472
206,23,Ticks_Phase_5,143,5,42,127,611003076
206,23,Ticks_Phase_5,144,1,48,29,611490376
206,23,Ticks_Phase_5,145,5,42,127,611502376
206,23,Ticks_Phase_5,146,1,48,29,611992824
206,23,Ticks_Phase_5,147,5,42,127,612003092
206,23,Ticks_Phase_5,148,1,48,23,612503140
206,23,Ticks_Phase_5,149,5,42,127,612504704
206,23,Ticks_Phase_5,150,5,42,127,613002588
206,23,Ticks_Phase_5,151,1,48,24,613023644
206,23,Ticks_Phase_5,152,5,42,127,613503376
206,23,Ticks_Phase_5,153,1,48,28,613520396
206,23,Ticks_Phase_5,154,5,42,127,614003196
206,23,Ticks_Phase_5,155,1,48,31,614014240
206,23,Ticks_Phase_5,156,1,48,27,614473976
206,23,Ticks_Phase_5,157,5,42,127,614503012
206,23,Ticks_Phase_5,158,5,42,127,614983104
206,23,Ticks_Phase_5,159,1,48,23,614987940
206,23,Ticks_Phase_5,160,1,48,25,615472944
206,23,Ticks_Phase_5,161,5,42,127,615482840
206,23,Ticks_Phase_5,162,1,48,19,615967756
206,23,Ticks_Phase_5,163,5,42,127,615982440
206,23,Ticks_Phase_5,164,1,48,28,616413948
206,23,Ticks_Phase_5,165,5,42,127,616483228
206,23,Ticks_Phase_5,166,5,42,127,616982832
206,23,Ticks_Phase_5,167,1,48,22,617038424
206,23,Ticks_Phase_5,168,5,42,127,617482652
206,23,Ticks_Phase_5,169,1,48,19,617509312
206,23,Ticks_Phase_5,170,5,42,127,617983368
206,23,Ticks_Phase_5,171,1,48,35,618376984
206,23,Ticks_Phase_5,172,5,42,127,618482940
206,23,Ticks_Phase_5,173,1,48,19,618948652
206,23,Ticks_Phase_5,174,5,42,127,618982920
206,23,Ticks_Phase_5,175,1,48,13,619455052
206,23,Ticks_Phase_5,176,5,42,127,619482668
206,23,Ticks_Phase_5,177,5,42,127,619983168
206,23,Ticks_Phase_5,178,1,48,21,619996376
206,23,Ticks_Phase_5,179,5,42,127,620482840
206,23,Ticks_Phase_5,180,1,48,24,620485576
206,23,Ticks_Phase_5,181,5,42,127,620982660
206,23,Ticks_Phase_5,182,1,48,20,621007604
206,23,Ticks_Phase_5,183,5,42,127,621483300
206,23,Ticks_Phase_5,184,1,48,23,621490536
206,23,Ticks_Phase_5,185,1,48,25,621975452
206,23,Ticks_Phase_5,186,5,42,127,621982964
206,23,Ticks_Phase_5,187,1,48,29,622450520
206,23,Ticks_Phase_5,188,5,42,127,622482860
206,23,Ticks_Phase_5,189,1,48,32,622930236
206,23,Ticks_Phase_5,190,5,42,127,622933412
206,23,Ticks_Phase_5,191,5,42,127,623433088
206,23,Ticks_Phase_5,192,1,48,24,623441888
206,23,Ticks_Phase_5,193,5,42,127,623932684
206,23,Ticks_Phase_5,194,1,48,28,623939456
206,23,Ticks_Phase_5,195,1,48,26,624429696
206,23,Ticks_Phase_5,196,5,42,127,624432500
206,23,Ticks_Phase_5,197,1,48,27,624907544
206,23,Ticks_Phase_5,198,5,42,127,624933216
206,23,Ticks_Phase_5,199,1,48,24,625407880
206,23,Ticks_Phase_5,200,5,42,127,625433108
206,23,Ticks_Phase_5,201,5,42,127,625932788
206,23,Ticks_Phase_5,202,1,48,27,625935752
206,23,Ticks_Phase_5,203,5,42,127,626433356
206,23,Ticks_Phase_5,204,1,48,22,626443796
206,23,Ticks_Phase_5,205,1,48,25,626911588
206,23,Ticks_Phase_5,206,5,42,127,626933364
206,23,Ticks_Phase_5,207,5,42,127,627432744
206,23,Ticks_Phase_5,208,1,48,21,627450680
206,23,Ticks_Phase_5,209,1,48,31,627908228
206,23,Ticks_Phase_5,210,5,42,127,627932484
206,23,Ticks_Phase_5,211,5,42,127,628433208
206,23,Ticks_Phase_5,212,1,48,21,628459044
206,23,Ticks_Phase_5,213,5,42,127,628933100
206,23,Ticks_Phase_5,214,1,48,27,628958272
206,23,Ticks_Phase_5,215,1,48,20,629422128
206,23,Ticks_Phase_5,216,5,42,127,629432764
206,23,Ticks_Phase_5,217,1,48,31,629901308
206,23,Ticks_Phase_5,218,5,42,127,629933336
206,23,Ticks_Phase_5,219,1,48,30,630406436
206,23,Ticks_Phase_5,220,5,42,127,630443320
206,23,Ticks_Phase_5,221,1,48,30,630904384
206,23,Ticks_Phase_5,222,5,42,127,630943068
206,23,Ticks_Phase_5,223,1,48,25,631373556
206,23,Ticks_Phase_5,224,5,42,127,631492964
206,23,Ticks_Phase_5,225,5,42,127,631992880
206,23,Ticks_Phase_5,226,5,42,127,632493468
206,23,Ticks_Phase_5,227,1,48,16,632756628
206,23,Ticks_Phase_5,228,5,42,127,633003380
206,23,Ticks_Phase_5,229,1,48,17,633372056
206,23,Ticks_Phase_5,230,5,42,127,633503200
206,23,Ticks_Phase_5,231,1,48,24,633874116
206,23,Ticks_Phase_5,232,5,42,127,634002868
206,23,Ticks_Phase_5,233,1,48,25,634416476
206,23,Ticks_Phase_5,234,5,42,127,634502780
206,23,Ticks_Phase_5,235,5,42,127,635003352
206,23,Ticks_Phase_5,236,5,42,127,635502896
206,23,Ticks_Phase_5,237,5,42,127,636002812
206,23,Ticks_Phase_5,238,1,48,17,636472344
206,23,Ticks_Phase_5,239,5,42,127,636503396
206,23,Ticks_Phase_5,240,1,48,28,636965208
206,23,Ticks_Phase_5,241,5,42,127,637003068
206,23,Ticks_Phase_5,242,1,48,27,637482524
206,23,Ticks_Phase_5,243,5,42,127,637502812
206,23,Ticks_Phase_5,244,1,48,24,637974788
206,23,Ticks_Phase_5,245,5,42,127,638002780
206,23,Ticks_Phase_5,246,1,48,28,638475128
206,23,Ticks_Phase_5,247,5,42,127,638503348
206,23,Ticks_Phase_5,248,1,48,33,638960416
206,23,Ticks_Phase_5,249,5,42,127,639002944
206,23,Ticks_Phase_5,250,1,48,24,639500732
206,23,Ticks_Phase_5,251,5,42,127,639502616
206,23,Ticks_Phase_5,252,1,48,25,639974420
206,23,Ticks_Phase_5,253,5,42,127,640102752
206,23,Ticks_Phase_5,254,5,42,127,640602664
206,23,Ticks_Phase_5,255,1,48,29,641083708
206,23,Ticks_Phase_5,256,5,42,127,641103172
206,23,Ticks_Phase_5,257,1,48,24,641595636
206,23,Ticks_Phase_5,258,5,42,127,641603064
206,23,Ticks_Phase_5,259,1,48,25,642091352
206,23,Ticks_Phase_5,260,5,42,127,642102664
206,23,Ticks_Phase_5,261,1,48,26,642567464
206,23,Ticks_Phase_5,262,5,42,127,642603452
206,23,Ticks_Phase_5,263,1,48,27,643090080
206,23,Ticks_Phase_5,264,5,42,127,643103048
206,23,Ticks_Phase_5,265,1,48,26,643574108
206,23,Ticks_Phase_5,266,5,42,127,643602868
206,23,Ticks_Phase_5,267,1,48,24,644090464
206,23,Ticks_Phase_5,268,5,42,127,644102392
206,23,Ticks_Phase_5,269,1,48,23,644585852
206,23,Ticks_Phase_5,270,5,42,127,644603328
206,23,Ticks_Phase_5,271,1,48,28,645065864
206,23,Ticks_Phase_5,272,5,42,127,645102900
206,23,Ticks_Phase_5,273,1,48,25,645547664
206,23,Ticks_Phase_5,274,5,42,127,645602792
206,23,Ticks_Phase_5,275,1,48,29,646035672
206,23,Ticks_Phase_5,276,5,42,127,646103288
206,23,Ticks_Phase_5,277,1,48,24,646549844
206,23,Ticks_Phase_5,278,5,42,127,646603404
206,23,Ticks_Phase_5,279,1,48,23,647062304
206,23,Ticks_Phase_5,280,5,42,127,647102776
206,23,Ticks_Phase_5,281,1,48,30,647586868
206,23,Ticks_Phase_5,282,5,42,127,647602448
206,23,Ticks_Phase_5,283,5,42,127,648103396
206,23,Ticks_Phase_5,284,1,48,24,648123932
206,23,Ticks_Phase_5,285,1,48,32,648588220
206,23,Ticks_Phase_5,286,5,42,127,648603208
206,23,Ticks_Phase_5,287,5,42,127,649102588
206,23,Ticks_Phase_5,288,1,48,25,649127900
206,23,Ticks_Phase_5,289,5,42,127,649503052
206,23,Ticks_Phase_5,290,1,48,22,649604328
206,23,Ticks_Phase_5,291,5,42,127,650003092
206,23,Ticks_Phase_5,292,1,48,30,650125228
206,23,Ticks_Phase_5,293,5,42,127,650502396
206,23,Ticks_Phase_5,294,1,48,17,650503360
206,23,Ticks_Phase_5,295,1,48,20,650724236
206,23,Ticks_Phase_5,296,5,42,127,651003312
206,23,Ticks_Phase_5,297,1,48,19,651134120
206,23,Ticks_Phase_5,298,5,42,127,651503032
206,23,Ticks_Phase_5,299,5,42,127,652003096
206,23,Ticks_Phase_5,300,1,48,24,652444068
206,23,Ticks_Phase_5,301,5,42,127,652503456
206,23,Ticks_Phase_5,302,1,48,26,652993980
206,23,Ticks_Phase_5,303,5,42,127,653002980
206,23,Ticks_Phase_5,304,5,42,127,653503176
206,23,Ticks_Phase_5,305,1,48,28,653519148
206,23,Ticks_Phase_5,306,5,42,127,654002476
206,23,Ticks_Phase_5,307,1,48,22,654015380
206,23,Ticks_Phase_5,308,5,42,127,654503340
206,23,Ticks_Phase_5,309,1,48,19,654514236
206,23,Ticks_Phase_5,310,5,42,127,655003084
206,23,Ticks_Phase_5,311,1,48,19,655005452
206,23,Ticks_Phase_5,312,5,42,127,655502904
206,23,Ticks_Phase_5,313,1,48,24,655506992
206,23,Ticks_Phase_5,314,1,48,28,655966800
206,23,Ticks_Phase_5,315,5,42,127,656002344
206,23,Ticks_Phase_5,316,5,42,127,656503140
206,23,Ticks_Phase_5,317,1,48,20,656506180
206,23,Ticks_Phase_5,318,5,42,127,657003036
206,23,Ticks_Phase_5,319,1,48,29,657371836
206,23,Ticks_Phase_5,320,5,42,127,657502556
206,23,Ticks_Phase_5,321,1,48,24,657911060
206,23,Ticks_Phase_5,322,5,42,127,658003288
206,23,Ticks_Phase_5,323,1,48,27,658463008
206,23,Ticks_Phase_5,324,5,42,127,658502956
206,23,Ticks_Phase_5,325,1,48,24,658954896
206,23,Ticks_Phase_5,326,5,42,127,659002628
206,23,Ticks_Phase_5,0,9999,9999,9999,574461020
206,23,Ticks_Phase_5,1,9999,9999,9999,574960716
206,23,Ticks_Phase_5,2,9999,9999,9999,575460476
206,23,Ticks_Phase_5,3,9999,9999,9999,575960144
206,23,Ticks_Phase_5,4,9999,9999,9999,576460860
206,23,Ticks_Phase_5,5,9999,9999,9999,576960608
206,23,Ticks_Phase_5,6,9999,9999,9999,577460284
206,23,Ticks_Phase_5,7,9999,9999,9999,577961064
206,23,Ticks_Phase_5,8,9999,9999,9999,578460736
206,23,Ticks_Phase_5,9,9999,9999,9999,578960480
206,23,Ticks_Phase_5,10,9999,9999,9999,579460152
206,23,Ticks_Phase_5,11,9999,9999,9999,579960940
206,23,Ticks_Phase_5,12,9999,9999,9999,580460612
206,23,Ticks_Phase_5,13,9999,9999,9999,580960360
206,23,Ticks_Phase_5,14,9999,9999,9999,581461080
206,23,Ticks_Phase_5,15,9999,9999,9999,581960768
206,23,Ticks_Phase_5,16,9999,9999,9999,582460520
206,23,Ticks_Phase_5,17,9999,9999,9999,582960192
206,23,Ticks_Phase_5,18,9999,9999,9999,583460976
206,23,Ticks_Phase_5,19,9999,9999,9999,583960652
206,23,Ticks_Phase_5,20,9999,9999,9999,584460392
206,23,Ticks_Phase_5,21,9999,9999,9999,584960068
206,23,Ticks_Phase_5,22,9999,9999,9999,585460828
206,23,Ticks_Phase_5,23,9999,9999,9999,585960508
206,23,Ticks_Phase_5,24,9999,9999,9999,586460244
206,23,Ticks_Phase_5,25,9999,9999,9999,586960960
206,23,Ticks_Phase_5,26,9999,9999,9999,587460712
206,23,Ticks_Phase_5,27,9999,9999,9999,587960384
206,23,Ticks_Phase_5,28,9999,9999,9999,588460148
206,23,Ticks_Phase_5,29,9999,9999,9999,588960864
206,23,Ticks_Phase_5,30,9999,9999,9999,589450368
206,23,Ticks_Phase_5,31,9999,9999,9999,589951084
206,23,Ticks_Phase_5,32,9999,9999,9999,590450760
206,23,Ticks_Phase_5,33,9999,9999,9999,590950508
206,23,Ticks_Phase_5,34,9999,9999,9999,591450180
206,23,Ticks_Phase_5,35,9999,9999,9999,591950972
206,23,Ticks_Phase_5,36,9999,9999,9999,592450636
206,23,Ticks_Phase_5,37,9999,9999,9999,592950380
206,23,Ticks_Phase_5,38,9999,9999,9999,593451100
206,23,Ticks_Phase_5,39,9999,9999,9999,593961012
206,23,Ticks_Phase_5,40,9999,9999,9999,594460752
206,23,Ticks_Phase_5,41,9999,9999,9999,594960504
206,23,Ticks_Phase_5,42,9999,9999,9999,595460208
206,23,Ticks_Phase_5,43,9999,9999,9999,595960936
206,23,Ticks_Phase_5,44,9999,9999,9999,596460656
206,23,Ticks_Phase_5,45,9999,9999,9999,596960336
206,23,Ticks_Phase_5,46,9999,9999,9999,597461116
206,23,Ticks_Phase_5,47,9999,9999,9999,597960792
206,23,Ticks_Phase_5,48,9999,9999,9999,598470780
206,23,Ticks_Phase_5,49,9999,9999,9999,598970476
206,23,Ticks_Phase_5,50,9999,9999,9999,599470204
206,23,Ticks_Phase_5,51,9999,9999,9999,599970920
206,23,Ticks_Phase_5,52,9999,9999,9999,600470592
206,23,Ticks_Phase_5,53,9999,9999,9999,600970332
206,23,Ticks_Phase_5,54,9999,9999,9999,601471048
206,23,Ticks_Phase_5,55,9999,9999,9999,601970792
206,23,Ticks_Phase_5,56,9999,9999,9999,602470472
206,23,Ticks_Phase_5,57,9999,9999,9999,602970216
206,23,Ticks_Phase_5,58,9999,9999,9999,603470924
206,23,Ticks_Phase_5,59,9999,9999,9999,603970676
206,23,Ticks_Phase_5,60,9999,9999,9999,604470340
206,23,Ticks_Phase_5,61,9999,9999,9999,604971132
206,23,Ticks_Phase_5,62,9999,9999,9999,605481044
206,23,Ticks_Phase_5,63,9999,9999,9999,605980792
206,23,Ticks_Phase_5,64,9999,9999,9999,606500948
206,23,Ticks_Phase_5,65,9999,9999,9999,607000692
206,23,Ticks_Phase_5,66,9999,9999,9999,607500372
206,23,Ticks_Phase_5,67,9999,9999,9999,608000116
206,23,Ticks_Phase_5,68,9999,9999,9999,608500800
206,23,Ticks_Phase_5,69,9999,9999,9999,609000544
206,23,Ticks_Phase_5,70,9999,9999,9999,609500216
206,23,Ticks_Phase_5,71,9999,9999,9999,610001004
206,23,Ticks_Phase_5,72,9999,9999,9999,610500684
206,23,Ticks_Phase_5,73,9999,9999,9999,611000420
206,23,Ticks_Phase_5,74,9999,9999,9999,611500092
206,23,Ticks_Phase_5,75,9999,9999,9999,612000880
206,23,Ticks_Phase_5,76,9999,9999,9999,612500560
206,23,Ticks_Phase_5,77,9999,9999,9999,613000304
206,23,Ticks_Phase_5,78,9999,9999,9999,613501020
206,23,Ticks_Phase_5,79,9999,9999,9999,614000764
206,23,Ticks_Phase_5,80,9999,9999,9999,614500432
206,23,Ticks_Phase_5,81,9999,9999,9999,614980668
206,23,Ticks_Phase_5,82,9999,9999,9999,615480412
206,23,Ticks_Phase_5,83,9999,9999,9999,615980156
206,23,Ticks_Phase_5,84,9999,9999,9999,616480872
206,23,Ticks_Phase_5,85,9999,9999,9999,616980548
206,23,Ticks_Phase_5,86,9999,9999,9999,617480292
206,23,Ticks_Phase_5,87,9999,9999,9999,617981008
206,23,Ticks_Phase_5,88,9999,9999,9999,618480728
206,23,Ticks_Phase_5,89,9999,9999,9999,618980416
206,23,Ticks_Phase_5,90,9999,9999,9999,619480160
206,23,Ticks_Phase_5,91,9999,9999,9999,619980884
206,23,Ticks_Phase_5,92,9999,9999,9999,620480632
206,23,Ticks_Phase_5,93,9999,9999,9999,620980304
206,23,Ticks_Phase_5,94,9999,9999,9999,621481016
206,23,Ticks_Phase_5,95,9999,9999,9999,621980756
206,23,Ticks_Phase_5,96,9999,9999,9999,622480500
206,23,Ticks_Phase_5,97,9999,9999,9999,622931052
206,23,Ticks_Phase_5,98,9999,9999,9999,623430732
206,23,Ticks_Phase_5,99,9999,9999,9999,623930476
206,23,Ticks_Phase_5,100,9999,9999,9999,624430140
206,23,Ticks_Phase_5,101,9999,9999,9999,624930932
206,23,Ticks_Phase_5,102,9999,9999,9999,625430604
206,23,Ticks_Phase_5,103,9999,9999,9999,625930356
206,23,Ticks_Phase_5,104,9999,9999,9999,626431072
206,23,Ticks_Phase_5,105,9999,9999,9999,626930784
206,23,Ticks_Phase_5,106,9999,9999,9999,627430460
206,23,Ticks_Phase_5,107,9999,9999,9999,627930200
206,23,Ticks_Phase_5,108,9999,9999,9999,628430924
206,23,Ticks_Phase_5,109,9999,9999,9999,628930668
206,23,Ticks_Phase_5,110,9999,9999,9999,629430336
206,23,Ticks_Phase_5,111,9999,9999,9999,629931124
206,23,Ticks_Phase_5,112,9999,9999,9999,630441036
206,23,Ticks_Phase_5,113,9999,9999,9999,630940784
206,23,Ticks_Phase_5,114,9999,9999,9999,631490680
206,23,Ticks_Phase_5,115,9999,9999,9999,631990372
206,23,Ticks_Phase_5,116,9999,9999,9999,632491112
206,23,Ticks_Phase_5,117,9999,9999,9999,633001024
206,23,Ticks_Phase_5,118,9999,9999,9999,633500768
206,23,Ticks_Phase_5,119,9999,9999,9999,634000436
206,23,Ticks_Phase_5,120,9999,9999,9999,634500200
206,23,Ticks_Phase_5,121,9999,9999,9999,635000920
206,23,Ticks_Phase_5,122,9999,9999,9999,635500612
206,23,Ticks_Phase_5,123,9999,9999,9999,636000380
206,23,Ticks_Phase_5,124,9999,9999,9999,636501112
206,23,Ticks_Phase_5,125,9999,9999,9999,637000784
206,23,Ticks_Phase_5,126,9999,9999,9999,637500528
206,23,Ticks_Phase_5,127,9999,9999,9999,638000200
206,23,Ticks_Phase_5,128,9999,9999,9999,638500992
206,23,Ticks_Phase_5,129,9999,9999,9999,639000660
206,23,Ticks_Phase_5,130,9999,9999,9999,639500360
206,23,Ticks_Phase_5,131,9999,9999,9999,640100464
206,23,Ticks_Phase_5,132,9999,9999,9999,640600160
206,23,Ticks_Phase_5,133,9999,9999,9999,641100888
206,23,Ticks_Phase_5,134,9999,9999,9999,641600632
206,23,Ticks_Phase_5,135,9999,9999,9999,642100304
206,23,Ticks_Phase_5,136,9999,9999,9999,642601020
206,23,Ticks_Phase_5,137,9999,9999,9999,643100768
206,23,Ticks_Phase_5,138,9999,9999,9999,643600512
206,23,Ticks_Phase_5,139,9999,9999,9999,644100184
206,23,Ticks_Phase_5,140,9999,9999,9999,644600896
206,23,Ticks_Phase_5,141,9999,9999,9999,645100616
206,23,Ticks_Phase_5,142,9999,9999,9999,645600364
206,23,Ticks_Phase_5,143,9999,9999,9999,646101076
206,23,Ticks_Phase_5,144,9999,9999,9999,646600824
206,23,Ticks_Phase_5,145,9999,9999,9999,647100492
206,23,Ticks_Phase_5,146,9999,9999,9999,647600240
206,23,Ticks_Phase_5,147,9999,9999,9999,648100964
206,23,Ticks_Phase_5,148,9999,9999,9999,648600704
206,23,Ticks_Phase_5,149,9999,9999,9999,649100380
206,23,Ticks_Phase_5,150,9999,9999,9999,649500768
206,23,Ticks_Phase_5,151,9999,9999,9999,650000440
206,23,Ticks_Phase_5,152,9999,9999,9999,650500184
206,23,Ticks_Phase_5,153,9999,9999,9999,651000952
206,23,Ticks_Phase_5,154,9999,9999,9999,651500600
206,23,Ticks_Phase_5,155,9999,9999,9999,652000368
206,23,Ticks_Phase_5,156,9999,9999,9999,652501100
206,23,Ticks_Phase_5,157,9999,9999,9999,653000772
206,23,Ticks_Phase_5,158,9999,9999,9999,653500520
206,23,Ticks_Phase_5,159,9999,9999,9999,654000192
206,23,Ticks_Phase_5,160,9999,9999,9999,654500984
206,23,Ticks_Phase_5,161,9999,9999,9999,655000652
206,23,Ticks_Phase_5,162,9999,9999,9999,655500400
206,23,Ticks_Phase_5,163,9999,9999,9999,656000060
206,23,Ticks_Phase_5,164,9999,9999,9999,656500860
206,23,Ticks_Phase_5,165,9999,9999,9999,657000528
206,23,Ticks_Phase_5,166,9999,9999,9999,657500272
206,23,Ticks_Phase_5,167,9999,9999,9999,658001004
206,23,Ticks_Phase_5,168,9999,9999,9999,658500676
206,23,Ticks_Phase_5,169,9999,9999,9999,659000420
207,20,Ticks_Linear_8,0,5,42,127,673719608
207,20,Ticks_Linear_8,1,1,48,17,674259488
207,20,Ticks_Linear_8,2,5,42,127,674540044
207,20,Ticks_Linear_8,3,1,48,18,675067156
207,20,Ticks_Linear_8,4,5,42,127,675360128
207,20,Ticks_Linear_8,5,5,42,127,676180284
207,20,Ticks_Linear_8,6,5,42,127,676999548
207,20,Ticks_Linear_8,7,1,48,24,677011332
207,20,Ticks_Linear_8,8,5,42,127,677809956
207,20,Ticks_Linear_8,9,1,48,26,677825404
207,20,Ticks_Linear_8,10,5,42,127,678619556
207,20,Ticks_Linear_8,11,1,48,27,678650212
207,20,Ticks_Linear_8,12,5,42,127,679429768
207,20,Ticks_Linear_8,13,1,48,24,679434824
207,20,Ticks_Linear_8,14,5,42,127,680239664
207,20,Ticks_Linear_8,15,1,48,26,680240628
207,20,Ticks_Linear_8,16,1,48,27,681033356
207,20,Ticks_Linear_8,17,5,42,127,681049552
207,20,Ticks_Linear_8,18,5,42,127,681850176
207,20,Ticks_Linear_8,19,1,48,30,681897840
207,20,Ticks_Linear_8,20,5,42,127,682649828
207,20,Ticks_Linear_8,21,1,48,20,682655856
207,20,Ticks_Linear_8,22,5,42,127,683449700
207,20,Ticks_Linear_8,23,1,48,21,683466636
207,20,Ticks_Linear_8,24,1,48,22,684217072
207,20,Ticks_Linear_8,25,5,42,127,684249644
207,20,Ticks_Linear_8,26,5,42,127,685050372
207,20,Ticks_Linear_8,27,1,48,21,685076208
207,20,Ticks_Linear_8,28,1,48,24,685836588
207,20,Ticks_Linear_8,29,5,42,127,685839700
207,20,Ticks_Linear_8,30,5,42,127,686630456
207,20,Ticks_Linear_8,31,1,48,28,686645828
207,20,Ticks_Linear_8,32,1,48,26,687418664
207,20,Ticks_Linear_8,33,5,42,127,687420532
207,20,Ticks_Linear_8,34,5,42,127,688210392
207,20,Ticks_Linear_8,35,1,48,27,688279452
207,20,Ticks_Linear_8,36,1,48,32,688973436
207,20,Ticks_Linear_8,37,5,42,127,688999724
207,20,Ticks_Linear_8,38,1,48,34,689772412
207,20,Ticks_Linear_8,39,5,42,127,689780232
207,20,Ticks_Linear_8,40,1,48,25,690444444
207,20,Ticks_Linear_8,41,5,42,127,690560356
207,20,Ticks_Linear_8,42,5,42,127,691339544
207,20,Ticks_Linear_8,43,1,48,25,691417276
207,20,Ticks_Linear_8,44,5,42,127,692120128
207,20,Ticks_Linear_8,45,1,48,21,692145888
207,20,Ticks_Linear_8,46,5,42,127,692900264
207,20,Ticks_Linear_8,47,1,48,33,692906068
207,20,Ticks_Linear_8,48,1,48,31,693640132
207,20,Ticks_Linear_8,49,5,42,127,693670304
207,20,Ticks_Linear_8,50,1,48,29,694421092
207,20,Ticks_Linear_8,51,5,42,127,694440344
207,20,Ticks_Linear_8,52,1,48,29,695180896
207,20,Ticks_Linear_8,53,5,42,127,695210316
207,20,Ticks_Linear_8,54,1,48,32,695937192
207,20,Ticks_Linear_8,55,5,42,127,695980284
207,20,Ticks_Linear_8,56,1,48,33,696728092
207,20,Ticks_Linear_8,57,5,42,127,696749512
207,20,Ticks_Linear_8,58,5,42,127,697510292
207,20,Ticks_Linear_8,59,1,48,34,697547192
207,20,Ticks_Linear_8,60,1,48,25,698234828
207,20,Ticks_Linear_8,61,5,42,127,698269940
207,20,Ticks_Linear_8,62,1,48,21,698988284
207,20,Ticks_Linear_8,63,5,42,127,699030040
207,20,Ticks_Linear_8,64,1,48,32,699690076
207,20,Ticks_Linear_8,65,5,42,127,699789828
207,20,Ticks_Linear_8,66,1,48,32,700515360
207,20,Ticks_Linear_8,67,5,42,127,700549352
207,20,Ticks_Linear_8,68,1,48,33,701269636
207,20,Ticks_Linear_8,69,5,42,127,701300104
207,20,Ticks_Linear_8,70,1,48,29,702045208
207,20,Ticks_Linear_8,71,5,42,127,702049592
207,20,Ticks_Linear_8,72,1,48,23,702745496
207,20,Ticks_Linear_8,73,5,42,127,702800196
207,20,Ticks_Linear_8,74,1,48,34,703437388
207,20,Ticks_Linear_8,75,5,42,127,703549740
207,20,Ticks_Linear_8,76,1,48,27,704242132
207,20,Ticks_Linear_8,77,5,42,127,704300512
207,20,Ticks_Linear_8,78,1,48,23,705026180
207,20,Ticks_Linear_8,79,5,42,127,705039756
207,20,Ticks_Linear_8,80,5,42,127,705780276
207,20,Ticks_Linear_8,81,1,48,14,705794304
207,20,Ticks_Linear_8,82,5,42,127,706520392
207,20,Ticks_Linear_8,83,1,48,27,706527244
207,20,Ticks_Linear_8,84,1,48,27,707246496
207,20,Ticks_Linear_8,85,5,42,127,707269944
207,20,Ticks_Linear_8,86,5,42,127,708010540
207,20,Ticks_Linear_8,87,1,48,31,708016716
207,20,Ticks_Linear_8,88,1,48,29,708709288
207,20,Ticks_Linear_8,89,5,42,127,708739460
207,20,Ticks_Linear_8,90,1,48,28,709376828
207,20,Ticks_Linear_8,91,5,42,127,709469564
207,20,Ticks_Linear_8,92,5,42,127,710199560
207,20,Ticks_Linear_8,93,1,48,25,710268396
207,20,Ticks_Linear_8,94,1,48,25,710810816
207,20,Ticks_Linear_8,95,5,42,127,710929660
207,20,Ticks_Linear_8,96,1,48,22,711609868
207,20,Ticks_Linear_8,97,5,42,127,711659848
207,20,Ticks_Linear_8,98,1,48,21,712313812
207,20,Ticks_Linear_8,99,5,42,127,712379728
207,20,Ticks_Linear_8,100,1,48,22,713074216
207,20,Ticks_Linear_8,101,5,42,127,713099532
207,20,Ticks_Linear_8,102,5,42,127,713819492
207,20,Ticks_Linear_8,103,1,48,20,713840704
207,20,Ticks_Linear_8,104,1,48,26,714502016
207,20,Ticks_Linear_8,105,5,42,127,714540412
207,20,Ticks_Linear_8,106,5,42,127,715260224
207,20,Ticks_Linear_8,107,1,48,32,715301468
207,20,Ticks_Linear_8,108,5,42,127,715970056
207,20,Ticks_Linear_8,109,1,48,29,716004424
207,20,Ticks_Linear_8,110,5,42,127,716679400
207,20,Ticks_Linear_8,111,1,48,23,716681260
207,20,Ticks_Linear_8,112,1,48,21,717380316
207,20,Ticks_Linear_8,113,5,42,127,717390076
207,20,Ticks_Linear_8,114,1,48,22,718030420
207,20,Ticks_Linear_8,115,5,42,127,718100012
207,20,Ticks_Linear_8,116,1,48,26,718731460
207,20,Ticks_Linear_8,117,5,42,127,718809476
207,20,Ticks_Linear_8,118,1,48,27,719447904
207,20,Ticks_Linear_8,119,5,42,127,719509992
207,20,Ticks_Linear_8,120,1,48,25,720200976
207,20,Ticks_Linear_8,121,5,42,127,720210360
207,20,Ticks_Linear_8,122,1,48,19,720886832
207,20,Ticks_Linear_8,123,5,42,127,720910128
207,20,Ticks_Linear_8,124,1,48,24,721556824
207,20,Ticks_Linear_8,125,5,42,127,721610100
207,20,Ticks_Linear_8,126,5,42,127,722309428
207,20,Ticks_Linear_8,127,1,48,27,722321212
207,20,Ticks_Linear_8,128,5,42,127,722999776
207,20,Ticks_Linear_8,129,1,48,25,723029804
207,20,Ticks_Linear_8,130,1,48,24,723683692
207,20,Ticks_Linear_8,131,5,42,127,723689868
207,20,Ticks_Linear_8,132,1,48,24,724365668
207,20,Ticks_Linear_8,133,5,42,127,724380068
207,20,Ticks_Linear_8,134,1,48,26,725069976
207,20,Ticks_Linear_8,135,5,42,127,725071684
207,20,Ticks_Linear_8,136,5,42,127,725760548
207,20,Ticks_Linear_8,137,1,48,19,725825712
207,20,Ticks_Linear_8,138,1,48,29,726404468
207,20,Ticks_Linear_8,139,5,42,127,726440248
207,20,Ticks_Linear_8,140,1,48,21,727096388
207,20,Ticks_Linear_8,141,5,42,127,727120208
207,20,Ticks_Linear_8,142,1,48,28,727762344
207,20,Ticks_Linear_8,143,5,42,127,727800236
207,20,Ticks_Linear_8,144,1,48,31,728434516
207,20,Ticks_Linear_8,145,5,42,127,728480320
207,20,Ticks_Linear_8,146,5,42,127,729160136
207,20,Ticks_Linear_8,147,1,48,26,729162576
207,20,Ticks_Linear_8,148,1,48,21,729800472
207,20,Ticks_Linear_8,149,5,42,127,729829744
207,20,Ticks_Linear_8,150,5,42,127,730499472
207,20,Ticks_Linear_8,151,1,48,27,730547596
207,20,Ticks_Linear_8,152,1,48,36,731154700
207,20,Ticks_Linear_8,153,5,42,127,731170368
207,20,Ticks_Linear_8,154,5,42,127,731839844
207,20,Ticks_Linear_8,155,1,48,27,731886536
207,20,Ticks_Linear_8,156,5,42,127,732509412
207,20,Ticks_Linear_8,157,1,48,17,732590280
207,20,Ticks_Linear_8,158,1,48,21,733164844
207,20,Ticks_Linear_8,159,5,42,127,733170144
207,20,Ticks_Linear_8,160,5,42,127,733829452
207,20,Ticks_Linear_8,161,1,48,26,733859932
207,20,Ticks_Linear_8,162,5,42,127,734490044
207,20,Ticks_Linear_8,163,1,48,27,734527464
207,20,Ticks_Linear_8,164,1,48,28,735139056
207,20,Ticks_Linear_8,165,5,42,127,735149336
207,20,Ticks_Linear_8,166,5,42,127,735809860
207,20,Ticks_Linear_8,167,1,48,19,735873676
207,20,Ticks_Linear_8,168,5,42,127,736460260
207,20,Ticks_Linear_8,169,1,48,17,736492528
207,20,Ticks_Linear_8,170,1,48,25,737105624
207,20,Ticks_Linear_8,171,5,42,127,737110456
207,20,Ticks_Linear_8,172,5,42,127,737759520
207,20,Ticks_Linear_8,173,1,48,22,738367612
207,20,Ticks_Linear_8,174,5,42,127,738410180
207,20,Ticks_Linear_8,175,5,42,127,739060168
207,20,Ticks_Linear_8,176,1,48,25,739061432
207,20,Ticks_Linear_8,177,1,48,25,739697136
207,20,Ticks_Linear_8,178,5,42,127,739699952
207,20,Ticks_Linear_8,179,5,42,127,740340064
207,20,Ticks_Linear_8,180,1,48,23,740365900
207,20,Ticks_Linear_8,181,1,48,26,740933824
207,20,Ticks_Linear_8,182,5,42,127,740980144
207,20,Ticks_Linear_8,183,1,48,23,741593196
207,20,Ticks_Linear_8,184,5,42,127,741619956
207,20,Ticks_Linear_8,185,1,48,22,742229944
207,20,Ticks_Linear_8,186,5,42,127,742259964
207,20,Ticks_Linear_8,187,5,42,127,742889812
207,20,Ticks_Linear_8,188,1,48,20,742914852
207,20,Ticks_Linear_8,189,1,48,27,743493088
207,20,Ticks_Linear_8,190,5,42,127,743519748
207,20,Ticks_Linear_8,191,5,42,127,744150344
207,20,Ticks_Linear_8,192,1,48,27,744165336
207,20,Ticks_Linear_8,193,1,48,25,744763332
207,20,Ticks_Linear_8,194,5,42,127,744780052
207,20,Ticks_Linear_8,195,1,48,27,745342420
207,20,Ticks_Linear_8,196,5,42,127,745409896
207,20,Ticks_Linear_8,197,5,42,127,746029604
207,20,Ticks_Linear_8,198,1,48,20,746044752
207,20,Ticks_Linear_8,199,1,48,15,746629868
207,20,Ticks_Linear_8,200,5,42,127,746650092
207,20,Ticks_Linear_8,201,5,42,127,747269652
207,20,Ticks_Linear_8,202,1,48,19,747274408
207,20,Ticks_Linear_8,203,1,48,24,747846956
207,20,Ticks_Linear_8,204,5,42,127,747890140
207,20,Ticks_Linear_8,205,5,42,127,748509748
207,20,Ticks_Linear_8,206,1,48,27,748526016
207,20,Ticks_Linear_8,207,1,48,22,749106816
207,20,Ticks_Linear_8,208,5,42,127,749119724
207,20,Ticks_Linear_8,209,1,48,24,749713036
207,20,Ticks_Linear_8,210,5,42,127,749730200
207,20,Ticks_Linear_8,211,1,48,27,750301088
207,20,Ticks_Linear_8,212,5,42,127,750339656
207,20,Ticks_Linear_8,213,1,48,22,750915548
207,20,Ticks_Linear_8,214,5,42,127,750949764
207,20,Ticks_Linear_8,215,1,48,24,751490232
207,20,Ticks_Linear_8,216,5,42,127,751559948
207,20,Ticks_Linear_8,217,5,42,127,752160288
207,20,Ticks_Linear_8,218,1,48,23,752167212
207,20,Ticks_Linear_8,219,1,48,28,752740744
207,20,Ticks_Linear_8,220,5,42,127,752760144
207,20,Ticks_Linear_8,221,5,42,127,753360460
207,20,Ticks_Linear_8,222,1,48,17,753369860
207,20,Ticks_Linear_8,223,1,48,23,753929876
207,20,Ticks_Linear_8,224,5,42,127,753960420
207,20,Ticks_Linear_8,225,5,42,127,754560440
207,20,Ticks_Linear_8,226,1,48,19,754569764
207,20,Ticks_Linear_8,227,1,48,21,755125260
207,20,Ticks_Linear_8,228,5,42,127,755150348
207,20,Ticks_Linear_8,229,5,42,127,755740152
207,20,Ticks_Linear_8,230,1,48,23,756286300
207,20,Ticks_Linear_8,231,5,42,127,756329936
207,20,Ticks_Linear_8,232,1,48,28,756883104
207,20,Ticks_Linear_8,233,5,42,127,756919636
207,20,Ticks_Linear_8,234,1,48,29,757500344
207,20,Ticks_Linear_8,235,5,42,127,757509356
207,20,Ticks_Linear_8,236,1,48,27,758061256
207,20,Ticks_Linear_8,237,5,42,127,758090300
207,20,Ticks_Linear_8,238,5,42,127,758669616
207,20,Ticks_Linear_8,239,1,48,27,758702032
207,20,Ticks_Linear_8,240,1,48,26,759242064
207,20,Ticks_Linear_8,241,5,42,127,759250252
207,20,Ticks_Linear_8,242,1,48,26,759781368
207,20,Ticks_Linear_8,243,5,42,127,759829880
207,20,Ticks_Linear_8,244,1,48,22,760378120
207,20,Ticks_Linear_8,245,5,42,127,760409560
207,20,Ticks_Linear_8,246,1,48,33,760930732
207,20,Ticks_Linear_8,247,5,42,127,760979816
207,20,Ticks_Linear_8,248,1,48,24,761547332
207,20,Ticks_Linear_8,249,5,42,127,761550148
207,20,Ticks_Linear_8,250,1,48,31,762115672
207,20,Ticks_Linear_8,251,5,42,127,762119460
207,20,Ticks_Linear_8,252,5,42,127,762689948
207,20,Ticks_Linear_8,253,1,48,24,762692464
207,20,Ticks_Linear_8,254,1,48,26,763199004
207,20,Ticks_Linear_8,255,5,42,127,763260200
207,20,Ticks_Linear_8,256,1,48,27,763818000
207,20,Ticks_Linear_8,257,5,42,127,763820436
207,20,Ticks_Linear_8,258,5,42,127,764379416
207,20,Ticks_Linear_8,259,1,48,25,764425012
207,20,Ticks_Linear_8,260,5,42,127,764939976
207,20,Ticks_Linear_8,261,1,48,20,764968812
207,20,Ticks_Linear_8,262,1,48,24,765485284
207,20,Ticks_Linear_8,263,5,42,127,765499760
207,20,Ticks_Linear_8,264,1,48,26,766048528
207,20,Ticks_Linear_8,265,5,42,127,766059780
207,20,Ticks_Linear_8,266,1,48,22,766610228
207,20,Ticks_Linear_8,267,5,42,127,766611716
207,20,Ticks_Linear_8,268,1,48,31,767121676
207,20,Ticks_Linear_8,269,5,42,127,767159992
207,20,Ticks_Linear_8,270,5,42,127,767709548
207,20,Ticks_Linear_8,271,1,48,27,767714228
207,20,Ticks_Linear_8,272,1,48,27,768232880
207,20,Ticks_Linear_8,273,5,42,127,768259564
207,20,Ticks_Linear_8,274,1,48,29,768782828
207,20,Ticks_Linear_8,275,5,42,127,768810756
207,20,Ticks_Linear_8,276,5,42,127,769349996
207,20,Ticks_Linear_8,277,1,48,27,769350960
207,20,Ticks_Linear_8,278,1,48,29,769837896
207,20,Ticks_Linear_8,279,5,42,127,769889744
207,20,Ticks_Linear_8,280,5,42,127,770430476
207,20,Ticks_Linear_8,281,1,48,20,770448700
207,20,Ticks_Linear_8,282,5,42,127,770970080
207,20,Ticks_Linear_8,283,1,48,26,771047128
207,20,Ticks_Linear_8,284,1,48,19,771484588
207,20,Ticks_Linear_8,285,5,42,127,771509684
207,20,Ticks_Linear_8,286,1,48,31,771985544
207,20,Ticks_Linear_8,287,5,42,127,772039944
207,20,Ticks_Linear_8,288,1,48,29,772485896
207,20,Ticks_Linear_8,289,5,42,127,772569604
207,20,Ticks_Linear_8,290,1,48,29,773044420
207,20,Ticks_Linear_8,291,5,42,127,773099864
207,20,Ticks_Linear_8,292,5,42,127,773630524
207,20,Ticks_Linear_8,293,1,48,23,773632016
207,20,Ticks_Linear_8,294,5,42,127,774159596
207,20,Ticks_Linear_8,295,1,48,29,774169436
207,20,Ticks_Linear_8,296,5,42,127,774679836
207,20,Ticks_Linear_8,297,1,48,27,774688788
207,20,Ticks_Linear_8,298,1,48,25,775198948
207,20,Ticks_Linear_8,299,5,42,127,775200736
207,20,Ticks_Linear_8,300,5,42,127,775720244
207,20,Ticks_Linear_8,301,1,48,30,775722832
207,20,Ticks_Linear_8,302,1,48,29,776232512
207,20,Ticks_Linear_8,303,5,42,127,776239360
207,20,Ticks_Linear_8,304,5,42,127,776759608
207,20,Ticks_Linear_8,305,1,48,27,776782752
207,20,Ticks_Linear_8,306,5,42,127,777269608
207,20,Ticks_Linear_8,307,1,48,29,777280576
207,20,Ticks_Linear_8,308,1,48,27,777777716
207,20,Ticks_Linear_8,309,5,42,127,777779528
207,20,Ticks_Linear_8,310,5,42,127,778289456
207,20,Ticks_Linear_8,311,1,48,26,778291244
207,20,Ticks_Linear_8,312,1,48,22,778766056
207,20,Ticks_Linear_8,313,5,42,127,778799600
207,20,Ticks_Linear_8,314,1,48,28,779259172
207,20,Ticks_Linear_8,315,5,42,127,779309524
207,20,Ticks_Linear_8,316,1,48,26,779788388
207,20,Ticks_Linear_8,317,5,42,127,779810176
207,20,Ticks_Linear_8,318,1,48,29,780256560
207,20,Ticks_Linear_8,319,5,42,127,780309860
207,20,Ticks_Linear_8,320,1,48,25,780796484
207,20,Ticks_Linear_8,321,5,42,127,780809544
207,20,Ticks_Linear_8,322,1,48,28,781278136
207,20,Ticks_Linear_8,323,5,42,127,781310196
207,20,Ticks_Linear_8,324,1,48,28,781801516
207,20,Ticks_Linear_8,325,5,42,127,781810176
207,20,Ticks_Linear_8,326,1,48,27,782263588
207,20,Ticks_Linear_8,327,5,42,127,782299372
207,20,Ticks_Linear_8,328,1,48,25,782745176
207,20,Ticks_Linear_8,329,5,42,127,782789932
207,20,Ticks_Linear_8,330,1,48,24,783236264
207,20,Ticks_Linear_8,331,5,42,127,783279372
207,20,Ticks_Linear_8,332,1,48,25,783712548
207,20,Ticks_Linear_8,333,5,42,127,783770004
207,20,Ticks_Linear_8,334,1,48,25,784219636
207,20,Ticks_Linear_8,335,5,42,127,784259448
207,20,Ticks_Linear_8,0,9999,9999,9999,673717316
207,20,Ticks_Linear_8,1,9999,9999,9999,674537600
207,20,Ticks_Linear_8,2,9999,9999,9999,675357760
207,20,Ticks_Linear_8,3,9999,9999,9999,676177988
207,20,Ticks_Linear_8,4,9999,9999,9999,676997176
207,20,Ticks_Linear_8,5,9999,9999,9999,677807216
207,20,Ticks_Linear_8,6,9999,9999,9999,678617184
207,20,Ticks_Linear_8,7,9999,9999,9999,679427176
207,20,Ticks_Linear_8,8,9999,9999,9999,680237144
207,20,Ticks_Linear_8,9,9999,9999,9999,681047108
207,20,Ticks_Linear_8,10,9999,9999,9999,681847884
207,20,Ticks_Linear_8,11,9999,9999,9999,682647608
207,20,Ticks_Linear_8,12,9999,9999,9999,683447404
207,20,Ticks_Linear_8,13,9999,9999,9999,684247124
207,20,Ticks_Linear_8,14,9999,9999,9999,685047928
207,20,Ticks_Linear_8,15,9999,9999,9999,685837404
207,20,Ticks_Linear_8,16,9999,9999,9999,686627940
207,20,Ticks_Linear_8,17,9999,9999,9999,687417420
207,20,Ticks_Linear_8,18,9999,9999,9999,688207952
207,20,Ticks_Linear_8,19,9999,9999,9999,688997500
207,20,Ticks_Linear_8,20,9999,9999,9999,689777788
207,20,Ticks_Linear_8,21,9999,9999,9999,690558060
207,20,Ticks_Linear_8,22,9999,9999,9999,691337324
207,20,Ticks_Linear_8,23,9999,9999,9999,692117608
207,20,Ticks_Linear_8,24,9999,9999,9999,692897896
207,20,Ticks_Linear_8,25,9999,9999,9999,693667932
207,20,Ticks_Linear_8,26,9999,9999,9999,694437976
207,20,Ticks_Linear_8,27,9999,9999,9999,695208020
207,20,Ticks_Linear_8,28,9999,9999,9999,695978064
207,20,Ticks_Linear_8,29,9999,9999,9999,696747068
207,20,Ticks_Linear_8,30,9999,9999,9999,697507920
207,20,Ticks_Linear_8,31,9999,9999,9999,698267720
207,20,Ticks_Linear_8,32,9999,9999,9999,699027520
207,20,Ticks_Linear_8,33,9999,9999,9999,699787384
207,20,Ticks_Linear_8,34,9999,9999,9999,700547128
207,20,Ticks_Linear_8,35,9999,9999,9999,701297736
207,20,Ticks_Linear_8,36,9999,9999,9999,702047296
207,20,Ticks_Linear_8,37,9999,9999,9999,702797900
207,20,Ticks_Linear_8,38,9999,9999,9999,703547444
207,20,Ticks_Linear_8,39,9999,9999,9999,704298064
207,20,Ticks_Linear_8,40,9999,9999,9999,705037388
207,20,Ticks_Linear_8,41,9999,9999,9999,705777732
207,20,Ticks_Linear_8,42,9999,9999,9999,706518096
207,20,Ticks_Linear_8,43,9999,9999,9999,707267652
207,20,Ticks_Linear_8,44,9999,9999,9999,708008020
207,20,Ticks_Linear_8,45,9999,9999,9999,708737092
207,20,Ticks_Linear_8,46,9999,9999,9999,709467268
207,20,Ticks_Linear_8,47,9999,9999,9999,710197340
207,20,Ticks_Linear_8,48,9999,9999,9999,710927440
207,20,Ticks_Linear_8,49,9999,9999,9999,711657552
207,20,Ticks_Linear_8,50,9999,9999,9999,712377432
207,20,Ticks_Linear_8,51,9999,9999,9999,713097312
207,20,Ticks_Linear_8,52,9999,9999,9999,713817196
207,20,Ticks_Linear_8,53,9999,9999,9999,714538044
207,20,Ticks_Linear_8,54,9999,9999,9999,715257928
207,20,Ticks_Linear_8,55,9999,9999,9999,715967612
207,20,Ticks_Linear_8,56,9999,9999,9999,716677180
207,20,Ticks_Linear_8,57,9999,9999,9999,717387856
207,20,Ticks_Linear_8,58,9999,9999,9999,718097496
207,20,Ticks_Linear_8,59,9999,9999,9999,718807108
207,20,Ticks_Linear_8,60,9999,9999,9999,719507548
207,20,Ticks_Linear_8,61,9999,9999,9999,720207992
207,20,Ticks_Linear_8,62,9999,9999,9999,720907388
207,20,Ticks_Linear_8,63,9999,9999,9999,721607804
207,20,Ticks_Linear_8,64,9999,9999,9999,722307132
207,20,Ticks_Linear_8,65,9999,9999,9999,722997332
207,20,Ticks_Linear_8,66,9999,9999,9999,723687500
207,20,Ticks_Linear_8,67,9999,9999,9999,724377700
207,20,Ticks_Linear_8,68,9999,9999,9999,725067832
207,20,Ticks_Linear_8,69,9999,9999,9999,725758028
207,20,Ticks_Linear_8,70,9999,9999,9999,726437956
207,20,Ticks_Linear_8,71,9999,9999,9999,727117912
207,20,Ticks_Linear_8,72,9999,9999,9999,727797868
207,20,Ticks_Linear_8,73,9999,9999,9999,728477800
207,20,Ticks_Linear_8,74,9999,9999,9999,729157692
207,20,Ticks_Linear_8,75,9999,9999,9999,729827452
207,20,Ticks_Linear_8,76,9999,9999,9999,730497100
207,20,Ticks_Linear_8,77,9999,9999,9999,731167852
207,20,Ticks_Linear_8,78,9999,9999,9999,731837548
207,20,Ticks_Linear_8,79,9999,9999,9999,732507192
207,20,Ticks_Linear_8,80,9999,9999,9999,733167676
207,20,Ticks_Linear_8,81,9999,9999,9999,733827156
207,20,Ticks_Linear_8,82,9999,9999,9999,734487676
207,20,Ticks_Linear_8,83,9999,9999,9999,735147116
207,20,Ticks_Linear_8,84,9999,9999,9999,735807564
207,20,Ticks_Linear_8,85,9999,9999,9999,736457816
207,20,Ticks_Linear_8,86,9999,9999,9999,737108088
207,20,Ticks_Linear_8,87,9999,9999,9999,737757300
207,20,Ticks_Linear_8,88,9999,9999,9999,738407516
207,20,Ticks_Linear_8,89,9999,9999,9999,739057724
207,20,Ticks_Linear_8,90,9999,9999,9999,739697732
207,20,Ticks_Linear_8,91,9999,9999,9999,740337772
207,20,Ticks_Linear_8,92,9999,9999,9999,740977772
207,20,Ticks_Linear_8,93,9999,9999,9999,741617732
207,20,Ticks_Linear_8,94,9999,9999,9999,742257744
207,20,Ticks_Linear_8,95,9999,9999,9999,742887520
207,20,Ticks_Linear_8,96,9999,9999,9999,743517304
207,20,Ticks_Linear_8,97,9999,9999,9999,744148048
207,20,Ticks_Linear_8,98,9999,9999,9999,744777832
207,20,Ticks_Linear_8,99,9999,9999,9999,745407600
207,20,Ticks_Linear_8,100,9999,9999,9999,746027084
207,20,Ticks_Linear_8,101,9999,9999,9999,746647648
207,20,Ticks_Linear_8,102,9999,9999,9999,747267132
207,20,Ticks_Linear_8,103,9999,9999,9999,747887696
207,20,Ticks_Linear_8,104,9999,9999,9999,748507228
207,20,Ticks_Linear_8,105,9999,9999,9999,749117504
207,20,Ticks_Linear_8,106,9999,9999,9999,749727832
207,20,Ticks_Linear_8,107,9999,9999,9999,750337140
207,20,Ticks_Linear_8,108,9999,9999,9999,750947396
207,20,Ticks_Linear_8,109,9999,9999,9999,751557724
207,20,Ticks_Linear_8,110,9999,9999,9999,752157768
207,20,Ticks_Linear_8,111,9999,9999,9999,752757852
207,20,Ticks_Linear_8,112,9999,9999,9999,753357944
207,20,Ticks_Linear_8,113,9999,9999,9999,753957976
207,20,Ticks_Linear_8,114,9999,9999,9999,754558068
207,20,Ticks_Linear_8,115,9999,9999,9999,755147832
207,20,Ticks_Linear_8,116,9999,9999,9999,755737708
207,20,Ticks_Linear_8,117,9999,9999,9999,756327492
207,20,Ticks_Linear_8,118,9999,9999,9999,756917340
207,20,Ticks_Linear_8,119,9999,9999,9999,757507136
207,20,Ticks_Linear_8,120,9999,9999,9999,758087784
207,20,Ticks_Linear_8,121,9999,9999,9999,758667320
207,20,Ticks_Linear_8,122,9999,9999,9999,759247956
207,20,Ticks_Linear_8,123,9999,9999,9999,759827512
207,20,Ticks_Linear_8,124,9999,9999,9999,760407116
207,20,Ticks_Linear_8,125,9999,9999,9999,760977520
207,20,Ticks_Linear_8,126,9999,9999,9999,761547852
207,20,Ticks_Linear_8,127,9999,9999,9999,762117240
207,20,Ticks_Linear_8,128,9999,9999,9999,762687576
207,20,Ticks_Linear_8,129,9999,9999,9999,763257976
207,20,Ticks_Linear_8,130,9999,9999,9999,763818068
207,20,Ticks_Linear_8,131,9999,9999,9999,764377192
207,20,Ticks_Linear_8,132,9999,9999,9999,764937308
207,20,Ticks_Linear_8,133,9999,9999,9999,765497464
207,20,Ticks_Linear_8,134,9999,9999,9999,766057556
207,20,Ticks_Linear_8,135,9999,9999,9999,766607488
207,20,Ticks_Linear_8,136,9999,9999,9999,767157328
207,20,Ticks_Linear_8,137,9999,9999,9999,767707256
207,20,Ticks_Linear_8,138,9999,9999,9999,768257120
207,20,Ticks_Linear_8,139,9999,9999,9999,768808012
207,20,Ticks_Linear_8,140,9999,9999,9999,769347700
207,20,Ticks_Linear_8,141,9999,9999,9999,769887300
207,20,Ticks_Linear_8,142,9999,9999,9999,770427960
207,20,Ticks_Linear_8,143,9999,9999,9999,770967640
207,20,Ticks_Linear_8,144,9999,9999,9999,771507312
207,20,Ticks_Linear_8,145,9999,9999,9999,772037720
207,20,Ticks_Linear_8,146,9999,9999,9999,772567160
207,20,Ticks_Linear_8,147,9999,9999,9999,773097568
207,20,Ticks_Linear_8,148,9999,9999,9999,773628008
207,20,Ticks_Linear_8,149,9999,9999,9999,774157372
207,20,Ticks_Linear_8,150,9999,9999,9999,774677616
207,20,Ticks_Linear_8,151,9999,9999,9999,775197780
207,20,Ticks_Linear_8,152,9999,9999,9999,775717948
207,20,Ticks_Linear_8,153,9999,9999,9999,776237140
207,20,Ticks_Linear_8,154,9999,9999,9999,776757312
207,20,Ticks_Linear_8,155,9999,9999,9999,777267312
207,20,Ticks_Linear_8,156,9999,9999,9999,777777256
207,20,Ticks_Linear_8,157,9999,9999,9999,778287164
207,20,Ticks_Linear_8,158,9999,9999,9999,778797156
207,20,Ticks_Linear_8,159,9999,9999,9999,779307080
207,20,Ticks_Linear_8,160,9999,9999,9999,779807808
207,20,Ticks_Linear_8,161,9999,9999,9999,780307568
207,20,Ticks_Linear_8,162,9999,9999,9999,780807248
207,20,Ticks_Linear_8,163,9999,9999,9999,781307976
207,20,Ticks_Linear_8,164,9999,9999,9999,781807732
207,20,Ticks_Linear_8,165,9999,9999,9999,782297148
207,20,Ticks_Linear_8,166,9999,9999,9999,782787708
207,20,Ticks_Linear_8,167,9999,9999,9999,783277152
207,20,Ticks_Linear_8,168,9999,9999,9999,783767636
207,20,Ticks_Linear_8,169,9999,9999,9999,784257076
208,21,Ticks_Linear_5,0,5,42,127,796370552
208,21,Ticks_Linear_5,1,5,42,127,796849472
208,21,Ticks_Linear_5,2,1,48,21,797294700
208,21,Ticks_Linear_5,3,5,42,127,797329880
208,21,Ticks_Linear_5,4,5,42,127,797809984
208,21,Ticks_Linear_5,5,1,48,21,797823040
208,21,Ticks_Linear_5,6,1,48,23,798274924
208,21,Ticks_Linear_5,7,5,42,127,798290444
208,21,Ticks_Linear_5,8,1,48,21,798749196
208,21,Ticks_Linear_5,9,5,42,127,798779736
208,21,Ticks_Linear_5,10,1,48,26,799222328
208,21,Ticks_Linear_5,11,5,42,127,799270368
208,21,Ticks_Linear_5,12,5,42,127,799759596
208,21,Ticks_Linear_5,13,1,48,21,800177664
208,21,Ticks_Linear_5,14,5,42,127,800250096
208,21,Ticks_Linear_5,15,1,48,24,800653188
208,21,Ticks_Linear_5,16,5,42,127,800739660
208,21,Ticks_Linear_5,17,1,48,22,801197664
208,21,Ticks_Linear_5,18,5,42,127,801240312
208,21,Ticks_Linear_5,19,1,48,29,801664144
208,21,Ticks_Linear_5,20,5,42,127,801750312
208,21,Ticks_Linear_5,21,1,48,31,802174364
208,21,Ticks_Linear_5,22,5,42,127,802250068
208,21,Ticks_Linear_5,23,1,48,29,802650204
208,21,Ticks_Linear_5,24,5,42,127,802750104
208,21,Ticks_Linear_5,25,1,48,24,803184416
208,21,Ticks_Linear_5,26,5,42,127,803249508
208,21,Ticks_Linear_5,27,1,48,26,803652552
208,21,Ticks_Linear_5,28,5,42,127,803759492
208,21,Ticks_Linear_5,29,1,48,23,804235592
208,21,Ticks_Linear_5,30,5,42,127,804269284
208,21,Ticks_Linear_5,31,1,48,27,804699024
208,21,Ticks_Linear_5,32,5,42,127,804780552
208,21,Ticks_Linear_5,33,1,48,24,805231372
208,21,Ticks_Linear_5,34,5,42,127,805290252
208,21,Ticks_Linear_5,35,1,48,26,805710348
208,21,Ticks_Linear_5,36,5,42,127,805800252
208,21,Ticks_Linear_5,37,1,48,28,806235668
208,21,Ticks_Linear_5,38,5,42,127,806319448
208,21,Ticks_Linear_5,39,1,48,18,806799204
208,21,Ticks_Linear_5,40,5,42,127,806839912
208,21,Ticks_Linear_5,41,5,42,127,807360088
208,21,Ticks_Linear_5,42,1,48,29,807725392
208,21,Ticks_Linear_5,43,5,42,127,807879956
208,21,Ticks_Linear_5,44,1,48,29,808383344
208,21,Ticks_Linear_5,45,5,42,127,808400140
208,21,Ticks_Linear_5,46,1,48,29,808893048
208,21,Ticks_Linear_5,47,5,42,127,808929800
208,21,Ticks_Linear_5,48,1,48,29,809417176
208,21,Ticks_Linear_5,49,5,42,127,809460084
208,21,Ticks_Linear_5,50,1,48,28,809910884
208,21,Ticks_Linear_5,51,5,42,127,809989672
208,21,Ticks_Linear_5,52,1,48,29,810454368
208,21,Ticks_Linear_5,53,5,42,127,810519856
208,21,Ticks_Linear_5,54,1,48,28,810999760
208,21,Ticks_Linear_5,55,5,42,127,811050340
208,21,Ticks_Linear_5,56,1,48,32,811533456
208,21,Ticks_Linear_5,57,5,42,127,811589944
208,21,Ticks_Linear_5,58,1,48,21,812112832
208,21,Ticks_Linear_5,59,5,42,127,812129848
208,21,Ticks_Linear_5,60,1,48,28,812598544
208,21,Ticks_Linear_5,61,5,42,127,812670200
208,21,Ticks_Linear_5,62,1,48,27,813173648
208,21,Ticks_Linear_5,63,5,42,127,813209884
208,21,Ticks_Linear_5,64,5,42,127,813749792
208,21,Ticks_Linear_5,65,1,48,21,813761584
208,21,Ticks_Linear_5,66,1,48,21,814260792
208,21,Ticks_Linear_5,67,5,42,127,814299632
208,21,Ticks_Linear_5,68,1,48,25,814811756
208,21,Ticks_Linear_5,69,5,42,127,814850696
208,21,Ticks_Linear_5,70,1,48,22,815376124
208,21,Ticks_Linear_5,71,5,42,127,815409592
208,21,Ticks_Linear_5,72,5,42,127,815960492
208,21,Ticks_Linear_5,73,1,48,22,815982672
208,21,Ticks_Linear_5,74,1,48,26,816460880
208,21,Ticks_Linear_5,75,5,42,127,816519532
208,21,Ticks_Linear_5,76,5,42,127,817079628
208,21,Ticks_Linear_5,77,1,48,17,817100836
208,21,Ticks_Linear_5,78,1,48,17,817611628
208,21,Ticks_Linear_5,79,5,42,127,817639856
208,21,Ticks_Linear_5,80,1,48,23,818107804
208,21,Ticks_Linear_5,81,5,42,127,818199968
208,21,Ticks_Linear_5,82,1,48,24,818705808
208,21,Ticks_Linear_5,83,5,42,127,818759984
208,21,Ticks_Linear_5,84,1,48,26,819314268
208,21,Ticks_Linear_5,85,5,42,127,819320148
208,21,Ticks_Linear_5,86,5,42,127,819889440
208,21,Ticks_Linear_5,87,1,48,27,819891300
208,21,Ticks_Linear_5,88,5,42,127,820459796
208,21,Ticks_Linear_5,89,1,48,23,820461804
208,21,Ticks_Linear_5,90,1,48,24,820989340
208,21,Ticks_Linear_5,91,5,42,127,821030416
208,21,Ticks_Linear_5,92,5,42,127,821599560
208,21,Ticks_Linear_5,93,1,48,24,821600972
208,21,Ticks_Linear_5,94,1,48,26,822125952
208,21,Ticks_Linear_5,95,5,42,127,822169960
208,21,Ticks_Linear_5,96,1,48,30,822719548
208,21,Ticks_Linear_5,97,5,42,127,822749488
208,21,Ticks_Linear_5,98,1,48,23,823291172
208,21,Ticks_Linear_5,99,5,42,127,823330308
208,21,Ticks_Linear_5,100,1,48,27,823807736
208,21,Ticks_Linear_5,101,5,42,127,823909968
208,21,Ticks_Linear_5,102,1,48,24,824361776
208,21,Ticks_Linear_5,103,5,42,127,824490248
208,21,Ticks_Linear_5,104,5,42,127,825070120
208,21,Ticks_Linear_5,105,1,48,27,825104928
208,21,Ticks_Linear_5,106,1,48,35,825652812
208,21,Ticks_Linear_5,107,5,42,127,825659732
208,21,Ticks_Linear_5,108,1,48,25,826250028
208,21,Ticks_Linear_5,109,5,42,127,826251448
208,21,Ticks_Linear_5,110,1,48,19,826834444
208,21,Ticks_Linear_5,111,5,42,127,826840320
208,21,Ticks_Linear_5,112,1,48,26,827408024
208,21,Ticks_Linear_5,113,5,42,127,827439608
208,21,Ticks_Linear_5,114,1,48,29,827992480
208,21,Ticks_Linear_5,115,5,42,127,828030276
208,21,Ticks_Linear_5,116,1,48,23,828550924
208,21,Ticks_Linear_5,117,5,42,127,828630288
208,21,Ticks_Linear_5,118,1,48,27,829172712
208,21,Ticks_Linear_5,119,5,42,127,829229576
208,21,Ticks_Linear_5,120,1,48,24,829815336
208,21,Ticks_Linear_5,121,5,42,127,829829588
208,21,Ticks_Linear_5,122,1,48,28,830407492
208,21,Ticks_Linear_5,123,5,42,127,830429524
208,21,Ticks_Linear_5,124,1,48,27,830981228
208,21,Ticks_Linear_5,125,5,42,127,831029640
208,21,Ticks_Linear_5,126,1,48,28,831637152
208,21,Ticks_Linear_5,127,5,42,127,831639892
208,21,Ticks_Linear_5,128,1,48,25,832236592
208,21,Ticks_Linear_5,129,5,42,127,832250096
208,21,Ticks_Linear_5,130,1,48,31,832793768
208,21,Ticks_Linear_5,131,5,42,127,832859600
208,21,Ticks_Linear_5,132,5,42,127,833469788
208,21,Ticks_Linear_5,133,1,48,18,833511484
208,21,Ticks_Linear_5,134,1,48,33,834002096
208,21,Ticks_Linear_5,135,5,42,127,834080060
208,21,Ticks_Linear_5,136,1,48,32,834696020
208,21,Ticks_Linear_5,137,5,42,127,834699808
208,21,Ticks_Linear_5,138,1,48,33,835265012
208,21,Ticks_Linear_5,139,5,42,127,835320256
208,21,Ticks_Linear_5,140,1,48,23,835888828
208,21,Ticks_Linear_5,141,5,42,127,835939704
208,21,Ticks_Linear_5,142,1,48,19,836517092
208,21,Ticks_Linear_5,143,5,42,127,836560200
208,21,Ticks_Linear_5,144,1,48,20,837081896
208,21,Ticks_Linear_5,145,5,42,127,837179664
208,21,Ticks_Linear_5,146,1,48,22,837754744
208,21,Ticks_Linear_5,147,5,42,127,837809592
208,21,Ticks_Linear_5,148,5,42,127,838440364
208,21,Ticks_Linear_5,149,1,48,18,838447672
208,21,Ticks_Linear_5,150,1,48,19,839056992
208,21,Ticks_Linear_5,151,5,42,127,839069976
208,21,Ticks_Linear_5,152,5,42,127,839699776
208,21,Ticks_Linear_5,153,1,48,20,840275160
208,21,Ticks_Linear_5,154,5,42,127,840329484
208,21,Ticks_Linear_5,155,1,48,21,840969524
208,21,Ticks_Linear_5,156,5,42,127,840971232
208,21,Ticks_Linear_5,157,1,48,26,841566716
208,21,Ticks_Linear_5,158,5,42,127,841609528
208,21,Ticks_Linear_5,159,1,48,25,842158220
208,21,Ticks_Linear_5,160,5,42,127,842249488
208,21,Ticks_Linear_5,161,1,48,14,842829128
208,21,Ticks_Linear_5,162,5,42,127,842889572
208,21,Ticks_Linear_5,163,1,48,18,843419564
208,21,Ticks_Linear_5,164,5,42,127,843529740
208,21,Ticks_Linear_5,165,1,48,24,844073872
208,21,Ticks_Linear_5,166,5,42,127,844179768
208,21,Ticks_Linear_5,167,1,48,15,844804220
208,21,Ticks_Linear_5,168,5,42,127,844830276
208,21,Ticks_Linear_5,169,1,48,21,845374848
208,21,Ticks_Linear_5,170,5,42,127,845480292
208,21,Ticks_Linear_5,171,1,48,13,845963720
208,21,Ticks_Linear_5,172,5,42,127,846129596
208,21,Ticks_Linear_5,173,1,48,19,846611612
208,21,Ticks_Linear_5,174,5,42,127,846779700
208,21,Ticks_Linear_5,175,5,42,127,847440164
208,21,Ticks_Linear_5,176,1,48,23,847894360
208,21,Ticks_Linear_5,177,5,42,127,848099912
208,21,Ticks_Linear_5,178,1,48,17,848523308
208,21,Ticks_Linear_5,179,5,42,127,848760276
208,21,Ticks_Linear_5,180,1,48,27,849178596
208,21,Ticks_Linear_5,181,5,42,127,849419748
208,21,Ticks_Linear_5,182,1,48,39,850056736
208,21,Ticks_Linear_5,183,5,42,127,850080108
208,21,Ticks_Linear_5,184,1,48,37,850734156
208,21,Ticks_Linear_5,185,5,42,127,850749752
208,21,Ticks_Linear_5,186,1,48,40,851377316
208,21,Ticks_Linear_5,187,5,42,127,851419588
208,21,Ticks_Linear_5,188,1,48,39,852027888
208,21,Ticks_Linear_5,189,5,42,127,852090200
208,21,Ticks_Linear_5,190,1,48,43,852668120
208,21,Ticks_Linear_5,191,5,42,127,852760796
208,21,Ticks_Linear_5,192,1,48,44,853348748
208,21,Ticks_Linear_5,193,5,42,127,853429824
208,21,Ticks_Linear_5,194,1,48,42,854040440
208,21,Ticks_Linear_5,195,5,42,127,854109708
208,21,Ticks_Linear_5,196,1,48,41,854727020
208,21,Ticks_Linear_5,197,5,42,127,854789440
208,21,Ticks_Linear_5,198,1,48,41,855380220
208,21,Ticks_Linear_5,199,5,42,127,855469372
208,21,Ticks_Linear_5,200,1,48,24,856072212
208,21,Ticks_Linear_5,201,5,42,127,856150376
208,21,Ticks_Linear_5,202,1,48,36,856778608
208,21,Ticks_Linear_5,203,5,42,127,856830404
208,21,Ticks_Linear_5,204,1,48,43,857366824
208,21,Ticks_Linear_5,205,5,42,127,857519520
208,21,Ticks_Linear_5,206,1,48,49,858133732
208,21,Ticks_Linear_5,207,5,42,127,858209584
208,21,Ticks_Linear_5,208,1,48,44,858833104
208,21,Ticks_Linear_5,209,5,42,127,858899708
208,21,Ticks_Linear_5,210,1,48,45,859568392
208,21,Ticks_Linear_5,211,5,42,127,859589956
208,21,Ticks_Linear_5,212,1,48,40,860280088
208,21,Ticks_Linear_5,213,5,42,127,860281572
208,21,Ticks_Linear_5,214,1,48,28,860920524
208,21,Ticks_Linear_5,215,5,42,127,860979552
208,21,Ticks_Linear_5,216,1,48,42,861566728
208,21,Ticks_Linear_5,217,5,42,127,861680424
208,21,Ticks_Linear_5,218,1,48,43,862264780
208,21,Ticks_Linear_5,219,5,42,127,862380468
208,21,Ticks_Linear_5,220,1,48,39,862942024
208,21,Ticks_Linear_5,221,5,42,127,863079788
208,21,Ticks_Linear_5,222,1,48,46,863663920
208,21,Ticks_Linear_5,223,5,42,127,863780304
208,21,Ticks_Linear_5,224,1,48,33,864413708
208,21,Ticks_Linear_5,225,5,42,127,864489808
208,21,Ticks_Linear_5,226,1,48,31,865154740
208,21,Ticks_Linear_5,227,5,42,127,865199496
208,21,Ticks_Linear_5,228,1,48,44,865844116
208,21,Ticks_Linear_5,229,5,42,127,865910324
208,21,Ticks_Linear_5,230,1,48,43,866603696
208,21,Ticks_Linear_5,231,5,42,127,866619668
208,21,Ticks_Linear_5,232,1,48,40,867247976
208,21,Ticks_Linear_5,233,5,42,127,867330424
208,21,Ticks_Linear_5,234,1,48,51,867939892
208,21,Ticks_Linear_5,235,5,42,127,868059536
208,21,Ticks_Linear_5,236,1,48,43,868681520
208,21,Ticks_Linear_5,237,5,42,127,868780308
208,21,Ticks_Linear_5,238,1,48,44,869492312
208,21,Ticks_Linear_5,239,5,42,127,869500352
208,21,Ticks_Linear_5,240,1,48,38,870203068
208,21,Ticks_Linear_5,241,5,42,127,870220084
208,21,Ticks_Linear_5,242,1,48,39,870877700
208,21,Ticks_Linear_5,243,5,42,127,870940036
208,21,Ticks_Linear_5,244,1,48,32,871619784
208,21,Ticks_Linear_5,245,5,42,127,871670232
208,21,Ticks_Linear_5,246,1,48,39,872314680
208,21,Ticks_Linear_5,247,5,42,127,872400108
208,21,Ticks_Linear_5,248,1,48,35,873082784
208,21,Ticks_Linear_5,249,5,42,127,873130304
208,21,Ticks_Linear_5,250,1,48,41,873778004
208,21,Ticks_Linear_5,251,5,42,127,873859380
208,21,Ticks_Linear_5,252,1,48,45,874539820
208,21,Ticks_Linear_5,253,5,42,127,874589952
208,21,Ticks_Linear_5,254,1,48,39,875208320
208,21,Ticks_Linear_5,255,5,42,127,875329852
208,21,Ticks_Linear_5,256,1,48,36,875947488
208,21,Ticks_Linear_5,257,5,42,127,876070216
208,21,Ticks_Linear_5,258,1,48,33,876734044
208,21,Ticks_Linear_5,259,5,42,127,876809844
208,21,Ticks_Linear_5,260,1,48,40,877474628
208,21,Ticks_Linear_5,261,5,42,127,877549840
208,21,Ticks_Linear_5,262,5,42,127,878290480
208,21,Ticks_Linear_5,263,1,48,39,878313060
208,21,Ticks_Linear_5,264,1,48,30,879033640
208,21,Ticks_Linear_5,265,5,42,127,879039960
208,21,Ticks_Linear_5,266,5,42,127,879789452
208,21,Ticks_Linear_5,267,1,48,27,879854264
208,21,Ticks_Linear_5,268,1,48,31,880508316
208,21,Ticks_Linear_5,269,5,42,127,880539904
208,21,Ticks_Linear_5,270,1,48,38,881221840
208,21,Ticks_Linear_5,271,5,42,127,881289536
208,21,Ticks_Linear_5,272,1,48,32,881949568
208,21,Ticks_Linear_5,273,5,42,127,882040220
208,21,Ticks_Linear_5,274,1,48,38,882672212
208,21,Ticks_Linear_5,275,5,42,127,882799856
208,21,Ticks_Linear_5,276,1,48,45,883344588
208,21,Ticks_Linear_5,277,5,42,127,883559880
208,21,Ticks_Linear_5,278,1,48,45,884253116
208,21,Ticks_Linear_5,279,5,42,127,884319548
208,21,Ticks_Linear_5,280,5,42,127,885080552
208,21,Ticks_Linear_5,281,1,48,36,885082188
208,21,Ticks_Linear_5,282,1,48,45,885844044
208,21,Ticks_Linear_5,283,5,42,127,885849324
208,21,Ticks_Linear_5,284,1,48,41,886586724
208,21,Ticks_Linear_5,285,5,42,127,886619440
208,21,Ticks_Linear_5,286,5,42,127,887389492
208,21,Ticks_Linear_5,287,1,48,29,887392976
208,21,Ticks_Linear_5,288,5,42,127,888159536
208,21,Ticks_Linear_5,289,1,48,37,888212288
208,21,Ticks_Linear_5,290,1,48,42,888904780
208,21,Ticks_Linear_5,291,5,42,127,888929644
208,21,Ticks_Linear_5,292,1,48,34,889651724
208,21,Ticks_Linear_5,293,5,42,127,889699764
208,21,Ticks_Linear_5,294,1,48,40,890418932
208,21,Ticks_Linear_5,295,5,42,127,890480200
208,21,Ticks_Linear_5,296,5,42,127,891260268
208,21,Ticks_Linear_5,297,1,48,48,891281176
208,21,Ticks_Linear_5,298,5,42,127,892039436
208,21,Ticks_Linear_5,299,1,48,31,892048464
208,21,Ticks_Linear_5,300,1,48,33,892784008
208,21,Ticks_Linear_5,301,5,42,127,892819788
208,21,Ticks_Linear_5,302,5,42,127,893600084
208,21,Ticks_Linear_5,303,1,48,27,893627504
208,21,Ticks_Linear_5,304,5,42,127,894389564
208,21,Ticks_Linear_5,305,1,48,23,895091028
208,21,Ticks_Linear_5,306,5,42,127,895180184
208,21,Ticks_Linear_5,307,1,48,35,895928660
208,21,Ticks_Linear_5,308,5,42,127,895969816
208,21,Ticks_Linear_5,309,5,42,127,896760152
208,21,Ticks_Linear_5,310,1,48,42,896779568
208,21,Ticks_Linear_5,311,5,42,127,897549784
208,21,Ticks_Linear_5,312,1,48,42,897552452
208,21,Ticks_Linear_5,313,1,48,44,898349288
208,21,Ticks_Linear_5,314,5,42,127,898350920
208,21,Ticks_Linear_5,315,1,48,34,899138800
208,21,Ticks_Linear_5,316,5,42,127,899150124
208,21,Ticks_Linear_5,317,1,48,38,899937924
208,21,Ticks_Linear_5,318,5,42,127,899949996
208,21,Ticks_Linear_5,319,1,48,43,900681872
208,21,Ticks_Linear_5,320,5,42,127,900749648
208,21,Ticks_Linear_5,321,1,48,40,901527416
208,21,Ticks_Linear_5,322,5,42,127,901549520
208,21,Ticks_Linear_5,323,1,48,35,902286772
208,21,Ticks_Linear_5,324,5,42,127,902360384
208,21,Ticks_Linear_5,325,1,48,37,903079924
208,21,Ticks_Linear_5,326,5,42,127,903170596
208,21,Ticks_Linear_5,327,1,48,35,903940232
208,21,Ticks_Linear_5,328,5,42,127,903989688
208,21,Ticks_Linear_5,329,5,42,127,904799588
208,21,Ticks_Linear_5,330,1,48,44,904828200
208,21,Ticks_Linear_5,331,5,42,127,905609552
208,21,Ticks_Linear_5,0,9999,9999,9999,796367960
208,21,Ticks_Linear_5,1,9999,9999,9999,796847180
208,21,Ticks_Linear_5,2,9999,9999,9999,797327436
208,21,Ticks_Linear_5,3,9999,9999,9999,797807688
208,21,Ticks_Linear_5,4,9999,9999,9999,798288000
208,21,Ticks_Linear_5,5,9999,9999,9999,798777440
208,21,Ticks_Linear_5,6,9999,9999,9999,799267928
208,21,Ticks_Linear_5,7,9999,9999,9999,799757372
208,21,Ticks_Linear_5,8,9999,9999,9999,800247876
208,21,Ticks_Linear_5,9,9999,9999,9999,800737364
208,21,Ticks_Linear_5,10,9999,9999,9999,801238092
208,21,Ticks_Linear_5,11,9999,9999,9999,801748092
208,21,Ticks_Linear_5,12,9999,9999,9999,802247772
208,21,Ticks_Linear_5,13,9999,9999,9999,802747512
208,21,Ticks_Linear_5,14,9999,9999,9999,803247212
208,21,Ticks_Linear_5,15,9999,9999,9999,803757124
208,21,Ticks_Linear_5,16,9999,9999,9999,804267064
208,21,Ticks_Linear_5,17,9999,9999,9999,804778108
208,21,Ticks_Linear_5,18,9999,9999,9999,805288032
208,21,Ticks_Linear_5,19,9999,9999,9999,805797956
208,21,Ticks_Linear_5,20,9999,9999,9999,806317152
208,21,Ticks_Linear_5,21,9999,9999,9999,806837320
208,21,Ticks_Linear_5,22,9999,9999,9999,807357496
208,21,Ticks_Linear_5,23,9999,9999,9999,807877736
208,21,Ticks_Linear_5,24,9999,9999,9999,808397920
208,21,Ticks_Linear_5,25,9999,9999,9999,808927356
208,21,Ticks_Linear_5,26,9999,9999,9999,809457788
208,21,Ticks_Linear_5,27,9999,9999,9999,809987156
208,21,Ticks_Linear_5,28,9999,9999,9999,810517564
208,21,Ticks_Linear_5,29,9999,9999,9999,811048044
208,21,Ticks_Linear_5,30,9999,9999,9999,811587648
208,21,Ticks_Linear_5,31,9999,9999,9999,812127332
208,21,Ticks_Linear_5,32,9999,9999,9999,812667980
208,21,Ticks_Linear_5,33,9999,9999,9999,813207660
208,21,Ticks_Linear_5,34,9999,9999,9999,813747272
208,21,Ticks_Linear_5,35,9999,9999,9999,814297188
208,21,Ticks_Linear_5,36,9999,9999,9999,814848108
208,21,Ticks_Linear_5,37,9999,9999,9999,815407224
208,21,Ticks_Linear_5,38,9999,9999,9999,815958120
208,21,Ticks_Linear_5,39,9999,9999,9999,816517236
208,21,Ticks_Linear_5,40,9999,9999,9999,817077332
208,21,Ticks_Linear_5,41,9999,9999,9999,817637488
208,21,Ticks_Linear_5,42,9999,9999,9999,818197600
208,21,Ticks_Linear_5,43,9999,9999,9999,818757688
208,21,Ticks_Linear_5,44,9999,9999,9999,819317852
208,21,Ticks_Linear_5,45,9999,9999,9999,819887216
208,21,Ticks_Linear_5,46,9999,9999,9999,820457548
208,21,Ticks_Linear_5,47,9999,9999,9999,821027900
208,21,Ticks_Linear_5,48,9999,9999,9999,821597268
208,21,Ticks_Linear_5,49,9999,9999,9999,822167664
208,21,Ticks_Linear_5,50,9999,9999,9999,822747196
208,21,Ticks_Linear_5,51,9999,9999,9999,823327864
208,21,Ticks_Linear_5,52,9999,9999,9999,823907452
208,21,Ticks_Linear_5,53,9999,9999,9999,824488024
208,21,Ticks_Linear_5,54,9999,9999,9999,825067600
208,21,Ticks_Linear_5,55,9999,9999,9999,825657440
208,21,Ticks_Linear_5,56,9999,9999,9999,826247288
208,21,Ticks_Linear_5,57,9999,9999,9999,826838100
208,21,Ticks_Linear_5,58,9999,9999,9999,827437164
208,21,Ticks_Linear_5,59,9999,9999,9999,828027980
208,21,Ticks_Linear_5,60,9999,9999,9999,828628064
208,21,Ticks_Linear_5,61,9999,9999,9999,829227132
208,21,Ticks_Linear_5,62,9999,9999,9999,829827144
208,21,Ticks_Linear_5,63,9999,9999,9999,830427228
208,21,Ticks_Linear_5,64,9999,9999,9999,831027268
208,21,Ticks_Linear_5,65,9999,9999,9999,831637596
208,21,Ticks_Linear_5,66,9999,9999,9999,832247876
208,21,Ticks_Linear_5,67,9999,9999,9999,832857160
208,21,Ticks_Linear_5,68,9999,9999,9999,833467492
208,21,Ticks_Linear_5,69,9999,9999,9999,834077768
208,21,Ticks_Linear_5,70,9999,9999,9999,834697292
208,21,Ticks_Linear_5,71,9999,9999,9999,835317888
208,21,Ticks_Linear_5,72,9999,9999,9999,835937336
208,21,Ticks_Linear_5,73,9999,9999,9999,836557908
208,21,Ticks_Linear_5,74,9999,9999,9999,837177440
208,21,Ticks_Linear_5,75,9999,9999,9999,837807224
208,21,Ticks_Linear_5,76,9999,9999,9999,838437992
208,21,Ticks_Linear_5,77,9999,9999,9999,839067756
208,21,Ticks_Linear_5,78,9999,9999,9999,839697480
208,21,Ticks_Linear_5,79,9999,9999,9999,840327264
208,21,Ticks_Linear_5,80,9999,9999,9999,840967232
208,21,Ticks_Linear_5,81,9999,9999,9999,841607232
208,21,Ticks_Linear_5,82,9999,9999,9999,842247268
208,21,Ticks_Linear_5,83,9999,9999,9999,842887276
208,21,Ticks_Linear_5,84,9999,9999,9999,843527296
208,21,Ticks_Linear_5,85,9999,9999,9999,844177472
208,21,Ticks_Linear_5,86,9999,9999,9999,844827760
208,21,Ticks_Linear_5,87,9999,9999,9999,845477996
208,21,Ticks_Linear_5,88,9999,9999,9999,846127228
208,21,Ticks_Linear_5,89,9999,9999,9999,846777404
208,21,Ticks_Linear_5,90,9999,9999,9999,847437944
208,21,Ticks_Linear_5,91,9999,9999,9999,848097392
208,21,Ticks_Linear_5,92,9999,9999,9999,848757836
208,21,Ticks_Linear_5,93,9999,9999,9999,849417308
208,21,Ticks_Linear_5,94,9999,9999,9999,850077816
208,21,Ticks_Linear_5,95,9999,9999,9999,850747456
208,21,Ticks_Linear_5,96,9999,9999,9999,851417144
208,21,Ticks_Linear_5,97,9999,9999,9999,852087908
208,21,Ticks_Linear_5,98,9999,9999,9999,852757620
208,21,Ticks_Linear_5,99,9999,9999,9999,853427308
208,21,Ticks_Linear_5,100,9999,9999,9999,854107192
208,21,Ticks_Linear_5,101,9999,9999,9999,854787148
208,21,Ticks_Linear_5,102,9999,9999,9999,855467080
208,21,Ticks_Linear_5,103,9999,9999,9999,856148080
208,21,Ticks_Linear_5,104,9999,9999,9999,856827960
208,21,Ticks_Linear_5,105,9999,9999,9999,857517152
208,21,Ticks_Linear_5,106,9999,9999,9999,858207292
208,21,Ticks_Linear_5,107,9999,9999,9999,858897488
208,21,Ticks_Linear_5,108,9999,9999,9999,859587664
208,21,Ticks_Linear_5,109,9999,9999,9999,860277868
208,21,Ticks_Linear_5,110,9999,9999,9999,860977256
208,21,Ticks_Linear_5,111,9999,9999,9999,861677684
208,21,Ticks_Linear_5,112,9999,9999,9999,862378096
208,21,Ticks_Linear_5,113,9999,9999,9999,863077492
208,21,Ticks_Linear_5,114,9999,9999,9999,863777860
208,21,Ticks_Linear_5,115,9999,9999,9999,864487516
208,21,Ticks_Linear_5,116,9999,9999,9999,865197128
208,21,Ticks_Linear_5,117,9999,9999,9999,865907808
208,21,Ticks_Linear_5,118,9999,9999,9999,866617448
208,21,Ticks_Linear_5,119,9999,9999,9999,867328056
208,21,Ticks_Linear_5,120,9999,9999,9999,868057164
208,21,Ticks_Linear_5,121,9999,9999,9999,868778088
208,21,Ticks_Linear_5,122,9999,9999,9999,869497908
208,21,Ticks_Linear_5,123,9999,9999,9999,870217788
208,21,Ticks_Linear_5,124,9999,9999,9999,870937668
208,21,Ticks_Linear_5,125,9999,9999,9999,871667792
208,21,Ticks_Linear_5,126,9999,9999,9999,872397888
208,21,Ticks_Linear_5,127,9999,9999,9999,873128008
208,21,Ticks_Linear_5,128,9999,9999,9999,873857088
208,21,Ticks_Linear_5,129,9999,9999,9999,874587208
208,21,Ticks_Linear_5,130,9999,9999,9999,875327560
208,21,Ticks_Linear_5,131,9999,9999,9999,876067920
208,21,Ticks_Linear_5,132,9999,9999,9999,876807252
208,21,Ticks_Linear_5,133,9999,9999,9999,877547620
208,21,Ticks_Linear_5,134,9999,9999,9999,878287964
208,21,Ticks_Linear_5,135,9999,9999,9999,879037520
208,21,Ticks_Linear_5,136,9999,9999,9999,879787084
208,21,Ticks_Linear_5,137,9999,9999,9999,880537684
208,21,Ticks_Linear_5,138,9999,9999,9999,881287244
208,21,Ticks_Linear_5,139,9999,9999,9999,882037848
208,21,Ticks_Linear_5,140,9999,9999,9999,882797636
208,21,Ticks_Linear_5,141,9999,9999,9999,883557436
208,21,Ticks_Linear_5,142,9999,9999,9999,884317256
208,21,Ticks_Linear_5,143,9999,9999,9999,885078108
208,21,Ticks_Linear_5,144,9999,9999,9999,885847100
208,21,Ticks_Linear_5,145,9999,9999,9999,886617144
208,21,Ticks_Linear_5,146,9999,9999,9999,887387196
208,21,Ticks_Linear_5,147,9999,9999,9999,888157240
208,21,Ticks_Linear_5,148,9999,9999,9999,888927352
208,21,Ticks_Linear_5,149,9999,9999,9999,889697396
208,21,Ticks_Linear_5,150,9999,9999,9999,890477680
208,21,Ticks_Linear_5,151,9999,9999,9999,891257972
208,21,Ticks_Linear_5,152,9999,9999,9999,892037216
208,21,Ticks_Linear_5,153,9999,9999,9999,892817492
208,21,Ticks_Linear_5,154,9999,9999,9999,893597788
208,21,Ticks_Linear_5,155,9999,9999,9999,894387268
208,21,Ticks_Linear_5,156,9999,9999,9999,895177816
208,21,Ticks_Linear_5,157,9999,9999,9999,895967296
208,21,Ticks_Linear_5,158,9999,9999,9999,896757856
208,21,Ticks_Linear_5,159,9999,9999,9999,897547340
208,21,Ticks_Linear_5,160,9999,9999,9999,898347064
208,21,Ticks_Linear_5,161,9999,9999,9999,899147828
208,21,Ticks_Linear_5,162,9999,9999,9999,899947628
208,21,Ticks_Linear_5,163,9999,9999,9999,900747352
208,21,Ticks_Linear_5,164,9999,9999,9999,901547076
208,21,Ticks_Linear_5,165,9999,9999,9999,902358088
208,21,Ticks_Linear_5,166,9999,9999,9999,903168080
208,21,Ticks_Linear_5,167,9999,9999,9999,903987320
208,21,Ticks_Linear_5,168,9999,9999,9999,904797292
208,21,Ticks_Linear_5,169,9999,9999,9999,905607260
209,9,Ticks_ISO_T2_8,0,5,42,127,929717560
209,9,Ticks_ISO_T2_8,1,1,48,19,930365540
209,9,Ticks_ISO_T2_8,2,5,42,127,930518416
209,9,Ticks_ISO_T2_8,3,1,48,22,931293932
209,9,Ticks_ISO_T2_8,4,5,42,127,931318112
209,9,Ticks_ISO_T2_8,5,5,42,127,932118004
209,9,Ticks_ISO_T2_8,6,1,48,21,932191828
209,9,Ticks_ISO_T2_8,7,1,48,32,932815736
209,9,Ticks_ISO_T2_8,8,5,42,127,932917636
209,9,Ticks_ISO_T2_8,9,1,48,36,933671652
209,9,Ticks_ISO_T2_8,10,5,42,127,933718356
209,9,Ticks_ISO_T2_8,11,1,48,36,934500132
209,9,Ticks_ISO_T2_8,12,5,42,127,934518312
209,9,Ticks_ISO_T2_8,13,5,42,127,935317904
209,9,Ticks_ISO_T2_8,14,1,48,36,935321988
209,9,Ticks_ISO_T2_8,15,1,48,32,936097732
209,9,Ticks_ISO_T2_8,16,5,42,127,936117484
209,9,Ticks_ISO_T2_8,17,1,48,33,936882308
209,9,Ticks_ISO_T2_8,18,5,42,127,936918336
209,9,Ticks_ISO_T2_8,19,1,48,32,937674876
209,9,Ticks_ISO_T2_8,20,5,42,127,937718168
209,9,Ticks_ISO_T2_8,21,1,48,24,938479636
209,9,Ticks_ISO_T2_8,22,5,42,127,938517828
209,9,Ticks_ISO_T2_8,23,1,48,30,939229684
209,9,Ticks_ISO_T2_8,24,5,42,127,939317780
209,9,Ticks_ISO_T2_8,25,1,48,33,940026528
209,9,Ticks_ISO_T2_8,26,5,42,127,940118488
209,9,Ticks_ISO_T2_8,27,5,42,127,940918076
209,9,Ticks_ISO_T2_8,28,1,48,33,940922828
209,9,Ticks_ISO_T2_8,29,5,42,127,941717884
209,9,Ticks_ISO_T2_8,30,1,48,34,941759008
209,9,Ticks_ISO_T2_8,31,1,48,40,942504728
209,9,Ticks_ISO_T2_8,32,5,42,127,942517612
209,9,Ticks_ISO_T2_8,33,1,48,41,943294608
209,9,Ticks_ISO_T2_8,34,5,42,127,943318388
209,9,Ticks_ISO_T2_8,35,1,48,38,944115496
209,9,Ticks_ISO_T2_8,36,5,42,127,944118072
209,9,Ticks_ISO_T2_8,37,5,42,127,944917812
209,9,Ticks_ISO_T2_8,38,1,48,42,944931232
209,9,Ticks_ISO_T2_8,39,5,42,127,945717548
209,9,Ticks_ISO_T2_8,40,1,48,30,945728652
209,9,Ticks_ISO_T2_8,41,1,48,37,946472732
209,9,Ticks_ISO_T2_8,42,5,42,127,946518468
209,9,Ticks_ISO_T2_8,43,1,48,45,947299124
209,9,Ticks_ISO_T2_8,44,5,42,127,947318052
209,9,Ticks_ISO_T2_8,45,1,48,34,948116352
209,9,Ticks_ISO_T2_8,46,5,42,127,948118232
209,9,Ticks_ISO_T2_8,47,5,42,127,948917600
209,9,Ticks_ISO_T2_8,48,1,48,37,948928780
209,9,Ticks_ISO_T2_8,49,5,42,127,949718452
209,9,Ticks_ISO_T2_8,50,1,48,36,949723580
209,9,Ticks_ISO_T2_8,51,1,48,30,950477896
209,9,Ticks_ISO_T2_8,52,5,42,127,950518128
209,9,Ticks_ISO_T2_8,53,5,42,127,951317792
209,9,Ticks_ISO_T2_8,54,1,48,29,952010780
209,9,Ticks_ISO_T2_8,55,5,42,127,952117676
209,9,Ticks_ISO_T2_8,56,1,48,43,952904020
209,9,Ticks_ISO_T2_8,57,5,42,127,952918468
209,9,Ticks_ISO_T2_8,58,5,42,127,953718132
209,9,Ticks_ISO_T2_8,59,1,48,45,953779716
209,9,Ticks_ISO_T2_8,60,5,42,127,954518016
209,9,Ticks_ISO_T2_8,61,1,48,16,954565480
209,9,Ticks_ISO_T2_8,62,5,42,127,955317524
209,9,Ticks_ISO_T2_8,63,1,48,35,955344904
209,9,Ticks_ISO_T2_8,64,5,42,127,956118448
209,9,Ticks_ISO_T2_8,65,1,48,30,956152276
209,9,Ticks_ISO_T2_8,66,1,48,35,956902488
209,9,Ticks_ISO_T2_8,67,5,42,127,956918052
209,9,Ticks_ISO_T2_8,68,5,42,127,957718016
209,9,Ticks_ISO_T2_8,69,1,48,37,957722320
209,9,Ticks_ISO_T2_8,70,1,48,34,958513824
209,9,Ticks_ISO_T2_8,71,5,42,127,958517520
209,9,Ticks_ISO_T2_8,72,1,48,28,959291532
209,9,Ticks_ISO_T2_8,73,5,42,127,959318444
209,9,Ticks_ISO_T2_8,74,1,48,31,960072444
209,9,Ticks_ISO_T2_8,75,5,42,127,960118180
209,9,Ticks_ISO_T2_8,76,1,48,29,960885320
209,9,Ticks_ISO_T2_8,77,5,42,127,960917988
209,9,Ticks_ISO_T2_8,78,1,48,35,961626884
209,9,Ticks_ISO_T2_8,79,5,42,127,961718380
209,9,Ticks_ISO_T2_8,80,1,48,30,962511900
209,9,Ticks_ISO_T2_8,81,5,42,127,962518280
209,9,Ticks_ISO_T2_8,82,1,48,28,963279520
209,9,Ticks_ISO_T2_8,83,5,42,127,963318108
209,9,Ticks_ISO_T2_8,84,1,48,29,964072108
209,9,Ticks_ISO_T2_8,85,5,42,127,964117844
209,9,Ticks_ISO_T2_8,86,1,48,37,964840556
209,9,Ticks_ISO_T2_8,87,5,42,127,964917724
209,9,Ticks_ISO_T2_8,88,1,48,30,965628120
209,9,Ticks_ISO_T2_8,89,5,42,127,965718652
209,9,Ticks_ISO_T2_8,90,5,42,127,966518096
209,9,Ticks_ISO_T2_8,91,1,48,25,966534204
209,9,Ticks_ISO_T2_8,92,1,48,22,967292620
209,9,Ticks_ISO_T2_8,93,5,42,127,967317820
209,9,Ticks_ISO_T2_8,94,1,48,35,968046204
209,9,Ticks_ISO_T2_8,95,5,42,127,968117556
209,9,Ticks_ISO_T2_8,96,1,48,31,968878500
209,9,Ticks_ISO_T2_8,97,5,42,127,968918484
209,9,Ticks_ISO_T2_8,98,1,48,24,969706480
209,9,Ticks_ISO_T2_8,99,5,42,127,969718316
209,9,Ticks_ISO_T2_8,100,1,48,26,970461760
209,9,Ticks_ISO_T2_8,101,5,42,127,970517728
209,9,Ticks_ISO_T2_8,102,1,48,27,971292628
209,9,Ticks_ISO_T2_8,103,5,42,127,971317608
209,9,Ticks_ISO_T2_8,104,1,48,28,972068696
209,9,Ticks_ISO_T2_8,105,5,42,127,972118240
209,9,Ticks_ISO_T2_8,106,1,48,33,972818996
209,9,Ticks_ISO_T2_8,107,5,42,127,972918328
209,9,Ticks_ISO_T2_8,108,1,48,27,973618876
209,9,Ticks_ISO_T2_8,109,5,42,127,973717984
209,9,Ticks_ISO_T2_8,110,5,42,127,974517740
209,9,Ticks_ISO_T2_8,111,1,48,23,974532880
209,9,Ticks_ISO_T2_8,112,5,42,127,975318372
209,9,Ticks_ISO_T2_8,113,1,48,29,975347120
209,9,Ticks_ISO_T2_8,114,5,42,127,976118056
209,9,Ticks_ISO_T2_8,115,1,48,22,976139984
209,9,Ticks_ISO_T2_8,116,1,48,29,976911476
209,9,Ticks_ISO_T2_8,117,5,42,127,976918004
209,9,Ticks_ISO_T2_8,118,5,42,127,977717668
209,9,Ticks_ISO_T2_8,119,1,48,30,977725784
209,9,Ticks_ISO_T2_8,120,5,42,127,978518372
209,9,Ticks_ISO_T2_8,121,1,48,35,979167476
209,9,Ticks_ISO_T2_8,122,5,42,127,979318104
209,9,Ticks_ISO_T2_8,123,1,48,33,980054272
209,9,Ticks_ISO_T2_8,124,5,42,127,980118000
209,9,Ticks_ISO_T2_8,125,1,48,31,980834588
209,9,Ticks_ISO_T2_8,126,5,42,127,980917660
209,9,Ticks_ISO_T2_8,127,5,42,127,981718368
209,9,Ticks_ISO_T2_8,128,1,48,23,981867116
209,9,Ticks_ISO_T2_8,129,5,42,127,982518128
209,9,Ticks_ISO_T2_8,130,1,48,20,982631756
209,9,Ticks_ISO_T2_8,131,1,48,20,983283544
209,9,Ticks_ISO_T2_8,132,5,42,127,983318004
209,9,Ticks_ISO_T2_8,133,5,42,127,984117744
209,9,Ticks_ISO_T2_8,134,1,48,19,984916880
209,9,Ticks_ISO_T2_8,135,5,42,127,984918688
209,9,Ticks_ISO_T2_8,136,5,42,127,985718056
209,9,Ticks_ISO_T2_8,137,1,48,23,985754024
209,9,Ticks_ISO_T2_8,138,1,48,26,986480936
209,9,Ticks_ISO_T2_8,139,5,42,127,986517784
209,9,Ticks_ISO_T2_8,140,5,42,127,987317672
209,9,Ticks_ISO_T2_8,141,1,48,27,987367556
209,9,Ticks_ISO_T2_8,142,5,42,127,988118524
209,9,Ticks_ISO_T2_8,143,1,48,25,988150412
209,9,Ticks_ISO_T2_8,144,5,42,127,988918208
209,9,Ticks_ISO_T2_8,145,1,48,27,988938276
209,9,Ticks_ISO_T2_8,146,1,48,23,989718088
209,9,Ticks_ISO_T2_8,147,5,42,127,989719652
209,9,Ticks_ISO_T2_8,148,1,48,24,990512260
209,9,Ticks_ISO_T2_8,149,5,42,127,990517592
209,9,Ticks_ISO_T2_8,150,5,42,127,991318452
209,9,Ticks_ISO_T2_8,151,1,48,22,991341352
209,9,Ticks_ISO_T2_8,152,5,42,127,992118260
209,9,Ticks_ISO_T2_8,153,1,48,21,992138772
209,9,Ticks_ISO_T2_8,154,1,48,27,992873368
209,9,Ticks_ISO_T2_8,155,5,42,127,992917912
209,9,Ticks_ISO_T2_8,156,5,42,127,993717504
209,9,Ticks_ISO_T2_8,157,1,48,26,993763500
209,9,Ticks_ISO_T2_8,158,5,42,127,994518428
209,9,Ticks_ISO_T2_8,159,5,42,127,995318208
209,9,Ticks_ISO_T2_8,160,1,48,35,995933232
209,9,Ticks_ISO_T2_8,161,5,42,127,996117940
209,9,Ticks_ISO_T2_8,162,1,48,32,996869268
209,9,Ticks_ISO_T2_8,163,5,42,127,996917612
209,9,Ticks_ISO_T2_8,164,5,42,127,997718248
209,9,Ticks_ISO_T2_8,165,1,48,36,997727036
209,9,Ticks_ISO_T2_8,166,1,48,35,998509056
209,9,Ticks_ISO_T2_8,167,5,42,127,998518128
209,9,Ticks_ISO_T2_8,168,5,42,127,999317868
209,9,Ticks_ISO_T2_8,169,1,48,37,999348008
209,9,Ticks_ISO_T2_8,170,5,42,127,1000117896
209,9,Ticks_ISO_T2_8,171,1,48,24,1000174876
209,9,Ticks_ISO_T2_8,172,5,42,127,1000918304
209,9,Ticks_ISO_T2_8,173,1,48,36,1000930332
209,9,Ticks_ISO_T2_8,174,5,42,127,1001718064
209,9,Ticks_ISO_T2_8,175,1,48,27,1001756640
209,9,Ticks_ISO_T2_8,176,5,42,127,1002517796
209,9,Ticks_ISO_T2_8,177,1,48,32,1002538904
209,9,Ticks_ISO_T2_8,178,1,48,34,1003317824
209,9,Ticks_ISO_T2_8,179,5,42,127,1003319464
209,9,Ticks_ISO_T2_8,180,1,48,36,1004066068
209,9,Ticks_ISO_T2_8,181,5,42,127,1004118376
209,9,Ticks_ISO_T2_8,182,1,48,32,1004840712
209,9,Ticks_ISO_T2_8,183,5,42,127,1004918032
209,9,Ticks_ISO_T2_8,184,5,42,127,1005717772
209,9,Ticks_ISO_T2_8,185,1,48,25,1005718736
209,9,Ticks_ISO_T2_8,186,1,48,35,1006512832
209,9,Ticks_ISO_T2_8,187,5,42,127,1006517796
209,9,Ticks_ISO_T2_8,188,1,48,39,1007305024
209,9,Ticks_ISO_T2_8,189,5,42,127,1007318500
209,9,Ticks_ISO_T2_8,190,1,48,44,1008062192
209,9,Ticks_ISO_T2_8,191,5,42,127,1008118108
209,9,Ticks_ISO_T2_8,192,1,48,41,1008816456
209,9,Ticks_ISO_T2_8,193,5,42,127,1008917828
209,9,Ticks_ISO_T2_8,194,1,48,39,1009676476
209,9,Ticks_ISO_T2_8,195,5,42,127,1009717652
209,9,Ticks_ISO_T2_8,196,1,48,41,1010495244
209,9,Ticks_ISO_T2_8,197,5,42,127,1010518356
209,9,Ticks_ISO_T2_8,198,1,48,28,1011311404
209,9,Ticks_ISO_T2_8,199,5,42,127,1011318160
209,9,Ticks_ISO_T2_8,200,1,48,29,1012106440
209,9,Ticks_ISO_T2_8,201,5,42,127,1012117820
209,9,Ticks_ISO_T2_8,202,1,48,24,1012894892
209,9,Ticks_ISO_T2_8,203,5,42,127,1012917480
209,9,Ticks_ISO_T2_8,204,5,42,127,1013718488
209,9,Ticks_ISO_T2_8,205,1,48,24,1013732452
209,9,Ticks_ISO_T2_8,206,1,48,33,1014445668
209,9,Ticks_ISO_T2_8,207,5,42,127,1014518236
209,9,Ticks_ISO_T2_8,208,1,48,36,1015263048
209,9,Ticks_ISO_T2_8,209,5,42,127,1015318192
209,9,Ticks_ISO_T2_8,210,5,42,127,1016117708
209,9,Ticks_ISO_T2_8,211,1,48,24,1016130904
209,9,Ticks_ISO_T2_8,212,1,48,19,1016881264
209,9,Ticks_ISO_T2_8,213,5,42,127,1016918332
209,9,Ticks_ISO_T2_8,214,1,48,35,1017666500
209,9,Ticks_ISO_T2_8,215,5,42,127,1017718212
209,9,Ticks_ISO_T2_8,216,5,42,127,1018518028
209,9,Ticks_ISO_T2_8,217,1,48,29,1018555492
209,9,Ticks_ISO_T2_8,218,5,42,127,1019317464
209,9,Ticks_ISO_T2_8,219,1,48,35,1019357416
209,9,Ticks_ISO_T2_8,220,1,48,13,1020071452
209,9,Ticks_ISO_T2_8,221,5,42,127,1020118308
209,9,Ticks_ISO_T2_8,222,5,42,127,1020917996
209,9,Ticks_ISO_T2_8,223,1,48,28,1021026920
209,9,Ticks_ISO_T2_8,224,1,48,35,1021706784
209,9,Ticks_ISO_T2_8,225,5,42,127,1021718168
209,9,Ticks_ISO_T2_8,226,5,42,127,1022517688
209,9,Ticks_ISO_T2_8,227,1,48,46,1022529836
209,9,Ticks_ISO_T2_8,228,1,48,46,1023269588
209,9,Ticks_ISO_T2_8,229,5,42,127,1023318312
209,9,Ticks_ISO_T2_8,230,1,48,39,1024076864
209,9,Ticks_ISO_T2_8,231,5,42,127,1024118044
209,9,Ticks_ISO_T2_8,232,5,42,127,1024917856
209,9,Ticks_ISO_T2_8,233,1,48,35,1024952780
209,9,Ticks_ISO_T2_8,0,9999,9999,9999,929715272
209,9,Ticks_ISO_T2_8,1,9999,9999,9999,930516052
209,9,Ticks_ISO_T2_8,2,9999,9999,9999,931315824
209,9,Ticks_ISO_T2_8,3,9999,9999,9999,932115564
209,9,Ticks_ISO_T2_8,4,9999,9999,9999,932915276
209,9,Ticks_ISO_T2_8,5,9999,9999,9999,933716068
209,9,Ticks_ISO_T2_8,6,9999,9999,9999,934515804
209,9,Ticks_ISO_T2_8,7,9999,9999,9999,935315540
209,9,Ticks_ISO_T2_8,8,9999,9999,9999,936115268
209,9,Ticks_ISO_T2_8,9,9999,9999,9999,936916048
209,9,Ticks_ISO_T2_8,10,9999,9999,9999,937715804
209,9,Ticks_ISO_T2_8,11,9999,9999,9999,938515540
209,9,Ticks_ISO_T2_8,12,9999,9999,9999,939315272
209,9,Ticks_ISO_T2_8,13,9999,9999,9999,940116048
209,9,Ticks_ISO_T2_8,14,9999,9999,9999,940915788
209,9,Ticks_ISO_T2_8,15,9999,9999,9999,941715524
209,9,Ticks_ISO_T2_8,16,9999,9999,9999,942515248
209,9,Ticks_ISO_T2_8,17,9999,9999,9999,943316028
209,9,Ticks_ISO_T2_8,18,9999,9999,9999,944115784
209,9,Ticks_ISO_T2_8,19,9999,9999,9999,944915524
209,9,Ticks_ISO_T2_8,20,9999,9999,9999,945715256
209,9,Ticks_ISO_T2_8,21,9999,9999,9999,946516032
209,9,Ticks_ISO_T2_8,22,9999,9999,9999,947315764
209,9,Ticks_ISO_T2_8,23,9999,9999,9999,948115504
209,9,Ticks_ISO_T2_8,24,9999,9999,9999,948915312
209,9,Ticks_ISO_T2_8,25,9999,9999,9999,949716016
209,9,Ticks_ISO_T2_8,26,9999,9999,9999,950515768
209,9,Ticks_ISO_T2_8,27,9999,9999,9999,951315504
209,9,Ticks_ISO_T2_8,28,9999,9999,9999,952115312
209,9,Ticks_ISO_T2_8,29,9999,9999,9999,952916032
209,9,Ticks_ISO_T2_8,30,9999,9999,9999,953715768
209,9,Ticks_ISO_T2_8,31,9999,9999,9999,954515504
209,9,Ticks_ISO_T2_8,32,9999,9999,9999,955315308
209,9,Ticks_ISO_T2_8,33,9999,9999,9999,956116088
209,9,Ticks_ISO_T2_8,34,9999,9999,9999,956915764
209,9,Ticks_ISO_T2_8,35,9999,9999,9999,957715504
209,9,Ticks_ISO_T2_8,36,9999,9999,9999,958515304
209,9,Ticks_ISO_T2_8,37,9999,9999,9999,959316084
209,9,Ticks_ISO_T2_8,38,9999,9999,9999,960115816
209,9,Ticks_ISO_T2_8,39,9999,9999,9999,960915552
209,9,Ticks_ISO_T2_8,40,9999,9999,9999,961715284
209,9,Ticks_ISO_T2_8,41,9999,9999,9999,962516064
209,9,Ticks_ISO_T2_8,42,9999,9999,9999,963315820
209,9,Ticks_ISO_T2_8,43,9999,9999,9999,964115556
209,9,Ticks_ISO_T2_8,44,9999,9999,9999,964915288
209,9,Ticks_ISO_T2_8,45,9999,9999,9999,965716068
209,9,Ticks_ISO_T2_8,46,9999,9999,9999,966515808
209,9,Ticks_ISO_T2_8,47,9999,9999,9999,967315532
209,9,Ticks_ISO_T2_8,48,9999,9999,9999,968115268
209,9,Ticks_ISO_T2_8,49,9999,9999,9999,968916044
209,9,Ticks_ISO_T2_8,50,9999,9999,9999,969715804
209,9,Ticks_ISO_T2_8,51,9999,9999,9999,970515512
209,9,Ticks_ISO_T2_8,52,9999,9999,9999,971315244
209,9,Ticks_ISO_T2_8,53,9999,9999,9999,972116024
209,9,Ticks_ISO_T2_8,54,9999,9999,9999,972915816
209,9,Ticks_ISO_T2_8,55,9999,9999,9999,973715548
209,9,Ticks_ISO_T2_8,56,9999,9999,9999,974515304
209,9,Ticks_ISO_T2_8,57,9999,9999,9999,975316080
209,9,Ticks_ISO_T2_8,58,9999,9999,9999,976115768
209,9,Ticks_ISO_T2_8,59,9999,9999,9999,976915568
209,9,Ticks_ISO_T2_8,60,9999,9999,9999,977715304
209,9,Ticks_ISO_T2_8,61,9999,9999,9999,978516084
209,9,Ticks_ISO_T2_8,62,9999,9999,9999,979315816
209,9,Ticks_ISO_T2_8,63,9999,9999,9999,980115564
209,9,Ticks_ISO_T2_8,64,9999,9999,9999,980915296
209,9,Ticks_ISO_T2_8,65,9999,9999,9999,981716080
209,9,Ticks_ISO_T2_8,66,9999,9999,9999,982515764
209,9,Ticks_ISO_T2_8,67,9999,9999,9999,983315568
209,9,Ticks_ISO_T2_8,68,9999,9999,9999,984115308
209,9,Ticks_ISO_T2_8,69,9999,9999,9999,984916032
209,9,Ticks_ISO_T2_8,70,9999,9999,9999,985715768
209,9,Ticks_ISO_T2_8,71,9999,9999,9999,986515568
209,9,Ticks_ISO_T2_8,72,9999,9999,9999,987315308
209,9,Ticks_ISO_T2_8,73,9999,9999,9999,988116012
209,9,Ticks_ISO_T2_8,74,9999,9999,9999,988915772
209,9,Ticks_ISO_T2_8,75,9999,9999,9999,989715504
209,9,Ticks_ISO_T2_8,76,9999,9999,9999,990515304
209,9,Ticks_ISO_T2_8,77,9999,9999,9999,991316016
209,9,Ticks_ISO_T2_8,78,9999,9999,9999,992115820
209,9,Ticks_ISO_T2_8,79,9999,9999,9999,992915548
209,9,Ticks_ISO_T2_8,80,9999,9999,9999,993715288
209,9,Ticks_ISO_T2_8,81,9999,9999,9999,994516068
209,9,Ticks_ISO_T2_8,82,9999,9999,9999,995315772
209,9,Ticks_ISO_T2_8,83,9999,9999,9999,996115504
209,9,Ticks_ISO_T2_8,84,9999,9999,9999,996915252
209,9,Ticks_ISO_T2_8,85,9999,9999,9999,997716036
209,9,Ticks_ISO_T2_8,86,9999,9999,9999,998515764
209,9,Ticks_ISO_T2_8,87,9999,9999,9999,999315504
209,9,Ticks_ISO_T2_8,88,9999,9999,9999,1000115312
209,9,Ticks_ISO_T2_8,89,9999,9999,9999,1000916016
209,9,Ticks_ISO_T2_8,90,9999,9999,9999,1001715776
209,9,Ticks_ISO_T2_8,91,9999,9999,9999,1002515508
209,9,Ticks_ISO_T2_8,92,9999,9999,9999,1003315316
209,9,Ticks_ISO_T2_8,93,9999,9999,9999,1004116088
209,9,Ticks_ISO_T2_8,94,9999,9999,9999,1004915820
209,9,Ticks_ISO_T2_8,95,9999,9999,9999,1005715556
209,9,Ticks_ISO_T2_8,96,9999,9999,9999,1006515284
209,9,Ticks_ISO_T2_8,97,9999,9999,9999,1007316064
209,9,Ticks_ISO_T2_8,98,9999,9999,9999,1008115820
209,9,Ticks_ISO_T2_8,99,9999,9999,9999,1008915540
209,9,Ticks_ISO_T2_8,100,9999,9999,9999,1009715288
209,9,Ticks_ISO_T2_8,101,9999,9999,9999,1010516068
209,9,Ticks_ISO_T2_8,102,9999,9999,9999,1011315800
209,9,Ticks_ISO_T2_8,103,9999,9999,9999,1012115532
209,9,Ticks_ISO_T2_8,104,9999,9999,9999,1012915264
209,9,Ticks_ISO_T2_8,105,9999,9999,9999,1013716048
209,9,Ticks_ISO_T2_8,106,9999,9999,9999,1014515800
209,9,Ticks_ISO_T2_8,107,9999,9999,9999,1015315532
209,9,Ticks_ISO_T2_8,108,9999,9999,9999,1016115272
209,9,Ticks_ISO_T2_8,109,9999,9999,9999,1016916044
209,9,Ticks_ISO_T2_8,110,9999,9999,9999,1017715776
209,9,Ticks_ISO_T2_8,111,9999,9999,9999,1018515516
209,9,Ticks_ISO_T2_8,112,9999,9999,9999,1019315248
209,9,Ticks_ISO_T2_8,113,9999,9999,9999,1020116020
209,9,Ticks_ISO_T2_8,114,9999,9999,9999,1020915784
209,9,Ticks_ISO_T2_8,115,9999,9999,9999,1021715508
209,9,Ticks_ISO_T2_8,116,9999,9999,9999,1022515248
209,9,Ticks_ISO_T2_8,117,9999,9999,9999,1023316024
209,9,Ticks_ISO_T2_8,118,9999,9999,9999,1024115832
209,9,Ticks_ISO_T2_8,119,9999,9999,9999,1024915568
2010,10,Ticks_ISO_T2_5,0,5,42,127,1042803084
2010,10,Ticks_ISO_T2_5,1,5,42,127,1043302928
2010,10,Ticks_ISO_T2_5,2,5,42,127,1043802404
2010,10,Ticks_ISO_T2_5,3,1,48,28,1044268612
2010,10,Ticks_ISO_T2_5,4,5,42,127,1044303216
2010,10,Ticks_ISO_T2_5,5,1,48,25,1044784860
2010,10,Ticks_ISO_T2_5,6,5,42,127,1044802968
2010,10,Ticks_ISO_T2_5,7,1,48,21,1045297536
2010,10,Ticks_ISO_T2_5,8,5,42,127,1045302792
2010,10,Ticks_ISO_T2_5,9,1,48,21,1045782124
2010,10,Ticks_ISO_T2_5,10,5,42,127,1045803292
2010,10,Ticks_ISO_T2_5,11,1,48,27,1046297332
2010,10,Ticks_ISO_T2_5,12,5,42,127,1046303040
2010,10,Ticks_ISO_T2_5,13,5,42,127,1046802872
2010,10,Ticks_ISO_T2_5,14,1,48,24,1046813008
2010,10,Ticks_ISO_T2_5,15,1,48,25,1047287876
2010,10,Ticks_ISO_T2_5,16,5,42,127,1047302692
2010,10,Ticks_ISO_T2_5,17,1,48,21,1047786276
2010,10,Ticks_ISO_T2_5,18,5,42,127,1047803336
2010,10,Ticks_ISO_T2_5,19,1,48,27,1048245756
2010,10,Ticks_ISO_T2_5,20,5,42,127,1048302868
2010,10,Ticks_ISO_T2_5,21,5,42,127,1048802624
2010,10,Ticks_ISO_T2_5,22,1,48,25,1048816788
2010,10,Ticks_ISO_T2_5,23,5,42,127,1049303616
2010,10,Ticks_ISO_T2_5,24,1,48,26,1049317036
2010,10,Ticks_ISO_T2_5,25,1,48,25,1049790612
2010,10,Ticks_ISO_T2_5,26,5,42,127,1049802964
2010,10,Ticks_ISO_T2_5,27,5,42,127,1050302868
2010,10,Ticks_ISO_T2_5,28,1,48,28,1050785648
2010,10,Ticks_ISO_T2_5,29,5,42,127,1050802712
2010,10,Ticks_ISO_T2_5,30,1,48,32,1051253220
2010,10,Ticks_ISO_T2_5,31,5,42,127,1051303356
2010,10,Ticks_ISO_T2_5,32,5,42,127,1051802968
2010,10,Ticks_ISO_T2_5,33,1,48,23,1051841472
2010,10,Ticks_ISO_T2_5,34,5,42,127,1052302716
2010,10,Ticks_ISO_T2_5,35,1,48,20,1052330620
2010,10,Ticks_ISO_T2_5,36,5,42,127,1052802468
2010,10,Ticks_ISO_T2_5,37,1,48,21,1052850236
2010,10,Ticks_ISO_T2_5,38,5,42,127,1053303112
2010,10,Ticks_ISO_T2_5,39,1,48,21,1053323552
2010,10,Ticks_ISO_T2_5,40,1,48,26,1053793864
2010,10,Ticks_ISO_T2_5,41,5,42,127,1053802784
2010,10,Ticks_ISO_T2_5,42,5,42,127,1054302544
2010,10,Ticks_ISO_T2_5,43,1,48,21,1054311404
2010,10,Ticks_ISO_T2_5,44,5,42,127,1054803412
2010,10,Ticks_ISO_T2_5,45,1,48,33,1055249608
2010,10,Ticks_ISO_T2_5,46,5,42,127,1055302956
2010,10,Ticks_ISO_T2_5,47,1,48,22,1055789232
2010,10,Ticks_ISO_T2_5,48,5,42,127,1055802704
2010,10,Ticks_ISO_T2_5,49,1,48,34,1056275692
2010,10,Ticks_ISO_T2_5,50,5,42,127,1056302384
2010,10,Ticks_ISO_T2_5,51,1,48,33,1056798440
2010,10,Ticks_ISO_T2_5,52,5,42,127,1056803324
2010,10,Ticks_ISO_T2_5,53,5,42,127,1057302784
2010,10,Ticks_ISO_T2_5,54,1,48,21,1057315012
2010,10,Ticks_ISO_T2_5,55,5,42,127,1057802760
2010,10,Ticks_ISO_T2_5,56,1,48,31,1057809084
2010,10,Ticks_ISO_T2_5,57,5,42,127,1058303332
2010,10,Ticks_ISO_T2_5,58,1,48,31,1058308012
2010,10,Ticks_ISO_T2_5,59,1,48,35,1058777284
2010,10,Ticks_ISO_T2_5,60,5,42,127,1058803300
2010,10,Ticks_ISO_T2_5,61,5,42,127,1059302760
2010,10,Ticks_ISO_T2_5,62,1,48,33,1059351420
2010,10,Ticks_ISO_T2_5,63,5,42,127,1059802436
2010,10,Ticks_ISO_T2_5,64,1,48,39,1059820184
2010,10,Ticks_ISO_T2_5,65,1,48,31,1060285092
2010,10,Ticks_ISO_T2_5,66,5,42,127,1060303200
2010,10,Ticks_ISO_T2_5,67,1,48,37,1060749752
2010,10,Ticks_ISO_T2_5,68,5,42,127,1060803024
2010,10,Ticks_ISO_T2_5,69,1,48,34,1061234120
2010,10,Ticks_ISO_T2_5,70,5,42,127,1061302628
2010,10,Ticks_ISO_T2_5,71,1,48,23,1061765160
2010,10,Ticks_ISO_T2_5,72,5,42,127,1061803424
2010,10,Ticks_ISO_T2_5,73,1,48,32,1062269992
2010,10,Ticks_ISO_T2_5,74,5,42,127,1062303248
2010,10,Ticks_ISO_T2_5,75,1,48,27,1062772500
2010,10,Ticks_ISO_T2_5,76,5,42,127,1062802924
2010,10,Ticks_ISO_T2_5,77,5,42,127,1063302384
2010,10,Ticks_ISO_T2_5,78,1,48,28,1063305348
2010,10,Ticks_ISO_T2_5,79,1,48,44,1063759084
2010,10,Ticks_ISO_T2_5,80,5,42,127,1063803172
2010,10,Ticks_ISO_T2_5,81,1,48,32,1064282652
2010,10,Ticks_ISO_T2_5,82,5,42,127,1064302924
2010,10,Ticks_ISO_T2_5,83,5,42,127,1064802828
2010,10,Ticks_ISO_T2_5,84,1,48,35,1064811692
2010,10,Ticks_ISO_T2_5,85,5,42,127,1065303400
2010,10,Ticks_ISO_T2_5,86,1,48,39,1065318312
2010,10,Ticks_ISO_T2_5,87,5,42,127,1065803076
2010,10,Ticks_ISO_T2_5,88,1,48,46,1065804040
2010,10,Ticks_ISO_T2_5,89,5,42,127,1066303048
2010,10,Ticks_ISO_T2_5,90,1,48,41,1066347908
2010,10,Ticks_ISO_T2_5,91,5,42,127,1066802432
2010,10,Ticks_ISO_T2_5,92,1,48,30,1066811744
2010,10,Ticks_ISO_T2_5,93,1,48,32,1067280488
2010,10,Ticks_ISO_T2_5,94,5,42,127,1067303216
2010,10,Ticks_ISO_T2_5,95,5,42,127,1067803052
2010,10,Ticks_ISO_T2_5,96,1,48,23,1067849180
2010,10,Ticks_ISO_T2_5,97,5,42,127,1068302804
2010,10,Ticks_ISO_T2_5,98,1,48,30,1068310772
2010,10,Ticks_ISO_T2_5,99,5,42,127,1068802476
2010,10,Ticks_ISO_T2_5,100,1,48,29,1068821200
2010,10,Ticks_ISO_T2_5,101,1,48,29,1069300772
2010,10,Ticks_ISO_T2_5,102,5,42,127,1069303120
2010,10,Ticks_ISO_T2_5,103,5,42,127,1069802952
2010,10,Ticks_ISO_T2_5,104,1,48,32,1069827128
2010,10,Ticks_ISO_T2_5,105,1,48,32,1070285912
2010,10,Ticks_ISO_T2_5,106,5,42,127,1070302696
2010,10,Ticks_ISO_T2_5,107,1,48,37,1070775432
2010,10,Ticks_ISO_T2_5,108,5,42,127,1070803168
2010,10,Ticks_ISO_T2_5,109,5,42,127,1071303000
2010,10,Ticks_ISO_T2_5,110,1,48,19,1071342656
2010,10,Ticks_ISO_T2_5,111,5,42,127,1071802676
2010,10,Ticks_ISO_T2_5,112,1,48,19,1071823560
2010,10,Ticks_ISO_T2_5,113,5,42,127,1072302648
2010,10,Ticks_ISO_T2_5,114,1,48,22,1072321820
2010,10,Ticks_ISO_T2_5,115,5,42,127,1072803144
2010,10,Ticks_ISO_T2_5,116,1,48,19,1072833964
2010,10,Ticks_ISO_T2_5,117,5,42,127,1073302820
2010,10,Ticks_ISO_T2_5,118,1,48,21,1073311460
2010,10,Ticks_ISO_T2_5,119,1,48,23,1073791480
2010,10,Ticks_ISO_T2_5,120,5,42,127,1073802716
2010,10,Ticks_ISO_T2_5,121,5,42,127,1074303664
2010,10,Ticks_ISO_T2_5,122,1,48,21,1074309096
2010,10,Ticks_ISO_T2_5,123,1,48,30,1074768360
2010,10,Ticks_ISO_T2_5,124,5,42,127,1074802964
2010,10,Ticks_ISO_T2_5,125,5,42,127,1075302868
2010,10,Ticks_ISO_T2_5,126,1,48,24,1075308076
2010,10,Ticks_ISO_T2_5,127,5,42,127,1075802544
2010,10,Ticks_ISO_T2_5,128,1,48,32,1075813124
2010,10,Ticks_ISO_T2_5,129,5,42,127,1076303268
2010,10,Ticks_ISO_T2_5,130,1,48,28,1076311536
2010,10,Ticks_ISO_T2_5,131,5,42,127,1076802868
2010,10,Ticks_ISO_T2_5,132,1,48,27,1076822412
2010,10,Ticks_ISO_T2_5,133,1,48,27,1077292796
2010,10,Ticks_ISO_T2_5,134,5,42,127,1077302688
2010,10,Ticks_ISO_T2_5,135,1,48,26,1077794712
2010,10,Ticks_ISO_T2_5,136,5,42,127,1077803412
2010,10,Ticks_ISO_T2_5,137,1,48,26,1078290884
2010,10,Ticks_ISO_T2_5,138,5,42,127,1078303016
2010,10,Ticks_ISO_T2_5,139,1,48,24,1078772192
2010,10,Ticks_ISO_T2_5,140,5,42,127,1078802692
2010,10,Ticks_ISO_T2_5,141,1,48,19,1079286720
2010,10,Ticks_ISO_T2_5,142,5,42,127,1079302368
2010,10,Ticks_ISO_T2_5,143,1,48,21,1079780056
2010,10,Ticks_ISO_T2_5,144,5,42,127,1079803164
2010,10,Ticks_ISO_T2_5,145,1,48,21,1080267384
2010,10,Ticks_ISO_T2_5,146,5,42,127,1080302912
2010,10,Ticks_ISO_T2_5,147,1,48,24,1080730396
2010,10,Ticks_ISO_T2_5,148,5,42,127,1080802664
2010,10,Ticks_ISO_T2_5,149,1,48,27,1081251060
2010,10,Ticks_ISO_T2_5,150,5,42,127,1081303608
2010,10,Ticks_ISO_T2_5,151,1,48,19,1081790084
2010,10,Ticks_ISO_T2_5,152,5,42,127,1081803112
2010,10,Ticks_ISO_T2_5,153,5,42,127,1082302792
2010,10,Ticks_ISO_T2_5,154,1,48,18,1082766384
2010,10,Ticks_ISO_T2_5,155,5,42,127,1082802560
2010,10,Ticks_ISO_T2_5,156,1,48,32,1083254484
2010,10,Ticks_ISO_T2_5,157,5,42,127,1083303280
2010,10,Ticks_ISO_T2_5,158,5,42,127,1083803260
2010,10,Ticks_ISO_T2_5,159,1,48,35,1083831912
2010,10,Ticks_ISO_T2_5,160,5,42,127,1084302564
2010,10,Ticks_ISO_T2_5,161,1,48,37,1084303976
2010,10,Ticks_ISO_T2_5,162,5,42,127,1084802392
2010,10,Ticks_ISO_T2_5,163,1,48,31,1084852624
2010,10,Ticks_ISO_T2_5,164,1,48,30,1085292540
2010,10,Ticks_ISO_T2_5,165,5,42,127,1085303180
2010,10,Ticks_ISO_T2_5,166,1,48,34,1085769372
2010,10,Ticks_ISO_T2_5,167,5,42,127,1085802932
2010,10,Ticks_ISO_T2_5,168,1,48,33,1086284648
2010,10,Ticks_ISO_T2_5,169,5,42,127,1086302680
2010,10,Ticks_ISO_T2_5,170,5,42,127,1086803188
2010,10,Ticks_ISO_T2_5,171,1,48,30,1086820492
2010,10,Ticks_ISO_T2_5,172,1,48,27,1087300820
2010,10,Ticks_ISO_T2_5,173,5,42,127,1087302932
2010,10,Ticks_ISO_T2_5,174,5,42,127,1087802912
2010,10,Ticks_ISO_T2_5,175,1,48,29,1087808568
2010,10,Ticks_ISO_T2_5,176,1,48,21,1088269916
2010,10,Ticks_ISO_T2_5,177,5,42,127,1088302508
2010,10,Ticks_ISO_T2_5,178,1,48,32,1088799764
2010,10,Ticks_ISO_T2_5,179,5,42,127,1088803228
2010,10,Ticks_ISO_T2_5,180,1,48,34,1089300796
2010,10,Ticks_ISO_T2_5,181,5,42,127,1089302832
2010,10,Ticks_ISO_T2_5,182,1,48,32,1089798816
2010,10,Ticks_ISO_T2_5,183,5,42,127,1089803028
2010,10,Ticks_ISO_T2_5,184,1,48,27,1090287512
2010,10,Ticks_ISO_T2_5,185,5,42,127,1090303376
2010,10,Ticks_ISO_T2_5,186,5,42,127,1090802984
2010,10,Ticks_ISO_T2_5,187,1,48,21,1090851052
2010,10,Ticks_ISO_T2_5,188,5,42,127,1091302884
2010,10,Ticks_ISO_T2_5,189,1,48,33,1091315332
2010,10,Ticks_ISO_T2_5,190,1,48,29,1091799388
2010,10,Ticks_ISO_T2_5,191,5,42,127,1091802556
2010,10,Ticks_ISO_T2_5,192,1,48,37,1092260656
2010,10,Ticks_ISO_T2_5,193,5,42,127,1092303180
2010,10,Ticks_ISO_T2_5,194,5,42,127,1092802936
2010,10,Ticks_ISO_T2_5,195,1,48,33,1092847588
2010,10,Ticks_ISO_T2_5,196,5,42,127,1093302688
2010,10,Ticks_ISO_T2_5,197,1,48,27,1093312600
2010,10,Ticks_ISO_T2_5,198,5,42,127,1093803484
2010,10,Ticks_ISO_T2_5,199,1,48,32,1093838408
2010,10,Ticks_ISO_T2_5,200,5,42,127,1094302936
2010,10,Ticks_ISO_T2_5,201,1,48,32,1094334420
2010,10,Ticks_ISO_T2_5,202,1,48,29,1094791296
2010,10,Ticks_ISO_T2_5,203,5,42,127,1094802752
2010,10,Ticks_ISO_T2_5,204,1,48,29,1095268944
2010,10,Ticks_ISO_T2_5,205,5,42,127,1095302504
2010,10,Ticks_ISO_T2_5,206,1,48,37,1095783176
2010,10,Ticks_ISO_T2_5,207,5,42,127,1095803372
2010,10,Ticks_ISO_T2_5,208,1,48,29,1096278676
2010,10,Ticks_ISO_T2_5,209,5,42,127,1096302828
2010,10,Ticks_ISO_T2_5,210,1,48,34,1096786636
2010,10,Ticks_ISO_T2_5,211,5,42,127,1096802652
2010,10,Ticks_ISO_T2_5,212,1,48,30,1097251968
2010,10,Ticks_ISO_T2_5,213,5,42,127,1097303448
2010,10,Ticks_ISO_T2_5,214,1,48,31,1097776804
2010,10,Ticks_ISO_T2_5,215,5,42,127,1097803048
2010,10,Ticks_ISO_T2_5,216,1,48,39,1098233468
2010,10,Ticks_ISO_T2_5,217,5,42,127,1098302872
2010,10,Ticks_ISO_T2_5,218,1,48,37,1098741656
2010,10,Ticks_ISO_T2_5,219,5,42,127,1098802476
2010,10,Ticks_ISO_T2_5,220,1,48,29,1099244392
2010,10,Ticks_ISO_T2_5,221,5,42,127,1099303568
2010,10,Ticks_ISO_T2_5,222,1,48,24,1099745116
2010,10,Ticks_ISO_T2_5,223,5,42,127,1099803172
2010,10,Ticks_ISO_T2_5,224,1,48,31,1100257864
2010,10,Ticks_ISO_T2_5,225,5,42,127,1100302628
2010,10,Ticks_ISO_T2_5,226,1,48,39,1100720100
2010,10,Ticks_ISO_T2_5,227,5,42,127,1100802524
2010,10,Ticks_ISO_T2_5,228,1,48,38,1101241132
2010,10,Ticks_ISO_T2_5,229,5,42,127,1101303172
2010,10,Ticks_ISO_T2_5,230,1,48,32,1101755892
2010,10,Ticks_ISO_T2_5,231,5,42,127,1101802920
2010,10,Ticks_ISO_T2_5,232,1,48,27,1102228840
2010,10,Ticks_ISO_T2_5,233,5,42,127,1102302596
2010,10,Ticks_ISO_T2_5,234,1,48,27,1102746132
2010,10,Ticks_ISO_T2_5,235,5,42,127,1102803216
2010,10,Ticks_ISO_T2_5,236,1,48,30,1103263556
2010,10,Ticks_ISO_T2_5,237,5,42,127,1103303092
2010,10,Ticks_ISO_T2_5,238,1,48,36,1103761964
2010,10,Ticks_ISO_T2_5,239,5,42,127,1103802844
2010,10,Ticks_ISO_T2_5,240,1,48,29,1104252084
2010,10,Ticks_ISO_T2_5,241,5,42,127,1104302372
2010,10,Ticks_ISO_T2_5,242,1,48,40,1104737500
2010,10,Ticks_ISO_T2_5,243,5,42,127,1104803164
2010,10,Ticks_ISO_T2_5,244,1,48,40,1105211564
2010,10,Ticks_ISO_T2_5,245,5,42,127,1105303140
2010,10,Ticks_ISO_T2_5,246,1,48,35,1105707652
2010,10,Ticks_ISO_T2_5,247,5,42,127,1105802656
2010,10,Ticks_ISO_T2_5,248,1,48,37,1106210020
2010,10,Ticks_ISO_T2_5,249,5,42,127,1106303892
2010,10,Ticks_ISO_T2_5,250,1,48,40,1106722312
2010,10,Ticks_ISO_T2_5,251,5,42,127,1106802992
2010,10,Ticks_ISO_T2_5,252,1,48,36,1107247232
2010,10,Ticks_ISO_T2_5,253,5,42,127,1107302892
2010,10,Ticks_ISO_T2_5,254,1,48,29,1107778044
2010,10,Ticks_ISO_T2_5,0,9999,9999,9999,1042800728
2010,10,Ticks_ISO_T2_5,1,9999,9999,9999,1043300424
2010,10,Ticks_ISO_T2_5,2,9999,9999,9999,1043800124
2010,10,Ticks_ISO_T2_5,3,9999,9999,9999,1044300860
2010,10,Ticks_ISO_T2_5,4,9999,9999,9999,1044800612
2010,10,Ticks_ISO_T2_5,5,9999,9999,9999,1045300288
2010,10,Ticks_ISO_T2_5,6,9999,9999,9999,1045801008
2010,10,Ticks_ISO_T2_5,7,9999,9999,9999,1046300760
2010,10,Ticks_ISO_T2_5,8,9999,9999,9999,1046800444
2010,10,Ticks_ISO_T2_5,9,9999,9999,9999,1047300184
2010,10,Ticks_ISO_T2_5,10,9999,9999,9999,1047800908
2010,10,Ticks_ISO_T2_5,11,9999,9999,9999,1048300656
2010,10,Ticks_ISO_T2_5,12,9999,9999,9999,1048800340
2010,10,Ticks_ISO_T2_5,13,9999,9999,9999,1049301108
2010,10,Ticks_ISO_T2_5,14,9999,9999,9999,1049800756
2010,10,Ticks_ISO_T2_5,15,9999,9999,9999,1050300512
2010,10,Ticks_ISO_T2_5,16,9999,9999,9999,1050800204
2010,10,Ticks_ISO_T2_5,17,9999,9999,9999,1051300924
2010,10,Ticks_ISO_T2_5,18,9999,9999,9999,1051800684
2010,10,Ticks_ISO_T2_5,19,9999,9999,9999,1052300360
2010,10,Ticks_ISO_T2_5,20,9999,9999,9999,1052800108
2010,10,Ticks_ISO_T2_5,21,9999,9999,9999,1053300832
2010,10,Ticks_ISO_T2_5,22,9999,9999,9999,1053800500
2010,10,Ticks_ISO_T2_5,23,9999,9999,9999,1054300256
2010,10,Ticks_ISO_T2_5,24,9999,9999,9999,1054800980
2010,10,Ticks_ISO_T2_5,25,9999,9999,9999,1055300672
2010,10,Ticks_ISO_T2_5,26,9999,9999,9999,1055800424
2010,10,Ticks_ISO_T2_5,27,9999,9999,9999,1056300100
2010,10,Ticks_ISO_T2_5,28,9999,9999,9999,1056800820
2010,10,Ticks_ISO_T2_5,29,9999,9999,9999,1057300576
2010,10,Ticks_ISO_T2_5,30,9999,9999,9999,1057800252
2010,10,Ticks_ISO_T2_5,31,9999,9999,9999,1058301048
2010,10,Ticks_ISO_T2_5,32,9999,9999,9999,1058800720
2010,10,Ticks_ISO_T2_5,33,9999,9999,9999,1059300400
2010,10,Ticks_ISO_T2_5,34,9999,9999,9999,1059800152
2010,10,Ticks_ISO_T2_5,35,9999,9999,9999,1060300916
2010,10,Ticks_ISO_T2_5,36,9999,9999,9999,1060800596
2010,10,Ticks_ISO_T2_5,37,9999,9999,9999,1061300344
2010,10,Ticks_ISO_T2_5,38,9999,9999,9999,1061801068
2010,10,Ticks_ISO_T2_5,39,9999,9999,9999,1062300744
2010,10,Ticks_ISO_T2_5,40,9999,9999,9999,1062800492
2010,10,Ticks_ISO_T2_5,41,9999,9999,9999,1063300176
2010,10,Ticks_ISO_T2_5,42,9999,9999,9999,1063800888
2010,10,Ticks_ISO_T2_5,43,9999,9999,9999,1064300640
2010,10,Ticks_ISO_T2_5,44,9999,9999,9999,1064800320
2010,10,Ticks_ISO_T2_5,45,9999,9999,9999,1065301044
2010,10,Ticks_ISO_T2_5,46,9999,9999,9999,1065800796
2010,10,Ticks_ISO_T2_5,47,9999,9999,9999,1066300468
2010,10,Ticks_ISO_T2_5,48,9999,9999,9999,1066800220
2010,10,Ticks_ISO_T2_5,49,9999,9999,9999,1067300936
2010,10,Ticks_ISO_T2_5,50,9999,9999,9999,1067800692
2010,10,Ticks_ISO_T2_5,51,9999,9999,9999,1068300372
2010,10,Ticks_ISO_T2_5,52,9999,9999,9999,1068800120
2010,10,Ticks_ISO_T2_5,53,9999,9999,9999,1069300836
2010,10,Ticks_ISO_T2_5,54,9999,9999,9999,1069800520
2010,10,Ticks_ISO_T2_5,55,9999,9999,9999,1070300264
2010,10,Ticks_ISO_T2_5,56,9999,9999,9999,1070800960
2010,10,Ticks_ISO_T2_5,57,9999,9999,9999,1071300716
2010,10,Ticks_ISO_T2_5,58,9999,9999,9999,1071800392
2010,10,Ticks_ISO_T2_5,59,9999,9999,9999,1072300144
2010,10,Ticks_ISO_T2_5,60,9999,9999,9999,1072800864
2010,10,Ticks_ISO_T2_5,61,9999,9999,9999,1073300540
2010,10,Ticks_ISO_T2_5,62,9999,9999,9999,1073800284
2010,10,Ticks_ISO_T2_5,63,9999,9999,9999,1074301012
2010,10,Ticks_ISO_T2_5,64,9999,9999,9999,1074800756
2010,10,Ticks_ISO_T2_5,65,9999,9999,9999,1075300436
2010,10,Ticks_ISO_T2_5,66,9999,9999,9999,1075800116
2010,10,Ticks_ISO_T2_5,67,9999,9999,9999,1076300912
2010,10,Ticks_ISO_T2_5,68,9999,9999,9999,1076800584
2010,10,Ticks_ISO_T2_5,69,9999,9999,9999,1077300332
2010,10,Ticks_ISO_T2_5,70,9999,9999,9999,1077801056
2010,10,Ticks_ISO_T2_5,71,9999,9999,9999,1078300732
2010,10,Ticks_ISO_T2_5,72,9999,9999,9999,1078800484
2010,10,Ticks_ISO_T2_5,73,9999,9999,9999,1079300160
2010,10,Ticks_ISO_T2_5,74,9999,9999,9999,1079800880
2010,10,Ticks_ISO_T2_5,75,9999,9999,9999,1080300632
2010,10,Ticks_ISO_T2_5,76,9999,9999,9999,1080800308
2010,10,Ticks_ISO_T2_5,77,9999,9999,9999,1081301104
2010,10,Ticks_ISO_T2_5,78,9999,9999,9999,1081800756
2010,10,Ticks_ISO_T2_5,79,9999,9999,9999,1082300512
2010,10,Ticks_ISO_T2_5,80,9999,9999,9999,1082800204
2010,10,Ticks_ISO_T2_5,81,9999,9999,9999,1083300924
2010,10,Ticks_ISO_T2_5,82,9999,9999,9999,1083800680
2010,10,Ticks_ISO_T2_5,83,9999,9999,9999,1084300356
2010,10,Ticks_ISO_T2_5,84,9999,9999,9999,1084800108
2010,10,Ticks_ISO_T2_5,85,9999,9999,9999,1085300824
2010,10,Ticks_ISO_T2_5,86,9999,9999,9999,1085800500
2010,10,Ticks_ISO_T2_5,87,9999,9999,9999,1086300248
2010,10,Ticks_ISO_T2_5,88,9999,9999,9999,1086800976
2010,10,Ticks_ISO_T2_5,89,9999,9999,9999,1087300688
2010,10,Ticks_ISO_T2_5,90,9999,9999,9999,1087800404
2010,10,Ticks_ISO_T2_5,91,9999,9999,9999,1088300152
2010,10,Ticks_ISO_T2_5,92,9999,9999,9999,1088800872
2010,10,Ticks_ISO_T2_5,93,9999,9999,9999,1089300588
2010,10,Ticks_ISO_T2_5,94,9999,9999,9999,1089800300
2010,10,Ticks_ISO_T2_5,95,9999,9999,9999,1090301020
2010,10,Ticks_ISO_T2_5,96,9999,9999,9999,1090800704
2010,10,Ticks_ISO_T2_5,97,9999,9999,9999,1091300452
2010,10,Ticks_ISO_T2_5,98,9999,9999,9999,1091800124
2010,10,Ticks_ISO_T2_5,99,9999,9999,9999,1092300896
2010,10,Ticks_ISO_T2_5,100,9999,9999,9999,1092800576
2010,10,Ticks_ISO_T2_5,101,9999,9999,9999,1093300328
2010,10,Ticks_ISO_T2_5,102,9999,9999,9999,1093801052
2010,10,Ticks_ISO_T2_5,103,9999,9999,9999,1094300724
2010,10,Ticks_ISO_T2_5,104,9999,9999,9999,1094800472
2010,10,Ticks_ISO_T2_5,105,9999,9999,9999,1095300148
2010,10,Ticks_ISO_T2_5,106,9999,9999,9999,1095800940
2010,10,Ticks_ISO_T2_5,107,9999,9999,9999,1096300620
2010,10,Ticks_ISO_T2_5,108,9999,9999,9999,1096800368
2010,10,Ticks_ISO_T2_5,109,9999,9999,9999,1097301088
2010,10,Ticks_ISO_T2_5,110,9999,9999,9999,1097800768
2010,10,Ticks_ISO_T2_5,111,9999,9999,9999,1098300516
2010,10,Ticks_ISO_T2_5,112,9999,9999,9999,1098800192
2010,10,Ticks_ISO_T2_5,113,9999,9999,9999,1099300916
2010,10,Ticks_ISO_T2_5,114,9999,9999,9999,1099800668
2010,10,Ticks_ISO_T2_5,115,9999,9999,9999,1100300344
2010,10,Ticks_ISO_T2_5,116,9999,9999,9999,1100800092
2010,10,Ticks_ISO_T2_5,117,9999,9999,9999,1101300812
2010,10,Ticks_ISO_T2_5,118,9999,9999,9999,1101800564
2010,10,Ticks_ISO_T2_5,119,9999,9999,9999,1102300240
2010,10,Ticks_ISO_T2_5,120,9999,9999,9999,1102801008
2010,10,Ticks_ISO_T2_5,121,9999,9999,9999,1103300660
2010,10,Ticks_ISO_T2_5,122,9999,9999,9999,1103800412
2010,10,Ticks_ISO_T2_5,123,9999,9999,9999,1104300088
2010,10,Ticks_ISO_T2_5,124,9999,9999,9999,1104800884
2010,10,Ticks_ISO_T2_5,125,9999,9999,9999,1105300560
2010,10,Ticks_ISO_T2_5,126,9999,9999,9999,1105800312
2010,10,Ticks_ISO_T2_5,127,9999,9999,9999,1106301032
2010,10,Ticks_ISO_T2_5,128,9999,9999,9999,1106800708
2010,10,Ticks_ISO_T2_5,129,9999,9999,9999,1107300460
2011,24,Jits_Pract_8,0,5,56,103,1177631108
2011,24,Jits_Pract_8,1,5,63,98,1177634124
2011,24,Jits_Pract_8,2,5,80,127,1177637244
2011,24,Jits_Pract_8,0,5,56,103,1178430840
2011,24,Jits_Pract_8,1,5,63,98,1178433928
2011,24,Jits_Pract_8,2,5,80,127,1178436976
2011,24,Jits_Pract_8,0,5,80,127,1179171120
2011,24,Jits_Pract_8,1,5,63,98,1179261252
2011,24,Jits_Pract_8,2,5,56,103,1179270608
2011,24,Jits_Pract_8,3,1,48,13,1179285540
2011,24,Jits_Pract_8,0,5,56,103,1179991556
2011,24,Jits_Pract_8,1,5,63,98,1180000616
2011,24,Jits_Pract_8,2,1,48,23,1180015768
2011,24,Jits_Pract_8,3,5,80,127,1180090736
2011,24,Jits_Pract_8,0,5,63,98,1180760680
2011,24,Jits_Pract_8,1,5,80,127,1180791276
2011,24,Jits_Pract_8,2,1,48,32,1180817272
2011,24,Jits_Pract_8,3,5,56,103,1180820972
2011,24,Jits_Pract_8,0,1,48,30,1181520852
2011,24,Jits_Pract_8,1,5,56,103,1181561340
2011,24,Jits_Pract_8,2,5,80,127,1181660536
2011,24,Jits_Pract_8,3,5,63,98,1181710652
2011,24,Jits_Pract_8,0,1,48,31,1182343588
2011,24,Jits_Pract_8,1,5,56,103,1182360820
2011,24,Jits_Pract_8,2,5,80,127,1182411088
2011,24,Jits_Pract_8,3,5,63,98,1182451312
2011,24,Jits_Pract_8,0,1,48,33,1183182856
2011,24,Jits_Pract_8,1,5,80,127,1183191332
2011,24,Jits_Pract_8,2,5,63,98,1183221108
2011,24,Jits_Pract_8,3,5,56,103,1183290728
2011,24,Jits_Pract_8,0,5,63,98,1184020812
2011,24,Jits_Pract_8,1,1,48,29,1184045388
2011,24,Jits_Pract_8,2,5,56,103,1184050580
2011,24,Jits_Pract_8,3,5,80,127,1184111088
2011,24,Jits_Pract_8,0,5,56,103,1184761272
2011,24,Jits_Pract_8,1,5,80,127,1184764480
2011,24,Jits_Pract_8,2,1,48,29,1184852492
2011,24,Jits_Pract_8,3,5,63,98,1184880936
2011,24,Jits_Pract_8,0,1,48,29,1185589376
2011,24,Jits_Pract_8,1,5,56,103,1185640704
2011,24,Jits_Pract_8,2,5,80,127,1185680652
2011,24,Jits_Pract_8,3,5,63,98,1185691112
2011,24,Jits_Pract_8,0,5,56,103,1186400552
2011,24,Jits_Pract_8,1,5,80,127,1186421276
2011,24,Jits_Pract_8,2,1,48,34,1186444284
2011,24,Jits_Pract_8,3,5,63,98,1186501304
2011,24,Jits_Pract_8,0,5,80,127,1187191368
2011,24,Jits_Pract_8,1,1,48,33,1187206520
2011,24,Jits_Pract_8,2,5,56,103,1187290348
2011,24,Jits_Pract_8,3,5,63,98,1187300664
2011,24,Jits_Pract_8,0,5,63,98,1187961172
2011,24,Jits_Pract_8,1,5,80,127,1188020716
2011,24,Jits_Pract_8,2,1,48,35,1188024948
2011,24,Jits_Pract_8,3,5,56,103,1188030964
2011,24,Jits_Pract_8,0,1,48,32,1188705780
2011,24,Jits_Pract_8,1,5,56,103,1188761160
2011,24,Jits_Pract_8,2,5,63,98,1188830516
2011,24,Jits_Pract_8,3,5,80,127,1188834244
2011,24,Jits_Pract_8,0,9999,9999,9999,1178028152
2011,24,Jits_Pract_8,1,9999,9999,9999,1178828876
2011,24,Jits_Pract_8,2,9999,9999,9999,1179628604
2011,24,Jits_Pract_8,3,9999,9999,9999,1180428396
2011,24,Jits_Pract_8,4,9999,9999,9999,1181228104
2011,24,Jits_Pract_8,5,9999,9999,9999,1182028852
2011,24,Jits_Pract_8,6,9999,9999,9999,1182828600
2011,24,Jits_Pract_8,7,9999,9999,9999,1183628376
2011,24,Jits_Pract_8,8,9999,9999,9999,1184428084
2011,24,Jits_Pract_8,9,9999,9999,9999,1185228912
2011,24,Jits_Pract_8,10,9999,9999,9999,1186028636
2011,24,Jits_Pract_8,11,9999,9999,9999,1186828344
2011,24,Jits_Pract_8,12,9999,9999,9999,1187628140
2011,24,Jits_Pract_8,13,9999,9999,9999,1188428896
2011,24,Jits_Pract_8,14,9999,9999,9999,1189228660
2012,24,Jits_Pract_8,0,5,56,103,1193665836
2012,24,Jits_Pract_8,1,5,63,98,1193668936
2012,24,Jits_Pract_8,2,5,80,127,1193671904
2012,24,Jits_Pract_8,0,5,56,103,1194465896
2012,24,Jits_Pract_8,1,5,63,98,1194468920
2012,24,Jits_Pract_8,2,5,80,127,1194472032
2012,24,Jits_Pract_8,0,5,80,127,1195205856
2012,24,Jits_Pract_8,1,5,63,98,1195296160
2012,24,Jits_Pract_8,2,5,56,103,1195306488
2012,24,Jits_Pract_8,0,5,56,103,1196026196
2012,24,Jits_Pract_8,1,5,63,98,1196035628
2012,24,Jits_Pract_8,2,5,80,127,1196125536
2012,24,Jits_Pract_8,0,5,63,98,1196796252
2012,24,Jits_Pract_8,1,1,48,28,1196817772
2012,24,Jits_Pract_8,2,5,80,127,1196826096
2012,24,Jits_Pract_8,3,5,56,103,1196855572
2012,24,Jits_Pract_8,0,1,48,31,1197567864
2012,24,Jits_Pract_8,1,5,56,103,1197595940
2012,24,Jits_Pract_8,2,5,80,127,1197696604
2012,24,Jits_Pract_8,3,5,63,98,1197745600
2012,24,Jits_Pract_8,0,1,48,33,1198380436
2012,24,Jits_Pract_8,1,5,56,103,1198395648
2012,24,Jits_Pract_8,2,5,80,127,1198445916
2012,24,Jits_Pract_8,3,5,63,98,1198485844
2012,24,Jits_Pract_8,0,1,48,29,1199190004
2012,24,Jits_Pract_8,1,5,80,127,1199226160
2012,24,Jits_Pract_8,2,5,63,98,1199255864
2012,24,Jits_Pract_8,3,5,56,103,1199325512
2012,24,Jits_Pract_8,0,5,63,98,1200055792
2012,24,Jits_Pract_8,1,1,48,25,1200057728
2012,24,Jits_Pract_8,2,5,56,103,1200086484
2012,24,Jits_Pract_8,3,5,80,127,1200145728
2012,24,Jits_Pract_8,0,5,56,103,1200796032
2012,24,Jits_Pract_8,1,5,80,127,1200799316
2012,24,Jits_Pract_8,2,1,48,29,1200801612
2012,24,Jits_Pract_8,3,5,63,98,1200915784
2012,24,Jits_Pract_8,0,1,48,18,1201619588
2012,24,Jits_Pract_8,1,5,56,103,1201675564
2012,24,Jits_Pract_8,2,5,80,127,1201715648
2012,24,Jits_Pract_8,3,5,63,98,1201725676
2012,24,Jits_Pract_8,0,1,48,35,1202429020
2012,24,Jits_Pract_8,1,5,56,103,1202435404
2012,24,Jits_Pract_8,2,5,80,127,1202455832
2012,24,Jits_Pract_8,3,5,63,98,1202535772
2012,24,Jits_Pract_8,0,5,80,127,1203225840
2012,24,Jits_Pract_8,1,1,48,20,1203237332
2012,24,Jits_Pract_8,2,5,56,103,1203326436
2012,24,Jits_Pract_8,3,5,63,98,1203335556
2012,24,Jits_Pract_8,0,5,63,98,1203995940
2012,24,Jits_Pract_8,1,1,48,25,1203996980
2012,24,Jits_Pract_8,2,5,80,127,1204056372
2012,24,Jits_Pract_8,3,5,56,103,1204065728
2012,24,Jits_Pract_8,0,1,48,19,1204793596
2012,24,Jits_Pract_8,1,5,56,103,1204795708
2012,24,Jits_Pract_8,2,5,63,98,1204866468
2012,24,Jits_Pract_8,3,5,80,127,1204869828
2012,24,Jits_Pract_8,0,9999,9999,9999,1194063956
2012,24,Jits_Pract_8,1,9999,9999,9999,1194863684
2012,24,Jits_Pract_8,2,9999,9999,9999,1195663432
2012,24,Jits_Pract_8,3,9999,9999,9999,1196463180
2012,24,Jits_Pract_8,4,9999,9999,9999,1197263972
2012,24,Jits_Pract_8,5,9999,9999,9999,1198063676
2012,24,Jits_Pract_8,6,9999,9999,9999,1198863452
2012,24,Jits_Pract_8,7,9999,9999,9999,1199663156
2012,24,Jits_Pract_8,8,9999,9999,9999,1200463988
2012,24,Jits_Pract_8,9,9999,9999,9999,1201263676
2012,24,Jits_Pract_8,10,9999,9999,9999,1202063472
2012,24,Jits_Pract_8,11,9999,9999,9999,1202863172
2012,24,Jits_Pract_8,12,9999,9999,9999,1203663952
2012,24,Jits_Pract_8,13,9999,9999,9999,1204463740
2012,24,Jits_Pract_8,14,9999,9999,9999,1205263428
2013,25,Jits_Pract_5,0,5,56,103,1210092984
2013,25,Jits_Pract_5,1,5,63,98,1210096000
2013,25,Jits_Pract_5,2,5,80,127,1210099048
2013,25,Jits_Pract_5,0,5,56,103,1210592552
2013,25,Jits_Pract_5,1,5,63,98,1210595500
2013,25,Jits_Pract_5,2,5,80,127,1210598916
2013,25,Jits_Pract_5,0,5,56,103,1211093264
2013,25,Jits_Pract_5,1,5,80,127,1211102472
2013,25,Jits_Pract_5,2,5,63,98,1211123196
2013,25,Jits_Pract_5,0,5,63,98,1211543092
2013,25,Jits_Pract_5,1,5,80,127,1211572568
2013,25,Jits_Pract_5,2,5,56,103,1211582972
2013,25,Jits_Pract_5,0,1,48,23,1212029308
2013,25,Jits_Pract_5,1,5,80,127,1212103092
2013,25,Jits_Pract_5,2,5,56,103,1212113296
2013,25,Jits_Pract_5,3,5,63,98,1212143056
2013,25,Jits_Pract_5,0,5,63,98,1212592476
2013,25,Jits_Pract_5,1,1,48,24,1212596636
2013,25,Jits_Pract_5,2,5,56,103,1212623164
2013,25,Jits_Pract_5,3,5,80,127,1212632372
2013,25,Jits_Pract_5,0,5,56,103,1213043028
2013,25,Jits_Pract_5,1,1,48,19,1213073820
2013,25,Jits_Pract_5,2,5,63,98,1213093216
2013,25,Jits_Pract_5,3,5,80,127,1213112892
2013,25,Jits_Pract_5,0,1,48,20,1213522140
2013,25,Jits_Pract_5,1,5,80,127,1213542876
2013,25,Jits_Pract_5,2,5,63,98,1213592920
2013,25,Jits_Pract_5,3,5,56,103,1213632924
2013,25,Jits_Pract_5,0,5,56,103,1214042352
2013,25,Jits_Pract_5,1,5,63,98,1214073172
2013,25,Jits_Pract_5,2,1,48,22,1214082872
2013,25,Jits_Pract_5,3,5,80,127,1214142952
2013,25,Jits_Pract_5,0,5,56,103,1214543328
2013,25,Jits_Pract_5,1,1,48,29,1214570296
2013,25,Jits_Pract_5,2,5,80,127,1214602792
2013,25,Jits_Pract_5,3,5,63,98,1214633312
2013,25,Jits_Pract_5,0,5,56,103,1215053060
2013,25,Jits_Pract_5,1,5,63,98,1215063388
2013,25,Jits_Pract_5,2,1,48,30,1215068892
2013,25,Jits_Pract_5,3,5,80,127,1215103252
2013,25,Jits_Pract_5,0,5,63,98,1215542892
2013,25,Jits_Pract_5,1,1,48,31,1215549816
2013,25,Jits_Pract_5,2,5,80,127,1215622696
2013,25,Jits_Pract_5,3,5,56,103,1215632948
2013,25,Jits_Pract_5,0,1,48,28,1216077400
2013,25,Jits_Pract_5,1,5,63,98,1216092692
2013,25,Jits_Pract_5,2,5,56,103,1216132564
2013,25,Jits_Pract_5,3,5,80,127,1216135476
2013,25,Jits_Pract_5,0,5,56,103,1216553264
2013,25,Jits_Pract_5,1,1,48,32,1216562324
2013,25,Jits_Pract_5,2,5,63,98,1216564108
2013,25,Jits_Pract_5,3,5,80,127,1216602636
2013,25,Jits_Pract_5,0,1,48,29,1217027948
2013,25,Jits_Pract_5,1,5,56,103,1217042864
2013,25,Jits_Pract_5,2,5,63,98,1217045848
2013,25,Jits_Pract_5,3,5,80,127,1217063360
2013,25,Jits_Pract_5,0,9999,9999,9999,1210340456
2013,25,Jits_Pract_5,1,9999,9999,9999,1210840176
2013,25,Jits_Pract_5,2,9999,9999,9999,1211340888
2013,25,Jits_Pract_5,3,9999,9999,9999,1211840600
2013,25,Jits_Pract_5,4,9999,9999,9999,1212340308
2013,25,Jits_Pract_5,5,9999,9999,9999,1212841048
2013,25,Jits_Pract_5,6,9999,9999,9999,1213340740
2013,25,Jits_Pract_5,7,9999,9999,9999,1213840448
2013,25,Jits_Pract_5,8,9999,9999,9999,1214340212
2013,25,Jits_Pract_5,9,9999,9999,9999,1214840896
2013,25,Jits_Pract_5,10,9999,9999,9999,1215340600
2013,25,Jits_Pract_5,11,9999,9999,9999,1215840308
2013,25,Jits_Pract_5,12,9999,9999,9999,1216341116
2013,25,Jits_Pract_5,13,9999,9999,9999,1216840804
2013,25,Jits_Pract_5,14,9999,9999,9999,1217340496
2014,15,Jits_Phase_8,0,5,56,103,1250284112
2014,15,Jits_Phase_8,1,5,63,98,1250287280
2014,15,Jits_Phase_8,2,5,80,127,1250290248
2014,15,Jits_Phase_8,0,5,56,103,1251083540
2014,15,Jits_Phase_8,1,5,63,98,1251086636
2014,15,Jits_Phase_8,2,5,80,127,1251089980
2014,15,Jits_Phase_8,0,1,48,27,1251770132
2014,15,Jits_Phase_8,1,5,80,127,1251824044
2014,15,Jits_Phase_8,2,5,63,98,1251914240
2014,15,Jits_Phase_8,3,5,56,103,1251924344
2014,15,Jits_Phase_8,0,5,56,103,1252644104
2014,15,Jits_Phase_8,1,5,63,98,1252653532
2014,15,Jits_Phase_8,2,1,48,33,1252706756
2014,15,Jits_Phase_8,3,5,80,127,1252743728
2014,15,Jits_Phase_8,0,5,63,98,1253414200
2014,15,Jits_Phase_8,1,5,80,127,1253444048
2014,15,Jits_Phase_8,2,1,48,20,1253468100
2014,15,Jits_Phase_8,3,5,56,103,1253473592
2014,15,Jits_Phase_8,0,1,48,28,1254181020
2014,15,Jits_Phase_8,1,5,56,103,1254213964
2014,15,Jits_Phase_8,2,5,80,127,1254314476
2014,15,Jits_Phase_8,3,5,63,98,1254363428
2014,15,Jits_Phase_8,0,5,56,103,1255013976
2014,15,Jits_Phase_8,1,5,80,127,1255063948
2014,15,Jits_Phase_8,2,5,63,98,1255103744
2014,15,Jits_Phase_8,0,1,48,29,1255814892
2014,15,Jits_Phase_8,1,5,80,127,1255844236
2014,15,Jits_Phase_8,2,5,63,98,1255873940
2014,15,Jits_Phase_8,3,5,56,103,1255943808
2014,15,Jits_Phase_8,0,1,48,24,1256666824
2014,15,Jits_Phase_8,1,5,63,98,1256673736
2014,15,Jits_Phase_8,2,5,56,103,1256704412
2014,15,Jits_Phase_8,3,5,80,127,1256763640
2014,15,Jits_Phase_8,0,5,56,103,1257413884
2014,15,Jits_Phase_8,1,5,80,127,1257416972
2014,15,Jits_Phase_8,2,1,48,32,1257428616
2014,15,Jits_Phase_8,3,5,63,98,1257533936
2014,15,Jits_Phase_8,0,1,48,34,1258195708
2014,15,Jits_Phase_8,1,5,56,103,1258294748
2014,15,Jits_Phase_8,2,5,80,127,1258333652
2014,15,Jits_Phase_8,3,5,63,98,1258343980
2014,15,Jits_Phase_8,0,5,56,103,1259053348
2014,15,Jits_Phase_8,1,1,48,41,1259054684
2014,15,Jits_Phase_8,2,5,80,127,1259073916
2014,15,Jits_Phase_8,3,5,63,98,1259153784
2014,15,Jits_Phase_8,0,5,80,127,1259843868
2014,15,Jits_Phase_8,1,1,48,35,1259885580
2014,15,Jits_Phase_8,2,5,56,103,1259944240
2014,15,Jits_Phase_8,3,5,63,98,1259953600
2014,15,Jits_Phase_8,0,5,63,98,1260613972
2014,15,Jits_Phase_8,1,5,80,127,1260674560
2014,15,Jits_Phase_8,2,1,48,43,1260681428
2014,15,Jits_Phase_8,3,5,56,103,1260683612
2014,15,Jits_Phase_8,0,1,48,39,1261264716
2014,15,Jits_Phase_8,1,5,56,103,1261413724
2014,15,Jits_Phase_8,2,5,63,98,1261484556
2014,15,Jits_Phase_8,3,5,80,127,1261487764
2014,15,Jits_Phase_8,0,1,48,28,1262122676
2014,15,Jits_Phase_8,1,5,63,98,1262244080
2014,15,Jits_Phase_8,2,5,56,103,1262294516
2014,15,Jits_Phase_8,3,5,80,127,1262297504
2014,15,Jits_Phase_8,0,1,48,43,1262945924
2014,15,Jits_Phase_8,1,5,56,103,1263004516
2014,15,Jits_Phase_8,2,5,80,127,1263007348
2014,15,Jits_Phase_8,3,5,63,98,1263094204
2014,15,Jits_Phase_8,0,1,48,43,1263706192
2014,15,Jits_Phase_8,1,5,63,98,1263843636
2014,15,Jits_Phase_8,2,5,56,103,1263933692
2014,15,Jits_Phase_8,3,5,80,127,1263963464
2014,15,Jits_Phase_8,0,1,48,21,1264617144
2014,15,Jits_Phase_8,1,5,56,103,1264634452
2014,15,Jits_Phase_8,2,5,63,98,1264733472
2014,15,Jits_Phase_8,3,5,80,127,1264764216
2014,15,Jits_Phase_8,0,1,48,24,1265441924
2014,15,Jits_Phase_8,1,5,63,98,1265453460
2014,15,Jits_Phase_8,2,5,56,103,1265463716
2014,15,Jits_Phase_8,3,5,80,127,1265553904
2014,15,Jits_Phase_8,0,1,48,35,1266223376
2014,15,Jits_Phase_8,1,5,63,98,1266273588
2014,15,Jits_Phase_8,2,5,56,103,1266353456
2014,15,Jits_Phase_8,3,5,80,127,1266356592
2014,15,Jits_Phase_8,0,1,48,38,1267019252
2014,15,Jits_Phase_8,1,5,80,127,1267033496
2014,15,Jits_Phase_8,2,5,63,98,1267054368
2014,15,Jits_Phase_8,3,5,56,103,1267114416
2014,15,Jits_Phase_8,0,1,48,34,1267859940
2014,15,Jits_Phase_8,1,5,56,103,1267874112
2014,15,Jits_Phase_8,2,5,63,98,1267893488
2014,15,Jits_Phase_8,3,5,80,127,1267896996
2014,15,Jits_Phase_8,0,5,63,98,1268613528
2014,15,Jits_Phase_8,1,1,48,34,1268679936
2014,15,Jits_Phase_8,2,5,80,127,1268694332
2014,15,Jits_Phase_8,3,5,56,103,1268703464
2014,15,Jits_Phase_8,0,1,48,28,1269406764
2014,15,Jits_Phase_8,1,5,63,98,1269433644
2014,15,Jits_Phase_8,2,5,56,103,1269454096
2014,15,Jits_Phase_8,3,5,80,127,1269504420
2014,15,Jits_Phase_8,0,5,80,127,1270233448
2014,15,Jits_Phase_8,1,1,48,37,1270244644
2014,15,Jits_Phase_8,2,5,63,98,1270274508
2014,15,Jits_Phase_8,3,5,56,103,1270293964
2014,15,Jits_Phase_8,0,5,56,103,1271074152
2014,15,Jits_Phase_8,1,1,48,38,1271077340
2014,15,Jits_Phase_8,2,5,63,98,1271084324
2014,15,Jits_Phase_8,3,5,80,127,1271103704
2014,15,Jits_Phase_8,0,5,56,103,1271804236
2014,15,Jits_Phase_8,1,1,48,27,1271839428
2014,15,Jits_Phase_8,2,5,63,98,1271894360
2014,15,Jits_Phase_8,3,5,80,127,1271953888
2014,15,Jits_Phase_8,0,1,48,31,1272632136
2014,15,Jits_Phase_8,1,5,80,127,1272633940
2014,15,Jits_Phase_8,2,5,56,103,1272644044
2014,15,Jits_Phase_8,3,5,63,98,1272713680
2014,15,Jits_Phase_8,0,1,48,41,1273337200
2014,15,Jits_Phase_8,1,5,63,98,1273464144
2014,15,Jits_Phase_8,2,5,80,127,1273554228
2014,15,Jits_Phase_8,3,5,56,103,1273563436
2014,15,Jits_Phase_8,0,1,48,42,1274190088
2014,15,Jits_Phase_8,1,5,63,98,1274194308
2014,15,Jits_Phase_8,2,5,80,127,1274243384
2014,15,Jits_Phase_8,3,5,56,103,1274304028
2014,15,Jits_Phase_8,0,5,56,103,1275013616
2014,15,Jits_Phase_8,1,1,48,40,1275038268
2014,15,Jits_Phase_8,2,5,80,127,1275063876
2014,15,Jits_Phase_8,3,5,63,98,1275084104
2014,15,Jits_Phase_8,0,5,56,103,1275783488
2014,15,Jits_Phase_8,1,1,48,22,1275811352
2014,15,Jits_Phase_8,2,5,80,127,1275843848
2014,15,Jits_Phase_8,3,5,63,98,1275913940
2014,15,Jits_Phase_8,0,5,56,103,1276584324
2014,15,Jits_Phase_8,1,1,48,32,1276595224
2014,15,Jits_Phase_8,2,5,80,127,1276614044
2014,15,Jits_Phase_8,3,5,63,98,1276643820
2014,15,Jits_Phase_8,0,1,48,37,1277346084
2014,15,Jits_Phase_8,1,5,56,103,1277423996
2014,15,Jits_Phase_8,2,5,80,127,1277443304
2014,15,Jits_Phase_8,3,5,63,98,1277503948
2014,15,Jits_Phase_8,0,1,48,40,1278189408
2014,15,Jits_Phase_8,1,5,80,127,1278303720
2014,15,Jits_Phase_8,2,5,56,103,1278313748
2014,15,Jits_Phase_8,3,5,63,98,1278324004
2014,15,Jits_Phase_8,0,1,48,39,1279040280
2014,15,Jits_Phase_8,1,5,56,103,1279064476
2014,15,Jits_Phase_8,2,5,80,127,1279104348
2014,15,Jits_Phase_8,3,5,63,98,1279134048
2014,15,Jits_Phase_8,0,5,56,103,1279833600
2014,15,Jits_Phase_8,1,1,48,29,1279834564
2014,15,Jits_Phase_8,2,5,63,98,1279864188
2014,15,Jits_Phase_8,3,5,80,127,1279904212
2014,15,Jits_Phase_8,0,5,80,127,1280583952
2014,15,Jits_Phase_8,1,5,63,98,1280634220
2014,15,Jits_Phase_8,2,1,48,40,1280637036
2014,15,Jits_Phase_8,3,5,56,103,1280653816
2014,15,Jits_Phase_8,0,1,48,41,1281344140
2014,15,Jits_Phase_8,1,5,56,103,1281413500
2014,15,Jits_Phase_8,2,5,80,127,1281484420
2014,15,Jits_Phase_8,3,5,63,98,1281543736
2014,15,Jits_Phase_8,0,1,48,34,1282165008
2014,15,Jits_Phase_8,1,5,80,127,1282214396
2014,15,Jits_Phase_8,2,5,63,98,1282304540
2014,15,Jits_Phase_8,3,5,56,103,1282323772
2014,15,Jits_Phase_8,0,5,63,98,1283033656
2014,15,Jits_Phase_8,1,1,48,27,1283051740
2014,15,Jits_Phase_8,2,5,56,103,1283053852
2014,15,Jits_Phase_8,3,5,80,127,1283093796
2014,15,Jits_Phase_8,0,5,80,127,1283794312
2014,15,Jits_Phase_8,1,5,63,98,1283813768
2014,15,Jits_Phase_8,2,1,48,36,1283830560
2014,15,Jits_Phase_8,3,5,56,103,1283893572
2014,15,Jits_Phase_8,0,5,63,98,1284583708
2014,15,Jits_Phase_8,1,1,48,33,1284598036
2014,15,Jits_Phase_8,2,5,56,103,1284694528
2014,15,Jits_Phase_8,3,5,80,127,1284697516
2014,15,Jits_Phase_8,0,1,48,37,1285364664
2014,15,Jits_Phase_8,1,5,63,98,1285404032
2014,15,Jits_Phase_8,2,5,56,103,1285414360
2014,15,Jits_Phase_8,3,5,80,127,1285417272
2014,15,Jits_Phase_8,0,5,56,103,1286184572
2014,15,Jits_Phase_8,1,1,48,36,1286208704
2014,15,Jits_Phase_8,2,5,80,127,1286304092
2014,15,Jits_Phase_8,3,5,63,98,1286344124
2014,15,Jits_Phase_8,0,5,56,103,1287003592
2014,15,Jits_Phase_8,1,1,48,31,1287021584
2014,15,Jits_Phase_8,2,5,80,127,1287084516
2014,15,Jits_Phase_8,3,5,63,98,1287103820
2014,15,Jits_Phase_8,0,1,48,37,1287799376
2014,15,Jits_Phase_8,1,5,56,103,1287804348
2014,15,Jits_Phase_8,2,5,63,98,1287913860
2014,15,Jits_Phase_8,3,5,80,127,1287917144
2014,15,Jits_Phase_8,0,1,48,40,1288588604
2014,15,Jits_Phase_8,1,5,56,103,1288644380
2014,15,Jits_Phase_8,2,5,80,127,1288673712
2014,15,Jits_Phase_8,3,5,63,98,1288694492
2014,15,Jits_Phase_8,0,1,48,40,1289416012
2014,15,Jits_Phase_8,1,5,63,98,1289433320
2014,15,Jits_Phase_8,2,5,56,103,1289443720
2014,15,Jits_Phase_8,3,5,80,127,1289453900
2014,15,Jits_Phase_8,0,1,48,28,1290219068
2014,15,Jits_Phase_8,1,5,80,127,1290224256
2014,15,Jits_Phase_8,2,5,56,103,1290274376
2014,15,Jits_Phase_8,3,5,63,98,1290314832
2014,15,Jits_Phase_8,0,5,80,127,1291044232
2014,15,Jits_Phase_8,1,1,48,33,1291057964
2014,15,Jits_Phase_8,2,5,63,98,1291063680
2014,15,Jits_Phase_8,3,5,56,103,1291113796
2014,15,Jits_Phase_8,0,1,48,39,1291848252
2014,15,Jits_Phase_8,1,5,80,127,1291854264
2014,15,Jits_Phase_8,2,5,56,103,1291884040
2014,15,Jits_Phase_8,3,5,63,98,1291953516
2014,15,Jits_Phase_8,0,1,48,42,1292667848
2014,15,Jits_Phase_8,1,5,56,103,1292704232
2014,15,Jits_Phase_8,2,5,80,127,1292714336
2014,15,Jits_Phase_8,3,5,63,98,1292754380
2014,15,Jits_Phase_8,0,5,56,103,1293413744
2014,15,Jits_Phase_8,1,5,63,98,1293434320
2014,15,Jits_Phase_8,2,5,80,127,1293503808
2014,15,Jits_Phase_8,3,1,48,42,1293539400
2014,15,Jits_Phase_8,0,1,48,27,1294174156
2014,15,Jits_Phase_8,1,5,63,98,1294233944
2014,15,Jits_Phase_8,2,5,80,127,1294294320
2014,15,Jits_Phase_8,3,5,56,103,1294313996
2014,15,Jits_Phase_8,0,5,80,127,1295023408
2014,15,Jits_Phase_8,1,5,56,103,1295054256
2014,15,Jits_Phase_8,2,5,63,98,1295084104
2014,15,Jits_Phase_8,0,1,48,29,1295734708
2014,15,Jits_Phase_8,1,5,56,103,1295824144
2014,15,Jits_Phase_8,2,5,63,98,1295883744
2014,15,Jits_Phase_8,3,5,80,127,1295944032
2014,15,Jits_Phase_8,0,1,48,38,1296544436
2014,15,Jits_Phase_8,1,5,80,127,1296643648
2014,15,Jits_Phase_8,2,5,56,103,1296663928
2014,15,Jits_Phase_8,3,5,63,98,1296733488
2014,15,Jits_Phase_8,0,1,48,31,1297397404
2014,15,Jits_Phase_8,1,5,80,127,1297444184
2014,15,Jits_Phase_8,2,5,63,98,1297463936
2014,15,Jits_Phase_8,3,5,56,103,1297494368
2014,15,Jits_Phase_8,0,5,80,127,1298233868
2014,15,Jits_Phase_8,1,1,48,38,1298249096
2014,15,Jits_Phase_8,2,5,63,98,1298254216
2014,15,Jits_Phase_8,3,5,56,103,1298313684
2014,15,Jits_Phase_8,0,5,80,127,1299033512
2014,15,Jits_Phase_8,1,1,48,38,1299082484
2014,15,Jits_Phase_8,2,5,56,103,1299133736
2014,15,Jits_Phase_8,3,5,63,98,1299163608
2014,15,Jits_Phase_8,0,5,63,98,1299824108
2014,15,Jits_Phase_8,1,5,80,127,1299874304
2014,15,Jits_Phase_8,2,5,56,103,1299893832
2014,15,Jits_Phase_8,3,1,48,39,1299929724
2014,15,Jits_Phase_8,0,1,48,44,1300650400
2014,15,Jits_Phase_8,1,5,80,127,1300663896
2014,15,Jits_Phase_8,2,5,56,103,1300694516
2014,15,Jits_Phase_8,3,5,63,98,1300697728
2014,15,Jits_Phase_8,0,1,48,35,1301438128
2014,15,Jits_Phase_8,1,5,63,98,1301513728
2014,15,Jits_Phase_8,2,5,56,103,1301553808
2014,15,Jits_Phase_8,3,5,80,127,1301574012
2014,15,Jits_Phase_8,0,1,48,26,1302213112
2014,15,Jits_Phase_8,1,5,80,127,1302274688
2014,15,Jits_Phase_8,2,5,63,98,1302354708
2014,15,Jits_Phase_8,3,5,56,103,1302394208
2014,15,Jits_Phase_8,0,1,48,37,1303058660
2014,15,Jits_Phase_8,1,5,63,98,1303093844
2014,15,Jits_Phase_8,2,5,80,127,1303173644
2014,15,Jits_Phase_8,3,5,56,103,1303193920
2014,15,Jits_Phase_8,0,1,48,27,1303890304
2014,15,Jits_Phase_8,1,5,56,103,1303934540
2014,15,Jits_Phase_8,2,5,63,98,1303943528
2014,15,Jits_Phase_8,3,5,80,127,1303984500
2014,15,Jits_Phase_8,0,1,48,33,1304645140
2014,15,Jits_Phase_8,1,5,56,103,1304654140
2014,15,Jits_Phase_8,2,5,80,127,1304657276
2014,15,Jits_Phase_8,3,5,63,98,1304793568
2014,15,Jits_Phase_8,0,5,56,103,1305443596
2014,15,Jits_Phase_8,1,5,63,98,1305533800
2014,15,Jits_Phase_8,2,5,80,127,1305603684
2014,15,Jits_Phase_8,0,1,48,33,1306240532
2014,15,Jits_Phase_8,1,5,63,98,1306324436
2014,15,Jits_Phase_8,2,5,80,127,1306327500
2014,15,Jits_Phase_8,3,5,56,103,1306383740
2014,15,Jits_Phase_8,0,1,48,42,1306994164
2014,15,Jits_Phase_8,1,5,80,127,1307163984
2014,15,Jits_Phase_8,2,5,56,103,1307183516
2014,15,Jits_Phase_8,3,5,63,98,1307193844
2014,15,Jits_Phase_8,0,1,48,50,1307742496
2014,15,Jits_Phase_8,1,5,56,103,1307873620
2014,15,Jits_Phase_8,2,5,63,98,1307884020
2014,15,Jits_Phase_8,3,5,80,127,1307953436
2014,15,Jits_Phase_8,0,1,48,39,1308515984
2014,15,Jits_Phase_8,1,5,80,127,1308674512
2014,15,Jits_Phase_8,2,5,56,103,1308723588
2014,15,Jits_Phase_8,3,5,63,98,1308773856
2014,15,Jits_Phase_8,0,1,48,47,1309496500
2014,15,Jits_Phase_8,1,5,56,103,1309553972
2014,15,Jits_Phase_8,2,5,63,98,1309564520
2014,15,Jits_Phase_8,3,5,80,127,1309604376
2014,15,Jits_Phase_8,0,1,48,45,1310291192
2014,15,Jits_Phase_8,1,5,56,103,1310294440
2014,15,Jits_Phase_8,2,5,63,98,1310334388
2014,15,Jits_Phase_8,3,5,80,127,1310383384
2014,15,Jits_Phase_8,0,1,48,49,1311045504
2014,15,Jits_Phase_8,1,5,80,127,1311054284
2014,15,Jits_Phase_8,2,5,56,103,1311104480
2014,15,Jits_Phase_8,3,5,63,98,1311123784
2014,15,Jits_Phase_8,0,1,48,45,1311862044
2014,15,Jits_Phase_8,1,5,80,127,1311864156
2014,15,Jits_Phase_8,2,5,63,98,1311923548
2014,15,Jits_Phase_8,3,5,56,103,1312003444
2014,15,Jits_Phase_8,0,5,80,127,1312643372
2014,15,Jits_Phase_8,1,1,48,44,1312679168
2014,15,Jits_Phase_8,2,5,56,103,1312684432
2014,15,Jits_Phase_8,3,5,63,98,1312703888
2014,15,Jits_Phase_8,0,1,48,44,1313478496
2014,15,Jits_Phase_8,1,5,56,103,1313494460
2014,15,Jits_Phase_8,2,5,80,127,1313503596
2014,15,Jits_Phase_8,3,5,63,98,1313543464
2014,15,Jits_Phase_8,0,1,48,51,1314217588
2014,15,Jits_Phase_8,1,5,56,103,1314363632
2014,15,Jits_Phase_8,2,5,63,98,1314403572
2014,15,Jits_Phase_8,3,5,80,127,1314407232
2014,15,Jits_Phase_8,0,5,63,98,1315033512
2014,15,Jits_Phase_8,1,5,80,127,1315074428
2014,15,Jits_Phase_8,2,1,48,39,1315136776
2014,15,Jits_Phase_8,3,5,56,103,1315144056
2014,15,Jits_Phase_8,0,1,48,37,1315755292
2014,15,Jits_Phase_8,1,5,63,98,1315803440
2014,15,Jits_Phase_8,2,5,56,103,1315884504
2014,15,Jits_Phase_8,3,5,80,127,1315943748
2014,15,Jits_Phase_8,0,1,48,46,1316523648
2014,15,Jits_Phase_8,1,5,80,127,1316613380
2014,15,Jits_Phase_8,2,5,63,98,1316663560
2014,15,Jits_Phase_8,3,5,56,103,1316694376
2014,15,Jits_Phase_8,0,1,48,44,1317333988
2014,15,Jits_Phase_8,1,5,56,103,1317404100
2014,15,Jits_Phase_8,2,5,63,98,1317454204
2014,15,Jits_Phase_8,3,5,80,127,1317464384
2014,15,Jits_Phase_8,0,1,48,53,1318104072
2014,15,Jits_Phase_8,1,5,56,103,1318213876
2014,15,Jits_Phase_8,2,5,63,98,1318323680
2014,15,Jits_Phase_8,3,5,80,127,1318343984
2014,15,Jits_Phase_8,0,1,48,48,1319010348
2014,15,Jits_Phase_8,1,5,63,98,1319013968
2014,15,Jits_Phase_8,2,5,80,127,1319064012
2014,15,Jits_Phase_8,3,5,56,103,1319154152
2014,15,Jits_Phase_8,0,1,48,45,1319741700
2014,15,Jits_Phase_8,1,5,63,98,1319804172
2014,15,Jits_Phase_8,2,5,80,127,1319833948
2014,15,Jits_Phase_8,3,5,56,103,1319924012
2014,15,Jits_Phase_8,0,1,48,48,1320555972
2014,15,Jits_Phase_8,1,5,63,98,1320604092
2014,15,Jits_Phase_8,2,5,56,103,1320614272
2014,15,Jits_Phase_8,3,5,80,127,1320713536
2014,15,Jits_Phase_8,0,1,48,52,1321372728
2014,15,Jits_Phase_8,1,5,63,98,1321504172
2014,15,Jits_Phase_8,2,5,80,127,1321533948
2014,15,Jits_Phase_8,3,5,56,103,1321563872
2014,15,Jits_Phase_8,0,1,48,50,1322154552
2014,15,Jits_Phase_8,1,5,80,127,1322324452
2014,15,Jits_Phase_8,2,5,63,98,1322333660
2014,15,Jits_Phase_8,3,5,56,103,1322364404
2014,15,Jits_Phase_8,0,1,48,45,1322955856
2014,15,Jits_Phase_8,1,5,80,127,1323023720
2014,15,Jits_Phase_8,2,5,63,98,1323044220
2014,15,Jits_Phase_8,3,5,56,103,1323094396
2014,15,Jits_Phase_8,0,1,48,35,1323798560
2014,15,Jits_Phase_8,1,5,63,98,1323854312
2014,15,Jits_Phase_8,2,5,80,127,1323913764
2014,15,Jits_Phase_8,3,5,56,103,1323934040
2014,15,Jits_Phase_8,0,5,63,98,1324614084
2014,15,Jits_Phase_8,1,1,48,38,1324657136
2014,15,Jits_Phase_8,2,5,56,103,1324664044
2014,15,Jits_Phase_8,3,5,80,127,1324674520
2014,15,Jits_Phase_8,0,1,48,45,1325394528
2014,15,Jits_Phase_8,1,5,56,103,1325443620
2014,15,Jits_Phase_8,2,5,80,127,1325453648
2014,15,Jits_Phase_8,3,5,63,98,1325553888
2014,15,Jits_Phase_8,0,5,80,127,1326204208
2014,15,Jits_Phase_8,1,5,63,98,1326213640
2014,15,Jits_Phase_8,2,1,48,42,1326231256
2014,15,Jits_Phase_8,3,5,56,103,1326363904
2014,15,Jits_Phase_8,0,5,63,98,1327014544
2014,15,Jits_Phase_8,1,5,80,127,1327054144
2014,15,Jits_Phase_8,2,1,48,40,1327070564
2014,15,Jits_Phase_8,3,5,56,103,1327133944
2014,15,Jits_Phase_8,0,5,56,103,1327763832
2014,15,Jits_Phase_8,1,1,48,39,1327858440
2014,15,Jits_Phase_8,2,5,80,127,1327864308
2014,15,Jits_Phase_8,3,5,63,98,1327883612
2014,15,Jits_Phase_8,0,5,80,127,1328584004
2014,15,Jits_Phase_8,1,5,56,103,1328594556
2014,15,Jits_Phase_8,2,1,48,39,1328620476
2014,15,Jits_Phase_8,3,5,63,98,1328684380
2014,15,Jits_Phase_8,0,5,56,103,1329383724
2014,15,Jits_Phase_8,1,5,63,98,1329404376
2014,15,Jits_Phase_8,2,1,48,41,1329420424
2014,15,Jits_Phase_8,3,5,80,127,1329484176
2014,15,Jits_Phase_8,0,1,48,40,1330121544
2014,15,Jits_Phase_8,1,5,63,98,1330134520
2014,15,Jits_Phase_8,2,5,56,103,1330223516
2014,15,Jits_Phase_8,3,5,80,127,1330226504
2014,15,Jits_Phase_8,0,1,48,44,1330870356
2014,15,Jits_Phase_8,1,5,56,103,1330963744
2014,15,Jits_Phase_8,2,5,80,127,1331024184
2014,15,Jits_Phase_8,3,5,63,98,1331033392
2014,15,Jits_Phase_8,0,1,48,50,1331598928
2014,15,Jits_Phase_8,1,5,80,127,1331813788
2014,15,Jits_Phase_8,2,5,56,103,1331824188
2014,15,Jits_Phase_8,3,5,63,98,1331827324
2014,15,Jits_Phase_8,0,1,48,31,1332453260
2014,15,Jits_Phase_8,1,5,56,103,1332573544
2014,15,Jits_Phase_8,2,5,80,127,1332583800
2014,15,Jits_Phase_8,3,5,63,98,1332604224
2014,15,Jits_Phase_8,0,1,48,35,1333253108
2014,15,Jits_Phase_8,1,5,63,98,1333343564
2014,15,Jits_Phase_8,2,5,80,127,1333403992
2014,15,Jits_Phase_8,3,5,56,103,1333454280
2014,15,Jits_Phase_8,0,1,48,40,1333999252
2014,15,Jits_Phase_8,1,5,63,98,1334224280
2014,15,Jits_Phase_8,2,5,56,103,1334233416
2014,15,Jits_Phase_8,3,5,80,127,1334283608
2014,15,Jits_Phase_8,0,1,48,38,1334817968
2014,15,Jits_Phase_8,1,5,63,98,1334923744
2014,15,Jits_Phase_8,2,5,80,127,1334944392
2014,15,Jits_Phase_8,3,5,56,103,1334954348
2014,15,Jits_Phase_8,0,1,48,44,1335621244
2014,15,Jits_Phase_8,1,5,63,98,1335724408
2014,15,Jits_Phase_8,2,5,80,127,1335727692
2014,15,Jits_Phase_8,3,5,56,103,1335764380
2014,15,Jits_Phase_8,0,1,48,32,1336407696
2014,15,Jits_Phase_8,1,5,63,98,1336593756
2014,15,Jits_Phase_8,2,5,80,127,1336623384
2014,15,Jits_Phase_8,3,5,56,103,1336633636
2014,15,Jits_Phase_8,0,1,48,43,1337298976
2014,15,Jits_Phase_8,1,5,56,103,1337344484
2014,15,Jits_Phase_8,2,5,80,127,1337374256
2014,15,Jits_Phase_8,3,5,63,98,1337404020
2014,15,Jits_Phase_8,0,1,48,40,1338168464
2014,15,Jits_Phase_8,1,5,63,98,1338243368
2014,15,Jits_Phase_8,2,5,56,103,1338284492
2014,15,Jits_Phase_8,3,5,80,127,1338287404
2014,15,Jits_Phase_8,0,5,80,127,1338944116
2014,15,Jits_Phase_8,1,1,48,33,1339008932
2014,15,Jits_Phase_8,2,5,56,103,1339023996
2014,15,Jits_Phase_8,3,5,63,98,1339073916
2014,15,Jits_Phase_8,0,5,80,127,1339724092
2014,15,Jits_Phase_8,1,5,56,103,1339743548
2014,15,Jits_Phase_8,2,5,63,98,1339833824
2014,15,Jits_Phase_8,3,1,48,36,1339838660
2014,15,Jits_Phase_8,0,5,80,127,1340564120
2014,15,Jits_Phase_8,1,5,63,98,1340603992
2014,15,Jits_Phase_8,2,5,56,103,1340643812
2014,15,Jits_Phase_8,3,1,48,33,1340651108
2014,15,Jits_Phase_8,0,5,63,98,1341373788
2014,15,Jits_Phase_8,1,1,48,41,1341395404
2014,15,Jits_Phase_8,2,5,80,127,1341434172
2014,15,Jits_Phase_8,3,5,56,103,1341464020
2014,15,Jits_Phase_8,0,5,56,103,1342213444
2014,15,Jits_Phase_8,1,5,80,127,1342244116
2014,15,Jits_Phase_8,2,1,48,41,1342283132
2014,15,Jits_Phase_8,3,5,63,98,1342334312
2014,15,Jits_Phase_8,0,5,56,103,1343023404
2014,15,Jits_Phase_8,1,1,48,36,1343117012
2014,15,Jits_Phase_8,2,5,80,127,1343134096
2014,15,Jits_Phase_8,3,5,63,98,1343163872
2014,15,Jits_Phase_8,0,1,48,41,1343860480
2014,15,Jits_Phase_8,1,5,56,103,1343874428
2014,15,Jits_Phase_8,2,5,63,98,1343933820
2014,15,Jits_Phase_8,3,5,80,127,1343963680
2014,15,Jits_Phase_8,0,5,56,103,1344643404
2014,15,Jits_Phase_8,1,5,63,98,1344713964
2014,15,Jits_Phase_8,2,1,48,41,1344722912
2014,15,Jits_Phase_8,3,5,80,127,1344733632
2014,15,Jits_Phase_8,0,5,80,127,1345413424
2014,15,Jits_Phase_8,1,1,48,37,1345422224
2014,15,Jits_Phase_8,2,5,63,98,1345434064
2014,15,Jits_Phase_8,3,5,56,103,1345484056
2014,15,Jits_Phase_8,0,1,48,29,1346151848
2014,15,Jits_Phase_8,1,5,63,98,1346233844
2014,15,Jits_Phase_8,2,5,80,127,1346243972
2014,15,Jits_Phase_8,3,5,56,103,1346294076
2014,15,Jits_Phase_8,0,1,48,31,1346894616
2014,15,Jits_Phase_8,1,5,63,98,1347033404
2014,15,Jits_Phase_8,2,5,80,127,1347104088
2014,15,Jits_Phase_8,3,5,56,103,1347123764
2014,15,Jits_Phase_8,0,1,48,35,1347665520
2014,15,Jits_Phase_8,1,5,63,98,1347863844
2014,15,Jits_Phase_8,2,5,80,127,1347867348
2014,15,Jits_Phase_8,3,5,56,103,1347933628
2014,15,Jits_Phase_8,0,1,48,25,1348437380
2014,15,Jits_Phase_8,1,5,80,127,1348613564
2014,15,Jits_Phase_8,2,5,56,103,1348633844
2014,15,Jits_Phase_8,3,5,63,98,1348644244
2014,15,Jits_Phase_8,0,1,48,37,1349189348
2014,15,Jits_Phase_8,1,5,56,103,1349433680
2014,15,Jits_Phase_8,2,5,63,98,1349523960
2014,15,Jits_Phase_8,3,5,80,127,1349527168
2014,15,Jits_Phase_8,0,1,48,20,1349963028
2014,15,Jits_Phase_8,1,5,80,127,1350203680
2014,15,Jits_Phase_8,2,5,56,103,1350213936
2014,15,Jits_Phase_8,3,5,63,98,1350233464
2014,15,Jits_Phase_8,4,1,48,17,1350662908
2014,15,Jits_Phase_8,0,5,63,98,1351003432
2014,15,Jits_Phase_8,1,5,80,127,1351063800
2014,15,Jits_Phase_8,2,5,56,103,1351074496
2014,15,Jits_Phase_8,0,1,48,37,1351529864
2014,15,Jits_Phase_8,1,5,63,98,1351873928
2014,15,Jits_Phase_8,2,5,80,127,1351903628
2014,15,Jits_Phase_8,3,5,56,103,1351943572
2014,15,Jits_Phase_8,4,1,48,27,1352260880
2014,15,Jits_Phase_8,0,5,56,103,1352664416
2014,15,Jits_Phase_8,1,5,80,127,1352673700
2014,15,Jits_Phase_8,2,5,63,98,1352713568
2014,15,Jits_Phase_8,3,1,48,36,1353050768
2014,15,Jits_Phase_8,0,5,80,127,1353424312
2014,15,Jits_Phase_8,1,5,56,103,1353504200
2014,15,Jits_Phase_8,2,5,63,98,1353514456
2014,15,Jits_Phase_8,0,1,48,41,1353902584
2014,15,Jits_Phase_8,1,5,80,127,1354274452
2014,15,Jits_Phase_8,2,5,56,103,1354354116
2014,15,Jits_Phase_8,3,5,63,98,1354364368
2014,15,Jits_Phase_8,4,1,48,28,1354659244
2014,15,Jits_Phase_8,0,5,80,127,1355113784
2014,15,Jits_Phase_8,1,5,56,103,1355164200
2014,15,Jits_Phase_8,2,5,63,98,1355214416
2014,15,Jits_Phase_8,3,1,48,32,1355295308
2014,15,Jits_Phase_8,0,1,48,29,1356047592
2014,15,Jits_Phase_8,1,5,56,103,1356054048
2014,15,Jits_Phase_8,2,5,63,98,1356057108
2014,15,Jits_Phase_8,3,5,80,127,1356104536
2014,15,Jits_Phase_8,0,1,48,45,1356866736
2014,15,Jits_Phase_8,1,5,56,103,1356874168
2014,15,Jits_Phase_8,2,5,63,98,1356903720
2014,15,Jits_Phase_8,3,5,80,127,1356914048
2014,15,Jits_Phase_8,0,5,63,98,1357583748
2014,15,Jits_Phase_8,1,5,56,103,1357654508
2014,15,Jits_Phase_8,2,1,48,40,1357688432
2014,15,Jits_Phase_8,3,5,80,127,1357703500
2014,15,Jits_Phase_8,0,5,63,98,1358414120
2014,15,Jits_Phase_8,1,1,48,47,1358423076
2014,15,Jits_Phase_8,2,5,56,103,1358424664
2014,15,Jits_Phase_8,3,5,80,127,1358427800
2014,15,Jits_Phase_8,0,5,80,127,1359163920
2014,15,Jits_Phase_8,1,1,48,44,1359201284
2014,15,Jits_Phase_8,2,5,56,103,1359224424
2014,15,Jits_Phase_8,3,5,63,98,1359314464
2014,15,Jits_Phase_8,0,5,80,127,1359963388
2014,15,Jits_Phase_8,1,1,48,40,1360019900
2014,15,Jits_Phase_8,2,5,56,103,1360063936
2014,15,Jits_Phase_8,3,5,63,98,1360103956
2014,15,Jits_Phase_8,0,5,56,103,1360813372
2014,15,Jits_Phase_8,1,5,63,98,1360834116
2014,15,Jits_Phase_8,2,1,48,41,1360853912
2014,15,Jits_Phase_8,3,5,80,127,1360874056
2014,15,Jits_Phase_8,0,5,63,98,1361583392
2014,15,Jits_Phase_8,1,5,56,103,1361603916
2014,15,Jits_Phase_8,2,1,48,40,1361610684
2014,15,Jits_Phase_8,3,5,80,127,1361704284
2014,15,Jits_Phase_8,0,1,48,44,1362342300
2014,15,Jits_Phase_8,1,5,63,98,1362373984
2014,15,Jits_Phase_8,2,5,80,127,1362483548
2014,15,Jits_Phase_8,3,5,56,103,1362514216
2014,15,Jits_Phase_8,0,1,48,48,1363128900
2014,15,Jits_Phase_8,1,5,56,103,1363194180
2014,15,Jits_Phase_8,2,5,63,98,1363224016
2014,15,Jits_Phase_8,3,5,80,127,1363274132
2014,15,Jits_Phase_8,0,1,48,40,1363914796
2014,15,Jits_Phase_8,1,5,63,98,1363964332
2014,15,Jits_Phase_8,2,5,56,103,1363993960
2014,15,Jits_Phase_8,3,5,80,127,1364044284
2014,15,Jits_Phase_8,0,1,48,41,1364657168
2014,15,Jits_Phase_8,1,5,56,103,1364793784
2014,15,Jits_Phase_8,2,5,63,98,1364814136
2014,15,Jits_Phase_8,3,5,80,127,1364893944
2014,15,Jits_Phase_8,0,1,48,38,1365459804
2014,15,Jits_Phase_8,1,5,63,98,1365563940
2014,15,Jits_Phase_8,2,5,56,103,1365624232
2014,15,Jits_Phase_8,3,5,80,127,1365653856
2014,15,Jits_Phase_8,0,1,48,29,1366312324
2014,15,Jits_Phase_8,1,5,56,103,1366403520
2014,15,Jits_Phase_8,2,5,80,127,1366463896
2014,15,Jits_Phase_8,3,5,63,98,1366503840
2014,15,Jits_Phase_8,0,1,48,46,1367103272
2014,15,Jits_Phase_8,1,5,63,98,1367183924
2014,15,Jits_Phase_8,2,5,56,103,1367244152
2014,15,Jits_Phase_8,3,5,80,127,1367313640
2014,15,Jits_Phase_8,0,1,48,43,1367937820
2014,15,Jits_Phase_8,1,5,56,103,1368064340
2014,15,Jits_Phase_8,2,5,63,98,1368073772
2014,15,Jits_Phase_8,3,5,80,127,1368076980
2014,15,Jits_Phase_8,0,1,48,48,1368742388
2014,15,Jits_Phase_8,1,5,63,98,1368803768
2014,15,Jits_Phase_8,2,5,56,103,1368864044
2014,15,Jits_Phase_8,3,5,80,127,1368867176
2014,15,Jits_Phase_8,0,1,48,45,1369489788
2014,15,Jits_Phase_8,1,5,63,98,1369583940
2014,15,Jits_Phase_8,2,5,80,127,1369613700
2014,15,Jits_Phase_8,3,5,56,103,1369634124
2014,15,Jits_Phase_8,0,1,48,40,1370279680
2014,15,Jits_Phase_8,1,5,56,103,1370314072
2014,15,Jits_Phase_8,2,5,63,98,1370364488
2014,15,Jits_Phase_8,3,5,80,127,1370444060
2014,15,Jits_Phase_8,0,5,80,127,1371013544
2014,15,Jits_Phase_8,1,5,63,98,1371053488
2014,15,Jits_Phase_8,2,1,48,40,1371064012
2014,15,Jits_Phase_8,3,5,56,103,1371073856
2014,15,Jits_Phase_8,0,1,48,35,1371826384
2014,15,Jits_Phase_8,1,5,56,103,1371883952
2014,15,Jits_Phase_8,2,5,80,127,1371894208
2014,15,Jits_Phase_8,3,5,63,98,1371913664
2014,15,Jits_Phase_8,0,1,48,29,1372579408
2014,15,Jits_Phase_8,1,5,56,103,1372664432
2014,15,Jits_Phase_8,2,5,63,98,1372714388
2014,15,Jits_Phase_8,3,5,80,127,1372744164
2014,15,Jits_Phase_8,0,1,48,35,1373262148
2014,15,Jits_Phase_8,1,5,56,103,1373413640
2014,15,Jits_Phase_8,2,5,63,98,1373423972
2014,15,Jits_Phase_8,3,5,80,127,1373474308
2014,15,Jits_Phase_8,0,1,48,17,1374034604
2014,15,Jits_Phase_8,1,5,56,103,1374204500
2014,15,Jits_Phase_8,2,5,80,127,1374207412
2014,15,Jits_Phase_8,3,5,63,98,1374363888
2014,15,Jits_Phase_8,0,1,48,13,1374889932
2014,15,Jits_Phase_8,1,5,63,98,1375023568
2014,15,Jits_Phase_8,2,5,56,103,1375094400
2014,15,Jits_Phase_8,3,5,80,127,1375134348
2014,15,Jits_Phase_8,0,5,63,98,1375864280
2014,15,Jits_Phase_8,1,5,56,103,1375954284
2014,15,Jits_Phase_8,2,5,80,127,1375957344
2014,15,Jits_Phase_8,0,1,48,34,1376601604
2014,15,Jits_Phase_8,1,5,56,103,1376643436
2014,15,Jits_Phase_8,2,5,63,98,1376733432
2014,15,Jits_Phase_8,3,5,80,127,1376743908
2014,15,Jits_Phase_8,0,5,56,103,1377413532
2014,15,Jits_Phase_8,1,1,48,48,1377420224
2014,15,Jits_Phase_8,2,5,63,98,1377463644
2014,15,Jits_Phase_8,3,5,80,127,1377494412
2014,15,Jits_Phase_8,0,1,48,48,1378225180
2014,15,Jits_Phase_8,1,5,63,98,1378294336
2014,15,Jits_Phase_8,2,5,80,127,1378304444
2014,15,Jits_Phase_8,3,5,56,103,1378363748
2014,15,Jits_Phase_8,0,1,48,38,1379012208
2014,15,Jits_Phase_8,1,5,63,98,1379014016
2014,15,Jits_Phase_8,2,5,80,127,1379074380
2014,15,Jits_Phase_8,3,5,56,103,1379114460
2014,15,Jits_Phase_8,0,1,48,43,1379807700
2014,15,Jits_Phase_8,1,5,56,103,1379914224
2014,15,Jits_Phase_8,2,5,80,127,1379933456
2014,15,Jits_Phase_8,3,5,63,98,1379954104
2014,15,Jits_Phase_8,0,1,48,44,1380617356
2014,15,Jits_Phase_8,1,5,63,98,1380634064
2014,15,Jits_Phase_8,2,5,56,103,1380653368
2014,15,Jits_Phase_8,3,5,80,127,1380694284
2014,15,Jits_Phase_8,0,1,48,49,1381389896
2014,15,Jits_Phase_8,1,5,63,98,1381444156
2014,15,Jits_Phase_8,2,5,80,127,1381473636
2014,15,Jits_Phase_8,3,5,56,103,1381494120
2014,15,Jits_Phase_8,0,1,48,48,1382183104
2014,15,Jits_Phase_8,1,5,80,127,1382214088
2014,15,Jits_Phase_8,2,5,56,103,1382264280
2014,15,Jits_Phase_8,3,5,63,98,1382323512
2014,15,Jits_Phase_8,0,1,48,30,1382982736
2014,15,Jits_Phase_8,1,5,63,98,1383003548
2014,15,Jits_Phase_8,2,5,56,103,1383124280
2014,15,Jits_Phase_8,3,5,80,127,1383153980
2014,15,Jits_Phase_8,0,1,48,45,1383795220
2014,15,Jits_Phase_8,1,5,80,127,1383844236
2014,15,Jits_Phase_8,2,5,63,98,1383863768
2014,15,Jits_Phase_8,3,5,56,103,1383934308
2014,15,Jits_Phase_8,0,1,48,41,1384649020
2014,15,Jits_Phase_8,1,5,63,98,1384664384
2014,15,Jits_Phase_8,2,5,56,103,1384673816
2014,15,Jits_Phase_8,3,5,80,127,1384753684
2014,15,Jits_Phase_8,0,1,48,48,1385422328
2014,15,Jits_Phase_8,1,5,56,103,1385523460
2014,15,Jits_Phase_8,2,5,80,127,1385554428
2014,15,Jits_Phase_8,3,5,63,98,1385563416
2014,15,Jits_Phase_8,0,9999,9999,9999,1250681976
2014,15,Jits_Phase_8,1,9999,9999,9999,1251481708
2014,15,Jits_Phase_8,2,9999,9999,9999,1252281440
2014,15,Jits_Phase_8,3,9999,9999,9999,1253081168
2014,15,Jits_Phase_8,4,9999,9999,9999,1253881924
2014,15,Jits_Phase_8,5,9999,9999,9999,1254681704
2014,15,Jits_Phase_8,6,9999,9999,9999,1255481428
2014,15,Jits_Phase_8,7,9999,9999,9999,1256281160
2014,15,Jits_Phase_8,8,9999,9999,9999,1257081920
2014,15,Jits_Phase_8,9,9999,9999,9999,1257881680
2014,15,Jits_Phase_8,10,9999,9999,9999,1258681408
2014,15,Jits_Phase_8,11,9999,9999,9999,1259481140
2014,15,Jits_Phase_8,12,9999,9999,9999,1260281908
2014,15,Jits_Phase_8,13,9999,9999,9999,1261081696
2014,15,Jits_Phase_8,14,9999,9999,9999,1261881464
2014,15,Jits_Phase_8,15,9999,9999,9999,1262681156
2014,15,Jits_Phase_8,16,9999,9999,9999,1263481960
2014,15,Jits_Phase_8,17,9999,9999,9999,1264281668
2014,15,Jits_Phase_8,18,9999,9999,9999,1265081452
2014,15,Jits_Phase_8,19,9999,9999,9999,1265881184
2014,15,Jits_Phase_8,20,9999,9999,9999,1266681932
2014,15,Jits_Phase_8,21,9999,9999,9999,1267481708
2014,15,Jits_Phase_8,22,9999,9999,9999,1268281404
2014,15,Jits_Phase_8,23,9999,9999,9999,1269081184
2014,15,Jits_Phase_8,24,9999,9999,9999,1269881928
2014,15,Jits_Phase_8,25,9999,9999,9999,1270681704
2014,15,Jits_Phase_8,26,9999,9999,9999,1271481424
2014,15,Jits_Phase_8,27,9999,9999,9999,1272281168
2014,15,Jits_Phase_8,28,9999,9999,9999,1273081928
2014,15,Jits_Phase_8,29,9999,9999,9999,1273881716
2014,15,Jits_Phase_8,30,9999,9999,9999,1274661972
2014,15,Jits_Phase_8,31,9999,9999,9999,1275461748
2014,15,Jits_Phase_8,32,9999,9999,9999,1276261464
2014,15,Jits_Phase_8,33,9999,9999,9999,1277061176
2014,15,Jits_Phase_8,34,9999,9999,9999,1277862016
2014,15,Jits_Phase_8,35,9999,9999,9999,1278661752
2014,15,Jits_Phase_8,36,9999,9999,9999,1279461464
2014,15,Jits_Phase_8,37,9999,9999,9999,1280261240
2014,15,Jits_Phase_8,38,9999,9999,9999,1281062000
2014,15,Jits_Phase_8,39,9999,9999,9999,1281861720
2014,15,Jits_Phase_8,40,9999,9999,9999,1282661496
2014,15,Jits_Phase_8,41,9999,9999,9999,1283461196
2014,15,Jits_Phase_8,42,9999,9999,9999,1284262016
2014,15,Jits_Phase_8,43,9999,9999,9999,1285061748
2014,15,Jits_Phase_8,44,9999,9999,9999,1285861432
2014,15,Jits_Phase_8,45,9999,9999,9999,1286661208
2014,15,Jits_Phase_8,46,9999,9999,9999,1287461972
2014,15,Jits_Phase_8,47,9999,9999,9999,1288261756
2014,15,Jits_Phase_8,48,9999,9999,9999,1289081952
2014,15,Jits_Phase_8,49,9999,9999,9999,1289881724
2014,15,Jits_Phase_8,50,9999,9999,9999,1290681424
2014,15,Jits_Phase_8,51,9999,9999,9999,1291481148
2014,15,Jits_Phase_8,52,9999,9999,9999,1292281916
2014,15,Jits_Phase_8,53,9999,9999,9999,1293081696
2014,15,Jits_Phase_8,54,9999,9999,9999,1293881396
2014,15,Jits_Phase_8,55,9999,9999,9999,1294681188
2014,15,Jits_Phase_8,56,9999,9999,9999,1295481956
2014,15,Jits_Phase_8,57,9999,9999,9999,1296281680
2014,15,Jits_Phase_8,58,9999,9999,9999,1297081460
2014,15,Jits_Phase_8,59,9999,9999,9999,1297881180
2014,15,Jits_Phase_8,60,9999,9999,9999,1298681928
2014,15,Jits_Phase_8,61,9999,9999,9999,1299481724
2014,15,Jits_Phase_8,62,9999,9999,9999,1300281444
2014,15,Jits_Phase_8,63,9999,9999,9999,1301081212
2014,15,Jits_Phase_8,64,9999,9999,9999,1301921908
2014,15,Jits_Phase_8,65,9999,9999,9999,1302721616
2014,15,Jits_Phase_8,66,9999,9999,9999,1303521348
2014,15,Jits_Phase_8,67,9999,9999,9999,1304321132
2014,15,Jits_Phase_8,68,9999,9999,9999,1305121868
2014,15,Jits_Phase_8,69,9999,9999,9999,1305921592
2014,15,Jits_Phase_8,70,9999,9999,9999,1306721388
2014,15,Jits_Phase_8,71,9999,9999,9999,1307521100
2014,15,Jits_Phase_8,72,9999,9999,9999,1308321896
2014,15,Jits_Phase_8,73,9999,9999,9999,1309121600
2014,15,Jits_Phase_8,74,9999,9999,9999,1309921340
2014,15,Jits_Phase_8,75,9999,9999,9999,1310721120
2014,15,Jits_Phase_8,76,9999,9999,9999,1311521868
2014,15,Jits_Phase_8,77,9999,9999,9999,1312321648
2014,15,Jits_Phase_8,78,9999,9999,9999,1313121396
2014,15,Jits_Phase_8,79,9999,9999,9999,1313921112
2014,15,Jits_Phase_8,80,9999,9999,9999,1314721856
2014,15,Jits_Phase_8,81,9999,9999,9999,1315481692
2014,15,Jits_Phase_8,82,9999,9999,9999,1316281468
2014,15,Jits_Phase_8,83,9999,9999,9999,1317081188
2014,15,Jits_Phase_8,84,9999,9999,9999,1317881928
2014,15,Jits_Phase_8,85,9999,9999,9999,1318681708
2014,15,Jits_Phase_8,86,9999,9999,9999,1319481408
2014,15,Jits_Phase_8,87,9999,9999,9999,1320281180
2014,15,Jits_Phase_8,88,9999,9999,9999,1321081920
2014,15,Jits_Phase_8,89,9999,9999,9999,1321881704
2014,15,Jits_Phase_8,90,9999,9999,9999,1322681416
2014,15,Jits_Phase_8,91,9999,9999,9999,1323481208
2014,15,Jits_Phase_8,92,9999,9999,9999,1324281960
2014,15,Jits_Phase_8,93,9999,9999,9999,1325081660
2014,15,Jits_Phase_8,94,9999,9999,9999,1325881440
2014,15,Jits_Phase_8,95,9999,9999,9999,1326681212
2014,15,Jits_Phase_8,96,9999,9999,9999,1327481976
2014,15,Jits_Phase_8,97,9999,9999,9999,1328201804
2014,15,Jits_Phase_8,98,9999,9999,9999,1329001528
2014,15,Jits_Phase_8,99,9999,9999,9999,1329801320
2014,15,Jits_Phase_8,100,9999,9999,9999,1330602072
2014,15,Jits_Phase_8,101,9999,9999,9999,1331401804
2014,15,Jits_Phase_8,102,9999,9999,9999,1332201576
2014,15,Jits_Phase_8,103,9999,9999,9999,1333001280
2014,15,Jits_Phase_8,104,9999,9999,9999,1333802104
2014,15,Jits_Phase_8,105,9999,9999,9999,1334601812
2014,15,Jits_Phase_8,106,9999,9999,9999,1335401584
2014,15,Jits_Phase_8,107,9999,9999,9999,1336201272
2014,15,Jits_Phase_8,108,9999,9999,9999,1337002096
2014,15,Jits_Phase_8,109,9999,9999,9999,1337801824
2014,15,Jits_Phase_8,110,9999,9999,9999,1338601528
2014,15,Jits_Phase_8,111,9999,9999,9999,1339401308
2014,15,Jits_Phase_8,112,9999,9999,9999,1340202064
2014,15,Jits_Phase_8,113,9999,9999,9999,1341001784
2014,15,Jits_Phase_8,114,9999,9999,9999,1341881452
2014,15,Jits_Phase_8,115,9999,9999,9999,1342681172
2014,15,Jits_Phase_8,116,9999,9999,9999,1343481940
2014,15,Jits_Phase_8,117,9999,9999,9999,1344281660
2014,15,Jits_Phase_8,118,9999,9999,9999,1345081440
2014,15,Jits_Phase_8,119,9999,9999,9999,1345881148
2014,15,Jits_Phase_8,120,9999,9999,9999,1346681980
2014,15,Jits_Phase_8,121,9999,9999,9999,1347481684
2014,15,Jits_Phase_8,122,9999,9999,9999,1348281448
2014,15,Jits_Phase_8,123,9999,9999,9999,1349081160
2014,15,Jits_Phase_8,124,9999,9999,9999,1349881976
2014,15,Jits_Phase_8,125,9999,9999,9999,1350681664
2014,15,Jits_Phase_8,126,9999,9999,9999,1351481428
2014,15,Jits_Phase_8,127,9999,9999,9999,1352281144
2014,15,Jits_Phase_8,128,9999,9999,9999,1353081948
2014,15,Jits_Phase_8,129,9999,9999,9999,1353881720
2014,15,Jits_Phase_8,130,9999,9999,9999,1354681448
2014,15,Jits_Phase_8,131,9999,9999,9999,1355641936
2014,15,Jits_Phase_8,132,9999,9999,9999,1356441652
2014,15,Jits_Phase_8,133,9999,9999,9999,1357241436
2014,15,Jits_Phase_8,134,9999,9999,9999,1358041160
2014,15,Jits_Phase_8,135,9999,9999,9999,1358841972
2014,15,Jits_Phase_8,136,9999,9999,9999,1359641720
2014,15,Jits_Phase_8,137,9999,9999,9999,1360441444
2014,15,Jits_Phase_8,138,9999,9999,9999,1361241160
2014,15,Jits_Phase_8,139,9999,9999,9999,1362041920
2014,15,Jits_Phase_8,140,9999,9999,9999,1362841696
2014,15,Jits_Phase_8,141,9999,9999,9999,1363641400
2014,15,Jits_Phase_8,142,9999,9999,9999,1364441192
2014,15,Jits_Phase_8,143,9999,9999,9999,1365241940
2014,15,Jits_Phase_8,144,9999,9999,9999,1366041712
2014,15,Jits_Phase_8,145,9999,9999,9999,1366841416
2014,15,Jits_Phase_8,146,9999,9999,9999,1367641192
2014,15,Jits_Phase_8,147,9999,9999,9999,1368441936
2014,15,Jits_Phase_8,148,9999,9999,9999,1369241704
2014,15,Jits_Phase_8,149,9999,9999,9999,1370041400
2014,15,Jits_Phase_8,150,9999,9999,9999,1370681420
2014,15,Jits_Phase_8,151,9999,9999,9999,1371481192
2014,15,Jits_Phase_8,152,9999,9999,9999,1372281956
2014,15,Jits_Phase_8,153,9999,9999,9999,1373081664
2014,15,Jits_Phase_8,154,9999,9999,9999,1373881436
2014,15,Jits_Phase_8,155,9999,9999,9999,1374681148
2014,15,Jits_Phase_8,156,9999,9999,9999,1375481972
2014,15,Jits_Phase_8,157,9999,9999,9999,1376281688
2014,15,Jits_Phase_8,158,9999,9999,9999,1377081412
2014,15,Jits_Phase_8,159,9999,9999,9999,1377881184
2014,15,Jits_Phase_8,160,9999,9999,9999,1378681952
2014,15,Jits_Phase_8,161,9999,9999,9999,1379481724
2014,15,Jits_Phase_8,162,9999,9999,9999,1380281436
2014,15,Jits_Phase_8,163,9999,9999,9999,1381081156
2014,15,Jits_Phase_8,164,9999,9999,9999,1381881976
2014,15,Jits_Phase_8,165,9999,9999,9999,1382681680
2014,15,Jits_Phase_8,166,9999,9999,9999,1383481460
2014,15,Jits_Phase_8,167,9999,9999,9999,1384281160
2014,15,Jits_Phase_8,168,9999,9999,9999,1385081908
2014,15,Jits_Phase_8,169,9999,9999,9999,1385881696
2015,17,Jits_Phase_5,0,5,56,103,1398355444
2015,17,Jits_Phase_5,1,5,63,98,1398358388
2015,17,Jits_Phase_5,2,5,80,127,1398361580
2015,17,Jits_Phase_5,0,5,56,103,1398855076
2015,17,Jits_Phase_5,1,5,63,98,1398858092
2015,17,Jits_Phase_5,2,5,80,127,1398861360
2015,17,Jits_Phase_5,3,1,48,28,1398994560
2015,17,Jits_Phase_5,0,5,56,103,1399354692
2015,17,Jits_Phase_5,1,1,48,28,1399364648
2015,17,Jits_Phase_5,2,5,80,127,1399366352
2015,17,Jits_Phase_5,3,5,63,98,1399384392
2015,17,Jits_Phase_5,0,5,63,98,1399805316
2015,17,Jits_Phase_5,1,1,48,37,1399812332
2015,17,Jits_Phase_5,2,5,80,127,1399835156
2015,17,Jits_Phase_5,3,5,56,103,1399845336
2015,17,Jits_Phase_5,0,1,48,37,1400252536
2015,17,Jits_Phase_5,1,5,80,127,1400365476
2015,17,Jits_Phase_5,2,5,56,103,1400374688
2015,17,Jits_Phase_5,3,5,63,98,1400405356
2015,17,Jits_Phase_5,0,5,63,98,1400855084
2015,17,Jits_Phase_5,1,1,48,35,1400884108
2015,17,Jits_Phase_5,2,5,56,103,1400885968
2015,17,Jits_Phase_5,3,5,80,127,1400895180
2015,17,Jits_Phase_5,0,5,56,103,1401304500
2015,17,Jits_Phase_5,1,1,48,31,1401354544
2015,17,Jits_Phase_5,2,5,63,98,1401356176
2015,17,Jits_Phase_5,3,5,80,127,1401375036
2015,17,Jits_Phase_5,0,1,48,34,1401801008
2015,17,Jits_Phase_5,1,5,80,127,1401805304
2015,17,Jits_Phase_5,2,5,63,98,1401855272
2015,17,Jits_Phase_5,3,5,56,103,1401895364
2015,17,Jits_Phase_5,0,5,56,103,1402304984
2015,17,Jits_Phase_5,1,5,63,98,1402334536
2015,17,Jits_Phase_5,2,1,48,22,1402358068
2015,17,Jits_Phase_5,3,5,80,127,1402405360
2015,17,Jits_Phase_5,0,1,48,40,1402796388
2015,17,Jits_Phase_5,1,5,56,103,1402804720
2015,17,Jits_Phase_5,2,5,80,127,1402865180
2015,17,Jits_Phase_5,3,5,63,98,1402894640
2015,17,Jits_Phase_5,0,5,56,103,1403314500
2015,17,Jits_Phase_5,1,1,48,37,1403316060
2015,17,Jits_Phase_5,2,5,63,98,1403324920
2015,17,Jits_Phase_5,3,5,80,127,1403364640
2015,17,Jits_Phase_5,0,1,48,42,1403781684
2015,17,Jits_Phase_5,1,5,63,98,1403805128
2015,17,Jits_Phase_5,2,5,80,127,1403885020
2015,17,Jits_Phase_5,3,5,56,103,1403895276
2015,17,Jits_Phase_5,0,1,48,39,1404308664
2015,17,Jits_Phase_5,1,5,63,98,1404355088
2015,17,Jits_Phase_5,2,5,56,103,1404395036
2015,17,Jits_Phase_5,3,5,80,127,1404398096
2015,17,Jits_Phase_5,0,5,56,103,1404814804
2015,17,Jits_Phase_5,1,1,48,31,1404815840
2015,17,Jits_Phase_5,2,5,63,98,1404824828
2015,17,Jits_Phase_5,3,5,80,127,1404864868
2015,17,Jits_Phase_5,0,5,56,103,1405305140
2015,17,Jits_Phase_5,1,1,48,26,1405306644
2015,17,Jits_Phase_5,2,5,63,98,1405309460
2015,17,Jits_Phase_5,3,5,80,127,1405324884
2015,17,Jits_Phase_5,0,1,48,35,1405779200
2015,17,Jits_Phase_5,1,5,80,127,1405815280
2015,17,Jits_Phase_5,2,5,56,103,1405825460
2015,17,Jits_Phase_5,3,5,63,98,1405895032
2015,17,Jits_Phase_5,0,5,63,98,1406304936
2015,17,Jits_Phase_5,1,5,56,103,1406325064
2015,17,Jits_Phase_5,2,1,48,37,1406328404
2015,17,Jits_Phase_5,3,5,80,127,1406405036
2015,17,Jits_Phase_5,0,1,48,44,1406812672
2015,17,Jits_Phase_5,1,5,56,103,1406814480
2015,17,Jits_Phase_5,2,5,80,127,1406854796
2015,17,Jits_Phase_5,3,5,63,98,1406864976
2015,17,Jits_Phase_5,0,1,48,49,1407299160
2015,17,Jits_Phase_5,1,5,80,127,1407304952
2015,17,Jits_Phase_5,2,5,63,98,1407334728
2015,17,Jits_Phase_5,3,5,56,103,1407374744
2015,17,Jits_Phase_5,0,1,48,35,1407816720
2015,17,Jits_Phase_5,1,5,56,103,1407825196
2015,17,Jits_Phase_5,2,5,63,98,1407854968
2015,17,Jits_Phase_5,3,5,80,127,1407905304
2015,17,Jits_Phase_5,0,1,48,42,1408309584
2015,17,Jits_Phase_5,1,5,80,127,1408324948
2015,17,Jits_Phase_5,2,5,56,103,1408364816
2015,17,Jits_Phase_5,3,5,63,98,1408375144
2015,17,Jits_Phase_5,0,1,48,39,1408790932
2015,17,Jits_Phase_5,1,5,80,127,1408805176
2015,17,Jits_Phase_5,2,5,63,98,1408845048
2015,17,Jits_Phase_5,3,5,56,103,1408904572
2015,17,Jits_Phase_5,0,5,56,103,1409305008
2015,17,Jits_Phase_5,1,1,48,41,1409311784
2015,17,Jits_Phase_5,2,5,80,127,1409315104
2015,17,Jits_Phase_5,3,5,63,98,1409394984
2015,17,Jits_Phase_5,0,5,80,127,1409804696
2015,17,Jits_Phase_5,1,1,48,38,1409830020
2015,17,Jits_Phase_5,2,5,63,98,1409865200
2015,17,Jits_Phase_5,3,5,56,103,1409894676
2015,17,Jits_Phase_5,0,5,56,103,1410305652
2015,17,Jits_Phase_5,1,1,48,38,1410361640
2015,17,Jits_Phase_5,2,5,80,127,1410364740
2015,17,Jits_Phase_5,3,5,63,98,1410404832
2015,17,Jits_Phase_5,0,1,48,29,1410833592
2015,17,Jits_Phase_5,1,5,56,103,1410864652
2015,17,Jits_Phase_5,2,5,63,98,1410874680
2015,17,Jits_Phase_5,3,5,80,127,1410878112
2015,17,Jits_Phase_5,0,5,80,127,1411315108
2015,17,Jits_Phase_5,1,1,48,42,1411320316
2015,17,Jits_Phase_5,2,5,63,98,1411405160
2015,17,Jits_Phase_5,3,5,56,103,1411415560
2015,17,Jits_Phase_5,0,1,48,39,1411796224
2015,17,Jits_Phase_5,1,5,56,103,1411814700
2015,17,Jits_Phase_5,2,5,63,98,1411817724
2015,17,Jits_Phase_5,3,5,80,127,1411820992
2015,17,Jits_Phase_5,0,1,48,37,1412311348
2015,17,Jits_Phase_5,1,5,80,127,1412334868
2015,17,Jits_Phase_5,2,5,63,98,1412384984
2015,17,Jits_Phase_5,3,5,56,103,1412414816
2015,17,Jits_Phase_5,0,5,56,103,1412815400
2015,17,Jits_Phase_5,1,5,80,127,1412824684
2015,17,Jits_Phase_5,2,1,48,33,1412860548
2015,17,Jits_Phase_5,3,5,63,98,1412895208
2015,17,Jits_Phase_5,0,5,56,103,1413325036
2015,17,Jits_Phase_5,1,5,63,98,1413344564
2015,17,Jits_Phase_5,2,1,48,33,1413360312
2015,17,Jits_Phase_5,3,5,80,127,1413404992
2015,17,Jits_Phase_5,0,5,80,127,1413805404
2015,17,Jits_Phase_5,1,1,48,44,1413813760
2015,17,Jits_Phase_5,2,5,63,98,1413874984
2015,17,Jits_Phase_5,3,5,56,103,1413894512
2015,17,Jits_Phase_5,0,1,48,40,1414317024
2015,17,Jits_Phase_5,1,5,80,127,1414324532
2015,17,Jits_Phase_5,2,5,56,103,1414334884
2015,17,Jits_Phase_5,3,5,63,98,1414345064
2015,17,Jits_Phase_5,0,5,80,127,1414815160
2015,17,Jits_Phase_5,1,1,48,38,1414830836
2015,17,Jits_Phase_5,2,5,56,103,1414834684
2015,17,Jits_Phase_5,3,5,63,98,1414905612
2015,17,Jits_Phase_5,0,5,56,103,1415325100
2015,17,Jits_Phase_5,1,1,48,41,1415341820
2015,17,Jits_Phase_5,2,5,80,127,1415354744
2015,17,Jits_Phase_5,3,5,63,98,1415375316
2015,17,Jits_Phase_5,0,5,63,98,1415814464
2015,17,Jits_Phase_5,1,1,48,29,1415840532
2015,17,Jits_Phase_5,2,5,56,103,1415874996
2015,17,Jits_Phase_5,3,5,80,127,1415904544
2015,17,Jits_Phase_5,0,5,63,98,1416304940
2015,17,Jits_Phase_5,1,5,80,127,1416308372
2015,17,Jits_Phase_5,2,1,48,37,1416317548
2015,17,Jits_Phase_5,3,5,56,103,1416395232
2015,17,Jits_Phase_5,0,1,48,42,1416793356
2015,17,Jits_Phase_5,1,5,56,103,1416825388
2015,17,Jits_Phase_5,2,5,63,98,1416854792
2015,17,Jits_Phase_5,3,5,80,127,1416894744
2015,17,Jits_Phase_5,0,1,48,46,1417286672
2015,17,Jits_Phase_5,1,5,63,98,1417324768
2015,17,Jits_Phase_5,2,5,56,103,1417364788
2015,17,Jits_Phase_5,3,5,80,127,1417385496
2015,17,Jits_Phase_5,0,1,48,45,1417803480
2015,17,Jits_Phase_5,1,5,63,98,1417834840
2015,17,Jits_Phase_5,2,5,56,103,1417874784
2015,17,Jits_Phase_5,3,5,80,127,1417885188
2015,17,Jits_Phase_5,0,5,80,127,1418315300
2015,17,Jits_Phase_5,1,1,48,40,1418317812
2015,17,Jits_Phase_5,2,5,63,98,1418384708
2015,17,Jits_Phase_5,3,5,56,103,1418405428
2015,17,Jits_Phase_5,0,5,56,103,1418804448
2015,17,Jits_Phase_5,1,5,80,127,1418825172
2015,17,Jits_Phase_5,2,1,48,35,1418830448
2015,17,Jits_Phase_5,3,5,63,98,1418864960
2015,17,Jits_Phase_5,0,1,48,36,1419300276
2015,17,Jits_Phase_5,1,5,63,98,1419314524
2015,17,Jits_Phase_5,2,5,80,127,1419335248
2015,17,Jits_Phase_5,3,5,56,103,1419374820
2015,17,Jits_Phase_5,0,1,48,38,1419776548
2015,17,Jits_Phase_5,1,5,63,98,1419815168
2015,17,Jits_Phase_5,2,5,56,103,1419834772
2015,17,Jits_Phase_5,3,5,80,127,1419845172
2015,17,Jits_Phase_5,0,1,48,30,1420258116
2015,17,Jits_Phase_5,1,5,80,127,1420315212
2015,17,Jits_Phase_5,2,5,56,103,1420334368
2015,17,Jits_Phase_5,3,5,63,98,1420365248
2015,17,Jits_Phase_5,0,1,48,41,1420730184
2015,17,Jits_Phase_5,1,5,56,103,1420885324
2015,17,Jits_Phase_5,2,5,80,127,1420888460
2015,17,Jits_Phase_5,3,5,63,98,1420904928
2015,17,Jits_Phase_5,0,5,63,98,1421305144
2015,17,Jits_Phase_5,1,1,48,44,1421310720
2015,17,Jits_Phase_5,2,5,56,103,1421334984
2015,17,Jits_Phase_5,3,5,80,127,1421395196
2015,17,Jits_Phase_5,0,1,48,39,1421848164
2015,17,Jits_Phase_5,1,5,63,98,1421885064
2015,17,Jits_Phase_5,2,5,56,103,1421895096
2015,17,Jits_Phase_5,3,5,80,127,1421905200
2015,17,Jits_Phase_5,0,5,56,103,1422344516
2015,17,Jits_Phase_5,1,1,48,41,1422346000
2015,17,Jits_Phase_5,2,5,80,127,1422375256
2015,17,Jits_Phase_5,3,5,63,98,1422384464
2015,17,Jits_Phase_5,0,1,48,40,1422861144
2015,17,Jits_Phase_5,1,5,63,98,1422885264
2015,17,Jits_Phase_5,2,5,56,103,1422894324
2015,17,Jits_Phase_5,3,5,80,127,1422914972
2015,17,Jits_Phase_5,0,5,56,103,1423315392
2015,17,Jits_Phase_5,1,1,48,49,1423348276
2015,17,Jits_Phase_5,2,5,63,98,1423374628
2015,17,Jits_Phase_5,3,5,80,127,1423377988
2015,17,Jits_Phase_5,0,5,80,127,1423834448
2015,17,Jits_Phase_5,1,1,48,38,1423844996
2015,17,Jits_Phase_5,2,5,56,103,1423846560
2015,17,Jits_Phase_5,3,5,63,98,1423915224
2015,17,Jits_Phase_5,0,1,48,38,1424303568
2015,17,Jits_Phase_5,1,5,80,127,1424325152
2015,17,Jits_Phase_5,2,5,56,103,1424394568
2015,17,Jits_Phase_5,3,5,63,98,1424405104
2015,17,Jits_Phase_5,0,1,48,46,1424820436
2015,17,Jits_Phase_5,1,5,63,98,1424864472
2015,17,Jits_Phase_5,2,5,56,103,1424874948
2015,17,Jits_Phase_5,3,5,80,127,1424895300
2015,17,Jits_Phase_5,0,5,80,127,1425315140
2015,17,Jits_Phase_5,1,1,48,51,1425320196
2015,17,Jits_Phase_5,2,5,63,98,1425374552
2015,17,Jits_Phase_5,3,5,56,103,1425414496
2015,17,Jits_Phase_5,0,5,56,103,1425854948
2015,17,Jits_Phase_5,1,1,48,32,1425857988
2015,17,Jits_Phase_5,2,5,63,98,1425865268
2015,17,Jits_Phase_5,3,5,80,127,1425905136
2015,17,Jits_Phase_5,0,5,56,103,1426314676
2015,17,Jits_Phase_5,1,5,80,127,1426345344
2015,17,Jits_Phase_5,2,1,48,35,1426351072
2015,17,Jits_Phase_5,3,5,63,98,1426394360
2015,17,Jits_Phase_5,0,1,48,30,1426804756
2015,17,Jits_Phase_5,1,5,56,103,1426855336
2015,17,Jits_Phase_5,2,5,63,98,1426895232
2015,17,Jits_Phase_5,3,5,80,127,1426898368
2015,17,Jits_Phase_5,0,1,48,40,1427290204
2015,17,Jits_Phase_5,1,5,56,103,1427354932
2015,17,Jits_Phase_5,2,5,63,98,1427365184
2015,17,Jits_Phase_5,3,5,80,127,1427385016
2015,17,Jits_Phase_5,0,1,48,43,1427795264
2015,17,Jits_Phase_5,1,5,56,103,1427815032
2015,17,Jits_Phase_5,2,5,80,127,1427818092
2015,17,Jits_Phase_5,3,5,63,98,1427854976
2015,17,Jits_Phase_5,0,1,48,43,1428286844
2015,17,Jits_Phase_5,1,5,63,98,1428354264
2015,17,Jits_Phase_5,2,5,56,103,1428385964
2015,17,Jits_Phase_5,3,5,80,127,1428404448
2015,17,Jits_Phase_5,0,1,48,37,1428794828
2015,17,Jits_Phase_5,1,5,80,127,1428824320
2015,17,Jits_Phase_5,2,5,56,103,1428834872
2015,17,Jits_Phase_5,3,5,63,98,1428844976
2015,17,Jits_Phase_5,0,1,48,29,1429292852
2015,17,Jits_Phase_5,1,5,56,103,1429325036
2015,17,Jits_Phase_5,2,5,80,127,1429365056
2015,17,Jits_Phase_5,3,5,63,98,1429394964
2015,17,Jits_Phase_5,0,1,48,40,1429808304
2015,17,Jits_Phase_5,1,5,63,98,1429835108
2015,17,Jits_Phase_5,2,5,80,127,1429845436
2015,17,Jits_Phase_5,3,5,56,103,1429854568
2015,17,Jits_Phase_5,0,1,48,39,1430313964
2015,17,Jits_Phase_5,1,5,56,103,1430324760
2015,17,Jits_Phase_5,2,5,63,98,1430395296
2015,17,Jits_Phase_5,3,5,80,127,1430404428
2015,17,Jits_Phase_5,0,1,48,38,1430809152
2015,17,Jits_Phase_5,1,5,80,127,1430834688
2015,17,Jits_Phase_5,2,5,56,103,1430844716
2015,17,Jits_Phase_5,3,5,63,98,1430894908
2015,17,Jits_Phase_5,0,1,48,39,1431317428
2015,17,Jits_Phase_5,1,5,80,127,1431344684
2015,17,Jits_Phase_5,2,5,56,103,1431404896
2015,17,Jits_Phase_5,3,5,63,98,1431434728
2015,17,Jits_Phase_5,0,1,48,40,1431819276
2015,17,Jits_Phase_5,1,5,56,103,1431845252
2015,17,Jits_Phase_5,2,5,80,127,1431848316
2015,17,Jits_Phase_5,3,5,63,98,1431885048
2015,17,Jits_Phase_5,0,1,48,37,1432331424
2015,17,Jits_Phase_5,1,5,56,103,1432374540
2015,17,Jits_Phase_5,2,5,63,98,1432405432
2015,17,Jits_Phase_5,3,5,80,127,1432414716
2015,17,Jits_Phase_5,0,1,48,30,1432822644
2015,17,Jits_Phase_5,1,5,63,98,1432884836
2015,17,Jits_Phase_5,2,5,80,127,1432895016
2015,17,Jits_Phase_5,3,5,56,103,1432905192
2015,17,Jits_Phase_5,0,1,48,43,1433320536
2015,17,Jits_Phase_5,1,5,80,127,1433335152
2015,17,Jits_Phase_5,2,5,56,103,1433385264
2015,17,Jits_Phase_5,3,5,63,98,1433388700
2015,17,Jits_Phase_5,0,1,48,43,1433820576
2015,17,Jits_Phase_5,1,5,56,103,1433864512
2015,17,Jits_Phase_5,2,5,80,127,1433884936
2015,17,Jits_Phase_5,3,5,63,98,1433895412
2015,17,Jits_Phase_5,0,1,48,43,1434302764
2015,17,Jits_Phase_5,1,5,63,98,1434344816
2015,17,Jits_Phase_5,2,5,56,103,1434374740
2015,17,Jits_Phase_5,3,5,80,127,1434395088
2015,17,Jits_Phase_5,0,1,48,36,1434816940
2015,17,Jits_Phase_5,1,5,56,103,1434854736
2015,17,Jits_Phase_5,2,5,80,127,1434864916
2015,17,Jits_Phase_5,3,5,63,98,1434934760
2015,17,Jits_Phase_5,0,1,48,35,1435334720
2015,17,Jits_Phase_5,1,5,63,98,1435345432
2015,17,Jits_Phase_5,2,5,80,127,1435385304
2015,17,Jits_Phase_5,3,5,56,103,1435425100
2015,17,Jits_Phase_5,0,1,48,49,1435842848
2015,17,Jits_Phase_5,1,5,56,103,1435855504
2015,17,Jits_Phase_5,2,5,63,98,1435864492
2015,17,Jits_Phase_5,3,5,80,127,1435884916
2015,17,Jits_Phase_5,0,1,48,40,1436329912
2015,17,Jits_Phase_5,1,5,63,98,1436394896
2015,17,Jits_Phase_5,2,5,80,127,1436415692
2015,17,Jits_Phase_5,3,5,56,103,1436434684
2015,17,Jits_Phase_5,0,1,48,38,1436834416
2015,17,Jits_Phase_5,1,5,56,103,1436835984
2015,17,Jits_Phase_5,2,5,80,127,1436914996
2015,17,Jits_Phase_5,3,5,63,98,1436925400
2015,17,Jits_Phase_5,0,1,48,39,1437303404
2015,17,Jits_Phase_5,1,5,80,127,1437374876
2015,17,Jits_Phase_5,2,5,63,98,1437385056
2015,17,Jits_Phase_5,3,5,56,103,1437414816
2015,17,Jits_Phase_5,0,1,48,37,1437816916
2015,17,Jits_Phase_5,1,5,63,98,1437834592
2015,17,Jits_Phase_5,2,5,80,127,1437874464
2015,17,Jits_Phase_5,3,5,56,103,1437935056
2015,17,Jits_Phase_5,0,1,48,39,1438334164
2015,17,Jits_Phase_5,1,5,63,98,1438344432
2015,17,Jits_Phase_5,2,5,56,103,1438394724
2015,17,Jits_Phase_5,3,5,80,127,1438424496
2015,17,Jits_Phase_5,0,1,48,38,1438828076
2015,17,Jits_Phase_5,1,5,80,127,1438845380
2015,17,Jits_Phase_5,2,5,63,98,1438854440
2015,17,Jits_Phase_5,3,5,56,103,1438925440
2015,17,Jits_Phase_5,0,1,48,25,1439349588
2015,17,Jits_Phase_5,1,5,80,127,1439405416
2015,17,Jits_Phase_5,2,5,56,103,1439414624
2015,17,Jits_Phase_5,3,5,63,98,1439417784
2015,17,Jits_Phase_5,0,5,56,103,1439844664
2015,17,Jits_Phase_5,1,1,48,29,1439845700
2015,17,Jits_Phase_5,2,5,80,127,1439865452
2015,17,Jits_Phase_5,3,5,63,98,1439874364
2015,17,Jits_Phase_5,0,1,48,33,1440347832
2015,17,Jits_Phase_5,1,5,63,98,1440354668
2015,17,Jits_Phase_5,2,5,56,103,1440394540
2015,17,Jits_Phase_5,3,5,80,127,1440415112
2015,17,Jits_Phase_5,0,1,48,42,1440838760
2015,17,Jits_Phase_5,1,5,63,98,1440855540
2015,17,Jits_Phase_5,2,5,56,103,1440914784
2015,17,Jits_Phase_5,3,5,80,127,1440917844
2015,17,Jits_Phase_5,0,5,56,103,1441315204
2015,17,Jits_Phase_5,1,5,80,127,1441334584
2015,17,Jits_Phase_5,2,1,48,39,1441354748
2015,17,Jits_Phase_5,3,5,63,98,1441374520
2015,17,Jits_Phase_5,0,1,48,35,1441834380
2015,17,Jits_Phase_5,1,5,56,103,1441844576
2015,17,Jits_Phase_5,2,5,63,98,1441865224
2015,17,Jits_Phase_5,3,5,80,127,1441875404
2015,17,Jits_Phase_5,0,5,80,127,1442314560
2015,17,Jits_Phase_5,1,1,48,45,1442333912
2015,17,Jits_Phase_5,2,5,56,103,1442345300
2015,17,Jits_Phase_5,3,5,63,98,1442385392
2015,17,Jits_Phase_5,0,5,80,127,1442824568
2015,17,Jits_Phase_5,1,1,48,30,1442838000
2015,17,Jits_Phase_5,2,5,56,103,1442845060
2015,17,Jits_Phase_5,3,5,63,98,1442904376
2015,17,Jits_Phase_5,0,1,48,39,1443321664
2015,17,Jits_Phase_5,1,5,56,103,1443334420
2015,17,Jits_Phase_5,2,5,80,127,1443355216
2015,17,Jits_Phase_5,3,5,63,98,1443415352
2015,17,Jits_Phase_5,0,1,48,43,1443809824
2015,17,Jits_Phase_5,1,5,80,127,1443814644
2015,17,Jits_Phase_5,2,5,56,103,1443825120
2015,17,Jits_Phase_5,3,5,63,98,1443865064
2015,17,Jits_Phase_5,0,1,48,45,1444280024
2015,17,Jits_Phase_5,1,5,63,98,1444314616
2015,17,Jits_Phase_5,2,5,56,103,1444354256
2015,17,Jits_Phase_5,3,5,80,127,1444357324
2015,17,Jits_Phase_5,0,1,48,38,1444754468
2015,17,Jits_Phase_5,1,5,63,98,1444834768
2015,17,Jits_Phase_5,2,5,80,127,1444874628
2015,17,Jits_Phase_5,3,5,56,103,1444905368
2015,17,Jits_Phase_5,0,1,48,43,1445240816
2015,17,Jits_Phase_5,1,5,56,103,1445325172
2015,17,Jits_Phase_5,2,5,63,98,1445335336
2015,17,Jits_Phase_5,3,5,80,127,1445365108
2015,17,Jits_Phase_5,0,1,48,45,1445719104
2015,17,Jits_Phase_5,1,5,80,127,1445814780
2015,17,Jits_Phase_5,2,5,63,98,1445885240
2015,17,Jits_Phase_5,3,5,56,103,1445894596
2015,17,Jits_Phase_5,0,1,48,43,1446299524
2015,17,Jits_Phase_5,1,5,63,98,1446315340
2015,17,Jits_Phase_5,2,5,56,103,1446385004
2015,17,Jits_Phase_5,3,5,80,127,1446395172
2015,17,Jits_Phase_5,0,5,63,98,1446794680
2015,17,Jits_Phase_5,1,5,56,103,1446815256
2015,17,Jits_Phase_5,2,1,48,41,1446853644
2015,17,Jits_Phase_5,3,5,80,127,1446855516
2015,17,Jits_Phase_5,0,5,56,103,1447274984
2015,17,Jits_Phase_5,1,5,63,98,1447285236
2015,17,Jits_Phase_5,2,1,48,31,1447332248
2015,17,Jits_Phase_5,3,5,80,127,1447364988
2015,17,Jits_Phase_5,0,5,63,98,1447765324
2015,17,Jits_Phase_5,1,1,48,33,1447793892
2015,17,Jits_Phase_5,2,5,56,103,1447795608
2015,17,Jits_Phase_5,3,5,80,127,1447835108
2015,17,Jits_Phase_5,0,1,48,36,1448233332
2015,17,Jits_Phase_5,1,5,56,103,1448265136
2015,17,Jits_Phase_5,2,5,63,98,1448304936
2015,17,Jits_Phase_5,3,5,80,127,1448344864
2015,17,Jits_Phase_5,0,1,48,32,1448674884
2015,17,Jits_Phase_5,1,5,80,127,1448765032
2015,17,Jits_Phase_5,2,5,56,103,1448844756
2015,17,Jits_Phase_5,3,5,63,98,1448854936
2015,17,Jits_Phase_5,0,1,48,44,1449229452
2015,17,Jits_Phase_5,1,5,56,103,1449304352
2015,17,Jits_Phase_5,2,5,63,98,1449307636
2015,17,Jits_Phase_5,3,5,80,127,1449315124
2015,17,Jits_Phase_5,0,1,48,43,1449778632
2015,17,Jits_Phase_5,1,5,56,103,1449824732
2015,17,Jits_Phase_5,2,5,63,98,1449845084
2015,17,Jits_Phase_5,3,5,80,127,1449855412
2015,17,Jits_Phase_5,0,5,63,98,1450285448
2015,17,Jits_Phase_5,1,5,80,127,1450294804
2015,17,Jits_Phase_5,2,5,56,103,1450315156
2015,17,Jits_Phase_5,3,1,48,27,1450359400
2015,17,Jits_Phase_5,0,5,63,98,1450785120
2015,17,Jits_Phase_5,1,1,48,44,1450794748
2015,17,Jits_Phase_5,2,5,56,103,1450865000
2015,17,Jits_Phase_5,3,5,80,127,1450868060
2015,17,Jits_Phase_5,0,5,63,98,1451285016
2015,17,Jits_Phase_5,1,5,56,103,1451305292
2015,17,Jits_Phase_5,2,1,48,42,1451332256
2015,17,Jits_Phase_5,3,5,80,127,1451335136
2015,17,Jits_Phase_5,0,1,48,31,1451794492
2015,17,Jits_Phase_5,1,5,56,103,1451796048
2015,17,Jits_Phase_5,2,5,63,98,1451815136
2015,17,Jits_Phase_5,3,5,80,127,1451824344
2015,17,Jits_Phase_5,0,5,56,103,1452325128
2015,17,Jits_Phase_5,1,5,63,98,1452355048
2015,17,Jits_Phase_5,2,5,80,127,1452358260
2015,17,Jits_Phase_5,0,5,56,103,1452774804
2015,17,Jits_Phase_5,1,1,48,30,1452797512
2015,17,Jits_Phase_5,2,5,63,98,1452814816
2015,17,Jits_Phase_5,3,5,80,127,1452875028
2015,17,Jits_Phase_5,0,5,56,103,1453294912
2015,17,Jits_Phase_5,1,1,48,29,1453304412
2015,17,Jits_Phase_5,2,5,63,98,1453306204
2015,17,Jits_Phase_5,3,5,80,127,1453364548
2015,17,Jits_Phase_5,0,5,56,103,1453794824
2015,17,Jits_Phase_5,1,1,48,31,1453801824
2015,17,Jits_Phase_5,2,5,80,127,1453815168
2015,17,Jits_Phase_5,3,5,63,98,1453844944
2015,17,Jits_Phase_5,0,1,48,23,1454293748
2015,17,Jits_Phase_5,1,5,80,127,1454295476
2015,17,Jits_Phase_5,2,5,56,103,1454304540
2015,17,Jits_Phase_5,3,5,63,98,1454325184
2015,17,Jits_Phase_5,0,5,63,98,1454784764
2015,17,Jits_Phase_5,1,5,80,127,1454864648
2015,17,Jits_Phase_5,2,5,56,103,1454874976
2015,17,Jits_Phase_5,0,1,48,36,1455220984
2015,17,Jits_Phase_5,1,5,80,127,1455374728
2015,17,Jits_Phase_5,2,5,56,103,1455395072
2015,17,Jits_Phase_5,3,5,63,98,1455398212
2015,17,Jits_Phase_5,0,1,48,26,1455722832
2015,17,Jits_Phase_5,1,5,63,98,1455865268
2015,17,Jits_Phase_5,2,5,80,127,1455868776
2015,17,Jits_Phase_5,3,5,56,103,1455924804
2015,17,Jits_Phase_5,0,1,48,38,1456161976
2015,17,Jits_Phase_5,1,5,56,103,1456344668
2015,17,Jits_Phase_5,2,5,80,127,1456354700
2015,17,Jits_Phase_5,3,5,63,98,1456394716
2015,17,Jits_Phase_5,0,1,48,36,1456703696
2015,17,Jits_Phase_5,1,5,56,103,1456824744
2015,17,Jits_Phase_5,2,5,63,98,1456885108
2015,17,Jits_Phase_5,3,5,80,127,1456895508
2015,17,Jits_Phase_5,0,5,63,98,1457334688
2015,17,Jits_Phase_5,1,5,80,127,1457374560
2015,17,Jits_Phase_5,2,5,56,103,1457414428
2015,17,Jits_Phase_5,0,5,56,103,1457835340
2015,17,Jits_Phase_5,1,5,63,98,1457915324
2015,17,Jits_Phase_5,2,5,80,127,1457918532
2015,17,Jits_Phase_5,0,1,48,45,1458325448
2015,17,Jits_Phase_5,1,5,80,127,1458394460
2015,17,Jits_Phase_5,2,5,56,103,1458425340
2015,17,Jits_Phase_5,3,5,63,98,1458428476
2015,17,Jits_Phase_5,0,5,56,103,1458855368
2015,17,Jits_Phase_5,1,5,80,127,1458874624
2015,17,Jits_Phase_5,2,1,48,50,1458895688
2015,17,Jits_Phase_5,3,5,63,98,1458914712
2015,17,Jits_Phase_5,0,5,80,127,1459334488
2015,17,Jits_Phase_5,1,5,63,98,1459354916
2015,17,Jits_Phase_5,2,1,48,50,1459370884
2015,17,Jits_Phase_5,3,5,56,103,1459415444
2015,17,Jits_Phase_5,0,1,48,54,1459844424
2015,17,Jits_Phase_5,1,5,63,98,1459846056
2015,17,Jits_Phase_5,2,5,56,103,1459854596
2015,17,Jits_Phase_5,3,5,80,127,1459904960
2015,17,Jits_Phase_5,0,5,56,103,1460334824
2015,17,Jits_Phase_5,1,1,48,54,1460335788
2015,17,Jits_Phase_5,2,5,63,98,1460354568
2015,17,Jits_Phase_5,3,5,80,127,1460364748
2015,17,Jits_Phase_5,0,1,48,56,1460794540
2015,17,Jits_Phase_5,1,5,56,103,1460824552
2015,17,Jits_Phase_5,2,5,63,98,1460827612
2015,17,Jits_Phase_5,3,5,80,127,1460844900
2015,17,Jits_Phase_5,0,1,48,49,1461335780
2015,17,Jits_Phase_5,1,5,63,98,1461365272
2015,17,Jits_Phase_5,2,5,56,103,1461394752
2015,17,Jits_Phase_5,3,5,80,127,1461424452
2015,17,Jits_Phase_5,0,1,48,49,1461819000
2015,17,Jits_Phase_5,1,5,80,127,1461825016
2015,17,Jits_Phase_5,2,5,56,103,1461915144
2015,17,Jits_Phase_5,3,5,63,98,1461918940
2015,17,Jits_Phase_5,0,5,56,103,1462324540
2015,17,Jits_Phase_5,1,5,80,127,1462327600
2015,17,Jits_Phase_5,2,1,48,51,1462353612
2015,17,Jits_Phase_5,3,5,63,98,1462404340
2015,17,Jits_Phase_5,0,5,80,127,1462825264
2015,17,Jits_Phase_5,1,1,48,40,1462881772
2015,17,Jits_Phase_5,2,5,63,98,1462884652
2015,17,Jits_Phase_5,3,5,56,103,1462914348
2015,17,Jits_Phase_5,0,5,63,98,1463325324
2015,17,Jits_Phase_5,1,5,80,127,1463335356
2015,17,Jits_Phase_5,2,1,48,44,1463367264
2015,17,Jits_Phase_5,3,5,56,103,1463404984
2015,17,Jits_Phase_5,0,1,48,50,1463846804
2015,17,Jits_Phase_5,1,5,56,103,1463885204
2015,17,Jits_Phase_5,2,5,80,127,1463914832
2015,17,Jits_Phase_5,3,5,63,98,1463965228
2015,17,Jits_Phase_5,0,1,48,40,1464385224
2015,17,Jits_Phase_5,1,5,63,98,1464475076
2015,17,Jits_Phase_5,2,5,56,103,1464504556
2015,17,Jits_Phase_5,3,5,80,127,1464507772
2015,17,Jits_Phase_5,0,1,48,45,1464974900
2015,17,Jits_Phase_5,1,5,63,98,1464976540
2015,17,Jits_Phase_5,2,5,80,127,1464995172
2015,17,Jits_Phase_5,3,5,56,103,1465005348
2015,17,Jits_Phase_5,0,1,48,48,1465482548
2015,17,Jits_Phase_5,1,5,56,103,1465484588
2015,17,Jits_Phase_5,2,5,63,98,1465487660
2015,17,Jits_Phase_5,3,5,80,127,1465505464
2015,17,Jits_Phase_5,0,5,56,103,1465935280
2015,17,Jits_Phase_5,1,5,63,98,1465944492
2015,17,Jits_Phase_5,2,5,80,127,1465975160
2015,17,Jits_Phase_5,3,1,48,41,1465997192
2015,17,Jits_Phase_5,0,1,48,43,1466445260
2015,17,Jits_Phase_5,1,5,63,98,1466455456
2015,17,Jits_Phase_5,2,5,80,127,1466475132
2015,17,Jits_Phase_5,3,5,56,103,1466515148
2015,17,Jits_Phase_5,0,1,48,41,1466920100
2015,17,Jits_Phase_5,1,5,56,103,1466984752
2015,17,Jits_Phase_5,2,5,63,98,1467024756
2015,17,Jits_Phase_5,3,5,80,127,1467028040
2015,17,Jits_Phase_5,0,5,80,127,1467425192
2015,17,Jits_Phase_5,1,1,48,43,1467428008
2015,17,Jits_Phase_5,2,5,56,103,1467465204
2015,17,Jits_Phase_5,3,5,63,98,1467515248
2015,17,Jits_Phase_5,0,1,48,46,1467961864
2015,17,Jits_Phase_5,1,5,56,103,1467985236
2015,17,Jits_Phase_5,2,5,80,127,1467994520
2015,17,Jits_Phase_5,3,5,63,98,1468025260
2015,17,Jits_Phase_5,0,5,56,103,1468434960
2015,17,Jits_Phase_5,1,1,48,45,1468457892
2015,17,Jits_Phase_5,2,5,80,127,1468474604
2015,17,Jits_Phase_5,3,5,63,98,1468525016
2015,17,Jits_Phase_5,0,1,48,46,1468924824
2015,17,Jits_Phase_5,1,5,56,103,1468934500
2015,17,Jits_Phase_5,2,5,80,127,1468974444
2015,17,Jits_Phase_5,3,5,63,98,1469024616
2015,17,Jits_Phase_5,0,1,48,42,1469393016
2015,17,Jits_Phase_5,1,5,80,127,1469425120
2015,17,Jits_Phase_5,2,5,63,98,1469504988
2015,17,Jits_Phase_5,3,5,56,103,1469515168
2015,17,Jits_Phase_5,0,1,48,33,1469924628
2015,17,Jits_Phase_5,1,5,80,127,1469975132
2015,17,Jits_Phase_5,2,5,56,103,1469985088
2015,17,Jits_Phase_5,3,5,63,98,1470004768
2015,17,Jits_Phase_5,0,1,48,46,1470443464
2015,17,Jits_Phase_5,1,5,63,98,1470445192
2015,17,Jits_Phase_5,2,5,56,103,1470514532
2015,17,Jits_Phase_5,3,5,80,127,1470517668
2015,17,Jits_Phase_5,0,5,80,127,1470935448
2015,17,Jits_Phase_5,1,1,48,47,1470949556
2015,17,Jits_Phase_5,2,5,63,98,1470984664
2015,17,Jits_Phase_5,3,5,56,103,1471024460
2015,17,Jits_Phase_5,0,1,48,36,1471464132
2015,17,Jits_Phase_5,1,5,63,98,1471475148
2015,17,Jits_Phase_5,2,5,56,103,1471515096
2015,17,Jits_Phase_5,3,5,80,127,1471525420
2015,17,Jits_Phase_5,0,5,63,98,1471964444
2015,17,Jits_Phase_5,1,5,56,103,1471985016
2015,17,Jits_Phase_5,2,1,48,40,1471990296
2015,17,Jits_Phase_5,3,5,80,127,1472004316
2015,17,Jits_Phase_5,0,5,80,127,1472425276
2015,17,Jits_Phase_5,1,5,56,103,1472434780
2015,17,Jits_Phase_5,2,1,48,30,1472446896
2015,17,Jits_Phase_5,3,5,63,98,1472455224
2015,17,Jits_Phase_5,0,1,48,39,1472921476
2015,17,Jits_Phase_5,1,5,63,98,1472954748
2015,17,Jits_Phase_5,2,5,56,103,1472994840
2015,17,Jits_Phase_5,3,5,80,127,1473025348
2015,17,Jits_Phase_5,0,5,56,103,1473414768
2015,17,Jits_Phase_5,1,1,48,38,1473416104
2015,17,Jits_Phase_5,2,5,63,98,1473445208
2015,17,Jits_Phase_5,3,5,80,127,1473474860
2015,17,Jits_Phase_5,0,5,80,127,1473835264
2015,17,Jits_Phase_5,1,1,48,40,1473898136
2015,17,Jits_Phase_5,2,5,56,103,1473904968
2015,17,Jits_Phase_5,3,5,63,98,1473908104
2015,17,Jits_Phase_5,0,5,56,103,1474345416
2015,17,Jits_Phase_5,1,1,48,42,1474357508
2015,17,Jits_Phase_5,2,5,63,98,1474394484
2015,17,Jits_Phase_5,3,5,80,127,1474425300
2015,17,Jits_Phase_5,0,5,63,98,1474824616
2015,17,Jits_Phase_5,1,1,48,43,1474826048
2015,17,Jits_Phase_5,2,5,80,127,1474829236
2015,17,Jits_Phase_5,3,5,56,103,1474884972
2015,17,Jits_Phase_5,0,1,48,43,1475273092
2015,17,Jits_Phase_5,1,5,56,103,1475355084
2015,17,Jits_Phase_5,2,5,80,127,1475365488
2015,17,Jits_Phase_5,3,5,63,98,1475415664
2015,17,Jits_Phase_5,0,1,48,49,1475801696
2015,17,Jits_Phase_5,1,5,63,98,1475824992
2015,17,Jits_Phase_5,2,5,56,103,1475835100
2015,17,Jits_Phase_5,3,5,80,127,1475864796
2015,17,Jits_Phase_5,0,1,48,36,1476284924
2015,17,Jits_Phase_5,1,5,63,98,1476354508
2015,17,Jits_Phase_5,2,5,80,127,1476357864
2015,17,Jits_Phase_5,3,5,56,103,1476385012
2015,17,Jits_Phase_5,0,1,48,40,1476808216
2015,17,Jits_Phase_5,1,5,63,98,1476874812
2015,17,Jits_Phase_5,2,5,56,103,1476894936
2015,17,Jits_Phase_5,3,5,80,127,1476898076
2015,17,Jits_Phase_5,0,1,48,43,1477245708
2015,17,Jits_Phase_5,1,5,63,98,1477335660
2015,17,Jits_Phase_5,2,5,56,103,1477404988
2015,17,Jits_Phase_5,3,5,80,127,1477424516
2015,17,Jits_Phase_5,0,1,48,45,1477816692
2015,17,Jits_Phase_5,1,5,56,103,1477824868
2015,17,Jits_Phase_5,2,5,63,98,1477835048
2015,17,Jits_Phase_5,3,5,80,127,1477925232
2015,17,Jits_Phase_5,0,1,48,48,1478297636
2015,17,Jits_Phase_5,1,5,56,103,1478344960
2015,17,Jits_Phase_5,2,5,80,127,1478384908
2015,17,Jits_Phase_5,3,5,63,98,1478395220
2015,17,Jits_Phase_5,0,1,48,46,1478858292
2015,17,Jits_Phase_5,1,5,56,103,1478865572
2015,17,Jits_Phase_5,2,5,63,98,1478895052
2015,17,Jits_Phase_5,3,5,80,127,1478924604
2015,17,Jits_Phase_5,0,5,80,127,1479324996
2015,17,Jits_Phase_5,1,5,63,98,1479364896
2015,17,Jits_Phase_5,2,1,48,46,1479379224
2015,17,Jits_Phase_5,3,5,56,103,1479384712
2015,17,Jits_Phase_5,0,5,56,103,1479864724
2015,17,Jits_Phase_5,1,1,48,45,1479876740
2015,17,Jits_Phase_5,2,5,80,127,1479885144
2015,17,Jits_Phase_5,3,5,63,98,1479904596
2015,17,Jits_Phase_5,0,1,48,45,1480333944
2015,17,Jits_Phase_5,1,5,63,98,1480335736
2015,17,Jits_Phase_5,2,5,56,103,1480344872
2015,17,Jits_Phase_5,3,5,80,127,1480405332
2015,17,Jits_Phase_5,0,1,48,46,1480812480
2015,17,Jits_Phase_5,1,5,56,103,1480834360
2015,17,Jits_Phase_5,2,5,63,98,1480904992
2015,17,Jits_Phase_5,3,5,80,127,1480924656
2015,17,Jits_Phase_5,0,1,48,40,1481301984
2015,17,Jits_Phase_5,1,5,56,103,1481335232
2015,17,Jits_Phase_5,2,5,63,98,1481364784
2015,17,Jits_Phase_5,3,5,80,127,1481404660
2015,17,Jits_Phase_5,0,5,63,98,1481824592
2015,17,Jits_Phase_5,1,1,48,46,1481826224
2015,17,Jits_Phase_5,2,5,56,103,1481874776
2015,17,Jits_Phase_5,3,5,80,127,1481885032
2015,17,Jits_Phase_5,0,1,48,40,1482315480
2015,17,Jits_Phase_5,1,5,56,103,1482365540
2015,17,Jits_Phase_5,2,5,63,98,1482414376
2015,17,Jits_Phase_5,3,5,80,127,1482424580
2015,17,Jits_Phase_5,0,5,56,103,1482835384
2015,17,Jits_Phase_5,1,1,48,48,1482836348
2015,17,Jits_Phase_5,2,5,63,98,1482844512
2015,17,Jits_Phase_5,3,5,80,127,1482925440
2015,17,Jits_Phase_5,0,9999,9999,9999,1398602836
2015,17,Jits_Phase_5,1,9999,9999,9999,1399102520
2015,17,Jits_Phase_5,2,9999,9999,9999,1399602288
2015,17,Jits_Phase_5,3,9999,9999,9999,1400103020
2015,17,Jits_Phase_5,4,9999,9999,9999,1400602704
2015,17,Jits_Phase_5,5,9999,9999,9999,1401102460
2015,17,Jits_Phase_5,6,9999,9999,9999,1401602132
2015,17,Jits_Phase_5,7,9999,9999,9999,1402102868
2015,17,Jits_Phase_5,8,9999,9999,9999,1402602616
2015,17,Jits_Phase_5,9,9999,9999,9999,1403102308
2015,17,Jits_Phase_5,10,9999,9999,9999,1403603028
2015,17,Jits_Phase_5,11,9999,9999,9999,1404102716
2015,17,Jits_Phase_5,12,9999,9999,9999,1404602464
2015,17,Jits_Phase_5,13,9999,9999,9999,1405102184
2015,17,Jits_Phase_5,14,9999,9999,9999,1405602904
2015,17,Jits_Phase_5,15,9999,9999,9999,1406102596
2015,17,Jits_Phase_5,16,9999,9999,9999,1406602344
2015,17,Jits_Phase_5,17,9999,9999,9999,1407103064
2015,17,Jits_Phase_5,18,9999,9999,9999,1407602812
2015,17,Jits_Phase_5,19,9999,9999,9999,1408102488
2015,17,Jits_Phase_5,20,9999,9999,9999,1408602168
2015,17,Jits_Phase_5,21,9999,9999,9999,1409102964
2015,17,Jits_Phase_5,22,9999,9999,9999,1409602636
2015,17,Jits_Phase_5,23,9999,9999,9999,1410102328
2015,17,Jits_Phase_5,24,9999,9999,9999,1410603064
2015,17,Jits_Phase_5,25,9999,9999,9999,1411113064
2015,17,Jits_Phase_5,26,9999,9999,9999,1411612744
2015,17,Jits_Phase_5,27,9999,9999,9999,1412112484
2015,17,Jits_Phase_5,28,9999,9999,9999,1412612164
2015,17,Jits_Phase_5,29,9999,9999,9999,1413112956
2015,17,Jits_Phase_5,30,9999,9999,9999,1413602400
2015,17,Jits_Phase_5,31,9999,9999,9999,1414102088
2015,17,Jits_Phase_5,32,9999,9999,9999,1414602820
2015,17,Jits_Phase_5,33,9999,9999,9999,1415102572
2015,17,Jits_Phase_5,34,9999,9999,9999,1415602240
2015,17,Jits_Phase_5,35,9999,9999,9999,1416102972
2015,17,Jits_Phase_5,36,9999,9999,9999,1416602708
2015,17,Jits_Phase_5,37,9999,9999,9999,1417102460
2015,17,Jits_Phase_5,38,9999,9999,9999,1417602136
2015,17,Jits_Phase_5,39,9999,9999,9999,1418102860
2015,17,Jits_Phase_5,40,9999,9999,9999,1418602612
2015,17,Jits_Phase_5,41,9999,9999,9999,1419102300
2015,17,Jits_Phase_5,42,9999,9999,9999,1419603032
2015,17,Jits_Phase_5,43,9999,9999,9999,1420102780
2015,17,Jits_Phase_5,44,9999,9999,9999,1420602452
2015,17,Jits_Phase_5,45,9999,9999,9999,1421102200
2015,17,Jits_Phase_5,46,9999,9999,9999,1421602920
2015,17,Jits_Phase_5,47,9999,9999,9999,1422102608
2015,17,Jits_Phase_5,48,9999,9999,9999,1422612608
2015,17,Jits_Phase_5,49,9999,9999,9999,1423112304
2015,17,Jits_Phase_5,50,9999,9999,9999,1423613012
2015,17,Jits_Phase_5,51,9999,9999,9999,1424112704
2015,17,Jits_Phase_5,52,9999,9999,9999,1424612472
2015,17,Jits_Phase_5,53,9999,9999,9999,1425112148
2015,17,Jits_Phase_5,54,9999,9999,9999,1425612872
2015,17,Jits_Phase_5,55,9999,9999,9999,1426112568
2015,17,Jits_Phase_5,56,9999,9999,9999,1426612304
2015,17,Jits_Phase_5,57,9999,9999,9999,1427113028
2015,17,Jits_Phase_5,58,9999,9999,9999,1427612772
2015,17,Jits_Phase_5,59,9999,9999,9999,1428112508
2015,17,Jits_Phase_5,60,9999,9999,9999,1428612184
2015,17,Jits_Phase_5,61,9999,9999,9999,1429112904
2015,17,Jits_Phase_5,62,9999,9999,9999,1429612652
2015,17,Jits_Phase_5,63,9999,9999,9999,1430112324
2015,17,Jits_Phase_5,64,9999,9999,9999,1430632572
2015,17,Jits_Phase_5,65,9999,9999,9999,1431132248
2015,17,Jits_Phase_5,66,9999,9999,9999,1431632972
2015,17,Jits_Phase_5,67,9999,9999,9999,1432132708
2015,17,Jits_Phase_5,68,9999,9999,9999,1432632388
2015,17,Jits_Phase_5,69,9999,9999,9999,1433132140
2015,17,Jits_Phase_5,70,9999,9999,9999,1433632852
2015,17,Jits_Phase_5,71,9999,9999,9999,1434132604
2015,17,Jits_Phase_5,72,9999,9999,9999,1434632280
2015,17,Jits_Phase_5,73,9999,9999,9999,1435133000
2015,17,Jits_Phase_5,74,9999,9999,9999,1435632752
2015,17,Jits_Phase_5,75,9999,9999,9999,1436132424
2015,17,Jits_Phase_5,76,9999,9999,9999,1436632180
2015,17,Jits_Phase_5,77,9999,9999,9999,1437132900
2015,17,Jits_Phase_5,78,9999,9999,9999,1437632576
2015,17,Jits_Phase_5,79,9999,9999,9999,1438132304
2015,17,Jits_Phase_5,80,9999,9999,9999,1438633020
2015,17,Jits_Phase_5,81,9999,9999,9999,1439112280
2015,17,Jits_Phase_5,82,9999,9999,9999,1439613000
2015,17,Jits_Phase_5,83,9999,9999,9999,1440112748
2015,17,Jits_Phase_5,84,9999,9999,9999,1440612444
2015,17,Jits_Phase_5,85,9999,9999,9999,1441112188
2015,17,Jits_Phase_5,86,9999,9999,9999,1441612904
2015,17,Jits_Phase_5,87,9999,9999,9999,1442112596
2015,17,Jits_Phase_5,88,9999,9999,9999,1442612340
2015,17,Jits_Phase_5,89,9999,9999,9999,1443113068
2015,17,Jits_Phase_5,90,9999,9999,9999,1443612756
2015,17,Jits_Phase_5,91,9999,9999,9999,1444112504
2015,17,Jits_Phase_5,92,9999,9999,9999,1444612168
2015,17,Jits_Phase_5,93,9999,9999,9999,1445112888
2015,17,Jits_Phase_5,94,9999,9999,9999,1445612632
2015,17,Jits_Phase_5,95,9999,9999,9999,1446112356
2015,17,Jits_Phase_5,96,9999,9999,9999,1446613080
2015,17,Jits_Phase_5,97,9999,9999,9999,1447062620
2015,17,Jits_Phase_5,98,9999,9999,9999,1447562296
2015,17,Jits_Phase_5,99,9999,9999,9999,1448063100
2015,17,Jits_Phase_5,100,9999,9999,9999,1448562776
2015,17,Jits_Phase_5,101,9999,9999,9999,1449062528
2015,17,Jits_Phase_5,102,9999,9999,9999,1449562192
2015,17,Jits_Phase_5,103,9999,9999,9999,1450062912
2015,17,Jits_Phase_5,104,9999,9999,9999,1450562660
2015,17,Jits_Phase_5,105,9999,9999,9999,1451062328
2015,17,Jits_Phase_5,106,9999,9999,9999,1451563128
2015,17,Jits_Phase_5,107,9999,9999,9999,1452073044
2015,17,Jits_Phase_5,108,9999,9999,9999,1452572736
2015,17,Jits_Phase_5,109,9999,9999,9999,1453072508
2015,17,Jits_Phase_5,110,9999,9999,9999,1453572196
2015,17,Jits_Phase_5,111,9999,9999,9999,1454072936
2015,17,Jits_Phase_5,112,9999,9999,9999,1454572624
2015,17,Jits_Phase_5,113,9999,9999,9999,1455072320
2015,17,Jits_Phase_5,114,9999,9999,9999,1455622260
2015,17,Jits_Phase_5,115,9999,9999,9999,1456122976
2015,17,Jits_Phase_5,116,9999,9999,9999,1456622648
2015,17,Jits_Phase_5,117,9999,9999,9999,1457122396
2015,17,Jits_Phase_5,118,9999,9999,9999,1457622092
2015,17,Jits_Phase_5,119,9999,9999,9999,1458122840
2015,17,Jits_Phase_5,120,9999,9999,9999,1458622536
2015,17,Jits_Phase_5,121,9999,9999,9999,1459122264
2015,17,Jits_Phase_5,122,9999,9999,9999,1459622992
2015,17,Jits_Phase_5,123,9999,9999,9999,1460122684
2015,17,Jits_Phase_5,124,9999,9999,9999,1460622428
2015,17,Jits_Phase_5,125,9999,9999,9999,1461122100
2015,17,Jits_Phase_5,126,9999,9999,9999,1461622900
2015,17,Jits_Phase_5,127,9999,9999,9999,1462122572
2015,17,Jits_Phase_5,128,9999,9999,9999,1462622312
2015,17,Jits_Phase_5,129,9999,9999,9999,1463123044
2015,17,Jits_Phase_5,130,9999,9999,9999,1463622732
2015,17,Jits_Phase_5,131,9999,9999,9999,1464222776
2015,17,Jits_Phase_5,132,9999,9999,9999,1464722520
2015,17,Jits_Phase_5,133,9999,9999,9999,1465222200
2015,17,Jits_Phase_5,134,9999,9999,9999,1465722992
2015,17,Jits_Phase_5,135,9999,9999,9999,1466222664
2015,17,Jits_Phase_5,136,9999,9999,9999,1466722356
2015,17,Jits_Phase_5,137,9999,9999,9999,1467222104
2015,17,Jits_Phase_5,138,9999,9999,9999,1467722824
2015,17,Jits_Phase_5,139,9999,9999,9999,1468222520
2015,17,Jits_Phase_5,140,9999,9999,9999,1468722272
2015,17,Jits_Phase_5,141,9999,9999,9999,1469223008
2015,17,Jits_Phase_5,142,9999,9999,9999,1469722688
2015,17,Jits_Phase_5,143,9999,9999,9999,1470222440
2015,17,Jits_Phase_5,144,9999,9999,9999,1470722112
2015,17,Jits_Phase_5,145,9999,9999,9999,1471222908
2015,17,Jits_Phase_5,146,9999,9999,9999,1471722604
2015,17,Jits_Phase_5,147,9999,9999,9999,1472222284
2015,17,Jits_Phase_5,148,9999,9999,9999,1472723000
2015,17,Jits_Phase_5,149,9999,9999,9999,1473222768
2015,17,Jits_Phase_5,150,9999,9999,9999,1473622136
2015,17,Jits_Phase_5,151,9999,9999,9999,1474122864
2015,17,Jits_Phase_5,152,9999,9999,9999,1474622560
2015,17,Jits_Phase_5,153,9999,9999,9999,1475122236
2015,17,Jits_Phase_5,154,9999,9999,9999,1475623028
2015,17,Jits_Phase_5,155,9999,9999,9999,1476122704
2015,17,Jits_Phase_5,156,9999,9999,9999,1476622440
2015,17,Jits_Phase_5,157,9999,9999,9999,1477122112
2015,17,Jits_Phase_5,158,9999,9999,9999,1477622904
2015,17,Jits_Phase_5,159,9999,9999,9999,1478122580
2015,17,Jits_Phase_5,160,9999,9999,9999,1478622328
2015,17,Jits_Phase_5,161,9999,9999,9999,1479123052
2015,17,Jits_Phase_5,162,9999,9999,9999,1479622724
2015,17,Jits_Phase_5,163,9999,9999,9999,1480122492
2015,17,Jits_Phase_5,164,9999,9999,9999,1480622156
2015,17,Jits_Phase_5,165,9999,9999,9999,1481122872
2015,17,Jits_Phase_5,166,9999,9999,9999,1481622620
2015,17,Jits_Phase_5,167,9999,9999,9999,1482122296
2015,17,Jits_Phase_5,168,9999,9999,9999,1482623096
2015,17,Jits_Phase_5,169,9999,9999,9999,1483122768
2016,18,Jits_Linear_8,0,5,56,103,1500568900
2016,18,Jits_Linear_8,1,5,63,98,1500572072
2016,18,Jits_Linear_8,2,5,80,127,1500575264
2016,18,Jits_Linear_8,0,1,48,32,1501160672
2016,18,Jits_Linear_8,1,5,56,103,1501389272
2016,18,Jits_Linear_8,2,5,63,98,1501392520
2016,18,Jits_Linear_8,3,5,80,127,1501395632
2016,18,Jits_Linear_8,0,1,48,48,1502096172
2016,18,Jits_Linear_8,1,5,80,127,1502149040
2016,18,Jits_Linear_8,2,5,63,98,1502239160
2016,18,Jits_Linear_8,3,5,56,103,1502249564
2016,18,Jits_Linear_8,0,5,56,103,1502988540
2016,18,Jits_Linear_8,1,5,63,98,1502998872
2016,18,Jits_Linear_8,2,1,48,43,1503082684
2016,18,Jits_Linear_8,3,5,80,127,1503089144
2016,18,Jits_Linear_8,0,5,63,98,1503779424
2016,18,Jits_Linear_8,1,1,48,43,1503786200
2016,18,Jits_Linear_8,2,5,80,127,1503808824
2016,18,Jits_Linear_8,3,5,56,103,1503838524
2016,18,Jits_Linear_8,0,5,56,103,1504599320
2016,18,Jits_Linear_8,1,1,48,49,1504612900
2016,18,Jits_Linear_8,2,5,80,127,1504698672
2016,18,Jits_Linear_8,3,5,63,98,1504748848
2016,18,Jits_Linear_8,0,5,56,103,1505409356
2016,18,Jits_Linear_8,1,5,80,127,1505458680
2016,18,Jits_Linear_8,2,5,63,98,1505498404
2016,18,Jits_Linear_8,3,1,48,43,1505527472
2016,18,Jits_Linear_8,0,1,48,43,1506236048
2016,18,Jits_Linear_8,1,5,80,127,1506259272
2016,18,Jits_Linear_8,2,5,63,98,1506289272
2016,18,Jits_Linear_8,3,5,56,103,1506358600
2016,18,Jits_Linear_8,0,1,48,50,1507072932
2016,18,Jits_Linear_8,1,5,63,98,1507099068
2016,18,Jits_Linear_8,2,5,56,103,1507128620
2016,18,Jits_Linear_8,3,5,80,127,1507189268
2016,18,Jits_Linear_8,0,5,56,103,1507848516
2016,18,Jits_Linear_8,1,5,80,127,1507851724
2016,18,Jits_Linear_8,2,1,48,52,1507908324
2016,18,Jits_Linear_8,3,5,63,98,1507969376
2016,18,Jits_Linear_8,0,1,48,48,1508699044
2016,18,Jits_Linear_8,1,5,56,103,1508729140
2016,18,Jits_Linear_8,2,5,80,127,1508769236
2016,18,Jits_Linear_8,3,5,63,98,1508779268
2016,18,Jits_Linear_8,0,5,56,103,1509489208
2016,18,Jits_Linear_8,1,1,48,45,1509501004
2016,18,Jits_Linear_8,2,5,80,127,1509508432
2016,18,Jits_Linear_8,3,5,63,98,1509589460
2016,18,Jits_Linear_8,0,5,80,127,1510278380
2016,18,Jits_Linear_8,1,1,48,49,1510302432
2016,18,Jits_Linear_8,2,5,56,103,1510379148
2016,18,Jits_Linear_8,3,5,63,98,1510389180
2016,18,Jits_Linear_8,0,5,63,98,1511048552
2016,18,Jits_Linear_8,1,5,80,127,1511109092
2016,18,Jits_Linear_8,2,5,56,103,1511119348
2016,18,Jits_Linear_8,3,1,48,41,1511175332
2016,18,Jits_Linear_8,0,1,48,44,1511842976
2016,18,Jits_Linear_8,1,5,56,103,1511849436
2016,18,Jits_Linear_8,2,5,63,98,1511919104
2016,18,Jits_Linear_8,3,5,80,127,1511922388
2016,18,Jits_Linear_8,0,1,48,36,1512618956
2016,18,Jits_Linear_8,1,5,63,98,1512678844
2016,18,Jits_Linear_8,2,5,56,103,1512728948
2016,18,Jits_Linear_8,3,5,80,127,1512732084
2016,18,Jits_Linear_8,0,5,56,103,1513429320
2016,18,Jits_Linear_8,1,5,80,127,1513432456
2016,18,Jits_Linear_8,2,1,48,40,1513453004
2016,18,Jits_Linear_8,3,5,63,98,1513518400
2016,18,Jits_Linear_8,0,1,48,42,1514205640
2016,18,Jits_Linear_8,1,5,63,98,1514258780
2016,18,Jits_Linear_8,2,5,56,103,1514348976
2016,18,Jits_Linear_8,3,5,80,127,1514378752
2016,18,Jits_Linear_8,0,5,56,103,1515039048
2016,18,Jits_Linear_8,1,1,48,45,1515064816
2016,18,Jits_Linear_8,2,5,63,98,1515138376
2016,18,Jits_Linear_8,3,5,80,127,1515169180
2016,18,Jits_Linear_8,0,1,48,44,1515809868
2016,18,Jits_Linear_8,1,5,63,98,1515848936
2016,18,Jits_Linear_8,2,5,56,103,1515859188
2016,18,Jits_Linear_8,3,5,80,127,1515949528
2016,18,Jits_Linear_8,0,1,48,37,1516640232
2016,18,Jits_Linear_8,1,5,63,98,1516648936
2016,18,Jits_Linear_8,2,5,56,103,1516728924
2016,18,Jits_Linear_8,3,5,80,127,1516731984
2016,18,Jits_Linear_8,0,5,80,127,1517389104
2016,18,Jits_Linear_8,1,5,63,98,1517408780
2016,18,Jits_Linear_8,2,1,48,39,1517459020
2016,18,Jits_Linear_8,3,5,56,103,1517469140
2016,18,Jits_Linear_8,0,1,48,43,1518162672
2016,18,Jits_Linear_8,1,5,56,103,1518209380
2016,18,Jits_Linear_8,2,5,63,98,1518228980
2016,18,Jits_Linear_8,3,5,80,127,1518232340
2016,18,Jits_Linear_8,0,1,48,52,1518873660
2016,18,Jits_Linear_8,1,5,63,98,1518929188
2016,18,Jits_Linear_8,2,5,80,127,1519009212
2016,18,Jits_Linear_8,3,5,56,103,1519019760
2016,18,Jits_Linear_8,0,1,48,36,1519648832
2016,18,Jits_Linear_8,1,5,63,98,1519729112
2016,18,Jits_Linear_8,2,5,56,103,1519748404
2016,18,Jits_Linear_8,3,5,80,127,1519798768
2016,18,Jits_Linear_8,0,1,48,39,1520480540
2016,18,Jits_Linear_8,1,5,80,127,1520509288
2016,18,Jits_Linear_8,2,5,63,98,1520549236
2016,18,Jits_Linear_8,3,5,56,103,1520568640
2016,18,Jits_Linear_8,0,1,48,34,1521220024
2016,18,Jits_Linear_8,1,5,56,103,1521319440
2016,18,Jits_Linear_8,2,5,63,98,1521328576
2016,18,Jits_Linear_8,3,5,80,127,1521348852
2016,18,Jits_Linear_8,0,5,56,103,1522018612
2016,18,Jits_Linear_8,1,1,48,34,1522050968
2016,18,Jits_Linear_8,2,5,63,98,1522108764
2016,18,Jits_Linear_8,3,5,80,127,1522169560
2016,18,Jits_Linear_8,0,1,48,42,1522780968
2016,18,Jits_Linear_8,1,5,80,127,1522828568
2016,18,Jits_Linear_8,2,5,56,103,1522838748
2016,18,Jits_Linear_8,3,5,63,98,1522908548
2016,18,Jits_Linear_8,0,1,48,40,1523612380
2016,18,Jits_Linear_8,1,5,63,98,1523629316
2016,18,Jits_Linear_8,2,5,80,127,1523718564
2016,18,Jits_Linear_8,3,5,56,103,1523728816
2016,18,Jits_Linear_8,0,5,63,98,1524328728
2016,18,Jits_Linear_8,1,5,80,127,1524378924
2016,18,Jits_Linear_8,2,5,56,103,1524439608
2016,18,Jits_Linear_8,3,1,48,22,1524508916
2016,18,Jits_Linear_8,0,1,48,48,1525063312
2016,18,Jits_Linear_8,1,5,56,103,1525119368
2016,18,Jits_Linear_8,2,5,80,127,1525168428
2016,18,Jits_Linear_8,3,5,63,98,1525188852
2016,18,Jits_Linear_8,0,1,48,48,1525778996
2016,18,Jits_Linear_8,1,5,56,103,1525858536
2016,18,Jits_Linear_8,2,5,80,127,1525919036
2016,18,Jits_Linear_8,3,5,63,98,1525988624
2016,18,Jits_Linear_8,0,1,48,43,1526565668
2016,18,Jits_Linear_8,1,5,56,103,1526618588
2016,18,Jits_Linear_8,2,5,80,127,1526649484
2016,18,Jits_Linear_8,3,5,63,98,1526678948
2016,18,Jits_Linear_8,0,1,48,50,1527243592
2016,18,Jits_Linear_8,1,5,56,103,1527419316
2016,18,Jits_Linear_8,2,5,80,127,1527438844
2016,18,Jits_Linear_8,3,5,63,98,1527499384
2016,18,Jits_Linear_8,0,1,48,55,1528064320
2016,18,Jits_Linear_8,1,5,80,127,1528258916
2016,18,Jits_Linear_8,2,5,56,103,1528269244
2016,18,Jits_Linear_8,3,5,63,98,1528279276
2016,18,Jits_Linear_8,0,1,48,50,1528906980
2016,18,Jits_Linear_8,1,5,56,103,1528968484
2016,18,Jits_Linear_8,2,5,80,127,1529008740
2016,18,Jits_Linear_8,3,5,63,98,1529039264
2016,18,Jits_Linear_8,0,5,56,103,1529688316
2016,18,Jits_Linear_8,1,5,63,98,1529719284
2016,18,Jits_Linear_8,2,5,80,127,1529759232
2016,18,Jits_Linear_8,3,1,48,51,1529781300
2016,18,Jits_Linear_8,0,5,80,127,1530389000
2016,18,Jits_Linear_8,1,5,63,98,1530439124
2016,18,Jits_Linear_8,2,1,48,43,1530450244
2016,18,Jits_Linear_8,3,5,56,103,1530458420
2016,18,Jits_Linear_8,0,1,48,36,1531130040
2016,18,Jits_Linear_8,1,5,56,103,1531169036
2016,18,Jits_Linear_8,2,5,80,127,1531238664
2016,18,Jits_Linear_8,3,5,63,98,1531299248
2016,18,Jits_Linear_8,0,5,80,127,1531908392
2016,18,Jits_Linear_8,1,1,48,18,1531911580
2016,18,Jits_Linear_8,2,5,63,98,1531998520
2016,18,Jits_Linear_8,3,5,56,103,1532019004
2016,18,Jits_Linear_8,0,1,48,31,1532627960
2016,18,Jits_Linear_8,1,5,63,98,1532669424
2016,18,Jits_Linear_8,2,5,56,103,1532688804
2016,18,Jits_Linear_8,3,5,80,127,1532728808
2016,18,Jits_Linear_8,0,5,80,127,1533368684
2016,18,Jits_Linear_8,1,1,48,30,1533370620
2016,18,Jits_Linear_8,2,5,63,98,1533389176
2016,18,Jits_Linear_8,3,5,56,103,1533469120
2016,18,Jits_Linear_8,0,1,48,21,1534073488
2016,18,Jits_Linear_8,1,5,63,98,1534098952
2016,18,Jits_Linear_8,2,5,56,103,1534209364
2016,18,Jits_Linear_8,3,5,80,127,1534212500
2016,18,Jits_Linear_8,0,1,48,23,1534744448
2016,18,Jits_Linear_8,1,5,63,98,1534858764
2016,18,Jits_Linear_8,2,5,56,103,1534868792
2016,18,Jits_Linear_8,3,5,80,127,1534872004
2016,18,Jits_Linear_8,0,1,48,22,1535535540
2016,18,Jits_Linear_8,1,5,56,103,1535578656
2016,18,Jits_Linear_8,2,5,80,127,1535699168
2016,18,Jits_Linear_8,3,5,63,98,1535739116
2016,18,Jits_Linear_8,0,5,56,103,1536329008
2016,18,Jits_Linear_8,1,5,80,127,1536408972
2016,18,Jits_Linear_8,2,5,63,98,1536429396
2016,18,Jits_Linear_8,3,1,48,28,1536573800
2016,18,Jits_Linear_8,0,5,56,103,1537059304
2016,18,Jits_Linear_8,1,1,48,22,1537081340
2016,18,Jits_Linear_8,2,5,63,98,1537168804
2016,18,Jits_Linear_8,3,5,80,127,1537173044
2016,18,Jits_Linear_8,0,5,56,103,1537819076
2016,18,Jits_Linear_8,1,1,48,43,1537840668
2016,18,Jits_Linear_8,2,5,80,127,1537848844
2016,18,Jits_Linear_8,3,5,63,98,1537869120
2016,18,Jits_Linear_8,0,1,48,43,1538497144
2016,18,Jits_Linear_8,1,5,63,98,1538528880
2016,18,Jits_Linear_8,2,5,56,103,1538538836
2016,18,Jits_Linear_8,3,5,80,127,1538549088
2016,18,Jits_Linear_8,0,1,48,44,1539201520
2016,18,Jits_Linear_8,1,5,80,127,1539239244
2016,18,Jits_Linear_8,2,5,56,103,1539288420
2016,18,Jits_Linear_8,3,5,63,98,1539329324
2016,18,Jits_Linear_8,0,5,80,127,1539978592
2016,18,Jits_Linear_8,1,1,48,50,1539997048
2016,18,Jits_Linear_8,2,5,63,98,1539999012
2016,18,Jits_Linear_8,3,5,56,103,1540049376
2016,18,Jits_Linear_8,0,5,80,127,1540708820
2016,18,Jits_Linear_8,1,1,48,49,1540711336
2016,18,Jits_Linear_8,2,5,56,103,1540738664
2016,18,Jits_Linear_8,3,5,63,98,1540809004
2016,18,Jits_Linear_8,0,1,48,50,1541434380
2016,18,Jits_Linear_8,1,5,56,103,1541478840
2016,18,Jits_Linear_8,2,5,80,127,1541488948
2016,18,Jits_Linear_8,3,5,63,98,1541528892
2016,18,Jits_Linear_8,0,5,56,103,1542108616
2016,18,Jits_Linear_8,1,5,63,98,1542129044
2016,18,Jits_Linear_8,2,1,48,40,1542187956
2016,18,Jits_Linear_8,3,5,80,127,1542198676
2016,18,Jits_Linear_8,0,1,48,40,1542758084
2016,18,Jits_Linear_8,1,5,63,98,1542848864
2016,18,Jits_Linear_8,2,5,80,127,1542909436
2016,18,Jits_Linear_8,3,5,56,103,1542928668
2016,18,Jits_Linear_8,0,1,48,39,1543513572
2016,18,Jits_Linear_8,1,5,80,127,1543549432
2016,18,Jits_Linear_8,2,5,56,103,1543578984
2016,18,Jits_Linear_8,3,5,63,98,1543608620
2016,18,Jits_Linear_8,0,1,48,46,1544143780
2016,18,Jits_Linear_8,1,5,56,103,1544259064
2016,18,Jits_Linear_8,2,5,63,98,1544319508
2016,18,Jits_Linear_8,3,5,80,127,1544378700
2016,18,Jits_Linear_8,0,1,48,35,1544898468
2016,18,Jits_Linear_8,1,5,80,127,1544990180
2016,18,Jits_Linear_8,2,5,56,103,1545008444
2016,18,Jits_Linear_8,3,5,63,98,1545079276
2016,18,Jits_Linear_8,0,1,48,40,1545679772
2016,18,Jits_Linear_8,1,5,80,127,1545698872
2016,18,Jits_Linear_8,2,5,63,98,1545719228
2016,18,Jits_Linear_8,3,5,56,103,1545748852
2016,18,Jits_Linear_8,0,5,80,127,1546388984
2016,18,Jits_Linear_8,1,1,48,39,1546401296
2016,18,Jits_Linear_8,2,5,63,98,1546409400
2016,18,Jits_Linear_8,3,5,56,103,1546468672
2016,18,Jits_Linear_8,0,1,48,46,1547074220
2016,18,Jits_Linear_8,1,5,80,127,1547089288
2016,18,Jits_Linear_8,2,5,56,103,1547188484
2016,18,Jits_Linear_8,3,5,63,98,1547219452
2016,18,Jits_Linear_8,0,5,63,98,1547778380
2016,18,Jits_Linear_8,1,5,80,127,1547828652
2016,18,Jits_Linear_8,2,1,48,25,1547840068
2016,18,Jits_Linear_8,3,5,56,103,1547849440
2016,18,Jits_Linear_8,0,1,48,32,1548474296
2016,18,Jits_Linear_8,1,5,80,127,1548518912
2016,18,Jits_Linear_8,2,5,56,103,1548548536
2016,18,Jits_Linear_8,3,5,63,98,1548551524
2016,18,Jits_Linear_8,0,1,48,36,1549156160
2016,18,Jits_Linear_8,1,5,63,98,1549249556
2016,18,Jits_Linear_8,2,5,56,103,1549288756
2016,18,Jits_Linear_8,3,5,80,127,1549309404
2016,18,Jits_Linear_8,0,5,80,127,1549889048
2016,18,Jits_Linear_8,1,1,48,41,1549914300
2016,18,Jits_Linear_8,2,5,63,98,1549968856
2016,18,Jits_Linear_8,3,5,56,103,1550008604
2016,18,Jits_Linear_8,0,5,63,98,1550598572
2016,18,Jits_Linear_8,1,1,48,48,1550613648
2016,18,Jits_Linear_8,2,5,80,127,1550679348
2016,18,Jits_Linear_8,3,5,56,103,1550698952
2016,18,Jits_Linear_8,0,1,48,46,1551327444
2016,18,Jits_Linear_8,1,5,56,103,1551329160
2016,18,Jits_Linear_8,2,5,63,98,1551339116
2016,18,Jits_Linear_8,3,5,80,127,1551378768
2016,18,Jits_Linear_8,0,5,56,103,1551939168
2016,18,Jits_Linear_8,1,5,80,127,1551942156
2016,18,Jits_Linear_8,2,1,48,55,1551990004
2016,18,Jits_Linear_8,3,5,63,98,1552079204
2016,18,Jits_Linear_8,0,5,56,103,1552618980
2016,18,Jits_Linear_8,1,1,48,40,1552660464
2016,18,Jits_Linear_8,2,5,63,98,1552709108
2016,18,Jits_Linear_8,3,5,80,127,1552778584
2016,18,Jits_Linear_8,0,1,48,47,1553301740
2016,18,Jits_Linear_8,1,5,63,98,1553378608
2016,18,Jits_Linear_8,2,5,80,127,1553381820
2016,18,Jits_Linear_8,3,5,56,103,1553439252
2016,18,Jits_Linear_8,0,1,48,45,1553913544
2016,18,Jits_Linear_8,1,5,80,127,1554098712
2016,18,Jits_Linear_8,2,5,56,103,1554119212
2016,18,Jits_Linear_8,3,5,63,98,1554129244
2016,18,Jits_Linear_8,0,1,48,26,1554610424
2016,18,Jits_Linear_8,1,5,56,103,1554689360
2016,18,Jits_Linear_8,2,5,63,98,1554698568
2016,18,Jits_Linear_8,3,5,80,127,1554769240
2016,18,Jits_Linear_8,0,1,48,27,1555297160
2016,18,Jits_Linear_8,1,5,80,127,1555369216
2016,18,Jits_Linear_8,2,5,56,103,1555418452
2016,18,Jits_Linear_8,3,5,63,98,1555468716
2016,18,Jits_Linear_8,0,1,48,38,1556055640
2016,18,Jits_Linear_8,1,5,56,103,1556129132
2016,18,Jits_Linear_8,2,5,63,98,1556139312
2016,18,Jits_Linear_8,3,5,80,127,1556179268
2016,18,Jits_Linear_8,0,5,56,103,1556748592
2016,18,Jits_Linear_8,1,1,48,48,1556777888
2016,18,Jits_Linear_8,2,5,63,98,1556788460
2016,18,Jits_Linear_8,3,5,80,127,1556838952
2016,18,Jits_Linear_8,0,5,80,127,1557378284
2016,18,Jits_Linear_8,1,5,56,103,1557428652
2016,18,Jits_Linear_8,2,5,63,98,1557449004
2016,18,Jits_Linear_8,0,1,48,31,1558035048
2016,18,Jits_Linear_8,1,5,80,127,1558059240
2016,18,Jits_Linear_8,2,5,63,98,1558118936
2016,18,Jits_Linear_8,3,5,56,103,1558199052
2016,18,Jits_Linear_8,0,5,80,127,1558708616
2016,18,Jits_Linear_8,1,5,56,103,1558748492
2016,18,Jits_Linear_8,2,5,63,98,1558769140
2016,18,Jits_Linear_8,3,1,48,30,1558801872
2016,18,Jits_Linear_8,0,5,56,103,1559428432
2016,18,Jits_Linear_8,1,5,80,127,1559438984
2016,18,Jits_Linear_8,2,1,48,19,1559471444
2016,18,Jits_Linear_8,3,5,63,98,1559478872
2016,18,Jits_Linear_8,0,1,48,35,1560075676
2016,18,Jits_Linear_8,1,5,56,103,1560158736
2016,18,Jits_Linear_8,2,5,63,98,1560198448
2016,18,Jits_Linear_8,3,5,80,127,1560201952
2016,18,Jits_Linear_8,0,5,63,98,1560708752
2016,18,Jits_Linear_8,1,5,80,127,1560749596
2016,18,Jits_Linear_8,2,1,48,21,1560793988
2016,18,Jits_Linear_8,3,5,56,103,1560819156
2016,18,Jits_Linear_8,0,5,63,98,1561358840
2016,18,Jits_Linear_8,1,1,48,35,1561359804
2016,18,Jits_Linear_8,2,5,56,103,1561438796
2016,18,Jits_Linear_8,3,5,80,127,1561498920
2016,18,Jits_Linear_8,0,1,48,32,1561945156
2016,18,Jits_Linear_8,1,5,80,127,1562029484
2016,18,Jits_Linear_8,2,5,63,98,1562078768
2016,18,Jits_Linear_8,3,5,56,103,1562109292
2016,18,Jits_Linear_8,0,1,48,25,1562605556
2016,18,Jits_Linear_8,1,5,56,103,1562678748
2016,18,Jits_Linear_8,2,5,63,98,1562728780
2016,18,Jits_Linear_8,3,5,80,127,1562739032
2016,18,Jits_Linear_8,0,5,56,103,1563349284
2016,18,Jits_Linear_8,1,5,63,98,1563458796
2016,18,Jits_Linear_8,2,5,80,127,1563479592
2016,18,Jits_Linear_8,0,1,48,24,1563970436
2016,18,Jits_Linear_8,1,5,63,98,1563998664
2016,18,Jits_Linear_8,2,5,80,127,1564048712
2016,18,Jits_Linear_8,3,5,56,103,1564138852
2016,18,Jits_Linear_8,0,5,63,98,1564638464
2016,18,Jits_Linear_8,1,1,48,37,1564648912
2016,18,Jits_Linear_8,2,5,80,127,1564669576
2016,18,Jits_Linear_8,3,5,56,103,1564759616
2016,18,Jits_Linear_8,0,5,63,98,1565288776
2016,18,Jits_Linear_8,1,5,56,103,1565299028
2016,18,Jits_Linear_8,2,1,48,36,1565337828
2016,18,Jits_Linear_8,3,5,80,127,1565399500
2016,18,Jits_Linear_8,0,1,48,45,1565869736
2016,18,Jits_Linear_8,1,5,63,98,1566039540
2016,18,Jits_Linear_8,2,5,80,127,1566069096
2016,18,Jits_Linear_8,3,5,56,103,1566098720
2016,18,Jits_Linear_8,0,1,48,30,1566568540
2016,18,Jits_Linear_8,1,5,80,127,1566698868
2016,18,Jits_Linear_8,2,5,63,98,1566709196
2016,18,Jits_Linear_8,3,5,56,103,1566738820
2016,18,Jits_Linear_8,0,5,80,127,1567238508
2016,18,Jits_Linear_8,1,5,63,98,1567259156
2016,18,Jits_Linear_8,2,5,56,103,1567309128
2016,18,Jits_Linear_8,3,1,48,36,1567351432
2016,18,Jits_Linear_8,0,5,63,98,1567909252
2016,18,Jits_Linear_8,1,5,80,127,1567968748
2016,18,Jits_Linear_8,2,5,56,103,1567989320
2016,18,Jits_Linear_8,3,1,48,41,1568000144
2016,18,Jits_Linear_8,0,5,63,98,1568509408
2016,18,Jits_Linear_8,1,5,56,103,1568558408
2016,18,Jits_Linear_8,2,5,80,127,1568568660
2016,18,Jits_Linear_8,3,1,48,40,1568609172
2016,18,Jits_Linear_8,0,5,56,103,1569179092
2016,18,Jits_Linear_8,1,5,80,127,1569189420
2016,18,Jits_Linear_8,2,1,48,40,1569264804
2016,18,Jits_Linear_8,3,5,63,98,1569288696
2016,18,Jits_Linear_8,0,5,80,127,1569779256
2016,18,Jits_Linear_8,1,5,63,98,1569789288
2016,18,Jits_Linear_8,2,1,48,47,1569804064
2016,18,Jits_Linear_8,3,5,56,103,1569938932
2016,18,Jits_Linear_8,0,5,63,98,1570419260
2016,18,Jits_Linear_8,1,5,80,127,1570459208
2016,18,Jits_Linear_8,2,1,48,41,1570509396
2016,18,Jits_Linear_8,3,5,56,103,1570538816
2016,18,Jits_Linear_8,0,5,56,103,1571038564
2016,18,Jits_Linear_8,1,1,48,45,1571112356
2016,18,Jits_Linear_8,2,5,80,127,1571138864
2016,18,Jits_Linear_8,3,5,63,98,1571159360
2016,18,Jits_Linear_8,0,1,48,42,1571690808
2016,18,Jits_Linear_8,1,5,80,127,1571728680
2016,18,Jits_Linear_8,2,5,56,103,1571739232
2016,18,Jits_Linear_8,3,5,63,98,1571829372
2016,18,Jits_Linear_8,0,1,48,43,1572336128
2016,18,Jits_Linear_8,1,5,56,103,1572358608
2016,18,Jits_Linear_8,2,5,63,98,1572379108
2016,18,Jits_Linear_8,3,5,80,127,1572459124
2016,18,Jits_Linear_8,0,5,63,98,1572928828
2016,18,Jits_Linear_8,1,1,48,37,1572982200
2016,18,Jits_Linear_8,2,5,56,103,1573019100
2016,18,Jits_Linear_8,3,5,80,127,1573022236
2016,18,Jits_Linear_8,0,5,56,103,1573579076
2016,18,Jits_Linear_8,1,1,48,36,1573614124
2016,18,Jits_Linear_8,2,5,80,127,1573638612
2016,18,Jits_Linear_8,3,5,63,98,1573648940
2016,18,Jits_Linear_8,0,1,48,39,1574212164
2016,18,Jits_Linear_8,1,5,80,127,1574248920
2016,18,Jits_Linear_8,2,5,56,103,1574259100
2016,18,Jits_Linear_8,3,5,63,98,1574262164
2016,18,Jits_Linear_8,0,1,48,45,1574794704
2016,18,Jits_Linear_8,1,5,56,103,1574829392
2016,18,Jits_Linear_8,2,5,80,127,1574838604
2016,18,Jits_Linear_8,3,5,63,98,1574859176
2016,18,Jits_Linear_8,0,1,48,44,1575392536
2016,18,Jits_Linear_8,1,5,63,98,1575419344
2016,18,Jits_Linear_8,2,5,80,127,1575478592
2016,18,Jits_Linear_8,3,5,56,103,1575528768
2016,18,Jits_Linear_8,0,1,48,43,1575991092
2016,18,Jits_Linear_8,1,5,63,98,1576118592
2016,18,Jits_Linear_8,2,5,56,103,1576128844
2016,18,Jits_Linear_8,3,5,80,127,1576178964
2016,18,Jits_Linear_8,0,5,63,98,1576628540
2016,18,Jits_Linear_8,1,5,80,127,1576649188
2016,18,Jits_Linear_8,2,5,56,103,1576659292
2016,18,Jits_Linear_8,3,1,48,44,1576674888
2016,18,Jits_Linear_8,0,1,48,44,1577234148
2016,18,Jits_Linear_8,1,5,63,98,1577239040
2016,18,Jits_Linear_8,2,5,80,127,1577242328
2016,18,Jits_Linear_8,3,5,56,103,1577278988
2016,18,Jits_Linear_8,0,1,48,51,1577786080
2016,18,Jits_Linear_8,1,5,63,98,1577919044
2016,18,Jits_Linear_8,2,5,80,127,1577948524
2016,18,Jits_Linear_8,3,5,56,103,1577958852
2016,18,Jits_Linear_8,0,1,48,49,1578479028
2016,18,Jits_Linear_8,1,5,56,103,1578480740
2016,18,Jits_Linear_8,2,5,80,127,1578508872
2016,18,Jits_Linear_8,3,5,63,98,1578539320
2016,18,Jits_Linear_8,0,1,48,45,1579068428
2016,18,Jits_Linear_8,1,5,63,98,1579179360
2016,18,Jits_Linear_8,2,5,56,103,1579219176
2016,18,Jits_Linear_8,3,5,80,127,1579222468
2016,18,Jits_Linear_8,0,5,80,127,1579679056
2016,18,Jits_Linear_8,1,1,48,48,1579709048
2016,18,Jits_Linear_8,2,5,56,103,1579758964
2016,18,Jits_Linear_8,3,5,63,98,1579808992
2016,18,Jits_Linear_8,0,5,80,127,1580258728
2016,18,Jits_Linear_8,1,5,56,103,1580279080
2016,18,Jits_Linear_8,2,1,48,40,1580346280
2016,18,Jits_Linear_8,3,5,63,98,1580369280
2016,18,Jits_Linear_8,0,5,80,127,1580898808
2016,18,Jits_Linear_8,1,5,63,98,1580938680
2016,18,Jits_Linear_8,2,1,48,43,1580972484
2016,18,Jits_Linear_8,3,5,56,103,1580978496
2016,18,Jits_Linear_8,0,5,63,98,1581469104
2016,18,Jits_Linear_8,1,1,48,44,1581524148
2016,18,Jits_Linear_8,2,5,80,127,1581528368
2016,18,Jits_Linear_8,3,5,56,103,1581559264
2016,18,Jits_Linear_8,0,1,48,44,1582061592
2016,18,Jits_Linear_8,1,5,56,103,1582069096
2016,18,Jits_Linear_8,2,5,80,127,1582098800
2016,18,Jits_Linear_8,3,5,63,98,1582188988
2016,18,Jits_Linear_8,0,5,56,103,1582669232
2016,18,Jits_Linear_8,1,1,48,39,1582758588
2016,18,Jits_Linear_8,2,5,80,127,1582778684
2016,18,Jits_Linear_8,3,5,63,98,1582808384
2016,18,Jits_Linear_8,0,5,56,103,1583309188
2016,18,Jits_Linear_8,1,5,63,98,1583368660
2016,18,Jits_Linear_8,2,1,48,40,1583390472
2016,18,Jits_Linear_8,3,5,80,127,1583399324
2016,18,Jits_Linear_8,0,5,56,103,1583869172
2016,18,Jits_Linear_8,1,1,48,43,1583929436
2016,18,Jits_Linear_8,2,5,63,98,1583938880
2016,18,Jits_Linear_8,3,5,80,127,1583959604
2016,18,Jits_Linear_8,0,5,80,127,1584429524
2016,18,Jits_Linear_8,1,5,63,98,1584448832
2016,18,Jits_Linear_8,2,1,48,43,1584467136
2016,18,Jits_Linear_8,3,5,56,103,1584498940
2016,18,Jits_Linear_8,0,5,63,98,1585028616
2016,18,Jits_Linear_8,1,5,80,127,1585038720
2016,18,Jits_Linear_8,2,1,48,40,1585044524
2016,18,Jits_Linear_8,3,5,56,103,1585088856
2016,18,Jits_Linear_8,0,1,48,38,1585584444
2016,18,Jits_Linear_8,1,5,63,98,1585609012
2016,18,Jits_Linear_8,2,5,80,127,1585678860
2016,18,Jits_Linear_8,3,5,56,103,1585699140
2016,18,Jits_Linear_8,0,1,48,29,1586157208
2016,18,Jits_Linear_8,1,5,63,98,1586219608
2016,18,Jits_Linear_8,2,5,80,127,1586222820
2016,18,Jits_Linear_8,3,5,56,103,1586288860
2016,18,Jits_Linear_8,0,5,80,127,1586748904
2016,18,Jits_Linear_8,1,5,56,103,1586769480
2016,18,Jits_Linear_8,2,1,48,33,1586776348
2016,18,Jits_Linear_8,3,5,63,98,1586778532
2016,18,Jits_Linear_8,0,5,56,103,1587348812
2016,18,Jits_Linear_8,1,1,48,34,1587351400
2016,18,Jits_Linear_8,2,5,63,98,1587438888
2016,18,Jits_Linear_8,3,5,80,127,1587443128
2016,18,Jits_Linear_8,0,1,48,33,1587889400
2016,18,Jits_Linear_8,1,5,80,127,1587898772
2016,18,Jits_Linear_8,2,5,56,103,1587909100
2016,18,Jits_Linear_8,3,5,63,98,1587928628
2016,18,Jits_Linear_8,0,5,63,98,1588469132
2016,18,Jits_Linear_8,1,1,48,33,1588475456
2016,18,Jits_Linear_8,2,5,80,127,1588528596
2016,18,Jits_Linear_8,3,5,56,103,1588538776
2016,18,Jits_Linear_8,0,1,48,27,1588939008
2016,18,Jits_Linear_8,1,5,63,98,1589109180
2016,18,Jits_Linear_8,2,5,80,127,1589138736
2016,18,Jits_Linear_8,3,5,56,103,1589178704
2016,18,Jits_Linear_8,0,5,56,103,1589669392
2016,18,Jits_Linear_8,1,5,80,127,1589678480
2016,18,Jits_Linear_8,2,5,63,98,1589719396
2016,18,Jits_Linear_8,3,1,48,35,1589761920
2016,18,Jits_Linear_8,0,5,80,127,1590198580
2016,18,Jits_Linear_8,1,1,48,41,1590271628
2016,18,Jits_Linear_8,2,5,56,103,1590278464
2016,18,Jits_Linear_8,3,5,63,98,1590288716
2016,18,Jits_Linear_8,0,5,80,127,1590809196
2016,18,Jits_Linear_8,1,1,48,45,1590864964
2016,18,Jits_Linear_8,2,5,56,103,1590888784
2016,18,Jits_Linear_8,3,5,63,98,1590899480
2016,18,Jits_Linear_8,0,5,80,127,1591329168
2016,18,Jits_Linear_8,1,5,56,103,1591379364
2016,18,Jits_Linear_8,2,1,48,49,1591415832
2016,18,Jits_Linear_8,3,5,63,98,1591428580
2016,18,Jits_Linear_8,0,5,56,103,1591948612
2016,18,Jits_Linear_8,1,5,63,98,1591951748
2016,18,Jits_Linear_8,2,5,80,127,1591998828
2016,18,Jits_Linear_8,3,1,48,41,1592002616
2016,18,Jits_Linear_8,0,5,56,103,1592529404
2016,18,Jits_Linear_8,1,1,48,36,1592547488
2016,18,Jits_Linear_8,2,5,63,98,1592558952
2016,18,Jits_Linear_8,3,5,80,127,1592569132
2016,18,Jits_Linear_8,0,5,63,98,1592999236
2016,18,Jits_Linear_8,1,5,56,103,1593069124
2016,18,Jits_Linear_8,2,1,48,45,1593092360
2016,18,Jits_Linear_8,3,5,80,127,1593119236
2016,18,Jits_Linear_8,0,5,63,98,1593589144
2016,18,Jits_Linear_8,1,5,56,103,1593599396
2016,18,Jits_Linear_8,2,5,80,127,1593602308
2016,18,Jits_Linear_8,3,1,48,40,1593679768
2016,18,Jits_Linear_8,0,5,80,127,1594089184
2016,18,Jits_Linear_8,1,5,56,103,1594149180
2016,18,Jits_Linear_8,2,1,48,43,1594234704
2016,18,Jits_Linear_8,3,5,63,98,1594239376
2016,18,Jits_Linear_8,0,5,80,127,1594638768
2016,18,Jits_Linear_8,1,5,56,103,1594739296
2016,18,Jits_Linear_8,2,1,48,44,1594773748
2016,18,Jits_Linear_8,3,5,63,98,1594779088
2016,18,Jits_Linear_8,0,5,56,103,1595238912
2016,18,Jits_Linear_8,1,5,63,98,1595259192
2016,18,Jits_Linear_8,2,5,80,127,1595299288
2016,18,Jits_Linear_8,3,1,48,51,1595344380
2016,18,Jits_Linear_8,0,5,63,98,1595759028
2016,18,Jits_Linear_8,1,5,56,103,1595778408
2016,18,Jits_Linear_8,2,1,48,42,1595870024
2016,18,Jits_Linear_8,3,5,80,127,1595878728
2016,18,Jits_Linear_8,0,5,63,98,1596289376
2016,18,Jits_Linear_8,1,1,48,43,1596360428
2016,18,Jits_Linear_8,2,5,80,127,1596399048
2016,18,Jits_Linear_8,3,5,56,103,1596428676
2016,18,Jits_Linear_8,0,1,48,39,1596820212
2016,18,Jits_Linear_8,1,5,56,103,1596848464
2016,18,Jits_Linear_8,2,5,63,98,1596879212
2016,18,Jits_Linear_8,3,5,80,127,1596929316
2016,18,Jits_Linear_8,0,1,48,43,1597335960
2016,18,Jits_Linear_8,1,5,63,98,1597358388
2016,18,Jits_Linear_8,2,5,56,103,1597389208
2016,18,Jits_Linear_8,3,5,80,127,1597439312
2016,18,Jits_Linear_8,0,1,48,44,1597857116
2016,18,Jits_Linear_8,1,5,56,103,1597928820
2016,18,Jits_Linear_8,2,5,63,98,1597949392
2016,18,Jits_Linear_8,3,5,80,127,1598029188
2016,18,Jits_Linear_8,0,1,48,50,1598425764
2016,18,Jits_Linear_8,1,5,63,98,1598438964
2016,18,Jits_Linear_8,2,5,56,103,1598499108
2016,18,Jits_Linear_8,3,5,80,127,1598529092
2016,18,Jits_Linear_8,0,1,48,48,1598949608
2016,18,Jits_Linear_8,1,5,56,103,1599019416
2016,18,Jits_Linear_8,2,5,80,127,1599079096
2016,18,Jits_Linear_8,3,5,63,98,1599118968
2016,18,Jits_Linear_8,0,5,63,98,1599529352
2016,18,Jits_Linear_8,1,1,48,46,1599564696
2016,18,Jits_Linear_8,2,5,56,103,1599588892
2016,18,Jits_Linear_8,3,5,80,127,1599659484
2016,18,Jits_Linear_8,0,1,48,46,1600098764
2016,18,Jits_Linear_8,1,5,56,103,1600138804
2016,18,Jits_Linear_8,2,5,63,98,1600148836
2016,18,Jits_Linear_8,3,5,80,127,1600152492
2016,18,Jits_Linear_8,0,5,63,98,1600608788
2016,18,Jits_Linear_8,1,1,48,47,1600666872
2016,18,Jits_Linear_8,2,5,56,103,1600668920
2016,18,Jits_Linear_8,3,5,80,127,1600672060
2016,18,Jits_Linear_8,0,5,63,98,1601118556
2016,18,Jits_Linear_8,1,5,80,127,1601149228
2016,18,Jits_Linear_8,2,5,56,103,1601168832
2016,18,Jits_Linear_8,3,1,48,43,1601181000
2016,18,Jits_Linear_8,0,5,56,103,1601648972
2016,18,Jits_Linear_8,1,1,48,34,1601682152
2016,18,Jits_Linear_8,2,5,63,98,1601699232
2016,18,Jits_Linear_8,3,5,80,127,1601778980
2016,18,Jits_Linear_8,0,5,80,127,1602148732
2016,18,Jits_Linear_8,1,1,48,38,1602181168
2016,18,Jits_Linear_8,2,5,63,98,1602188748
2016,18,Jits_Linear_8,3,5,56,103,1602209100
2016,18,Jits_Linear_8,0,1,48,26,1602679132
2016,18,Jits_Linear_8,1,5,56,103,1602738644
2016,18,Jits_Linear_8,2,5,80,127,1602748900
2016,18,Jits_Linear_8,3,5,63,98,1602769176
2016,18,Jits_Linear_8,0,5,56,103,1603239424
2016,18,Jits_Linear_8,1,1,48,33,1603251544
2016,18,Jits_Linear_8,2,5,63,98,1603288296
2016,18,Jits_Linear_8,3,5,80,127,1603319264
2016,18,Jits_Linear_8,0,5,56,103,1603709204
2016,18,Jits_Linear_8,1,5,63,98,1603718488
2016,18,Jits_Linear_8,2,5,80,127,1603768924
2016,18,Jits_Linear_8,3,1,48,39,1603792160
2016,18,Jits_Linear_8,0,5,56,103,1604219284
2016,18,Jits_Linear_8,1,5,80,127,1604222492
2016,18,Jits_Linear_8,2,1,48,39,1604243188
2016,18,Jits_Linear_8,3,5,63,98,1604378976
2016,18,Jits_Linear_8,0,5,63,98,1604748884
2016,18,Jits_Linear_8,1,1,48,43,1604800648
2016,18,Jits_Linear_8,2,5,56,103,1604819368
2016,18,Jits_Linear_8,3,5,80,127,1604859240
2016,18,Jits_Linear_8,0,5,63,98,1605298632
2016,18,Jits_Linear_8,1,1,48,33,1605356260
2016,18,Jits_Linear_8,2,5,56,103,1605388832
2016,18,Jits_Linear_8,3,5,80,127,1605391968
2016,18,Jits_Linear_8,0,5,56,103,1605788936
2016,18,Jits_Linear_8,1,5,63,98,1605879096
2016,18,Jits_Linear_8,2,5,80,127,1605889348
2016,18,Jits_Linear_8,3,1,48,32,1605907652
2016,18,Jits_Linear_8,0,5,56,103,1606269256
2016,18,Jits_Linear_8,1,5,63,98,1606318728
2016,18,Jits_Linear_8,2,5,80,127,1606349104
2016,18,Jits_Linear_8,3,1,48,41,1606412496
2016,18,Jits_Linear_8,0,5,63,98,1606848936
2016,18,Jits_Linear_8,1,5,80,127,1606859188
2016,18,Jits_Linear_8,2,5,56,103,1606918656
2016,18,Jits_Linear_8,3,1,48,38,1606959616
2016,18,Jits_Linear_8,0,5,63,98,1607268708
2016,18,Jits_Linear_8,1,5,80,127,1607329152
2016,18,Jits_Linear_8,2,5,56,103,1607369196
2016,18,Jits_Linear_8,3,1,48,35,1607459592
2016,18,Jits_Linear_8,0,5,56,103,1607868712
2016,18,Jits_Linear_8,1,5,80,127,1607889360
2016,18,Jits_Linear_8,2,5,63,98,1607908668
2016,18,Jits_Linear_8,3,1,48,37,1607986576
2016,18,Jits_Linear_8,0,5,63,98,1608288728
2016,18,Jits_Linear_8,1,5,56,103,1608309080
2016,18,Jits_Linear_8,2,5,80,127,1608349100
2016,18,Jits_Linear_8,3,1,48,43,1608476756
2016,18,Jits_Linear_8,0,5,63,98,1608798428
2016,18,Jits_Linear_8,1,5,80,127,1608829548
2016,18,Jits_Linear_8,2,5,56,103,1608848780
2016,18,Jits_Linear_8,3,1,48,37,1609016908
2016,18,Jits_Linear_8,0,5,80,127,1609268564
2016,18,Jits_Linear_8,1,5,56,103,1609318684
2016,18,Jits_Linear_8,2,5,63,98,1609379120
2016,18,Jits_Linear_8,3,1,48,30,1609554044
2016,18,Jits_Linear_8,0,5,63,98,1609748884
2016,18,Jits_Linear_8,1,5,56,103,1609868860
2016,18,Jits_Linear_8,2,5,80,127,1609899560
2016,18,Jits_Linear_8,3,1,48,30,1610048812
2016,18,Jits_Linear_8,0,5,80,127,1610279528
2016,18,Jits_Linear_8,1,5,63,98,1610298612
2016,18,Jits_Linear_8,2,5,56,103,1610369520
2016,18,Jits_Linear_8,0,1,48,21,1610601248
2016,18,Jits_Linear_8,1,5,63,98,1610789328
2016,18,Jits_Linear_8,2,5,56,103,1610798536
2016,18,Jits_Linear_8,3,5,80,127,1610879688
2016,18,Jits_Linear_8,0,1,48,26,1611254812
2016,18,Jits_Linear_8,1,5,56,103,1611339068
2016,18,Jits_Linear_8,2,5,80,127,1611368904
2016,18,Jits_Linear_8,3,5,63,98,1611379008
2016,18,Jits_Linear_8,0,9999,9999,9999,1500976228
2016,18,Jits_Linear_8,1,9999,9999,9999,1501796424
2016,18,Jits_Linear_8,2,9999,9999,9999,1502616692
2016,18,Jits_Linear_8,3,9999,9999,9999,1503436908
2016,18,Jits_Linear_8,4,9999,9999,9999,1504256064
2016,18,Jits_Linear_8,5,9999,9999,9999,1505067136
2016,18,Jits_Linear_8,6,9999,9999,9999,1505886296
2016,18,Jits_Linear_8,7,9999,9999,9999,1506696256
2016,18,Jits_Linear_8,8,9999,9999,9999,1507506236
2016,18,Jits_Linear_8,9,9999,9999,9999,1508316244
2016,18,Jits_Linear_8,10,9999,9999,9999,1509117008
2016,18,Jits_Linear_8,11,9999,9999,9999,1509916784
2016,18,Jits_Linear_8,12,9999,9999,9999,1510716504
2016,18,Jits_Linear_8,13,9999,9999,9999,1511516216
2016,18,Jits_Linear_8,14,9999,9999,9999,1512317024
2016,18,Jits_Linear_8,15,9999,9999,9999,1513106540
2016,18,Jits_Linear_8,16,9999,9999,9999,1513897024
2016,18,Jits_Linear_8,17,9999,9999,9999,1514686520
2016,18,Jits_Linear_8,18,9999,9999,9999,1515477096
2016,18,Jits_Linear_8,19,9999,9999,9999,1516266572
2016,18,Jits_Linear_8,20,9999,9999,9999,1517046896
2016,18,Jits_Linear_8,21,9999,9999,9999,1517826104
2016,18,Jits_Linear_8,22,9999,9999,9999,1518606436
2016,18,Jits_Linear_8,23,9999,9999,9999,1519386692
2016,18,Jits_Linear_8,24,9999,9999,9999,1520167012
2016,18,Jits_Linear_8,25,9999,9999,9999,1520937020
2016,18,Jits_Linear_8,26,9999,9999,9999,1521707076
2016,18,Jits_Linear_8,27,9999,9999,9999,1522486352
2016,18,Jits_Linear_8,28,9999,9999,9999,1523256376
2016,18,Jits_Linear_8,29,9999,9999,9999,1524026464
2016,18,Jits_Linear_8,30,9999,9999,9999,1524786296
2016,18,Jits_Linear_8,31,9999,9999,9999,1525547076
2016,18,Jits_Linear_8,32,9999,9999,9999,1526316108
2016,18,Jits_Linear_8,33,9999,9999,9999,1527076980
2016,18,Jits_Linear_8,34,9999,9999,9999,1527836744
2016,18,Jits_Linear_8,35,9999,9999,9999,1528586344
2016,18,Jits_Linear_8,36,9999,9999,9999,1529336908
2016,18,Jits_Linear_8,37,9999,9999,9999,1530086500
2016,18,Jits_Linear_8,38,9999,9999,9999,1530837068
2016,18,Jits_Linear_8,39,9999,9999,9999,1531586676
2016,18,Jits_Linear_8,40,9999,9999,9999,1532326968
2016,18,Jits_Linear_8,41,9999,9999,9999,1533066320
2016,18,Jits_Linear_8,42,9999,9999,9999,1533806704
2016,18,Jits_Linear_8,43,9999,9999,9999,1534547020
2016,18,Jits_Linear_8,44,9999,9999,9999,1535286348
2016,18,Jits_Linear_8,45,9999,9999,9999,1536016496
2016,18,Jits_Linear_8,46,9999,9999,9999,1536746560
2016,18,Jits_Linear_8,47,9999,9999,9999,1537476704
2016,18,Jits_Linear_8,48,9999,9999,9999,1538206836
2016,18,Jits_Linear_8,49,9999,9999,9999,1538936912
2016,18,Jits_Linear_8,50,9999,9999,9999,1539656808
2016,18,Jits_Linear_8,51,9999,9999,9999,1540376700
2016,18,Jits_Linear_8,52,9999,9999,9999,1541096536
2016,18,Jits_Linear_8,53,9999,9999,9999,1541816380
2016,18,Jits_Linear_8,54,9999,9999,9999,1542536320
2016,18,Jits_Linear_8,55,9999,9999,9999,1543246952
2016,18,Jits_Linear_8,56,9999,9999,9999,1543956596
2016,18,Jits_Linear_8,57,9999,9999,9999,1544666176
2016,18,Jits_Linear_8,58,9999,9999,9999,1545376848
2016,18,Jits_Linear_8,59,9999,9999,9999,1546086496
2016,18,Jits_Linear_8,60,9999,9999,9999,1546786940
2016,18,Jits_Linear_8,61,9999,9999,9999,1547486288
2016,18,Jits_Linear_8,62,9999,9999,9999,1548186712
2016,18,Jits_Linear_8,63,9999,9999,9999,1548886104
2016,18,Jits_Linear_8,64,9999,9999,9999,1549586484
2016,18,Jits_Linear_8,65,9999,9999,9999,1550276692
2016,18,Jits_Linear_8,66,9999,9999,9999,1550966892
2016,18,Jits_Linear_8,67,9999,9999,9999,1551657028
2016,18,Jits_Linear_8,68,9999,9999,9999,1552346176
2016,18,Jits_Linear_8,69,9999,9999,9999,1553036368
2016,18,Jits_Linear_8,70,9999,9999,9999,1553716336
2016,18,Jits_Linear_8,71,9999,9999,9999,1554396228
2016,18,Jits_Linear_8,72,9999,9999,9999,1555076160
2016,18,Jits_Linear_8,73,9999,9999,9999,1555756116
2016,18,Jits_Linear_8,74,9999,9999,9999,1556437052
2016,18,Jits_Linear_8,75,9999,9999,9999,1557106744
2016,18,Jits_Linear_8,76,9999,9999,9999,1557776488
2016,18,Jits_Linear_8,77,9999,9999,9999,1558446144
2016,18,Jits_Linear_8,78,9999,9999,9999,1559116872
2016,18,Jits_Linear_8,79,9999,9999,9999,1559786600
2016,18,Jits_Linear_8,80,9999,9999,9999,1560447032
2016,18,Jits_Linear_8,81,9999,9999,9999,1561106540
2016,18,Jits_Linear_8,82,9999,9999,9999,1561767024
2016,18,Jits_Linear_8,83,9999,9999,9999,1562426456
2016,18,Jits_Linear_8,84,9999,9999,9999,1563086960
2016,18,Jits_Linear_8,85,9999,9999,9999,1563736180
2016,18,Jits_Linear_8,86,9999,9999,9999,1564386392
2016,18,Jits_Linear_8,87,9999,9999,9999,1565036624
2016,18,Jits_Linear_8,88,9999,9999,9999,1565686884
2016,18,Jits_Linear_8,89,9999,9999,9999,1566336088
2016,18,Jits_Linear_8,90,9999,9999,9999,1566976116
2016,18,Jits_Linear_8,91,9999,9999,9999,1567616104
2016,18,Jits_Linear_8,92,9999,9999,9999,1568256064
2016,18,Jits_Linear_8,93,9999,9999,9999,1568896128
2016,18,Jits_Linear_8,94,9999,9999,9999,1569536072
2016,18,Jits_Linear_8,95,9999,9999,9999,1570166876
2016,18,Jits_Linear_8,96,9999,9999,9999,1570796660
2016,18,Jits_Linear_8,97,9999,9999,9999,1571426408
2016,18,Jits_Linear_8,98,9999,9999,9999,1572056124
2016,18,Jits_Linear_8,99,9999,9999,9999,1572686920
2016,18,Jits_Linear_8,100,9999,9999,9999,1573306436
2016,18,Jits_Linear_8,101,9999,9999,9999,1573926980
2016,18,Jits_Linear_8,102,9999,9999,9999,1574546488
2016,18,Jits_Linear_8,103,9999,9999,9999,1575167052
2016,18,Jits_Linear_8,104,9999,9999,9999,1575786552
2016,18,Jits_Linear_8,105,9999,9999,9999,1576396884
2016,18,Jits_Linear_8,106,9999,9999,9999,1577006204
2016,18,Jits_Linear_8,107,9999,9999,9999,1577616480
2016,18,Jits_Linear_8,108,9999,9999,9999,1578226804
2016,18,Jits_Linear_8,109,9999,9999,9999,1578837100
2016,18,Jits_Linear_8,110,9999,9999,9999,1579436136
2016,18,Jits_Linear_8,111,9999,9999,9999,1580036188
2016,18,Jits_Linear_8,112,9999,9999,9999,1580636248
2016,18,Jits_Linear_8,113,9999,9999,9999,1581236340
2016,18,Jits_Linear_8,114,9999,9999,9999,1581836404
2016,18,Jits_Linear_8,115,9999,9999,9999,1582426208
2016,18,Jits_Linear_8,116,9999,9999,9999,1583017064
2016,18,Jits_Linear_8,117,9999,9999,9999,1583606912
2016,18,Jits_Linear_8,118,9999,9999,9999,1584196732
2016,18,Jits_Linear_8,119,9999,9999,9999,1584786548
2016,18,Jits_Linear_8,120,9999,9999,9999,1585366072
2016,18,Jits_Linear_8,121,9999,9999,9999,1585946676
2016,18,Jits_Linear_8,122,9999,9999,9999,1586526304
2016,18,Jits_Linear_8,123,9999,9999,9999,1587106900
2016,18,Jits_Linear_8,124,9999,9999,9999,1587686484
2016,18,Jits_Linear_8,125,9999,9999,9999,1588256848
2016,18,Jits_Linear_8,126,9999,9999,9999,1588826236
2016,18,Jits_Linear_8,127,9999,9999,9999,1589396604
2016,18,Jits_Linear_8,128,9999,9999,9999,1589966912
2016,18,Jits_Linear_8,129,9999,9999,9999,1590536316
2016,18,Jits_Linear_8,130,9999,9999,9999,1591096376
2016,18,Jits_Linear_8,131,9999,9999,9999,1591656508
2016,18,Jits_Linear_8,132,9999,9999,9999,1592216632
2016,18,Jits_Linear_8,133,9999,9999,9999,1592776792
2016,18,Jits_Linear_8,134,9999,9999,9999,1593336920
2016,18,Jits_Linear_8,135,9999,9999,9999,1593886776
2016,18,Jits_Linear_8,136,9999,9999,9999,1594436720
2016,18,Jits_Linear_8,137,9999,9999,9999,1594986600
2016,18,Jits_Linear_8,138,9999,9999,9999,1595536488
2016,18,Jits_Linear_8,139,9999,9999,9999,1596086392
2016,18,Jits_Linear_8,140,9999,9999,9999,1596627060
2016,18,Jits_Linear_8,141,9999,9999,9999,1597166684
2016,18,Jits_Linear_8,142,9999,9999,9999,1597706296
2016,18,Jits_Linear_8,143,9999,9999,9999,1598247036
2016,18,Jits_Linear_8,144,9999,9999,9999,1598786648
2016,18,Jits_Linear_8,145,9999,9999,9999,1599317072
2016,18,Jits_Linear_8,146,9999,9999,9999,1599846496
2016,18,Jits_Linear_8,147,9999,9999,9999,1600376912
2016,18,Jits_Linear_8,148,9999,9999,9999,1600906352
2016,18,Jits_Linear_8,149,9999,9999,9999,1601436764
2016,18,Jits_Linear_8,150,9999,9999,9999,1601956940
2016,18,Jits_Linear_8,151,9999,9999,9999,1602476092
2016,18,Jits_Linear_8,152,9999,9999,9999,1602996284
2016,18,Jits_Linear_8,153,9999,9999,9999,1603516532
2016,18,Jits_Linear_8,154,9999,9999,9999,1604036712
2016,18,Jits_Linear_8,155,9999,9999,9999,1604546640
2016,18,Jits_Linear_8,156,9999,9999,9999,1605056584
2016,18,Jits_Linear_8,157,9999,9999,9999,1605566580
2016,18,Jits_Linear_8,158,9999,9999,9999,1606076512
2016,18,Jits_Linear_8,159,9999,9999,9999,1606586448
2016,18,Jits_Linear_8,160,9999,9999,9999,1607086148
2016,18,Jits_Linear_8,161,9999,9999,9999,1607586924
2016,18,Jits_Linear_8,162,9999,9999,9999,1608086604
2016,18,Jits_Linear_8,163,9999,9999,9999,1608586300
2016,18,Jits_Linear_8,164,9999,9999,9999,1609087036
2016,18,Jits_Linear_8,165,9999,9999,9999,1609576544
2016,18,Jits_Linear_8,166,9999,9999,9999,1610067044
2016,18,Jits_Linear_8,167,9999,9999,9999,1610556480
2016,18,Jits_Linear_8,168,9999,9999,9999,1611046984
2016,18,Jits_Linear_8,169,9999,9999,9999,1611536500
2017,19,Jits_Linear_5,0,5,56,103,1625047504
2017,19,Jits_Linear_5,1,5,63,98,1625050752
2017,19,Jits_Linear_5,2,5,80,127,1625053864
2017,19,Jits_Linear_5,0,5,56,103,1625526724
2017,19,Jits_Linear_5,1,5,63,98,1625529896
2017,19,Jits_Linear_5,2,5,80,127,1625532936
2017,19,Jits_Linear_5,3,1,48,31,1625611448
2017,19,Jits_Linear_5,0,5,56,103,1626006876
2017,19,Jits_Linear_5,1,5,80,127,1626017204
2017,19,Jits_Linear_5,2,5,63,98,1626036756
2017,19,Jits_Linear_5,3,1,48,21,1626091776
2017,19,Jits_Linear_5,0,5,63,98,1626437020
2017,19,Jits_Linear_5,1,5,80,127,1626466648
2017,19,Jits_Linear_5,2,5,56,103,1626476976
2017,19,Jits_Linear_5,3,1,48,37,1626486524
2017,19,Jits_Linear_5,0,1,48,27,1626908472
2017,19,Jits_Linear_5,1,5,80,127,1626976864
2017,19,Jits_Linear_5,2,5,56,103,1626986824
2017,19,Jits_Linear_5,3,5,63,98,1627016880
2017,19,Jits_Linear_5,0,1,48,31,1627448788
2017,19,Jits_Linear_5,1,5,63,98,1627456816
2017,19,Jits_Linear_5,2,5,56,103,1627486744
2017,19,Jits_Linear_5,3,5,80,127,1627496996
2017,19,Jits_Linear_5,0,5,56,103,1627897128
2017,19,Jits_Linear_5,1,1,48,41,1627927848
2017,19,Jits_Linear_5,2,5,63,98,1627947464
2017,19,Jits_Linear_5,3,5,80,127,1627966772
2017,19,Jits_Linear_5,0,1,48,47,1628366804
2017,19,Jits_Linear_5,1,5,80,127,1628386656
2017,19,Jits_Linear_5,2,5,63,98,1628436852
2017,19,Jits_Linear_5,3,5,56,103,1628476712
2017,19,Jits_Linear_5,0,5,56,103,1628877152
2017,19,Jits_Linear_5,1,5,63,98,1628906856
2017,19,Jits_Linear_5,2,1,48,34,1628915512
2017,19,Jits_Linear_5,3,5,80,127,1628976640
2017,19,Jits_Linear_5,0,5,56,103,1629366688
2017,19,Jits_Linear_5,1,1,48,48,1629379372
2017,19,Jits_Linear_5,2,5,80,127,1629427048
2017,19,Jits_Linear_5,3,5,63,98,1629456748
2017,19,Jits_Linear_5,0,1,48,42,1629845548
2017,19,Jits_Linear_5,1,5,56,103,1629867360
2017,19,Jits_Linear_5,2,5,63,98,1629876568
2017,19,Jits_Linear_5,3,5,80,127,1629916516
2017,19,Jits_Linear_5,0,1,48,51,1630298100
2017,19,Jits_Linear_5,1,5,63,98,1630356848
2017,19,Jits_Linear_5,2,5,80,127,1630436676
2017,19,Jits_Linear_5,3,5,56,103,1630447076
2017,19,Jits_Linear_5,0,1,48,44,1630834288
2017,19,Jits_Linear_5,1,5,63,98,1630906680
2017,19,Jits_Linear_5,2,5,56,103,1630946612
2017,19,Jits_Linear_5,3,5,80,127,1630949752
2017,19,Jits_Linear_5,0,1,48,42,1631334516
2017,19,Jits_Linear_5,1,5,56,103,1631366620
2017,19,Jits_Linear_5,2,5,63,98,1631376952
2017,19,Jits_Linear_5,3,5,80,127,1631416628
2017,19,Jits_Linear_5,0,1,48,39,1631841964
2017,19,Jits_Linear_5,1,5,56,103,1631857180
2017,19,Jits_Linear_5,2,5,63,98,1631860316
2017,19,Jits_Linear_5,3,5,80,127,1631876412
2017,19,Jits_Linear_5,0,1,48,41,1632324660
2017,19,Jits_Linear_5,1,5,80,127,1632377280
2017,19,Jits_Linear_5,2,5,56,103,1632386488
2017,19,Jits_Linear_5,3,5,63,98,1632457184
2017,19,Jits_Linear_5,0,5,63,98,1632876900
2017,19,Jits_Linear_5,1,1,48,37,1632893620
2017,19,Jits_Linear_5,2,5,56,103,1632897396
2017,19,Jits_Linear_5,3,5,80,127,1632977304
2017,19,Jits_Linear_5,0,5,56,103,1633397452
2017,19,Jits_Linear_5,1,1,48,35,1633400716
2017,19,Jits_Linear_5,2,5,80,127,1633437024
2017,19,Jits_Linear_5,3,5,63,98,1633447576
2017,19,Jits_Linear_5,0,5,80,127,1633896760
2017,19,Jits_Linear_5,1,1,48,38,1633897728
2017,19,Jits_Linear_5,2,5,63,98,1633926608
2017,19,Jits_Linear_5,3,5,56,103,1633966432
2017,19,Jits_Linear_5,0,1,48,25,1634409524
2017,19,Jits_Linear_5,1,5,56,103,1634427420
2017,19,Jits_Linear_5,2,5,63,98,1634457052
2017,19,Jits_Linear_5,3,5,80,127,1634507252
2017,19,Jits_Linear_5,0,1,48,39,1634930600
2017,19,Jits_Linear_5,1,5,80,127,1634937288
2017,19,Jits_Linear_5,2,5,56,103,1634977388
2017,19,Jits_Linear_5,3,5,63,98,1634987372
2017,19,Jits_Linear_5,0,5,80,127,1635436840
2017,19,Jits_Linear_5,1,1,48,35,1635449528
2017,19,Jits_Linear_5,2,5,63,98,1635476708
2017,19,Jits_Linear_5,3,5,56,103,1635537244
2017,19,Jits_Linear_5,0,1,48,31,1635946904
2017,19,Jits_Linear_5,1,5,56,103,1635957620
2017,19,Jits_Linear_5,2,5,80,127,1635967428
2017,19,Jits_Linear_5,3,5,63,98,1636047248
2017,19,Jits_Linear_5,0,5,80,127,1636477432
2017,19,Jits_Linear_5,1,1,48,32,1636500744
2017,19,Jits_Linear_5,2,5,63,98,1636536552
2017,19,Jits_Linear_5,3,5,56,103,1636567448
2017,19,Jits_Linear_5,0,5,56,103,1636996740
2017,19,Jits_Linear_5,1,1,48,29,1637006292
2017,19,Jits_Linear_5,2,5,80,127,1637056976
2017,19,Jits_Linear_5,3,5,63,98,1637096848
2017,19,Jits_Linear_5,0,1,48,22,1637532308
2017,19,Jits_Linear_5,1,5,56,103,1637577244
2017,19,Jits_Linear_5,2,5,63,98,1637587272
2017,19,Jits_Linear_5,3,5,80,127,1637590560
2017,19,Jits_Linear_5,0,5,80,127,1638057336
2017,19,Jits_Linear_5,1,1,48,27,1638062540
2017,19,Jits_Linear_5,2,5,63,98,1638146348
2017,19,Jits_Linear_5,3,5,56,103,1638156600
2017,19,Jits_Linear_5,0,1,48,33,1638551520
2017,19,Jits_Linear_5,1,5,56,103,1638586636
2017,19,Jits_Linear_5,2,5,63,98,1638590036
2017,19,Jits_Linear_5,3,5,80,127,1638593152
2017,19,Jits_Linear_5,0,1,48,28,1639090476
2017,19,Jits_Linear_5,1,5,80,127,1639136584
2017,19,Jits_Linear_5,2,5,63,98,1639186764
2017,19,Jits_Linear_5,3,5,56,103,1639216464
2017,19,Jits_Linear_5,0,1,48,37,1639555064
2017,19,Jits_Linear_5,1,5,56,103,1639646576
2017,19,Jits_Linear_5,2,5,80,127,1639656756
2017,19,Jits_Linear_5,3,5,63,98,1639726324
2017,19,Jits_Linear_5,0,1,48,34,1640147748
2017,19,Jits_Linear_5,1,5,56,103,1640187192
2017,19,Jits_Linear_5,2,5,63,98,1640206872
2017,19,Jits_Linear_5,3,5,80,127,1640267072
2017,19,Jits_Linear_5,0,1,48,38,1640664196
2017,19,Jits_Linear_5,1,5,80,127,1640716944
2017,19,Jits_Linear_5,2,5,63,98,1640787248
2017,19,Jits_Linear_5,3,5,56,103,1640806704
2017,19,Jits_Linear_5,0,1,48,38,1641247800
2017,19,Jits_Linear_5,1,5,80,127,1641276992
2017,19,Jits_Linear_5,2,5,56,103,1641287100
2017,19,Jits_Linear_5,3,5,63,98,1641297352
2017,19,Jits_Linear_5,0,1,48,39,1641765064
2017,19,Jits_Linear_5,1,5,80,127,1641807196
2017,19,Jits_Linear_5,2,5,56,103,1641826728
2017,19,Jits_Linear_5,3,5,63,98,1641897272
2017,19,Jits_Linear_5,0,1,48,38,1642349864
2017,19,Jits_Linear_5,1,5,56,103,1642357148
2017,19,Jits_Linear_5,2,5,80,127,1642386776
2017,19,Jits_Linear_5,3,5,63,98,1642407448
2017,19,Jits_Linear_5,0,1,48,42,1642866676
2017,19,Jits_Linear_5,1,5,63,98,1642896920
2017,19,Jits_Linear_5,2,5,56,103,1642957016
2017,19,Jits_Linear_5,3,5,80,127,1642986852
2017,19,Jits_Linear_5,0,1,48,37,1643398900
2017,19,Jits_Linear_5,1,5,63,98,1643437396
2017,19,Jits_Linear_5,2,5,80,127,1643440608
2017,19,Jits_Linear_5,3,5,56,103,1643526468
2017,19,Jits_Linear_5,0,1,48,40,1643919592
2017,19,Jits_Linear_5,1,5,56,103,1644006856
2017,19,Jits_Linear_5,2,5,63,98,1644036548
2017,19,Jits_Linear_5,3,5,80,127,1644077392
2017,19,Jits_Linear_5,0,1,48,42,1644555392
2017,19,Jits_Linear_5,1,5,63,98,1644557108
2017,19,Jits_Linear_5,2,5,56,103,1644596760
2017,19,Jits_Linear_5,3,5,80,127,1644617040
2017,19,Jits_Linear_5,0,1,48,39,1645075480
2017,19,Jits_Linear_5,1,5,63,98,1645116936
2017,19,Jits_Linear_5,2,5,56,103,1645156664
2017,19,Jits_Linear_5,3,5,80,127,1645167140
2017,19,Jits_Linear_5,0,1,48,41,1645637616
2017,19,Jits_Linear_5,1,5,80,127,1645647144
2017,19,Jits_Linear_5,2,5,63,98,1645716864
2017,19,Jits_Linear_5,3,5,56,103,1645737372
2017,19,Jits_Linear_5,0,1,48,46,1646166256
2017,19,Jits_Linear_5,1,5,56,103,1646197092
2017,19,Jits_Linear_5,2,5,80,127,1646216624
2017,19,Jits_Linear_5,3,5,63,98,1646256596
2017,19,Jits_Linear_5,0,1,48,25,1646754952
2017,19,Jits_Linear_5,1,5,63,98,1646766440
2017,19,Jits_Linear_5,2,5,80,127,1646786864
2017,19,Jits_Linear_5,3,5,56,103,1646826812
2017,19,Jits_Linear_5,0,1,48,41,1647264188
2017,19,Jits_Linear_5,1,5,63,98,1647326784
2017,19,Jits_Linear_5,2,5,56,103,1647346988
2017,19,Jits_Linear_5,3,5,80,127,1647357464
2017,19,Jits_Linear_5,0,1,48,40,1647819856
2017,19,Jits_Linear_5,1,5,80,127,1647886824
2017,19,Jits_Linear_5,2,5,56,103,1647907176
2017,19,Jits_Linear_5,3,5,63,98,1647936864
2017,19,Jits_Linear_5,0,1,48,46,1648333812
2017,19,Jits_Linear_5,1,5,56,103,1648526816
2017,19,Jits_Linear_5,2,5,80,127,1648529804
2017,19,Jits_Linear_5,3,5,63,98,1648547168
2017,19,Jits_Linear_5,0,5,63,98,1649017172
2017,19,Jits_Linear_5,1,1,48,42,1649028888
2017,19,Jits_Linear_5,2,5,56,103,1649046940
2017,19,Jits_Linear_5,3,5,80,127,1649107256
2017,19,Jits_Linear_5,0,1,48,48,1649547420
2017,19,Jits_Linear_5,1,5,63,98,1649666604
2017,19,Jits_Linear_5,2,5,56,103,1649676564
2017,19,Jits_Linear_5,3,5,80,127,1649686820
2017,19,Jits_Linear_5,0,5,56,103,1650186740
2017,19,Jits_Linear_5,1,5,80,127,1650217560
2017,19,Jits_Linear_5,2,5,63,98,1650226624
2017,19,Jits_Linear_5,3,1,48,42,1650227660
2017,19,Jits_Linear_5,0,1,48,47,1650730388
2017,19,Jits_Linear_5,1,5,63,98,1650796912
2017,19,Jits_Linear_5,2,5,56,103,1650807020
2017,19,Jits_Linear_5,3,5,80,127,1650826624
2017,19,Jits_Linear_5,0,1,48,40,1651289620
2017,19,Jits_Linear_5,1,5,56,103,1651296604
2017,19,Jits_Linear_5,2,5,63,98,1651357048
2017,19,Jits_Linear_5,3,5,80,127,1651360404
2017,19,Jits_Linear_5,0,1,48,45,1651859004
2017,19,Jits_Linear_5,1,5,80,127,1651896608
2017,19,Jits_Linear_5,2,5,56,103,1651906860
2017,19,Jits_Linear_5,3,5,63,98,1651976632
2017,19,Jits_Linear_5,0,1,48,35,1652405396
2017,19,Jits_Linear_5,1,5,80,127,1652467048
2017,19,Jits_Linear_5,2,5,56,103,1652536676
2017,19,Jits_Linear_5,3,5,63,98,1652546780
2017,19,Jits_Linear_5,0,1,48,40,1653005084
2017,19,Jits_Linear_5,1,5,63,98,1653086564
2017,19,Jits_Linear_5,2,5,56,103,1653096744
2017,19,Jits_Linear_5,3,5,80,127,1653117528
2017,19,Jits_Linear_5,0,1,48,52,1653555180
2017,19,Jits_Linear_5,1,5,80,127,1653616916
2017,19,Jits_Linear_5,2,5,63,98,1653677516
2017,19,Jits_Linear_5,3,5,56,103,1653717536
2017,19,Jits_Linear_5,0,1,48,27,1654194924
2017,19,Jits_Linear_5,1,5,56,103,1654246704
2017,19,Jits_Linear_5,2,5,63,98,1654257108
2017,19,Jits_Linear_5,3,5,80,127,1654296892
2017,19,Jits_Linear_5,0,1,48,45,1654700064
2017,19,Jits_Linear_5,1,5,56,103,1654796656
2017,19,Jits_Linear_5,2,5,80,127,1654827320
2017,19,Jits_Linear_5,3,5,63,98,1654876540
2017,19,Jits_Linear_5,0,1,48,46,1655312392
2017,19,Jits_Linear_5,1,5,56,103,1655426404
2017,19,Jits_Linear_5,2,5,63,98,1655467496
2017,19,Jits_Linear_5,3,5,80,127,1655470632
2017,19,Jits_Linear_5,0,1,48,40,1655947464
2017,19,Jits_Linear_5,1,5,56,103,1656017224
2017,19,Jits_Linear_5,2,5,63,98,1656026360
2017,19,Jits_Linear_5,3,5,80,127,1656047140
2017,19,Jits_Linear_5,0,1,48,41,1656532880
2017,19,Jits_Linear_5,1,5,56,103,1656567396
2017,19,Jits_Linear_5,2,5,80,127,1656570384
2017,19,Jits_Linear_5,3,5,63,98,1656607416
2017,19,Jits_Linear_5,0,1,48,41,1657102264
2017,19,Jits_Linear_5,1,5,63,98,1657196832
2017,19,Jits_Linear_5,2,5,56,103,1657226608
2017,19,Jits_Linear_5,3,5,80,127,1657247404
2017,19,Jits_Linear_5,0,1,48,39,1657692228
2017,19,Jits_Linear_5,1,5,80,127,1657767384
2017,19,Jits_Linear_5,2,5,56,103,1657776592
2017,19,Jits_Linear_5,3,5,63,98,1657786684
2017,19,Jits_Linear_5,0,1,48,37,1658280640
2017,19,Jits_Linear_5,1,5,56,103,1658367364
2017,19,Jits_Linear_5,2,5,80,127,1658407376
2017,19,Jits_Linear_5,3,5,63,98,1658437148
2017,19,Jits_Linear_5,0,1,48,42,1658871208
2017,19,Jits_Linear_5,1,5,63,98,1658976688
2017,19,Jits_Linear_5,2,5,80,127,1658986868
2017,19,Jits_Linear_5,3,5,56,103,1658997196
2017,19,Jits_Linear_5,0,1,48,45,1659500740
2017,19,Jits_Linear_5,1,5,56,103,1659557240
2017,19,Jits_Linear_5,2,5,63,98,1659626948
2017,19,Jits_Linear_5,3,5,80,127,1659637200
2017,19,Jits_Linear_5,0,1,48,30,1660105524
2017,19,Jits_Linear_5,1,5,80,127,1660166360
2017,19,Jits_Linear_5,2,5,56,103,1660176688
2017,19,Jits_Linear_5,3,5,63,98,1660226940
2017,19,Jits_Linear_5,0,1,48,36,1660735132
2017,19,Jits_Linear_5,1,5,80,127,1660786988
2017,19,Jits_Linear_5,2,5,56,103,1660846544
2017,19,Jits_Linear_5,3,5,63,98,1660877144
2017,19,Jits_Linear_5,0,1,48,34,1661310060
2017,19,Jits_Linear_5,1,5,56,103,1661397400
2017,19,Jits_Linear_5,2,5,80,127,1661400464
2017,19,Jits_Linear_5,3,5,63,98,1661437260
2017,19,Jits_Linear_5,0,1,48,26,1661983808
2017,19,Jits_Linear_5,1,5,56,103,1662037472
2017,19,Jits_Linear_5,2,5,63,98,1662066952
2017,19,Jits_Linear_5,3,5,80,127,1662077340
2017,19,Jits_Linear_5,0,5,63,98,1662657020
2017,19,Jits_Linear_5,1,5,80,127,1662667124
2017,19,Jits_Linear_5,2,5,56,103,1662677380
2017,19,Jits_Linear_5,0,1,48,29,1663174812
2017,19,Jits_Linear_5,1,5,80,127,1663217236
2017,19,Jits_Linear_5,2,5,56,103,1663268184
2017,19,Jits_Linear_5,3,5,63,98,1663271004
2017,19,Jits_Linear_5,0,1,48,36,1663747332
2017,19,Jits_Linear_5,1,5,56,103,1663867244
2017,19,Jits_Linear_5,2,5,80,127,1663886848
2017,19,Jits_Linear_5,3,5,63,98,1663897028
2017,19,Jits_Linear_5,0,1,48,26,1664375220
2017,19,Jits_Linear_5,1,5,63,98,1664467344
2017,19,Jits_Linear_5,2,5,56,103,1664496956
2017,19,Jits_Linear_5,3,5,80,127,1664516560
2017,19,Jits_Linear_5,0,1,48,29,1664905640
2017,19,Jits_Linear_5,1,5,56,103,1665097084
2017,19,Jits_Linear_5,2,5,80,127,1665107340
2017,19,Jits_Linear_5,3,5,63,98,1665176980
2017,19,Jits_Linear_5,0,1,48,32,1665599360
2017,19,Jits_Linear_5,1,5,63,98,1665707264
2017,19,Jits_Linear_5,2,5,80,127,1665747436
2017,19,Jits_Linear_5,3,5,56,103,1665787380
2017,19,Jits_Linear_5,0,1,48,27,1666192236
2017,19,Jits_Linear_5,1,5,56,103,1666347268
2017,19,Jits_Linear_5,2,5,63,98,1666356848
2017,19,Jits_Linear_5,3,5,80,127,1666377052
2017,19,Jits_Linear_5,0,1,48,34,1666760092
2017,19,Jits_Linear_5,1,5,63,98,1667017068
2017,19,Jits_Linear_5,2,5,80,127,1667036524
2017,19,Jits_Linear_5,3,5,56,103,1667056872
2017,19,Jits_Linear_5,0,1,48,28,1667325468
2017,19,Jits_Linear_5,1,5,56,103,1667586820
2017,19,Jits_Linear_5,2,5,80,127,1667667236
2017,19,Jits_Linear_5,3,5,63,98,1667676740
2017,19,Jits_Linear_5,0,1,48,35,1668035552
2017,19,Jits_Linear_5,1,5,80,127,1668257192
2017,19,Jits_Linear_5,2,5,63,98,1668267252
2017,19,Jits_Linear_5,3,5,56,103,1668297100
2017,19,Jits_Linear_5,0,1,48,39,1668819348
2017,19,Jits_Linear_5,1,5,63,98,1668846900
2017,19,Jits_Linear_5,2,5,80,127,1668886848
2017,19,Jits_Linear_5,3,5,56,103,1668947272
2017,19,Jits_Linear_5,0,1,48,39,1669449324
2017,19,Jits_Linear_5,1,5,63,98,1669486828
2017,19,Jits_Linear_5,2,5,56,103,1669537100
2017,19,Jits_Linear_5,3,5,80,127,1669566860
2017,19,Jits_Linear_5,0,1,48,42,1670111544
2017,19,Jits_Linear_5,1,5,80,127,1670137304
2017,19,Jits_Linear_5,2,5,63,98,1670146660
2017,19,Jits_Linear_5,3,5,56,103,1670216960
2017,19,Jits_Linear_5,0,1,48,37,1670711976
2017,19,Jits_Linear_5,1,5,80,127,1670846812
2017,19,Jits_Linear_5,2,5,56,103,1670857064
2017,19,Jits_Linear_5,3,5,63,98,1670860200
2017,19,Jits_Linear_5,0,1,48,44,1671387768
2017,19,Jits_Linear_5,1,5,56,103,1671426612
2017,19,Jits_Linear_5,2,5,80,127,1671446816
2017,19,Jits_Linear_5,3,5,63,98,1671457072
2017,19,Jits_Linear_5,0,1,48,42,1672048488
2017,19,Jits_Linear_5,1,5,63,98,1672076640
2017,19,Jits_Linear_5,2,5,56,103,1672116468
2017,19,Jits_Linear_5,3,5,80,127,1672137040
2017,19,Jits_Linear_5,0,1,48,44,1672683580
2017,19,Jits_Linear_5,1,5,63,98,1672726844
2017,19,Jits_Linear_5,2,5,56,103,1672787492
2017,19,Jits_Linear_5,3,5,80,127,1672790704
2017,19,Jits_Linear_5,0,1,48,32,1673322684
2017,19,Jits_Linear_5,1,5,56,103,1673337448
2017,19,Jits_Linear_5,2,5,80,127,1673356680
2017,19,Jits_Linear_5,3,5,63,98,1673396504
2017,19,Jits_Linear_5,0,1,48,45,1673992332
2017,19,Jits_Linear_5,1,5,56,103,1674017120
2017,19,Jits_Linear_5,2,5,63,98,1674036576
2017,19,Jits_Linear_5,3,5,80,127,1674046756
2017,19,Jits_Linear_5,0,5,80,127,1674636708
2017,19,Jits_Linear_5,1,1,48,42,1674647908
2017,19,Jits_Linear_5,2,5,56,103,1674667624
2017,19,Jits_Linear_5,3,5,63,98,1674707272
2017,19,Jits_Linear_5,0,1,48,44,1675296948
2017,19,Jits_Linear_5,1,5,80,127,1675298656
2017,19,Jits_Linear_5,2,5,56,103,1675316620
2017,19,Jits_Linear_5,3,5,63,98,1675376988
2017,19,Jits_Linear_5,0,5,56,103,1675956576
2017,19,Jits_Linear_5,1,5,80,127,1675976924
2017,19,Jits_Linear_5,2,1,48,42,1675979664
2017,19,Jits_Linear_5,3,5,63,98,1676036460
2017,19,Jits_Linear_5,0,1,48,45,1676573584
2017,19,Jits_Linear_5,1,5,80,127,1676596588
2017,19,Jits_Linear_5,2,5,56,103,1676606988
2017,19,Jits_Linear_5,3,5,63,98,1676646860
2017,19,Jits_Linear_5,0,5,63,98,1677257036
2017,19,Jits_Linear_5,1,1,48,35,1677265768
2017,19,Jits_Linear_5,2,5,56,103,1677297128
2017,19,Jits_Linear_5,3,5,80,127,1677300336
2017,19,Jits_Linear_5,0,1,48,39,1677885256
2017,19,Jits_Linear_5,1,5,63,98,1677936968
2017,19,Jits_Linear_5,2,5,80,127,1677976916
2017,19,Jits_Linear_5,3,5,56,103,1678006624
2017,19,Jits_Linear_5,0,1,48,44,1678545704
2017,19,Jits_Linear_5,1,5,56,103,1678587312
2017,19,Jits_Linear_5,2,5,63,98,1678596524
2017,19,Jits_Linear_5,3,5,80,127,1678627268
2017,19,Jits_Linear_5,0,1,48,41,1679194680
2017,19,Jits_Linear_5,1,5,80,127,1679246684
2017,19,Jits_Linear_5,2,5,63,98,1679317312
2017,19,Jits_Linear_5,3,5,56,103,1679326448
2017,19,Jits_Linear_5,0,1,48,40,1679897308
2017,19,Jits_Linear_5,1,5,63,98,1679917456
2017,19,Jits_Linear_5,2,5,56,103,1679987248
2017,19,Jits_Linear_5,3,5,80,127,1679997264
2017,19,Jits_Linear_5,0,5,63,98,1680587332
2017,19,Jits_Linear_5,1,1,48,40,1680590520
2017,19,Jits_Linear_5,2,5,56,103,1680606632
2017,19,Jits_Linear_5,3,5,80,127,1680646428
2017,19,Jits_Linear_5,0,1,48,42,1681215784
2017,19,Jits_Linear_5,1,5,56,103,1681267264
2017,19,Jits_Linear_5,2,5,63,98,1681277368
2017,19,Jits_Linear_5,3,5,80,127,1681357116
2017,19,Jits_Linear_5,0,5,63,98,1681926448
2017,19,Jits_Linear_5,1,1,48,42,1681931056
2017,19,Jits_Linear_5,2,5,56,103,1681957188
2017,19,Jits_Linear_5,3,5,80,127,1681997064
2017,19,Jits_Linear_5,0,5,56,103,1682597136
2017,19,Jits_Linear_5,1,5,63,98,1682637232
2017,19,Jits_Linear_5,2,1,48,22,1682662784
2017,19,Jits_Linear_5,3,5,80,127,1682677100
2017,19,Jits_Linear_5,0,5,80,127,1683277092
2017,19,Jits_Linear_5,1,1,48,22,1683290900
2017,19,Jits_Linear_5,2,5,56,103,1683356976
2017,19,Jits_Linear_5,3,5,63,98,1683367404
2017,19,Jits_Linear_5,0,5,56,103,1683997088
2017,19,Jits_Linear_5,1,5,63,98,1684000076
2017,19,Jits_Linear_5,2,5,80,127,1684007492
2017,19,Jits_Linear_5,3,1,48,27,1684022644
2017,19,Jits_Linear_5,0,5,56,103,1684696364
2017,19,Jits_Linear_5,1,1,48,38,1684701496
2017,19,Jits_Linear_5,2,5,63,98,1684717156
2017,19,Jits_Linear_5,3,5,80,127,1684727112
2017,19,Jits_Linear_5,0,5,63,98,1685336380
2017,19,Jits_Linear_5,1,5,80,127,1685346932
2017,19,Jits_Linear_5,2,5,56,103,1685367208
2017,19,Jits_Linear_5,3,1,48,39,1685383104
2017,19,Jits_Linear_5,0,5,63,98,1686027112
2017,19,Jits_Linear_5,1,1,48,20,1686062984
2017,19,Jits_Linear_5,2,5,56,103,1686106624
2017,19,Jits_Linear_5,3,5,80,127,1686109464
2017,19,Jits_Linear_5,0,5,63,98,1686716876
2017,19,Jits_Linear_5,1,1,48,39,1686732928
2017,19,Jits_Linear_5,2,5,56,103,1686737224
2017,19,Jits_Linear_5,3,5,80,127,1686767000
2017,19,Jits_Linear_5,0,1,48,46,1687402244
2017,19,Jits_Linear_5,1,5,56,103,1687407064
2017,19,Jits_Linear_5,2,5,63,98,1687426372
2017,19,Jits_Linear_5,3,5,80,127,1687436700
2017,19,Jits_Linear_5,0,1,48,46,1688031500
2017,19,Jits_Linear_5,1,5,56,103,1688127048
2017,19,Jits_Linear_5,2,5,63,98,1688156732
2017,19,Jits_Linear_5,3,5,80,127,1688160016
2017,19,Jits_Linear_5,0,5,56,103,1688766920
2017,19,Jits_Linear_5,1,1,48,40,1688769436
2017,19,Jits_Linear_5,2,5,63,98,1688806940
2017,19,Jits_Linear_5,3,5,80,127,1688867292
2017,19,Jits_Linear_5,0,1,48,41,1689441312
2017,19,Jits_Linear_5,1,5,56,103,1689476648
2017,19,Jits_Linear_5,2,5,63,98,1689486976
2017,19,Jits_Linear_5,3,5,80,127,1689547052
2017,19,Jits_Linear_5,0,5,56,103,1690176892
2017,19,Jits_Linear_5,1,5,80,127,1690197316
2017,19,Jits_Linear_5,2,5,63,98,1690227092
2017,19,Jits_Linear_5,0,1,48,37,1690797996
2017,19,Jits_Linear_5,1,5,80,127,1690877236
2017,19,Jits_Linear_5,2,5,56,103,1690886596
2017,19,Jits_Linear_5,3,5,63,98,1690907004
2017,19,Jits_Linear_5,0,1,48,45,1691539872
2017,19,Jits_Linear_5,1,5,63,98,1691566552
2017,19,Jits_Linear_5,2,5,80,127,1691647544
2017,19,Jits_Linear_5,3,5,56,103,1691656828
2017,19,Jits_Linear_5,0,1,48,37,1692271072
2017,19,Jits_Linear_5,1,5,80,127,1692327452
2017,19,Jits_Linear_5,2,5,56,103,1692346604
2017,19,Jits_Linear_5,3,5,63,98,1692349820
2017,19,Jits_Linear_5,0,1,48,33,1693006332
2017,19,Jits_Linear_5,1,5,63,98,1693008072
2017,19,Jits_Linear_5,2,5,80,127,1693011124
2017,19,Jits_Linear_5,3,5,56,103,1693066556
2017,19,Jits_Linear_5,0,1,48,44,1693684096
2017,19,Jits_Linear_5,1,5,56,103,1693697668
2017,19,Jits_Linear_5,2,5,80,127,1693706580
2017,19,Jits_Linear_5,3,5,63,98,1693746600
2017,19,Jits_Linear_5,0,5,56,103,1694386468
2017,19,Jits_Linear_5,1,1,48,30,1694422636
2017,19,Jits_Linear_5,2,5,63,98,1694446904
2017,19,Jits_Linear_5,3,5,80,127,1694457308
2017,19,Jits_Linear_5,0,1,48,30,1695097580
2017,19,Jits_Linear_5,1,5,63,98,1695106660
2017,19,Jits_Linear_5,2,5,80,127,1695147456
2017,19,Jits_Linear_5,3,5,56,103,1695187552
2017,19,Jits_Linear_5,0,5,56,103,1695817080
2017,19,Jits_Linear_5,1,1,48,27,1695824520
2017,19,Jits_Linear_5,2,5,63,98,1695896884
2017,19,Jits_Linear_5,3,5,80,127,1695900392
2017,19,Jits_Linear_5,0,1,48,37,1696556636
2017,19,Jits_Linear_5,1,5,80,127,1696587104
2017,19,Jits_Linear_5,2,5,56,103,1696616804
2017,19,Jits_Linear_5,3,5,63,98,1696619940
2017,19,Jits_Linear_5,0,1,48,36,1697238240
2017,19,Jits_Linear_5,1,5,56,103,1697267060
2017,19,Jits_Linear_5,2,5,80,127,1697286516
2017,19,Jits_Linear_5,3,5,63,98,1697326540
2017,19,Jits_Linear_5,0,5,80,127,1697966632
2017,19,Jits_Linear_5,1,1,48,39,1697983656
2017,19,Jits_Linear_5,2,5,63,98,1697986904
2017,19,Jits_Linear_5,3,5,56,103,1698047492
2017,19,Jits_Linear_5,0,5,63,98,1698696480
2017,19,Jits_Linear_5,1,5,56,103,1698706736
2017,19,Jits_Linear_5,2,1,48,34,1698732384
2017,19,Jits_Linear_5,3,5,80,127,1698756872
2017,19,Jits_Linear_5,0,5,56,103,1699407256
2017,19,Jits_Linear_5,1,1,48,39,1699417412
2017,19,Jits_Linear_5,2,5,63,98,1699426560
2017,19,Jits_Linear_5,3,5,80,127,1699436812
2017,19,Jits_Linear_5,0,1,48,39,1700107552
2017,19,Jits_Linear_5,1,5,56,103,1700127096
2017,19,Jits_Linear_5,2,5,63,98,1700130232
2017,19,Jits_Linear_5,3,5,80,127,1700146476
2017,19,Jits_Linear_5,0,1,48,39,1700814120
2017,19,Jits_Linear_5,1,5,63,98,1700897328
2017,19,Jits_Linear_5,2,5,56,103,1700926720
2017,19,Jits_Linear_5,3,5,80,127,1700956496
2017,19,Jits_Linear_5,0,1,48,41,1701551612
2017,19,Jits_Linear_5,1,5,80,127,1701587248
2017,19,Jits_Linear_5,2,5,56,103,1701677368
2017,19,Jits_Linear_5,3,5,63,98,1701680504
2017,19,Jits_Linear_5,0,5,56,103,1702317320
2017,19,Jits_Linear_5,1,5,80,127,1702320388
2017,19,Jits_Linear_5,2,1,48,48,1702342204
2017,19,Jits_Linear_5,3,5,63,98,1702397280
2017,19,Jits_Linear_5,0,1,48,37,1703008684
2017,19,Jits_Linear_5,1,5,80,127,1703046484
2017,19,Jits_Linear_5,2,5,63,98,1703107156
2017,19,Jits_Linear_5,3,5,56,103,1703136636
2017,19,Jits_Linear_5,0,1,48,38,1703731128
2017,19,Jits_Linear_5,1,5,63,98,1703776492
2017,19,Jits_Linear_5,2,5,80,127,1703787040
2017,19,Jits_Linear_5,3,5,56,103,1703856472
2017,19,Jits_Linear_5,0,1,48,38,1704455312
2017,19,Jits_Linear_5,1,5,56,103,1704527140
2017,19,Jits_Linear_5,2,5,80,127,1704557124
2017,19,Jits_Linear_5,3,5,63,98,1704607168
2017,19,Jits_Linear_5,0,1,48,43,1705183052
2017,19,Jits_Linear_5,1,5,63,98,1705306496
2017,19,Jits_Linear_5,2,5,56,103,1705337088
2017,19,Jits_Linear_5,3,5,80,127,1705340304
2017,19,Jits_Linear_5,0,1,48,42,1706022784
2017,19,Jits_Linear_5,1,5,63,98,1706046908
2017,19,Jits_Linear_5,2,5,80,127,1706067336
2017,19,Jits_Linear_5,3,5,56,103,1706076468
2017,19,Jits_Linear_5,0,1,48,38,1706730208
2017,19,Jits_Linear_5,1,5,56,103,1706797408
2017,19,Jits_Linear_5,2,5,63,98,1706800396
2017,19,Jits_Linear_5,3,5,80,127,1706816936
2017,19,Jits_Linear_5,0,1,48,40,1707423900
2017,19,Jits_Linear_5,1,5,56,103,1707496964
2017,19,Jits_Linear_5,2,5,63,98,1707507068
2017,19,Jits_Linear_5,3,5,80,127,1707536980
2017,19,Jits_Linear_5,0,1,48,37,1708178672
2017,19,Jits_Linear_5,1,5,63,98,1708266760
2017,19,Jits_Linear_5,2,5,80,127,1708287396
2017,19,Jits_Linear_5,3,5,56,103,1708327420
2017,19,Jits_Linear_5,0,1,48,28,1708974144
2017,19,Jits_Linear_5,1,5,56,103,1709047108
2017,19,Jits_Linear_5,2,5,63,98,1709087116
2017,19,Jits_Linear_5,3,5,80,127,1709090400
2017,19,Jits_Linear_5,0,5,80,127,1709737396
2017,19,Jits_Linear_5,1,1,48,29,1709741480
2017,19,Jits_Linear_5,2,5,56,103,1709777188
2017,19,Jits_Linear_5,3,5,63,98,1709826336
2017,19,Jits_Linear_5,0,5,56,103,1710547452
2017,19,Jits_Linear_5,1,5,80,127,1710556512
2017,19,Jits_Linear_5,2,1,48,33,1710575340
2017,19,Jits_Linear_5,3,5,63,98,1710587176
2017,19,Jits_Linear_5,0,5,56,103,1711246932
2017,19,Jits_Linear_5,1,5,80,127,1711286832
2017,19,Jits_Linear_5,2,5,63,98,1711336952
2017,19,Jits_Linear_5,0,1,48,16,1711934988
2017,19,Jits_Linear_5,1,5,56,103,1712006668
2017,19,Jits_Linear_5,2,5,80,127,1712046552
2017,19,Jits_Linear_5,3,5,63,98,1712096672
2017,19,Jits_Linear_5,0,1,48,15,1712738740
2017,19,Jits_Linear_5,1,1,38,11,1712746804
2017,19,Jits_Linear_5,2,5,80,127,1712757072
2017,19,Jits_Linear_5,3,5,63,98,1712837124
2017,19,Jits_Linear_5,4,5,56,103,1712847364
2017,19,Jits_Linear_5,0,1,48,21,1713547408
2017,19,Jits_Linear_5,1,5,80,127,1713567104
2017,19,Jits_Linear_5,2,5,56,103,1713577284
2017,19,Jits_Linear_5,3,5,63,98,1713596960
2017,19,Jits_Linear_5,0,1,48,47,1714265796
2017,19,Jits_Linear_5,1,5,63,98,1714297160
2017,19,Jits_Linear_5,2,5,56,103,1714366884
2017,19,Jits_Linear_5,3,5,80,127,1714369872
2017,19,Jits_Linear_5,0,5,80,127,1715056932
2017,19,Jits_Linear_5,1,1,48,56,1715078228
2017,19,Jits_Linear_5,2,5,63,98,1715107220
2017,19,Jits_Linear_5,3,5,56,103,1715147168
2017,19,Jits_Linear_5,0,1,48,53,1715860596
2017,19,Jits_Linear_5,1,5,63,98,1715867132
2017,19,Jits_Linear_5,2,5,56,103,1715907028
2017,19,Jits_Linear_5,3,5,80,127,1715917208
2017,19,Jits_Linear_5,0,5,63,98,1716626840
2017,19,Jits_Linear_5,1,1,48,49,1716633316
2017,19,Jits_Linear_5,2,5,56,103,1716647436
2017,19,Jits_Linear_5,3,5,80,127,1716666740
2017,19,Jits_Linear_5,0,5,80,127,1717356852
2017,19,Jits_Linear_5,1,5,56,103,1717367032
2017,19,Jits_Linear_5,2,5,63,98,1717386560
2017,19,Jits_Linear_5,3,1,48,40,1717393928
2017,19,Jits_Linear_5,0,1,48,42,1718097824
2017,19,Jits_Linear_5,1,5,63,98,1718156868
2017,19,Jits_Linear_5,2,5,56,103,1718197800
2017,19,Jits_Linear_5,3,5,80,127,1718227424
2017,19,Jits_Linear_5,0,5,56,103,1718936852
2017,19,Jits_Linear_5,1,1,48,40,1718957424
2017,19,Jits_Linear_5,2,5,63,98,1718966496
2017,19,Jits_Linear_5,3,5,80,127,1718997540
2017,19,Jits_Linear_5,0,1,48,38,1719657492
2017,19,Jits_Linear_5,1,5,80,127,1719686464
2017,19,Jits_Linear_5,2,5,56,103,1719757232
2017,19,Jits_Linear_5,3,5,63,98,1719760296
2017,19,Jits_Linear_5,0,5,56,103,1720477128
2017,19,Jits_Linear_5,1,1,48,42,1720495756
2017,19,Jits_Linear_5,2,5,63,98,1720527416
2017,19,Jits_Linear_5,3,5,80,127,1720557264
2017,19,Jits_Linear_5,0,1,48,32,1721158340
2017,19,Jits_Linear_5,1,5,63,98,1721236752
2017,19,Jits_Linear_5,2,5,80,127,1721240340
2017,19,Jits_Linear_5,3,5,56,103,1721297280
2017,19,Jits_Linear_5,0,1,48,39,1721970232
2017,19,Jits_Linear_5,1,5,56,103,1722046808
2017,19,Jits_Linear_5,2,5,80,127,1722057208
2017,19,Jits_Linear_5,3,5,63,98,1722107460
2017,19,Jits_Linear_5,0,1,48,45,1722758952
2017,19,Jits_Linear_5,1,5,63,98,1722806804
2017,19,Jits_Linear_5,2,5,56,103,1722817280
2017,19,Jits_Linear_5,3,5,80,127,1722846684
2017,19,Jits_Linear_5,0,1,48,40,1723521412
2017,19,Jits_Linear_5,1,5,63,98,1723626844
2017,19,Jits_Linear_5,2,5,80,127,1723630352
2017,19,Jits_Linear_5,3,5,56,103,1723656620
2017,19,Jits_Linear_5,0,1,48,35,1724277292
2017,19,Jits_Linear_5,1,5,63,98,1724437020
2017,19,Jits_Linear_5,2,5,56,103,1724457372
2017,19,Jits_Linear_5,3,5,80,127,1724460660
2017,19,Jits_Linear_5,0,1,48,34,1725122336
2017,19,Jits_Linear_5,1,5,63,98,1725186476
2017,19,Jits_Linear_5,2,5,56,103,1725257224
2017,19,Jits_Linear_5,3,5,80,127,1725276456
2017,19,Jits_Linear_5,0,5,56,103,1725966824
2017,19,Jits_Linear_5,1,5,63,98,1725977228
2017,19,Jits_Linear_5,2,5,80,127,1726066988
2017,19,Jits_Linear_5,0,1,48,45,1726655400
2017,19,Jits_Linear_5,1,5,56,103,1726776808
2017,19,Jits_Linear_5,2,5,80,127,1726816904
2017,19,Jits_Linear_5,3,5,63,98,1726827232
2017,19,Jits_Linear_5,0,1,48,49,1727557140
2017,19,Jits_Linear_5,1,5,56,103,1727597032
2017,19,Jits_Linear_5,2,5,63,98,1727626736
2017,19,Jits_Linear_5,3,5,80,127,1727657272
2017,19,Jits_Linear_5,0,1,48,54,1728308092
2017,19,Jits_Linear_5,1,5,80,127,1728356740
2017,19,Jits_Linear_5,2,5,63,98,1728396764
2017,19,Jits_Linear_5,3,5,56,103,1728417124
2017,19,Jits_Linear_5,0,1,48,59,1729143324
2017,19,Jits_Linear_5,1,5,56,103,1729197312
2017,19,Jits_Linear_5,2,5,80,127,1729216916
2017,19,Jits_Linear_5,3,5,63,98,1729237340
2017,19,Jits_Linear_5,0,1,48,43,1729884340
2017,19,Jits_Linear_5,1,5,63,98,1729966584
2017,19,Jits_Linear_5,2,5,56,103,1729976912
2017,19,Jits_Linear_5,3,5,80,127,1730037040
2017,19,Jits_Linear_5,0,1,48,47,1730769188
2017,19,Jits_Linear_5,1,5,56,103,1730776468
2017,19,Jits_Linear_5,2,5,63,98,1730847012
2017,19,Jits_Linear_5,3,5,80,127,1730866452
2017,19,Jits_Linear_5,0,1,48,43,1731525004
2017,19,Jits_Linear_5,1,5,56,103,1731586432
2017,19,Jits_Linear_5,2,5,63,98,1731617240
2017,19,Jits_Linear_5,3,5,80,127,1731657036
2017,19,Jits_Linear_5,0,1,48,46,1732380056
2017,19,Jits_Linear_5,1,5,63,98,1732387116
2017,19,Jits_Linear_5,2,5,56,103,1732437312
2017,19,Jits_Linear_5,3,5,80,127,1732446744
2017,19,Jits_Linear_5,0,1,48,51,1733131672
2017,19,Jits_Linear_5,1,5,56,103,1733237152
2017,19,Jits_Linear_5,2,5,63,98,1733287300
2017,19,Jits_Linear_5,3,5,80,127,1733296580
2017,19,Jits_Linear_5,0,5,56,103,1734017444
2017,19,Jits_Linear_5,1,5,63,98,1734026728
2017,19,Jits_Linear_5,2,1,48,48,1734049760
2017,19,Jits_Linear_5,3,5,80,127,1734106780
2017,19,Jits_Linear_5,0,9999,9999,9999,1625284668
2017,19,Jits_Linear_5,1,9999,9999,9999,1625764960
2017,19,Jits_Linear_5,2,9999,9999,9999,1626244172
2017,19,Jits_Linear_5,3,9999,9999,9999,1626724424
2017,19,Jits_Linear_5,4,9999,9999,9999,1627204668
2017,19,Jits_Linear_5,5,9999,9999,9999,1627694196
2017,19,Jits_Linear_5,6,9999,9999,9999,1628184684
2017,19,Jits_Linear_5,7,9999,9999,9999,1628674148
2017,19,Jits_Linear_5,8,9999,9999,9999,1629164636
2017,19,Jits_Linear_5,9,9999,9999,9999,1629654092
2017,19,Jits_Linear_5,10,9999,9999,9999,1630154844
2017,19,Jits_Linear_5,11,9999,9999,9999,1630654536
2017,19,Jits_Linear_5,12,9999,9999,9999,1631154296
2017,19,Jits_Linear_5,13,9999,9999,9999,1631655004
2017,19,Jits_Linear_5,14,9999,9999,9999,1632154676
2017,19,Jits_Linear_5,15,9999,9999,9999,1632664692
2017,19,Jits_Linear_5,16,9999,9999,9999,1633174628
2017,19,Jits_Linear_5,17,9999,9999,9999,1633684536
2017,19,Jits_Linear_5,18,9999,9999,9999,1634194488
2017,19,Jits_Linear_5,19,9999,9999,9999,1634704440
2017,19,Jits_Linear_5,20,9999,9999,9999,1635224700
2017,19,Jits_Linear_5,21,9999,9999,9999,1635744888
2017,19,Jits_Linear_5,22,9999,9999,9999,1636265028
2017,19,Jits_Linear_5,23,9999,9999,9999,1636784240
2017,19,Jits_Linear_5,24,9999,9999,9999,1637304440
2017,19,Jits_Linear_5,25,9999,9999,9999,1637834880
2017,19,Jits_Linear_5,26,9999,9999,9999,1638364268
2017,19,Jits_Linear_5,27,9999,9999,9999,1638894688
2017,19,Jits_Linear_5,28,9999,9999,9999,1639424072
2017,19,Jits_Linear_5,29,9999,9999,9999,1639954496
2017,19,Jits_Linear_5,30,9999,9999,9999,1640494200
2017,19,Jits_Linear_5,31,9999,9999,9999,1641034876
2017,19,Jits_Linear_5,32,9999,9999,9999,1641574500
2017,19,Jits_Linear_5,33,9999,9999,9999,1642114132
2017,19,Jits_Linear_5,34,9999,9999,9999,1642654804
2017,19,Jits_Linear_5,35,9999,9999,9999,1643204700
2017,19,Jits_Linear_5,36,9999,9999,9999,1643754564
2017,19,Jits_Linear_5,37,9999,9999,9999,1644304444
2017,19,Jits_Linear_5,38,9999,9999,9999,1644854396
2017,19,Jits_Linear_5,39,9999,9999,9999,1645404276
2017,19,Jits_Linear_5,40,9999,9999,9999,1645964400
2017,19,Jits_Linear_5,41,9999,9999,9999,1646524544
2017,19,Jits_Linear_5,42,9999,9999,9999,1647084664
2017,19,Jits_Linear_5,43,9999,9999,9999,1647644780
2017,19,Jits_Linear_5,44,9999,9999,9999,1648204900
2017,19,Jits_Linear_5,45,9999,9999,9999,1648774220
2017,19,Jits_Linear_5,46,9999,9999,9999,1649344612
2017,19,Jits_Linear_5,47,9999,9999,9999,1649914992
2017,19,Jits_Linear_5,48,9999,9999,9999,1650484316
2017,19,Jits_Linear_5,49,9999,9999,9999,1651054708
2017,19,Jits_Linear_5,50,9999,9999,9999,1651634292
2017,19,Jits_Linear_5,51,9999,9999,9999,1652214904
2017,19,Jits_Linear_5,52,9999,9999,9999,1652794472
2017,19,Jits_Linear_5,53,9999,9999,9999,1653375092
2017,19,Jits_Linear_5,54,9999,9999,9999,1653954616
2017,19,Jits_Linear_5,55,9999,9999,9999,1654544512
2017,19,Jits_Linear_5,56,9999,9999,9999,1655134328
2017,19,Jits_Linear_5,57,9999,9999,9999,1655724092
2017,19,Jits_Linear_5,58,9999,9999,9999,1656314956
2017,19,Jits_Linear_5,59,9999,9999,9999,1656904760
2017,19,Jits_Linear_5,60,9999,9999,9999,1657504824
2017,19,Jits_Linear_5,61,9999,9999,9999,1658104900
2017,19,Jits_Linear_5,62,9999,9999,9999,1658704964
2017,19,Jits_Linear_5,63,9999,9999,9999,1659305044
2017,19,Jits_Linear_5,64,9999,9999,9999,1659904116
2017,19,Jits_Linear_5,65,9999,9999,9999,1660514424
2017,19,Jits_Linear_5,66,9999,9999,9999,1661124688
2017,19,Jits_Linear_5,67,9999,9999,9999,1661734984
2017,19,Jits_Linear_5,68,9999,9999,9999,1662344256
2017,19,Jits_Linear_5,69,9999,9999,9999,1662954616
2017,19,Jits_Linear_5,70,9999,9999,9999,1663574124
2017,19,Jits_Linear_5,71,9999,9999,9999,1664194628
2017,19,Jits_Linear_5,72,9999,9999,9999,1664814140
2017,19,Jits_Linear_5,73,9999,9999,9999,1665434696
2017,19,Jits_Linear_5,74,9999,9999,9999,1666054224
2017,19,Jits_Linear_5,75,9999,9999,9999,1666685024
2017,19,Jits_Linear_5,76,9999,9999,9999,1667314812
2017,19,Jits_Linear_5,77,9999,9999,9999,1667944552
2017,19,Jits_Linear_5,78,9999,9999,9999,1668574260
2017,19,Jits_Linear_5,79,9999,9999,9999,1669205064
2017,19,Jits_Linear_5,80,9999,9999,9999,1669845068
2017,19,Jits_Linear_5,81,9999,9999,9999,1670485068
2017,19,Jits_Linear_5,82,9999,9999,9999,1671125096
2017,19,Jits_Linear_5,83,9999,9999,9999,1671765104
2017,19,Jits_Linear_5,84,9999,9999,9999,1672405060
2017,19,Jits_Linear_5,85,9999,9999,9999,1673054264
2017,19,Jits_Linear_5,86,9999,9999,9999,1673704536
2017,19,Jits_Linear_5,87,9999,9999,9999,1674354788
2017,19,Jits_Linear_5,88,9999,9999,9999,1675004984
2017,19,Jits_Linear_5,89,9999,9999,9999,1675654208
2017,19,Jits_Linear_5,90,9999,9999,9999,1676314732
2017,19,Jits_Linear_5,91,9999,9999,9999,1676974144
2017,19,Jits_Linear_5,92,9999,9999,9999,1677634628
2017,19,Jits_Linear_5,93,9999,9999,9999,1678294108
2017,19,Jits_Linear_5,94,9999,9999,9999,1678954600
2017,19,Jits_Linear_5,95,9999,9999,9999,1679624248
2017,19,Jits_Linear_5,96,9999,9999,9999,1680295016
2017,19,Jits_Linear_5,97,9999,9999,9999,1680964708
2017,19,Jits_Linear_5,98,9999,9999,9999,1681634428
2017,19,Jits_Linear_5,99,9999,9999,9999,1682304124
2017,19,Jits_Linear_5,100,9999,9999,9999,1682985060
2017,19,Jits_Linear_5,101,9999,9999,9999,1683664968
2017,19,Jits_Linear_5,102,9999,9999,9999,1684344912
2017,19,Jits_Linear_5,103,9999,9999,9999,1685024824
2017,19,Jits_Linear_5,104,9999,9999,9999,1685704800
2017,19,Jits_Linear_5,105,9999,9999,9999,1686394988
2017,19,Jits_Linear_5,106,9999,9999,9999,1687084156
2017,19,Jits_Linear_5,107,9999,9999,9999,1687774300
2017,19,Jits_Linear_5,108,9999,9999,9999,1688464484
2017,19,Jits_Linear_5,109,9999,9999,9999,1689154624
2017,19,Jits_Linear_5,110,9999,9999,9999,1689855104
2017,19,Jits_Linear_5,111,9999,9999,9999,1690554464
2017,19,Jits_Linear_5,112,9999,9999,9999,1691254840
2017,19,Jits_Linear_5,113,9999,9999,9999,1691954260
2017,19,Jits_Linear_5,114,9999,9999,9999,1692654712
2017,19,Jits_Linear_5,115,9999,9999,9999,1693364296
2017,19,Jits_Linear_5,116,9999,9999,9999,1694074976
2017,19,Jits_Linear_5,117,9999,9999,9999,1694784636
2017,19,Jits_Linear_5,118,9999,9999,9999,1695494240
2017,19,Jits_Linear_5,119,9999,9999,9999,1696204868
2017,19,Jits_Linear_5,120,9999,9999,9999,1696924764
2017,19,Jits_Linear_5,121,9999,9999,9999,1697644664
2017,19,Jits_Linear_5,122,9999,9999,9999,1698364504
2017,19,Jits_Linear_5,123,9999,9999,9999,1699084348
2017,19,Jits_Linear_5,124,9999,9999,9999,1699804252
2017,19,Jits_Linear_5,125,9999,9999,9999,1700534336
2017,19,Jits_Linear_5,126,9999,9999,9999,1701264468
2017,19,Jits_Linear_5,127,9999,9999,9999,1701994616
2017,19,Jits_Linear_5,128,9999,9999,9999,1702724684
2017,19,Jits_Linear_5,129,9999,9999,9999,1703454780
2017,19,Jits_Linear_5,130,9999,9999,9999,1704194136
2017,19,Jits_Linear_5,131,9999,9999,9999,1704934464
2017,19,Jits_Linear_5,132,9999,9999,9999,1705674856
2017,19,Jits_Linear_5,133,9999,9999,9999,1706414144
2017,19,Jits_Linear_5,134,9999,9999,9999,1707154512
2017,19,Jits_Linear_5,135,9999,9999,9999,1707904112
2017,19,Jits_Linear_5,136,9999,9999,9999,1708654688
2017,19,Jits_Linear_5,137,9999,9999,9999,1709404216
2017,19,Jits_Linear_5,138,9999,9999,9999,1710154860
2017,19,Jits_Linear_5,139,9999,9999,9999,1710904408
2017,19,Jits_Linear_5,140,9999,9999,9999,1711664220
2017,19,Jits_Linear_5,141,9999,9999,9999,1712425060
2017,19,Jits_Linear_5,142,9999,9999,9999,1713184880
2017,19,Jits_Linear_5,143,9999,9999,9999,1713944636
2017,19,Jits_Linear_5,144,9999,9999,9999,1714704476
2017,19,Jits_Linear_5,145,9999,9999,9999,1715474500
2017,19,Jits_Linear_5,146,9999,9999,9999,1716244540
2017,19,Jits_Linear_5,147,9999,9999,9999,1717014636
2017,19,Jits_Linear_5,148,9999,9999,9999,1717784656
2017,19,Jits_Linear_5,149,9999,9999,9999,1718554696
2017,19,Jits_Linear_5,150,9999,9999,9999,1719334968
2017,19,Jits_Linear_5,151,9999,9999,9999,1720114272
2017,19,Jits_Linear_5,152,9999,9999,9999,1720894540
2017,19,Jits_Linear_5,153,9999,9999,9999,1721674808
2017,19,Jits_Linear_5,154,9999,9999,9999,1722454104
2017,19,Jits_Linear_5,155,9999,9999,9999,1723244612
2017,19,Jits_Linear_5,156,9999,9999,9999,1724034148
2017,19,Jits_Linear_5,157,9999,9999,9999,1724824656
2017,19,Jits_Linear_5,158,9999,9999,9999,1725614144
2017,19,Jits_Linear_5,159,9999,9999,9999,1726404680
2017,19,Jits_Linear_5,160,9999,9999,9999,1727204412
2017,19,Jits_Linear_5,161,9999,9999,9999,1728004212
2017,19,Jits_Linear_5,162,9999,9999,9999,1728804968
2017,19,Jits_Linear_5,163,9999,9999,9999,1729604684
2017,19,Jits_Linear_5,164,9999,9999,9999,1730404468
2017,19,Jits_Linear_5,165,9999,9999,9999,1731214432
2017,19,Jits_Linear_5,166,9999,9999,9999,1732024420
2017,19,Jits_Linear_5,167,9999,9999,9999,1732834380
2017,19,Jits_Linear_5,168,9999,9999,9999,1733644344
2017,19,Jits_Linear_5,169,9999,9999,9999,1734454376
2018,7,Jits_ISO_8,0,5,56,103,1753552192
2018,7,Jits_ISO_8,1,5,63,98,1753555516
2018,7,Jits_ISO_8,2,5,80,127,1753558556
2018,7,Jits_ISO_8,0,1,48,27,1754193972
2018,7,Jits_ISO_8,1,5,56,103,1754352040
2018,7,Jits_ISO_8,2,5,63,98,1754354908
2018,7,Jits_ISO_8,3,5,80,127,1754358100
2018,7,Jits_ISO_8,0,1,48,44,1755083088
2018,7,Jits_ISO_8,1,5,80,127,1755092312
2018,7,Jits_ISO_8,2,5,63,98,1755181536
2018,7,Jits_ISO_8,3,5,56,103,1755191788
2018,7,Jits_ISO_8,0,5,56,103,1755911796
2018,7,Jits_ISO_8,1,5,63,98,1755921976
2018,7,Jits_ISO_8,2,1,48,51,1756000788
2018,7,Jits_ISO_8,3,5,80,127,1756011876
2018,7,Jits_ISO_8,0,1,48,46,1756616656
2018,7,Jits_ISO_8,1,5,63,98,1756681688
2018,7,Jits_ISO_8,2,5,80,127,1756712568
2018,7,Jits_ISO_8,3,5,56,103,1756741900
2018,7,Jits_ISO_8,0,1,48,45,1757388548
2018,7,Jits_ISO_8,1,5,56,103,1757483560
2018,7,Jits_ISO_8,2,5,80,127,1757581704
2018,7,Jits_ISO_8,3,5,63,98,1757631848
2018,7,Jits_ISO_8,0,5,56,103,1758282044
2018,7,Jits_ISO_8,1,5,80,127,1758332536
2018,7,Jits_ISO_8,2,1,48,32,1758349872
2018,7,Jits_ISO_8,3,5,63,98,1758372132
2018,7,Jits_ISO_8,0,1,48,38,1759031492
2018,7,Jits_ISO_8,1,5,80,127,1759111624
2018,7,Jits_ISO_8,2,5,63,98,1759142380
2018,7,Jits_ISO_8,3,5,56,103,1759211868
2018,7,Jits_ISO_8,0,1,48,35,1759927724
2018,7,Jits_ISO_8,1,5,63,98,1759942192
2018,7,Jits_ISO_8,2,5,56,103,1759971744
2018,7,Jits_ISO_8,3,5,80,127,1760032316
2018,7,Jits_ISO_8,0,5,56,103,1760682464
2018,7,Jits_ISO_8,1,5,80,127,1760685452
2018,7,Jits_ISO_8,2,1,48,35,1760782884
2018,7,Jits_ISO_8,3,5,63,98,1760802356
2018,7,Jits_ISO_8,0,1,48,39,1761493532
2018,7,Jits_ISO_8,1,5,56,103,1761561924
2018,7,Jits_ISO_8,2,5,80,127,1761601780
2018,7,Jits_ISO_8,3,5,63,98,1761612332
2018,7,Jits_ISO_8,0,5,56,103,1762321720
2018,7,Jits_ISO_8,1,1,48,49,1762333360
2018,7,Jits_ISO_8,2,5,80,127,1762342508
2018,7,Jits_ISO_8,3,5,63,98,1762422396
2018,7,Jits_ISO_8,0,5,80,127,1763112260
2018,7,Jits_ISO_8,1,1,48,49,1763142828
2018,7,Jits_ISO_8,2,5,56,103,1763211588
2018,7,Jits_ISO_8,3,5,63,98,1763221768
2018,7,Jits_ISO_8,0,5,63,98,1763882384
2018,7,Jits_ISO_8,1,5,80,127,1763941632
2018,7,Jits_ISO_8,2,1,48,51,1763942596
2018,7,Jits_ISO_8,3,5,56,103,1763952248
2018,7,Jits_ISO_8,0,1,48,49,1764663524
2018,7,Jits_ISO_8,1,5,56,103,1764682172
2018,7,Jits_ISO_8,2,5,63,98,1764751740
2018,7,Jits_ISO_8,3,5,80,127,1764755172
2018,7,Jits_ISO_8,0,1,48,43,1765436008
2018,7,Jits_ISO_8,1,5,63,98,1765511584
2018,7,Jits_ISO_8,2,5,56,103,1765561788
2018,7,Jits_ISO_8,3,5,80,127,1765564700
2018,7,Jits_ISO_8,0,5,56,103,1766272484
2018,7,Jits_ISO_8,1,5,80,127,1766275544
2018,7,Jits_ISO_8,2,1,48,40,1766280248
2018,7,Jits_ISO_8,3,5,63,98,1766361440
2018,7,Jits_ISO_8,0,1,48,37,1767042032
2018,7,Jits_ISO_8,1,5,63,98,1767112244
2018,7,Jits_ISO_8,2,5,56,103,1767202140
2018,7,Jits_ISO_8,3,5,80,127,1767231992
2018,7,Jits_ISO_8,0,1,48,34,1767864224
2018,7,Jits_ISO_8,1,5,56,103,1767901580
2018,7,Jits_ISO_8,2,5,63,98,1768002172
2018,7,Jits_ISO_8,3,5,80,127,1768031576
2018,7,Jits_ISO_8,0,1,48,43,1768636880
2018,7,Jits_ISO_8,1,5,63,98,1768721956
2018,7,Jits_ISO_8,2,5,56,103,1768732192
2018,7,Jits_ISO_8,3,5,80,127,1768822100
2018,7,Jits_ISO_8,0,1,48,44,1769471400
2018,7,Jits_ISO_8,1,5,63,98,1769541956
2018,7,Jits_ISO_8,2,5,56,103,1769622204
2018,7,Jits_ISO_8,3,5,80,127,1769625184
2018,7,Jits_ISO_8,0,1,48,45,1770277024
2018,7,Jits_ISO_8,1,5,80,127,1770301964
2018,7,Jits_ISO_8,2,5,63,98,1770322240
2018,7,Jits_ISO_8,3,5,56,103,1770381620
2018,7,Jits_ISO_8,0,1,48,42,1771018176
2018,7,Jits_ISO_8,1,5,56,103,1771141468
2018,7,Jits_ISO_8,2,5,63,98,1771162268
2018,7,Jits_ISO_8,3,5,80,127,1771165472
2018,7,Jits_ISO_8,0,5,63,98,1771882088
2018,7,Jits_ISO_8,1,1,48,44,1771883052
2018,7,Jits_ISO_8,2,5,80,127,1771961920
2018,7,Jits_ISO_8,3,5,56,103,1771971952
2018,7,Jits_ISO_8,0,5,63,98,1772701960
2018,7,Jits_ISO_8,1,5,56,103,1772721492
2018,7,Jits_ISO_8,2,1,48,35,1772748836
2018,7,Jits_ISO_8,3,5,80,127,1772771976
2018,7,Jits_ISO_8,0,5,80,127,1773501840
2018,7,Jits_ISO_8,1,1,48,40,1773510868
2018,7,Jits_ISO_8,2,5,63,98,1773541852
2018,7,Jits_ISO_8,3,5,56,103,1773562204
2018,7,Jits_ISO_8,0,1,48,42,1774319880
2018,7,Jits_ISO_8,1,5,56,103,1774341812
2018,7,Jits_ISO_8,2,5,63,98,1774352064
2018,7,Jits_ISO_8,3,5,80,127,1774372192
2018,7,Jits_ISO_8,0,5,56,103,1775071684
2018,7,Jits_ISO_8,1,1,48,45,1775074724
2018,7,Jits_ISO_8,2,5,63,98,1775161664
2018,7,Jits_ISO_8,3,5,80,127,1775222236
2018,7,Jits_ISO_8,0,5,80,127,1775902020
2018,7,Jits_ISO_8,1,5,56,103,1775912572
2018,7,Jits_ISO_8,2,1,48,35,1775916580
2018,7,Jits_ISO_8,3,5,63,98,1775981904
2018,7,Jits_ISO_8,0,1,48,39,1776689840
2018,7,Jits_ISO_8,1,5,63,98,1776731672
2018,7,Jits_ISO_8,2,5,80,127,1776821820
2018,7,Jits_ISO_8,3,5,56,103,1776831852
2018,7,Jits_ISO_8,0,5,63,98,1777471948
2018,7,Jits_ISO_8,1,5,80,127,1777521992
2018,7,Jits_ISO_8,2,1,48,30,1777556216
2018,7,Jits_ISO_8,3,5,56,103,1777581404
2018,7,Jits_ISO_8,0,1,48,40,1778300988
2018,7,Jits_ISO_8,1,5,56,103,1778302852
2018,7,Jits_ISO_8,2,5,80,127,1778351584
2018,7,Jits_ISO_8,3,5,63,98,1778371932
2018,7,Jits_ISO_8,0,5,56,103,1779072444
2018,7,Jits_ISO_8,1,5,80,127,1779131716
2018,7,Jits_ISO_8,2,5,63,98,1779202624
2018,7,Jits_ISO_8,0,1,48,26,1779836236
2018,7,Jits_ISO_8,1,5,56,103,1779871968
2018,7,Jits_ISO_8,2,5,80,127,1779901744
2018,7,Jits_ISO_8,3,5,63,98,1779932624
2018,7,Jits_ISO_8,0,5,56,103,1780711788
2018,7,Jits_ISO_8,1,1,48,25,1780725968
2018,7,Jits_ISO_8,2,5,80,127,1780732428
2018,7,Jits_ISO_8,3,5,63,98,1780791524
2018,7,Jits_ISO_8,0,1,48,48,1781487704
2018,7,Jits_ISO_8,1,5,80,127,1781592512
2018,7,Jits_ISO_8,2,5,56,103,1781601572
2018,7,Jits_ISO_8,3,5,63,98,1781611828
2018,7,Jits_ISO_8,0,1,48,21,1782349668
2018,7,Jits_ISO_8,1,5,56,103,1782352472
2018,7,Jits_ISO_8,2,5,80,127,1782392348
2018,7,Jits_ISO_8,3,5,63,98,1782421972
2018,7,Jits_ISO_8,0,5,56,103,1783122368
2018,7,Jits_ISO_8,1,5,63,98,1783152068
2018,7,Jits_ISO_8,2,1,48,40,1783184800
2018,7,Jits_ISO_8,3,5,80,127,1783191784
2018,7,Jits_ISO_8,0,5,80,127,1783871772
2018,7,Jits_ISO_8,1,1,48,29,1783889164
2018,7,Jits_ISO_8,2,5,63,98,1783921884
2018,7,Jits_ISO_8,3,5,56,103,1783941416
2018,7,Jits_ISO_8,0,1,48,40,1784627784
2018,7,Jits_ISO_8,1,5,56,103,1784702392
2018,7,Jits_ISO_8,2,5,80,127,1784772044
2018,7,Jits_ISO_8,3,5,63,98,1784832408
2018,7,Jits_ISO_8,0,1,48,38,1785455564
2018,7,Jits_ISO_8,1,5,80,127,1785502220
2018,7,Jits_ISO_8,2,5,63,98,1785592264
2018,7,Jits_ISO_8,3,5,56,103,1785611496
2018,7,Jits_ISO_8,0,1,48,38,1786275220
2018,7,Jits_ISO_8,1,5,63,98,1786322220
2018,7,Jits_ISO_8,2,5,56,103,1786341680
2018,7,Jits_ISO_8,3,5,80,127,1786381536
2018,7,Jits_ISO_8,0,5,80,127,1787082308
2018,7,Jits_ISO_8,1,1,48,50,1787096040
2018,7,Jits_ISO_8,2,5,63,98,1787101536
2018,7,Jits_ISO_8,3,5,56,103,1787181420
2018,7,Jits_ISO_8,0,5,63,98,1787871576
2018,7,Jits_ISO_8,1,1,48,46,1787889720
2018,7,Jits_ISO_8,2,5,56,103,1787982268
2018,7,Jits_ISO_8,3,5,80,127,1787985404
2018,7,Jits_ISO_8,0,1,48,40,1788640824
2018,7,Jits_ISO_8,1,5,63,98,1788691784
2018,7,Jits_ISO_8,2,5,56,103,1788702256
2018,7,Jits_ISO_8,3,5,80,127,1788705244
2018,7,Jits_ISO_8,0,1,48,48,1789400516
2018,7,Jits_ISO_8,1,5,56,103,1789472192
2018,7,Jits_ISO_8,2,5,80,127,1789592080
2018,7,Jits_ISO_8,3,5,63,98,1789632052
2018,7,Jits_ISO_8,0,1,48,44,1790215348
2018,7,Jits_ISO_8,1,5,56,103,1790292344
2018,7,Jits_ISO_8,2,5,80,127,1790372092
2018,7,Jits_ISO_8,3,5,63,98,1790391620
2018,7,Jits_ISO_8,0,1,48,41,1791044848
2018,7,Jits_ISO_8,1,5,56,103,1791092072
2018,7,Jits_ISO_8,2,5,63,98,1791201736
2018,7,Jits_ISO_8,3,5,80,127,1791205092
2018,7,Jits_ISO_8,0,1,48,39,1791840832
2018,7,Jits_ISO_8,1,5,56,103,1791921512
2018,7,Jits_ISO_8,2,5,80,127,1791952316
2018,7,Jits_ISO_8,3,5,63,98,1791971624
2018,7,Jits_ISO_8,0,5,63,98,1792702244
2018,7,Jits_ISO_8,1,1,48,44,1792708568
2018,7,Jits_ISO_8,2,5,56,103,1792711972
2018,7,Jits_ISO_8,3,5,80,127,1792722372
2018,7,Jits_ISO_8,0,1,48,54,1793464384
2018,7,Jits_ISO_8,1,5,80,127,1793492460
2018,7,Jits_ISO_8,2,5,56,103,1793541536
2018,7,Jits_ISO_8,3,5,63,98,1793581540
2018,7,Jits_ISO_8,0,1,48,34,1794265452
2018,7,Jits_ISO_8,1,5,80,127,1794311484
2018,7,Jits_ISO_8,2,5,63,98,1794331984
2018,7,Jits_ISO_8,3,5,56,103,1794382308
2018,7,Jits_ISO_8,0,1,48,46,1795073556
2018,7,Jits_ISO_8,1,5,80,127,1795121604
2018,7,Jits_ISO_8,2,5,56,103,1795152204
2018,7,Jits_ISO_8,3,5,63,98,1795221976
2018,7,Jits_ISO_8,0,1,48,52,1795919128
2018,7,Jits_ISO_8,1,5,56,103,1795971372
2018,7,Jits_ISO_8,2,5,80,127,1795981924
2018,7,Jits_ISO_8,3,5,63,98,1796021808
2018,7,Jits_ISO_8,0,5,56,103,1796682028
2018,7,Jits_ISO_8,1,5,63,98,1796701704
2018,7,Jits_ISO_8,2,1,48,50,1796728372
2018,7,Jits_ISO_8,3,5,80,127,1796772256
2018,7,Jits_ISO_8,0,1,48,47,1797439780
2018,7,Jits_ISO_8,1,5,63,98,1797502180
2018,7,Jits_ISO_8,2,5,80,127,1797561784
2018,7,Jits_ISO_8,3,5,56,103,1797582208
2018,7,Jits_ISO_8,0,1,48,56,1798234832
2018,7,Jits_ISO_8,1,5,80,127,1798291784
2018,7,Jits_ISO_8,2,5,56,103,1798321732
2018,7,Jits_ISO_8,3,5,63,98,1798352168
2018,7,Jits_ISO_8,0,1,48,43,1799065676
2018,7,Jits_ISO_8,1,5,56,103,1799091756
2018,7,Jits_ISO_8,2,5,63,98,1799151900
2018,7,Jits_ISO_8,3,5,80,127,1799212620
2018,7,Jits_ISO_8,0,1,48,38,1799863632
2018,7,Jits_ISO_8,1,5,80,127,1799911752
2018,7,Jits_ISO_8,2,5,56,103,1799932328
2018,7,Jits_ISO_8,3,5,63,98,1800001952
2018,7,Jits_ISO_8,0,1,48,40,1800658788
2018,7,Jits_ISO_8,1,5,80,127,1800711632
2018,7,Jits_ISO_8,2,5,63,98,1800731908
2018,7,Jits_ISO_8,3,5,56,103,1800761668
2018,7,Jits_ISO_8,0,1,48,43,1801469060
2018,7,Jits_ISO_8,1,5,80,127,1801502008
2018,7,Jits_ISO_8,2,5,63,98,1801521760
2018,7,Jits_ISO_8,3,5,56,103,1801581884
2018,7,Jits_ISO_8,0,1,48,37,1802272912
2018,7,Jits_ISO_8,1,5,80,127,1802301732
2018,7,Jits_ISO_8,2,5,56,103,1802402052
2018,7,Jits_ISO_8,3,5,63,98,1802431752
2018,7,Jits_ISO_8,0,5,63,98,1803092416
2018,7,Jits_ISO_8,1,1,48,48,1803111840
2018,7,Jits_ISO_8,2,5,80,127,1803141708
2018,7,Jits_ISO_8,3,5,56,103,1803161908
2018,7,Jits_ISO_8,0,1,48,50,1803897312
2018,7,Jits_ISO_8,1,5,80,127,1803932004
2018,7,Jits_ISO_8,2,5,56,103,1803961704
2018,7,Jits_ISO_8,3,5,63,98,1803964840
2018,7,Jits_ISO_8,0,1,48,43,1804691660
2018,7,Jits_ISO_8,1,5,63,98,1804761492
2018,7,Jits_ISO_8,2,5,56,103,1804802544
2018,7,Jits_ISO_8,3,5,80,127,1804821852
2018,7,Jits_ISO_8,0,1,48,40,1805492388
2018,7,Jits_ISO_8,1,5,80,127,1805501836
2018,7,Jits_ISO_8,2,5,63,98,1805581576
2018,7,Jits_ISO_8,3,5,56,103,1805621580
2018,7,Jits_ISO_8,0,5,63,98,1806321992
2018,7,Jits_ISO_8,1,1,48,48,1806367580
2018,7,Jits_ISO_8,2,5,80,127,1806402024
2018,7,Jits_ISO_8,3,5,56,103,1806422372
2018,7,Jits_ISO_8,0,1,48,49,1807127592
2018,7,Jits_ISO_8,1,5,56,103,1807161584
2018,7,Jits_ISO_8,2,5,63,98,1807172136
2018,7,Jits_ISO_8,3,5,80,127,1807212080
2018,7,Jits_ISO_8,0,5,56,103,1807881512
2018,7,Jits_ISO_8,1,5,80,127,1807884648
2018,7,Jits_ISO_8,2,1,48,45,1807934432
2018,7,Jits_ISO_8,3,5,63,98,1808021820
2018,7,Jits_ISO_8,0,5,56,103,1808672340
2018,7,Jits_ISO_8,1,1,48,49,1808752948
2018,7,Jits_ISO_8,2,5,63,98,1808762172
2018,7,Jits_ISO_8,3,5,80,127,1808831760
2018,7,Jits_ISO_8,0,1,48,40,1809495088
2018,7,Jits_ISO_8,1,5,63,98,1809551732
2018,7,Jits_ISO_8,2,5,80,127,1809555092
2018,7,Jits_ISO_8,3,5,56,103,1809612332
2018,7,Jits_ISO_8,0,1,48,42,1810271772
2018,7,Jits_ISO_8,1,5,80,127,1810392380
2018,7,Jits_ISO_8,2,5,56,103,1810412056
2018,7,Jits_ISO_8,3,5,63,98,1810422088
2018,7,Jits_ISO_8,0,5,56,103,1811102228
2018,7,Jits_ISO_8,1,1,48,40,1811106240
2018,7,Jits_ISO_8,2,5,63,98,1811112328
2018,7,Jits_ISO_8,3,5,80,127,1811182116
2018,7,Jits_ISO_8,0,1,48,50,1811893264
2018,7,Jits_ISO_8,1,5,80,127,1811901668
2018,7,Jits_ISO_8,2,5,56,103,1811952012
2018,7,Jits_ISO_8,3,5,63,98,1812002116
2018,7,Jits_ISO_8,0,1,48,54,1812731220
2018,7,Jits_ISO_8,1,5,56,103,1812781356
2018,7,Jits_ISO_8,2,5,63,98,1812791608
2018,7,Jits_ISO_8,3,5,80,127,1812831540
2018,7,Jits_ISO_8,0,5,56,103,1813521856
2018,7,Jits_ISO_8,1,5,63,98,1813561804
2018,7,Jits_ISO_8,2,1,48,44,1813564388
2018,7,Jits_ISO_8,3,5,80,127,1813612284
2018,7,Jits_ISO_8,0,5,80,127,1814281508
2018,7,Jits_ISO_8,1,1,48,42,1814285668
2018,7,Jits_ISO_8,2,5,56,103,1814331920
2018,7,Jits_ISO_8,3,5,63,98,1814352272
2018,7,Jits_ISO_8,0,1,48,39,1815051300
2018,7,Jits_ISO_8,1,5,80,127,1815091708
2018,7,Jits_ISO_8,2,5,63,98,1815151840
2018,7,Jits_ISO_8,3,5,56,103,1815231968
2018,7,Jits_ISO_8,0,5,80,127,1815872068
2018,7,Jits_ISO_8,1,5,56,103,1815912016
2018,7,Jits_ISO_8,2,1,48,15,1815932072
2018,7,Jits_ISO_8,3,5,63,98,1815933776
2018,7,Jits_ISO_8,0,1,48,41,1816657180
2018,7,Jits_ISO_8,1,5,56,103,1816721912
2018,7,Jits_ISO_8,2,5,80,127,1816731968
2018,7,Jits_ISO_8,3,5,63,98,1816772120
2018,7,Jits_ISO_8,0,1,48,38,1817477476
2018,7,Jits_ISO_8,1,5,56,103,1817592032
2018,7,Jits_ISO_8,2,5,63,98,1817631976
2018,7,Jits_ISO_8,3,5,80,127,1817635340
2018,7,Jits_ISO_8,0,5,63,98,1818282204
2018,7,Jits_ISO_8,1,5,80,127,1818322376
2018,7,Jits_ISO_8,2,5,56,103,1818392016
2018,7,Jits_ISO_8,3,1,48,46,1818429988
2018,7,Jits_ISO_8,0,1,48,54,1819071004
2018,7,Jits_ISO_8,1,5,63,98,1819072720
2018,7,Jits_ISO_8,2,5,56,103,1819151712
2018,7,Jits_ISO_8,3,5,80,127,1819212212
2018,7,Jits_ISO_8,0,5,80,127,1819881808
2018,7,Jits_ISO_8,1,1,48,40,1819906832
2018,7,Jits_ISO_8,2,5,63,98,1819932068
2018,7,Jits_ISO_8,3,5,56,103,1819961844
2018,7,Jits_ISO_8,0,1,48,35,1820669680
2018,7,Jits_ISO_8,1,5,56,103,1820672560
2018,7,Jits_ISO_8,2,5,63,98,1820721632
2018,7,Jits_ISO_8,3,5,80,127,1820731740
2018,7,Jits_ISO_8,0,1,48,33,1821476516
2018,7,Jits_ISO_8,1,5,56,103,1821482456
2018,7,Jits_ISO_8,2,5,63,98,1821591872
2018,7,Jits_ISO_8,3,5,80,127,1821612620
2018,7,Jits_ISO_8,0,5,63,98,1822282040
2018,7,Jits_ISO_8,1,1,48,30,1822318808
2018,7,Jits_ISO_8,2,5,80,127,1822332304
2018,7,Jits_ISO_8,3,5,56,103,1822422592
2018,7,Jits_ISO_8,0,5,63,98,1823071744
2018,7,Jits_ISO_8,1,5,80,127,1823102416
2018,7,Jits_ISO_8,2,1,48,44,1823104856
2018,7,Jits_ISO_8,3,5,56,103,1823192716
2018,7,Jits_ISO_8,0,1,48,38,1823870176
2018,7,Jits_ISO_8,1,5,63,98,1823872656
2018,7,Jits_ISO_8,2,5,56,103,1823881568
2018,7,Jits_ISO_8,3,5,80,127,1823981956
2018,7,Jits_ISO_8,0,1,48,25,1824671040
2018,7,Jits_ISO_8,1,5,63,98,1824771424
2018,7,Jits_ISO_8,2,5,80,127,1824802396
2018,7,Jits_ISO_8,3,5,56,103,1824831800
2018,7,Jits_ISO_8,0,1,48,39,1825467772
2018,7,Jits_ISO_8,1,5,80,127,1825591804
2018,7,Jits_ISO_8,2,5,63,98,1825601984
2018,7,Jits_ISO_8,3,5,56,103,1825631684
2018,7,Jits_ISO_8,0,5,80,127,1826291932
2018,7,Jits_ISO_8,1,5,63,98,1826311536
2018,7,Jits_ISO_8,2,1,48,54,1826321464
2018,7,Jits_ISO_8,3,5,56,103,1826361724
2018,7,Jits_ISO_8,0,1,48,39,1827093428
2018,7,Jits_ISO_8,1,5,63,98,1827121508
2018,7,Jits_ISO_8,2,5,80,127,1827181876
2018,7,Jits_ISO_8,3,5,56,103,1827202432
2018,7,Jits_ISO_8,0,5,63,98,1827882276
2018,7,Jits_ISO_8,1,1,48,44,1827893544
2018,7,Jits_ISO_8,2,5,56,103,1827931568
2018,7,Jits_ISO_8,3,5,80,127,1827941672
2018,7,Jits_ISO_8,0,1,48,39,1828630356
2018,7,Jits_ISO_8,1,5,56,103,1828711836
2018,7,Jits_ISO_8,2,5,80,127,1828722236
2018,7,Jits_ISO_8,3,5,63,98,1828822328
2018,7,Jits_ISO_8,0,5,80,127,1829471704
2018,7,Jits_ISO_8,1,5,63,98,1829481884
2018,7,Jits_ISO_8,2,1,48,49,1829558764
2018,7,Jits_ISO_8,3,5,56,103,1829632240
2018,7,Jits_ISO_8,0,5,63,98,1830281544
2018,7,Jits_ISO_8,1,1,48,48,1830288688
2018,7,Jits_ISO_8,2,5,80,127,1830321436
2018,7,Jits_ISO_8,3,5,56,103,1830402276
2018,7,Jits_ISO_8,0,5,56,103,1831072392
2018,7,Jits_ISO_8,1,1,48,46,1831120168
2018,7,Jits_ISO_8,2,5,80,127,1831171500
2018,7,Jits_ISO_8,3,5,63,98,1831191848
2018,7,Jits_ISO_8,0,5,80,127,1831932272
2018,7,Jits_ISO_8,1,1,48,44,1831937104
2018,7,Jits_ISO_8,2,5,56,103,1831941476
2018,7,Jits_ISO_8,3,5,63,98,1832031680
2018,7,Jits_ISO_8,0,5,56,103,1832732168
2018,7,Jits_ISO_8,1,5,63,98,1832751400
2018,7,Jits_ISO_8,2,1,48,40,1832823848
2018,7,Jits_ISO_8,3,5,80,127,1832832472
2018,7,Jits_ISO_8,0,5,63,98,1833481576
2018,7,Jits_ISO_8,1,1,48,42,1833493144
2018,7,Jits_ISO_8,2,5,56,103,1833571628
2018,7,Jits_ISO_8,3,5,80,127,1833574764
2018,7,Jits_ISO_8,0,1,48,47,1834228148
2018,7,Jits_ISO_8,1,5,56,103,1834312180
2018,7,Jits_ISO_8,2,5,80,127,1834371412
2018,7,Jits_ISO_8,3,5,63,98,1834381812
2018,7,Jits_ISO_8,0,1,48,48,1835047620
2018,7,Jits_ISO_8,1,5,80,127,1835162256
2018,7,Jits_ISO_8,2,5,56,103,1835172136
2018,7,Jits_ISO_8,3,5,63,98,1835175348
2018,7,Jits_ISO_8,0,1,48,47,1835899324
2018,7,Jits_ISO_8,1,5,56,103,1835921948
2018,7,Jits_ISO_8,2,5,80,127,1835932004
2018,7,Jits_ISO_8,3,5,63,98,1835951460
2018,7,Jits_ISO_8,0,1,48,40,1836640048
2018,7,Jits_ISO_8,1,5,63,98,1836691904
2018,7,Jits_ISO_8,2,5,80,127,1836752280
2018,7,Jits_ISO_8,3,5,56,103,1836802400
2018,7,Jits_ISO_8,0,1,48,42,1837442688
2018,7,Jits_ISO_8,1,5,63,98,1837571376
2018,7,Jits_ISO_8,2,5,56,103,1837581704
2018,7,Jits_ISO_8,3,5,80,127,1837631820
2018,7,Jits_ISO_8,0,5,63,98,1838271872
2018,7,Jits_ISO_8,1,5,80,127,1838292224
2018,7,Jits_ISO_8,2,5,56,103,1838301656
2018,7,Jits_ISO_8,3,1,48,51,1838317480
2018,7,Jits_ISO_8,0,1,48,42,1838997556
2018,7,Jits_ISO_8,1,5,63,98,1839071736
2018,7,Jits_ISO_8,2,5,80,127,1839075092
2018,7,Jits_ISO_8,3,5,56,103,1839111668
2018,7,Jits_ISO_8,0,1,48,44,1839766000
2018,7,Jits_ISO_8,1,5,63,98,1839941892
2018,7,Jits_ISO_8,2,5,80,127,1839971892
2018,7,Jits_ISO_8,3,5,56,103,1839981920
2018,7,Jits_ISO_8,0,5,56,103,1840691676
2018,7,Jits_ISO_8,1,5,80,127,1840722424
2018,7,Jits_ISO_8,2,1,48,38,1840730264
2018,7,Jits_ISO_8,3,5,63,98,1840751968
2018,7,Jits_ISO_8,0,1,48,21,1841466692
2018,7,Jits_ISO_8,1,5,63,98,1841591796
2018,7,Jits_ISO_8,2,5,56,103,1841631668
2018,7,Jits_ISO_8,3,5,80,127,1841634880
2018,7,Jits_ISO_8,0,5,80,127,1842292112
2018,7,Jits_ISO_8,1,1,48,48,1842362872
2018,7,Jits_ISO_8,2,5,56,103,1842371872
2018,7,Jits_ISO_8,3,5,63,98,1842422212
2018,7,Jits_ISO_8,0,5,80,127,1843072484
2018,7,Jits_ISO_8,1,5,56,103,1843091792
2018,7,Jits_ISO_8,2,5,63,98,1843181948
2018,7,Jits_ISO_8,3,1,48,30,1843240024
2018,7,Jits_ISO_8,0,5,80,127,1843911968
2018,7,Jits_ISO_8,1,1,48,40,1843946648
2018,7,Jits_ISO_8,2,5,63,98,1843951912
2018,7,Jits_ISO_8,3,5,56,103,1843991856
2018,7,Jits_ISO_8,0,5,63,98,1844682164
2018,7,Jits_ISO_8,1,5,80,127,1844741560
2018,7,Jits_ISO_8,2,1,48,25,1844752608
2018,7,Jits_ISO_8,3,5,56,103,1844772296
2018,7,Jits_ISO_8,0,1,48,49,1845449852
2018,7,Jits_ISO_8,1,5,56,103,1845481732
2018,7,Jits_ISO_8,2,5,80,127,1845511512
2018,7,Jits_ISO_8,3,5,63,98,1845601700
2018,7,Jits_ISO_8,0,1,48,51,1846230352
2018,7,Jits_ISO_8,1,5,56,103,1846291856
2018,7,Jits_ISO_8,2,5,80,127,1846402616
2018,7,Jits_ISO_8,3,5,63,98,1846431972
2018,7,Jits_ISO_8,0,1,48,43,1846977936
2018,7,Jits_ISO_8,1,5,56,103,1847141688
2018,7,Jits_ISO_8,2,5,63,98,1847202156
2018,7,Jits_ISO_8,3,5,80,127,1847231780
2018,7,Jits_ISO_8,0,1,48,38,1847838108
2018,7,Jits_ISO_8,1,5,56,103,1847911740
2018,7,Jits_ISO_8,2,5,63,98,1847981396
2018,7,Jits_ISO_8,3,5,80,127,1848001968
2018,7,Jits_ISO_8,0,1,48,41,1848674868
2018,7,Jits_ISO_8,1,5,80,127,1848681924
2018,7,Jits_ISO_8,2,5,63,98,1848702352
2018,7,Jits_ISO_8,3,5,56,103,1848751672
2018,7,Jits_ISO_8,0,9999,9999,9999,1753949248
2018,7,Jits_ISO_8,1,9999,9999,9999,1754750060
2018,7,Jits_ISO_8,2,9999,9999,9999,1755549812
2018,7,Jits_ISO_8,3,9999,9999,9999,1756349544
2018,7,Jits_ISO_8,4,9999,9999,9999,1757149280
2018,7,Jits_ISO_8,5,9999,9999,9999,1757950056
2018,7,Jits_ISO_8,6,9999,9999,9999,1758749780
2018,7,Jits_ISO_8,7,9999,9999,9999,1759549524
2018,7,Jits_ISO_8,8,9999,9999,9999,1760349256
2018,7,Jits_ISO_8,9,9999,9999,9999,1761150016
2018,7,Jits_ISO_8,10,9999,9999,9999,1761949788
2018,7,Jits_ISO_8,11,9999,9999,9999,1762749516
2018,7,Jits_ISO_8,12,9999,9999,9999,1763549260
2018,7,Jits_ISO_8,13,9999,9999,9999,1764350044
2018,7,Jits_ISO_8,14,9999,9999,9999,1765149760
2018,7,Jits_ISO_8,15,9999,9999,9999,1765949552
2018,7,Jits_ISO_8,16,9999,9999,9999,1766749260
2018,7,Jits_ISO_8,17,9999,9999,9999,1767550052
2018,7,Jits_ISO_8,18,9999,9999,9999,1768349808
2018,7,Jits_ISO_8,19,9999,9999,9999,1769149536
2018,7,Jits_ISO_8,20,9999,9999,9999,1769949264
2018,7,Jits_ISO_8,21,9999,9999,9999,1770750036
2018,7,Jits_ISO_8,22,9999,9999,9999,1771549804
2018,7,Jits_ISO_8,23,9999,9999,9999,1772349528
2018,7,Jits_ISO_8,24,9999,9999,9999,1773149256
2018,7,Jits_ISO_8,25,9999,9999,9999,1773950028
2018,7,Jits_ISO_8,26,9999,9999,9999,1774749792
2018,7,Jits_ISO_8,27,9999,9999,9999,1775549524
2018,7,Jits_ISO_8,28,9999,9999,9999,1776349264
2018,7,Jits_ISO_8,29,9999,9999,9999,1777150060
2018,7,Jits_ISO_8,30,9999,9999,9999,1777949780
2018,7,Jits_ISO_8,31,9999,9999,9999,1778749508
2018,7,Jits_ISO_8,32,9999,9999,9999,1779549256
2018,7,Jits_ISO_8,33,9999,9999,9999,1780350004
2018,7,Jits_ISO_8,34,9999,9999,9999,1781149756
2018,7,Jits_ISO_8,35,9999,9999,9999,1781949508
2018,7,Jits_ISO_8,36,9999,9999,9999,1782749244
2018,7,Jits_ISO_8,37,9999,9999,9999,1783550016
2018,7,Jits_ISO_8,38,9999,9999,9999,1784349752
2018,7,Jits_ISO_8,39,9999,9999,9999,1785149496
2018,7,Jits_ISO_8,40,9999,9999,9999,1785949300
2018,7,Jits_ISO_8,41,9999,9999,9999,1786750072
2018,7,Jits_ISO_8,42,9999,9999,9999,1787549820
2018,7,Jits_ISO_8,43,9999,9999,9999,1788349552
2018,7,Jits_ISO_8,44,9999,9999,9999,1789149264
2018,7,Jits_ISO_8,45,9999,9999,9999,1789950040
2018,7,Jits_ISO_8,46,9999,9999,9999,1790749768
2018,7,Jits_ISO_8,47,9999,9999,9999,1791549560
2018,7,Jits_ISO_8,48,9999,9999,9999,1792349288
2018,7,Jits_ISO_8,49,9999,9999,9999,1793150056
2018,7,Jits_ISO_8,50,9999,9999,9999,1793949808
2018,7,Jits_ISO_8,51,9999,9999,9999,1794749532
2018,7,Jits_ISO_8,52,9999,9999,9999,1795549260
2018,7,Jits_ISO_8,53,9999,9999,9999,1796350040
2018,7,Jits_ISO_8,54,9999,9999,9999,1797149760
2018,7,Jits_ISO_8,55,9999,9999,9999,1797949556
2018,7,Jits_ISO_8,56,9999,9999,9999,1798749280
2018,7,Jits_ISO_8,57,9999,9999,9999,1799550052
2018,7,Jits_ISO_8,58,9999,9999,9999,1800349804
2018,7,Jits_ISO_8,59,9999,9999,9999,1801149532
2018,7,Jits_ISO_8,60,9999,9999,9999,1801949256
2018,7,Jits_ISO_8,61,9999,9999,9999,1802750032
2018,7,Jits_ISO_8,62,9999,9999,9999,1803549808
2018,7,Jits_ISO_8,63,9999,9999,9999,1804349528
2018,7,Jits_ISO_8,64,9999,9999,9999,1805149260
2018,7,Jits_ISO_8,65,9999,9999,9999,1805950036
2018,7,Jits_ISO_8,66,9999,9999,9999,1806749792
2018,7,Jits_ISO_8,67,9999,9999,9999,1807549524
2018,7,Jits_ISO_8,68,9999,9999,9999,1808349240
2018,7,Jits_ISO_8,69,9999,9999,9999,1809150028
2018,7,Jits_ISO_8,70,9999,9999,9999,1809949764
2018,7,Jits_ISO_8,71,9999,9999,9999,1810749500
2018,7,Jits_ISO_8,72,9999,9999,9999,1811549300
2018,7,Jits_ISO_8,73,9999,9999,9999,1812350016
2018,7,Jits_ISO_8,74,9999,9999,9999,1813149776
2018,7,Jits_ISO_8,75,9999,9999,9999,1813949504
2018,7,Jits_ISO_8,76,9999,9999,9999,1814749244
2018,7,Jits_ISO_8,77,9999,9999,9999,1815550032
2018,7,Jits_ISO_8,78,9999,9999,9999,1816349752
2018,7,Jits_ISO_8,79,9999,9999,9999,1817149492
2018,7,Jits_ISO_8,80,9999,9999,9999,1817949296
2018,7,Jits_ISO_8,81,9999,9999,9999,1818750064
2018,7,Jits_ISO_8,82,9999,9999,9999,1819549816
2018,7,Jits_ISO_8,83,9999,9999,9999,1820349544
2018,7,Jits_ISO_8,84,9999,9999,9999,1821149276
2018,7,Jits_ISO_8,85,9999,9999,9999,1821950052
2018,7,Jits_ISO_8,86,9999,9999,9999,1822749780
2018,7,Jits_ISO_8,87,9999,9999,9999,1823549504
2018,7,Jits_ISO_8,88,9999,9999,9999,1824349300
2018,7,Jits_ISO_8,89,9999,9999,9999,1825150008
2018,7,Jits_ISO_8,90,9999,9999,9999,1825949772
2018,7,Jits_ISO_8,91,9999,9999,9999,1826749492
2018,7,Jits_ISO_8,92,9999,9999,9999,1827549240
2018,7,Jits_ISO_8,93,9999,9999,9999,1828350012
2018,7,Jits_ISO_8,94,9999,9999,9999,1829149812
2018,7,Jits_ISO_8,95,9999,9999,9999,1829949540
2018,7,Jits_ISO_8,96,9999,9999,9999,1830749280
2018,7,Jits_ISO_8,97,9999,9999,9999,1831550052
2018,7,Jits_ISO_8,98,9999,9999,9999,1832349748
2018,7,Jits_ISO_8,99,9999,9999,9999,1833149496
2018,7,Jits_ISO_8,100,9999,9999,9999,1833949304
2018,7,Jits_ISO_8,101,9999,9999,9999,1834750004
2018,7,Jits_ISO_8,102,9999,9999,9999,1835549804
2018,7,Jits_ISO_8,103,9999,9999,9999,1836349528
2018,7,Jits_ISO_8,104,9999,9999,9999,1837149252
2018,7,Jits_ISO_8,105,9999,9999,9999,1837950032
2018,7,Jits_ISO_8,106,9999,9999,9999,1838749776
2018,7,Jits_ISO_8,107,9999,9999,9999,1839549564
2018,7,Jits_ISO_8,108,9999,9999,9999,1840349296
2018,7,Jits_ISO_8,109,9999,9999,9999,1841150060
2018,7,Jits_ISO_8,110,9999,9999,9999,1841949804
2018,7,Jits_ISO_8,111,9999,9999,9999,1842749536
2018,7,Jits_ISO_8,112,9999,9999,9999,1843549276
2018,7,Jits_ISO_8,113,9999,9999,9999,1844350064
2018,7,Jits_ISO_8,114,9999,9999,9999,1845149752
2018,7,Jits_ISO_8,115,9999,9999,9999,1845949552
2018,7,Jits_ISO_8,116,9999,9999,9999,1846749284
2018,7,Jits_ISO_8,117,9999,9999,9999,1847550064
2018,7,Jits_ISO_8,118,9999,9999,9999,1848349796
2018,7,Jits_ISO_8,119,9999,9999,9999,1849149516
2019,16,Jits_ISO_5,0,5,56,103,1874133364
2019,16,Jits_ISO_5,1,5,63,98,1874136384
2019,16,Jits_ISO_5,2,5,80,127,1874139504
2019,16,Jits_ISO_5,0,5,56,103,1874633304
2019,16,Jits_ISO_5,1,5,63,98,1874636328
2019,16,Jits_ISO_5,2,5,80,127,1874639440
2019,16,Jits_ISO_5,0,5,56,103,1875132960
2019,16,Jits_ISO_5,1,5,80,127,1875142992
2019,16,Jits_ISO_5,2,5,63,98,1875162592
2019,16,Jits_ISO_5,0,5,63,98,1875583308
2019,16,Jits_ISO_5,1,5,80,127,1875613328
2019,16,Jits_ISO_5,2,1,48,26,1875622832
2019,16,Jits_ISO_5,3,5,56,103,1875624544
2019,16,Jits_ISO_5,0,1,48,32,1876062440
2019,16,Jits_ISO_5,1,5,80,127,1876142368
2019,16,Jits_ISO_5,2,5,56,103,1876152624
2019,16,Jits_ISO_5,3,5,63,98,1876183428
2019,16,Jits_ISO_5,0,5,63,98,1876632912
2019,16,Jits_ISO_5,1,5,56,103,1876662612
2019,16,Jits_ISO_5,2,1,48,27,1876665276
2019,16,Jits_ISO_5,3,5,80,127,1876673080
2019,16,Jits_ISO_5,0,5,56,103,1877082360
2019,16,Jits_ISO_5,1,5,63,98,1877132700
2019,16,Jits_ISO_5,2,5,80,127,1877153220
2019,16,Jits_ISO_5,3,1,48,25,1877159996
2019,16,Jits_ISO_5,0,5,80,127,1877583148
2019,16,Jits_ISO_5,1,1,48,18,1877625008
2019,16,Jits_ISO_5,2,5,63,98,1877633484
2019,16,Jits_ISO_5,3,5,56,103,1877673452
2019,16,Jits_ISO_5,0,5,56,103,1878083120
2019,16,Jits_ISO_5,1,5,63,98,1878112672
2019,16,Jits_ISO_5,2,1,48,22,1878149808
2019,16,Jits_ISO_5,3,5,80,127,1878183220
2019,16,Jits_ISO_5,0,5,56,103,1878582644
2019,16,Jits_ISO_5,1,1,48,23,1878629056
2019,16,Jits_ISO_5,2,5,80,127,1878643000
2019,16,Jits_ISO_5,3,5,63,98,1878672848
2019,16,Jits_ISO_5,0,5,56,103,1879093008
2019,16,Jits_ISO_5,1,5,63,98,1879103264
2019,16,Jits_ISO_5,2,1,48,27,1879111028
2019,16,Jits_ISO_5,3,5,80,127,1879142976
2019,16,Jits_ISO_5,0,1,48,22,1879583036
2019,16,Jits_ISO_5,1,5,63,98,1879584592
2019,16,Jits_ISO_5,2,5,80,127,1879663060
2019,16,Jits_ISO_5,3,5,56,103,1879673168
2019,16,Jits_ISO_5,0,1,48,28,1880088644
2019,16,Jits_ISO_5,1,5,63,98,1880132876
2019,16,Jits_ISO_5,2,5,56,103,1880172816
2019,16,Jits_ISO_5,3,5,80,127,1880175884
2019,16,Jits_ISO_5,0,5,56,103,1880592968
2019,16,Jits_ISO_5,1,1,48,26,1880602400
2019,16,Jits_ISO_5,2,5,63,98,1880604112
2019,16,Jits_ISO_5,3,5,80,127,1880643008
2019,16,Jits_ISO_5,0,1,48,30,1881074504
2019,16,Jits_ISO_5,1,5,56,103,1881083204
2019,16,Jits_ISO_5,2,5,63,98,1881086268
2019,16,Jits_ISO_5,3,5,80,127,1881102880
2019,16,Jits_ISO_5,0,1,48,28,1881529564
2019,16,Jits_ISO_5,1,5,80,127,1881593320
2019,16,Jits_ISO_5,2,5,56,103,1881602304
2019,16,Jits_ISO_5,3,5,63,98,1881673192
2019,16,Jits_ISO_5,0,5,63,98,1882082816
2019,16,Jits_ISO_5,1,5,56,103,1882103168
2019,16,Jits_ISO_5,2,1,48,29,1882118468
2019,16,Jits_ISO_5,3,5,80,127,1882182964
2019,16,Jits_ISO_5,0,5,56,103,1882592796
2019,16,Jits_ISO_5,1,1,48,29,1882603692
2019,16,Jits_ISO_5,2,5,80,127,1882632736
2019,16,Jits_ISO_5,3,5,63,98,1882642764
2019,16,Jits_ISO_5,0,1,48,30,1883066704
2019,16,Jits_ISO_5,1,5,80,127,1883083112
2019,16,Jits_ISO_5,2,5,63,98,1883112960
2019,16,Jits_ISO_5,3,5,56,103,1883152976
2019,16,Jits_ISO_5,0,1,48,27,1883579448
2019,16,Jits_ISO_5,1,5,56,103,1883603188
2019,16,Jits_ISO_5,2,5,63,98,1883632964
2019,16,Jits_ISO_5,3,5,80,127,1883683288
2019,16,Jits_ISO_5,0,1,48,30,1884055476
2019,16,Jits_ISO_5,1,5,80,127,1884103148
2019,16,Jits_ISO_5,2,5,56,103,1884143020
2019,16,Jits_ISO_5,3,5,63,98,1884153184
2019,16,Jits_ISO_5,0,5,80,127,1884583220
2019,16,Jits_ISO_5,1,1,48,23,1884599116
2019,16,Jits_ISO_5,2,5,63,98,1884623160
2019,16,Jits_ISO_5,3,5,56,103,1884682844
2019,16,Jits_ISO_5,0,5,56,103,1885082892
2019,16,Jits_ISO_5,1,1,48,26,1885091404
2019,16,Jits_ISO_5,2,5,80,127,1885093140
2019,16,Jits_ISO_5,3,5,63,98,1885173096
2019,16,Jits_ISO_5,0,1,48,31,1885569628
2019,16,Jits_ISO_5,1,5,80,127,1885582828
2019,16,Jits_ISO_5,2,5,63,98,1885643140
2019,16,Jits_ISO_5,3,5,56,103,1885672676
2019,16,Jits_ISO_5,0,1,48,29,1886069364
2019,16,Jits_ISO_5,1,5,56,103,1886082488
2019,16,Jits_ISO_5,2,5,80,127,1886142952
2019,16,Jits_ISO_5,3,5,63,98,1886182732
2019,16,Jits_ISO_5,0,1,48,31,1886560368
2019,16,Jits_ISO_5,1,5,56,103,1886633184
2019,16,Jits_ISO_5,2,5,63,98,1886642760
2019,16,Jits_ISO_5,3,5,80,127,1886646120
2019,16,Jits_ISO_5,0,1,48,32,1887082780
2019,16,Jits_ISO_5,1,5,80,127,1887084408
2019,16,Jits_ISO_5,2,5,63,98,1887172852
2019,16,Jits_ISO_5,3,5,56,103,1887183092
2019,16,Jits_ISO_5,0,5,56,103,1887582724
2019,16,Jits_ISO_5,1,5,63,98,1887585744
2019,16,Jits_ISO_5,2,5,80,127,1887588932
2019,16,Jits_ISO_5,3,1,48,27,1887621160
2019,16,Jits_ISO_5,0,1,48,30,1888078980
2019,16,Jits_ISO_5,1,5,80,127,1888102648
2019,16,Jits_ISO_5,2,5,63,98,1888152940
2019,16,Jits_ISO_5,3,5,56,103,1888182696
2019,16,Jits_ISO_5,0,5,56,103,1888582940
2019,16,Jits_ISO_5,1,1,48,29,1888590312
2019,16,Jits_ISO_5,2,5,80,127,1888593188
2019,16,Jits_ISO_5,3,5,63,98,1888662772
2019,16,Jits_ISO_5,0,5,56,103,1889092932
2019,16,Jits_ISO_5,1,1,48,31,1889095668
2019,16,Jits_ISO_5,2,5,63,98,1889112600
2019,16,Jits_ISO_5,3,5,80,127,1889172840
2019,16,Jits_ISO_5,0,5,80,127,1889582580
2019,16,Jits_ISO_5,1,1,48,33,1889587860
2019,16,Jits_ISO_5,2,5,63,98,1889653180
2019,16,Jits_ISO_5,3,5,56,103,1889672484
2019,16,Jits_ISO_5,0,1,48,23,1890100312
2019,16,Jits_ISO_5,1,5,80,127,1890102664
2019,16,Jits_ISO_5,2,5,56,103,1890112768
2019,16,Jits_ISO_5,3,5,63,98,1890123172
2019,16,Jits_ISO_5,0,5,80,127,1890593124
2019,16,Jits_ISO_5,1,1,48,23,1890611828
2019,16,Jits_ISO_5,2,5,56,103,1890613544
2019,16,Jits_ISO_5,3,5,63,98,1890683328
2019,16,Jits_ISO_5,0,1,48,27,1891094716
2019,16,Jits_ISO_5,1,5,56,103,1891103412
2019,16,Jits_ISO_5,2,5,80,127,1891132740
2019,16,Jits_ISO_5,3,5,63,98,1891153536
2019,16,Jits_ISO_5,0,1,48,32,1891565052
2019,16,Jits_ISO_5,1,5,63,98,1891592604
2019,16,Jits_ISO_5,2,5,56,103,1891653116
2019,16,Jits_ISO_5,3,5,80,127,1891682576
2019,16,Jits_ISO_5,0,1,48,32,1892060528
2019,16,Jits_ISO_5,1,5,63,98,1892083360
2019,16,Jits_ISO_5,2,5,80,127,1892086712
2019,16,Jits_ISO_5,3,5,56,103,1892173244
2019,16,Jits_ISO_5,0,1,48,30,1892574528
2019,16,Jits_ISO_5,1,5,56,103,1892603348
2019,16,Jits_ISO_5,2,5,63,98,1892632900
2019,16,Jits_ISO_5,3,5,80,127,1892672756
2019,16,Jits_ISO_5,0,1,48,29,1893069468
2019,16,Jits_ISO_5,1,5,63,98,1893103008
2019,16,Jits_ISO_5,2,5,56,103,1893142880
2019,16,Jits_ISO_5,3,5,80,127,1893163304
2019,16,Jits_ISO_5,0,1,48,29,1893578624
2019,16,Jits_ISO_5,1,5,63,98,1893612764
2019,16,Jits_ISO_5,2,5,56,103,1893652784
2019,16,Jits_ISO_5,3,5,80,127,1893663332
2019,16,Jits_ISO_5,0,1,48,36,1894090620
2019,16,Jits_ISO_5,1,5,80,127,1894093276
2019,16,Jits_ISO_5,2,5,63,98,1894162768
2019,16,Jits_ISO_5,3,5,56,103,1894183340
2019,16,Jits_ISO_5,0,5,56,103,1894582628
2019,16,Jits_ISO_5,1,5,80,127,1894603348
2019,16,Jits_ISO_5,2,1,48,32,1894609300
2019,16,Jits_ISO_5,3,5,63,98,1894643432
2019,16,Jits_ISO_5,0,1,48,32,1895092392
2019,16,Jits_ISO_5,1,5,63,98,1895094248
2019,16,Jits_ISO_5,2,5,80,127,1895113184
2019,16,Jits_ISO_5,3,5,56,103,1895153128
2019,16,Jits_ISO_5,0,1,48,29,1895588872
2019,16,Jits_ISO_5,1,5,63,98,1895593312
2019,16,Jits_ISO_5,2,5,56,103,1895612768
2019,16,Jits_ISO_5,3,5,80,127,1895623240
2019,16,Jits_ISO_5,0,1,48,29,1896039880
2019,16,Jits_ISO_5,1,5,80,127,1896093116
2019,16,Jits_ISO_5,2,5,56,103,1896112568
2019,16,Jits_ISO_5,3,5,63,98,1896143152
2019,16,Jits_ISO_5,0,1,48,23,1896537064
2019,16,Jits_ISO_5,1,5,56,103,1896663356
2019,16,Jits_ISO_5,2,5,80,127,1896666348
2019,16,Jits_ISO_5,3,5,63,98,1896682960
2019,16,Jits_ISO_5,0,5,63,98,1897083356
2019,16,Jits_ISO_5,1,5,56,103,1897113228
2019,16,Jits_ISO_5,2,1,48,18,1897160680
2019,16,Jits_ISO_5,3,5,80,127,1897173284
2019,16,Jits_ISO_5,0,1,48,22,1897649564
2019,16,Jits_ISO_5,1,5,63,98,1897662760
2019,16,Jits_ISO_5,2,5,56,103,1897673012
2019,16,Jits_ISO_5,3,5,80,127,1897683340
2019,16,Jits_ISO_5,0,5,56,103,1898113340
2019,16,Jits_ISO_5,1,1,48,30,1898136444
2019,16,Jits_ISO_5,2,5,80,127,1898143208
2019,16,Jits_ISO_5,3,5,63,98,1898153312
2019,16,Jits_ISO_5,0,1,48,30,1898584332
2019,16,Jits_ISO_5,1,5,63,98,1898653040
2019,16,Jits_ISO_5,2,5,56,103,1898663368
2019,16,Jits_ISO_5,3,5,80,127,1898682660
2019,16,Jits_ISO_5,0,5,56,103,1899083200
2019,16,Jits_ISO_5,1,1,48,31,1899118320
2019,16,Jits_ISO_5,2,5,63,98,1899142436
2019,16,Jits_ISO_5,3,5,80,127,1899146016
2019,16,Jits_ISO_5,0,5,80,127,1899603356
2019,16,Jits_ISO_5,1,5,56,103,1899612640
2019,16,Jits_ISO_5,2,1,48,32,1899621596
2019,16,Jits_ISO_5,3,5,63,98,1899683116
2019,16,Jits_ISO_5,0,5,80,127,1900092856
2019,16,Jits_ISO_5,1,1,48,28,1900122680
2019,16,Jits_ISO_5,2,5,56,103,1900162416
2019,16,Jits_ISO_5,3,5,63,98,1900172744
2019,16,Jits_ISO_5,0,5,63,98,1900632400
2019,16,Jits_ISO_5,1,1,48,28,1900636488
2019,16,Jits_ISO_5,2,5,56,103,1900643020
2019,16,Jits_ISO_5,3,5,80,127,1900663072
2019,16,Jits_ISO_5,0,5,80,127,1901082996
2019,16,Jits_ISO_5,1,1,48,36,1901120676
2019,16,Jits_ISO_5,2,5,63,98,1901143352
2019,16,Jits_ISO_5,3,5,56,103,1901183220
2019,16,Jits_ISO_5,0,1,48,29,1901588836
2019,16,Jits_ISO_5,1,5,56,103,1901622600
2019,16,Jits_ISO_5,2,5,63,98,1901632928
2019,16,Jits_ISO_5,3,5,80,127,1901672948
2019,16,Jits_ISO_5,0,5,56,103,1902082552
2019,16,Jits_ISO_5,1,5,80,127,1902113148
2019,16,Jits_ISO_5,2,1,48,28,1902150652
2019,16,Jits_ISO_5,3,5,63,98,1902163180
2019,16,Jits_ISO_5,0,5,56,103,1902623208
2019,16,Jits_ISO_5,1,1,48,35,1902643828
2019,16,Jits_ISO_5,2,5,63,98,1902663072
2019,16,Jits_ISO_5,3,5,80,127,1902666284
2019,16,Jits_ISO_5,0,1,48,25,1903121972
2019,16,Jits_ISO_5,1,5,56,103,1903123764
2019,16,Jits_ISO_5,2,5,63,98,1903132972
2019,16,Jits_ISO_5,3,5,80,127,1903152428
2019,16,Jits_ISO_5,0,5,56,103,1903582744
2019,16,Jits_ISO_5,1,5,80,127,1903585656
2019,16,Jits_ISO_5,2,5,63,98,1903622612
2019,16,Jits_ISO_5,3,1,48,30,1903636720
2019,16,Jits_ISO_5,0,1,48,29,1904089396
2019,16,Jits_ISO_5,1,5,63,98,1904123236
2019,16,Jits_ISO_5,2,5,56,103,1904152936
2019,16,Jits_ISO_5,3,5,80,127,1904173732
2019,16,Jits_ISO_5,0,5,80,127,1904593508
2019,16,Jits_ISO_5,1,5,56,103,1904602420
2019,16,Jits_ISO_5,2,1,48,30,1904603384
2019,16,Jits_ISO_5,3,5,63,98,1904612812
2019,16,Jits_ISO_5,0,5,56,103,1905093032
2019,16,Jits_ISO_5,1,1,48,31,1905108776
2019,16,Jits_ISO_5,2,5,80,127,1905132820
2019,16,Jits_ISO_5,3,5,63,98,1905162592
2019,16,Jits_ISO_5,0,1,48,20,1905570740
2019,16,Jits_ISO_5,1,5,63,98,1905602868
2019,16,Jits_ISO_5,2,5,80,127,1905613120
2019,16,Jits_ISO_5,3,5,56,103,1905623300
2019,16,Jits_ISO_5,0,1,48,34,1906076540
2019,16,Jits_ISO_5,1,5,56,103,1906083152
2019,16,Jits_ISO_5,2,5,63,98,1906152788
2019,16,Jits_ISO_5,3,5,80,127,1906163044
2019,16,Jits_ISO_5,0,5,80,127,1906583040
2019,16,Jits_ISO_5,1,5,56,103,1906593072
2019,16,Jits_ISO_5,2,1,48,29,1906616748
2019,16,Jits_ISO_5,3,5,63,98,1906643180
2019,16,Jits_ISO_5,0,5,80,127,1907093032
2019,16,Jits_ISO_5,1,1,48,37,1907095624
2019,16,Jits_ISO_5,2,5,56,103,1907153236
2019,16,Jits_ISO_5,3,5,63,98,1907183084
2019,16,Jits_ISO_5,0,5,56,103,1907592828
2019,16,Jits_ISO_5,1,5,80,127,1907595668
2019,16,Jits_ISO_5,2,1,48,23,1907627676
2019,16,Jits_ISO_5,3,5,63,98,1907632644
2019,16,Jits_ISO_5,0,1,48,30,1908117836
2019,16,Jits_ISO_5,1,5,56,103,1908123100
2019,16,Jits_ISO_5,2,5,63,98,1908152652
2019,16,Jits_ISO_5,3,5,80,127,1908162904
2019,16,Jits_ISO_5,0,1,48,35,1908629908
2019,16,Jits_ISO_5,1,5,63,98,1908633080
2019,16,Jits_ISO_5,2,5,80,127,1908643112
2019,16,Jits_ISO_5,3,5,56,103,1908653664
2019,16,Jits_ISO_5,0,5,80,127,1909082688
2019,16,Jits_ISO_5,1,1,48,31,1909111092
2019,16,Jits_ISO_5,2,5,56,103,1909132800
2019,16,Jits_ISO_5,3,5,63,98,1909135860
2019,16,Jits_ISO_5,0,5,56,103,1909612868
2019,16,Jits_ISO_5,1,1,48,23,1909627644
2019,16,Jits_ISO_5,2,5,80,127,1909633508
2019,16,Jits_ISO_5,3,5,63,98,1909642568
2019,16,Jits_ISO_5,0,5,63,98,1910093020
2019,16,Jits_ISO_5,1,1,48,36,1910117448
2019,16,Jits_ISO_5,2,5,56,103,1910122712
2019,16,Jits_ISO_5,3,5,80,127,1910143508
2019,16,Jits_ISO_5,0,1,48,27,1910580980
2019,16,Jits_ISO_5,1,5,56,103,1910603064
2019,16,Jits_ISO_5,2,5,80,127,1910613544
2019,16,Jits_ISO_5,3,5,63,98,1910682964
2019,16,Jits_ISO_5,0,5,63,98,1911092484
2019,16,Jits_ISO_5,1,5,80,127,1911132652
2019,16,Jits_ISO_5,2,5,56,103,1911172376
2019,16,Jits_ISO_5,0,5,56,103,1911602524
2019,16,Jits_ISO_5,1,5,63,98,1911612924
2019,16,Jits_ISO_5,2,5,80,127,1911633200
2019,16,Jits_ISO_5,3,1,48,32,1911793088
2019,16,Jits_ISO_5,0,5,63,98,1912143312
2019,16,Jits_ISO_5,1,5,80,127,1912162616
2019,16,Jits_ISO_5,2,1,48,29,1912179556
2019,16,Jits_ISO_5,3,5,56,103,1912183332
2019,16,Jits_ISO_5,0,5,56,103,1912582468
2019,16,Jits_ISO_5,1,1,48,31,1912644896
2019,16,Jits_ISO_5,2,5,80,127,1912663540
2019,16,Jits_ISO_5,3,5,63,98,1912672600
2019,16,Jits_ISO_5,0,1,48,32,1913099604
2019,16,Jits_ISO_5,1,5,80,127,1913123272
2019,16,Jits_ISO_5,2,5,63,98,1913133452
2019,16,Jits_ISO_5,3,5,56,103,1913163224
2019,16,Jits_ISO_5,0,5,63,98,1913582924
2019,16,Jits_ISO_5,1,1,48,24,1913607948
2019,16,Jits_ISO_5,2,5,80,127,1913623088
2019,16,Jits_ISO_5,3,5,56,103,1913683444
2019,16,Jits_ISO_5,0,5,63,98,1914092908
2019,16,Jits_ISO_5,1,1,48,23,1914129820
2019,16,Jits_ISO_5,2,5,56,103,1914143020
2019,16,Jits_ISO_5,3,5,80,127,1914172716
2019,16,Jits_ISO_5,0,1,48,29,1914601452
2019,16,Jits_ISO_5,1,5,80,127,1914603328
2019,16,Jits_ISO_5,2,5,63,98,1914613284
2019,16,Jits_ISO_5,3,5,56,103,1914682844
2019,16,Jits_ISO_5,0,1,48,25,1915125776
2019,16,Jits_ISO_5,1,5,80,127,1915173444
2019,16,Jits_ISO_5,2,5,56,103,1915182576
2019,16,Jits_ISO_5,3,5,63,98,1915185636
2019,16,Jits_ISO_5,0,5,56,103,1915612452
2019,16,Jits_ISO_5,1,1,48,19,1915632500
2019,16,Jits_ISO_5,2,5,80,127,1915634284
2019,16,Jits_ISO_5,3,5,63,98,1915643268
2019,16,Jits_ISO_5,0,5,63,98,1916122372
2019,16,Jits_ISO_5,1,1,48,22,1916143960
2019,16,Jits_ISO_5,2,5,56,103,1916162460
2019,16,Jits_ISO_5,3,5,80,127,1916182880
2019,16,Jits_ISO_5,0,1,48,21,1916610172
2019,16,Jits_ISO_5,1,5,63,98,1916623144
2019,16,Jits_ISO_5,2,5,56,103,1916682536
2019,16,Jits_ISO_5,3,5,80,127,1916685672
2019,16,Jits_ISO_5,0,5,56,103,1917083240
2019,16,Jits_ISO_5,1,5,80,127,1917102472
2019,16,Jits_ISO_5,2,1,48,17,1917142180
2019,16,Jits_ISO_5,3,5,63,98,1917143972
2019,16,Jits_ISO_5,0,1,48,21,1917556520
2019,16,Jits_ISO_5,1,5,56,103,1917613344
2019,16,Jits_ISO_5,2,5,63,98,1917633096
2019,16,Jits_ISO_5,3,5,80,127,1917643052
2019,16,Jits_ISO_5,0,1,48,22,1918029324
2019,16,Jits_ISO_5,1,5,80,127,1918082388
2019,16,Jits_ISO_5,2,5,56,103,1918113308
2019,16,Jits_ISO_5,3,5,63,98,1918153160
2019,16,Jits_ISO_5,0,1,48,20,1918547160
2019,16,Jits_ISO_5,1,5,80,127,1918593340
2019,16,Jits_ISO_5,2,5,56,103,1918612816
2019,16,Jits_ISO_5,3,5,63,98,1918673236
2019,16,Jits_ISO_5,0,1,48,35,1919067836
2019,16,Jits_ISO_5,1,5,56,103,1919103320
2019,16,Jits_ISO_5,2,5,80,127,1919122724
2019,16,Jits_ISO_5,3,5,63,98,1919183144
2019,16,Jits_ISO_5,0,5,80,127,1919582496
2019,16,Jits_ISO_5,1,5,56,103,1919592676
2019,16,Jits_ISO_5,2,5,63,98,1919633016
2019,16,Jits_ISO_5,3,1,48,22,1919655428
2019,16,Jits_ISO_5,0,1,48,41,1920076364
2019,16,Jits_ISO_5,1,5,63,98,1920083276
2019,16,Jits_ISO_5,2,5,56,103,1920123296
2019,16,Jits_ISO_5,3,5,80,127,1920126284
2019,16,Jits_ISO_5,0,1,48,29,1920588352
2019,16,Jits_ISO_5,1,5,63,98,1920602372
2019,16,Jits_ISO_5,2,5,80,127,1920642316
2019,16,Jits_ISO_5,3,5,56,103,1920673160
2019,16,Jits_ISO_5,0,1,48,37,1921080548
2019,16,Jits_ISO_5,1,5,56,103,1921093052
2019,16,Jits_ISO_5,2,5,63,98,1921103160
2019,16,Jits_ISO_5,3,5,80,127,1921132932
2019,16,Jits_ISO_5,0,1,48,32,1921571444
2019,16,Jits_ISO_5,1,5,80,127,1921582460
2019,16,Jits_ISO_5,2,5,63,98,1921653068
2019,16,Jits_ISO_5,3,5,56,103,1921663248
2019,16,Jits_ISO_5,0,5,63,98,1922083096
2019,16,Jits_ISO_5,1,1,48,35,1922115300
2019,16,Jits_ISO_5,2,5,56,103,1922153172
2019,16,Jits_ISO_5,3,5,80,127,1922163052
2019,16,Jits_ISO_5,0,5,63,98,1922582976
2019,16,Jits_ISO_5,1,5,56,103,1922603252
2019,16,Jits_ISO_5,2,1,48,24,1922633144
2019,16,Jits_ISO_5,3,5,80,127,1922643188
2019,16,Jits_ISO_5,0,5,56,103,1923093024
2019,16,Jits_ISO_5,1,5,63,98,1923103056
2019,16,Jits_ISO_5,2,1,48,24,1923119552
2019,16,Jits_ISO_5,3,5,80,127,1923183004
2019,16,Jits_ISO_5,0,5,63,98,1923583348
2019,16,Jits_ISO_5,1,1,48,30,1923609644
2019,16,Jits_ISO_5,2,5,56,103,1923612892
2019,16,Jits_ISO_5,3,5,80,127,1923652912
2019,16,Jits_ISO_5,0,1,48,27,1924072280
2019,16,Jits_ISO_5,1,5,56,103,1924083000
2019,16,Jits_ISO_5,2,5,63,98,1924123096
2019,16,Jits_ISO_5,3,5,80,127,1924162816
2019,16,Jits_ISO_5,0,1,48,39,1924557048
2019,16,Jits_ISO_5,1,5,80,127,1924582880
2019,16,Jits_ISO_5,2,5,56,103,1924662824
2019,16,Jits_ISO_5,3,5,63,98,1924673076
2019,16,Jits_ISO_5,0,5,56,103,1925122412
2019,16,Jits_ISO_5,1,5,63,98,1925125324
2019,16,Jits_ISO_5,2,5,80,127,1925132740
2019,16,Jits_ISO_5,3,1,48,13,1925164796
2019,16,Jits_ISO_5,4,1,48,26,1925169332
2019,16,Jits_ISO_5,0,1,48,25,1925616448
2019,16,Jits_ISO_5,1,5,56,103,1925642804
2019,16,Jits_ISO_5,2,5,63,98,1925663008
2019,16,Jits_ISO_5,3,5,80,127,1925673188
2019,16,Jits_ISO_5,0,1,48,18,1926094948
2019,16,Jits_ISO_5,1,5,63,98,1926103276
2019,16,Jits_ISO_5,2,1,38,10,1926107956
2019,16,Jits_ISO_5,3,5,80,127,1926112700
2019,16,Jits_ISO_5,4,5,56,103,1926132976
2019,16,Jits_ISO_5,0,5,63,98,1926603024
2019,16,Jits_ISO_5,1,5,56,103,1926682980
2019,16,Jits_ISO_5,2,5,80,127,1926686264
2019,16,Jits_ISO_5,0,1,48,31,1927057524
2019,16,Jits_ISO_5,1,5,63,98,1927102804
2019,16,Jits_ISO_5,2,5,56,103,1927123452
2019,16,Jits_ISO_5,3,5,80,127,1927153808
2019,16,Jits_ISO_5,0,1,48,24,1927572524
2019,16,Jits_ISO_5,1,5,56,103,1927602760
2019,16,Jits_ISO_5,2,5,63,98,1927622964
2019,16,Jits_ISO_5,3,5,80,127,1927633216
2019,16,Jits_ISO_5,0,1,48,40,1928066092
2019,16,Jits_ISO_5,1,5,56,103,1928132932
2019,16,Jits_ISO_5,2,5,63,98,1928162780
2019,16,Jits_ISO_5,3,5,80,127,1928166872
2019,16,Jits_ISO_5,0,5,56,103,1928582604
2019,16,Jits_ISO_5,1,1,48,19,1928608028
2019,16,Jits_ISO_5,2,5,63,98,1928622416
2019,16,Jits_ISO_5,3,5,80,127,1928682852
2019,16,Jits_ISO_5,0,5,56,103,1929102692
2019,16,Jits_ISO_5,1,1,48,28,1929104052
2019,16,Jits_ISO_5,2,5,63,98,1929112888
2019,16,Jits_ISO_5,3,5,80,127,1929173548
2019,16,Jits_ISO_5,0,5,56,103,1929602440
2019,16,Jits_ISO_5,1,1,48,17,1929606896
2019,16,Jits_ISO_5,2,5,80,127,1929622884
2019,16,Jits_ISO_5,3,5,63,98,1929652728
2019,16,Jits_ISO_5,0,1,48,35,1930061244
2019,16,Jits_ISO_5,1,5,80,127,1930103224
2019,16,Jits_ISO_5,2,5,56,103,1930113628
2019,16,Jits_ISO_5,3,5,63,98,1930132732
2019,16,Jits_ISO_5,0,5,63,98,1930592636
2019,16,Jits_ISO_5,1,1,48,16,1930636584
2019,16,Jits_ISO_5,2,5,80,127,1930672684
2019,16,Jits_ISO_5,3,5,56,103,1930682716
2019,16,Jits_ISO_5,0,1,48,29,1931118884
2019,16,Jits_ISO_5,1,5,80,127,1931152748
2019,16,Jits_ISO_5,2,5,56,103,1931173168
2019,16,Jits_ISO_5,3,5,63,98,1931176156
2019,16,Jits_ISO_5,0,5,63,98,1931622688
2019,16,Jits_ISO_5,1,5,80,127,1931625824
2019,16,Jits_ISO_5,2,1,48,40,1931664420
2019,16,Jits_ISO_5,3,5,56,103,1931683440
2019,16,Jits_ISO_5,0,5,56,103,1932102892
2019,16,Jits_ISO_5,1,5,80,127,1932113516
2019,16,Jits_ISO_5,2,1,48,28,1932141024
2019,16,Jits_ISO_5,3,5,63,98,1932153312
2019,16,Jits_ISO_5,0,5,56,103,1932583416
2019,16,Jits_ISO_5,1,1,48,22,1932600752
2019,16,Jits_ISO_5,2,5,63,98,1932642728
2019,16,Jits_ISO_5,3,5,80,127,1932652908
2019,16,Jits_ISO_5,0,1,48,38,1933082016
2019,16,Jits_ISO_5,1,5,63,98,1933093332
2019,16,Jits_ISO_5,2,5,80,127,1933133204
2019,16,Jits_ISO_5,3,5,56,103,1933173148
2019,16,Jits_ISO_5,0,1,48,38,1933580236
2019,16,Jits_ISO_5,1,5,56,103,1933592992
2019,16,Jits_ISO_5,2,5,63,98,1933672800
2019,16,Jits_ISO_5,3,5,80,127,1933676380
2019,16,Jits_ISO_5,0,9999,9999,9999,1874380904
2019,16,Jits_ISO_5,1,9999,9999,9999,1874880616
2019,16,Jits_ISO_5,2,9999,9999,9999,1875380280
2019,16,Jits_ISO_5,3,9999,9999,9999,1875881032
2019,16,Jits_ISO_5,4,9999,9999,9999,1876380768
2019,16,Jits_ISO_5,5,9999,9999,9999,1876880480
2019,16,Jits_ISO_5,6,9999,9999,9999,1877380208
2019,16,Jits_ISO_5,7,9999,9999,9999,1877880928
2019,16,Jits_ISO_5,8,9999,9999,9999,1878380600
2019,16,Jits_ISO_5,9,9999,9999,9999,1878880348
2019,16,Jits_ISO_5,10,9999,9999,9999,1879381064
2019,16,Jits_ISO_5,11,9999,9999,9999,1879880816
2019,16,Jits_ISO_5,12,9999,9999,9999,1880380468
2019,16,Jits_ISO_5,13,9999,9999,9999,1880880196
2019,16,Jits_ISO_5,14,9999,9999,9999,1881380972
2019,16,Jits_ISO_5,15,9999,9999,9999,1881880636
2019,16,Jits_ISO_5,16,9999,9999,9999,1882380368
2019,16,Jits_ISO_5,17,9999,9999,9999,1882880100
2019,16,Jits_ISO_5,18,9999,9999,9999,1883380820
2019,16,Jits_ISO_5,19,9999,9999,9999,1883880556
2019,16,Jits_ISO_5,20,9999,9999,9999,1884380216
2019,16,Jits_ISO_5,21,9999,9999,9999,1884880996
2019,16,Jits_ISO_5,22,9999,9999,9999,1885380668
2019,16,Jits_ISO_5,23,9999,9999,9999,1885880416
2019,16,Jits_ISO_5,24,9999,9999,9999,1886380148
2019,16,Jits_ISO_5,25,9999,9999,9999,1886880848
2019,16,Jits_ISO_5,26,9999,9999,9999,1887380584
2019,16,Jits_ISO_5,27,9999,9999,9999,1887880268
2019,16,Jits_ISO_5,28,9999,9999,9999,1888380988
2019,16,Jits_ISO_5,29,9999,9999,9999,1888880716
2019,16,Jits_ISO_5,30,9999,9999,9999,1889380460
2019,16,Jits_ISO_5,31,9999,9999,9999,1889880136
2019,16,Jits_ISO_5,32,9999,9999,9999,1890380848
2019,16,Jits_ISO_5,33,9999,9999,9999,1890880584
2019,16,Jits_ISO_5,34,9999,9999,9999,1891380332
2019,16,Jits_ISO_5,35,9999,9999,9999,1891881040
2019,16,Jits_ISO_5,36,9999,9999,9999,1892380760
2019,16,Jits_ISO_5,37,9999,9999,9999,1892880492
2019,16,Jits_ISO_5,38,9999,9999,9999,1893380152
2019,16,Jits_ISO_5,39,9999,9999,9999,1893880932
2019,16,Jits_ISO_5,40,9999,9999,9999,1894380596
2019,16,Jits_ISO_5,41,9999,9999,9999,1894880328
2019,16,Jits_ISO_5,42,9999,9999,9999,1895381044
2019,16,Jits_ISO_5,43,9999,9999,9999,1895880772
2019,16,Jits_ISO_5,44,9999,9999,9999,1896380504
2019,16,Jits_ISO_5,45,9999,9999,9999,1896880228
2019,16,Jits_ISO_5,46,9999,9999,9999,1897380932
2019,16,Jits_ISO_5,47,9999,9999,9999,1897880672
2019,16,Jits_ISO_5,48,9999,9999,9999,1898380380
2019,16,Jits_ISO_5,49,9999,9999,9999,1898880052
2019,16,Jits_ISO_5,50,9999,9999,9999,1899380820
2019,16,Jits_ISO_5,51,9999,9999,9999,1899880568
2019,16,Jits_ISO_5,52,9999,9999,9999,1900380244
2019,16,Jits_ISO_5,53,9999,9999,9999,1900880968
2019,16,Jits_ISO_5,54,9999,9999,9999,1901380700
2019,16,Jits_ISO_5,55,9999,9999,9999,1901880372
2019,16,Jits_ISO_5,56,9999,9999,9999,1902380104
2019,16,Jits_ISO_5,57,9999,9999,9999,1902880892
2019,16,Jits_ISO_5,58,9999,9999,9999,1903380564
2019,16,Jits_ISO_5,59,9999,9999,9999,1903880284
2019,16,Jits_ISO_5,60,9999,9999,9999,1904381008
2019,16,Jits_ISO_5,61,9999,9999,9999,1904880736
2019,16,Jits_ISO_5,62,9999,9999,9999,1905380412
2019,16,Jits_ISO_5,63,9999,9999,9999,1905880156
2019,16,Jits_ISO_5,64,9999,9999,9999,1906380860
2019,16,Jits_ISO_5,65,9999,9999,9999,1906880588
2019,16,Jits_ISO_5,66,9999,9999,9999,1907380340
2019,16,Jits_ISO_5,67,9999,9999,9999,1907881048
2019,16,Jits_ISO_5,68,9999,9999,9999,1908380724
2019,16,Jits_ISO_5,69,9999,9999,9999,1908880508
2019,16,Jits_ISO_5,70,9999,9999,9999,1909380156
2019,16,Jits_ISO_5,71,9999,9999,9999,1909880952
2019,16,Jits_ISO_5,72,9999,9999,9999,1910380624
2019,16,Jits_ISO_5,73,9999,9999,9999,1910880356
2019,16,Jits_ISO_5,74,9999,9999,9999,1911381084
2019,16,Jits_ISO_5,75,9999,9999,9999,1911880788
2019,16,Jits_ISO_5,76,9999,9999,9999,1912380512
2019,16,Jits_ISO_5,77,9999,9999,9999,1912880248
2019,16,Jits_ISO_5,78,9999,9999,9999,1913380968
2019,16,Jits_ISO_5,79,9999,9999,9999,1913880628
2019,16,Jits_ISO_5,80,9999,9999,9999,1914380364
2019,16,Jits_ISO_5,81,9999,9999,9999,1914880100
2019,16,Jits_ISO_5,82,9999,9999,9999,1915380800
2019,16,Jits_ISO_5,83,9999,9999,9999,1915880532
2019,16,Jits_ISO_5,84,9999,9999,9999,1916380212
2019,16,Jits_ISO_5,85,9999,9999,9999,1916880984
2019,16,Jits_ISO_5,86,9999,9999,9999,1917380716
2019,16,Jits_ISO_5,87,9999,9999,9999,1917880392
2019,16,Jits_ISO_5,88,9999,9999,9999,1918380120
2019,16,Jits_ISO_5,89,9999,9999,9999,1918880828
2019,16,Jits_ISO_5,90,9999,9999,9999,1919380564
2019,16,Jits_ISO_5,91,9999,9999,9999,1919880272
2019,16,Jits_ISO_5,92,9999,9999,9999,1920381048
2019,16,Jits_ISO_5,93,9999,9999,9999,1920880708
2019,16,Jits_ISO_5,94,9999,9999,9999,1921380440
2019,16,Jits_ISO_5,95,9999,9999,9999,1921880172
2019,16,Jits_ISO_5,96,9999,9999,9999,1922380872
2019,16,Jits_ISO_5,97,9999,9999,9999,1922880600
2019,16,Jits_ISO_5,98,9999,9999,9999,1923380332
2019,16,Jits_ISO_5,99,9999,9999,9999,1923881048
2019,16,Jits_ISO_5,100,9999,9999,9999,1924380784
2019,16,Jits_ISO_5,101,9999,9999,9999,1924880444
2019,16,Jits_ISO_5,102,9999,9999,9999,1925380148
2019,16,Jits_ISO_5,103,9999,9999,9999,1925880908
2019,16,Jits_ISO_5,104,9999,9999,9999,1926380604
2019,16,Jits_ISO_5,105,9999,9999,9999,1926880324
2019,16,Jits_ISO_5,106,9999,9999,9999,1927381068
2019,16,Jits_ISO_5,107,9999,9999,9999,1927880796
2019,16,Jits_ISO_5,108,9999,9999,9999,1928380524
2019,16,Jits_ISO_5,109,9999,9999,9999,1928880180
2019,16,Jits_ISO_5,110,9999,9999,9999,1929380972
2019,16,Jits_ISO_5,111,9999,9999,9999,1929880644
2019,16,Jits_ISO_5,112,9999,9999,9999,1930380364
2019,16,Jits_ISO_5,113,9999,9999,9999,1930880092
2019,16,Jits_ISO_5,114,9999,9999,9999,1931380796
2019,16,Jits_ISO_5,115,9999,9999,9999,1931880520
2019,16,Jits_ISO_5,116,9999,9999,9999,1932380256
2019,16,Jits_ISO_5,117,9999,9999,9999,1932880972
2019,16,Jits_ISO_5,118,9999,9999,9999,1933380720
2019,16,Jits_ISO_5,119,9999,9999,9999,1933880372
2020,3,ISIP_8,0,5,42,127,1995613588
2020,3,ISIP_8,1,5,42,127,1996414240
2020,3,ISIP_8,2,5,42,127,1997214164
2020,3,ISIP_8,3,1,48,39,1997238416
2020,3,ISIP_8,4,5,42,127,1998013676
2020,3,ISIP_8,5,1,48,48,1998020296
2020,3,ISIP_8,6,5,42,127,1998813632
2020,3,ISIP_8,7,1,48,47,1998820408
2020,3,ISIP_8,8,1,48,46,1999609292
2020,3,ISIP_8,9,5,42,127,1999614476
2020,3,ISIP_8,10,5,42,127,2000414144
2020,3,ISIP_8,11,1,48,46,2000433688
2020,3,ISIP_8,12,5,42,127,2001213876
2020,3,ISIP_8,13,1,48,47,2001260004
2020,3,ISIP_8,14,1,48,43,2001977276
2020,3,ISIP_8,15,5,42,127,2002013456
2020,3,ISIP_8,16,1,48,42,2002772608
2020,3,ISIP_8,17,5,42,127,2002814236
2020,3,ISIP_8,18,1,48,44,2003549040
2020,3,ISIP_8,19,5,42,127,2003614064
2020,3,ISIP_8,20,1,48,43,2004342804
2020,3,ISIP_8,21,5,42,127,2004413724
2020,3,ISIP_8,22,1,48,42,2005159212
2020,3,ISIP_8,23,5,42,127,2005213680
2020,3,ISIP_8,24,1,48,51,2005942068
2020,3,ISIP_8,25,5,42,127,2006014384
2020,3,ISIP_8,26,1,48,51,2006776820
2020,3,ISIP_8,27,5,42,127,2006813968
2020,3,ISIP_8,28,1,48,51,2007574916
2020,3,ISIP_8,29,5,42,127,2007613924
2020,3,ISIP_8,30,1,48,52,2008361804
2020,3,ISIP_8,31,5,42,127,2008413584
2020,3,ISIP_8,32,1,48,51,2009184908
2020,3,ISIP_8,33,5,42,127,2009214288
2020,3,ISIP_8,34,1,48,47,2009999752
2020,3,ISIP_8,35,5,42,127,2010014044
2020,3,ISIP_8,36,1,48,28,2010798584
2020,3,ISIP_8,37,5,42,127,2010813780
2020,3,ISIP_8,38,1,48,48,2011583380
2020,3,ISIP_8,39,5,42,127,2011613732
2020,3,ISIP_8,40,1,48,37,2012404620
2020,3,ISIP_8,41,5,42,127,2012414288
2020,3,ISIP_8,42,1,48,37,2013142232
2020,3,ISIP_8,43,5,42,127,2013214096
2020,3,ISIP_8,44,1,48,45,2013949728
2020,3,ISIP_8,45,5,42,127,2014013828
2020,3,ISIP_8,46,1,48,46,2014763872
2020,3,ISIP_8,47,5,42,127,2014813860
2020,3,ISIP_8,48,1,48,39,2015555092
2020,3,ISIP_8,49,5,42,127,2015614416
2020,3,ISIP_8,50,1,48,37,2016382828
2020,3,ISIP_8,51,5,42,127,2016414104
2020,3,ISIP_8,52,5,42,127,2017213840
2020,3,ISIP_8,53,1,48,31,2017414168
2020,3,ISIP_8,54,5,42,127,2018013500
2020,3,ISIP_8,55,1,48,37,2018114428
2020,3,ISIP_8,56,5,42,127,2018814352
2020,3,ISIP_8,57,1,48,37,2018819408
2020,3,ISIP_8,58,1,48,43,2019571704
2020,3,ISIP_8,59,1,48,40,2020369644
2020,3,ISIP_8,60,1,48,46,2021158172
2020,3,ISIP_8,61,1,48,43,2021917804
2020,3,ISIP_8,62,1,48,39,2022786156
2020,3,ISIP_8,63,1,48,46,2023589636
2020,3,ISIP_8,64,1,48,40,2024374288
2020,3,ISIP_8,65,1,48,46,2025204928
2020,3,ISIP_8,66,1,48,42,2026048200
2020,3,ISIP_8,67,1,48,41,2026800200
2020,3,ISIP_8,68,1,48,43,2027622716
2020,3,ISIP_8,69,1,48,41,2028390992
2020,3,ISIP_8,70,1,48,44,2029163988
2020,3,ISIP_8,71,1,48,30,2029990028
2020,3,ISIP_8,72,1,48,38,2030788336
2020,3,ISIP_8,73,1,48,44,2031576864
2020,3,ISIP_8,74,1,48,45,2032357404
2020,3,ISIP_8,75,1,48,44,2033172664
2020,3,ISIP_8,76,1,48,42,2034026916
2020,3,ISIP_8,77,1,48,48,2034759572
2020,3,ISIP_8,78,1,48,48,2035614148
2020,3,ISIP_8,79,1,48,43,2036464808
2020,3,ISIP_8,80,1,48,41,2037224808
2020,3,ISIP_8,81,1,48,35,2038028940
2020,3,ISIP_8,82,1,48,28,2038882208
2020,3,ISIP_8,83,1,48,23,2039710788
2020,3,ISIP_8,84,1,48,27,2040573612
2020,3,ISIP_8,85,1,48,36,2041365276
2020,3,ISIP_8,86,1,48,40,2042111096
2020,3,ISIP_8,87,1,48,33,2042896484
2020,3,ISIP_8,88,1,48,40,2043692404
2020,3,ISIP_8,89,1,48,35,2044491460
2020,3,ISIP_8,90,1,48,37,2045280060
2020,3,ISIP_8,91,1,48,32,2046112444
2020,3,ISIP_8,92,1,48,44,2046901352
2020,3,ISIP_8,93,1,48,42,2047704956
2020,3,ISIP_8,94,1,48,44,2048505360
2020,3,ISIP_8,95,1,48,36,2049330024
2020,3,ISIP_8,96,1,48,43,2050152008
2020,3,ISIP_8,97,1,48,41,2050968860
2020,3,ISIP_8,98,1,48,53,2051749248
2020,3,ISIP_8,99,1,48,52,2052571752
2020,3,ISIP_8,100,1,48,51,2053405528
2020,3,ISIP_8,101,1,48,51,2054241996
2020,3,ISIP_8,102,1,48,45,2055067816
2020,3,ISIP_8,103,1,48,55,2055855372
2020,3,ISIP_8,104,1,48,44,2056729020
2020,3,ISIP_8,105,1,48,45,2057551300
2020,3,ISIP_8,106,1,48,43,2058322576
2020,3,ISIP_8,107,1,48,44,2059083180
2020,3,ISIP_8,108,1,48,44,2059905008
2020,3,ISIP_8,109,1,48,39,2060746576
2020,3,ISIP_8,110,1,48,46,2061558852
2020,3,ISIP_8,111,1,48,42,2062340056
2020,3,ISIP_8,112,1,48,40,2063176228
2020,3,ISIP_8,113,1,48,43,2063987380
2020,3,ISIP_8,114,1,48,35,2064760152
2020,3,ISIP_8,115,1,48,37,2065568492
2020,3,ISIP_8,116,1,48,37,2066416760
2020,3,ISIP_8,117,1,48,38,2067235080
2020,3,ISIP_8,118,1,48,29,2067926384
2020,3,ISIP_8,119,1,48,21,2068815272
2020,3,ISIP_8,120,1,48,32,2069617088
2020,3,ISIP_8,121,1,48,33,2070393968
2020,3,ISIP_8,122,1,48,37,2071195664
2020,3,ISIP_8,123,1,48,38,2071993000
2020,3,ISIP_8,124,1,48,37,2072799968
2020,3,ISIP_8,125,1,48,35,2073605672
2020,3,ISIP_8,126,1,48,42,2074471336
2020,3,ISIP_8,127,1,48,38,2075256796
2020,3,ISIP_8,128,1,48,44,2076027932
2020,3,ISIP_8,129,1,48,41,2076821336
2020,3,ISIP_8,130,1,48,43,2077625020
2020,3,ISIP_8,131,1,48,38,2078401680
2020,3,ISIP_8,132,1,48,43,2079219848
2020,3,ISIP_8,133,1,48,36,2080001656
2020,3,ISIP_8,134,1,48,43,2080794212
2020,3,ISIP_8,135,1,48,47,2081582224
2020,3,ISIP_8,136,1,48,50,2082391580
2020,3,ISIP_8,137,1,48,45,2083214928
2020,3,ISIP_8,138,1,48,43,2084043628
2020,3,ISIP_8,139,1,48,30,2084833276
2020,3,ISIP_8,140,1,48,37,2085674000
2020,3,ISIP_8,141,1,48,54,2086351416
2020,3,ISIP_8,142,1,48,48,2087160104
2020,3,ISIP_8,143,1,48,50,2087877024
2020,3,ISIP_8,144,1,48,46,2088771664
2020,3,ISIP_8,145,1,48,51,2089577208
2020,3,ISIP_8,146,1,48,41,2090394664
2020,3,ISIP_8,147,1,48,43,2091205216
2020,3,ISIP_8,148,1,48,46,2092093356
2020,3,ISIP_8,149,1,48,43,2092986604
2020,3,ISIP_8,150,1,48,47,2093845020
2020,3,ISIP_8,151,1,48,48,2094683208
2020,3,ISIP_8,152,1,48,42,2095600116
2020,3,ISIP_8,153,1,48,48,2096522044
2020,3,ISIP_8,154,1,48,47,2097473660
2020,3,ISIP_8,155,1,48,48,2098378696
2020,3,ISIP_8,156,1,48,46,2099251608
2020,3,ISIP_8,157,1,48,38,2100046480
2020,3,ISIP_8,158,1,48,51,2101068680
2020,3,ISIP_8,159,1,48,46,2101934816
2020,3,ISIP_8,160,1,48,48,2102844176
2020,3,ISIP_8,161,1,48,41,2103687688
2020,3,ISIP_8,162,1,48,54,2104542600
2020,3,ISIP_8,163,1,48,43,2105394528
2020,3,ISIP_8,164,1,48,51,2106217476
2020,3,ISIP_8,165,1,48,51,2107063000
2020,3,ISIP_8,166,1,48,52,2107940460
2020,3,ISIP_8,167,1,48,41,2108766700
2020,3,ISIP_8,168,1,48,41,2109612300
2020,3,ISIP_8,169,1,48,48,2110451528
2020,3,ISIP_8,170,1,48,51,2111326076
2020,3,ISIP_8,171,1,48,46,2112187884
2020,3,ISIP_8,172,1,48,49,2113074532
2020,3,ISIP_8,173,1,48,44,2113880384
2020,3,ISIP_8,174,1,48,41,2114773844
2020,3,ISIP_8,175,1,48,48,2115527880
2020,3,ISIP_8,0,9999,9999,9999,1995611228
2020,3,ISIP_8,1,9999,9999,9999,1996411952
2020,3,ISIP_8,2,9999,9999,9999,1997211732
2020,3,ISIP_8,3,9999,9999,9999,1998011464
2020,3,ISIP_8,4,9999,9999,9999,1998811200
2020,3,ISIP_8,5,9999,9999,9999,1999611972
2020,3,ISIP_8,6,9999,9999,9999,2000411712
2020,3,ISIP_8,7,9999,9999,9999,2001211444
2020,3,ISIP_8,8,9999,9999,9999,2002011244
2020,3,ISIP_8,9,9999,9999,9999,2002811952
2020,3,ISIP_8,10,9999,9999,9999,2003611708
2020,3,ISIP_8,11,9999,9999,9999,2004411440
2020,3,ISIP_8,12,9999,9999,9999,2005211248
2020,3,ISIP_8,13,9999,9999,9999,2006011952
2020,3,ISIP_8,14,9999,9999,9999,2006811760
2020,3,ISIP_8,15,9999,9999,9999,2007611492
2020,3,ISIP_8,16,9999,9999,9999,2008411228
2020,3,ISIP_8,17,9999,9999,9999,2009212004
2020,3,ISIP_8,18,9999,9999,9999,2010011760
2020,3,ISIP_8,19,9999,9999,9999,2010811492
2020,3,ISIP_8,20,9999,9999,9999,2011611228
2020,3,ISIP_8,21,9999,9999,9999,2012412004
2020,3,ISIP_8,22,9999,9999,9999,2013211740
2020,3,ISIP_8,23,9999,9999,9999,2014011472
2020,3,ISIP_8,24,9999,9999,9999,2014811204
2020,3,ISIP_8,25,9999,9999,9999,2015611984
2020,3,ISIP_8,26,9999,9999,9999,2016411744
2020,3,ISIP_8,27,9999,9999,9999,2017211480
2020,3,ISIP_8,28,9999,9999,9999,2018011216
2020,3,ISIP_8,29,9999,9999,9999,2018811992
2020,3,ISIP_8,30,9999,9999,9999,2019611720
2020,3,ISIP_8,31,9999,9999,9999,2020411448
2020,3,ISIP_8,32,9999,9999,9999,2021211252
2020,3,ISIP_8,33,9999,9999,9999,2022012008
2020,3,ISIP_8,34,9999,9999,9999,2022811704
2020,3,ISIP_8,35,9999,9999,9999,2023611508
2020,3,ISIP_8,36,9999,9999,9999,2024411236
2020,3,ISIP_8,37,9999,9999,9999,2025212008
2020,3,ISIP_8,38,9999,9999,9999,2026011744
2020,3,ISIP_8,39,9999,9999,9999,2026811464
2020,3,ISIP_8,40,9999,9999,9999,2027611200
2020,3,ISIP_8,41,9999,9999,9999,2028411964
2020,3,ISIP_8,42,9999,9999,9999,2029211716
2020,3,ISIP_8,43,9999,9999,9999,2030011448
2020,3,ISIP_8,44,9999,9999,9999,2030811252
2020,3,ISIP_8,45,9999,9999,9999,2031611948
2020,3,ISIP_8,46,9999,9999,9999,2032411752
2020,3,ISIP_8,47,9999,9999,9999,2033211480
2020,3,ISIP_8,48,9999,9999,9999,2034011216
2020,3,ISIP_8,49,9999,9999,9999,2034811984
2020,3,ISIP_8,50,9999,9999,9999,2035611744
2020,3,ISIP_8,51,9999,9999,9999,2036411472
2020,3,ISIP_8,52,9999,9999,9999,2037211200
2020,3,ISIP_8,53,9999,9999,9999,2038011972
2020,3,ISIP_8,54,9999,9999,9999,2038811704
2020,3,ISIP_8,55,9999,9999,9999,2039611504
2020,3,ISIP_8,56,9999,9999,9999,2040411232
2020,3,ISIP_8,57,9999,9999,9999,2041212008
2020,3,ISIP_8,58,9999,9999,9999,2042011760
2020,3,ISIP_8,59,9999,9999,9999,2042811488
2020,3,ISIP_8,60,9999,9999,9999,2043611216
2020,3,ISIP_8,61,9999,9999,9999,2044411992
2020,3,ISIP_8,62,9999,9999,9999,2045211720
2020,3,ISIP_8,63,9999,9999,9999,2046011448
2020,3,ISIP_8,64,9999,9999,9999,2046811252
2020,3,ISIP_8,65,9999,9999,9999,2047612024
2020,3,ISIP_8,66,9999,9999,9999,2048411704
2020,3,ISIP_8,67,9999,9999,9999,2049211504
2020,3,ISIP_8,68,9999,9999,9999,2050011232
2020,3,ISIP_8,69,9999,9999,9999,2050812004
2020,3,ISIP_8,70,9999,9999,9999,2051611732
2020,3,ISIP_8,71,9999,9999,9999,2052411464
2020,3,ISIP_8,72,9999,9999,9999,2053211192
2020,3,ISIP_8,73,9999,9999,9999,2054011968
2020,3,ISIP_8,74,9999,9999,9999,2054811720
2020,3,ISIP_8,75,9999,9999,9999,2055611448
2020,3,ISIP_8,76,9999,9999,9999,2056411252
2020,3,ISIP_8,77,9999,9999,9999,2057212024
2020,3,ISIP_8,78,9999,9999,9999,2058011752
2020,3,ISIP_8,79,9999,9999,9999,2058811480
2020,3,ISIP_8,80,9999,9999,9999,2059611208
2020,3,ISIP_8,81,9999,9999,9999,2060411980
2020,3,ISIP_8,82,9999,9999,9999,2061211732
2020,3,ISIP_8,83,9999,9999,9999,2062011460
2020,3,ISIP_8,84,9999,9999,9999,2062811188
2020,3,ISIP_8,85,9999,9999,9999,2063611960
2020,3,ISIP_8,86,9999,9999,9999,2064411764
2020,3,ISIP_8,87,9999,9999,9999,2065211492
2020,3,ISIP_8,88,9999,9999,9999,2066011220
2020,3,ISIP_8,89,9999,9999,9999,2066811996
2020,3,ISIP_8,90,9999,9999,9999,2067611748
2020,3,ISIP_8,91,9999,9999,9999,2068411476
2020,3,ISIP_8,92,9999,9999,9999,2069211204
2020,3,ISIP_8,93,9999,9999,9999,2070011976
2020,3,ISIP_8,94,9999,9999,9999,2070811704
2020,3,ISIP_8,95,9999,9999,9999,2071611508
2020,3,ISIP_8,96,9999,9999,9999,2072411236
2020,3,ISIP_8,97,9999,9999,9999,2073212008
2020,3,ISIP_8,98,9999,9999,9999,2074011764
2020,3,ISIP_8,99,9999,9999,9999,2074811492
2020,3,ISIP_8,100,9999,9999,9999,2075611220
2020,3,ISIP_8,101,9999,9999,9999,2076411992
2020,3,ISIP_8,102,9999,9999,9999,2077211720
2020,3,ISIP_8,103,9999,9999,9999,2078011448
2020,3,ISIP_8,104,9999,9999,9999,2078811252
2020,3,ISIP_8,105,9999,9999,9999,2079612024
2020,3,ISIP_8,106,9999,9999,9999,2080411704
2020,3,ISIP_8,107,9999,9999,9999,2081211504
2020,3,ISIP_8,108,9999,9999,9999,2082011232
2020,3,ISIP_8,109,9999,9999,9999,2082812008
2020,3,ISIP_8,110,9999,9999,9999,2083611736
2020,3,ISIP_8,111,9999,9999,9999,2084411464
2020,3,ISIP_8,112,9999,9999,9999,2085211192
2020,3,ISIP_8,113,9999,9999,9999,2086011964
2020,3,ISIP_8,114,9999,9999,9999,2086811716
2020,3,ISIP_8,115,9999,9999,9999,2087611448
2020,3,ISIP_8,116,9999,9999,9999,2088411252
2020,3,ISIP_8,117,9999,9999,9999,2089212024
2020,3,ISIP_8,118,9999,9999,9999,2090011752
2020,3,ISIP_8,119,9999,9999,9999,2090811480
2020,3,ISIP_8,120,9999,9999,9999,2091611208
2020,3,ISIP_8,121,9999,9999,9999,2092411984
2020,3,ISIP_8,122,9999,9999,9999,2093211736
2020,3,ISIP_8,123,9999,9999,9999,2094011464
2020,3,ISIP_8,124,9999,9999,9999,2094811192
2020,3,ISIP_8,125,9999,9999,9999,2095611980
2020,3,ISIP_8,126,9999,9999,9999,2096411716
2020,3,ISIP_8,127,9999,9999,9999,2097211444
2020,3,ISIP_8,128,9999,9999,9999,2098011244
2020,3,ISIP_8,129,9999,9999,9999,2098812020
2020,3,ISIP_8,130,9999,9999,9999,2099611696
2020,3,ISIP_8,131,9999,9999,9999,2100411500
2020,3,ISIP_8,132,9999,9999,9999,2101211228
2020,3,ISIP_8,133,9999,9999,9999,2102012016
2020,3,ISIP_8,134,9999,9999,9999,2102811752
2020,3,ISIP_8,135,9999,9999,9999,2103611480
2020,3,ISIP_8,136,9999,9999,9999,2104411212
2020,3,ISIP_8,137,9999,9999,9999,2105211984
2020,3,ISIP_8,138,9999,9999,9999,2106011736
2020,3,ISIP_8,139,9999,9999,9999,2106811464
2020,3,ISIP_8,140,9999,9999,9999,2107611192
2020,3,ISIP_8,141,9999,9999,9999,2108411964
2020,3,ISIP_8,142,9999,9999,9999,2109211768
2020,3,ISIP_8,143,9999,9999,9999,2110011496
2020,3,ISIP_8,144,9999,9999,9999,2110811224
2020,3,ISIP_8,145,9999,9999,9999,2111611996
2020,3,ISIP_8,146,9999,9999,9999,2112411752
2020,3,ISIP_8,147,9999,9999,9999,2113211476
2020,3,ISIP_8,148,9999,9999,9999,2114011204
2020,3,ISIP_8,149,9999,9999,9999,2114811996
2021,5,ISIP_5,0,5,42,127,2140845348
2021,5,ISIP_5,1,5,42,127,2141345120
2021,5,ISIP_5,2,1,48,27,2141828048
2021,5,ISIP_5,3,5,42,127,2141844884
2021,5,ISIP_5,4,1,48,32,2142336092
2021,5,ISIP_5,5,5,42,127,2142344636
2021,5,ISIP_5,6,1,48,30,2142842088
2021,5,ISIP_5,7,5,42,127,2142845408
2021,5,ISIP_5,8,1,48,35,2143332356
2021,5,ISIP_5,9,5,42,127,2143345084
2021,5,ISIP_5,10,1,48,33,2143822620
2021,5,ISIP_5,11,5,42,127,2143844684
2021,5,ISIP_5,12,1,48,34,2144337008
2021,5,ISIP_5,13,5,42,127,2144344508
2021,5,ISIP_5,14,5,42,127,2144845088
2021,5,ISIP_5,15,1,48,21,2144856196
2021,5,ISIP_5,16,1,48,24,2145309552
2021,5,ISIP_5,17,5,42,127,2145344832
2021,5,ISIP_5,18,5,42,127,2145844444
2021,5,ISIP_5,19,1,48,31,2145847556
2021,5,ISIP_5,20,5,42,127,2146345460
2021,5,ISIP_5,21,1,48,28,2146363208
2021,5,ISIP_5,22,5,42,127,2146844988
2021,5,ISIP_5,23,1,48,33,2146864236
2021,5,ISIP_5,24,5,42,127,2147344740
2021,5,ISIP_5,25,1,48,20,2147393852
2021,5,ISIP_5,26,1,48,22,2147838772
2021,5,ISIP_5,27,5,42,127,2147844484
2021,5,ISIP_5,28,1,48,27,2148338372
2021,5,ISIP_5,29,5,42,127,2148345352
2021,5,ISIP_5,30,1,48,31,2148810876
2021,5,ISIP_5,31,5,42,127,2148844884
2021,5,ISIP_5,32,5,42,127,2149344640
2021,5,ISIP_5,33,1,48,28,2149356936
2021,5,ISIP_5,34,5,42,127,2149845212
2021,5,ISIP_5,35,1,48,29,2149851908
2021,5,ISIP_5,36,5,42,127,2150345184
2021,5,ISIP_5,37,1,48,38,2150353304
2021,5,ISIP_5,38,1,48,27,2150844260
2021,5,ISIP_5,39,5,42,127,2150846048
2021,5,ISIP_5,40,1,48,26,2151332476
2021,5,ISIP_5,41,5,42,127,2151344384
2021,5,ISIP_5,42,5,42,127,2151845336
2021,5,ISIP_5,43,1,48,18,2151871444
2021,5,ISIP_5,44,1,48,37,2152327496
2021,5,ISIP_5,45,5,42,127,2152345152
2021,5,ISIP_5,46,1,48,32,2152823192
2021,5,ISIP_5,47,5,42,127,2152844680
2021,5,ISIP_5,48,1,48,38,2153340564
2021,5,ISIP_5,49,5,42,127,2153345256
2021,5,ISIP_5,50,5,42,127,2153845212
2021,5,ISIP_5,51,1,48,35,2153855148
2021,5,ISIP_5,52,1,48,46,2154333944
2021,5,ISIP_5,53,5,42,127,2154344732
2021,5,ISIP_5,54,5,42,127,2154844416
2021,5,ISIP_5,55,1,48,41,2154845380
2021,5,ISIP_5,56,1,48,37,2155327320
2021,5,ISIP_5,57,5,42,127,2155345204
2021,5,ISIP_5,58,5,42,127,2155844964
2021,5,ISIP_5,59,1,48,35,2155853304
2021,5,ISIP_5,60,1,48,28,2156345160
2021,5,ISIP_5,61,5,42,127,2156346500
2021,5,ISIP_5,62,5,42,127,2156845288
2021,5,ISIP_5,63,1,48,43,2156857884
2021,5,ISIP_5,64,5,42,127,2157345260
2021,5,ISIP_5,65,1,48,32,2157367940
2021,5,ISIP_5,66,1,48,40,2157829220
2021,5,ISIP_5,67,5,42,127,2157845080
2021,5,ISIP_5,68,1,48,42,2158320080
2021,5,ISIP_5,69,5,42,127,2158344680
2021,5,ISIP_5,70,1,48,43,2158822968
2021,5,ISIP_5,71,5,42,127,2158845256
2021,5,ISIP_5,72,1,48,31,2159322124
2021,5,ISIP_5,73,5,42,127,2159345152
2021,5,ISIP_5,74,1,48,38,2159802756
2021,5,ISIP_5,75,5,42,127,2159844832
2021,5,ISIP_5,76,1,48,32,2160319608
2021,5,ISIP_5,77,5,42,127,2160344360
2021,5,ISIP_5,78,1,48,42,2160790160
2021,5,ISIP_5,79,1,48,40,2161317164
2021,5,ISIP_5,80,1,48,43,2161816088
2021,5,ISIP_5,81,1,48,41,2162324500
2021,5,ISIP_5,82,1,48,51,2162805400
2021,5,ISIP_5,83,1,48,33,2163321424
2021,5,ISIP_5,84,1,48,43,2163807732
2021,5,ISIP_5,85,1,48,40,2164307252
2021,5,ISIP_5,86,1,48,42,2164796620
2021,5,ISIP_5,87,1,48,44,2165304432
2021,5,ISIP_5,88,1,48,30,2165807008
2021,5,ISIP_5,89,1,48,40,2166301084
2021,5,ISIP_5,90,1,48,49,2166813520
2021,5,ISIP_5,91,1,48,47,2167309832
2021,5,ISIP_5,92,1,48,42,2167807712
2021,5,ISIP_5,93,1,48,48,2168343988
2021,5,ISIP_5,94,1,48,44,2168853668
2021,5,ISIP_5,95,1,48,47,2169406280
2021,5,ISIP_5,96,1,48,57,2169920288
2021,5,ISIP_5,97,1,48,44,2170471708
2021,5,ISIP_5,98,1,48,49,2170960552
2021,5,ISIP_5,99,1,48,50,2171495840
2021,5,ISIP_5,100,1,48,47,2172008880
2021,5,ISIP_5,101,1,48,48,2172543816
2021,5,ISIP_5,102,1,48,47,2173065816
2021,5,ISIP_5,103,1,48,34,2173661372
2021,5,ISIP_5,104,1,48,43,2174198748
2021,5,ISIP_5,105,1,48,49,2174743520
2021,5,ISIP_5,106,1,48,46,2175274480
2021,5,ISIP_5,107,1,48,46,2175817764
2021,5,ISIP_5,108,1,48,47,2176311388
2021,5,ISIP_5,109,1,48,46,2176862068
2021,5,ISIP_5,110,1,48,41,2177400948
2021,5,ISIP_5,111,1,48,41,2177952992
2021,5,ISIP_5,112,1,48,45,2178496720
2021,5,ISIP_5,113,1,48,48,2179019912
2021,5,ISIP_5,114,1,48,46,2179566252
2021,5,ISIP_5,115,1,48,46,2180086836
2021,5,ISIP_5,116,1,48,46,2180620780
2021,5,ISIP_5,117,1,48,45,2181156892
2021,5,ISIP_5,118,1,48,44,2181701436
2021,5,ISIP_5,119,1,48,47,2182250844
2021,5,ISIP_5,120,1,48,43,2182773436
2021,5,ISIP_5,121,1,48,45,2183299792
2021,5,ISIP_5,122,1,48,46,2183792648
2021,5,ISIP_5,123,1,48,44,2184351640
2021,5,ISIP_5,124,1,48,45,2184903360
2021,5,ISIP_5,125,1,48,48,2185451944
2021,5,ISIP_5,126,1,48,49,2185959680
2021,5,ISIP_5,127,1,48,42,2186521476
2021,5,ISIP_5,128,1,48,46,2187070404
2021,5,ISIP_5,129,1,48,44,2187610180
2021,5,ISIP_5,130,1,48,36,2188169316
2021,5,ISIP_5,131,1,48,47,2188735440
2021,5,ISIP_5,132,1,48,45,2189315164
2021,5,ISIP_5,133,1,48,47,2189854272
2021,5,ISIP_5,134,1,48,50,2190360668
2021,5,ISIP_5,135,1,48,46,2190855932
2021,5,ISIP_5,136,1,48,45,2191405636
2021,5,ISIP_5,137,1,48,39,2191921808
2021,5,ISIP_5,138,1,48,46,2192462476
2021,5,ISIP_5,139,1,48,47,2192983132
2021,5,ISIP_5,140,1,48,51,2193506844
2021,5,ISIP_5,141,1,48,51,2194002484
2021,5,ISIP_5,142,1,48,49,2194531504
2021,5,ISIP_5,143,1,48,40,2195030208
2021,5,ISIP_5,144,1,48,48,2195516356
2021,5,ISIP_5,145,1,48,45,2196051500
2021,5,ISIP_5,146,1,48,44,2196547436
2021,5,ISIP_5,147,1,48,45,2197056968
2021,5,ISIP_5,148,1,48,46,2197598308
2021,5,ISIP_5,149,1,48,50,2198073784
2021,5,ISIP_5,150,1,48,45,2198616316
2021,5,ISIP_5,151,1,48,43,2199168508
2021,5,ISIP_5,152,1,48,44,2199671216
2021,5,ISIP_5,153,1,48,47,2200199956
2021,5,ISIP_5,154,1,48,41,2200745032
2021,5,ISIP_5,155,1,48,42,2201267924
2021,5,ISIP_5,156,1,48,47,2201767816
2021,5,ISIP_5,157,1,48,29,2202305052
2021,5,ISIP_5,158,1,48,42,2202827200
2021,5,ISIP_5,159,1,48,49,2203339492
2021,5,ISIP_5,160,1,48,49,2203890476
2021,5,ISIP_5,161,1,48,50,2204380444
2021,5,ISIP_5,162,1,48,46,2204900800
2021,5,ISIP_5,163,1,48,51,2205453488
2021,5,ISIP_5,164,1,48,46,2205983848
2021,5,ISIP_5,165,1,48,47,2206519060
2021,5,ISIP_5,166,1,48,46,2207034416
2021,5,ISIP_5,167,1,48,41,2207596736
2021,5,ISIP_5,168,1,48,46,2208103348
2021,5,ISIP_5,169,1,48,45,2208593612
2021,5,ISIP_5,170,1,48,48,2209169924
2021,5,ISIP_5,171,1,48,49,2209708724
2021,5,ISIP_5,172,1,48,35,2210307484
2021,5,ISIP_5,173,1,48,43,2210848092
2021,5,ISIP_5,174,1,48,47,2211358584
2021,5,ISIP_5,175,1,48,54,2211904328
2021,5,ISIP_5,176,1,48,44,2212437380
2021,5,ISIP_5,177,1,48,51,2212943844
2021,5,ISIP_5,178,1,48,52,2213451288
2021,5,ISIP_5,179,1,48,54,2213957680
2021,5,ISIP_5,180,1,48,52,2214466308
2021,5,ISIP_5,181,1,48,50,2214990924
2021,5,ISIP_5,182,1,48,47,2215516284
2021,5,ISIP_5,183,1,48,38,2216044852
2021,5,ISIP_5,184,1,48,50,2216555948
2021,5,ISIP_5,185,1,48,55,2217107988
2021,5,ISIP_5,186,1,48,54,2217659332
2021,5,ISIP_5,187,1,48,57,2218208368
2021,5,ISIP_5,188,1,48,58,2218733800
2021,5,ISIP_5,189,1,48,51,2219263340
2021,5,ISIP_5,190,1,48,48,2219806320
2021,5,ISIP_5,191,1,48,53,2220324360
2021,5,ISIP_5,0,9999,9999,9999,2140843064
2021,5,ISIP_5,1,9999,9999,9999,2141342836
2021,5,ISIP_5,2,9999,9999,9999,2141842528
2021,5,ISIP_5,3,9999,9999,9999,2142342204
2021,5,ISIP_5,4,9999,9999,9999,2142842976
2021,5,ISIP_5,5,9999,9999,9999,2143342652
2021,5,ISIP_5,6,9999,9999,9999,2143842400
2021,5,ISIP_5,7,9999,9999,9999,2144342076
2021,5,ISIP_5,8,9999,9999,9999,2144842804
2021,5,ISIP_5,9,9999,9999,9999,2145342548
2021,5,ISIP_5,10,9999,9999,9999,2145842232
2021,5,ISIP_5,11,9999,9999,9999,2146343028
2021,5,ISIP_5,12,9999,9999,9999,2146842704
2021,5,ISIP_5,13,9999,9999,9999,2147342456
2021,5,ISIP_5,14,9999,9999,9999,2147842124
2021,5,ISIP_5,15,9999,9999,9999,2148342848
2021,5,ISIP_5,16,9999,9999,9999,2148842600
2021,5,ISIP_5,17,9999,9999,9999,2149342280
2021,5,ISIP_5,18,9999,9999,9999,2149843000
2021,5,ISIP_5,19,9999,9999,9999,2150342752
2021,5,ISIP_5,20,9999,9999,9999,2150842428
2021,5,ISIP_5,21,9999,9999,9999,2151342176
2021,5,ISIP_5,22,9999,9999,9999,2151842900
2021,5,ISIP_5,23,9999,9999,9999,2152342644
2021,5,ISIP_5,24,9999,9999,9999,2152842324
2021,5,ISIP_5,25,9999,9999,9999,2153343044
2021,5,ISIP_5,26,9999,9999,9999,2153842776
2021,5,ISIP_5,27,9999,9999,9999,2154342448
2021,5,ISIP_5,28,9999,9999,9999,2154842204
2021,5,ISIP_5,29,9999,9999,9999,2155342920
2021,5,ISIP_5,30,9999,9999,9999,2155842680
2021,5,ISIP_5,31,9999,9999,9999,2156342356
2021,5,ISIP_5,32,9999,9999,9999,2156843076
2021,5,ISIP_5,33,9999,9999,9999,2157342828
2021,5,ISIP_5,34,9999,9999,9999,2157842500
2021,5,ISIP_5,35,9999,9999,9999,2158342248
2021,5,ISIP_5,36,9999,9999,9999,2158842972
2021,5,ISIP_5,37,9999,9999,9999,2159342648
2021,5,ISIP_5,38,9999,9999,9999,2159842396
2021,5,ISIP_5,39,9999,9999,9999,2160342076
2021,5,ISIP_5,40,9999,9999,9999,2160842868
2021,5,ISIP_5,41,9999,9999,9999,2161342544
2021,5,ISIP_5,42,9999,9999,9999,2161842288
2021,5,ISIP_5,43,9999,9999,9999,2162343008
2021,5,ISIP_5,44,9999,9999,9999,2162842680
2021,5,ISIP_5,45,9999,9999,9999,2163342424
2021,5,ISIP_5,46,9999,9999,9999,2163842096
2021,5,ISIP_5,47,9999,9999,9999,2164342860
2021,5,ISIP_5,48,9999,9999,9999,2164842608
2021,5,ISIP_5,49,9999,9999,9999,2165342280
2021,5,ISIP_5,50,9999,9999,9999,2165842996
2021,5,ISIP_5,51,9999,9999,9999,2166342740
2021,5,ISIP_5,52,9999,9999,9999,2166842488
2021,5,ISIP_5,53,9999,9999,9999,2167342160
2021,5,ISIP_5,54,9999,9999,9999,2167842876
2021,5,ISIP_5,55,9999,9999,9999,2168342628
2021,5,ISIP_5,56,9999,9999,9999,2168842300
2021,5,ISIP_5,57,9999,9999,9999,2169343092
2021,5,ISIP_5,58,9999,9999,9999,2169842764
2021,5,ISIP_5,59,9999,9999,9999,2170342508
2021,5,ISIP_5,60,9999,9999,9999,2170842180
2021,5,ISIP_5,61,9999,9999,9999,2171342896
2021,5,ISIP_5,62,9999,9999,9999,2171842644
2021,5,ISIP_5,63,9999,9999,9999,2172342388
2021,5,ISIP_5,64,9999,9999,9999,2172843104
2021,5,ISIP_5,65,9999,9999,9999,2173342776
2021,5,ISIP_5,66,9999,9999,9999,2173842524
2021,5,ISIP_5,67,9999,9999,9999,2174342196
2021,5,ISIP_5,68,9999,9999,9999,2174842988
2021,5,ISIP_5,69,9999,9999,9999,2175342648
2021,5,ISIP_5,70,9999,9999,9999,2175842396
2021,5,ISIP_5,71,9999,9999,9999,2176342068
2021,5,ISIP_5,72,9999,9999,9999,2176842864
2021,5,ISIP_5,73,9999,9999,9999,2177342536
2021,5,ISIP_5,74,9999,9999,9999,2177842284
2021,5,ISIP_5,75,9999,9999,9999,2178343000
2021,5,ISIP_5,76,9999,9999,9999,2178842676
2021,5,ISIP_5,77,9999,9999,9999,2179342420
2021,5,ISIP_5,78,9999,9999,9999,2179842164
2021,5,ISIP_5,79,9999,9999,9999,2180342880
2021,5,ISIP_5,80,9999,9999,9999,2180842556
2021,5,ISIP_5,81,9999,9999,9999,2181342300
2021,5,ISIP_5,82,9999,9999,9999,2181843016
2021,5,ISIP_5,83,9999,9999,9999,2182342704
2021,5,ISIP_5,84,9999,9999,9999,2182842448
2021,5,ISIP_5,85,9999,9999,9999,2183342196
2021,5,ISIP_5,86,9999,9999,9999,2183842912
2021,5,ISIP_5,87,9999,9999,9999,2184342592
2021,5,ISIP_5,88,9999,9999,9999,2184842336
2021,5,ISIP_5,89,9999,9999,9999,2185343056
2021,5,ISIP_5,90,9999,9999,9999,2185842776
2021,5,ISIP_5,91,9999,9999,9999,2186342448
2021,5,ISIP_5,92,9999,9999,9999,2186842168
2021,5,ISIP_5,93,9999,9999,9999,2187342960
2021,5,ISIP_5,94,9999,9999,9999,2187842632
2021,5,ISIP_5,95,9999,9999,9999,2188342376
2021,5,ISIP_5,96,9999,9999,9999,2188843096
2021,5,ISIP_5,97,9999,9999,9999,2189342780
2021,5,ISIP_5,98,9999,9999,9999,2189842532
2021,5,ISIP_5,99,9999,9999,9999,2190342208
2021,5,ISIP_5,100,9999,9999,9999,2190842996
2021,5,ISIP_5,101,9999,9999,9999,2191342672
2021,5,ISIP_5,102,9999,9999,9999,2191842416
2021,5,ISIP_5,103,9999,9999,9999,2192342088
2021,5,ISIP_5,104,9999,9999,9999,2192842804
2021,5,ISIP_5,105,9999,9999,9999,2193342552
2021,5,ISIP_5,106,9999,9999,9999,2193842296
2021,5,ISIP_5,107,9999,9999,9999,2194343016
2021,5,ISIP_5,108,9999,9999,9999,2194842688
2021,5,ISIP_5,109,9999,9999,9999,2195342432
2021,5,ISIP_5,110,9999,9999,9999,2195842104
2021,5,ISIP_5,111,9999,9999,9999,2196342868
2021,5,ISIP_5,112,9999,9999,9999,2196842616
2021,5,ISIP_5,113,9999,9999,9999,2197342288
2021,5,ISIP_5,114,9999,9999,9999,2197843004
2021,5,ISIP_5,115,9999,9999,9999,2198342752
2021,5,ISIP_5,116,9999,9999,9999,2198842424
2021,5,ISIP_5,117,9999,9999,9999,2199342168
2021,5,ISIP_5,118,9999,9999,9999,2199842888
2021,5,ISIP_5,119,9999,9999,9999,2200342632
2021,5,ISIP_5,120,9999,9999,9999,2200842304
2021,5,ISIP_5,121,9999,9999,9999,2201343036
2021,5,ISIP_5,122,9999,9999,9999,2201842784
2021,5,ISIP_5,123,9999,9999,9999,2202342456
2021,5,ISIP_5,124,9999,9999,9999,2202842204
2021,5,ISIP_5,125,9999,9999,9999,2203342920
2021,5,ISIP_5,126,9999,9999,9999,2203842672
2021,5,ISIP_5,127,9999,9999,9999,2204342344
2021,5,ISIP_5,128,9999,9999,9999,2204843060
2021,5,ISIP_5,129,9999,9999,9999,2205342808
2021,5,ISIP_5,130,9999,9999,9999,2205842552
2021,5,ISIP_5,131,9999,9999,9999,2206342224
2021,5,ISIP_5,132,9999,9999,9999,2206842940
2021,5,ISIP_5,133,9999,9999,9999,2207342660
2021,5,ISIP_5,134,9999,9999,9999,2207842408
2021,5,ISIP_5,135,9999,9999,9999,2208342076
2021,5,ISIP_5,136,9999,9999,9999,2208842868
2021,5,ISIP_5,137,9999,9999,9999,2209342540
2021,5,ISIP_5,138,9999,9999,9999,2209842288
2021,5,ISIP_5,139,9999,9999,9999,2210343020
2021,5,ISIP_5,140,9999,9999,9999,2210842696
2021,5,ISIP_5,141,9999,9999,9999,2211342444
2021,5,ISIP_5,142,9999,9999,9999,2211842116
2021,5,ISIP_5,143,9999,9999,9999,2212342904
2021,5,ISIP_5,144,9999,9999,9999,2212842576
2021,5,ISIP_5,145,9999,9999,9999,2213342324
2021,5,ISIP_5,146,9999,9999,9999,2213843040
2021,5,ISIP_5,147,9999,9999,9999,2214342712
2021,5,ISIP_5,148,9999,9999,9999,2214842460
2021,5,ISIP_5,149,9999,9999,9999,2215342132
2021,5,ISIP_5,150,9999,9999,9999,2215842920
2021,5,ISIP_5,151,9999,9999,9999,2216342592
2021,5,ISIP_5,152,9999,9999,9999,2216842340
2021,5,ISIP_5,153,9999,9999,9999,2217343056
2021,5,ISIP_5,154,9999,9999,9999,2217842780
2021,5,ISIP_5,155,9999,9999,9999,2218342452
2021,5,ISIP_5,156,9999,9999,9999,2218842200
2021,5,ISIP_5,157,9999,9999,9999,2219342932
2021,5,ISIP_5,158,9999,9999,9999,2219842676
2021,5,ISIP_5,159,9999,9999,9999,2220342348
2022,11,Pattern_Practice,0,5,42,127,2316301604
2022,11,Pattern_Practice,1,5,42,127,2316802352
2022,11,Pattern_Practice,2,5,42,127,2317302196
2022,11,Pattern_Practice,3,5,42,127,2317801820
2022,11,Pattern_Practice,4,5,42,127,2318301444
2022,11,Pattern_Practice,5,5,42,127,2318802484
2022,11,Pattern_Practice,6,1,48,17,2318836140
2022,11,Pattern_Practice,7,1,48,17,2319080772
2022,11,Pattern_Practice,8,5,42,127,2319302064
2022,11,Pattern_Practice,9,1,48,23,2319337064
2022,11,Pattern_Practice,10,5,42,127,2319801592
2022,11,Pattern_Practice,11,1,48,33,2319874156
2022,11,Pattern_Practice,12,1,48,13,2320131548
2022,11,Pattern_Practice,13,5,42,127,2320301320
2022,11,Pattern_Practice,14,1,48,25,2320385824
2022,11,Pattern_Practice,15,5,42,127,2320802116
2022,11,Pattern_Practice,16,1,48,30,2320875944
2022,11,Pattern_Practice,17,1,48,21,2321128264
2022,11,Pattern_Practice,18,5,42,127,2321302220
2022,11,Pattern_Practice,19,1,38,32,2321395912
2022,11,Pattern_Practice,20,1,48,26,2321657560
2022,11,Pattern_Practice,21,5,42,127,2321801576
2022,11,Pattern_Practice,22,1,48,23,2321927676
2022,11,Pattern_Practice,23,1,48,26,2322181268
2022,11,Pattern_Practice,24,5,42,127,2322302276
2022,11,Pattern_Practice,25,1,48,16,2322499236
2022,11,Pattern_Practice,26,1,38,12,2322507728
2022,11,Pattern_Practice,27,5,42,127,2322802204
2022,11,Pattern_Practice,28,1,48,27,2322974752
2022,11,Pattern_Practice,29,1,48,24,2323219076
2022,11,Pattern_Practice,30,5,42,127,2323301628
2022,11,Pattern_Practice,31,1,48,27,2323480752
2022,11,Pattern_Practice,32,5,42,127,2323801360
2022,11,Pattern_Practice,33,1,48,31,2324032248
2022,11,Pattern_Practice,34,1,48,25,2324289416
2022,11,Pattern_Practice,35,5,42,127,2324302224
2022,11,Pattern_Practice,36,1,48,30,2324556096
2022,11,Pattern_Practice,37,5,42,127,2324802108
2022,11,Pattern_Practice,38,1,48,30,2325047632
2022,11,Pattern_Practice,39,5,42,127,2325301564
2022,11,Pattern_Practice,40,1,48,20,2325306168
2022,11,Pattern_Practice,41,1,48,29,2325566552
2022,11,Pattern_Practice,42,5,42,127,2325802260
2022,11,Pattern_Practice,43,1,38,24,2326156828
2022,11,Pattern_Practice,44,5,42,127,2326302160
2022,11,Pattern_Practice,45,1,48,21,2326420672
2022,11,Pattern_Practice,46,1,38,38,2326698600
2022,11,Pattern_Practice,47,5,42,127,2326801744
2022,11,Pattern_Practice,48,1,48,32,2327245320
2022,11,Pattern_Practice,49,5,42,127,2327301508
2022,11,Pattern_Practice,50,1,48,25,2327511696
2022,11,Pattern_Practice,51,1,48,38,2327782760
2022,11,Pattern_Practice,52,5,42,127,2327802208
2022,11,Pattern_Practice,53,5,42,127,2328301892
2022,11,Pattern_Practice,54,1,48,36,2328340552
2022,11,Pattern_Practice,55,1,38,34,2328346500
2022,11,Pattern_Practice,56,1,48,31,2328598944
2022,11,Pattern_Practice,57,5,42,127,2328801796
2022,11,Pattern_Practice,58,1,48,32,2328854488
2022,11,Pattern_Practice,59,5,42,127,2329302296
2022,11,Pattern_Practice,60,1,38,47,2329379036
2022,11,Pattern_Practice,61,1,48,35,2329383864
2022,11,Pattern_Practice,62,1,48,25,2329647808
2022,11,Pattern_Practice,63,5,42,127,2329802048
2022,11,Pattern_Practice,64,1,48,35,2329900740
2022,11,Pattern_Practice,65,1,48,29,2330179872
2022,11,Pattern_Practice,66,5,42,127,2330301780
2022,11,Pattern_Practice,67,1,48,35,2330485776
2022,11,Pattern_Practice,68,1,48,32,2330776472
2022,11,Pattern_Practice,69,5,42,127,2330801744
2022,11,Pattern_Practice,70,1,48,36,2331048820
2022,11,Pattern_Practice,71,1,38,40,2331052092
2022,11,Pattern_Practice,72,5,42,127,2331302332
2022,11,Pattern_Practice,73,1,48,33,2331589748
2022,11,Pattern_Practice,74,5,42,127,2331801932
2022,11,Pattern_Practice,75,1,48,24,2331857612
2022,11,Pattern_Practice,76,1,48,40,2332167656
2022,11,Pattern_Practice,77,1,38,43,2332181600
2022,11,Pattern_Practice,78,5,42,127,2332301776
2022,11,Pattern_Practice,79,1,48,26,2332754140
2022,11,Pattern_Practice,80,5,42,127,2332802732
2022,11,Pattern_Practice,81,1,48,26,2333030748
2022,11,Pattern_Practice,82,5,42,127,2333302100
2022,11,Pattern_Practice,83,1,38,43,2333337172
2022,11,Pattern_Practice,84,1,48,33,2333348576
2022,11,Pattern_Practice,85,5,42,127,2333801776
2022,11,Pattern_Practice,86,1,48,30,2333902660
2022,11,Pattern_Practice,87,1,48,22,2334160060
2022,11,Pattern_Practice,88,5,42,127,2334301656
2022,11,Pattern_Practice,89,1,48,36,2334436592
2022,11,Pattern_Practice,90,1,38,19,2334453896
2022,11,Pattern_Practice,91,5,42,127,2334802404
2022,11,Pattern_Practice,92,1,48,27,2335001708
2022,11,Pattern_Practice,93,1,48,25,2335269776
2022,11,Pattern_Practice,94,5,42,127,2335301924
2022,11,Pattern_Practice,95,1,38,40,2335546612
2022,11,Pattern_Practice,96,1,48,38,2335554584
2022,11,Pattern_Practice,97,5,42,127,2335801836
2022,11,Pattern_Practice,98,1,48,31,2336096644
2022,11,Pattern_Practice,99,5,42,127,2336301584
2022,11,Pattern_Practice,100,1,48,23,2336384996
2022,11,Pattern_Practice,101,1,38,48,2336677340
2022,11,Pattern_Practice,102,1,48,37,2336684268
2022,11,Pattern_Practice,103,5,42,127,2336802016
2022,11,Pattern_Practice,104,1,48,24,2337248360
2022,11,Pattern_Practice,105,5,42,127,2337301856
2022,11,Pattern_Practice,106,1,48,33,2337536460
2022,11,Pattern_Practice,107,5,42,127,2337801592
2022,11,Pattern_Practice,108,1,48,28,2337815380
2022,11,Pattern_Practice,109,1,48,27,2338086668
2022,11,Pattern_Practice,110,5,42,127,2338302292
2022,11,Pattern_Practice,111,1,38,39,2338361636
2022,11,Pattern_Practice,112,1,48,38,2338365348
2022,11,Pattern_Practice,113,1,48,29,2338641460
2022,11,Pattern_Practice,114,5,42,127,2338802048
2022,11,Pattern_Practice,115,1,48,34,2338921876
2022,11,Pattern_Practice,116,5,42,127,2339301728
2022,11,Pattern_Practice,117,1,48,35,2339453460
2022,11,Pattern_Practice,118,1,38,42,2339456724
2022,11,Pattern_Practice,119,1,48,25,2339743144
2022,11,Pattern_Practice,120,5,42,127,2339801424
2022,11,Pattern_Practice,121,1,48,31,2340025724
2022,11,Pattern_Practice,122,5,42,127,2340302352
2022,11,Pattern_Practice,123,1,48,23,2340318240
2022,11,Pattern_Practice,124,1,48,29,2340592884
2022,11,Pattern_Practice,125,1,38,49,2340647004
2022,11,Pattern_Practice,126,5,42,127,2340801752
2022,11,Pattern_Practice,127,1,48,26,2340900148
2022,11,Pattern_Practice,128,1,48,29,2341180992
2022,11,Pattern_Practice,129,5,42,127,2341301556
2022,11,Pattern_Practice,130,1,48,28,2341437516
2022,11,Pattern_Practice,131,1,48,34,2341724776
2022,11,Pattern_Practice,132,1,38,43,2341749584
2022,11,Pattern_Practice,133,5,42,127,2341802340
2022,11,Pattern_Practice,134,1,48,26,2341995372
2022,11,Pattern_Practice,135,1,48,26,2342278188
2022,11,Pattern_Practice,136,5,42,127,2342302264
2022,11,Pattern_Practice,137,1,48,28,2342554720
2022,11,Pattern_Practice,138,5,42,127,2342801776
2022,11,Pattern_Practice,139,1,38,34,2342838940
2022,11,Pattern_Practice,140,1,48,28,2342847512
2022,11,Pattern_Practice,141,1,48,24,2343140796
2022,11,Pattern_Practice,142,5,42,127,2343301384
2022,11,Pattern_Practice,143,1,48,29,2343416204
2022,11,Pattern_Practice,144,1,48,28,2343690408
2022,11,Pattern_Practice,145,5,42,127,2343802232
2022,11,Pattern_Practice,146,1,38,38,2343959916
2022,11,Pattern_Practice,147,1,48,14,2344000892
2022,11,Pattern_Practice,148,1,48,25,2344251092
2022,11,Pattern_Practice,149,5,42,127,2344302076
2022,11,Pattern_Practice,150,1,48,21,2344536956
2022,11,Pattern_Practice,151,5,42,127,2344801492
2022,11,Pattern_Practice,152,1,48,29,2344816128
2022,11,Pattern_Practice,153,1,38,46,2345102272
2022,11,Pattern_Practice,154,1,48,37,2345117864
2022,11,Pattern_Practice,155,5,42,127,2345302292
2022,11,Pattern_Practice,156,1,48,28,2345401536
2022,11,Pattern_Practice,157,1,48,33,2345674912
2022,11,Pattern_Practice,158,5,42,127,2345801948
2022,11,Pattern_Practice,159,1,48,25,2345945840
2022,11,Pattern_Practice,160,1,38,20,2346227280
2022,11,Pattern_Practice,161,1,48,29,2346230472
2022,11,Pattern_Practice,162,5,42,127,2346302116
2022,11,Pattern_Practice,163,1,48,35,2346539384
2022,11,Pattern_Practice,164,5,42,127,2346801376
2022,11,Pattern_Practice,165,1,48,24,2346817184
2022,11,Pattern_Practice,166,1,48,28,2347087128
2022,11,Pattern_Practice,167,5,42,127,2347302224
2022,11,Pattern_Practice,168,1,38,53,2347348944
2022,11,Pattern_Practice,169,1,48,34,2347386744
2022,11,Pattern_Practice,170,1,48,26,2347676452
2022,11,Pattern_Practice,171,5,42,127,2347801996
2022,11,Pattern_Practice,172,1,48,33,2347948504
2022,11,Pattern_Practice,173,1,48,31,2348213668
2022,11,Pattern_Practice,174,5,42,127,2348301888
2022,11,Pattern_Practice,175,1,48,38,2348506776
2022,11,Pattern_Practice,176,1,38,30,2348516464
2022,11,Pattern_Practice,177,5,42,127,2348802400
2022,11,Pattern_Practice,178,1,48,28,2348869956
2022,11,Pattern_Practice,179,1,48,30,2349135120
2022,11,Pattern_Practice,180,5,42,127,2349301980
2022,11,Pattern_Practice,181,1,48,28,2349711656
2022,11,Pattern_Practice,182,5,42,127,2349802040
2022,11,Pattern_Practice,183,1,38,30,2349803008
2022,11,Pattern_Practice,184,1,48,26,2350003328
2022,11,Pattern_Practice,185,1,48,24,2350270584
2022,11,Pattern_Practice,186,5,42,127,2350301528
2022,11,Pattern_Practice,187,1,48,25,2350525304
2022,11,Pattern_Practice,188,5,42,127,2350802308
2022,11,Pattern_Practice,189,1,38,46,2350830364
2022,11,Pattern_Practice,190,1,48,40,2350833552
2022,11,Pattern_Practice,191,1,48,25,2351103396
2022,11,Pattern_Practice,192,5,42,127,2351301916
2022,11,Pattern_Practice,193,1,48,26,2351374848
2022,11,Pattern_Practice,194,1,48,28,2351647552
2022,11,Pattern_Practice,195,5,42,127,2351801796
2022,11,Pattern_Practice,196,1,38,47,2351920652
2022,11,Pattern_Practice,197,1,48,40,2351945348
2022,11,Pattern_Practice,198,1,48,31,2352230572
2022,11,Pattern_Practice,199,5,42,127,2352301492
2022,11,Pattern_Practice,200,1,48,32,2352501228
2022,11,Pattern_Practice,201,1,48,30,2352779008
2022,11,Pattern_Practice,202,5,42,127,2352802116
2022,11,Pattern_Practice,203,1,38,36,2353090484
2022,11,Pattern_Practice,204,1,48,33,2353093080
2022,11,Pattern_Practice,205,5,42,127,2353301956
2022,11,Pattern_Practice,206,1,48,30,2353376828
2022,11,Pattern_Practice,207,1,48,28,2353659916
2022,11,Pattern_Practice,208,5,42,127,2353801684
2022,11,Pattern_Practice,209,1,48,27,2353925172
2022,11,Pattern_Practice,210,1,38,49,2354203924
2022,11,Pattern_Practice,211,1,48,44,2354223320
2022,11,Pattern_Practice,212,5,42,127,2354302600
2022,11,Pattern_Practice,213,1,48,35,2354488856
2022,11,Pattern_Practice,214,1,48,38,2354761936
2022,11,Pattern_Practice,215,5,42,127,2354802016
2022,11,Pattern_Practice,216,1,48,39,2355046376
2022,11,Pattern_Practice,217,5,42,127,2355301656
2022,11,Pattern_Practice,218,1,48,45,2355369160
2022,11,Pattern_Practice,219,1,38,45,2355375036
2022,11,Pattern_Practice,220,1,48,38,2355635620
2022,11,Pattern_Practice,221,5,42,127,2355801632
2022,11,Pattern_Practice,222,1,48,33,2355918276
2022,11,Pattern_Practice,223,1,48,37,2356207328
2022,11,Pattern_Practice,0,9999,9999,9999,2316299320
2022,11,Pattern_Practice,1,9999,9999,9999,2316800068
2022,11,Pattern_Practice,2,9999,9999,9999,2317299764
2022,11,Pattern_Practice,3,9999,9999,9999,2317799536
2022,11,Pattern_Practice,4,9999,9999,9999,2318299232
2022,11,Pattern_Practice,5,9999,9999,9999,2318799976
2022,11,Pattern_Practice,6,9999,9999,9999,2319299632
2022,11,Pattern_Practice,7,9999,9999,9999,2319799384
2022,11,Pattern_Practice,8,9999,9999,9999,2320299112
2022,11,Pattern_Practice,9,9999,9999,9999,2320799832
2022,11,Pattern_Practice,10,9999,9999,9999,2321299564
2022,11,Pattern_Practice,11,9999,9999,9999,2321799216
2022,11,Pattern_Practice,12,9999,9999,9999,2322299992
2022,11,Pattern_Practice,13,9999,9999,9999,2322799696
2022,11,Pattern_Practice,14,9999,9999,9999,2323299416
2022,11,Pattern_Practice,15,9999,9999,9999,2323799152
2022,11,Pattern_Practice,16,9999,9999,9999,2324299864
2022,11,Pattern_Practice,17,9999,9999,9999,2324799600
2022,11,Pattern_Practice,18,9999,9999,9999,2325299280
2022,11,Pattern_Practice,19,9999,9999,9999,2325800048
2022,11,Pattern_Practice,20,9999,9999,9999,2326299728
2022,11,Pattern_Practice,21,9999,9999,9999,2326799456
2022,11,Pattern_Practice,22,9999,9999,9999,2327299148
2022,11,Pattern_Practice,23,9999,9999,9999,2327799924
2022,11,Pattern_Practice,24,9999,9999,9999,2328299608
2022,11,Pattern_Practice,25,9999,9999,9999,2328799288
2022,11,Pattern_Practice,26,9999,9999,9999,2329300084
2022,11,Pattern_Practice,27,9999,9999,9999,2329799764
2022,11,Pattern_Practice,28,9999,9999,9999,2330299496
2022,11,Pattern_Practice,29,9999,9999,9999,2330799164
2022,11,Pattern_Practice,30,9999,9999,9999,2331299896
2022,11,Pattern_Practice,31,9999,9999,9999,2331799648
2022,11,Pattern_Practice,32,9999,9999,9999,2332299340
2022,11,Pattern_Practice,33,9999,9999,9999,2332800080
2022,11,Pattern_Practice,34,9999,9999,9999,2333299812
2022,11,Pattern_Practice,35,9999,9999,9999,2333799492
2022,11,Pattern_Practice,36,9999,9999,9999,2334299220
2022,11,Pattern_Practice,37,9999,9999,9999,2334799972
2022,11,Pattern_Practice,38,9999,9999,9999,2335299640
2022,11,Pattern_Practice,39,9999,9999,9999,2335799404
2022,11,Pattern_Practice,40,9999,9999,9999,2336299080
2022,11,Pattern_Practice,41,9999,9999,9999,2336799804
2022,11,Pattern_Practice,42,9999,9999,9999,2337299572
2022,11,Pattern_Practice,43,9999,9999,9999,2337799232
2022,11,Pattern_Practice,44,9999,9999,9999,2338300008
2022,11,Pattern_Practice,45,9999,9999,9999,2338799688
2022,11,Pattern_Practice,46,9999,9999,9999,2339299444
2022,11,Pattern_Practice,47,9999,9999,9999,2339799140
2022,11,Pattern_Practice,48,9999,9999,9999,2340299844
2022,11,Pattern_Practice,49,9999,9999,9999,2340799544
2022,11,Pattern_Practice,50,9999,9999,9999,2341299272
2022,11,Pattern_Practice,51,9999,9999,9999,2341800056
2022,11,Pattern_Practice,52,9999,9999,9999,2342299756
2022,11,Pattern_Practice,53,9999,9999,9999,2342799416
2022,11,Pattern_Practice,54,9999,9999,9999,2343299176
2022,11,Pattern_Practice,55,9999,9999,9999,2343799872
2022,11,Pattern_Practice,56,9999,9999,9999,2344299620
2022,11,Pattern_Practice,57,9999,9999,9999,2344799280
2022,11,Pattern_Practice,58,9999,9999,9999,2345300084
2022,11,Pattern_Practice,59,9999,9999,9999,2345799736
2022,11,Pattern_Practice,60,9999,9999,9999,2346299460
2022,11,Pattern_Practice,61,9999,9999,9999,2346799168
2022,11,Pattern_Practice,62,9999,9999,9999,2347299940
2022,11,Pattern_Practice,63,9999,9999,9999,2347799636
2022,11,Pattern_Practice,64,9999,9999,9999,2348299380
2022,11,Pattern_Practice,65,9999,9999,9999,2348800116
2022,11,Pattern_Practice,66,9999,9999,9999,2349299772
2022,11,Pattern_Practice,67,9999,9999,9999,2349799536
2022,11,Pattern_Practice,68,9999,9999,9999,2350299244
2022,11,Pattern_Practice,69,9999,9999,9999,2350799952
2022,11,Pattern_Practice,70,9999,9999,9999,2351299632
2022,11,Pattern_Practice,71,9999,9999,9999,2351799364
2022,11,Pattern_Practice,72,9999,9999,9999,2352299060
2022,11,Pattern_Practice,73,9999,9999,9999,2352799832
2022,11,Pattern_Practice,74,9999,9999,9999,2353299524
2022,11,Pattern_Practice,75,9999,9999,9999,2353799252
2022,11,Pattern_Practice,76,9999,9999,9999,2354300020
2022,11,Pattern_Practice,77,9999,9999,9999,2354799732
2022,11,Pattern_Practice,78,9999,9999,9999,2355299444
2022,11,Pattern_Practice,79,9999,9999,9999,2355799128
2023,13,Improv_Metronome,0,5,42,127,2381677972
2023,13,Improv_Metronome,1,5,42,127,2382177572
2023,13,Improv_Metronome,2,5,42,127,2382678392
2023,13,Improv_Metronome,3,5,42,127,2383178236
2023,13,Improv_Metronome,4,1,48,18,2383676656
2023,13,Improv_Metronome,5,5,42,127,2383678372
2023,13,Improv_Metronome,6,1,48,17,2383959132
2023,13,Improv_Metronome,7,5,42,127,2384177440
2023,13,Improv_Metronome,8,1,48,16,2384206536
2023,13,Improv_Metronome,9,1,48,14,2384491436
2023,13,Improv_Metronome,10,5,42,127,2384678140
2023,13,Improv_Metronome,11,1,48,15,2384757736
2023,13,Improv_Metronome,12,1,48,16,2385027008
2023,13,Improv_Metronome,13,5,42,127,2385178312
2023,13,Improv_Metronome,14,1,48,25,2385311532
2023,13,Improv_Metronome,15,5,42,127,2385677696
2023,13,Improv_Metronome,16,1,48,23,2385830028
2023,13,Improv_Metronome,17,1,48,16,2386094224
2023,13,Improv_Metronome,18,5,42,127,2386178264
2023,13,Improv_Metronome,19,1,48,25,2386366344
2023,13,Improv_Metronome,20,5,42,127,2386678220
2023,13,Improv_Metronome,21,1,48,27,2386781324
2023,13,Improv_Metronome,22,1,48,26,2387173300
2023,13,Improv_Metronome,23,5,42,127,2387178040
2023,13,Improv_Metronome,24,1,48,24,2387431688
2023,13,Improv_Metronome,25,5,42,127,2387677480
2023,13,Improv_Metronome,26,1,48,30,2387696420
2023,13,Improv_Metronome,27,1,48,24,2387975696
2023,13,Improv_Metronome,28,5,42,127,2388178324
2023,13,Improv_Metronome,29,1,48,27,2388259920
2023,13,Improv_Metronome,30,1,48,26,2388511268
2023,13,Improv_Metronome,31,5,42,127,2388677980
2023,13,Improv_Metronome,32,1,48,35,2388791384
2023,13,Improv_Metronome,33,1,38,23,2388821532
2023,13,Improv_Metronome,34,5,42,127,2389177904
2023,13,Improv_Metronome,35,1,48,28,2389268384
2023,13,Improv_Metronome,36,1,48,23,2389527724
2023,13,Improv_Metronome,37,5,42,127,2389677336
2023,13,Improv_Metronome,38,1,48,24,2389782676
2023,13,Improv_Metronome,39,1,48,24,2390049180
2023,13,Improv_Metronome,40,5,42,127,2390178184
2023,13,Improv_Metronome,41,1,48,29,2390321460
2023,13,Improv_Metronome,42,1,48,28,2390579972
2023,13,Improv_Metronome,43,5,42,127,2390677836
2023,13,Improv_Metronome,44,1,48,32,2390842768
2023,13,Improv_Metronome,45,1,38,30,2390875004
2023,13,Improv_Metronome,46,1,48,24,2391119676
2023,13,Improv_Metronome,47,5,42,127,2391177460
2023,13,Improv_Metronome,48,1,48,33,2391381424
2023,13,Improv_Metronome,49,1,48,25,2391659452
2023,13,Improv_Metronome,50,5,42,127,2391678308
2023,13,Improv_Metronome,51,1,48,29,2391924864
2023,13,Improv_Metronome,52,5,42,127,2392177892
2023,13,Improv_Metronome,53,1,48,23,2392200044
2023,13,Improv_Metronome,54,1,48,31,2392472156
2023,13,Improv_Metronome,55,5,42,127,2392677896
2023,13,Improv_Metronome,56,1,48,28,2392753092
2023,13,Improv_Metronome,57,1,48,48,2393035060
2023,13,Improv_Metronome,58,1,38,30,2393083572
2023,13,Improv_Metronome,59,5,42,127,2393177308
2023,13,Improv_Metronome,60,1,48,35,2393340896
2023,13,Improv_Metronome,61,1,48,28,2393618612
2023,13,Improv_Metronome,62,5,42,127,2393678232
2023,13,Improv_Metronome,63,1,48,28,2393891184
2023,13,Improv_Metronome,64,1,48,28,2394174496
2023,13,Improv_Metronome,65,5,42,127,2394177888
2023,13,Improv_Metronome,66,1,48,26,2394461556
2023,13,Improv_Metronome,67,5,42,127,2394677696
2023,13,Improv_Metronome,68,1,48,28,2394749308
2023,13,Improv_Metronome,69,1,48,42,2395017312
2023,13,Improv_Metronome,70,5,42,127,2395178248
2023,13,Improv_Metronome,71,1,48,52,2395311168
2023,13,Improv_Metronome,72,1,38,28,2395338776
2023,13,Improv_Metronome,73,1,48,24,2395593008
2023,13,Improv_Metronome,74,5,42,127,2395677944
2023,13,Improv_Metronome,75,1,48,35,2395866624
2023,13,Improv_Metronome,76,1,48,33,2396147540
2023,13,Improv_Metronome,77,5,42,127,2396177748
2023,13,Improv_Metronome,78,1,48,49,2396452452
2023,13,Improv_Metronome,79,1,38,59,2396461320
2023,13,Improv_Metronome,80,5,42,127,2396677584
2023,13,Improv_Metronome,81,1,48,32,2396718112
2023,13,Improv_Metronome,82,1,48,36,2397011272
2023,13,Improv_Metronome,83,5,42,127,2397178580
2023,13,Improv_Metronome,84,1,48,38,2397276308
2023,13,Improv_Metronome,85,1,48,46,2397578152
2023,13,Improv_Metronome,86,1,38,55,2397594716
2023,13,Improv_Metronome,87,5,42,127,2397677916
2023,13,Improv_Metronome,88,1,48,35,2397830756
2023,13,Improv_Metronome,89,1,48,48,2398132584
2023,13,Improv_Metronome,90,5,42,127,2398177572
2023,13,Improv_Metronome,91,1,48,42,2398437940
2023,13,Improv_Metronome,92,5,42,127,2398678500
2023,13,Improv_Metronome,93,1,38,48,2398715968
2023,13,Improv_Metronome,94,1,48,44,2398725428
2023,13,Improv_Metronome,95,1,48,41,2399007964
2023,13,Improv_Metronome,96,5,42,127,2399178184
2023,13,Improv_Metronome,97,1,48,47,2399285392
2023,13,Improv_Metronome,98,1,38,10,2399384632
2023,13,Improv_Metronome,99,5,42,127,2399677764
2023,13,Improv_Metronome,100,1,38,34,2400005724
2023,13,Improv_Metronome,101,1,38,31,2400038628
2023,13,Improv_Metronome,102,5,42,127,2400177564
2023,13,Improv_Metronome,103,1,38,36,2400303364
2023,13,Improv_Metronome,104,1,38,29,2400381252
2023,13,Improv_Metronome,105,1,38,34,2400469936
2023,13,Improv_Metronome,106,1,38,29,2400631160
2023,13,Improv_Metronome,107,5,42,127,2400678536
2023,13,Improv_Metronome,108,1,38,19,2400739128
2023,13,Improv_Metronome,109,5,42,127,2401177896
2023,13,Improv_Metronome,110,1,48,30,2401318480
2023,13,Improv_Metronome,111,5,42,127,2401677724
2023,13,Improv_Metronome,112,1,48,33,2401792248
2023,13,Improv_Metronome,113,1,38,23,2401813512
2023,13,Improv_Metronome,114,5,42,127,2402178484
2023,13,Improv_Metronome,115,1,48,37,2402319740
2023,13,Improv_Metronome,116,1,48,38,2402582592
2023,13,Improv_Metronome,117,5,42,127,2402678152
2023,13,Improv_Metronome,118,1,38,48,2402826936
2023,13,Improv_Metronome,119,5,42,127,2403177816
2023,13,Improv_Metronome,120,1,48,33,2403360212
2023,13,Improv_Metronome,121,1,38,19,2403415156
2023,13,Improv_Metronome,122,1,48,25,2403643404
2023,13,Improv_Metronome,123,5,42,127,2403677636
2023,13,Improv_Metronome,124,1,48,30,2403912164
2023,13,Improv_Metronome,125,5,42,127,2404178412
2023,13,Improv_Metronome,126,1,48,38,2404418712
2023,13,Improv_Metronome,127,1,38,25,2404435268
2023,13,Improv_Metronome,128,5,42,127,2404677968
2023,13,Improv_Metronome,129,5,42,127,2405177664
2023,13,Improv_Metronome,130,1,48,29,2405432748
2023,13,Improv_Metronome,131,5,42,127,2405677268
2023,13,Improv_Metronome,132,1,48,37,2405737004
2023,13,Improv_Metronome,133,1,38,53,2406046224
2023,13,Improv_Metronome,134,5,42,127,2406178116
2023,13,Improv_Metronome,135,1,48,30,2406574724
2023,13,Improv_Metronome,136,5,42,127,2406678088
2023,13,Improv_Metronome,137,1,48,32,2406830944
2023,13,Improv_Metronome,138,1,38,43,2407088116
2023,13,Improv_Metronome,139,5,42,127,2407177684
2023,13,Improv_Metronome,140,1,48,32,2407676828
2023,13,Improv_Metronome,141,5,42,127,2407678408
2023,13,Improv_Metronome,142,1,48,21,2407965356
2023,13,Improv_Metronome,143,5,42,127,2408178292
2023,13,Improv_Metronome,144,1,48,42,2408251452
2023,13,Improv_Metronome,145,1,38,40,2408265844
2023,13,Improv_Metronome,146,5,42,127,2408677700
2023,13,Improv_Metronome,147,1,48,41,2408777960
2023,13,Improv_Metronome,148,1,48,38,2409046112
2023,13,Improv_Metronome,149,5,42,127,2409177428
2023,13,Improv_Metronome,150,1,48,46,2409307708
2023,13,Improv_Metronome,151,1,38,49,2409356412
2023,13,Improv_Metronome,152,1,48,39,2409596084
2023,13,Improv_Metronome,153,5,42,127,2409678032
2023,13,Improv_Metronome,154,1,48,38,2409851780
2023,13,Improv_Metronome,155,1,48,38,2410128672
2023,13,Improv_Metronome,156,5,42,127,2410178060
2023,13,Improv_Metronome,157,1,48,48,2410408708
2023,13,Improv_Metronome,158,1,38,40,2410413020
2023,13,Improv_Metronome,159,1,48,38,2410670616
2023,13,Improv_Metronome,160,5,42,127,2410677592
2023,13,Improv_Metronome,161,1,48,40,2410965960
2023,13,Improv_Metronome,162,5,42,127,2411178224
2023,13,Improv_Metronome,163,1,48,39,2411249144
2023,13,Improv_Metronome,164,1,48,43,2411539548
2023,13,Improv_Metronome,165,1,38,45,2411546920
2023,13,Improv_Metronome,166,5,42,127,2411678060
2023,13,Improv_Metronome,167,1,48,37,2411800196
2023,13,Improv_Metronome,168,1,48,38,2412079700
2023,13,Improv_Metronome,169,5,42,127,2412177860
2023,13,Improv_Metronome,170,1,48,46,2412361604
2023,13,Improv_Metronome,171,1,48,55,2412643268
2023,13,Improv_Metronome,172,1,38,29,2412665916
2023,13,Improv_Metronome,173,5,42,127,2412677600
2023,13,Improv_Metronome,174,1,48,47,2412932488
2023,13,Improv_Metronome,175,5,42,127,2413178128
2023,13,Improv_Metronome,176,1,48,46,2413211112
2023,13,Improv_Metronome,177,1,48,47,2413495836
2023,13,Improv_Metronome,178,5,42,127,2413677856
2023,13,Improv_Metronome,179,1,38,47,2413771248
2023,13,Improv_Metronome,180,1,48,49,2413821632
2023,13,Improv_Metronome,181,1,48,39,2414107300
2023,13,Improv_Metronome,182,5,42,127,2414177828
2023,13,Improv_Metronome,183,1,48,48,2414384284
2023,13,Improv_Metronome,184,1,48,42,2414660272
2023,13,Improv_Metronome,185,5,42,127,2414678228
2023,13,Improv_Metronome,186,1,48,52,2414945320
2023,13,Improv_Metronome,187,1,38,48,2414948512
2023,13,Improv_Metronome,188,5,42,127,2415178140
2023,13,Improv_Metronome,189,1,48,40,2415217720
2023,13,Improv_Metronome,190,1,48,48,2415490352
2023,13,Improv_Metronome,191,5,42,127,2415677796
2023,13,Improv_Metronome,192,1,48,46,2415771212
2023,13,Improv_Metronome,193,1,38,55,2416061616
2023,13,Improv_Metronome,194,1,48,48,2416064732
2023,13,Improv_Metronome,195,5,42,127,2416177628
2023,13,Improv_Metronome,196,1,48,43,2416330480
2023,13,Improv_Metronome,197,1,48,46,2416607596
2023,13,Improv_Metronome,198,5,42,127,2416678196
2023,13,Improv_Metronome,199,1,48,41,2416891296
2023,13,Improv_Metronome,200,5,42,127,2417177856
2023,13,Improv_Metronome,201,1,48,48,2417179264
2023,13,Improv_Metronome,202,1,38,42,2417201572
2023,13,Improv_Metronome,203,1,48,32,2417466708
2023,13,Improv_Metronome,204,5,42,127,2417677772
2023,13,Improv_Metronome,205,1,48,35,2417741368
2023,13,Improv_Metronome,206,1,48,35,2418017364
2023,13,Improv_Metronome,207,5,42,127,2418178768
2023,13,Improv_Metronome,208,1,38,57,2418288244
2023,13,Improv_Metronome,209,1,48,41,2418310256
2023,13,Improv_Metronome,210,1,48,33,2418579792
2023,13,Improv_Metronome,211,5,42,127,2418678156
2023,13,Improv_Metronome,212,1,48,39,2418865660
2023,13,Improv_Metronome,213,1,48,40,2419162336
2023,13,Improv_Metronome,214,5,42,127,2419177752
2023,13,Improv_Metronome,215,1,48,51,2419450888
2023,13,Improv_Metronome,216,1,38,57,2419471104
2023,13,Improv_Metronome,217,5,42,127,2419677528
2023,13,Improv_Metronome,218,1,48,30,2419716264
2023,13,Improv_Metronome,219,1,48,42,2420010768
2023,13,Improv_Metronome,220,5,42,127,2420178376
2023,13,Improv_Metronome,221,1,48,33,2420295512
2023,13,Improv_Metronome,222,1,48,47,2420619092
2023,13,Improv_Metronome,223,1,38,43,2420640504
2023,13,Improv_Metronome,224,5,42,127,2420677952
2023,13,Improv_Metronome,225,1,48,26,2420905512
2023,13,Improv_Metronome,226,5,42,127,2421177660
2023,13,Improv_Metronome,227,1,48,37,2421187268
2023,13,Improv_Metronome,228,1,48,33,2421482152
2023,13,Improv_Metronome,229,5,42,127,2421677464
2023,13,Improv_Metronome,230,1,48,45,2421797288
2023,13,Improv_Metronome,231,1,38,42,2421815260
2023,13,Improv_Metronome,232,1,48,33,2422102800
2023,13,Improv_Metronome,233,5,42,127,2422178352
2023,13,Improv_Metronome,234,1,48,36,2422372012
2023,13,Improv_Metronome,235,1,48,34,2422665728
2023,13,Improv_Metronome,236,5,42,127,2422677856
2023,13,Improv_Metronome,237,1,48,45,2422980264
2023,13,Improv_Metronome,238,1,38,45,2422991520
2023,13,Improv_Metronome,239,5,42,127,2423177548
2023,13,Improv_Metronome,240,1,48,32,2423293192
2023,13,Improv_Metronome,241,1,48,38,2423583820
2023,13,Improv_Metronome,242,5,42,127,2423678396
2023,13,Improv_Metronome,243,1,48,30,2423894696
2023,13,Improv_Metronome,244,5,42,127,2424177996
2023,13,Improv_Metronome,245,1,48,42,2424192684
2023,13,Improv_Metronome,246,1,38,51,2424196992
2023,13,Improv_Metronome,247,1,48,25,2424490804
2023,13,Improv_Metronome,248,5,42,127,2424677656
2023,13,Improv_Metronome,249,1,48,41,2424794444
2023,13,Improv_Metronome,250,1,48,28,2425098208
2023,13,Improv_Metronome,251,5,42,127,2425177472
2023,13,Improv_Metronome,252,1,48,43,2425392064
2023,13,Improv_Metronome,253,1,38,51,2425398916
2023,13,Improv_Metronome,254,5,42,127,2425678428
2023,13,Improv_Metronome,255,1,48,31,2425690280
2023,13,Improv_Metronome,256,1,48,40,2425993772
2023,13,Improv_Metronome,257,5,42,127,2426177860
2023,13,Improv_Metronome,258,1,48,37,2426300392
2023,13,Improv_Metronome,259,1,48,50,2426652028
2023,13,Improv_Metronome,260,1,38,55,2426669708
2023,13,Improv_Metronome,261,5,42,127,2426677584
2023,13,Improv_Metronome,262,1,48,37,2426946664
2023,13,Improv_Metronome,263,5,42,127,2427178264
2023,13,Improv_Metronome,264,1,48,44,2427246740
2023,13,Improv_Metronome,265,1,48,29,2427531544
2023,13,Improv_Metronome,266,5,42,127,2427678068
2023,13,Improv_Metronome,267,1,38,44,2427823232
2023,13,Improv_Metronome,268,1,48,43,2427835156
2023,13,Improv_Metronome,269,1,48,38,2428116944
2023,13,Improv_Metronome,270,5,42,127,2428177692
2023,13,Improv_Metronome,271,1,48,45,2428419616
2023,13,Improv_Metronome,272,5,42,127,2428677428
2023,13,Improv_Metronome,273,1,48,44,2428715560
2023,13,Improv_Metronome,274,1,38,43,2429015596
2023,13,Improv_Metronome,275,1,48,48,2429018860
2023,13,Improv_Metronome,276,5,42,127,2429178300
2023,13,Improv_Metronome,277,1,48,36,2429292032
2023,13,Improv_Metronome,278,1,48,43,2429599456
2023,13,Improv_Metronome,279,5,42,127,2429678120
2023,13,Improv_Metronome,280,1,48,46,2429895252
2023,13,Improv_Metronome,281,5,42,127,2430177636
2023,13,Improv_Metronome,282,1,38,46,2430205240
2023,13,Improv_Metronome,283,1,48,49,2430208432
2023,13,Improv_Metronome,284,1,48,42,2430479540
2023,13,Improv_Metronome,285,5,42,127,2430678360
2023,13,Improv_Metronome,286,1,48,46,2430781536
2023,13,Improv_Metronome,287,1,48,45,2431082188
2023,13,Improv_Metronome,288,5,42,127,2431178028
2023,13,Improv_Metronome,289,1,38,48,2431374100
2023,13,Improv_Metronome,290,1,48,48,2431388724
2023,13,Improv_Metronome,291,5,42,127,2431678016
2023,13,Improv_Metronome,292,1,48,42,2431696732
2023,13,Improv_Metronome,293,1,48,40,2432003416
2023,13,Improv_Metronome,294,5,42,127,2432177448
2023,13,Improv_Metronome,295,1,48,38,2432286296
2023,13,Improv_Metronome,296,1,38,57,2432574452
2023,13,Improv_Metronome,297,1,48,48,2432589668
2023,13,Improv_Metronome,298,5,42,127,2432678204
2023,13,Improv_Metronome,299,1,48,43,2432887792
2023,13,Improv_Metronome,300,5,42,127,2433178088
2023,13,Improv_Metronome,301,1,48,38,2433192032
2023,13,Improv_Metronome,302,1,48,40,2433489524
2023,13,Improv_Metronome,303,5,42,127,2433677816
2023,13,Improv_Metronome,304,1,48,50,2433777036
2023,13,Improv_Metronome,305,1,38,57,2433781344
2023,13,Improv_Metronome,306,1,48,44,2434087104
2023,13,Improv_Metronome,307,5,42,127,2434179064
2023,13,Improv_Metronome,308,1,48,40,2434395444
2023,13,Improv_Metronome,309,5,42,127,2434677996
2023,13,Improv_Metronome,310,1,48,29,2434695376
2023,13,Improv_Metronome,311,1,38,46,2435001008
2023,13,Improv_Metronome,312,1,48,44,2435006964
2023,13,Improv_Metronome,313,5,42,127,2435177976
2023,13,Improv_Metronome,314,1,48,34,2435309300
2023,13,Improv_Metronome,315,1,48,41,2435622776
2023,13,Improv_Metronome,316,5,42,127,2435677476
2023,13,Improv_Metronome,317,1,48,33,2435914320
2023,13,Improv_Metronome,318,5,42,127,2436178256
2023,13,Improv_Metronome,319,1,38,48,2436223136
2023,13,Improv_Metronome,320,1,48,44,2436229464
2023,13,Improv_Metronome,321,1,48,33,2436522452
2023,13,Improv_Metronome,322,5,42,127,2436677940
2023,13,Improv_Metronome,323,1,48,30,2436831164
2023,13,Improv_Metronome,324,1,48,46,2437129560
2023,13,Improv_Metronome,325,5,42,127,2437177680
2023,13,Improv_Metronome,326,1,48,44,2437428492
2023,13,Improv_Metronome,327,1,38,57,2437429140
2023,13,Improv_Metronome,328,5,42,127,2437677368
2023,13,Improv_Metronome,329,1,48,33,2437737784
2023,13,Improv_Metronome,330,1,48,46,2438025496
2023,13,Improv_Metronome,331,5,42,127,2438178144
2023,13,Improv_Metronome,332,1,48,44,2438319204
2023,13,Improv_Metronome,333,1,38,45,2438602212
2023,13,Improv_Metronome,334,1,48,48,2438615336
2023,13,Improv_Metronome,335,5,42,127,2438677872
2023,13,Improv_Metronome,336,1,48,41,2438891244
2023,13,Improv_Metronome,337,5,42,127,2439177804
2023,13,Improv_Metronome,338,1,48,38,2439213992
2023,13,Improv_Metronome,339,1,48,42,2439515376
2023,13,Improv_Metronome,340,5,42,127,2439678280
2023,13,Improv_Metronome,341,1,38,23,2439801868
2023,13,Improv_Metronome,342,1,48,50,2439809312
2023,13,Improv_Metronome,343,1,48,42,2440115296
2023,13,Improv_Metronome,344,5,42,127,2440178124
2023,13,Improv_Metronome,345,1,48,43,2440410040
2023,13,Improv_Metronome,346,5,42,127,2440677640
2023,13,Improv_Metronome,347,1,48,46,2440688220
2023,13,Improv_Metronome,348,1,48,52,2440991612
2023,13,Improv_Metronome,349,1,38,44,2440996076
2023,13,Improv_Metronome,350,5,42,127,2441177616
2023,13,Improv_Metronome,351,1,48,44,2441284752
2023,13,Improv_Metronome,352,1,48,48,2441588096
2023,13,Improv_Metronome,353,5,42,127,2441678036
2023,13,Improv_Metronome,354,1,48,38,2441899720
2023,13,Improv_Metronome,355,5,42,127,2442177848
2023,13,Improv_Metronome,356,1,38,49,2442207768
2023,13,Improv_Metronome,357,1,48,55,2442213124
2023,13,Improv_Metronome,358,1,48,37,2442493120
2023,13,Improv_Metronome,359,5,42,127,2442677604
2023,13,Improv_Metronome,360,1,48,43,2442808480
2023,13,Improv_Metronome,361,1,48,43,2443114284
2023,13,Improv_Metronome,362,5,42,127,2443178540
2023,13,Improv_Metronome,363,1,48,54,2443411204
2023,13,Improv_Metronome,364,1,38,43,2443429848
2023,13,Improv_Metronome,365,5,42,127,2443677932
2023,13,Improv_Metronome,366,1,48,49,2443744140
2023,13,Improv_Metronome,367,1,48,48,2444025432
2023,13,Improv_Metronome,368,5,42,127,2444177808
2023,13,Improv_Metronome,369,1,48,43,2444323692
2023,13,Improv_Metronome,370,1,38,48,2444637916
2023,13,Improv_Metronome,371,1,48,51,2444645552
2023,13,Improv_Metronome,372,5,42,127,2444677620
2023,13,Improv_Metronome,373,1,48,32,2444941696
2023,13,Improv_Metronome,374,5,42,127,2445178296
2023,13,Improv_Metronome,375,1,48,44,2445233904
2023,13,Improv_Metronome,376,1,48,43,2445554400
2023,13,Improv_Metronome,377,5,42,127,2445677952
2023,13,Improv_Metronome,378,1,38,50,2445856172
2023,13,Improv_Metronome,379,1,48,53,2445876316
2023,13,Improv_Metronome,380,1,48,41,2446157880
2023,13,Improv_Metronome,381,5,42,127,2446177552
2023,13,Improv_Metronome,382,1,48,39,2446461168
2023,13,Improv_Metronome,383,5,42,127,2446678332
2023,13,Improv_Metronome,384,1,48,44,2446772496
2023,13,Improv_Metronome,385,1,38,47,2447073500
2023,13,Improv_Metronome,386,1,48,43,2447076768
2023,13,Improv_Metronome,387,5,42,127,2447178312
2023,13,Improv_Metronome,388,1,48,31,2447378436
2023,13,Improv_Metronome,389,5,42,127,2447677840
2023,13,Improv_Metronome,390,1,48,46,2447689536
2023,13,Improv_Metronome,391,1,48,45,2447984368
2023,13,Improv_Metronome,392,5,42,127,2448177568
2023,13,Improv_Metronome,393,1,38,48,2448290924
2023,13,Improv_Metronome,394,1,48,46,2448301060
2023,13,Improv_Metronome,395,1,48,40,2448611820
2023,13,Improv_Metronome,396,5,42,127,2448678312
2023,13,Improv_Metronome,397,1,48,46,2448920456
2023,13,Improv_Metronome,398,5,42,127,2449177972
2023,13,Improv_Metronome,399,1,48,42,2449233652
2023,13,Improv_Metronome,400,1,38,54,2449511312
2023,13,Improv_Metronome,401,1,48,48,2449528468
2023,13,Improv_Metronome,402,5,42,127,2449677728
2023,13,Improv_Metronome,403,1,48,43,2449817968
2023,13,Improv_Metronome,404,1,48,43,2450140480
2023,13,Improv_Metronome,405,5,42,127,2450178296
2023,13,Improv_Metronome,406,1,48,48,2450458972
2023,13,Improv_Metronome,407,5,42,127,2450678400
2023,13,Improv_Metronome,408,1,38,46,2450750140
2023,13,Improv_Metronome,409,1,48,54,2450786708
2023,13,Improv_Metronome,410,1,48,38,2451092192
2023,13,Improv_Metronome,411,5,42,127,2451178024
2023,13,Improv_Metronome,412,1,48,45,2451396804
2023,13,Improv_Metronome,0,9999,9999,9999,2381675616
2023,13,Improv_Metronome,1,9999,9999,9999,2382175288
2023,13,Improv_Metronome,2,9999,9999,9999,2382676032
2023,13,Improv_Metronome,3,9999,9999,9999,2383175728
2023,13,Improv_Metronome,4,9999,9999,9999,2383675504
2023,13,Improv_Metronome,5,9999,9999,9999,2384175156
2023,13,Improv_Metronome,6,9999,9999,9999,2384675928
2023,13,Improv_Metronome,7,9999,9999,9999,2385175660
2023,13,Improv_Metronome,8,9999,9999,9999,2385675336
2023,13,Improv_Metronome,9,9999,9999,9999,2386176052
2023,13,Improv_Metronome,10,9999,9999,9999,2386675788
2023,13,Improv_Metronome,11,9999,9999,9999,2387175532
2023,13,Improv_Metronome,12,9999,9999,9999,2387675192
2023,13,Improv_Metronome,13,9999,9999,9999,2388175968
2023,13,Improv_Metronome,14,9999,9999,9999,2388675696
2023,13,Improv_Metronome,15,9999,9999,9999,2389175396
2023,13,Improv_Metronome,16,9999,9999,9999,2389675124
2023,13,Improv_Metronome,17,9999,9999,9999,2390175824
2023,13,Improv_Metronome,18,9999,9999,9999,2390675552
2023,13,Improv_Metronome,19,9999,9999,9999,2391175252
2023,13,Improv_Metronome,20,9999,9999,9999,2391676024
2023,13,Improv_Metronome,21,9999,9999,9999,2392175684
2023,13,Improv_Metronome,22,9999,9999,9999,2392675388
2023,13,Improv_Metronome,23,9999,9999,9999,2393175100
2023,13,Improv_Metronome,24,9999,9999,9999,2393675872
2023,13,Improv_Metronome,25,9999,9999,9999,2394175604
2023,13,Improv_Metronome,26,9999,9999,9999,2394675264
2023,13,Improv_Metronome,27,9999,9999,9999,2395176036
2023,13,Improv_Metronome,28,9999,9999,9999,2395675736
2023,13,Improv_Metronome,29,9999,9999,9999,2396175464
2023,13,Improv_Metronome,30,9999,9999,9999,2396675152
2023,13,Improv_Metronome,31,9999,9999,9999,2397175924
2023,13,Improv_Metronome,32,9999,9999,9999,2397675632
2023,13,Improv_Metronome,33,9999,9999,9999,2398175288
2023,13,Improv_Metronome,34,9999,9999,9999,2398676068
2023,13,Improv_Metronome,35,9999,9999,9999,2399175752
2023,13,Improv_Metronome,36,9999,9999,9999,2399675480
2023,13,Improv_Metronome,37,9999,9999,9999,2400175208
2023,13,Improv_Metronome,38,9999,9999,9999,2400675952
2023,13,Improv_Metronome,39,9999,9999,9999,2401175612
2023,13,Improv_Metronome,40,9999,9999,9999,2401675364
2023,13,Improv_Metronome,41,9999,9999,9999,2402176052
2023,13,Improv_Metronome,42,9999,9999,9999,2402675796
2023,13,Improv_Metronome,43,9999,9999,9999,2403175504
2023,13,Improv_Metronome,44,9999,9999,9999,2403675204
2023,13,Improv_Metronome,45,9999,9999,9999,2404175980
2023,13,Improv_Metronome,46,9999,9999,9999,2404675684
2023,13,Improv_Metronome,47,9999,9999,9999,2405175380
2023,13,Improv_Metronome,48,9999,9999,9999,2405675056
2023,13,Improv_Metronome,49,9999,9999,9999,2406175832
2023,13,Improv_Metronome,50,9999,9999,9999,2406675508
2023,13,Improv_Metronome,51,9999,9999,9999,2407175252
2023,13,Improv_Metronome,52,9999,9999,9999,2407675980
2023,13,Improv_Metronome,53,9999,9999,9999,2408175708
2023,13,Improv_Metronome,54,9999,9999,9999,2408675412
2023,13,Improv_Metronome,55,9999,9999,9999,2409175144
2023,13,Improv_Metronome,56,9999,9999,9999,2409675824
2023,13,Improv_Metronome,57,9999,9999,9999,2410175556
2023,13,Improv_Metronome,58,9999,9999,9999,2410675312
2023,13,Improv_Metronome,59,9999,9999,9999,2411176016
2023,13,Improv_Metronome,60,9999,9999,9999,2411675700
2023,13,Improv_Metronome,61,9999,9999,9999,2412175428
2023,13,Improv_Metronome,62,9999,9999,9999,2412675164
2023,13,Improv_Metronome,63,9999,9999,9999,2413175916
2023,13,Improv_Metronome,64,9999,9999,9999,2413675572
2023,13,Improv_Metronome,65,9999,9999,9999,2414175320
2023,13,Improv_Metronome,66,9999,9999,9999,2414676020
2023,13,Improv_Metronome,67,9999,9999,9999,2415175780
2023,13,Improv_Metronome,68,9999,9999,9999,2415675512
2023,13,Improv_Metronome,69,9999,9999,9999,2416175196
2023,13,Improv_Metronome,70,9999,9999,9999,2416675912
2023,13,Improv_Metronome,71,9999,9999,9999,2417175644
2023,13,Improv_Metronome,72,9999,9999,9999,2417675340
2023,13,Improv_Metronome,73,9999,9999,9999,2418176112
2023,13,Improv_Metronome,74,9999,9999,9999,2418675796
2023,13,Improv_Metronome,75,9999,9999,9999,2419175540
2023,13,Improv_Metronome,76,9999,9999,9999,2419675244
2023,13,Improv_Metronome,77,9999,9999,9999,2420175944
2023,13,Improv_Metronome,78,9999,9999,9999,2420675668
2023,13,Improv_Metronome,79,9999,9999,9999,2421175376
2023,13,Improv_Metronome,80,9999,9999,9999,2421675104
2023,13,Improv_Metronome,81,9999,9999,9999,2422175844
2023,13,Improv_Metronome,82,9999,9999,9999,2422675576
2023,13,Improv_Metronome,83,9999,9999,9999,2423175264
2023,13,Improv_Metronome,84,9999,9999,9999,2423675964
2023,13,Improv_Metronome,85,9999,9999,9999,2424175712
2023,13,Improv_Metronome,86,9999,9999,9999,2424675444
2023,13,Improv_Metronome,87,9999,9999,9999,2425175112
2023,13,Improv_Metronome,88,9999,9999,9999,2425675848
2023,13,Improv_Metronome,89,9999,9999,9999,2426175576
2023,13,Improv_Metronome,90,9999,9999,9999,2426675300
2023,13,Improv_Metronome,91,9999,9999,9999,2427176052
2023,13,Improv_Metronome,92,9999,9999,9999,2427675708
2023,13,Improv_Metronome,93,9999,9999,9999,2428175480
2023,13,Improv_Metronome,94,9999,9999,9999,2428675144
2023,13,Improv_Metronome,95,9999,9999,9999,2429175868
2023,13,Improv_Metronome,96,9999,9999,9999,2429675612
2023,13,Improv_Metronome,97,9999,9999,9999,2430175352
2023,13,Improv_Metronome,98,9999,9999,9999,2430676076
2023,13,Improv_Metronome,99,9999,9999,9999,2431175744
2023,13,Improv_Metronome,100,9999,9999,9999,2431675508
2023,13,Improv_Metronome,101,9999,9999,9999,2432175164
2023,13,Improv_Metronome,102,9999,9999,9999,2432675920
2023,13,Improv_Metronome,103,9999,9999,9999,2433175656
2023,13,Improv_Metronome,104,9999,9999,9999,2433675384
2023,13,Improv_Metronome,105,9999,9999,9999,2434176052
2023,13,Improv_Metronome,106,9999,9999,9999,2434675788
2023,13,Improv_Metronome,107,9999,9999,9999,2435175544
2023,13,Improv_Metronome,108,9999,9999,9999,2435675192
2023,13,Improv_Metronome,109,9999,9999,9999,2436175972
2023,13,Improv_Metronome,110,9999,9999,9999,2436675652
2023,13,Improv_Metronome,111,9999,9999,9999,2437175396
2023,13,Improv_Metronome,112,9999,9999,9999,2437675084
2023,13,Improv_Metronome,113,9999,9999,9999,2438175860
2023,13,Improv_Metronome,114,9999,9999,9999,2438675512
2023,13,Improv_Metronome,115,9999,9999,9999,2439175220
2023,13,Improv_Metronome,116,9999,9999,9999,2439675996
2023,13,Improv_Metronome,117,9999,9999,9999,2440175692
2023,13,Improv_Metronome,118,9999,9999,9999,2440675428
2023,13,Improv_Metronome,119,9999,9999,9999,2441175112
2023,13,Improv_Metronome,120,9999,9999,9999,2441675828
2023,13,Improv_Metronome,121,9999,9999,9999,2442175564
2023,13,Improv_Metronome,122,9999,9999,9999,2442675316
2023,13,Improv_Metronome,123,9999,9999,9999,2443176032
2023,13,Improv_Metronome,124,9999,9999,9999,2443675720
2023,13,Improv_Metronome,125,9999,9999,9999,2444175448
2023,13,Improv_Metronome,126,9999,9999,9999,2444675188
2023,13,Improv_Metronome,127,9999,9999,9999,2445175864
2023,13,Improv_Metronome,128,9999,9999,9999,2445675596
2023,13,Improv_Metronome,129,9999,9999,9999,2446175340
2023,13,Improv_Metronome,130,9999,9999,9999,2446676048
2023,13,Improv_Metronome,131,9999,9999,9999,2447175764
2023,13,Improv_Metronome,132,9999,9999,9999,2447675480
2023,13,Improv_Metronome,133,9999,9999,9999,2448175208
2023,13,Improv_Metronome,134,9999,9999,9999,2448675952
2023,13,Improv_Metronome,135,9999,9999,9999,2449175612
2023,13,Improv_Metronome,136,9999,9999,9999,2449675372
2023,13,Improv_Metronome,137,9999,9999,9999,2450176084
2023,13,Improv_Metronome,138,9999,9999,9999,2450675820
2023,13,Improv_Metronome,139,9999,9999,9999,2451175520
2024,14,Improv_Melody,0,2,48,80,2518167988
2024,14,Improv_Melody,1,2,72,80,2518169996
2024,14,Improv_Melody,2,5,42,127,2518172600
2024,14,Improv_Melody,3,5,42,110,2518665508
2024,14,Improv_Melody,4,5,42,110,2519166332
2024,14,Improv_Melody,5,5,42,110,2519666108
2024,14,Improv_Melody,6,5,42,127,2520165960
2024,14,Improv_Melody,7,5,42,110,2520665564
2024,14,Improv_Melody,8,5,42,110,2521166312
2024,14,Improv_Melody,9,5,42,110,2521665868
2024,14,Improv_Melody,10,2,43,80,2522168072
2024,14,Improv_Melody,11,2,67,80,2522170296
2024,14,Improv_Melody,12,5,42,127,2522172832
2024,14,Improv_Melody,13,5,42,110,2522666484
2024,14,Improv_Melody,14,5,42,110,2523166112
2024,14,Improv_Melody,15,5,42,110,2523665820
2024,14,Improv_Melody,16,5,42,127,2524165744
2024,14,Improv_Melody,17,5,42,110,2524666344
2024,14,Improv_Melody,18,5,42,110,2525165972
2024,14,Improv_Melody,19,5,42,110,2525665528
2024,14,Improv_Melody,20,2,45,80,2526168848
2024,14,Improv_Melody,21,2,69,80,2526171152
2024,14,Improv_Melody,22,5,42,127,2526173680
2024,14,Improv_Melody,23,5,42,110,2526666212
2024,14,Improv_Melody,24,5,42,110,2527165696
2024,14,Improv_Melody,25,5,42,110,2527665548
2024,14,Improv_Melody,26,5,42,127,2528166440
2024,14,Improv_Melody,27,5,42,110,2528665924
2024,14,Improv_Melody,28,5,42,110,2529165552
2024,14,Improv_Melody,29,5,42,110,2529666448
2024,14,Improv_Melody,30,2,41,80,2530168572
2024,14,Improv_Melody,31,2,65,80,2530170796
2024,14,Improv_Melody,32,5,42,127,2530173332
2024,14,Improv_Melody,33,5,42,110,2530665792
2024,14,Improv_Melody,34,5,42,110,2531165548
2024,14,Improv_Melody,35,5,42,110,2531666272
2024,14,Improv_Melody,36,1,48,20,2532147108
2024,14,Improv_Melody,37,5,42,127,2532166264
2024,14,Improv_Melody,38,5,42,110,2532665656
2024,14,Improv_Melody,39,1,48,26,2532704932
2024,14,Improv_Melody,40,5,42,110,2533165336
2024,14,Improv_Melody,41,1,48,23,2533216268
2024,14,Improv_Melody,42,5,42,110,2533666064
2024,14,Improv_Melody,43,1,48,29,2533724212
2024,14,Improv_Melody,44,2,48,80,2534168396
2024,14,Improv_Melody,45,2,72,80,2534170612
2024,14,Improv_Melody,46,5,42,127,2534173148
2024,14,Improv_Melody,47,1,48,29,2534236000
2024,14,Improv_Melody,48,5,42,110,2534665512
2024,14,Improv_Melody,49,1,48,33,2534746288
2024,14,Improv_Melody,50,5,42,110,2535166312
2024,14,Improv_Melody,51,1,48,25,2535253952
2024,14,Improv_Melody,52,5,42,110,2535666144
2024,14,Improv_Melody,53,1,48,27,2535783680
2024,14,Improv_Melody,54,5,42,127,2536165824
2024,14,Improv_Melody,55,1,48,31,2536283036
2024,14,Improv_Melody,56,5,42,110,2536665356
2024,14,Improv_Melody,57,1,48,17,2536725072
2024,14,Improv_Melody,58,5,42,110,2537166156
2024,14,Improv_Melody,59,1,48,24,2537197648
2024,14,Improv_Melody,60,5,42,110,2537665840
2024,14,Improv_Melody,61,1,48,26,2537693372
2024,14,Improv_Melody,62,2,43,80,2538168400
2024,14,Improv_Melody,63,2,67,80,2538170472
2024,14,Improv_Melody,64,5,42,127,2538173076
2024,14,Improv_Melody,65,1,48,35,2538178060
2024,14,Improv_Melody,66,1,38,44,2538190360
2024,14,Improv_Melody,67,5,42,110,2538666364
2024,14,Improv_Melody,68,1,48,20,2538696212
2024,14,Improv_Melody,69,1,48,27,2539113508
2024,14,Improv_Melody,70,5,42,110,2539166040
2024,14,Improv_Melody,71,5,42,110,2539665952
2024,14,Improv_Melody,72,1,48,30,2539670036
2024,14,Improv_Melody,73,1,48,44,2540149232
2024,14,Improv_Melody,74,1,38,50,2540154144
2024,14,Improv_Melody,75,5,42,127,2540165456
2024,14,Improv_Melody,76,5,42,110,2540666164
2024,14,Improv_Melody,77,1,48,29,2540668828
2024,14,Improv_Melody,78,1,48,24,2541148748
2024,14,Improv_Melody,79,5,42,110,2541165964
2024,14,Improv_Melody,80,1,48,22,2541631080
2024,14,Improv_Melody,81,5,42,110,2541665792
2024,14,Improv_Melody,82,1,38,48,2542149576
2024,14,Improv_Melody,83,1,48,34,2542156580
2024,14,Improv_Melody,84,2,45,80,2542168824
2024,14,Improv_Melody,85,2,69,80,2542170900
2024,14,Improv_Melody,86,5,42,127,2542173832
2024,14,Improv_Melody,87,5,42,110,2542666000
2024,14,Improv_Melody,88,1,48,20,2542693556
2024,14,Improv_Melody,89,1,48,22,2543134796
2024,14,Improv_Melody,90,5,42,110,2543165824
2024,14,Improv_Melody,91,1,48,24,2543610136
2024,14,Improv_Melody,92,5,42,110,2543665508
2024,14,Improv_Melody,93,5,42,127,2544166164
2024,14,Improv_Melody,94,1,48,43,2544170252
2024,14,Improv_Melody,95,1,38,47,2544174636
2024,14,Improv_Melody,96,5,42,110,2544665948
2024,14,Improv_Melody,97,1,48,25,2544706772
2024,14,Improv_Melody,98,1,48,30,2545131980
2024,14,Improv_Melody,99,5,42,110,2545165696
2024,14,Improv_Melody,100,1,48,30,2545620908
2024,14,Improv_Melody,101,5,42,110,2545666500
2024,14,Improv_Melody,102,1,38,46,2546141204
2024,14,Improv_Melody,103,1,48,40,2546153652
2024,14,Improv_Melody,104,2,41,80,2546168892
2024,14,Improv_Melody,105,2,65,80,2546170888
2024,14,Improv_Melody,106,5,42,127,2546173788
2024,14,Improv_Melody,107,1,48,24,2546628080
2024,14,Improv_Melody,108,5,42,110,2546665828
2024,14,Improv_Melody,109,1,48,32,2547110212
2024,14,Improv_Melody,110,5,42,110,2547165436
2024,14,Improv_Melody,111,1,48,34,2547595032
2024,14,Improv_Melody,112,5,42,110,2547666312
2024,14,Improv_Melody,113,1,48,37,2548105324
2024,14,Improv_Melody,114,5,42,127,2548166144
2024,14,Improv_Melody,115,1,48,23,2548619492
2024,14,Improv_Melody,116,5,42,110,2548665752
2024,14,Improv_Melody,117,1,48,25,2549057244
2024,14,Improv_Melody,118,5,42,110,2549165640
2024,14,Improv_Melody,119,1,38,42,2549612208
2024,14,Improv_Melody,120,1,48,41,2549626904
2024,14,Improv_Melody,121,5,42,110,2549666440
2024,14,Improv_Melody,122,1,48,32,2550117820
2024,14,Improv_Melody,123,2,48,80,2550168448
2024,14,Improv_Melody,124,2,72,80,2550170672
2024,14,Improv_Melody,125,5,42,127,2550173276
2024,14,Improv_Melody,126,1,48,22,2550665868
2024,14,Improv_Melody,127,5,42,110,2550667432
2024,14,Improv_Melody,128,5,42,110,2551166300
2024,14,Improv_Melody,129,1,48,32,2551602008
2024,14,Improv_Melody,130,5,42,110,2551665996
2024,14,Improv_Melody,131,1,48,35,2552116776
2024,14,Improv_Melody,132,5,42,127,2552165676
2024,14,Improv_Melody,133,1,38,48,2552607348
2024,14,Improv_Melody,134,1,48,41,2552626144
2024,14,Improv_Melody,135,5,42,110,2552665388
2024,14,Improv_Melody,136,1,48,31,2553155144
2024,14,Improv_Melody,137,5,42,110,2553166384
2024,14,Improv_Melody,138,1,48,29,2553609872
2024,14,Improv_Melody,139,5,42,110,2553665992
2024,14,Improv_Melody,140,1,48,33,2554098500
2024,14,Improv_Melody,141,2,43,80,2554168176
2024,14,Improv_Melody,142,2,67,80,2554170320
2024,14,Improv_Melody,143,5,42,127,2554172928
2024,14,Improv_Melody,144,1,38,29,2554605292
2024,14,Improv_Melody,145,1,48,32,2554615796
2024,14,Improv_Melody,146,5,42,110,2554666468
2024,14,Improv_Melody,147,1,48,33,2555107764
2024,14,Improv_Melody,148,5,42,110,2555166120
2024,14,Improv_Melody,149,1,48,25,2555628656
2024,14,Improv_Melody,150,5,42,110,2555665732
2024,14,Improv_Melody,151,5,42,127,2556165416
2024,14,Improv_Melody,152,1,48,26,2556168008
2024,14,Improv_Melody,153,1,38,40,2556622116
2024,14,Improv_Melody,154,1,48,36,2556646812
2024,14,Improv_Melody,155,5,42,110,2556666192
2024,14,Improv_Melody,156,1,48,38,2557128772
2024,14,Improv_Melody,157,5,42,110,2557166364
2024,14,Improv_Melody,158,1,48,43,2557634948
2024,14,Improv_Melody,159,5,42,110,2557665600
2024,14,Improv_Melody,160,2,45,80,2558168912
2024,14,Improv_Melody,161,2,69,80,2558170908
2024,14,Improv_Melody,162,5,42,127,2558173296
2024,14,Improv_Melody,163,1,38,39,2558175960
2024,14,Improv_Melody,164,1,38,22,2558362268
2024,14,Improv_Melody,165,1,38,34,2558602940
2024,14,Improv_Melody,166,5,42,110,2558666152
2024,14,Improv_Melody,167,1,38,39,2559149592
2024,14,Improv_Melody,168,5,42,110,2559166056
2024,14,Improv_Melody,169,1,38,29,2559403576
2024,14,Improv_Melody,170,1,38,37,2559620132
2024,14,Improv_Melody,171,5,42,110,2559665492
2024,14,Improv_Melody,172,1,38,24,2559839164
2024,14,Improv_Melody,173,1,38,45,2559855724
2024,14,Improv_Melody,174,5,42,127,2560166108
2024,14,Improv_Melody,175,1,38,48,2560366528
2024,14,Improv_Melody,176,1,38,42,2560591792
2024,14,Improv_Melody,177,5,42,110,2560665932
2024,14,Improv_Melody,178,1,38,32,2560865444
2024,14,Improv_Melody,179,1,38,50,2561113112
2024,14,Improv_Melody,180,5,42,110,2561165816
2024,14,Improv_Melody,181,5,42,110,2561666324
2024,14,Improv_Melody,182,1,38,53,2561670560
2024,14,Improv_Melody,183,1,38,46,2561908320
2024,14,Improv_Melody,184,1,38,51,2562160940
2024,14,Improv_Melody,185,2,41,80,2562168780
2024,14,Improv_Melody,186,2,65,80,2562170852
2024,14,Improv_Melody,187,5,42,127,2562173312
2024,14,Improv_Melody,188,1,38,42,2562413820
2024,14,Improv_Melody,189,1,38,54,2562442768
2024,14,Improv_Melody,190,5,42,110,2562665788
2024,14,Improv_Melody,191,1,38,43,2562981284
2024,14,Improv_Melody,192,5,42,110,2563165844
2024,14,Improv_Melody,193,1,38,33,2563185608
2024,14,Improv_Melody,194,1,38,33,2563388844
2024,14,Improv_Melody,195,1,38,47,2563608608
2024,14,Improv_Melody,196,5,42,110,2563666296
2024,14,Improv_Melody,197,5,42,127,2564165908
2024,14,Improv_Melody,198,1,38,46,2564170664
2024,14,Improv_Melody,199,1,38,35,2564355032
2024,14,Improv_Melody,200,1,38,31,2564522232
2024,14,Improv_Melody,201,5,42,110,2564665772
2024,14,Improv_Melody,202,1,38,49,2564780100
2024,14,Improv_Melody,203,5,42,110,2565165452
2024,14,Improv_Melody,204,1,38,44,2565326152
2024,14,Improv_Melody,205,1,38,39,2565505884
2024,14,Improv_Melody,206,5,42,110,2565666160
2024,14,Improv_Melody,207,1,38,39,2565681068
2024,14,Improv_Melody,208,1,38,53,2565925848
2024,14,Improv_Melody,209,1,48,14,2565941660
2024,14,Improv_Melody,210,2,48,80,2566168652
2024,14,Improv_Melody,211,2,72,80,2566170568
2024,14,Improv_Melody,212,5,42,127,2566173104
2024,14,Improv_Melody,213,1,38,46,2566496536
2024,14,Improv_Melody,214,5,42,110,2566665768
2024,14,Improv_Melody,215,1,38,35,2566673060
2024,14,Improv_Melody,216,1,38,22,2566831668
2024,14,Improv_Melody,217,1,38,50,2567060768
2024,14,Improv_Melody,218,5,42,110,2567166524
2024,14,Improv_Melody,219,1,38,43,2567643184
2024,14,Improv_Melody,220,5,42,110,2567666220
2024,14,Improv_Melody,221,1,38,27,2567838780
2024,14,Improv_Melody,222,1,38,36,2567970928
2024,14,Improv_Melody,223,5,42,127,2568165864
2024,14,Improv_Melody,224,1,38,52,2568220804
2024,14,Improv_Melody,225,5,42,110,2568665400
2024,14,Improv_Melody,226,1,38,37,2568740344
2024,14,Improv_Melody,227,1,38,31,2568920904
2024,14,Improv_Melody,228,1,38,26,2569078916
2024,14,Improv_Melody,229,5,42,110,2569166244
2024,14,Improv_Melody,230,1,38,48,2569309156
2024,14,Improv_Melody,231,5,42,110,2569665764
2024,14,Improv_Melody,232,1,38,36,2569818148
2024,14,Improv_Melody,233,1,38,36,2570004376
2024,14,Improv_Melody,234,1,38,26,2570159700
2024,14,Improv_Melody,235,2,43,80,2570167916
2024,14,Improv_Melody,236,2,67,80,2570170440
2024,14,Improv_Melody,237,5,42,127,2570172748
2024,14,Improv_Melody,238,1,38,36,2570425352
2024,14,Improv_Melody,239,1,38,56,2570444072
2024,14,Improv_Melody,240,1,48,14,2570458540
2024,14,Improv_Melody,241,5,42,110,2570666296
2024,14,Improv_Melody,242,1,38,40,2570985968
2024,14,Improv_Melody,243,5,42,110,2571166348
2024,14,Improv_Melody,244,1,38,33,2571182828
2024,14,Improv_Melody,245,1,38,36,2571334916
2024,14,Improv_Melody,246,1,38,51,2571572528
2024,14,Improv_Melody,247,5,42,110,2571665708
2024,14,Improv_Melody,248,1,38,41,2572100432
2024,14,Improv_Melody,249,5,42,127,2572165460
2024,14,Improv_Melody,250,1,38,41,2572303192
2024,14,Improv_Melody,251,1,38,29,2572468744
2024,14,Improv_Melody,252,5,42,110,2572666300
2024,14,Improv_Melody,253,1,38,35,2572683224
2024,14,Improv_Melody,254,1,38,52,2572692168
2024,14,Improv_Melody,255,5,42,110,2573166032
2024,14,Improv_Melody,256,1,38,42,2573245016
2024,14,Improv_Melody,257,1,38,38,2573430576
2024,14,Improv_Melody,258,1,38,40,2573575940
2024,14,Improv_Melody,259,5,42,110,2573665688
2024,14,Improv_Melody,260,1,38,51,2573837696
2024,14,Improv_Melody,261,2,45,80,2574169256
2024,14,Improv_Melody,262,2,69,80,2574171440
2024,14,Improv_Melody,263,5,42,127,2574173672
2024,14,Improv_Melody,264,1,38,40,2574354428
2024,14,Improv_Melody,265,1,38,39,2574532152
2024,14,Improv_Melody,266,5,42,110,2574666284
2024,14,Improv_Melody,267,1,38,38,2574879552
2024,14,Improv_Melody,268,1,38,55,2574906936
2024,14,Improv_Melody,269,5,42,110,2575165948
2024,14,Improv_Melody,270,1,38,40,2575443580
2024,14,Improv_Melody,271,1,38,38,2575641536
2024,14,Improv_Melody,272,5,42,110,2575665472
2024,14,Improv_Melody,273,1,38,39,2575818988
2024,14,Improv_Melody,274,1,38,53,2576085568
2024,14,Improv_Melody,275,5,42,127,2576166180
2024,14,Improv_Melody,276,1,38,42,2576581968
2024,14,Improv_Melody,277,5,42,110,2576665936
2024,14,Improv_Melody,278,1,38,38,2576781064
2024,14,Improv_Melody,279,1,38,29,2576947036
2024,14,Improv_Melody,280,5,42,110,2577165652
2024,14,Improv_Melody,281,1,38,54,2577172200
2024,14,Improv_Melody,282,1,48,13,2577187416
2024,14,Improv_Melody,283,5,42,110,2577666408
2024,14,Improv_Melody,284,1,38,40,2577748080
2024,14,Improv_Melody,285,1,38,40,2577930728
2024,14,Improv_Melody,286,1,38,35,2578080972
2024,14,Improv_Melody,287,2,41,80,2578168484
2024,14,Improv_Melody,288,2,65,80,2578170708
2024,14,Improv_Melody,289,5,42,127,2578174124
2024,14,Improv_Melody,290,1,38,35,2578336988
2024,14,Improv_Melody,291,1,38,57,2578353244
2024,14,Improv_Melody,292,5,42,110,2578665792
2024,14,Improv_Melody,293,1,38,42,2578909972
2024,14,Improv_Melody,294,1,38,35,2579094864
2024,14,Improv_Melody,295,5,42,110,2579165616
2024,14,Improv_Melody,296,1,38,33,2579238984
2024,14,Improv_Melody,297,1,38,25,2579516092
2024,14,Improv_Melody,298,1,38,54,2579523764
2024,14,Improv_Melody,299,5,42,110,2579666212
2024,14,Improv_Melody,300,1,38,38,2580063940
2024,14,Improv_Melody,301,5,42,127,2580166040
2024,14,Improv_Melody,302,1,38,30,2580234644
2024,14,Improv_Melody,303,1,38,54,2580656716
2024,14,Improv_Melody,304,5,42,110,2580665940
2024,14,Improv_Melody,305,5,42,110,2581165476
2024,14,Improv_Melody,306,1,38,42,2581238112
2024,14,Improv_Melody,307,1,38,33,2581417920
2024,14,Improv_Melody,308,1,38,18,2581558884
2024,14,Improv_Melody,309,5,42,110,2581666088
2024,14,Improv_Melody,310,1,38,47,2581845576
2024,14,Improv_Melody,311,2,48,80,2582168264
2024,14,Improv_Melody,312,2,72,80,2582170564
2024,14,Improv_Melody,313,5,42,127,2582173024
2024,14,Improv_Melody,314,1,38,44,2582414964
2024,14,Improv_Melody,315,1,38,31,2582582284
2024,14,Improv_Melody,316,5,42,110,2582665752
2024,14,Improv_Melody,317,1,38,46,2582959132
2024,14,Improv_Melody,318,5,42,110,2583166244
2024,14,Improv_Melody,319,1,48,27,2583641920
2024,14,Improv_Melody,320,5,42,110,2583666008
2024,14,Improv_Melody,321,1,38,33,2583676736
2024,14,Improv_Melody,322,5,42,127,2584165808
2024,14,Improv_Melody,323,1,48,43,2584293024
2024,14,Improv_Melody,324,5,42,110,2584665392
2024,14,Improv_Melody,325,1,48,37,2584831884
2024,14,Improv_Melody,326,5,42,110,2585166168
2024,14,Improv_Melody,327,1,48,30,2585410124
2024,14,Improv_Melody,328,5,42,110,2585665776
2024,14,Improv_Melody,329,1,48,27,2585969120
2024,14,Improv_Melody,330,2,43,80,2586168104
2024,14,Improv_Melody,331,2,67,80,2586170328
2024,14,Improv_Melody,332,5,42,127,2586172864
2024,14,Improv_Melody,333,1,48,29,2586530944
2024,14,Improv_Melody,334,5,42,110,2586666496
2024,14,Improv_Melody,335,1,48,26,2587127472
2024,14,Improv_Melody,336,5,42,110,2587165968
2024,14,Improv_Melody,337,5,42,110,2587665804
2024,14,Improv_Melody,338,1,48,31,2587736276
2024,14,Improv_Melody,339,5,42,127,2588165636
2024,14,Improv_Melody,340,1,48,32,2588308336
2024,14,Improv_Melody,341,5,42,110,2588666512
2024,14,Improv_Melody,342,1,48,28,2588845952
2024,14,Improv_Melody,343,5,42,110,2589165896
2024,14,Improv_Melody,344,1,48,27,2589425984
2024,14,Improv_Melody,345,1,38,25,2589429248
2024,14,Improv_Melody,346,5,42,110,2589665756
2024,14,Improv_Melody,347,1,48,33,2589963924
2024,14,Improv_Melody,348,1,38,28,2589981080
2024,14,Improv_Melody,349,2,45,80,2590168936
2024,14,Improv_Melody,350,2,69,80,2590171084
2024,14,Improv_Melody,351,5,42,127,2590173692
2024,14,Improv_Melody,352,1,48,36,2590502844
2024,14,Improv_Melody,353,5,42,110,2590666056
2024,14,Improv_Melody,354,1,48,27,2591034188
2024,14,Improv_Melody,355,5,42,110,2591165888
2024,14,Improv_Melody,356,1,48,30,2591576288
2024,14,Improv_Melody,357,5,42,110,2591665508
2024,14,Improv_Melody,358,1,48,39,2592110192
2024,14,Improv_Melody,359,1,38,38,2592135412
2024,14,Improv_Melody,360,5,42,127,2592166440
2024,14,Improv_Melody,361,5,42,110,2592666100
2024,14,Improv_Melody,362,1,48,28,2592692736
2024,14,Improv_Melody,363,5,42,110,2593165632
2024,14,Improv_Melody,364,1,48,35,2593246704
2024,14,Improv_Melody,365,5,42,110,2593666508
2024,14,Improv_Melody,366,1,48,44,2593767520
2024,14,Improv_Melody,367,1,38,53,2593772348
2024,14,Improv_Melody,368,2,41,80,2594168720
2024,14,Improv_Melody,369,2,65,80,2594170864
2024,14,Improv_Melody,370,5,42,127,2594173472
2024,14,Improv_Melody,371,1,48,31,2594348928
2024,14,Improv_Melody,372,5,42,110,2594665688
2024,14,Improv_Melody,373,1,48,25,2594834420
2024,14,Improv_Melody,374,5,42,110,2595165592
2024,14,Improv_Melody,375,1,48,31,2595330152
2024,14,Improv_Melody,376,5,42,110,2595666148
2024,14,Improv_Melody,377,1,48,27,2595841628
2024,14,Improv_Melody,378,5,42,127,2596166200
2024,14,Improv_Melody,379,1,48,21,2596347804
2024,14,Improv_Melody,380,5,42,110,2596665660
2024,14,Improv_Melody,381,1,48,25,2596808508
2024,14,Improv_Melody,382,5,42,110,2597165488
2024,14,Improv_Melody,383,1,48,36,2597246068
2024,14,Improv_Melody,384,1,38,44,2597254484
2024,14,Improv_Melody,385,5,42,110,2597666244
2024,14,Improv_Melody,386,1,48,29,2597780944
2024,14,Improv_Melody,387,2,48,80,2598168428
2024,14,Improv_Melody,388,2,72,80,2598170732
2024,14,Improv_Melody,389,5,42,127,2598173184
2024,14,Improv_Melody,390,1,48,44,2598327612
2024,14,Improv_Melody,391,1,38,33,2598343944
2024,14,Improv_Melody,392,5,42,110,2598665504
2024,14,Improv_Melody,393,1,48,22,2598859504
2024,14,Improv_Melody,0,9999,9999,9999,2518163536
2024,14,Improv_Melody,1,9999,9999,9999,2518663220
2024,14,Improv_Melody,2,9999,9999,9999,2519163968
2024,14,Improv_Melody,3,9999,9999,9999,2519663672
2024,14,Improv_Melody,4,9999,9999,9999,2520163448
2024,14,Improv_Melody,5,9999,9999,9999,2520663128
2024,14,Improv_Melody,6,9999,9999,9999,2521163876
2024,14,Improv_Melody,7,9999,9999,9999,2521663576
2024,14,Improv_Melody,8,9999,9999,9999,2522163284
2024,14,Improv_Melody,9,9999,9999,9999,2522664048
2024,14,Improv_Melody,10,9999,9999,9999,2523163752
2024,14,Improv_Melody,11,9999,9999,9999,2523663456
2024,14,Improv_Melody,12,9999,9999,9999,2524163156
2024,14,Improv_Melody,13,9999,9999,9999,2524663908
2024,14,Improv_Melody,14,9999,9999,9999,2525163608
2024,14,Improv_Melody,15,9999,9999,9999,2525663312
2024,14,Improv_Melody,16,9999,9999,9999,2526164060
2024,14,Improv_Melody,17,9999,9999,9999,2526663776
2024,14,Improv_Melody,18,9999,9999,9999,2527163480
2024,14,Improv_Melody,19,9999,9999,9999,2527663184
2024,14,Improv_Melody,20,9999,9999,9999,2528163928
2024,14,Improv_Melody,21,9999,9999,9999,2528663632
2024,14,Improv_Melody,22,9999,9999,9999,2529163336
2024,14,Improv_Melody,23,9999,9999,9999,2529664084
2024,14,Improv_Melody,24,9999,9999,9999,2530163788
2024,14,Improv_Melody,25,9999,9999,9999,2530663504
2024,14,Improv_Melody,26,9999,9999,9999,2531163256
2024,14,Improv_Melody,27,9999,9999,9999,2531663980
2024,14,Improv_Melody,28,9999,9999,9999,2532163676
2024,14,Improv_Melody,29,9999,9999,9999,2532663364
2024,14,Improv_Melody,30,9999,9999,9999,2533163120
2024,14,Improv_Melody,31,9999,9999,9999,2533663848
2024,14,Improv_Melody,32,9999,9999,9999,2534163528
2024,14,Improv_Melody,33,9999,9999,9999,2534663224
2024,14,Improv_Melody,34,9999,9999,9999,2535164024
2024,14,Improv_Melody,35,9999,9999,9999,2535663704
2024,14,Improv_Melody,36,9999,9999,9999,2536163388
2024,14,Improv_Melody,37,9999,9999,9999,2536663144
2024,14,Improv_Melody,38,9999,9999,9999,2537163868
2024,14,Improv_Melody,39,9999,9999,9999,2537663548
2024,14,Improv_Melody,40,9999,9999,9999,2538163308
2024,14,Improv_Melody,41,9999,9999,9999,2538664000
2024,14,Improv_Melody,42,9999,9999,9999,2539163752
2024,14,Improv_Melody,43,9999,9999,9999,2539663440
2024,14,Improv_Melody,44,9999,9999,9999,2540163168
2024,14,Improv_Melody,45,9999,9999,9999,2540663872
2024,14,Improv_Melody,46,9999,9999,9999,2541163596
2024,14,Improv_Melody,47,9999,9999,9999,2541663280
2024,14,Improv_Melody,48,9999,9999,9999,2542164040
2024,14,Improv_Melody,49,9999,9999,9999,2542663784
2024,14,Improv_Melody,50,9999,9999,9999,2543163460
2024,14,Improv_Melody,51,9999,9999,9999,2543663216
2024,14,Improv_Melody,52,9999,9999,9999,2544163948
2024,14,Improv_Melody,53,9999,9999,9999,2544663660
2024,14,Improv_Melody,54,9999,9999,9999,2545163336
2024,14,Improv_Melody,55,9999,9999,9999,2545664064
2024,14,Improv_Melody,56,9999,9999,9999,2546163796
2024,14,Improv_Melody,57,9999,9999,9999,2546663536
2024,14,Improv_Melody,58,9999,9999,9999,2547163220
2024,14,Improv_Melody,59,9999,9999,9999,2547663948
2024,14,Improv_Melody,60,9999,9999,9999,2548163704
2024,14,Improv_Melody,61,9999,9999,9999,2548663388
2024,14,Improv_Melody,62,9999,9999,9999,2549163128
2024,14,Improv_Melody,63,9999,9999,9999,2549663852
2024,14,Improv_Melody,64,9999,9999,9999,2550163508
2024,14,Improv_Melody,65,9999,9999,9999,2550663284
2024,14,Improv_Melody,66,9999,9999,9999,2551164008
2024,14,Improv_Melody,67,9999,9999,9999,2551663708
2024,14,Improv_Melody,68,9999,9999,9999,2552163388
2024,14,Improv_Melody,69,9999,9999,9999,2552663100
2024,14,Improv_Melody,70,9999,9999,9999,2553163872
2024,14,Improv_Melody,71,9999,9999,9999,2553663552
2024,14,Improv_Melody,72,9999,9999,9999,2554163308
2024,14,Improv_Melody,73,9999,9999,9999,2554664028
2024,14,Improv_Melody,74,9999,9999,9999,2555163756
2024,14,Improv_Melody,75,9999,9999,9999,2555663440
2024,14,Improv_Melody,76,9999,9999,9999,2556163128
2024,14,Improv_Melody,77,9999,9999,9999,2556663904
2024,14,Improv_Melody,78,9999,9999,9999,2557163628
2024,14,Improv_Melody,79,9999,9999,9999,2557663312
2024,14,Improv_Melody,80,9999,9999,9999,2558164044
2024,14,Improv_Melody,81,9999,9999,9999,2558663788
2024,14,Improv_Melody,82,9999,9999,9999,2559163472
2024,14,Improv_Melody,83,9999,9999,9999,2559663204
2024,14,Improv_Melody,84,9999,9999,9999,2560163892
2024,14,Improv_Melody,85,9999,9999,9999,2560663644
2024,14,Improv_Melody,86,9999,9999,9999,2561163376
2024,14,Improv_Melody,87,9999,9999,9999,2561664112
2024,14,Improv_Melody,88,9999,9999,9999,2562163768
2024,14,Improv_Melody,89,9999,9999,9999,2562663500
2024,14,Improv_Melody,90,9999,9999,9999,2563163256
2024,14,Improv_Melody,91,9999,9999,9999,2563663932
2024,14,Improv_Melody,92,9999,9999,9999,2564163692
2024,14,Improv_Melody,93,9999,9999,9999,2564663408
2024,14,Improv_Melody,94,9999,9999,9999,2565163088
2024,14,Improv_Melody,95,9999,9999,9999,2565663792
2024,14,Improv_Melody,96,9999,9999,9999,2566163560
2024,14,Improv_Melody,97,9999,9999,9999,2566663256
2024,14,Improv_Melody,98,9999,9999,9999,2567164012
2024,14,Improv_Melody,99,9999,9999,9999,2567663708
2024,14,Improv_Melody,100,9999,9999,9999,2568163428
2024,14,Improv_Melody,101,9999,9999,9999,2568663108
2024,14,Improv_Melody,102,9999,9999,9999,2569163880
2024,14,Improv_Melody,103,9999,9999,9999,2569663548
2024,14,Improv_Melody,104,9999,9999,9999,2570163276
2024,14,Improv_Melody,105,9999,9999,9999,2570664008
2024,14,Improv_Melody,106,9999,9999,9999,2571163764
2024,14,Improv_Melody,107,9999,9999,9999,2571663420
2024,14,Improv_Melody,108,9999,9999,9999,2572163172
2024,14,Improv_Melody,109,9999,9999,9999,2572663860
2024,14,Improv_Melody,110,9999,9999,9999,2573163596
2024,14,Improv_Melody,111,9999,9999,9999,2573663324
2024,14,Improv_Melody,112,9999,9999,9999,2574164088
2024,14,Improv_Melody,113,9999,9999,9999,2574663772
2024,14,Improv_Melody,114,9999,9999,9999,2575163508
2024,14,Improv_Melody,115,9999,9999,9999,2575663184
2024,14,Improv_Melody,116,9999,9999,9999,2576163888
2024,14,Improv_Melody,117,9999,9999,9999,2576663648
2024,14,Improv_Melody,118,9999,9999,9999,2577163364
2024,14,Improv_Melody,119,9999,9999,9999,2577664120
2024,14,Improv_Melody,120,9999,9999,9999,2578163772
2024,14,Improv_Melody,121,9999,9999,9999,2578663504
2024,14,Improv_Melody,122,9999,9999,9999,2579163252
2024,14,Improv_Melody,123,9999,9999,9999,2579663920
2024,14,Improv_Melody,124,9999,9999,9999,2580163676
2024,14,Improv_Melody,125,9999,9999,9999,2580663352
2024,14,Improv_Melody,126,9999,9999,9999,2581163112
2024,14,Improv_Melody,127,9999,9999,9999,2581663796
2024,14,Improv_Melody,128,9999,9999,9999,2582163552
2024,14,Improv_Melody,129,9999,9999,9999,2582663240
2024,14,Improv_Melody,130,9999,9999,9999,2583163952
2024,14,Improv_Melody,131,9999,9999,9999,2583663716
2024,14,Improv_Melody,132,9999,9999,9999,2584163444
2024,14,Improv_Melody,133,9999,9999,9999,2584663104
2024,14,Improv_Melody,134,9999,9999,9999,2585163880
2024,14,Improv_Melody,135,9999,9999,9999,2585663560
2024,14,Improv_Melody,136,9999,9999,9999,2586163316
2024,14,Improv_Melody,137,9999,9999,9999,2586664056
2024,14,Improv_Melody,138,9999,9999,9999,2587163752
2024,14,Improv_Melody,139,9999,9999,9999,2587663444
2024,14,Improv_Melody,140,9999,9999,9999,2588163124
2024,14,Improv_Melody,141,9999,9999,9999,2588663924
2024,14,Improv_Melody,142,9999,9999,9999,2589163608
2024,14,Improv_Melody,143,9999,9999,9999,2589663316
2024,14,Improv_Melody,144,9999,9999,9999,2590164072
2024,14,Improv_Melody,145,9999,9999,9999,2590663764
2024,14,Improv_Melody,146,9999,9999,9999,2591163448
2024,14,Improv_Melody,147,9999,9999,9999,2591663220
2024,14,Improv_Melody,148,9999,9999,9999,2592163928
2024,14,Improv_Melody,149,9999,9999,9999,2592663660
2024,14,Improv_Melody,150,9999,9999,9999,2593163344
2024,14,Improv_Melody,151,9999,9999,9999,2593664072
2024,14,Improv_Melody,152,9999,9999,9999,2594163780
2024,14,Improv_Melody,153,9999,9999,9999,2594663472
2024,14,Improv_Melody,154,9999,9999,9999,2595163228
2024,14,Improv_Melody,155,9999,9999,9999,2595663932
2024,14,Improv_Melody,156,9999,9999,9999,2596163688
2024,14,Improv_Melody,157,9999,9999,9999,2596663372
2024,14,Improv_Melody,158,9999,9999,9999,2597163124
2024,14,Improv_Melody,159,9999,9999,9999,2597663804
2024,14,Improv_Melody,160,9999,9999,9999,2598163564
2024,14,Improv_Melody,161,9999,9999,9999,2598663288
20