taskRunCount,taskID,taskName,i,channel,pitch,velocity,microseconds
1,1,Ticks_Pract_5,0,5,42,127,93773152
1,1,Ticks_Pract_5,1,5,42,127,94273088
1,1,Ticks_Pract_5,2,5,42,127,94772584
1,1,Ticks_Pract_5,3,5,42,127,95273344
1,1,Ticks_Pract_5,4,5,42,127,95773136
1,1,Ticks_Pract_5,5,1,48,22,95781492
1,1,Ticks_Pract_5,6,1,48,38,96271016
1,1,Ticks_Pract_5,7,5,42,127,96272824
1,1,Ticks_Pract_5,8,5,42,127,96772528
1,1,Ticks_Pract_5,9,1,48,38,96788960
1,1,Ticks_Pract_5,10,1,48,40,97239200
1,1,Ticks_Pract_5,11,5,42,127,97273260
1,1,Ticks_Pract_5,12,5,42,127,97773112
1,1,Ticks_Pract_5,13,1,48,42,97790000
1,1,Ticks_Pract_5,14,1,48,38,98262444
1,1,Ticks_Pract_5,15,5,42,127,98272796
1,1,Ticks_Pract_5,16,1,48,35,98754060
1,1,Ticks_Pract_5,17,5,42,127,98773392
1,1,Ticks_Pract_5,18,1,48,44,99266096
1,1,Ticks_Pract_5,19,5,42,127,99272936
1,1,Ticks_Pract_5,20,1,48,38,99756148
1,1,Ticks_Pract_5,21,5,42,127,99772856
1,1,Ticks_Pract_5,22,1,48,31,100244544
1,1,Ticks_Pract_5,23,5,42,127,100272476
1,1,Ticks_Pract_5,24,1,48,41,100765856
1,1,Ticks_Pract_5,25,5,42,127,100773292
1,1,Ticks_Pract_5,26,5,42,127,101272844
1,1,Ticks_Pract_5,27,1,48,41,101283896
1,1,Ticks_Pract_5,28,1,48,40,101745724
1,1,Ticks_Pract_5,29,5,42,127,101772908
1,1,Ticks_Pract_5,30,5,42,127,102273356
1,1,Ticks_Pract_5,31,1,48,43,102299140
1,1,Ticks_Pract_5,32,1,48,41,102759848
1,1,Ticks_Pract_5,33,5,42,127,102773044
1,1,Ticks_Pract_5,34,1,48,40,103271000
1,1,Ticks_Pract_5,35,5,42,127,103272736
1,1,Ticks_Pract_5,36,5,42,127,103772588
1,1,Ticks_Pract_5,37,1,48,45,103775264
1,1,Ticks_Pract_5,38,5,42,127,104273160
1,1,Ticks_Pract_5,39,1,48,44,104279348
1,1,Ticks_Pract_5,40,1,48,46,104743340
1,1,Ticks_Pract_5,41,5,42,127,104772844
1,1,Ticks_Pract_5,42,5,42,127,105272772
1,1,Ticks_Pract_5,43,1,48,40,105273736
1,1,Ticks_Pract_5,44,1,48,46,105761356
1,1,Ticks_Pract_5,45,5,42,127,105773656
1,1,Ticks_Pract_5,46,1,48,44,106254312
1,1,Ticks_Pract_5,47,5,42,127,106273124
1,1,Ticks_Pract_5,48,1,48,54,106730224
1,1,Ticks_Pract_5,49,5,42,127,106772820
1,1,Ticks_Pract_5,50,1,48,43,107260660
1,1,Ticks_Pract_5,51,5,42,127,107272512
1,1,Ticks_Pract_5,52,5,42,127,107773412
1,1,Ticks_Pract_5,53,1,48,41,107775348
1,1,Ticks_Pract_5,54,1,48,46,108268204
1,1,Ticks_Pract_5,55,5,42,127,108273024
1,1,Ticks_Pract_5,56,5,42,127,108772800
1,1,Ticks_Pract_5,57,1,48,41,108786312
1,1,Ticks_Pract_5,58,1,48,43,109271288
1,1,Ticks_Pract_5,59,5,42,127,109273008
1,1,Ticks_Pract_5,60,5,42,127,109773384
1,1,Ticks_Pract_5,61,1,48,35,109778452
1,1,Ticks_Pract_5,62,1,48,42,110239980
1,1,Ticks_Pract_5,63,5,42,127,110272772
1,1,Ticks_Pract_5,64,5,42,127,110772552
1,1,Ticks_Pract_5,65,1,48,40,110776572
1,1,Ticks_Pract_5,66,5,42,127,111273516
1,1,Ticks_Pract_5,67,1,48,40,111317628
1,1,Ticks_Pract_5,68,1,48,42,111772840
1,1,Ticks_Pract_5,69,5,42,127,111774472
1,1,Ticks_Pract_5,70,5,42,127,112272684
1,1,Ticks_Pract_5,71,1,48,39,112287924
1,1,Ticks_Pract_5,72,5,42,127,112772452
1,1,Ticks_Pract_5,73,1,48,35,112785144
1,1,Ticks_Pract_5,74,1,48,46,113231992
1,1,Ticks_Pract_5,75,5,42,127,113273412
1,1,Ticks_Pract_5,0,9999,9999,9999,9999,93770864
1,1,Ticks_Pract_5,1,9999,9999,9999,9999,94270580
1,1,Ticks_Pract_5,2,9999,9999,9999,9999,94770296
1,1,Ticks_Pract_5,3,9999,9999,9999,9999,95270984
1,1,Ticks_Pract_5,4,9999,9999,9999,9999,95770700
1,1,Ticks_Pract_5,5,9999,9999,9999,9999,96270404
1,1,Ticks_Pract_5,6,9999,9999,9999,9999,96770164
1,1,Ticks_Pract_5,7,9999,9999,9999,9999,97270900
1,1,Ticks_Pract_5,8,9999,9999,9999,9999,97770600
1,1,Ticks_Pract_5,9,9999,9999,9999,9999,98270288
1,1,Ticks_Pract_5,10,9999,9999,9999,9999,98771032
1,1,Ticks_Pract_5,11,9999,9999,9999,9999,99270728
1,1,Ticks_Pract_5,12,9999,9999,9999,9999,99770420
1,1,Ticks_Pract_5,13,9999,9999,9999,9999,100270192
1,1,Ticks_Pract_5,14,9999,9999,9999,9999,100770932
1,1,Ticks_Pract_5,15,9999,9999,9999,9999,101270632
1,1,Ticks_Pract_5,16,9999,9999,9999,9999,101770320
1,1,Ticks_Pract_5,17,9999,9999,9999,9999,102271068
1,1,Ticks_Pract_5,18,9999,9999,9999,9999,102770756
1,1,Ticks_Pract_5,19,9999,9999,9999,9999,103270476
1,1,Ticks_Pract_5,20,9999,9999,9999,9999,103770228
1,1,Ticks_Pract_5,21,9999,9999,9999,9999,104270948
1,1,Ticks_Pract_5,22,9999,9999,9999,9999,104770636
1,1,Ticks_Pract_5,23,9999,9999,9999,9999,105270336
1,1,Ticks_Pract_5,24,9999,9999,9999,9999,105771072
1,1,Ticks_Pract_5,25,9999,9999,9999,9999,106270840
1,1,Ticks_Pract_5,26,9999,9999,9999,9999,106770532
1,1,Ticks_Pract_5,27,9999,9999,9999,9999,107270228
1,1,Ticks_Pract_5,28,9999,9999,9999,9999,107770976
1,1,Ticks_Pract_5,29,9999,9999,9999,9999,108270664
1,1,Ticks_Pract_5,30,9999,9999,9999,9999,108770364
1,1,Ticks_Pract_5,31,9999,9999,9999,9999,109270132
1,1,Ticks_Pract_5,32,9999,9999,9999,9999,109770800
1,1,Ticks_Pract_5,33,9999,9999,9999,9999,110270560
1,1,Ticks_Pract_5,34,9999,9999,9999,9999,110770264
1,1,Ticks_Pract_5,35,9999,9999,9999,9999,111271008
1,1,Ticks_Pract_5,36,9999,9999,9999,9999,111770700
1,1,Ticks_Pract_5,37,9999,9999,9999,9999,112270396
1,1,Ticks_Pract_5,38,9999,9999,9999,9999,112770168
1,1,Ticks_Pract_5,39,9999,9999,9999,9999,113270904
2,0,Ticks_Pract_8,0,5,42,127,125405480
2,0,Ticks_Pract_8,1,5,42,127,126206432
2,0,Ticks_Pract_8,2,5,42,127,127005964
2,0,Ticks_Pract_8,3,5,42,127,127805796
2,0,Ticks_Pract_8,4,1,48,45,128580684
2,0,Ticks_Pract_8,5,5,42,127,128605644
2,0,Ticks_Pract_8,6,5,42,127,129406504
2,0,Ticks_Pract_8,7,1,48,49,129412172
2,0,Ticks_Pract_8,8,5,42,127,130206164
2,0,Ticks_Pract_8,9,1,48,39,130220208
2,0,Ticks_Pract_8,10,1,48,42,131004232
2,0,Ticks_Pract_8,11,5,42,127,131005892
2,0,Ticks_Pract_8,12,5,42,127,131805484
2,0,Ticks_Pract_8,13,1,48,48,131851464
2,0,Ticks_Pract_8,14,5,42,127,132606260
2,0,Ticks_Pract_8,15,1,48,42,132628304
2,0,Ticks_Pract_8,16,1,48,43,133387632
2,0,Ticks_Pract_8,17,5,42,127,133405912
2,0,Ticks_Pract_8,18,5,42,127,134205652
2,0,Ticks_Pract_8,19,1,48,46,134210720
2,0,Ticks_Pract_8,20,5,42,127,135005488
2,0,Ticks_Pract_8,21,1,48,38,135027680
2,0,Ticks_Pract_8,22,5,42,127,135806488
2,0,Ticks_Pract_8,23,1,48,37,135813352
2,0,Ticks_Pract_8,24,1,48,32,136604256
2,0,Ticks_Pract_8,25,5,42,127,136606068
2,0,Ticks_Pract_8,26,5,42,127,137405736
2,0,Ticks_Pract_8,27,1,48,38,137413720
2,0,Ticks_Pract_8,28,5,42,127,138205468
2,0,Ticks_Pract_8,29,1,48,40,138228556
2,0,Ticks_Pract_8,30,5,42,127,139006248
2,0,Ticks_Pract_8,31,1,48,44,139020212
2,0,Ticks_Pract_8,32,5,42,127,139806132
2,0,Ticks_Pract_8,33,1,48,44,139808808
2,0,Ticks_Pract_8,34,5,42,127,140605788
2,0,Ticks_Pract_8,35,1,48,41,140614672
2,0,Ticks_Pract_8,36,1,48,44,141402296
2,0,Ticks_Pract_8,37,5,42,127,141405540
2,0,Ticks_Pract_8,38,5,42,127,142206256
2,0,Ticks_Pract_8,39,1,48,44,142210500
2,0,Ticks_Pract_8,40,5,42,127,143006064
2,0,Ticks_Pract_8,41,1,48,45,143012400
2,0,Ticks_Pract_8,42,5,42,127,143805872
2,0,Ticks_Pract_8,43,1,48,42,143808992
2,0,Ticks_Pract_8,44,5,42,127,144605532
2,0,Ticks_Pract_8,45,1,48,42,144609328
2,0,Ticks_Pract_8,46,5,42,127,145406460
2,0,Ticks_Pract_8,47,1,48,38,145448104
2,0,Ticks_Pract_8,48,5,42,127,146206192
2,0,Ticks_Pract_8,49,1,48,45,146208792
2,0,Ticks_Pract_8,50,1,48,43,146989136
2,0,Ticks_Pract_8,51,5,42,127,147005772
2,0,Ticks_Pract_8,52,5,42,127,147805832
2,0,Ticks_Pract_8,53,1,48,38,147829524
2,0,Ticks_Pract_8,54,5,42,127,148606168
2,0,Ticks_Pract_8,55,1,48,41,148644144
2,0,Ticks_Pract_8,0,9999,9999,9999,9999,125403192
2,0,Ticks_Pract_8,1,9999,9999,9999,9999,126203996
2,0,Ticks_Pract_8,2,9999,9999,9999,9999,127003752
2,0,Ticks_Pract_8,3,9999,9999,9999,9999,127803508
2,0,Ticks_Pract_8,4,9999,9999,9999,9999,128603208
2,0,Ticks_Pract_8,5,9999,9999,9999,9999,129403992
2,0,Ticks_Pract_8,6,9999,9999,9999,9999,130203724
2,0,Ticks_Pract_8,7,9999,9999,9999,9999,131003460
2,0,Ticks_Pract_8,8,9999,9999,9999,9999,131803192
2,0,Ticks_Pract_8,9,9999,9999,9999,9999,132603972
2,0,Ticks_Pract_8,10,9999,9999,9999,9999,133403700
2,0,Ticks_Pract_8,11,9999,9999,9999,9999,134203440
2,0,Ticks_Pract_8,12,9999,9999,9999,9999,135003196
2,0,Ticks_Pract_8,13,9999,9999,9999,9999,135803980
2,0,Ticks_Pract_8,14,9999,9999,9999,9999,136603732
2,0,Ticks_Pract_8,15,9999,9999,9999,9999,137403448
2,0,Ticks_Pract_8,16,9999,9999,9999,9999,138203252
2,0,Ticks_Pract_8,17,9999,9999,9999,9999,139003960
2,0,Ticks_Pract_8,18,9999,9999,9999,9999,139803696
2,0,Ticks_Pract_8,19,9999,9999,9999,9999,140603500
2,0,Ticks_Pract_8,20,9999,9999,9999,9999,141403252
2,0,Ticks_Pract_8,21,9999,9999,9999,9999,142203968
2,0,Ticks_Pract_8,22,9999,9999,9999,9999,143003700
2,0,Ticks_Pract_8,23,9999,9999,9999,9999,143803508
2,0,Ticks_Pract_8,24,9999,9999,9999,9999,144603240
2,0,Ticks_Pract_8,25,9999,9999,9999,9999,145404020
2,0,Ticks_Pract_8,26,9999,9999,9999,9999,146203756
2,0,Ticks_Pract_8,27,9999,9999,9999,9999,147003484
2,0,Ticks_Pract_8,28,9999,9999,9999,9999,147803248
2,0,Ticks_Pract_8,29,9999,9999,9999,9999,148603956
3,4,T1_SMS_5,0,5,42,127,215024972
3,4,T1_SMS_5,1,5,42,127,215524912
3,4,T1_SMS_5,2,5,42,127,216024332
3,4,T1_SMS_5,3,5,42,127,216525244
3,4,T1_SMS_5,4,5,42,127,217024960
3,4,T1_SMS_5,5,1,48,50,217058376
3,4,T1_SMS_5,6,1,48,48,217517660
3,4,T1_SMS_5,7,5,42,127,217524720
3,4,T1_SMS_5,8,1,48,46,218015256
3,4,T1_SMS_5,9,5,42,127,218025464
3,4,T1_SMS_5,10,1,48,47,218516752
3,4,T1_SMS_5,11,5,42,127,218525084
3,4,T1_SMS_5,12,1,48,48,219019588
3,4,T1_SMS_5,13,5,42,127,219024708
3,4,T1_SMS_5,14,5,42,127,219524628
3,4,T1_SMS_5,15,1,48,44,219527076
3,4,T1_SMS_5,16,1,48,41,220023944
3,4,T1_SMS_5,17,5,42,127,220025736
3,4,T1_SMS_5,18,1,48,46,220512980
3,4,T1_SMS_5,19,5,42,127,220524836
3,4,T1_SMS_5,20,1,48,45,221015816
3,4,T1_SMS_5,21,5,42,127,221024604
3,4,T1_SMS_5,22,1,48,47,221522696
3,4,T1_SMS_5,23,5,42,127,221525644
3,4,T1_SMS_5,24,5,42,127,222025024
3,4,T1_SMS_5,25,1,48,51,222041632
3,4,T1_SMS_5,26,1,48,46,222518324
3,4,T1_SMS_5,27,5,42,127,222524784
3,4,T1_SMS_5,28,1,48,46,222985700
3,4,T1_SMS_5,29,5,42,127,223024628
3,4,T1_SMS_5,30,5,42,127,223525300
3,4,T1_SMS_5,31,1,48,43,223532164
3,4,T1_SMS_5,32,1,48,41,224013736
3,4,T1_SMS_5,33,5,42,127,224024988
3,4,T1_SMS_5,34,5,42,127,224524616
3,4,T1_SMS_5,35,1,48,43,224539856
3,4,T1_SMS_5,36,1,48,43,225012980
3,4,T1_SMS_5,37,5,42,127,225025500
3,4,T1_SMS_5,38,1,48,45,225523612
3,4,T1_SMS_5,39,5,42,127,225525492
3,4,T1_SMS_5,40,5,42,127,226024676
3,4,T1_SMS_5,41,1,48,49,226031308
3,4,T1_SMS_5,42,5,42,127,226524492
3,4,T1_SMS_5,43,1,48,54,226533748
3,4,T1_SMS_5,44,1,48,35,227006800
3,4,T1_SMS_5,45,5,42,127,227025376
3,4,T1_SMS_5,46,1,48,46,227505964
3,4,T1_SMS_5,47,5,42,127,227524996
3,4,T1_SMS_5,48,5,42,127,228024624
3,4,T1_SMS_5,49,1,48,35,228039940
3,4,T1_SMS_5,50,1,48,36,228508948
3,4,T1_SMS_5,51,5,42,127,228525360
3,4,T1_SMS_5,52,1,48,40,228990616
3,4,T1_SMS_5,53,5,42,127,229025204
3,4,T1_SMS_5,54,5,42,127,229524832
3,4,T1_SMS_5,55,1,48,43,229534984
3,4,T1_SMS_5,56,1,48,48,230020072
3,4,T1_SMS_5,57,5,42,127,230024744
3,4,T1_SMS_5,58,1,48,39,230510492
3,4,T1_SMS_5,59,5,42,127,230525336
3,4,T1_SMS_5,60,1,48,43,231022844
3,4,T1_SMS_5,61,5,42,127,231025256
3,4,T1_SMS_5,62,1,48,45,231519536
3,4,T1_SMS_5,63,5,42,127,231524728
3,4,T1_SMS_5,64,5,42,127,232024356
3,4,T1_SMS_5,65,1,48,44,232028600
3,4,T1_SMS_5,66,5,42,127,232525148
3,4,T1_SMS_5,67,1,48,41,232531060
3,4,T1_SMS_5,68,1,48,41,233022868
3,4,T1_SMS_5,69,5,42,127,233024908
3,4,T1_SMS_5,70,5,42,127,233524536
3,4,T1_SMS_5,71,1,48,46,233528252
3,4,T1_SMS_5,72,1,48,36,234021124
3,4,T1_SMS_5,73,5,42,127,234025268
3,4,T1_SMS_5,74,1,48,36,234511620
3,4,T1_SMS_5,75,5,42,127,234525188
3,4,T1_SMS_5,76,1,48,35,235009744
3,4,T1_SMS_5,77,5,42,127,235024960
3,4,T1_SMS_5,78,1,48,44,235519984
3,4,T1_SMS_5,79,5,42,127,235524432
3,4,T1_SMS_5,80,1,48,39,236013920
3,4,T1_SMS_5,81,5,42,127,236025172
3,4,T1_SMS_5,82,1,48,37,236509504
3,4,T1_SMS_5,83,5,42,127,236524868
3,4,T1_SMS_5,84,1,48,45,237010616
3,4,T1_SMS_5,85,5,42,127,237024640
3,4,T1_SMS_5,86,5,42,127,237525312
3,4,T1_SMS_5,87,1,48,37,237541896
3,4,T1_SMS_5,88,5,42,127,238025008
3,4,T1_SMS_5,89,1,48,45,238026492
3,4,T1_SMS_5,90,5,42,127,238524924
3,4,T1_SMS_5,91,1,48,42,238528344
3,4,T1_SMS_5,92,1,48,46,239017028
3,4,T1_SMS_5,93,5,42,127,239024392
3,4,T1_SMS_5,94,5,42,127,239525360
3,4,T1_SMS_5,95,1,48,44,239528856
3,4,T1_SMS_5,96,1,48,47,240006696
3,4,T1_SMS_5,97,5,42,127,240024900
3,4,T1_SMS_5,98,1,48,40,240516192
3,4,T1_SMS_5,99,5,42,127,240524820
3,4,T1_SMS_5,100,5,42,127,241025492
3,4,T1_SMS_5,101,1,48,42,241036624
3,4,T1_SMS_5,102,1,48,42,241513180
3,4,T1_SMS_5,103,5,42,127,241525036
3,4,T1_SMS_5,104,5,42,127,242024884
3,4,T1_SMS_5,105,1,48,48,242026524
3,4,T1_SMS_5,106,5,42,127,242524580
3,4,T1_SMS_5,107,1,48,46,242531368
3,4,T1_SMS_5,108,1,48,43,243021616
3,4,T1_SMS_5,109,5,42,127,243025240
3,4,T1_SMS_5,110,1,48,42,243522632
3,4,T1_SMS_5,111,5,42,127,243525132
3,4,T1_SMS_5,112,1,48,43,244021356
3,4,T1_SMS_5,113,5,42,127,244024752
3,4,T1_SMS_5,114,1,48,49,244520600
3,4,T1_SMS_5,115,5,42,127,244525568
3,4,T1_SMS_5,116,5,42,127,245025044
3,4,T1_SMS_5,117,1,48,42,245041408
3,4,T1_SMS_5,118,1,48,44,245520440
3,4,T1_SMS_5,119,5,42,127,245524736
3,4,T1_SMS_5,120,1,48,42,246021332
3,4,T1_SMS_5,121,5,42,127,246024504
3,4,T1_SMS_5,122,5,42,127,246525548
3,4,T1_SMS_5,123,1,48,40,246532856
3,4,T1_SMS_5,124,1,48,44,246998132
3,4,T1_SMS_5,125,5,42,127,247024940
3,4,T1_SMS_5,126,1,48,40,247524492
3,4,T1_SMS_5,127,5,42,127,247526052
3,4,T1_SMS_5,128,1,48,40,248011060
3,4,T1_SMS_5,129,5,42,127,248024552
3,4,T1_SMS_5,130,5,42,127,248525448
3,4,T1_SMS_5,131,1,48,47,248533580
3,4,T1_SMS_5,132,5,42,127,249024848
3,4,T1_SMS_5,133,1,48,45,249033804
3,4,T1_SMS_5,134,5,42,127,249524540
3,4,T1_SMS_5,135,1,48,44,249526100
3,4,T1_SMS_5,136,5,42,127,250025432
3,4,T1_SMS_5,137,1,48,26,250032592
3,4,T1_SMS_5,138,1,48,34,250514468
3,4,T1_SMS_5,139,5,42,127,250525120
3,4,T1_SMS_5,140,1,48,34,251007876
3,4,T1_SMS_5,141,5,42,127,251024668
3,4,T1_SMS_5,142,1,48,26,251498672
3,4,T1_SMS_5,143,5,42,127,251524436
3,4,T1_SMS_5,144,1,48,38,252008692
3,4,T1_SMS_5,145,5,42,127,252025324
3,4,T1_SMS_5,146,5,42,127,252524804
3,4,T1_SMS_5,147,1,48,37,252528972
3,4,T1_SMS_5,148,1,48,39,253006960
3,4,T1_SMS_5,149,5,42,127,253025012
3,4,T1_SMS_5,150,5,42,127,253525392
3,4,T1_SMS_5,151,1,48,25,253530004
3,4,T1_SMS_5,152,1,48,42,253995252
3,4,T1_SMS_5,153,5,42,127,254025200
3,4,T1_SMS_5,154,5,42,127,254524756
3,4,T1_SMS_5,155,1,48,35,254532664
3,4,T1_SMS_5,156,5,42,127,255024376
3,4,T1_SMS_5,157,1,48,40,255031536
3,4,T1_SMS_5,158,1,48,38,255518048
3,4,T1_SMS_5,159,5,42,127,255525184
3,4,T1_SMS_5,160,1,48,39,255998592
3,4,T1_SMS_5,161,5,42,127,256025176
3,4,T1_SMS_5,162,1,48,41,256508608
3,4,T1_SMS_5,163,5,42,127,256524572
3,4,T1_SMS_5,164,5,42,127,257025324
3,4,T1_SMS_5,165,1,48,43,257047516
3,4,T1_SMS_5,166,5,42,127,257525092
3,4,T1_SMS_5,167,1,48,41,257544068
3,4,T1_SMS_5,168,1,48,42,258009712
3,4,T1_SMS_5,169,5,42,127,258024928
3,4,T1_SMS_5,170,1,48,44,258499160
3,4,T1_SMS_5,171,5,42,127,258524476
3,4,T1_SMS_5,172,5,42,127,259025376
3,4,T1_SMS_5,173,1,48,36,259042180
3,4,T1_SMS_5,174,1,48,42,259499968
3,4,T1_SMS_5,175,5,42,127,259525136
3,4,T1_SMS_5,176,5,42,127,260024688
3,4,T1_SMS_5,177,1,48,34,260064388
3,4,T1_SMS_5,178,5,42,127,260525284
3,4,T1_SMS_5,179,1,48,41,260528924
3,4,T1_SMS_5,180,5,42,127,261025128
3,4,T1_SMS_5,181,1,48,35,261028548
3,4,T1_SMS_5,182,5,42,127,261524900
3,4,T1_SMS_5,183,1,48,31,261531308
3,4,T1_SMS_5,184,1,48,35,262021188
3,4,T1_SMS_5,185,5,42,127,262024956
3,4,T1_SMS_5,186,5,42,127,262525184
3,4,T1_SMS_5,187,1,48,33,262526672
3,4,T1_SMS_5,188,1,48,43,263012048
3,4,T1_SMS_5,189,5,42,127,263025024
3,4,T1_SMS_5,190,5,42,127,263524872
3,4,T1_SMS_5,191,1,48,43,263541084
3,4,T1_SMS_5,192,1,48,40,264016376
3,4,T1_SMS_5,193,5,42,127,264024340
3,4,T1_SMS_5,194,5,42,127,264525088
3,4,T1_SMS_5,195,1,48,34,264535008
3,4,T1_SMS_5,196,1,48,33,265012000
3,4,T1_SMS_5,197,5,42,127,265024824
3,4,T1_SMS_5,198,1,48,38,265490828
3,4,T1_SMS_5,199,5,42,127,265524744
3,4,T1_SMS_5,200,5,42,127,266025268
3,4,T1_SMS_5,201,1,48,26,266080400
3,4,T1_SMS_5,202,5,42,127,266524964
3,4,T1_SMS_5,203,1,48,25,266549776
3,4,T1_SMS_5,204,5,42,127,267024732
3,4,T1_SMS_5,205,1,48,30,267042888
3,4,T1_SMS_5,206,5,42,127,267524576
3,4,T1_SMS_5,207,1,48,33,267543548
3,4,T1_SMS_5,208,1,48,35,267984140
3,4,T1_SMS_5,209,5,42,127,268025308
3,4,T1_SMS_5,210,1,48,37,268521832
3,4,T1_SMS_5,211,5,42,127,268524928
3,4,T1_SMS_5,212,1,48,40,269021800
3,4,T1_SMS_5,213,5,42,127,269024524
3,4,T1_SMS_5,214,5,42,127,269525424
3,4,T1_SMS_5,215,1,48,38,269543348
3,4,T1_SMS_5,216,1,48,35,270021788
3,4,T1_SMS_5,217,5,42,127,270025036
3,4,T1_SMS_5,218,1,48,31,270513552
3,4,T1_SMS_5,219,5,42,127,270524880
3,4,T1_SMS_5,220,1,48,29,271020432
3,4,T1_SMS_5,221,5,42,127,271024576
3,4,T1_SMS_5,222,1,48,33,271510024
3,4,T1_SMS_5,223,5,42,127,271525168
3,4,T1_SMS_5,224,5,42,127,272024944
3,4,T1_SMS_5,225,1,48,37,272060528
3,4,T1_SMS_5,226,1,48,38,272513304
3,4,T1_SMS_5,227,5,42,127,272524632
3,4,T1_SMS_5,228,1,48,38,273025380
3,4,T1_SMS_5,229,5,42,127,273026944
3,4,T1_SMS_5,230,5,42,127,273525300
3,4,T1_SMS_5,231,1,48,33,273530516
3,4,T1_SMS_5,232,1,48,34,273999376
3,4,T1_SMS_5,233,5,42,127,274024764
3,4,T1_SMS_5,234,5,42,127,274524468
3,4,T1_SMS_5,235,1,48,40,274538280
3,4,T1_SMS_5,236,1,48,41,275013548
3,4,T1_SMS_5,237,5,42,127,275025424
3,4,T1_SMS_5,238,1,48,41,275508904
3,4,T1_SMS_5,239,5,42,127,275525092
3,4,T1_SMS_5,240,5,42,127,276024648
3,4,T1_SMS_5,241,1,48,35,276036588
3,4,T1_SMS_5,242,1,48,32,276512336
3,4,T1_SMS_5,243,5,42,127,276525308
3,4,T1_SMS_5,244,1,48,41,277005448
3,4,T1_SMS_5,245,5,42,127,277025228
3,4,T1_SMS_5,246,5,42,127,277524780
3,4,T1_SMS_5,247,1,48,44,277542708
3,4,T1_SMS_5,248,1,48,32,277994436
3,4,T1_SMS_5,249,5,42,127,278024464
3,4,T1_SMS_5,250,1,48,29,278498700
3,4,T1_SMS_5,251,5,42,127,278525356
3,4,T1_SMS_5,252,1,48,38,278970868
3,4,T1_SMS_5,253,5,42,127,279025052
3,4,T1_SMS_5,254,1,48,38,279520528
3,4,T1_SMS_5,255,5,42,127,279524748
3,4,T1_SMS_5,256,1,48,40,280011024
3,4,T1_SMS_5,0,9999,9999,9999,9999,215022684
3,4,T1_SMS_5,1,9999,9999,9999,9999,215522400
3,4,T1_SMS_5,2,9999,9999,9999,9999,216022120
3,4,T1_SMS_5,3,9999,9999,9999,9999,216522808
3,4,T1_SMS_5,4,9999,9999,9999,9999,217022524
3,4,T1_SMS_5,5,9999,9999,9999,9999,217522288
3,4,T1_SMS_5,6,9999,9999,9999,9999,218023028
3,4,T1_SMS_5,7,9999,9999,9999,9999,218522724
3,4,T1_SMS_5,8,9999,9999,9999,9999,219022420
3,4,T1_SMS_5,9,9999,9999,9999,9999,219522120
3,4,T1_SMS_5,10,9999,9999,9999,9999,220022860
3,4,T1_SMS_5,11,9999,9999,9999,9999,220522548
3,4,T1_SMS_5,12,9999,9999,9999,9999,221022320
3,4,T1_SMS_5,13,9999,9999,9999,9999,221523060
3,4,T1_SMS_5,14,9999,9999,9999,9999,222022736
3,4,T1_SMS_5,15,9999,9999,9999,9999,222522424
3,4,T1_SMS_5,16,9999,9999,9999,9999,223022196
3,4,T1_SMS_5,17,9999,9999,9999,9999,223522868
3,4,T1_SMS_5,18,9999,9999,9999,9999,224022628
3,4,T1_SMS_5,19,9999,9999,9999,9999,224522328
3,4,T1_SMS_5,20,9999,9999,9999,9999,225023064
3,4,T1_SMS_5,21,9999,9999,9999,9999,225522768
3,4,T1_SMS_5,22,9999,9999,9999,9999,226022460
3,4,T1_SMS_5,23,9999,9999,9999,9999,226522208
3,4,T1_SMS_5,24,9999,9999,9999,9999,227022940
3,4,T1_SMS_5,25,9999,9999,9999,9999,227522636
3,4,T1_SMS_5,26,9999,9999,9999,9999,228022340
3,4,T1_SMS_5,27,9999,9999,9999,9999,228523072
3,4,T1_SMS_5,28,9999,9999,9999,9999,229022768
3,4,T1_SMS_5,29,9999,9999,9999,9999,229522544
3,4,T1_SMS_5,30,9999,9999,9999,9999,230022236
3,4,T1_SMS_5,31,9999,9999,9999,9999,230522976
3,4,T1_SMS_5,32,9999,9999,9999,9999,231022708
3,4,T1_SMS_5,33,9999,9999,9999,9999,231522368
3,4,T1_SMS_5,34,9999,9999,9999,9999,232022068
3,4,T1_SMS_5,35,9999,9999,9999,9999,232522860
3,4,T1_SMS_5,36,9999,9999,9999,9999,233022584
3,4,T1_SMS_5,37,9999,9999,9999,9999,233522248
3,4,T1_SMS_5,38,9999,9999,9999,9999,234022984
3,4,T1_SMS_5,39,9999,9999,9999,9999,234522680
3,4,T1_SMS_5,40,9999,9999,9999,9999,235022452
3,4,T1_SMS_5,41,9999,9999,9999,9999,235522144
3,4,T1_SMS_5,42,9999,9999,9999,9999,236022888
3,4,T1_SMS_5,43,9999,9999,9999,9999,236522580
3,4,T1_SMS_5,44,9999,9999,9999,9999,237022276
3,4,T1_SMS_5,45,9999,9999,9999,9999,237523024
3,4,T1_SMS_5,46,9999,9999,9999,9999,238022720
3,4,T1_SMS_5,47,9999,9999,9999,9999,238522488
3,4,T1_SMS_5,48,9999,9999,9999,9999,239022180
3,4,T1_SMS_5,49,9999,9999,9999,9999,239522928
3,4,T1_SMS_5,50,9999,9999,9999,9999,240022616
3,4,T1_SMS_5,51,9999,9999,9999,9999,240522312
3,4,T1_SMS_5,52,9999,9999,9999,9999,241023060
3,4,T1_SMS_5,53,9999,9999,9999,9999,241522748
3,4,T1_SMS_5,54,9999,9999,9999,9999,242022448
3,4,T1_SMS_5,55,9999,9999,9999,9999,242522220
3,4,T1_SMS_5,56,9999,9999,9999,9999,243022952
3,4,T1_SMS_5,57,9999,9999,9999,9999,243522696
3,4,T1_SMS_5,58,9999,9999,9999,9999,244022392
3,4,T1_SMS_5,59,9999,9999,9999,9999,244523060
3,4,T1_SMS_5,60,9999,9999,9999,9999,245022832
3,4,T1_SMS_5,61,9999,9999,9999,9999,245522524
3,4,T1_SMS_5,62,9999,9999,9999,9999,246022216
3,4,T1_SMS_5,63,9999,9999,9999,9999,246522964
3,4,T1_SMS_5,64,9999,9999,9999,9999,247022652
3,4,T1_SMS_5,65,9999,9999,9999,9999,247522356
3,4,T1_SMS_5,66,9999,9999,9999,9999,248022120
3,4,T1_SMS_5,67,9999,9999,9999,9999,248522864
3,4,T1_SMS_5,68,9999,9999,9999,9999,249022560
3,4,T1_SMS_5,69,9999,9999,9999,9999,249522256
3,4,T1_SMS_5,70,9999,9999,9999,9999,250022996
3,4,T1_SMS_5,71,9999,9999,9999,9999,250522684
3,4,T1_SMS_5,72,9999,9999,9999,9999,251022456
3,4,T1_SMS_5,73,9999,9999,9999,9999,251522148
3,4,T1_SMS_5,74,9999,9999,9999,9999,252022892
3,4,T1_SMS_5,75,9999,9999,9999,9999,252522592
3,4,T1_SMS_5,76,9999,9999,9999,9999,253022280
3,4,T1_SMS_5,77,9999,9999,9999,9999,253523028
3,4,T1_SMS_5,78,9999,9999,9999,9999,254022768
3,4,T1_SMS_5,79,9999,9999,9999,9999,254522468
3,4,T1_SMS_5,80,9999,9999,9999,9999,255022164
3,4,T1_SMS_5,81,9999,9999,9999,9999,255522896
3,4,T1_SMS_5,82,9999,9999,9999,9999,256022592
3,4,T1_SMS_5,83,9999,9999,9999,9999,256522288
3,4,T1_SMS_5,84,9999,9999,9999,9999,257023036
3,4,T1_SMS_5,85,9999,9999,9999,9999,257522808
3,4,T1_SMS_5,86,9999,9999,9999,9999,258022492
3,4,T1_SMS_5,87,9999,9999,9999,9999,258522192
3,4,T1_SMS_5,88,9999,9999,9999,9999,259022940
3,4,T1_SMS_5,89,9999,9999,9999,9999,259522628
3,4,T1_SMS_5,90,9999,9999,9999,9999,260022328
3,4,T1_SMS_5,91,9999,9999,9999,9999,260523072
3,4,T1_SMS_5,92,9999,9999,9999,9999,261022840
3,4,T1_SMS_5,93,9999,9999,9999,9999,261522536
3,4,T1_SMS_5,94,9999,9999,9999,9999,262022224
3,4,T1_SMS_5,95,9999,9999,9999,9999,262522972
3,4,T1_SMS_5,96,9999,9999,9999,9999,263022660
3,4,T1_SMS_5,97,9999,9999,9999,9999,263522364
3,4,T1_SMS_5,98,9999,9999,9999,9999,264022128
3,4,T1_SMS_5,99,9999,9999,9999,9999,264522848
3,4,T1_SMS_5,100,9999,9999,9999,9999,265022540
3,4,T1_SMS_5,101,9999,9999,9999,9999,265522236
3,4,T1_SMS_5,102,9999,9999,9999,9999,266022980
3,4,T1_SMS_5,103,9999,9999,9999,9999,266522676
3,4,T1_SMS_5,104,9999,9999,9999,9999,267022448
3,4,T1_SMS_5,105,9999,9999,9999,9999,267522140
3,4,T1_SMS_5,106,9999,9999,9999,9999,268022876
3,4,T1_SMS_5,107,9999,9999,9999,9999,268522568
3,4,T1_SMS_5,108,9999,9999,9999,9999,269022316
3,4,T1_SMS_5,109,9999,9999,9999,9999,269523060
3,4,T1_SMS_5,110,9999,9999,9999,9999,270022752
3,4,T1_SMS_5,111,9999,9999,9999,9999,270522444
3,4,T1_SMS_5,112,9999,9999,9999,9999,271022140
3,4,T1_SMS_5,113,9999,9999,9999,9999,271522880
3,4,T1_SMS_5,114,9999,9999,9999,9999,272022584
3,4,T1_SMS_5,115,9999,9999,9999,9999,272522344
3,4,T1_SMS_5,116,9999,9999,9999,9999,273023096
3,4,T1_SMS_5,117,9999,9999,9999,9999,273522788
3,4,T1_SMS_5,118,9999,9999,9999,9999,274022476
3,4,T1_SMS_5,119,9999,9999,9999,9999,274522180
3,4,T1_SMS_5,120,9999,9999,9999,9999,275022916
3,4,T1_SMS_5,121,9999,9999,9999,9999,275522660
3,4,T1_SMS_5,122,9999,9999,9999,9999,276022360
3,4,T1_SMS_5,123,9999,9999,9999,9999,276523096
3,4,T1_SMS_5,124,9999,9999,9999,9999,277022792
3,4,T1_SMS_5,125,9999,9999,9999,9999,277522492
3,4,T1_SMS_5,126,9999,9999,9999,9999,278022256
3,4,T1_SMS_5,127,9999,9999,9999,9999,278522996
3,4,T1_SMS_5,128,9999,9999,9999,9999,279022692
3,4,T1_SMS_5,129,9999,9999,9999,9999,279522388
4,2,T1_SMS_8,0,5,42,127,316293668
4,2,T1_SMS_8,1,5,42,127,317094468
4,2,T1_SMS_8,2,5,42,127,317893924
4,2,T1_SMS_8,3,5,42,127,318693756
4,2,T1_SMS_8,4,5,42,127,319493588
4,2,T1_SMS_8,5,1,48,55,319517952
4,2,T1_SMS_8,6,1,48,54,320289168
4,2,T1_SMS_8,7,5,42,127,320294360
4,2,T1_SMS_8,8,1,48,47,321087636
4,2,T1_SMS_8,9,5,42,127,321093948
4,2,T1_SMS_8,10,1,48,46,321889856
4,2,T1_SMS_8,11,5,42,127,321893704
4,2,T1_SMS_8,12,5,42,127,322693444
4,2,T1_SMS_8,13,1,48,53,322707788
4,2,T1_SMS_8,14,5,42,127,323494148
4,2,T1_SMS_8,15,1,48,45,323506992
4,2,T1_SMS_8,16,1,48,51,324286592
4,2,T1_SMS_8,17,5,42,127,324294176
4,2,T1_SMS_8,18,5,42,127,325093768
4,2,T1_SMS_8,19,1,48,48,325110200
4,2,T1_SMS_8,20,5,42,127,325893424
4,2,T1_SMS_8,21,1,48,45,325905816
4,2,T1_SMS_8,22,1,48,41,326667912
4,2,T1_SMS_8,23,5,42,127,326694272
4,2,T1_SMS_8,24,1,48,49,327491280
4,2,T1_SMS_8,25,5,42,127,327494156
4,2,T1_SMS_8,26,5,42,127,328293672
4,2,T1_SMS_8,27,1,48,42,328303072
4,2,T1_SMS_8,28,5,42,127,329093332
4,2,T1_SMS_8,29,1,48,50,329111260
4,2,T1_SMS_8,30,5,42,127,329894184
4,2,T1_SMS_8,31,1,48,54,329927224
4,2,T1_SMS_8,32,5,42,127,330693920
4,2,T1_SMS_8,33,1,48,47,330694884
4,2,T1_SMS_8,34,5,42,127,331493728
4,2,T1_SMS_8,35,1,48,45,331537468
4,2,T1_SMS_8,36,1,48,49,332289980
4,2,T1_SMS_8,37,5,42,127,332293604
4,2,T1_SMS_8,38,5,42,127,333094244
4,2,T1_SMS_8,39,1,48,38,333100280
4,2,T1_SMS_8,40,1,48,45,333874416
4,2,T1_SMS_8,41,5,42,127,333893972
4,2,T1_SMS_8,42,1,48,37,334658572
4,2,T1_SMS_8,43,5,42,127,334693852
4,2,T1_SMS_8,44,5,42,127,335493592
4,2,T1_SMS_8,45,1,48,43,335510852
4,2,T1_SMS_8,46,1,48,45,336291716
4,2,T1_SMS_8,47,5,42,127,336294368
4,2,T1_SMS_8,48,1,48,41,337090404
4,2,T1_SMS_8,49,5,42,127,337094104
4,2,T1_SMS_8,50,5,42,127,337893840
4,2,T1_SMS_8,51,1,48,41,337920744
4,2,T1_SMS_8,52,1,48,50,338690692
4,2,T1_SMS_8,53,5,42,127,338693420
4,2,T1_SMS_8,54,5,42,127,339494204
4,2,T1_SMS_8,55,1,48,46,339495172
4,2,T1_SMS_8,56,5,42,127,340294040
4,2,T1_SMS_8,57,1,48,40,340303588
4,2,T1_SMS_8,58,5,42,127,341093700
4,2,T1_SMS_8,59,1,48,39,341119480
4,2,T1_SMS_8,60,1,48,46,341866840
4,2,T1_SMS_8,61,5,42,127,341893572
4,2,T1_SMS_8,62,5,42,127,342694508
4,2,T1_SMS_8,63,1,48,44,342709224
4,2,T1_SMS_8,64,1,48,48,343479324
4,2,T1_SMS_8,65,5,42,127,343494012
4,2,T1_SMS_8,66,1,48,45,344274564
4,2,T1_SMS_8,67,5,42,127,344293672
4,2,T1_SMS_8,68,1,48,44,345092584
4,2,T1_SMS_8,69,5,42,127,345094380
4,2,T1_SMS_8,70,1,48,42,345893288
4,2,T1_SMS_8,71,5,42,127,345895160
4,2,T1_SMS_8,72,5,42,127,346694100
4,2,T1_SMS_8,73,1,48,46,346702380
4,2,T1_SMS_8,74,5,42,127,347493760
4,2,T1_SMS_8,75,1,48,50,347497480
4,2,T1_SMS_8,76,5,42,127,348293344
4,2,T1_SMS_8,77,1,48,44,348321972
4,2,T1_SMS_8,78,5,42,127,349094200
4,2,T1_SMS_8,79,1,48,35,349124468
4,2,T1_SMS_8,80,5,42,127,349894080
4,2,T1_SMS_8,81,1,48,48,349927944
4,2,T1_SMS_8,82,5,42,127,350693888
4,2,T1_SMS_8,83,1,48,38,350697984
4,2,T1_SMS_8,84,1,48,39,351489892
4,2,T1_SMS_8,85,5,42,127,351493520
4,2,T1_SMS_8,86,5,42,127,352294232
4,2,T1_SMS_8,87,1,48,36,352303112
4,2,T1_SMS_8,88,5,42,127,353094136
4,2,T1_SMS_8,89,1,48,42,353095852
4,2,T1_SMS_8,90,5,42,127,353893944
4,2,T1_SMS_8,91,1,48,38,353928632
4,2,T1_SMS_8,92,1,48,29,354685632
4,2,T1_SMS_8,93,5,42,127,354693448
4,2,T1_SMS_8,94,1,48,39,355490752
4,2,T1_SMS_8,95,5,42,127,355494448
4,2,T1_SMS_8,96,5,42,127,356293892
4,2,T1_SMS_8,97,1,48,16,356324012
4,2,T1_SMS_8,98,1,48,42,357084684
4,2,T1_SMS_8,99,5,42,127,357093696
4,2,T1_SMS_8,100,5,42,127,357893436
4,2,T1_SMS_8,101,1,48,38,357904556
4,2,T1_SMS_8,102,1,48,35,358672856
4,2,T1_SMS_8,103,5,42,127,358694208
4,2,T1_SMS_8,104,1,48,35,359469152
4,2,T1_SMS_8,105,5,42,127,359494112
4,2,T1_SMS_8,106,5,42,127,360293704
4,2,T1_SMS_8,107,1,48,34,360335792
4,2,T1_SMS_8,108,5,42,127,361093512
4,2,T1_SMS_8,109,1,48,37,361113460
4,2,T1_SMS_8,110,1,48,38,361861268
4,2,T1_SMS_8,111,5,42,127,361894284
4,2,T1_SMS_8,112,1,48,41,362663468
4,2,T1_SMS_8,113,5,42,127,362694016
4,2,T1_SMS_8,114,1,48,34,363493832
4,2,T1_SMS_8,115,5,42,127,363495548
4,2,T1_SMS_8,116,1,48,29,364289488
4,2,T1_SMS_8,117,5,42,127,364293412
4,2,T1_SMS_8,118,5,42,127,365094272
4,2,T1_SMS_8,119,1,48,38,365100980
4,2,T1_SMS_8,120,1,48,35,365890448
4,2,T1_SMS_8,121,5,42,127,365894472
4,2,T1_SMS_8,122,5,42,127,366693692
4,2,T1_SMS_8,123,1,48,42,367475600
4,2,T1_SMS_8,124,5,42,127,367493436
4,2,T1_SMS_8,125,1,48,43,368286328
4,2,T1_SMS_8,126,5,42,127,368294516
4,2,T1_SMS_8,127,1,48,39,369071412
4,2,T1_SMS_8,128,5,42,127,369094104
4,2,T1_SMS_8,129,5,42,127,369893696
4,2,T1_SMS_8,130,1,48,33,369905940
4,2,T1_SMS_8,131,1,48,34,370677160
4,2,T1_SMS_8,132,5,42,127,370693348
4,2,T1_SMS_8,133,5,42,127,371494208
4,2,T1_SMS_8,134,1,48,35,371515728
4,2,T1_SMS_8,135,5,42,127,372294044
4,2,T1_SMS_8,136,1,48,35,372296944
4,2,T1_SMS_8,137,1,48,35,373082892
4,2,T1_SMS_8,138,5,42,127,373093696
4,2,T1_SMS_8,139,5,42,127,373893436
4,2,T1_SMS_8,140,1,48,35,373933656
4,2,T1_SMS_8,141,1,48,39,374693464
4,2,T1_SMS_8,142,5,42,127,374695260
4,2,T1_SMS_8,143,5,42,127,375493952
4,2,T1_SMS_8,144,1,48,32,375498944
4,2,T1_SMS_8,145,5,42,127,376293684
4,2,T1_SMS_8,146,1,48,28,376318868
4,2,T1_SMS_8,147,1,48,30,377055228
4,2,T1_SMS_8,148,5,42,127,377093564
4,2,T1_SMS_8,149,5,42,127,377894348
4,2,T1_SMS_8,150,1,48,34,377902780
4,2,T1_SMS_8,151,5,42,127,378693960
4,2,T1_SMS_8,152,1,48,41,378718772
4,2,T1_SMS_8,153,1,48,43,379481312
4,2,T1_SMS_8,154,5,42,127,379493836
4,2,T1_SMS_8,155,1,48,39,380290396
4,2,T1_SMS_8,156,5,42,127,380293716
4,2,T1_SMS_8,157,1,48,42,381089980
4,2,T1_SMS_8,158,5,42,127,381094200
4,2,T1_SMS_8,159,1,48,41,381875724
4,2,T1_SMS_8,160,5,42,127,381894008
4,2,T1_SMS_8,161,5,42,127,382693600
4,2,T1_SMS_8,162,1,48,42,382700836
4,2,T1_SMS_8,163,1,48,35,383478704
4,2,T1_SMS_8,164,5,42,127,383493772
4,2,T1_SMS_8,165,5,42,127,384294336
4,2,T1_SMS_8,166,1,48,40,384302016
4,2,T1_SMS_8,167,1,48,40,385081240
4,2,T1_SMS_8,168,5,42,127,385093940
4,2,T1_SMS_8,169,5,42,127,385893680
4,2,T1_SMS_8,170,1,48,33,385896580
4,2,T1_SMS_8,171,1,48,36,386670040
4,2,T1_SMS_8,172,5,42,127,386693556
4,2,T1_SMS_8,173,1,48,40,387483604
4,2,T1_SMS_8,174,5,42,127,387494336
4,2,T1_SMS_8,175,5,42,127,388293856
4,2,T1_SMS_8,176,1,48,41,388311112
4,2,T1_SMS_8,177,1,48,41,389087040
4,2,T1_SMS_8,178,5,42,127,389093656
4,2,T1_SMS_8,179,5,42,127,389893544
4,2,T1_SMS_8,180,1,48,42,389895260
4,2,T1_SMS_8,181,5,42,127,390694324
4,2,T1_SMS_8,182,1,48,34,390698492
4,2,T1_SMS_8,183,5,42,127,391494008
4,2,T1_SMS_8,184,1,48,34,391496020
4,2,T1_SMS_8,185,5,42,127,392293592
4,2,T1_SMS_8,186,1,48,43,392301420
4,2,T1_SMS_8,187,1,48,37,393076452
4,2,T1_SMS_8,188,5,42,127,393093468
4,2,T1_SMS_8,189,5,42,127,393894256
4,2,T1_SMS_8,190,1,48,38,393924224
4,2,T1_SMS_8,191,5,42,127,394693988
4,2,T1_SMS_8,192,1,48,35,394724412
4,2,T1_SMS_8,193,1,48,38,395464208
4,2,T1_SMS_8,194,5,42,127,395493640
4,2,T1_SMS_8,195,5,42,127,396293380
4,2,T1_SMS_8,196,1,48,40,396308092
4,2,T1_SMS_8,197,1,48,33,397091352
4,2,T1_SMS_8,198,5,42,127,397094452
4,2,T1_SMS_8,199,1,48,41,397890288
4,2,T1_SMS_8,200,5,42,127,397894060
4,2,T1_SMS_8,201,5,42,127,398694024
4,2,T1_SMS_8,202,1,48,44,398698568
4,2,T1_SMS_8,203,1,48,44,399493608
4,2,T1_SMS_8,204,5,42,127,399495172
4,2,T1_SMS_8,205,5,42,127,400294240
4,2,T1_SMS_8,206,1,48,41,400295872
4,2,T1_SMS_8,207,1,48,45,401080620
4,2,T1_SMS_8,208,5,42,127,401093892
4,2,T1_SMS_8,209,1,48,41,401891348
4,2,T1_SMS_8,210,5,42,127,401893996
4,2,T1_SMS_8,211,5,42,127,402693436
4,2,T1_SMS_8,212,1,48,47,402710996
4,2,T1_SMS_8,213,5,42,127,403494144
4,2,T1_SMS_8,214,1,48,43,403499880
4,2,T1_SMS_8,215,5,42,127,404293904
4,2,T1_SMS_8,216,1,48,40,404334648
4,2,T1_SMS_8,217,5,42,127,405093712
4,2,T1_SMS_8,218,1,48,40,405106548
4,2,T1_SMS_8,219,1,48,42,405870588
4,2,T1_SMS_8,220,5,42,127,405893584
4,2,T1_SMS_8,221,1,48,44,406689324
4,2,T1_SMS_8,222,5,42,127,406694144
4,2,T1_SMS_8,223,1,48,47,407472156
4,2,T1_SMS_8,224,5,42,127,407493876
4,2,T1_SMS_8,225,1,48,48,408285944
4,2,T1_SMS_8,226,5,42,127,408293684
4,2,T1_SMS_8,227,1,48,46,409088672
4,2,T1_SMS_8,228,5,42,127,409093788
4,2,T1_SMS_8,229,1,48,38,409891396
4,2,T1_SMS_8,230,5,42,127,409894124
4,2,T1_SMS_8,231,1,48,45,410682756
4,2,T1_SMS_8,232,5,42,127,410693956
4,2,T1_SMS_8,233,1,48,28,411493316
4,2,T1_SMS_8,234,5,42,127,411495032
4,2,T1_SMS_8,235,1,48,46,412271548
4,2,T1_SMS_8,0,9999,9999,9999,9999,316291156
4,2,T1_SMS_8,1,9999,9999,9999,9999,317091956
4,2,T1_SMS_8,2,9999,9999,9999,9999,317891636
4,2,T1_SMS_8,3,9999,9999,9999,9999,318691392
4,2,T1_SMS_8,4,9999,9999,9999,9999,319491148
4,2,T1_SMS_8,5,9999,9999,9999,9999,320291924
4,2,T1_SMS_8,6,9999,9999,9999,9999,321091660
4,2,T1_SMS_8,7,9999,9999,9999,9999,321891416
4,2,T1_SMS_8,8,9999,9999,9999,9999,322691156
4,2,T1_SMS_8,9,9999,9999,9999,9999,323491936
4,2,T1_SMS_8,10,9999,9999,9999,9999,324291664
4,2,T1_SMS_8,11,9999,9999,9999,9999,325091404
4,2,T1_SMS_8,12,9999,9999,9999,9999,325891136
4,2,T1_SMS_8,13,9999,9999,9999,9999,326691908
4,2,T1_SMS_8,14,9999,9999,9999,9999,327491644
4,2,T1_SMS_8,15,9999,9999,9999,9999,328291384
4,2,T1_SMS_8,16,9999,9999,9999,9999,329091116
4,2,T1_SMS_8,17,9999,9999,9999,9999,329891896
4,2,T1_SMS_8,18,9999,9999,9999,9999,330691632
4,2,T1_SMS_8,19,9999,9999,9999,9999,331491440
4,2,T1_SMS_8,20,9999,9999,9999,9999,332291168
4,2,T1_SMS_8,21,9999,9999,9999,9999,333091956
4,2,T1_SMS_8,22,9999,9999,9999,9999,333891680
4,2,T1_SMS_8,23,9999,9999,9999,9999,334691416
4,2,T1_SMS_8,24,9999,9999,9999,9999,335491156
4,2,T1_SMS_8,25,9999,9999,9999,9999,336291932
4,2,T1_SMS_8,26,9999,9999,9999,9999,337091664
4,2,T1_SMS_8,27,9999,9999,9999,9999,337891404
4,2,T1_SMS_8,28,9999,9999,9999,9999,338691132
4,2,T1_SMS_8,29,9999,9999,9999,9999,339491916
4,2,T1_SMS_8,30,9999,9999,9999,9999,340291652
4,2,T1_SMS_8,31,9999,9999,9999,9999,341091408
4,2,T1_SMS_8,32,9999,9999,9999,9999,341891136
4,2,T1_SMS_8,33,9999,9999,9999,9999,342691924
4,2,T1_SMS_8,34,9999,9999,9999,9999,343491652
4,2,T1_SMS_8,35,9999,9999,9999,9999,344291384
4,2,T1_SMS_8,36,9999,9999,9999,9999,345091124
4,2,T1_SMS_8,37,9999,9999,9999,9999,345891904
4,2,T1_SMS_8,38,9999,9999,9999,9999,346691640
4,2,T1_SMS_8,39,9999,9999,9999,9999,347491396
4,2,T1_SMS_8,40,9999,9999,9999,9999,348291128
4,2,T1_SMS_8,41,9999,9999,9999,9999,349091912
4,2,T1_SMS_8,42,9999,9999,9999,9999,349891644
4,2,T1_SMS_8,43,9999,9999,9999,9999,350691380
4,2,T1_SMS_8,44,9999,9999,9999,9999,351491156
4,2,T1_SMS_8,45,9999,9999,9999,9999,352291944
4,2,T1_SMS_8,46,9999,9999,9999,9999,353091676
4,2,T1_SMS_8,47,9999,9999,9999,9999,353891432
4,2,T1_SMS_8,48,9999,9999,9999,9999,354691160
4,2,T1_SMS_8,49,9999,9999,9999,9999,355491940
4,2,T1_SMS_8,50,9999,9999,9999,9999,356291680
4,2,T1_SMS_8,51,9999,9999,9999,9999,357091408
4,2,T1_SMS_8,52,9999,9999,9999,9999,357891144
4,2,T1_SMS_8,53,9999,9999,9999,9999,358691920
4,2,T1_SMS_8,54,9999,9999,9999,9999,359491676
4,2,T1_SMS_8,55,9999,9999,9999,9999,360291416
4,2,T1_SMS_8,56,9999,9999,9999,9999,361091152
4,2,T1_SMS_8,57,9999,9999,9999,9999,361891924
4,2,T1_SMS_8,58,9999,9999,9999,9999,362691656
4,2,T1_SMS_8,59,9999,9999,9999,9999,363491396
4,2,T1_SMS_8,60,9999,9999,9999,9999,364291124
4,2,T1_SMS_8,61,9999,9999,9999,9999,365091912
4,2,T1_SMS_8,62,9999,9999,9999,9999,365891664
4,2,T1_SMS_8,63,9999,9999,9999,9999,366691404
4,2,T1_SMS_8,64,9999,9999,9999,9999,367491148
4,2,T1_SMS_8,65,9999,9999,9999,9999,368291932
4,2,T1_SMS_8,66,9999,9999,9999,9999,369091668
4,2,T1_SMS_8,67,9999,9999,9999,9999,369891408
4,2,T1_SMS_8,68,9999,9999,9999,9999,370691136
4,2,T1_SMS_8,69,9999,9999,9999,9999,371491920
4,2,T1_SMS_8,70,9999,9999,9999,9999,372291680
4,2,T1_SMS_8,71,9999,9999,9999,9999,373091408
4,2,T1_SMS_8,72,9999,9999,9999,9999,373891148
4,2,T1_SMS_8,73,9999,9999,9999,9999,374691932
4,2,T1_SMS_8,74,9999,9999,9999,9999,375491664
4,2,T1_SMS_8,75,9999,9999,9999,9999,376291396
4,2,T1_SMS_8,76,9999,9999,9999,9999,377091128
4,2,T1_SMS_8,77,9999,9999,9999,9999,377891912
4,2,T1_SMS_8,78,9999,9999,9999,9999,378691672
4,2,T1_SMS_8,79,9999,9999,9999,9999,379491396
4,2,T1_SMS_8,80,9999,9999,9999,9999,380291132
4,2,T1_SMS_8,81,9999,9999,9999,9999,381091912
4,2,T1_SMS_8,82,9999,9999,9999,9999,381891648
4,2,T1_SMS_8,83,9999,9999,9999,9999,382691388
4,2,T1_SMS_8,84,9999,9999,9999,9999,383491188
4,2,T1_SMS_8,85,9999,9999,9999,9999,384291900
4,2,T1_SMS_8,86,9999,9999,9999,9999,385091652
4,2,T1_SMS_8,87,9999,9999,9999,9999,385891392
4,2,T1_SMS_8,88,9999,9999,9999,9999,386691120
4,2,T1_SMS_8,89,9999,9999,9999,9999,387491900
4,2,T1_SMS_8,90,9999,9999,9999,9999,388291640
4,2,T1_SMS_8,91,9999,9999,9999,9999,389091444
4,2,T1_SMS_8,92,9999,9999,9999,9999,389891180
4,2,T1_SMS_8,93,9999,9999,9999,9999,390691888
4,2,T1_SMS_8,94,9999,9999,9999,9999,391491644
4,2,T1_SMS_8,95,9999,9999,9999,9999,392291380
4,2,T1_SMS_8,96,9999,9999,9999,9999,393091180
4,2,T1_SMS_8,97,9999,9999,9999,9999,393891892
4,2,T1_SMS_8,98,9999,9999,9999,9999,394691700
4,2,T1_SMS_8,99,9999,9999,9999,9999,395491428
4,2,T1_SMS_8,100,9999,9999,9999,9999,396291168
4,2,T1_SMS_8,101,9999,9999,9999,9999,397091940
4,2,T1_SMS_8,102,9999,9999,9999,9999,397891696
4,2,T1_SMS_8,103,9999,9999,9999,9999,398691436
4,2,T1_SMS_8,104,9999,9999,9999,9999,399491172
4,2,T1_SMS_8,105,9999,9999,9999,9999,400291952
4,2,T1_SMS_8,106,9999,9999,9999,9999,401091676
4,2,T1_SMS_8,107,9999,9999,9999,9999,401891408
4,2,T1_SMS_8,108,9999,9999,9999,9999,402691148
4,2,T1_SMS_8,109,9999,9999,9999,9999,403491928
4,2,T1_SMS_8,110,9999,9999,9999,9999,404291688
4,2,T1_SMS_8,111,9999,9999,9999,9999,405091424
4,2,T1_SMS_8,112,9999,9999,9999,9999,405891148
4,2,T1_SMS_8,113,9999,9999,9999,9999,406691928
4,2,T1_SMS_8,114,9999,9999,9999,9999,407491664
4,2,T1_SMS_8,115,9999,9999,9999,9999,408291396
4,2,T1_SMS_8,116,9999,9999,9999,9999,409091132
4,2,T1_SMS_8,117,9999,9999,9999,9999,409891912
4,2,T1_SMS_8,118,9999,9999,9999,9999,410691668
4,2,T1_SMS_8,119,9999,9999,9999,9999,411491408
5,21,Ticks_Linear_5,0,5,42,127,422859000
5,21,Ticks_Linear_5,1,5,42,127,423339324
5,21,Ticks_Linear_5,2,5,42,127,423818748
5,21,Ticks_Linear_5,3,5,42,127,424299148
5,21,Ticks_Linear_5,4,5,42,127,424779100
5,21,Ticks_Linear_5,5,1,48,53,424813068
5,21,Ticks_Linear_5,6,5,42,127,425268812
5,21,Ticks_Linear_5,7,1,48,49,425286868
5,21,Ticks_Linear_5,8,5,42,127,425759152
5,21,Ticks_Linear_5,9,1,48,48,425766084
5,21,Ticks_Linear_5,10,5,42,127,426248740
5,21,Ticks_Linear_5,11,1,48,44,426255972
5,21,Ticks_Linear_5,12,1,48,51,426731620
5,21,Ticks_Linear_5,13,5,42,127,426738924
5,21,Ticks_Linear_5,14,5,42,127,427228816
5,21,Ticks_Linear_5,15,1,48,56,427255000
5,21,Ticks_Linear_5,16,1,48,45,427682116
5,21,Ticks_Linear_5,17,5,42,127,427729260
5,21,Ticks_Linear_5,18,5,42,127,428228892
5,21,Ticks_Linear_5,19,1,48,50,428229856
5,21,Ticks_Linear_5,20,1,48,42,428709300
5,21,Ticks_Linear_5,21,5,42,127,428728880
5,21,Ticks_Linear_5,22,1,48,51,429229036
5,21,Ticks_Linear_5,23,5,42,127,429230824
5,21,Ticks_Linear_5,24,1,48,49,429714004
5,21,Ticks_Linear_5,25,5,42,127,429739364
5,21,Ticks_Linear_5,26,1,48,47,430231008
5,21,Ticks_Linear_5,27,5,42,127,430249544
5,21,Ticks_Linear_5,28,1,48,41,430722320
5,21,Ticks_Linear_5,29,5,42,127,430759580
5,21,Ticks_Linear_5,30,1,48,40,431263724
5,21,Ticks_Linear_5,31,5,42,127,431269240
5,21,Ticks_Linear_5,32,1,48,44,431764700
5,21,Ticks_Linear_5,33,5,42,127,431779052
5,21,Ticks_Linear_5,34,1,48,41,432260364
5,21,Ticks_Linear_5,35,5,42,127,432289160
5,21,Ticks_Linear_5,36,1,48,47,432789192
5,21,Ticks_Linear_5,37,5,42,127,432809452
5,21,Ticks_Linear_5,38,1,48,41,433296144
5,21,Ticks_Linear_5,39,5,42,127,433328548
5,21,Ticks_Linear_5,40,1,48,31,433826028
5,21,Ticks_Linear_5,41,5,42,127,433848616
5,21,Ticks_Linear_5,42,1,48,38,434359884
5,21,Ticks_Linear_5,43,5,42,127,434368836
5,21,Ticks_Linear_5,44,1,48,40,434870064
5,21,Ticks_Linear_5,45,5,42,127,434888980
5,21,Ticks_Linear_5,46,1,48,44,435387968
5,21,Ticks_Linear_5,47,5,42,127,435418556
5,21,Ticks_Linear_5,48,1,48,44,435920612
5,21,Ticks_Linear_5,49,5,42,127,435948888
5,21,Ticks_Linear_5,50,1,48,43,436469736
5,21,Ticks_Linear_5,51,5,42,127,436479440
5,21,Ticks_Linear_5,52,1,48,42,436995120
5,21,Ticks_Linear_5,53,5,42,127,437008720
5,21,Ticks_Linear_5,54,1,48,37,437513464
5,21,Ticks_Linear_5,55,5,42,127,437539196
5,21,Ticks_Linear_5,56,1,48,36,438038564
5,21,Ticks_Linear_5,57,5,42,127,438078840
5,21,Ticks_Linear_5,58,1,48,41,438617556
5,21,Ticks_Linear_5,59,5,42,127,438619352
5,21,Ticks_Linear_5,60,1,48,39,439136836
5,21,Ticks_Linear_5,61,5,42,127,439159264
5,21,Ticks_Linear_5,62,1,48,38,439669704
5,21,Ticks_Linear_5,63,5,42,127,439698804
5,21,Ticks_Linear_5,64,1,48,38,440236304
5,21,Ticks_Linear_5,65,5,42,127,440238420
5,21,Ticks_Linear_5,66,1,48,37,440754096
5,21,Ticks_Linear_5,67,5,42,127,440789416
5,21,Ticks_Linear_5,68,1,48,39,441330412
5,21,Ticks_Linear_5,69,5,42,127,441339292
5,21,Ticks_Linear_5,70,5,42,127,441889244
5,21,Ticks_Linear_5,71,1,48,37,441901280
5,21,Ticks_Linear_5,72,1,48,40,442427992
5,21,Ticks_Linear_5,73,5,42,127,442439284
5,21,Ticks_Linear_5,74,1,48,38,442985440
5,21,Ticks_Linear_5,75,5,42,127,442989012
5,21,Ticks_Linear_5,76,1,48,35,443530080
5,21,Ticks_Linear_5,77,5,42,127,443549144
5,21,Ticks_Linear_5,78,1,48,36,444087748
5,21,Ticks_Linear_5,79,5,42,127,444109128
5,21,Ticks_Linear_5,80,1,48,35,444668888
5,21,Ticks_Linear_5,81,5,42,127,444670604
5,21,Ticks_Linear_5,82,5,42,127,445229400
5,21,Ticks_Linear_5,83,1,48,32,445273876
5,21,Ticks_Linear_5,84,1,48,36,445784560
5,21,Ticks_Linear_5,85,5,42,127,445798764
5,21,Ticks_Linear_5,86,1,48,34,446346040
5,21,Ticks_Linear_5,87,5,42,127,446369084
5,21,Ticks_Linear_5,88,5,42,127,446938584
5,21,Ticks_Linear_5,89,1,48,39,446949720
5,21,Ticks_Linear_5,90,5,42,127,447509124
5,21,Ticks_Linear_5,91,1,48,45,447524448
5,21,Ticks_Linear_5,92,1,48,35,448058352
5,21,Ticks_Linear_5,93,5,42,127,448079236
5,21,Ticks_Linear_5,94,5,42,127,448648664
5,21,Ticks_Linear_5,95,1,48,40,448651032
5,21,Ticks_Linear_5,96,1,48,45,449219688
5,21,Ticks_Linear_5,97,5,42,127,449229084
5,21,Ticks_Linear_5,98,1,48,34,449800412
5,21,Ticks_Linear_5,99,5,42,127,449808912
5,21,Ticks_Linear_5,100,1,48,43,450385720
5,21,Ticks_Linear_5,101,5,42,127,450389436
5,21,Ticks_Linear_5,102,1,48,40,450966928
5,21,Ticks_Linear_5,103,5,42,127,450968892
5,21,Ticks_Linear_5,104,1,48,43,451531680
5,21,Ticks_Linear_5,105,5,42,127,451548948
5,21,Ticks_Linear_5,106,5,42,127,452139416
5,21,Ticks_Linear_5,107,1,48,43,452148904
5,21,Ticks_Linear_5,108,1,48,38,452697808
5,21,Ticks_Linear_5,109,5,42,127,452729148
5,21,Ticks_Linear_5,110,1,48,36,453310736
5,21,Ticks_Linear_5,111,5,42,127,453319164
5,21,Ticks_Linear_5,112,1,48,36,453883220
5,21,Ticks_Linear_5,113,5,42,127,453908804
5,21,Ticks_Linear_5,114,5,42,127,454498548
5,21,Ticks_Linear_5,115,1,48,36,454522852
5,21,Ticks_Linear_5,116,1,48,47,455083344
5,21,Ticks_Linear_5,117,5,42,127,455098740
5,21,Ticks_Linear_5,118,1,48,39,455655456
5,21,Ticks_Linear_5,119,5,42,127,455698788
5,21,Ticks_Linear_5,120,5,42,127,456299016
5,21,Ticks_Linear_5,121,1,48,46,456309624
5,21,Ticks_Linear_5,122,1,48,40,456880448
5,21,Ticks_Linear_5,123,5,42,127,456899056
5,21,Ticks_Linear_5,124,5,42,127,457498964
5,21,Ticks_Linear_5,125,1,48,38,457505896
5,21,Ticks_Linear_5,126,1,48,35,458090228
5,21,Ticks_Linear_5,127,5,42,127,458109440
5,21,Ticks_Linear_5,128,1,48,39,458711172
5,21,Ticks_Linear_5,129,5,42,127,458718552
5,21,Ticks_Linear_5,130,5,42,127,459328888
5,21,Ticks_Linear_5,131,1,48,38,459341068
5,21,Ticks_Linear_5,132,5,42,127,459939492
5,21,Ticks_Linear_5,133,1,48,38,459950552
5,21,Ticks_Linear_5,134,1,48,48,460503692
5,21,Ticks_Linear_5,135,5,42,127,460548600
5,21,Ticks_Linear_5,136,5,42,127,461168900
5,21,Ticks_Linear_5,137,1,48,34,461184668
5,21,Ticks_Linear_5,138,5,42,127,461788496
5,21,Ticks_Linear_5,139,1,48,36,461796936
5,21,Ticks_Linear_5,140,1,48,31,462390964
5,21,Ticks_Linear_5,141,5,42,127,462409452
5,21,Ticks_Linear_5,142,5,42,127,463028536
5,21,Ticks_Linear_5,143,1,48,43,463042356
5,21,Ticks_Linear_5,144,5,42,127,463649400
5,21,Ticks_Linear_5,145,1,48,39,463659412
5,21,Ticks_Linear_5,146,1,48,39,464225904
5,21,Ticks_Linear_5,147,5,42,127,464278896
5,21,Ticks_Linear_5,148,5,42,127,464908536
5,21,Ticks_Linear_5,149,1,48,34,464959084
5,21,Ticks_Linear_5,150,5,42,127,465538488
5,21,Ticks_Linear_5,151,1,48,36,465544748
5,21,Ticks_Linear_5,152,1,48,38,466145372
5,21,Ticks_Linear_5,153,5,42,127,466169156
5,21,Ticks_Linear_5,154,1,48,38,466773008
5,21,Ticks_Linear_5,155,5,42,127,466799184
5,21,Ticks_Linear_5,156,1,48,43,467408036
5,21,Ticks_Linear_5,157,5,42,127,467439220
5,21,Ticks_Linear_5,158,5,42,127,468079144
5,21,Ticks_Linear_5,159,1,48,43,468090204
5,21,Ticks_Linear_5,160,1,48,50,468700936
5,21,Ticks_Linear_5,161,5,42,127,468719324
5,21,Ticks_Linear_5,162,5,42,127,469359168
5,21,Ticks_Linear_5,163,1,48,23,469988176
5,21,Ticks_Linear_5,164,5,42,127,469999372
5,21,Ticks_Linear_5,165,5,42,127,470649256
5,21,Ticks_Linear_5,166,1,48,45,470665024
5,21,Ticks_Linear_5,167,1,48,48,471294260
5,21,Ticks_Linear_5,168,5,42,127,471298424
5,21,Ticks_Linear_5,169,1,48,44,471934840
5,21,Ticks_Linear_5,170,5,42,127,471948744
5,21,Ticks_Linear_5,171,1,48,44,472595552
5,21,Ticks_Linear_5,172,5,42,127,472599044
5,21,Ticks_Linear_5,173,1,48,45,473238772
5,21,Ticks_Linear_5,174,5,42,127,473249068
5,21,Ticks_Linear_5,175,1,48,36,473904784
5,21,Ticks_Linear_5,176,5,42,127,473908652
5,21,Ticks_Linear_5,177,5,42,127,474568940
5,21,Ticks_Linear_5,178,1,48,28,474579920
5,21,Ticks_Linear_5,179,5,42,127,475228700
5,21,Ticks_Linear_5,180,1,48,40,475238112
5,21,Ticks_Linear_5,181,5,42,127,475889032
5,21,Ticks_Linear_5,182,1,48,40,475909752
5,21,Ticks_Linear_5,183,1,48,26,476542672
5,21,Ticks_Linear_5,184,5,42,127,476548708
5,21,Ticks_Linear_5,185,1,48,44,477182712
5,21,Ticks_Linear_5,186,5,42,127,477219076
5,21,Ticks_Linear_5,187,1,48,32,477880140
5,21,Ticks_Linear_5,188,5,42,127,477888868
5,21,Ticks_Linear_5,189,5,42,127,478558668
5,21,Ticks_Linear_5,190,1,48,24,478588380
5,21,Ticks_Linear_5,191,1,48,30,479220524
5,21,Ticks_Linear_5,192,5,42,127,479229256
5,21,Ticks_Linear_5,193,1,48,31,479882308
5,21,Ticks_Linear_5,194,5,42,127,479898972
5,21,Ticks_Linear_5,195,1,48,33,480566612
5,21,Ticks_Linear_5,196,5,42,127,480578952
5,21,Ticks_Linear_5,197,1,48,45,481258384
5,21,Ticks_Linear_5,198,5,42,127,481260100
5,21,Ticks_Linear_5,199,1,48,50,481927612
5,21,Ticks_Linear_5,200,5,42,127,481938880
5,21,Ticks_Linear_5,201,1,48,37,482569520
5,21,Ticks_Linear_5,202,5,42,127,482618856
5,21,Ticks_Linear_5,203,1,48,39,483273904
5,21,Ticks_Linear_5,204,5,42,127,483298588
5,21,Ticks_Linear_5,205,5,42,127,483988832
5,21,Ticks_Linear_5,206,1,48,43,483989944
5,21,Ticks_Linear_5,207,1,48,38,484673176
5,21,Ticks_Linear_5,208,5,42,127,484679064
5,21,Ticks_Linear_5,209,1,48,45,485343620
5,21,Ticks_Linear_5,210,5,42,127,485369272
5,21,Ticks_Linear_5,211,5,42,127,486059372
5,21,Ticks_Linear_5,212,1,48,45,486077324
5,21,Ticks_Linear_5,213,5,42,127,486748488
5,21,Ticks_Linear_5,214,1,48,41,486770928
5,21,Ticks_Linear_5,215,1,48,38,487425092
5,21,Ticks_Linear_5,216,5,42,127,487449172
5,21,Ticks_Linear_5,217,1,48,39,488133300
5,21,Ticks_Linear_5,218,5,42,127,488149448
5,21,Ticks_Linear_5,219,1,48,40,488822416
5,21,Ticks_Linear_5,220,5,42,127,488848672
5,21,Ticks_Linear_5,221,5,42,127,489549176
5,21,Ticks_Linear_5,222,1,48,26,489550140
5,21,Ticks_Linear_5,223,1,48,21,490243380
5,21,Ticks_Linear_5,224,5,42,127,490248592
5,21,Ticks_Linear_5,225,1,48,21,490911904
5,21,Ticks_Linear_5,226,5,42,127,490959124
5,21,Ticks_Linear_5,227,1,48,37,491641012
5,21,Ticks_Linear_5,228,5,42,127,491668984
5,21,Ticks_Linear_5,229,5,42,127,492378476
5,21,Ticks_Linear_5,230,1,48,41,492392072
5,21,Ticks_Linear_5,231,1,48,35,493076660
5,21,Ticks_Linear_5,232,5,42,127,493089124
5,21,Ticks_Linear_5,233,1,48,34,493728324
5,21,Ticks_Linear_5,234,5,42,127,493798980
5,21,Ticks_Linear_5,235,1,48,34,494502504
5,21,Ticks_Linear_5,236,5,42,127,494518724
5,21,Ticks_Linear_5,237,1,48,29,495222400
5,21,Ticks_Linear_5,238,5,42,127,495238544
5,21,Ticks_Linear_5,239,1,48,41,495956512
5,21,Ticks_Linear_5,240,5,42,127,495959484
5,21,Ticks_Linear_5,241,1,48,31,496639028
5,21,Ticks_Linear_5,242,5,42,127,496679352
5,21,Ticks_Linear_5,243,1,48,38,497383700
5,21,Ticks_Linear_5,244,5,42,127,497399172
5,21,Ticks_Linear_5,245,1,48,31,498100828
5,21,Ticks_Linear_5,246,5,42,127,498129324
5,21,Ticks_Linear_5,247,1,48,36,498828060
5,21,Ticks_Linear_5,248,5,42,127,498859404
5,21,Ticks_Linear_5,249,1,48,38,499546836
5,21,Ticks_Linear_5,250,5,42,127,499588584
5,21,Ticks_Linear_5,251,5,42,127,500318744
5,21,Ticks_Linear_5,252,1,48,29,500331672
5,21,Ticks_Linear_5,253,1,48,34,501007936
5,21,Ticks_Linear_5,254,5,42,127,501048640
5,21,Ticks_Linear_5,255,5,42,127,501789108
5,21,Ticks_Linear_5,256,1,48,36,501791120
5,21,Ticks_Linear_5,257,5,42,127,502529520
5,21,Ticks_Linear_5,258,1,48,26,502565284
5,21,Ticks_Linear_5,259,1,38,11,502577336
5,21,Ticks_Linear_5,260,5,42,127,503268688
5,21,Ticks_Linear_5,261,1,48,46,503289480
5,21,Ticks_Linear_5,262,1,48,44,503986368
5,21,Ticks_Linear_5,263,5,42,127,504008944
5,21,Ticks_Linear_5,264,5,42,127,504749436
5,21,Ticks_Linear_5,265,1,48,47,504777424
5,21,Ticks_Linear_5,266,1,48,44,505490924
5,21,Ticks_Linear_5,267,5,42,127,505509460
5,21,Ticks_Linear_5,268,5,42,127,506258872
5,21,Ticks_Linear_5,269,1,48,34,506283180
5,21,Ticks_Linear_5,270,5,42,127,507009464
5,21,Ticks_Linear_5,271,1,48,43,507027868
5,21,Ticks_Linear_5,272,5,42,127,507759092
5,21,Ticks_Linear_5,273,1,48,42,507762284
5,21,Ticks_Linear_5,274,1,48,47,508494580
5,21,Ticks_Linear_5,275,5,42,127,508508412
5,21,Ticks_Linear_5,276,5,42,127,509269420
5,21,Ticks_Linear_5,277,1,48,50,509286308
5,21,Ticks_Linear_5,278,1,48,41,510016760
5,21,Ticks_Linear_5,279,5,42,127,510029148
5,21,Ticks_Linear_5,280,5,42,127,510789188
5,21,Ticks_Linear_5,281,1,48,47,510851992
5,21,Ticks_Linear_5,282,5,42,127,511548848
5,21,Ticks_Linear_5,283,1,48,40,511553532
5,21,Ticks_Linear_5,284,1,48,45,512282440
5,21,Ticks_Linear_5,285,5,42,127,512308552
5,21,Ticks_Linear_5,286,5,42,127,513078700
5,21,Ticks_Linear_5,287,1,48,44,513082064
5,21,Ticks_Linear_5,288,1,48,40,513827156
5,21,Ticks_Linear_5,289,5,42,127,513848860
5,21,Ticks_Linear_5,290,1,48,46,514606512
5,21,Ticks_Linear_5,291,5,42,127,514619000
5,21,Ticks_Linear_5,292,1,48,43,515387416
5,21,Ticks_Linear_5,293,5,42,127,515389068
5,21,Ticks_Linear_5,294,5,42,127,516159068
5,21,Ticks_Linear_5,295,1,48,47,516166680
5,21,Ticks_Linear_5,296,1,48,48,516930360
5,21,Ticks_Linear_5,297,5,42,127,516939016
5,21,Ticks_Linear_5,298,1,48,38,517690476
5,21,Ticks_Linear_5,299,5,42,127,517719344
5,21,Ticks_Linear_5,300,5,42,127,518498704
5,21,Ticks_Linear_5,301,1,48,40,518504140
5,21,Ticks_Linear_5,302,1,48,46,519261460
5,21,Ticks_Linear_5,303,5,42,127,519278876
5,21,Ticks_Linear_5,304,5,42,127,520059360
5,21,Ticks_Linear_5,305,1,48,42,520063600
5,21,Ticks_Linear_5,306,1,48,37,520845548
5,21,Ticks_Linear_5,307,5,42,127,520848744
5,21,Ticks_Linear_5,308,1,48,37,521621016
5,21,Ticks_Linear_5,309,5,42,127,521639404
5,21,Ticks_Linear_5,310,5,42,127,522428728
5,21,Ticks_Linear_5,311,1,48,41,522446292
5,21,Ticks_Linear_5,312,5,42,127,523219536
5,21,Ticks_Linear_5,313,1,48,45,523234260
5,21,Ticks_Linear_5,314,1,48,41,523986852
5,21,Ticks_Linear_5,315,5,42,127,524008920
5,21,Ticks_Linear_5,316,1,48,37,524784556
5,21,Ticks_Linear_5,317,5,42,127,524808644
5,21,Ticks_Linear_5,318,5,42,127,525609348
5,21,Ticks_Linear_5,319,1,48,42,525621532
5,21,Ticks_Linear_5,320,5,42,127,526408948
5,21,Ticks_Linear_5,321,1,48,41,526428916
5,21,Ticks_Linear_5,322,1,48,38,527198812
5,21,Ticks_Linear_5,323,5,42,127,527208888
5,21,Ticks_Linear_5,324,5,42,127,528008544
5,21,Ticks_Linear_5,325,1,48,35,528013828
5,21,Ticks_Linear_5,326,5,42,127,528818528
5,21,Ticks_Linear_5,327,1,48,31,528835340
5,21,Ticks_Linear_5,328,1,48,35,529548108
5,21,Ticks_Linear_5,329,5,42,127,529628576
5,21,Ticks_Linear_5,330,5,42,127,530438492
5,21,Ticks_Linear_5,331,1,48,35,530440052
5,21,Ticks_Linear_5,332,5,42,127,531248472
5,21,Ticks_Linear_5,333,1,48,37,531253008
5,21,Ticks_Linear_5,334,1,48,30,532048324
5,21,Ticks_Linear_5,335,5,42,127,532058476
5,21,Ticks_Linear_5,0,9999,9999,9999,9999,422856776
5,21,Ticks_Linear_5,1,9999,9999,9999,9999,423337024
5,21,Ticks_Linear_5,2,9999,9999,9999,9999,423816304
5,21,Ticks_Linear_5,3,9999,9999,9999,9999,424296552
5,21,Ticks_Linear_5,4,9999,9999,9999,9999,424776800
5,21,Ticks_Linear_5,5,9999,9999,9999,9999,425266292
5,21,Ticks_Linear_5,6,9999,9999,9999,9999,425756780
5,21,Ticks_Linear_5,7,9999,9999,9999,9999,426246220
5,21,Ticks_Linear_5,8,9999,9999,9999,9999,426736700
5,21,Ticks_Linear_5,9,9999,9999,9999,9999,427226220
5,21,Ticks_Linear_5,10,9999,9999,9999,9999,427726964
5,21,Ticks_Linear_5,11,9999,9999,9999,9999,428226668
5,21,Ticks_Linear_5,12,9999,9999,9999,9999,428726360
5,21,Ticks_Linear_5,13,9999,9999,9999,9999,429227112
5,21,Ticks_Linear_5,14,9999,9999,9999,9999,429737064
5,21,Ticks_Linear_5,15,9999,9999,9999,9999,430247024
5,21,Ticks_Linear_5,16,9999,9999,9999,9999,430756984
5,21,Ticks_Linear_5,17,9999,9999,9999,9999,431266944
5,21,Ticks_Linear_5,18,9999,9999,9999,9999,431776828
5,21,Ticks_Linear_5,19,9999,9999,9999,9999,432286784
5,21,Ticks_Linear_5,20,9999,9999,9999,9999,432807004
5,21,Ticks_Linear_5,21,9999,9999,9999,9999,433326176
5,21,Ticks_Linear_5,22,9999,9999,9999,9999,433846392
5,21,Ticks_Linear_5,23,9999,9999,9999,9999,434366536
5,21,Ticks_Linear_5,24,9999,9999,9999,9999,434886756
5,21,Ticks_Linear_5,25,9999,9999,9999,9999,435416184
5,21,Ticks_Linear_5,26,9999,9999,9999,9999,435946588
5,21,Ticks_Linear_5,27,9999,9999,9999,9999,436476992
5,21,Ticks_Linear_5,28,9999,9999,9999,9999,437006420
5,21,Ticks_Linear_5,29,9999,9999,9999,9999,437536824
5,21,Ticks_Linear_5,30,9999,9999,9999,9999,438076516
5,21,Ticks_Linear_5,31,9999,9999,9999,9999,438616160
5,21,Ticks_Linear_5,32,9999,9999,9999,9999,439156816
5,21,Ticks_Linear_5,33,9999,9999,9999,9999,439696508
5,21,Ticks_Linear_5,34,9999,9999,9999,9999,440236160
5,21,Ticks_Linear_5,35,9999,9999,9999,9999,440787044
5,21,Ticks_Linear_5,36,9999,9999,9999,9999,441336916
5,21,Ticks_Linear_5,37,9999,9999,9999,9999,441886796
5,21,Ticks_Linear_5,38,9999,9999,9999,9999,442436688
5,21,Ticks_Linear_5,39,9999,9999,9999,9999,442986564
5,21,Ticks_Linear_5,40,9999,9999,9999,9999,443546696
5,21,Ticks_Linear_5,41,9999,9999,9999,9999,444106828
5,21,Ticks_Linear_5,42,9999,9999,9999,9999,444666968
5,21,Ticks_Linear_5,43,9999,9999,9999,9999,445227104
5,21,Ticks_Linear_5,44,9999,9999,9999,9999,445796464
5,21,Ticks_Linear_5,45,9999,9999,9999,9999,446366784
5,21,Ticks_Linear_5,46,9999,9999,9999,9999,446936136
5,21,Ticks_Linear_5,47,9999,9999,9999,9999,447506528
5,21,Ticks_Linear_5,48,9999,9999,9999,9999,448076864
5,21,Ticks_Linear_5,49,9999,9999,9999,9999,448646216
5,21,Ticks_Linear_5,50,9999,9999,9999,9999,449226860
5,21,Ticks_Linear_5,51,9999,9999,9999,9999,449806464
5,21,Ticks_Linear_5,52,9999,9999,9999,9999,450387064
5,21,Ticks_Linear_5,53,9999,9999,9999,9999,450966632
5,21,Ticks_Linear_5,54,9999,9999,9999,9999,451546200
5,21,Ticks_Linear_5,55,9999,9999,9999,9999,452137044
5,21,Ticks_Linear_5,56,9999,9999,9999,9999,452726852
5,21,Ticks_Linear_5,57,9999,9999,9999,9999,453316716
5,21,Ticks_Linear_5,58,9999,9999,9999,9999,453906504
5,21,Ticks_Linear_5,59,9999,9999,9999,9999,454496324
5,21,Ticks_Linear_5,60,9999,9999,9999,9999,455096440
5,21,Ticks_Linear_5,61,9999,9999,9999,9999,455696488
5,21,Ticks_Linear_5,62,9999,9999,9999,9999,456296568
5,21,Ticks_Linear_5,63,9999,9999,9999,9999,456896612
5,21,Ticks_Linear_5,64,9999,9999,9999,9999,457496664
5,21,Ticks_Linear_5,65,9999,9999,9999,9999,458106992
5,21,Ticks_Linear_5,66,9999,9999,9999,9999,458716252
5,21,Ticks_Linear_5,67,9999,9999,9999,9999,459326588
5,21,Ticks_Linear_5,68,9999,9999,9999,9999,459936896
5,21,Ticks_Linear_5,69,9999,9999,9999,9999,460546152
5,21,Ticks_Linear_5,70,9999,9999,9999,9999,461166676
5,21,Ticks_Linear_5,71,9999,9999,9999,9999,461786196
5,21,Ticks_Linear_5,72,9999,9999,9999,9999,462406780
5,21,Ticks_Linear_5,73,9999,9999,9999,9999,463026236
5,21,Ticks_Linear_5,74,9999,9999,9999,9999,463646804
5,21,Ticks_Linear_5,75,9999,9999,9999,9999,464276600
5,21,Ticks_Linear_5,76,9999,9999,9999,9999,464906312
5,21,Ticks_Linear_5,77,9999,9999,9999,9999,465536116
5,21,Ticks_Linear_5,78,9999,9999,9999,9999,466166860
5,21,Ticks_Linear_5,79,9999,9999,9999,9999,466796664
5,21,Ticks_Linear_5,80,9999,9999,9999,9999,467436628
5,21,Ticks_Linear_5,81,9999,9999,9999,9999,468076624
5,21,Ticks_Linear_5,82,9999,9999,9999,9999,468716652
5,21,Ticks_Linear_5,83,9999,9999,9999,9999,469356648
5,21,Ticks_Linear_5,84,9999,9999,9999,9999,469996628
5,21,Ticks_Linear_5,85,9999,9999,9999,9999,470646880
5,21,Ticks_Linear_5,86,9999,9999,9999,9999,471296128
5,21,Ticks_Linear_5,87,9999,9999,9999,9999,471946300
5,21,Ticks_Linear_5,88,9999,9999,9999,9999,472596596
5,21,Ticks_Linear_5,89,9999,9999,9999,9999,473246844
5,21,Ticks_Linear_5,90,9999,9999,9999,9999,473906280
5,21,Ticks_Linear_5,91,9999,9999,9999,9999,474566716
5,21,Ticks_Linear_5,92,9999,9999,9999,9999,475226176
5,21,Ticks_Linear_5,93,9999,9999,9999,9999,475886660
5,21,Ticks_Linear_5,94,9999,9999,9999,9999,476546112
5,21,Ticks_Linear_5,95,9999,9999,9999,9999,477216852
5,21,Ticks_Linear_5,96,9999,9999,9999,9999,477886572
5,21,Ticks_Linear_5,97,9999,9999,9999,9999,478556224
5,21,Ticks_Linear_5,98,9999,9999,9999,9999,479226956
5,21,Ticks_Linear_5,99,9999,9999,9999,9999,479896676
5,21,Ticks_Linear_5,100,9999,9999,9999,9999,480576580
5,21,Ticks_Linear_5,101,9999,9999,9999,9999,481256536
5,21,Ticks_Linear_5,102,9999,9999,9999,9999,481936508
5,21,Ticks_Linear_5,103,9999,9999,9999,9999,482616388
5,21,Ticks_Linear_5,104,9999,9999,9999,9999,483296364
5,21,Ticks_Linear_5,105,9999,9999,9999,9999,483986532
5,21,Ticks_Linear_5,106,9999,9999,9999,9999,484676688
5,21,Ticks_Linear_5,107,9999,9999,9999,9999,485366900
5,21,Ticks_Linear_5,108,9999,9999,9999,9999,486057072
5,21,Ticks_Linear_5,109,9999,9999,9999,9999,486746188
5,21,Ticks_Linear_5,110,9999,9999,9999,9999,487446652
5,21,Ticks_Linear_5,111,9999,9999,9999,9999,488147000
5,21,Ticks_Linear_5,112,9999,9999,9999,9999,488846448
5,21,Ticks_Linear_5,113,9999,9999,9999,9999,489546876
5,21,Ticks_Linear_5,114,9999,9999,9999,9999,490246220
5,21,Ticks_Linear_5,115,9999,9999,9999,9999,490956900
5,21,Ticks_Linear_5,116,9999,9999,9999,9999,491666536
5,21,Ticks_Linear_5,117,9999,9999,9999,9999,492376176
5,21,Ticks_Linear_5,118,9999,9999,9999,9999,493086824
5,21,Ticks_Linear_5,119,9999,9999,9999,9999,493796460
5,21,Ticks_Linear_5,120,9999,9999,9999,9999,494516352
5,21,Ticks_Linear_5,121,9999,9999,9999,9999,495236172
5,21,Ticks_Linear_5,122,9999,9999,9999,9999,495957112
5,21,Ticks_Linear_5,123,9999,9999,9999,9999,496676980
5,21,Ticks_Linear_5,124,9999,9999,9999,9999,497396800
5,21,Ticks_Linear_5,125,9999,9999,9999,9999,498126952
5,21,Ticks_Linear_5,126,9999,9999,9999,9999,498857028
5,21,Ticks_Linear_5,127,9999,9999,9999,9999,499586136
5,21,Ticks_Linear_5,128,9999,9999,9999,9999,500316220
5,21,Ticks_Linear_5,129,9999,9999,9999,9999,501046340
5,21,Ticks_Linear_5,130,9999,9999,9999,9999,501786736
5,21,Ticks_Linear_5,131,9999,9999,9999,9999,502527072
5,21,Ticks_Linear_5,132,9999,9999,9999,9999,503266388
5,21,Ticks_Linear_5,133,9999,9999,9999,9999,504006720
5,21,Ticks_Linear_5,134,9999,9999,9999,9999,504747136
5,21,Ticks_Linear_5,135,9999,9999,9999,9999,505506940
5,21,Ticks_Linear_5,136,9999,9999,9999,9999,506256496
5,21,Ticks_Linear_5,137,9999,9999,9999,9999,507007092
5,21,Ticks_Linear_5,138,9999,9999,9999,9999,507756644
5,21,Ticks_Linear_5,139,9999,9999,9999,9999,508506184
5,21,Ticks_Linear_5,140,9999,9999,9999,9999,509267048
5,21,Ticks_Linear_5,141,9999,9999,9999,9999,510026852
5,21,Ticks_Linear_5,142,9999,9999,9999,9999,510786664
5,21,Ticks_Linear_5,143,9999,9999,9999,9999,511546476
5,21,Ticks_Linear_5,144,9999,9999,9999,9999,512306252
5,21,Ticks_Linear_5,145,9999,9999,9999,9999,513076324
5,21,Ticks_Linear_5,146,9999,9999,9999,9999,513846388
5,21,Ticks_Linear_5,147,9999,9999,9999,9999,514616408
5,21,Ticks_Linear_5,148,9999,9999,9999,9999,515386480
5,21,Ticks_Linear_5,149,9999,9999,9999,9999,516156472
5,21,Ticks_Linear_5,150,9999,9999,9999,9999,516936792
5,21,Ticks_Linear_5,151,9999,9999,9999,9999,517717120
5,21,Ticks_Linear_5,152,9999,9999,9999,9999,518496332
5,21,Ticks_Linear_5,153,9999,9999,9999,9999,519276652
5,21,Ticks_Linear_5,154,9999,9999,9999,9999,520056912
5,21,Ticks_Linear_5,155,9999,9999,9999,9999,520846444
5,21,Ticks_Linear_5,156,9999,9999,9999,9999,521636956
5,21,Ticks_Linear_5,157,9999,9999,9999,9999,522426428
5,21,Ticks_Linear_5,158,9999,9999,9999,9999,523217016
5,21,Ticks_Linear_5,159,9999,9999,9999,9999,524006472
5,21,Ticks_Linear_5,160,9999,9999,9999,9999,524806272
5,21,Ticks_Linear_5,161,9999,9999,9999,9999,525606976
5,21,Ticks_Linear_5,162,9999,9999,9999,9999,526406724
5,21,Ticks_Linear_5,163,9999,9999,9999,9999,527206516
5,21,Ticks_Linear_5,164,9999,9999,9999,9999,528006244
5,21,Ticks_Linear_5,165,9999,9999,9999,9999,528816228
5,21,Ticks_Linear_5,166,9999,9999,9999,9999,529626204
5,21,Ticks_Linear_5,167,9999,9999,9999,9999,530436192
5,21,Ticks_Linear_5,168,9999,9999,9999,9999,531246176
5,21,Ticks_Linear_5,169,9999,9999,9999,9999,532056176
6,20,Ticks_Linear_8,0,5,42,127,544583092
6,20,Ticks_Linear_8,1,5,42,127,545403356
6,20,Ticks_Linear_8,2,5,42,127,546222500
6,20,Ticks_Linear_8,3,5,42,127,547042540
6,20,Ticks_Linear_8,4,5,42,127,547862804
6,20,Ticks_Linear_8,5,1,48,43,547885544
6,20,Ticks_Linear_8,6,1,48,58,548656936
6,20,Ticks_Linear_8,7,5,42,127,548672880
6,20,Ticks_Linear_8,8,5,42,127,549482868
6,20,Ticks_Linear_8,9,1,48,54,549488908
6,20,Ticks_Linear_8,10,5,42,127,550292928
6,20,Ticks_Linear_8,11,1,48,47,550309372
6,20,Ticks_Linear_8,12,1,48,53,551079044
6,20,Ticks_Linear_8,13,5,42,127,551102828
6,20,Ticks_Linear_8,14,1,48,53,551912968
6,20,Ticks_Linear_8,15,5,42,127,551914452
6,20,Ticks_Linear_8,16,5,42,127,552712540
6,20,Ticks_Linear_8,17,1,48,50,552731392
6,20,Ticks_Linear_8,18,5,42,127,553513312
6,20,Ticks_Linear_8,19,1,48,53,553530544
6,20,Ticks_Linear_8,20,1,48,49,554305600
6,20,Ticks_Linear_8,21,5,42,127,554313276
6,20,Ticks_Linear_8,22,5,42,127,555112860
6,20,Ticks_Linear_8,23,1,48,51,555133356
6,20,Ticks_Linear_8,24,5,42,127,555912584
6,20,Ticks_Linear_8,25,1,48,45,555948500
6,20,Ticks_Linear_8,26,1,48,46,556702872
6,20,Ticks_Linear_8,27,5,42,127,556704504
6,20,Ticks_Linear_8,28,5,42,127,557492560
6,20,Ticks_Linear_8,29,1,48,46,557506840
6,20,Ticks_Linear_8,30,5,42,127,558283072
6,20,Ticks_Linear_8,31,1,48,52,558320260
6,20,Ticks_Linear_8,32,5,42,127,559072760
6,20,Ticks_Linear_8,33,1,48,54,559079024
6,20,Ticks_Linear_8,34,5,42,127,559863124
6,20,Ticks_Linear_8,35,1,48,48,559890200
6,20,Ticks_Linear_8,36,5,42,127,560642556
6,20,Ticks_Linear_8,37,1,48,50,560654736
6,20,Ticks_Linear_8,38,5,42,127,561422880
6,20,Ticks_Linear_8,39,1,48,42,561453932
6,20,Ticks_Linear_8,40,5,42,127,562202912
6,20,Ticks_Linear_8,41,1,48,56,562247240
6,20,Ticks_Linear_8,42,5,42,127,562983236
6,20,Ticks_Linear_8,43,1,48,51,562994372
6,20,Ticks_Linear_8,44,5,42,127,563762592
6,20,Ticks_Linear_8,45,1,48,47,563774576
6,20,Ticks_Linear_8,46,5,42,127,564532980
6,20,Ticks_Linear_8,47,1,48,41,564551608
6,20,Ticks_Linear_8,48,5,42,127,565302600
6,20,Ticks_Linear_8,49,1,48,38,565366448
6,20,Ticks_Linear_8,50,5,42,127,566072820
6,20,Ticks_Linear_8,51,1,48,47,566077736
6,20,Ticks_Linear_8,52,1,48,48,566818248
6,20,Ticks_Linear_8,53,5,42,127,566842880
6,20,Ticks_Linear_8,54,5,42,127,567612880
6,20,Ticks_Linear_8,55,1,48,54,567662580
6,20,Ticks_Linear_8,56,1,48,53,568363928
6,20,Ticks_Linear_8,57,5,42,127,568372608
6,20,Ticks_Linear_8,58,5,42,127,569133444
6,20,Ticks_Linear_8,59,1,48,45,569156960
6,20,Ticks_Linear_8,60,1,48,47,569894256
6,20,Ticks_Linear_8,61,5,42,127,569902684
6,20,Ticks_Linear_8,62,5,42,127,570663468
6,20,Ticks_Linear_8,63,1,48,29,570681972
6,20,Ticks_Linear_8,64,5,42,127,571423056
6,20,Ticks_Linear_8,65,1,48,33,571438604
6,20,Ticks_Linear_8,66,1,38,11,571450988
6,20,Ticks_Linear_8,67,5,42,127,572172796
6,20,Ticks_Linear_8,68,1,48,40,572183476
6,20,Ticks_Linear_8,69,5,42,127,572923388
6,20,Ticks_Linear_8,70,1,48,37,572960724
6,20,Ticks_Linear_8,71,1,48,44,573672112
6,20,Ticks_Linear_8,72,5,42,127,573673832
6,20,Ticks_Linear_8,73,5,42,127,574423316
6,20,Ticks_Linear_8,74,1,48,39,574449124
6,20,Ticks_Linear_8,75,5,42,127,575172940
6,20,Ticks_Linear_8,76,1,48,43,575173832
6,20,Ticks_Linear_8,77,5,42,127,575913204
6,20,Ticks_Linear_8,78,1,48,24,575995104
6,20,Ticks_Linear_8,79,5,42,127,576652716
6,20,Ticks_Linear_8,80,1,48,46,576658456
6,20,Ticks_Linear_8,81,5,42,127,577393128
6,20,Ticks_Linear_8,82,1,48,40,577412132
6,20,Ticks_Linear_8,83,5,42,127,578133316
6,20,Ticks_Linear_8,84,1,48,49,578138680
6,20,Ticks_Linear_8,85,5,42,127,578872608
6,20,Ticks_Linear_8,86,1,48,48,578878416
6,20,Ticks_Linear_8,87,5,42,127,579602884
6,20,Ticks_Linear_8,88,1,48,38,579605404
6,20,Ticks_Linear_8,89,5,42,127,580332888
6,20,Ticks_Linear_8,90,1,48,42,580340884
6,20,Ticks_Linear_8,91,1,48,40,581046592
6,20,Ticks_Linear_8,92,5,42,127,581063184
6,20,Ticks_Linear_8,93,5,42,127,581793120
6,20,Ticks_Linear_8,94,1,48,41,581797880
6,20,Ticks_Linear_8,95,5,42,127,582523348
6,20,Ticks_Linear_8,96,1,48,38,582558588
6,20,Ticks_Linear_8,97,5,42,127,583243164
6,20,Ticks_Linear_8,98,1,48,33,583256248
6,20,Ticks_Linear_8,99,5,42,127,583963108
6,20,Ticks_Linear_8,100,1,48,32,583965708
6,20,Ticks_Linear_8,101,1,48,39,584653904
6,20,Ticks_Linear_8,102,5,42,127,584682772
6,20,Ticks_Linear_8,103,5,42,127,585402896
6,20,Ticks_Linear_8,104,1,48,43,585422872
6,20,Ticks_Linear_8,105,1,48,39,586107684
6,20,Ticks_Linear_8,106,5,42,127,586122860
6,20,Ticks_Linear_8,107,5,42,127,586833248
6,20,Ticks_Linear_8,108,1,48,37,586890520
6,20,Ticks_Linear_8,109,1,48,43,587509704
6,20,Ticks_Linear_8,110,5,42,127,587542780
6,20,Ticks_Linear_8,111,1,48,33,588237992
6,20,Ticks_Linear_8,112,5,42,127,588252932
6,20,Ticks_Linear_8,113,1,48,39,588936988
6,20,Ticks_Linear_8,114,5,42,127,588963168
6,20,Ticks_Linear_8,115,1,48,33,589636664
6,20,Ticks_Linear_8,116,5,42,127,589672804
6,20,Ticks_Linear_8,117,1,48,46,590371768
6,20,Ticks_Linear_8,118,5,42,127,590373496
6,20,Ticks_Linear_8,119,1,48,48,591055608
6,20,Ticks_Linear_8,120,5,42,127,591072580
6,20,Ticks_Linear_8,121,5,42,127,591773132
6,20,Ticks_Linear_8,122,1,48,51,591817960
6,20,Ticks_Linear_8,123,5,42,127,592472432
6,20,Ticks_Linear_8,124,1,48,54,592478244
6,20,Ticks_Linear_8,125,1,48,40,593145520
6,20,Ticks_Linear_8,126,5,42,127,593172748
6,20,Ticks_Linear_8,127,5,42,127,593862992
6,20,Ticks_Linear_8,128,1,48,46,593882960
6,20,Ticks_Linear_8,129,5,42,127,594553304
6,20,Ticks_Linear_8,130,1,48,47,594590192
6,20,Ticks_Linear_8,131,5,42,127,595243368
6,20,Ticks_Linear_8,132,1,48,37,595244776
6,20,Ticks_Linear_8,133,1,48,32,595932336
6,20,Ticks_Linear_8,134,5,42,127,595934116
6,20,Ticks_Linear_8,135,5,42,127,596622648
6,20,Ticks_Linear_8,136,1,48,33,596629504
6,20,Ticks_Linear_8,137,5,42,127,597302776
6,20,Ticks_Linear_8,138,1,48,42,597306340
6,20,Ticks_Linear_8,139,1,48,39,597980384
6,20,Ticks_Linear_8,140,5,42,127,597982500
6,20,Ticks_Linear_8,141,5,42,127,598662560
6,20,Ticks_Linear_8,142,1,48,50,598680652
6,20,Ticks_Linear_8,143,1,48,47,599327408
6,20,Ticks_Linear_8,144,5,42,127,599342356
6,20,Ticks_Linear_8,145,1,48,37,600007012
6,20,Ticks_Linear_8,146,5,42,127,600023384
6,20,Ticks_Linear_8,147,5,42,127,600693184
6,20,Ticks_Linear_8,148,1,48,46,600696152
6,20,Ticks_Linear_8,149,5,42,127,601363100
6,20,Ticks_Linear_8,150,1,48,42,601365468
6,20,Ticks_Linear_8,151,5,42,127,602032448
6,20,Ticks_Linear_8,152,1,48,29,602062084
6,20,Ticks_Linear_8,153,1,38,9,602074120
6,20,Ticks_Linear_8,154,1,48,41,602676696
6,20,Ticks_Linear_8,155,5,42,127,602703172
6,20,Ticks_Linear_8,156,5,42,127,603372948
6,20,Ticks_Linear_8,157,1,48,37,603395392
6,20,Ticks_Linear_8,158,5,42,127,604033384
6,20,Ticks_Linear_8,159,1,48,28,604070344
6,20,Ticks_Linear_8,160,5,42,127,604692968
6,20,Ticks_Linear_8,161,1,48,32,604735876
6,20,Ticks_Linear_8,162,1,48,41,605341900
6,20,Ticks_Linear_8,163,5,42,127,605353320
6,20,Ticks_Linear_8,164,1,48,44,606000364
6,20,Ticks_Linear_8,165,5,42,127,606012976
6,20,Ticks_Linear_8,166,5,42,127,606673168
6,20,Ticks_Linear_8,167,1,48,34,606689012
6,20,Ticks_Linear_8,168,5,42,127,607322516
6,20,Ticks_Linear_8,169,1,48,42,607330272
6,20,Ticks_Linear_8,170,1,48,42,607944608
6,20,Ticks_Linear_8,171,5,42,127,607972884
6,20,Ticks_Linear_8,172,5,42,127,608622988
6,20,Ticks_Linear_8,173,1,48,33,608639508
6,20,Ticks_Linear_8,174,5,42,127,609273140
6,20,Ticks_Linear_8,175,1,48,37,609291764
6,20,Ticks_Linear_8,176,1,48,36,609866568
6,20,Ticks_Linear_8,177,5,42,127,609922556
6,20,Ticks_Linear_8,178,5,42,127,610562380
6,20,Ticks_Linear_8,179,1,48,31,610623112
6,20,Ticks_Linear_8,180,5,42,127,611202516
6,20,Ticks_Linear_8,181,1,48,30,611226980
6,20,Ticks_Linear_8,182,1,48,37,611807684
6,20,Ticks_Linear_8,183,5,42,127,611842476
6,20,Ticks_Linear_8,184,1,48,36,612454040
6,20,Ticks_Linear_8,185,5,42,127,612482464
6,20,Ticks_Linear_8,186,5,42,127,613122512
6,20,Ticks_Linear_8,187,1,48,38,613154916
6,20,Ticks_Linear_8,188,5,42,127,613753064
6,20,Ticks_Linear_8,189,1,48,38,613792728
6,20,Ticks_Linear_8,190,1,48,42,614366692
6,20,Ticks_Linear_8,191,5,42,127,614383060
6,20,Ticks_Linear_8,192,1,48,42,614974780
6,20,Ticks_Linear_8,193,5,42,127,615012792
6,20,Ticks_Linear_8,194,1,48,46,615628668
6,20,Ticks_Linear_8,195,5,42,127,615642496
6,20,Ticks_Linear_8,196,5,42,127,616273500
6,20,Ticks_Linear_8,197,1,48,45,616287332
6,20,Ticks_Linear_8,198,1,48,41,616870428
6,20,Ticks_Linear_8,199,5,42,127,616892792
6,20,Ticks_Linear_8,200,5,42,127,617513440
6,20,Ticks_Linear_8,201,1,48,50,617556052
6,20,Ticks_Linear_8,202,1,48,43,618110688
6,20,Ticks_Linear_8,203,5,42,127,618132756
6,20,Ticks_Linear_8,204,1,48,43,618728264
6,20,Ticks_Linear_8,205,5,42,127,618753472
6,20,Ticks_Linear_8,206,1,48,40,619361748
6,20,Ticks_Linear_8,207,5,42,127,619373016
6,20,Ticks_Linear_8,208,5,42,127,619983408
6,20,Ticks_Linear_8,209,1,48,43,619984372
6,20,Ticks_Linear_8,210,5,42,127,620592544
6,20,Ticks_Linear_8,211,1,48,53,620599332
6,20,Ticks_Linear_8,212,5,42,127,621202704
6,20,Ticks_Linear_8,213,1,48,51,621214136
6,20,Ticks_Linear_8,214,1,48,41,621813384
6,20,Ticks_Linear_8,215,5,42,127,621814720
6,20,Ticks_Linear_8,216,5,42,127,622423420
6,20,Ticks_Linear_8,217,1,48,38,622445112
6,20,Ticks_Linear_8,218,5,42,127,623022500
6,20,Ticks_Linear_8,219,1,48,40,623043144
6,20,Ticks_Linear_8,220,5,42,127,623622472
6,20,Ticks_Linear_8,221,1,48,43,623630544
6,20,Ticks_Linear_8,222,1,48,46,624204148
6,20,Ticks_Linear_8,223,5,42,127,624222540
6,20,Ticks_Linear_8,224,1,48,49,624820620
6,20,Ticks_Linear_8,225,5,42,127,624822588
6,20,Ticks_Linear_8,226,5,42,127,625422644
6,20,Ticks_Linear_8,227,1,48,46,625998052
6,20,Ticks_Linear_8,228,5,42,127,626012400
6,20,Ticks_Linear_8,229,5,42,127,626603316
6,20,Ticks_Linear_8,230,1,48,47,626610096
6,20,Ticks_Linear_8,231,5,42,127,627193180
6,20,Ticks_Linear_8,232,1,48,52,627203712
6,20,Ticks_Linear_8,233,5,42,127,627782920
6,20,Ticks_Linear_8,234,1,48,43,627797044
6,20,Ticks_Linear_8,235,5,42,127,628372860
6,20,Ticks_Linear_8,236,1,48,45,628385412
6,20,Ticks_Linear_8,237,5,42,127,628952388
6,20,Ticks_Linear_8,238,1,48,49,628983144
6,20,Ticks_Linear_8,239,5,42,127,629533116
6,20,Ticks_Linear_8,240,1,48,44,629565316
6,20,Ticks_Linear_8,241,5,42,127,630112820
6,20,Ticks_Linear_8,242,1,48,43,630113788
6,20,Ticks_Linear_8,243,1,48,36,630691584
6,20,Ticks_Linear_8,244,5,42,127,630693240
6,20,Ticks_Linear_8,245,1,48,47,631268080
6,20,Ticks_Linear_8,246,5,42,127,631272848
6,20,Ticks_Linear_8,247,5,42,127,631843172
6,20,Ticks_Linear_8,248,1,48,50,631854456
6,20,Ticks_Linear_8,249,1,48,46,632398460
6,20,Ticks_Linear_8,250,5,42,127,632412512
6,20,Ticks_Linear_8,251,5,42,127,632982908
6,20,Ticks_Linear_8,252,1,48,42,632994640
6,20,Ticks_Linear_8,253,1,48,40,633517532
6,20,Ticks_Linear_8,254,5,42,127,633553372
6,20,Ticks_Linear_8,255,5,42,127,634122576
6,20,Ticks_Linear_8,256,1,48,42,634173504
6,20,Ticks_Linear_8,257,5,42,127,634682884
6,20,Ticks_Linear_8,258,1,48,40,634690192
6,20,Ticks_Linear_8,259,5,42,127,635242796
6,20,Ticks_Linear_8,260,1,48,39,635249056
6,20,Ticks_Linear_8,261,1,48,35,635785284
6,20,Ticks_Linear_8,262,5,42,127,635803000
6,20,Ticks_Linear_8,263,5,42,127,636363064
6,20,Ticks_Linear_8,264,1,48,41,636381092
6,20,Ticks_Linear_8,265,1,48,30,636897388
6,20,Ticks_Linear_8,266,5,42,127,636923264
6,20,Ticks_Linear_8,267,5,42,127,637473148
6,20,Ticks_Linear_8,268,1,48,42,637516280
6,20,Ticks_Linear_8,269,5,42,127,638022900
6,20,Ticks_Linear_8,270,1,48,33,638032684
6,20,Ticks_Linear_8,271,1,48,37,638573368
6,20,Ticks_Linear_8,272,5,42,127,638574712
6,20,Ticks_Linear_8,273,1,48,30,639104104
6,20,Ticks_Linear_8,274,5,42,127,639122940
6,20,Ticks_Linear_8,275,1,48,38,639661768
6,20,Ticks_Linear_8,276,5,42,127,639672668
6,20,Ticks_Linear_8,277,5,42,127,640213332
6,20,Ticks_Linear_8,278,1,48,43,640230456
6,20,Ticks_Linear_8,279,5,42,127,640753100
6,20,Ticks_Linear_8,280,1,48,45,640777860
6,20,Ticks_Linear_8,281,1,48,39,641275292
6,20,Ticks_Linear_8,282,5,42,127,641292632
6,20,Ticks_Linear_8,283,1,48,44,641793340
6,20,Ticks_Linear_8,284,5,42,127,641833440
6,20,Ticks_Linear_8,285,5,42,127,642372940
6,20,Ticks_Linear_8,286,1,48,40,642391196
6,20,Ticks_Linear_8,287,1,48,35,642894312
6,20,Ticks_Linear_8,288,5,42,127,642903336
6,20,Ticks_Linear_8,289,5,42,127,643433072
6,20,Ticks_Linear_8,290,1,48,42,643450940
6,20,Ticks_Linear_8,291,1,48,40,643952948
6,20,Ticks_Linear_8,292,5,42,127,643963244
6,20,Ticks_Linear_8,293,5,42,127,644492608
6,20,Ticks_Linear_8,294,1,48,37,644496852
6,20,Ticks_Linear_8,295,1,48,34,644990528
6,20,Ticks_Linear_8,296,5,42,127,645023228
6,20,Ticks_Linear_8,297,1,48,35,645532928
6,20,Ticks_Linear_8,298,5,42,127,645543224
6,20,Ticks_Linear_8,299,5,42,127,646062332
6,20,Ticks_Linear_8,300,1,48,32,646063296
6,20,Ticks_Linear_8,301,1,48,34,646579276
6,20,Ticks_Linear_8,302,5,42,127,646582540
6,20,Ticks_Linear_8,303,5,42,127,647102988
6,20,Ticks_Linear_8,304,1,48,38,647119888
6,20,Ticks_Linear_8,305,1,48,31,647594256
6,20,Ticks_Linear_8,306,5,42,127,647623056
6,20,Ticks_Linear_8,307,1,48,32,648126004
6,20,Ticks_Linear_8,308,5,42,127,648133088
6,20,Ticks_Linear_8,309,1,48,36,648633268
6,20,Ticks_Linear_8,310,5,42,127,648642824
6,20,Ticks_Linear_8,311,1,48,37,649151584
6,20,Ticks_Linear_8,312,5,42,127,649153304
6,20,Ticks_Linear_8,313,1,48,41,649649292
6,20,Ticks_Linear_8,314,5,42,127,649662964
6,20,Ticks_Linear_8,315,5,42,127,650172860
6,20,Ticks_Linear_8,316,1,48,44,650195672
6,20,Ticks_Linear_8,317,1,48,32,650655580
6,20,Ticks_Linear_8,318,5,42,127,650672552
6,20,Ticks_Linear_8,319,5,42,127,651173304
6,20,Ticks_Linear_8,320,1,48,32,651178520
6,20,Ticks_Linear_8,321,1,48,30,651665916
6,20,Ticks_Linear_8,322,5,42,127,651673000
6,20,Ticks_Linear_8,323,1,48,38,652162624
6,20,Ticks_Linear_8,324,5,42,127,652172772
6,20,Ticks_Linear_8,325,1,48,38,652658348
6,20,Ticks_Linear_8,326,5,42,127,652673296
6,20,Ticks_Linear_8,327,1,48,37,653145696
6,20,Ticks_Linear_8,328,5,42,127,653162812
6,20,Ticks_Linear_8,329,5,42,127,653653232
6,20,Ticks_Linear_8,330,1,48,33,653656728
6,20,Ticks_Linear_8,331,5,42,127,654142824
6,20,Ticks_Linear_8,332,1,48,42,654148860
6,20,Ticks_Linear_8,333,5,42,127,654633212
6,20,Ticks_Linear_8,334,1,48,43,654655300
6,20,Ticks_Linear_8,335,5,42,127,655122952
6,20,Ticks_Linear_8,0,9999,9999,9999,9999,544580720
6,20,Ticks_Linear_8,1,9999,9999,9999,9999,545400908
6,20,Ticks_Linear_8,2,9999,9999,9999,9999,546220128
6,20,Ticks_Linear_8,3,9999,9999,9999,9999,547040316
6,20,Ticks_Linear_8,4,9999,9999,9999,9999,547860580
6,20,Ticks_Linear_8,5,9999,9999,9999,9999,548670580
6,20,Ticks_Linear_8,6,9999,9999,9999,9999,549480572
6,20,Ticks_Linear_8,7,9999,9999,9999,9999,550290552
6,20,Ticks_Linear_8,8,9999,9999,9999,9999,551100532
6,20,Ticks_Linear_8,9,9999,9999,9999,9999,551910520
6,20,Ticks_Linear_8,10,9999,9999,9999,9999,552710244
6,20,Ticks_Linear_8,11,9999,9999,9999,9999,553511012
6,20,Ticks_Linear_8,12,9999,9999,9999,9999,554310756
6,20,Ticks_Linear_8,13,9999,9999,9999,9999,555110484
6,20,Ticks_Linear_8,14,9999,9999,9999,9999,555910208
6,20,Ticks_Linear_8,15,9999,9999,9999,9999,556700796
6,20,Ticks_Linear_8,16,9999,9999,9999,9999,557490260
6,20,Ticks_Linear_8,17,9999,9999,9999,9999,558280772
6,20,Ticks_Linear_8,18,9999,9999,9999,9999,559070312
6,20,Ticks_Linear_8,19,9999,9999,9999,9999,559860824
6,20,Ticks_Linear_8,20,9999,9999,9999,9999,560640108
6,20,Ticks_Linear_8,21,9999,9999,9999,9999,561420360
6,20,Ticks_Linear_8,22,9999,9999,9999,9999,562200684
6,20,Ticks_Linear_8,23,9999,9999,9999,9999,562980936
6,20,Ticks_Linear_8,24,9999,9999,9999,9999,563760216
6,20,Ticks_Linear_8,25,9999,9999,9999,9999,564530284
6,20,Ticks_Linear_8,26,9999,9999,9999,9999,565300304
6,20,Ticks_Linear_8,27,9999,9999,9999,9999,566070372
6,20,Ticks_Linear_8,28,9999,9999,9999,9999,566840432
6,20,Ticks_Linear_8,29,9999,9999,9999,9999,567610432
6,20,Ticks_Linear_8,30,9999,9999,9999,9999,568370284
6,20,Ticks_Linear_8,31,9999,9999,9999,9999,569131072
6,20,Ticks_Linear_8,32,9999,9999,9999,9999,569900088
6,20,Ticks_Linear_8,33,9999,9999,9999,9999,570660948
6,20,Ticks_Linear_8,34,9999,9999,9999,9999,571420756
6,20,Ticks_Linear_8,35,9999,9999,9999,9999,572170348
6,20,Ticks_Linear_8,36,9999,9999,9999,9999,572920940
6,20,Ticks_Linear_8,37,9999,9999,9999,9999,573670492
6,20,Ticks_Linear_8,38,9999,9999,9999,9999,574421092
6,20,Ticks_Linear_8,39,9999,9999,9999,9999,575170640
6,20,Ticks_Linear_8,40,9999,9999,9999,9999,575910980
6,20,Ticks_Linear_8,41,9999,9999,9999,9999,576650344
6,20,Ticks_Linear_8,42,9999,9999,9999,9999,577390680
6,20,Ticks_Linear_8,43,9999,9999,9999,9999,578131016
6,20,Ticks_Linear_8,44,9999,9999,9999,9999,578870384
6,20,Ticks_Linear_8,45,9999,9999,9999,9999,579600436
6,20,Ticks_Linear_8,46,9999,9999,9999,9999,580330592
6,20,Ticks_Linear_8,47,9999,9999,9999,9999,581060660
6,20,Ticks_Linear_8,48,9999,9999,9999,9999,581790820
6,20,Ticks_Linear_8,49,9999,9999,9999,9999,582520896
6,20,Ticks_Linear_8,50,9999,9999,9999,9999,583240792
6,20,Ticks_Linear_8,51,9999,9999,9999,9999,583960660
6,20,Ticks_Linear_8,52,9999,9999,9999,9999,584680548
6,20,Ticks_Linear_8,53,9999,9999,9999,9999,585400372
6,20,Ticks_Linear_8,54,9999,9999,9999,9999,586120260
6,20,Ticks_Linear_8,55,9999,9999,9999,9999,586830948
6,20,Ticks_Linear_8,56,9999,9999,9999,9999,587540556
6,20,Ticks_Linear_8,57,9999,9999,9999,9999,588250188
6,20,Ticks_Linear_8,58,9999,9999,9999,9999,588960868
6,20,Ticks_Linear_8,59,9999,9999,9999,9999,589670504
6,20,Ticks_Linear_8,60,9999,9999,9999,9999,590370908
6,20,Ticks_Linear_8,61,9999,9999,9999,9999,591070280
6,20,Ticks_Linear_8,62,9999,9999,9999,9999,591770684
6,20,Ticks_Linear_8,63,9999,9999,9999,9999,592470132
6,20,Ticks_Linear_8,64,9999,9999,9999,9999,593170524
6,20,Ticks_Linear_8,65,9999,9999,9999,9999,593860692
6,20,Ticks_Linear_8,66,9999,9999,9999,9999,594550856
6,20,Ticks_Linear_8,67,9999,9999,9999,9999,595241068
6,20,Ticks_Linear_8,68,9999,9999,9999,9999,595930184
6,20,Ticks_Linear_8,69,9999,9999,9999,9999,596620348
6,20,Ticks_Linear_8,70,9999,9999,9999,9999,597300328
6,20,Ticks_Linear_8,71,9999,9999,9999,9999,597980236
6,20,Ticks_Linear_8,72,9999,9999,9999,9999,598660184
6,20,Ticks_Linear_8,73,9999,9999,9999,9999,599340132
6,20,Ticks_Linear_8,74,9999,9999,9999,9999,600021084
6,20,Ticks_Linear_8,75,9999,9999,9999,9999,600690808
6,20,Ticks_Linear_8,76,9999,9999,9999,9999,601360504
6,20,Ticks_Linear_8,77,9999,9999,9999,9999,602030152
6,20,Ticks_Linear_8,78,9999,9999,9999,9999,602700876
6,20,Ticks_Linear_8,79,9999,9999,9999,9999,603370576
6,20,Ticks_Linear_8,80,9999,9999,9999,9999,604031084
6,20,Ticks_Linear_8,81,9999,9999,9999,9999,604690520
6,20,Ticks_Linear_8,82,9999,9999,9999,9999,605351020
6,20,Ticks_Linear_8,83,9999,9999,9999,9999,606010456
6,20,Ticks_Linear_8,84,9999,9999,9999,9999,606670944
6,20,Ticks_Linear_8,85,9999,9999,9999,9999,607320144
6,20,Ticks_Linear_8,86,9999,9999,9999,9999,607970360
6,20,Ticks_Linear_8,87,9999,9999,9999,9999,608620616
6,20,Ticks_Linear_8,88,9999,9999,9999,9999,609270840
6,20,Ticks_Linear_8,89,9999,9999,9999,9999,609920108
6,20,Ticks_Linear_8,90,9999,9999,9999,9999,610560080
6,20,Ticks_Linear_8,91,9999,9999,9999,9999,611200068
6,20,Ticks_Linear_8,92,9999,9999,9999,9999,611840100
6,20,Ticks_Linear_8,93,9999,9999,9999,9999,612480092
6,20,Ticks_Linear_8,94,9999,9999,9999,9999,613120064
6,20,Ticks_Linear_8,95,9999,9999,9999,9999,613750840
6,20,Ticks_Linear_8,96,9999,9999,9999,9999,614380612
6,20,Ticks_Linear_8,97,9999,9999,9999,9999,615010416
6,20,Ticks_Linear_8,98,9999,9999,9999,9999,615640124
6,20,Ticks_Linear_8,99,9999,9999,9999,9999,616270904
6,20,Ticks_Linear_8,100,9999,9999,9999,9999,616890492
6,20,Ticks_Linear_8,101,9999,9999,9999,9999,617510992
6,20,Ticks_Linear_8,102,9999,9999,9999,9999,618130532
6,20,Ticks_Linear_8,103,9999,9999,9999,9999,618751100
6,20,Ticks_Linear_8,104,9999,9999,9999,9999,619370568
6,20,Ticks_Linear_8,105,9999,9999,9999,9999,619980884
6,20,Ticks_Linear_8,106,9999,9999,9999,9999,620590148
6,20,Ticks_Linear_8,107,9999,9999,9999,9999,621200480
6,20,Ticks_Linear_8,108,9999,9999,9999,9999,621810788
6,20,Ticks_Linear_8,109,9999,9999,9999,9999,622421120
6,20,Ticks_Linear_8,110,9999,9999,9999,9999,623020124
6,20,Ticks_Linear_8,111,9999,9999,9999,9999,623620176
6,20,Ticks_Linear_8,112,9999,9999,9999,9999,624220240
6,20,Ticks_Linear_8,113,9999,9999,9999,9999,624820328
6,20,Ticks_Linear_8,114,9999,9999,9999,9999,625420344
6,20,Ticks_Linear_8,115,9999,9999,9999,9999,626010176
6,20,Ticks_Linear_8,116,9999,9999,9999,9999,626601016
6,20,Ticks_Linear_8,117,9999,9999,9999,9999,627190880
6,20,Ticks_Linear_8,118,9999,9999,9999,9999,627780696
6,20,Ticks_Linear_8,119,9999,9999,9999,9999,628370556
6,20,Ticks_Linear_8,120,9999,9999,9999,9999,628950088
6,20,Ticks_Linear_8,121,9999,9999,9999,9999,629530744
6,20,Ticks_Linear_8,122,9999,9999,9999,9999,630110300
6,20,Ticks_Linear_8,123,9999,9999,9999,9999,630690880
6,20,Ticks_Linear_8,124,9999,9999,9999,9999,631270472
6,20,Ticks_Linear_8,125,9999,9999,9999,9999,631840872
6,20,Ticks_Linear_8,126,9999,9999,9999,9999,632410212
6,20,Ticks_Linear_8,127,9999,9999,9999,9999,632980536
6,20,Ticks_Linear_8,128,9999,9999,9999,9999,633550924
6,20,Ticks_Linear_8,129,9999,9999,9999,9999,634120276
6,20,Ticks_Linear_8,130,9999,9999,9999,9999,634680436
6,20,Ticks_Linear_8,131,9999,9999,9999,9999,635240572
6,20,Ticks_Linear_8,132,9999,9999,9999,9999,635800700
6,20,Ticks_Linear_8,133,9999,9999,9999,9999,636360764
6,20,Ticks_Linear_8,134,9999,9999,9999,9999,636920892
6,20,Ticks_Linear_8,135,9999,9999,9999,9999,637470772
6,20,Ticks_Linear_8,136,9999,9999,9999,9999,638020672
6,20,Ticks_Linear_8,137,9999,9999,9999,9999,638570624
6,20,Ticks_Linear_8,138,9999,9999,9999,9999,639120492
6,20,Ticks_Linear_8,139,9999,9999,9999,9999,639670368
6,20,Ticks_Linear_8,140,9999,9999,9999,9999,640211036
6,20,Ticks_Linear_8,141,9999,9999,9999,9999,640750652
6,20,Ticks_Linear_8,142,9999,9999,9999,9999,641290336
6,20,Ticks_Linear_8,143,9999,9999,9999,9999,641830996
6,20,Ticks_Linear_8,144,9999,9999,9999,9999,642370640
6,20,Ticks_Linear_8,145,9999,9999,9999,9999,642901112
6,20,Ticks_Linear_8,146,9999,9999,9999,9999,643430476
6,20,Ticks_Linear_8,147,9999,9999,9999,9999,643960948
6,20,Ticks_Linear_8,148,9999,9999,9999,9999,644490308
6,20,Ticks_Linear_8,149,9999,9999,9999,9999,645020780
6,20,Ticks_Linear_8,150,9999,9999,9999,9999,645540928
6,20,Ticks_Linear_8,151,9999,9999,9999,9999,646060104
6,20,Ticks_Linear_8,152,9999,9999,9999,9999,646580316
6,20,Ticks_Linear_8,153,9999,9999,9999,9999,647100544
6,20,Ticks_Linear_8,154,9999,9999,9999,9999,647620680
6,20,Ticks_Linear_8,155,9999,9999,9999,9999,648130640
6,20,Ticks_Linear_8,156,9999,9999,9999,9999,648640600
6,20,Ticks_Linear_8,157,9999,9999,9999,9999,649150564
6,20,Ticks_Linear_8,158,9999,9999,9999,9999,649660516
6,20,Ticks_Linear_8,159,9999,9999,9999,9999,650170484
6,20,Ticks_Linear_8,160,9999,9999,9999,9999,650670180
6,20,Ticks_Linear_8,161,9999,9999,9999,9999,651170932
6,20,Ticks_Linear_8,162,9999,9999,9999,9999,651670628
6,20,Ticks_Linear_8,163,9999,9999,9999,9999,652170324
6,20,Ticks_Linear_8,164,9999,9999,9999,9999,652671072
6,20,Ticks_Linear_8,165,9999,9999,9999,9999,653160516
6,20,Ticks_Linear_8,166,9999,9999,9999,9999,653651008
6,20,Ticks_Linear_8,167,9999,9999,9999,9999,654140524
6,20,Ticks_Linear_8,168,9999,9999,9999,9999,654630988
6,20,Ticks_Linear_8,169,9999,9999,9999,9999,655120504
7,10,Ticks_ISO_T2_5,0,5,42,127,667693488
7,10,Ticks_ISO_T2_5,1,5,42,127,668194300
7,10,Ticks_ISO_T2_5,2,5,42,127,668693944
7,10,Ticks_ISO_T2_5,3,5,42,127,669193660
7,10,Ticks_ISO_T2_5,4,5,42,127,669694200
7,10,Ticks_ISO_T2_5,5,1,48,50,669714072
7,10,Ticks_ISO_T2_5,6,5,42,127,670194116
7,10,Ticks_ISO_T2_5,7,1,48,55,670211156
7,10,Ticks_ISO_T2_5,8,5,42,127,670693664
7,10,Ticks_ISO_T2_5,9,1,48,54,670702020
7,10,Ticks_ISO_T2_5,10,1,48,53,671172224
7,10,Ticks_ISO_T2_5,11,5,42,127,671193428
7,10,Ticks_ISO_T2_5,12,1,48,47,671679328
7,10,Ticks_ISO_T2_5,13,5,42,127,671694096
7,10,Ticks_ISO_T2_5,14,5,42,127,672193948
7,10,Ticks_ISO_T2_5,15,1,48,42,672204468
7,10,Ticks_ISO_T2_5,16,1,48,43,672684700
7,10,Ticks_ISO_T2_5,17,5,42,127,672693784
7,10,Ticks_ISO_T2_5,18,1,48,47,673179308
7,10,Ticks_ISO_T2_5,19,5,42,127,673194304
7,10,Ticks_ISO_T2_5,20,5,42,127,673694004
7,10,Ticks_ISO_T2_5,21,1,48,43,673702960
7,10,Ticks_ISO_T2_5,22,5,42,127,674193700
7,10,Ticks_ISO_T2_5,23,1,48,44,674196292
7,10,Ticks_ISO_T2_5,24,5,42,127,674693620
7,10,Ticks_ISO_T2_5,25,1,48,43,674696136
7,10,Ticks_ISO_T2_5,26,1,48,52,675184972
7,10,Ticks_ISO_T2_5,27,5,42,127,675194204
7,10,Ticks_ISO_T2_5,28,1,48,54,675658188
7,10,Ticks_ISO_T2_5,29,5,42,127,675693824
7,10,Ticks_ISO_T2_5,30,1,48,49,676193220
7,10,Ticks_ISO_T2_5,31,5,42,127,676194860
7,10,Ticks_ISO_T2_5,32,1,48,55,676684500
7,10,Ticks_ISO_T2_5,33,5,42,127,676694260
7,10,Ticks_ISO_T2_5,34,1,48,16,677193056
7,10,Ticks_ISO_T2_5,35,5,42,127,677194852
7,10,Ticks_ISO_T2_5,36,1,48,27,677198180
7,10,Ticks_ISO_T2_5,37,1,38,17,677205416
7,10,Ticks_ISO_T2_5,38,5,42,127,677693736
7,10,Ticks_ISO_T2_5,39,1,48,49,677720036
7,10,Ticks_ISO_T2_5,40,1,48,56,678170776
7,10,Ticks_ISO_T2_5,41,5,42,127,678193720
7,10,Ticks_ISO_T2_5,42,1,48,57,678684452
7,10,Ticks_ISO_T2_5,43,5,42,127,678694436
7,10,Ticks_ISO_T2_5,44,5,42,127,679193988
7,10,Ticks_ISO_T2_5,45,1,48,38,679199204
7,10,Ticks_ISO_T2_5,46,1,48,48,679684964
7,10,Ticks_ISO_T2_5,47,5,42,127,679693604
7,10,Ticks_ISO_T2_5,48,5,42,127,680194500
7,10,Ticks_ISO_T2_5,49,1,48,51,680208392
7,10,Ticks_ISO_T2_5,50,1,48,50,680692604
7,10,Ticks_ISO_T2_5,51,5,42,127,680694412
7,10,Ticks_ISO_T2_5,52,1,48,52,681192072
7,10,Ticks_ISO_T2_5,53,5,42,127,681193808
7,10,Ticks_ISO_T2_5,54,1,48,44,681683000
7,10,Ticks_ISO_T2_5,55,5,42,127,681693428
7,10,Ticks_ISO_T2_5,56,1,48,43,682175432
7,10,Ticks_ISO_T2_5,57,5,42,127,682194320
7,10,Ticks_ISO_T2_5,58,1,48,41,682692280
7,10,Ticks_ISO_T2_5,59,5,42,127,682694016
7,10,Ticks_ISO_T2_5,60,1,48,16,683193640
7,10,Ticks_ISO_T2_5,61,5,42,127,683195276
7,10,Ticks_ISO_T2_5,62,5,42,127,683693488
7,10,Ticks_ISO_T2_5,63,1,48,38,683722632
7,10,Ticks_ISO_T2_5,64,1,48,38,684183044
7,10,Ticks_ISO_T2_5,65,5,42,127,684194444
7,10,Ticks_ISO_T2_5,66,1,48,32,684670844
7,10,Ticks_ISO_T2_5,67,5,42,127,684693992
7,10,Ticks_ISO_T2_5,68,5,42,127,685193692
7,10,Ticks_ISO_T2_5,69,1,48,35,685198308
7,10,Ticks_ISO_T2_5,70,5,42,127,685694508
7,10,Ticks_ISO_T2_5,71,1,48,38,685696880
7,10,Ticks_ISO_T2_5,72,5,42,127,686194128
7,10,Ticks_ISO_T2_5,73,1,48,28,686220136
7,10,Ticks_ISO_T2_5,74,1,48,39,686662592
7,10,Ticks_ISO_T2_5,75,5,42,127,686693672
7,10,Ticks_ISO_T2_5,76,1,48,40,687162440
7,10,Ticks_ISO_T2_5,77,5,42,127,687193440
7,10,Ticks_ISO_T2_5,78,1,48,40,687675220
7,10,Ticks_ISO_T2_5,79,5,42,127,687694328
7,10,Ticks_ISO_T2_5,80,1,48,37,688188980
7,10,Ticks_ISO_T2_5,81,5,42,127,688194172
7,10,Ticks_ISO_T2_5,82,1,48,45,688674140
7,10,Ticks_ISO_T2_5,83,5,42,127,688693568
7,10,Ticks_ISO_T2_5,84,5,42,127,689194316
7,10,Ticks_ISO_T2_5,85,1,48,41,689207612
7,10,Ticks_ISO_T2_5,86,1,48,45,689671432
7,10,Ticks_ISO_T2_5,87,5,42,127,689694052
7,10,Ticks_ISO_T2_5,88,5,42,127,690193980
7,10,Ticks_ISO_T2_5,89,1,48,46,690196504
7,10,Ticks_ISO_T2_5,90,1,48,37,690687128
7,10,Ticks_ISO_T2_5,91,5,42,127,690693596
7,10,Ticks_ISO_T2_5,92,1,48,36,691187344
7,10,Ticks_ISO_T2_5,93,5,42,127,691194184
7,10,Ticks_ISO_T2_5,94,1,48,43,691685916
7,10,Ticks_ISO_T2_5,95,5,42,127,691694104
7,10,Ticks_ISO_T2_5,96,5,42,127,692193804
7,10,Ticks_ISO_T2_5,97,1,48,47,692195744
7,10,Ticks_ISO_T2_5,98,1,48,55,692671392
7,10,Ticks_ISO_T2_5,99,5,42,127,692694392
7,10,Ticks_ISO_T2_5,100,5,42,127,693194092
7,10,Ticks_ISO_T2_5,101,1,48,57,693199308
7,10,Ticks_ISO_T2_5,102,1,48,52,693688136
7,10,Ticks_ISO_T2_5,103,5,42,127,693693928
7,10,Ticks_ISO_T2_5,104,1,48,43,694191816
7,10,Ticks_ISO_T2_5,105,5,42,127,694193476
7,10,Ticks_ISO_T2_5,106,5,42,127,694694224
7,10,Ticks_ISO_T2_5,107,1,48,51,694709540
7,10,Ticks_ISO_T2_5,108,1,48,44,695184680
7,10,Ticks_ISO_T2_5,109,5,42,127,695194064
7,10,Ticks_ISO_T2_5,110,5,42,127,695693616
7,10,Ticks_ISO_T2_5,111,1,48,54,695704664
7,10,Ticks_ISO_T2_5,112,1,48,50,696177112
7,10,Ticks_ISO_T2_5,113,5,42,127,696194276
7,10,Ticks_ISO_T2_5,114,1,48,42,696679576
7,10,Ticks_ISO_T2_5,115,5,42,127,696694192
7,10,Ticks_ISO_T2_5,116,5,42,127,697193968
7,10,Ticks_ISO_T2_5,117,1,48,45,697203444
7,10,Ticks_ISO_T2_5,118,5,42,127,697693812
7,10,Ticks_ISO_T2_5,119,1,48,49,697694780
7,10,Ticks_ISO_T2_5,120,1,48,50,698191152
7,10,Ticks_ISO_T2_5,121,5,42,127,698194252
7,10,Ticks_ISO_T2_5,122,1,48,52,698679176
7,10,Ticks_ISO_T2_5,123,5,42,127,698693948
7,10,Ticks_ISO_T2_5,124,1,48,48,699193796
7,10,Ticks_ISO_T2_5,125,5,42,127,699195208
7,10,Ticks_ISO_T2_5,126,5,42,127,699693492
7,10,Ticks_ISO_T2_5,127,1,48,45,699702892
7,10,Ticks_ISO_T2_5,128,5,42,127,700194504
7,10,Ticks_ISO_T2_5,129,1,48,57,700198452
7,10,Ticks_ISO_T2_5,130,5,42,127,700693756
7,10,Ticks_ISO_T2_5,131,1,48,41,700752248
7,10,Ticks_ISO_T2_5,132,5,42,127,701193672
7,10,Ticks_ISO_T2_5,133,1,48,48,701194640
7,10,Ticks_ISO_T2_5,134,1,48,51,701675676
7,10,Ticks_ISO_T2_5,135,5,42,127,701694408
7,10,Ticks_ISO_T2_5,136,1,48,51,702186516
7,10,Ticks_ISO_T2_5,137,5,42,127,702194028
7,10,Ticks_ISO_T2_5,138,1,48,49,702675660
7,10,Ticks_ISO_T2_5,139,5,42,127,702693652
7,10,Ticks_ISO_T2_5,140,1,48,48,703163312
7,10,Ticks_ISO_T2_5,141,5,42,127,703193420
7,10,Ticks_ISO_T2_5,142,5,42,127,703694168
7,10,Ticks_ISO_T2_5,143,1,48,44,703695132
7,10,Ticks_ISO_T2_5,144,1,48,41,704185068
7,10,Ticks_ISO_T2_5,145,5,42,127,704193780
7,10,Ticks_ISO_T2_5,146,5,42,127,704693708
7,10,Ticks_ISO_T2_5,147,1,48,36,704694596
7,10,Ticks_ISO_T2_5,148,1,48,48,705181320
7,10,Ticks_ISO_T2_5,149,5,42,127,705194440
7,10,Ticks_ISO_T2_5,150,1,48,40,705685496
7,10,Ticks_ISO_T2_5,151,5,42,127,705694060
7,10,Ticks_ISO_T2_5,152,5,42,127,706193836
7,10,Ticks_ISO_T2_5,153,1,48,42,706222240
7,10,Ticks_ISO_T2_5,154,5,42,127,706693384
7,10,Ticks_ISO_T2_5,155,1,48,46,706715572
7,10,Ticks_ISO_T2_5,156,1,48,46,707180696
7,10,Ticks_ISO_T2_5,157,5,42,127,707194340
7,10,Ticks_ISO_T2_5,158,1,48,45,707680468
7,10,Ticks_ISO_T2_5,159,5,42,127,707693960
7,10,Ticks_ISO_T2_5,160,5,42,127,708193588
7,10,Ticks_ISO_T2_5,161,1,48,46,708221464
7,10,Ticks_ISO_T2_5,162,1,48,49,708680076
7,10,Ticks_ISO_T2_5,163,5,42,127,708694324
7,10,Ticks_ISO_T2_5,164,1,48,35,709170044
7,10,Ticks_ISO_T2_5,165,5,42,127,709194316
7,10,Ticks_ISO_T2_5,166,5,42,127,709693940
7,10,Ticks_ISO_T2_5,167,1,48,49,709694980
7,10,Ticks_ISO_T2_5,168,1,48,40,710183396
7,10,Ticks_ISO_T2_5,169,5,42,127,710193552
7,10,Ticks_ISO_T2_5,170,1,48,34,710659232
7,10,Ticks_ISO_T2_5,171,5,42,127,710694272
7,10,Ticks_ISO_T2_5,172,1,48,50,711172960
7,10,Ticks_ISO_T2_5,173,5,42,127,711194088
7,10,Ticks_ISO_T2_5,174,1,48,50,711676024
7,10,Ticks_ISO_T2_5,175,5,42,127,711693636
7,10,Ticks_ISO_T2_5,176,1,48,46,712171608
7,10,Ticks_ISO_T2_5,177,5,42,127,712194452
7,10,Ticks_ISO_T2_5,178,5,42,127,712694228
7,10,Ticks_ISO_T2_5,179,1,48,53,712720008
7,10,Ticks_ISO_T2_5,180,5,42,127,713193848
7,10,Ticks_ISO_T2_5,181,1,48,50,713206916
7,10,Ticks_ISO_T2_5,182,1,48,52,713677716
7,10,Ticks_ISO_T2_5,183,5,42,127,713693532
7,10,Ticks_ISO_T2_5,184,1,48,43,714190204
7,10,Ticks_ISO_T2_5,185,5,42,127,714194276
7,10,Ticks_ISO_T2_5,186,1,48,44,714666704
7,10,Ticks_ISO_T2_5,187,5,42,127,714693968
7,10,Ticks_ISO_T2_5,188,1,48,48,715181144
7,10,Ticks_ISO_T2_5,189,5,42,127,715194184
7,10,Ticks_ISO_T2_5,190,1,48,48,715681960
7,10,Ticks_ISO_T2_5,191,5,42,127,715693360
7,10,Ticks_ISO_T2_5,192,1,48,37,716162280
7,10,Ticks_ISO_T2_5,193,5,42,127,716194100
7,10,Ticks_ISO_T2_5,194,1,48,45,716671252
7,10,Ticks_ISO_T2_5,195,5,42,127,716693944
7,10,Ticks_ISO_T2_5,196,1,48,49,717171612
7,10,Ticks_ISO_T2_5,197,5,42,127,717193716
7,10,Ticks_ISO_T2_5,198,1,48,51,717676020
7,10,Ticks_ISO_T2_5,199,5,42,127,717694380
7,10,Ticks_ISO_T2_5,200,1,48,49,718182224
7,10,Ticks_ISO_T2_5,201,5,42,127,718194152
7,10,Ticks_ISO_T2_5,202,1,48,45,718681768
7,10,Ticks_ISO_T2_5,203,5,42,127,718693844
7,10,Ticks_ISO_T2_5,204,1,48,47,719186920
7,10,Ticks_ISO_T2_5,205,5,42,127,719193392
7,10,Ticks_ISO_T2_5,206,1,48,57,719681308
7,10,Ticks_ISO_T2_5,207,5,42,127,719694208
7,10,Ticks_ISO_T2_5,208,1,48,54,720187812
7,10,Ticks_ISO_T2_5,209,5,42,127,720193904
7,10,Ticks_ISO_T2_5,210,1,48,49,720676632
7,10,Ticks_ISO_T2_5,211,5,42,127,720693676
7,10,Ticks_ISO_T2_5,212,1,48,49,721178200
7,10,Ticks_ISO_T2_5,213,5,42,127,721194416
7,10,Ticks_ISO_T2_5,214,1,48,51,721686572
7,10,Ticks_ISO_T2_5,215,5,42,127,721694084
7,10,Ticks_ISO_T2_5,216,1,48,57,722190980
7,10,Ticks_ISO_T2_5,217,5,42,127,722193632
7,10,Ticks_ISO_T2_5,218,1,48,58,722690452
7,10,Ticks_ISO_T2_5,219,5,42,127,722693772
7,10,Ticks_ISO_T2_5,220,1,48,55,723193696
7,10,Ticks_ISO_T2_5,221,5,42,127,723195488
7,10,Ticks_ISO_T2_5,222,1,48,57,723682956
7,10,Ticks_ISO_T2_5,223,5,42,127,723694060
7,10,Ticks_ISO_T2_5,224,1,48,51,724181528
7,10,Ticks_ISO_T2_5,225,5,42,127,724193532
7,10,Ticks_ISO_T2_5,226,1,48,59,724688700
7,10,Ticks_ISO_T2_5,227,5,42,127,724694792
7,10,Ticks_ISO_T2_5,228,5,42,127,725194124
7,10,Ticks_ISO_T2_5,229,1,48,49,725204644
7,10,Ticks_ISO_T2_5,230,1,48,55,725660792
7,10,Ticks_ISO_T2_5,231,5,42,127,725693660
7,10,Ticks_ISO_T2_5,232,1,48,49,726186884
7,10,Ticks_ISO_T2_5,233,5,42,127,726193580
7,10,Ticks_ISO_T2_5,234,1,48,48,726685608
7,10,Ticks_ISO_T2_5,235,5,42,127,726694396
7,10,Ticks_ISO_T2_5,236,1,48,49,727161744
7,10,Ticks_ISO_T2_5,237,5,42,127,727193868
7,10,Ticks_ISO_T2_5,238,1,48,47,727670416
7,10,Ticks_ISO_T2_5,239,5,42,127,727693636
7,10,Ticks_ISO_T2_5,240,1,48,51,728185144
7,10,Ticks_ISO_T2_5,241,5,42,127,728194528
7,10,Ticks_ISO_T2_5,242,1,48,53,728680124
7,10,Ticks_ISO_T2_5,243,5,42,127,728694296
7,10,Ticks_ISO_T2_5,244,1,48,59,729178776
7,10,Ticks_ISO_T2_5,245,5,42,127,729193768
7,10,Ticks_ISO_T2_5,246,1,48,44,729691800
7,10,Ticks_ISO_T2_5,247,5,42,127,729693460
7,10,Ticks_ISO_T2_5,248,1,48,51,730171508
7,10,Ticks_ISO_T2_5,249,5,42,127,730194428
7,10,Ticks_ISO_T2_5,250,1,48,53,730656364
7,10,Ticks_ISO_T2_5,251,5,42,127,730694196
7,10,Ticks_ISO_T2_5,252,5,42,127,731193600
7,10,Ticks_ISO_T2_5,253,1,48,51,731200760
7,10,Ticks_ISO_T2_5,254,1,48,48,731679768
7,10,Ticks_ISO_T2_5,255,5,42,127,731693360
7,10,Ticks_ISO_T2_5,256,1,48,62,732157392
7,10,Ticks_ISO_T2_5,257,5,42,127,732194152
7,10,Ticks_ISO_T2_5,258,1,48,61,732645940
7,10,Ticks_ISO_T2_5,0,9999,9999,9999,9999,667691128
7,10,Ticks_ISO_T2_5,1,9999,9999,9999,9999,668191864
7,10,Ticks_ISO_T2_5,2,9999,9999,9999,9999,668691508
7,10,Ticks_ISO_T2_5,3,9999,9999,9999,9999,669191224
7,10,Ticks_ISO_T2_5,4,9999,9999,9999,9999,669691988
7,10,Ticks_ISO_T2_5,5,9999,9999,9999,9999,670191684
7,10,Ticks_ISO_T2_5,6,9999,9999,9999,9999,670691380
7,10,Ticks_ISO_T2_5,7,9999,9999,9999,9999,671191140
7,10,Ticks_ISO_T2_5,8,9999,9999,9999,9999,671691884
7,10,Ticks_ISO_T2_5,9,9999,9999,9999,9999,672191588
7,10,Ticks_ISO_T2_5,10,9999,9999,9999,9999,672691276
7,10,Ticks_ISO_T2_5,11,9999,9999,9999,9999,673192016
7,10,Ticks_ISO_T2_5,12,9999,9999,9999,9999,673691716
7,10,Ticks_ISO_T2_5,13,9999,9999,9999,9999,674191412
7,10,Ticks_ISO_T2_5,14,9999,9999,9999,9999,674691184
7,10,Ticks_ISO_T2_5,15,9999,9999,9999,9999,675191916
7,10,Ticks_ISO_T2_5,16,9999,9999,9999,9999,675691612
7,10,Ticks_ISO_T2_5,17,9999,9999,9999,9999,676191312
7,10,Ticks_ISO_T2_5,18,9999,9999,9999,9999,676692048
7,10,Ticks_ISO_T2_5,19,9999,9999,9999,9999,677191748
7,10,Ticks_ISO_T2_5,20,9999,9999,9999,9999,677691448
7,10,Ticks_ISO_T2_5,21,9999,9999,9999,9999,678191212
7,10,Ticks_ISO_T2_5,22,9999,9999,9999,9999,678691928
7,10,Ticks_ISO_T2_5,23,9999,9999,9999,9999,679191628
7,10,Ticks_ISO_T2_5,24,9999,9999,9999,9999,679691316
7,10,Ticks_ISO_T2_5,25,9999,9999,9999,9999,680192064
7,10,Ticks_ISO_T2_5,26,9999,9999,9999,9999,680691832
7,10,Ticks_ISO_T2_5,27,9999,9999,9999,9999,681191548
7,10,Ticks_ISO_T2_5,28,9999,9999,9999,9999,681691216
7,10,Ticks_ISO_T2_5,29,9999,9999,9999,9999,682191960
7,10,Ticks_ISO_T2_5,30,9999,9999,9999,9999,682691680
7,10,Ticks_ISO_T2_5,31,9999,9999,9999,9999,683191356
7,10,Ticks_ISO_T2_5,32,9999,9999,9999,9999,683691124
7,10,Ticks_ISO_T2_5,33,9999,9999,9999,9999,684191860
7,10,Ticks_ISO_T2_5,34,9999,9999,9999,9999,684691556
7,10,Ticks_ISO_T2_5,35,9999,9999,9999,9999,685191256
7,10,Ticks_ISO_T2_5,36,9999,9999,9999,9999,685692000
7,10,Ticks_ISO_T2_5,37,9999,9999,9999,9999,686191696
7,10,Ticks_ISO_T2_5,38,9999,9999,9999,9999,686691384
7,10,Ticks_ISO_T2_5,39,9999,9999,9999,9999,687191152
7,10,Ticks_ISO_T2_5,40,9999,9999,9999,9999,687691896
7,10,Ticks_ISO_T2_5,41,9999,9999,9999,9999,688191588
7,10,Ticks_ISO_T2_5,42,9999,9999,9999,9999,688691284
7,10,Ticks_ISO_T2_5,43,9999,9999,9999,9999,689192004
7,10,Ticks_ISO_T2_5,44,9999,9999,9999,9999,689691768
7,10,Ticks_ISO_T2_5,45,9999,9999,9999,9999,690191468
7,10,Ticks_ISO_T2_5,46,9999,9999,9999,9999,690691160
7,10,Ticks_ISO_T2_5,47,9999,9999,9999,9999,691191900
7,10,Ticks_ISO_T2_5,48,9999,9999,9999,9999,691691596
7,10,Ticks_ISO_T2_5,49,9999,9999,9999,9999,692191296
7,10,Ticks_ISO_T2_5,50,9999,9999,9999,9999,692692032
7,10,Ticks_ISO_T2_5,51,9999,9999,9999,9999,693191732
7,10,Ticks_ISO_T2_5,52,9999,9999,9999,9999,693691496
7,10,Ticks_ISO_T2_5,53,9999,9999,9999,9999,694191216
7,10,Ticks_ISO_T2_5,54,9999,9999,9999,9999,694691940
7,10,Ticks_ISO_T2_5,55,9999,9999,9999,9999,695191628
7,10,Ticks_ISO_T2_5,56,9999,9999,9999,9999,695691328
7,10,Ticks_ISO_T2_5,57,9999,9999,9999,9999,696192064
7,10,Ticks_ISO_T2_5,58,9999,9999,9999,9999,696691832
7,10,Ticks_ISO_T2_5,59,9999,9999,9999,9999,697191536
7,10,Ticks_ISO_T2_5,60,9999,9999,9999,9999,697691228
7,10,Ticks_ISO_T2_5,61,9999,9999,9999,9999,698191964
7,10,Ticks_ISO_T2_5,62,9999,9999,9999,9999,698691660
7,10,Ticks_ISO_T2_5,63,9999,9999,9999,9999,699191360
7,10,Ticks_ISO_T2_5,64,9999,9999,9999,9999,699691056
7,10,Ticks_ISO_T2_5,65,9999,9999,9999,9999,700191848
7,10,Ticks_ISO_T2_5,66,9999,9999,9999,9999,700691544
7,10,Ticks_ISO_T2_5,67,9999,9999,9999,9999,701191240
7,10,Ticks_ISO_T2_5,68,9999,9999,9999,9999,701691972
7,10,Ticks_ISO_T2_5,69,9999,9999,9999,9999,702191668
7,10,Ticks_ISO_T2_5,70,9999,9999,9999,9999,702691440
7,10,Ticks_ISO_T2_5,71,9999,9999,9999,9999,703191132
7,10,Ticks_ISO_T2_5,72,9999,9999,9999,9999,703691880
7,10,Ticks_ISO_T2_5,73,9999,9999,9999,9999,704191568
7,10,Ticks_ISO_T2_5,74,9999,9999,9999,9999,704691272
7,10,Ticks_ISO_T2_5,75,9999,9999,9999,9999,705192008
7,10,Ticks_ISO_T2_5,76,9999,9999,9999,9999,705691700
7,10,Ticks_ISO_T2_5,77,9999,9999,9999,9999,706191476
7,10,Ticks_ISO_T2_5,78,9999,9999,9999,9999,706691172
7,10,Ticks_ISO_T2_5,79,9999,9999,9999,9999,707191904
7,10,Ticks_ISO_T2_5,80,9999,9999,9999,9999,707691600
7,10,Ticks_ISO_T2_5,81,9999,9999,9999,9999,708191300
7,10,Ticks_ISO_T2_5,82,9999,9999,9999,9999,708692036
7,10,Ticks_ISO_T2_5,83,9999,9999,9999,9999,709191732
7,10,Ticks_ISO_T2_5,84,9999,9999,9999,9999,709691504
7,10,Ticks_ISO_T2_5,85,9999,9999,9999,9999,710191192
7,10,Ticks_ISO_T2_5,86,9999,9999,9999,9999,710691912
7,10,Ticks_ISO_T2_5,87,9999,9999,9999,9999,711191652
7,10,Ticks_ISO_T2_5,88,9999,9999,9999,9999,711691348
7,10,Ticks_ISO_T2_5,89,9999,9999,9999,9999,712192088
7,10,Ticks_ISO_T2_5,90,9999,9999,9999,9999,712691792
7,10,Ticks_ISO_T2_5,91,9999,9999,9999,9999,713191488
7,10,Ticks_ISO_T2_5,92,9999,9999,9999,9999,713691248
7,10,Ticks_ISO_T2_5,93,9999,9999,9999,9999,714191988
7,10,Ticks_ISO_T2_5,94,9999,9999,9999,9999,714691684
7,10,Ticks_ISO_T2_5,95,9999,9999,9999,9999,715191380
7,10,Ticks_ISO_T2_5,96,9999,9999,9999,9999,715691072
7,10,Ticks_ISO_T2_5,97,9999,9999,9999,9999,716191816
7,10,Ticks_ISO_T2_5,98,9999,9999,9999,9999,716691512
7,10,Ticks_ISO_T2_5,99,9999,9999,9999,9999,717191280
7,10,Ticks_ISO_T2_5,100,9999,9999,9999,9999,717692020
7,10,Ticks_ISO_T2_5,101,9999,9999,9999,9999,718191716
7,10,Ticks_ISO_T2_5,102,9999,9999,9999,9999,718691412
7,10,Ticks_ISO_T2_5,103,9999,9999,9999,9999,719191104
7,10,Ticks_ISO_T2_5,104,9999,9999,9999,9999,719691848
7,10,Ticks_ISO_T2_5,105,9999,9999,9999,9999,720191544
7,10,Ticks_ISO_T2_5,106,9999,9999,9999,9999,720691316
7,10,Ticks_ISO_T2_5,107,9999,9999,9999,9999,721192056
7,10,Ticks_ISO_T2_5,108,9999,9999,9999,9999,721691724
7,10,Ticks_ISO_T2_5,109,9999,9999,9999,9999,722191420
7,10,Ticks_ISO_T2_5,110,9999,9999,9999,9999,722691192
7,10,Ticks_ISO_T2_5,111,9999,9999,9999,9999,723191864
7,10,Ticks_ISO_T2_5,112,9999,9999,9999,9999,723691624
7,10,Ticks_ISO_T2_5,113,9999,9999,9999,9999,724191320
7,10,Ticks_ISO_T2_5,114,9999,9999,9999,9999,724692060
7,10,Ticks_ISO_T2_5,115,9999,9999,9999,9999,725191760
7,10,Ticks_ISO_T2_5,116,9999,9999,9999,9999,725691448
7,10,Ticks_ISO_T2_5,117,9999,9999,9999,9999,726191220
7,10,Ticks_ISO_T2_5,118,9999,9999,9999,9999,726691960
7,10,Ticks_ISO_T2_5,119,9999,9999,9999,9999,727191656
7,10,Ticks_ISO_T2_5,120,9999,9999,9999,9999,727691352
7,10,Ticks_ISO_T2_5,121,9999,9999,9999,9999,728192092
7,10,Ticks_ISO_T2_5,122,9999,9999,9999,9999,728691788
7,10,Ticks_ISO_T2_5,123,9999,9999,9999,9999,729191484
7,10,Ticks_ISO_T2_5,124,9999,9999,9999,9999,729691200
7,10,Ticks_ISO_T2_5,125,9999,9999,9999,9999,730191992
7,10,Ticks_ISO_T2_5,126,9999,9999,9999,9999,730691688
7,10,Ticks_ISO_T2_5,127,9999,9999,9999,9999,731191388
7,10,Ticks_ISO_T2_5,128,9999,9999,9999,9999,731691076
7,10,Ticks_ISO_T2_5,129,9999,9999,9999,9999,732191864
8,9,Ticks_ISO_T2_8,0,5,42,127,745940420
8,9,Ticks_ISO_T2_8,1,5,42,127,746740024
8,9,Ticks_ISO_T2_8,2,5,42,127,747539780
8,9,Ticks_ISO_T2_8,3,5,42,127,748339412
8,9,Ticks_ISO_T2_8,4,1,48,49,749138544
8,9,Ticks_ISO_T2_8,5,5,42,127,749140280
8,9,Ticks_ISO_T2_8,6,5,42,127,749940020
8,9,Ticks_ISO_T2_8,7,1,48,58,749945012
8,9,Ticks_ISO_T2_8,8,5,42,127,750739904
8,9,Ticks_ISO_T2_8,9,1,48,51,750758728
8,9,Ticks_ISO_T2_8,10,5,42,127,751539416
8,9,Ticks_ISO_T2_8,11,1,48,60,751546344
8,9,Ticks_ISO_T2_8,12,5,42,127,752340344
8,9,Ticks_ISO_T2_8,13,1,48,64,752345704
8,9,Ticks_ISO_T2_8,14,5,42,127,753140152
8,9,Ticks_ISO_T2_8,15,1,48,54,753152692
8,9,Ticks_ISO_T2_8,16,5,42,127,753939808
8,9,Ticks_ISO_T2_8,17,1,48,55,753941296
8,9,Ticks_ISO_T2_8,18,5,42,127,754739492
8,9,Ticks_ISO_T2_8,19,1,48,51,754757420
8,9,Ticks_ISO_T2_8,20,5,42,127,755540420
8,9,Ticks_ISO_T2_8,21,1,48,54,755543016
8,9,Ticks_ISO_T2_8,22,5,42,127,756340080
8,9,Ticks_ISO_T2_8,23,1,48,56,756345368
8,9,Ticks_ISO_T2_8,24,5,42,127,757140188
8,9,Ticks_ISO_T2_8,25,1,48,54,757142480
8,9,Ticks_ISO_T2_8,26,5,42,127,757939472
8,9,Ticks_ISO_T2_8,27,1,48,54,757966448
8,9,Ticks_ISO_T2_8,28,5,42,127,758740256
8,9,Ticks_ISO_T2_8,29,1,48,52,758762524
8,9,Ticks_ISO_T2_8,30,1,48,53,759524612
8,9,Ticks_ISO_T2_8,31,5,42,127,759539980
8,9,Ticks_ISO_T2_8,32,5,42,127,760339792
8,9,Ticks_ISO_T2_8,33,1,48,54,760341132
8,9,Ticks_ISO_T2_8,34,5,42,127,761139700
8,9,Ticks_ISO_T2_8,35,1,48,46,761158904
8,9,Ticks_ISO_T2_8,36,5,42,127,761940256
8,9,Ticks_ISO_T2_8,37,1,48,51,761967160
8,9,Ticks_ISO_T2_8,38,1,48,48,762732244
8,9,Ticks_ISO_T2_8,39,5,42,127,762740056
8,9,Ticks_ISO_T2_8,40,1,48,56,763527040
8,9,Ticks_ISO_T2_8,41,5,42,127,763539868
8,9,Ticks_ISO_T2_8,42,1,48,47,764321468
8,9,Ticks_ISO_T2_8,43,5,42,127,764339748
8,9,Ticks_ISO_T2_8,44,5,42,127,765140236
8,9,Ticks_ISO_T2_8,45,1,48,46,765161380
8,9,Ticks_ISO_T2_8,46,1,48,46,765923404
8,9,Ticks_ISO_T2_8,47,5,42,127,765939964
8,9,Ticks_ISO_T2_8,48,5,42,127,766739780
8,9,Ticks_ISO_T2_8,49,1,48,56,766740748
8,9,Ticks_ISO_T2_8,50,1,48,51,767513292
8,9,Ticks_ISO_T2_8,51,5,42,127,767539752
8,9,Ticks_ISO_T2_8,52,5,42,127,768340464
8,9,Ticks_ISO_T2_8,53,1,48,57,768350620
8,9,Ticks_ISO_T2_8,54,5,42,127,769140200
8,9,Ticks_ISO_T2_8,55,1,48,54,769147508
8,9,Ticks_ISO_T2_8,56,5,42,127,769939784
8,9,Ticks_ISO_T2_8,57,1,48,51,769946268
8,9,Ticks_ISO_T2_8,58,1,48,54,770731924
8,9,Ticks_ISO_T2_8,59,5,42,127,770739588
8,9,Ticks_ISO_T2_8,60,5,42,127,771540224
8,9,Ticks_ISO_T2_8,61,1,48,59,771543792
8,9,Ticks_ISO_T2_8,62,1,48,56,772337676
8,9,Ticks_ISO_T2_8,63,5,42,127,772340324
8,9,Ticks_ISO_T2_8,64,5,42,127,773139764
8,9,Ticks_ISO_T2_8,65,1,48,32,773150816
8,9,Ticks_ISO_T2_8,66,5,42,127,773939600
8,9,Ticks_ISO_T2_8,67,1,48,52,773949752
8,9,Ticks_ISO_T2_8,68,1,48,46,774737348
8,9,Ticks_ISO_T2_8,69,5,42,127,774740300
8,9,Ticks_ISO_T2_8,70,5,42,127,775540260
8,9,Ticks_ISO_T2_8,71,1,48,44,775551236
8,9,Ticks_ISO_T2_8,72,1,48,37,775935624
8,9,Ticks_ISO_T2_8,73,5,42,127,776339752
8,9,Ticks_ISO_T2_8,74,5,42,127,777139432
8,9,Ticks_ISO_T2_8,75,1,48,43,777177928
8,9,Ticks_ISO_T2_8,76,1,48,48,777939004
8,9,Ticks_ISO_T2_8,77,5,42,127,777940872
8,9,Ticks_ISO_T2_8,78,5,42,127,778740168
8,9,Ticks_ISO_T2_8,79,1,48,53,778759592
8,9,Ticks_ISO_T2_8,80,1,48,45,779536572
8,9,Ticks_ISO_T2_8,81,5,42,127,779540040
8,9,Ticks_ISO_T2_8,82,1,48,38,780324432
8,9,Ticks_ISO_T2_8,83,5,42,127,780339504
8,9,Ticks_ISO_T2_8,84,1,48,40,781132848
8,9,Ticks_ISO_T2_8,85,5,42,127,781140280
8,9,Ticks_ISO_T2_8,86,5,42,127,781939948
8,9,Ticks_ISO_T2_8,87,1,48,40,781962440
8,9,Ticks_ISO_T2_8,88,1,48,45,782702620
8,9,Ticks_ISO_T2_8,89,5,42,127,782740048
8,9,Ticks_ISO_T2_8,90,1,48,44,783515360
8,9,Ticks_ISO_T2_8,91,5,42,127,783539780
8,9,Ticks_ISO_T2_8,92,1,48,48,784338148
8,9,Ticks_ISO_T2_8,93,5,42,127,784340260
8,9,Ticks_ISO_T2_8,94,1,48,48,785128140
8,9,Ticks_ISO_T2_8,95,5,42,127,785140140
8,9,Ticks_ISO_T2_8,96,1,48,46,785934304
8,9,Ticks_ISO_T2_8,97,5,42,127,785939800
8,9,Ticks_ISO_T2_8,98,5,42,127,786739644
8,9,Ticks_ISO_T2_8,99,1,48,49,786740684
8,9,Ticks_ISO_T2_8,100,5,42,127,787540272
8,9,Ticks_ISO_T2_8,101,1,48,45,787549972
8,9,Ticks_ISO_T2_8,102,5,42,127,788340004
8,9,Ticks_ISO_T2_8,103,1,48,46,788347836
8,9,Ticks_ISO_T2_8,104,1,48,46,789112024
8,9,Ticks_ISO_T2_8,105,5,42,127,789139732
8,9,Ticks_ISO_T2_8,106,1,48,48,789933896
8,9,Ticks_ISO_T2_8,107,5,42,127,789939764
8,9,Ticks_ISO_T2_8,108,1,48,45,790708196
8,9,Ticks_ISO_T2_8,109,5,42,127,790740692
8,9,Ticks_ISO_T2_8,110,1,48,47,791529996
8,9,Ticks_ISO_T2_8,111,5,42,127,791539980
8,9,Ticks_ISO_T2_8,112,5,42,127,792339796
8,9,Ticks_ISO_T2_8,113,1,48,50,792348372
8,9,Ticks_ISO_T2_8,114,5,42,127,793139552
8,9,Ticks_ISO_T2_8,115,1,48,48,793152244
8,9,Ticks_ISO_T2_8,116,1,48,52,793931316
8,9,Ticks_ISO_T2_8,117,5,42,127,793940476
8,9,Ticks_ISO_T2_8,118,1,48,46,794727236
8,9,Ticks_ISO_T2_8,119,5,42,127,794740136
8,9,Ticks_ISO_T2_8,120,5,42,127,795539800
8,9,Ticks_ISO_T2_8,121,1,48,38,795541288
8,9,Ticks_ISO_T2_8,122,5,42,127,796339460
8,9,Ticks_ISO_T2_8,123,1,48,46,796346696
8,9,Ticks_ISO_T2_8,124,1,48,44,797136012
8,9,Ticks_ISO_T2_8,125,5,42,127,797140308
8,9,Ticks_ISO_T2_8,126,5,42,127,797940268
8,9,Ticks_ISO_T2_8,127,1,48,47,797942136
8,9,Ticks_ISO_T2_8,128,1,48,38,798740080
8,9,Ticks_ISO_T2_8,129,5,42,127,798741572
8,9,Ticks_ISO_T2_8,130,5,42,127,799539464
8,9,Ticks_ISO_T2_8,131,1,48,35,799553052
8,9,Ticks_ISO_T2_8,132,5,42,127,800340392
8,9,Ticks_ISO_T2_8,133,1,48,46,800346728
8,9,Ticks_ISO_T2_8,134,5,42,127,801140052
8,9,Ticks_ISO_T2_8,135,1,48,46,801146832
8,9,Ticks_ISO_T2_8,136,5,42,127,801939860
8,9,Ticks_ISO_T2_8,137,1,48,38,801945596
8,9,Ticks_ISO_T2_8,138,5,42,127,802739520
8,9,Ticks_ISO_T2_8,139,1,48,62,802762684
8,9,Ticks_ISO_T2_8,140,5,42,127,803540300
8,9,Ticks_ISO_T2_8,141,1,48,53,803558828
8,9,Ticks_ISO_T2_8,142,1,48,52,804339056
8,9,Ticks_ISO_T2_8,143,5,42,127,804340928
8,9,Ticks_ISO_T2_8,144,1,48,49,805135088
8,9,Ticks_ISO_T2_8,145,5,42,127,805139908
8,9,Ticks_ISO_T2_8,146,5,42,127,805939524
8,9,Ticks_ISO_T2_8,147,1,48,55,806730264
8,9,Ticks_ISO_T2_8,148,5,42,127,806740248
8,9,Ticks_ISO_T2_8,149,5,42,127,807539988
8,9,Ticks_ISO_T2_8,150,1,48,57,807550880
8,9,Ticks_ISO_T2_8,151,5,42,127,808339944
8,9,Ticks_ISO_T2_8,152,1,48,54,808342388
8,9,Ticks_ISO_T2_8,153,5,42,127,809139528
8,9,Ticks_ISO_T2_8,154,1,48,57,809141472
8,9,Ticks_ISO_T2_8,155,1,48,45,809909976
8,9,Ticks_ISO_T2_8,156,5,42,127,809940232
8,9,Ticks_ISO_T2_8,157,5,42,127,810740048
8,9,Ticks_ISO_T2_8,158,1,48,49,810776076
8,9,Ticks_ISO_T2_8,159,1,48,53,811533384
8,9,Ticks_ISO_T2_8,160,5,42,127,811539844
8,9,Ticks_ISO_T2_8,161,5,42,127,812339684
8,9,Ticks_ISO_T2_8,162,1,48,48,812354544
8,9,Ticks_ISO_T2_8,163,1,48,45,813128532
8,9,Ticks_ISO_T2_8,164,5,42,127,813140388
8,9,Ticks_ISO_T2_8,165,1,48,49,813907624
8,9,Ticks_ISO_T2_8,166,5,42,127,813940048
8,9,Ticks_ISO_T2_8,167,1,48,62,814734884
8,9,Ticks_ISO_T2_8,168,5,42,127,814739704
8,9,Ticks_ISO_T2_8,169,5,42,127,815539520
8,9,Ticks_ISO_T2_8,170,1,48,60,815566052
8,9,Ticks_ISO_T2_8,171,5,42,127,816340448
8,9,Ticks_ISO_T2_8,172,1,48,54,816361368
8,9,Ticks_ISO_T2_8,173,1,48,53,817130720
8,9,Ticks_ISO_T2_8,174,5,42,127,817140024
8,9,Ticks_ISO_T2_8,175,1,48,64,817940064
8,9,Ticks_ISO_T2_8,176,5,42,127,817941556
8,9,Ticks_ISO_T2_8,177,5,42,127,818739528
8,9,Ticks_ISO_T2_8,178,1,48,45,818758128
8,9,Ticks_ISO_T2_8,179,1,48,50,819519468
8,9,Ticks_ISO_T2_8,180,5,42,127,819540224
8,9,Ticks_ISO_T2_8,181,1,48,51,820337308
8,9,Ticks_ISO_T2_8,182,5,42,127,820340032
8,9,Ticks_ISO_T2_8,183,5,42,127,821139920
8,9,Ticks_ISO_T2_8,184,1,48,49,821140888
8,9,Ticks_ISO_T2_8,185,5,42,127,821939432
8,9,Ticks_ISO_T2_8,186,1,48,48,821999392
8,9,Ticks_ISO_T2_8,187,5,42,127,822740284
8,9,Ticks_ISO_T2_8,188,1,48,50,822781028
8,9,Ticks_ISO_T2_8,189,5,42,127,823540240
8,9,Ticks_ISO_T2_8,190,1,48,48,823559664
8,9,Ticks_ISO_T2_8,191,1,48,57,824307100
8,9,Ticks_ISO_T2_8,192,5,42,127,824339968
8,9,Ticks_ISO_T2_8,193,1,48,53,825120096
8,9,Ticks_ISO_T2_8,194,5,42,127,825139652
8,9,Ticks_ISO_T2_8,195,5,42,127,825940212
8,9,Ticks_ISO_T2_8,196,1,48,47,825962932
8,9,Ticks_ISO_T2_8,197,5,42,127,826740024
8,9,Ticks_ISO_T2_8,198,1,48,56,826746132
8,9,Ticks_ISO_T2_8,199,1,48,58,827525580
8,9,Ticks_ISO_T2_8,200,5,42,127,827539900
8,9,Ticks_ISO_T2_8,201,5,42,127,828339416
8,9,Ticks_ISO_T2_8,202,1,48,58,828349868
8,9,Ticks_ISO_T2_8,203,1,48,19,829139820
8,9,Ticks_ISO_T2_8,204,5,42,127,829141612
8,9,Ticks_ISO_T2_8,205,1,38,16,829152660
8,9,Ticks_ISO_T2_8,206,5,42,127,829940196
8,9,Ticks_ISO_T2_8,207,1,48,51,829959768
8,9,Ticks_ISO_T2_8,208,1,48,61,830728224
8,9,Ticks_ISO_T2_8,209,5,42,127,830739848
8,9,Ticks_ISO_T2_8,210,5,42,127,831539760
8,9,Ticks_ISO_T2_8,211,1,48,53,831551256
8,9,Ticks_ISO_T2_8,212,1,48,58,832306320
8,9,Ticks_ISO_T2_8,213,5,42,127,832340460
8,9,Ticks_ISO_T2_8,214,5,42,127,833140196
8,9,Ticks_ISO_T2_8,215,1,48,43,833169648
8,9,Ticks_ISO_T2_8,216,1,48,58,833921048
8,9,Ticks_ISO_T2_8,217,5,42,127,833939704
8,9,Ticks_ISO_T2_8,218,1,48,51,834714944
8,9,Ticks_ISO_T2_8,219,5,42,127,834739512
8,9,Ticks_ISO_T2_8,220,1,48,49,835540296
8,9,Ticks_ISO_T2_8,221,5,42,127,835541860
8,9,Ticks_ISO_T2_8,222,5,42,127,836340108
8,9,Ticks_ISO_T2_8,223,1,48,54,836357664
8,9,Ticks_ISO_T2_8,224,1,48,54,837121252
8,9,Ticks_ISO_T2_8,225,5,42,127,837139908
8,9,Ticks_ISO_T2_8,226,5,42,127,837939600
8,9,Ticks_ISO_T2_8,227,1,48,54,837952744
8,9,Ticks_ISO_T2_8,228,1,48,46,838704216
8,9,Ticks_ISO_T2_8,229,5,42,127,838740300
8,9,Ticks_ISO_T2_8,230,1,48,42,839503948
8,9,Ticks_ISO_T2_8,231,5,42,127,839540332
8,9,Ticks_ISO_T2_8,232,5,42,127,840339776
8,9,Ticks_ISO_T2_8,233,1,48,48,840364584
8,9,Ticks_ISO_T2_8,234,5,42,127,841139580
8,9,Ticks_ISO_T2_8,235,1,48,44,841183012
8,9,Ticks_ISO_T2_8,0,9999,9999,9999,9999,745937980
8,9,Ticks_ISO_T2_8,1,9999,9999,9999,9999,746737736
8,9,Ticks_ISO_T2_8,2,9999,9999,9999,9999,747537492
8,9,Ticks_ISO_T2_8,3,9999,9999,9999,9999,748337200
8,9,Ticks_ISO_T2_8,4,9999,9999,9999,9999,749138016
8,9,Ticks_ISO_T2_8,5,9999,9999,9999,9999,749937732
8,9,Ticks_ISO_T2_8,6,9999,9999,9999,9999,750737468
8,9,Ticks_ISO_T2_8,7,9999,9999,9999,9999,751537200
8,9,Ticks_ISO_T2_8,8,9999,9999,9999,9999,752337980
8,9,Ticks_ISO_T2_8,9,9999,9999,9999,9999,753137712
8,9,Ticks_ISO_T2_8,10,9999,9999,9999,9999,753937520
8,9,Ticks_ISO_T2_8,11,9999,9999,9999,9999,754737204
8,9,Ticks_ISO_T2_8,12,9999,9999,9999,9999,755537984
8,9,Ticks_ISO_T2_8,13,9999,9999,9999,9999,756337720
8,9,Ticks_ISO_T2_8,14,9999,9999,9999,9999,757137528
8,9,Ticks_ISO_T2_8,15,9999,9999,9999,9999,757937260
8,9,Ticks_ISO_T2_8,16,9999,9999,9999,9999,758737968
8,9,Ticks_ISO_T2_8,17,9999,9999,9999,9999,759537764
8,9,Ticks_ISO_T2_8,18,9999,9999,9999,9999,760337504
8,9,Ticks_ISO_T2_8,19,9999,9999,9999,9999,761137264
8,9,Ticks_ISO_T2_8,20,9999,9999,9999,9999,761937968
8,9,Ticks_ISO_T2_8,21,9999,9999,9999,9999,762737768
8,9,Ticks_ISO_T2_8,22,9999,9999,9999,9999,763537504
8,9,Ticks_ISO_T2_8,23,9999,9999,9999,9999,764337240
8,9,Ticks_ISO_T2_8,24,9999,9999,9999,9999,765138024
8,9,Ticks_ISO_T2_8,25,9999,9999,9999,9999,765937752
8,9,Ticks_ISO_T2_8,26,9999,9999,9999,9999,766737492
8,9,Ticks_ISO_T2_8,27,9999,9999,9999,9999,767537244
8,9,Ticks_ISO_T2_8,28,9999,9999,9999,9999,768338028
8,9,Ticks_ISO_T2_8,29,9999,9999,9999,9999,769137764
8,9,Ticks_ISO_T2_8,30,9999,9999,9999,9999,769937496
8,9,Ticks_ISO_T2_8,31,9999,9999,9999,9999,770737224
8,9,Ticks_ISO_T2_8,32,9999,9999,9999,9999,771538012
8,9,Ticks_ISO_T2_8,33,9999,9999,9999,9999,772337740
8,9,Ticks_ISO_T2_8,34,9999,9999,9999,9999,773137476
8,9,Ticks_ISO_T2_8,35,9999,9999,9999,9999,773937236
8,9,Ticks_ISO_T2_8,36,9999,9999,9999,9999,774738012
8,9,Ticks_ISO_T2_8,37,9999,9999,9999,9999,775537752
8,9,Ticks_ISO_T2_8,38,9999,9999,9999,9999,776337464
8,9,Ticks_ISO_T2_8,39,9999,9999,9999,9999,777137216
8,9,Ticks_ISO_T2_8,40,9999,9999,9999,9999,777937996
8,9,Ticks_ISO_T2_8,41,9999,9999,9999,9999,778737732
8,9,Ticks_ISO_T2_8,42,9999,9999,9999,9999,779537456
8,9,Ticks_ISO_T2_8,43,9999,9999,9999,9999,780337216
8,9,Ticks_ISO_T2_8,44,9999,9999,9999,9999,781137996
8,9,Ticks_ISO_T2_8,45,9999,9999,9999,9999,781937736
8,9,Ticks_ISO_T2_8,46,9999,9999,9999,9999,782737460
8,9,Ticks_ISO_T2_8,47,9999,9999,9999,9999,783537268
8,9,Ticks_ISO_T2_8,48,9999,9999,9999,9999,784338012
8,9,Ticks_ISO_T2_8,49,9999,9999,9999,9999,785137780
8,9,Ticks_ISO_T2_8,50,9999,9999,9999,9999,785937512
8,9,Ticks_ISO_T2_8,51,9999,9999,9999,9999,786737204
8,9,Ticks_ISO_T2_8,52,9999,9999,9999,9999,787537984
8,9,Ticks_ISO_T2_8,53,9999,9999,9999,9999,788337716
8,9,Ticks_ISO_T2_8,54,9999,9999,9999,9999,789137520
8,9,Ticks_ISO_T2_8,55,9999,9999,9999,9999,789937252
8,9,Ticks_ISO_T2_8,56,9999,9999,9999,9999,790738032
8,9,Ticks_ISO_T2_8,57,9999,9999,9999,9999,791537768
8,9,Ticks_ISO_T2_8,58,9999,9999,9999,9999,792337508
8,9,Ticks_ISO_T2_8,59,9999,9999,9999,9999,793137264
8,9,Ticks_ISO_T2_8,60,9999,9999,9999,9999,793938040
8,9,Ticks_ISO_T2_8,61,9999,9999,9999,9999,794737772
8,9,Ticks_ISO_T2_8,62,9999,9999,9999,9999,795537512
8,9,Ticks_ISO_T2_8,63,9999,9999,9999,9999,796337248
8,9,Ticks_ISO_T2_8,64,9999,9999,9999,9999,797138020
8,9,Ticks_ISO_T2_8,65,9999,9999,9999,9999,797937760
8,9,Ticks_ISO_T2_8,66,9999,9999,9999,9999,798737492
8,9,Ticks_ISO_T2_8,67,9999,9999,9999,9999,799537252
8,9,Ticks_ISO_T2_8,68,9999,9999,9999,9999,800338032
8,9,Ticks_ISO_T2_8,69,9999,9999,9999,9999,801137764
8,9,Ticks_ISO_T2_8,70,9999,9999,9999,9999,801937496
8,9,Ticks_ISO_T2_8,71,9999,9999,9999,9999,802737232
8,9,Ticks_ISO_T2_8,72,9999,9999,9999,9999,803538012
8,9,Ticks_ISO_T2_8,73,9999,9999,9999,9999,804337744
8,9,Ticks_ISO_T2_8,74,9999,9999,9999,9999,805137472
8,9,Ticks_ISO_T2_8,75,9999,9999,9999,9999,805937236
8,9,Ticks_ISO_T2_8,76,9999,9999,9999,9999,806738036
8,9,Ticks_ISO_T2_8,77,9999,9999,9999,9999,807537772
8,9,Ticks_ISO_T2_8,78,9999,9999,9999,9999,808337508
8,9,Ticks_ISO_T2_8,79,9999,9999,9999,9999,809137240
8,9,Ticks_ISO_T2_8,80,9999,9999,9999,9999,809938016
8,9,Ticks_ISO_T2_8,81,9999,9999,9999,9999,810737760
8,9,Ticks_ISO_T2_8,82,9999,9999,9999,9999,811537484
8,9,Ticks_ISO_T2_8,83,9999,9999,9999,9999,812337248
8,9,Ticks_ISO_T2_8,84,9999,9999,9999,9999,813138024
8,9,Ticks_ISO_T2_8,85,9999,9999,9999,9999,813937760
8,9,Ticks_ISO_T2_8,86,9999,9999,9999,9999,814737492
8,9,Ticks_ISO_T2_8,87,9999,9999,9999,9999,815537232
8,9,Ticks_ISO_T2_8,88,9999,9999,9999,9999,816338012
8,9,Ticks_ISO_T2_8,89,9999,9999,9999,9999,817137736
8,9,Ticks_ISO_T2_8,90,9999,9999,9999,9999,817937480
8,9,Ticks_ISO_T2_8,91,9999,9999,9999,9999,818737240
8,9,Ticks_ISO_T2_8,92,9999,9999,9999,9999,819538012
8,9,Ticks_ISO_T2_8,93,9999,9999,9999,9999,820337744
8,9,Ticks_ISO_T2_8,94,9999,9999,9999,9999,821137484
8,9,Ticks_ISO_T2_8,95,9999,9999,9999,9999,821937216
8,9,Ticks_ISO_T2_8,96,9999,9999,9999,9999,822737996
8,9,Ticks_ISO_T2_8,97,9999,9999,9999,9999,823537728
8,9,Ticks_ISO_T2_8,98,9999,9999,9999,9999,824337456
8,9,Ticks_ISO_T2_8,99,9999,9999,9999,9999,825137212
8,9,Ticks_ISO_T2_8,100,9999,9999,9999,9999,825938000
8,9,Ticks_ISO_T2_8,101,9999,9999,9999,9999,826737736
8,9,Ticks_ISO_T2_8,102,9999,9999,9999,9999,827537460
8,9,Ticks_ISO_T2_8,103,9999,9999,9999,9999,828337204
8,9,Ticks_ISO_T2_8,104,9999,9999,9999,9999,829137984
8,9,Ticks_ISO_T2_8,105,9999,9999,9999,9999,829937756
8,9,Ticks_ISO_T2_8,106,9999,9999,9999,9999,830737484
8,9,Ticks_ISO_T2_8,107,9999,9999,9999,9999,831537248
8,9,Ticks_ISO_T2_8,108,9999,9999,9999,9999,832338020
8,9,Ticks_ISO_T2_8,109,9999,9999,9999,9999,833137760
8,9,Ticks_ISO_T2_8,110,9999,9999,9999,9999,833937492
8,9,Ticks_ISO_T2_8,111,9999,9999,9999,9999,834737224
8,9,Ticks_ISO_T2_8,112,9999,9999,9999,9999,835538008
8,9,Ticks_ISO_T2_8,113,9999,9999,9999,9999,836337744
8,9,Ticks_ISO_T2_8,114,9999,9999,9999,9999,837137472
8,9,Ticks_ISO_T2_8,115,9999,9999,9999,9999,837937236
8,9,Ticks_ISO_T2_8,116,9999,9999,9999,9999,838738012
8,9,Ticks_ISO_T2_8,117,9999,9999,9999,9999,839537744
8,9,Ticks_ISO_T2_8,118,9999,9999,9999,9999,840337488
8,9,Ticks_ISO_T2_8,119,9999,9999,9999,9999,841137220
9,23,Ticks_Phase_5,0,5,42,127,854440208
9,23,Ticks_Phase_5,1,5,42,127,854940140
9,23,Ticks_Phase_5,2,5,42,127,855439700
9,23,Ticks_Phase_5,3,5,42,127,855939632
9,23,Ticks_Phase_5,4,5,42,127,856440168
9,23,Ticks_Phase_5,5,1,48,63,856463352
9,23,Ticks_Phase_5,6,5,42,127,856939932
9,23,Ticks_Phase_5,7,1,48,62,856954724
9,23,Ticks_Phase_5,8,5,42,127,857439544
9,23,Ticks_Phase_5,9,1,48,60,857451200
9,23,Ticks_Phase_5,10,5,42,127,857940504
9,23,Ticks_Phase_5,11,1,48,70,857948944
9,23,Ticks_Phase_5,12,5,42,127,858440116
9,23,Ticks_Phase_5,13,1,48,67,858445700
9,23,Ticks_Phase_5,14,5,42,127,858939880
9,23,Ticks_Phase_5,15,1,48,65,858963296
9,23,Ticks_Phase_5,16,5,42,127,859439496
9,23,Ticks_Phase_5,17,1,48,66,859442688
9,23,Ticks_Phase_5,18,1,48,49,859934052
9,23,Ticks_Phase_5,19,5,42,127,859940300
9,23,Ticks_Phase_5,20,5,42,127,860439820
9,23,Ticks_Phase_5,21,1,48,67,860448660
9,23,Ticks_Phase_5,22,1,48,66,860925536
9,23,Ticks_Phase_5,23,5,42,127,860939576
9,23,Ticks_Phase_5,24,1,48,53,861426420
9,23,Ticks_Phase_5,25,5,42,127,861440312
9,23,Ticks_Phase_5,26,1,48,60,861924540
9,23,Ticks_Phase_5,27,5,42,127,861940372
9,23,Ticks_Phase_5,28,5,42,127,862439920
9,23,Ticks_Phase_5,29,1,48,59,862446704
9,23,Ticks_Phase_5,30,5,42,127,862939456
9,23,Ticks_Phase_5,31,1,48,64,862959428
9,23,Ticks_Phase_5,32,1,48,52,863422256
9,23,Ticks_Phase_5,33,5,42,127,863440332
9,23,Ticks_Phase_5,34,1,48,57,863925980
9,23,Ticks_Phase_5,35,5,42,127,863940172
9,23,Ticks_Phase_5,36,5,42,127,864439644
9,23,Ticks_Phase_5,37,1,48,59,864444928
9,23,Ticks_Phase_5,38,5,42,127,864940452
9,23,Ticks_Phase_5,39,1,48,55,864953752
9,23,Ticks_Phase_5,40,5,42,127,865440288
9,23,Ticks_Phase_5,41,1,48,54,865457184
9,23,Ticks_Phase_5,42,1,48,45,865923388
9,23,Ticks_Phase_5,43,5,42,127,865939820
9,23,Ticks_Phase_5,44,1,48,61,866421956
9,23,Ticks_Phase_5,45,5,42,127,866439436
9,23,Ticks_Phase_5,46,1,48,62,866937732
9,23,Ticks_Phase_5,47,5,42,127,866940320
9,23,Ticks_Phase_5,48,5,42,127,867440088
9,23,Ticks_Phase_5,49,1,48,61,867443732
9,23,Ticks_Phase_5,50,5,42,127,867939556
9,23,Ticks_Phase_5,51,1,48,56,867947924
9,23,Ticks_Phase_5,52,1,48,55,868433140
9,23,Ticks_Phase_5,53,5,42,127,868440284
9,23,Ticks_Phase_5,54,1,48,58,868922940
9,23,Ticks_Phase_5,55,5,42,127,868950380
9,23,Ticks_Phase_5,56,5,42,127,869439820
9,23,Ticks_Phase_5,57,1,48,57,869447052
9,23,Ticks_Phase_5,58,1,48,50,869922020
9,23,Ticks_Phase_5,59,5,42,127,869939648
9,23,Ticks_Phase_5,60,5,42,127,870440316
9,23,Ticks_Phase_5,61,1,48,38,870489572
9,23,Ticks_Phase_5,62,5,42,127,870940004
9,23,Ticks_Phase_5,63,1,48,61,870949568
9,23,Ticks_Phase_5,64,1,48,55,871436780
9,23,Ticks_Phase_5,65,5,42,127,871439956
9,23,Ticks_Phase_5,66,5,42,127,871939504
9,23,Ticks_Phase_5,67,1,48,51,871941144
9,23,Ticks_Phase_5,68,5,42,127,872440240
9,23,Ticks_Phase_5,69,1,48,62,872447696
9,23,Ticks_Phase_5,70,1,48,66,872926852
9,23,Ticks_Phase_5,71,5,42,127,872939920
9,23,Ticks_Phase_5,72,5,42,127,873439540
9,23,Ticks_Phase_5,73,1,48,55,873464896
9,23,Ticks_Phase_5,74,5,42,127,873940572
9,23,Ticks_Phase_5,75,1,48,54,873955748
9,23,Ticks_Phase_5,76,1,48,57,874431164
9,23,Ticks_Phase_5,77,5,42,127,874440032
9,23,Ticks_Phase_5,78,1,48,54,874924856
9,23,Ticks_Phase_5,79,5,42,127,874939868
9,23,Ticks_Phase_5,80,1,48,48,875417204
9,23,Ticks_Phase_5,81,5,42,127,875439408
9,23,Ticks_Phase_5,82,1,48,43,875915020
9,23,Ticks_Phase_5,83,5,42,127,875940292
9,23,Ticks_Phase_5,84,1,48,46,876402956
9,23,Ticks_Phase_5,85,5,42,127,876439908
9,23,Ticks_Phase_5,86,5,42,127,876939748
9,23,Ticks_Phase_5,87,1,48,51,876954544
9,23,Ticks_Phase_5,88,1,48,56,877408776
9,23,Ticks_Phase_5,89,5,42,127,877440552
9,23,Ticks_Phase_5,90,5,42,127,877939952
9,23,Ticks_Phase_5,91,1,48,54,877948840
9,23,Ticks_Phase_5,92,1,48,49,878403572
9,23,Ticks_Phase_5,93,5,42,127,878450040
9,23,Ticks_Phase_5,94,5,42,127,878949660
9,23,Ticks_Phase_5,95,1,48,44,878952480
9,23,Ticks_Phase_5,96,1,48,54,879401308
9,23,Ticks_Phase_5,97,5,42,127,879449416
9,23,Ticks_Phase_5,98,1,48,50,879918448
9,23,Ticks_Phase_5,99,5,42,127,879950300
9,23,Ticks_Phase_5,100,1,48,52,880440600
9,23,Ticks_Phase_5,101,5,42,127,880449764
9,23,Ticks_Phase_5,102,1,48,48,880933692
9,23,Ticks_Phase_5,103,5,42,127,880949604
9,23,Ticks_Phase_5,104,1,48,51,881441472
9,23,Ticks_Phase_5,105,5,42,127,881450412
9,23,Ticks_Phase_5,106,1,48,51,881944656
9,23,Ticks_Phase_5,107,5,42,127,881949952
9,23,Ticks_Phase_5,108,5,42,127,882449920
9,23,Ticks_Phase_5,109,1,48,43,882457680
9,23,Ticks_Phase_5,110,5,42,127,882949536
9,23,Ticks_Phase_5,111,1,48,55,882957064
9,23,Ticks_Phase_5,112,1,48,48,883417292
9,23,Ticks_Phase_5,113,5,42,127,883450188
9,23,Ticks_Phase_5,114,5,42,127,883949956
9,23,Ticks_Phase_5,115,1,48,59,883958324
9,23,Ticks_Phase_5,116,1,48,55,884429616
9,23,Ticks_Phase_5,117,5,42,127,884449712
9,23,Ticks_Phase_5,118,1,48,53,884928036
9,23,Ticks_Phase_5,119,5,42,127,884950300
9,23,Ticks_Phase_5,120,1,48,60,885428324
9,23,Ticks_Phase_5,121,5,42,127,885450284
9,23,Ticks_Phase_5,122,1,48,56,885926868
9,23,Ticks_Phase_5,123,5,42,127,885949752
9,23,Ticks_Phase_5,124,1,48,50,886430612
9,23,Ticks_Phase_5,125,5,42,127,886470108
9,23,Ticks_Phase_5,126,5,42,127,886969804
9,23,Ticks_Phase_5,127,1,48,56,886991868
9,23,Ticks_Phase_5,128,1,48,51,887455896
9,23,Ticks_Phase_5,129,5,42,127,887469408
9,23,Ticks_Phase_5,130,1,48,57,887969176
9,23,Ticks_Phase_5,131,5,42,127,887971044
9,23,Ticks_Phase_5,132,1,48,48,888454968
9,23,Ticks_Phase_5,133,5,42,127,888469984
9,23,Ticks_Phase_5,134,5,42,127,888969528
9,23,Ticks_Phase_5,135,1,48,47,889001108
9,23,Ticks_Phase_5,136,5,42,127,889470336
9,23,Ticks_Phase_5,137,1,48,41,889483568
9,23,Ticks_Phase_5,138,1,48,40,889959284
9,23,Ticks_Phase_5,139,5,42,127,889970092
9,23,Ticks_Phase_5,140,1,48,48,890465628
9,23,Ticks_Phase_5,141,5,42,127,890469932
9,23,Ticks_Phase_5,142,1,48,49,890963148
9,23,Ticks_Phase_5,143,5,42,127,890969396
9,23,Ticks_Phase_5,144,1,48,56,891449584
9,23,Ticks_Phase_5,145,5,42,127,891470128
9,23,Ticks_Phase_5,146,1,48,52,891962452
9,23,Ticks_Phase_5,147,5,42,127,891970040
9,23,Ticks_Phase_5,148,5,42,127,892469736
9,23,Ticks_Phase_5,149,1,48,41,892479528
9,23,Ticks_Phase_5,150,1,48,48,892962196
9,23,Ticks_Phase_5,151,5,42,127,892970464
9,23,Ticks_Phase_5,152,1,48,41,893445160
9,23,Ticks_Phase_5,153,5,42,127,893470004
9,23,Ticks_Phase_5,154,5,42,127,893969972
9,23,Ticks_Phase_5,155,1,48,40,893985992
9,23,Ticks_Phase_5,156,1,48,39,894468608
9,23,Ticks_Phase_5,157,5,42,127,894470404
9,23,Ticks_Phase_5,158,5,42,127,894949804
9,23,Ticks_Phase_5,159,1,48,48,894999060
9,23,Ticks_Phase_5,160,1,48,50,895414704
9,23,Ticks_Phase_5,161,5,42,127,895449560
9,23,Ticks_Phase_5,162,1,48,49,895933716
9,23,Ticks_Phase_5,163,5,42,127,895950220
9,23,Ticks_Phase_5,164,1,48,51,896432132
9,23,Ticks_Phase_5,165,5,42,127,896449836
9,23,Ticks_Phase_5,166,5,42,127,896949604
9,23,Ticks_Phase_5,167,1,48,48,896976228
9,23,Ticks_Phase_5,168,5,42,127,897450336
9,23,Ticks_Phase_5,169,1,48,54,897467692
9,23,Ticks_Phase_5,170,1,48,56,897940708
9,23,Ticks_Phase_5,171,5,42,127,897949944
9,23,Ticks_Phase_5,172,1,48,49,898428712
9,23,Ticks_Phase_5,173,5,42,127,898449780
9,23,Ticks_Phase_5,174,1,48,52,898931168
9,23,Ticks_Phase_5,175,5,42,127,898949692
9,23,Ticks_Phase_5,176,1,48,57,899437064
9,23,Ticks_Phase_5,177,5,42,127,899450280
9,23,Ticks_Phase_5,178,5,42,127,899949824
9,23,Ticks_Phase_5,179,1,48,41,899960288
9,23,Ticks_Phase_5,180,1,48,51,900431956
9,23,Ticks_Phase_5,181,5,42,127,900449584
9,23,Ticks_Phase_5,182,5,42,127,900950620
9,23,Ticks_Phase_5,183,1,48,52,900961756
9,23,Ticks_Phase_5,184,1,48,50,901442556
9,23,Ticks_Phase_5,185,5,42,127,901450304
9,23,Ticks_Phase_5,186,1,48,51,901927932
9,23,Ticks_Phase_5,187,5,42,127,901949692
9,23,Ticks_Phase_5,188,5,42,127,902449612
9,23,Ticks_Phase_5,189,1,48,50,902467868
9,23,Ticks_Phase_5,190,5,42,127,902900076
9,23,Ticks_Phase_5,191,1,48,35,902974884
9,23,Ticks_Phase_5,192,5,42,127,903399764
9,23,Ticks_Phase_5,193,1,48,51,903419288
9,23,Ticks_Phase_5,194,1,48,41,903883608
9,23,Ticks_Phase_5,195,5,42,127,903899596
9,23,Ticks_Phase_5,196,1,48,46,904372372
9,23,Ticks_Phase_5,197,5,42,127,904400480
9,23,Ticks_Phase_5,198,1,48,49,904877828
9,23,Ticks_Phase_5,199,5,42,127,904900164
9,23,Ticks_Phase_5,200,1,48,46,905391292
9,23,Ticks_Phase_5,201,5,42,127,905399632
9,23,Ticks_Phase_5,202,1,48,51,905898252
9,23,Ticks_Phase_5,203,5,42,127,905900368
9,23,Ticks_Phase_5,204,1,48,54,906393208
9,23,Ticks_Phase_5,205,5,42,127,906400352
9,23,Ticks_Phase_5,206,1,48,49,906878080
9,23,Ticks_Phase_5,207,5,42,127,906899816
9,23,Ticks_Phase_5,208,1,48,57,907377840
9,23,Ticks_Phase_5,209,5,42,127,907399580
9,23,Ticks_Phase_5,210,1,48,52,907860448
9,23,Ticks_Phase_5,211,5,42,127,907900240
9,23,Ticks_Phase_5,212,1,48,51,908362304
9,23,Ticks_Phase_5,213,5,42,127,908400152
9,23,Ticks_Phase_5,214,1,48,39,908877412
9,23,Ticks_Phase_5,215,5,42,127,908899692
9,23,Ticks_Phase_5,216,1,48,48,909368872
9,23,Ticks_Phase_5,217,5,42,127,909400500
9,23,Ticks_Phase_5,218,5,42,127,909910380
9,23,Ticks_Phase_5,219,1,48,48,909935136
9,23,Ticks_Phase_5,220,5,42,127,910410220
9,23,Ticks_Phase_5,221,1,48,52,910418584
9,23,Ticks_Phase_5,222,1,48,49,910900512
9,23,Ticks_Phase_5,223,5,42,127,910909900
9,23,Ticks_Phase_5,224,1,48,48,911385140
9,23,Ticks_Phase_5,225,5,42,127,911459836
9,23,Ticks_Phase_5,226,5,42,127,911960504
9,23,Ticks_Phase_5,227,1,48,36,912003760
9,23,Ticks_Phase_5,228,5,42,127,912470452
9,23,Ticks_Phase_5,229,1,48,48,912487272
9,23,Ticks_Phase_5,230,1,48,45,912955120
9,23,Ticks_Phase_5,231,5,42,127,912970060
9,23,Ticks_Phase_5,232,1,48,46,913462224
9,23,Ticks_Phase_5,233,5,42,127,913469972
9,23,Ticks_Phase_5,234,1,48,50,913959820
9,23,Ticks_Phase_5,235,5,42,127,913969512
9,23,Ticks_Phase_5,236,1,48,49,914434016
9,23,Ticks_Phase_5,237,5,42,127,914470248
9,23,Ticks_Phase_5,238,1,48,54,914965980
9,23,Ticks_Phase_5,239,5,42,127,914970008
9,23,Ticks_Phase_5,240,1,48,45,915463120
9,23,Ticks_Phase_5,241,5,42,127,915469968
9,23,Ticks_Phase_5,242,1,48,47,915956744
9,23,Ticks_Phase_5,243,5,42,127,915970408
9,23,Ticks_Phase_5,244,1,48,57,916454184
9,23,Ticks_Phase_5,245,5,42,127,916480356
9,23,Ticks_Phase_5,246,5,42,127,916980048
9,23,Ticks_Phase_5,247,1,48,49,916982716
9,23,Ticks_Phase_5,248,1,48,48,917473780
9,23,Ticks_Phase_5,249,5,42,127,917479656
9,23,Ticks_Phase_5,250,1,48,45,917962464
9,23,Ticks_Phase_5,251,5,42,127,917979716
9,23,Ticks_Phase_5,252,1,48,43,918459908
9,23,Ticks_Phase_5,253,5,42,127,918480304
9,23,Ticks_Phase_5,254,1,48,46,918964008
9,23,Ticks_Phase_5,255,5,42,127,918979920
9,23,Ticks_Phase_5,256,1,48,44,919471416
9,23,Ticks_Phase_5,257,5,42,127,919479756
9,23,Ticks_Phase_5,258,1,48,47,919945708
9,23,Ticks_Phase_5,259,5,42,127,920079628
9,23,Ticks_Phase_5,260,5,42,127,920579636
9,23,Ticks_Phase_5,261,1,48,37,920591820
9,23,Ticks_Phase_5,262,5,42,127,921080076
9,23,Ticks_Phase_5,263,1,48,35,921111052
9,23,Ticks_Phase_5,264,1,48,45,921551540
9,23,Ticks_Phase_5,265,5,42,127,921580028
9,23,Ticks_Phase_5,266,1,48,47,922055564
9,23,Ticks_Phase_5,267,5,42,127,922079644
9,23,Ticks_Phase_5,268,1,48,46,922528908
9,23,Ticks_Phase_5,269,5,42,127,922580672
9,23,Ticks_Phase_5,270,1,48,46,923060640
9,23,Ticks_Phase_5,271,5,42,127,923080064
9,23,Ticks_Phase_5,272,1,48,50,923575224
9,23,Ticks_Phase_5,273,5,42,127,923579828
9,23,Ticks_Phase_5,274,1,48,46,924072076
9,23,Ticks_Phase_5,275,5,42,127,924079664
9,23,Ticks_Phase_5,276,1,48,48,924534016
9,23,Ticks_Phase_5,277,5,42,127,924580252
9,23,Ticks_Phase_5,278,1,48,46,925071072
9,23,Ticks_Phase_5,279,5,42,127,925079864
9,23,Ticks_Phase_5,280,1,48,43,925570392
9,23,Ticks_Phase_5,281,5,42,127,925579556
9,23,Ticks_Phase_5,282,1,48,33,926075388
9,23,Ticks_Phase_5,283,5,42,127,926080364
9,23,Ticks_Phase_5,284,1,48,44,926551344
9,23,Ticks_Phase_5,285,5,42,127,926580348
9,23,Ticks_Phase_5,286,1,48,45,927061884
9,23,Ticks_Phase_5,287,5,42,127,927079744
9,23,Ticks_Phase_5,288,1,48,40,927564492
9,23,Ticks_Phase_5,289,5,42,127,927579432
9,23,Ticks_Phase_5,290,1,48,45,928055344
9,23,Ticks_Phase_5,291,5,42,127,928080240
9,23,Ticks_Phase_5,292,1,48,45,928552932
9,23,Ticks_Phase_5,293,5,42,127,928580300
9,23,Ticks_Phase_5,294,1,48,42,929069332
9,23,Ticks_Phase_5,295,5,42,127,929079616
9,23,Ticks_Phase_5,296,5,42,127,929480208
9,23,Ticks_Phase_5,297,1,48,46,929570672
9,23,Ticks_Phase_5,298,5,42,127,929979748
9,23,Ticks_Phase_5,299,1,48,52,930170708
9,23,Ticks_Phase_5,300,5,42,127,930479436
9,23,Ticks_Phase_5,301,1,48,27,930494380
9,23,Ticks_Phase_5,302,1,48,40,930945308
9,23,Ticks_Phase_5,303,5,42,127,930980088
9,23,Ticks_Phase_5,304,1,48,47,931457960
9,23,Ticks_Phase_5,305,5,42,127,931480000
9,23,Ticks_Phase_5,306,1,48,44,931946252
9,23,Ticks_Phase_5,307,5,42,127,931979540
9,23,Ticks_Phase_5,308,1,48,48,932450068
9,23,Ticks_Phase_5,309,5,42,127,932480352
9,23,Ticks_Phase_5,310,1,48,46,932963304
9,23,Ticks_Phase_5,311,5,42,127,932980188
9,23,Ticks_Phase_5,312,1,48,41,933463296
9,23,Ticks_Phase_5,313,5,42,127,933479800
9,23,Ticks_Phase_5,314,1,48,47,933962836
9,23,Ticks_Phase_5,315,5,42,127,933979488
9,23,Ticks_Phase_5,316,1,48,51,934461476
9,23,Ticks_Phase_5,317,5,42,127,934480224
9,23,Ticks_Phase_5,318,1,48,51,934971044
9,23,Ticks_Phase_5,319,5,42,127,934979912
9,23,Ticks_Phase_5,320,1,48,36,935452012
9,23,Ticks_Phase_5,321,5,42,127,935479600
9,23,Ticks_Phase_5,322,1,48,33,935970200
9,23,Ticks_Phase_5,323,5,42,127,935980260
9,23,Ticks_Phase_5,324,1,48,48,936458856
9,23,Ticks_Phase_5,325,5,42,127,936480172
9,23,Ticks_Phase_5,326,1,48,47,936937804
9,23,Ticks_Phase_5,327,5,42,127,936980060
9,23,Ticks_Phase_5,328,1,48,39,937448696
9,23,Ticks_Phase_5,329,5,42,127,937479724
9,23,Ticks_Phase_5,330,1,48,44,937966344
9,23,Ticks_Phase_5,331,5,42,127,937980236
9,23,Ticks_Phase_5,332,1,48,43,938468668
9,23,Ticks_Phase_5,333,5,42,127,938479924
9,23,Ticks_Phase_5,334,1,48,43,938959968
9,23,Ticks_Phase_5,335,5,42,127,938979908
9,23,Ticks_Phase_5,0,9999,9999,9999,9999,854437992
9,23,Ticks_Phase_5,1,9999,9999,9999,9999,854937704
9,23,Ticks_Phase_5,2,9999,9999,9999,9999,855437412
9,23,Ticks_Phase_5,3,9999,9999,9999,9999,855937124
9,23,Ticks_Phase_5,4,9999,9999,9999,9999,856437880
9,23,Ticks_Phase_5,5,9999,9999,9999,9999,856937568
9,23,Ticks_Phase_5,6,9999,9999,9999,9999,857437256
9,23,Ticks_Phase_5,7,9999,9999,9999,9999,857937992
9,23,Ticks_Phase_5,8,9999,9999,9999,9999,858437756
9,23,Ticks_Phase_5,9,9999,9999,9999,9999,858937444
9,23,Ticks_Phase_5,10,9999,9999,9999,9999,859437136
9,23,Ticks_Phase_5,11,9999,9999,9999,9999,859937864
9,23,Ticks_Phase_5,12,9999,9999,9999,9999,860437608
9,23,Ticks_Phase_5,13,9999,9999,9999,9999,860937288
9,23,Ticks_Phase_5,14,9999,9999,9999,9999,861438024
9,23,Ticks_Phase_5,15,9999,9999,9999,9999,861937788
9,23,Ticks_Phase_5,16,9999,9999,9999,9999,862437484
9,23,Ticks_Phase_5,17,9999,9999,9999,9999,862937172
9,23,Ticks_Phase_5,18,9999,9999,9999,9999,863437896
9,23,Ticks_Phase_5,19,9999,9999,9999,9999,863937660
9,23,Ticks_Phase_5,20,9999,9999,9999,9999,864437356
9,23,Ticks_Phase_5,21,9999,9999,9999,9999,864938088
9,23,Ticks_Phase_5,22,9999,9999,9999,9999,865437780
9,23,Ticks_Phase_5,23,9999,9999,9999,9999,865937536
9,23,Ticks_Phase_5,24,9999,9999,9999,9999,866437224
9,23,Ticks_Phase_5,25,9999,9999,9999,9999,866937956
9,23,Ticks_Phase_5,26,9999,9999,9999,9999,867437652
9,23,Ticks_Phase_5,27,9999,9999,9999,9999,867937344
9,23,Ticks_Phase_5,28,9999,9999,9999,9999,868438072
9,23,Ticks_Phase_5,29,9999,9999,9999,9999,868948096
9,23,Ticks_Phase_5,30,9999,9999,9999,9999,869437532
9,23,Ticks_Phase_5,31,9999,9999,9999,9999,869937212
9,23,Ticks_Phase_5,32,9999,9999,9999,9999,870437956
9,23,Ticks_Phase_5,33,9999,9999,9999,9999,870937692
9,23,Ticks_Phase_5,34,9999,9999,9999,9999,871437372
9,23,Ticks_Phase_5,35,9999,9999,9999,9999,871937144
9,23,Ticks_Phase_5,36,9999,9999,9999,9999,872437876
9,23,Ticks_Phase_5,37,9999,9999,9999,9999,872937560
9,23,Ticks_Phase_5,38,9999,9999,9999,9999,873437252
9,23,Ticks_Phase_5,39,9999,9999,9999,9999,873937988
9,23,Ticks_Phase_5,40,9999,9999,9999,9999,874437744
9,23,Ticks_Phase_5,41,9999,9999,9999,9999,874937432
9,23,Ticks_Phase_5,42,9999,9999,9999,9999,875437124
9,23,Ticks_Phase_5,43,9999,9999,9999,9999,875937856
9,23,Ticks_Phase_5,44,9999,9999,9999,9999,876437620
9,23,Ticks_Phase_5,45,9999,9999,9999,9999,876937312
9,23,Ticks_Phase_5,46,9999,9999,9999,9999,877438044
9,23,Ticks_Phase_5,47,9999,9999,9999,9999,877937736
9,23,Ticks_Phase_5,48,9999,9999,9999,9999,878447680
9,23,Ticks_Phase_5,49,9999,9999,9999,9999,878947448
9,23,Ticks_Phase_5,50,9999,9999,9999,9999,879447128
9,23,Ticks_Phase_5,51,9999,9999,9999,9999,879947864
9,23,Ticks_Phase_5,52,9999,9999,9999,9999,880447552
9,23,Ticks_Phase_5,53,9999,9999,9999,9999,880947316
9,23,Ticks_Phase_5,54,9999,9999,9999,9999,881448052
9,23,Ticks_Phase_5,55,9999,9999,9999,9999,881947740
9,23,Ticks_Phase_5,56,9999,9999,9999,9999,882447484
9,23,Ticks_Phase_5,57,9999,9999,9999,9999,882947172
9,23,Ticks_Phase_5,58,9999,9999,9999,9999,883447900
9,23,Ticks_Phase_5,59,9999,9999,9999,9999,883947596
9,23,Ticks_Phase_5,60,9999,9999,9999,9999,884447352
9,23,Ticks_Phase_5,61,9999,9999,9999,9999,884948088
9,23,Ticks_Phase_5,62,9999,9999,9999,9999,885447776
9,23,Ticks_Phase_5,63,9999,9999,9999,9999,885947464
9,23,Ticks_Phase_5,64,9999,9999,9999,9999,886467672
9,23,Ticks_Phase_5,65,9999,9999,9999,9999,886967368
9,23,Ticks_Phase_5,66,9999,9999,9999,9999,887467124
9,23,Ticks_Phase_5,67,9999,9999,9999,9999,887967864
9,23,Ticks_Phase_5,68,9999,9999,9999,9999,888467548
9,23,Ticks_Phase_5,69,9999,9999,9999,9999,888967240
9,23,Ticks_Phase_5,70,9999,9999,9999,9999,889467976
9,23,Ticks_Phase_5,71,9999,9999,9999,9999,889967732
9,23,Ticks_Phase_5,72,9999,9999,9999,9999,890467420
9,23,Ticks_Phase_5,73,9999,9999,9999,9999,890967108
9,23,Ticks_Phase_5,74,9999,9999,9999,9999,891467844
9,23,Ticks_Phase_5,75,9999,9999,9999,9999,891967604
9,23,Ticks_Phase_5,76,9999,9999,9999,9999,892467300
9,23,Ticks_Phase_5,77,9999,9999,9999,9999,892968028
9,23,Ticks_Phase_5,78,9999,9999,9999,9999,893467716
9,23,Ticks_Phase_5,79,9999,9999,9999,9999,893967460
9,23,Ticks_Phase_5,80,9999,9999,9999,9999,894467148
9,23,Ticks_Phase_5,81,9999,9999,9999,9999,894947440
9,23,Ticks_Phase_5,82,9999,9999,9999,9999,895447124
9,23,Ticks_Phase_5,83,9999,9999,9999,9999,895947860
9,23,Ticks_Phase_5,84,9999,9999,9999,9999,896447548
9,23,Ticks_Phase_5,85,9999,9999,9999,9999,896947316
9,23,Ticks_Phase_5,86,9999,9999,9999,9999,897448048
9,23,Ticks_Phase_5,87,9999,9999,9999,9999,897947732
9,23,Ticks_Phase_5,88,9999,9999,9999,9999,898447420
9,23,Ticks_Phase_5,89,9999,9999,9999,9999,898947184
9,23,Ticks_Phase_5,90,9999,9999,9999,9999,899447916
9,23,Ticks_Phase_5,91,9999,9999,9999,9999,899947612
9,23,Ticks_Phase_5,92,9999,9999,9999,9999,900447296
9,23,Ticks_Phase_5,93,9999,9999,9999,9999,900948036
9,23,Ticks_Phase_5,94,9999,9999,9999,9999,901447792
9,23,Ticks_Phase_5,95,9999,9999,9999,9999,901947480
9,23,Ticks_Phase_5,96,9999,9999,9999,9999,902447176
9,23,Ticks_Phase_5,97,9999,9999,9999,9999,902897788
9,23,Ticks_Phase_5,98,9999,9999,9999,9999,903397476
9,23,Ticks_Phase_5,99,9999,9999,9999,9999,903897160
9,23,Ticks_Phase_5,100,9999,9999,9999,9999,904397896
9,23,Ticks_Phase_5,101,9999,9999,9999,9999,904897656
9,23,Ticks_Phase_5,102,9999,9999,9999,9999,905397344
9,23,Ticks_Phase_5,103,9999,9999,9999,9999,905898044
9,23,Ticks_Phase_5,104,9999,9999,9999,9999,906397768
9,23,Ticks_Phase_5,105,9999,9999,9999,9999,906897532
9,23,Ticks_Phase_5,106,9999,9999,9999,9999,907397220
9,23,Ticks_Phase_5,107,9999,9999,9999,9999,907897956
9,23,Ticks_Phase_5,108,9999,9999,9999,9999,908397644
9,23,Ticks_Phase_5,109,9999,9999,9999,9999,908897404
9,23,Ticks_Phase_5,110,9999,9999,9999,9999,909398140
9,23,Ticks_Phase_5,111,9999,9999,9999,9999,909908092
9,23,Ticks_Phase_5,112,9999,9999,9999,9999,910407784
9,23,Ticks_Phase_5,113,9999,9999,9999,9999,910907464
9,23,Ticks_Phase_5,114,9999,9999,9999,9999,911457400
9,23,Ticks_Phase_5,115,9999,9999,9999,9999,911958068
9,23,Ticks_Phase_5,116,9999,9999,9999,9999,912468092
9,23,Ticks_Phase_5,117,9999,9999,9999,9999,912967772
9,23,Ticks_Phase_5,118,9999,9999,9999,9999,913467460
9,23,Ticks_Phase_5,119,9999,9999,9999,9999,913967224
9,23,Ticks_Phase_5,120,9999,9999,9999,9999,914467960
9,23,Ticks_Phase_5,121,9999,9999,9999,9999,914967648
9,23,Ticks_Phase_5,122,9999,9999,9999,9999,915467384
9,23,Ticks_Phase_5,123,9999,9999,9999,9999,915968120
9,23,Ticks_Phase_5,124,9999,9999,9999,9999,916478068
9,23,Ticks_Phase_5,125,9999,9999,9999,9999,916977760
9,23,Ticks_Phase_5,126,9999,9999,9999,9999,917477444
9,23,Ticks_Phase_5,127,9999,9999,9999,9999,917977208
9,23,Ticks_Phase_5,128,9999,9999,9999,9999,918477944
9,23,Ticks_Phase_5,129,9999,9999,9999,9999,918977632
9,23,Ticks_Phase_5,130,9999,9999,9999,9999,919477320
9,23,Ticks_Phase_5,131,9999,9999,9999,9999,920077416
9,23,Ticks_Phase_5,132,9999,9999,9999,9999,920577128
9,23,Ticks_Phase_5,133,9999,9999,9999,9999,921077860
9,23,Ticks_Phase_5,134,9999,9999,9999,9999,921577592
9,23,Ticks_Phase_5,135,9999,9999,9999,9999,922077280
9,23,Ticks_Phase_5,136,9999,9999,9999,9999,922578016
9,23,Ticks_Phase_5,137,9999,9999,9999,9999,923077704
9,23,Ticks_Phase_5,138,9999,9999,9999,9999,923577468
9,23,Ticks_Phase_5,139,9999,9999,9999,9999,924077156
9,23,Ticks_Phase_5,140,9999,9999,9999,9999,924577892
9,23,Ticks_Phase_5,141,9999,9999,9999,9999,925077580
9,23,Ticks_Phase_5,142,9999,9999,9999,9999,925577344
9,23,Ticks_Phase_5,143,9999,9999,9999,9999,926078080
9,23,Ticks_Phase_5,144,9999,9999,9999,9999,926577764
9,23,Ticks_Phase_5,145,9999,9999,9999,9999,927077456
9,23,Ticks_Phase_5,146,9999,9999,9999,9999,927577144
9,23,Ticks_Phase_5,147,9999,9999,9999,9999,928077876
9,23,Ticks_Phase_5,148,9999,9999,9999,9999,928577640
9,23,Ticks_Phase_5,149,9999,9999,9999,9999,929077328
9,23,Ticks_Phase_5,150,9999,9999,9999,9999,929477700
9,23,Ticks_Phase_5,151,9999,9999,9999,9999,929977464
9,23,Ticks_Phase_5,152,9999,9999,9999,9999,930477148
9,23,Ticks_Phase_5,153,9999,9999,9999,9999,930977876
9,23,Ticks_Phase_5,154,9999,9999,9999,9999,931477564
9,23,Ticks_Phase_5,155,9999,9999,9999,9999,931977328
9,23,Ticks_Phase_5,156,9999,9999,9999,9999,932478064
9,23,Ticks_Phase_5,157,9999,9999,9999,9999,932977752
9,23,Ticks_Phase_5,158,9999,9999,9999,9999,933477440
9,23,Ticks_Phase_5,159,9999,9999,9999,9999,933977204
9,23,Ticks_Phase_5,160,9999,9999,9999,9999,934477936
9,23,Ticks_Phase_5,161,9999,9999,9999,9999,934977624
9,23,Ticks_Phase_5,162,9999,9999,9999,9999,935477312
9,23,Ticks_Phase_5,163,9999,9999,9999,9999,935978048
9,23,Ticks_Phase_5,164,9999,9999,9999,9999,936477812
9,23,Ticks_Phase_5,165,9999,9999,9999,9999,936977476
9,23,Ticks_Phase_5,166,9999,9999,9999,9999,937477212
9,23,Ticks_Phase_5,167,9999,9999,9999,9999,937977952
9,23,Ticks_Phase_5,168,9999,9999,9999,9999,938477636
9,23,Ticks_Phase_5,169,9999,9999,9999,9999,938977400
10,22,Ticks_Phase_8,0,5,42,127,951492096
10,22,Ticks_Phase_8,1,5,42,127,952291828
10,22,Ticks_Phase_8,2,5,42,127,953091412
10,22,Ticks_Phase_8,3,5,42,127,953892144
10,22,Ticks_Phase_8,4,5,42,127,954692252
10,22,Ticks_Phase_8,5,1,48,46,954719344
10,22,Ticks_Phase_8,6,5,42,127,955491664
10,22,Ticks_Phase_8,7,1,48,52,955506764
10,22,Ticks_Phase_8,8,5,42,127,956291376
10,22,Ticks_Phase_8,9,1,48,57,956301984
10,22,Ticks_Phase_8,10,5,42,127,957092060
10,22,Ticks_Phase_8,11,1,48,51,957114652
10,22,Ticks_Phase_8,12,5,42,127,957892068
10,22,Ticks_Phase_8,13,1,48,51,957930768
10,22,Ticks_Phase_8,14,1,48,53,958656848
10,22,Ticks_Phase_8,15,5,42,127,958691776
10,22,Ticks_Phase_8,16,1,48,53,959457308
10,22,Ticks_Phase_8,17,5,42,127,959491336
10,22,Ticks_Phase_8,18,5,42,127,960292276
10,22,Ticks_Phase_8,19,1,48,54,960313596
10,22,Ticks_Phase_8,20,1,48,51,961083864
10,22,Ticks_Phase_8,21,5,42,127,961092052
10,22,Ticks_Phase_8,22,5,42,127,961891624
10,22,Ticks_Phase_8,23,1,48,35,961916456
10,22,Ticks_Phase_8,24,1,48,52,962676240
10,22,Ticks_Phase_8,25,5,42,127,962691552
10,22,Ticks_Phase_8,26,1,48,46,963485016
10,22,Ticks_Phase_8,27,5,42,127,963492088
10,22,Ticks_Phase_8,28,5,42,127,964291880
10,22,Ticks_Phase_8,29,1,48,52,964297688
10,22,Ticks_Phase_8,30,1,48,51,965072608
10,22,Ticks_Phase_8,31,5,42,127,965091736
10,22,Ticks_Phase_8,32,5,42,127,965891380
10,22,Ticks_Phase_8,33,1,48,56,965900568
10,22,Ticks_Phase_8,34,5,42,127,966692236
10,22,Ticks_Phase_8,35,1,48,46,966711612
10,22,Ticks_Phase_8,36,1,48,55,967467496
10,22,Ticks_Phase_8,37,5,42,127,967491868
10,22,Ticks_Phase_8,38,1,48,50,968282864
10,22,Ticks_Phase_8,39,5,42,127,968291656
10,22,Ticks_Phase_8,40,1,48,55,969076056
10,22,Ticks_Phase_8,41,5,42,127,969091364
10,22,Ticks_Phase_8,42,1,48,58,969875768
10,22,Ticks_Phase_8,43,5,42,127,969892196
10,22,Ticks_Phase_8,44,5,42,127,970691844
10,22,Ticks_Phase_8,45,1,48,52,970708064
10,22,Ticks_Phase_8,46,5,42,127,971491552
10,22,Ticks_Phase_8,47,1,48,43,971496312
10,22,Ticks_Phase_8,48,1,48,40,972283216
10,22,Ticks_Phase_8,49,5,42,127,972291480
10,22,Ticks_Phase_8,50,1,48,46,973045400
10,22,Ticks_Phase_8,51,5,42,127,973092336
10,22,Ticks_Phase_8,52,5,42,127,973891908
10,22,Ticks_Phase_8,53,1,48,53,973927224
10,22,Ticks_Phase_8,54,5,42,127,974691844
10,22,Ticks_Phase_8,55,1,48,42,974699228
10,22,Ticks_Phase_8,56,1,48,50,975459772
10,22,Ticks_Phase_8,57,5,42,127,975472080
10,22,Ticks_Phase_8,58,1,48,46,976268612
10,22,Ticks_Phase_8,59,5,42,127,976272016
10,22,Ticks_Phase_8,60,5,42,127,977071360
10,22,Ticks_Phase_8,61,1,48,57,977095516
10,22,Ticks_Phase_8,62,1,48,46,977861524
10,22,Ticks_Phase_8,63,5,42,127,977872260
10,22,Ticks_Phase_8,64,1,48,50,978651352
10,22,Ticks_Phase_8,65,5,42,127,978672044
10,22,Ticks_Phase_8,66,1,48,51,979462816
10,22,Ticks_Phase_8,67,5,42,127,979471980
10,22,Ticks_Phase_8,68,1,48,46,980250500
10,22,Ticks_Phase_8,69,5,42,127,980271496
10,22,Ticks_Phase_8,70,1,48,57,981042868
10,22,Ticks_Phase_8,71,5,42,127,981072104
10,22,Ticks_Phase_8,72,5,42,127,981871972
10,22,Ticks_Phase_8,73,1,48,58,981904220
10,22,Ticks_Phase_8,74,1,48,53,982661244
10,22,Ticks_Phase_8,75,5,42,127,982671676
10,22,Ticks_Phase_8,76,1,48,53,983468212
10,22,Ticks_Phase_8,77,5,42,127,983471684
10,22,Ticks_Phase_8,78,5,42,127,984272304
10,22,Ticks_Phase_8,79,1,48,58,984286052
10,22,Ticks_Phase_8,80,1,48,48,985056696
10,22,Ticks_Phase_8,81,5,42,127,985071932
10,22,Ticks_Phase_8,82,1,48,44,985869680
10,22,Ticks_Phase_8,83,5,42,127,985871644
10,22,Ticks_Phase_8,84,5,42,127,986671684
10,22,Ticks_Phase_8,85,1,48,48,986681624
10,22,Ticks_Phase_8,86,5,42,127,987472664
10,22,Ticks_Phase_8,87,1,48,35,987490172
10,22,Ticks_Phase_8,88,1,48,50,988241568
10,22,Ticks_Phase_8,89,5,42,127,988272072
10,22,Ticks_Phase_8,90,5,42,127,989071792
10,22,Ticks_Phase_8,91,1,48,52,989129048
10,22,Ticks_Phase_8,92,1,48,50,989830656
10,22,Ticks_Phase_8,93,5,42,127,989892088
10,22,Ticks_Phase_8,94,5,42,127,990691732
10,22,Ticks_Phase_8,95,1,48,49,990695900
10,22,Ticks_Phase_8,96,5,42,127,991491372
10,22,Ticks_Phase_8,97,1,48,48,991515552
10,22,Ticks_Phase_8,98,5,42,127,992292304
10,22,Ticks_Phase_8,99,1,48,46,992299624
10,22,Ticks_Phase_8,100,5,42,127,993091864
10,22,Ticks_Phase_8,101,1,48,49,993092832
10,22,Ticks_Phase_8,102,1,48,44,993890064
10,22,Ticks_Phase_8,103,5,42,127,993891796
10,22,Ticks_Phase_8,104,5,42,127,994691440
10,22,Ticks_Phase_8,105,1,48,37,994697404
10,22,Ticks_Phase_8,106,1,48,45,995484592
10,22,Ticks_Phase_8,107,5,42,127,995492264
10,22,Ticks_Phase_8,108,1,48,43,996277716
10,22,Ticks_Phase_8,109,5,42,127,996292124
10,22,Ticks_Phase_8,110,5,42,127,997091840
10,22,Ticks_Phase_8,111,1,48,46,997125216
10,22,Ticks_Phase_8,112,5,42,127,997891480
10,22,Ticks_Phase_8,113,1,48,43,997923908
10,22,Ticks_Phase_8,114,1,48,48,998649508
10,22,Ticks_Phase_8,115,5,42,127,998692108
10,22,Ticks_Phase_8,116,1,48,45,999475536
10,22,Ticks_Phase_8,117,5,42,127,999491892
10,22,Ticks_Phase_8,118,1,48,53,1000263796
10,22,Ticks_Phase_8,119,5,42,127,1000291980
10,22,Ticks_Phase_8,120,1,48,46,1001084620
10,22,Ticks_Phase_8,121,5,42,127,1001091468
10,22,Ticks_Phase_8,122,1,48,50,1001875344
10,22,Ticks_Phase_8,123,5,42,127,1001892300
10,22,Ticks_Phase_8,124,1,48,51,1002685692
10,22,Ticks_Phase_8,125,5,42,127,1002731856
10,22,Ticks_Phase_8,126,5,42,127,1003531868
10,22,Ticks_Phase_8,127,1,48,41,1003554936
10,22,Ticks_Phase_8,128,5,42,127,1004332356
10,22,Ticks_Phase_8,129,1,48,36,1004371800
10,22,Ticks_Phase_8,130,1,48,35,1005107092
10,22,Ticks_Phase_8,131,5,42,127,1005132284
10,22,Ticks_Phase_8,132,5,42,127,1005931856
10,22,Ticks_Phase_8,133,1,48,31,1005955864
10,22,Ticks_Phase_8,134,1,48,36,1006712508
10,22,Ticks_Phase_8,135,5,42,127,1006731708
10,22,Ticks_Phase_8,136,1,48,39,1007465788
10,22,Ticks_Phase_8,137,5,42,127,1007532544
10,22,Ticks_Phase_8,138,5,42,127,1008332188
10,22,Ticks_Phase_8,139,1,48,32,1008352316
10,22,Ticks_Phase_8,140,5,42,127,1009131824
10,22,Ticks_Phase_8,141,1,48,38,1009152548
10,22,Ticks_Phase_8,142,1,48,38,1009899756
10,22,Ticks_Phase_8,143,5,42,127,1009931608
10,22,Ticks_Phase_8,144,1,48,32,1010701260
10,22,Ticks_Phase_8,145,5,42,127,1010732468
10,22,Ticks_Phase_8,146,5,42,127,1011532332
10,22,Ticks_Phase_8,147,1,48,36,1011578136
10,22,Ticks_Phase_8,148,1,48,23,1012316880
10,22,Ticks_Phase_8,149,5,42,127,1012331888
10,22,Ticks_Phase_8,150,1,48,37,1013119060
10,22,Ticks_Phase_8,151,5,42,127,1013131528
10,22,Ticks_Phase_8,152,1,48,38,1013902680
10,22,Ticks_Phase_8,153,5,42,127,1013932360
10,22,Ticks_Phase_8,154,1,48,61,1014713316
10,22,Ticks_Phase_8,155,5,42,127,1014732296
10,22,Ticks_Phase_8,156,5,42,127,1015531864
10,22,Ticks_Phase_8,157,1,48,44,1015537004
10,22,Ticks_Phase_8,158,5,42,127,1016291812
10,22,Ticks_Phase_8,159,1,48,51,1016322864
10,22,Ticks_Phase_8,160,1,48,45,1017074260
10,22,Ticks_Phase_8,161,5,42,127,1017091440
10,22,Ticks_Phase_8,162,1,48,49,1017857492
10,22,Ticks_Phase_8,163,5,42,127,1017892148
10,22,Ticks_Phase_8,164,1,48,47,1018650348
10,22,Ticks_Phase_8,165,5,42,127,1018692232
10,22,Ticks_Phase_8,166,5,42,127,1019491656
10,22,Ticks_Phase_8,167,1,48,33,1019498516
10,22,Ticks_Phase_8,168,1,48,39,1020273880
10,22,Ticks_Phase_8,169,5,42,127,1020291436
10,22,Ticks_Phase_8,170,1,48,50,1021080036
10,22,Ticks_Phase_8,171,5,42,127,1021092192
10,22,Ticks_Phase_8,172,1,48,37,1021836832
10,22,Ticks_Phase_8,173,5,42,127,1021892128
10,22,Ticks_Phase_8,174,1,48,49,1022652424
10,22,Ticks_Phase_8,175,5,42,127,1022691768
10,22,Ticks_Phase_8,176,1,48,43,1023483584
10,22,Ticks_Phase_8,177,5,42,127,1023491404
10,22,Ticks_Phase_8,178,1,48,39,1024290836
10,22,Ticks_Phase_8,179,5,42,127,1024292636
10,22,Ticks_Phase_8,180,5,42,127,1025091904
10,22,Ticks_Phase_8,181,1,48,43,1025094876
10,22,Ticks_Phase_8,182,1,48,27,1025873236
10,22,Ticks_Phase_8,183,5,42,127,1025891908
10,22,Ticks_Phase_8,184,5,42,127,1026691404
10,22,Ticks_Phase_8,185,1,48,35,1026722532
10,22,Ticks_Phase_8,186,1,48,42,1027438656
10,22,Ticks_Phase_8,187,5,42,127,1027492232
10,22,Ticks_Phase_8,188,1,48,44,1028263236
10,22,Ticks_Phase_8,189,5,42,127,1028292020
10,22,Ticks_Phase_8,190,5,42,127,1029011760
10,22,Ticks_Phase_8,191,1,48,40,1029068944
10,22,Ticks_Phase_8,192,5,42,127,1029811840
10,22,Ticks_Phase_8,193,1,48,31,1029823576
10,22,Ticks_Phase_8,194,1,48,41,1030586124
10,22,Ticks_Phase_8,195,5,42,127,1030612368
10,22,Ticks_Phase_8,196,1,48,43,1031390416
10,22,Ticks_Phase_8,197,5,42,127,1031412008
10,22,Ticks_Phase_8,198,1,48,35,1032174916
10,22,Ticks_Phase_8,199,5,42,127,1032211744
10,22,Ticks_Phase_8,200,1,48,35,1032999436
10,22,Ticks_Phase_8,201,5,42,127,1033011528
10,22,Ticks_Phase_8,202,1,48,43,1033780812
10,22,Ticks_Phase_8,203,5,42,127,1033812436
10,22,Ticks_Phase_8,204,5,42,127,1034612008
10,22,Ticks_Phase_8,205,1,48,40,1034646952
10,22,Ticks_Phase_8,206,1,48,50,1035364428
10,22,Ticks_Phase_8,207,5,42,127,1035411788
10,22,Ticks_Phase_8,208,1,48,61,1036192448
10,22,Ticks_Phase_8,209,5,42,127,1036211500
10,22,Ticks_Phase_8,210,5,42,127,1037012264
10,22,Ticks_Phase_8,211,1,48,58,1037026316
10,22,Ticks_Phase_8,212,1,48,49,1037788568
10,22,Ticks_Phase_8,213,5,42,127,1037812340
10,22,Ticks_Phase_8,214,1,48,65,1038603412
10,22,Ticks_Phase_8,215,5,42,127,1038611704
10,22,Ticks_Phase_8,216,5,42,127,1039411496
10,22,Ticks_Phase_8,217,1,48,53,1039412984
10,22,Ticks_Phase_8,218,1,48,52,1040207276
10,22,Ticks_Phase_8,219,5,42,127,1040212472
10,22,Ticks_Phase_8,220,5,42,127,1041012040
10,22,Ticks_Phase_8,221,1,48,55,1041013156
10,22,Ticks_Phase_8,222,1,48,53,1041809464
10,22,Ticks_Phase_8,223,5,42,127,1041812044
10,22,Ticks_Phase_8,224,1,48,52,1042600052
10,22,Ticks_Phase_8,225,5,42,127,1042691440
10,22,Ticks_Phase_8,226,5,42,127,1043492156
10,22,Ticks_Phase_8,227,1,48,46,1043521716
10,22,Ticks_Phase_8,228,5,42,127,1044292016
10,22,Ticks_Phase_8,229,1,48,46,1044347932
10,22,Ticks_Phase_8,230,1,48,44,1045075288
10,22,Ticks_Phase_8,231,5,42,127,1045091720
10,22,Ticks_Phase_8,232,5,42,127,1045891440
10,22,Ticks_Phase_8,233,1,48,48,1045905640
10,22,Ticks_Phase_8,234,1,48,48,1046685196
10,22,Ticks_Phase_8,235,5,42,127,1046692192
10,22,Ticks_Phase_8,236,1,48,40,1047482816
10,22,Ticks_Phase_8,237,5,42,127,1047491904
10,22,Ticks_Phase_8,238,1,48,34,1048278772
10,22,Ticks_Phase_8,239,5,42,127,1048291768
10,22,Ticks_Phase_8,240,5,42,127,1049091780
10,22,Ticks_Phase_8,241,1,48,59,1049109224
10,22,Ticks_Phase_8,242,1,48,59,1049844952
10,22,Ticks_Phase_8,243,5,42,127,1049892112
10,22,Ticks_Phase_8,244,1,48,57,1050656816
10,22,Ticks_Phase_8,245,5,42,127,1050691824
10,22,Ticks_Phase_8,246,1,48,56,1051468884
10,22,Ticks_Phase_8,247,5,42,127,1051491684
10,22,Ticks_Phase_8,248,1,48,53,1052273696
10,22,Ticks_Phase_8,249,5,42,127,1052291620
10,22,Ticks_Phase_8,250,1,48,40,1053079700
10,22,Ticks_Phase_8,251,5,42,127,1053092300
10,22,Ticks_Phase_8,252,1,48,57,1053877004
10,22,Ticks_Phase_8,253,5,42,127,1053891940
10,22,Ticks_Phase_8,254,5,42,127,1054691660
10,22,Ticks_Phase_8,255,1,48,47,1054703916
10,22,Ticks_Phase_8,256,1,48,48,1055479568
10,22,Ticks_Phase_8,257,5,42,127,1055491440
10,22,Ticks_Phase_8,258,1,48,54,1056292420
10,22,Ticks_Phase_8,259,5,42,127,1056451944
10,22,Ticks_Phase_8,260,1,48,49,1057144476
10,22,Ticks_Phase_8,261,5,42,127,1057251808
10,22,Ticks_Phase_8,262,5,42,127,1058051392
10,22,Ticks_Phase_8,263,1,48,28,1058150096
10,22,Ticks_Phase_8,264,5,42,127,1058852252
10,22,Ticks_Phase_8,265,1,48,48,1058861292
10,22,Ticks_Phase_8,266,1,48,51,1059609608
10,22,Ticks_Phase_8,267,5,42,127,1059651952
10,22,Ticks_Phase_8,268,1,48,46,1060412248
10,22,Ticks_Phase_8,269,5,42,127,1060451668
10,22,Ticks_Phase_8,270,1,48,49,1061247748
10,22,Ticks_Phase_8,271,5,42,127,1061251528
10,22,Ticks_Phase_8,272,1,48,48,1062042372
10,22,Ticks_Phase_8,273,5,42,127,1062052136
10,22,Ticks_Phase_8,274,1,48,42,1062805540
10,22,Ticks_Phase_8,275,5,42,127,1062852072
10,22,Ticks_Phase_8,276,5,42,127,1063651568
10,22,Ticks_Phase_8,277,1,48,50,1063711404
10,22,Ticks_Phase_8,278,5,42,127,1064451504
10,22,Ticks_Phase_8,279,1,48,41,1064465204
10,22,Ticks_Phase_8,280,1,48,40,1065237648
10,22,Ticks_Phase_8,281,5,42,127,1065252132
10,22,Ticks_Phase_8,282,5,42,127,1066051924
10,22,Ticks_Phase_8,283,1,48,39,1066082384
10,22,Ticks_Phase_8,284,1,48,48,1066812512
10,22,Ticks_Phase_8,285,5,42,127,1066851928
10,22,Ticks_Phase_8,286,1,48,39,1067626440
10,22,Ticks_Phase_8,287,5,42,127,1067651564
10,22,Ticks_Phase_8,288,5,42,127,1068452184
10,22,Ticks_Phase_8,289,1,48,42,1068458888
10,22,Ticks_Phase_8,290,1,48,44,1069248984
10,22,Ticks_Phase_8,291,5,42,127,1069252012
10,22,Ticks_Phase_8,292,5,42,127,1070051880
10,22,Ticks_Phase_8,293,1,48,38,1070063608
10,22,Ticks_Phase_8,294,1,48,14,1070500912
10,22,Ticks_Phase_8,295,5,42,127,1070851420
10,22,Ticks_Phase_8,296,1,48,33,1070914624
10,22,Ticks_Phase_8,297,5,42,127,1071491544
10,22,Ticks_Phase_8,298,1,48,40,1071667152
10,22,Ticks_Phase_8,299,1,48,15,1072247632
10,22,Ticks_Phase_8,300,5,42,127,1072292148
10,22,Ticks_Phase_8,301,1,48,46,1073068832
10,22,Ticks_Phase_8,302,5,42,127,1073092084
10,22,Ticks_Phase_8,303,1,48,41,1073879568
10,22,Ticks_Phase_8,304,5,42,127,1073891648
10,22,Ticks_Phase_8,305,1,48,36,1074688552
10,22,Ticks_Phase_8,306,5,42,127,1074691732
10,22,Ticks_Phase_8,307,5,42,127,1075492076
10,22,Ticks_Phase_8,308,1,48,43,1075495640
10,22,Ticks_Phase_8,309,1,48,42,1076277068
10,22,Ticks_Phase_8,310,5,42,127,1076291856
10,22,Ticks_Phase_8,311,1,48,46,1077088388
10,22,Ticks_Phase_8,312,5,42,127,1077091568
10,22,Ticks_Phase_8,313,5,42,127,1077891512
10,22,Ticks_Phase_8,314,1,48,41,1077915072
10,22,Ticks_Phase_8,315,1,48,47,1078680632
10,22,Ticks_Phase_8,316,5,42,127,1078692412
10,22,Ticks_Phase_8,317,1,48,48,1079484152
10,22,Ticks_Phase_8,318,5,42,127,1079491900
10,22,Ticks_Phase_8,319,5,42,127,1080291692
10,22,Ticks_Phase_8,320,1,48,42,1080297508
10,22,Ticks_Phase_8,321,5,42,127,1081091404
10,22,Ticks_Phase_8,322,1,48,37,1081122408
10,22,Ticks_Phase_8,323,5,42,127,1081892260
10,22,Ticks_Phase_8,324,1,48,45,1081912084
10,22,Ticks_Phase_8,325,1,48,44,1082679736
10,22,Ticks_Phase_8,326,5,42,127,1082692188
10,22,Ticks_Phase_8,327,5,42,127,1083491832
10,22,Ticks_Phase_8,328,1,48,25,1083553440
10,22,Ticks_Phase_8,329,1,48,48,1084283048
10,22,Ticks_Phase_8,330,5,42,127,1084291316
10,22,Ticks_Phase_8,331,1,48,43,1085072800
10,22,Ticks_Phase_8,332,5,42,127,1085092148
10,22,Ticks_Phase_8,333,1,48,44,1085868088
10,22,Ticks_Phase_8,334,5,42,127,1085892084
10,22,Ticks_Phase_8,335,5,42,127,1086691652
10,22,Ticks_Phase_8,336,1,48,42,1086694848
10,22,Ticks_Phase_8,0,9999,9999,9999,9999,951489660
10,22,Ticks_Phase_8,1,9999,9999,9999,9999,952289392
10,22,Ticks_Phase_8,2,9999,9999,9999,9999,953089128
10,22,Ticks_Phase_8,3,9999,9999,9999,9999,953889856
10,22,Ticks_Phase_8,4,9999,9999,9999,9999,954689592
10,22,Ticks_Phase_8,5,9999,9999,9999,9999,955489380
10,22,Ticks_Phase_8,6,9999,9999,9999,9999,956289092
10,22,Ticks_Phase_8,7,9999,9999,9999,9999,957089848
10,22,Ticks_Phase_8,8,9999,9999,9999,9999,957889636
10,22,Ticks_Phase_8,9,9999,9999,9999,9999,958689340
10,22,Ticks_Phase_8,10,9999,9999,9999,9999,959489124
10,22,Ticks_Phase_8,11,9999,9999,9999,9999,960289916
10,22,Ticks_Phase_8,12,9999,9999,9999,9999,961089620
10,22,Ticks_Phase_8,13,9999,9999,9999,9999,961889336
10,22,Ticks_Phase_8,14,9999,9999,9999,9999,962689116
10,22,Ticks_Phase_8,15,9999,9999,9999,9999,963489876
10,22,Ticks_Phase_8,16,9999,9999,9999,9999,964289596
10,22,Ticks_Phase_8,17,9999,9999,9999,9999,965089376
10,22,Ticks_Phase_8,18,9999,9999,9999,9999,965889092
10,22,Ticks_Phase_8,19,9999,9999,9999,9999,966689876
10,22,Ticks_Phase_8,20,9999,9999,9999,9999,967489656
10,22,Ticks_Phase_8,21,9999,9999,9999,9999,968289368
10,22,Ticks_Phase_8,22,9999,9999,9999,9999,969089080
10,22,Ticks_Phase_8,23,9999,9999,9999,9999,969889912
10,22,Ticks_Phase_8,24,9999,9999,9999,9999,970689628
10,22,Ticks_Phase_8,25,9999,9999,9999,9999,971489340
10,22,Ticks_Phase_8,26,9999,9999,9999,9999,972289120
10,22,Ticks_Phase_8,27,9999,9999,9999,9999,973089904
10,22,Ticks_Phase_8,28,9999,9999,9999,9999,973889620
10,22,Ticks_Phase_8,29,9999,9999,9999,9999,974689408
10,22,Ticks_Phase_8,30,9999,9999,9999,9999,975469644
10,22,Ticks_Phase_8,31,9999,9999,9999,9999,976269432
10,22,Ticks_Phase_8,32,9999,9999,9999,9999,977069148
10,22,Ticks_Phase_8,33,9999,9999,9999,9999,977869900
10,22,Ticks_Phase_8,34,9999,9999,9999,9999,978669684
10,22,Ticks_Phase_8,35,9999,9999,9999,9999,979469396
10,22,Ticks_Phase_8,36,9999,9999,9999,9999,980269136
10,22,Ticks_Phase_8,37,9999,9999,9999,9999,981069892
10,22,Ticks_Phase_8,38,9999,9999,9999,9999,981869684
10,22,Ticks_Phase_8,39,9999,9999,9999,9999,982669392
10,22,Ticks_Phase_8,40,9999,9999,9999,9999,983469176
10,22,Ticks_Phase_8,41,9999,9999,9999,9999,984269940
10,22,Ticks_Phase_8,42,9999,9999,9999,9999,985069644
10,22,Ticks_Phase_8,43,9999,9999,9999,9999,985869396
10,22,Ticks_Phase_8,44,9999,9999,9999,9999,986669172
10,22,Ticks_Phase_8,45,9999,9999,9999,9999,987469932
10,22,Ticks_Phase_8,46,9999,9999,9999,9999,988269636
10,22,Ticks_Phase_8,47,9999,9999,9999,9999,989069428
10,22,Ticks_Phase_8,48,9999,9999,9999,9999,989889652
10,22,Ticks_Phase_8,49,9999,9999,9999,9999,990689372
10,22,Ticks_Phase_8,50,9999,9999,9999,9999,991489084
10,22,Ticks_Phase_8,51,9999,9999,9999,9999,992289868
10,22,Ticks_Phase_8,52,9999,9999,9999,9999,993089652
10,22,Ticks_Phase_8,53,9999,9999,9999,9999,993889372
10,22,Ticks_Phase_8,54,9999,9999,9999,9999,994689152
10,22,Ticks_Phase_8,55,9999,9999,9999,9999,995489904
10,22,Ticks_Phase_8,56,9999,9999,9999,9999,996289616
10,22,Ticks_Phase_8,57,9999,9999,9999,9999,997089408
10,22,Ticks_Phase_8,58,9999,9999,9999,9999,997889120
10,22,Ticks_Phase_8,59,9999,9999,9999,9999,998689896
10,22,Ticks_Phase_8,60,9999,9999,9999,9999,999489608
10,22,Ticks_Phase_8,61,9999,9999,9999,9999,1000289396
10,22,Ticks_Phase_8,62,9999,9999,9999,9999,1001089108
10,22,Ticks_Phase_8,63,9999,9999,9999,9999,1001889864
10,22,Ticks_Phase_8,64,9999,9999,9999,9999,1002729568
10,22,Ticks_Phase_8,65,9999,9999,9999,9999,1003529284
10,22,Ticks_Phase_8,66,9999,9999,9999,9999,1004330072
10,22,Ticks_Phase_8,67,9999,9999,9999,9999,1005129852
10,22,Ticks_Phase_8,68,9999,9999,9999,9999,1005929568
10,22,Ticks_Phase_8,69,9999,9999,9999,9999,1006729276
10,22,Ticks_Phase_8,70,9999,9999,9999,9999,1007530108
10,22,Ticks_Phase_8,71,9999,9999,9999,9999,1008329828
10,22,Ticks_Phase_8,72,9999,9999,9999,9999,1009129540
10,22,Ticks_Phase_8,73,9999,9999,9999,9999,1009929320
10,22,Ticks_Phase_8,74,9999,9999,9999,9999,1010730104
10,22,Ticks_Phase_8,75,9999,9999,9999,9999,1011529824
10,22,Ticks_Phase_8,76,9999,9999,9999,9999,1012329528
10,22,Ticks_Phase_8,77,9999,9999,9999,9999,1013129316
10,22,Ticks_Phase_8,78,9999,9999,9999,9999,1013930072
10,22,Ticks_Phase_8,79,9999,9999,9999,9999,1014729784
10,22,Ticks_Phase_8,80,9999,9999,9999,9999,1015529576
10,22,Ticks_Phase_8,81,9999,9999,9999,9999,1016289372
10,22,Ticks_Phase_8,82,9999,9999,9999,9999,1017089080
10,22,Ticks_Phase_8,83,9999,9999,9999,9999,1017889860
10,22,Ticks_Phase_8,84,9999,9999,9999,9999,1018689648
10,22,Ticks_Phase_8,85,9999,9999,9999,9999,1019489368
10,22,Ticks_Phase_8,86,9999,9999,9999,9999,1020289148
10,22,Ticks_Phase_8,87,9999,9999,9999,9999,1021089904
10,22,Ticks_Phase_8,88,9999,9999,9999,9999,1021889620
10,22,Ticks_Phase_8,89,9999,9999,9999,9999,1022689404
10,22,Ticks_Phase_8,90,9999,9999,9999,9999,1023489116
10,22,Ticks_Phase_8,91,9999,9999,9999,9999,1024289908
10,22,Ticks_Phase_8,92,9999,9999,9999,9999,1025089620
10,22,Ticks_Phase_8,93,9999,9999,9999,9999,1025889400
10,22,Ticks_Phase_8,94,9999,9999,9999,9999,1026689116
10,22,Ticks_Phase_8,95,9999,9999,9999,9999,1027489872
10,22,Ticks_Phase_8,96,9999,9999,9999,9999,1028289656
10,22,Ticks_Phase_8,97,9999,9999,9999,9999,1029009472
10,22,Ticks_Phase_8,98,9999,9999,9999,9999,1029809256
10,22,Ticks_Phase_8,99,9999,9999,9999,9999,1030610008
10,22,Ticks_Phase_8,100,9999,9999,9999,9999,1031409720
10,22,Ticks_Phase_8,101,9999,9999,9999,9999,1032209532
10,22,Ticks_Phase_8,102,9999,9999,9999,9999,1033009244
10,22,Ticks_Phase_8,103,9999,9999,9999,9999,1033810000
10,22,Ticks_Phase_8,104,9999,9999,9999,9999,1034609720
10,22,Ticks_Phase_8,105,9999,9999,9999,9999,1035409500
10,22,Ticks_Phase_8,106,9999,9999,9999,9999,1036209212
10,22,Ticks_Phase_8,107,9999,9999,9999,9999,1037009976
10,22,Ticks_Phase_8,108,9999,9999,9999,9999,1037809756
10,22,Ticks_Phase_8,109,9999,9999,9999,9999,1038609492
10,22,Ticks_Phase_8,110,9999,9999,9999,9999,1039409212
10,22,Ticks_Phase_8,111,9999,9999,9999,9999,1040210036
10,22,Ticks_Phase_8,112,9999,9999,9999,9999,1041009756
10,22,Ticks_Phase_8,113,9999,9999,9999,9999,1041809536
10,22,Ticks_Phase_8,114,9999,9999,9999,9999,1042689076
10,22,Ticks_Phase_8,115,9999,9999,9999,9999,1043489868
10,22,Ticks_Phase_8,116,9999,9999,9999,9999,1044289656
10,22,Ticks_Phase_8,117,9999,9999,9999,9999,1045089360
10,22,Ticks_Phase_8,118,9999,9999,9999,9999,1045889080
10,22,Ticks_Phase_8,119,9999,9999,9999,9999,1046689904
10,22,Ticks_Phase_8,120,9999,9999,9999,9999,1047489616
10,22,Ticks_Phase_8,121,9999,9999,9999,9999,1048289404
10,22,Ticks_Phase_8,122,9999,9999,9999,9999,1049089124
10,22,Ticks_Phase_8,123,9999,9999,9999,9999,1049889900
10,22,Ticks_Phase_8,124,9999,9999,9999,9999,1050689608
10,22,Ticks_Phase_8,125,9999,9999,9999,9999,1051489396
10,22,Ticks_Phase_8,126,9999,9999,9999,9999,1052289108
10,22,Ticks_Phase_8,127,9999,9999,9999,9999,1053089868
10,22,Ticks_Phase_8,128,9999,9999,9999,9999,1053889652
10,22,Ticks_Phase_8,129,9999,9999,9999,9999,1054689372
10,22,Ticks_Phase_8,130,9999,9999,9999,9999,1055489152
10,22,Ticks_Phase_8,131,9999,9999,9999,9999,1056449656
10,22,Ticks_Phase_8,132,9999,9999,9999,9999,1057249372
10,22,Ticks_Phase_8,133,9999,9999,9999,9999,1058049104
10,22,Ticks_Phase_8,134,9999,9999,9999,9999,1058849888
10,22,Ticks_Phase_8,135,9999,9999,9999,9999,1059649592
10,22,Ticks_Phase_8,136,9999,9999,9999,9999,1060449380
10,22,Ticks_Phase_8,137,9999,9999,9999,9999,1061249092
10,22,Ticks_Phase_8,138,9999,9999,9999,9999,1062049848
10,22,Ticks_Phase_8,139,9999,9999,9999,9999,1062849640
10,22,Ticks_Phase_8,140,9999,9999,9999,9999,1063649356
10,22,Ticks_Phase_8,141,9999,9999,9999,9999,1064449144
10,22,Ticks_Phase_8,142,9999,9999,9999,9999,1065249848
10,22,Ticks_Phase_8,143,9999,9999,9999,9999,1066049636
10,22,Ticks_Phase_8,144,9999,9999,9999,9999,1066849344
10,22,Ticks_Phase_8,145,9999,9999,9999,9999,1067649128
10,22,Ticks_Phase_8,146,9999,9999,9999,9999,1068449896
10,22,Ticks_Phase_8,147,9999,9999,9999,9999,1069249652
10,22,Ticks_Phase_8,148,9999,9999,9999,9999,1070049368
10,22,Ticks_Phase_8,149,9999,9999,9999,9999,1070849132
10,22,Ticks_Phase_8,150,9999,9999,9999,9999,1071489108
10,22,Ticks_Phase_8,151,9999,9999,9999,9999,1072289864
10,22,Ticks_Phase_8,152,9999,9999,9999,9999,1073089648
10,22,Ticks_Phase_8,153,9999,9999,9999,9999,1073889360
10,22,Ticks_Phase_8,154,9999,9999,9999,9999,1074689148
10,22,Ticks_Phase_8,155,9999,9999,9999,9999,1075489864
10,22,Ticks_Phase_8,156,9999,9999,9999,9999,1076289644
10,22,Ticks_Phase_8,157,9999,9999,9999,9999,1077089356
10,22,Ticks_Phase_8,158,9999,9999,9999,9999,1077889152
10,22,Ticks_Phase_8,159,9999,9999,9999,9999,1078689900
10,22,Ticks_Phase_8,160,9999,9999,9999,9999,1079489612
10,22,Ticks_Phase_8,161,9999,9999,9999,9999,1080289408
10,22,Ticks_Phase_8,162,9999,9999,9999,9999,1081089116
10,22,Ticks_Phase_8,163,9999,9999,9999,9999,1081889900
10,22,Ticks_Phase_8,164,9999,9999,9999,9999,1082689604
10,22,Ticks_Phase_8,165,9999,9999,9999,9999,1083489396
10,22,Ticks_Phase_8,166,9999,9999,9999,9999,1084289104
10,22,Ticks_Phase_8,167,9999,9999,9999,9999,1085089860
10,22,Ticks_Phase_8,168,9999,9999,9999,9999,1085889648
10,22,Ticks_Phase_8,169,9999,9999,9999,9999,1086689364
11,25,Jits_Pract_5,0,5,56,103,1156237632
11,25,Jits_Pract_5,1,5,63,98,1156240728
11,25,Jits_Pract_5,2,5,80,127,1156243852
11,25,Jits_Pract_5,0,5,56,103,1156738624
11,25,Jits_Pract_5,1,5,63,98,1156741652
11,25,Jits_Pract_5,2,5,80,127,1156744772
11,25,Jits_Pract_5,0,5,56,103,1157238144
11,25,Jits_Pract_5,1,5,80,127,1157248488
11,25,Jits_Pract_5,2,5,63,98,1157267900
11,25,Jits_Pract_5,0,5,63,98,1157687612
11,25,Jits_Pract_5,1,5,80,127,1157718560
11,25,Jits_Pract_5,2,5,56,103,1157727564
11,25,Jits_Pract_5,0,5,80,127,1158247728
11,25,Jits_Pract_5,1,5,56,103,1158258076
11,25,Jits_Pract_5,2,1,48,70,1158266444
11,25,Jits_Pract_5,3,5,63,98,1158287596
11,25,Jits_Pract_5,0,1,48,54,1158726280
11,25,Jits_Pract_5,1,5,63,98,1158747508
11,25,Jits_Pract_5,2,5,56,103,1158778156
11,25,Jits_Pract_5,3,5,80,127,1158787604
11,25,Jits_Pract_5,0,5,56,103,1159197984
11,25,Jits_Pract_5,1,5,63,98,1159248112
11,25,Jits_Pract_5,2,1,48,56,1159252648
11,25,Jits_Pract_5,3,5,80,127,1159267664
11,25,Jits_Pract_5,0,5,80,127,1159697836
11,25,Jits_Pract_5,1,1,48,44,1159741936
11,25,Jits_Pract_5,2,5,63,98,1159747808
11,25,Jits_Pract_5,3,5,56,103,1159787824
11,25,Jits_Pract_5,0,5,56,103,1160197616
11,25,Jits_Pract_5,1,5,63,98,1160228488
11,25,Jits_Pract_5,2,1,48,45,1160236040
11,25,Jits_Pract_5,3,5,80,127,1160297712
11,25,Jits_Pract_5,0,5,56,103,1160698416
11,25,Jits_Pract_5,1,1,48,48,1160730708
11,25,Jits_Pract_5,2,5,80,127,1160757632
11,25,Jits_Pract_5,3,5,63,98,1160788500
11,25,Jits_Pract_5,0,5,56,103,1161208236
11,25,Jits_Pract_5,1,5,63,98,1161218580
11,25,Jits_Pract_5,2,5,80,127,1161258396
11,25,Jits_Pract_5,3,1,48,51,1161259364
11,25,Jits_Pract_5,0,5,63,98,1161697604
11,25,Jits_Pract_5,1,1,48,51,1161739336
11,25,Jits_Pract_5,2,5,80,127,1161777568
11,25,Jits_Pract_5,3,5,56,103,1161787764
11,25,Jits_Pract_5,0,5,63,98,1162247444
11,25,Jits_Pract_5,1,1,48,46,1162253780
11,25,Jits_Pract_5,2,5,56,103,1162287524
11,25,Jits_Pract_5,3,5,80,127,1162290664
11,25,Jits_Pract_5,0,5,56,103,1162717576
11,25,Jits_Pract_5,1,5,63,98,1162727772
11,25,Jits_Pract_5,2,5,80,127,1162767588
11,25,Jits_Pract_5,3,1,48,49,1162772200
11,25,Jits_Pract_5,0,5,56,103,1163207900
11,25,Jits_Pract_5,1,5,63,98,1163211048
11,25,Jits_Pract_5,2,5,80,127,1163227616
11,25,Jits_Pract_5,3,1,48,48,1163253576
11,25,Jits_Pract_5,0,9999,9999,9999,9999,1156485216
11,25,Jits_Pract_5,1,9999,9999,9999,9999,1156985912
11,25,Jits_Pract_5,2,9999,9999,9999,9999,1157485656
11,25,Jits_Pract_5,3,9999,9999,9999,9999,1157985396
11,25,Jits_Pract_5,4,9999,9999,9999,9999,1158486084
11,25,Jits_Pract_5,5,9999,9999,9999,9999,1158996056
11,25,Jits_Pract_5,6,9999,9999,9999,9999,1159495744
11,25,Jits_Pract_5,7,9999,9999,9999,9999,1159995452
11,25,Jits_Pract_5,8,9999,9999,9999,9999,1160495156
11,25,Jits_Pract_5,9,9999,9999,9999,9999,1160995904
11,25,Jits_Pract_5,10,9999,9999,9999,9999,1161495608
11,25,Jits_Pract_5,11,9999,9999,9999,9999,1161995320
11,25,Jits_Pract_5,12,9999,9999,9999,9999,1162496100
11,25,Jits_Pract_5,13,9999,9999,9999,9999,1163006044
11,25,Jits_Pract_5,14,9999,9999,9999,9999,1163505728
12,24,Jits_Pract_8,0,5,56,103,1170603328
12,24,Jits_Pract_8,1,5,63,98,1170606352
12,24,Jits_Pract_8,2,5,80,127,1170609548
12,24,Jits_Pract_8,0,5,56,103,1171403044
12,24,Jits_Pract_8,1,5,63,98,1171406140
12,24,Jits_Pract_8,2,5,80,127,1171409412
12,24,Jits_Pract_8,0,5,80,127,1172142392
12,24,Jits_Pract_8,1,5,63,98,1172232552
12,24,Jits_Pract_8,2,5,56,103,1172243120
12,24,Jits_Pract_8,0,5,56,103,1172962880
12,24,Jits_Pract_8,1,5,63,98,1172972928
12,24,Jits_Pract_8,2,5,80,127,1173063008
12,24,Jits_Pract_8,0,1,48,72,1173717100
12,24,Jits_Pract_8,1,5,63,98,1173733012
12,24,Jits_Pract_8,2,5,80,127,1173762316
12,24,Jits_Pract_8,3,5,56,103,1173793112
12,24,Jits_Pract_8,0,1,48,63,1174478464
12,24,Jits_Pract_8,1,5,56,103,1174532540
12,24,Jits_Pract_8,2,5,80,127,1174632776
12,24,Jits_Pract_8,3,5,63,98,1174682976
12,24,Jits_Pract_8,0,5,56,103,1175333204
12,24,Jits_Pract_8,1,1,48,62,1175341204
12,24,Jits_Pract_8,2,5,80,127,1175383548
12,24,Jits_Pract_8,3,5,63,98,1175423412
12,24,Jits_Pract_8,0,5,80,127,1176162636
12,24,Jits_Pract_8,1,1,48,57,1176166052
12,24,Jits_Pract_8,2,5,63,98,1176193504
12,24,Jits_Pract_8,3,5,56,103,1176263092
12,24,Jits_Pract_8,0,1,48,45,1176966268
12,24,Jits_Pract_8,1,5,63,98,1176993192
12,24,Jits_Pract_8,2,5,56,103,1177022796
12,24,Jits_Pract_8,3,5,80,127,1177083244
12,24,Jits_Pract_8,0,5,56,103,1177732648
12,24,Jits_Pract_8,1,5,80,127,1177735640
12,24,Jits_Pract_8,2,1,48,53,1177816524
12,24,Jits_Pract_8,3,5,63,98,1177853188
12,24,Jits_Pract_8,0,1,48,57,1178596124
12,24,Jits_Pract_8,1,5,56,103,1178613016
12,24,Jits_Pract_8,2,5,80,127,1178653052
12,24,Jits_Pract_8,3,5,63,98,1178663176
12,24,Jits_Pract_8,0,5,56,103,1179372776
12,24,Jits_Pract_8,1,5,80,127,1179393532
12,24,Jits_Pract_8,2,1,48,47,1179444232
12,24,Jits_Pract_8,3,5,63,98,1179473392
12,24,Jits_Pract_8,0,5,80,127,1180162508
12,24,Jits_Pract_8,1,1,48,43,1180230648
12,24,Jits_Pract_8,2,5,56,103,1180262752
12,24,Jits_Pract_8,3,5,63,98,1180272948
12,24,Jits_Pract_8,0,5,63,98,1180932464
12,24,Jits_Pract_8,1,5,80,127,1180992856
12,24,Jits_Pract_8,2,5,56,103,1181003124
12,24,Jits_Pract_8,3,1,48,46,1181040244
12,24,Jits_Pract_8,0,5,56,103,1181733188
12,24,Jits_Pract_8,1,5,63,98,1181802792
12,24,Jits_Pract_8,2,5,80,127,1181806080
12,24,Jits_Pract_8,3,1,48,48,1181857668
12,24,Jits_Pract_8,0,9999,9999,9999,9999,1171000388
12,24,Jits_Pract_8,1,9999,9999,9999,9999,1171800180
12,24,Jits_Pract_8,2,9999,9999,9999,9999,1172600888
12,24,Jits_Pract_8,3,9999,9999,9999,9999,1173400700
12,24,Jits_Pract_8,4,9999,9999,9999,9999,1174200380
12,24,Jits_Pract_8,5,9999,9999,9999,9999,1175000140
12,24,Jits_Pract_8,6,9999,9999,9999,9999,1175800944
12,24,Jits_Pract_8,7,9999,9999,9999,9999,1176600656
12,24,Jits_Pract_8,8,9999,9999,9999,9999,1177400436
12,24,Jits_Pract_8,9,9999,9999,9999,9999,1178200176
12,24,Jits_Pract_8,10,9999,9999,9999,9999,1179000924
12,24,Jits_Pract_8,11,9999,9999,9999,9999,1179800660
12,24,Jits_Pract_8,12,9999,9999,9999,9999,1180600432
12,24,Jits_Pract_8,13,9999,9999,9999,9999,1181400124
12,24,Jits_Pract_8,14,9999,9999,9999,9999,1182200916
13,19,Jits_Linear_5,0,5,56,103,1209192828
13,19,Jits_Linear_5,1,5,63,98,1209195924
13,19,Jits_Linear_5,2,5,80,127,1209199120
13,19,Jits_Linear_5,0,5,56,103,1209673368
13,19,Jits_Linear_5,1,5,63,98,1209676312
13,19,Jits_Linear_5,2,5,80,127,1209679356
13,19,Jits_Linear_5,0,5,56,103,1210153464
13,19,Jits_Linear_5,1,5,80,127,1210162616
13,19,Jits_Linear_5,2,5,63,98,1210183076
13,19,Jits_Linear_5,0,5,63,98,1210583424
13,19,Jits_Linear_5,1,5,80,127,1210613252
13,19,Jits_Linear_5,2,5,56,103,1210623300
13,19,Jits_Linear_5,0,1,48,72,1211093504
13,19,Jits_Linear_5,1,5,80,127,1211123048
13,19,Jits_Linear_5,2,5,56,103,1211133392
13,19,Jits_Linear_5,3,5,63,98,1211163144
13,19,Jits_Linear_5,0,1,48,62,1211573092
13,19,Jits_Linear_5,1,5,63,98,1211603240
13,19,Jits_Linear_5,2,5,56,103,1211633068
13,19,Jits_Linear_5,3,5,80,127,1211643188
13,19,Jits_Linear_5,0,5,56,103,1212042624
13,19,Jits_Linear_5,1,1,48,64,1212086048
13,19,Jits_Linear_5,2,5,63,98,1212092748
13,19,Jits_Linear_5,3,5,80,127,1212113208
13,19,Jits_Linear_5,0,5,80,127,1212533112
13,19,Jits_Linear_5,1,1,48,60,1212556536
13,19,Jits_Linear_5,2,5,63,98,1212583160
13,19,Jits_Linear_5,3,5,56,103,1212623248
13,19,Jits_Linear_5,0,5,56,103,1213033112
13,19,Jits_Linear_5,1,1,48,66,1213044400
13,19,Jits_Linear_5,2,5,63,98,1213062560
13,19,Jits_Linear_5,3,5,80,127,1213133212
13,19,Jits_Linear_5,0,1,48,58,1213515104
13,19,Jits_Linear_5,1,5,56,103,1213523296
13,19,Jits_Linear_5,2,5,80,127,1213582792
13,19,Jits_Linear_5,3,5,63,98,1213613500
13,19,Jits_Linear_5,0,5,56,103,1214023216
13,19,Jits_Linear_5,1,5,63,98,1214033264
13,19,Jits_Linear_5,2,1,48,64,1214052272
13,19,Jits_Linear_5,3,5,80,127,1214073124
13,19,Jits_Linear_5,0,5,63,98,1214512356
13,19,Jits_Linear_5,1,1,48,57,1214529776
13,19,Jits_Linear_5,2,5,80,127,1214593344
13,19,Jits_Linear_5,3,5,56,103,1214602568
13,19,Jits_Linear_5,0,1,48,56,1215013140
13,19,Jits_Linear_5,1,5,63,98,1215063436
13,19,Jits_Linear_5,2,5,56,103,1215103300
13,19,Jits_Linear_5,3,5,80,127,1215107248
13,19,Jits_Linear_5,0,1,48,60,1215514388
13,19,Jits_Linear_5,1,5,56,103,1215523184
13,19,Jits_Linear_5,2,5,63,98,1215533604
13,19,Jits_Linear_5,3,5,80,127,1215573320
13,19,Jits_Linear_5,0,1,48,60,1216002396
13,19,Jits_Linear_5,1,5,56,103,1216012756
13,19,Jits_Linear_5,2,5,63,98,1216015824
13,19,Jits_Linear_5,3,5,80,127,1216033140
13,19,Jits_Linear_5,0,1,48,59,1216498136
13,19,Jits_Linear_5,1,5,80,127,1216532960
13,19,Jits_Linear_5,2,5,56,103,1216543304
13,19,Jits_Linear_5,3,5,63,98,1216612824
13,19,Jits_Linear_5,0,1,48,59,1216996324
13,19,Jits_Linear_5,1,5,63,98,1217032724
13,19,Jits_Linear_5,2,5,56,103,1217053032
13,19,Jits_Linear_5,3,5,80,127,1217132964
13,19,Jits_Linear_5,0,1,48,55,1217509872
13,19,Jits_Linear_5,1,5,56,103,1217552940
13,19,Jits_Linear_5,2,5,80,127,1217592804
13,19,Jits_Linear_5,3,5,63,98,1217602928
13,19,Jits_Linear_5,0,1,48,57,1217997648
13,19,Jits_Linear_5,1,5,80,127,1218052332
13,19,Jits_Linear_5,2,5,63,98,1218083128
13,19,Jits_Linear_5,3,5,56,103,1218123052
13,19,Jits_Linear_5,0,1,48,56,1218511656
13,19,Jits_Linear_5,1,5,56,103,1218582808
13,19,Jits_Linear_5,2,5,63,98,1218612544
13,19,Jits_Linear_5,3,5,80,127,1218662820
13,19,Jits_Linear_5,0,1,48,44,1219031280
13,19,Jits_Linear_5,1,5,80,127,1219093060
13,19,Jits_Linear_5,2,5,56,103,1219132688
13,19,Jits_Linear_5,3,5,63,98,1219143184
13,19,Jits_Linear_5,0,1,48,48,1219555228
13,19,Jits_Linear_5,1,5,80,127,1219592748
13,19,Jits_Linear_5,2,5,63,98,1219632688
13,19,Jits_Linear_5,3,5,56,103,1219692840
13,19,Jits_Linear_5,0,1,48,48,1220104916
13,19,Jits_Linear_5,1,5,56,103,1220112736
13,19,Jits_Linear_5,2,5,80,127,1220123084
13,19,Jits_Linear_5,3,5,63,98,1220202796
13,19,Jits_Linear_5,0,5,80,127,1220632888
13,19,Jits_Linear_5,1,1,48,46,1220685080
13,19,Jits_Linear_5,2,5,63,98,1220693348
13,19,Jits_Linear_5,3,5,56,103,1220723024
13,19,Jits_Linear_5,0,5,56,103,1221153188
13,19,Jits_Linear_5,1,1,48,46,1221205460
13,19,Jits_Linear_5,2,5,80,127,1221212680
13,19,Jits_Linear_5,3,5,63,98,1221252620
13,19,Jits_Linear_5,0,1,48,47,1221673392
13,19,Jits_Linear_5,1,5,56,103,1221732756
13,19,Jits_Linear_5,2,5,63,98,1221743100
13,19,Jits_Linear_5,3,5,80,127,1221746616
13,19,Jits_Linear_5,0,1,48,44,1222197712
13,19,Jits_Linear_5,1,5,80,127,1222213032
13,19,Jits_Linear_5,2,5,63,98,1222303080
13,19,Jits_Linear_5,3,5,56,103,1222313276
13,19,Jits_Linear_5,0,1,48,40,1222710608
13,19,Jits_Linear_5,1,5,56,103,1222743500
13,19,Jits_Linear_5,2,5,63,98,1222746672
13,19,Jits_Linear_5,3,5,80,127,1222749792
13,19,Jits_Linear_5,0,1,48,44,1223216096
13,19,Jits_Linear_5,1,5,80,127,1223293524
13,19,Jits_Linear_5,2,5,63,98,1223342596
13,19,Jits_Linear_5,3,5,56,103,1223373096
13,19,Jits_Linear_5,0,1,48,42,1223732732
13,19,Jits_Linear_5,1,5,56,103,1223803408
13,19,Jits_Linear_5,2,5,80,127,1223812704
13,19,Jits_Linear_5,3,5,63,98,1223883120
13,19,Jits_Linear_5,0,1,48,43,1224228356
13,19,Jits_Linear_5,1,5,56,103,1224343016
13,19,Jits_Linear_5,2,5,63,98,1224363400
13,19,Jits_Linear_5,3,5,80,127,1224422892
13,19,Jits_Linear_5,0,1,48,41,1224725724
13,19,Jits_Linear_5,1,5,80,127,1224873564
13,19,Jits_Linear_5,2,5,63,98,1224942876
13,19,Jits_Linear_5,3,5,56,103,1224962464
13,19,Jits_Linear_5,0,1,48,46,1225265044
13,19,Jits_Linear_5,1,5,80,127,1225432368
13,19,Jits_Linear_5,2,5,56,103,1225442564
13,19,Jits_Linear_5,3,5,63,98,1225452836
13,19,Jits_Linear_5,0,1,48,46,1225775740
13,19,Jits_Linear_5,1,5,80,127,1225962920
13,19,Jits_Linear_5,2,5,56,103,1225983480
13,19,Jits_Linear_5,3,5,63,98,1226052940
13,19,Jits_Linear_5,0,1,48,40,1226283700
13,19,Jits_Linear_5,1,5,56,103,1226512680
13,19,Jits_Linear_5,2,5,80,127,1226542432
13,19,Jits_Linear_5,3,5,63,98,1226562816
13,19,Jits_Linear_5,0,1,48,44,1226839392
13,19,Jits_Linear_5,1,5,63,98,1227053572
13,19,Jits_Linear_5,2,5,56,103,1227112700
13,19,Jits_Linear_5,3,5,80,127,1227142448
13,19,Jits_Linear_5,0,1,48,45,1227371024
13,19,Jits_Linear_5,1,5,63,98,1227593104
13,19,Jits_Linear_5,2,5,80,127,1227596468
13,19,Jits_Linear_5,3,5,56,103,1227683384
13,19,Jits_Linear_5,4,1,48,43,1227888420
13,19,Jits_Linear_5,0,5,56,103,1228162456
13,19,Jits_Linear_5,1,5,63,98,1228193256
13,19,Jits_Linear_5,2,5,80,127,1228233196
13,19,Jits_Linear_5,3,1,48,45,1228415536
13,19,Jits_Linear_5,0,5,63,98,1228713260
13,19,Jits_Linear_5,1,5,56,103,1228753276
13,19,Jits_Linear_5,2,5,80,127,1228772688
13,19,Jits_Linear_5,3,1,48,49,1228900500
13,19,Jits_Linear_5,0,5,63,98,1229272512
13,19,Jits_Linear_5,1,5,56,103,1229313452
13,19,Jits_Linear_5,2,5,80,127,1229322528
13,19,Jits_Linear_5,3,1,48,46,1229448048
13,19,Jits_Linear_5,0,5,80,127,1229802764
13,19,Jits_Linear_5,1,5,63,98,1229872548
13,19,Jits_Linear_5,2,5,56,103,1229892936
13,19,Jits_Linear_5,3,1,48,49,1229972848
13,19,Jits_Linear_5,0,5,56,103,1230352616
13,19,Jits_Linear_5,1,5,80,127,1230373296
13,19,Jits_Linear_5,2,5,63,98,1230413312
13,19,Jits_Linear_5,3,1,48,39,1230513600
13,19,Jits_Linear_5,0,5,63,98,1230923188
13,19,Jits_Linear_5,1,5,80,127,1230942528
13,19,Jits_Linear_5,2,5,56,103,1230982464
13,19,Jits_Linear_5,3,1,48,51,1231052264
13,19,Jits_Linear_5,0,5,63,98,1231483332
13,19,Jits_Linear_5,1,5,56,103,1231502672
13,19,Jits_Linear_5,2,5,80,127,1231513240
13,19,Jits_Linear_5,3,1,48,47,1231596368
13,19,Jits_Linear_5,0,5,80,127,1232043328
13,19,Jits_Linear_5,1,5,56,103,1232063040
13,19,Jits_Linear_5,2,5,63,98,1232092568
13,19,Jits_Linear_5,3,1,48,49,1232152876
13,19,Jits_Linear_5,0,5,56,103,1232683384
13,19,Jits_Linear_5,1,5,80,127,1232686300
13,19,Jits_Linear_5,2,5,63,98,1232702796
13,19,Jits_Linear_5,3,1,48,49,1232719096
13,19,Jits_Linear_5,0,5,63,98,1233172968
13,19,Jits_Linear_5,1,5,56,103,1233202496
13,19,Jits_Linear_5,2,1,48,46,1233232068
13,19,Jits_Linear_5,3,5,80,127,1233263028
13,19,Jits_Linear_5,0,1,48,46,1233734204
13,19,Jits_Linear_5,1,5,63,98,1233823092
13,19,Jits_Linear_5,2,5,56,103,1233833272
13,19,Jits_Linear_5,3,5,80,127,1233842496
13,19,Jits_Linear_5,0,1,48,43,1234293236
13,19,Jits_Linear_5,1,5,56,103,1234343384
13,19,Jits_Linear_5,2,5,80,127,1234373136
13,19,Jits_Linear_5,3,5,63,98,1234383332
13,19,Jits_Linear_5,0,1,48,49,1234814572
13,19,Jits_Linear_5,1,5,63,98,1234952472
13,19,Jits_Linear_5,2,5,56,103,1234963040
13,19,Jits_Linear_5,3,5,80,127,1234983276
13,19,Jits_Linear_5,0,1,48,38,1235368796
13,19,Jits_Linear_5,1,5,56,103,1235453736
13,19,Jits_Linear_5,2,5,63,98,1235512696
13,19,Jits_Linear_5,3,5,80,127,1235515984
13,19,Jits_Linear_5,0,1,48,45,1235925044
13,19,Jits_Linear_5,1,5,80,127,1236053276
13,19,Jits_Linear_5,2,5,56,103,1236062648
13,19,Jits_Linear_5,3,5,63,98,1236133228
13,19,Jits_Linear_5,0,1,48,45,1236512868
13,19,Jits_Linear_5,1,5,80,127,1236622716
13,19,Jits_Linear_5,2,5,56,103,1236693300
13,19,Jits_Linear_5,3,5,63,98,1236702448
13,19,Jits_Linear_5,0,1,48,48,1237136916
13,19,Jits_Linear_5,1,5,63,98,1237243252
13,19,Jits_Linear_5,2,5,56,103,1237252404
13,19,Jits_Linear_5,3,5,80,127,1237273012
13,19,Jits_Linear_5,0,5,80,127,1237772852
13,19,Jits_Linear_5,1,1,48,49,1237795600
13,19,Jits_Linear_5,2,5,63,98,1237833020
13,19,Jits_Linear_5,3,5,56,103,1237872956
13,19,Jits_Linear_5,0,5,56,103,1238402400
13,19,Jits_Linear_5,1,1,48,34,1238410004
13,19,Jits_Linear_5,2,5,63,98,1238412888
13,19,Jits_Linear_5,3,5,80,127,1238452752
13,19,Jits_Linear_5,0,1,48,50,1238900104
13,19,Jits_Linear_5,1,5,56,103,1238953188
13,19,Jits_Linear_5,2,5,80,127,1238983016
13,19,Jits_Linear_5,3,5,63,98,1239033052
13,19,Jits_Linear_5,0,1,48,49,1239509468
13,19,Jits_Linear_5,1,5,56,103,1239583108
13,19,Jits_Linear_5,2,5,63,98,1239623104
13,19,Jits_Linear_5,3,5,80,127,1239626396
13,19,Jits_Linear_5,0,1,48,59,1240151840
13,19,Jits_Linear_5,1,5,56,103,1240172916
13,19,Jits_Linear_5,2,5,63,98,1240183264
13,19,Jits_Linear_5,3,5,80,127,1240202676
13,19,Jits_Linear_5,0,5,56,103,1240722732
13,19,Jits_Linear_5,1,5,80,127,1240725872
13,19,Jits_Linear_5,2,1,48,59,1240749668
13,19,Jits_Linear_5,3,5,63,98,1240762812
13,19,Jits_Linear_5,0,1,48,59,1241265984
13,19,Jits_Linear_5,1,5,63,98,1241352656
13,19,Jits_Linear_5,2,5,56,103,1241383440
13,19,Jits_Linear_5,3,5,80,127,1241402704
13,19,Jits_Linear_5,0,5,80,127,1241923000
13,19,Jits_Linear_5,1,5,56,103,1241933120
13,19,Jits_Linear_5,2,1,48,43,1241934608
13,19,Jits_Linear_5,3,5,63,98,1241943684
13,19,Jits_Linear_5,0,5,56,103,1242522864
13,19,Jits_Linear_5,1,1,48,59,1242523832
13,19,Jits_Linear_5,2,5,80,127,1242562876
13,19,Jits_Linear_5,3,5,63,98,1242592552
13,19,Jits_Linear_5,0,5,63,98,1243133176
13,19,Jits_Linear_5,1,5,80,127,1243142772
13,19,Jits_Linear_5,2,5,56,103,1243152820
13,19,Jits_Linear_5,3,1,48,50,1243166500
13,19,Jits_Linear_5,0,5,56,103,1243712880
13,19,Jits_Linear_5,1,1,48,47,1243729848
13,19,Jits_Linear_5,2,5,63,98,1243782780
13,19,Jits_Linear_5,3,5,80,127,1243792680
13,19,Jits_Linear_5,0,5,80,127,1244323168
13,19,Jits_Linear_5,1,5,56,103,1244333512
13,19,Jits_Linear_5,2,1,48,43,1244363308
13,19,Jits_Linear_5,3,5,63,98,1244382736
13,19,Jits_Linear_5,0,1,48,51,1244924128
13,19,Jits_Linear_5,1,5,80,127,1244942736
13,19,Jits_Linear_5,2,5,56,103,1245002980
13,19,Jits_Linear_5,3,5,63,98,1245032868
13,19,Jits_Linear_5,0,1,48,56,1245549300
13,19,Jits_Linear_5,1,5,56,103,1245553008
13,19,Jits_Linear_5,2,5,80,127,1245556000
13,19,Jits_Linear_5,3,5,63,98,1245592948
13,19,Jits_Linear_5,0,1,48,59,1246183100
13,19,Jits_Linear_5,1,5,56,103,1246192868
13,19,Jits_Linear_5,2,5,63,98,1246222644
13,19,Jits_Linear_5,3,5,80,127,1246232840
13,19,Jits_Linear_5,0,1,48,62,1246804264
13,19,Jits_Linear_5,1,5,63,98,1246812532
13,19,Jits_Linear_5,2,5,80,127,1246822804
13,19,Jits_Linear_5,3,5,56,103,1246833000
13,19,Jits_Linear_5,0,5,80,127,1247372684
13,19,Jits_Linear_5,1,1,48,59,1247406592
13,19,Jits_Linear_5,2,5,56,103,1247422880
13,19,Jits_Linear_5,3,5,63,98,1247425872
13,19,Jits_Linear_5,0,1,48,59,1248002576
13,19,Jits_Linear_5,1,5,56,103,1248022756
13,19,Jits_Linear_5,2,5,80,127,1248043588
13,19,Jits_Linear_5,3,5,63,98,1248052516
13,19,Jits_Linear_5,0,1,48,59,1248611948
13,19,Jits_Linear_5,1,5,63,98,1248622908
13,19,Jits_Linear_5,2,5,56,103,1248652584
13,19,Jits_Linear_5,3,5,80,127,1248673564
13,19,Jits_Linear_5,0,1,48,56,1249212324
13,19,Jits_Linear_5,1,5,56,103,1249252584
13,19,Jits_Linear_5,2,5,80,127,1249262932
13,19,Jits_Linear_5,3,5,63,98,1249332548
13,19,Jits_Linear_5,0,1,48,53,1249824188
13,19,Jits_Linear_5,1,5,63,98,1249863324
13,19,Jits_Linear_5,2,5,80,127,1249902820
13,19,Jits_Linear_5,3,5,56,103,1249942820
13,19,Jits_Linear_5,0,1,48,55,1250468920
13,19,Jits_Linear_5,1,5,56,103,1250502968
13,19,Jits_Linear_5,2,5,63,98,1250513536
13,19,Jits_Linear_5,3,5,80,127,1250532800
13,19,Jits_Linear_5,0,1,48,54,1251072700
13,19,Jits_Linear_5,1,5,63,98,1251172660
13,19,Jits_Linear_5,2,5,80,127,1251193420
13,19,Jits_Linear_5,3,5,56,103,1251212608
13,19,Jits_Linear_5,0,1,48,57,1251711452
13,19,Jits_Linear_5,1,5,56,103,1251743312
13,19,Jits_Linear_5,2,5,80,127,1251822952
13,19,Jits_Linear_5,3,5,63,98,1251833372
13,19,Jits_Linear_5,0,1,48,55,1252332064
13,19,Jits_Linear_5,1,5,80,127,1252412880
13,19,Jits_Linear_5,2,5,63,98,1252423448
13,19,Jits_Linear_5,3,5,56,103,1252452664
13,19,Jits_Linear_5,0,1,48,54,1252954420
13,19,Jits_Linear_5,1,5,63,98,1253002548
13,19,Jits_Linear_5,2,5,80,127,1253042564
13,19,Jits_Linear_5,3,5,56,103,1253103164
13,19,Jits_Linear_5,0,1,48,51,1253607544
13,19,Jits_Linear_5,1,5,63,98,1253642592
13,19,Jits_Linear_5,2,5,56,103,1253692720
13,19,Jits_Linear_5,3,5,80,127,1253722456
13,19,Jits_Linear_5,0,5,80,127,1254292804
13,19,Jits_Linear_5,1,1,48,51,1254295392
13,19,Jits_Linear_5,2,5,63,98,1254303364
13,19,Jits_Linear_5,3,5,56,103,1254372600
13,19,Jits_Linear_5,0,1,48,52,1254974484
13,19,Jits_Linear_5,1,5,80,127,1255002456
13,19,Jits_Linear_5,2,5,56,103,1255012800
13,19,Jits_Linear_5,3,5,63,98,1255015864
13,19,Jits_Linear_5,0,5,56,103,1255583204
13,19,Jits_Linear_5,1,5,80,127,1255602472
13,19,Jits_Linear_5,2,5,63,98,1255612964
13,19,Jits_Linear_5,3,1,48,42,1255629040
13,19,Jits_Linear_5,0,1,48,45,1256200460
13,19,Jits_Linear_5,1,5,63,98,1256233368
13,19,Jits_Linear_5,2,5,56,103,1256273160
13,19,Jits_Linear_5,3,5,80,127,1256292648
13,19,Jits_Linear_5,0,1,48,48,1256805552
13,19,Jits_Linear_5,1,5,63,98,1256882456
13,19,Jits_Linear_5,2,5,56,103,1256943056
13,19,Jits_Linear_5,3,5,80,127,1256946196
13,19,Jits_Linear_5,0,1,48,47,1257484104
13,19,Jits_Linear_5,1,5,56,103,1257493120
13,19,Jits_Linear_5,2,5,80,127,1257513280
13,19,Jits_Linear_5,3,5,63,98,1257553148
13,19,Jits_Linear_5,0,1,48,43,1258084704
13,19,Jits_Linear_5,1,5,56,103,1258172916
13,19,Jits_Linear_5,2,5,63,98,1258193140
13,19,Jits_Linear_5,3,5,80,127,1258202588
13,19,Jits_Linear_5,0,1,48,46,1258672500
13,19,Jits_Linear_5,1,5,80,127,1258793388
13,19,Jits_Linear_5,2,5,56,103,1258822916
13,19,Jits_Linear_5,3,5,63,98,1258862928
13,19,Jits_Linear_5,0,1,48,46,1259298360
13,19,Jits_Linear_5,1,5,80,127,1259452804
13,19,Jits_Linear_5,2,5,56,103,1259473264
13,19,Jits_Linear_5,3,5,63,98,1259532780
13,19,Jits_Linear_5,0,1,48,45,1260028684
13,19,Jits_Linear_5,1,5,56,103,1260113384
13,19,Jits_Linear_5,2,5,80,127,1260132708
13,19,Jits_Linear_5,3,5,63,98,1260193248
13,19,Jits_Linear_5,0,5,80,127,1260753256
13,19,Jits_Linear_5,1,5,56,103,1260762700
13,19,Jits_Linear_5,2,5,63,98,1260802368
13,19,Jits_Linear_5,3,1,48,43,1260903628
13,19,Jits_Linear_5,0,5,63,98,1261412856
13,19,Jits_Linear_5,1,5,56,103,1261452720
13,19,Jits_Linear_5,2,5,80,127,1261455860
13,19,Jits_Linear_5,3,1,48,45,1261470512
13,19,Jits_Linear_5,0,5,63,98,1262092744
13,19,Jits_Linear_5,1,1,48,44,1262096832
13,19,Jits_Linear_5,2,5,80,127,1262132828
13,19,Jits_Linear_5,3,5,56,103,1262163176
13,19,Jits_Linear_5,0,1,48,49,1262737888
13,19,Jits_Linear_5,1,5,56,103,1262742940
13,19,Jits_Linear_5,2,5,63,98,1262753212
13,19,Jits_Linear_5,3,5,80,127,1262782960
13,19,Jits_Linear_5,0,1,48,49,1263349196
13,19,Jits_Linear_5,1,5,80,127,1263403276
13,19,Jits_Linear_5,2,5,63,98,1263473020
13,19,Jits_Linear_5,3,5,56,103,1263483216
13,19,Jits_Linear_5,0,1,48,40,1264047156
13,19,Jits_Linear_5,1,5,63,98,1264073036
13,19,Jits_Linear_5,2,5,56,103,1264142804
13,19,Jits_Linear_5,3,5,80,127,1264153076
13,19,Jits_Linear_5,0,1,48,43,1264712524
13,19,Jits_Linear_5,1,5,63,98,1264742896
13,19,Jits_Linear_5,2,5,56,103,1264763204
13,19,Jits_Linear_5,3,5,80,127,1264803952
13,19,Jits_Linear_5,0,1,48,42,1265314616
13,19,Jits_Linear_5,1,5,56,103,1265422772
13,19,Jits_Linear_5,2,5,63,98,1265432820
13,19,Jits_Linear_5,3,5,80,127,1265512764
13,19,Jits_Linear_5,0,1,48,35,1265996912
13,19,Jits_Linear_5,1,5,63,98,1266083252
13,19,Jits_Linear_5,2,5,56,103,1266112768
13,19,Jits_Linear_5,3,5,80,127,1266152928
13,19,Jits_Linear_5,0,5,56,103,1266752892
13,19,Jits_Linear_5,1,5,63,98,1266792756
13,19,Jits_Linear_5,2,5,80,127,1266832772
13,19,Jits_Linear_5,3,1,48,40,1267075344
13,19,Jits_Linear_5,0,5,80,127,1267432848
13,19,Jits_Linear_5,1,5,56,103,1267512672
13,19,Jits_Linear_5,2,5,63,98,1267522944
13,19,Jits_Linear_5,3,1,48,36,1267598800
13,19,Jits_Linear_5,0,5,56,103,1268152696
13,19,Jits_Linear_5,1,5,63,98,1268155612
13,19,Jits_Linear_5,2,5,80,127,1268163040
13,19,Jits_Linear_5,3,1,48,33,1268196124
13,19,Jits_Linear_5,0,1,48,30,1268828808
13,19,Jits_Linear_5,1,5,56,103,1268852972
13,19,Jits_Linear_5,2,5,63,98,1268872608
13,19,Jits_Linear_5,3,5,80,127,1268882732
13,19,Jits_Linear_5,0,5,63,98,1269493068
13,19,Jits_Linear_5,1,5,80,127,1269503512
13,19,Jits_Linear_5,2,5,56,103,1269522776
13,19,Jits_Linear_5,3,1,48,29,1269547912
13,19,Jits_Linear_5,0,1,48,38,1270159584
13,19,Jits_Linear_5,1,5,63,98,1270183516
13,19,Jits_Linear_5,2,5,56,103,1270263080
13,19,Jits_Linear_5,3,5,80,127,1270266440
13,19,Jits_Linear_5,0,5,63,98,1270872388
13,19,Jits_Linear_5,1,5,56,103,1270892848
13,19,Jits_Linear_5,2,1,48,32,1270907272
13,19,Jits_Linear_5,3,5,80,127,1270922664
13,19,Jits_Linear_5,0,5,56,103,1271562692
13,19,Jits_Linear_5,1,5,63,98,1271583080
13,19,Jits_Linear_5,2,1,48,36,1271591760
13,19,Jits_Linear_5,3,5,80,127,1271593420
13,19,Jits_Linear_5,0,1,48,42,1272251616
13,19,Jits_Linear_5,1,5,56,103,1272282432
13,19,Jits_Linear_5,2,5,63,98,1272313452
13,19,Jits_Linear_5,3,5,80,127,1272316616
13,19,Jits_Linear_5,0,5,56,103,1272922472
13,19,Jits_Linear_5,1,1,48,49,1272956824
13,19,Jits_Linear_5,2,5,63,98,1272962404
13,19,Jits_Linear_5,3,5,80,127,1273022868
13,19,Jits_Linear_5,0,1,48,45,1273602056
13,19,Jits_Linear_5,1,5,56,103,1273633392
13,19,Jits_Linear_5,2,5,63,98,1273643440
13,19,Jits_Linear_5,3,5,80,127,1273702696
13,19,Jits_Linear_5,0,1,48,48,1274316908
13,19,Jits_Linear_5,1,5,56,103,1274332672
13,19,Jits_Linear_5,2,5,80,127,1274352984
13,19,Jits_Linear_5,3,5,63,98,1274382608
13,19,Jits_Linear_5,0,5,80,127,1275033028
13,19,Jits_Linear_5,1,1,48,48,1275034068
13,19,Jits_Linear_5,2,5,56,103,1275043292
13,19,Jits_Linear_5,3,5,63,98,1275062628
13,19,Jits_Linear_5,0,5,63,98,1275723200
13,19,Jits_Linear_5,1,1,48,48,1275728940
13,19,Jits_Linear_5,2,5,80,127,1275803216
13,19,Jits_Linear_5,3,5,56,103,1275813412
13,19,Jits_Linear_5,0,1,48,51,1276476860
13,19,Jits_Linear_5,1,5,80,127,1276483332
13,19,Jits_Linear_5,2,5,56,103,1276503348
13,19,Jits_Linear_5,3,5,63,98,1276506412
13,19,Jits_Linear_5,0,5,63,98,1277162836
13,19,Jits_Linear_5,1,5,80,127,1277166420
13,19,Jits_Linear_5,2,1,48,39,1277208680
13,19,Jits_Linear_5,3,5,56,103,1277223392
13,19,Jits_Linear_5,0,5,56,103,1277853064
13,19,Jits_Linear_5,1,1,48,39,1277856552
13,19,Jits_Linear_5,2,5,80,127,1277863180
13,19,Jits_Linear_5,3,5,63,98,1277903192
13,19,Jits_Linear_5,0,5,56,103,1278543164
13,19,Jits_Linear_5,1,1,48,43,1278552732
13,19,Jits_Linear_5,2,5,63,98,1278602504
13,19,Jits_Linear_5,3,5,80,127,1278613072
13,19,Jits_Linear_5,0,1,48,56,1279259672
13,19,Jits_Linear_5,1,5,63,98,1279263228
13,19,Jits_Linear_5,2,5,80,127,1279303168
13,19,Jits_Linear_5,3,5,56,103,1279343108
13,19,Jits_Linear_5,0,1,48,52,1279936924
13,19,Jits_Linear_5,1,5,56,103,1279972772
13,19,Jits_Linear_5,2,5,63,98,1280052580
13,19,Jits_Linear_5,3,5,80,127,1280056016
13,19,Jits_Linear_5,0,1,48,50,1280654804
13,19,Jits_Linear_5,1,5,80,127,1280742720
13,19,Jits_Linear_5,2,5,56,103,1280772408
13,19,Jits_Linear_5,3,5,63,98,1280775472
13,19,Jits_Linear_5,0,1,48,51,1281373132
13,19,Jits_Linear_5,1,5,56,103,1281422832
13,19,Jits_Linear_5,2,5,80,127,1281443144
13,19,Jits_Linear_5,3,5,63,98,1281483068
13,19,Jits_Linear_5,0,5,80,127,1282123112
13,19,Jits_Linear_5,1,1,48,45,1282130120
13,19,Jits_Linear_5,2,5,63,98,1282142520
13,19,Jits_Linear_5,3,5,56,103,1282203060
13,19,Jits_Linear_5,0,5,63,98,1282853220
13,19,Jits_Linear_5,1,5,56,103,1282862444
13,19,Jits_Linear_5,2,1,48,39,1282866980
13,19,Jits_Linear_5,3,5,80,127,1282912492
13,19,Jits_Linear_5,0,1,48,45,1283527200
13,19,Jits_Linear_5,1,5,56,103,1283562752
13,19,Jits_Linear_5,2,5,63,98,1283583460
13,19,Jits_Linear_5,3,5,80,127,1283592608
13,19,Jits_Linear_5,0,1,48,46,1284229036
13,19,Jits_Linear_5,1,5,56,103,1284282944
13,19,Jits_Linear_5,2,5,63,98,1284286160
13,19,Jits_Linear_5,3,5,80,127,1284303256
13,19,Jits_Linear_5,0,1,48,40,1284969832
13,19,Jits_Linear_5,1,5,63,98,1285052960
13,19,Jits_Linear_5,2,5,56,103,1285082620
13,19,Jits_Linear_5,3,5,80,127,1285113344
13,19,Jits_Linear_5,0,1,48,48,1285736100
13,19,Jits_Linear_5,1,5,80,127,1285742948
13,19,Jits_Linear_5,2,5,56,103,1285832988
13,19,Jits_Linear_5,3,5,63,98,1285836060
13,19,Jits_Linear_5,0,1,48,40,1286449248
13,19,Jits_Linear_5,1,5,56,103,1286473104
13,19,Jits_Linear_5,2,5,80,127,1286476020
13,19,Jits_Linear_5,3,5,63,98,1286552884
13,19,Jits_Linear_5,0,1,48,48,1287168384
13,19,Jits_Linear_5,1,5,80,127,1287203184
13,19,Jits_Linear_5,2,5,63,98,1287262964
13,19,Jits_Linear_5,3,5,56,103,1287293388
13,19,Jits_Linear_5,0,1,48,47,1287919880
13,19,Jits_Linear_5,1,5,63,98,1287933424
13,19,Jits_Linear_5,2,5,80,127,1287942800
13,19,Jits_Linear_5,3,5,56,103,1288013156
13,19,Jits_Linear_5,0,5,56,103,1288682904
13,19,Jits_Linear_5,1,1,48,53,1288690584
13,19,Jits_Linear_5,2,5,80,127,1288712824
13,19,Jits_Linear_5,3,5,63,98,1288762728
13,19,Jits_Linear_5,0,1,48,50,1289419336
13,19,Jits_Linear_5,1,5,63,98,1289463204
13,19,Jits_Linear_5,2,5,56,103,1289492804
13,19,Jits_Linear_5,3,5,80,127,1289495948
13,19,Jits_Linear_5,0,1,48,44,1290141924
13,19,Jits_Linear_5,1,5,63,98,1290202560
13,19,Jits_Linear_5,2,5,80,127,1290222948
13,19,Jits_Linear_5,3,5,56,103,1290233392
13,19,Jits_Linear_5,0,1,48,45,1290951136
13,19,Jits_Linear_5,1,5,56,103,1290953028
13,19,Jits_Linear_5,2,5,63,98,1290955952
13,19,Jits_Linear_5,3,5,80,127,1290972816
13,19,Jits_Linear_5,0,1,48,43,1291642636
13,19,Jits_Linear_5,1,5,56,103,1291652552
13,19,Jits_Linear_5,2,5,63,98,1291662896
13,19,Jits_Linear_5,3,5,80,127,1291693620
13,19,Jits_Linear_5,0,1,48,51,1292301552
13,19,Jits_Linear_5,1,5,63,98,1292422636
13,19,Jits_Linear_5,2,5,80,127,1292442948
13,19,Jits_Linear_5,3,5,56,103,1292482812
13,19,Jits_Linear_5,0,1,48,43,1293061612
13,19,Jits_Linear_5,1,5,56,103,1293202708
13,19,Jits_Linear_5,2,5,63,98,1293242720
13,19,Jits_Linear_5,3,5,80,127,1293246380
13,19,Jits_Linear_5,0,1,48,47,1293778472
13,19,Jits_Linear_5,1,5,80,127,1293892932
13,19,Jits_Linear_5,2,5,56,103,1293932872
13,19,Jits_Linear_5,3,5,63,98,1293983076
13,19,Jits_Linear_5,0,1,48,40,1294533680
13,19,Jits_Linear_5,1,5,56,103,1294702896
13,19,Jits_Linear_5,2,5,80,127,1294713316
13,19,Jits_Linear_5,3,5,63,98,1294742768
13,19,Jits_Linear_5,0,1,48,43,1295281908
13,19,Jits_Linear_5,1,5,56,103,1295403320
13,19,Jits_Linear_5,2,5,80,127,1295443484
13,19,Jits_Linear_5,3,5,63,98,1295492488
13,19,Jits_Linear_5,0,1,48,45,1295944260
13,19,Jits_Linear_5,1,5,56,103,1296163452
13,19,Jits_Linear_5,2,5,80,127,1296203244
13,19,Jits_Linear_5,3,5,63,98,1296253224
13,19,Jits_Linear_5,0,1,48,45,1296662820
13,19,Jits_Linear_5,1,5,80,127,1296912880
13,19,Jits_Linear_5,2,5,63,98,1296992532
13,19,Jits_Linear_5,3,5,56,103,1297002800
13,19,Jits_Linear_5,0,1,48,40,1297383364
13,19,Jits_Linear_5,1,5,80,127,1297722692
13,19,Jits_Linear_5,2,5,56,103,1297732964
13,19,Jits_Linear_5,3,5,63,98,1297752524
13,19,Jits_Linear_5,0,1,48,43,1298111000
13,19,Jits_Linear_5,1,5,63,98,1298452768
13,19,Jits_Linear_5,2,5,56,103,1298522600
13,19,Jits_Linear_5,3,5,80,127,1298525664
13,19,Jits_Linear_5,4,1,48,40,1298822108
13,19,Jits_Linear_5,0,5,80,127,1299212592
13,19,Jits_Linear_5,1,5,63,98,1299262948
13,19,Jits_Linear_5,2,5,56,103,1299302736
13,19,Jits_Linear_5,3,1,48,41,1299562168
13,19,Jits_Linear_5,0,5,63,98,1300022720
13,19,Jits_Linear_5,1,5,56,103,1300062436
13,19,Jits_Linear_5,2,5,80,127,1300073004
13,19,Jits_Linear_5,3,1,48,40,1300272284
13,19,Jits_Linear_5,0,5,63,98,1300782336
13,19,Jits_Linear_5,1,5,56,103,1300803168
13,19,Jits_Linear_5,2,5,80,127,1300823332
13,19,Jits_Linear_5,3,1,48,42,1301019520
13,19,Jits_Linear_5,0,5,80,127,1301512580
13,19,Jits_Linear_5,1,5,56,103,1301523220
13,19,Jits_Linear_5,2,5,63,98,1301543236
13,19,Jits_Linear_5,3,1,48,43,1301702184
13,19,Jits_Linear_5,0,5,63,98,1302313184
13,19,Jits_Linear_5,1,5,56,103,1302353348
13,19,Jits_Linear_5,2,5,80,127,1302383172
13,19,Jits_Linear_5,3,1,48,31,1302525288
13,19,Jits_Linear_5,0,5,56,103,1303092580
13,19,Jits_Linear_5,1,5,63,98,1303123304
13,19,Jits_Linear_5,2,5,80,127,1303153128
13,19,Jits_Linear_5,3,1,48,26,1303416080
13,19,Jits_Linear_5,0,5,80,127,1303843068
13,19,Jits_Linear_5,1,5,56,103,1303912824
13,19,Jits_Linear_5,2,5,63,98,1303915892
13,19,Jits_Linear_5,0,1,48,33,1304357200
13,19,Jits_Linear_5,1,5,56,103,1304633112
13,19,Jits_Linear_5,2,5,63,98,1304682944
13,19,Jits_Linear_5,3,5,80,127,1304712548
13,19,Jits_Linear_5,0,1,48,27,1305300300
13,19,Jits_Linear_5,1,5,63,98,1305392652
13,19,Jits_Linear_5,2,5,80,127,1305395864
13,19,Jits_Linear_5,3,5,56,103,1305452892
13,19,Jits_Linear_5,0,1,48,35,1306154116
13,19,Jits_Linear_5,1,5,56,103,1306202616
13,19,Jits_Linear_5,2,5,80,127,1306212888
13,19,Jits_Linear_5,3,5,63,98,1306262852
13,19,Jits_Linear_5,0,5,63,98,1306963352
13,19,Jits_Linear_5,1,5,56,103,1306972428
13,19,Jits_Linear_5,2,5,80,127,1307003152
13,19,Jits_Linear_5,3,1,48,32,1307091304
13,19,Jits_Linear_5,0,5,63,98,1307782524
13,19,Jits_Linear_5,1,5,80,127,1307785960
13,19,Jits_Linear_5,2,1,48,26,1307790200
13,19,Jits_Linear_5,3,5,56,103,1307813312
13,19,Jits_Linear_5,0,5,63,98,1308592624
13,19,Jits_Linear_5,1,1,48,33,1308606904
13,19,Jits_Linear_5,2,5,56,103,1308613000
13,19,Jits_Linear_5,3,5,80,127,1308616068
13,19,Jits_Linear_5,0,5,63,98,1309343088
13,19,Jits_Linear_5,1,1,48,32,1309391320
13,19,Jits_Linear_5,2,5,56,103,1309412692
13,19,Jits_Linear_5,3,5,80,127,1309433176
13,19,Jits_Linear_5,0,5,56,103,1310123232
13,19,Jits_Linear_5,1,5,63,98,1310132680
13,19,Jits_Linear_5,2,1,48,26,1310137892
13,19,Jits_Linear_5,3,5,80,127,1310222684
13,19,Jits_Linear_5,0,1,48,35,1310830832
13,19,Jits_Linear_5,1,5,56,103,1310933632
13,19,Jits_Linear_5,2,5,80,127,1310973224
13,19,Jits_Linear_5,3,5,63,98,1310982524
13,19,Jits_Linear_5,0,1,48,39,1311647072
13,19,Jits_Linear_5,1,5,56,103,1311752684
13,19,Jits_Linear_5,2,5,63,98,1311783184
13,19,Jits_Linear_5,3,5,80,127,1311812860
13,19,Jits_Linear_5,0,1,48,30,1312509200
13,19,Jits_Linear_5,1,5,80,127,1312513504
13,19,Jits_Linear_5,2,5,63,98,1312553224
13,19,Jits_Linear_5,3,5,56,103,1312572712
13,19,Jits_Linear_5,0,5,56,103,1313353064
13,19,Jits_Linear_5,1,5,80,127,1313372480
13,19,Jits_Linear_5,2,1,48,50,1313387804
13,19,Jits_Linear_5,3,5,63,98,1313393008
13,19,Jits_Linear_5,0,5,63,98,1314123324
13,19,Jits_Linear_5,1,1,48,45,1314126296
13,19,Jits_Linear_5,2,5,56,103,1314133588
13,19,Jits_Linear_5,3,5,80,127,1314192712
13,19,Jits_Linear_5,0,1,48,45,1314901116
13,19,Jits_Linear_5,1,5,56,103,1314933200
13,19,Jits_Linear_5,2,5,63,98,1315002796
13,19,Jits_Linear_5,3,5,80,127,1315023184
13,19,Jits_Linear_5,0,5,56,103,1315743092
13,19,Jits_Linear_5,1,1,48,42,1315764424
13,19,Jits_Linear_5,2,5,63,98,1315772840
13,19,Jits_Linear_5,3,5,80,127,1315812628
13,19,Jits_Linear_5,0,1,48,35,1316528744
13,19,Jits_Linear_5,1,5,63,98,1316553056
13,19,Jits_Linear_5,2,5,56,103,1316603360
13,19,Jits_Linear_5,3,5,80,127,1316612508
13,19,Jits_Linear_5,0,1,48,40,1317390964
13,19,Jits_Linear_5,1,5,56,103,1317402900
13,19,Jits_Linear_5,2,5,63,98,1317453252
13,19,Jits_Linear_5,3,5,80,127,1317463376
13,19,Jits_Linear_5,0,5,56,103,1318183268
13,19,Jits_Linear_5,1,5,63,98,1318192496
13,19,Jits_Linear_5,2,1,48,40,1318213148
13,19,Jits_Linear_5,3,5,80,127,1318273480
13,19,Jits_Linear_5,0,9999,9999,9999,9999,1209430088
13,19,Jits_Linear_5,1,9999,9999,9999,9999,1209910400
13,19,Jits_Linear_5,2,9999,9999,9999,9999,1210390584
13,19,Jits_Linear_5,3,9999,9999,9999,9999,1210870860
13,19,Jits_Linear_5,4,9999,9999,9999,9999,1211350088
13,19,Jits_Linear_5,5,9999,9999,9999,9999,1211840568
13,19,Jits_Linear_5,6,9999,9999,9999,9999,1212331112
13,19,Jits_Linear_5,7,9999,9999,9999,9999,1212830816
13,19,Jits_Linear_5,8,9999,9999,9999,9999,1213320256
13,19,Jits_Linear_5,9,9999,9999,9999,9999,1213810744
13,19,Jits_Linear_5,10,9999,9999,9999,9999,1214310508
13,19,Jits_Linear_5,11,9999,9999,9999,9999,1214810212
13,19,Jits_Linear_5,12,9999,9999,9999,9999,1215310944
13,19,Jits_Linear_5,13,9999,9999,9999,9999,1215810628
13,19,Jits_Linear_5,14,9999,9999,9999,9999,1216310380
13,19,Jits_Linear_5,15,9999,9999,9999,9999,1216820332
13,19,Jits_Linear_5,16,9999,9999,9999,9999,1217330284
13,19,Jits_Linear_5,17,9999,9999,9999,9999,1217840236
13,19,Jits_Linear_5,18,9999,9999,9999,9999,1218350188
13,19,Jits_Linear_5,19,9999,9999,9999,9999,1218860140
13,19,Jits_Linear_5,20,9999,9999,9999,9999,1219380284
13,19,Jits_Linear_5,21,9999,9999,9999,9999,1219900496
13,19,Jits_Linear_5,22,9999,9999,9999,9999,1220420712
13,19,Jits_Linear_5,23,9999,9999,9999,9999,1220940856
13,19,Jits_Linear_5,24,9999,9999,9999,9999,1221461084
13,19,Jits_Linear_5,25,9999,9999,9999,9999,1221990524
13,19,Jits_Linear_5,26,9999,9999,9999,9999,1222520932
13,19,Jits_Linear_5,27,9999,9999,9999,9999,1223050344
13,19,Jits_Linear_5,28,9999,9999,9999,9999,1223580752
13,19,Jits_Linear_5,29,9999,9999,9999,9999,1224110180
13,19,Jits_Linear_5,30,9999,9999,9999,9999,1224650852
13,19,Jits_Linear_5,31,9999,9999,9999,9999,1225190472
13,19,Jits_Linear_5,32,9999,9999,9999,9999,1225730116
13,19,Jits_Linear_5,33,9999,9999,9999,9999,1226270784
13,19,Jits_Linear_5,34,9999,9999,9999,9999,1226810480
13,19,Jits_Linear_5,35,9999,9999,9999,9999,1227360368
13,19,Jits_Linear_5,36,9999,9999,9999,9999,1227910220
13,19,Jits_Linear_5,37,9999,9999,9999,9999,1228460104
13,19,Jits_Linear_5,38,9999,9999,9999,9999,1229011032
13,19,Jits_Linear_5,39,9999,9999,9999,9999,1229560924
13,19,Jits_Linear_5,40,9999,9999,9999,9999,1230121020
13,19,Jits_Linear_5,41,9999,9999,9999,9999,1230680132
13,19,Jits_Linear_5,42,9999,9999,9999,9999,1231240292
13,19,Jits_Linear_5,43,9999,9999,9999,9999,1231800436
13,19,Jits_Linear_5,44,9999,9999,9999,9999,1232360508
13,19,Jits_Linear_5,45,9999,9999,9999,9999,1232930884
13,19,Jits_Linear_5,46,9999,9999,9999,9999,1233500264
13,19,Jits_Linear_5,47,9999,9999,9999,9999,1234070604
13,19,Jits_Linear_5,48,9999,9999,9999,9999,1234641016
13,19,Jits_Linear_5,49,9999,9999,9999,9999,1235210340
13,19,Jits_Linear_5,50,9999,9999,9999,9999,1235790924
13,19,Jits_Linear_5,51,9999,9999,9999,9999,1236370552
13,19,Jits_Linear_5,52,9999,9999,9999,9999,1236950108
13,19,Jits_Linear_5,53,9999,9999,9999,9999,1237530712
13,19,Jits_Linear_5,54,9999,9999,9999,9999,1238110264
13,19,Jits_Linear_5,55,9999,9999,9999,9999,1238700100
13,19,Jits_Linear_5,56,9999,9999,9999,9999,1239290976
13,19,Jits_Linear_5,57,9999,9999,9999,9999,1239880808
13,19,Jits_Linear_5,58,9999,9999,9999,9999,1240470624
13,19,Jits_Linear_5,59,9999,9999,9999,9999,1241060428
13,19,Jits_Linear_5,60,9999,9999,9999,9999,1241660476
13,19,Jits_Linear_5,61,9999,9999,9999,9999,1242260552
13,19,Jits_Linear_5,62,9999,9999,9999,9999,1242860648
13,19,Jits_Linear_5,63,9999,9999,9999,9999,1243460692
13,19,Jits_Linear_5,64,9999,9999,9999,9999,1244060776
13,19,Jits_Linear_5,65,9999,9999,9999,9999,1244671084
13,19,Jits_Linear_5,66,9999,9999,9999,9999,1245280380
13,19,Jits_Linear_5,67,9999,9999,9999,9999,1245890636
13,19,Jits_Linear_5,68,9999,9999,9999,9999,1246500936
13,19,Jits_Linear_5,69,9999,9999,9999,9999,1247110236
13,19,Jits_Linear_5,70,9999,9999,9999,9999,1247730760
13,19,Jits_Linear_5,71,9999,9999,9999,9999,1248350280
13,19,Jits_Linear_5,72,9999,9999,9999,9999,1248970808
13,19,Jits_Linear_5,73,9999,9999,9999,9999,1249590396
13,19,Jits_Linear_5,74,9999,9999,9999,9999,1250210932
13,19,Jits_Linear_5,75,9999,9999,9999,9999,1250840704
13,19,Jits_Linear_5,76,9999,9999,9999,9999,1251470456
13,19,Jits_Linear_5,77,9999,9999,9999,9999,1252100160
13,19,Jits_Linear_5,78,9999,9999,9999,9999,1252730964
13,19,Jits_Linear_5,79,9999,9999,9999,9999,1253360716
13,19,Jits_Linear_5,80,9999,9999,9999,9999,1254000756
13,19,Jits_Linear_5,81,9999,9999,9999,9999,1254640768
13,19,Jits_Linear_5,82,9999,9999,9999,9999,1255280748
13,19,Jits_Linear_5,83,9999,9999,9999,9999,1255920760
13,19,Jits_Linear_5,84,9999,9999,9999,9999,1256560744
13,19,Jits_Linear_5,85,9999,9999,9999,9999,1257210948
13,19,Jits_Linear_5,86,9999,9999,9999,9999,1257860200
13,19,Jits_Linear_5,87,9999,9999,9999,9999,1258510428
13,19,Jits_Linear_5,88,9999,9999,9999,9999,1259160632
13,19,Jits_Linear_5,89,9999,9999,9999,9999,1259810932
13,19,Jits_Linear_5,90,9999,9999,9999,9999,1260470352
13,19,Jits_Linear_5,91,9999,9999,9999,9999,1261130836
13,19,Jits_Linear_5,92,9999,9999,9999,9999,1261790332
13,19,Jits_Linear_5,93,9999,9999,9999,9999,1262450752
13,19,Jits_Linear_5,94,9999,9999,9999,9999,1263110268
13,19,Jits_Linear_5,95,9999,9999,9999,9999,1263780924
13,19,Jits_Linear_5,96,9999,9999,9999,9999,1264450632
13,19,Jits_Linear_5,97,9999,9999,9999,9999,1265120312
13,19,Jits_Linear_5,98,9999,9999,9999,9999,1265791068
13,19,Jits_Linear_5,99,9999,9999,9999,9999,1266460772
13,19,Jits_Linear_5,100,9999,9999,9999,9999,1267140728
13,19,Jits_Linear_5,101,9999,9999,9999,9999,1267820628
13,19,Jits_Linear_5,102,9999,9999,9999,9999,1268500604
13,19,Jits_Linear_5,103,9999,9999,9999,9999,1269180496
13,19,Jits_Linear_5,104,9999,9999,9999,9999,1269860460
13,19,Jits_Linear_5,105,9999,9999,9999,9999,1270550592
13,19,Jits_Linear_5,106,9999,9999,9999,9999,1271240804
13,19,Jits_Linear_5,107,9999,9999,9999,9999,1271930964
13,19,Jits_Linear_5,108,9999,9999,9999,9999,1272620160
13,19,Jits_Linear_5,109,9999,9999,9999,9999,1273310296
13,19,Jits_Linear_5,110,9999,9999,9999,9999,1274010736
13,19,Jits_Linear_5,111,9999,9999,9999,9999,1274710116
13,19,Jits_Linear_5,112,9999,9999,9999,9999,1275410536
13,19,Jits_Linear_5,113,9999,9999,9999,9999,1276110952
13,19,Jits_Linear_5,114,9999,9999,9999,9999,1276810324
13,19,Jits_Linear_5,115,9999,9999,9999,9999,1277521008
13,19,Jits_Linear_5,116,9999,9999,9999,9999,1278230648
13,19,Jits_Linear_5,117,9999,9999,9999,9999,1278940280
13,19,Jits_Linear_5,118,9999,9999,9999,9999,1279650912
13,19,Jits_Linear_5,119,9999,9999,9999,9999,1280360548
13,19,Jits_Linear_5,120,9999,9999,9999,9999,1281080448
13,19,Jits_Linear_5,121,9999,9999,9999,9999,1281800276
13,19,Jits_Linear_5,122,9999,9999,9999,9999,1282520152
13,19,Jits_Linear_5,123,9999,9999,9999,9999,1283241040
13,19,Jits_Linear_5,124,9999,9999,9999,9999,1283960940
13,19,Jits_Linear_5,125,9999,9999,9999,9999,1284691016
13,19,Jits_Linear_5,126,9999,9999,9999,9999,1285420120
13,19,Jits_Linear_5,127,9999,9999,9999,9999,1286150204
13,19,Jits_Linear_5,128,9999,9999,9999,9999,1286880332
13,19,Jits_Linear_5,129,9999,9999,9999,9999,1287610424
13,19,Jits_Linear_5,130,9999,9999,9999,9999,1288350776
13,19,Jits_Linear_5,131,9999,9999,9999,9999,1289090160
13,19,Jits_Linear_5,132,9999,9999,9999,9999,1289830500
13,19,Jits_Linear_5,133,9999,9999,9999,9999,1290570860
13,19,Jits_Linear_5,134,9999,9999,9999,9999,1291310164
13,19,Jits_Linear_5,135,9999,9999,9999,9999,1292060780
13,19,Jits_Linear_5,136,9999,9999,9999,9999,1292810356
13,19,Jits_Linear_5,137,9999,9999,9999,9999,1293560900
13,19,Jits_Linear_5,138,9999,9999,9999,9999,1294310520
13,19,Jits_Linear_5,139,9999,9999,9999,9999,1295061072
13,19,Jits_Linear_5,140,9999,9999,9999,9999,1295820908
13,19,Jits_Linear_5,141,9999,9999,9999,9999,1296580672
13,19,Jits_Linear_5,142,9999,9999,9999,9999,1297340512
13,19,Jits_Linear_5,143,9999,9999,9999,9999,1298100348
13,19,Jits_Linear_5,144,9999,9999,9999,9999,1298860152
13,19,Jits_Linear_5,145,9999,9999,9999,9999,1299630176
13,19,Jits_Linear_5,146,9999,9999,9999,9999,1300400208
13,19,Jits_Linear_5,147,9999,9999,9999,9999,1301170232
13,19,Jits_Linear_5,148,9999,9999,9999,9999,1301940332
13,19,Jits_Linear_5,149,9999,9999,9999,9999,1302710376
13,19,Jits_Linear_5,150,9999,9999,9999,9999,1303490684
13,19,Jits_Linear_5,151,9999,9999,9999,9999,1304270912
13,19,Jits_Linear_5,152,9999,9999,9999,9999,1305050180
13,19,Jits_Linear_5,153,9999,9999,9999,9999,1305830456
13,19,Jits_Linear_5,154,9999,9999,9999,9999,1306610748
13,19,Jits_Linear_5,155,9999,9999,9999,9999,1307400268
13,19,Jits_Linear_5,156,9999,9999,9999,9999,1308190812
13,19,Jits_Linear_5,157,9999,9999,9999,9999,1308980312
13,19,Jits_Linear_5,158,9999,9999,9999,9999,1309770868
13,19,Jits_Linear_5,159,9999,9999,9999,9999,1310560376
13,19,Jits_Linear_5,160,9999,9999,9999,9999,1311360088
13,19,Jits_Linear_5,161,9999,9999,9999,9999,1312160832
13,19,Jits_Linear_5,162,9999,9999,9999,9999,1312960596
13,19,Jits_Linear_5,163,9999,9999,9999,9999,1313760368
13,19,Jits_Linear_5,164,9999,9999,9999,9999,1314560096
13,19,Jits_Linear_5,165,9999,9999,9999,9999,1315371104
13,19,Jits_Linear_5,166,9999,9999,9999,9999,1316190276
13,19,Jits_Linear_5,167,9999,9999,9999,9999,1317000248
13,19,Jits_Linear_5,168,9999,9999,9999,9999,1317810284
13,19,Jits_Linear_5,169,9999,9999,9999,9999,1318620240
14,18,Jits_Linear_8,0,5,56,103,1329403280
14,18,Jits_Linear_8,1,5,63,98,1329406456
14,18,Jits_Linear_8,2,5,80,127,1329409648
14,18,Jits_Linear_8,0,5,56,103,1330222468
14,18,Jits_Linear_8,1,5,63,98,1330225792
14,18,Jits_Linear_8,2,5,80,127,1330228760
14,18,Jits_Linear_8,0,5,80,127,1330983228
14,18,Jits_Linear_8,1,5,63,98,1331073812
14,18,Jits_Linear_8,2,5,56,103,1331082588
14,18,Jits_Linear_8,0,5,56,103,1331822888
14,18,Jits_Linear_8,1,5,63,98,1331833160
14,18,Jits_Linear_8,2,5,80,127,1331923292
14,18,Jits_Linear_8,0,1,48,44,1332593812
14,18,Jits_Linear_8,1,5,63,98,1332612568
14,18,Jits_Linear_8,2,5,80,127,1332643068
14,18,Jits_Linear_8,3,5,56,103,1332672892
14,18,Jits_Linear_8,0,1,48,45,1333395424
14,18,Jits_Linear_8,1,5,56,103,1333432916
14,18,Jits_Linear_8,2,5,80,127,1333533028
14,18,Jits_Linear_8,3,5,63,98,1333583156
14,18,Jits_Linear_8,0,5,56,103,1334242572
14,18,Jits_Linear_8,1,5,80,127,1334292876
14,18,Jits_Linear_8,2,5,63,98,1334332740
14,18,Jits_Linear_8,3,1,48,47,1334386420
14,18,Jits_Linear_8,0,5,80,127,1335083640
14,18,Jits_Linear_8,1,5,63,98,1335113168
14,18,Jits_Linear_8,2,1,48,46,1335166480
14,18,Jits_Linear_8,3,5,56,103,1335182768
14,18,Jits_Linear_8,0,1,48,39,1335912980
14,18,Jits_Linear_8,1,5,63,98,1335922968
14,18,Jits_Linear_8,2,5,56,103,1335952720
14,18,Jits_Linear_8,3,5,80,127,1336013096
14,18,Jits_Linear_8,0,5,56,103,1336672756
14,18,Jits_Linear_8,1,5,80,127,1336675896
14,18,Jits_Linear_8,2,1,48,40,1336735288
14,18,Jits_Linear_8,3,5,63,98,1336792480
14,18,Jits_Linear_8,0,5,56,103,1337553284
14,18,Jits_Linear_8,1,5,80,127,1337593396
14,18,Jits_Linear_8,2,5,63,98,1337602544
14,18,Jits_Linear_8,3,1,48,40,1337618392
14,18,Jits_Linear_8,0,5,56,103,1338312976
14,18,Jits_Linear_8,1,5,80,127,1338332460
14,18,Jits_Linear_8,2,1,48,40,1338405872
14,18,Jits_Linear_8,3,5,63,98,1338413620
14,18,Jits_Linear_8,0,5,80,127,1339102552
14,18,Jits_Linear_8,1,5,56,103,1339202832
14,18,Jits_Linear_8,2,5,63,98,1339213400
14,18,Jits_Linear_8,3,1,48,42,1339233076
14,18,Jits_Linear_8,0,5,63,98,1339872660
14,18,Jits_Linear_8,1,5,80,127,1339933004
14,18,Jits_Linear_8,2,5,56,103,1339943348
14,18,Jits_Linear_8,3,1,48,41,1340004076
14,18,Jits_Linear_8,0,5,56,103,1340673332
14,18,Jits_Linear_8,1,5,63,98,1340743312
14,18,Jits_Linear_8,2,5,80,127,1340746528
14,18,Jits_Linear_8,3,1,48,37,1340795724
14,18,Jits_Linear_8,0,5,63,98,1341502832
14,18,Jits_Linear_8,1,1,48,41,1341514872
14,18,Jits_Linear_8,2,5,56,103,1341553100
14,18,Jits_Linear_8,3,5,80,127,1341556168
14,18,Jits_Linear_8,0,5,56,103,1342253492
14,18,Jits_Linear_8,1,5,80,127,1342256412
14,18,Jits_Linear_8,2,1,48,32,1342319012
14,18,Jits_Linear_8,3,5,63,98,1342342496
14,18,Jits_Linear_8,0,1,48,33,1343071504
14,18,Jits_Linear_8,1,5,63,98,1343083060
14,18,Jits_Linear_8,2,5,56,103,1343173032
14,18,Jits_Linear_8,3,5,80,127,1343202784
14,18,Jits_Linear_8,0,1,48,38,1343848920
14,18,Jits_Linear_8,1,5,56,103,1343863044
14,18,Jits_Linear_8,2,5,63,98,1343962456
14,18,Jits_Linear_8,3,5,80,127,1343993056
14,18,Jits_Linear_8,0,5,63,98,1344673072
14,18,Jits_Linear_8,1,5,56,103,1344683272
14,18,Jits_Linear_8,2,1,48,47,1344771252
14,18,Jits_Linear_8,3,5,80,127,1344772972
14,18,Jits_Linear_8,0,5,63,98,1345473128
14,18,Jits_Linear_8,1,1,48,36,1345509732
14,18,Jits_Linear_8,2,5,56,103,1345552640
14,18,Jits_Linear_8,3,5,80,127,1345555788
14,18,Jits_Linear_8,0,5,80,127,1346213240
14,18,Jits_Linear_8,1,5,63,98,1346232656
14,18,Jits_Linear_8,2,1,48,38,1346284848
14,18,Jits_Linear_8,3,5,56,103,1346293064
14,18,Jits_Linear_8,0,5,56,103,1347032340
14,18,Jits_Linear_8,1,5,63,98,1347053168
14,18,Jits_Linear_8,2,5,80,127,1347056384
14,18,Jits_Linear_8,3,1,48,40,1347059352
14,18,Jits_Linear_8,0,5,63,98,1347753352
14,18,Jits_Linear_8,1,1,48,27,1347828784
14,18,Jits_Linear_8,2,5,80,127,1347833164
14,18,Jits_Linear_8,3,5,56,103,1347842460
14,18,Jits_Linear_8,0,5,63,98,1348553096
14,18,Jits_Linear_8,1,5,56,103,1348572508
14,18,Jits_Linear_8,2,1,48,38,1348576672
14,18,Jits_Linear_8,3,5,80,127,1348622876
14,18,Jits_Linear_8,0,5,80,127,1349333292
14,18,Jits_Linear_8,1,1,48,40,1349351928
14,18,Jits_Linear_8,2,5,63,98,1349373176
14,18,Jits_Linear_8,3,5,56,103,1349392812
14,18,Jits_Linear_8,0,1,48,41,1350134852
14,18,Jits_Linear_8,1,5,56,103,1350143344
14,18,Jits_Linear_8,2,5,63,98,1350152568
14,18,Jits_Linear_8,3,5,80,127,1350173100
14,18,Jits_Linear_8,0,5,56,103,1350842908
14,18,Jits_Linear_8,1,1,48,45,1350898768
14,18,Jits_Linear_8,2,5,63,98,1350932912
14,18,Jits_Linear_8,3,5,80,127,1350993436
14,18,Jits_Linear_8,0,5,80,127,1351642528
14,18,Jits_Linear_8,1,5,56,103,1351652724
14,18,Jits_Linear_8,2,1,48,47,1351681200
14,18,Jits_Linear_8,3,5,63,98,1351723320
14,18,Jits_Linear_8,0,5,63,98,1352443220
14,18,Jits_Linear_8,1,1,48,39,1352460264
14,18,Jits_Linear_8,2,5,80,127,1352533496
14,18,Jits_Linear_8,3,5,56,103,1352542720
14,18,Jits_Linear_8,0,5,63,98,1353142708
14,18,Jits_Linear_8,1,5,80,127,1353192912
14,18,Jits_Linear_8,2,1,48,43,1353236212
14,18,Jits_Linear_8,3,5,56,103,1353253172
14,18,Jits_Linear_8,0,5,56,103,1353933244
14,18,Jits_Linear_8,1,1,48,40,1353969848
14,18,Jits_Linear_8,2,5,80,127,1353983316
14,18,Jits_Linear_8,3,5,63,98,1354002804
14,18,Jits_Linear_8,0,5,56,103,1354663256
14,18,Jits_Linear_8,1,5,80,127,1354722676
14,18,Jits_Linear_8,2,1,48,41,1354730584
14,18,Jits_Linear_8,3,5,63,98,1354793200
14,18,Jits_Linear_8,0,5,56,103,1355423088
14,18,Jits_Linear_8,1,5,80,127,1355452912
14,18,Jits_Linear_8,2,5,63,98,1355482664
14,18,Jits_Linear_8,3,1,48,48,1355536144
14,18,Jits_Linear_8,0,5,56,103,1356222704
14,18,Jits_Linear_8,1,5,80,127,1356243312
14,18,Jits_Linear_8,2,1,48,22,1356252956
14,18,Jits_Linear_8,3,5,63,98,1356302748
14,18,Jits_Linear_8,0,1,48,41,1356963772
14,18,Jits_Linear_8,1,5,80,127,1357062412
14,18,Jits_Linear_8,2,5,56,103,1357072832
14,18,Jits_Linear_8,3,5,63,98,1357083180
14,18,Jits_Linear_8,0,5,56,103,1357773236
14,18,Jits_Linear_8,1,1,48,46,1357812832
14,18,Jits_Linear_8,2,5,80,127,1357814464
14,18,Jits_Linear_8,3,5,63,98,1357842796
14,18,Jits_Linear_8,0,5,56,103,1358492996
14,18,Jits_Linear_8,1,5,63,98,1358522820
14,18,Jits_Linear_8,2,5,80,127,1358562612
14,18,Jits_Linear_8,3,1,48,43,1358610788
14,18,Jits_Linear_8,0,5,80,127,1359192372
14,18,Jits_Linear_8,1,5,63,98,1359242576
14,18,Jits_Linear_8,2,5,56,103,1359263032
14,18,Jits_Linear_8,3,1,48,42,1359319336
14,18,Jits_Linear_8,0,5,56,103,1359982844
14,18,Jits_Linear_8,1,1,48,48,1360000208
14,18,Jits_Linear_8,2,5,80,127,1360052520
14,18,Jits_Linear_8,3,5,63,98,1360113120
14,18,Jits_Linear_8,0,5,80,127,1360723552
14,18,Jits_Linear_8,1,5,63,98,1360813540
14,18,Jits_Linear_8,2,5,56,103,1360832876
14,18,Jits_Linear_8,3,1,48,45,1360840256
14,18,Jits_Linear_8,0,5,63,98,1361483164
14,18,Jits_Linear_8,1,5,56,103,1361502504
14,18,Jits_Linear_8,2,5,80,127,1361542444
14,18,Jits_Linear_8,3,1,48,37,1361637100
14,18,Jits_Linear_8,0,5,80,127,1362182452
14,18,Jits_Linear_8,1,5,63,98,1362203136
14,18,Jits_Linear_8,2,5,56,103,1362282856
14,18,Jits_Linear_8,3,1,48,38,1362327772
14,18,Jits_Linear_8,0,5,63,98,1362912512
14,18,Jits_Linear_8,1,1,48,31,1362953120
14,18,Jits_Linear_8,2,1,38,10,1362968300
14,18,Jits_Linear_8,3,5,56,103,1363023320
14,18,Jits_Linear_8,4,5,80,127,1363026536
14,18,Jits_Linear_8,0,1,48,27,1363666316
14,18,Jits_Linear_8,1,5,63,98,1363672492
14,18,Jits_Linear_8,2,5,56,103,1363682612
14,18,Jits_Linear_8,3,5,80,127,1363685528
14,18,Jits_Linear_8,0,1,48,29,1364365512
14,18,Jits_Linear_8,1,5,56,103,1364393408
14,18,Jits_Linear_8,2,5,80,127,1364513376
14,18,Jits_Linear_8,3,5,63,98,1364553312
14,18,Jits_Linear_8,0,1,48,34,1365111036
14,18,Jits_Linear_8,1,5,56,103,1365142748
14,18,Jits_Linear_8,2,5,80,127,1365222756
14,18,Jits_Linear_8,3,5,63,98,1365243240
14,18,Jits_Linear_8,0,1,48,29,1365819144
14,18,Jits_Linear_8,1,1,38,9,1365834344
14,18,Jits_Linear_8,2,5,56,103,1365873108
14,18,Jits_Linear_8,3,5,63,98,1365982608
14,18,Jits_Linear_8,4,5,80,127,1365985896
14,18,Jits_Linear_8,0,5,56,103,1366633036
14,18,Jits_Linear_8,1,1,48,32,1366648808
14,18,Jits_Linear_8,2,5,80,127,1366662484
14,18,Jits_Linear_8,3,5,63,98,1366683240
14,18,Jits_Linear_8,0,5,63,98,1367342524
14,18,Jits_Linear_8,1,5,56,103,1367352792
14,18,Jits_Linear_8,2,5,80,127,1367363360
14,18,Jits_Linear_8,3,1,48,26,1367389172
14,18,Jits_Linear_8,0,5,80,127,1368053264
14,18,Jits_Linear_8,1,1,48,27,1368056532
14,18,Jits_Linear_8,2,5,56,103,1368103236
14,18,Jits_Linear_8,3,5,63,98,1368143324
14,18,Jits_Linear_8,0,5,80,127,1368792404
14,18,Jits_Linear_8,1,5,63,98,1368813012
14,18,Jits_Linear_8,2,1,48,32,1368851528
14,18,Jits_Linear_8,3,5,56,103,1368863008
14,18,Jits_Linear_8,0,5,80,127,1369522640
14,18,Jits_Linear_8,1,5,56,103,1369553216
14,18,Jits_Linear_8,2,1,48,46,1369571924
14,18,Jits_Linear_8,3,5,63,98,1369623064
14,18,Jits_Linear_8,0,5,56,103,1370292524
14,18,Jits_Linear_8,1,5,80,127,1370303092
14,18,Jits_Linear_8,2,1,48,38,1370328456
14,18,Jits_Linear_8,3,5,63,98,1370342876
14,18,Jits_Linear_8,0,5,56,103,1370923272
14,18,Jits_Linear_8,1,5,63,98,1370942984
14,18,Jits_Linear_8,2,5,80,127,1371012664
14,18,Jits_Linear_8,3,1,48,40,1371088516
14,18,Jits_Linear_8,0,5,63,98,1371662804
14,18,Jits_Linear_8,1,5,80,127,1371723196
14,18,Jits_Linear_8,2,5,56,103,1371742460
14,18,Jits_Linear_8,3,1,48,46,1371785128
14,18,Jits_Linear_8,0,5,80,127,1372363188
14,18,Jits_Linear_8,1,5,56,103,1372393012
14,18,Jits_Linear_8,2,5,63,98,1372422492
14,18,Jits_Linear_8,3,1,48,38,1372482924
14,18,Jits_Linear_8,0,5,56,103,1373072976
14,18,Jits_Linear_8,1,5,63,98,1373133072
14,18,Jits_Linear_8,2,5,80,127,1373192664
14,18,Jits_Linear_8,3,1,48,25,1373274068
14,18,Jits_Linear_8,0,5,80,127,1373802848
14,18,Jits_Linear_8,1,5,56,103,1373823232
14,18,Jits_Linear_8,2,5,63,98,1373892988
14,18,Jits_Linear_8,3,1,48,30,1373972924
14,18,Jits_Linear_8,0,5,80,127,1374512556
14,18,Jits_Linear_8,1,5,63,98,1374532944
14,18,Jits_Linear_8,2,5,56,103,1374562916
14,18,Jits_Linear_8,3,1,48,38,1374684848
14,18,Jits_Linear_8,0,5,80,127,1375202840
14,18,Jits_Linear_8,1,5,63,98,1375223252
14,18,Jits_Linear_8,2,5,56,103,1375282816
14,18,Jits_Linear_8,3,1,48,41,1375406620
14,18,Jits_Linear_8,0,5,80,127,1375903112
14,18,Jits_Linear_8,1,5,56,103,1376002564
14,18,Jits_Linear_8,2,5,63,98,1376033064
14,18,Jits_Linear_8,3,1,48,31,1376167428
14,18,Jits_Linear_8,0,5,63,98,1376593128
14,18,Jits_Linear_8,1,5,80,127,1376642508
14,18,Jits_Linear_8,2,5,56,103,1376662820
14,18,Jits_Linear_8,3,1,48,40,1376900380
14,18,Jits_Linear_8,0,5,80,127,1377332716
14,18,Jits_Linear_8,1,5,56,103,1377363436
14,18,Jits_Linear_8,2,5,63,98,1377366356
14,18,Jits_Linear_8,3,1,48,38,1377601744
14,18,Jits_Linear_8,0,5,63,98,1378062728
14,18,Jits_Linear_8,1,5,56,103,1378102668
14,18,Jits_Linear_8,2,5,80,127,1378123128
14,18,Jits_Linear_8,3,1,48,36,1378349804
14,18,Jits_Linear_8,0,5,80,127,1378702656
14,18,Jits_Linear_8,1,5,63,98,1378782604
14,18,Jits_Linear_8,2,5,56,103,1378822492
14,18,Jits_Linear_8,0,1,48,32,1379102528
14,18,Jits_Linear_8,1,5,63,98,1379413656
14,18,Jits_Linear_8,2,5,80,127,1379493160
14,18,Jits_Linear_8,3,5,56,103,1379512720
14,18,Jits_Linear_8,0,1,48,43,1379866040
14,18,Jits_Linear_8,1,5,56,103,1380142476
14,18,Jits_Linear_8,2,5,63,98,1380152600
14,18,Jits_Linear_8,3,5,80,127,1380192612
14,18,Jits_Linear_8,0,1,48,39,1380615080
14,18,Jits_Linear_8,1,5,56,103,1380752732
14,18,Jits_Linear_8,2,5,80,127,1380755796
14,18,Jits_Linear_8,3,5,63,98,1380893008
14,18,Jits_Linear_8,0,1,48,45,1381387028
14,18,Jits_Linear_8,1,5,56,103,1381432616
14,18,Jits_Linear_8,2,5,63,98,1381522740
14,18,Jits_Linear_8,3,5,80,127,1381592640
14,18,Jits_Linear_8,0,1,48,40,1382108248
14,18,Jits_Linear_8,1,5,63,98,1382192520
14,18,Jits_Linear_8,2,5,80,127,1382195808
14,18,Jits_Linear_8,3,5,56,103,1382252892
14,18,Jits_Linear_8,0,1,48,42,1382887320
14,18,Jits_Linear_8,1,5,80,127,1382913528
14,18,Jits_Linear_8,2,5,56,103,1382932720
14,18,Jits_Linear_8,3,5,63,98,1382943360
14,18,Jits_Linear_8,0,5,56,103,1383512336
14,18,Jits_Linear_8,1,5,63,98,1383522752
14,18,Jits_Linear_8,2,5,80,127,1383593484
14,18,Jits_Linear_8,3,1,48,45,1383659072
14,18,Jits_Linear_8,0,5,80,127,1384193500
14,18,Jits_Linear_8,1,5,56,103,1384242508
14,18,Jits_Linear_8,2,5,63,98,1384292708
14,18,Jits_Linear_8,3,1,48,43,1384362952
14,18,Jits_Linear_8,0,5,56,103,1384953340
14,18,Jits_Linear_8,1,5,63,98,1384962416
14,18,Jits_Linear_8,2,5,80,127,1385003324
14,18,Jits_Linear_8,3,1,48,39,1385034536
14,18,Jits_Linear_8,0,5,56,103,1385572684
14,18,Jits_Linear_8,1,5,63,98,1385612628
14,18,Jits_Linear_8,2,5,80,127,1385662900
14,18,Jits_Linear_8,3,1,48,38,1385770692
14,18,Jits_Linear_8,0,5,80,127,1386202588
14,18,Jits_Linear_8,1,5,56,103,1386252592
14,18,Jits_Linear_8,2,5,63,98,1386273200
14,18,Jits_Linear_8,3,1,48,34,1386475512
14,18,Jits_Linear_8,0,5,80,127,1386882408
14,18,Jits_Linear_8,1,5,63,98,1386942872
14,18,Jits_Linear_8,2,5,56,103,1387022768
14,18,Jits_Linear_8,3,1,48,33,1387208592
14,18,Jits_Linear_8,0,5,80,127,1387532784
14,18,Jits_Linear_8,1,5,56,103,1387572576
14,18,Jits_Linear_8,2,5,63,98,1387593256
14,18,Jits_Linear_8,3,1,48,35,1387931724
14,18,Jits_Linear_8,0,5,56,103,1388252436
14,18,Jits_Linear_8,1,5,80,127,1388262708
14,18,Jits_Linear_8,2,5,63,98,1388302672
14,18,Jits_Linear_8,0,1,48,32,1388678980
14,18,Jits_Linear_8,1,5,56,103,1388982696
14,18,Jits_Linear_8,2,5,63,98,1389022560
14,18,Jits_Linear_8,3,5,80,127,1389026148
14,18,Jits_Linear_8,0,1,48,31,1389413052
14,18,Jits_Linear_8,1,5,63,98,1389532416
14,18,Jits_Linear_8,2,5,80,127,1389572532
14,18,Jits_Linear_8,3,5,56,103,1389643112
14,18,Jits_Linear_8,0,1,48,39,1390170636
14,18,Jits_Linear_8,1,5,63,98,1390182720
14,18,Jits_Linear_8,2,5,56,103,1390262668
14,18,Jits_Linear_8,3,5,80,127,1390322916
14,18,Jits_Linear_8,0,5,80,127,1390852420
14,18,Jits_Linear_8,1,5,63,98,1390902700
14,18,Jits_Linear_8,2,1,48,38,1390918924
14,18,Jits_Linear_8,3,5,56,103,1390933340
14,18,Jits_Linear_8,0,5,56,103,1391502620
14,18,Jits_Linear_8,1,5,63,98,1391552976
14,18,Jits_Linear_8,2,5,80,127,1391563096
14,18,Jits_Linear_8,3,1,48,41,1391675016
14,18,Jits_Linear_8,0,5,56,103,1392173300
14,18,Jits_Linear_8,1,5,63,98,1392282992
14,18,Jits_Linear_8,2,5,80,127,1392302552
14,18,Jits_Linear_8,3,1,48,38,1392425480
14,18,Jits_Linear_8,0,5,63,98,1392822684
14,18,Jits_Linear_8,1,5,80,127,1392872812
14,18,Jits_Linear_8,2,5,56,103,1392963044
14,18,Jits_Linear_8,3,1,48,29,1393200380
14,18,Jits_Linear_8,0,1,38,9,1393221036
14,18,Jits_Linear_8,1,5,63,98,1393462500
14,18,Jits_Linear_8,2,5,80,127,1393493444
14,18,Jits_Linear_8,3,5,56,103,1393582308
14,18,Jits_Linear_8,0,1,48,40,1393905776
14,18,Jits_Linear_8,1,5,63,98,1394112956
14,18,Jits_Linear_8,2,5,56,103,1394123076
14,18,Jits_Linear_8,3,5,80,127,1394222380
14,18,Jits_Linear_8,0,1,48,35,1394655536
14,18,Jits_Linear_8,1,5,63,98,1394862372
14,18,Jits_Linear_8,2,5,80,127,1394893168
14,18,Jits_Linear_8,3,5,56,103,1394922916
14,18,Jits_Linear_8,0,5,80,127,1395523028
14,18,Jits_Linear_8,1,5,63,98,1395533148
14,18,Jits_Linear_8,2,1,48,46,1395558664
14,18,Jits_Linear_8,3,5,56,103,1395562968
14,18,Jits_Linear_8,0,5,80,127,1396062724
14,18,Jits_Linear_8,1,5,63,98,1396083112
14,18,Jits_Linear_8,2,5,56,103,1396133164
14,18,Jits_Linear_8,3,1,48,46,1396300432
14,18,Jits_Linear_8,0,5,63,98,1396733256
14,18,Jits_Linear_8,1,5,80,127,1396792896
14,18,Jits_Linear_8,2,5,56,103,1396813132
14,18,Jits_Linear_8,3,1,48,40,1396983188
14,18,Jits_Linear_8,0,5,63,98,1397333392
14,18,Jits_Linear_8,1,5,56,103,1397382700
14,18,Jits_Linear_8,2,5,80,127,1397392896
14,18,Jits_Linear_8,0,1,48,36,1397780620
14,18,Jits_Linear_8,1,5,56,103,1398002952
14,18,Jits_Linear_8,2,5,80,127,1398013444
14,18,Jits_Linear_8,3,5,63,98,1398112644
14,18,Jits_Linear_8,0,1,48,31,1398499048
14,18,Jits_Linear_8,1,1,38,10,1398514580
14,18,Jits_Linear_8,2,5,80,127,1398603232
14,18,Jits_Linear_8,3,5,63,98,1398613564
14,18,Jits_Linear_8,4,5,56,103,1398762960
14,18,Jits_Linear_8,0,1,48,28,1399237952
14,18,Jits_Linear_8,1,5,63,98,1399243152
14,18,Jits_Linear_8,2,1,38,9,1399253544
14,18,Jits_Linear_8,3,5,80,127,1399283108
14,18,Jits_Linear_8,4,5,56,103,1399362936
14,18,Jits_Linear_8,0,5,56,103,1399862604
14,18,Jits_Linear_8,1,1,48,31,1399950696
14,18,Jits_Linear_8,2,5,80,127,1399963000
14,18,Jits_Linear_8,3,1,38,10,1399966192
14,18,Jits_Linear_8,4,5,63,98,1399982628
14,18,Jits_Linear_8,0,5,80,127,1400552696
14,18,Jits_Linear_8,1,5,56,103,1400562988
14,18,Jits_Linear_8,2,5,63,98,1400653120
14,18,Jits_Linear_8,3,1,48,28,1400691012
14,18,Jits_Linear_8,0,5,56,103,1401182700
14,18,Jits_Linear_8,1,5,63,98,1401203012
14,18,Jits_Linear_8,2,5,80,127,1401283028
14,18,Jits_Linear_8,3,1,48,35,1401415324
14,18,Jits_Linear_8,4,1,38,10,1401430448
14,18,Jits_Linear_8,0,5,63,98,1401752828
14,18,Jits_Linear_8,1,5,56,103,1401843064
14,18,Jits_Linear_8,2,5,80,127,1401846052
14,18,Jits_Linear_8,3,1,48,35,1402074744
14,18,Jits_Linear_8,0,5,56,103,1402403108
14,18,Jits_Linear_8,1,5,80,127,1402462604
14,18,Jits_Linear_8,2,5,63,98,1402472724
14,18,Jits_Linear_8,0,1,48,19,1402832792
14,18,Jits_Linear_8,1,5,80,127,1403072884
14,18,Jits_Linear_8,2,5,56,103,1403083224
14,18,Jits_Linear_8,3,5,63,98,1403086292
14,18,Jits_Linear_8,0,1,48,48,1403526520
14,18,Jits_Linear_8,1,5,56,103,1403652584
14,18,Jits_Linear_8,2,5,80,127,1403662632
14,18,Jits_Linear_8,3,5,63,98,1403683312
14,18,Jits_Linear_8,0,5,63,98,1404243452
14,18,Jits_Linear_8,1,1,48,39,1404262912
14,18,Jits_Linear_8,2,5,80,127,1404302644
14,18,Jits_Linear_8,3,5,56,103,1404352772
14,18,Jits_Linear_8,0,5,63,98,1404942676
14,18,Jits_Linear_8,1,5,56,103,1404952796
14,18,Jits_Linear_8,2,5,80,127,1405003072
14,18,Jits_Linear_8,3,1,48,44,1405010896
14,18,Jits_Linear_8,0,5,63,98,1405452616
14,18,Jits_Linear_8,1,5,80,127,1405473372
14,18,Jits_Linear_8,2,5,56,103,1405483496
14,18,Jits_Linear_8,3,1,48,47,1405700528
14,18,Jits_Linear_8,0,5,63,98,1406063088
14,18,Jits_Linear_8,1,5,80,127,1406066448
14,18,Jits_Linear_8,2,5,56,103,1406102876
14,18,Jits_Linear_8,3,1,48,41,1406424256
14,18,Jits_Linear_8,0,5,63,98,1406742808
14,18,Jits_Linear_8,1,5,80,127,1406772560
14,18,Jits_Linear_8,2,5,56,103,1406782756
14,18,Jits_Linear_8,0,1,48,39,1407155316
14,18,Jits_Linear_8,1,5,56,103,1407303252
14,18,Jits_Linear_8,2,5,80,127,1407332704
14,18,Jits_Linear_8,3,5,63,98,1407362308
14,18,Jits_Linear_8,0,1,48,42,1407891480
14,18,Jits_Linear_8,1,5,63,98,1408002396
14,18,Jits_Linear_8,2,5,56,103,1408043380
14,18,Jits_Linear_8,3,5,80,127,1408046596
14,18,Jits_Linear_8,0,5,80,127,1408503512
14,18,Jits_Linear_8,1,5,56,103,1408583308
14,18,Jits_Linear_8,2,1,48,40,1408603296
14,18,Jits_Linear_8,3,5,63,98,1408633284
14,18,Jits_Linear_8,0,5,80,127,1409082696
14,18,Jits_Linear_8,1,5,56,103,1409103084
14,18,Jits_Linear_8,2,5,63,98,1409193364
14,18,Jits_Linear_8,3,1,48,39,1409321176
14,18,Jits_Linear_8,0,5,80,127,1409722708
14,18,Jits_Linear_8,1,5,63,98,1409762648
14,18,Jits_Linear_8,2,5,56,103,1409802464
14,18,Jits_Linear_8,0,1,48,38,1410096292
14,18,Jits_Linear_8,1,5,63,98,1410293308
14,18,Jits_Linear_8,2,5,80,127,1410352504
14,18,Jits_Linear_8,3,5,56,103,1410383152
14,18,Jits_Linear_8,0,1,48,41,1410818208
14,18,Jits_Linear_8,1,5,56,103,1410893240
14,18,Jits_Linear_8,2,5,80,127,1410923048
14,18,Jits_Linear_8,3,5,63,98,1411013108
14,18,Jits_Linear_8,0,5,56,103,1411493240
14,18,Jits_Linear_8,1,1,48,38,1411567632
14,18,Jits_Linear_8,2,5,80,127,1411602948
14,18,Jits_Linear_8,3,5,63,98,1411632400
14,18,Jits_Linear_8,0,5,56,103,1412133284
14,18,Jits_Linear_8,1,5,63,98,1412192632
14,18,Jits_Linear_8,2,5,80,127,1412223356
14,18,Jits_Linear_8,3,1,48,38,1412378564
14,18,Jits_Linear_8,0,5,56,103,1412693292
14,18,Jits_Linear_8,1,5,63,98,1412763052
14,18,Jits_Linear_8,2,5,80,127,1412782464
14,18,Jits_Linear_8,0,1,48,40,1413125992
14,18,Jits_Linear_8,1,5,80,127,1413252412
14,18,Jits_Linear_8,2,5,63,98,1413273092
14,18,Jits_Linear_8,3,5,56,103,1413323220
14,18,Jits_Linear_8,0,5,63,98,1413852640
14,18,Jits_Linear_8,1,5,80,127,1413863208
14,18,Jits_Linear_8,2,1,48,30,1413895424
14,18,Jits_Linear_8,3,5,56,103,1413913352
14,18,Jits_Linear_8,0,5,63,98,1414433100
14,18,Jits_Linear_8,1,5,80,127,1414502936
14,18,Jits_Linear_8,2,5,56,103,1414523244
14,18,Jits_Linear_8,3,1,48,29,1414589132
14,18,Jits_Linear_8,4,1,38,9,1414604404
14,18,Jits_Linear_8,0,5,63,98,1415042548
14,18,Jits_Linear_8,1,5,80,127,1415045840
14,18,Jits_Linear_8,2,5,56,103,1415113056
14,18,Jits_Linear_8,3,1,48,43,1415215760
14,18,Jits_Linear_8,0,5,80,127,1415572936
14,18,Jits_Linear_8,1,5,56,103,1415593320
14,18,Jits_Linear_8,2,5,63,98,1415602620
14,18,Jits_Linear_8,3,1,48,36,1415748620
14,18,Jits_Linear_8,0,5,56,103,1416173088
14,18,Jits_Linear_8,1,5,63,98,1416263076
14,18,Jits_Linear_8,2,5,80,127,1416266292
14,18,Jits_Linear_8,3,1,48,41,1416301712
14,18,Jits_Linear_8,0,5,80,127,1416723044
14,18,Jits_Linear_8,1,5,56,103,1416733016
14,18,Jits_Linear_8,2,5,63,98,1416752576
14,18,Jits_Linear_8,3,1,48,14,1416848660
14,18,Jits_Linear_8,0,5,63,98,1417293224
14,18,Jits_Linear_8,1,1,48,39,1417332016
14,18,Jits_Linear_8,2,5,80,127,1417352564
14,18,Jits_Linear_8,3,5,56,103,1417362908
14,18,Jits_Linear_8,0,1,48,26,1417894984
14,18,Jits_Linear_8,1,5,63,98,1417933144
14,18,Jits_Linear_8,2,5,80,127,1417963044
14,18,Jits_Linear_8,3,5,56,103,1418002920
14,18,Jits_Linear_8,0,5,56,103,1418493164
14,18,Jits_Linear_8,1,1,48,33,1418502084
14,18,Jits_Linear_8,2,5,80,127,1418503948
14,18,Jits_Linear_8,3,5,63,98,1418542320
14,18,Jits_Linear_8,0,5,80,127,1419022900
14,18,Jits_Linear_8,1,1,48,40,1419064680
14,18,Jits_Linear_8,2,5,56,103,1419102692
14,18,Jits_Linear_8,3,5,63,98,1419112960
14,18,Jits_Linear_8,0,5,80,127,1419633028
14,18,Jits_Linear_8,1,1,48,44,1419705148
14,18,Jits_Linear_8,2,5,56,103,1419712820
14,18,Jits_Linear_8,3,5,63,98,1419723092
14,18,Jits_Linear_8,0,5,80,127,1420153176
14,18,Jits_Linear_8,1,5,56,103,1420203232
14,18,Jits_Linear_8,2,5,63,98,1420252760
14,18,Jits_Linear_8,3,1,48,43,1420293144
14,18,Jits_Linear_8,0,5,56,103,1420772592
14,18,Jits_Linear_8,1,5,63,98,1420775740
14,18,Jits_Linear_8,2,1,48,42,1420811636
14,18,Jits_Linear_8,3,5,80,127,1420822968
14,18,Jits_Linear_8,0,1,48,43,1421329884
14,18,Jits_Linear_8,1,5,56,103,1421353296
14,18,Jits_Linear_8,2,5,63,98,1421383124
14,18,Jits_Linear_8,3,5,80,127,1421393392
14,18,Jits_Linear_8,0,5,63,98,1421823464
14,18,Jits_Linear_8,1,1,48,41,1421854160
14,18,Jits_Linear_8,2,5,56,103,1421893068
14,18,Jits_Linear_8,3,5,80,127,1421943344
14,18,Jits_Linear_8,0,5,63,98,1422413128
14,18,Jits_Linear_8,1,5,56,103,1422423396
14,18,Jits_Linear_8,2,5,80,127,1422426460
14,18,Jits_Linear_8,3,1,48,44,1422428976
14,18,Jits_Linear_8,0,5,80,127,1422912864
14,18,Jits_Linear_8,1,1,48,44,1422946772
14,18,Jits_Linear_8,2,5,56,103,1422973324
14,18,Jits_Linear_8,3,5,63,98,1423063516
14,18,Jits_Linear_8,0,5,80,127,1423462676
14,18,Jits_Linear_8,1,1,48,37,1423557564
14,18,Jits_Linear_8,2,5,56,103,1423563068
14,18,Jits_Linear_8,3,1,38,10,1423573088
14,18,Jits_Linear_8,4,5,63,98,1423603100
14,18,Jits_Linear_8,0,5,56,103,1424062800
14,18,Jits_Linear_8,1,5,63,98,1424083260
14,18,Jits_Linear_8,2,5,80,127,1424123520
14,18,Jits_Linear_8,3,1,48,42,1424126564
14,18,Jits_Linear_8,0,5,63,98,1424583160
14,18,Jits_Linear_8,1,5,56,103,1424602724
14,18,Jits_Linear_8,2,1,48,41,1424621280
14,18,Jits_Linear_8,3,5,80,127,1424702764
14,18,Jits_Linear_8,0,1,48,39,1425100396
14,18,Jits_Linear_8,1,5,63,98,1425112424
14,18,Jits_Linear_8,2,5,80,127,1425222952
14,18,Jits_Linear_8,3,5,56,103,1425252776
14,18,Jits_Linear_8,0,1,48,28,1425655628
14,18,Jits_Linear_8,1,1,38,10,1425670832
14,18,Jits_Linear_8,2,5,56,103,1425682764
14,18,Jits_Linear_8,3,5,63,98,1425712516
14,18,Jits_Linear_8,4,5,80,127,1425762628
14,18,Jits_Linear_8,0,5,63,98,1426192692
14,18,Jits_Linear_8,1,5,56,103,1426222592
14,18,Jits_Linear_8,2,1,48,32,1426251044
14,18,Jits_Linear_8,3,1,38,10,1426266220
14,18,Jits_Linear_8,4,5,80,127,1426272692
14,18,Jits_Linear_8,0,1,48,38,1426748608
14,18,Jits_Linear_8,1,5,56,103,1426763252
14,18,Jits_Linear_8,2,5,63,98,1426782592
14,18,Jits_Linear_8,3,5,80,127,1426862592
14,18,Jits_Linear_8,0,5,63,98,1427273048
14,18,Jits_Linear_8,1,1,48,44,1427302472
14,18,Jits_Linear_8,2,5,56,103,1427332608
14,18,Jits_Linear_8,3,5,80,127,1427363332
14,18,Jits_Linear_8,0,5,56,103,1427852664
14,18,Jits_Linear_8,1,1,48,38,1427863276
14,18,Jits_Linear_8,2,5,80,127,1427913196
14,18,Jits_Linear_8,3,5,63,98,1427953088
14,18,Jits_Linear_8,0,5,63,98,1428362624
14,18,Jits_Linear_8,1,1,48,45,1428415412
14,18,Jits_Linear_8,2,5,56,103,1428422936
14,18,Jits_Linear_8,3,5,80,127,1428492716
14,18,Jits_Linear_8,0,1,48,41,1428938980
14,18,Jits_Linear_8,1,5,56,103,1428972880
14,18,Jits_Linear_8,2,5,63,98,1428983248
14,18,Jits_Linear_8,3,5,80,127,1428986536
14,18,Jits_Linear_8,0,5,63,98,1429442888
14,18,Jits_Linear_8,1,1,48,44,1429479112
14,18,Jits_Linear_8,2,5,56,103,1429503444
14,18,Jits_Linear_8,3,5,80,127,1429506436
14,18,Jits_Linear_8,0,5,63,98,1429952744
14,18,Jits_Linear_8,1,5,80,127,1429982572
14,18,Jits_Linear_8,2,1,48,46,1430001848
14,18,Jits_Linear_8,3,5,56,103,1430003644
14,18,Jits_Linear_8,0,5,56,103,1430483284
14,18,Jits_Linear_8,1,1,48,43,1430520580
14,18,Jits_Linear_8,2,5,63,98,1430532460
14,18,Jits_Linear_8,3,5,80,127,1430613376
14,18,Jits_Linear_8,0,5,80,127,1430983200
14,18,Jits_Linear_8,1,5,63,98,1431023388
14,18,Jits_Linear_8,2,1,48,46,1431035576
14,18,Jits_Linear_8,3,5,56,103,1431042424
14,18,Jits_Linear_8,0,1,48,42,1431567164
14,18,Jits_Linear_8,1,5,56,103,1431572744
14,18,Jits_Linear_8,2,5,80,127,1431583088
14,18,Jits_Linear_8,3,5,63,98,1431602648
14,18,Jits_Linear_8,0,5,56,103,1432072504
14,18,Jits_Linear_8,1,1,48,33,1432115104
14,18,Jits_Linear_8,2,5,63,98,1432122628
14,18,Jits_Linear_8,3,5,80,127,1432152376
14,18,Jits_Linear_8,0,5,56,103,1432542580
14,18,Jits_Linear_8,1,5,63,98,1432553000
14,18,Jits_Linear_8,2,5,80,127,1432603224
14,18,Jits_Linear_8,3,1,48,30,1432653024
14,18,Jits_Linear_8,0,5,56,103,1433052456
14,18,Jits_Linear_8,1,5,80,127,1433055520
14,18,Jits_Linear_8,2,1,48,40,1433148336
14,18,Jits_Linear_8,3,5,63,98,1433213252
14,18,Jits_Linear_8,0,5,63,98,1433583176
14,18,Jits_Linear_8,1,5,56,103,1433652564
14,18,Jits_Linear_8,2,5,80,127,1433692504
14,18,Jits_Linear_8,3,1,48,42,1433721176
14,18,Jits_Linear_8,0,5,63,98,1434132836
14,18,Jits_Linear_8,1,1,48,38,1434218888
14,18,Jits_Linear_8,2,5,56,103,1434223188
14,18,Jits_Linear_8,3,5,80,127,1434226256
14,18,Jits_Linear_8,0,5,56,103,1434623440
14,18,Jits_Linear_8,1,5,63,98,1434712460
14,18,Jits_Linear_8,2,1,48,44,1434721976
14,18,Jits_Linear_8,3,5,80,127,1434723844
14,18,Jits_Linear_8,0,5,56,103,1435102512
14,18,Jits_Linear_8,1,5,63,98,1435153040
14,18,Jits_Linear_8,2,5,80,127,1435182416
14,18,Jits_Linear_8,3,1,48,43,1435203216
14,18,Jits_Linear_8,0,5,63,98,1435683144
14,18,Jits_Linear_8,1,5,80,127,1435693416
14,18,Jits_Linear_8,2,1,48,34,1435749048
14,18,Jits_Linear_8,3,5,56,103,1435753200
14,18,Jits_Linear_8,0,5,63,98,1436103160
14,18,Jits_Linear_8,1,5,80,127,1436162380
14,18,Jits_Linear_8,2,5,56,103,1436203292
14,18,Jits_Linear_8,3,1,48,43,1436248656
14,18,Jits_Linear_8,0,5,56,103,1436703184
14,18,Jits_Linear_8,1,5,80,127,1436722524
14,18,Jits_Linear_8,2,1,48,47,1436725188
14,18,Jits_Linear_8,3,5,63,98,1436743200
14,18,Jits_Linear_8,0,5,63,98,1437122916
14,18,Jits_Linear_8,1,5,56,103,1437143300
14,18,Jits_Linear_8,2,5,80,127,1437183264
14,18,Jits_Linear_8,3,1,48,43,1437286316
14,18,Jits_Linear_8,0,5,63,98,1437633152
14,18,Jits_Linear_8,1,5,80,127,1437662532
14,18,Jits_Linear_8,2,5,56,103,1437683016
14,18,Jits_Linear_8,3,1,48,44,1437815960
14,18,Jits_Linear_8,0,5,80,127,1438102788
14,18,Jits_Linear_8,1,5,56,103,1438153140
14,18,Jits_Linear_8,2,5,63,98,1438212512
14,18,Jits_Linear_8,3,1,48,31,1438351532
14,18,Jits_Linear_8,4,1,38,11,1438366184
14,18,Jits_Linear_8,0,5,63,98,1438583260
14,18,Jits_Linear_8,1,5,56,103,1438703092
14,18,Jits_Linear_8,2,5,80,127,1438732620
14,18,Jits_Linear_8,3,1,48,34,1438877616
14,18,Jits_Linear_8,4,1,38,10,1438892668
14,18,Jits_Linear_8,0,5,80,127,1439112412
14,18,Jits_Linear_8,1,5,63,98,1439133172
14,18,Jits_Linear_8,2,5,56,103,1439202928
14,18,Jits_Linear_8,0,1,48,38,1439409100
14,18,Jits_Linear_8,1,5,63,98,1439622532
14,18,Jits_Linear_8,2,5,56,103,1439632804
14,18,Jits_Linear_8,3,5,80,127,1439712748
14,18,Jits_Linear_8,0,1,48,46,1439946104
14,18,Jits_Linear_8,1,5,56,103,1440173536
14,18,Jits_Linear_8,2,5,80,127,1440203064
14,18,Jits_Linear_8,3,5,63,98,1440213484
14,18,Jits_Linear_8,0,9999,9999,9999,9999,1329810516
14,18,Jits_Linear_8,1,9999,9999,9999,9999,1330630748
14,18,Jits_Linear_8,2,9999,9999,9999,9999,1331450956
14,18,Jits_Linear_8,3,9999,9999,9999,9999,1332270164
14,18,Jits_Linear_8,4,9999,9999,9999,9999,1333090388
14,18,Jits_Linear_8,5,9999,9999,9999,9999,1333900408
14,18,Jits_Linear_8,6,9999,9999,9999,9999,1334710348
14,18,Jits_Linear_8,7,9999,9999,9999,9999,1335520380
14,18,Jits_Linear_8,8,9999,9999,9999,9999,1336330296
14,18,Jits_Linear_8,9,9999,9999,9999,9999,1337140304
14,18,Jits_Linear_8,10,9999,9999,9999,9999,1337941052
14,18,Jits_Linear_8,11,9999,9999,9999,9999,1338740820
14,18,Jits_Linear_8,12,9999,9999,9999,9999,1339540592
14,18,Jits_Linear_8,13,9999,9999,9999,9999,1340340288
14,18,Jits_Linear_8,14,9999,9999,9999,9999,1341141076
14,18,Jits_Linear_8,15,9999,9999,9999,9999,1341930572
14,18,Jits_Linear_8,16,9999,9999,9999,9999,1342720064
14,18,Jits_Linear_8,17,9999,9999,9999,9999,1343510620
14,18,Jits_Linear_8,18,9999,9999,9999,9999,1344300120
14,18,Jits_Linear_8,19,9999,9999,9999,9999,1345090656
14,18,Jits_Linear_8,20,9999,9999,9999,9999,1345870932
14,18,Jits_Linear_8,21,9999,9999,9999,9999,1346650228
14,18,Jits_Linear_8,22,9999,9999,9999,9999,1347430508
14,18,Jits_Linear_8,23,9999,9999,9999,9999,1348210784
14,18,Jits_Linear_8,24,9999,9999,9999,9999,1348991052
14,18,Jits_Linear_8,25,9999,9999,9999,9999,1349760092
14,18,Jits_Linear_8,26,9999,9999,9999,9999,1350530116
14,18,Jits_Linear_8,27,9999,9999,9999,9999,1351300200
14,18,Jits_Linear_8,28,9999,9999,9999,9999,1352070224
14,18,Jits_Linear_8,29,9999,9999,9999,9999,1352840256
14,18,Jits_Linear_8,30,9999,9999,9999,9999,1353600076
14,18,Jits_Linear_8,31,9999,9999,9999,9999,1354360940
14,18,Jits_Linear_8,32,9999,9999,9999,9999,1355120696
14,18,Jits_Linear_8,33,9999,9999,9999,9999,1355880524
14,18,Jits_Linear_8,34,9999,9999,9999,9999,1356640360
14,18,Jits_Linear_8,35,9999,9999,9999,9999,1357390916
14,18,Jits_Linear_8,36,9999,9999,9999,9999,1358140480
14,18,Jits_Linear_8,37,9999,9999,9999,9999,1358891100
14,18,Jits_Linear_8,38,9999,9999,9999,9999,1359650928
14,18,Jits_Linear_8,39,9999,9999,9999,9999,1360400484
14,18,Jits_Linear_8,40,9999,9999,9999,9999,1361140840
14,18,Jits_Linear_8,41,9999,9999,9999,9999,1361880124
14,18,Jits_Linear_8,42,9999,9999,9999,9999,1362620532
14,18,Jits_Linear_8,43,9999,9999,9999,9999,1363360832
14,18,Jits_Linear_8,44,9999,9999,9999,9999,1364100184
14,18,Jits_Linear_8,45,9999,9999,9999,9999,1364830264
14,18,Jits_Linear_8,46,9999,9999,9999,9999,1365560416
14,18,Jits_Linear_8,47,9999,9999,9999,9999,1366290520
14,18,Jits_Linear_8,48,9999,9999,9999,9999,1367020632
14,18,Jits_Linear_8,49,9999,9999,9999,9999,1367750712
14,18,Jits_Linear_8,50,9999,9999,9999,9999,1368470604
14,18,Jits_Linear_8,51,9999,9999,9999,9999,1369190504
14,18,Jits_Linear_8,52,9999,9999,9999,9999,1369910336
14,18,Jits_Linear_8,53,9999,9999,9999,9999,1370630244
14,18,Jits_Linear_8,54,9999,9999,9999,9999,1371350120
14,18,Jits_Linear_8,55,9999,9999,9999,9999,1372060736
14,18,Jits_Linear_8,56,9999,9999,9999,9999,1372770360
14,18,Jits_Linear_8,57,9999,9999,9999,9999,1373481052
14,18,Jits_Linear_8,58,9999,9999,9999,9999,1374190664
14,18,Jits_Linear_8,59,9999,9999,9999,9999,1374900300
14,18,Jits_Linear_8,60,9999,9999,9999,9999,1375600724
14,18,Jits_Linear_8,61,9999,9999,9999,9999,1376300104
14,18,Jits_Linear_8,62,9999,9999,9999,9999,1377000576
14,18,Jits_Linear_8,63,9999,9999,9999,9999,1377700968
14,18,Jits_Linear_8,64,9999,9999,9999,9999,1378400368
14,18,Jits_Linear_8,65,9999,9999,9999,9999,1379090524
14,18,Jits_Linear_8,66,9999,9999,9999,9999,1379780680
14,18,Jits_Linear_8,67,9999,9999,9999,9999,1380470908
14,18,Jits_Linear_8,68,9999,9999,9999,9999,1381161040
14,18,Jits_Linear_8,69,9999,9999,9999,9999,1381850188
14,18,Jits_Linear_8,70,9999,9999,9999,9999,1382530140
14,18,Jits_Linear_8,71,9999,9999,9999,9999,1383211080
14,18,Jits_Linear_8,72,9999,9999,9999,9999,1383900228
14,18,Jits_Linear_8,73,9999,9999,9999,9999,1384580200
14,18,Jits_Linear_8,74,9999,9999,9999,9999,1385260104
14,18,Jits_Linear_8,75,9999,9999,9999,9999,1385930836
14,18,Jits_Linear_8,76,9999,9999,9999,9999,1386600540
14,18,Jits_Linear_8,77,9999,9999,9999,9999,1387270268
14,18,Jits_Linear_8,78,9999,9999,9999,9999,1387940992
14,18,Jits_Linear_8,79,9999,9999,9999,9999,1388610636
14,18,Jits_Linear_8,80,9999,9999,9999,9999,1389270144
14,18,Jits_Linear_8,81,9999,9999,9999,9999,1389930620
14,18,Jits_Linear_8,82,9999,9999,9999,9999,1390591096
14,18,Jits_Linear_8,83,9999,9999,9999,9999,1391250504
14,18,Jits_Linear_8,84,9999,9999,9999,9999,1391910988
14,18,Jits_Linear_8,85,9999,9999,9999,9999,1392560224
14,18,Jits_Linear_8,86,9999,9999,9999,9999,1393210472
14,18,Jits_Linear_8,87,9999,9999,9999,9999,1393860676
14,18,Jits_Linear_8,88,9999,9999,9999,9999,1394510936
14,18,Jits_Linear_8,89,9999,9999,9999,9999,1395160160
14,18,Jits_Linear_8,90,9999,9999,9999,9999,1395800124
14,18,Jits_Linear_8,91,9999,9999,9999,9999,1396440132
14,18,Jits_Linear_8,92,9999,9999,9999,9999,1397080184
14,18,Jits_Linear_8,93,9999,9999,9999,9999,1397720188
14,18,Jits_Linear_8,94,9999,9999,9999,9999,1398360152
14,18,Jits_Linear_8,95,9999,9999,9999,9999,1398990912
14,18,Jits_Linear_8,96,9999,9999,9999,9999,1399620708
14,18,Jits_Linear_8,97,9999,9999,9999,9999,1400250456
14,18,Jits_Linear_8,98,9999,9999,9999,9999,1400880232
14,18,Jits_Linear_8,99,9999,9999,9999,9999,1401510988
14,18,Jits_Linear_8,100,9999,9999,9999,9999,1402130492
14,18,Jits_Linear_8,101,9999,9999,9999,9999,1402751096
14,18,Jits_Linear_8,102,9999,9999,9999,9999,1403370588
14,18,Jits_Linear_8,103,9999,9999,9999,9999,1403990080
14,18,Jits_Linear_8,104,9999,9999,9999,9999,1404610676
14,18,Jits_Linear_8,105,9999,9999,9999,9999,1405220968
14,18,Jits_Linear_8,106,9999,9999,9999,9999,1405830244
14,18,Jits_Linear_8,107,9999,9999,9999,9999,1406440572
14,18,Jits_Linear_8,108,9999,9999,9999,9999,1407050860
14,18,Jits_Linear_8,109,9999,9999,9999,9999,1407660152
14,18,Jits_Linear_8,110,9999,9999,9999,9999,1408260176
14,18,Jits_Linear_8,111,9999,9999,9999,9999,1408860248
14,18,Jits_Linear_8,112,9999,9999,9999,9999,1409460328
14,18,Jits_Linear_8,113,9999,9999,9999,9999,1410060384
14,18,Jits_Linear_8,114,9999,9999,9999,9999,1410660472
14,18,Jits_Linear_8,115,9999,9999,9999,9999,1411250280
14,18,Jits_Linear_8,116,9999,9999,9999,9999,1411840112
14,18,Jits_Linear_8,117,9999,9999,9999,9999,1412430928
14,18,Jits_Linear_8,118,9999,9999,9999,9999,1413020756
14,18,Jits_Linear_8,119,9999,9999,9999,9999,1413610580
14,18,Jits_Linear_8,120,9999,9999,9999,9999,1414190140
14,18,Jits_Linear_8,121,9999,9999,9999,9999,1414770760
14,18,Jits_Linear_8,122,9999,9999,9999,9999,1415350352
14,18,Jits_Linear_8,123,9999,9999,9999,9999,1415930960
14,18,Jits_Linear_8,124,9999,9999,9999,9999,1416510564
14,18,Jits_Linear_8,125,9999,9999,9999,9999,1417080892
14,18,Jits_Linear_8,126,9999,9999,9999,9999,1417650256
14,18,Jits_Linear_8,127,9999,9999,9999,9999,1418220660
14,18,Jits_Linear_8,128,9999,9999,9999,9999,1418791012
14,18,Jits_Linear_8,129,9999,9999,9999,9999,1419360380
14,18,Jits_Linear_8,130,9999,9999,9999,9999,1419920464
14,18,Jits_Linear_8,131,9999,9999,9999,9999,1420480620
14,18,Jits_Linear_8,132,9999,9999,9999,9999,1421040716
14,18,Jits_Linear_8,133,9999,9999,9999,9999,1421600880
14,18,Jits_Linear_8,134,9999,9999,9999,9999,1422161020
14,18,Jits_Linear_8,135,9999,9999,9999,9999,1422710884
14,18,Jits_Linear_8,136,9999,9999,9999,9999,1423260756
14,18,Jits_Linear_8,137,9999,9999,9999,9999,1423810688
14,18,Jits_Linear_8,138,9999,9999,9999,9999,1424360572
14,18,Jits_Linear_8,139,9999,9999,9999,9999,1424910400
14,18,Jits_Linear_8,140,9999,9999,9999,9999,1425451064
14,18,Jits_Linear_8,141,9999,9999,9999,9999,1426000980
14,18,Jits_Linear_8,142,9999,9999,9999,9999,1426540604
14,18,Jits_Linear_8,143,9999,9999,9999,9999,1427080284
14,18,Jits_Linear_8,144,9999,9999,9999,9999,1427620936
14,18,Jits_Linear_8,145,9999,9999,9999,9999,1428150364
14,18,Jits_Linear_8,146,9999,9999,9999,9999,1428680772
14,18,Jits_Linear_8,147,9999,9999,9999,9999,1429210192
14,18,Jits_Linear_8,148,9999,9999,9999,9999,1429740652
14,18,Jits_Linear_8,149,9999,9999,9999,9999,1430271064
14,18,Jits_Linear_8,150,9999,9999,9999,9999,1430790228
14,18,Jits_Linear_8,151,9999,9999,9999,9999,1431310440
14,18,Jits_Linear_8,152,9999,9999,9999,9999,1431830592
14,18,Jits_Linear_8,153,9999,9999,9999,9999,1432350800
14,18,Jits_Linear_8,154,9999,9999,9999,9999,1432871012
14,18,Jits_Linear_8,155,9999,9999,9999,9999,1433380960
14,18,Jits_Linear_8,156,9999,9999,9999,9999,1433890916
14,18,Jits_Linear_8,157,9999,9999,9999,9999,1434400864
14,18,Jits_Linear_8,158,9999,9999,9999,9999,1434910808
14,18,Jits_Linear_8,159,9999,9999,9999,9999,1435420760
14,18,Jits_Linear_8,160,9999,9999,9999,9999,1435920464
14,18,Jits_Linear_8,161,9999,9999,9999,9999,1436420216
14,18,Jits_Linear_8,162,9999,9999,9999,9999,1436920948
14,18,Jits_Linear_8,163,9999,9999,9999,9999,1437420616
14,18,Jits_Linear_8,164,9999,9999,9999,9999,1437920360
14,18,Jits_Linear_8,165,9999,9999,9999,9999,1438410824
14,18,Jits_Linear_8,166,9999,9999,9999,9999,1438900292
14,18,Jits_Linear_8,167,9999,9999,9999,9999,1439390804
14,18,Jits_Linear_8,168,9999,9999,9999,9999,1439880248
14,18,Jits_Linear_8,169,9999,9999,9999,9999,1440370796
15,16,Jits_ISO_5,0,5,56,103,1450134828
15,16,Jits_ISO_5,1,5,63,98,1450138000
15,16,Jits_ISO_5,2,5,80,127,1450141348
15,16,Jits_ISO_5,0,5,56,103,1450634620
15,16,Jits_ISO_5,1,5,63,98,1450637872
15,16,Jits_ISO_5,2,5,80,127,1450640992
15,16,Jits_ISO_5,0,5,56,103,1451135408
15,16,Jits_ISO_5,1,5,80,127,1451144556
15,16,Jits_ISO_5,2,5,63,98,1451165164
15,16,Jits_ISO_5,0,5,63,98,1451584804
15,16,Jits_ISO_5,1,5,80,127,1451614480
15,16,Jits_ISO_5,2,5,56,103,1451624672
15,16,Jits_ISO_5,0,1,48,53,1452092884
15,16,Jits_ISO_5,1,5,80,127,1452144972
15,16,Jits_ISO_5,2,5,56,103,1452155392
15,16,Jits_ISO_5,3,5,63,98,1452185140
15,16,Jits_ISO_5,0,5,63,98,1452634532
15,16,Jits_ISO_5,1,1,48,49,1452658400
15,16,Jits_ISO_5,2,5,56,103,1452665100
15,16,Jits_ISO_5,3,5,80,127,1452674396
15,16,Jits_ISO_5,0,5,56,103,1453085196
15,16,Jits_ISO_5,1,5,63,98,1453135396
15,16,Jits_ISO_5,2,1,48,44,1453140312
15,16,Jits_ISO_5,3,5,80,127,1453154800
15,16,Jits_ISO_5,0,5,80,127,1453584868
15,16,Jits_ISO_5,1,1,48,45,1453615932
15,16,Jits_ISO_5,2,5,63,98,1453634912
15,16,Jits_ISO_5,3,5,56,103,1453675072
15,16,Jits_ISO_5,0,5,56,103,1454084320
15,16,Jits_ISO_5,1,5,63,98,1454115264
15,16,Jits_ISO_5,2,1,48,42,1454151116
15,16,Jits_ISO_5,3,5,80,127,1454184712
15,16,Jits_ISO_5,0,5,56,103,1454585184
15,16,Jits_ISO_5,1,1,48,37,1454613108
15,16,Jits_ISO_5,2,5,80,127,1454644592
15,16,Jits_ISO_5,3,5,63,98,1454675312
15,16,Jits_ISO_5,0,5,56,103,1455095344
15,16,Jits_ISO_5,1,5,63,98,1455105392
15,16,Jits_ISO_5,2,1,48,47,1455119820
15,16,Jits_ISO_5,3,5,80,127,1455145320
15,16,Jits_ISO_5,0,5,63,98,1455584728
15,16,Jits_ISO_5,1,1,48,53,1455624436
15,16,Jits_ISO_5,2,5,80,127,1455664540
15,16,Jits_ISO_5,3,5,56,103,1455674660
15,16,Jits_ISO_5,0,5,63,98,1456134532
15,16,Jits_ISO_5,1,1,48,43,1456144400
15,16,Jits_ISO_5,2,5,56,103,1456174536
15,16,Jits_ISO_5,3,5,80,127,1456177452
15,16,Jits_ISO_5,0,5,56,103,1456595276
15,16,Jits_ISO_5,1,5,63,98,1456604424
15,16,Jits_ISO_5,2,5,80,127,1456644460
15,16,Jits_ISO_5,3,1,48,42,1456660832
15,16,Jits_ISO_5,0,5,56,103,1457084752
15,16,Jits_ISO_5,1,5,63,98,1457087892
15,16,Jits_ISO_5,2,5,80,127,1457105360
15,16,Jits_ISO_5,3,1,48,43,1457148208
15,16,Jits_ISO_5,0,5,80,127,1457594672
15,16,Jits_ISO_5,1,5,56,103,1457605240
15,16,Jits_ISO_5,2,1,48,39,1457615932
15,16,Jits_ISO_5,3,5,63,98,1457674708
15,16,Jits_ISO_5,0,5,63,98,1458085204
15,16,Jits_ISO_5,1,1,48,39,1458100232
15,16,Jits_ISO_5,2,5,56,103,1458104684
15,16,Jits_ISO_5,3,5,80,127,1458184500
15,16,Jits_ISO_5,0,5,56,103,1458595124
15,16,Jits_ISO_5,1,1,48,34,1458615252
15,16,Jits_ISO_5,2,5,80,127,1458635204
15,16,Jits_ISO_5,3,5,63,98,1458645476
15,16,Jits_ISO_5,0,5,80,127,1459084832
15,16,Jits_ISO_5,1,1,48,33,1459109076
15,16,Jits_ISO_5,2,5,63,98,1459115324
15,16,Jits_ISO_5,3,5,56,103,1459155184
15,16,Jits_ISO_5,0,5,56,103,1459605028
15,16,Jits_ISO_5,1,1,48,38,1459621328
15,16,Jits_ISO_5,2,5,63,98,1459634472
15,16,Jits_ISO_5,3,5,80,127,1459684820
15,16,Jits_ISO_5,0,1,48,40,1460110656
15,16,Jits_ISO_5,1,5,80,127,1460115180
15,16,Jits_ISO_5,2,5,56,103,1460154972
15,16,Jits_ISO_5,3,5,63,98,1460165092
15,16,Jits_ISO_5,0,5,80,127,1460594996
15,16,Jits_ISO_5,1,5,63,98,1460634932
15,16,Jits_ISO_5,2,1,48,35,1460639924
15,16,Jits_ISO_5,3,5,56,103,1460695312
15,16,Jits_ISO_5,0,5,56,103,1461095040
15,16,Jits_ISO_5,1,5,80,127,1461105088
15,16,Jits_ISO_5,2,1,48,40,1461164476
15,16,Jits_ISO_5,3,5,63,98,1461184872
15,16,Jits_ISO_5,0,5,80,127,1461594416
15,16,Jits_ISO_5,1,1,48,36,1461644736
15,16,Jits_ISO_5,2,5,63,98,1461655096
15,16,Jits_ISO_5,3,5,56,103,1461684768
15,16,Jits_ISO_5,0,5,56,103,1462095284
15,16,Jits_ISO_5,1,1,48,35,1462124932
15,16,Jits_ISO_5,2,5,80,127,1462154696
15,16,Jits_ISO_5,3,5,63,98,1462194484
15,16,Jits_ISO_5,0,5,56,103,1462645228
15,16,Jits_ISO_5,1,5,63,98,1462655272
15,16,Jits_ISO_5,2,5,80,127,1462658636
15,16,Jits_ISO_5,3,1,48,37,1462661384
15,16,Jits_ISO_5,0,5,80,127,1463094772
15,16,Jits_ISO_5,1,1,48,42,1463166960
15,16,Jits_ISO_5,2,5,63,98,1463184896
15,16,Jits_ISO_5,3,5,56,103,1463195020
15,16,Jits_ISO_5,0,5,56,103,1463595404
15,16,Jits_ISO_5,1,5,63,98,1463598652
15,16,Jits_ISO_5,2,5,80,127,1463601696
15,16,Jits_ISO_5,3,1,48,29,1463684240
15,16,Jits_ISO_5,0,5,80,127,1464114624
15,16,Jits_ISO_5,1,1,48,40,1464159620
15,16,Jits_ISO_5,2,5,63,98,1464164892
15,16,Jits_ISO_5,3,5,56,103,1464194268
15,16,Jits_ISO_5,0,5,56,103,1464594748
15,16,Jits_ISO_5,1,5,80,127,1464605016
15,16,Jits_ISO_5,2,5,63,98,1464674620
15,16,Jits_ISO_5,3,1,48,29,1464702672
15,16,Jits_ISO_5,0,5,56,103,1465104900
15,16,Jits_ISO_5,1,5,63,98,1465125212
15,16,Jits_ISO_5,2,5,80,127,1465184776
15,16,Jits_ISO_5,3,1,48,38,1465187292
15,16,Jits_ISO_5,0,5,80,127,1465595136
15,16,Jits_ISO_5,1,1,48,34,1465657664
15,16,Jits_ISO_5,2,5,63,98,1465664884
15,16,Jits_ISO_5,3,5,56,103,1465685640
15,16,Jits_ISO_5,0,5,80,127,1466114592
15,16,Jits_ISO_5,1,5,56,103,1466124860
15,16,Jits_ISO_5,2,5,63,98,1466134980
15,16,Jits_ISO_5,3,1,48,27,1466190604
15,16,Jits_ISO_5,0,5,80,127,1466604896
15,16,Jits_ISO_5,1,5,56,103,1466625504
15,16,Jits_ISO_5,2,1,48,28,1466664140
15,16,Jits_ISO_5,3,5,63,98,1466695028
15,16,Jits_ISO_5,0,5,56,103,1467114808
15,16,Jits_ISO_5,1,5,80,127,1467144704
15,16,Jits_ISO_5,2,5,63,98,1467164940
15,16,Jits_ISO_5,3,1,48,36,1467177572
15,16,Jits_ISO_5,0,5,63,98,1467605536
15,16,Jits_ISO_5,1,5,56,103,1467664756
15,16,Jits_ISO_5,2,1,48,38,1467673804
15,16,Jits_ISO_5,3,5,80,127,1467694872
15,16,Jits_ISO_5,0,5,63,98,1468094788
15,16,Jits_ISO_5,1,5,80,127,1468098000
15,16,Jits_ISO_5,2,5,56,103,1468184936
15,16,Jits_ISO_5,3,1,48,41,1468203036
15,16,Jits_ISO_5,0,5,56,103,1468614956
15,16,Jits_ISO_5,1,5,63,98,1468644704
15,16,Jits_ISO_5,2,5,80,127,1468684664
15,16,Jits_ISO_5,3,1,48,33,1468714608
15,16,Jits_ISO_5,0,5,63,98,1469114852
15,16,Jits_ISO_5,1,5,56,103,1469154640
15,16,Jits_ISO_5,2,5,80,127,1469175124
15,16,Jits_ISO_5,3,1,48,46,1469193312
15,16,Jits_ISO_5,0,5,63,98,1469624700
15,16,Jits_ISO_5,1,5,56,103,1469664488
15,16,Jits_ISO_5,2,5,80,127,1469675008
15,16,Jits_ISO_5,3,1,48,40,1469685620
15,16,Jits_ISO_5,0,5,80,127,1470104880
15,16,Jits_ISO_5,1,1,48,40,1470165092
15,16,Jits_ISO_5,2,5,63,98,1470174556
15,16,Jits_ISO_5,3,5,56,103,1470195188
15,16,Jits_ISO_5,0,5,56,103,1470594292
15,16,Jits_ISO_5,1,5,80,127,1470614900
15,16,Jits_ISO_5,2,5,63,98,1470654764
15,16,Jits_ISO_5,3,1,48,41,1470672260
15,16,Jits_ISO_5,0,5,63,98,1471105424
15,16,Jits_ISO_5,1,5,80,127,1471124984
15,16,Jits_ISO_5,2,5,56,103,1471164696
15,16,Jits_ISO_5,3,1,48,46,1471173744
15,16,Jits_ISO_5,0,5,63,98,1471605084
15,16,Jits_ISO_5,1,5,56,103,1471624424
15,16,Jits_ISO_5,2,5,80,127,1471634916
15,16,Jits_ISO_5,3,1,48,42,1471647100
15,16,Jits_ISO_5,0,5,80,127,1472104816
15,16,Jits_ISO_5,1,5,56,103,1472125424
15,16,Jits_ISO_5,2,1,48,41,1472144280
15,16,Jits_ISO_5,3,5,63,98,1472155092
15,16,Jits_ISO_5,0,1,48,40,1472659136
15,16,Jits_ISO_5,1,5,56,103,1472675124
15,16,Jits_ISO_5,2,5,80,127,1472678264
15,16,Jits_ISO_5,3,5,63,98,1472694612
15,16,Jits_ISO_5,0,5,63,98,1473095220
15,16,Jits_ISO_5,1,5,56,103,1473124744
15,16,Jits_ISO_5,2,5,80,127,1473185356
15,16,Jits_ISO_5,3,1,48,26,1473194180
15,16,Jits_ISO_5,4,1,38,10,1473206064
15,16,Jits_ISO_5,0,1,48,39,1473665112
15,16,Jits_ISO_5,1,5,63,98,1473674576
15,16,Jits_ISO_5,2,5,56,103,1473684920
15,16,Jits_ISO_5,3,5,80,127,1473695192
15,16,Jits_ISO_5,0,5,56,103,1474125320
15,16,Jits_ISO_5,1,5,80,127,1474155072
15,16,Jits_ISO_5,2,5,63,98,1474165116
15,16,Jits_ISO_5,0,1,48,43,1474661280
15,16,Jits_ISO_5,1,5,63,98,1474664912
15,16,Jits_ISO_5,2,5,56,103,1474675332
15,16,Jits_ISO_5,3,5,80,127,1474694448
15,16,Jits_ISO_5,0,5,56,103,1475094980
15,16,Jits_ISO_5,1,1,48,50,1475137952
15,16,Jits_ISO_5,2,5,63,98,1475155360
15,16,Jits_ISO_5,3,5,80,127,1475158572
15,16,Jits_ISO_5,0,5,80,127,1475615244
15,16,Jits_ISO_5,1,1,48,43,1475621724
15,16,Jits_ISO_5,2,5,56,103,1475625432
15,16,Jits_ISO_5,3,5,63,98,1475694812
15,16,Jits_ISO_5,0,5,80,127,1476104500
15,16,Jits_ISO_5,1,5,56,103,1476175152
15,16,Jits_ISO_5,2,1,48,39,1476182008
15,16,Jits_ISO_5,3,5,63,98,1476184368
15,16,Jits_ISO_5,0,5,63,98,1476645524
15,16,Jits_ISO_5,1,5,56,103,1476654380
15,16,Jits_ISO_5,2,5,80,127,1476675136
15,16,Jits_ISO_5,3,1,48,46,1476690988
15,16,Jits_ISO_5,0,5,80,127,1477094744
15,16,Jits_ISO_5,1,5,63,98,1477155160
15,16,Jits_ISO_5,2,1,48,38,1477164352
15,16,Jits_ISO_5,3,5,56,103,1477195388
15,16,Jits_ISO_5,0,5,56,103,1477634304
15,16,Jits_ISO_5,1,5,63,98,1477644796
15,16,Jits_ISO_5,2,1,48,47,1477659000
15,16,Jits_ISO_5,3,5,80,127,1477684576
15,16,Jits_ISO_5,0,5,56,103,1478095364
15,16,Jits_ISO_5,1,5,80,127,1478125212
15,16,Jits_ISO_5,2,1,48,48,1478160844
15,16,Jits_ISO_5,3,5,63,98,1478175328
15,16,Jits_ISO_5,0,5,56,103,1478634992
15,16,Jits_ISO_5,1,1,48,45,1478646208
15,16,Jits_ISO_5,2,5,63,98,1478674924
15,16,Jits_ISO_5,3,5,80,127,1478678064
15,16,Jits_ISO_5,0,5,56,103,1479134488
15,16,Jits_ISO_5,1,5,63,98,1479144760
15,16,Jits_ISO_5,2,1,48,46,1479164788
15,16,Jits_ISO_5,3,5,80,127,1479166504
15,16,Jits_ISO_5,0,5,56,103,1479595264
15,16,Jits_ISO_5,1,5,80,127,1479598408
15,16,Jits_ISO_5,2,5,63,98,1479635204
15,16,Jits_ISO_5,3,1,48,48,1479666744
15,16,Jits_ISO_5,0,5,63,98,1480135160
15,16,Jits_ISO_5,1,1,48,43,1480163860
15,16,Jits_ISO_5,2,5,56,103,1480165504
15,16,Jits_ISO_5,3,5,80,127,1480185088
15,16,Jits_ISO_5,0,5,80,127,1480605152
15,16,Jits_ISO_5,1,5,56,103,1480615348
15,16,Jits_ISO_5,2,5,63,98,1480624424
15,16,Jits_ISO_5,3,1,48,48,1480652700
15,16,Jits_ISO_5,0,5,56,103,1481104896
15,16,Jits_ISO_5,1,1,48,47,1481138580
15,16,Jits_ISO_5,2,5,80,127,1481144680
15,16,Jits_ISO_5,3,5,63,98,1481175324
15,16,Jits_ISO_5,0,5,63,98,1481614908
15,16,Jits_ISO_5,1,5,80,127,1481625028
15,16,Jits_ISO_5,2,5,56,103,1481635148
15,16,Jits_ISO_5,3,1,48,47,1481664792
15,16,Jits_ISO_5,0,5,56,103,1482095008
15,16,Jits_ISO_5,1,1,48,45,1482148096
15,16,Jits_ISO_5,2,5,63,98,1482164532
15,16,Jits_ISO_5,3,5,80,127,1482174800
15,16,Jits_ISO_5,0,5,80,127,1482594904
15,16,Jits_ISO_5,1,5,56,103,1482605248
15,16,Jits_ISO_5,2,1,48,47,1482652952
15,16,Jits_ISO_5,3,5,63,98,1482654992
15,16,Jits_ISO_5,0,5,80,127,1483104836
15,16,Jits_ISO_5,1,1,48,45,1483147060
15,16,Jits_ISO_5,2,5,56,103,1483164996
15,16,Jits_ISO_5,3,5,63,98,1483194892
15,16,Jits_ISO_5,0,5,56,103,1483605480
15,16,Jits_ISO_5,1,5,80,127,1483608696
15,16,Jits_ISO_5,2,5,63,98,1483645416
15,16,Jits_ISO_5,3,1,48,48,1483668688
15,16,Jits_ISO_5,0,5,56,103,1484134960
15,16,Jits_ISO_5,1,1,48,48,1484148640
15,16,Jits_ISO_5,2,5,63,98,1484164404
15,16,Jits_ISO_5,3,5,80,127,1484174896
15,16,Jits_ISO_5,0,1,48,44,1484626660
15,16,Jits_ISO_5,1,5,63,98,1484644820
15,16,Jits_ISO_5,2,5,80,127,1484654864
15,16,Jits_ISO_5,3,5,56,103,1484665136
15,16,Jits_ISO_5,0,5,80,127,1485095408
15,16,Jits_ISO_5,1,1,48,44,1485134496
15,16,Jits_ISO_5,2,5,56,103,1485144408
15,16,Jits_ISO_5,3,5,63,98,1485147472
15,16,Jits_ISO_5,0,1,48,47,1485613024
15,16,Jits_ISO_5,1,5,56,103,1485624808
15,16,Jits_ISO_5,2,5,80,127,1485645044
15,16,Jits_ISO_5,3,5,63,98,1485655312
15,16,Jits_ISO_5,0,1,48,43,1486096868
15,16,Jits_ISO_5,1,5,63,98,1486104912
15,16,Jits_ISO_5,2,5,56,103,1486134808
15,16,Jits_ISO_5,3,5,80,127,1486154968
15,16,Jits_ISO_5,0,1,48,45,1486612716
15,16,Jits_ISO_5,1,5,56,103,1486614828
15,16,Jits_ISO_5,2,5,80,127,1486625024
15,16,Jits_ISO_5,3,5,63,98,1486694852
15,16,Jits_ISO_5,0,5,63,98,1487105648
15,16,Jits_ISO_5,1,5,80,127,1487145288
15,16,Jits_ISO_5,2,1,48,43,1487158068
15,16,Jits_ISO_5,3,5,56,103,1487185292
15,16,Jits_ISO_5,0,5,56,103,1487615200
15,16,Jits_ISO_5,1,5,63,98,1487624720
15,16,Jits_ISO_5,2,1,48,42,1487636456
15,16,Jits_ISO_5,3,5,80,127,1487645024
15,16,Jits_ISO_5,0,1,48,43,1488079896
15,16,Jits_ISO_5,1,5,63,98,1488154948
15,16,Jits_ISO_5,2,5,80,127,1488174568
15,16,Jits_ISO_5,3,5,56,103,1488194876
15,16,Jits_ISO_5,0,5,56,103,1488595180
15,16,Jits_ISO_5,1,1,48,42,1488603624
15,16,Jits_ISO_5,2,5,80,127,1488675140
15,16,Jits_ISO_5,3,5,63,98,1488685708
15,16,Jits_ISO_5,0,5,80,127,1489134884
15,16,Jits_ISO_5,1,5,63,98,1489145156
15,16,Jits_ISO_5,2,1,48,46,1489151788
15,16,Jits_ISO_5,3,5,56,103,1489174824
15,16,Jits_ISO_5,0,5,63,98,1489594676
15,16,Jits_ISO_5,1,5,80,127,1489634616
15,16,Jits_ISO_5,2,1,48,40,1489636024
15,16,Jits_ISO_5,3,5,56,103,1489695020
15,16,Jits_ISO_5,0,5,63,98,1490104816
15,16,Jits_ISO_5,1,1,48,29,1490137304
15,16,Jits_ISO_5,2,5,56,103,1490154960
15,16,Jits_ISO_5,3,5,80,127,1490184932
15,16,Jits_ISO_5,0,5,80,127,1490614588
15,16,Jits_ISO_5,1,5,63,98,1490624860
15,16,Jits_ISO_5,2,1,48,39,1490650376
15,16,Jits_ISO_5,3,5,56,103,1490694480
15,16,Jits_ISO_5,0,1,48,43,1491139320
15,16,Jits_ISO_5,1,5,80,127,1491185080
15,16,Jits_ISO_5,2,5,56,103,1491195652
15,16,Jits_ISO_5,3,5,63,98,1491198488
15,16,Jits_ISO_5,0,5,56,103,1491625452
15,16,Jits_ISO_5,1,5,80,127,1491644716
15,16,Jits_ISO_5,2,5,63,98,1491655060
15,16,Jits_ISO_5,3,1,48,42,1491660792
15,16,Jits_ISO_5,0,5,63,98,1492135460
15,16,Jits_ISO_5,1,1,48,47,1492151836
15,16,Jits_ISO_5,2,5,56,103,1492175096
15,16,Jits_ISO_5,3,5,80,127,1492194656
15,16,Jits_ISO_5,0,5,63,98,1492635052
15,16,Jits_ISO_5,1,1,48,28,1492650748
15,16,Jits_ISO_5,2,5,56,103,1492695360
15,16,Jits_ISO_5,3,5,80,127,1492698424
15,16,Jits_ISO_5,0,5,56,103,1493094624
15,16,Jits_ISO_5,1,5,80,127,1493115452
15,16,Jits_ISO_5,2,1,48,44,1493149584
15,16,Jits_ISO_5,3,5,63,98,1493155384
15,16,Jits_ISO_5,0,5,56,103,1493625308
15,16,Jits_ISO_5,1,5,63,98,1493644644
15,16,Jits_ISO_5,2,5,80,127,1493654840
15,16,Jits_ISO_5,3,1,48,41,1493665748
15,16,Jits_ISO_5,0,5,80,127,1494095460
15,16,Jits_ISO_5,1,5,56,103,1494124764
15,16,Jits_ISO_5,2,1,48,51,1494128928
15,16,Jits_ISO_5,3,5,63,98,1494164840
15,16,Jits_ISO_5,0,5,80,127,1494605096
15,16,Jits_ISO_5,1,1,48,55,1494616684
15,16,Jits_ISO_5,2,5,56,103,1494624576
15,16,Jits_ISO_5,3,5,63,98,1494685260
15,16,Jits_ISO_5,0,5,56,103,1495115332
15,16,Jits_ISO_5,1,5,80,127,1495134520
15,16,Jits_ISO_5,2,1,48,52,1495185360
15,16,Jits_ISO_5,3,5,63,98,1495195048
15,16,Jits_ISO_5,0,5,80,127,1495595600
15,16,Jits_ISO_5,1,5,56,103,1495604528
15,16,Jits_ISO_5,2,5,63,98,1495644388
15,16,Jits_ISO_5,3,1,48,45,1495723400
15,16,Jits_ISO_5,0,5,63,98,1496095120
15,16,Jits_ISO_5,1,5,56,103,1496134900
15,16,Jits_ISO_5,2,5,80,127,1496138268
15,16,Jits_ISO_5,3,1,48,46,1496162368
15,16,Jits_ISO_5,0,5,63,98,1496615440
15,16,Jits_ISO_5,1,1,48,43,1496651740
15,16,Jits_ISO_5,2,5,80,127,1496655300
15,16,Jits_ISO_5,3,5,56,103,1496685044
15,16,Jits_ISO_5,0,5,56,103,1497104688
15,16,Jits_ISO_5,1,5,63,98,1497114960
15,16,Jits_ISO_5,2,5,80,127,1497144560
15,16,Jits_ISO_5,3,1,48,54,1497173600
15,16,Jits_ISO_5,0,5,80,127,1497595288
15,16,Jits_ISO_5,1,1,48,48,1497638940
15,16,Jits_ISO_5,2,5,63,98,1497665036
15,16,Jits_ISO_5,3,5,56,103,1497675232
15,16,Jits_ISO_5,0,5,63,98,1498095112
15,16,Jits_ISO_5,1,1,48,45,1498152240
15,16,Jits_ISO_5,2,5,56,103,1498164636
15,16,Jits_ISO_5,3,5,80,127,1498175276
15,16,Jits_ISO_5,0,5,63,98,1498594600
15,16,Jits_ISO_5,1,5,56,103,1498615084
15,16,Jits_ISO_5,2,1,48,48,1498628684
15,16,Jits_ISO_5,3,5,80,127,1498655160
15,16,Jits_ISO_5,0,1,48,38,1499101028
15,16,Jits_ISO_5,1,5,56,103,1499104736
15,16,Jits_ISO_5,2,5,63,98,1499115176
15,16,Jits_ISO_5,3,5,80,127,1499195556
15,16,Jits_ISO_5,0,5,63,98,1499595260
15,16,Jits_ISO_5,1,1,48,47,1499603704
15,16,Jits_ISO_5,2,5,56,103,1499624804
15,16,Jits_ISO_5,3,5,80,127,1499664740
15,16,Jits_ISO_5,0,5,56,103,1500094768
15,16,Jits_ISO_5,1,5,63,98,1500134632
15,16,Jits_ISO_5,2,1,48,51,1500156128
15,16,Jits_ISO_5,3,5,80,127,1500174656
15,16,Jits_ISO_5,0,5,80,127,1500594440
15,16,Jits_ISO_5,1,5,56,103,1500674408
15,16,Jits_ISO_5,2,1,48,43,1500683164
15,16,Jits_ISO_5,3,5,63,98,1500685192
15,16,Jits_ISO_5,0,5,56,103,1501135164
15,16,Jits_ISO_5,1,5,63,98,1501138160
15,16,Jits_ISO_5,2,5,80,127,1501144540
15,16,Jits_ISO_5,3,1,48,52,1501172320
15,16,Jits_ISO_5,0,5,56,103,1501655436
15,16,Jits_ISO_5,1,1,48,40,1501658552
15,16,Jits_ISO_5,2,5,63,98,1501674788
15,16,Jits_ISO_5,3,5,80,127,1501685208
15,16,Jits_ISO_5,0,5,63,98,1502115108
15,16,Jits_ISO_5,1,5,80,127,1502125304
15,16,Jits_ISO_5,2,5,56,103,1502144936
15,16,Jits_ISO_5,3,1,48,49,1502194456
15,16,Jits_ISO_5,0,5,63,98,1502615136
15,16,Jits_ISO_5,1,1,48,47,1502662844
15,16,Jits_ISO_5,2,5,56,103,1502694700
15,16,Jits_ISO_5,3,5,80,127,1502697788
15,16,Jits_ISO_5,0,5,63,98,1503114568
15,16,Jits_ISO_5,1,5,56,103,1503135176
15,16,Jits_ISO_5,2,1,48,35,1503140088
15,16,Jits_ISO_5,3,5,80,127,1503164988
15,16,Jits_ISO_5,0,5,56,103,1503615276
15,16,Jits_ISO_5,1,5,63,98,1503634984
15,16,Jits_ISO_5,2,1,48,37,1503645328
15,16,Jits_ISO_5,3,5,80,127,1503646820
15,16,Jits_ISO_5,0,1,48,38,1504111160
15,16,Jits_ISO_5,1,5,56,103,1504145132
15,16,Jits_ISO_5,2,5,63,98,1504174432
15,16,Jits_ISO_5,3,5,80,127,1504178020
15,16,Jits_ISO_5,0,5,56,103,1504595272
15,16,Jits_ISO_5,1,1,48,39,1504616820
15,16,Jits_ISO_5,2,5,63,98,1504635128
15,16,Jits_ISO_5,3,5,80,127,1504694844
15,16,Jits_ISO_5,0,5,56,103,1505114352
15,16,Jits_ISO_5,1,5,63,98,1505124992
15,16,Jits_ISO_5,2,1,48,44,1505163928
15,16,Jits_ISO_5,3,5,80,127,1505185076
15,16,Jits_ISO_5,0,5,56,103,1505615296
15,16,Jits_ISO_5,1,5,80,127,1505634784
15,16,Jits_ISO_5,2,5,63,98,1505665280
15,16,Jits_ISO_5,3,1,48,44,1505668252
15,16,Jits_ISO_5,0,5,80,127,1506114972
15,16,Jits_ISO_5,1,5,56,103,1506125240
15,16,Jits_ISO_5,2,5,63,98,1506144576
15,16,Jits_ISO_5,3,1,48,42,1506165524
15,16,Jits_ISO_5,0,5,63,98,1506605352
15,16,Jits_ISO_5,1,1,48,44,1506656272
15,16,Jits_ISO_5,2,5,80,127,1506685284
15,16,Jits_ISO_5,3,5,56,103,1506694436
15,16,Jits_ISO_5,0,5,80,127,1507164648
15,16,Jits_ISO_5,1,1,48,46,1507171956
15,16,Jits_ISO_5,2,5,56,103,1507185096
15,16,Jits_ISO_5,3,5,63,98,1507188088
15,16,Jits_ISO_5,0,5,63,98,1507634796
15,16,Jits_ISO_5,1,5,80,127,1507638012
15,16,Jits_ISO_5,2,1,48,43,1507666756
15,16,Jits_ISO_5,3,5,56,103,1507695028
15,16,Jits_ISO_5,0,5,56,103,1508114748
15,16,Jits_ISO_5,1,5,80,127,1508125164
15,16,Jits_ISO_5,2,5,63,98,1508164952
15,16,Jits_ISO_5,3,1,48,37,1508181848
15,16,Jits_ISO_5,0,5,56,103,1508595164
15,16,Jits_ISO_5,1,1,48,47,1508648696
15,16,Jits_ISO_5,2,5,63,98,1508654424
15,16,Jits_ISO_5,3,5,80,127,1508664696
15,16,Jits_ISO_5,0,5,63,98,1509104952
15,16,Jits_ISO_5,1,1,48,43,1509138784
15,16,Jits_ISO_5,2,5,80,127,1509144884
15,16,Jits_ISO_5,3,5,56,103,1509184820
15,16,Jits_ISO_5,0,5,56,103,1509604812
15,16,Jits_ISO_5,1,1,48,36,1509628184
15,16,Jits_ISO_5,2,5,63,98,1509684696
15,16,Jits_ISO_5,3,5,80,127,1509687912
15,16,Jits_ISO_5,0,9999,9999,9999,9999,1450382408
15,16,Jits_ISO_5,1,9999,9999,9999,9999,1450882128
15,16,Jits_ISO_5,2,9999,9999,9999,9999,1451382840
15,16,Jits_ISO_5,3,9999,9999,9999,9999,1451882576
15,16,Jits_ISO_5,4,9999,9999,9999,9999,1452382284
15,16,Jits_ISO_5,5,9999,9999,9999,9999,1452883064
15,16,Jits_ISO_5,6,9999,9999,9999,9999,1453382724
15,16,Jits_ISO_5,7,9999,9999,9999,9999,1453882476
15,16,Jits_ISO_5,8,9999,9999,9999,9999,1454382148
15,16,Jits_ISO_5,9,9999,9999,9999,9999,1454882940
15,16,Jits_ISO_5,10,9999,9999,9999,9999,1455382608
15,16,Jits_ISO_5,11,9999,9999,9999,9999,1455882356
15,16,Jits_ISO_5,12,9999,9999,9999,9999,1456383056
15,16,Jits_ISO_5,13,9999,9999,9999,9999,1456882788
15,16,Jits_ISO_5,14,9999,9999,9999,9999,1457382496
15,16,Jits_ISO_5,15,9999,9999,9999,9999,1457882232
15,16,Jits_ISO_5,16,9999,9999,9999,9999,1458382956
15,16,Jits_ISO_5,17,9999,9999,9999,9999,1458882616
15,16,Jits_ISO_5,18,9999,9999,9999,9999,1459382360
15,16,Jits_ISO_5,19,9999,9999,9999,9999,1459883080
15,16,Jits_ISO_5,20,9999,9999,9999,9999,1460393016
15,16,Jits_ISO_5,21,9999,9999,9999,9999,1460892748
15,16,Jits_ISO_5,22,9999,9999,9999,9999,1461392496
15,16,Jits_ISO_5,23,9999,9999,9999,9999,1461892168
15,16,Jits_ISO_5,24,9999,9999,9999,9999,1462392888
15,16,Jits_ISO_5,25,9999,9999,9999,9999,1462892628
15,16,Jits_ISO_5,26,9999,9999,9999,9999,1463392380
15,16,Jits_ISO_5,27,9999,9999,9999,9999,1463893076
15,16,Jits_ISO_5,28,9999,9999,9999,9999,1464392824
15,16,Jits_ISO_5,29,9999,9999,9999,9999,1464892496
15,16,Jits_ISO_5,30,9999,9999,9999,9999,1465392244
15,16,Jits_ISO_5,31,9999,9999,9999,9999,1465892964
15,16,Jits_ISO_5,32,9999,9999,9999,9999,1466392636
15,16,Jits_ISO_5,33,9999,9999,9999,9999,1466892388
15,16,Jits_ISO_5,34,9999,9999,9999,9999,1467392108
15,16,Jits_ISO_5,35,9999,9999,9999,9999,1467892832
15,16,Jits_ISO_5,36,9999,9999,9999,9999,1468392532
15,16,Jits_ISO_5,37,9999,9999,9999,9999,1468892256
15,16,Jits_ISO_5,38,9999,9999,9999,9999,1469392976
15,16,Jits_ISO_5,39,9999,9999,9999,9999,1469892712
15,16,Jits_ISO_5,40,9999,9999,9999,9999,1470392372
15,16,Jits_ISO_5,41,9999,9999,9999,9999,1470892120
15,16,Jits_ISO_5,42,9999,9999,9999,9999,1471392840
15,16,Jits_ISO_5,43,9999,9999,9999,9999,1471892572
15,16,Jits_ISO_5,44,9999,9999,9999,9999,1472392308
15,16,Jits_ISO_5,45,9999,9999,9999,9999,1472893020
15,16,Jits_ISO_5,46,9999,9999,9999,9999,1473392700
15,16,Jits_ISO_5,47,9999,9999,9999,9999,1473892404
15,16,Jits_ISO_5,48,9999,9999,9999,9999,1474392160
15,16,Jits_ISO_5,49,9999,9999,9999,9999,1474892852
15,16,Jits_ISO_5,50,9999,9999,9999,9999,1475392572
15,16,Jits_ISO_5,51,9999,9999,9999,9999,1475892320
15,16,Jits_ISO_5,52,9999,9999,9999,9999,1476393040
15,16,Jits_ISO_5,53,9999,9999,9999,9999,1476892792
15,16,Jits_ISO_5,54,9999,9999,9999,9999,1477392452
15,16,Jits_ISO_5,55,9999,9999,9999,9999,1477892200
15,16,Jits_ISO_5,56,9999,9999,9999,9999,1478392920
15,16,Jits_ISO_5,57,9999,9999,9999,9999,1478892660
15,16,Jits_ISO_5,58,9999,9999,9999,9999,1479392312
15,16,Jits_ISO_5,59,9999,9999,9999,9999,1479893084
15,16,Jits_ISO_5,60,9999,9999,9999,9999,1480392764
15,16,Jits_ISO_5,61,9999,9999,9999,9999,1480892492
15,16,Jits_ISO_5,62,9999,9999,9999,9999,1481392236
15,16,Jits_ISO_5,63,9999,9999,9999,9999,1481892952
15,16,Jits_ISO_5,64,9999,9999,9999,9999,1482392688
15,16,Jits_ISO_5,65,9999,9999,9999,9999,1482892356
15,16,Jits_ISO_5,66,9999,9999,9999,9999,1483392104
15,16,Jits_ISO_5,67,9999,9999,9999,9999,1483892812
15,16,Jits_ISO_5,68,9999,9999,9999,9999,1484392560
15,16,Jits_ISO_5,69,9999,9999,9999,9999,1484892236
15,16,Jits_ISO_5,70,9999,9999,9999,9999,1485393004
15,16,Jits_ISO_5,71,9999,9999,9999,9999,1485892676
15,16,Jits_ISO_5,72,9999,9999,9999,9999,1486392408
15,16,Jits_ISO_5,73,9999,9999,9999,9999,1486892136
15,16,Jits_ISO_5,74,9999,9999,9999,9999,1487392844
15,16,Jits_ISO_5,75,9999,9999,9999,9999,1487892572
15,16,Jits_ISO_5,76,9999,9999,9999,9999,1488392256
15,16,Jits_ISO_5,77,9999,9999,9999,9999,1488893032
15,16,Jits_ISO_5,78,9999,9999,9999,9999,1489392708
15,16,Jits_ISO_5,79,9999,9999,9999,9999,1489892428
15,16,Jits_ISO_5,80,9999,9999,9999,9999,1490392160
15,16,Jits_ISO_5,81,9999,9999,9999,9999,1490892864
15,16,Jits_ISO_5,82,9999,9999,9999,9999,1491392608
15,16,Jits_ISO_5,83,9999,9999,9999,9999,1491892340
15,16,Jits_ISO_5,84,9999,9999,9999,9999,1492393064
15,16,Jits_ISO_5,85,9999,9999,9999,9999,1492892792
15,16,Jits_ISO_5,86,9999,9999,9999,9999,1493392448
15,16,Jits_ISO_5,87,9999,9999,9999,9999,1493892196
15,16,Jits_ISO_5,88,9999,9999,9999,9999,1494392912
15,16,Jits_ISO_5,89,9999,9999,9999,9999,1494892664
15,16,Jits_ISO_5,90,9999,9999,9999,9999,1495392336
15,16,Jits_ISO_5,91,9999,9999,9999,9999,1495893052
15,16,Jits_ISO_5,92,9999,9999,9999,9999,1496392788
15,16,Jits_ISO_5,93,9999,9999,9999,9999,1496892520
15,16,Jits_ISO_5,94,9999,9999,9999,9999,1497392252
15,16,Jits_ISO_5,95,9999,9999,9999,9999,1497892968
15,16,Jits_ISO_5,96,9999,9999,9999,9999,1498392644
15,16,Jits_ISO_5,97,9999,9999,9999,9999,1498892376
15,16,Jits_ISO_5,98,9999,9999,9999,9999,1499392108
15,16,Jits_ISO_5,99,9999,9999,9999,9999,1499892812
15,16,Jits_ISO_5,100,9999,9999,9999,9999,1500392544
15,16,Jits_ISO_5,101,9999,9999,9999,9999,1500892268
15,16,Jits_ISO_5,102,9999,9999,9999,9999,1501392980
15,16,Jits_ISO_5,103,9999,9999,9999,9999,1501892660
15,16,Jits_ISO_5,104,9999,9999,9999,9999,1502392404
15,16,Jits_ISO_5,105,9999,9999,9999,9999,1502892132
15,16,Jits_ISO_5,106,9999,9999,9999,9999,1503392840
15,16,Jits_ISO_5,107,9999,9999,9999,9999,1503892576
15,16,Jits_ISO_5,108,9999,9999,9999,9999,1504392244
15,16,Jits_ISO_5,109,9999,9999,9999,9999,1504893024
15,16,Jits_ISO_5,110,9999,9999,9999,9999,1505392700
15,16,Jits_ISO_5,111,9999,9999,9999,9999,1505892448
15,16,Jits_ISO_5,112,9999,9999,9999,9999,1506392120
15,16,Jits_ISO_5,113,9999,9999,9999,9999,1506892916
15,16,Jits_ISO_5,114,9999,9999,9999,9999,1507392572
15,16,Jits_ISO_5,115,9999,9999,9999,9999,1507892312
15,16,Jits_ISO_5,116,9999,9999,9999,9999,1508393020
15,16,Jits_ISO_5,117,9999,9999,9999,9999,1508892768
15,16,Jits_ISO_5,118,9999,9999,9999,9999,1509392444
15,16,Jits_ISO_5,119,9999,9999,9999,9999,1509892172
16,7,Jits_ISO_8,0,5,56,103,1522911648
16,7,Jits_ISO_8,1,5,63,98,1522914668
16,7,Jits_ISO_8,2,5,80,127,1522918088
16,7,Jits_ISO_8,0,5,56,103,1523712320
16,7,Jits_ISO_8,1,5,63,98,1523715416
16,7,Jits_ISO_8,2,5,80,127,1523718540
16,7,Jits_ISO_8,0,5,80,127,1524451772
16,7,Jits_ISO_8,1,5,63,98,1524541932
16,7,Jits_ISO_8,2,5,56,103,1524551980
16,7,Jits_ISO_8,0,5,56,103,1525272192
16,7,Jits_ISO_8,1,5,63,98,1525282092
16,7,Jits_ISO_8,2,5,80,127,1525372224
16,7,Jits_ISO_8,0,1,48,57,1526024000
16,7,Jits_ISO_8,1,5,63,98,1526041936
16,7,Jits_ISO_8,2,5,80,127,1526071760
16,7,Jits_ISO_8,3,5,56,103,1526102336
16,7,Jits_ISO_8,0,1,48,53,1526827220
16,7,Jits_ISO_8,1,5,56,103,1526842008
16,7,Jits_ISO_8,2,5,80,127,1526941948
16,7,Jits_ISO_8,3,5,63,98,1526992224
16,7,Jits_ISO_8,0,5,56,103,1527641356
16,7,Jits_ISO_8,1,5,80,127,1527691712
16,7,Jits_ISO_8,2,1,48,46,1527719836
16,7,Jits_ISO_8,3,5,63,98,1527731716
16,7,Jits_ISO_8,0,5,80,127,1528471948
16,7,Jits_ISO_8,1,5,63,98,1528501772
16,7,Jits_ISO_8,2,1,48,47,1528505864
16,7,Jits_ISO_8,3,5,56,103,1528572144
16,7,Jits_ISO_8,0,5,63,98,1529302240
16,7,Jits_ISO_8,1,1,48,41,1529325984
16,7,Jits_ISO_8,2,5,56,103,1529332156
16,7,Jits_ISO_8,3,5,80,127,1529391500
16,7,Jits_ISO_8,0,5,56,103,1530041944
16,7,Jits_ISO_8,1,5,80,127,1530044856
16,7,Jits_ISO_8,2,1,48,41,1530118940
16,7,Jits_ISO_8,3,5,63,98,1530161608
16,7,Jits_ISO_8,0,1,48,39,1530919924
16,7,Jits_ISO_8,1,5,56,103,1530922364
16,7,Jits_ISO_8,2,5,80,127,1530962156
16,7,Jits_ISO_8,3,5,63,98,1530971452
16,7,Jits_ISO_8,0,5,56,103,1531682152
16,7,Jits_ISO_8,1,5,80,127,1531701640
16,7,Jits_ISO_8,2,1,48,19,1531757572
16,7,Jits_ISO_8,3,5,63,98,1531781356
16,7,Jits_ISO_8,0,5,80,127,1532471692
16,7,Jits_ISO_8,1,1,48,39,1532554528
16,7,Jits_ISO_8,2,5,56,103,1532571936
16,7,Jits_ISO_8,3,5,63,98,1532582208
16,7,Jits_ISO_8,0,5,63,98,1533241680
16,7,Jits_ISO_8,1,5,80,127,1533302072
16,7,Jits_ISO_8,2,5,56,103,1533312268
16,7,Jits_ISO_8,3,1,48,26,1533384680
16,7,Jits_ISO_8,0,5,56,103,1534041532
16,7,Jits_ISO_8,1,5,63,98,1534111960
16,7,Jits_ISO_8,2,5,80,127,1534115256
16,7,Jits_ISO_8,3,1,48,37,1534172176
16,7,Jits_ISO_8,0,5,63,98,1534871964
16,7,Jits_ISO_8,1,1,48,43,1534891572
16,7,Jits_ISO_8,2,5,56,103,1534922236
16,7,Jits_ISO_8,3,5,80,127,1534925300
16,7,Jits_ISO_8,0,5,56,103,1535631804
16,7,Jits_ISO_8,1,5,80,127,1535634796
16,7,Jits_ISO_8,2,1,48,40,1535659800
16,7,Jits_ISO_8,3,5,63,98,1535721804
16,7,Jits_ISO_8,0,5,63,98,1536472648
16,7,Jits_ISO_8,1,1,48,46,1536482368
16,7,Jits_ISO_8,2,5,56,103,1536561532
16,7,Jits_ISO_8,3,5,80,127,1536592388
16,7,Jits_ISO_8,0,5,56,103,1537262048
16,7,Jits_ISO_8,1,1,48,46,1537314240
16,7,Jits_ISO_8,2,5,63,98,1537362512
16,7,Jits_ISO_8,3,5,80,127,1537392040
16,7,Jits_ISO_8,0,5,63,98,1538082376
16,7,Jits_ISO_8,1,5,56,103,1538092496
16,7,Jits_ISO_8,2,1,48,42,1538165140
16,7,Jits_ISO_8,3,5,80,127,1538181576
16,7,Jits_ISO_8,0,1,48,32,1538902244
16,7,Jits_ISO_8,1,5,63,98,1538903728
16,7,Jits_ISO_8,2,1,38,9,1538917784
16,7,Jits_ISO_8,3,5,56,103,1538982472
16,7,Jits_ISO_8,4,5,80,127,1538985612
16,7,Jits_ISO_8,0,5,80,127,1539662288
16,7,Jits_ISO_8,1,5,63,98,1539681624
16,7,Jits_ISO_8,2,1,48,29,1539736432
16,7,Jits_ISO_8,3,5,56,103,1539742008
16,7,Jits_ISO_8,0,1,48,31,1540495612
16,7,Jits_ISO_8,1,5,56,103,1540502012
16,7,Jits_ISO_8,2,5,63,98,1540522396
16,7,Jits_ISO_8,3,5,80,127,1540525756
16,7,Jits_ISO_8,0,5,63,98,1541242300
16,7,Jits_ISO_8,1,1,48,40,1541276284
16,7,Jits_ISO_8,2,5,80,127,1541322244
16,7,Jits_ISO_8,3,5,56,103,1541332288
16,7,Jits_ISO_8,0,5,63,98,1542061416
16,7,Jits_ISO_8,1,5,56,103,1542081948
16,7,Jits_ISO_8,2,1,48,42,1542090996
16,7,Jits_ISO_8,3,5,80,127,1542132316
16,7,Jits_ISO_8,0,5,80,127,1542862168
16,7,Jits_ISO_8,1,1,48,35,1542878016
16,7,Jits_ISO_8,2,5,63,98,1542902200
16,7,Jits_ISO_8,3,5,56,103,1542921464
16,7,Jits_ISO_8,0,1,48,33,1543682784
16,7,Jits_ISO_8,1,5,56,103,1543701916
16,7,Jits_ISO_8,2,5,63,98,1543712412
16,7,Jits_ISO_8,3,5,80,127,1543731524
16,7,Jits_ISO_8,0,5,56,103,1544432100
16,7,Jits_ISO_8,1,1,48,40,1544497696
16,7,Jits_ISO_8,2,5,63,98,1544522080
16,7,Jits_ISO_8,3,5,80,127,1544581500
16,7,Jits_ISO_8,0,5,80,127,1545261568
16,7,Jits_ISO_8,1,5,56,103,1545271616
16,7,Jits_ISO_8,2,1,48,30,1545328144
16,7,Jits_ISO_8,3,5,63,98,1545342260
16,7,Jits_ISO_8,0,5,63,98,1546092008
16,7,Jits_ISO_8,1,1,48,30,1546096024
16,7,Jits_ISO_8,2,5,80,127,1546182212
16,7,Jits_ISO_8,3,5,56,103,1546192392
16,7,Jits_ISO_8,0,5,63,98,1546832308
16,7,Jits_ISO_8,1,5,80,127,1546882512
16,7,Jits_ISO_8,2,5,56,103,1546941856
16,7,Jits_ISO_8,3,1,48,50,1547012048
16,7,Jits_ISO_8,0,5,56,103,1547661612
16,7,Jits_ISO_8,1,5,80,127,1547712112
16,7,Jits_ISO_8,2,5,63,98,1547732272
16,7,Jits_ISO_8,3,1,48,44,1547745504
16,7,Jits_ISO_8,0,5,56,103,1548431960
16,7,Jits_ISO_8,1,5,80,127,1548492204
16,7,Jits_ISO_8,2,1,48,39,1548546216
16,7,Jits_ISO_8,3,5,63,98,1548561904
16,7,Jits_ISO_8,0,5,56,103,1549231460
16,7,Jits_ISO_8,1,5,80,127,1549262256
16,7,Jits_ISO_8,2,5,63,98,1549291960
16,7,Jits_ISO_8,3,1,48,28,1549303768
16,7,Jits_ISO_8,4,1,38,9,1549318944
16,7,Jits_ISO_8,0,5,56,103,1550072228
16,7,Jits_ISO_8,1,1,48,33,1550081720
16,7,Jits_ISO_8,2,5,80,127,1550091632
16,7,Jits_ISO_8,3,5,63,98,1550152024
16,7,Jits_ISO_8,0,1,48,28,1550892676
16,7,Jits_ISO_8,1,1,38,9,1550907928
16,7,Jits_ISO_8,2,5,80,127,1550952020
16,7,Jits_ISO_8,3,5,56,103,1550962068
16,7,Jits_ISO_8,4,5,63,98,1550972412
16,7,Jits_ISO_8,0,5,56,103,1551711720
16,7,Jits_ISO_8,1,1,48,24,1551731696
16,7,Jits_ISO_8,2,1,38,8,1551746876
16,7,Jits_ISO_8,3,5,80,127,1551751484
16,7,Jits_ISO_8,4,5,63,98,1551782204
16,7,Jits_ISO_8,0,5,56,103,1552482044
16,7,Jits_ISO_8,1,5,63,98,1552512320
16,7,Jits_ISO_8,2,1,48,29,1552515060
16,7,Jits_ISO_8,3,5,80,127,1552552328
16,7,Jits_ISO_8,0,5,80,127,1553232320
16,7,Jits_ISO_8,1,5,63,98,1553282672
16,7,Jits_ISO_8,2,5,56,103,1553301788
16,7,Jits_ISO_8,3,1,48,27,1553397820
16,7,Jits_ISO_8,0,1,48,27,1554060576
16,7,Jits_ISO_8,1,5,56,103,1554062296
16,7,Jits_ISO_8,2,5,80,127,1554132356
16,7,Jits_ISO_8,3,5,63,98,1554191712
16,7,Jits_ISO_8,0,5,80,127,1554861644
16,7,Jits_ISO_8,1,1,48,22,1554943236
16,7,Jits_ISO_8,2,5,63,98,1554951652
16,7,Jits_ISO_8,3,5,56,103,1554971888
16,7,Jits_ISO_8,0,5,63,98,1555681828
16,7,Jits_ISO_8,1,5,56,103,1555702064
16,7,Jits_ISO_8,2,5,80,127,1555742004
16,7,Jits_ISO_8,3,1,48,32,1555795536
16,7,Jits_ISO_8,0,5,80,127,1556441576
16,7,Jits_ISO_8,1,5,63,98,1556462064
16,7,Jits_ISO_8,2,5,56,103,1556541784
16,7,Jits_ISO_8,3,1,48,31,1556569164
16,7,Jits_ISO_8,0,5,63,98,1557231960
16,7,Jits_ISO_8,1,1,48,26,1557327076
16,7,Jits_ISO_8,2,5,56,103,1557341492
16,7,Jits_ISO_8,3,5,80,127,1557344780
16,7,Jits_ISO_8,0,5,63,98,1558052408
16,7,Jits_ISO_8,1,5,56,103,1558061556
16,7,Jits_ISO_8,2,5,80,127,1558064620
16,7,Jits_ISO_8,3,1,48,17,1558127972
16,7,Jits_ISO_8,0,5,56,103,1558831648
16,7,Jits_ISO_8,1,1,48,32,1558878440
16,7,Jits_ISO_8,2,5,80,127,1558952568
16,7,Jits_ISO_8,3,5,63,98,1558992416
16,7,Jits_ISO_8,0,5,56,103,1559651756
16,7,Jits_ISO_8,1,1,48,28,1559731028
16,7,Jits_ISO_8,2,5,80,127,1559732816
16,7,Jits_ISO_8,3,1,38,8,1559746648
16,7,Jits_ISO_8,4,5,63,98,1559751924
16,7,Jits_ISO_8,0,5,56,103,1560451384
16,7,Jits_ISO_8,1,1,48,24,1560561456
16,7,Jits_ISO_8,2,5,63,98,1560563280
16,7,Jits_ISO_8,3,5,80,127,1560566472
16,7,Jits_ISO_8,0,5,56,103,1561281820
16,7,Jits_ISO_8,1,5,80,127,1561311572
16,7,Jits_ISO_8,2,5,63,98,1561332056
16,7,Jits_ISO_8,3,1,48,32,1561394580
16,7,Jits_ISO_8,0,5,63,98,1562062436
16,7,Jits_ISO_8,1,5,56,103,1562072408
16,7,Jits_ISO_8,2,5,80,127,1562081632
16,7,Jits_ISO_8,3,1,48,22,1562181192
16,7,Jits_ISO_8,0,5,80,127,1562851604
16,7,Jits_ISO_8,1,1,48,27,1562884912
16,7,Jits_ISO_8,2,5,56,103,1562901800
16,7,Jits_ISO_8,3,5,63,98,1562941740
16,7,Jits_ISO_8,0,5,80,127,1563672004
16,7,Jits_ISO_8,1,5,63,98,1563692316
16,7,Jits_ISO_8,2,1,48,29,1563720164
16,7,Jits_ISO_8,3,1,38,9,1563735344
16,7,Jits_ISO_8,4,5,56,103,1563741520
16,7,Jits_ISO_8,0,5,80,127,1564482036
16,7,Jits_ISO_8,1,1,48,27,1564508300
16,7,Jits_ISO_8,2,5,56,103,1564511480
16,7,Jits_ISO_8,3,5,63,98,1564582432
16,7,Jits_ISO_8,0,5,56,103,1565331736
16,7,Jits_ISO_8,1,5,80,127,1565342304
16,7,Jits_ISO_8,2,1,48,23,1565381420
16,7,Jits_ISO_8,3,5,63,98,1565383284
16,7,Jits_ISO_8,0,5,56,103,1566041336
16,7,Jits_ISO_8,1,5,63,98,1566062020
16,7,Jits_ISO_8,2,5,80,127,1566131552
16,7,Jits_ISO_8,3,1,48,25,1566174748
16,7,Jits_ISO_8,0,5,63,98,1566862180
16,7,Jits_ISO_8,1,5,80,127,1566922124
16,7,Jits_ISO_8,2,5,56,103,1566941688
16,7,Jits_ISO_8,3,1,48,38,1566958084
16,7,Jits_ISO_8,0,5,80,127,1567652076
16,7,Jits_ISO_8,1,5,56,103,1567681976
16,7,Jits_ISO_8,2,5,63,98,1567711580
16,7,Jits_ISO_8,3,1,48,38,1567723340
16,7,Jits_ISO_8,0,5,56,103,1568452020
16,7,Jits_ISO_8,1,1,48,33,1568494272
16,7,Jits_ISO_8,2,5,63,98,1568512284
16,7,Jits_ISO_8,3,5,80,127,1568571776
16,7,Jits_ISO_8,0,5,80,127,1569272300
16,7,Jits_ISO_8,1,1,48,42,1569279308
16,7,Jits_ISO_8,2,5,56,103,1569291708
16,7,Jits_ISO_8,3,5,63,98,1569362432
16,7,Jits_ISO_8,0,5,80,127,1570072024
16,7,Jits_ISO_8,1,5,63,98,1570092412
16,7,Jits_ISO_8,2,5,56,103,1570122160
16,7,Jits_ISO_8,3,1,48,39,1570141764
16,7,Jits_ISO_8,0,5,80,127,1570861560
16,7,Jits_ISO_8,1,5,63,98,1570882092
16,7,Jits_ISO_8,2,1,48,35,1570928132
16,7,Jits_ISO_8,3,5,56,103,1570942180
16,7,Jits_ISO_8,0,5,80,127,1571662328
16,7,Jits_ISO_8,1,1,48,35,1571723812
16,7,Jits_ISO_8,2,5,56,103,1571761452
16,7,Jits_ISO_8,3,5,63,98,1571792172
16,7,Jits_ISO_8,0,5,63,98,1572451944
16,7,Jits_ISO_8,1,5,80,127,1572502220
16,7,Jits_ISO_8,2,5,56,103,1572522380
16,7,Jits_ISO_8,3,1,48,33,1572572628
16,7,Jits_ISO_8,0,5,80,127,1573292336
16,7,Jits_ISO_8,1,1,48,33,1573318900
16,7,Jits_ISO_8,2,5,56,103,1573322080
16,7,Jits_ISO_8,3,5,63,98,1573325220
16,7,Jits_ISO_8,0,1,48,39,1574093068
16,7,Jits_ISO_8,1,5,63,98,1574121888
16,7,Jits_ISO_8,2,5,56,103,1574161828
16,7,Jits_ISO_8,3,5,80,127,1574182136
16,7,Jits_ISO_8,0,5,80,127,1574862244
16,7,Jits_ISO_8,1,1,48,43,1574923900
16,7,Jits_ISO_8,2,5,63,98,1574942060
16,7,Jits_ISO_8,3,5,56,103,1574981924
16,7,Jits_ISO_8,0,5,63,98,1575682448
16,7,Jits_ISO_8,1,1,48,38,1575755020
16,7,Jits_ISO_8,2,5,80,127,1575762316
16,7,Jits_ISO_8,3,5,56,103,1575781652
16,7,Jits_ISO_8,0,5,56,103,1576522168
16,7,Jits_ISO_8,1,5,63,98,1576532516
16,7,Jits_ISO_8,2,1,48,39,1576565828
16,7,Jits_ISO_8,3,5,80,127,1576572300
16,7,Jits_ISO_8,0,5,56,103,1577241956
16,7,Jits_ISO_8,1,5,80,127,1577245020
16,7,Jits_ISO_8,2,1,48,40,1577341944
16,7,Jits_ISO_8,3,5,63,98,1577382200
16,7,Jits_ISO_8,0,5,56,103,1578031552
16,7,Jits_ISO_8,1,5,63,98,1578121764
16,7,Jits_ISO_8,2,5,80,127,1578192272
16,7,Jits_ISO_8,3,1,48,27,1578194716
16,7,Jits_ISO_8,0,5,63,98,1578912044
16,7,Jits_ISO_8,1,5,80,127,1578915336
16,7,Jits_ISO_8,2,1,48,39,1578960272
16,7,Jits_ISO_8,3,5,56,103,1578971604
16,7,Jits_ISO_8,0,1,48,48,1579728044
16,7,Jits_ISO_8,1,5,80,127,1579751928
16,7,Jits_ISO_8,2,5,56,103,1579772164
16,7,Jits_ISO_8,3,5,63,98,1579781760
16,7,Jits_ISO_8,0,5,56,103,1580461640
16,7,Jits_ISO_8,1,5,63,98,1580471760
16,7,Jits_ISO_8,2,5,80,127,1580542512
16,7,Jits_ISO_8,3,1,48,46,1580583688
16,7,Jits_ISO_8,0,5,80,127,1581262184
16,7,Jits_ISO_8,1,5,56,103,1581312488
16,7,Jits_ISO_8,2,1,48,34,1581326620
16,7,Jits_ISO_8,3,5,63,98,1581361712
16,7,Jits_ISO_8,0,1,48,36,1582100040
16,7,Jits_ISO_8,1,5,56,103,1582141796
16,7,Jits_ISO_8,2,5,63,98,1582151992
16,7,Jits_ISO_8,3,5,80,127,1582191932
16,7,Jits_ISO_8,0,5,56,103,1582882252
16,7,Jits_ISO_8,1,1,48,26,1582914440
16,7,Jits_ISO_8,2,5,63,98,1582922036
16,7,Jits_ISO_8,3,5,80,127,1582972536
16,7,Jits_ISO_8,0,5,80,127,1583642116
16,7,Jits_ISO_8,1,5,56,103,1583692096
16,7,Jits_ISO_8,2,5,63,98,1583711732
16,7,Jits_ISO_8,3,1,48,41,1583734856
16,7,Jits_ISO_8,0,5,80,127,1584452176
16,7,Jits_ISO_8,1,1,48,45,1584490592
16,7,Jits_ISO_8,2,5,63,98,1584512412
16,7,Jits_ISO_8,3,5,56,103,1584592492
16,7,Jits_ISO_8,0,5,80,127,1585232420
16,7,Jits_ISO_8,1,5,56,103,1585272288
16,7,Jits_ISO_8,2,5,63,98,1585291700
16,7,Jits_ISO_8,3,1,48,43,1585348148
16,7,Jits_ISO_8,0,5,56,103,1586082264
16,7,Jits_ISO_8,1,1,48,39,1586088668
16,7,Jits_ISO_8,2,5,80,127,1586092528
16,7,Jits_ISO_8,3,5,63,98,1586132316
16,7,Jits_ISO_8,0,1,48,42,1586850488
16,7,Jits_ISO_8,1,5,56,103,1586951668
16,7,Jits_ISO_8,2,5,63,98,1586991460
16,7,Jits_ISO_8,3,5,80,127,1586994824
16,7,Jits_ISO_8,0,5,63,98,1587641612
16,7,Jits_ISO_8,1,5,80,127,1587681652
16,7,Jits_ISO_8,2,5,56,103,1587752384
16,7,Jits_ISO_8,3,1,48,38,1587753572
16,7,Jits_ISO_8,0,5,63,98,1588432252
16,7,Jits_ISO_8,1,5,56,103,1588512224
16,7,Jits_ISO_8,2,1,48,38,1588520224
16,7,Jits_ISO_8,3,5,80,127,1588571488
16,7,Jits_ISO_8,0,5,80,127,1589242176
16,7,Jits_ISO_8,1,5,63,98,1589292380
16,7,Jits_ISO_8,2,1,48,41,1589316544
16,7,Jits_ISO_8,3,5,56,103,1589322272
16,7,Jits_ISO_8,0,5,56,103,1590031708
16,7,Jits_ISO_8,1,5,63,98,1590082060
16,7,Jits_ISO_8,2,5,80,127,1590092108
16,7,Jits_ISO_8,3,1,48,39,1590109916
16,7,Jits_ISO_8,0,5,56,103,1590841692
16,7,Jits_ISO_8,1,1,48,39,1590891116
16,7,Jits_ISO_8,2,5,63,98,1590952424
16,7,Jits_ISO_8,3,5,80,127,1590971908
16,7,Jits_ISO_8,0,5,63,98,1591641416
16,7,Jits_ISO_8,1,5,80,127,1591691624
16,7,Jits_ISO_8,2,1,48,40,1591748592
16,7,Jits_ISO_8,3,5,56,103,1591781696
16,7,Jits_ISO_8,0,5,63,98,1592432136
16,7,Jits_ISO_8,1,5,80,127,1592462108
16,7,Jits_ISO_8,2,1,48,38,1592477960
16,7,Jits_ISO_8,3,5,56,103,1592551812
16,7,Jits_ISO_8,0,5,63,98,1593231916
16,7,Jits_ISO_8,1,5,56,103,1593242040
16,7,Jits_ISO_8,2,1,48,39,1593270492
16,7,Jits_ISO_8,3,5,80,127,1593342304
16,7,Jits_ISO_8,0,1,48,39,1594029944
16,7,Jits_ISO_8,1,5,63,98,1594131876
16,7,Jits_ISO_8,2,5,80,127,1594161776
16,7,Jits_ISO_8,3,5,56,103,1594192276
16,7,Jits_ISO_8,0,1,48,41,1594907520
16,7,Jits_ISO_8,1,5,80,127,1594951988
16,7,Jits_ISO_8,2,5,63,98,1594962260
16,7,Jits_ISO_8,3,5,56,103,1594992008
16,7,Jits_ISO_8,0,5,80,127,1595651388
16,7,Jits_ISO_8,1,5,63,98,1595671996
16,7,Jits_ISO_8,2,5,56,103,1595722052
16,7,Jits_ISO_8,3,1,48,35,1595749280
16,7,Jits_ISO_8,0,5,63,98,1596481976
16,7,Jits_ISO_8,1,1,48,36,1596493040
16,7,Jits_ISO_8,2,5,80,127,1596542288
16,7,Jits_ISO_8,3,5,56,103,1596561996
16,7,Jits_ISO_8,0,5,63,98,1597241828
16,7,Jits_ISO_8,1,1,48,35,1597292180
16,7,Jits_ISO_8,2,5,56,103,1597293748
16,7,Jits_ISO_8,3,5,80,127,1597302220
16,7,Jits_ISO_8,0,1,48,40,1598055956
16,7,Jits_ISO_8,1,5,56,103,1598072096
16,7,Jits_ISO_8,2,5,80,127,1598082292
16,7,Jits_ISO_8,3,5,63,98,1598181948
16,7,Jits_ISO_8,0,5,80,127,1598832104
16,7,Jits_ISO_8,1,5,63,98,1598842224
16,7,Jits_ISO_8,2,1,48,38,1598884900
16,7,Jits_ISO_8,3,5,56,103,1598991696
16,7,Jits_ISO_8,0,5,63,98,1599641864
16,7,Jits_ISO_8,1,1,48,41,1599677268
16,7,Jits_ISO_8,2,5,80,127,1599682020
16,7,Jits_ISO_8,3,5,56,103,1599761692
16,7,Jits_ISO_8,0,5,56,103,1600431680
16,7,Jits_ISO_8,1,1,48,40,1600526528
16,7,Jits_ISO_8,2,5,80,127,1600531876
16,7,Jits_ISO_8,3,5,63,98,1600552188
16,7,Jits_ISO_8,0,5,80,127,1601291744
16,7,Jits_ISO_8,1,5,56,103,1601302088
16,7,Jits_ISO_8,2,1,48,43,1601317860
16,7,Jits_ISO_8,3,5,63,98,1601391992
16,7,Jits_ISO_8,0,5,56,103,1602092516
16,7,Jits_ISO_8,1,5,63,98,1602112000
16,7,Jits_ISO_8,2,1,48,41,1602167480
16,7,Jits_ISO_8,3,5,80,127,1602191716
16,7,Jits_ISO_8,0,5,63,98,1602841968
16,7,Jits_ISO_8,1,1,48,32,1602917680
16,7,Jits_ISO_8,2,5,56,103,1602931940
16,7,Jits_ISO_8,3,5,80,127,1602935236
16,7,Jits_ISO_8,0,5,56,103,1603672532
16,7,Jits_ISO_8,1,1,48,45,1603679164
16,7,Jits_ISO_8,2,5,80,127,1603731724
16,7,Jits_ISO_8,3,5,63,98,1603741996
16,7,Jits_ISO_8,0,1,48,42,1604504216
16,7,Jits_ISO_8,1,5,80,127,1604522600
16,7,Jits_ISO_8,2,5,56,103,1604531672
16,7,Jits_ISO_8,3,5,63,98,1604534812
16,7,Jits_ISO_8,0,5,56,103,1605282224
16,7,Jits_ISO_8,1,5,80,127,1605292348
16,7,Jits_ISO_8,2,1,48,38,1605312356
16,7,Jits_ISO_8,3,5,63,98,1605313696
16,7,Jits_ISO_8,0,1,48,42,1606046616
16,7,Jits_ISO_8,1,5,63,98,1606052344
16,7,Jits_ISO_8,2,5,80,127,1606111464
16,7,Jits_ISO_8,3,5,56,103,1606161652
16,7,Jits_ISO_8,0,1,48,43,1606917648
16,7,Jits_ISO_8,1,5,63,98,1606931772
16,7,Jits_ISO_8,2,5,56,103,1606942044
16,7,Jits_ISO_8,3,5,80,127,1606992320
16,7,Jits_ISO_8,0,5,63,98,1607632192
16,7,Jits_ISO_8,1,5,80,127,1607651704
16,7,Jits_ISO_8,2,1,48,43,1607654672
16,7,Jits_ISO_8,3,5,56,103,1607662116
16,7,Jits_ISO_8,0,5,63,98,1608432064
16,7,Jits_ISO_8,1,5,80,127,1608435428
16,7,Jits_ISO_8,2,1,48,46,1608466416
16,7,Jits_ISO_8,3,5,56,103,1608471996
16,7,Jits_ISO_8,0,1,48,48,1609253448
16,7,Jits_ISO_8,1,5,63,98,1609302328
16,7,Jits_ISO_8,2,5,80,127,1609332300
16,7,Jits_ISO_8,3,5,56,103,1609342276
16,7,Jits_ISO_8,0,5,56,103,1610051920
16,7,Jits_ISO_8,1,5,80,127,1610081596
16,7,Jits_ISO_8,2,1,48,46,1610096848
16,7,Jits_ISO_8,3,5,63,98,1610112240
16,7,Jits_ISO_8,0,1,48,46,1610899476
16,7,Jits_ISO_8,1,5,63,98,1610952180
16,7,Jits_ISO_8,2,5,56,103,1610992068
16,7,Jits_ISO_8,3,5,80,127,1610994984
16,7,Jits_ISO_8,0,5,80,127,1611651424
16,7,Jits_ISO_8,1,1,48,43,1611708556
16,7,Jits_ISO_8,2,5,56,103,1611732264
16,7,Jits_ISO_8,3,5,63,98,1611781444
16,7,Jits_ISO_8,0,5,80,127,1612431744
16,7,Jits_ISO_8,1,5,56,103,1612452204
16,7,Jits_ISO_8,2,1,48,48,1612529828
16,7,Jits_ISO_8,3,5,63,98,1612542280
16,7,Jits_ISO_8,0,5,80,127,1613272444
16,7,Jits_ISO_8,1,5,63,98,1613312336
16,7,Jits_ISO_8,2,1,48,45,1613350992
16,7,Jits_ISO_8,3,5,56,103,1613352860
16,7,Jits_ISO_8,0,5,63,98,1614041452
16,7,Jits_ISO_8,1,5,80,127,1614102016
16,7,Jits_ISO_8,2,1,48,48,1614114352
16,7,Jits_ISO_8,3,5,56,103,1614131464
16,7,Jits_ISO_8,0,5,56,103,1614842084
16,7,Jits_ISO_8,1,5,80,127,1614872056
16,7,Jits_ISO_8,2,1,48,46,1614918172
16,7,Jits_ISO_8,3,5,63,98,1614962108
16,7,Jits_ISO_8,0,5,56,103,1615652216
16,7,Jits_ISO_8,1,1,48,29,1615737896
16,7,Jits_ISO_8,2,1,38,13,1615749428
16,7,Jits_ISO_8,3,5,80,127,1615761884
16,7,Jits_ISO_8,4,5,63,98,1615791408
16,7,Jits_ISO_8,0,5,56,103,1616502204
16,7,Jits_ISO_8,1,5,63,98,1616561624
16,7,Jits_ISO_8,2,1,48,22,1616563036
16,7,Jits_ISO_8,3,1,38,16,1616574700
16,7,Jits_ISO_8,4,5,80,127,1616592180
16,7,Jits_ISO_8,0,5,56,103,1617272172
16,7,Jits_ISO_8,1,1,48,21,1617319040
16,7,Jits_ISO_8,2,1,38,14,1617330500
16,7,Jits_ISO_8,3,5,63,98,1617341904
16,7,Jits_ISO_8,4,5,80,127,1617362288
16,7,Jits_ISO_8,0,5,80,127,1618042276
16,7,Jits_ISO_8,1,5,63,98,1618061984
16,7,Jits_ISO_8,2,5,56,103,1618112040
16,7,Jits_ISO_8,3,1,48,44,1618134488
16,7,Jits_ISO_8,0,9999,9999,9999,9999,1523309660
16,7,Jits_ISO_8,1,9999,9999,9999,9999,1524109436
16,7,Jits_ISO_8,2,9999,9999,9999,9999,1524909156
16,7,Jits_ISO_8,3,9999,9999,9999,9999,1525709920
16,7,Jits_ISO_8,4,9999,9999,9999,9999,1526509636
16,7,Jits_ISO_8,5,9999,9999,9999,9999,1527309424
16,7,Jits_ISO_8,6,9999,9999,9999,9999,1528109128
16,7,Jits_ISO_8,7,9999,9999,9999,9999,1528909900
16,7,Jits_ISO_8,8,9999,9999,9999,9999,1529709632
16,7,Jits_ISO_8,9,9999,9999,9999,9999,1530509404
16,7,Jits_ISO_8,10,9999,9999,9999,9999,1531309136
16,7,Jits_ISO_8,11,9999,9999,9999,9999,1532109896
16,7,Jits_ISO_8,12,9999,9999,9999,9999,1532909652
16,7,Jits_ISO_8,13,9999,9999,9999,9999,1533709376
16,7,Jits_ISO_8,14,9999,9999,9999,9999,1534509148
16,7,Jits_ISO_8,15,9999,9999,9999,9999,1535309908
16,7,Jits_ISO_8,16,9999,9999,9999,9999,1536109680
16,7,Jits_ISO_8,17,9999,9999,9999,9999,1536909412
16,7,Jits_ISO_8,18,9999,9999,9999,9999,1537709124
16,7,Jits_ISO_8,19,9999,9999,9999,9999,1538509892
16,7,Jits_ISO_8,20,9999,9999,9999,9999,1539309664
16,7,Jits_ISO_8,21,9999,9999,9999,9999,1540109380
16,7,Jits_ISO_8,22,9999,9999,9999,9999,1540909172
16,7,Jits_ISO_8,23,9999,9999,9999,9999,1541709924
16,7,Jits_ISO_8,24,9999,9999,9999,9999,1542509632
16,7,Jits_ISO_8,25,9999,9999,9999,9999,1543309412
16,7,Jits_ISO_8,26,9999,9999,9999,9999,1544109136
16,7,Jits_ISO_8,27,9999,9999,9999,9999,1544909892
16,7,Jits_ISO_8,28,9999,9999,9999,9999,1545709636
16,7,Jits_ISO_8,29,9999,9999,9999,9999,1546509368
16,7,Jits_ISO_8,30,9999,9999,9999,9999,1547309148
16,7,Jits_ISO_8,31,9999,9999,9999,9999,1548109904
16,7,Jits_ISO_8,32,9999,9999,9999,9999,1548909624
16,7,Jits_ISO_8,33,9999,9999,9999,9999,1549709372
16,7,Jits_ISO_8,34,9999,9999,9999,9999,1550509108
16,7,Jits_ISO_8,35,9999,9999,9999,9999,1551309920
16,7,Jits_ISO_8,36,9999,9999,9999,9999,1552109620
16,7,Jits_ISO_8,37,9999,9999,9999,9999,1552909364
16,7,Jits_ISO_8,38,9999,9999,9999,9999,1553709156
16,7,Jits_ISO_8,39,9999,9999,9999,9999,1554509932
16,7,Jits_ISO_8,40,9999,9999,9999,9999,1555309644
16,7,Jits_ISO_8,41,9999,9999,9999,9999,1556109420
16,7,Jits_ISO_8,42,9999,9999,9999,9999,1556909124
16,7,Jits_ISO_8,43,9999,9999,9999,9999,1557709888
16,7,Jits_ISO_8,44,9999,9999,9999,9999,1558509680
16,7,Jits_ISO_8,45,9999,9999,9999,9999,1559309392
16,7,Jits_ISO_8,46,9999,9999,9999,9999,1560109156
16,7,Jits_ISO_8,47,9999,9999,9999,9999,1560909936
16,7,Jits_ISO_8,48,9999,9999,9999,9999,1561709660
16,7,Jits_ISO_8,49,9999,9999,9999,9999,1562509380
16,7,Jits_ISO_8,50,9999,9999,9999,9999,1563309160
16,7,Jits_ISO_8,51,9999,9999,9999,9999,1564109884
16,7,Jits_ISO_8,52,9999,9999,9999,9999,1564909652
16,7,Jits_ISO_8,53,9999,9999,9999,9999,1565709384
16,7,Jits_ISO_8,54,9999,9999,9999,9999,1566509180
16,7,Jits_ISO_8,55,9999,9999,9999,9999,1567309880
16,7,Jits_ISO_8,56,9999,9999,9999,9999,1568109660
16,7,Jits_ISO_8,57,9999,9999,9999,9999,1568909384
16,7,Jits_ISO_8,58,9999,9999,9999,9999,1569709108
16,7,Jits_ISO_8,59,9999,9999,9999,9999,1570509880
16,7,Jits_ISO_8,60,9999,9999,9999,9999,1571309628
16,7,Jits_ISO_8,61,9999,9999,9999,9999,1572109428
16,7,Jits_ISO_8,62,9999,9999,9999,9999,1572909152
16,7,Jits_ISO_8,63,9999,9999,9999,9999,1573709904
16,7,Jits_ISO_8,64,9999,9999,9999,9999,1574509632
16,7,Jits_ISO_8,65,9999,9999,9999,9999,1575309420
16,7,Jits_ISO_8,66,9999,9999,9999,9999,1576109144
16,7,Jits_ISO_8,67,9999,9999,9999,9999,1576909908
16,7,Jits_ISO_8,68,9999,9999,9999,9999,1577709644
16,7,Jits_ISO_8,69,9999,9999,9999,9999,1578509372
16,7,Jits_ISO_8,70,9999,9999,9999,9999,1579309164
16,7,Jits_ISO_8,71,9999,9999,9999,9999,1580109928
16,7,Jits_ISO_8,72,9999,9999,9999,9999,1580909632
16,7,Jits_ISO_8,73,9999,9999,9999,9999,1581709432
16,7,Jits_ISO_8,74,9999,9999,9999,9999,1582509160
16,7,Jits_ISO_8,75,9999,9999,9999,9999,1583309920
16,7,Jits_ISO_8,76,9999,9999,9999,9999,1584109664
16,7,Jits_ISO_8,77,9999,9999,9999,9999,1584909392
16,7,Jits_ISO_8,78,9999,9999,9999,9999,1585709108
16,7,Jits_ISO_8,79,9999,9999,9999,9999,1586509876
16,7,Jits_ISO_8,80,9999,9999,9999,9999,1587309680
16,7,Jits_ISO_8,81,9999,9999,9999,9999,1588109388
16,7,Jits_ISO_8,82,9999,9999,9999,9999,1588909172
16,7,Jits_ISO_8,83,9999,9999,9999,9999,1589709924
16,7,Jits_ISO_8,84,9999,9999,9999,9999,1590509668
16,7,Jits_ISO_8,85,9999,9999,9999,9999,1591309392
16,7,Jits_ISO_8,86,9999,9999,9999,9999,1592109116
16,7,Jits_ISO_8,87,9999,9999,9999,9999,1592909944
16,7,Jits_ISO_8,88,9999,9999,9999,9999,1593709652
16,7,Jits_ISO_8,89,9999,9999,9999,9999,1594509372
16,7,Jits_ISO_8,90,9999,9999,9999,9999,1595309168
16,7,Jits_ISO_8,91,9999,9999,9999,9999,1596109916
16,7,Jits_ISO_8,92,9999,9999,9999,9999,1596909668
16,7,Jits_ISO_8,93,9999,9999,9999,9999,1597709376
16,7,Jits_ISO_8,94,9999,9999,9999,9999,1598509160
16,7,Jits_ISO_8,95,9999,9999,9999,9999,1599309916
16,7,Jits_ISO_8,96,9999,9999,9999,9999,1600109636
16,7,Jits_ISO_8,97,9999,9999,9999,9999,1600909424
16,7,Jits_ISO_8,98,9999,9999,9999,9999,1601709148
16,7,Jits_ISO_8,99,9999,9999,9999,9999,1602509920
16,7,Jits_ISO_8,100,9999,9999,9999,9999,1603309656
16,7,Jits_ISO_8,101,9999,9999,9999,9999,1604109368
16,7,Jits_ISO_8,102,9999,9999,9999,9999,1604909160
16,7,Jits_ISO_8,103,9999,9999,9999,9999,1605709912
16,7,Jits_ISO_8,104,9999,9999,9999,9999,1606509684
16,7,Jits_ISO_8,105,9999,9999,9999,9999,1607309400
16,7,Jits_ISO_8,106,9999,9999,9999,9999,1608109172
16,7,Jits_ISO_8,107,9999,9999,9999,9999,1608909912
16,7,Jits_ISO_8,108,9999,9999,9999,9999,1609709648
16,7,Jits_ISO_8,109,9999,9999,9999,9999,1610509428
16,7,Jits_ISO_8,110,9999,9999,9999,9999,1611309152
16,7,Jits_ISO_8,111,9999,9999,9999,9999,1612109908
16,7,Jits_ISO_8,112,9999,9999,9999,9999,1612909628
16,7,Jits_ISO_8,113,9999,9999,9999,9999,1613709428
16,7,Jits_ISO_8,114,9999,9999,9999,9999,1614509148
16,7,Jits_ISO_8,115,9999,9999,9999,9999,1615309904
16,7,Jits_ISO_8,116,9999,9999,9999,9999,1616109620
16,7,Jits_ISO_8,117,9999,9999,9999,9999,1616909412
16,7,Jits_ISO_8,118,9999,9999,9999,9999,1617709112
16,7,Jits_ISO_8,119,9999,9999,9999,9999,1618509896
17,17,Jits_Phase_5,0,5,56,103,1630003420
17,17,Jits_Phase_5,1,5,63,98,1630006592
17,17,Jits_Phase_5,2,5,80,127,1630009792
17,17,Jits_Phase_5,0,5,56,103,1630504328
17,17,Jits_Phase_5,1,5,63,98,1630507576
17,17,Jits_Phase_5,2,5,80,127,1630510472
17,17,Jits_Phase_5,0,5,56,103,1631004052
17,17,Jits_Phase_5,1,5,80,127,1631014396
17,17,Jits_Phase_5,2,5,63,98,1631033660
17,17,Jits_Phase_5,0,5,63,98,1631453488
17,17,Jits_Phase_5,1,5,80,127,1631484284
17,17,Jits_Phase_5,2,5,56,103,1631493432
17,17,Jits_Phase_5,0,1,48,52,1631986348
17,17,Jits_Phase_5,1,5,80,127,1632013724
17,17,Jits_Phase_5,2,5,56,103,1632024140
17,17,Jits_Phase_5,3,5,63,98,1632053668
17,17,Jits_Phase_5,0,5,63,98,1632504048
17,17,Jits_Phase_5,1,1,48,47,1632522004
17,17,Jits_Phase_5,2,5,56,103,1632534012
17,17,Jits_Phase_5,3,5,80,127,1632544280
17,17,Jits_Phase_5,0,5,56,103,1632953576
17,17,Jits_Phase_5,1,5,63,98,1633004172
17,17,Jits_Phase_5,2,5,80,127,1633024336
17,17,Jits_Phase_5,3,1,48,46,1633027676
17,17,Jits_Phase_5,0,5,80,127,1633453492
17,17,Jits_Phase_5,1,5,63,98,1633503568
17,17,Jits_Phase_5,2,1,48,44,1633507956
17,17,Jits_Phase_5,3,5,56,103,1633543720
17,17,Jits_Phase_5,0,5,56,103,1633954148
17,17,Jits_Phase_5,1,5,63,98,1633983824
17,17,Jits_Phase_5,2,1,48,37,1634026144
17,17,Jits_Phase_5,3,5,80,127,1634053592
17,17,Jits_Phase_5,0,5,56,103,1634453984
17,17,Jits_Phase_5,1,1,48,43,1634500476
17,17,Jits_Phase_5,2,5,80,127,1634514296
17,17,Jits_Phase_5,3,5,63,98,1634544140
17,17,Jits_Phase_5,0,5,56,103,1634963940
17,17,Jits_Phase_5,1,5,63,98,1634974212
17,17,Jits_Phase_5,2,1,48,41,1634990140
17,17,Jits_Phase_5,3,5,80,127,1635014064
17,17,Jits_Phase_5,0,5,63,98,1635454264
17,17,Jits_Phase_5,1,1,48,36,1635511164
17,17,Jits_Phase_5,2,5,80,127,1635534276
17,17,Jits_Phase_5,3,5,56,103,1635544472
17,17,Jits_Phase_5,0,5,63,98,1636004064
17,17,Jits_Phase_5,1,1,48,35,1636021428
17,17,Jits_Phase_5,2,5,56,103,1636044140
17,17,Jits_Phase_5,3,5,80,127,1636047132
17,17,Jits_Phase_5,0,5,56,103,1636464244
17,17,Jits_Phase_5,1,5,63,98,1636474220
17,17,Jits_Phase_5,2,5,80,127,1636514228
17,17,Jits_Phase_5,3,1,48,42,1636552040
17,17,Jits_Phase_5,0,5,56,103,1636953364
17,17,Jits_Phase_5,1,5,63,98,1636956512
17,17,Jits_Phase_5,2,5,80,127,1636973976
17,17,Jits_Phase_5,3,1,48,39,1637015448
17,17,Jits_Phase_5,0,5,80,127,1637464432
17,17,Jits_Phase_5,1,5,56,103,1637473508
17,17,Jits_Phase_5,2,1,48,36,1637529132
17,17,Jits_Phase_5,3,5,63,98,1637544296
17,17,Jits_Phase_5,0,5,63,98,1637954084
17,17,Jits_Phase_5,1,5,56,103,1637974316
17,17,Jits_Phase_5,2,1,48,36,1638029268
17,17,Jits_Phase_5,3,5,80,127,1638054248
17,17,Jits_Phase_5,0,5,56,103,1638463944
17,17,Jits_Phase_5,1,5,80,127,1638503884
17,17,Jits_Phase_5,2,5,63,98,1638514004
17,17,Jits_Phase_5,3,1,48,39,1638529776
17,17,Jits_Phase_5,0,5,80,127,1638954340
17,17,Jits_Phase_5,1,5,63,98,1638983940
17,17,Jits_Phase_5,2,1,48,38,1639015528
17,17,Jits_Phase_5,3,5,56,103,1639023944
17,17,Jits_Phase_5,0,5,56,103,1639473428
17,17,Jits_Phase_5,1,5,63,98,1639504224
17,17,Jits_Phase_5,2,1,48,42,1639514012
17,17,Jits_Phase_5,3,5,80,127,1639554416
17,17,Jits_Phase_5,0,5,80,127,1639974240
17,17,Jits_Phase_5,1,5,56,103,1640014328
17,17,Jits_Phase_5,2,1,48,34,1640017444
17,17,Jits_Phase_5,3,5,63,98,1640024516
17,17,Jits_Phase_5,0,5,80,127,1640453552
17,17,Jits_Phase_5,1,5,63,98,1640493712
17,17,Jits_Phase_5,2,1,48,39,1640517284
17,17,Jits_Phase_5,3,5,56,103,1640553944
17,17,Jits_Phase_5,0,5,56,103,1640954136
17,17,Jits_Phase_5,1,5,80,127,1640963584
17,17,Jits_Phase_5,2,1,48,40,1640988496
17,17,Jits_Phase_5,3,5,63,98,1641044264
17,17,Jits_Phase_5,0,5,80,127,1641453896
17,17,Jits_Phase_5,1,5,63,98,1641514288
17,17,Jits_Phase_5,2,5,56,103,1641544108
17,17,Jits_Phase_5,3,1,48,44,1641548876
17,17,Jits_Phase_5,0,5,56,103,1641953736
17,17,Jits_Phase_5,1,5,80,127,1642014052
17,17,Jits_Phase_5,2,5,63,98,1642053912
17,17,Jits_Phase_5,3,1,48,40,1642054876
17,17,Jits_Phase_5,0,5,56,103,1642503620
17,17,Jits_Phase_5,1,5,63,98,1642513740
17,17,Jits_Phase_5,2,5,80,127,1642517176
17,17,Jits_Phase_5,3,1,48,39,1642563528
17,17,Jits_Phase_5,0,5,80,127,1642964240
17,17,Jits_Phase_5,1,1,48,31,1643008732
17,17,Jits_Phase_5,2,5,63,98,1643053716
17,17,Jits_Phase_5,3,5,56,103,1643063836
17,17,Jits_Phase_5,0,5,56,103,1643464064
17,17,Jits_Phase_5,1,5,63,98,1643467312
17,17,Jits_Phase_5,2,5,80,127,1643470504
17,17,Jits_Phase_5,3,1,48,46,1643543332
17,17,Jits_Phase_5,0,5,80,127,1643984340
17,17,Jits_Phase_5,1,1,48,46,1644024200
17,17,Jits_Phase_5,2,5,63,98,1644034412
17,17,Jits_Phase_5,3,5,56,103,1644064164
17,17,Jits_Phase_5,0,5,56,103,1644463584
17,17,Jits_Phase_5,1,5,80,127,1644473704
17,17,Jits_Phase_5,2,1,48,46,1644524796
17,17,Jits_Phase_5,3,5,63,98,1644544520
17,17,Jits_Phase_5,0,5,56,103,1644973676
17,17,Jits_Phase_5,1,5,63,98,1644993836
17,17,Jits_Phase_5,2,1,48,50,1645020944
17,17,Jits_Phase_5,3,5,80,127,1645054612
17,17,Jits_Phase_5,0,5,80,127,1645453588
17,17,Jits_Phase_5,1,5,63,98,1645524536
17,17,Jits_Phase_5,2,5,56,103,1645543828
17,17,Jits_Phase_5,3,1,48,39,1645562236
17,17,Jits_Phase_5,0,5,80,127,1645973952
17,17,Jits_Phase_5,1,5,56,103,1645984000
17,17,Jits_Phase_5,2,5,63,98,1645994644
17,17,Jits_Phase_5,3,1,48,35,1646071048
17,17,Jits_Phase_5,0,5,80,127,1646464500
17,17,Jits_Phase_5,1,5,56,103,1646483688
17,17,Jits_Phase_5,2,1,48,40,1646551768
17,17,Jits_Phase_5,3,5,63,98,1646553580
17,17,Jits_Phase_5,0,5,56,103,1646974524
17,17,Jits_Phase_5,1,5,80,127,1647004052
17,17,Jits_Phase_5,2,5,63,98,1647023460
17,17,Jits_Phase_5,3,1,48,36,1647068700
17,17,Jits_Phase_5,0,5,63,98,1647463724
17,17,Jits_Phase_5,1,5,56,103,1647524484
17,17,Jits_Phase_5,2,1,48,44,1647530892
17,17,Jits_Phase_5,3,5,80,127,1647553780
17,17,Jits_Phase_5,0,5,63,98,1647954404
17,17,Jits_Phase_5,1,5,80,127,1647957692
17,17,Jits_Phase_5,2,1,48,44,1648015132
17,17,Jits_Phase_5,3,5,56,103,1648044524
17,17,Jits_Phase_5,0,5,56,103,1648473400
17,17,Jits_Phase_5,1,5,63,98,1648504492
17,17,Jits_Phase_5,2,5,80,127,1648544504
17,17,Jits_Phase_5,3,1,48,44,1648557736
17,17,Jits_Phase_5,0,5,63,98,1648974284
17,17,Jits_Phase_5,1,5,56,103,1649014220
17,17,Jits_Phase_5,2,1,48,45,1649029476
17,17,Jits_Phase_5,3,5,80,127,1649033700
17,17,Jits_Phase_5,0,5,63,98,1649484372
17,17,Jits_Phase_5,1,5,56,103,1649524084
17,17,Jits_Phase_5,2,1,48,40,1649525496
17,17,Jits_Phase_5,3,5,80,127,1649534424
17,17,Jits_Phase_5,0,5,80,127,1649964272
17,17,Jits_Phase_5,1,1,48,44,1649991652
17,17,Jits_Phase_5,2,5,63,98,1650034020
17,17,Jits_Phase_5,3,5,56,103,1650053580
17,17,Jits_Phase_5,0,5,56,103,1650453996
17,17,Jits_Phase_5,1,5,80,127,1650474456
17,17,Jits_Phase_5,2,5,63,98,1650514392
17,17,Jits_Phase_5,3,1,48,30,1650523440
17,17,Jits_Phase_5,0,5,63,98,1650964320
17,17,Jits_Phase_5,1,5,80,127,1650984484
17,17,Jits_Phase_5,2,1,48,44,1650997344
17,17,Jits_Phase_5,3,5,56,103,1651024412
17,17,Jits_Phase_5,0,5,63,98,1651463624
17,17,Jits_Phase_5,1,5,56,103,1651484008
17,17,Jits_Phase_5,2,5,80,127,1651494428
17,17,Jits_Phase_5,3,1,48,39,1651523024
17,17,Jits_Phase_5,0,5,80,127,1651964492
17,17,Jits_Phase_5,1,5,56,103,1651983756
17,17,Jits_Phase_5,2,5,63,98,1652013432
17,17,Jits_Phase_5,3,1,48,42,1652024420
17,17,Jits_Phase_5,0,1,48,42,1652493220
17,17,Jits_Phase_5,1,5,56,103,1652533552
17,17,Jits_Phase_5,2,5,80,127,1652536616
17,17,Jits_Phase_5,3,5,63,98,1652554380
17,17,Jits_Phase_5,0,5,63,98,1652953412
17,17,Jits_Phase_5,1,5,56,103,1652984356
17,17,Jits_Phase_5,2,1,48,48,1653021032
17,17,Jits_Phase_5,3,5,80,127,1653043692
17,17,Jits_Phase_5,0,1,48,46,1653500764
17,17,Jits_Phase_5,1,5,63,98,1653534288
17,17,Jits_Phase_5,2,5,56,103,1653544412
17,17,Jits_Phase_5,3,5,80,127,1653553560
17,17,Jits_Phase_5,0,5,56,103,1653993748
17,17,Jits_Phase_5,1,1,48,45,1654007204
17,17,Jits_Phase_5,2,5,80,127,1654023492
17,17,Jits_Phase_5,3,5,63,98,1654033912
17,17,Jits_Phase_5,0,1,48,43,1654516180
17,17,Jits_Phase_5,1,5,63,98,1654533368
17,17,Jits_Phase_5,2,5,56,103,1654543784
17,17,Jits_Phase_5,3,5,80,127,1654564392
17,17,Jits_Phase_5,0,5,56,103,1654963500
17,17,Jits_Phase_5,1,5,63,98,1655024060
17,17,Jits_Phase_5,2,5,80,127,1655027276
17,17,Jits_Phase_5,3,1,48,45,1655056696
17,17,Jits_Phase_5,0,5,80,127,1655483628
17,17,Jits_Phase_5,1,5,56,103,1655494272
17,17,Jits_Phase_5,2,1,48,46,1655530444
17,17,Jits_Phase_5,3,5,63,98,1655563596
17,17,Jits_Phase_5,0,5,80,127,1655974244
17,17,Jits_Phase_5,1,1,48,46,1656018192
17,17,Jits_Phase_5,2,5,56,103,1656044092
17,17,Jits_Phase_5,3,5,63,98,1656054288
17,17,Jits_Phase_5,0,5,63,98,1656514092
17,17,Jits_Phase_5,1,5,56,103,1656524216
17,17,Jits_Phase_5,2,1,48,46,1656543200
17,17,Jits_Phase_5,3,5,80,127,1656545136
17,17,Jits_Phase_5,0,5,80,127,1656963572
17,17,Jits_Phase_5,1,5,63,98,1657024036
17,17,Jits_Phase_5,2,1,48,49,1657060736
17,17,Jits_Phase_5,3,5,56,103,1657064064
17,17,Jits_Phase_5,0,5,56,103,1657504092
17,17,Jits_Phase_5,1,5,63,98,1657514436
17,17,Jits_Phase_5,2,1,48,52,1657544008
17,17,Jits_Phase_5,3,5,80,127,1657554144
17,17,Jits_Phase_5,0,5,56,103,1657964148
17,17,Jits_Phase_5,1,5,80,127,1657993524
17,17,Jits_Phase_5,2,5,63,98,1658043944
17,17,Jits_Phase_5,3,1,48,44,1658068784
17,17,Jits_Phase_5,0,5,56,103,1658503544
17,17,Jits_Phase_5,1,1,48,43,1658528232
17,17,Jits_Phase_5,2,5,63,98,1658543472
17,17,Jits_Phase_5,3,5,80,127,1658546984
17,17,Jits_Phase_5,0,5,56,103,1659004348
17,17,Jits_Phase_5,1,5,63,98,1659013496
17,17,Jits_Phase_5,2,5,80,127,1659034104
17,17,Jits_Phase_5,3,1,48,48,1659058348
17,17,Jits_Phase_5,0,5,56,103,1659464028
17,17,Jits_Phase_5,1,5,80,127,1659467092
17,17,Jits_Phase_5,2,5,63,98,1659504188
17,17,Jits_Phase_5,3,1,48,47,1659508500
17,17,Jits_Phase_5,0,5,63,98,1660003712
17,17,Jits_Phase_5,1,1,48,29,1660026384
17,17,Jits_Phase_5,2,5,56,103,1660034352
17,17,Jits_Phase_5,3,5,80,127,1660053836
17,17,Jits_Phase_5,0,5,80,127,1660473868
17,17,Jits_Phase_5,1,5,56,103,1660484064
17,17,Jits_Phase_5,2,5,63,98,1660494188
17,17,Jits_Phase_5,3,1,48,45,1660515364
17,17,Jits_Phase_5,0,5,56,103,1660973408
17,17,Jits_Phase_5,1,1,48,40,1661013332
17,17,Jits_Phase_5,2,5,80,127,1661015060
17,17,Jits_Phase_5,3,5,63,98,1661044056
17,17,Jits_Phase_5,0,5,63,98,1661484332
17,17,Jits_Phase_5,1,5,80,127,1661493556
17,17,Jits_Phase_5,2,5,56,103,1661503976
17,17,Jits_Phase_5,3,1,48,33,1661535560
17,17,Jits_Phase_5,0,5,56,103,1661973892
17,17,Jits_Phase_5,1,1,48,40,1662004808
17,17,Jits_Phase_5,2,5,63,98,1662043788
17,17,Jits_Phase_5,3,5,80,127,1662053984
17,17,Jits_Phase_5,0,5,80,127,1662483768
17,17,Jits_Phase_5,1,5,56,103,1662494116
17,17,Jits_Phase_5,2,1,48,42,1662511164
17,17,Jits_Phase_5,3,5,63,98,1662544232
17,17,Jits_Phase_5,0,5,80,127,1662994016
17,17,Jits_Phase_5,1,1,48,44,1663003816
17,17,Jits_Phase_5,2,5,56,103,1663054104
17,17,Jits_Phase_5,3,5,63,98,1663083852
17,17,Jits_Phase_5,0,5,56,103,1663493632
17,17,Jits_Phase_5,1,5,80,127,1663496624
17,17,Jits_Phase_5,2,5,63,98,1663533420
17,17,Jits_Phase_5,3,1,48,43,1663548596
17,17,Jits_Phase_5,0,1,48,45,1664021064
17,17,Jits_Phase_5,1,5,56,103,1664024020
17,17,Jits_Phase_5,2,5,63,98,1664053696
17,17,Jits_Phase_5,3,5,80,127,1664063820
17,17,Jits_Phase_5,0,1,48,53,1664504944
17,17,Jits_Phase_5,1,5,63,98,1664533812
17,17,Jits_Phase_5,2,5,80,127,1664544156
17,17,Jits_Phase_5,3,5,56,103,1664554276
17,17,Jits_Phase_5,0,5,80,127,1664984320
17,17,Jits_Phase_5,1,1,48,37,1665017652
17,17,Jits_Phase_5,2,5,56,103,1665033712
17,17,Jits_Phase_5,3,5,63,98,1665036632
17,17,Jits_Phase_5,0,1,48,43,1665495872
17,17,Jits_Phase_5,1,5,56,103,1665513760
17,17,Jits_Phase_5,2,5,80,127,1665534440
17,17,Jits_Phase_5,3,5,63,98,1665543736
17,17,Jits_Phase_5,0,5,63,98,1665994084
17,17,Jits_Phase_5,1,1,48,40,1666006492
17,17,Jits_Phase_5,2,5,56,103,1666023700
17,17,Jits_Phase_5,3,5,80,127,1666044232
17,17,Jits_Phase_5,0,5,56,103,1666504092
17,17,Jits_Phase_5,1,1,48,38,1666513688
17,17,Jits_Phase_5,2,5,80,127,1666515552
17,17,Jits_Phase_5,3,5,63,98,1666583912
17,17,Jits_Phase_5,0,5,63,98,1666993520
17,17,Jits_Phase_5,1,5,80,127,1667033532
17,17,Jits_Phase_5,2,1,48,40,1667056680
17,17,Jits_Phase_5,3,5,56,103,1667074532
17,17,Jits_Phase_5,0,5,56,103,1667503600
17,17,Jits_Phase_5,1,5,63,98,1667513648
17,17,Jits_Phase_5,2,5,80,127,1667534180
17,17,Jits_Phase_5,3,1,48,38,1667538568
17,17,Jits_Phase_5,0,1,48,38,1668022136
17,17,Jits_Phase_5,1,5,63,98,1668044112
17,17,Jits_Phase_5,2,5,80,127,1668063696
17,17,Jits_Phase_5,3,5,56,103,1668084008
17,17,Jits_Phase_5,0,5,56,103,1668483636
17,17,Jits_Phase_5,1,1,48,40,1668489972
17,17,Jits_Phase_5,2,5,80,127,1668564320
17,17,Jits_Phase_5,3,5,63,98,1668573644
17,17,Jits_Phase_5,0,1,48,34,1669014540
17,17,Jits_Phase_5,1,5,80,127,1669024076
17,17,Jits_Phase_5,2,5,63,98,1669034496
17,17,Jits_Phase_5,3,5,56,103,1669064092
17,17,Jits_Phase_5,0,5,63,98,1669483828
17,17,Jits_Phase_5,1,5,80,127,1669523840
17,17,Jits_Phase_5,2,1,48,37,1669538940
17,17,Jits_Phase_5,3,5,56,103,1669584368
17,17,Jits_Phase_5,0,5,63,98,1669993768
17,17,Jits_Phase_5,1,5,56,103,1670044044
17,17,Jits_Phase_5,2,1,48,37,1670047680
17,17,Jits_Phase_5,3,5,80,127,1670073784
17,17,Jits_Phase_5,0,5,80,127,1670493444
17,17,Jits_Phase_5,1,5,63,98,1670503788
17,17,Jits_Phase_5,2,1,48,41,1670521432
17,17,Jits_Phase_5,3,5,56,103,1670573604
17,17,Jits_Phase_5,0,1,48,47,1671025512
17,17,Jits_Phase_5,1,5,80,127,1671053784
17,17,Jits_Phase_5,2,5,56,103,1671063904
17,17,Jits_Phase_5,3,5,63,98,1671067044
17,17,Jits_Phase_5,0,5,56,103,1671493980
17,17,Jits_Phase_5,1,5,80,127,1671513540
17,17,Jits_Phase_5,2,5,63,98,1671523736
17,17,Jits_Phase_5,3,1,48,42,1671545140
17,17,Jits_Phase_5,0,5,63,98,1672003936
17,17,Jits_Phase_5,1,1,48,45,1672016492
17,17,Jits_Phase_5,2,5,56,103,1672043792
17,17,Jits_Phase_5,3,5,80,127,1672064472
17,17,Jits_Phase_5,0,5,63,98,1672503536
17,17,Jits_Phase_5,1,1,48,42,1672519232
17,17,Jits_Phase_5,2,5,56,103,1672564288
17,17,Jits_Phase_5,3,5,80,127,1672567280
17,17,Jits_Phase_5,0,5,56,103,1672963644
17,17,Jits_Phase_5,1,5,80,127,1672983880
17,17,Jits_Phase_5,2,5,63,98,1673023740
17,17,Jits_Phase_5,3,1,48,43,1673027756
17,17,Jits_Phase_5,0,5,56,103,1673494044
17,17,Jits_Phase_5,1,5,63,98,1673514504
17,17,Jits_Phase_5,2,5,80,127,1673523504
17,17,Jits_Phase_5,3,1,48,39,1673529468
17,17,Jits_Phase_5,0,5,80,127,1673963916
17,17,Jits_Phase_5,1,5,56,103,1673993516
17,17,Jits_Phase_5,2,1,48,42,1674027792
17,17,Jits_Phase_5,3,5,63,98,1674033596
17,17,Jits_Phase_5,0,5,80,127,1674473716
17,17,Jits_Phase_5,1,5,56,103,1674494400
17,17,Jits_Phase_5,2,1,48,36,1674515948
17,17,Jits_Phase_5,3,5,63,98,1674553656
17,17,Jits_Phase_5,0,5,56,103,1674983744
17,17,Jits_Phase_5,1,5,80,127,1675004204
17,17,Jits_Phase_5,2,1,48,35,1675015192
17,17,Jits_Phase_5,3,5,63,98,1675063760
17,17,Jits_Phase_5,0,5,80,127,1675464300
17,17,Jits_Phase_5,1,5,56,103,1675474420
17,17,Jits_Phase_5,2,5,63,98,1675514308
17,17,Jits_Phase_5,3,1,48,49,1675528584
17,17,Jits_Phase_5,0,5,63,98,1675963764
17,17,Jits_Phase_5,1,5,56,103,1676003724
17,17,Jits_Phase_5,2,5,80,127,1676006788
17,17,Jits_Phase_5,3,1,48,48,1676010584
17,17,Jits_Phase_5,0,5,63,98,1676484028
17,17,Jits_Phase_5,1,1,48,14,1676510912
17,17,Jits_Phase_5,2,5,80,127,1676523908
17,17,Jits_Phase_5,3,5,56,103,1676553656
17,17,Jits_Phase_5,0,5,56,103,1676973440
17,17,Jits_Phase_5,1,5,63,98,1676983636
17,17,Jits_Phase_5,2,5,80,127,1677014356
17,17,Jits_Phase_5,3,1,48,21,1677058844
17,17,Jits_Phase_5,0,5,80,127,1677464132
17,17,Jits_Phase_5,1,1,48,33,1677501328
17,17,Jits_Phase_5,2,5,63,98,1677533532
17,17,Jits_Phase_5,3,5,56,103,1677543728
17,17,Jits_Phase_5,0,5,63,98,1677963600
17,17,Jits_Phase_5,1,1,48,48,1677981244
17,17,Jits_Phase_5,2,5,56,103,1678034244
17,17,Jits_Phase_5,3,5,80,127,1678043416
17,17,Jits_Phase_5,0,5,63,98,1678444016
17,17,Jits_Phase_5,1,5,56,103,1678464252
17,17,Jits_Phase_5,2,5,80,127,1678504260
17,17,Jits_Phase_5,3,1,48,46,1678518984
17,17,Jits_Phase_5,0,5,56,103,1678924208
17,17,Jits_Phase_5,1,5,63,98,1678934332
17,17,Jits_Phase_5,2,1,48,43,1678999468
17,17,Jits_Phase_5,3,5,80,127,1679014188
17,17,Jits_Phase_5,0,5,63,98,1679413556
17,17,Jits_Phase_5,1,5,56,103,1679444204
17,17,Jits_Phase_5,2,1,48,43,1679445616
17,17,Jits_Phase_5,3,5,80,127,1679484208
17,17,Jits_Phase_5,0,5,56,103,1679914348
17,17,Jits_Phase_5,1,5,63,98,1679954360
17,17,Jits_Phase_5,2,1,48,37,1679965944
17,17,Jits_Phase_5,3,5,80,127,1679994216
17,17,Jits_Phase_5,0,5,80,127,1680414036
17,17,Jits_Phase_5,1,1,48,40,1680437080
17,17,Jits_Phase_5,2,5,56,103,1680494120
17,17,Jits_Phase_5,3,5,63,98,1680504092
17,17,Jits_Phase_5,0,5,56,103,1680953656
17,17,Jits_Phase_5,1,1,48,37,1680956572
17,17,Jits_Phase_5,2,5,63,98,1680958280
17,17,Jits_Phase_5,3,5,80,127,1680964068
17,17,Jits_Phase_5,0,1,48,42,1681464088
17,17,Jits_Phase_5,1,5,56,103,1681473856
17,17,Jits_Phase_5,2,5,63,98,1681494388
17,17,Jits_Phase_5,3,5,80,127,1681503536
17,17,Jits_Phase_5,0,5,63,98,1681933752
17,17,Jits_Phase_5,1,5,80,127,1681943948
17,17,Jits_Phase_5,2,1,48,41,1681948040
17,17,Jits_Phase_5,3,5,56,103,1681964324
17,17,Jits_Phase_5,0,5,63,98,1682434392
17,17,Jits_Phase_5,1,1,48,50,1682471812
17,17,Jits_Phase_5,2,5,56,103,1682514252
17,17,Jits_Phase_5,3,5,80,127,1682517320
17,17,Jits_Phase_5,0,1,48,46,1682920308
17,17,Jits_Phase_5,1,5,63,98,1682934056
17,17,Jits_Phase_5,2,5,56,103,1682953692
17,17,Jits_Phase_5,3,5,80,127,1682984336
17,17,Jits_Phase_5,0,5,56,103,1683433956
17,17,Jits_Phase_5,1,1,48,40,1683439168
17,17,Jits_Phase_5,2,5,63,98,1683454336
17,17,Jits_Phase_5,3,5,80,127,1683463560
17,17,Jits_Phase_5,0,1,48,45,1683943432
17,17,Jits_Phase_5,1,5,56,103,1683973868
17,17,Jits_Phase_5,2,5,63,98,1684004144
17,17,Jits_Phase_5,3,5,80,127,1684007728
17,17,Jits_Phase_5,0,1,48,38,1684416316
17,17,Jits_Phase_5,1,5,56,103,1684423988
17,17,Jits_Phase_5,2,5,63,98,1684464028
17,17,Jits_Phase_5,3,5,80,127,1684524400
17,17,Jits_Phase_5,0,1,48,44,1684943368
17,17,Jits_Phase_5,1,5,56,103,1684945160
17,17,Jits_Phase_5,2,5,63,98,1684953660
17,17,Jits_Phase_5,3,5,80,127,1685013824
17,17,Jits_Phase_5,0,5,56,103,1685444016
17,17,Jits_Phase_5,1,1,48,45,1685451768
17,17,Jits_Phase_5,2,5,80,127,1685464396
17,17,Jits_Phase_5,3,5,63,98,1685494244
17,17,Jits_Phase_5,0,1,48,44,1685928752
17,17,Jits_Phase_5,1,5,80,127,1685943772
17,17,Jits_Phase_5,2,5,56,103,1685954044
17,17,Jits_Phase_5,3,5,63,98,1685974276
17,17,Jits_Phase_5,0,5,63,98,1686434084
17,17,Jits_Phase_5,1,1,48,43,1686490412
17,17,Jits_Phase_5,2,5,80,127,1686513968
17,17,Jits_Phase_5,3,5,56,103,1686524164
17,17,Jits_Phase_5,0,1,48,46,1686990728
17,17,Jits_Phase_5,1,5,80,127,1687024204
17,17,Jits_Phase_5,2,5,56,103,1687043392
17,17,Jits_Phase_5,3,5,63,98,1687046680
17,17,Jits_Phase_5,0,1,48,40,1687483140
17,17,Jits_Phase_5,1,5,63,98,1687513532
17,17,Jits_Phase_5,2,5,80,127,1687516968
17,17,Jits_Phase_5,3,5,56,103,1687573844
17,17,Jits_Phase_5,0,5,56,103,1687993776
17,17,Jits_Phase_5,1,5,80,127,1688003824
17,17,Jits_Phase_5,2,1,48,18,1688041192
17,17,Jits_Phase_5,3,5,63,98,1688043852
17,17,Jits_Phase_5,0,5,56,103,1688474052
17,17,Jits_Phase_5,1,5,63,98,1688534368
17,17,Jits_Phase_5,2,1,48,41,1688539756
17,17,Jits_Phase_5,3,5,80,127,1688543532
17,17,Jits_Phase_5,0,5,63,98,1688984000
17,17,Jits_Phase_5,1,1,48,42,1689020528
17,17,Jits_Phase_5,2,5,80,127,1689023856
17,17,Jits_Phase_5,3,5,56,103,1689063744
17,17,Jits_Phase_5,0,5,56,103,1689483600
17,17,Jits_Phase_5,1,1,48,41,1689532428
17,17,Jits_Phase_5,2,5,63,98,1689563780
17,17,Jits_Phase_5,3,5,80,127,1689566924
17,17,Jits_Phase_5,0,1,48,45,1690034120
17,17,Jits_Phase_5,1,5,80,127,1690043736
17,17,Jits_Phase_5,2,5,56,103,1690073584
17,17,Jits_Phase_5,3,5,63,98,1690076648
17,17,Jits_Phase_5,0,5,56,103,1690503704
17,17,Jits_Phase_5,1,5,80,127,1690524012
17,17,Jits_Phase_5,2,1,48,43,1690546832
17,17,Jits_Phase_5,3,5,63,98,1690563868
17,17,Jits_Phase_5,0,5,80,127,1690983764
17,17,Jits_Phase_5,1,5,63,98,1691004520
17,17,Jits_Phase_5,2,1,48,46,1691047640
17,17,Jits_Phase_5,3,5,56,103,1691063556
17,17,Jits_Phase_5,0,5,63,98,1691493936
17,17,Jits_Phase_5,1,5,56,103,1691504056
17,17,Jits_Phase_5,2,1,48,49,1691544264
17,17,Jits_Phase_5,3,5,80,127,1691554472
17,17,Jits_Phase_5,0,5,56,103,1691984540
17,17,Jits_Phase_5,1,5,63,98,1692003728
17,17,Jits_Phase_5,2,5,80,127,1692013924
17,17,Jits_Phase_5,3,1,48,22,1692043864
17,17,Jits_Phase_5,0,5,56,103,1692473736
17,17,Jits_Phase_5,1,5,63,98,1692476652
17,17,Jits_Phase_5,2,5,80,127,1692494120
17,17,Jits_Phase_5,3,1,48,47,1692496132
17,17,Jits_Phase_5,0,1,48,51,1692990896
17,17,Jits_Phase_5,1,5,63,98,1693014380
17,17,Jits_Phase_5,2,5,56,103,1693043980
17,17,Jits_Phase_5,3,5,80,127,1693073876
17,17,Jits_Phase_5,0,5,80,127,1693474580
17,17,Jits_Phase_5,1,1,48,37,1693505724
17,17,Jits_Phase_5,2,5,56,103,1693564328
17,17,Jits_Phase_5,3,5,63,98,1693567468
17,17,Jits_Phase_5,0,5,56,103,1693973884
17,17,Jits_Phase_5,1,5,80,127,1693976728
17,17,Jits_Phase_5,2,5,63,98,1694053676
17,17,Jits_Phase_5,3,1,48,48,1694071540
17,17,Jits_Phase_5,0,5,80,127,1694473564
17,17,Jits_Phase_5,1,5,63,98,1694534176
17,17,Jits_Phase_5,2,5,56,103,1694563776
17,17,Jits_Phase_5,3,1,48,57,1694570112
17,17,Jits_Phase_5,0,5,63,98,1694974300
17,17,Jits_Phase_5,1,5,80,127,1694983524
17,17,Jits_Phase_5,2,1,48,53,1695039148
17,17,Jits_Phase_5,3,5,56,103,1695054536
17,17,Jits_Phase_5,0,1,48,56,1695519628
17,17,Jits_Phase_5,1,5,56,103,1695533528
17,17,Jits_Phase_5,2,5,80,127,1695564248
17,17,Jits_Phase_5,3,5,63,98,1695614356
17,17,Jits_Phase_5,0,1,48,51,1696044484
17,17,Jits_Phase_5,1,5,63,98,1696133440
17,17,Jits_Phase_5,2,5,56,103,1696164292
17,17,Jits_Phase_5,3,5,80,127,1696167356
17,17,Jits_Phase_5,0,1,48,38,1696626256
17,17,Jits_Phase_5,1,5,63,98,1696634596
17,17,Jits_Phase_5,2,5,80,127,1696653636
17,17,Jits_Phase_5,3,5,56,103,1696663832
17,17,Jits_Phase_5,0,1,48,43,1697137916
17,17,Jits_Phase_5,1,5,56,103,1697144384
17,17,Jits_Phase_5,2,5,63,98,1697147376
17,17,Jits_Phase_5,3,5,80,127,1697163500
17,17,Jits_Phase_5,0,5,56,103,1697593644
17,17,Jits_Phase_5,1,5,63,98,1697603916
17,17,Jits_Phase_5,2,1,48,44,1697627408
17,17,Jits_Phase_5,3,5,80,127,1697633656
17,17,Jits_Phase_5,0,5,63,98,1698113780
17,17,Jits_Phase_5,1,1,48,38,1698131128
17,17,Jits_Phase_5,2,5,80,127,1698134308
17,17,Jits_Phase_5,3,5,56,103,1698174392
17,17,Jits_Phase_5,0,1,48,35,1698637688
17,17,Jits_Phase_5,1,5,56,103,1698644240
17,17,Jits_Phase_5,2,5,63,98,1698684248
17,17,Jits_Phase_5,3,5,80,127,1698687388
17,17,Jits_Phase_5,0,5,80,127,1699083604
17,17,Jits_Phase_5,1,5,56,103,1699123620
17,17,Jits_Phase_5,2,1,48,41,1699138944
17,17,Jits_Phase_5,3,5,63,98,1699173736
17,17,Jits_Phase_5,0,5,56,103,1699643900
17,17,Jits_Phase_5,1,5,80,127,1699654172
17,17,Jits_Phase_5,2,1,48,46,1699657216
17,17,Jits_Phase_5,3,5,63,98,1699683692
17,17,Jits_Phase_5,0,5,56,103,1700094296
17,17,Jits_Phase_5,1,5,80,127,1700134236
17,17,Jits_Phase_5,2,1,48,47,1700166420
17,17,Jits_Phase_5,3,5,63,98,1700184428
17,17,Jits_Phase_5,0,5,56,103,1700594136
17,17,Jits_Phase_5,1,5,80,127,1700634148
17,17,Jits_Phase_5,2,1,48,39,1700668276
17,17,Jits_Phase_5,3,5,63,98,1700684264
17,17,Jits_Phase_5,0,5,80,127,1701083488
17,17,Jits_Phase_5,1,1,48,47,1701142952
17,17,Jits_Phase_5,2,5,63,98,1701164396
17,17,Jits_Phase_5,3,5,56,103,1701173544
17,17,Jits_Phase_5,0,5,80,127,1701634272
17,17,Jits_Phase_5,1,5,56,103,1701643940
17,17,Jits_Phase_5,2,5,63,98,1701664176
17,17,Jits_Phase_5,3,1,48,46,1701672844
17,17,Jits_Phase_5,0,5,63,98,1702104368
17,17,Jits_Phase_5,1,5,56,103,1702174192
17,17,Jits_Phase_5,2,1,48,37,1702175100
17,17,Jits_Phase_5,3,5,80,127,1702178596
17,17,Jits_Phase_5,0,5,80,127,1702594192
17,17,Jits_Phase_5,1,1,48,50,1702635700
17,17,Jits_Phase_5,2,5,63,98,1702644188
17,17,Jits_Phase_5,3,5,56,103,1702684200
17,17,Jits_Phase_5,0,5,63,98,1703133616
17,17,Jits_Phase_5,1,1,48,46,1703154268
17,17,Jits_Phase_5,2,5,56,103,1703173476
17,17,Jits_Phase_5,3,5,80,127,1703183668
17,17,Jits_Phase_5,0,5,63,98,1703634392
17,17,Jits_Phase_5,1,5,56,103,1703653828
17,17,Jits_Phase_5,2,1,48,49,1703670724
17,17,Jits_Phase_5,3,5,80,127,1703674428
17,17,Jits_Phase_5,0,5,80,127,1704093980
17,17,Jits_Phase_5,1,5,56,103,1704104400
17,17,Jits_Phase_5,2,5,63,98,1704123884
17,17,Jits_Phase_5,3,1,48,44,1704141304
17,17,Jits_Phase_5,0,5,63,98,1704623556
17,17,Jits_Phase_5,1,1,48,46,1704648320
17,17,Jits_Phase_5,2,5,56,103,1704664408
17,17,Jits_Phase_5,3,5,80,127,1704694084
17,17,Jits_Phase_5,0,5,56,103,1705084200
17,17,Jits_Phase_5,1,5,63,98,1705114096
17,17,Jits_Phase_5,2,5,80,127,1705144068
17,17,Jits_Phase_5,3,1,48,30,1705171980
17,17,Jits_Phase_5,0,5,80,127,1705504108
17,17,Jits_Phase_5,1,5,56,103,1705573712
17,17,Jits_Phase_5,2,5,63,98,1705577072
17,17,Jits_Phase_5,3,1,48,43,1705661712
17,17,Jits_Phase_5,0,5,56,103,1706013976
17,17,Jits_Phase_5,1,5,63,98,1706064176
17,17,Jits_Phase_5,2,5,80,127,1706093924
17,17,Jits_Phase_5,3,1,48,46,1706128272
17,17,Jits_Phase_5,0,5,63,98,1706494328
17,17,Jits_Phase_5,1,5,80,127,1706497768
17,17,Jits_Phase_5,2,5,56,103,1706553668
17,17,Jits_Phase_5,3,1,48,46,1706632676
17,17,Jits_Phase_5,0,5,56,103,1707024032
17,17,Jits_Phase_5,1,5,80,127,1707033932
17,17,Jits_Phase_5,2,5,63,98,1707084280
17,17,Jits_Phase_5,3,1,48,43,1707142836
17,17,Jits_Phase_5,0,5,63,98,1707493828
17,17,Jits_Phase_5,1,5,56,103,1707504024
17,17,Jits_Phase_5,2,5,80,127,1707533772
17,17,Jits_Phase_5,3,1,48,31,1707651436
17,17,Jits_Phase_5,0,5,63,98,1708024056
17,17,Jits_Phase_5,1,5,80,127,1708027352
17,17,Jits_Phase_5,2,5,56,103,1708053884
17,17,Jits_Phase_5,3,1,48,32,1708170784
17,17,Jits_Phase_5,0,5,63,98,1708544480
17,17,Jits_Phase_5,1,5,56,103,1708563812
17,17,Jits_Phase_5,2,5,80,127,1708566804
17,17,Jits_Phase_5,3,1,48,39,1708696676
17,17,Jits_Phase_5,0,5,63,98,1709004108
17,17,Jits_Phase_5,1,5,56,103,1709073740
17,17,Jits_Phase_5,2,5,80,127,1709094124
17,17,Jits_Phase_5,3,1,48,31,1709184812
17,17,Jits_Phase_5,0,5,56,103,1709493748
17,17,Jits_Phase_5,1,5,63,98,1709504016
17,17,Jits_Phase_5,2,5,80,127,1709593872
17,17,Jits_Phase_5,3,1,48,29,1709725460
17,17,Jits_Phase_5,0,5,56,103,1710013812
17,17,Jits_Phase_5,1,5,80,127,1710053700
17,17,Jits_Phase_5,2,5,63,98,1710063900
17,17,Jits_Phase_5,3,1,48,36,1710242388
17,17,Jits_Phase_5,0,5,56,103,1710534024
17,17,Jits_Phase_5,1,5,63,98,1710563800
17,17,Jits_Phase_5,2,5,80,127,1710594668
17,17,Jits_Phase_5,3,1,48,35,1710734052
17,17,Jits_Phase_5,0,5,80,127,1710993712
17,17,Jits_Phase_5,1,5,63,98,1711033648
17,17,Jits_Phase_5,2,5,56,103,1711054256
17,17,Jits_Phase_5,3,1,48,29,1711229832
17,17,Jits_Phase_5,0,5,56,103,1711533552
17,17,Jits_Phase_5,1,5,80,127,1711553864
17,17,Jits_Phase_5,2,5,63,98,1711574324
17,17,Jits_Phase_5,3,1,48,36,1711748852
17,17,Jits_Phase_5,0,5,63,98,1712003500
17,17,Jits_Phase_5,1,5,56,103,1712013624
17,17,Jits_Phase_5,2,5,80,127,1712074232
17,17,Jits_Phase_5,3,1,48,33,1712226748
17,17,Jits_Phase_5,4,1,38,10,1712241868
17,17,Jits_Phase_5,0,5,56,103,1712504152
17,17,Jits_Phase_5,1,5,63,98,1712573904
17,17,Jits_Phase_5,2,5,80,127,1712594140
17,17,Jits_Phase_5,3,1,48,25,1712741644
17,17,Jits_Phase_5,0,5,56,103,1713003840
17,17,Jits_Phase_5,1,5,63,98,1713033740
17,17,Jits_Phase_5,2,5,80,127,1713073676
17,17,Jits_Phase_5,3,1,48,27,1713256304
17,17,Jits_Phase_5,0,5,63,98,1713494612
17,17,Jits_Phase_5,1,5,56,103,1713543544
17,17,Jits_Phase_5,2,5,80,127,1713553736
17,17,Jits_Phase_5,3,1,48,34,1713755916
17,17,Jits_Phase_5,0,5,56,103,1714044556
17,17,Jits_Phase_5,1,5,63,98,1714093560
17,17,Jits_Phase_5,2,5,80,127,1714103608
17,17,Jits_Phase_5,3,1,48,34,1714286380
17,17,Jits_Phase_5,0,5,56,103,1714514504
17,17,Jits_Phase_5,1,5,63,98,1714523432
17,17,Jits_Phase_5,2,5,80,127,1714604492
17,17,Jits_Phase_5,3,1,48,32,1714787644
17,17,Jits_Phase_5,0,9999,9999,9999,9999,1630251080
17,17,Jits_Phase_5,1,9999,9999,9999,9999,1630751836
17,17,Jits_Phase_5,2,9999,9999,9999,9999,1631251564
17,17,Jits_Phase_5,3,9999,9999,9999,9999,1631751264
17,17,Jits_Phase_5,4,9999,9999,9999,9999,1632252004
17,17,Jits_Phase_5,5,9999,9999,9999,9999,1632751684
17,17,Jits_Phase_5,6,9999,9999,9999,9999,1633251432
17,17,Jits_Phase_5,7,9999,9999,9999,9999,1633751100
17,17,Jits_Phase_5,8,9999,9999,9999,9999,1634251828
17,17,Jits_Phase_5,9,9999,9999,9999,9999,1634751596
17,17,Jits_Phase_5,10,9999,9999,9999,9999,1635251284
17,17,Jits_Phase_5,11,9999,9999,9999,9999,1635752024
17,17,Jits_Phase_5,12,9999,9999,9999,9999,1636251768
17,17,Jits_Phase_5,13,9999,9999,9999,9999,1636751440
17,17,Jits_Phase_5,14,9999,9999,9999,9999,1637251188
17,17,Jits_Phase_5,15,9999,9999,9999,9999,1637751924
17,17,Jits_Phase_5,16,9999,9999,9999,9999,1638251616
17,17,Jits_Phase_5,17,9999,9999,9999,9999,1638751288
17,17,Jits_Phase_5,18,9999,9999,9999,9999,1639252092
17,17,Jits_Phase_5,19,9999,9999,9999,9999,1639751784
17,17,Jits_Phase_5,20,9999,9999,9999,9999,1640251472
17,17,Jits_Phase_5,21,9999,9999,9999,9999,1640751160
17,17,Jits_Phase_5,22,9999,9999,9999,9999,1641251964
17,17,Jits_Phase_5,23,9999,9999,9999,9999,1641751656
17,17,Jits_Phase_5,24,9999,9999,9999,9999,1642251344
17,17,Jits_Phase_5,25,9999,9999,9999,9999,1642752072
17,17,Jits_Phase_5,26,9999,9999,9999,9999,1643262024
17,17,Jits_Phase_5,27,9999,9999,9999,9999,1643761760
17,17,Jits_Phase_5,28,9999,9999,9999,9999,1644261452
17,17,Jits_Phase_5,29,9999,9999,9999,9999,1644761188
17,17,Jits_Phase_5,30,9999,9999,9999,9999,1645251660
17,17,Jits_Phase_5,31,9999,9999,9999,9999,1645751420
17,17,Jits_Phase_5,32,9999,9999,9999,9999,1646251108
17,17,Jits_Phase_5,33,9999,9999,9999,9999,1646751844
17,17,Jits_Phase_5,34,9999,9999,9999,9999,1647251532
17,17,Jits_Phase_5,35,9999,9999,9999,9999,1647751220
17,17,Jits_Phase_5,36,9999,9999,9999,9999,1648252004
17,17,Jits_Phase_5,37,9999,9999,9999,9999,1648751676
17,17,Jits_Phase_5,38,9999,9999,9999,9999,1649251440
17,17,Jits_Phase_5,39,9999,9999,9999,9999,1649751116
17,17,Jits_Phase_5,40,9999,9999,9999,9999,1650251844
17,17,Jits_Phase_5,41,9999,9999,9999,9999,1650751604
17,17,Jits_Phase_5,42,9999,9999,9999,9999,1651251296
17,17,Jits_Phase_5,43,9999,9999,9999,9999,1651752012
17,17,Jits_Phase_5,44,9999,9999,9999,9999,1652251764
17,17,Jits_Phase_5,45,9999,9999,9999,9999,1652751448
17,17,Jits_Phase_5,46,9999,9999,9999,9999,1653251172
17,17,Jits_Phase_5,47,9999,9999,9999,9999,1653751896
17,17,Jits_Phase_5,48,9999,9999,9999,9999,1654261836
17,17,Jits_Phase_5,49,9999,9999,9999,9999,1654761532
17,17,Jits_Phase_5,50,9999,9999,9999,9999,1655261272
17,17,Jits_Phase_5,51,9999,9999,9999,9999,1655761980
17,17,Jits_Phase_5,52,9999,9999,9999,9999,1656261740
17,17,Jits_Phase_5,53,9999,9999,9999,9999,1656761432
17,17,Jits_Phase_5,54,9999,9999,9999,9999,1657261108
17,17,Jits_Phase_5,55,9999,9999,9999,9999,1657761916
17,17,Jits_Phase_5,56,9999,9999,9999,9999,1658261604
17,17,Jits_Phase_5,57,9999,9999,9999,9999,1658761288
17,17,Jits_Phase_5,58,9999,9999,9999,9999,1659262024
17,17,Jits_Phase_5,59,9999,9999,9999,9999,1659761772
17,17,Jits_Phase_5,60,9999,9999,9999,9999,1660261464
17,17,Jits_Phase_5,61,9999,9999,9999,9999,1660761212
17,17,Jits_Phase_5,62,9999,9999,9999,9999,1661261948
17,17,Jits_Phase_5,63,9999,9999,9999,9999,1661761632
17,17,Jits_Phase_5,64,9999,9999,9999,9999,1662281836
17,17,Jits_Phase_5,65,9999,9999,9999,9999,1662781524
17,17,Jits_Phase_5,66,9999,9999,9999,9999,1663281216
17,17,Jits_Phase_5,67,9999,9999,9999,9999,1663782016
17,17,Jits_Phase_5,68,9999,9999,9999,9999,1664281708
17,17,Jits_Phase_5,69,9999,9999,9999,9999,1664781380
17,17,Jits_Phase_5,70,9999,9999,9999,9999,1665281120
17,17,Jits_Phase_5,71,9999,9999,9999,9999,1665781852
17,17,Jits_Phase_5,72,9999,9999,9999,9999,1666281600
17,17,Jits_Phase_5,73,9999,9999,9999,9999,1666781276
17,17,Jits_Phase_5,74,9999,9999,9999,9999,1667281984
17,17,Jits_Phase_5,75,9999,9999,9999,9999,1667781728
17,17,Jits_Phase_5,76,9999,9999,9999,9999,1668281420
17,17,Jits_Phase_5,77,9999,9999,9999,9999,1668781172
17,17,Jits_Phase_5,78,9999,9999,9999,9999,1669281908
17,17,Jits_Phase_5,79,9999,9999,9999,9999,1669781584
17,17,Jits_Phase_5,80,9999,9999,9999,9999,1670281336
17,17,Jits_Phase_5,81,9999,9999,9999,9999,1670761584
17,17,Jits_Phase_5,82,9999,9999,9999,9999,1671261272
17,17,Jits_Phase_5,83,9999,9999,9999,9999,1671761996
17,17,Jits_Phase_5,84,9999,9999,9999,9999,1672261688
17,17,Jits_Phase_5,85,9999,9999,9999,9999,1672761432
17,17,Jits_Phase_5,86,9999,9999,9999,9999,1673261176
17,17,Jits_Phase_5,87,9999,9999,9999,9999,1673761908
17,17,Jits_Phase_5,88,9999,9999,9999,9999,1674261596
17,17,Jits_Phase_5,89,9999,9999,9999,9999,1674761284
17,17,Jits_Phase_5,90,9999,9999,9999,9999,1675262020
17,17,Jits_Phase_5,91,9999,9999,9999,9999,1675761780
17,17,Jits_Phase_5,92,9999,9999,9999,9999,1676261456
17,17,Jits_Phase_5,93,9999,9999,9999,9999,1676761184
17,17,Jits_Phase_5,94,9999,9999,9999,9999,1677261904
17,17,Jits_Phase_5,95,9999,9999,9999,9999,1677761592
17,17,Jits_Phase_5,96,9999,9999,9999,9999,1678261356
17,17,Jits_Phase_5,97,9999,9999,9999,9999,1678711880
17,17,Jits_Phase_5,98,9999,9999,9999,9999,1679211628
17,17,Jits_Phase_5,99,9999,9999,9999,9999,1679711312
17,17,Jits_Phase_5,100,9999,9999,9999,9999,1680212028
17,17,Jits_Phase_5,101,9999,9999,9999,9999,1680711796
17,17,Jits_Phase_5,102,9999,9999,9999,9999,1681211472
17,17,Jits_Phase_5,103,9999,9999,9999,9999,1681711164
17,17,Jits_Phase_5,104,9999,9999,9999,9999,1682211952
17,17,Jits_Phase_5,105,9999,9999,9999,9999,1682711616
17,17,Jits_Phase_5,106,9999,9999,9999,9999,1683211368
17,17,Jits_Phase_5,107,9999,9999,9999,9999,1683712088
17,17,Jits_Phase_5,108,9999,9999,9999,9999,1684222032
17,17,Jits_Phase_5,109,9999,9999,9999,9999,1684721780
17,17,Jits_Phase_5,110,9999,9999,9999,9999,1685221452
17,17,Jits_Phase_5,111,9999,9999,9999,9999,1685721196
17,17,Jits_Phase_5,112,9999,9999,9999,9999,1686221904
17,17,Jits_Phase_5,113,9999,9999,9999,9999,1686721652
17,17,Jits_Phase_5,114,9999,9999,9999,9999,1687271540
17,17,Jits_Phase_5,115,9999,9999,9999,9999,1687771208
17,17,Jits_Phase_5,116,9999,9999,9999,9999,1688271976
17,17,Jits_Phase_5,117,9999,9999,9999,9999,1688771660
17,17,Jits_Phase_5,118,9999,9999,9999,9999,1689271420
17,17,Jits_Phase_5,119,9999,9999,9999,9999,1689771088
17,17,Jits_Phase_5,120,9999,9999,9999,9999,1690271820
17,17,Jits_Phase_5,121,9999,9999,9999,9999,1690771572
17,17,Jits_Phase_5,122,9999,9999,9999,9999,1691271256
17,17,Jits_Phase_5,123,9999,9999,9999,9999,1691771988
17,17,Jits_Phase_5,124,9999,9999,9999,9999,1692271732
17,17,Jits_Phase_5,125,9999,9999,9999,9999,1692771404
17,17,Jits_Phase_5,126,9999,9999,9999,9999,1693271096
17,17,Jits_Phase_5,127,9999,9999,9999,9999,1693771880
17,17,Jits_Phase_5,128,9999,9999,9999,9999,1694271556
17,17,Jits_Phase_5,129,9999,9999,9999,9999,1694771324
17,17,Jits_Phase_5,130,9999,9999,9999,9999,1695272052
17,17,Jits_Phase_5,131,9999,9999,9999,9999,1695872112
17,17,Jits_Phase_5,132,9999,9999,9999,9999,1696382048
17,17,Jits_Phase_5,133,9999,9999,9999,9999,1696881720
17,17,Jits_Phase_5,134,9999,9999,9999,9999,1697381464
17,17,Jits_Phase_5,135,9999,9999,9999,9999,1697881208
17,17,Jits_Phase_5,136,9999,9999,9999,9999,1698381944
17,17,Jits_Phase_5,137,9999,9999,9999,9999,1698881616
17,17,Jits_Phase_5,138,9999,9999,9999,9999,1699381364
17,17,Jits_Phase_5,139,9999,9999,9999,9999,1699882100
17,17,Jits_Phase_5,140,9999,9999,9999,9999,1700381792
17,17,Jits_Phase_5,141,9999,9999,9999,9999,1700881480
17,17,Jits_Phase_5,142,9999,9999,9999,9999,1701381248
17,17,Jits_Phase_5,143,9999,9999,9999,9999,1701881984
17,17,Jits_Phase_5,144,9999,9999,9999,9999,1702381664
17,17,Jits_Phase_5,145,9999,9999,9999,9999,1702881340
17,17,Jits_Phase_5,146,9999,9999,9999,9999,1703382132
17,17,Jits_Phase_5,147,9999,9999,9999,9999,1703892068
17,17,Jits_Phase_5,148,9999,9999,9999,9999,1704391732
17,17,Jits_Phase_5,149,9999,9999,9999,9999,1704891500
17,17,Jits_Phase_5,150,9999,9999,9999,9999,1705291840
17,17,Jits_Phase_5,151,9999,9999,9999,9999,1705791592
17,17,Jits_Phase_5,152,9999,9999,9999,9999,1706291280
17,17,Jits_Phase_5,153,9999,9999,9999,9999,1706792000
17,17,Jits_Phase_5,154,9999,9999,9999,9999,1707291748
17,17,Jits_Phase_5,155,9999,9999,9999,9999,1707791432
17,17,Jits_Phase_5,156,9999,9999,9999,9999,1708291168
17,17,Jits_Phase_5,157,9999,9999,9999,9999,1708791884
17,17,Jits_Phase_5,158,9999,9999,9999,9999,1709291632
17,17,Jits_Phase_5,159,9999,9999,9999,9999,1709791320
17,17,Jits_Phase_5,160,9999,9999,9999,9999,1710292032
17,17,Jits_Phase_5,161,9999,9999,9999,9999,1710791796
17,17,Jits_Phase_5,162,9999,9999,9999,9999,1711291480
17,17,Jits_Phase_5,163,9999,9999,9999,9999,1711791172
17,17,Jits_Phase_5,164,9999,9999,9999,9999,1712291960
17,17,Jits_Phase_5,165,9999,9999,9999,9999,1712791664
17,17,Jits_Phase_5,166,9999,9999,9999,9999,1713291352
17,17,Jits_Phase_5,167,9999,9999,9999,9999,1713792084
17,17,Jits_Phase_5,168,9999,9999,9999,9999,1714302028
17,17,Jits_Phase_5,169,9999,9999,9999,9999,1714801792
18,15,Jits_Phase_8,0,5,56,103,1725003132
18,15,Jits_Phase_8,1,5,63,98,1725006080
18,15,Jits_Phase_8,2,5,80,127,1725009204
18,15,Jits_Phase_8,0,5,56,103,1725803000
18,15,Jits_Phase_8,1,5,63,98,1725805944
18,15,Jits_Phase_8,2,5,80,127,1725809140
18,15,Jits_Phase_8,0,5,80,127,1726543168
18,15,Jits_Phase_8,1,5,63,98,1726633228
18,15,Jits_Phase_8,2,5,56,103,1726642452
18,15,Jits_Phase_8,0,5,56,103,1727362384
18,15,Jits_Phase_8,1,5,63,98,1727372580
18,15,Jits_Phase_8,2,5,80,127,1727462960
18,15,Jits_Phase_8,0,5,63,98,1728132600
18,15,Jits_Phase_8,1,5,80,127,1728163172
18,15,Jits_Phase_8,2,5,56,103,1728192996
18,15,Jits_Phase_8,3,1,48,48,1728205628
18,15,Jits_Phase_8,0,5,56,103,1728933324
18,15,Jits_Phase_8,1,1,48,46,1728962896
18,15,Jits_Phase_8,2,5,80,127,1729032764
18,15,Jits_Phase_8,3,5,63,98,1729082952
18,15,Jits_Phase_8,0,5,56,103,1729732944
18,15,Jits_Phase_8,1,5,80,127,1729783176
18,15,Jits_Phase_8,2,5,63,98,1729823040
18,15,Jits_Phase_8,3,1,48,50,1729911264
18,15,Jits_Phase_8,0,5,80,127,1730562636
18,15,Jits_Phase_8,1,5,63,98,1730593212
18,15,Jits_Phase_8,2,1,48,52,1730650800
18,15,Jits_Phase_8,3,5,56,103,1730662956
18,15,Jits_Phase_8,0,5,63,98,1731392828
18,15,Jits_Phase_8,1,1,48,43,1731395720
18,15,Jits_Phase_8,2,5,56,103,1731422716
18,15,Jits_Phase_8,3,5,80,127,1731483032
18,15,Jits_Phase_8,0,5,56,103,1732133168
18,15,Jits_Phase_8,1,5,80,127,1732136160
18,15,Jits_Phase_8,2,1,48,32,1732181768
18,15,Jits_Phase_8,3,5,63,98,1732253036
18,15,Jits_Phase_8,0,5,56,103,1733012724
18,15,Jits_Phase_8,1,5,80,127,1733052736
18,15,Jits_Phase_8,2,5,63,98,1733063080
18,15,Jits_Phase_8,3,1,48,49,1733103760
18,15,Jits_Phase_8,0,5,56,103,1733772716
18,15,Jits_Phase_8,1,5,80,127,1733793176
18,15,Jits_Phase_8,2,1,48,51,1733856404
18,15,Jits_Phase_8,3,5,63,98,1733872912
18,15,Jits_Phase_8,0,5,80,127,1734563200
18,15,Jits_Phase_8,1,5,56,103,1734662500
18,15,Jits_Phase_8,2,5,63,98,1734672620
18,15,Jits_Phase_8,3,1,48,57,1734690416
18,15,Jits_Phase_8,0,5,63,98,1735333232
18,15,Jits_Phase_8,1,5,80,127,1735392600
18,15,Jits_Phase_8,2,5,56,103,1735402872
18,15,Jits_Phase_8,3,1,48,51,1735453112
18,15,Jits_Phase_8,0,5,56,103,1736132908
18,15,Jits_Phase_8,1,5,63,98,1736202460
18,15,Jits_Phase_8,2,5,80,127,1736205680
18,15,Jits_Phase_8,3,1,48,48,1736267980
18,15,Jits_Phase_8,0,5,63,98,1736962588
18,15,Jits_Phase_8,1,5,56,103,1737012564
18,15,Jits_Phase_8,2,5,80,127,1737015628
18,15,Jits_Phase_8,3,1,48,47,1737023400
18,15,Jits_Phase_8,0,5,56,103,1737723440
18,15,Jits_Phase_8,1,5,80,127,1737726580
18,15,Jits_Phase_8,2,5,63,98,1737813424
18,15,Jits_Phase_8,3,1,48,40,1737823960
18,15,Jits_Phase_8,0,5,63,98,1738562908
18,15,Jits_Phase_8,1,1,48,46,1738617048
18,15,Jits_Phase_8,2,5,56,103,1738653112
18,15,Jits_Phase_8,3,5,80,127,1738682712
18,15,Jits_Phase_8,0,5,56,103,1739352480
18,15,Jits_Phase_8,1,1,48,46,1739451364
18,15,Jits_Phase_8,2,5,63,98,1739453020
18,15,Jits_Phase_8,3,5,80,127,1739482496
18,15,Jits_Phase_8,0,5,63,98,1740172784
18,15,Jits_Phase_8,1,5,56,103,1740182760
18,15,Jits_Phase_8,2,5,80,127,1740272916
18,15,Jits_Phase_8,3,1,48,42,1740287416
18,15,Jits_Phase_8,0,5,63,98,1740992852
18,15,Jits_Phase_8,1,5,56,103,1741072892
18,15,Jits_Phase_8,2,5,80,127,1741075960
18,15,Jits_Phase_8,3,1,48,43,1741088144
18,15,Jits_Phase_8,0,5,80,127,1741752596
18,15,Jits_Phase_8,1,5,63,98,1741773428
18,15,Jits_Phase_8,2,5,56,103,1741832500
18,15,Jits_Phase_8,3,1,48,33,1741867676
18,15,Jits_Phase_8,0,5,56,103,1742593300
18,15,Jits_Phase_8,1,5,63,98,1742612932
18,15,Jits_Phase_8,2,5,80,127,1742616296
18,15,Jits_Phase_8,3,1,48,37,1742651944
18,15,Jits_Phase_8,4,1,38,13,1742663456
18,15,Jits_Phase_8,0,5,63,98,1743332760
18,15,Jits_Phase_8,1,5,80,127,1743412632
18,15,Jits_Phase_8,2,1,48,37,1743417992
18,15,Jits_Phase_8,3,5,56,103,1743422744
18,15,Jits_Phase_8,0,5,63,98,1744152968
18,15,Jits_Phase_8,1,5,56,103,1744173500
18,15,Jits_Phase_8,2,5,80,127,1744222580
18,15,Jits_Phase_8,3,1,48,39,1744224216
18,15,Jits_Phase_8,0,5,80,127,1744952572
18,15,Jits_Phase_8,1,1,48,29,1744984012
18,15,Jits_Phase_8,2,5,63,98,1744992656
18,15,Jits_Phase_8,3,5,56,103,1745013188
18,15,Jits_Phase_8,0,5,56,103,1745793328
18,15,Jits_Phase_8,1,5,63,98,1745802624
18,15,Jits_Phase_8,2,1,48,37,1745815784
18,15,Jits_Phase_8,3,5,80,127,1745823228
18,15,Jits_Phase_8,0,5,56,103,1746522524
18,15,Jits_Phase_8,1,5,63,98,1746612732
18,15,Jits_Phase_8,2,1,48,47,1746629624
18,15,Jits_Phase_8,3,5,80,127,1746672916
18,15,Jits_Phase_8,0,5,80,127,1747352936
18,15,Jits_Phase_8,1,5,56,103,1747363136
18,15,Jits_Phase_8,2,1,48,45,1747410592
18,15,Jits_Phase_8,3,5,63,98,1747433052
18,15,Jits_Phase_8,0,5,63,98,1748183300
18,15,Jits_Phase_8,1,1,48,58,1748229716
18,15,Jits_Phase_8,2,5,80,127,1748272604
18,15,Jits_Phase_8,3,5,56,103,1748282948
18,15,Jits_Phase_8,0,5,63,98,1748912392
18,15,Jits_Phase_8,1,5,80,127,1748962764
18,15,Jits_Phase_8,2,5,56,103,1749023228
18,15,Jits_Phase_8,3,1,48,29,1749025596
18,15,Jits_Phase_8,0,5,56,103,1749732924
18,15,Jits_Phase_8,1,5,80,127,1749782976
18,15,Jits_Phase_8,2,5,63,98,1749803360
18,15,Jits_Phase_8,3,1,48,54,1749830444
18,15,Jits_Phase_8,0,5,56,103,1750502876
18,15,Jits_Phase_8,1,5,80,127,1750563268
18,15,Jits_Phase_8,2,1,48,54,1750587132
18,15,Jits_Phase_8,3,5,63,98,1750633088
18,15,Jits_Phase_8,0,5,56,103,1751302720
18,15,Jits_Phase_8,1,5,80,127,1751333220
18,15,Jits_Phase_8,2,1,48,48,1751355068
18,15,Jits_Phase_8,3,5,63,98,1751362812
18,15,Jits_Phase_8,0,5,56,103,1752143168
18,15,Jits_Phase_8,1,1,48,53,1752144060
18,15,Jits_Phase_8,2,5,80,127,1752162944
18,15,Jits_Phase_8,3,5,63,98,1752223036
18,15,Jits_Phase_8,0,1,48,44,1752939976
18,15,Jits_Phase_8,1,5,80,127,1753022728
18,15,Jits_Phase_8,2,5,56,103,1753033000
18,15,Jits_Phase_8,3,5,63,98,1753043180
18,15,Jits_Phase_8,0,5,56,103,1753782792
18,15,Jits_Phase_8,1,5,80,127,1753822904
18,15,Jits_Phase_8,2,5,63,98,1753853256
18,15,Jits_Phase_8,3,1,48,47,1753878992
18,15,Jits_Phase_8,0,5,56,103,1754552676
18,15,Jits_Phase_8,1,5,63,98,1754583648
18,15,Jits_Phase_8,2,1,48,56,1754619796
18,15,Jits_Phase_8,3,5,80,127,1754623504
18,15,Jits_Phase_8,0,5,80,127,1755303376
18,15,Jits_Phase_8,1,5,63,98,1755352632
18,15,Jits_Phase_8,2,1,48,51,1755360316
18,15,Jits_Phase_8,3,5,56,103,1755372932
18,15,Jits_Phase_8,0,1,48,47,1756116912
18,15,Jits_Phase_8,1,5,56,103,1756132680
18,15,Jits_Phase_8,2,5,80,127,1756203412
18,15,Jits_Phase_8,3,5,63,98,1756262740
18,15,Jits_Phase_8,0,5,80,127,1756932748
18,15,Jits_Phase_8,1,1,48,49,1756983744
18,15,Jits_Phase_8,2,5,63,98,1757022652
18,15,Jits_Phase_8,3,5,56,103,1757042964
18,15,Jits_Phase_8,0,5,63,98,1757752828
18,15,Jits_Phase_8,1,5,56,103,1757773064
18,15,Jits_Phase_8,2,1,48,53,1757806148
18,15,Jits_Phase_8,3,5,80,127,1757813144
18,15,Jits_Phase_8,0,5,80,127,1758512652
18,15,Jits_Phase_8,1,5,63,98,1758532888
18,15,Jits_Phase_8,2,1,48,40,1758577652
18,15,Jits_Phase_8,3,5,56,103,1758612748
18,15,Jits_Phase_8,0,5,63,98,1759302984
18,15,Jits_Phase_8,1,1,48,53,1759361476
18,15,Jits_Phase_8,2,5,56,103,1759412588
18,15,Jits_Phase_8,3,5,80,127,1759415800
18,15,Jits_Phase_8,0,5,63,98,1760123184
18,15,Jits_Phase_8,1,5,56,103,1760132556
18,15,Jits_Phase_8,2,5,80,127,1760135620
18,15,Jits_Phase_8,3,1,48,46,1760196204
18,15,Jits_Phase_8,0,5,56,103,1760902400
18,15,Jits_Phase_8,1,1,48,33,1760963956
18,15,Jits_Phase_8,2,5,80,127,1761023340
18,15,Jits_Phase_8,3,5,63,98,1761063264
18,15,Jits_Phase_8,0,5,56,103,1761722776
18,15,Jits_Phase_8,1,1,48,48,1761800236
18,15,Jits_Phase_8,2,5,80,127,1761802664
18,15,Jits_Phase_8,3,5,63,98,1761823272
18,15,Jits_Phase_8,0,5,56,103,1762522500
18,15,Jits_Phase_8,1,1,48,42,1762596264
18,15,Jits_Phase_8,2,5,63,98,1762633000
18,15,Jits_Phase_8,3,5,80,127,1762636288
18,15,Jits_Phase_8,0,5,56,103,1763363468
18,15,Jits_Phase_8,1,5,80,127,1763392772
18,15,Jits_Phase_8,2,5,63,98,1763413528
18,15,Jits_Phase_8,3,1,48,54,1763426760
18,15,Jits_Phase_8,0,5,63,98,1764152676
18,15,Jits_Phase_8,1,5,56,103,1764162800
18,15,Jits_Phase_8,2,5,80,127,1764173220
18,15,Jits_Phase_8,3,1,48,42,1764200300
18,15,Jits_Phase_8,0,5,80,127,1764943360
18,15,Jits_Phase_8,1,1,48,60,1764972404
18,15,Jits_Phase_8,2,5,56,103,1764993408
18,15,Jits_Phase_8,3,5,63,98,1765033268
18,15,Jits_Phase_8,0,5,80,127,1765762388
18,15,Jits_Phase_8,1,5,63,98,1765782920
18,15,Jits_Phase_8,2,1,48,72,1765822452
18,15,Jits_Phase_8,3,5,56,103,1765833340
18,15,Jits_Phase_8,0,5,80,127,1766573544
18,15,Jits_Phase_8,1,1,48,67,1766592252
18,15,Jits_Phase_8,2,5,56,103,1766603212
18,15,Jits_Phase_8,3,5,63,98,1766672692
18,15,Jits_Phase_8,0,1,48,57,1767393468
18,15,Jits_Phase_8,1,5,56,103,1767423236
18,15,Jits_Phase_8,2,5,80,127,1767432608
18,15,Jits_Phase_8,3,5,63,98,1767472472
18,15,Jits_Phase_8,0,5,56,103,1768133220
18,15,Jits_Phase_8,1,5,63,98,1768152288
18,15,Jits_Phase_8,2,5,80,127,1768223088
18,15,Jits_Phase_8,3,1,48,57,1768248528
18,15,Jits_Phase_8,0,5,63,98,1768953244
18,15,Jits_Phase_8,1,5,80,127,1769012588
18,15,Jits_Phase_8,2,5,56,103,1769033272
18,15,Jits_Phase_8,3,1,48,46,1769067472
18,15,Jits_Phase_8,0,5,80,127,1769742592
18,15,Jits_Phase_8,1,5,56,103,1769773388
18,15,Jits_Phase_8,2,5,63,98,1769803064
18,15,Jits_Phase_8,3,1,48,53,1769814200
18,15,Jits_Phase_8,0,5,56,103,1770542508
18,15,Jits_Phase_8,1,1,48,55,1770598516
18,15,Jits_Phase_8,2,5,63,98,1770603264
18,15,Jits_Phase_8,3,5,80,127,1770663208
18,15,Jits_Phase_8,0,5,80,127,1771362808
18,15,Jits_Phase_8,1,5,56,103,1771383192
18,15,Jits_Phase_8,2,1,48,55,1771418072
18,15,Jits_Phase_8,3,5,63,98,1771452940
18,15,Jits_Phase_8,0,5,80,127,1772162356
18,15,Jits_Phase_8,1,5,63,98,1772183040
18,15,Jits_Phase_8,2,5,56,103,1772212492
18,15,Jits_Phase_8,3,1,48,46,1772270928
18,15,Jits_Phase_8,0,5,80,127,1772953056
18,15,Jits_Phase_8,1,5,63,98,1772973292
18,15,Jits_Phase_8,2,1,48,55,1773020184
18,15,Jits_Phase_8,3,5,56,103,1773032876
18,15,Jits_Phase_8,0,5,80,127,1773753124
18,15,Jits_Phase_8,1,1,48,53,1773797096
18,15,Jits_Phase_8,2,5,56,103,1773853020
18,15,Jits_Phase_8,3,5,63,98,1773882696
18,15,Jits_Phase_8,0,5,63,98,1774543088
18,15,Jits_Phase_8,1,5,80,127,1774593464
18,15,Jits_Phase_8,2,5,56,103,1774612876
18,15,Jits_Phase_8,3,1,48,57,1774615244
18,15,Jits_Phase_8,0,5,80,127,1775382948
18,15,Jits_Phase_8,1,1,48,48,1775409060
18,15,Jits_Phase_8,2,5,56,103,1775412764
18,15,Jits_Phase_8,3,5,63,98,1775415904
18,15,Jits_Phase_8,0,1,48,58,1776218488
18,15,Jits_Phase_8,1,5,63,98,1776232832
18,15,Jits_Phase_8,2,5,56,103,1776272844
18,15,Jits_Phase_8,3,5,80,127,1776293228
18,15,Jits_Phase_8,0,5,80,127,1776992664
18,15,Jits_Phase_8,1,1,48,56,1777041116
18,15,Jits_Phase_8,2,5,63,98,1777072604
18,15,Jits_Phase_8,3,5,56,103,1777112420
18,15,Jits_Phase_8,0,5,63,98,1777812820
18,15,Jits_Phase_8,1,1,48,53,1777849648
18,15,Jits_Phase_8,2,5,80,127,1777892784
18,15,Jits_Phase_8,3,5,56,103,1777913392
18,15,Jits_Phase_8,0,5,56,103,1778652544
18,15,Jits_Phase_8,1,1,48,51,1778663112
18,15,Jits_Phase_8,2,5,63,98,1778664676
18,15,Jits_Phase_8,3,5,80,127,1778702596
18,15,Jits_Phase_8,0,5,56,103,1779373620
18,15,Jits_Phase_8,1,5,80,127,1779376688
18,15,Jits_Phase_8,2,1,48,58,1779468532
18,15,Jits_Phase_8,3,5,63,98,1779512616
18,15,Jits_Phase_8,0,5,56,103,1780162896
18,15,Jits_Phase_8,1,5,63,98,1780252908
18,15,Jits_Phase_8,2,1,48,53,1780305544
18,15,Jits_Phase_8,3,5,80,127,1780322876
18,15,Jits_Phase_8,0,5,63,98,1781042632
18,15,Jits_Phase_8,1,5,80,127,1781045772
18,15,Jits_Phase_8,2,1,48,43,1781091832
18,15,Jits_Phase_8,3,5,56,103,1781102944
18,15,Jits_Phase_8,0,5,80,127,1781883372
18,15,Jits_Phase_8,1,1,48,39,1781890176
18,15,Jits_Phase_8,2,5,56,103,1781902628
18,15,Jits_Phase_8,3,5,63,98,1781912900
18,15,Jits_Phase_8,0,5,56,103,1782592872
18,15,Jits_Phase_8,1,5,63,98,1782603216
18,15,Jits_Phase_8,2,5,80,127,1782672968
18,15,Jits_Phase_8,3,1,48,57,1782683960
18,15,Jits_Phase_8,0,5,80,127,1783392488
18,15,Jits_Phase_8,1,5,56,103,1783442768
18,15,Jits_Phase_8,2,5,63,98,1783493040
18,15,Jits_Phase_8,3,1,48,41,1783522636
18,15,Jits_Phase_8,0,5,56,103,1784273724
18,15,Jits_Phase_8,1,1,48,44,1784274764
18,15,Jits_Phase_8,2,5,63,98,1784282420
18,15,Jits_Phase_8,3,5,80,127,1784322432
18,15,Jits_Phase_8,0,5,56,103,1785012496
18,15,Jits_Phase_8,1,5,63,98,1785052460
18,15,Jits_Phase_8,2,5,80,127,1785102732
18,15,Jits_Phase_8,3,1,48,50,1785104672
18,15,Jits_Phase_8,0,5,80,127,1785773384
18,15,Jits_Phase_8,1,5,56,103,1785822488
18,15,Jits_Phase_8,2,5,63,98,1785843320
18,15,Jits_Phase_8,3,1,48,54,1785851540
18,15,Jits_Phase_8,0,5,80,127,1786583516
18,15,Jits_Phase_8,1,5,63,98,1786642712
18,15,Jits_Phase_8,2,1,48,56,1786651008
18,15,Jits_Phase_8,3,5,56,103,1786722648
18,15,Jits_Phase_8,0,5,80,127,1787362760
18,15,Jits_Phase_8,1,5,56,103,1787402476
18,15,Jits_Phase_8,2,5,63,98,1787423380
18,15,Jits_Phase_8,3,1,48,54,1787488220
18,15,Jits_Phase_8,0,5,56,103,1788212576
18,15,Jits_Phase_8,1,5,80,127,1788222772
18,15,Jits_Phase_8,2,5,63,98,1788262860
18,15,Jits_Phase_8,3,1,48,52,1788263824
18,15,Jits_Phase_8,0,1,48,52,1789026092
18,15,Jits_Phase_8,1,5,56,103,1789083140
18,15,Jits_Phase_8,2,5,63,98,1789123064
18,15,Jits_Phase_8,3,5,80,127,1789126424
18,15,Jits_Phase_8,0,5,63,98,1789752544
18,15,Jits_Phase_8,1,5,80,127,1789792560
18,15,Jits_Phase_8,2,1,48,50,1789836128
18,15,Jits_Phase_8,3,5,56,103,1789863276
18,15,Jits_Phase_8,0,5,63,98,1790523008
18,15,Jits_Phase_8,1,5,56,103,1790602580
18,15,Jits_Phase_8,2,1,48,51,1790658884
18,15,Jits_Phase_8,3,5,80,127,1790663184
18,15,Jits_Phase_8,0,5,80,127,1791332880
18,15,Jits_Phase_8,1,5,63,98,1791383084
18,15,Jits_Phase_8,2,5,56,103,1791412684
18,15,Jits_Phase_8,3,1,48,58,1791435808
18,15,Jits_Phase_8,0,5,56,103,1792123212
18,15,Jits_Phase_8,1,5,63,98,1792173636
18,15,Jits_Phase_8,2,5,80,127,1792182788
18,15,Jits_Phase_8,3,1,48,52,1792225036
18,15,Jits_Phase_8,0,5,56,103,1792933164
18,15,Jits_Phase_8,1,1,48,51,1793018488
18,15,Jits_Phase_8,2,5,63,98,1793042948
18,15,Jits_Phase_8,3,5,80,127,1793063256
18,15,Jits_Phase_8,0,5,63,98,1793733088
18,15,Jits_Phase_8,1,5,80,127,1793783316
18,15,Jits_Phase_8,2,1,48,46,1793837228
18,15,Jits_Phase_8,3,5,56,103,1793873216
18,15,Jits_Phase_8,0,5,63,98,1794522608
18,15,Jits_Phase_8,1,5,80,127,1794553180
18,15,Jits_Phase_8,2,5,56,103,1794643384
18,15,Jits_Phase_8,3,1,48,44,1794666424
18,15,Jits_Phase_8,0,5,63,98,1795323108
18,15,Jits_Phase_8,1,5,56,103,1795332480
18,15,Jits_Phase_8,2,5,80,127,1795432800
18,15,Jits_Phase_8,3,1,48,52,1795465360
18,15,Jits_Phase_8,0,5,63,98,1796223256
18,15,Jits_Phase_8,1,5,80,127,1796253008
18,15,Jits_Phase_8,2,1,48,40,1796267956
18,15,Jits_Phase_8,3,5,56,103,1796282972
18,15,Jits_Phase_8,0,5,80,127,1797042504
18,15,Jits_Phase_8,1,5,63,98,1797052700
18,15,Jits_Phase_8,2,5,56,103,1797082472
18,15,Jits_Phase_8,3,1,48,43,1797091212
18,15,Jits_Phase_8,0,5,80,127,1797743008
18,15,Jits_Phase_8,1,5,63,98,1797762272
18,15,Jits_Phase_8,2,5,56,103,1797812920
18,15,Jits_Phase_8,3,1,48,53,1797883712
18,15,Jits_Phase_8,0,5,63,98,1798573644
18,15,Jits_Phase_8,1,5,80,127,1798632936
18,15,Jits_Phase_8,2,1,48,56,1798647892
18,15,Jits_Phase_8,3,5,56,103,1798653168
18,15,Jits_Phase_8,0,5,63,98,1799333172
18,15,Jits_Phase_8,1,5,56,103,1799383400
18,15,Jits_Phase_8,2,5,80,127,1799392844
18,15,Jits_Phase_8,3,1,48,52,1799443012
18,15,Jits_Phase_8,0,5,56,103,1800162692
18,15,Jits_Phase_8,1,5,80,127,1800172964
18,15,Jits_Phase_8,2,1,48,51,1800209260
18,15,Jits_Phase_8,3,5,63,98,1800273200
18,15,Jits_Phase_8,0,5,80,127,1800922832
18,15,Jits_Phase_8,1,5,63,98,1800932804
18,15,Jits_Phase_8,2,1,48,37,1801056312
18,15,Jits_Phase_8,3,1,38,12,1801067824
18,15,Jits_Phase_8,4,5,56,103,1801083212
18,15,Jits_Phase_8,0,5,63,98,1801732572
18,15,Jits_Phase_8,1,5,80,127,1801773632
18,15,Jits_Phase_8,2,5,56,103,1801853276
18,15,Jits_Phase_8,3,1,48,24,1801864860
18,15,Jits_Phase_8,4,1,38,15,1801876900
18,15,Jits_Phase_8,0,5,56,103,1802483112
18,15,Jits_Phase_8,1,5,80,127,1802583508
18,15,Jits_Phase_8,2,5,63,98,1802602848
18,15,Jits_Phase_8,3,1,48,43,1802640264
18,15,Jits_Phase_8,0,5,80,127,1803303492
18,15,Jits_Phase_8,1,5,56,103,1803312644
18,15,Jits_Phase_8,2,5,63,98,1803402624
18,15,Jits_Phase_8,3,1,48,36,1803418468
18,15,Jits_Phase_8,0,5,56,103,1804103040
18,15,Jits_Phase_8,1,5,63,98,1804122676
18,15,Jits_Phase_8,2,1,48,47,1804195616
18,15,Jits_Phase_8,3,5,80,127,1804203584
18,15,Jits_Phase_8,4,1,38,15,1804211284
18,15,Jits_Phase_8,0,5,63,98,1804852488
18,15,Jits_Phase_8,1,5,56,103,1804942616
18,15,Jits_Phase_8,2,5,80,127,1804945684
18,15,Jits_Phase_8,3,1,48,42,1804984844
18,15,Jits_Phase_8,0,5,56,103,1805683172
18,15,Jits_Phase_8,1,1,48,38,1805708388
18,15,Jits_Phase_8,2,1,38,12,1805719228
18,15,Jits_Phase_8,3,5,80,127,1805742564
18,15,Jits_Phase_8,4,5,63,98,1805752612
18,15,Jits_Phase_8,0,1,48,34,1806513036
18,15,Jits_Phase_8,1,1,38,13,1806524632
18,15,Jits_Phase_8,2,5,80,127,1806532972
18,15,Jits_Phase_8,3,5,56,103,1806543316
18,15,Jits_Phase_8,4,5,63,98,1806546604
18,15,Jits_Phase_8,0,5,56,103,1807292724
18,15,Jits_Phase_8,1,1,48,44,1807300032
18,15,Jits_Phase_8,2,5,80,127,1807303136
18,15,Jits_Phase_8,3,5,63,98,1807322424
18,15,Jits_Phase_8,0,5,63,98,1808062972
18,15,Jits_Phase_8,1,1,48,40,1808100888
18,15,Jits_Phase_8,2,5,80,127,1808123308
18,15,Jits_Phase_8,3,5,56,103,1808173432
18,15,Jits_Phase_8,0,1,48,29,1808915164
18,15,Jits_Phase_8,1,1,38,16,1808927204
18,15,Jits_Phase_8,2,5,63,98,1808942444
18,15,Jits_Phase_8,3,5,56,103,1808952640
18,15,Jits_Phase_8,4,5,80,127,1809002988
18,15,Jits_Phase_8,0,5,63,98,1809642964
18,15,Jits_Phase_8,1,5,80,127,1809663276
18,15,Jits_Phase_8,2,5,56,103,1809672648
18,15,Jits_Phase_8,3,1,48,53,1809714796
18,15,Jits_Phase_8,0,5,63,98,1810442632
18,15,Jits_Phase_8,1,5,80,127,1810445920
18,15,Jits_Phase_8,2,5,56,103,1810482492
18,15,Jits_Phase_8,3,1,48,42,1810507256
18,15,Jits_Phase_8,0,1,48,42,1811253504
18,15,Jits_Phase_8,1,5,63,98,1811312940
18,15,Jits_Phase_8,2,5,80,127,1811342616
18,15,Jits_Phase_8,3,5,56,103,1811353020
18,15,Jits_Phase_8,0,5,56,103,1812062432
18,15,Jits_Phase_8,1,1,48,36,1812084056
18,15,Jits_Phase_8,2,5,80,127,1812093224
18,15,Jits_Phase_8,3,5,63,98,1812123268
18,15,Jits_Phase_8,0,1,48,37,1812833400
18,15,Jits_Phase_8,1,5,63,98,1812962900
18,15,Jits_Phase_8,2,5,56,103,1813002760
18,15,Jits_Phase_8,3,5,80,127,1813005604
18,15,Jits_Phase_8,0,5,80,127,1813663228
18,15,Jits_Phase_8,1,5,56,103,1813743200
18,15,Jits_Phase_8,2,1,48,41,1813766324
18,15,Jits_Phase_8,3,5,63,98,1813793020
18,15,Jits_Phase_8,0,5,80,127,1814443300
18,15,Jits_Phase_8,1,5,56,103,1814462936
18,15,Jits_Phase_8,2,5,63,98,1814552868
18,15,Jits_Phase_8,3,1,48,44,1814569016
18,15,Jits_Phase_8,0,5,80,127,1815283028
18,15,Jits_Phase_8,1,5,63,98,1815323116
18,15,Jits_Phase_8,2,1,48,49,1815332536
18,15,Jits_Phase_8,3,5,56,103,1815362900
18,15,Jits_Phase_8,0,5,63,98,1816092992
18,15,Jits_Phase_8,1,1,48,43,1816098880
18,15,Jits_Phase_8,2,5,80,127,1816152480
18,15,Jits_Phase_8,3,5,56,103,1816183128
18,15,Jits_Phase_8,0,1,48,41,1816926496
18,15,Jits_Phase_8,1,5,56,103,1816932820
18,15,Jits_Phase_8,2,5,80,127,1816962348
18,15,Jits_Phase_8,3,5,63,98,1817052412
18,15,Jits_Phase_8,0,5,56,103,1817742920
18,15,Jits_Phase_8,1,1,48,53,1817797580
18,15,Jits_Phase_8,2,5,80,127,1817853228
18,15,Jits_Phase_8,3,5,63,98,1817882976
18,15,Jits_Phase_8,0,5,56,103,1818592624
18,15,Jits_Phase_8,1,1,48,50,1818646380
18,15,Jits_Phase_8,2,5,63,98,1818653008
18,15,Jits_Phase_8,3,5,80,127,1818682980
18,15,Jits_Phase_8,0,5,56,103,1819362956
18,15,Jits_Phase_8,1,1,48,50,1819416492
18,15,Jits_Phase_8,2,5,63,98,1819433456
18,15,Jits_Phase_8,3,5,80,127,1819452792
18,15,Jits_Phase_8,0,5,80,127,1820132836
18,15,Jits_Phase_8,1,5,63,98,1820153072
18,15,Jits_Phase_8,2,5,56,103,1820203276
18,15,Jits_Phase_8,3,1,48,53,1820215312
18,15,Jits_Phase_8,0,5,63,98,1820952912
18,15,Jits_Phase_8,1,1,48,50,1820956704
18,15,Jits_Phase_8,2,5,80,127,1820963176
18,15,Jits_Phase_8,3,5,56,103,1821013300
18,15,Jits_Phase_8,0,1,48,50,1821751684
18,15,Jits_Phase_8,1,5,63,98,1821753708
18,15,Jits_Phase_8,2,5,80,127,1821823388
18,15,Jits_Phase_8,3,5,56,103,1821842876
18,15,Jits_Phase_8,0,5,63,98,1822583060
18,15,Jits_Phase_8,1,5,80,127,1822586576
18,15,Jits_Phase_8,2,1,48,57,1822600948
18,15,Jits_Phase_8,3,5,56,103,1822652664
18,15,Jits_Phase_8,0,5,80,127,1823332692
18,15,Jits_Phase_8,1,5,56,103,1823353152
18,15,Jits_Phase_8,2,5,63,98,1823362524
18,15,Jits_Phase_8,3,1,48,48,1823428336
18,15,Jits_Phase_8,0,5,56,103,1824152836
18,15,Jits_Phase_8,1,1,48,52,1824207000
18,15,Jits_Phase_8,2,5,63,98,1824242988
18,15,Jits_Phase_8,3,5,80,127,1824246576
18,15,Jits_Phase_8,0,5,80,127,1824922932
18,15,Jits_Phase_8,1,5,56,103,1824933128
18,15,Jits_Phase_8,2,5,63,98,1824952764
18,15,Jits_Phase_8,3,1,48,55,1825063264
18,15,Jits_Phase_8,0,5,63,98,1825722844
18,15,Jits_Phase_8,1,5,80,127,1825783408
18,15,Jits_Phase_8,2,5,56,103,1825793828
18,15,Jits_Phase_8,3,1,48,54,1825812912
18,15,Jits_Phase_8,0,1,48,57,1826559812
18,15,Jits_Phase_8,1,5,63,98,1826593264
18,15,Jits_Phase_8,2,5,80,127,1826622944
18,15,Jits_Phase_8,3,5,56,103,1826662716
18,15,Jits_Phase_8,0,1,48,61,1827379812
18,15,Jits_Phase_8,1,5,56,103,1827382620
18,15,Jits_Phase_8,2,5,80,127,1827392964
18,15,Jits_Phase_8,3,5,63,98,1827432752
18,15,Jits_Phase_8,0,5,80,127,1828142528
18,15,Jits_Phase_8,1,1,48,61,1828181464
18,15,Jits_Phase_8,2,5,56,103,1828223512
18,15,Jits_Phase_8,3,5,63,98,1828232588
18,15,Jits_Phase_8,0,5,80,127,1828993620
18,15,Jits_Phase_8,1,1,48,58,1829022892
18,15,Jits_Phase_8,2,5,56,103,1829073432
18,15,Jits_Phase_8,3,5,63,98,1829082432
18,15,Jits_Phase_8,0,5,80,127,1829833256
18,15,Jits_Phase_8,1,1,48,55,1829852444
18,15,Jits_Phase_8,2,5,56,103,1829883404
18,15,Jits_Phase_8,3,5,63,98,1829933456
18,15,Jits_Phase_8,0,1,48,56,1830705316
18,15,Jits_Phase_8,1,5,56,103,1830773292
18,15,Jits_Phase_8,2,5,63,98,1830776212
18,15,Jits_Phase_8,3,5,80,127,1830823404
18,15,Jits_Phase_8,0,1,48,55,1831589496
18,15,Jits_Phase_8,1,5,56,103,1831593280
18,15,Jits_Phase_8,2,5,63,98,1831623180
18,15,Jits_Phase_8,3,5,80,127,1831633248
18,15,Jits_Phase_8,0,5,63,98,1832302920
18,15,Jits_Phase_8,1,1,48,60,1832372828
18,15,Jits_Phase_8,2,5,56,103,1832374320
18,15,Jits_Phase_8,3,5,80,127,1832422896
18,15,Jits_Phase_8,0,5,63,98,1833133548
18,15,Jits_Phase_8,1,5,56,103,1833142620
18,15,Jits_Phase_8,2,1,48,62,1833144728
18,15,Jits_Phase_8,3,5,80,127,1833147248
18,15,Jits_Phase_8,0,5,80,127,1833883168
18,15,Jits_Phase_8,1,1,48,62,1833905992
18,15,Jits_Phase_8,2,5,56,103,1833943356
18,15,Jits_Phase_8,3,5,63,98,1834032500
18,15,Jits_Phase_8,0,5,80,127,1834682716
18,15,Jits_Phase_8,1,1,48,54,1834736204
18,15,Jits_Phase_8,2,5,56,103,1834783060
18,15,Jits_Phase_8,3,5,63,98,1834823148
18,15,Jits_Phase_8,0,5,56,103,1835532716
18,15,Jits_Phase_8,1,5,63,98,1835553176
18,15,Jits_Phase_8,2,5,80,127,1835593260
18,15,Jits_Phase_8,3,1,48,53,1835610552
18,15,Jits_Phase_8,0,5,63,98,1836302672
18,15,Jits_Phase_8,1,5,56,103,1836323056
18,15,Jits_Phase_8,2,1,48,56,1836409696
18,15,Jits_Phase_8,3,5,80,127,1836422396
18,15,Jits_Phase_8,0,5,63,98,1837093212
18,15,Jits_Phase_8,1,1,48,39,1837180680
18,15,Jits_Phase_8,2,5,80,127,1837202896
18,15,Jits_Phase_8,3,5,56,103,1837232420
18,15,Jits_Phase_8,0,5,56,103,1837912380
18,15,Jits_Phase_8,1,5,63,98,1837943104
18,15,Jits_Phase_8,2,1,48,34,1837979028
18,15,Jits_Phase_8,3,1,38,14,1837987852
18,15,Jits_Phase_8,4,5,80,127,1837993352
18,15,Jits_Phase_8,0,5,63,98,1838682412
18,15,Jits_Phase_8,1,5,56,103,1838713136
18,15,Jits_Phase_8,2,5,80,127,1838763336
18,15,Jits_Phase_8,3,1,48,54,1838767872
18,15,Jits_Phase_8,0,5,56,103,1839512880
18,15,Jits_Phase_8,1,5,63,98,1839533416
18,15,Jits_Phase_8,2,1,48,45,1839539676
18,15,Jits_Phase_8,3,5,80,127,1839613228
18,15,Jits_Phase_8,0,5,63,98,1840282984
18,15,Jits_Phase_8,1,1,48,43,1840329024
18,15,Jits_Phase_8,2,5,56,103,1840343468
18,15,Jits_Phase_8,3,5,80,127,1840373144
18,15,Jits_Phase_8,0,5,56,103,1841122768
18,15,Jits_Phase_8,1,1,48,38,1841152196
18,15,Jits_Phase_8,2,5,80,127,1841183228
18,15,Jits_Phase_8,3,5,63,98,1841222944
18,15,Jits_Phase_8,0,5,63,98,1841902916
18,15,Jits_Phase_8,1,1,48,52,1841956604
18,15,Jits_Phase_8,2,5,56,103,1841963376
18,15,Jits_Phase_8,3,5,80,127,1842032980
18,15,Jits_Phase_8,0,1,48,31,1842752172
18,15,Jits_Phase_8,1,5,56,103,1842782760
18,15,Jits_Phase_8,2,5,63,98,1842792880
18,15,Jits_Phase_8,3,5,80,127,1842796244
18,15,Jits_Phase_8,0,5,63,98,1843522808
18,15,Jits_Phase_8,1,1,48,42,1843580012
18,15,Jits_Phase_8,2,5,56,103,1843583340
18,15,Jits_Phase_8,3,5,80,127,1843586852
18,15,Jits_Phase_8,0,5,63,98,1844303220
18,15,Jits_Phase_8,1,5,80,127,1844332896
18,15,Jits_Phase_8,2,5,56,103,1844353432
18,15,Jits_Phase_8,3,1,48,52,1844367332
18,15,Jits_Phase_8,0,5,56,103,1845033220
18,15,Jits_Phase_8,1,5,63,98,1845082528
18,15,Jits_Phase_8,2,1,48,57,1845152324
18,15,Jits_Phase_8,3,5,80,127,1845163584
18,15,Jits_Phase_8,0,5,80,127,1845732764
18,15,Jits_Phase_8,1,5,63,98,1845772552
18,15,Jits_Phase_8,2,5,56,103,1845793236
18,15,Jits_Phase_8,3,1,48,53,1845901612
18,15,Jits_Phase_8,0,5,56,103,1846603104
18,15,Jits_Phase_8,1,5,80,127,1846613376
18,15,Jits_Phase_8,2,1,48,44,1846623164
18,15,Jits_Phase_8,3,5,63,98,1846632932
18,15,Jits_Phase_8,0,5,56,103,1847383624
18,15,Jits_Phase_8,1,1,48,43,1847387788
18,15,Jits_Phase_8,2,5,63,98,1847432696
18,15,Jits_Phase_8,3,5,80,127,1847463420
18,15,Jits_Phase_8,0,5,56,103,1848133052
18,15,Jits_Phase_8,1,5,63,98,1848143100
18,15,Jits_Phase_8,2,1,48,37,1848154236
18,15,Jits_Phase_8,3,5,80,127,1848193516
18,15,Jits_Phase_8,0,5,56,103,1848922552
18,15,Jits_Phase_8,1,5,80,127,1848925468
18,15,Jits_Phase_8,2,1,48,51,1848998556
18,15,Jits_Phase_8,3,5,63,98,1849083344
18,15,Jits_Phase_8,0,5,63,98,1849742692
18,15,Jits_Phase_8,1,5,56,103,1849813520
18,15,Jits_Phase_8,2,1,48,43,1849826300
18,15,Jits_Phase_8,3,5,80,127,1849853524
18,15,Jits_Phase_8,0,5,63,98,1850583308
18,15,Jits_Phase_8,1,1,48,38,1850605832
18,15,Jits_Phase_8,2,5,56,103,1850672532
18,15,Jits_Phase_8,3,5,80,127,1850675524
18,15,Jits_Phase_8,0,5,56,103,1851362756
18,15,Jits_Phase_8,1,5,63,98,1851452968
18,15,Jits_Phase_8,2,1,48,55,1851454904
18,15,Jits_Phase_8,3,5,80,127,1851463600
18,15,Jits_Phase_8,0,5,56,103,1852132864
18,15,Jits_Phase_8,1,5,63,98,1852182844
18,15,Jits_Phase_8,2,5,80,127,1852212520
18,15,Jits_Phase_8,3,1,48,54,1852251228
18,15,Jits_Phase_8,0,5,63,98,1853013472
18,15,Jits_Phase_8,1,5,80,127,1853022548
18,15,Jits_Phase_8,2,1,48,46,1853040960
18,15,Jits_Phase_8,3,5,56,103,1853082856
18,15,Jits_Phase_8,0,5,63,98,1853733224
18,15,Jits_Phase_8,1,5,80,127,1853792568
18,15,Jits_Phase_8,2,1,48,40,1853823112
18,15,Jits_Phase_8,3,5,56,103,1853832496
18,15,Jits_Phase_8,0,1,48,51,1854605016
18,15,Jits_Phase_8,1,5,56,103,1854633292
18,15,Jits_Phase_8,2,5,80,127,1854653000
18,15,Jits_Phase_8,3,5,63,98,1854673188
18,15,Jits_Phase_8,0,5,63,98,1855353272
18,15,Jits_Phase_8,1,5,56,103,1855372536
18,15,Jits_Phase_8,2,5,80,127,1855412620
18,15,Jits_Phase_8,3,1,48,41,1855426300
18,15,Jits_Phase_8,0,5,63,98,1856163364
18,15,Jits_Phase_8,1,5,80,127,1856192820
18,15,Jits_Phase_8,2,1,48,39,1856207868
18,15,Jits_Phase_8,3,5,56,103,1856213520
18,15,Jits_Phase_8,0,5,80,127,1856933228
18,15,Jits_Phase_8,1,1,48,39,1856982324
18,15,Jits_Phase_8,2,5,56,103,1856984044
18,15,Jits_Phase_8,3,5,63,98,1857043088
18,15,Jits_Phase_8,0,5,63,98,1857722732
18,15,Jits_Phase_8,1,1,48,60,1857803796
18,15,Jits_Phase_8,2,5,56,103,1857842480
18,15,Jits_Phase_8,3,5,80,127,1857873200
18,15,Jits_Phase_8,0,5,80,127,1858562524
18,15,Jits_Phase_8,1,5,63,98,1858582984
18,15,Jits_Phase_8,2,1,48,53,1858585576
18,15,Jits_Phase_8,3,5,56,103,1858652656
18,15,Jits_Phase_8,0,5,63,98,1859382604
18,15,Jits_Phase_8,1,5,56,103,1859393096
18,15,Jits_Phase_8,2,1,48,65,1859400948
18,15,Jits_Phase_8,3,5,80,127,1859472956
18,15,Jits_Phase_8,0,1,48,62,1860176108
18,15,Jits_Phase_8,1,5,56,103,1860243040
18,15,Jits_Phase_8,2,5,80,127,1860273452
18,15,Jits_Phase_8,3,5,63,98,1860282676
18,15,Jits_Phase_8,0,9999,9999,9999,9999,1725400124
18,15,Jits_Phase_8,1,9999,9999,9999,9999,1726200960
18,15,Jits_Phase_8,2,9999,9999,9999,9999,1727000696
18,15,Jits_Phase_8,3,9999,9999,9999,9999,1727800432
18,15,Jits_Phase_8,4,9999,9999,9999,9999,1728600140
18,15,Jits_Phase_8,5,9999,9999,9999,9999,1729400944
18,15,Jits_Phase_8,6,9999,9999,9999,9999,1730200640
18,15,Jits_Phase_8,7,9999,9999,9999,9999,1731000412
18,15,Jits_Phase_8,8,9999,9999,9999,9999,1731800136
18,15,Jits_Phase_8,9,9999,9999,9999,9999,1732600928
18,15,Jits_Phase_8,10,9999,9999,9999,9999,1733400628
18,15,Jits_Phase_8,11,9999,9999,9999,9999,1734200404
18,15,Jits_Phase_8,12,9999,9999,9999,9999,1735000180
18,15,Jits_Phase_8,13,9999,9999,9999,9999,1735800920
18,15,Jits_Phase_8,14,9999,9999,9999,9999,1736600664
18,15,Jits_Phase_8,15,9999,9999,9999,9999,1737400428
18,15,Jits_Phase_8,16,9999,9999,9999,9999,1738200188
18,15,Jits_Phase_8,17,9999,9999,9999,9999,1739000936
18,15,Jits_Phase_8,18,9999,9999,9999,9999,1739800700
18,15,Jits_Phase_8,19,9999,9999,9999,9999,1740600400
18,15,Jits_Phase_8,20,9999,9999,9999,9999,1741400156
18,15,Jits_Phase_8,21,9999,9999,9999,9999,1742200884
18,15,Jits_Phase_8,22,9999,9999,9999,9999,1743000676
18,15,Jits_Phase_8,23,9999,9999,9999,9999,1743800428
18,15,Jits_Phase_8,24,9999,9999,9999,9999,1744600132
18,15,Jits_Phase_8,25,9999,9999,9999,9999,1745400936
18,15,Jits_Phase_8,26,9999,9999,9999,9999,1746200636
18,15,Jits_Phase_8,27,9999,9999,9999,9999,1747000404
18,15,Jits_Phase_8,28,9999,9999,9999,9999,1747800176
18,15,Jits_Phase_8,29,9999,9999,9999,9999,1748600928
18,15,Jits_Phase_8,30,9999,9999,9999,9999,1749380156
18,15,Jits_Phase_8,31,9999,9999,9999,9999,1750180960
18,15,Jits_Phase_8,32,9999,9999,9999,9999,1750980732
18,15,Jits_Phase_8,33,9999,9999,9999,9999,1751780448
18,15,Jits_Phase_8,34,9999,9999,9999,9999,1752580220
18,15,Jits_Phase_8,35,9999,9999,9999,9999,1753380972
18,15,Jits_Phase_8,36,9999,9999,9999,9999,1754180664
18,15,Jits_Phase_8,37,9999,9999,9999,9999,1754980440
18,15,Jits_Phase_8,38,9999,9999,9999,9999,1755780208
18,15,Jits_Phase_8,39,9999,9999,9999,9999,1756580952
18,15,Jits_Phase_8,40,9999,9999,9999,9999,1757380716
18,15,Jits_Phase_8,41,9999,9999,9999,9999,1758180440
18,15,Jits_Phase_8,42,9999,9999,9999,9999,1758980196
18,15,Jits_Phase_8,43,9999,9999,9999,9999,1759780932
18,15,Jits_Phase_8,44,9999,9999,9999,9999,1760580672
18,15,Jits_Phase_8,45,9999,9999,9999,9999,1761380432
18,15,Jits_Phase_8,46,9999,9999,9999,9999,1762180204
18,15,Jits_Phase_8,47,9999,9999,9999,9999,1762980944
18,15,Jits_Phase_8,48,9999,9999,9999,9999,1763800148
18,15,Jits_Phase_8,49,9999,9999,9999,9999,1764600960
18,15,Jits_Phase_8,50,9999,9999,9999,9999,1765400640
18,15,Jits_Phase_8,51,9999,9999,9999,9999,1766200412
18,15,Jits_Phase_8,52,9999,9999,9999,9999,1767000184
18,15,Jits_Phase_8,53,9999,9999,9999,9999,1767800936
18,15,Jits_Phase_8,54,9999,9999,9999,9999,1768600688
18,15,Jits_Phase_8,55,9999,9999,9999,9999,1769400388
18,15,Jits_Phase_8,56,9999,9999,9999,9999,1770200168
18,15,Jits_Phase_8,57,9999,9999,9999,9999,1771000912
18,15,Jits_Phase_8,58,9999,9999,9999,9999,1771800684
18,15,Jits_Phase_8,59,9999,9999,9999,9999,1772600376
18,15,Jits_Phase_8,60,9999,9999,9999,9999,1773400148
18,15,Jits_Phase_8,61,9999,9999,9999,9999,1774200896
18,15,Jits_Phase_8,62,9999,9999,9999,9999,1775000664
18,15,Jits_Phase_8,63,9999,9999,9999,9999,1775800412
18,15,Jits_Phase_8,64,9999,9999,9999,9999,1776640072
18,15,Jits_Phase_8,65,9999,9999,9999,9999,1777440884
18,15,Jits_Phase_8,66,9999,9999,9999,9999,1778240588
18,15,Jits_Phase_8,67,9999,9999,9999,9999,1779040348
18,15,Jits_Phase_8,68,9999,9999,9999,9999,1779840112
18,15,Jits_Phase_8,69,9999,9999,9999,9999,1780640856
18,15,Jits_Phase_8,70,9999,9999,9999,9999,1781440620
18,15,Jits_Phase_8,71,9999,9999,9999,9999,1782240340
18,15,Jits_Phase_8,72,9999,9999,9999,9999,1783040108
18,15,Jits_Phase_8,73,9999,9999,9999,9999,1783840852
18,15,Jits_Phase_8,74,9999,9999,9999,9999,1784640632
18,15,Jits_Phase_8,75,9999,9999,9999,9999,1785440332
18,15,Jits_Phase_8,76,9999,9999,9999,9999,1786240100
18,15,Jits_Phase_8,77,9999,9999,9999,9999,1787040848
18,15,Jits_Phase_8,78,9999,9999,9999,9999,1787840612
18,15,Jits_Phase_8,79,9999,9999,9999,9999,1788640336
18,15,Jits_Phase_8,80,9999,9999,9999,9999,1789440108
18,15,Jits_Phase_8,81,9999,9999,9999,9999,1790200908
18,15,Jits_Phase_8,82,9999,9999,9999,9999,1791000668
18,15,Jits_Phase_8,83,9999,9999,9999,9999,1791800424
18,15,Jits_Phase_8,84,9999,9999,9999,9999,1792600192
18,15,Jits_Phase_8,85,9999,9999,9999,9999,1793400936
18,15,Jits_Phase_8,86,9999,9999,9999,9999,1794200632
18,15,Jits_Phase_8,87,9999,9999,9999,9999,1795000388
18,15,Jits_Phase_8,88,9999,9999,9999,9999,1795800164
18,15,Jits_Phase_8,89,9999,9999,9999,9999,1796600900
18,15,Jits_Phase_8,90,9999,9999,9999,9999,1797400668
18,15,Jits_Phase_8,91,9999,9999,9999,9999,1798200436
18,15,Jits_Phase_8,92,9999,9999,9999,9999,1799000136
18,15,Jits_Phase_8,93,9999,9999,9999,9999,1799800936
18,15,Jits_Phase_8,94,9999,9999,9999,9999,1800600692
18,15,Jits_Phase_8,95,9999,9999,9999,9999,1801400416
18,15,Jits_Phase_8,96,9999,9999,9999,9999,1802200144
18,15,Jits_Phase_8,97,9999,9999,9999,9999,1802921040
18,15,Jits_Phase_8,98,9999,9999,9999,9999,1803720816
18,15,Jits_Phase_8,99,9999,9999,9999,9999,1804520504
18,15,Jits_Phase_8,100,9999,9999,9999,9999,1805320244
18,15,Jits_Phase_8,101,9999,9999,9999,9999,1806121076
18,15,Jits_Phase_8,102,9999,9999,9999,9999,1806920824
18,15,Jits_Phase_8,103,9999,9999,9999,9999,1807720556
18,15,Jits_Phase_8,104,9999,9999,9999,9999,1808520252
18,15,Jits_Phase_8,105,9999,9999,9999,9999,1809321016
18,15,Jits_Phase_8,106,9999,9999,9999,9999,1810120812
18,15,Jits_Phase_8,107,9999,9999,9999,9999,1810920572
18,15,Jits_Phase_8,108,9999,9999,9999,9999,1811720256
18,15,Jits_Phase_8,109,9999,9999,9999,9999,1812521052
18,15,Jits_Phase_8,110,9999,9999,9999,9999,1813320828
18,15,Jits_Phase_8,111,9999,9999,9999,9999,1814120512
18,15,Jits_Phase_8,112,9999,9999,9999,9999,1814920280
18,15,Jits_Phase_8,113,9999,9999,9999,9999,1815721028
18,15,Jits_Phase_8,114,9999,9999,9999,9999,1816600688
18,15,Jits_Phase_8,115,9999,9999,9999,9999,1817400444
18,15,Jits_Phase_8,116,9999,9999,9999,9999,1818200132
18,15,Jits_Phase_8,117,9999,9999,9999,9999,1819000956
18,15,Jits_Phase_8,118,9999,9999,9999,9999,1819800660
18,15,Jits_Phase_8,119,9999,9999,9999,9999,1820600428
18,15,Jits_Phase_8,120,9999,9999,9999,9999,1821400148
18,15,Jits_Phase_8,121,9999,9999,9999,9999,1822200956
18,15,Jits_Phase_8,122,9999,9999,9999,9999,1823000628
18,15,Jits_Phase_8,123,9999,9999,9999,9999,1823800380
18,15,Jits_Phase_8,124,9999,9999,9999,9999,1824600144
18,15,Jits_Phase_8,125,9999,9999,9999,9999,1825400956
18,15,Jits_Phase_8,126,9999,9999,9999,9999,1826200648
18,15,Jits_Phase_8,127,9999,9999,9999,9999,1827000412
18,15,Jits_Phase_8,128,9999,9999,9999,9999,1827800124
18,15,Jits_Phase_8,129,9999,9999,9999,9999,1828600928
18,15,Jits_Phase_8,130,9999,9999,9999,9999,1829400636
18,15,Jits_Phase_8,131,9999,9999,9999,9999,1830360156
18,15,Jits_Phase_8,132,9999,9999,9999,9999,1831160896
18,15,Jits_Phase_8,133,9999,9999,9999,9999,1831960664
18,15,Jits_Phase_8,134,9999,9999,9999,9999,1832760428
18,15,Jits_Phase_8,135,9999,9999,9999,9999,1833560172
18,15,Jits_Phase_8,136,9999,9999,9999,9999,1834360904
18,15,Jits_Phase_8,137,9999,9999,9999,9999,1835160676
18,15,Jits_Phase_8,138,9999,9999,9999,9999,1835960376
18,15,Jits_Phase_8,139,9999,9999,9999,9999,1836760176
18,15,Jits_Phase_8,140,9999,9999,9999,9999,1837560908
18,15,Jits_Phase_8,141,9999,9999,9999,9999,1838360692
18,15,Jits_Phase_8,142,9999,9999,9999,9999,1839160436
18,15,Jits_Phase_8,143,9999,9999,9999,9999,1839960120
18,15,Jits_Phase_8,144,9999,9999,9999,9999,1840760936
18,15,Jits_Phase_8,145,9999,9999,9999,9999,1841560696
18,15,Jits_Phase_8,146,9999,9999,9999,9999,1842360396
18,15,Jits_Phase_8,147,9999,9999,9999,9999,1843160176
18,15,Jits_Phase_8,148,9999,9999,9999,9999,1843960896
18,15,Jits_Phase_8,149,9999,9999,9999,9999,1844760644
18,15,Jits_Phase_8,150,9999,9999,9999,9999,1845400656
18,15,Jits_Phase_8,151,9999,9999,9999,9999,1846200424
18,15,Jits_Phase_8,152,9999,9999,9999,9999,1847000152
18,15,Jits_Phase_8,153,9999,9999,9999,9999,1847800900
18,15,Jits_Phase_8,154,9999,9999,9999,9999,1848600664
18,15,Jits_Phase_8,155,9999,9999,9999,9999,1849400424
18,15,Jits_Phase_8,156,9999,9999,9999,9999,1850200124
18,15,Jits_Phase_8,157,9999,9999,9999,9999,1851000924
18,15,Jits_Phase_8,158,9999,9999,9999,9999,1851800684
18,15,Jits_Phase_8,159,9999,9999,9999,9999,1852600380
18,15,Jits_Phase_8,160,9999,9999,9999,9999,1853400184
18,15,Jits_Phase_8,161,9999,9999,9999,9999,1854200916
18,15,Jits_Phase_8,162,9999,9999,9999,9999,1855000680
18,15,Jits_Phase_8,163,9999,9999,9999,9999,1855800436
18,15,Jits_Phase_8,164,9999,9999,9999,9999,1856600120
18,15,Jits_Phase_8,165,9999,9999,9999,9999,1857400920
18,15,Jits_Phase_8,166,9999,9999,9999,9999,1858200692
18,15,Jits_Phase_8,167,9999,9999,9999,9999,1859000376
18,15,Jits_Phase_8,168,9999,9999,9999,9999,1859800176
18,15,Jits_Phase_8,169,9999,9999,9999,9999,1860600916
19,5,ISIP_5,0,5,42,127,1914684824
19,5,ISIP_5,1,5,42,127,1915184468
19,5,ISIP_5,2,5,42,127,1915685456
19,5,ISIP_5,3,5,42,127,1916184872
19,5,ISIP_5,4,5,42,127,1916684516
19,5,ISIP_5,5,5,42,127,1917185280
19,5,ISIP_5,6,5,42,127,1917685144
19,5,ISIP_5,7,5,42,127,1918184860
19,5,ISIP_5,8,5,42,127,1918684428
19,5,ISIP_5,9,1,48,68,1918685392
19,5,ISIP_5,10,1,48,63,1919173960
19,5,ISIP_5,11,5,42,127,1919185360
19,5,ISIP_5,12,5,42,127,1919685040
19,5,ISIP_5,13,1,48,58,1919697680
19,5,ISIP_5,14,1,48,59,1920178188
19,5,ISIP_5,15,5,42,127,1920184876
19,5,ISIP_5,16,5,42,127,1920685400
19,5,ISIP_5,17,1,48,58,1920687192
19,5,ISIP_5,18,1,48,48,1921175256
19,5,ISIP_5,19,5,42,127,1921185236
19,5,ISIP_5,20,1,48,60,1921669112
19,5,ISIP_5,21,5,42,127,1921685004
19,5,ISIP_5,22,1,48,70,1922170752
19,5,ISIP_5,23,5,42,127,1922184476
19,5,ISIP_5,24,5,42,127,1922685152
19,5,ISIP_5,25,1,48,64,1922687892
19,5,ISIP_5,26,5,42,127,1923184996
19,5,ISIP_5,27,1,48,57,1923186556
19,5,ISIP_5,28,5,42,127,1923684692
19,5,ISIP_5,29,1,48,55,1923697008
19,5,ISIP_5,30,1,48,57,1924173720
19,5,ISIP_5,31,5,42,127,1924184380
19,5,ISIP_5,32,1,48,56,1924675588
19,5,ISIP_5,33,5,42,127,1924685044
19,5,ISIP_5,34,1,48,52,1925159200
19,5,ISIP_5,35,5,42,127,1925185112
19,5,ISIP_5,36,1,48,55,1925661140
19,5,ISIP_5,37,5,42,127,1925684660
19,5,ISIP_5,38,1,48,49,1926149012
19,5,ISIP_5,39,5,42,127,1926185328
19,5,ISIP_5,40,5,42,127,1926685104
19,5,ISIP_5,41,1,48,56,1926695624
19,5,ISIP_5,42,1,48,52,1927182908
19,5,ISIP_5,43,5,42,127,1927184716
19,5,ISIP_5,44,5,42,127,1927684344
19,5,ISIP_5,45,1,48,47,1927700704
19,5,ISIP_5,46,5,42,127,1928185160
19,5,ISIP_5,47,1,48,50,1928194116
19,5,ISIP_5,48,1,48,65,1928666636
19,5,ISIP_5,49,5,42,127,1928684772
19,5,ISIP_5,50,1,48,65,1929177624
19,5,ISIP_5,51,5,42,127,1929184840
19,5,ISIP_5,52,1,48,63,1929666600
19,5,ISIP_5,53,5,42,127,1929685208
19,5,ISIP_5,54,1,48,62,1930161288
19,5,ISIP_5,55,5,42,127,1930185128
19,5,ISIP_5,56,1,48,50,1930675036
19,5,ISIP_5,57,5,42,127,1930684724
19,5,ISIP_5,58,1,48,55,1931168376
19,5,ISIP_5,59,5,42,127,1931184420
19,5,ISIP_5,60,1,48,59,1931662312
19,5,ISIP_5,61,5,42,127,1931685236
19,5,ISIP_5,62,1,48,56,1932153852
19,5,ISIP_5,63,5,42,127,1932185004
19,5,ISIP_5,64,1,48,58,1932646596
19,5,ISIP_5,65,5,42,127,1932684776
19,5,ISIP_5,66,1,48,71,1933178228
19,5,ISIP_5,67,5,42,127,1933185592
19,5,ISIP_5,68,5,42,127,1933684996
19,5,ISIP_5,69,1,48,69,1933691628
19,5,ISIP_5,70,5,42,127,1934184916
19,5,ISIP_5,71,1,48,64,1934194392
19,5,ISIP_5,72,1,48,58,1934665044
19,5,ISIP_5,73,1,48,53,1935204468
19,5,ISIP_5,74,1,48,66,1935706476
19,5,ISIP_5,75,1,48,63,1936160672
19,5,ISIP_5,76,1,48,59,1936672408
19,5,ISIP_5,77,1,48,54,1937199564
19,5,ISIP_5,78,1,48,57,1937684440
19,5,ISIP_5,79,1,48,57,1938168116
19,5,ISIP_5,80,1,48,56,1938666304
19,5,ISIP_5,81,1,48,62,1939173180
19,5,ISIP_5,82,1,48,65,1939653124
19,5,ISIP_5,83,1,48,52,1940125864
19,5,ISIP_5,84,1,48,47,1940675816
19,5,ISIP_5,85,1,48,54,1941163020
19,5,ISIP_5,86,1,48,54,1941683216
19,5,ISIP_5,87,1,48,58,1942190312
19,5,ISIP_5,88,1,48,61,1942678016
19,5,ISIP_5,89,1,48,56,1943191260
19,5,ISIP_5,90,1,48,49,1943689152
19,5,ISIP_5,91,1,48,60,1944170956
19,5,ISIP_5,92,1,48,62,1944669376
19,5,ISIP_5,93,1,48,65,1945148868
19,5,ISIP_5,94,1,48,65,1945625144
19,5,ISIP_5,95,1,48,61,1946124836
19,5,ISIP_5,96,1,48,61,1946593184
19,5,ISIP_5,97,1,48,49,1947100360
19,5,ISIP_5,98,1,48,46,1947595188
19,5,ISIP_5,99,1,48,50,1948077424
19,5,ISIP_5,100,1,48,57,1948551460
19,5,ISIP_5,101,1,48,45,1949040376
19,5,ISIP_5,102,1,48,53,1949531168
19,5,ISIP_5,103,1,48,55,1949995404
19,5,ISIP_5,104,1,48,52,1950528752
19,5,ISIP_5,105,1,48,42,1951035624
19,5,ISIP_5,106,1,48,56,1951540480
19,5,ISIP_5,107,1,48,51,1952005164
19,5,ISIP_5,108,1,48,50,1952499312
19,5,ISIP_5,109,1,48,49,1952982252
19,5,ISIP_5,110,1,48,51,1953475184
19,5,ISIP_5,111,1,48,48,1953988112
19,5,ISIP_5,112,1,48,31,1954472596
19,5,ISIP_5,113,1,48,50,1954971164
19,5,ISIP_5,114,1,48,48,1955458064
19,5,ISIP_5,115,1,48,52,1955962168
19,5,ISIP_5,116,1,48,56,1956458568
19,5,ISIP_5,117,1,48,56,1956943372
19,5,ISIP_5,118,1,48,57,1957441416
19,5,ISIP_5,119,1,48,58,1957931828
19,5,ISIP_5,120,1,48,58,1958411332
19,5,ISIP_5,121,1,48,56,1958903164
19,5,ISIP_5,122,1,48,57,1959402928
19,5,ISIP_5,123,1,48,51,1959901424
19,5,ISIP_5,124,1,48,53,1960385232
19,5,ISIP_5,125,1,48,55,1960865028
19,5,ISIP_5,126,1,48,55,1961350432
19,5,ISIP_5,127,1,48,56,1961851096
19,5,ISIP_5,128,1,48,60,1962358708
19,5,ISIP_5,129,1,48,57,1962836560
19,5,ISIP_5,130,1,48,58,1963321444
19,5,ISIP_5,131,1,48,59,1963799216
19,5,ISIP_5,132,1,48,51,1964283796
19,5,ISIP_5,133,1,48,58,1964803832
19,5,ISIP_5,134,1,48,59,1965270688
19,5,ISIP_5,135,1,48,60,1965768280
19,5,ISIP_5,136,1,48,59,1966256728
19,5,ISIP_5,137,1,48,56,1966748868
19,5,ISIP_5,138,1,48,48,1967262468
19,5,ISIP_5,139,1,48,53,1967739344
19,5,ISIP_5,140,1,48,48,1968243000
19,5,ISIP_5,141,1,48,56,1968732224
19,5,ISIP_5,142,1,48,52,1969207380
19,5,ISIP_5,143,1,48,55,1969707444
19,5,ISIP_5,144,1,48,51,1970202200
19,5,ISIP_5,145,1,48,51,1970680256
19,5,ISIP_5,146,1,48,53,1971195592
19,5,ISIP_5,147,1,48,50,1971696032
19,5,ISIP_5,148,1,48,48,1972173716
19,5,ISIP_5,149,1,48,58,1972673688
19,5,ISIP_5,150,1,48,60,1973155396
19,5,ISIP_5,151,1,48,61,1973654640
19,5,ISIP_5,152,1,48,58,1974175644
19,5,ISIP_5,153,1,48,52,1974672792
19,5,ISIP_5,154,1,48,51,1975176144
19,5,ISIP_5,155,1,48,52,1975641360
19,5,ISIP_5,156,1,48,34,1976136784
19,5,ISIP_5,157,1,48,33,1976633708
19,5,ISIP_5,158,1,48,49,1977151200
19,5,ISIP_5,159,1,48,51,1977655676
19,5,ISIP_5,160,1,48,59,1978134652
19,5,ISIP_5,161,1,48,48,1978634340
19,5,ISIP_5,162,1,48,57,1979114432
19,5,ISIP_5,163,1,48,56,1979617564
19,5,ISIP_5,164,1,48,56,1980111420
19,5,ISIP_5,165,1,48,52,1980600764
19,5,ISIP_5,166,1,48,49,1981084668
19,5,ISIP_5,167,1,48,51,1981592744
19,5,ISIP_5,168,1,48,50,1982079192
19,5,ISIP_5,169,1,48,53,1982567212
19,5,ISIP_5,170,1,48,52,1983061148
19,5,ISIP_5,171,1,48,50,1983537576
19,5,ISIP_5,172,1,48,55,1984055816
19,5,ISIP_5,173,1,48,52,1984521024
19,5,ISIP_5,174,1,48,61,1985032084
19,5,ISIP_5,175,1,48,53,1985512628
19,5,ISIP_5,176,1,48,50,1986002972
19,5,ISIP_5,177,1,48,50,1986499968
19,5,ISIP_5,178,1,48,42,1986961784
19,5,ISIP_5,179,1,48,52,1987459380
19,5,ISIP_5,180,1,48,47,1987942164
19,5,ISIP_5,181,1,48,60,1988443504
19,5,ISIP_5,182,1,48,54,1988918288
19,5,ISIP_5,183,1,48,54,1989416404
19,5,ISIP_5,184,1,48,61,1989918040
19,5,ISIP_5,185,1,48,56,1990403152
19,5,ISIP_5,186,1,48,58,1990896032
19,5,ISIP_5,187,1,48,57,1991379636
19,5,ISIP_5,188,1,48,59,1991865016
19,5,ISIP_5,189,1,48,59,1992328952
19,5,ISIP_5,190,1,48,54,1992813016
19,5,ISIP_5,191,1,48,53,1993289968
19,5,ISIP_5,192,1,48,54,1993800424
19,5,ISIP_5,193,1,48,58,1994295408
19,5,ISIP_5,0,9999,9999,9999,9999,1914682464
19,5,ISIP_5,1,9999,9999,9999,9999,1915182180
19,5,ISIP_5,2,9999,9999,9999,9999,1915682872
19,5,ISIP_5,3,9999,9999,9999,9999,1916182588
19,5,ISIP_5,4,9999,9999,9999,9999,1916682304
19,5,ISIP_5,5,9999,9999,9999,9999,1917183068
19,5,ISIP_5,6,9999,9999,9999,9999,1917682784
19,5,ISIP_5,7,9999,9999,9999,9999,1918182500
19,5,ISIP_5,8,9999,9999,9999,9999,1918682216
19,5,ISIP_5,9,9999,9999,9999,9999,1919182928
19,5,ISIP_5,10,9999,9999,9999,9999,1919682680
19,5,ISIP_5,11,9999,9999,9999,9999,1920182364
19,5,ISIP_5,12,9999,9999,9999,9999,1920683116
19,5,ISIP_5,13,9999,9999,9999,9999,1921182804
19,5,ISIP_5,14,9999,9999,9999,9999,1921682496
19,5,ISIP_5,15,9999,9999,9999,9999,1922182192
19,5,ISIP_5,16,9999,9999,9999,9999,1922682940
19,5,ISIP_5,17,9999,9999,9999,9999,1923182708
19,5,ISIP_5,18,9999,9999,9999,9999,1923682404
19,5,ISIP_5,19,9999,9999,9999,9999,1924182092
19,5,ISIP_5,20,9999,9999,9999,9999,1924682832
19,5,ISIP_5,21,9999,9999,9999,9999,1925182528
19,5,ISIP_5,22,9999,9999,9999,9999,1925682224
19,5,ISIP_5,23,9999,9999,9999,9999,1926182968
19,5,ISIP_5,24,9999,9999,9999,9999,1926682740
19,5,ISIP_5,25,9999,9999,9999,9999,1927182456
19,5,ISIP_5,26,9999,9999,9999,9999,1927682132
19,5,ISIP_5,27,9999,9999,9999,9999,1928182872
19,5,ISIP_5,28,9999,9999,9999,9999,1928682560
19,5,ISIP_5,29,9999,9999,9999,9999,1929182256
19,5,ISIP_5,30,9999,9999,9999,9999,1929682996
19,5,ISIP_5,31,9999,9999,9999,9999,1930182764
19,5,ISIP_5,32,9999,9999,9999,9999,1930682436
19,5,ISIP_5,33,9999,9999,9999,9999,1931182132
19,5,ISIP_5,34,9999,9999,9999,9999,1931682872
19,5,ISIP_5,35,9999,9999,9999,9999,1932182644
19,5,ISIP_5,36,9999,9999,9999,9999,1932682340
19,5,ISIP_5,37,9999,9999,9999,9999,1933183080
19,5,ISIP_5,38,9999,9999,9999,9999,1933682784
19,5,ISIP_5,39,9999,9999,9999,9999,1934182480
19,5,ISIP_5,40,9999,9999,9999,9999,1934682164
19,5,ISIP_5,41,9999,9999,9999,9999,1935182908
19,5,ISIP_5,42,9999,9999,9999,9999,1935682676
19,5,ISIP_5,43,9999,9999,9999,9999,1936182360
19,5,ISIP_5,44,9999,9999,9999,9999,1936683096
19,5,ISIP_5,45,9999,9999,9999,9999,1937182796
19,5,ISIP_5,46,9999,9999,9999,9999,1937682484
19,5,ISIP_5,47,9999,9999,9999,9999,1938182244
19,5,ISIP_5,48,9999,9999,9999,9999,1938682980
19,5,ISIP_5,49,9999,9999,9999,9999,1939182672
19,5,ISIP_5,50,9999,9999,9999,9999,1939682364
19,5,ISIP_5,51,9999,9999,9999,9999,1940182124
19,5,ISIP_5,52,9999,9999,9999,9999,1940682864
19,5,ISIP_5,53,9999,9999,9999,9999,1941182528
19,5,ISIP_5,54,9999,9999,9999,9999,1941682224
19,5,ISIP_5,55,9999,9999,9999,9999,1942182964
19,5,ISIP_5,56,9999,9999,9999,9999,1942682720
19,5,ISIP_5,57,9999,9999,9999,9999,1943182416
19,5,ISIP_5,58,9999,9999,9999,9999,1943682108
19,5,ISIP_5,59,9999,9999,9999,9999,1944182840
19,5,ISIP_5,60,9999,9999,9999,9999,1944682604
19,5,ISIP_5,61,9999,9999,9999,9999,1945182296
19,5,ISIP_5,62,9999,9999,9999,9999,1945683032
19,5,ISIP_5,63,9999,9999,9999,9999,1946182724
19,5,ISIP_5,64,9999,9999,9999,9999,1946682488
19,5,ISIP_5,65,9999,9999,9999,9999,1947182176
19,5,ISIP_5,66,9999,9999,9999,9999,1947682916
19,5,ISIP_5,67,9999,9999,9999,9999,1948182588
19,5,ISIP_5,68,9999,9999,9999,9999,1948682352
19,5,ISIP_5,69,9999,9999,9999,9999,1949183092
19,5,ISIP_5,70,9999,9999,9999,9999,1949682780
19,5,ISIP_5,71,9999,9999,9999,9999,1950182472
19,5,ISIP_5,72,9999,9999,9999,9999,1950682164
19,5,ISIP_5,73,9999,9999,9999,9999,1951182900
19,5,ISIP_5,74,9999,9999,9999,9999,1951682640
19,5,ISIP_5,75,9999,9999,9999,9999,1952182332
19,5,ISIP_5,76,9999,9999,9999,9999,1952683068
19,5,ISIP_5,77,9999,9999,9999,9999,1953182836
19,5,ISIP_5,78,9999,9999,9999,9999,1953682500
19,5,ISIP_5,79,9999,9999,9999,9999,1954182264
19,5,ISIP_5,80,9999,9999,9999,9999,1954683000
19,5,ISIP_5,81,9999,9999,9999,9999,1955182692
19,5,ISIP_5,82,9999,9999,9999,9999,1955682384
19,5,ISIP_5,83,9999,9999,9999,9999,1956182072
19,5,ISIP_5,84,9999,9999,9999,9999,1956682808
19,5,ISIP_5,85,9999,9999,9999,9999,1957182576
19,5,ISIP_5,86,9999,9999,9999,9999,1957682264
19,5,ISIP_5,87,9999,9999,9999,9999,1958183004
19,5,ISIP_5,88,9999,9999,9999,9999,1958682692
19,5,ISIP_5,89,9999,9999,9999,9999,1959182384
19,5,ISIP_5,90,9999,9999,9999,9999,1959682152
19,5,ISIP_5,91,9999,9999,9999,9999,1960182888
19,5,ISIP_5,92,9999,9999,9999,9999,1960682580
19,5,ISIP_5,93,9999,9999,9999,9999,1961182268
19,5,ISIP_5,94,9999,9999,9999,9999,1961683004
19,5,ISIP_5,95,9999,9999,9999,9999,1962182772
19,5,ISIP_5,96,9999,9999,9999,9999,1962682436
19,5,ISIP_5,97,9999,9999,9999,9999,1963182128
19,5,ISIP_5,98,9999,9999,9999,9999,1963682864
19,5,ISIP_5,99,9999,9999,9999,9999,1964182632
19,5,ISIP_5,100,9999,9999,9999,9999,1964682320
19,5,ISIP_5,101,9999,9999,9999,9999,1965183060
19,5,ISIP_5,102,9999,9999,9999,9999,1965682748
19,5,ISIP_5,103,9999,9999,9999,9999,1966182516
19,5,ISIP_5,104,9999,9999,9999,9999,1966682204
19,5,ISIP_5,105,9999,9999,9999,9999,1967182944
19,5,ISIP_5,106,9999,9999,9999,9999,1967682632
19,5,ISIP_5,107,9999,9999,9999,9999,1968182324
19,5,ISIP_5,108,9999,9999,9999,9999,1968683060
19,5,ISIP_5,109,9999,9999,9999,9999,1969182828
19,5,ISIP_5,110,9999,9999,9999,9999,1969682520
19,5,ISIP_5,111,9999,9999,9999,9999,1970182212
19,5,ISIP_5,112,9999,9999,9999,9999,1970682940
19,5,ISIP_5,113,9999,9999,9999,9999,1971182712
19,5,ISIP_5,114,9999,9999,9999,9999,1971682404
19,5,ISIP_5,115,9999,9999,9999,9999,1972182088
19,5,ISIP_5,116,9999,9999,9999,9999,1972682800
19,5,ISIP_5,117,9999,9999,9999,9999,1973182540
19,5,ISIP_5,118,9999,9999,9999,9999,1973682232
19,5,ISIP_5,119,9999,9999,9999,9999,1974182968
19,5,ISIP_5,120,9999,9999,9999,9999,1974682732
19,5,ISIP_5,121,9999,9999,9999,9999,1975182424
19,5,ISIP_5,122,9999,9999,9999,9999,1975682112
19,5,ISIP_5,123,9999,9999,9999,9999,1976182848
19,5,ISIP_5,124,9999,9999,9999,9999,1976682616
19,5,ISIP_5,125,9999,9999,9999,9999,1977182308
19,5,ISIP_5,126,9999,9999,9999,9999,1977683044
19,5,ISIP_5,127,9999,9999,9999,9999,1978182736
19,5,ISIP_5,128,9999,9999,9999,9999,1978682424
19,5,ISIP_5,129,9999,9999,9999,9999,1979182192
19,5,ISIP_5,130,9999,9999,9999,9999,1979682928
19,5,ISIP_5,131,9999,9999,9999,9999,1980182620
19,5,ISIP_5,132,9999,9999,9999,9999,1980682312
19,5,ISIP_5,133,9999,9999,9999,9999,1981183032
19,5,ISIP_5,134,9999,9999,9999,9999,1981682740
19,5,ISIP_5,135,9999,9999,9999,9999,1982182488
19,5,ISIP_5,136,9999,9999,9999,9999,1982682180
19,5,ISIP_5,137,9999,9999,9999,9999,1983182916
19,5,ISIP_5,138,9999,9999,9999,9999,1983682608
19,5,ISIP_5,139,9999,9999,9999,9999,1984182348
19,5,ISIP_5,140,9999,9999,9999,9999,1984683088
19,5,ISIP_5,141,9999,9999,9999,9999,1985182780
19,5,ISIP_5,142,9999,9999,9999,9999,1985682544
19,5,ISIP_5,143,9999,9999,9999,9999,1986182236
19,5,ISIP_5,144,9999,9999,9999,9999,1986682972
19,5,ISIP_5,145,9999,9999,9999,9999,1987182660
19,5,ISIP_5,146,9999,9999,9999,9999,1987682352
19,5,ISIP_5,147,9999,9999,9999,9999,1988182116
19,5,ISIP_5,148,9999,9999,9999,9999,1988682856
19,5,ISIP_5,149,9999,9999,9999,9999,1989182548
19,5,ISIP_5,150,9999,9999,9999,9999,1989682236
19,5,ISIP_5,151,9999,9999,9999,9999,1990182976
19,5,ISIP_5,152,9999,9999,9999,9999,1990682740
19,5,ISIP_5,153,9999,9999,9999,9999,1991182432
19,5,ISIP_5,154,9999,9999,9999,9999,1991682124
19,5,ISIP_5,155,9999,9999,9999,9999,1992182860
19,5,ISIP_5,156,9999,9999,9999,9999,1992682552
19,5,ISIP_5,157,9999,9999,9999,9999,1993182316
19,5,ISIP_5,158,9999,9999,9999,9999,1993683052
19,5,ISIP_5,159,9999,9999,9999,9999,1994182744
20,3,ISIP_8,0,5,42,127,2031304160
20,3,ISIP_8,1,5,42,127,2032103768
20,3,ISIP_8,2,5,42,127,2032903448
20,3,ISIP_8,3,5,42,127,2033704328
20,3,ISIP_8,4,1,48,55,2034496784
20,3,ISIP_8,5,5,42,127,2034503924
20,3,ISIP_8,6,5,42,127,2035304036
20,3,ISIP_8,7,1,48,57,2035311420
20,3,ISIP_8,8,1,48,53,2036103096
20,3,ISIP_8,9,5,42,127,2036104884
20,3,ISIP_8,10,5,42,127,2036904252
20,3,ISIP_8,11,1,48,58,2036909012
20,3,ISIP_8,12,1,48,54,2037697760
20,3,ISIP_8,13,5,42,127,2037704080
20,3,ISIP_8,14,5,42,127,2038503820
20,3,ISIP_8,15,1,48,62,2038519724
20,3,ISIP_8,16,1,48,60,2039292292
20,3,ISIP_8,17,5,42,127,2039303768
20,3,ISIP_8,18,1,48,56,2040070032
20,3,ISIP_8,19,5,42,127,2040104248
20,3,ISIP_8,20,5,42,127,2040904136
20,3,ISIP_8,21,1,48,57,2040918848
20,3,ISIP_8,22,5,42,127,2041703724
20,3,ISIP_8,23,1,48,61,2041730704
20,3,ISIP_8,24,1,48,48,2042486364
20,3,ISIP_8,25,5,42,127,2042503748
20,3,ISIP_8,26,1,48,57,2043257820
20,3,ISIP_8,27,5,42,127,2043304232
20,3,ISIP_8,28,1,48,54,2044077600
20,3,ISIP_8,29,5,42,127,2044104064
20,3,ISIP_8,30,1,48,51,2044903952
20,3,ISIP_8,31,5,42,127,2044905592
20,3,ISIP_8,32,5,42,127,2045703612
20,3,ISIP_8,33,1,48,48,2045720344
20,3,ISIP_8,34,5,42,127,2046504244
20,3,ISIP_8,35,1,48,64,2046521724
20,3,ISIP_8,36,1,48,58,2047301468
20,3,ISIP_8,37,5,42,127,2047303972
20,3,ISIP_8,38,1,48,57,2048084224
20,3,ISIP_8,39,5,42,127,2048103776
20,3,ISIP_8,40,5,42,127,2048903516
20,3,ISIP_8,41,1,48,57,2048905532
20,3,ISIP_8,42,5,42,127,2049704372
20,3,ISIP_8,43,1,48,57,2049705340
20,3,ISIP_8,44,5,42,127,2050504208
20,3,ISIP_8,45,1,48,60,2050527072
20,3,ISIP_8,46,1,48,57,2051302204
20,3,ISIP_8,47,5,42,127,2051303936
20,3,ISIP_8,48,1,48,60,2052093760
20,3,ISIP_8,49,5,42,127,2052103444
20,3,ISIP_8,50,1,48,57,2052886540
20,3,ISIP_8,51,5,42,127,2052904372
20,3,ISIP_8,52,5,42,127,2053704412
20,3,ISIP_8,53,1,48,57,2053707676
20,3,ISIP_8,54,1,48,58,2054500592
20,3,ISIP_8,55,5,42,127,2054503840
20,3,ISIP_8,56,1,48,60,2055311484
20,3,ISIP_8,57,1,48,58,2056149380
20,3,ISIP_8,58,1,48,58,2056928164
20,3,ISIP_8,59,1,48,48,2057747044
20,3,ISIP_8,60,1,48,49,2058574000
20,3,ISIP_8,61,1,48,47,2059401408
20,3,ISIP_8,62,1,48,61,2060197840
20,3,ISIP_8,63,1,48,59,2061010240
20,3,ISIP_8,64,1,48,58,2061856712
20,3,ISIP_8,65,1,48,57,2062668632
20,3,ISIP_8,66,1,48,59,2063450568
20,3,ISIP_8,67,1,48,58,2064274152
20,3,ISIP_8,68,1,48,56,2065088940
20,3,ISIP_8,69,1,48,59,2065871840
20,3,ISIP_8,70,1,48,54,2066679720
20,3,ISIP_8,71,1,48,54,2067500020
20,3,ISIP_8,72,1,48,60,2068307604
20,3,ISIP_8,73,1,48,58,2069091556
20,3,ISIP_8,74,1,48,51,2069927108
20,3,ISIP_8,75,1,48,54,2070726488
20,3,ISIP_8,76,1,48,53,2071556660
20,3,ISIP_8,77,1,48,57,2072360728
20,3,ISIP_8,78,1,48,51,2073170776
20,3,ISIP_8,79,1,48,54,2074005816
20,3,ISIP_8,80,1,48,57,2074791628
20,3,ISIP_8,81,1,48,69,2075586748
20,3,ISIP_8,82,1,48,48,2076427160
20,3,ISIP_8,83,1,48,66,2077257336
20,3,ISIP_8,84,1,48,60,2078053024
20,3,ISIP_8,85,1,48,59,2078863224
20,3,ISIP_8,86,1,48,64,2079681084
20,3,ISIP_8,87,1,48,68,2080478788
20,3,ISIP_8,88,1,48,45,2081282116
20,3,ISIP_8,89,1,48,63,2082135544
20,3,ISIP_8,90,1,48,69,2082951284
20,3,ISIP_8,91,1,48,58,2083728420
20,3,ISIP_8,92,1,48,55,2084585916
20,3,ISIP_8,93,1,48,65,2085397692
20,3,ISIP_8,94,1,48,60,2086205648
20,3,ISIP_8,95,1,48,57,2087021908
20,3,ISIP_8,96,1,48,58,2087881572
20,3,ISIP_8,97,1,48,63,2088730820
20,3,ISIP_8,98,1,48,63,2089514912
20,3,ISIP_8,99,1,48,62,2090331180
20,3,ISIP_8,100,1,48,60,2091129156
20,3,ISIP_8,101,1,48,63,2091962724
20,3,ISIP_8,102,1,48,62,2092777484
20,3,ISIP_8,103,1,48,63,2093641164
20,3,ISIP_8,104,1,48,61,2094458396
20,3,ISIP_8,105,1,48,68,2095275552
20,3,ISIP_8,106,1,48,68,2096060344
20,3,ISIP_8,107,1,48,60,2096893436
20,3,ISIP_8,108,1,48,57,2097717112
20,3,ISIP_8,109,1,48,65,2098611984
20,3,ISIP_8,110,1,48,61,2099427144
20,3,ISIP_8,111,1,48,57,2100238620
20,3,ISIP_8,112,1,48,71,2101067820
20,3,ISIP_8,113,1,48,68,2101879892
20,3,ISIP_8,114,1,48,68,2102691512
20,3,ISIP_8,115,1,48,69,2103485956
20,3,ISIP_8,116,1,48,54,2104312684
20,3,ISIP_8,117,1,48,62,2105144128
20,3,ISIP_8,118,1,48,58,2105927252
20,3,ISIP_8,119,1,48,63,2106715908
20,3,ISIP_8,120,1,48,48,2107487592
20,3,ISIP_8,121,1,48,60,2108313272
20,3,ISIP_8,122,1,48,62,2109116692
20,3,ISIP_8,123,1,48,57,2109941780
20,3,ISIP_8,124,1,48,68,2110761628
20,3,ISIP_8,125,1,48,65,2111599276
20,3,ISIP_8,126,1,48,66,2112399904
20,3,ISIP_8,127,1,48,50,2113207884
20,3,ISIP_8,128,1,48,67,2114037752
20,3,ISIP_8,129,1,48,59,2114846916
20,3,ISIP_8,130,1,48,60,2115638784
20,3,ISIP_8,131,1,48,72,2116448316
20,3,ISIP_8,132,1,48,67,2117261884
20,3,ISIP_8,133,1,48,72,2118095896
20,3,ISIP_8,134,1,48,65,2118936160
20,3,ISIP_8,135,1,48,65,2119789368
20,3,ISIP_8,136,1,48,67,2120599196
20,3,ISIP_8,137,1,48,66,2121421916
20,3,ISIP_8,138,1,48,49,2122258520
20,3,ISIP_8,139,1,48,70,2123096016
20,3,ISIP_8,140,1,48,49,2123922456
20,3,ISIP_8,141,1,48,69,2124765136
20,3,ISIP_8,142,1,48,63,2125576760
20,3,ISIP_8,143,1,48,72,2126390404
20,3,ISIP_8,144,1,48,70,2127225656
20,3,ISIP_8,145,1,48,65,2128045288
20,3,ISIP_8,146,1,48,61,2128848776
20,3,ISIP_8,147,1,48,63,2129684112
20,3,ISIP_8,148,1,48,64,2130510704
20,3,ISIP_8,149,1,48,61,2131346640
20,3,ISIP_8,150,1,48,63,2132185808
20,3,ISIP_8,151,1,48,73,2133027572
20,3,ISIP_8,152,1,48,51,2133869560
20,3,ISIP_8,153,1,48,65,2134704672
20,3,ISIP_8,154,1,48,69,2135521408
20,3,ISIP_8,155,1,48,67,2136355020
20,3,ISIP_8,156,1,48,67,2137205756
20,3,ISIP_8,157,1,48,64,2138041340
20,3,ISIP_8,158,1,48,65,2138875400
20,3,ISIP_8,159,1,48,63,2139729060
20,3,ISIP_8,160,1,48,71,2140550856
20,3,ISIP_8,161,1,48,64,2141393096
20,3,ISIP_8,162,1,48,59,2142267696
20,3,ISIP_8,163,1,48,67,2143145884
20,3,ISIP_8,164,1,48,71,2144014680
20,3,ISIP_8,165,1,48,62,2144857864
20,3,ISIP_8,166,1,48,66,2145697836
20,3,ISIP_8,167,1,48,63,2146531188
20,3,ISIP_8,168,1,48,70,2147367196
20,3,ISIP_8,169,1,48,61,2148201256
20,3,ISIP_8,170,1,48,62,2149049852
20,3,ISIP_8,171,1,48,54,2149893112
20,3,ISIP_8,172,1,48,67,2150749392
20,3,ISIP_8,0,9999,9999,9999,9999,2031301724
20,3,ISIP_8,1,9999,9999,9999,9999,2032101480
20,3,ISIP_8,2,9999,9999,9999,9999,2032901236
20,3,ISIP_8,3,9999,9999,9999,9999,2033701964
20,3,ISIP_8,4,9999,9999,9999,9999,2034501712
20,3,ISIP_8,5,9999,9999,9999,9999,2035301452
20,3,ISIP_8,6,9999,9999,9999,9999,2036101184
20,3,ISIP_8,7,9999,9999,9999,9999,2036901964
20,3,ISIP_8,8,9999,9999,9999,9999,2037701716
20,3,ISIP_8,9,9999,9999,9999,9999,2038501456
20,3,ISIP_8,10,9999,9999,9999,9999,2039301184
20,3,ISIP_8,11,9999,9999,9999,9999,2040101960
20,3,ISIP_8,12,9999,9999,9999,9999,2040901700
20,3,ISIP_8,13,9999,9999,9999,9999,2041701436
20,3,ISIP_8,14,9999,9999,9999,9999,2042501240
20,3,ISIP_8,15,9999,9999,9999,9999,2043301944
20,3,ISIP_8,16,9999,9999,9999,9999,2044101700
20,3,ISIP_8,17,9999,9999,9999,9999,2044901440
20,3,ISIP_8,18,9999,9999,9999,9999,2045701176
20,3,ISIP_8,19,9999,9999,9999,9999,2046501956
20,3,ISIP_8,20,9999,9999,9999,9999,2047301684
20,3,ISIP_8,21,9999,9999,9999,9999,2048101488
20,3,ISIP_8,22,9999,9999,9999,9999,2048901228
20,3,ISIP_8,23,9999,9999,9999,9999,2049701936
20,3,ISIP_8,24,9999,9999,9999,9999,2050501696
20,3,ISIP_8,25,9999,9999,9999,9999,2051301428
20,3,ISIP_8,26,9999,9999,9999,9999,2052101232
20,3,ISIP_8,27,9999,9999,9999,9999,2052901936
20,3,ISIP_8,28,9999,9999,9999,9999,2053701752
20,3,ISIP_8,29,9999,9999,9999,9999,2054501476
20,3,ISIP_8,30,9999,9999,9999,9999,2055301216
20,3,ISIP_8,31,9999,9999,9999,9999,2056101992
20,3,ISIP_8,32,9999,9999,9999,9999,2056901748
20,3,ISIP_8,33,9999,9999,9999,9999,2057701476
20,3,ISIP_8,34,9999,9999,9999,9999,2058501204
20,3,ISIP_8,35,9999,9999,9999,9999,2059301980
20,3,ISIP_8,36,9999,9999,9999,9999,2060101712
20,3,ISIP_8,37,9999,9999,9999,9999,2060901440
20,3,ISIP_8,38,9999,9999,9999,9999,2061701168
20,3,ISIP_8,39,9999,9999,9999,9999,2062501944
20,3,ISIP_8,40,9999,9999,9999,9999,2063301700
20,3,ISIP_8,41,9999,9999,9999,9999,2064101428
20,3,ISIP_8,42,9999,9999,9999,9999,2064901232
20,3,ISIP_8,43,9999,9999,9999,9999,2065701936
20,3,ISIP_8,44,9999,9999,9999,9999,2066501740
20,3,ISIP_8,45,9999,9999,9999,9999,2067301468
20,3,ISIP_8,46,9999,9999,9999,9999,2068101196
20,3,ISIP_8,47,9999,9999,9999,9999,2068901972
20,3,ISIP_8,48,9999,9999,9999,9999,2069701728
20,3,ISIP_8,49,9999,9999,9999,9999,2070501456
20,3,ISIP_8,50,9999,9999,9999,9999,2071301188
20,3,ISIP_8,51,9999,9999,9999,9999,2072101960
20,3,ISIP_8,52,9999,9999,9999,9999,2072901692
20,3,ISIP_8,53,9999,9999,9999,9999,2073701496
20,3,ISIP_8,54,9999,9999,9999,9999,2074501224
20,3,ISIP_8,55,9999,9999,9999,9999,2075302000
20,3,ISIP_8,56,9999,9999,9999,9999,2076101676
20,3,ISIP_8,57,9999,9999,9999,9999,2076901480
20,3,ISIP_8,58,9999,9999,9999,9999,2077701212
20,3,ISIP_8,59,9999,9999,9999,9999,2078501984
20,3,ISIP_8,60,9999,9999,9999,9999,2079301716
20,3,ISIP_8,61,9999,9999,9999,9999,2080101444
20,3,ISIP_8,62,9999,9999,9999,9999,2080901176
20,3,ISIP_8,63,9999,9999,9999,9999,2081701952
20,3,ISIP_8,64,9999,9999,9999,9999,2082501704
20,3,ISIP_8,65,9999,9999,9999,9999,2083301432
20,3,ISIP_8,66,9999,9999,9999,9999,2084101236
20,3,ISIP_8,67,9999,9999,9999,9999,2084901940
20,3,ISIP_8,68,9999,9999,9999,9999,2085701744
20,3,ISIP_8,69,9999,9999,9999,9999,2086501472
20,3,ISIP_8,70,9999,9999,9999,9999,2087301200
20,3,ISIP_8,71,9999,9999,9999,9999,2088101976
20,3,ISIP_8,72,9999,9999,9999,9999,2088901732
20,3,ISIP_8,73,9999,9999,9999,9999,2089701460
20,3,ISIP_8,74,9999,9999,9999,9999,2090501236
20,3,ISIP_8,75,9999,9999,9999,9999,2091301940
20,3,ISIP_8,76,9999,9999,9999,9999,2092101744
20,3,ISIP_8,77,9999,9999,9999,9999,2092901472
20,3,ISIP_8,78,9999,9999,9999,9999,2093701216
20,3,ISIP_8,79,9999,9999,9999,9999,2094501992
20,3,ISIP_8,80,9999,9999,9999,9999,2095301748
20,3,ISIP_8,81,9999,9999,9999,9999,2096101476
20,3,ISIP_8,82,9999,9999,9999,9999,2096901204
20,3,ISIP_8,83,9999,9999,9999,9999,2097701988
20,3,ISIP_8,84,9999,9999,9999,9999,2098501716
20,3,ISIP_8,85,9999,9999,9999,9999,2099301444
20,3,ISIP_8,86,9999,9999,9999,9999,2100101172
20,3,ISIP_8,87,9999,9999,9999,9999,2100901952
20,3,ISIP_8,88,9999,9999,9999,9999,2101701704
20,3,ISIP_8,89,9999,9999,9999,9999,2102501432
20,3,ISIP_8,90,9999,9999,9999,9999,2103301236
20,3,ISIP_8,91,9999,9999,9999,9999,2104101940
20,3,ISIP_8,92,9999,9999,9999,9999,2104901744
20,3,ISIP_8,93,9999,9999,9999,9999,2105701472
20,3,ISIP_8,94,9999,9999,9999,9999,2106501200
20,3,ISIP_8,95,9999,9999,9999,9999,2107301976
20,3,ISIP_8,96,9999,9999,9999,9999,2108101728
20,3,ISIP_8,97,9999,9999,9999,9999,2108901456
20,3,ISIP_8,98,9999,9999,9999,9999,2109701188
20,3,ISIP_8,99,9999,9999,9999,9999,2110501964
20,3,ISIP_8,100,9999,9999,9999,9999,2111301692
20,3,ISIP_8,101,9999,9999,9999,9999,2112101496
20,3,ISIP_8,102,9999,9999,9999,9999,2112901224
20,3,ISIP_8,103,9999,9999,9999,9999,2113702000
20,3,ISIP_8,104,9999,9999,9999,9999,2114501680
20,3,ISIP_8,105,9999,9999,9999,9999,2115301484
20,3,ISIP_8,106,9999,9999,9999,9999,2116101212
20,3,ISIP_8,107,9999,9999,9999,9999,2116901988
20,3,ISIP_8,108,9999,9999,9999,9999,2117701716
20,3,ISIP_8,109,9999,9999,9999,9999,2118501448
20,3,ISIP_8,110,9999,9999,9999,9999,2119301176
20,3,ISIP_8,111,9999,9999,9999,9999,2120101952
20,3,ISIP_8,112,9999,9999,9999,9999,2120901704
20,3,ISIP_8,113,9999,9999,9999,9999,2121701432
20,3,ISIP_8,114,9999,9999,9999,9999,2122501236
20,3,ISIP_8,115,9999,9999,9999,9999,2123301936
20,3,ISIP_8,116,9999,9999,9999,9999,2124101740
20,3,ISIP_8,117,9999,9999,9999,9999,2124901468
20,3,ISIP_8,118,9999,9999,9999,9999,2125701200
20,3,ISIP_8,119,9999,9999,9999,9999,2126501976
20,3,ISIP_8,120,9999,9999,9999,9999,2127301744
20,3,ISIP_8,121,9999,9999,9999,9999,2128101472
20,3,ISIP_8,122,9999,9999,9999,9999,2128901204
20,3,ISIP_8,123,9999,9999,9999,9999,2129701980
20,3,ISIP_8,124,9999,9999,9999,9999,2130501716
20,3,ISIP_8,125,9999,9999,9999,9999,2131301444
20,3,ISIP_8,126,9999,9999,9999,9999,2132101172
20,3,ISIP_8,127,9999,9999,9999,9999,2132901948
20,3,ISIP_8,128,9999,9999,9999,9999,2133701704
20,3,ISIP_8,129,9999,9999,9999,9999,2134501432
20,3,ISIP_8,130,9999,9999,9999,9999,2135301236
20,3,ISIP_8,131,9999,9999,9999,9999,2136101936
20,3,ISIP_8,132,9999,9999,9999,9999,2136901740
20,3,ISIP_8,133,9999,9999,9999,9999,2137701468
20,3,ISIP_8,134,9999,9999,9999,9999,2138501196
20,3,ISIP_8,135,9999,9999,9999,9999,2139301972
20,3,ISIP_8,136,9999,9999,9999,9999,2140101728
20,3,ISIP_8,137,9999,9999,9999,9999,2140901456
20,3,ISIP_8,138,9999,9999,9999,9999,2141701188
20,3,ISIP_8,139,9999,9999,9999,9999,2142501964
20,3,ISIP_8,140,9999,9999,9999,9999,2143301692
20,3,ISIP_8,141,9999,9999,9999,9999,2144101436
20,3,ISIP_8,142,9999,9999,9999,9999,2144901240
20,3,ISIP_8,143,9999,9999,9999,9999,2145701940
20,3,ISIP_8,144,9999,9999,9999,9999,2146501700
20,3,ISIP_8,145,9999,9999,9999,9999,2147301432
20,3,ISIP_8,146,9999,9999,9999,9999,2148101232
20,3,ISIP_8,147,9999,9999,9999,9999,2148901936
20,3,ISIP_8,148,9999,9999,9999,9999,2149701740
20,3,ISIP_8,149,9999,9999,9999,9999,2150501468
21,11,Pattern_Practice,0,5,42,127,2256083244
21,11,Pattern_Practice,1,5,42,127,2256583112
21,11,Pattern_Practice,2,5,42,127,2257082828
21,11,Pattern_Practice,3,5,42,127,2257582544
21,11,Pattern_Practice,4,5,42,127,2258083136
21,11,Pattern_Practice,5,1,48,28,2258117540
21,11,Pattern_Practice,6,5,42,127,2258582832
21,11,Pattern_Practice,7,5,42,127,2259082844
21,11,Pattern_Practice,8,5,42,127,2259583608
21,11,Pattern_Practice,9,1,48,47,2260020232
21,11,Pattern_Practice,10,5,42,127,2260083020
21,11,Pattern_Practice,11,5,42,127,2260582720
21,11,Pattern_Practice,12,5,42,127,2261082584
21,11,Pattern_Practice,13,5,42,127,2261583272
21,11,Pattern_Practice,14,1,38,44,2261785004
21,11,Pattern_Practice,15,1,38,32,2262025780
21,11,Pattern_Practice,16,5,42,127,2262082888
21,11,Pattern_Practice,17,1,38,40,2262213772
21,11,Pattern_Practice,18,1,38,34,2262398720
21,11,Pattern_Practice,19,5,42,127,2262582696
21,11,Pattern_Practice,20,1,48,46,2262671756
21,11,Pattern_Practice,21,1,48,42,2262831748
21,11,Pattern_Practice,22,1,38,44,2263050984
21,11,Pattern_Practice,23,5,42,127,2263083480
21,11,Pattern_Practice,24,5,42,127,2263583036
21,11,Pattern_Practice,25,5,42,127,2264082900
21,11,Pattern_Practice,26,5,42,127,2264582468
21,11,Pattern_Practice,27,5,42,127,2265083380
21,11,Pattern_Practice,28,1,48,56,2265568692
21,11,Pattern_Practice,29,5,42,127,2265582864
21,11,Pattern_Practice,30,1,48,46,2265828412
21,11,Pattern_Practice,31,1,48,47,2265932508
21,11,Pattern_Practice,32,1,48,56,2266052484
21,11,Pattern_Practice,33,5,42,127,2266082664
21,11,Pattern_Practice,34,1,48,52,2266196168
21,11,Pattern_Practice,35,1,48,41,2266284284
21,11,Pattern_Practice,36,1,48,54,2266424656
21,11,Pattern_Practice,37,1,48,51,2266578440
21,11,Pattern_Practice,38,5,42,127,2266583264
21,11,Pattern_Practice,39,1,48,25,2266662216
21,11,Pattern_Practice,40,1,48,57,2266790392
21,11,Pattern_Practice,41,1,48,52,2266946124
21,11,Pattern_Practice,42,1,48,65,2267074552
21,11,Pattern_Practice,43,5,42,127,2267083264
21,11,Pattern_Practice,44,1,48,51,2267191540
21,11,Pattern_Practice,45,1,48,42,2267308596
21,11,Pattern_Practice,46,1,38,44,2267472088
21,11,Pattern_Practice,47,5,42,127,2267582680
21,11,Pattern_Practice,48,1,48,57,2267587892
21,11,Pattern_Practice,49,1,48,53,2267709264
21,11,Pattern_Practice,50,1,38,74,2267852284
21,11,Pattern_Practice,51,1,48,59,2267965128
21,11,Pattern_Practice,52,5,42,127,2268082608
21,11,Pattern_Practice,53,1,38,69,2268140708
21,11,Pattern_Practice,54,1,48,52,2268210920
21,11,Pattern_Practice,55,1,48,52,2268346200
21,11,Pattern_Practice,56,1,38,61,2268515220
21,11,Pattern_Practice,57,5,42,127,2268583324
21,11,Pattern_Practice,58,1,48,44,2268601952
21,11,Pattern_Practice,59,1,48,39,2268709988
21,11,Pattern_Practice,60,1,38,54,2268855168
21,11,Pattern_Practice,61,1,48,48,2268974824
21,11,Pattern_Practice,62,5,42,127,2269083148
21,11,Pattern_Practice,63,1,38,45,2269121372
21,11,Pattern_Practice,64,1,48,52,2269211336
21,11,Pattern_Practice,65,1,48,48,2269344648
21,11,Pattern_Practice,66,1,38,61,2269490508
21,11,Pattern_Practice,67,5,42,127,2269582616
21,11,Pattern_Practice,68,1,48,64,2269584632
21,11,Pattern_Practice,69,1,38,59,2269853876
21,11,Pattern_Practice,70,5,42,127,2270082276
21,11,Pattern_Practice,71,1,38,65,2270118600
21,11,Pattern_Practice,72,1,38,60,2270378996
21,11,Pattern_Practice,73,1,38,63,2270491548
21,11,Pattern_Practice,74,5,42,127,2270583360
21,11,Pattern_Practice,75,1,38,58,2270617356
21,11,Pattern_Practice,76,1,38,49,2270718112
21,11,Pattern_Practice,77,1,38,69,2270835448
21,11,Pattern_Practice,78,1,48,56,2270982280
21,11,Pattern_Practice,79,5,42,127,2271082828
21,11,Pattern_Practice,80,1,38,68,2271104272
21,11,Pattern_Practice,81,1,48,60,2271233152
21,11,Pattern_Practice,82,1,48,41,2271369412
21,11,Pattern_Practice,83,1,38,70,2271475476
21,11,Pattern_Practice,84,5,42,127,2271582680
21,11,Pattern_Practice,85,1,38,40,2271616616
21,11,Pattern_Practice,86,1,38,50,2271735996
21,11,Pattern_Practice,87,1,38,47,2271848916
21,11,Pattern_Practice,88,1,38,28,2271930000
21,11,Pattern_Practice,89,1,38,43,2271977996
21,11,Pattern_Practice,90,5,42,127,2272083556
21,11,Pattern_Practice,91,1,38,71,2272115776
21,11,Pattern_Practice,92,1,48,68,2272280180
21,11,Pattern_Practice,93,1,48,55,2272410980
21,11,Pattern_Practice,94,1,38,89,2272526992
21,11,Pattern_Practice,95,5,42,127,2272583052
21,11,Pattern_Practice,96,1,38,68,2272656764
21,11,Pattern_Practice,97,1,38,57,2272766568
21,11,Pattern_Practice,98,1,38,57,2272863636
21,11,Pattern_Practice,99,1,38,46,2272995056
21,11,Pattern_Practice,100,5,42,127,2273083052
21,11,Pattern_Practice,101,1,38,64,2273129688
21,11,Pattern_Practice,102,1,48,58,2273290804
21,11,Pattern_Practice,103,1,48,62,2273396696
21,11,Pattern_Practice,104,1,38,76,2273521988
21,11,Pattern_Practice,105,5,42,127,2273582460
21,11,Pattern_Practice,106,1,38,52,2273618620
21,11,Pattern_Practice,107,1,38,65,2273752888
21,11,Pattern_Practice,108,1,48,29,2273858328
21,11,Pattern_Practice,109,1,38,71,2273988704
21,11,Pattern_Practice,110,5,42,127,2274083136
21,11,Pattern_Practice,111,1,38,57,2274134036
21,11,Pattern_Practice,112,1,48,24,2274234568
21,11,Pattern_Practice,113,1,38,27,2274374264
21,11,Pattern_Practice,114,1,38,61,2274533812
21,11,Pattern_Practice,115,5,42,127,2274582912
21,11,Pattern_Practice,116,1,48,48,2274626048
21,11,Pattern_Practice,117,1,38,24,2274771064
21,11,Pattern_Practice,118,1,38,55,2274889968
21,11,Pattern_Practice,119,1,38,49,2274994536
21,11,Pattern_Practice,120,1,48,59,2275069908
21,11,Pattern_Practice,121,5,42,127,2275082512
21,11,Pattern_Practice,122,1,38,76,2275262808
21,11,Pattern_Practice,123,1,38,29,2275440208
21,11,Pattern_Practice,124,5,42,127,2275583412
21,11,Pattern_Practice,125,1,38,26,2275604108
21,11,Pattern_Practice,126,1,48,16,2275616132
21,11,Pattern_Practice,127,1,38,69,2275716164
21,11,Pattern_Practice,128,1,38,50,2275828884
21,11,Pattern_Practice,129,1,38,32,2275935748
21,11,Pattern_Practice,130,1,38,84,2276068216
21,11,Pattern_Practice,131,5,42,127,2276082916
21,11,Pattern_Practice,132,1,38,63,2276171140
21,11,Pattern_Practice,133,1,38,40,2276308396
21,11,Pattern_Practice,134,1,38,69,2276449368
21,11,Pattern_Practice,135,1,38,37,2276545260
21,11,Pattern_Practice,136,5,42,127,2276582992
21,11,Pattern_Practice,137,1,38,27,2276678024
21,11,Pattern_Practice,138,1,38,55,2276809664
21,11,Pattern_Practice,139,1,38,48,2276944732
21,11,Pattern_Practice,140,5,42,127,2277082408
21,11,Pattern_Practice,141,1,38,88,2277093680
21,11,Pattern_Practice,142,1,48,69,2277359960
21,11,Pattern_Practice,143,5,42,127,2277583276
21,11,Pattern_Practice,144,1,38,87,2277602700
21,11,Pattern_Practice,145,1,38,53,2277849164
21,11,Pattern_Practice,146,1,38,54,2277950268
21,11,Pattern_Practice,147,1,38,59,2278056384
21,11,Pattern_Practice,148,5,42,127,2278082920
21,11,Pattern_Practice,149,1,38,58,2278183188
21,11,Pattern_Practice,150,1,38,45,2278307028
21,11,Pattern_Practice,151,1,38,62,2278445632
21,11,Pattern_Practice,152,1,38,65,2278563716
21,11,Pattern_Practice,153,5,42,127,2278582848
21,11,Pattern_Practice,154,1,38,51,2278699272
21,11,Pattern_Practice,155,1,38,70,2278818104
21,11,Pattern_Practice,156,1,38,65,2278931124
21,11,Pattern_Practice,157,5,42,127,2279083232
21,11,Pattern_Practice,158,1,38,76,2279084644
21,11,Pattern_Practice,159,1,48,81,2279350164
21,11,Pattern_Practice,160,1,38,74,2279582956
21,11,Pattern_Practice,161,5,42,127,2279585264
21,11,Pattern_Practice,162,1,38,67,2279833660
21,11,Pattern_Practice,163,1,38,41,2279928724
21,11,Pattern_Practice,164,1,38,84,2279940748
21,11,Pattern_Practice,165,5,42,127,2280082732
21,11,Pattern_Practice,166,1,38,66,2280093628
21,11,Pattern_Practice,167,1,38,54,2280145468
21,11,Pattern_Practice,168,1,38,72,2280253680
21,11,Pattern_Practice,169,1,38,50,2280328232
21,11,Pattern_Practice,170,1,38,59,2280406844
21,11,Pattern_Practice,171,5,42,127,2280582712
21,11,Pattern_Practice,172,1,38,62,2280628188
21,11,Pattern_Practice,173,1,48,81,2280917364
21,11,Pattern_Practice,174,5,42,127,2281083136
21,11,Pattern_Practice,175,1,48,83,2281207672
21,11,Pattern_Practice,176,5,42,127,2281582904
21,11,Pattern_Practice,177,1,38,62,2281698840
21,11,Pattern_Practice,178,1,38,56,2281963856
21,11,Pattern_Practice,179,5,42,127,2282082652
21,11,Pattern_Practice,180,1,38,70,2282093852
21,11,Pattern_Practice,181,1,38,55,2282230808
21,11,Pattern_Practice,182,1,38,52,2282358236
21,11,Pattern_Practice,183,1,38,66,2282469088
21,11,Pattern_Practice,184,5,42,127,2282583552
21,11,Pattern_Practice,185,1,38,64,2282587196
21,11,Pattern_Practice,186,1,38,53,2282719812
21,11,Pattern_Practice,187,1,38,79,2282816352
21,11,Pattern_Practice,188,1,48,63,2282967152
21,11,Pattern_Practice,189,1,48,57,2283077080
21,11,Pattern_Practice,190,5,42,127,2283083176
21,11,Pattern_Practice,191,1,38,79,2283208296
21,11,Pattern_Practice,192,1,48,58,2283329444
21,11,Pattern_Practice,193,1,48,54,2283439704
21,11,Pattern_Practice,194,1,38,67,2283554568
21,11,Pattern_Practice,195,5,42,127,2283582804
21,11,Pattern_Practice,196,1,48,61,2283682172
21,11,Pattern_Practice,197,1,48,52,2283954984
21,11,Pattern_Practice,198,5,42,127,2284082756
21,11,Pattern_Practice,199,1,38,76,2284206252
21,11,Pattern_Practice,200,1,48,53,2284209452
21,11,Pattern_Practice,201,1,38,60,2284458424
21,11,Pattern_Practice,202,5,42,127,2284583132
21,11,Pattern_Practice,203,1,38,62,2284589392
21,11,Pattern_Practice,204,1,38,59,2284719016
21,11,Pattern_Practice,205,1,38,63,2284857376
21,11,Pattern_Practice,206,1,38,67,2284968652
21,11,Pattern_Practice,207,1,38,64,2285080916
21,11,Pattern_Practice,208,5,42,127,2285083552
21,11,Pattern_Practice,209,1,38,54,2285212696
21,11,Pattern_Practice,210,1,38,62,2285322276
21,11,Pattern_Practice,211,1,38,54,2285416048
21,11,Pattern_Practice,212,1,38,42,2285527424
21,11,Pattern_Practice,213,5,42,127,2285582732
21,11,Pattern_Practice,214,1,38,80,2285653900
21,11,Pattern_Practice,215,1,48,78,2285920860
21,11,Pattern_Practice,216,5,42,127,2286082468
21,11,Pattern_Practice,217,1,38,66,2286169508
21,11,Pattern_Practice,218,1,48,62,2286172704
21,11,Pattern_Practice,219,1,48,82,2286410312
21,11,Pattern_Practice,220,1,38,91,2286565448
21,11,Pattern_Practice,221,5,42,127,2286583280
21,11,Pattern_Practice,222,1,48,82,2286655588
21,11,Pattern_Practice,223,1,48,73,2286798796
21,11,Pattern_Practice,224,1,38,67,2286954508
21,11,Pattern_Practice,225,1,48,72,2287043232
21,11,Pattern_Practice,226,5,42,127,2287082824
21,11,Pattern_Practice,227,1,48,66,2287196700
21,11,Pattern_Practice,228,1,38,64,2287321020
21,11,Pattern_Practice,229,1,48,65,2287419204
21,11,Pattern_Practice,230,1,48,58,2287548760
21,11,Pattern_Practice,231,5,42,127,2287582528
21,11,Pattern_Practice,232,1,38,67,2287677632
21,11,Pattern_Practice,233,1,48,68,2287893124
21,11,Pattern_Practice,234,5,42,127,2288083452
21,11,Pattern_Practice,235,1,48,73,2288166904
21,11,Pattern_Practice,236,1,38,70,2288177288
21,11,Pattern_Practice,237,1,48,68,2288404496
21,11,Pattern_Practice,238,1,38,68,2288551304
21,11,Pattern_Practice,239,5,42,127,2288583000
21,11,Pattern_Practice,240,1,48,65,2288656860
21,11,Pattern_Practice,241,1,48,45,2288808848
21,11,Pattern_Practice,242,1,38,13,2288820580
21,11,Pattern_Practice,243,1,38,53,2288953448
21,11,Pattern_Practice,244,1,48,45,2289054544
21,11,Pattern_Practice,245,5,42,127,2289082732
21,11,Pattern_Practice,246,1,48,18,2289208428
21,11,Pattern_Practice,247,1,38,11,2289219472
21,11,Pattern_Practice,248,1,38,52,2289361344
21,11,Pattern_Practice,249,1,48,38,2289467460
21,11,Pattern_Practice,250,5,42,127,2289582540
21,11,Pattern_Practice,251,1,48,43,2289590600
21,11,Pattern_Practice,252,1,38,51,2289731648
21,11,Pattern_Practice,253,1,48,52,2289995836
21,11,Pattern_Practice,254,5,42,127,2290083304
21,11,Pattern_Practice,255,1,38,66,2290249488
21,11,Pattern_Practice,256,1,48,62,2290258072
21,11,Pattern_Practice,257,1,48,66,2290512300
21,11,Pattern_Practice,258,5,42,127,2290582868
21,11,Pattern_Practice,259,1,38,62,2290635512
21,11,Pattern_Practice,260,1,48,62,2290760476
21,11,Pattern_Practice,261,1,48,56,2290900056
21,11,Pattern_Practice,262,1,38,59,2291028980
21,11,Pattern_Practice,263,5,42,127,2291082572
21,11,Pattern_Practice,264,1,48,60,2291127212
21,11,Pattern_Practice,265,1,48,57,2291275664
21,11,Pattern_Practice,266,1,38,63,2291411876
21,11,Pattern_Practice,267,1,48,58,2291513276
21,11,Pattern_Practice,268,5,42,127,2291583400
21,11,Pattern_Practice,269,1,48,51,2291627072
21,11,Pattern_Practice,270,1,38,62,2291775072
21,11,Pattern_Practice,271,1,48,46,2292039032
21,11,Pattern_Practice,272,5,42,127,2292083200
21,11,Pattern_Practice,273,1,38,62,2292302272
21,11,Pattern_Practice,274,1,48,59,2292315860
21,11,Pattern_Practice,275,5,42,127,2292582756
21,11,Pattern_Practice,276,1,48,60,2292590140
21,11,Pattern_Practice,277,5,42,127,2293082452
21,11,Pattern_Practice,278,1,38,37,2293140020
21,11,Pattern_Practice,279,5,42,127,2293583120
21,11,Pattern_Practice,280,1,38,46,2293636048
21,11,Pattern_Practice,281,5,42,127,2294083112
21,11,Pattern_Practice,282,1,48,57,2294100960
21,11,Pattern_Practice,283,1,48,51,2294342040
21,11,Pattern_Practice,284,1,38,45,2294482488
21,11,Pattern_Practice,285,5,42,127,2294582588
21,11,Pattern_Practice,286,1,48,60,2294662228
21,11,Pattern_Practice,287,1,48,40,2294808228
21,11,Pattern_Practice,288,1,38,53,2294881736
21,11,Pattern_Practice,289,1,48,45,2295067296
21,11,Pattern_Practice,290,5,42,127,2295083340
21,11,Pattern_Practice,291,1,48,47,2295396432
21,11,Pattern_Practice,292,5,42,127,2295583168
21,11,Pattern_Practice,293,1,48,54,2295635724
21,11,Pattern_Practice,294,1,48,58,2295892140
21,11,Pattern_Practice,295,1,48,55,2296027224
21,11,Pattern_Practice,0,9999,9999,9999,9999,2256080960
21,11,Pattern_Practice,1,9999,9999,9999,9999,2256580676
21,11,Pattern_Practice,2,9999,9999,9999,9999,2257080396
21,11,Pattern_Practice,3,9999,9999,9999,9999,2257580108
21,11,Pattern_Practice,4,9999,9999,9999,9999,2258080848
21,11,Pattern_Practice,5,9999,9999,9999,9999,2258580544
21,11,Pattern_Practice,6,9999,9999,9999,9999,2259080260
21,11,Pattern_Practice,7,9999,9999,9999,9999,2259581024
21,11,Pattern_Practice,8,9999,9999,9999,9999,2260080732
21,11,Pattern_Practice,9,9999,9999,9999,9999,2260580432
21,11,Pattern_Practice,10,9999,9999,9999,9999,2261080152
21,11,Pattern_Practice,11,9999,9999,9999,9999,2261580912
21,11,Pattern_Practice,12,9999,9999,9999,9999,2262080600
21,11,Pattern_Practice,13,9999,9999,9999,9999,2262580332
21,11,Pattern_Practice,14,9999,9999,9999,9999,2263081044
21,11,Pattern_Practice,15,9999,9999,9999,9999,2263580748
21,11,Pattern_Practice,16,9999,9999,9999,9999,2264080464
21,11,Pattern_Practice,17,9999,9999,9999,9999,2264580180
21,11,Pattern_Practice,18,9999,9999,9999,9999,2265080944
21,11,Pattern_Practice,19,9999,9999,9999,9999,2265580652
21,11,Pattern_Practice,20,9999,9999,9999,9999,2266080380
21,11,Pattern_Practice,21,9999,9999,9999,9999,2266581052
21,11,Pattern_Practice,22,9999,9999,9999,9999,2267080756
21,11,Pattern_Practice,23,9999,9999,9999,9999,2267580468
21,11,Pattern_Practice,24,9999,9999,9999,9999,2268080248
21,11,Pattern_Practice,25,9999,9999,9999,9999,2268580964
21,11,Pattern_Practice,26,9999,9999,9999,9999,2269080640
21,11,Pattern_Practice,27,9999,9999,9999,9999,2269580408
21,11,Pattern_Practice,28,9999,9999,9999,9999,2270080064
21,11,Pattern_Practice,29,9999,9999,9999,9999,2270580852
21,11,Pattern_Practice,30,9999,9999,9999,9999,2271080540
21,11,Pattern_Practice,31,9999,9999,9999,9999,2271580244
21,11,Pattern_Practice,32,9999,9999,9999,9999,2272080972
21,11,Pattern_Practice,33,9999,9999,9999,9999,2272580692
21,11,Pattern_Practice,34,9999,9999,9999,9999,2273080392
21,11,Pattern_Practice,35,9999,9999,9999,9999,2273580096
21,11,Pattern_Practice,36,9999,9999,9999,9999,2274080848
21,11,Pattern_Practice,37,9999,9999,9999,9999,2274580552
21,11,Pattern_Practice,38,9999,9999,9999,9999,2275080300
21,11,Pattern_Practice,39,9999,9999,9999,9999,2275580980
21,11,Pattern_Practice,40,9999,9999,9999,9999,2276080704
21,11,Pattern_Practice,41,9999,9999,9999,9999,2276580412
21,11,Pattern_Practice,42,9999,9999,9999,9999,2277080120
21,11,Pattern_Practice,43,9999,9999,9999,9999,2277580912
21,11,Pattern_Practice,44,9999,9999,9999,9999,2278080560
21,11,Pattern_Practice,45,9999,9999,9999,9999,2278580340
21,11,Pattern_Practice,46,9999,9999,9999,9999,2279081020
21,11,Pattern_Practice,47,9999,9999,9999,9999,2279580744
21,11,Pattern_Practice,48,9999,9999,9999,9999,2280080448
21,11,Pattern_Practice,49,9999,9999,9999,9999,2280580204
21,11,Pattern_Practice,50,9999,9999,9999,9999,2281080924
21,11,Pattern_Practice,51,9999,9999,9999,9999,2281580620
21,11,Pattern_Practice,52,9999,9999,9999,9999,2282080368
21,11,Pattern_Practice,53,9999,9999,9999,9999,2282581040
21,11,Pattern_Practice,54,9999,9999,9999,9999,2283080816
21,11,Pattern_Practice,55,9999,9999,9999,9999,2283580520
21,11,Pattern_Practice,56,9999,9999,9999,9999,2284080248
21,11,Pattern_Practice,57,9999,9999,9999,9999,2284580920
21,11,Pattern_Practice,58,9999,9999,9999,9999,2285080636
21,11,Pattern_Practice,59,9999,9999,9999,9999,2285580372
21,11,Pattern_Practice,60,9999,9999,9999,9999,2286080104
21,11,Pattern_Practice,61,9999,9999,9999,9999,2286580848
21,11,Pattern_Practice,62,9999,9999,9999,9999,2287080536
21,11,Pattern_Practice,63,9999,9999,9999,9999,2287580240
21,11,Pattern_Practice,64,9999,9999,9999,9999,2288081020
21,11,Pattern_Practice,65,9999,9999,9999,9999,2288580712
21,11,Pattern_Practice,66,9999,9999,9999,9999,2289080372
21,11,Pattern_Practice,67,9999,9999,9999,9999,2289580108
21,11,Pattern_Practice,68,9999,9999,9999,9999,2290080868
21,11,Pattern_Practice,69,9999,9999,9999,9999,2290580584
21,11,Pattern_Practice,70,9999,9999,9999,9999,2291080288
21,11,Pattern_Practice,71,9999,9999,9999,9999,2291581040
21,11,Pattern_Practice,72,9999,9999,9999,9999,2292080688
21,11,Pattern_Practice,73,9999,9999,9999,9999,2292580472
21,11,Pattern_Practice,74,9999,9999,9999,9999,2293080164
21,11,Pattern_Practice,75,9999,9999,9999,9999,2293580908
21,11,Pattern_Practice,76,9999,9999,9999,9999,2294080600
21,11,Pattern_Practice,77,9999,9999,9999,9999,2294580300
21,11,Pattern_Practice,78,9999,9999,9999,9999,2295081052
21,11,Pattern_Practice,79,9999,9999,9999,9999,2295580732
22,13,Improv_Metronome,0,5,42,127,2328670476
22,13,Improv_Metronome,1,5,42,127,2329171388
22,13,Improv_Metronome,2,5,42,127,2329670884
22,13,Improv_Metronome,3,5,42,127,2330170600
22,13,Improv_Metronome,4,1,48,52,2330668268
22,13,Improv_Metronome,5,5,42,127,2330670460
22,13,Improv_Metronome,6,1,48,42,2330835744
22,13,Improv_Metronome,7,1,48,52,2330922936
22,13,Improv_Metronome,8,1,48,48,2331031448
22,13,Improv_Metronome,9,1,48,48,2331142528
22,13,Improv_Metronome,10,5,42,127,2331171060
22,13,Improv_Metronome,11,1,48,59,2331262500
22,13,Improv_Metronome,12,1,48,60,2331391084
22,13,Improv_Metronome,13,1,48,40,2331522180
22,13,Improv_Metronome,14,1,48,57,2331647464
22,13,Improv_Metronome,15,5,42,127,2331670764
22,13,Improv_Metronome,16,1,48,50,2331788904
22,13,Improv_Metronome,17,1,48,55,2331905516
22,13,Improv_Metronome,18,1,48,52,2332048132
22,13,Improv_Metronome,19,1,48,52,2332151212
22,13,Improv_Metronome,20,5,42,127,2332170616
22,13,Improv_Metronome,21,1,48,59,2332274320
22,13,Improv_Metronome,22,1,48,52,2332399160
22,13,Improv_Metronome,23,1,48,46,2332510516
22,13,Improv_Metronome,24,1,48,56,2332647920
22,13,Improv_Metronome,25,5,42,127,2332671516
22,13,Improv_Metronome,26,1,48,52,2332775368
22,13,Improv_Metronome,27,1,48,53,2332911812
22,13,Improv_Metronome,28,1,48,52,2333043652
22,13,Improv_Metronome,29,5,42,127,2333170932
22,13,Improv_Metronome,30,1,48,56,2333179356
22,13,Improv_Metronome,31,1,48,51,2333303128
22,13,Improv_Metronome,32,1,48,54,2333438808
22,13,Improv_Metronome,33,1,48,58,2333541640
22,13,Improv_Metronome,34,5,42,127,2333670632
22,13,Improv_Metronome,35,1,48,60,2333673300
22,13,Improv_Metronome,36,1,48,51,2333800588
22,13,Improv_Metronome,37,1,48,59,2333906424
22,13,Improv_Metronome,38,1,48,56,2334047168
22,13,Improv_Metronome,39,1,48,61,2334155704
22,13,Improv_Metronome,40,5,42,127,2334170404
22,13,Improv_Metronome,41,1,48,65,2334270744
22,13,Improv_Metronome,42,1,48,64,2334422512
22,13,Improv_Metronome,43,1,48,52,2334564228
22,13,Improv_Metronome,44,5,42,127,2334671384
22,13,Improv_Metronome,45,1,38,41,2334748472
22,13,Improv_Metronome,46,1,48,52,2334751752
22,13,Improv_Metronome,47,1,48,67,2334926976
22,13,Improv_Metronome,48,1,48,65,2335060988
22,13,Improv_Metronome,49,5,42,127,2335170912
22,13,Improv_Metronome,50,1,38,65,2335244860
22,13,Improv_Metronome,51,1,48,66,2335336996
22,13,Improv_Metronome,52,1,48,66,2335469372
22,13,Improv_Metronome,53,1,38,69,2335611024
22,13,Improv_Metronome,54,5,42,127,2335670544
22,13,Improv_Metronome,55,1,48,68,2335720920
22,13,Improv_Metronome,56,1,38,63,2335820676
22,13,Improv_Metronome,57,1,48,70,2335956288
22,13,Improv_Metronome,58,1,48,62,2336069812
22,13,Improv_Metronome,59,5,42,127,2336171504
22,13,Improv_Metronome,60,1,38,70,2336187260
22,13,Improv_Metronome,61,1,48,73,2336294500
22,13,Improv_Metronome,62,1,48,58,2336421512
22,13,Improv_Metronome,63,1,38,75,2336538468
22,13,Improv_Metronome,64,1,48,70,2336649228
22,13,Improv_Metronome,65,5,42,127,2336671176
22,13,Improv_Metronome,66,1,38,58,2336760924
22,13,Improv_Metronome,67,1,48,71,2336870176
22,13,Improv_Metronome,68,1,48,66,2336993376
22,13,Improv_Metronome,69,1,38,69,2337134048
22,13,Improv_Metronome,70,5,42,127,2337170660
22,13,Improv_Metronome,71,1,48,64,2337228328
22,13,Improv_Metronome,72,1,48,58,2337362464
22,13,Improv_Metronome,73,1,38,73,2337494560
22,13,Improv_Metronome,74,1,48,69,2337619520
22,13,Improv_Metronome,75,5,42,127,2337670424
22,13,Improv_Metronome,76,1,38,66,2337756800
22,13,Improv_Metronome,77,1,48,68,2337844140
22,13,Improv_Metronome,78,1,48,65,2337971204
22,13,Improv_Metronome,79,1,38,74,2338128328
22,13,Improv_Metronome,80,5,42,127,2338171372
22,13,Improv_Metronome,81,1,48,68,2338213188
22,13,Improv_Metronome,82,1,48,60,2338363328
22,13,Improv_Metronome,83,1,48,34,2338490188
22,13,Improv_Metronome,84,1,48,35,2338623456
22,13,Improv_Metronome,85,5,42,127,2338671140
22,13,Improv_Metronome,86,1,48,44,2338736724
22,13,Improv_Metronome,87,1,48,53,2338876124
22,13,Improv_Metronome,88,1,48,54,2338984136
22,13,Improv_Metronome,89,1,48,77,2339139620
22,13,Improv_Metronome,90,5,42,127,2339170768
22,13,Improv_Metronome,91,1,48,63,2339270160
22,13,Improv_Metronome,92,1,48,55,2339386824
22,13,Improv_Metronome,93,1,48,71,2339500820
22,13,Improv_Metronome,94,1,48,67,2339648896
22,13,Improv_Metronome,95,5,42,127,2339671444
22,13,Improv_Metronome,96,1,48,66,2339791180
22,13,Improv_Metronome,97,1,48,55,2339932000
22,13,Improv_Metronome,98,1,48,54,2340054296
22,13,Improv_Metronome,99,5,42,127,2340171076
22,13,Improv_Metronome,100,1,48,70,2340189148
22,13,Improv_Metronome,101,1,48,61,2340290060
22,13,Improv_Metronome,102,1,48,51,2340409936
22,13,Improv_Metronome,103,1,48,65,2340539788
22,13,Improv_Metronome,104,1,48,60,2340658016
22,13,Improv_Metronome,105,5,42,127,2340670920
22,13,Improv_Metronome,106,1,48,60,2340775844
22,13,Improv_Metronome,107,1,48,56,2340893108
22,13,Improv_Metronome,108,1,48,51,2341024956
22,13,Improv_Metronome,109,1,48,66,2341162288
22,13,Improv_Metronome,110,5,42,127,2341170476
22,13,Improv_Metronome,111,1,48,62,2341263036
22,13,Improv_Metronome,112,1,48,51,2341395508
22,13,Improv_Metronome,113,1,48,64,2341508944
22,13,Improv_Metronome,114,1,48,59,2341632220
22,13,Improv_Metronome,115,5,42,127,2341671224
22,13,Improv_Metronome,116,1,48,69,2341756676
22,13,Improv_Metronome,117,1,48,56,2341866260
22,13,Improv_Metronome,118,1,48,52,2342005812
22,13,Improv_Metronome,119,1,48,75,2342136936
22,13,Improv_Metronome,120,5,42,127,2342171076
22,13,Improv_Metronome,121,1,48,59,2342263340
22,13,Improv_Metronome,122,1,48,56,2342416376
22,13,Improv_Metronome,123,1,48,55,2342570092
22,13,Improv_Metronome,124,5,42,127,2342670712
22,13,Improv_Metronome,125,1,48,57,2342696492
22,13,Improv_Metronome,126,1,48,59,2342828812
22,13,Improv_Metronome,127,1,48,61,2342952880
22,13,Improv_Metronome,128,1,48,66,2343044116
22,13,Improv_Metronome,129,5,42,127,2343170268
22,13,Improv_Metronome,130,1,38,70,2343186024
22,13,Improv_Metronome,131,1,48,65,2343273216
22,13,Improv_Metronome,132,1,48,60,2343413380
22,13,Improv_Metronome,133,1,38,66,2343546272
22,13,Improv_Metronome,134,1,48,76,2343651368
22,13,Improv_Metronome,135,5,42,127,2343671072
22,13,Improv_Metronome,136,1,38,60,2343761092
22,13,Improv_Metronome,137,1,48,75,2343872316
22,13,Improv_Metronome,138,1,48,65,2344004912
22,13,Improv_Metronome,139,1,38,74,2344123696
22,13,Improv_Metronome,140,5,42,127,2344170780
22,13,Improv_Metronome,141,1,48,70,2344241352
22,13,Improv_Metronome,142,1,48,61,2344364320
22,13,Improv_Metronome,143,1,38,77,2344483820
22,13,Improv_Metronome,144,1,48,70,2344609912
22,13,Improv_Metronome,145,5,42,127,2344670780
22,13,Improv_Metronome,146,1,38,72,2344723396
22,13,Improv_Metronome,147,1,48,69,2344824880
22,13,Improv_Metronome,148,1,48,62,2344953012
22,13,Improv_Metronome,149,1,38,74,2345091292
22,13,Improv_Metronome,150,5,42,127,2345171308
22,13,Improv_Metronome,151,1,48,67,2345199612
22,13,Improv_Metronome,152,1,48,64,2345326676
22,13,Improv_Metronome,153,1,38,76,2345463336
22,13,Improv_Metronome,154,1,48,69,2345584332
22,13,Improv_Metronome,155,5,42,127,2345670936
22,13,Improv_Metronome,156,1,38,78,2345720560
22,13,Improv_Metronome,157,1,48,67,2345826456
22,13,Improv_Metronome,158,1,48,65,2345970220
22,13,Improv_Metronome,159,1,38,85,2346105800
22,13,Improv_Metronome,160,5,42,127,2346170712
22,13,Improv_Metronome,161,1,48,65,2346243828
22,13,Improv_Metronome,162,1,48,57,2346379184
22,13,Improv_Metronome,163,1,38,85,2346532676
22,13,Improv_Metronome,164,1,48,75,2346657268
22,13,Improv_Metronome,165,5,42,127,2346670420
22,13,Improv_Metronome,166,1,48,71,2346906212
22,13,Improv_Metronome,167,1,38,72,2347161576
22,13,Improv_Metronome,168,5,42,127,2347171112
22,13,Improv_Metronome,169,1,48,81,2347173804
22,13,Improv_Metronome,170,1,48,71,2347415276
22,13,Improv_Metronome,171,1,38,76,2347510436
22,13,Improv_Metronome,172,1,48,77,2347658560
22,13,Improv_Metronome,173,5,42,127,2347670788
22,13,Improv_Metronome,174,1,38,68,2347776388
22,13,Improv_Metronome,175,1,48,78,2347908532
22,13,Improv_Metronome,176,1,48,75,2348164792
22,13,Improv_Metronome,177,1,38,72,2348169208
22,13,Improv_Metronome,178,5,42,127,2348172060
22,13,Improv_Metronome,179,1,48,64,2348424316
22,13,Improv_Metronome,180,1,38,79,2348525144
22,13,Improv_Metronome,181,5,42,127,2348671244
22,13,Improv_Metronome,182,1,48,67,2348675932
22,13,Improv_Metronome,183,1,48,62,2348945732
22,13,Improv_Metronome,184,5,42,127,2349170996
22,13,Improv_Metronome,185,1,38,68,2349181516
22,13,Improv_Metronome,186,1,48,72,2349189576
22,13,Improv_Metronome,187,1,48,64,2349451568
22,13,Improv_Metronome,188,1,38,83,2349551200
22,13,Improv_Metronome,189,5,42,127,2349670744
22,13,Improv_Metronome,190,1,48,72,2349692784
22,13,Improv_Metronome,191,1,38,71,2349812992
22,13,Improv_Metronome,192,1,48,66,2349949620
22,13,Improv_Metronome,193,5,42,127,2350170472
22,13,Improv_Metronome,194,1,48,63,2350186448
22,13,Improv_Metronome,195,1,38,60,2350189800
22,13,Improv_Metronome,196,1,48,69,2350442740
22,13,Improv_Metronome,197,1,38,83,2350527424
22,13,Improv_Metronome,198,5,42,127,2350671108
22,13,Improv_Metronome,199,1,48,67,2350681928
22,13,Improv_Metronome,200,1,48,69,2350935420
22,13,Improv_Metronome,201,5,42,127,2351170856
22,13,Improv_Metronome,202,1,48,61,2351181452
22,13,Improv_Metronome,203,1,38,62,2351194372
22,13,Improv_Metronome,204,1,48,67,2351438036
22,13,Improv_Metronome,205,1,38,65,2351545376
22,13,Improv_Metronome,206,5,42,127,2351670680
22,13,Improv_Metronome,207,1,48,67,2351677468
22,13,Improv_Metronome,208,1,38,56,2351795724
22,13,Improv_Metronome,209,1,48,67,2351912684
22,13,Improv_Metronome,210,1,38,70,2352143592
22,13,Improv_Metronome,211,1,48,77,2352149472
22,13,Improv_Metronome,212,5,42,127,2352171504
22,13,Improv_Metronome,213,1,48,78,2352405804
22,13,Improv_Metronome,214,1,38,76,2352527624
22,13,Improv_Metronome,215,1,48,69,2352650896
22,13,Improv_Metronome,216,5,42,127,2352670976
22,13,Improv_Metronome,217,1,48,74,2352907620
22,13,Improv_Metronome,218,1,48,84,2353166196
22,13,Improv_Metronome,219,5,42,127,2353170872
22,13,Improv_Metronome,220,1,38,78,2353183488
22,13,Improv_Metronome,221,1,48,80,2353415784
22,13,Improv_Metronome,222,1,38,67,2353523848
22,13,Improv_Metronome,223,1,48,77,2353659604
22,13,Improv_Metronome,224,5,42,127,2353670488
22,13,Improv_Metronome,225,1,38,74,2353794168
22,13,Improv_Metronome,226,1,48,74,2353899784
22,13,Improv_Metronome,227,1,38,57,2354144968
22,13,Improv_Metronome,228,1,48,56,2354154600
22,13,Improv_Metronome,229,5,42,127,2354171388
22,13,Improv_Metronome,230,1,48,24,2354393720
22,13,Improv_Metronome,231,1,38,12,2354401336
22,13,Improv_Metronome,232,1,38,21,2354407140
22,13,Improv_Metronome,233,1,38,76,2354515032
22,13,Improv_Metronome,234,1,48,50,2354625356
22,13,Improv_Metronome,235,5,42,127,2354670872
22,13,Improv_Metronome,236,1,48,64,2354897944
22,13,Improv_Metronome,237,1,48,85,2355165572
22,13,Improv_Metronome,238,1,38,73,2355166228
22,13,Improv_Metronome,239,5,42,127,2355170672
22,13,Improv_Metronome,240,1,48,79,2355398988
22,13,Improv_Metronome,241,1,38,60,2355512060
22,13,Improv_Metronome,242,5,42,127,2355671276
22,13,Improv_Metronome,243,1,48,76,2355770208
22,13,Improv_Metronome,244,1,38,78,2355883456
22,13,Improv_Metronome,245,1,48,82,2356157440
22,13,Improv_Metronome,246,1,38,87,2356168956
22,13,Improv_Metronome,247,5,42,127,2356172340
22,13,Improv_Metronome,248,1,48,75,2356422644
22,13,Improv_Metronome,249,1,38,70,2356520088
22,13,Improv_Metronome,250,1,48,90,2356668112
22,13,Improv_Metronome,251,5,42,127,2356670768
22,13,Improv_Metronome,252,1,48,90,2356916764
22,13,Improv_Metronome,253,1,48,95,2357167116
22,13,Improv_Metronome,254,5,42,127,2357170516
22,13,Improv_Metronome,255,1,38,94,2357173108
22,13,Improv_Metronome,256,1,48,82,2357438240
22,13,Improv_Metronome,257,1,38,80,2357553932
22,13,Improv_Metronome,258,5,42,127,2357671260
22,13,Improv_Metronome,259,1,48,64,2357777372
22,13,Improv_Metronome,260,1,38,57,2357901820
22,13,Improv_Metronome,261,1,48,83,2358135632
22,13,Improv_Metronome,262,5,42,127,2358171124
22,13,Improv_Metronome,263,1,38,68,2358173800
22,13,Improv_Metronome,264,1,48,68,2358419252
22,13,Improv_Metronome,265,1,38,71,2358522556
22,13,Improv_Metronome,266,1,48,78,2358665020
22,13,Improv_Metronome,267,5,42,127,2358670892
22,13,Improv_Metronome,268,1,48,77,2358916812
22,13,Improv_Metronome,269,5,42,127,2359170424
22,13,Improv_Metronome,270,1,48,79,2359175784
22,13,Improv_Metronome,271,1,38,63,2359183548
22,13,Improv_Metronome,272,1,48,75,2359444188
22,13,Improv_Metronome,273,1,38,73,2359541000
22,13,Improv_Metronome,274,5,42,127,2359671284
22,13,Improv_Metronome,275,1,48,71,2359781312
22,13,Improv_Metronome,276,1,38,61,2359896928
22,13,Improv_Metronome,277,1,48,79,2360143244
22,13,Improv_Metronome,278,5,42,127,2360170728
22,13,Improv_Metronome,279,1,38,78,2360172740
22,13,Improv_Metronome,280,1,48,75,2360422820
22,13,Improv_Metronome,281,1,38,72,2360533228
22,13,Improv_Metronome,282,1,48,79,2360662824
22,13,Improv_Metronome,283,5,42,127,2360670640
22,13,Improv_Metronome,284,1,48,78,2360926732
22,13,Improv_Metronome,285,5,42,127,2361171292
22,13,Improv_Metronome,286,1,38,76,2361177104
22,13,Improv_Metronome,287,1,48,78,2361180304
22,13,Improv_Metronome,288,1,48,79,2361445280
22,13,Improv_Metronome,289,1,38,74,2361550152
22,13,Improv_Metronome,290,5,42,127,2361671120
22,13,Improv_Metronome,291,1,48,73,2361781676
22,13,Improv_Metronome,292,1,38,63,2361907084
22,13,Improv_Metronome,293,1,48,80,2362162000
22,13,Improv_Metronome,294,5,42,127,2362170712
22,13,Improv_Metronome,295,1,38,86,2362185496
22,13,Improv_Metronome,296,1,48,73,2362461568
22,13,Improv_Metronome,297,1,38,75,2362560300
22,13,Improv_Metronome,298,5,42,127,2362671092
22,13,Improv_Metronome,299,1,48,84,2362695528
22,13,Improv_Metronome,300,1,48,79,2362933164
22,13,Improv_Metronome,301,1,38,91,2363170692
22,13,Improv_Metronome,302,5,42,127,2363173452
22,13,Improv_Metronome,303,1,48,91,2363174716
22,13,Improv_Metronome,304,1,48,81,2363433852
22,13,Improv_Metronome,305,5,42,127,2363671232
22,13,Improv_Metronome,306,1,48,85,2363918888
22,13,Improv_Metronome,307,5,42,127,2364170704
22,13,Improv_Metronome,308,1,38,82,2364173376
22,13,Improv_Metronome,309,1,48,81,2364187040
22,13,Improv_Metronome,310,1,48,81,2364428984
22,13,Improv_Metronome,311,1,38,67,2364516028
22,13,Improv_Metronome,312,1,48,81,2364661952
22,13,Improv_Metronome,313,5,42,127,2364671408
22,13,Improv_Metronome,314,1,48,74,2364902748
22,13,Improv_Metronome,315,1,48,81,2365153696
22,13,Improv_Metronome,316,1,38,81,2365164968
22,13,Improv_Metronome,317,5,42,127,2365170988
22,13,Improv_Metronome,318,1,48,88,2365406484
22,13,Improv_Metronome,319,5,42,127,2365670936
22,13,Improv_Metronome,320,1,48,79,2365898696
22,13,Improv_Metronome,321,1,48,89,2366161912
22,13,Improv_Metronome,322,5,42,127,2366170404
22,13,Improv_Metronome,323,1,38,83,2366177784
22,13,Improv_Metronome,324,1,48,78,2366418900
22,13,Improv_Metronome,325,1,38,73,2366527116
22,13,Improv_Metronome,326,1,48,85,2366662956
22,13,Improv_Metronome,327,5,42,127,2366671140
22,13,Improv_Metronome,328,1,48,83,2366908464
22,13,Improv_Metronome,329,1,48,91,2367160608
22,13,Improv_Metronome,330,1,38,76,2367170652
22,13,Improv_Metronome,331,5,42,127,2367173336
22,13,Improv_Metronome,332,1,48,84,2367422372
22,13,Improv_Metronome,333,5,42,127,2367670744
22,13,Improv_Metronome,334,1,48,89,2367885088
22,13,Improv_Metronome,335,1,48,94,2368150028
22,13,Improv_Metronome,336,1,38,86,2368168296
22,13,Improv_Metronome,337,5,42,127,2368171548
22,13,Improv_Metronome,338,1,48,70,2368406944
22,13,Improv_Metronome,339,1,38,79,2368510540
22,13,Improv_Metronome,340,1,48,85,2368659516
22,13,Improv_Metronome,341,5,42,127,2368670996
22,13,Improv_Metronome,342,1,48,77,2368906596
22,13,Improv_Metronome,343,1,48,93,2369152384
22,13,Improv_Metronome,344,1,38,81,2369156700
22,13,Improv_Metronome,345,5,42,127,2369170724
22,13,Improv_Metronome,346,1,48,84,2369419536
22,13,Improv_Metronome,347,5,42,127,2369670748
22,13,Improv_Metronome,348,1,48,81,2369901652
22,13,Improv_Metronome,349,1,48,89,2370161352
22,13,Improv_Metronome,350,1,38,66,2370164620
22,13,Improv_Metronome,351,5,42,127,2370171240
22,13,Improv_Metronome,352,1,48,72,2370424536
22,13,Improv_Metronome,353,1,38,71,2370530004
22,13,Improv_Metronome,354,1,48,80,2370662452
22,13,Improv_Metronome,355,5,42,127,2370670936
22,13,Improv_Metronome,356,1,48,78,2370890156
22,13,Improv_Metronome,357,1,48,70,2371035936
22,13,Improv_Metronome,358,5,42,127,2371170668
22,13,Improv_Metronome,359,1,38,84,2371183284
22,13,Improv_Metronome,360,1,48,64,2371264380
22,13,Improv_Metronome,361,1,48,57,2371388048
22,13,Improv_Metronome,362,1,38,84,2371521568
22,13,Improv_Metronome,363,5,42,127,2371671332
22,13,Improv_Metronome,364,1,48,73,2371769840
22,13,Improv_Metronome,365,1,38,68,2371876624
22,13,Improv_Metronome,366,1,48,64,2372134088
22,13,Improv_Metronome,367,5,42,127,2372171144
22,13,Improv_Metronome,368,1,48,63,2372364932
22,13,Improv_Metronome,369,1,48,91,2372640192
22,13,Improv_Metronome,370,5,42,127,2372670744
22,13,Improv_Metronome,371,1,48,74,2372888764
22,13,Improv_Metronome,372,1,48,75,2373012308
22,13,Improv_Metronome,373,1,38,68,2373154128
22,13,Improv_Metronome,374,5,42,127,2373170692
22,13,Improv_Metronome,375,1,48,59,2373255024
22,13,Improv_Metronome,376,1,48,60,2373360944
22,13,Improv_Metronome,377,1,38,62,2373500564
22,13,Improv_Metronome,378,5,42,127,2373671520
22,13,Improv_Metronome,379,1,48,72,2373730668
22,13,Improv_Metronome,380,1,38,74,2373858348
22,13,Improv_Metronome,381,1,48,73,2374137048
22,13,Improv_Metronome,382,5,42,127,2374170968
22,13,Improv_Metronome,383,1,48,70,2374428256
22,13,Improv_Metronome,384,5,42,127,2374670648
22,13,Improv_Metronome,385,1,48,77,2374674360
22,13,Improv_Metronome,386,1,48,68,2374923592
22,13,Improv_Metronome,387,1,48,71,2375052672
22,13,Improv_Metronome,388,5,42,127,2375170372
22,13,Improv_Metronome,389,1,38,67,2375179324
22,13,Improv_Metronome,390,1,48,61,2375283344
22,13,Improv_Metronome,391,1,48,58,2375393748
22,13,Improv_Metronome,392,1,38,72,2375537412
22,13,Improv_Metronome,393,5,42,127,2375671344
22,13,Improv_Metronome,394,1,48,73,2375764148
22,13,Improv_Metronome,395,1,38,73,2375879336
22,13,Improv_Metronome,396,1,48,92,2376146888
22,13,Improv_Metronome,397,5,42,127,2376170712
22,13,Improv_Metronome,398,1,48,71,2376406008
22,13,Improv_Metronome,399,1,48,81,2376656064
22,13,Improv_Metronome,400,5,42,127,2376670608
22,13,Improv_Metronome,401,1,48,74,2376930372
22,13,Improv_Metronome,402,1,48,63,2377048228
22,13,Improv_Metronome,403,5,42,127,2377171388
22,13,Improv_Metronome,404,1,38,78,2377176748
22,13,Improv_Metronome,405,1,48,56,2377285712
22,13,Improv_Metronome,406,1,48,56,2377396412
22,13,Improv_Metronome,407,1,38,57,2377524140
22,13,Improv_Metronome,408,5,42,127,2377671388
22,13,Improv_Metronome,409,1,48,76,2377763816
22,13,Improv_Metronome,410,1,38,59,2377914468
22,13,Improv_Metronome,411,5,42,127,2378170616
22,13,Improv_Metronome,412,1,48,75,2378193852
22,13,Improv_Metronome,413,1,48,73,2378438368
22,13,Improv_Metronome,414,5,42,127,2378670440
22,13,Improv_Metronome,415,1,48,88,2378682156
22,13,Improv_Metronome,416,1,48,70,2378921216
22,13,Improv_Metronome,417,1,48,66,2379041244
22,13,Improv_Metronome,418,1,38,74,2379166284
22,13,Improv_Metronome,419,5,42,127,2379171204
22,13,Improv_Metronome,420,1,48,65,2379285452
22,13,Improv_Metronome,421,1,48,63,2379389032
22,13,Improv_Metronome,422,1,38,68,2379530852
22,13,Improv_Metronome,423,1,48,67,2379645196
22,13,Improv_Metronome,424,5,42,127,2379670888
22,13,Improv_Metronome,425,1,38,81,2379777236
22,13,Improv_Metronome,426,1,48,76,2379889108
22,13,Improv_Metronome,427,1,48,68,2380021280
22,13,Improv_Metronome,428,1,38,77,2380127020
22,13,Improv_Metronome,429,5,42,127,2380170592
22,13,Improv_Metronome,430,1,48,65,2380247988
22,13,Improv_Metronome,431,1,48,55,2380365928
22,13,Improv_Metronome,432,1,38,76,2380495476
22,13,Improv_Metronome,433,1,48,64,2380630172
22,13,Improv_Metronome,434,5,42,127,2380671340
22,13,Improv_Metronome,435,1,38,56,2380764972
22,13,Improv_Metronome,436,1,48,71,2380880964
22,13,Improv_Metronome,437,1,48,67,2381021960
22,13,Improv_Metronome,438,1,38,57,2381150740
22,13,Improv_Metronome,439,5,42,127,2381171340
22,13,Improv_Metronome,440,1,48,67,2381280232
22,13,Improv_Metronome,441,1,48,57,2381394728
22,13,Improv_Metronome,442,1,38,58,2381527052
22,13,Improv_Metronome,443,1,48,68,2381644680
22,13,Improv_Metronome,444,5,42,127,2381670900
22,13,Improv_Metronome,445,1,38,57,2381795576
22,13,Improv_Metronome,446,1,48,75,2381907596
22,13,Improv_Metronome,447,1,48,60,2382058768
22,13,Improv_Metronome,448,5,42,127,2382170460
22,13,Improv_Metronome,449,1,38,58,2382183300
22,13,Improv_Metronome,450,1,48,59,2382318460
22,13,Improv_Metronome,451,1,48,57,2382433704
22,13,Improv_Metronome,452,1,38,66,2382567820
22,13,Improv_Metronome,453,5,42,127,2382671136
22,13,Improv_Metronome,454,1,48,58,2382686224
22,13,Improv_Metronome,455,1,38,66,2382825420
22,13,Improv_Metronome,456,1,48,63,2382951212
22,13,Improv_Metronome,457,1,48,64,2383070296
22,13,Improv_Metronome,458,5,42,127,2383171064
22,13,Improv_Metronome,459,1,38,65,2383188020
22,13,Improv_Metronome,460,1,48,59,2383308000
22,13,Improv_Metronome,461,1,48,53,2383417104
22,13,Improv_Metronome,462,1,38,71,2383552268
22,13,Improv_Metronome,463,1,48,57,2383667808
22,13,Improv_Metronome,464,5,42,127,2383670540
22,13,Improv_Metronome,465,1,38,57,2383813164
22,13,Improv_Metronome,466,1,48,56,2383915240
22,13,Improv_Metronome,467,1,48,52,2384042400
22,13,Improv_Metronome,468,5,42,127,2384171372
22,13,Improv_Metronome,469,1,38,61,2384181300
22,13,Improv_Metronome,470,1,48,58,2384283596
22,13,Improv_Metronome,471,1,48,53,2384422052
22,13,Improv_Metronome,472,1,38,61,2384539084
22,13,Improv_Metronome,473,1,48,70,2384658988
22,13,Improv_Metronome,474,5,42,127,2384671364
22,13,Improv_Metronome,475,1,38,65,2384793320
22,13,Improv_Metronome,476,1,48,70,2384923924
22,13,Improv_Metronome,477,1,48,65,2385042756
22,13,Improv_Metronome,478,1,38,51,2385148520
22,13,Improv_Metronome,479,5,42,127,2385170920
22,13,Improv_Metronome,480,1,48,65,2385287416
22,13,Improv_Metronome,481,1,48,59,2385397740
22,13,Improv_Metronome,482,1,38,68,2385532732
22,13,Improv_Metronome,483,1,48,67,2385663112
22,13,Improv_Metronome,484,5,42,127,2385670476
22,13,Improv_Metronome,485,1,38,75,2385806344
22,13,Improv_Metronome,486,1,48,75,2385909636
22,13,Improv_Metronome,487,1,48,66,2386073500
22,13,Improv_Metronome,488,5,42,127,2386171160
22,13,Improv_Metronome,489,1,38,67,2386210856
22,13,Improv_Metronome,490,1,48,59,2386335440
22,13,Improv_Metronome,491,1,48,58,2386447336
22,13,Improv_Metronome,492,1,38,69,2386556228
22,13,Improv_Metronome,493,5,42,127,2386671012
22,13,Improv_Metronome,494,1,48,79,2386698136
22,13,Improv_Metronome,495,1,48,74,2386954920
22,13,Improv_Metronome,496,5,42,127,2387170532
22,13,Improv_Metronome,497,1,38,79,2387183224
22,13,Improv_Metronome,498,1,48,86,2387199952
22,13,Improv_Metronome,499,1,48,77,2387447512
22,13,Improv_Metronome,500,1,38,73,2387541292
22,13,Improv_Metronome,501,5,42,127,2387671396
22,13,Improv_Metronome,502,1,48,81,2387698592
22,13,Improv_Metronome,503,1,38,72,2387810248
22,13,Improv_Metronome,504,1,48,71,2387935908
22,13,Improv_Metronome,505,5,42,127,2388171048
22,13,Improv_Metronome,506,1,38,70,2388187996
22,13,Improv_Metronome,507,1,48,69,2388190452
22,13,Improv_Metronome,508,1,48,70,2388436580
22,13,Improv_Metronome,509,1,38,70,2388532828
22,13,Improv_Metronome,510,5,42,127,2388670848
22,13,Improv_Metronome,511,1,48,74,2388684584
22,13,Improv_Metronome,512,1,48,67,2388935988
22,13,Improv_Metronome,513,5,42,127,2389170524
22,13,Improv_Metronome,514,1,48,85,2389188520
22,13,Improv_Metronome,515,1,38,82,2389199052
22,13,Improv_Metronome,516,1,48,73,2389438152
22,13,Improv_Metronome,517,1,38,68,2389556984
22,13,Improv_Metronome,518,5,42,127,2389671320
22,13,Improv_Metronome,519,1,48,74,2389685132
22,13,Improv_Metronome,520,1,38,77,2389786388
22,13,Improv_Metronome,521,1,48,77,2389923420
22,13,Improv_Metronome,522,1,48,81,2390169352
22,13,Improv_Metronome,523,5,42,127,2390171088
22,13,Improv_Metronome,524,1,38,73,2390175028
22,13,Improv_Metronome,525,1,48,72,2390441756
22,13,Improv_Metronome,526,1,38,68,2390540244
22,13,Improv_Metronome,527,5,42,127,2390670936
22,13,Improv_Metronome,528,1,48,77,2390688888
22,13,Improv_Metronome,529,1,48,75,2390939740
22,13,Improv_Metronome,530,5,42,127,2391170532
22,13,Improv_Metronome,531,1,48,85,2391185096
22,13,Improv_Metronome,532,1,38,62,2391209568
22,13,Improv_Metronome,533,1,48,69,2391437732
22,13,Improv_Metronome,534,1,38,71,2391562872
22,13,Improv_Metronome,535,5,42,127,2391671196
22,13,Improv_Metronome,536,1,48,73,2391685756
22,13,Improv_Metronome,537,1,38,73,2391793844
22,13,Improv_Metronome,538,1,48,71,2391927556
22,13,Improv_Metronome,539,1,38,66,2392166468
22,13,Improv_Metronome,540,5,42,127,2392170840
22,13,Improv_Metronome,541,1,48,73,2392172176
22,13,Improv_Metronome,542,1,48,70,2392421212
22,13,Improv_Metronome,543,1,38,65,2392520396
22,13,Improv_Metronome,544,1,48,79,2392667948
22,13,Improv_Metronome,545,5,42,127,2392670604
22,13,Improv_Metronome,546,1,48,78,2392903740
22,13,Improv_Metronome,547,1,48,88,2393162240
22,13,Improv_Metronome,548,5,42,127,2393171400
22,13,Improv_Metronome,549,1,38,66,2393176460
22,13,Improv_Metronome,550,1,48,68,2393415488
22,13,Improv_Metronome,551,1,38,65,2393512580
22,13,Improv_Metronome,552,1,48,72,2393657664
22,13,Improv_Metronome,553,5,42,127,2393671012
22,13,Improv_Metronome,554,1,48,80,2393916184
22,13,Improv_Metronome,555,5,42,127,2394170692
22,13,Improv_Metronome,556,1,48,81,2394183688
22,13,Improv_Metronome,557,1,38,84,2394197128
22,13,Improv_Metronome,558,1,48,71,2394432116
22,13,Improv_Metronome,559,1,38,71,2394532928
22,13,Improv_Metronome,560,5,42,127,2394670720
22,13,Improv_Metronome,561,1,48,71,2394675108
22,13,Improv_Metronome,562,1,48,69,2394918728
22,13,Improv_Metronome,563,1,38,81,2395164144
22,13,Improv_Metronome,564,1,48,80,2395168536
22,13,Improv_Metronome,565,5,42,127,2395171264
22,13,Improv_Metronome,566,1,48,65,2395392996
22,13,Improv_Metronome,567,1,38,62,2395518560
22,13,Improv_Metronome,568,5,42,127,2395670820
22,13,Improv_Metronome,569,1,48,71,2395784112
22,13,Improv_Metronome,570,1,38,74,2395886888
22,13,Improv_Metronome,571,1,48,82,2396148532
22,13,Improv_Metronome,572,5,42,127,2396170488
22,13,Improv_Metronome,573,1,38,78,2396173608
22,13,Improv_Metronome,574,1,48,60,2396404108
22,13,Improv_Metronome,575,1,38,69,2396531020
22,13,Improv_Metronome,576,1,48,71,2396659592
22,13,Improv_Metronome,577,5,42,127,2396671448
22,13,Improv_Metronome,578,1,48,67,2396907496
22,13,Improv_Metronome,579,1,48,91,2397169848
22,13,Improv_Metronome,580,5,42,127,2397171568
22,13,Improv_Metronome,581,1,38,81,2397179696
22,13,Improv_Metronome,582,1,48,78,2397437352
22,13,Improv_Metronome,583,1,38,74,2397558804
22,13,Improv_Metronome,584,5,42,127,2397670820
22,13,Improv_Metronome,585,1,48,68,2397799900
22,13,Improv_Metronome,586,1,38,61,2397914568
22,13,Improv_Metronome,587,5,42,127,2398170568
22,13,Improv_Metronome,588,1,48,83,2398177428
22,13,Improv_Metronome,589,1,38,81,2398208148
22,13,Improv_Metronome,590,1,48,69,2398434316
22,13,Improv_Metronome,591,1,38,71,2398547088
22,13,Improv_Metronome,0,9999,9999,9999,9999,2328668260
22,13,Improv_Metronome,1,9999,9999,9999,9999,2329168952
22,13,Improv_Metronome,2,9999,9999,9999,9999,2329668668
22,13,Improv_Metronome,3,9999,9999,9999,9999,2330168384
22,13,Improv_Metronome,4,9999,9999,9999,9999,2330668132
22,13,Improv_Metronome,5,9999,9999,9999,9999,2331168844
22,13,Improv_Metronome,6,9999,9999,9999,9999,2331668548
22,13,Improv_Metronome,7,9999,9999,9999,9999,2332168252
22,13,Improv_Metronome,8,9999,9999,9999,9999,2332669004
22,13,Improv_Metronome,9,9999,9999,9999,9999,2333168716
22,13,Improv_Metronome,10,9999,9999,9999,9999,2333668416
22,13,Improv_Metronome,11,9999,9999,9999,9999,2334168112
22,13,Improv_Metronome,12,9999,9999,9999,9999,2334668868
22,13,Improv_Metronome,13,9999,9999,9999,9999,2335168620
22,13,Improv_Metronome,14,9999,9999,9999,9999,2335668328
22,13,Improv_Metronome,15,9999,9999,9999,9999,2336169064
22,13,Improv_Metronome,16,9999,9999,9999,9999,2336668740
22,13,Improv_Metronome,17,9999,9999,9999,9999,2337168444
22,13,Improv_Metronome,18,9999,9999,9999,9999,2337668208
22,13,Improv_Metronome,19,9999,9999,9999,9999,2338168932
22,13,Improv_Metronome,20,9999,9999,9999,9999,2338668624
22,13,Improv_Metronome,21,9999,9999,9999,9999,2339168332
22,13,Improv_Metronome,22,9999,9999,9999,9999,2339669080
22,13,Improv_Metronome,23,9999,9999,9999,9999,2340168788
22,13,Improv_Metronome,24,9999,9999,9999,9999,2340668484
22,13,Improv_Metronome,25,9999,9999,9999,9999,2341168184
22,13,Improv_Metronome,26,9999,9999,9999,9999,2341668936
22,13,Improv_Metronome,27,9999,9999,9999,9999,2342168636
22,13,Improv_Metronome,28,9999,9999,9999,9999,2342668348
22,13,Improv_Metronome,29,9999,9999,9999,9999,2343168052
22,13,Improv_Metronome,30,9999,9999,9999,9999,2343668856
22,13,Improv_Metronome,31,9999,9999,9999,9999,2344168564
22,13,Improv_Metronome,32,9999,9999,9999,9999,2344668264
22,13,Improv_Metronome,33,9999,9999,9999,9999,2345169016
22,13,Improv_Metronome,34,9999,9999,9999,9999,2345668720
22,13,Improv_Metronome,35,9999,9999,9999,9999,2346168424
22,13,Improv_Metronome,36,9999,9999,9999,9999,2346668128
22,13,Improv_Metronome,37,9999,9999,9999,9999,2347168824
22,13,Improv_Metronome,38,9999,9999,9999,9999,2347668572
22,13,Improv_Metronome,39,9999,9999,9999,9999,2348168300
22,13,Improv_Metronome,40,9999,9999,9999,9999,2348669028
22,13,Improv_Metronome,41,9999,9999,9999,9999,2349168704
22,13,Improv_Metronome,42,9999,9999,9999,9999,2349668456
22,13,Improv_Metronome,43,9999,9999,9999,9999,2350168180
22,13,Improv_Metronome,44,9999,9999,9999,9999,2350668892
22,13,Improv_Metronome,45,9999,9999,9999,9999,2351168564
22,13,Improv_Metronome,46,9999,9999,9999,9999,2351668316
22,13,Improv_Metronome,47,9999,9999,9999,9999,2352169064
22,13,Improv_Metronome,48,9999,9999,9999,9999,2352668760
22,13,Improv_Metronome,49,9999,9999,9999,9999,2353168432
22,13,Improv_Metronome,50,9999,9999,9999,9999,2353668196
22,13,Improv_Metronome,51,9999,9999,9999,9999,2354168948
22,13,Improv_Metronome,52,9999,9999,9999,9999,2354668656
22,13,Improv_Metronome,53,9999,9999,9999,9999,2355168308
22,13,Improv_Metronome,54,9999,9999,9999,9999,2355669060
22,13,Improv_Metronome,55,9999,9999,9999,9999,2356168820
22,13,Improv_Metronome,56,9999,9999,9999,9999,2356668480
22,13,Improv_Metronome,57,9999,9999,9999,9999,2357168228
22,13,Improv_Metronome,58,9999,9999,9999,9999,2357668968
22,13,Improv_Metronome,59,9999,9999,9999,9999,2358168688
22,13,Improv_Metronome,60,9999,9999,9999,9999,2358668380
22,13,Improv_Metronome,61,9999,9999,9999,9999,2359168056
22,13,Improv_Metronome,62,9999,9999,9999,9999,2359668844
22,13,Improv_Metronome,63,9999,9999,9999,9999,2360168512
22,13,Improv_Metronome,64,9999,9999,9999,9999,2360668276
22,13,Improv_Metronome,65,9999,9999,9999,9999,2361169000
22,13,Improv_Metronome,66,9999,9999,9999,9999,2361668680
22,13,Improv_Metronome,67,9999,9999,9999,9999,2362168424
22,13,Improv_Metronome,68,9999,9999,9999,9999,2362668136
22,13,Improv_Metronome,69,9999,9999,9999,9999,2363168856
22,13,Improv_Metronome,70,9999,9999,9999,9999,2363668568
22,13,Improv_Metronome,71,9999,9999,9999,9999,2364168264
22,13,Improv_Metronome,72,9999,9999,9999,9999,2364669044
22,13,Improv_Metronome,73,9999,9999,9999,9999,2365168700
22,13,Improv_Metronome,74,9999,9999,9999,9999,2365668424
22,13,Improv_Metronome,75,9999,9999,9999,9999,2366168112
22,13,Improv_Metronome,76,9999,9999,9999,9999,2366668852
22,13,Improv_Metronome,77,9999,9999,9999,9999,2367168600
22,13,Improv_Metronome,78,9999,9999,9999,9999,2367668308
22,13,Improv_Metronome,79,9999,9999,9999,9999,2368169036
22,13,Improv_Metronome,80,9999,9999,9999,9999,2368668780
22,13,Improv_Metronome,81,9999,9999,9999,9999,2369168432
22,13,Improv_Metronome,82,9999,9999,9999,9999,2369668160
22,13,Improv_Metronome,83,9999,9999,9999,9999,2370168948
22,13,Improv_Metronome,84,9999,9999,9999,9999,2370668648
22,13,Improv_Metronome,85,9999,9999,9999,9999,2371168304
22,13,Improv_Metronome,86,9999,9999,9999,9999,2371669040
22,13,Improv_Metronome,87,9999,9999,9999,9999,2372168780
22,13,Improv_Metronome,88,9999,9999,9999,9999,2372668528
22,13,Improv_Metronome,89,9999,9999,9999,9999,2373168180
22,13,Improv_Metronome,90,9999,9999,9999,9999,2373668932
22,13,Improv_Metronome,91,9999,9999,9999,9999,2374168676
22,13,Improv_Metronome,92,9999,9999,9999,9999,2374668356
22,13,Improv_Metronome,93,9999,9999,9999,9999,2375168080
22,13,Improv_Metronome,94,9999,9999,9999,9999,2375668832
22,13,Improv_Metronome,95,9999,9999,9999,9999,2376168500
22,13,Improv_Metronome,96,9999,9999,9999,9999,2376668244
22,13,Improv_Metronome,97,9999,9999,9999,9999,2377168948
22,13,Improv_Metronome,98,9999,9999,9999,9999,2377668728
22,13,Improv_Metronome,99,9999,9999,9999,9999,2378168400
22,13,Improv_Metronome,100,9999,9999,9999,9999,2378668148
22,13,Improv_Metronome,101,9999,9999,9999,9999,2379168840
22,13,Improv_Metronome,102,9999,9999,9999,9999,2379668596
22,13,Improv_Metronome,103,9999,9999,9999,9999,2380168300
22,13,Improv_Metronome,104,9999,9999,9999,9999,2380668976
22,13,Improv_Metronome,105,9999,9999,9999,9999,2381168756
22,13,Improv_Metronome,106,9999,9999,9999,9999,2381668460
22,13,Improv_Metronome,107,9999,9999,9999,9999,2382168172
22,13,Improv_Metronome,108,9999,9999,9999,9999,2382668848
22,13,Improv_Metronome,109,9999,9999,9999,9999,2383168624
22,13,Improv_Metronome,110,9999,9999,9999,9999,2383668324
22,13,Improv_Metronome,111,9999,9999,9999,9999,2384169080
22,13,Improv_Metronome,112,9999,9999,9999,9999,2384668776
22,13,Improv_Metronome,113,9999,9999,9999,9999,2385168480
22,13,Improv_Metronome,114,9999,9999,9999,9999,2385668184
22,13,Improv_Metronome,115,9999,9999,9999,9999,2386168884
22,13,Improv_Metronome,116,9999,9999,9999,9999,2386668644
22,13,Improv_Metronome,117,9999,9999,9999,9999,2387168316
22,13,Improv_Metronome,118,9999,9999,9999,9999,2387669104
22,13,Improv_Metronome,119,9999,9999,9999,9999,2388168756
22,13,Improv_Metronome,120,9999,9999,9999,9999,2388668484
22,13,Improv_Metronome,121,9999,9999,9999,9999,2389168232
22,13,Improv_Metronome,122,9999,9999,9999,9999,2389668956
22,13,Improv_Metronome,123,9999,9999,9999,9999,2390168656
22,13,Improv_Metronome,124,9999,9999,9999,9999,2390668348
22,13,Improv_Metronome,125,9999,9999,9999,9999,2391168092
22,13,Improv_Metronome,126,9999,9999,9999,9999,2391668832
22,13,Improv_Metronome,127,9999,9999,9999,9999,2392168552
22,13,Improv_Metronome,128,9999,9999,9999,9999,2392668240
22,13,Improv_Metronome,129,9999,9999,9999,9999,2393168960
22,13,Improv_Metronome,130,9999,9999,9999,9999,2393668724
22,13,Improv_Metronome,131,9999,9999,9999,9999,2394168404
22,13,Improv_Metronome,132,9999,9999,9999,9999,2394668132
22,13,Improv_Metronome,133,9999,9999,9999,9999,2395168828
22,13,Improv_Metronome,134,9999,9999,9999,9999,2395668532
22,13,Improv_Metronome,135,9999,9999,9999,9999,2396168272
22,13,Improv_Metronome,136,9999,9999,9999,9999,2396669012
22,13,Improv_Metronome,137,9999,9999,9999,9999,2397168692
22,13,Improv_Metronome,138,9999,9999,9999,9999,2397668456
22,13,Improv_Metronome,139,9999,9999,9999,9999,2398168128
23,14,Improv_Melody,0,2,48,80,2442830212
23,14,Improv_Melody,1,2,72,80,2442832960
23,14,Improv_Melody,2,5,42,127,2442834520
23,14,Improv_Melody,3,5,42,110,2443326916
23,14,Improv_Melody,4,5,42,110,2443826412
23,14,Improv_Melody,5,5,42,110,2444327552
23,14,Improv_Melody,6,5,42,127,2444827124
23,14,Improv_Melody,7,5,42,110,2445326700
23,14,Improv_Melody,8,5,42,110,2445826348
23,14,Improv_Melody,9,5,42,110,2446327336
23,14,Improv_Melody,10,2,43,80,2446829720
23,14,Improv_Melody,11,2,67,80,2446831944
23,14,Improv_Melody,12,5,42,127,2446834476
23,14,Improv_Melody,13,5,42,110,2447326572
23,14,Improv_Melody,14,5,42,110,2447827340
23,14,Improv_Melody,15,5,42,110,2448327136
23,14,Improv_Melody,16,5,42,127,2448826708
23,14,Improv_Melody,17,5,42,110,2449326504
23,14,Improv_Melody,18,5,42,110,2449827124
23,14,Improv_Melody,19,5,42,110,2450327116
23,14,Improv_Melody,20,2,45,80,2450829272
23,14,Improv_Melody,21,2,69,80,2450831272
23,14,Improv_Melody,22,5,42,127,2450833960
23,14,Improv_Melody,23,5,42,110,2451327324
23,14,Improv_Melody,24,5,42,110,2451827120
23,14,Improv_Melody,25,5,42,110,2452326768
23,14,Improv_Melody,26,5,42,127,2452826416
23,14,Improv_Melody,27,5,42,110,2453327184
23,14,Improv_Melody,28,5,42,110,2453827128
23,14,Improv_Melody,29,5,42,110,2454326776
23,14,Improv_Melody,30,2,41,80,2454830208
23,14,Improv_Melody,31,2,65,80,2454832136
23,14,Improv_Melody,32,5,42,127,2454834816
23,14,Improv_Melody,33,5,42,110,2455327060
23,14,Improv_Melody,34,5,42,110,2455826780
23,14,Improv_Melody,35,5,42,110,2456326800
23,14,Improv_Melody,36,5,42,127,2456827196
23,14,Improv_Melody,37,5,42,110,2457326916
23,14,Improv_Melody,38,5,42,110,2457826788
23,14,Improv_Melody,39,1,38,60,2458070856
23,14,Improv_Melody,40,1,38,52,2458166352
23,14,Improv_Melody,41,1,38,46,2458248604
23,14,Improv_Melody,42,5,42,110,2458327280
23,14,Improv_Melody,43,1,48,62,2458567144
23,14,Improv_Melody,44,2,48,80,2458829696
23,14,Improv_Melody,45,2,72,80,2458831772
23,14,Improv_Melody,46,5,42,127,2458834384
23,14,Improv_Melody,47,1,48,76,2458835424
23,14,Improv_Melody,48,1,38,70,2458871160
23,14,Improv_Melody,49,1,48,70,2459118788
23,14,Improv_Melody,50,5,42,110,2459326776
23,14,Improv_Melody,51,1,48,59,2459375824
23,14,Improv_Melody,52,1,48,46,2459643820
23,14,Improv_Melody,53,5,42,110,2459826828
23,14,Improv_Melody,54,1,48,61,2459902500
23,14,Improv_Melody,55,1,38,54,2459909512
23,14,Improv_Melody,56,1,48,46,2460235456
23,14,Improv_Melody,57,5,42,110,2460327224
23,14,Improv_Melody,58,1,38,53,2460383056
23,14,Improv_Melody,59,5,42,127,2460827056
23,14,Improv_Melody,60,1,48,76,2461161032
23,14,Improv_Melody,61,5,42,110,2461326580
23,14,Improv_Melody,62,1,38,56,2461410056
23,14,Improv_Melody,63,1,48,75,2461418116
23,14,Improv_Melody,64,1,48,62,2461680404
23,14,Improv_Melody,65,5,42,110,2461826512
23,14,Improv_Melody,66,1,48,65,2461934676
23,14,Improv_Melody,67,5,42,110,2462327108
23,14,Improv_Melody,68,1,48,72,2462427036
23,14,Improv_Melody,69,1,38,57,2462445344
23,14,Improv_Melody,70,2,43,80,2462829488
23,14,Improv_Melody,71,2,67,80,2462831568
23,14,Improv_Melody,72,5,42,127,2462834104
23,14,Improv_Melody,73,1,48,78,2462953636
23,14,Improv_Melody,74,5,42,110,2463326552
23,14,Improv_Melody,75,1,48,75,2463415712
23,14,Improv_Melody,76,1,38,60,2463429228
23,14,Improv_Melody,77,5,42,110,2463827396
23,14,Improv_Melody,78,1,48,83,2464142600
23,14,Improv_Melody,79,5,42,110,2464327024
23,14,Improv_Melody,80,1,48,73,2464408080
23,14,Improv_Melody,81,1,38,59,2464421860
23,14,Improv_Melody,82,1,48,71,2464652112
23,14,Improv_Melody,83,5,42,127,2464826740
23,14,Improv_Melody,84,1,48,73,2464886180
23,14,Improv_Melody,85,1,48,74,2465323104
23,14,Improv_Melody,86,5,42,110,2465326356
23,14,Improv_Melody,87,1,38,69,2465336280
23,14,Improv_Melody,88,5,42,110,2465827300
23,14,Improv_Melody,89,1,48,90,2466064416
23,14,Improv_Melody,90,1,48,80,2466304440
23,14,Improv_Melody,91,1,38,67,2466325464
23,14,Improv_Melody,92,5,42,110,2466328696
23,14,Improv_Melody,93,1,48,75,2466548260
23,14,Improv_Melody,94,1,48,88,2466799432
23,14,Improv_Melody,95,2,45,80,2466829052
23,14,Improv_Melody,96,2,69,80,2466831132
23,14,Improv_Melody,97,5,42,127,2466833596
23,14,Improv_Melody,98,1,48,86,2467315084
23,14,Improv_Melody,99,5,42,110,2467327460
23,14,Improv_Melody,100,1,38,72,2467331704
23,14,Improv_Melody,101,5,42,110,2467827208
23,14,Improv_Melody,102,1,48,73,2468073144
23,14,Improv_Melody,103,5,42,110,2468326760
23,14,Improv_Melody,104,1,48,76,2468328244
23,14,Improv_Melody,105,1,38,60,2468331820
23,14,Improv_Melody,106,1,48,73,2468573160
23,14,Improv_Melody,107,1,48,79,2468807808
23,14,Improv_Melody,108,5,42,127,2468826472
23,14,Improv_Melody,109,1,38,60,2469300332
23,14,Improv_Melody,110,1,48,73,2469303528
23,14,Improv_Melody,111,5,42,110,2469327272
23,14,Improv_Melody,112,5,42,110,2469827028
23,14,Improv_Melody,113,1,48,87,2470069300
23,14,Improv_Melody,114,5,42,110,2470326580
23,14,Improv_Melody,115,1,38,65,2470328064
23,14,Improv_Melody,116,1,48,83,2470337020
23,14,Improv_Melody,117,1,48,81,2470587344
23,14,Improv_Melody,118,1,48,80,2470813460
23,14,Improv_Melody,119,2,41,80,2470829996
23,14,Improv_Melody,120,2,65,80,2470831996
23,14,Improv_Melody,121,5,42,127,2470834536
23,14,Improv_Melody,122,1,48,75,2471317264
23,14,Improv_Melody,123,5,42,110,2471327052
23,14,Improv_Melody,124,1,38,68,2471328092
23,14,Improv_Melody,125,5,42,110,2471826996
23,14,Improv_Melody,126,1,48,88,2472082284
23,14,Improv_Melody,127,1,48,86,2472324352
23,14,Improv_Melody,128,5,42,110,2472326616
23,14,Improv_Melody,129,1,38,66,2472336316
23,14,Improv_Melody,130,1,48,73,2472557392
23,14,Improv_Melody,131,1,48,83,2472794880
23,14,Improv_Melody,132,5,42,127,2472827232
23,14,Improv_Melody,133,1,38,68,2473255388
23,14,Improv_Melody,134,1,38,69,2473282068
23,14,Improv_Melody,135,5,42,110,2473326908
23,14,Improv_Melody,136,1,38,63,2473602156
23,14,Improv_Melody,137,1,38,67,2473707320
23,14,Improv_Melody,138,5,42,110,2473826648
23,14,Improv_Melody,139,1,38,52,2473957992
23,14,Improv_Melody,140,1,38,79,2474250156
23,14,Improv_Melody,141,5,42,110,2474327388
23,14,Improv_Melody,142,1,38,64,2474330364
23,14,Improv_Melody,143,1,38,67,2474460648
23,14,Improv_Melody,144,1,38,68,2474570352
23,14,Improv_Melody,145,1,48,78,2474828880
23,14,Improv_Melody,146,2,48,80,2474831416
23,14,Improv_Melody,147,2,72,80,2474833564
23,14,Improv_Melody,148,5,42,127,2474836104
23,14,Improv_Melody,149,5,42,110,2475327056
23,14,Improv_Melody,150,1,48,80,2475340352
23,14,Improv_Melody,151,1,38,74,2475352672
23,14,Improv_Melody,152,5,42,110,2475826708
23,14,Improv_Melody,153,1,48,79,2476074444
23,14,Improv_Melody,154,5,42,110,2476327232
23,14,Improv_Melody,155,1,48,79,2476331328
23,14,Improv_Melody,156,1,38,67,2476344096
23,14,Improv_Melody,157,1,48,74,2476582156
23,14,Improv_Melody,158,1,38,65,2476658644
23,14,Improv_Melody,159,1,48,70,2476824464
23,14,Improv_Melody,160,5,42,127,2476827044
23,14,Improv_Melody,161,1,48,68,2477312200
23,14,Improv_Melody,162,1,38,69,2477325528
23,14,Improv_Melody,163,5,42,110,2477328968
23,14,Improv_Melody,164,5,42,110,2477826480
23,14,Improv_Melody,165,1,48,75,2478051176
23,14,Improv_Melody,166,1,48,73,2478299956
23,14,Improv_Melody,167,1,38,64,2478303380
23,14,Improv_Melody,168,5,42,110,2478327128
23,14,Improv_Melody,169,1,48,76,2478547368
23,14,Improv_Melody,170,1,38,63,2478648620
23,14,Improv_Melody,171,1,48,81,2478793208
23,14,Improv_Melody,172,2,43,80,2478829180
23,14,Improv_Melody,173,2,67,80,2478831560
23,14,Improv_Melody,174,5,42,127,2478833952
23,14,Improv_Melody,175,1,48,89,2479311248
23,14,Improv_Melody,176,1,38,83,2479317212
23,14,Improv_Melody,177,5,42,110,2479326672
23,14,Improv_Melody,178,5,42,110,2479827324
23,14,Improv_Melody,179,1,48,89,2480061144
23,14,Improv_Melody,180,1,48,91,2480315232
23,14,Improv_Melody,181,5,42,110,2480327016
23,14,Improv_Melody,182,1,38,72,2480330812
23,14,Improv_Melody,183,1,48,80,2480567372
23,14,Improv_Melody,184,1,38,62,2480658300
23,14,Improv_Melody,185,1,48,80,2480802640
23,14,Improv_Melody,186,5,42,127,2480826836
23,14,Improv_Melody,187,1,48,89,2481289824
23,14,Improv_Melody,188,1,38,71,2481311608
23,14,Improv_Melody,189,5,42,110,2481326680
23,14,Improv_Melody,190,5,42,110,2481827256
23,14,Improv_Melody,191,1,48,88,2482042280
23,14,Improv_Melody,192,1,48,86,2482306688
23,14,Improv_Melody,193,1,38,58,2482323800
23,14,Improv_Melody,194,5,42,110,2482326980
23,14,Improv_Melody,195,1,48,83,2482552884
23,14,Improv_Melody,196,1,38,73,2482663660
23,14,Improv_Melody,197,1,48,87,2482786828
23,14,Improv_Melody,198,2,45,80,2482829084
23,14,Improv_Melody,199,2,69,80,2482831312
23,14,Improv_Melody,200,5,42,127,2482833928
23,14,Improv_Melody,201,1,48,92,2483317132
23,14,Improv_Melody,202,5,42,110,2483327640
23,14,Improv_Melody,203,1,38,70,2483338468
23,14,Improv_Melody,204,5,42,110,2483827092
23,14,Improv_Melody,205,1,48,93,2484071008
23,14,Improv_Melody,206,1,48,94,2484314332
23,14,Improv_Melody,207,1,38,72,2484318720
23,14,Improv_Melody,208,5,42,110,2484326688
23,14,Improv_Melody,209,1,48,80,2484558000
23,14,Improv_Melody,210,1,38,63,2484648520
23,14,Improv_Melody,211,1,48,72,2484795220
23,14,Improv_Melody,212,5,42,127,2484826600
23,14,Improv_Melody,213,1,48,81,2485289016
23,14,Improv_Melody,214,1,38,68,2485312560
23,14,Improv_Melody,215,5,42,110,2485327252
23,14,Improv_Melody,216,5,42,110,2485827020
23,14,Improv_Melody,217,1,48,81,2486023520
23,14,Improv_Melody,218,5,42,110,2486326496
23,14,Improv_Melody,219,1,48,93,2486327464
23,14,Improv_Melody,220,1,38,66,2486337616
23,14,Improv_Melody,221,1,48,71,2486564388
23,14,Improv_Melody,222,1,38,74,2486686608
23,14,Improv_Melody,223,1,48,71,2486803272
23,14,Improv_Melody,224,2,41,80,2486830356
23,14,Improv_Melody,225,2,65,80,2486832432
23,14,Improv_Melody,226,5,42,127,2486834812
23,14,Improv_Melody,227,1,48,98,2487320792
23,14,Improv_Melody,228,5,42,110,2487326960
23,14,Improv_Melody,229,1,38,83,2487331128
23,14,Improv_Melody,230,5,42,110,2487826708
23,14,Improv_Melody,231,1,48,104,2488073544
23,14,Improv_Melody,232,1,48,92,2488310504
23,14,Improv_Melody,233,1,38,65,2488313848
23,14,Improv_Melody,234,5,42,110,2488326528
23,14,Improv_Melody,235,1,48,88,2488565020
23,14,Improv_Melody,236,1,38,79,2488664552
23,14,Improv_Melody,237,1,48,95,2488806072
23,14,Improv_Melody,238,5,42,127,2488827204
23,14,Improv_Melody,239,1,48,94,2489290512
23,14,Improv_Melody,240,1,38,80,2489291096
23,14,Improv_Melody,241,5,42,110,2489326960
23,14,Improv_Melody,242,1,48,98,2489804980
23,14,Improv_Melody,243,5,42,110,2489826708
23,14,Improv_Melody,244,1,48,89,2490044584
23,14,Improv_Melody,245,1,38,77,2490291864
23,14,Improv_Melody,246,5,42,110,2490327356
23,14,Improv_Melody,247,1,38,72,2490410272
23,14,Improv_Melody,248,1,38,89,2490530928
23,14,Improv_Melody,249,1,38,88,2490650804
23,14,Improv_Melody,250,1,38,78,2490790528
23,14,Improv_Melody,251,2,48,80,2490829568
23,14,Improv_Melody,252,2,72,80,2490831796
23,14,Improv_Melody,253,5,42,127,2490834336
23,14,Improv_Melody,254,1,38,68,2491039268
23,14,Improv_Melody,255,1,38,98,2491298740
23,14,Improv_Melody,256,5,42,110,2491326684
23,14,Improv_Melody,257,1,38,67,2491555176
23,14,Improv_Melody,258,1,38,79,2491655236
23,14,Improv_Melody,259,1,38,67,2491796128
23,14,Improv_Melody,260,5,42,110,2491826488
23,14,Improv_Melody,261,1,38,89,2491916804
23,14,Improv_Melody,262,1,38,78,2492033172
23,14,Improv_Melody,263,1,38,78,2492290024
23,14,Improv_Melody,264,5,42,110,2492327192
23,14,Improv_Melody,265,1,38,66,2492544216
23,14,Improv_Melody,266,1,38,65,2492623056
23,14,Improv_Melody,267,1,38,75,2492773600
23,14,Improv_Melody,268,5,42,127,2492827140
23,14,Improv_Melody,269,1,38,76,2493016940
23,14,Improv_Melody,270,1,38,100,2493297212
23,14,Improv_Melody,271,5,42,110,2493326572
23,14,Improv_Melody,272,1,38,86,2493552228
23,14,Improv_Melody,273,1,38,81,2493669960
23,14,Improv_Melody,274,1,38,86,2493803228
23,14,Improv_Melody,275,5,42,110,2493826380
23,14,Improv_Melody,276,1,38,73,2493940732
23,14,Improv_Melody,277,1,38,77,2494042060
23,14,Improv_Melody,278,1,38,50,2494321884
23,14,Improv_Melody,279,5,42,110,2494327232
23,14,Improv_Melody,280,1,38,67,2494574128
23,14,Improv_Melody,281,1,38,59,2494667476
23,14,Improv_Melody,282,1,38,81,2494814288
23,14,Improv_Melody,283,2,43,80,2494829396
23,14,Improv_Melody,284,2,67,80,2494831548
23,14,Improv_Melody,285,5,42,127,2494834084
23,14,Improv_Melody,286,1,38,75,2495073196
23,14,Improv_Melody,287,1,38,79,2495316072
23,14,Improv_Melody,288,5,42,110,2495326508
23,14,Improv_Melody,289,1,38,85,2495339860
23,14,Improv_Melody,290,1,38,65,2495584676
23,14,Improv_Melody,291,1,38,65,2495691264
23,14,Improv_Melody,292,1,38,67,2495820492
23,14,Improv_Melody,293,5,42,110,2495827412
23,14,Improv_Melody,294,1,38,68,2495948644
23,14,Improv_Melody,295,1,38,71,2496064408
23,14,Improv_Melody,296,1,38,83,2496325796
23,14,Improv_Melody,297,5,42,110,2496328264
23,14,Improv_Melody,298,1,38,67,2496598868
23,14,Improv_Melody,299,1,38,50,2496695516
23,14,Improv_Melody,300,5,42,127,2496826956
23,14,Improv_Melody,301,1,38,73,2496839952
23,14,Improv_Melody,302,1,38,73,2497081100
23,14,Improv_Melody,303,5,42,110,2497326336
23,14,Improv_Melody,304,1,38,74,2497327748
23,14,Improv_Melody,305,1,38,61,2497580408
23,14,Improv_Melody,306,1,38,74,2497698288
23,14,Improv_Melody,307,1,38,65,2497825908
23,14,Improv_Melody,308,5,42,110,2497828904
23,14,Improv_Melody,309,1,38,78,2497953056
23,14,Improv_Melody,310,1,38,67,2498069488
23,14,Improv_Melody,311,1,38,47,2498319920
23,14,Improv_Melody,312,1,38,71,2498324456
23,14,Improv_Melody,313,5,42,110,2498327188
23,14,Improv_Melody,314,1,48,22,2498333004
23,14,Improv_Melody,315,1,38,53,2498585868
23,14,Improv_Melody,316,1,38,58,2498678740
23,14,Improv_Melody,317,1,38,66,2498820416
23,14,Improv_Melody,318,2,45,80,2498829084
23,14,Improv_Melody,319,2,69,80,2498831548
23,14,Improv_Melody,320,5,42,127,2498833928
23,14,Improv_Melody,321,1,38,71,2499081648
23,14,Improv_Melody,322,1,38,88,2499325136
23,14,Improv_Melody,323,5,42,110,2499328224
23,14,Improv_Melody,324,1,38,87,2499349128
23,14,Improv_Melody,325,1,38,73,2499610028
23,14,Improv_Melody,326,1,38,57,2499720632
23,14,Improv_Melody,327,5,42,110,2499827040
23,14,Improv_Melody,328,1,38,69,2499843252
23,14,Improv_Melody,329,1,38,70,2499970908
23,14,Improv_Melody,330,1,38,67,2500077572
23,14,Improv_Melody,331,5,42,110,2500326848
23,14,Improv_Melody,332,1,38,71,2500343880
23,14,Improv_Melody,333,1,38,72,2500588992
23,14,Improv_Melody,334,1,38,67,2500716052
23,14,Improv_Melody,335,1,38,69,2500815536
23,14,Improv_Melody,336,5,42,127,2500826568
23,14,Improv_Melody,337,1,38,72,2501072120
23,14,Improv_Melody,338,5,42,110,2501327152
23,14,Improv_Melody,339,1,38,68,2501351216
23,14,Improv_Melody,340,1,38,66,2501570604
23,14,Improv_Melody,341,1,38,70,2501678140
23,14,Improv_Melody,342,1,38,63,2501801560
23,14,Improv_Melody,343,5,42,110,2501826952
23,14,Improv_Melody,344,1,38,71,2501939264
23,14,Improv_Melody,345,1,38,67,2502044356
23,14,Improv_Melody,346,1,38,74,2502303084
23,14,Improv_Melody,347,5,42,110,2502326760
23,14,Improv_Melody,348,1,38,63,2502563628
23,14,Improv_Melody,349,1,38,63,2502683736
23,14,Improv_Melody,350,1,38,70,2502804136
23,14,Improv_Melody,351,2,41,80,2502830044
23,14,Improv_Melody,352,2,65,80,2502832272
23,14,Improv_Melody,353,5,42,127,2502834952
23,14,Improv_Melody,354,1,38,74,2503062080
23,14,Improv_Melody,355,5,42,110,2503327232
23,14,Improv_Melody,356,1,38,79,2503332004
23,14,Improv_Melody,357,1,38,84,2503347760
23,14,Improv_Melody,358,1,38,74,2503596912
23,14,Improv_Melody,359,1,38,67,2503726440
23,14,Improv_Melody,360,5,42,110,2503827592
23,14,Improv_Melody,361,1,38,69,2503828556
23,14,Improv_Melody,362,1,38,72,2503949792
23,14,Improv_Melody,363,1,38,65,2504063536
23,14,Improv_Melody,364,5,42,110,2504326648
23,14,Improv_Melody,365,1,38,93,2504327612
23,14,Improv_Melody,366,1,48,21,2504336864
23,14,Improv_Melody,367,1,38,73,2504588084
23,14,Improv_Melody,368,1,38,48,2504708584
23,14,Improv_Melody,369,5,42,127,2504827388
23,14,Improv_Melody,370,1,38,76,2504834104
23,14,Improv_Melody,371,1,38,75,2505079140
23,14,Improv_Melody,372,5,42,110,2505326916
23,14,Improv_Melody,373,1,38,97,2505334900
23,14,Improv_Melody,374,1,38,68,2505580384
23,14,Improv_Melody,375,1,38,84,2505674112
23,14,Improv_Melody,376,1,38,70,2505804536
23,14,Improv_Melody,377,5,42,110,2505826564
23,14,Improv_Melody,378,1,38,70,2505929472
23,14,Improv_Melody,379,1,38,71,2506040604
23,14,Improv_Melody,380,1,38,81,2506275996
23,14,Improv_Melody,381,1,38,84,2506298636
23,14,Improv_Melody,382,5,42,110,2506327544
23,14,Improv_Melody,383,1,38,91,2506536740
23,14,Improv_Melody,384,1,38,66,2506670188
23,14,Improv_Melody,385,2,48,80,2506829560
23,14,Improv_Melody,386,2,72,80,2506831492
23,14,Improv_Melody,387,5,42,127,2506834328
23,14,Improv_Melody,388,1,48,91,2507314560
23,14,Improv_Melody,389,5,42,110,2507326788
23,14,Improv_Melody,390,1,48,69,2507574508
23,14,Improv_Melody,391,1,48,56,2507703084
23,14,Improv_Melody,392,5,42,110,2507826524
23,14,Improv_Melody,393,1,48,100,2507964456
23,14,Improv_Melody,394,1,48,97,2508201568
23,14,Improv_Melody,395,1,38,74,2508323316
23,14,Improv_Melody,396,5,42,110,2508327468
23,14,Improv_Melody,397,1,48,89,2508564940
23,14,Improv_Melody,398,5,42,127,2508827076
23,14,Improv_Melody,399,5,42,110,2509326576
23,14,Improv_Melody,400,1,48,95,2509355276
23,14,Improv_Melody,401,1,48,90,2509594932
23,14,Improv_Melody,402,1,48,73,2509719320
23,14,Improv_Melody,403,5,42,110,2509826456
23,14,Improv_Melody,404,1,48,70,2509957780
23,14,Improv_Melody,405,1,48,85,2510198108
23,14,Improv_Melody,406,1,38,69,2510297368
23,14,Improv_Melody,407,5,42,110,2510327248
23,14,Improv_Melody,408,1,48,97,2510559264
23,14,Improv_Melody,409,2,43,80,2510829440
23,14,Improv_Melody,410,2,67,80,2510831516
23,14,Improv_Melody,411,5,42,127,2510834352
23,14,Improv_Melody,412,5,42,110,2511326596
23,14,Improv_Melody,413,1,48,98,2511359188
23,14,Improv_Melody,414,1,48,85,2511587168
23,14,Improv_Melody,415,1,48,60,2511739884
23,14,Improv_Melody,416,5,42,110,2511827388
23,14,Improv_Melody,417,1,48,87,2511979488
23,14,Improv_Melody,418,1,48,86,2512188628
23,14,Improv_Melody,419,1,38,57,2512289456
23,14,Improv_Melody,420,5,42,110,2512326972
23,14,Improv_Melody,421,1,48,65,2512548656
23,14,Improv_Melody,422,5,42,127,2512826728
23,14,Improv_Melody,423,1,48,79,2513301776
23,14,Improv_Melody,424,5,42,110,2513326344
23,14,Improv_Melody,425,1,48,82,2513557280
23,14,Improv_Melody,426,1,48,48,2513685112
23,14,Improv_Melody,427,5,42,110,2513827128
23,14,Improv_Melody,428,1,48,82,2513951568
23,14,Improv_Melody,429,1,48,96,2514208572
23,14,Improv_Melody,430,1,38,65,2514301528
23,14,Improv_Melody,431,5,42,110,2514327172
23,14,Improv_Melody,432,1,48,77,2514550860
23,14,Improv_Melody,433,2,45,80,2514829112
23,14,Improv_Melody,434,2,69,80,2514831188
23,14,Improv_Melody,435,5,42,127,2514833876
23,14,Improv_Melody,436,5,42,110,2515327240
23,14,Improv_Melody,437,1,48,95,2515355440
23,14,Improv_Melody,438,1,48,89,2515581460
23,14,Improv_Melody,439,1,48,73,2515697544
23,14,Improv_Melody,440,5,42,110,2515826972
23,14,Improv_Melody,441,1,48,74,2515935128
23,14,Improv_Melody,442,1,48,91,2516174188
23,14,Improv_Melody,443,1,38,57,2516298476
23,14,Improv_Melody,444,5,42,110,2516326864
23,14,Improv_Melody,445,1,48,79,2516537184
23,14,Improv_Melody,446,5,42,127,2516826404
23,14,Improv_Melody,447,1,48,88,2517318972
23,14,Improv_Melody,448,5,42,110,2517327240
23,14,Improv_Melody,449,1,48,75,2517564184
23,14,Improv_Melody,450,1,48,70,2517687228
23,14,Improv_Melody,451,5,42,110,2517827128
23,14,Improv_Melody,452,1,48,75,2517958848
23,14,Improv_Melody,453,1,48,100,2518188628
23,14,Improv_Melody,454,1,38,76,2518306784
23,14,Improv_Melody,455,5,42,110,2518326796
23,14,Improv_Melody,456,1,48,94,2518552752
23,14,Improv_Melody,457,2,41,80,2518830036
23,14,Improv_Melody,458,2,65,80,2518831812
23,14,Improv_Melody,459,5,42,127,2518834424
23,14,Improv_Melody,460,1,48,92,2519326664
23,14,Improv_Melody,461,5,42,110,2519328380
23,14,Improv_Melody,462,1,48,91,2519562488
23,14,Improv_Melody,463,1,48,57,2519684008
23,14,Improv_Melody,464,5,42,110,2519826772
23,14,Improv_Melody,465,1,48,73,2519929296
23,14,Improv_Melody,466,1,48,95,2520170372
23,14,Improv_Melody,467,1,38,68,2520283844
23,14,Improv_Melody,468,5,42,110,2520326368
23,14,Improv_Melody,469,1,48,85,2520538852
23,14,Improv_Melody,470,5,42,127,2520827172
23,14,Improv_Melody,471,1,48,92,2521288628
23,14,Improv_Melody,472,5,42,110,2521326892
23,14,Improv_Melody,473,1,48,89,2521543944
23,14,Improv_Melody,474,1,48,72,2521668008
23,14,Improv_Melody,475,5,42,110,2521826704
23,14,Improv_Melody,476,1,48,76,2521940300
23,14,Improv_Melody,477,1,48,104,2522185484
23,14,Improv_Melody,478,1,38,81,2522323416
23,14,Improv_Melody,479,5,42,110,2522327272
23,14,Improv_Melody,480,1,48,83,2522553824
23,14,Improv_Melody,481,1,48,94,2522818308
23,14,Improv_Melody,482,2,48,80,2522829676
23,14,Improv_Melody,483,2,72,80,2522831680
23,14,Improv_Melody,484,5,42,127,2522834292
23,14,Improv_Melody,485,1,48,69,2523068992
23,14,Improv_Melody,486,5,42,110,2523326724
23,14,Improv_Melody,487,1,48,79,2523338516
23,14,Improv_Melody,488,1,38,58,2523345828
23,14,Improv_Melody,489,1,48,83,2523588072
23,14,Improv_Melody,0,9999,9999,9999,9999,2442824788
23,14,Improv_Melody,1,9999,9999,9999,9999,2443324476
23,14,Improv_Melody,2,9999,9999,9999,9999,2443824196
23,14,Improv_Melody,3,9999,9999,9999,9999,2444324964
23,14,Improv_Melody,4,9999,9999,9999,9999,2444824684
23,14,Improv_Melody,5,9999,9999,9999,9999,2445324408
23,14,Improv_Melody,6,9999,9999,9999,9999,2445824056
23,14,Improv_Melody,7,9999,9999,9999,9999,2446324824
23,14,Improv_Melody,8,9999,9999,9999,9999,2446824544
23,14,Improv_Melody,9,9999,9999,9999,9999,2447324280
23,14,Improv_Melody,10,9999,9999,9999,9999,2447824972
23,14,Improv_Melody,11,9999,9999,9999,9999,2448324696
23,14,Improv_Melody,12,9999,9999,9999,9999,2448824416
23,14,Improv_Melody,13,9999,9999,9999,9999,2449324136
23,14,Improv_Melody,14,9999,9999,9999,9999,2449824832
23,14,Improv_Melody,15,9999,9999,9999,9999,2450324528
23,14,Improv_Melody,16,9999,9999,9999,9999,2450824252
23,14,Improv_Melody,17,9999,9999,9999,9999,2451325032
23,14,Improv_Melody,18,9999,9999,9999,9999,2451824756
23,14,Improv_Melody,19,9999,9999,9999,9999,2452324404
23,14,Improv_Melody,20,9999,9999,9999,9999,2452824124
23,14,Improv_Melody,21,9999,9999,9999,9999,2453324892
23,14,Improv_Melody,22,9999,9999,9999,9999,2453824616
23,14,Improv_Melody,23,9999,9999,9999,9999,2454324336
23,14,Improv_Melody,24,9999,9999,9999,9999,2454825032
23,14,Improv_Melody,25,9999,9999,9999,9999,2455324768
23,14,Improv_Melody,26,9999,9999,9999,9999,2455824488
23,14,Improv_Melody,27,9999,9999,9999,9999,2456324208
23,14,Improv_Melody,28,9999,9999,9999,9999,2456824904
23,14,Improv_Melody,29,9999,9999,9999,9999,2457324624
23,14,Improv_Melody,30,9999,9999,9999,9999,2457824348
23,14,Improv_Melody,31,9999,9999,9999,9999,2458325064
23,14,Improv_Melody,32,9999,9999,9999,9999,2458824824
23,14,Improv_Melody,33,9999,9999,9999,9999,2459324484
23,14,Improv_Melody,34,9999,9999,9999,9999,2459824236
23,14,Improv_Melody,35,9999,9999,9999,9999,2460324932
23,14,Improv_Melody,36,9999,9999,9999,9999,2460824664
23,14,Improv_Melody,37,9999,9999,9999,9999,2461324364
23,14,Improv_Melody,38,9999,9999,9999,9999,2461824072
23,14,Improv_Melody,39,9999,9999,9999,9999,2462324816
23,14,Improv_Melody,40,9999,9999,9999,9999,2462824544
23,14,Improv_Melody,41,9999,9999,9999,9999,2463324260
23,14,Improv_Melody,42,9999,9999,9999,9999,2463824956
23,14,Improv_Melody,43,9999,9999,9999,9999,2464324656
23,14,Improv_Melody,44,9999,9999,9999,9999,2464824372
23,14,Improv_Melody,45,9999,9999,9999,9999,2465324140
23,14,Improv_Melody,46,9999,9999,9999,9999,2465824860
23,14,Improv_Melody,47,9999,9999,9999,9999,2466324552
23,14,Improv_Melody,48,9999,9999,9999,9999,2466824260
23,14,Improv_Melody,49,9999,9999,9999,9999,2467325020
23,14,Improv_Melody,50,9999,9999,9999,9999,2467824692
23,14,Improv_Melody,51,9999,9999,9999,9999,2468324468
23,14,Improv_Melody,52,9999,9999,9999,9999,2468824180
23,14,Improv_Melody,53,9999,9999,9999,9999,2469324908
23,14,Improv_Melody,54,9999,9999,9999,9999,2469824588
23,14,Improv_Melody,55,9999,9999,9999,9999,2470324284
23,14,Improv_Melody,56,9999,9999,9999,9999,2470825048
23,14,Improv_Melody,57,9999,9999,9999,9999,2471324760
23,14,Improv_Melody,58,9999,9999,9999,9999,2471824480
23,14,Improv_Melody,59,9999,9999,9999,9999,2472324212
23,14,Improv_Melody,60,9999,9999,9999,9999,2472824940
23,14,Improv_Melody,61,9999,9999,9999,9999,2473324620
23,14,Improv_Melody,62,9999,9999,9999,9999,2473824356
23,14,Improv_Melody,63,9999,9999,9999,9999,2474325096
23,14,Improv_Melody,64,9999,9999,9999,9999,2474824812
23,14,Improv_Melody,65,9999,9999,9999,9999,2475324468
23,14,Improv_Melody,66,9999,9999,9999,9999,2475824196
23,14,Improv_Melody,67,9999,9999,9999,9999,2476324940
23,14,Improv_Melody,68,9999,9999,9999,9999,2476824680
23,14,Improv_Melody,69,9999,9999,9999,9999,2477324380
23,14,Improv_Melody,70,9999,9999,9999,9999,2477824112
23,14,Improv_Melody,71,9999,9999,9999,9999,2478324836
23,14,Improv_Melody,72,9999,9999,9999,9999,2478824540
23,14,Improv_Melody,73,9999,9999,9999,9999,2479324232
23,14,Improv_Melody,74,9999,9999,9999,9999,2479824956
23,14,Improv_Melody,75,9999,9999,9999,9999,2480324724
23,14,Improv_Melody,76,9999,9999,9999,9999,2480824396
23,14,Improv_Melody,77,9999,9999,9999,9999,2481324092
23,14,Improv_Melody,78,9999,9999,9999,9999,2481824816
23,14,Improv_Melody,79,9999,9999,9999,9999,2482324540
23,14,Improv_Melody,80,9999,9999,9999,9999,2482824292
23,14,Improv_Melody,81,9999,9999,9999,9999,2483324980
23,14,Improv_Melody,82,9999,9999,9999,9999,2483824724
23,14,Improv_Melody,83,9999,9999,9999,9999,2484324472
23,14,Improv_Melody,84,9999,9999,9999,9999,2484824160
23,14,Improv_Melody,85,9999,9999,9999,9999,2485324888
23,14,Improv_Melody,86,9999,9999,9999,9999,2485824580
23,14,Improv_Melody,87,9999,9999,9999,9999,2486324280
23,14,Improv_Melody,88,9999,9999,9999,9999,2486825028
23,14,Improv_Melody,89,9999,9999,9999,9999,2487324744
23,14,Improv_Melody,90,9999,9999,9999,9999,2487824488
23,14,Improv_Melody,91,9999,9999,9999,9999,2488324164
23,14,Improv_Melody,92,9999,9999,9999,9999,2488824912
23,14,Improv_Melody,93,9999,9999,9999,9999,2489324592
23,14,Improv_Melody,94,9999,9999,9999,9999,2489824340
23,14,Improv_Melody,95,9999,9999,9999,9999,2490325064
23,14,Improv_Melody,96,9999,9999,9999,9999,2490824776
23,14,Improv_Melody,97,9999,9999,9999,9999,2491324468
23,14,Improv_Melody,98,9999,9999,9999,9999,2491824196
23,14,Improv_Melody,99,9999,9999,9999,9999,2492324972
23,14,Improv_Melody,100,9999,9999,9999,9999,2492824628
23,14,Improv_Melody,101,9999,9999,9999,9999,2493324356
23,14,Improv_Melody,102,9999,9999,9999,9999,2493824088
23,14,Improv_Melody,103,9999,9999,9999,9999,2494324792
23,14,Improv_Melody,104,9999,9999,9999,9999,2494824524
23,14,Improv_Melody,105,9999,9999,9999,9999,2495324216
23,14,Improv_Melody,106,9999,9999,9999,9999,2495824972
23,14,Improv_Melody,107,9999,9999,9999,9999,2496324708
23,14,Improv_Melody,108,9999,9999,9999,9999,2496824440
23,14,Improv_Melody,109,9999,9999,9999,9999,2497324120
23,14,Improv_Melody,110,9999,9999,9999,9999,2497824824
23,14,Improv_Melody,111,9999,9999,9999,9999,2498324600
23,14,Improv_Melody,112,9999,9999,9999,9999,2498824296
23,14,Improv_Melody,113,9999,9999,9999,9999,2499325000
23,14,Improv_Melody,114,9999,9999,9999,9999,2499824748
23,14,Improv_Melody,115,9999,9999,9999,9999,2500324404
23,14,Improv_Melody,116,9999,9999,9999,9999,2500824128
23,14,Improv_Melody,117,9999,9999,9999,9999,2501324860
23,14,Improv_Melody,118,9999,9999,9999,9999,2501824588
23,14,Improv_Melody,119,9999,9999,9999,9999,2502324316
23,14,Improv_Melody,120,9999,9999,9999,9999,2502825020
23,14,Improv_Melody,121,9999,9999,9999,9999,2503324792
23,14,Improv_Melody,122,9999,9999,9999,9999,2503824492
23,14,Improv_Melody,123,9999,9999,9999,9999,2504324204
23,14,Improv_Melody,124,9999,9999,9999,9999,2504824948
23,14,Improv_Melody,125,9999,9999,9999,9999,2505324624
23,14,Improv_Melody,126,9999,9999,9999,9999,2505824348
23,14,Improv_Melody,127,9999,9999,9999,9999,2506325104
23,14,Improv_Melody,128,9999,9999,9999,9999,2506824768
23,14,Improv_Melody,129,9999,9999,9999,9999,2507324496
23,14,Improv_Melody,130,9999,9999,9999,9999,2507824232
23,14,Improv_Melody,131,9999,9999,9999,9999,2508324952
23,14,Improv_Melody,132,9999,9999,9999,9999,2508824636
23,14,Improv_Melody,133,9999,9999,9999,9999,2509324360
23,14,Improv_Melody,134,9999,9999,9999,9999,2509824092
23,14,Improv_Melody,135,9999,9999,9999,9999,2510324808
23,14,Improv_Melody,136,9999,9999,9999,9999,2510824568
23,14,Improv_Melody,137,9999,9999,9999,9999,2511324228
23,14,Improv_Melody,138,9999,9999,9999,9999,2511824948
23,14,Improv_Melody,139,9999,9999,9999,9999,2512324680
23,14,Improv_Melody,140,9999,9999,9999,9999,2512824436
23,14,Improv_Melody,141,9999,9999,9999,9999,2513324128
23,14,Improv_Melody,142,9999,9999,9999,9999,2513824836
23,14,Improv_Melody,143,9999,9999,9999,9999,2514324556
23,14,Improv_Melody,144,9999,9999,9999,9999,2514824240
23,14,Improv_Melody,145,9999,9999,9999,9999,2515325024
23,14,Improv_Melody,146,9999,9999,9999,9999,2515824752
23,14,Improv_Melody,147,9999,9999,9999,9999,2516324428
23,14,Improv_Melody,148,9999,9999,9999,9999,2516824112
23,14,Improv_Melody,149,9999,9999,9999,9999,2517324872
23,14,Improv_Melody,150,9999,9999,9999,9999,2517824612
23,14,Improv_Melody,151,9999,9999,9999,9999,2518324284
23,14,Improv_Melody,152,9999,9999,9999,9999,2518825012
23,14,Improv_Melody,153,9999,9999,9999,9999,2519324748
23,14,Improv_Melody,154,9999,9999,9999,9999,2519824480
23,14,Improv_Melody,155,9999,9999,9999,9999,2520324152
23,14,Improv_Melody,156,9999,9999,9999,9999,2520824884
23,14,Improv_Melody,157,9999,9999,9999,9999,2521324600
23,14,Improv_Melody,158,9999,9999,9999,9999,2521824336
23,14,Improv_Melody,159,9999,9999,9999,9999,2522325052
23,14,Improv_Melody,160,9999,9999,9999,9999,2522824808
23,14,Improv_Melody,161,9999,9999,9999,9999,2523324508
