pid,taskRunCount,taskID,taskName,i,channel,pitch,velocity,microseconds
1,1,Ticks_Pract_5,0,1,48,25,558903120
231,1,Ticks_Pract_5,1,1,38,24,558903980
231,1,Ticks_Pract_5,2,1,38,13,558904548
231,1,Ticks_Pract_5,3,5,42,127,559404456
231,1,Ticks_Pract_5,4,5,42,127,559904096
231,1,Ticks_Pract_5,5,5,42,127,560403740
231,1,Ticks_Pract_5,6,1,38,34,560532544
231,1,Ticks_Pract_5,7,5,42,127,560903584
231,1,Ticks_Pract_5,8,1,38,19,560987512
231,1,Ticks_Pract_5,9,1,38,32,561392464
231,1,Ticks_Pract_5,10,5,42,127,561404464
231,1,Ticks_Pract_5,11,1,38,36,561843468
231,1,Ticks_Pract_5,12,5,42,127,561903936
231,1,Ticks_Pract_5,13,1,38,33,562365076
231,1,Ticks_Pract_5,14,5,42,127,562403780
231,1,Ticks_Pract_5,15,1,38,38,562883772
231,1,Ticks_Pract_5,16,5,42,127,562904372
231,1,Ticks_Pract_5,17,1,38,34,563379432
231,1,Ticks_Pract_5,18,5,42,127,563404216
231,1,Ticks_Pract_5,19,5,42,127,563903992
231,1,Ticks_Pract_5,20,5,42,127,564403636
231,1,Ticks_Pract_5,21,5,42,127,564904324
231,1,Ticks_Pract_5,22,5,42,127,565403968
231,1,Ticks_Pract_5,23,1,48,38,565819624
231,1,Ticks_Pract_5,24,5,42,127,565903752
231,1,Ticks_Pract_5,25,1,48,26,566341600
231,1,Ticks_Pract_5,26,5,42,127,566403420
231,1,Ticks_Pract_5,27,1,48,25,566836860
231,1,Ticks_Pract_5,28,5,42,127,566904160
231,1,Ticks_Pract_5,29,1,48,32,567348072
231,1,Ticks_Pract_5,30,5,42,127,567404076
231,1,Ticks_Pract_5,31,5,42,127,567903556
231,1,Ticks_Pract_5,32,1,48,37,567915724
231,1,Ticks_Pract_5,33,5,42,127,568404372
231,1,Ticks_Pract_5,34,1,48,33,568439208
231,1,Ticks_Pract_5,35,1,48,38,568900788
231,1,Ticks_Pract_5,36,5,42,127,568903984
231,1,Ticks_Pract_5,37,1,48,39,569395320
231,1,Ticks_Pract_5,38,5,42,127,569403880
231,1,Ticks_Pract_5,39,5,42,127,569903356
231,1,Ticks_Pract_5,40,1,48,38,569906404
231,1,Ticks_Pract_5,41,5,42,127,570404172
231,1,Ticks_Pract_5,42,1,48,38,570434596
231,1,Ticks_Pract_5,43,1,48,37,570892460
231,1,Ticks_Pract_5,44,5,42,127,570904084
231,1,Ticks_Pract_5,45,1,48,33,571397840
231,1,Ticks_Pract_5,46,5,42,127,571403780
231,1,Ticks_Pract_5,47,1,48,26,571881076
231,1,Ticks_Pract_5,48,5,42,127,571904296
231,1,Ticks_Pract_5,49,1,48,31,572380100
231,1,Ticks_Pract_5,50,5,42,127,572404068
231,1,Ticks_Pract_5,51,1,48,35,572884952
231,1,Ticks_Pract_5,52,5,42,127,572903840
231,1,Ticks_Pract_5,53,1,48,31,573361540
231,1,Ticks_Pract_5,54,5,42,127,573403608
231,1,Ticks_Pract_5,55,1,48,34,573886216
231,1,Ticks_Pract_5,56,5,42,127,573904204
231,1,Ticks_Pract_5,57,1,48,38,574385836
231,1,Ticks_Pract_5,58,5,42,127,574404044
231,1,Ticks_Pract_5,59,1,48,29,574898476
231,1,Ticks_Pract_5,60,5,42,127,574903740
231,1,Ticks_Pract_5,61,1,48,30,575349100
231,1,Ticks_Pract_5,62,5,42,127,575404332
231,1,Ticks_Pract_5,63,1,48,33,575877668
231,1,Ticks_Pract_5,64,5,42,127,575904176
231,1,Ticks_Pract_5,65,1,48,15,575976996
231,1,Ticks_Pract_5,66,5,42,127,576403784
231,1,Ticks_Pract_5,67,1,48,20,576405720
231,1,Ticks_Pract_5,68,5,42,127,576903700
231,1,Ticks_Pract_5,69,1,48,40,576922080
231,1,Ticks_Pract_5,70,1,48,15,577036724
231,1,Ticks_Pract_5,71,5,42,127,577404196
231,1,Ticks_Pract_5,72,1,48,20,577427588
231,1,Ticks_Pract_5,73,5,42,127,577903964
231,1,Ticks_Pract_5,74,1,48,35,577905376
231,1,Ticks_Pract_5,75,1,48,34,578394940
231,1,Ticks_Pract_5,76,5,42,127,578403800
231,1,Ticks_Pract_5,77,5,42,127,578904624
231,1,Ticks_Pract_5,78,1,48,26,578924496
231,1,Ticks_Pract_5,0,9999,9999,9999,559402096
231,1,Ticks_Pract_5,1,9999,9999,9999,559901812
231,1,Ticks_Pract_5,2,9999,9999,9999,560401528
231,1,Ticks_Pract_5,3,9999,9999,9999,560901224
231,1,Ticks_Pract_5,4,9999,9999,9999,561401956
231,1,Ticks_Pract_5,5,9999,9999,9999,561901652
231,1,Ticks_Pract_5,6,9999,9999,9999,562401344
231,1,Ticks_Pract_5,7,9999,9999,9999,562902088
231,1,Ticks_Pract_5,8,9999,9999,9999,563401784
231,1,Ticks_Pract_5,9,9999,9999,9999,563901556
231,1,Ticks_Pract_5,10,9999,9999,9999,564401200
231,1,Ticks_Pract_5,11,9999,9999,9999,564901964
231,1,Ticks_Pract_5,12,9999,9999,9999,565401680
231,1,Ticks_Pract_5,13,9999,9999,9999,565901392
231,1,Ticks_Pract_5,14,9999,9999,9999,566401132
231,1,Ticks_Pract_5,15,9999,9999,9999,566901872
231,1,Ticks_Pract_5,16,9999,9999,9999,567401568
231,1,Ticks_Pract_5,17,9999,9999,9999,567901268
231,1,Ticks_Pract_5,18,9999,9999,9999,568402012
231,1,Ticks_Pract_5,19,9999,9999,9999,568901700
231,1,Ticks_Pract_5,20,9999,9999,9999,569401444
231,1,Ticks_Pract_5,21,9999,9999,9999,569901144
231,1,Ticks_Pract_5,22,9999,9999,9999,570401884
231,1,Ticks_Pract_5,23,9999,9999,9999,570901576
231,1,Ticks_Pract_5,24,9999,9999,9999,571401272
231,1,Ticks_Pract_5,25,9999,9999,9999,571902012
231,1,Ticks_Pract_5,26,9999,9999,9999,572401784
231,1,Ticks_Pract_5,27,9999,9999,9999,572901480
231,1,Ticks_Pract_5,28,9999,9999,9999,573401176
231,1,Ticks_Pract_5,29,9999,9999,9999,573901916
231,1,Ticks_Pract_5,30,9999,9999,9999,574401612
231,1,Ticks_Pract_5,31,9999,9999,9999,574901308
231,1,Ticks_Pract_5,32,9999,9999,9999,575402048
231,1,Ticks_Pract_5,33,9999,9999,9999,575901816
231,1,Ticks_Pract_5,34,9999,9999,9999,576401496
231,1,Ticks_Pract_5,35,9999,9999,9999,576901192
231,1,Ticks_Pract_5,36,9999,9999,9999,577401912
231,1,Ticks_Pract_5,37,9999,9999,9999,577901680
231,1,Ticks_Pract_5,38,9999,9999,9999,578401368
231,1,Ticks_Pract_5,39,9999,9999,9999,578902116
232,0,Ticks_Pract_8,0,5,42,127,603588848
232,0,Ticks_Pract_8,1,1,48,36,604138568
232,0,Ticks_Pract_8,2,5,42,127,604388656
232,0,Ticks_Pract_8,3,1,48,37,604629952
232,0,Ticks_Pract_8,4,5,42,127,605188536
232,0,Ticks_Pract_8,5,1,48,29,605352048
232,0,Ticks_Pract_8,6,5,42,127,605989244
232,0,Ticks_Pract_8,7,1,48,22,606023576
232,0,Ticks_Pract_8,8,1,48,26,606677488
232,0,Ticks_Pract_8,9,5,42,127,606788984
232,0,Ticks_Pract_8,10,1,48,29,607497276
232,0,Ticks_Pract_8,11,5,42,127,607588660
232,0,Ticks_Pract_8,12,1,48,34,608343852
232,0,Ticks_Pract_8,13,5,42,127,608388392
232,0,Ticks_Pract_8,14,5,42,127,609189480
232,0,Ticks_Pract_8,15,1,48,31,609228424
232,0,Ticks_Pract_8,16,5,42,127,609988916
232,0,Ticks_Pract_8,17,1,48,38,610065256
232,0,Ticks_Pract_8,18,1,48,42,610784420
232,0,Ticks_Pract_8,19,5,42,127,610788788
232,0,Ticks_Pract_8,20,5,42,127,611588432
232,0,Ticks_Pract_8,21,1,48,42,611591252
232,0,Ticks_Pract_8,22,5,42,127,612389284
232,0,Ticks_Pract_8,23,1,48,36,612437008
232,0,Ticks_Pract_8,24,5,42,127,613189116
232,0,Ticks_Pract_8,25,1,48,40,613231732
232,0,Ticks_Pract_8,26,5,42,127,613989076
232,0,Ticks_Pract_8,27,1,48,41,614053980
232,0,Ticks_Pract_8,28,1,48,37,614755708
232,0,Ticks_Pract_8,29,5,42,127,614788356
232,0,Ticks_Pract_8,30,1,48,36,615487276
232,0,Ticks_Pract_8,31,5,42,127,615589196
232,0,Ticks_Pract_8,32,1,48,38,616350536
232,0,Ticks_Pract_8,33,5,42,127,616389020
232,0,Ticks_Pract_8,34,1,48,35,617163732
232,0,Ticks_Pract_8,35,5,42,127,617188828
232,0,Ticks_Pract_8,36,5,42,127,617988420
232,0,Ticks_Pract_8,37,1,48,40,618074140
232,0,Ticks_Pract_8,38,5,42,127,618789200
232,0,Ticks_Pract_8,39,1,48,43,618852028
232,0,Ticks_Pract_8,40,5,42,127,619589108
232,0,Ticks_Pract_8,41,1,48,35,619590000
232,0,Ticks_Pract_8,42,1,48,33,620341052
232,0,Ticks_Pract_8,43,5,42,127,620388832
232,0,Ticks_Pract_8,44,1,48,25,621126372
232,0,Ticks_Pract_8,45,5,42,127,621188492
232,0,Ticks_Pract_8,46,1,48,26,621874096
232,0,Ticks_Pract_8,47,5,42,127,621989336
232,0,Ticks_Pract_8,48,1,48,40,622718216
232,0,Ticks_Pract_8,49,5,42,127,622788860
232,0,Ticks_Pract_8,50,1,48,38,623544356
232,0,Ticks_Pract_8,51,5,42,127,623588744
232,0,Ticks_Pract_8,52,1,48,36,624342592
232,0,Ticks_Pract_8,53,5,42,127,624388404
232,0,Ticks_Pract_8,54,5,42,127,625189192
232,0,Ticks_Pract_8,55,1,48,38,625217992
232,0,Ticks_Pract_8,56,5,42,127,625988948
232,0,Ticks_Pract_8,57,1,48,36,626034252
232,0,Ticks_Pract_8,58,5,42,127,626788904
232,0,Ticks_Pract_8,59,1,48,31,626811996
232,0,Ticks_Pract_8,0,9999,9999,9999,603586636
232,0,Ticks_Pract_8,1,9999,9999,9999,604386368
232,0,Ticks_Pract_8,2,9999,9999,9999,605186100
232,0,Ticks_Pract_8,3,9999,9999,9999,605986880
232,0,Ticks_Pract_8,4,9999,9999,9999,606786620
232,0,Ticks_Pract_8,5,9999,9999,9999,607586372
232,0,Ticks_Pract_8,6,9999,9999,9999,608386104
232,0,Ticks_Pract_8,7,9999,9999,9999,609186892
232,0,Ticks_Pract_8,8,9999,9999,9999,609986628
232,0,Ticks_Pract_8,9,9999,9999,9999,610786352
232,0,Ticks_Pract_8,10,9999,9999,9999,611586144
232,0,Ticks_Pract_8,11,9999,9999,9999,612386924
232,0,Ticks_Pract_8,12,9999,9999,9999,613186680
232,0,Ticks_Pract_8,13,9999,9999,9999,613986416
232,0,Ticks_Pract_8,14,9999,9999,9999,614786144
232,0,Ticks_Pract_8,15,9999,9999,9999,615586908
232,0,Ticks_Pract_8,16,9999,9999,9999,616386656
232,0,Ticks_Pract_8,17,9999,9999,9999,617186392
232,0,Ticks_Pract_8,18,9999,9999,9999,617986132
232,0,Ticks_Pract_8,19,9999,9999,9999,618786912
232,0,Ticks_Pract_8,20,9999,9999,9999,619586672
232,0,Ticks_Pract_8,21,9999,9999,9999,620386396
232,0,Ticks_Pract_8,22,9999,9999,9999,621186132
232,0,Ticks_Pract_8,23,9999,9999,9999,621986896
232,0,Ticks_Pract_8,24,9999,9999,9999,622786644
232,0,Ticks_Pract_8,25,9999,9999,9999,623586380
232,0,Ticks_Pract_8,26,9999,9999,9999,624386116
232,0,Ticks_Pract_8,27,9999,9999,9999,625186904
232,0,Ticks_Pract_8,28,9999,9999,9999,625986660
232,0,Ticks_Pract_8,29,9999,9999,9999,626786392
233,4,T1_SMS_5,0,5,42,127,706558328
233,4,T1_SMS_5,1,1,48,34,706917688
233,4,T1_SMS_5,2,5,42,127,707058176
233,4,T1_SMS_5,3,1,48,40,707393220
233,4,T1_SMS_5,4,5,42,127,707557644
233,4,T1_SMS_5,5,1,48,38,707971752
233,4,T1_SMS_5,6,5,42,127,708057580
233,4,T1_SMS_5,7,1,48,41,708498000
233,4,T1_SMS_5,8,5,42,127,708558320
233,4,T1_SMS_5,9,1,48,46,709011008
233,4,T1_SMS_5,10,5,42,127,709057944
233,4,T1_SMS_5,11,1,48,46,709506296
233,4,T1_SMS_5,12,1,48,30,709552348
233,4,T1_SMS_5,13,5,42,127,709557692
233,4,T1_SMS_5,14,1,48,46,710016064
233,4,T1_SMS_5,15,5,42,127,710058432
233,4,T1_SMS_5,16,1,48,28,710069540
233,4,T1_SMS_5,17,1,48,42,710544080
233,4,T1_SMS_5,18,5,42,127,710558104
233,4,T1_SMS_5,19,1,48,47,711055068
233,4,T1_SMS_5,20,5,42,127,711058024
233,4,T1_SMS_5,21,1,48,40,711518716
233,4,T1_SMS_5,22,5,42,127,711557492
233,4,T1_SMS_5,23,1,48,39,712016460
233,4,T1_SMS_5,24,5,42,127,712058088
233,4,T1_SMS_5,25,1,48,34,712520124
233,4,T1_SMS_5,26,5,42,127,712558004
233,4,T1_SMS_5,27,1,48,40,713012836
233,4,T1_SMS_5,28,5,42,127,713057700
233,4,T1_SMS_5,29,1,48,37,713530732
233,4,T1_SMS_5,30,5,42,127,713558444
233,4,T1_SMS_5,31,1,48,38,714008484
233,4,T1_SMS_5,32,5,42,127,714058212
233,4,T1_SMS_5,33,1,48,38,714526884
233,4,T1_SMS_5,34,5,42,127,714557980
233,4,T1_SMS_5,35,1,48,33,715027920
233,4,T1_SMS_5,36,5,42,127,715057576
233,4,T1_SMS_5,37,1,48,40,715477872
233,4,T1_SMS_5,38,5,42,127,715558316
233,4,T1_SMS_5,39,1,48,33,716049000
233,4,T1_SMS_5,40,5,42,127,716057936
233,4,T1_SMS_5,41,5,42,127,716557788
233,4,T1_SMS_5,42,1,48,38,716600172
233,4,T1_SMS_5,43,5,42,127,717058304
233,4,T1_SMS_5,44,1,48,40,717078252
233,4,T1_SMS_5,45,5,42,127,717558000
233,4,T1_SMS_5,46,1,48,39,717571812
233,4,T1_SMS_5,47,5,42,127,718057844
233,4,T1_SMS_5,48,1,48,39,718081676
233,4,T1_SMS_5,49,5,42,127,718557908
233,4,T1_SMS_5,50,1,48,37,718577788
233,4,T1_SMS_5,51,5,42,127,719058276
233,4,T1_SMS_5,52,1,48,37,719090416
233,4,T1_SMS_5,53,5,42,127,719557900
233,4,T1_SMS_5,54,1,48,41,719577248
233,4,T1_SMS_5,55,1,48,38,720050296
233,4,T1_SMS_5,56,5,42,127,720057660
233,4,T1_SMS_5,57,5,42,127,720557660
233,4,T1_SMS_5,58,1,48,37,720570728
233,4,T1_SMS_5,59,5,42,127,721058104
233,4,T1_SMS_5,60,1,48,37,721059736
233,4,T1_SMS_5,61,5,42,127,721557800
233,4,T1_SMS_5,62,1,48,40,721566828
233,4,T1_SMS_5,63,1,48,38,722056512
233,4,T1_SMS_5,64,5,42,127,722058156
233,4,T1_SMS_5,65,5,42,127,722558532
233,4,T1_SMS_5,66,1,48,43,722568756
233,4,T1_SMS_5,67,5,42,127,723058004
233,4,T1_SMS_5,68,1,48,42,723068080
233,4,T1_SMS_5,69,5,42,127,723557624
233,4,T1_SMS_5,70,1,48,44,723569044
233,4,T1_SMS_5,71,5,42,127,724057396
233,4,T1_SMS_5,72,1,48,42,724058360
233,4,T1_SMS_5,73,1,48,41,724544928
233,4,T1_SMS_5,74,5,42,127,724558280
233,4,T1_SMS_5,75,1,48,48,725045572
233,4,T1_SMS_5,76,5,42,127,725057972
233,4,T1_SMS_5,77,1,48,45,725555288
233,4,T1_SMS_5,78,5,42,127,725557644
233,4,T1_SMS_5,79,5,42,127,726058464
233,4,T1_SMS_5,80,1,48,49,726061064
233,4,T1_SMS_5,81,5,42,127,726558008
233,4,T1_SMS_5,82,1,48,46,726576908
233,4,T1_SMS_5,83,5,42,127,727057704
233,4,T1_SMS_5,84,1,48,48,727070100
233,4,T1_SMS_5,85,5,42,127,727557548
233,4,T1_SMS_5,86,1,48,51,727569568
233,4,T1_SMS_5,87,1,48,50,728039624
233,4,T1_SMS_5,88,5,42,127,728058356
233,4,T1_SMS_5,89,1,48,32,728084576
233,4,T1_SMS_5,90,1,48,54,728554256
233,4,T1_SMS_5,91,5,42,127,728557884
233,4,T1_SMS_5,92,1,48,35,728607436
233,4,T1_SMS_5,93,5,42,127,729057636
233,4,T1_SMS_5,94,1,48,45,729059424
233,4,T1_SMS_5,95,1,48,52,729548016
233,4,T1_SMS_5,96,5,42,127,729558448
233,4,T1_SMS_5,97,1,48,45,730055112
233,4,T1_SMS_5,98,5,42,127,730058364
233,4,T1_SMS_5,99,1,48,41,730544712
233,4,T1_SMS_5,100,5,42,127,730557688
233,4,T1_SMS_5,101,1,48,46,731046500
233,4,T1_SMS_5,102,5,42,127,731057384
233,4,T1_SMS_5,103,1,48,32,731531160
233,4,T1_SMS_5,104,5,42,127,731558272
233,4,T1_SMS_5,105,1,48,42,732034076
233,4,T1_SMS_5,106,5,42,127,732058044
233,4,T1_SMS_5,107,1,48,37,732538404
233,4,T1_SMS_5,108,5,42,127,732557736
233,4,T1_SMS_5,109,1,48,32,733049920
233,4,T1_SMS_5,110,5,42,127,733058328
233,4,T1_SMS_5,111,5,42,127,733558256
233,4,T1_SMS_5,112,1,48,35,733580452
233,4,T1_SMS_5,113,1,48,40,734051924
233,4,T1_SMS_5,114,5,42,127,734057796
233,4,T1_SMS_5,115,5,42,127,734557496
233,4,T1_SMS_5,116,1,48,37,734570112
233,4,T1_SMS_5,117,5,42,127,735058240
233,4,T1_SMS_5,118,1,48,44,735064796
233,4,T1_SMS_5,119,1,48,40,735546216
233,4,T1_SMS_5,120,5,42,127,735558076
233,4,T1_SMS_5,121,5,42,127,736057704
233,4,T1_SMS_5,122,1,48,43,736075556
233,4,T1_SMS_5,123,1,48,38,736552172
233,4,T1_SMS_5,124,5,42,127,736557368
233,4,T1_SMS_5,125,1,48,43,737033392
233,4,T1_SMS_5,126,5,42,127,737058036
233,4,T1_SMS_5,127,1,48,43,737543032
233,4,T1_SMS_5,128,5,42,127,737557956
233,4,T1_SMS_5,129,5,42,127,738057508
233,4,T1_SMS_5,130,1,48,42,738065564
233,4,T1_SMS_5,131,1,48,43,738550952
233,4,T1_SMS_5,132,5,42,127,738558316
233,4,T1_SMS_5,133,5,42,127,739058020
233,4,T1_SMS_5,134,1,48,42,739079084
233,4,T1_SMS_5,135,1,48,50,739556584
233,4,T1_SMS_5,136,5,42,127,739558376
233,4,T1_SMS_5,137,5,42,127,740057408
233,4,T1_SMS_5,138,1,48,42,740059928
233,4,T1_SMS_5,139,5,42,127,740558152
233,4,T1_SMS_5,140,1,48,49,740560164
233,4,T1_SMS_5,141,5,42,127,741057920
233,4,T1_SMS_5,142,1,48,45,741063576
233,4,T1_SMS_5,143,5,42,127,741557612
233,4,T1_SMS_5,144,1,48,46,741572848
233,4,T1_SMS_5,145,1,48,40,742044624
233,4,T1_SMS_5,146,5,42,127,742058276
233,4,T1_SMS_5,147,1,48,44,742542456
233,4,T1_SMS_5,148,5,42,127,742558048
233,4,T1_SMS_5,149,1,48,42,743055236
233,4,T1_SMS_5,150,5,42,127,743057816
233,4,T1_SMS_5,151,5,42,127,743557368
233,4,T1_SMS_5,152,1,48,49,743568336
233,4,T1_SMS_5,153,1,48,49,744057732
233,4,T1_SMS_5,154,5,42,127,744059372
233,4,T1_SMS_5,155,1,48,43,744548336
233,4,T1_SMS_5,156,5,42,127,744557872
233,4,T1_SMS_5,157,1,48,41,745038680
233,4,T1_SMS_5,158,5,42,127,745057644
233,4,T1_SMS_5,159,5,42,127,745558392
233,4,T1_SMS_5,160,1,48,43,745566672
233,4,T1_SMS_5,161,1,48,50,746057708
233,4,T1_SMS_5,162,5,42,127,746059572
233,4,T1_SMS_5,163,5,42,127,746557780
233,4,T1_SMS_5,164,1,48,45,746583412
233,4,T1_SMS_5,165,5,42,127,747057672
233,4,T1_SMS_5,166,1,48,46,747067700
233,4,T1_SMS_5,167,1,48,46,747554336
233,4,T1_SMS_5,168,5,42,127,747558112
233,4,T1_SMS_5,169,1,48,48,748044004
233,4,T1_SMS_5,170,5,42,127,748057956
233,4,T1_SMS_5,171,5,42,127,748557808
233,4,T1_SMS_5,172,1,48,48,748560100
233,4,T1_SMS_5,173,5,42,127,749058620
233,4,T1_SMS_5,174,1,48,49,749066148
233,4,T1_SMS_5,175,1,48,44,749545184
233,4,T1_SMS_5,176,5,42,127,749558088
233,4,T1_SMS_5,177,1,48,41,750040248
233,4,T1_SMS_5,178,5,42,127,750057856
233,4,T1_SMS_5,179,1,48,36,750488104
233,4,T1_SMS_5,180,5,42,127,750557476
233,4,T1_SMS_5,181,1,48,45,751045316
233,4,T1_SMS_5,182,5,42,127,751058368
233,4,T1_SMS_5,183,1,48,44,751545980
233,4,T1_SMS_5,184,5,42,127,751557912
233,4,T1_SMS_5,185,1,48,46,752038056
233,4,T1_SMS_5,186,5,42,127,752057756
233,4,T1_SMS_5,187,1,48,42,752537000
233,4,T1_SMS_5,188,5,42,127,752557452
233,4,T1_SMS_5,189,5,42,127,753058276
233,4,T1_SMS_5,190,1,48,29,753088320
233,4,T1_SMS_5,191,1,48,38,753509684
233,4,T1_SMS_5,192,5,42,127,753557816
233,4,T1_SMS_5,193,5,42,127,754057520
233,4,T1_SMS_5,194,1,48,34,754083668
233,4,T1_SMS_5,195,1,48,42,754546928
233,4,T1_SMS_5,196,5,42,127,754558252
233,4,T1_SMS_5,197,1,48,39,755050956
233,4,T1_SMS_5,198,5,42,127,755058244
233,4,T1_SMS_5,199,5,42,127,755558020
233,4,T1_SMS_5,200,1,48,43,755559960
233,4,T1_SMS_5,201,1,48,42,756053336
233,4,T1_SMS_5,202,5,42,127,756057412
233,4,T1_SMS_5,203,1,48,43,756531468
233,4,T1_SMS_5,204,5,42,127,756558152
233,4,T1_SMS_5,205,5,42,127,757058076
233,4,T1_SMS_5,206,1,48,28,757085952
233,4,T1_SMS_5,207,5,42,127,757557604
233,4,T1_SMS_5,208,1,48,35,757561044
233,4,T1_SMS_5,209,5,42,127,758058416
233,4,T1_SMS_5,210,1,48,35,758059384
233,4,T1_SMS_5,211,1,48,29,758546852
233,4,T1_SMS_5,212,5,42,127,758558256
233,4,T1_SMS_5,213,5,42,127,759057660
233,4,T1_SMS_5,214,1,48,40,759059072
233,4,T1_SMS_5,215,1,48,44,759539208
233,4,T1_SMS_5,216,5,42,127,759557420
233,4,T1_SMS_5,217,5,42,127,760058244
233,4,T1_SMS_5,218,1,48,41,760064724
233,4,T1_SMS_5,219,5,42,127,760557864
233,4,T1_SMS_5,220,1,48,39,760591428
233,4,T1_SMS_5,221,5,42,127,761057780
233,4,T1_SMS_5,222,1,48,32,761066736
233,4,T1_SMS_5,223,5,42,127,761558376
233,4,T1_SMS_5,224,1,48,25,761601064
233,4,T1_SMS_5,225,1,48,42,762048976
233,4,T1_SMS_5,226,5,42,127,762058212
233,4,T1_SMS_5,227,1,48,47,762545004
233,4,T1_SMS_5,228,5,42,127,762557904
233,4,T1_SMS_5,229,1,48,44,763038344
233,4,T1_SMS_5,230,5,42,127,763057528
233,4,T1_SMS_5,231,5,42,127,763558200
233,4,T1_SMS_5,232,1,48,36,763567976
233,4,T1_SMS_5,233,1,48,41,764058344
233,4,T1_SMS_5,234,5,42,127,764059908
233,4,T1_SMS_5,235,5,42,127,764558036
233,4,T1_SMS_5,236,1,48,43,764563628
233,4,T1_SMS_5,237,5,42,127,765058556
233,4,T1_SMS_5,238,1,48,38,765068336
233,4,T1_SMS_5,239,1,48,46,765529936
233,4,T1_SMS_5,240,5,42,127,765558172
233,4,T1_SMS_5,241,5,42,127,766058020
233,4,T1_SMS_5,242,1,48,42,766070040
233,4,T1_SMS_5,243,5,42,127,766557416
233,4,T1_SMS_5,244,1,48,38,766580652
233,4,T1_SMS_5,245,5,42,127,767058160
233,4,T1_SMS_5,246,1,48,40,767081772
233,4,T1_SMS_5,247,5,42,127,767557928
233,4,T1_SMS_5,248,1,48,29,767601436
233,4,T1_SMS_5,249,5,42,127,768057920
233,4,T1_SMS_5,250,1,48,36,768087668
233,4,T1_SMS_5,251,5,42,127,768557368
233,4,T1_SMS_5,252,1,48,37,768567988
233,4,T1_SMS_5,253,5,42,127,769058184
233,4,T1_SMS_5,254,1,48,40,769059224
233,4,T1_SMS_5,255,5,42,127,769557804
233,4,T1_SMS_5,256,1,48,42,769565856
233,4,T1_SMS_5,257,5,42,127,770057572
233,4,T1_SMS_5,258,1,48,42,770083880
233,4,T1_SMS_5,259,5,42,127,770558388
233,4,T1_SMS_5,260,1,48,36,770609748
233,4,T1_SMS_5,261,5,42,127,771058080
233,4,T1_SMS_5,262,1,48,38,771076240
233,4,T1_SMS_5,0,9999,9999,9999,706555964
233,4,T1_SMS_5,1,9999,9999,9999,707055736
233,4,T1_SMS_5,2,9999,9999,9999,707555428
233,4,T1_SMS_5,3,9999,9999,9999,708055140
233,4,T1_SMS_5,4,9999,9999,9999,708555884
233,4,T1_SMS_5,5,9999,9999,9999,709055580
233,4,T1_SMS_5,6,9999,9999,9999,709555252
233,4,T1_SMS_5,7,9999,9999,9999,710055992
233,4,T1_SMS_5,8,9999,9999,9999,710555740
233,4,T1_SMS_5,9,9999,9999,9999,711055436
233,4,T1_SMS_5,10,9999,9999,9999,711555128
233,4,T1_SMS_5,11,9999,9999,9999,712055872
233,4,T1_SMS_5,12,9999,9999,9999,712555640
233,4,T1_SMS_5,13,9999,9999,9999,713055336
233,4,T1_SMS_5,14,9999,9999,9999,713556080
233,4,T1_SMS_5,15,9999,9999,9999,714055772
233,4,T1_SMS_5,16,9999,9999,9999,714555468
233,4,T1_SMS_5,17,9999,9999,9999,715055212
233,4,T1_SMS_5,18,9999,9999,9999,715555952
233,4,T1_SMS_5,19,9999,9999,9999,716055648
233,4,T1_SMS_5,20,9999,9999,9999,716555348
233,4,T1_SMS_5,21,9999,9999,9999,717056092
233,4,T1_SMS_5,22,9999,9999,9999,717555784
233,4,T1_SMS_5,23,9999,9999,9999,718055476
233,4,T1_SMS_5,24,9999,9999,9999,718555244
233,4,T1_SMS_5,25,9999,9999,9999,719055988
233,4,T1_SMS_5,26,9999,9999,9999,719555684
233,4,T1_SMS_5,27,9999,9999,9999,720055372
233,4,T1_SMS_5,28,9999,9999,9999,720555072
233,4,T1_SMS_5,29,9999,9999,9999,721055812
233,4,T1_SMS_5,30,9999,9999,9999,721555508
233,4,T1_SMS_5,31,9999,9999,9999,722055276
233,4,T1_SMS_5,32,9999,9999,9999,722556016
233,4,T1_SMS_5,33,9999,9999,9999,723055712
233,4,T1_SMS_5,34,9999,9999,9999,723555408
233,4,T1_SMS_5,35,9999,9999,9999,724055104
233,4,T1_SMS_5,36,9999,9999,9999,724555840
233,4,T1_SMS_5,37,9999,9999,9999,725055608
233,4,T1_SMS_5,38,9999,9999,9999,725555352
233,4,T1_SMS_5,39,9999,9999,9999,726056024
233,4,T1_SMS_5,40,9999,9999,9999,726555720
233,4,T1_SMS_5,41,9999,9999,9999,727055416
233,4,T1_SMS_5,42,9999,9999,9999,727555184
233,4,T1_SMS_5,43,9999,9999,9999,728055916
233,4,T1_SMS_5,44,9999,9999,9999,728555592
233,4,T1_SMS_5,45,9999,9999,9999,729055348
233,4,T1_SMS_5,46,9999,9999,9999,729556080
233,4,T1_SMS_5,47,9999,9999,9999,730055776
233,4,T1_SMS_5,48,9999,9999,9999,730555472
233,4,T1_SMS_5,49,9999,9999,9999,731055168
233,4,T1_SMS_5,50,9999,9999,9999,731555908
233,4,T1_SMS_5,51,9999,9999,9999,732055604
233,4,T1_SMS_5,52,9999,9999,9999,732555372
233,4,T1_SMS_5,53,9999,9999,9999,733056116
233,4,T1_SMS_5,54,9999,9999,9999,733555816
233,4,T1_SMS_5,55,9999,9999,9999,734055508
233,4,T1_SMS_5,56,9999,9999,9999,734555208
233,4,T1_SMS_5,57,9999,9999,9999,735055948
233,4,T1_SMS_5,58,9999,9999,9999,735555636
233,4,T1_SMS_5,59,9999,9999,9999,736055388
233,4,T1_SMS_5,60,9999,9999,9999,736555080
233,4,T1_SMS_5,61,9999,9999,9999,737055820
233,4,T1_SMS_5,62,9999,9999,9999,737555516
233,4,T1_SMS_5,63,9999,9999,9999,738055220
233,4,T1_SMS_5,64,9999,9999,9999,738555952
233,4,T1_SMS_5,65,9999,9999,9999,739055728
233,4,T1_SMS_5,66,9999,9999,9999,739555424
233,4,T1_SMS_5,67,9999,9999,9999,740055120
233,4,T1_SMS_5,68,9999,9999,9999,740555860
233,4,T1_SMS_5,69,9999,9999,9999,741055552
233,4,T1_SMS_5,70,9999,9999,9999,741555248
233,4,T1_SMS_5,71,9999,9999,9999,742055988
233,4,T1_SMS_5,72,9999,9999,9999,742555756
233,4,T1_SMS_5,73,9999,9999,9999,743055452
233,4,T1_SMS_5,74,9999,9999,9999,743555152
233,4,T1_SMS_5,75,9999,9999,9999,744055896
233,4,T1_SMS_5,76,9999,9999,9999,744555584
233,4,T1_SMS_5,77,9999,9999,9999,745055352
233,4,T1_SMS_5,78,9999,9999,9999,745556024
233,4,T1_SMS_5,79,9999,9999,9999,746055796
233,4,T1_SMS_5,80,9999,9999,9999,746555488
233,4,T1_SMS_5,81,9999,9999,9999,747055160
233,4,T1_SMS_5,82,9999,9999,9999,747555896
233,4,T1_SMS_5,83,9999,9999,9999,748055668
233,4,T1_SMS_5,84,9999,9999,9999,748555368
233,4,T1_SMS_5,85,9999,9999,9999,749056112
233,4,T1_SMS_5,86,9999,9999,9999,749555796
233,4,T1_SMS_5,87,9999,9999,9999,750055492
233,4,T1_SMS_5,88,9999,9999,9999,750555188
233,4,T1_SMS_5,89,9999,9999,9999,751055928
233,4,T1_SMS_5,90,9999,9999,9999,751555696
233,4,T1_SMS_5,91,9999,9999,9999,752055392
233,4,T1_SMS_5,92,9999,9999,9999,752555088
233,4,T1_SMS_5,93,9999,9999,9999,753055836
233,4,T1_SMS_5,94,9999,9999,9999,753555524
233,4,T1_SMS_5,95,9999,9999,9999,754055228
233,4,T1_SMS_5,96,9999,9999,9999,754555964
233,4,T1_SMS_5,97,9999,9999,9999,755055732
233,4,T1_SMS_5,98,9999,9999,9999,755555436
233,4,T1_SMS_5,99,9999,9999,9999,756055124
233,4,T1_SMS_5,100,9999,9999,9999,756555864
233,4,T1_SMS_5,101,9999,9999,9999,757055564
233,4,T1_SMS_5,102,9999,9999,9999,757555312
233,4,T1_SMS_5,103,9999,9999,9999,758056052
233,4,T1_SMS_5,104,9999,9999,9999,758555740
233,4,T1_SMS_5,105,9999,9999,9999,759055444
233,4,T1_SMS_5,106,9999,9999,9999,759555132
233,4,T1_SMS_5,107,9999,9999,9999,760055880
233,4,T1_SMS_5,108,9999,9999,9999,760555572
233,4,T1_SMS_5,109,9999,9999,9999,761055340
233,4,T1_SMS_5,110,9999,9999,9999,761556084
233,4,T1_SMS_5,111,9999,9999,9999,762055772
233,4,T1_SMS_5,112,9999,9999,9999,762555468
233,4,T1_SMS_5,113,9999,9999,9999,763055164
233,4,T1_SMS_5,114,9999,9999,9999,763555908
233,4,T1_SMS_5,115,9999,9999,9999,764055608
233,4,T1_SMS_5,116,9999,9999,9999,764555376
233,4,T1_SMS_5,117,9999,9999,9999,765056120
233,4,T1_SMS_5,118,9999,9999,9999,765555804
233,4,T1_SMS_5,119,9999,9999,9999,766055508
233,4,T1_SMS_5,120,9999,9999,9999,766555200
233,4,T1_SMS_5,121,9999,9999,9999,767055944
233,4,T1_SMS_5,122,9999,9999,9999,767555636
233,4,T1_SMS_5,123,9999,9999,9999,768055408
233,4,T1_SMS_5,124,9999,9999,9999,768555076
233,4,T1_SMS_5,125,9999,9999,9999,769055816
233,4,T1_SMS_5,126,9999,9999,9999,769555512
233,4,T1_SMS_5,127,9999,9999,9999,770055284
233,4,T1_SMS_5,128,9999,9999,9999,770556024
233,4,T1_SMS_5,129,9999,9999,9999,771055716
234,2,T1_SMS_8,0,5,42,127,792372808
234,2,T1_SMS_8,1,1,48,49,793094484
234,2,T1_SMS_8,2,5,42,127,793173228
234,2,T1_SMS_8,3,1,48,44,793834004
234,2,T1_SMS_8,4,5,42,127,793973096
234,2,T1_SMS_8,5,1,48,41,794681708
234,2,T1_SMS_8,6,5,42,127,794772772
234,2,T1_SMS_8,7,1,48,37,795508592
234,2,T1_SMS_8,8,5,42,127,795572652
234,2,T1_SMS_8,9,5,42,127,796373440
234,2,T1_SMS_8,10,1,48,48,796384932
234,2,T1_SMS_8,11,1,48,39,797133116
234,2,T1_SMS_8,12,5,42,127,797173164
234,2,T1_SMS_8,13,1,48,42,797951324
234,2,T1_SMS_8,14,5,42,127,797972824
234,2,T1_SMS_8,15,1,48,39,798731760
234,2,T1_SMS_8,16,5,42,127,798772656
234,2,T1_SMS_8,17,1,48,32,799550068
234,2,T1_SMS_8,18,5,42,127,799573288
234,2,T1_SMS_8,19,1,48,34,800313824
234,2,T1_SMS_8,20,5,42,127,800373392
234,2,T1_SMS_8,21,1,48,37,801164720
234,2,T1_SMS_8,22,5,42,127,801172828
234,2,T1_SMS_8,23,1,48,37,801961680
234,2,T1_SMS_8,24,5,42,127,801972564
234,2,T1_SMS_8,25,1,48,36,802765084
234,2,T1_SMS_8,26,5,42,127,802773492
234,2,T1_SMS_8,27,1,48,43,803563920
234,2,T1_SMS_8,28,5,42,127,803573376
234,2,T1_SMS_8,29,1,48,40,804360736
234,2,T1_SMS_8,30,5,42,127,804372736
234,2,T1_SMS_8,31,5,42,127,805172504
234,2,T1_SMS_8,32,1,48,36,805189760
234,2,T1_SMS_8,33,1,48,34,805952220
234,2,T1_SMS_8,34,5,42,127,805973348
234,2,T1_SMS_8,35,5,42,127,806773240
234,2,T1_SMS_8,36,1,48,43,806774204
234,2,T1_SMS_8,37,5,42,127,807573048
234,2,T1_SMS_8,38,1,48,35,807584616
234,2,T1_SMS_8,39,5,42,127,808372556
234,2,T1_SMS_8,40,1,48,37,808424520
234,2,T1_SMS_8,41,1,48,38,809154600
234,2,T1_SMS_8,42,5,42,127,809173332
234,2,T1_SMS_8,43,1,48,40,809958744
234,2,T1_SMS_8,44,5,42,127,809973136
234,2,T1_SMS_8,45,1,48,38,810766784
234,2,T1_SMS_8,46,5,42,127,810773096
234,2,T1_SMS_8,47,5,42,127,811572640
234,2,T1_SMS_8,48,1,48,37,811579576
234,2,T1_SMS_8,49,1,48,50,812320620
234,2,T1_SMS_8,50,5,42,127,812373484
234,2,T1_SMS_8,51,1,48,43,813124116
234,2,T1_SMS_8,52,5,42,127,813173144
234,2,T1_SMS_8,53,1,48,46,813970688
234,2,T1_SMS_8,54,5,42,127,813972804
234,2,T1_SMS_8,55,1,48,43,814760760
234,2,T1_SMS_8,56,5,42,127,814772688
234,2,T1_SMS_8,57,1,48,46,815572348
234,2,T1_SMS_8,58,5,42,127,815574144
234,2,T1_SMS_8,59,5,42,127,816373056
234,2,T1_SMS_8,60,1,48,38,816392708
234,2,T1_SMS_8,61,5,42,127,817172792
234,2,T1_SMS_8,62,1,48,41,817189596
234,2,T1_SMS_8,63,1,48,49,817940020
234,2,T1_SMS_8,64,5,42,127,817972764
234,2,T1_SMS_8,65,1,48,25,818002420
234,2,T1_SMS_8,66,1,48,43,818745816
234,2,T1_SMS_8,67,5,42,127,818773524
234,2,T1_SMS_8,68,5,42,127,819573040
234,2,T1_SMS_8,69,1,48,40,819594108
234,2,T1_SMS_8,70,1,48,40,820364804
234,2,T1_SMS_8,71,5,42,127,820372840
234,2,T1_SMS_8,72,5,42,127,821172732
234,2,T1_SMS_8,73,1,48,42,821191632
234,2,T1_SMS_8,74,1,48,38,821968608
234,2,T1_SMS_8,75,5,42,127,821973504
234,2,T1_SMS_8,76,1,48,43,822761912
234,2,T1_SMS_8,77,5,42,127,822773012
234,2,T1_SMS_8,78,5,42,127,823572828
234,2,T1_SMS_8,79,1,48,35,823607688
234,2,T1_SMS_8,80,1,48,37,824364440
234,2,T1_SMS_8,81,5,42,127,824372652
234,2,T1_SMS_8,82,1,48,43,825160160
234,2,T1_SMS_8,83,5,42,127,825173356
234,2,T1_SMS_8,84,5,42,127,825973248
234,2,T1_SMS_8,85,1,48,40,825977120
234,2,T1_SMS_8,86,5,42,127,826772832
234,2,T1_SMS_8,87,1,48,39,826812680
234,2,T1_SMS_8,88,5,42,127,827572640
234,2,T1_SMS_8,89,1,48,37,827575312
234,2,T1_SMS_8,90,5,42,127,828373344
234,2,T1_SMS_8,91,1,48,38,828386936
234,2,T1_SMS_8,92,5,42,127,829173376
234,2,T1_SMS_8,93,1,48,36,829201928
234,2,T1_SMS_8,94,5,42,127,829972812
234,2,T1_SMS_8,95,1,48,34,829973776
234,2,T1_SMS_8,96,5,42,127,830772720
234,2,T1_SMS_8,97,1,48,40,830775764
234,2,T1_SMS_8,98,5,42,127,831573204
234,2,T1_SMS_8,99,1,48,36,831640200
234,2,T1_SMS_8,100,5,42,127,832373232
234,2,T1_SMS_8,101,1,48,35,832405528
234,2,T1_SMS_8,102,1,48,37,833173340
234,2,T1_SMS_8,103,5,42,127,833174608
234,2,T1_SMS_8,104,5,42,127,833972552
234,2,T1_SMS_8,105,1,48,47,834005216
234,2,T1_SMS_8,106,1,48,42,834742328
234,2,T1_SMS_8,107,5,42,127,834773324
234,2,T1_SMS_8,108,5,42,127,835573064
234,2,T1_SMS_8,109,1,48,38,835584264
234,2,T1_SMS_8,110,1,48,20,835654724
234,2,T1_SMS_8,111,1,48,31,836340124
234,2,T1_SMS_8,112,5,42,127,836372992
234,2,T1_SMS_8,113,5,42,127,837172536
234,2,T1_SMS_8,114,1,48,38,837196220
234,2,T1_SMS_8,115,5,42,127,837973240
234,2,T1_SMS_8,116,1,48,34,837985032
234,2,T1_SMS_8,117,1,48,36,838740176
234,2,T1_SMS_8,118,5,42,127,838772968
234,2,T1_SMS_8,119,5,42,127,839572932
234,2,T1_SMS_8,120,1,48,37,839600660
234,2,T1_SMS_8,121,1,48,40,840369484
234,2,T1_SMS_8,122,5,42,127,840372732
234,2,T1_SMS_8,123,1,48,36,841156496
234,2,T1_SMS_8,124,5,42,127,841173216
234,2,T1_SMS_8,125,1,48,34,841972500
234,2,T1_SMS_8,126,5,42,127,841974068
234,2,T1_SMS_8,127,5,42,127,842772760
234,2,T1_SMS_8,128,1,48,48,842801192
234,2,T1_SMS_8,129,5,42,127,843572520
234,2,T1_SMS_8,130,1,48,39,843582292
234,2,T1_SMS_8,131,5,42,127,844373596
234,2,T1_SMS_8,132,1,48,29,844385240
234,2,T1_SMS_8,133,5,42,127,845173180
234,2,T1_SMS_8,134,1,48,41,845176820
234,2,T1_SMS_8,135,5,42,127,845972764
234,2,T1_SMS_8,136,1,48,42,845985980
234,2,T1_SMS_8,137,1,48,45,846744784
234,2,T1_SMS_8,138,5,42,127,846772568
234,2,T1_SMS_8,139,1,48,38,847536812
234,2,T1_SMS_8,140,5,42,127,847573496
234,2,T1_SMS_8,141,1,48,42,848331608
234,2,T1_SMS_8,142,5,42,127,848373080
234,2,T1_SMS_8,143,1,48,45,849143532
234,2,T1_SMS_8,144,5,42,127,849172816
234,2,T1_SMS_8,145,5,42,127,849972652
234,2,T1_SMS_8,146,1,48,48,850014520
234,2,T1_SMS_8,147,1,48,35,850708524
234,2,T1_SMS_8,148,5,42,127,850773428
234,2,T1_SMS_8,149,1,48,48,851550316
234,2,T1_SMS_8,150,5,42,127,851573236
234,2,T1_SMS_8,151,1,48,31,852369196
234,2,T1_SMS_8,152,5,42,127,852372896
234,2,T1_SMS_8,153,5,42,127,853172560
234,2,T1_SMS_8,154,1,48,23,853243444
234,2,T1_SMS_8,155,1,48,38,853934556
234,2,T1_SMS_8,156,5,42,127,853973260
234,2,T1_SMS_8,157,5,42,127,854773224
234,2,T1_SMS_8,158,1,48,39,854799532
234,2,T1_SMS_8,159,5,42,127,855572880
234,2,T1_SMS_8,160,1,48,36,855578096
234,2,T1_SMS_8,161,5,42,127,856372564
234,2,T1_SMS_8,162,1,48,39,856381964
234,2,T1_SMS_8,163,1,48,38,857156852
234,2,T1_SMS_8,164,5,42,127,857173336
234,2,T1_SMS_8,165,5,42,127,857973076
234,2,T1_SMS_8,166,1,48,45,857999304
234,2,T1_SMS_8,167,5,42,127,858772884
234,2,T1_SMS_8,168,1,48,34,858790516
234,2,T1_SMS_8,169,5,42,127,859572472
234,2,T1_SMS_8,170,1,48,50,859599300
234,2,T1_SMS_8,171,5,42,127,860373400
234,2,T1_SMS_8,172,1,48,48,860436128
234,2,T1_SMS_8,173,5,42,127,861172984
234,2,T1_SMS_8,174,1,48,48,861220532
234,2,T1_SMS_8,175,1,48,43,861956448
234,2,T1_SMS_8,176,5,42,127,861972860
234,2,T1_SMS_8,177,5,42,127,862772700
234,2,T1_SMS_8,178,1,48,46,862795040
234,2,T1_SMS_8,179,5,42,127,863573552
234,2,T1_SMS_8,180,1,48,48,863616616
234,2,T1_SMS_8,181,5,42,127,864372988
234,2,T1_SMS_8,182,1,48,46,864389868
234,2,T1_SMS_8,183,5,42,127,865172724
234,2,T1_SMS_8,184,1,48,35,865185784
234,2,T1_SMS_8,185,1,48,36,865958956
234,2,T1_SMS_8,186,5,42,127,865972672
234,2,T1_SMS_8,187,5,42,127,866773460
234,2,T1_SMS_8,188,1,48,27,866795580
234,2,T1_SMS_8,189,5,42,127,867573044
234,2,T1_SMS_8,190,1,48,44,867606376
234,2,T1_SMS_8,191,1,48,41,868360396
234,2,T1_SMS_8,192,5,42,127,868372768
234,2,T1_SMS_8,193,5,42,127,869172460
234,2,T1_SMS_8,194,1,48,40,869234368
234,2,T1_SMS_8,195,5,42,127,869973464
234,2,T1_SMS_8,196,1,48,36,869974432
234,2,T1_SMS_8,197,1,48,32,870764032
234,2,T1_SMS_8,198,5,42,127,870773116
234,2,T1_SMS_8,199,1,48,34,871533544
234,2,T1_SMS_8,200,5,42,127,871572852
234,2,T1_SMS_8,201,5,42,127,872372592
234,2,T1_SMS_8,202,1,48,31,872399868
234,2,T1_SMS_8,203,5,42,127,873173420
234,2,T1_SMS_8,204,1,48,32,873176248
234,2,T1_SMS_8,205,5,42,127,873973080
234,2,T1_SMS_8,206,1,48,35,873985176
234,2,T1_SMS_8,207,1,48,36,874734252
234,2,T1_SMS_8,208,5,42,127,874772808
234,2,T1_SMS_8,209,1,48,40,875541464
234,2,T1_SMS_8,210,5,42,127,875572640
234,2,T1_SMS_8,211,5,42,127,876373428
234,2,T1_SMS_8,212,1,48,34,876424788
234,2,T1_SMS_8,213,5,42,127,877173160
234,2,T1_SMS_8,214,1,48,38,877205976
234,2,T1_SMS_8,215,5,42,127,877973116
234,2,T1_SMS_8,216,1,48,39,877982296
234,2,T1_SMS_8,217,1,48,40,878768024
234,2,T1_SMS_8,218,5,42,127,878772620
234,2,T1_SMS_8,219,5,42,127,879573332
234,2,T1_SMS_8,220,1,48,36,879632480
234,2,T1_SMS_8,221,5,42,127,880372992
234,2,T1_SMS_8,222,1,48,39,880424724
234,2,T1_SMS_8,223,5,42,127,881173020
234,2,T1_SMS_8,224,1,48,23,881173912
234,2,T1_SMS_8,225,5,42,127,881972556
234,2,T1_SMS_8,226,1,48,39,881980984
234,2,T1_SMS_8,227,1,48,38,882766940
234,2,T1_SMS_8,228,5,42,127,882773256
234,2,T1_SMS_8,229,5,42,127,883573068
234,2,T1_SMS_8,230,1,48,37,883607080
234,2,T1_SMS_8,231,1,48,32,884350768
234,2,T1_SMS_8,232,5,42,127,884372796
234,2,T1_SMS_8,233,5,42,127,885172760
234,2,T1_SMS_8,234,1,48,38,885184556
234,2,T1_SMS_8,235,5,42,127,885973316
234,2,T1_SMS_8,236,1,48,31,885983836
234,2,T1_SMS_8,237,5,42,127,886773048
234,2,T1_SMS_8,238,1,48,34,886799356
234,2,T1_SMS_8,239,5,42,127,887572860
234,2,T1_SMS_8,240,1,48,31,887600316
234,2,T1_SMS_8,241,1,48,35,888365916
234,2,T1_SMS_8,0,9999,9999,9999,792370272
234,2,T1_SMS_8,1,9999,9999,9999,793171016
234,2,T1_SMS_8,2,9999,9999,9999,793970808
234,2,T1_SMS_8,3,9999,9999,9999,794770484
234,2,T1_SMS_8,4,9999,9999,9999,795570292
234,2,T1_SMS_8,5,9999,9999,9999,796371000
234,2,T1_SMS_8,6,9999,9999,9999,797170804
234,2,T1_SMS_8,7,9999,9999,9999,797970536
234,2,T1_SMS_8,8,9999,9999,9999,798770272
234,2,T1_SMS_8,9,9999,9999,9999,799571000
234,2,T1_SMS_8,10,9999,9999,9999,800370732
234,2,T1_SMS_8,11,9999,9999,9999,801170544
234,2,T1_SMS_8,12,9999,9999,9999,801970276
234,2,T1_SMS_8,13,9999,9999,9999,802771056
234,2,T1_SMS_8,14,9999,9999,9999,803570788
234,2,T1_SMS_8,15,9999,9999,9999,804370524
234,2,T1_SMS_8,16,9999,9999,9999,805170264
234,2,T1_SMS_8,17,9999,9999,9999,805971060
234,2,T1_SMS_8,18,9999,9999,9999,806770804
234,2,T1_SMS_8,19,9999,9999,9999,807570536
234,2,T1_SMS_8,20,9999,9999,9999,808370268
234,2,T1_SMS_8,21,9999,9999,9999,809171044
234,2,T1_SMS_8,22,9999,9999,9999,809970776
234,2,T1_SMS_8,23,9999,9999,9999,810770508
234,2,T1_SMS_8,24,9999,9999,9999,811570276
234,2,T1_SMS_8,25,9999,9999,9999,812371048
234,2,T1_SMS_8,26,9999,9999,9999,813170780
234,2,T1_SMS_8,27,9999,9999,9999,813970480
234,2,T1_SMS_8,28,9999,9999,9999,814770252
234,2,T1_SMS_8,29,9999,9999,9999,815571036
234,2,T1_SMS_8,30,9999,9999,9999,816370768
234,2,T1_SMS_8,31,9999,9999,9999,817170504
234,2,T1_SMS_8,32,9999,9999,9999,817970252
234,2,T1_SMS_8,33,9999,9999,9999,818771012
234,2,T1_SMS_8,34,9999,9999,9999,819570752
234,2,T1_SMS_8,35,9999,9999,9999,820370480
234,2,T1_SMS_8,36,9999,9999,9999,821170292
234,2,T1_SMS_8,37,9999,9999,9999,821970992
234,2,T1_SMS_8,38,9999,9999,9999,822770800
234,2,T1_SMS_8,39,9999,9999,9999,823570540
234,2,T1_SMS_8,40,9999,9999,9999,824370292
234,2,T1_SMS_8,41,9999,9999,9999,825170996
234,2,T1_SMS_8,42,9999,9999,9999,825970736
234,2,T1_SMS_8,43,9999,9999,9999,826770544
234,2,T1_SMS_8,44,9999,9999,9999,827570280
234,2,T1_SMS_8,45,9999,9999,9999,828371056
234,2,T1_SMS_8,46,9999,9999,9999,829170792
234,2,T1_SMS_8,47,9999,9999,9999,829970524
234,2,T1_SMS_8,48,9999,9999,9999,830770284
234,2,T1_SMS_8,49,9999,9999,9999,831570992
234,2,T1_SMS_8,50,9999,9999,9999,832370796
234,2,T1_SMS_8,51,9999,9999,9999,833170532
234,2,T1_SMS_8,52,9999,9999,9999,833970264
234,2,T1_SMS_8,53,9999,9999,9999,834771036
234,2,T1_SMS_8,54,9999,9999,9999,835570776
234,2,T1_SMS_8,55,9999,9999,9999,836370480
234,2,T1_SMS_8,56,9999,9999,9999,837170248
234,2,T1_SMS_8,57,9999,9999,9999,837971028
234,2,T1_SMS_8,58,9999,9999,9999,838770756
234,2,T1_SMS_8,59,9999,9999,9999,839570496
234,2,T1_SMS_8,60,9999,9999,9999,840370296
234,2,T1_SMS_8,61,9999,9999,9999,841171000
234,2,T1_SMS_8,62,9999,9999,9999,841970740
234,2,T1_SMS_8,63,9999,9999,9999,842770548
234,2,T1_SMS_8,64,9999,9999,9999,843570232
234,2,T1_SMS_8,65,9999,9999,9999,844371012
234,2,T1_SMS_8,66,9999,9999,9999,845170744
234,2,T1_SMS_8,67,9999,9999,9999,845970476
234,2,T1_SMS_8,68,9999,9999,9999,846770280
234,2,T1_SMS_8,69,9999,9999,9999,847571060
234,2,T1_SMS_8,70,9999,9999,9999,848370792
234,2,T1_SMS_8,71,9999,9999,9999,849170528
234,2,T1_SMS_8,72,9999,9999,9999,849970292
234,2,T1_SMS_8,73,9999,9999,9999,850770992
234,2,T1_SMS_8,74,9999,9999,9999,851570800
234,2,T1_SMS_8,75,9999,9999,9999,852370532
234,2,T1_SMS_8,76,9999,9999,9999,853170272
234,2,T1_SMS_8,77,9999,9999,9999,853971044
234,2,T1_SMS_8,78,9999,9999,9999,854770788
234,2,T1_SMS_8,79,9999,9999,9999,855570520
234,2,T1_SMS_8,80,9999,9999,9999,856370276
234,2,T1_SMS_8,81,9999,9999,9999,857171048
234,2,T1_SMS_8,82,9999,9999,9999,857970788
234,2,T1_SMS_8,83,9999,9999,9999,858770520
234,2,T1_SMS_8,84,9999,9999,9999,859570256
234,2,T1_SMS_8,85,9999,9999,9999,860371036
234,2,T1_SMS_8,86,9999,9999,9999,861170772
234,2,T1_SMS_8,87,9999,9999,9999,861970496
234,2,T1_SMS_8,88,9999,9999,9999,862770260
234,2,T1_SMS_8,89,9999,9999,9999,863571040
234,2,T1_SMS_8,90,9999,9999,9999,864370772
234,2,T1_SMS_8,91,9999,9999,9999,865170508
234,2,T1_SMS_8,92,9999,9999,9999,865970236
234,2,T1_SMS_8,93,9999,9999,9999,866771020
234,2,T1_SMS_8,94,9999,9999,9999,867570756
234,2,T1_SMS_8,95,9999,9999,9999,868370480
234,2,T1_SMS_8,96,9999,9999,9999,869170248
234,2,T1_SMS_8,97,9999,9999,9999,869971028
234,2,T1_SMS_8,98,9999,9999,9999,870770756
234,2,T1_SMS_8,99,9999,9999,9999,871570488
234,2,T1_SMS_8,100,9999,9999,9999,872370228
234,2,T1_SMS_8,101,9999,9999,9999,873171060
234,2,T1_SMS_8,102,9999,9999,9999,873970792
234,2,T1_SMS_8,103,9999,9999,9999,874770520
234,2,T1_SMS_8,104,9999,9999,9999,875570280
234,2,T1_SMS_8,105,9999,9999,9999,876370988
234,2,T1_SMS_8,106,9999,9999,9999,877170796
234,2,T1_SMS_8,107,9999,9999,9999,877970532
234,2,T1_SMS_8,108,9999,9999,9999,878770260
234,2,T1_SMS_8,109,9999,9999,9999,879571044
234,2,T1_SMS_8,110,9999,9999,9999,880370776
234,2,T1_SMS_8,111,9999,9999,9999,881170512
234,2,T1_SMS_8,112,9999,9999,9999,881970268
234,2,T1_SMS_8,113,9999,9999,9999,882771040
234,2,T1_SMS_8,114,9999,9999,9999,883570780
234,2,T1_SMS_8,115,9999,9999,9999,884370508
234,2,T1_SMS_8,116,9999,9999,9999,885170248
234,2,T1_SMS_8,117,9999,9999,9999,885971028
234,2,T1_SMS_8,118,9999,9999,9999,886770760
234,2,T1_SMS_8,119,9999,9999,9999,887570496
235,22,Ticks_Phase_8,0,5,42,127,917082616
235,22,Ticks_Phase_8,1,1,48,28,917468432
235,22,Ticks_Phase_8,2,5,42,127,917883520
235,22,Ticks_Phase_8,3,1,48,28,918050956
235,22,Ticks_Phase_8,4,1,48,31,918656912
235,22,Ticks_Phase_8,5,5,42,127,918683080
235,22,Ticks_Phase_8,6,1,48,36,919387356
235,22,Ticks_Phase_8,7,5,42,127,919482864
235,22,Ticks_Phase_8,8,1,48,38,920240692
235,22,Ticks_Phase_8,9,5,42,127,920282500
235,22,Ticks_Phase_8,10,1,48,30,921035524
235,22,Ticks_Phase_8,11,5,42,127,921083408
235,22,Ticks_Phase_8,12,1,48,34,921822108
235,22,Ticks_Phase_8,13,5,42,127,921882944
235,22,Ticks_Phase_8,14,1,48,37,922654692
235,22,Ticks_Phase_8,15,5,42,127,922682608
235,22,Ticks_Phase_8,16,1,48,33,923460340
235,22,Ticks_Phase_8,17,5,42,127,923482468
235,22,Ticks_Phase_8,18,1,48,33,924281040
235,22,Ticks_Phase_8,19,5,42,127,924283228
235,22,Ticks_Phase_8,20,1,48,35,925081664
235,22,Ticks_Phase_8,21,5,42,127,925083460
235,22,Ticks_Phase_8,22,5,42,127,925882656
235,22,Ticks_Phase_8,23,1,48,29,925919620
235,22,Ticks_Phase_8,24,5,42,127,926682368
235,22,Ticks_Phase_8,25,1,48,39,926683780
235,22,Ticks_Phase_8,26,5,42,127,927483276
235,22,Ticks_Phase_8,27,1,48,36,927521900
235,22,Ticks_Phase_8,28,1,48,34,928246476
235,22,Ticks_Phase_8,29,5,42,127,928283128
235,22,Ticks_Phase_8,30,1,48,36,929049708
235,22,Ticks_Phase_8,31,5,42,127,929082868
235,22,Ticks_Phase_8,32,1,48,34,929880464
235,22,Ticks_Phase_8,33,5,42,127,929882428
235,22,Ticks_Phase_8,34,1,48,34,930657916
235,22,Ticks_Phase_8,35,5,42,127,930683188
235,22,Ticks_Phase_8,36,1,48,35,931412852
235,22,Ticks_Phase_8,37,5,42,127,931482972
235,22,Ticks_Phase_8,38,1,48,39,932230688
235,22,Ticks_Phase_8,39,5,42,127,932282832
235,22,Ticks_Phase_8,40,5,42,127,933082556
235,22,Ticks_Phase_8,41,1,48,25,933089416
235,22,Ticks_Phase_8,42,5,42,127,933883312
235,22,Ticks_Phase_8,43,1,48,44,933938724
235,22,Ticks_Phase_8,44,5,42,127,934683096
235,22,Ticks_Phase_8,45,1,48,28,934753348
235,22,Ticks_Phase_8,46,5,42,127,935482908
235,22,Ticks_Phase_8,47,1,48,21,935491500
235,22,Ticks_Phase_8,48,1,48,36,936279660
235,22,Ticks_Phase_8,49,5,42,127,936282616
235,22,Ticks_Phase_8,50,5,42,127,937083232
235,22,Ticks_Phase_8,51,1,48,24,937091672
235,22,Ticks_Phase_8,52,1,48,36,937879832
235,22,Ticks_Phase_8,53,5,42,127,937882936
235,22,Ticks_Phase_8,54,1,48,37,938660896
235,22,Ticks_Phase_8,55,5,42,127,938682796
235,22,Ticks_Phase_8,56,5,42,127,939482440
235,22,Ticks_Phase_8,57,1,48,32,939508996
235,22,Ticks_Phase_8,58,1,48,36,940260704
235,22,Ticks_Phase_8,59,5,42,127,940283344
235,22,Ticks_Phase_8,60,5,42,127,941062544
235,22,Ticks_Phase_8,61,1,48,34,941097512
235,22,Ticks_Phase_8,62,1,48,43,941829340
235,22,Ticks_Phase_8,63,5,42,127,941863368
235,22,Ticks_Phase_8,64,1,48,47,942645256
235,22,Ticks_Phase_8,65,5,42,127,942663032
235,22,Ticks_Phase_8,66,1,48,43,943455820
235,22,Ticks_Phase_8,67,5,42,127,943462668
235,22,Ticks_Phase_8,68,5,42,127,944262536
235,22,Ticks_Phase_8,69,1,48,48,944318368
235,22,Ticks_Phase_8,70,1,48,43,945054200
235,22,Ticks_Phase_8,71,5,42,127,945063364
235,22,Ticks_Phase_8,72,1,48,40,945825600
235,22,Ticks_Phase_8,73,5,42,127,945863152
235,22,Ticks_Phase_8,74,1,48,43,946585472
235,22,Ticks_Phase_8,75,5,42,127,946662864
235,22,Ticks_Phase_8,76,1,48,36,947388176
235,22,Ticks_Phase_8,77,5,42,127,947462428
235,22,Ticks_Phase_8,78,1,48,36,948244884
235,22,Ticks_Phase_8,79,5,42,127,948263260
235,22,Ticks_Phase_8,80,1,48,36,949013744
235,22,Ticks_Phase_8,81,5,42,127,949063148
235,22,Ticks_Phase_8,82,1,48,28,949797424
235,22,Ticks_Phase_8,83,5,42,127,949862708
235,22,Ticks_Phase_8,84,1,48,41,950646812
235,22,Ticks_Phase_8,85,5,42,127,950662644
235,22,Ticks_Phase_8,86,5,42,127,951463332
235,22,Ticks_Phase_8,87,1,48,22,951514680
235,22,Ticks_Phase_8,88,5,42,127,952262972
235,22,Ticks_Phase_8,89,1,48,36,952299184
235,22,Ticks_Phase_8,90,5,42,127,953062756
235,22,Ticks_Phase_8,91,1,48,35,953107588
235,22,Ticks_Phase_8,92,5,42,127,953862468
235,22,Ticks_Phase_8,93,1,48,40,953912268
235,22,Ticks_Phase_8,94,5,42,127,954663228
235,22,Ticks_Phase_8,95,1,48,44,954732400
235,22,Ticks_Phase_8,96,5,42,127,955482560
235,22,Ticks_Phase_8,97,1,48,28,955530548
235,22,Ticks_Phase_8,98,1,48,34,956277896
235,22,Ticks_Phase_8,99,5,42,127,956283388
235,22,Ticks_Phase_8,100,5,42,127,957082960
235,22,Ticks_Phase_8,101,1,48,42,957116784
235,22,Ticks_Phase_8,102,1,48,38,957858220
235,22,Ticks_Phase_8,103,5,42,127,957882740
235,22,Ticks_Phase_8,104,1,48,32,958641244
235,22,Ticks_Phase_8,105,5,42,127,958682676
235,22,Ticks_Phase_8,106,1,48,30,959464012
235,22,Ticks_Phase_8,107,5,42,127,959483212
235,22,Ticks_Phase_8,108,1,48,31,960224560
235,22,Ticks_Phase_8,109,5,42,127,960283000
235,22,Ticks_Phase_8,110,1,48,38,961071704
235,22,Ticks_Phase_8,111,5,42,127,961082664
235,22,Ticks_Phase_8,112,5,42,127,961882604
235,22,Ticks_Phase_8,113,1,48,35,961889908
235,22,Ticks_Phase_8,114,1,48,32,962678832
235,22,Ticks_Phase_8,115,5,42,127,962683356
235,22,Ticks_Phase_8,116,1,48,32,963480484
235,22,Ticks_Phase_8,117,5,42,127,963483068
235,22,Ticks_Phase_8,118,5,42,127,964282712
235,22,Ticks_Phase_8,119,1,48,33,964298408
235,22,Ticks_Phase_8,120,1,48,37,965050640
235,22,Ticks_Phase_8,121,5,42,127,965082416
235,22,Ticks_Phase_8,122,1,48,45,965864420
235,22,Ticks_Phase_8,123,5,42,127,965883396
235,22,Ticks_Phase_8,124,1,48,40,966638292
235,22,Ticks_Phase_8,125,5,42,127,966683108
235,22,Ticks_Phase_8,126,5,42,127,967482628
235,22,Ticks_Phase_8,127,1,48,31,967483596
235,22,Ticks_Phase_8,128,1,48,45,968317500
235,22,Ticks_Phase_8,129,5,42,127,968322328
235,22,Ticks_Phase_8,130,5,42,127,969123388
235,22,Ticks_Phase_8,131,1,48,31,969137520
235,22,Ticks_Phase_8,132,5,42,127,969922876
235,22,Ticks_Phase_8,133,1,48,29,969973700
235,22,Ticks_Phase_8,134,5,42,127,970722664
235,22,Ticks_Phase_8,135,1,48,32,970778572
235,22,Ticks_Phase_8,136,5,42,127,971522300
235,22,Ticks_Phase_8,137,1,48,36,971583560
235,22,Ticks_Phase_8,138,5,42,127,972323132
235,22,Ticks_Phase_8,139,1,48,34,972364920
235,22,Ticks_Phase_8,140,5,42,127,973122868
235,22,Ticks_Phase_8,141,1,48,39,973127860
235,22,Ticks_Phase_8,142,1,48,37,973906364
235,22,Ticks_Phase_8,143,5,42,127,973922572
235,22,Ticks_Phase_8,144,5,42,127,974722440
235,22,Ticks_Phase_8,145,1,48,36,974737088
235,22,Ticks_Phase_8,146,5,42,127,975523048
235,22,Ticks_Phase_8,147,1,48,41,975531564
235,22,Ticks_Phase_8,148,5,42,127,976322912
235,22,Ticks_Phase_8,149,1,48,43,976351796
235,22,Ticks_Phase_8,150,1,48,42,977107160
235,22,Ticks_Phase_8,151,5,42,127,977122764
235,22,Ticks_Phase_8,152,1,48,30,977911368
235,22,Ticks_Phase_8,153,5,42,127,977922328
235,22,Ticks_Phase_8,154,1,48,46,978714220
235,22,Ticks_Phase_8,155,5,42,127,978723160
235,22,Ticks_Phase_8,156,1,48,40,979519192
235,22,Ticks_Phase_8,157,5,42,127,979522896
235,22,Ticks_Phase_8,158,1,48,44,980311204
235,22,Ticks_Phase_8,159,5,42,127,980322756
235,22,Ticks_Phase_8,160,5,42,127,981122400
235,22,Ticks_Phase_8,161,1,48,44,981151812
235,22,Ticks_Phase_8,162,5,42,127,981883320
235,22,Ticks_Phase_8,163,1,48,36,981927772
235,22,Ticks_Phase_8,164,1,48,36,982622268
235,22,Ticks_Phase_8,165,5,42,127,982683024
235,22,Ticks_Phase_8,166,1,48,37,983403852
235,22,Ticks_Phase_8,167,5,42,127,983482664
235,22,Ticks_Phase_8,168,1,48,40,984172484
235,22,Ticks_Phase_8,169,5,42,127,984282732
235,22,Ticks_Phase_8,170,1,48,29,984947404
235,22,Ticks_Phase_8,171,5,42,127,985083120
235,22,Ticks_Phase_8,172,1,48,43,985844692
235,22,Ticks_Phase_8,173,5,42,127,985882920
235,22,Ticks_Phase_8,174,1,48,37,986638712
235,22,Ticks_Phase_8,175,5,42,127,986682880
235,22,Ticks_Phase_8,176,1,48,35,987459560
235,22,Ticks_Phase_8,177,5,42,127,987482664
235,22,Ticks_Phase_8,178,1,48,29,988217940
235,22,Ticks_Phase_8,179,5,42,127,988283348
235,22,Ticks_Phase_8,180,1,48,39,989002980
235,22,Ticks_Phase_8,181,5,42,127,989082912
235,22,Ticks_Phase_8,182,5,42,127,989882776
235,22,Ticks_Phase_8,183,1,48,39,989902976
235,22,Ticks_Phase_8,184,5,42,127,990682492
235,22,Ticks_Phase_8,185,1,48,45,990701940
235,22,Ticks_Phase_8,186,1,48,33,991466960
235,22,Ticks_Phase_8,187,5,42,127,991483464
235,22,Ticks_Phase_8,188,1,48,27,992265020
235,22,Ticks_Phase_8,189,5,42,127,992283248
235,22,Ticks_Phase_8,190,1,48,35,993082992
235,22,Ticks_Phase_8,191,5,42,127,993084484
235,22,Ticks_Phase_8,192,5,42,127,993882484
235,22,Ticks_Phase_8,193,1,48,33,993892572
235,22,Ticks_Phase_8,194,5,42,127,994603412
235,22,Ticks_Phase_8,195,1,48,31,994672140
235,22,Ticks_Phase_8,196,1,48,32,995368560
235,22,Ticks_Phase_8,197,5,42,127,995403268
235,22,Ticks_Phase_8,198,1,48,44,996178984
235,22,Ticks_Phase_8,199,5,42,127,996202980
235,22,Ticks_Phase_8,200,1,48,42,996900884
235,22,Ticks_Phase_8,201,5,42,127,997002752
235,22,Ticks_Phase_8,202,1,48,38,997727264
235,22,Ticks_Phase_8,203,5,42,127,997803304
235,22,Ticks_Phase_8,204,1,48,37,998545020
235,22,Ticks_Phase_8,205,5,42,127,998603164
235,22,Ticks_Phase_8,206,1,48,37,999361592
235,22,Ticks_Phase_8,207,5,42,127,999402948
235,22,Ticks_Phase_8,208,1,48,43,1000169076
235,22,Ticks_Phase_8,209,5,42,127,1000202884
235,22,Ticks_Phase_8,210,5,42,127,1001003376
235,22,Ticks_Phase_8,211,1,48,37,1001013468
235,22,Ticks_Phase_8,212,1,48,41,1001783884
235,22,Ticks_Phase_8,213,5,42,127,1001803084
235,22,Ticks_Phase_8,214,1,48,36,1002570872
235,22,Ticks_Phase_8,215,5,42,127,1002602796
235,22,Ticks_Phase_8,216,5,42,127,1003402588
235,22,Ticks_Phase_8,217,1,48,36,1003407728
235,22,Ticks_Phase_8,218,5,42,127,1004203572
235,22,Ticks_Phase_8,219,1,48,38,1004210816
235,22,Ticks_Phase_8,220,5,42,127,1005003060
235,22,Ticks_Phase_8,221,1,48,34,1005065416
235,22,Ticks_Phase_8,222,1,48,42,1005750692
235,22,Ticks_Phase_8,223,5,42,127,1005802912
235,22,Ticks_Phase_8,224,1,48,38,1006569040
235,22,Ticks_Phase_8,225,5,42,127,1006602700
235,22,Ticks_Phase_8,226,1,48,26,1007338872
235,22,Ticks_Phase_8,227,5,42,127,1007403260
235,22,Ticks_Phase_8,228,1,48,33,1008138736
235,22,Ticks_Phase_8,229,5,42,127,1008283012
235,22,Ticks_Phase_8,230,5,42,127,1009082672
235,22,Ticks_Phase_8,231,1,48,33,1009087812
235,22,Ticks_Phase_8,232,1,48,35,1009802740
235,22,Ticks_Phase_8,233,5,42,127,1009882672
235,22,Ticks_Phase_8,234,1,48,38,1010650536
235,22,Ticks_Phase_8,235,5,42,127,1010683432
235,22,Ticks_Phase_8,236,5,42,127,1011482928
235,22,Ticks_Phase_8,237,1,48,43,1011511164
235,22,Ticks_Phase_8,238,5,42,127,1012282816
235,22,Ticks_Phase_8,239,1,48,36,1012308176
235,22,Ticks_Phase_8,240,5,42,127,1013082604
235,22,Ticks_Phase_8,241,1,48,38,1013085424
235,22,Ticks_Phase_8,242,1,48,47,1013878528
235,22,Ticks_Phase_8,243,5,42,127,1013883356
235,22,Ticks_Phase_8,244,1,48,29,1014679064
235,22,Ticks_Phase_8,245,5,42,127,1014682920
235,22,Ticks_Phase_8,246,1,48,38,1015455940
235,22,Ticks_Phase_8,247,5,42,127,1015482704
235,22,Ticks_Phase_8,248,1,48,30,1016240532
235,22,Ticks_Phase_8,249,5,42,127,1016282568
235,22,Ticks_Phase_8,250,5,42,127,1017083184
235,22,Ticks_Phase_8,251,1,48,21,1017091476
235,22,Ticks_Phase_8,252,1,48,31,1017882288
235,22,Ticks_Phase_8,253,5,42,127,1017884084
235,22,Ticks_Phase_8,254,1,48,35,1018674880
235,22,Ticks_Phase_8,255,5,42,127,1018683072
235,22,Ticks_Phase_8,256,1,48,26,1019462164
235,22,Ticks_Phase_8,257,5,42,127,1019482484
235,22,Ticks_Phase_8,258,1,48,32,1020277072
235,22,Ticks_Phase_8,259,5,42,127,1020283244
235,22,Ticks_Phase_8,260,1,48,22,1021078956
235,22,Ticks_Phase_8,261,5,42,127,1021083180
235,22,Ticks_Phase_8,262,1,48,25,1021877092
235,22,Ticks_Phase_8,263,5,42,127,1022042416
235,22,Ticks_Phase_8,264,5,42,127,1022843120
235,22,Ticks_Phase_8,265,1,48,35,1023033860
235,22,Ticks_Phase_8,266,5,42,127,1023642980
235,22,Ticks_Phase_8,267,1,48,23,1023863228
235,22,Ticks_Phase_8,268,5,42,127,1024442696
235,22,Ticks_Phase_8,269,5,42,127,1025242352
235,22,Ticks_Phase_8,270,1,48,37,1025396020
235,22,Ticks_Phase_8,271,5,42,127,1026043260
235,22,Ticks_Phase_8,272,1,48,36,1026163012
235,22,Ticks_Phase_8,273,5,42,127,1026842900
235,22,Ticks_Phase_8,274,1,48,29,1026922808
235,22,Ticks_Phase_8,275,1,48,34,1027642564
235,22,Ticks_Phase_8,276,5,42,127,1027644196
235,22,Ticks_Phase_8,277,5,42,127,1028442496
235,22,Ticks_Phase_8,278,1,48,36,1028446888
235,22,Ticks_Phase_8,279,1,48,39,1029209740
235,22,Ticks_Phase_8,280,5,42,127,1029243248
235,22,Ticks_Phase_8,281,1,48,44,1029970432
235,22,Ticks_Phase_8,282,5,42,127,1030042960
235,22,Ticks_Phase_8,283,1,48,42,1030814708
235,22,Ticks_Phase_8,284,5,42,127,1030842824
235,22,Ticks_Phase_8,285,5,42,127,1031642468
235,22,Ticks_Phase_8,286,1,48,32,1031674716
235,22,Ticks_Phase_8,287,5,42,127,1032443448
235,22,Ticks_Phase_8,288,1,48,34,1032450544
235,22,Ticks_Phase_8,289,5,42,127,1033242864
235,22,Ticks_Phase_8,290,1,48,37,1033243828
235,22,Ticks_Phase_8,291,1,48,40,1034013932
235,22,Ticks_Phase_8,292,5,42,127,1034042668
235,22,Ticks_Phase_8,293,5,42,127,1034842460
235,22,Ticks_Phase_8,294,1,48,36,1034861384
235,22,Ticks_Phase_8,295,1,48,43,1035634948
235,22,Ticks_Phase_8,296,5,42,127,1035643512
235,22,Ticks_Phase_8,297,5,42,127,1036442856
235,22,Ticks_Phase_8,298,1,48,41,1036477128
235,22,Ticks_Phase_8,299,5,42,127,1037083032
235,22,Ticks_Phase_8,300,1,48,39,1037249952
235,22,Ticks_Phase_8,301,1,48,18,1037691524
235,22,Ticks_Phase_8,302,5,42,127,1037882672
235,22,Ticks_Phase_8,303,1,48,25,1038268336
235,22,Ticks_Phase_8,304,5,42,127,1038682460
235,22,Ticks_Phase_8,305,1,48,24,1038824496
235,22,Ticks_Phase_8,306,5,42,127,1039483364
235,22,Ticks_Phase_8,307,1,48,16,1039648020
235,22,Ticks_Phase_8,308,5,42,127,1040283152
235,22,Ticks_Phase_8,309,1,48,24,1040362284
235,22,Ticks_Phase_8,310,1,48,29,1041067920
235,22,Ticks_Phase_8,311,5,42,127,1041083080
235,22,Ticks_Phase_8,312,1,48,33,1041756204
235,22,Ticks_Phase_8,313,5,42,127,1041882332
235,22,Ticks_Phase_8,314,1,48,27,1042636268
235,22,Ticks_Phase_8,315,5,42,127,1042683180
235,22,Ticks_Phase_8,316,5,42,127,1043482972
235,22,Ticks_Phase_8,317,1,48,30,1043492632
235,22,Ticks_Phase_8,318,1,48,26,1044208428
235,22,Ticks_Phase_8,319,5,42,127,1044282924
235,22,Ticks_Phase_8,320,1,48,23,1045009488
235,22,Ticks_Phase_8,321,5,42,127,1045082412
235,22,Ticks_Phase_8,322,1,48,25,1045850572
235,22,Ticks_Phase_8,323,5,42,127,1045883244
235,22,Ticks_Phase_8,324,1,48,27,1046672368
235,22,Ticks_Phase_8,325,5,42,127,1046683032
235,22,Ticks_Phase_8,326,5,42,127,1047482896
235,22,Ticks_Phase_8,327,1,48,35,1047486988
235,22,Ticks_Phase_8,328,1,48,36,1048275012
235,22,Ticks_Phase_8,329,5,42,127,1048282452
235,22,Ticks_Phase_8,330,5,42,127,1049083368
235,22,Ticks_Phase_8,331,1,48,43,1049107080
235,22,Ticks_Phase_8,332,5,42,127,1049883076
235,22,Ticks_Phase_8,333,1,48,35,1049907712
235,22,Ticks_Phase_8,334,1,48,44,1050665480
235,22,Ticks_Phase_8,335,5,42,127,1050682732
235,22,Ticks_Phase_8,336,1,48,43,1051476420
235,22,Ticks_Phase_8,337,5,42,127,1051482740
235,22,Ticks_Phase_8,338,5,42,127,1052283212
235,22,Ticks_Phase_8,0,9999,9999,9999,917080180
235,22,Ticks_Phase_8,1,9999,9999,9999,917880936
235,22,Ticks_Phase_8,2,9999,9999,9999,918680644
235,22,Ticks_Phase_8,3,9999,9999,9999,919480428
235,22,Ticks_Phase_8,4,9999,9999,9999,920280140
235,22,Ticks_Phase_8,5,9999,9999,9999,921080900
235,22,Ticks_Phase_8,6,9999,9999,9999,921880660
235,22,Ticks_Phase_8,7,9999,9999,9999,922680396
235,22,Ticks_Phase_8,8,9999,9999,9999,923480180
235,22,Ticks_Phase_8,9,9999,9999,9999,924280904
235,22,Ticks_Phase_8,10,9999,9999,9999,925080660
235,22,Ticks_Phase_8,11,9999,9999,9999,925880444
235,22,Ticks_Phase_8,12,9999,9999,9999,926680156
235,22,Ticks_Phase_8,13,9999,9999,9999,927480916
235,22,Ticks_Phase_8,14,9999,9999,9999,928280696
235,22,Ticks_Phase_8,15,9999,9999,9999,929080432
235,22,Ticks_Phase_8,16,9999,9999,9999,929880180
235,22,Ticks_Phase_8,17,9999,9999,9999,930680900
235,22,Ticks_Phase_8,18,9999,9999,9999,931480688
235,22,Ticks_Phase_8,19,9999,9999,9999,932280400
235,22,Ticks_Phase_8,20,9999,9999,9999,933080120
235,22,Ticks_Phase_8,21,9999,9999,9999,933880948
235,22,Ticks_Phase_8,22,9999,9999,9999,934680660
235,22,Ticks_Phase_8,23,9999,9999,9999,935480400
235,22,Ticks_Phase_8,24,9999,9999,9999,936280180
235,22,Ticks_Phase_8,25,9999,9999,9999,937080944
235,22,Ticks_Phase_8,26,9999,9999,9999,937880648
235,22,Ticks_Phase_8,27,9999,9999,9999,938680436
235,22,Ticks_Phase_8,28,9999,9999,9999,939480152
235,22,Ticks_Phase_8,29,9999,9999,9999,940280908
235,22,Ticks_Phase_8,30,9999,9999,9999,941060180
235,22,Ticks_Phase_8,31,9999,9999,9999,941860932
235,22,Ticks_Phase_8,32,9999,9999,9999,942660672
235,22,Ticks_Phase_8,33,9999,9999,9999,943460456
235,22,Ticks_Phase_8,34,9999,9999,9999,944260176
235,22,Ticks_Phase_8,35,9999,9999,9999,945060928
235,22,Ticks_Phase_8,36,9999,9999,9999,945860716
235,22,Ticks_Phase_8,37,9999,9999,9999,946660428
235,22,Ticks_Phase_8,38,9999,9999,9999,947460216
235,22,Ticks_Phase_8,39,9999,9999,9999,948260976
235,22,Ticks_Phase_8,40,9999,9999,9999,949060712
235,22,Ticks_Phase_8,41,9999,9999,9999,949860424
235,22,Ticks_Phase_8,42,9999,9999,9999,950660208
235,22,Ticks_Phase_8,43,9999,9999,9999,951460972
235,22,Ticks_Phase_8,44,9999,9999,9999,952260684
235,22,Ticks_Phase_8,45,9999,9999,9999,953060472
235,22,Ticks_Phase_8,46,9999,9999,9999,953860180
235,22,Ticks_Phase_8,47,9999,9999,9999,954660940
235,22,Ticks_Phase_8,48,9999,9999,9999,955480124
235,22,Ticks_Phase_8,49,9999,9999,9999,956280956
235,22,Ticks_Phase_8,50,9999,9999,9999,957080672
235,22,Ticks_Phase_8,51,9999,9999,9999,957880380
235,22,Ticks_Phase_8,52,9999,9999,9999,958680168
235,22,Ticks_Phase_8,53,9999,9999,9999,959480924
235,22,Ticks_Phase_8,54,9999,9999,9999,960280640
235,22,Ticks_Phase_8,55,9999,9999,9999,961080376
235,22,Ticks_Phase_8,56,9999,9999,9999,961880168
235,22,Ticks_Phase_8,57,9999,9999,9999,962680920
235,22,Ticks_Phase_8,58,9999,9999,9999,963480632
235,22,Ticks_Phase_8,59,9999,9999,9999,964280424
235,22,Ticks_Phase_8,60,9999,9999,9999,965080132
235,22,Ticks_Phase_8,61,9999,9999,9999,965880888
235,22,Ticks_Phase_8,62,9999,9999,9999,966680672
235,22,Ticks_Phase_8,63,9999,9999,9999,967480416
235,22,Ticks_Phase_8,64,9999,9999,9999,968320112
235,22,Ticks_Phase_8,65,9999,9999,9999,969120880
235,22,Ticks_Phase_8,66,9999,9999,9999,969920592
235,22,Ticks_Phase_8,67,9999,9999,9999,970720376
235,22,Ticks_Phase_8,68,9999,9999,9999,971520088
235,22,Ticks_Phase_8,69,9999,9999,9999,972320844
235,22,Ticks_Phase_8,70,9999,9999,9999,973120584
235,22,Ticks_Phase_8,71,9999,9999,9999,973920360
235,22,Ticks_Phase_8,72,9999,9999,9999,974720080
235,22,Ticks_Phase_8,73,9999,9999,9999,975520836
235,22,Ticks_Phase_8,74,9999,9999,9999,976320624
235,22,Ticks_Phase_8,75,9999,9999,9999,977120328
235,22,Ticks_Phase_8,76,9999,9999,9999,977920116
235,22,Ticks_Phase_8,77,9999,9999,9999,978720872
235,22,Ticks_Phase_8,78,9999,9999,9999,979520608
235,22,Ticks_Phase_8,79,9999,9999,9999,980320320
235,22,Ticks_Phase_8,80,9999,9999,9999,981120116
235,22,Ticks_Phase_8,81,9999,9999,9999,981880956
235,22,Ticks_Phase_8,82,9999,9999,9999,982680664
235,22,Ticks_Phase_8,83,9999,9999,9999,983480376
235,22,Ticks_Phase_8,84,9999,9999,9999,984280148
235,22,Ticks_Phase_8,85,9999,9999,9999,985080908
235,22,Ticks_Phase_8,86,9999,9999,9999,985880632
235,22,Ticks_Phase_8,87,9999,9999,9999,986680444
235,22,Ticks_Phase_8,88,9999,9999,9999,987480156
235,22,Ticks_Phase_8,89,9999,9999,9999,988280912
235,22,Ticks_Phase_8,90,9999,9999,9999,989080700
235,22,Ticks_Phase_8,91,9999,9999,9999,989880416
235,22,Ticks_Phase_8,92,9999,9999,9999,990680128
235,22,Ticks_Phase_8,93,9999,9999,9999,991480952
235,22,Ticks_Phase_8,94,9999,9999,9999,992280664
235,22,Ticks_Phase_8,95,9999,9999,9999,993080408
235,22,Ticks_Phase_8,96,9999,9999,9999,993880120
235,22,Ticks_Phase_8,97,9999,9999,9999,994601052
235,22,Ticks_Phase_8,98,9999,9999,9999,995400756
235,22,Ticks_Phase_8,99,9999,9999,9999,996200544
235,22,Ticks_Phase_8,100,9999,9999,9999,997000316
235,22,Ticks_Phase_8,101,9999,9999,9999,997801016
235,22,Ticks_Phase_8,102,9999,9999,9999,998600804
235,22,Ticks_Phase_8,103,9999,9999,9999,999400516
235,22,Ticks_Phase_8,104,9999,9999,9999,1000200300
235,22,Ticks_Phase_8,105,9999,9999,9999,1001001016
235,22,Ticks_Phase_8,106,9999,9999,9999,1001800796
235,22,Ticks_Phase_8,107,9999,9999,9999,1002600512
235,22,Ticks_Phase_8,108,9999,9999,9999,1003400300
235,22,Ticks_Phase_8,109,9999,9999,9999,1004201060
235,22,Ticks_Phase_8,110,9999,9999,9999,1005000772
235,22,Ticks_Phase_8,111,9999,9999,9999,1005800552
235,22,Ticks_Phase_8,112,9999,9999,9999,1006600264
235,22,Ticks_Phase_8,113,9999,9999,9999,1007401044
235,22,Ticks_Phase_8,114,9999,9999,9999,1008280648
235,22,Ticks_Phase_8,115,9999,9999,9999,1009080384
235,22,Ticks_Phase_8,116,9999,9999,9999,1009880164
235,22,Ticks_Phase_8,117,9999,9999,9999,1010680924
235,22,Ticks_Phase_8,118,9999,9999,9999,1011480640
235,22,Ticks_Phase_8,119,9999,9999,9999,1012280380
235,22,Ticks_Phase_8,120,9999,9999,9999,1013080164
235,22,Ticks_Phase_8,121,9999,9999,9999,1013880920
235,22,Ticks_Phase_8,122,9999,9999,9999,1014680632
235,22,Ticks_Phase_8,123,9999,9999,9999,1015480420
235,22,Ticks_Phase_8,124,9999,9999,9999,1016280132
235,22,Ticks_Phase_8,125,9999,9999,9999,1017080900
235,22,Ticks_Phase_8,126,9999,9999,9999,1017880684
235,22,Ticks_Phase_8,127,9999,9999,9999,1018680412
235,22,Ticks_Phase_8,128,9999,9999,9999,1019480124
235,22,Ticks_Phase_8,129,9999,9999,9999,1020280956
235,22,Ticks_Phase_8,130,9999,9999,9999,1021080672
235,22,Ticks_Phase_8,131,9999,9999,9999,1022040128
235,22,Ticks_Phase_8,132,9999,9999,9999,1022840908
235,22,Ticks_Phase_8,133,9999,9999,9999,1023640696
235,22,Ticks_Phase_8,134,9999,9999,9999,1024440408
235,22,Ticks_Phase_8,135,9999,9999,9999,1025240140
235,22,Ticks_Phase_8,136,9999,9999,9999,1026040900
235,22,Ticks_Phase_8,137,9999,9999,9999,1026840684
235,22,Ticks_Phase_8,138,9999,9999,9999,1027640424
235,22,Ticks_Phase_8,139,9999,9999,9999,1028440136
235,22,Ticks_Phase_8,140,9999,9999,9999,1029240888
235,22,Ticks_Phase_8,141,9999,9999,9999,1030040676
235,22,Ticks_Phase_8,142,9999,9999,9999,1030840388
235,22,Ticks_Phase_8,143,9999,9999,9999,1031640180
235,22,Ticks_Phase_8,144,9999,9999,9999,1032440936
235,22,Ticks_Phase_8,145,9999,9999,9999,1033240652
235,22,Ticks_Phase_8,146,9999,9999,9999,1034040380
235,22,Ticks_Phase_8,147,9999,9999,9999,1034840172
235,22,Ticks_Phase_8,148,9999,9999,9999,1035640928
235,22,Ticks_Phase_8,149,9999,9999,9999,1036440644
235,22,Ticks_Phase_8,150,9999,9999,9999,1037080672
235,22,Ticks_Phase_8,151,9999,9999,9999,1037880388
235,22,Ticks_Phase_8,152,9999,9999,9999,1038680172
235,22,Ticks_Phase_8,153,9999,9999,9999,1039480928
235,22,Ticks_Phase_8,154,9999,9999,9999,1040280640
235,22,Ticks_Phase_8,155,9999,9999,9999,1041080424
235,22,Ticks_Phase_8,156,9999,9999,9999,1041880120
235,22,Ticks_Phase_8,157,9999,9999,9999,1042680892
235,22,Ticks_Phase_8,158,9999,9999,9999,1043480684
235,22,Ticks_Phase_8,159,9999,9999,9999,1044280416
235,22,Ticks_Phase_8,160,9999,9999,9999,1045080128
235,22,Ticks_Phase_8,161,9999,9999,9999,1045880960
235,22,Ticks_Phase_8,162,9999,9999,9999,1046680672
235,22,Ticks_Phase_8,163,9999,9999,9999,1047480388
235,22,Ticks_Phase_8,164,9999,9999,9999,1048280168
235,22,Ticks_Phase_8,165,9999,9999,9999,1049080932
235,22,Ticks_Phase_8,166,9999,9999,9999,1049880644
235,22,Ticks_Phase_8,167,9999,9999,9999,1050680372
235,22,Ticks_Phase_8,168,9999,9999,9999,1051480160
235,22,Ticks_Phase_8,169,9999,9999,9999,1052280924
236,23,Ticks_Phase_5,0,5,42,127,1066287448
236,23,Ticks_Phase_5,1,1,48,47,1066604960
236,23,Ticks_Phase_5,2,5,42,127,1066788108
236,23,Ticks_Phase_5,3,1,48,37,1067022772
236,23,Ticks_Phase_5,4,5,42,127,1067288064
236,23,Ticks_Phase_5,5,1,48,13,1067581348
236,23,Ticks_Phase_5,6,5,42,127,1067787532
236,23,Ticks_Phase_5,7,1,48,31,1068089504
236,23,Ticks_Phase_5,8,5,42,127,1068288340
236,23,Ticks_Phase_5,9,1,48,29,1068628060
236,23,Ticks_Phase_5,10,5,42,127,1068788032
236,23,Ticks_Phase_5,11,1,48,24,1069263960
236,23,Ticks_Phase_5,12,5,42,127,1069287884
236,23,Ticks_Phase_5,13,1,48,28,1069747556
236,23,Ticks_Phase_5,14,5,42,127,1069787496
236,23,Ticks_Phase_5,15,1,48,35,1070251208
236,23,Ticks_Phase_5,16,5,42,127,1070288156
236,23,Ticks_Phase_5,17,1,48,41,1070747680
236,23,Ticks_Phase_5,18,5,42,127,1070787920
236,23,Ticks_Phase_5,19,1,48,36,1071266160
236,23,Ticks_Phase_5,20,5,42,127,1071287756
236,23,Ticks_Phase_5,21,1,48,31,1071785012
236,23,Ticks_Phase_5,22,5,42,127,1071788340
236,23,Ticks_Phase_5,23,1,48,31,1072287280
236,23,Ticks_Phase_5,24,5,42,127,1072289076
236,23,Ticks_Phase_5,25,1,48,26,1072777128
236,23,Ticks_Phase_5,26,5,42,127,1072787792
236,23,Ticks_Phase_5,27,1,48,35,1073280632
236,23,Ticks_Phase_5,28,5,42,127,1073287776
236,23,Ticks_Phase_5,29,5,42,127,1073788220
236,23,Ticks_Phase_5,30,1,48,33,1073796364
236,23,Ticks_Phase_5,31,1,48,41,1074281128
236,23,Ticks_Phase_5,32,5,42,127,1074288052
236,23,Ticks_Phase_5,33,5,42,127,1074787600
236,23,Ticks_Phase_5,34,1,48,29,1074822912
236,23,Ticks_Phase_5,35,5,42,127,1075288632
236,23,Ticks_Phase_5,36,1,48,37,1075306960
236,23,Ticks_Phase_5,37,1,48,38,1075783560
236,23,Ticks_Phase_5,38,5,42,127,1075798496
236,23,Ticks_Phase_5,39,5,42,127,1076297968
236,23,Ticks_Phase_5,40,1,48,41,1076300708
236,23,Ticks_Phase_5,41,5,42,127,1076797732
236,23,Ticks_Phase_5,42,1,48,36,1076806696
236,23,Ticks_Phase_5,43,1,48,40,1077296668
236,23,Ticks_Phase_5,44,5,42,127,1077298536
236,23,Ticks_Phase_5,45,5,42,127,1077798528
236,23,Ticks_Phase_5,46,1,48,42,1077809736
236,23,Ticks_Phase_5,47,5,42,127,1078297892
236,23,Ticks_Phase_5,48,1,48,35,1078324020
236,23,Ticks_Phase_5,49,1,48,43,1078797432
236,23,Ticks_Phase_5,50,5,42,127,1078798992
236,23,Ticks_Phase_5,51,1,48,42,1079293260
236,23,Ticks_Phase_5,52,5,42,127,1079298460
236,23,Ticks_Phase_5,53,1,48,40,1079799992
236,23,Ticks_Phase_5,54,5,42,127,1079808404
236,23,Ticks_Phase_5,55,5,42,127,1080307952
236,23,Ticks_Phase_5,56,1,48,36,1080342744
236,23,Ticks_Phase_5,57,1,48,40,1080795624
236,23,Ticks_Phase_5,58,5,42,127,1080807784
236,23,Ticks_Phase_5,59,5,42,127,1081298564
236,23,Ticks_Phase_5,60,1,48,41,1081312164
236,23,Ticks_Phase_5,61,5,42,127,1081798028
236,23,Ticks_Phase_5,62,1,48,44,1081820248
236,23,Ticks_Phase_5,63,5,42,127,1082297568
236,23,Ticks_Phase_5,64,1,48,43,1082306452
236,23,Ticks_Phase_5,65,1,48,39,1082796276
236,23,Ticks_Phase_5,66,5,42,127,1082798148
236,23,Ticks_Phase_5,67,1,48,43,1083278560
236,23,Ticks_Phase_5,68,5,42,127,1083298280
236,23,Ticks_Phase_5,69,1,48,34,1083790000
236,23,Ticks_Phase_5,70,5,42,127,1083797972
236,23,Ticks_Phase_5,71,1,48,31,1084281076
236,23,Ticks_Phase_5,72,5,42,127,1084297584
236,23,Ticks_Phase_5,73,1,48,45,1084798252
236,23,Ticks_Phase_5,74,5,42,127,1084799884
236,23,Ticks_Phase_5,75,5,42,127,1085298164
236,23,Ticks_Phase_5,76,1,48,39,1085302552
236,23,Ticks_Phase_5,77,1,48,48,1085761716
236,23,Ticks_Phase_5,78,5,42,127,1085797696
236,23,Ticks_Phase_5,79,5,42,127,1086297540
236,23,Ticks_Phase_5,80,1,48,38,1086309196
236,23,Ticks_Phase_5,81,1,48,47,1086774792
236,23,Ticks_Phase_5,82,5,42,127,1086798120
236,23,Ticks_Phase_5,83,1,48,42,1087282272
236,23,Ticks_Phase_5,84,5,42,127,1087298104
236,23,Ticks_Phase_5,85,1,48,40,1087780240
236,23,Ticks_Phase_5,86,5,42,127,1087797496
236,23,Ticks_Phase_5,87,1,48,29,1088280348
236,23,Ticks_Phase_5,88,5,42,127,1088298304
236,23,Ticks_Phase_5,89,1,48,31,1088790444
236,23,Ticks_Phase_5,90,5,42,127,1088798212
236,23,Ticks_Phase_5,91,5,42,127,1089297808
236,23,Ticks_Phase_5,92,1,48,33,1089304068
236,23,Ticks_Phase_5,93,1,48,32,1089768252
236,23,Ticks_Phase_5,94,5,42,127,1089797564
236,23,Ticks_Phase_5,95,1,48,29,1090285772
236,23,Ticks_Phase_5,96,5,42,127,1090307512
236,23,Ticks_Phase_5,97,1,48,36,1090776100
236,23,Ticks_Phase_5,98,5,42,127,1090808176
236,23,Ticks_Phase_5,99,1,48,33,1091298172
236,23,Ticks_Phase_5,100,5,42,127,1091308084
236,23,Ticks_Phase_5,101,5,42,127,1091807484
236,23,Ticks_Phase_5,102,1,48,21,1091812020
236,23,Ticks_Phase_5,103,1,48,32,1092282336
236,23,Ticks_Phase_5,104,5,42,127,1092308284
236,23,Ticks_Phase_5,105,1,48,26,1092789220
236,23,Ticks_Phase_5,106,5,42,127,1092807976
236,23,Ticks_Phase_5,107,1,48,29,1093282316
236,23,Ticks_Phase_5,108,5,42,127,1093307960
236,23,Ticks_Phase_5,109,5,42,127,1093807580
236,23,Ticks_Phase_5,110,1,48,30,1094270188
236,23,Ticks_Phase_5,111,5,42,127,1094308184
236,23,Ticks_Phase_5,112,1,48,23,1094795176
236,23,Ticks_Phase_5,113,5,42,127,1094807872
236,23,Ticks_Phase_5,114,1,48,30,1095295760
236,23,Ticks_Phase_5,115,5,42,127,1095307708
236,23,Ticks_Phase_5,116,1,48,30,1095776140
236,23,Ticks_Phase_5,117,5,42,127,1095808220
236,23,Ticks_Phase_5,118,5,42,127,1096308212
236,23,Ticks_Phase_5,119,1,48,34,1096319200
236,23,Ticks_Phase_5,120,1,48,31,1096784268
236,23,Ticks_Phase_5,121,5,42,127,1096807744
236,23,Ticks_Phase_5,122,5,42,127,1097307664
236,23,Ticks_Phase_5,123,1,48,28,1097315508
236,23,Ticks_Phase_5,124,5,42,127,1097808176
236,23,Ticks_Phase_5,125,1,48,38,1097819904
236,23,Ticks_Phase_5,126,1,48,40,1098299064
236,23,Ticks_Phase_5,127,5,42,127,1098328524
236,23,Ticks_Phase_5,128,1,48,38,1098807744
236,23,Ticks_Phase_5,129,5,42,127,1098838324
236,23,Ticks_Phase_5,130,1,48,29,1099326608
236,23,Ticks_Phase_5,131,5,42,127,1099338012
236,23,Ticks_Phase_5,132,1,48,36,1099794128
236,23,Ticks_Phase_5,133,5,42,127,1099837848
236,23,Ticks_Phase_5,134,1,48,36,1100297792
236,23,Ticks_Phase_5,135,5,42,127,1100337536
236,23,Ticks_Phase_5,136,1,48,39,1100814548
236,23,Ticks_Phase_5,137,5,42,127,1100838272
236,23,Ticks_Phase_5,138,1,48,38,1101327872
236,23,Ticks_Phase_5,139,5,42,127,1101338008
236,23,Ticks_Phase_5,140,1,48,33,1101837604
236,23,Ticks_Phase_5,141,5,42,127,1101839240
236,23,Ticks_Phase_5,142,5,42,127,1102338412
236,23,Ticks_Phase_5,143,1,48,35,1102342128
236,23,Ticks_Phase_5,144,1,48,33,1102824656
236,23,Ticks_Phase_5,145,5,42,127,1102848652
236,23,Ticks_Phase_5,146,1,48,38,1103320752
236,23,Ticks_Phase_5,147,5,42,127,1103347968
236,23,Ticks_Phase_5,148,5,42,127,1103847736
236,23,Ticks_Phase_5,149,1,48,42,1103852124
236,23,Ticks_Phase_5,150,5,42,127,1104347500
236,23,Ticks_Phase_5,151,1,48,43,1104368592
236,23,Ticks_Phase_5,152,1,48,42,1104840860
236,23,Ticks_Phase_5,153,5,42,127,1104848304
236,23,Ticks_Phase_5,154,1,48,38,1105316364
236,23,Ticks_Phase_5,155,5,42,127,1105348068
236,23,Ticks_Phase_5,156,1,48,36,1105774328
236,23,Ticks_Phase_5,157,5,42,127,1105847604
236,23,Ticks_Phase_5,158,5,42,127,1106348348
236,23,Ticks_Phase_5,159,1,48,39,1106416100
236,23,Ticks_Phase_5,160,5,42,127,1106827744
236,23,Ticks_Phase_5,161,1,48,30,1106893088
236,23,Ticks_Phase_5,162,5,42,127,1107328328
236,23,Ticks_Phase_5,163,1,48,37,1107380720
236,23,Ticks_Phase_5,164,5,42,127,1107828240
236,23,Ticks_Phase_5,165,1,48,39,1107855704
236,23,Ticks_Phase_5,166,5,42,127,1108327704
236,23,Ticks_Phase_5,167,1,48,44,1108337716
236,23,Ticks_Phase_5,168,1,48,32,1108816420
236,23,Ticks_Phase_5,169,5,42,127,1108827384
236,23,Ticks_Phase_5,170,1,48,43,1109316184
236,23,Ticks_Phase_5,171,5,42,127,1109328120
236,23,Ticks_Phase_5,172,5,42,127,1109828036
236,23,Ticks_Phase_5,173,1,48,42,1109837672
236,23,Ticks_Phase_5,174,5,42,127,1110327576
236,23,Ticks_Phase_5,175,1,48,31,1110345288
236,23,Ticks_Phase_5,176,1,48,39,1110818844
236,23,Ticks_Phase_5,177,5,42,127,1110828380
236,23,Ticks_Phase_5,178,1,48,45,1111321340
236,23,Ticks_Phase_5,179,5,42,127,1111328140
236,23,Ticks_Phase_5,180,1,48,39,1111818936
236,23,Ticks_Phase_5,181,5,42,127,1111827952
236,23,Ticks_Phase_5,182,1,48,30,1112327424
236,23,Ticks_Phase_5,183,5,42,127,1112329136
236,23,Ticks_Phase_5,184,5,42,127,1112828460
236,23,Ticks_Phase_5,185,1,48,32,1112834196
236,23,Ticks_Phase_5,186,5,42,127,1113328076
236,23,Ticks_Phase_5,187,1,48,33,1113344892
236,23,Ticks_Phase_5,188,1,48,36,1113811400
236,23,Ticks_Phase_5,189,5,42,127,1113827904
236,23,Ticks_Phase_5,190,5,42,127,1114328500
236,23,Ticks_Phase_5,191,1,48,27,1114345464
236,23,Ticks_Phase_5,192,5,42,127,1114788128
236,23,Ticks_Phase_5,193,1,48,31,1114825236
236,23,Ticks_Phase_5,194,1,48,38,1115271376
236,23,Ticks_Phase_5,195,5,42,127,1115287880
236,23,Ticks_Phase_5,196,1,48,29,1115748380
236,23,Ticks_Phase_5,197,5,42,127,1115787792
236,23,Ticks_Phase_5,198,1,48,36,1116269628
236,23,Ticks_Phase_5,199,5,42,127,1116288304
236,23,Ticks_Phase_5,200,1,48,27,1116754036
236,23,Ticks_Phase_5,201,5,42,127,1116788068
236,23,Ticks_Phase_5,202,1,48,37,1117278368
236,23,Ticks_Phase_5,203,5,42,127,1117287980
236,23,Ticks_Phase_5,204,1,48,32,1117768920
236,23,Ticks_Phase_5,205,5,42,127,1117787596
236,23,Ticks_Phase_5,206,5,42,127,1118288188
236,23,Ticks_Phase_5,207,1,48,19,1118307784
236,23,Ticks_Phase_5,208,1,48,32,1118760356
236,23,Ticks_Phase_5,209,5,42,127,1118788092
236,23,Ticks_Phase_5,210,1,48,42,1119265724
236,23,Ticks_Phase_5,211,5,42,127,1119287632
236,23,Ticks_Phase_5,212,1,48,32,1119766976
236,23,Ticks_Phase_5,213,5,42,127,1119788516
236,23,Ticks_Phase_5,214,1,48,35,1120263360
236,23,Ticks_Phase_5,215,5,42,127,1120287980
236,23,Ticks_Phase_5,216,1,48,25,1120769936
236,23,Ticks_Phase_5,217,5,42,127,1120788016
236,23,Ticks_Phase_5,218,1,48,36,1121264976
236,23,Ticks_Phase_5,219,5,42,127,1121287556
236,23,Ticks_Phase_5,220,1,48,27,1121766996
236,23,Ticks_Phase_5,221,5,42,127,1121788292
236,23,Ticks_Phase_5,222,5,42,127,1122288060
236,23,Ticks_Phase_5,223,1,48,16,1122304132
236,23,Ticks_Phase_5,224,1,48,27,1122765836
236,23,Ticks_Phase_5,225,5,42,127,1122787668
236,23,Ticks_Phase_5,226,1,48,32,1123257748
236,23,Ticks_Phase_5,227,5,42,127,1123337680
236,23,Ticks_Phase_5,228,5,42,127,1123838348
236,23,Ticks_Phase_5,229,1,48,38,1124057400
236,23,Ticks_Phase_5,230,5,42,127,1124337960
236,23,Ticks_Phase_5,231,1,48,22,1124599172
236,23,Ticks_Phase_5,232,5,42,127,1124837800
236,23,Ticks_Phase_5,233,1,48,23,1125110840
236,23,Ticks_Phase_5,234,5,42,127,1125337412
236,23,Ticks_Phase_5,235,5,42,127,1125838320
236,23,Ticks_Phase_5,236,1,48,24,1125970196
236,23,Ticks_Phase_5,237,5,42,127,1126337932
236,23,Ticks_Phase_5,238,1,48,21,1126422448
236,23,Ticks_Phase_5,239,5,42,127,1126837548
236,23,Ticks_Phase_5,240,1,48,29,1126861704
236,23,Ticks_Phase_5,241,1,48,33,1127332768
236,23,Ticks_Phase_5,242,5,42,127,1127338420
236,23,Ticks_Phase_5,243,5,42,127,1127838264
236,23,Ticks_Phase_5,244,1,48,36,1127844976
236,23,Ticks_Phase_5,245,5,42,127,1128337728
236,23,Ticks_Phase_5,246,1,48,32,1128353348
236,23,Ticks_Phase_5,247,5,42,127,1128837420
236,23,Ticks_Phase_5,248,1,48,30,1128848704
236,23,Ticks_Phase_5,249,1,48,39,1129331672
236,23,Ticks_Phase_5,250,5,42,127,1129338220
236,23,Ticks_Phase_5,251,5,42,127,1129837840
236,23,Ticks_Phase_5,252,1,48,29,1129851588
236,23,Ticks_Phase_5,253,5,42,127,1130337528
236,23,Ticks_Phase_5,254,1,48,28,1130353900
236,23,Ticks_Phase_5,255,5,42,127,1130838340
236,23,Ticks_Phase_5,256,1,48,26,1130853208
236,23,Ticks_Phase_5,257,5,42,127,1131338252
236,23,Ticks_Phase_5,258,1,48,27,1131342192
236,23,Ticks_Phase_5,259,1,48,27,1131842316
236,23,Ticks_Phase_5,260,5,42,127,1131938284
236,23,Ticks_Phase_5,261,5,42,127,1132437828
236,23,Ticks_Phase_5,262,1,48,37,1132649912
236,23,Ticks_Phase_5,263,5,42,127,1132937444
236,23,Ticks_Phase_5,264,5,42,127,1133438200
236,23,Ticks_Phase_5,265,5,42,127,1133938208
236,23,Ticks_Phase_5,266,1,48,30,1133939172
236,23,Ticks_Phase_5,267,1,48,28,1134405052
236,23,Ticks_Phase_5,268,5,42,127,1134437740
236,23,Ticks_Phase_5,269,5,42,127,1134937436
236,23,Ticks_Phase_5,270,1,48,38,1135015508
236,23,Ticks_Phase_5,271,5,42,127,1135438096
236,23,Ticks_Phase_5,272,1,48,29,1135484048
236,23,Ticks_Phase_5,273,5,42,127,1135937936
236,23,Ticks_Phase_5,274,1,48,32,1135966968
236,23,Ticks_Phase_5,275,1,48,40,1136433012
236,23,Ticks_Phase_5,276,5,42,127,1136437768
236,23,Ticks_Phase_5,277,1,48,41,1136932772
236,23,Ticks_Phase_5,278,5,42,127,1136938500
236,23,Ticks_Phase_5,279,1,48,40,1137414168
236,23,Ticks_Phase_5,280,5,42,127,1137438112
236,23,Ticks_Phase_5,281,1,48,38,1137924412
236,23,Ticks_Phase_5,282,5,42,127,1137937924
236,23,Ticks_Phase_5,283,1,48,30,1138431964
236,23,Ticks_Phase_5,284,5,42,127,1138437392
236,23,Ticks_Phase_5,285,1,48,44,1138895032
236,23,Ticks_Phase_5,286,5,42,127,1138938128
236,23,Ticks_Phase_5,287,1,48,43,1139423252
236,23,Ticks_Phase_5,288,5,42,127,1139437888
236,23,Ticks_Phase_5,289,5,42,127,1139937808
236,23,Ticks_Phase_5,290,1,48,37,1139951036
236,23,Ticks_Phase_5,291,1,48,39,1140395304
236,23,Ticks_Phase_5,292,5,42,127,1140438316
236,23,Ticks_Phase_5,293,1,48,42,1140924112
236,23,Ticks_Phase_5,294,5,42,127,1140938076
236,23,Ticks_Phase_5,295,5,42,127,1141337424
236,23,Ticks_Phase_5,296,1,48,36,1141415496
236,23,Ticks_Phase_5,297,5,42,127,1141838084
236,23,Ticks_Phase_5,298,1,48,24,1142043268
236,23,Ticks_Phase_5,299,5,42,127,1142337848
236,23,Ticks_Phase_5,300,1,48,15,1142339712
236,23,Ticks_Phase_5,301,1,48,29,1142771724
236,23,Ticks_Phase_5,302,5,42,127,1142837604
236,23,Ticks_Phase_5,303,1,48,38,1143288632
236,23,Ticks_Phase_5,304,5,42,127,1143338336
236,23,Ticks_Phase_5,305,1,48,38,1143791988
236,23,Ticks_Phase_5,306,5,42,127,1143837952
236,23,Ticks_Phase_5,307,1,48,38,1144290776
236,23,Ticks_Phase_5,308,5,42,127,1144337688
236,23,Ticks_Phase_5,309,1,48,42,1144795416
236,23,Ticks_Phase_5,310,5,42,127,1144837748
236,23,Ticks_Phase_5,311,1,48,39,1145320560
236,23,Ticks_Phase_5,312,5,42,127,1145338408
236,23,Ticks_Phase_5,313,1,48,41,1145796060
236,23,Ticks_Phase_5,314,5,42,127,1145837948
236,23,Ticks_Phase_5,315,1,48,40,1146307504
236,23,Ticks_Phase_5,316,5,42,127,1146337564
236,23,Ticks_Phase_5,317,1,48,33,1146813100
236,23,Ticks_Phase_5,318,5,42,127,1146838668
236,23,Ticks_Phase_5,319,1,48,35,1147330616
236,23,Ticks_Phase_5,320,5,42,127,1147337984
236,23,Ticks_Phase_5,321,1,48,33,1147810160
236,23,Ticks_Phase_5,322,5,42,127,1147837748
236,23,Ticks_Phase_5,323,5,42,127,1148337664
236,23,Ticks_Phase_5,324,1,48,19,1148345044
236,23,Ticks_Phase_5,325,1,48,24,1148810952
236,23,Ticks_Phase_5,326,5,42,127,1148838320
236,23,Ticks_Phase_5,327,1,48,33,1149317464
236,23,Ticks_Phase_5,328,5,42,127,1149338380
236,23,Ticks_Phase_5,329,1,48,32,1149825612
236,23,Ticks_Phase_5,330,5,42,127,1149837548
236,23,Ticks_Phase_5,331,1,48,36,1150327472
236,23,Ticks_Phase_5,332,5,42,127,1150338656
236,23,Ticks_Phase_5,333,1,48,38,1150847560
236,23,Ticks_Phase_5,334,5,42,127,1150849280
236,23,Ticks_Phase_5,0,9999,9999,9999,1066285156
236,23,Ticks_Phase_5,1,9999,9999,9999,1066785892
236,23,Ticks_Phase_5,2,9999,9999,9999,1067285628
236,23,Ticks_Phase_5,3,9999,9999,9999,1067785316
236,23,Ticks_Phase_5,4,9999,9999,9999,1068286052
236,23,Ticks_Phase_5,5,9999,9999,9999,1068785740
236,23,Ticks_Phase_5,6,9999,9999,9999,1069285444
236,23,Ticks_Phase_5,7,9999,9999,9999,1069785208
236,23,Ticks_Phase_5,8,9999,9999,9999,1070285940
236,23,Ticks_Phase_5,9,9999,9999,9999,1070785628
236,23,Ticks_Phase_5,10,9999,9999,9999,1071285316
236,23,Ticks_Phase_5,11,9999,9999,9999,1071786052
236,23,Ticks_Phase_5,12,9999,9999,9999,1072285820
236,23,Ticks_Phase_5,13,9999,9999,9999,1072785504
236,23,Ticks_Phase_5,14,9999,9999,9999,1073285192
236,23,Ticks_Phase_5,15,9999,9999,9999,1073785932
236,23,Ticks_Phase_5,16,9999,9999,9999,1074285688
236,23,Ticks_Phase_5,17,9999,9999,9999,1074785384
236,23,Ticks_Phase_5,18,9999,9999,9999,1075286120
236,23,Ticks_Phase_5,19,9999,9999,9999,1075796060
236,23,Ticks_Phase_5,20,9999,9999,9999,1076295752
236,23,Ticks_Phase_5,21,9999,9999,9999,1076795516
236,23,Ticks_Phase_5,22,9999,9999,9999,1077295208
236,23,Ticks_Phase_5,23,9999,9999,9999,1077795940
236,23,Ticks_Phase_5,24,9999,9999,9999,1078295680
236,23,Ticks_Phase_5,25,9999,9999,9999,1078795368
236,23,Ticks_Phase_5,26,9999,9999,9999,1079296096
236,23,Ticks_Phase_5,27,9999,9999,9999,1079806044
236,23,Ticks_Phase_5,28,9999,9999,9999,1080305736
236,23,Ticks_Phase_5,29,9999,9999,9999,1080805492
236,23,Ticks_Phase_5,30,9999,9999,9999,1081295980
236,23,Ticks_Phase_5,31,9999,9999,9999,1081795664
236,23,Ticks_Phase_5,32,9999,9999,9999,1082295352
236,23,Ticks_Phase_5,33,9999,9999,9999,1082795116
236,23,Ticks_Phase_5,34,9999,9999,9999,1083295844
236,23,Ticks_Phase_5,35,9999,9999,9999,1083795532
236,23,Ticks_Phase_5,36,9999,9999,9999,1084295292
236,23,Ticks_Phase_5,37,9999,9999,9999,1084795960
236,23,Ticks_Phase_5,38,9999,9999,9999,1085295724
236,23,Ticks_Phase_5,39,9999,9999,9999,1085795404
236,23,Ticks_Phase_5,40,9999,9999,9999,1086295100
236,23,Ticks_Phase_5,41,9999,9999,9999,1086795828
236,23,Ticks_Phase_5,42,9999,9999,9999,1087295592
236,23,Ticks_Phase_5,43,9999,9999,9999,1087795280
236,23,Ticks_Phase_5,44,9999,9999,9999,1088296012
236,23,Ticks_Phase_5,45,9999,9999,9999,1088795752
236,23,Ticks_Phase_5,46,9999,9999,9999,1089295444
236,23,Ticks_Phase_5,47,9999,9999,9999,1089795128
236,23,Ticks_Phase_5,48,9999,9999,9999,1090305148
236,23,Ticks_Phase_5,49,9999,9999,9999,1090805884
236,23,Ticks_Phase_5,50,9999,9999,9999,1091305572
236,23,Ticks_Phase_5,51,9999,9999,9999,1091805268
236,23,Ticks_Phase_5,52,9999,9999,9999,1092305996
236,23,Ticks_Phase_5,53,9999,9999,9999,1092805684
236,23,Ticks_Phase_5,54,9999,9999,9999,1093305448
236,23,Ticks_Phase_5,55,9999,9999,9999,1093805140
236,23,Ticks_Phase_5,56,9999,9999,9999,1094305896
236,23,Ticks_Phase_5,57,9999,9999,9999,1094805584
236,23,Ticks_Phase_5,58,9999,9999,9999,1095305272
236,23,Ticks_Phase_5,59,9999,9999,9999,1095806004
236,23,Ticks_Phase_5,60,9999,9999,9999,1096305772
236,23,Ticks_Phase_5,61,9999,9999,9999,1096805456
236,23,Ticks_Phase_5,62,9999,9999,9999,1097305152
236,23,Ticks_Phase_5,63,9999,9999,9999,1097805884
236,23,Ticks_Phase_5,64,9999,9999,9999,1098326088
236,23,Ticks_Phase_5,65,9999,9999,9999,1098836036
236,23,Ticks_Phase_5,66,9999,9999,9999,1099335796
236,23,Ticks_Phase_5,67,9999,9999,9999,1099835484
236,23,Ticks_Phase_5,68,9999,9999,9999,1100335172
236,23,Ticks_Phase_5,69,9999,9999,9999,1100835908
236,23,Ticks_Phase_5,70,9999,9999,9999,1101335644
236,23,Ticks_Phase_5,71,9999,9999,9999,1101835388
236,23,Ticks_Phase_5,72,9999,9999,9999,1102336128
236,23,Ticks_Phase_5,73,9999,9999,9999,1102846064
236,23,Ticks_Phase_5,74,9999,9999,9999,1103345752
236,23,Ticks_Phase_5,75,9999,9999,9999,1103845448
236,23,Ticks_Phase_5,76,9999,9999,9999,1104345208
236,23,Ticks_Phase_5,77,9999,9999,9999,1104845940
236,23,Ticks_Phase_5,78,9999,9999,9999,1105345628
236,23,Ticks_Phase_5,79,9999,9999,9999,1105845316
236,23,Ticks_Phase_5,80,9999,9999,9999,1106346060
236,23,Ticks_Phase_5,81,9999,9999,9999,1106825304
236,23,Ticks_Phase_5,82,9999,9999,9999,1107326036
236,23,Ticks_Phase_5,83,9999,9999,9999,1107825728
236,23,Ticks_Phase_5,84,9999,9999,9999,1108325488
236,23,Ticks_Phase_5,85,9999,9999,9999,1108825168
236,23,Ticks_Phase_5,86,9999,9999,9999,1109325904
236,23,Ticks_Phase_5,87,9999,9999,9999,1109825596
236,23,Ticks_Phase_5,88,9999,9999,9999,1110325360
236,23,Ticks_Phase_5,89,9999,9999,9999,1110826088
236,23,Ticks_Phase_5,90,9999,9999,9999,1111325776
236,23,Ticks_Phase_5,91,9999,9999,9999,1111825516
236,23,Ticks_Phase_5,92,9999,9999,9999,1112325208
236,23,Ticks_Phase_5,93,9999,9999,9999,1112825944
236,23,Ticks_Phase_5,94,9999,9999,9999,1113325636
236,23,Ticks_Phase_5,95,9999,9999,9999,1113825392
236,23,Ticks_Phase_5,96,9999,9999,9999,1114326140
236,23,Ticks_Phase_5,97,9999,9999,9999,1114785912
236,23,Ticks_Phase_5,98,9999,9999,9999,1115285592
236,23,Ticks_Phase_5,99,9999,9999,9999,1115785280
236,23,Ticks_Phase_5,100,9999,9999,9999,1116286016
236,23,Ticks_Phase_5,101,9999,9999,9999,1116785776
236,23,Ticks_Phase_5,102,9999,9999,9999,1117285468
236,23,Ticks_Phase_5,103,9999,9999,9999,1117785156
236,23,Ticks_Phase_5,104,9999,9999,9999,1118285896
236,23,Ticks_Phase_5,105,9999,9999,9999,1118785656
236,23,Ticks_Phase_5,106,9999,9999,9999,1119285344
236,23,Ticks_Phase_5,107,9999,9999,9999,1119786080
236,23,Ticks_Phase_5,108,9999,9999,9999,1120285768
236,23,Ticks_Phase_5,109,9999,9999,9999,1120785504
236,23,Ticks_Phase_5,110,9999,9999,9999,1121285192
236,23,Ticks_Phase_5,111,9999,9999,9999,1121785928
236,23,Ticks_Phase_5,112,9999,9999,9999,1122285624
236,23,Ticks_Phase_5,113,9999,9999,9999,1122785380
236,23,Ticks_Phase_5,114,9999,9999,9999,1123335240
236,23,Ticks_Phase_5,115,9999,9999,9999,1123835984
236,23,Ticks_Phase_5,116,9999,9999,9999,1124335672
236,23,Ticks_Phase_5,117,9999,9999,9999,1124835436
236,23,Ticks_Phase_5,118,9999,9999,9999,1125335124
236,23,Ticks_Phase_5,119,9999,9999,9999,1125835880
236,23,Ticks_Phase_5,120,9999,9999,9999,1126335568
236,23,Ticks_Phase_5,121,9999,9999,9999,1126835256
236,23,Ticks_Phase_5,122,9999,9999,9999,1127336060
236,23,Ticks_Phase_5,123,9999,9999,9999,1127835752
236,23,Ticks_Phase_5,124,9999,9999,9999,1128335440
236,23,Ticks_Phase_5,125,9999,9999,9999,1128835128
236,23,Ticks_Phase_5,126,9999,9999,9999,1129335932
236,23,Ticks_Phase_5,127,9999,9999,9999,1129835628
236,23,Ticks_Phase_5,128,9999,9999,9999,1130335316
236,23,Ticks_Phase_5,129,9999,9999,9999,1130836048
236,23,Ticks_Phase_5,130,9999,9999,9999,1131335736
236,23,Ticks_Phase_5,131,9999,9999,9999,1131935844
236,23,Ticks_Phase_5,132,9999,9999,9999,1132435540
236,23,Ticks_Phase_5,133,9999,9999,9999,1132935228
236,23,Ticks_Phase_5,134,9999,9999,9999,1133435984
236,23,Ticks_Phase_5,135,9999,9999,9999,1133935696
236,23,Ticks_Phase_5,136,9999,9999,9999,1134435452
236,23,Ticks_Phase_5,137,9999,9999,9999,1134935148
236,23,Ticks_Phase_5,138,9999,9999,9999,1135435884
236,23,Ticks_Phase_5,139,9999,9999,9999,1135935572
236,23,Ticks_Phase_5,140,9999,9999,9999,1136435256
236,23,Ticks_Phase_5,141,9999,9999,9999,1136936060
236,23,Ticks_Phase_5,142,9999,9999,9999,1137435748
236,23,Ticks_Phase_5,143,9999,9999,9999,1137935412
236,23,Ticks_Phase_5,144,9999,9999,9999,1138435176
236,23,Ticks_Phase_5,145,9999,9999,9999,1138935912
236,23,Ticks_Phase_5,146,9999,9999,9999,1139435600
236,23,Ticks_Phase_5,147,9999,9999,9999,1139935296
236,23,Ticks_Phase_5,148,9999,9999,9999,1140436024
236,23,Ticks_Phase_5,149,9999,9999,9999,1140935788
236,23,Ticks_Phase_5,150,9999,9999,9999,1141335136
236,23,Ticks_Phase_5,151,9999,9999,9999,1141835872
236,23,Ticks_Phase_5,152,9999,9999,9999,1142335560
236,23,Ticks_Phase_5,153,9999,9999,9999,1142835316
236,23,Ticks_Phase_5,154,9999,9999,9999,1143336048
236,23,Ticks_Phase_5,155,9999,9999,9999,1143835736
236,23,Ticks_Phase_5,156,9999,9999,9999,1144335472
236,23,Ticks_Phase_5,157,9999,9999,9999,1144835160
236,23,Ticks_Phase_5,158,9999,9999,9999,1145335896
236,23,Ticks_Phase_5,159,9999,9999,9999,1145835584
236,23,Ticks_Phase_5,160,9999,9999,9999,1146335348
236,23,Ticks_Phase_5,161,9999,9999,9999,1146836084
236,23,Ticks_Phase_5,162,9999,9999,9999,1147335772
236,23,Ticks_Phase_5,163,9999,9999,9999,1147835460
236,23,Ticks_Phase_5,164,9999,9999,9999,1148335228
236,23,Ticks_Phase_5,165,9999,9999,9999,1148835956
236,23,Ticks_Phase_5,166,9999,9999,9999,1149335644
236,23,Ticks_Phase_5,167,9999,9999,9999,1149835332
236,23,Ticks_Phase_5,168,9999,9999,9999,1150336072
236,23,Ticks_Phase_5,169,9999,9999,9999,1150846024
237,10,Ticks_ISO_T2_5,0,5,42,127,1187719632
237,10,Ticks_ISO_T2_5,1,1,48,27,1188068792
237,10,Ticks_ISO_T2_5,2,5,42,127,1188220148
237,10,Ticks_ISO_T2_5,3,5,42,127,1188719940
237,10,Ticks_ISO_T2_5,4,1,48,17,1188802796
237,10,Ticks_ISO_T2_5,5,5,42,127,1189219636
237,10,Ticks_ISO_T2_5,6,1,48,38,1189220600
237,10,Ticks_ISO_T2_5,7,1,48,39,1189684056
237,10,Ticks_ISO_T2_5,8,5,42,127,1189720520
237,10,Ticks_ISO_T2_5,9,1,48,39,1190195424
237,10,Ticks_ISO_T2_5,10,5,42,127,1190219992
237,10,Ticks_ISO_T2_5,11,1,48,42,1190705736
237,10,Ticks_ISO_T2_5,12,5,42,127,1190719832
237,10,Ticks_ISO_T2_5,13,1,48,39,1191200872
237,10,Ticks_ISO_T2_5,14,5,42,127,1191219676
237,10,Ticks_ISO_T2_5,15,1,48,41,1191718156
237,10,Ticks_ISO_T2_5,16,5,42,127,1191720344
237,10,Ticks_ISO_T2_5,17,1,48,38,1192201504
237,10,Ticks_ISO_T2_5,18,5,42,127,1192220112
237,10,Ticks_ISO_T2_5,19,5,42,127,1192719640
237,10,Ticks_ISO_T2_5,20,1,48,36,1192726372
237,10,Ticks_ISO_T2_5,21,5,42,127,1193219560
237,10,Ticks_ISO_T2_5,22,1,48,43,1193233528
237,10,Ticks_ISO_T2_5,23,1,48,36,1193688624
237,10,Ticks_ISO_T2_5,24,5,42,127,1193720368
237,10,Ticks_ISO_T2_5,25,1,48,31,1194205300
237,10,Ticks_ISO_T2_5,26,5,42,127,1194219844
237,10,Ticks_ISO_T2_5,27,1,48,38,1194675372
237,10,Ticks_ISO_T2_5,28,5,42,127,1194719536
237,10,Ticks_ISO_T2_5,29,1,48,38,1195188680
237,10,Ticks_ISO_T2_5,30,5,42,127,1195220576
237,10,Ticks_ISO_T2_5,31,1,48,35,1195702584
237,10,Ticks_ISO_T2_5,32,5,42,127,1195719900
237,10,Ticks_ISO_T2_5,33,1,48,39,1196206692
237,10,Ticks_ISO_T2_5,34,5,42,127,1196219668
237,10,Ticks_ISO_T2_5,35,1,48,39,1196676468
237,10,Ticks_ISO_T2_5,36,5,42,127,1196719436
237,10,Ticks_ISO_T2_5,37,1,48,35,1197215652
237,10,Ticks_ISO_T2_5,38,5,42,127,1197220324
237,10,Ticks_ISO_T2_5,39,5,42,127,1197719876
237,10,Ticks_ISO_T2_5,40,1,48,32,1197745056
237,10,Ticks_ISO_T2_5,41,1,48,37,1198197664
237,10,Ticks_ISO_T2_5,42,5,42,127,1198219616
237,10,Ticks_ISO_T2_5,43,1,48,30,1198689804
237,10,Ticks_ISO_T2_5,44,5,42,127,1198720356
237,10,Ticks_ISO_T2_5,45,1,48,31,1199201468
237,10,Ticks_ISO_T2_5,46,5,42,127,1199220348
237,10,Ticks_ISO_T2_5,47,1,48,29,1199719680
237,10,Ticks_ISO_T2_5,48,5,42,127,1199721312
237,10,Ticks_ISO_T2_5,49,1,48,30,1200201600
237,10,Ticks_ISO_T2_5,50,5,42,127,1200219440
237,10,Ticks_ISO_T2_5,51,1,48,50,1200691356
237,10,Ticks_ISO_T2_5,52,5,42,127,1200720332
237,10,Ticks_ISO_T2_5,53,1,48,40,1201208476
237,10,Ticks_ISO_T2_5,54,5,42,127,1201220252
237,10,Ticks_ISO_T2_5,55,1,48,42,1201696200
237,10,Ticks_ISO_T2_5,56,5,42,127,1201719648
237,10,Ticks_ISO_T2_5,57,1,48,29,1202199260
237,10,Ticks_ISO_T2_5,58,5,42,127,1202220536
237,10,Ticks_ISO_T2_5,59,1,48,38,1202703644
237,10,Ticks_ISO_T2_5,60,5,42,127,1202720008
237,10,Ticks_ISO_T2_5,61,5,42,127,1203219908
237,10,Ticks_ISO_T2_5,62,1,48,14,1203222952
237,10,Ticks_ISO_T2_5,63,5,42,127,1203719504
237,10,Ticks_ISO_T2_5,64,1,48,39,1203720840
237,10,Ticks_ISO_T2_5,65,1,48,32,1204173980
237,10,Ticks_ISO_T2_5,66,5,42,127,1204220236
237,10,Ticks_ISO_T2_5,67,1,48,31,1204708532
237,10,Ticks_ISO_T2_5,68,5,42,127,1204720156
237,10,Ticks_ISO_T2_5,69,1,48,32,1205197304
237,10,Ticks_ISO_T2_5,70,5,42,127,1205219852
237,10,Ticks_ISO_T2_5,71,5,42,127,1205720300
237,10,Ticks_ISO_T2_5,72,1,48,29,1205729704
237,10,Ticks_ISO_T2_5,73,1,48,36,1206214192
237,10,Ticks_ISO_T2_5,74,5,42,127,1206220064
237,10,Ticks_ISO_T2_5,75,5,42,127,1206719836
237,10,Ticks_ISO_T2_5,76,1,48,29,1206748012
237,10,Ticks_ISO_T2_5,77,1,48,36,1207200192
237,10,Ticks_ISO_T2_5,78,5,42,127,1207219972
237,10,Ticks_ISO_T2_5,79,1,48,34,1207709240
237,10,Ticks_ISO_T2_5,80,5,42,127,1207720196
237,10,Ticks_ISO_T2_5,81,1,48,39,1208184248
237,10,Ticks_ISO_T2_5,82,5,42,127,1208219964
237,10,Ticks_ISO_T2_5,83,1,48,22,1208249548
237,10,Ticks_ISO_T2_5,84,5,42,127,1208719716
237,10,Ticks_ISO_T2_5,85,1,48,35,1208722612
237,10,Ticks_ISO_T2_5,86,1,48,34,1209206504
237,10,Ticks_ISO_T2_5,87,5,42,127,1209219404
237,10,Ticks_ISO_T2_5,88,5,42,127,1209720152
237,10,Ticks_ISO_T2_5,89,1,48,22,1209739052
237,10,Ticks_ISO_T2_5,90,1,48,32,1210202972
237,10,Ticks_ISO_T2_5,91,5,42,127,1210219764
237,10,Ticks_ISO_T2_5,92,5,42,127,1210719764
237,10,Ticks_ISO_T2_5,93,1,48,35,1210729240
237,10,Ticks_ISO_T2_5,94,5,42,127,1211220284
237,10,Ticks_ISO_T2_5,95,1,48,40,1211239708
237,10,Ticks_ISO_T2_5,96,5,42,127,1211719904
237,10,Ticks_ISO_T2_5,97,1,48,30,1211733640
237,10,Ticks_ISO_T2_5,98,5,42,127,1212219820
237,10,Ticks_ISO_T2_5,99,1,48,41,1212232512
237,10,Ticks_ISO_T2_5,100,1,48,38,1212687212
237,10,Ticks_ISO_T2_5,101,5,42,127,1212719580
237,10,Ticks_ISO_T2_5,102,5,42,127,1213220180
237,10,Ticks_ISO_T2_5,103,1,48,34,1213236468
237,10,Ticks_ISO_T2_5,104,5,42,127,1213719876
237,10,Ticks_ISO_T2_5,105,1,48,35,1213762860
237,10,Ticks_ISO_T2_5,106,5,42,127,1214219696
237,10,Ticks_ISO_T2_5,107,1,48,38,1214229576
237,10,Ticks_ISO_T2_5,108,1,48,37,1214696464
237,10,Ticks_ISO_T2_5,109,5,42,127,1214720504
237,10,Ticks_ISO_T2_5,110,1,48,38,1215190472
237,10,Ticks_ISO_T2_5,111,5,42,127,1215219976
237,10,Ticks_ISO_T2_5,112,1,48,39,1215685152
237,10,Ticks_ISO_T2_5,113,5,42,127,1215719748
237,10,Ticks_ISO_T2_5,114,1,48,43,1216199584
237,10,Ticks_ISO_T2_5,115,5,42,127,1216219440
237,10,Ticks_ISO_T2_5,116,5,42,127,1216720264
237,10,Ticks_ISO_T2_5,117,1,48,41,1216724208
237,10,Ticks_ISO_T2_5,118,1,48,37,1217201816
237,10,Ticks_ISO_T2_5,119,5,42,127,1217219804
237,10,Ticks_ISO_T2_5,120,1,48,35,1217689844
237,10,Ticks_ISO_T2_5,121,5,42,127,1217719796
237,10,Ticks_ISO_T2_5,122,1,48,36,1218206896
237,10,Ticks_ISO_T2_5,123,5,42,127,1218220388
237,10,Ticks_ISO_T2_5,124,1,48,38,1218688264
237,10,Ticks_ISO_T2_5,125,5,42,127,1218720528
237,10,Ticks_ISO_T2_5,126,1,48,24,1219206512
237,10,Ticks_ISO_T2_5,127,5,42,127,1219219780
237,10,Ticks_ISO_T2_5,128,1,48,37,1219690720
237,10,Ticks_ISO_T2_5,129,5,42,127,1219719552
237,10,Ticks_ISO_T2_5,130,1,48,39,1220178896
237,10,Ticks_ISO_T2_5,131,5,42,127,1220220368
237,10,Ticks_ISO_T2_5,132,5,42,127,1220719920
237,10,Ticks_ISO_T2_5,133,1,48,33,1220722512
237,10,Ticks_ISO_T2_5,134,5,42,127,1221219692
237,10,Ticks_ISO_T2_5,135,1,48,27,1221260584
237,10,Ticks_ISO_T2_5,136,1,48,32,1221684932
237,10,Ticks_ISO_T2_5,137,5,42,127,1221720276
237,10,Ticks_ISO_T2_5,138,1,48,24,1222194128
237,10,Ticks_ISO_T2_5,139,5,42,127,1222220268
237,10,Ticks_ISO_T2_5,140,1,48,29,1222681108
237,10,Ticks_ISO_T2_5,141,5,42,127,1222719816
237,10,Ticks_ISO_T2_5,142,1,48,36,1223188284
237,10,Ticks_ISO_T2_5,143,5,42,127,1223219588
237,10,Ticks_ISO_T2_5,144,1,48,40,1223699276
237,10,Ticks_ISO_T2_5,145,5,42,127,1223720180
237,10,Ticks_ISO_T2_5,146,1,48,41,1224191616
237,10,Ticks_ISO_T2_5,147,5,42,127,1224219948
237,10,Ticks_ISO_T2_5,148,1,48,31,1224714192
237,10,Ticks_ISO_T2_5,149,5,42,127,1224719696
237,10,Ticks_ISO_T2_5,150,5,42,127,1225219396
237,10,Ticks_ISO_T2_5,151,1,48,32,1225226408
237,10,Ticks_ISO_T2_5,152,5,42,127,1225720064
237,10,Ticks_ISO_T2_5,153,1,48,15,1225726248
237,10,Ticks_ISO_T2_5,154,5,42,127,1226220056
237,10,Ticks_ISO_T2_5,155,1,48,25,1226228336
237,10,Ticks_ISO_T2_5,156,1,48,35,1226715220
237,10,Ticks_ISO_T2_5,157,5,42,127,1226719444
237,10,Ticks_ISO_T2_5,158,5,42,127,1227220192
237,10,Ticks_ISO_T2_5,159,1,48,29,1227224728
237,10,Ticks_ISO_T2_5,160,1,48,35,1227714232
237,10,Ticks_ISO_T2_5,161,5,42,127,1227720028
237,10,Ticks_ISO_T2_5,162,1,48,33,1228219952
237,10,Ticks_ISO_T2_5,163,5,42,127,1228221592
237,10,Ticks_ISO_T2_5,164,5,42,127,1228719352
237,10,Ticks_ISO_T2_5,165,1,48,37,1228727632
237,10,Ticks_ISO_T2_5,166,5,42,127,1229220316
237,10,Ticks_ISO_T2_5,167,1,48,33,1229224924
237,10,Ticks_ISO_T2_5,168,1,48,33,1229705236
237,10,Ticks_ISO_T2_5,169,5,42,127,1229720076
237,10,Ticks_ISO_T2_5,170,5,42,127,1230219704
237,10,Ticks_ISO_T2_5,171,1,48,29,1230235088
237,10,Ticks_ISO_T2_5,172,1,48,40,1230703272
237,10,Ticks_ISO_T2_5,173,5,42,127,1230720216
237,10,Ticks_ISO_T2_5,174,1,48,36,1231203496
237,10,Ticks_ISO_T2_5,175,5,42,127,1231220060
237,10,Ticks_ISO_T2_5,176,1,48,42,1231695932
237,10,Ticks_ISO_T2_5,177,5,42,127,1231719828
237,10,Ticks_ISO_T2_5,178,1,48,38,1232211856
237,10,Ticks_ISO_T2_5,179,5,42,127,1232219448
237,10,Ticks_ISO_T2_5,180,1,48,38,1232713420
237,10,Ticks_ISO_T2_5,181,5,42,127,1232720264
237,10,Ticks_ISO_T2_5,182,1,48,30,1233199432
237,10,Ticks_ISO_T2_5,183,5,42,127,1233220036
237,10,Ticks_ISO_T2_5,184,1,48,42,1233687832
237,10,Ticks_ISO_T2_5,185,5,42,127,1233719728
237,10,Ticks_ISO_T2_5,186,5,42,127,1234220700
237,10,Ticks_ISO_T2_5,187,1,48,27,1234226888
237,10,Ticks_ISO_T2_5,188,1,48,43,1234698712
237,10,Ticks_ISO_T2_5,189,5,42,127,1234720088
237,10,Ticks_ISO_T2_5,190,1,48,41,1235188012
237,10,Ticks_ISO_T2_5,191,5,42,127,1235219932
237,10,Ticks_ISO_T2_5,192,1,48,44,1235685308
237,10,Ticks_ISO_T2_5,193,5,42,127,1235719752
237,10,Ticks_ISO_T2_5,194,1,48,38,1236200036
237,10,Ticks_ISO_T2_5,195,5,42,127,1236220120
237,10,Ticks_ISO_T2_5,196,5,42,127,1236720044
237,10,Ticks_ISO_T2_5,197,1,48,35,1236721008
237,10,Ticks_ISO_T2_5,198,5,42,127,1237219812
237,10,Ticks_ISO_T2_5,199,1,48,38,1237227048
237,10,Ticks_ISO_T2_5,200,1,48,45,1237704504
237,10,Ticks_ISO_T2_5,201,5,42,127,1237720548
237,10,Ticks_ISO_T2_5,202,5,42,127,1238220024
237,10,Ticks_ISO_T2_5,203,1,48,28,1238225756
237,10,Ticks_ISO_T2_5,204,1,48,40,1238628576
237,10,Ticks_ISO_T2_5,205,5,42,127,1238719712
237,10,Ticks_ISO_T2_5,206,5,42,127,1239219712
237,10,Ticks_ISO_T2_5,207,1,48,35,1239221280
237,10,Ticks_ISO_T2_5,208,5,42,127,1239720308
237,10,Ticks_ISO_T2_5,209,1,48,33,1239742504
237,10,Ticks_ISO_T2_5,210,1,48,34,1240209716
237,10,Ticks_ISO_T2_5,211,5,42,127,1240219996
237,10,Ticks_ISO_T2_5,212,1,48,31,1240702600
237,10,Ticks_ISO_T2_5,213,5,42,127,1240719692
237,10,Ticks_ISO_T2_5,214,5,42,127,1241219392
237,10,Ticks_ISO_T2_5,215,1,48,34,1241220508
237,10,Ticks_ISO_T2_5,216,1,48,36,1241714784
237,10,Ticks_ISO_T2_5,217,5,42,127,1241720128
237,10,Ticks_ISO_T2_5,218,5,42,127,1242219904
237,10,Ticks_ISO_T2_5,219,1,48,34,1242238652
237,10,Ticks_ISO_T2_5,220,1,48,32,1242712000
237,10,Ticks_ISO_T2_5,221,5,42,127,1242719592
237,10,Ticks_ISO_T2_5,222,1,48,40,1243201824
237,10,Ticks_ISO_T2_5,223,5,42,127,1243220256
237,10,Ticks_ISO_T2_5,224,1,48,43,1243718292
237,10,Ticks_ISO_T2_5,225,5,42,127,1243720252
237,10,Ticks_ISO_T2_5,226,1,48,46,1244214376
237,10,Ticks_ISO_T2_5,227,5,42,127,1244219720
237,10,Ticks_ISO_T2_5,228,1,48,22,1244292608
237,10,Ticks_ISO_T2_5,229,1,48,39,1244710384
237,10,Ticks_ISO_T2_5,230,5,42,127,1244719320
237,10,Ticks_ISO_T2_5,231,1,48,47,1245217264
237,10,Ticks_ISO_T2_5,232,5,42,127,1245220364
237,10,Ticks_ISO_T2_5,233,1,48,36,1245701672
237,10,Ticks_ISO_T2_5,234,5,42,127,1245720056
237,10,Ticks_ISO_T2_5,235,5,42,127,1246219660
237,10,Ticks_ISO_T2_5,236,1,48,42,1246233872
237,10,Ticks_ISO_T2_5,237,1,48,42,1246696196
237,10,Ticks_ISO_T2_5,238,5,42,127,1246720244
237,10,Ticks_ISO_T2_5,239,5,42,127,1247220320
237,10,Ticks_ISO_T2_5,240,1,48,45,1247232936
237,10,Ticks_ISO_T2_5,241,1,48,33,1247719716
237,10,Ticks_ISO_T2_5,242,5,42,127,1247721276
237,10,Ticks_ISO_T2_5,243,5,42,127,1248219484
237,10,Ticks_ISO_T2_5,244,1,48,38,1248226420
237,10,Ticks_ISO_T2_5,245,1,48,33,1248698044
237,10,Ticks_ISO_T2_5,246,5,42,127,1248720216
237,10,Ticks_ISO_T2_5,247,1,48,44,1249208884
237,10,Ticks_ISO_T2_5,248,5,42,127,1249220060
237,10,Ticks_ISO_T2_5,249,1,48,35,1249715152
237,10,Ticks_ISO_T2_5,250,5,42,127,1249719756
237,10,Ticks_ISO_T2_5,251,1,48,43,1250196976
237,10,Ticks_ISO_T2_5,252,5,42,127,1250220348
237,10,Ticks_ISO_T2_5,253,1,48,35,1250717092
237,10,Ticks_ISO_T2_5,254,5,42,127,1250720116
237,10,Ticks_ISO_T2_5,255,5,42,127,1251220116
237,10,Ticks_ISO_T2_5,256,1,48,45,1251225928
237,10,Ticks_ISO_T2_5,257,1,48,37,1251696736
237,10,Ticks_ISO_T2_5,258,5,42,127,1251719728
237,10,Ticks_ISO_T2_5,259,1,48,44,1252212656
237,10,Ticks_ISO_T2_5,260,5,42,127,1252220248
237,10,Ticks_ISO_T2_5,261,1,48,46,1252696424
237,10,Ticks_ISO_T2_5,0,9999,9999,9999,1187717196
237,10,Ticks_ISO_T2_5,1,9999,9999,9999,1188217936
237,10,Ticks_ISO_T2_5,2,9999,9999,9999,1188717656
237,10,Ticks_ISO_T2_5,3,9999,9999,9999,1189217348
237,10,Ticks_ISO_T2_5,4,9999,9999,9999,1189718084
237,10,Ticks_ISO_T2_5,5,9999,9999,9999,1190217780
237,10,Ticks_ISO_T2_5,6,9999,9999,9999,1190717548
237,10,Ticks_ISO_T2_5,7,9999,9999,9999,1191217244
237,10,Ticks_ISO_T2_5,8,9999,9999,9999,1191717948
237,10,Ticks_ISO_T2_5,9,9999,9999,9999,1192217676
237,10,Ticks_ISO_T2_5,10,9999,9999,9999,1192717428
237,10,Ticks_ISO_T2_5,11,9999,9999,9999,1193217124
237,10,Ticks_ISO_T2_5,12,9999,9999,9999,1193717860
237,10,Ticks_ISO_T2_5,13,9999,9999,9999,1194217556
237,10,Ticks_ISO_T2_5,14,9999,9999,9999,1194717248
237,10,Ticks_ISO_T2_5,15,9999,9999,9999,1195217992
237,10,Ticks_ISO_T2_5,16,9999,9999,9999,1195717688
237,10,Ticks_ISO_T2_5,17,9999,9999,9999,1196217456
237,10,Ticks_ISO_T2_5,18,9999,9999,9999,1196717148
237,10,Ticks_ISO_T2_5,19,9999,9999,9999,1197217892
237,10,Ticks_ISO_T2_5,20,9999,9999,9999,1197717592
237,10,Ticks_ISO_T2_5,21,9999,9999,9999,1198217328
237,10,Ticks_ISO_T2_5,22,9999,9999,9999,1198718068
237,10,Ticks_ISO_T2_5,23,9999,9999,9999,1199217764
237,10,Ticks_ISO_T2_5,24,9999,9999,9999,1199717468
237,10,Ticks_ISO_T2_5,25,9999,9999,9999,1200217156
237,10,Ticks_ISO_T2_5,26,9999,9999,9999,1200717896
237,10,Ticks_ISO_T2_5,27,9999,9999,9999,1201217592
237,10,Ticks_ISO_T2_5,28,9999,9999,9999,1201717360
237,10,Ticks_ISO_T2_5,29,9999,9999,9999,1202218104
237,10,Ticks_ISO_T2_5,30,9999,9999,9999,1202717796
237,10,Ticks_ISO_T2_5,31,9999,9999,9999,1203217472
237,10,Ticks_ISO_T2_5,32,9999,9999,9999,1203717216
237,10,Ticks_ISO_T2_5,33,9999,9999,9999,1204217952
237,10,Ticks_ISO_T2_5,34,9999,9999,9999,1204717644
237,10,Ticks_ISO_T2_5,35,9999,9999,9999,1205217340
237,10,Ticks_ISO_T2_5,36,9999,9999,9999,1205718088
237,10,Ticks_ISO_T2_5,37,9999,9999,9999,1206217776
237,10,Ticks_ISO_T2_5,38,9999,9999,9999,1206717552
237,10,Ticks_ISO_T2_5,39,9999,9999,9999,1207217240
237,10,Ticks_ISO_T2_5,40,9999,9999,9999,1207717984
237,10,Ticks_ISO_T2_5,41,9999,9999,9999,1208217676
237,10,Ticks_ISO_T2_5,42,9999,9999,9999,1208717428
237,10,Ticks_ISO_T2_5,43,9999,9999,9999,1209217120
237,10,Ticks_ISO_T2_5,44,9999,9999,9999,1209717864
237,10,Ticks_ISO_T2_5,45,9999,9999,9999,1210217552
237,10,Ticks_ISO_T2_5,46,9999,9999,9999,1210717256
237,10,Ticks_ISO_T2_5,47,9999,9999,9999,1211217996
237,10,Ticks_ISO_T2_5,48,9999,9999,9999,1211717692
237,10,Ticks_ISO_T2_5,49,9999,9999,9999,1212217460
237,10,Ticks_ISO_T2_5,50,9999,9999,9999,1212717148
237,10,Ticks_ISO_T2_5,51,9999,9999,9999,1213217896
237,10,Ticks_ISO_T2_5,52,9999,9999,9999,1213717588
237,10,Ticks_ISO_T2_5,53,9999,9999,9999,1214217332
237,10,Ticks_ISO_T2_5,54,9999,9999,9999,1214718068
237,10,Ticks_ISO_T2_5,55,9999,9999,9999,1215217764
237,10,Ticks_ISO_T2_5,56,9999,9999,9999,1215717460
237,10,Ticks_ISO_T2_5,57,9999,9999,9999,1216217156
237,10,Ticks_ISO_T2_5,58,9999,9999,9999,1216717904
237,10,Ticks_ISO_T2_5,59,9999,9999,9999,1217217592
237,10,Ticks_ISO_T2_5,60,9999,9999,9999,1217717360
237,10,Ticks_ISO_T2_5,61,9999,9999,9999,1218218104
237,10,Ticks_ISO_T2_5,62,9999,9999,9999,1218717796
237,10,Ticks_ISO_T2_5,63,9999,9999,9999,1219217496
237,10,Ticks_ISO_T2_5,64,9999,9999,9999,1219717192
237,10,Ticks_ISO_T2_5,65,9999,9999,9999,1220217932
237,10,Ticks_ISO_T2_5,66,9999,9999,9999,1220717636
237,10,Ticks_ISO_T2_5,67,9999,9999,9999,1221217332
237,10,Ticks_ISO_T2_5,68,9999,9999,9999,1221718064
237,10,Ticks_ISO_T2_5,69,9999,9999,9999,1222217832
237,10,Ticks_ISO_T2_5,70,9999,9999,9999,1222717528
237,10,Ticks_ISO_T2_5,71,9999,9999,9999,1223217224
237,10,Ticks_ISO_T2_5,72,9999,9999,9999,1223717968
237,10,Ticks_ISO_T2_5,73,9999,9999,9999,1224217664
237,10,Ticks_ISO_T2_5,74,9999,9999,9999,1224717408
237,10,Ticks_ISO_T2_5,75,9999,9999,9999,1225217108
237,10,Ticks_ISO_T2_5,76,9999,9999,9999,1225717852
237,10,Ticks_ISO_T2_5,77,9999,9999,9999,1226217544
237,10,Ticks_ISO_T2_5,78,9999,9999,9999,1226717232
237,10,Ticks_ISO_T2_5,79,9999,9999,9999,1227217980
237,10,Ticks_ISO_T2_5,80,9999,9999,9999,1227717744
237,10,Ticks_ISO_T2_5,81,9999,9999,9999,1228217444
237,10,Ticks_ISO_T2_5,82,9999,9999,9999,1228717140
237,10,Ticks_ISO_T2_5,83,9999,9999,9999,1229217880
237,10,Ticks_ISO_T2_5,84,9999,9999,9999,1229717568
237,10,Ticks_ISO_T2_5,85,9999,9999,9999,1230217268
237,10,Ticks_ISO_T2_5,86,9999,9999,9999,1230718004
237,10,Ticks_ISO_T2_5,87,9999,9999,9999,1231217772
237,10,Ticks_ISO_T2_5,88,9999,9999,9999,1231717468
237,10,Ticks_ISO_T2_5,89,9999,9999,9999,1232217164
237,10,Ticks_ISO_T2_5,90,9999,9999,9999,1232717904
237,10,Ticks_ISO_T2_5,91,9999,9999,9999,1233217600
237,10,Ticks_ISO_T2_5,92,9999,9999,9999,1233717368
237,10,Ticks_ISO_T2_5,93,9999,9999,9999,1234218040
237,10,Ticks_ISO_T2_5,94,9999,9999,9999,1234717804
237,10,Ticks_ISO_T2_5,95,9999,9999,9999,1235217496
237,10,Ticks_ISO_T2_5,96,9999,9999,9999,1235717240
237,10,Ticks_ISO_T2_5,97,9999,9999,9999,1236217908
237,10,Ticks_ISO_T2_5,98,9999,9999,9999,1236717684
237,10,Ticks_ISO_T2_5,99,9999,9999,9999,1237217376
237,10,Ticks_ISO_T2_5,100,9999,9999,9999,1237718112
237,10,Ticks_ISO_T2_5,101,9999,9999,9999,1238217812
237,10,Ticks_ISO_T2_5,102,9999,9999,9999,1238717500
237,10,Ticks_ISO_T2_5,103,9999,9999,9999,1239217204
237,10,Ticks_ISO_T2_5,104,9999,9999,9999,1239717948
237,10,Ticks_ISO_T2_5,105,9999,9999,9999,1240217712
237,10,Ticks_ISO_T2_5,106,9999,9999,9999,1240717404
237,10,Ticks_ISO_T2_5,107,9999,9999,9999,1241217108
237,10,Ticks_ISO_T2_5,108,9999,9999,9999,1241717840
237,10,Ticks_ISO_T2_5,109,9999,9999,9999,1242217544
237,10,Ticks_ISO_T2_5,110,9999,9999,9999,1242717304
237,10,Ticks_ISO_T2_5,111,9999,9999,9999,1243217972
237,10,Ticks_ISO_T2_5,112,9999,9999,9999,1243717692
237,10,Ticks_ISO_T2_5,113,9999,9999,9999,1244217436
237,10,Ticks_ISO_T2_5,114,9999,9999,9999,1244717108
237,10,Ticks_ISO_T2_5,115,9999,9999,9999,1245217852
237,10,Ticks_ISO_T2_5,116,9999,9999,9999,1245717620
237,10,Ticks_ISO_T2_5,117,9999,9999,9999,1246217300
237,10,Ticks_ISO_T2_5,118,9999,9999,9999,1246718032
237,10,Ticks_ISO_T2_5,119,9999,9999,9999,1247217736
237,10,Ticks_ISO_T2_5,120,9999,9999,9999,1247717428
237,10,Ticks_ISO_T2_5,121,9999,9999,9999,1248217196
237,10,Ticks_ISO_T2_5,122,9999,9999,9999,1248717932
237,10,Ticks_ISO_T2_5,123,9999,9999,9999,1249217628
237,10,Ticks_ISO_T2_5,124,9999,9999,9999,1249717320
237,10,Ticks_ISO_T2_5,125,9999,9999,9999,1250218060
237,10,Ticks_ISO_T2_5,126,9999,9999,9999,1250717756
237,10,Ticks_ISO_T2_5,127,9999,9999,9999,1251217456
237,10,Ticks_ISO_T2_5,128,9999,9999,9999,1251717220
237,10,Ticks_ISO_T2_5,129,9999,9999,9999,1252217960
238,9,Ticks_ISO_T2_8,0,5,42,127,1268797664
238,9,Ticks_ISO_T2_8,1,1,48,19,1269234480
238,9,Ticks_ISO_T2_8,2,5,42,127,1269597696
238,9,Ticks_ISO_T2_8,3,1,48,35,1269813936
238,9,Ticks_ISO_T2_8,4,5,42,127,1270398400
238,9,Ticks_ISO_T2_8,5,1,48,34,1270470628
238,9,Ticks_ISO_T2_8,6,1,48,38,1271140048
238,9,Ticks_ISO_T2_8,7,5,42,127,1271198052
238,9,Ticks_ISO_T2_8,8,1,48,37,1271972840
238,9,Ticks_ISO_T2_8,9,5,42,127,1271997860
238,9,Ticks_ISO_T2_8,10,1,48,37,1272789184
238,9,Ticks_ISO_T2_8,11,5,42,127,1272797744
238,9,Ticks_ISO_T2_8,12,5,42,127,1273598304
238,9,Ticks_ISO_T2_8,13,1,48,38,1273602692
238,9,Ticks_ISO_T2_8,14,5,42,127,1274398140
238,9,Ticks_ISO_T2_8,15,1,48,32,1274406640
238,9,Ticks_ISO_T2_8,16,5,42,127,1275197872
238,9,Ticks_ISO_T2_8,17,1,48,37,1275206372
238,9,Ticks_ISO_T2_8,18,1,48,38,1275989336
238,9,Ticks_ISO_T2_8,19,5,42,127,1275997820
238,9,Ticks_ISO_T2_8,20,1,48,40,1276789144
238,9,Ticks_ISO_T2_8,21,5,42,127,1276798304
238,9,Ticks_ISO_T2_8,22,5,42,127,1277598044
238,9,Ticks_ISO_T2_8,23,1,48,37,1277615968
238,9,Ticks_ISO_T2_8,24,5,42,127,1278397852
238,9,Ticks_ISO_T2_8,25,1,48,40,1278418544
238,9,Ticks_ISO_T2_8,26,1,48,45,1279191184
238,9,Ticks_ISO_T2_8,27,5,42,127,1279197800
238,9,Ticks_ISO_T2_8,28,5,42,127,1279998212
238,9,Ticks_ISO_T2_8,29,1,48,30,1280006568
238,9,Ticks_ISO_T2_8,30,1,48,33,1280765888
238,9,Ticks_ISO_T2_8,31,5,42,127,1280798040
238,9,Ticks_ISO_T2_8,32,5,42,127,1281597780
238,9,Ticks_ISO_T2_8,33,1,48,46,1281599568
238,9,Ticks_ISO_T2_8,34,1,48,28,1282346608
238,9,Ticks_ISO_T2_8,35,5,42,127,1282397508
238,9,Ticks_ISO_T2_8,36,1,48,41,1283115076
238,9,Ticks_ISO_T2_8,37,5,42,127,1283198360
238,9,Ticks_ISO_T2_8,38,1,48,40,1283971056
238,9,Ticks_ISO_T2_8,39,5,42,127,1283998020
238,9,Ticks_ISO_T2_8,40,5,42,127,1284797684
238,9,Ticks_ISO_T2_8,41,1,48,47,1284832888
238,9,Ticks_ISO_T2_8,42,5,42,127,1285597492
238,9,Ticks_ISO_T2_8,43,1,48,42,1285653364
238,9,Ticks_ISO_T2_8,44,5,42,127,1286398424
238,9,Ticks_ISO_T2_8,45,1,48,41,1286421540
238,9,Ticks_ISO_T2_8,46,5,42,127,1287198328
238,9,Ticks_ISO_T2_8,47,1,48,37,1287220524
238,9,Ticks_ISO_T2_8,48,5,42,127,1287997916
238,9,Ticks_ISO_T2_8,49,1,48,37,1288029756
238,9,Ticks_ISO_T2_8,50,5,42,127,1288797424
238,9,Ticks_ISO_T2_8,51,1,48,35,1288826272
238,9,Ticks_ISO_T2_8,52,5,42,127,1289598280
238,9,Ticks_ISO_T2_8,53,1,48,36,1289604240
238,9,Ticks_ISO_T2_8,54,1,48,38,1290387276
238,9,Ticks_ISO_T2_8,55,5,42,127,1290398156
238,9,Ticks_ISO_T2_8,56,1,48,44,1291155140
238,9,Ticks_ISO_T2_8,57,5,42,127,1291198260
238,9,Ticks_ISO_T2_8,58,1,48,51,1291965724
238,9,Ticks_ISO_T2_8,59,5,42,127,1291997548
238,9,Ticks_ISO_T2_8,60,1,48,44,1292751472
238,9,Ticks_ISO_T2_8,61,5,42,127,1292798256
238,9,Ticks_ISO_T2_8,62,1,48,37,1293522480
238,9,Ticks_ISO_T2_8,63,5,42,127,1293598012
238,9,Ticks_ISO_T2_8,64,1,48,35,1294363976
238,9,Ticks_ISO_T2_8,65,5,42,127,1294398044
238,9,Ticks_ISO_T2_8,66,1,48,27,1295132368
238,9,Ticks_ISO_T2_8,67,5,42,127,1295197480
238,9,Ticks_ISO_T2_8,68,1,48,18,1295929416
238,9,Ticks_ISO_T2_8,69,5,42,127,1295998260
238,9,Ticks_ISO_T2_8,70,1,48,23,1296773204
238,9,Ticks_ISO_T2_8,71,5,42,127,1296797996
238,9,Ticks_ISO_T2_8,72,1,48,27,1297545184
238,9,Ticks_ISO_T2_8,73,5,42,127,1297598028
238,9,Ticks_ISO_T2_8,74,1,48,18,1298372296
238,9,Ticks_ISO_T2_8,75,5,42,127,1298397464
238,9,Ticks_ISO_T2_8,76,1,48,19,1299176364
238,9,Ticks_ISO_T2_8,77,5,42,127,1299198392
238,9,Ticks_ISO_T2_8,78,1,48,28,1299958672
238,9,Ticks_ISO_T2_8,79,5,42,127,1299998076
238,9,Ticks_ISO_T2_8,80,1,48,22,1300782888
238,9,Ticks_ISO_T2_8,81,5,42,127,1300797812
238,9,Ticks_ISO_T2_8,82,5,42,127,1301597700
238,9,Ticks_ISO_T2_8,83,1,48,17,1301640008
238,9,Ticks_ISO_T2_8,84,1,48,26,1302362008
238,9,Ticks_ISO_T2_8,85,5,42,127,1302398396
238,9,Ticks_ISO_T2_8,86,5,42,127,1303197988
238,9,Ticks_ISO_T2_8,87,1,48,33,1303204840
238,9,Ticks_ISO_T2_8,88,5,42,127,1303997720
238,9,Ticks_ISO_T2_8,89,1,48,35,1303999060
238,9,Ticks_ISO_T2_8,90,1,48,36,1304780732
238,9,Ticks_ISO_T2_8,91,5,42,127,1304797896
238,9,Ticks_ISO_T2_8,92,1,48,33,1305589440
238,9,Ticks_ISO_T2_8,93,5,42,127,1305598600
238,9,Ticks_ISO_T2_8,94,5,42,127,1306398068
238,9,Ticks_ISO_T2_8,95,1,48,37,1306426844
238,9,Ticks_ISO_T2_8,96,1,48,27,1307197276
238,9,Ticks_ISO_T2_8,97,5,42,127,1307198840
238,9,Ticks_ISO_T2_8,98,1,48,37,1307994724
238,9,Ticks_ISO_T2_8,99,5,42,127,1307997604
238,9,Ticks_ISO_T2_8,100,5,42,127,1308798316
238,9,Ticks_ISO_T2_8,101,1,48,33,1308833296
238,9,Ticks_ISO_T2_8,102,1,48,32,1309579980
238,9,Ticks_ISO_T2_8,103,5,42,127,1309598340
238,9,Ticks_ISO_T2_8,104,5,42,127,1310397856
238,9,Ticks_ISO_T2_8,105,1,48,33,1310435832
238,9,Ticks_ISO_T2_8,106,1,48,23,1311192388
238,9,Ticks_ISO_T2_8,107,5,42,127,1311197732
238,9,Ticks_ISO_T2_8,108,5,42,127,1311998296
238,9,Ticks_ISO_T2_8,109,1,48,26,1312006800
238,9,Ticks_ISO_T2_8,110,1,48,38,1312771140
238,9,Ticks_ISO_T2_8,111,5,42,127,1312798344
238,9,Ticks_ISO_T2_8,112,5,42,127,1313597712
238,9,Ticks_ISO_T2_8,113,1,48,38,1313599576
238,9,Ticks_ISO_T2_8,114,5,42,127,1314397444
238,9,Ticks_ISO_T2_8,115,1,48,29,1314416872
238,9,Ticks_ISO_T2_8,116,1,48,30,1315182996
238,9,Ticks_ISO_T2_8,117,5,42,127,1315198216
238,9,Ticks_ISO_T2_8,118,5,42,127,1315998180
238,9,Ticks_ISO_T2_8,119,1,48,32,1316010648
238,9,Ticks_ISO_T2_8,120,5,42,127,1316797916
238,9,Ticks_ISO_T2_8,121,1,48,26,1316850924
238,9,Ticks_ISO_T2_8,122,1,48,26,1317410088
238,9,Ticks_ISO_T2_8,123,5,42,127,1317597624
238,9,Ticks_ISO_T2_8,124,1,48,24,1318380960
238,9,Ticks_ISO_T2_8,125,5,42,127,1318398196
238,9,Ticks_ISO_T2_8,126,1,48,34,1319162144
238,9,Ticks_ISO_T2_8,127,5,42,127,1319197956
238,9,Ticks_ISO_T2_8,128,5,42,127,1319997992
238,9,Ticks_ISO_T2_8,129,1,48,32,1320015840
238,9,Ticks_ISO_T2_8,130,1,48,26,1320767316
238,9,Ticks_ISO_T2_8,131,5,42,127,1320797496
238,9,Ticks_ISO_T2_8,132,5,42,127,1321598208
238,9,Ticks_ISO_T2_8,133,1,48,31,1321615012
238,9,Ticks_ISO_T2_8,134,1,48,30,1322369852
238,9,Ticks_ISO_T2_8,135,5,42,127,1322398084
238,9,Ticks_ISO_T2_8,136,5,42,127,1323197972
238,9,Ticks_ISO_T2_8,137,1,48,36,1323219492
238,9,Ticks_ISO_T2_8,138,5,42,127,1323997632
238,9,Ticks_ISO_T2_8,139,1,48,39,1324015036
238,9,Ticks_ISO_T2_8,140,5,42,127,1324798412
238,9,Ticks_ISO_T2_8,141,1,48,33,1324823544
238,9,Ticks_ISO_T2_8,142,5,42,127,1325597948
238,9,Ticks_ISO_T2_8,143,1,48,37,1325604056
238,9,Ticks_ISO_T2_8,144,5,42,127,1326397832
238,9,Ticks_ISO_T2_8,145,1,48,22,1326412240
238,9,Ticks_ISO_T2_8,146,1,48,21,1327194456
238,9,Ticks_ISO_T2_8,147,5,42,127,1327197632
238,9,Ticks_ISO_T2_8,148,1,48,40,1327976236
238,9,Ticks_ISO_T2_8,149,5,42,127,1327998488
238,9,Ticks_ISO_T2_8,150,1,48,33,1328787868
238,9,Ticks_ISO_T2_8,151,5,42,127,1328797924
238,9,Ticks_ISO_T2_8,152,1,48,39,1329578100
238,9,Ticks_ISO_T2_8,153,5,42,127,1329597728
238,9,Ticks_ISO_T2_8,154,1,48,37,1330369452
238,9,Ticks_ISO_T2_8,155,5,42,127,1330397536
238,9,Ticks_ISO_T2_8,156,5,42,127,1331198472
238,9,Ticks_ISO_T2_8,157,1,48,28,1331207428
238,9,Ticks_ISO_T2_8,158,5,42,127,1331997932
238,9,Ticks_ISO_T2_8,159,1,48,29,1332023036
238,9,Ticks_ISO_T2_8,160,1,48,31,1332766208
238,9,Ticks_ISO_T2_8,161,5,42,127,1332797736
238,9,Ticks_ISO_T2_8,162,1,48,32,1333574392
238,9,Ticks_ISO_T2_8,163,5,42,127,1333597468
238,9,Ticks_ISO_T2_8,164,1,48,30,1334389760
238,9,Ticks_ISO_T2_8,165,5,42,127,1334398396
238,9,Ticks_ISO_T2_8,166,5,42,127,1335198136
238,9,Ticks_ISO_T2_8,167,1,48,30,1335199028
238,9,Ticks_ISO_T2_8,168,5,42,127,1335997796
238,9,Ticks_ISO_T2_8,169,1,48,37,1336029112
238,9,Ticks_ISO_T2_8,170,1,48,38,1336721720
238,9,Ticks_ISO_T2_8,171,5,42,127,1336797524
238,9,Ticks_ISO_T2_8,172,1,48,36,1337519360
238,9,Ticks_ISO_T2_8,173,5,42,127,1337598228
238,9,Ticks_ISO_T2_8,174,1,48,36,1338342276
238,9,Ticks_ISO_T2_8,175,5,42,127,1338398212
238,9,Ticks_ISO_T2_8,176,1,48,29,1339149592
238,9,Ticks_ISO_T2_8,177,5,42,127,1339197944
238,9,Ticks_ISO_T2_8,178,1,48,38,1339967276
238,9,Ticks_ISO_T2_8,179,5,42,127,1339997528
238,9,Ticks_ISO_T2_8,180,1,48,38,1340762072
238,9,Ticks_ISO_T2_8,181,5,42,127,1340798312
238,9,Ticks_ISO_T2_8,182,1,48,42,1341589108
238,9,Ticks_ISO_T2_8,183,5,42,127,1341598192
238,9,Ticks_ISO_T2_8,184,1,48,38,1342349196
238,9,Ticks_ISO_T2_8,185,5,42,127,1342397852
238,9,Ticks_ISO_T2_8,186,1,48,43,1343178700
238,9,Ticks_ISO_T2_8,187,5,42,127,1343197436
238,9,Ticks_ISO_T2_8,188,5,42,127,1343998296
238,9,Ticks_ISO_T2_8,189,1,48,26,1344009892
238,9,Ticks_ISO_T2_8,190,1,48,37,1344763580
238,9,Ticks_ISO_T2_8,191,5,42,127,1344797972
238,9,Ticks_ISO_T2_8,192,1,48,41,1345596424
238,9,Ticks_ISO_T2_8,193,5,42,127,1345598228
238,9,Ticks_ISO_T2_8,194,5,42,127,1346397668
238,9,Ticks_ISO_T2_8,195,1,48,43,1346424276
238,9,Ticks_ISO_T2_8,196,5,42,127,1347198300
238,9,Ticks_ISO_T2_8,197,1,48,34,1347257372
238,9,Ticks_ISO_T2_8,198,1,48,40,1347962688
238,9,Ticks_ISO_T2_8,199,5,42,127,1347998028
238,9,Ticks_ISO_T2_8,200,1,48,42,1348736844
238,9,Ticks_ISO_T2_8,201,5,42,127,1348797764
238,9,Ticks_ISO_T2_8,202,5,42,127,1349597576
238,9,Ticks_ISO_T2_8,203,1,48,45,1349604660
238,9,Ticks_ISO_T2_8,204,1,48,36,1350379992
238,9,Ticks_ISO_T2_8,205,5,42,127,1350398280
238,9,Ticks_ISO_T2_8,206,5,42,127,1351198044
238,9,Ticks_ISO_T2_8,207,1,48,40,1351220536
238,9,Ticks_ISO_T2_8,208,1,48,34,1351942884
238,9,Ticks_ISO_T2_8,209,5,42,127,1351997772
238,9,Ticks_ISO_T2_8,210,1,48,28,1352764184
238,9,Ticks_ISO_T2_8,211,5,42,127,1352797504
238,9,Ticks_ISO_T2_8,212,5,42,127,1353598440
238,9,Ticks_ISO_T2_8,213,1,48,37,1353606120
238,9,Ticks_ISO_T2_8,214,5,42,127,1354398176
238,9,Ticks_ISO_T2_8,215,1,48,28,1354409744
238,9,Ticks_ISO_T2_8,216,1,48,44,1355189188
238,9,Ticks_ISO_T2_8,217,5,42,127,1355197752
238,9,Ticks_ISO_T2_8,218,1,48,36,1355984432
238,9,Ticks_ISO_T2_8,219,5,42,127,1355997484
238,9,Ticks_ISO_T2_8,220,5,42,127,1356798420
238,9,Ticks_ISO_T2_8,221,1,48,23,1356832080
238,9,Ticks_ISO_T2_8,222,1,48,36,1357592448
238,9,Ticks_ISO_T2_8,223,5,42,127,1357598172
238,9,Ticks_ISO_T2_8,224,1,48,40,1358392932
238,9,Ticks_ISO_T2_8,225,5,42,127,1358397756
238,9,Ticks_ISO_T2_8,226,5,42,127,1359197420
238,9,Ticks_ISO_T2_8,227,1,48,32,1359236444
238,9,Ticks_ISO_T2_8,228,5,42,127,1359998424
238,9,Ticks_ISO_T2_8,229,1,48,25,1360049192
238,9,Ticks_ISO_T2_8,230,5,42,127,1360798160
238,9,Ticks_ISO_T2_8,231,1,48,42,1360821920
238,9,Ticks_ISO_T2_8,232,1,48,30,1361594932
238,9,Ticks_ISO_T2_8,233,5,42,127,1361597660
238,9,Ticks_ISO_T2_8,234,5,42,127,1362397476
238,9,Ticks_ISO_T2_8,235,1,48,27,1362456720
238,9,Ticks_ISO_T2_8,236,5,42,127,1363198404
238,9,Ticks_ISO_T2_8,237,1,48,29,1363239324
238,9,Ticks_ISO_T2_8,238,5,42,127,1363998092
238,9,Ticks_ISO_T2_8,239,1,48,45,1364001356
238,9,Ticks_ISO_T2_8,0,9999,9999,9999,1268795448
238,9,Ticks_ISO_T2_8,1,9999,9999,9999,1269595256
238,9,Ticks_ISO_T2_8,2,9999,9999,9999,1270395960
238,9,Ticks_ISO_T2_8,3,9999,9999,9999,1271195760
238,9,Ticks_ISO_T2_8,4,9999,9999,9999,1271995496
238,9,Ticks_ISO_T2_8,5,9999,9999,9999,1272795228
238,9,Ticks_ISO_T2_8,6,9999,9999,9999,1273596016
238,9,Ticks_ISO_T2_8,7,9999,9999,9999,1274395700
238,9,Ticks_ISO_T2_8,8,9999,9999,9999,1275195504
238,9,Ticks_ISO_T2_8,9,9999,9999,9999,1275995232
238,9,Ticks_ISO_T2_8,10,9999,9999,9999,1276796012
238,9,Ticks_ISO_T2_8,11,9999,9999,9999,1277595752
238,9,Ticks_ISO_T2_8,12,9999,9999,9999,1278395484
238,9,Ticks_ISO_T2_8,13,9999,9999,9999,1279195212
238,9,Ticks_ISO_T2_8,14,9999,9999,9999,1279995996
238,9,Ticks_ISO_T2_8,15,9999,9999,9999,1280795748
238,9,Ticks_ISO_T2_8,16,9999,9999,9999,1281595488
238,9,Ticks_ISO_T2_8,17,9999,9999,9999,1282395216
238,9,Ticks_ISO_T2_8,18,9999,9999,9999,1283195996
238,9,Ticks_ISO_T2_8,19,9999,9999,9999,1283995728
238,9,Ticks_ISO_T2_8,20,9999,9999,9999,1284795468
238,9,Ticks_ISO_T2_8,21,9999,9999,9999,1285595204
238,9,Ticks_ISO_T2_8,22,9999,9999,9999,1286395984
238,9,Ticks_ISO_T2_8,23,9999,9999,9999,1287195740
238,9,Ticks_ISO_T2_8,24,9999,9999,9999,1287995476
238,9,Ticks_ISO_T2_8,25,9999,9999,9999,1288795208
238,9,Ticks_ISO_T2_8,26,9999,9999,9999,1289595988
238,9,Ticks_ISO_T2_8,27,9999,9999,9999,1290395716
238,9,Ticks_ISO_T2_8,28,9999,9999,9999,1291195448
238,9,Ticks_ISO_T2_8,29,9999,9999,9999,1291995184
238,9,Ticks_ISO_T2_8,30,9999,9999,9999,1292795964
238,9,Ticks_ISO_T2_8,31,9999,9999,9999,1293595724
238,9,Ticks_ISO_T2_8,32,9999,9999,9999,1294395456
238,9,Ticks_ISO_T2_8,33,9999,9999,9999,1295195192
238,9,Ticks_ISO_T2_8,34,9999,9999,9999,1295995972
238,9,Ticks_ISO_T2_8,35,9999,9999,9999,1296795704
238,9,Ticks_ISO_T2_8,36,9999,9999,9999,1297595440
238,9,Ticks_ISO_T2_8,37,9999,9999,9999,1298395248
238,9,Ticks_ISO_T2_8,38,9999,9999,9999,1299195952
238,9,Ticks_ISO_T2_8,39,9999,9999,9999,1299995712
238,9,Ticks_ISO_T2_8,40,9999,9999,9999,1300795448
238,9,Ticks_ISO_T2_8,41,9999,9999,9999,1301595184
238,9,Ticks_ISO_T2_8,42,9999,9999,9999,1302395960
238,9,Ticks_ISO_T2_8,43,9999,9999,9999,1303195696
238,9,Ticks_ISO_T2_8,44,9999,9999,9999,1303995504
238,9,Ticks_ISO_T2_8,45,9999,9999,9999,1304795232
238,9,Ticks_ISO_T2_8,46,9999,9999,9999,1305596012
238,9,Ticks_ISO_T2_8,47,9999,9999,9999,1306395704
238,9,Ticks_ISO_T2_8,48,9999,9999,9999,1307195512
238,9,Ticks_ISO_T2_8,49,9999,9999,9999,1307995240
238,9,Ticks_ISO_T2_8,50,9999,9999,9999,1308796024
238,9,Ticks_ISO_T2_8,51,9999,9999,9999,1309595752
238,9,Ticks_ISO_T2_8,52,9999,9999,9999,1310395492
238,9,Ticks_ISO_T2_8,53,9999,9999,9999,1311195220
238,9,Ticks_ISO_T2_8,54,9999,9999,9999,1311996004
238,9,Ticks_ISO_T2_8,55,9999,9999,9999,1312795756
238,9,Ticks_ISO_T2_8,56,9999,9999,9999,1313595496
238,9,Ticks_ISO_T2_8,57,9999,9999,9999,1314395228
238,9,Ticks_ISO_T2_8,58,9999,9999,9999,1315196000
238,9,Ticks_ISO_T2_8,59,9999,9999,9999,1315995740
238,9,Ticks_ISO_T2_8,60,9999,9999,9999,1316795476
238,9,Ticks_ISO_T2_8,61,9999,9999,9999,1317595184
238,9,Ticks_ISO_T2_8,62,9999,9999,9999,1318395980
238,9,Ticks_ISO_T2_8,63,9999,9999,9999,1319195740
238,9,Ticks_ISO_T2_8,64,9999,9999,9999,1319995480
238,9,Ticks_ISO_T2_8,65,9999,9999,9999,1320795208
238,9,Ticks_ISO_T2_8,66,9999,9999,9999,1321595992
238,9,Ticks_ISO_T2_8,67,9999,9999,9999,1322395720
238,9,Ticks_ISO_T2_8,68,9999,9999,9999,1323195460
238,9,Ticks_ISO_T2_8,69,9999,9999,9999,1323995192
238,9,Ticks_ISO_T2_8,70,9999,9999,9999,1324795972
238,9,Ticks_ISO_T2_8,71,9999,9999,9999,1325595732
238,9,Ticks_ISO_T2_8,72,9999,9999,9999,1326395464
238,9,Ticks_ISO_T2_8,73,9999,9999,9999,1327195192
238,9,Ticks_ISO_T2_8,74,9999,9999,9999,1327995972
238,9,Ticks_ISO_T2_8,75,9999,9999,9999,1328795708
238,9,Ticks_ISO_T2_8,76,9999,9999,9999,1329595440
238,9,Ticks_ISO_T2_8,77,9999,9999,9999,1330395248
238,9,Ticks_ISO_T2_8,78,9999,9999,9999,1331195956
238,9,Ticks_ISO_T2_8,79,9999,9999,9999,1331995716
238,9,Ticks_ISO_T2_8,80,9999,9999,9999,1332795444
238,9,Ticks_ISO_T2_8,81,9999,9999,9999,1333595252
238,9,Ticks_ISO_T2_8,82,9999,9999,9999,1334395956
238,9,Ticks_ISO_T2_8,83,9999,9999,9999,1335195696
238,9,Ticks_ISO_T2_8,84,9999,9999,9999,1335995508
238,9,Ticks_ISO_T2_8,85,9999,9999,9999,1336795232
238,9,Ticks_ISO_T2_8,86,9999,9999,9999,1337596012
238,9,Ticks_ISO_T2_8,87,9999,9999,9999,1338395696
238,9,Ticks_ISO_T2_8,88,9999,9999,9999,1339195504
238,9,Ticks_ISO_T2_8,89,9999,9999,9999,1339995240
238,9,Ticks_ISO_T2_8,90,9999,9999,9999,1340796020
238,9,Ticks_ISO_T2_8,91,9999,9999,9999,1341595752
238,9,Ticks_ISO_T2_8,92,9999,9999,9999,1342395488
238,9,Ticks_ISO_T2_8,93,9999,9999,9999,1343195220
238,9,Ticks_ISO_T2_8,94,9999,9999,9999,1343996008
238,9,Ticks_ISO_T2_8,95,9999,9999,9999,1344795756
238,9,Ticks_ISO_T2_8,96,9999,9999,9999,1345595496
238,9,Ticks_ISO_T2_8,97,9999,9999,9999,1346395232
238,9,Ticks_ISO_T2_8,98,9999,9999,9999,1347196012
238,9,Ticks_ISO_T2_8,99,9999,9999,9999,1347995736
238,9,Ticks_ISO_T2_8,100,9999,9999,9999,1348795472
238,9,Ticks_ISO_T2_8,101,9999,9999,9999,1349595212
238,9,Ticks_ISO_T2_8,102,9999,9999,9999,1350395988
238,9,Ticks_ISO_T2_8,103,9999,9999,9999,1351195756
238,9,Ticks_ISO_T2_8,104,9999,9999,9999,1351995480
238,9,Ticks_ISO_T2_8,105,9999,9999,9999,1352795216
238,9,Ticks_ISO_T2_8,106,9999,9999,9999,1353596000
238,9,Ticks_ISO_T2_8,107,9999,9999,9999,1354395736
238,9,Ticks_ISO_T2_8,108,9999,9999,9999,1355195460
238,9,Ticks_ISO_T2_8,109,9999,9999,9999,1355995196
238,9,Ticks_ISO_T2_8,110,9999,9999,9999,1356795980
238,9,Ticks_ISO_T2_8,111,9999,9999,9999,1357595732
238,9,Ticks_ISO_T2_8,112,9999,9999,9999,1358395464
238,9,Ticks_ISO_T2_8,113,9999,9999,9999,1359195204
238,9,Ticks_ISO_T2_8,114,9999,9999,9999,1359995984
238,9,Ticks_ISO_T2_8,115,9999,9999,9999,1360795720
238,9,Ticks_ISO_T2_8,116,9999,9999,9999,1361595444
238,9,Ticks_ISO_T2_8,117,9999,9999,9999,1362395184
238,9,Ticks_ISO_T2_8,118,9999,9999,9999,1363195964
238,9,Ticks_ISO_T2_8,119,9999,9999,9999,1363995724
239,21,Ticks_Linear_5,0,5,42,127,1378062576
239,21,Ticks_Linear_5,1,1,48,28,1378293576
239,21,Ticks_Linear_5,2,5,42,127,1378542928
239,21,Ticks_Linear_5,3,1,48,35,1378752912
239,21,Ticks_Linear_5,4,5,42,127,1379023524
239,21,Ticks_Linear_5,5,1,48,32,1379193004
239,21,Ticks_Linear_5,6,5,42,127,1379502484
239,21,Ticks_Linear_5,7,1,48,22,1379731268
239,21,Ticks_Linear_5,8,5,42,127,1379982712
239,21,Ticks_Linear_5,9,5,42,127,1380473224
239,21,Ticks_Linear_5,10,1,48,34,1380610324
239,21,Ticks_Linear_5,11,5,42,127,1380962740
239,21,Ticks_Linear_5,12,1,48,32,1381086196
239,21,Ticks_Linear_5,13,5,42,127,1381453076
239,21,Ticks_Linear_5,14,1,48,39,1381490484
239,21,Ticks_Linear_5,15,5,42,127,1381942592
239,21,Ticks_Linear_5,16,1,48,41,1381952756
239,21,Ticks_Linear_5,17,5,42,127,1382433304
239,21,Ticks_Linear_5,18,1,48,40,1382447508
239,21,Ticks_Linear_5,19,5,42,127,1382933004
239,21,Ticks_Linear_5,20,1,48,39,1382935972
239,21,Ticks_Linear_5,21,5,42,127,1383432552
239,21,Ticks_Linear_5,22,1,48,37,1383439416
239,21,Ticks_Linear_5,23,5,42,127,1383933200
239,21,Ticks_Linear_5,24,1,48,39,1383945556
239,21,Ticks_Linear_5,25,5,42,127,1384433196
239,21,Ticks_Linear_5,26,1,48,39,1384464580
239,21,Ticks_Linear_5,27,5,42,127,1384932748
239,21,Ticks_Linear_5,28,1,48,39,1384957808
239,21,Ticks_Linear_5,29,1,48,39,1385442780
239,21,Ticks_Linear_5,30,5,42,127,1385444424
239,21,Ticks_Linear_5,31,1,48,39,1385927600
239,21,Ticks_Linear_5,32,5,42,127,1385952660
239,21,Ticks_Linear_5,33,1,48,35,1386442812
239,21,Ticks_Linear_5,34,5,42,127,1386462544
239,21,Ticks_Linear_5,35,1,48,39,1386968936
239,21,Ticks_Linear_5,36,5,42,127,1386972724
239,21,Ticks_Linear_5,37,1,48,40,1387481188
239,21,Ticks_Linear_5,38,5,42,127,1387482984
239,21,Ticks_Linear_5,39,1,48,37,1387987956
239,21,Ticks_Linear_5,40,5,42,127,1388002828
239,21,Ticks_Linear_5,41,5,42,127,1388523052
239,21,Ticks_Linear_5,42,1,48,33,1388533140
239,21,Ticks_Linear_5,43,1,48,35,1389039472
239,21,Ticks_Linear_5,44,5,42,127,1389043116
239,21,Ticks_Linear_5,45,1,48,34,1389526744
239,21,Ticks_Linear_5,46,5,42,127,1389563332
239,21,Ticks_Linear_5,47,1,48,36,1390077888
239,21,Ticks_Linear_5,48,5,42,127,1390082428
239,21,Ticks_Linear_5,49,1,48,32,1390585380
239,21,Ticks_Linear_5,50,5,42,127,1390612856
239,21,Ticks_Linear_5,51,1,48,33,1391108064
239,21,Ticks_Linear_5,52,5,42,127,1391143184
239,21,Ticks_Linear_5,53,1,48,33,1391618772
239,21,Ticks_Linear_5,54,5,42,127,1391672836
239,21,Ticks_Linear_5,55,1,48,32,1392184480
239,21,Ticks_Linear_5,56,5,42,127,1392203240
239,21,Ticks_Linear_5,57,1,48,37,1392712188
239,21,Ticks_Linear_5,58,5,42,127,1392732596
239,21,Ticks_Linear_5,59,1,48,44,1393264832
239,21,Ticks_Linear_5,60,5,42,127,1393273108
239,21,Ticks_Linear_5,61,1,48,37,1393803096
239,21,Ticks_Linear_5,62,5,42,127,1393812724
239,21,Ticks_Linear_5,63,1,48,44,1394338140
239,21,Ticks_Linear_5,64,5,42,127,1394352560
239,21,Ticks_Linear_5,65,1,48,30,1394870796
239,21,Ticks_Linear_5,66,5,42,127,1394893148
239,21,Ticks_Linear_5,67,1,48,44,1395398796
239,21,Ticks_Linear_5,68,5,42,127,1395432688
239,21,Ticks_Linear_5,69,1,48,46,1395961404
239,21,Ticks_Linear_5,70,5,42,127,1395982660
239,21,Ticks_Linear_5,71,1,48,42,1396530420
239,21,Ticks_Linear_5,72,5,42,127,1396532608
239,21,Ticks_Linear_5,73,5,42,127,1397082640
239,21,Ticks_Linear_5,74,1,48,48,1397098484
239,21,Ticks_Linear_5,75,5,42,127,1397633488
239,21,Ticks_Linear_5,76,1,48,40,1397636756
239,21,Ticks_Linear_5,77,5,42,127,1398183508
239,21,Ticks_Linear_5,78,1,48,36,1398184476
239,21,Ticks_Linear_5,79,5,42,127,1398743496
239,21,Ticks_Linear_5,80,1,48,34,1398754480
239,21,Ticks_Linear_5,81,1,48,38,1399262696
239,21,Ticks_Linear_5,82,5,42,127,1399302524
239,21,Ticks_Linear_5,83,1,48,35,1399850180
239,21,Ticks_Linear_5,84,5,42,127,1399862732
239,21,Ticks_Linear_5,85,1,48,36,1400393172
239,21,Ticks_Linear_5,86,5,42,127,1400422792
239,21,Ticks_Linear_5,87,1,48,21,1400458692
239,21,Ticks_Linear_5,88,1,48,39,1400949456
239,21,Ticks_Linear_5,89,5,42,127,1400982904
239,21,Ticks_Linear_5,90,1,48,42,1401517680
239,21,Ticks_Linear_5,91,5,42,127,1401553592
239,21,Ticks_Linear_5,92,1,48,26,1402117604
239,21,Ticks_Linear_5,93,5,42,127,1402122588
239,21,Ticks_Linear_5,94,1,48,41,1402690164
239,21,Ticks_Linear_5,95,5,42,127,1402692984
239,21,Ticks_Linear_5,96,1,48,38,1403200348
239,21,Ticks_Linear_5,97,5,42,127,1403263376
239,21,Ticks_Linear_5,98,1,48,43,1403780712
239,21,Ticks_Linear_5,99,5,42,127,1403832648
239,21,Ticks_Linear_5,100,1,48,41,1404369072
239,21,Ticks_Linear_5,101,5,42,127,1404413296
239,21,Ticks_Linear_5,102,1,48,44,1404940232
239,21,Ticks_Linear_5,103,5,42,127,1404992852
239,21,Ticks_Linear_5,104,1,48,38,1405539760
239,21,Ticks_Linear_5,105,5,42,127,1405572384
239,21,Ticks_Linear_5,106,1,48,42,1406110672
239,21,Ticks_Linear_5,107,5,42,127,1406153108
239,21,Ticks_Linear_5,108,1,48,35,1406654568
239,21,Ticks_Linear_5,109,5,42,127,1406732740
239,21,Ticks_Linear_5,110,1,48,40,1407190664
239,21,Ticks_Linear_5,111,5,42,127,1407322440
239,21,Ticks_Linear_5,112,1,48,40,1407842708
239,21,Ticks_Linear_5,113,5,42,127,1407913288
239,21,Ticks_Linear_5,114,1,48,40,1408462904
239,21,Ticks_Linear_5,115,5,42,127,1408503228
239,21,Ticks_Linear_5,116,1,48,22,1409063720
239,21,Ticks_Linear_5,117,5,42,127,1409093116
239,21,Ticks_Linear_5,118,1,48,44,1409663620
239,21,Ticks_Linear_5,119,5,42,127,1409682980
239,21,Ticks_Linear_5,120,1,48,41,1410237832
239,21,Ticks_Linear_5,121,5,42,127,1410283028
239,21,Ticks_Linear_5,122,1,48,38,1410835956
239,21,Ticks_Linear_5,123,5,42,127,1410882880
239,21,Ticks_Linear_5,124,1,48,41,1411441104
239,21,Ticks_Linear_5,125,5,42,127,1411482928
239,21,Ticks_Linear_5,126,1,48,28,1412071328
239,21,Ticks_Linear_5,127,5,42,127,1412083124
239,21,Ticks_Linear_5,128,1,48,44,1412654920
239,21,Ticks_Linear_5,129,5,42,127,1412683124
239,21,Ticks_Linear_5,130,1,48,30,1413233108
239,21,Ticks_Linear_5,131,5,42,127,1413293360
239,21,Ticks_Linear_5,132,1,48,43,1413842148
239,21,Ticks_Linear_5,133,5,42,127,1413912904
239,21,Ticks_Linear_5,134,1,48,46,1414455844
239,21,Ticks_Linear_5,135,5,42,127,1414523136
239,21,Ticks_Linear_5,136,1,48,47,1415074536
239,21,Ticks_Linear_5,137,5,42,127,1415132544
239,21,Ticks_Linear_5,138,1,48,35,1415734600
239,21,Ticks_Linear_5,139,5,42,127,1415742876
239,21,Ticks_Linear_5,140,1,48,51,1416359356
239,21,Ticks_Linear_5,141,5,42,127,1416363516
239,21,Ticks_Linear_5,142,1,48,43,1416962632
239,21,Ticks_Linear_5,143,5,42,127,1416982888
239,21,Ticks_Linear_5,144,5,42,127,1417602712
239,21,Ticks_Linear_5,145,1,48,43,1417604204
239,21,Ticks_Linear_5,146,1,48,46,1418202416
239,21,Ticks_Linear_5,147,5,42,127,1418222900
239,21,Ticks_Linear_5,148,5,42,127,1418842748
239,21,Ticks_Linear_5,149,1,48,42,1418856348
239,21,Ticks_Linear_5,150,1,48,43,1419447396
239,21,Ticks_Linear_5,151,5,42,127,1419473420
239,21,Ticks_Linear_5,152,1,48,52,1420071212
239,21,Ticks_Linear_5,153,5,42,127,1420103076
239,21,Ticks_Linear_5,154,1,48,23,1420731656
239,21,Ticks_Linear_5,155,5,42,127,1420733528
239,21,Ticks_Linear_5,156,1,48,47,1421334160
239,21,Ticks_Linear_5,157,5,42,127,1421362656
239,21,Ticks_Linear_5,158,1,48,49,1421939220
239,21,Ticks_Linear_5,159,5,42,127,1421993484
239,21,Ticks_Linear_5,160,1,48,35,1422581512
239,21,Ticks_Linear_5,161,5,42,127,1422633472
239,21,Ticks_Linear_5,162,1,48,46,1423213788
239,21,Ticks_Linear_5,163,5,42,127,1423273288
239,21,Ticks_Linear_5,164,1,48,37,1423835176
239,21,Ticks_Linear_5,165,5,42,127,1423913348
239,21,Ticks_Linear_5,166,1,48,48,1424495528
239,21,Ticks_Linear_5,167,5,42,127,1424553308
239,21,Ticks_Linear_5,168,1,48,30,1425149644
239,21,Ticks_Linear_5,169,5,42,127,1425193448
239,21,Ticks_Linear_5,170,1,48,40,1425817196
239,21,Ticks_Linear_5,171,5,42,127,1425842624
239,21,Ticks_Linear_5,172,1,48,38,1426401072
239,21,Ticks_Linear_5,173,5,42,127,1426492796
239,21,Ticks_Linear_5,174,1,48,37,1427037980
239,21,Ticks_Linear_5,175,5,42,127,1427143228
239,21,Ticks_Linear_5,176,1,48,36,1427738180
239,21,Ticks_Linear_5,177,5,42,127,1427793340
239,21,Ticks_Linear_5,178,1,48,27,1428437456
239,21,Ticks_Linear_5,179,5,42,127,1428442444
239,21,Ticks_Linear_5,180,1,48,33,1429094968
239,21,Ticks_Linear_5,181,5,42,127,1429102948
239,21,Ticks_Linear_5,182,1,48,45,1429735904
239,21,Ticks_Linear_5,183,5,42,127,1429762408
239,21,Ticks_Linear_5,184,1,48,43,1430394092
239,21,Ticks_Linear_5,185,5,42,127,1430422888
239,21,Ticks_Linear_5,186,1,48,45,1431039072
239,21,Ticks_Linear_5,187,5,42,127,1431083320
239,21,Ticks_Linear_5,188,1,48,38,1431736048
239,21,Ticks_Linear_5,189,5,42,127,1431742980
239,21,Ticks_Linear_5,190,1,48,29,1432362044
239,21,Ticks_Linear_5,191,5,42,127,1432412480
239,21,Ticks_Linear_5,192,1,48,33,1433000272
239,21,Ticks_Linear_5,193,5,42,127,1433083220
239,21,Ticks_Linear_5,194,1,48,36,1433667676
239,21,Ticks_Linear_5,195,5,42,127,1433753016
239,21,Ticks_Linear_5,196,1,48,49,1434369964
239,21,Ticks_Linear_5,197,5,42,127,1434422880
239,21,Ticks_Linear_5,198,1,48,43,1435006932
239,21,Ticks_Linear_5,199,5,42,127,1435093252
239,21,Ticks_Linear_5,200,1,48,33,1435717616
239,21,Ticks_Linear_5,201,5,42,127,1435773380
239,21,Ticks_Linear_5,202,1,48,54,1436413456
239,21,Ticks_Linear_5,203,5,42,127,1436453208
239,21,Ticks_Linear_5,204,5,42,127,1437133096
239,21,Ticks_Linear_5,205,1,48,31,1437145720
239,21,Ticks_Linear_5,206,1,48,40,1437813220
239,21,Ticks_Linear_5,207,5,42,127,1437814780
239,21,Ticks_Linear_5,208,1,48,51,1438474204
239,21,Ticks_Linear_5,209,5,42,127,1438492968
239,21,Ticks_Linear_5,210,5,42,127,1439183188
239,21,Ticks_Linear_5,211,1,48,54,1439187060
239,21,Ticks_Linear_5,212,5,42,127,1439873352
239,21,Ticks_Linear_5,213,1,48,29,1439882988
239,21,Ticks_Linear_5,214,1,48,49,1440557020
239,21,Ticks_Linear_5,215,5,42,127,1440562536
239,21,Ticks_Linear_5,216,1,48,46,1441245740
239,21,Ticks_Linear_5,217,5,42,127,1441252748
239,21,Ticks_Linear_5,218,1,48,62,1441885052
239,21,Ticks_Linear_5,219,5,42,127,1441942984
239,21,Ticks_Linear_5,220,1,48,61,1442620144
239,21,Ticks_Linear_5,221,5,42,127,1442643556
239,21,Ticks_Linear_5,222,1,48,55,1443276364
239,21,Ticks_Linear_5,223,5,42,127,1443342708
239,21,Ticks_Linear_5,224,1,48,49,1443987496
239,21,Ticks_Linear_5,225,5,42,127,1444043252
239,21,Ticks_Linear_5,226,1,48,51,1444687392
239,21,Ticks_Linear_5,227,5,42,127,1444742552
239,21,Ticks_Linear_5,228,1,48,56,1445438960
239,21,Ticks_Linear_5,229,5,42,127,1445442824
239,21,Ticks_Linear_5,230,1,48,44,1446093160
239,21,Ticks_Linear_5,231,5,42,127,1446152532
239,21,Ticks_Linear_5,232,1,48,43,1446847048
239,21,Ticks_Linear_5,233,5,42,127,1446863340
239,21,Ticks_Linear_5,234,1,48,32,1447554064
239,21,Ticks_Linear_5,235,5,42,127,1447572748
239,21,Ticks_Linear_5,236,1,48,46,1448247892
239,21,Ticks_Linear_5,237,5,42,127,1448282536
239,21,Ticks_Linear_5,238,1,48,48,1448900280
239,21,Ticks_Linear_5,239,5,42,127,1448993648
239,21,Ticks_Linear_5,240,1,48,47,1449617784
239,21,Ticks_Linear_5,241,5,42,127,1449713156
239,21,Ticks_Linear_5,242,1,48,51,1450401116
239,21,Ticks_Linear_5,243,5,42,127,1450432828
239,21,Ticks_Linear_5,244,5,42,127,1451152700
239,21,Ticks_Linear_5,245,1,48,33,1451182708
239,21,Ticks_Linear_5,246,1,48,43,1451854572
239,21,Ticks_Linear_5,247,5,42,127,1451872664
239,21,Ticks_Linear_5,248,1,48,46,1452555444
239,21,Ticks_Linear_5,249,5,42,127,1452592408
239,21,Ticks_Linear_5,250,1,48,50,1453269244
239,21,Ticks_Linear_5,251,5,42,127,1453322632
239,21,Ticks_Linear_5,252,1,48,50,1453972216
239,21,Ticks_Linear_5,253,5,42,127,1454052984
239,21,Ticks_Linear_5,254,1,48,38,1454700952
239,21,Ticks_Linear_5,255,5,42,127,1454782988
239,21,Ticks_Linear_5,256,1,48,39,1455418064
239,21,Ticks_Linear_5,257,5,42,127,1455512844
239,21,Ticks_Linear_5,258,1,48,46,1456108656
239,21,Ticks_Linear_5,259,5,42,127,1456242980
239,21,Ticks_Linear_5,260,1,48,48,1456838652
239,21,Ticks_Linear_5,261,5,42,127,1456983320
239,21,Ticks_Linear_5,262,1,48,47,1457604012
239,21,Ticks_Linear_5,263,5,42,127,1457722904
239,21,Ticks_Linear_5,264,1,48,49,1458461908
239,21,Ticks_Linear_5,265,5,42,127,1458463856
239,21,Ticks_Linear_5,266,1,48,43,1459192224
239,21,Ticks_Linear_5,267,5,42,127,1459202544
239,21,Ticks_Linear_5,268,1,48,45,1459900048
239,21,Ticks_Linear_5,269,5,42,127,1459942708
239,21,Ticks_Linear_5,270,1,48,45,1460639636
239,21,Ticks_Linear_5,271,5,42,127,1460693304
239,21,Ticks_Linear_5,272,1,48,46,1461413680
239,21,Ticks_Linear_5,273,5,42,127,1461442856
239,21,Ticks_Linear_5,274,1,48,38,1462123464
239,21,Ticks_Linear_5,275,5,42,127,1462192776
239,21,Ticks_Linear_5,276,1,48,47,1462853024
239,21,Ticks_Linear_5,277,5,42,127,1462943000
239,21,Ticks_Linear_5,278,1,48,37,1463595308
239,21,Ticks_Linear_5,279,5,42,127,1463692700
239,21,Ticks_Linear_5,280,1,48,34,1464421696
239,21,Ticks_Linear_5,281,5,42,127,1464452660
239,21,Ticks_Linear_5,282,1,48,42,1465174384
239,21,Ticks_Linear_5,283,5,42,127,1465213512
239,21,Ticks_Linear_5,284,1,48,43,1465943408
239,21,Ticks_Linear_5,285,5,42,127,1465973248
239,21,Ticks_Linear_5,286,1,48,37,1466691684
239,21,Ticks_Linear_5,287,5,42,127,1466732984
239,21,Ticks_Linear_5,288,1,48,45,1467431052
239,21,Ticks_Linear_5,289,5,42,127,1467492940
239,21,Ticks_Linear_5,290,1,48,44,1468209568
239,21,Ticks_Linear_5,291,5,42,127,1468262636
239,21,Ticks_Linear_5,292,1,48,34,1468968032
239,21,Ticks_Linear_5,293,5,42,127,1469032776
239,21,Ticks_Linear_5,294,1,48,37,1469720812
239,21,Ticks_Linear_5,295,5,42,127,1469802772
239,21,Ticks_Linear_5,296,5,42,127,1470572920
239,21,Ticks_Linear_5,297,1,48,43,1470574184
239,21,Ticks_Linear_5,298,1,48,38,1471251956
239,21,Ticks_Linear_5,299,5,42,127,1471343056
239,21,Ticks_Linear_5,300,1,48,37,1472081336
239,21,Ticks_Linear_5,301,5,42,127,1472123456
239,21,Ticks_Linear_5,302,1,48,32,1472828928
239,21,Ticks_Linear_5,303,5,42,127,1472902516
239,21,Ticks_Linear_5,304,1,48,32,1473628428
239,21,Ticks_Linear_5,305,5,42,127,1473682764
239,21,Ticks_Linear_5,306,1,48,20,1474444332
239,21,Ticks_Linear_5,307,5,42,127,1474463168
239,21,Ticks_Linear_5,308,1,48,38,1475185336
239,21,Ticks_Linear_5,309,5,42,127,1475243272
239,21,Ticks_Linear_5,310,1,48,37,1475936008
239,21,Ticks_Linear_5,311,5,42,127,1476033016
239,21,Ticks_Linear_5,312,1,48,43,1476683316
239,21,Ticks_Linear_5,313,5,42,127,1476823456
239,21,Ticks_Linear_5,314,1,48,35,1477451512
239,21,Ticks_Linear_5,315,5,42,127,1477612920
239,21,Ticks_Linear_5,316,1,48,42,1478354652
239,21,Ticks_Linear_5,317,5,42,127,1478402424
239,21,Ticks_Linear_5,318,1,48,35,1479135728
239,21,Ticks_Linear_5,319,5,42,127,1479193084
239,21,Ticks_Linear_5,320,1,48,39,1479896884
239,21,Ticks_Linear_5,321,5,42,127,1479992868
239,21,Ticks_Linear_5,322,1,48,28,1480684176
239,21,Ticks_Linear_5,323,5,42,127,1480792516
239,21,Ticks_Linear_5,324,1,48,44,1481457536
239,21,Ticks_Linear_5,325,5,42,127,1481593208
239,21,Ticks_Linear_5,326,5,42,127,1482392956
239,21,Ticks_Linear_5,327,1,48,49,1482428428
239,21,Ticks_Linear_5,328,1,48,48,1483157880
239,21,Ticks_Linear_5,329,5,42,127,1483192896
239,21,Ticks_Linear_5,330,1,48,43,1483890424
239,21,Ticks_Linear_5,331,5,42,127,1484002716
239,21,Ticks_Linear_5,332,1,48,38,1484784964
239,21,Ticks_Linear_5,333,5,42,127,1484812740
239,21,Ticks_Linear_5,334,1,48,34,1485593400
239,21,Ticks_Linear_5,335,5,42,127,1485622800
239,21,Ticks_Linear_5,336,1,48,44,1486385108
239,21,Ticks_Linear_5,337,5,42,127,1486432632
239,21,Ticks_Linear_5,338,1,48,27,1487182216
239,21,Ticks_Linear_5,339,5,42,127,1487242692
239,21,Ticks_Linear_5,0,9999,9999,9999,1378060352
239,21,Ticks_Linear_5,1,9999,9999,9999,1378540628
239,21,Ticks_Linear_5,2,9999,9999,9999,1379020856
239,21,Ticks_Linear_5,3,9999,9999,9999,1379500112
239,21,Ticks_Linear_5,4,9999,9999,9999,1379980412
239,21,Ticks_Linear_5,5,9999,9999,9999,1380470848
239,21,Ticks_Linear_5,6,9999,9999,9999,1380960364
239,21,Ticks_Linear_5,7,9999,9999,9999,1381450852
239,21,Ticks_Linear_5,8,9999,9999,9999,1381940292
239,21,Ticks_Linear_5,9,9999,9999,9999,1382430780
239,21,Ticks_Linear_5,10,9999,9999,9999,1382930556
239,21,Ticks_Linear_5,11,9999,9999,9999,1383430256
239,21,Ticks_Linear_5,12,9999,9999,9999,1383930976
239,21,Ticks_Linear_5,13,9999,9999,9999,1384430676
239,21,Ticks_Linear_5,14,9999,9999,9999,1384930376
239,21,Ticks_Linear_5,15,9999,9999,9999,1385440336
239,21,Ticks_Linear_5,16,9999,9999,9999,1385950288
239,21,Ticks_Linear_5,17,9999,9999,9999,1386460248
239,21,Ticks_Linear_5,18,9999,9999,9999,1386970204
239,21,Ticks_Linear_5,19,9999,9999,9999,1387480172
239,21,Ticks_Linear_5,20,9999,9999,9999,1388000384
239,21,Ticks_Linear_5,21,9999,9999,9999,1388520532
239,21,Ticks_Linear_5,22,9999,9999,9999,1389040744
239,21,Ticks_Linear_5,23,9999,9999,9999,1389560960
239,21,Ticks_Linear_5,24,9999,9999,9999,1390080056
239,21,Ticks_Linear_5,25,9999,9999,9999,1390610560
239,21,Ticks_Linear_5,26,9999,9999,9999,1391140960
239,21,Ticks_Linear_5,27,9999,9999,9999,1391670392
239,21,Ticks_Linear_5,28,9999,9999,9999,1392200792
239,21,Ticks_Linear_5,29,9999,9999,9999,1392730224
239,21,Ticks_Linear_5,30,9999,9999,9999,1393270884
239,21,Ticks_Linear_5,31,9999,9999,9999,1393810500
239,21,Ticks_Linear_5,32,9999,9999,9999,1394350188
239,21,Ticks_Linear_5,33,9999,9999,9999,1394890848
239,21,Ticks_Linear_5,34,9999,9999,9999,1395430464
239,21,Ticks_Linear_5,35,9999,9999,9999,1395980364
239,21,Ticks_Linear_5,36,9999,9999,9999,1396530276
239,21,Ticks_Linear_5,37,9999,9999,9999,1397080116
239,21,Ticks_Linear_5,38,9999,9999,9999,1397631040
239,21,Ticks_Linear_5,39,9999,9999,9999,1398180988
239,21,Ticks_Linear_5,40,9999,9999,9999,1398741048
239,21,Ticks_Linear_5,41,9999,9999,9999,1399300152
239,21,Ticks_Linear_5,42,9999,9999,9999,1399860284
239,21,Ticks_Linear_5,43,9999,9999,9999,1400420420
239,21,Ticks_Linear_5,44,9999,9999,9999,1400980604
239,21,Ticks_Linear_5,45,9999,9999,9999,1401550920
239,21,Ticks_Linear_5,46,9999,9999,9999,1402120292
239,21,Ticks_Linear_5,47,9999,9999,9999,1402690684
239,21,Ticks_Linear_5,48,9999,9999,9999,1403261004
239,21,Ticks_Linear_5,49,9999,9999,9999,1403830348
239,21,Ticks_Linear_5,50,9999,9999,9999,1404411000
239,21,Ticks_Linear_5,51,9999,9999,9999,1404990556
239,21,Ticks_Linear_5,52,9999,9999,9999,1405570156
239,21,Ticks_Linear_5,53,9999,9999,9999,1406150736
239,21,Ticks_Linear_5,54,9999,9999,9999,1406730368
239,21,Ticks_Linear_5,55,9999,9999,9999,1407320140
239,21,Ticks_Linear_5,56,9999,9999,9999,1407910992
239,21,Ticks_Linear_5,57,9999,9999,9999,1408500856
239,21,Ticks_Linear_5,58,9999,9999,9999,1409090668
239,21,Ticks_Linear_5,59,9999,9999,9999,1409680460
239,21,Ticks_Linear_5,60,9999,9999,9999,1410280508
239,21,Ticks_Linear_5,61,9999,9999,9999,1410880580
239,21,Ticks_Linear_5,62,9999,9999,9999,1411480628
239,21,Ticks_Linear_5,63,9999,9999,9999,1412080752
239,21,Ticks_Linear_5,64,9999,9999,9999,1412680824
239,21,Ticks_Linear_5,65,9999,9999,9999,1413291132
239,21,Ticks_Linear_5,66,9999,9999,9999,1413910604
239,21,Ticks_Linear_5,67,9999,9999,9999,1414520912
239,21,Ticks_Linear_5,68,9999,9999,9999,1415130172
239,21,Ticks_Linear_5,69,9999,9999,9999,1415740504
239,21,Ticks_Linear_5,70,9999,9999,9999,1416361072
239,21,Ticks_Linear_5,71,9999,9999,9999,1416980592
239,21,Ticks_Linear_5,72,9999,9999,9999,1417600116
239,21,Ticks_Linear_5,73,9999,9999,9999,1418220604
239,21,Ticks_Linear_5,74,9999,9999,9999,1418840152
239,21,Ticks_Linear_5,75,9999,9999,9999,1419470972
239,21,Ticks_Linear_5,76,9999,9999,9999,1420100704
239,21,Ticks_Linear_5,77,9999,9999,9999,1420730488
239,21,Ticks_Linear_5,78,9999,9999,9999,1421360212
239,21,Ticks_Linear_5,79,9999,9999,9999,1421991036
239,21,Ticks_Linear_5,80,9999,9999,9999,1422631024
239,21,Ticks_Linear_5,81,9999,9999,9999,1423270988
239,21,Ticks_Linear_5,82,9999,9999,9999,1423910976
239,21,Ticks_Linear_5,83,9999,9999,9999,1424551012
239,21,Ticks_Linear_5,84,9999,9999,9999,1425191000
239,21,Ticks_Linear_5,85,9999,9999,9999,1425840252
239,21,Ticks_Linear_5,86,9999,9999,9999,1426490424
239,21,Ticks_Linear_5,87,9999,9999,9999,1427140704
239,21,Ticks_Linear_5,88,9999,9999,9999,1427790968
239,21,Ticks_Linear_5,89,9999,9999,9999,1428440144
239,21,Ticks_Linear_5,90,9999,9999,9999,1429100652
239,21,Ticks_Linear_5,91,9999,9999,9999,1429760088
239,21,Ticks_Linear_5,92,9999,9999,9999,1430420592
239,21,Ticks_Linear_5,93,9999,9999,9999,1431081024
239,21,Ticks_Linear_5,94,9999,9999,9999,1431740532
239,21,Ticks_Linear_5,95,9999,9999,9999,1432410180
239,21,Ticks_Linear_5,96,9999,9999,9999,1433080924
239,21,Ticks_Linear_5,97,9999,9999,9999,1433750644
239,21,Ticks_Linear_5,98,9999,9999,9999,1434420288
239,21,Ticks_Linear_5,99,9999,9999,9999,1435091024
239,21,Ticks_Linear_5,100,9999,9999,9999,1435771008
239,21,Ticks_Linear_5,101,9999,9999,9999,1436450912
239,21,Ticks_Linear_5,102,9999,9999,9999,1437130868
239,21,Ticks_Linear_5,103,9999,9999,9999,1437810772
239,21,Ticks_Linear_5,104,9999,9999,9999,1438490744
239,21,Ticks_Linear_5,105,9999,9999,9999,1439180888
239,21,Ticks_Linear_5,106,9999,9999,9999,1439871052
239,21,Ticks_Linear_5,107,9999,9999,9999,1440560236
239,21,Ticks_Linear_5,108,9999,9999,9999,1441250376
239,21,Ticks_Linear_5,109,9999,9999,9999,1441940536
239,21,Ticks_Linear_5,110,9999,9999,9999,1442640960
239,21,Ticks_Linear_5,111,9999,9999,9999,1443340408
239,21,Ticks_Linear_5,112,9999,9999,9999,1444040804
239,21,Ticks_Linear_5,113,9999,9999,9999,1444740180
239,21,Ticks_Linear_5,114,9999,9999,9999,1445440600
239,21,Ticks_Linear_5,115,9999,9999,9999,1446150236
239,21,Ticks_Linear_5,116,9999,9999,9999,1446860892
239,21,Ticks_Linear_5,117,9999,9999,9999,1447570528
239,21,Ticks_Linear_5,118,9999,9999,9999,1448280160
239,21,Ticks_Linear_5,119,9999,9999,9999,1448990840
239,21,Ticks_Linear_5,120,9999,9999,9999,1449710712
239,21,Ticks_Linear_5,121,9999,9999,9999,1450430532
239,21,Ticks_Linear_5,122,9999,9999,9999,1451150404
239,21,Ticks_Linear_5,123,9999,9999,9999,1451870292
239,21,Ticks_Linear_5,124,9999,9999,9999,1452590184
239,21,Ticks_Linear_5,125,9999,9999,9999,1453320260
239,21,Ticks_Linear_5,126,9999,9999,9999,1454050388
239,21,Ticks_Linear_5,127,9999,9999,9999,1454780540
239,21,Ticks_Linear_5,128,9999,9999,9999,1455510620
239,21,Ticks_Linear_5,129,9999,9999,9999,1456240756
239,21,Ticks_Linear_5,130,9999,9999,9999,1456981092
239,21,Ticks_Linear_5,131,9999,9999,9999,1457720384
239,21,Ticks_Linear_5,132,9999,9999,9999,1458460744
239,21,Ticks_Linear_5,133,9999,9999,9999,1459200100
239,21,Ticks_Linear_5,134,9999,9999,9999,1459940412
239,21,Ticks_Linear_5,135,9999,9999,9999,1460691004
239,21,Ticks_Linear_5,136,9999,9999,9999,1461440632
239,21,Ticks_Linear_5,137,9999,9999,9999,1462190180
239,21,Ticks_Linear_5,138,9999,9999,9999,1462940776
239,21,Ticks_Linear_5,139,9999,9999,9999,1463690328
239,21,Ticks_Linear_5,140,9999,9999,9999,1464450136
239,21,Ticks_Linear_5,141,9999,9999,9999,1465210992
239,21,Ticks_Linear_5,142,9999,9999,9999,1465970800
239,21,Ticks_Linear_5,143,9999,9999,9999,1466730612
239,21,Ticks_Linear_5,144,9999,9999,9999,1467490420
239,21,Ticks_Linear_5,145,9999,9999,9999,1468260412
239,21,Ticks_Linear_5,146,9999,9999,9999,1469030480
239,21,Ticks_Linear_5,147,9999,9999,9999,1469800548
239,21,Ticks_Linear_5,148,9999,9999,9999,1470570620
239,21,Ticks_Linear_5,149,9999,9999,9999,1471340608
239,21,Ticks_Linear_5,150,9999,9999,9999,1472120936
239,21,Ticks_Linear_5,151,9999,9999,9999,1472900216
239,21,Ticks_Linear_5,152,9999,9999,9999,1473680468
239,21,Ticks_Linear_5,153,9999,9999,9999,1474460796
239,21,Ticks_Linear_5,154,9999,9999,9999,1475241048
239,21,Ticks_Linear_5,155,9999,9999,9999,1476030584
239,21,Ticks_Linear_5,156,9999,9999,9999,1476821084
239,21,Ticks_Linear_5,157,9999,9999,9999,1477610620
239,21,Ticks_Linear_5,158,9999,9999,9999,1478400124
239,21,Ticks_Linear_5,159,9999,9999,9999,1479190636
239,21,Ticks_Linear_5,160,9999,9999,9999,1479990344
239,21,Ticks_Linear_5,161,9999,9999,9999,1480790144
239,21,Ticks_Linear_5,162,9999,9999,9999,1481590912
239,21,Ticks_Linear_5,163,9999,9999,9999,1482390584
239,21,Ticks_Linear_5,164,9999,9999,9999,1483190372
239,21,Ticks_Linear_5,165,9999,9999,9999,1484000344
239,21,Ticks_Linear_5,166,9999,9999,9999,1484810292
239,21,Ticks_Linear_5,167,9999,9999,9999,1485620276
239,21,Ticks_Linear_5,168,9999,9999,9999,1486430336
239,21,Ticks_Linear_5,169,9999,9999,9999,1487240316
2310,20,Ticks_Linear_8,0,5,42,127,1502808356
2310,20,Ticks_Linear_8,1,1,48,31,1503452032
2310,20,Ticks_Linear_8,2,5,42,127,1503628672
2310,20,Ticks_Linear_8,3,1,48,44,1504363212
2310,20,Ticks_Linear_8,4,5,42,127,1504448856
2310,20,Ticks_Linear_8,5,1,48,51,1505206532
2310,20,Ticks_Linear_8,6,5,42,127,1505269096
2310,20,Ticks_Linear_8,7,1,48,48,1506054792
2310,20,Ticks_Linear_8,8,5,42,127,1506089292
2310,20,Ticks_Linear_8,9,1,48,43,1506851904
2310,20,Ticks_Linear_8,10,5,42,127,1506899272
2310,20,Ticks_Linear_8,11,1,48,37,1507704416
2310,20,Ticks_Linear_8,12,5,42,127,1507709404
2310,20,Ticks_Linear_8,13,1,48,49,1508482056
2310,20,Ticks_Linear_8,14,5,42,127,1508519464
2310,20,Ticks_Linear_8,15,1,48,40,1509308668
2310,20,Ticks_Linear_8,16,5,42,127,1509329224
2310,20,Ticks_Linear_8,17,1,48,46,1510112948
2310,20,Ticks_Linear_8,18,5,42,127,1510139356
2310,20,Ticks_Linear_8,19,1,48,47,1510893472
2310,20,Ticks_Linear_8,20,5,42,127,1510938928
2310,20,Ticks_Linear_8,21,5,42,127,1511738808
2310,20,Ticks_Linear_8,22,1,48,47,1511757288
2310,20,Ticks_Linear_8,23,5,42,127,1512538460
2310,20,Ticks_Linear_8,24,1,48,46,1512543596
2310,20,Ticks_Linear_8,25,1,48,48,1513314688
2310,20,Ticks_Linear_8,26,5,42,127,1513339296
2310,20,Ticks_Linear_8,27,1,48,44,1514123700
2310,20,Ticks_Linear_8,28,5,42,127,1514138872
2310,20,Ticks_Linear_8,29,5,42,127,1514928568
2310,20,Ticks_Linear_8,30,1,48,63,1514957452
2310,20,Ticks_Linear_8,31,5,42,127,1515719152
2310,20,Ticks_Linear_8,32,1,48,59,1515745032
2310,20,Ticks_Linear_8,33,5,42,127,1516508392
2310,20,Ticks_Linear_8,34,1,48,54,1516521624
2310,20,Ticks_Linear_8,35,5,42,127,1517299128
2310,20,Ticks_Linear_8,36,1,48,53,1517306360
2310,20,Ticks_Linear_8,37,1,48,56,1518040912
2310,20,Ticks_Linear_8,38,5,42,127,1518088612
2310,20,Ticks_Linear_8,39,5,42,127,1518869020
2310,20,Ticks_Linear_8,40,1,48,48,1518896856
2310,20,Ticks_Linear_8,41,1,48,50,1519627884
2310,20,Ticks_Linear_8,42,5,42,127,1519649116
2310,20,Ticks_Linear_8,43,5,42,127,1520429452
2310,20,Ticks_Linear_8,44,1,48,43,1520432496
2310,20,Ticks_Linear_8,45,1,48,20,1521213244
2310,20,Ticks_Linear_8,46,5,42,127,1521219060
2310,20,Ticks_Linear_8,47,5,42,127,1521999320
2310,20,Ticks_Linear_8,48,1,48,36,1522003484
2310,20,Ticks_Linear_8,49,5,42,127,1522769312
2310,20,Ticks_Linear_8,50,1,48,36,1522784108
2310,20,Ticks_Linear_8,51,1,48,45,1523524496
2310,20,Ticks_Linear_8,52,5,42,127,1523539300
2310,20,Ticks_Linear_8,53,1,48,48,1524286644
2310,20,Ticks_Linear_8,54,5,42,127,1524309296
2310,20,Ticks_Linear_8,55,5,42,127,1525079520
2310,20,Ticks_Linear_8,56,1,48,48,1525110052
2310,20,Ticks_Linear_8,57,1,48,39,1525843996
2310,20,Ticks_Linear_8,58,5,42,127,1525848388
2310,20,Ticks_Linear_8,59,1,48,34,1526581940
2310,20,Ticks_Linear_8,60,5,42,127,1526609168
2310,20,Ticks_Linear_8,61,1,48,18,1527293888
2310,20,Ticks_Linear_8,62,5,42,127,1527368976
2310,20,Ticks_Linear_8,63,1,48,32,1527986588
2310,20,Ticks_Linear_8,64,5,42,127,1528128768
2310,20,Ticks_Linear_8,65,1,48,28,1528814304
2310,20,Ticks_Linear_8,66,5,42,127,1528888964
2310,20,Ticks_Linear_8,67,1,48,39,1529562436
2310,20,Ticks_Linear_8,68,5,42,127,1529648624
2310,20,Ticks_Linear_8,69,1,48,37,1530389672
2310,20,Ticks_Linear_8,70,5,42,127,1530399000
2310,20,Ticks_Linear_8,71,1,48,44,1531138920
2310,20,Ticks_Linear_8,72,5,42,127,1531148772
2310,20,Ticks_Linear_8,73,1,48,48,1531874880
2310,20,Ticks_Linear_8,74,5,42,127,1531899292
2310,20,Ticks_Linear_8,75,5,42,127,1532648748
2310,20,Ticks_Linear_8,76,1,48,44,1532665488
2310,20,Ticks_Linear_8,77,1,48,48,1533378160
2310,20,Ticks_Linear_8,78,5,42,127,1533399688
2310,20,Ticks_Linear_8,79,5,42,127,1534138688
2310,20,Ticks_Linear_8,80,1,48,52,1534145020
2310,20,Ticks_Linear_8,81,1,48,51,1534864444
2310,20,Ticks_Linear_8,82,5,42,127,1534879240
2310,20,Ticks_Linear_8,83,5,42,127,1535618388
2310,20,Ticks_Linear_8,84,1,48,46,1535642176
2310,20,Ticks_Linear_8,85,1,48,43,1536356196
2310,20,Ticks_Linear_8,86,5,42,127,1536358720
2310,20,Ticks_Linear_8,87,5,42,127,1537098988
2310,20,Ticks_Linear_8,88,1,48,39,1537161272
2310,20,Ticks_Linear_8,89,1,48,47,1537806488
2310,20,Ticks_Linear_8,90,5,42,127,1537829508
2310,20,Ticks_Linear_8,91,1,48,42,1538493916
2310,20,Ticks_Linear_8,92,5,42,127,1538559364
2310,20,Ticks_Linear_8,93,1,48,43,1539258076
2310,20,Ticks_Linear_8,94,5,42,127,1539288372
2310,20,Ticks_Linear_8,95,1,48,47,1540018976
2310,20,Ticks_Linear_8,96,5,42,127,1540020396
2310,20,Ticks_Linear_8,97,5,42,127,1540748608
2310,20,Ticks_Linear_8,98,1,48,37,1540805192
2310,20,Ticks_Linear_8,99,5,42,127,1541468428
2310,20,Ticks_Linear_8,100,1,48,49,1541503592
2310,20,Ticks_Linear_8,101,5,42,127,1542189368
2310,20,Ticks_Linear_8,102,1,48,41,1542247084
2310,20,Ticks_Linear_8,103,5,42,127,1542918548
2310,20,Ticks_Linear_8,104,1,48,39,1542948108
2310,20,Ticks_Linear_8,105,1,48,36,1543637016
2310,20,Ticks_Linear_8,106,5,42,127,1543639460
2310,20,Ticks_Linear_8,107,5,42,127,1544359284
2310,20,Ticks_Linear_8,108,1,48,37,1544373932
2310,20,Ticks_Linear_8,109,5,42,127,1545069144
2310,20,Ticks_Linear_8,110,1,48,45,1545113372
2310,20,Ticks_Linear_8,111,5,42,127,1545778480
2310,20,Ticks_Linear_8,112,1,48,36,1545838588
2310,20,Ticks_Linear_8,113,5,42,127,1546489308
2310,20,Ticks_Linear_8,114,1,48,47,1546490424
2310,20,Ticks_Linear_8,115,1,48,44,1547181716
2310,20,Ticks_Linear_8,116,5,42,127,1547198836
2310,20,Ticks_Linear_8,117,1,48,34,1547866800
2310,20,Ticks_Linear_8,118,5,42,127,1547908400
2310,20,Ticks_Linear_8,119,1,48,34,1548560928
2310,20,Ticks_Linear_8,120,5,42,127,1548608824
2310,20,Ticks_Linear_8,121,1,48,38,1549274352
2310,20,Ticks_Linear_8,122,5,42,127,1549309172
2310,20,Ticks_Linear_8,123,5,42,127,1550008824
2310,20,Ticks_Linear_8,124,5,42,127,1550709192
2310,20,Ticks_Linear_8,125,1,48,63,1550712164
2310,20,Ticks_Linear_8,126,1,48,48,1551370176
2310,20,Ticks_Linear_8,127,5,42,127,1551408788
2310,20,Ticks_Linear_8,128,5,42,127,1552098560
2310,20,Ticks_Linear_8,129,1,48,43,1552190524
2310,20,Ticks_Linear_8,130,5,42,127,1552788944
2310,20,Ticks_Linear_8,131,1,48,41,1552798888
2310,20,Ticks_Linear_8,132,5,42,127,1553479036
2310,20,Ticks_Linear_8,133,1,48,43,1553485592
2310,20,Ticks_Linear_8,134,5,42,127,1554169348
2310,20,Ticks_Linear_8,135,1,48,46,1554206852
2310,20,Ticks_Linear_8,136,5,42,127,1554859564
2310,20,Ticks_Linear_8,137,1,48,42,1554879460
2310,20,Ticks_Linear_8,138,5,42,127,1555539616
2310,20,Ticks_Linear_8,139,1,48,35,1555563104
2310,20,Ticks_Linear_8,140,5,42,127,1556219668
2310,20,Ticks_Linear_8,141,1,48,44,1556221968
2310,20,Ticks_Linear_8,142,5,42,127,1556899176
2310,20,Ticks_Linear_8,143,1,48,49,1556915768
2310,20,Ticks_Linear_8,144,1,48,54,1557575648
2310,20,Ticks_Linear_8,145,5,42,127,1557579220
2310,20,Ticks_Linear_8,146,5,42,127,1558258960
2310,20,Ticks_Linear_8,147,1,48,50,1558273556
2310,20,Ticks_Linear_8,148,5,42,127,1558928756
2310,20,Ticks_Linear_8,149,1,48,46,1558937492
2310,20,Ticks_Linear_8,150,5,42,127,1559598472
2310,20,Ticks_Linear_8,151,1,48,53,1559611924
2310,20,Ticks_Linear_8,152,5,42,127,1560269440
2310,20,Ticks_Linear_8,153,1,48,48,1560272260
2310,20,Ticks_Linear_8,154,5,42,127,1560938788
2310,20,Ticks_Linear_8,155,1,48,51,1560950820
2310,20,Ticks_Linear_8,156,1,48,52,1561583640
2310,20,Ticks_Linear_8,157,5,42,127,1561608500
2310,20,Ticks_Linear_8,158,5,42,127,1562269212
2310,20,Ticks_Linear_8,159,1,48,50,1562270104
2310,20,Ticks_Linear_8,160,5,42,127,1562928376
2310,20,Ticks_Linear_8,161,1,48,47,1562959356
2310,20,Ticks_Linear_8,162,1,48,43,1563559528
2310,20,Ticks_Linear_8,163,5,42,127,1563589000
2310,20,Ticks_Linear_8,164,5,42,127,1564248540
2310,20,Ticks_Linear_8,165,1,48,36,1564261244
2310,20,Ticks_Linear_8,166,5,42,127,1564909024
2310,20,Ticks_Linear_8,167,1,48,23,1564920708
2310,20,Ticks_Linear_8,168,1,48,49,1565536616
2310,20,Ticks_Linear_8,169,5,42,127,1565559192
2310,20,Ticks_Linear_8,170,1,48,53,1566181440
2310,20,Ticks_Linear_8,171,5,42,127,1566209364
2310,20,Ticks_Linear_8,172,1,48,51,1566790500
2310,20,Ticks_Linear_8,173,5,42,127,1566858692
2310,20,Ticks_Linear_8,174,1,48,55,1567460196
2310,20,Ticks_Linear_8,175,5,42,127,1567509012
2310,20,Ticks_Linear_8,176,1,48,52,1568097116
2310,20,Ticks_Linear_8,177,5,42,127,1568159088
2310,20,Ticks_Linear_8,178,5,42,127,1568799232
2310,20,Ticks_Linear_8,179,1,48,55,1568803472
2310,20,Ticks_Linear_8,180,5,42,127,1569439048
2310,20,Ticks_Linear_8,181,1,48,48,1569491220
2310,20,Ticks_Linear_8,182,5,42,127,1570079112
2310,20,Ticks_Linear_8,183,1,48,52,1570162884
2310,20,Ticks_Linear_8,184,5,42,127,1570719228
2310,20,Ticks_Linear_8,185,1,48,48,1570725112
2310,20,Ticks_Linear_8,186,5,42,127,1571359068
2310,20,Ticks_Linear_8,187,1,48,55,1571362036
2310,20,Ticks_Linear_8,188,5,42,127,1571989068
2310,20,Ticks_Linear_8,189,1,48,56,1572018776
2310,20,Ticks_Linear_8,190,5,42,127,1572618796
2310,20,Ticks_Linear_8,191,1,48,54,1572639292
2310,20,Ticks_Linear_8,192,5,42,127,1573249404
2310,20,Ticks_Linear_8,193,1,48,56,1573255364
2310,20,Ticks_Linear_8,194,5,42,127,1573879132
2310,20,Ticks_Linear_8,195,1,48,50,1573881652
2310,20,Ticks_Linear_8,196,5,42,127,1574508840
2310,20,Ticks_Linear_8,197,1,48,50,1574537872
2310,20,Ticks_Linear_8,198,5,42,127,1575128804
2310,20,Ticks_Linear_8,199,1,48,52,1575141512
2310,20,Ticks_Linear_8,200,5,42,127,1575749100
2310,20,Ticks_Linear_8,201,1,48,50,1575759632
2310,20,Ticks_Linear_8,202,1,48,44,1576339592
2310,20,Ticks_Linear_8,203,5,42,127,1576368684
2310,20,Ticks_Linear_8,204,5,42,127,1576988988
2310,20,Ticks_Linear_8,205,1,48,56,1577008584
2310,20,Ticks_Linear_8,206,5,42,127,1577608804
2310,20,Ticks_Linear_8,207,1,48,67,1577611552
2310,20,Ticks_Linear_8,208,5,42,127,1578218816
2310,20,Ticks_Linear_8,209,1,48,42,1578244272
2310,20,Ticks_Linear_8,210,1,48,44,1578812920
2310,20,Ticks_Linear_8,211,5,42,127,1578829216
2310,20,Ticks_Linear_8,212,1,48,41,1579406840
2310,20,Ticks_Linear_8,213,5,42,127,1579438552
2310,20,Ticks_Linear_8,214,1,48,42,1580003208
2310,20,Ticks_Linear_8,215,5,42,127,1580048736
2310,20,Ticks_Linear_8,216,1,48,43,1580603432
2310,20,Ticks_Linear_8,217,5,42,127,1580659044
2310,20,Ticks_Linear_8,218,1,48,46,1581240252
2310,20,Ticks_Linear_8,219,5,42,127,1581259316
2310,20,Ticks_Linear_8,220,5,42,127,1581859472
2310,20,Ticks_Linear_8,221,1,48,27,1581896504
2310,20,Ticks_Linear_8,222,5,42,127,1582459444
2310,20,Ticks_Linear_8,223,1,48,46,1582460708
2310,20,Ticks_Linear_8,224,1,48,47,1583055616
2310,20,Ticks_Linear_8,225,5,42,127,1583059336
2310,20,Ticks_Linear_8,226,5,42,127,1583659344
2310,20,Ticks_Linear_8,227,1,48,48,1583661788
2310,20,Ticks_Linear_8,228,5,42,127,1584249284
2310,20,Ticks_Linear_8,229,1,48,54,1584260124
2310,20,Ticks_Linear_8,230,5,42,127,1584839148
2310,20,Ticks_Linear_8,231,1,48,49,1584845556
2310,20,Ticks_Linear_8,232,5,42,127,1585428888
2310,20,Ticks_Linear_8,233,1,48,51,1585431636
2310,20,Ticks_Linear_8,234,5,42,127,1586018676
2310,20,Ticks_Linear_8,235,1,48,57,1586036240
2310,20,Ticks_Linear_8,236,5,42,127,1586608544
2310,20,Ticks_Linear_8,237,1,48,46,1586640048
2310,20,Ticks_Linear_8,238,1,48,48,1587188068
2310,20,Ticks_Linear_8,239,5,42,127,1587189884
2310,20,Ticks_Linear_8,240,1,48,48,1587765244
2310,20,Ticks_Linear_8,241,5,42,127,1587768668
2310,20,Ticks_Linear_8,242,1,48,51,1588340072
2310,20,Ticks_Linear_8,243,5,42,127,1588349248
2310,20,Ticks_Linear_8,244,5,42,127,1588929008
2310,20,Ticks_Linear_8,245,1,48,51,1588933100
2310,20,Ticks_Linear_8,246,5,42,127,1589508416
2310,20,Ticks_Linear_8,247,1,48,52,1589514968
2310,20,Ticks_Linear_8,248,5,42,127,1590079252
2310,20,Ticks_Linear_8,249,1,48,62,1590127164
2310,20,Ticks_Linear_8,250,1,48,51,1590631400
2310,20,Ticks_Linear_8,251,5,42,127,1590649192
2310,20,Ticks_Linear_8,252,1,48,51,1591154460
2310,20,Ticks_Linear_8,253,5,42,127,1591218540
2310,20,Ticks_Linear_8,254,5,42,127,1591789012
2310,20,Ticks_Linear_8,255,1,48,48,1591796540
2310,20,Ticks_Linear_8,256,5,42,127,1592359356
2310,20,Ticks_Linear_8,257,1,48,48,1592360324
2310,20,Ticks_Linear_8,258,1,48,49,1592899604
2310,20,Ticks_Linear_8,259,5,42,127,1592919560
2310,20,Ticks_Linear_8,260,1,48,49,1593453360
2310,20,Ticks_Linear_8,261,5,42,127,1593478496
2310,20,Ticks_Linear_8,262,1,48,48,1594013496
2310,20,Ticks_Linear_8,263,5,42,127,1594038632
2310,20,Ticks_Linear_8,264,1,48,47,1594584036
2310,20,Ticks_Linear_8,265,5,42,127,1594598912
2310,20,Ticks_Linear_8,266,1,48,43,1595117372
2310,20,Ticks_Linear_8,267,5,42,127,1595158848
2310,20,Ticks_Linear_8,268,1,48,48,1595684636
2310,20,Ticks_Linear_8,269,5,42,127,1595708948
2310,20,Ticks_Linear_8,270,1,48,52,1596234816
2310,20,Ticks_Linear_8,271,5,42,127,1596258824
2310,20,Ticks_Linear_8,272,1,48,50,1596765220
2310,20,Ticks_Linear_8,273,5,42,127,1596808624
2310,20,Ticks_Linear_8,274,1,48,48,1597328056
2310,20,Ticks_Linear_8,275,5,42,127,1597358648
2310,20,Ticks_Linear_8,276,1,48,51,1597899720
2310,20,Ticks_Linear_8,277,5,42,127,1597909496
2310,20,Ticks_Linear_8,278,5,42,127,1598448968
2310,20,Ticks_Linear_8,279,1,48,50,1598466500
2310,20,Ticks_Linear_8,280,5,42,127,1598988684
2310,20,Ticks_Linear_8,281,1,48,48,1598992924
2310,20,Ticks_Linear_8,282,1,48,56,1599506224
2310,20,Ticks_Linear_8,283,5,42,127,1599529488
2310,20,Ticks_Linear_8,284,1,48,40,1600053184
2310,20,Ticks_Linear_8,285,5,42,127,1600068884
2310,20,Ticks_Linear_8,286,1,48,53,1600592056
2310,20,Ticks_Linear_8,287,5,42,127,1600608500
2310,20,Ticks_Linear_8,288,1,48,49,1601137468
2310,20,Ticks_Linear_8,289,5,42,127,1601139200
2310,20,Ticks_Linear_8,290,5,42,127,1601668640
2310,20,Ticks_Linear_8,291,1,48,48,1601671608
2310,20,Ticks_Linear_8,292,1,48,53,1602173600
2310,20,Ticks_Linear_8,293,5,42,127,1602198960
2310,20,Ticks_Linear_8,294,1,48,53,1602699968
2310,20,Ticks_Linear_8,295,5,42,127,1602729588
2310,20,Ticks_Linear_8,296,1,48,59,1603232024
2310,20,Ticks_Linear_8,297,5,42,127,1603258800
2310,20,Ticks_Linear_8,298,1,48,55,1603741908
2310,20,Ticks_Linear_8,299,5,42,127,1603778868
2310,20,Ticks_Linear_8,300,1,48,57,1604254632
2310,20,Ticks_Linear_8,301,5,42,127,1604299088
2310,20,Ticks_Linear_8,302,1,48,56,1604770440
2310,20,Ticks_Linear_8,303,5,42,127,1604819384
2310,20,Ticks_Linear_8,304,1,48,59,1605306616
2310,20,Ticks_Linear_8,305,5,42,127,1605338628
2310,20,Ticks_Linear_8,306,1,48,52,1605784288
2310,20,Ticks_Linear_8,307,5,42,127,1605858700
2310,20,Ticks_Linear_8,308,5,42,127,1606368592
2310,20,Ticks_Linear_8,309,1,48,51,1606374476
2310,20,Ticks_Linear_8,310,5,42,127,1606878476
2310,20,Ticks_Linear_8,311,1,48,49,1606886844
2310,20,Ticks_Linear_8,312,1,48,44,1607376840
2310,20,Ticks_Linear_8,313,5,42,127,1607388504
2310,20,Ticks_Linear_8,314,1,48,37,1607890704
2310,20,Ticks_Linear_8,315,5,42,127,1607898388
2310,20,Ticks_Linear_8,316,1,48,35,1608407148
2310,20,Ticks_Linear_8,317,5,42,127,1608408796
2310,20,Ticks_Linear_8,318,1,48,47,1608902608
2310,20,Ticks_Linear_8,319,5,42,127,1608909168
2310,20,Ticks_Linear_8,320,1,48,52,1609345320
2310,20,Ticks_Linear_8,321,5,42,127,1609409092
2310,20,Ticks_Linear_8,322,1,48,46,1609879472
2310,20,Ticks_Linear_8,323,5,42,127,1609908572
2310,20,Ticks_Linear_8,324,1,48,54,1610379548
2310,20,Ticks_Linear_8,325,5,42,127,1610409392
2310,20,Ticks_Linear_8,326,1,48,52,1610879920
2310,20,Ticks_Linear_8,327,5,42,127,1610909244
2310,20,Ticks_Linear_8,328,1,48,55,1611379100
2310,20,Ticks_Linear_8,329,5,42,127,1611398460
2310,20,Ticks_Linear_8,330,1,48,50,1611870784
2310,20,Ticks_Linear_8,331,5,42,127,1611889248
2310,20,Ticks_Linear_8,332,1,48,44,1612377416
2310,20,Ticks_Linear_8,333,5,42,127,1612379288
2310,20,Ticks_Linear_8,334,1,48,64,1612861420
2310,20,Ticks_Linear_8,335,5,42,127,1612869252
2310,20,Ticks_Linear_8,336,5,42,127,1613358400
2310,20,Ticks_Linear_8,0,9999,9999,9999,1502806132
2310,20,Ticks_Linear_8,1,9999,9999,9999,1503626300
2310,20,Ticks_Linear_8,2,9999,9999,9999,1504446556
2310,20,Ticks_Linear_8,3,9999,9999,9999,1505266800
2310,20,Ticks_Linear_8,4,9999,9999,9999,1506086992
2310,20,Ticks_Linear_8,5,9999,9999,9999,1506896976
2310,20,Ticks_Linear_8,6,9999,9999,9999,1507706956
2310,20,Ticks_Linear_8,7,9999,9999,9999,1508516940
2310,20,Ticks_Linear_8,8,9999,9999,9999,1509326924
2310,20,Ticks_Linear_8,9,9999,9999,9999,1510136908
2310,20,Ticks_Linear_8,10,9999,9999,9999,1510936704
2310,20,Ticks_Linear_8,11,9999,9999,9999,1511736436
2310,20,Ticks_Linear_8,12,9999,9999,9999,1512536160
2310,20,Ticks_Linear_8,13,9999,9999,9999,1513336924
2310,20,Ticks_Linear_8,14,9999,9999,9999,1514136648
2310,20,Ticks_Linear_8,15,9999,9999,9999,1514926196
2310,20,Ticks_Linear_8,16,9999,9999,9999,1515716704
2310,20,Ticks_Linear_8,17,9999,9999,9999,1516506168
2310,20,Ticks_Linear_8,18,9999,9999,9999,1517296756
2310,20,Ticks_Linear_8,19,9999,9999,9999,1518086236
2310,20,Ticks_Linear_8,20,9999,9999,9999,1518866496
2310,20,Ticks_Linear_8,21,9999,9999,9999,1519646816
2310,20,Ticks_Linear_8,22,9999,9999,9999,1520427076
2310,20,Ticks_Linear_8,23,9999,9999,9999,1521216612
2310,20,Ticks_Linear_8,24,9999,9999,9999,1521996872
2310,20,Ticks_Linear_8,25,9999,9999,9999,1522766940
2310,20,Ticks_Linear_8,26,9999,9999,9999,1523537000
2310,20,Ticks_Linear_8,27,9999,9999,9999,1524307072
2310,20,Ticks_Linear_8,28,9999,9999,9999,1525077072
2310,20,Ticks_Linear_8,29,9999,9999,9999,1525846084
2310,20,Ticks_Linear_8,30,9999,9999,9999,1526606944
2310,20,Ticks_Linear_8,31,9999,9999,9999,1527366752
2310,20,Ticks_Linear_8,32,9999,9999,9999,1528126544
2310,20,Ticks_Linear_8,33,9999,9999,9999,1528886368
2310,20,Ticks_Linear_8,34,9999,9999,9999,1529646176
2310,20,Ticks_Linear_8,35,9999,9999,9999,1530396776
2310,20,Ticks_Linear_8,36,9999,9999,9999,1531146324
2310,20,Ticks_Linear_8,37,9999,9999,9999,1531896896
2310,20,Ticks_Linear_8,38,9999,9999,9999,1532646524
2310,20,Ticks_Linear_8,39,9999,9999,9999,1533397092
2310,20,Ticks_Linear_8,40,9999,9999,9999,1534136388
2310,20,Ticks_Linear_8,41,9999,9999,9999,1534876796
2310,20,Ticks_Linear_8,42,9999,9999,9999,1535616092
2310,20,Ticks_Linear_8,43,9999,9999,9999,1536356420
2310,20,Ticks_Linear_8,44,9999,9999,9999,1537096764
2310,20,Ticks_Linear_8,45,9999,9999,9999,1537826912
2310,20,Ticks_Linear_8,46,9999,9999,9999,1538556992
2310,20,Ticks_Linear_8,47,9999,9999,9999,1539286072
2310,20,Ticks_Linear_8,48,9999,9999,9999,1540016232
2310,20,Ticks_Linear_8,49,9999,9999,9999,1540746312
2310,20,Ticks_Linear_8,50,9999,9999,9999,1541466204
2310,20,Ticks_Linear_8,51,9999,9999,9999,1542187068
2310,20,Ticks_Linear_8,52,9999,9999,9999,1542916176
2310,20,Ticks_Linear_8,53,9999,9999,9999,1543637084
2310,20,Ticks_Linear_8,54,9999,9999,9999,1544356984
2310,20,Ticks_Linear_8,55,9999,9999,9999,1545066620
2310,20,Ticks_Linear_8,56,9999,9999,9999,1545776256
2310,20,Ticks_Linear_8,57,9999,9999,9999,1546486912
2310,20,Ticks_Linear_8,58,9999,9999,9999,1547196540
2310,20,Ticks_Linear_8,59,9999,9999,9999,1547906176
2310,20,Ticks_Linear_8,60,9999,9999,9999,1548606524
2310,20,Ticks_Linear_8,61,9999,9999,9999,1549306948
2310,20,Ticks_Linear_8,62,9999,9999,9999,1550006376
2310,20,Ticks_Linear_8,63,9999,9999,9999,1550706748
2310,20,Ticks_Linear_8,64,9999,9999,9999,1551406192
2310,20,Ticks_Linear_8,65,9999,9999,9999,1552096336
2310,20,Ticks_Linear_8,66,9999,9999,9999,1552786496
2310,20,Ticks_Linear_8,67,9999,9999,9999,1553476736
2310,20,Ticks_Linear_8,68,9999,9999,9999,1554166876
2310,20,Ticks_Linear_8,69,9999,9999,9999,1554857040
2310,20,Ticks_Linear_8,70,9999,9999,9999,1555537020
2310,20,Ticks_Linear_8,71,9999,9999,9999,1556216924
2310,20,Ticks_Linear_8,72,9999,9999,9999,1556896876
2310,20,Ticks_Linear_8,73,9999,9999,9999,1557576772
2310,20,Ticks_Linear_8,74,9999,9999,9999,1558256732
2310,20,Ticks_Linear_8,75,9999,9999,9999,1558926452
2310,20,Ticks_Linear_8,76,9999,9999,9999,1559596100
2310,20,Ticks_Linear_8,77,9999,9999,9999,1560266844
2310,20,Ticks_Linear_8,78,9999,9999,9999,1560936564
2310,20,Ticks_Linear_8,79,9999,9999,9999,1561606200
2310,20,Ticks_Linear_8,80,9999,9999,9999,1562266692
2310,20,Ticks_Linear_8,81,9999,9999,9999,1562926152
2310,20,Ticks_Linear_8,82,9999,9999,9999,1563586628
2310,20,Ticks_Linear_8,83,9999,9999,9999,1564246096
2310,20,Ticks_Linear_8,84,9999,9999,9999,1564906576
2310,20,Ticks_Linear_8,85,9999,9999,9999,1565556820
2310,20,Ticks_Linear_8,86,9999,9999,9999,1566207064
2310,20,Ticks_Linear_8,87,9999,9999,9999,1566856320
2310,20,Ticks_Linear_8,88,9999,9999,9999,1567506492
2310,20,Ticks_Linear_8,89,9999,9999,9999,1568156788
2310,20,Ticks_Linear_8,90,9999,9999,9999,1568796784
2310,20,Ticks_Linear_8,91,9999,9999,9999,1569436748
2310,20,Ticks_Linear_8,92,9999,9999,9999,1570076736
2310,20,Ticks_Linear_8,93,9999,9999,9999,1570716776
2310,20,Ticks_Linear_8,94,9999,9999,9999,1571356768
2310,20,Ticks_Linear_8,95,9999,9999,9999,1571986544
2310,20,Ticks_Linear_8,96,9999,9999,9999,1572616276
2310,20,Ticks_Linear_8,97,9999,9999,9999,1573247104
2310,20,Ticks_Linear_8,98,9999,9999,9999,1573876808
2310,20,Ticks_Linear_8,99,9999,9999,9999,1574506612
2310,20,Ticks_Linear_8,100,9999,9999,9999,1575126132
2310,20,Ticks_Linear_8,101,9999,9999,9999,1575746652
2310,20,Ticks_Linear_8,102,9999,9999,9999,1576366164
2310,20,Ticks_Linear_8,103,9999,9999,9999,1576986688
2310,20,Ticks_Linear_8,104,9999,9999,9999,1577606208
2310,20,Ticks_Linear_8,105,9999,9999,9999,1578216516
2310,20,Ticks_Linear_8,106,9999,9999,9999,1578826844
2310,20,Ticks_Linear_8,107,9999,9999,9999,1579436104
2310,20,Ticks_Linear_8,108,9999,9999,9999,1580046436
2310,20,Ticks_Linear_8,109,9999,9999,9999,1580656744
2310,20,Ticks_Linear_8,110,9999,9999,9999,1581256796
2310,20,Ticks_Linear_8,111,9999,9999,9999,1581856876
2310,20,Ticks_Linear_8,112,9999,9999,9999,1582456924
2310,20,Ticks_Linear_8,113,9999,9999,9999,1583056964
2310,20,Ticks_Linear_8,114,9999,9999,9999,1583657044
2310,20,Ticks_Linear_8,115,9999,9999,9999,1584246912
2310,20,Ticks_Linear_8,116,9999,9999,9999,1584836700
2310,20,Ticks_Linear_8,117,9999,9999,9999,1585426512
2310,20,Ticks_Linear_8,118,9999,9999,9999,1586016380
2310,20,Ticks_Linear_8,119,9999,9999,9999,1586606168
2310,20,Ticks_Linear_8,120,9999,9999,9999,1587186744
2310,20,Ticks_Linear_8,121,9999,9999,9999,1587766368
2310,20,Ticks_Linear_8,122,9999,9999,9999,1588346948
2310,20,Ticks_Linear_8,123,9999,9999,9999,1588926560
2310,20,Ticks_Linear_8,124,9999,9999,9999,1589506116
2310,20,Ticks_Linear_8,125,9999,9999,9999,1590076508
2310,20,Ticks_Linear_8,126,9999,9999,9999,1590646896
2310,20,Ticks_Linear_8,127,9999,9999,9999,1591216240
2310,20,Ticks_Linear_8,128,9999,9999,9999,1591786564
2310,20,Ticks_Linear_8,129,9999,9999,9999,1592356984
2310,20,Ticks_Linear_8,130,9999,9999,9999,1592917112
2310,20,Ticks_Linear_8,131,9999,9999,9999,1593476200
2310,20,Ticks_Linear_8,132,9999,9999,9999,1594036332
2310,20,Ticks_Linear_8,133,9999,9999,9999,1594596468
2310,20,Ticks_Linear_8,134,9999,9999,9999,1595156548
2310,20,Ticks_Linear_8,135,9999,9999,9999,1595706424
2310,20,Ticks_Linear_8,136,9999,9999,9999,1596256376
2310,20,Ticks_Linear_8,137,9999,9999,9999,1596806252
2310,20,Ticks_Linear_8,138,9999,9999,9999,1597356128
2310,20,Ticks_Linear_8,139,9999,9999,9999,1597907048
2310,20,Ticks_Linear_8,140,9999,9999,9999,1598446672
2310,20,Ticks_Linear_8,141,9999,9999,9999,1598986312
2310,20,Ticks_Linear_8,142,9999,9999,9999,1599527040
2310,20,Ticks_Linear_8,143,9999,9999,9999,1600066660
2310,20,Ticks_Linear_8,144,9999,9999,9999,1600606276
2310,20,Ticks_Linear_8,145,9999,9999,9999,1601136760
2310,20,Ticks_Linear_8,146,9999,9999,9999,1601666116
2310,20,Ticks_Linear_8,147,9999,9999,9999,1602196584
2310,20,Ticks_Linear_8,148,9999,9999,9999,1602726992
2310,20,Ticks_Linear_8,149,9999,9999,9999,1603256428
2310,20,Ticks_Linear_8,150,9999,9999,9999,1603776572
2310,20,Ticks_Linear_8,151,9999,9999,9999,1604296792
2310,20,Ticks_Linear_8,152,9999,9999,9999,1604817008
2310,20,Ticks_Linear_8,153,9999,9999,9999,1605336180
2310,20,Ticks_Linear_8,154,9999,9999,9999,1605856328
2310,20,Ticks_Linear_8,155,9999,9999,9999,1606366292
2310,20,Ticks_Linear_8,156,9999,9999,9999,1606876252
2310,20,Ticks_Linear_8,157,9999,9999,9999,1607386204
2310,20,Ticks_Linear_8,158,9999,9999,9999,1607896164
2310,20,Ticks_Linear_8,159,9999,9999,9999,1608406128
2310,20,Ticks_Linear_8,160,9999,9999,9999,1608906872
2310,20,Ticks_Linear_8,161,9999,9999,9999,1609406572
2310,20,Ticks_Linear_8,162,9999,9999,9999,1609906272
2310,20,Ticks_Linear_8,163,9999,9999,9999,1610407020
2310,20,Ticks_Linear_8,164,9999,9999,9999,1610906720
2310,20,Ticks_Linear_8,165,9999,9999,9999,1611396164
2310,20,Ticks_Linear_8,166,9999,9999,9999,1611886648
2310,20,Ticks_Linear_8,167,9999,9999,9999,1612376172
2310,20,Ticks_Linear_8,168,9999,9999,9999,1612866656
2310,20,Ticks_Linear_8,169,9999,9999,9999,1613356100
2311,25,Jits_Pract_5,0,5,56,103,1691224608
2311,25,Jits_Pract_5,1,5,63,98,1691227712
2311,25,Jits_Pract_5,2,5,80,127,1691230828
2311,25,Jits_Pract_5,0,5,56,103,1691725080
2311,25,Jits_Pract_5,1,5,63,98,1691728180
2311,25,Jits_Pract_5,2,5,80,127,1691731448
2311,25,Jits_Pract_5,0,5,56,103,1692224748
2311,25,Jits_Pract_5,1,5,80,127,1692235388
2311,25,Jits_Pract_5,2,5,63,98,1692254428
2311,25,Jits_Pract_5,0,5,63,98,1692674436
2311,25,Jits_Pract_5,1,5,80,127,1692705232
2311,25,Jits_Pract_5,2,1,48,35,1692714828
2311,25,Jits_Pract_5,3,5,56,103,1692716696
2311,25,Jits_Pract_5,0,1,48,39,1693181496
2311,25,Jits_Pract_5,1,5,80,127,1693234504
2311,25,Jits_Pract_5,2,5,56,103,1693244996
2311,25,Jits_Pract_5,3,5,63,98,1693274376
2311,25,Jits_Pract_5,0,5,63,98,1693724988
2311,25,Jits_Pract_5,1,5,56,103,1693754816
2311,25,Jits_Pract_5,2,5,80,127,1693764936
2311,25,Jits_Pract_5,3,1,48,44,1693816372
2311,25,Jits_Pract_5,0,5,56,103,1694174532
2311,25,Jits_Pract_5,1,5,63,98,1694224688
2311,25,Jits_Pract_5,2,5,80,127,1694245368
2311,25,Jits_Pract_5,3,1,48,37,1694289836
2311,25,Jits_Pract_5,0,5,80,127,1694675284
2311,25,Jits_Pract_5,1,5,63,98,1694724316
2311,25,Jits_Pract_5,2,5,56,103,1694765448
2311,25,Jits_Pract_5,3,1,48,37,1694791264
2311,25,Jits_Pract_5,0,1,48,33,1695013352
2311,25,Jits_Pract_5,1,5,56,103,1695175188
2311,25,Jits_Pract_5,2,5,63,98,1695204716
2311,25,Jits_Pract_5,3,1,48,40,1695272284
2311,25,Jits_Pract_5,4,5,80,127,1695275316
2311,25,Jits_Pract_5,0,5,56,103,1695674708
2311,25,Jits_Pract_5,1,5,80,127,1695735424
2311,25,Jits_Pract_5,2,1,48,37,1695752564
2311,25,Jits_Pract_5,3,5,63,98,1695764944
2311,25,Jits_Pract_5,0,1,48,30,1695988416
2311,25,Jits_Pract_5,1,5,56,103,1696184804
2311,25,Jits_Pract_5,2,5,63,98,1696195148
2311,25,Jits_Pract_5,3,1,48,31,1696220444
2311,25,Jits_Pract_5,4,5,80,127,1696235080
2311,25,Jits_Pract_5,0,5,63,98,1696675376
2311,25,Jits_Pract_5,1,1,48,42,1696700748
2311,25,Jits_Pract_5,2,5,80,127,1696755192
2311,25,Jits_Pract_5,3,5,56,103,1696765240
2311,25,Jits_Pract_5,0,1,48,43,1697203136
2311,25,Jits_Pract_5,1,5,63,98,1697225336
2311,25,Jits_Pract_5,2,5,56,103,1697265296
2311,25,Jits_Pract_5,3,5,80,127,1697268292
2311,25,Jits_Pract_5,0,5,56,103,1697684944
2311,25,Jits_Pract_5,1,5,63,98,1697695364
2311,25,Jits_Pract_5,2,1,48,44,1697698264
2311,25,Jits_Pract_5,3,5,80,127,1697735296
2311,25,Jits_Pract_5,0,5,56,103,1698175428
2311,25,Jits_Pract_5,1,5,63,98,1698178348
2311,25,Jits_Pract_5,2,1,48,39,1698188736
2311,25,Jits_Pract_5,3,5,80,127,1698194684
2311,25,Jits_Pract_5,0,9999,9999,9999,1691473020
2311,25,Jits_Pract_5,1,9999,9999,9999,1691972664
2311,25,Jits_Pract_5,2,9999,9999,9999,1692472408
2311,25,Jits_Pract_5,3,9999,9999,9999,1692972124
2311,25,Jits_Pract_5,4,9999,9999,9999,1693472864
2311,25,Jits_Pract_5,5,9999,9999,9999,1693972560
2311,25,Jits_Pract_5,6,9999,9999,9999,1694472248
2311,25,Jits_Pract_5,7,9999,9999,9999,1694972996
2311,25,Jits_Pract_5,8,9999,9999,9999,1695472756
2311,25,Jits_Pract_5,9,9999,9999,9999,1695972476
2311,25,Jits_Pract_5,10,9999,9999,9999,1696472128
2311,25,Jits_Pract_5,11,9999,9999,9999,1696972920
2311,25,Jits_Pract_5,12,9999,9999,9999,1697472604
2311,25,Jits_Pract_5,13,9999,9999,9999,1697972296
2311,25,Jits_Pract_5,14,9999,9999,9999,1698473032
2312,24,Jits_Pract_8,0,5,56,103,1705068972
2312,24,Jits_Pract_8,1,5,63,98,1705072148
2312,24,Jits_Pract_8,2,5,80,127,1705075192
2312,24,Jits_Pract_8,0,5,56,103,1705868760
2312,24,Jits_Pract_8,1,5,63,98,1705871780
2312,24,Jits_Pract_8,2,5,80,127,1705874904
2312,24,Jits_Pract_8,0,5,80,127,1706609004
2312,24,Jits_Pract_8,1,5,63,98,1706698988
2312,24,Jits_Pract_8,2,5,56,103,1706709332
2312,24,Jits_Pract_8,0,1,48,34,1707080660
2312,24,Jits_Pract_8,1,5,56,103,1707429168
2312,24,Jits_Pract_8,2,5,63,98,1707438392
2312,24,Jits_Pract_8,3,5,80,127,1707528768
2312,24,Jits_Pract_8,4,1,48,40,1707810888
2312,24,Jits_Pract_8,0,5,63,98,1708199228
2312,24,Jits_Pract_8,1,5,80,127,1708229056
2312,24,Jits_Pract_8,2,5,56,103,1708258656
2312,24,Jits_Pract_8,3,1,48,40,1708596064
2312,24,Jits_Pract_8,0,5,56,103,1708998980
2312,24,Jits_Pract_8,1,5,80,127,1709099476
2312,24,Jits_Pract_8,2,5,63,98,1709148776
2312,24,Jits_Pract_8,0,5,56,103,1709798716
2312,24,Jits_Pract_8,1,5,80,127,1709848940
2312,24,Jits_Pract_8,2,5,63,98,1709888804
2312,24,Jits_Pract_8,0,5,80,127,1710629112
2312,24,Jits_Pract_8,1,5,63,98,1710658860
2312,24,Jits_Pract_8,2,5,56,103,1710728764
2312,24,Jits_Pract_8,3,1,48,40,1711022116
2312,24,Jits_Pract_8,0,5,63,98,1711458776
2312,24,Jits_Pract_8,1,5,56,103,1711489572
2312,24,Jits_Pract_8,2,5,80,127,1711548764
2312,24,Jits_Pract_8,3,1,48,39,1711834396
2312,24,Jits_Pract_8,0,5,56,103,1712198968
2312,24,Jits_Pract_8,1,5,80,127,1712202036
2312,24,Jits_Pract_8,2,5,63,98,1712318916
2312,24,Jits_Pract_8,3,1,48,42,1712642256
2312,24,Jits_Pract_8,0,5,56,103,1713078744
2312,24,Jits_Pract_8,1,5,80,127,1713118608
2312,24,Jits_Pract_8,2,5,63,98,1713128956
2312,24,Jits_Pract_8,0,1,48,38,1713488208
2312,24,Jits_Pract_8,1,5,56,103,1713838504
2312,24,Jits_Pract_8,2,5,80,127,1713859036
2312,24,Jits_Pract_8,3,5,63,98,1713938856
2312,24,Jits_Pract_8,4,1,48,40,1714264860
2312,24,Jits_Pract_8,0,5,80,127,1714628952
2312,24,Jits_Pract_8,1,5,56,103,1714729372
2312,24,Jits_Pract_8,2,5,63,98,1714738524
2312,24,Jits_Pract_8,3,1,48,38,1715052540
2312,24,Jits_Pract_8,0,5,63,98,1715398908
2312,24,Jits_Pract_8,1,5,80,127,1715458500
2312,24,Jits_Pract_8,2,5,56,103,1715468548
2312,24,Jits_Pract_8,3,1,48,33,1715756660
2312,24,Jits_Pract_8,0,5,56,103,1716198660
2312,24,Jits_Pract_8,1,5,63,98,1716269488
2312,24,Jits_Pract_8,2,5,80,127,1716272848
2312,24,Jits_Pract_8,3,1,48,31,1716505824
2312,24,Jits_Pract_8,0,9999,9999,9999,1705467004
2312,24,Jits_Pract_8,1,9999,9999,9999,1706266716
2312,24,Jits_Pract_8,2,9999,9999,9999,1707066452
2312,24,Jits_Pract_8,3,9999,9999,9999,1707866228
2312,24,Jits_Pract_8,4,9999,9999,9999,1708667004
2312,24,Jits_Pract_8,5,9999,9999,9999,1709466692
2312,24,Jits_Pract_8,6,9999,9999,9999,1710266424
2312,24,Jits_Pract_8,7,9999,9999,9999,1711066224
2312,24,Jits_Pract_8,8,9999,9999,9999,1711866996
2312,24,Jits_Pract_8,9,9999,9999,9999,1712666736
2312,24,Jits_Pract_8,10,9999,9999,9999,1713466420
2312,24,Jits_Pract_8,11,9999,9999,9999,1714266204
2312,24,Jits_Pract_8,12,9999,9999,9999,1715066988
2312,24,Jits_Pract_8,13,9999,9999,9999,1715866740
2312,24,Jits_Pract_8,14,9999,9999,9999,1716666484
2313,16,Jits_ISO_5,0,5,56,103,1765976480
2313,16,Jits_ISO_5,1,5,63,98,1765979500
2313,16,Jits_ISO_5,2,5,80,127,1765982848
2313,16,Jits_ISO_5,0,5,56,103,1766476196
2313,16,Jits_ISO_5,1,5,63,98,1766479220
2313,16,Jits_ISO_5,2,5,80,127,1766482268
2313,16,Jits_ISO_5,0,1,48,30,1766938668
2313,16,Jits_ISO_5,1,5,56,103,1766976000
2313,16,Jits_ISO_5,2,5,80,127,1766986120
2313,16,Jits_ISO_5,3,5,63,98,1767005532
2313,16,Jits_ISO_5,0,5,63,98,1767426300
2313,16,Jits_ISO_5,1,5,80,127,1767456048
2313,16,Jits_ISO_5,2,1,48,40,1767460436
2313,16,Jits_ISO_5,3,5,56,103,1767466460
2313,16,Jits_ISO_5,0,1,48,39,1767913244
2313,16,Jits_ISO_5,1,5,80,127,1767985580
2313,16,Jits_ISO_5,2,5,56,103,1767995924
2313,16,Jits_ISO_5,3,5,63,98,1768025436
2313,16,Jits_ISO_5,0,1,48,37,1768394168
2313,16,Jits_ISO_5,1,5,63,98,1768475952
2313,16,Jits_ISO_5,2,5,56,103,1768505836
2313,16,Jits_ISO_5,3,5,80,127,1768515880
2313,16,Jits_ISO_5,0,1,48,39,1768894276
2313,16,Jits_ISO_5,1,5,56,103,1768925764
2313,16,Jits_ISO_5,2,5,63,98,1768975916
2313,16,Jits_ISO_5,3,5,80,127,1768996136
2313,16,Jits_ISO_5,0,1,48,42,1769358868
2313,16,Jits_ISO_5,1,5,80,127,1769426396
2313,16,Jits_ISO_5,2,5,63,98,1769475412
2313,16,Jits_ISO_5,3,5,56,103,1769516324
2313,16,Jits_ISO_5,0,1,48,42,1769844524
2313,16,Jits_ISO_5,1,5,56,103,1769925984
2313,16,Jits_ISO_5,2,5,63,98,1769956016
2313,16,Jits_ISO_5,3,5,80,127,1770026316
2313,16,Jits_ISO_5,0,1,48,42,1770307840
2313,16,Jits_ISO_5,1,5,56,103,1770425772
2313,16,Jits_ISO_5,2,5,80,127,1770486188
2313,16,Jits_ISO_5,3,5,63,98,1770515936
2313,16,Jits_ISO_5,0,1,48,41,1770812272
2313,16,Jits_ISO_5,1,5,56,103,1770935760
2313,16,Jits_ISO_5,2,5,63,98,1770945880
2313,16,Jits_ISO_5,3,5,80,127,1770985844
2313,16,Jits_ISO_5,0,1,48,43,1771280692
2313,16,Jits_ISO_5,1,5,63,98,1771426200
2313,16,Jits_ISO_5,2,5,80,127,1771506168
2313,16,Jits_ISO_5,3,5,56,103,1771516512
2313,16,Jits_ISO_5,0,1,48,44,1771777208
2313,16,Jits_ISO_5,1,5,63,98,1771975980
2313,16,Jits_ISO_5,2,5,56,103,1772015940
2313,16,Jits_ISO_5,3,5,80,127,1772019232
2313,16,Jits_ISO_5,0,1,48,43,1772247840
2313,16,Jits_ISO_5,1,5,56,103,1772435848
2313,16,Jits_ISO_5,2,5,63,98,1772446192
2313,16,Jits_ISO_5,3,5,80,127,1772485904
2313,16,Jits_ISO_5,0,1,48,40,1772732884
2313,16,Jits_ISO_5,1,5,56,103,1772926416
2313,16,Jits_ISO_5,2,5,63,98,1772929336
2313,16,Jits_ISO_5,3,5,80,127,1772945752
2313,16,Jits_ISO_5,4,1,48,37,1773146364
2313,16,Jits_ISO_5,0,5,80,127,1773436212
2313,16,Jits_ISO_5,1,5,56,103,1773445584
2313,16,Jits_ISO_5,2,5,63,98,1773516008
2313,16,Jits_ISO_5,3,1,48,40,1773604184
2313,16,Jits_ISO_5,0,5,63,98,1773925696
2313,16,Jits_ISO_5,1,5,56,103,1773946156
2313,16,Jits_ISO_5,2,1,48,44,1773957520
2313,16,Jits_ISO_5,3,5,80,127,1774026012
2313,16,Jits_ISO_5,0,1,48,47,1774384344
2313,16,Jits_ISO_5,1,5,56,103,1774435684
2313,16,Jits_ISO_5,2,5,80,127,1774475624
2313,16,Jits_ISO_5,3,5,63,98,1774485952
2313,16,Jits_ISO_5,0,1,48,46,1774861960
2313,16,Jits_ISO_5,1,5,80,127,1774926052
2313,16,Jits_ISO_5,2,5,63,98,1774955936
2313,16,Jits_ISO_5,3,5,56,103,1774995948
2313,16,Jits_ISO_5,0,1,48,52,1775347540
2313,16,Jits_ISO_5,1,5,56,103,1775446300
2313,16,Jits_ISO_5,2,5,63,98,1775475972
2313,16,Jits_ISO_5,3,5,80,127,1775526168
2313,16,Jits_ISO_5,0,1,48,47,1775836320
2313,16,Jits_ISO_5,1,5,80,127,1775945956
2313,16,Jits_ISO_5,2,5,56,103,1775985968
2313,16,Jits_ISO_5,3,5,63,98,1775996164
2313,16,Jits_ISO_5,0,1,48,40,1776318516
2313,16,Jits_ISO_5,1,5,80,127,1776426360
2313,16,Jits_ISO_5,2,5,63,98,1776466296
2313,16,Jits_ISO_5,3,5,56,103,1776525636
2313,16,Jits_ISO_5,0,1,48,43,1776777716
2313,16,Jits_ISO_5,1,5,56,103,1776926092
2313,16,Jits_ISO_5,2,5,80,127,1776936584
2313,16,Jits_ISO_5,3,5,63,98,1777016300
2313,16,Jits_ISO_5,0,1,48,41,1777279392
2313,16,Jits_ISO_5,1,5,80,127,1777425896
2313,16,Jits_ISO_5,2,5,63,98,1777486136
2313,16,Jits_ISO_5,3,5,56,103,1777515960
2313,16,Jits_ISO_5,0,1,48,40,1777766240
2313,16,Jits_ISO_5,1,5,56,103,1777925408
2313,16,Jits_ISO_5,2,5,80,127,1777985872
2313,16,Jits_ISO_5,3,5,63,98,1778025808
2313,16,Jits_ISO_5,0,1,48,31,1778243040
2313,16,Jits_ISO_5,1,5,56,103,1778476464
2313,16,Jits_ISO_5,2,5,63,98,1778485528
2313,16,Jits_ISO_5,3,5,80,127,1778488976
2313,16,Jits_ISO_5,0,1,48,48,1778743832
2313,16,Jits_ISO_5,1,5,80,127,1778925988
2313,16,Jits_ISO_5,2,5,63,98,1779016048
2313,16,Jits_ISO_5,3,5,56,103,1779026244
2313,16,Jits_ISO_5,0,1,48,47,1779258696
2313,16,Jits_ISO_5,1,5,56,103,1779425612
2313,16,Jits_ISO_5,2,5,63,98,1779428936
2313,16,Jits_ISO_5,3,5,80,127,1779431932
2313,16,Jits_ISO_5,4,1,48,47,1779709400
2313,16,Jits_ISO_5,0,5,80,127,1779945700
2313,16,Jits_ISO_5,1,5,63,98,1779996128
2313,16,Jits_ISO_5,2,5,56,103,1780025652
2313,16,Jits_ISO_5,0,1,48,47,1780285280
2313,16,Jits_ISO_5,1,5,56,103,1780436552
2313,16,Jits_ISO_5,2,5,80,127,1780445624
2313,16,Jits_ISO_5,3,5,63,98,1780516372
2313,16,Jits_ISO_5,0,1,48,38,1780776616
2313,16,Jits_ISO_5,1,5,56,103,1780946396
2313,16,Jits_ISO_5,2,5,63,98,1780965736
2313,16,Jits_ISO_5,3,5,80,127,1781026344
2313,16,Jits_ISO_5,0,1,48,41,1781296264
2313,16,Jits_ISO_5,1,5,80,127,1781435696
2313,16,Jits_ISO_5,2,5,63,98,1781506448
2313,16,Jits_ISO_5,3,5,56,103,1781525784
2313,16,Jits_ISO_5,0,1,48,32,1781804984
2313,16,Jits_ISO_5,1,5,80,127,1781955808
2313,16,Jits_ISO_5,2,5,56,103,1781966448
2313,16,Jits_ISO_5,3,5,63,98,1781976572
2313,16,Jits_ISO_5,0,1,48,36,1782299092
2313,16,Jits_ISO_5,1,5,80,127,1782445424
2313,16,Jits_ISO_5,2,5,56,103,1782466032
2313,16,Jits_ISO_5,3,5,63,98,1782535508
2313,16,Jits_ISO_5,0,1,48,41,1782933840
2313,16,Jits_ISO_5,1,5,56,103,1782956336
2313,16,Jits_ISO_5,2,5,80,127,1782986380
2313,16,Jits_ISO_5,3,5,63,98,1783005640
2313,16,Jits_ISO_5,0,1,48,38,1783395732
2313,16,Jits_ISO_5,1,5,63,98,1783445728
2313,16,Jits_ISO_5,2,5,56,103,1783506400
2313,16,Jits_ISO_5,3,5,80,127,1783535872
2313,16,Jits_ISO_5,0,1,48,43,1783886104
2313,16,Jits_ISO_5,1,5,63,98,1783936320
2313,16,Jits_ISO_5,2,5,80,127,1783939684
2313,16,Jits_ISO_5,3,5,56,103,1784025460
2313,16,Jits_ISO_5,0,1,48,42,1784375708
2313,16,Jits_ISO_5,1,5,56,103,1784455672
2313,16,Jits_ISO_5,2,5,63,98,1784486376
2313,16,Jits_ISO_5,3,5,80,127,1784526240
2313,16,Jits_ISO_5,0,1,48,42,1784901056
2313,16,Jits_ISO_5,1,5,63,98,1784956304
2313,16,Jits_ISO_5,2,5,56,103,1784996748
2313,16,Jits_ISO_5,3,5,80,127,1785015860
2313,16,Jits_ISO_5,0,1,48,44,1785410008
2313,16,Jits_ISO_5,1,5,63,98,1785466372
2313,16,Jits_ISO_5,2,5,56,103,1785506384
2313,16,Jits_ISO_5,3,5,80,127,1785516420
2313,16,Jits_ISO_5,0,1,48,47,1785942996
2313,16,Jits_ISO_5,1,5,80,127,1785945508
2313,16,Jits_ISO_5,2,5,63,98,1786016084
2313,16,Jits_ISO_5,3,5,56,103,1786035496
2313,16,Jits_ISO_5,0,5,56,103,1786436108
2313,16,Jits_ISO_5,1,5,80,127,1786456420
2313,16,Jits_ISO_5,2,1,48,39,1786474228
2313,16,Jits_ISO_5,3,5,63,98,1786496348
2313,16,Jits_ISO_5,0,1,48,29,1786938816
2313,16,Jits_ISO_5,1,5,63,98,1786945960
2313,16,Jits_ISO_5,2,5,80,127,1786966276
2313,16,Jits_ISO_5,3,5,56,103,1787006208
2313,16,Jits_ISO_5,0,1,48,40,1787441016
2313,16,Jits_ISO_5,1,5,63,98,1787445692
2313,16,Jits_ISO_5,2,5,56,103,1787466076
2313,16,Jits_ISO_5,3,5,80,127,1787476424
2313,16,Jits_ISO_5,0,1,48,38,1787924124
2313,16,Jits_ISO_5,1,5,80,127,1787955540
2313,16,Jits_ISO_5,2,5,56,103,1787976368
2313,16,Jits_ISO_5,3,5,63,98,1788005744
2313,16,Jits_ISO_5,0,1,48,41,1788433276
2313,16,Jits_ISO_5,1,5,56,103,1788526124
2313,16,Jits_ISO_5,2,5,80,127,1788529040
2313,16,Jits_ISO_5,3,5,63,98,1788546360
2313,16,Jits_ISO_5,0,5,63,98,1788945936
2313,16,Jits_ISO_5,1,1,48,39,1788948688
2313,16,Jits_ISO_5,2,5,56,103,1788975532
2313,16,Jits_ISO_5,3,5,80,127,1789035992
2313,16,Jits_ISO_5,0,1,48,41,1789431544
2313,16,Jits_ISO_5,1,5,63,98,1789527008
2313,16,Jits_ISO_5,2,5,56,103,1789535932
2313,16,Jits_ISO_5,3,5,80,127,1789546052
2313,16,Jits_ISO_5,0,1,48,46,1789936844
2313,16,Jits_ISO_5,1,5,56,103,1789975972
2313,16,Jits_ISO_5,2,5,80,127,1790005500
2313,16,Jits_ISO_5,3,5,63,98,1790016064
2313,16,Jits_ISO_5,0,1,48,43,1790440912
2313,16,Jits_ISO_5,1,5,63,98,1790515640
2313,16,Jits_ISO_5,2,5,56,103,1790525984
2313,16,Jits_ISO_5,3,5,80,127,1790546204
2313,16,Jits_ISO_5,0,1,48,43,1790924084
2313,16,Jits_ISO_5,1,5,56,103,1790945604
2313,16,Jits_ISO_5,2,5,63,98,1791006164
2313,16,Jits_ISO_5,3,5,80,127,1791009456
2313,16,Jits_ISO_5,0,1,48,27,1791445084
2313,16,Jits_ISO_5,1,5,80,127,1791466104
2313,16,Jits_ISO_5,2,5,56,103,1791476004
2313,16,Jits_ISO_5,3,5,63,98,1791545888
2313,16,Jits_ISO_5,0,1,48,49,1791926008
2313,16,Jits_ISO_5,1,5,80,127,1791965444
2313,16,Jits_ISO_5,2,5,56,103,1792036252
2313,16,Jits_ISO_5,3,5,63,98,1792045328
2313,16,Jits_ISO_5,0,1,48,46,1792436984
2313,16,Jits_ISO_5,1,5,63,98,1792506184
2313,16,Jits_ISO_5,2,5,56,103,1792515332
2313,16,Jits_ISO_5,3,5,80,127,1792535776
2313,16,Jits_ISO_5,0,5,80,127,1792955852
2313,16,Jits_ISO_5,1,1,48,42,1792959344
2313,16,Jits_ISO_5,2,5,63,98,1793016184
2313,16,Jits_ISO_5,3,5,56,103,1793056104
2313,16,Jits_ISO_5,0,1,48,43,1793427396
2313,16,Jits_ISO_5,1,5,56,103,1793496724
2313,16,Jits_ISO_5,2,5,63,98,1793505796
2313,16,Jits_ISO_5,3,5,80,127,1793545740
2313,16,Jits_ISO_5,0,1,48,50,1793912140
2313,16,Jits_ISO_5,1,5,56,103,1793956148
2313,16,Jits_ISO_5,2,5,80,127,1793985900
2313,16,Jits_ISO_5,3,5,63,98,1794036180
2313,16,Jits_ISO_5,0,1,48,46,1794417424
2313,16,Jits_ISO_5,1,5,56,103,1794495816
2313,16,Jits_ISO_5,2,5,63,98,1794535680
2313,16,Jits_ISO_5,3,5,80,127,1794539124
2313,16,Jits_ISO_5,0,1,48,47,1794936852
2313,16,Jits_ISO_5,1,5,56,103,1794995760
2313,16,Jits_ISO_5,2,5,63,98,1795005660
2313,16,Jits_ISO_5,3,5,80,127,1795026192
2313,16,Jits_ISO_5,0,1,48,42,1795424676
2313,16,Jits_ISO_5,1,5,56,103,1795456464
2313,16,Jits_ISO_5,2,5,80,127,1795459676
2313,16,Jits_ISO_5,3,5,63,98,1795496320
2313,16,Jits_ISO_5,0,1,48,47,1795902276
2313,16,Jits_ISO_5,1,5,63,98,1795995892
2313,16,Jits_ISO_5,2,5,56,103,1796025624
2313,16,Jits_ISO_5,3,5,80,127,1796046232
2313,16,Jits_ISO_5,0,1,48,40,1796419852
2313,16,Jits_ISO_5,1,5,80,127,1796466028
2313,16,Jits_ISO_5,2,5,56,103,1796476524
2313,16,Jits_ISO_5,3,5,63,98,1796485672
2313,16,Jits_ISO_5,0,1,48,45,1796938236
2313,16,Jits_ISO_5,1,5,56,103,1796965684
2313,16,Jits_ISO_5,2,5,80,127,1797005696
2313,16,Jits_ISO_5,3,5,63,98,1797036328
2313,16,Jits_ISO_5,0,1,48,36,1797438268
2313,16,Jits_ISO_5,1,5,63,98,1797475904
2313,16,Jits_ISO_5,2,5,80,127,1797485952
2313,16,Jits_ISO_5,3,5,56,103,1797496148
2313,16,Jits_ISO_5,0,1,48,42,1797951404
2313,16,Jits_ISO_5,1,5,56,103,1797956008
2313,16,Jits_ISO_5,2,5,63,98,1798025688
2313,16,Jits_ISO_5,3,5,80,127,1798035808
2313,16,Jits_ISO_5,0,1,48,41,1798420724
2313,16,Jits_ISO_5,1,5,80,127,1798455592
2313,16,Jits_ISO_5,2,5,56,103,1798465936
2313,16,Jits_ISO_5,3,5,63,98,1798516344
2313,16,Jits_ISO_5,0,1,48,42,1798926828
2313,16,Jits_ISO_5,1,5,80,127,1798965660
2313,16,Jits_ISO_5,2,5,56,103,1799025900
2313,16,Jits_ISO_5,3,5,63,98,1799055632
2313,16,Jits_ISO_5,0,1,48,43,1799441764
2313,16,Jits_ISO_5,1,5,56,103,1799475508
2313,16,Jits_ISO_5,2,5,80,127,1799478648
2313,16,Jits_ISO_5,3,5,63,98,1799515444
2313,16,Jits_ISO_5,0,1,48,43,1799955728
2313,16,Jits_ISO_5,1,5,56,103,1800005872
2313,16,Jits_ISO_5,2,5,63,98,1800035620
2313,16,Jits_ISO_5,3,5,80,127,1800045816
2313,16,Jits_ISO_5,0,1,48,43,1800456956
2313,16,Jits_ISO_5,1,5,63,98,1800516092
2313,16,Jits_ISO_5,2,5,80,127,1800526288
2313,16,Jits_ISO_5,3,5,56,103,1800536560
2313,16,Jits_ISO_5,0,1,48,46,1800960064
2313,16,Jits_ISO_5,1,5,80,127,1800965784
2313,16,Jits_ISO_5,2,5,56,103,1801015684
2313,16,Jits_ISO_5,3,5,63,98,1801018976
2313,16,Jits_ISO_5,0,1,48,40,1801420272
2313,16,Jits_ISO_5,1,5,56,103,1801495992
2313,16,Jits_ISO_5,2,5,80,127,1801516588
2313,16,Jits_ISO_5,3,5,63,98,1801525660
2313,16,Jits_ISO_5,0,1,48,52,1801939040
2313,16,Jits_ISO_5,1,5,63,98,1801976396
2313,16,Jits_ISO_5,2,5,56,103,1802005924
2313,16,Jits_ISO_5,3,5,80,127,1802026528
2313,16,Jits_ISO_5,0,1,48,38,1802437196
2313,16,Jits_ISO_5,1,5,56,103,1802486316
2313,16,Jits_ISO_5,2,5,80,127,1802496292
2313,16,Jits_ISO_5,3,5,63,98,1802565952
2313,16,Jits_ISO_5,0,1,48,38,1802953176
2313,16,Jits_ISO_5,1,5,63,98,1802975612
2313,16,Jits_ISO_5,2,5,80,127,1803015572
2313,16,Jits_ISO_5,3,5,56,103,1803055644
2313,16,Jits_ISO_5,0,1,48,45,1803429688
2313,16,Jits_ISO_5,1,5,56,103,1803495676
2313,16,Jits_ISO_5,2,5,63,98,1803506392
2313,16,Jits_ISO_5,3,5,80,127,1803525504
2313,16,Jits_ISO_5,0,1,48,44,1803916468
2313,16,Jits_ISO_5,1,5,63,98,1804035548
2313,16,Jits_ISO_5,2,5,80,127,1804055856
2313,16,Jits_ISO_5,3,5,56,103,1804076316
2313,16,Jits_ISO_5,0,1,48,41,1804426320
2313,16,Jits_ISO_5,1,5,56,103,1804475860
2313,16,Jits_ISO_5,2,5,80,127,1804555592
2313,16,Jits_ISO_5,3,5,63,98,1804566156
2313,16,Jits_ISO_5,0,1,48,40,1804927248
2313,16,Jits_ISO_5,1,5,80,127,1805016352
2313,16,Jits_ISO_5,2,5,63,98,1805025632
2313,16,Jits_ISO_5,3,5,56,103,1805056284
2313,16,Jits_ISO_5,0,1,48,42,1805454976
2313,16,Jits_ISO_5,1,5,63,98,1805476424
2313,16,Jits_ISO_5,2,5,80,127,1805516288
2313,16,Jits_ISO_5,3,5,56,103,1805575636
2313,16,Jits_ISO_5,0,1,48,46,1805949832
2313,16,Jits_ISO_5,1,5,63,98,1805986196
2313,16,Jits_ISO_5,2,5,56,103,1806036472
2313,16,Jits_ISO_5,3,5,80,127,1806066232
2313,16,Jits_ISO_5,0,1,48,45,1806467184
2313,16,Jits_ISO_5,1,5,80,127,1806496120
2313,16,Jits_ISO_5,2,5,63,98,1806506468
2313,16,Jits_ISO_5,3,5,56,103,1806576004
2313,16,Jits_ISO_5,0,1,48,30,1806999196
2313,16,Jits_ISO_5,1,5,80,127,1807065532
2313,16,Jits_ISO_5,2,5,56,103,1807076124
2313,16,Jits_ISO_5,3,5,63,98,1807078816
2313,16,Jits_ISO_5,0,5,56,103,1807505708
2313,16,Jits_ISO_5,1,1,48,46,1807510776
2313,16,Jits_ISO_5,2,5,80,127,1807526236
2313,16,Jits_ISO_5,3,5,63,98,1807535384
2313,16,Jits_ISO_5,0,1,48,48,1807993648
2313,16,Jits_ISO_5,1,5,63,98,1808016232
2313,16,Jits_ISO_5,2,5,56,103,1808055800
2313,16,Jits_ISO_5,3,5,80,127,1808076184
2313,16,Jits_ISO_5,0,5,63,98,1808515532
2313,16,Jits_ISO_5,1,1,48,31,1808529360
2313,16,Jits_ISO_5,2,5,56,103,1808575836
2313,16,Jits_ISO_5,3,5,80,127,1808579128
2313,16,Jits_ISO_5,0,1,48,46,1808968252
2313,16,Jits_ISO_5,1,5,56,103,1808976216
2313,16,Jits_ISO_5,2,5,80,127,1808995852
2313,16,Jits_ISO_5,3,5,63,98,1809035716
2313,16,Jits_ISO_5,0,1,48,41,1809493368
2313,16,Jits_ISO_5,1,5,56,103,1809505688
2313,16,Jits_ISO_5,2,5,63,98,1809526296
2313,16,Jits_ISO_5,3,5,80,127,1809536344
2313,16,Jits_ISO_5,0,5,80,127,1809975612
2313,16,Jits_ISO_5,1,1,48,50,1809987800
2313,16,Jits_ISO_5,2,5,56,103,1810006404
2313,16,Jits_ISO_5,3,5,63,98,1810046412
2313,16,Jits_ISO_5,0,5,80,127,1810485624
2313,16,Jits_ISO_5,1,1,48,54,1810506008
2313,16,Jits_ISO_5,2,5,56,103,1810507644
2313,16,Jits_ISO_5,3,5,63,98,1810565412
2313,16,Jits_ISO_5,0,1,48,52,1810995376
2313,16,Jits_ISO_5,1,5,56,103,1811005884
2313,16,Jits_ISO_5,2,5,80,127,1811026416
2313,16,Jits_ISO_5,3,5,63,98,1811085980
2313,16,Jits_ISO_5,0,1,48,51,1811481536
2313,16,Jits_ISO_5,1,5,80,127,1811486212
2313,16,Jits_ISO_5,2,5,56,103,1811496260
2313,16,Jits_ISO_5,3,5,63,98,1811536196
2313,16,Jits_ISO_5,0,5,63,98,1811985872
2313,16,Jits_ISO_5,1,1,48,51,1811986992
2313,16,Jits_ISO_5,2,5,56,103,1812025728
2313,16,Jits_ISO_5,3,5,80,127,1812028948
2313,16,Jits_ISO_5,0,1,48,55,1812505144
2313,16,Jits_ISO_5,1,5,63,98,1812507092
2313,16,Jits_ISO_5,2,5,80,127,1812546056
2313,16,Jits_ISO_5,3,5,56,103,1812575580
2313,16,Jits_ISO_5,0,1,48,50,1812992336
2313,16,Jits_ISO_5,1,5,56,103,1812995440
2313,16,Jits_ISO_5,2,5,63,98,1813006008
2313,16,Jits_ISO_5,3,5,80,127,1813036284
2313,16,Jits_ISO_5,0,5,80,127,1813486032
2313,16,Jits_ISO_5,1,1,48,52,1813491172
2313,16,Jits_ISO_5,2,5,63,98,1813555632
2313,16,Jits_ISO_5,3,5,56,103,1813565900
2313,16,Jits_ISO_5,0,5,63,98,1813985608
2313,16,Jits_ISO_5,1,1,48,63,1814001332
2313,16,Jits_ISO_5,2,5,56,103,1814056352
2313,16,Jits_ISO_5,3,5,80,127,1814065500
2313,16,Jits_ISO_5,0,1,48,53,1814485636
2313,16,Jits_ISO_5,1,5,63,98,1814487356
2313,16,Jits_ISO_5,2,5,56,103,1814505820
2313,16,Jits_ISO_5,3,5,80,127,1814546052
2313,16,Jits_ISO_5,0,1,48,59,1814983452
2313,16,Jits_ISO_5,1,5,56,103,1815005668
2313,16,Jits_ISO_5,2,5,63,98,1815015960
2313,16,Jits_ISO_5,3,5,80,127,1815095812
2313,16,Jits_ISO_5,0,1,48,58,1815455108
2313,16,Jits_ISO_5,1,5,63,98,1815496108
2313,16,Jits_ISO_5,2,5,56,103,1815525956
2313,16,Jits_ISO_5,3,5,80,127,1815565876
2313,16,Jits_ISO_5,0,1,48,54,1815956332
2313,16,Jits_ISO_5,1,5,56,103,1815995916
2313,16,Jits_ISO_5,2,5,63,98,1816035728
2313,16,Jits_ISO_5,3,5,80,127,1816075648
2313,16,Jits_ISO_5,0,1,48,55,1816461152
2313,16,Jits_ISO_5,1,5,80,127,1816495796
2313,16,Jits_ISO_5,2,5,56,103,1816576352
2313,16,Jits_ISO_5,3,5,63,98,1816585796
2313,16,Jits_ISO_5,0,1,48,57,1817001192
2313,16,Jits_ISO_5,1,5,56,103,1817036052
2313,16,Jits_ISO_5,2,5,63,98,1817039200
2313,16,Jits_ISO_5,3,5,80,127,1817046328
2313,16,Jits_ISO_5,0,1,48,51,1817501136
2313,16,Jits_ISO_5,1,5,56,103,1817556308
2313,16,Jits_ISO_5,2,5,63,98,1817575744
2313,16,Jits_ISO_5,3,5,80,127,1817585940
2313,16,Jits_ISO_5,0,5,63,98,1818016124
2313,16,Jits_ISO_5,1,1,48,54,1818020964
2313,16,Jits_ISO_5,2,5,80,127,1818026240
2313,16,Jits_ISO_5,3,5,56,103,1818045948
2313,16,Jits_ISO_5,0,5,63,98,1818515780
2313,16,Jits_ISO_5,1,1,48,50,1818550736
2313,16,Jits_ISO_5,2,5,56,103,1818595664
2313,16,Jits_ISO_5,3,5,80,127,1818598808
2313,16,Jits_ISO_5,0,5,63,98,1819015804
2313,16,Jits_ISO_5,1,5,56,103,1819036116
2313,16,Jits_ISO_5,2,1,48,60,1819051444
2313,16,Jits_ISO_5,3,5,80,127,1819065708
2313,16,Jits_ISO_5,0,1,48,46,1819513696
2313,16,Jits_ISO_5,1,5,56,103,1819516208
2313,16,Jits_ISO_5,2,5,63,98,1819535768
2313,16,Jits_ISO_5,3,5,80,127,1819545888
2313,16,Jits_ISO_5,0,1,48,48,1820016964
2313,16,Jits_ISO_5,1,5,56,103,1820045756
2313,16,Jits_ISO_5,2,5,63,98,1820076332
2313,16,Jits_ISO_5,3,5,80,127,1820079844
2313,16,Jits_ISO_5,0,5,56,103,1820496192
2313,16,Jits_ISO_5,1,1,48,59,1820523128
2313,16,Jits_ISO_5,2,5,63,98,1820536124
2313,16,Jits_ISO_5,3,5,80,127,1820595908
2313,16,Jits_ISO_5,0,1,48,55,1820997108
2313,16,Jits_ISO_5,1,5,56,103,1821016688
2313,16,Jits_ISO_5,2,5,63,98,1821025684
2313,16,Jits_ISO_5,3,5,80,127,1821085920
2313,16,Jits_ISO_5,0,1,48,58,1821470460
2313,16,Jits_ISO_5,1,5,56,103,1821516120
2313,16,Jits_ISO_5,2,5,80,127,1821535756
2313,16,Jits_ISO_5,3,5,63,98,1821566908
2313,16,Jits_ISO_5,0,1,48,47,1821955148
2313,16,Jits_ISO_5,1,5,80,127,1822015780
2313,16,Jits_ISO_5,2,5,56,103,1822026048
2313,16,Jits_ISO_5,3,5,63,98,1822045608
2313,16,Jits_ISO_5,0,1,48,59,1822478248
2313,16,Jits_ISO_5,1,5,63,98,1822515512
2313,16,Jits_ISO_5,2,5,80,127,1822595440
2313,16,Jits_ISO_5,3,5,56,103,1822605560
2313,16,Jits_ISO_5,0,1,48,51,1822977464
2313,16,Jits_ISO_5,1,5,80,127,1823075768
2313,16,Jits_ISO_5,2,5,56,103,1823096068
2313,16,Jits_ISO_5,3,5,63,98,1823099216
2313,16,Jits_ISO_5,0,1,48,40,1823457836
2313,16,Jits_ISO_5,1,5,63,98,1823545764
2313,16,Jits_ISO_5,2,5,80,127,1823549056
2313,16,Jits_ISO_5,3,5,56,103,1823605988
2313,16,Jits_ISO_5,0,1,48,50,1823951484
2313,16,Jits_ISO_5,1,5,56,103,1824025864
2313,16,Jits_ISO_5,2,5,80,127,1824036132
2313,16,Jits_ISO_5,3,5,63,98,1824076128
2313,16,Jits_ISO_5,0,1,48,48,1824453688
2313,16,Jits_ISO_5,1,5,56,103,1824506412
2313,16,Jits_ISO_5,2,5,63,98,1824565516
2313,16,Jits_ISO_5,3,5,80,127,1824575712
2313,16,Jits_ISO_5,0,1,48,48,1824952820
2313,16,Jits_ISO_5,1,5,63,98,1825016036
2313,16,Jits_ISO_5,2,5,80,127,1825056036
2313,16,Jits_ISO_5,3,5,56,103,1825096044
2313,16,Jits_ISO_5,0,1,48,49,1825451656
2313,16,Jits_ISO_5,1,5,56,103,1825515768
2313,16,Jits_ISO_5,2,5,63,98,1825595696
2313,16,Jits_ISO_5,3,5,80,127,1825598988
2313,16,Jits_ISO_5,0,9999,9999,9999,1766223980
2313,16,Jits_ISO_5,1,9999,9999,9999,1766723700
2313,16,Jits_ISO_5,2,9999,9999,9999,1767223420
2313,16,Jits_ISO_5,3,9999,9999,9999,1767723076
2313,16,Jits_ISO_5,4,9999,9999,9999,1768223860
2313,16,Jits_ISO_5,5,9999,9999,9999,1768723520
2313,16,Jits_ISO_5,6,9999,9999,9999,1769223252
2313,16,Jits_ISO_5,7,9999,9999,9999,1769723960
2313,16,Jits_ISO_5,8,9999,9999,9999,1770223692
2313,16,Jits_ISO_5,9,9999,9999,9999,1770723400
2313,16,Jits_ISO_5,10,9999,9999,9999,1771223124
2313,16,Jits_ISO_5,11,9999,9999,9999,1771723828
2313,16,Jits_ISO_5,12,9999,9999,9999,1772223556
2313,16,Jits_ISO_5,13,9999,9999,9999,1772723284
2313,16,Jits_ISO_5,14,9999,9999,9999,1773224024
2313,16,Jits_ISO_5,15,9999,9999,9999,1773723704
2313,16,Jits_ISO_5,16,9999,9999,9999,1774223448
2313,16,Jits_ISO_5,17,9999,9999,9999,1774723180
2313,16,Jits_ISO_5,18,9999,9999,9999,1775223888
2313,16,Jits_ISO_5,19,9999,9999,9999,1775723620
2313,16,Jits_ISO_5,20,9999,9999,9999,1776223356
2313,16,Jits_ISO_5,21,9999,9999,9999,1776724060
2313,16,Jits_ISO_5,22,9999,9999,9999,1777223792
2313,16,Jits_ISO_5,23,9999,9999,9999,1777723452
2313,16,Jits_ISO_5,24,9999,9999,9999,1778223188
2313,16,Jits_ISO_5,25,9999,9999,9999,1778723960
2313,16,Jits_ISO_5,26,9999,9999,9999,1779223620
2313,16,Jits_ISO_5,27,9999,9999,9999,1779723324
2313,16,Jits_ISO_5,28,9999,9999,9999,1780224076
2313,16,Jits_ISO_5,29,9999,9999,9999,1780734052
2313,16,Jits_ISO_5,30,9999,9999,9999,1781233760
2313,16,Jits_ISO_5,31,9999,9999,9999,1781733496
2313,16,Jits_ISO_5,32,9999,9999,9999,1782233200
2313,16,Jits_ISO_5,33,9999,9999,9999,1782733908
2313,16,Jits_ISO_5,34,9999,9999,9999,1783233640
2313,16,Jits_ISO_5,35,9999,9999,9999,1783733300
2313,16,Jits_ISO_5,36,9999,9999,9999,1784234072
2313,16,Jits_ISO_5,37,9999,9999,9999,1784733804
2313,16,Jits_ISO_5,38,9999,9999,9999,1785233464
2313,16,Jits_ISO_5,39,9999,9999,9999,1785733196
2313,16,Jits_ISO_5,40,9999,9999,9999,1786233980
2313,16,Jits_ISO_5,41,9999,9999,9999,1786733636
2313,16,Jits_ISO_5,42,9999,9999,9999,1787233384
2313,16,Jits_ISO_5,43,9999,9999,9999,1787734084
2313,16,Jits_ISO_5,44,9999,9999,9999,1788244080
2313,16,Jits_ISO_5,45,9999,9999,9999,1788743732
2313,16,Jits_ISO_5,46,9999,9999,9999,1789243468
2313,16,Jits_ISO_5,47,9999,9999,9999,1789743208
2313,16,Jits_ISO_5,48,9999,9999,9999,1790243916
2313,16,Jits_ISO_5,49,9999,9999,9999,1790743656
2313,16,Jits_ISO_5,50,9999,9999,9999,1791243380
2313,16,Jits_ISO_5,51,9999,9999,9999,1791744088
2313,16,Jits_ISO_5,52,9999,9999,9999,1792254012
2313,16,Jits_ISO_5,53,9999,9999,9999,1792753748
2313,16,Jits_ISO_5,54,9999,9999,9999,1793253484
2313,16,Jits_ISO_5,55,9999,9999,9999,1793753208
2313,16,Jits_ISO_5,56,9999,9999,9999,1794253908
2313,16,Jits_ISO_5,57,9999,9999,9999,1794753636
2313,16,Jits_ISO_5,58,9999,9999,9999,1795253368
2313,16,Jits_ISO_5,59,9999,9999,9999,1795754060
2313,16,Jits_ISO_5,60,9999,9999,9999,1796253796
2313,16,Jits_ISO_5,61,9999,9999,9999,1796753524
2313,16,Jits_ISO_5,62,9999,9999,9999,1797253180
2313,16,Jits_ISO_5,63,9999,9999,9999,1797753960
2313,16,Jits_ISO_5,64,9999,9999,9999,1798253616
2313,16,Jits_ISO_5,65,9999,9999,9999,1798753348
2313,16,Jits_ISO_5,66,9999,9999,9999,1799254132
2313,16,Jits_ISO_5,67,9999,9999,9999,1799764040
2313,16,Jits_ISO_5,68,9999,9999,9999,1800263776
2313,16,Jits_ISO_5,69,9999,9999,9999,1800763508
2313,16,Jits_ISO_5,70,9999,9999,9999,1801263160
2313,16,Jits_ISO_5,71,9999,9999,9999,1801763936
2313,16,Jits_ISO_5,72,9999,9999,9999,1802263668
2313,16,Jits_ISO_5,73,9999,9999,9999,1802763328
2313,16,Jits_ISO_5,74,9999,9999,9999,1803264108
2313,16,Jits_ISO_5,75,9999,9999,9999,1803774028
2313,16,Jits_ISO_5,76,9999,9999,9999,1804273764
2313,16,Jits_ISO_5,77,9999,9999,9999,1804773500
2313,16,Jits_ISO_5,78,9999,9999,9999,1805273184
2313,16,Jits_ISO_5,79,9999,9999,9999,1805773888
2313,16,Jits_ISO_5,80,9999,9999,9999,1806273620
2313,16,Jits_ISO_5,81,9999,9999,9999,1806773356
2313,16,Jits_ISO_5,82,9999,9999,9999,1807274060
2313,16,Jits_ISO_5,83,9999,9999,9999,1807773792
2313,16,Jits_ISO_5,84,9999,9999,9999,1808273472
2313,16,Jits_ISO_5,85,9999,9999,9999,1808773196
2313,16,Jits_ISO_5,86,9999,9999,9999,1809273976
2313,16,Jits_ISO_5,87,9999,9999,9999,1809773632
2313,16,Jits_ISO_5,88,9999,9999,9999,1810273364
2313,16,Jits_ISO_5,89,9999,9999,9999,1810774084
2313,16,Jits_ISO_5,90,9999,9999,9999,1811284020
2313,16,Jits_ISO_5,91,9999,9999,9999,1811783744
2313,16,Jits_ISO_5,92,9999,9999,9999,1812283468
2313,16,Jits_ISO_5,93,9999,9999,9999,1812783204
2313,16,Jits_ISO_5,94,9999,9999,9999,1813283908
2313,16,Jits_ISO_5,95,9999,9999,9999,1813783636
2313,16,Jits_ISO_5,96,9999,9999,9999,1814283388
2313,16,Jits_ISO_5,97,9999,9999,9999,1814784092
2313,16,Jits_ISO_5,98,9999,9999,9999,1815294012
2313,16,Jits_ISO_5,99,9999,9999,9999,1815793744
2313,16,Jits_ISO_5,100,9999,9999,9999,1816293476
2313,16,Jits_ISO_5,101,9999,9999,9999,1816793184
2313,16,Jits_ISO_5,102,9999,9999,9999,1817293876
2313,16,Jits_ISO_5,103,9999,9999,9999,1817793616
2313,16,Jits_ISO_5,104,9999,9999,9999,1818293348
2313,16,Jits_ISO_5,105,9999,9999,9999,1818794048
2313,16,Jits_ISO_5,106,9999,9999,9999,1819293784
2313,16,Jits_ISO_5,107,9999,9999,9999,1819793512
2313,16,Jits_ISO_5,108,9999,9999,9999,1820293244
2313,16,Jits_ISO_5,109,9999,9999,9999,1820793948
2313,16,Jits_ISO_5,110,9999,9999,9999,1821293620
2313,16,Jits_ISO_5,111,9999,9999,9999,1821793352
2313,16,Jits_ISO_5,112,9999,9999,9999,1822294132
2313,16,Jits_ISO_5,113,9999,9999,9999,1822804056
2313,16,Jits_ISO_5,114,9999,9999,9999,1823303788
2313,16,Jits_ISO_5,115,9999,9999,9999,1823803512
2313,16,Jits_ISO_5,116,9999,9999,9999,1824303172
2313,16,Jits_ISO_5,117,9999,9999,9999,1824803952
2313,16,Jits_ISO_5,118,9999,9999,9999,1825303608
2313,16,Jits_ISO_5,119,9999,9999,9999,1825803336
2314,7,Jits_ISO_8,0,5,56,103,1844578712
2314,7,Jits_ISO_8,1,5,63,98,1844581808
2314,7,Jits_ISO_8,2,5,80,127,1844584780
2314,7,Jits_ISO_8,0,1,48,31,1845119880
2314,7,Jits_ISO_8,1,5,56,103,1845378688
2314,7,Jits_ISO_8,2,5,63,98,1845381716
2314,7,Jits_ISO_8,3,5,80,127,1845384832
2314,7,Jits_ISO_8,0,1,48,34,1845872668
2314,7,Jits_ISO_8,1,5,80,127,1846118760
2314,7,Jits_ISO_8,2,5,63,98,1846208744
2314,7,Jits_ISO_8,3,5,56,103,1846219092
2314,7,Jits_ISO_8,0,5,56,103,1846938868
2314,7,Jits_ISO_8,1,5,63,98,1846949360
2314,7,Jits_ISO_8,2,1,48,19,1846967772
2314,7,Jits_ISO_8,3,5,80,127,1847039512
2314,7,Jits_ISO_8,0,1,48,54,1847685500
2314,7,Jits_ISO_8,1,5,63,98,1847708912
2314,7,Jits_ISO_8,2,5,80,127,1847738668
2314,7,Jits_ISO_8,3,5,56,103,1847768492
2314,7,Jits_ISO_8,0,1,48,55,1848437492
2314,7,Jits_ISO_8,1,5,56,103,1848508768
2314,7,Jits_ISO_8,2,5,80,127,1848609100
2314,7,Jits_ISO_8,3,5,63,98,1848659452
2314,7,Jits_ISO_8,0,1,48,48,1849285668
2314,7,Jits_ISO_8,1,5,56,103,1849308404
2314,7,Jits_ISO_8,2,5,80,127,1849358560
2314,7,Jits_ISO_8,3,5,63,98,1849398632
2314,7,Jits_ISO_8,0,1,48,49,1850095732
2314,7,Jits_ISO_8,1,5,80,127,1850139000
2314,7,Jits_ISO_8,2,5,63,98,1850168752
2314,7,Jits_ISO_8,3,5,56,103,1850239240
2314,7,Jits_ISO_8,0,1,48,63,1850949324
2314,7,Jits_ISO_8,1,5,63,98,1850968456
2314,7,Jits_ISO_8,2,5,56,103,1850999252
2314,7,Jits_ISO_8,3,5,80,127,1851058432
2314,7,Jits_ISO_8,0,5,56,103,1851708676
2314,7,Jits_ISO_8,1,1,48,53,1851710788
2314,7,Jits_ISO_8,2,5,80,127,1851713308
2314,7,Jits_ISO_8,3,5,63,98,1851828536
2314,7,Jits_ISO_8,0,1,48,57,1852504604
2314,7,Jits_ISO_8,1,5,56,103,1852589380
2314,7,Jits_ISO_8,2,5,80,127,1852629380
2314,7,Jits_ISO_8,3,5,63,98,1852638528
2314,7,Jits_ISO_8,0,5,56,103,1853349316
2314,7,Jits_ISO_8,1,5,80,127,1853368800
2314,7,Jits_ISO_8,2,1,48,51,1853440720
2314,7,Jits_ISO_8,3,5,63,98,1853448616
2314,7,Jits_ISO_8,0,5,80,127,1854138704
2314,7,Jits_ISO_8,1,1,48,52,1854216404
2314,7,Jits_ISO_8,2,5,56,103,1854239272
2314,7,Jits_ISO_8,3,5,63,98,1854249320
2314,7,Jits_ISO_8,0,5,63,98,1854908836
2314,7,Jits_ISO_8,1,5,80,127,1854969180
2314,7,Jits_ISO_8,2,5,56,103,1854978480
2314,7,Jits_ISO_8,3,1,48,55,1854992536
2314,7,Jits_ISO_8,0,1,48,47,1855494296
2314,7,Jits_ISO_8,1,5,56,103,1855708448
2314,7,Jits_ISO_8,2,5,63,98,1855779276
2314,7,Jits_ISO_8,3,5,80,127,1855782640
2314,7,Jits_ISO_8,0,1,48,46,1856513320
2314,7,Jits_ISO_8,1,5,63,98,1856538976
2314,7,Jits_ISO_8,2,5,56,103,1856589252
2314,7,Jits_ISO_8,3,5,80,127,1856592320
2314,7,Jits_ISO_8,0,5,56,103,1857298744
2314,7,Jits_ISO_8,1,5,80,127,1857301884
2314,7,Jits_ISO_8,2,1,48,51,1857319768
2314,7,Jits_ISO_8,3,5,63,98,1857389092
2314,7,Jits_ISO_8,0,1,48,49,1858039080
2314,7,Jits_ISO_8,1,5,63,98,1858138364
2314,7,Jits_ISO_8,2,5,56,103,1858228576
2314,7,Jits_ISO_8,3,5,80,127,1858259372
2314,7,Jits_ISO_8,0,1,48,50,1858877832
2314,7,Jits_ISO_8,1,5,56,103,1858929172
2314,7,Jits_ISO_8,2,5,63,98,1859029260
2314,7,Jits_ISO_8,3,5,80,127,1859058960
2314,7,Jits_ISO_8,0,5,63,98,1859749200
2314,7,Jits_ISO_8,1,5,56,103,1859758572
2314,7,Jits_ISO_8,2,1,48,46,1859769188
2314,7,Jits_ISO_8,3,5,80,127,1859848576
2314,7,Jits_ISO_8,0,1,48,51,1860550376
2314,7,Jits_ISO_8,1,5,63,98,1860568312
2314,7,Jits_ISO_8,2,5,56,103,1860649232
2314,7,Jits_ISO_8,3,5,80,127,1860652748
2314,7,Jits_ISO_8,0,5,80,127,1861329288
2314,7,Jits_ISO_8,1,1,48,50,1861342964
2314,7,Jits_ISO_8,2,5,63,98,1861348844
2314,7,Jits_ISO_8,3,5,56,103,1861409084
2314,7,Jits_ISO_8,0,1,48,54,1862124392
2314,7,Jits_ISO_8,1,5,56,103,1862169084
2314,7,Jits_ISO_8,2,5,63,98,1862189392
2314,7,Jits_ISO_8,3,5,80,127,1862192832
2314,7,Jits_ISO_8,0,1,48,63,1862907336
2314,7,Jits_ISO_8,1,5,63,98,1862909220
2314,7,Jits_ISO_8,2,5,80,127,1862989168
2314,7,Jits_ISO_8,3,5,56,103,1862999512
2314,7,Jits_ISO_8,0,1,48,60,1863704700
2314,7,Jits_ISO_8,1,5,63,98,1863728780
2314,7,Jits_ISO_8,2,5,56,103,1863748944
2314,7,Jits_ISO_8,3,5,80,127,1863799204
2314,7,Jits_ISO_8,0,1,48,62,1864441320
2314,7,Jits_ISO_8,1,5,80,127,1864529608
2314,7,Jits_ISO_8,2,5,63,98,1864569160
2314,7,Jits_ISO_8,3,5,56,103,1864588572
2314,7,Jits_ISO_8,0,1,48,59,1865272268
2314,7,Jits_ISO_8,1,5,56,103,1865368804
2314,7,Jits_ISO_8,2,5,63,98,1865379060
2314,7,Jits_ISO_8,3,5,80,127,1865398768
2314,7,Jits_ISO_8,0,1,48,57,1866078204
2314,7,Jits_ISO_8,1,5,56,103,1866098980
2314,7,Jits_ISO_8,2,5,63,98,1866189104
2314,7,Jits_ISO_8,3,5,80,127,1866248768
2314,7,Jits_ISO_8,0,1,48,58,1866874828
2314,7,Jits_ISO_8,1,5,80,127,1866928512
2314,7,Jits_ISO_8,2,5,56,103,1866938636
2314,7,Jits_ISO_8,3,5,63,98,1867009644
2314,7,Jits_ISO_8,0,1,48,51,1867712808
2314,7,Jits_ISO_8,1,5,63,98,1867758868
2314,7,Jits_ISO_8,2,5,80,127,1867848988
2314,7,Jits_ISO_8,3,5,56,103,1867859260
2314,7,Jits_ISO_8,0,5,63,98,1868499372
2314,7,Jits_ISO_8,1,5,80,127,1868548480
2314,7,Jits_ISO_8,2,1,48,62,1868555860
2314,7,Jits_ISO_8,3,5,56,103,1868608864
2314,7,Jits_ISO_8,0,1,48,54,1869282440
2314,7,Jits_ISO_8,1,5,56,103,1869328768
2314,7,Jits_ISO_8,2,5,80,127,1869378900
2314,7,Jits_ISO_8,3,5,63,98,1869399416
2314,7,Jits_ISO_8,0,5,56,103,1870098740
2314,7,Jits_ISO_8,1,1,48,60,1870131228
2314,7,Jits_ISO_8,2,5,80,127,1870159496
2314,7,Jits_ISO_8,3,5,63,98,1870228864
2314,7,Jits_ISO_8,0,1,48,63,1870865296
2314,7,Jits_ISO_8,1,5,56,103,1870898528
2314,7,Jits_ISO_8,2,5,80,127,1870929400
2314,7,Jits_ISO_8,3,5,63,98,1870959148
2314,7,Jits_ISO_8,0,1,48,49,1871671976
2314,7,Jits_ISO_8,1,5,56,103,1871739512
2314,7,Jits_ISO_8,2,5,80,127,1871758700
2314,7,Jits_ISO_8,3,5,63,98,1871819300
2314,7,Jits_ISO_8,0,1,48,53,1872482176
2314,7,Jits_ISO_8,1,5,80,127,1872618804
2314,7,Jits_ISO_8,2,5,56,103,1872629372
2314,7,Jits_ISO_8,3,5,63,98,1872639644
2314,7,Jits_ISO_8,0,1,48,54,1873311040
2314,7,Jits_ISO_8,1,5,56,103,1873378748
2314,7,Jits_ISO_8,2,5,80,127,1873418676
2314,7,Jits_ISO_8,3,5,63,98,1873449320
2314,7,Jits_ISO_8,0,1,48,43,1874136908
2314,7,Jits_ISO_8,1,5,56,103,1874148720
2314,7,Jits_ISO_8,2,5,63,98,1874178396
2314,7,Jits_ISO_8,3,5,80,127,1874219532
2314,7,Jits_ISO_8,0,5,80,127,1874899408
2314,7,Jits_ISO_8,1,1,48,56,1874901924
2314,7,Jits_ISO_8,2,5,63,98,1874948432
2314,7,Jits_ISO_8,3,5,56,103,1874968892
2314,7,Jits_ISO_8,0,1,48,56,1875673012
2314,7,Jits_ISO_8,1,5,56,103,1875728740
2314,7,Jits_ISO_8,2,5,80,127,1875799380
2314,7,Jits_ISO_8,3,5,63,98,1875858800
2314,7,Jits_ISO_8,0,1,48,46,1876526336
2314,7,Jits_ISO_8,1,5,80,127,1876528452
2314,7,Jits_ISO_8,2,5,63,98,1876618588
2314,7,Jits_ISO_8,3,5,56,103,1876639180
2314,7,Jits_ISO_8,0,1,48,46,1877311124
2314,7,Jits_ISO_8,1,5,63,98,1877348616
2314,7,Jits_ISO_8,2,5,56,103,1877369300
2314,7,Jits_ISO_8,3,5,80,127,1877409296
2314,7,Jits_ISO_8,0,5,80,127,1878108548
2314,7,Jits_ISO_8,1,5,63,98,1878129156
2314,7,Jits_ISO_8,2,1,48,49,1878142684
2314,7,Jits_ISO_8,3,5,56,103,1878209092
2314,7,Jits_ISO_8,0,5,63,98,1878899196
2314,7,Jits_ISO_8,1,1,48,54,1878904780
2314,7,Jits_ISO_8,2,5,56,103,1879008668
2314,7,Jits_ISO_8,3,5,80,127,1879011804
2314,7,Jits_ISO_8,0,1,48,55,1879679312
2314,7,Jits_ISO_8,1,5,63,98,1879719272
2314,7,Jits_ISO_8,2,5,56,103,1879728492
2314,7,Jits_ISO_8,3,5,80,127,1879731484
2314,7,Jits_ISO_8,0,1,48,46,1880488524
2314,7,Jits_ISO_8,1,5,56,103,1880498512
2314,7,Jits_ISO_8,2,5,80,127,1880619372
2314,7,Jits_ISO_8,3,5,63,98,1880659460
2314,7,Jits_ISO_8,0,5,56,103,1881318856
2314,7,Jits_ISO_8,1,1,48,55,1881338992
2314,7,Jits_ISO_8,2,5,80,127,1881398648
2314,7,Jits_ISO_8,3,5,63,98,1881419108
2314,7,Jits_ISO_8,0,1,48,48,1882090900
2314,7,Jits_ISO_8,1,5,56,103,1882118428
2314,7,Jits_ISO_8,2,5,63,98,1882229148
2314,7,Jits_ISO_8,3,5,80,127,1882232508
2314,7,Jits_ISO_8,0,1,48,52,1882905428
2314,7,Jits_ISO_8,1,5,56,103,1882948920
2314,7,Jits_ISO_8,2,5,80,127,1882978748
2314,7,Jits_ISO_8,3,5,63,98,1882999056
2314,7,Jits_ISO_8,0,1,48,55,1883707404
2314,7,Jits_ISO_8,1,5,63,98,1883729224
2314,7,Jits_ISO_8,2,5,56,103,1883738448
2314,7,Jits_ISO_8,3,5,80,127,1883748720
2314,7,Jits_ISO_8,0,5,80,127,1884518748
2314,7,Jits_ISO_8,1,1,48,51,1884532500
2314,7,Jits_ISO_8,2,5,56,103,1884568944
2314,7,Jits_ISO_8,3,5,63,98,1884608956
2314,7,Jits_ISO_8,0,1,48,58,1885334384
2314,7,Jits_ISO_8,1,5,80,127,1885339136
2314,7,Jits_ISO_8,2,5,63,98,1885358328
2314,7,Jits_ISO_8,3,5,56,103,1885408776
2314,7,Jits_ISO_8,0,1,48,58,1886082848
2314,7,Jits_ISO_8,1,5,80,127,1886148964
2314,7,Jits_ISO_8,2,5,56,103,1886178876
2314,7,Jits_ISO_8,3,5,63,98,1886249528
2314,7,Jits_ISO_8,0,1,48,59,1886878152
2314,7,Jits_ISO_8,1,5,56,103,1886998812
2314,7,Jits_ISO_8,2,5,80,127,1887009228
2314,7,Jits_ISO_8,3,5,63,98,1887049168
2314,7,Jits_ISO_8,0,5,56,103,1887708612
2314,7,Jits_ISO_8,1,5,63,98,1887729172
2314,7,Jits_ISO_8,2,1,48,52,1887748184
2314,7,Jits_ISO_8,3,5,80,127,1887798844
2314,7,Jits_ISO_8,0,1,48,55,1888504344
2314,7,Jits_ISO_8,1,5,63,98,1888528728
2314,7,Jits_ISO_8,2,5,80,127,1888589196
2314,7,Jits_ISO_8,3,5,56,103,1888608740
2314,7,Jits_ISO_8,0,1,48,43,1889297392
2314,7,Jits_ISO_8,1,5,80,127,1889319368
2314,7,Jits_ISO_8,2,5,56,103,1889349120
2314,7,Jits_ISO_8,3,5,63,98,1889378868
2314,7,Jits_ISO_8,0,1,48,60,1890090352
2314,7,Jits_ISO_8,1,5,56,103,1890118996
2314,7,Jits_ISO_8,2,5,63,98,1890178492
2314,7,Jits_ISO_8,3,5,80,127,1890238720
2314,7,Jits_ISO_8,0,5,80,127,1890939392
2314,7,Jits_ISO_8,1,1,48,56,1890949336
2314,7,Jits_ISO_8,2,5,56,103,1890958652
2314,7,Jits_ISO_8,3,5,63,98,1891029524
2314,7,Jits_ISO_8,0,5,80,127,1891738968
2314,7,Jits_ISO_8,1,5,63,98,1891758528
2314,7,Jits_ISO_8,2,5,56,103,1891789104
2314,7,Jits_ISO_8,3,1,48,57,1891826544
2314,7,Jits_ISO_8,0,5,80,127,1892528720
2314,7,Jits_ISO_8,1,5,63,98,1892548884
2314,7,Jits_ISO_8,2,1,48,57,1892582592
2314,7,Jits_ISO_8,3,5,56,103,1892609664
2314,7,Jits_ISO_8,0,5,80,127,1893329340
2314,7,Jits_ISO_8,1,1,48,50,1893353084
2314,7,Jits_ISO_8,2,5,56,103,1893428564
2314,7,Jits_ISO_8,3,5,63,98,1893459420
2314,7,Jits_ISO_8,0,5,63,98,1894118828
2314,7,Jits_ISO_8,1,5,80,127,1894168888
2314,7,Jits_ISO_8,2,5,56,103,1894189644
2314,7,Jits_ISO_8,3,1,48,59,1894221604
2314,7,Jits_ISO_8,0,1,48,44,1894909740
2314,7,Jits_ISO_8,1,5,80,127,1894958320
2314,7,Jits_ISO_8,2,5,56,103,1894989264
2314,7,Jits_ISO_8,3,5,63,98,1894992328
2314,7,Jits_ISO_8,0,1,48,51,1895668460
2314,7,Jits_ISO_8,1,5,63,98,1895788948
2314,7,Jits_ISO_8,2,5,56,103,1895828888
2314,7,Jits_ISO_8,3,5,80,127,1895849272
2314,7,Jits_ISO_8,0,1,48,49,1896470120
2314,7,Jits_ISO_8,1,5,80,127,1896529336
2314,7,Jits_ISO_8,2,5,63,98,1896609344
2314,7,Jits_ISO_8,3,5,56,103,1896649132
2314,7,Jits_ISO_8,0,1,48,44,1897282188
2314,7,Jits_ISO_8,1,5,63,98,1897348528
2314,7,Jits_ISO_8,2,5,80,127,1897429432
2314,7,Jits_ISO_8,3,5,56,103,1897448796
2314,7,Jits_ISO_8,0,1,48,46,1898106468
2314,7,Jits_ISO_8,1,5,56,103,1898189148
2314,7,Jits_ISO_8,2,5,63,98,1898199268
2314,7,Jits_ISO_8,3,5,80,127,1898239292
2314,7,Jits_ISO_8,0,5,56,103,1898909220
2314,7,Jits_ISO_8,1,5,80,127,1898912136
2314,7,Jits_ISO_8,2,1,48,47,1898946812
2314,7,Jits_ISO_8,3,5,63,98,1899049324
2314,7,Jits_ISO_8,0,5,56,103,1899698520
2314,7,Jits_ISO_8,1,1,48,58,1899757640
2314,7,Jits_ISO_8,2,5,63,98,1899788748
2314,7,Jits_ISO_8,3,5,80,127,1899859312
2314,7,Jits_ISO_8,0,1,48,56,1900516528
2314,7,Jits_ISO_8,1,5,63,98,1900579176
2314,7,Jits_ISO_8,2,5,80,127,1900582540
2314,7,Jits_ISO_8,3,5,56,103,1900638580
2314,7,Jits_ISO_8,0,1,48,58,1901304976
2314,7,Jits_ISO_8,1,5,80,127,1901419104
2314,7,Jits_ISO_8,2,5,56,103,1901439488
2314,7,Jits_ISO_8,3,5,63,98,1901448488
2314,7,Jits_ISO_8,0,1,48,55,1902101628
2314,7,Jits_ISO_8,1,5,56,103,1902128480
2314,7,Jits_ISO_8,2,5,63,98,1902138748
2314,7,Jits_ISO_8,3,5,80,127,1902209388
2314,7,Jits_ISO_8,0,1,48,45,1902853452
2314,7,Jits_ISO_8,1,5,80,127,1902929380
2314,7,Jits_ISO_8,2,5,56,103,1902978448
2314,7,Jits_ISO_8,3,5,63,98,1903028576
2314,7,Jits_ISO_8,0,1,48,55,1903655624
2314,7,Jits_ISO_8,1,5,56,103,1903808944
2314,7,Jits_ISO_8,2,5,63,98,1903819216
2314,7,Jits_ISO_8,3,5,80,127,1903859180
2314,7,Jits_ISO_8,0,1,48,42,1904515584
2314,7,Jits_ISO_8,1,5,56,103,1904549188
2314,7,Jits_ISO_8,2,5,63,98,1904589128
2314,7,Jits_ISO_8,3,5,80,127,1904639340
2314,7,Jits_ISO_8,0,5,80,127,1905308896
2314,7,Jits_ISO_8,1,1,48,43,1905334560
2314,7,Jits_ISO_8,2,5,56,103,1905359168
2314,7,Jits_ISO_8,3,5,63,98,1905378680
2314,7,Jits_ISO_8,0,1,48,51,1906096752
2314,7,Jits_ISO_8,1,5,80,127,1906119024
2314,7,Jits_ISO_8,2,5,63,98,1906178468
2314,7,Jits_ISO_8,3,5,56,103,1906259444
2314,7,Jits_ISO_8,0,1,48,57,1906855088
2314,7,Jits_ISO_8,1,5,80,127,1906899252
2314,7,Jits_ISO_8,2,5,56,103,1906939216
2314,7,Jits_ISO_8,3,5,63,98,1906958836
2314,7,Jits_ISO_8,0,1,48,56,1907611940
2314,7,Jits_ISO_8,1,5,56,103,1907749088
2314,7,Jits_ISO_8,2,5,80,127,1907758388
2314,7,Jits_ISO_8,3,5,63,98,1907799372
2314,7,Jits_ISO_8,0,1,48,61,1908433444
2314,7,Jits_ISO_8,1,5,56,103,1908618700
2314,7,Jits_ISO_8,2,5,63,98,1908658788
2314,7,Jits_ISO_8,3,5,80,127,1908661928
2314,7,Jits_ISO_8,0,5,63,98,1909308892
2314,7,Jits_ISO_8,1,5,80,127,1909348908
2314,7,Jits_ISO_8,2,1,48,48,1909379080
2314,7,Jits_ISO_8,3,5,56,103,1909419332
2314,7,Jits_ISO_8,0,1,48,50,1910084432
2314,7,Jits_ISO_8,1,5,63,98,1910099300
2314,7,Jits_ISO_8,2,5,56,103,1910180136
2314,7,Jits_ISO_8,3,5,80,127,1910238828
2314,7,Jits_ISO_8,0,1,48,53,1910835516
2314,7,Jits_ISO_8,1,5,80,127,1910909276
2314,7,Jits_ISO_8,2,5,63,98,1910958420
2314,7,Jits_ISO_8,3,5,56,103,1910989216
2314,7,Jits_ISO_8,0,1,48,48,1911639800
2314,7,Jits_ISO_8,1,5,56,103,1911698720
2314,7,Jits_ISO_8,2,5,63,98,1911748908
2314,7,Jits_ISO_8,3,5,80,127,1911759180
2314,7,Jits_ISO_8,0,1,48,57,1912417712
2314,7,Jits_ISO_8,1,5,56,103,1912508912
2314,7,Jits_ISO_8,2,5,63,98,1912619660
2314,7,Jits_ISO_8,3,5,80,127,1912638700
2314,7,Jits_ISO_8,0,1,48,45,1913245428
2314,7,Jits_ISO_8,1,5,63,98,1913308500
2314,7,Jits_ISO_8,2,5,80,127,1913358840
2314,7,Jits_ISO_8,3,5,56,103,1913448672
2314,7,Jits_ISO_8,0,1,48,41,1914050992
2314,7,Jits_ISO_8,1,5,63,98,1914098996
2314,7,Jits_ISO_8,2,5,80,127,1914128744
2314,7,Jits_ISO_8,3,5,56,103,1914219012
2314,7,Jits_ISO_8,0,1,48,49,1914871696
2314,7,Jits_ISO_8,1,5,63,98,1914898852
2314,7,Jits_ISO_8,2,5,56,103,1914908972
2314,7,Jits_ISO_8,3,5,80,127,1915009648
2314,7,Jits_ISO_8,0,1,48,44,1915650724
2314,7,Jits_ISO_8,1,5,63,98,1915798864
2314,7,Jits_ISO_8,2,5,80,127,1915828616
2314,7,Jits_ISO_8,3,5,56,103,1915859412
2314,7,Jits_ISO_8,0,5,80,127,1916619204
2314,7,Jits_ISO_8,1,5,63,98,1916629476
2314,7,Jits_ISO_8,2,5,56,103,1916659100
2314,7,Jits_ISO_8,3,1,48,38,1916706036
2314,7,Jits_ISO_8,0,5,80,127,1917318616
2314,7,Jits_ISO_8,1,5,63,98,1917338928
2314,7,Jits_ISO_8,2,5,56,103,1917389280
2314,7,Jits_ISO_8,3,1,48,31,1917477756
2314,7,Jits_ISO_8,0,1,48,26,1918129324
2314,7,Jits_ISO_8,1,5,63,98,1918148976
2314,7,Jits_ISO_8,2,5,80,127,1918209540
2314,7,Jits_ISO_8,3,5,56,103,1918228788
2314,7,Jits_ISO_8,0,1,48,39,1918894856
2314,7,Jits_ISO_8,1,5,63,98,1918908752
2314,7,Jits_ISO_8,2,5,56,103,1918958832
2314,7,Jits_ISO_8,3,5,80,127,1918969328
2314,7,Jits_ISO_8,0,1,48,45,1919672688
2314,7,Jits_ISO_8,1,5,56,103,1919739276
2314,7,Jits_ISO_8,2,5,80,127,1919748428
2314,7,Jits_ISO_8,3,5,63,98,1919848880
2314,7,Jits_ISO_8,0,1,48,49,1920458172
2314,7,Jits_ISO_8,1,5,80,127,1920499276
2314,7,Jits_ISO_8,2,5,63,98,1920509396
2314,7,Jits_ISO_8,3,5,56,103,1920658776
2314,7,Jits_ISO_8,0,1,48,41,1921240116
2314,7,Jits_ISO_8,1,5,63,98,1921309168
2314,7,Jits_ISO_8,2,5,80,127,1921348948
2314,7,Jits_ISO_8,3,5,56,103,1921428816
2314,7,Jits_ISO_8,0,1,48,43,1922034068
2314,7,Jits_ISO_8,1,5,56,103,1922098536
2314,7,Jits_ISO_8,2,5,80,127,1922198996
2314,7,Jits_ISO_8,3,5,63,98,1922219232
2314,7,Jits_ISO_8,0,1,48,40,1922895964
2314,7,Jits_ISO_8,1,5,80,127,1922958560
2314,7,Jits_ISO_8,2,5,56,103,1922969128
2314,7,Jits_ISO_8,3,5,63,98,1923059120
2314,7,Jits_ISO_8,0,5,56,103,1923758428
2314,7,Jits_ISO_8,1,5,63,98,1923779036
2314,7,Jits_ISO_8,2,1,48,62,1923783276
2314,7,Jits_ISO_8,3,5,80,127,1923859000
2314,7,Jits_ISO_8,0,5,63,98,1924509300
2314,7,Jits_ISO_8,1,1,48,55,1924528012
2314,7,Jits_ISO_8,2,5,56,103,1924599304
2314,7,Jits_ISO_8,3,5,80,127,1924602296
2314,7,Jits_ISO_8,0,1,48,56,1925252248
2314,7,Jits_ISO_8,1,5,56,103,1925338756
2314,7,Jits_ISO_8,2,5,80,127,1925398912
2314,7,Jits_ISO_8,3,5,63,98,1925409256
2314,7,Jits_ISO_8,0,1,48,58,1926031648
2314,7,Jits_ISO_8,1,5,80,127,1926189400
2314,7,Jits_ISO_8,2,5,56,103,1926198696
2314,7,Jits_ISO_8,3,5,63,98,1926201984
2314,7,Jits_ISO_8,0,5,56,103,1926949264
2314,7,Jits_ISO_8,1,5,80,127,1926958416
2314,7,Jits_ISO_8,2,1,48,56,1926976280
2314,7,Jits_ISO_8,3,5,63,98,1926979016
2314,7,Jits_ISO_8,0,5,63,98,1927719308
2314,7,Jits_ISO_8,1,1,48,62,1927767912
2314,7,Jits_ISO_8,2,5,80,127,1927778648
2314,7,Jits_ISO_8,3,5,56,103,1927828924
2314,7,Jits_ISO_8,0,1,48,54,1928521908
2314,7,Jits_ISO_8,1,5,63,98,1928598884
2314,7,Jits_ISO_8,2,5,56,103,1928609228
2314,7,Jits_ISO_8,3,5,80,127,1928659488
2314,7,Jits_ISO_8,0,5,63,98,1929299332
2314,7,Jits_ISO_8,1,5,80,127,1929318968
2314,7,Jits_ISO_8,2,5,56,103,1929329088
2314,7,Jits_ISO_8,3,1,48,54,1929371312
2314,7,Jits_ISO_8,0,1,48,49,1930034852
2314,7,Jits_ISO_8,1,5,63,98,1930099020
2314,7,Jits_ISO_8,2,5,80,127,1930102312
2314,7,Jits_ISO_8,3,5,56,103,1930138944
2314,7,Jits_ISO_8,0,1,48,61,1930790648
2314,7,Jits_ISO_8,1,5,63,98,1930968380
2314,7,Jits_ISO_8,2,5,80,127,1930999056
2314,7,Jits_ISO_8,3,5,56,103,1931009324
2314,7,Jits_ISO_8,0,5,56,103,1931718964
2314,7,Jits_ISO_8,1,5,80,127,1931748664
2314,7,Jits_ISO_8,2,5,63,98,1931778340
2314,7,Jits_ISO_8,3,1,48,49,1931792916
2314,7,Jits_ISO_8,0,1,48,44,1932552756
2314,7,Jits_ISO_8,1,5,63,98,1932619172
2314,7,Jits_ISO_8,2,5,56,103,1932659168
2314,7,Jits_ISO_8,3,5,80,127,1932662160
2314,7,Jits_ISO_8,0,5,80,127,1933318568
2314,7,Jits_ISO_8,1,1,48,52,1933370760
2314,7,Jits_ISO_8,2,5,56,103,1933399556
2314,7,Jits_ISO_8,3,5,63,98,1933448860
2314,7,Jits_ISO_8,0,5,80,127,1934098728
2314,7,Jits_ISO_8,1,5,56,103,1934119412
2314,7,Jits_ISO_8,2,1,48,51,1934144476
2314,7,Jits_ISO_8,3,5,63,98,1934209392
2314,7,Jits_ISO_8,0,1,48,47,1934885972
2314,7,Jits_ISO_8,1,5,80,127,1934938752
2314,7,Jits_ISO_8,2,5,63,98,1934978392
2314,7,Jits_ISO_8,3,5,56,103,1935019512
2314,7,Jits_ISO_8,0,1,48,42,1935671676
2314,7,Jits_ISO_8,1,5,63,98,1935708492
2314,7,Jits_ISO_8,2,5,80,127,1935768872
2314,7,Jits_ISO_8,3,5,56,103,1935798620
2314,7,Jits_ISO_8,0,1,48,54,1936422232
2314,7,Jits_ISO_8,1,5,56,103,1936509472
2314,7,Jits_ISO_8,2,5,80,127,1936538984
2314,7,Jits_ISO_8,3,5,63,98,1936629068
2314,7,Jits_ISO_8,0,1,48,47,1937211604
2314,7,Jits_ISO_8,1,5,56,103,1937319652
2314,7,Jits_ISO_8,2,5,80,127,1937428996
2314,7,Jits_ISO_8,3,5,63,98,1937458748
2314,7,Jits_ISO_8,0,1,48,46,1938019560
2314,7,Jits_ISO_8,1,5,56,103,1938169220
2314,7,Jits_ISO_8,2,5,63,98,1938228564
2314,7,Jits_ISO_8,3,5,80,127,1938259584
2314,7,Jits_ISO_8,0,1,48,35,1938840028
2314,7,Jits_ISO_8,1,5,56,103,1938939336
2314,7,Jits_ISO_8,2,5,63,98,1939008800
2314,7,Jits_ISO_8,3,5,80,127,1939029480
2314,7,Jits_ISO_8,0,1,48,38,1939645648
2314,7,Jits_ISO_8,1,5,80,127,1939709392
2314,7,Jits_ISO_8,2,5,63,98,1939728808
2314,7,Jits_ISO_8,3,5,56,103,1939778920
2314,7,Jits_ISO_8,0,9999,9999,9999,1844976756
2314,7,Jits_ISO_8,1,9999,9999,9999,1845776508
2314,7,Jits_ISO_8,2,9999,9999,9999,1846576220
2314,7,Jits_ISO_8,3,9999,9999,9999,1847376972
2314,7,Jits_ISO_8,4,9999,9999,9999,1848176764
2314,7,Jits_ISO_8,5,9999,9999,9999,1848976480
2314,7,Jits_ISO_8,6,9999,9999,9999,1849776184
2314,7,Jits_ISO_8,7,9999,9999,9999,1850577012
2314,7,Jits_ISO_8,8,9999,9999,9999,1851376752
2314,7,Jits_ISO_8,9,9999,9999,9999,1852176444
2314,7,Jits_ISO_8,10,9999,9999,9999,1852976252
2314,7,Jits_ISO_8,11,9999,9999,9999,1853777012
2314,7,Jits_ISO_8,12,9999,9999,9999,1854576740
2314,7,Jits_ISO_8,13,9999,9999,9999,1855376460
2314,7,Jits_ISO_8,14,9999,9999,9999,1856176232
2314,7,Jits_ISO_8,15,9999,9999,9999,1856976980
2314,7,Jits_ISO_8,16,9999,9999,9999,1857776696
2314,7,Jits_ISO_8,17,9999,9999,9999,1858576496
2314,7,Jits_ISO_8,18,9999,9999,9999,1859376208
2314,7,Jits_ISO_8,19,9999,9999,9999,1860176968
2314,7,Jits_ISO_8,20,9999,9999,9999,1860976748
2314,7,Jits_ISO_8,21,9999,9999,9999,1861776508
2314,7,Jits_ISO_8,22,9999,9999,9999,1862576224
2314,7,Jits_ISO_8,23,9999,9999,9999,1863376976
2314,7,Jits_ISO_8,24,9999,9999,9999,1864176708
2314,7,Jits_ISO_8,25,9999,9999,9999,1864976488
2314,7,Jits_ISO_8,26,9999,9999,9999,1865776200
2314,7,Jits_ISO_8,27,9999,9999,9999,1866576956
2314,7,Jits_ISO_8,28,9999,9999,9999,1867376716
2314,7,Jits_ISO_8,29,9999,9999,9999,1868176508
2314,7,Jits_ISO_8,30,9999,9999,9999,1868976216
2314,7,Jits_ISO_8,31,9999,9999,9999,1869776972
2314,7,Jits_ISO_8,32,9999,9999,9999,1870576704
2314,7,Jits_ISO_8,33,9999,9999,9999,1871376496
2314,7,Jits_ISO_8,34,9999,9999,9999,1872176204
2314,7,Jits_ISO_8,35,9999,9999,9999,1872976972
2314,7,Jits_ISO_8,36,9999,9999,9999,1873776760
2314,7,Jits_ISO_8,37,9999,9999,9999,1874576468
2314,7,Jits_ISO_8,38,9999,9999,9999,1875376248
2314,7,Jits_ISO_8,39,9999,9999,9999,1876177020
2314,7,Jits_ISO_8,40,9999,9999,9999,1876976756
2314,7,Jits_ISO_8,41,9999,9999,9999,1877776464
2314,7,Jits_ISO_8,42,9999,9999,9999,1878576244
2314,7,Jits_ISO_8,43,9999,9999,9999,1879377004
2314,7,Jits_ISO_8,44,9999,9999,9999,1880176696
2314,7,Jits_ISO_8,45,9999,9999,9999,1880976488
2314,7,Jits_ISO_8,46,9999,9999,9999,1881776196
2314,7,Jits_ISO_8,47,9999,9999,9999,1882576960
2314,7,Jits_ISO_8,48,9999,9999,9999,1883376696
2314,7,Jits_ISO_8,49,9999,9999,9999,1884176472
2314,7,Jits_ISO_8,50,9999,9999,9999,1884976184
2314,7,Jits_ISO_8,51,9999,9999,9999,1885776952
2314,7,Jits_ISO_8,52,9999,9999,9999,1886576740
2314,7,Jits_ISO_8,53,9999,9999,9999,1887376456
2314,7,Jits_ISO_8,54,9999,9999,9999,1888176236
2314,7,Jits_ISO_8,55,9999,9999,9999,1888977004
2314,7,Jits_ISO_8,56,9999,9999,9999,1889776736
2314,7,Jits_ISO_8,57,9999,9999,9999,1890576444
2314,7,Jits_ISO_8,58,9999,9999,9999,1891376228
2314,7,Jits_ISO_8,59,9999,9999,9999,1892176996
2314,7,Jits_ISO_8,60,9999,9999,9999,1892976716
2314,7,Jits_ISO_8,61,9999,9999,9999,1893776444
2314,7,Jits_ISO_8,62,9999,9999,9999,1894576244
2314,7,Jits_ISO_8,63,9999,9999,9999,1895376992
2314,7,Jits_ISO_8,64,9999,9999,9999,1896176732
2314,7,Jits_ISO_8,65,9999,9999,9999,1896976444
2314,7,Jits_ISO_8,66,9999,9999,9999,1897776232
2314,7,Jits_ISO_8,67,9999,9999,9999,1898576992
2314,7,Jits_ISO_8,68,9999,9999,9999,1899376760
2314,7,Jits_ISO_8,69,9999,9999,9999,1900176484
2314,7,Jits_ISO_8,70,9999,9999,9999,1900976204
2314,7,Jits_ISO_8,71,9999,9999,9999,1901776972
2314,7,Jits_ISO_8,72,9999,9999,9999,1902576704
2314,7,Jits_ISO_8,73,9999,9999,9999,1903376488
2314,7,Jits_ISO_8,74,9999,9999,9999,1904176204
2314,7,Jits_ISO_8,75,9999,9999,9999,1904976964
2314,7,Jits_ISO_8,76,9999,9999,9999,1905776744
2314,7,Jits_ISO_8,77,9999,9999,9999,1906576468
2314,7,Jits_ISO_8,78,9999,9999,9999,1907376248
2314,7,Jits_ISO_8,79,9999,9999,9999,1908177000
2314,7,Jits_ISO_8,80,9999,9999,9999,1908976736
2314,7,Jits_ISO_8,81,9999,9999,9999,1909776444
2314,7,Jits_ISO_8,82,9999,9999,9999,1910576228
2314,7,Jits_ISO_8,83,9999,9999,9999,1911376984
2314,7,Jits_ISO_8,84,9999,9999,9999,1912176760
2314,7,Jits_ISO_8,85,9999,9999,9999,1912976476
2314,7,Jits_ISO_8,86,9999,9999,9999,1913776184
2314,7,Jits_ISO_8,87,9999,9999,9999,1914577012
2314,7,Jits_ISO_8,88,9999,9999,9999,1915376744
2314,7,Jits_ISO_8,89,9999,9999,9999,1916176464
2314,7,Jits_ISO_8,90,9999,9999,9999,1916976180
2314,7,Jits_ISO_8,91,9999,9999,9999,1917776952
2314,7,Jits_ISO_8,92,9999,9999,9999,1918576752
2314,7,Jits_ISO_8,93,9999,9999,9999,1919376460
2314,7,Jits_ISO_8,94,9999,9999,9999,1920176244
2314,7,Jits_ISO_8,95,9999,9999,9999,1920976996
2314,7,Jits_ISO_8,96,9999,9999,9999,1921776728
2314,7,Jits_ISO_8,97,9999,9999,9999,1922576508
2314,7,Jits_ISO_8,98,9999,9999,9999,1923376224
2314,7,Jits_ISO_8,99,9999,9999,9999,1924176980
2314,7,Jits_ISO_8,100,9999,9999,9999,1924976696
2314,7,Jits_ISO_8,101,9999,9999,9999,1925776476
2314,7,Jits_ISO_8,102,9999,9999,9999,1926576252
2314,7,Jits_ISO_8,103,9999,9999,9999,1927377004
2314,7,Jits_ISO_8,104,9999,9999,9999,1928176748
2314,7,Jits_ISO_8,105,9999,9999,9999,1928976468
2314,7,Jits_ISO_8,106,9999,9999,9999,1929776240
2314,7,Jits_ISO_8,107,9999,9999,9999,1930576976
2314,7,Jits_ISO_8,108,9999,9999,9999,1931376764
2314,7,Jits_ISO_8,109,9999,9999,9999,1932176468
2314,7,Jits_ISO_8,110,9999,9999,9999,1932976196
2314,7,Jits_ISO_8,111,9999,9999,9999,1933776956
2314,7,Jits_ISO_8,112,9999,9999,9999,1934576692
2314,7,Jits_ISO_8,113,9999,9999,9999,1935376492
2314,7,Jits_ISO_8,114,9999,9999,9999,1936176200
2314,7,Jits_ISO_8,115,9999,9999,9999,1936976956
2314,7,Jits_ISO_8,116,9999,9999,9999,1937776744
2314,7,Jits_ISO_8,117,9999,9999,9999,1938576460
2314,7,Jits_ISO_8,118,9999,9999,9999,1939376248
2314,7,Jits_ISO_8,119,9999,9999,9999,1940176996
2315,17,Jits_Phase_5,0,5,56,103,1960522164
2315,17,Jits_Phase_5,1,5,63,98,1960525260
2315,17,Jits_Phase_5,2,5,80,127,1960528532
2315,17,Jits_Phase_5,0,5,56,103,1961021644
2315,17,Jits_Phase_5,1,5,63,98,1961024820
2315,17,Jits_Phase_5,2,5,80,127,1961027944
2315,17,Jits_Phase_5,3,1,48,20,1961210436
2315,17,Jits_Phase_5,0,5,56,103,1961521632
2315,17,Jits_Phase_5,1,5,80,127,1961531680
2315,17,Jits_Phase_5,2,5,63,98,1961552360
2315,17,Jits_Phase_5,3,1,48,34,1961580736
2315,17,Jits_Phase_5,0,5,63,98,1961972180
2315,17,Jits_Phase_5,1,5,80,127,1962001704
2315,17,Jits_Phase_5,2,5,56,103,1962011972
2315,17,Jits_Phase_5,3,1,48,47,1962013312
2315,17,Jits_Phase_5,0,1,48,44,1962474064
2315,17,Jits_Phase_5,1,5,80,127,1962532304
2315,17,Jits_Phase_5,2,5,56,103,1962541600
2315,17,Jits_Phase_5,3,5,63,98,1962572248
2315,17,Jits_Phase_5,0,5,63,98,1963021576
2315,17,Jits_Phase_5,1,5,56,103,1963052524
2315,17,Jits_Phase_5,2,1,48,43,1963056468
2315,17,Jits_Phase_5,3,5,80,127,1963061664
2315,17,Jits_Phase_5,0,5,56,103,1963472456
2315,17,Jits_Phase_5,1,5,63,98,1963522308
2315,17,Jits_Phase_5,2,1,48,39,1963527452
2315,17,Jits_Phase_5,3,5,80,127,1963541864
2315,17,Jits_Phase_5,0,5,80,127,1963972072
2315,17,Jits_Phase_5,1,5,63,98,1964022076
2315,17,Jits_Phase_5,2,1,48,39,1964028040
2315,17,Jits_Phase_5,3,5,56,103,1964062152
2315,17,Jits_Phase_5,0,5,56,103,1964471616
2315,17,Jits_Phase_5,1,5,63,98,1964502412
2315,17,Jits_Phase_5,2,1,48,53,1964556348
2315,17,Jits_Phase_5,3,5,80,127,1964572032
2315,17,Jits_Phase_5,0,1,48,50,1964971300
2315,17,Jits_Phase_5,1,5,56,103,1964972868
2315,17,Jits_Phase_5,2,5,80,127,1965031864
2315,17,Jits_Phase_5,3,5,63,98,1965061612
2315,17,Jits_Phase_5,0,1,48,48,1965490832
2315,17,Jits_Phase_5,1,5,56,103,1965492552
2315,17,Jits_Phase_5,2,5,63,98,1965501924
2315,17,Jits_Phase_5,3,5,80,127,1965541888
2315,17,Jits_Phase_5,0,5,63,98,1965982040
2315,17,Jits_Phase_5,1,1,48,39,1965984052
2315,17,Jits_Phase_5,2,5,80,127,1966062076
2315,17,Jits_Phase_5,3,5,56,103,1966072344
2315,17,Jits_Phase_5,0,1,48,41,1966502220
2315,17,Jits_Phase_5,1,5,63,98,1966532060
2315,17,Jits_Phase_5,2,5,56,103,1966572092
2315,17,Jits_Phase_5,3,5,80,127,1966575232
2315,17,Jits_Phase_5,0,5,56,103,1966991876
2315,17,Jits_Phase_5,1,5,63,98,1967001996
2315,17,Jits_Phase_5,2,1,48,43,1967025640
2315,17,Jits_Phase_5,3,5,80,127,1967041776
2315,17,Jits_Phase_5,0,5,56,103,1967482196
2315,17,Jits_Phase_5,1,5,63,98,1967485556
2315,17,Jits_Phase_5,2,1,48,43,1967500924
2315,17,Jits_Phase_5,3,5,80,127,1967502496
2315,17,Jits_Phase_5,0,1,48,48,1967988568
2315,17,Jits_Phase_5,1,5,80,127,1967992348
2315,17,Jits_Phase_5,2,5,56,103,1968002544
2315,17,Jits_Phase_5,3,5,63,98,1968072296
2315,17,Jits_Phase_5,0,1,48,46,1968472444
2315,17,Jits_Phase_5,1,5,63,98,1968481536
2315,17,Jits_Phase_5,2,5,56,103,1968502220
2315,17,Jits_Phase_5,3,5,80,127,1968581992
2315,17,Jits_Phase_5,0,1,48,46,1968951744
2315,17,Jits_Phase_5,1,5,56,103,1968991624
2315,17,Jits_Phase_5,2,5,80,127,1969031560
2315,17,Jits_Phase_5,3,5,63,98,1969042204
2315,17,Jits_Phase_5,0,1,48,44,1969451788
2315,17,Jits_Phase_5,1,5,80,127,1969492196
2315,17,Jits_Phase_5,2,5,63,98,1969522020
2315,17,Jits_Phase_5,3,5,56,103,1969562164
2315,17,Jits_Phase_5,0,1,48,40,1969957076
2315,17,Jits_Phase_5,1,5,56,103,1970011496
2315,17,Jits_Phase_5,2,5,63,98,1970042220
2315,17,Jits_Phase_5,3,5,80,127,1970092476
2315,17,Jits_Phase_5,0,1,48,51,1970452860
2315,17,Jits_Phase_5,1,5,80,127,1970512220
2315,17,Jits_Phase_5,2,5,56,103,1970552144
2315,17,Jits_Phase_5,3,5,63,98,1970562416
2315,17,Jits_Phase_5,0,1,48,31,1970972536
2315,17,Jits_Phase_5,1,5,80,127,1970991368
2315,17,Jits_Phase_5,2,5,63,98,1971032428
2315,17,Jits_Phase_5,3,5,56,103,1971091752
2315,17,Jits_Phase_5,0,1,48,45,1971468608
2315,17,Jits_Phase_5,1,5,56,103,1971492316
2315,17,Jits_Phase_5,2,5,80,127,1971501316
2315,17,Jits_Phase_5,3,5,63,98,1971582212
2315,17,Jits_Phase_5,0,1,48,55,1971987236
2315,17,Jits_Phase_5,1,5,80,127,1971992064
2315,17,Jits_Phase_5,2,5,63,98,1972052232
2315,17,Jits_Phase_5,3,5,56,103,1972082128
2315,17,Jits_Phase_5,0,5,56,103,1972491744
2315,17,Jits_Phase_5,1,1,48,54,1972512852
2315,17,Jits_Phase_5,2,5,80,127,1972551980
2315,17,Jits_Phase_5,3,5,63,98,1972591840
2315,17,Jits_Phase_5,0,1,48,55,1973011408
2315,17,Jits_Phase_5,1,5,56,103,1973041476
2315,17,Jits_Phase_5,2,5,63,98,1973052040
2315,17,Jits_Phase_5,3,5,80,127,1973055328
2315,17,Jits_Phase_5,0,5,80,127,1973492000
2315,17,Jits_Phase_5,1,1,48,62,1973496164
2315,17,Jits_Phase_5,2,5,63,98,1973582048
2315,17,Jits_Phase_5,3,5,56,103,1973592376
2315,17,Jits_Phase_5,0,5,56,103,1973991972
2315,17,Jits_Phase_5,1,5,63,98,1973995144
2315,17,Jits_Phase_5,2,5,80,127,1973998192
2315,17,Jits_Phase_5,3,1,48,61,1974028584
2315,17,Jits_Phase_5,0,1,48,58,1974487492
2315,17,Jits_Phase_5,1,5,80,127,1974511876
2315,17,Jits_Phase_5,2,5,63,98,1974562148
2315,17,Jits_Phase_5,3,5,56,103,1974592032
2315,17,Jits_Phase_5,0,1,48,57,1974990156
2315,17,Jits_Phase_5,1,5,56,103,1974992196
2315,17,Jits_Phase_5,2,5,80,127,1975001444
2315,17,Jits_Phase_5,3,5,63,98,1975072092
2315,17,Jits_Phase_5,0,1,48,58,1975491920
2315,17,Jits_Phase_5,1,5,56,103,1975502280
2315,17,Jits_Phase_5,2,5,63,98,1975521792
2315,17,Jits_Phase_5,3,5,80,127,1975582176
2315,17,Jits_Phase_5,0,5,80,127,1975981360
2315,17,Jits_Phase_5,1,1,48,63,1975993096
2315,17,Jits_Phase_5,2,5,63,98,1976051960
2315,17,Jits_Phase_5,3,5,56,103,1976071592
2315,17,Jits_Phase_5,0,1,48,57,1976490240
2315,17,Jits_Phase_5,1,5,80,127,1976501796
2315,17,Jits_Phase_5,2,5,56,103,1976512064
2315,17,Jits_Phase_5,3,5,63,98,1976522036
2315,17,Jits_Phase_5,0,5,80,127,1976992252
2315,17,Jits_Phase_5,1,1,48,55,1976994768
2315,17,Jits_Phase_5,2,5,56,103,1977011508
2315,17,Jits_Phase_5,3,5,63,98,1977082184
2315,17,Jits_Phase_5,0,1,48,53,1977452580
2315,17,Jits_Phase_5,1,5,56,103,1977502048
2315,17,Jits_Phase_5,2,5,80,127,1977532020
2315,17,Jits_Phase_5,3,5,63,98,1977552240
2315,17,Jits_Phase_5,0,1,48,54,1977972108
2315,17,Jits_Phase_5,1,5,63,98,1977991612
2315,17,Jits_Phase_5,2,5,56,103,1978051924
2315,17,Jits_Phase_5,3,5,80,127,1978081908
2315,17,Jits_Phase_5,0,1,48,37,1978444060
2315,17,Jits_Phase_5,1,5,63,98,1978481992
2315,17,Jits_Phase_5,2,5,80,127,1978485280
2315,17,Jits_Phase_5,3,5,56,103,1978572180
2315,17,Jits_Phase_5,0,1,48,48,1978945964
2315,17,Jits_Phase_5,1,5,56,103,1979002184
2315,17,Jits_Phase_5,2,5,63,98,1979031932
2315,17,Jits_Phase_5,3,5,80,127,1979072004
2315,17,Jits_Phase_5,0,1,48,57,1979453132
2315,17,Jits_Phase_5,1,5,63,98,1979501932
2315,17,Jits_Phase_5,2,5,56,103,1979541724
2315,17,Jits_Phase_5,3,5,80,127,1979562612
2315,17,Jits_Phase_5,0,1,48,50,1979961952
2315,17,Jits_Phase_5,1,5,63,98,1980012024
2315,17,Jits_Phase_5,2,5,56,103,1980051960
2315,17,Jits_Phase_5,3,5,80,127,1980062892
2315,17,Jits_Phase_5,0,1,48,45,1980470848
2315,17,Jits_Phase_5,1,5,80,127,1980492148
2315,17,Jits_Phase_5,2,5,63,98,1980561752
2315,17,Jits_Phase_5,3,5,56,103,1980582344
2315,17,Jits_Phase_5,0,1,48,45,1980959800
2315,17,Jits_Phase_5,1,5,56,103,1980981784
2315,17,Jits_Phase_5,2,5,80,127,1981002096
2315,17,Jits_Phase_5,3,5,63,98,1981042032
2315,17,Jits_Phase_5,0,1,48,63,1981456176
2315,17,Jits_Phase_5,1,5,63,98,1981491720
2315,17,Jits_Phase_5,2,5,80,127,1981511956
2315,17,Jits_Phase_5,3,5,56,103,1981551892
2315,17,Jits_Phase_5,0,1,48,57,1981945288
2315,17,Jits_Phase_5,1,5,63,98,1981992588
2315,17,Jits_Phase_5,2,5,56,103,1982011704
2315,17,Jits_Phase_5,3,5,80,127,1982022048
2315,17,Jits_Phase_5,0,1,48,55,1982419160
2315,17,Jits_Phase_5,1,5,80,127,1982491892
2315,17,Jits_Phase_5,2,5,56,103,1982511752
2315,17,Jits_Phase_5,3,5,63,98,1982542084
2315,17,Jits_Phase_5,0,1,48,53,1982915692
2315,17,Jits_Phase_5,1,5,56,103,1983062492
2315,17,Jits_Phase_5,2,5,80,127,1983065632
2315,17,Jits_Phase_5,3,5,63,98,1983081756
2315,17,Jits_Phase_5,0,1,48,40,1983435816
2315,17,Jits_Phase_5,1,5,63,98,1983482320
2315,17,Jits_Phase_5,2,5,56,103,1983511920
2315,17,Jits_Phase_5,3,5,80,127,1983572588
2315,17,Jits_Phase_5,0,1,48,47,1983952500
2315,17,Jits_Phase_5,1,5,63,98,1984061768
2315,17,Jits_Phase_5,2,5,56,103,1984071964
2315,17,Jits_Phase_5,3,5,80,127,1984082456
2315,17,Jits_Phase_5,0,5,56,103,1984521616
2315,17,Jits_Phase_5,1,5,80,127,1984552636
2315,17,Jits_Phase_5,2,1,48,39,1984556652
2315,17,Jits_Phase_5,3,5,63,98,1984561628
2315,17,Jits_Phase_5,0,1,48,50,1985052512
2315,17,Jits_Phase_5,1,5,63,98,1985062428
2315,17,Jits_Phase_5,2,5,56,103,1985071576
2315,17,Jits_Phase_5,3,5,80,127,1985091812
2315,17,Jits_Phase_5,0,5,56,103,1985492560
2315,17,Jits_Phase_5,1,5,63,98,1985551704
2315,17,Jits_Phase_5,2,5,80,127,1985555064
2315,17,Jits_Phase_5,3,1,48,63,1985568520
2315,17,Jits_Phase_5,0,1,48,50,1986010008
2315,17,Jits_Phase_5,1,5,80,127,1986011736
2315,17,Jits_Phase_5,2,5,56,103,1986021712
2315,17,Jits_Phase_5,3,5,63,98,1986092508
2315,17,Jits_Phase_5,0,5,80,127,1986501956
2315,17,Jits_Phase_5,1,1,48,55,1986511596
2315,17,Jits_Phase_5,2,5,56,103,1986571652
2315,17,Jits_Phase_5,3,5,63,98,1986581848
2315,17,Jits_Phase_5,0,1,48,56,1987027528
2315,17,Jits_Phase_5,1,5,63,98,1987041668
2315,17,Jits_Phase_5,2,5,56,103,1987051864
2315,17,Jits_Phase_5,3,5,80,127,1987072472
2315,17,Jits_Phase_5,0,5,80,127,1987492400
2315,17,Jits_Phase_5,1,1,48,57,1987512536
2315,17,Jits_Phase_5,2,5,63,98,1987551688
2315,17,Jits_Phase_5,3,5,56,103,1987591552
2315,17,Jits_Phase_5,0,1,48,57,1987994900
2315,17,Jits_Phase_5,1,5,56,103,1988031788
2315,17,Jits_Phase_5,2,5,63,98,1988042284
2315,17,Jits_Phase_5,3,5,80,127,1988082020
2315,17,Jits_Phase_5,0,1,48,51,1988491464
2315,17,Jits_Phase_5,1,5,56,103,1988493248
2315,17,Jits_Phase_5,2,5,80,127,1988522328
2315,17,Jits_Phase_5,3,5,63,98,1988571432
2315,17,Jits_Phase_5,0,1,48,61,1988988324
2315,17,Jits_Phase_5,1,5,56,103,1989032188
2315,17,Jits_Phase_5,2,5,63,98,1989072348
2315,17,Jits_Phase_5,3,5,80,127,1989075708
2315,17,Jits_Phase_5,0,1,48,38,1989509264
2315,17,Jits_Phase_5,1,5,56,103,1989532280
2315,17,Jits_Phase_5,2,5,63,98,1989542400
2315,17,Jits_Phase_5,3,5,80,127,1989561664
2315,17,Jits_Phase_5,0,5,56,103,1989991804
2315,17,Jits_Phase_5,1,5,80,127,1989995092
2315,17,Jits_Phase_5,2,1,48,58,1990005860
2315,17,Jits_Phase_5,3,5,63,98,1990031808
2315,17,Jits_Phase_5,0,1,48,62,1990489288
2315,17,Jits_Phase_5,1,5,63,98,1990531336
2315,17,Jits_Phase_5,2,5,56,103,1990562356
2315,17,Jits_Phase_5,3,5,80,127,1990581544
2315,17,Jits_Phase_5,0,1,48,35,1990982740
2315,17,Jits_Phase_5,1,5,80,127,1991001568
2315,17,Jits_Phase_5,2,5,56,103,1991011688
2315,17,Jits_Phase_5,3,5,63,98,1991022032
2315,17,Jits_Phase_5,0,1,48,53,1991490204
2315,17,Jits_Phase_5,1,5,56,103,1991502288
2315,17,Jits_Phase_5,2,5,80,127,1991542224
2315,17,Jits_Phase_5,3,5,63,98,1991571748
2315,17,Jits_Phase_5,0,1,48,48,1991982980
2315,17,Jits_Phase_5,1,5,63,98,1992012152
2315,17,Jits_Phase_5,2,5,80,127,1992022348
2315,17,Jits_Phase_5,3,5,56,103,1992031720
2315,17,Jits_Phase_5,0,1,48,59,1992492252
2315,17,Jits_Phase_5,1,5,56,103,1992501564
2315,17,Jits_Phase_5,2,5,63,98,1992572216
2315,17,Jits_Phase_5,3,5,80,127,1992581512
2315,17,Jits_Phase_5,0,1,48,44,1992956252
2315,17,Jits_Phase_5,1,5,80,127,1993011500
2315,17,Jits_Phase_5,2,5,56,103,1993021772
2315,17,Jits_Phase_5,3,5,63,98,1993072252
2315,17,Jits_Phase_5,0,1,48,40,1993455324
2315,17,Jits_Phase_5,1,5,80,127,1993521436
2315,17,Jits_Phase_5,2,5,56,103,1993582032
2315,17,Jits_Phase_5,3,5,63,98,1993611484
2315,17,Jits_Phase_5,0,1,48,56,1993964368
2315,17,Jits_Phase_5,1,5,56,103,1994022456
2315,17,Jits_Phase_5,2,5,80,127,1994025376
2315,17,Jits_Phase_5,3,5,63,98,1994063200
2315,17,Jits_Phase_5,0,1,48,53,1994468596
2315,17,Jits_Phase_5,1,5,56,103,1994551568
2315,17,Jits_Phase_5,2,5,63,98,1994582348
2315,17,Jits_Phase_5,3,5,80,127,1994591496
2315,17,Jits_Phase_5,0,1,48,54,1995008060
2315,17,Jits_Phase_5,1,5,63,98,1995061732
2315,17,Jits_Phase_5,2,5,80,127,1995072004
2315,17,Jits_Phase_5,3,5,56,103,1995082052
2315,17,Jits_Phase_5,0,1,48,51,1995478140
2315,17,Jits_Phase_5,1,5,80,127,1995512112
2315,17,Jits_Phase_5,2,5,56,103,1995562312
2315,17,Jits_Phase_5,3,5,63,98,1995565452
2315,17,Jits_Phase_5,0,1,48,54,1996002540
2315,17,Jits_Phase_5,1,5,56,103,1996041596
2315,17,Jits_Phase_5,2,5,80,127,1996062128
2315,17,Jits_Phase_5,3,5,63,98,1996072324
2315,17,Jits_Phase_5,0,1,48,48,1996489360
2315,17,Jits_Phase_5,1,5,63,98,1996522012
2315,17,Jits_Phase_5,2,5,56,103,1996551464
2315,17,Jits_Phase_5,3,5,80,127,1996571996
2315,17,Jits_Phase_5,0,1,48,57,1996991972
2315,17,Jits_Phase_5,1,5,56,103,1997031880
2315,17,Jits_Phase_5,2,5,80,127,1997041924
2315,17,Jits_Phase_5,3,5,63,98,1997112108
2315,17,Jits_Phase_5,0,5,63,98,1997522244
2315,17,Jits_Phase_5,1,1,48,20,1997530692
2315,17,Jits_Phase_5,2,5,80,127,1997562176
2315,17,Jits_Phase_5,3,5,56,103,1997602112
2315,17,Jits_Phase_5,0,1,48,58,1997979296
2315,17,Jits_Phase_5,1,5,56,103,1998032228
2315,17,Jits_Phase_5,2,5,63,98,1998041400
2315,17,Jits_Phase_5,3,5,80,127,1998062080
2315,17,Jits_Phase_5,0,1,48,45,1998506840
2315,17,Jits_Phase_5,1,5,63,98,1998572004
2315,17,Jits_Phase_5,2,5,80,127,1998592316
2315,17,Jits_Phase_5,3,5,56,103,1998611784
2315,17,Jits_Phase_5,0,5,56,103,1999012328
2315,17,Jits_Phase_5,1,1,48,51,1999029076
2315,17,Jits_Phase_5,2,5,80,127,1999092216
2315,17,Jits_Phase_5,3,5,63,98,1999102260
2315,17,Jits_Phase_5,0,1,48,62,1999472948
2315,17,Jits_Phase_5,1,5,80,127,1999551864
2315,17,Jits_Phase_5,2,5,63,98,1999562212
2315,17,Jits_Phase_5,3,5,56,103,1999591672
2315,17,Jits_Phase_5,0,1,48,59,1999952624
2315,17,Jits_Phase_5,1,5,63,98,2000011912
2315,17,Jits_Phase_5,2,5,80,127,2000051536
2315,17,Jits_Phase_5,3,5,56,103,2000112020
2315,17,Jits_Phase_5,0,1,48,51,2000443684
2315,17,Jits_Phase_5,1,5,63,98,2000521776
2315,17,Jits_Phase_5,2,5,56,103,2000571884
2315,17,Jits_Phase_5,3,5,80,127,2000601436
2315,17,Jits_Phase_5,0,1,48,56,2000933024
2315,17,Jits_Phase_5,1,5,80,127,2001022276
2315,17,Jits_Phase_5,2,5,63,98,2001031632
2315,17,Jits_Phase_5,3,5,56,103,2001102132
2315,17,Jits_Phase_5,0,1,48,53,2001434340
2315,17,Jits_Phase_5,1,5,80,127,2001581424
2315,17,Jits_Phase_5,2,5,56,103,2001591912
2315,17,Jits_Phase_5,3,5,63,98,2001594904
2315,17,Jits_Phase_5,0,1,48,43,2001962488
2315,17,Jits_Phase_5,1,5,56,103,2002021700
2315,17,Jits_Phase_5,2,5,80,127,2002042232
2315,17,Jits_Phase_5,3,5,63,98,2002051604
2315,17,Jits_Phase_5,0,1,48,62,2002491156
2315,17,Jits_Phase_5,1,5,63,98,2002531788
2315,17,Jits_Phase_5,2,5,56,103,2002571576
2315,17,Jits_Phase_5,3,5,80,127,2002592240
2315,17,Jits_Phase_5,0,1,48,58,2003007684
2315,17,Jits_Phase_5,1,5,63,98,2003032584
2315,17,Jits_Phase_5,2,5,56,103,2003092000
2315,17,Jits_Phase_5,3,5,80,127,2003094916
2315,17,Jits_Phase_5,0,5,56,103,2003492404
2315,17,Jits_Phase_5,1,1,48,47,2003501748
2315,17,Jits_Phase_5,2,5,80,127,2003511660
2315,17,Jits_Phase_5,3,5,63,98,2003551672
2315,17,Jits_Phase_5,0,1,48,44,2004004788
2315,17,Jits_Phase_5,1,5,56,103,2004021752
2315,17,Jits_Phase_5,2,5,63,98,2004041988
2315,17,Jits_Phase_5,3,5,80,127,2004052480
2315,17,Jits_Phase_5,0,1,48,37,2004454340
2315,17,Jits_Phase_5,1,5,80,127,2004491608
2315,17,Jits_Phase_5,2,5,56,103,2004522624
2315,17,Jits_Phase_5,3,5,63,98,2004562248
2315,17,Jits_Phase_5,0,1,48,40,2004958432
2315,17,Jits_Phase_5,1,5,80,127,2005001768
2315,17,Jits_Phase_5,2,5,56,103,2005021932
2315,17,Jits_Phase_5,3,5,63,98,2005081552
2315,17,Jits_Phase_5,0,1,48,48,2005461192
2315,17,Jits_Phase_5,1,5,56,103,2005511632
2315,17,Jits_Phase_5,2,5,80,127,2005532016
2315,17,Jits_Phase_5,3,5,63,98,2005592388
2315,17,Jits_Phase_5,0,1,48,45,2005978684
2315,17,Jits_Phase_5,1,5,80,127,2005991756
2315,17,Jits_Phase_5,2,5,56,103,2006002024
2315,17,Jits_Phase_5,3,5,63,98,2006042036
2315,17,Jits_Phase_5,0,5,63,98,2006491508
2315,17,Jits_Phase_5,1,1,48,54,2006516720
2315,17,Jits_Phase_5,2,5,56,103,2006531660
2315,17,Jits_Phase_5,3,5,80,127,2006534652
2315,17,Jits_Phase_5,0,5,63,98,2007011772
2315,17,Jits_Phase_5,1,1,48,42,2007047552
2315,17,Jits_Phase_5,2,5,80,127,2007051776
2315,17,Jits_Phase_5,3,5,56,103,2007082572
2315,17,Jits_Phase_5,0,5,56,103,2007502284
2315,17,Jits_Phase_5,1,5,63,98,2007512428
2315,17,Jits_Phase_5,2,5,80,127,2007542028
2315,17,Jits_Phase_5,3,1,48,66,2007567240
2315,17,Jits_Phase_5,0,5,80,127,2007991556
2315,17,Jits_Phase_5,1,1,48,49,2008033808
2315,17,Jits_Phase_5,2,5,63,98,2008062452
2315,17,Jits_Phase_5,3,5,56,103,2008071600
2315,17,Jits_Phase_5,0,5,63,98,2008492520
2315,17,Jits_Phase_5,1,1,48,55,2008525156
2315,17,Jits_Phase_5,2,5,56,103,2008561920
2315,17,Jits_Phase_5,3,5,80,127,2008572560
2315,17,Jits_Phase_5,0,5,63,98,2008971596
2315,17,Jits_Phase_5,1,5,56,103,2008992204
2315,17,Jits_Phase_5,2,1,48,57,2009019136
2315,17,Jits_Phase_5,3,5,80,127,2009031908
2315,17,Jits_Phase_5,0,5,56,103,2009462128
2315,17,Jits_Phase_5,1,5,63,98,2009472324
2315,17,Jits_Phase_5,2,1,48,45,2009498960
2315,17,Jits_Phase_5,3,5,80,127,2009552404
2315,17,Jits_Phase_5,0,5,63,98,2009951480
2315,17,Jits_Phase_5,1,1,48,51,2009967252
2315,17,Jits_Phase_5,2,5,56,103,2009982492
2315,17,Jits_Phase_5,3,5,80,127,2010022352
2315,17,Jits_Phase_5,0,1,48,46,2010448612
2315,17,Jits_Phase_5,1,5,56,103,2010452540
2315,17,Jits_Phase_5,2,5,63,98,2010492404
2315,17,Jits_Phase_5,3,5,80,127,2010532416
2315,17,Jits_Phase_5,0,1,48,55,2010939612
2315,17,Jits_Phase_5,1,5,80,127,2010952140
2315,17,Jits_Phase_5,2,5,56,103,2011032012
2315,17,Jits_Phase_5,3,5,63,98,2011042340
2315,17,Jits_Phase_5,0,1,48,42,2011470380
2315,17,Jits_Phase_5,1,5,56,103,2011491676
2315,17,Jits_Phase_5,2,5,63,98,2011494596
2315,17,Jits_Phase_5,3,5,80,127,2011501872
2315,17,Jits_Phase_5,0,1,48,46,2011965312
2315,17,Jits_Phase_5,1,5,56,103,2012011872
2315,17,Jits_Phase_5,2,5,63,98,2012032332
2315,17,Jits_Phase_5,3,5,80,127,2012041632
2315,17,Jits_Phase_5,0,1,48,31,2012471176
2315,17,Jits_Phase_5,1,5,63,98,2012472816
2315,17,Jits_Phase_5,2,5,80,127,2012481892
2315,17,Jits_Phase_5,3,5,56,103,2012502352
2315,17,Jits_Phase_5,0,5,63,98,2012972428
2315,17,Jits_Phase_5,1,1,48,48,2012995248
2315,17,Jits_Phase_5,2,5,56,103,2013052360
2315,17,Jits_Phase_5,3,5,80,127,2013055500
2315,17,Jits_Phase_5,0,5,63,98,2013472096
2315,17,Jits_Phase_5,1,5,56,103,2013491660
2315,17,Jits_Phase_5,2,1,48,53,2013500556
2315,17,Jits_Phase_5,3,5,80,127,2013522148
2315,17,Jits_Phase_5,0,5,56,103,2013971920
2315,17,Jits_Phase_5,1,1,48,48,2013989940
2315,17,Jits_Phase_5,2,5,63,98,2013992372
2315,17,Jits_Phase_5,3,5,80,127,2014001372
2315,17,Jits_Phase_5,0,1,48,56,2014452920
2315,17,Jits_Phase_5,1,5,56,103,2014502168
2315,17,Jits_Phase_5,2,5,63,98,2014532136
2315,17,Jits_Phase_5,3,5,80,127,2014535352
2315,17,Jits_Phase_5,0,5,56,103,2014951720
2315,17,Jits_Phase_5,1,1,48,46,2014973716
2315,17,Jits_Phase_5,2,5,63,98,2014991876
2315,17,Jits_Phase_5,3,5,80,127,2015052112
2315,17,Jits_Phase_5,0,1,48,43,2015420492
2315,17,Jits_Phase_5,1,5,56,103,2015471932
2315,17,Jits_Phase_5,2,5,63,98,2015482352
2315,17,Jits_Phase_5,3,5,80,127,2015541676
2315,17,Jits_Phase_5,0,1,48,45,2015932600
2315,17,Jits_Phase_5,1,5,56,103,2015971680
2315,17,Jits_Phase_5,2,5,80,127,2015992140
2315,17,Jits_Phase_5,3,5,63,98,2016021964
2315,17,Jits_Phase_5,0,1,48,36,2016454220
2315,17,Jits_Phase_5,1,5,80,127,2016472328
2315,17,Jits_Phase_5,2,5,56,103,2016481772
2315,17,Jits_Phase_5,3,5,63,98,2016502380
2315,17,Jits_Phase_5,0,5,63,98,2016962092
2315,17,Jits_Phase_5,1,1,48,52,2016983516
2315,17,Jits_Phase_5,2,5,80,127,2017041904
2315,17,Jits_Phase_5,3,5,56,103,2017052320
2315,17,Jits_Phase_5,0,1,48,62,2017484508
2315,17,Jits_Phase_5,1,5,80,127,2017551840
2315,17,Jits_Phase_5,2,5,56,103,2017572148
2315,17,Jits_Phase_5,3,5,63,98,2017575212
2315,17,Jits_Phase_5,0,5,63,98,2018042148
2315,17,Jits_Phase_5,1,5,80,127,2018045508
2315,17,Jits_Phase_5,2,1,48,40,2018098228
2315,17,Jits_Phase_5,3,5,56,103,2018101628
2315,17,Jits_Phase_5,0,5,56,103,2018521364
2315,17,Jits_Phase_5,1,5,80,127,2018531560
2315,17,Jits_Phase_5,2,1,48,50,2018561056
2315,17,Jits_Phase_5,3,5,63,98,2018571564
2315,17,Jits_Phase_5,0,5,56,103,2019001916
2315,17,Jits_Phase_5,1,5,63,98,2019062108
2315,17,Jits_Phase_5,2,1,48,40,2019066720
2315,17,Jits_Phase_5,3,5,80,127,2019072372
2315,17,Jits_Phase_5,0,5,63,98,2019511724
2315,17,Jits_Phase_5,1,5,80,127,2019551612
2315,17,Jits_Phase_5,2,1,48,30,2019557796
2315,17,Jits_Phase_5,3,5,56,103,2019591540
2315,17,Jits_Phase_5,0,5,56,103,2020012444
2315,17,Jits_Phase_5,1,1,48,46,2020063244
2315,17,Jits_Phase_5,2,5,63,98,2020092256
2315,17,Jits_Phase_5,3,5,80,127,2020095544
2315,17,Jits_Phase_5,0,1,48,38,2020530896
2315,17,Jits_Phase_5,1,5,80,127,2020571404
2315,17,Jits_Phase_5,2,5,56,103,2020602344
2315,17,Jits_Phase_5,3,5,63,98,2020605264
2315,17,Jits_Phase_5,0,5,56,103,2021032396
2315,17,Jits_Phase_5,1,1,48,33,2021037088
2315,17,Jits_Phase_5,2,5,80,127,2021051800
2315,17,Jits_Phase_5,3,5,63,98,2021091684
2315,17,Jits_Phase_5,0,5,80,127,2021511484
2315,17,Jits_Phase_5,1,1,48,37,2021526356
2315,17,Jits_Phase_5,2,5,63,98,2021532232
2315,17,Jits_Phase_5,3,5,56,103,2021592420
2315,17,Jits_Phase_5,0,1,48,19,2021969844
2315,17,Jits_Phase_5,1,5,63,98,2022021580
2315,17,Jits_Phase_5,2,5,56,103,2022031700
2315,17,Jits_Phase_5,3,5,80,127,2022081884
2315,17,Jits_Phase_5,0,1,48,35,2022458736
2315,17,Jits_Phase_5,1,5,56,103,2022512036
2315,17,Jits_Phase_5,2,5,63,98,2022531372
2315,17,Jits_Phase_5,3,5,80,127,2022541644
2315,17,Jits_Phase_5,0,1,48,38,2022972500
2315,17,Jits_Phase_5,1,5,56,103,2023001592
2315,17,Jits_Phase_5,2,5,63,98,2023004580
2315,17,Jits_Phase_5,3,5,80,127,2023021900
2315,17,Jits_Phase_5,0,1,48,38,2023454472
2315,17,Jits_Phase_5,1,5,63,98,2023542308
2315,17,Jits_Phase_5,2,5,56,103,2023571744
2315,17,Jits_Phase_5,3,5,80,127,2023601564
2315,17,Jits_Phase_5,0,1,48,25,2023953480
2315,17,Jits_Phase_5,1,5,80,127,2024001828
2315,17,Jits_Phase_5,2,5,56,103,2024092092
2315,17,Jits_Phase_5,3,5,63,98,2024095008
2315,17,Jits_Phase_5,0,5,56,103,2024501796
2315,17,Jits_Phase_5,1,5,80,127,2024504716
2315,17,Jits_Phase_5,2,5,63,98,2024581588
2315,17,Jits_Phase_5,0,1,48,28,2024930316
2315,17,Jits_Phase_5,1,5,80,127,2025002404
2315,17,Jits_Phase_5,2,5,63,98,2025061732
2315,17,Jits_Phase_5,3,5,56,103,2025091628
2315,17,Jits_Phase_5,0,1,48,38,2025452308
2315,17,Jits_Phase_5,1,5,63,98,2025502080
2315,17,Jits_Phase_5,2,5,80,127,2025512276
2315,17,Jits_Phase_5,3,5,56,103,2025582012
2315,17,Jits_Phase_5,0,1,48,34,2025943440
2315,17,Jits_Phase_5,1,5,56,103,2026062124
2315,17,Jits_Phase_5,2,5,80,127,2026092024
2315,17,Jits_Phase_5,3,5,63,98,2026142148
2315,17,Jits_Phase_5,0,1,48,35,2026458460
2315,17,Jits_Phase_5,1,5,63,98,2026652072
2315,17,Jits_Phase_5,2,5,56,103,2026681744
2315,17,Jits_Phase_5,3,5,80,127,2026684884
2315,17,Jits_Phase_5,0,1,48,41,2027061900
2315,17,Jits_Phase_5,1,5,63,98,2027151680
2315,17,Jits_Phase_5,2,5,80,127,2027172200
2315,17,Jits_Phase_5,3,5,56,103,2027181572
2315,17,Jits_Phase_5,0,5,56,103,2027661628
2315,17,Jits_Phase_5,1,5,63,98,2027664692
2315,17,Jits_Phase_5,2,5,80,127,2027682084
2315,17,Jits_Phase_5,3,1,48,31,2027705204
2315,17,Jits_Phase_5,0,5,56,103,2028112168
2315,17,Jits_Phase_5,1,5,63,98,2028121612
2315,17,Jits_Phase_5,2,5,80,127,2028152184
2315,17,Jits_Phase_5,3,1,48,32,2028172984
2315,17,Jits_Phase_5,0,1,48,36,2028570616
2315,17,Jits_Phase_5,1,5,63,98,2028632596
2315,17,Jits_Phase_5,2,5,80,127,2028651784
2315,17,Jits_Phase_5,3,5,56,103,2028691704
2315,17,Jits_Phase_5,0,1,48,27,2029064220
2315,17,Jits_Phase_5,1,5,56,103,2029161776
2315,17,Jits_Phase_5,2,5,63,98,2029201636
2315,17,Jits_Phase_5,3,5,80,127,2029205076
2315,17,Jits_Phase_5,0,1,48,25,2029586664
2315,17,Jits_Phase_5,1,5,80,127,2029602200
2315,17,Jits_Phase_5,2,5,56,103,2029642064
2315,17,Jits_Phase_5,3,5,63,98,2029692396
2315,17,Jits_Phase_5,0,1,48,35,2030070092
2315,17,Jits_Phase_5,1,5,56,103,2030162544
2315,17,Jits_Phase_5,2,5,80,127,2030171468
2315,17,Jits_Phase_5,3,5,63,98,2030202412
2315,17,Jits_Phase_5,0,1,48,31,2030602432
2315,17,Jits_Phase_5,1,5,56,103,2030611968
2315,17,Jits_Phase_5,2,5,80,127,2030651832
2315,17,Jits_Phase_5,3,5,63,98,2030701884
2315,17,Jits_Phase_5,0,1,48,47,2031064120
2315,17,Jits_Phase_5,1,5,56,103,2031111496
2315,17,Jits_Phase_5,2,5,80,127,2031151360
2315,17,Jits_Phase_5,3,5,63,98,2031201620
2315,17,Jits_Phase_5,0,1,48,55,2031574432
2315,17,Jits_Phase_5,1,5,80,127,2031601956
2315,17,Jits_Phase_5,2,5,63,98,2031681884
2315,17,Jits_Phase_5,3,5,56,103,2031692376
2315,17,Jits_Phase_5,0,1,48,50,2032062248
2315,17,Jits_Phase_5,1,5,80,127,2032151904
2315,17,Jits_Phase_5,2,5,56,103,2032162308
2315,17,Jits_Phase_5,3,5,63,98,2032181572
2315,17,Jits_Phase_5,0,1,48,39,2032559388
2315,17,Jits_Phase_5,1,5,63,98,2032621912
2315,17,Jits_Phase_5,2,5,56,103,2032691500
2315,17,Jits_Phase_5,3,5,80,127,2032694564
2315,17,Jits_Phase_5,0,1,48,39,2033079956
2315,17,Jits_Phase_5,1,5,80,127,2033112364
2315,17,Jits_Phase_5,2,5,63,98,2033161520
2315,17,Jits_Phase_5,3,5,56,103,2033201516
2315,17,Jits_Phase_5,0,1,48,32,2033595804
2315,17,Jits_Phase_5,1,5,63,98,2033652272
2315,17,Jits_Phase_5,2,5,56,103,2033692120
2315,17,Jits_Phase_5,3,5,80,127,2033702168
2315,17,Jits_Phase_5,0,1,48,41,2034095856
2315,17,Jits_Phase_5,1,5,63,98,2034141468
2315,17,Jits_Phase_5,2,5,56,103,2034162148
2315,17,Jits_Phase_5,3,5,80,127,2034181484
2315,17,Jits_Phase_5,0,1,48,46,2034591496
2315,17,Jits_Phase_5,1,5,80,127,2034602308
2315,17,Jits_Phase_5,2,5,56,103,2034611532
2315,17,Jits_Phase_5,3,5,63,98,2034632064
2315,17,Jits_Phase_5,0,1,48,51,2035086364
2315,17,Jits_Phase_5,1,5,63,98,2035131868
2315,17,Jits_Phase_5,2,5,56,103,2035171908
2315,17,Jits_Phase_5,3,5,80,127,2035202392
2315,17,Jits_Phase_5,0,5,56,103,2035591472
2315,17,Jits_Phase_5,1,1,48,49,2035592512
2315,17,Jits_Phase_5,2,5,63,98,2035622112
2315,17,Jits_Phase_5,3,5,80,127,2035652080
2315,17,Jits_Phase_5,0,5,80,127,2036012280
2315,17,Jits_Phase_5,1,1,48,52,2036059460
2315,17,Jits_Phase_5,2,5,56,103,2036082248
2315,17,Jits_Phase_5,3,5,63,98,2036085464
2315,17,Jits_Phase_5,0,5,56,103,2036522296
2315,17,Jits_Phase_5,1,5,63,98,2036571600
2315,17,Jits_Phase_5,2,1,48,40,2036587228
2315,17,Jits_Phase_5,3,5,80,127,2036602164
2315,17,Jits_Phase_5,0,5,63,98,2037001612
2315,17,Jits_Phase_5,1,5,80,127,2037004976
2315,17,Jits_Phase_5,2,1,48,49,2037058064
2315,17,Jits_Phase_5,3,5,56,103,2037062288
2315,17,Jits_Phase_5,0,1,48,46,2037505508
2315,17,Jits_Phase_5,1,5,56,103,2037532136
2315,17,Jits_Phase_5,2,5,80,127,2037542180
2315,17,Jits_Phase_5,3,5,63,98,2037592308
2315,17,Jits_Phase_5,0,5,63,98,2038002224
2315,17,Jits_Phase_5,1,5,56,103,2038012272
2315,17,Jits_Phase_5,2,1,48,46,2038023928
2315,17,Jits_Phase_5,3,5,80,127,2038042160
2315,17,Jits_Phase_5,0,1,48,51,2038498856
2315,17,Jits_Phase_5,1,5,63,98,2038531480
2315,17,Jits_Phase_5,2,5,80,127,2038534696
2315,17,Jits_Phase_5,3,5,56,103,2038562200
2315,17,Jits_Phase_5,0,1,48,44,2039038232
2315,17,Jits_Phase_5,1,5,63,98,2039051600
2315,17,Jits_Phase_5,2,5,56,103,2039072056
2315,17,Jits_Phase_5,3,5,80,127,2039075196
2315,17,Jits_Phase_5,0,5,63,98,2039512396
2315,17,Jits_Phase_5,1,1,48,53,2039514408
2315,17,Jits_Phase_5,2,5,56,103,2039582140
2315,17,Jits_Phase_5,3,5,80,127,2039601476
2315,17,Jits_Phase_5,0,5,56,103,2040001932
2315,17,Jits_Phase_5,1,5,63,98,2040012128
2315,17,Jits_Phase_5,2,1,48,47,2040031832
2315,17,Jits_Phase_5,3,5,80,127,2040102200
2315,17,Jits_Phase_5,0,1,48,46,2040512300
2315,17,Jits_Phase_5,1,5,56,103,2040522140
2315,17,Jits_Phase_5,2,5,80,127,2040562176
2315,17,Jits_Phase_5,3,5,63,98,2040572296
2315,17,Jits_Phase_5,0,1,48,49,2040995040
2315,17,Jits_Phase_5,1,5,56,103,2041042292
2315,17,Jits_Phase_5,2,5,63,98,2041071968
2315,17,Jits_Phase_5,3,5,80,127,2041101700
2315,17,Jits_Phase_5,0,1,48,51,2041494044
2315,17,Jits_Phase_5,1,5,80,127,2041502012
2315,17,Jits_Phase_5,2,5,63,98,2041542100
2315,17,Jits_Phase_5,3,5,56,103,2041561312
2315,17,Jits_Phase_5,0,1,48,48,2041987416
2315,17,Jits_Phase_5,1,5,56,103,2042041836
2315,17,Jits_Phase_5,2,5,80,127,2042062144
2315,17,Jits_Phase_5,3,5,63,98,2042081880
2315,17,Jits_Phase_5,0,1,48,51,2042495260
2315,17,Jits_Phase_5,1,5,63,98,2042511844
2315,17,Jits_Phase_5,2,5,56,103,2042521964
2315,17,Jits_Phase_5,3,5,80,127,2042582376
2315,17,Jits_Phase_5,0,1,48,51,2043000860
2315,17,Jits_Phase_5,1,5,56,103,2043011368
2315,17,Jits_Phase_5,2,5,63,98,2043082168
2315,17,Jits_Phase_5,3,5,80,127,2043101444
2315,17,Jits_Phase_5,0,1,48,53,2043490944
2315,17,Jits_Phase_5,1,5,56,103,2043512096
2315,17,Jits_Phase_5,2,5,63,98,2043541772
2315,17,Jits_Phase_5,3,5,80,127,2043581780
2315,17,Jits_Phase_5,0,1,48,55,2043990472
2315,17,Jits_Phase_5,1,5,63,98,2044002032
2315,17,Jits_Phase_5,2,5,56,103,2044051932
2315,17,Jits_Phase_5,3,5,80,127,2044062128
2315,17,Jits_Phase_5,0,1,48,55,2044460256
2315,17,Jits_Phase_5,1,5,56,103,2044542536
2315,17,Jits_Phase_5,2,5,63,98,2044591452
2315,17,Jits_Phase_5,3,5,80,127,2044601872
2315,17,Jits_Phase_5,0,1,48,47,2044980764
2315,17,Jits_Phase_5,1,5,56,103,2045021692
2315,17,Jits_Phase_5,2,5,63,98,2045031740
2315,17,Jits_Phase_5,3,5,80,127,2045111736
2315,17,Jits_Phase_5,0,9999,9999,9999,1960769596
2315,17,Jits_Phase_5,1,9999,9999,9999,1961269372
2315,17,Jits_Phase_5,2,9999,9999,9999,1961770096
2315,17,Jits_Phase_5,3,9999,9999,9999,1962269780
2315,17,Jits_Phase_5,4,9999,9999,9999,1962769464
2315,17,Jits_Phase_5,5,9999,9999,9999,1963269216
2315,17,Jits_Phase_5,6,9999,9999,9999,1963769940
2315,17,Jits_Phase_5,7,9999,9999,9999,1964269632
2315,17,Jits_Phase_5,8,9999,9999,9999,1964769400
2315,17,Jits_Phase_5,9,9999,9999,9999,1965270112
2315,17,Jits_Phase_5,10,9999,9999,9999,1965780052
2315,17,Jits_Phase_5,11,9999,9999,9999,1966279800
2315,17,Jits_Phase_5,12,9999,9999,9999,1966779472
2315,17,Jits_Phase_5,13,9999,9999,9999,1967279220
2315,17,Jits_Phase_5,14,9999,9999,9999,1967779936
2315,17,Jits_Phase_5,15,9999,9999,9999,1968279624
2315,17,Jits_Phase_5,16,9999,9999,9999,1968779376
2315,17,Jits_Phase_5,17,9999,9999,9999,1969280096
2315,17,Jits_Phase_5,18,9999,9999,9999,1969790032
2315,17,Jits_Phase_5,19,9999,9999,9999,1970289784
2315,17,Jits_Phase_5,20,9999,9999,9999,1970789460
2315,17,Jits_Phase_5,21,9999,9999,9999,1971289208
2315,17,Jits_Phase_5,22,9999,9999,9999,1971789932
2315,17,Jits_Phase_5,23,9999,9999,9999,1972289604
2315,17,Jits_Phase_5,24,9999,9999,9999,1972789356
2315,17,Jits_Phase_5,25,9999,9999,9999,1973290080
2315,17,Jits_Phase_5,26,9999,9999,9999,1973789760
2315,17,Jits_Phase_5,27,9999,9999,9999,1974289496
2315,17,Jits_Phase_5,28,9999,9999,9999,1974789188
2315,17,Jits_Phase_5,29,9999,9999,9999,1975289980
2315,17,Jits_Phase_5,30,9999,9999,9999,1975779392
2315,17,Jits_Phase_5,31,9999,9999,9999,1976279144
2315,17,Jits_Phase_5,32,9999,9999,9999,1976779852
2315,17,Jits_Phase_5,33,9999,9999,9999,1977279596
2315,17,Jits_Phase_5,34,9999,9999,9999,1977779288
2315,17,Jits_Phase_5,35,9999,9999,9999,1978280012
2315,17,Jits_Phase_5,36,9999,9999,9999,1978779748
2315,17,Jits_Phase_5,37,9999,9999,9999,1979279424
2315,17,Jits_Phase_5,38,9999,9999,9999,1979779172
2315,17,Jits_Phase_5,39,9999,9999,9999,1980279896
2315,17,Jits_Phase_5,40,9999,9999,9999,1980779576
2315,17,Jits_Phase_5,41,9999,9999,9999,1981279324
2315,17,Jits_Phase_5,42,9999,9999,9999,1981780044
2315,17,Jits_Phase_5,43,9999,9999,9999,1982279788
2315,17,Jits_Phase_5,44,9999,9999,9999,1982779464
2315,17,Jits_Phase_5,45,9999,9999,9999,1983279212
2315,17,Jits_Phase_5,46,9999,9999,9999,1983779932
2315,17,Jits_Phase_5,47,9999,9999,9999,1984279612
2315,17,Jits_Phase_5,48,9999,9999,9999,1984789628
2315,17,Jits_Phase_5,49,9999,9999,9999,1985289324
2315,17,Jits_Phase_5,50,9999,9999,9999,1985790036
2315,17,Jits_Phase_5,51,9999,9999,9999,1986289724
2315,17,Jits_Phase_5,52,9999,9999,9999,1986789472
2315,17,Jits_Phase_5,53,9999,9999,9999,1987289164
2315,17,Jits_Phase_5,54,9999,9999,9999,1987789936
2315,17,Jits_Phase_5,55,9999,9999,9999,1988289620
2315,17,Jits_Phase_5,56,9999,9999,9999,1988789372
2315,17,Jits_Phase_5,57,9999,9999,9999,1989290064
2315,17,Jits_Phase_5,58,9999,9999,9999,1989789812
2315,17,Jits_Phase_5,59,9999,9999,9999,1990289476
2315,17,Jits_Phase_5,60,9999,9999,9999,1990789244
2315,17,Jits_Phase_5,61,9999,9999,9999,1991289964
2315,17,Jits_Phase_5,62,9999,9999,9999,1991789636
2315,17,Jits_Phase_5,63,9999,9999,9999,1992289388
2315,17,Jits_Phase_5,64,9999,9999,9999,1992809592
2315,17,Jits_Phase_5,65,9999,9999,9999,1993309260
2315,17,Jits_Phase_5,66,9999,9999,9999,1993809984
2315,17,Jits_Phase_5,67,9999,9999,9999,1994309724
2315,17,Jits_Phase_5,68,9999,9999,9999,1994809400
2315,17,Jits_Phase_5,69,9999,9999,9999,1995309156
2315,17,Jits_Phase_5,70,9999,9999,9999,1995809864
2315,17,Jits_Phase_5,71,9999,9999,9999,1996309616
2315,17,Jits_Phase_5,72,9999,9999,9999,1996809288
2315,17,Jits_Phase_5,73,9999,9999,9999,1997310012
2315,17,Jits_Phase_5,74,9999,9999,9999,1997809740
2315,17,Jits_Phase_5,75,9999,9999,9999,1998309484
2315,17,Jits_Phase_5,76,9999,9999,9999,1998809168
2315,17,Jits_Phase_5,77,9999,9999,9999,1999309940
2315,17,Jits_Phase_5,78,9999,9999,9999,1999809628
2315,17,Jits_Phase_5,79,9999,9999,9999,2000309304
2315,17,Jits_Phase_5,80,9999,9999,9999,2000810100
2315,17,Jits_Phase_5,81,9999,9999,9999,2001289324
2315,17,Jits_Phase_5,82,9999,9999,9999,2001790044
2315,17,Jits_Phase_5,83,9999,9999,9999,2002289720
2315,17,Jits_Phase_5,84,9999,9999,9999,2002789472
2315,17,Jits_Phase_5,85,9999,9999,9999,2003289144
2315,17,Jits_Phase_5,86,9999,9999,9999,2003789936
2315,17,Jits_Phase_5,87,9999,9999,9999,2004289624
2315,17,Jits_Phase_5,88,9999,9999,9999,2004789368
2315,17,Jits_Phase_5,89,9999,9999,9999,2005290092
2315,17,Jits_Phase_5,90,9999,9999,9999,2005789768
2315,17,Jits_Phase_5,91,9999,9999,9999,2006289512
2315,17,Jits_Phase_5,92,9999,9999,9999,2006789176
2315,17,Jits_Phase_5,93,9999,9999,9999,2007289976
2315,17,Jits_Phase_5,94,9999,9999,9999,2007789648
2315,17,Jits_Phase_5,95,9999,9999,9999,2008289340
2315,17,Jits_Phase_5,96,9999,9999,9999,2008790080
2315,17,Jits_Phase_5,97,9999,9999,9999,2009249872
2315,17,Jits_Phase_5,98,9999,9999,9999,2009749620
2315,17,Jits_Phase_5,99,9999,9999,9999,2010249284
2315,17,Jits_Phase_5,100,9999,9999,9999,2010750008
2315,17,Jits_Phase_5,101,9999,9999,9999,2011249760
2315,17,Jits_Phase_5,102,9999,9999,9999,2011749500
2315,17,Jits_Phase_5,103,9999,9999,9999,2012249184
2315,17,Jits_Phase_5,104,9999,9999,9999,2012749908
2315,17,Jits_Phase_5,105,9999,9999,9999,2013249652
2315,17,Jits_Phase_5,106,9999,9999,9999,2013749328
2315,17,Jits_Phase_5,107,9999,9999,9999,2014250044
2315,17,Jits_Phase_5,108,9999,9999,9999,2014749804
2315,17,Jits_Phase_5,109,9999,9999,9999,2015249480
2315,17,Jits_Phase_5,110,9999,9999,9999,2015749244
2315,17,Jits_Phase_5,111,9999,9999,9999,2016249964
2315,17,Jits_Phase_5,112,9999,9999,9999,2016749636
2315,17,Jits_Phase_5,113,9999,9999,9999,2017249388
2315,17,Jits_Phase_5,114,9999,9999,9999,2017799252
2315,17,Jits_Phase_5,115,9999,9999,9999,2018299968
2315,17,Jits_Phase_5,116,9999,9999,9999,2018799716
2315,17,Jits_Phase_5,117,9999,9999,9999,2019299404
2315,17,Jits_Phase_5,118,9999,9999,9999,2019799168
2315,17,Jits_Phase_5,119,9999,9999,9999,2020299860
2315,17,Jits_Phase_5,120,9999,9999,9999,2020799612
2315,17,Jits_Phase_5,121,9999,9999,9999,2021299288
2315,17,Jits_Phase_5,122,9999,9999,9999,2021800024
2315,17,Jits_Phase_5,123,9999,9999,9999,2022299712
2315,17,Jits_Phase_5,124,9999,9999,9999,2022799460
2315,17,Jits_Phase_5,125,9999,9999,9999,2023299192
2315,17,Jits_Phase_5,126,9999,9999,9999,2023799916
2315,17,Jits_Phase_5,127,9999,9999,9999,2024299584
2315,17,Jits_Phase_5,128,9999,9999,9999,2024799344
2315,17,Jits_Phase_5,129,9999,9999,9999,2025300092
2315,17,Jits_Phase_5,130,9999,9999,9999,2025799768
2315,17,Jits_Phase_5,131,9999,9999,9999,2026399832
2315,17,Jits_Phase_5,132,9999,9999,9999,2026899572
2315,17,Jits_Phase_5,133,9999,9999,9999,2027399252
2315,17,Jits_Phase_5,134,9999,9999,9999,2027899968
2315,17,Jits_Phase_5,135,9999,9999,9999,2028399732
2315,17,Jits_Phase_5,136,9999,9999,9999,2028899420
2315,17,Jits_Phase_5,137,9999,9999,9999,2029399092
2315,17,Jits_Phase_5,138,9999,9999,9999,2029899892
2315,17,Jits_Phase_5,139,9999,9999,9999,2030399572
2315,17,Jits_Phase_5,140,9999,9999,9999,2030899320
2315,17,Jits_Phase_5,141,9999,9999,9999,2031400044
2315,17,Jits_Phase_5,142,9999,9999,9999,2031899720
2315,17,Jits_Phase_5,143,9999,9999,9999,2032399476
2315,17,Jits_Phase_5,144,9999,9999,9999,2032899144
2315,17,Jits_Phase_5,145,9999,9999,9999,2033399868
2315,17,Jits_Phase_5,146,9999,9999,9999,2033899624
2315,17,Jits_Phase_5,147,9999,9999,9999,2034399300
2315,17,Jits_Phase_5,148,9999,9999,9999,2034900092
2315,17,Jits_Phase_5,149,9999,9999,9999,2035399748
2315,17,Jits_Phase_5,150,9999,9999,9999,2035799112
2315,17,Jits_Phase_5,151,9999,9999,9999,2036299840
2315,17,Jits_Phase_5,152,9999,9999,9999,2036799604
2315,17,Jits_Phase_5,153,9999,9999,9999,2037299284
2315,17,Jits_Phase_5,154,9999,9999,9999,2037800008
2315,17,Jits_Phase_5,155,9999,9999,9999,2038299752
2315,17,Jits_Phase_5,156,9999,9999,9999,2038799420
2315,17,Jits_Phase_5,157,9999,9999,9999,2039299164
2315,17,Jits_Phase_5,158,9999,9999,9999,2039799888
2315,17,Jits_Phase_5,159,9999,9999,9999,2040299640
2315,17,Jits_Phase_5,160,9999,9999,9999,2040799328
2315,17,Jits_Phase_5,161,9999,9999,9999,2041300052
2315,17,Jits_Phase_5,162,9999,9999,9999,2041799776
2315,17,Jits_Phase_5,163,9999,9999,9999,2042299444
2315,17,Jits_Phase_5,164,9999,9999,9999,2042799192
2315,17,Jits_Phase_5,165,9999,9999,9999,2043299920
2315,17,Jits_Phase_5,166,9999,9999,9999,2043799668
2315,17,Jits_Phase_5,167,9999,9999,9999,2044299348
2315,17,Jits_Phase_5,168,9999,9999,9999,2044800076
2315,17,Jits_Phase_5,169,9999,9999,9999,2045310012
2316,15,Jits_Phase_8,0,5,56,103,2062244140
2316,15,Jits_Phase_8,1,5,63,98,2062247312
2316,15,Jits_Phase_8,2,5,80,127,2062250212
2316,15,Jits_Phase_8,0,5,56,103,2063044004
2316,15,Jits_Phase_8,1,5,63,98,2063047256
2316,15,Jits_Phase_8,2,5,80,127,2063050224
2316,15,Jits_Phase_8,3,1,48,32,2063226800
2316,15,Jits_Phase_8,0,5,80,127,2063784360
2316,15,Jits_Phase_8,1,1,48,46,2063821488
2316,15,Jits_Phase_8,2,5,63,98,2063874440
2316,15,Jits_Phase_8,3,5,56,103,2063883588
2316,15,Jits_Phase_8,0,1,48,45,2064587100
2316,15,Jits_Phase_8,1,5,56,103,2064603484
2316,15,Jits_Phase_8,2,5,63,98,2064613828
2316,15,Jits_Phase_8,3,5,80,127,2064703868
2316,15,Jits_Phase_8,0,1,48,52,2065357780
2316,15,Jits_Phase_8,1,5,63,98,2065373720
2316,15,Jits_Phase_8,2,5,80,127,2065404292
2316,15,Jits_Phase_8,3,5,56,103,2065434044
2316,15,Jits_Phase_8,0,1,48,55,2066119172
2316,15,Jits_Phase_8,1,5,56,103,2066174444
2316,15,Jits_Phase_8,2,5,80,127,2066273856
2316,15,Jits_Phase_8,3,5,63,98,2066323756
2316,15,Jits_Phase_8,0,1,48,48,2066943540
2316,15,Jits_Phase_8,1,5,56,103,2066974204
2316,15,Jits_Phase_8,2,5,80,127,2067024180
2316,15,Jits_Phase_8,3,5,63,98,2067064104
2316,15,Jits_Phase_8,0,1,48,48,2067748828
2316,15,Jits_Phase_8,1,5,80,127,2067803408
2316,15,Jits_Phase_8,2,5,63,98,2067834204
2316,15,Jits_Phase_8,3,5,56,103,2067903868
2316,15,Jits_Phase_8,0,1,48,46,2068597816
2316,15,Jits_Phase_8,1,5,63,98,2068633880
2316,15,Jits_Phase_8,2,5,56,103,2068663852
2316,15,Jits_Phase_8,3,5,80,127,2068724032
2316,15,Jits_Phase_8,0,5,56,103,2069374456
2316,15,Jits_Phase_8,1,5,80,127,2069377672
2316,15,Jits_Phase_8,2,1,48,52,2069381484
2316,15,Jits_Phase_8,3,5,63,98,2069494180
2316,15,Jits_Phase_8,0,1,48,46,2070196736
2316,15,Jits_Phase_8,1,5,56,103,2070253880
2316,15,Jits_Phase_8,2,5,80,127,2070293804
2316,15,Jits_Phase_8,3,5,63,98,2070304148
2316,15,Jits_Phase_8,0,5,56,103,2071013716
2316,15,Jits_Phase_8,1,5,80,127,2071034100
2316,15,Jits_Phase_8,2,1,48,53,2071046132
2316,15,Jits_Phase_8,3,5,63,98,2071114036
2316,15,Jits_Phase_8,0,5,80,127,2071804424
2316,15,Jits_Phase_8,1,1,48,51,2071817960
2316,15,Jits_Phase_8,2,5,56,103,2071903548
2316,15,Jits_Phase_8,3,5,63,98,2071913952
2316,15,Jits_Phase_8,0,5,63,98,2072574608
2316,15,Jits_Phase_8,1,5,80,127,2072633804
2316,15,Jits_Phase_8,2,5,56,103,2072643996
2316,15,Jits_Phase_8,3,1,48,46,2072661344
2316,15,Jits_Phase_8,4,1,48,29,2072867140
2316,15,Jits_Phase_8,0,1,48,41,2073303344
2316,15,Jits_Phase_8,1,5,56,103,2073374016
2316,15,Jits_Phase_8,2,5,63,98,2073443600
2316,15,Jits_Phase_8,3,5,80,127,2073447124
2316,15,Jits_Phase_8,0,1,48,43,2074113428
2316,15,Jits_Phase_8,1,5,63,98,2074203508
2316,15,Jits_Phase_8,2,5,56,103,2074253620
2316,15,Jits_Phase_8,3,5,80,127,2074256760
2316,15,Jits_Phase_8,0,1,48,40,2074960440
2316,15,Jits_Phase_8,1,5,56,103,2074964516
2316,15,Jits_Phase_8,2,5,80,127,2074967508
2316,15,Jits_Phase_8,3,5,63,98,2075053448
2316,15,Jits_Phase_8,0,1,48,40,2075740252
2316,15,Jits_Phase_8,1,5,63,98,2075803968
2316,15,Jits_Phase_8,2,5,56,103,2075894260
2316,15,Jits_Phase_8,3,5,80,127,2075923712
2316,15,Jits_Phase_8,0,5,56,103,2076593472
2316,15,Jits_Phase_8,1,1,48,51,2076623144
2316,15,Jits_Phase_8,2,5,63,98,2076693740
2316,15,Jits_Phase_8,3,5,80,127,2076723624
2316,15,Jits_Phase_8,0,5,63,98,2077413656
2316,15,Jits_Phase_8,1,5,56,103,2077424148
2316,15,Jits_Phase_8,2,1,48,44,2077439256
2316,15,Jits_Phase_8,3,5,80,127,2077514048
2316,15,Jits_Phase_8,0,1,48,49,2078232968
2316,15,Jits_Phase_8,1,5,63,98,2078234760
2316,15,Jits_Phase_8,2,5,56,103,2078313956
2316,15,Jits_Phase_8,3,5,80,127,2078316948
2316,15,Jits_Phase_8,0,5,80,127,2078993764
2316,15,Jits_Phase_8,1,1,48,50,2079001220
2316,15,Jits_Phase_8,2,5,63,98,2079014364
2316,15,Jits_Phase_8,3,5,56,103,2079073632
2316,15,Jits_Phase_8,0,1,48,49,2079806764
2316,15,Jits_Phase_8,1,5,56,103,2079833312
2316,15,Jits_Phase_8,2,5,63,98,2079854296
2316,15,Jits_Phase_8,3,5,80,127,2079857432
2316,15,Jits_Phase_8,0,5,63,98,2080573952
2316,15,Jits_Phase_8,1,1,48,44,2080617532
2316,15,Jits_Phase_8,2,5,80,127,2080653668
2316,15,Jits_Phase_8,3,5,56,103,2080664012
2316,15,Jits_Phase_8,0,1,48,41,2081342740
2316,15,Jits_Phase_8,1,5,63,98,2081394380
2316,15,Jits_Phase_8,2,5,56,103,2081413496
2316,15,Jits_Phase_8,3,5,80,127,2081463752
2316,15,Jits_Phase_8,0,5,80,127,2082193916
2316,15,Jits_Phase_8,1,1,48,32,2082198536
2316,15,Jits_Phase_8,2,5,63,98,2082233628
2316,15,Jits_Phase_8,3,5,56,103,2082254332
2316,15,Jits_Phase_8,0,1,48,40,2082980532
2316,15,Jits_Phase_8,1,5,56,103,2083033488
2316,15,Jits_Phase_8,2,5,63,98,2083043684
2316,15,Jits_Phase_8,3,5,80,127,2083064068
2316,15,Jits_Phase_8,0,5,56,103,2083763552
2316,15,Jits_Phase_8,1,1,48,46,2083798608
2316,15,Jits_Phase_8,2,5,63,98,2083853704
2316,15,Jits_Phase_8,3,5,80,127,2083914224
2316,15,Jits_Phase_8,0,1,48,51,2084553476
2316,15,Jits_Phase_8,1,5,80,127,2084594056
2316,15,Jits_Phase_8,2,5,56,103,2084604180
2316,15,Jits_Phase_8,3,5,63,98,2084673992
2316,15,Jits_Phase_8,0,1,48,51,2085413868
2316,15,Jits_Phase_8,1,5,63,98,2085423336
2316,15,Jits_Phase_8,2,5,80,127,2085513532
2316,15,Jits_Phase_8,3,5,56,103,2085524024
2316,15,Jits_Phase_8,0,5,63,98,2086153504
2316,15,Jits_Phase_8,1,1,48,54,2086201584
2316,15,Jits_Phase_8,2,5,80,127,2086203924
2316,15,Jits_Phase_8,3,5,56,103,2086264164
2316,15,Jits_Phase_8,0,1,48,53,2086900852
2316,15,Jits_Phase_8,1,5,56,103,2086974008
2316,15,Jits_Phase_8,2,5,80,127,2087024120
2316,15,Jits_Phase_8,3,5,63,98,2087043460
2316,15,Jits_Phase_8,0,5,56,103,2087743804
2316,15,Jits_Phase_8,1,1,48,36,2087746324
2316,15,Jits_Phase_8,2,5,80,127,2087804412
2316,15,Jits_Phase_8,3,5,63,98,2087874000
2316,15,Jits_Phase_8,0,1,48,46,2088516044
2316,15,Jits_Phase_8,1,5,56,103,2088543716
2316,15,Jits_Phase_8,2,5,80,127,2088574364
2316,15,Jits_Phase_8,3,5,63,98,2088604040
2316,15,Jits_Phase_8,0,1,48,48,2089281096
2316,15,Jits_Phase_8,1,5,56,103,2089384360
2316,15,Jits_Phase_8,2,5,80,127,2089403772
2316,15,Jits_Phase_8,3,5,63,98,2089464036
2316,15,Jits_Phase_8,0,1,48,42,2090140940
2316,15,Jits_Phase_8,1,5,80,127,2090263932
2316,15,Jits_Phase_8,2,5,56,103,2090274056
2316,15,Jits_Phase_8,3,5,63,98,2090284324
2316,15,Jits_Phase_8,0,1,48,40,2090994684
2316,15,Jits_Phase_8,1,5,56,103,2091023784
2316,15,Jits_Phase_8,2,5,80,127,2091063796
2316,15,Jits_Phase_8,3,5,63,98,2091095176
2316,15,Jits_Phase_8,0,5,56,103,2091793736
2316,15,Jits_Phase_8,1,5,63,98,2091823708
2316,15,Jits_Phase_8,2,1,48,50,2091843692
2316,15,Jits_Phase_8,3,5,80,127,2091864316
2316,15,Jits_Phase_8,0,5,80,127,2092544660
2316,15,Jits_Phase_8,1,1,48,43,2092566508
2316,15,Jits_Phase_8,2,5,63,98,2092593512
2316,15,Jits_Phase_8,3,5,56,103,2092614044
2316,15,Jits_Phase_8,0,1,48,47,2093348736
2316,15,Jits_Phase_8,1,5,56,103,2093373940
2316,15,Jits_Phase_8,2,5,80,127,2093443608
2316,15,Jits_Phase_8,3,5,63,98,2093503848
2316,15,Jits_Phase_8,0,5,80,127,2094173632
2316,15,Jits_Phase_8,1,5,63,98,2094263620
2316,15,Jits_Phase_8,2,1,48,46,2094280820
2316,15,Jits_Phase_8,3,5,56,103,2094283996
2316,15,Jits_Phase_8,0,5,63,98,2094993716
2316,15,Jits_Phase_8,1,5,56,103,2095014472
2316,15,Jits_Phase_8,2,5,80,127,2095054136
2316,15,Jits_Phase_8,3,1,48,41,2095074640
2316,15,Jits_Phase_8,0,5,80,127,2095753544
2316,15,Jits_Phase_8,1,5,63,98,2095774000
2316,15,Jits_Phase_8,2,1,48,47,2095808280
2316,15,Jits_Phase_8,3,5,56,103,2095853884
2316,15,Jits_Phase_8,0,1,48,50,2096523160
2316,15,Jits_Phase_8,1,5,63,98,2096544016
2316,15,Jits_Phase_8,2,5,56,103,2096653556
2316,15,Jits_Phase_8,3,5,80,127,2096656704
2316,15,Jits_Phase_8,0,1,48,51,2097353556
2316,15,Jits_Phase_8,1,5,63,98,2097364392
2316,15,Jits_Phase_8,2,5,56,103,2097373540
2316,15,Jits_Phase_8,3,5,80,127,2097376608
2316,15,Jits_Phase_8,0,1,48,50,2098096276
2316,15,Jits_Phase_8,1,5,56,103,2098143528
2316,15,Jits_Phase_8,2,5,80,127,2098264516
2316,15,Jits_Phase_8,3,5,63,98,2098304452
2316,15,Jits_Phase_8,0,5,56,103,2098963820
2316,15,Jits_Phase_8,1,1,48,47,2098991136
2316,15,Jits_Phase_8,2,5,80,127,2099043688
2316,15,Jits_Phase_8,3,5,63,98,2099064292
2316,15,Jits_Phase_8,0,5,56,103,2099763596
2316,15,Jits_Phase_8,1,1,48,45,2099781536
2316,15,Jits_Phase_8,2,5,63,98,2099874308
2316,15,Jits_Phase_8,3,5,80,127,2099877524
2316,15,Jits_Phase_8,0,5,56,103,2100604412
2316,15,Jits_Phase_8,1,1,48,48,2100616380
2316,15,Jits_Phase_8,2,5,80,127,2100633860
2316,15,Jits_Phase_8,3,5,63,98,2100653496
2316,15,Jits_Phase_8,0,1,48,53,2101373964
2316,15,Jits_Phase_8,1,5,63,98,2101393840
2316,15,Jits_Phase_8,2,5,56,103,2101403960
2316,15,Jits_Phase_8,3,5,80,127,2101414304
2316,15,Jits_Phase_8,0,1,48,47,2102131836
2316,15,Jits_Phase_8,1,5,80,127,2102184444
2316,15,Jits_Phase_8,2,5,56,103,2102233388
2316,15,Jits_Phase_8,3,5,63,98,2102274448
2316,15,Jits_Phase_8,0,1,48,52,2102951052
2316,15,Jits_Phase_8,1,5,80,127,2103003408
2316,15,Jits_Phase_8,2,5,63,98,2103024164
2316,15,Jits_Phase_8,3,5,56,103,2103074128
2316,15,Jits_Phase_8,0,1,48,51,2103768148
2316,15,Jits_Phase_8,1,5,80,127,2103813504
2316,15,Jits_Phase_8,2,5,56,103,2103844376
2316,15,Jits_Phase_8,3,5,63,98,2103914336
2316,15,Jits_Phase_8,0,1,48,56,2104570072
2316,15,Jits_Phase_8,1,5,56,103,2104664712
2316,15,Jits_Phase_8,2,5,80,127,2104673564
2316,15,Jits_Phase_8,3,5,63,98,2104713652
2316,15,Jits_Phase_8,0,5,56,103,2105374220
2316,15,Jits_Phase_8,1,1,48,47,2105376084
2316,15,Jits_Phase_8,2,5,63,98,2105393476
2316,15,Jits_Phase_8,3,5,80,127,2105464200
2316,15,Jits_Phase_8,0,1,48,63,2106143684
2316,15,Jits_Phase_8,1,5,63,98,2106194356
2316,15,Jits_Phase_8,2,5,80,127,2106253536
2316,15,Jits_Phase_8,3,5,56,103,2106274220
2316,15,Jits_Phase_8,0,1,48,50,2106971992
2316,15,Jits_Phase_8,1,5,80,127,2106984000
2316,15,Jits_Phase_8,2,5,56,103,2107013528
2316,15,Jits_Phase_8,3,5,63,98,2107044248
2316,15,Jits_Phase_8,0,5,56,103,2107783464
2316,15,Jits_Phase_8,1,1,48,50,2107808160
2316,15,Jits_Phase_8,2,5,63,98,2107844076
2316,15,Jits_Phase_8,3,5,80,127,2107904248
2316,15,Jits_Phase_8,0,5,80,127,2108603912
2316,15,Jits_Phase_8,1,5,56,103,2108624172
2316,15,Jits_Phase_8,2,1,48,43,2108641836
2316,15,Jits_Phase_8,3,5,63,98,2108693996
2316,15,Jits_Phase_8,0,5,80,127,2109403488
2316,15,Jits_Phase_8,1,5,63,98,2109424096
2316,15,Jits_Phase_8,2,5,56,103,2109453844
2316,15,Jits_Phase_8,3,1,48,19,2109456212
2316,15,Jits_Phase_8,0,5,80,127,2110194040
2316,15,Jits_Phase_8,1,1,48,41,2110209220
2316,15,Jits_Phase_8,2,5,63,98,2110213520
2316,15,Jits_Phase_8,3,5,56,103,2110273912
2316,15,Jits_Phase_8,0,5,80,127,2110993812
2316,15,Jits_Phase_8,1,1,48,47,2111013716
2316,15,Jits_Phase_8,2,5,56,103,2111093980
2316,15,Jits_Phase_8,3,5,63,98,2111124012
2316,15,Jits_Phase_8,0,5,63,98,2111784296
2316,15,Jits_Phase_8,1,5,80,127,2111833452
2316,15,Jits_Phase_8,2,5,56,103,2111853912
2316,15,Jits_Phase_8,3,1,48,36,2111869988
2316,15,Jits_Phase_8,0,5,80,127,2112623908
2316,15,Jits_Phase_8,1,1,48,37,2112626808
2316,15,Jits_Phase_8,2,5,56,103,2112653948
2316,15,Jits_Phase_8,3,5,63,98,2112657016
2316,15,Jits_Phase_8,0,1,48,47,2113453240
2316,15,Jits_Phase_8,1,5,63,98,2113473940
2316,15,Jits_Phase_8,2,5,56,103,2113513904
2316,15,Jits_Phase_8,3,5,80,127,2113534288
2316,15,Jits_Phase_8,0,5,80,127,2114233852
2316,15,Jits_Phase_8,1,5,63,98,2114313748
2316,15,Jits_Phase_8,2,1,48,53,2114338664
2316,15,Jits_Phase_8,3,5,56,103,2114353604
2316,15,Jits_Phase_8,0,5,63,98,2115054028
2316,15,Jits_Phase_8,1,5,80,127,2115133900
2316,15,Jits_Phase_8,2,5,56,103,2115154284
2316,15,Jits_Phase_8,3,1,48,38,2115162056
2316,15,Jits_Phase_8,0,1,48,32,2115839592
2316,15,Jits_Phase_8,1,5,56,103,2115893720
2316,15,Jits_Phase_8,2,5,63,98,2115904068
2316,15,Jits_Phase_8,3,5,80,127,2115943768
2316,15,Jits_Phase_8,0,5,56,103,2116613624
2316,15,Jits_Phase_8,1,5,80,127,2116616616
2316,15,Jits_Phase_8,2,1,48,40,2116640332
2316,15,Jits_Phase_8,3,5,63,98,2116753776
2316,15,Jits_Phase_8,0,5,56,103,2117404092
2316,15,Jits_Phase_8,1,1,48,36,2117415528
2316,15,Jits_Phase_8,2,5,63,98,2117494144
2316,15,Jits_Phase_8,3,5,80,127,2117563660
2316,15,Jits_Phase_8,0,1,48,48,2118211712
2316,15,Jits_Phase_8,1,5,63,98,2118283576
2316,15,Jits_Phase_8,2,5,80,127,2118286868
2316,15,Jits_Phase_8,3,5,56,103,2118344024
2316,15,Jits_Phase_8,0,1,48,38,2119048460
2316,15,Jits_Phase_8,1,5,80,127,2119124632
2316,15,Jits_Phase_8,2,5,56,103,2119143748
2316,15,Jits_Phase_8,3,5,63,98,2119153928
2316,15,Jits_Phase_8,0,5,56,103,2119834100
2316,15,Jits_Phase_8,1,5,63,98,2119844220
2316,15,Jits_Phase_8,2,5,80,127,2119913924
2316,15,Jits_Phase_8,3,1,48,37,2119953532
2316,15,Jits_Phase_8,0,5,80,127,2120633644
2316,15,Jits_Phase_8,1,5,56,103,2120683872
2316,15,Jits_Phase_8,2,5,63,98,2120734148
2316,15,Jits_Phase_8,0,1,48,41,2121327032
2316,15,Jits_Phase_8,1,5,56,103,2121514372
2316,15,Jits_Phase_8,2,5,63,98,2121523596
2316,15,Jits_Phase_8,3,5,80,127,2121563460
2316,15,Jits_Phase_8,0,1,48,39,2122111652
2316,15,Jits_Phase_8,1,5,56,103,2122253752
2316,15,Jits_Phase_8,2,5,63,98,2122293620
2316,15,Jits_Phase_8,3,5,80,127,2122343748
2316,15,Jits_Phase_8,0,1,48,40,2122917420
2316,15,Jits_Phase_8,1,5,80,127,2123014704
2316,15,Jits_Phase_8,2,5,56,103,2123063860
2316,15,Jits_Phase_8,3,5,63,98,2123084244
2316,15,Jits_Phase_8,0,1,48,38,2123726416
2316,15,Jits_Phase_8,1,5,80,127,2123823396
2316,15,Jits_Phase_8,2,5,63,98,2123883996
2316,15,Jits_Phase_8,3,5,56,103,2123963788
2316,15,Jits_Phase_8,0,1,48,35,2124558160
2316,15,Jits_Phase_8,1,5,80,127,2124603672
2316,15,Jits_Phase_8,2,5,56,103,2124643612
2316,15,Jits_Phase_8,3,5,63,98,2124664352
2316,15,Jits_Phase_8,0,1,48,47,2125363244
2316,15,Jits_Phase_8,1,5,56,103,2125453620
2316,15,Jits_Phase_8,2,5,80,127,2125464172
2316,15,Jits_Phase_8,3,5,63,98,2125503812
2316,15,Jits_Phase_8,0,1,48,52,2126232680
2316,15,Jits_Phase_8,1,5,56,103,2126324348
2316,15,Jits_Phase_8,2,5,63,98,2126364272
2316,15,Jits_Phase_8,3,5,80,127,2126367564
2316,15,Jits_Phase_8,0,5,63,98,2126993656
2316,15,Jits_Phase_8,1,5,80,127,2127033668
2316,15,Jits_Phase_8,2,1,48,47,2127077864
2316,15,Jits_Phase_8,3,5,56,103,2127104264
2316,15,Jits_Phase_8,0,1,48,45,2127727968
2316,15,Jits_Phase_8,1,5,63,98,2127764036
2316,15,Jits_Phase_8,2,5,56,103,2127843692
2316,15,Jits_Phase_8,3,5,80,127,2127904380
2316,15,Jits_Phase_8,0,1,48,54,2128480072
2316,15,Jits_Phase_8,1,5,80,127,2128574056
2316,15,Jits_Phase_8,2,5,63,98,2128623972
2316,15,Jits_Phase_8,3,5,56,103,2128653796
2316,15,Jits_Phase_8,0,1,48,48,2129220412
2316,15,Jits_Phase_8,1,5,56,103,2129364380
2316,15,Jits_Phase_8,2,5,63,98,2129413464
2316,15,Jits_Phase_8,3,5,80,127,2129423584
2316,15,Jits_Phase_8,0,1,48,53,2130035832
2316,15,Jits_Phase_8,1,5,56,103,2130174324
2316,15,Jits_Phase_8,2,5,63,98,2130283864
2316,15,Jits_Phase_8,3,5,80,127,2130304320
2316,15,Jits_Phase_8,0,1,48,45,2130934816
2316,15,Jits_Phase_8,1,5,63,98,2130974096
2316,15,Jits_Phase_8,2,5,80,127,2131024224
2316,15,Jits_Phase_8,3,5,56,103,2131114412
2316,15,Jits_Phase_8,0,1,48,58,2131746104
2316,15,Jits_Phase_8,1,5,63,98,2131763516
2316,15,Jits_Phase_8,2,5,80,127,2131794312
2316,15,Jits_Phase_8,3,5,56,103,2131884500
2316,15,Jits_Phase_8,0,1,48,55,2132529292
2316,15,Jits_Phase_8,1,5,63,98,2132564460
2316,15,Jits_Phase_8,2,5,56,103,2132573684
2316,15,Jits_Phase_8,3,5,80,127,2132674060
2316,15,Jits_Phase_8,0,1,48,64,2133337884
2316,15,Jits_Phase_8,1,5,63,98,2133464468
2316,15,Jits_Phase_8,2,5,80,127,2133494072
2316,15,Jits_Phase_8,3,5,56,103,2133523820
2316,15,Jits_Phase_8,0,1,48,62,2134173396
2316,15,Jits_Phase_8,1,5,80,127,2134283936
2316,15,Jits_Phase_8,2,5,63,98,2134293836
2316,15,Jits_Phase_8,3,5,56,103,2134323660
2316,15,Jits_Phase_8,0,5,80,127,2134983980
2316,15,Jits_Phase_8,1,5,63,98,2135003616
2316,15,Jits_Phase_8,2,5,56,103,2135053816
2316,15,Jits_Phase_8,0,1,48,57,2135715024
2316,15,Jits_Phase_8,1,5,63,98,2135813436
2316,15,Jits_Phase_8,2,5,80,127,2135873972
2316,15,Jits_Phase_8,3,5,56,103,2135894432
2316,15,Jits_Phase_8,0,1,48,45,2136461744
2316,15,Jits_Phase_8,1,5,63,98,2136574308
2316,15,Jits_Phase_8,2,5,56,103,2136623612
2316,15,Jits_Phase_8,3,5,80,127,2136633732
2316,15,Jits_Phase_8,0,1,48,36,2137295680
2316,15,Jits_Phase_8,1,5,56,103,2137403880
2316,15,Jits_Phase_8,2,5,80,127,2137414004
2316,15,Jits_Phase_8,3,5,63,98,2137514620
2316,15,Jits_Phase_8,0,1,48,59,2138077756
2316,15,Jits_Phase_8,1,5,80,127,2138163648
2316,15,Jits_Phase_8,2,5,63,98,2138173844
2316,15,Jits_Phase_8,3,5,56,103,2138324364
2316,15,Jits_Phase_8,0,1,48,50,2138876612
2316,15,Jits_Phase_8,1,5,63,98,2138973728
2316,15,Jits_Phase_8,2,5,80,127,2139013516
2316,15,Jits_Phase_8,3,5,56,103,2139094752
2316,15,Jits_Phase_8,0,1,48,52,2139685144
2316,15,Jits_Phase_8,1,5,56,103,2139724276
2316,15,Jits_Phase_8,2,5,80,127,2139823612
2316,15,Jits_Phase_8,3,5,63,98,2139843848
2316,15,Jits_Phase_8,0,1,48,48,2140472024
2316,15,Jits_Phase_8,1,5,80,127,2140544492
2316,15,Jits_Phase_8,2,5,56,103,2140553716
2316,15,Jits_Phase_8,3,5,63,98,2140643708
2316,15,Jits_Phase_8,0,1,48,50,2141267876
2316,15,Jits_Phase_8,1,5,56,103,2141344028
2316,15,Jits_Phase_8,2,5,63,98,2141364772
2316,15,Jits_Phase_8,3,5,80,127,2141443840
2316,15,Jits_Phase_8,0,1,48,51,2142026060
2316,15,Jits_Phase_8,1,5,63,98,2142093668
2316,15,Jits_Phase_8,2,1,48,23,2142101256
2316,15,Jits_Phase_8,3,5,56,103,2142183648
2316,15,Jits_Phase_8,4,5,80,127,2142187020
2316,15,Jits_Phase_8,0,1,48,57,2142782616
2316,15,Jits_Phase_8,1,5,56,103,2142924244
2316,15,Jits_Phase_8,2,5,80,127,2142983516
2316,15,Jits_Phase_8,3,5,63,98,2142993636
2316,15,Jits_Phase_8,0,1,48,52,2143714480
2316,15,Jits_Phase_8,1,5,80,127,2143773992
2316,15,Jits_Phase_8,2,5,56,103,2143784560
2316,15,Jits_Phase_8,3,5,63,98,2143787552
2316,15,Jits_Phase_8,0,5,56,103,2144533744
2316,15,Jits_Phase_8,1,5,80,127,2144544236
2316,15,Jits_Phase_8,2,5,63,98,2144563500
2316,15,Jits_Phase_8,3,1,48,48,2144643260
2316,15,Jits_Phase_8,0,5,63,98,2145303912
2316,15,Jits_Phase_8,1,5,80,127,2145364452
2316,15,Jits_Phase_8,2,5,56,103,2145413384
2316,15,Jits_Phase_8,3,1,48,54,2145470280
2316,15,Jits_Phase_8,0,5,63,98,2146183464
2316,15,Jits_Phase_8,1,5,56,103,2146193736
2316,15,Jits_Phase_8,2,1,48,43,2146199468
2316,15,Jits_Phase_8,3,5,80,127,2146244228
2316,15,Jits_Phase_8,0,5,63,98,2146883956
2316,15,Jits_Phase_8,1,5,80,127,2146904416
2316,15,Jits_Phase_8,2,5,56,103,2146913712
2316,15,Jits_Phase_8,3,1,48,54,2147024728
2316,15,Jits_Phase_8,0,1,48,48,2147636620
2316,15,Jits_Phase_8,1,5,63,98,2147683620
2316,15,Jits_Phase_8,2,5,80,127,2147687136
2316,15,Jits_Phase_8,3,5,56,103,2147723560
2316,15,Jits_Phase_8,0,1,48,52,2148466248
2316,15,Jits_Phase_8,1,5,63,98,2148554332
2316,15,Jits_Phase_8,2,5,80,127,2148583772
2316,15,Jits_Phase_8,3,5,56,103,2148594116
2316,15,Jits_Phase_8,0,1,48,49,2149299720
2316,15,Jits_Phase_8,1,5,56,103,2149303572
2316,15,Jits_Phase_8,2,5,80,127,2149334248
2316,15,Jits_Phase_8,3,5,63,98,2149364220
2316,15,Jits_Phase_8,0,1,48,50,2150078872
2316,15,Jits_Phase_8,1,5,63,98,2150203656
2316,15,Jits_Phase_8,2,5,56,103,2150243588
2316,15,Jits_Phase_8,3,5,80,127,2150246736
2316,15,Jits_Phase_8,0,5,80,127,2150904164
2316,15,Jits_Phase_8,1,5,56,103,2150984256
2316,15,Jits_Phase_8,2,1,48,51,2151026632
2316,15,Jits_Phase_8,3,5,63,98,2151034152
2316,15,Jits_Phase_8,0,5,80,127,2151683328
2316,15,Jits_Phase_8,1,5,56,103,2151704160
2316,15,Jits_Phase_8,2,1,48,52,2151785796
2316,15,Jits_Phase_8,3,5,63,98,2151794136
2316,15,Jits_Phase_8,0,5,80,127,2152524000
2316,15,Jits_Phase_8,1,1,48,57,2152530040
2316,15,Jits_Phase_8,2,5,63,98,2152564232
2316,15,Jits_Phase_8,3,5,56,103,2152604244
2316,15,Jits_Phase_8,0,1,48,49,2153307556
2316,15,Jits_Phase_8,1,5,63,98,2153334104
2316,15,Jits_Phase_8,2,5,80,127,2153393524
2316,15,Jits_Phase_8,3,5,56,103,2153424180
2316,15,Jits_Phase_8,0,1,48,41,2154094492
2316,15,Jits_Phase_8,1,5,56,103,2154174012
2316,15,Jits_Phase_8,2,5,80,127,2154203472
2316,15,Jits_Phase_8,3,5,63,98,2154293604
2316,15,Jits_Phase_8,0,1,48,48,2154926688
2316,15,Jits_Phase_8,1,5,56,103,2154983904
2316,15,Jits_Phase_8,2,5,80,127,2155094252
2316,15,Jits_Phase_8,3,5,63,98,2155124076
2316,15,Jits_Phase_8,0,5,56,103,2155833648
2316,15,Jits_Phase_8,1,5,63,98,2155894188
2316,15,Jits_Phase_8,2,1,48,38,2155899400
2316,15,Jits_Phase_8,3,5,80,127,2155923928
2316,15,Jits_Phase_8,0,5,56,103,2156603904
2316,15,Jits_Phase_8,1,5,63,98,2156674408
2316,15,Jits_Phase_8,2,1,48,53,2156683076
2316,15,Jits_Phase_8,3,5,80,127,2156694036
2316,15,Jits_Phase_8,0,5,80,127,2157374008
2316,15,Jits_Phase_8,1,5,63,98,2157394172
2316,15,Jits_Phase_8,2,5,56,103,2157443620
2316,15,Jits_Phase_8,3,1,48,53,2157468764
2316,15,Jits_Phase_8,0,1,48,52,2158191264
2316,15,Jits_Phase_8,1,5,63,98,2158193924
2316,15,Jits_Phase_8,2,5,80,127,2158204344
2316,15,Jits_Phase_8,3,5,56,103,2158253424
2316,15,Jits_Phase_8,0,1,48,51,2158972156
2316,15,Jits_Phase_8,1,5,63,98,2158993752
2316,15,Jits_Phase_8,2,5,80,127,2159064640
2316,15,Jits_Phase_8,3,5,56,103,2159083756
2316,15,Jits_Phase_8,0,1,48,54,2159772512
2316,15,Jits_Phase_8,1,5,63,98,2159824180
2316,15,Jits_Phase_8,2,5,80,127,2159827620
2316,15,Jits_Phase_8,3,5,56,103,2159893768
2316,15,Jits_Phase_8,0,5,80,127,2160573716
2316,15,Jits_Phase_8,1,5,56,103,2160594348
2316,15,Jits_Phase_8,2,5,63,98,2160603496
2316,15,Jits_Phase_8,3,1,48,50,2160635012
2316,15,Jits_Phase_8,0,1,48,51,2161351556
2316,15,Jits_Phase_8,1,5,56,103,2161394076
2316,15,Jits_Phase_8,2,5,63,98,2161484120
2316,15,Jits_Phase_8,3,5,80,127,2161487560
2316,15,Jits_Phase_8,0,5,80,127,2162164164
2316,15,Jits_Phase_8,1,5,56,103,2162174288
2316,15,Jits_Phase_8,2,5,63,98,2162193848
2316,15,Jits_Phase_8,3,1,48,27,2162223040
2316,15,Jits_Phase_8,0,1,48,53,2162902316
2316,15,Jits_Phase_8,1,5,63,98,2162963924
2316,15,Jits_Phase_8,2,5,80,127,2163024152
2316,15,Jits_Phase_8,3,5,56,103,2163033744
2316,15,Jits_Phase_8,0,1,48,19,2163680100
2316,15,Jits_Phase_8,1,5,63,98,2163834164
2316,15,Jits_Phase_8,2,5,80,127,2163863912
2316,15,Jits_Phase_8,3,5,56,103,2163904000
2316,15,Jits_Phase_8,0,1,48,48,2164503176
2316,15,Jits_Phase_8,1,5,56,103,2164623660
2316,15,Jits_Phase_8,2,5,80,127,2164633928
2316,15,Jits_Phase_8,3,5,63,98,2164673940
2316,15,Jits_Phase_8,0,1,48,53,2165298284
2316,15,Jits_Phase_8,1,5,80,127,2165383424
2316,15,Jits_Phase_8,2,5,56,103,2165464504
2316,15,Jits_Phase_8,3,5,63,98,2165473576
2316,15,Jits_Phase_8,0,1,48,50,2166127936
2316,15,Jits_Phase_8,1,5,80,127,2166233468
2316,15,Jits_Phase_8,2,5,56,103,2166314532
2316,15,Jits_Phase_8,3,5,63,98,2166323532
2316,15,Jits_Phase_8,0,1,48,24,2167025132
2316,15,Jits_Phase_8,1,5,80,127,2167074376
2316,15,Jits_Phase_8,2,5,56,103,2167124492
2316,15,Jits_Phase_8,3,5,63,98,2167173348
2316,15,Jits_Phase_8,0,1,48,34,2167708340
2316,15,Jits_Phase_8,1,5,56,103,2168014240
2316,15,Jits_Phase_8,2,5,63,98,2168017308
2316,15,Jits_Phase_8,3,5,80,127,2168064364
2316,15,Jits_Phase_8,0,1,48,54,2168698048
2316,15,Jits_Phase_8,1,5,56,103,2168834372
2316,15,Jits_Phase_8,2,5,63,98,2168864568
2316,15,Jits_Phase_8,3,5,80,127,2168874244
2316,15,Jits_Phase_8,0,5,63,98,2169544176
2316,15,Jits_Phase_8,1,5,56,103,2169613712
2316,15,Jits_Phase_8,2,1,48,53,2169615120
2316,15,Jits_Phase_8,3,5,80,127,2169663756
2316,15,Jits_Phase_8,0,1,48,52,2170359184
2316,15,Jits_Phase_8,1,5,63,98,2170373376
2316,15,Jits_Phase_8,2,5,56,103,2170383640
2316,15,Jits_Phase_8,3,5,80,127,2170386788
2316,15,Jits_Phase_8,0,5,80,127,2171124052
2316,15,Jits_Phase_8,1,1,48,53,2171165160
2316,15,Jits_Phase_8,2,5,56,103,2171183616
2316,15,Jits_Phase_8,3,5,63,98,2171273584
2316,15,Jits_Phase_8,0,5,80,127,2171923824
2316,15,Jits_Phase_8,1,1,48,50,2172022332
2316,15,Jits_Phase_8,2,5,56,103,2172024068
2316,15,Jits_Phase_8,3,5,63,98,2172064232
2316,15,Jits_Phase_8,0,5,56,103,2172773724
2316,15,Jits_Phase_8,1,1,48,45,2172787856
2316,15,Jits_Phase_8,2,5,63,98,2172794176
2316,15,Jits_Phase_8,3,5,80,127,2172834188
2316,15,Jits_Phase_8,0,5,63,98,2173543752
2316,15,Jits_Phase_8,1,1,48,44,2173553848
2316,15,Jits_Phase_8,2,5,56,103,2173564356
2316,15,Jits_Phase_8,3,5,80,127,2173663640
2316,15,Jits_Phase_8,0,1,48,45,2174290052
2316,15,Jits_Phase_8,1,5,63,98,2174334212
2316,15,Jits_Phase_8,2,5,80,127,2174444136
2316,15,Jits_Phase_8,3,5,56,103,2174473588
2316,15,Jits_Phase_8,0,1,48,48,2175109964
2316,15,Jits_Phase_8,1,5,56,103,2175153456
2316,15,Jits_Phase_8,2,5,63,98,2175184200
2316,15,Jits_Phase_8,3,5,80,127,2175234316
2316,15,Jits_Phase_8,0,5,63,98,2175923548
2316,15,Jits_Phase_8,1,1,48,50,2175939024
2316,15,Jits_Phase_8,2,5,56,103,2175954364
2316,15,Jits_Phase_8,3,5,80,127,2176003368
2316,15,Jits_Phase_8,0,1,48,51,2176712428
2316,15,Jits_Phase_8,1,5,56,103,2176753960
2316,15,Jits_Phase_8,2,5,63,98,2176773372
2316,15,Jits_Phase_8,3,5,80,127,2176854272
2316,15,Jits_Phase_8,0,1,48,47,2177511664
2316,15,Jits_Phase_8,1,5,63,98,2177524044
2316,15,Jits_Phase_8,2,5,56,103,2177583612
2316,15,Jits_Phase_8,3,5,80,127,2177614172
2316,15,Jits_Phase_8,0,5,56,103,2178363812
2316,15,Jits_Phase_8,1,1,48,49,2178370444
2316,15,Jits_Phase_8,2,5,80,127,2178424272
2316,15,Jits_Phase_8,3,5,63,98,2178464060
2316,15,Jits_Phase_8,0,5,63,98,2179144108
2316,15,Jits_Phase_8,1,1,48,44,2179155692
2316,15,Jits_Phase_8,2,5,56,103,2179203372
2316,15,Jits_Phase_8,3,5,80,127,2179274036
2316,15,Jits_Phase_8,0,1,48,49,2179913796
2316,15,Jits_Phase_8,1,5,56,103,2180023788
2316,15,Jits_Phase_8,2,5,63,98,2180033908
2316,15,Jits_Phase_8,3,5,80,127,2180037200
2316,15,Jits_Phase_8,0,1,48,47,2180748076
2316,15,Jits_Phase_8,1,5,63,98,2180763992
2316,15,Jits_Phase_8,2,5,56,103,2180824480
2316,15,Jits_Phase_8,3,5,80,127,2180827624
2316,15,Jits_Phase_8,0,5,63,98,2181544416
2316,15,Jits_Phase_8,1,5,80,127,2181574332
2316,15,Jits_Phase_8,2,1,48,45,2181578804
2316,15,Jits_Phase_8,3,5,56,103,2181593588
2316,15,Jits_Phase_8,0,5,56,103,2182274332
2316,15,Jits_Phase_8,1,5,63,98,2182324012
2316,15,Jits_Phase_8,2,1,48,40,2182337172
2316,15,Jits_Phase_8,3,5,80,127,2182403748
2316,15,Jits_Phase_8,0,5,80,127,2182973948
2316,15,Jits_Phase_8,1,5,63,98,2183013888
2316,15,Jits_Phase_8,2,5,56,103,2183034196
2316,15,Jits_Phase_8,3,1,48,36,2183094404
2316,15,Jits_Phase_8,0,1,48,43,2183722440
2316,15,Jits_Phase_8,1,5,56,103,2183844196
2316,15,Jits_Phase_8,2,5,80,127,2183853420
2316,15,Jits_Phase_8,3,5,63,98,2183873952
2316,15,Jits_Phase_8,0,1,48,46,2184516800
2316,15,Jits_Phase_8,1,5,56,103,2184623500
2316,15,Jits_Phase_8,2,5,63,98,2184673504
2316,15,Jits_Phase_8,3,5,80,127,2184704524
2316,15,Jits_Phase_8,0,1,48,32,2185343760
2316,15,Jits_Phase_8,1,5,56,103,2185374052
2316,15,Jits_Phase_8,2,5,63,98,2185384472
2316,15,Jits_Phase_8,3,5,80,127,2185433576
2316,15,Jits_Phase_8,0,1,48,47,2186162092
2316,15,Jits_Phase_8,1,5,56,103,2186163836
2316,15,Jits_Phase_8,2,5,80,127,2186166756
2316,15,Jits_Phase_8,3,5,63,98,2186324472
2316,15,Jits_Phase_8,0,1,48,44,2186971064
2316,15,Jits_Phase_8,1,5,63,98,2186983692
2316,15,Jits_Phase_8,2,5,56,103,2187053668
2316,15,Jits_Phase_8,3,5,80,127,2187094488
2316,15,Jits_Phase_8,0,1,48,37,2187782304
2316,15,Jits_Phase_8,1,5,63,98,2187823384
2316,15,Jits_Phase_8,2,5,56,103,2187913648
2316,15,Jits_Phase_8,3,5,80,127,2187916644
2316,15,Jits_Phase_8,0,1,48,35,2188568484
2316,15,Jits_Phase_8,1,5,56,103,2188603804
2316,15,Jits_Phase_8,2,5,63,98,2188693924
2316,15,Jits_Phase_8,3,5,80,127,2188704196
2316,15,Jits_Phase_8,0,5,56,103,2189373684
2316,15,Jits_Phase_8,1,1,48,28,2189414260
2316,15,Jits_Phase_8,2,5,63,98,2189423876
2316,15,Jits_Phase_8,3,5,80,127,2189453628
2316,15,Jits_Phase_8,0,1,48,43,2190147016
2316,15,Jits_Phase_8,1,5,63,98,2190253568
2316,15,Jits_Phase_8,2,5,80,127,2190263768
2316,15,Jits_Phase_8,3,5,56,103,2190324032
2316,15,Jits_Phase_8,0,5,63,98,2190974460
2316,15,Jits_Phase_8,1,1,48,51,2190990464
2316,15,Jits_Phase_8,2,5,80,127,2191033648
2316,15,Jits_Phase_8,3,5,56,103,2191073612
2316,15,Jits_Phase_8,0,1,48,45,2191773740
2316,15,Jits_Phase_8,1,5,56,103,2191874540
2316,15,Jits_Phase_8,2,5,80,127,2191894176
2316,15,Jits_Phase_8,3,5,63,98,2191914560
2316,15,Jits_Phase_8,0,5,63,98,2192594384
2316,15,Jits_Phase_8,1,5,56,103,2192613796
2316,15,Jits_Phase_8,2,1,48,49,2192640284
2316,15,Jits_Phase_8,3,5,80,127,2192653728
2316,15,Jits_Phase_8,0,5,63,98,2193404404
2316,15,Jits_Phase_8,1,1,48,54,2193405296
2316,15,Jits_Phase_8,2,5,80,127,2193434072
2316,15,Jits_Phase_8,3,5,56,103,2193453484
2316,15,Jits_Phase_8,0,5,80,127,2194174268
2316,15,Jits_Phase_8,1,5,56,103,2194223500
2316,15,Jits_Phase_8,2,1,48,35,2194248340
2316,15,Jits_Phase_8,3,5,63,98,2194284028
2316,15,Jits_Phase_8,0,5,63,98,2194963996
2316,15,Jits_Phase_8,1,1,48,46,2195012596
2316,15,Jits_Phase_8,2,5,56,103,2195083644
2316,15,Jits_Phase_8,3,5,80,127,2195114276
2316,15,Jits_Phase_8,0,1,48,51,2195774440
2316,15,Jits_Phase_8,1,5,80,127,2195803464
2316,15,Jits_Phase_8,2,5,63,98,2195824072
2316,15,Jits_Phase_8,3,5,56,103,2195893588
2316,15,Jits_Phase_8,0,1,48,39,2196581460
2316,15,Jits_Phase_8,1,5,63,98,2196623824
2316,15,Jits_Phase_8,2,5,56,103,2196634392
2316,15,Jits_Phase_8,3,5,80,127,2196714048
2316,15,Jits_Phase_8,0,1,48,39,2197398908
2316,15,Jits_Phase_8,1,5,56,103,2197483996
2316,15,Jits_Phase_8,2,5,80,127,2197513508
2316,15,Jits_Phase_8,3,5,63,98,2197523928
2316,15,Jits_Phase_8,0,9999,9999,9999,2062641276
2316,15,Jits_Phase_8,1,9999,9999,9999,2063442020
2316,15,Jits_Phase_8,2,9999,9999,9999,2064241720
2316,15,Jits_Phase_8,3,9999,9999,9999,2065041488
2316,15,Jits_Phase_8,4,9999,9999,9999,2065841240
2316,15,Jits_Phase_8,5,9999,9999,9999,2066641996
2316,15,Jits_Phase_8,6,9999,9999,9999,2067441752
2316,15,Jits_Phase_8,7,9999,9999,9999,2068241512
2316,15,Jits_Phase_8,8,9999,9999,9999,2069041272
2316,15,Jits_Phase_8,9,9999,9999,9999,2069841988
2316,15,Jits_Phase_8,10,9999,9999,9999,2070641764
2316,15,Jits_Phase_8,11,9999,9999,9999,2071441528
2316,15,Jits_Phase_8,12,9999,9999,9999,2072241236
2316,15,Jits_Phase_8,13,9999,9999,9999,2073041980
2316,15,Jits_Phase_8,14,9999,9999,9999,2073841780
2316,15,Jits_Phase_8,15,9999,9999,9999,2074641528
2316,15,Jits_Phase_8,16,9999,9999,9999,2075441268
2316,15,Jits_Phase_8,17,9999,9999,9999,2076242004
2316,15,Jits_Phase_8,18,9999,9999,9999,2077041764
2316,15,Jits_Phase_8,19,9999,9999,9999,2077841468
2316,15,Jits_Phase_8,20,9999,9999,9999,2078641224
2316,15,Jits_Phase_8,21,9999,9999,9999,2079441976
2316,15,Jits_Phase_8,22,9999,9999,9999,2080241740
2316,15,Jits_Phase_8,23,9999,9999,9999,2081041496
2316,15,Jits_Phase_8,24,9999,9999,9999,2081841252
2316,15,Jits_Phase_8,25,9999,9999,9999,2082641976
2316,15,Jits_Phase_8,26,9999,9999,9999,2083441752
2316,15,Jits_Phase_8,27,9999,9999,9999,2084241508
2316,15,Jits_Phase_8,28,9999,9999,9999,2085041280
2316,15,Jits_Phase_8,29,9999,9999,9999,2085842040
2316,15,Jits_Phase_8,30,9999,9999,9999,2086621272
2316,15,Jits_Phase_8,31,9999,9999,9999,2087422080
2316,15,Jits_Phase_8,32,9999,9999,9999,2088221760
2316,15,Jits_Phase_8,33,9999,9999,9999,2089021524
2316,15,Jits_Phase_8,34,9999,9999,9999,2089821284
2316,15,Jits_Phase_8,35,9999,9999,9999,2090622020
2316,15,Jits_Phase_8,36,9999,9999,9999,2091421788
2316,15,Jits_Phase_8,37,9999,9999,9999,2092221548
2316,15,Jits_Phase_8,38,9999,9999,9999,2093021268
2316,15,Jits_Phase_8,39,9999,9999,9999,2093822016
2316,15,Jits_Phase_8,40,9999,9999,9999,2094621776
2316,15,Jits_Phase_8,41,9999,9999,9999,2095421548
2316,15,Jits_Phase_8,42,9999,9999,9999,2096221308
2316,15,Jits_Phase_8,43,9999,9999,9999,2097022044
2316,15,Jits_Phase_8,44,9999,9999,9999,2097821784
2316,15,Jits_Phase_8,45,9999,9999,9999,2098621544
2316,15,Jits_Phase_8,46,9999,9999,9999,2099421252
2316,15,Jits_Phase_8,47,9999,9999,9999,2100222064
2316,15,Jits_Phase_8,48,9999,9999,9999,2101041240
2316,15,Jits_Phase_8,49,9999,9999,9999,2101841976
2316,15,Jits_Phase_8,50,9999,9999,9999,2102641732
2316,15,Jits_Phase_8,51,9999,9999,9999,2103441488
2316,15,Jits_Phase_8,52,9999,9999,9999,2104241248
2316,15,Jits_Phase_8,53,9999,9999,9999,2105042008
2316,15,Jits_Phase_8,54,9999,9999,9999,2105841760
2316,15,Jits_Phase_8,55,9999,9999,9999,2106641528
2316,15,Jits_Phase_8,56,9999,9999,9999,2107441212
2316,15,Jits_Phase_8,57,9999,9999,9999,2108242020
2316,15,Jits_Phase_8,58,9999,9999,9999,2109041788
2316,15,Jits_Phase_8,59,9999,9999,9999,2109841484
2316,15,Jits_Phase_8,60,9999,9999,9999,2110641256
2316,15,Jits_Phase_8,61,9999,9999,9999,2111442028
2316,15,Jits_Phase_8,62,9999,9999,9999,2112241724
2316,15,Jits_Phase_8,63,9999,9999,9999,2113041472
2316,15,Jits_Phase_8,64,9999,9999,9999,2113881184
2316,15,Jits_Phase_8,65,9999,9999,9999,2114681916
2316,15,Jits_Phase_8,66,9999,9999,9999,2115481696
2316,15,Jits_Phase_8,67,9999,9999,9999,2116281460
2316,15,Jits_Phase_8,68,9999,9999,9999,2117081156
2316,15,Jits_Phase_8,69,9999,9999,9999,2117881976
2316,15,Jits_Phase_8,70,9999,9999,9999,2118681668
2316,15,Jits_Phase_8,71,9999,9999,9999,2119481436
2316,15,Jits_Phase_8,72,9999,9999,9999,2120281188
2316,15,Jits_Phase_8,73,9999,9999,9999,2121081956
2316,15,Jits_Phase_8,74,9999,9999,9999,2121881676
2316,15,Jits_Phase_8,75,9999,9999,9999,2122681440
2316,15,Jits_Phase_8,76,9999,9999,9999,2123481148
2316,15,Jits_Phase_8,77,9999,9999,9999,2124281956
2316,15,Jits_Phase_8,78,9999,9999,9999,2125081704
2316,15,Jits_Phase_8,79,9999,9999,9999,2125881460
2316,15,Jits_Phase_8,80,9999,9999,9999,2126681144
2316,15,Jits_Phase_8,81,9999,9999,9999,2127442016
2316,15,Jits_Phase_8,82,9999,9999,9999,2128241776
2316,15,Jits_Phase_8,83,9999,9999,9999,2129041532
2316,15,Jits_Phase_8,84,9999,9999,9999,2129841208
2316,15,Jits_Phase_8,85,9999,9999,9999,2130642040
2316,15,Jits_Phase_8,86,9999,9999,9999,2131441720
2316,15,Jits_Phase_8,87,9999,9999,9999,2132241472
2316,15,Jits_Phase_8,88,9999,9999,9999,2133041224
2316,15,Jits_Phase_8,89,9999,9999,9999,2133842036
2316,15,Jits_Phase_8,90,9999,9999,9999,2134641728
2316,15,Jits_Phase_8,91,9999,9999,9999,2135441476
2316,15,Jits_Phase_8,92,9999,9999,9999,2136241268
2316,15,Jits_Phase_8,93,9999,9999,9999,2137042020
2316,15,Jits_Phase_8,94,9999,9999,9999,2137841780
2316,15,Jits_Phase_8,95,9999,9999,9999,2138641532
2316,15,Jits_Phase_8,96,9999,9999,9999,2139441216
2316,15,Jits_Phase_8,97,9999,9999,9999,2140161116
2316,15,Jits_Phase_8,98,9999,9999,9999,2140961852
2316,15,Jits_Phase_8,99,9999,9999,9999,2141761612
2316,15,Jits_Phase_8,100,9999,9999,9999,2142561336
2316,15,Jits_Phase_8,101,9999,9999,9999,2143361144
2316,15,Jits_Phase_8,102,9999,9999,9999,2144161868
2316,15,Jits_Phase_8,103,9999,9999,9999,2144961624
2316,15,Jits_Phase_8,104,9999,9999,9999,2145761344
2316,15,Jits_Phase_8,105,9999,9999,9999,2146561108
2316,15,Jits_Phase_8,106,9999,9999,9999,2147361904
2316,15,Jits_Phase_8,107,9999,9999,9999,2148161640
2316,15,Jits_Phase_8,108,9999,9999,9999,2148961400
2316,15,Jits_Phase_8,109,9999,9999,9999,2149761080
2316,15,Jits_Phase_8,110,9999,9999,9999,2150561884
2316,15,Jits_Phase_8,111,9999,9999,9999,2151361648
2316,15,Jits_Phase_8,112,9999,9999,9999,2152161356
2316,15,Jits_Phase_8,113,9999,9999,9999,2152961128
2316,15,Jits_Phase_8,114,9999,9999,9999,2153841732
2316,15,Jits_Phase_8,115,9999,9999,9999,2154641488
2316,15,Jits_Phase_8,116,9999,9999,9999,2155441248
2316,15,Jits_Phase_8,117,9999,9999,9999,2156242008
2316,15,Jits_Phase_8,118,9999,9999,9999,2157041780
2316,15,Jits_Phase_8,119,9999,9999,9999,2157841472
2316,15,Jits_Phase_8,120,9999,9999,9999,2158641240
2316,15,Jits_Phase_8,121,9999,9999,9999,2159441976
2316,15,Jits_Phase_8,122,9999,9999,9999,2160241724
2316,15,Jits_Phase_8,123,9999,9999,9999,2161041476
2316,15,Jits_Phase_8,124,9999,9999,9999,2161841216
2316,15,Jits_Phase_8,125,9999,9999,9999,2162642040
2316,15,Jits_Phase_8,126,9999,9999,9999,2163441732
2316,15,Jits_Phase_8,127,9999,9999,9999,2164241496
2316,15,Jits_Phase_8,128,9999,9999,9999,2165041252
2316,15,Jits_Phase_8,129,9999,9999,9999,2165841984
2316,15,Jits_Phase_8,130,9999,9999,9999,2166641748
2316,15,Jits_Phase_8,131,9999,9999,9999,2167601260
2316,15,Jits_Phase_8,132,9999,9999,9999,2168401984
2316,15,Jits_Phase_8,133,9999,9999,9999,2169201748
2316,15,Jits_Phase_8,134,9999,9999,9999,2170001508
2316,15,Jits_Phase_8,135,9999,9999,9999,2170801256
2316,15,Jits_Phase_8,136,9999,9999,9999,2171602008
2316,15,Jits_Phase_8,137,9999,9999,9999,2172401784
2316,15,Jits_Phase_8,138,9999,9999,9999,2173201484
2316,15,Jits_Phase_8,139,9999,9999,9999,2174001260
2316,15,Jits_Phase_8,140,9999,9999,9999,2174801992
2316,15,Jits_Phase_8,141,9999,9999,9999,2175601748
2316,15,Jits_Phase_8,142,9999,9999,9999,2176401500
2316,15,Jits_Phase_8,143,9999,9999,9999,2177201252
2316,15,Jits_Phase_8,144,9999,9999,9999,2178002004
2316,15,Jits_Phase_8,145,9999,9999,9999,2178801764
2316,15,Jits_Phase_8,146,9999,9999,9999,2179601464
2316,15,Jits_Phase_8,147,9999,9999,9999,2180401216
2316,15,Jits_Phase_8,148,9999,9999,9999,2181202012
2316,15,Jits_Phase_8,149,9999,9999,9999,2182001760
2316,15,Jits_Phase_8,150,9999,9999,9999,2182641720
2316,15,Jits_Phase_8,151,9999,9999,9999,2183441488
2316,15,Jits_Phase_8,152,9999,9999,9999,2184241264
2316,15,Jits_Phase_8,153,9999,9999,9999,2185041996
2316,15,Jits_Phase_8,154,9999,9999,9999,2185841748
2316,15,Jits_Phase_8,155,9999,9999,9999,2186641492
2316,15,Jits_Phase_8,156,9999,9999,9999,2187441252
2316,15,Jits_Phase_8,157,9999,9999,9999,2188242004
2316,15,Jits_Phase_8,158,9999,9999,9999,2189041764
2316,15,Jits_Phase_8,159,9999,9999,9999,2189841496
2316,15,Jits_Phase_8,160,9999,9999,9999,2190641272
2316,15,Jits_Phase_8,161,9999,9999,9999,2191442004
2316,15,Jits_Phase_8,162,9999,9999,9999,2192241768
2316,15,Jits_Phase_8,163,9999,9999,9999,2193041524
2316,15,Jits_Phase_8,164,9999,9999,9999,2193841208
2316,15,Jits_Phase_8,165,9999,9999,9999,2194642032
2316,15,Jits_Phase_8,166,9999,9999,9999,2195441736
2316,15,Jits_Phase_8,167,9999,9999,9999,2196241496
2316,15,Jits_Phase_8,168,9999,9999,9999,2197041256
2316,15,Jits_Phase_8,169,9999,9999,9999,2197841996
2317,19,Jits_Linear_5,0,5,56,103,2211707548
2317,19,Jits_Linear_5,1,5,63,98,2211710644
2317,19,Jits_Linear_5,2,5,80,127,2211713760
2317,19,Jits_Linear_5,0,5,56,103,2212186440
2317,19,Jits_Linear_5,1,5,63,98,2212189608
2317,19,Jits_Linear_5,2,5,80,127,2212192660
2317,19,Jits_Linear_5,3,1,48,34,2212365652
2317,19,Jits_Linear_5,0,5,56,103,2212666660
2317,19,Jits_Linear_5,1,5,80,127,2212677076
2317,19,Jits_Linear_5,2,5,63,98,2212696344
2317,19,Jits_Linear_5,3,1,48,35,2212706204
2317,19,Jits_Linear_5,0,5,63,98,2213096756
2317,19,Jits_Linear_5,1,5,80,127,2213126508
2317,19,Jits_Linear_5,2,5,56,103,2213136776
2317,19,Jits_Linear_5,3,1,48,40,2213139824
2317,19,Jits_Linear_5,0,1,48,42,2213580368
2317,19,Jits_Linear_5,1,5,80,127,2213636520
2317,19,Jits_Linear_5,2,5,56,103,2213646644
2317,19,Jits_Linear_5,3,5,63,98,2213677424
2317,19,Jits_Linear_5,0,1,48,42,2214090928
2317,19,Jits_Linear_5,1,5,63,98,2214116660
2317,19,Jits_Linear_5,2,5,56,103,2214146484
2317,19,Jits_Linear_5,3,5,80,127,2214156756
2317,19,Jits_Linear_5,0,1,48,45,2214557440
2317,19,Jits_Linear_5,1,5,56,103,2214559008
2317,19,Jits_Linear_5,2,5,63,98,2214607144
2317,19,Jits_Linear_5,3,5,80,127,2214626704
2317,19,Jits_Linear_5,0,1,48,39,2215042920
2317,19,Jits_Linear_5,1,5,80,127,2215046556
2317,19,Jits_Linear_5,2,5,63,98,2215096612
2317,19,Jits_Linear_5,3,5,56,103,2215136636
2317,19,Jits_Linear_5,0,5,56,103,2215537108
2317,19,Jits_Linear_5,1,1,48,46,2215550564
2317,19,Jits_Linear_5,2,5,63,98,2215566632
2317,19,Jits_Linear_5,3,5,80,127,2215637236
2317,19,Jits_Linear_5,0,1,48,43,2216024428
2317,19,Jits_Linear_5,1,5,56,103,2216026396
2317,19,Jits_Linear_5,2,5,80,127,2216087236
2317,19,Jits_Linear_5,3,5,63,98,2216116616
2317,19,Jits_Linear_5,0,5,56,103,2216527136
2317,19,Jits_Linear_5,1,5,63,98,2216536288
2317,19,Jits_Linear_5,2,1,48,49,2216572140
2317,19,Jits_Linear_5,3,5,80,127,2216577416
2317,19,Jits_Linear_5,0,5,63,98,2217016872
2317,19,Jits_Linear_5,1,1,48,46,2217057308
2317,19,Jits_Linear_5,2,5,80,127,2217096588
2317,19,Jits_Linear_5,3,5,56,103,2217106712
2317,19,Jits_Linear_5,0,1,48,47,2217512100
2317,19,Jits_Linear_5,1,5,63,98,2217566456
2317,19,Jits_Linear_5,2,5,56,103,2217606388
2317,19,Jits_Linear_5,3,5,80,127,2217609608
2317,19,Jits_Linear_5,0,1,48,40,2218008416
2317,19,Jits_Linear_5,1,5,56,103,2218027400
2317,19,Jits_Linear_5,2,5,63,98,2218036624
2317,19,Jits_Linear_5,3,5,80,127,2218076636
2317,19,Jits_Linear_5,0,1,48,36,2218507056
2317,19,Jits_Linear_5,1,5,56,103,2218517044
2317,19,Jits_Linear_5,2,5,63,98,2218519960
2317,19,Jits_Linear_5,3,5,80,127,2218537352
2317,19,Jits_Linear_5,0,1,48,45,2218993976
2317,19,Jits_Linear_5,1,5,80,127,2219036948
2317,19,Jits_Linear_5,2,5,56,103,2219047144
2317,19,Jits_Linear_5,3,5,63,98,2219116884
2317,19,Jits_Linear_5,0,1,48,39,2219529712
2317,19,Jits_Linear_5,1,5,63,98,2219536932
2317,19,Jits_Linear_5,2,5,56,103,2219557244
2317,19,Jits_Linear_5,3,5,80,127,2219637172
2317,19,Jits_Linear_5,0,1,48,47,2220045888
2317,19,Jits_Linear_5,1,5,56,103,2220057000
2317,19,Jits_Linear_5,2,5,80,127,2220097088
2317,19,Jits_Linear_5,3,5,63,98,2220107060
2317,19,Jits_Linear_5,0,1,48,51,2220544524
2317,19,Jits_Linear_5,1,5,80,127,2220556684
2317,19,Jits_Linear_5,2,5,63,98,2220587260
2317,19,Jits_Linear_5,3,5,56,103,2220627200
2317,19,Jits_Linear_5,0,1,48,43,2221084204
2317,19,Jits_Linear_5,1,5,56,103,2221087016
2317,19,Jits_Linear_5,2,5,63,98,2221116992
2317,19,Jits_Linear_5,3,5,80,127,2221166968
2317,19,Jits_Linear_5,0,1,48,49,2221571536
2317,19,Jits_Linear_5,1,5,80,127,2221596968
2317,19,Jits_Linear_5,2,5,56,103,2221636836
2317,19,Jits_Linear_5,3,5,63,98,2221647108
2317,19,Jits_Linear_5,0,5,80,127,2222096964
2317,19,Jits_Linear_5,1,1,48,40,2222118292
2317,19,Jits_Linear_5,2,5,63,98,2222136824
2317,19,Jits_Linear_5,3,5,56,103,2222197064
2317,19,Jits_Linear_5,0,5,56,103,2222616968
2317,19,Jits_Linear_5,1,5,80,127,2222627092
2317,19,Jits_Linear_5,2,1,48,54,2222683692
2317,19,Jits_Linear_5,3,5,63,98,2222707032
2317,19,Jits_Linear_5,0,5,80,127,2223137124
2317,19,Jits_Linear_5,1,1,48,58,2223150656
2317,19,Jits_Linear_5,2,5,63,98,2223196616
2317,19,Jits_Linear_5,3,5,56,103,2223227116
2317,19,Jits_Linear_5,0,1,48,57,2223640612
2317,19,Jits_Linear_5,1,5,56,103,2223657420
2317,19,Jits_Linear_5,2,5,80,127,2223716768
2317,19,Jits_Linear_5,3,5,63,98,2223756692
2317,19,Jits_Linear_5,0,1,48,60,2224139404
2317,19,Jits_Linear_5,1,5,56,103,2224237040
2317,19,Jits_Linear_5,2,5,63,98,2224247236
2317,19,Jits_Linear_5,3,5,80,127,2224250524
2317,19,Jits_Linear_5,0,1,48,47,2224671364
2317,19,Jits_Linear_5,1,5,80,127,2224717104
2317,19,Jits_Linear_5,2,5,63,98,2224807304
2317,19,Jits_Linear_5,3,5,56,103,2224816976
2317,19,Jits_Linear_5,0,1,48,36,2225236772
2317,19,Jits_Linear_5,1,5,56,103,2225246976
2317,19,Jits_Linear_5,2,5,63,98,2225249996
2317,19,Jits_Linear_5,3,5,80,127,2225253188
2317,19,Jits_Linear_5,0,1,48,54,2225747004
2317,19,Jits_Linear_5,1,5,80,127,2225796404
2317,19,Jits_Linear_5,2,5,63,98,2225846888
2317,19,Jits_Linear_5,3,5,56,103,2225877340
2317,19,Jits_Linear_5,0,5,56,103,2226306436
2317,19,Jits_Linear_5,1,5,80,127,2226316856
2317,19,Jits_Linear_5,2,1,48,40,2226326800
2317,19,Jits_Linear_5,3,5,63,98,2226387308
2317,19,Jits_Linear_5,0,5,56,103,2226846972
2317,19,Jits_Linear_5,1,1,48,55,2226855860
2317,19,Jits_Linear_5,2,5,63,98,2226866528
2317,19,Jits_Linear_5,3,5,80,127,2226926868
2317,19,Jits_Linear_5,0,1,48,34,2227364680
2317,19,Jits_Linear_5,1,5,80,127,2227376784
2317,19,Jits_Linear_5,2,5,63,98,2227447096
2317,19,Jits_Linear_5,3,5,56,103,2227466640
2317,19,Jits_Linear_5,0,1,48,56,2227911756
2317,19,Jits_Linear_5,1,5,80,127,2227936736
2317,19,Jits_Linear_5,2,5,56,103,2227946784
2317,19,Jits_Linear_5,3,5,63,98,2227956980
2317,19,Jits_Linear_5,0,1,48,31,2228463808
2317,19,Jits_Linear_5,1,5,80,127,2228466916
2317,19,Jits_Linear_5,2,5,56,103,2228486628
2317,19,Jits_Linear_5,3,5,63,98,2228557192
2317,19,Jits_Linear_5,0,1,48,48,2228992864
2317,19,Jits_Linear_5,1,5,56,103,2229017028
2317,19,Jits_Linear_5,2,5,80,127,2229046780
2317,19,Jits_Linear_5,3,5,63,98,2229067088
2317,19,Jits_Linear_5,0,1,48,43,2229536316
2317,19,Jits_Linear_5,1,5,63,98,2229556648
2317,19,Jits_Linear_5,2,5,56,103,2229616892
2317,19,Jits_Linear_5,3,5,80,127,2229646700
2317,19,Jits_Linear_5,0,1,48,59,2230080800
2317,19,Jits_Linear_5,1,5,63,98,2230097536
2317,19,Jits_Linear_5,2,5,80,127,2230100824
2317,19,Jits_Linear_5,3,5,56,103,2230187580
2317,19,Jits_Linear_5,0,1,48,52,2230630748
2317,19,Jits_Linear_5,1,5,56,103,2230666744
2317,19,Jits_Linear_5,2,5,63,98,2230697616
2317,19,Jits_Linear_5,3,5,80,127,2230737120
2317,19,Jits_Linear_5,0,1,48,45,2231181756
2317,19,Jits_Linear_5,1,5,63,98,2231216704
2317,19,Jits_Linear_5,2,5,56,103,2231256524
2317,19,Jits_Linear_5,3,5,80,127,2231276832
2317,19,Jits_Linear_5,0,1,48,62,2231722876
2317,19,Jits_Linear_5,1,5,63,98,2231776584
2317,19,Jits_Linear_5,2,5,56,103,2231816600
2317,19,Jits_Linear_5,3,5,80,127,2231826932
2317,19,Jits_Linear_5,0,1,48,58,2232258940
2317,19,Jits_Linear_5,1,5,80,127,2232307216
2317,19,Jits_Linear_5,2,5,63,98,2232376812
2317,19,Jits_Linear_5,3,5,56,103,2232397348
2317,19,Jits_Linear_5,0,1,48,48,2232805760
2317,19,Jits_Linear_5,1,5,56,103,2232856880
2317,19,Jits_Linear_5,2,5,80,127,2232877564
2317,19,Jits_Linear_5,3,5,63,98,2232917560
2317,19,Jits_Linear_5,0,1,48,59,2233388304
2317,19,Jits_Linear_5,1,5,63,98,2233427436
2317,19,Jits_Linear_5,2,5,80,127,2233446700
2317,19,Jits_Linear_5,3,5,56,103,2233486624
2317,19,Jits_Linear_5,0,1,48,53,2233875320
2317,19,Jits_Linear_5,1,5,63,98,2233986520
2317,19,Jits_Linear_5,2,5,56,103,2234006760
2317,19,Jits_Linear_5,3,5,80,127,2234017328
2317,19,Jits_Linear_5,0,1,48,49,2234437644
2317,19,Jits_Linear_5,1,5,80,127,2234546592
2317,19,Jits_Linear_5,2,5,56,103,2234567228
2317,19,Jits_Linear_5,3,5,63,98,2234596752
2317,19,Jits_Linear_5,0,1,48,51,2235078808
2317,19,Jits_Linear_5,1,5,56,103,2235186484
2317,19,Jits_Linear_5,2,5,80,127,2235189480
2317,19,Jits_Linear_5,3,5,63,98,2235207172
2317,19,Jits_Linear_5,0,5,63,98,2235676976
2317,19,Jits_Linear_5,1,5,56,103,2235706728
2317,19,Jits_Linear_5,2,1,48,64,2235720408
2317,19,Jits_Linear_5,3,5,80,127,2235767408
2317,19,Jits_Linear_5,0,1,48,53,2236245632
2317,19,Jits_Linear_5,1,5,63,98,2236336544
2317,19,Jits_Linear_5,2,5,56,103,2236346872
2317,19,Jits_Linear_5,3,5,80,127,2236357464
2317,19,Jits_Linear_5,0,1,48,49,2236844824
2317,19,Jits_Linear_5,1,5,56,103,2236856612
2317,19,Jits_Linear_5,2,5,80,127,2236887360
2317,19,Jits_Linear_5,3,5,63,98,2236896584
2317,19,Jits_Linear_5,0,1,48,48,2237400420
2317,19,Jits_Linear_5,1,5,63,98,2237467132
2317,19,Jits_Linear_5,2,5,56,103,2237477328
2317,19,Jits_Linear_5,3,5,80,127,2237496652
2317,19,Jits_Linear_5,0,5,56,103,2237966608
2317,19,Jits_Linear_5,1,1,48,48,2238025012
2317,19,Jits_Linear_5,2,5,63,98,2238027140
2317,19,Jits_Linear_5,3,5,80,127,2238030504
2317,19,Jits_Linear_5,0,1,48,39,2238541032
2317,19,Jits_Linear_5,1,5,80,127,2238566912
2317,19,Jits_Linear_5,2,5,56,103,2238577404
2317,19,Jits_Linear_5,3,5,63,98,2238646624
2317,19,Jits_Linear_5,0,1,48,46,2239137032
2317,19,Jits_Linear_5,1,5,80,127,2239138664
2317,19,Jits_Linear_5,2,5,56,103,2239206736
2317,19,Jits_Linear_5,3,5,63,98,2239217304
2317,19,Jits_Linear_5,0,1,48,23,2239683004
2317,19,Jits_Linear_5,1,5,63,98,2239756544
2317,19,Jits_Linear_5,2,5,56,103,2239767112
2317,19,Jits_Linear_5,3,5,80,127,2239787332
2317,19,Jits_Linear_5,0,1,48,38,2240283840
2317,19,Jits_Linear_5,1,5,80,127,2240287172
2317,19,Jits_Linear_5,2,5,63,98,2240346444
2317,19,Jits_Linear_5,3,5,56,103,2240386448
2317,19,Jits_Linear_5,0,1,48,39,2240839428
2317,19,Jits_Linear_5,1,5,56,103,2240916928
2317,19,Jits_Linear_5,2,5,63,98,2240927128
2317,19,Jits_Linear_5,3,5,80,127,2240967000
2317,19,Jits_Linear_5,0,1,48,31,2241416364
2317,19,Jits_Linear_5,1,5,56,103,2241466880
2317,19,Jits_Linear_5,2,5,80,127,2241496360
2317,19,Jits_Linear_5,3,5,63,98,2241546548
2317,19,Jits_Linear_5,0,1,48,28,2242012032
2317,19,Jits_Linear_5,1,5,56,103,2242096436
2317,19,Jits_Linear_5,2,5,63,98,2242136508
2317,19,Jits_Linear_5,3,5,80,127,2242139796
2317,19,Jits_Linear_5,0,1,48,27,2242629724
2317,19,Jits_Linear_5,1,5,56,103,2242687296
2317,19,Jits_Linear_5,2,5,63,98,2242696444
2317,19,Jits_Linear_5,3,5,80,127,2242716976
2317,19,Jits_Linear_5,0,5,56,103,2243237256
2317,19,Jits_Linear_5,1,5,80,127,2243240172
2317,19,Jits_Linear_5,2,1,48,34,2243245328
2317,19,Jits_Linear_5,3,5,63,98,2243277288
2317,19,Jits_Linear_5,0,1,48,32,2243826544
2317,19,Jits_Linear_5,1,5,63,98,2243867476
2317,19,Jits_Linear_5,2,5,56,103,2243896632
2317,19,Jits_Linear_5,3,5,80,127,2243917092
2317,19,Jits_Linear_5,0,1,48,28,2244389016
2317,19,Jits_Linear_5,1,5,80,127,2244437292
2317,19,Jits_Linear_5,2,5,56,103,2244446516
2317,19,Jits_Linear_5,3,5,63,98,2244457008
2317,19,Jits_Linear_5,0,1,48,30,2244925856
2317,19,Jits_Linear_5,1,5,56,103,2245037352
2317,19,Jits_Linear_5,2,5,80,127,2245077244
2317,19,Jits_Linear_5,3,5,63,98,2245106996
2317,19,Jits_Linear_5,0,1,48,28,2245566320
2317,19,Jits_Linear_5,1,5,63,98,2245646840
2317,19,Jits_Linear_5,2,5,80,127,2245656892
2317,19,Jits_Linear_5,3,5,56,103,2245667296
2317,19,Jits_Linear_5,0,1,48,27,2246167176
2317,19,Jits_Linear_5,1,5,56,103,2246227364
2317,19,Jits_Linear_5,2,5,63,98,2246296960
2317,19,Jits_Linear_5,3,5,80,127,2246307232
2317,19,Jits_Linear_5,0,1,48,40,2246759760
2317,19,Jits_Linear_5,1,5,80,127,2246836740
2317,19,Jits_Linear_5,2,5,56,103,2246846936
2317,19,Jits_Linear_5,3,5,63,98,2246896976
2317,19,Jits_Linear_5,0,1,48,48,2247350744
2317,19,Jits_Linear_5,1,5,80,127,2247457032
2317,19,Jits_Linear_5,2,5,56,103,2247516748
2317,19,Jits_Linear_5,3,5,63,98,2247547176
2317,19,Jits_Linear_5,0,5,56,103,2248066352
2317,19,Jits_Linear_5,1,5,80,127,2248069716
2317,19,Jits_Linear_5,2,5,63,98,2248107340
2317,19,Jits_Linear_5,3,1,48,43,2248122664
2317,19,Jits_Linear_5,0,1,48,43,2248652704
2317,19,Jits_Linear_5,1,5,56,103,2248706316
2317,19,Jits_Linear_5,2,5,63,98,2248737112
2317,19,Jits_Linear_5,3,5,80,127,2248747236
2317,19,Jits_Linear_5,0,1,48,51,2249245764
2317,19,Jits_Linear_5,1,5,63,98,2249326852
2317,19,Jits_Linear_5,2,5,80,127,2249337200
2317,19,Jits_Linear_5,3,5,56,103,2249346556
2317,19,Jits_Linear_5,0,1,48,51,2249872656
2317,19,Jits_Linear_5,1,5,80,127,2249887000
2317,19,Jits_Linear_5,2,5,56,103,2249937376
2317,19,Jits_Linear_5,3,5,63,98,2249940368
2317,19,Jits_Linear_5,0,1,48,44,2250473720
2317,19,Jits_Linear_5,1,5,56,103,2250537516
2317,19,Jits_Linear_5,2,5,80,127,2250556784
2317,19,Jits_Linear_5,3,5,63,98,2250567128
2317,19,Jits_Linear_5,0,1,48,44,2251107460
2317,19,Jits_Linear_5,1,5,63,98,2251137524
2317,19,Jits_Linear_5,2,5,56,103,2251167128
2317,19,Jits_Linear_5,3,5,80,127,2251186760
2317,19,Jits_Linear_5,0,1,48,42,2251712020
2317,19,Jits_Linear_5,1,5,56,103,2251767276
2317,19,Jits_Linear_5,2,5,80,127,2251777472
2317,19,Jits_Linear_5,3,5,63,98,2251846992
2317,19,Jits_Linear_5,0,1,48,34,2252350096
2317,19,Jits_Linear_5,1,5,63,98,2252376724
2317,19,Jits_Linear_5,2,5,80,127,2252417412
2317,19,Jits_Linear_5,3,5,56,103,2252457412
2317,19,Jits_Linear_5,0,1,48,42,2252930544
2317,19,Jits_Linear_5,1,5,56,103,2253016688
2317,19,Jits_Linear_5,2,5,63,98,2253026664
2317,19,Jits_Linear_5,3,5,80,127,2253047032
2317,19,Jits_Linear_5,0,1,48,45,2253555600
2317,19,Jits_Linear_5,1,5,63,98,2253687108
2317,19,Jits_Linear_5,2,5,80,127,2253706596
2317,19,Jits_Linear_5,3,5,56,103,2253727128
2317,19,Jits_Linear_5,0,5,56,103,2254266832
2317,19,Jits_Linear_5,1,5,80,127,2254346732
2317,19,Jits_Linear_5,2,5,63,98,2254356780
2317,19,Jits_Linear_5,3,1,48,47,2254409120
2317,19,Jits_Linear_5,0,5,80,127,2254946748
2317,19,Jits_Linear_5,1,5,63,98,2254956872
2317,19,Jits_Linear_5,2,5,56,103,2254986548
2317,19,Jits_Linear_5,3,1,48,33,2255009820
2317,19,Jits_Linear_5,0,5,63,98,2255546772
2317,19,Jits_Linear_5,1,5,80,127,2255586660
2317,19,Jits_Linear_5,2,1,48,32,2255611056
2317,19,Jits_Linear_5,3,5,56,103,2255647196
2317,19,Jits_Linear_5,0,5,63,98,2256207264
2317,19,Jits_Linear_5,1,1,48,39,2256218028
2317,19,Jits_Linear_5,2,5,56,103,2256257612
2317,19,Jits_Linear_5,3,5,80,127,2256287436
2317,19,Jits_Linear_5,0,1,48,36,2256850936
2317,19,Jits_Linear_5,1,5,80,127,2256856664
2317,19,Jits_Linear_5,2,5,63,98,2256866788
2317,19,Jits_Linear_5,3,5,56,103,2256937516
2317,19,Jits_Linear_5,0,1,48,40,2257426676
2317,19,Jits_Linear_5,1,5,80,127,2257567020
2317,19,Jits_Linear_5,2,5,56,103,2257577592
2317,19,Jits_Linear_5,3,5,63,98,2257580576
2317,19,Jits_Linear_5,0,5,56,103,2258146616
2317,19,Jits_Linear_5,1,5,80,127,2258167448
2317,19,Jits_Linear_5,2,5,63,98,2258177644
2317,19,Jits_Linear_5,3,1,48,44,2258194088
2317,19,Jits_Linear_5,0,1,48,52,2258750192
2317,19,Jits_Linear_5,1,5,63,98,2258797052
2317,19,Jits_Linear_5,2,5,56,103,2258836992
2317,19,Jits_Linear_5,3,5,80,127,2258857436
2317,19,Jits_Linear_5,0,1,48,25,2259361888
2317,19,Jits_Linear_5,1,5,63,98,2259436872
2317,19,Jits_Linear_5,2,5,56,103,2259497400
2317,19,Jits_Linear_5,3,5,80,127,2259500388
2317,19,Jits_Linear_5,0,1,48,43,2259999076
2317,19,Jits_Linear_5,1,5,56,103,2260056500
2317,19,Jits_Linear_5,2,5,80,127,2260076812
2317,19,Jits_Linear_5,3,5,63,98,2260116808
2317,19,Jits_Linear_5,0,1,48,21,2260653388
2317,19,Jits_Linear_5,1,5,56,103,2260737368
2317,19,Jits_Linear_5,2,5,63,98,2260756988
2317,19,Jits_Linear_5,3,5,80,127,2260767336
2317,19,Jits_Linear_5,0,1,48,29,2261257556
2317,19,Jits_Linear_5,1,5,80,127,2261356764
2317,19,Jits_Linear_5,2,5,56,103,2261386664
2317,19,Jits_Linear_5,3,5,63,98,2261426604
2317,19,Jits_Linear_5,0,1,48,52,2261905060
2317,19,Jits_Linear_5,1,5,80,127,2262017328
2317,19,Jits_Linear_5,2,5,56,103,2262037188
2317,19,Jits_Linear_5,3,5,63,98,2262097360
2317,19,Jits_Linear_5,0,1,48,53,2262618300
2317,19,Jits_Linear_5,1,5,56,103,2262676840
2317,19,Jits_Linear_5,2,5,80,127,2262697300
2317,19,Jits_Linear_5,3,5,63,98,2262756656
2317,19,Jits_Linear_5,0,1,48,44,2263231808
2317,19,Jits_Linear_5,1,5,80,127,2263317028
2317,19,Jits_Linear_5,2,5,56,103,2263327224
2317,19,Jits_Linear_5,3,5,63,98,2263367148
2317,19,Jits_Linear_5,0,5,63,98,2263977272
2317,19,Jits_Linear_5,1,1,48,54,2263994244
2317,19,Jits_Linear_5,2,5,56,103,2264017380
2317,19,Jits_Linear_5,3,5,80,127,2264020372
2317,19,Jits_Linear_5,0,1,48,48,2264597788
2317,19,Jits_Linear_5,1,5,63,98,2264657152
2317,19,Jits_Linear_5,2,5,80,127,2264697080
2317,19,Jits_Linear_5,3,5,56,103,2264726980
2317,19,Jits_Linear_5,0,1,48,39,2265303148
2317,19,Jits_Linear_5,1,5,56,103,2265306480
2317,19,Jits_Linear_5,2,5,63,98,2265316824
2317,19,Jits_Linear_5,3,5,80,127,2265346424
2317,19,Jits_Linear_5,0,1,48,26,2265927428
2317,19,Jits_Linear_5,1,5,80,127,2265967016
2317,19,Jits_Linear_5,2,5,63,98,2266036540
2317,19,Jits_Linear_5,3,5,56,103,2266047180
2317,19,Jits_Linear_5,0,5,63,98,2266636708
2317,19,Jits_Linear_5,1,1,48,48,2266657508
2317,19,Jits_Linear_5,2,5,56,103,2266707432
2317,19,Jits_Linear_5,3,5,80,127,2266716508
2317,19,Jits_Linear_5,0,1,48,27,2267304396
2317,19,Jits_Linear_5,1,5,63,98,2267307432
2317,19,Jits_Linear_5,2,5,56,103,2267327384
2317,19,Jits_Linear_5,3,5,80,127,2267367028
2317,19,Jits_Linear_5,0,1,48,38,2267966916
2317,19,Jits_Linear_5,1,5,56,103,2267987172
2317,19,Jits_Linear_5,2,5,63,98,2267996396
2317,19,Jits_Linear_5,3,5,80,127,2268077520
2317,19,Jits_Linear_5,0,1,48,30,2268621928
2317,19,Jits_Linear_5,1,5,63,98,2268647060
2317,19,Jits_Linear_5,2,5,56,103,2268676364
2317,19,Jits_Linear_5,3,5,80,127,2268717352
2317,19,Jits_Linear_5,0,1,48,39,2269253168
2317,19,Jits_Linear_5,1,5,56,103,2269316444
2317,19,Jits_Linear_5,2,5,63,98,2269357416
2317,19,Jits_Linear_5,3,5,80,127,2269397380
2317,19,Jits_Linear_5,0,5,80,127,2269997392
2317,19,Jits_Linear_5,1,5,56,103,2270077192
2317,19,Jits_Linear_5,2,5,63,98,2270086492
2317,19,Jits_Linear_5,3,1,48,42,2270289956
2317,19,Jits_Linear_5,0,5,56,103,2270717240
2317,19,Jits_Linear_5,1,5,63,98,2270720236
2317,19,Jits_Linear_5,2,5,80,127,2270726540
2317,19,Jits_Linear_5,0,1,48,42,2271127964
2317,19,Jits_Linear_5,1,5,56,103,2271416840
2317,19,Jits_Linear_5,2,5,63,98,2271437104
2317,19,Jits_Linear_5,3,5,80,127,2271447448
2317,19,Jits_Linear_5,4,1,48,32,2271622640
2317,19,Jits_Linear_5,0,5,63,98,2272056876
2317,19,Jits_Linear_5,1,5,80,127,2272067072
2317,19,Jits_Linear_5,2,5,56,103,2272087308
2317,19,Jits_Linear_5,0,1,48,37,2272597980
2317,19,Jits_Linear_5,1,5,63,98,2272746824
2317,19,Jits_Linear_5,2,5,56,103,2272826696
2317,19,Jits_Linear_5,3,5,80,127,2272829764
2317,19,Jits_Linear_5,0,1,48,40,2273329720
2317,19,Jits_Linear_5,1,5,63,98,2273436956
2317,19,Jits_Linear_5,2,5,56,103,2273456592
2317,19,Jits_Linear_5,3,5,80,127,2273487116
2317,19,Jits_Linear_5,0,1,48,41,2274007968
2317,19,Jits_Linear_5,1,5,56,103,2274127412
2317,19,Jits_Linear_5,2,5,63,98,2274146604
2317,19,Jits_Linear_5,3,5,80,127,2274156872
2317,19,Jits_Linear_5,0,1,48,46,2274662512
2317,19,Jits_Linear_5,1,5,56,103,2274846948
2317,19,Jits_Linear_5,2,5,63,98,2274876920
2317,19,Jits_Linear_5,3,5,80,127,2274880132
2317,19,Jits_Linear_5,0,1,48,41,2275356640
2317,19,Jits_Linear_5,1,5,56,103,2275487028
2317,19,Jits_Linear_5,2,5,63,98,2275527140
2317,19,Jits_Linear_5,3,5,80,127,2275586708
2317,19,Jits_Linear_5,0,1,48,42,2276030840
2317,19,Jits_Linear_5,1,5,56,103,2276196744
2317,19,Jits_Linear_5,2,5,63,98,2276206868
2317,19,Jits_Linear_5,3,5,80,127,2276267556
2317,19,Jits_Linear_5,0,1,48,31,2276866220
2317,19,Jits_Linear_5,1,5,56,103,2276897112
2317,19,Jits_Linear_5,2,5,80,127,2276916672
2317,19,Jits_Linear_5,3,5,63,98,2276947468
2317,19,Jits_Linear_5,0,1,48,46,2277556652
2317,19,Jits_Linear_5,1,5,80,127,2277596560
2317,19,Jits_Linear_5,2,5,56,103,2277606904
2317,19,Jits_Linear_5,3,5,63,98,2277627216
2317,19,Jits_Linear_5,0,1,48,51,2278227400
2317,19,Jits_Linear_5,1,5,63,98,2278286692
2317,19,Jits_Linear_5,2,5,80,127,2278366576
2317,19,Jits_Linear_5,3,5,56,103,2278376700
2317,19,Jits_Linear_5,0,1,48,46,2278926328
2317,19,Jits_Linear_5,1,5,80,127,2279046596
2317,19,Jits_Linear_5,2,5,56,103,2279066980
2317,19,Jits_Linear_5,3,5,63,98,2279070192
2317,19,Jits_Linear_5,0,1,48,42,2279664200
2317,19,Jits_Linear_5,1,5,63,98,2279726500
2317,19,Jits_Linear_5,2,5,80,127,2279729936
2317,19,Jits_Linear_5,3,5,56,103,2279786804
2317,19,Jits_Linear_5,0,1,48,45,2280407268
2317,19,Jits_Linear_5,1,5,56,103,2280416508
2317,19,Jits_Linear_5,2,5,80,127,2280426852
2317,19,Jits_Linear_5,3,5,63,98,2280466792
2317,19,Jits_Linear_5,0,1,48,39,2281100916
2317,19,Jits_Linear_5,1,5,56,103,2281106792
2317,19,Jits_Linear_5,2,5,63,98,2281167212
2317,19,Jits_Linear_5,3,5,80,127,2281176360
2317,19,Jits_Linear_5,0,1,48,44,2281782080
2317,19,Jits_Linear_5,1,5,63,98,2281826624
2317,19,Jits_Linear_5,2,5,80,127,2281866564
2317,19,Jits_Linear_5,3,5,56,103,2281906416
2317,19,Jits_Linear_5,0,1,48,47,2282488804
2317,19,Jits_Linear_5,1,5,56,103,2282537532
2317,19,Jits_Linear_5,2,5,63,98,2282617548
2317,19,Jits_Linear_5,3,5,80,127,2282620756
2317,19,Jits_Linear_5,0,1,48,40,2283171736
2317,19,Jits_Linear_5,1,5,80,127,2283307396
2317,19,Jits_Linear_5,2,5,56,103,2283337072
2317,19,Jits_Linear_5,3,5,63,98,2283340212
2317,19,Jits_Linear_5,0,1,48,48,2283952480
2317,19,Jits_Linear_5,1,5,56,103,2283987304
2317,19,Jits_Linear_5,2,5,80,127,2284006644
2317,19,Jits_Linear_5,3,5,63,98,2284046568
2317,19,Jits_Linear_5,0,1,48,48,2284666548
2317,19,Jits_Linear_5,1,5,80,127,2284686580
2317,19,Jits_Linear_5,2,5,63,98,2284707116
2317,19,Jits_Linear_5,3,5,56,103,2284766768
2317,19,Jits_Linear_5,0,1,48,46,2285359628
2317,19,Jits_Linear_5,1,5,63,98,2285416900
2317,19,Jits_Linear_5,2,5,56,103,2285427244
2317,19,Jits_Linear_5,3,5,80,127,2285477208
2317,19,Jits_Linear_5,0,1,48,35,2286065828
2317,19,Jits_Linear_5,1,5,56,103,2286126392
2317,19,Jits_Linear_5,2,5,63,98,2286147076
2317,19,Jits_Linear_5,3,5,80,127,2286157196
2317,19,Jits_Linear_5,0,1,48,35,2286770636
2317,19,Jits_Linear_5,1,5,56,103,2286847340
2317,19,Jits_Linear_5,2,5,63,98,2286850480
2317,19,Jits_Linear_5,3,5,80,127,2286866888
2317,19,Jits_Linear_5,0,1,48,43,2287494360
2317,19,Jits_Linear_5,1,5,63,98,2287617344
2317,19,Jits_Linear_5,2,5,56,103,2287647320
2317,19,Jits_Linear_5,3,5,80,127,2287676992
2317,19,Jits_Linear_5,0,1,48,43,2288223544
2317,19,Jits_Linear_5,1,5,80,127,2288306452
2317,19,Jits_Linear_5,2,5,56,103,2288396516
2317,19,Jits_Linear_5,3,5,63,98,2288399736
2317,19,Jits_Linear_5,0,1,48,34,2288955144
2317,19,Jits_Linear_5,1,5,56,103,2289036832
2317,19,Jits_Linear_5,2,5,80,127,2289039824
2317,19,Jits_Linear_5,3,5,63,98,2289116492
2317,19,Jits_Linear_5,0,1,48,45,2289631044
2317,19,Jits_Linear_5,1,5,80,127,2289766980
2317,19,Jits_Linear_5,2,5,63,98,2289827296
2317,19,Jits_Linear_5,3,5,56,103,2289857148
2317,19,Jits_Linear_5,0,1,48,45,2290362312
2317,19,Jits_Linear_5,1,5,63,98,2290497296
2317,19,Jits_Linear_5,2,5,80,127,2290507196
2317,19,Jits_Linear_5,3,5,56,103,2290576880
2317,19,Jits_Linear_5,0,1,48,19,2291151024
2317,19,Jits_Linear_5,1,5,56,103,2291246440
2317,19,Jits_Linear_5,2,5,80,127,2291277296
2317,19,Jits_Linear_5,3,5,63,98,2291327424
2317,19,Jits_Linear_5,0,1,48,53,2291992684
2317,19,Jits_Linear_5,1,5,63,98,2292027032
2317,19,Jits_Linear_5,2,5,56,103,2292056412
2317,19,Jits_Linear_5,3,5,80,127,2292059552
2317,19,Jits_Linear_5,0,1,48,51,2292761060
2317,19,Jits_Linear_5,1,5,63,98,2292777276
2317,19,Jits_Linear_5,2,5,80,127,2292796764
2317,19,Jits_Linear_5,3,5,56,103,2292806960
2317,19,Jits_Linear_5,0,1,48,47,2293466964
2317,19,Jits_Linear_5,1,5,56,103,2293527004
2317,19,Jits_Linear_5,2,5,63,98,2293530068
2317,19,Jits_Linear_5,3,5,80,127,2293547316
2317,19,Jits_Linear_5,0,1,48,46,2294172664
2317,19,Jits_Linear_5,1,5,56,103,2294227572
2317,19,Jits_Linear_5,2,5,63,98,2294236796
2317,19,Jits_Linear_5,3,5,80,127,2294268476
2317,19,Jits_Linear_5,0,1,48,41,2294942464
2317,19,Jits_Linear_5,1,5,63,98,2294997220
2317,19,Jits_Linear_5,2,5,80,127,2295016856
2317,19,Jits_Linear_5,3,5,56,103,2295056780
2317,19,Jits_Linear_5,0,1,48,14,2295708832
2317,19,Jits_Linear_5,1,5,56,103,2295776912
2317,19,Jits_Linear_5,2,5,63,98,2295816844
2317,19,Jits_Linear_5,3,5,80,127,2295820052
2317,19,Jits_Linear_5,0,1,48,37,2296424764
2317,19,Jits_Linear_5,1,5,80,127,2296466816
2317,19,Jits_Linear_5,2,5,56,103,2296506760
2317,19,Jits_Linear_5,3,5,63,98,2296556800
2317,19,Jits_Linear_5,0,1,48,36,2297177156
2317,19,Jits_Linear_5,1,5,56,103,2297277056
2317,19,Jits_Linear_5,2,5,80,127,2297287032
2317,19,Jits_Linear_5,3,5,63,98,2297316780
2317,19,Jits_Linear_5,0,1,48,38,2297844820
2317,19,Jits_Linear_5,1,5,56,103,2297977160
2317,19,Jits_Linear_5,2,5,80,127,2298017176
2317,19,Jits_Linear_5,3,5,63,98,2298067180
2317,19,Jits_Linear_5,0,1,48,43,2298651340
2317,19,Jits_Linear_5,1,5,56,103,2298737088
2317,19,Jits_Linear_5,2,5,80,127,2298777164
2317,19,Jits_Linear_5,3,5,63,98,2298827020
2317,19,Jits_Linear_5,0,1,48,49,2299445952
2317,19,Jits_Linear_5,1,5,80,127,2299486588
2317,19,Jits_Linear_5,2,5,63,98,2299566672
2317,19,Jits_Linear_5,3,5,56,103,2299576720
2317,19,Jits_Linear_5,0,5,80,127,2300296560
2317,19,Jits_Linear_5,1,1,48,44,2300305548
2317,19,Jits_Linear_5,2,5,56,103,2300307420
2317,19,Jits_Linear_5,3,5,63,98,2300327432
2317,19,Jits_Linear_5,0,5,63,98,2301026744
2317,19,Jits_Linear_5,1,1,48,54,2301044240
2317,19,Jits_Linear_5,2,5,56,103,2301097468
2317,19,Jits_Linear_5,3,5,80,127,2301100532
2317,19,Jits_Linear_5,4,1,48,28,2301102456
2317,19,Jits_Linear_5,0,1,48,52,2301764176
2317,19,Jits_Linear_5,1,5,80,127,2301786768
2317,19,Jits_Linear_5,2,5,63,98,2301836600
2317,19,Jits_Linear_5,3,5,56,103,2301876600
2317,19,Jits_Linear_5,0,1,48,48,2302535196
2317,19,Jits_Linear_5,1,5,63,98,2302596436
2317,19,Jits_Linear_5,2,5,56,103,2302637408
2317,19,Jits_Linear_5,3,5,80,127,2302646704
2317,19,Jits_Linear_5,0,1,48,45,2303301776
2317,19,Jits_Linear_5,1,5,63,98,2303357400
2317,19,Jits_Linear_5,2,5,56,103,2303376740
2317,19,Jits_Linear_5,3,5,80,127,2303398528
2317,19,Jits_Linear_5,0,1,48,54,2304071352
2317,19,Jits_Linear_5,1,5,80,127,2304087348
2317,19,Jits_Linear_5,2,5,56,103,2304096572
2317,19,Jits_Linear_5,3,5,63,98,2304117400
2317,19,Jits_Linear_5,0,1,48,43,2304824136
2317,19,Jits_Linear_5,1,5,63,98,2304887336
2317,19,Jits_Linear_5,2,5,56,103,2304927264
2317,19,Jits_Linear_5,3,5,80,127,2304956816
2317,19,Jits_Linear_5,0,1,48,48,2305539480
2317,19,Jits_Linear_5,1,5,56,103,2305666420
2317,19,Jits_Linear_5,2,5,63,98,2305697292
2317,19,Jits_Linear_5,3,5,80,127,2305726772
2317,19,Jits_Linear_5,0,1,48,51,2306416156
2317,19,Jits_Linear_5,1,5,80,127,2306417880
2317,19,Jits_Linear_5,2,5,56,103,2306486512
2317,19,Jits_Linear_5,3,5,63,98,2306489660
2317,19,Jits_Linear_5,0,5,56,103,2307206540
2317,19,Jits_Linear_5,1,5,63,98,2307256672
2317,19,Jits_Linear_5,2,1,48,39,2307260564
2317,19,Jits_Linear_5,3,5,80,127,2307287336
2317,19,Jits_Linear_5,0,1,48,51,2307942744
2317,19,Jits_Linear_5,1,5,63,98,2307967500
2317,19,Jits_Linear_5,2,5,80,127,2307970716
2317,19,Jits_Linear_5,3,5,56,103,2308026700
2317,19,Jits_Linear_5,0,1,48,50,2308710588
2317,19,Jits_Linear_5,1,5,56,103,2308777376
2317,19,Jits_Linear_5,2,5,80,127,2308786524
2317,19,Jits_Linear_5,3,5,63,98,2308836664
2317,19,Jits_Linear_5,0,1,48,51,2309459112
2317,19,Jits_Linear_5,1,5,63,98,2309537212
2317,19,Jits_Linear_5,2,5,56,103,2309547332
2317,19,Jits_Linear_5,3,5,80,127,2309577092
2317,19,Jits_Linear_5,0,1,48,48,2310233840
2317,19,Jits_Linear_5,1,5,63,98,2310357292
2317,19,Jits_Linear_5,2,5,80,127,2310360580
2317,19,Jits_Linear_5,3,5,56,103,2310387188
2317,19,Jits_Linear_5,0,1,48,43,2311022584
2317,19,Jits_Linear_5,1,5,63,98,2311167464
2317,19,Jits_Linear_5,2,5,56,103,2311186800
2317,19,Jits_Linear_5,3,5,80,127,2311189716
2317,19,Jits_Linear_5,0,1,48,54,2311915232
2317,19,Jits_Linear_5,1,5,63,98,2311917044
2317,19,Jits_Linear_5,2,5,56,103,2311986504
2317,19,Jits_Linear_5,3,5,80,127,2312007472
2317,19,Jits_Linear_5,0,5,56,103,2312697120
2317,19,Jits_Linear_5,1,5,63,98,2312706492
2317,19,Jits_Linear_5,2,1,48,55,2312760104
2317,19,Jits_Linear_5,3,5,80,127,2312796476
2317,19,Jits_Linear_5,0,1,48,52,2313415356
2317,19,Jits_Linear_5,1,1,48,34,2313468528
2317,19,Jits_Linear_5,2,5,56,103,2313507140
2317,19,Jits_Linear_5,3,5,80,127,2313547084
2317,19,Jits_Linear_5,4,5,63,98,2313557280
2317,19,Jits_Linear_5,0,1,48,54,2314271360
2317,19,Jits_Linear_5,1,5,56,103,2314327364
2317,19,Jits_Linear_5,2,1,48,26,2314344092
2317,19,Jits_Linear_5,3,5,63,98,2314357168
2317,19,Jits_Linear_5,4,5,80,127,2314386992
2317,19,Jits_Linear_5,0,1,48,58,2315082416
2317,19,Jits_Linear_5,1,5,80,127,2315087244
2317,19,Jits_Linear_5,2,5,63,98,2315127112
2317,19,Jits_Linear_5,3,5,56,103,2315146896
2317,19,Jits_Linear_5,0,1,48,49,2315856788
2317,19,Jits_Linear_5,1,5,56,103,2315926872
2317,19,Jits_Linear_5,2,5,80,127,2315947704
2317,19,Jits_Linear_5,3,5,63,98,2315966832
2317,19,Jits_Linear_5,0,1,48,45,2316679036
2317,19,Jits_Linear_5,1,5,63,98,2316696976
2317,19,Jits_Linear_5,2,5,56,103,2316707244
2317,19,Jits_Linear_5,3,5,80,127,2316766912
2317,19,Jits_Linear_5,0,1,48,38,2317476860
2317,19,Jits_Linear_5,1,5,56,103,2317506808
2317,19,Jits_Linear_5,2,5,63,98,2317576552
2317,19,Jits_Linear_5,3,5,80,127,2317597088
2317,19,Jits_Linear_5,0,1,48,53,2318240888
2317,19,Jits_Linear_5,1,5,56,103,2318316844
2317,19,Jits_Linear_5,2,5,63,98,2318346804
2317,19,Jits_Linear_5,3,5,80,127,2318386668
2317,19,Jits_Linear_5,0,5,63,98,2319116768
2317,19,Jits_Linear_5,1,5,56,103,2319166748
2317,19,Jits_Linear_5,2,5,80,127,2319176944
2317,19,Jits_Linear_5,0,1,48,42,2319886264
2317,19,Jits_Linear_5,1,5,56,103,2319966760
2317,19,Jits_Linear_5,2,5,63,98,2320016728
2317,19,Jits_Linear_5,3,5,80,127,2320027000
2317,19,Jits_Linear_5,0,1,48,47,2320688956
2317,19,Jits_Linear_5,1,5,56,103,2320746832
2317,19,Jits_Linear_5,2,5,63,98,2320757252
2317,19,Jits_Linear_5,3,5,80,127,2320836984
2317,19,Jits_Linear_5,0,9999,9999,9999,2211944504
2317,19,Jits_Linear_5,1,9999,9999,9999,2212424816
2317,19,Jits_Linear_5,2,9999,9999,9999,2212905024
2317,19,Jits_Linear_5,3,9999,9999,9999,2213384268
2317,19,Jits_Linear_5,4,9999,9999,9999,2213864552
2317,19,Jits_Linear_5,5,9999,9999,9999,2214355032
2317,19,Jits_Linear_5,6,9999,9999,9999,2214844508
2317,19,Jits_Linear_5,7,9999,9999,9999,2215334976
2317,19,Jits_Linear_5,8,9999,9999,9999,2215824476
2317,19,Jits_Linear_5,9,9999,9999,9999,2216314964
2317,19,Jits_Linear_5,10,9999,9999,9999,2216814648
2317,19,Jits_Linear_5,11,9999,9999,9999,2217314424
2317,19,Jits_Linear_5,12,9999,9999,9999,2217814108
2317,19,Jits_Linear_5,13,9999,9999,9999,2218314840
2317,19,Jits_Linear_5,14,9999,9999,9999,2218814588
2317,19,Jits_Linear_5,15,9999,9999,9999,2219324540
2317,19,Jits_Linear_5,16,9999,9999,9999,2219834492
2317,19,Jits_Linear_5,17,9999,9999,9999,2220344444
2317,19,Jits_Linear_5,18,9999,9999,9999,2220854396
2317,19,Jits_Linear_5,19,9999,9999,9999,2221364344
2317,19,Jits_Linear_5,20,9999,9999,9999,2221884492
2317,19,Jits_Linear_5,21,9999,9999,9999,2222404708
2317,19,Jits_Linear_5,22,9999,9999,9999,2222924860
2317,19,Jits_Linear_5,23,9999,9999,9999,2223445088
2317,19,Jits_Linear_5,24,9999,9999,9999,2223964272
2317,19,Jits_Linear_5,25,9999,9999,9999,2224494672
2317,19,Jits_Linear_5,26,9999,9999,9999,2225024108
2317,19,Jits_Linear_5,27,9999,9999,9999,2225554484
2317,19,Jits_Linear_5,28,9999,9999,9999,2226084968
2317,19,Jits_Linear_5,29,9999,9999,9999,2226614324
2317,19,Jits_Linear_5,30,9999,9999,9999,2227155032
2317,19,Jits_Linear_5,31,9999,9999,9999,2227694672
2317,19,Jits_Linear_5,32,9999,9999,9999,2228234364
2317,19,Jits_Linear_5,33,9999,9999,9999,2228775036
2317,19,Jits_Linear_5,34,9999,9999,9999,2229314660
2317,19,Jits_Linear_5,35,9999,9999,9999,2229864544
2317,19,Jits_Linear_5,36,9999,9999,9999,2230414416
2317,19,Jits_Linear_5,37,9999,9999,9999,2230964300
2317,19,Jits_Linear_5,38,9999,9999,9999,2231514212
2317,19,Jits_Linear_5,39,9999,9999,9999,2232064104
2317,19,Jits_Linear_5,40,9999,9999,9999,2232624180
2317,19,Jits_Linear_5,41,9999,9999,9999,2233184324
2317,19,Jits_Linear_5,42,9999,9999,9999,2233744472
2317,19,Jits_Linear_5,43,9999,9999,9999,2234304616
2317,19,Jits_Linear_5,44,9999,9999,9999,2234864716
2317,19,Jits_Linear_5,45,9999,9999,9999,2235435128
2317,19,Jits_Linear_5,46,9999,9999,9999,2236014680
2317,19,Jits_Linear_5,47,9999,9999,9999,2236585024
2317,19,Jits_Linear_5,48,9999,9999,9999,2237154416
2317,19,Jits_Linear_5,49,9999,9999,9999,2237724760
2317,19,Jits_Linear_5,50,9999,9999,9999,2238304376
2317,19,Jits_Linear_5,51,9999,9999,9999,2238884920
2317,19,Jits_Linear_5,52,9999,9999,9999,2239464576
2317,19,Jits_Linear_5,53,9999,9999,9999,2240044132
2317,19,Jits_Linear_5,54,9999,9999,9999,2240624740
2317,19,Jits_Linear_5,55,9999,9999,9999,2241214560
2317,19,Jits_Linear_5,56,9999,9999,9999,2241804396
2317,19,Jits_Linear_5,57,9999,9999,9999,2242394204
2317,19,Jits_Linear_5,58,9999,9999,9999,2242985072
2317,19,Jits_Linear_5,59,9999,9999,9999,2243574900
2317,19,Jits_Linear_5,60,9999,9999,9999,2244174924
2317,19,Jits_Linear_5,61,9999,9999,9999,2244775000
2317,19,Jits_Linear_5,62,9999,9999,9999,2245375032
2317,19,Jits_Linear_5,63,9999,9999,9999,2245974140
2317,19,Jits_Linear_5,64,9999,9999,9999,2246574144
2317,19,Jits_Linear_5,65,9999,9999,9999,2247184488
2317,19,Jits_Linear_5,66,9999,9999,9999,2247794760
2317,19,Jits_Linear_5,67,9999,9999,9999,2248405116
2317,19,Jits_Linear_5,68,9999,9999,9999,2249014356
2317,19,Jits_Linear_5,69,9999,9999,9999,2249624632
2317,19,Jits_Linear_5,70,9999,9999,9999,2250244204
2317,19,Jits_Linear_5,71,9999,9999,9999,2250864740
2317,19,Jits_Linear_5,72,9999,9999,9999,2251484252
2317,19,Jits_Linear_5,73,9999,9999,9999,2252104764
2317,19,Jits_Linear_5,74,9999,9999,9999,2252724324
2317,19,Jits_Linear_5,75,9999,9999,9999,2253355072
2317,19,Jits_Linear_5,76,9999,9999,9999,2253995088
2317,19,Jits_Linear_5,77,9999,9999,9999,2254635128
2317,19,Jits_Linear_5,78,9999,9999,9999,2255275088
2317,19,Jits_Linear_5,79,9999,9999,9999,2255915068
2317,19,Jits_Linear_5,80,9999,9999,9999,2256555084
2317,19,Jits_Linear_5,81,9999,9999,9999,2257195124
2317,19,Jits_Linear_5,82,9999,9999,9999,2257835064
2317,19,Jits_Linear_5,83,9999,9999,9999,2258475100
2317,19,Jits_Linear_5,84,9999,9999,9999,2259115132
2317,19,Jits_Linear_5,85,9999,9999,9999,2259774576
2317,19,Jits_Linear_5,86,9999,9999,9999,2260424796
2317,19,Jits_Linear_5,87,9999,9999,9999,2261075004
2317,19,Jits_Linear_5,88,9999,9999,9999,2261724260
2317,19,Jits_Linear_5,89,9999,9999,9999,2262374460
2317,19,Jits_Linear_5,90,9999,9999,9999,2263034952
2317,19,Jits_Linear_5,91,9999,9999,9999,2263694444
2317,19,Jits_Linear_5,92,9999,9999,9999,2264354924
2317,19,Jits_Linear_5,93,9999,9999,9999,2265014344
2317,19,Jits_Linear_5,94,9999,9999,9999,2265674824
2317,19,Jits_Linear_5,95,9999,9999,9999,2266344512
2317,19,Jits_Linear_5,96,9999,9999,9999,2267014268
2317,19,Jits_Linear_5,97,9999,9999,9999,2267684940
2317,19,Jits_Linear_5,98,9999,9999,9999,2268354648
2317,19,Jits_Linear_5,99,9999,9999,9999,2269024328
2317,19,Jits_Linear_5,100,9999,9999,9999,2269704300
2317,19,Jits_Linear_5,101,9999,9999,9999,2270384188
2317,19,Jits_Linear_5,102,9999,9999,9999,2271064172
2317,19,Jits_Linear_5,103,9999,9999,9999,2271744080
2317,19,Jits_Linear_5,104,9999,9999,9999,2272425016
2317,19,Jits_Linear_5,105,9999,9999,9999,2273114212
2317,19,Jits_Linear_5,106,9999,9999,9999,2273804372
2317,19,Jits_Linear_5,107,9999,9999,9999,2274494532
2317,19,Jits_Linear_5,108,9999,9999,9999,2275184736
2317,19,Jits_Linear_5,109,9999,9999,9999,2275874896
2317,19,Jits_Linear_5,110,9999,9999,9999,2276574272
2317,19,Jits_Linear_5,111,9999,9999,9999,2277274748
2317,19,Jits_Linear_5,112,9999,9999,9999,2277974124
2317,19,Jits_Linear_5,113,9999,9999,9999,2278674548
2317,19,Jits_Linear_5,114,9999,9999,9999,2279374968
2317,19,Jits_Linear_5,115,9999,9999,9999,2280084580
2317,19,Jits_Linear_5,116,9999,9999,9999,2280794224
2317,19,Jits_Linear_5,117,9999,9999,9999,2281504836
2317,19,Jits_Linear_5,118,9999,9999,9999,2282214476
2317,19,Jits_Linear_5,119,9999,9999,9999,2282924088
2317,19,Jits_Linear_5,120,9999,9999,9999,2283645036
2317,19,Jits_Linear_5,121,9999,9999,9999,2284364868
2317,19,Jits_Linear_5,122,9999,9999,9999,2285084772
2317,19,Jits_Linear_5,123,9999,9999,9999,2285804604
2317,19,Jits_Linear_5,124,9999,9999,9999,2286524484
2317,19,Jits_Linear_5,125,9999,9999,9999,2287254636
2317,19,Jits_Linear_5,126,9999,9999,9999,2287984736
2317,19,Jits_Linear_5,127,9999,9999,9999,2288714824
2317,19,Jits_Linear_5,128,9999,9999,9999,2289444980
2317,19,Jits_Linear_5,129,9999,9999,9999,2290175076
2317,19,Jits_Linear_5,130,9999,9999,9999,2290914384
2317,19,Jits_Linear_5,131,9999,9999,9999,2291654744
2317,19,Jits_Linear_5,132,9999,9999,9999,2292395072
2317,19,Jits_Linear_5,133,9999,9999,9999,2293144652
2317,19,Jits_Linear_5,134,9999,9999,9999,2293885004
2317,19,Jits_Linear_5,135,9999,9999,9999,2294634576
2317,19,Jits_Linear_5,136,9999,9999,9999,2295384152
2317,19,Jits_Linear_5,137,9999,9999,9999,2296134768
2317,19,Jits_Linear_5,138,9999,9999,9999,2296884316
2317,19,Jits_Linear_5,139,9999,9999,9999,2297634932
2317,19,Jits_Linear_5,140,9999,9999,9999,2298394696
2317,19,Jits_Linear_5,141,9999,9999,9999,2299154536
2317,19,Jits_Linear_5,142,9999,9999,9999,2299914300
2317,19,Jits_Linear_5,143,9999,9999,9999,2300674140
2317,19,Jits_Linear_5,144,9999,9999,9999,2301434940
2317,19,Jits_Linear_5,145,9999,9999,9999,2302205040
2317,19,Jits_Linear_5,146,9999,9999,9999,2302975072
2317,19,Jits_Linear_5,147,9999,9999,9999,2303744056
2317,19,Jits_Linear_5,148,9999,9999,9999,2304514156
2317,19,Jits_Linear_5,149,9999,9999,9999,2305284184
2317,19,Jits_Linear_5,150,9999,9999,9999,2306064476
2317,19,Jits_Linear_5,151,9999,9999,9999,2306844736
2317,19,Jits_Linear_5,152,9999,9999,9999,2307625028
2317,19,Jits_Linear_5,153,9999,9999,9999,2308404344
2317,19,Jits_Linear_5,154,9999,9999,9999,2309184632
2317,19,Jits_Linear_5,155,9999,9999,9999,2309974132
2317,19,Jits_Linear_5,156,9999,9999,9999,2310764604
2317,19,Jits_Linear_5,157,9999,9999,9999,2311554176
2317,19,Jits_Linear_5,158,9999,9999,9999,2312344656
2317,19,Jits_Linear_5,159,9999,9999,9999,2313134164
2317,19,Jits_Linear_5,160,9999,9999,9999,2313934924
2317,19,Jits_Linear_5,161,9999,9999,9999,2314734676
2317,19,Jits_Linear_5,162,9999,9999,9999,2315534432
2317,19,Jits_Linear_5,163,9999,9999,9999,2316334204
2317,19,Jits_Linear_5,164,9999,9999,9999,2317134944
2317,19,Jits_Linear_5,165,9999,9999,9999,2317944908
2317,19,Jits_Linear_5,166,9999,9999,9999,2318754940
2317,19,Jits_Linear_5,167,9999,9999,9999,2319564868
2317,19,Jits_Linear_5,168,9999,9999,9999,2320374844
2317,19,Jits_Linear_5,169,9999,9999,9999,2321184876
2318,18,Jits_Linear_8,0,5,56,103,2333314356
2318,18,Jits_Linear_8,1,5,63,98,2333317384
2318,18,Jits_Linear_8,2,5,80,127,2333320656
2318,18,Jits_Linear_8,3,1,48,13,2333652400
2318,18,Jits_Linear_8,0,5,56,103,2334134564
2318,18,Jits_Linear_8,1,5,63,98,2334137736
2318,18,Jits_Linear_8,2,5,80,127,2334140860
2318,18,Jits_Linear_8,3,1,48,29,2334228644
2318,18,Jits_Linear_8,0,5,80,127,2334894368
2318,18,Jits_Linear_8,1,1,48,30,2334932640
2318,18,Jits_Linear_8,2,5,63,98,2334984676
2318,18,Jits_Linear_8,3,5,56,103,2334994796
2318,18,Jits_Linear_8,0,5,56,103,2335735220
2318,18,Jits_Linear_8,1,5,63,98,2335745340
2318,18,Jits_Linear_8,2,1,48,44,2335751000
2318,18,Jits_Linear_8,3,5,80,127,2335834420
2318,18,Jits_Linear_8,0,1,48,29,2336513672
2318,18,Jits_Linear_8,1,5,63,98,2336524784
2318,18,Jits_Linear_8,2,5,80,127,2336555284
2318,18,Jits_Linear_8,3,5,56,103,2336585032
2318,18,Jits_Linear_8,0,1,48,39,2337306372
2318,18,Jits_Linear_8,1,5,56,103,2337345060
2318,18,Jits_Linear_8,2,5,80,127,2337445220
2318,18,Jits_Linear_8,3,5,63,98,2337495296
2318,18,Jits_Linear_8,0,5,56,103,2338154936
2318,18,Jits_Linear_8,1,1,48,35,2338176564
2318,18,Jits_Linear_8,2,5,80,127,2338204984
2318,18,Jits_Linear_8,3,5,63,98,2338244948
2318,18,Jits_Linear_8,0,1,48,28,2338936536
2318,18,Jits_Linear_8,1,5,80,127,2338994704
2318,18,Jits_Linear_8,2,5,63,98,2339025380
2318,18,Jits_Linear_8,3,5,56,103,2339094824
2318,18,Jits_Linear_8,0,5,63,98,2339835324
2318,18,Jits_Linear_8,1,5,56,103,2339865076
2318,18,Jits_Linear_8,2,5,80,127,2339925316
2318,18,Jits_Linear_8,3,1,48,41,2339937804
2318,18,Jits_Linear_8,0,5,56,103,2340584884
2318,18,Jits_Linear_8,1,5,80,127,2340587952
2318,18,Jits_Linear_8,2,1,48,43,2340662484
2318,18,Jits_Linear_8,3,5,63,98,2340704752
2318,18,Jits_Linear_8,0,1,48,51,2341404168
2318,18,Jits_Linear_8,1,5,56,103,2341464728
2318,18,Jits_Linear_8,2,5,80,127,2341505256
2318,18,Jits_Linear_8,3,5,63,98,2341514852
2318,18,Jits_Linear_8,0,1,48,52,2342217636
2318,18,Jits_Linear_8,1,5,56,103,2342225232
2318,18,Jits_Linear_8,2,5,80,127,2342244644
2318,18,Jits_Linear_8,3,5,63,98,2342324720
2318,18,Jits_Linear_8,0,5,80,127,2343014732
2318,18,Jits_Linear_8,1,1,48,49,2343043256
2318,18,Jits_Linear_8,2,5,56,103,2343115072
2318,18,Jits_Linear_8,3,5,63,98,2343125640
2318,18,Jits_Linear_8,0,5,63,98,2343784760
2318,18,Jits_Linear_8,1,5,80,127,2343845152
2318,18,Jits_Linear_8,2,5,56,103,2343854376
2318,18,Jits_Linear_8,3,1,48,50,2343874228
2318,18,Jits_Linear_8,0,1,48,45,2344520256
2318,18,Jits_Linear_8,1,5,56,103,2344584652
2318,18,Jits_Linear_8,2,1,48,23,2344590148
2318,18,Jits_Linear_8,3,5,63,98,2344655160
2318,18,Jits_Linear_8,4,5,80,127,2344658596
2318,18,Jits_Linear_8,0,1,48,40,2345288136
2318,18,Jits_Linear_8,1,5,63,98,2345415096
2318,18,Jits_Linear_8,2,5,56,103,2345465368
2318,18,Jits_Linear_8,3,5,80,127,2345468512
2318,18,Jits_Linear_8,0,1,48,47,2346125348
2318,18,Jits_Linear_8,1,5,56,103,2346164556
2318,18,Jits_Linear_8,2,5,80,127,2346167696
2318,18,Jits_Linear_8,3,5,63,98,2346254848
2318,18,Jits_Linear_8,0,1,48,44,2346935428
2318,18,Jits_Linear_8,1,5,63,98,2346995040
2318,18,Jits_Linear_8,2,5,56,103,2347085236
2318,18,Jits_Linear_8,3,5,80,127,2347114912
2318,18,Jits_Linear_8,0,1,48,40,2347751464
2318,18,Jits_Linear_8,1,5,56,103,2347775324
2318,18,Jits_Linear_8,2,5,63,98,2347874736
2318,18,Jits_Linear_8,3,5,80,127,2347905532
2318,18,Jits_Linear_8,0,1,48,43,2348555872
2318,18,Jits_Linear_8,1,5,63,98,2348585492
2318,18,Jits_Linear_8,2,5,56,103,2348594420
2318,18,Jits_Linear_8,3,5,80,127,2348684608
2318,18,Jits_Linear_8,0,1,48,56,2349370760
2318,18,Jits_Linear_8,1,5,63,98,2349385104
2318,18,Jits_Linear_8,2,5,56,103,2349465048
2318,18,Jits_Linear_8,3,5,80,127,2349469072
2318,18,Jits_Linear_8,0,5,80,127,2350125520
2318,18,Jits_Linear_8,1,5,63,98,2350144860
2318,18,Jits_Linear_8,2,5,56,103,2350205248
2318,18,Jits_Linear_8,3,1,48,35,2350210836
2318,18,Jits_Linear_8,0,5,56,103,2350944620
2318,18,Jits_Linear_8,1,5,63,98,2350965152
2318,18,Jits_Linear_8,2,5,80,127,2350968372
2318,18,Jits_Linear_8,3,1,48,48,2350987752
2318,18,Jits_Linear_8,0,5,63,98,2351664368
2318,18,Jits_Linear_8,1,1,48,43,2351679020
2318,18,Jits_Linear_8,2,5,80,127,2351745356
2318,18,Jits_Linear_8,3,5,56,103,2351754576
2318,18,Jits_Linear_8,0,1,48,40,2352396732
2318,18,Jits_Linear_8,1,5,63,98,2352465312
2318,18,Jits_Linear_8,2,5,56,103,2352484724
2318,18,Jits_Linear_8,3,5,80,127,2352535060
2318,18,Jits_Linear_8,0,1,48,39,2353111884
2318,18,Jits_Linear_8,1,5,80,127,2353244600
2318,18,Jits_Linear_8,2,5,63,98,2353284468
2318,18,Jits_Linear_8,3,5,56,103,2353305148
2318,18,Jits_Linear_8,0,1,48,43,2353933836
2318,18,Jits_Linear_8,1,5,56,103,2354054472
2318,18,Jits_Linear_8,2,5,63,98,2354064740
2318,18,Jits_Linear_8,3,5,80,127,2354085200
2318,18,Jits_Linear_8,0,5,56,103,2354755048
2318,18,Jits_Linear_8,1,1,48,38,2354769108
2318,18,Jits_Linear_8,2,5,63,98,2354845180
2318,18,Jits_Linear_8,3,5,80,127,2354904308
2318,18,Jits_Linear_8,0,1,48,50,2355510804
2318,18,Jits_Linear_8,1,5,80,127,2355554816
2318,18,Jits_Linear_8,2,5,56,103,2355565084
2318,18,Jits_Linear_8,3,5,63,98,2355634528
2318,18,Jits_Linear_8,0,1,48,47,2356326148
2318,18,Jits_Linear_8,1,5,63,98,2356354272
2318,18,Jits_Linear_8,2,5,80,127,2356444568
2318,18,Jits_Linear_8,3,5,56,103,2356455212
2318,18,Jits_Linear_8,0,5,63,98,2357055068
2318,18,Jits_Linear_8,1,5,80,127,2357105120
2318,18,Jits_Linear_8,2,5,56,103,2357165436
2318,18,Jits_Linear_8,3,1,48,48,2357173884
2318,18,Jits_Linear_8,0,1,48,39,2357835988
2318,18,Jits_Linear_8,1,5,56,103,2357845376
2318,18,Jits_Linear_8,2,5,80,127,2357894384
2318,18,Jits_Linear_8,3,5,63,98,2357914916
2318,18,Jits_Linear_8,0,1,48,36,2358563896
2318,18,Jits_Linear_8,1,5,56,103,2358574408
2318,18,Jits_Linear_8,2,5,80,127,2358635100
2318,18,Jits_Linear_8,3,5,63,98,2358704392
2318,18,Jits_Linear_8,0,1,48,43,2359328580
2318,18,Jits_Linear_8,1,5,56,103,2359335352
2318,18,Jits_Linear_8,2,5,80,127,2359364880
2318,18,Jits_Linear_8,3,5,63,98,2359394776
2318,18,Jits_Linear_8,0,1,48,46,2360121276
2318,18,Jits_Linear_8,1,5,56,103,2360135096
2318,18,Jits_Linear_8,2,5,80,127,2360154584
2318,18,Jits_Linear_8,3,5,63,98,2360215036
2318,18,Jits_Linear_8,0,1,48,42,2360905984
2318,18,Jits_Linear_8,1,5,80,127,2360974788
2318,18,Jits_Linear_8,2,5,56,103,2360985060
2318,18,Jits_Linear_8,3,5,63,98,2360995328
2318,18,Jits_Linear_8,0,5,56,103,2361685472
2318,18,Jits_Linear_8,1,1,48,44,2361716688
2318,18,Jits_Linear_8,2,5,80,127,2361725184
2318,18,Jits_Linear_8,3,5,63,98,2361755084
2318,18,Jits_Linear_8,0,5,56,103,2362405160
2318,18,Jits_Linear_8,1,5,63,98,2362435060
2318,18,Jits_Linear_8,2,1,48,49,2362456540
2318,18,Jits_Linear_8,3,5,80,127,2362474992
2318,18,Jits_Linear_8,0,5,80,127,2363104824
2318,18,Jits_Linear_8,1,1,48,40,2363149148
2318,18,Jits_Linear_8,2,5,63,98,2363154652
2318,18,Jits_Linear_8,3,5,56,103,2363175184
2318,18,Jits_Linear_8,0,1,48,47,2363873920
2318,18,Jits_Linear_8,1,5,56,103,2363885032
2318,18,Jits_Linear_8,2,5,80,127,2363954936
2318,18,Jits_Linear_8,3,5,63,98,2364014868
2318,18,Jits_Linear_8,0,5,80,127,2364625236
2318,18,Jits_Linear_8,1,1,48,44,2364663200
2318,18,Jits_Linear_8,2,5,63,98,2364715288
2318,18,Jits_Linear_8,3,5,56,103,2364734780
2318,18,Jits_Linear_8,0,5,63,98,2365385152
2318,18,Jits_Linear_8,1,5,56,103,2365404640
2318,18,Jits_Linear_8,2,5,80,127,2365444432
2318,18,Jits_Linear_8,3,1,48,53,2365475048
2318,18,Jits_Linear_8,0,1,48,38,2366083816
2318,18,Jits_Linear_8,1,5,80,127,2366085608
2318,18,Jits_Linear_8,2,5,63,98,2366104796
2318,18,Jits_Linear_8,3,5,56,103,2366184900
2318,18,Jits_Linear_8,0,1,48,34,2366798200
2318,18,Jits_Linear_8,1,5,63,98,2366814712
2318,18,Jits_Linear_8,2,5,56,103,2366925080
2318,18,Jits_Linear_8,3,5,80,127,2366928452
2318,18,Jits_Linear_8,0,1,48,33,2367533448
2318,18,Jits_Linear_8,1,5,63,98,2367575648
2318,18,Jits_Linear_8,2,5,56,103,2367584644
2318,18,Jits_Linear_8,3,5,80,127,2367587788
2318,18,Jits_Linear_8,0,1,48,26,2368273700
2318,18,Jits_Linear_8,1,5,56,103,2368295220
2318,18,Jits_Linear_8,2,5,80,127,2368415012
2318,18,Jits_Linear_8,3,5,63,98,2368455048
2318,18,Jits_Linear_8,0,1,48,39,2369033072
2318,18,Jits_Linear_8,1,5,56,103,2369044708
2318,18,Jits_Linear_8,2,5,80,127,2369124660
2318,18,Jits_Linear_8,3,5,63,98,2369145476
2318,18,Jits_Linear_8,0,5,56,103,2369774952
2318,18,Jits_Linear_8,1,1,48,49,2369779192
2318,18,Jits_Linear_8,2,5,63,98,2369884468
2318,18,Jits_Linear_8,3,5,80,127,2369887760
2318,18,Jits_Linear_8,0,1,48,51,2370500576
2318,18,Jits_Linear_8,1,5,56,103,2370534776
2318,18,Jits_Linear_8,2,5,80,127,2370564452
2318,18,Jits_Linear_8,3,5,63,98,2370585136
2318,18,Jits_Linear_8,0,5,63,98,2371245508
2318,18,Jits_Linear_8,1,5,56,103,2371254584
2318,18,Jits_Linear_8,2,1,48,51,2371260392
2318,18,Jits_Linear_8,3,5,80,127,2371264844
2318,18,Jits_Linear_8,0,1,48,39,2371940680
2318,18,Jits_Linear_8,1,5,80,127,2371955320
2318,18,Jits_Linear_8,2,5,56,103,2372005448
2318,18,Jits_Linear_8,3,5,63,98,2372045248
2318,18,Jits_Linear_8,0,1,48,44,2372687620
2318,18,Jits_Linear_8,1,5,80,127,2372695436
2318,18,Jits_Linear_8,2,5,63,98,2372714776
2318,18,Jits_Linear_8,3,5,56,103,2372765204
2318,18,Jits_Linear_8,0,5,80,127,2373424480
2318,18,Jits_Linear_8,1,1,48,31,2373450592
2318,18,Jits_Linear_8,2,5,56,103,2373455344
2318,18,Jits_Linear_8,3,5,63,98,2373524728
2318,18,Jits_Linear_8,0,1,48,34,2374153792
2318,18,Jits_Linear_8,1,5,56,103,2374194424
2318,18,Jits_Linear_8,2,5,80,127,2374204916
2318,18,Jits_Linear_8,3,5,63,98,2374244784
2318,18,Jits_Linear_8,0,5,56,103,2374825292
2318,18,Jits_Linear_8,1,5,63,98,2374844732
2318,18,Jits_Linear_8,2,1,48,29,2374906736
2318,18,Jits_Linear_8,3,5,80,127,2374914480
2318,18,Jits_Linear_8,0,1,48,34,2375497656
2318,18,Jits_Linear_8,1,5,63,98,2375564744
2318,18,Jits_Linear_8,2,5,80,127,2375625220
2318,18,Jits_Linear_8,3,5,56,103,2375644484
2318,18,Jits_Linear_8,0,5,80,127,2376265088
2318,18,Jits_Linear_8,1,1,48,40,2376292876
2318,18,Jits_Linear_8,2,5,56,103,2376294684
2318,18,Jits_Linear_8,3,5,63,98,2376324360
2318,18,Jits_Linear_8,0,5,56,103,2376974728
2318,18,Jits_Linear_8,1,1,48,49,2377013368
2318,18,Jits_Linear_8,2,5,63,98,2377035264
2318,18,Jits_Linear_8,3,5,80,127,2377094532
2318,18,Jits_Linear_8,0,5,80,127,2377705120
2318,18,Jits_Linear_8,1,1,48,40,2377716864
2318,18,Jits_Linear_8,2,5,56,103,2377725276
2318,18,Jits_Linear_8,3,5,63,98,2377795032
2318,18,Jits_Linear_8,0,5,80,127,2378414516
2318,18,Jits_Linear_8,1,5,63,98,2378435076
2318,18,Jits_Linear_8,2,1,48,28,2378458944
2318,18,Jits_Linear_8,3,5,56,103,2378464520
2318,18,Jits_Linear_8,0,5,80,127,2379104600
2318,18,Jits_Linear_8,1,5,63,98,2379125060
2318,18,Jits_Linear_8,2,1,48,21,2379143988
2318,18,Jits_Linear_8,3,1,38,10,2379152344
2318,18,Jits_Linear_8,4,5,56,103,2379184376
2318,18,Jits_Linear_8,0,5,80,127,2379805120
2318,18,Jits_Linear_8,1,1,48,38,2379872064
2318,18,Jits_Linear_8,2,5,56,103,2379905364
2318,18,Jits_Linear_8,3,5,63,98,2379935040
2318,18,Jits_Linear_8,0,5,63,98,2380504428
2318,18,Jits_Linear_8,1,5,80,127,2380554556
2318,18,Jits_Linear_8,2,5,56,103,2380575016
2318,18,Jits_Linear_8,3,1,48,47,2380614472
2318,18,Jits_Linear_8,0,1,48,36,2381191288
2318,18,Jits_Linear_8,1,5,80,127,2381244988
2318,18,Jits_Linear_8,2,5,56,103,2381274516
2318,18,Jits_Linear_8,3,5,63,98,2381277584
2318,18,Jits_Linear_8,0,1,48,49,2381898212
2318,18,Jits_Linear_8,1,5,63,98,2381974888
2318,18,Jits_Linear_8,2,5,56,103,2382015060
2318,18,Jits_Linear_8,3,5,80,127,2382035296
2318,18,Jits_Linear_8,0,5,80,127,2382614852
2318,18,Jits_Linear_8,1,1,48,33,2382618944
2318,18,Jits_Linear_8,2,5,63,98,2382695016
2318,18,Jits_Linear_8,3,5,56,103,2382734940
2318,18,Jits_Linear_8,0,5,63,98,2383324428
2318,18,Jits_Linear_8,1,1,48,35,2383387036
2318,18,Jits_Linear_8,2,5,80,127,2383405564
2318,18,Jits_Linear_8,3,5,56,103,2383424828
2318,18,Jits_Linear_8,0,1,48,41,2384016848
2318,18,Jits_Linear_8,1,5,56,103,2384054808
2318,18,Jits_Linear_8,2,5,63,98,2384065004
2318,18,Jits_Linear_8,3,5,80,127,2384104792
2318,18,Jits_Linear_8,0,5,56,103,2384664992
2318,18,Jits_Linear_8,1,5,80,127,2384668060
2318,18,Jits_Linear_8,2,1,48,40,2384762572
2318,18,Jits_Linear_8,3,5,63,98,2384805164
2318,18,Jits_Linear_8,0,5,56,103,2385344876
2318,18,Jits_Linear_8,1,1,48,43,2385381324
2318,18,Jits_Linear_8,2,5,63,98,2385434932
2318,18,Jits_Linear_8,3,5,80,127,2385504896
2318,18,Jits_Linear_8,0,5,63,98,2386104868
2318,18,Jits_Linear_8,1,5,80,127,2386108160
2318,18,Jits_Linear_8,2,1,48,45,2386158932
2318,18,Jits_Linear_8,3,5,56,103,2386165032
2318,18,Jits_Linear_8,0,5,80,127,2386824812
2318,18,Jits_Linear_8,1,5,56,103,2386844900
2318,18,Jits_Linear_8,2,5,63,98,2386855392
2318,18,Jits_Linear_8,3,1,48,51,2386856504
2318,18,Jits_Linear_8,0,5,56,103,2387415548
2318,18,Jits_Linear_8,1,5,63,98,2387424772
2318,18,Jits_Linear_8,2,5,80,127,2387495280
2318,18,Jits_Linear_8,3,1,48,50,2387562068
2318,18,Jits_Linear_8,0,1,48,41,2388095644
2318,18,Jits_Linear_8,1,5,80,127,2388096984
2318,18,Jits_Linear_8,2,5,56,103,2388144572
2318,18,Jits_Linear_8,3,5,63,98,2388194708
2318,18,Jits_Linear_8,0,5,56,103,2388855104
2318,18,Jits_Linear_8,1,5,63,98,2388865596
2318,18,Jits_Linear_8,2,1,48,44,2388872008
2318,18,Jits_Linear_8,3,5,80,127,2388905304
2318,18,Jits_Linear_8,0,5,56,103,2389474540
2318,18,Jits_Linear_8,1,5,63,98,2389514480
2318,18,Jits_Linear_8,2,5,80,127,2389564756
2318,18,Jits_Linear_8,3,1,48,45,2389566844
2318,18,Jits_Linear_8,0,5,80,127,2390114632
2318,18,Jits_Linear_8,1,1,48,43,2390141420
2318,18,Jits_Linear_8,2,5,56,103,2390164976
2318,18,Jits_Linear_8,3,5,63,98,2390185288
2318,18,Jits_Linear_8,0,5,80,127,2390794532
2318,18,Jits_Linear_8,1,1,48,50,2390797124
2318,18,Jits_Linear_8,2,5,63,98,2390854992
2318,18,Jits_Linear_8,3,5,56,103,2390934848
2318,18,Jits_Linear_8,0,5,80,127,2391444740
2318,18,Jits_Linear_8,1,5,56,103,2391484924
2318,18,Jits_Linear_8,2,1,48,45,2391503492
2318,18,Jits_Linear_8,3,5,63,98,2391505228
2318,18,Jits_Linear_8,0,1,48,44,2392160104
2318,18,Jits_Linear_8,1,5,56,103,2392164712
2318,18,Jits_Linear_8,2,5,80,127,2392175128
2318,18,Jits_Linear_8,3,5,63,98,2392214844
2318,18,Jits_Linear_8,0,1,48,52,2392809348
2318,18,Jits_Linear_8,1,5,56,103,2392894796
2318,18,Jits_Linear_8,2,5,63,98,2392934792
2318,18,Jits_Linear_8,3,5,80,127,2392938084
2318,18,Jits_Linear_8,0,5,63,98,2393444744
2318,18,Jits_Linear_8,1,5,80,127,2393484608
2318,18,Jits_Linear_8,2,1,48,55,2393523396
2318,18,Jits_Linear_8,3,5,56,103,2393555504
2318,18,Jits_Linear_8,0,5,63,98,2394094884
2318,18,Jits_Linear_8,1,1,48,51,2394126924
2318,18,Jits_Linear_8,2,5,56,103,2394174972
2318,18,Jits_Linear_8,3,5,80,127,2394235348
2318,18,Jits_Linear_8,0,5,80,127,2394764556
2318,18,Jits_Linear_8,1,1,48,56,2394774872
2318,18,Jits_Linear_8,2,5,63,98,2394814848
2318,18,Jits_Linear_8,3,5,56,103,2394844600
2318,18,Jits_Linear_8,0,5,56,103,2395414928
2318,18,Jits_Linear_8,1,5,63,98,2395465280
2318,18,Jits_Linear_8,2,5,80,127,2395475400
2318,18,Jits_Linear_8,3,1,48,45,2395478448
2318,18,Jits_Linear_8,0,5,56,103,2396084676
2318,18,Jits_Linear_8,1,1,48,51,2396121652
2318,18,Jits_Linear_8,2,5,63,98,2396195260
2318,18,Jits_Linear_8,3,5,80,127,2396214524
2318,18,Jits_Linear_8,0,5,63,98,2396734812
2318,18,Jits_Linear_8,1,1,48,51,2396762812
2318,18,Jits_Linear_8,2,5,80,127,2396785084
2318,18,Jits_Linear_8,3,5,56,103,2396875224
2318,18,Jits_Linear_8,0,5,63,98,2397374688
2318,18,Jits_Linear_8,1,5,80,127,2397404512
2318,18,Jits_Linear_8,2,1,48,51,2397430404
2318,18,Jits_Linear_8,3,5,56,103,2397494564
2318,18,Jits_Linear_8,0,1,48,19,2397993380
2318,18,Jits_Linear_8,1,1,38,10,2398001812
2318,18,Jits_Linear_8,2,5,63,98,2398025076
2318,18,Jits_Linear_8,3,5,56,103,2398035344
2318,18,Jits_Linear_8,4,5,80,127,2398134600
2318,18,Jits_Linear_8,0,1,48,24,2398639384
2318,18,Jits_Linear_8,1,1,38,12,2398647500
2318,18,Jits_Linear_8,2,5,63,98,2398774628
2318,18,Jits_Linear_8,3,5,80,127,2398805280
2318,18,Jits_Linear_8,4,5,56,103,2398835252
2318,18,Jits_Linear_8,0,1,48,43,2399268968
2318,18,Jits_Linear_8,1,5,80,127,2399435188
2318,18,Jits_Linear_8,2,5,63,98,2399445456
2318,18,Jits_Linear_8,3,5,56,103,2399475432
2318,18,Jits_Linear_8,0,1,48,55,2399904868
2318,18,Jits_Linear_8,1,5,80,127,2399974816
2318,18,Jits_Linear_8,2,5,63,98,2399995276
2318,18,Jits_Linear_8,3,5,56,103,2400045392
2318,18,Jits_Linear_8,0,1,48,46,2400520976
2318,18,Jits_Linear_8,1,5,63,98,2400644400
2318,18,Jits_Linear_8,2,5,80,127,2400705040
2318,18,Jits_Linear_8,3,5,56,103,2400725276
2318,18,Jits_Linear_8,0,1,48,51,2401209784
2318,18,Jits_Linear_8,1,5,63,98,2401244508
2318,18,Jits_Linear_8,2,5,56,103,2401294636
2318,18,Jits_Linear_8,3,5,80,127,2401305040
2318,18,Jits_Linear_8,0,5,56,103,2401915228
2318,18,Jits_Linear_8,1,1,48,50,2401922564
2318,18,Jits_Linear_8,2,5,80,127,2401924372
2318,18,Jits_Linear_8,3,5,63,98,2402025000
2318,18,Jits_Linear_8,0,5,80,127,2402515260
2318,18,Jits_Linear_8,1,5,63,98,2402524560
2318,18,Jits_Linear_8,2,1,48,40,2402574132
2318,18,Jits_Linear_8,3,5,56,103,2402675348
2318,18,Jits_Linear_8,0,5,63,98,2403155272
2318,18,Jits_Linear_8,1,5,80,127,2403195364
2318,18,Jits_Linear_8,2,1,48,41,2403228228
2318,18,Jits_Linear_8,3,5,56,103,2403275176
2318,18,Jits_Linear_8,0,5,56,103,2403774772
2318,18,Jits_Linear_8,1,1,48,54,2403858352
2318,18,Jits_Linear_8,2,5,80,127,2403875316
2318,18,Jits_Linear_8,3,5,63,98,2403894652
2318,18,Jits_Linear_8,0,5,80,127,2404464916
2318,18,Jits_Linear_8,1,5,56,103,2404475336
2318,18,Jits_Linear_8,2,1,48,39,2404492404
2318,18,Jits_Linear_8,3,5,63,98,2404565412
2318,18,Jits_Linear_8,0,5,56,103,2405094848
2318,18,Jits_Linear_8,1,5,63,98,2405115308
2318,18,Jits_Linear_8,2,1,48,37,2405153344
2318,18,Jits_Linear_8,3,5,80,127,2405195244
2318,18,Jits_Linear_8,0,5,63,98,2405665116
2318,18,Jits_Linear_8,1,5,56,103,2405755180
2318,18,Jits_Linear_8,2,5,80,127,2405758248
2318,18,Jits_Linear_8,3,1,48,40,2405768784
2318,18,Jits_Linear_8,0,1,48,38,2406279228
2318,18,Jits_Linear_8,1,5,56,103,2406315368
2318,18,Jits_Linear_8,2,5,80,127,2406375020
2318,18,Jits_Linear_8,3,5,63,98,2406384992
2318,18,Jits_Linear_8,0,1,48,36,2406919628
2318,18,Jits_Linear_8,1,5,80,127,2406984992
2318,18,Jits_Linear_8,2,5,56,103,2406995260
2318,18,Jits_Linear_8,3,5,63,98,2406998404
2318,18,Jits_Linear_8,0,5,56,103,2407564828
2318,18,Jits_Linear_8,1,1,48,38,2407573060
2318,18,Jits_Linear_8,2,5,80,127,2407574872
2318,18,Jits_Linear_8,3,5,63,98,2407595256
2318,18,Jits_Linear_8,0,5,63,98,2408154372
2318,18,Jits_Linear_8,1,1,48,37,2408184316
2318,18,Jits_Linear_8,2,5,80,127,2408214908
2318,18,Jits_Linear_8,3,5,56,103,2408265036
2318,18,Jits_Linear_8,0,1,48,24,2408778980
2318,18,Jits_Linear_8,1,5,63,98,2408854832
2318,18,Jits_Linear_8,2,5,56,103,2408865028
2318,18,Jits_Linear_8,3,5,80,127,2408915312
2318,18,Jits_Linear_8,0,5,63,98,2409364852
2318,18,Jits_Linear_8,1,5,80,127,2409385384
2318,18,Jits_Linear_8,2,5,56,103,2409394684
2318,18,Jits_Linear_8,3,1,48,27,2409486456
2318,18,Jits_Linear_8,0,1,48,25,2409950364
2318,18,Jits_Linear_8,1,5,63,98,2409975116
2318,18,Jits_Linear_8,2,5,80,127,2409978628
2318,18,Jits_Linear_8,3,5,56,103,2410015052
2318,18,Jits_Linear_8,0,1,48,40,2410530856
2318,18,Jits_Linear_8,1,5,63,98,2410655096
2318,18,Jits_Linear_8,2,5,80,127,2410684652
2318,18,Jits_Linear_8,3,5,56,103,2410694996
2318,18,Jits_Linear_8,0,1,48,47,2411212540
2318,18,Jits_Linear_8,1,5,56,103,2411215276
2318,18,Jits_Linear_8,2,5,80,127,2411244880
2318,18,Jits_Linear_8,3,5,63,98,2411274704
2318,18,Jits_Linear_8,0,1,48,43,2411828804
2318,18,Jits_Linear_8,1,5,63,98,2411914548
2318,18,Jits_Linear_8,2,5,56,103,2411954692
2318,18,Jits_Linear_8,3,5,80,127,2411957788
2318,18,Jits_Linear_8,0,5,80,127,2412415496
2318,18,Jits_Linear_8,1,1,48,50,2412472820
2318,18,Jits_Linear_8,2,5,56,103,2412495164
2318,18,Jits_Linear_8,3,5,63,98,2412545736
2318,18,Jits_Linear_8,0,5,80,127,2412994856
2318,18,Jits_Linear_8,1,5,56,103,2413015540
2318,18,Jits_Linear_8,2,1,48,36,2413054772
2318,18,Jits_Linear_8,3,5,63,98,2413104768
2318,18,Jits_Linear_8,0,1,48,40,2413585160
2318,18,Jits_Linear_8,1,5,80,127,2413634936
2318,18,Jits_Linear_8,2,5,63,98,2413674876
2318,18,Jits_Linear_8,3,5,56,103,2413714724
2318,18,Jits_Linear_8,0,5,63,98,2414205268
2318,18,Jits_Linear_8,1,1,48,42,2414216336
2318,18,Jits_Linear_8,2,5,80,127,2414264632
2318,18,Jits_Linear_8,3,5,56,103,2414295428
2318,18,Jits_Linear_8,0,5,56,103,2414805732
2318,18,Jits_Linear_8,1,1,48,43,2414823244
2318,18,Jits_Linear_8,2,5,80,127,2414834956
2318,18,Jits_Linear_8,3,5,63,98,2414925148
2318,18,Jits_Linear_8,0,5,56,103,2415405740
2318,18,Jits_Linear_8,1,1,48,57,2415445576
2318,18,Jits_Linear_8,2,5,80,127,2415515128
2318,18,Jits_Linear_8,3,5,63,98,2415544740
2318,18,Jits_Linear_8,0,5,56,103,2416045616
2318,18,Jits_Linear_8,1,1,48,34,2416061344
2318,18,Jits_Linear_8,2,5,63,98,2416104908
2318,18,Jits_Linear_8,3,5,80,127,2416134656
2318,18,Jits_Linear_8,0,5,56,103,2416604604
2318,18,Jits_Linear_8,1,5,63,98,2416675484
2318,18,Jits_Linear_8,2,1,48,26,2416676672
2318,18,Jits_Linear_8,3,5,80,127,2416694592
2318,18,Jits_Linear_8,0,5,80,127,2417164612
2318,18,Jits_Linear_8,1,5,63,98,2417185292
2318,18,Jits_Linear_8,2,5,56,103,2417235572
2318,18,Jits_Linear_8,3,1,48,21,2417261760
2318,18,Jits_Linear_8,0,1,48,37,2417754252
2318,18,Jits_Linear_8,1,5,63,98,2417764760
2318,18,Jits_Linear_8,2,5,80,127,2417775104
2318,18,Jits_Linear_8,3,5,56,103,2417825084
2318,18,Jits_Linear_8,0,1,48,48,2418268372
2318,18,Jits_Linear_8,1,5,63,98,2418345344
2318,18,Jits_Linear_8,2,5,80,127,2418414896
2318,18,Jits_Linear_8,3,5,56,103,2418434456
2318,18,Jits_Linear_8,0,1,48,39,2418869520
2318,18,Jits_Linear_8,1,5,63,98,2418954660
2318,18,Jits_Linear_8,2,5,80,127,2418958028
2318,18,Jits_Linear_8,3,5,56,103,2419025224
2318,18,Jits_Linear_8,0,5,80,127,2419485276
2318,18,Jits_Linear_8,1,1,48,31,2419502876
2318,18,Jits_Linear_8,2,5,56,103,2419504608
2318,18,Jits_Linear_8,3,5,63,98,2419514728
2318,18,Jits_Linear_8,0,5,56,103,2420085280
2318,18,Jits_Linear_8,1,1,48,37,2420105712
2318,18,Jits_Linear_8,2,5,63,98,2420175208
2318,18,Jits_Linear_8,3,5,80,127,2420178576
2318,18,Jits_Linear_8,0,5,80,127,2420635160
2318,18,Jits_Linear_8,1,5,56,103,2420645204
2318,18,Jits_Linear_8,2,5,63,98,2420664716
2318,18,Jits_Linear_8,3,1,48,38,2420710760
2318,18,Jits_Linear_8,0,5,63,98,2421205444
2318,18,Jits_Linear_8,1,1,48,31,2421231636
2318,18,Jits_Linear_8,2,5,80,127,2421264708
2318,18,Jits_Linear_8,3,5,56,103,2421274980
2318,18,Jits_Linear_8,0,1,48,50,2421768092
2318,18,Jits_Linear_8,1,5,63,98,2421845292
2318,18,Jits_Linear_8,2,5,80,127,2421875176
2318,18,Jits_Linear_8,3,5,56,103,2421915188
2318,18,Jits_Linear_8,0,1,48,40,2422392208
2318,18,Jits_Linear_8,1,5,56,103,2422404460
2318,18,Jits_Linear_8,2,5,80,127,2422414656
2318,18,Jits_Linear_8,3,5,63,98,2422454548
2318,18,Jits_Linear_8,0,5,80,127,2422934856
2318,18,Jits_Linear_8,1,1,48,31,2422980628
2318,18,Jits_Linear_8,2,5,56,103,2423014744
2318,18,Jits_Linear_8,3,5,63,98,2423025092
2318,18,Jits_Linear_8,0,5,80,127,2423545160
2318,18,Jits_Linear_8,1,1,48,40,2423569928
2318,18,Jits_Linear_8,2,5,56,103,2423625252
2318,18,Jits_Linear_8,3,5,63,98,2423635224
2318,18,Jits_Linear_8,0,5,80,127,2424065388
2318,18,Jits_Linear_8,1,5,56,103,2424114620
2318,18,Jits_Linear_8,2,1,48,44,2424121028
2318,18,Jits_Linear_8,3,5,63,98,2424164664
2318,18,Jits_Linear_8,4,1,48,20,2424202836
2318,18,Jits_Linear_8,0,5,56,103,2424685076
2318,18,Jits_Linear_8,1,5,63,98,2424688068
2318,18,Jits_Linear_8,2,1,48,44,2424690888
2318,18,Jits_Linear_8,3,5,80,127,2424734972
2318,18,Jits_Linear_8,0,1,48,34,2425255012
2318,18,Jits_Linear_8,1,5,56,103,2425264400
2318,18,Jits_Linear_8,2,5,63,98,2425295348
2318,18,Jits_Linear_8,3,5,80,127,2425304424
2318,18,Jits_Linear_8,0,5,63,98,2425734612
2318,18,Jits_Linear_8,1,1,48,42,2425802952
2318,18,Jits_Linear_8,2,5,56,103,2425805140
2318,18,Jits_Linear_8,3,5,80,127,2425855264
2318,18,Jits_Linear_8,0,1,48,44,2426303068
2318,18,Jits_Linear_8,1,5,63,98,2426325488
2318,18,Jits_Linear_8,2,5,56,103,2426334560
2318,18,Jits_Linear_8,3,5,80,127,2426337852
2318,18,Jits_Linear_8,0,5,80,127,2426824940
2318,18,Jits_Linear_8,1,1,48,39,2426827912
2318,18,Jits_Linear_8,2,5,56,103,2426884352
2318,18,Jits_Linear_8,3,5,63,98,2426974692
2318,18,Jits_Linear_8,0,5,80,127,2427375124
2318,18,Jits_Linear_8,1,1,48,30,2427408212
2318,18,Jits_Linear_8,2,5,56,103,2427475444
2318,18,Jits_Linear_8,3,5,63,98,2427515368
2318,18,Jits_Linear_8,0,5,56,103,2427974992
2318,18,Jits_Linear_8,1,1,48,38,2427986956
2318,18,Jits_Linear_8,2,5,63,98,2427994400
2318,18,Jits_Linear_8,3,5,80,127,2428034340
2318,18,Jits_Linear_8,0,5,63,98,2428495216
2318,18,Jits_Linear_8,1,5,56,103,2428514700
2318,18,Jits_Linear_8,2,1,48,37,2428555132
2318,18,Jits_Linear_8,3,5,80,127,2428614964
2318,18,Jits_Linear_8,0,5,63,98,2429024708
2318,18,Jits_Linear_8,1,1,48,43,2429041760
2318,18,Jits_Linear_8,2,5,80,127,2429135228
2318,18,Jits_Linear_8,3,5,56,103,2429164904
2318,18,Jits_Linear_8,0,5,56,103,2429585000
2318,18,Jits_Linear_8,1,1,48,38,2429595612
2318,18,Jits_Linear_8,2,5,63,98,2429614376
2318,18,Jits_Linear_8,3,5,80,127,2429664676
2318,18,Jits_Linear_8,0,5,63,98,2430094656
2318,18,Jits_Linear_8,1,5,56,103,2430125304
2318,18,Jits_Linear_8,2,1,48,32,2430165016
2318,18,Jits_Linear_8,3,5,80,127,2430174776
2318,18,Jits_Linear_8,0,5,56,103,2430665004
2318,18,Jits_Linear_8,1,1,48,30,2430671712
2318,18,Jits_Linear_8,2,5,63,98,2430684636
2318,18,Jits_Linear_8,3,5,80,127,2430766660
2318,18,Jits_Linear_8,0,5,63,98,2431174960
2318,18,Jits_Linear_8,1,1,48,45,2431200100
2318,18,Jits_Linear_8,2,5,56,103,2431234524
2318,18,Jits_Linear_8,3,5,80,127,2431265024
2318,18,Jits_Linear_8,4,1,48,19,2431286032
2318,18,Jits_Linear_8,0,1,48,37,2431718252
2318,18,Jits_Linear_8,1,5,56,103,2431754772
2318,18,Jits_Linear_8,2,5,80,127,2431815164
2318,18,Jits_Linear_8,3,5,63,98,2431854864
2318,18,Jits_Linear_8,0,5,63,98,2432264504
2318,18,Jits_Linear_8,1,1,48,29,2432290764
2318,18,Jits_Linear_8,2,5,56,103,2432324964
2318,18,Jits_Linear_8,3,5,80,127,2432394776
2318,18,Jits_Linear_8,0,1,48,38,2432826408
2318,18,Jits_Linear_8,1,5,56,103,2432874836
2318,18,Jits_Linear_8,2,5,63,98,2432885176
2318,18,Jits_Linear_8,3,5,80,127,2432888616
2318,18,Jits_Linear_8,0,5,63,98,2433344840
2318,18,Jits_Linear_8,1,1,48,50,2433388864
2318,18,Jits_Linear_8,2,5,56,103,2433405224
2318,18,Jits_Linear_8,3,5,80,127,2433408440
2318,18,Jits_Linear_8,0,5,63,98,2433854772
2318,18,Jits_Linear_8,1,5,80,127,2433884820
2318,18,Jits_Linear_8,2,5,56,103,2433905056
2318,18,Jits_Linear_8,3,1,48,31,2433920236
2318,18,Jits_Linear_8,0,5,56,103,2434385384
2318,18,Jits_Linear_8,1,1,48,56,2434429484
2318,18,Jits_Linear_8,2,5,63,98,2434434536
2318,18,Jits_Linear_8,3,5,80,127,2434515404
2318,18,Jits_Linear_8,0,5,80,127,2434884932
2318,18,Jits_Linear_8,1,5,63,98,2434924872
2318,18,Jits_Linear_8,2,1,48,36,2434936384
2318,18,Jits_Linear_8,3,5,56,103,2434945548
2318,18,Jits_Linear_8,0,1,48,57,2435426320
2318,18,Jits_Linear_8,1,5,56,103,2435474672
2318,18,Jits_Linear_8,2,5,80,127,2435485164
2318,18,Jits_Linear_8,3,5,63,98,2435504728
2318,18,Jits_Linear_8,4,1,48,19,2435521636
2318,18,Jits_Linear_8,0,5,56,103,2435974556
2318,18,Jits_Linear_8,1,5,63,98,2436024560
2318,18,Jits_Linear_8,2,1,48,40,2436026576
2318,18,Jits_Linear_8,3,5,80,127,2436055572
2318,18,Jits_Linear_8,0,5,56,103,2436444804
2318,18,Jits_Linear_8,1,5,63,98,2436454704
2318,18,Jits_Linear_8,2,5,80,127,2436505052
2318,18,Jits_Linear_8,3,1,48,49,2436525480
2318,18,Jits_Linear_8,0,5,56,103,2436954452
2318,18,Jits_Linear_8,1,5,80,127,2436957520
2318,18,Jits_Linear_8,2,1,48,47,2437004328
2318,18,Jits_Linear_8,3,5,63,98,2437115380
2318,18,Jits_Linear_8,0,5,63,98,2437484856
2318,18,Jits_Linear_8,1,1,48,46,2437523192
2318,18,Jits_Linear_8,2,5,56,103,2437554484
2318,18,Jits_Linear_8,3,5,80,127,2437594420
2318,18,Jits_Linear_8,4,1,48,22,2437597972
2318,18,Jits_Linear_8,0,1,48,40,2438022320
2318,18,Jits_Linear_8,1,5,63,98,2438034924
2318,18,Jits_Linear_8,2,5,56,103,2438124992
2318,18,Jits_Linear_8,3,5,80,127,2438128208
2318,18,Jits_Linear_8,0,5,56,103,2438525684
2318,18,Jits_Linear_8,1,1,48,47,2438574220
2318,18,Jits_Linear_8,2,5,63,98,2438615620
2318,18,Jits_Linear_8,3,5,80,127,2438624620
2318,18,Jits_Linear_8,0,5,56,103,2439004708
2318,18,Jits_Linear_8,1,5,63,98,2439054612
2318,18,Jits_Linear_8,2,1,48,50,2439066124
2318,18,Jits_Linear_8,3,5,80,127,2439085624
2318,18,Jits_Linear_8,0,5,63,98,2439585240
2318,18,Jits_Linear_8,1,1,48,45,2439595364
2318,18,Jits_Linear_8,2,5,80,127,2439597000
2318,18,Jits_Linear_8,3,5,56,103,2439654872
2318,18,Jits_Linear_8,0,5,63,98,2440004984
2318,18,Jits_Linear_8,1,5,80,127,2440065672
2318,18,Jits_Linear_8,2,5,56,103,2440105536
2318,18,Jits_Linear_8,3,1,48,46,2440132420
2318,18,Jits_Linear_8,0,5,56,103,2440605052
2318,18,Jits_Linear_8,1,5,80,127,2440624616
2318,18,Jits_Linear_8,2,5,63,98,2440645100
2318,18,Jits_Linear_8,3,1,48,20,2440672576
2318,18,Jits_Linear_8,0,5,63,98,2441024736
2318,18,Jits_Linear_8,1,5,56,103,2441045496
2318,18,Jits_Linear_8,2,5,80,127,2441085284
2318,18,Jits_Linear_8,3,1,48,36,2441151200
2318,18,Jits_Linear_8,0,5,63,98,2441534752
2318,18,Jits_Linear_8,1,5,80,127,2441564504
2318,18,Jits_Linear_8,2,1,48,24,2441580276
2318,18,Jits_Linear_8,3,5,56,103,2441585028
2318,18,Jits_Linear_8,0,1,48,48,2442004536
2318,18,Jits_Linear_8,1,5,80,127,2442006248
2318,18,Jits_Linear_8,2,5,56,103,2442054956
2318,18,Jits_Linear_8,3,5,63,98,2442114360
2318,18,Jits_Linear_8,0,5,63,98,2442485032
2318,18,Jits_Linear_8,1,1,48,38,2442539916
2318,18,Jits_Linear_8,2,5,56,103,2442605200
2318,18,Jits_Linear_8,3,5,80,127,2442634564
2318,18,Jits_Linear_8,0,1,48,48,2442934560
2318,18,Jits_Linear_8,1,5,80,127,2443014528
2318,18,Jits_Linear_8,2,5,63,98,2443034972
2318,18,Jits_Linear_8,3,5,56,103,2443104576
2318,18,Jits_Linear_8,0,1,48,33,2443485708
2318,18,Jits_Linear_8,1,5,63,98,2443524472
2318,18,Jits_Linear_8,2,5,56,103,2443534744
2318,18,Jits_Linear_8,3,5,80,127,2443614524
2318,18,Jits_Linear_8,0,1,48,48,2443997980
2318,18,Jits_Linear_8,1,5,56,103,2444075476
2318,18,Jits_Linear_8,2,5,80,127,2444105216
2318,18,Jits_Linear_8,3,5,63,98,2444115560
2318,18,Jits_Linear_8,0,9999,9999,9999,2333722740
2318,18,Jits_Linear_8,1,9999,9999,9999,2334542976
2318,18,Jits_Linear_8,2,9999,9999,9999,2335362148
2318,18,Jits_Linear_8,3,9999,9999,9999,2336182368
2318,18,Jits_Linear_8,4,9999,9999,9999,2337002604
2318,18,Jits_Linear_8,5,9999,9999,9999,2337812548
2318,18,Jits_Linear_8,6,9999,9999,9999,2338622564
2318,18,Jits_Linear_8,7,9999,9999,9999,2339432524
2318,18,Jits_Linear_8,8,9999,9999,9999,2340242548
2318,18,Jits_Linear_8,9,9999,9999,9999,2341052504
2318,18,Jits_Linear_8,10,9999,9999,9999,2341852284
2318,18,Jits_Linear_8,11,9999,9999,9999,2342653008
2318,18,Jits_Linear_8,12,9999,9999,9999,2343452768
2318,18,Jits_Linear_8,13,9999,9999,9999,2344252536
2318,18,Jits_Linear_8,14,9999,9999,9999,2345052252
2318,18,Jits_Linear_8,15,9999,9999,9999,2345842780
2318,18,Jits_Linear_8,16,9999,9999,9999,2346632256
2318,18,Jits_Linear_8,17,9999,9999,9999,2347422800
2318,18,Jits_Linear_8,18,9999,9999,9999,2348212300
2318,18,Jits_Linear_8,19,9999,9999,9999,2349002860
2318,18,Jits_Linear_8,20,9999,9999,9999,2349782088
2318,18,Jits_Linear_8,21,9999,9999,9999,2350562360
2318,18,Jits_Linear_8,22,9999,9999,9999,2351342716
2318,18,Jits_Linear_8,23,9999,9999,9999,2352123004
2318,18,Jits_Linear_8,24,9999,9999,9999,2352902232
2318,18,Jits_Linear_8,25,9999,9999,9999,2353672320
2318,18,Jits_Linear_8,26,9999,9999,9999,2354442332
2318,18,Jits_Linear_8,27,9999,9999,9999,2355212344
2318,18,Jits_Linear_8,28,9999,9999,9999,2355982444
2318,18,Jits_Linear_8,29,9999,9999,9999,2356752464
2318,18,Jits_Linear_8,30,9999,9999,9999,2357512284
2318,18,Jits_Linear_8,31,9999,9999,9999,2358272108
2318,18,Jits_Linear_8,32,9999,9999,9999,2359032904
2318,18,Jits_Linear_8,33,9999,9999,9999,2359792720
2318,18,Jits_Linear_8,34,9999,9999,9999,2360552540
2318,18,Jits_Linear_8,35,9999,9999,9999,2361302104
2318,18,Jits_Linear_8,36,9999,9999,9999,2362052716
2318,18,Jits_Linear_8,37,9999,9999,9999,2362802268
2318,18,Jits_Linear_8,38,9999,9999,9999,2363552876
2318,18,Jits_Linear_8,39,9999,9999,9999,2364302452
2318,18,Jits_Linear_8,40,9999,9999,9999,2365042800
2318,18,Jits_Linear_8,41,9999,9999,9999,2365782112
2318,18,Jits_Linear_8,42,9999,9999,9999,2366522456
2318,18,Jits_Linear_8,43,9999,9999,9999,2367262788
2318,18,Jits_Linear_8,44,9999,9999,9999,2368002144
2318,18,Jits_Linear_8,45,9999,9999,9999,2368732224
2318,18,Jits_Linear_8,46,9999,9999,9999,2369462356
2318,18,Jits_Linear_8,47,9999,9999,9999,2370192504
2318,18,Jits_Linear_8,48,9999,9999,9999,2370922600
2318,18,Jits_Linear_8,49,9999,9999,9999,2371652724
2318,18,Jits_Linear_8,50,9999,9999,9999,2372372540
2318,18,Jits_Linear_8,51,9999,9999,9999,2373092428
2318,18,Jits_Linear_8,52,9999,9999,9999,2373812300
2318,18,Jits_Linear_8,53,9999,9999,9999,2374532208
2318,18,Jits_Linear_8,54,9999,9999,9999,2375253068
2318,18,Jits_Linear_8,55,9999,9999,9999,2375962708
2318,18,Jits_Linear_8,56,9999,9999,9999,2376672336
2318,18,Jits_Linear_8,57,9999,9999,9999,2377383000
2318,18,Jits_Linear_8,58,9999,9999,9999,2378092640
2318,18,Jits_Linear_8,59,9999,9999,9999,2378802280
2318,18,Jits_Linear_8,60,9999,9999,9999,2379502656
2318,18,Jits_Linear_8,61,9999,9999,9999,2380203132
2318,18,Jits_Linear_8,62,9999,9999,9999,2380912700
2318,18,Jits_Linear_8,63,9999,9999,9999,2381612128
2318,18,Jits_Linear_8,64,9999,9999,9999,2382312544
2318,18,Jits_Linear_8,65,9999,9999,9999,2383002748
2318,18,Jits_Linear_8,66,9999,9999,9999,2383692916
2318,18,Jits_Linear_8,67,9999,9999,9999,2384383072
2318,18,Jits_Linear_8,68,9999,9999,9999,2385072208
2318,18,Jits_Linear_8,69,9999,9999,9999,2385762368
2318,18,Jits_Linear_8,70,9999,9999,9999,2386442340
2318,18,Jits_Linear_8,71,9999,9999,9999,2387122280
2318,18,Jits_Linear_8,72,9999,9999,9999,2387802172
2318,18,Jits_Linear_8,73,9999,9999,9999,2388482144
2318,18,Jits_Linear_8,74,9999,9999,9999,2389163132
2318,18,Jits_Linear_8,75,9999,9999,9999,2389843032
2318,18,Jits_Linear_8,76,9999,9999,9999,2390512740
2318,18,Jits_Linear_8,77,9999,9999,9999,2391182428
2318,18,Jits_Linear_8,78,9999,9999,9999,2391852132
2318,18,Jits_Linear_8,79,9999,9999,9999,2392522816
2318,18,Jits_Linear_8,80,9999,9999,9999,2393182300
2318,18,Jits_Linear_8,81,9999,9999,9999,2393842776
2318,18,Jits_Linear_8,82,9999,9999,9999,2394502260
2318,18,Jits_Linear_8,83,9999,9999,9999,2395162732
2318,18,Jits_Linear_8,84,9999,9999,9999,2395822148
2318,18,Jits_Linear_8,85,9999,9999,9999,2396472428
2318,18,Jits_Linear_8,86,9999,9999,9999,2397122656
2318,18,Jits_Linear_8,87,9999,9999,9999,2397772920
2318,18,Jits_Linear_8,88,9999,9999,9999,2398422112
2318,18,Jits_Linear_8,89,9999,9999,9999,2399072344
2318,18,Jits_Linear_8,90,9999,9999,9999,2399712380
2318,18,Jits_Linear_8,91,9999,9999,9999,2400352380
2318,18,Jits_Linear_8,92,9999,9999,9999,2400992336
2318,18,Jits_Linear_8,93,9999,9999,9999,2401632332
2318,18,Jits_Linear_8,94,9999,9999,9999,2402272360
2318,18,Jits_Linear_8,95,9999,9999,9999,2402902108
2318,18,Jits_Linear_8,96,9999,9999,9999,2403532856
2318,18,Jits_Linear_8,97,9999,9999,9999,2404162672
2318,18,Jits_Linear_8,98,9999,9999,9999,2404792380
2318,18,Jits_Linear_8,99,9999,9999,9999,2405422136
2318,18,Jits_Linear_8,100,9999,9999,9999,2406042740
2318,18,Jits_Linear_8,101,9999,9999,9999,2406662240
2318,18,Jits_Linear_8,102,9999,9999,9999,2407282756
2318,18,Jits_Linear_8,103,9999,9999,9999,2407902328
2318,18,Jits_Linear_8,104,9999,9999,9999,2408522864
2318,18,Jits_Linear_8,105,9999,9999,9999,2409132156
2318,18,Jits_Linear_8,106,9999,9999,9999,2409742428
2318,18,Jits_Linear_8,107,9999,9999,9999,2410352740
2318,18,Jits_Linear_8,108,9999,9999,9999,2410963028
2318,18,Jits_Linear_8,109,9999,9999,9999,2411572312
2318,18,Jits_Linear_8,110,9999,9999,9999,2412172388
2318,18,Jits_Linear_8,111,9999,9999,9999,2412772408
2318,18,Jits_Linear_8,112,9999,9999,9999,2413372488
2318,18,Jits_Linear_8,113,9999,9999,9999,2413972568
2318,18,Jits_Linear_8,114,9999,9999,9999,2414572660
2318,18,Jits_Linear_8,115,9999,9999,9999,2415162464
2318,18,Jits_Linear_8,116,9999,9999,9999,2415752292
2318,18,Jits_Linear_8,117,9999,9999,9999,2416342072
2318,18,Jits_Linear_8,118,9999,9999,9999,2416932944
2318,18,Jits_Linear_8,119,9999,9999,9999,2417522760
2318,18,Jits_Linear_8,120,9999,9999,9999,2418102340
2318,18,Jits_Linear_8,121,9999,9999,9999,2418682932
2318,18,Jits_Linear_8,122,9999,9999,9999,2419262544
2318,18,Jits_Linear_8,123,9999,9999,9999,2419842156
2318,18,Jits_Linear_8,124,9999,9999,9999,2420422776
2318,18,Jits_Linear_8,125,9999,9999,9999,2420992064
2318,18,Jits_Linear_8,126,9999,9999,9999,2421562472
2318,18,Jits_Linear_8,127,9999,9999,9999,2422132808
2318,18,Jits_Linear_8,128,9999,9999,9999,2422702160
2318,18,Jits_Linear_8,129,9999,9999,9999,2423272512
2318,18,Jits_Linear_8,130,9999,9999,9999,2423832672
2318,18,Jits_Linear_8,131,9999,9999,9999,2424392804
2318,18,Jits_Linear_8,132,9999,9999,9999,2424952948
2318,18,Jits_Linear_8,133,9999,9999,9999,2425513080
2318,18,Jits_Linear_8,134,9999,9999,9999,2426072120
2318,18,Jits_Linear_8,135,9999,9999,9999,2426623028
2318,18,Jits_Linear_8,136,9999,9999,9999,2427172980
2318,18,Jits_Linear_8,137,9999,9999,9999,2427722872
2318,18,Jits_Linear_8,138,9999,9999,9999,2428272764
2318,18,Jits_Linear_8,139,9999,9999,9999,2428822652
2318,18,Jits_Linear_8,140,9999,9999,9999,2429362292
2318,18,Jits_Linear_8,141,9999,9999,9999,2429902952
2318,18,Jits_Linear_8,142,9999,9999,9999,2430442572
2318,18,Jits_Linear_8,143,9999,9999,9999,2430982256
2318,18,Jits_Linear_8,144,9999,9999,9999,2431522904
2318,18,Jits_Linear_8,145,9999,9999,9999,2432052328
2318,18,Jits_Linear_8,146,9999,9999,9999,2432582728
2318,18,Jits_Linear_8,147,9999,9999,9999,2433112144
2318,18,Jits_Linear_8,148,9999,9999,9999,2433642604
2318,18,Jits_Linear_8,149,9999,9999,9999,2434172992
2318,18,Jits_Linear_8,150,9999,9999,9999,2434692156
2318,18,Jits_Linear_8,151,9999,9999,9999,2435212372
2318,18,Jits_Linear_8,152,9999,9999,9999,2435732572
2318,18,Jits_Linear_8,153,9999,9999,9999,2436252776
2318,18,Jits_Linear_8,154,9999,9999,9999,2436772988
2318,18,Jits_Linear_8,155,9999,9999,9999,2437282932
2318,18,Jits_Linear_8,156,9999,9999,9999,2437792872
2318,18,Jits_Linear_8,157,9999,9999,9999,2438302804
2318,18,Jits_Linear_8,158,9999,9999,9999,2438812756
2318,18,Jits_Linear_8,159,9999,9999,9999,2439322708
2318,18,Jits_Linear_8,160,9999,9999,9999,2439822408
2318,18,Jits_Linear_8,161,9999,9999,9999,2440322160
2318,18,Jits_Linear_8,162,9999,9999,9999,2440822892
2318,18,Jits_Linear_8,163,9999,9999,9999,2441322584
2318,18,Jits_Linear_8,164,9999,9999,9999,2441822336
2318,18,Jits_Linear_8,165,9999,9999,9999,2442312796
2318,18,Jits_Linear_8,166,9999,9999,9999,2442802288
2318,18,Jits_Linear_8,167,9999,9999,9999,2443292752
2318,18,Jits_Linear_8,168,9999,9999,9999,2443782248
2318,18,Jits_Linear_8,169,9999,9999,9999,2444272724
2319,5,ISIP_5,0,5,42,127,2518122964
2319,5,ISIP_5,1,5,42,127,2518622756
2319,5,ISIP_5,2,1,48,19,2519088252
2319,5,ISIP_5,3,5,42,127,2519123288
2319,5,ISIP_5,4,1,48,40,2519588392
2319,5,ISIP_5,5,5,42,127,2519622984
2319,5,ISIP_5,6,1,48,43,2520098936
2319,5,ISIP_5,7,5,42,127,2520122756
2319,5,ISIP_5,8,1,48,46,2520600420
2319,5,ISIP_5,9,5,42,127,2520622524
2319,5,ISIP_5,10,1,48,39,2521099596
2319,5,ISIP_5,11,5,42,127,2521123116
2319,5,ISIP_5,12,1,48,49,2521583208
2319,5,ISIP_5,13,5,42,127,2521622888
2319,5,ISIP_5,14,1,48,45,2522090156
2319,5,ISIP_5,15,5,42,127,2522122804
2319,5,ISIP_5,16,1,48,43,2522598304
2319,5,ISIP_5,17,5,42,127,2522623324
2319,5,ISIP_5,18,1,48,39,2523091788
2319,5,ISIP_5,19,5,42,127,2523122944
2319,5,ISIP_5,20,1,48,45,2523589020
2319,5,ISIP_5,21,5,42,127,2523622864
2319,5,ISIP_5,22,1,48,45,2524098068
2319,5,ISIP_5,23,5,42,127,2524122560
2319,5,ISIP_5,24,1,48,48,2524608232
2319,5,ISIP_5,25,5,42,127,2524623152
2319,5,ISIP_5,26,1,48,42,2525092120
2319,5,ISIP_5,27,5,42,127,2525122772
2319,5,ISIP_5,28,1,48,52,2525602212
2319,5,ISIP_5,29,5,42,127,2525622764
2319,5,ISIP_5,30,1,48,57,2526112152
2319,5,ISIP_5,31,5,42,127,2526123580
2319,5,ISIP_5,32,1,48,58,2526590456
2319,5,ISIP_5,33,5,42,127,2526623104
2319,5,ISIP_5,34,1,48,54,2527071676
2319,5,ISIP_5,35,5,42,127,2527122648
2319,5,ISIP_5,36,1,48,47,2527582220
2319,5,ISIP_5,37,5,42,127,2527622416
2319,5,ISIP_5,38,1,48,54,2528095304
2319,5,ISIP_5,39,5,42,127,2528123384
2319,5,ISIP_5,40,1,48,54,2528582056
2319,5,ISIP_5,41,5,42,127,2528622928
2319,5,ISIP_5,42,1,48,49,2529076292
2319,5,ISIP_5,43,5,42,127,2529122624
2319,5,ISIP_5,44,1,48,59,2529586308
2319,5,ISIP_5,45,5,42,127,2529623292
2319,5,ISIP_5,46,1,48,51,2530097144
2319,5,ISIP_5,47,5,42,127,2530123356
2319,5,ISIP_5,48,1,48,54,2530585320
2319,5,ISIP_5,49,5,42,127,2530622756
2319,5,ISIP_5,50,1,48,51,2531091524
2319,5,ISIP_5,51,5,42,127,2531122600
2319,5,ISIP_5,52,1,48,57,2531592640
2319,5,ISIP_5,53,5,42,127,2531623412
2319,5,ISIP_5,54,1,48,48,2532113276
2319,5,ISIP_5,55,5,42,127,2532122960
2319,5,ISIP_5,56,1,48,51,2532609828
2319,5,ISIP_5,57,5,42,127,2532622580
2319,5,ISIP_5,58,5,42,127,2533122356
2319,5,ISIP_5,59,1,48,48,2533130712
2319,5,ISIP_5,60,5,42,127,2533623396
2319,5,ISIP_5,61,1,48,57,2533634968
2319,5,ISIP_5,62,5,42,127,2534122720
2319,5,ISIP_5,63,1,48,47,2534123684
2319,5,ISIP_5,64,5,42,127,2534622564
2319,5,ISIP_5,65,1,48,47,2534625232
2319,5,ISIP_5,66,1,48,50,2535110324
2319,5,ISIP_5,67,5,42,127,2535123372
2319,5,ISIP_5,68,1,48,47,2535590844
2319,5,ISIP_5,69,5,42,127,2535622992
2319,5,ISIP_5,70,5,42,127,2536122768
2319,5,ISIP_5,71,1,48,60,2536126036
2319,5,ISIP_5,72,1,48,43,2536616340
2319,5,ISIP_5,73,5,42,127,2536622384
2319,5,ISIP_5,74,1,48,31,2537117008
2319,5,ISIP_5,75,5,42,127,2537123248
2319,5,ISIP_5,76,1,48,43,2537572868
2319,5,ISIP_5,77,5,42,127,2537623168
2319,5,ISIP_5,78,1,48,50,2538079968
2319,5,ISIP_5,79,1,48,46,2538639368
2319,5,ISIP_5,80,1,48,43,2539128284
2319,5,ISIP_5,81,1,48,48,2539621912
2319,5,ISIP_5,82,1,48,44,2540126468
2319,5,ISIP_5,83,1,48,46,2540617168
2319,5,ISIP_5,84,1,48,43,2541103764
2319,5,ISIP_5,85,1,48,46,2541597472
2319,5,ISIP_5,86,1,48,49,2542083104
2319,5,ISIP_5,87,1,48,40,2542577708
2319,5,ISIP_5,88,1,48,36,2543079788
2319,5,ISIP_5,89,1,48,42,2543589128
2319,5,ISIP_5,90,1,48,43,2544078720
2319,5,ISIP_5,91,1,48,35,2544563076
2319,5,ISIP_5,92,1,48,46,2545047484
2319,5,ISIP_5,93,1,48,43,2545535284
2319,5,ISIP_5,94,1,48,40,2546031532
2319,5,ISIP_5,95,1,48,41,2546542068
2319,5,ISIP_5,96,1,48,47,2547040264
2319,5,ISIP_5,97,1,48,40,2547536808
2319,5,ISIP_5,98,1,48,35,2548003892
2319,5,ISIP_5,99,1,48,43,2548478004
2319,5,ISIP_5,100,1,48,46,2548960412
2319,5,ISIP_5,101,1,48,48,2549452692
2319,5,ISIP_5,102,1,48,46,2549952764
2319,5,ISIP_5,103,1,48,49,2550471448
2319,5,ISIP_5,104,1,48,49,2550966128
2319,5,ISIP_5,105,1,48,49,2551468812
2319,5,ISIP_5,106,1,48,46,2551948208
2319,5,ISIP_5,107,1,48,47,2552443484
2319,5,ISIP_5,108,1,48,44,2552930684
2319,5,ISIP_5,109,1,48,52,2553416680
2319,5,ISIP_5,110,1,48,54,2553907628
2319,5,ISIP_5,111,1,48,38,2554393476
2319,5,ISIP_5,112,1,48,47,2554881052
2319,5,ISIP_5,113,1,48,48,2555345880
2319,5,ISIP_5,114,1,48,41,2555824632
2319,5,ISIP_5,115,1,48,44,2556313152
2319,5,ISIP_5,116,1,48,54,2556802372
2319,5,ISIP_5,117,1,48,32,2557279548
2319,5,ISIP_5,118,1,48,49,2557760540
2319,5,ISIP_5,119,1,48,52,2558231880
2319,5,ISIP_5,120,1,48,36,2558721620
2319,5,ISIP_5,121,1,48,43,2559207028
2319,5,ISIP_5,122,1,48,37,2559697072
2319,5,ISIP_5,123,1,48,41,2560164872
2319,5,ISIP_5,124,1,48,39,2560655732
2319,5,ISIP_5,125,1,48,45,2561147052
2319,5,ISIP_5,126,1,48,21,2561233216
2319,5,ISIP_5,127,1,48,45,2561654640
2319,5,ISIP_5,128,1,48,39,2562153664
2319,5,ISIP_5,129,1,48,46,2562623956
2319,5,ISIP_5,130,1,48,38,2563110392
2319,5,ISIP_5,131,1,48,50,2563596472
2319,5,ISIP_5,132,1,48,46,2564101844
2319,5,ISIP_5,133,1,48,43,2564595548
2319,5,ISIP_5,134,1,48,47,2565077812
2319,5,ISIP_5,135,1,48,51,2565544144
2319,5,ISIP_5,136,1,48,45,2566041792
2319,5,ISIP_5,137,1,48,52,2566555612
2319,5,ISIP_5,138,1,48,47,2567013424
2319,5,ISIP_5,139,1,48,43,2567519396
2319,5,ISIP_5,140,1,48,44,2568002552
2319,5,ISIP_5,141,1,48,46,2568468136
2319,5,ISIP_5,142,1,48,44,2568939780
2319,5,ISIP_5,143,1,48,46,2569435128
2319,5,ISIP_5,144,1,48,46,2569928388
2319,5,ISIP_5,145,1,48,38,2570421944
2319,5,ISIP_5,146,1,48,48,2570913984
2319,5,ISIP_5,147,1,48,51,2571385100
2319,5,ISIP_5,148,1,48,49,2571850676
2319,5,ISIP_5,149,1,48,47,2572349172
2319,5,ISIP_5,150,1,48,51,2572826496
2319,5,ISIP_5,151,1,48,50,2573327468
2319,5,ISIP_5,152,1,48,59,2573816908
2319,5,ISIP_5,153,1,48,38,2574295132
2319,5,ISIP_5,154,1,48,44,2574823316
2319,5,ISIP_5,155,1,48,36,2575299900
2319,5,ISIP_5,156,1,48,57,2575773312
2319,5,ISIP_5,157,1,48,53,2576235680
2319,5,ISIP_5,158,1,48,40,2576729608
2319,5,ISIP_5,159,1,48,30,2577215612
2319,5,ISIP_5,160,1,48,34,2577708420
2319,5,ISIP_5,161,1,48,39,2578183352
2319,5,ISIP_5,162,1,48,51,2578677208
2319,5,ISIP_5,163,1,48,53,2579147500
2319,5,ISIP_5,164,1,48,61,2579606460
2319,5,ISIP_5,165,1,48,51,2580110424
2319,5,ISIP_5,166,1,48,46,2580576972
2319,5,ISIP_5,167,1,48,56,2581079880
2319,5,ISIP_5,168,1,48,54,2581552716
2319,5,ISIP_5,169,1,48,46,2582037528
2319,5,ISIP_5,170,1,48,54,2582521208
2319,5,ISIP_5,171,1,48,60,2583008032
2319,5,ISIP_5,172,1,48,46,2583491268
2319,5,ISIP_5,173,1,48,53,2583973208
2319,5,ISIP_5,174,1,48,31,2584471396
2319,5,ISIP_5,175,1,48,44,2584962712
2319,5,ISIP_5,176,1,48,49,2585430836
2319,5,ISIP_5,177,1,48,56,2585926944
2319,5,ISIP_5,178,1,48,47,2586392148
2319,5,ISIP_5,179,1,48,57,2586888552
2319,5,ISIP_5,180,1,48,55,2587357052
2319,5,ISIP_5,181,1,48,48,2587850084
2319,5,ISIP_5,182,1,48,61,2588347460
2319,5,ISIP_5,183,1,48,63,2588822140
2319,5,ISIP_5,184,1,48,56,2589299016
2319,5,ISIP_5,185,1,48,43,2589816580
2319,5,ISIP_5,186,1,48,49,2590308644
2319,5,ISIP_5,187,1,48,46,2590790688
2319,5,ISIP_5,188,1,48,40,2591301416
2319,5,ISIP_5,189,1,48,41,2591763336
2319,5,ISIP_5,190,1,48,41,2592257864
2319,5,ISIP_5,191,1,48,51,2592761740
2319,5,ISIP_5,192,1,48,44,2593262712
2319,5,ISIP_5,193,1,48,40,2593795236
2319,5,ISIP_5,194,1,48,46,2594290740
2319,5,ISIP_5,195,1,48,59,2594768884
2319,5,ISIP_5,196,1,48,31,2595239852
2319,5,ISIP_5,197,1,48,42,2595720672
2319,5,ISIP_5,198,1,48,50,2596188352
2319,5,ISIP_5,199,1,48,43,2596692004
2319,5,ISIP_5,200,1,48,54,2597174420
2319,5,ISIP_5,201,1,48,54,2597639848
2319,5,ISIP_5,0,9999,9999,9999,2518120528
2319,5,ISIP_5,1,9999,9999,9999,2518620248
2319,5,ISIP_5,2,9999,9999,9999,2519121000
2319,5,ISIP_5,3,9999,9999,9999,2519620696
2319,5,ISIP_5,4,9999,9999,9999,2520120392
2319,5,ISIP_5,5,9999,9999,9999,2520620088
2319,5,ISIP_5,6,9999,9999,9999,2521120828
2319,5,ISIP_5,7,9999,9999,9999,2521620600
2319,5,ISIP_5,8,9999,9999,9999,2522120292
2319,5,ISIP_5,9,9999,9999,9999,2522621036
2319,5,ISIP_5,10,9999,9999,9999,2523120732
2319,5,ISIP_5,11,9999,9999,9999,2523620428
2319,5,ISIP_5,12,9999,9999,9999,2524120124
2319,5,ISIP_5,13,9999,9999,9999,2524620864
2319,5,ISIP_5,14,9999,9999,9999,2525120560
2319,5,ISIP_5,15,9999,9999,9999,2525620328
2319,5,ISIP_5,16,9999,9999,9999,2526121044
2319,5,ISIP_5,17,9999,9999,9999,2526620740
2319,5,ISIP_5,18,9999,9999,9999,2527120436
2319,5,ISIP_5,19,9999,9999,9999,2527620204
2319,5,ISIP_5,20,9999,9999,9999,2528120948
2319,5,ISIP_5,21,9999,9999,9999,2528620640
2319,5,ISIP_5,22,9999,9999,9999,2529120336
2319,5,ISIP_5,23,9999,9999,9999,2529621080
2319,5,ISIP_5,24,9999,9999,9999,2530120772
2319,5,ISIP_5,25,9999,9999,9999,2530620468
2319,5,ISIP_5,26,9999,9999,9999,2531120236
2319,5,ISIP_5,27,9999,9999,9999,2531620976
2319,5,ISIP_5,28,9999,9999,9999,2532120672
2319,5,ISIP_5,29,9999,9999,9999,2532620368
2319,5,ISIP_5,30,9999,9999,9999,2533120068
2319,5,ISIP_5,31,9999,9999,9999,2533620812
2319,5,ISIP_5,32,9999,9999,9999,2534120508
2319,5,ISIP_5,33,9999,9999,9999,2534620276
2319,5,ISIP_5,34,9999,9999,9999,2535121012
2319,5,ISIP_5,35,9999,9999,9999,2535620708
2319,5,ISIP_5,36,9999,9999,9999,2536120408
2319,5,ISIP_5,37,9999,9999,9999,2536620096
2319,5,ISIP_5,38,9999,9999,9999,2537120884
2319,5,ISIP_5,39,9999,9999,9999,2537620580
2319,5,ISIP_5,40,9999,9999,9999,2538120276
2319,5,ISIP_5,41,9999,9999,9999,2538621020
2319,5,ISIP_5,42,9999,9999,9999,2539120712
2319,5,ISIP_5,43,9999,9999,9999,2539620400
2319,5,ISIP_5,44,9999,9999,9999,2540120164
2319,5,ISIP_5,45,9999,9999,9999,2540620896
2319,5,ISIP_5,46,9999,9999,9999,2541120588
2319,5,ISIP_5,47,9999,9999,9999,2541620280
2319,5,ISIP_5,48,9999,9999,9999,2542121016
2319,5,ISIP_5,49,9999,9999,9999,2542620780
2319,5,ISIP_5,50,9999,9999,9999,2543120468
2319,5,ISIP_5,51,9999,9999,9999,2543620160
2319,5,ISIP_5,52,9999,9999,9999,2544120900
2319,5,ISIP_5,53,9999,9999,9999,2544620664
2319,5,ISIP_5,54,9999,9999,9999,2545120356
2319,5,ISIP_5,55,9999,9999,9999,2545621092
2319,5,ISIP_5,56,9999,9999,9999,2546120784
2319,5,ISIP_5,57,9999,9999,9999,2546620472
2319,5,ISIP_5,58,9999,9999,9999,2547120236
2319,5,ISIP_5,59,9999,9999,9999,2547620948
2319,5,ISIP_5,60,9999,9999,9999,2548120624
2319,5,ISIP_5,61,9999,9999,9999,2548620388
2319,5,ISIP_5,62,9999,9999,9999,2549120080
2319,5,ISIP_5,63,9999,9999,9999,2549620820
2319,5,ISIP_5,64,9999,9999,9999,2550120508
2319,5,ISIP_5,65,9999,9999,9999,2550620276
2319,5,ISIP_5,66,9999,9999,9999,2551121012
2319,5,ISIP_5,67,9999,9999,9999,2551620704
2319,5,ISIP_5,68,9999,9999,9999,2552120392
2319,5,ISIP_5,69,9999,9999,9999,2552620084
2319,5,ISIP_5,70,9999,9999,9999,2553120820
2319,5,ISIP_5,71,9999,9999,9999,2553620584
2319,5,ISIP_5,72,9999,9999,9999,2554120276
2319,5,ISIP_5,73,9999,9999,9999,2554621012
2319,5,ISIP_5,74,9999,9999,9999,2555120704
2319,5,ISIP_5,75,9999,9999,9999,2555620468
2319,5,ISIP_5,76,9999,9999,9999,2556120160
2319,5,ISIP_5,77,9999,9999,9999,2556620896
2319,5,ISIP_5,78,9999,9999,9999,2557120584
2319,5,ISIP_5,79,9999,9999,9999,2557620276
2319,5,ISIP_5,80,9999,9999,9999,2558121012
2319,5,ISIP_5,81,9999,9999,9999,2558620752
2319,5,ISIP_5,82,9999,9999,9999,2559120444
2319,5,ISIP_5,83,9999,9999,9999,2559620208
2319,5,ISIP_5,84,9999,9999,9999,2560120948
2319,5,ISIP_5,85,9999,9999,9999,2560620636
2319,5,ISIP_5,86,9999,9999,9999,2561120328
2319,5,ISIP_5,87,9999,9999,9999,2561621044
2319,5,ISIP_5,88,9999,9999,9999,2562120808
2319,5,ISIP_5,89,9999,9999,9999,2562620500
2319,5,ISIP_5,90,9999,9999,9999,2563120184
2319,5,ISIP_5,91,9999,9999,9999,2563620920
2319,5,ISIP_5,92,9999,9999,9999,2564120684
2319,5,ISIP_5,93,9999,9999,9999,2564620376
2319,5,ISIP_5,94,9999,9999,9999,2565120068
2319,5,ISIP_5,95,9999,9999,9999,2565620804
2319,5,ISIP_5,96,9999,9999,9999,2566120568
2319,5,ISIP_5,97,9999,9999,9999,2566620260
2319,5,ISIP_5,98,9999,9999,9999,2567120980
2319,5,ISIP_5,99,9999,9999,9999,2567620668
2319,5,ISIP_5,100,9999,9999,9999,2568120436
2319,5,ISIP_5,101,9999,9999,9999,2568620128
2319,5,ISIP_5,102,9999,9999,9999,2569120840
2319,5,ISIP_5,103,9999,9999,9999,2569620528
2319,5,ISIP_5,104,9999,9999,9999,2570120296
2319,5,ISIP_5,105,9999,9999,9999,2570621032
2319,5,ISIP_5,106,9999,9999,9999,2571120720
2319,5,ISIP_5,107,9999,9999,9999,2571620412
2319,5,ISIP_5,108,9999,9999,9999,2572120176
2319,5,ISIP_5,109,9999,9999,9999,2572620912
2319,5,ISIP_5,110,9999,9999,9999,2573120604
2319,5,ISIP_5,111,9999,9999,9999,2573620300
2319,5,ISIP_5,112,9999,9999,9999,2574121036
2319,5,ISIP_5,113,9999,9999,9999,2574620728
2319,5,ISIP_5,114,9999,9999,9999,2575120492
2319,5,ISIP_5,115,9999,9999,9999,2575620184
2319,5,ISIP_5,116,9999,9999,9999,2576120920
2319,5,ISIP_5,117,9999,9999,9999,2576620612
2319,5,ISIP_5,118,9999,9999,9999,2577120376
2319,5,ISIP_5,119,9999,9999,9999,2577621040
2319,5,ISIP_5,120,9999,9999,9999,2578120804
2319,5,ISIP_5,121,9999,9999,9999,2578620496
2319,5,ISIP_5,122,9999,9999,9999,2579120184
2319,5,ISIP_5,123,9999,9999,9999,2579620968
2319,5,ISIP_5,124,9999,9999,9999,2580120660
2319,5,ISIP_5,125,9999,9999,9999,2580620348
2319,5,ISIP_5,126,9999,9999,9999,2581120112
2319,5,ISIP_5,127,9999,9999,9999,2581620848
2319,5,ISIP_5,128,9999,9999,9999,2582120540
2319,5,ISIP_5,129,9999,9999,9999,2582620216
2319,5,ISIP_5,130,9999,9999,9999,2583120952
2319,5,ISIP_5,131,9999,9999,9999,2583620716
2319,5,ISIP_5,132,9999,9999,9999,2584120408
2319,5,ISIP_5,133,9999,9999,9999,2584620100
2319,5,ISIP_5,134,9999,9999,9999,2585120836
2319,5,ISIP_5,135,9999,9999,9999,2585620528
2319,5,ISIP_5,136,9999,9999,9999,2586120292
2319,5,ISIP_5,137,9999,9999,9999,2586621032
2319,5,ISIP_5,138,9999,9999,9999,2587120724
2319,5,ISIP_5,139,9999,9999,9999,2587620412
2319,5,ISIP_5,140,9999,9999,9999,2588120180
2319,5,ISIP_5,141,9999,9999,9999,2588620916
2319,5,ISIP_5,142,9999,9999,9999,2589120608
2319,5,ISIP_5,143,9999,9999,9999,2589620296
2319,5,ISIP_5,144,9999,9999,9999,2590121036
2319,5,ISIP_5,145,9999,9999,9999,2590620776
2319,5,ISIP_5,146,9999,9999,9999,2591120440
2319,5,ISIP_5,147,9999,9999,9999,2591620208
2319,5,ISIP_5,148,9999,9999,9999,2592120944
2319,5,ISIP_5,149,9999,9999,9999,2592620636
2319,5,ISIP_5,150,9999,9999,9999,2593120328
2319,5,ISIP_5,151,9999,9999,9999,2593621064
2319,5,ISIP_5,152,9999,9999,9999,2594120756
2319,5,ISIP_5,153,9999,9999,9999,2594620520
2319,5,ISIP_5,154,9999,9999,9999,2595120212
2319,5,ISIP_5,155,9999,9999,9999,2595620948
2319,5,ISIP_5,156,9999,9999,9999,2596120640
2319,5,ISIP_5,157,9999,9999,9999,2596620404
2319,5,ISIP_5,158,9999,9999,9999,2597120096
2319,5,ISIP_5,159,9999,9999,9999,2597620836
2320,3,ISIP_8,0,5,42,127,2628087220
2320,3,ISIP_8,1,5,42,127,2628886904
2320,3,ISIP_8,2,1,48,19,2629089832
2320,3,ISIP_8,3,1,48,38,2629682484
2320,3,ISIP_8,4,5,42,127,2629686928
2320,3,ISIP_8,5,1,48,41,2630445712
2320,3,ISIP_8,6,5,42,127,2630487264
2320,3,ISIP_8,7,1,48,39,2631226148
2320,3,ISIP_8,8,5,42,127,2631287144
2320,3,ISIP_8,9,5,42,127,2632086808
2320,3,ISIP_8,10,1,48,43,2632092996
2320,3,ISIP_8,11,1,48,44,2632835036
2320,3,ISIP_8,12,5,42,127,2632886860
2320,3,ISIP_8,13,5,42,127,2633687348
2320,3,ISIP_8,14,1,48,41,2633694356
2320,3,ISIP_8,15,5,42,127,2634487228
2320,3,ISIP_8,16,1,48,38,2634504632
2320,3,ISIP_8,17,5,42,127,2635286888
2320,3,ISIP_8,18,1,48,39,2635322620
2320,3,ISIP_8,19,1,48,47,2636064436
2320,3,ISIP_8,20,5,42,127,2636086612
2320,3,ISIP_8,21,1,48,44,2636875240
2320,3,ISIP_8,22,5,42,127,2636887468
2320,3,ISIP_8,23,1,48,41,2637673328
2320,3,ISIP_8,24,5,42,127,2637687204
2320,3,ISIP_8,25,1,48,43,2638450400
2320,3,ISIP_8,26,5,42,127,2638486860
2320,3,ISIP_8,27,5,42,127,2639286700
2320,3,ISIP_8,28,1,48,44,2639349060
2320,3,ISIP_8,29,1,48,53,2640070984
2320,3,ISIP_8,30,5,42,127,2640087400
2320,3,ISIP_8,31,5,42,127,2640887436
2320,3,ISIP_8,32,1,48,48,2640924364
2320,3,ISIP_8,33,5,42,127,2641687100
2320,3,ISIP_8,34,1,48,47,2641714452
2320,3,ISIP_8,35,1,48,50,2642486384
2320,3,ISIP_8,36,5,42,127,2642487944
2320,3,ISIP_8,37,1,48,44,2643213672
2320,3,ISIP_8,38,5,42,127,2643287308
2320,3,ISIP_8,39,1,48,43,2644007348
2320,3,ISIP_8,40,5,42,127,2644087264
2320,3,ISIP_8,41,1,48,47,2644797512
2320,3,ISIP_8,42,5,42,127,2644886852
2320,3,ISIP_8,43,1,48,49,2645563436
2320,3,ISIP_8,44,5,42,127,2645686520
2320,3,ISIP_8,45,1,48,45,2646414552
2320,3,ISIP_8,46,5,42,127,2646487316
2320,3,ISIP_8,47,1,48,42,2647259416
2320,3,ISIP_8,48,5,42,127,2647287272
2320,3,ISIP_8,49,1,48,48,2648050540
2320,3,ISIP_8,50,5,42,127,2648087228
2320,3,ISIP_8,51,1,48,46,2648850948
2320,3,ISIP_8,52,5,42,127,2648886588
2320,3,ISIP_8,53,1,48,45,2649678656
2320,3,ISIP_8,54,5,42,127,2649687368
2320,3,ISIP_8,55,5,42,127,2650487184
2320,3,ISIP_8,56,1,48,39,2650498976
2320,3,ISIP_8,57,1,48,41,2651261968
2320,3,ISIP_8,58,5,42,127,2651287132
2320,3,ISIP_8,59,1,48,48,2652095620
2320,3,ISIP_8,60,1,48,44,2652912780
2320,3,ISIP_8,61,1,48,50,2653709592
2320,3,ISIP_8,62,1,48,45,2654494812
2320,3,ISIP_8,63,1,48,49,2655345620
2320,3,ISIP_8,64,1,48,46,2656084676
2320,3,ISIP_8,65,1,48,49,2656937552
2320,3,ISIP_8,66,1,48,41,2657773112
2320,3,ISIP_8,67,1,48,52,2658535444
2320,3,ISIP_8,68,1,48,47,2659363072
2320,3,ISIP_8,69,1,48,46,2660180080
2320,3,ISIP_8,70,1,48,43,2660975096
2320,3,ISIP_8,71,1,48,47,2661731964
2320,3,ISIP_8,72,1,48,52,2662547924
2320,3,ISIP_8,73,1,48,50,2663294248
2320,3,ISIP_8,74,1,48,46,2664117344
2320,3,ISIP_8,75,1,48,50,2664908844
2320,3,ISIP_8,76,1,48,50,2665759812
2320,3,ISIP_8,77,1,48,47,2666523712
2320,3,ISIP_8,78,1,48,50,2667384400
2320,3,ISIP_8,79,1,48,42,2668178744
2320,3,ISIP_8,80,1,48,52,2669032656
2320,3,ISIP_8,81,1,48,50,2669801188
2320,3,ISIP_8,82,1,48,53,2670631288
2320,3,ISIP_8,83,1,48,54,2671421364
2320,3,ISIP_8,84,1,48,56,2672250640
2320,3,ISIP_8,85,1,48,51,2673028976
2320,3,ISIP_8,86,1,48,55,2673887820
2320,3,ISIP_8,87,1,48,51,2674645588
2320,3,ISIP_8,88,1,48,40,2675448308
2320,3,ISIP_8,89,1,48,55,2676230164
2320,3,ISIP_8,90,1,48,51,2677017924
2320,3,ISIP_8,91,1,48,51,2677845180
2320,3,ISIP_8,92,1,48,45,2678627332
2320,3,ISIP_8,93,1,48,51,2679419576
2320,3,ISIP_8,94,1,48,45,2680205548
2320,3,ISIP_8,95,1,48,49,2680985228
2320,3,ISIP_8,96,1,48,51,2681771072
2320,3,ISIP_8,97,1,48,49,2682581868
2320,3,ISIP_8,98,1,48,50,2683359608
2320,3,ISIP_8,99,1,48,51,2684184244
2320,3,ISIP_8,100,1,48,48,2685056676
2320,3,ISIP_8,101,1,48,48,2685866008
2320,3,ISIP_8,102,1,48,48,2686673660
2320,3,ISIP_8,103,1,48,44,2687446988
2320,3,ISIP_8,104,1,48,46,2688230712
2320,3,ISIP_8,105,1,48,46,2688977484
2320,3,ISIP_8,106,1,48,37,2689748788
2320,3,ISIP_8,107,1,48,46,2690497504
2320,3,ISIP_8,108,1,48,44,2691365980
2320,3,ISIP_8,109,1,48,41,2692155536
2320,3,ISIP_8,110,1,48,42,2692984960
2320,3,ISIP_8,111,1,48,43,2693792792
2320,3,ISIP_8,112,1,48,46,2694613460
2320,3,ISIP_8,113,1,48,43,2695508480
2320,3,ISIP_8,114,1,48,43,2696332820
2320,3,ISIP_8,115,1,48,46,2697071664
2320,3,ISIP_8,116,1,48,43,2697917116
2320,3,ISIP_8,117,1,48,48,2698702408
2320,3,ISIP_8,118,1,48,47,2699524052
2320,3,ISIP_8,119,1,48,51,2700367992
2320,3,ISIP_8,120,1,48,51,2701205264
2320,3,ISIP_8,121,1,48,48,2702100236
2320,3,ISIP_8,122,1,48,48,2702903560
2320,3,ISIP_8,123,1,48,46,2703641424
2320,3,ISIP_8,124,1,48,52,2704427844
2320,3,ISIP_8,125,1,48,42,2705247768
2320,3,ISIP_8,126,1,48,42,2706087092
2320,3,ISIP_8,127,1,48,48,2706850244
2320,3,ISIP_8,128,1,48,48,2707679592
2320,3,ISIP_8,129,1,48,51,2708527864
2320,3,ISIP_8,130,1,48,48,2709340236
2320,3,ISIP_8,131,1,48,47,2710074740
2320,3,ISIP_8,132,1,48,46,2710924880
2320,3,ISIP_8,133,1,48,50,2711678536
2320,3,ISIP_8,134,1,48,46,2712485396
2320,3,ISIP_8,135,1,48,53,2713309956
2320,3,ISIP_8,136,1,48,50,2714107816
2320,3,ISIP_8,137,1,48,54,2714870668
2320,3,ISIP_8,138,1,48,57,2715668684
2320,3,ISIP_8,139,1,48,47,2716449708
2320,3,ISIP_8,140,1,48,51,2717310920
2320,3,ISIP_8,141,1,48,49,2718084920
2320,3,ISIP_8,142,1,48,44,2718808056
2320,3,ISIP_8,143,1,48,36,2719595292
2320,3,ISIP_8,144,1,48,51,2720395624
2320,3,ISIP_8,145,1,48,54,2721244224
2320,3,ISIP_8,146,1,48,49,2722044324
2320,3,ISIP_8,147,1,48,47,2722802240
2320,3,ISIP_8,148,1,48,43,2723668020
2320,3,ISIP_8,149,1,48,48,2724414412
2320,3,ISIP_8,150,1,48,31,2725158264
2320,3,ISIP_8,151,1,48,46,2725968388
2320,3,ISIP_8,152,1,48,36,2726756528
2320,3,ISIP_8,153,1,48,51,2727550864
2320,3,ISIP_8,154,1,48,36,2728377024
2320,3,ISIP_8,155,1,48,41,2729251552
2320,3,ISIP_8,156,1,48,48,2730022856
2320,3,ISIP_8,157,1,48,48,2730910648
2320,3,ISIP_8,158,1,48,41,2731748228
2320,3,ISIP_8,159,1,48,47,2732558656
2320,3,ISIP_8,160,1,48,45,2733394288
2320,3,ISIP_8,161,1,48,50,2734251336
2320,3,ISIP_8,162,1,48,48,2735073124
2320,3,ISIP_8,163,1,48,57,2735937480
2320,3,ISIP_8,164,1,48,52,2736872844
2320,3,ISIP_8,165,1,48,53,2737674068
2320,3,ISIP_8,166,1,48,53,2738537916
2320,3,ISIP_8,167,1,48,49,2739331880
2320,3,ISIP_8,168,1,48,51,2740200076
2320,3,ISIP_8,169,1,48,50,2741064576
2320,3,ISIP_8,170,1,48,56,2741912476
2320,3,ISIP_8,171,1,48,55,2742739312
2320,3,ISIP_8,172,1,48,51,2743666416
2320,3,ISIP_8,173,1,48,49,2744398752
2320,3,ISIP_8,174,1,48,51,2745284752
2320,3,ISIP_8,175,1,48,44,2746161072
2320,3,ISIP_8,176,1,48,41,2747000740
2320,3,ISIP_8,177,1,48,52,2747791500
2320,3,ISIP_8,0,9999,9999,9999,2628084856
2320,3,ISIP_8,1,9999,9999,9999,2628884536
2320,3,ISIP_8,2,9999,9999,9999,2629684340
2320,3,ISIP_8,3,9999,9999,9999,2630485048
2320,3,ISIP_8,4,9999,9999,9999,2631284856
2320,3,ISIP_8,5,9999,9999,9999,2632084592
2320,3,ISIP_8,6,9999,9999,9999,2632884272
2320,3,ISIP_8,7,9999,9999,9999,2633685056
2320,3,ISIP_8,8,9999,9999,9999,2634484788
2320,3,ISIP_8,9,9999,9999,9999,2635284596
2320,3,ISIP_8,10,9999,9999,9999,2636084324
2320,3,ISIP_8,11,9999,9999,9999,2636885104
2320,3,ISIP_8,12,9999,9999,9999,2637684836
2320,3,ISIP_8,13,9999,9999,9999,2638484572
2320,3,ISIP_8,14,9999,9999,9999,2639284336
2320,3,ISIP_8,15,9999,9999,9999,2640085108
2320,3,ISIP_8,16,9999,9999,9999,2640884848
2320,3,ISIP_8,17,9999,9999,9999,2641684584
2320,3,ISIP_8,18,9999,9999,9999,2642484316
2320,3,ISIP_8,19,9999,9999,9999,2643285092
2320,3,ISIP_8,20,9999,9999,9999,2644084828
2320,3,ISIP_8,21,9999,9999,9999,2644884560
2320,3,ISIP_8,22,9999,9999,9999,2645684304
2320,3,ISIP_8,23,9999,9999,9999,2646485100
2320,3,ISIP_8,24,9999,9999,9999,2647284832
2320,3,ISIP_8,25,9999,9999,9999,2648084564
2320,3,ISIP_8,26,9999,9999,9999,2648884296
2320,3,ISIP_8,27,9999,9999,9999,2649685080
2320,3,ISIP_8,28,9999,9999,9999,2650484816
2320,3,ISIP_8,29,9999,9999,9999,2651284544
2320,3,ISIP_8,30,9999,9999,9999,2652084308
2320,3,ISIP_8,31,9999,9999,9999,2652885084
2320,3,ISIP_8,32,9999,9999,9999,2653684816
2320,3,ISIP_8,33,9999,9999,9999,2654484544
2320,3,ISIP_8,34,9999,9999,9999,2655284272
2320,3,ISIP_8,35,9999,9999,9999,2656085040
2320,3,ISIP_8,36,9999,9999,9999,2656884852
2320,3,ISIP_8,37,9999,9999,9999,2657684580
2320,3,ISIP_8,38,9999,9999,9999,2658484336
2320,3,ISIP_8,39,9999,9999,9999,2659285036
2320,3,ISIP_8,40,9999,9999,9999,2660084840
2320,3,ISIP_8,41,9999,9999,9999,2660884572
2320,3,ISIP_8,42,9999,9999,9999,2661684300
2320,3,ISIP_8,43,9999,9999,9999,2662485076
2320,3,ISIP_8,44,9999,9999,9999,2663284804
2320,3,ISIP_8,45,9999,9999,9999,2664084536
2320,3,ISIP_8,46,9999,9999,9999,2664884292
2320,3,ISIP_8,47,9999,9999,9999,2665685068
2320,3,ISIP_8,48,9999,9999,9999,2666484796
2320,3,ISIP_8,49,9999,9999,9999,2667284528
2320,3,ISIP_8,50,9999,9999,9999,2668084328
2320,3,ISIP_8,51,9999,9999,9999,2668885108
2320,3,ISIP_8,52,9999,9999,9999,2669684836
2320,3,ISIP_8,53,9999,9999,9999,2670484564
2320,3,ISIP_8,54,9999,9999,9999,2671284320
2320,3,ISIP_8,55,9999,9999,9999,2672085096
2320,3,ISIP_8,56,9999,9999,9999,2672884824
2320,3,ISIP_8,57,9999,9999,9999,2673684552
2320,3,ISIP_8,58,9999,9999,9999,2674484280
2320,3,ISIP_8,59,9999,9999,9999,2675285056
2320,3,ISIP_8,60,9999,9999,9999,2676084784
2320,3,ISIP_8,61,9999,9999,9999,2676884588
2320,3,ISIP_8,62,9999,9999,9999,2677684268
2320,3,ISIP_8,63,9999,9999,9999,2678485044
2320,3,ISIP_8,64,9999,9999,9999,2679284848
2320,3,ISIP_8,65,9999,9999,9999,2680084576
2320,3,ISIP_8,66,9999,9999,9999,2680884308
2320,3,ISIP_8,67,9999,9999,9999,2681685084
2320,3,ISIP_8,68,9999,9999,9999,2682484812
2320,3,ISIP_8,69,9999,9999,9999,2683284544
2320,3,ISIP_8,70,9999,9999,9999,2684084296
2320,3,ISIP_8,71,9999,9999,9999,2684885072
2320,3,ISIP_8,72,9999,9999,9999,2685684804
2320,3,ISIP_8,73,9999,9999,9999,2686484532
2320,3,ISIP_8,74,9999,9999,9999,2687284336
2320,3,ISIP_8,75,9999,9999,9999,2688085108
2320,3,ISIP_8,76,9999,9999,9999,2688884840
2320,3,ISIP_8,77,9999,9999,9999,2689684572
2320,3,ISIP_8,78,9999,9999,9999,2690484324
2320,3,ISIP_8,79,9999,9999,9999,2691285104
2320,3,ISIP_8,80,9999,9999,9999,2692084832
2320,3,ISIP_8,81,9999,9999,9999,2692884560
2320,3,ISIP_8,82,9999,9999,9999,2693684288
2320,3,ISIP_8,83,9999,9999,9999,2694485064
2320,3,ISIP_8,84,9999,9999,9999,2695284792
2320,3,ISIP_8,85,9999,9999,9999,2696084596
2320,3,ISIP_8,86,9999,9999,9999,2696884276
2320,3,ISIP_8,87,9999,9999,9999,2697685052
2320,3,ISIP_8,88,9999,9999,9999,2698484852
2320,3,ISIP_8,89,9999,9999,9999,2699284584
2320,3,ISIP_8,90,9999,9999,9999,2700084312
2320,3,ISIP_8,91,9999,9999,9999,2700885088
2320,3,ISIP_8,92,9999,9999,9999,2701684816
2320,3,ISIP_8,93,9999,9999,9999,2702484548
2320,3,ISIP_8,94,9999,9999,9999,2703284300
2320,3,ISIP_8,95,9999,9999,9999,2704085076
2320,3,ISIP_8,96,9999,9999,9999,2704884804
2320,3,ISIP_8,97,9999,9999,9999,2705684536
2320,3,ISIP_8,98,9999,9999,9999,2706484336
2320,3,ISIP_8,99,9999,9999,9999,2707285040
2320,3,ISIP_8,100,9999,9999,9999,2708084844
2320,3,ISIP_8,101,9999,9999,9999,2708884572
2320,3,ISIP_8,102,9999,9999,9999,2709684328
2320,3,ISIP_8,103,9999,9999,9999,2710485104
2320,3,ISIP_8,104,9999,9999,9999,2711284832
2320,3,ISIP_8,105,9999,9999,9999,2712084560
2320,3,ISIP_8,106,9999,9999,9999,2712884292
2320,3,ISIP_8,107,9999,9999,9999,2713685068
2320,3,ISIP_8,108,9999,9999,9999,2714484796
2320,3,ISIP_8,109,9999,9999,9999,2715284524
2320,3,ISIP_8,110,9999,9999,9999,2716084280
2320,3,ISIP_8,111,9999,9999,9999,2716885056
2320,3,ISIP_8,112,9999,9999,9999,2717684784
2320,3,ISIP_8,113,9999,9999,9999,2718484588
2320,3,ISIP_8,114,9999,9999,9999,2719284320
2320,3,ISIP_8,115,9999,9999,9999,2720085096
2320,3,ISIP_8,116,9999,9999,9999,2720884824
2320,3,ISIP_8,117,9999,9999,9999,2721684552
2320,3,ISIP_8,118,9999,9999,9999,2722484308
2320,3,ISIP_8,119,9999,9999,9999,2723285084
2320,3,ISIP_8,120,9999,9999,9999,2724084812
2320,3,ISIP_8,121,9999,9999,9999,2724884536
2320,3,ISIP_8,122,9999,9999,9999,2725684340
2320,3,ISIP_8,123,9999,9999,9999,2726485040
2320,3,ISIP_8,124,9999,9999,9999,2727284844
2320,3,ISIP_8,125,9999,9999,9999,2728084572
2320,3,ISIP_8,126,9999,9999,9999,2728884328
2320,3,ISIP_8,127,9999,9999,9999,2729685104
2320,3,ISIP_8,128,9999,9999,9999,2730484832
2320,3,ISIP_8,129,9999,9999,9999,2731284564
2320,3,ISIP_8,130,9999,9999,9999,2732084292
2320,3,ISIP_8,131,9999,9999,9999,2732885068
2320,3,ISIP_8,132,9999,9999,9999,2733684800
2320,3,ISIP_8,133,9999,9999,9999,2734484528
2320,3,ISIP_8,134,9999,9999,9999,2735284280
2320,3,ISIP_8,135,9999,9999,9999,2736085056
2320,3,ISIP_8,136,9999,9999,9999,2736884800
2320,3,ISIP_8,137,9999,9999,9999,2737684532
2320,3,ISIP_8,138,9999,9999,9999,2738484340
2320,3,ISIP_8,139,9999,9999,9999,2739285040
2320,3,ISIP_8,140,9999,9999,9999,2740084844
2320,3,ISIP_8,141,9999,9999,9999,2740884576
2320,3,ISIP_8,142,9999,9999,9999,2741684328
2320,3,ISIP_8,143,9999,9999,9999,2742485104
2320,3,ISIP_8,144,9999,9999,9999,2743284832
2320,3,ISIP_8,145,9999,9999,9999,2744084560
2320,3,ISIP_8,146,9999,9999,9999,2744884292
2320,3,ISIP_8,147,9999,9999,9999,2745685068
2320,3,ISIP_8,148,9999,9999,9999,2746484796
2320,3,ISIP_8,149,9999,9999,9999,2747284600
2321,11,Pattern_Practice,0,1,38,42,2857067576
2321,11,Pattern_Practice,1,1,38,55,2857068232
2321,11,Pattern_Practice,2,1,38,43,2857068804
2321,11,Pattern_Practice,3,1,38,44,2857069460
2321,11,Pattern_Practice,4,1,38,53,2857070132
2321,11,Pattern_Practice,5,1,48,48,2857070812
2321,11,Pattern_Practice,6,1,38,51,2857071568
2321,11,Pattern_Practice,7,1,38,46,2857072232
2321,11,Pattern_Practice,8,1,38,20,2857072900
2321,11,Pattern_Practice,9,5,42,127,2857568716
2321,11,Pattern_Practice,10,5,42,127,2858069328
2321,11,Pattern_Practice,11,5,42,127,2858569048
2321,11,Pattern_Practice,12,5,42,127,2859068912
2321,11,Pattern_Practice,13,1,38,43,2859535300
2321,11,Pattern_Practice,14,5,42,127,2859568620
2321,11,Pattern_Practice,15,1,38,59,2859688660
2321,11,Pattern_Practice,16,1,38,27,2859849672
2321,11,Pattern_Practice,17,1,38,35,2859937712
2321,11,Pattern_Practice,18,5,42,127,2860069080
2321,11,Pattern_Practice,19,5,42,127,2860568796
2321,11,Pattern_Practice,20,1,48,45,2860644396
2321,11,Pattern_Practice,21,5,42,127,2861068640
2321,11,Pattern_Practice,22,1,48,55,2861091800
2321,11,Pattern_Practice,23,1,38,48,2861557372
2321,11,Pattern_Practice,24,5,42,127,2861569596
2321,11,Pattern_Practice,25,1,38,30,2861697912
2321,11,Pattern_Practice,26,1,38,40,2861806372
2321,11,Pattern_Practice,27,5,42,127,2862069032
2321,11,Pattern_Practice,28,1,38,28,2862125404
2321,11,Pattern_Practice,29,5,42,127,2862568728
2321,11,Pattern_Practice,30,1,48,44,2862590692
2321,11,Pattern_Practice,31,1,48,47,2863050204
2321,11,Pattern_Practice,32,5,42,127,2863068636
2321,11,Pattern_Practice,33,5,42,127,2863569312
2321,11,Pattern_Practice,34,1,38,55,2863579388
2321,11,Pattern_Practice,35,1,38,37,2863685572
2321,11,Pattern_Practice,36,1,38,49,2863825448
2321,11,Pattern_Practice,37,5,42,127,2864069112
2321,11,Pattern_Practice,38,1,38,45,2864113444
2321,11,Pattern_Practice,39,1,48,46,2864567600
2321,11,Pattern_Practice,40,5,42,127,2864569400
2321,11,Pattern_Practice,41,1,48,46,2865033356
2321,11,Pattern_Practice,42,5,42,127,2865069392
2321,11,Pattern_Practice,43,1,38,49,2865540156
2321,11,Pattern_Practice,44,5,42,127,2865569160
2321,11,Pattern_Practice,45,1,38,49,2865655508
2321,11,Pattern_Practice,46,1,38,47,2865810720
2321,11,Pattern_Practice,47,1,38,51,2866052520
2321,11,Pattern_Practice,48,5,42,127,2866068736
2321,11,Pattern_Practice,49,1,48,55,2866562240
2321,11,Pattern_Practice,50,5,42,127,2866568552
2321,11,Pattern_Practice,51,1,48,50,2867046368
2321,11,Pattern_Practice,52,5,42,127,2867069220
2321,11,Pattern_Practice,53,1,38,39,2867543376
2321,11,Pattern_Practice,54,5,42,127,2867569212
2321,11,Pattern_Practice,55,1,38,43,2867660008
2321,11,Pattern_Practice,56,1,38,49,2867810176
2321,11,Pattern_Practice,57,1,38,43,2867962544
2321,11,Pattern_Practice,58,5,42,127,2868068700
2321,11,Pattern_Practice,59,5,42,127,2868568420
2321,11,Pattern_Practice,60,1,48,57,2868585448
2321,11,Pattern_Practice,61,1,48,50,2869049972
2321,11,Pattern_Practice,62,5,42,127,2869069228
2321,11,Pattern_Practice,63,1,38,42,2869531264
2321,11,Pattern_Practice,64,5,42,127,2869569072
2321,11,Pattern_Practice,65,1,38,45,2869640840
2321,11,Pattern_Practice,66,1,38,41,2869797692
2321,11,Pattern_Practice,67,1,38,44,2869907652
2321,11,Pattern_Practice,68,5,42,127,2870068560
2321,11,Pattern_Practice,69,1,48,54,2870515728
2321,11,Pattern_Practice,70,5,42,127,2870569464
2321,11,Pattern_Practice,71,1,48,51,2871026560
2321,11,Pattern_Practice,72,5,42,127,2871069160
2321,11,Pattern_Practice,73,1,38,47,2871529252
2321,11,Pattern_Practice,74,5,42,127,2871568704
2321,11,Pattern_Practice,75,1,38,47,2871652284
2321,11,Pattern_Practice,76,1,38,50,2871800916
2321,11,Pattern_Practice,77,1,38,48,2871916832
2321,11,Pattern_Practice,78,5,42,127,2872068636
2321,11,Pattern_Practice,79,1,48,61,2872516104
2321,11,Pattern_Practice,80,5,42,127,2872569244
2321,11,Pattern_Practice,81,1,48,63,2873050656
2321,11,Pattern_Practice,82,5,42,127,2873068864
2321,11,Pattern_Practice,83,1,38,51,2873547580
2321,11,Pattern_Practice,84,5,42,127,2873568560
2321,11,Pattern_Practice,85,1,38,46,2873662544
2321,11,Pattern_Practice,86,1,38,46,2873836224
2321,11,Pattern_Practice,87,1,38,41,2873955056
2321,11,Pattern_Practice,88,5,42,127,2874069468
2321,11,Pattern_Practice,89,1,48,54,2874519180
2321,11,Pattern_Practice,90,5,42,127,2874569104
2321,11,Pattern_Practice,91,1,48,69,2875036372
2321,11,Pattern_Practice,92,5,42,127,2875068724
2321,11,Pattern_Practice,93,1,38,51,2875530960
2321,11,Pattern_Practice,94,5,42,127,2875568420
2321,11,Pattern_Practice,95,1,38,55,2875639964
2321,11,Pattern_Practice,96,1,38,35,2875811176
2321,11,Pattern_Practice,97,1,38,58,2876032704
2321,11,Pattern_Practice,98,5,42,127,2876069336
2321,11,Pattern_Practice,99,5,42,127,2876568964
2321,11,Pattern_Practice,100,1,48,73,2876577848
2321,11,Pattern_Practice,101,5,42,127,2877068932
2321,11,Pattern_Practice,102,1,48,68,2877079036
2321,11,Pattern_Practice,103,1,48,50,2877550936
2321,11,Pattern_Practice,104,5,42,127,2877569444
2321,11,Pattern_Practice,105,1,48,61,2877666068
2321,11,Pattern_Practice,106,1,48,51,2877812804
2321,11,Pattern_Practice,107,1,48,40,2877968460
2321,11,Pattern_Practice,108,5,42,127,2878069080
2321,11,Pattern_Practice,109,1,48,50,2878071824
2321,11,Pattern_Practice,110,1,48,57,2878262636
2321,11,Pattern_Practice,111,1,38,26,2878463172
2321,11,Pattern_Practice,112,5,42,127,2878568808
2321,11,Pattern_Practice,113,1,38,55,2878971992
2321,11,Pattern_Practice,114,5,42,127,2879068648
2321,11,Pattern_Practice,115,1,38,58,2879477076
2321,11,Pattern_Practice,116,5,42,127,2879569408
2321,11,Pattern_Practice,117,1,38,49,2879589568
2321,11,Pattern_Practice,118,1,38,35,2879938600
2321,11,Pattern_Practice,119,1,38,48,2879948448
2321,11,Pattern_Practice,120,5,42,127,2880069040
2321,11,Pattern_Practice,121,1,48,62,2880542916
2321,11,Pattern_Practice,122,5,42,127,2880568828
2321,11,Pattern_Practice,123,1,48,57,2881048820
2321,11,Pattern_Practice,124,5,42,127,2881069496
2321,11,Pattern_Practice,125,5,42,127,2881569124
2321,11,Pattern_Practice,126,1,38,53,2881572168
2321,11,Pattern_Practice,127,1,38,38,2881707336
2321,11,Pattern_Practice,128,1,38,44,2881954540
2321,11,Pattern_Practice,129,1,38,45,2882051752
2321,11,Pattern_Practice,130,5,42,127,2882068696
2321,11,Pattern_Practice,131,5,42,127,2882568544
2321,11,Pattern_Practice,132,1,48,54,2882608540
2321,11,Pattern_Practice,133,1,48,64,2883055760
2321,11,Pattern_Practice,134,5,42,127,2883069404
2321,11,Pattern_Practice,135,1,38,43,2883524636
2321,11,Pattern_Practice,136,5,42,127,2883568876
2321,11,Pattern_Practice,137,1,38,52,2883656952
2321,11,Pattern_Practice,138,1,38,45,2883904756
2321,11,Pattern_Practice,139,1,38,45,2884028320
2321,11,Pattern_Practice,140,5,42,127,2884068600
2321,11,Pattern_Practice,141,5,42,127,2884568524
2321,11,Pattern_Practice,142,1,48,57,2884574560
2321,11,Pattern_Practice,143,1,48,66,2885057636
2321,11,Pattern_Practice,144,5,42,127,2885069408
2321,11,Pattern_Practice,145,1,38,51,2885550448
2321,11,Pattern_Practice,146,5,42,127,2885568880
2321,11,Pattern_Practice,147,1,38,49,2885661892
2321,11,Pattern_Practice,148,1,38,48,2885936256
2321,11,Pattern_Practice,149,1,38,46,2886022920
2321,11,Pattern_Practice,150,5,42,127,2886068532
2321,11,Pattern_Practice,151,5,42,127,2886569504
2321,11,Pattern_Practice,152,1,48,44,2886577412
2321,11,Pattern_Practice,153,1,48,68,2887049612
2321,11,Pattern_Practice,154,5,42,127,2887069116
2321,11,Pattern_Practice,155,5,42,127,2887568668
2321,11,Pattern_Practice,156,1,38,57,2887579792
2321,11,Pattern_Practice,157,1,38,54,2887681640
2321,11,Pattern_Practice,158,1,38,29,2887734052
2321,11,Pattern_Practice,159,1,38,53,2887983804
2321,11,Pattern_Practice,160,1,38,45,2888038688
2321,11,Pattern_Practice,161,5,42,127,2888068416
2321,11,Pattern_Practice,162,5,42,127,2888569384
2321,11,Pattern_Practice,163,1,48,59,2888591004
2321,11,Pattern_Practice,164,5,42,127,2889068936
2321,11,Pattern_Practice,165,1,48,55,2889102072
2321,11,Pattern_Practice,166,5,42,127,2889568556
2321,11,Pattern_Practice,167,1,38,38,2889571296
2321,11,Pattern_Practice,168,1,38,41,2889695616
2321,11,Pattern_Practice,169,1,38,48,2889964216
2321,11,Pattern_Practice,170,5,42,127,2890069328
2321,11,Pattern_Practice,171,1,38,44,2890072444
2321,11,Pattern_Practice,172,5,42,127,2890569244
2321,11,Pattern_Practice,173,1,48,58,2890589716
2321,11,Pattern_Practice,174,1,48,51,2891052220
2321,11,Pattern_Practice,175,5,42,127,2891068708
2321,11,Pattern_Practice,176,1,38,46,2891540992
2321,11,Pattern_Practice,177,5,42,127,2891568480
2321,11,Pattern_Practice,178,1,38,57,2891677668
2321,11,Pattern_Practice,179,1,38,61,2891998260
2321,11,Pattern_Practice,180,1,38,47,2892066372
2321,11,Pattern_Practice,181,5,42,127,2892069104
2321,11,Pattern_Practice,182,5,42,127,2892569252
2321,11,Pattern_Practice,183,1,48,64,2892600648
2321,11,Pattern_Practice,184,5,42,127,2893068576
2321,11,Pattern_Practice,185,1,48,67,2893093456
2321,11,Pattern_Practice,186,5,42,127,2893569388
2321,11,Pattern_Practice,187,1,38,59,2893574600
2321,11,Pattern_Practice,188,1,38,48,2893699420
2321,11,Pattern_Practice,189,1,38,52,2893799128
2321,11,Pattern_Practice,190,1,38,39,2893956484
2321,11,Pattern_Practice,191,1,38,48,2894017520
2321,11,Pattern_Practice,192,5,42,127,2894069016
2321,11,Pattern_Practice,193,1,38,40,2894194264
2321,11,Pattern_Practice,194,1,38,44,2894273556
2321,11,Pattern_Practice,195,5,42,127,2894568824
2321,11,Pattern_Practice,196,1,48,54,2894659452
2321,11,Pattern_Practice,197,5,42,127,2895068444
2321,11,Pattern_Practice,198,1,48,58,2895128784
2321,11,Pattern_Practice,199,5,42,127,2895569184
2321,11,Pattern_Practice,200,1,38,46,2895594364
2321,11,Pattern_Practice,201,1,38,51,2895739008
2321,11,Pattern_Practice,202,1,38,43,2896010220
2321,11,Pattern_Practice,203,5,42,127,2896069072
2321,11,Pattern_Practice,204,1,38,46,2896116760
2321,11,Pattern_Practice,205,5,42,127,2896568680
2321,11,Pattern_Practice,206,1,48,63,2896612492
2321,11,Pattern_Practice,207,5,42,127,2897069348
2321,11,Pattern_Practice,208,1,48,47,2897087876
2321,11,Pattern_Practice,209,1,38,53,2897542576
2321,11,Pattern_Practice,0,9999,9999,9999,2857566280
2321,11,Pattern_Practice,1,9999,9999,9999,2858067044
2321,11,Pattern_Practice,2,9999,9999,9999,2858566760
2321,11,Pattern_Practice,3,9999,9999,9999,2859066476
2321,11,Pattern_Practice,4,9999,9999,9999,2859566188
2321,11,Pattern_Practice,5,9999,9999,9999,2860066868
2321,11,Pattern_Practice,6,9999,9999,9999,2860566584
2321,11,Pattern_Practice,7,9999,9999,9999,2861066352
2321,11,Pattern_Practice,8,9999,9999,9999,2861567088
2321,11,Pattern_Practice,9,9999,9999,9999,2862066744
2321,11,Pattern_Practice,10,9999,9999,9999,2862566516
2321,11,Pattern_Practice,11,9999,9999,9999,2863066204
2321,11,Pattern_Practice,12,9999,9999,9999,2863566948
2321,11,Pattern_Practice,13,9999,9999,9999,2864066676
2321,11,Pattern_Practice,14,9999,9999,9999,2864566372
2321,11,Pattern_Practice,15,9999,9999,9999,2865067104
2321,11,Pattern_Practice,16,9999,9999,9999,2865566796
2321,11,Pattern_Practice,17,9999,9999,9999,2866066524
2321,11,Pattern_Practice,18,9999,9999,9999,2866566268
2321,11,Pattern_Practice,19,9999,9999,9999,2867066936
2321,11,Pattern_Practice,20,9999,9999,9999,2867566704
2321,11,Pattern_Practice,21,9999,9999,9999,2868066416
2321,11,Pattern_Practice,22,9999,9999,9999,2868566132
2321,11,Pattern_Practice,23,9999,9999,9999,2869066868
2321,11,Pattern_Practice,24,9999,9999,9999,2869566564
2321,11,Pattern_Practice,25,9999,9999,9999,2870066272
2321,11,Pattern_Practice,26,9999,9999,9999,2870567028
2321,11,Pattern_Practice,27,9999,9999,9999,2871066724
2321,11,Pattern_Practice,28,9999,9999,9999,2871566420
2321,11,Pattern_Practice,29,9999,9999,9999,2872066128
2321,11,Pattern_Practice,30,9999,9999,9999,2872566884
2321,11,Pattern_Practice,31,9999,9999,9999,2873066580
2321,11,Pattern_Practice,32,9999,9999,9999,2873566276
2321,11,Pattern_Practice,33,9999,9999,9999,2874067028
2321,11,Pattern_Practice,34,9999,9999,9999,2874566744
2321,11,Pattern_Practice,35,9999,9999,9999,2875066436
2321,11,Pattern_Practice,36,9999,9999,9999,2875566132
2321,11,Pattern_Practice,37,9999,9999,9999,2876066904
2321,11,Pattern_Practice,38,9999,9999,9999,2876566604
2321,11,Pattern_Practice,39,9999,9999,9999,2877066348
2321,11,Pattern_Practice,40,9999,9999,9999,2877567084
2321,11,Pattern_Practice,41,9999,9999,9999,2878066792
2321,11,Pattern_Practice,42,9999,9999,9999,2878566520
2321,11,Pattern_Practice,43,9999,9999,9999,2879066212
2321,11,Pattern_Practice,44,9999,9999,9999,2879566900
2321,11,Pattern_Practice,45,9999,9999,9999,2880066680
2321,11,Pattern_Practice,46,9999,9999,9999,2880566392
2321,11,Pattern_Practice,47,9999,9999,9999,2881067060
2321,11,Pattern_Practice,48,9999,9999,9999,2881566836
2321,11,Pattern_Practice,49,9999,9999,9999,2882066484
2321,11,Pattern_Practice,50,9999,9999,9999,2882566260
2321,11,Pattern_Practice,51,9999,9999,9999,2883066968
2321,11,Pattern_Practice,52,9999,9999,9999,2883566664
2321,11,Pattern_Practice,53,9999,9999,9999,2884066388
2321,11,Pattern_Practice,54,9999,9999,9999,2884566092
2321,11,Pattern_Practice,55,9999,9999,9999,2885066824
2321,11,Pattern_Practice,56,9999,9999,9999,2885566520
2321,11,Pattern_Practice,57,9999,9999,9999,2886066244
2321,11,Pattern_Practice,58,9999,9999,9999,2886566992
2321,11,Pattern_Practice,59,9999,9999,9999,2887066680
2321,11,Pattern_Practice,60,9999,9999,9999,2887566456
2321,11,Pattern_Practice,61,9999,9999,9999,2888066128
2321,11,Pattern_Practice,62,9999,9999,9999,2888566876
2321,11,Pattern_Practice,63,9999,9999,9999,2889066572
2321,11,Pattern_Practice,64,9999,9999,9999,2889566268
2321,11,Pattern_Practice,65,9999,9999,9999,2890067040
2321,11,Pattern_Practice,66,9999,9999,9999,2890566736
2321,11,Pattern_Practice,67,9999,9999,9999,2891066420
2321,11,Pattern_Practice,68,9999,9999,9999,2891566192
2321,11,Pattern_Practice,69,9999,9999,9999,2892066888
2321,11,Pattern_Practice,70,9999,9999,9999,2892566592
2321,11,Pattern_Practice,71,9999,9999,9999,2893066364
2321,11,Pattern_Practice,72,9999,9999,9999,2893567028
2321,11,Pattern_Practice,73,9999,9999,9999,2894066804
2321,11,Pattern_Practice,74,9999,9999,9999,2894566464
2321,11,Pattern_Practice,75,9999,9999,9999,2895066232
2321,11,Pattern_Practice,76,9999,9999,9999,2895566972
2321,11,Pattern_Practice,77,9999,9999,9999,2896066636
2321,11,Pattern_Practice,78,9999,9999,9999,2896566392
2321,11,Pattern_Practice,79,9999,9999,9999,2897067060
2322,13,Improv_Metronome,0,5,42,127,2931032428
2322,13,Improv_Metronome,1,5,42,127,2931533192
2322,13,Improv_Metronome,2,1,38,36,2932017532
2322,13,Improv_Metronome,3,5,42,127,2932032752
2322,13,Improv_Metronome,4,1,38,25,2932136108
2322,13,Improv_Metronome,5,1,38,33,2932446448
2322,13,Improv_Metronome,6,1,38,24,2932494596
2322,13,Improv_Metronome,7,5,42,127,2932532476
2322,13,Improv_Metronome,8,5,42,127,2933033376
2322,13,Improv_Metronome,9,1,48,47,2933077260
2322,13,Improv_Metronome,10,5,42,127,2933533068
2322,13,Improv_Metronome,11,1,48,48,2933542468
2322,13,Improv_Metronome,12,1,38,43,2934009384
2322,13,Improv_Metronome,13,5,42,127,2934032608
2322,13,Improv_Metronome,14,1,38,48,2934122248
2322,13,Improv_Metronome,15,1,38,40,2934421316
2322,13,Improv_Metronome,16,1,38,51,2934452184
2322,13,Improv_Metronome,17,5,42,127,2934532332
2322,13,Improv_Metronome,18,5,42,127,2935033080
2322,13,Improv_Metronome,19,1,48,62,2935042484
2322,13,Improv_Metronome,20,1,48,59,2935520168
2322,13,Improv_Metronome,21,5,42,127,2935533140
2322,13,Improv_Metronome,22,1,38,39,2935998392
2322,13,Improv_Metronome,23,5,42,127,2936032536
2322,13,Improv_Metronome,24,1,38,46,2936117844
2322,13,Improv_Metronome,25,1,38,49,2936399088
2322,13,Improv_Metronome,26,1,38,44,2936490268
2322,13,Improv_Metronome,27,5,42,127,2936533308
2322,13,Improv_Metronome,28,5,42,127,2937033084
2322,13,Improv_Metronome,29,1,48,55,2937050864
2322,13,Improv_Metronome,30,5,42,127,2937532704
2322,13,Improv_Metronome,31,1,48,53,2937542704
2322,13,Improv_Metronome,32,5,42,127,2938032472
2322,13,Improv_Metronome,33,1,38,38,2938042996
2322,13,Improv_Metronome,34,1,38,55,2938166164
2322,13,Improv_Metronome,35,1,38,49,2938421528
2322,13,Improv_Metronome,36,1,38,49,2938508376
2322,13,Improv_Metronome,37,5,42,127,2938533092
2322,13,Improv_Metronome,38,5,42,127,2939033164
2322,13,Improv_Metronome,39,1,48,50,2939038980
2322,13,Improv_Metronome,40,5,42,127,2939532636
2322,13,Improv_Metronome,41,1,48,62,2939547728
2322,13,Improv_Metronome,42,1,38,58,2940030916
2322,13,Improv_Metronome,43,5,42,127,2940033568
2322,13,Improv_Metronome,44,1,38,43,2940156376
2322,13,Improv_Metronome,45,1,38,53,2940271316
2322,13,Improv_Metronome,46,1,38,46,2940443504
2322,13,Improv_Metronome,47,1,38,42,2940489704
2322,13,Improv_Metronome,48,5,42,127,2940533048
2322,13,Improv_Metronome,49,1,38,44,2940881168
2322,13,Improv_Metronome,50,5,42,127,2941032880
2322,13,Improv_Metronome,51,1,48,55,2941199152
2322,13,Improv_Metronome,52,5,42,127,2941532796
2322,13,Improv_Metronome,53,1,48,64,2941713360
2322,13,Improv_Metronome,54,5,42,127,2942033388
2322,13,Improv_Metronome,55,1,38,38,2942200940
2322,13,Improv_Metronome,56,1,38,57,2942279828
2322,13,Improv_Metronome,57,1,38,27,2942433088
2322,13,Improv_Metronome,58,1,38,51,2942503824
2322,13,Improv_Metronome,59,5,42,127,2942533032
2322,13,Improv_Metronome,60,1,38,34,2942669080
2322,13,Improv_Metronome,61,1,38,45,2942758664
2322,13,Improv_Metronome,62,5,42,127,2943032764
2322,13,Improv_Metronome,63,1,48,61,2943220812
2322,13,Improv_Metronome,64,5,42,127,2943533508
2322,13,Improv_Metronome,65,1,48,65,2943726940
2322,13,Improv_Metronome,66,5,42,127,2944033056
2322,13,Improv_Metronome,67,1,38,52,2944220504
2322,13,Improv_Metronome,68,1,38,50,2944364692
2322,13,Improv_Metronome,69,5,42,127,2944532804
2322,13,Improv_Metronome,70,1,38,55,2944664448
2322,13,Improv_Metronome,71,1,38,54,2944735340
2322,13,Improv_Metronome,72,5,42,127,2945032852
2322,13,Improv_Metronome,73,1,48,59,2945188360
2322,13,Improv_Metronome,74,5,42,127,2945533220
2322,13,Improv_Metronome,75,1,48,56,2945673988
2322,13,Improv_Metronome,76,5,42,127,2946033064
2322,13,Improv_Metronome,77,1,38,56,2946134912
2322,13,Improv_Metronome,78,5,42,127,2946532684
2322,13,Improv_Metronome,79,1,38,50,2946578360
2322,13,Improv_Metronome,80,5,42,127,2947032600
2322,13,Improv_Metronome,81,1,48,57,2947051056
2322,13,Improv_Metronome,82,1,48,57,2947497476
2322,13,Improv_Metronome,83,5,42,127,2947533336
2322,13,Improv_Metronome,84,1,38,51,2947969100
2322,13,Improv_Metronome,85,5,42,127,2948032808
2322,13,Improv_Metronome,86,1,38,49,2948117144
2322,13,Improv_Metronome,87,1,38,49,2948378192
2322,13,Improv_Metronome,88,1,38,49,2948475108
2322,13,Improv_Metronome,89,5,42,127,2948532684
2322,13,Improv_Metronome,90,1,48,58,2948989240
2322,13,Improv_Metronome,91,5,42,127,2949033424
2322,13,Improv_Metronome,92,1,48,69,2949482724
2322,13,Improv_Metronome,93,5,42,127,2949533044
2322,13,Improv_Metronome,94,1,38,47,2949975684
2322,13,Improv_Metronome,95,5,42,127,2950032740
2322,13,Improv_Metronome,96,1,38,56,2950109668
2322,13,Improv_Metronome,97,1,38,24,2950342292
2322,13,Improv_Metronome,98,1,38,51,2950447588
2322,13,Improv_Metronome,99,5,42,127,2950532440
2322,13,Improv_Metronome,100,1,48,67,2950991036
2322,13,Improv_Metronome,101,5,42,127,2951033404
2322,13,Improv_Metronome,102,1,48,60,2951515936
2322,13,Improv_Metronome,103,5,42,127,2951532876
2322,13,Improv_Metronome,104,1,38,50,2952012192
2322,13,Improv_Metronome,105,5,42,127,2952032572
2322,13,Improv_Metronome,106,1,38,61,2952108332
2322,13,Improv_Metronome,107,1,38,55,2952384860
2322,13,Improv_Metronome,108,1,38,49,2952476988
2322,13,Improv_Metronome,109,5,42,127,2952533344
2322,13,Improv_Metronome,110,1,38,25,2952540560
2322,13,Improv_Metronome,111,5,42,127,2953033096
2322,13,Improv_Metronome,112,1,48,59,2953049308
2322,13,Improv_Metronome,113,5,42,127,2953532864
2322,13,Improv_Metronome,114,1,48,58,2953557600
2322,13,Improv_Metronome,115,1,38,52,2954019504
2322,13,Improv_Metronome,116,5,42,127,2954032480
2322,13,Improv_Metronome,117,1,38,54,2954123272
2322,13,Improv_Metronome,118,1,38,52,2954348912
2322,13,Improv_Metronome,119,5,42,127,2954533480
2322,13,Improv_Metronome,120,1,38,62,2954535924
2322,13,Improv_Metronome,121,5,42,127,2955033024
2322,13,Improv_Metronome,122,1,48,69,2955080352
2322,13,Improv_Metronome,123,5,42,127,2955532720
2322,13,Improv_Metronome,124,1,48,67,2955586252
2322,13,Improv_Metronome,125,1,38,47,2956027736
2322,13,Improv_Metronome,126,5,42,127,2956033456
2322,13,Improv_Metronome,127,1,38,53,2956164240
2322,13,Improv_Metronome,128,1,38,50,2956417212
2322,13,Improv_Metronome,129,1,38,56,2956493880
2322,13,Improv_Metronome,130,5,42,127,2956533180
2322,13,Improv_Metronome,131,5,42,127,2957032956
2322,13,Improv_Metronome,132,1,48,59,2957046852
2322,13,Improv_Metronome,133,5,42,127,2957532428
2322,13,Improv_Metronome,134,1,48,75,2957539884
2322,13,Improv_Metronome,135,1,38,54,2958029992
2322,13,Improv_Metronome,136,5,42,127,2958033312
2322,13,Improv_Metronome,137,1,38,47,2958145848
2322,13,Improv_Metronome,138,1,38,58,2958441824
2322,13,Improv_Metronome,139,1,38,52,2958517376
2322,13,Improv_Metronome,140,5,42,127,2958533112
2322,13,Improv_Metronome,141,5,42,127,2959032816
2322,13,Improv_Metronome,142,1,48,77,2959082304
2322,13,Improv_Metronome,143,5,42,127,2959533332
2322,13,Improv_Metronome,144,1,48,80,2959558672
2322,13,Improv_Metronome,145,1,48,59,2960009048
2322,13,Improv_Metronome,146,5,42,127,2960033020
2322,13,Improv_Metronome,147,1,48,64,2960113540
2322,13,Improv_Metronome,148,1,48,50,2960273088
2322,13,Improv_Metronome,149,1,48,64,2960417876
2322,13,Improv_Metronome,150,1,48,49,2960527080
2322,13,Improv_Metronome,151,5,42,127,2960533096
2322,13,Improv_Metronome,152,1,48,57,2960682208
2322,13,Improv_Metronome,153,1,48,50,2960773812
2322,13,Improv_Metronome,154,5,42,127,2961032684
2322,13,Improv_Metronome,155,1,38,100,2961091676
2322,13,Improv_Metronome,156,5,42,127,2961533248
2322,13,Improv_Metronome,157,1,38,52,2961596756
2322,13,Improv_Metronome,158,5,42,127,2962032872
2322,13,Improv_Metronome,159,1,48,74,2962155692
2322,13,Improv_Metronome,160,1,48,38,2962352488
2322,13,Improv_Metronome,161,5,42,127,2962532840
2322,13,Improv_Metronome,162,1,48,55,2962679372
2322,13,Improv_Metronome,163,5,42,127,2963032312
2322,13,Improv_Metronome,164,1,38,51,2963191112
2322,13,Improv_Metronome,165,5,42,127,2963533204
2322,13,Improv_Metronome,166,1,38,62,2963701724
2322,13,Improv_Metronome,167,5,42,127,2964032972
2322,13,Improv_Metronome,168,1,38,48,2964171500
2322,13,Improv_Metronome,169,1,38,62,2964305220
2322,13,Improv_Metronome,170,5,42,127,2964532796
2322,13,Improv_Metronome,171,1,38,47,2964546012
2322,13,Improv_Metronome,172,1,38,59,2964657984
2322,13,Improv_Metronome,173,5,42,127,2965033216
2322,13,Improv_Metronome,174,1,48,64,2965162244
2322,13,Improv_Metronome,175,5,42,127,2965532908
2322,13,Improv_Metronome,176,1,48,59,2965685948
2322,13,Improv_Metronome,177,5,42,127,2966032828
2322,13,Improv_Metronome,178,1,38,44,2966151908
2322,13,Improv_Metronome,179,1,38,49,2966214344
2322,13,Improv_Metronome,180,1,38,48,2966437616
2322,13,Improv_Metronome,181,5,42,127,2966532644
2322,13,Improv_Metronome,182,1,38,50,2966570012
2322,13,Improv_Metronome,183,5,42,127,2967033076
2322,13,Improv_Metronome,184,1,48,47,2967074712
2322,13,Improv_Metronome,185,5,42,127,2967532992
2322,13,Improv_Metronome,186,1,48,57,2967547408
2322,13,Improv_Metronome,187,1,38,59,2968022772
2322,13,Improv_Metronome,188,5,42,127,2968032608
2322,13,Improv_Metronome,189,1,38,44,2968136992
2322,13,Improv_Metronome,190,1,38,39,2968389580
2322,13,Improv_Metronome,191,1,38,48,2968473580
2322,13,Improv_Metronome,192,5,42,127,2968533232
2322,13,Improv_Metronome,193,1,48,65,2968993396
2322,13,Improv_Metronome,194,5,42,127,2969033000
2322,13,Improv_Metronome,195,5,42,127,2969532776
2322,13,Improv_Metronome,196,1,48,54,2969533740
2322,13,Improv_Metronome,197,5,42,127,2970032768
2322,13,Improv_Metronome,198,1,38,57,2970071192
2322,13,Improv_Metronome,199,1,38,12,2970221740
2322,13,Improv_Metronome,200,1,38,56,2970523348
2322,13,Improv_Metronome,201,5,42,127,2970533332
2322,13,Improv_Metronome,202,5,42,127,2971032960
2322,13,Improv_Metronome,203,1,48,59,2971092920
2322,13,Improv_Metronome,204,5,42,127,2971532728
2322,13,Improv_Metronome,205,1,48,62,2971595308
2322,13,Improv_Metronome,206,5,42,127,2972033664
2322,13,Improv_Metronome,207,1,38,46,2972056932
2322,13,Improv_Metronome,208,1,38,43,2972523824
2322,13,Improv_Metronome,209,5,42,127,2972533056
2322,13,Improv_Metronome,210,5,42,127,2973032908
2322,13,Improv_Metronome,211,1,48,57,2973051208
2322,13,Improv_Metronome,212,1,48,52,2973504284
2322,13,Improv_Metronome,213,5,42,127,2973532592
2322,13,Improv_Metronome,214,1,38,40,2973980344
2322,13,Improv_Metronome,215,5,42,127,2974033336
2322,13,Improv_Metronome,216,1,38,40,2974143872
2322,13,Improv_Metronome,217,1,38,42,2974388392
2322,13,Improv_Metronome,218,5,42,127,2974533068
2322,13,Improv_Metronome,219,1,38,55,2974534180
2322,13,Improv_Metronome,220,1,48,58,2975029656
2322,13,Improv_Metronome,221,5,42,127,2975032752
2322,13,Improv_Metronome,222,5,42,127,2975533504
2322,13,Improv_Metronome,223,1,48,58,2975546720
2322,13,Improv_Metronome,224,1,38,46,2975994780
2322,13,Improv_Metronome,225,5,42,127,2976033264
2322,13,Improv_Metronome,226,1,38,56,2976118348
2322,13,Improv_Metronome,227,1,38,43,2976352468
2322,13,Improv_Metronome,228,1,38,57,2976487404
2322,13,Improv_Metronome,229,5,42,127,2976532840
2322,13,Improv_Metronome,230,1,48,57,2977007748
2322,13,Improv_Metronome,231,5,42,127,2977032536
2322,13,Improv_Metronome,232,1,48,51,2977532076
2322,13,Improv_Metronome,233,5,42,127,2977533872
2322,13,Improv_Metronome,234,5,42,127,2978033276
2322,13,Improv_Metronome,235,1,38,44,2978045372
2322,13,Improv_Metronome,236,1,38,64,2978182628
2322,13,Improv_Metronome,237,1,38,48,2978456312
2322,13,Improv_Metronome,238,1,38,54,2978533076
2322,13,Improv_Metronome,239,5,42,127,2978535616
2322,13,Improv_Metronome,240,5,42,127,2979032548
2322,13,Improv_Metronome,241,1,48,53,2979081300
2322,13,Improv_Metronome,242,5,42,127,2979533368
2322,13,Improv_Metronome,243,1,48,64,2979566404
2322,13,Improv_Metronome,244,5,42,127,2980032840
2322,13,Improv_Metronome,245,1,48,50,2980055852
2322,13,Improv_Metronome,246,1,38,13,2980068996
2322,13,Improv_Metronome,247,1,48,47,2980161876
2322,13,Improv_Metronome,248,1,48,32,2980420964
2322,13,Improv_Metronome,249,5,42,127,2980532528
2322,13,Improv_Metronome,250,1,48,50,2980539612
2322,13,Improv_Metronome,251,5,42,127,2981033272
2322,13,Improv_Metronome,252,1,38,53,2981077380
2322,13,Improv_Metronome,253,5,42,127,2981533264
2322,13,Improv_Metronome,254,1,38,69,2981565480
2322,13,Improv_Metronome,255,1,48,69,2982030768
2322,13,Improv_Metronome,256,5,42,127,2982032656
2322,13,Improv_Metronome,257,1,48,51,2982130904
2322,13,Improv_Metronome,258,1,48,61,2982434132
2322,13,Improv_Metronome,259,1,48,38,2982517512
2322,13,Improv_Metronome,260,5,42,127,2982532580
2322,13,Improv_Metronome,261,1,38,57,2983033552
2322,13,Improv_Metronome,262,5,42,127,2983036092
2322,13,Improv_Metronome,263,5,42,127,2983532952
2322,13,Improv_Metronome,264,1,38,61,2983553128
2322,13,Improv_Metronome,265,1,48,62,2984016000
2322,13,Improv_Metronome,266,5,42,127,2984032488
2322,13,Improv_Metronome,267,1,48,59,2984135772
2322,13,Improv_Metronome,268,1,48,51,2984454036
2322,13,Improv_Metronome,269,1,48,50,2984502416
2322,13,Improv_Metronome,270,5,42,127,2984533340
2322,13,Improv_Metronome,271,5,42,127,2985033116
2322,13,Improv_Metronome,272,1,38,46,2985050964
2322,13,Improv_Metronome,273,1,38,62,2985521696
2322,13,Improv_Metronome,274,5,42,127,2985533024
2322,13,Improv_Metronome,275,1,38,45,2985987956
2322,13,Improv_Metronome,276,5,42,127,2986032496
2322,13,Improv_Metronome,277,1,38,57,2986107108
2322,13,Improv_Metronome,278,1,38,46,2986445740
2322,13,Improv_Metronome,279,1,38,43,2986515428
2322,13,Improv_Metronome,280,5,42,127,2986533196
2322,13,Improv_Metronome,281,5,42,127,2987032896
2322,13,Improv_Metronome,282,1,48,54,2987042072
2322,13,Improv_Metronome,283,5,42,127,2987532740
2322,13,Improv_Metronome,284,1,48,67,2987540572
2322,13,Improv_Metronome,285,5,42,127,2988033328
2322,13,Improv_Metronome,286,1,38,52,2988039888
2322,13,Improv_Metronome,287,1,38,28,2988175348
2322,13,Improv_Metronome,288,1,38,44,2988460336
2322,13,Improv_Metronome,289,5,42,127,2988533220
2322,13,Improv_Metronome,290,1,38,52,2988559284
2322,13,Improv_Metronome,291,5,42,127,2989032900
2322,13,Improv_Metronome,292,1,48,70,2989093684
2322,13,Improv_Metronome,293,5,42,127,2989532668
2322,13,Improv_Metronome,294,1,48,70,2989589568
2322,13,Improv_Metronome,295,5,42,127,2990033188
2322,13,Improv_Metronome,296,1,48,63,2990083428
2322,13,Improv_Metronome,297,1,38,46,2990259804
2322,13,Improv_Metronome,298,1,48,51,2990454704
2322,13,Improv_Metronome,299,5,42,127,2990532856
2322,13,Improv_Metronome,300,1,38,50,2990593700
2322,13,Improv_Metronome,301,5,42,127,2991032680
2322,13,Improv_Metronome,302,1,48,56,2991067960
2322,13,Improv_Metronome,303,5,42,127,2991533348
2322,13,Improv_Metronome,304,1,48,65,2991557560
2322,13,Improv_Metronome,305,1,38,46,2992010640
2322,13,Improv_Metronome,306,5,42,127,2992033036
2322,13,Improv_Metronome,307,1,38,43,2992172944
2322,13,Improv_Metronome,308,1,38,30,2992427932
2322,13,Improv_Metronome,309,1,38,43,2992525920
2322,13,Improv_Metronome,310,5,42,127,2992532912
2322,13,Improv_Metronome,311,1,48,63,2993020876
2322,13,Improv_Metronome,312,5,42,127,2993032680
2322,13,Improv_Metronome,313,5,42,127,2993533700
2322,13,Improv_Metronome,314,1,48,63,2993549188
2322,13,Improv_Metronome,315,1,38,54,2994022588
2322,13,Improv_Metronome,316,5,42,127,2994032868
2322,13,Improv_Metronome,317,1,38,49,2994209304
2322,13,Improv_Metronome,318,1,38,36,2994452396
2322,13,Improv_Metronome,319,5,42,127,2994532692
2322,13,Improv_Metronome,320,1,38,53,2994561600
2322,13,Improv_Metronome,321,5,42,127,2995032668
2322,13,Improv_Metronome,322,1,48,65,2995044236
2322,13,Improv_Metronome,323,5,42,127,2995533036
2322,13,Improv_Metronome,324,1,48,66,2995547152
2322,13,Improv_Metronome,325,5,42,127,2996032804
2322,13,Improv_Metronome,326,1,48,51,2996047072
2322,13,Improv_Metronome,327,5,42,127,2996532572
2322,13,Improv_Metronome,328,1,48,57,2996574364
2322,13,Improv_Metronome,329,5,42,127,2997033540
2322,13,Improv_Metronome,330,1,38,61,2997062916
2322,13,Improv_Metronome,331,1,38,46,2997242956
2322,13,Improv_Metronome,332,5,42,127,2997532988
2322,13,Improv_Metronome,333,1,38,52,2997535072
2322,13,Improv_Metronome,334,5,42,127,2998032608
2322,13,Improv_Metronome,335,1,48,50,2998058320
2322,13,Improv_Metronome,336,5,42,127,2998532452
2322,13,Improv_Metronome,337,1,48,58,2998567880
2322,13,Improv_Metronome,338,1,48,54,2998999344
2322,13,Improv_Metronome,339,5,42,127,2999033188
2322,13,Improv_Metronome,340,5,42,127,2999532816
2322,13,Improv_Metronome,341,1,48,63,2999555380
2322,13,Improv_Metronome,342,1,38,39,3000016908
2322,13,Improv_Metronome,343,5,42,127,3000032724
2322,13,Improv_Metronome,344,1,38,54,3000160068
2322,13,Improv_Metronome,345,1,38,55,3000413036
2322,13,Improv_Metronome,346,1,38,43,3000523364
2322,13,Improv_Metronome,347,5,42,127,3000533424
2322,13,Improv_Metronome,0,9999,9999,9999,2931030064
2322,13,Improv_Metronome,1,9999,9999,9999,2931530828
2322,13,Improv_Metronome,2,9999,9999,9999,2932030536
2322,13,Improv_Metronome,3,9999,9999,9999,2932530264
2322,13,Improv_Metronome,4,9999,9999,9999,2933031012
2322,13,Improv_Metronome,5,9999,9999,9999,2933530708
2322,13,Improv_Metronome,6,9999,9999,9999,2934030396
2322,13,Improv_Metronome,7,9999,9999,9999,2934530120
2322,13,Improv_Metronome,8,9999,9999,9999,2935030868
2322,13,Improv_Metronome,9,9999,9999,9999,2935530556
2322,13,Improv_Metronome,10,9999,9999,9999,2936030324
2322,13,Improv_Metronome,11,9999,9999,9999,2936531020
2322,13,Improv_Metronome,12,9999,9999,9999,2937030724
2322,13,Improv_Metronome,13,9999,9999,9999,2937530416
2322,13,Improv_Metronome,14,9999,9999,9999,2938030188
2322,13,Improv_Metronome,15,9999,9999,9999,2938530880
2322,13,Improv_Metronome,16,9999,9999,9999,2939030580
2322,13,Improv_Metronome,17,9999,9999,9999,2939530348
2322,13,Improv_Metronome,18,9999,9999,9999,2940031060
2322,13,Improv_Metronome,19,9999,9999,9999,2940530764
2322,13,Improv_Metronome,20,9999,9999,9999,2941030516
2322,13,Improv_Metronome,21,9999,9999,9999,2941530208
2322,13,Improv_Metronome,22,9999,9999,9999,2942030952
2322,13,Improv_Metronome,23,9999,9999,9999,2942530672
2322,13,Improv_Metronome,24,9999,9999,9999,2943030328
2322,13,Improv_Metronome,25,9999,9999,9999,2943531072
2322,13,Improv_Metronome,26,9999,9999,9999,2944030768
2322,13,Improv_Metronome,27,9999,9999,9999,2944530516
2322,13,Improv_Metronome,28,9999,9999,9999,2945030264
2322,13,Improv_Metronome,29,9999,9999,9999,2945530932
2322,13,Improv_Metronome,30,9999,9999,9999,2946030700
2322,13,Improv_Metronome,31,9999,9999,9999,2946530396
2322,13,Improv_Metronome,32,9999,9999,9999,2947030092
2322,13,Improv_Metronome,33,9999,9999,9999,2947530828
2322,13,Improv_Metronome,34,9999,9999,9999,2948030524
2322,13,Improv_Metronome,35,9999,9999,9999,2948530248
2322,13,Improv_Metronome,36,9999,9999,9999,2949030988
2322,13,Improv_Metronome,37,9999,9999,9999,2949530684
2322,13,Improv_Metronome,38,9999,9999,9999,2950030452
2322,13,Improv_Metronome,39,9999,9999,9999,2950530152
2322,13,Improv_Metronome,40,9999,9999,9999,2951030892
2322,13,Improv_Metronome,41,9999,9999,9999,2951530588
2322,13,Improv_Metronome,42,9999,9999,9999,2952030284
2322,13,Improv_Metronome,43,9999,9999,9999,2952531056
2322,13,Improv_Metronome,44,9999,9999,9999,2953030736
2322,13,Improv_Metronome,45,9999,9999,9999,2953530428
2322,13,Improv_Metronome,46,9999,9999,9999,2954030192
2322,13,Improv_Metronome,47,9999,9999,9999,2954530896
2322,13,Improv_Metronome,48,9999,9999,9999,2955030588
2322,13,Improv_Metronome,49,9999,9999,9999,2955530360
2322,13,Improv_Metronome,50,9999,9999,9999,2956031092
2322,13,Improv_Metronome,51,9999,9999,9999,2956530744
2322,13,Improv_Metronome,52,9999,9999,9999,2957030520
2322,13,Improv_Metronome,53,9999,9999,9999,2957530216
2322,13,Improv_Metronome,54,9999,9999,9999,2958030952
2322,13,Improv_Metronome,55,9999,9999,9999,2958530676
2322,13,Improv_Metronome,56,9999,9999,9999,2959030376
2322,13,Improv_Metronome,57,9999,9999,9999,2959531120
2322,13,Improv_Metronome,58,9999,9999,9999,2960030808
2322,13,Improv_Metronome,59,9999,9999,9999,2960530512
2322,13,Improv_Metronome,60,9999,9999,9999,2961030220
2322,13,Improv_Metronome,61,9999,9999,9999,2961530960
2322,13,Improv_Metronome,62,9999,9999,9999,2962030656
2322,13,Improv_Metronome,63,9999,9999,9999,2962530404
2322,13,Improv_Metronome,64,9999,9999,9999,2963030100
2322,13,Improv_Metronome,65,9999,9999,9999,2963530840
2322,13,Improv_Metronome,66,9999,9999,9999,2964030536
2322,13,Improv_Metronome,67,9999,9999,9999,2964530284
2322,13,Improv_Metronome,68,9999,9999,9999,2965031004
2322,13,Improv_Metronome,69,9999,9999,9999,2965530696
2322,13,Improv_Metronome,70,9999,9999,9999,2966030392
2322,13,Improv_Metronome,71,9999,9999,9999,2966530136
2322,13,Improv_Metronome,72,9999,9999,9999,2967030860
2322,13,Improv_Metronome,73,9999,9999,9999,2967530556
2322,13,Improv_Metronome,74,9999,9999,9999,2968030320
2322,13,Improv_Metronome,75,9999,9999,9999,2968531016
2322,13,Improv_Metronome,76,9999,9999,9999,2969030712
2322,13,Improv_Metronome,77,9999,9999,9999,2969530488
2322,13,Improv_Metronome,78,9999,9999,9999,2970030184
2322,13,Improv_Metronome,79,9999,9999,9999,2970530896
2322,13,Improv_Metronome,80,9999,9999,9999,2971030596
2322,13,Improv_Metronome,81,9999,9999,9999,2971530292
2322,13,Improv_Metronome,82,9999,9999,9999,2972031080
2322,13,Improv_Metronome,83,9999,9999,9999,2972530768
2322,13,Improv_Metronome,84,9999,9999,9999,2973030472
2322,13,Improv_Metronome,85,9999,9999,9999,2973530232
2322,13,Improv_Metronome,86,9999,9999,9999,2974030900
2322,13,Improv_Metronome,87,9999,9999,9999,2974530632
2322,13,Improv_Metronome,88,9999,9999,9999,2975030392
2322,13,Improv_Metronome,89,9999,9999,9999,2975531064
2322,13,Improv_Metronome,90,9999,9999,9999,2976030828
2322,13,Improv_Metronome,91,9999,9999,9999,2976530552
2322,13,Improv_Metronome,92,9999,9999,9999,2977030248
2322,13,Improv_Metronome,93,9999,9999,9999,2977530996
2322,13,Improv_Metronome,94,9999,9999,9999,2978030692
2322,13,Improv_Metronome,95,9999,9999,9999,2978530360
2322,13,Improv_Metronome,96,9999,9999,9999,2979030112
2322,13,Improv_Metronome,97,9999,9999,9999,2979530856
2322,13,Improv_Metronome,98,9999,9999,9999,2980030552
2322,13,Improv_Metronome,99,9999,9999,9999,2980530240
2322,13,Improv_Metronome,100,9999,9999,9999,2981030984
2322,13,Improv_Metronome,101,9999,9999,9999,2981530676
2322,13,Improv_Metronome,102,9999,9999,9999,2982030396
2322,13,Improv_Metronome,103,9999,9999,9999,2982530144
2322,13,Improv_Metronome,104,9999,9999,9999,2983030892
2322,13,Improv_Metronome,105,9999,9999,9999,2983530588
2322,13,Improv_Metronome,106,9999,9999,9999,2984030276
2322,13,Improv_Metronome,107,9999,9999,9999,2984531052
2322,13,Improv_Metronome,108,9999,9999,9999,2985030752
2322,13,Improv_Metronome,109,9999,9999,9999,2985530440
2322,13,Improv_Metronome,110,9999,9999,9999,2986030136
2322,13,Improv_Metronome,111,9999,9999,9999,2986530908
2322,13,Improv_Metronome,112,9999,9999,9999,2987030608
2322,13,Improv_Metronome,113,9999,9999,9999,2987530300
2322,13,Improv_Metronome,114,9999,9999,9999,2988031040
2322,13,Improv_Metronome,115,9999,9999,9999,2988530784
2322,13,Improv_Metronome,116,9999,9999,9999,2989030464
2322,13,Improv_Metronome,117,9999,9999,9999,2989530232
2322,13,Improv_Metronome,118,9999,9999,9999,2990030900
2322,13,Improv_Metronome,119,9999,9999,9999,2990530640
2322,13,Improv_Metronome,120,9999,9999,9999,2991030320
2322,13,Improv_Metronome,121,9999,9999,9999,2991531060
2322,13,Improv_Metronome,122,9999,9999,9999,2992030824
2322,13,Improv_Metronome,123,9999,9999,9999,2992530552
2322,13,Improv_Metronome,124,9999,9999,9999,2993030244
2322,13,Improv_Metronome,125,9999,9999,9999,2993530968
2322,13,Improv_Metronome,126,9999,9999,9999,2994030656
2322,13,Improv_Metronome,127,9999,9999,9999,2994530404
2322,13,Improv_Metronome,128,9999,9999,9999,2995030084
2322,13,Improv_Metronome,129,9999,9999,9999,2995530824
2322,13,Improv_Metronome,130,9999,9999,9999,2996030516
2322,13,Improv_Metronome,131,9999,9999,9999,2996530284
2322,13,Improv_Metronome,132,9999,9999,9999,2997031028
2322,13,Improv_Metronome,133,9999,9999,9999,2997530700
2322,13,Improv_Metronome,134,9999,9999,9999,2998030396
2322,13,Improv_Metronome,135,9999,9999,9999,2998530164
2322,13,Improv_Metronome,136,9999,9999,9999,2999030900
2322,13,Improv_Metronome,137,9999,9999,9999,2999530600
2322,13,Improv_Metronome,138,9999,9999,9999,3000030288
2322,13,Improv_Metronome,139,9999,9999,9999,3000531060
2323,14,Improv_Melody,0,1,38,12,3050932084
2323,14,Improv_Melody,1,1,38,13,3050932848
2323,14,Improv_Melody,2,1,38,15,3050933512
2323,14,Improv_Melody,3,2,48,80,3051436388
2323,14,Improv_Melody,4,2,72,80,3051438548
2323,14,Improv_Melody,5,5,42,127,3051441236
2323,14,Improv_Melody,6,5,42,110,3051934072
2323,14,Improv_Melody,7,5,42,110,3052433720
2323,14,Improv_Melody,8,1,38,9,3052454944
2323,14,Improv_Melody,9,5,42,110,3052933572
2323,14,Improv_Melody,10,5,42,127,3053434312
2323,14,Improv_Melody,11,5,42,110,3053933888
2323,14,Improv_Melody,12,5,42,110,3054433904
2323,14,Improv_Melody,13,5,42,110,3054934304
2323,14,Improv_Melody,14,2,43,80,3055436908
2323,14,Improv_Melody,15,2,67,80,3055438752
2323,14,Improv_Melody,16,5,42,127,3055441292
2323,14,Improv_Melody,17,5,42,110,3055933832
2323,14,Improv_Melody,18,5,42,110,3056433704
2323,14,Improv_Melody,19,5,42,110,3056934396
2323,14,Improv_Melody,20,5,42,127,3057433896
2323,14,Improv_Melody,21,5,42,110,3057933620
2323,14,Improv_Melody,22,5,42,110,3058434536
2323,14,Improv_Melody,23,5,42,110,3058934256
2323,14,Improv_Melody,24,2,45,80,3059436484
2323,14,Improv_Melody,25,2,69,80,3059438560
2323,14,Improv_Melody,26,5,42,127,3059441096
2323,14,Improv_Melody,27,1,48,38,3059444892
2323,14,Improv_Melody,28,5,42,110,3059933468
2323,14,Improv_Melody,29,1,38,73,3060400756
2323,14,Improv_Melody,30,5,42,110,3060434452
2323,14,Improv_Melody,31,5,42,110,3060933936
2323,14,Improv_Melody,32,1,48,49,3061389256
2323,14,Improv_Melody,33,5,42,127,3061433652
2323,14,Improv_Melody,34,5,42,110,3061933508
2323,14,Improv_Melody,35,5,42,110,3062434348
2323,14,Improv_Melody,36,1,38,45,3062436288
2323,14,Improv_Melody,37,5,42,110,3062933824
2323,14,Improv_Melody,38,2,41,80,3063436276
2323,14,Improv_Melody,39,2,65,80,3063438204
2323,14,Improv_Melody,40,5,42,127,3063440744
2323,14,Improv_Melody,41,1,48,55,3063444612
2323,14,Improv_Melody,42,5,42,110,3063934284
2323,14,Improv_Melody,43,1,38,54,3064413244
2323,14,Improv_Melody,44,5,42,110,3064434224
2323,14,Improv_Melody,45,5,42,110,3064933636
2323,14,Improv_Melody,46,1,48,60,3065427252
2323,14,Improv_Melody,47,5,42,127,3065433500
2323,14,Improv_Melody,48,1,38,24,3065910120
2323,14,Improv_Melody,49,5,42,110,3065934320
2323,14,Improv_Melody,50,1,38,50,3066417148
2323,14,Improv_Melody,51,5,42,110,3066433872
2323,14,Improv_Melody,52,1,48,53,3066887080
2323,14,Improv_Melody,53,5,42,110,3066933572
2323,14,Improv_Melody,54,1,48,54,3067389032
2323,14,Improv_Melody,55,2,48,80,3067437128
2323,14,Improv_Melody,56,2,72,80,3067439204
2323,14,Improv_Melody,57,5,42,127,3067441660
2323,14,Improv_Melody,58,1,38,56,3067928088
2323,14,Improv_Melody,59,5,42,110,3067933960
2323,14,Improv_Melody,60,5,42,110,3068433816
2323,14,Improv_Melody,61,1,48,47,3068885992
2323,14,Improv_Melody,62,5,42,110,3068933456
2323,14,Improv_Melody,63,1,48,51,3069397440
2323,14,Improv_Melody,64,5,42,127,3069434204
2323,14,Improv_Melody,65,1,38,49,3069912548
2323,14,Improv_Melody,66,5,42,110,3069934128
2323,14,Improv_Melody,67,5,42,110,3070433684
2323,14,Improv_Melody,68,5,42,110,3070934304
2323,14,Improv_Melody,69,1,38,49,3071426804
2323,14,Improv_Melody,70,2,43,80,3071436748
2323,14,Improv_Melody,71,2,67,80,3071438748
2323,14,Improv_Melody,72,5,42,127,3071441212
2323,14,Improv_Melody,73,1,38,50,3071928384
2323,14,Improv_Melody,74,5,42,110,3071934180
2323,14,Improv_Melody,75,1,48,51,3072404896
2323,14,Improv_Melody,76,5,42,110,3072433660
2323,14,Improv_Melody,77,1,48,45,3072916644
2323,14,Improv_Melody,78,5,42,110,3072934184
2323,14,Improv_Melody,79,5,42,127,3073433964
2323,14,Improv_Melody,80,1,38,52,3073449424
2323,14,Improv_Melody,81,1,38,46,3073922100
2323,14,Improv_Melody,82,5,42,110,3073933656
2323,14,Improv_Melody,83,1,48,49,3074407712
2323,14,Improv_Melody,84,5,42,110,3074434328
2323,14,Improv_Melody,85,1,48,52,3074895292
2323,14,Improv_Melody,86,5,42,110,3074934076
2323,14,Improv_Melody,87,2,45,80,3075436284
2323,14,Improv_Melody,88,2,69,80,3075438588
2323,14,Improv_Melody,89,5,42,127,3075441052
2323,14,Improv_Melody,90,1,38,52,3075466036
2323,14,Improv_Melody,91,5,42,110,3075933720
2323,14,Improv_Melody,92,1,48,53,3076428312
2323,14,Improv_Melody,93,5,42,110,3076434780
2323,14,Improv_Melody,94,5,42,110,3076933968
2323,14,Improv_Melody,95,1,48,18,3076971192
2323,14,Improv_Melody,96,5,42,127,3077433592
2323,14,Improv_Melody,97,1,38,47,3077476580
2323,14,Improv_Melody,98,5,42,110,3077933440
2323,14,Improv_Melody,99,1,48,54,3078393320
2323,14,Improv_Melody,100,5,42,110,3078434124
2323,14,Improv_Melody,101,1,48,46,3078899304
2323,14,Improv_Melody,102,5,42,110,3078933824
2323,14,Improv_Melody,103,2,41,80,3079436112
2323,14,Improv_Melody,104,2,65,80,3079438416
2323,14,Improv_Melody,105,5,42,127,3079440800
2323,14,Improv_Melody,106,1,38,54,3079456408
2323,14,Improv_Melody,107,5,42,110,3079934512
2323,14,Improv_Melody,108,1,48,38,3079978624
2323,14,Improv_Melody,109,5,42,110,3080433916
2323,14,Improv_Melody,110,1,48,49,3080445560
2323,14,Improv_Melody,111,5,42,110,3080933764
2323,14,Improv_Melody,112,1,38,52,3080957528
2323,14,Improv_Melody,113,1,48,51,3081401484
2323,14,Improv_Melody,114,5,42,127,3081433532
2323,14,Improv_Melody,115,1,48,51,3081925644
2323,14,Improv_Melody,116,5,42,110,3081934280
2323,14,Improv_Melody,117,1,38,51,3082428708
2323,14,Improv_Melody,118,5,42,110,3082433980
2323,14,Improv_Melody,119,5,42,110,3082933612
2323,14,Improv_Melody,120,1,48,60,3083421396
2323,14,Improv_Melody,121,2,48,80,3083436804
2323,14,Improv_Melody,122,2,72,80,3083438956
2323,14,Improv_Melody,123,5,42,127,3083441644
2323,14,Improv_Melody,124,5,42,110,3083934244
2323,14,Improv_Melody,125,5,42,110,3084433892
2323,14,Improv_Melody,126,1,38,59,3084436488
2323,14,Improv_Melody,127,5,42,110,3084933444
2323,14,Improv_Melody,128,1,48,63,3085416036
2323,14,Improv_Melody,129,5,42,127,3085434328
2323,14,Improv_Melody,130,5,42,110,3085933812
2323,14,Improv_Melody,131,1,38,56,3086417556
2323,14,Improv_Melody,132,5,42,110,3086433676
2323,14,Improv_Melody,133,5,42,110,3086934280
2323,14,Improv_Melody,134,1,48,64,3087431336
2323,14,Improv_Melody,135,2,43,80,3087436496
2323,14,Improv_Melody,136,2,67,80,3087439100
2323,14,Improv_Melody,137,5,42,127,3087441412
2323,14,Improv_Melody,138,5,42,110,3087933860
2323,14,Improv_Melody,139,1,38,56,3088422320
2323,14,Improv_Melody,140,5,42,110,3088433428
2323,14,Improv_Melody,141,1,48,47,3088933204
2323,14,Improv_Melody,142,5,42,110,3088935072
2323,14,Improv_Melody,143,1,48,55,3089421348
2323,14,Improv_Melody,144,5,42,127,3089434096
2323,14,Improv_Melody,145,5,42,110,3089933732
2323,14,Improv_Melody,146,1,38,57,3089961456
2323,14,Improv_Melody,147,1,48,57,3090406156
2323,14,Improv_Melody,148,5,42,110,3090434544
2323,14,Improv_Melody,149,5,42,110,3090934176
2323,14,Improv_Melody,150,1,38,57,3090942528
2323,14,Improv_Melody,151,1,48,57,3091425304
2323,14,Improv_Melody,152,2,45,80,3091436372
2323,14,Improv_Melody,153,2,69,80,3091438604
2323,14,Improv_Melody,154,5,42,127,3091441136
2323,14,Improv_Melody,155,5,42,110,3091933588
2323,14,Improv_Melody,156,5,42,110,3092434208
2323,14,Improv_Melody,157,1,38,57,3092439944
2323,14,Improv_Melody,158,5,42,110,3092933984
2323,14,Improv_Melody,159,1,48,64,3093424832
2323,14,Improv_Melody,160,5,42,127,3093433924
2323,14,Improv_Melody,161,5,42,110,3093933556
2323,14,Improv_Melody,162,1,38,53,3094400024
2323,14,Improv_Melody,163,5,42,110,3094434092
2323,14,Improv_Melody,164,5,42,110,3094934020
2323,14,Improv_Melody,165,1,48,52,3095422924
2323,14,Improv_Melody,166,2,41,80,3095436168
2323,14,Improv_Melody,167,2,65,80,3095438396
2323,14,Improv_Melody,168,5,42,127,3095440932
2323,14,Improv_Melody,169,5,42,110,3095934352
2323,14,Improv_Melody,170,1,38,55,3096428772
2323,14,Improv_Melody,171,5,42,110,3096434044
2323,14,Improv_Melody,172,5,42,110,3096933900
2323,14,Improv_Melody,173,1,48,55,3097413008
2323,14,Improv_Melody,174,5,42,127,3097433540
2323,14,Improv_Melody,175,5,42,110,3097934148
2323,14,Improv_Melody,176,5,42,110,3098433868
2323,14,Improv_Melody,177,1,38,58,3098450376
2323,14,Improv_Melody,178,5,42,110,3098933716
2323,14,Improv_Melody,179,2,48,80,3099436992
2323,14,Improv_Melody,180,2,72,80,3099439148
2323,14,Improv_Melody,181,5,42,127,3099441680
2323,14,Improv_Melody,182,1,48,55,3099447496
2323,14,Improv_Melody,183,5,42,110,3099934048
2323,14,Improv_Melody,184,1,38,49,3100394304
2323,14,Improv_Melody,185,5,42,110,3100433688
2323,14,Improv_Melody,186,5,42,110,3100933768
2323,14,Improv_Melody,187,1,48,59,3101403600
2323,14,Improv_Melody,188,5,42,127,3101434308
2323,14,Improv_Melody,189,5,42,110,3101933864
2323,14,Improv_Melody,190,1,38,31,3101994576
2323,14,Improv_Melody,191,1,38,48,3102408608
2323,14,Improv_Melody,192,5,42,110,3102433560
2323,14,Improv_Melody,193,5,42,110,3102934536
2323,14,Improv_Melody,194,1,38,46,3102937056
2323,14,Improv_Melody,195,2,43,80,3103436588
2323,14,Improv_Melody,196,2,67,80,3103438520
2323,14,Improv_Melody,197,5,42,127,3103441208
2323,14,Improv_Melody,198,1,48,55,3103465568
2323,14,Improv_Melody,199,5,42,110,3103933800
2323,14,Improv_Melody,200,1,38,50,3103962796
2323,14,Improv_Melody,201,1,48,54,3104427248
2323,14,Improv_Melody,202,5,42,110,3104433568
2323,14,Improv_Melody,203,5,42,110,3104934544
2323,14,Improv_Melody,204,1,38,47,3104942000
2323,14,Improv_Melody,205,5,42,127,3105433944
2323,14,Improv_Melody,206,1,48,56,3105452104
2323,14,Improv_Melody,207,1,38,46,3105915624
2323,14,Improv_Melody,208,5,42,110,3105933692
2323,14,Improv_Melody,209,1,48,59,3106417096
2323,14,Improv_Melody,210,5,42,110,3106434436
2323,14,Improv_Melody,211,1,48,55,3106906848
2323,14,Improv_Melody,212,5,42,110,3106934260
2323,14,Improv_Melody,213,1,38,57,3107433628
2323,14,Improv_Melody,214,2,45,80,3107438792
2323,14,Improv_Melody,215,2,69,80,3107440716
2323,14,Improv_Melody,216,5,42,127,3107443400
2323,14,Improv_Melody,217,5,42,110,3107933456
2323,14,Improv_Melody,218,1,48,51,3107988512
2323,14,Improv_Melody,219,5,42,110,3108434280
2323,14,Improv_Melody,220,1,48,58,3108452956
2323,14,Improv_Melody,221,1,38,58,3108930340
2323,14,Improv_Melody,222,5,42,110,3108934268
2323,14,Improv_Melody,223,1,48,65,3109408424
2323,14,Improv_Melody,224,5,42,127,3109433744
2323,14,Improv_Melody,225,1,48,51,3109904308
2323,14,Improv_Melody,226,5,42,110,3109933372
2323,14,Improv_Melody,227,5,42,110,3110434048
2323,14,Improv_Melody,228,1,38,53,3110435460
2323,14,Improv_Melody,229,5,42,110,3110933972
2323,14,Improv_Melody,230,1,48,58,3110940160
2323,14,Improv_Melody,231,2,41,80,3111436024
2323,14,Improv_Melody,232,2,65,80,3111438032
2323,14,Improv_Melody,233,5,42,127,3111440496
2323,14,Improv_Melody,234,1,48,56,3111453716
2323,14,Improv_Melody,235,5,42,110,3111934284
2323,14,Improv_Melody,236,1,38,51,3111945856
2323,14,Improv_Melody,237,1,48,61,3112424064
2323,14,Improv_Melody,238,5,42,110,3112434200
2323,14,Improv_Melody,239,5,42,110,3112933832
2323,14,Improv_Melody,240,1,48,54,3112936956
2323,14,Improv_Melody,241,5,42,127,3113433384
2323,14,Improv_Melody,242,1,38,49,3113450640
2323,14,Improv_Melody,243,1,48,62,3113929596
2323,14,Improv_Melody,244,5,42,110,3113934272
2323,14,Improv_Melody,245,1,48,57,3114412016
2323,14,Improv_Melody,246,5,42,110,3114433900
2323,14,Improv_Melody,247,1,48,17,3114527508
2323,14,Improv_Melody,248,1,38,49,3114917680
2323,14,Improv_Melody,249,5,42,110,3114933504
2323,14,Improv_Melody,250,2,48,80,3115436916
2323,14,Improv_Melody,251,2,72,80,3115439144
2323,14,Improv_Melody,252,5,42,127,3115441824
2323,14,Improv_Melody,253,1,48,67,3115460880
2323,14,Improv_Melody,254,5,42,110,3115934044
2323,14,Improv_Melody,255,5,42,110,3116433840
2323,14,Improv_Melody,256,1,38,54,3116440252
2323,14,Improv_Melody,257,5,42,110,3116933616
2323,14,Improv_Melody,258,1,48,63,3117406344
2323,14,Improv_Melody,259,5,42,127,3117434204
2323,14,Improv_Melody,260,5,42,110,3117933984
2323,14,Improv_Melody,261,1,38,54,3118423860
2323,14,Improv_Melody,262,5,42,110,3118433848
2323,14,Improv_Melody,263,5,42,110,3118934304
2323,14,Improv_Melody,264,1,48,58,3119428824
2323,14,Improv_Melody,265,2,43,80,3119436600
2323,14,Improv_Melody,266,2,67,80,3119438600
2323,14,Improv_Melody,267,5,42,127,3119441140
2323,14,Improv_Melody,268,1,48,51,3119902576
2323,14,Improv_Melody,269,5,42,110,3119933660
2323,14,Improv_Melody,270,1,38,57,3120429728
2323,14,Improv_Melody,271,5,42,110,3120433584
2323,14,Improv_Melody,272,5,42,110,3120934116
2323,14,Improv_Melody,273,1,48,50,3121410600
2323,14,Improv_Melody,274,5,42,127,3121433980
2323,14,Improv_Melody,275,1,48,48,3121875596
2323,14,Improv_Melody,276,5,42,110,3121933828
2323,14,Improv_Melody,277,5,42,110,3122434508
2323,14,Improv_Melody,278,1,38,55,3122489540
2323,14,Improv_Melody,279,5,42,110,3122934132
2323,14,Improv_Melody,280,1,48,49,3123411816
2323,14,Improv_Melody,281,2,45,80,3123436504
2323,14,Improv_Melody,282,2,69,80,3123438580
2323,14,Improv_Melody,283,5,42,127,3123441268
2323,14,Improv_Melody,284,1,48,48,3123919016
2323,14,Improv_Melody,285,5,42,110,3123933488
2323,14,Improv_Melody,286,1,38,58,3124415120
2323,14,Improv_Melody,287,5,42,110,3124434460
2323,14,Improv_Melody,288,5,42,110,3124934168
2323,14,Improv_Melody,289,1,48,48,3125412900
2323,14,Improv_Melody,290,5,42,127,3125433660
2323,14,Improv_Melody,291,1,48,50,3125905720
2323,14,Improv_Melody,292,5,42,110,3125933656
2323,14,Improv_Melody,293,1,38,56,3126406468
2323,14,Improv_Melody,294,5,42,110,3126434028
2323,14,Improv_Melody,295,1,48,57,3126876448
2323,14,Improv_Melody,296,5,42,110,3126933804
2323,14,Improv_Melody,297,1,48,49,3127392148
2323,14,Improv_Melody,298,2,41,80,3127436388
2323,14,Improv_Melody,299,2,65,80,3127438388
2323,14,Improv_Melody,300,5,42,127,3127440992
2323,14,Improv_Melody,301,5,42,110,3127934344
2323,14,Improv_Melody,302,1,38,53,3127937012
2323,14,Improv_Melody,303,5,42,110,3128434168
2323,14,Improv_Melody,304,1,48,52,3128439752
2323,14,Improv_Melody,305,1,48,53,3128917592
2323,14,Improv_Melody,306,5,42,110,3128933636
2323,14,Improv_Melody,307,1,38,59,3129431372
2323,14,Improv_Melody,308,5,42,127,3129434080
2323,14,Improv_Melody,309,5,42,110,3129934388
2323,14,Improv_Melody,310,1,48,60,3129936988
2323,14,Improv_Melody,311,1,48,53,3130418192
2323,14,Improv_Melody,312,5,42,110,3130433784
2323,14,Improv_Melody,313,1,38,59,3130918636
2323,14,Improv_Melody,314,5,42,110,3130933560
2323,14,Improv_Melody,315,1,48,67,3131407716
2323,14,Improv_Melody,316,2,48,80,3131437040
2323,14,Improv_Melody,317,2,72,80,3131439120
2323,14,Improv_Melody,318,5,42,127,3131441724
2323,14,Improv_Melody,319,1,38,57,3131623476
2323,14,Improv_Melody,320,1,48,58,3131918552
2323,14,Improv_Melody,321,5,42,110,3131934076
2323,14,Improv_Melody,322,1,38,66,3132383324
2323,14,Improv_Melody,0,9999,9999,9999,3051432004
2323,14,Improv_Melody,1,9999,9999,9999,3051931704
2323,14,Improv_Melody,2,9999,9999,9999,3052431428
2323,14,Improv_Melody,3,9999,9999,9999,3052931128
2323,14,Improv_Melody,4,9999,9999,9999,3053431872
2323,14,Improv_Melody,5,9999,9999,9999,3053931592
2323,14,Improv_Melody,6,9999,9999,9999,3054431316
2323,14,Improv_Melody,7,9999,9999,9999,3054932084
2323,14,Improv_Melody,8,9999,9999,9999,3055431732
2323,14,Improv_Melody,9,9999,9999,9999,3055931464
2323,14,Improv_Melody,10,9999,9999,9999,3056431188
2323,14,Improv_Melody,11,9999,9999,9999,3056931956
2323,14,Improv_Melody,12,9999,9999,9999,3057431604
2323,14,Improv_Melody,13,9999,9999,9999,3057931324
2323,14,Improv_Melody,14,9999,9999,9999,3058432092
2323,14,Improv_Melody,15,9999,9999,9999,3058931816
2323,14,Improv_Melody,16,9999,9999,9999,3059431536
2323,14,Improv_Melody,17,9999,9999,9999,3059931248
2323,14,Improv_Melody,18,9999,9999,9999,3060431936
2323,14,Improv_Melody,19,9999,9999,9999,3060931644
2323,14,Improv_Melody,20,9999,9999,9999,3061431360
2323,14,Improv_Melody,21,9999,9999,9999,3061931064
2323,14,Improv_Melody,22,9999,9999,9999,3062431832
2323,14,Improv_Melody,23,9999,9999,9999,3062931532
2323,14,Improv_Melody,24,9999,9999,9999,3063431256
2323,14,Improv_Melody,25,9999,9999,9999,3063931992
2323,14,Improv_Melody,26,9999,9999,9999,3064431708
2323,14,Improv_Melody,27,9999,9999,9999,3064931416
2323,14,Improv_Melody,28,9999,9999,9999,3065431132
2323,14,Improv_Melody,29,9999,9999,9999,3065931880
2323,14,Improv_Melody,30,9999,9999,9999,3066431576
2323,14,Improv_Melody,31,9999,9999,9999,3066931276
2323,14,Improv_Melody,32,9999,9999,9999,3067432028
2323,14,Improv_Melody,33,9999,9999,9999,3067931744
2323,14,Improv_Melody,34,9999,9999,9999,3068431448
2323,14,Improv_Melody,35,9999,9999,9999,3068931164
2323,14,Improv_Melody,36,9999,9999,9999,3069431912
2323,14,Improv_Melody,37,9999,9999,9999,3069931612
2323,14,Improv_Melody,38,9999,9999,9999,3070431316
2323,14,Improv_Melody,39,9999,9999,9999,3070932088
2323,14,Improv_Melody,40,9999,9999,9999,3071431728
2323,14,Improv_Melody,41,9999,9999,9999,3071931440
2323,14,Improv_Melody,42,9999,9999,9999,3072431216
2323,14,Improv_Melody,43,9999,9999,9999,3072931888
2323,14,Improv_Melody,44,9999,9999,9999,3073431668
2323,14,Improv_Melody,45,9999,9999,9999,3073931364
2323,14,Improv_Melody,46,9999,9999,9999,3074432112
2323,14,Improv_Melody,47,9999,9999,9999,3074931784
2323,14,Improv_Melody,48,9999,9999,9999,3075431492
2323,14,Improv_Melody,49,9999,9999,9999,3075931204
2323,14,Improv_Melody,50,9999,9999,9999,3076431968
2323,14,Improv_Melody,51,9999,9999,9999,3076931672
2323,14,Improv_Melody,52,9999,9999,9999,3077431372
2323,14,Improv_Melody,53,9999,9999,9999,3077931072
2323,14,Improv_Melody,54,9999,9999,9999,3078431832
2323,14,Improv_Melody,55,9999,9999,9999,3078931532
2323,14,Improv_Melody,56,9999,9999,9999,3079431240
2323,14,Improv_Melody,57,9999,9999,9999,3079931996
2323,14,Improv_Melody,58,9999,9999,9999,3080431696
2323,14,Improv_Melody,59,9999,9999,9999,3080931400
2323,14,Improv_Melody,60,9999,9999,9999,3081431092
2323,14,Improv_Melody,61,9999,9999,9999,3081931840
2323,14,Improv_Melody,62,9999,9999,9999,3082431536
2323,14,Improv_Melody,63,9999,9999,9999,3082931320
2323,14,Improv_Melody,64,9999,9999,9999,3083432008
2323,14,Improv_Melody,65,9999,9999,9999,3083931728
2323,14,Improv_Melody,66,9999,9999,9999,3084431448
2323,14,Improv_Melody,67,9999,9999,9999,3084931152
2323,14,Improv_Melody,68,9999,9999,9999,3085431888
2323,14,Improv_Melody,69,9999,9999,9999,3085931592
2323,14,Improv_Melody,70,9999,9999,9999,3086431308
2323,14,Improv_Melody,71,9999,9999,9999,3086932060
2323,14,Improv_Melody,72,9999,9999,9999,3087431776
2323,14,Improv_Melody,73,9999,9999,9999,3087931496
2323,14,Improv_Melody,74,9999,9999,9999,3088431212
2323,14,Improv_Melody,75,9999,9999,9999,3088931888
2323,14,Improv_Melody,76,9999,9999,9999,3089431656
2323,14,Improv_Melody,77,9999,9999,9999,3089931364
2323,14,Improv_Melody,78,9999,9999,9999,3090432104
2323,14,Improv_Melody,79,9999,9999,9999,3090931808
2323,14,Improv_Melody,80,9999,9999,9999,3091431504
2323,14,Improv_Melody,81,9999,9999,9999,3091931220
2323,14,Improv_Melody,82,9999,9999,9999,3092431988
2323,14,Improv_Melody,83,9999,9999,9999,3092931692
2323,14,Improv_Melody,84,9999,9999,9999,3093431408
2323,14,Improv_Melody,85,9999,9999,9999,3093931112
2323,14,Improv_Melody,86,9999,9999,9999,3094431800
2323,14,Improv_Melody,87,9999,9999,9999,3094931504
2323,14,Improv_Melody,88,9999,9999,9999,3095431220
2323,14,Improv_Melody,89,9999,9999,9999,3095931960
2323,14,Improv_Melody,90,9999,9999,9999,3096431676
2323,14,Improv_Melody,91,9999,9999,9999,3096931384
2323,14,Improv_Melody,92,9999,9999,9999,3097431100
2323,14,Improv_Melody,93,9999,9999,9999,3097931852
2323,14,Improv_Melody,94,9999,9999,9999,3098431576
2323,14,Improv_Melody,95,9999,9999,9999,3098931276
2323,14,Improv_Melody,96,9999,9999,9999,3099432044
2323,14,Improv_Melody,97,9999,9999,9999,3099931756
2323,14,Improv_Melody,98,9999,9999,9999,3100431472
2323,14,Improv_Melody,99,9999,9999,9999,3100931176
2323,14,Improv_Melody,100,9999,9999,9999,3101431864
2323,14,Improv_Melody,101,9999,9999,9999,3101931572
2323,14,Improv_Melody,102,9999,9999,9999,3102431340
2323,14,Improv_Melody,103,9999,9999,9999,3102932020
2323,14,Improv_Melody,104,9999,9999,9999,3103431796
2323,14,Improv_Melody,105,9999,9999,9999,3103931508
2323,14,Improv_Melody,106,9999,9999,9999,3104431200
2323,14,Improv_Melody,107,9999,9999,9999,3104931952
2323,14,Improv_Melody,108,9999,9999,9999,3105431652
2323,14,Improv_Melody,109,9999,9999,9999,3105931324
2323,14,Improv_Melody,110,9999,9999,9999,3106432072
2323,14,Improv_Melody,111,9999,9999,9999,3106931820
2323,14,Improv_Melody,112,9999,9999,9999,3107431528
2323,14,Improv_Melody,113,9999,9999,9999,3107931240
2323,14,Improv_Melody,114,9999,9999,9999,3108431984
2323,14,Improv_Melody,115,9999,9999,9999,3108931680
2323,14,Improv_Melody,116,9999,9999,9999,3109431380
2323,14,Improv_Melody,117,9999,9999,9999,3109931080
2323,14,Improv_Melody,118,9999,9999,9999,3110431828
2323,14,Improv_Melody,119,9999,9999,9999,3110931528
2323,14,Improv_Melody,120,9999,9999,9999,3111431232
2323,14,Improv_Melody,121,9999,9999,9999,3111931992
2323,14,Improv_Melody,122,9999,9999,9999,3112431684
2323,14,Improv_Melody,123,9999,9999,9999,3112931392
2323,14,Improv_Melody,124,9999,9999,9999,3113431092
2323,14,Improv_Melody,125,9999,9999,9999,3113931832
2323,14,Improv_Melody,126,9999,9999,9999,3114431608
2323,14,Improv_Melody,127,9999,9999,9999,3114931288
2323,14,Improv_Melody,128,9999,9999,9999,3115432040
2323,14,Improv_Melody,129,9999,9999,9999,3115931752
2323,14,Improv_Melody,130,9999,9999,9999,3116431476
2323,14,Improv_Melody,131,9999,9999,9999,3116931176
2323,14,Improv_Melody,132,9999,9999,9999,3117431912
2323,14,Improv_Melody,133,9999,9999,9999,3117931620
2323,14,Improv_Melody,134,9999,9999,9999,3118431336
2323,14,Improv_Melody,135,9999,9999,9999,3118932088
2323,14,Improv_Melody,136,9999,9999,9999,3119431728
2323,14,Improv_Melody,137,9999,9999,9999,3119931444
2323,14,Improv_Melody,138,9999,9999,9999,3120431216
2323,14,Improv_Melody,139,9999,9999,9999,3120931896
2323,14,Improv_Melody,140,9999,9999,9999,3121431612
2323,14,Improv_Melody,141,9999,9999,9999,3121931312
2323,14,Improv_Melody,142,9999,9999,9999,3122432068
2323,14,Improv_Melody,143,9999,9999,9999,3122931764
2323,14,Improv_Melody,144,9999,9999,9999,3123431484
2323,14,Improv_Melody,145,9999,9999,9999,3123931196
2323,14,Improv_Melody,146,9999,9999,9999,3124431944
2323,14,Improv_Melody,147,9999,9999,9999,3124931652
2323,14,Improv_Melody,148,9999,9999,9999,3125431364
2323,14,Improv_Melody,149,9999,9999,9999,3125931064
2323,14,Improv_Melody,150,9999,9999,9999,3126431812
2323,14,Improv_Melody,151,9999,9999,9999,3126931512
2323,14,Improv_Melody,152,9999,9999,9999,3127431284
2323,14,Improv_Melody,153,9999,9999,9999,3127931976
2323,14,Improv_Melody,154,9999,9999,9999,3128431724
2323,14,Improv_Melody,155,9999,9999,9999,3128931420
2323,14,Improv_Melody,156,9999,9999,9999,3129431156
2323,14,Improv_Melody,157,9999,9999,9999,3129931872
2323,14,Improv_Melody,158,9999,9999,9999,3130431564
2323,14,Improv_Melody,159,9999,9999,9999,3130931268
2323,14,Improv_Melody,160,9999,9999,9999,3131432016
2323,14,Improv_Melody,161,9999,9999,9999,3131931708
23