pid,taskRunCount,taskID,taskName,i,channel,pitch,velocity,microseconds
21,1,0,Ticks_Pract_8,0,5,42,127,399977944
21,1,0,Ticks_Pract_8,1,5,42,127,400777504
21,1,0,Ticks_Pract_8,2,5,42,127,401578364
21,1,0,Ticks_Pract_8,3,1,38,35,401699284
21,1,0,Ticks_Pract_8,4,5,42,127,402378052
21,1,0,Ticks_Pract_8,5,1,38,47,402396876
21,1,0,Ticks_Pract_8,6,5,42,127,403178048
21,1,0,Ticks_Pract_8,7,1,38,37,403204196
21,1,0,Ticks_Pract_8,8,5,42,127,403977740
21,1,0,Ticks_Pract_8,9,1,38,40,403982060
21,1,0,Ticks_Pract_8,10,1,38,41,404770748
21,1,0,Ticks_Pract_8,11,5,42,127,404778336
21,1,0,Ticks_Pract_8,12,5,42,127,405578188
21,1,0,Ticks_Pract_8,13,1,38,49,405581900
21,1,0,Ticks_Pract_8,14,5,42,127,406377976
21,1,0,Ticks_Pract_8,15,1,38,47,406403664
21,1,0,Ticks_Pract_8,16,5,42,127,407177668
21,1,0,Ticks_Pract_8,17,1,38,45,407196408
21,1,0,Ticks_Pract_8,18,5,42,127,407978352
21,1,0,Ticks_Pract_8,19,1,38,46,408036084
21,1,0,Ticks_Pract_8,20,1,38,53,408736712
21,1,0,Ticks_Pract_8,21,5,42,127,408778032
21,1,0,Ticks_Pract_8,22,1,38,50,409548848
21,1,0,Ticks_Pract_8,23,5,42,127,409577948
21,1,0,Ticks_Pract_8,24,1,38,56,410350976
21,1,0,Ticks_Pract_8,25,5,42,127,410377716
21,1,0,Ticks_Pract_8,26,1,38,53,411151584
21,1,0,Ticks_Pract_8,27,5,42,127,411178548
21,1,0,Ticks_Pract_8,28,1,38,52,411908388
21,1,0,Ticks_Pract_8,29,5,42,127,411978012
21,1,0,Ticks_Pract_8,30,1,38,49,412755768
21,1,0,Ticks_Pract_8,31,5,42,127,412777880
21,1,0,Ticks_Pract_8,32,1,38,52,413541064
21,1,0,Ticks_Pract_8,33,5,42,127,413577572
21,1,0,Ticks_Pract_8,34,1,38,54,414369140
21,1,0,Ticks_Pract_8,35,5,42,127,414378632
21,1,0,Ticks_Pract_8,36,1,38,49,415135328
21,1,0,Ticks_Pract_8,37,5,42,127,415178096
21,1,0,Ticks_Pract_8,38,1,38,48,415930596
21,1,0,Ticks_Pract_8,39,5,42,127,415977784
21,1,0,Ticks_Pract_8,40,5,42,127,416777560
21,1,0,Ticks_Pract_8,41,1,38,47,416800424
21,1,0,Ticks_Pract_8,42,1,38,50,417528148
21,1,0,Ticks_Pract_8,43,5,42,127,417578388
21,1,0,Ticks_Pract_8,44,1,38,41,418329132
21,1,0,Ticks_Pract_8,45,5,42,127,418378304
21,1,0,Ticks_Pract_8,46,1,38,52,419134772
21,1,0,Ticks_Pract_8,47,5,42,127,419177792
21,1,0,Ticks_Pract_8,48,1,38,58,419909664
21,1,0,Ticks_Pract_8,49,5,42,127,419977480
21,1,0,Ticks_Pract_8,50,1,38,53,420709224
21,1,0,Ticks_Pract_8,51,5,42,127,420778464
21,1,0,Ticks_Pract_8,52,1,38,50,421573468
21,1,0,Ticks_Pract_8,53,5,42,127,421578384
21,1,0,Ticks_Pract_8,54,1,38,52,422317608
21,1,0,Ticks_Pract_8,55,5,42,127,422377924
21,1,0,Ticks_Pract_8,56,1,38,52,423066248
21,1,0,Ticks_Pract_8,57,5,42,127,423177596
21,1,0,Ticks_Pract_8,58,1,38,48,423945984
21,1,0,Ticks_Pract_8,0,9999,9999,9999,399975532
21,1,0,Ticks_Pract_8,1,9999,9999,9999,400775248
21,1,0,Ticks_Pract_8,2,9999,9999,9999,401576032
21,1,0,Ticks_Pract_8,3,9999,9999,9999,402375796
21,1,0,Ticks_Pract_8,4,9999,9999,9999,403175488
21,1,0,Ticks_Pract_8,5,9999,9999,9999,403975252
21,1,0,Ticks_Pract_8,6,9999,9999,9999,404776004
21,1,0,Ticks_Pract_8,7,9999,9999,9999,405575776
21,1,0,Ticks_Pract_8,8,9999,9999,9999,406375492
21,1,0,Ticks_Pract_8,9,9999,9999,9999,407175260
21,1,0,Ticks_Pract_8,10,9999,9999,9999,407976016
21,1,0,Ticks_Pract_8,11,9999,9999,9999,408775772
21,1,0,Ticks_Pract_8,12,9999,9999,9999,409575540
21,1,0,Ticks_Pract_8,13,9999,9999,9999,410375232
21,1,0,Ticks_Pract_8,14,9999,9999,9999,411175988
21,1,0,Ticks_Pract_8,15,9999,9999,9999,411975756
21,1,0,Ticks_Pract_8,16,9999,9999,9999,412775472
21,1,0,Ticks_Pract_8,17,9999,9999,9999,413575240
21,1,0,Ticks_Pract_8,18,9999,9999,9999,414375996
21,1,0,Ticks_Pract_8,19,9999,9999,9999,415175760
21,1,0,Ticks_Pract_8,20,9999,9999,9999,415975528
21,1,0,Ticks_Pract_8,21,9999,9999,9999,416775224
21,1,0,Ticks_Pract_8,22,9999,9999,9999,417576052
21,1,0,Ticks_Pract_8,23,9999,9999,9999,418375740
21,1,0,Ticks_Pract_8,24,9999,9999,9999,419175532
21,1,0,Ticks_Pract_8,25,9999,9999,9999,419975224
21,1,0,Ticks_Pract_8,26,9999,9999,9999,420776056
21,1,0,Ticks_Pract_8,27,9999,9999,9999,421575748
21,1,0,Ticks_Pract_8,28,9999,9999,9999,422375512
21,1,0,Ticks_Pract_8,29,9999,9999,9999,423175264
21,2,1,Ticks_Pract_5,0,5,42,127,435540600
21,2,1,Ticks_Pract_5,1,5,42,127,436039944
21,2,1,Ticks_Pract_5,2,5,42,127,436539820
21,2,1,Ticks_Pract_5,3,5,42,127,437039468
21,2,1,Ticks_Pract_5,4,1,38,40,437052568
21,2,1,Ticks_Pract_5,5,1,38,38,437508528
21,2,1,Ticks_Pract_5,6,5,42,127,437540228
21,2,1,Ticks_Pract_5,7,1,38,43,438009220
21,2,1,Ticks_Pract_5,8,5,42,127,438039852
21,2,1,Ticks_Pract_5,9,1,38,46,438504188
21,2,1,Ticks_Pract_5,10,5,42,127,438539628
21,2,1,Ticks_Pract_5,11,1,38,47,439036924
21,2,1,Ticks_Pract_5,12,5,42,127,439040468
21,2,1,Ticks_Pract_5,13,5,42,127,439540256
21,2,1,Ticks_Pract_5,14,1,38,38,439576472
21,2,1,Ticks_Pract_5,15,5,42,127,440039800
21,2,1,Ticks_Pract_5,16,1,38,40,440070376
21,2,1,Ticks_Pract_5,17,1,38,49,440490016
21,2,1,Ticks_Pract_5,18,5,42,127,440539568
21,2,1,Ticks_Pract_5,19,1,38,44,441022604
21,2,1,Ticks_Pract_5,20,5,42,127,441040260
21,2,1,Ticks_Pract_5,21,1,38,35,441537728
21,2,1,Ticks_Pract_5,22,5,42,127,441539884
21,2,1,Ticks_Pract_5,23,5,42,127,442039744
21,2,1,Ticks_Pract_5,24,1,38,24,442107480
21,2,1,Ticks_Pract_5,25,1,38,44,442508656
21,2,1,Ticks_Pract_5,26,5,42,127,442540428
21,2,1,Ticks_Pract_5,27,1,38,42,442975156
21,2,1,Ticks_Pract_5,28,5,42,127,443040356
21,2,1,Ticks_Pract_5,29,1,38,49,443485464
21,2,1,Ticks_Pract_5,30,5,42,127,443539828
21,2,1,Ticks_Pract_5,31,1,38,55,443979416
21,2,1,Ticks_Pract_5,32,5,42,127,444039452
21,2,1,Ticks_Pract_5,33,1,38,56,444521036
21,2,1,Ticks_Pract_5,34,5,42,127,444540296
21,2,1,Ticks_Pract_5,35,1,38,49,445034700
21,2,1,Ticks_Pract_5,36,5,42,127,445040072
21,2,1,Ticks_Pract_5,37,1,38,55,445521024
21,2,1,Ticks_Pract_5,38,5,42,127,445539620
21,2,1,Ticks_Pract_5,39,1,38,54,446029496
21,2,1,Ticks_Pract_5,40,5,42,127,446040388
21,2,1,Ticks_Pract_5,41,1,38,49,446538760
21,2,1,Ticks_Pract_5,42,5,42,127,446541432
21,2,1,Ticks_Pract_5,43,5,42,127,447039996
21,2,1,Ticks_Pract_5,44,1,38,57,447042408
21,2,1,Ticks_Pract_5,45,1,38,56,447517300
21,2,1,Ticks_Pract_5,46,5,42,127,447539612
21,2,1,Ticks_Pract_5,47,5,42,127,448040388
21,2,1,Ticks_Pract_5,48,1,38,52,448046164
21,2,1,Ticks_Pract_5,49,5,42,127,448540088
21,2,1,Ticks_Pract_5,50,5,42,127,449039964
21,2,1,Ticks_Pract_5,51,1,38,59,449041864
21,2,1,Ticks_Pract_5,52,1,38,46,449522152
21,2,1,Ticks_Pract_5,53,5,42,127,449539504
21,2,1,Ticks_Pract_5,54,1,38,58,450013988
21,2,1,Ticks_Pract_5,55,5,42,127,450040196
21,2,1,Ticks_Pract_5,56,1,38,57,450492168
21,2,1,Ticks_Pract_5,57,5,42,127,450539896
21,2,1,Ticks_Pract_5,58,1,38,57,450999580
21,2,1,Ticks_Pract_5,59,5,42,127,451039520
21,2,1,Ticks_Pract_5,60,1,38,59,451477992
21,2,1,Ticks_Pract_5,61,5,42,127,451540364
21,2,1,Ticks_Pract_5,62,1,38,59,451986004
21,2,1,Ticks_Pract_5,63,5,42,127,452040140
21,2,1,Ticks_Pract_5,64,1,38,61,452508828
21,2,1,Ticks_Pract_5,65,5,42,127,452539988
21,2,1,Ticks_Pract_5,66,1,38,57,453010436
21,2,1,Ticks_Pract_5,67,5,42,127,453039464
21,2,1,Ticks_Pract_5,68,1,38,54,453529360
21,2,1,Ticks_Pract_5,69,5,42,127,453540304
21,2,1,Ticks_Pract_5,70,1,38,55,454004412
21,2,1,Ticks_Pract_5,71,5,42,127,454039928
21,2,1,Ticks_Pract_5,72,1,38,56,454521284
21,2,1,Ticks_Pract_5,73,5,42,127,454539708
21,2,1,Ticks_Pract_5,74,1,38,48,455034640
21,2,1,Ticks_Pract_5,75,5,42,127,455040396
21,2,1,Ticks_Pract_5,76,1,38,53,455537704
21,2,1,Ticks_Pract_5,0,9999,9999,9999,435538044
21,2,1,Ticks_Pract_5,1,9999,9999,9999,436037692
21,2,1,Ticks_Pract_5,2,9999,9999,9999,436537416
21,2,1,Ticks_Pract_5,3,9999,9999,9999,437037140
21,2,1,Ticks_Pract_5,4,9999,9999,9999,437537900
21,2,1,Ticks_Pract_5,5,9999,9999,9999,438037600
21,2,1,Ticks_Pract_5,6,9999,9999,9999,438537300
21,2,1,Ticks_Pract_5,7,9999,9999,9999,439038064
21,2,1,Ticks_Pract_5,8,9999,9999,9999,439537776
21,2,1,Ticks_Pract_5,9,9999,9999,9999,440037472
21,2,1,Ticks_Pract_5,10,9999,9999,9999,440537164
21,2,1,Ticks_Pract_5,11,9999,9999,9999,441037932
21,2,1,Ticks_Pract_5,12,9999,9999,9999,441537596
21,2,1,Ticks_Pract_5,13,9999,9999,9999,442037340
21,2,1,Ticks_Pract_5,14,9999,9999,9999,442538100
21,2,1,Ticks_Pract_5,15,9999,9999,9999,443037800
21,2,1,Ticks_Pract_5,16,9999,9999,9999,443537500
21,2,1,Ticks_Pract_5,17,9999,9999,9999,444037200
21,2,1,Ticks_Pract_5,18,9999,9999,9999,444537968
21,2,1,Ticks_Pract_5,19,9999,9999,9999,445037668
21,2,1,Ticks_Pract_5,20,9999,9999,9999,445537368
21,2,1,Ticks_Pract_5,21,9999,9999,9999,446038136
21,2,1,Ticks_Pract_5,22,9999,9999,9999,446537816
21,2,1,Ticks_Pract_5,23,9999,9999,9999,447037516
21,2,1,Ticks_Pract_5,24,9999,9999,9999,447537208
21,2,1,Ticks_Pract_5,25,9999,9999,9999,448037984
21,2,1,Ticks_Pract_5,26,9999,9999,9999,448537684
21,2,1,Ticks_Pract_5,27,9999,9999,9999,449037408
21,2,1,Ticks_Pract_5,28,9999,9999,9999,449537100
21,2,1,Ticks_Pract_5,29,9999,9999,9999,450037868
21,2,1,Ticks_Pract_5,30,9999,9999,9999,450537568
21,2,1,Ticks_Pract_5,31,9999,9999,9999,451037268
21,2,1,Ticks_Pract_5,32,9999,9999,9999,451538036
21,2,1,Ticks_Pract_5,33,9999,9999,9999,452037736
21,2,1,Ticks_Pract_5,34,9999,9999,9999,452537436
21,2,1,Ticks_Pract_5,35,9999,9999,9999,453037136
21,2,1,Ticks_Pract_5,36,9999,9999,9999,453537900
21,2,1,Ticks_Pract_5,37,9999,9999,9999,454037600
21,2,1,Ticks_Pract_5,38,9999,9999,9999,454537304
21,2,1,Ticks_Pract_5,39,9999,9999,9999,455038068
21,1,2,T1_SMS_8,0,5,42,127,20682248
21,1,2,T1_SMS_8,1,5,42,127,21481736
21,1,2,T1_SMS_8,2,5,42,127,22281600
21,1,2,T1_SMS_8,3,1,48,54,22344020
21,1,2,T1_SMS_8,4,1,48,57,23070496
21,1,2,T1_SMS_8,5,5,42,127,23082300
21,1,2,T1_SMS_8,6,1,48,50,23864792
21,1,2,T1_SMS_8,7,5,42,127,23882068
21,1,2,T1_SMS_8,8,1,48,47,24668756
21,1,2,T1_SMS_8,9,5,42,127,24682212
21,1,2,T1_SMS_8,10,1,48,51,25454864
21,1,2,T1_SMS_8,11,5,42,127,25481676
21,1,2,T1_SMS_8,12,5,42,127,26282292
21,1,2,T1_SMS_8,13,1,48,50,26284268
21,1,2,T1_SMS_8,14,5,42,127,27082060
21,1,2,T1_SMS_8,15,1,48,44,27085388
21,1,2,T1_SMS_8,16,1,48,47,27865760
21,1,2,T1_SMS_8,17,5,42,127,27881968
21,1,2,T1_SMS_8,18,1,48,44,28657364
21,1,2,T1_SMS_8,19,5,42,127,28681736
21,1,2,T1_SMS_8,20,1,48,54,29438816
21,1,2,T1_SMS_8,21,5,42,127,29482364
21,1,2,T1_SMS_8,22,1,48,51,30255544
21,1,2,T1_SMS_8,23,5,42,127,30282056
21,1,2,T1_SMS_8,24,1,48,55,31078128
21,1,2,T1_SMS_8,25,5,42,127,31081824
21,1,2,T1_SMS_8,26,1,48,54,31869124
21,1,2,T1_SMS_8,27,5,42,127,31881664
21,1,2,T1_SMS_8,28,5,42,127,32682656
21,1,2,T1_SMS_8,29,1,48,52,32696752
21,1,2,T1_SMS_8,30,5,42,127,33482120
21,1,2,T1_SMS_8,31,1,48,54,33497664
21,1,2,T1_SMS_8,32,5,42,127,34281732
21,1,2,T1_SMS_8,33,1,48,48,34297352
21,1,2,T1_SMS_8,34,1,48,48,35071692
21,1,2,T1_SMS_8,35,5,42,127,35081720
21,1,2,T1_SMS_8,36,1,48,56,35847728
21,1,2,T1_SMS_8,37,5,42,127,35882728
21,1,2,T1_SMS_8,38,5,42,127,36682276
21,1,2,T1_SMS_8,39,1,48,54,36686824
21,1,2,T1_SMS_8,40,5,42,127,37481740
21,1,2,T1_SMS_8,41,1,48,48,37511092
21,1,2,T1_SMS_8,42,5,42,127,38281584
21,1,2,T1_SMS_8,43,1,48,46,38287280
21,1,2,T1_SMS_8,44,5,42,127,39082492
21,1,2,T1_SMS_8,45,1,48,53,39097960
21,1,2,T1_SMS_8,46,1,48,53,39868180
21,1,2,T1_SMS_8,47,5,42,127,39882252
21,1,2,T1_SMS_8,48,1,48,45,40617280
21,1,2,T1_SMS_8,49,5,42,127,40681940
21,1,2,T1_SMS_8,50,1,48,43,41441844
21,1,2,T1_SMS_8,51,5,42,127,41481404
21,1,2,T1_SMS_8,52,1,48,47,42264348
21,1,2,T1_SMS_8,53,5,42,127,42282264
21,1,2,T1_SMS_8,54,1,48,45,43062996
21,1,2,T1_SMS_8,55,5,42,127,43082560
21,1,2,T1_SMS_8,56,1,48,38,43839796
21,1,2,T1_SMS_8,57,5,42,127,43882024
21,1,2,T1_SMS_8,58,5,42,127,44681568
21,1,2,T1_SMS_8,59,1,48,45,44689560
21,1,2,T1_SMS_8,60,1,48,45,45443220
21,1,2,T1_SMS_8,61,5,42,127,45482244
21,1,2,T1_SMS_8,62,1,48,47,46278540
21,1,2,T1_SMS_8,63,5,42,127,46282236
21,1,2,T1_SMS_8,64,1,48,53,47070680
21,1,2,T1_SMS_8,65,5,42,127,47081848
21,1,2,T1_SMS_8,66,1,48,49,47858924
21,1,2,T1_SMS_8,67,5,42,127,47881692
21,1,2,T1_SMS_8,68,5,42,127,48682332
21,1,2,T1_SMS_8,69,1,48,42,48692456
21,1,2,T1_SMS_8,70,5,42,127,49482096
21,1,2,T1_SMS_8,71,1,48,46,49487336
21,1,2,T1_SMS_8,72,1,48,41,50260380
21,1,2,T1_SMS_8,73,5,42,127,50281928
21,1,2,T1_SMS_8,74,5,42,127,51081476
21,1,2,T1_SMS_8,75,1,48,42,51120748
21,1,2,T1_SMS_8,76,1,48,43,51854496
21,1,2,T1_SMS_8,77,5,42,127,51882300
21,1,2,T1_SMS_8,78,1,48,48,52652960
21,1,2,T1_SMS_8,79,5,42,127,52682068
21,1,2,T1_SMS_8,80,1,48,48,53429152
21,1,2,T1_SMS_8,81,5,42,127,53481912
21,1,2,T1_SMS_8,82,1,48,44,54233648
21,1,2,T1_SMS_8,83,5,42,127,54281676
21,1,2,T1_SMS_8,84,1,48,50,55015712
21,1,2,T1_SMS_8,85,5,42,127,55082456
21,1,2,T1_SMS_8,86,1,48,43,55816548
21,1,2,T1_SMS_8,87,5,42,127,55881996
21,1,2,T1_SMS_8,88,1,48,45,56667920
21,1,2,T1_SMS_8,89,5,42,127,56681760
21,1,2,T1_SMS_8,90,1,48,42,57467384
21,1,2,T1_SMS_8,91,5,42,127,57481680
21,1,2,T1_SMS_8,92,1,48,36,58222504
21,1,2,T1_SMS_8,93,5,42,127,58282512
21,1,2,T1_SMS_8,94,1,48,52,59059128
21,1,2,T1_SMS_8,95,5,42,127,59082052
21,1,2,T1_SMS_8,96,5,42,127,59881752
21,1,2,T1_SMS_8,97,1,48,53,59884700
21,1,2,T1_SMS_8,98,1,48,42,60675296
21,1,2,T1_SMS_8,99,5,42,127,60681736
21,1,2,T1_SMS_8,100,5,42,127,61482604
21,1,2,T1_SMS_8,101,1,48,43,61500128
21,1,2,T1_SMS_8,102,5,42,127,62282140
21,1,2,T1_SMS_8,103,1,48,55,62294704
21,1,2,T1_SMS_8,104,5,42,127,63081756
21,1,2,T1_SMS_8,105,1,48,55,63087452
21,1,2,T1_SMS_8,106,5,42,127,63881596
21,1,2,T1_SMS_8,107,1,48,51,63887980
21,1,2,T1_SMS_8,108,1,48,46,64640196
21,1,2,T1_SMS_8,109,5,42,127,64682576
21,1,2,T1_SMS_8,110,1,48,52,65451788
21,1,2,T1_SMS_8,111,5,42,127,65482188
21,1,2,T1_SMS_8,112,1,48,51,66213552
21,1,2,T1_SMS_8,113,5,42,127,66281728
21,1,2,T1_SMS_8,114,1,48,46,67034308
21,1,2,T1_SMS_8,115,5,42,127,67081572
21,1,2,T1_SMS_8,116,1,48,43,67855588
21,1,2,T1_SMS_8,117,5,42,127,67882276
21,1,2,T1_SMS_8,118,5,42,127,68682200
21,1,2,T1_SMS_8,119,1,48,39,68710716
21,1,2,T1_SMS_8,120,5,42,127,69481968
21,1,2,T1_SMS_8,121,1,48,43,69501476
21,1,2,T1_SMS_8,122,5,42,127,70281504
21,1,2,T1_SMS_8,123,1,48,49,70322836
21,1,2,T1_SMS_8,124,1,48,46,70977916
21,1,2,T1_SMS_8,125,5,42,127,71082240
21,1,2,T1_SMS_8,126,5,42,127,71882256
21,1,2,T1_SMS_8,127,1,48,43,71925420
21,1,2,T1_SMS_8,128,5,42,127,72681948
21,1,2,T1_SMS_8,129,1,48,48,72713128
21,1,2,T1_SMS_8,130,1,48,40,73478700
21,1,2,T1_SMS_8,131,5,42,127,73481476
21,1,2,T1_SMS_8,132,1,48,46,74245196
21,1,2,T1_SMS_8,133,5,42,127,74282256
21,1,2,T1_SMS_8,134,5,42,127,75082184
21,1,2,T1_SMS_8,135,1,48,40,75086972
21,1,2,T1_SMS_8,136,1,48,45,75852456
21,1,2,T1_SMS_8,137,5,42,127,75881864
21,1,2,T1_SMS_8,138,1,48,44,76678552
21,1,2,T1_SMS_8,139,5,42,127,76681860
21,1,2,T1_SMS_8,140,1,48,47,77479996
21,1,2,T1_SMS_8,141,5,42,127,77482316
21,1,2,T1_SMS_8,142,1,48,42,78275944
21,1,2,T1_SMS_8,143,5,42,127,78282004
21,1,2,T1_SMS_8,144,1,48,54,79065916
21,1,2,T1_SMS_8,145,5,42,127,79081744
21,1,2,T1_SMS_8,146,1,48,44,79875148
21,1,2,T1_SMS_8,147,5,42,127,79881736
21,1,2,T1_SMS_8,148,1,48,51,80649428
21,1,2,T1_SMS_8,149,5,42,127,80682292
21,1,2,T1_SMS_8,150,1,48,47,81464860
21,1,2,T1_SMS_8,151,5,42,127,81482060
21,1,2,T1_SMS_8,152,5,42,127,82281756
21,1,2,T1_SMS_8,153,1,48,46,82307904
21,1,2,T1_SMS_8,154,5,42,127,83081600
21,1,2,T1_SMS_8,155,1,48,48,83103932
21,1,2,T1_SMS_8,156,5,42,127,83882508
21,1,2,T1_SMS_8,157,1,48,44,83893776
21,1,2,T1_SMS_8,158,1,48,49,84679412
21,1,2,T1_SMS_8,159,5,42,127,84682040
21,1,2,T1_SMS_8,160,5,42,127,85481740
21,1,2,T1_SMS_8,161,1,48,50,85522308
21,1,2,T1_SMS_8,162,1,48,40,86281276
21,1,2,T1_SMS_8,163,5,42,127,86282716
21,1,2,T1_SMS_8,164,1,48,38,87064212
21,1,2,T1_SMS_8,165,5,42,127,87082280
21,1,2,T1_SMS_8,166,1,48,43,87826512
21,1,2,T1_SMS_8,167,5,42,127,87882196
21,1,2,T1_SMS_8,168,1,48,44,88608500
21,1,2,T1_SMS_8,169,5,42,127,88681884
21,1,2,T1_SMS_8,170,1,48,38,89453384
21,1,2,T1_SMS_8,171,5,42,127,89481652
21,1,2,T1_SMS_8,172,1,48,51,90242472
21,1,2,T1_SMS_8,173,5,42,127,90282488
21,1,2,T1_SMS_8,174,5,42,127,91082260
21,1,2,T1_SMS_8,175,1,48,54,91087656
21,1,2,T1_SMS_8,176,5,42,127,91881800
21,1,2,T1_SMS_8,177,1,48,48,91904588
21,1,2,T1_SMS_8,178,5,42,127,92681488
21,1,2,T1_SMS_8,179,1,48,51,92729180
21,1,2,T1_SMS_8,180,1,48,49,93462292
21,1,2,T1_SMS_8,181,5,42,127,93482264
21,1,2,T1_SMS_8,182,5,42,127,94282188
21,1,2,T1_SMS_8,183,1,48,50,94320392
21,1,2,T1_SMS_8,184,5,42,127,95082032
21,1,2,T1_SMS_8,185,1,48,40,95102992
21,1,2,T1_SMS_8,186,5,42,127,95881492
21,1,2,T1_SMS_8,187,1,48,32,95939920
21,1,2,T1_SMS_8,188,5,42,127,96682252
21,1,2,T1_SMS_8,189,1,48,42,96702828
21,1,2,T1_SMS_8,190,5,42,127,97482092
21,1,2,T1_SMS_8,191,1,48,45,97566688
21,1,2,T1_SMS_8,192,5,42,127,98281936
21,1,2,T1_SMS_8,193,1,48,48,98295188
21,1,2,T1_SMS_8,194,5,42,127,99081472
21,1,2,T1_SMS_8,195,1,48,52,99114740
21,1,2,T1_SMS_8,196,5,42,127,99882408
21,1,2,T1_SMS_8,197,1,48,56,99889252
21,1,2,T1_SMS_8,198,1,48,48,100657948
21,1,2,T1_SMS_8,199,5,42,127,100682016
21,1,2,T1_SMS_8,200,1,48,56,101432384
21,1,2,T1_SMS_8,201,5,42,127,101481856
21,1,2,T1_SMS_8,202,1,48,52,102230240
21,1,2,T1_SMS_8,203,5,42,127,102281624
21,1,2,T1_SMS_8,204,1,48,59,103007952
21,1,2,T1_SMS_8,205,5,42,127,103082304
21,1,2,T1_SMS_8,206,1,48,57,103816572
21,1,2,T1_SMS_8,207,5,42,127,103881920
21,1,2,T1_SMS_8,208,1,48,48,104646784
21,1,2,T1_SMS_8,209,5,42,127,104681760
21,1,2,T1_SMS_8,210,1,48,51,105437928
21,1,2,T1_SMS_8,211,5,42,127,105481832
21,1,2,T1_SMS_8,212,1,48,48,106264780
21,1,2,T1_SMS_8,213,5,42,127,106282540
21,1,2,T1_SMS_8,214,5,42,127,107082088
21,1,2,T1_SMS_8,215,1,48,47,107086256
21,1,2,T1_SMS_8,216,5,42,127,107881776
21,1,2,T1_SMS_8,217,1,48,53,107893500
21,1,2,T1_SMS_8,218,1,48,52,108641212
21,1,2,T1_SMS_8,219,5,42,127,108681608
21,1,2,T1_SMS_8,220,1,48,53,109460436
21,1,2,T1_SMS_8,221,5,42,127,109482444
21,1,2,T1_SMS_8,222,1,48,49,110191524
21,1,2,T1_SMS_8,223,5,42,127,110281984
21,1,2,T1_SMS_8,224,1,48,55,111008540
21,1,2,T1_SMS_8,225,5,42,127,111081748
21,1,2,T1_SMS_8,226,1,48,48,111849816
21,1,2,T1_SMS_8,227,5,42,127,111881588
21,1,2,T1_SMS_8,228,1,48,48,112682532
21,1,2,T1_SMS_8,229,5,42,127,112683972
21,1,2,T1_SMS_8,230,1,48,55,113400132
21,1,2,T1_SMS_8,231,5,42,127,113481988
21,1,2,T1_SMS_8,232,5,42,127,114281912
21,1,2,T1_SMS_8,233,1,48,53,114320116
21,1,2,T1_SMS_8,234,1,48,51,115081832
21,1,2,T1_SMS_8,235,5,42,127,115083352
21,1,2,T1_SMS_8,236,5,42,127,115882284
21,1,2,T1_SMS_8,237,1,48,48,115939800
21,1,2,T1_SMS_8,238,1,48,54,116593572
21,1,2,T1_SMS_8,0,9999,9999,9999,20679764
21,1,2,T1_SMS_8,1,9999,9999,9999,21479480
21,1,2,T1_SMS_8,2,9999,9999,9999,22279272
21,1,2,T1_SMS_8,3,9999,9999,9999,23080048
21,1,2,T1_SMS_8,4,9999,9999,9999,23879736
21,1,2,T1_SMS_8,5,9999,9999,9999,24679504
21,1,2,T1_SMS_8,6,9999,9999,9999,25479272
21,1,2,T1_SMS_8,7,9999,9999,9999,26280036
21,1,2,T1_SMS_8,8,9999,9999,9999,27079728
21,1,2,T1_SMS_8,9,9999,9999,9999,27879488
21,1,2,T1_SMS_8,10,9999,9999,9999,28679252
21,1,2,T1_SMS_8,11,9999,9999,9999,29480036
21,1,2,T1_SMS_8,12,9999,9999,9999,30279728
21,1,2,T1_SMS_8,13,9999,9999,9999,31079492
21,1,2,T1_SMS_8,14,9999,9999,9999,31879260
21,1,2,T1_SMS_8,15,9999,9999,9999,32680024
21,1,2,T1_SMS_8,16,9999,9999,9999,33479792
21,1,2,T1_SMS_8,17,9999,9999,9999,34279480
21,1,2,T1_SMS_8,18,9999,9999,9999,35079236
21,1,2,T1_SMS_8,19,9999,9999,9999,35880020
21,1,2,T1_SMS_8,20,9999,9999,9999,36679796
21,1,2,T1_SMS_8,21,9999,9999,9999,37479484
21,1,2,T1_SMS_8,22,9999,9999,9999,38279252
21,1,2,T1_SMS_8,23,9999,9999,9999,39080012
21,1,2,T1_SMS_8,24,9999,9999,9999,39879768
21,1,2,T1_SMS_8,25,9999,9999,9999,40679536
21,1,2,T1_SMS_8,26,9999,9999,9999,41479224
21,1,2,T1_SMS_8,27,9999,9999,9999,42280008
21,1,2,T1_SMS_8,28,9999,9999,9999,43079776
21,1,2,T1_SMS_8,29,9999,9999,9999,43879540
21,1,2,T1_SMS_8,30,9999,9999,9999,44679240
21,1,2,T1_SMS_8,31,9999,9999,9999,45479988
21,1,2,T1_SMS_8,32,9999,9999,9999,46279752
21,1,2,T1_SMS_8,33,9999,9999,9999,47079520
21,1,2,T1_SMS_8,34,9999,9999,9999,47879284
21,1,2,T1_SMS_8,35,9999,9999,9999,48680000
21,1,2,T1_SMS_8,36,9999,9999,9999,49479768
21,1,2,T1_SMS_8,37,9999,9999,9999,50279524
21,1,2,T1_SMS_8,38,9999,9999,9999,51079220
21,1,2,T1_SMS_8,39,9999,9999,9999,51880048
21,1,2,T1_SMS_8,40,9999,9999,9999,52679736
21,1,2,T1_SMS_8,41,9999,9999,9999,53479504
21,1,2,T1_SMS_8,42,9999,9999,9999,54279268
21,1,2,T1_SMS_8,43,9999,9999,9999,55080052
21,1,2,T1_SMS_8,44,9999,9999,9999,55879740
21,1,2,T1_SMS_8,45,9999,9999,9999,56679508
21,1,2,T1_SMS_8,46,9999,9999,9999,57479276
21,1,2,T1_SMS_8,47,9999,9999,9999,58280032
21,1,2,T1_SMS_8,48,9999,9999,9999,59079800
21,1,2,T1_SMS_8,49,9999,9999,9999,59879496
21,1,2,T1_SMS_8,50,9999,9999,9999,60679252
21,1,2,T1_SMS_8,51,9999,9999,9999,61480044
21,1,2,T1_SMS_8,52,9999,9999,9999,62279736
21,1,2,T1_SMS_8,53,9999,9999,9999,63079500
21,1,2,T1_SMS_8,54,9999,9999,9999,63879268
21,1,2,T1_SMS_8,55,9999,9999,9999,64680016
21,1,2,T1_SMS_8,56,9999,9999,9999,65479784
21,1,2,T1_SMS_8,57,9999,9999,9999,66279472
21,1,2,T1_SMS_8,58,9999,9999,9999,67079240
21,1,2,T1_SMS_8,59,9999,9999,9999,67880020
21,1,2,T1_SMS_8,60,9999,9999,9999,68679796
21,1,2,T1_SMS_8,61,9999,9999,9999,69479488
21,1,2,T1_SMS_8,62,9999,9999,9999,70279252
21,1,2,T1_SMS_8,63,9999,9999,9999,71079984
21,1,2,T1_SMS_8,64,9999,9999,9999,71879776
21,1,2,T1_SMS_8,65,9999,9999,9999,72679540
21,1,2,T1_SMS_8,66,9999,9999,9999,73479224
21,1,2,T1_SMS_8,67,9999,9999,9999,74280004
21,1,2,T1_SMS_8,68,9999,9999,9999,75079776
21,1,2,T1_SMS_8,69,9999,9999,9999,75879536
21,1,2,T1_SMS_8,70,9999,9999,9999,76679228
21,1,2,T1_SMS_8,71,9999,9999,9999,77480060
21,1,2,T1_SMS_8,72,9999,9999,9999,78279748
21,1,2,T1_SMS_8,73,9999,9999,9999,79079492
21,1,2,T1_SMS_8,74,9999,9999,9999,79879256
21,1,2,T1_SMS_8,75,9999,9999,9999,80680040
21,1,2,T1_SMS_8,76,9999,9999,9999,81479728
21,1,2,T1_SMS_8,77,9999,9999,9999,82279504
21,1,2,T1_SMS_8,78,9999,9999,9999,83079268
21,1,2,T1_SMS_8,79,9999,9999,9999,83880028
21,1,2,T1_SMS_8,80,9999,9999,9999,84679784
21,1,2,T1_SMS_8,81,9999,9999,9999,85479484
21,1,2,T1_SMS_8,82,9999,9999,9999,86279252
21,1,2,T1_SMS_8,83,9999,9999,9999,87080024
21,1,2,T1_SMS_8,84,9999,9999,9999,87879788
21,1,2,T1_SMS_8,85,9999,9999,9999,88679480
21,1,2,T1_SMS_8,86,9999,9999,9999,89479248
21,1,2,T1_SMS_8,87,9999,9999,9999,90280004
21,1,2,T1_SMS_8,88,9999,9999,9999,91079780
21,1,2,T1_SMS_8,89,9999,9999,9999,91879544
21,1,2,T1_SMS_8,90,9999,9999,9999,92679236
21,1,2,T1_SMS_8,91,9999,9999,9999,93480008
21,1,2,T1_SMS_8,92,9999,9999,9999,94279784
21,1,2,T1_SMS_8,93,9999,9999,9999,95079472
21,1,2,T1_SMS_8,94,9999,9999,9999,95879240
21,1,2,T1_SMS_8,95,9999,9999,9999,96679996
21,1,2,T1_SMS_8,96,9999,9999,9999,97479764
21,1,2,T1_SMS_8,97,9999,9999,9999,98279528
21,1,2,T1_SMS_8,98,9999,9999,9999,99079220
21,1,2,T1_SMS_8,99,9999,9999,9999,99880000
21,1,2,T1_SMS_8,100,9999,9999,9999,100679760
21,1,2,T1_SMS_8,101,9999,9999,9999,101479528
21,1,2,T1_SMS_8,102,9999,9999,9999,102279216
21,1,2,T1_SMS_8,103,9999,9999,9999,103080052
21,1,2,T1_SMS_8,104,9999,9999,9999,103879740
21,1,2,T1_SMS_8,105,9999,9999,9999,104679508
21,1,2,T1_SMS_8,106,9999,9999,9999,105479276
21,1,2,T1_SMS_8,107,9999,9999,9999,106280056
21,1,2,T1_SMS_8,108,9999,9999,9999,107079756
21,1,2,T1_SMS_8,109,9999,9999,9999,107879520
21,1,2,T1_SMS_8,110,9999,9999,9999,108679280
21,1,2,T1_SMS_8,111,9999,9999,9999,109480040
21,1,2,T1_SMS_8,112,9999,9999,9999,110279728
21,1,2,T1_SMS_8,113,9999,9999,9999,111079496
21,1,2,T1_SMS_8,114,9999,9999,9999,111879260
21,1,2,T1_SMS_8,115,9999,9999,9999,112680052
21,1,2,T1_SMS_8,116,9999,9999,9999,113479732
21,1,2,T1_SMS_8,117,9999,9999,9999,114279508
21,1,2,T1_SMS_8,118,9999,9999,9999,115079272
21,1,2,T1_SMS_8,119,9999,9999,9999,115880032
21,2,4,T1_SMS_5,0,5,42,127,137397640
21,2,4,T1_SMS_5,1,5,42,127,137898432
21,2,4,T1_SMS_5,2,5,42,127,138398232
21,2,4,T1_SMS_5,3,1,48,37,138493364
21,2,4,T1_SMS_5,4,5,42,127,138897856
21,2,4,T1_SMS_5,5,1,48,32,138944372
21,2,4,T1_SMS_5,6,5,42,127,139397556
21,2,4,T1_SMS_5,7,1,48,49,139400280
21,2,4,T1_SMS_5,8,1,48,55,139879056
21,2,4,T1_SMS_5,9,5,42,127,139898168
21,2,4,T1_SMS_5,10,5,42,127,140397952
21,2,4,T1_SMS_5,11,1,48,44,140407084
21,2,4,T1_SMS_5,12,1,48,54,140885552
21,2,4,T1_SMS_5,13,5,42,127,140897644
21,2,4,T1_SMS_5,14,1,48,32,141386020
21,2,4,T1_SMS_5,15,5,42,127,141398412
21,2,4,T1_SMS_5,16,5,42,127,141898044
21,2,4,T1_SMS_5,17,1,48,46,141909692
21,2,4,T1_SMS_5,18,1,48,57,142389156
21,2,4,T1_SMS_5,19,5,42,127,142397816
21,2,4,T1_SMS_5,20,1,48,49,142860828
21,2,4,T1_SMS_5,21,5,42,127,142897436
21,2,4,T1_SMS_5,22,1,48,50,143378616
21,2,4,T1_SMS_5,23,5,42,127,143398280
21,2,4,T1_SMS_5,24,1,48,53,143881292
21,2,4,T1_SMS_5,25,5,42,127,143898184
21,2,4,T1_SMS_5,26,5,42,127,144397592
21,2,4,T1_SMS_5,27,1,48,58,144398500
21,2,4,T1_SMS_5,28,1,48,54,144895568
21,2,4,T1_SMS_5,29,5,42,127,144898428
21,2,4,T1_SMS_5,30,1,48,57,145380160
21,2,4,T1_SMS_5,31,5,42,127,145398052
21,2,4,T1_SMS_5,32,1,48,53,145879180
21,2,4,T1_SMS_5,33,5,42,127,145897904
21,2,4,T1_SMS_5,34,1,48,54,146374372
21,2,4,T1_SMS_5,35,5,42,127,146397604
21,2,4,T1_SMS_5,36,1,48,52,146869496
21,2,4,T1_SMS_5,37,5,42,127,146898220
21,2,4,T1_SMS_5,38,1,48,51,147373316
21,2,4,T1_SMS_5,39,5,42,127,147397996
21,2,4,T1_SMS_5,40,1,48,58,147896232
21,2,4,T1_SMS_5,41,5,42,127,147898000
21,2,4,T1_SMS_5,42,1,48,58,148391184
21,2,4,T1_SMS_5,43,5,42,127,148397320
21,2,4,T1_SMS_5,44,1,48,41,148897788
21,2,4,T1_SMS_5,45,5,42,127,148899460
21,2,4,T1_SMS_5,46,1,48,55,149371352
21,2,4,T1_SMS_5,47,5,42,127,149397864
21,2,4,T1_SMS_5,48,1,48,48,149877388
21,2,4,T1_SMS_5,49,5,42,127,149897488
21,2,4,T1_SMS_5,50,1,48,59,150373192
21,2,4,T1_SMS_5,51,5,42,127,150398256
21,2,4,T1_SMS_5,52,5,42,127,150898116
21,2,4,T1_SMS_5,53,1,48,51,150903580
21,2,4,T1_SMS_5,54,1,48,50,151375340
21,2,4,T1_SMS_5,55,5,42,127,151397808
21,2,4,T1_SMS_5,56,1,48,48,151863060
21,2,4,T1_SMS_5,57,5,42,127,151897360
21,2,4,T1_SMS_5,58,1,48,40,152347476
21,2,4,T1_SMS_5,59,5,42,127,152398276
21,2,4,T1_SMS_5,60,1,48,52,152853052
21,2,4,T1_SMS_5,61,5,42,127,152897748
21,2,4,T1_SMS_5,62,1,48,52,153392684
21,2,4,T1_SMS_5,63,5,42,127,153397904
21,2,4,T1_SMS_5,64,1,48,40,153862828
21,2,4,T1_SMS_5,65,5,42,127,153898448
21,2,4,T1_SMS_5,66,1,48,51,154386876
21,2,4,T1_SMS_5,67,5,42,127,154397996
21,2,4,T1_SMS_5,68,1,48,51,154882680
21,2,4,T1_SMS_5,69,5,42,127,154897972
21,2,4,T1_SMS_5,70,5,42,127,155397532
21,2,4,T1_SMS_5,71,1,48,54,155400332
21,2,4,T1_SMS_5,72,5,42,127,155898300
21,2,4,T1_SMS_5,73,1,48,49,155946748
21,2,4,T1_SMS_5,74,1,48,51,156371100
21,2,4,T1_SMS_5,75,5,42,127,156397988
21,2,4,T1_SMS_5,76,1,48,49,156816160
21,2,4,T1_SMS_5,77,5,42,127,156897540
21,2,4,T1_SMS_5,78,1,48,53,157356688
21,2,4,T1_SMS_5,79,5,42,127,157398460
21,2,4,T1_SMS_5,80,1,48,56,157871648
21,2,4,T1_SMS_5,81,5,42,127,157898084
21,2,4,T1_SMS_5,82,5,42,127,158397868
21,2,4,T1_SMS_5,83,1,48,57,158415928
21,2,4,T1_SMS_5,84,1,48,56,158887836
21,2,4,T1_SMS_5,85,5,42,127,158897560
21,2,4,T1_SMS_5,86,1,48,53,159370136
21,2,4,T1_SMS_5,87,5,42,127,159398404
21,2,4,T1_SMS_5,88,1,48,54,159863580
21,2,4,T1_SMS_5,89,5,42,127,159897876
21,2,4,T1_SMS_5,90,1,48,54,160375948
21,2,4,T1_SMS_5,91,5,42,127,160397728
21,2,4,T1_SMS_5,92,1,48,55,160856572
21,2,4,T1_SMS_5,93,5,42,127,160898496
21,2,4,T1_SMS_5,94,1,48,49,161363064
21,2,4,T1_SMS_5,95,5,42,127,161398424
21,2,4,T1_SMS_5,96,1,48,47,161857804
21,2,4,T1_SMS_5,97,5,42,127,161897668
21,2,4,T1_SMS_5,98,1,48,51,162355520
21,2,4,T1_SMS_5,99,5,42,127,162397596
21,2,4,T1_SMS_5,100,1,48,53,162841532
21,2,4,T1_SMS_5,101,5,42,127,162898440
21,2,4,T1_SMS_5,102,1,48,50,163361176
21,2,4,T1_SMS_5,103,5,42,127,163397912
21,2,4,T1_SMS_5,104,1,48,51,163884456
21,2,4,T1_SMS_5,105,5,42,127,163897616
21,2,4,T1_SMS_5,106,1,48,49,164380644
21,2,4,T1_SMS_5,107,5,42,127,164397540
21,2,4,T1_SMS_5,108,1,48,52,164860252
21,2,4,T1_SMS_5,109,5,42,127,164898232
21,2,4,T1_SMS_5,110,1,48,50,165391620
21,2,4,T1_SMS_5,111,5,42,127,165398060
21,2,4,T1_SMS_5,112,1,48,50,165850192
21,2,4,T1_SMS_5,113,5,42,127,165897532
21,2,4,T1_SMS_5,114,1,48,50,166364080
21,2,4,T1_SMS_5,115,5,42,127,166398376
21,2,4,T1_SMS_5,116,1,48,37,166880572
21,2,4,T1_SMS_5,117,5,42,127,166898076
21,2,4,T1_SMS_5,118,1,48,54,167383400
21,2,4,T1_SMS_5,119,5,42,127,167397780
21,2,4,T1_SMS_5,120,1,48,55,167895940
21,2,4,T1_SMS_5,121,5,42,127,167897632
21,2,4,T1_SMS_5,122,5,42,127,168398104
21,2,4,T1_SMS_5,123,1,48,53,168399088
21,2,4,T1_SMS_5,124,1,48,50,168881812
21,2,4,T1_SMS_5,125,5,42,127,168898100
21,2,4,T1_SMS_5,126,5,42,127,169397580
21,2,4,T1_SMS_5,127,1,48,56,169398944
21,2,4,T1_SMS_5,128,5,42,127,169898248
21,2,4,T1_SMS_5,129,1,48,60,169914704
21,2,4,T1_SMS_5,130,1,48,46,170391344
21,2,4,T1_SMS_5,131,5,42,127,170398016
21,2,4,T1_SMS_5,132,1,48,52,170875852
21,2,4,T1_SMS_5,133,5,42,127,170897944
21,2,4,T1_SMS_5,134,5,42,127,171397576
21,2,4,T1_SMS_5,135,1,48,50,171407548
21,2,4,T1_SMS_5,136,5,42,127,171898116
21,2,4,T1_SMS_5,137,1,48,53,171912360
21,2,4,T1_SMS_5,138,5,42,127,172398044
21,2,4,T1_SMS_5,139,1,48,43,172407868
21,2,4,T1_SMS_5,140,1,48,45,172890072
21,2,4,T1_SMS_5,141,5,42,127,172897816
21,2,4,T1_SMS_5,142,1,48,57,173348952
21,2,4,T1_SMS_5,143,5,42,127,173398276
21,2,4,T1_SMS_5,144,1,48,55,173873140
21,2,4,T1_SMS_5,145,5,42,127,173898128
21,2,4,T1_SMS_5,146,5,42,127,174397840
21,2,4,T1_SMS_5,147,1,48,55,174402848
21,2,4,T1_SMS_5,148,1,48,53,174872828
21,2,4,T1_SMS_5,149,5,42,127,174897984
21,2,4,T1_SMS_5,150,5,42,127,175398156
21,2,4,T1_SMS_5,151,1,48,51,175406060
21,2,4,T1_SMS_5,152,5,42,127,175897984
21,2,4,T1_SMS_5,153,1,48,43,175911084
21,2,4,T1_SMS_5,154,1,48,53,176379456
21,2,4,T1_SMS_5,155,5,42,127,176397724
21,2,4,T1_SMS_5,156,1,48,51,176889152
21,2,4,T1_SMS_5,157,5,42,127,176898492
21,2,4,T1_SMS_5,158,1,48,59,177370076
21,2,4,T1_SMS_5,159,5,42,127,177398116
21,2,4,T1_SMS_5,160,1,48,57,177886264
21,2,4,T1_SMS_5,161,5,42,127,177897892
21,2,4,T1_SMS_5,162,1,48,52,178392220
21,2,4,T1_SMS_5,163,5,42,127,178397744
21,2,4,T1_SMS_5,164,1,48,54,178894288
21,2,4,T1_SMS_5,165,5,42,127,178898364
21,2,4,T1_SMS_5,166,5,42,127,179397920
21,2,4,T1_SMS_5,167,1,48,49,179402392
21,2,4,T1_SMS_5,168,1,48,54,179870412
21,2,4,T1_SMS_5,169,5,42,127,179897764
21,2,4,T1_SMS_5,170,5,42,127,180397548
21,2,4,T1_SMS_5,171,1,48,37,180478940
21,2,4,T1_SMS_5,172,1,48,59,180881720
21,2,4,T1_SMS_5,173,5,42,127,180898080
21,2,4,T1_SMS_5,174,1,48,62,181378592
21,2,4,T1_SMS_5,175,5,42,127,181397856
21,2,4,T1_SMS_5,176,1,48,57,181839680
21,2,4,T1_SMS_5,177,5,42,127,181897632
21,2,4,T1_SMS_5,178,1,48,55,182379216
21,2,4,T1_SMS_5,179,5,42,127,182398400
21,2,4,T1_SMS_5,180,1,48,58,182868388
21,2,4,T1_SMS_5,181,5,42,127,182898176
21,2,4,T1_SMS_5,182,1,48,58,183367788
21,2,4,T1_SMS_5,183,5,42,127,183397652
21,2,4,T1_SMS_5,184,1,48,57,183839704
21,2,4,T1_SMS_5,185,5,42,127,183897428
21,2,4,T1_SMS_5,186,1,48,55,184350856
21,2,4,T1_SMS_5,187,5,42,127,184398120
21,2,4,T1_SMS_5,188,1,48,51,184835420
21,2,4,T1_SMS_5,189,5,42,127,184897972
21,2,4,T1_SMS_5,190,1,48,50,185384816
21,2,4,T1_SMS_5,191,5,42,127,185397520
21,2,4,T1_SMS_5,192,1,48,54,185888036
21,2,4,T1_SMS_5,193,5,42,127,185898288
21,2,4,T1_SMS_5,194,1,48,57,186374428
21,2,4,T1_SMS_5,195,5,42,127,186398140
21,2,4,T1_SMS_5,196,5,42,127,186897672
21,2,4,T1_SMS_5,197,1,48,49,186898656
21,2,4,T1_SMS_5,198,5,42,127,187397600
21,2,4,T1_SMS_5,199,1,48,56,187412836
21,2,4,T1_SMS_5,200,1,48,53,187894056
21,2,4,T1_SMS_5,201,5,42,127,187898360
21,2,4,T1_SMS_5,202,5,42,127,188397916
21,2,4,T1_SMS_5,203,1,48,54,188435588
21,2,4,T1_SMS_5,204,1,48,51,188896388
21,2,4,T1_SMS_5,205,5,42,127,188897988
21,2,4,T1_SMS_5,206,1,48,45,189387892
21,2,4,T1_SMS_5,207,5,42,127,189398452
21,2,4,T1_SMS_5,208,1,48,54,189857524
21,2,4,T1_SMS_5,209,5,42,127,189898304
21,2,4,T1_SMS_5,210,1,48,51,190364092
21,2,4,T1_SMS_5,211,5,42,127,190397700
21,2,4,T1_SMS_5,212,1,48,48,190849220
21,2,4,T1_SMS_5,213,5,42,127,190897476
21,2,4,T1_SMS_5,214,1,48,48,191366700
21,2,4,T1_SMS_5,215,5,42,127,191398244
21,2,4,T1_SMS_5,216,1,48,51,191892340
21,2,4,T1_SMS_5,217,5,42,127,191898020
21,2,4,T1_SMS_5,218,1,48,52,192351524
21,2,4,T1_SMS_5,219,5,42,127,192397568
21,2,4,T1_SMS_5,220,1,48,52,192862056
21,2,4,T1_SMS_5,221,5,42,127,192898412
21,2,4,T1_SMS_5,222,1,48,48,193376100
21,2,4,T1_SMS_5,223,5,42,127,193398188
21,2,4,T1_SMS_5,224,1,48,46,193850088
21,2,4,T1_SMS_5,225,5,42,127,193898192
21,2,4,T1_SMS_5,226,1,48,52,194384508
21,2,4,T1_SMS_5,227,5,42,127,194397592
21,2,4,T1_SMS_5,228,1,48,53,194872460
21,2,4,T1_SMS_5,229,5,42,127,194898208
21,2,4,T1_SMS_5,230,1,48,50,195366056
21,2,4,T1_SMS_5,231,5,42,127,195397908
21,2,4,T1_SMS_5,232,1,48,50,195874836
21,2,4,T1_SMS_5,233,5,42,127,195897988
21,2,4,T1_SMS_5,234,1,48,50,196375272
21,2,4,T1_SMS_5,235,5,42,127,196397536
21,2,4,T1_SMS_5,236,1,48,48,196885424
21,2,4,T1_SMS_5,237,5,42,127,196898076
21,2,4,T1_SMS_5,238,1,48,53,197395044
21,2,4,T1_SMS_5,239,5,42,127,197397980
21,2,4,T1_SMS_5,240,5,42,127,197897764
21,2,4,T1_SMS_5,241,1,48,48,197913480
21,2,4,T1_SMS_5,242,5,42,127,198398380
21,2,4,T1_SMS_5,243,1,48,46,198415140
21,2,4,T1_SMS_5,244,1,48,49,198882016
21,2,4,T1_SMS_5,245,5,42,127,198897924
21,2,4,T1_SMS_5,246,1,48,48,199373860
21,2,4,T1_SMS_5,247,5,42,127,199397776
21,2,4,T1_SMS_5,248,1,48,48,199881880
21,2,4,T1_SMS_5,249,5,42,127,199897400
21,2,4,T1_SMS_5,250,1,48,46,200341896
21,2,4,T1_SMS_5,251,5,42,127,200398244
21,2,4,T1_SMS_5,252,1,48,48,200867768
21,2,4,T1_SMS_5,253,5,42,127,200897868
21,2,4,T1_SMS_5,254,1,48,50,201378844
21,2,4,T1_SMS_5,255,5,42,127,201397720
21,2,4,T1_SMS_5,256,1,48,50,201872356
21,2,4,T1_SMS_5,257,5,42,127,201898260
21,2,4,T1_SMS_5,258,1,48,50,202380380
21,2,4,T1_SMS_5,0,9999,9999,9999,137395308
21,2,4,T1_SMS_5,1,9999,9999,9999,137896024
21,2,4,T1_SMS_5,2,9999,9999,9999,138395748
21,2,4,T1_SMS_5,3,9999,9999,9999,138895448
21,2,4,T1_SMS_5,4,9999,9999,9999,139395148
21,2,4,T1_SMS_5,5,9999,9999,9999,139895912
21,2,4,T1_SMS_5,6,9999,9999,9999,140395620
21,2,4,T1_SMS_5,7,9999,9999,9999,140895312
21,2,4,T1_SMS_5,8,9999,9999,9999,141396080
21,2,4,T1_SMS_5,9,9999,9999,9999,141895788
21,2,4,T1_SMS_5,10,9999,9999,9999,142395484
21,2,4,T1_SMS_5,11,9999,9999,9999,142895180
21,2,4,T1_SMS_5,12,9999,9999,9999,143395948
21,2,4,T1_SMS_5,13,9999,9999,9999,143895624
21,2,4,T1_SMS_5,14,9999,9999,9999,144395336
21,2,4,T1_SMS_5,15,9999,9999,9999,144896100
21,2,4,T1_SMS_5,16,9999,9999,9999,145395792
21,2,4,T1_SMS_5,17,9999,9999,9999,145895496
21,2,4,T1_SMS_5,18,9999,9999,9999,146395196
21,2,4,T1_SMS_5,19,9999,9999,9999,146895964
21,2,4,T1_SMS_5,20,9999,9999,9999,147395664
21,2,4,T1_SMS_5,21,9999,9999,9999,147895372
21,2,4,T1_SMS_5,22,9999,9999,9999,148395064
21,2,4,T1_SMS_5,23,9999,9999,9999,148895840
21,2,4,T1_SMS_5,24,9999,9999,9999,149395532
21,2,4,T1_SMS_5,25,9999,9999,9999,149895232
21,2,4,T1_SMS_5,26,9999,9999,9999,150396000
21,2,4,T1_SMS_5,27,9999,9999,9999,150895708
21,2,4,T1_SMS_5,28,9999,9999,9999,151395400
21,2,4,T1_SMS_5,29,9999,9999,9999,151895104
21,2,4,T1_SMS_5,30,9999,9999,9999,152395868
21,2,4,T1_SMS_5,31,9999,9999,9999,152895568
21,2,4,T1_SMS_5,32,9999,9999,9999,153395268
21,2,4,T1_SMS_5,33,9999,9999,9999,153896040
21,2,4,T1_SMS_5,34,9999,9999,9999,154395740
21,2,4,T1_SMS_5,35,9999,9999,9999,154895416
21,2,4,T1_SMS_5,36,9999,9999,9999,155395124
21,2,4,T1_SMS_5,37,9999,9999,9999,155895892
21,2,4,T1_SMS_5,38,9999,9999,9999,156395580
21,2,4,T1_SMS_5,39,9999,9999,9999,156895284
21,2,4,T1_SMS_5,40,9999,9999,9999,157396052
21,2,4,T1_SMS_5,41,9999,9999,9999,157895752
21,2,4,T1_SMS_5,42,9999,9999,9999,158395460
21,2,4,T1_SMS_5,43,9999,9999,9999,158895152
21,2,4,T1_SMS_5,44,9999,9999,9999,159395920
21,2,4,T1_SMS_5,45,9999,9999,9999,159895620
21,2,4,T1_SMS_5,46,9999,9999,9999,160395320
21,2,4,T1_SMS_5,47,9999,9999,9999,160896092
21,2,4,T1_SMS_5,48,9999,9999,9999,161395788
21,2,4,T1_SMS_5,49,9999,9999,9999,161895488
21,2,4,T1_SMS_5,50,9999,9999,9999,162395188
21,2,4,T1_SMS_5,51,9999,9999,9999,162895956
21,2,4,T1_SMS_5,52,9999,9999,9999,163395656
21,2,4,T1_SMS_5,53,9999,9999,9999,163895356
21,2,4,T1_SMS_5,54,9999,9999,9999,164395056
21,2,4,T1_SMS_5,55,9999,9999,9999,164895824
21,2,4,T1_SMS_5,56,9999,9999,9999,165395576
21,2,4,T1_SMS_5,57,9999,9999,9999,165895276
21,2,4,T1_SMS_5,58,9999,9999,9999,166395968
21,2,4,T1_SMS_5,59,9999,9999,9999,166895668
21,2,4,T1_SMS_5,60,9999,9999,9999,167395448
21,2,4,T1_SMS_5,61,9999,9999,9999,167895156
21,2,4,T1_SMS_5,62,9999,9999,9999,168395848
21,2,4,T1_SMS_5,63,9999,9999,9999,168895540
21,2,4,T1_SMS_5,64,9999,9999,9999,169395324
21,2,4,T1_SMS_5,65,9999,9999,9999,169895992
21,2,4,T1_SMS_5,66,9999,9999,9999,170395760
21,2,4,T1_SMS_5,67,9999,9999,9999,170895460
21,2,4,T1_SMS_5,68,9999,9999,9999,171395168
21,2,4,T1_SMS_5,69,9999,9999,9999,171895860
21,2,4,T1_SMS_5,70,9999,9999,9999,172395636
21,2,4,T1_SMS_5,71,9999,9999,9999,172895332
21,2,4,T1_SMS_5,72,9999,9999,9999,173396020
21,2,4,T1_SMS_5,73,9999,9999,9999,173895796
21,2,4,T1_SMS_5,74,9999,9999,9999,174395508
21,2,4,T1_SMS_5,75,9999,9999,9999,174895196
21,2,4,T1_SMS_5,76,9999,9999,9999,175395900
21,2,4,T1_SMS_5,77,9999,9999,9999,175895648
21,2,4,T1_SMS_5,78,9999,9999,9999,176395316
21,2,4,T1_SMS_5,79,9999,9999,9999,176896088
21,2,4,T1_SMS_5,80,9999,9999,9999,177395784
21,2,4,T1_SMS_5,81,9999,9999,9999,177895484
21,2,4,T1_SMS_5,82,9999,9999,9999,178395184
21,2,4,T1_SMS_5,83,9999,9999,9999,178895956
21,2,4,T1_SMS_5,84,9999,9999,9999,179395664
21,2,4,T1_SMS_5,85,9999,9999,9999,179895356
21,2,4,T1_SMS_5,86,9999,9999,9999,180395064
21,2,4,T1_SMS_5,87,9999,9999,9999,180895824
21,2,4,T1_SMS_5,88,9999,9999,9999,181395524
21,2,4,T1_SMS_5,89,9999,9999,9999,181895224
21,2,4,T1_SMS_5,90,9999,9999,9999,182395992
21,2,4,T1_SMS_5,91,9999,9999,9999,182895692
21,2,4,T1_SMS_5,92,9999,9999,9999,183395396
21,2,4,T1_SMS_5,93,9999,9999,9999,183895096
21,2,4,T1_SMS_5,94,9999,9999,9999,184395864
21,2,4,T1_SMS_5,95,9999,9999,9999,184895564
21,2,4,T1_SMS_5,96,9999,9999,9999,185395264
21,2,4,T1_SMS_5,97,9999,9999,9999,185896032
21,2,4,T1_SMS_5,98,9999,9999,9999,186395732
21,2,4,T1_SMS_5,99,9999,9999,9999,186895416
21,2,4,T1_SMS_5,100,9999,9999,9999,187395192
21,2,4,T1_SMS_5,101,9999,9999,9999,187895876
21,2,4,T1_SMS_5,102,9999,9999,9999,188395584
21,2,4,T1_SMS_5,103,9999,9999,9999,188895284
21,2,4,T1_SMS_5,104,9999,9999,9999,189396044
21,2,4,T1_SMS_5,105,9999,9999,9999,189895744
21,2,4,T1_SMS_5,106,9999,9999,9999,190395444
21,2,4,T1_SMS_5,107,9999,9999,9999,190895220
21,2,4,T1_SMS_5,108,9999,9999,9999,191395912
21,2,4,T1_SMS_5,109,9999,9999,9999,191895612
21,2,4,T1_SMS_5,110,9999,9999,9999,192395312
21,2,4,T1_SMS_5,111,9999,9999,9999,192896084
21,2,4,T1_SMS_5,112,9999,9999,9999,193395780
21,2,4,T1_SMS_5,113,9999,9999,9999,193895480
21,2,4,T1_SMS_5,114,9999,9999,9999,194395260
21,2,4,T1_SMS_5,115,9999,9999,9999,194895952
21,2,4,T1_SMS_5,116,9999,9999,9999,195395652
21,2,4,T1_SMS_5,117,9999,9999,9999,195895352
21,2,4,T1_SMS_5,118,9999,9999,9999,196395128
21,2,4,T1_SMS_5,119,9999,9999,9999,196895820
21,2,4,T1_SMS_5,120,9999,9999,9999,197395572
21,2,4,T1_SMS_5,121,9999,9999,9999,197895280
21,2,4,T1_SMS_5,122,9999,9999,9999,198395972
21,2,4,T1_SMS_5,123,9999,9999,9999,198895668
21,2,4,T1_SMS_5,124,9999,9999,9999,199395444
21,2,4,T1_SMS_5,125,9999,9999,9999,199895144
21,2,4,T1_SMS_5,126,9999,9999,9999,200395836
21,2,4,T1_SMS_5,127,9999,9999,9999,200895536
21,2,4,T1_SMS_5,128,9999,9999,9999,201395312
21,2,4,T1_SMS_5,129,9999,9999,9999,201896004
21,3,9,Ticks_ISO_T2_8,0,5,42,127,218944000
21,3,9,Ticks_ISO_T2_8,1,5,42,127,219743640
21,3,9,Ticks_ISO_T2_8,2,1,48,52,220506388
21,3,9,Ticks_ISO_T2_8,3,5,42,127,220544340
21,3,9,Ticks_ISO_T2_8,4,5,42,127,221344036
21,3,9,Ticks_ISO_T2_8,5,1,48,53,221364000
21,3,9,Ticks_ISO_T2_8,6,5,42,127,222143928
21,3,9,Ticks_ISO_T2_8,7,1,48,53,222172672
21,3,9,Ticks_ISO_T2_8,8,5,42,127,222943772
21,3,9,Ticks_ISO_T2_8,9,1,48,52,222980984
21,3,9,Ticks_ISO_T2_8,10,1,48,55,223741816
21,3,9,Ticks_ISO_T2_8,11,5,42,127,223744368
21,3,9,Ticks_ISO_T2_8,12,1,48,55,224529148
21,3,9,Ticks_ISO_T2_8,13,5,42,127,224544008
21,3,9,Ticks_ISO_T2_8,14,1,48,51,225297860
21,3,9,Ticks_ISO_T2_8,15,5,42,127,225343848
21,3,9,Ticks_ISO_T2_8,16,1,48,48,226083452
21,3,9,Ticks_ISO_T2_8,17,5,42,127,226143612
21,3,9,Ticks_ISO_T2_8,18,1,48,46,226896116
21,3,9,Ticks_ISO_T2_8,19,5,42,127,226944524
21,3,9,Ticks_ISO_T2_8,20,1,48,46,227667424
21,3,9,Ticks_ISO_T2_8,21,5,42,127,227744064
21,3,9,Ticks_ISO_T2_8,22,1,48,48,228502976
21,3,9,Ticks_ISO_T2_8,23,5,42,127,228543832
21,3,9,Ticks_ISO_T2_8,24,1,48,37,229316632
21,3,9,Ticks_ISO_T2_8,25,5,42,127,229343596
21,3,9,Ticks_ISO_T2_8,26,1,48,54,230091748
21,3,9,Ticks_ISO_T2_8,27,5,42,127,230144432
21,3,9,Ticks_ISO_T2_8,28,1,48,57,230895636
21,3,9,Ticks_ISO_T2_8,29,5,42,127,230944296
21,3,9,Ticks_ISO_T2_8,30,1,48,53,231629016
21,3,9,Ticks_ISO_T2_8,31,5,42,127,231743744
21,3,9,Ticks_ISO_T2_8,32,5,42,127,232543612
21,3,9,Ticks_ISO_T2_8,33,1,48,45,232555332
21,3,9,Ticks_ISO_T2_8,34,5,42,127,233344596
21,3,9,Ticks_ISO_T2_8,35,1,48,62,233380056
21,3,9,Ticks_ISO_T2_8,36,5,42,127,234144288
21,3,9,Ticks_ISO_T2_8,37,1,48,57,234150596
21,3,9,Ticks_ISO_T2_8,38,5,42,127,234943824
21,3,9,Ticks_ISO_T2_8,39,1,48,57,234980120
21,3,9,Ticks_ISO_T2_8,40,5,42,127,235743664
21,3,9,Ticks_ISO_T2_8,41,1,48,56,235755236
21,3,9,Ticks_ISO_T2_8,42,5,42,127,236544424
21,3,9,Ticks_ISO_T2_8,43,1,48,42,236575100
21,3,9,Ticks_ISO_T2_8,44,1,48,56,237315156
21,3,9,Ticks_ISO_T2_8,45,5,42,127,237344280
21,3,9,Ticks_ISO_T2_8,46,5,42,127,238143828
21,3,9,Ticks_ISO_T2_8,47,1,48,48,238189284
21,3,9,Ticks_ISO_T2_8,48,1,48,58,238881668
21,3,9,Ticks_ISO_T2_8,49,5,42,127,238943588
21,3,9,Ticks_ISO_T2_8,50,1,48,53,239708528
21,3,9,Ticks_ISO_T2_8,51,5,42,127,239744268
21,3,9,Ticks_ISO_T2_8,52,1,48,50,240517300
21,3,9,Ticks_ISO_T2_8,53,5,42,127,240544112
21,3,9,Ticks_ISO_T2_8,54,1,48,50,241317444
21,3,9,Ticks_ISO_T2_8,55,5,42,127,241343952
21,3,9,Ticks_ISO_T2_8,56,5,42,127,242143500
21,3,9,Ticks_ISO_T2_8,57,1,48,45,242181092
21,3,9,Ticks_ISO_T2_8,58,5,42,127,242944332
21,3,9,Ticks_ISO_T2_8,59,1,48,48,242963308
21,3,9,Ticks_ISO_T2_8,60,1,48,51,243729028
21,3,9,Ticks_ISO_T2_8,61,5,42,127,243744188
21,3,9,Ticks_ISO_T2_8,62,1,48,43,244543352
21,3,9,Ticks_ISO_T2_8,63,5,42,127,244545100
21,3,9,Ticks_ISO_T2_8,64,1,48,57,245315228
21,3,9,Ticks_ISO_T2_8,65,5,42,127,245343572
21,3,9,Ticks_ISO_T2_8,66,1,48,55,246092412
21,3,9,Ticks_ISO_T2_8,67,5,42,127,246144256
21,3,9,Ticks_ISO_T2_8,68,1,48,56,246904924
21,3,9,Ticks_ISO_T2_8,69,5,42,127,246944024
21,3,9,Ticks_ISO_T2_8,70,5,42,127,247743872
21,3,9,Ticks_ISO_T2_8,71,1,48,53,247768724
21,3,9,Ticks_ISO_T2_8,72,5,42,127,248543716
21,3,9,Ticks_ISO_T2_8,73,1,48,59,248549796
21,3,9,Ticks_ISO_T2_8,74,5,42,127,249344396
21,3,9,Ticks_ISO_T2_8,75,1,48,51,249362684
21,3,9,Ticks_ISO_T2_8,76,5,42,127,250144032
21,3,9,Ticks_ISO_T2_8,77,1,48,44,250210016
21,3,9,Ticks_ISO_T2_8,78,5,42,127,250943800
21,3,9,Ticks_ISO_T2_8,79,1,48,53,250972620
21,3,9,Ticks_ISO_T2_8,80,5,42,127,251743568
21,3,9,Ticks_ISO_T2_8,81,1,48,54,251756280
21,3,9,Ticks_ISO_T2_8,82,5,42,127,252544400
21,3,9,Ticks_ISO_T2_8,83,1,48,53,252552312
21,3,9,Ticks_ISO_T2_8,84,1,48,50,253343628
21,3,9,Ticks_ISO_T2_8,85,5,42,127,253345452
21,3,9,Ticks_ISO_T2_8,86,1,48,47,254130464
21,3,9,Ticks_ISO_T2_8,87,5,42,127,254143848
21,3,9,Ticks_ISO_T2_8,88,1,48,53,254910624
21,3,9,Ticks_ISO_T2_8,89,5,42,127,254943612
21,3,9,Ticks_ISO_T2_8,90,1,48,49,255698404
21,3,9,Ticks_ISO_T2_8,91,5,42,127,255744524
21,3,9,Ticks_ISO_T2_8,92,1,48,45,256507252
21,3,9,Ticks_ISO_T2_8,93,5,42,127,256544012
21,3,9,Ticks_ISO_T2_8,94,1,48,48,257329400
21,3,9,Ticks_ISO_T2_8,95,5,42,127,257343776
21,3,9,Ticks_ISO_T2_8,96,1,48,54,258120012
21,3,9,Ticks_ISO_T2_8,97,5,42,127,258143692
21,3,9,Ticks_ISO_T2_8,98,5,42,127,258944384
21,3,9,Ticks_ISO_T2_8,99,1,48,39,258961296
21,3,9,Ticks_ISO_T2_8,100,5,42,127,259744072
21,3,9,Ticks_ISO_T2_8,101,1,48,51,259744980
21,3,9,Ticks_ISO_T2_8,102,5,42,127,260543840
21,3,9,Ticks_ISO_T2_8,103,1,48,51,260590136
21,3,9,Ticks_ISO_T2_8,104,1,48,48,261341204
21,3,9,Ticks_ISO_T2_8,105,5,42,127,261343676
21,3,9,Ticks_ISO_T2_8,106,1,48,54,262142744
21,3,9,Ticks_ISO_T2_8,107,5,42,127,262144432
21,3,9,Ticks_ISO_T2_8,108,5,42,127,262944080
21,3,9,Ticks_ISO_T2_8,109,1,48,40,262955044
21,3,9,Ticks_ISO_T2_8,110,1,48,49,263689380
21,3,9,Ticks_ISO_T2_8,111,5,42,127,263743992
21,3,9,Ticks_ISO_T2_8,112,1,48,50,264519772
21,3,9,Ticks_ISO_T2_8,113,5,42,127,264543456
21,3,9,Ticks_ISO_T2_8,114,1,48,59,265256124
21,3,9,Ticks_ISO_T2_8,115,5,42,127,265344364
21,3,9,Ticks_ISO_T2_8,116,1,48,57,266094732
21,3,9,Ticks_ISO_T2_8,117,5,42,127,266144056
21,3,9,Ticks_ISO_T2_8,118,1,48,52,266925708
21,3,9,Ticks_ISO_T2_8,119,5,42,127,266944128
21,3,9,Ticks_ISO_T2_8,120,5,42,127,267743748
21,3,9,Ticks_ISO_T2_8,121,1,48,50,267745112
21,3,9,Ticks_ISO_T2_8,122,5,42,127,268544432
21,3,9,Ticks_ISO_T2_8,123,1,48,46,268549824
21,3,9,Ticks_ISO_T2_8,124,5,42,127,269344068
21,3,9,Ticks_ISO_T2_8,125,1,48,46,269376708
21,3,9,Ticks_ISO_T2_8,126,1,48,43,270128764
21,3,9,Ticks_ISO_T2_8,127,5,42,127,270143752
21,3,9,Ticks_ISO_T2_8,128,1,48,47,270938152
21,3,9,Ticks_ISO_T2_8,129,5,42,127,270943744
21,3,9,Ticks_ISO_T2_8,130,5,42,127,271744284
21,3,9,Ticks_ISO_T2_8,131,1,48,46,271750592
21,3,9,Ticks_ISO_T2_8,132,5,42,127,272544128
21,3,9,Ticks_ISO_T2_8,133,1,48,55,272546100
21,3,9,Ticks_ISO_T2_8,134,5,42,127,273343740
21,3,9,Ticks_ISO_T2_8,135,1,48,47,273353176
21,3,9,Ticks_ISO_T2_8,136,1,48,50,274108216
21,3,9,Ticks_ISO_T2_8,137,5,42,127,274143804
21,3,9,Ticks_ISO_T2_8,138,1,48,51,274903252
21,3,9,Ticks_ISO_T2_8,139,5,42,127,274944256
21,3,9,Ticks_ISO_T2_8,140,1,48,46,275716980
21,3,9,Ticks_ISO_T2_8,141,5,42,127,275744048
21,3,9,Ticks_ISO_T2_8,142,5,42,127,276543896
21,3,9,Ticks_ISO_T2_8,143,1,48,45,276571876
21,3,9,Ticks_ISO_T2_8,144,1,48,48,277334240
21,3,9,Ticks_ISO_T2_8,145,5,42,127,277343656
21,3,9,Ticks_ISO_T2_8,146,1,48,49,278110656
21,3,9,Ticks_ISO_T2_8,147,5,42,127,278144412
21,3,9,Ticks_ISO_T2_8,148,5,42,127,278944188
21,3,9,Ticks_ISO_T2_8,149,1,48,45,278968120
21,3,9,Ticks_ISO_T2_8,150,5,42,127,279743928
21,3,9,Ticks_ISO_T2_8,151,1,48,57,279746572
21,3,9,Ticks_ISO_T2_8,152,5,42,127,280543540
21,3,9,Ticks_ISO_T2_8,153,1,48,47,280612140
21,3,9,Ticks_ISO_T2_8,154,1,48,57,281322128
21,3,9,Ticks_ISO_T2_8,155,5,42,127,281344440
21,3,9,Ticks_ISO_T2_8,156,1,48,59,282139168
21,3,9,Ticks_ISO_T2_8,157,5,42,127,282144004
21,3,9,Ticks_ISO_T2_8,158,1,48,53,282885944
21,3,9,Ticks_ISO_T2_8,159,5,42,127,282943848
21,3,9,Ticks_ISO_T2_8,160,1,48,55,283700084
21,3,9,Ticks_ISO_T2_8,161,5,42,127,283743612
21,3,9,Ticks_ISO_T2_8,162,1,48,50,284488636
21,3,9,Ticks_ISO_T2_8,163,5,42,127,284544296
21,3,9,Ticks_ISO_T2_8,164,1,48,46,285263752
21,3,9,Ticks_ISO_T2_8,165,5,42,127,285344288
21,3,9,Ticks_ISO_T2_8,166,1,48,57,286078556
21,3,9,Ticks_ISO_T2_8,167,5,42,127,286143752
21,3,9,Ticks_ISO_T2_8,168,1,48,59,286904572
21,3,9,Ticks_ISO_T2_8,169,5,42,127,286943672
21,3,9,Ticks_ISO_T2_8,170,5,42,127,287744208
21,3,9,Ticks_ISO_T2_8,171,1,48,59,287757920
21,3,9,Ticks_ISO_T2_8,172,1,48,57,288542684
21,3,9,Ticks_ISO_T2_8,173,5,42,127,288544220
21,3,9,Ticks_ISO_T2_8,174,5,42,127,289344072
21,3,9,Ticks_ISO_T2_8,175,1,48,52,289382584
21,3,9,Ticks_ISO_T2_8,176,1,48,51,290131976
21,3,9,Ticks_ISO_T2_8,177,5,42,127,290143604
21,3,9,Ticks_ISO_T2_8,178,1,48,44,290909000
21,3,9,Ticks_ISO_T2_8,179,5,42,127,290944436
21,3,9,Ticks_ISO_T2_8,180,1,48,46,291707696
21,3,9,Ticks_ISO_T2_8,181,5,42,127,291744276
21,3,9,Ticks_ISO_T2_8,182,1,48,42,292505636
21,3,9,Ticks_ISO_T2_8,183,5,42,127,292544120
21,3,9,Ticks_ISO_T2_8,184,1,48,47,293276628
21,3,9,Ticks_ISO_T2_8,185,5,42,127,293343736
21,3,9,Ticks_ISO_T2_8,186,1,48,54,294038552
21,3,9,Ticks_ISO_T2_8,187,5,42,127,294144324
21,3,9,Ticks_ISO_T2_8,188,1,48,45,294905692
21,3,9,Ticks_ISO_T2_8,189,5,42,127,294944056
21,3,9,Ticks_ISO_T2_8,190,1,48,59,295728380
21,3,9,Ticks_ISO_T2_8,191,5,42,127,295743820
21,3,9,Ticks_ISO_T2_8,192,1,48,47,296539288
21,3,9,Ticks_ISO_T2_8,193,5,42,127,296543588
21,3,9,Ticks_ISO_T2_8,194,1,48,50,297293492
21,3,9,Ticks_ISO_T2_8,195,5,42,127,297344268
21,3,9,Ticks_ISO_T2_8,196,1,48,55,298111648
21,3,9,Ticks_ISO_T2_8,197,5,42,127,298144036
21,3,9,Ticks_ISO_T2_8,198,1,48,43,298899056
21,3,9,Ticks_ISO_T2_8,199,5,42,127,298943800
21,3,9,Ticks_ISO_T2_8,200,1,48,52,299666624
21,3,9,Ticks_ISO_T2_8,201,5,42,127,299743720
21,3,9,Ticks_ISO_T2_8,202,1,48,39,300476376
21,3,9,Ticks_ISO_T2_8,203,5,42,127,300544780
21,3,9,Ticks_ISO_T2_8,204,1,48,58,301332028
21,3,9,Ticks_ISO_T2_8,205,5,42,127,301344268
21,3,9,Ticks_ISO_T2_8,206,1,48,48,302142892
21,3,9,Ticks_ISO_T2_8,207,5,42,127,302144644
21,3,9,Ticks_ISO_T2_8,208,1,48,51,302940796
21,3,9,Ticks_ISO_T2_8,209,5,42,127,302943800
21,3,9,Ticks_ISO_T2_8,210,5,42,127,303744412
21,3,9,Ticks_ISO_T2_8,211,1,48,55,303756676
21,3,9,Ticks_ISO_T2_8,212,1,48,55,304543952
21,3,9,Ticks_ISO_T2_8,213,5,42,127,304545544
21,3,9,Ticks_ISO_T2_8,214,1,48,53,305323228
21,3,9,Ticks_ISO_T2_8,215,5,42,127,305343860
21,3,9,Ticks_ISO_T2_8,216,1,48,48,306135584
21,3,9,Ticks_ISO_T2_8,217,5,42,127,306143704
21,3,9,Ticks_ISO_T2_8,218,1,48,46,306937792
21,3,9,Ticks_ISO_T2_8,219,5,42,127,306944384
21,3,9,Ticks_ISO_T2_8,220,5,42,127,307744336
21,3,9,Ticks_ISO_T2_8,221,1,48,51,307752856
21,3,9,Ticks_ISO_T2_8,222,5,42,127,308543876
21,3,9,Ticks_ISO_T2_8,223,1,48,50,308571932
21,3,9,Ticks_ISO_T2_8,224,1,48,48,309305752
21,3,9,Ticks_ISO_T2_8,225,5,42,127,309343556
21,3,9,Ticks_ISO_T2_8,226,1,48,45,310105216
21,3,9,Ticks_ISO_T2_8,227,5,42,127,310144316
21,3,9,Ticks_ISO_T2_8,228,1,48,43,310866216
21,3,9,Ticks_ISO_T2_8,229,5,42,127,310944308
21,3,9,Ticks_ISO_T2_8,230,5,42,127,311743932
21,3,9,Ticks_ISO_T2_8,231,1,48,47,311745068
21,3,9,Ticks_ISO_T2_8,232,1,48,48,312534200
21,3,9,Ticks_ISO_T2_8,233,5,42,127,312543464
21,3,9,Ticks_ISO_T2_8,234,1,48,48,313329080
21,3,9,Ticks_ISO_T2_8,235,5,42,127,313344372
21,3,9,Ticks_ISO_T2_8,236,1,48,52,314103284
21,3,9,Ticks_ISO_T2_8,237,5,42,127,314144084
21,3,9,Ticks_ISO_T2_8,238,1,48,52,314874808
21,3,9,Ticks_ISO_T2_8,0,9999,9999,9999,218941516
21,3,9,Ticks_ISO_T2_8,1,9999,9999,9999,219741232
21,3,9,Ticks_ISO_T2_8,2,9999,9999,9999,220542008
21,3,9,Ticks_ISO_T2_8,3,9999,9999,9999,221341780
21,3,9,Ticks_ISO_T2_8,4,9999,9999,9999,222141520
21,3,9,Ticks_ISO_T2_8,5,9999,9999,9999,222941288
21,3,9,Ticks_ISO_T2_8,6,9999,9999,9999,223742040
21,3,9,Ticks_ISO_T2_8,7,9999,9999,9999,224541752
21,3,9,Ticks_ISO_T2_8,8,9999,9999,9999,225341520
21,3,9,Ticks_ISO_T2_8,9,9999,9999,9999,226141284
21,3,9,Ticks_ISO_T2_8,10,9999,9999,9999,226942044
21,3,9,Ticks_ISO_T2_8,11,9999,9999,9999,227741808
21,3,9,Ticks_ISO_T2_8,12,9999,9999,9999,228541500
21,3,9,Ticks_ISO_T2_8,13,9999,9999,9999,229341268
21,3,9,Ticks_ISO_T2_8,14,9999,9999,9999,230142024
21,3,9,Ticks_ISO_T2_8,15,9999,9999,9999,230941816
21,3,9,Ticks_ISO_T2_8,16,9999,9999,9999,231741488
21,3,9,Ticks_ISO_T2_8,17,9999,9999,9999,232541280
21,3,9,Ticks_ISO_T2_8,18,9999,9999,9999,233342036
21,3,9,Ticks_ISO_T2_8,19,9999,9999,9999,234141804
21,3,9,Ticks_ISO_T2_8,20,9999,9999,9999,234941496
21,3,9,Ticks_ISO_T2_8,21,9999,9999,9999,235741260
21,3,9,Ticks_ISO_T2_8,22,9999,9999,9999,236542016
21,3,9,Ticks_ISO_T2_8,23,9999,9999,9999,237341800
21,3,9,Ticks_ISO_T2_8,24,9999,9999,9999,238141500
21,3,9,Ticks_ISO_T2_8,25,9999,9999,9999,238941256
21,3,9,Ticks_ISO_T2_8,26,9999,9999,9999,239742016
21,3,9,Ticks_ISO_T2_8,27,9999,9999,9999,240541780
21,3,9,Ticks_ISO_T2_8,28,9999,9999,9999,241341548
21,3,9,Ticks_ISO_T2_8,29,9999,9999,9999,242141244
21,3,9,Ticks_ISO_T2_8,30,9999,9999,9999,242942004
21,3,9,Ticks_ISO_T2_8,31,9999,9999,9999,243741784
21,3,9,Ticks_ISO_T2_8,32,9999,9999,9999,244541560
21,3,9,Ticks_ISO_T2_8,33,9999,9999,9999,245341244
21,3,9,Ticks_ISO_T2_8,34,9999,9999,9999,246142000
21,3,9,Ticks_ISO_T2_8,35,9999,9999,9999,246941768
21,3,9,Ticks_ISO_T2_8,36,9999,9999,9999,247741544
21,3,9,Ticks_ISO_T2_8,37,9999,9999,9999,248541232
21,3,9,Ticks_ISO_T2_8,38,9999,9999,9999,249342064
21,3,9,Ticks_ISO_T2_8,39,9999,9999,9999,250141780
21,3,9,Ticks_ISO_T2_8,40,9999,9999,9999,250941548
21,3,9,Ticks_ISO_T2_8,41,9999,9999,9999,251741236
21,3,9,Ticks_ISO_T2_8,42,9999,9999,9999,252542072
21,3,9,Ticks_ISO_T2_8,43,9999,9999,9999,253341760
21,3,9,Ticks_ISO_T2_8,44,9999,9999,9999,254141516
21,3,9,Ticks_ISO_T2_8,45,9999,9999,9999,254941284
21,3,9,Ticks_ISO_T2_8,46,9999,9999,9999,255742040
21,3,9,Ticks_ISO_T2_8,47,9999,9999,9999,256541756
21,3,9,Ticks_ISO_T2_8,48,9999,9999,9999,257341520
21,3,9,Ticks_ISO_T2_8,49,9999,9999,9999,258141288
21,3,9,Ticks_ISO_T2_8,50,9999,9999,9999,258942056
21,3,9,Ticks_ISO_T2_8,51,9999,9999,9999,259741744
21,3,9,Ticks_ISO_T2_8,52,9999,9999,9999,260541512
21,3,9,Ticks_ISO_T2_8,53,9999,9999,9999,261341268
21,3,9,Ticks_ISO_T2_8,54,9999,9999,9999,262142040
21,3,9,Ticks_ISO_T2_8,55,9999,9999,9999,262941752
21,3,9,Ticks_ISO_T2_8,56,9999,9999,9999,263741508
21,3,9,Ticks_ISO_T2_8,57,9999,9999,9999,264541276
21,3,9,Ticks_ISO_T2_8,58,9999,9999,9999,265342036
21,3,9,Ticks_ISO_T2_8,59,9999,9999,9999,266141804
21,3,9,Ticks_ISO_T2_8,60,9999,9999,9999,266941492
21,3,9,Ticks_ISO_T2_8,61,9999,9999,9999,267741268
21,3,9,Ticks_ISO_T2_8,62,9999,9999,9999,268542024
21,3,9,Ticks_ISO_T2_8,63,9999,9999,9999,269341816
21,3,9,Ticks_ISO_T2_8,64,9999,9999,9999,270141500
21,3,9,Ticks_ISO_T2_8,65,9999,9999,9999,270941264
21,3,9,Ticks_ISO_T2_8,66,9999,9999,9999,271742028
21,3,9,Ticks_ISO_T2_8,67,9999,9999,9999,272541796
21,3,9,Ticks_ISO_T2_8,68,9999,9999,9999,273341484
21,3,9,Ticks_ISO_T2_8,69,9999,9999,9999,274141244
21,3,9,Ticks_ISO_T2_8,70,9999,9999,9999,274942004
21,3,9,Ticks_ISO_T2_8,71,9999,9999,9999,275741792
21,3,9,Ticks_ISO_T2_8,72,9999,9999,9999,276541492
21,3,9,Ticks_ISO_T2_8,73,9999,9999,9999,277341248
21,3,9,Ticks_ISO_T2_8,74,9999,9999,9999,278142008
21,3,9,Ticks_ISO_T2_8,75,9999,9999,9999,278941780
21,3,9,Ticks_ISO_T2_8,76,9999,9999,9999,279741520
21,3,9,Ticks_ISO_T2_8,77,9999,9999,9999,280541284
21,3,9,Ticks_ISO_T2_8,78,9999,9999,9999,281342036
21,3,9,Ticks_ISO_T2_8,79,9999,9999,9999,282141752
21,3,9,Ticks_ISO_T2_8,80,9999,9999,9999,282941516
21,3,9,Ticks_ISO_T2_8,81,9999,9999,9999,283741280
21,3,9,Ticks_ISO_T2_8,82,9999,9999,9999,284542040
21,3,9,Ticks_ISO_T2_8,83,9999,9999,9999,285341808
21,3,9,Ticks_ISO_T2_8,84,9999,9999,9999,286141500
21,3,9,Ticks_ISO_T2_8,85,9999,9999,9999,286941264
21,3,9,Ticks_ISO_T2_8,86,9999,9999,9999,287742032
21,3,9,Ticks_ISO_T2_8,87,9999,9999,9999,288541748
21,3,9,Ticks_ISO_T2_8,88,9999,9999,9999,289341512
21,3,9,Ticks_ISO_T2_8,89,9999,9999,9999,290141272
21,3,9,Ticks_ISO_T2_8,90,9999,9999,9999,290942032
21,3,9,Ticks_ISO_T2_8,91,9999,9999,9999,291741796
21,3,9,Ticks_ISO_T2_8,92,9999,9999,9999,292541488
21,3,9,Ticks_ISO_T2_8,93,9999,9999,9999,293341252
21,3,9,Ticks_ISO_T2_8,94,9999,9999,9999,294142068
21,3,9,Ticks_ISO_T2_8,95,9999,9999,9999,294941800
21,3,9,Ticks_ISO_T2_8,96,9999,9999,9999,295741492
21,3,9,Ticks_ISO_T2_8,97,9999,9999,9999,296541256
21,3,9,Ticks_ISO_T2_8,98,9999,9999,9999,297342012
21,3,9,Ticks_ISO_T2_8,99,9999,9999,9999,298141780
21,3,9,Ticks_ISO_T2_8,100,9999,9999,9999,298941548
21,3,9,Ticks_ISO_T2_8,101,9999,9999,9999,299741236
21,3,9,Ticks_ISO_T2_8,102,9999,9999,9999,300542072
21,3,9,Ticks_ISO_T2_8,103,9999,9999,9999,301341784
21,3,9,Ticks_ISO_T2_8,104,9999,9999,9999,302141560
21,3,9,Ticks_ISO_T2_8,105,9999,9999,9999,302941240
21,3,9,Ticks_ISO_T2_8,106,9999,9999,9999,303742008
21,3,9,Ticks_ISO_T2_8,107,9999,9999,9999,304541772
21,3,9,Ticks_ISO_T2_8,108,9999,9999,9999,305341532
21,3,9,Ticks_ISO_T2_8,109,9999,9999,9999,306141296
21,3,9,Ticks_ISO_T2_8,110,9999,9999,9999,306942056
21,3,9,Ticks_ISO_T2_8,111,9999,9999,9999,307741780
21,3,9,Ticks_ISO_T2_8,112,9999,9999,9999,308541544
21,3,9,Ticks_ISO_T2_8,113,9999,9999,9999,309341304
21,3,9,Ticks_ISO_T2_8,114,9999,9999,9999,310142060
21,3,9,Ticks_ISO_T2_8,115,9999,9999,9999,310941752
21,3,9,Ticks_ISO_T2_8,116,9999,9999,9999,311741524
21,3,9,Ticks_ISO_T2_8,117,9999,9999,9999,312541284
21,3,9,Ticks_ISO_T2_8,118,9999,9999,9999,313342040
21,3,9,Ticks_ISO_T2_8,119,9999,9999,9999,314141756
21,4,10,Ticks_ISO_T2_5,0,5,42,127,331770240
21,4,10,Ticks_ISO_T2_5,1,5,42,127,332269888
21,4,10,Ticks_ISO_T2_5,2,1,48,31,332665260
21,4,10,Ticks_ISO_T2_5,3,5,42,127,332769664
21,4,10,Ticks_ISO_T2_5,4,1,48,43,333213568
21,4,10,Ticks_ISO_T2_5,5,5,42,127,333270376
21,4,10,Ticks_ISO_T2_5,6,1,48,43,333746772
21,4,10,Ticks_ISO_T2_5,7,5,42,127,333770152
21,4,10,Ticks_ISO_T2_5,8,5,42,127,334269912
21,4,10,Ticks_ISO_T2_5,9,1,48,50,334288504
21,4,10,Ticks_ISO_T2_5,10,5,42,127,334769532
21,4,10,Ticks_ISO_T2_5,11,1,48,53,334780576
21,4,10,Ticks_ISO_T2_5,12,1,48,55,335237756
21,4,10,Ticks_ISO_T2_5,13,5,42,127,335270140
21,4,10,Ticks_ISO_T2_5,14,1,48,55,335745316
21,4,10,Ticks_ISO_T2_5,15,5,42,127,335770220
21,4,10,Ticks_ISO_T2_5,16,1,48,49,336265464
21,4,10,Ticks_ISO_T2_5,17,5,42,127,336269844
21,4,10,Ticks_ISO_T2_5,18,1,48,45,336750972
21,4,10,Ticks_ISO_T2_5,19,5,42,127,336770384
21,4,10,Ticks_ISO_T2_5,20,1,48,46,337250520
21,4,10,Ticks_ISO_T2_5,21,5,42,127,337270236
21,4,10,Ticks_ISO_T2_5,22,1,48,52,337757320
21,4,10,Ticks_ISO_T2_5,23,5,42,127,337769936
21,4,10,Ticks_ISO_T2_5,24,1,48,45,338253504
21,4,10,Ticks_ISO_T2_5,25,5,42,127,338269484
21,4,10,Ticks_ISO_T2_5,26,1,48,44,338746256
21,4,10,Ticks_ISO_T2_5,27,5,42,127,338770176
21,4,10,Ticks_ISO_T2_5,28,1,48,43,339245352
21,4,10,Ticks_ISO_T2_5,29,5,42,127,339270184
21,4,10,Ticks_ISO_T2_5,30,5,42,127,339769740
21,4,10,Ticks_ISO_T2_5,31,1,48,49,339770648
21,4,10,Ticks_ISO_T2_5,32,5,42,127,340269592
21,4,10,Ticks_ISO_T2_5,33,1,48,46,340296196
21,4,10,Ticks_ISO_T2_5,34,1,48,35,340742292
21,4,10,Ticks_ISO_T2_5,35,5,42,127,340770124
21,4,10,Ticks_ISO_T2_5,36,1,48,43,341257636
21,4,10,Ticks_ISO_T2_5,37,5,42,127,341269820
21,4,10,Ticks_ISO_T2_5,38,1,48,51,341741768
21,4,10,Ticks_ISO_T2_5,39,5,42,127,341769496
21,4,10,Ticks_ISO_T2_5,40,1,48,54,342257872
21,4,10,Ticks_ISO_T2_5,41,5,42,127,342270264
21,4,10,Ticks_ISO_T2_5,42,1,48,48,342746812
21,4,10,Ticks_ISO_T2_5,43,5,42,127,342770116
21,4,10,Ticks_ISO_T2_5,44,1,48,44,343216600
21,4,10,Ticks_ISO_T2_5,45,5,42,127,343269892
21,4,10,Ticks_ISO_T2_5,46,1,48,45,343761776
21,4,10,Ticks_ISO_T2_5,47,5,42,127,343769592
21,4,10,Ticks_ISO_T2_5,48,1,48,47,344265440
21,4,10,Ticks_ISO_T2_5,49,5,42,127,344270284
21,4,10,Ticks_ISO_T2_5,50,5,42,127,344769916
21,4,10,Ticks_ISO_T2_5,51,1,48,47,344783696
21,4,10,Ticks_ISO_T2_5,52,1,48,55,345250116
21,4,10,Ticks_ISO_T2_5,53,5,42,127,345269680
21,4,10,Ticks_ISO_T2_5,54,1,48,50,345747068
21,4,10,Ticks_ISO_T2_5,55,5,42,127,345770448
21,4,10,Ticks_ISO_T2_5,56,1,48,45,346244480
21,4,10,Ticks_ISO_T2_5,57,5,42,127,346270000
21,4,10,Ticks_ISO_T2_5,58,1,48,51,346734256
21,4,10,Ticks_ISO_T2_5,59,5,42,127,346769696
21,4,10,Ticks_ISO_T2_5,60,1,48,51,347234344
21,4,10,Ticks_ISO_T2_5,61,5,42,127,347269552
21,4,10,Ticks_ISO_T2_5,62,1,48,44,347719700
21,4,10,Ticks_ISO_T2_5,63,5,42,127,347770320
21,4,10,Ticks_ISO_T2_5,64,1,48,52,348231528
21,4,10,Ticks_ISO_T2_5,65,5,42,127,348269868
21,4,10,Ticks_ISO_T2_5,66,1,48,48,348710248
21,4,10,Ticks_ISO_T2_5,67,5,42,127,348769568
21,4,10,Ticks_ISO_T2_5,68,1,48,48,349232836
21,4,10,Ticks_ISO_T2_5,69,5,42,127,349270488
21,4,10,Ticks_ISO_T2_5,70,1,48,40,349722772
21,4,10,Ticks_ISO_T2_5,71,5,42,127,349770188
21,4,10,Ticks_ISO_T2_5,72,1,48,44,350222928
21,4,10,Ticks_ISO_T2_5,73,5,42,127,350269736
21,4,10,Ticks_ISO_T2_5,74,1,48,51,350740944
21,4,10,Ticks_ISO_T2_5,75,5,42,127,350769588
21,4,10,Ticks_ISO_T2_5,76,1,48,47,351211776
21,4,10,Ticks_ISO_T2_5,77,5,42,127,351270508
21,4,10,Ticks_ISO_T2_5,78,1,48,35,351768444
21,4,10,Ticks_ISO_T2_5,79,5,42,127,351770284
21,4,10,Ticks_ISO_T2_5,80,1,48,41,352266348
21,4,10,Ticks_ISO_T2_5,81,5,42,127,352269528
21,4,10,Ticks_ISO_T2_5,82,1,48,47,352762760
21,4,10,Ticks_ISO_T2_5,83,5,42,127,352770348
21,4,10,Ticks_ISO_T2_5,84,1,48,44,353246668
21,4,10,Ticks_ISO_T2_5,85,5,42,127,353270276
21,4,10,Ticks_ISO_T2_5,86,1,48,40,353760788
21,4,10,Ticks_ISO_T2_5,87,5,42,127,353769748
21,4,10,Ticks_ISO_T2_5,88,1,48,43,354247364
21,4,10,Ticks_ISO_T2_5,89,5,42,127,354269600
21,4,10,Ticks_ISO_T2_5,90,1,48,40,354723256
21,4,10,Ticks_ISO_T2_5,91,5,42,127,354770444
21,4,10,Ticks_ISO_T2_5,92,1,48,42,355223568
21,4,10,Ticks_ISO_T2_5,93,5,42,127,355270068
21,4,10,Ticks_ISO_T2_5,94,1,48,47,355717008
21,4,10,Ticks_ISO_T2_5,95,5,42,127,355769768
21,4,10,Ticks_ISO_T2_5,96,1,48,34,356228916
21,4,10,Ticks_ISO_T2_5,97,5,42,127,356269392
21,4,10,Ticks_ISO_T2_5,98,1,48,41,356725636
21,4,10,Ticks_ISO_T2_5,99,5,42,127,356770236
21,4,10,Ticks_ISO_T2_5,100,1,48,40,357224652
21,4,10,Ticks_ISO_T2_5,101,5,42,127,357270084
21,4,10,Ticks_ISO_T2_5,102,1,48,39,357746100
21,4,10,Ticks_ISO_T2_5,103,5,42,127,357769484
21,4,10,Ticks_ISO_T2_5,104,1,48,44,358251908
21,4,10,Ticks_ISO_T2_5,105,5,42,127,358270404
21,4,10,Ticks_ISO_T2_5,106,1,48,45,358731004
21,4,10,Ticks_ISO_T2_5,107,5,42,127,358770180
21,4,10,Ticks_ISO_T2_5,108,1,48,49,359242076
21,4,10,Ticks_ISO_T2_5,109,5,42,127,359269652
21,4,10,Ticks_ISO_T2_5,110,1,48,47,359741624
21,4,10,Ticks_ISO_T2_5,111,5,42,127,359769356
21,4,10,Ticks_ISO_T2_5,112,1,48,40,360263068
21,4,10,Ticks_ISO_T2_5,113,5,42,127,360270196
21,4,10,Ticks_ISO_T2_5,114,1,48,40,360743540
21,4,10,Ticks_ISO_T2_5,115,5,42,127,360770200
21,4,10,Ticks_ISO_T2_5,116,1,48,41,361238052
21,4,10,Ticks_ISO_T2_5,117,5,42,127,361269672
21,4,10,Ticks_ISO_T2_5,118,1,48,39,361724448
21,4,10,Ticks_ISO_T2_5,119,5,42,127,361770364
21,4,10,Ticks_ISO_T2_5,120,1,48,41,362262860
21,4,10,Ticks_ISO_T2_5,121,5,42,127,362270140
21,4,10,Ticks_ISO_T2_5,122,1,48,38,362727128
21,4,10,Ticks_ISO_T2_5,123,5,42,127,362769764
21,4,10,Ticks_ISO_T2_5,124,1,48,41,363237128
21,4,10,Ticks_ISO_T2_5,125,5,42,127,363269516
21,4,10,Ticks_ISO_T2_5,126,1,48,44,363763768
21,4,10,Ticks_ISO_T2_5,127,5,42,127,363770208
21,4,10,Ticks_ISO_T2_5,128,1,48,42,364214856
21,4,10,Ticks_ISO_T2_5,129,5,42,127,364269980
21,4,10,Ticks_ISO_T2_5,130,1,48,38,364729668
21,4,10,Ticks_ISO_T2_5,131,5,42,127,364769684
21,4,10,Ticks_ISO_T2_5,132,1,48,40,365215860
21,4,10,Ticks_ISO_T2_5,133,5,42,127,365270372
21,4,10,Ticks_ISO_T2_5,134,1,48,40,365734404
21,4,10,Ticks_ISO_T2_5,135,5,42,127,365769996
21,4,10,Ticks_ISO_T2_5,136,1,48,40,366250436
21,4,10,Ticks_ISO_T2_5,137,5,42,127,366269776
21,4,10,Ticks_ISO_T2_5,138,1,48,40,366724724
21,4,10,Ticks_ISO_T2_5,139,5,42,127,366769472
21,4,10,Ticks_ISO_T2_5,140,1,48,41,367251592
21,4,10,Ticks_ISO_T2_5,141,5,42,127,367270168
21,4,10,Ticks_ISO_T2_5,142,1,48,39,367726560
21,4,10,Ticks_ISO_T2_5,143,5,42,127,367770020
21,4,10,Ticks_ISO_T2_5,144,1,48,42,368231304
21,4,10,Ticks_ISO_T2_5,145,5,42,127,368269872
21,4,10,Ticks_ISO_T2_5,146,1,48,40,368732304
21,4,10,Ticks_ISO_T2_5,147,5,42,127,368770636
21,4,10,Ticks_ISO_T2_5,148,1,48,38,369236120
21,4,10,Ticks_ISO_T2_5,149,5,42,127,369270184
21,4,10,Ticks_ISO_T2_5,150,1,48,35,369746652
21,4,10,Ticks_ISO_T2_5,151,5,42,127,369769808
21,4,10,Ticks_ISO_T2_5,152,1,48,36,370227664
21,4,10,Ticks_ISO_T2_5,153,5,42,127,370269664
21,4,10,Ticks_ISO_T2_5,154,1,48,43,370730036
21,4,10,Ticks_ISO_T2_5,155,5,42,127,370770280
21,4,10,Ticks_ISO_T2_5,156,1,48,51,371238888
21,4,10,Ticks_ISO_T2_5,157,5,42,127,371269904
21,4,10,Ticks_ISO_T2_5,158,1,48,48,371748512
21,4,10,Ticks_ISO_T2_5,159,5,42,127,371769680
21,4,10,Ticks_ISO_T2_5,160,5,42,127,372269464
21,4,10,Ticks_ISO_T2_5,161,1,48,46,372295228
21,4,10,Ticks_ISO_T2_5,162,1,48,41,372743232
21,4,10,Ticks_ISO_T2_5,163,5,42,127,372770296
21,4,10,Ticks_ISO_T2_5,164,1,48,46,373234380
21,4,10,Ticks_ISO_T2_5,165,5,42,127,373269768
21,4,10,Ticks_ISO_T2_5,166,1,48,59,373769452
21,4,10,Ticks_ISO_T2_5,167,5,42,127,373771044
21,4,10,Ticks_ISO_T2_5,168,1,48,48,374252684
21,4,10,Ticks_ISO_T2_5,169,5,42,127,374270492
21,4,10,Ticks_ISO_T2_5,170,1,48,51,374744596
21,4,10,Ticks_ISO_T2_5,171,5,42,127,374769964
21,4,10,Ticks_ISO_T2_5,172,1,48,46,375249184
21,4,10,Ticks_ISO_T2_5,173,5,42,127,375269740
21,4,10,Ticks_ISO_T2_5,174,1,48,53,375718812
21,4,10,Ticks_ISO_T2_5,175,5,42,127,375769440
21,4,10,Ticks_ISO_T2_5,176,1,48,51,376208824
21,4,10,Ticks_ISO_T2_5,177,5,42,127,376270508
21,4,10,Ticks_ISO_T2_5,178,1,48,52,376742024
21,4,10,Ticks_ISO_T2_5,179,5,42,127,376769908
21,4,10,Ticks_ISO_T2_5,180,1,48,49,377240424
21,4,10,Ticks_ISO_T2_5,181,5,42,127,377269532
21,4,10,Ticks_ISO_T2_5,182,1,48,57,377704492
21,4,10,Ticks_ISO_T2_5,183,5,42,127,377770452
21,4,10,Ticks_ISO_T2_5,184,1,48,50,378199992
21,4,10,Ticks_ISO_T2_5,185,5,42,127,378270152
21,4,10,Ticks_ISO_T2_5,186,1,48,50,378712360
21,4,10,Ticks_ISO_T2_5,187,5,42,127,378769776
21,4,10,Ticks_ISO_T2_5,188,1,48,51,379255704
21,4,10,Ticks_ISO_T2_5,189,5,42,127,379269400
21,4,10,Ticks_ISO_T2_5,190,5,42,127,379770404
21,4,10,Ticks_ISO_T2_5,191,1,48,45,379774576
21,4,10,Ticks_ISO_T2_5,192,5,42,127,380270028
21,4,10,Ticks_ISO_T2_5,193,1,48,42,380285264
21,4,10,Ticks_ISO_T2_5,194,5,42,127,380769652
21,4,10,Ticks_ISO_T2_5,195,1,48,54,380799692
21,4,10,Ticks_ISO_T2_5,196,5,42,127,381270344
21,4,10,Ticks_ISO_T2_5,197,1,48,54,381284360
21,4,10,Ticks_ISO_T2_5,198,1,48,45,381754132
21,4,10,Ticks_ISO_T2_5,199,5,42,127,381770188
21,4,10,Ticks_ISO_T2_5,200,1,48,44,382256736
21,4,10,Ticks_ISO_T2_5,201,5,42,127,382270040
21,4,10,Ticks_ISO_T2_5,202,1,48,54,382734224
21,4,10,Ticks_ISO_T2_5,203,5,42,127,382769436
21,4,10,Ticks_ISO_T2_5,204,1,48,39,383226268
21,4,10,Ticks_ISO_T2_5,205,5,42,127,383270280
21,4,10,Ticks_ISO_T2_5,206,1,48,51,383708272
21,4,10,Ticks_ISO_T2_5,207,5,42,127,383769980
21,4,10,Ticks_ISO_T2_5,208,1,48,53,384257492
21,4,10,Ticks_ISO_T2_5,209,5,42,127,384269680
21,4,10,Ticks_ISO_T2_5,210,1,48,43,384717896
21,4,10,Ticks_ISO_T2_5,211,5,42,127,384770420
21,4,10,Ticks_ISO_T2_5,212,1,48,53,385248952
21,4,10,Ticks_ISO_T2_5,213,5,42,127,385270196
21,4,10,Ticks_ISO_T2_5,214,1,48,49,385753764
21,4,10,Ticks_ISO_T2_5,215,5,42,127,385770048
21,4,10,Ticks_ISO_T2_5,216,1,48,47,386238052
21,4,10,Ticks_ISO_T2_5,217,5,42,127,386269444
21,4,10,Ticks_ISO_T2_5,218,1,48,49,386709748
21,4,10,Ticks_ISO_T2_5,219,5,42,127,386770364
21,4,10,Ticks_ISO_T2_5,220,1,48,50,387187244
21,4,10,Ticks_ISO_T2_5,221,5,42,127,387269912
21,4,10,Ticks_ISO_T2_5,222,1,48,43,387705556
21,4,10,Ticks_ISO_T2_5,223,5,42,127,387769916
21,4,10,Ticks_ISO_T2_5,224,1,48,48,388211588
21,4,10,Ticks_ISO_T2_5,225,5,42,127,388269464
21,4,10,Ticks_ISO_T2_5,226,1,48,50,388703200
21,4,10,Ticks_ISO_T2_5,227,5,42,127,388770080
21,4,10,Ticks_ISO_T2_5,228,1,48,48,389152388
21,4,10,Ticks_ISO_T2_5,229,5,42,127,389270068
21,4,10,Ticks_ISO_T2_5,230,1,48,50,389663000
21,4,10,Ticks_ISO_T2_5,231,5,42,127,389769692
21,4,10,Ticks_ISO_T2_5,232,1,48,38,390263888
21,4,10,Ticks_ISO_T2_5,233,5,42,127,390270400
21,4,10,Ticks_ISO_T2_5,234,5,42,127,390769956
21,4,10,Ticks_ISO_T2_5,235,1,48,38,390806560
21,4,10,Ticks_ISO_T2_5,236,5,42,127,391269808
21,4,10,Ticks_ISO_T2_5,237,1,48,47,391298856
21,4,10,Ticks_ISO_T2_5,238,5,42,127,391769508
21,4,10,Ticks_ISO_T2_5,239,1,48,48,391791844
21,4,10,Ticks_ISO_T2_5,240,5,42,127,392270124
21,4,10,Ticks_ISO_T2_5,241,1,48,48,392273152
21,4,10,Ticks_ISO_T2_5,242,1,48,43,392762688
21,4,10,Ticks_ISO_T2_5,243,5,42,127,392769816
21,4,10,Ticks_ISO_T2_5,244,1,48,52,393241708
21,4,10,Ticks_ISO_T2_5,245,5,42,127,393269820
21,4,10,Ticks_ISO_T2_5,246,5,42,127,393770672
21,4,10,Ticks_ISO_T2_5,247,1,48,42,393781560
21,4,10,Ticks_ISO_T2_5,248,1,48,52,394219032
21,4,10,Ticks_ISO_T2_5,249,5,42,127,394270060
21,4,10,Ticks_ISO_T2_5,250,1,48,51,394726820
21,4,10,Ticks_ISO_T2_5,251,5,42,127,394769836
21,4,10,Ticks_ISO_T2_5,252,1,48,51,395250864
21,4,10,Ticks_ISO_T2_5,253,5,42,127,395269664
21,4,10,Ticks_ISO_T2_5,254,1,48,48,395734836
21,4,10,Ticks_ISO_T2_5,255,5,42,127,395770356
21,4,10,Ticks_ISO_T2_5,256,1,48,54,396216992
21,4,10,Ticks_ISO_T2_5,257,5,42,127,396269904
21,4,10,Ticks_ISO_T2_5,258,1,48,43,396732716
21,4,10,Ticks_ISO_T2_5,0,9999,9999,9999,331767912
21,4,10,Ticks_ISO_T2_5,1,9999,9999,9999,332267636
21,4,10,Ticks_ISO_T2_5,2,9999,9999,9999,332767336
21,4,10,Ticks_ISO_T2_5,3,9999,9999,9999,333268044
21,4,10,Ticks_ISO_T2_5,4,9999,9999,9999,333767748
21,4,10,Ticks_ISO_T2_5,5,9999,9999,9999,334267504
21,4,10,Ticks_ISO_T2_5,6,9999,9999,9999,334767204
21,4,10,Ticks_ISO_T2_5,7,9999,9999,9999,335267888
21,4,10,Ticks_ISO_T2_5,8,9999,9999,9999,335767668
21,4,10,Ticks_ISO_T2_5,9,9999,9999,9999,336267364
21,4,10,Ticks_ISO_T2_5,10,9999,9999,9999,336768056
21,4,10,Ticks_ISO_T2_5,11,9999,9999,9999,337267832
21,4,10,Ticks_ISO_T2_5,12,9999,9999,9999,337767532
21,4,10,Ticks_ISO_T2_5,13,9999,9999,9999,338267232
21,4,10,Ticks_ISO_T2_5,14,9999,9999,9999,338767924
21,4,10,Ticks_ISO_T2_5,15,9999,9999,9999,339267704
21,4,10,Ticks_ISO_T2_5,16,9999,9999,9999,339767412
21,4,10,Ticks_ISO_T2_5,17,9999,9999,9999,340267112
21,4,10,Ticks_ISO_T2_5,18,9999,9999,9999,340767796
21,4,10,Ticks_ISO_T2_5,19,9999,9999,9999,341267568
21,4,10,Ticks_ISO_T2_5,20,9999,9999,9999,341767244
21,4,10,Ticks_ISO_T2_5,21,9999,9999,9999,342268012
21,4,10,Ticks_ISO_T2_5,22,9999,9999,9999,342767712
21,4,10,Ticks_ISO_T2_5,23,9999,9999,9999,343267412
21,4,10,Ticks_ISO_T2_5,24,9999,9999,9999,343767112
21,4,10,Ticks_ISO_T2_5,25,9999,9999,9999,344267880
21,4,10,Ticks_ISO_T2_5,26,9999,9999,9999,344767588
21,4,10,Ticks_ISO_T2_5,27,9999,9999,9999,345267276
21,4,10,Ticks_ISO_T2_5,28,9999,9999,9999,345768044
21,4,10,Ticks_ISO_T2_5,29,9999,9999,9999,346267744
21,4,10,Ticks_ISO_T2_5,30,9999,9999,9999,346767444
21,4,10,Ticks_ISO_T2_5,31,9999,9999,9999,347267148
21,4,10,Ticks_ISO_T2_5,32,9999,9999,9999,347767916
21,4,10,Ticks_ISO_T2_5,33,9999,9999,9999,348267616
21,4,10,Ticks_ISO_T2_5,34,9999,9999,9999,348767316
21,4,10,Ticks_ISO_T2_5,35,9999,9999,9999,349268084
21,4,10,Ticks_ISO_T2_5,36,9999,9999,9999,349767784
21,4,10,Ticks_ISO_T2_5,37,9999,9999,9999,350267484
21,4,10,Ticks_ISO_T2_5,38,9999,9999,9999,350767184
21,4,10,Ticks_ISO_T2_5,39,9999,9999,9999,351267952
21,4,10,Ticks_ISO_T2_5,40,9999,9999,9999,351767660
21,4,10,Ticks_ISO_T2_5,41,9999,9999,9999,352267328
21,4,10,Ticks_ISO_T2_5,42,9999,9999,9999,352768096
21,4,10,Ticks_ISO_T2_5,43,9999,9999,9999,353267796
21,4,10,Ticks_ISO_T2_5,44,9999,9999,9999,353767496
21,4,10,Ticks_ISO_T2_5,45,9999,9999,9999,354267196
21,4,10,Ticks_ISO_T2_5,46,9999,9999,9999,354767964
21,4,10,Ticks_ISO_T2_5,47,9999,9999,9999,355267664
21,4,10,Ticks_ISO_T2_5,48,9999,9999,9999,355767364
21,4,10,Ticks_ISO_T2_5,49,9999,9999,9999,356267064
21,4,10,Ticks_ISO_T2_5,50,9999,9999,9999,356767832
21,4,10,Ticks_ISO_T2_5,51,9999,9999,9999,357267532
21,4,10,Ticks_ISO_T2_5,52,9999,9999,9999,357767232
21,4,10,Ticks_ISO_T2_5,53,9999,9999,9999,358268000
21,4,10,Ticks_ISO_T2_5,54,9999,9999,9999,358767700
21,4,10,Ticks_ISO_T2_5,55,9999,9999,9999,359267400
21,4,10,Ticks_ISO_T2_5,56,9999,9999,9999,359767104
21,4,10,Ticks_ISO_T2_5,57,9999,9999,9999,360267868
21,4,10,Ticks_ISO_T2_5,58,9999,9999,9999,360767568
21,4,10,Ticks_ISO_T2_5,59,9999,9999,9999,361267268
21,4,10,Ticks_ISO_T2_5,60,9999,9999,9999,361768036
21,4,10,Ticks_ISO_T2_5,61,9999,9999,9999,362267736
21,4,10,Ticks_ISO_T2_5,62,9999,9999,9999,362767436
21,4,10,Ticks_ISO_T2_5,63,9999,9999,9999,363267188
21,4,10,Ticks_ISO_T2_5,64,9999,9999,9999,363767876
21,4,10,Ticks_ISO_T2_5,65,9999,9999,9999,364267580
21,4,10,Ticks_ISO_T2_5,66,9999,9999,9999,364767356
21,4,10,Ticks_ISO_T2_5,67,9999,9999,9999,365268044
21,4,10,Ticks_ISO_T2_5,68,9999,9999,9999,365767744
21,4,10,Ticks_ISO_T2_5,69,9999,9999,9999,366267448
21,4,10,Ticks_ISO_T2_5,70,9999,9999,9999,366767220
21,4,10,Ticks_ISO_T2_5,71,9999,9999,9999,367267912
21,4,10,Ticks_ISO_T2_5,72,9999,9999,9999,367767616
21,4,10,Ticks_ISO_T2_5,73,9999,9999,9999,368267316
21,4,10,Ticks_ISO_T2_5,74,9999,9999,9999,368768084
21,4,10,Ticks_ISO_T2_5,75,9999,9999,9999,369267780
21,4,10,Ticks_ISO_T2_5,76,9999,9999,9999,369767480
21,4,10,Ticks_ISO_T2_5,77,9999,9999,9999,370267260
21,4,10,Ticks_ISO_T2_5,78,9999,9999,9999,370767952
21,4,10,Ticks_ISO_T2_5,79,9999,9999,9999,371267652
21,4,10,Ticks_ISO_T2_5,80,9999,9999,9999,371767352
21,4,10,Ticks_ISO_T2_5,81,9999,9999,9999,372267132
21,4,10,Ticks_ISO_T2_5,82,9999,9999,9999,372767816
21,4,10,Ticks_ISO_T2_5,83,9999,9999,9999,373267516
21,4,10,Ticks_ISO_T2_5,84,9999,9999,9999,373767276
21,4,10,Ticks_ISO_T2_5,85,9999,9999,9999,374268012
21,4,10,Ticks_ISO_T2_5,86,9999,9999,9999,374767712
21,4,10,Ticks_ISO_T2_5,87,9999,9999,9999,375267412
21,4,10,Ticks_ISO_T2_5,88,9999,9999,9999,375767112
21,4,10,Ticks_ISO_T2_5,89,9999,9999,9999,376267876
21,4,10,Ticks_ISO_T2_5,90,9999,9999,9999,376767580
21,4,10,Ticks_ISO_T2_5,91,9999,9999,9999,377267280
21,4,10,Ticks_ISO_T2_5,92,9999,9999,9999,377768048
21,4,10,Ticks_ISO_T2_5,93,9999,9999,9999,378267748
21,4,10,Ticks_ISO_T2_5,94,9999,9999,9999,378767448
21,4,10,Ticks_ISO_T2_5,95,9999,9999,9999,379267148
21,4,10,Ticks_ISO_T2_5,96,9999,9999,9999,379767924
21,4,10,Ticks_ISO_T2_5,97,9999,9999,9999,380267624
21,4,10,Ticks_ISO_T2_5,98,9999,9999,9999,380767324
21,4,10,Ticks_ISO_T2_5,99,9999,9999,9999,381268092
21,4,10,Ticks_ISO_T2_5,100,9999,9999,9999,381767784
21,4,10,Ticks_ISO_T2_5,101,9999,9999,9999,382267484
21,4,10,Ticks_ISO_T2_5,102,9999,9999,9999,382767184
21,4,10,Ticks_ISO_T2_5,103,9999,9999,9999,383267952
21,4,10,Ticks_ISO_T2_5,104,9999,9999,9999,383767652
21,4,10,Ticks_ISO_T2_5,105,9999,9999,9999,384267352
21,4,10,Ticks_ISO_T2_5,106,9999,9999,9999,384768092
21,4,10,Ticks_ISO_T2_5,107,9999,9999,9999,385267792
21,4,10,Ticks_ISO_T2_5,108,9999,9999,9999,385767492
21,4,10,Ticks_ISO_T2_5,109,9999,9999,9999,386267192
21,4,10,Ticks_ISO_T2_5,110,9999,9999,9999,386767960
21,4,10,Ticks_ISO_T2_5,111,9999,9999,9999,387267660
21,4,10,Ticks_ISO_T2_5,112,9999,9999,9999,387767360
21,4,10,Ticks_ISO_T2_5,113,9999,9999,9999,388267060
21,4,10,Ticks_ISO_T2_5,114,9999,9999,9999,388767828
21,4,10,Ticks_ISO_T2_5,115,9999,9999,9999,389267512
21,4,10,Ticks_ISO_T2_5,116,9999,9999,9999,389767288
21,4,10,Ticks_ISO_T2_5,117,9999,9999,9999,390267996
21,4,10,Ticks_ISO_T2_5,118,9999,9999,9999,390767704
21,4,10,Ticks_ISO_T2_5,119,9999,9999,9999,391267404
21,4,10,Ticks_ISO_T2_5,120,9999,9999,9999,391767104
21,4,10,Ticks_ISO_T2_5,121,9999,9999,9999,392267872
21,4,10,Ticks_ISO_T2_5,122,9999,9999,9999,392767564
21,4,10,Ticks_ISO_T2_5,123,9999,9999,9999,393267264
21,4,10,Ticks_ISO_T2_5,124,9999,9999,9999,393768040
21,4,10,Ticks_ISO_T2_5,125,9999,9999,9999,394267732
21,4,10,Ticks_ISO_T2_5,126,9999,9999,9999,394767432
21,4,10,Ticks_ISO_T2_5,127,9999,9999,9999,395267184
21,4,10,Ticks_ISO_T2_5,128,9999,9999,9999,395767876
21,4,10,Ticks_ISO_T2_5,129,9999,9999,9999,396267576
21,5,20,Ticks_Linear_8,0,5,42,127,412675348
21,5,20,Ticks_Linear_8,1,1,48,45,413353804
21,5,20,Ticks_Linear_8,2,5,42,127,413495732
21,5,20,Ticks_Linear_8,3,5,42,127,414315972
21,5,20,Ticks_Linear_8,4,1,48,38,414362160
21,5,20,Ticks_Linear_8,5,5,42,127,415136028
21,5,20,Ticks_Linear_8,6,1,48,45,415154720
21,5,20,Ticks_Linear_8,7,5,42,127,415956240
21,5,20,Ticks_Linear_8,8,1,48,51,415989140
21,5,20,Ticks_Linear_8,9,5,42,127,416766288
21,5,20,Ticks_Linear_8,10,1,48,57,416777824
21,5,20,Ticks_Linear_8,11,5,42,127,417576212
21,5,20,Ticks_Linear_8,12,1,48,62,417585660
21,5,20,Ticks_Linear_8,13,5,42,127,418386260
21,5,20,Ticks_Linear_8,14,1,48,50,418394028
21,5,20,Ticks_Linear_8,15,1,48,46,419184504
21,5,20,Ticks_Linear_8,16,5,42,127,419196228
21,5,20,Ticks_Linear_8,17,1,48,62,420006588
21,5,20,Ticks_Linear_8,18,5,42,127,420008112
21,5,20,Ticks_Linear_8,19,1,48,58,420785808
21,5,20,Ticks_Linear_8,20,5,42,127,420805940
21,5,20,Ticks_Linear_8,21,1,48,54,421582632
21,5,20,Ticks_Linear_8,22,5,42,127,421605904
21,5,20,Ticks_Linear_8,23,5,42,127,422405572
21,5,20,Ticks_Linear_8,24,1,48,58,422435268
21,5,20,Ticks_Linear_8,25,1,48,59,423171388
21,5,20,Ticks_Linear_8,26,5,42,127,423206368
21,5,20,Ticks_Linear_8,27,1,48,56,423948468
21,5,20,Ticks_Linear_8,28,5,42,127,424006032
21,5,20,Ticks_Linear_8,29,1,48,53,424734452
21,5,20,Ticks_Linear_8,30,5,42,127,424795532
21,5,20,Ticks_Linear_8,31,1,48,45,425545496
21,5,20,Ticks_Linear_8,32,5,42,127,425586176
21,5,20,Ticks_Linear_8,33,1,48,53,426336296
21,5,20,Ticks_Linear_8,34,5,42,127,426375448
21,5,20,Ticks_Linear_8,35,1,48,55,427136796
21,5,20,Ticks_Linear_8,36,5,42,127,427166168
21,5,20,Ticks_Linear_8,37,1,48,60,427913920
21,5,20,Ticks_Linear_8,38,5,42,127,427955592
21,5,20,Ticks_Linear_8,39,1,48,61,428734232
21,5,20,Ticks_Linear_8,40,5,42,127,428735996
21,5,20,Ticks_Linear_8,41,1,48,59,429495896
21,5,20,Ticks_Linear_8,42,5,42,127,429516100
21,5,20,Ticks_Linear_8,43,5,42,127,430296368
21,5,20,Ticks_Linear_8,44,1,48,46,430307648
21,5,20,Ticks_Linear_8,45,5,42,127,431086012
21,5,20,Ticks_Linear_8,46,1,48,58,431116348
21,5,20,Ticks_Linear_8,47,1,48,50,431798152
21,5,20,Ticks_Linear_8,48,5,42,127,431866336
21,5,20,Ticks_Linear_8,49,1,48,52,432595296
21,5,20,Ticks_Linear_8,50,5,42,127,432636204
21,5,20,Ticks_Linear_8,51,1,48,54,433397400
21,5,20,Ticks_Linear_8,52,5,42,127,433406296
21,5,20,Ticks_Linear_8,53,5,42,127,434176476
21,5,20,Ticks_Linear_8,54,1,48,52,434190680
21,5,20,Ticks_Linear_8,55,5,42,127,434946344
21,5,20,Ticks_Linear_8,56,1,48,48,434961464
21,5,20,Ticks_Linear_8,57,5,42,127,435725780
21,5,20,Ticks_Linear_8,58,1,48,46,435747604
21,5,20,Ticks_Linear_8,59,5,42,127,436485460
21,5,20,Ticks_Linear_8,60,1,48,54,436486924
21,5,20,Ticks_Linear_8,61,5,42,127,437246304
21,5,20,Ticks_Linear_8,62,1,48,50,437261732
21,5,20,Ticks_Linear_8,63,5,42,127,438006240
21,5,20,Ticks_Linear_8,64,1,48,52,438013236
21,5,20,Ticks_Linear_8,65,1,48,57,438740680
21,5,20,Ticks_Linear_8,66,5,42,127,438766012
21,5,20,Ticks_Linear_8,67,1,48,62,439461724
21,5,20,Ticks_Linear_8,68,5,42,127,439525716
21,5,20,Ticks_Linear_8,69,5,42,127,440276492
21,5,20,Ticks_Linear_8,70,1,48,52,440295720
21,5,20,Ticks_Linear_8,71,1,48,47,441014460
21,5,20,Ticks_Linear_8,72,5,42,127,441025952
21,5,20,Ticks_Linear_8,73,1,48,59,441747264
21,5,20,Ticks_Linear_8,74,5,42,127,441775572
21,5,20,Ticks_Linear_8,75,1,48,47,442343840
21,5,20,Ticks_Linear_8,76,5,42,127,442526012
21,5,20,Ticks_Linear_8,77,1,48,32,443269424
21,5,20,Ticks_Linear_8,78,5,42,127,443275728
21,5,20,Ticks_Linear_8,79,5,42,127,444016032
21,5,20,Ticks_Linear_8,80,1,48,61,444051532
21,5,20,Ticks_Linear_8,81,5,42,127,444756408
21,5,20,Ticks_Linear_8,82,1,48,52,444801984
21,5,20,Ticks_Linear_8,83,1,48,45,445490472
21,5,20,Ticks_Linear_8,84,5,42,127,445495708
21,5,20,Ticks_Linear_8,85,1,48,55,446214808
21,5,20,Ticks_Linear_8,86,5,42,127,446235928
21,5,20,Ticks_Linear_8,87,1,48,43,446957448
21,5,20,Ticks_Linear_8,88,5,42,127,446976432
21,5,20,Ticks_Linear_8,89,1,48,64,447626156
21,5,20,Ticks_Linear_8,90,5,42,127,447705424
21,5,20,Ticks_Linear_8,91,5,42,127,448435492
21,5,20,Ticks_Linear_8,92,1,48,52,448459224
21,5,20,Ticks_Linear_8,93,5,42,127,449165784
21,5,20,Ticks_Linear_8,94,1,48,48,449184400
21,5,20,Ticks_Linear_8,95,5,42,127,449895768
21,5,20,Ticks_Linear_8,96,1,48,56,449903996
21,5,20,Ticks_Linear_8,97,5,42,127,450625752
21,5,20,Ticks_Linear_8,98,1,48,55,450631984
21,5,20,Ticks_Linear_8,99,5,42,127,451345728
21,5,20,Ticks_Linear_8,100,1,48,64,451358080
21,5,20,Ticks_Linear_8,101,1,48,59,452052564
21,5,20,Ticks_Linear_8,102,5,42,127,452065596
21,5,20,Ticks_Linear_8,103,1,48,58,452760012
21,5,20,Ticks_Linear_8,104,5,42,127,452785648
21,5,20,Ticks_Linear_8,105,1,48,51,453476636
21,5,20,Ticks_Linear_8,106,5,42,127,453506388
21,5,20,Ticks_Linear_8,107,1,48,67,454212336
21,5,20,Ticks_Linear_8,108,5,42,127,454235532
21,5,20,Ticks_Linear_8,109,5,42,127,454946272
21,5,20,Ticks_Linear_8,110,1,48,56,454951740
21,5,20,Ticks_Linear_8,111,5,42,127,455655908
21,5,20,Ticks_Linear_8,112,1,48,59,455664212
21,5,20,Ticks_Linear_8,113,5,42,127,456365344
21,5,20,Ticks_Linear_8,114,1,48,67,456398016
21,5,20,Ticks_Linear_8,115,5,42,127,457075996
21,5,20,Ticks_Linear_8,116,1,48,55,457084988
21,5,20,Ticks_Linear_8,117,5,42,127,457785660
21,5,20,Ticks_Linear_8,118,1,48,58,457810996
21,5,20,Ticks_Linear_8,119,5,42,127,458486128
21,5,20,Ticks_Linear_8,120,1,48,65,458524864
21,5,20,Ticks_Linear_8,121,5,42,127,459185480
21,5,20,Ticks_Linear_8,122,1,48,63,459208908
21,5,20,Ticks_Linear_8,123,5,42,127,459885896
21,5,20,Ticks_Linear_8,124,1,48,61,459920168
21,5,20,Ticks_Linear_8,125,5,42,127,460586316
21,5,20,Ticks_Linear_8,126,1,48,53,460599960
21,5,20,Ticks_Linear_8,127,1,48,62,461237080
21,5,20,Ticks_Linear_8,128,5,42,127,461286012
21,5,20,Ticks_Linear_8,129,1,48,59,461961256
21,5,20,Ticks_Linear_8,130,5,42,127,461976040
21,5,20,Ticks_Linear_8,131,5,42,127,462666152
21,5,20,Ticks_Linear_8,132,1,48,53,462679268
21,5,20,Ticks_Linear_8,133,1,48,71,463353504
21,5,20,Ticks_Linear_8,134,5,42,127,463356224
21,5,20,Ticks_Linear_8,135,5,42,127,464045344
21,5,20,Ticks_Linear_8,136,1,48,53,464061276
21,5,20,Ticks_Linear_8,137,5,42,127,464735904
21,5,20,Ticks_Linear_8,138,1,48,57,464773628
21,5,20,Ticks_Linear_8,139,5,42,127,465415620
21,5,20,Ticks_Linear_8,140,1,48,60,465439200
21,5,20,Ticks_Linear_8,141,5,42,127,466095616
21,5,20,Ticks_Linear_8,142,1,48,59,466125688
21,5,20,Ticks_Linear_8,143,5,42,127,466776704
21,5,20,Ticks_Linear_8,144,1,48,55,466780420
21,5,20,Ticks_Linear_8,145,1,48,63,467442056
21,5,20,Ticks_Linear_8,146,5,42,127,467465504
21,5,20,Ticks_Linear_8,147,1,48,63,468086100
21,5,20,Ticks_Linear_8,148,5,42,127,468145724
21,5,20,Ticks_Linear_8,149,5,42,127,468816356
21,5,20,Ticks_Linear_8,150,1,48,62,468832524
21,5,20,Ticks_Linear_8,151,5,42,127,469485888
21,5,20,Ticks_Linear_8,152,1,48,57,469488608
21,5,20,Ticks_Linear_8,153,5,42,127,470155592
21,5,20,Ticks_Linear_8,154,1,48,53,470186204
21,5,20,Ticks_Linear_8,155,5,42,127,470826744
21,5,20,Ticks_Linear_8,156,1,48,56,470856904
21,5,20,Ticks_Linear_8,157,1,48,65,471464680
21,5,20,Ticks_Linear_8,158,5,42,127,471495964
21,5,20,Ticks_Linear_8,159,5,42,127,472155516
21,5,20,Ticks_Linear_8,160,1,48,55,472188340
21,5,20,Ticks_Linear_8,161,5,42,127,472815952
21,5,20,Ticks_Linear_8,162,1,48,54,472834344
21,5,20,Ticks_Linear_8,163,5,42,127,473475500
21,5,20,Ticks_Linear_8,164,1,48,56,473488688
21,5,20,Ticks_Linear_8,165,1,48,57,474110748
21,5,20,Ticks_Linear_8,166,5,42,127,474136024
21,5,20,Ticks_Linear_8,167,5,42,127,474796472
21,5,20,Ticks_Linear_8,168,1,48,47,474822720
21,5,20,Ticks_Linear_8,169,5,42,127,475445700
21,5,20,Ticks_Linear_8,170,1,48,64,475450328
21,5,20,Ticks_Linear_8,171,5,42,127,476095824
21,5,20,Ticks_Linear_8,172,1,48,71,476121312
21,5,20,Ticks_Linear_8,173,5,42,127,476746428
21,5,20,Ticks_Linear_8,174,1,48,56,476787200
21,5,20,Ticks_Linear_8,175,5,42,127,477396248
21,5,20,Ticks_Linear_8,176,1,48,62,477423732
21,5,20,Ticks_Linear_8,177,5,42,127,478045556
21,5,20,Ticks_Linear_8,178,1,48,65,478051788
21,5,20,Ticks_Linear_8,179,5,42,127,478685668
21,5,20,Ticks_Linear_8,180,1,48,60,478690832
21,5,20,Ticks_Linear_8,181,5,42,127,479325504
21,5,20,Ticks_Linear_8,182,1,48,54,479342048
21,5,20,Ticks_Linear_8,183,5,42,127,479965540
21,5,20,Ticks_Linear_8,184,1,48,57,479982008
21,5,20,Ticks_Linear_8,185,1,48,45,480604832
21,5,20,Ticks_Linear_8,186,5,42,127,480606588
21,5,20,Ticks_Linear_8,187,5,42,127,481245564
21,5,20,Ticks_Linear_8,188,1,48,60,481250268
21,5,20,Ticks_Linear_8,189,1,48,60,481859144
21,5,20,Ticks_Linear_8,190,5,42,127,481876296
21,5,20,Ticks_Linear_8,191,5,42,127,482506180
21,5,20,Ticks_Linear_8,192,1,48,58,482513100
21,5,20,Ticks_Linear_8,193,5,42,127,483136084
21,5,20,Ticks_Linear_8,194,1,48,57,483155084
21,5,20,Ticks_Linear_8,195,5,42,127,483765580
21,5,20,Ticks_Linear_8,196,1,48,62,483775484
21,5,20,Ticks_Linear_8,197,5,42,127,484396324
21,5,20,Ticks_Linear_8,198,1,48,60,484414400
21,5,20,Ticks_Linear_8,199,5,42,127,485016036
21,5,20,Ticks_Linear_8,200,1,48,66,485032352
21,5,20,Ticks_Linear_8,201,5,42,127,485635852
21,5,20,Ticks_Linear_8,202,1,48,60,485638200
21,5,20,Ticks_Linear_8,203,1,48,53,486204572
21,5,20,Ticks_Linear_8,204,5,42,127,486256096
21,5,20,Ticks_Linear_8,205,1,48,52,486850176
21,5,20,Ticks_Linear_8,206,5,42,127,486875736
21,5,20,Ticks_Linear_8,207,1,48,58,487462428
21,5,20,Ticks_Linear_8,208,5,42,127,487496012
21,5,20,Ticks_Linear_8,209,1,48,55,488065876
21,5,20,Ticks_Linear_8,210,5,42,127,488106480
21,5,20,Ticks_Linear_8,211,1,48,59,488681768
21,5,20,Ticks_Linear_8,212,5,42,127,488715832
21,5,20,Ticks_Linear_8,213,1,48,54,489291120
21,5,20,Ticks_Linear_8,214,5,42,127,489325844
21,5,20,Ticks_Linear_8,215,1,48,51,489899076
21,5,20,Ticks_Linear_8,216,5,42,127,489936164
21,5,20,Ticks_Linear_8,217,1,48,51,490520564
21,5,20,Ticks_Linear_8,218,5,42,127,490545516
21,5,20,Ticks_Linear_8,219,1,48,64,491128216
21,5,20,Ticks_Linear_8,220,5,42,127,491145672
21,5,20,Ticks_Linear_8,221,1,48,59,491732340
21,5,20,Ticks_Linear_8,222,5,42,127,491745600
21,5,20,Ticks_Linear_8,223,1,48,51,492331152
21,5,20,Ticks_Linear_8,224,5,42,127,492345632
21,5,20,Ticks_Linear_8,225,1,48,60,492939408
21,5,20,Ticks_Linear_8,226,5,42,127,492945712
21,5,20,Ticks_Linear_8,227,1,48,63,493538804
21,5,20,Ticks_Linear_8,228,5,42,127,493545872
21,5,20,Ticks_Linear_8,229,5,42,127,494135596
21,5,20,Ticks_Linear_8,230,1,48,50,494175756
21,5,20,Ticks_Linear_8,231,5,42,127,494725592
21,5,20,Ticks_Linear_8,232,1,48,59,494726500
21,5,20,Ticks_Linear_8,233,1,48,61,495304544
21,5,20,Ticks_Linear_8,234,5,42,127,495316420
21,5,20,Ticks_Linear_8,235,1,48,52,495865812
21,5,20,Ticks_Linear_8,236,5,42,127,495906288
21,5,20,Ticks_Linear_8,237,1,48,54,496441080
21,5,20,Ticks_Linear_8,238,5,42,127,496495980
21,5,20,Ticks_Linear_8,239,5,42,127,497075668
21,5,20,Ticks_Linear_8,240,1,48,58,497078236
21,5,20,Ticks_Linear_8,241,1,48,55,497645528
21,5,20,Ticks_Linear_8,242,5,42,127,497656412
21,5,20,Ticks_Linear_8,243,1,48,52,498235444
21,5,20,Ticks_Linear_8,244,5,42,127,498237188
21,5,20,Ticks_Linear_8,245,1,48,53,498773436
21,5,20,Ticks_Linear_8,246,5,42,127,498816416
21,5,20,Ticks_Linear_8,247,1,48,54,499341964
21,5,20,Ticks_Linear_8,248,5,42,127,499395872
21,5,20,Ticks_Linear_8,249,1,48,50,499941132
21,5,20,Ticks_Linear_8,250,5,42,127,499966384
21,5,20,Ticks_Linear_8,251,1,48,62,500531536
21,5,20,Ticks_Linear_8,252,5,42,127,500535780
21,5,20,Ticks_Linear_8,253,1,48,65,501092500
21,5,20,Ticks_Linear_8,254,5,42,127,501106140
21,5,20,Ticks_Linear_8,255,5,42,127,501676436
21,5,20,Ticks_Linear_8,256,1,48,60,501697804
21,5,20,Ticks_Linear_8,257,1,48,62,502227196
21,5,20,Ticks_Linear_8,258,5,42,127,502245872
21,5,20,Ticks_Linear_8,259,1,48,60,502805956
21,5,20,Ticks_Linear_8,260,5,42,127,502807548
21,5,20,Ticks_Linear_8,261,5,42,127,503366308
21,5,20,Ticks_Linear_8,262,1,48,50,503390348
21,5,20,Ticks_Linear_8,263,5,42,127,503926052
21,5,20,Ticks_Linear_8,264,1,48,59,503934280
21,5,20,Ticks_Linear_8,265,1,48,54,504430580
21,5,20,Ticks_Linear_8,266,5,42,127,504486168
21,5,20,Ticks_Linear_8,267,1,48,49,505037468
21,5,20,Ticks_Linear_8,268,5,42,127,505046220
21,5,20,Ticks_Linear_8,269,5,42,127,505596264
21,5,20,Ticks_Linear_8,270,1,48,52,505655324
21,5,20,Ticks_Linear_8,271,5,42,127,506146104
21,5,20,Ticks_Linear_8,272,1,48,53,506219036
21,5,20,Ticks_Linear_8,273,5,42,127,506695988
21,5,20,Ticks_Linear_8,274,1,48,52,506743092
21,5,20,Ticks_Linear_8,275,5,42,127,507245952
21,5,20,Ticks_Linear_8,276,1,48,38,507255864
21,5,20,Ticks_Linear_8,277,1,48,50,507751248
21,5,20,Ticks_Linear_8,278,5,42,127,507795988
21,5,20,Ticks_Linear_8,279,1,48,45,508308020
21,5,20,Ticks_Linear_8,280,5,42,127,508335408
21,5,20,Ticks_Linear_8,281,5,42,127,508876060
21,5,20,Ticks_Linear_8,282,1,48,53,508892604
21,5,20,Ticks_Linear_8,283,1,48,52,509390824
21,5,20,Ticks_Linear_8,284,5,42,127,509416080
21,5,20,Ticks_Linear_8,285,5,42,127,509955536
21,5,20,Ticks_Linear_8,286,1,48,46,509982316
21,5,20,Ticks_Linear_8,287,5,42,127,510496028
21,5,20,Ticks_Linear_8,288,1,48,48,510539316
21,5,20,Ticks_Linear_8,289,5,42,127,511025592
21,5,20,Ticks_Linear_8,290,1,48,49,511060172
21,5,20,Ticks_Linear_8,291,5,42,127,511555996
21,5,20,Ticks_Linear_8,292,1,48,56,511570936
21,5,20,Ticks_Linear_8,293,5,42,127,512086328
21,5,20,Ticks_Linear_8,294,1,48,55,512107692
21,5,20,Ticks_Linear_8,295,1,48,55,512603324
21,5,20,Ticks_Linear_8,296,5,42,127,512615732
21,5,20,Ticks_Linear_8,297,5,42,127,513146296
21,5,20,Ticks_Linear_8,298,1,48,55,513147660
21,5,20,Ticks_Linear_8,299,5,42,127,513666540
21,5,20,Ticks_Linear_8,300,1,48,55,513681024
21,5,20,Ticks_Linear_8,301,1,48,49,514183840
21,5,20,Ticks_Linear_8,302,5,42,127,514195868
21,5,20,Ticks_Linear_8,303,1,48,51,514698580
21,5,20,Ticks_Linear_8,304,5,42,127,514716112
21,5,20,Ticks_Linear_8,305,1,48,54,515211176
21,5,20,Ticks_Linear_8,306,5,42,127,515236128
21,5,20,Ticks_Linear_8,307,1,48,47,515737848
21,5,20,Ticks_Linear_8,308,5,42,127,515756680
21,5,20,Ticks_Linear_8,309,1,48,46,516251436
21,5,20,Ticks_Linear_8,310,5,42,127,516266532
21,5,20,Ticks_Linear_8,311,1,48,40,516738076
21,5,20,Ticks_Linear_8,312,5,42,127,516776692
21,5,20,Ticks_Linear_8,313,5,42,127,517286324
21,5,20,Ticks_Linear_8,314,1,48,46,517294708
21,5,20,Ticks_Linear_8,315,5,42,127,517796332
21,5,20,Ticks_Linear_8,316,1,48,56,517814264
21,5,20,Ticks_Linear_8,317,5,42,127,518306112
21,5,20,Ticks_Linear_8,318,1,48,56,518351536
21,5,20,Ticks_Linear_8,319,5,42,127,518805804
21,5,20,Ticks_Linear_8,320,1,48,54,518834356
21,5,20,Ticks_Linear_8,321,5,42,127,519305576
21,5,20,Ticks_Linear_8,322,1,48,54,519311808
21,5,20,Ticks_Linear_8,323,1,48,48,519789024
21,5,20,Ticks_Linear_8,324,5,42,127,519806404
21,5,20,Ticks_Linear_8,325,1,48,49,520279396
21,5,20,Ticks_Linear_8,326,5,42,127,520305868
21,5,20,Ticks_Linear_8,327,1,48,58,520751204
21,5,20,Ticks_Linear_8,328,5,42,127,520805868
21,5,20,Ticks_Linear_8,329,1,48,60,521261208
21,5,20,Ticks_Linear_8,330,5,42,127,521296316
21,5,20,Ticks_Linear_8,331,1,48,59,521771444
21,5,20,Ticks_Linear_8,332,5,42,127,521785772
21,5,20,Ticks_Linear_8,333,1,48,56,522276080
21,5,20,Ticks_Linear_8,334,5,42,127,522277672
21,5,20,Ticks_Linear_8,335,1,48,58,522763672
21,5,20,Ticks_Linear_8,336,5,42,127,522765600
21,5,20,Ticks_Linear_8,337,5,42,127,523256336
21,5,20,Ticks_Linear_8,0,9999,9999,9999,412673080
21,5,20,Ticks_Linear_8,1,9999,9999,9999,413493316
21,5,20,Ticks_Linear_8,2,9999,9999,9999,414313552
21,5,20,Ticks_Linear_8,3,9999,9999,9999,415133764
21,5,20,Ticks_Linear_8,4,9999,9999,9999,415953972
21,5,20,Ticks_Linear_8,5,9999,9999,9999,416764024
21,5,20,Ticks_Linear_8,6,9999,9999,9999,417573948
21,5,20,Ticks_Linear_8,7,9999,9999,9999,418383996
21,5,20,Ticks_Linear_8,8,9999,9999,9999,419193964
21,5,20,Ticks_Linear_8,9,9999,9999,9999,420003944
21,5,20,Ticks_Linear_8,10,9999,9999,9999,420803676
21,5,20,Ticks_Linear_8,11,9999,9999,9999,421603412
21,5,20,Ticks_Linear_8,12,9999,9999,9999,422403156
21,5,20,Ticks_Linear_8,13,9999,9999,9999,423203952
21,5,20,Ticks_Linear_8,14,9999,9999,9999,424003688
21,5,20,Ticks_Linear_8,15,9999,9999,9999,424793192
21,5,20,Ticks_Linear_8,16,9999,9999,9999,425583684
21,5,20,Ticks_Linear_8,17,9999,9999,9999,426373184
21,5,20,Ticks_Linear_8,18,9999,9999,9999,427163752
21,5,20,Ticks_Linear_8,19,9999,9999,9999,427953252
21,5,20,Ticks_Linear_8,20,9999,9999,9999,428733520
21,5,20,Ticks_Linear_8,21,9999,9999,9999,429513836
21,5,20,Ticks_Linear_8,22,9999,9999,9999,430294100
21,5,20,Ticks_Linear_8,23,9999,9999,9999,431083596
21,5,20,Ticks_Linear_8,24,9999,9999,9999,431863920
21,5,20,Ticks_Linear_8,25,9999,9999,9999,432633936
21,5,20,Ticks_Linear_8,26,9999,9999,9999,433404032
21,5,20,Ticks_Linear_8,27,9999,9999,9999,434174056
21,5,20,Ticks_Linear_8,28,9999,9999,9999,434944076
21,5,20,Ticks_Linear_8,29,9999,9999,9999,435723360
21,5,20,Ticks_Linear_8,30,9999,9999,9999,436483196
21,5,20,Ticks_Linear_8,31,9999,9999,9999,437243964
21,5,20,Ticks_Linear_8,32,9999,9999,9999,438003824
21,5,20,Ticks_Linear_8,33,9999,9999,9999,438763592
21,5,20,Ticks_Linear_8,34,9999,9999,9999,439523452
21,5,20,Ticks_Linear_8,35,9999,9999,9999,440273996
21,5,20,Ticks_Linear_8,36,9999,9999,9999,441023608
21,5,20,Ticks_Linear_8,37,9999,9999,9999,441773156
21,5,20,Ticks_Linear_8,38,9999,9999,9999,442523748
21,5,20,Ticks_Linear_8,39,9999,9999,9999,443273308
21,5,20,Ticks_Linear_8,40,9999,9999,9999,444013692
21,5,20,Ticks_Linear_8,41,9999,9999,9999,444753992
21,5,20,Ticks_Linear_8,42,9999,9999,9999,445493368
21,5,20,Ticks_Linear_8,43,9999,9999,9999,446233664
21,5,20,Ticks_Linear_8,44,9999,9999,9999,446974012
21,5,20,Ticks_Linear_8,45,9999,9999,9999,447703160
21,5,20,Ticks_Linear_8,46,9999,9999,9999,448433228
21,5,20,Ticks_Linear_8,47,9999,9999,9999,449163364
21,5,20,Ticks_Linear_8,48,9999,9999,9999,449893504
21,5,20,Ticks_Linear_8,49,9999,9999,9999,450623564
21,5,20,Ticks_Linear_8,50,9999,9999,9999,451343464
21,5,20,Ticks_Linear_8,51,9999,9999,9999,452063332
21,5,20,Ticks_Linear_8,52,9999,9999,9999,452783232
21,5,20,Ticks_Linear_8,53,9999,9999,9999,453504124
21,5,20,Ticks_Linear_8,54,9999,9999,9999,454233192
21,5,20,Ticks_Linear_8,55,9999,9999,9999,454943856
21,5,20,Ticks_Linear_8,56,9999,9999,9999,455653492
21,5,20,Ticks_Linear_8,57,9999,9999,9999,456363080
21,5,20,Ticks_Linear_8,58,9999,9999,9999,457073732
21,5,20,Ticks_Linear_8,59,9999,9999,9999,457783396
21,5,20,Ticks_Linear_8,60,9999,9999,9999,458483788
21,5,20,Ticks_Linear_8,61,9999,9999,9999,459183212
21,5,20,Ticks_Linear_8,62,9999,9999,9999,459883632
21,5,20,Ticks_Linear_8,63,9999,9999,9999,460584048
21,5,20,Ticks_Linear_8,64,9999,9999,9999,461283444
21,5,20,Ticks_Linear_8,65,9999,9999,9999,461973624
21,5,20,Ticks_Linear_8,66,9999,9999,9999,462663736
21,5,20,Ticks_Linear_8,67,9999,9999,9999,463353960
21,5,20,Ticks_Linear_8,68,9999,9999,9999,464043080
21,5,20,Ticks_Linear_8,69,9999,9999,9999,464733260
21,5,20,Ticks_Linear_8,70,9999,9999,9999,465413204
21,5,20,Ticks_Linear_8,71,9999,9999,9999,466093124
21,5,20,Ticks_Linear_8,72,9999,9999,9999,466774132
21,5,20,Ticks_Linear_8,73,9999,9999,9999,467463240
21,5,20,Ticks_Linear_8,74,9999,9999,9999,468143232
21,5,20,Ticks_Linear_8,75,9999,9999,9999,468813940
21,5,20,Ticks_Linear_8,76,9999,9999,9999,469483620
21,5,20,Ticks_Linear_8,77,9999,9999,9999,470153328
21,5,20,Ticks_Linear_8,78,9999,9999,9999,470824024
21,5,20,Ticks_Linear_8,79,9999,9999,9999,471493700
21,5,20,Ticks_Linear_8,80,9999,9999,9999,472153176
21,5,20,Ticks_Linear_8,81,9999,9999,9999,472813688
21,5,20,Ticks_Linear_8,82,9999,9999,9999,473473080
21,5,20,Ticks_Linear_8,83,9999,9999,9999,474133608
21,5,20,Ticks_Linear_8,84,9999,9999,9999,474794052
21,5,20,Ticks_Linear_8,85,9999,9999,9999,475443284
21,5,20,Ticks_Linear_8,86,9999,9999,9999,476093560
21,5,20,Ticks_Linear_8,87,9999,9999,9999,476743784
21,5,20,Ticks_Linear_8,88,9999,9999,9999,477393984
21,5,20,Ticks_Linear_8,89,9999,9999,9999,478043212
21,5,20,Ticks_Linear_8,90,9999,9999,9999,478683252
21,5,20,Ticks_Linear_8,91,9999,9999,9999,479323240
21,5,20,Ticks_Linear_8,92,9999,9999,9999,479963200
21,5,20,Ticks_Linear_8,93,9999,9999,9999,480603260
21,5,20,Ticks_Linear_8,94,9999,9999,9999,481243220
21,5,20,Ticks_Linear_8,95,9999,9999,9999,481874032
21,5,20,Ticks_Linear_8,96,9999,9999,9999,482503764
21,5,20,Ticks_Linear_8,97,9999,9999,9999,483133512
21,5,20,Ticks_Linear_8,98,9999,9999,9999,483763316
21,5,20,Ticks_Linear_8,99,9999,9999,9999,484394056
21,5,20,Ticks_Linear_8,100,9999,9999,9999,485013620
21,5,20,Ticks_Linear_8,101,9999,9999,9999,485633108
21,5,20,Ticks_Linear_8,102,9999,9999,9999,486253680
21,5,20,Ticks_Linear_8,103,9999,9999,9999,486873168
21,5,20,Ticks_Linear_8,104,9999,9999,9999,487493744
21,5,20,Ticks_Linear_8,105,9999,9999,9999,488104064
21,5,20,Ticks_Linear_8,106,9999,9999,9999,488713340
21,5,20,Ticks_Linear_8,107,9999,9999,9999,489323580
21,5,20,Ticks_Linear_8,108,9999,9999,9999,489933900
21,5,20,Ticks_Linear_8,109,9999,9999,9999,490543172
21,5,20,Ticks_Linear_8,110,9999,9999,9999,491143256
21,5,20,Ticks_Linear_8,111,9999,9999,9999,491743336
21,5,20,Ticks_Linear_8,112,9999,9999,9999,492343364
21,5,20,Ticks_Linear_8,113,9999,9999,9999,492943448
21,5,20,Ticks_Linear_8,114,9999,9999,9999,493543528
21,5,20,Ticks_Linear_8,115,9999,9999,9999,494133328
21,5,20,Ticks_Linear_8,116,9999,9999,9999,494723172
21,5,20,Ticks_Linear_8,117,9999,9999,9999,495314004
21,5,20,Ticks_Linear_8,118,9999,9999,9999,495903872
21,5,20,Ticks_Linear_8,119,9999,9999,9999,496493636
21,5,20,Ticks_Linear_8,120,9999,9999,9999,497073252
21,5,20,Ticks_Linear_8,121,9999,9999,9999,497653844
21,5,20,Ticks_Linear_8,122,9999,9999,9999,498233408
21,5,20,Ticks_Linear_8,123,9999,9999,9999,498814076
21,5,20,Ticks_Linear_8,124,9999,9999,9999,499393604
21,5,20,Ticks_Linear_8,125,9999,9999,9999,499963968
21,5,20,Ticks_Linear_8,126,9999,9999,9999,500533360
21,5,20,Ticks_Linear_8,127,9999,9999,9999,501103724
21,5,20,Ticks_Linear_8,128,9999,9999,9999,501674096
21,5,20,Ticks_Linear_8,129,9999,9999,9999,502243456
21,5,20,Ticks_Linear_8,130,9999,9999,9999,502803540
21,5,20,Ticks_Linear_8,131,9999,9999,9999,503363664
21,5,20,Ticks_Linear_8,132,9999,9999,9999,503923788
21,5,20,Ticks_Linear_8,133,9999,9999,9999,504483904
21,5,20,Ticks_Linear_8,134,9999,9999,9999,505044028
21,5,20,Ticks_Linear_8,135,9999,9999,9999,505593924
21,5,20,Ticks_Linear_8,136,9999,9999,9999,506143836
21,5,20,Ticks_Linear_8,137,9999,9999,9999,506693724
21,5,20,Ticks_Linear_8,138,9999,9999,9999,507243612
21,5,20,Ticks_Linear_8,139,9999,9999,9999,507793492
21,5,20,Ticks_Linear_8,140,9999,9999,9999,508333144
21,5,20,Ticks_Linear_8,141,9999,9999,9999,508873792
21,5,20,Ticks_Linear_8,142,9999,9999,9999,509413436
21,5,20,Ticks_Linear_8,143,9999,9999,9999,509953120
21,5,20,Ticks_Linear_8,144,9999,9999,9999,510493760
21,5,20,Ticks_Linear_8,145,9999,9999,9999,511023176
21,5,20,Ticks_Linear_8,146,9999,9999,9999,511553656
21,5,20,Ticks_Linear_8,147,9999,9999,9999,512084060
21,5,20,Ticks_Linear_8,148,9999,9999,9999,512613464
21,5,20,Ticks_Linear_8,149,9999,9999,9999,513143876
21,5,20,Ticks_Linear_8,150,9999,9999,9999,513664124
21,5,20,Ticks_Linear_8,151,9999,9999,9999,514193528
21,5,20,Ticks_Linear_8,152,9999,9999,9999,514713696
21,5,20,Ticks_Linear_8,153,9999,9999,9999,515233864
21,5,20,Ticks_Linear_8,154,9999,9999,9999,515754108
21,5,20,Ticks_Linear_8,155,9999,9999,9999,516264040
21,5,20,Ticks_Linear_8,156,9999,9999,9999,516773972
21,5,20,Ticks_Linear_8,157,9999,9999,9999,517283908
21,5,20,Ticks_Linear_8,158,9999,9999,9999,517793916
21,5,20,Ticks_Linear_8,159,9999,9999,9999,518303848
21,5,20,Ticks_Linear_8,160,9999,9999,9999,518803540
21,5,20,Ticks_Linear_8,161,9999,9999,9999,519303232
21,5,20,Ticks_Linear_8,162,9999,9999,9999,519803988
21,5,20,Ticks_Linear_8,163,9999,9999,9999,520303680
21,5,20,Ticks_Linear_8,164,9999,9999,9999,520803452
21,5,20,Ticks_Linear_8,165,9999,9999,9999,521293900
21,5,20,Ticks_Linear_8,166,9999,9999,9999,521783356
21,5,20,Ticks_Linear_8,167,9999,9999,9999,522273888
21,5,20,Ticks_Linear_8,168,9999,9999,9999,522763376
21,5,20,Ticks_Linear_8,169,9999,9999,9999,523253844
21,6,21,Ticks_Linear_5,0,5,42,127,557398336
21,6,21,Ticks_Linear_5,1,5,42,127,557877808
21,6,21,Ticks_Linear_5,2,1,48,55,558358044
21,6,21,Ticks_Linear_5,3,5,42,127,558359716
21,6,21,Ticks_Linear_5,4,5,42,127,558838228
21,6,21,Ticks_Linear_5,5,1,48,41,558862592
21,6,21,Ticks_Linear_5,6,5,42,127,559318516
21,6,21,Ticks_Linear_5,7,1,48,52,559332160
21,6,21,Ticks_Linear_5,8,5,42,127,559807820
21,6,21,Ticks_Linear_5,9,1,48,48,559811228
21,6,21,Ticks_Linear_5,10,5,42,127,560298420
21,6,21,Ticks_Linear_5,11,1,48,44,560314808
21,6,21,Ticks_Linear_5,12,1,48,49,560778968
21,6,21,Ticks_Linear_5,13,5,42,127,560787792
21,6,21,Ticks_Linear_5,14,1,48,48,561274448
21,6,21,Ticks_Linear_5,15,5,42,127,561278316
21,6,21,Ticks_Linear_5,16,1,48,46,561765612
21,6,21,Ticks_Linear_5,17,5,42,127,561767696
21,6,21,Ticks_Linear_5,18,1,48,46,562229608
21,6,21,Ticks_Linear_5,19,5,42,127,562267544
21,6,21,Ticks_Linear_5,20,1,48,47,562730748
21,6,21,Ticks_Linear_5,21,5,42,127,562768152
21,6,21,Ticks_Linear_5,22,1,48,53,563236104
21,6,21,Ticks_Linear_5,23,5,42,127,563267996
21,6,21,Ticks_Linear_5,24,1,48,55,563724016
21,6,21,Ticks_Linear_5,25,5,42,127,563767764
21,6,21,Ticks_Linear_5,26,1,48,50,564232116
21,6,21,Ticks_Linear_5,27,5,42,127,564268528
21,6,21,Ticks_Linear_5,28,1,48,54,564735020
21,6,21,Ticks_Linear_5,29,5,42,127,564778608
21,6,21,Ticks_Linear_5,30,1,48,53,565231712
21,6,21,Ticks_Linear_5,31,5,42,127,565288384
21,6,21,Ticks_Linear_5,32,1,48,56,565727892
21,6,21,Ticks_Linear_5,33,5,42,127,565798468
21,6,21,Ticks_Linear_5,34,1,48,57,566266244
21,6,21,Ticks_Linear_5,35,5,42,127,566308248
21,6,21,Ticks_Linear_5,36,1,48,51,566762108
21,6,21,Ticks_Linear_5,37,5,42,127,566818328
21,6,21,Ticks_Linear_5,38,1,48,46,567267080
21,6,21,Ticks_Linear_5,39,5,42,127,567338572
21,6,21,Ticks_Linear_5,40,1,48,43,567805140
21,6,21,Ticks_Linear_5,41,5,42,127,567857596
21,6,21,Ticks_Linear_5,42,1,48,43,568341428
21,6,21,Ticks_Linear_5,43,5,42,127,568377684
21,6,21,Ticks_Linear_5,44,1,48,44,568835932
21,6,21,Ticks_Linear_5,45,5,42,127,568897856
21,6,21,Ticks_Linear_5,46,1,48,46,569361064
21,6,21,Ticks_Linear_5,47,5,42,127,569418100
21,6,21,Ticks_Linear_5,48,1,48,44,569883752
21,6,21,Ticks_Linear_5,49,5,42,127,569947436
21,6,21,Ticks_Linear_5,50,1,48,46,570421420
21,6,21,Ticks_Linear_5,51,5,42,127,570477840
21,6,21,Ticks_Linear_5,52,1,48,43,570970316
21,6,21,Ticks_Linear_5,53,5,42,127,571008324
21,6,21,Ticks_Linear_5,54,1,48,46,571467488
21,6,21,Ticks_Linear_5,55,5,42,127,571537732
21,6,21,Ticks_Linear_5,56,1,48,41,572030664
21,6,21,Ticks_Linear_5,57,5,42,127,572068292
21,6,21,Ticks_Linear_5,58,1,48,39,572569632
21,6,21,Ticks_Linear_5,59,5,42,127,572607788
21,6,21,Ticks_Linear_5,60,1,48,42,573096368
21,6,21,Ticks_Linear_5,61,5,42,127,573147592
21,6,21,Ticks_Linear_5,62,1,48,48,573654040
21,6,21,Ticks_Linear_5,63,5,42,127,573688080
21,6,21,Ticks_Linear_5,64,1,48,38,574180092
21,6,21,Ticks_Linear_5,65,5,42,127,574228060
21,6,21,Ticks_Linear_5,66,1,48,39,574681696
21,6,21,Ticks_Linear_5,67,5,42,127,574767408
21,6,21,Ticks_Linear_5,68,1,48,44,575200104
21,6,21,Ticks_Linear_5,69,5,42,127,575318344
21,6,21,Ticks_Linear_5,70,1,48,45,575768592
21,6,21,Ticks_Linear_5,71,5,42,127,575868232
21,6,21,Ticks_Linear_5,72,1,48,42,576343220
21,6,21,Ticks_Linear_5,73,5,42,127,576418208
21,6,21,Ticks_Linear_5,74,1,48,42,576886692
21,6,21,Ticks_Linear_5,75,5,42,127,576968020
21,6,21,Ticks_Linear_5,76,1,48,38,577425036
21,6,21,Ticks_Linear_5,77,5,42,127,577517984
21,6,21,Ticks_Linear_5,78,1,48,44,577972332
21,6,21,Ticks_Linear_5,79,5,42,127,578078040
21,6,21,Ticks_Linear_5,80,1,48,38,578499684
21,6,21,Ticks_Linear_5,81,5,42,127,578638316
21,6,21,Ticks_Linear_5,82,1,48,40,579090620
21,6,21,Ticks_Linear_5,83,5,42,127,579198288
21,6,21,Ticks_Linear_5,84,1,48,46,579699104
21,6,21,Ticks_Linear_5,85,5,42,127,579757436
21,6,21,Ticks_Linear_5,86,1,48,43,580266640
21,6,21,Ticks_Linear_5,87,5,42,127,580317636
21,6,21,Ticks_Linear_5,88,1,48,49,580850984
21,6,21,Ticks_Linear_5,89,5,42,127,580888024
21,6,21,Ticks_Linear_5,90,1,48,45,581434044
21,6,21,Ticks_Linear_5,91,5,42,127,581458308
21,6,21,Ticks_Linear_5,92,1,48,47,582001740
21,6,21,Ticks_Linear_5,93,5,42,127,582027752
21,6,21,Ticks_Linear_5,94,1,48,49,582545596
21,6,21,Ticks_Linear_5,95,5,42,127,582598112
21,6,21,Ticks_Linear_5,96,1,48,46,583107168
21,6,21,Ticks_Linear_5,97,5,42,127,583168348
21,6,21,Ticks_Linear_5,98,1,48,50,583663460
21,6,21,Ticks_Linear_5,99,5,42,127,583747952
21,6,21,Ticks_Linear_5,100,1,48,40,584230568
21,6,21,Ticks_Linear_5,101,5,42,127,584327848
21,6,21,Ticks_Linear_5,102,1,48,46,584818200
21,6,21,Ticks_Linear_5,103,5,42,127,584908080
21,6,21,Ticks_Linear_5,104,1,48,46,585402768
21,6,21,Ticks_Linear_5,105,5,42,127,585487712
21,6,21,Ticks_Linear_5,106,1,48,43,586001728
21,6,21,Ticks_Linear_5,107,5,42,127,586068540
21,6,21,Ticks_Linear_5,108,1,48,41,586582248
21,6,21,Ticks_Linear_5,109,5,42,127,586658456
21,6,21,Ticks_Linear_5,110,1,48,45,587183776
21,6,21,Ticks_Linear_5,111,5,42,127,587247920
21,6,21,Ticks_Linear_5,112,1,48,44,587778472
21,6,21,Ticks_Linear_5,113,5,42,127,587837716
21,6,21,Ticks_Linear_5,114,1,48,45,588410860
21,6,21,Ticks_Linear_5,115,5,42,127,588427632
21,6,21,Ticks_Linear_5,116,1,48,43,589000936
21,6,21,Ticks_Linear_5,117,5,42,127,589017628
21,6,21,Ticks_Linear_5,118,1,48,48,589579424
21,6,21,Ticks_Linear_5,119,5,42,127,589617508
21,6,21,Ticks_Linear_5,120,1,48,47,590154208
21,6,21,Ticks_Linear_5,121,5,42,127,590217664
21,6,21,Ticks_Linear_5,122,1,48,43,590746048
21,6,21,Ticks_Linear_5,123,5,42,127,590817592
21,6,21,Ticks_Linear_5,124,1,48,48,591349412
21,6,21,Ticks_Linear_5,125,5,42,127,591417624
21,6,21,Ticks_Linear_5,126,1,48,54,591951576
21,6,21,Ticks_Linear_5,127,5,42,127,592017628
21,6,21,Ticks_Linear_5,128,1,48,50,592573424
21,6,21,Ticks_Linear_5,129,5,42,127,592628400
21,6,21,Ticks_Linear_5,130,1,48,46,593187828
21,6,21,Ticks_Linear_5,131,5,42,127,593238364
21,6,21,Ticks_Linear_5,132,1,48,48,593788368
21,6,21,Ticks_Linear_5,133,5,42,127,593847692
21,6,21,Ticks_Linear_5,134,1,48,48,594386616
21,6,21,Ticks_Linear_5,135,5,42,127,594457880
21,6,21,Ticks_Linear_5,136,1,48,42,595010632
21,6,21,Ticks_Linear_5,137,5,42,127,595068124
21,6,21,Ticks_Linear_5,138,1,48,46,595617212
21,6,21,Ticks_Linear_5,139,5,42,127,595687760
21,6,21,Ticks_Linear_5,140,1,48,50,596232208
21,6,21,Ticks_Linear_5,141,5,42,127,596308340
21,6,21,Ticks_Linear_5,142,1,48,42,596859416
21,6,21,Ticks_Linear_5,143,5,42,127,596927980
21,6,21,Ticks_Linear_5,144,1,48,51,597480584
21,6,21,Ticks_Linear_5,145,5,42,127,597548408
21,6,21,Ticks_Linear_5,146,1,48,45,598161592
21,6,21,Ticks_Linear_5,147,5,42,127,598168124
21,6,21,Ticks_Linear_5,148,1,48,53,598782932
21,6,21,Ticks_Linear_5,149,5,42,127,598797800
21,6,21,Ticks_Linear_5,150,1,48,53,599392568
21,6,21,Ticks_Linear_5,151,5,42,127,599427372
21,6,21,Ticks_Linear_5,152,1,48,51,599979132
21,6,21,Ticks_Linear_5,153,5,42,127,600058188
21,6,21,Ticks_Linear_5,154,1,48,50,600594736
21,6,21,Ticks_Linear_5,155,5,42,127,600687988
21,6,21,Ticks_Linear_5,156,1,48,54,601225996
21,6,21,Ticks_Linear_5,157,5,42,127,601317864
21,6,21,Ticks_Linear_5,158,1,48,50,601839140
21,6,21,Ticks_Linear_5,159,5,42,127,601957908
21,6,21,Ticks_Linear_5,160,1,48,45,602469652
21,6,21,Ticks_Linear_5,161,5,42,127,602597872
21,6,21,Ticks_Linear_5,162,1,48,49,603132400
21,6,21,Ticks_Linear_5,163,5,42,127,603237780
21,6,21,Ticks_Linear_5,164,1,48,53,603789408
21,6,21,Ticks_Linear_5,165,5,42,127,603877912
21,6,21,Ticks_Linear_5,166,1,48,51,604411888
21,6,21,Ticks_Linear_5,167,5,42,127,604517804
21,6,21,Ticks_Linear_5,168,1,48,48,605101512
21,6,21,Ticks_Linear_5,169,5,42,127,605167944
21,6,21,Ticks_Linear_5,170,1,48,51,605780764
21,6,21,Ticks_Linear_5,171,5,42,127,605818168
21,6,21,Ticks_Linear_5,172,1,48,48,606410952
21,6,21,Ticks_Linear_5,173,5,42,127,606467400
21,6,21,Ticks_Linear_5,174,1,48,46,607114572
21,6,21,Ticks_Linear_5,175,5,42,127,607117900
21,6,21,Ticks_Linear_5,176,5,42,127,607767828
21,6,21,Ticks_Linear_5,177,1,48,44,607780404
21,6,21,Ticks_Linear_5,178,1,48,48,608412320
21,6,21,Ticks_Linear_5,179,5,42,127,608428332
21,6,21,Ticks_Linear_5,180,1,48,47,609039632
21,6,21,Ticks_Linear_5,181,5,42,127,609087800
21,6,21,Ticks_Linear_5,182,1,48,48,609705100
21,6,21,Ticks_Linear_5,183,5,42,127,609748612
21,6,21,Ticks_Linear_5,184,1,48,48,610314832
21,6,21,Ticks_Linear_5,185,5,42,127,610407780
21,6,21,Ticks_Linear_5,186,1,48,56,610973748
21,6,21,Ticks_Linear_5,187,5,42,127,611068240
21,6,21,Ticks_Linear_5,188,1,48,52,611648652
21,6,21,Ticks_Linear_5,189,5,42,127,611738000
21,6,21,Ticks_Linear_5,190,1,48,48,612363504
21,6,21,Ticks_Linear_5,191,5,42,127,612407632
21,6,21,Ticks_Linear_5,192,1,48,36,613059544
21,6,21,Ticks_Linear_5,193,5,42,127,613078456
21,6,21,Ticks_Linear_5,194,5,42,127,613748016
21,6,21,Ticks_Linear_5,195,1,48,35,613754324
21,6,21,Ticks_Linear_5,196,1,48,54,614396216
21,6,21,Ticks_Linear_5,197,5,42,127,614417796
21,6,21,Ticks_Linear_5,198,1,48,52,615030440
21,6,21,Ticks_Linear_5,199,5,42,127,615097636
21,6,21,Ticks_Linear_5,200,1,48,48,615686476
21,6,21,Ticks_Linear_5,201,5,42,127,615777656
21,6,21,Ticks_Linear_5,202,1,48,37,616374784
21,6,21,Ticks_Linear_5,203,5,42,127,616457520
21,6,21,Ticks_Linear_5,204,1,48,39,617085976
21,6,21,Ticks_Linear_5,205,5,42,127,617137516
21,6,21,Ticks_Linear_5,206,1,48,44,617775084
21,6,21,Ticks_Linear_5,207,5,42,127,617817536
21,6,21,Ticks_Linear_5,208,1,48,43,618448444
21,6,21,Ticks_Linear_5,209,5,42,127,618507560
21,6,21,Ticks_Linear_5,210,1,48,46,619085436
21,6,21,Ticks_Linear_5,211,5,42,127,619198156
21,6,21,Ticks_Linear_5,212,1,48,47,619795024
21,6,21,Ticks_Linear_5,213,5,42,127,619888200
21,6,21,Ticks_Linear_5,214,1,48,51,620484724
21,6,21,Ticks_Linear_5,215,5,42,127,620578228
21,6,21,Ticks_Linear_5,216,1,48,50,621183536
21,6,21,Ticks_Linear_5,217,5,42,127,621268308
21,6,21,Ticks_Linear_5,218,1,48,50,621898940
21,6,21,Ticks_Linear_5,219,5,42,127,621967660
21,6,21,Ticks_Linear_5,220,1,48,52,622642056
21,6,21,Ticks_Linear_5,221,5,42,127,622668224
21,6,21,Ticks_Linear_5,222,5,42,127,623367584
21,6,21,Ticks_Linear_5,223,1,48,53,623386660
21,6,21,Ticks_Linear_5,224,5,42,127,624067976
21,6,21,Ticks_Linear_5,225,1,48,57,624107144
21,6,21,Ticks_Linear_5,226,5,42,127,624768396
21,6,21,Ticks_Linear_5,227,1,48,54,624781200
21,6,21,Ticks_Linear_5,228,1,48,51,625477136
21,6,21,Ticks_Linear_5,229,5,42,127,625478964
21,6,21,Ticks_Linear_5,230,1,48,55,626181180
21,6,21,Ticks_Linear_5,231,5,42,127,626187712
21,6,21,Ticks_Linear_5,232,1,48,51,626861704
21,6,21,Ticks_Linear_5,233,5,42,127,626898340
21,6,21,Ticks_Linear_5,234,1,48,52,627560828
21,6,21,Ticks_Linear_5,235,5,42,127,627608004
21,6,21,Ticks_Linear_5,236,1,48,52,628286844
21,6,21,Ticks_Linear_5,237,5,42,127,628317744
21,6,21,Ticks_Linear_5,238,1,48,50,628995212
21,6,21,Ticks_Linear_5,239,5,42,127,629037340
21,6,21,Ticks_Linear_5,240,1,48,59,629718064
21,6,21,Ticks_Linear_5,241,5,42,127,629758232
21,6,21,Ticks_Linear_5,242,1,48,41,630459196
21,6,21,Ticks_Linear_5,243,5,42,127,630478260
21,6,21,Ticks_Linear_5,244,1,48,55,631170540
21,6,21,Ticks_Linear_5,245,5,42,127,631198008
21,6,21,Ticks_Linear_5,246,1,48,45,631887160
21,6,21,Ticks_Linear_5,247,5,42,127,631917984
21,6,21,Ticks_Linear_5,248,1,48,39,632616228
21,6,21,Ticks_Linear_5,249,5,42,127,632648044
21,6,21,Ticks_Linear_5,250,1,48,62,633335804
21,6,21,Ticks_Linear_5,251,5,42,127,633378180
21,6,21,Ticks_Linear_5,252,1,48,59,634103612
21,6,21,Ticks_Linear_5,253,5,42,127,634108544
21,6,21,Ticks_Linear_5,254,1,48,46,634811192
21,6,21,Ticks_Linear_5,255,5,42,127,634838656
21,6,21,Ticks_Linear_5,256,1,48,52,635521312
21,6,21,Ticks_Linear_5,257,5,42,127,635567652
21,6,21,Ticks_Linear_5,258,1,48,52,636263284
21,6,21,Ticks_Linear_5,259,5,42,127,636307796
21,6,21,Ticks_Linear_5,260,1,48,53,636998324
21,6,21,Ticks_Linear_5,261,5,42,127,637048248
21,6,21,Ticks_Linear_5,262,1,48,55,637755736
21,6,21,Ticks_Linear_5,263,5,42,127,637787632
21,6,21,Ticks_Linear_5,264,1,48,58,638508868
21,6,21,Ticks_Linear_5,265,5,42,127,638527852
21,6,21,Ticks_Linear_5,266,1,48,43,639227468
21,6,21,Ticks_Linear_5,267,5,42,127,639268304
21,6,21,Ticks_Linear_5,268,1,48,49,639961012
21,6,21,Ticks_Linear_5,269,5,42,127,640017692
21,6,21,Ticks_Linear_5,270,1,48,58,640684956
21,6,21,Ticks_Linear_5,271,5,42,127,640768456
21,6,21,Ticks_Linear_5,272,1,48,46,641478748
21,6,21,Ticks_Linear_5,273,5,42,127,641517896
21,6,21,Ticks_Linear_5,274,1,48,58,642256476
21,6,21,Ticks_Linear_5,275,5,42,127,642267444
21,6,21,Ticks_Linear_5,276,5,42,127,643018364
21,6,21,Ticks_Linear_5,277,1,48,53,643024064
21,6,21,Ticks_Linear_5,278,1,48,51,643776920
21,6,21,Ticks_Linear_5,279,5,42,127,643778672
21,6,21,Ticks_Linear_5,280,1,48,67,644512508
21,6,21,Ticks_Linear_5,281,5,42,127,644537688
21,6,21,Ticks_Linear_5,282,1,48,55,645263504
21,6,21,Ticks_Linear_5,283,5,42,127,645297468
21,6,21,Ticks_Linear_5,284,1,48,68,646033364
21,6,21,Ticks_Linear_5,285,5,42,127,646058316
21,6,21,Ticks_Linear_5,286,5,42,127,646818260
21,6,21,Ticks_Linear_5,287,1,48,57,646828776
21,6,21,Ticks_Linear_5,288,1,48,70,647568136
21,6,21,Ticks_Linear_5,289,5,42,127,647588116
21,6,21,Ticks_Linear_5,290,5,42,127,648358368
21,6,21,Ticks_Linear_5,291,1,48,56,648368888
21,6,21,Ticks_Linear_5,292,5,42,127,649128160
21,6,21,Ticks_Linear_5,293,1,48,60,649210056
21,6,21,Ticks_Linear_5,294,1,48,60,649873604
21,6,21,Ticks_Linear_5,295,5,42,127,649898396
21,6,21,Ticks_Linear_5,296,1,48,60,650576396
21,6,21,Ticks_Linear_5,297,5,42,127,650668416
21,6,21,Ticks_Linear_5,298,1,48,55,651339844
21,6,21,Ticks_Linear_5,299,5,42,127,651447584
21,6,21,Ticks_Linear_5,300,1,48,58,652093044
21,6,21,Ticks_Linear_5,301,5,42,127,652227916
21,6,21,Ticks_Linear_5,302,1,48,59,652938552
21,6,21,Ticks_Linear_5,303,5,42,127,653008264
21,6,21,Ticks_Linear_5,304,1,48,62,653764556
21,6,21,Ticks_Linear_5,305,5,42,127,653787604
21,6,21,Ticks_Linear_5,306,1,48,56,654545272
21,6,21,Ticks_Linear_5,307,5,42,127,654567704
21,6,21,Ticks_Linear_5,308,5,42,127,655358308
21,6,21,Ticks_Linear_5,309,1,48,61,655374084
21,6,21,Ticks_Linear_5,310,1,48,58,656140268
21,6,21,Ticks_Linear_5,311,5,42,127,656147948
21,6,21,Ticks_Linear_5,312,1,48,53,656904932
21,6,21,Ticks_Linear_5,313,5,42,127,656938668
21,6,21,Ticks_Linear_5,314,1,48,61,657693364
21,6,21,Ticks_Linear_5,315,5,42,127,657727788
21,6,21,Ticks_Linear_5,316,1,48,48,658494936
21,6,21,Ticks_Linear_5,317,5,42,127,658518660
21,6,21,Ticks_Linear_5,318,1,48,54,659260144
21,6,21,Ticks_Linear_5,319,5,42,127,659318096
21,6,21,Ticks_Linear_5,320,1,48,56,660006556
21,6,21,Ticks_Linear_5,321,5,42,127,660117892
21,6,21,Ticks_Linear_5,322,1,48,55,660841892
21,6,21,Ticks_Linear_5,323,5,42,127,660917644
21,6,21,Ticks_Linear_5,324,1,48,55,661668600
21,6,21,Ticks_Linear_5,325,5,42,127,661718524
21,6,21,Ticks_Linear_5,326,1,48,49,662506844
21,6,21,Ticks_Linear_5,327,5,42,127,662518060
21,6,21,Ticks_Linear_5,328,1,48,52,663309048
21,6,21,Ticks_Linear_5,329,5,42,127,663328108
21,6,21,Ticks_Linear_5,330,1,48,56,664112600
21,6,21,Ticks_Linear_5,331,5,42,127,664138004
21,6,21,Ticks_Linear_5,332,1,48,55,664913480
21,6,21,Ticks_Linear_5,333,5,42,127,664948284
21,6,21,Ticks_Linear_5,334,1,48,55,665712376
21,6,21,Ticks_Linear_5,335,5,42,127,665758488
21,6,21,Ticks_Linear_5,336,1,48,59,666513568
21,6,21,Ticks_Linear_5,337,5,42,127,666568156
21,6,21,Ticks_Linear_5,0,9999,9999,9999,557396068
21,6,21,Ticks_Linear_5,1,9999,9999,9999,557875312
21,6,21,Ticks_Linear_5,2,9999,9999,9999,558355548
21,6,21,Ticks_Linear_5,3,9999,9999,9999,558835808
21,6,21,Ticks_Linear_5,4,9999,9999,9999,559316096
21,6,21,Ticks_Linear_5,5,9999,9999,9999,559805552
21,6,21,Ticks_Linear_5,6,9999,9999,9999,560296000
21,6,21,Ticks_Linear_5,7,9999,9999,9999,560785524
21,6,21,Ticks_Linear_5,8,9999,9999,9999,561275972
21,6,21,Ticks_Linear_5,9,9999,9999,9999,561765468
21,6,21,Ticks_Linear_5,10,9999,9999,9999,562265196
21,6,21,Ticks_Linear_5,11,9999,9999,9999,562765884
21,6,21,Ticks_Linear_5,12,9999,9999,9999,563265652
21,6,21,Ticks_Linear_5,13,9999,9999,9999,563765344
21,6,21,Ticks_Linear_5,14,9999,9999,9999,564266108
21,6,21,Ticks_Linear_5,15,9999,9999,9999,564776040
21,6,21,Ticks_Linear_5,16,9999,9999,9999,565285968
21,6,21,Ticks_Linear_5,17,9999,9999,9999,565795896
21,6,21,Ticks_Linear_5,18,9999,9999,9999,566305904
21,6,21,Ticks_Linear_5,19,9999,9999,9999,566815832
21,6,21,Ticks_Linear_5,20,9999,9999,9999,567336000
21,6,21,Ticks_Linear_5,21,9999,9999,9999,567855176
21,6,21,Ticks_Linear_5,22,9999,9999,9999,568375420
21,6,21,Ticks_Linear_5,23,9999,9999,9999,568895588
21,6,21,Ticks_Linear_5,24,9999,9999,9999,569415756
21,6,21,Ticks_Linear_5,25,9999,9999,9999,569945172
21,6,21,Ticks_Linear_5,26,9999,9999,9999,570475576
21,6,21,Ticks_Linear_5,27,9999,9999,9999,571006056
21,6,21,Ticks_Linear_5,28,9999,9999,9999,571535468
21,6,21,Ticks_Linear_5,29,9999,9999,9999,572065872
21,6,21,Ticks_Linear_5,30,9999,9999,9999,572605524
21,6,21,Ticks_Linear_5,31,9999,9999,9999,573145172
21,6,21,Ticks_Linear_5,32,9999,9999,9999,573685816
21,6,21,Ticks_Linear_5,33,9999,9999,9999,574225488
21,6,21,Ticks_Linear_5,34,9999,9999,9999,574765140
21,6,21,Ticks_Linear_5,35,9999,9999,9999,575316076
21,6,21,Ticks_Linear_5,36,9999,9999,9999,575865980
21,6,21,Ticks_Linear_5,37,9999,9999,9999,576415868
21,6,21,Ticks_Linear_5,38,9999,9999,9999,576965752
21,6,21,Ticks_Linear_5,39,9999,9999,9999,577515640
21,6,21,Ticks_Linear_5,40,9999,9999,9999,578075772
21,6,21,Ticks_Linear_5,41,9999,9999,9999,578635896
21,6,21,Ticks_Linear_5,42,9999,9999,9999,579196020
21,6,21,Ticks_Linear_5,43,9999,9999,9999,579755092
21,6,21,Ticks_Linear_5,44,9999,9999,9999,580315216
21,6,21,Ticks_Linear_5,45,9999,9999,9999,580885604
21,6,21,Ticks_Linear_5,46,9999,9999,9999,581455968
21,6,21,Ticks_Linear_5,47,9999,9999,9999,582025336
21,6,21,Ticks_Linear_5,48,9999,9999,9999,582595696
21,6,21,Ticks_Linear_5,49,9999,9999,9999,583166080
21,6,21,Ticks_Linear_5,50,9999,9999,9999,583745612
21,6,21,Ticks_Linear_5,51,9999,9999,9999,584325248
21,6,21,Ticks_Linear_5,52,9999,9999,9999,584905816
21,6,21,Ticks_Linear_5,53,9999,9999,9999,585485372
21,6,21,Ticks_Linear_5,54,9999,9999,9999,586066044
21,6,21,Ticks_Linear_5,55,9999,9999,9999,586655812
21,6,21,Ticks_Linear_5,56,9999,9999,9999,587245656
21,6,21,Ticks_Linear_5,57,9999,9999,9999,587835448
21,6,21,Ticks_Linear_5,58,9999,9999,9999,588425292
21,6,21,Ticks_Linear_5,59,9999,9999,9999,589015136
21,6,21,Ticks_Linear_5,60,9999,9999,9999,589615164
21,6,21,Ticks_Linear_5,61,9999,9999,9999,590215244
21,6,21,Ticks_Linear_5,62,9999,9999,9999,590815324
21,6,21,Ticks_Linear_5,63,9999,9999,9999,591415356
21,6,21,Ticks_Linear_5,64,9999,9999,9999,592015436
21,6,21,Ticks_Linear_5,65,9999,9999,9999,592625756
21,6,21,Ticks_Linear_5,66,9999,9999,9999,593236096
21,6,21,Ticks_Linear_5,67,9999,9999,9999,593845348
21,6,21,Ticks_Linear_5,68,9999,9999,9999,594455612
21,6,21,Ticks_Linear_5,69,9999,9999,9999,595065932
21,6,21,Ticks_Linear_5,70,9999,9999,9999,595685496
21,6,21,Ticks_Linear_5,71,9999,9999,9999,596306000
21,6,21,Ticks_Linear_5,72,9999,9999,9999,596925564
21,6,21,Ticks_Linear_5,73,9999,9999,9999,597546068
21,6,21,Ticks_Linear_5,74,9999,9999,9999,598165628
21,6,21,Ticks_Linear_5,75,9999,9999,9999,598795380
21,6,21,Ticks_Linear_5,76,9999,9999,9999,599425104
21,6,21,Ticks_Linear_5,77,9999,9999,9999,600055896
21,6,21,Ticks_Linear_5,78,9999,9999,9999,600685644
21,6,21,Ticks_Linear_5,79,9999,9999,9999,601315444
21,6,21,Ticks_Linear_5,80,9999,9999,9999,601955412
21,6,21,Ticks_Linear_5,81,9999,9999,9999,602595452
21,6,21,Ticks_Linear_5,82,9999,9999,9999,603235436
21,6,21,Ticks_Linear_5,83,9999,9999,9999,603875416
21,6,21,Ticks_Linear_5,84,9999,9999,9999,604515384
21,6,21,Ticks_Linear_5,85,9999,9999,9999,605165676
21,6,21,Ticks_Linear_5,86,9999,9999,9999,605815900
21,6,21,Ticks_Linear_5,87,9999,9999,9999,606465132
21,6,21,Ticks_Linear_5,88,9999,9999,9999,607115328
21,6,21,Ticks_Linear_5,89,9999,9999,9999,607765560
21,6,21,Ticks_Linear_5,90,9999,9999,9999,608426064
21,6,21,Ticks_Linear_5,91,9999,9999,9999,609085532
21,6,21,Ticks_Linear_5,92,9999,9999,9999,609746044
21,6,21,Ticks_Linear_5,93,9999,9999,9999,610405436
21,6,21,Ticks_Linear_5,94,9999,9999,9999,611065976
21,6,21,Ticks_Linear_5,95,9999,9999,9999,611735656
21,6,21,Ticks_Linear_5,96,9999,9999,9999,612405364
21,6,21,Ticks_Linear_5,97,9999,9999,9999,613076036
21,6,21,Ticks_Linear_5,98,9999,9999,9999,613745752
21,6,21,Ticks_Linear_5,99,9999,9999,9999,614415452
21,6,21,Ticks_Linear_5,100,9999,9999,9999,615095368
21,6,21,Ticks_Linear_5,101,9999,9999,9999,615775312
21,6,21,Ticks_Linear_5,102,9999,9999,9999,616455252
21,6,21,Ticks_Linear_5,103,9999,9999,9999,617135172
21,6,21,Ticks_Linear_5,104,9999,9999,9999,617815116
21,6,21,Ticks_Linear_5,105,9999,9999,9999,618505296
21,6,21,Ticks_Linear_5,106,9999,9999,9999,619195508
21,6,21,Ticks_Linear_5,107,9999,9999,9999,619885628
21,6,21,Ticks_Linear_5,108,9999,9999,9999,620575812
21,6,21,Ticks_Linear_5,109,9999,9999,9999,621266040
21,6,21,Ticks_Linear_5,110,9999,9999,9999,621965392
21,6,21,Ticks_Linear_5,111,9999,9999,9999,622665808
21,6,21,Ticks_Linear_5,112,9999,9999,9999,623365240
21,6,21,Ticks_Linear_5,113,9999,9999,9999,624065632
21,6,21,Ticks_Linear_5,114,9999,9999,9999,624766052
21,6,21,Ticks_Linear_5,115,9999,9999,9999,625475640
21,6,21,Ticks_Linear_5,116,9999,9999,9999,626185292
21,6,21,Ticks_Linear_5,117,9999,9999,9999,626896000
21,6,21,Ticks_Linear_5,118,9999,9999,9999,627605584
21,6,21,Ticks_Linear_5,119,9999,9999,9999,628315248
21,6,21,Ticks_Linear_5,120,9999,9999,9999,629035072
21,6,21,Ticks_Linear_5,121,9999,9999,9999,629755964
21,6,21,Ticks_Linear_5,122,9999,9999,9999,630475840
21,6,21,Ticks_Linear_5,123,9999,9999,9999,631195740
21,6,21,Ticks_Linear_5,124,9999,9999,9999,631915640
21,6,21,Ticks_Linear_5,125,9999,9999,9999,632645700
21,6,21,Ticks_Linear_5,126,9999,9999,9999,633375840
21,6,21,Ticks_Linear_5,127,9999,9999,9999,634105976
21,6,21,Ticks_Linear_5,128,9999,9999,9999,634836088
21,6,21,Ticks_Linear_5,129,9999,9999,9999,635565156
21,6,21,Ticks_Linear_5,130,9999,9999,9999,636305532
21,6,21,Ticks_Linear_5,131,9999,9999,9999,637045828
21,6,21,Ticks_Linear_5,132,9999,9999,9999,637785212
21,6,21,Ticks_Linear_5,133,9999,9999,9999,638525512
21,6,21,Ticks_Linear_5,134,9999,9999,9999,639265884
21,6,21,Ticks_Linear_5,135,9999,9999,9999,640015428
21,6,21,Ticks_Linear_5,136,9999,9999,9999,640766036
21,6,21,Ticks_Linear_5,137,9999,9999,9999,641515632
21,6,21,Ticks_Linear_5,138,9999,9999,9999,642265172
21,6,21,Ticks_Linear_5,139,9999,9999,9999,643015792
21,6,21,Ticks_Linear_5,140,9999,9999,9999,643775576
21,6,21,Ticks_Linear_5,141,9999,9999,9999,644535420
21,6,21,Ticks_Linear_5,142,9999,9999,9999,645295204
21,6,21,Ticks_Linear_5,143,9999,9999,9999,646056052
21,6,21,Ticks_Linear_5,144,9999,9999,9999,646815840
21,6,21,Ticks_Linear_5,145,9999,9999,9999,647585848
21,6,21,Ticks_Linear_5,146,9999,9999,9999,648355952
21,6,21,Ticks_Linear_5,147,9999,9999,9999,649125968
21,6,21,Ticks_Linear_5,148,9999,9999,9999,649896056
21,6,21,Ticks_Linear_5,149,9999,9999,9999,650666072
21,6,21,Ticks_Linear_5,150,9999,9999,9999,651445320
21,6,21,Ticks_Linear_5,151,9999,9999,9999,652225648
21,6,21,Ticks_Linear_5,152,9999,9999,9999,653005920
21,6,21,Ticks_Linear_5,153,9999,9999,9999,653785184
21,6,21,Ticks_Linear_5,154,9999,9999,9999,654565436
21,6,21,Ticks_Linear_5,155,9999,9999,9999,655355964
21,6,21,Ticks_Linear_5,156,9999,9999,9999,656145532
21,6,21,Ticks_Linear_5,157,9999,9999,9999,656936024
21,6,21,Ticks_Linear_5,158,9999,9999,9999,657725520
21,6,21,Ticks_Linear_5,159,9999,9999,9999,658516092
21,6,21,Ticks_Linear_5,160,9999,9999,9999,659315828
21,6,21,Ticks_Linear_5,161,9999,9999,9999,660115548
21,6,21,Ticks_Linear_5,162,9999,9999,9999,660915300
21,6,21,Ticks_Linear_5,163,9999,9999,9999,661716028
21,6,21,Ticks_Linear_5,164,9999,9999,9999,662515764
21,6,21,Ticks_Linear_5,165,9999,9999,9999,663325768
21,6,21,Ticks_Linear_5,166,9999,9999,9999,664135740
21,6,21,Ticks_Linear_5,167,9999,9999,9999,664945788
21,6,21,Ticks_Linear_5,168,9999,9999,9999,665755764
21,6,21,Ticks_Linear_5,169,9999,9999,9999,666565740
21,7,22,Ticks_Phase_8,0,5,42,127,731081004
21,7,22,Ticks_Phase_8,1,1,48,34,731853136
21,7,22,Ticks_Phase_8,2,5,42,127,731880972
21,7,22,Ticks_Phase_8,3,5,42,127,732680652
21,7,22,Ticks_Phase_8,4,1,48,54,732696356
21,7,22,Ticks_Phase_8,5,5,42,127,733481448
21,7,22,Ticks_Phase_8,6,1,48,52,733493416
21,7,22,Ticks_Phase_8,7,1,48,58,734269376
21,7,22,Ticks_Phase_8,8,5,42,127,734281012
21,7,22,Ticks_Phase_8,9,1,48,46,735069332
21,7,22,Ticks_Phase_8,10,5,42,127,735080812
21,7,22,Ticks_Phase_8,11,1,48,52,735812056
21,7,22,Ticks_Phase_8,12,5,42,127,735880536
21,7,22,Ticks_Phase_8,13,1,48,58,736588168
21,7,22,Ticks_Phase_8,14,5,42,127,736681316
21,7,22,Ticks_Phase_8,15,1,48,60,737399364
21,7,22,Ticks_Phase_8,16,5,42,127,737481132
21,7,22,Ticks_Phase_8,17,1,48,62,738226584
21,7,22,Ticks_Phase_8,18,5,42,127,738280780
21,7,22,Ticks_Phase_8,19,1,48,59,739029528
21,7,22,Ticks_Phase_8,20,5,42,127,739080456
21,7,22,Ticks_Phase_8,21,1,48,63,739820620
21,7,22,Ticks_Phase_8,22,5,42,127,739881248
21,7,22,Ticks_Phase_8,23,1,48,61,740598124
21,7,22,Ticks_Phase_8,24,5,42,127,740681124
21,7,22,Ticks_Phase_8,25,1,48,67,741378836
21,7,22,Ticks_Phase_8,26,5,42,127,741480984
21,7,22,Ticks_Phase_8,27,1,48,52,742199800
21,7,22,Ticks_Phase_8,28,5,42,127,742280728
21,7,22,Ticks_Phase_8,29,1,48,57,743040320
21,7,22,Ticks_Phase_8,30,5,42,127,743081444
21,7,22,Ticks_Phase_8,31,5,42,127,743881024
21,7,22,Ticks_Phase_8,32,1,48,58,743885120
21,7,22,Ticks_Phase_8,33,5,42,127,744681052
21,7,22,Ticks_Phase_8,34,1,48,58,744682036
21,7,22,Ticks_Phase_8,35,1,48,63,745468084
21,7,22,Ticks_Phase_8,36,5,42,127,745480492
21,7,22,Ticks_Phase_8,37,1,48,61,746280064
21,7,22,Ticks_Phase_8,38,5,42,127,746281816
21,7,22,Ticks_Phase_8,39,5,42,127,747081168
21,7,22,Ticks_Phase_8,40,1,48,67,747099560
21,7,22,Ticks_Phase_8,41,1,48,62,747869020
21,7,22,Ticks_Phase_8,42,5,42,127,747880812
21,7,22,Ticks_Phase_8,43,1,48,46,748650868
21,7,22,Ticks_Phase_8,44,5,42,127,748680612
21,7,22,Ticks_Phase_8,45,1,48,62,749446312
21,7,22,Ticks_Phase_8,46,5,42,127,749481404
21,7,22,Ticks_Phase_8,47,1,48,58,750209216
21,7,22,Ticks_Phase_8,48,5,42,127,750280976
21,7,22,Ticks_Phase_8,49,1,48,53,750994648
21,7,22,Ticks_Phase_8,50,5,42,127,751080852
21,7,22,Ticks_Phase_8,51,1,48,58,751816448
21,7,22,Ticks_Phase_8,52,5,42,127,751880756
21,7,22,Ticks_Phase_8,53,1,48,61,752616632
21,7,22,Ticks_Phase_8,54,5,42,127,752681396
21,7,22,Ticks_Phase_8,55,1,48,70,753405684
21,7,22,Ticks_Phase_8,56,5,42,127,753480968
21,7,22,Ticks_Phase_8,57,1,48,63,754237952
21,7,22,Ticks_Phase_8,58,5,42,127,754280772
21,7,22,Ticks_Phase_8,59,1,48,65,755045628
21,7,22,Ticks_Phase_8,60,5,42,127,755061244
21,7,22,Ticks_Phase_8,61,1,48,57,755853912
21,7,22,Ticks_Phase_8,62,5,42,127,755860740
21,7,22,Ticks_Phase_8,63,1,48,64,756573108
21,7,22,Ticks_Phase_8,64,5,42,127,756660616
21,7,22,Ticks_Phase_8,65,1,48,50,757428768
21,7,22,Ticks_Phase_8,66,5,42,127,757461484
21,7,22,Ticks_Phase_8,67,1,48,59,758248664
21,7,22,Ticks_Phase_8,68,5,42,127,758261008
21,7,22,Ticks_Phase_8,69,1,48,70,759010568
21,7,22,Ticks_Phase_8,70,5,42,127,759060960
21,7,22,Ticks_Phase_8,71,1,48,62,759808712
21,7,22,Ticks_Phase_8,72,5,42,127,759860684
21,7,22,Ticks_Phase_8,73,1,48,57,760631812
21,7,22,Ticks_Phase_8,74,5,42,127,760661328
21,7,22,Ticks_Phase_8,75,1,48,60,761433292
21,7,22,Ticks_Phase_8,76,5,42,127,761461356
21,7,22,Ticks_Phase_8,77,5,42,127,762260860
21,7,22,Ticks_Phase_8,78,1,48,14,762314536
21,7,22,Ticks_Phase_8,79,1,48,61,762983232
21,7,22,Ticks_Phase_8,80,5,42,127,763060576
21,7,22,Ticks_Phase_8,81,1,48,51,763807176
21,7,22,Ticks_Phase_8,82,5,42,127,763861372
21,7,22,Ticks_Phase_8,83,1,48,65,764648380
21,7,22,Ticks_Phase_8,84,5,42,127,764661272
21,7,22,Ticks_Phase_8,85,5,42,127,765460856
21,7,22,Ticks_Phase_8,86,1,48,42,765475952
21,7,22,Ticks_Phase_8,87,1,48,65,766209896
21,7,22,Ticks_Phase_8,88,5,42,127,766260496
21,7,22,Ticks_Phase_8,89,1,48,61,767014124
21,7,22,Ticks_Phase_8,90,5,42,127,767061364
21,7,22,Ticks_Phase_8,91,1,48,64,767769084
21,7,22,Ticks_Phase_8,92,5,42,127,767861016
21,7,22,Ticks_Phase_8,93,1,48,61,768591956
21,7,22,Ticks_Phase_8,94,5,42,127,768660892
21,7,22,Ticks_Phase_8,95,1,48,65,769400468
21,7,22,Ticks_Phase_8,96,5,42,127,769481092
21,7,22,Ticks_Phase_8,97,1,48,68,770202252
21,7,22,Ticks_Phase_8,98,5,42,127,770281120
21,7,22,Ticks_Phase_8,99,1,48,63,771024588
21,7,22,Ticks_Phase_8,100,5,42,127,771080644
21,7,22,Ticks_Phase_8,101,1,48,58,771873688
21,7,22,Ticks_Phase_8,102,5,42,127,771881360
21,7,22,Ticks_Phase_8,103,1,48,57,772634524
21,7,22,Ticks_Phase_8,104,5,42,127,772681008
21,7,22,Ticks_Phase_8,105,1,48,62,773412860
21,7,22,Ticks_Phase_8,106,5,42,127,773481036
21,7,22,Ticks_Phase_8,107,1,48,71,774249496
21,7,22,Ticks_Phase_8,108,5,42,127,774280688
21,7,22,Ticks_Phase_8,109,1,48,63,775072440
21,7,22,Ticks_Phase_8,110,5,42,127,775081252
21,7,22,Ticks_Phase_8,111,1,48,67,775867804
21,7,22,Ticks_Phase_8,112,5,42,127,775881052
21,7,22,Ticks_Phase_8,113,5,42,127,776680784
21,7,22,Ticks_Phase_8,114,1,48,67,776691940
21,7,22,Ticks_Phase_8,115,1,48,67,777471108
21,7,22,Ticks_Phase_8,116,5,42,127,777480452
21,7,22,Ticks_Phase_8,117,5,42,127,778281632
21,7,22,Ticks_Phase_8,118,1,48,65,778298176
21,7,22,Ticks_Phase_8,119,1,48,57,779048616
21,7,22,Ticks_Phase_8,120,5,42,127,779081044
21,7,22,Ticks_Phase_8,121,1,48,58,779835892
21,7,22,Ticks_Phase_8,122,5,42,127,779880772
21,7,22,Ticks_Phase_8,123,1,48,62,780623932
21,7,22,Ticks_Phase_8,124,5,42,127,780680648
21,7,22,Ticks_Phase_8,125,1,48,59,781409908
21,7,22,Ticks_Phase_8,126,5,42,127,781481592
21,7,22,Ticks_Phase_8,127,1,48,64,782231788
21,7,22,Ticks_Phase_8,128,5,42,127,782320996
21,7,22,Ticks_Phase_8,129,5,42,127,783120652
21,7,22,Ticks_Phase_8,130,1,48,63,783131396
21,7,22,Ticks_Phase_8,131,5,42,127,783920528
21,7,22,Ticks_Phase_8,132,1,48,70,783972220
21,7,22,Ticks_Phase_8,133,1,48,67,784709524
21,7,22,Ticks_Phase_8,134,5,42,127,784721388
21,7,22,Ticks_Phase_8,135,1,48,64,785488004
21,7,22,Ticks_Phase_8,136,5,42,127,785521264
21,7,22,Ticks_Phase_8,137,1,48,70,786269404
21,7,22,Ticks_Phase_8,138,5,42,127,786320764
21,7,22,Ticks_Phase_8,139,1,48,58,787049572
21,7,22,Ticks_Phase_8,140,5,42,127,787120488
21,7,22,Ticks_Phase_8,141,1,48,68,787891992
21,7,22,Ticks_Phase_8,142,5,42,127,787921280
21,7,22,Ticks_Phase_8,143,5,42,127,788721416
21,7,22,Ticks_Phase_8,144,1,48,63,788723092
21,7,22,Ticks_Phase_8,145,1,48,57,789500032
21,7,22,Ticks_Phase_8,146,5,42,127,789520832
21,7,22,Ticks_Phase_8,147,1,48,52,790276220
21,7,22,Ticks_Phase_8,148,5,42,127,790320404
21,7,22,Ticks_Phase_8,149,5,42,127,791121356
21,7,22,Ticks_Phase_8,150,1,48,66,791124460
21,7,22,Ticks_Phase_8,151,1,48,66,791877416
21,7,22,Ticks_Phase_8,152,5,42,127,791920924
21,7,22,Ticks_Phase_8,153,1,48,56,792712372
21,7,22,Ticks_Phase_8,154,5,42,127,792720948
21,7,22,Ticks_Phase_8,155,1,48,63,793477480
21,7,22,Ticks_Phase_8,156,5,42,127,793520448
21,7,22,Ticks_Phase_8,157,1,48,58,794279808
21,7,22,Ticks_Phase_8,158,5,42,127,794321164
21,7,22,Ticks_Phase_8,159,1,48,53,795069680
21,7,22,Ticks_Phase_8,160,5,42,127,795121068
21,7,22,Ticks_Phase_8,161,1,48,64,795845716
21,7,22,Ticks_Phase_8,162,5,42,127,795881116
21,7,22,Ticks_Phase_8,163,1,48,69,796630924
21,7,22,Ticks_Phase_8,164,5,42,127,796680484
21,7,22,Ticks_Phase_8,165,1,48,58,797448332
21,7,22,Ticks_Phase_8,166,5,42,127,797481276
21,7,22,Ticks_Phase_8,167,1,48,63,798266760
21,7,22,Ticks_Phase_8,168,5,42,127,798281076
21,7,22,Ticks_Phase_8,169,1,48,51,799027748
21,7,22,Ticks_Phase_8,170,5,42,127,799080876
21,7,22,Ticks_Phase_8,171,1,48,46,799816092
21,7,22,Ticks_Phase_8,172,5,42,127,799880680
21,7,22,Ticks_Phase_8,173,1,48,55,800659604
21,7,22,Ticks_Phase_8,174,5,42,127,800681244
21,7,22,Ticks_Phase_8,175,1,48,51,801442512
21,7,22,Ticks_Phase_8,176,5,42,127,801481120
21,7,22,Ticks_Phase_8,177,1,48,54,802259888
21,7,22,Ticks_Phase_8,178,5,42,127,802280924
21,7,22,Ticks_Phase_8,179,5,42,127,803080680
21,7,22,Ticks_Phase_8,180,1,48,65,803105552
21,7,22,Ticks_Phase_8,181,5,42,127,803881244
21,7,22,Ticks_Phase_8,182,1,48,67,803890768
21,7,22,Ticks_Phase_8,183,1,48,59,804672452
21,7,22,Ticks_Phase_8,184,5,42,127,804681036
21,7,22,Ticks_Phase_8,185,5,42,127,805480772
21,7,22,Ticks_Phase_8,186,1,48,62,805497620
21,7,22,Ticks_Phase_8,187,5,42,127,806280724
21,7,22,Ticks_Phase_8,188,1,48,61,806295820
21,7,22,Ticks_Phase_8,189,5,42,127,807081592
21,7,22,Ticks_Phase_8,190,1,48,64,807096688
21,7,22,Ticks_Phase_8,191,5,42,127,807881244
21,7,22,Ticks_Phase_8,192,1,48,63,807889624
21,7,22,Ticks_Phase_8,193,5,42,127,808600900
21,7,22,Ticks_Phase_8,194,1,48,57,808710536
21,7,22,Ticks_Phase_8,195,5,42,127,809400704
21,7,22,Ticks_Phase_8,196,1,48,62,809435048
21,7,22,Ticks_Phase_8,197,1,48,67,810166468
21,7,22,Ticks_Phase_8,198,5,42,127,810200496
21,7,22,Ticks_Phase_8,199,1,48,73,810968420
21,7,22,Ticks_Phase_8,200,5,42,127,811001312
21,7,22,Ticks_Phase_8,201,1,48,70,811744980
21,7,22,Ticks_Phase_8,202,5,42,127,811801188
21,7,22,Ticks_Phase_8,203,1,48,73,812555884
21,7,22,Ticks_Phase_8,204,5,42,127,812600612
21,7,22,Ticks_Phase_8,205,1,48,69,813364476
21,7,22,Ticks_Phase_8,206,5,42,127,813400488
21,7,22,Ticks_Phase_8,207,1,48,70,814150224
21,7,22,Ticks_Phase_8,208,5,42,127,814201280
21,7,22,Ticks_Phase_8,209,1,48,64,814956356
21,7,22,Ticks_Phase_8,210,5,42,127,815001156
21,7,22,Ticks_Phase_8,211,1,48,70,815765020
21,7,22,Ticks_Phase_8,212,5,42,127,815800656
21,7,22,Ticks_Phase_8,213,1,48,68,816582096
21,7,22,Ticks_Phase_8,214,5,42,127,816600456
21,7,22,Ticks_Phase_8,215,1,48,72,817338584
21,7,22,Ticks_Phase_8,216,5,42,127,817401196
21,7,22,Ticks_Phase_8,217,1,48,62,818148148
21,7,22,Ticks_Phase_8,218,5,42,127,818201148
21,7,22,Ticks_Phase_8,219,1,48,61,818979996
21,7,22,Ticks_Phase_8,220,5,42,127,819000948
21,7,22,Ticks_Phase_8,221,1,48,61,819775892
21,7,22,Ticks_Phase_8,222,5,42,127,819800372
21,7,22,Ticks_Phase_8,223,1,48,64,820549040
21,7,22,Ticks_Phase_8,224,5,42,127,820601316
21,7,22,Ticks_Phase_8,225,1,48,59,821372668
21,7,22,Ticks_Phase_8,226,5,42,127,821400888
21,7,22,Ticks_Phase_8,227,1,48,56,822168336
21,7,22,Ticks_Phase_8,228,5,42,127,822280536
21,7,22,Ticks_Phase_8,229,1,48,62,823017676
21,7,22,Ticks_Phase_8,230,5,42,127,823081268
21,7,22,Ticks_Phase_8,231,1,48,66,823855904
21,7,22,Ticks_Phase_8,232,5,42,127,823880996
21,7,22,Ticks_Phase_8,233,1,48,62,824680804
21,7,22,Ticks_Phase_8,234,5,42,127,824682628
21,7,22,Ticks_Phase_8,235,1,48,58,825461396
21,7,22,Ticks_Phase_8,236,5,42,127,825480672
21,7,22,Ticks_Phase_8,237,1,48,57,826247364
21,7,22,Ticks_Phase_8,238,5,42,127,826281388
21,7,22,Ticks_Phase_8,239,1,48,74,827073368
21,7,22,Ticks_Phase_8,240,5,42,127,827081036
21,7,22,Ticks_Phase_8,241,5,42,127,827880796
21,7,22,Ticks_Phase_8,242,1,48,65,827890780
21,7,22,Ticks_Phase_8,243,5,42,127,828680672
21,7,22,Ticks_Phase_8,244,1,48,56,828690120
21,7,22,Ticks_Phase_8,245,5,42,127,829481388
21,7,22,Ticks_Phase_8,246,1,48,66,829530564
21,7,22,Ticks_Phase_8,247,5,42,127,830281116
21,7,22,Ticks_Phase_8,248,1,48,78,830283016
21,7,22,Ticks_Phase_8,249,5,42,127,831080764
21,7,22,Ticks_Phase_8,250,1,48,66,831117020
21,7,22,Ticks_Phase_8,251,5,42,127,831880488
21,7,22,Ticks_Phase_8,252,1,48,62,831901704
21,7,22,Ticks_Phase_8,253,5,42,127,832681508
21,7,22,Ticks_Phase_8,254,1,48,59,832685448
21,7,22,Ticks_Phase_8,255,1,48,64,833478748
21,7,22,Ticks_Phase_8,256,5,42,127,833481300
21,7,22,Ticks_Phase_8,257,1,48,66,834278164
21,7,22,Ticks_Phase_8,258,5,42,127,834280748
21,7,22,Ticks_Phase_8,259,5,42,127,835080632
21,7,22,Ticks_Phase_8,260,1,48,67,835100780
21,7,22,Ticks_Phase_8,261,1,48,55,835875352
21,7,22,Ticks_Phase_8,262,5,42,127,836041076
21,7,22,Ticks_Phase_8,263,5,42,127,836840776
21,7,22,Ticks_Phase_8,264,1,48,58,836842212
21,7,22,Ticks_Phase_8,265,5,42,127,837640652
21,7,22,Ticks_Phase_8,266,1,48,53,837655360
21,7,22,Ticks_Phase_8,267,5,42,127,838441368
21,7,22,Ticks_Phase_8,268,1,48,57,838515136
21,7,22,Ticks_Phase_8,269,5,42,127,839241016
21,7,22,Ticks_Phase_8,270,1,48,47,839292104
21,7,22,Ticks_Phase_8,271,5,42,127,840040896
21,7,22,Ticks_Phase_8,272,1,48,61,840066836
21,7,22,Ticks_Phase_8,273,1,48,68,840783284
21,7,22,Ticks_Phase_8,274,5,42,127,840840460
21,7,22,Ticks_Phase_8,275,1,48,62,841547176
21,7,22,Ticks_Phase_8,276,5,42,127,841641312
21,7,22,Ticks_Phase_8,277,1,48,65,842412912
21,7,22,Ticks_Phase_8,278,5,42,127,842441132
21,7,22,Ticks_Phase_8,279,1,48,62,843188184
21,7,22,Ticks_Phase_8,280,5,42,127,843240880
21,7,22,Ticks_Phase_8,281,1,48,50,843988900
21,7,22,Ticks_Phase_8,282,5,42,127,844040456
21,7,22,Ticks_Phase_8,283,1,48,66,844814556
21,7,22,Ticks_Phase_8,284,5,42,127,844841248
21,7,22,Ticks_Phase_8,285,1,48,60,845640060
21,7,22,Ticks_Phase_8,286,5,42,127,845641812
21,7,22,Ticks_Phase_8,287,1,48,47,846407504
21,7,22,Ticks_Phase_8,288,5,42,127,846440848
21,7,22,Ticks_Phase_8,289,1,48,51,847233744
21,7,22,Ticks_Phase_8,290,5,42,127,847240800
21,7,22,Ticks_Phase_8,291,5,42,127,848041224
21,7,22,Ticks_Phase_8,292,1,48,55,848090400
21,7,22,Ticks_Phase_8,293,1,48,54,848820136
21,7,22,Ticks_Phase_8,294,5,42,127,848841168
21,7,22,Ticks_Phase_8,295,1,48,67,849589684
21,7,22,Ticks_Phase_8,296,5,42,127,849640768
21,7,22,Ticks_Phase_8,297,1,48,72,850378092
21,7,22,Ticks_Phase_8,298,5,42,127,850440568
21,7,22,Ticks_Phase_8,299,5,42,127,851080604
21,7,22,Ticks_Phase_8,300,1,48,51,851205432
21,7,22,Ticks_Phase_8,301,1,48,60,851826576
21,7,22,Ticks_Phase_8,302,5,42,127,851881236
21,7,22,Ticks_Phase_8,303,1,48,60,852499336
21,7,22,Ticks_Phase_8,304,5,42,127,852681096
21,7,22,Ticks_Phase_8,305,5,42,127,853480796
21,7,22,Ticks_Phase_8,306,1,48,53,853487100
21,7,22,Ticks_Phase_8,307,5,42,127,854280596
21,7,22,Ticks_Phase_8,308,1,48,65,854321368
21,7,22,Ticks_Phase_8,309,5,42,127,855081464
21,7,22,Ticks_Phase_8,310,1,48,47,855179768
21,7,22,Ticks_Phase_8,311,1,48,59,855869316
21,7,22,Ticks_Phase_8,312,5,42,127,855881332
21,7,22,Ticks_Phase_8,313,1,48,62,856677356
21,7,22,Ticks_Phase_8,314,5,42,127,856680980
21,7,22,Ticks_Phase_8,315,1,48,65,857453252
21,7,22,Ticks_Phase_8,316,5,42,127,857480480
21,7,22,Ticks_Phase_8,317,1,48,60,858249008
21,7,22,Ticks_Phase_8,318,5,42,127,858281348
21,7,22,Ticks_Phase_8,319,1,48,56,859045592
21,7,22,Ticks_Phase_8,320,5,42,127,859081148
21,7,22,Ticks_Phase_8,321,5,42,127,859880756
21,7,22,Ticks_Phase_8,322,1,48,63,859885232
21,7,22,Ticks_Phase_8,323,5,42,127,860680636
21,7,22,Ticks_Phase_8,324,1,48,64,860689164
21,7,22,Ticks_Phase_8,325,5,42,127,861481352
21,7,22,Ticks_Phase_8,326,1,48,48,861488284
21,7,22,Ticks_Phase_8,327,1,48,66,862240096
21,7,22,Ticks_Phase_8,328,5,42,127,862281220
21,7,22,Ticks_Phase_8,329,1,48,60,863024156
21,7,22,Ticks_Phase_8,330,5,42,127,863081020
21,7,22,Ticks_Phase_8,331,1,48,63,863798524
21,7,22,Ticks_Phase_8,332,5,42,127,863880596
21,7,22,Ticks_Phase_8,333,1,48,66,864679156
21,7,22,Ticks_Phase_8,334,5,42,127,864681308
21,7,22,Ticks_Phase_8,335,5,42,127,865481044
21,7,22,Ticks_Phase_8,336,1,48,69,865514808
21,7,22,Ticks_Phase_8,337,5,42,127,866281176
21,7,22,Ticks_Phase_8,0,9999,9999,9999,731078748
21,7,22,Ticks_Phase_8,1,9999,9999,9999,731878492
21,7,22,Ticks_Phase_8,2,9999,9999,9999,732678248
21,7,22,Ticks_Phase_8,3,9999,9999,9999,733478964
21,7,22,Ticks_Phase_8,4,9999,9999,9999,734278760
21,7,22,Ticks_Phase_8,5,9999,9999,9999,735078484
21,7,22,Ticks_Phase_8,6,9999,9999,9999,735878208
21,7,22,Ticks_Phase_8,7,9999,9999,9999,736678984
21,7,22,Ticks_Phase_8,8,9999,9999,9999,737478728
21,7,22,Ticks_Phase_8,9,9999,9999,9999,738278452
21,7,22,Ticks_Phase_8,10,9999,9999,9999,739078204
21,7,22,Ticks_Phase_8,11,9999,9999,9999,739878996
21,7,22,Ticks_Phase_8,12,9999,9999,9999,740678720
21,7,22,Ticks_Phase_8,13,9999,9999,9999,741478464
21,7,22,Ticks_Phase_8,14,9999,9999,9999,742278248
21,7,22,Ticks_Phase_8,15,9999,9999,9999,743079040
21,7,22,Ticks_Phase_8,16,9999,9999,9999,743878772
21,7,22,Ticks_Phase_8,17,9999,9999,9999,744678496
21,7,22,Ticks_Phase_8,18,9999,9999,9999,745478240
21,7,22,Ticks_Phase_8,19,9999,9999,9999,746279040
21,7,22,Ticks_Phase_8,20,9999,9999,9999,747078764
21,7,22,Ticks_Phase_8,21,9999,9999,9999,747878480
21,7,22,Ticks_Phase_8,22,9999,9999,9999,748678208
21,7,22,Ticks_Phase_8,23,9999,9999,9999,749479000
21,7,22,Ticks_Phase_8,24,9999,9999,9999,750278724
21,7,22,Ticks_Phase_8,25,9999,9999,9999,751078524
21,7,22,Ticks_Phase_8,26,9999,9999,9999,751878200
21,7,22,Ticks_Phase_8,27,9999,9999,9999,752678992
21,7,22,Ticks_Phase_8,28,9999,9999,9999,753478716
21,7,22,Ticks_Phase_8,29,9999,9999,9999,754278516
21,7,22,Ticks_Phase_8,30,9999,9999,9999,755058760
21,7,22,Ticks_Phase_8,31,9999,9999,9999,755858488
21,7,22,Ticks_Phase_8,32,9999,9999,9999,756658288
21,7,22,Ticks_Phase_8,33,9999,9999,9999,757459004
21,7,22,Ticks_Phase_8,34,9999,9999,9999,758258752
21,7,22,Ticks_Phase_8,35,9999,9999,9999,759058556
21,7,22,Ticks_Phase_8,36,9999,9999,9999,759858280
21,7,22,Ticks_Phase_8,37,9999,9999,9999,760658996
21,7,22,Ticks_Phase_8,38,9999,9999,9999,761458800
21,7,22,Ticks_Phase_8,39,9999,9999,9999,762258532
21,7,22,Ticks_Phase_8,40,9999,9999,9999,763058248
21,7,22,Ticks_Phase_8,41,9999,9999,9999,763859044
21,7,22,Ticks_Phase_8,42,9999,9999,9999,764658792
21,7,22,Ticks_Phase_8,43,9999,9999,9999,765458528
21,7,22,Ticks_Phase_8,44,9999,9999,9999,766258244
21,7,22,Ticks_Phase_8,45,9999,9999,9999,767059036
21,7,22,Ticks_Phase_8,46,9999,9999,9999,767858764
21,7,22,Ticks_Phase_8,47,9999,9999,9999,768658488
21,7,22,Ticks_Phase_8,48,9999,9999,9999,769478764
21,7,22,Ticks_Phase_8,49,9999,9999,9999,770278488
21,7,22,Ticks_Phase_8,50,9999,9999,9999,771078240
21,7,22,Ticks_Phase_8,51,9999,9999,9999,771879032
21,7,22,Ticks_Phase_8,52,9999,9999,9999,772678756
21,7,22,Ticks_Phase_8,53,9999,9999,9999,773478480
21,7,22,Ticks_Phase_8,54,9999,9999,9999,774278208
21,7,22,Ticks_Phase_8,55,9999,9999,9999,775079000
21,7,22,Ticks_Phase_8,56,9999,9999,9999,775878724
21,7,22,Ticks_Phase_8,57,9999,9999,9999,776678456
21,7,22,Ticks_Phase_8,58,9999,9999,9999,777478200
21,7,22,Ticks_Phase_8,59,9999,9999,9999,778279000
21,7,22,Ticks_Phase_8,60,9999,9999,9999,779078716
21,7,22,Ticks_Phase_8,61,9999,9999,9999,779878520
21,7,22,Ticks_Phase_8,62,9999,9999,9999,780678244
21,7,22,Ticks_Phase_8,63,9999,9999,9999,781479036
21,7,22,Ticks_Phase_8,64,9999,9999,9999,782318668
21,7,22,Ticks_Phase_8,65,9999,9999,9999,783118400
21,7,22,Ticks_Phase_8,66,9999,9999,9999,783918200
21,7,22,Ticks_Phase_8,67,9999,9999,9999,784718908
21,7,22,Ticks_Phase_8,68,9999,9999,9999,785518708
21,7,22,Ticks_Phase_8,69,9999,9999,9999,786318436
21,7,22,Ticks_Phase_8,70,9999,9999,9999,787118160
21,7,22,Ticks_Phase_8,71,9999,9999,9999,787918952
21,7,22,Ticks_Phase_8,72,9999,9999,9999,788718708
21,7,22,Ticks_Phase_8,73,9999,9999,9999,789518428
21,7,22,Ticks_Phase_8,74,9999,9999,9999,790318152
21,7,22,Ticks_Phase_8,75,9999,9999,9999,791118952
21,7,22,Ticks_Phase_8,76,9999,9999,9999,791918668
21,7,22,Ticks_Phase_8,77,9999,9999,9999,792718396
21,7,22,Ticks_Phase_8,78,9999,9999,9999,793518196
21,7,22,Ticks_Phase_8,79,9999,9999,9999,794318912
21,7,22,Ticks_Phase_8,80,9999,9999,9999,795118660
21,7,22,Ticks_Phase_8,81,9999,9999,9999,795878480
21,7,22,Ticks_Phase_8,82,9999,9999,9999,796678232
21,7,22,Ticks_Phase_8,83,9999,9999,9999,797479024
21,7,22,Ticks_Phase_8,84,9999,9999,9999,798278748
21,7,22,Ticks_Phase_8,85,9999,9999,9999,799078472
21,7,22,Ticks_Phase_8,86,9999,9999,9999,799878200
21,7,22,Ticks_Phase_8,87,9999,9999,9999,800678992
21,7,22,Ticks_Phase_8,88,9999,9999,9999,801478716
21,7,22,Ticks_Phase_8,89,9999,9999,9999,802278520
21,7,22,Ticks_Phase_8,90,9999,9999,9999,803078200
21,7,22,Ticks_Phase_8,91,9999,9999,9999,803878992
21,7,22,Ticks_Phase_8,92,9999,9999,9999,804678784
21,7,22,Ticks_Phase_8,93,9999,9999,9999,805478520
21,7,22,Ticks_Phase_8,94,9999,9999,9999,806278244
21,7,22,Ticks_Phase_8,95,9999,9999,9999,807079036
21,7,22,Ticks_Phase_8,96,9999,9999,9999,807878760
21,7,22,Ticks_Phase_8,97,9999,9999,9999,808598648
21,7,22,Ticks_Phase_8,98,9999,9999,9999,809398376
21,7,22,Ticks_Phase_8,99,9999,9999,9999,810198088
21,7,22,Ticks_Phase_8,100,9999,9999,9999,810998908
21,7,22,Ticks_Phase_8,101,9999,9999,9999,811798632
21,7,22,Ticks_Phase_8,102,9999,9999,9999,812598360
21,7,22,Ticks_Phase_8,103,9999,9999,9999,813398084
21,7,22,Ticks_Phase_8,104,9999,9999,9999,814198876
21,7,22,Ticks_Phase_8,105,9999,9999,9999,814998600
21,7,22,Ticks_Phase_8,106,9999,9999,9999,815798328
21,7,22,Ticks_Phase_8,107,9999,9999,9999,816598128
21,7,22,Ticks_Phase_8,108,9999,9999,9999,817398868
21,7,22,Ticks_Phase_8,109,9999,9999,9999,818198592
21,7,22,Ticks_Phase_8,110,9999,9999,9999,818998392
21,7,22,Ticks_Phase_8,111,9999,9999,9999,819798120
21,7,22,Ticks_Phase_8,112,9999,9999,9999,820598912
21,7,22,Ticks_Phase_8,113,9999,9999,9999,821398636
21,7,22,Ticks_Phase_8,114,9999,9999,9999,822278208
21,7,22,Ticks_Phase_8,115,9999,9999,9999,823079016
21,7,22,Ticks_Phase_8,116,9999,9999,9999,823878744
21,7,22,Ticks_Phase_8,117,9999,9999,9999,824678476
21,7,22,Ticks_Phase_8,118,9999,9999,9999,825478268
21,7,22,Ticks_Phase_8,119,9999,9999,9999,826278984
21,7,22,Ticks_Phase_8,120,9999,9999,9999,827078708
21,7,22,Ticks_Phase_8,121,9999,9999,9999,827878520
21,7,22,Ticks_Phase_8,122,9999,9999,9999,828678268
21,7,22,Ticks_Phase_8,123,9999,9999,9999,829478984
21,7,22,Ticks_Phase_8,124,9999,9999,9999,830278708
21,7,22,Ticks_Phase_8,125,9999,9999,9999,831078512
21,7,22,Ticks_Phase_8,126,9999,9999,9999,831878236
21,7,22,Ticks_Phase_8,127,9999,9999,9999,832679028
21,7,22,Ticks_Phase_8,128,9999,9999,9999,833478820
21,7,22,Ticks_Phase_8,129,9999,9999,9999,834278468
21,7,22,Ticks_Phase_8,130,9999,9999,9999,835078228
21,7,22,Ticks_Phase_8,131,9999,9999,9999,836038744
21,7,22,Ticks_Phase_8,132,9999,9999,9999,836838496
21,7,22,Ticks_Phase_8,133,9999,9999,9999,837638248
21,7,22,Ticks_Phase_8,134,9999,9999,9999,838439040
21,7,22,Ticks_Phase_8,135,9999,9999,9999,839238764
21,7,22,Ticks_Phase_8,136,9999,9999,9999,840038492
21,7,22,Ticks_Phase_8,137,9999,9999,9999,840838208
21,7,22,Ticks_Phase_8,138,9999,9999,9999,841638984
21,7,22,Ticks_Phase_8,139,9999,9999,9999,842438728
21,7,22,Ticks_Phase_8,140,9999,9999,9999,843238476
21,7,22,Ticks_Phase_8,141,9999,9999,9999,844038200
21,7,22,Ticks_Phase_8,142,9999,9999,9999,844838996
21,7,22,Ticks_Phase_8,143,9999,9999,9999,845638728
21,7,22,Ticks_Phase_8,144,9999,9999,9999,846438520
21,7,22,Ticks_Phase_8,145,9999,9999,9999,847238248
21,7,22,Ticks_Phase_8,146,9999,9999,9999,848038972
21,7,22,Ticks_Phase_8,147,9999,9999,9999,848838764
21,7,22,Ticks_Phase_8,148,9999,9999,9999,849638516
21,7,22,Ticks_Phase_8,149,9999,9999,9999,850438240
21,7,22,Ticks_Phase_8,150,9999,9999,9999,851078196
21,7,22,Ticks_Phase_8,151,9999,9999,9999,851878984
21,7,22,Ticks_Phase_8,152,9999,9999,9999,852678768
21,7,22,Ticks_Phase_8,153,9999,9999,9999,853478464
21,7,22,Ticks_Phase_8,154,9999,9999,9999,854278268
21,7,22,Ticks_Phase_8,155,9999,9999,9999,855078984
21,7,22,Ticks_Phase_8,156,9999,9999,9999,855878776
21,7,22,Ticks_Phase_8,157,9999,9999,9999,856678500
21,7,22,Ticks_Phase_8,158,9999,9999,9999,857478224
21,7,22,Ticks_Phase_8,159,9999,9999,9999,858279020
21,7,22,Ticks_Phase_8,160,9999,9999,9999,859078744
21,7,22,Ticks_Phase_8,161,9999,9999,9999,859878504
21,7,22,Ticks_Phase_8,162,9999,9999,9999,860678228
21,7,22,Ticks_Phase_8,163,9999,9999,9999,861479024
21,7,22,Ticks_Phase_8,164,9999,9999,9999,862278740
21,7,22,Ticks_Phase_8,165,9999,9999,9999,863078464
21,7,22,Ticks_Phase_8,166,9999,9999,9999,863878264
21,7,22,Ticks_Phase_8,167,9999,9999,9999,864679028
21,7,22,Ticks_Phase_8,168,9999,9999,9999,865478716
21,7,22,Ticks_Phase_8,169,9999,9999,9999,866278468
21,8,23,Ticks_Phase_5,0,5,42,127,883810568
21,8,23,Ticks_Phase_5,1,5,42,127,884311340
21,8,23,Ticks_Phase_5,2,1,48,53,884809968
21,8,23,Ticks_Phase_5,3,5,42,127,884811720
21,8,23,Ticks_Phase_5,4,5,42,127,885310728
21,8,23,Ticks_Phase_5,5,1,48,58,885313756
21,8,23,Ticks_Phase_5,6,5,42,127,885810484
21,8,23,Ticks_Phase_5,7,1,48,55,885826340
21,8,23,Ticks_Phase_5,8,5,42,127,886311312
21,8,23,Ticks_Phase_5,9,1,48,58,886318624
21,8,23,Ticks_Phase_5,10,5,42,127,886811448
21,8,23,Ticks_Phase_5,11,1,48,53,886825700
21,8,23,Ticks_Phase_5,12,1,48,54,887297340
21,8,23,Ticks_Phase_5,13,5,42,127,887310664
21,8,23,Ticks_Phase_5,14,5,42,127,887810432
21,8,23,Ticks_Phase_5,15,1,48,58,887814064
21,8,23,Ticks_Phase_5,16,5,42,127,888311332
21,8,23,Ticks_Phase_5,17,1,48,68,888332008
21,8,23,Ticks_Phase_5,18,1,48,59,888786576
21,8,23,Ticks_Phase_5,19,5,42,127,888811004
21,8,23,Ticks_Phase_5,20,1,48,50,889277392
21,8,23,Ticks_Phase_5,21,5,42,127,889310508
21,8,23,Ticks_Phase_5,22,1,48,56,889766376
21,8,23,Ticks_Phase_5,23,5,42,127,889811408
21,8,23,Ticks_Phase_5,24,1,48,68,890279364
21,8,23,Ticks_Phase_5,25,5,42,127,890311092
21,8,23,Ticks_Phase_5,26,1,48,57,890798604
21,8,23,Ticks_Phase_5,27,5,42,127,890810848
21,8,23,Ticks_Phase_5,28,1,48,55,891285284
21,8,23,Ticks_Phase_5,29,5,42,127,891310528
21,8,23,Ticks_Phase_5,30,1,48,47,891768764
21,8,23,Ticks_Phase_5,31,5,42,127,891811280
21,8,23,Ticks_Phase_5,32,1,48,55,892289168
21,8,23,Ticks_Phase_5,33,5,42,127,892310884
21,8,23,Ticks_Phase_5,34,1,48,56,892767372
21,8,23,Ticks_Phase_5,35,5,42,127,892810792
21,8,23,Ticks_Phase_5,36,5,42,127,893311324
21,8,23,Ticks_Phase_5,37,1,48,49,893338184
21,8,23,Ticks_Phase_5,38,1,48,56,893783620
21,8,23,Ticks_Phase_5,39,5,42,127,893811148
21,8,23,Ticks_Phase_5,40,1,48,57,894252436
21,8,23,Ticks_Phase_5,41,5,42,127,894310908
21,8,23,Ticks_Phase_5,42,1,48,54,894788096
21,8,23,Ticks_Phase_5,43,5,42,127,894810588
21,8,23,Ticks_Phase_5,44,1,48,53,895278468
21,8,23,Ticks_Phase_5,45,5,42,127,895311112
21,8,23,Ticks_Phase_5,46,1,48,61,895792736
21,8,23,Ticks_Phase_5,47,5,42,127,895811020
21,8,23,Ticks_Phase_5,48,1,48,62,896288908
21,8,23,Ticks_Phase_5,49,5,42,127,896311004
21,8,23,Ticks_Phase_5,50,1,48,53,896787588
21,8,23,Ticks_Phase_5,51,5,42,127,896811452
21,8,23,Ticks_Phase_5,52,1,48,69,897263352
21,8,23,Ticks_Phase_5,53,5,42,127,897311056
21,8,23,Ticks_Phase_5,54,1,48,54,897811048
21,8,23,Ticks_Phase_5,55,5,42,127,897812648
21,8,23,Ticks_Phase_5,56,1,48,56,898307408
21,8,23,Ticks_Phase_5,57,5,42,127,898310648
21,8,23,Ticks_Phase_5,58,1,48,53,898780716
21,8,23,Ticks_Phase_5,59,5,42,127,898801008
21,8,23,Ticks_Phase_5,60,1,48,49,899292696
21,8,23,Ticks_Phase_5,61,5,42,127,899300692
21,8,23,Ticks_Phase_5,62,5,42,127,899800660
21,8,23,Ticks_Phase_5,63,1,48,58,899809428
21,8,23,Ticks_Phase_5,64,1,48,57,900294116
21,8,23,Ticks_Phase_5,65,5,42,127,900301248
21,8,23,Ticks_Phase_5,66,5,42,127,900800864
21,8,23,Ticks_Phase_5,67,1,48,55,900817256
21,8,23,Ticks_Phase_5,68,1,48,51,901281788
21,8,23,Ticks_Phase_5,69,5,42,127,901300612
21,8,23,Ticks_Phase_5,70,1,48,56,901759004
21,8,23,Ticks_Phase_5,71,5,42,127,901801592
21,8,23,Ticks_Phase_5,72,1,48,46,902251508
21,8,23,Ticks_Phase_5,73,5,42,127,902301044
21,8,23,Ticks_Phase_5,74,1,48,59,902762268
21,8,23,Ticks_Phase_5,75,5,42,127,902800652
21,8,23,Ticks_Phase_5,76,1,48,55,903271884
21,8,23,Ticks_Phase_5,77,5,42,127,903300484
21,8,23,Ticks_Phase_5,78,1,48,57,903782492
21,8,23,Ticks_Phase_5,79,5,42,127,903801384
21,8,23,Ticks_Phase_5,80,1,48,56,904284384
21,8,23,Ticks_Phase_5,81,5,42,127,904300836
21,8,23,Ticks_Phase_5,82,1,48,47,904781016
21,8,23,Ticks_Phase_5,83,5,42,127,904800596
21,8,23,Ticks_Phase_5,84,5,42,127,905301428
21,8,23,Ticks_Phase_5,85,1,48,50,905303252
21,8,23,Ticks_Phase_5,86,5,42,127,905801112
21,8,23,Ticks_Phase_5,87,1,48,54,905819116
21,8,23,Ticks_Phase_5,88,1,48,52,906261260
21,8,23,Ticks_Phase_5,89,5,42,127,906300860
21,8,23,Ticks_Phase_5,90,1,48,44,906773392
21,8,23,Ticks_Phase_5,91,5,42,127,906800544
21,8,23,Ticks_Phase_5,92,1,48,50,907287892
21,8,23,Ticks_Phase_5,93,5,42,127,907301292
21,8,23,Ticks_Phase_5,94,1,48,55,907783680
21,8,23,Ticks_Phase_5,95,5,42,127,907811364
21,8,23,Ticks_Phase_5,96,1,48,54,908263956
21,8,23,Ticks_Phase_5,97,5,42,127,908310820
21,8,23,Ticks_Phase_5,98,1,48,47,908778072
21,8,23,Ticks_Phase_5,99,5,42,127,908810500
21,8,23,Ticks_Phase_5,100,1,48,47,909297464
21,8,23,Ticks_Phase_5,101,5,42,127,909311248
21,8,23,Ticks_Phase_5,102,1,48,55,909729976
21,8,23,Ticks_Phase_5,103,5,42,127,909811232
21,8,23,Ticks_Phase_5,104,1,48,45,910297112
21,8,23,Ticks_Phase_5,105,5,42,127,910311064
21,8,23,Ticks_Phase_5,106,5,42,127,910810580
21,8,23,Ticks_Phase_5,107,1,48,45,910817424
21,8,23,Ticks_Phase_5,108,1,48,56,911281176
21,8,23,Ticks_Phase_5,109,5,42,127,911311144
21,8,23,Ticks_Phase_5,110,1,48,50,911770772
21,8,23,Ticks_Phase_5,111,5,42,127,911811132
21,8,23,Ticks_Phase_5,112,1,48,51,912292148
21,8,23,Ticks_Phase_5,113,5,42,127,912310736
21,8,23,Ticks_Phase_5,114,1,48,45,912783040
21,8,23,Ticks_Phase_5,115,5,42,127,912811332
21,8,23,Ticks_Phase_5,116,1,48,38,913286000
21,8,23,Ticks_Phase_5,117,5,42,127,913311016
21,8,23,Ticks_Phase_5,118,1,48,54,913773232
21,8,23,Ticks_Phase_5,119,5,42,127,913810924
21,8,23,Ticks_Phase_5,120,5,42,127,914310616
21,8,23,Ticks_Phase_5,121,1,48,53,914316772
21,8,23,Ticks_Phase_5,122,5,42,127,914811212
21,8,23,Ticks_Phase_5,123,1,48,43,914825084
21,8,23,Ticks_Phase_5,124,1,48,59,915291072
21,8,23,Ticks_Phase_5,125,5,42,127,915311040
21,8,23,Ticks_Phase_5,126,1,48,46,915781360
21,8,23,Ticks_Phase_5,127,5,42,127,915831120
21,8,23,Ticks_Phase_5,128,1,48,37,916313660
21,8,23,Ticks_Phase_5,129,5,42,127,916330952
21,8,23,Ticks_Phase_5,130,1,48,54,916830108
21,8,23,Ticks_Phase_5,131,5,42,127,916831856
21,8,23,Ticks_Phase_5,132,5,42,127,917331240
21,8,23,Ticks_Phase_5,133,1,48,53,917349092
21,8,23,Ticks_Phase_5,134,5,42,127,917831072
21,8,23,Ticks_Phase_5,135,1,48,45,917860692
21,8,23,Ticks_Phase_5,136,1,48,50,918324756
21,8,23,Ticks_Phase_5,137,5,42,127,918330824
21,8,23,Ticks_Phase_5,138,1,48,49,918793956
21,8,23,Ticks_Phase_5,139,5,42,127,918830656
21,8,23,Ticks_Phase_5,140,1,48,51,919318632
21,8,23,Ticks_Phase_5,141,5,42,127,919331100
21,8,23,Ticks_Phase_5,142,5,42,127,919830868
21,8,23,Ticks_Phase_5,143,1,48,38,919854060
21,8,23,Ticks_Phase_5,144,5,42,127,920330852
21,8,23,Ticks_Phase_5,145,1,48,45,920335708
21,8,23,Ticks_Phase_5,146,1,48,46,920780896
21,8,23,Ticks_Phase_5,147,5,42,127,920831668
21,8,23,Ticks_Phase_5,148,5,42,127,921330976
21,8,23,Ticks_Phase_5,149,1,48,45,921340728
21,8,23,Ticks_Phase_5,150,1,48,47,921822192
21,8,23,Ticks_Phase_5,151,5,42,127,921830804
21,8,23,Ticks_Phase_5,152,1,48,42,922315148
21,8,23,Ticks_Phase_5,153,5,42,127,922330612
21,8,23,Ticks_Phase_5,154,1,48,44,922803220
21,8,23,Ticks_Phase_5,155,5,42,127,922831284
21,8,23,Ticks_Phase_5,156,1,48,46,923316876
21,8,23,Ticks_Phase_5,157,5,42,127,923330892
21,8,23,Ticks_Phase_5,158,1,48,51,923823288
21,8,23,Ticks_Phase_5,159,5,42,127,923830648
21,8,23,Ticks_Phase_5,160,5,42,127,924310856
21,8,23,Ticks_Phase_5,161,1,48,41,924318156
21,8,23,Ticks_Phase_5,162,1,48,45,924796364
21,8,23,Ticks_Phase_5,163,5,42,127,924810608
21,8,23,Ticks_Phase_5,164,1,48,50,925304600
21,8,23,Ticks_Phase_5,165,5,42,127,925311432
21,8,23,Ticks_Phase_5,166,5,42,127,925811044
21,8,23,Ticks_Phase_5,167,1,48,51,925812712
21,8,23,Ticks_Phase_5,168,5,42,127,926310804
21,8,23,Ticks_Phase_5,169,1,48,44,926330868
21,8,23,Ticks_Phase_5,170,1,48,57,926791124
21,8,23,Ticks_Phase_5,171,5,42,127,926810400
21,8,23,Ticks_Phase_5,172,5,42,127,927311308
21,8,23,Ticks_Phase_5,173,1,48,55,927336796
21,8,23,Ticks_Phase_5,174,1,48,51,927803700
21,8,23,Ticks_Phase_5,175,5,42,127,927810832
21,8,23,Ticks_Phase_5,176,1,48,42,928277092
21,8,23,Ticks_Phase_5,177,5,42,127,928310588
21,8,23,Ticks_Phase_5,178,1,48,51,928764400
21,8,23,Ticks_Phase_5,179,5,42,127,928811336
21,8,23,Ticks_Phase_5,180,1,48,41,929283412
21,8,23,Ticks_Phase_5,181,5,42,127,929311396
21,8,23,Ticks_Phase_5,182,1,48,49,929775600
21,8,23,Ticks_Phase_5,183,5,42,127,929810852
21,8,23,Ticks_Phase_5,184,1,48,48,930264944
21,8,23,Ticks_Phase_5,185,5,42,127,930310460
21,8,23,Ticks_Phase_5,186,1,48,41,930756600
21,8,23,Ticks_Phase_5,187,5,42,127,930811208
21,8,23,Ticks_Phase_5,188,1,48,51,931245208
21,8,23,Ticks_Phase_5,189,5,42,127,931310892
21,8,23,Ticks_Phase_5,190,1,48,52,931791724
21,8,23,Ticks_Phase_5,191,5,42,127,931810724
21,8,23,Ticks_Phase_5,192,5,42,127,932261336
21,8,23,Ticks_Phase_5,193,1,48,44,932302112
21,8,23,Ticks_Phase_5,194,1,48,52,932757464
21,8,23,Ticks_Phase_5,195,5,42,127,932761240
21,8,23,Ticks_Phase_5,196,1,48,50,933233540
21,8,23,Ticks_Phase_5,197,5,42,127,933260620
21,8,23,Ticks_Phase_5,198,1,48,51,933749964
21,8,23,Ticks_Phase_5,199,5,42,127,933761292
21,8,23,Ticks_Phase_5,200,1,48,55,934225116
21,8,23,Ticks_Phase_5,201,5,42,127,934261052
21,8,23,Ticks_Phase_5,202,1,48,42,934714636
21,8,23,Ticks_Phase_5,203,5,42,127,934760960
21,8,23,Ticks_Phase_5,204,1,48,54,935190028
21,8,23,Ticks_Phase_5,205,5,42,127,935260492
21,8,23,Ticks_Phase_5,206,1,48,42,935703608
21,8,23,Ticks_Phase_5,207,5,42,127,935761240
21,8,23,Ticks_Phase_5,208,1,48,40,936223152
21,8,23,Ticks_Phase_5,209,5,42,127,936261148
21,8,23,Ticks_Phase_5,210,1,48,44,936707012
21,8,23,Ticks_Phase_5,211,5,42,127,936760680
21,8,23,Ticks_Phase_5,212,1,48,49,937228784
21,8,23,Ticks_Phase_5,213,5,42,127,937261428
21,8,23,Ticks_Phase_5,214,1,48,47,937684656
21,8,23,Ticks_Phase_5,215,5,42,127,937771272
21,8,23,Ticks_Phase_5,216,1,48,44,938263972
21,8,23,Ticks_Phase_5,217,5,42,127,938271180
21,8,23,Ticks_Phase_5,218,1,48,56,938761132
21,8,23,Ticks_Phase_5,219,5,42,127,938771016
21,8,23,Ticks_Phase_5,220,1,48,49,939239272
21,8,23,Ticks_Phase_5,221,5,42,127,939270468
21,8,23,Ticks_Phase_5,222,1,48,52,939709820
21,8,23,Ticks_Phase_5,223,5,42,127,939771144
21,8,23,Ticks_Phase_5,224,1,48,42,940201856
21,8,23,Ticks_Phase_5,225,5,42,127,940270900
21,8,23,Ticks_Phase_5,226,1,48,38,940725984
21,8,23,Ticks_Phase_5,227,5,42,127,940820852
21,8,23,Ticks_Phase_5,228,1,48,46,941209172
21,8,23,Ticks_Phase_5,229,5,42,127,941320820
21,8,23,Ticks_Phase_5,230,1,48,42,941782804
21,8,23,Ticks_Phase_5,231,5,42,127,941821208
21,8,23,Ticks_Phase_5,232,5,42,127,942320900
21,8,23,Ticks_Phase_5,233,1,48,39,942346460
21,8,23,Ticks_Phase_5,234,5,42,127,942820884
21,8,23,Ticks_Phase_5,235,1,48,35,942843620
21,8,23,Ticks_Phase_5,236,5,42,127,943320388
21,8,23,Ticks_Phase_5,237,1,48,51,943354756
21,8,23,Ticks_Phase_5,238,1,48,42,943812468
21,8,23,Ticks_Phase_5,239,5,42,127,943821204
21,8,23,Ticks_Phase_5,240,5,42,127,944320816
21,8,23,Ticks_Phase_5,241,1,48,40,944330188
21,8,23,Ticks_Phase_5,242,5,42,127,944820728
21,8,23,Ticks_Phase_5,243,1,48,42,944828176
21,8,23,Ticks_Phase_5,244,5,42,127,945321248
21,8,23,Ticks_Phase_5,245,1,48,43,945326792
21,8,23,Ticks_Phase_5,246,5,42,127,945821004
21,8,23,Ticks_Phase_5,247,1,48,39,945834724
21,8,23,Ticks_Phase_5,248,1,48,43,946285656
21,8,23,Ticks_Phase_5,249,5,42,127,946320676
21,8,23,Ticks_Phase_5,250,1,48,49,946792368
21,8,23,Ticks_Phase_5,251,5,42,127,946820512
21,8,23,Ticks_Phase_5,252,1,48,52,947291744
21,8,23,Ticks_Phase_5,253,5,42,127,947321108
21,8,23,Ticks_Phase_5,254,1,48,52,947767736
21,8,23,Ticks_Phase_5,255,5,42,127,947820864
21,8,23,Ticks_Phase_5,256,1,48,52,948307524
21,8,23,Ticks_Phase_5,257,5,42,127,948320696
21,8,23,Ticks_Phase_5,258,1,48,60,948796516
21,8,23,Ticks_Phase_5,259,5,42,127,948821372
21,8,23,Ticks_Phase_5,260,1,48,39,949329512
21,8,23,Ticks_Phase_5,261,5,42,127,949421520
21,8,23,Ticks_Phase_5,262,1,48,59,949853940
21,8,23,Ticks_Phase_5,263,5,42,127,949931512
21,8,23,Ticks_Phase_5,264,1,48,39,950423296
21,8,23,Ticks_Phase_5,265,5,42,127,950431044
21,8,23,Ticks_Phase_5,266,1,48,43,950916712
21,8,23,Ticks_Phase_5,267,5,42,127,950930876
21,8,23,Ticks_Phase_5,268,1,48,33,951406920
21,8,23,Ticks_Phase_5,269,5,42,127,951430408
21,8,23,Ticks_Phase_5,270,1,48,41,951868872
21,8,23,Ticks_Phase_5,271,5,42,127,951931232
21,8,23,Ticks_Phase_5,272,1,48,55,952359456
21,8,23,Ticks_Phase_5,273,5,42,127,952431064
21,8,23,Ticks_Phase_5,274,1,48,48,952851340
21,8,23,Ticks_Phase_5,275,5,42,127,952930668
21,8,23,Ticks_Phase_5,276,1,48,55,953413972
21,8,23,Ticks_Phase_5,277,5,42,127,953431344
21,8,23,Ticks_Phase_5,278,1,48,56,953911132
21,8,23,Ticks_Phase_5,279,5,42,127,953931176
21,8,23,Ticks_Phase_5,280,1,48,45,954406528
21,8,23,Ticks_Phase_5,281,5,42,127,954430860
21,8,23,Ticks_Phase_5,282,1,48,56,954890332
21,8,23,Ticks_Phase_5,283,5,42,127,954930464
21,8,23,Ticks_Phase_5,284,1,48,51,955407040
21,8,23,Ticks_Phase_5,285,5,42,127,955431288
21,8,23,Ticks_Phase_5,286,1,48,50,955927496
21,8,23,Ticks_Phase_5,287,5,42,127,955931196
21,8,23,Ticks_Phase_5,288,1,48,48,956385236
21,8,23,Ticks_Phase_5,289,5,42,127,956430804
21,8,23,Ticks_Phase_5,290,1,48,51,956900892
21,8,23,Ticks_Phase_5,291,5,42,127,956930332
21,8,23,Ticks_Phase_5,292,1,48,54,957409288
21,8,23,Ticks_Phase_5,293,5,42,127,957431232
21,8,23,Ticks_Phase_5,294,1,48,50,957923168
21,8,23,Ticks_Phase_5,295,5,42,127,957930916
21,8,23,Ticks_Phase_5,296,1,48,53,958397840
21,8,23,Ticks_Phase_5,297,5,42,127,958430600
21,8,23,Ticks_Phase_5,298,5,42,127,958831020
21,8,23,Ticks_Phase_5,299,1,48,46,958885760
21,8,23,Ticks_Phase_5,300,5,42,127,959330700
21,8,23,Ticks_Phase_5,301,1,48,39,959367644
21,8,23,Ticks_Phase_5,302,1,48,51,959806196
21,8,23,Ticks_Phase_5,303,5,42,127,959831516
21,8,23,Ticks_Phase_5,304,1,48,52,960283880
21,8,23,Ticks_Phase_5,305,5,42,127,960331120
21,8,23,Ticks_Phase_5,306,1,48,49,960798764
21,8,23,Ticks_Phase_5,307,5,42,127,960830956
21,8,23,Ticks_Phase_5,308,1,48,49,961320376
21,8,23,Ticks_Phase_5,309,5,42,127,961330636
21,8,23,Ticks_Phase_5,310,1,48,44,961790036
21,8,23,Ticks_Phase_5,311,5,42,127,961831236
21,8,23,Ticks_Phase_5,312,1,48,52,962260656
21,8,23,Ticks_Phase_5,313,5,42,127,962331068
21,8,23,Ticks_Phase_5,314,1,48,48,962769808
21,8,23,Ticks_Phase_5,315,5,42,127,962830900
21,8,23,Ticks_Phase_5,316,1,48,44,963270332
21,8,23,Ticks_Phase_5,317,5,42,127,963330432
21,8,23,Ticks_Phase_5,318,1,48,38,963787348
21,8,23,Ticks_Phase_5,319,5,42,127,963831256
21,8,23,Ticks_Phase_5,320,1,48,49,964287028
21,8,23,Ticks_Phase_5,321,5,42,127,964330784
21,8,23,Ticks_Phase_5,322,1,48,54,964817496
21,8,23,Ticks_Phase_5,323,5,42,127,964830692
21,8,23,Ticks_Phase_5,324,1,48,54,965295480
21,8,23,Ticks_Phase_5,325,5,42,127,965331340
21,8,23,Ticks_Phase_5,326,1,48,38,965809384
21,8,23,Ticks_Phase_5,327,5,42,127,965831024
21,8,23,Ticks_Phase_5,328,1,48,50,966293316
21,8,23,Ticks_Phase_5,329,5,42,127,966330856
21,8,23,Ticks_Phase_5,330,1,48,55,966829700
21,8,23,Ticks_Phase_5,331,5,42,127,966831528
21,8,23,Ticks_Phase_5,332,1,48,43,967319500
21,8,23,Ticks_Phase_5,333,5,42,127,967331136
21,8,23,Ticks_Phase_5,334,1,48,59,967780376
21,8,23,Ticks_Phase_5,335,5,42,127,967830896
21,8,23,Ticks_Phase_5,336,1,48,47,968308460
21,8,23,Ticks_Phase_5,337,5,42,127,968330576
21,8,23,Ticks_Phase_5,0,9999,9999,9999,883808316
21,8,23,Ticks_Phase_5,1,9999,9999,9999,884309088
21,8,23,Ticks_Phase_5,2,9999,9999,9999,884808792
21,8,23,Ticks_Phase_5,3,9999,9999,9999,885308476
21,8,23,Ticks_Phase_5,4,9999,9999,9999,885808232
21,8,23,Ticks_Phase_5,5,9999,9999,9999,886308980
21,8,23,Ticks_Phase_5,6,9999,9999,9999,886808660
21,8,23,Ticks_Phase_5,7,9999,9999,9999,887308412
21,8,23,Ticks_Phase_5,8,9999,9999,9999,887808100
21,8,23,Ticks_Phase_5,9,9999,9999,9999,888308848
21,8,23,Ticks_Phase_5,10,9999,9999,9999,888808524
21,8,23,Ticks_Phase_5,11,9999,9999,9999,889308256
21,8,23,Ticks_Phase_5,12,9999,9999,9999,889809004
21,8,23,Ticks_Phase_5,13,9999,9999,9999,890308688
21,8,23,Ticks_Phase_5,14,9999,9999,9999,890808444
21,8,23,Ticks_Phase_5,15,9999,9999,9999,891308124
21,8,23,Ticks_Phase_5,16,9999,9999,9999,891808876
21,8,23,Ticks_Phase_5,17,9999,9999,9999,892308556
21,8,23,Ticks_Phase_5,18,9999,9999,9999,892808312
21,8,23,Ticks_Phase_5,19,9999,9999,9999,893308996
21,8,23,Ticks_Phase_5,20,9999,9999,9999,893808744
21,8,23,Ticks_Phase_5,21,9999,9999,9999,894308428
21,8,23,Ticks_Phase_5,22,9999,9999,9999,894808184
21,8,23,Ticks_Phase_5,23,9999,9999,9999,895308860
21,8,23,Ticks_Phase_5,24,9999,9999,9999,895808616
21,8,23,Ticks_Phase_5,25,9999,9999,9999,896308296
21,8,23,Ticks_Phase_5,26,9999,9999,9999,896809048
21,8,23,Ticks_Phase_5,27,9999,9999,9999,897308728
21,8,23,Ticks_Phase_5,28,9999,9999,9999,897808492
21,8,23,Ticks_Phase_5,29,9999,9999,9999,898308168
21,8,23,Ticks_Phase_5,30,9999,9999,9999,898798680
21,8,23,Ticks_Phase_5,31,9999,9999,9999,899298364
21,8,23,Ticks_Phase_5,32,9999,9999,9999,899798104
21,8,23,Ticks_Phase_5,33,9999,9999,9999,900298844
21,8,23,Ticks_Phase_5,34,9999,9999,9999,900798532
21,8,23,Ticks_Phase_5,35,9999,9999,9999,901298284
21,8,23,Ticks_Phase_5,36,9999,9999,9999,901799032
21,8,23,Ticks_Phase_5,37,9999,9999,9999,902298716
21,8,23,Ticks_Phase_5,38,9999,9999,9999,902798396
21,8,23,Ticks_Phase_5,39,9999,9999,9999,903298156
21,8,23,Ticks_Phase_5,40,9999,9999,9999,903798904
21,8,23,Ticks_Phase_5,41,9999,9999,9999,904298584
21,8,23,Ticks_Phase_5,42,9999,9999,9999,904798268
21,8,23,Ticks_Phase_5,43,9999,9999,9999,905299024
21,8,23,Ticks_Phase_5,44,9999,9999,9999,905798784
21,8,23,Ticks_Phase_5,45,9999,9999,9999,906298456
21,8,23,Ticks_Phase_5,46,9999,9999,9999,906798136
21,8,23,Ticks_Phase_5,47,9999,9999,9999,907298888
21,8,23,Ticks_Phase_5,48,9999,9999,9999,907808884
21,8,23,Ticks_Phase_5,49,9999,9999,9999,908308568
21,8,23,Ticks_Phase_5,50,9999,9999,9999,908808248
21,8,23,Ticks_Phase_5,51,9999,9999,9999,909308996
21,8,23,Ticks_Phase_5,52,9999,9999,9999,909808752
21,8,23,Ticks_Phase_5,53,9999,9999,9999,910308436
21,8,23,Ticks_Phase_5,54,9999,9999,9999,910808172
21,8,23,Ticks_Phase_5,55,9999,9999,9999,911308892
21,8,23,Ticks_Phase_5,56,9999,9999,9999,911808572
21,8,23,Ticks_Phase_5,57,9999,9999,9999,912308332
21,8,23,Ticks_Phase_5,58,9999,9999,9999,912809080
21,8,23,Ticks_Phase_5,59,9999,9999,9999,913308764
21,8,23,Ticks_Phase_5,60,9999,9999,9999,913808444
21,8,23,Ticks_Phase_5,61,9999,9999,9999,914308212
21,8,23,Ticks_Phase_5,62,9999,9999,9999,914808960
21,8,23,Ticks_Phase_5,63,9999,9999,9999,915308632
21,8,23,Ticks_Phase_5,64,9999,9999,9999,915828792
21,8,23,Ticks_Phase_5,65,9999,9999,9999,916328548
21,8,23,Ticks_Phase_5,66,9999,9999,9999,916828240
21,8,23,Ticks_Phase_5,67,9999,9999,9999,917328988
21,8,23,Ticks_Phase_5,68,9999,9999,9999,917828668
21,8,23,Ticks_Phase_5,69,9999,9999,9999,918328420
21,8,23,Ticks_Phase_5,70,9999,9999,9999,918828100
21,8,23,Ticks_Phase_5,71,9999,9999,9999,919328848
21,8,23,Ticks_Phase_5,72,9999,9999,9999,919828540
21,8,23,Ticks_Phase_5,73,9999,9999,9999,920328296
21,8,23,Ticks_Phase_5,74,9999,9999,9999,920829036
21,8,23,Ticks_Phase_5,75,9999,9999,9999,921328724
21,8,23,Ticks_Phase_5,76,9999,9999,9999,921828476
21,8,23,Ticks_Phase_5,77,9999,9999,9999,922328132
21,8,23,Ticks_Phase_5,78,9999,9999,9999,922828880
21,8,23,Ticks_Phase_5,79,9999,9999,9999,923328636
21,8,23,Ticks_Phase_5,80,9999,9999,9999,923828320
21,8,23,Ticks_Phase_5,81,9999,9999,9999,924308604
21,8,23,Ticks_Phase_5,82,9999,9999,9999,924808276
21,8,23,Ticks_Phase_5,83,9999,9999,9999,925309028
21,8,23,Ticks_Phase_5,84,9999,9999,9999,925808716
21,8,23,Ticks_Phase_5,85,9999,9999,9999,926308476
21,8,23,Ticks_Phase_5,86,9999,9999,9999,926808148
21,8,23,Ticks_Phase_5,87,9999,9999,9999,927308904
21,8,23,Ticks_Phase_5,88,9999,9999,9999,927808580
21,8,23,Ticks_Phase_5,89,9999,9999,9999,928308336
21,8,23,Ticks_Phase_5,90,9999,9999,9999,928809084
21,8,23,Ticks_Phase_5,91,9999,9999,9999,929308764
21,8,23,Ticks_Phase_5,92,9999,9999,9999,929808448
21,8,23,Ticks_Phase_5,93,9999,9999,9999,930308208
21,8,23,Ticks_Phase_5,94,9999,9999,9999,930808956
21,8,23,Ticks_Phase_5,95,9999,9999,9999,931308636
21,8,23,Ticks_Phase_5,96,9999,9999,9999,931808320
21,8,23,Ticks_Phase_5,97,9999,9999,9999,932258932
21,8,23,Ticks_Phase_5,98,9999,9999,9999,932758608
21,8,23,Ticks_Phase_5,99,9999,9999,9999,933258364
21,8,23,Ticks_Phase_5,100,9999,9999,9999,933759040
21,8,23,Ticks_Phase_5,101,9999,9999,9999,934258796
21,8,23,Ticks_Phase_5,102,9999,9999,9999,934758480
21,8,23,Ticks_Phase_5,103,9999,9999,9999,935258240
21,8,23,Ticks_Phase_5,104,9999,9999,9999,935758912
21,8,23,Ticks_Phase_5,105,9999,9999,9999,936258668
21,8,23,Ticks_Phase_5,106,9999,9999,9999,936758348
21,8,23,Ticks_Phase_5,107,9999,9999,9999,937259096
21,8,23,Ticks_Phase_5,108,9999,9999,9999,937769020
21,8,23,Ticks_Phase_5,109,9999,9999,9999,938268776
21,8,23,Ticks_Phase_5,110,9999,9999,9999,938768460
21,8,23,Ticks_Phase_5,111,9999,9999,9999,939268216
21,8,23,Ticks_Phase_5,112,9999,9999,9999,939768888
21,8,23,Ticks_Phase_5,113,9999,9999,9999,940268648
21,8,23,Ticks_Phase_5,114,9999,9999,9999,940818524
21,8,23,Ticks_Phase_5,115,9999,9999,9999,941318264
21,8,23,Ticks_Phase_5,116,9999,9999,9999,941818956
21,8,23,Ticks_Phase_5,117,9999,9999,9999,942318644
21,8,23,Ticks_Phase_5,118,9999,9999,9999,942818404
21,8,23,Ticks_Phase_5,119,9999,9999,9999,943318136
21,8,23,Ticks_Phase_5,120,9999,9999,9999,943818876
21,8,23,Ticks_Phase_5,121,9999,9999,9999,944318564
21,8,23,Ticks_Phase_5,122,9999,9999,9999,944818248
21,8,23,Ticks_Phase_5,123,9999,9999,9999,945318996
21,8,23,Ticks_Phase_5,124,9999,9999,9999,945818752
21,8,23,Ticks_Phase_5,125,9999,9999,9999,946318424
21,8,23,Ticks_Phase_5,126,9999,9999,9999,946818108
21,8,23,Ticks_Phase_5,127,9999,9999,9999,947318856
21,8,23,Ticks_Phase_5,128,9999,9999,9999,947818612
21,8,23,Ticks_Phase_5,129,9999,9999,9999,948318292
21,8,23,Ticks_Phase_5,130,9999,9999,9999,948819044
21,8,23,Ticks_Phase_5,131,9999,9999,9999,949419112
21,8,23,Ticks_Phase_5,132,9999,9999,9999,949929032
21,8,23,Ticks_Phase_5,133,9999,9999,9999,950428788
21,8,23,Ticks_Phase_5,134,9999,9999,9999,950928472
21,8,23,Ticks_Phase_5,135,9999,9999,9999,951428152
21,8,23,Ticks_Phase_5,136,9999,9999,9999,951928904
21,8,23,Ticks_Phase_5,137,9999,9999,9999,952428660
21,8,23,Ticks_Phase_5,138,9999,9999,9999,952928340
21,8,23,Ticks_Phase_5,139,9999,9999,9999,953429092
21,8,23,Ticks_Phase_5,140,9999,9999,9999,953928772
21,8,23,Ticks_Phase_5,141,9999,9999,9999,954428528
21,8,23,Ticks_Phase_5,142,9999,9999,9999,954928212
21,8,23,Ticks_Phase_5,143,9999,9999,9999,955428960
21,8,23,Ticks_Phase_5,144,9999,9999,9999,955928640
21,8,23,Ticks_Phase_5,145,9999,9999,9999,956428396
21,8,23,Ticks_Phase_5,146,9999,9999,9999,956928080
21,8,23,Ticks_Phase_5,147,9999,9999,9999,957428828
21,8,23,Ticks_Phase_5,148,9999,9999,9999,957928512
21,8,23,Ticks_Phase_5,149,9999,9999,9999,958428244
21,8,23,Ticks_Phase_5,150,9999,9999,9999,958828612
21,8,23,Ticks_Phase_5,151,9999,9999,9999,959328372
21,8,23,Ticks_Phase_5,152,9999,9999,9999,959829112
21,8,23,Ticks_Phase_5,153,9999,9999,9999,960328792
21,8,23,Ticks_Phase_5,154,9999,9999,9999,960828476
21,8,23,Ticks_Phase_5,155,9999,9999,9999,961328232
21,8,23,Ticks_Phase_5,156,9999,9999,9999,961828984
21,8,23,Ticks_Phase_5,157,9999,9999,9999,962328664
21,8,23,Ticks_Phase_5,158,9999,9999,9999,962828344
21,8,23,Ticks_Phase_5,159,9999,9999,9999,963328104
21,8,23,Ticks_Phase_5,160,9999,9999,9999,963828852
21,8,23,Ticks_Phase_5,161,9999,9999,9999,964328532
21,8,23,Ticks_Phase_5,162,9999,9999,9999,964828264
21,8,23,Ticks_Phase_5,163,9999,9999,9999,965329012
21,8,23,Ticks_Phase_5,164,9999,9999,9999,965828696
21,8,23,Ticks_Phase_5,165,9999,9999,9999,966328376
21,8,23,Ticks_Phase_5,166,9999,9999,9999,966828140
21,8,23,Ticks_Phase_5,167,9999,9999,9999,967328884
21,8,23,Ticks_Phase_5,168,9999,9999,9999,967828568
21,8,23,Ticks_Phase_5,169,9999,9999,9999,968328248
21,9,24,Jits_Pract_8,0,5,56,103,1038137652
21,9,24,Jits_Pract_8,1,5,63,98,1038140736
21,9,24,Jits_Pract_8,2,5,80,127,1038143920
21,9,24,Jits_Pract_8,0,5,56,103,1038937568
21,9,24,Jits_Pract_8,1,5,63,98,1038940732
21,9,24,Jits_Pract_8,2,5,80,127,1038943684
21,9,24,Jits_Pract_8,0,1,48,43,1039672040
21,9,24,Jits_Pract_8,1,5,80,127,1039677880
21,9,24,Jits_Pract_8,2,5,63,98,1039767920
21,9,24,Jits_Pract_8,3,5,56,103,1039778372
21,9,24,Jits_Pract_8,0,5,56,103,1040498092
21,9,24,Jits_Pract_8,1,1,48,33,1040508260
21,9,24,Jits_Pract_8,2,5,63,98,1040509848
21,9,24,Jits_Pract_8,3,5,80,127,1040598440
21,9,24,Jits_Pract_8,0,5,63,98,1041268016
21,9,24,Jits_Pract_8,1,5,80,127,1041297676
21,9,24,Jits_Pract_8,2,1,48,36,1041306588
21,9,24,Jits_Pract_8,3,5,56,103,1041327476
21,9,24,Jits_Pract_8,0,1,48,54,1042000432
21,9,24,Jits_Pract_8,1,5,56,103,1042067796
21,9,24,Jits_Pract_8,2,5,80,127,1042168088
21,9,24,Jits_Pract_8,3,5,63,98,1042218300
21,9,24,Jits_Pract_8,0,5,56,103,1042867604
21,9,24,Jits_Pract_8,1,5,80,127,1042917696
21,9,24,Jits_Pract_8,2,5,63,98,1042957596
21,9,24,Jits_Pract_8,3,1,48,46,1043003492
21,9,24,Jits_Pract_8,0,1,48,47,1043692164
21,9,24,Jits_Pract_8,1,5,80,127,1043698152
21,9,24,Jits_Pract_8,2,5,63,98,1043727736
21,9,24,Jits_Pract_8,3,5,56,103,1043798344
21,9,24,Jits_Pract_8,0,5,63,98,1044527388
21,9,24,Jits_Pract_8,1,1,48,42,1044536840
21,9,24,Jits_Pract_8,2,5,56,103,1044558332
21,9,24,Jits_Pract_8,3,5,80,127,1044617572
21,9,24,Jits_Pract_8,0,5,56,103,1045267792
21,9,24,Jits_Pract_8,1,5,80,127,1045270692
21,9,24,Jits_Pract_8,2,1,48,37,1045318356
21,9,24,Jits_Pract_8,3,5,63,98,1045387548
21,9,24,Jits_Pract_8,0,1,48,47,1046064344
21,9,24,Jits_Pract_8,1,5,56,103,1046147540
21,9,24,Jits_Pract_8,2,5,80,127,1046188340
21,9,24,Jits_Pract_8,3,5,63,98,1046197516
21,9,24,Jits_Pract_8,0,1,48,47,1046894108
21,9,24,Jits_Pract_8,1,5,56,103,1046908356
21,9,24,Jits_Pract_8,2,5,80,127,1046927700
21,9,24,Jits_Pract_8,3,5,63,98,1047007652
21,9,24,Jits_Pract_8,0,5,80,127,1047697996
21,9,24,Jits_Pract_8,1,1,48,47,1047714772
21,9,24,Jits_Pract_8,2,5,56,103,1047798068
21,9,24,Jits_Pract_8,3,5,63,98,1047809364
21,9,24,Jits_Pract_8,0,5,63,98,1048467928
21,9,24,Jits_Pract_8,1,1,48,48,1048500536
21,9,24,Jits_Pract_8,2,5,80,127,1048528152
21,9,24,Jits_Pract_8,3,5,56,103,1048537352
21,9,24,Jits_Pract_8,0,1,48,49,1049249884
21,9,24,Jits_Pract_8,1,5,56,103,1049267488
21,9,24,Jits_Pract_8,2,5,63,98,1049338128
21,9,24,Jits_Pract_8,3,5,80,127,1049342388
21,9,24,Jits_Pract_8,0,9999,9999,9999,1038535740
21,9,24,Jits_Pract_8,1,9999,9999,9999,1039335528
21,9,24,Jits_Pract_8,2,9999,9999,9999,1040135284
21,9,24,Jits_Pract_8,3,9999,9999,9999,1040935996
21,9,24,Jits_Pract_8,4,9999,9999,9999,1041735800
21,9,24,Jits_Pract_8,5,9999,9999,9999,1042535524
21,9,24,Jits_Pract_8,6,9999,9999,9999,1043335244
21,9,24,Jits_Pract_8,7,9999,9999,9999,1044136044
21,9,24,Jits_Pract_8,8,9999,9999,9999,1044935768
21,9,24,Jits_Pract_8,9,9999,9999,9999,1045735496
21,9,24,Jits_Pract_8,10,9999,9999,9999,1046535240
21,9,24,Jits_Pract_8,11,9999,9999,9999,1047336032
21,9,24,Jits_Pract_8,12,9999,9999,9999,1048135756
21,9,24,Jits_Pract_8,13,9999,9999,9999,1048935488
21,9,24,Jits_Pract_8,14,9999,9999,9999,1049735276
21,10,25,Jits_Pract_5,0,5,56,103,1059023128
21,10,25,Jits_Pract_5,1,5,63,98,1059026364
21,10,25,Jits_Pract_5,2,5,80,127,1059029472
21,10,25,Jits_Pract_5,0,5,56,103,1059522824
21,10,25,Jits_Pract_5,1,5,63,98,1059525984
21,10,25,Jits_Pract_5,2,5,80,127,1059528944
21,10,25,Jits_Pract_5,0,1,48,37,1059972632
21,10,25,Jits_Pract_5,1,5,56,103,1060022640
21,10,25,Jits_Pract_5,2,5,80,127,1060032808
21,10,25,Jits_Pract_5,3,5,63,98,1060053596
21,10,25,Jits_Pract_5,0,5,63,98,1060473468
21,10,25,Jits_Pract_5,1,1,48,67,1060482316
21,10,25,Jits_Pract_5,2,5,80,127,1060502968
21,10,25,Jits_Pract_5,3,5,56,103,1060513136
21,10,25,Jits_Pract_5,0,1,48,56,1061006680
21,10,25,Jits_Pract_5,1,5,80,127,1061033680
21,10,25,Jits_Pract_5,2,5,56,103,1061042480
21,10,25,Jits_Pract_5,3,5,63,98,1061073660
21,10,25,Jits_Pract_5,0,1,48,59,1061501564
21,10,25,Jits_Pract_5,1,5,63,98,1061522756
21,10,25,Jits_Pract_5,2,5,56,103,1061552568
21,10,25,Jits_Pract_5,3,5,80,127,1061562584
21,10,25,Jits_Pract_5,0,5,56,103,1061973688
21,10,25,Jits_Pract_5,1,1,48,62,1062008508
21,10,25,Jits_Pract_5,2,5,63,98,1062022452
21,10,25,Jits_Pract_5,3,5,80,127,1062043088
21,10,25,Jits_Pract_5,0,5,80,127,1062473012
21,10,25,Jits_Pract_5,1,1,48,55,1062483456
21,10,25,Jits_Pract_5,2,5,63,98,1062523300
21,10,25,Jits_Pract_5,3,5,56,103,1062563424
21,10,25,Jits_Pract_5,0,5,56,103,1062972868
21,10,25,Jits_Pract_5,1,1,48,63,1062991796
21,10,25,Jits_Pract_5,2,5,63,98,1063002444
21,10,25,Jits_Pract_5,3,5,80,127,1063073216
21,10,25,Jits_Pract_5,0,1,48,63,1063471188
21,10,25,Jits_Pract_5,1,5,56,103,1063473016
21,10,25,Jits_Pract_5,2,5,80,127,1063532868
21,10,25,Jits_Pract_5,3,5,63,98,1063563500
21,10,25,Jits_Pract_5,0,5,56,103,1063982504
21,10,25,Jits_Pract_5,1,5,63,98,1063992596
21,10,25,Jits_Pract_5,2,1,48,58,1064002044
21,10,25,Jits_Pract_5,3,5,80,127,1064032788
21,10,25,Jits_Pract_5,0,5,63,98,1064472876
21,10,25,Jits_Pract_5,1,1,48,60,1064498220
21,10,25,Jits_Pract_5,2,5,80,127,1064552744
21,10,25,Jits_Pract_5,3,5,56,103,1064562984
21,10,25,Jits_Pract_5,0,1,48,64,1064952208
21,10,25,Jits_Pract_5,1,5,63,98,1065022928
21,10,25,Jits_Pract_5,2,5,56,103,1065062808
21,10,25,Jits_Pract_5,3,5,80,127,1065065704
21,10,25,Jits_Pract_5,0,5,56,103,1065482648
21,10,25,Jits_Pract_5,1,5,63,98,1065492816
21,10,25,Jits_Pract_5,2,1,48,57,1065496524
21,10,25,Jits_Pract_5,3,5,80,127,1065532704
21,10,25,Jits_Pract_5,0,5,56,103,1065983332
21,10,25,Jits_Pract_5,1,1,48,58,1065984568
21,10,25,Jits_Pract_5,2,5,63,98,1065987748
21,10,25,Jits_Pract_5,3,5,80,127,1066002740
21,10,25,Jits_Pract_5,0,9999,9999,9999,1059270716
21,10,25,Jits_Pract_5,1,9999,9999,9999,1059770440
21,10,25,Jits_Pract_5,2,9999,9999,9999,1060270132
21,10,25,Jits_Pract_5,3,9999,9999,9999,1060770888
21,10,25,Jits_Pract_5,4,9999,9999,9999,1061270580
21,10,25,Jits_Pract_5,5,9999,9999,9999,1061770352
21,10,25,Jits_Pract_5,6,9999,9999,9999,1062271032
21,10,25,Jits_Pract_5,7,9999,9999,9999,1062770736
21,10,25,Jits_Pract_5,8,9999,9999,9999,1063270516
21,10,25,Jits_Pract_5,9,9999,9999,9999,1063770220
21,10,25,Jits_Pract_5,10,9999,9999,9999,1064270972
21,10,25,Jits_Pract_5,11,9999,9999,9999,1064770676
21,10,25,Jits_Pract_5,12,9999,9999,9999,1065270360
21,10,25,Jits_Pract_5,13,9999,9999,9999,1065771120
21,10,25,Jits_Pract_5,14,9999,9999,9999,1066281048
21,11,7,Jits_ISO_8,0,5,56,103,1090788604
21,11,7,Jits_ISO_8,1,5,63,98,1090791760
21,11,7,Jits_ISO_8,2,5,80,127,1090795020
21,11,7,Jits_ISO_8,0,1,48,53,1091458208
21,11,7,Jits_ISO_8,1,5,56,103,1091588464
21,11,7,Jits_ISO_8,2,5,63,98,1091591464
21,11,7,Jits_ISO_8,3,5,80,127,1091594648
21,11,7,Jits_ISO_8,0,5,80,127,1092328840
21,11,7,Jits_ISO_8,1,1,48,61,1092340352
21,11,7,Jits_ISO_8,2,5,63,98,1092419176
21,11,7,Jits_ISO_8,3,5,56,103,1092429192
21,11,7,Jits_ISO_8,0,5,56,103,1093149236
21,11,7,Jits_ISO_8,1,5,63,98,1093159176
21,11,7,Jits_ISO_8,2,1,48,68,1093188192
21,11,7,Jits_ISO_8,3,5,80,127,1093249356
21,11,7,Jits_ISO_8,0,5,63,98,1093919032
21,11,7,Jits_ISO_8,1,1,48,71,1093932984
21,11,7,Jits_ISO_8,2,5,80,127,1093948836
21,11,7,Jits_ISO_8,3,5,56,103,1093978416
21,11,7,Jits_ISO_8,0,1,48,64,1094700092
21,11,7,Jits_ISO_8,1,5,56,103,1094719068
21,11,7,Jits_ISO_8,2,5,80,127,1094819184
21,11,7,Jits_ISO_8,3,5,63,98,1094869272
21,11,7,Jits_ISO_8,0,5,56,103,1095518520
21,11,7,Jits_ISO_8,1,1,48,65,1095546072
21,11,7,Jits_ISO_8,2,5,80,127,1095569036
21,11,7,Jits_ISO_8,3,5,63,98,1095608936
21,11,7,Jits_ISO_8,0,1,48,68,1096298376
21,11,7,Jits_ISO_8,1,5,80,127,1096349152
21,11,7,Jits_ISO_8,2,5,63,98,1096378808
21,11,7,Jits_ISO_8,3,5,56,103,1096449288
21,11,7,Jits_ISO_8,0,1,48,67,1097139548
21,11,7,Jits_ISO_8,1,5,63,98,1097178576
21,11,7,Jits_ISO_8,2,5,56,103,1097209152
21,11,7,Jits_ISO_8,3,5,80,127,1097268680
21,11,7,Jits_ISO_8,0,5,56,103,1097918756
21,11,7,Jits_ISO_8,1,5,80,127,1097921964
21,11,7,Jits_ISO_8,2,1,48,67,1097944044
21,11,7,Jits_ISO_8,3,5,63,98,1098038832
21,11,7,Jits_ISO_8,0,1,48,68,1098703720
21,11,7,Jits_ISO_8,1,5,56,103,1098798712
21,11,7,Jits_ISO_8,2,5,80,127,1098839512
21,11,7,Jits_ISO_8,3,5,63,98,1098848688
21,11,7,Jits_ISO_8,0,1,48,42,1099517272
21,11,7,Jits_ISO_8,1,5,56,103,1099559328
21,11,7,Jits_ISO_8,2,5,80,127,1099578668
21,11,7,Jits_ISO_8,3,5,63,98,1099658828
21,11,7,Jits_ISO_8,0,1,48,61,1100335580
21,11,7,Jits_ISO_8,1,5,80,127,1100348912
21,11,7,Jits_ISO_8,2,5,56,103,1100449252
21,11,7,Jits_ISO_8,3,5,63,98,1100459344
21,11,7,Jits_ISO_8,0,5,63,98,1101118784
21,11,7,Jits_ISO_8,1,5,80,127,1101179168
21,11,7,Jits_ISO_8,2,5,56,103,1101188572
21,11,7,Jits_ISO_8,3,1,48,61,1101213452
21,11,7,Jits_ISO_8,0,1,48,63,1101874308
21,11,7,Jits_ISO_8,1,5,56,103,1101918748
21,11,7,Jits_ISO_8,2,5,63,98,1101989120
21,11,7,Jits_ISO_8,3,5,80,127,1101992780
21,11,7,Jits_ISO_8,0,1,48,62,1102657460
21,11,7,Jits_ISO_8,1,5,63,98,1102748960
21,11,7,Jits_ISO_8,2,5,56,103,1102799172
21,11,7,Jits_ISO_8,3,5,80,127,1102802300
21,11,7,Jits_ISO_8,0,1,48,59,1103433692
21,11,7,Jits_ISO_8,1,5,56,103,1103508860
21,11,7,Jits_ISO_8,2,5,80,127,1103511908
21,11,7,Jits_ISO_8,3,5,63,98,1103598904
21,11,7,Jits_ISO_8,0,1,48,48,1104254596
21,11,7,Jits_ISO_8,1,5,63,98,1104348596
21,11,7,Jits_ISO_8,2,5,56,103,1104438696
21,11,7,Jits_ISO_8,3,5,80,127,1104469496
21,11,7,Jits_ISO_8,0,1,48,64,1105076380
21,11,7,Jits_ISO_8,1,5,56,103,1105139096
21,11,7,Jits_ISO_8,2,5,63,98,1105239588
21,11,7,Jits_ISO_8,3,5,80,127,1105269020
21,11,7,Jits_ISO_8,0,1,48,60,1105956544
21,11,7,Jits_ISO_8,1,5,63,98,1105959332
21,11,7,Jits_ISO_8,2,5,56,103,1105968660
21,11,7,Jits_ISO_8,3,5,80,127,1106058604
21,11,7,Jits_ISO_8,0,1,48,65,1106675648
21,11,7,Jits_ISO_8,1,5,63,98,1106778476
21,11,7,Jits_ISO_8,2,5,56,103,1106859416
21,11,7,Jits_ISO_8,3,5,80,127,1106862616
21,11,7,Jits_ISO_8,0,1,48,62,1107488704
21,11,7,Jits_ISO_8,1,5,80,127,1107539404
21,11,7,Jits_ISO_8,2,5,63,98,1107558672
21,11,7,Jits_ISO_8,3,5,56,103,1107619340
21,11,7,Jits_ISO_8,0,1,48,54,1108325280
21,11,7,Jits_ISO_8,1,5,56,103,1108378896
21,11,7,Jits_ISO_8,2,5,63,98,1108398384
21,11,7,Jits_ISO_8,3,5,80,127,1108401816
21,11,7,Jits_ISO_8,0,1,48,54,1109099960
21,11,7,Jits_ISO_8,1,5,63,98,1109119468
21,11,7,Jits_ISO_8,2,5,80,127,1109199404
21,11,7,Jits_ISO_8,3,5,56,103,1109208456
21,11,7,Jits_ISO_8,0,1,48,65,1109897108
21,11,7,Jits_ISO_8,1,5,63,98,1109938556
21,11,7,Jits_ISO_8,2,5,56,103,1109958968
21,11,7,Jits_ISO_8,3,5,80,127,1110009344
21,11,7,Jits_ISO_8,0,1,48,59,1110685368
21,11,7,Jits_ISO_8,1,5,80,127,1110739316
21,11,7,Jits_ISO_8,2,5,63,98,1110779276
21,11,7,Jits_ISO_8,3,5,56,103,1110798620
21,11,7,Jits_ISO_8,0,1,48,58,1111463640
21,11,7,Jits_ISO_8,1,5,56,103,1111579096
21,11,7,Jits_ISO_8,2,5,63,98,1111589188
21,11,7,Jits_ISO_8,3,5,80,127,1111608608
21,11,7,Jits_ISO_8,0,1,48,44,1112289792
21,11,7,Jits_ISO_8,1,5,56,103,1112309228
21,11,7,Jits_ISO_8,2,5,63,98,1112399328
21,11,7,Jits_ISO_8,3,5,80,127,1112458640
21,11,7,Jits_ISO_8,0,1,48,64,1113115668
21,11,7,Jits_ISO_8,1,5,80,127,1113138480
21,11,7,Jits_ISO_8,2,5,56,103,1113148952
21,11,7,Jits_ISO_8,3,5,63,98,1113218412
21,11,7,Jits_ISO_8,0,1,48,56,1113951576
21,11,7,Jits_ISO_8,1,5,63,98,1113969252
21,11,7,Jits_ISO_8,2,5,80,127,1114059352
21,11,7,Jits_ISO_8,3,5,56,103,1114069320
21,11,7,Jits_ISO_8,0,5,63,98,1114709320
21,11,7,Jits_ISO_8,1,5,80,127,1114758544
21,11,7,Jits_ISO_8,2,1,48,69,1114787032
21,11,7,Jits_ISO_8,3,5,56,103,1114818920
21,11,7,Jits_ISO_8,0,1,48,60,1115537488
21,11,7,Jits_ISO_8,1,5,56,103,1115539316
21,11,7,Jits_ISO_8,2,5,80,127,1115589232
21,11,7,Jits_ISO_8,3,5,63,98,1115608524
21,11,7,Jits_ISO_8,0,5,56,103,1116309032
21,11,7,Jits_ISO_8,1,1,48,59,1116320092
21,11,7,Jits_ISO_8,2,5,80,127,1116369184
21,11,7,Jits_ISO_8,3,5,63,98,1116438948
21,11,7,Jits_ISO_8,0,5,56,103,1117108692
21,11,7,Jits_ISO_8,1,5,80,127,1117139368
21,11,7,Jits_ISO_8,2,1,48,62,1117145672
21,11,7,Jits_ISO_8,3,5,63,98,1117169320
21,11,7,Jits_ISO_8,0,1,48,54,1117878760
21,11,7,Jits_ISO_8,1,5,56,103,1117949200
21,11,7,Jits_ISO_8,2,5,80,127,1117968924
21,11,7,Jits_ISO_8,3,5,63,98,1118029060
21,11,7,Jits_ISO_8,0,1,48,57,1118656320
21,11,7,Jits_ISO_8,1,5,80,127,1118828960
21,11,7,Jits_ISO_8,2,5,56,103,1118839052
21,11,7,Jits_ISO_8,3,5,63,98,1118849448
21,11,7,Jits_ISO_8,0,1,48,60,1119488980
21,11,7,Jits_ISO_8,1,5,56,103,1119588812
21,11,7,Jits_ISO_8,2,5,80,127,1119628864
21,11,7,Jits_ISO_8,3,5,63,98,1119659364
21,11,7,Jits_ISO_8,0,1,48,51,1120353468
21,11,7,Jits_ISO_8,1,5,56,103,1120358996
21,11,7,Jits_ISO_8,2,5,63,98,1120388428
21,11,7,Jits_ISO_8,3,5,80,127,1120429472
21,11,7,Jits_ISO_8,0,5,80,127,1121109296
21,11,7,Jits_ISO_8,1,1,48,53,1121118216
21,11,7,Jits_ISO_8,2,5,63,98,1121158592
21,11,7,Jits_ISO_8,3,5,56,103,1121178924
21,11,7,Jits_ISO_8,0,1,48,62,1121859412
21,11,7,Jits_ISO_8,1,5,56,103,1121939004
21,11,7,Jits_ISO_8,2,5,80,127,1122008344
21,11,7,Jits_ISO_8,3,5,63,98,1122068952
21,11,7,Jits_ISO_8,0,1,48,60,1122703640
21,11,7,Jits_ISO_8,1,5,80,127,1122738600
21,11,7,Jits_ISO_8,2,5,63,98,1122829032
21,11,7,Jits_ISO_8,3,5,56,103,1122849060
21,11,7,Jits_ISO_8,0,5,63,98,1123558716
21,11,7,Jits_ISO_8,1,1,48,55,1123574420
21,11,7,Jits_ISO_8,2,5,56,103,1123579192
21,11,7,Jits_ISO_8,3,5,80,127,1123619092
21,11,7,Jits_ISO_8,0,5,80,127,1124318636
21,11,7,Jits_ISO_8,1,1,48,61,1124328088
21,11,7,Jits_ISO_8,2,5,63,98,1124339192
21,11,7,Jits_ISO_8,3,5,56,103,1124418836
21,11,7,Jits_ISO_8,0,5,63,98,1125109068
21,11,7,Jits_ISO_8,1,1,48,62,1125158116
21,11,7,Jits_ISO_8,2,5,56,103,1125218740
21,11,7,Jits_ISO_8,3,5,80,127,1125221792
21,11,7,Jits_ISO_8,0,1,48,48,1125876508
21,11,7,Jits_ISO_8,1,5,63,98,1125929512
21,11,7,Jits_ISO_8,2,5,56,103,1125938992
21,11,7,Jits_ISO_8,3,5,80,127,1125941884
21,11,7,Jits_ISO_8,0,1,48,52,1126645204
21,11,7,Jits_ISO_8,1,5,56,103,1126708528
21,11,7,Jits_ISO_8,2,5,80,127,1126829508
21,11,7,Jits_ISO_8,3,5,63,98,1126869280
21,11,7,Jits_ISO_8,0,5,56,103,1127528772
21,11,7,Jits_ISO_8,1,1,48,54,1127590420
21,11,7,Jits_ISO_8,2,5,80,127,1127608788
21,11,7,Jits_ISO_8,3,5,63,98,1127629196
21,11,7,Jits_ISO_8,0,5,56,103,1128328604
21,11,7,Jits_ISO_8,1,1,48,54,1128335828
21,11,7,Jits_ISO_8,2,5,63,98,1128439044
21,11,7,Jits_ISO_8,3,5,80,127,1128442400
21,11,7,Jits_ISO_8,0,1,48,56,1129119688
21,11,7,Jits_ISO_8,1,5,56,103,1129158924
21,11,7,Jits_ISO_8,2,5,80,127,1129188684
21,11,7,Jits_ISO_8,3,5,63,98,1129209624
21,11,7,Jits_ISO_8,0,1,48,65,1129887872
21,11,7,Jits_ISO_8,1,5,63,98,1129939580
21,11,7,Jits_ISO_8,2,5,56,103,1129948456
21,11,7,Jits_ISO_8,3,5,80,127,1129958852
21,11,7,Jits_ISO_8,0,1,48,59,1130628144
21,11,7,Jits_ISO_8,1,5,80,127,1130728760
21,11,7,Jits_ISO_8,2,5,56,103,1130778904
21,11,7,Jits_ISO_8,3,5,63,98,1130818876
21,11,7,Jits_ISO_8,0,1,48,58,1131477440
21,11,7,Jits_ISO_8,1,5,80,127,1131549080
21,11,7,Jits_ISO_8,2,5,63,98,1131568420
21,11,7,Jits_ISO_8,3,5,56,103,1131618620
21,11,7,Jits_ISO_8,0,1,48,68,1132291624
21,11,7,Jits_ISO_8,1,5,80,127,1132358992
21,11,7,Jits_ISO_8,2,5,56,103,1132388632
21,11,7,Jits_ISO_8,3,5,63,98,1132459560
21,11,7,Jits_ISO_8,0,1,48,59,1133173308
21,11,7,Jits_ISO_8,1,5,56,103,1133208880
21,11,7,Jits_ISO_8,2,5,80,127,1133219352
21,11,7,Jits_ISO_8,3,5,63,98,1133259024
21,11,7,Jits_ISO_8,0,5,56,103,1133918596
21,11,7,Jits_ISO_8,1,5,63,98,1133939312
21,11,7,Jits_ISO_8,2,5,80,127,1134008640
21,11,7,Jits_ISO_8,3,1,48,53,1134035904
21,11,7,Jits_ISO_8,0,1,48,48,1134705544
21,11,7,Jits_ISO_8,1,5,63,98,1134738828
21,11,7,Jits_ISO_8,2,5,80,127,1134799200
21,11,7,Jits_ISO_8,3,5,56,103,1134818792
21,11,7,Jits_ISO_8,0,1,48,56,1135491084
21,11,7,Jits_ISO_8,1,5,80,127,1135529628
21,11,7,Jits_ISO_8,2,5,56,103,1135559288
21,11,7,Jits_ISO_8,3,5,63,98,1135588668
21,11,7,Jits_ISO_8,0,1,48,47,1136306096
21,11,7,Jits_ISO_8,1,5,56,103,1136329140
21,11,7,Jits_ISO_8,2,5,63,98,1136388484
21,11,7,Jits_ISO_8,3,5,80,127,1136448924
21,11,7,Jits_ISO_8,0,1,48,63,1137073900
21,11,7,Jits_ISO_8,1,5,80,127,1137149396
21,11,7,Jits_ISO_8,2,5,56,103,1137168740
21,11,7,Jits_ISO_8,3,5,63,98,1137239344
21,11,7,Jits_ISO_8,0,1,48,63,1137851636
21,11,7,Jits_ISO_8,1,5,80,127,1137949124
21,11,7,Jits_ISO_8,2,5,63,98,1137968468
21,11,7,Jits_ISO_8,3,5,56,103,1137999268
21,11,7,Jits_ISO_8,0,1,48,51,1138673260
21,11,7,Jits_ISO_8,1,5,80,127,1138738492
21,11,7,Jits_ISO_8,2,5,63,98,1138759432
21,11,7,Jits_ISO_8,3,5,56,103,1138818428
21,11,7,Jits_ISO_8,0,1,48,52,1139525896
21,11,7,Jits_ISO_8,1,5,80,127,1139539228
21,11,7,Jits_ISO_8,2,5,56,103,1139638732
21,11,7,Jits_ISO_8,3,5,63,98,1139669252
21,11,7,Jits_ISO_8,0,5,63,98,1140329124
21,11,7,Jits_ISO_8,1,1,48,53,1140340184
21,11,7,Jits_ISO_8,2,5,80,127,1140379184
21,11,7,Jits_ISO_8,3,5,56,103,1140398376
21,11,7,Jits_ISO_8,0,1,48,58,1141131436
21,11,7,Jits_ISO_8,1,5,80,127,1141168608
21,11,7,Jits_ISO_8,2,5,56,103,1141199256
21,11,7,Jits_ISO_8,3,5,63,98,1141202380
21,11,7,Jits_ISO_8,0,1,48,47,1141964768
21,11,7,Jits_ISO_8,1,5,63,98,1141999072
21,11,7,Jits_ISO_8,2,5,56,103,1142038972
21,11,7,Jits_ISO_8,3,5,80,127,1142059304
21,11,7,Jits_ISO_8,0,1,48,52,1142728916
21,11,7,Jits_ISO_8,1,5,80,127,1142739204
21,11,7,Jits_ISO_8,2,5,63,98,1142819080
21,11,7,Jits_ISO_8,3,5,56,103,1142859116
21,11,7,Jits_ISO_8,0,1,48,58,1143544804
21,11,7,Jits_ISO_8,1,5,63,98,1143558520
21,11,7,Jits_ISO_8,2,5,80,127,1143639372
21,11,7,Jits_ISO_8,3,5,56,103,1143659016
21,11,7,Jits_ISO_8,0,1,48,59,1144329588
21,11,7,Jits_ISO_8,1,5,56,103,1144399240
21,11,7,Jits_ISO_8,2,5,63,98,1144408496
21,11,7,Jits_ISO_8,3,5,80,127,1144449292
21,11,7,Jits_ISO_8,0,1,48,59,1145114344
21,11,7,Jits_ISO_8,1,5,56,103,1145119264
21,11,7,Jits_ISO_8,2,5,80,127,1145122616
21,11,7,Jits_ISO_8,3,5,63,98,1145259340
21,11,7,Jits_ISO_8,0,5,56,103,1145908768
21,11,7,Jits_ISO_8,1,1,48,55,1145959796
21,11,7,Jits_ISO_8,2,5,63,98,1145999104
21,11,7,Jits_ISO_8,3,5,80,127,1146069280
21,11,7,Jits_ISO_8,0,1,48,51,1146737092
21,11,7,Jits_ISO_8,1,5,63,98,1146789236
21,11,7,Jits_ISO_8,2,5,80,127,1146792736
21,11,7,Jits_ISO_8,3,5,56,103,1146848780
21,11,7,Jits_ISO_8,0,1,48,55,1147565556
21,11,7,Jits_ISO_8,1,5,80,127,1147628828
21,11,7,Jits_ISO_8,2,5,56,103,1147649388
21,11,7,Jits_ISO_8,3,5,63,98,1147658776
21,11,7,Jits_ISO_8,0,5,56,103,1148338600
21,11,7,Jits_ISO_8,1,5,63,98,1148348692
21,11,7,Jits_ISO_8,2,1,48,52,1148412960
21,11,7,Jits_ISO_8,3,5,80,127,1148418640
21,11,7,Jits_ISO_8,0,5,80,127,1149139296
21,11,7,Jits_ISO_8,1,1,48,54,1149141272
21,11,7,Jits_ISO_8,2,5,56,103,1149188360
21,11,7,Jits_ISO_8,3,5,63,98,1149238728
21,11,7,Jits_ISO_8,0,1,48,53,1149896484
21,11,7,Jits_ISO_8,1,5,56,103,1150018908
21,11,7,Jits_ISO_8,2,5,63,98,1150029152
21,11,7,Jits_ISO_8,3,5,80,127,1150069204
21,11,7,Jits_ISO_8,0,1,48,53,1150726784
21,11,7,Jits_ISO_8,1,5,56,103,1150759208
21,11,7,Jits_ISO_8,2,5,63,98,1150799112
21,11,7,Jits_ISO_8,3,5,80,127,1150849616
21,11,7,Jits_ISO_8,0,1,48,46,1151516648
21,11,7,Jits_ISO_8,1,5,80,127,1151518984
21,11,7,Jits_ISO_8,2,5,56,103,1151569200
21,11,7,Jits_ISO_8,3,5,63,98,1151588772
21,11,7,Jits_ISO_8,0,1,48,57,1152296068
21,11,7,Jits_ISO_8,1,5,80,127,1152328968
21,11,7,Jits_ISO_8,2,5,63,98,1152388420
21,11,7,Jits_ISO_8,3,5,56,103,1152469460
21,11,7,Jits_ISO_8,0,1,48,49,1153096976
21,11,7,Jits_ISO_8,1,5,80,127,1153109448
21,11,7,Jits_ISO_8,2,5,56,103,1153149200
21,11,7,Jits_ISO_8,3,5,63,98,1153168768
21,11,7,Jits_ISO_8,0,1,48,47,1153904568
21,11,7,Jits_ISO_8,1,5,56,103,1153959180
21,11,7,Jits_ISO_8,2,5,80,127,1153968432
21,11,7,Jits_ISO_8,3,5,63,98,1154008416
21,11,7,Jits_ISO_8,0,1,48,54,1154651656
21,11,7,Jits_ISO_8,1,5,56,103,1154828564
21,11,7,Jits_ISO_8,2,5,63,98,1154868616
21,11,7,Jits_ISO_8,3,5,80,127,1154872268
21,11,7,Jits_ISO_8,0,5,63,98,1155518852
21,11,7,Jits_ISO_8,1,1,48,50,1155556692
21,11,7,Jits_ISO_8,2,5,80,127,1155558696
21,11,7,Jits_ISO_8,3,5,56,103,1155629320
21,11,7,Jits_ISO_8,0,5,63,98,1156309448
21,11,7,Jits_ISO_8,1,1,48,51,1156359412
21,11,7,Jits_ISO_8,2,5,56,103,1156389240
21,11,7,Jits_ISO_8,3,5,80,127,1156448556
21,11,7,Jits_ISO_8,0,5,80,127,1157119588
21,11,7,Jits_ISO_8,1,1,48,54,1157148228
21,11,7,Jits_ISO_8,2,5,63,98,1157168504
21,11,7,Jits_ISO_8,3,5,56,103,1157199228
21,11,7,Jits_ISO_8,0,5,56,103,1157908956
21,11,7,Jits_ISO_8,1,1,48,56,1157936528
21,11,7,Jits_ISO_8,2,5,63,98,1157959012
21,11,7,Jits_ISO_8,3,5,80,127,1157969256
21,11,7,Jits_ISO_8,0,1,48,52,1158700952
21,11,7,Jits_ISO_8,1,5,56,103,1158718868
21,11,7,Jits_ISO_8,2,5,63,98,1158829604
21,11,7,Jits_ISO_8,3,5,80,127,1158848868
21,11,7,Jits_ISO_8,0,1,48,47,1159509116
21,11,7,Jits_ISO_8,1,5,63,98,1159518540
21,11,7,Jits_ISO_8,2,5,80,127,1159568680
21,11,7,Jits_ISO_8,3,5,56,103,1159658880
21,11,7,Jits_ISO_8,0,1,48,49,1160287692
21,11,7,Jits_ISO_8,1,5,63,98,1160309340
21,11,7,Jits_ISO_8,2,5,80,127,1160338696
21,11,7,Jits_ISO_8,3,5,56,103,1160429044
21,11,7,Jits_ISO_8,0,5,63,98,1161108936
21,11,7,Jits_ISO_8,1,5,56,103,1161119256
21,11,7,Jits_ISO_8,2,1,48,51,1161123272
21,11,7,Jits_ISO_8,3,5,80,127,1161218316
21,11,7,Jits_ISO_8,0,1,48,50,1161860028
21,11,7,Jits_ISO_8,1,5,63,98,1162009036
21,11,7,Jits_ISO_8,2,5,80,127,1162038696
21,11,7,Jits_ISO_8,3,5,56,103,1162069272
21,11,7,Jits_ISO_8,0,1,48,51,1162725000
21,11,7,Jits_ISO_8,1,5,80,127,1162829352
21,11,7,Jits_ISO_8,2,5,63,98,1162839444
21,11,7,Jits_ISO_8,3,5,56,103,1162869100
21,11,7,Jits_ISO_8,0,5,80,127,1163528540
21,11,7,Jits_ISO_8,1,5,63,98,1163549104
21,11,7,Jits_ISO_8,2,1,48,53,1163579952
21,11,7,Jits_ISO_8,3,5,56,103,1163599160
21,11,7,Jits_ISO_8,0,1,48,59,1164301736
21,11,7,Jits_ISO_8,1,5,63,98,1164359240
21,11,7,Jits_ISO_8,2,5,80,127,1164418388
21,11,7,Jits_ISO_8,3,5,56,103,1164438872
21,11,7,Jits_ISO_8,0,1,48,59,1165116628
21,11,7,Jits_ISO_8,1,5,63,98,1165118936
21,11,7,Jits_ISO_8,2,5,56,103,1165169080
21,11,7,Jits_ISO_8,3,5,80,127,1165179248
21,11,7,Jits_ISO_8,0,1,48,56,1165863388
21,11,7,Jits_ISO_8,1,5,56,103,1165949332
21,11,7,Jits_ISO_8,2,5,80,127,1165958568
21,11,7,Jits_ISO_8,3,5,63,98,1166059096
21,11,7,Jits_ISO_8,0,1,48,59,1166700748
21,11,7,Jits_ISO_8,1,5,80,127,1166709180
21,11,7,Jits_ISO_8,2,5,63,98,1166719496
21,11,7,Jits_ISO_8,3,5,56,103,1166869084
21,11,7,Jits_ISO_8,0,1,48,51,1167504152
21,11,7,Jits_ISO_8,1,5,63,98,1167519088
21,11,7,Jits_ISO_8,2,5,80,127,1167559216
21,11,7,Jits_ISO_8,3,5,56,103,1167638944
21,11,7,Jits_ISO_8,0,1,48,64,1168309052
21,11,7,Jits_ISO_8,1,5,56,103,1168310420
21,11,7,Jits_ISO_8,2,5,80,127,1168409032
21,11,7,Jits_ISO_8,3,5,63,98,1168429368
21,11,7,Jits_ISO_8,0,1,48,54,1169119496
21,11,7,Jits_ISO_8,1,5,80,127,1169168820
21,11,7,Jits_ISO_8,2,5,56,103,1169178912
21,11,7,Jits_ISO_8,3,5,63,98,1169269008
21,11,7,Jits_ISO_8,0,1,48,59,1169911068
21,11,7,Jits_ISO_8,1,5,56,103,1169968572
21,11,7,Jits_ISO_8,2,5,63,98,1169988980
21,11,7,Jits_ISO_8,3,5,80,127,1170068988
21,11,7,Jits_ISO_8,0,1,48,56,1170718104
21,11,7,Jits_ISO_8,1,5,63,98,1170719932
21,11,7,Jits_ISO_8,2,5,56,103,1170809208
21,11,7,Jits_ISO_8,3,5,80,127,1170812180
21,11,7,Jits_ISO_8,0,1,48,58,1171460788
21,11,7,Jits_ISO_8,1,5,56,103,1171548792
21,11,7,Jits_ISO_8,2,5,80,127,1171609084
21,11,7,Jits_ISO_8,3,5,63,98,1171619328
21,11,7,Jits_ISO_8,0,1,48,60,1172327808
21,11,7,Jits_ISO_8,1,5,80,127,1172398528
21,11,7,Jits_ISO_8,2,5,56,103,1172408844
21,11,7,Jits_ISO_8,3,5,63,98,1172411896
21,11,7,Jits_ISO_8,0,1,48,66,1173136872
21,11,7,Jits_ISO_8,1,5,56,103,1173159284
21,11,7,Jits_ISO_8,2,5,80,127,1173168840
21,11,7,Jits_ISO_8,3,5,63,98,1173188944
21,11,7,Jits_ISO_8,0,1,48,59,1173885688
21,11,7,Jits_ISO_8,1,5,63,98,1173929292
21,11,7,Jits_ISO_8,2,5,80,127,1173988616
21,11,7,Jits_ISO_8,3,5,56,103,1174038836
21,11,7,Jits_ISO_8,0,1,48,65,1174712808
21,11,7,Jits_ISO_8,1,5,63,98,1174809000
21,11,7,Jits_ISO_8,2,5,56,103,1174819320
21,11,7,Jits_ISO_8,3,5,80,127,1174869764
21,11,7,Jits_ISO_8,0,5,63,98,1175509560
21,11,7,Jits_ISO_8,1,1,48,67,1175517796
21,11,7,Jits_ISO_8,2,5,80,127,1175528896
21,11,7,Jits_ISO_8,3,5,56,103,1175539064
21,11,7,Jits_ISO_8,0,1,48,62,1176288488
21,11,7,Jits_ISO_8,1,5,63,98,1176309216
21,11,7,Jits_ISO_8,2,5,80,127,1176312564
21,11,7,Jits_ISO_8,3,5,56,103,1176348884
21,11,7,Jits_ISO_8,0,1,48,65,1177095688
21,11,7,Jits_ISO_8,1,5,63,98,1177178656
21,11,7,Jits_ISO_8,2,5,80,127,1177209216
21,11,7,Jits_ISO_8,3,5,56,103,1177218772
21,11,7,Jits_ISO_8,0,1,48,63,1177891468
21,11,7,Jits_ISO_8,1,5,56,103,1177929104
21,11,7,Jits_ISO_8,2,5,80,127,1177958684
21,11,7,Jits_ISO_8,3,5,63,98,1177988480
21,11,7,Jits_ISO_8,0,1,48,57,1178727908
21,11,7,Jits_ISO_8,1,5,63,98,1178829136
21,11,7,Jits_ISO_8,2,5,56,103,1178869112
21,11,7,Jits_ISO_8,3,5,80,127,1178872236
21,11,7,Jits_ISO_8,0,5,80,127,1179528752
21,11,7,Jits_ISO_8,1,5,56,103,1179608424
21,11,7,Jits_ISO_8,2,1,48,57,1179633608
21,11,7,Jits_ISO_8,3,5,63,98,1179658556
21,11,7,Jits_ISO_8,0,5,80,127,1180308796
21,11,7,Jits_ISO_8,1,5,56,103,1180329356
21,11,7,Jits_ISO_8,2,5,63,98,1180418576
21,11,7,Jits_ISO_8,3,1,48,52,1180469068
21,11,7,Jits_ISO_8,0,5,80,127,1181148552
21,11,7,Jits_ISO_8,1,5,63,98,1181188452
21,11,7,Jits_ISO_8,2,1,48,64,1181200192
21,11,7,Jits_ISO_8,3,5,56,103,1181229560
21,11,7,Jits_ISO_8,0,5,63,98,1181918728
21,11,7,Jits_ISO_8,1,1,48,63,1181978116
21,11,7,Jits_ISO_8,2,5,80,127,1181979868
21,11,7,Jits_ISO_8,3,5,56,103,1182008688
21,11,7,Jits_ISO_8,0,1,48,57,1182702384
21,11,7,Jits_ISO_8,1,5,56,103,1182719304
21,11,7,Jits_ISO_8,2,5,80,127,1182749344
21,11,7,Jits_ISO_8,3,5,63,98,1182839212
21,11,7,Jits_ISO_8,0,1,48,62,1183515272
21,11,7,Jits_ISO_8,1,5,56,103,1183529368
21,11,7,Jits_ISO_8,2,5,80,127,1183639112
21,11,7,Jits_ISO_8,3,5,63,98,1183668540
21,11,7,Jits_ISO_8,0,1,48,58,1184320616
21,11,7,Jits_ISO_8,1,5,56,103,1184379340
21,11,7,Jits_ISO_8,2,5,63,98,1184438716
21,11,7,Jits_ISO_8,3,5,80,127,1184469464
21,11,7,Jits_ISO_8,0,5,56,103,1185149212
21,11,7,Jits_ISO_8,1,1,48,66,1185150572
21,11,7,Jits_ISO_8,2,5,63,98,1185218836
21,11,7,Jits_ISO_8,3,5,80,127,1185239424
21,11,7,Jits_ISO_8,0,1,48,79,1185918704
21,11,7,Jits_ISO_8,1,5,80,127,1185920528
21,11,7,Jits_ISO_8,2,5,63,98,1185938800
21,11,7,Jits_ISO_8,3,5,56,103,1185989168
21,11,7,Jits_ISO_8,0,9999,9999,9999,1091186776
21,11,7,Jits_ISO_8,1,9999,9999,9999,1091986556
21,11,7,Jits_ISO_8,2,9999,9999,9999,1092786300
21,11,7,Jits_ISO_8,3,9999,9999,9999,1093587000
21,11,7,Jits_ISO_8,4,9999,9999,9999,1094386752
21,11,7,Jits_ISO_8,5,9999,9999,9999,1095186504
21,11,7,Jits_ISO_8,6,9999,9999,9999,1095986248
21,11,7,Jits_ISO_8,7,9999,9999,9999,1096787000
21,11,7,Jits_ISO_8,8,9999,9999,9999,1097586748
21,11,7,Jits_ISO_8,9,9999,9999,9999,1098386556
21,11,7,Jits_ISO_8,10,9999,9999,9999,1099186248
21,11,7,Jits_ISO_8,11,9999,9999,9999,1099987012
21,11,7,Jits_ISO_8,12,9999,9999,9999,1100786764
21,11,7,Jits_ISO_8,13,9999,9999,9999,1101586508
21,11,7,Jits_ISO_8,14,9999,9999,9999,1102386240
21,11,7,Jits_ISO_8,15,9999,9999,9999,1103187020
21,11,7,Jits_ISO_8,16,9999,9999,9999,1103986748
21,11,7,Jits_ISO_8,17,9999,9999,9999,1104786500
21,11,7,Jits_ISO_8,18,9999,9999,9999,1105586252
21,11,7,Jits_ISO_8,19,9999,9999,9999,1106387016
21,11,7,Jits_ISO_8,20,9999,9999,9999,1107186756
21,11,7,Jits_ISO_8,21,9999,9999,9999,1107986504
21,11,7,Jits_ISO_8,22,9999,9999,9999,1108786240
21,11,7,Jits_ISO_8,23,9999,9999,9999,1109587052
21,11,7,Jits_ISO_8,24,9999,9999,9999,1110386796
21,11,7,Jits_ISO_8,25,9999,9999,9999,1111186540
21,11,7,Jits_ISO_8,26,9999,9999,9999,1111986288
21,11,7,Jits_ISO_8,27,9999,9999,9999,1112787052
21,11,7,Jits_ISO_8,28,9999,9999,9999,1113586796
21,11,7,Jits_ISO_8,29,9999,9999,9999,1114386548
21,11,7,Jits_ISO_8,30,9999,9999,9999,1115186292
21,11,7,Jits_ISO_8,31,9999,9999,9999,1115987028
21,11,7,Jits_ISO_8,32,9999,9999,9999,1116786748
21,11,7,Jits_ISO_8,33,9999,9999,9999,1117586500
21,11,7,Jits_ISO_8,34,9999,9999,9999,1118386264
21,11,7,Jits_ISO_8,35,9999,9999,9999,1119187032
21,11,7,Jits_ISO_8,36,9999,9999,9999,1119986784
21,11,7,Jits_ISO_8,37,9999,9999,9999,1120786528
21,11,7,Jits_ISO_8,38,9999,9999,9999,1121586268
21,11,7,Jits_ISO_8,39,9999,9999,9999,1122387024
21,11,7,Jits_ISO_8,40,9999,9999,9999,1123186768
21,11,7,Jits_ISO_8,41,9999,9999,9999,1123986516
21,11,7,Jits_ISO_8,42,9999,9999,9999,1124786260
21,11,7,Jits_ISO_8,43,9999,9999,9999,1125587032
21,11,7,Jits_ISO_8,44,9999,9999,9999,1126386760
21,11,7,Jits_ISO_8,45,9999,9999,9999,1127186512
21,11,7,Jits_ISO_8,46,9999,9999,9999,1127986256
21,11,7,Jits_ISO_8,47,9999,9999,9999,1128787000
21,11,7,Jits_ISO_8,48,9999,9999,9999,1129586760
21,11,7,Jits_ISO_8,49,9999,9999,9999,1130386500
21,11,7,Jits_ISO_8,50,9999,9999,9999,1131186244
21,11,7,Jits_ISO_8,51,9999,9999,9999,1131987000
21,11,7,Jits_ISO_8,52,9999,9999,9999,1132786752
21,11,7,Jits_ISO_8,53,9999,9999,9999,1133586504
21,11,7,Jits_ISO_8,54,9999,9999,9999,1134386244
21,11,7,Jits_ISO_8,55,9999,9999,9999,1135186996
21,11,7,Jits_ISO_8,56,9999,9999,9999,1135986812
21,11,7,Jits_ISO_8,57,9999,9999,9999,1136786484
21,11,7,Jits_ISO_8,58,9999,9999,9999,1137586228
21,11,7,Jits_ISO_8,59,9999,9999,9999,1138387064
21,11,7,Jits_ISO_8,60,9999,9999,9999,1139186808
21,11,7,Jits_ISO_8,61,9999,9999,9999,1139986484
21,11,7,Jits_ISO_8,62,9999,9999,9999,1140786228
21,11,7,Jits_ISO_8,63,9999,9999,9999,1141587004
21,11,7,Jits_ISO_8,64,9999,9999,9999,1142386760
21,11,7,Jits_ISO_8,65,9999,9999,9999,1143186508
21,11,7,Jits_ISO_8,66,9999,9999,9999,1143986260
21,11,7,Jits_ISO_8,67,9999,9999,9999,1144787028
21,11,7,Jits_ISO_8,68,9999,9999,9999,1145586760
21,11,7,Jits_ISO_8,69,9999,9999,9999,1146386512
21,11,7,Jits_ISO_8,70,9999,9999,9999,1147186264
21,11,7,Jits_ISO_8,71,9999,9999,9999,1147987012
21,11,7,Jits_ISO_8,72,9999,9999,9999,1148786752
21,11,7,Jits_ISO_8,73,9999,9999,9999,1149586512
21,11,7,Jits_ISO_8,74,9999,9999,9999,1150386280
21,11,7,Jits_ISO_8,75,9999,9999,9999,1151187048
21,11,7,Jits_ISO_8,76,9999,9999,9999,1151986792
21,11,7,Jits_ISO_8,77,9999,9999,9999,1152786540
21,11,7,Jits_ISO_8,78,9999,9999,9999,1153586276
21,11,7,Jits_ISO_8,79,9999,9999,9999,1154387012
21,11,7,Jits_ISO_8,80,9999,9999,9999,1155186756
21,11,7,Jits_ISO_8,81,9999,9999,9999,1155986504
21,11,7,Jits_ISO_8,82,9999,9999,9999,1156786248
21,11,7,Jits_ISO_8,83,9999,9999,9999,1157587008
21,11,7,Jits_ISO_8,84,9999,9999,9999,1158386764
21,11,7,Jits_ISO_8,85,9999,9999,9999,1159186528
21,11,7,Jits_ISO_8,86,9999,9999,9999,1159986272
21,11,7,Jits_ISO_8,87,9999,9999,9999,1160787008
21,11,7,Jits_ISO_8,88,9999,9999,9999,1161586748
21,11,7,Jits_ISO_8,89,9999,9999,9999,1162386504
21,11,7,Jits_ISO_8,90,9999,9999,9999,1163186256
21,11,7,Jits_ISO_8,91,9999,9999,9999,1163987012
21,11,7,Jits_ISO_8,92,9999,9999,9999,1164786776
21,11,7,Jits_ISO_8,93,9999,9999,9999,1165586516
21,11,7,Jits_ISO_8,94,9999,9999,9999,1166386268
21,11,7,Jits_ISO_8,95,9999,9999,9999,1167187000
21,11,7,Jits_ISO_8,96,9999,9999,9999,1167986744
21,11,7,Jits_ISO_8,97,9999,9999,9999,1168786492
21,11,7,Jits_ISO_8,98,9999,9999,9999,1169586240
21,11,7,Jits_ISO_8,99,9999,9999,9999,1170387008
21,11,7,Jits_ISO_8,100,9999,9999,9999,1171186740
21,11,7,Jits_ISO_8,101,9999,9999,9999,1171986492
21,11,7,Jits_ISO_8,102,9999,9999,9999,1172786232
21,11,7,Jits_ISO_8,103,9999,9999,9999,1173587040
21,11,7,Jits_ISO_8,104,9999,9999,9999,1174386788
21,11,7,Jits_ISO_8,105,9999,9999,9999,1175186540
21,11,7,Jits_ISO_8,106,9999,9999,9999,1175986276
21,11,7,Jits_ISO_8,107,9999,9999,9999,1176787024
21,11,7,Jits_ISO_8,108,9999,9999,9999,1177586772
21,11,7,Jits_ISO_8,109,9999,9999,9999,1178386516
21,11,7,Jits_ISO_8,110,9999,9999,9999,1179186264
21,11,7,Jits_ISO_8,111,9999,9999,9999,1179987004
21,11,7,Jits_ISO_8,112,9999,9999,9999,1180786760
21,11,7,Jits_ISO_8,113,9999,9999,9999,1181586520
21,11,7,Jits_ISO_8,114,9999,9999,9999,1182386276
21,11,7,Jits_ISO_8,115,9999,9999,9999,1183187036
21,11,7,Jits_ISO_8,116,9999,9999,9999,1183986792
21,11,7,Jits_ISO_8,117,9999,9999,9999,1184786544
21,11,7,Jits_ISO_8,118,9999,9999,9999,1185586292
21,11,7,Jits_ISO_8,119,9999,9999,9999,1186387036
21,12,16,Jits_ISO_5,0,5,56,103,1205336596
21,12,16,Jits_ISO_5,1,5,63,98,1205339524
21,12,16,Jits_ISO_5,2,5,80,127,1205343012
21,12,16,Jits_ISO_5,0,5,56,103,1205837164
21,12,16,Jits_ISO_5,1,5,63,98,1205840244
21,12,16,Jits_ISO_5,2,5,80,127,1205843428
21,12,16,Jits_ISO_5,0,1,48,28,1206158156
21,12,16,Jits_ISO_5,1,5,56,103,1206336964
21,12,16,Jits_ISO_5,2,5,80,127,1206347208
21,12,16,Jits_ISO_5,3,5,63,98,1206366548
21,12,16,Jits_ISO_5,0,1,48,65,1206753080
21,12,16,Jits_ISO_5,1,5,63,98,1206786516
21,12,16,Jits_ISO_5,2,5,80,127,1206817316
21,12,16,Jits_ISO_5,3,5,56,103,1206827408
21,12,16,Jits_ISO_5,0,1,48,65,1207297476
21,12,16,Jits_ISO_5,1,5,80,127,1207346492
21,12,16,Jits_ISO_5,2,5,56,103,1207356884
21,12,16,Jits_ISO_5,3,5,63,98,1207386464
21,12,16,Jits_ISO_5,0,5,63,98,1207837300
21,12,16,Jits_ISO_5,1,1,48,68,1207864016
21,12,16,Jits_ISO_5,2,5,56,103,1207866648
21,12,16,Jits_ISO_5,3,5,80,127,1207877196
21,12,16,Jits_ISO_5,0,5,56,103,1208286532
21,12,16,Jits_ISO_5,1,5,63,98,1208336676
21,12,16,Jits_ISO_5,2,5,80,127,1208357156
21,12,16,Jits_ISO_5,3,1,48,74,1208363312
21,12,16,Jits_ISO_5,0,5,80,127,1208787212
21,12,16,Jits_ISO_5,1,5,63,98,1208836512
21,12,16,Jits_ISO_5,2,5,56,103,1208877324
21,12,16,Jits_ISO_5,3,1,48,70,1208878308
21,12,16,Jits_ISO_5,0,5,56,103,1209287096
21,12,16,Jits_ISO_5,1,5,63,98,1209316780
21,12,16,Jits_ISO_5,2,1,48,71,1209385388
21,12,16,Jits_ISO_5,3,5,80,127,1209387392
21,12,16,Jits_ISO_5,0,5,56,103,1209786780
21,12,16,Jits_ISO_5,1,5,80,127,1209847188
21,12,16,Jits_ISO_5,2,5,63,98,1209876920
21,12,16,Jits_ISO_5,3,1,48,66,1209884216
21,12,16,Jits_ISO_5,0,5,56,103,1210296708
21,12,16,Jits_ISO_5,1,5,63,98,1210307180
21,12,16,Jits_ISO_5,2,5,80,127,1210347104
21,12,16,Jits_ISO_5,3,1,48,67,1210377420
21,12,16,Jits_ISO_5,0,5,63,98,1210787220
21,12,16,Jits_ISO_5,1,1,48,78,1210850952
21,12,16,Jits_ISO_5,2,5,80,127,1210866956
21,12,16,Jits_ISO_5,3,5,56,103,1210877272
21,12,16,Jits_ISO_5,0,1,48,75,1211329048
21,12,16,Jits_ISO_5,1,5,63,98,1211337248
21,12,16,Jits_ISO_5,2,5,56,103,1211376936
21,12,16,Jits_ISO_5,3,5,80,127,1211380144
21,12,16,Jits_ISO_5,0,5,56,103,1211797096
21,12,16,Jits_ISO_5,1,5,63,98,1211807192
21,12,16,Jits_ISO_5,2,1,48,67,1211835524
21,12,16,Jits_ISO_5,3,5,80,127,1211847080
21,12,16,Jits_ISO_5,0,5,56,103,1212287296
21,12,16,Jits_ISO_5,1,5,63,98,1212290276
21,12,16,Jits_ISO_5,2,5,80,127,1212306868
21,12,16,Jits_ISO_5,3,1,48,61,1212323792
21,12,16,Jits_ISO_5,0,1,48,67,1212771352
21,12,16,Jits_ISO_5,1,5,80,127,1212797288
21,12,16,Jits_ISO_5,2,5,56,103,1212806464
21,12,16,Jits_ISO_5,3,5,63,98,1212877164
21,12,16,Jits_ISO_5,0,5,63,98,1213286876
21,12,16,Jits_ISO_5,1,1,48,61,1213301592
21,12,16,Jits_ISO_5,2,5,56,103,1213307276
21,12,16,Jits_ISO_5,3,5,80,127,1213387092
21,12,16,Jits_ISO_5,0,5,56,103,1213796940
21,12,16,Jits_ISO_5,1,1,48,63,1213803244
21,12,16,Jits_ISO_5,2,5,80,127,1213836828
21,12,16,Jits_ISO_5,3,5,63,98,1213847072
21,12,16,Jits_ISO_5,0,5,80,127,1214287148
21,12,16,Jits_ISO_5,1,5,63,98,1214316956
21,12,16,Jits_ISO_5,2,1,48,65,1214319984
21,12,16,Jits_ISO_5,3,5,56,103,1214356768
21,12,16,Jits_ISO_5,0,5,56,103,1214807464
21,12,16,Jits_ISO_5,1,1,48,64,1214812704
21,12,16,Jits_ISO_5,2,5,63,98,1214837040
21,12,16,Jits_ISO_5,3,5,80,127,1214887404
21,12,16,Jits_ISO_5,0,5,80,127,1215307076
21,12,16,Jits_ISO_5,1,1,48,73,1215317144
21,12,16,Jits_ISO_5,2,5,56,103,1215346968
21,12,16,Jits_ISO_5,3,5,63,98,1215357288
21,12,16,Jits_ISO_5,0,5,80,127,1215787272
21,12,16,Jits_ISO_5,1,1,48,67,1215821176
21,12,16,Jits_ISO_5,2,5,63,98,1215827240
21,12,16,Jits_ISO_5,3,5,56,103,1215886856
21,12,16,Jits_ISO_5,0,5,56,103,1216286960
21,12,16,Jits_ISO_5,1,5,80,127,1216297280
21,12,16,Jits_ISO_5,2,5,63,98,1216377148
21,12,16,Jits_ISO_5,3,1,48,64,1216378132
21,12,16,Jits_ISO_5,0,5,80,127,1216786796
21,12,16,Jits_ISO_5,1,5,63,98,1216847328
21,12,16,Jits_ISO_5,2,1,48,69,1216855256
21,12,16,Jits_ISO_5,3,5,56,103,1216876900
21,12,16,Jits_ISO_5,0,5,56,103,1217286784
21,12,16,Jits_ISO_5,1,5,80,127,1217346936
21,12,16,Jits_ISO_5,2,1,48,70,1217352176
21,12,16,Jits_ISO_5,3,5,63,98,1217386824
21,12,16,Jits_ISO_5,0,5,56,103,1217837372
21,12,16,Jits_ISO_5,1,5,63,98,1217846848
21,12,16,Jits_ISO_5,2,1,48,60,1217847852
21,12,16,Jits_ISO_5,3,5,80,127,1217851644
21,12,16,Jits_ISO_5,0,5,80,127,1218286908
21,12,16,Jits_ISO_5,1,1,48,65,1218362920
21,12,16,Jits_ISO_5,2,5,63,98,1218377088
21,12,16,Jits_ISO_5,3,5,56,103,1218387332
21,12,16,Jits_ISO_5,0,5,56,103,1218786964
21,12,16,Jits_ISO_5,1,5,63,98,1218789888
21,12,16,Jits_ISO_5,2,5,80,127,1218793068
21,12,16,Jits_ISO_5,3,1,48,63,1218877112
21,12,16,Jits_ISO_5,0,5,80,127,1219306892
21,12,16,Jits_ISO_5,1,5,63,98,1219357032
21,12,16,Jits_ISO_5,2,1,48,78,1219362728
21,12,16,Jits_ISO_5,3,5,56,103,1219386756
21,12,16,Jits_ISO_5,0,5,56,103,1219787088
21,12,16,Jits_ISO_5,1,5,80,127,1219797256
21,12,16,Jits_ISO_5,2,1,48,65,1219815040
21,12,16,Jits_ISO_5,3,5,63,98,1219866952
21,12,16,Jits_ISO_5,0,5,56,103,1220297140
21,12,16,Jits_ISO_5,1,1,48,69,1220314320
21,12,16,Jits_ISO_5,2,5,63,98,1220316628
21,12,16,Jits_ISO_5,3,5,80,127,1220376928
21,12,16,Jits_ISO_5,0,5,80,127,1220786788
21,12,16,Jits_ISO_5,1,1,48,57,1220809708
21,12,16,Jits_ISO_5,2,5,63,98,1220857576
21,12,16,Jits_ISO_5,3,5,56,103,1220876616
21,12,16,Jits_ISO_5,0,5,80,127,1221306732
21,12,16,Jits_ISO_5,1,5,56,103,1221317124
21,12,16,Jits_ISO_5,2,1,48,61,1221322392
21,12,16,Jits_ISO_5,3,5,63,98,1221327084
21,12,16,Jits_ISO_5,0,5,80,127,1221797544
21,12,16,Jits_ISO_5,1,1,48,56,1221798452
21,12,16,Jits_ISO_5,2,5,56,103,1221816728
21,12,16,Jits_ISO_5,3,5,63,98,1221887520
21,12,16,Jits_ISO_5,0,1,48,53,1222278088
21,12,16,Jits_ISO_5,1,5,56,103,1222307308
21,12,16,Jits_ISO_5,2,5,80,127,1222336816
21,12,16,Jits_ISO_5,3,5,63,98,1222357628
21,12,16,Jits_ISO_5,0,5,63,98,1222796672
21,12,16,Jits_ISO_5,1,1,48,55,1222818424
21,12,16,Jits_ISO_5,2,5,56,103,1222857044
21,12,16,Jits_ISO_5,3,5,80,127,1222886776
21,12,16,Jits_ISO_5,0,5,63,98,1223287060
21,12,16,Jits_ISO_5,1,5,80,127,1223290420
21,12,16,Jits_ISO_5,2,1,48,63,1223330060
21,12,16,Jits_ISO_5,3,5,56,103,1223377188
21,12,16,Jits_ISO_5,0,1,48,66,1223800148
21,12,16,Jits_ISO_5,1,5,56,103,1223807356
21,12,16,Jits_ISO_5,2,5,63,98,1223837088
21,12,16,Jits_ISO_5,3,5,80,127,1223876984
21,12,16,Jits_ISO_5,0,1,48,61,1224294000
21,12,16,Jits_ISO_5,1,5,63,98,1224306952
21,12,16,Jits_ISO_5,2,5,56,103,1224347004
21,12,16,Jits_ISO_5,3,5,80,127,1224366420
21,12,16,Jits_ISO_5,0,1,48,63,1224805232
21,12,16,Jits_ISO_5,1,5,63,98,1224816944
21,12,16,Jits_ISO_5,2,5,56,103,1224856844
21,12,16,Jits_ISO_5,3,5,80,127,1224867392
21,12,16,Jits_ISO_5,0,5,80,127,1225297488
21,12,16,Jits_ISO_5,1,1,48,60,1225309688
21,12,16,Jits_ISO_5,2,5,63,98,1225366808
21,12,16,Jits_ISO_5,3,5,56,103,1225387368
21,12,16,Jits_ISO_5,0,5,56,103,1225786784
21,12,16,Jits_ISO_5,1,5,80,127,1225807268
21,12,16,Jits_ISO_5,2,1,48,65,1225826884
21,12,16,Jits_ISO_5,3,5,63,98,1225847084
21,12,16,Jits_ISO_5,0,5,63,98,1226296788
21,12,16,Jits_ISO_5,1,1,48,60,1226303092
21,12,16,Jits_ISO_5,2,5,80,127,1226317188
21,12,16,Jits_ISO_5,3,5,56,103,1226357160
21,12,16,Jits_ISO_5,0,1,48,65,1226775104
21,12,16,Jits_ISO_5,1,5,63,98,1226797592
21,12,16,Jits_ISO_5,2,5,56,103,1226816780
21,12,16,Jits_ISO_5,3,5,80,127,1226827404
21,12,16,Jits_ISO_5,0,1,48,49,1227272472
21,12,16,Jits_ISO_5,1,5,80,127,1227297264
21,12,16,Jits_ISO_5,2,5,56,103,1227316604
21,12,16,Jits_ISO_5,3,5,63,98,1227347252
21,12,16,Jits_ISO_5,0,1,48,59,1227756400
21,12,16,Jits_ISO_5,1,5,56,103,1227866544
21,12,16,Jits_ISO_5,2,5,80,127,1227869440
21,12,16,Jits_ISO_5,3,5,63,98,1227887024
21,12,16,Jits_ISO_5,0,1,48,56,1228273256
21,12,16,Jits_ISO_5,1,5,63,98,1228287504
21,12,16,Jits_ISO_5,2,5,56,103,1228316936
21,12,16,Jits_ISO_5,3,5,80,127,1228376456
21,12,16,Jits_ISO_5,0,1,48,48,1228801064
21,12,16,Jits_ISO_5,1,5,63,98,1228866820
21,12,16,Jits_ISO_5,2,5,56,103,1228877140
21,12,16,Jits_ISO_5,3,5,80,127,1228887308
21,12,16,Jits_ISO_5,0,5,56,103,1229316436
21,12,16,Jits_ISO_5,1,1,48,54,1229322364
21,12,16,Jits_ISO_5,2,5,80,127,1229347384
21,12,16,Jits_ISO_5,3,5,63,98,1229357476
21,12,16,Jits_ISO_5,0,1,48,56,1229817696
21,12,16,Jits_ISO_5,1,5,63,98,1229857308
21,12,16,Jits_ISO_5,2,5,56,103,1229867476
21,12,16,Jits_ISO_5,3,5,80,127,1229886740
21,12,16,Jits_ISO_5,0,5,56,103,1230287516
21,12,16,Jits_ISO_5,1,1,48,54,1230324164
21,12,16,Jits_ISO_5,2,5,63,98,1230346588
21,12,16,Jits_ISO_5,3,5,80,127,1230350016
21,12,16,Jits_ISO_5,0,5,80,127,1230807520
21,12,16,Jits_ISO_5,1,1,48,63,1230813372
21,12,16,Jits_ISO_5,2,5,56,103,1230816536
21,12,16,Jits_ISO_5,3,5,63,98,1230887304
21,12,16,Jits_ISO_5,0,5,80,127,1231296940
21,12,16,Jits_ISO_5,1,1,48,57,1231322912
21,12,16,Jits_ISO_5,2,5,56,103,1231366432
21,12,16,Jits_ISO_5,3,5,63,98,1231376676
21,12,16,Jits_ISO_5,0,5,63,98,1231836624
21,12,16,Jits_ISO_5,1,5,56,103,1231846716
21,12,16,Jits_ISO_5,2,1,48,62,1231852412
21,12,16,Jits_ISO_5,3,5,80,127,1231867268
21,12,16,Jits_ISO_5,0,5,80,127,1232287276
21,12,16,Jits_ISO_5,1,1,48,61,1232330680
21,12,16,Jits_ISO_5,2,5,63,98,1232346532
21,12,16,Jits_ISO_5,3,5,56,103,1232386504
21,12,16,Jits_ISO_5,0,5,56,103,1232826788
21,12,16,Jits_ISO_5,1,5,63,98,1232837184
21,12,16,Jits_ISO_5,2,1,48,63,1232852308
21,12,16,Jits_ISO_5,3,5,80,127,1232877172
21,12,16,Jits_ISO_5,0,5,56,103,1233286500
21,12,16,Jits_ISO_5,1,5,80,127,1233317152
21,12,16,Jits_ISO_5,2,1,48,72,1233335924
21,12,16,Jits_ISO_5,3,5,63,98,1233367380
21,12,16,Jits_ISO_5,0,1,48,56,1233809156
21,12,16,Jits_ISO_5,1,5,56,103,1233827140
21,12,16,Jits_ISO_5,2,5,63,98,1233867056
21,12,16,Jits_ISO_5,3,5,80,127,1233870488
21,12,16,Jits_ISO_5,0,1,48,62,1234291084
21,12,16,Jits_ISO_5,1,5,56,103,1234327032
21,12,16,Jits_ISO_5,2,5,63,98,1234337276
21,12,16,Jits_ISO_5,3,5,80,127,1234356540
21,12,16,Jits_ISO_5,0,5,56,103,1234786576
21,12,16,Jits_ISO_5,1,5,80,127,1234789708
21,12,16,Jits_ISO_5,2,1,48,57,1234804724
21,12,16,Jits_ISO_5,3,5,63,98,1234826544
21,12,16,Jits_ISO_5,0,1,48,50,1235299524
21,12,16,Jits_ISO_5,1,5,63,98,1235327444
21,12,16,Jits_ISO_5,2,5,56,103,1235357100
21,12,16,Jits_ISO_5,3,5,80,127,1235376592
21,12,16,Jits_ISO_5,0,5,80,127,1235797544
21,12,16,Jits_ISO_5,1,1,48,63,1235798988
21,12,16,Jits_ISO_5,2,5,56,103,1235806564
21,12,16,Jits_ISO_5,3,5,63,98,1235816880
21,12,16,Jits_ISO_5,0,5,56,103,1236297228
21,12,16,Jits_ISO_5,1,1,48,49,1236299880
21,12,16,Jits_ISO_5,2,5,80,127,1236337196
21,12,16,Jits_ISO_5,3,5,63,98,1236366776
21,12,16,Jits_ISO_5,0,5,63,98,1236807080
21,12,16,Jits_ISO_5,1,1,48,59,1236809880
21,12,16,Jits_ISO_5,2,5,80,127,1236817164
21,12,16,Jits_ISO_5,3,5,56,103,1236826416
21,12,16,Jits_ISO_5,0,5,56,103,1237287256
21,12,16,Jits_ISO_5,1,1,48,63,1237348528
21,12,16,Jits_ISO_5,2,5,63,98,1237356956
21,12,16,Jits_ISO_5,3,5,80,127,1237367124
21,12,16,Jits_ISO_5,0,5,80,127,1237787020
21,12,16,Jits_ISO_5,1,5,56,103,1237797264
21,12,16,Jits_ISO_5,2,5,63,98,1237847552
21,12,16,Jits_ISO_5,3,1,48,62,1237863336
21,12,16,Jits_ISO_5,0,5,80,127,1238296944
21,12,16,Jits_ISO_5,1,1,48,65,1238345912
21,12,16,Jits_ISO_5,2,5,56,103,1238357316
21,12,16,Jits_ISO_5,3,5,63,98,1238387124
21,12,16,Jits_ISO_5,0,5,56,103,1238796856
21,12,16,Jits_ISO_5,1,1,48,62,1238798316
21,12,16,Jits_ISO_5,2,5,80,127,1238801040
21,12,16,Jits_ISO_5,3,5,63,98,1238836816
21,12,16,Jits_ISO_5,0,1,48,60,1239315076
21,12,16,Jits_ISO_5,1,5,56,103,1239327172
21,12,16,Jits_ISO_5,2,5,63,98,1239356756
21,12,16,Jits_ISO_5,3,5,80,127,1239366996
21,12,16,Jits_ISO_5,0,1,48,50,1239828812
21,12,16,Jits_ISO_5,1,5,63,98,1239837012
21,12,16,Jits_ISO_5,2,5,80,127,1239847332
21,12,16,Jits_ISO_5,3,5,56,103,1239856432
21,12,16,Jits_ISO_5,0,5,80,127,1240286628
21,12,16,Jits_ISO_5,1,5,56,103,1240336916
21,12,16,Jits_ISO_5,2,1,48,54,1240338916
21,12,16,Jits_ISO_5,3,5,63,98,1240341328
21,12,16,Jits_ISO_5,0,5,56,103,1240816952
21,12,16,Jits_ISO_5,1,5,80,127,1240836520
21,12,16,Jits_ISO_5,2,5,63,98,1240846688
21,12,16,Jits_ISO_5,3,1,48,65,1240867220
21,12,16,Jits_ISO_5,0,5,63,98,1241297220
21,12,16,Jits_ISO_5,1,5,56,103,1241326956
21,12,16,Jits_ISO_5,2,1,48,64,1241339996
21,12,16,Jits_ISO_5,3,5,80,127,1241346364
21,12,16,Jits_ISO_5,0,5,56,103,1241807208
21,12,16,Jits_ISO_5,1,1,48,55,1241813060
21,12,16,Jits_ISO_5,2,5,80,127,1241816452
21,12,16,Jits_ISO_5,3,5,63,98,1241886996
21,12,16,Jits_ISO_5,0,1,48,58,1242280616
21,12,16,Jits_ISO_5,1,5,63,98,1242296848
21,12,16,Jits_ISO_5,2,5,80,127,1242336848
21,12,16,Jits_ISO_5,3,5,56,103,1242376728
21,12,16,Jits_ISO_5,0,5,56,103,1242806768
21,12,16,Jits_ISO_5,1,1,48,57,1242811476
21,12,16,Jits_ISO_5,2,5,63,98,1242817004
21,12,16,Jits_ISO_5,3,5,80,127,1242837360
21,12,16,Jits_ISO_5,0,1,48,61,1243299540
21,12,16,Jits_ISO_5,1,5,63,98,1243347360
21,12,16,Jits_ISO_5,2,5,80,127,1243366776
21,12,16,Jits_ISO_5,3,5,56,103,1243387260
21,12,16,Jits_ISO_5,0,5,56,103,1243786556
21,12,16,Jits_ISO_5,1,1,48,63,1243852888
21,12,16,Jits_ISO_5,2,5,80,127,1243866748
21,12,16,Jits_ISO_5,3,5,63,98,1243876840
21,12,16,Jits_ISO_5,0,1,48,63,1244309828
21,12,16,Jits_ISO_5,1,5,80,127,1244327352
21,12,16,Jits_ISO_5,2,5,63,98,1244336604
21,12,16,Jits_ISO_5,3,5,56,103,1244367280
21,12,16,Jits_ISO_5,0,5,63,98,1244787136
21,12,16,Jits_ISO_5,1,1,48,58,1244800332
21,12,16,Jits_ISO_5,2,5,80,127,1244826952
21,12,16,Jits_ISO_5,3,5,56,103,1244887660
21,12,16,Jits_ISO_5,0,5,63,98,1245297204
21,12,16,Jits_ISO_5,1,5,56,103,1245347116
21,12,16,Jits_ISO_5,2,1,48,64,1245355028
21,12,16,Jits_ISO_5,3,5,80,127,1245376840
21,12,16,Jits_ISO_5,0,5,80,127,1245807040
21,12,16,Jits_ISO_5,1,5,63,98,1245817132
21,12,16,Jits_ISO_5,2,1,48,56,1245830780
21,12,16,Jits_ISO_5,3,5,56,103,1245886904
21,12,16,Jits_ISO_5,0,1,48,59,1246306548
21,12,16,Jits_ISO_5,1,5,80,127,1246377416
21,12,16,Jits_ISO_5,2,5,56,103,1246386664
21,12,16,Jits_ISO_5,3,5,63,98,1246389788
21,12,16,Jits_ISO_5,0,5,56,103,1246816560
21,12,16,Jits_ISO_5,1,1,48,55,1246833948
21,12,16,Jits_ISO_5,2,5,80,127,1246837040
21,12,16,Jits_ISO_5,3,5,63,98,1246847588
21,12,16,Jits_ISO_5,0,5,63,98,1247326720
21,12,16,Jits_ISO_5,1,1,48,32,1247363292
21,12,16,Jits_ISO_5,2,5,56,103,1247366684
21,12,16,Jits_ISO_5,3,1,38,16,1247371924
21,12,16,Jits_ISO_5,4,5,80,127,1247386936
21,12,16,Jits_ISO_5,0,5,63,98,1247827396
21,12,16,Jits_ISO_5,1,1,48,44,1247843412
21,12,16,Jits_ISO_5,2,5,56,103,1247886848
21,12,16,Jits_ISO_5,3,5,80,127,1247889748
21,12,16,Jits_ISO_5,0,5,56,103,1248287088
21,12,16,Jits_ISO_5,1,5,80,127,1248306580
21,12,16,Jits_ISO_5,2,1,48,53,1248343536
21,12,16,Jits_ISO_5,3,5,63,98,1248346472
21,12,16,Jits_ISO_5,0,5,56,103,1248816504
21,12,16,Jits_ISO_5,1,5,63,98,1248836988
21,12,16,Jits_ISO_5,2,5,80,127,1248847308
21,12,16,Jits_ISO_5,3,1,48,57,1248850640
21,12,16,Jits_ISO_5,0,5,80,127,1249286456
21,12,16,Jits_ISO_5,1,5,56,103,1249317484
21,12,16,Jits_ISO_5,2,5,63,98,1249357384
21,12,16,Jits_ISO_5,3,1,48,51,1249358364
21,12,16,Jits_ISO_5,0,5,80,127,1249796528
21,12,16,Jits_ISO_5,1,5,56,103,1249816860
21,12,16,Jits_ISO_5,2,5,63,98,1249877544
21,12,16,Jits_ISO_5,3,1,48,62,1249882092
21,12,16,Jits_ISO_5,0,5,56,103,1250306604
21,12,16,Jits_ISO_5,1,5,80,127,1250326940
21,12,16,Jits_ISO_5,2,1,48,60,1250354032
21,12,16,Jits_ISO_5,3,5,63,98,1250387384
21,12,16,Jits_ISO_5,0,5,80,127,1250786724
21,12,16,Jits_ISO_5,1,5,56,103,1250796892
21,12,16,Jits_ISO_5,2,5,63,98,1250836868
21,12,16,Jits_ISO_5,3,1,48,52,1250850516
21,12,16,Jits_ISO_5,0,5,63,98,1251287324
21,12,16,Jits_ISO_5,1,1,48,66,1251292412
21,12,16,Jits_ISO_5,2,5,56,103,1251327440
21,12,16,Jits_ISO_5,3,5,80,127,1251330568
21,12,16,Jits_ISO_5,0,5,63,98,1251806476
21,12,16,Jits_ISO_5,1,1,48,56,1251812172
21,12,16,Jits_ISO_5,2,5,80,127,1251846520
21,12,16,Jits_ISO_5,3,5,56,103,1251877472
21,12,16,Jits_ISO_5,0,1,48,66,1252268488
21,12,16,Jits_ISO_5,1,5,56,103,1252297120
21,12,16,Jits_ISO_5,2,5,63,98,1252307212
21,12,16,Jits_ISO_5,3,5,80,127,1252336944
21,12,16,Jits_ISO_5,0,1,48,56,1252771664
21,12,16,Jits_ISO_5,1,5,80,127,1252786596
21,12,16,Jits_ISO_5,2,5,63,98,1252857396
21,12,16,Jits_ISO_5,3,5,56,103,1252867008
21,12,16,Jits_ISO_5,0,5,63,98,1253287268
21,12,16,Jits_ISO_5,1,1,48,58,1253303204
21,12,16,Jits_ISO_5,2,5,56,103,1253356916
21,12,16,Jits_ISO_5,3,5,80,127,1253367388
21,12,16,Jits_ISO_5,0,5,63,98,1253787168
21,12,16,Jits_ISO_5,1,1,48,61,1253806128
21,12,16,Jits_ISO_5,2,5,56,103,1253807644
21,12,16,Jits_ISO_5,3,5,80,127,1253847416
21,12,16,Jits_ISO_5,0,5,56,103,1254297072
21,12,16,Jits_ISO_5,1,1,48,53,1254304372
21,12,16,Jits_ISO_5,2,5,63,98,1254307156
21,12,16,Jits_ISO_5,3,5,80,127,1254387276
21,12,16,Jits_ISO_5,0,1,48,58,1254773484
21,12,16,Jits_ISO_5,1,5,63,98,1254786360
21,12,16,Jits_ISO_5,2,5,56,103,1254817084
21,12,16,Jits_ISO_5,3,5,80,127,1254857232
21,12,16,Jits_ISO_5,0,1,48,59,1255265212
21,12,16,Jits_ISO_5,1,5,56,103,1255287324
21,12,16,Jits_ISO_5,2,5,63,98,1255327296
21,12,16,Jits_ISO_5,3,5,80,127,1255367356
21,12,16,Jits_ISO_5,0,5,80,127,1255787004
21,12,16,Jits_ISO_5,1,1,48,51,1255796992
21,12,16,Jits_ISO_5,2,5,56,103,1255866788
21,12,16,Jits_ISO_5,3,5,63,98,1255876956
21,12,16,Jits_ISO_5,0,1,48,59,1256293760
21,12,16,Jits_ISO_5,1,5,56,103,1256326576
21,12,16,Jits_ISO_5,2,5,63,98,1256329476
21,12,16,Jits_ISO_5,3,5,80,127,1256336816
21,12,16,Jits_ISO_5,0,1,48,49,1256794188
21,12,16,Jits_ISO_5,1,5,56,103,1256846652
21,12,16,Jits_ISO_5,2,5,63,98,1256867140
21,12,16,Jits_ISO_5,3,5,80,127,1256877536
21,12,16,Jits_ISO_5,0,5,63,98,1257306516
21,12,16,Jits_ISO_5,1,5,80,127,1257316912
21,12,16,Jits_ISO_5,2,1,48,61,1257329492
21,12,16,Jits_ISO_5,3,5,56,103,1257337160
21,12,16,Jits_ISO_5,0,5,63,98,1257807180
21,12,16,Jits_ISO_5,1,1,48,47,1257852544
21,12,16,Jits_ISO_5,2,5,56,103,1257887268
21,12,16,Jits_ISO_5,3,5,80,127,1257890320
21,12,16,Jits_ISO_5,0,1,48,48,1258300552
21,12,16,Jits_ISO_5,1,5,63,98,1258306996
21,12,16,Jits_ISO_5,2,5,56,103,1258327404
21,12,16,Jits_ISO_5,3,5,80,127,1258357136
21,12,16,Jits_ISO_5,0,1,48,60,1258782024
21,12,16,Jits_ISO_5,1,5,56,103,1258806740
21,12,16,Jits_ISO_5,2,5,63,98,1258827224
21,12,16,Jits_ISO_5,3,5,80,127,1258837316
21,12,16,Jits_ISO_5,0,1,48,53,1259300800
21,12,16,Jits_ISO_5,1,5,56,103,1259336984
21,12,16,Jits_ISO_5,2,5,63,98,1259367016
21,12,16,Jits_ISO_5,3,5,80,127,1259370292
21,12,16,Jits_ISO_5,0,5,56,103,1259786592
21,12,16,Jits_ISO_5,1,5,63,98,1259826492
21,12,16,Jits_ISO_5,2,1,48,56,1259853432
21,12,16,Jits_ISO_5,3,5,80,127,1259886864
21,12,16,Jits_ISO_5,0,5,56,103,1260306988
21,12,16,Jits_ISO_5,1,1,48,61,1260314840
21,12,16,Jits_ISO_5,2,5,63,98,1260316996
21,12,16,Jits_ISO_5,3,5,80,127,1260376456
21,12,16,Jits_ISO_5,0,5,56,103,1260806520
21,12,16,Jits_ISO_5,1,1,48,55,1260809324
21,12,16,Jits_ISO_5,2,5,80,127,1260827076
21,12,16,Jits_ISO_5,3,5,63,98,1260856656
21,12,16,Jits_ISO_5,0,1,48,56,1261303560
21,12,16,Jits_ISO_5,1,5,80,127,1261307340
21,12,16,Jits_ISO_5,2,5,56,103,1261316364
21,12,16,Jits_ISO_5,3,5,63,98,1261337076
21,12,16,Jits_ISO_5,0,5,63,98,1261796852
21,12,16,Jits_ISO_5,1,1,48,38,1261804612
21,12,16,Jits_ISO_5,2,5,80,127,1261876488
21,12,16,Jits_ISO_5,3,5,56,103,1261887032
21,12,16,Jits_ISO_5,0,1,48,54,1262315300
21,12,16,Jits_ISO_5,1,5,80,127,1262356824
21,12,16,Jits_ISO_5,2,5,56,103,1262377220
21,12,16,Jits_ISO_5,3,5,63,98,1262380352
21,12,16,Jits_ISO_5,0,5,63,98,1262826988
21,12,16,Jits_ISO_5,1,5,80,127,1262830264
21,12,16,Jits_ISO_5,2,1,48,53,1262860272
21,12,16,Jits_ISO_5,3,5,56,103,1262887356
21,12,16,Jits_ISO_5,0,5,56,103,1263307016
21,12,16,Jits_ISO_5,1,5,80,127,1263317412
21,12,16,Jits_ISO_5,2,5,63,98,1263357232
21,12,16,Jits_ISO_5,3,1,48,52,1263370272
21,12,16,Jits_ISO_5,0,5,56,103,1263787336
21,12,16,Jits_ISO_5,1,5,63,98,1263846900
21,12,16,Jits_ISO_5,2,1,48,56,1263855212
21,12,16,Jits_ISO_5,3,5,80,127,1263856984
21,12,16,Jits_ISO_5,0,5,63,98,1264297264
21,12,16,Jits_ISO_5,1,1,48,59,1264306024
21,12,16,Jits_ISO_5,2,5,80,127,1264337252
21,12,16,Jits_ISO_5,3,5,56,103,1264377152
21,12,16,Jits_ISO_5,0,1,48,50,1264796860
21,12,16,Jits_ISO_5,1,5,56,103,1264798448
21,12,16,Jits_ISO_5,2,5,63,98,1264876968
21,12,16,Jits_ISO_5,3,5,80,127,1264880320
21,12,16,Jits_ISO_5,0,9999,9999,9999,1205584960
21,12,16,Jits_ISO_5,1,9999,9999,9999,1206084688
21,12,16,Jits_ISO_5,2,9999,9999,9999,1206584412
21,12,16,Jits_ISO_5,3,9999,9999,9999,1207084156
21,12,16,Jits_ISO_5,4,9999,9999,9999,1207584824
21,12,16,Jits_ISO_5,5,9999,9999,9999,1208084572
21,12,16,Jits_ISO_5,6,9999,9999,9999,1208584244
21,12,16,Jits_ISO_5,7,9999,9999,9999,1209084996
21,12,16,Jits_ISO_5,8,9999,9999,9999,1209584756
21,12,16,Jits_ISO_5,9,9999,9999,9999,1210084440
21,12,16,Jits_ISO_5,10,9999,9999,9999,1210584124
21,12,16,Jits_ISO_5,11,9999,9999,9999,1211084880
21,12,16,Jits_ISO_5,12,9999,9999,9999,1211584596
21,12,16,Jits_ISO_5,13,9999,9999,9999,1212084336
21,12,16,Jits_ISO_5,14,9999,9999,9999,1212585076
21,12,16,Jits_ISO_5,15,9999,9999,9999,1213084764
21,12,16,Jits_ISO_5,16,9999,9999,9999,1213584432
21,12,16,Jits_ISO_5,17,9999,9999,9999,1214084180
21,12,16,Jits_ISO_5,18,9999,9999,9999,1214584932
21,12,16,Jits_ISO_5,19,9999,9999,9999,1215084620
21,12,16,Jits_ISO_5,20,9999,9999,9999,1215584380
21,12,16,Jits_ISO_5,21,9999,9999,9999,1216085060
21,12,16,Jits_ISO_5,22,9999,9999,9999,1216584820
21,12,16,Jits_ISO_5,23,9999,9999,9999,1217084504
21,12,16,Jits_ISO_5,24,9999,9999,9999,1217584192
21,12,16,Jits_ISO_5,25,9999,9999,9999,1218084936
21,12,16,Jits_ISO_5,26,9999,9999,9999,1218584696
21,12,16,Jits_ISO_5,27,9999,9999,9999,1219084360
21,12,16,Jits_ISO_5,28,9999,9999,9999,1219584124
21,12,16,Jits_ISO_5,29,9999,9999,9999,1220084796
21,12,16,Jits_ISO_5,30,9999,9999,9999,1220584536
21,12,16,Jits_ISO_5,31,9999,9999,9999,1221084220
21,12,16,Jits_ISO_5,32,9999,9999,9999,1221584976
21,12,16,Jits_ISO_5,33,9999,9999,9999,1222084712
21,12,16,Jits_ISO_5,34,9999,9999,9999,1222584392
21,12,16,Jits_ISO_5,35,9999,9999,9999,1223084116
21,12,16,Jits_ISO_5,36,9999,9999,9999,1223584844
21,12,16,Jits_ISO_5,37,9999,9999,9999,1224084592
21,12,16,Jits_ISO_5,38,9999,9999,9999,1224584268
21,12,16,Jits_ISO_5,39,9999,9999,9999,1225084984
21,12,16,Jits_ISO_5,40,9999,9999,9999,1225584736
21,12,16,Jits_ISO_5,41,9999,9999,9999,1226084420
21,12,16,Jits_ISO_5,42,9999,9999,9999,1226584180
21,12,16,Jits_ISO_5,43,9999,9999,9999,1227084916
21,12,16,Jits_ISO_5,44,9999,9999,9999,1227584588
21,12,16,Jits_ISO_5,45,9999,9999,9999,1228084332
21,12,16,Jits_ISO_5,46,9999,9999,9999,1228585072
21,12,16,Jits_ISO_5,47,9999,9999,9999,1229084748
21,12,16,Jits_ISO_5,48,9999,9999,9999,1229584496
21,12,16,Jits_ISO_5,49,9999,9999,9999,1230084184
21,12,16,Jits_ISO_5,50,9999,9999,9999,1230584912
21,12,16,Jits_ISO_5,51,9999,9999,9999,1231084596
21,12,16,Jits_ISO_5,52,9999,9999,9999,1231584360
21,12,16,Jits_ISO_5,53,9999,9999,9999,1232085112
21,12,16,Jits_ISO_5,54,9999,9999,9999,1232584788
21,12,16,Jits_ISO_5,55,9999,9999,9999,1233084528
21,12,16,Jits_ISO_5,56,9999,9999,9999,1233584212
21,12,16,Jits_ISO_5,57,9999,9999,9999,1234084956
21,12,16,Jits_ISO_5,58,9999,9999,9999,1234584700
21,12,16,Jits_ISO_5,59,9999,9999,9999,1235084360
21,12,16,Jits_ISO_5,60,9999,9999,9999,1235584124
21,12,16,Jits_ISO_5,61,9999,9999,9999,1236084860
21,12,16,Jits_ISO_5,62,9999,9999,9999,1236584548
21,12,16,Jits_ISO_5,63,9999,9999,9999,1237084228
21,12,16,Jits_ISO_5,64,9999,9999,9999,1237584968
21,12,16,Jits_ISO_5,65,9999,9999,9999,1238084728
21,12,16,Jits_ISO_5,66,9999,9999,9999,1238584416
21,12,16,Jits_ISO_5,67,9999,9999,9999,1239084088
21,12,16,Jits_ISO_5,68,9999,9999,9999,1239584844
21,12,16,Jits_ISO_5,69,9999,9999,9999,1240084592
21,12,16,Jits_ISO_5,70,9999,9999,9999,1240584252
21,12,16,Jits_ISO_5,71,9999,9999,9999,1241085004
21,12,16,Jits_ISO_5,72,9999,9999,9999,1241584692
21,12,16,Jits_ISO_5,73,9999,9999,9999,1242084436
21,12,16,Jits_ISO_5,74,9999,9999,9999,1242584124
21,12,16,Jits_ISO_5,75,9999,9999,9999,1243084860
21,12,16,Jits_ISO_5,76,9999,9999,9999,1243584600
21,12,16,Jits_ISO_5,77,9999,9999,9999,1244084344
21,12,16,Jits_ISO_5,78,9999,9999,9999,1244585024
21,12,16,Jits_ISO_5,79,9999,9999,9999,1245084772
21,12,16,Jits_ISO_5,80,9999,9999,9999,1245584448
21,12,16,Jits_ISO_5,81,9999,9999,9999,1246084192
21,12,16,Jits_ISO_5,82,9999,9999,9999,1246584944
21,12,16,Jits_ISO_5,83,9999,9999,9999,1247084620
21,12,16,Jits_ISO_5,84,9999,9999,9999,1247584348
21,12,16,Jits_ISO_5,85,9999,9999,9999,1248085052
21,12,16,Jits_ISO_5,86,9999,9999,9999,1248584796
21,12,16,Jits_ISO_5,87,9999,9999,9999,1249084480
21,12,16,Jits_ISO_5,88,9999,9999,9999,1249584240
21,12,16,Jits_ISO_5,89,9999,9999,9999,1250084912
21,12,16,Jits_ISO_5,90,9999,9999,9999,1250584676
21,12,16,Jits_ISO_5,91,9999,9999,9999,1251084360
21,12,16,Jits_ISO_5,92,9999,9999,9999,1251584108
21,12,16,Jits_ISO_5,93,9999,9999,9999,1252084852
21,12,16,Jits_ISO_5,94,9999,9999,9999,1252584520
21,12,16,Jits_ISO_5,95,9999,9999,9999,1253084268
21,12,16,Jits_ISO_5,96,9999,9999,9999,1253585008
21,12,16,Jits_ISO_5,97,9999,9999,9999,1254084724
21,12,16,Jits_ISO_5,98,9999,9999,9999,1254584388
21,12,16,Jits_ISO_5,99,9999,9999,9999,1255084152
21,12,16,Jits_ISO_5,100,9999,9999,9999,1255584888
21,12,16,Jits_ISO_5,101,9999,9999,9999,1256084564
21,12,16,Jits_ISO_5,102,9999,9999,9999,1256584244
21,12,16,Jits_ISO_5,103,9999,9999,9999,1257084988
21,12,16,Jits_ISO_5,104,9999,9999,9999,1257584736
21,12,16,Jits_ISO_5,105,9999,9999,9999,1258084408
21,12,16,Jits_ISO_5,106,9999,9999,9999,1258584156
21,12,16,Jits_ISO_5,107,9999,9999,9999,1259084892
21,12,16,Jits_ISO_5,108,9999,9999,9999,1259584632
21,12,16,Jits_ISO_5,109,9999,9999,9999,1260084304
21,12,16,Jits_ISO_5,110,9999,9999,9999,1260585056
21,12,16,Jits_ISO_5,111,9999,9999,9999,1261084740
21,12,16,Jits_ISO_5,112,9999,9999,9999,1261584500
21,12,16,Jits_ISO_5,113,9999,9999,9999,1262084172
21,12,16,Jits_ISO_5,114,9999,9999,9999,1262584908
21,12,16,Jits_ISO_5,115,9999,9999,9999,1263084648
21,12,16,Jits_ISO_5,116,9999,9999,9999,1263584316
21,12,16,Jits_ISO_5,117,9999,9999,9999,1264085072
21,12,16,Jits_ISO_5,118,9999,9999,9999,1264584760
21,12,16,Jits_ISO_5,119,9999,9999,9999,1265084472
21,13,18,Jits_Linear_8,0,5,56,103,1277141332
21,13,18,Jits_Linear_8,1,5,63,98,1277144640
21,13,18,Jits_Linear_8,2,5,80,127,1277147592
21,13,18,Jits_Linear_8,0,1,48,38,1277783244
21,13,18,Jits_Linear_8,1,5,56,103,1277960744
21,13,18,Jits_Linear_8,2,5,63,98,1277963980
21,13,18,Jits_Linear_8,3,5,80,127,1277967084
21,13,18,Jits_Linear_8,0,5,80,127,1278721324
21,13,18,Jits_Linear_8,1,1,48,51,1278758276
21,13,18,Jits_Linear_8,2,5,63,98,1278810516
21,13,18,Jits_Linear_8,3,5,56,103,1278820684
21,13,18,Jits_Linear_8,0,5,56,103,1279561304
21,13,18,Jits_Linear_8,1,5,63,98,1279571320
21,13,18,Jits_Linear_8,2,1,48,62,1279574424
21,13,18,Jits_Linear_8,3,5,80,127,1279661500
21,13,18,Jits_Linear_8,0,5,63,98,1280350540
21,13,18,Jits_Linear_8,1,5,80,127,1280381188
21,13,18,Jits_Linear_8,2,1,48,59,1280393388
21,13,18,Jits_Linear_8,3,5,56,103,1280411068
21,13,18,Jits_Linear_8,0,1,48,58,1281115016
21,13,18,Jits_Linear_8,1,5,56,103,1281171148
21,13,18,Jits_Linear_8,2,5,80,127,1281270984
21,13,18,Jits_Linear_8,3,5,63,98,1281321276
21,13,18,Jits_Linear_8,0,5,56,103,1281980936
21,13,18,Jits_Linear_8,1,5,80,127,1282031256
21,13,18,Jits_Linear_8,2,1,48,62,1282045744
21,13,18,Jits_Linear_8,3,5,63,98,1282071144
21,13,18,Jits_Linear_8,0,1,48,61,1282808512
21,13,18,Jits_Linear_8,1,5,80,127,1282820548
21,13,18,Jits_Linear_8,2,5,63,98,1282851276
21,13,18,Jits_Linear_8,3,5,56,103,1282920892
21,13,18,Jits_Linear_8,0,1,48,67,1283627308
21,13,18,Jits_Linear_8,1,5,63,98,1283661276
21,13,18,Jits_Linear_8,2,5,56,103,1283691088
21,13,18,Jits_Linear_8,3,5,80,127,1283751300
21,13,18,Jits_Linear_8,0,5,56,103,1284410904
21,13,18,Jits_Linear_8,1,5,80,127,1284414028
21,13,18,Jits_Linear_8,2,1,48,58,1284417284
21,13,18,Jits_Linear_8,3,5,63,98,1284530568
21,13,18,Jits_Linear_8,0,1,48,59,1285214840
21,13,18,Jits_Linear_8,1,5,56,103,1285291380
21,13,18,Jits_Linear_8,2,5,80,127,1285331292
21,13,18,Jits_Linear_8,3,5,63,98,1285340544
21,13,18,Jits_Linear_8,0,5,56,103,1286051256
21,13,18,Jits_Linear_8,1,1,48,64,1286062848
21,13,18,Jits_Linear_8,2,5,80,127,1286070896
21,13,18,Jits_Linear_8,3,5,63,98,1286150416
21,13,18,Jits_Linear_8,0,5,80,127,1286840948
21,13,18,Jits_Linear_8,1,1,48,71,1286904460
21,13,18,Jits_Linear_8,2,5,56,103,1286941020
21,13,18,Jits_Linear_8,3,5,63,98,1286951344
21,13,18,Jits_Linear_8,0,5,63,98,1287610696
21,13,18,Jits_Linear_8,1,5,80,127,1287671104
21,13,18,Jits_Linear_8,2,5,56,103,1287681348
21,13,18,Jits_Linear_8,3,1,48,60,1287735732
21,13,18,Jits_Linear_8,0,5,56,103,1288410784
21,13,18,Jits_Linear_8,1,1,48,67,1288479312
21,13,18,Jits_Linear_8,2,5,63,98,1288481012
21,13,18,Jits_Linear_8,3,5,80,127,1288484372
21,13,18,Jits_Linear_8,0,5,63,98,1289240972
21,13,18,Jits_Linear_8,1,1,48,61,1289247584
21,13,18,Jits_Linear_8,2,5,56,103,1289291108
21,13,18,Jits_Linear_8,3,5,80,127,1289294228
21,13,18,Jits_Linear_8,0,5,56,103,1289990732
21,13,18,Jits_Linear_8,1,5,80,127,1289993632
21,13,18,Jits_Linear_8,2,5,63,98,1290080768
21,13,18,Jits_Linear_8,3,1,48,67,1290081752
21,13,18,Jits_Linear_8,0,1,48,58,1290775712
21,13,18,Jits_Linear_8,1,5,63,98,1290821068
21,13,18,Jits_Linear_8,2,5,56,103,1290911168
21,13,18,Jits_Linear_8,3,5,80,127,1290940824
21,13,18,Jits_Linear_8,0,1,48,66,1291543380
21,13,18,Jits_Linear_8,1,5,56,103,1291601268
21,13,18,Jits_Linear_8,2,5,63,98,1291700692
21,13,18,Jits_Linear_8,3,5,80,127,1291731216
21,13,18,Jits_Linear_8,0,1,48,55,1292361040
21,13,18,Jits_Linear_8,1,5,63,98,1292411352
21,13,18,Jits_Linear_8,2,5,56,103,1292420608
21,13,18,Jits_Linear_8,3,5,80,127,1292510728
21,13,18,Jits_Linear_8,0,1,48,65,1293199328
21,13,18,Jits_Linear_8,1,5,63,98,1293210968
21,13,18,Jits_Linear_8,2,5,56,103,1293290784
21,13,18,Jits_Linear_8,3,5,80,127,1293293836
21,13,18,Jits_Linear_8,0,5,80,127,1293951572
21,13,18,Jits_Linear_8,1,5,63,98,1293970764
21,13,18,Jits_Linear_8,2,5,56,103,1294031396
21,13,18,Jits_Linear_8,3,1,48,70,1294044052
21,13,18,Jits_Linear_8,0,1,48,69,1294751704
21,13,18,Jits_Linear_8,1,5,56,103,1294770532
21,13,18,Jits_Linear_8,2,5,63,98,1294790960
21,13,18,Jits_Linear_8,3,5,80,127,1294794544
21,13,18,Jits_Linear_8,0,5,63,98,1295490344
21,13,18,Jits_Linear_8,1,1,48,65,1295512480
21,13,18,Jits_Linear_8,2,5,80,127,1295571456
21,13,18,Jits_Linear_8,3,5,56,103,1295580632
21,13,18,Jits_Linear_8,0,1,48,52,1296291024
21,13,18,Jits_Linear_8,1,5,63,98,1296292612
21,13,18,Jits_Linear_8,2,5,56,103,1296310736
21,13,18,Jits_Linear_8,3,5,80,127,1296360904
21,13,18,Jits_Linear_8,0,1,48,72,1297006896
21,13,18,Jits_Linear_8,1,5,80,127,1297070372
21,13,18,Jits_Linear_8,2,5,63,98,1297111348
21,13,18,Jits_Linear_8,3,5,56,103,1297130840
21,13,18,Jits_Linear_8,0,1,48,57,1297768208
21,13,18,Jits_Linear_8,1,5,56,103,1297880460
21,13,18,Jits_Linear_8,2,5,63,98,1297890704
21,13,18,Jits_Linear_8,3,5,80,127,1297911416
21,13,18,Jits_Linear_8,0,1,48,69,1298570128
21,13,18,Jits_Linear_8,1,5,56,103,1298580772
21,13,18,Jits_Linear_8,2,5,63,98,1298670976
21,13,18,Jits_Linear_8,3,5,80,127,1298731280
21,13,18,Jits_Linear_8,0,5,80,127,1299380700
21,13,18,Jits_Linear_8,1,1,48,57,1299382828
21,13,18,Jits_Linear_8,2,5,56,103,1299391012
21,13,18,Jits_Linear_8,3,5,63,98,1299460516
21,13,18,Jits_Linear_8,0,1,48,58,1300121588
21,13,18,Jits_Linear_8,1,5,63,98,1300181412
21,13,18,Jits_Linear_8,2,5,80,127,1300270444
21,13,18,Jits_Linear_8,3,5,56,103,1300280688
21,13,18,Jits_Linear_8,0,5,63,98,1300880736
21,13,18,Jits_Linear_8,1,1,48,66,1300917916
21,13,18,Jits_Linear_8,2,5,80,127,1300931416
21,13,18,Jits_Linear_8,3,5,56,103,1300991344
21,13,18,Jits_Linear_8,0,1,48,70,1301646052
21,13,18,Jits_Linear_8,1,5,56,103,1301671380
21,13,18,Jits_Linear_8,2,5,80,127,1301720332
21,13,18,Jits_Linear_8,3,5,63,98,1301740968
21,13,18,Jits_Linear_8,0,1,48,75,1302391864
21,13,18,Jits_Linear_8,1,5,56,103,1302401288
21,13,18,Jits_Linear_8,2,5,80,127,1302460680
21,13,18,Jits_Linear_8,3,5,63,98,1302530468
21,13,18,Jits_Linear_8,0,5,56,103,1303161312
21,13,18,Jits_Linear_8,1,1,48,62,1303165028
21,13,18,Jits_Linear_8,2,5,80,127,1303191040
21,13,18,Jits_Linear_8,3,5,63,98,1303220620
21,13,18,Jits_Linear_8,0,1,48,70,1303939280
21,13,18,Jits_Linear_8,1,5,56,103,1303961152
21,13,18,Jits_Linear_8,2,5,80,127,1303981412
21,13,18,Jits_Linear_8,3,5,63,98,1304040964
21,13,18,Jits_Linear_8,0,1,48,73,1304616956
21,13,18,Jits_Linear_8,1,5,80,127,1304800604
21,13,18,Jits_Linear_8,2,5,56,103,1304811000
21,13,18,Jits_Linear_8,3,5,63,98,1304821092
21,13,18,Jits_Linear_8,0,5,56,103,1305511328
21,13,18,Jits_Linear_8,1,1,48,65,1305533004
21,13,18,Jits_Linear_8,2,5,80,127,1305551396
21,13,18,Jits_Linear_8,3,5,63,98,1305581208
21,13,18,Jits_Linear_8,0,5,56,103,1306231088
21,13,18,Jits_Linear_8,1,5,63,98,1306260824
21,13,18,Jits_Linear_8,2,1,48,56,1306287688
21,13,18,Jits_Linear_8,3,5,80,127,1306300868
21,13,18,Jits_Linear_8,0,5,80,127,1306930740
21,13,18,Jits_Linear_8,1,5,63,98,1306980656
21,13,18,Jits_Linear_8,2,5,56,103,1307001216
21,13,18,Jits_Linear_8,3,1,48,41,1307048028
21,13,18,Jits_Linear_8,0,5,56,103,1307711100
21,13,18,Jits_Linear_8,1,1,48,59,1307734156
21,13,18,Jits_Linear_8,2,5,80,127,1307780576
21,13,18,Jits_Linear_8,3,5,63,98,1307840940
21,13,18,Jits_Linear_8,0,5,80,127,1308451192
21,13,18,Jits_Linear_8,1,1,48,46,1308485708
21,13,18,Jits_Linear_8,2,5,63,98,1308541376
21,13,18,Jits_Linear_8,3,5,56,103,1308560868
21,13,18,Jits_Linear_8,0,5,63,98,1309211080
21,13,18,Jits_Linear_8,1,1,48,54,1309226860
21,13,18,Jits_Linear_8,2,5,56,103,1309230564
21,13,18,Jits_Linear_8,3,5,80,127,1309271380
21,13,18,Jits_Linear_8,0,5,80,127,1309911324
21,13,18,Jits_Linear_8,1,5,63,98,1309930972
21,13,18,Jits_Linear_8,2,1,48,48,1309957836
21,13,18,Jits_Linear_8,3,5,56,103,1310010912
21,13,18,Jits_Linear_8,0,1,48,55,1310632624
21,13,18,Jits_Linear_8,1,5,63,98,1310640524
21,13,18,Jits_Linear_8,2,5,56,103,1310751204
21,13,18,Jits_Linear_8,3,5,80,127,1310754252
21,13,18,Jits_Linear_8,0,1,48,63,1311361912
21,13,18,Jits_Linear_8,1,5,63,98,1311401300
21,13,18,Jits_Linear_8,2,5,56,103,1311410624
21,13,18,Jits_Linear_8,3,5,80,127,1311413748
21,13,18,Jits_Linear_8,0,1,48,73,1312095228
21,13,18,Jits_Linear_8,1,5,56,103,1312121172
21,13,18,Jits_Linear_8,2,5,80,127,1312241028
21,13,18,Jits_Linear_8,3,5,63,98,1312280852
21,13,18,Jits_Linear_8,0,1,48,38,1312858248
21,13,18,Jits_Linear_8,1,5,56,103,1312870872
21,13,18,Jits_Linear_8,2,5,80,127,1312950748
21,13,18,Jits_Linear_8,3,5,63,98,1312971164
21,13,18,Jits_Linear_8,0,1,48,56,1313577960
21,13,18,Jits_Linear_8,1,5,56,103,1313600852
21,13,18,Jits_Linear_8,2,5,63,98,1313710668
21,13,18,Jits_Linear_8,3,5,80,127,1313713868
21,13,18,Jits_Linear_8,0,5,56,103,1314360720
21,13,18,Jits_Linear_8,1,1,48,52,1314365732
21,13,18,Jits_Linear_8,2,5,80,127,1314391516
21,13,18,Jits_Linear_8,3,5,63,98,1314410780
21,13,18,Jits_Linear_8,0,5,63,98,1315071672
21,13,18,Jits_Linear_8,1,5,56,103,1315080620
21,13,18,Jits_Linear_8,2,5,80,127,1315090712
21,13,18,Jits_Linear_8,3,1,48,59,1315111168
21,13,18,Jits_Linear_8,0,1,48,57,1315761924
21,13,18,Jits_Linear_8,1,5,80,127,1315781084
21,13,18,Jits_Linear_8,2,5,56,103,1315831072
21,13,18,Jits_Linear_8,3,5,63,98,1315871032
21,13,18,Jits_Linear_8,0,5,80,127,1316521436
21,13,18,Jits_Linear_8,1,1,48,55,1316526064
21,13,18,Jits_Linear_8,2,5,63,98,1316540924
21,13,18,Jits_Linear_8,3,5,56,103,1316590940
21,13,18,Jits_Linear_8,0,1,48,64,1317250288
21,13,18,Jits_Linear_8,1,5,80,127,1317251876
21,13,18,Jits_Linear_8,2,5,56,103,1317281084
21,13,18,Jits_Linear_8,3,5,63,98,1317350724
21,13,18,Jits_Linear_8,0,5,56,103,1318020400
21,13,18,Jits_Linear_8,1,5,80,127,1318030644
21,13,18,Jits_Linear_8,2,1,48,55,1318038724
21,13,18,Jits_Linear_8,3,5,63,98,1318070612
21,13,18,Jits_Linear_8,0,5,56,103,1318651412
21,13,18,Jits_Linear_8,1,5,63,98,1318670528
21,13,18,Jits_Linear_8,2,1,48,62,1318735760
21,13,18,Jits_Linear_8,3,5,80,127,1318741372
21,13,18,Jits_Linear_8,0,5,63,98,1319390508
21,13,18,Jits_Linear_8,1,1,48,60,1319395284
21,13,18,Jits_Linear_8,2,5,80,127,1319450960
21,13,18,Jits_Linear_8,3,5,56,103,1319470376
21,13,18,Jits_Linear_8,0,5,80,127,1320090960
21,13,18,Jits_Linear_8,1,5,56,103,1320120772
21,13,18,Jits_Linear_8,2,1,48,55,1320127536
21,13,18,Jits_Linear_8,3,5,63,98,1320151512
21,13,18,Jits_Linear_8,0,5,56,103,1320800544
21,13,18,Jits_Linear_8,1,1,48,55,1320839500
21,13,18,Jits_Linear_8,2,5,63,98,1320861224
21,13,18,Jits_Linear_8,3,5,80,127,1320920488
21,13,18,Jits_Linear_8,0,1,48,58,1321486168
21,13,18,Jits_Linear_8,1,5,80,127,1321530912
21,13,18,Jits_Linear_8,2,5,56,103,1321551324
21,13,18,Jits_Linear_8,3,5,63,98,1321620936
21,13,18,Jits_Linear_8,0,5,80,127,1322241480
21,13,18,Jits_Linear_8,1,1,48,51,1322242996
21,13,18,Jits_Linear_8,2,5,63,98,1322260892
21,13,18,Jits_Linear_8,3,5,56,103,1322290628
21,13,18,Jits_Linear_8,0,5,80,127,1322930560
21,13,18,Jits_Linear_8,1,5,63,98,1322950920
21,13,18,Jits_Linear_8,2,1,48,47,1322977248
21,13,18,Jits_Linear_8,3,5,56,103,1323010528
21,13,18,Jits_Linear_8,0,5,80,127,1323630896
21,13,18,Jits_Linear_8,1,1,48,58,1323660984
21,13,18,Jits_Linear_8,2,5,56,103,1323731272
21,13,18,Jits_Linear_8,3,5,63,98,1323761832
21,13,18,Jits_Linear_8,0,5,63,98,1324321228
21,13,18,Jits_Linear_8,1,5,80,127,1324371292
21,13,18,Jits_Linear_8,2,5,56,103,1324390712
21,13,18,Jits_Linear_8,3,1,48,51,1324394656
21,13,18,Jits_Linear_8,0,5,80,127,1325060448
21,13,18,Jits_Linear_8,1,1,48,58,1325063248
21,13,18,Jits_Linear_8,2,5,56,103,1325091240
21,13,18,Jits_Linear_8,3,5,63,98,1325094440
21,13,18,Jits_Linear_8,0,1,48,51,1325777476
21,13,18,Jits_Linear_8,1,5,63,98,1325790584
21,13,18,Jits_Linear_8,2,5,56,103,1325830484
21,13,18,Jits_Linear_8,3,5,80,127,1325851196
21,13,18,Jits_Linear_8,0,5,80,127,1326430516
21,13,18,Jits_Linear_8,1,1,48,55,1326493688
21,13,18,Jits_Linear_8,2,5,63,98,1326510380
21,13,18,Jits_Linear_8,3,5,56,103,1326551372
21,13,18,Jits_Linear_8,0,5,63,98,1327141180
21,13,18,Jits_Linear_8,1,5,80,127,1327221056
21,13,18,Jits_Linear_8,2,1,48,48,1327235004
21,13,18,Jits_Linear_8,3,5,56,103,1327240464
21,13,18,Jits_Linear_8,0,5,56,103,1327871396
21,13,18,Jits_Linear_8,1,5,63,98,1327880576
21,13,18,Jits_Linear_8,2,5,80,127,1327920396
21,13,18,Jits_Linear_8,3,1,48,63,1327941232
21,13,18,Jits_Linear_8,0,5,56,103,1328480524
21,13,18,Jits_Linear_8,1,5,80,127,1328483576
21,13,18,Jits_Linear_8,2,5,63,98,1328621332
21,13,18,Jits_Linear_8,3,1,48,49,1328630024
21,13,18,Jits_Linear_8,0,5,56,103,1329160752
21,13,18,Jits_Linear_8,1,5,63,98,1329250568
21,13,18,Jits_Linear_8,2,1,48,57,1329265208
21,13,18,Jits_Linear_8,3,5,80,127,1329321336
21,13,18,Jits_Linear_8,0,5,63,98,1329930496
21,13,18,Jits_Linear_8,1,5,80,127,1329934004
21,13,18,Jits_Linear_8,2,1,48,48,1329982436
21,13,18,Jits_Linear_8,3,5,56,103,1329991024
21,13,18,Jits_Linear_8,0,5,80,127,1330650468
21,13,18,Jits_Linear_8,1,5,56,103,1330670880
21,13,18,Jits_Linear_8,2,1,48,62,1330677032
21,13,18,Jits_Linear_8,3,5,63,98,1330681340
21,13,18,Jits_Linear_8,0,5,56,103,1331241260
21,13,18,Jits_Linear_8,1,5,63,98,1331250512
21,13,18,Jits_Linear_8,2,5,80,127,1331321136
21,13,18,Jits_Linear_8,3,1,48,53,1331345636
21,13,18,Jits_Linear_8,0,5,80,127,1331921340
21,13,18,Jits_Linear_8,1,5,56,103,1331970340
21,13,18,Jits_Linear_8,2,5,63,98,1332020556
21,13,18,Jits_Linear_8,3,1,48,65,1332046272
21,13,18,Jits_Linear_8,0,5,56,103,1332681148
21,13,18,Jits_Linear_8,1,5,63,98,1332691468
21,13,18,Jits_Linear_8,2,1,48,53,1332723924
21,13,18,Jits_Linear_8,3,5,80,127,1332731284
21,13,18,Jits_Linear_8,0,5,56,103,1333300528
21,13,18,Jits_Linear_8,1,5,63,98,1333340428
21,13,18,Jits_Linear_8,2,5,80,127,1333390948
21,13,18,Jits_Linear_8,3,1,48,60,1333393672
21,13,18,Jits_Linear_8,0,5,80,127,1333931440
21,13,18,Jits_Linear_8,1,5,56,103,1333980464
21,13,18,Jits_Linear_8,2,5,63,98,1334001100
21,13,18,Jits_Linear_8,3,1,48,41,1334041808
21,13,18,Jits_Linear_8,0,5,80,127,1334611292
21,13,18,Jits_Linear_8,1,5,63,98,1334670912
21,13,18,Jits_Linear_8,2,1,48,60,1334700772
21,13,18,Jits_Linear_8,3,5,56,103,1334750804
21,13,18,Jits_Linear_8,0,5,80,127,1335260504
21,13,18,Jits_Linear_8,1,5,56,103,1335300708
21,13,18,Jits_Linear_8,2,5,63,98,1335320892
21,13,18,Jits_Linear_8,3,1,48,39,1335340888
21,13,18,Jits_Linear_8,0,5,56,103,1335981380
21,13,18,Jits_Linear_8,1,5,80,127,1335990708
21,13,18,Jits_Linear_8,2,5,63,98,1336030712
21,13,18,Jits_Linear_8,3,1,48,49,1336032760
21,13,18,Jits_Linear_8,0,1,48,42,1336654400
21,13,18,Jits_Linear_8,1,5,56,103,1336710612
21,13,18,Jits_Linear_8,2,5,63,98,1336750416
21,13,18,Jits_Linear_8,3,5,80,127,1336753768
21,13,18,Jits_Linear_8,0,5,63,98,1337261488
21,13,18,Jits_Linear_8,1,5,80,127,1337301412
21,13,18,Jits_Linear_8,2,1,48,57,1337342428
21,13,18,Jits_Linear_8,3,5,56,103,1337370960
21,13,18,Jits_Linear_8,0,5,63,98,1337910604
21,13,18,Jits_Linear_8,1,5,56,103,1337990632
21,13,18,Jits_Linear_8,2,1,48,58,1338011852
21,13,18,Jits_Linear_8,3,5,80,127,1338050952
21,13,18,Jits_Linear_8,0,5,80,127,1338581652
21,13,18,Jits_Linear_8,1,5,63,98,1338630576
21,13,18,Jits_Linear_8,2,5,56,103,1338661376
21,13,18,Jits_Linear_8,3,1,48,64,1338678228
21,13,18,Jits_Linear_8,0,5,56,103,1339230528
21,13,18,Jits_Linear_8,1,5,63,98,1339280824
21,13,18,Jits_Linear_8,2,5,80,127,1339290916
21,13,18,Jits_Linear_8,3,1,48,49,1339315180
21,13,18,Jits_Linear_8,0,5,56,103,1339901204
21,13,18,Jits_Linear_8,1,1,48,51,1339943516
21,13,18,Jits_Linear_8,2,5,63,98,1340010956
21,13,18,Jits_Linear_8,3,5,80,127,1340031368
21,13,18,Jits_Linear_8,0,5,63,98,1340550620
21,13,18,Jits_Linear_8,1,5,80,127,1340600612
21,13,18,Jits_Linear_8,2,1,48,57,1340649300
21,13,18,Jits_Linear_8,3,5,56,103,1340690820
21,13,18,Jits_Linear_8,0,5,63,98,1341190720
21,13,18,Jits_Linear_8,1,5,80,127,1341221368
21,13,18,Jits_Linear_8,2,5,56,103,1341311560
21,13,18,Jits_Linear_8,3,1,48,61,1341322768
21,13,18,Jits_Linear_8,0,5,63,98,1341840724
21,13,18,Jits_Linear_8,1,5,56,103,1341850896
21,13,18,Jits_Linear_8,2,1,48,63,1341927768
21,13,18,Jits_Linear_8,3,5,80,127,1341951568
21,13,18,Jits_Linear_8,0,1,48,64,1342590500
21,13,18,Jits_Linear_8,1,5,63,98,1342592328
21,13,18,Jits_Linear_8,2,5,80,127,1342620996
21,13,18,Jits_Linear_8,3,5,56,103,1342650808
21,13,18,Jits_Linear_8,0,1,48,57,1343227664
21,13,18,Jits_Linear_8,1,5,80,127,1343250784
21,13,18,Jits_Linear_8,2,5,63,98,1343261104
21,13,18,Jits_Linear_8,3,5,56,103,1343290840
21,13,18,Jits_Linear_8,0,5,80,127,1343790588
21,13,18,Jits_Linear_8,1,5,63,98,1343811000
21,13,18,Jits_Linear_8,2,5,56,103,1343861440
21,13,18,Jits_Linear_8,3,1,48,56,1343918740
21,13,18,Jits_Linear_8,0,5,63,98,1344461420
21,13,18,Jits_Linear_8,1,5,80,127,1344520660
21,13,18,Jits_Linear_8,2,1,48,57,1344526968
21,13,18,Jits_Linear_8,3,5,56,103,1344540984
21,13,18,Jits_Linear_8,0,5,63,98,1345061288
21,13,18,Jits_Linear_8,1,5,56,103,1345111508
21,13,18,Jits_Linear_8,2,5,80,127,1345120532
21,13,18,Jits_Linear_8,3,1,48,65,1345186448
21,13,18,Jits_Linear_8,0,5,56,103,1345730960
21,13,18,Jits_Linear_8,1,5,80,127,1345741508
21,13,18,Jits_Linear_8,2,1,48,59,1345747132
21,13,18,Jits_Linear_8,3,5,63,98,1345840392
21,13,18,Jits_Linear_8,0,5,80,127,1346330920
21,13,18,Jits_Linear_8,1,5,63,98,1346341316
21,13,18,Jits_Linear_8,2,1,48,58,1346390968
21,13,18,Jits_Linear_8,3,5,56,103,1346491480
21,13,18,Jits_Linear_8,0,5,63,98,1346970928
21,13,18,Jits_Linear_8,1,5,80,127,1347010852
21,13,18,Jits_Linear_8,2,5,56,103,1347090800
21,13,18,Jits_Linear_8,3,1,48,49,1347203344
21,13,18,Jits_Linear_8,0,5,56,103,1347590460
21,13,18,Jits_Linear_8,1,5,80,127,1347690816
21,13,18,Jits_Linear_8,2,5,63,98,1347711380
21,13,18,Jits_Linear_8,3,1,48,54,1347743220
21,13,18,Jits_Linear_8,0,5,80,127,1348280612
21,13,18,Jits_Linear_8,1,5,56,103,1348291336
21,13,18,Jits_Linear_8,2,5,63,98,1348381144
21,13,18,Jits_Linear_8,3,1,48,51,1348406788
21,13,18,Jits_Linear_8,0,5,56,103,1348910560
21,13,18,Jits_Linear_8,1,5,63,98,1348931196
21,13,18,Jits_Linear_8,2,5,80,127,1349010916
21,13,18,Jits_Linear_8,3,1,48,55,1349021896
21,13,18,Jits_Linear_8,0,5,63,98,1349480712
21,13,18,Jits_Linear_8,1,5,56,103,1349571152
21,13,18,Jits_Linear_8,2,5,80,127,1349573748
21,13,18,Jits_Linear_8,3,1,48,44,1349650688
21,13,18,Jits_Linear_8,0,5,56,103,1350131268
21,13,18,Jits_Linear_8,1,5,80,127,1350190432
21,13,18,Jits_Linear_8,2,5,63,98,1350200676
21,13,18,Jits_Linear_8,3,1,48,56,1350235720
21,13,18,Jits_Linear_8,0,5,80,127,1350800712
21,13,18,Jits_Linear_8,1,5,56,103,1350811180
21,13,18,Jits_Linear_8,2,5,63,98,1350814304
21,13,18,Jits_Linear_8,3,1,48,51,1350927640
21,13,18,Jits_Linear_8,0,5,56,103,1351381420
21,13,18,Jits_Linear_8,1,5,80,127,1351390596
21,13,18,Jits_Linear_8,2,5,63,98,1351411308
21,13,18,Jits_Linear_8,3,1,48,69,1351511172
21,13,18,Jits_Linear_8,0,5,63,98,1351971136
21,13,18,Jits_Linear_8,1,5,80,127,1352030528
21,13,18,Jits_Linear_8,2,5,56,103,1352080668
21,13,18,Jits_Linear_8,3,1,48,60,1352116324
21,13,18,Jits_Linear_8,0,5,63,98,1352670552
21,13,18,Jits_Linear_8,1,5,56,103,1352681020
21,13,18,Jits_Linear_8,2,1,48,59,1352712940
21,13,18,Jits_Linear_8,3,5,80,127,1352731152
21,13,18,Jits_Linear_8,0,5,63,98,1353180460
21,13,18,Jits_Linear_8,1,5,80,127,1353201096
21,13,18,Jits_Linear_8,2,5,56,103,1353211188
21,13,18,Jits_Linear_8,3,1,48,48,1353374024
21,13,18,Jits_Linear_8,0,5,63,98,1353791016
21,13,18,Jits_Linear_8,1,5,80,127,1353794216
21,13,18,Jits_Linear_8,2,5,56,103,1353830836
21,13,18,Jits_Linear_8,3,1,48,54,1353999052
21,13,18,Jits_Linear_8,0,5,63,98,1354470920
21,13,18,Jits_Linear_8,1,5,80,127,1354500504
21,13,18,Jits_Linear_8,2,5,56,103,1354510900
21,13,18,Jits_Linear_8,3,1,48,48,1354629412
21,13,18,Jits_Linear_8,0,5,56,103,1355030964
21,13,18,Jits_Linear_8,1,5,80,127,1355060548
21,13,18,Jits_Linear_8,2,5,63,98,1355091276
21,13,18,Jits_Linear_8,3,1,48,54,1355228768
21,13,18,Jits_Linear_8,0,5,63,98,1355731308
21,13,18,Jits_Linear_8,1,5,56,103,1355771284
21,13,18,Jits_Linear_8,2,5,80,127,1355774332
21,13,18,Jits_Linear_8,3,1,48,35,1355804416
21,13,18,Jits_Linear_8,0,5,80,127,1356231124
21,13,18,Jits_Linear_8,1,5,56,103,1356310924
21,13,18,Jits_Linear_8,2,5,63,98,1356360988
21,13,18,Jits_Linear_8,3,1,48,50,1356391612
21,13,18,Jits_Linear_8,0,5,80,127,1356810832
21,13,18,Jits_Linear_8,1,5,56,103,1356831016
21,13,18,Jits_Linear_8,2,5,63,98,1356921128
21,13,18,Jits_Linear_8,3,1,48,52,1356975132
21,13,18,Jits_Linear_8,0,5,80,127,1357450916
21,13,18,Jits_Linear_8,1,5,63,98,1357490816
21,13,18,Jits_Linear_8,2,1,48,50,1357505868
21,13,18,Jits_Linear_8,3,5,56,103,1357530656
21,13,18,Jits_Linear_8,0,5,63,98,1358021016
21,13,18,Jits_Linear_8,1,1,48,49,1358081624
21,13,18,Jits_Linear_8,2,5,80,127,1358083064
21,13,18,Jits_Linear_8,3,5,56,103,1358111200
21,13,18,Jits_Linear_8,0,5,56,103,1358620960
21,13,18,Jits_Linear_8,1,5,80,127,1358650924
21,13,18,Jits_Linear_8,2,1,48,48,1358702640
21,13,18,Jits_Linear_8,3,5,63,98,1358740876
21,13,18,Jits_Linear_8,0,5,56,103,1359221224
21,13,18,Jits_Linear_8,1,1,48,57,1359269736
21,13,18,Jits_Linear_8,2,5,80,127,1359330848
21,13,18,Jits_Linear_8,3,5,63,98,1359361500
21,13,18,Jits_Linear_8,0,5,56,103,1359861116
21,13,18,Jits_Linear_8,1,1,48,53,1359897308
21,13,18,Jits_Linear_8,2,5,63,98,1359920652
21,13,18,Jits_Linear_8,3,5,80,127,1359951152
21,13,18,Jits_Linear_8,0,5,56,103,1360421188
21,13,18,Jits_Linear_8,1,1,48,49,1360488968
21,13,18,Jits_Linear_8,2,5,63,98,1360490736
21,13,18,Jits_Linear_8,3,5,80,127,1360511296
21,13,18,Jits_Linear_8,0,5,80,127,1360981328
21,13,18,Jits_Linear_8,1,5,63,98,1361000820
21,13,18,Jits_Linear_8,2,5,56,103,1361050964
21,13,18,Jits_Linear_8,3,1,48,46,1361090472
21,13,18,Jits_Linear_8,0,5,63,98,1361581432
21,13,18,Jits_Linear_8,1,5,80,127,1361590836
21,13,18,Jits_Linear_8,2,5,56,103,1361640772
21,13,18,Jits_Linear_8,3,1,48,60,1361663744
21,13,18,Jits_Linear_8,0,5,63,98,1362160920
21,13,18,Jits_Linear_8,1,1,48,58,1362201324
21,13,18,Jits_Linear_8,2,5,80,127,1362230620
21,13,18,Jits_Linear_8,3,5,56,103,1362250952
21,13,18,Jits_Linear_8,0,5,63,98,1362771252
21,13,18,Jits_Linear_8,1,1,48,46,1362773180
21,13,18,Jits_Linear_8,2,5,80,127,1362776132
21,13,18,Jits_Linear_8,3,5,56,103,1362840876
21,13,18,Jits_Linear_8,0,5,80,127,1363300652
21,13,18,Jits_Linear_8,1,5,56,103,1363321288
21,13,18,Jits_Linear_8,2,5,63,98,1363330464
21,13,18,Jits_Linear_8,3,1,48,59,1363355344
21,13,18,Jits_Linear_8,0,5,56,103,1363900756
21,13,18,Jits_Linear_8,1,1,48,53,1363967468
21,13,18,Jits_Linear_8,2,5,63,98,1363990804
21,13,18,Jits_Linear_8,3,5,80,127,1363994164
21,13,18,Jits_Linear_8,0,5,80,127,1364450668
21,13,18,Jits_Linear_8,1,5,56,103,1364460916
21,13,18,Jits_Linear_8,2,5,63,98,1364481552
21,13,18,Jits_Linear_8,3,1,48,53,1364576976
21,13,18,Jits_Linear_8,0,5,63,98,1365021044
21,13,18,Jits_Linear_8,1,5,80,127,1365080512
21,13,18,Jits_Linear_8,2,5,56,103,1365090680
21,13,18,Jits_Linear_8,3,1,48,49,1365109380
21,13,18,Jits_Linear_8,0,5,63,98,1365660964
21,13,18,Jits_Linear_8,1,1,48,50,1365670796
21,13,18,Jits_Linear_8,2,5,80,127,1365690768
21,13,18,Jits_Linear_8,3,5,56,103,1365730692
21,13,18,Jits_Linear_8,0,1,48,45,1366213436
21,13,18,Jits_Linear_8,1,5,56,103,1366221260
21,13,18,Jits_Linear_8,2,5,80,127,1366231580
21,13,18,Jits_Linear_8,3,5,63,98,1366271404
21,13,18,Jits_Linear_8,0,5,80,127,1366750668
21,13,18,Jits_Linear_8,1,1,48,50,1366811940
21,13,18,Jits_Linear_8,2,5,56,103,1366830536
21,13,18,Jits_Linear_8,3,5,63,98,1366840704
21,13,18,Jits_Linear_8,0,5,80,127,1367360800
21,13,18,Jits_Linear_8,1,1,48,41,1367424592
21,13,18,Jits_Linear_8,2,5,56,103,1367440668
21,13,18,Jits_Linear_8,3,5,63,98,1367450988
21,13,18,Jits_Linear_8,0,5,80,127,1367881048
21,13,18,Jits_Linear_8,1,5,56,103,1367931492
21,13,18,Jits_Linear_8,2,5,63,98,1367981556
21,13,18,Jits_Linear_8,3,1,48,38,1368002652
21,13,18,Jits_Linear_8,0,5,56,103,1368500652
21,13,18,Jits_Linear_8,1,5,63,98,1368503472
21,13,18,Jits_Linear_8,2,5,80,127,1368550740
21,13,18,Jits_Linear_8,3,1,48,50,1368588220
21,13,18,Jits_Linear_8,0,5,56,103,1369081296
21,13,18,Jits_Linear_8,1,1,48,42,1369110112
21,13,18,Jits_Linear_8,2,5,63,98,1369111788
21,13,18,Jits_Linear_8,3,5,80,127,1369121192
21,13,18,Jits_Linear_8,0,5,63,98,1369551480
21,13,18,Jits_Linear_8,1,5,56,103,1369621036
21,13,18,Jits_Linear_8,2,5,80,127,1369671332
21,13,18,Jits_Linear_8,3,1,48,53,1369709216
21,13,18,Jits_Linear_8,0,5,63,98,1370141036
21,13,18,Jits_Linear_8,1,5,56,103,1370151432
21,13,18,Jits_Linear_8,2,5,80,127,1370154632
21,13,18,Jits_Linear_8,3,1,48,47,1370275436
21,13,18,Jits_Linear_8,0,5,80,127,1370640688
21,13,18,Jits_Linear_8,1,5,56,103,1370701228
21,13,18,Jits_Linear_8,2,1,48,51,1370765320
21,13,18,Jits_Linear_8,3,5,63,98,1370791408
21,13,18,Jits_Linear_8,0,5,80,127,1371190588
21,13,18,Jits_Linear_8,1,5,56,103,1371291100
21,13,18,Jits_Linear_8,2,5,63,98,1371330948
21,13,18,Jits_Linear_8,3,1,48,53,1371382428
21,13,18,Jits_Linear_8,0,5,56,103,1371790632
21,13,18,Jits_Linear_8,1,5,63,98,1371811268
21,13,18,Jits_Linear_8,2,5,80,127,1371851192
21,13,18,Jits_Linear_8,3,1,48,50,1371914824
21,13,18,Jits_Linear_8,0,5,63,98,1372310788
21,13,18,Jits_Linear_8,1,5,56,103,1372331352
21,13,18,Jits_Linear_8,2,1,48,49,1372404412
21,13,18,Jits_Linear_8,3,5,80,127,1372430656
21,13,18,Jits_Linear_8,0,5,63,98,1372841260
21,13,18,Jits_Linear_8,1,1,48,48,1372912648
21,13,18,Jits_Linear_8,2,5,80,127,1372950808
21,13,18,Jits_Linear_8,3,5,56,103,1372980544
21,13,18,Jits_Linear_8,0,5,56,103,1373400424
21,13,18,Jits_Linear_8,1,5,63,98,1373431224
21,13,18,Jits_Linear_8,2,1,48,54,1373454044
21,13,18,Jits_Linear_8,3,5,80,127,1373481432
21,13,18,Jits_Linear_8,0,5,63,98,1373911336
21,13,18,Jits_Linear_8,1,5,56,103,1373941296
21,13,18,Jits_Linear_8,2,5,80,127,1373991360
21,13,18,Jits_Linear_8,3,1,48,54,1374004092
21,13,18,Jits_Linear_8,0,5,56,103,1374481008
21,13,18,Jits_Linear_8,1,5,63,98,1374501192
21,13,18,Jits_Linear_8,2,1,48,57,1374546252
21,13,18,Jits_Linear_8,3,5,80,127,1374581280
21,13,18,Jits_Linear_8,0,5,63,98,1374990852
21,13,18,Jits_Linear_8,1,5,56,103,1375051236
21,13,18,Jits_Linear_8,2,5,80,127,1375080972
21,13,18,Jits_Linear_8,3,1,48,57,1375119548
21,13,18,Jits_Linear_8,0,5,56,103,1375571384
21,13,18,Jits_Linear_8,1,1,48,57,1375629308
21,13,18,Jits_Linear_8,2,5,80,127,1375630996
21,13,18,Jits_Linear_8,3,5,63,98,1375670744
21,13,18,Jits_Linear_8,0,5,63,98,1376081084
21,13,18,Jits_Linear_8,1,5,56,103,1376140552
21,13,18,Jits_Linear_8,2,1,48,48,1376183168
21,13,18,Jits_Linear_8,3,5,80,127,1376211344
21,13,18,Jits_Linear_8,0,1,48,52,1376690292
21,13,18,Jits_Linear_8,1,5,56,103,1376691956
21,13,18,Jits_Linear_8,2,5,63,98,1376700828
21,13,18,Jits_Linear_8,3,5,80,127,1376704104
21,13,18,Jits_Linear_8,0,5,63,98,1377160496
21,13,18,Jits_Linear_8,1,5,56,103,1377221052
21,13,18,Jits_Linear_8,2,5,80,127,1377223952
21,13,18,Jits_Linear_8,3,1,48,54,1377230728
21,13,18,Jits_Linear_8,0,5,63,98,1377670620
21,13,18,Jits_Linear_8,1,5,80,127,1377701348
21,13,18,Jits_Linear_8,2,5,56,103,1377720764
21,13,18,Jits_Linear_8,3,1,48,54,1377764400
21,13,18,Jits_Linear_8,0,5,56,103,1378200856
21,13,18,Jits_Linear_8,1,5,63,98,1378251100
21,13,18,Jits_Linear_8,2,1,48,53,1378254052
21,13,18,Jits_Linear_8,3,5,80,127,1378331192
21,13,18,Jits_Linear_8,0,5,80,127,1378701072
21,13,18,Jits_Linear_8,1,5,63,98,1378740592
21,13,18,Jits_Linear_8,2,5,56,103,1378761104
21,13,18,Jits_Linear_8,3,1,48,50,1378782400
21,13,18,Jits_Linear_8,0,5,56,103,1379290436
21,13,18,Jits_Linear_8,1,5,80,127,1379301060
21,13,18,Jits_Linear_8,2,1,48,51,1379319388
21,13,18,Jits_Linear_8,3,5,63,98,1379321160
21,13,18,Jits_Linear_8,0,5,56,103,1379791192
21,13,18,Jits_Linear_8,1,5,63,98,1379841336
21,13,18,Jits_Linear_8,2,5,80,127,1379870992
21,13,18,Jits_Linear_8,3,1,48,51,1379881588
21,13,18,Jits_Linear_8,0,5,56,103,1380261196
21,13,18,Jits_Linear_8,1,5,63,98,1380270372
21,13,18,Jits_Linear_8,2,5,80,127,1380320536
21,13,18,Jits_Linear_8,3,1,48,53,1380382412
21,13,18,Jits_Linear_8,0,5,56,103,1380771104
21,13,18,Jits_Linear_8,1,5,80,127,1380774160
21,13,18,Jits_Linear_8,2,1,48,53,1380924260
21,13,18,Jits_Linear_8,3,5,63,98,1380930940
21,13,18,Jits_Linear_8,0,5,63,98,1381300520
21,13,18,Jits_Linear_8,1,5,56,103,1381371248
21,13,18,Jits_Linear_8,2,5,80,127,1381411220
21,13,18,Jits_Linear_8,3,1,48,49,1381461636
21,13,18,Jits_Linear_8,0,5,63,98,1381850736
21,13,18,Jits_Linear_8,1,5,56,103,1381940772
21,13,18,Jits_Linear_8,2,5,80,127,1381943748
21,13,18,Jits_Linear_8,3,1,48,49,1381948776
21,13,18,Jits_Linear_8,0,5,56,103,1382340928
21,13,18,Jits_Linear_8,1,5,63,98,1382431120
21,13,18,Jits_Linear_8,2,5,80,127,1382441288
21,13,18,Jits_Linear_8,3,1,48,52,1382486800
21,13,18,Jits_Linear_8,0,5,56,103,1382821176
21,13,18,Jits_Linear_8,1,5,63,98,1382871496
21,13,18,Jits_Linear_8,2,5,80,127,1382901076
21,13,18,Jits_Linear_8,3,1,48,50,1383031968
21,13,18,Jits_Linear_8,0,5,63,98,1383400908
21,13,18,Jits_Linear_8,1,5,80,127,1383411228
21,13,18,Jits_Linear_8,2,5,56,103,1383470540
21,13,18,Jits_Linear_8,3,1,48,52,1383548992
21,13,18,Jits_Linear_8,0,5,63,98,1383820740
21,13,18,Jits_Linear_8,1,5,80,127,1383881072
21,13,18,Jits_Linear_8,2,5,56,103,1383921048
21,13,18,Jits_Linear_8,3,1,48,51,1384027012
21,13,18,Jits_Linear_8,0,5,56,103,1384420792
21,13,18,Jits_Linear_8,1,5,80,127,1384441128
21,13,18,Jits_Linear_8,2,5,63,98,1384460772
21,13,18,Jits_Linear_8,3,1,48,38,1384553600
21,13,18,Jits_Linear_8,0,5,63,98,1384840564
21,13,18,Jits_Linear_8,1,5,56,103,1384861128
21,13,18,Jits_Linear_8,2,5,80,127,1384901128
21,13,18,Jits_Linear_8,3,1,48,53,1385061900
21,13,18,Jits_Linear_8,0,5,63,98,1385350616
21,13,18,Jits_Linear_8,1,5,80,127,1385381192
21,13,18,Jits_Linear_8,2,5,56,103,1385400764
21,13,18,Jits_Linear_8,3,1,48,47,1385540852
21,13,18,Jits_Linear_8,0,5,80,127,1385820700
21,13,18,Jits_Linear_8,1,5,56,103,1385870844
21,13,18,Jits_Linear_8,2,5,63,98,1385931024
21,13,18,Jits_Linear_8,3,1,48,53,1386070928
21,13,18,Jits_Linear_8,0,5,63,98,1386300744
21,13,18,Jits_Linear_8,1,5,56,103,1386420668
21,13,18,Jits_Linear_8,2,5,80,127,1386451420
21,13,18,Jits_Linear_8,3,1,48,53,1386562972
21,13,18,Jits_Linear_8,0,5,80,127,1386831140
21,13,18,Jits_Linear_8,1,5,63,98,1386850864
21,13,18,Jits_Linear_8,2,5,56,103,1386921560
21,13,18,Jits_Linear_8,3,1,48,54,1387016856
21,13,18,Jits_Linear_8,0,5,63,98,1387341300
21,13,18,Jits_Linear_8,1,5,56,103,1387351620
21,13,18,Jits_Linear_8,2,5,80,127,1387431416
21,13,18,Jits_Linear_8,3,1,48,48,1387503480
21,13,18,Jits_Linear_8,0,5,56,103,1387890960
21,13,18,Jits_Linear_8,1,5,80,127,1387920692
21,13,18,Jits_Linear_8,2,5,63,98,1387930940
21,13,18,Jits_Linear_8,3,1,48,51,1387999724
21,13,18,Jits_Linear_8,0,9999,9999,9999,1277548600
21,13,18,Jits_Linear_8,1,9999,9999,9999,1278368856
21,13,18,Jits_Linear_8,2,9999,9999,9999,1279189052
21,13,18,Jits_Linear_8,3,9999,9999,9999,1280008248
21,13,18,Jits_Linear_8,4,9999,9999,9999,1280828504
21,13,18,Jits_Linear_8,5,9999,9999,9999,1281638512
21,13,18,Jits_Linear_8,6,9999,9999,9999,1282448512
21,13,18,Jits_Linear_8,7,9999,9999,9999,1283258456
21,13,18,Jits_Linear_8,8,9999,9999,9999,1284068408
21,13,18,Jits_Linear_8,9,9999,9999,9999,1284878400
21,13,18,Jits_Linear_8,10,9999,9999,9999,1285678184
21,13,18,Jits_Linear_8,11,9999,9999,9999,1286478940
21,13,18,Jits_Linear_8,12,9999,9999,9999,1287278652
21,13,18,Jits_Linear_8,13,9999,9999,9999,1288078424
21,13,18,Jits_Linear_8,14,9999,9999,9999,1288878176
21,13,18,Jits_Linear_8,15,9999,9999,9999,1289668720
21,13,18,Jits_Linear_8,16,9999,9999,9999,1290458228
21,13,18,Jits_Linear_8,17,9999,9999,9999,1291248760
21,13,18,Jits_Linear_8,18,9999,9999,9999,1292038212
21,13,18,Jits_Linear_8,19,9999,9999,9999,1292828728
21,13,18,Jits_Linear_8,20,9999,9999,9999,1293609072
21,13,18,Jits_Linear_8,21,9999,9999,9999,1294388352
21,13,18,Jits_Linear_8,22,9999,9999,9999,1295168632
21,13,18,Jits_Linear_8,23,9999,9999,9999,1295948904
21,13,18,Jits_Linear_8,24,9999,9999,9999,1296728180
21,13,18,Jits_Linear_8,25,9999,9999,9999,1297498212
21,13,18,Jits_Linear_8,26,9999,9999,9999,1298268244
21,13,18,Jits_Linear_8,27,9999,9999,9999,1299038276
21,13,18,Jits_Linear_8,28,9999,9999,9999,1299808380
21,13,18,Jits_Linear_8,29,9999,9999,9999,1300578432
21,13,18,Jits_Linear_8,30,9999,9999,9999,1301338216
21,13,18,Jits_Linear_8,31,9999,9999,9999,1302099072
21,13,18,Jits_Linear_8,32,9999,9999,9999,1302858860
21,13,18,Jits_Linear_8,33,9999,9999,9999,1303618644
21,13,18,Jits_Linear_8,34,9999,9999,9999,1304378448
21,13,18,Jits_Linear_8,35,9999,9999,9999,1305129076
21,13,18,Jits_Linear_8,36,9999,9999,9999,1305878632
21,13,18,Jits_Linear_8,37,9999,9999,9999,1306628200
21,13,18,Jits_Linear_8,38,9999,9999,9999,1307378748
21,13,18,Jits_Linear_8,39,9999,9999,9999,1308128316
21,13,18,Jits_Linear_8,40,9999,9999,9999,1308868712
21,13,18,Jits_Linear_8,41,9999,9999,9999,1309609080
21,13,18,Jits_Linear_8,42,9999,9999,9999,1310348384
21,13,18,Jits_Linear_8,43,9999,9999,9999,1311088764
21,13,18,Jits_Linear_8,44,9999,9999,9999,1311829048
21,13,18,Jits_Linear_8,45,9999,9999,9999,1312558192
21,13,18,Jits_Linear_8,46,9999,9999,9999,1313288248
21,13,18,Jits_Linear_8,47,9999,9999,9999,1314018372
21,13,18,Jits_Linear_8,48,9999,9999,9999,1314748480
21,13,18,Jits_Linear_8,49,9999,9999,9999,1315478616
21,13,18,Jits_Linear_8,50,9999,9999,9999,1316198508
21,13,18,Jits_Linear_8,51,9999,9999,9999,1316918396
21,13,18,Jits_Linear_8,52,9999,9999,9999,1317638228
21,13,18,Jits_Linear_8,53,9999,9999,9999,1318358128
21,13,18,Jits_Linear_8,54,9999,9999,9999,1319078992
21,13,18,Jits_Linear_8,55,9999,9999,9999,1319788664
21,13,18,Jits_Linear_8,56,9999,9999,9999,1320498232
21,13,18,Jits_Linear_8,57,9999,9999,9999,1321208888
21,13,18,Jits_Linear_8,58,9999,9999,9999,1321918532
21,13,18,Jits_Linear_8,59,9999,9999,9999,1322628172
21,13,18,Jits_Linear_8,60,9999,9999,9999,1323328588
21,13,18,Jits_Linear_8,61,9999,9999,9999,1324029004
21,13,18,Jits_Linear_8,62,9999,9999,9999,1324728400
21,13,18,Jits_Linear_8,63,9999,9999,9999,1325428864
21,13,18,Jits_Linear_8,64,9999,9999,9999,1326128216
21,13,18,Jits_Linear_8,65,9999,9999,9999,1326818384
21,13,18,Jits_Linear_8,66,9999,9999,9999,1327508540
21,13,18,Jits_Linear_8,67,9999,9999,9999,1328198780
21,13,18,Jits_Linear_8,68,9999,9999,9999,1328888944
21,13,18,Jits_Linear_8,69,9999,9999,9999,1329579092
21,13,18,Jits_Linear_8,70,9999,9999,9999,1330268272
21,13,18,Jits_Linear_8,71,9999,9999,9999,1330948200
21,13,18,Jits_Linear_8,72,9999,9999,9999,1331628104
21,13,18,Jits_Linear_8,73,9999,9999,9999,1332309100
21,13,18,Jits_Linear_8,74,9999,9999,9999,1332989040
21,13,18,Jits_Linear_8,75,9999,9999,9999,1333658712
21,13,18,Jits_Linear_8,76,9999,9999,9999,1334328400
21,13,18,Jits_Linear_8,77,9999,9999,9999,1334998092
21,13,18,Jits_Linear_8,78,9999,9999,9999,1335668824
21,13,18,Jits_Linear_8,79,9999,9999,9999,1336338520
21,13,18,Jits_Linear_8,80,9999,9999,9999,1336999016
21,13,18,Jits_Linear_8,81,9999,9999,9999,1337658448
21,13,18,Jits_Linear_8,82,9999,9999,9999,1338318952
21,13,18,Jits_Linear_8,83,9999,9999,9999,1338978360
21,13,18,Jits_Linear_8,84,9999,9999,9999,1339638868
21,13,18,Jits_Linear_8,85,9999,9999,9999,1340288056
21,13,18,Jits_Linear_8,86,9999,9999,9999,1340938336
21,13,18,Jits_Linear_8,87,9999,9999,9999,1341588568
21,13,18,Jits_Linear_8,88,9999,9999,9999,1342238828
21,13,18,Jits_Linear_8,89,9999,9999,9999,1342889076
21,13,18,Jits_Linear_8,90,9999,9999,9999,1343529032
21,13,18,Jits_Linear_8,91,9999,9999,9999,1344169020
21,13,18,Jits_Linear_8,92,9999,9999,9999,1344809060
21,13,18,Jits_Linear_8,93,9999,9999,9999,1345449048
21,13,18,Jits_Linear_8,94,9999,9999,9999,1346089068
21,13,18,Jits_Linear_8,95,9999,9999,9999,1346718836
21,13,18,Jits_Linear_8,96,9999,9999,9999,1347348548
21,13,18,Jits_Linear_8,97,9999,9999,9999,1347978304
21,13,18,Jits_Linear_8,98,9999,9999,9999,1348608096
21,13,18,Jits_Linear_8,99,9999,9999,9999,1349238860
21,13,18,Jits_Linear_8,100,9999,9999,9999,1349858400
21,13,18,Jits_Linear_8,101,9999,9999,9999,1350478908
21,13,18,Jits_Linear_8,102,9999,9999,9999,1351098428
21,13,18,Jits_Linear_8,103,9999,9999,9999,1351719040
21,13,18,Jits_Linear_8,104,9999,9999,9999,1352338492
21,13,18,Jits_Linear_8,105,9999,9999,9999,1352948868
21,13,18,Jits_Linear_8,106,9999,9999,9999,1353558128
21,13,18,Jits_Linear_8,107,9999,9999,9999,1354168376
21,13,18,Jits_Linear_8,108,9999,9999,9999,1354778736
21,13,18,Jits_Linear_8,109,9999,9999,9999,1355388996
21,13,18,Jits_Linear_8,110,9999,9999,9999,1355989060
21,13,18,Jits_Linear_8,111,9999,9999,9999,1356588092
21,13,18,Jits_Linear_8,112,9999,9999,9999,1357188200
21,13,18,Jits_Linear_8,113,9999,9999,9999,1357788264
21,13,18,Jits_Linear_8,114,9999,9999,9999,1358388296
21,13,18,Jits_Linear_8,115,9999,9999,9999,1358978156
21,13,18,Jits_Linear_8,116,9999,9999,9999,1359568972
21,13,18,Jits_Linear_8,117,9999,9999,9999,1360158848
21,13,18,Jits_Linear_8,118,9999,9999,9999,1360748652
21,13,18,Jits_Linear_8,119,9999,9999,9999,1361338444
21,13,18,Jits_Linear_8,120,9999,9999,9999,1361919080
21,13,18,Jits_Linear_8,121,9999,9999,9999,1362498624
21,13,18,Jits_Linear_8,122,9999,9999,9999,1363078232
21,13,18,Jits_Linear_8,123,9999,9999,9999,1363658856
21,13,18,Jits_Linear_8,124,9999,9999,9999,1364238400
21,13,18,Jits_Linear_8,125,9999,9999,9999,1364808776
21,13,18,Jits_Linear_8,126,9999,9999,9999,1365378160
21,13,18,Jits_Linear_8,127,9999,9999,9999,1365948528
21,13,18,Jits_Linear_8,128,9999,9999,9999,1366518844
21,13,18,Jits_Linear_8,129,9999,9999,9999,1367088220
21,13,18,Jits_Linear_8,130,9999,9999,9999,1367648372
21,13,18,Jits_Linear_8,131,9999,9999,9999,1368208508
21,13,18,Jits_Linear_8,132,9999,9999,9999,1368768596
21,13,18,Jits_Linear_8,133,9999,9999,9999,1369328740
21,13,18,Jits_Linear_8,134,9999,9999,9999,1369888880
21,13,18,Jits_Linear_8,135,9999,9999,9999,1370438756
21,13,18,Jits_Linear_8,136,9999,9999,9999,1370988640
21,13,18,Jits_Linear_8,137,9999,9999,9999,1371538536
21,13,18,Jits_Linear_8,138,9999,9999,9999,1372088436
21,13,18,Jits_Linear_8,139,9999,9999,9999,1372638280
21,13,18,Jits_Linear_8,140,9999,9999,9999,1373178992
21,13,18,Jits_Linear_8,141,9999,9999,9999,1373718632
21,13,18,Jits_Linear_8,142,9999,9999,9999,1374258284
21,13,18,Jits_Linear_8,143,9999,9999,9999,1374798916
21,13,18,Jits_Linear_8,144,9999,9999,9999,1375338572
21,13,18,Jits_Linear_8,145,9999,9999,9999,1375869044
21,13,18,Jits_Linear_8,146,9999,9999,9999,1376398464
21,13,18,Jits_Linear_8,147,9999,9999,9999,1376928828
21,13,18,Jits_Linear_8,148,9999,9999,9999,1377458296
21,13,18,Jits_Linear_8,149,9999,9999,9999,1377988704
21,13,18,Jits_Linear_8,150,9999,9999,9999,1378508856
21,13,18,Jits_Linear_8,151,9999,9999,9999,1379029096
21,13,18,Jits_Linear_8,152,9999,9999,9999,1379548272
21,13,18,Jits_Linear_8,153,9999,9999,9999,1380068444
21,13,18,Jits_Linear_8,154,9999,9999,9999,1380588604
21,13,18,Jits_Linear_8,155,9999,9999,9999,1381098592
21,13,18,Jits_Linear_8,156,9999,9999,9999,1381608520
21,13,18,Jits_Linear_8,157,9999,9999,9999,1382118504
21,13,18,Jits_Linear_8,158,9999,9999,9999,1382628420
21,13,18,Jits_Linear_8,159,9999,9999,9999,1383138420
21,13,18,Jits_Linear_8,160,9999,9999,9999,1383638124
21,13,18,Jits_Linear_8,161,9999,9999,9999,1384138828
21,13,18,Jits_Linear_8,162,9999,9999,9999,1384638520
21,13,18,Jits_Linear_8,163,9999,9999,9999,1385138236
21,13,18,Jits_Linear_8,164,9999,9999,9999,1385639024
21,13,18,Jits_Linear_8,165,9999,9999,9999,1386128464
21,13,18,Jits_Linear_8,166,9999,9999,9999,1386618980
21,13,18,Jits_Linear_8,167,9999,9999,9999,1387108408
21,13,18,Jits_Linear_8,168,9999,9999,9999,1387598924
21,13,18,Jits_Linear_8,169,9999,9999,9999,1388088436
21,14,19,Jits_Linear_5,0,5,56,103,1402875224
21,14,19,Jits_Linear_5,1,5,63,98,1402878228
21,14,19,Jits_Linear_5,2,5,80,127,1402881412
21,14,19,Jits_Linear_5,0,5,56,103,1403354680
21,14,19,Jits_Linear_5,1,5,63,98,1403357840
21,14,19,Jits_Linear_5,2,5,80,127,1403361016
21,14,19,Jits_Linear_5,0,1,48,46,1403610356
21,14,19,Jits_Linear_5,1,5,56,103,1403835020
21,14,19,Jits_Linear_5,2,5,80,127,1403844960
21,14,19,Jits_Linear_5,3,5,63,98,1403864532
21,14,19,Jits_Linear_5,0,1,48,63,1404144956
21,14,19,Jits_Linear_5,1,5,63,98,1404264740
21,14,19,Jits_Linear_5,2,5,80,127,1404294704
21,14,19,Jits_Linear_5,3,5,56,103,1404304948
21,14,19,Jits_Linear_5,0,1,48,59,1404683996
21,14,19,Jits_Linear_5,1,5,80,127,1404804696
21,14,19,Jits_Linear_5,2,5,56,103,1404815092
21,14,19,Jits_Linear_5,3,5,63,98,1404845364
21,14,19,Jits_Linear_5,0,1,48,66,1405204320
21,14,19,Jits_Linear_5,1,5,63,98,1405284832
21,14,19,Jits_Linear_5,2,5,56,103,1405314324
21,14,19,Jits_Linear_5,3,5,80,127,1405324796
21,14,19,Jits_Linear_5,0,5,56,103,1405725128
21,14,19,Jits_Linear_5,1,1,48,48,1405728308
21,14,19,Jits_Linear_5,2,5,63,98,1405775192
21,14,19,Jits_Linear_5,3,5,80,127,1405794912
21,14,19,Jits_Linear_5,0,5,80,127,1406214660
21,14,19,Jits_Linear_5,1,1,48,52,1406223504
21,14,19,Jits_Linear_5,2,5,63,98,1406264644
21,14,19,Jits_Linear_5,3,5,56,103,1406304620
21,14,19,Jits_Linear_5,0,5,56,103,1406705104
21,14,19,Jits_Linear_5,1,5,63,98,1406734916
21,14,19,Jits_Linear_5,2,1,48,51,1406739700
21,14,19,Jits_Linear_5,3,5,80,127,1406805456
21,14,19,Jits_Linear_5,0,5,56,103,1407194404
21,14,19,Jits_Linear_5,1,1,48,76,1407204924
21,14,19,Jits_Linear_5,2,5,80,127,1407254860
21,14,19,Jits_Linear_5,3,5,63,98,1407284820
21,14,19,Jits_Linear_5,0,5,56,103,1407695168
21,14,19,Jits_Linear_5,1,1,48,68,1407704648
21,14,19,Jits_Linear_5,2,5,63,98,1407706244
21,14,19,Jits_Linear_5,3,5,80,127,1407745608
21,14,19,Jits_Linear_5,0,5,63,98,1408184748
21,14,19,Jits_Linear_5,1,1,48,60,1408227156
21,14,19,Jits_Linear_5,2,5,80,127,1408264784
21,14,19,Jits_Linear_5,3,5,56,103,1408274804
21,14,19,Jits_Linear_5,0,1,48,70,1408705508
21,14,19,Jits_Linear_5,1,5,63,98,1408734732
21,14,19,Jits_Linear_5,2,5,56,103,1408774632
21,14,19,Jits_Linear_5,3,5,80,127,1408777680
21,14,19,Jits_Linear_5,0,5,56,103,1409195556
21,14,19,Jits_Linear_5,1,1,48,65,1409201404
21,14,19,Jits_Linear_5,2,5,63,98,1409204800
21,14,19,Jits_Linear_5,3,5,80,127,1409244724
21,14,19,Jits_Linear_5,0,5,56,103,1409684764
21,14,19,Jits_Linear_5,1,5,63,98,1409687820
21,14,19,Jits_Linear_5,2,5,80,127,1409705784
21,14,19,Jits_Linear_5,3,1,48,62,1409707532
21,14,19,Jits_Linear_5,0,1,48,68,1410171952
21,14,19,Jits_Linear_5,1,5,80,127,1410205232
21,14,19,Jits_Linear_5,2,5,56,103,1410215172
21,14,19,Jits_Linear_5,3,5,63,98,1410284968
21,14,19,Jits_Linear_5,0,5,63,98,1410704692
21,14,19,Jits_Linear_5,1,5,56,103,1410725328
21,14,19,Jits_Linear_5,2,1,48,65,1410727892
21,14,19,Jits_Linear_5,3,5,80,127,1410805216
21,14,19,Jits_Linear_5,0,1,48,61,1411223620
21,14,19,Jits_Linear_5,1,5,56,103,1411225448
21,14,19,Jits_Linear_5,2,5,80,127,1411264844
21,14,19,Jits_Linear_5,3,5,63,98,1411275016
21,14,19,Jits_Linear_5,0,1,48,59,1411724368
21,14,19,Jits_Linear_5,1,5,80,127,1411726036
21,14,19,Jits_Linear_5,2,5,63,98,1411755548
21,14,19,Jits_Linear_5,3,5,56,103,1411795396
21,14,19,Jits_Linear_5,0,1,48,55,1412241044
21,14,19,Jits_Linear_5,1,5,56,103,1412255068
21,14,19,Jits_Linear_5,2,5,63,98,1412284752
21,14,19,Jits_Linear_5,3,5,80,127,1412335484
21,14,19,Jits_Linear_5,0,1,48,55,1412737292
21,14,19,Jits_Linear_5,1,5,80,127,1412765212
21,14,19,Jits_Linear_5,2,5,56,103,1412804912
21,14,19,Jits_Linear_5,3,5,63,98,1412815536
21,14,19,Jits_Linear_5,0,5,80,127,1413264744
21,14,19,Jits_Linear_5,1,1,48,57,1413265652
21,14,19,Jits_Linear_5,2,5,63,98,1413304640
21,14,19,Jits_Linear_5,3,5,56,103,1413365184
21,14,19,Jits_Linear_5,0,5,56,103,1413784920
21,14,19,Jits_Linear_5,1,5,80,127,1413795164
21,14,19,Jits_Linear_5,2,1,48,67,1413800404
21,14,19,Jits_Linear_5,3,5,63,98,1413875056
21,14,19,Jits_Linear_5,0,1,48,67,1414300012
21,14,19,Jits_Linear_5,1,5,80,127,1414305088
21,14,19,Jits_Linear_5,2,5,63,98,1414364428
21,14,19,Jits_Linear_5,3,5,56,103,1414395460
21,14,19,Jits_Linear_5,0,5,56,103,1414825408
21,14,19,Jits_Linear_5,1,1,48,63,1414832880
21,14,19,Jits_Linear_5,2,5,80,127,1414884820
21,14,19,Jits_Linear_5,3,5,63,98,1414924568
21,14,19,Jits_Linear_5,0,1,48,67,1415345636
21,14,19,Jits_Linear_5,1,5,56,103,1415404924
21,14,19,Jits_Linear_5,2,5,63,98,1415415316
21,14,19,Jits_Linear_5,3,5,80,127,1415418668
21,14,19,Jits_Linear_5,0,1,48,58,1415868488
21,14,19,Jits_Linear_5,1,5,80,127,1415885252
21,14,19,Jits_Linear_5,2,5,63,98,1415975508
21,14,19,Jits_Linear_5,3,5,56,103,1415984608
21,14,19,Jits_Linear_5,0,5,56,103,1416414496
21,14,19,Jits_Linear_5,1,1,48,65,1416416432
21,14,19,Jits_Linear_5,2,5,63,98,1416419336
21,14,19,Jits_Linear_5,3,5,80,127,1416422204
21,14,19,Jits_Linear_5,0,1,48,65,1416929820
21,14,19,Jits_Linear_5,1,5,80,127,1416964400
21,14,19,Jits_Linear_5,2,5,63,98,1417014544
21,14,19,Jits_Linear_5,3,5,56,103,1417045404
21,14,19,Jits_Linear_5,0,1,48,66,1417474404
21,14,19,Jits_Linear_5,1,5,56,103,1417476072
21,14,19,Jits_Linear_5,2,5,80,127,1417484564
21,14,19,Jits_Linear_5,3,5,63,98,1417555492
21,14,19,Jits_Linear_5,0,1,48,68,1418004012
21,14,19,Jits_Linear_5,1,5,56,103,1418015116
21,14,19,Jits_Linear_5,2,5,63,98,1418034612
21,14,19,Jits_Linear_5,3,5,80,127,1418094916
21,14,19,Jits_Linear_5,0,1,48,67,1418541664
21,14,19,Jits_Linear_5,1,5,80,127,1418544448
21,14,19,Jits_Linear_5,2,5,63,98,1418615228
21,14,19,Jits_Linear_5,3,5,56,103,1418634568
21,14,19,Jits_Linear_5,0,1,48,68,1419083016
21,14,19,Jits_Linear_5,1,5,80,127,1419104664
21,14,19,Jits_Linear_5,2,5,56,103,1419114908
21,14,19,Jits_Linear_5,3,5,63,98,1419125380
21,14,19,Jits_Linear_5,0,1,48,60,1419598728
21,14,19,Jits_Linear_5,1,5,80,127,1419635216
21,14,19,Jits_Linear_5,2,5,56,103,1419654408
21,14,19,Jits_Linear_5,3,5,63,98,1419725420
21,14,19,Jits_Linear_5,0,1,48,62,1420159708
21,14,19,Jits_Linear_5,1,5,56,103,1420185036
21,14,19,Jits_Linear_5,2,5,80,127,1420214544
21,14,19,Jits_Linear_5,3,5,63,98,1420235208
21,14,19,Jits_Linear_5,0,1,48,65,1420675372
21,14,19,Jits_Linear_5,1,5,63,98,1420724696
21,14,19,Jits_Linear_5,2,5,56,103,1420785012
21,14,19,Jits_Linear_5,3,5,80,127,1420814596
21,14,19,Jits_Linear_5,0,1,48,64,1421247612
21,14,19,Jits_Linear_5,1,5,63,98,1421265288
21,14,19,Jits_Linear_5,2,5,80,127,1421268412
21,14,19,Jits_Linear_5,3,5,56,103,1421355460
21,14,19,Jits_Linear_5,0,1,48,69,1421797724
21,14,19,Jits_Linear_5,1,5,56,103,1421834520
21,14,19,Jits_Linear_5,2,5,63,98,1421865396
21,14,19,Jits_Linear_5,3,5,80,127,1421905432
21,14,19,Jits_Linear_5,0,1,48,59,1422366124
21,14,19,Jits_Linear_5,1,5,63,98,1422384568
21,14,19,Jits_Linear_5,2,5,56,103,1422424472
21,14,19,Jits_Linear_5,3,5,80,127,1422445032
21,14,19,Jits_Linear_5,0,1,48,72,1422934216
21,14,19,Jits_Linear_5,1,5,63,98,1422944784
21,14,19,Jits_Linear_5,2,5,56,103,1422984608
21,14,19,Jits_Linear_5,3,5,80,127,1422994700
21,14,19,Jits_Linear_5,0,5,80,127,1423475196
21,14,19,Jits_Linear_5,1,1,48,62,1423478300
21,14,19,Jits_Linear_5,2,5,63,98,1423544672
21,14,19,Jits_Linear_5,3,5,56,103,1423565184
21,14,19,Jits_Linear_5,0,5,56,103,1424025104
21,14,19,Jits_Linear_5,1,1,48,60,1424042948
21,14,19,Jits_Linear_5,2,5,80,127,1424045432
21,14,19,Jits_Linear_5,3,5,63,98,1424085204
21,14,19,Jits_Linear_5,0,1,48,60,1424561216
21,14,19,Jits_Linear_5,1,5,63,98,1424595208
21,14,19,Jits_Linear_5,2,5,80,127,1424614852
21,14,19,Jits_Linear_5,3,5,56,103,1424654752
21,14,19,Jits_Linear_5,0,1,48,65,1425112520
21,14,19,Jits_Linear_5,1,5,63,98,1425154504
21,14,19,Jits_Linear_5,2,5,56,103,1425174988
21,14,19,Jits_Linear_5,3,5,80,127,1425185080
21,14,19,Jits_Linear_5,0,1,48,70,1425675020
21,14,19,Jits_Linear_5,1,5,80,127,1425714484
21,14,19,Jits_Linear_5,2,5,56,103,1425735200
21,14,19,Jits_Linear_5,3,5,63,98,1425764932
21,14,19,Jits_Linear_5,0,1,48,68,1426252796
21,14,19,Jits_Linear_5,1,5,56,103,1426354472
21,14,19,Jits_Linear_5,2,5,80,127,1426357832
21,14,19,Jits_Linear_5,3,5,63,98,1426375136
21,14,19,Jits_Linear_5,0,1,48,69,1426840224
21,14,19,Jits_Linear_5,1,5,63,98,1426844996
21,14,19,Jits_Linear_5,2,5,56,103,1426874908
21,14,19,Jits_Linear_5,3,5,80,127,1426935140
21,14,19,Jits_Linear_5,0,1,48,61,1427415452
21,14,19,Jits_Linear_5,1,5,63,98,1427504452
21,14,19,Jits_Linear_5,2,5,56,103,1427514828
21,14,19,Jits_Linear_5,3,5,80,127,1427524920
21,14,19,Jits_Linear_5,0,1,48,60,1428010368
21,14,19,Jits_Linear_5,1,5,56,103,1428024768
21,14,19,Jits_Linear_5,2,5,80,127,1428055344
21,14,19,Jits_Linear_5,3,5,63,98,1428064672
21,14,19,Jits_Linear_5,0,1,48,65,1428592764
21,14,19,Jits_Linear_5,1,5,63,98,1428634972
21,14,19,Jits_Linear_5,2,5,56,103,1428645216
21,14,19,Jits_Linear_5,3,5,80,127,1428664860
21,14,19,Jits_Linear_5,0,5,56,103,1429134940
21,14,19,Jits_Linear_5,1,1,48,58,1429143172
21,14,19,Jits_Linear_5,2,5,63,98,1429195108
21,14,19,Jits_Linear_5,3,5,80,127,1429198384
21,14,19,Jits_Linear_5,0,1,48,62,1429705468
21,14,19,Jits_Linear_5,1,5,80,127,1429734768
21,14,19,Jits_Linear_5,2,5,56,103,1429745088
21,14,19,Jits_Linear_5,3,5,63,98,1429814856
21,14,19,Jits_Linear_5,0,1,48,59,1430294276
21,14,19,Jits_Linear_5,1,5,80,127,1430305072
21,14,19,Jits_Linear_5,2,5,56,103,1430374708
21,14,19,Jits_Linear_5,3,5,63,98,1430385028
21,14,19,Jits_Linear_5,0,1,48,65,1430878176
21,14,19,Jits_Linear_5,1,5,63,98,1430924832
21,14,19,Jits_Linear_5,2,5,56,103,1430935000
21,14,19,Jits_Linear_5,3,5,80,127,1430955412
21,14,19,Jits_Linear_5,0,5,80,127,1431455168
21,14,19,Jits_Linear_5,1,1,48,57,1431456532
21,14,19,Jits_Linear_5,2,5,63,98,1431514580
21,14,19,Jits_Linear_5,3,5,56,103,1431554556
21,14,19,Jits_Linear_5,0,1,48,54,1432037940
21,14,19,Jits_Linear_5,1,5,56,103,1432084748
21,14,19,Jits_Linear_5,2,5,63,98,1432094992
21,14,19,Jits_Linear_5,3,5,80,127,1432134968
21,14,19,Jits_Linear_5,0,1,48,57,1432601896
21,14,19,Jits_Linear_5,1,5,56,103,1432634796
21,14,19,Jits_Linear_5,2,5,80,127,1432664684
21,14,19,Jits_Linear_5,3,5,63,98,1432714808
21,14,19,Jits_Linear_5,0,1,48,57,1433169904
21,14,19,Jits_Linear_5,1,5,56,103,1433264776
21,14,19,Jits_Linear_5,2,5,63,98,1433304708
21,14,19,Jits_Linear_5,3,5,80,127,1433307748
21,14,19,Jits_Linear_5,0,1,48,59,1433782716
21,14,19,Jits_Linear_5,1,5,56,103,1433855524
21,14,19,Jits_Linear_5,2,5,63,98,1433864704
21,14,19,Jits_Linear_5,3,5,80,127,1433885020
21,14,19,Jits_Linear_5,0,1,48,62,1434357780
21,14,19,Jits_Linear_5,1,5,56,103,1434405264
21,14,19,Jits_Linear_5,2,5,80,127,1434408236
21,14,19,Jits_Linear_5,3,5,63,98,1434445088
21,14,19,Jits_Linear_5,0,1,48,60,1434934872
21,14,19,Jits_Linear_5,1,5,63,98,1435035084
21,14,19,Jits_Linear_5,2,5,56,103,1435064592
21,14,19,Jits_Linear_5,3,5,80,127,1435085304
21,14,19,Jits_Linear_5,0,1,48,56,1435568204
21,14,19,Jits_Linear_5,1,5,80,127,1435605628
21,14,19,Jits_Linear_5,2,5,56,103,1435614576
21,14,19,Jits_Linear_5,3,5,63,98,1435624900
21,14,19,Jits_Linear_5,0,1,48,57,1436135852
21,14,19,Jits_Linear_5,1,5,56,103,1436205584
21,14,19,Jits_Linear_5,2,5,80,127,1436245544
21,14,19,Jits_Linear_5,3,5,63,98,1436275128
21,14,19,Jits_Linear_5,0,1,48,57,1436729152
21,14,19,Jits_Linear_5,1,5,63,98,1436814792
21,14,19,Jits_Linear_5,2,5,80,127,1436825040
21,14,19,Jits_Linear_5,3,5,56,103,1436835420
21,14,19,Jits_Linear_5,0,1,48,59,1437347536
21,14,19,Jits_Linear_5,1,5,56,103,1437395360
21,14,19,Jits_Linear_5,2,5,63,98,1437464976
21,14,19,Jits_Linear_5,3,5,80,127,1437475376
21,14,19,Jits_Linear_5,0,1,48,61,1437941472
21,14,19,Jits_Linear_5,1,5,80,127,1438004568
21,14,19,Jits_Linear_5,2,5,56,103,1438014892
21,14,19,Jits_Linear_5,3,5,63,98,1438064940
21,14,19,Jits_Linear_5,0,1,48,59,1438537384
21,14,19,Jits_Linear_5,1,5,80,127,1438625312
21,14,19,Jits_Linear_5,2,5,56,103,1438684488
21,14,19,Jits_Linear_5,3,5,63,98,1438715596
21,14,19,Jits_Linear_5,0,1,48,60,1439189424
21,14,19,Jits_Linear_5,1,5,56,103,1439234472
21,14,19,Jits_Linear_5,2,5,80,127,1439237520
21,14,19,Jits_Linear_5,3,5,63,98,1439275360
21,14,19,Jits_Linear_5,0,1,48,66,1439795420
21,14,19,Jits_Linear_5,1,5,56,103,1439874476
21,14,19,Jits_Linear_5,2,5,63,98,1439905188
21,14,19,Jits_Linear_5,3,5,80,127,1439915280
21,14,19,Jits_Linear_5,0,1,48,55,1440454180
21,14,19,Jits_Linear_5,1,5,63,98,1440495016
21,14,19,Jits_Linear_5,2,5,80,127,1440505260
21,14,19,Jits_Linear_5,3,5,56,103,1440514512
21,14,19,Jits_Linear_5,0,5,80,127,1441055160
21,14,19,Jits_Linear_5,1,1,48,64,1441074552
21,14,19,Jits_Linear_5,2,5,56,103,1441105292
21,14,19,Jits_Linear_5,3,5,63,98,1441108492
21,14,19,Jits_Linear_5,0,1,48,56,1441692152
21,14,19,Jits_Linear_5,1,5,56,103,1441705332
21,14,19,Jits_Linear_5,2,5,80,127,1441724700
21,14,19,Jits_Linear_5,3,5,63,98,1441735172
21,14,19,Jits_Linear_5,0,1,48,65,1442287252
21,14,19,Jits_Linear_5,1,5,63,98,1442305244
21,14,19,Jits_Linear_5,2,5,56,103,1442335204
21,14,19,Jits_Linear_5,3,5,80,127,1442354624
21,14,19,Jits_Linear_5,0,1,48,65,1442910440
21,14,19,Jits_Linear_5,1,5,56,103,1442935232
21,14,19,Jits_Linear_5,2,5,80,127,1442945556
21,14,19,Jits_Linear_5,3,5,63,98,1443015196
21,14,19,Jits_Linear_5,0,1,48,61,1443534808
21,14,19,Jits_Linear_5,1,5,63,98,1443544540
21,14,19,Jits_Linear_5,2,5,80,127,1443585356
21,14,19,Jits_Linear_5,3,5,56,103,1443625408
21,14,19,Jits_Linear_5,0,1,48,59,1444175128
21,14,19,Jits_Linear_5,1,5,56,103,1444184396
21,14,19,Jits_Linear_5,2,5,63,98,1444194720
21,14,19,Jits_Linear_5,3,5,80,127,1444215128
21,14,19,Jits_Linear_5,0,1,48,67,1444791432
21,14,19,Jits_Linear_5,1,5,63,98,1444855056
21,14,19,Jits_Linear_5,2,5,80,127,1444874552
21,14,19,Jits_Linear_5,3,5,56,103,1444895020
21,14,19,Jits_Linear_5,0,1,48,59,1445432280
21,14,19,Jits_Linear_5,1,5,56,103,1445434836
21,14,19,Jits_Linear_5,2,5,80,127,1445514640
21,14,19,Jits_Linear_5,3,5,63,98,1445525036
21,14,19,Jits_Linear_5,0,1,48,53,1446049668
21,14,19,Jits_Linear_5,1,5,80,127,1446114772
21,14,19,Jits_Linear_5,2,5,63,98,1446125092
21,14,19,Jits_Linear_5,3,5,56,103,1446154508
21,14,19,Jits_Linear_5,0,1,48,55,1446682764
21,14,19,Jits_Linear_5,1,5,63,98,1446714652
21,14,19,Jits_Linear_5,2,5,80,127,1446754632
21,14,19,Jits_Linear_5,3,5,56,103,1446815000
21,14,19,Jits_Linear_5,0,1,48,59,1447262768
21,14,19,Jits_Linear_5,1,5,63,98,1447375232
21,14,19,Jits_Linear_5,2,5,56,103,1447425300
21,14,19,Jits_Linear_5,3,5,80,127,1447455188
21,14,19,Jits_Linear_5,0,1,48,66,1447930232
21,14,19,Jits_Linear_5,1,5,80,127,1448024416
21,14,19,Jits_Linear_5,2,5,63,98,1448034812
21,14,19,Jits_Linear_5,3,5,56,103,1448105284
21,14,19,Jits_Linear_5,0,1,48,62,1448577964
21,14,19,Jits_Linear_5,1,5,80,127,1448735084
21,14,19,Jits_Linear_5,2,5,56,103,1448745324
21,14,19,Jits_Linear_5,3,5,63,98,1448748528
21,14,19,Jits_Linear_5,0,1,48,56,1449219980
21,14,19,Jits_Linear_5,1,5,56,103,1449316152
21,14,19,Jits_Linear_5,2,5,80,127,1449335192
21,14,19,Jits_Linear_5,3,5,63,98,1449345360
21,14,19,Jits_Linear_5,0,1,48,60,1449834240
21,14,19,Jits_Linear_5,1,5,63,98,1449964904
21,14,19,Jits_Linear_5,2,5,56,103,1450004956
21,14,19,Jits_Linear_5,3,5,80,127,1450025292
21,14,19,Jits_Linear_5,0,1,48,55,1450519908
21,14,19,Jits_Linear_5,1,5,63,98,1450605012
21,14,19,Jits_Linear_5,2,5,56,103,1450665216
21,14,19,Jits_Linear_5,3,5,80,127,1450668424
21,14,19,Jits_Linear_5,0,1,48,64,1451213224
21,14,19,Jits_Linear_5,1,5,56,103,1451224328
21,14,19,Jits_Linear_5,2,5,80,127,1451244812
21,14,19,Jits_Linear_5,3,5,63,98,1451284788
21,14,19,Jits_Linear_5,0,1,48,63,1451846420
21,14,19,Jits_Linear_5,1,5,56,103,1451905300
21,14,19,Jits_Linear_5,2,5,63,98,1451924948
21,14,19,Jits_Linear_5,3,5,80,127,1451935040
21,14,19,Jits_Linear_5,0,1,48,59,1452474912
21,14,19,Jits_Linear_5,1,5,80,127,1452524924
21,14,19,Jits_Linear_5,2,5,56,103,1452554584
21,14,19,Jits_Linear_5,3,5,63,98,1452594772
21,14,19,Jits_Linear_5,0,1,48,56,1453130120
21,14,19,Jits_Linear_5,1,5,80,127,1453185564
21,14,19,Jits_Linear_5,2,5,56,103,1453204908
21,14,19,Jits_Linear_5,3,5,63,98,1453265452
21,14,19,Jits_Linear_5,0,1,48,58,1453802404
21,14,19,Jits_Linear_5,1,5,56,103,1453845016
21,14,19,Jits_Linear_5,2,5,80,127,1453865276
21,14,19,Jits_Linear_5,3,5,63,98,1453925104
21,14,19,Jits_Linear_5,0,1,48,54,1454475604
21,14,19,Jits_Linear_5,1,5,80,127,1454484872
21,14,19,Jits_Linear_5,2,5,56,103,1454495192
21,14,19,Jits_Linear_5,3,5,63,98,1454534968
21,14,19,Jits_Linear_5,0,1,48,53,1455085748
21,14,19,Jits_Linear_5,1,5,63,98,1455145312
21,14,19,Jits_Linear_5,2,5,56,103,1455185268
21,14,19,Jits_Linear_5,3,5,80,127,1455188472
21,14,19,Jits_Linear_5,0,1,48,56,1455782824
21,14,19,Jits_Linear_5,1,5,63,98,1455825160
21,14,19,Jits_Linear_5,2,5,80,127,1455865288
21,14,19,Jits_Linear_5,3,5,56,103,1455895008
21,14,19,Jits_Linear_5,0,5,56,103,1456474652
21,14,19,Jits_Linear_5,1,1,48,55,1456483124
21,14,19,Jits_Linear_5,2,5,63,98,1456484736
21,14,19,Jits_Linear_5,3,5,80,127,1456514472
21,14,19,Jits_Linear_5,0,5,80,127,1457134880
21,14,19,Jits_Linear_5,1,1,48,51,1457181236
21,14,19,Jits_Linear_5,2,5,63,98,1457204580
21,14,19,Jits_Linear_5,3,5,56,103,1457214748
21,14,19,Jits_Linear_5,0,5,63,98,1457804712
21,14,19,Jits_Linear_5,1,1,48,64,1457847360
21,14,19,Jits_Linear_5,2,5,56,103,1457875280
21,14,19,Jits_Linear_5,3,5,80,127,1457884608
21,14,19,Jits_Linear_5,0,5,63,98,1458475700
21,14,19,Jits_Linear_5,1,5,56,103,1458494892
21,14,19,Jits_Linear_5,2,1,48,64,1458512204
21,14,19,Jits_Linear_5,3,5,80,127,1458534784
21,14,19,Jits_Linear_5,0,1,48,57,1459097404
21,14,19,Jits_Linear_5,1,5,56,103,1459155396
21,14,19,Jits_Linear_5,2,5,63,98,1459164648
21,14,19,Jits_Linear_5,3,5,80,127,1459245572
21,14,19,Jits_Linear_5,0,1,48,59,1459696928
21,14,19,Jits_Linear_5,1,5,63,98,1459814808
21,14,19,Jits_Linear_5,2,5,56,103,1459844620
21,14,19,Jits_Linear_5,3,5,80,127,1459885512
21,14,19,Jits_Linear_5,0,1,48,58,1460456516
21,14,19,Jits_Linear_5,1,5,56,103,1460484588
21,14,19,Jits_Linear_5,2,5,63,98,1460525484
21,14,19,Jits_Linear_5,3,5,80,127,1460565596
21,14,19,Jits_Linear_5,0,1,48,61,1461151088
21,14,19,Jits_Linear_5,1,5,80,127,1461165412
21,14,19,Jits_Linear_5,2,5,56,103,1461245524
21,14,19,Jits_Linear_5,3,5,63,98,1461254624
21,14,19,Jits_Linear_5,0,1,48,62,1461877808
21,14,19,Jits_Linear_5,1,5,56,103,1461885628
21,14,19,Jits_Linear_5,2,5,63,98,1461888596
21,14,19,Jits_Linear_5,3,5,80,127,1461894416
21,14,19,Jits_Linear_5,0,1,48,57,1462574780
21,14,19,Jits_Linear_5,1,5,56,103,1462584736
21,14,19,Jits_Linear_5,2,5,63,98,1462605224
21,14,19,Jits_Linear_5,3,5,80,127,1462615316
21,14,19,Jits_Linear_5,0,5,63,98,1463224708
21,14,19,Jits_Linear_5,1,5,80,127,1463234876
21,14,19,Jits_Linear_5,2,1,48,59,1463247916
21,14,19,Jits_Linear_5,3,5,56,103,1463255580
21,14,19,Jits_Linear_5,0,1,48,55,1463893652
21,14,19,Jits_Linear_5,1,5,63,98,1463915000
21,14,19,Jits_Linear_5,2,5,56,103,1463994648
21,14,19,Jits_Linear_5,3,5,80,127,1463997776
21,14,19,Jits_Linear_5,0,1,48,56,1464575036
21,14,19,Jits_Linear_5,1,5,63,98,1464604944
21,14,19,Jits_Linear_5,2,5,56,103,1464624512
21,14,19,Jits_Linear_5,3,5,80,127,1464655312
21,14,19,Jits_Linear_5,0,1,48,65,1465270704
21,14,19,Jits_Linear_5,1,5,56,103,1465295420
21,14,19,Jits_Linear_5,2,5,63,98,1465314536
21,14,19,Jits_Linear_5,3,5,80,127,1465324856
21,14,19,Jits_Linear_5,0,1,48,60,1465944356
21,14,19,Jits_Linear_5,1,5,56,103,1466015304
21,14,19,Jits_Linear_5,2,5,63,98,1466044736
21,14,19,Jits_Linear_5,3,5,80,127,1466048324
21,14,19,Jits_Linear_5,0,5,56,103,1466655340
21,14,19,Jits_Linear_5,1,1,48,57,1466681524
21,14,19,Jits_Linear_5,2,5,63,98,1466695084
21,14,19,Jits_Linear_5,3,5,80,127,1466754400
21,14,19,Jits_Linear_5,0,1,48,52,1467315592
21,14,19,Jits_Linear_5,1,5,56,103,1467364636
21,14,19,Jits_Linear_5,2,5,63,98,1467375112
21,14,19,Jits_Linear_5,3,5,80,127,1467435324
21,14,19,Jits_Linear_5,0,1,48,62,1468014864
21,14,19,Jits_Linear_5,1,5,56,103,1468065180
21,14,19,Jits_Linear_5,2,5,80,127,1468084600
21,14,19,Jits_Linear_5,3,5,63,98,1468115256
21,14,19,Jits_Linear_5,0,1,48,48,1468665208
21,14,19,Jits_Linear_5,1,5,80,127,1468764432
21,14,19,Jits_Linear_5,2,5,56,103,1468774828
21,14,19,Jits_Linear_5,3,5,63,98,1468795236
21,14,19,Jits_Linear_5,0,1,48,60,1469407964
21,14,19,Jits_Linear_5,1,5,63,98,1469454696
21,14,19,Jits_Linear_5,2,5,80,127,1469534556
21,14,19,Jits_Linear_5,3,5,56,103,1469545028
21,14,19,Jits_Linear_5,0,1,48,60,1470125940
21,14,19,Jits_Linear_5,1,5,80,127,1470214432
21,14,19,Jits_Linear_5,2,5,56,103,1470235048
21,14,19,Jits_Linear_5,3,5,63,98,1470238096
21,14,19,Jits_Linear_5,0,5,63,98,1470894416
21,14,19,Jits_Linear_5,1,1,48,64,1470895340
21,14,19,Jits_Linear_5,2,5,80,127,1470899288
21,14,19,Jits_Linear_5,3,5,56,103,1470954964
21,14,19,Jits_Linear_5,0,5,56,103,1471584736
21,14,19,Jits_Linear_5,1,5,80,127,1471595208
21,14,19,Jits_Linear_5,2,1,48,56,1471598160
21,14,19,Jits_Linear_5,3,5,63,98,1471635100
21,14,19,Jits_Linear_5,0,5,56,103,1472275228
21,14,19,Jits_Linear_5,1,1,48,52,1472296988
21,14,19,Jits_Linear_5,2,5,63,98,1472335224
21,14,19,Jits_Linear_5,3,5,80,127,1472344328
21,14,19,Jits_Linear_5,0,1,48,62,1472966992
21,14,19,Jits_Linear_5,1,5,63,98,1472994836
21,14,19,Jits_Linear_5,2,5,80,127,1473034512
21,14,19,Jits_Linear_5,3,5,56,103,1473074548
21,14,19,Jits_Linear_5,0,1,48,62,1473681816
21,14,19,Jits_Linear_5,1,5,56,103,1473705468
21,14,19,Jits_Linear_5,2,5,63,98,1473785276
21,14,19,Jits_Linear_5,3,5,80,127,1473788776
21,14,19,Jits_Linear_5,0,1,48,54,1474392564
21,14,19,Jits_Linear_5,1,5,80,127,1474475284
21,14,19,Jits_Linear_5,2,5,56,103,1474505252
21,14,19,Jits_Linear_5,3,5,63,98,1474508304
21,14,19,Jits_Linear_5,0,1,48,60,1475140200
21,14,19,Jits_Linear_5,1,5,56,103,1475155364
21,14,19,Jits_Linear_5,2,5,80,127,1475175012
21,14,19,Jits_Linear_5,3,5,63,98,1475214760
21,14,19,Jits_Linear_5,0,5,80,127,1475854796
21,14,19,Jits_Linear_5,1,1,48,55,1475861716
21,14,19,Jits_Linear_5,2,5,63,98,1475875200
21,14,19,Jits_Linear_5,3,5,56,103,1475934588
21,14,19,Jits_Linear_5,0,5,63,98,1476584808
21,14,19,Jits_Linear_5,1,5,56,103,1476594976
21,14,19,Jits_Linear_5,2,1,48,56,1476607628
21,14,19,Jits_Linear_5,3,5,80,127,1476645336
21,14,19,Jits_Linear_5,0,1,48,53,1477285240
21,14,19,Jits_Linear_5,1,5,56,103,1477294660
21,14,19,Jits_Linear_5,2,5,63,98,1477314944
21,14,19,Jits_Linear_5,3,5,80,127,1477325188
21,14,19,Jits_Linear_5,0,1,48,62,1477984884
21,14,19,Jits_Linear_5,1,5,56,103,1478015244
21,14,19,Jits_Linear_5,2,5,63,98,1478018676
21,14,19,Jits_Linear_5,3,5,80,127,1478034892
21,14,19,Jits_Linear_5,0,1,48,62,1478692000
21,14,19,Jits_Linear_5,1,5,63,98,1478785516
21,14,19,Jits_Linear_5,2,5,56,103,1478815084
21,14,19,Jits_Linear_5,3,5,80,127,1478844844
21,14,19,Jits_Linear_5,0,1,48,59,1479455560
21,14,19,Jits_Linear_5,1,5,80,127,1479474848
21,14,19,Jits_Linear_5,2,5,56,103,1479564792
21,14,19,Jits_Linear_5,3,5,63,98,1479567844
21,14,19,Jits_Linear_5,0,5,56,103,1480204844
21,14,19,Jits_Linear_5,1,5,80,127,1480207740
21,14,19,Jits_Linear_5,2,1,48,55,1480243104
21,14,19,Jits_Linear_5,3,5,63,98,1480284556
21,14,19,Jits_Linear_5,0,5,80,127,1480934920
21,14,19,Jits_Linear_5,1,1,48,57,1480944756
21,14,19,Jits_Linear_5,2,5,63,98,1480995144
21,14,19,Jits_Linear_5,3,5,56,103,1481024804
21,14,19,Jits_Linear_5,0,1,48,51,1481617788
21,14,19,Jits_Linear_5,1,5,63,98,1481664924
21,14,19,Jits_Linear_5,2,5,80,127,1481675016
21,14,19,Jits_Linear_5,3,5,56,103,1481744860
21,14,19,Jits_Linear_5,0,1,48,45,1482353900
21,14,19,Jits_Linear_5,1,5,56,103,1482414688
21,14,19,Jits_Linear_5,2,5,80,127,1482445212
21,14,19,Jits_Linear_5,3,5,63,98,1482495716
21,14,19,Jits_Linear_5,0,1,48,53,1483117600
21,14,19,Jits_Linear_5,1,5,63,98,1483194696
21,14,19,Jits_Linear_5,2,5,56,103,1483224564
21,14,19,Jits_Linear_5,3,5,80,127,1483227536
21,14,19,Jits_Linear_5,0,1,48,61,1483879152
21,14,19,Jits_Linear_5,1,5,63,98,1483945448
21,14,19,Jits_Linear_5,2,5,80,127,1483964816
21,14,19,Jits_Linear_5,3,5,56,103,1483975120
21,14,19,Jits_Linear_5,0,1,48,59,1484657460
21,14,19,Jits_Linear_5,1,5,56,103,1484694936
21,14,19,Jits_Linear_5,2,5,63,98,1484698136
21,14,19,Jits_Linear_5,3,5,80,127,1484715572
21,14,19,Jits_Linear_5,0,1,48,56,1485373472
21,14,19,Jits_Linear_5,1,5,56,103,1485395348
21,14,19,Jits_Linear_5,2,5,63,98,1485404600
21,14,19,Jits_Linear_5,3,5,80,127,1485435328
21,14,19,Jits_Linear_5,0,1,48,57,1486097336
21,14,19,Jits_Linear_5,1,5,63,98,1486165468
21,14,19,Jits_Linear_5,2,5,80,127,1486184812
21,14,19,Jits_Linear_5,3,5,56,103,1486224696
21,14,19,Jits_Linear_5,0,1,48,59,1486857680
21,14,19,Jits_Linear_5,1,5,56,103,1486944696
21,14,19,Jits_Linear_5,2,5,63,98,1486984652
21,14,19,Jits_Linear_5,3,5,80,127,1486987700
21,14,19,Jits_Linear_5,0,5,80,127,1487634868
21,14,19,Jits_Linear_5,1,5,56,103,1487674768
21,14,19,Jits_Linear_5,2,1,48,52,1487681000
21,14,19,Jits_Linear_5,3,5,63,98,1487724828
21,14,19,Jits_Linear_5,0,1,48,55,1488439600
21,14,19,Jits_Linear_5,1,5,56,103,1488444748
21,14,19,Jits_Linear_5,2,5,80,127,1488455144
21,14,19,Jits_Linear_5,3,5,63,98,1488484728
21,14,19,Jits_Linear_5,0,5,56,103,1489145400
21,14,19,Jits_Linear_5,1,1,48,59,1489185228
21,14,19,Jits_Linear_5,2,5,80,127,1489186740
21,14,19,Jits_Linear_5,3,5,63,98,1489235208
21,14,19,Jits_Linear_5,0,1,48,49,1489865984
21,14,19,Jits_Linear_5,1,5,56,103,1489904912
21,14,19,Jits_Linear_5,2,5,80,127,1489944888
21,14,19,Jits_Linear_5,3,5,63,98,1489995316
21,14,19,Jits_Linear_5,0,1,48,59,1490623576
21,14,19,Jits_Linear_5,1,5,80,127,1490654628
21,14,19,Jits_Linear_5,2,5,63,98,1490734412
21,14,19,Jits_Linear_5,3,5,56,103,1490744732
21,14,19,Jits_Linear_5,0,1,48,64,1491371116
21,14,19,Jits_Linear_5,1,5,80,127,1491464504
21,14,19,Jits_Linear_5,2,5,56,103,1491474732
21,14,19,Jits_Linear_5,3,5,63,98,1491495216
21,14,19,Jits_Linear_5,0,1,48,58,1492166568
21,14,19,Jits_Linear_5,1,5,63,98,1492194572
21,14,19,Jits_Linear_5,2,5,56,103,1492265332
21,14,19,Jits_Linear_5,3,5,80,127,1492268308
21,14,19,Jits_Linear_5,0,1,48,59,1492941720
21,14,19,Jits_Linear_5,1,5,80,127,1492954448
21,14,19,Jits_Linear_5,2,5,63,98,1493004820
21,14,19,Jits_Linear_5,3,5,56,103,1493044780
21,14,19,Jits_Linear_5,0,5,63,98,1493764480
21,14,19,Jits_Linear_5,1,1,48,60,1493765464
21,14,19,Jits_Linear_5,2,5,56,103,1493805520
21,14,19,Jits_Linear_5,3,5,80,127,1493814620
21,14,19,Jits_Linear_5,0,5,63,98,1494525204
21,14,19,Jits_Linear_5,1,1,48,54,1494532124
21,14,19,Jits_Linear_5,2,5,56,103,1494544920
21,14,19,Jits_Linear_5,3,5,80,127,1494565176
21,14,19,Jits_Linear_5,0,1,48,51,1495252556
21,14,19,Jits_Linear_5,1,5,80,127,1495255572
21,14,19,Jits_Linear_5,2,5,56,103,1495264600
21,14,19,Jits_Linear_5,3,5,63,98,1495285008
21,14,19,Jits_Linear_5,0,1,48,58,1495935904
21,14,19,Jits_Linear_5,1,5,63,98,1496055180
21,14,19,Jits_Linear_5,2,5,56,103,1496095008
21,14,19,Jits_Linear_5,3,5,80,127,1496124968
21,14,19,Jits_Linear_5,0,1,48,59,1496766444
21,14,19,Jits_Linear_5,1,5,56,103,1496834424
21,14,19,Jits_Linear_5,2,5,63,98,1496865060
21,14,19,Jits_Linear_5,3,5,80,127,1496894948
21,14,19,Jits_Linear_5,0,1,48,51,1497554236
21,14,19,Jits_Linear_5,1,5,80,127,1497584980
21,14,19,Jits_Linear_5,2,5,56,103,1497654900
21,14,19,Jits_Linear_5,3,5,63,98,1497657948
21,14,19,Jits_Linear_5,0,5,56,103,1498374444
21,14,19,Jits_Linear_5,1,1,48,54,1498375432
21,14,19,Jits_Linear_5,2,5,63,98,1498424736
21,14,19,Jits_Linear_5,3,5,80,127,1498455460
21,14,19,Jits_Linear_5,0,1,48,50,1499133224
21,14,19,Jits_Linear_5,1,5,63,98,1499135316
21,14,19,Jits_Linear_5,2,5,80,127,1499138668
21,14,19,Jits_Linear_5,3,5,56,103,1499195004
21,14,19,Jits_Linear_5,0,1,48,63,1499868940
21,14,19,Jits_Linear_5,1,5,56,103,1499945328
21,14,19,Jits_Linear_5,2,5,80,127,1499954736
21,14,19,Jits_Linear_5,3,5,63,98,1500004860
21,14,19,Jits_Linear_5,0,5,63,98,1500705068
21,14,19,Jits_Linear_5,1,1,48,50,1500707940
21,14,19,Jits_Linear_5,2,5,56,103,1500715304
21,14,19,Jits_Linear_5,3,5,80,127,1500745112
21,14,19,Jits_Linear_5,0,1,48,54,1501461080
21,14,19,Jits_Linear_5,1,5,63,98,1501525392
21,14,19,Jits_Linear_5,2,5,80,127,1501528744
21,14,19,Jits_Linear_5,3,5,56,103,1501554972
21,14,19,Jits_Linear_5,0,1,48,54,1502242804
21,14,19,Jits_Linear_5,1,5,63,98,1502335256
21,14,19,Jits_Linear_5,2,5,56,103,1502354804
21,14,19,Jits_Linear_5,3,5,80,127,1502357928
21,14,19,Jits_Linear_5,0,1,48,54,1503057116
21,14,19,Jits_Linear_5,1,5,63,98,1503084808
21,14,19,Jits_Linear_5,2,5,56,103,1503154580
21,14,19,Jits_Linear_5,3,5,80,127,1503175012
21,14,19,Jits_Linear_5,0,1,48,55,1503833968
21,14,19,Jits_Linear_5,1,5,56,103,1503865176
21,14,19,Jits_Linear_5,2,5,63,98,1503874584
21,14,19,Jits_Linear_5,3,5,80,127,1503964780
21,14,19,Jits_Linear_5,0,1,48,61,1504591696
21,14,19,Jits_Linear_5,1,5,56,103,1504675276
21,14,19,Jits_Linear_5,2,5,80,127,1504715188
21,14,19,Jits_Linear_5,3,5,63,98,1504725508
21,14,19,Jits_Linear_5,0,1,48,48,1505375288
21,14,19,Jits_Linear_5,1,5,56,103,1505495552
21,14,19,Jits_Linear_5,2,5,63,98,1505525060
21,14,19,Jits_Linear_5,3,5,80,127,1505554872
21,14,19,Jits_Linear_5,0,1,48,62,1506175904
21,14,19,Jits_Linear_5,1,5,80,127,1506255220
21,14,19,Jits_Linear_5,2,5,63,98,1506295108
21,14,19,Jits_Linear_5,3,5,56,103,1506314676
21,14,19,Jits_Linear_5,0,1,48,50,1507014012
21,14,19,Jits_Linear_5,1,5,56,103,1507094976
21,14,19,Jits_Linear_5,2,5,80,127,1507115524
21,14,19,Jits_Linear_5,3,5,63,98,1507134788
21,14,19,Jits_Linear_5,0,1,48,51,1507762400
21,14,19,Jits_Linear_5,1,5,63,98,1507865004
21,14,19,Jits_Linear_5,2,5,56,103,1507875324
21,14,19,Jits_Linear_5,3,5,80,127,1507934484
21,14,19,Jits_Linear_5,0,1,48,55,1508574504
21,14,19,Jits_Linear_5,1,5,56,103,1508675024
21,14,19,Jits_Linear_5,2,5,63,98,1508744504
21,14,19,Jits_Linear_5,3,5,80,127,1508764992
21,14,19,Jits_Linear_5,0,1,48,63,1509422220
21,14,19,Jits_Linear_5,1,5,56,103,1509484912
21,14,19,Jits_Linear_5,2,5,63,98,1509514572
21,14,19,Jits_Linear_5,3,5,80,127,1509554456
21,14,19,Jits_Linear_5,0,1,48,59,1510275012
21,14,19,Jits_Linear_5,1,5,63,98,1510284592
21,14,19,Jits_Linear_5,2,5,56,103,1510334760
21,14,19,Jits_Linear_5,3,5,80,127,1510345156
21,14,19,Jits_Linear_5,0,1,48,63,1511048264
21,14,19,Jits_Linear_5,1,5,56,103,1511134612
21,14,19,Jits_Linear_5,2,5,63,98,1511184816
21,14,19,Jits_Linear_5,3,5,80,127,1511195136
21,14,19,Jits_Linear_5,0,1,48,59,1511869624
21,14,19,Jits_Linear_5,1,5,56,103,1511914828
21,14,19,Jits_Linear_5,2,5,63,98,1511925452
21,14,19,Jits_Linear_5,3,5,80,127,1512005156
21,14,19,Jits_Linear_5,0,9999,9999,9999,1403112528
21,14,19,Jits_Linear_5,1,9999,9999,9999,1403592824
21,14,19,Jits_Linear_5,2,9999,9999,9999,1404073064
21,14,19,Jits_Linear_5,3,9999,9999,9999,1404552256
21,14,19,Jits_Linear_5,4,9999,9999,9999,1405032524
21,14,19,Jits_Linear_5,5,9999,9999,9999,1405523036
21,14,19,Jits_Linear_5,6,9999,9999,9999,1406012472
21,14,19,Jits_Linear_5,7,9999,9999,9999,1406502996
21,14,19,Jits_Linear_5,8,9999,9999,9999,1406992448
21,14,19,Jits_Linear_5,9,9999,9999,9999,1407482972
21,14,19,Jits_Linear_5,10,9999,9999,9999,1407982664
21,14,19,Jits_Linear_5,11,9999,9999,9999,1408482428
21,14,19,Jits_Linear_5,12,9999,9999,9999,1408982100
21,14,19,Jits_Linear_5,13,9999,9999,9999,1409482844
21,14,19,Jits_Linear_5,14,9999,9999,9999,1409982520
21,14,19,Jits_Linear_5,15,9999,9999,9999,1410492532
21,14,19,Jits_Linear_5,16,9999,9999,9999,1411002452
21,14,19,Jits_Linear_5,17,9999,9999,9999,1411512420
21,14,19,Jits_Linear_5,18,9999,9999,9999,1412022336
21,14,19,Jits_Linear_5,19,9999,9999,9999,1412532328
21,14,19,Jits_Linear_5,20,9999,9999,9999,1413052512
21,14,19,Jits_Linear_5,21,9999,9999,9999,1413572672
21,14,19,Jits_Linear_5,22,9999,9999,9999,1414092920
21,14,19,Jits_Linear_5,23,9999,9999,9999,1414613100
21,14,19,Jits_Linear_5,24,9999,9999,9999,1415132272
21,14,19,Jits_Linear_5,25,9999,9999,9999,1415662680
21,14,19,Jits_Linear_5,26,9999,9999,9999,1416192096
21,14,19,Jits_Linear_5,27,9999,9999,9999,1416722552
21,14,19,Jits_Linear_5,28,9999,9999,9999,1417252968
21,14,19,Jits_Linear_5,29,9999,9999,9999,1417782380
21,14,19,Jits_Linear_5,30,9999,9999,9999,1418323024
21,14,19,Jits_Linear_5,31,9999,9999,9999,1418862676
21,14,19,Jits_Linear_5,32,9999,9999,9999,1419402328
21,14,19,Jits_Linear_5,33,9999,9999,9999,1419942976
21,14,19,Jits_Linear_5,34,9999,9999,9999,1420482652
21,14,19,Jits_Linear_5,35,9999,9999,9999,1421032556
21,14,19,Jits_Linear_5,36,9999,9999,9999,1421582440
21,14,19,Jits_Linear_5,37,9999,9999,9999,1422132336
21,14,19,Jits_Linear_5,38,9999,9999,9999,1422682232
21,14,19,Jits_Linear_5,39,9999,9999,9999,1423232056
21,14,19,Jits_Linear_5,40,9999,9999,9999,1423792200
21,14,19,Jits_Linear_5,41,9999,9999,9999,1424352368
21,14,19,Jits_Linear_5,42,9999,9999,9999,1424912440
21,14,19,Jits_Linear_5,43,9999,9999,9999,1425472572
21,14,19,Jits_Linear_5,44,9999,9999,9999,1426032708
21,14,19,Jits_Linear_5,45,9999,9999,9999,1426603084
21,14,19,Jits_Linear_5,46,9999,9999,9999,1427182660
21,14,19,Jits_Linear_5,47,9999,9999,9999,1427753044
21,14,19,Jits_Linear_5,48,9999,9999,9999,1428322356
21,14,19,Jits_Linear_5,49,9999,9999,9999,1428892792
21,14,19,Jits_Linear_5,50,9999,9999,9999,1429472360
21,14,19,Jits_Linear_5,51,9999,9999,9999,1430052920
21,14,19,Jits_Linear_5,52,9999,9999,9999,1430632548
21,14,19,Jits_Linear_5,53,9999,9999,9999,1431212104
21,14,19,Jits_Linear_5,54,9999,9999,9999,1431792752
21,14,19,Jits_Linear_5,55,9999,9999,9999,1432382564
21,14,19,Jits_Linear_5,56,9999,9999,9999,1432972360
21,14,19,Jits_Linear_5,57,9999,9999,9999,1433562172
21,14,19,Jits_Linear_5,58,9999,9999,9999,1434153040
21,14,19,Jits_Linear_5,59,9999,9999,9999,1434742892
21,14,19,Jits_Linear_5,60,9999,9999,9999,1435342932
21,14,19,Jits_Linear_5,61,9999,9999,9999,1435943036
21,14,19,Jits_Linear_5,62,9999,9999,9999,1436543072
21,14,19,Jits_Linear_5,63,9999,9999,9999,1437142136
21,14,19,Jits_Linear_5,64,9999,9999,9999,1437742172
21,14,19,Jits_Linear_5,65,9999,9999,9999,1438352448
21,14,19,Jits_Linear_5,66,9999,9999,9999,1438962756
21,14,19,Jits_Linear_5,67,9999,9999,9999,1439573092
21,14,19,Jits_Linear_5,68,9999,9999,9999,1440182384
21,14,19,Jits_Linear_5,69,9999,9999,9999,1440792684
21,14,19,Jits_Linear_5,70,9999,9999,9999,1441412196
21,14,19,Jits_Linear_5,71,9999,9999,9999,1442032752
21,14,19,Jits_Linear_5,72,9999,9999,9999,1442652280
21,14,19,Jits_Linear_5,73,9999,9999,9999,1443272820
21,14,19,Jits_Linear_5,74,9999,9999,9999,1443892344
21,14,19,Jits_Linear_5,75,9999,9999,9999,1444523104
21,14,19,Jits_Linear_5,76,9999,9999,9999,1445163116
21,14,19,Jits_Linear_5,77,9999,9999,9999,1445803124
21,14,19,Jits_Linear_5,78,9999,9999,9999,1446443084
21,14,19,Jits_Linear_5,79,9999,9999,9999,1447083096
21,14,19,Jits_Linear_5,80,9999,9999,9999,1447723128
21,14,19,Jits_Linear_5,81,9999,9999,9999,1448363064
21,14,19,Jits_Linear_5,82,9999,9999,9999,1449003100
21,14,19,Jits_Linear_5,83,9999,9999,9999,1449643108
21,14,19,Jits_Linear_5,84,9999,9999,9999,1450283072
21,14,19,Jits_Linear_5,85,9999,9999,9999,1450942592
21,14,19,Jits_Linear_5,86,9999,9999,9999,1451592760
21,14,19,Jits_Linear_5,87,9999,9999,9999,1452243036
21,14,19,Jits_Linear_5,88,9999,9999,9999,1452892216
21,14,19,Jits_Linear_5,89,9999,9999,9999,1453542492
21,14,19,Jits_Linear_5,90,9999,9999,9999,1454202984
21,14,19,Jits_Linear_5,91,9999,9999,9999,1454862432
21,14,19,Jits_Linear_5,92,9999,9999,9999,1455522912
21,14,19,Jits_Linear_5,93,9999,9999,9999,1456182364
21,14,19,Jits_Linear_5,94,9999,9999,9999,1456842876
21,14,19,Jits_Linear_5,95,9999,9999,9999,1457512560
21,14,19,Jits_Linear_5,96,9999,9999,9999,1458182264
21,14,19,Jits_Linear_5,97,9999,9999,9999,1458852924
21,14,19,Jits_Linear_5,98,9999,9999,9999,1459522612
21,14,19,Jits_Linear_5,99,9999,9999,9999,1460192380
21,14,19,Jits_Linear_5,100,9999,9999,9999,1460872292
21,14,19,Jits_Linear_5,101,9999,9999,9999,1461552224
21,14,19,Jits_Linear_5,102,9999,9999,9999,1462232148
21,14,19,Jits_Linear_5,103,9999,9999,9999,1462912056
21,14,19,Jits_Linear_5,104,9999,9999,9999,1463593056
21,14,19,Jits_Linear_5,105,9999,9999,9999,1464282236
21,14,19,Jits_Linear_5,106,9999,9999,9999,1464972384
21,14,19,Jits_Linear_5,107,9999,9999,9999,1465662560
21,14,19,Jits_Linear_5,108,9999,9999,9999,1466352732
21,14,19,Jits_Linear_5,109,9999,9999,9999,1467042884
21,14,19,Jits_Linear_5,110,9999,9999,9999,1467742324
21,14,19,Jits_Linear_5,111,9999,9999,9999,1468442736
21,14,19,Jits_Linear_5,112,9999,9999,9999,1469142080
21,14,19,Jits_Linear_5,113,9999,9999,9999,1469842548
21,14,19,Jits_Linear_5,114,9999,9999,9999,1470542960
21,14,19,Jits_Linear_5,115,9999,9999,9999,1471252544
21,14,19,Jits_Linear_5,116,9999,9999,9999,1471962212
21,14,19,Jits_Linear_5,117,9999,9999,9999,1472672856
21,14,19,Jits_Linear_5,118,9999,9999,9999,1473382460
21,14,19,Jits_Linear_5,119,9999,9999,9999,1474092116
21,14,19,Jits_Linear_5,120,9999,9999,9999,1474813012
21,14,19,Jits_Linear_5,121,9999,9999,9999,1475532924
21,14,19,Jits_Linear_5,122,9999,9999,9999,1476252728
21,14,19,Jits_Linear_5,123,9999,9999,9999,1476972648
21,14,19,Jits_Linear_5,124,9999,9999,9999,1477692472
21,14,19,Jits_Linear_5,125,9999,9999,9999,1478422604
21,14,19,Jits_Linear_5,126,9999,9999,9999,1479152756
21,14,19,Jits_Linear_5,127,9999,9999,9999,1479882820
21,14,19,Jits_Linear_5,128,9999,9999,9999,1480612932
21,14,19,Jits_Linear_5,129,9999,9999,9999,1481343096
21,14,19,Jits_Linear_5,130,9999,9999,9999,1482082428
21,14,19,Jits_Linear_5,131,9999,9999,9999,1482822740
21,14,19,Jits_Linear_5,132,9999,9999,9999,1483563124
21,14,19,Jits_Linear_5,133,9999,9999,9999,1484312692
21,14,19,Jits_Linear_5,134,9999,9999,9999,1485052996
21,14,19,Jits_Linear_5,135,9999,9999,9999,1485802560
21,14,19,Jits_Linear_5,136,9999,9999,9999,1486552124
21,14,19,Jits_Linear_5,137,9999,9999,9999,1487302756
21,14,19,Jits_Linear_5,138,9999,9999,9999,1488052316
21,14,19,Jits_Linear_5,139,9999,9999,9999,1488802944
21,14,19,Jits_Linear_5,140,9999,9999,9999,1489562748
21,14,19,Jits_Linear_5,141,9999,9999,9999,1490322496
21,14,19,Jits_Linear_5,142,9999,9999,9999,1491082300
21,14,19,Jits_Linear_5,143,9999,9999,9999,1491842108
21,14,19,Jits_Linear_5,144,9999,9999,9999,1492602972
21,14,19,Jits_Linear_5,145,9999,9999,9999,1493373024
21,14,19,Jits_Linear_5,146,9999,9999,9999,1494143072
21,14,19,Jits_Linear_5,147,9999,9999,9999,1494912128
21,14,19,Jits_Linear_5,148,9999,9999,9999,1495682172
21,14,19,Jits_Linear_5,149,9999,9999,9999,1496452220
21,14,19,Jits_Linear_5,150,9999,9999,9999,1497232440
21,14,19,Jits_Linear_5,151,9999,9999,9999,1498012796
21,14,19,Jits_Linear_5,152,9999,9999,9999,1498793088
21,14,19,Jits_Linear_5,153,9999,9999,9999,1499572328
21,14,19,Jits_Linear_5,154,9999,9999,9999,1500352616
21,14,19,Jits_Linear_5,155,9999,9999,9999,1501142076
21,14,19,Jits_Linear_5,156,9999,9999,9999,1501932672
21,14,19,Jits_Linear_5,157,9999,9999,9999,1502722124
21,14,19,Jits_Linear_5,158,9999,9999,9999,1503512656
21,14,19,Jits_Linear_5,159,9999,9999,9999,1504302200
21,14,19,Jits_Linear_5,160,9999,9999,9999,1505102972
21,14,19,Jits_Linear_5,161,9999,9999,9999,1505902680
21,14,19,Jits_Linear_5,162,9999,9999,9999,1506702456
21,14,19,Jits_Linear_5,163,9999,9999,9999,1507502164
21,14,19,Jits_Linear_5,164,9999,9999,9999,1508302952
21,14,19,Jits_Linear_5,165,9999,9999,9999,1509112900
21,14,19,Jits_Linear_5,166,9999,9999,9999,1509922896
21,14,19,Jits_Linear_5,167,9999,9999,9999,1510732916
21,14,19,Jits_Linear_5,168,9999,9999,9999,1511542868
21,14,19,Jits_Linear_5,169,9999,9999,9999,1512352888
21,15,15,Jits_Phase_8,0,5,56,103,1533656348
21,15,15,Jits_Phase_8,1,5,63,98,1533659584
21,15,15,Jits_Phase_8,2,5,80,127,1533662692
21,15,15,Jits_Phase_8,0,1,48,62,1534338188
21,15,15,Jits_Phase_8,1,5,56,103,1534456288
21,15,15,Jits_Phase_8,2,5,63,98,1534459216
21,15,15,Jits_Phase_8,3,5,80,127,1534462396
21,15,15,Jits_Phase_8,0,1,48,63,1535177256
21,15,15,Jits_Phase_8,1,5,80,127,1535195472
21,15,15,Jits_Phase_8,2,5,63,98,1535285648
21,15,15,Jits_Phase_8,3,5,56,103,1535295892
21,15,15,Jits_Phase_8,0,1,48,63,1535957848
21,15,15,Jits_Phase_8,1,5,56,103,1536015732
21,15,15,Jits_Phase_8,2,5,63,98,1536026128
21,15,15,Jits_Phase_8,3,5,80,127,1536116376
21,15,15,Jits_Phase_8,0,1,48,70,1536760600
21,15,15,Jits_Phase_8,1,5,63,98,1536785704
21,15,15,Jits_Phase_8,2,5,80,127,1536815440
21,15,15,Jits_Phase_8,3,5,56,103,1536846240
21,15,15,Jits_Phase_8,0,1,48,68,1537525676
21,15,15,Jits_Phase_8,1,5,56,103,1537585548
21,15,15,Jits_Phase_8,2,5,80,127,1537686116
21,15,15,Jits_Phase_8,3,5,63,98,1537736128
21,15,15,Jits_Phase_8,0,5,56,103,1538386252
21,15,15,Jits_Phase_8,1,1,48,58,1538402952
21,15,15,Jits_Phase_8,2,5,80,127,1538435544
21,15,15,Jits_Phase_8,3,5,63,98,1538476360
21,15,15,Jits_Phase_8,0,1,48,65,1539116984
21,15,15,Jits_Phase_8,1,5,80,127,1539215672
21,15,15,Jits_Phase_8,2,5,63,98,1539245408
21,15,15,Jits_Phase_8,3,5,56,103,1539316204
21,15,15,Jits_Phase_8,0,1,48,67,1539905300
21,15,15,Jits_Phase_8,1,5,63,98,1540046276
21,15,15,Jits_Phase_8,2,5,56,103,1540075936
21,15,15,Jits_Phase_8,3,5,80,127,1540136316
21,15,15,Jits_Phase_8,0,1,48,73,1540722880
21,15,15,Jits_Phase_8,1,5,56,103,1540785460
21,15,15,Jits_Phase_8,2,5,80,127,1540788660
21,15,15,Jits_Phase_8,3,5,63,98,1540906424
21,15,15,Jits_Phase_8,0,1,48,70,1541544212
21,15,15,Jits_Phase_8,1,5,56,103,1541666072
21,15,15,Jits_Phase_8,2,5,80,127,1541706124
21,15,15,Jits_Phase_8,3,5,63,98,1541716368
21,15,15,Jits_Phase_8,0,1,48,70,1542373516
21,15,15,Jits_Phase_8,1,5,56,103,1542426116
21,15,15,Jits_Phase_8,2,5,80,127,1542445384
21,15,15,Jits_Phase_8,3,5,63,98,1542526304
21,15,15,Jits_Phase_8,0,1,48,57,1543158076
21,15,15,Jits_Phase_8,1,5,80,127,1543215428
21,15,15,Jits_Phase_8,2,5,56,103,1543316296
21,15,15,Jits_Phase_8,3,5,63,98,1543326088
21,15,15,Jits_Phase_8,0,1,48,67,1543972296
21,15,15,Jits_Phase_8,1,5,63,98,1543985552
21,15,15,Jits_Phase_8,2,5,80,127,1544045936
21,15,15,Jits_Phase_8,3,5,56,103,1544056180
21,15,15,Jits_Phase_8,0,1,48,57,1544762668
21,15,15,Jits_Phase_8,1,5,56,103,1544786316
21,15,15,Jits_Phase_8,2,5,63,98,1544855928
21,15,15,Jits_Phase_8,3,5,80,127,1544859204
21,15,15,Jits_Phase_8,0,1,48,58,1545503972
21,15,15,Jits_Phase_8,1,5,63,98,1545615796
21,15,15,Jits_Phase_8,2,5,56,103,1545665800
21,15,15,Jits_Phase_8,3,5,80,127,1545669084
21,15,15,Jits_Phase_8,0,1,48,57,1546290120
21,15,15,Jits_Phase_8,1,5,56,103,1546375676
21,15,15,Jits_Phase_8,2,5,80,127,1546378572
21,15,15,Jits_Phase_8,3,5,63,98,1546465792
21,15,15,Jits_Phase_8,0,1,48,51,1547085680
21,15,15,Jits_Phase_8,1,5,63,98,1547216184
21,15,15,Jits_Phase_8,2,5,56,103,1547306756
21,15,15,Jits_Phase_8,3,5,80,127,1547335960
21,15,15,Jits_Phase_8,0,1,48,48,1547962748
21,15,15,Jits_Phase_8,1,5,56,103,1548005816
21,15,15,Jits_Phase_8,2,5,63,98,1548106156
21,15,15,Jits_Phase_8,3,5,80,127,1548135736
21,15,15,Jits_Phase_8,0,1,48,57,1548776828
21,15,15,Jits_Phase_8,1,5,63,98,1548825920
21,15,15,Jits_Phase_8,2,5,56,103,1548836164
21,15,15,Jits_Phase_8,3,5,80,127,1548926412
21,15,15,Jits_Phase_8,0,1,48,51,1549635996
21,15,15,Jits_Phase_8,1,5,63,98,1549646108
21,15,15,Jits_Phase_8,2,5,56,103,1549726052
21,15,15,Jits_Phase_8,3,5,80,127,1549729176
21,15,15,Jits_Phase_8,0,5,80,127,1550405912
21,15,15,Jits_Phase_8,1,5,63,98,1550425556
21,15,15,Jits_Phase_8,2,1,48,63,1550454960
21,15,15,Jits_Phase_8,3,5,56,103,1550485776
21,15,15,Jits_Phase_8,0,1,48,51,1551213776
21,15,15,Jits_Phase_8,1,5,56,103,1551245664
21,15,15,Jits_Phase_8,2,5,63,98,1551266148
21,15,15,Jits_Phase_8,3,5,80,127,1551269656
21,15,15,Jits_Phase_8,0,1,48,62,1551978068
21,15,15,Jits_Phase_8,1,5,63,98,1551985968
21,15,15,Jits_Phase_8,2,5,80,127,1552065868
21,15,15,Jits_Phase_8,3,5,56,103,1552076324
21,15,15,Jits_Phase_8,0,1,48,62,1552795428
21,15,15,Jits_Phase_8,1,5,63,98,1552806228
21,15,15,Jits_Phase_8,2,5,56,103,1552825744
21,15,15,Jits_Phase_8,3,5,80,127,1552875808
21,15,15,Jits_Phase_8,0,1,48,64,1553568744
21,15,15,Jits_Phase_8,1,5,80,127,1553605948
21,15,15,Jits_Phase_8,2,5,63,98,1553645848
21,15,15,Jits_Phase_8,3,5,56,103,1553666316
21,15,15,Jits_Phase_8,0,1,48,71,1554354948
21,15,15,Jits_Phase_8,1,5,56,103,1554445696
21,15,15,Jits_Phase_8,2,5,63,98,1554455924
21,15,15,Jits_Phase_8,3,5,80,127,1554476636
21,15,15,Jits_Phase_8,0,1,48,60,1555146084
21,15,15,Jits_Phase_8,1,5,56,103,1555175760
21,15,15,Jits_Phase_8,2,5,63,98,1555265860
21,15,15,Jits_Phase_8,3,5,80,127,1555326544
21,15,15,Jits_Phase_8,0,1,48,57,1555984228
21,15,15,Jits_Phase_8,1,5,80,127,1556006488
21,15,15,Jits_Phase_8,2,5,56,103,1556015668
21,15,15,Jits_Phase_8,3,5,63,98,1556086496
21,15,15,Jits_Phase_8,0,1,48,55,1556748608
21,15,15,Jits_Phase_8,1,5,63,98,1556835696
21,15,15,Jits_Phase_8,2,5,80,127,1556925740
21,15,15,Jits_Phase_8,3,5,56,103,1556936212
21,15,15,Jits_Phase_8,0,5,63,98,1557565700
21,15,15,Jits_Phase_8,1,5,80,127,1557616220
21,15,15,Jits_Phase_8,2,1,48,67,1557622836
21,15,15,Jits_Phase_8,3,5,56,103,1557676440
21,15,15,Jits_Phase_8,0,1,48,59,1558351372
21,15,15,Jits_Phase_8,1,5,56,103,1558386028
21,15,15,Jits_Phase_8,2,5,80,127,1558436168
21,15,15,Jits_Phase_8,3,5,63,98,1558455668
21,15,15,Jits_Phase_8,0,1,48,67,1559155772
21,15,15,Jits_Phase_8,1,5,56,103,1559157360
21,15,15,Jits_Phase_8,2,5,80,127,1559215332
21,15,15,Jits_Phase_8,3,5,63,98,1559286240
21,15,15,Jits_Phase_8,0,1,48,63,1559953204
21,15,15,Jits_Phase_8,1,5,56,103,1559955840
21,15,15,Jits_Phase_8,2,5,80,127,1559985448
21,15,15,Jits_Phase_8,3,5,63,98,1560016248
21,15,15,Jits_Phase_8,0,1,48,66,1560727992
21,15,15,Jits_Phase_8,1,5,56,103,1560795456
21,15,15,Jits_Phase_8,2,5,80,127,1560816320
21,15,15,Jits_Phase_8,3,5,63,98,1560876308
21,15,15,Jits_Phase_8,0,1,48,70,1561564564
21,15,15,Jits_Phase_8,1,5,80,127,1561676236
21,15,15,Jits_Phase_8,2,5,56,103,1561686328
21,15,15,Jits_Phase_8,3,5,63,98,1561695504
21,15,15,Jits_Phase_8,0,1,48,64,1562406612
21,15,15,Jits_Phase_8,1,5,56,103,1562436136
21,15,15,Jits_Phase_8,2,5,80,127,1562476112
21,15,15,Jits_Phase_8,3,5,63,98,1562505528
21,15,15,Jits_Phase_8,0,5,56,103,1563205964
21,15,15,Jits_Phase_8,1,1,48,62,1563216028
21,15,15,Jits_Phase_8,2,5,63,98,1563235692
21,15,15,Jits_Phase_8,3,5,80,127,1563275588
21,15,15,Jits_Phase_8,0,5,80,127,1563955460
21,15,15,Jits_Phase_8,1,1,48,54,1563974464
21,15,15,Jits_Phase_8,2,5,63,98,1564005824
21,15,15,Jits_Phase_8,3,5,56,103,1564026232
21,15,15,Jits_Phase_8,0,1,48,68,1564770648
21,15,15,Jits_Phase_8,1,5,56,103,1564785964
21,15,15,Jits_Phase_8,2,5,80,127,1564855924
21,15,15,Jits_Phase_8,3,5,63,98,1564916136
21,15,15,Jits_Phase_8,0,1,48,64,1565556672
21,15,15,Jits_Phase_8,1,5,80,127,1565585892
21,15,15,Jits_Phase_8,2,5,63,98,1565676020
21,15,15,Jits_Phase_8,3,5,56,103,1565696428
21,15,15,Jits_Phase_8,0,1,48,55,1566347968
21,15,15,Jits_Phase_8,1,5,63,98,1566405956
21,15,15,Jits_Phase_8,2,5,56,103,1566425372
21,15,15,Jits_Phase_8,3,5,80,127,1566466324
21,15,15,Jits_Phase_8,0,1,48,70,1567114956
21,15,15,Jits_Phase_8,1,5,80,127,1567165908
21,15,15,Jits_Phase_8,2,5,63,98,1567186316
21,15,15,Jits_Phase_8,3,5,56,103,1567266244
21,15,15,Jits_Phase_8,0,1,48,76,1567898140
21,15,15,Jits_Phase_8,1,5,63,98,1567956428
21,15,15,Jits_Phase_8,2,5,56,103,1568066092
21,15,15,Jits_Phase_8,3,5,80,127,1568069064
21,15,15,Jits_Phase_8,0,1,48,70,1568772524
21,15,15,Jits_Phase_8,1,5,63,98,1568775688
21,15,15,Jits_Phase_8,2,5,56,103,1568785928
21,15,15,Jits_Phase_8,3,5,80,127,1568789052
21,15,15,Jits_Phase_8,0,1,48,66,1569523836
21,15,15,Jits_Phase_8,1,5,56,103,1569555952
21,15,15,Jits_Phase_8,2,5,80,127,1569675856
21,15,15,Jits_Phase_8,3,5,63,98,1569715552
21,15,15,Jits_Phase_8,0,1,48,47,1570338204
21,15,15,Jits_Phase_8,1,5,56,103,1570376140
21,15,15,Jits_Phase_8,2,5,80,127,1570455844
21,15,15,Jits_Phase_8,3,5,63,98,1570476480
21,15,15,Jits_Phase_8,0,5,56,103,1571175848
21,15,15,Jits_Phase_8,1,1,48,58,1571209524
21,15,15,Jits_Phase_8,2,5,63,98,1571286612
21,15,15,Jits_Phase_8,3,5,80,127,1571289888
21,15,15,Jits_Phase_8,0,5,56,103,1572015556
21,15,15,Jits_Phase_8,1,1,48,69,1572038992
21,15,15,Jits_Phase_8,2,5,80,127,1572046124
21,15,15,Jits_Phase_8,3,5,63,98,1572065540
21,15,15,Jits_Phase_8,0,5,63,98,1572806024
21,15,15,Jits_Phase_8,1,5,56,103,1572816268
21,15,15,Jits_Phase_8,2,5,80,127,1572825520
21,15,15,Jits_Phase_8,3,1,48,69,1572826732
21,15,15,Jits_Phase_8,0,5,80,127,1573595476
21,15,15,Jits_Phase_8,1,1,48,55,1573627696
21,15,15,Jits_Phase_8,2,5,56,103,1573645760
21,15,15,Jits_Phase_8,3,5,63,98,1573685736
21,15,15,Jits_Phase_8,0,5,80,127,1574415744
21,15,15,Jits_Phase_8,1,1,48,66,1574432828
21,15,15,Jits_Phase_8,2,5,63,98,1574436144
21,15,15,Jits_Phase_8,3,5,56,103,1574486584
21,15,15,Jits_Phase_8,0,1,48,66,1575206400
21,15,15,Jits_Phase_8,1,5,80,127,1575225684
21,15,15,Jits_Phase_8,2,5,56,103,1575256564
21,15,15,Jits_Phase_8,3,5,63,98,1575326024
21,15,15,Jits_Phase_8,0,1,48,56,1576006868
21,15,15,Jits_Phase_8,1,5,56,103,1576075528
21,15,15,Jits_Phase_8,2,5,80,127,1576085772
21,15,15,Jits_Phase_8,3,5,63,98,1576125752
21,15,15,Jits_Phase_8,0,5,56,103,1576786420
21,15,15,Jits_Phase_8,1,5,63,98,1576805688
21,15,15,Jits_Phase_8,2,1,48,59,1576832020
21,15,15,Jits_Phase_8,3,5,80,127,1576876452
21,15,15,Jits_Phase_8,0,1,48,64,1577584268
21,15,15,Jits_Phase_8,1,5,63,98,1577605540
21,15,15,Jits_Phase_8,2,5,80,127,1577665868
21,15,15,Jits_Phase_8,3,5,56,103,1577686412
21,15,15,Jits_Phase_8,0,1,48,57,1578391216
21,15,15,Jits_Phase_8,1,5,80,127,1578396140
21,15,15,Jits_Phase_8,2,5,56,103,1578425672
21,15,15,Jits_Phase_8,3,5,63,98,1578456472
21,15,15,Jits_Phase_8,0,1,48,56,1579160336
21,15,15,Jits_Phase_8,1,5,56,103,1579195704
21,15,15,Jits_Phase_8,2,5,63,98,1579256240
21,15,15,Jits_Phase_8,3,5,80,127,1579315536
21,15,15,Jits_Phase_8,0,1,48,60,1579990260
21,15,15,Jits_Phase_8,1,5,80,127,1580016044
21,15,15,Jits_Phase_8,2,5,56,103,1580035460
21,15,15,Jits_Phase_8,3,5,63,98,1580106292
21,15,15,Jits_Phase_8,0,1,48,60,1580807764
21,15,15,Jits_Phase_8,1,5,80,127,1580815812
21,15,15,Jits_Phase_8,2,5,63,98,1580836376
21,15,15,Jits_Phase_8,3,5,56,103,1580865804
21,15,15,Jits_Phase_8,0,5,80,127,1581606192
21,15,15,Jits_Phase_8,1,1,48,62,1581615720
21,15,15,Jits_Phase_8,2,5,63,98,1581625676
21,15,15,Jits_Phase_8,3,5,56,103,1581686360
21,15,15,Jits_Phase_8,0,1,48,61,1582395096
21,15,15,Jits_Phase_8,1,5,80,127,1582406048
21,15,15,Jits_Phase_8,2,5,56,103,1582506312
21,15,15,Jits_Phase_8,3,5,63,98,1582536220
21,15,15,Jits_Phase_8,0,1,48,72,1583192268
21,15,15,Jits_Phase_8,1,5,63,98,1583195508
21,15,15,Jits_Phase_8,2,5,80,127,1583245652
21,15,15,Jits_Phase_8,3,5,56,103,1583266364
21,15,15,Jits_Phase_8,0,1,48,71,1583987160
21,15,15,Jits_Phase_8,1,5,80,127,1584036252
21,15,15,Jits_Phase_8,2,5,56,103,1584066008
21,15,15,Jits_Phase_8,3,5,63,98,1584069056
21,15,15,Jits_Phase_8,0,1,48,66,1584812828
21,15,15,Jits_Phase_8,1,5,63,98,1584886240
21,15,15,Jits_Phase_8,2,5,56,103,1584926124
21,15,15,Jits_Phase_8,3,5,80,127,1584945540
21,15,15,Jits_Phase_8,0,5,80,127,1585646052
21,15,15,Jits_Phase_8,1,1,48,61,1585663968
21,15,15,Jits_Phase_8,2,5,63,98,1585725916
21,15,15,Jits_Phase_8,3,5,56,103,1585765648
21,15,15,Jits_Phase_8,0,1,48,61,1586451692
21,15,15,Jits_Phase_8,1,5,63,98,1586466244
21,15,15,Jits_Phase_8,2,5,80,127,1586546100
21,15,15,Jits_Phase_8,3,5,56,103,1586565592
21,15,15,Jits_Phase_8,0,1,48,65,1587253396
21,15,15,Jits_Phase_8,1,5,56,103,1587305924
21,15,15,Jits_Phase_8,2,5,63,98,1587316168
21,15,15,Jits_Phase_8,3,5,80,127,1587356200
21,15,15,Jits_Phase_8,0,5,56,103,1588025680
21,15,15,Jits_Phase_8,1,5,80,127,1588028956
21,15,15,Jits_Phase_8,2,1,48,66,1588053912
21,15,15,Jits_Phase_8,3,5,63,98,1588166076
21,15,15,Jits_Phase_8,0,5,56,103,1588816132
21,15,15,Jits_Phase_8,1,1,48,70,1588865104
21,15,15,Jits_Phase_8,2,5,63,98,1588906392
21,15,15,Jits_Phase_8,3,5,80,127,1588976232
21,15,15,Jits_Phase_8,0,1,48,67,1589627408
21,15,15,Jits_Phase_8,1,5,63,98,1589695940
21,15,15,Jits_Phase_8,2,5,80,127,1589699368
21,15,15,Jits_Phase_8,3,5,56,103,1589756452
21,15,15,Jits_Phase_8,0,1,48,68,1590501948
21,15,15,Jits_Phase_8,1,5,80,127,1590535460
21,15,15,Jits_Phase_8,2,5,56,103,1590556096
21,15,15,Jits_Phase_8,3,5,63,98,1590566340
21,15,15,Jits_Phase_8,0,5,56,103,1591246356
21,15,15,Jits_Phase_8,1,5,63,98,1591256372
21,15,15,Jits_Phase_8,2,5,80,127,1591326004
21,15,15,Jits_Phase_8,3,1,48,58,1591327364
21,15,15,Jits_Phase_8,0,1,48,68,1592032652
21,15,15,Jits_Phase_8,1,5,80,127,1592045984
21,15,15,Jits_Phase_8,2,5,56,103,1592096200
21,15,15,Jits_Phase_8,3,5,63,98,1592146400
21,15,15,Jits_Phase_8,0,1,48,63,1592840152
21,15,15,Jits_Phase_8,1,5,56,103,1592925636
21,15,15,Jits_Phase_8,2,5,63,98,1592935804
21,15,15,Jits_Phase_8,3,5,80,127,1592975760
21,15,15,Jits_Phase_8,0,5,56,103,1593665808
21,15,15,Jits_Phase_8,1,1,48,67,1593674956
21,15,15,Jits_Phase_8,2,5,63,98,1593705852
21,15,15,Jits_Phase_8,3,5,80,127,1593756064
21,15,15,Jits_Phase_8,0,5,80,127,1594425624
21,15,15,Jits_Phase_8,1,1,48,65,1594457164
21,15,15,Jits_Phase_8,2,5,56,103,1594475836
21,15,15,Jits_Phase_8,3,5,63,98,1594496396
21,15,15,Jits_Phase_8,0,1,48,62,1595190136
21,15,15,Jits_Phase_8,1,5,80,127,1595235872
21,15,15,Jits_Phase_8,2,5,63,98,1595296088
21,15,15,Jits_Phase_8,3,5,56,103,1595375908
21,15,15,Jits_Phase_8,0,5,80,127,1596015940
21,15,15,Jits_Phase_8,1,1,48,69,1596022320
21,15,15,Jits_Phase_8,2,5,56,103,1596055832
21,15,15,Jits_Phase_8,3,5,63,98,1596076572
21,15,15,Jits_Phase_8,0,1,48,67,1596795744
21,15,15,Jits_Phase_8,1,5,56,103,1596866036
21,15,15,Jits_Phase_8,2,5,80,127,1596876128
21,15,15,Jits_Phase_8,3,5,63,98,1596916008
21,15,15,Jits_Phase_8,0,1,48,64,1597616716
21,15,15,Jits_Phase_8,1,5,56,103,1597736344
21,15,15,Jits_Phase_8,2,5,63,98,1597776392
21,15,15,Jits_Phase_8,3,5,80,127,1597779668
21,15,15,Jits_Phase_8,0,5,63,98,1598405976
21,15,15,Jits_Phase_8,1,5,80,127,1598445876
21,15,15,Jits_Phase_8,2,1,48,68,1598505236
21,15,15,Jits_Phase_8,3,5,56,103,1598515648
21,15,15,Jits_Phase_8,0,5,63,98,1599175944
21,15,15,Jits_Phase_8,1,1,48,56,1599251500
21,15,15,Jits_Phase_8,2,5,56,103,1599256036
21,15,15,Jits_Phase_8,3,5,80,127,1599316492
21,15,15,Jits_Phase_8,0,5,80,127,1599985956
21,15,15,Jits_Phase_8,1,1,48,55,1599999072
21,15,15,Jits_Phase_8,2,5,63,98,1600036392
21,15,15,Jits_Phase_8,3,5,56,103,1600065972
21,15,15,Jits_Phase_8,0,1,48,64,1600735188
21,15,15,Jits_Phase_8,1,5,56,103,1600775568
21,15,15,Jits_Phase_8,2,5,63,98,1600825712
21,15,15,Jits_Phase_8,3,5,80,127,1600836012
21,15,15,Jits_Phase_8,0,1,48,53,1601522032
21,15,15,Jits_Phase_8,1,5,56,103,1601585580
21,15,15,Jits_Phase_8,2,5,63,98,1601696008
21,15,15,Jits_Phase_8,3,5,80,127,1601715676
21,15,15,Jits_Phase_8,0,1,48,60,1602311264
21,15,15,Jits_Phase_8,1,5,63,98,1602386424
21,15,15,Jits_Phase_8,2,5,80,127,1602435632
21,15,15,Jits_Phase_8,3,5,56,103,1602525616
21,15,15,Jits_Phase_8,0,1,48,63,1603142596
21,15,15,Jits_Phase_8,1,5,63,98,1603175880
21,15,15,Jits_Phase_8,2,5,80,127,1603205464
21,15,15,Jits_Phase_8,3,5,56,103,1603295660
21,15,15,Jits_Phase_8,0,1,48,60,1603959724
21,15,15,Jits_Phase_8,1,5,63,98,1603975504
21,15,15,Jits_Phase_8,2,5,56,103,1603985744
21,15,15,Jits_Phase_8,3,5,80,127,1604086260
21,15,15,Jits_Phase_8,0,1,48,63,1604740692
21,15,15,Jits_Phase_8,1,5,63,98,1604875564
21,15,15,Jits_Phase_8,2,5,80,127,1604906292
21,15,15,Jits_Phase_8,3,5,56,103,1604935948
21,15,15,Jits_Phase_8,0,1,48,61,1605597300
21,15,15,Jits_Phase_8,1,5,80,127,1605695768
21,15,15,Jits_Phase_8,2,5,63,98,1605706224
21,15,15,Jits_Phase_8,3,5,56,103,1605735728
21,15,15,Jits_Phase_8,0,5,80,127,1606396340
21,15,15,Jits_Phase_8,1,5,63,98,1606415684
21,15,15,Jits_Phase_8,2,1,48,67,1606458452
21,15,15,Jits_Phase_8,3,5,56,103,1606465964
21,15,15,Jits_Phase_8,0,1,48,65,1607222384
21,15,15,Jits_Phase_8,1,5,63,98,1607225624
21,15,15,Jits_Phase_8,2,5,80,127,1607286388
21,15,15,Jits_Phase_8,3,5,56,103,1607305500
21,15,15,Jits_Phase_8,0,5,63,98,1607985664
21,15,15,Jits_Phase_8,1,5,56,103,1608036184
21,15,15,Jits_Phase_8,2,5,80,127,1608045972
21,15,15,Jits_Phase_8,3,1,48,80,1608051748
21,15,15,Jits_Phase_8,0,5,56,103,1608816008
21,15,15,Jits_Phase_8,1,1,48,54,1608822084
21,15,15,Jits_Phase_8,2,5,80,127,1608826320
21,15,15,Jits_Phase_8,3,5,63,98,1608925460
21,15,15,Jits_Phase_8,0,5,80,127,1609576276
21,15,15,Jits_Phase_8,1,5,63,98,1609586216
21,15,15,Jits_Phase_8,2,1,48,81,1609637320
21,15,15,Jits_Phase_8,3,5,56,103,1609736628
21,15,15,Jits_Phase_8,0,5,63,98,1610385924
21,15,15,Jits_Phase_8,1,1,48,64,1610423536
21,15,15,Jits_Phase_8,2,5,80,127,1610425612
21,15,15,Jits_Phase_8,3,5,56,103,1610505484
21,15,15,Jits_Phase_8,0,5,56,103,1611136320
21,15,15,Jits_Phase_8,1,1,48,61,1611188132
21,15,15,Jits_Phase_8,2,5,80,127,1611235700
21,15,15,Jits_Phase_8,3,5,63,98,1611256184
21,15,15,Jits_Phase_8,0,1,48,66,1611926076
21,15,15,Jits_Phase_8,1,5,80,127,1611955472
21,15,15,Jits_Phase_8,2,5,56,103,1611965868
21,15,15,Jits_Phase_8,3,5,63,98,1612056036
21,15,15,Jits_Phase_8,0,1,48,63,1612692744
21,15,15,Jits_Phase_8,1,5,56,103,1612765492
21,15,15,Jits_Phase_8,2,5,63,98,1612785980
21,15,15,Jits_Phase_8,3,5,80,127,1612865984
21,15,15,Jits_Phase_8,0,1,48,60,1613461188
21,15,15,Jits_Phase_8,1,5,63,98,1613526516
21,15,15,Jits_Phase_8,2,5,56,103,1613615388
21,15,15,Jits_Phase_8,3,5,80,127,1613618516
21,15,15,Jits_Phase_8,0,1,48,52,1614279176
21,15,15,Jits_Phase_8,1,5,56,103,1614355788
21,15,15,Jits_Phase_8,2,5,80,127,1614416156
21,15,15,Jits_Phase_8,3,5,63,98,1614425556
21,15,15,Jits_Phase_8,0,1,48,62,1615100880
21,15,15,Jits_Phase_8,1,5,80,127,1615205992
21,15,15,Jits_Phase_8,2,5,56,103,1615216004
21,15,15,Jits_Phase_8,3,5,63,98,1615219208
21,15,15,Jits_Phase_8,0,1,48,65,1615908988
21,15,15,Jits_Phase_8,1,5,56,103,1615965652
21,15,15,Jits_Phase_8,2,5,80,127,1615975744
21,15,15,Jits_Phase_8,3,5,63,98,1615996380
21,15,15,Jits_Phase_8,0,1,48,67,1616675212
21,15,15,Jits_Phase_8,1,5,63,98,1616735844
21,15,15,Jits_Phase_8,2,5,80,127,1616796060
21,15,15,Jits_Phase_8,3,5,56,103,1616846220
21,15,15,Jits_Phase_8,0,1,48,59,1617505560
21,15,15,Jits_Phase_8,1,5,63,98,1617616340
21,15,15,Jits_Phase_8,2,5,56,103,1617625364
21,15,15,Jits_Phase_8,3,5,80,127,1617675732
21,15,15,Jits_Phase_8,0,5,63,98,1618315844
21,15,15,Jits_Phase_8,1,1,48,60,1618328960
21,15,15,Jits_Phase_8,2,5,80,127,1618336092
21,15,15,Jits_Phase_8,3,5,56,103,1618346664
21,15,15,Jits_Phase_8,0,1,48,67,1619103336
21,15,15,Jits_Phase_8,1,5,63,98,1619116536
21,15,15,Jits_Phase_8,2,5,80,127,1619119964
21,15,15,Jits_Phase_8,3,5,56,103,1619156280
21,15,15,Jits_Phase_8,0,1,48,63,1619876964
21,15,15,Jits_Phase_8,1,5,63,98,1619985684
21,15,15,Jits_Phase_8,2,5,80,127,1620015572
21,15,15,Jits_Phase_8,3,5,56,103,1620025740
21,15,15,Jits_Phase_8,0,1,48,58,1620663852
21,15,15,Jits_Phase_8,1,5,56,103,1620736632
21,15,15,Jits_Phase_8,2,5,80,127,1620765972
21,15,15,Jits_Phase_8,3,5,63,98,1620795708
21,15,15,Jits_Phase_8,0,1,48,55,1621493724
21,15,15,Jits_Phase_8,1,5,63,98,1621635532
21,15,15,Jits_Phase_8,2,5,56,103,1621676596
21,15,15,Jits_Phase_8,3,5,80,127,1621679492
21,15,15,Jits_Phase_8,0,5,80,127,1622335816
21,15,15,Jits_Phase_8,1,1,48,65,1622344048
21,15,15,Jits_Phase_8,2,5,56,103,1622415756
21,15,15,Jits_Phase_8,3,5,63,98,1622465904
21,15,15,Jits_Phase_8,0,5,80,127,1623116192
21,15,15,Jits_Phase_8,1,5,56,103,1623135608
21,15,15,Jits_Phase_8,2,1,48,67,1623166460
21,15,15,Jits_Phase_8,3,5,63,98,1623225736
21,15,15,Jits_Phase_8,0,1,48,60,1623918928
21,15,15,Jits_Phase_8,1,5,80,127,1623955868
21,15,15,Jits_Phase_8,2,5,63,98,1623995720
21,15,15,Jits_Phase_8,3,5,56,103,1624035600
21,15,15,Jits_Phase_8,0,1,48,56,1624709380
21,15,15,Jits_Phase_8,1,5,63,98,1624765688
21,15,15,Jits_Phase_8,2,5,80,127,1624826508
21,15,15,Jits_Phase_8,3,5,56,103,1624855860
21,15,15,Jits_Phase_8,0,1,48,51,1625535316
21,15,15,Jits_Phase_8,1,5,56,103,1625605580
21,15,15,Jits_Phase_8,2,5,80,127,1625636292
21,15,15,Jits_Phase_8,3,5,63,98,1625726628
21,15,15,Jits_Phase_8,0,1,48,60,1626378192
21,15,15,Jits_Phase_8,1,5,56,103,1626415368
21,15,15,Jits_Phase_8,2,5,80,127,1626526256
21,15,15,Jits_Phase_8,3,5,63,98,1626555712
21,15,15,Jits_Phase_8,0,1,48,68,1627236380
21,15,15,Jits_Phase_8,1,5,56,103,1627266436
21,15,15,Jits_Phase_8,2,5,63,98,1627325852
21,15,15,Jits_Phase_8,3,5,80,127,1627355644
21,15,15,Jits_Phase_8,0,5,56,103,1628035500
21,15,15,Jits_Phase_8,1,1,48,56,1628102364
21,15,15,Jits_Phase_8,2,5,63,98,1628106140
21,15,15,Jits_Phase_8,3,5,80,127,1628125708
21,15,15,Jits_Phase_8,0,5,80,127,1628805408
21,15,15,Jits_Phase_8,1,5,63,98,1628825972
21,15,15,Jits_Phase_8,2,1,48,68,1628837788
21,15,15,Jits_Phase_8,3,5,56,103,1628876356
21,15,15,Jits_Phase_8,0,1,48,67,1629591392
21,15,15,Jits_Phase_8,1,5,63,98,1629625616
21,15,15,Jits_Phase_8,2,5,80,127,1629636012
21,15,15,Jits_Phase_8,3,5,56,103,1629686152
21,15,15,Jits_Phase_8,0,1,48,70,1630368620
21,15,15,Jits_Phase_8,1,5,63,98,1630425388
21,15,15,Jits_Phase_8,2,5,80,127,1630496300
21,15,15,Jits_Phase_8,3,5,56,103,1630515488
21,15,15,Jits_Phase_8,0,1,48,58,1631168192
21,15,15,Jits_Phase_8,1,5,63,98,1631256040
21,15,15,Jits_Phase_8,2,5,80,127,1631259240
21,15,15,Jits_Phase_8,3,5,56,103,1631325648
21,15,15,Jits_Phase_8,0,1,48,67,1631985092
21,15,15,Jits_Phase_8,1,5,80,127,1632005592
21,15,15,Jits_Phase_8,2,5,56,103,1632026228
21,15,15,Jits_Phase_8,3,5,63,98,1632036320
21,15,15,Jits_Phase_8,0,1,48,59,1632724776
21,15,15,Jits_Phase_8,1,5,56,103,1632825676
21,15,15,Jits_Phase_8,2,5,63,98,1632915940
21,15,15,Jits_Phase_8,3,5,80,127,1632919216
21,15,15,Jits_Phase_8,0,1,48,65,1633560308
21,15,15,Jits_Phase_8,1,5,80,127,1633596032
21,15,15,Jits_Phase_8,2,5,56,103,1633606124
21,15,15,Jits_Phase_8,3,5,63,98,1633625464
21,15,15,Jits_Phase_8,0,1,48,54,1634315216
21,15,15,Jits_Phase_8,1,5,63,98,1634395572
21,15,15,Jits_Phase_8,2,5,80,127,1634456088
21,15,15,Jits_Phase_8,3,5,56,103,1634466180
21,15,15,Jits_Phase_8,0,1,48,50,1635111232
21,15,15,Jits_Phase_8,1,5,63,98,1635265896
21,15,15,Jits_Phase_8,2,5,80,127,1635295708
21,15,15,Jits_Phase_8,3,5,56,103,1635335608
21,15,15,Jits_Phase_8,0,1,48,62,1635988980
21,15,15,Jits_Phase_8,1,5,56,103,1636056444
21,15,15,Jits_Phase_8,2,5,80,127,1636065548
21,15,15,Jits_Phase_8,3,5,63,98,1636105656
21,15,15,Jits_Phase_8,0,5,80,127,1636816180
21,15,15,Jits_Phase_8,1,1,48,61,1636830592
21,15,15,Jits_Phase_8,2,5,56,103,1636896044
21,15,15,Jits_Phase_8,3,5,63,98,1636906288
21,15,15,Jits_Phase_8,0,1,48,60,1637634288
21,15,15,Jits_Phase_8,1,5,80,127,1637666176
21,15,15,Jits_Phase_8,2,5,56,103,1637746108
21,15,15,Jits_Phase_8,3,5,63,98,1637756428
21,15,15,Jits_Phase_8,0,5,80,127,1638506020
21,15,15,Jits_Phase_8,1,1,48,65,1638508668
21,15,15,Jits_Phase_8,2,5,56,103,1638555928
21,15,15,Jits_Phase_8,3,5,63,98,1638606092
21,15,15,Jits_Phase_8,0,1,48,59,1639321500
21,15,15,Jits_Phase_8,1,5,56,103,1639445816
21,15,15,Jits_Phase_8,2,5,63,98,1639448948
21,15,15,Jits_Phase_8,3,5,80,127,1639496036
21,15,15,Jits_Phase_8,0,1,48,62,1640129560
21,15,15,Jits_Phase_8,1,5,56,103,1640266152
21,15,15,Jits_Phase_8,2,5,63,98,1640295740
21,15,15,Jits_Phase_8,3,5,80,127,1640306136
21,15,15,Jits_Phase_8,0,5,63,98,1640975692
21,15,15,Jits_Phase_8,1,1,48,53,1641006008
21,15,15,Jits_Phase_8,2,5,56,103,1641046308
21,15,15,Jits_Phase_8,3,5,80,127,1641095684
21,15,15,Jits_Phase_8,0,1,48,70,1641785756
21,15,15,Jits_Phase_8,1,5,63,98,1641806108
21,15,15,Jits_Phase_8,2,5,56,103,1641816500
21,15,15,Jits_Phase_8,3,5,80,127,1641819476
21,15,15,Jits_Phase_8,0,5,80,127,1642555660
21,15,15,Jits_Phase_8,1,1,48,69,1642571216
21,15,15,Jits_Phase_8,2,5,56,103,1642616260
21,15,15,Jits_Phase_8,3,5,63,98,1642706228
21,15,15,Jits_Phase_8,0,5,80,127,1643355976
21,15,15,Jits_Phase_8,1,1,48,53,1643422664
21,15,15,Jits_Phase_8,2,5,56,103,1643455896
21,15,15,Jits_Phase_8,3,5,63,98,1643495716
21,15,15,Jits_Phase_8,0,5,56,103,1644205476
21,15,15,Jits_Phase_8,1,5,63,98,1644225812
21,15,15,Jits_Phase_8,2,1,48,62,1644251532
21,15,15,Jits_Phase_8,3,5,80,127,1644265852
21,15,15,Jits_Phase_8,0,1,48,62,1644901480
21,15,15,Jits_Phase_8,1,5,63,98,1644975752
21,15,15,Jits_Phase_8,2,5,56,103,1644995916
21,15,15,Jits_Phase_8,3,5,80,127,1645096644
21,15,15,Jits_Phase_8,0,1,48,49,1645677868
21,15,15,Jits_Phase_8,1,5,63,98,1645766044
21,15,15,Jits_Phase_8,2,5,80,127,1645875708
21,15,15,Jits_Phase_8,3,5,56,103,1645906360
21,15,15,Jits_Phase_8,0,5,56,103,1646586388
21,15,15,Jits_Phase_8,1,1,48,54,1646604712
21,15,15,Jits_Phase_8,2,5,63,98,1646616040
21,15,15,Jits_Phase_8,3,5,80,127,1646666332
21,15,15,Jits_Phase_8,0,5,63,98,1647356368
21,15,15,Jits_Phase_8,1,5,56,103,1647385952
21,15,15,Jits_Phase_8,2,1,48,62,1647409916
21,15,15,Jits_Phase_8,3,5,80,127,1647436312
21,15,15,Jits_Phase_8,0,1,48,76,1648124240
21,15,15,Jits_Phase_8,1,5,56,103,1648185636
21,15,15,Jits_Phase_8,2,5,63,98,1648206500
21,15,15,Jits_Phase_8,3,5,80,127,1648285976
21,15,15,Jits_Phase_8,0,1,48,68,1648912764
21,15,15,Jits_Phase_8,1,5,63,98,1648955676
21,15,15,Jits_Phase_8,2,5,56,103,1649016272
21,15,15,Jits_Phase_8,3,5,80,127,1649045776
21,15,15,Jits_Phase_8,0,1,48,62,1649725620
21,15,15,Jits_Phase_8,1,5,56,103,1649795424
21,15,15,Jits_Phase_8,2,5,80,127,1649855892
21,15,15,Jits_Phase_8,3,5,63,98,1649895788
21,15,15,Jits_Phase_8,0,1,48,63,1650574720
21,15,15,Jits_Phase_8,1,5,63,98,1650576548
21,15,15,Jits_Phase_8,2,5,56,103,1650636192
21,15,15,Jits_Phase_8,3,5,80,127,1650705728
21,15,15,Jits_Phase_8,0,1,48,51,1651418972
21,15,15,Jits_Phase_8,1,5,56,103,1651456296
21,15,15,Jits_Phase_8,2,5,63,98,1651465540
21,15,15,Jits_Phase_8,3,5,80,127,1651469204
21,15,15,Jits_Phase_8,0,1,48,59,1652190308
21,15,15,Jits_Phase_8,1,5,63,98,1652195608
21,15,15,Jits_Phase_8,2,5,56,103,1652256216
21,15,15,Jits_Phase_8,3,5,80,127,1652259340
21,15,15,Jits_Phase_8,0,1,48,51,1652975968
21,15,15,Jits_Phase_8,1,5,63,98,1652977480
21,15,15,Jits_Phase_8,2,5,80,127,1653005620
21,15,15,Jits_Phase_8,3,5,56,103,1653026256
21,15,15,Jits_Phase_8,0,5,56,103,1653706180
21,15,15,Jits_Phase_8,1,1,48,59,1653750628
21,15,15,Jits_Phase_8,2,5,63,98,1653756240
21,15,15,Jits_Phase_8,3,5,80,127,1653836108
21,15,15,Jits_Phase_8,0,5,80,127,1654405604
21,15,15,Jits_Phase_8,1,5,63,98,1654445528
21,15,15,Jits_Phase_8,2,5,56,103,1654466012
21,15,15,Jits_Phase_8,3,1,48,58,1654511760
21,15,15,Jits_Phase_8,0,1,48,52,1655205812
21,15,15,Jits_Phase_8,1,5,56,103,1655276028
21,15,15,Jits_Phase_8,2,5,80,127,1655286120
21,15,15,Jits_Phase_8,3,5,63,98,1655306360
21,15,15,Jits_Phase_8,0,1,48,67,1655961936
21,15,15,Jits_Phase_8,1,5,56,103,1656056160
21,15,15,Jits_Phase_8,2,5,63,98,1656106436
21,15,15,Jits_Phase_8,3,5,80,127,1656136244
21,15,15,Jits_Phase_8,0,1,48,68,1656791624
21,15,15,Jits_Phase_8,1,5,56,103,1656805644
21,15,15,Jits_Phase_8,2,5,63,98,1656816192
21,15,15,Jits_Phase_8,3,5,80,127,1656866332
21,15,15,Jits_Phase_8,0,1,48,60,1657550272
21,15,15,Jits_Phase_8,1,5,56,103,1657596384
21,15,15,Jits_Phase_8,2,5,80,127,1657599436
21,15,15,Jits_Phase_8,3,5,63,98,1657756104
21,15,15,Jits_Phase_8,0,1,48,65,1658403920
21,15,15,Jits_Phase_8,1,5,63,98,1658415420
21,15,15,Jits_Phase_8,2,5,56,103,1658486044
21,15,15,Jits_Phase_8,3,5,80,127,1658526152
21,15,15,Jits_Phase_8,0,5,63,98,1659256168
21,15,15,Jits_Phase_8,1,1,48,70,1659274720
21,15,15,Jits_Phase_8,2,5,56,103,1659346296
21,15,15,Jits_Phase_8,3,5,80,127,1659349572
21,15,15,Jits_Phase_8,0,5,56,103,1660035304
21,15,15,Jits_Phase_8,1,1,48,67,1660043608
21,15,15,Jits_Phase_8,2,5,63,98,1660125660
21,15,15,Jits_Phase_8,3,5,80,127,1660136652
21,15,15,Jits_Phase_8,0,5,56,103,1660805436
21,15,15,Jits_Phase_8,1,5,63,98,1660855908
21,15,15,Jits_Phase_8,2,1,48,70,1660870468
21,15,15,Jits_Phase_8,3,5,80,127,1660886396
21,15,15,Jits_Phase_8,0,1,48,62,1661597776
21,15,15,Jits_Phase_8,1,5,63,98,1661686180
21,15,15,Jits_Phase_8,2,5,80,127,1661696480
21,15,15,Jits_Phase_8,3,5,56,103,1661755944
21,15,15,Jits_Phase_8,0,5,63,98,1662406092
21,15,15,Jits_Phase_8,1,1,48,59,1662420884
21,15,15,Jits_Phase_8,2,5,80,127,1662466468
21,15,15,Jits_Phase_8,3,5,56,103,1662506440
21,15,15,Jits_Phase_8,0,1,48,62,1663230288
21,15,15,Jits_Phase_8,1,5,56,103,1663305988
21,15,15,Jits_Phase_8,2,5,80,127,1663325768
21,15,15,Jits_Phase_8,3,5,63,98,1663346024
21,15,15,Jits_Phase_8,0,5,63,98,1664025980
21,15,15,Jits_Phase_8,1,5,56,103,1664045324
21,15,15,Jits_Phase_8,2,1,48,62,1664046304
21,15,15,Jits_Phase_8,3,5,80,127,1664086280
21,15,15,Jits_Phase_8,0,1,48,61,1664759220
21,15,15,Jits_Phase_8,1,5,63,98,1664835908
21,15,15,Jits_Phase_8,2,5,80,127,1664865932
21,15,15,Jits_Phase_8,3,5,56,103,1664886036
21,15,15,Jits_Phase_8,0,1,48,63,1665558536
21,15,15,Jits_Phase_8,1,5,80,127,1665606024
21,15,15,Jits_Phase_8,2,5,56,103,1665656240
21,15,15,Jits_Phase_8,3,5,63,98,1665715636
21,15,15,Jits_Phase_8,0,5,63,98,1666395636
21,15,15,Jits_Phase_8,1,1,48,55,1666402328
21,15,15,Jits_Phase_8,2,5,56,103,1666516248
21,15,15,Jits_Phase_8,3,5,80,127,1666546056
21,15,15,Jits_Phase_8,0,1,48,59,1667147152
21,15,15,Jits_Phase_8,1,5,80,127,1667236144
21,15,15,Jits_Phase_8,2,5,63,98,1667255648
21,15,15,Jits_Phase_8,3,5,56,103,1667326268
21,15,15,Jits_Phase_8,0,1,48,61,1668014752
21,15,15,Jits_Phase_8,1,5,63,98,1668056504
21,15,15,Jits_Phase_8,2,5,56,103,1668065832
21,15,15,Jits_Phase_8,3,5,80,127,1668145456
21,15,15,Jits_Phase_8,0,1,48,45,1668860608
21,15,15,Jits_Phase_8,1,5,56,103,1668915672
21,15,15,Jits_Phase_8,2,5,80,127,1668946320
21,15,15,Jits_Phase_8,3,5,63,98,1668956012
21,15,15,Jits_Phase_8,0,9999,9999,9999,1534053448
21,15,15,Jits_Phase_8,1,9999,9999,9999,1534853228
21,15,15,Jits_Phase_8,2,9999,9999,9999,1535654000
21,15,15,Jits_Phase_8,3,9999,9999,9999,1536453728
21,15,15,Jits_Phase_8,4,9999,9999,9999,1537253500
21,15,15,Jits_Phase_8,5,9999,9999,9999,1538053204
21,15,15,Jits_Phase_8,6,9999,9999,9999,1538853968
21,15,15,Jits_Phase_8,7,9999,9999,9999,1539653756
21,15,15,Jits_Phase_8,8,9999,9999,9999,1540453464
21,15,15,Jits_Phase_8,9,9999,9999,9999,1541253224
21,15,15,Jits_Phase_8,10,9999,9999,9999,1542054000
21,15,15,Jits_Phase_8,11,9999,9999,9999,1542853720
21,15,15,Jits_Phase_8,12,9999,9999,9999,1543653500
21,15,15,Jits_Phase_8,13,9999,9999,9999,1544453200
21,15,15,Jits_Phase_8,14,9999,9999,9999,1545253952
21,15,15,Jits_Phase_8,15,9999,9999,9999,1546053716
21,15,15,Jits_Phase_8,16,9999,9999,9999,1546853476
21,15,15,Jits_Phase_8,17,9999,9999,9999,1547653180
21,15,15,Jits_Phase_8,18,9999,9999,9999,1548453952
21,15,15,Jits_Phase_8,19,9999,9999,9999,1549253748
21,15,15,Jits_Phase_8,20,9999,9999,9999,1550053444
21,15,15,Jits_Phase_8,21,9999,9999,9999,1550853220
21,15,15,Jits_Phase_8,22,9999,9999,9999,1551653992
21,15,15,Jits_Phase_8,23,9999,9999,9999,1552453692
21,15,15,Jits_Phase_8,24,9999,9999,9999,1553253464
21,15,15,Jits_Phase_8,25,9999,9999,9999,1554053240
21,15,15,Jits_Phase_8,26,9999,9999,9999,1554854008
21,15,15,Jits_Phase_8,27,9999,9999,9999,1555653728
21,15,15,Jits_Phase_8,28,9999,9999,9999,1556453500
21,15,15,Jits_Phase_8,29,9999,9999,9999,1557253208
21,15,15,Jits_Phase_8,30,9999,9999,9999,1558033492
21,15,15,Jits_Phase_8,31,9999,9999,9999,1558833268
21,15,15,Jits_Phase_8,32,9999,9999,9999,1559634032
21,15,15,Jits_Phase_8,33,9999,9999,9999,1560433724
21,15,15,Jits_Phase_8,34,9999,9999,9999,1561233500
21,15,15,Jits_Phase_8,35,9999,9999,9999,1562033236
21,15,15,Jits_Phase_8,36,9999,9999,9999,1562834008
21,15,15,Jits_Phase_8,37,9999,9999,9999,1563633784
21,15,15,Jits_Phase_8,38,9999,9999,9999,1564433492
21,15,15,Jits_Phase_8,39,9999,9999,9999,1565233208
21,15,15,Jits_Phase_8,40,9999,9999,9999,1566033980
21,15,15,Jits_Phase_8,41,9999,9999,9999,1566833756
21,15,15,Jits_Phase_8,42,9999,9999,9999,1567633528
21,15,15,Jits_Phase_8,43,9999,9999,9999,1568433244
21,15,15,Jits_Phase_8,44,9999,9999,9999,1569233992
21,15,15,Jits_Phase_8,45,9999,9999,9999,1570033768
21,15,15,Jits_Phase_8,46,9999,9999,9999,1570833472
21,15,15,Jits_Phase_8,47,9999,9999,9999,1571633240
21,15,15,Jits_Phase_8,48,9999,9999,9999,1572453440
21,15,15,Jits_Phase_8,49,9999,9999,9999,1573253224
21,15,15,Jits_Phase_8,50,9999,9999,9999,1574053992
21,15,15,Jits_Phase_8,51,9999,9999,9999,1574853724
21,15,15,Jits_Phase_8,52,9999,9999,9999,1575653440
21,15,15,Jits_Phase_8,53,9999,9999,9999,1576453220
21,15,15,Jits_Phase_8,54,9999,9999,9999,1577253980
21,15,15,Jits_Phase_8,55,9999,9999,9999,1578053696
21,15,15,Jits_Phase_8,56,9999,9999,9999,1578853468
21,15,15,Jits_Phase_8,57,9999,9999,9999,1579653240
21,15,15,Jits_Phase_8,58,9999,9999,9999,1580454008
21,15,15,Jits_Phase_8,59,9999,9999,9999,1581253728
21,15,15,Jits_Phase_8,60,9999,9999,9999,1582053500
21,15,15,Jits_Phase_8,61,9999,9999,9999,1582853220
21,15,15,Jits_Phase_8,62,9999,9999,9999,1583653984
21,15,15,Jits_Phase_8,63,9999,9999,9999,1584453752
21,15,15,Jits_Phase_8,64,9999,9999,9999,1585293408
21,15,15,Jits_Phase_8,65,9999,9999,9999,1586093136
21,15,15,Jits_Phase_8,66,9999,9999,9999,1586893924
21,15,15,Jits_Phase_8,67,9999,9999,9999,1587693628
21,15,15,Jits_Phase_8,68,9999,9999,9999,1588493388
21,15,15,Jits_Phase_8,69,9999,9999,9999,1589293156
21,15,15,Jits_Phase_8,70,9999,9999,9999,1590093928
21,15,15,Jits_Phase_8,71,9999,9999,9999,1590893640
21,15,15,Jits_Phase_8,72,9999,9999,9999,1591693412
21,15,15,Jits_Phase_8,73,9999,9999,9999,1592493152
21,15,15,Jits_Phase_8,74,9999,9999,9999,1593293928
21,15,15,Jits_Phase_8,75,9999,9999,9999,1594093628
21,15,15,Jits_Phase_8,76,9999,9999,9999,1594893416
21,15,15,Jits_Phase_8,77,9999,9999,9999,1595693132
21,15,15,Jits_Phase_8,78,9999,9999,9999,1596493892
21,15,15,Jits_Phase_8,79,9999,9999,9999,1597293684
21,15,15,Jits_Phase_8,80,9999,9999,9999,1598093384
21,15,15,Jits_Phase_8,81,9999,9999,9999,1598853184
21,15,15,Jits_Phase_8,82,9999,9999,9999,1599653952
21,15,15,Jits_Phase_8,83,9999,9999,9999,1600453744
21,15,15,Jits_Phase_8,84,9999,9999,9999,1601253456
21,15,15,Jits_Phase_8,85,9999,9999,9999,1602053232
21,15,15,Jits_Phase_8,86,9999,9999,9999,1602854000
21,15,15,Jits_Phase_8,87,9999,9999,9999,1603653692
21,15,15,Jits_Phase_8,88,9999,9999,9999,1604453464
21,15,15,Jits_Phase_8,89,9999,9999,9999,1605253248
21,15,15,Jits_Phase_8,90,9999,9999,9999,1606053944
21,15,15,Jits_Phase_8,91,9999,9999,9999,1606853736
21,15,15,Jits_Phase_8,92,9999,9999,9999,1607653456
21,15,15,Jits_Phase_8,93,9999,9999,9999,1608453224
21,15,15,Jits_Phase_8,94,9999,9999,9999,1609253988
21,15,15,Jits_Phase_8,95,9999,9999,9999,1610053700
21,15,15,Jits_Phase_8,96,9999,9999,9999,1610853488
21,15,15,Jits_Phase_8,97,9999,9999,9999,1611573316
21,15,15,Jits_Phase_8,98,9999,9999,9999,1612374104
21,15,15,Jits_Phase_8,99,9999,9999,9999,1613184124
21,15,15,Jits_Phase_8,100,9999,9999,9999,1613994080
21,15,15,Jits_Phase_8,101,9999,9999,9999,1614793780
21,15,15,Jits_Phase_8,102,9999,9999,9999,1615593552
21,15,15,Jits_Phase_8,103,9999,9999,9999,1616393324
21,15,15,Jits_Phase_8,104,9999,9999,9999,1617194092
21,15,15,Jits_Phase_8,105,9999,9999,9999,1617993796
21,15,15,Jits_Phase_8,106,9999,9999,9999,1618793564
21,15,15,Jits_Phase_8,107,9999,9999,9999,1619593320
21,15,15,Jits_Phase_8,108,9999,9999,9999,1620394040
21,15,15,Jits_Phase_8,109,9999,9999,9999,1621193812
21,15,15,Jits_Phase_8,110,9999,9999,9999,1621993588
21,15,15,Jits_Phase_8,111,9999,9999,9999,1622793292
21,15,15,Jits_Phase_8,112,9999,9999,9999,1623594068
21,15,15,Jits_Phase_8,113,9999,9999,9999,1624393784
21,15,15,Jits_Phase_8,114,9999,9999,9999,1625273456
21,15,15,Jits_Phase_8,115,9999,9999,9999,1626073152
21,15,15,Jits_Phase_8,116,9999,9999,9999,1626873928
21,15,15,Jits_Phase_8,117,9999,9999,9999,1627673708
21,15,15,Jits_Phase_8,118,9999,9999,9999,1628473412
21,15,15,Jits_Phase_8,119,9999,9999,9999,1629273200
21,15,15,Jits_Phase_8,120,9999,9999,9999,1630073972
21,15,15,Jits_Phase_8,121,9999,9999,9999,1630873676
21,15,15,Jits_Phase_8,122,9999,9999,9999,1631673468
21,15,15,Jits_Phase_8,123,9999,9999,9999,1632473160
21,15,15,Jits_Phase_8,124,9999,9999,9999,1633273920
21,15,15,Jits_Phase_8,125,9999,9999,9999,1634073688
21,15,15,Jits_Phase_8,126,9999,9999,9999,1634873456
21,15,15,Jits_Phase_8,127,9999,9999,9999,1635673160
21,15,15,Jits_Phase_8,128,9999,9999,9999,1636473932
21,15,15,Jits_Phase_8,129,9999,9999,9999,1637273704
21,15,15,Jits_Phase_8,130,9999,9999,9999,1638073452
21,15,15,Jits_Phase_8,131,9999,9999,9999,1639033960
21,15,15,Jits_Phase_8,132,9999,9999,9999,1639833664
21,15,15,Jits_Phase_8,133,9999,9999,9999,1640633472
21,15,15,Jits_Phase_8,134,9999,9999,9999,1641433172
21,15,15,Jits_Phase_8,135,9999,9999,9999,1642233924
21,15,15,Jits_Phase_8,136,9999,9999,9999,1643033696
21,15,15,Jits_Phase_8,137,9999,9999,9999,1643833408
21,15,15,Jits_Phase_8,138,9999,9999,9999,1644633196
21,15,15,Jits_Phase_8,139,9999,9999,9999,1645433972
21,15,15,Jits_Phase_8,140,9999,9999,9999,1646233672
21,15,15,Jits_Phase_8,141,9999,9999,9999,1647033472
21,15,15,Jits_Phase_8,142,9999,9999,9999,1647833180
21,15,15,Jits_Phase_8,143,9999,9999,9999,1648633948
21,15,15,Jits_Phase_8,144,9999,9999,9999,1649433720
21,15,15,Jits_Phase_8,145,9999,9999,9999,1650233420
21,15,15,Jits_Phase_8,146,9999,9999,9999,1651033192
21,15,15,Jits_Phase_8,147,9999,9999,9999,1651833952
21,15,15,Jits_Phase_8,148,9999,9999,9999,1652633720
21,15,15,Jits_Phase_8,149,9999,9999,9999,1653433440
21,15,15,Jits_Phase_8,150,9999,9999,9999,1654073456
21,15,15,Jits_Phase_8,151,9999,9999,9999,1654873164
21,15,15,Jits_Phase_8,152,9999,9999,9999,1655673944
21,15,15,Jits_Phase_8,153,9999,9999,9999,1656473720
21,15,15,Jits_Phase_8,154,9999,9999,9999,1657273440
21,15,15,Jits_Phase_8,155,9999,9999,9999,1658073200
21,15,15,Jits_Phase_8,156,9999,9999,9999,1658873972
21,15,15,Jits_Phase_8,157,9999,9999,9999,1659673664
21,15,15,Jits_Phase_8,158,9999,9999,9999,1660473444
21,15,15,Jits_Phase_8,159,9999,9999,9999,1661273152
21,15,15,Jits_Phase_8,160,9999,9999,9999,1662073936
21,15,15,Jits_Phase_8,161,9999,9999,9999,1662873708
21,15,15,Jits_Phase_8,162,9999,9999,9999,1663673440
21,15,15,Jits_Phase_8,163,9999,9999,9999,1664473212
21,15,15,Jits_Phase_8,164,9999,9999,9999,1665273976
21,15,15,Jits_Phase_8,165,9999,9999,9999,1666073672
21,15,15,Jits_Phase_8,166,9999,9999,9999,1666873448
21,15,15,Jits_Phase_8,167,9999,9999,9999,1667673144
21,15,15,Jits_Phase_8,168,9999,9999,9999,1668473916
21,15,15,Jits_Phase_8,169,9999,9999,9999,1669273696
21,16,17,Jits_Phase_5,0,5,56,103,1681624508
21,16,17,Jits_Phase_5,1,5,63,98,1681627508
21,16,17,Jits_Phase_5,2,5,80,127,1681630692
21,16,17,Jits_Phase_5,0,5,56,103,1682124132
21,16,17,Jits_Phase_5,1,5,63,98,1682127288
21,16,17,Jits_Phase_5,2,5,80,127,1682130320
21,16,17,Jits_Phase_5,0,1,48,52,1682623092
21,16,17,Jits_Phase_5,1,5,56,103,1682625072
21,16,17,Jits_Phase_5,2,5,80,127,1682634096
21,16,17,Jits_Phase_5,3,5,63,98,1682653512
21,16,17,Jits_Phase_5,0,5,63,98,1683074364
21,16,17,Jits_Phase_5,1,5,80,127,1683104020
21,16,17,Jits_Phase_5,2,5,56,103,1683114288
21,16,17,Jits_Phase_5,3,1,48,57,1683164928
21,16,17,Jits_Phase_5,0,1,48,70,1683619772
21,16,17,Jits_Phase_5,1,5,80,127,1683633588
21,16,17,Jits_Phase_5,2,5,56,103,1683644056
21,16,17,Jits_Phase_5,3,5,63,98,1683673640
21,16,17,Jits_Phase_5,0,5,63,98,1684124068
21,16,17,Jits_Phase_5,1,1,48,62,1684141876
21,16,17,Jits_Phase_5,2,5,56,103,1684153892
21,16,17,Jits_Phase_5,3,5,80,127,1684164136
21,16,17,Jits_Phase_5,0,5,56,103,1684573604
21,16,17,Jits_Phase_5,1,5,63,98,1684623972
21,16,17,Jits_Phase_5,2,5,80,127,1684644228
21,16,17,Jits_Phase_5,3,1,48,64,1684662344
21,16,17,Jits_Phase_5,0,5,80,127,1685074204
21,16,17,Jits_Phase_5,1,5,63,98,1685123504
21,16,17,Jits_Phase_5,2,1,48,62,1685148532
21,16,17,Jits_Phase_5,3,5,56,103,1685164332
21,16,17,Jits_Phase_5,0,5,56,103,1685574192
21,16,17,Jits_Phase_5,1,5,63,98,1685603924
21,16,17,Jits_Phase_5,2,1,48,59,1685649520
21,16,17,Jits_Phase_5,3,5,80,127,1685674332
21,16,17,Jits_Phase_5,0,5,56,103,1686073804
21,16,17,Jits_Phase_5,1,1,48,76,1686126128
21,16,17,Jits_Phase_5,2,5,80,127,1686134252
21,16,17,Jits_Phase_5,3,5,63,98,1686163908
21,16,17,Jits_Phase_5,0,5,56,103,1686583884
21,16,17,Jits_Phase_5,1,5,63,98,1686593976
21,16,17,Jits_Phase_5,2,1,48,51,1686609836
21,16,17,Jits_Phase_5,3,5,80,127,1686633940
21,16,17,Jits_Phase_5,0,5,63,98,1687074088
21,16,17,Jits_Phase_5,1,1,48,52,1687083844
21,16,17,Jits_Phase_5,2,5,80,127,1687154104
21,16,17,Jits_Phase_5,3,5,56,103,1687164272
21,16,17,Jits_Phase_5,0,1,48,54,1687588096
21,16,17,Jits_Phase_5,1,5,63,98,1687624120
21,16,17,Jits_Phase_5,2,5,56,103,1687664016
21,16,17,Jits_Phase_5,3,5,80,127,1687667064
21,16,17,Jits_Phase_5,0,5,56,103,1688083748
21,16,17,Jits_Phase_5,1,5,63,98,1688093988
21,16,17,Jits_Phase_5,2,1,48,59,1688130868
21,16,17,Jits_Phase_5,3,5,80,127,1688134028
21,16,17,Jits_Phase_5,0,5,56,103,1688574248
21,16,17,Jits_Phase_5,1,5,63,98,1688577304
21,16,17,Jits_Phase_5,2,5,80,127,1688593820
21,16,17,Jits_Phase_5,3,1,48,66,1688606784
21,16,17,Jits_Phase_5,0,1,48,60,1689082776
21,16,17,Jits_Phase_5,1,5,80,127,1689084540
21,16,17,Jits_Phase_5,2,5,56,103,1689093792
21,16,17,Jits_Phase_5,3,5,63,98,1689164184
21,16,17,Jits_Phase_5,0,1,48,55,1689567064
21,16,17,Jits_Phase_5,1,5,63,98,1689573744
21,16,17,Jits_Phase_5,2,5,56,103,1689594152
21,16,17,Jits_Phase_5,3,5,80,127,1689674004
21,16,17,Jits_Phase_5,0,1,48,54,1690067652
21,16,17,Jits_Phase_5,1,5,56,103,1690083580
21,16,17,Jits_Phase_5,2,5,80,127,1690123632
21,16,17,Jits_Phase_5,3,5,63,98,1690133876
21,16,17,Jits_Phase_5,0,5,80,127,1690574084
21,16,17,Jits_Phase_5,1,1,48,57,1690583160
21,16,17,Jits_Phase_5,2,5,63,98,1690603888
21,16,17,Jits_Phase_5,3,5,56,103,1690643784
21,16,17,Jits_Phase_5,0,5,56,103,1691094632
21,16,17,Jits_Phase_5,1,1,48,50,1691104160
21,16,17,Jits_Phase_5,2,5,63,98,1691124132
21,16,17,Jits_Phase_5,3,5,80,127,1691174420
21,16,17,Jits_Phase_5,0,5,80,127,1691594016
21,16,17,Jits_Phase_5,1,1,48,56,1691594924
21,16,17,Jits_Phase_5,2,5,56,103,1691633908
21,16,17,Jits_Phase_5,3,5,63,98,1691644604
21,16,17,Jits_Phase_5,0,5,80,127,1692074592
21,16,17,Jits_Phase_5,1,1,48,57,1692101860
21,16,17,Jits_Phase_5,2,5,63,98,1692114256
21,16,17,Jits_Phase_5,3,5,56,103,1692173796
21,16,17,Jits_Phase_5,0,5,56,103,1692574104
21,16,17,Jits_Phase_5,1,5,80,127,1692584676
21,16,17,Jits_Phase_5,2,1,48,57,1692640436
21,16,17,Jits_Phase_5,3,5,63,98,1692664384
21,16,17,Jits_Phase_5,0,5,80,127,1693073712
21,16,17,Jits_Phase_5,1,1,48,65,1693124456
21,16,17,Jits_Phase_5,2,5,63,98,1693134264
21,16,17,Jits_Phase_5,3,5,56,103,1693163920
21,16,17,Jits_Phase_5,0,5,56,103,1693573400
21,16,17,Jits_Phase_5,1,1,48,57,1693591800
21,16,17,Jits_Phase_5,2,5,80,127,1693633800
21,16,17,Jits_Phase_5,3,5,63,98,1693673848
21,16,17,Jits_Phase_5,0,1,48,58,1694104088
21,16,17,Jits_Phase_5,1,5,56,103,1694124388
21,16,17,Jits_Phase_5,2,5,63,98,1694133552
21,16,17,Jits_Phase_5,3,5,80,127,1694136912
21,16,17,Jits_Phase_5,0,5,80,127,1694573896
21,16,17,Jits_Phase_5,1,1,48,54,1694608792
21,16,17,Jits_Phase_5,2,5,63,98,1694663948
21,16,17,Jits_Phase_5,3,5,56,103,1694674344
21,16,17,Jits_Phase_5,0,5,56,103,1695073560
21,16,17,Jits_Phase_5,1,5,63,98,1695076568
21,16,17,Jits_Phase_5,2,5,80,127,1695079828
21,16,17,Jits_Phase_5,3,1,48,60,1695109532
21,16,17,Jits_Phase_5,0,1,48,55,1695576652
21,16,17,Jits_Phase_5,1,5,80,127,1695593796
21,16,17,Jits_Phase_5,2,5,63,98,1695644088
21,16,17,Jits_Phase_5,3,5,56,103,1695674440
21,16,17,Jits_Phase_5,0,5,56,103,1696084536
21,16,17,Jits_Phase_5,1,5,80,127,1696093484
21,16,17,Jits_Phase_5,2,1,48,35,1696101240
21,16,17,Jits_Phase_5,3,5,63,98,1696164648
21,16,17,Jits_Phase_5,0,1,48,51,1696571336
21,16,17,Jits_Phase_5,1,5,56,103,1696594224
21,16,17,Jits_Phase_5,2,5,63,98,1696613868
21,16,17,Jits_Phase_5,3,5,80,127,1696674308
21,16,17,Jits_Phase_5,0,5,80,127,1697073552
21,16,17,Jits_Phase_5,1,1,48,54,1697084760
21,16,17,Jits_Phase_5,2,5,63,98,1697144240
21,16,17,Jits_Phase_5,3,5,56,103,1697163508
21,16,17,Jits_Phase_5,0,1,48,53,1697588492
21,16,17,Jits_Phase_5,1,5,80,127,1697593716
21,16,17,Jits_Phase_5,2,5,56,103,1697603960
21,16,17,Jits_Phase_5,3,5,63,98,1697614432
21,16,17,Jits_Phase_5,0,5,80,127,1698084368
21,16,17,Jits_Phase_5,1,1,48,43,1698100152
21,16,17,Jits_Phase_5,2,5,56,103,1698103852
21,16,17,Jits_Phase_5,3,5,63,98,1698174320
21,16,17,Jits_Phase_5,0,5,56,103,1698594372
21,16,17,Jits_Phase_5,1,5,80,127,1698623804
21,16,17,Jits_Phase_5,2,5,63,98,1698644440
21,16,17,Jits_Phase_5,3,1,48,56,1698660912
21,16,17,Jits_Phase_5,0,5,63,98,1699083596
21,16,17,Jits_Phase_5,1,1,48,50,1699142664
21,16,17,Jits_Phase_5,2,5,56,103,1699144348
21,16,17,Jits_Phase_5,3,5,80,127,1699173700
21,16,17,Jits_Phase_5,0,5,63,98,1699574396
21,16,17,Jits_Phase_5,1,5,80,127,1699577596
21,16,17,Jits_Phase_5,2,1,48,63,1699636652
21,16,17,Jits_Phase_5,3,5,56,103,1699664264
21,16,17,Jits_Phase_5,0,1,48,65,1700085116
21,16,17,Jits_Phase_5,1,5,56,103,1700094232
21,16,17,Jits_Phase_5,2,5,63,98,1700124120
21,16,17,Jits_Phase_5,3,5,80,127,1700164168
21,16,17,Jits_Phase_5,0,5,63,98,1700594144
21,16,17,Jits_Phase_5,1,1,48,51,1700611244
21,16,17,Jits_Phase_5,2,5,56,103,1700634188
21,16,17,Jits_Phase_5,3,5,80,127,1700653376
21,16,17,Jits_Phase_5,0,5,63,98,1701104208
21,16,17,Jits_Phase_5,1,1,48,63,1701108920
21,16,17,Jits_Phase_5,2,5,56,103,1701144176
21,16,17,Jits_Phase_5,3,5,80,127,1701154344
21,16,17,Jits_Phase_5,0,5,80,127,1701584164
21,16,17,Jits_Phase_5,1,1,48,61,1701591784
21,16,17,Jits_Phase_5,2,5,63,98,1701654016
21,16,17,Jits_Phase_5,3,5,56,103,1701674348
21,16,17,Jits_Phase_5,0,5,56,103,1702073688
21,16,17,Jits_Phase_5,1,5,80,127,1702094172
21,16,17,Jits_Phase_5,2,5,63,98,1702134220
21,16,17,Jits_Phase_5,3,1,48,55,1702140832
21,16,17,Jits_Phase_5,0,5,63,98,1702583612
21,16,17,Jits_Phase_5,1,5,80,127,1702604252
21,16,17,Jits_Phase_5,2,5,56,103,1702644148
21,16,17,Jits_Phase_5,3,1,48,62,1702671084
21,16,17,Jits_Phase_5,0,5,63,98,1703084432
21,16,17,Jits_Phase_5,1,5,56,103,1703103920
21,16,17,Jits_Phase_5,2,5,80,127,1703114164
21,16,17,Jits_Phase_5,3,1,48,60,1703131092
21,16,17,Jits_Phase_5,0,5,80,127,1703584072
21,16,17,Jits_Phase_5,1,1,48,62,1703587024
21,16,17,Jits_Phase_5,2,5,56,103,1703603508
21,16,17,Jits_Phase_5,3,5,63,98,1703634232
21,16,17,Jits_Phase_5,0,1,48,55,1704086632
21,16,17,Jits_Phase_5,1,5,56,103,1704153476
21,16,17,Jits_Phase_5,2,5,80,127,1704156452
21,16,17,Jits_Phase_5,3,5,63,98,1704173884
21,16,17,Jits_Phase_5,0,5,63,98,1704574252
21,16,17,Jits_Phase_5,1,1,48,58,1704589884
21,16,17,Jits_Phase_5,2,5,56,103,1704604132
21,16,17,Jits_Phase_5,3,5,80,127,1704664384
21,16,17,Jits_Phase_5,0,1,48,50,1705079164
21,16,17,Jits_Phase_5,1,5,63,98,1705154040
21,16,17,Jits_Phase_5,2,5,56,103,1705164208
21,16,17,Jits_Phase_5,3,5,80,127,1705174968
21,16,17,Jits_Phase_5,0,5,56,103,1705613648
21,16,17,Jits_Phase_5,1,1,48,43,1705642544
21,16,17,Jits_Phase_5,2,5,80,127,1705644316
21,16,17,Jits_Phase_5,3,5,63,98,1705653640
21,16,17,Jits_Phase_5,0,1,48,45,1706118412
21,16,17,Jits_Phase_5,1,5,63,98,1706154388
21,16,17,Jits_Phase_5,2,5,56,103,1706163564
21,16,17,Jits_Phase_5,3,5,80,127,1706183972
21,16,17,Jits_Phase_5,0,5,56,103,1706584340
21,16,17,Jits_Phase_5,1,5,63,98,1706643952
21,16,17,Jits_Phase_5,2,1,48,46,1706647080
21,16,17,Jits_Phase_5,3,5,80,127,1706648828
21,16,17,Jits_Phase_5,0,5,80,127,1707103812
21,16,17,Jits_Phase_5,1,5,56,103,1707113980
21,16,17,Jits_Phase_5,2,1,48,53,1707117620
21,16,17,Jits_Phase_5,3,5,63,98,1707183396
21,16,17,Jits_Phase_5,0,5,80,127,1707594024
21,16,17,Jits_Phase_5,1,1,48,44,1707623580
21,16,17,Jits_Phase_5,2,5,56,103,1707663796
21,16,17,Jits_Phase_5,3,5,63,98,1707674040
21,16,17,Jits_Phase_5,0,5,63,98,1708133992
21,16,17,Jits_Phase_5,1,1,48,57,1708139308
21,16,17,Jits_Phase_5,2,5,56,103,1708144000
21,16,17,Jits_Phase_5,3,5,80,127,1708163492
21,16,17,Jits_Phase_5,0,5,80,127,1708584368
21,16,17,Jits_Phase_5,1,1,48,48,1708639896
21,16,17,Jits_Phase_5,2,5,63,98,1708643824
21,16,17,Jits_Phase_5,3,5,56,103,1708683872
21,16,17,Jits_Phase_5,0,5,56,103,1709123952
21,16,17,Jits_Phase_5,1,1,48,56,1709128812
21,16,17,Jits_Phase_5,2,5,63,98,1709134188
21,16,17,Jits_Phase_5,3,5,80,127,1709174236
21,16,17,Jits_Phase_5,0,5,56,103,1709583744
21,16,17,Jits_Phase_5,1,5,80,127,1709613400
21,16,17,Jits_Phase_5,2,1,48,51,1709629720
21,16,17,Jits_Phase_5,3,5,63,98,1709663908
21,16,17,Jits_Phase_5,0,5,56,103,1710124320
21,16,17,Jits_Phase_5,1,1,48,56,1710142716
21,16,17,Jits_Phase_5,2,5,63,98,1710164276
21,16,17,Jits_Phase_5,3,5,80,127,1710168016
21,16,17,Jits_Phase_5,0,1,48,53,1710600268
21,16,17,Jits_Phase_5,1,5,56,103,1710624220
21,16,17,Jits_Phase_5,2,5,63,98,1710634312
21,16,17,Jits_Phase_5,3,5,80,127,1710653956
21,16,17,Jits_Phase_5,0,5,56,103,1711083840
21,16,17,Jits_Phase_5,1,5,80,127,1711087048
21,16,17,Jits_Phase_5,2,1,48,53,1711117668
21,16,17,Jits_Phase_5,3,5,63,98,1711123732
21,16,17,Jits_Phase_5,0,1,48,57,1711579436
21,16,17,Jits_Phase_5,1,5,63,98,1711623640
21,16,17,Jits_Phase_5,2,5,56,103,1711654216
21,16,17,Jits_Phase_5,3,5,80,127,1711673632
21,16,17,Jits_Phase_5,0,1,48,55,1712086148
21,16,17,Jits_Phase_5,1,5,80,127,1712093740
21,16,17,Jits_Phase_5,2,5,56,103,1712103756
21,16,17,Jits_Phase_5,3,5,63,98,1712114148
21,16,17,Jits_Phase_5,0,1,48,61,1712588032
21,16,17,Jits_Phase_5,1,5,56,103,1712594248
21,16,17,Jits_Phase_5,2,5,80,127,1712634224
21,16,17,Jits_Phase_5,3,5,63,98,1712663880
21,16,17,Jits_Phase_5,0,1,48,46,1713085796
21,16,17,Jits_Phase_5,1,5,63,98,1713104312
21,16,17,Jits_Phase_5,2,5,80,127,1713113640
21,16,17,Jits_Phase_5,3,5,56,103,1713123732
21,16,17,Jits_Phase_5,0,1,48,59,1713591112
21,16,17,Jits_Phase_5,1,5,56,103,1713593744
21,16,17,Jits_Phase_5,2,5,63,98,1713664520
21,16,17,Jits_Phase_5,3,5,80,127,1713673540
21,16,17,Jits_Phase_5,0,1,48,51,1714087428
21,16,17,Jits_Phase_5,1,5,80,127,1714103736
21,16,17,Jits_Phase_5,2,5,56,103,1714113828
21,16,17,Jits_Phase_5,3,5,63,98,1714164040
21,16,17,Jits_Phase_5,0,1,48,54,1714574392
21,16,17,Jits_Phase_5,1,5,80,127,1714613568
21,16,17,Jits_Phase_5,2,5,56,103,1714674012
21,16,17,Jits_Phase_5,3,5,63,98,1714703668
21,16,17,Jits_Phase_5,0,5,56,103,1715123488
21,16,17,Jits_Phase_5,1,5,80,127,1715126768
21,16,17,Jits_Phase_5,2,1,48,60,1715135000
21,16,17,Jits_Phase_5,3,5,63,98,1715163532
21,16,17,Jits_Phase_5,0,1,48,70,1715612724
21,16,17,Jits_Phase_5,1,5,56,103,1715653960
21,16,17,Jits_Phase_5,2,5,63,98,1715683848
21,16,17,Jits_Phase_5,3,5,80,127,1715693940
21,16,17,Jits_Phase_5,0,1,48,63,1716124620
21,16,17,Jits_Phase_5,1,5,63,98,1716163880
21,16,17,Jits_Phase_5,2,5,80,127,1716174196
21,16,17,Jits_Phase_5,3,5,56,103,1716184520
21,16,17,Jits_Phase_5,0,1,48,49,1716609916
21,16,17,Jits_Phase_5,1,5,80,127,1716613692
21,16,17,Jits_Phase_5,2,5,56,103,1716663704
21,16,17,Jits_Phase_5,3,5,63,98,1716666904
21,16,17,Jits_Phase_5,0,1,48,54,1717123880
21,16,17,Jits_Phase_5,1,5,56,103,1717143928
21,16,17,Jits_Phase_5,2,5,80,127,1717164512
21,16,17,Jits_Phase_5,3,5,63,98,1717173612
21,16,17,Jits_Phase_5,0,1,48,68,1717613460
21,16,17,Jits_Phase_5,1,5,63,98,1717624108
21,16,17,Jits_Phase_5,2,5,56,103,1717653764
21,16,17,Jits_Phase_5,3,5,80,127,1717674500
21,16,17,Jits_Phase_5,0,5,56,103,1718134256
21,16,17,Jits_Phase_5,1,5,80,127,1718144580
21,16,17,Jits_Phase_5,2,1,48,48,1718151364
21,16,17,Jits_Phase_5,3,5,63,98,1718214144
21,16,17,Jits_Phase_5,0,1,48,65,1718608760
21,16,17,Jits_Phase_5,1,5,63,98,1718623620
21,16,17,Jits_Phase_5,2,5,80,127,1718663520
21,16,17,Jits_Phase_5,3,5,56,103,1718704492
21,16,17,Jits_Phase_5,0,1,48,64,1719134048
21,16,17,Jits_Phase_5,1,5,56,103,1719143700
21,16,17,Jits_Phase_5,2,5,63,98,1719154172
21,16,17,Jits_Phase_5,3,5,80,127,1719173436
21,16,17,Jits_Phase_5,0,1,48,65,1719632500
21,16,17,Jits_Phase_5,1,5,63,98,1719683500
21,16,17,Jits_Phase_5,2,5,80,127,1719703832
21,16,17,Jits_Phase_5,3,5,56,103,1719724492
21,16,17,Jits_Phase_5,0,5,56,103,1720123720
21,16,17,Jits_Phase_5,1,1,48,51,1720144256
21,16,17,Jits_Phase_5,2,5,80,127,1720203584
21,16,17,Jits_Phase_5,3,5,63,98,1720213828
21,16,17,Jits_Phase_5,0,1,48,54,1720637820
21,16,17,Jits_Phase_5,1,5,80,127,1720664372
21,16,17,Jits_Phase_5,2,5,63,98,1720673544
21,16,17,Jits_Phase_5,3,5,56,103,1720704272
21,16,17,Jits_Phase_5,0,5,63,98,1721124456
21,16,17,Jits_Phase_5,1,5,80,127,1721164356
21,16,17,Jits_Phase_5,2,1,48,62,1721174420
21,16,17,Jits_Phase_5,3,5,56,103,1721223428
21,16,17,Jits_Phase_5,0,5,63,98,1721634144
21,16,17,Jits_Phase_5,1,1,48,52,1721636860
21,16,17,Jits_Phase_5,2,5,56,103,1721684348
21,16,17,Jits_Phase_5,3,5,80,127,1721714232
21,16,17,Jits_Phase_5,0,5,80,127,1722133812
21,16,17,Jits_Phase_5,1,1,48,65,1722136916
21,16,17,Jits_Phase_5,2,5,63,98,1722144280
21,16,17,Jits_Phase_5,3,5,56,103,1722213676
21,16,17,Jits_Phase_5,0,1,48,70,1722625752
21,16,17,Jits_Phase_5,1,5,80,127,1722694256
21,16,17,Jits_Phase_5,2,5,56,103,1722704496
21,16,17,Jits_Phase_5,3,5,63,98,1722707392
21,16,17,Jits_Phase_5,0,5,56,103,1723134168
21,16,17,Jits_Phase_5,1,5,80,127,1723153812
21,16,17,Jits_Phase_5,2,1,48,59,1723161184
21,16,17,Jits_Phase_5,3,5,63,98,1723164196
21,16,17,Jits_Phase_5,0,5,63,98,1723644400
21,16,17,Jits_Phase_5,1,1,48,61,1723672044
21,16,17,Jits_Phase_5,2,5,56,103,1723684364
21,16,17,Jits_Phase_5,3,5,80,127,1723703552
21,16,17,Jits_Phase_5,0,5,63,98,1724144076
21,16,17,Jits_Phase_5,1,1,48,59,1724170940
21,16,17,Jits_Phase_5,2,5,56,103,1724204444
21,16,17,Jits_Phase_5,3,5,80,127,1724207568
21,16,17,Jits_Phase_5,0,5,56,103,1724603696
21,16,17,Jits_Phase_5,1,5,80,127,1724624180
21,16,17,Jits_Phase_5,2,1,48,55,1724642268
21,16,17,Jits_Phase_5,3,5,63,98,1724664068
21,16,17,Jits_Phase_5,0,1,48,65,1725117020
21,16,17,Jits_Phase_5,1,5,56,103,1725134092
21,16,17,Jits_Phase_5,2,5,63,98,1725153660
21,16,17,Jits_Phase_5,3,5,80,127,1725164132
21,16,17,Jits_Phase_5,0,1,48,66,1725600844
21,16,17,Jits_Phase_5,1,5,80,127,1725604108
21,16,17,Jits_Phase_5,2,5,56,103,1725633992
21,16,17,Jits_Phase_5,3,5,63,98,1725673892
21,16,17,Jits_Phase_5,0,1,48,55,1726101272
21,16,17,Jits_Phase_5,1,5,80,127,1726114244
21,16,17,Jits_Phase_5,2,5,56,103,1726133736
21,16,17,Jits_Phase_5,3,5,63,98,1726194192
21,16,17,Jits_Phase_5,0,1,48,54,1726601344
21,16,17,Jits_Phase_5,1,5,56,103,1726624136
21,16,17,Jits_Phase_5,2,5,80,127,1726643500
21,16,17,Jits_Phase_5,3,5,63,98,1726704088
21,16,17,Jits_Phase_5,0,1,48,53,1727104704
21,16,17,Jits_Phase_5,1,5,80,127,1727106076
21,16,17,Jits_Phase_5,2,5,56,103,1727113568
21,16,17,Jits_Phase_5,3,5,63,98,1727153416
21,16,17,Jits_Phase_5,0,5,63,98,1727603992
21,16,17,Jits_Phase_5,1,1,48,61,1727604980
21,16,17,Jits_Phase_5,2,5,56,103,1727643952
21,16,17,Jits_Phase_5,3,5,80,127,1727647084
21,16,17,Jits_Phase_5,0,1,48,61,1728108888
21,16,17,Jits_Phase_5,1,5,63,98,1728124200
21,16,17,Jits_Phase_5,2,5,80,127,1728164124
21,16,17,Jits_Phase_5,3,5,56,103,1728193932
21,16,17,Jits_Phase_5,0,5,56,103,1728613792
21,16,17,Jits_Phase_5,1,1,48,52,1728620024
21,16,17,Jits_Phase_5,2,5,63,98,1728624180
21,16,17,Jits_Phase_5,3,5,80,127,1728653912
21,16,17,Jits_Phase_5,0,5,80,127,1729104224
21,16,17,Jits_Phase_5,1,1,48,56,1729144400
21,16,17,Jits_Phase_5,2,5,63,98,1729173924
21,16,17,Jits_Phase_5,3,5,56,103,1729184088
21,16,17,Jits_Phase_5,0,5,63,98,1729604040
21,16,17,Jits_Phase_5,1,1,48,59,1729638168
21,16,17,Jits_Phase_5,2,5,56,103,1729673584
21,16,17,Jits_Phase_5,3,5,80,127,1729684132
21,16,17,Jits_Phase_5,0,5,63,98,1730084144
21,16,17,Jits_Phase_5,1,5,56,103,1730103788
21,16,17,Jits_Phase_5,2,1,48,63,1730115300
21,16,17,Jits_Phase_5,3,5,80,127,1730143528
21,16,17,Jits_Phase_5,0,5,56,103,1730563340
21,16,17,Jits_Phase_5,1,5,63,98,1730573888
21,16,17,Jits_Phase_5,2,1,48,61,1730586012
21,16,17,Jits_Phase_5,3,5,80,127,1730653592
21,16,17,Jits_Phase_5,0,5,63,98,1731053848
21,16,17,Jits_Phase_5,1,1,48,51,1731064596
21,16,17,Jits_Phase_5,2,5,56,103,1731083728
21,16,17,Jits_Phase_5,3,5,80,127,1731123700
21,16,17,Jits_Phase_5,0,1,48,57,1731547448
21,16,17,Jits_Phase_5,1,5,56,103,1731553892
21,16,17,Jits_Phase_5,2,5,63,98,1731593640
21,16,17,Jits_Phase_5,3,5,80,127,1731633460
21,16,17,Jits_Phase_5,0,5,80,127,1732054412
21,16,17,Jits_Phase_5,1,1,48,54,1732056084
21,16,17,Jits_Phase_5,2,5,56,103,1732134200
21,16,17,Jits_Phase_5,3,5,63,98,1732143528
21,16,17,Jits_Phase_5,0,1,48,58,1732556900
21,16,17,Jits_Phase_5,1,5,56,103,1732604224
21,16,17,Jits_Phase_5,2,5,63,98,1732607356
21,16,17,Jits_Phase_5,3,5,80,127,1732613480
21,16,17,Jits_Phase_5,0,1,48,54,1733054500
21,16,17,Jits_Phase_5,1,5,56,103,1733123764
21,16,17,Jits_Phase_5,2,5,63,98,1733143872
21,16,17,Jits_Phase_5,3,5,80,127,1733154172
21,16,17,Jits_Phase_5,0,5,63,98,1733584244
21,16,17,Jits_Phase_5,1,5,80,127,1733593420
21,16,17,Jits_Phase_5,2,5,56,103,1733614052
21,16,17,Jits_Phase_5,3,1,48,55,1733619220
21,16,17,Jits_Phase_5,0,1,48,50,1734075556
21,16,17,Jits_Phase_5,1,5,63,98,1734083908
21,16,17,Jits_Phase_5,2,5,56,103,1734163852
21,16,17,Jits_Phase_5,3,5,80,127,1734168256
21,16,17,Jits_Phase_5,0,1,48,50,1734565512
21,16,17,Jits_Phase_5,1,5,63,98,1734583576
21,16,17,Jits_Phase_5,2,5,56,103,1734604136
21,16,17,Jits_Phase_5,3,5,80,127,1734633868
21,16,17,Jits_Phase_5,0,5,56,103,1735084328
21,16,17,Jits_Phase_5,1,1,48,55,1735085384
21,16,17,Jits_Phase_5,2,5,63,98,1735103884
21,16,17,Jits_Phase_5,3,5,80,127,1735114052
21,16,17,Jits_Phase_5,0,1,48,64,1735606752
21,16,17,Jits_Phase_5,1,5,56,103,1735613732
21,16,17,Jits_Phase_5,2,5,63,98,1735643692
21,16,17,Jits_Phase_5,3,5,80,127,1735646968
21,16,17,Jits_Phase_5,0,5,56,103,1736064620
21,16,17,Jits_Phase_5,1,1,48,59,1736092644
21,16,17,Jits_Phase_5,2,5,63,98,1736104228
21,16,17,Jits_Phase_5,3,5,80,127,1736163692
21,16,17,Jits_Phase_5,0,1,48,52,1736577268
21,16,17,Jits_Phase_5,1,5,56,103,1736583788
21,16,17,Jits_Phase_5,2,5,63,98,1736593728
21,16,17,Jits_Phase_5,3,5,80,127,1736654208
21,16,17,Jits_Phase_5,0,1,48,52,1737081812
21,16,17,Jits_Phase_5,1,5,56,103,1737084368
21,16,17,Jits_Phase_5,2,5,80,127,1737103788
21,16,17,Jits_Phase_5,3,5,63,98,1737133696
21,16,17,Jits_Phase_5,0,5,80,127,1737583900
21,16,17,Jits_Phase_5,1,5,56,103,1737594292
21,16,17,Jits_Phase_5,2,1,48,54,1737599000
21,16,17,Jits_Phase_5,3,5,63,98,1737613700
21,16,17,Jits_Phase_5,0,5,63,98,1738073724
21,16,17,Jits_Phase_5,1,1,48,51,1738086916
21,16,17,Jits_Phase_5,2,5,80,127,1738154452
21,16,17,Jits_Phase_5,3,5,56,103,1738163628
21,16,17,Jits_Phase_5,0,1,48,56,1738607224
21,16,17,Jits_Phase_5,1,5,80,127,1738664368
21,16,17,Jits_Phase_5,2,5,56,103,1738683784
21,16,17,Jits_Phase_5,3,5,63,98,1738686756
21,16,17,Jits_Phase_5,0,5,63,98,1739153776
21,16,17,Jits_Phase_5,1,5,80,127,1739157432
21,16,17,Jits_Phase_5,2,1,48,61,1739174408
21,16,17,Jits_Phase_5,3,5,56,103,1739214168
21,16,17,Jits_Phase_5,0,5,56,103,1739633956
21,16,17,Jits_Phase_5,1,5,80,127,1739644428
21,16,17,Jits_Phase_5,2,5,63,98,1739684272
21,16,17,Jits_Phase_5,3,1,48,62,1739688368
21,16,17,Jits_Phase_5,0,1,48,54,1740114760
21,16,17,Jits_Phase_5,1,5,56,103,1740116432
21,16,17,Jits_Phase_5,2,5,63,98,1740173684
21,16,17,Jits_Phase_5,3,5,80,127,1740183928
21,16,17,Jits_Phase_5,0,5,63,98,1740624368
21,16,17,Jits_Phase_5,1,1,48,54,1740636572
21,16,17,Jits_Phase_5,2,5,80,127,1740664260
21,16,17,Jits_Phase_5,3,5,56,103,1740704160
21,16,17,Jits_Phase_5,0,1,48,66,1741097792
21,16,17,Jits_Phase_5,1,5,56,103,1741123888
21,16,17,Jits_Phase_5,2,5,63,98,1741203812
21,16,17,Jits_Phase_5,3,5,80,127,1741207392
21,16,17,Jits_Phase_5,0,1,48,56,1741619320
21,16,17,Jits_Phase_5,1,5,80,127,1741684084
21,16,17,Jits_Phase_5,2,5,56,103,1741714960
21,16,17,Jits_Phase_5,3,5,63,98,1741717764
21,16,17,Jits_Phase_5,0,1,48,48,1742138856
21,16,17,Jits_Phase_5,1,5,56,103,1742143776
21,16,17,Jits_Phase_5,2,5,80,127,1742164260
21,16,17,Jits_Phase_5,3,5,63,98,1742204536
21,16,17,Jits_Phase_5,0,5,80,127,1742624344
21,16,17,Jits_Phase_5,1,5,63,98,1742643460
21,16,17,Jits_Phase_5,2,1,48,47,1742646564
21,16,17,Jits_Phase_5,3,5,56,103,1742703904
21,16,17,Jits_Phase_5,0,1,48,58,1743122400
21,16,17,Jits_Phase_5,1,5,63,98,1743133964
21,16,17,Jits_Phase_5,2,5,56,103,1743144432
21,16,17,Jits_Phase_5,3,5,80,127,1743193352
21,16,17,Jits_Phase_5,0,1,48,75,1743607692
21,16,17,Jits_Phase_5,1,5,56,103,1743623544
21,16,17,Jits_Phase_5,2,5,63,98,1743644408
21,16,17,Jits_Phase_5,3,5,80,127,1743654424
21,16,17,Jits_Phase_5,0,5,56,103,1744114196
21,16,17,Jits_Phase_5,1,5,63,98,1744117168
21,16,17,Jits_Phase_5,2,1,48,43,1744133156
21,16,17,Jits_Phase_5,3,5,80,127,1744134820
21,16,17,Jits_Phase_5,0,1,48,56,1744589528
21,16,17,Jits_Phase_5,1,5,63,98,1744653684
21,16,17,Jits_Phase_5,2,5,56,103,1744684320
21,16,17,Jits_Phase_5,3,5,80,127,1744714280
21,16,17,Jits_Phase_5,0,1,48,48,1745084704
21,16,17,Jits_Phase_5,1,5,80,127,1745113384
21,16,17,Jits_Phase_5,2,5,56,103,1745203552
21,16,17,Jits_Phase_5,3,5,63,98,1745206604
21,16,17,Jits_Phase_5,0,1,48,59,1745586960
21,16,17,Jits_Phase_5,1,5,56,103,1745614268
21,16,17,Jits_Phase_5,2,5,80,127,1745617316
21,16,17,Jits_Phase_5,3,5,63,98,1745694264
21,16,17,Jits_Phase_5,0,5,80,127,1746114244
21,16,17,Jits_Phase_5,1,1,48,48,1746127588
21,16,17,Jits_Phase_5,2,5,63,98,1746174392
21,16,17,Jits_Phase_5,3,5,56,103,1746204124
21,16,17,Jits_Phase_5,0,5,63,98,1746613632
21,16,17,Jits_Phase_5,1,5,80,127,1746624252
21,16,17,Jits_Phase_5,2,1,48,48,1746677720
21,16,17,Jits_Phase_5,3,5,56,103,1746693492
21,16,17,Jits_Phase_5,0,5,56,103,1747173684
21,16,17,Jits_Phase_5,1,1,48,43,1747189316
21,16,17,Jits_Phase_5,2,5,80,127,1747203332
21,16,17,Jits_Phase_5,3,5,63,98,1747253624
21,16,17,Jits_Phase_5,0,1,48,64,1747677988
21,16,17,Jits_Phase_5,1,5,63,98,1747763700
21,16,17,Jits_Phase_5,2,5,56,103,1747794252
21,16,17,Jits_Phase_5,3,5,80,127,1747797532
21,16,17,Jits_Phase_5,0,1,48,52,1748199520
21,16,17,Jits_Phase_5,1,5,63,98,1748264360
21,16,17,Jits_Phase_5,2,5,80,127,1748283700
21,16,17,Jits_Phase_5,3,5,56,103,1748294324
21,16,17,Jits_Phase_5,0,1,48,58,1748746124
21,16,17,Jits_Phase_5,1,5,56,103,1748774276
21,16,17,Jits_Phase_5,2,5,63,98,1748777324
21,16,17,Jits_Phase_5,3,5,80,127,1748793612
21,16,17,Jits_Phase_5,0,5,56,103,1749223736
21,16,17,Jits_Phase_5,1,5,63,98,1749234284
21,16,17,Jits_Phase_5,2,1,48,43,1749258172
21,16,17,Jits_Phase_5,3,5,80,127,1749263704
21,16,17,Jits_Phase_5,0,5,63,98,1749744132
21,16,17,Jits_Phase_5,1,5,80,127,1749763400
21,16,17,Jits_Phase_5,2,1,48,57,1749768412
21,16,17,Jits_Phase_5,3,5,56,103,1749804432
21,16,17,Jits_Phase_5,0,5,56,103,1750274308
21,16,17,Jits_Phase_5,1,1,48,55,1750276876
21,16,17,Jits_Phase_5,2,5,63,98,1750314348
21,16,17,Jits_Phase_5,3,5,80,127,1750317776
21,16,17,Jits_Phase_5,0,5,80,127,1750713688
21,16,17,Jits_Phase_5,1,5,56,103,1750753812
21,16,17,Jits_Phase_5,2,1,48,47,1750755252
21,16,17,Jits_Phase_5,3,5,63,98,1750804020
21,16,17,Jits_Phase_5,0,1,48,50,1751239248
21,16,17,Jits_Phase_5,1,5,56,103,1751273900
21,16,17,Jits_Phase_5,2,5,80,127,1751284144
21,16,17,Jits_Phase_5,3,5,63,98,1751313952
21,16,17,Jits_Phase_5,0,5,56,103,1751724364
21,16,17,Jits_Phase_5,1,5,80,127,1751764340
21,16,17,Jits_Phase_5,2,1,48,55,1751791432
21,16,17,Jits_Phase_5,3,5,63,98,1751813404
21,16,17,Jits_Phase_5,0,5,56,103,1752224204
21,16,17,Jits_Phase_5,1,5,80,127,1752263952
21,16,17,Jits_Phase_5,2,5,63,98,1752314168
21,16,17,Jits_Phase_5,3,1,48,54,1752315608
21,16,17,Jits_Phase_5,0,5,80,127,1752713780
21,16,17,Jits_Phase_5,1,5,63,98,1752793528
21,16,17,Jits_Phase_5,2,1,48,51,1752802388
21,16,17,Jits_Phase_5,3,5,56,103,1752804140
21,16,17,Jits_Phase_5,0,5,80,127,1753263636
21,16,17,Jits_Phase_5,1,5,56,103,1753273956
21,16,17,Jits_Phase_5,2,1,48,54,1753277288
21,16,17,Jits_Phase_5,3,5,63,98,1753294204
21,16,17,Jits_Phase_5,0,5,63,98,1753733796
21,16,17,Jits_Phase_5,1,5,56,103,1753804136
21,16,17,Jits_Phase_5,2,5,80,127,1753807188
21,16,17,Jits_Phase_5,3,1,48,51,1753811736
21,16,17,Jits_Phase_5,0,5,80,127,1754223980
21,16,17,Jits_Phase_5,1,5,63,98,1754274224
21,16,17,Jits_Phase_5,2,1,48,58,1754277404
21,16,17,Jits_Phase_5,3,5,56,103,1754314036
21,16,17,Jits_Phase_5,0,1,48,55,1754759860
21,16,17,Jits_Phase_5,1,5,63,98,1754763712
21,16,17,Jits_Phase_5,2,5,56,103,1754803488
21,16,17,Jits_Phase_5,3,5,80,127,1754813728
21,16,17,Jits_Phase_5,0,5,63,98,1755254152
21,16,17,Jits_Phase_5,1,5,56,103,1755273796
21,16,17,Jits_Phase_5,2,1,48,57,1755282104
21,16,17,Jits_Phase_5,3,5,80,127,1755293968
21,16,17,Jits_Phase_5,0,5,80,127,1755714004
21,16,17,Jits_Phase_5,1,5,56,103,1755724248
21,16,17,Jits_Phase_5,2,5,63,98,1755743588
21,16,17,Jits_Phase_5,3,1,48,58,1755752508
21,16,17,Jits_Phase_5,0,1,48,50,1756235664
21,16,17,Jits_Phase_5,1,5,63,98,1756244328
21,16,17,Jits_Phase_5,2,5,56,103,1756284380
21,16,17,Jits_Phase_5,3,5,80,127,1756313884
21,16,17,Jits_Phase_5,0,5,56,103,1756704040
21,16,17,Jits_Phase_5,1,1,48,57,1756716008
21,16,17,Jits_Phase_5,2,5,63,98,1756733916
21,16,17,Jits_Phase_5,3,5,80,127,1756763572
21,16,17,Jits_Phase_5,0,5,80,127,1757123864
21,16,17,Jits_Phase_5,1,1,48,44,1757192012
21,16,17,Jits_Phase_5,2,5,56,103,1757193788
21,16,17,Jits_Phase_5,3,5,63,98,1757196456
21,16,17,Jits_Phase_5,0,5,56,103,1757633940
21,16,17,Jits_Phase_5,1,1,48,57,1757666700
21,16,17,Jits_Phase_5,2,5,63,98,1757684148
21,16,17,Jits_Phase_5,3,5,80,127,1757713880
21,16,17,Jits_Phase_5,0,5,63,98,1758114052
21,16,17,Jits_Phase_5,1,5,80,127,1758117260
21,16,17,Jits_Phase_5,2,1,48,53,1758168364
21,16,17,Jits_Phase_5,3,5,56,103,1758173664
21,16,17,Jits_Phase_5,0,5,56,103,1758643684
21,16,17,Jits_Phase_5,1,5,80,127,1758653848
21,16,17,Jits_Phase_5,2,1,48,37,1758687136
21,16,17,Jits_Phase_5,3,5,63,98,1758703980
21,16,17,Jits_Phase_5,0,1,48,49,1759107844
21,16,17,Jits_Phase_5,1,5,63,98,1759113532
21,16,17,Jits_Phase_5,2,5,56,103,1759123776
21,16,17,Jits_Phase_5,3,5,80,127,1759153684
21,16,17,Jits_Phase_5,0,1,48,62,1759587872
21,16,17,Jits_Phase_5,1,5,63,98,1759643996
21,16,17,Jits_Phase_5,2,5,80,127,1759647600
21,16,17,Jits_Phase_5,3,5,56,103,1759673904
21,16,17,Jits_Phase_5,0,1,48,62,1760077144
21,16,17,Jits_Phase_5,1,5,63,98,1760164172
21,16,17,Jits_Phase_5,2,5,56,103,1760183720
21,16,17,Jits_Phase_5,3,5,80,127,1760186848
21,16,17,Jits_Phase_5,0,1,48,49,1760606916
21,16,17,Jits_Phase_5,1,5,63,98,1760623912
21,16,17,Jits_Phase_5,2,5,56,103,1760693564
21,16,17,Jits_Phase_5,3,5,80,127,1760714108
21,16,17,Jits_Phase_5,0,1,48,58,1761110484
21,16,17,Jits_Phase_5,1,5,56,103,1761113648
21,16,17,Jits_Phase_5,2,5,63,98,1761123664
21,16,17,Jits_Phase_5,3,5,80,127,1761213704
21,16,17,Jits_Phase_5,0,5,56,103,1761633584
21,16,17,Jits_Phase_5,1,1,48,61,1761637144
21,16,17,Jits_Phase_5,2,5,80,127,1761673552
21,16,17,Jits_Phase_5,3,5,63,98,1761683720
21,16,17,Jits_Phase_5,0,1,48,59,1762141256
21,16,17,Jits_Phase_5,1,5,56,103,1762153900
21,16,17,Jits_Phase_5,2,5,63,98,1762183632
21,16,17,Jits_Phase_5,3,5,80,127,1762214304
21,16,17,Jits_Phase_5,0,5,80,127,1762613532
21,16,17,Jits_Phase_5,1,1,48,52,1762635136
21,16,17,Jits_Phase_5,2,5,63,98,1762653576
21,16,17,Jits_Phase_5,3,5,56,103,1762673984
21,16,17,Jits_Phase_5,0,1,48,57,1763124804
21,16,17,Jits_Phase_5,1,5,56,103,1763154480
21,16,17,Jits_Phase_5,2,5,80,127,1763173596
21,16,17,Jits_Phase_5,3,5,63,98,1763194304
21,16,17,Jits_Phase_5,0,1,48,53,1763619576
21,16,17,Jits_Phase_5,1,5,63,98,1763624876
21,16,17,Jits_Phase_5,2,5,56,103,1763633444
21,16,17,Jits_Phase_5,3,5,80,127,1763693900
21,16,17,Jits_Phase_5,0,1,48,48,1764106488
21,16,17,Jits_Phase_5,1,5,56,103,1764123940
21,16,17,Jits_Phase_5,2,5,63,98,1764193568
21,16,17,Jits_Phase_5,3,5,80,127,1764214112
21,16,17,Jits_Phase_5,0,1,48,55,1764608908
21,16,17,Jits_Phase_5,1,5,56,103,1764623768
21,16,17,Jits_Phase_5,2,5,63,98,1764653652
21,16,17,Jits_Phase_5,3,5,80,127,1764694392
21,16,17,Jits_Phase_5,0,5,63,98,1765114576
21,16,17,Jits_Phase_5,1,1,48,50,1765119284
21,16,17,Jits_Phase_5,2,5,56,103,1765164556
21,16,17,Jits_Phase_5,3,5,80,127,1765173656
21,16,17,Jits_Phase_5,0,1,48,50,1765585784
21,16,17,Jits_Phase_5,1,5,56,103,1765653988
21,16,17,Jits_Phase_5,2,5,63,98,1765704188
21,16,17,Jits_Phase_5,3,5,80,127,1765714428
21,16,17,Jits_Phase_5,0,1,48,59,1766113896
21,16,17,Jits_Phase_5,1,5,56,103,1766123704
21,16,17,Jits_Phase_5,2,5,63,98,1766134404
21,16,17,Jits_Phase_5,3,5,80,127,1766214180
21,16,17,Jits_Phase_5,0,9999,9999,9999,1681871956
21,16,17,Jits_Phase_5,1,9999,9999,9999,1682371664
21,16,17,Jits_Phase_5,2,9999,9999,9999,1682871364
21,16,17,Jits_Phase_5,3,9999,9999,9999,1683371108
21,16,17,Jits_Phase_5,4,9999,9999,9999,1683871828
21,16,17,Jits_Phase_5,5,9999,9999,9999,1684371572
21,16,17,Jits_Phase_5,6,9999,9999,9999,1684871244
21,16,17,Jits_Phase_5,7,9999,9999,9999,1685371996
21,16,17,Jits_Phase_5,8,9999,9999,9999,1685871680
21,16,17,Jits_Phase_5,9,9999,9999,9999,1686371444
21,16,17,Jits_Phase_5,10,9999,9999,9999,1686871128
21,16,17,Jits_Phase_5,11,9999,9999,9999,1687371884
21,16,17,Jits_Phase_5,12,9999,9999,9999,1687871552
21,16,17,Jits_Phase_5,13,9999,9999,9999,1688371292
21,16,17,Jits_Phase_5,14,9999,9999,9999,1688872036
21,16,17,Jits_Phase_5,15,9999,9999,9999,1689371720
21,16,17,Jits_Phase_5,16,9999,9999,9999,1689871468
21,16,17,Jits_Phase_5,17,9999,9999,9999,1690371140
21,16,17,Jits_Phase_5,18,9999,9999,9999,1690871876
21,16,17,Jits_Phase_5,19,9999,9999,9999,1691371640
21,16,17,Jits_Phase_5,20,9999,9999,9999,1691871328
21,16,17,Jits_Phase_5,21,9999,9999,9999,1692372084
21,16,17,Jits_Phase_5,22,9999,9999,9999,1692871768
21,16,17,Jits_Phase_5,23,9999,9999,9999,1693371456
21,16,17,Jits_Phase_5,24,9999,9999,9999,1693871220
21,16,17,Jits_Phase_5,25,9999,9999,9999,1694371964
21,16,17,Jits_Phase_5,26,9999,9999,9999,1694871612
21,16,17,Jits_Phase_5,27,9999,9999,9999,1695371352
21,16,17,Jits_Phase_5,28,9999,9999,9999,1695872112
21,16,17,Jits_Phase_5,29,9999,9999,9999,1696382020
21,16,17,Jits_Phase_5,30,9999,9999,9999,1696871520
21,16,17,Jits_Phase_5,31,9999,9999,9999,1697371196
21,16,17,Jits_Phase_5,32,9999,9999,9999,1697871948
21,16,17,Jits_Phase_5,33,9999,9999,9999,1698371692
21,16,17,Jits_Phase_5,34,9999,9999,9999,1698871380
21,16,17,Jits_Phase_5,35,9999,9999,9999,1699371072
21,16,17,Jits_Phase_5,36,9999,9999,9999,1699871800
21,16,17,Jits_Phase_5,37,9999,9999,9999,1700371552
21,16,17,Jits_Phase_5,38,9999,9999,9999,1700871228
21,16,17,Jits_Phase_5,39,9999,9999,9999,1701371968
21,16,17,Jits_Phase_5,40,9999,9999,9999,1701871720
21,16,17,Jits_Phase_5,41,9999,9999,9999,1702371404
21,16,17,Jits_Phase_5,42,9999,9999,9999,1702871164
21,16,17,Jits_Phase_5,43,9999,9999,9999,1703371900
21,16,17,Jits_Phase_5,44,9999,9999,9999,1703871572
21,16,17,Jits_Phase_5,45,9999,9999,9999,1704371256
21,16,17,Jits_Phase_5,46,9999,9999,9999,1704871996
21,16,17,Jits_Phase_5,47,9999,9999,9999,1705371724
21,16,17,Jits_Phase_5,48,9999,9999,9999,1705881708
21,16,17,Jits_Phase_5,49,9999,9999,9999,1706381396
21,16,17,Jits_Phase_5,50,9999,9999,9999,1706881132
21,16,17,Jits_Phase_5,51,9999,9999,9999,1707381888
21,16,17,Jits_Phase_5,52,9999,9999,9999,1707881580
21,16,17,Jits_Phase_5,53,9999,9999,9999,1708381268
21,16,17,Jits_Phase_5,54,9999,9999,9999,1708882008
21,16,17,Jits_Phase_5,55,9999,9999,9999,1709381696
21,16,17,Jits_Phase_5,56,9999,9999,9999,1709881456
21,16,17,Jits_Phase_5,57,9999,9999,9999,1710381140
21,16,17,Jits_Phase_5,58,9999,9999,9999,1710881896
21,16,17,Jits_Phase_5,59,9999,9999,9999,1711381628
21,16,17,Jits_Phase_5,60,9999,9999,9999,1711881320
21,16,17,Jits_Phase_5,61,9999,9999,9999,1712382056
21,16,17,Jits_Phase_5,62,9999,9999,9999,1712881732
21,16,17,Jits_Phase_5,63,9999,9999,9999,1713381476
21,16,17,Jits_Phase_5,64,9999,9999,9999,1713901632
21,16,17,Jits_Phase_5,65,9999,9999,9999,1714401380
21,16,17,Jits_Phase_5,66,9999,9999,9999,1714902124
21,16,17,Jits_Phase_5,67,9999,9999,9999,1715412028
21,16,17,Jits_Phase_5,68,9999,9999,9999,1715911792
21,16,17,Jits_Phase_5,69,9999,9999,9999,1716411464
21,16,17,Jits_Phase_5,70,9999,9999,9999,1716911204
21,16,17,Jits_Phase_5,71,9999,9999,9999,1717411944
21,16,17,Jits_Phase_5,72,9999,9999,9999,1717911664
21,16,17,Jits_Phase_5,73,9999,9999,9999,1718411340
21,16,17,Jits_Phase_5,74,9999,9999,9999,1718912096
21,16,17,Jits_Phase_5,75,9999,9999,9999,1719422008
21,16,17,Jits_Phase_5,76,9999,9999,9999,1719921764
21,16,17,Jits_Phase_5,77,9999,9999,9999,1720421440
21,16,17,Jits_Phase_5,78,9999,9999,9999,1720921204
21,16,17,Jits_Phase_5,79,9999,9999,9999,1721421948
21,16,17,Jits_Phase_5,80,9999,9999,9999,1721921616
21,16,17,Jits_Phase_5,81,9999,9999,9999,1722401876
21,16,17,Jits_Phase_5,82,9999,9999,9999,1722901560
21,16,17,Jits_Phase_5,83,9999,9999,9999,1723401308
21,16,17,Jits_Phase_5,84,9999,9999,9999,1723902072
21,16,17,Jits_Phase_5,85,9999,9999,9999,1724401736
21,16,17,Jits_Phase_5,86,9999,9999,9999,1724901484
21,16,17,Jits_Phase_5,87,9999,9999,9999,1725401168
21,16,17,Jits_Phase_5,88,9999,9999,9999,1725901904
21,16,17,Jits_Phase_5,89,9999,9999,9999,1726401652
21,16,17,Jits_Phase_5,90,9999,9999,9999,1726901328
21,16,17,Jits_Phase_5,91,9999,9999,9999,1727402064
21,16,17,Jits_Phase_5,92,9999,9999,9999,1727901776
21,16,17,Jits_Phase_5,93,9999,9999,9999,1728401520
21,16,17,Jits_Phase_5,94,9999,9999,9999,1728901188
21,16,17,Jits_Phase_5,95,9999,9999,9999,1729401920
21,16,17,Jits_Phase_5,96,9999,9999,9999,1729901680
21,16,17,Jits_Phase_5,97,9999,9999,9999,1730351216
21,16,17,Jits_Phase_5,98,9999,9999,9999,1730851956
21,16,17,Jits_Phase_5,99,9999,9999,9999,1731351640
21,16,17,Jits_Phase_5,100,9999,9999,9999,1731851388
21,16,17,Jits_Phase_5,101,9999,9999,9999,1732352056
21,16,17,Jits_Phase_5,102,9999,9999,9999,1732862052
21,16,17,Jits_Phase_5,103,9999,9999,9999,1733361728
21,16,17,Jits_Phase_5,104,9999,9999,9999,1733861476
21,16,17,Jits_Phase_5,105,9999,9999,9999,1734361144
21,16,17,Jits_Phase_5,106,9999,9999,9999,1734861884
21,16,17,Jits_Phase_5,107,9999,9999,9999,1735361632
21,16,17,Jits_Phase_5,108,9999,9999,9999,1735861316
21,16,17,Jits_Phase_5,109,9999,9999,9999,1736362056
21,16,17,Jits_Phase_5,110,9999,9999,9999,1736861792
21,16,17,Jits_Phase_5,111,9999,9999,9999,1737361536
21,16,17,Jits_Phase_5,112,9999,9999,9999,1737861208
21,16,17,Jits_Phase_5,113,9999,9999,9999,1738361968
21,16,17,Jits_Phase_5,114,9999,9999,9999,1738911848
21,16,17,Jits_Phase_5,115,9999,9999,9999,1739411516
21,16,17,Jits_Phase_5,116,9999,9999,9999,1739911264
21,16,17,Jits_Phase_5,117,9999,9999,9999,1740412020
21,16,17,Jits_Phase_5,118,9999,9999,9999,1740911696
21,16,17,Jits_Phase_5,119,9999,9999,9999,1741411440
21,16,17,Jits_Phase_5,120,9999,9999,9999,1741911108
21,16,17,Jits_Phase_5,121,9999,9999,9999,1742411848
21,16,17,Jits_Phase_5,122,9999,9999,9999,1742911592
21,16,17,Jits_Phase_5,123,9999,9999,9999,1743411280
21,16,17,Jits_Phase_5,124,9999,9999,9999,1743912016
21,16,17,Jits_Phase_5,125,9999,9999,9999,1744411748
21,16,17,Jits_Phase_5,126,9999,9999,9999,1744911440
21,16,17,Jits_Phase_5,127,9999,9999,9999,1745411180
21,16,17,Jits_Phase_5,128,9999,9999,9999,1745911908
21,16,17,Jits_Phase_5,129,9999,9999,9999,1746411584
21,16,17,Jits_Phase_5,130,9999,9999,9999,1746911344
21,16,17,Jits_Phase_5,131,9999,9999,9999,1747511368
21,16,17,Jits_Phase_5,132,9999,9999,9999,1748011128
21,16,17,Jits_Phase_5,133,9999,9999,9999,1748511872
21,16,17,Jits_Phase_5,134,9999,9999,9999,1749011536
21,16,17,Jits_Phase_5,135,9999,9999,9999,1749511288
21,16,17,Jits_Phase_5,136,9999,9999,9999,1750011968
21,16,17,Jits_Phase_5,137,9999,9999,9999,1750511716
21,16,17,Jits_Phase_5,138,9999,9999,9999,1751011404
21,16,17,Jits_Phase_5,139,9999,9999,9999,1751511096
21,16,17,Jits_Phase_5,140,9999,9999,9999,1752011840
21,16,17,Jits_Phase_5,141,9999,9999,9999,1752511608
21,16,17,Jits_Phase_5,142,9999,9999,9999,1753011296
21,16,17,Jits_Phase_5,143,9999,9999,9999,1753512056
21,16,17,Jits_Phase_5,144,9999,9999,9999,1754011712
21,16,17,Jits_Phase_5,145,9999,9999,9999,1754511460
21,16,17,Jits_Phase_5,146,9999,9999,9999,1755011152
21,16,17,Jits_Phase_5,147,9999,9999,9999,1755511896
21,16,17,Jits_Phase_5,148,9999,9999,9999,1756011640
21,16,17,Jits_Phase_5,149,9999,9999,9999,1756511328
21,16,17,Jits_Phase_5,150,9999,9999,9999,1756911728
21,16,17,Jits_Phase_5,151,9999,9999,9999,1757411412
21,16,17,Jits_Phase_5,152,9999,9999,9999,1757911100
21,16,17,Jits_Phase_5,153,9999,9999,9999,1758411844
21,16,17,Jits_Phase_5,154,9999,9999,9999,1758911592
21,16,17,Jits_Phase_5,155,9999,9999,9999,1759411276
21,16,17,Jits_Phase_5,156,9999,9999,9999,1759912008
21,16,17,Jits_Phase_5,157,9999,9999,9999,1760411728
21,16,17,Jits_Phase_5,158,9999,9999,9999,1760911472
21,16,17,Jits_Phase_5,159,9999,9999,9999,1761411144
21,16,17,Jits_Phase_5,160,9999,9999,9999,1761911888
21,16,17,Jits_Phase_5,161,9999,9999,9999,1762411576
21,16,17,Jits_Phase_5,162,9999,9999,9999,1762911324
21,16,17,Jits_Phase_5,163,9999,9999,9999,1763412080
21,16,17,Jits_Phase_5,164,9999,9999,9999,1763911752
21,16,17,Jits_Phase_5,165,9999,9999,9999,1764411500
21,16,17,Jits_Phase_5,166,9999,9999,9999,1764911172
21,16,17,Jits_Phase_5,167,9999,9999,9999,1765411912
21,16,17,Jits_Phase_5,168,9999,9999,9999,1765911668
21,16,17,Jits_Phase_5,169,9999,9999,9999,1766411340
21,17,3,ISIP_8,0,5,42,127,1825575348
21,17,3,ISIP_8,1,5,42,127,1826374988
21,17,3,ISIP_8,2,1,48,63,1826502572
21,17,3,ISIP_8,3,5,42,127,1827174680
21,17,3,ISIP_8,4,1,48,61,1827220744
21,17,3,ISIP_8,5,1,48,64,1827944032
21,17,3,ISIP_8,6,5,42,127,1827974436
21,17,3,ISIP_8,7,1,48,63,1828715108
21,17,3,ISIP_8,8,5,42,127,1828775372
21,17,3,ISIP_8,9,1,48,63,1829510832
21,17,3,ISIP_8,10,5,42,127,1829574988
21,17,3,ISIP_8,11,1,48,67,1830327716
21,17,3,ISIP_8,12,5,42,127,1830374752
21,17,3,ISIP_8,13,1,48,60,1831093064
21,17,3,ISIP_8,14,5,42,127,1831174440
21,17,3,ISIP_8,15,1,48,69,1831898252
21,17,3,ISIP_8,16,5,42,127,1831975428
21,17,3,ISIP_8,17,1,48,73,1832736096
21,17,3,ISIP_8,18,5,42,127,1832774968
21,17,3,ISIP_8,19,1,48,64,1833559212
21,17,3,ISIP_8,20,5,42,127,1833574580
21,17,3,ISIP_8,21,1,48,75,1834330440
21,17,3,ISIP_8,22,5,42,127,1834374576
21,17,3,ISIP_8,23,1,48,71,1835094036
21,17,3,ISIP_8,24,5,42,127,1835175356
21,17,3,ISIP_8,25,1,48,70,1835882200
21,17,3,ISIP_8,26,5,42,127,1835975124
21,17,3,ISIP_8,27,1,48,69,1836666628
21,17,3,ISIP_8,28,5,42,127,1836774948
21,17,3,ISIP_8,29,1,48,76,1837457696
21,17,3,ISIP_8,30,5,42,127,1837574488
21,17,3,ISIP_8,31,1,48,76,1838292360
21,17,3,ISIP_8,32,5,42,127,1838375184
21,17,3,ISIP_8,33,1,48,67,1839046800
21,17,3,ISIP_8,34,5,42,127,1839175160
21,17,3,ISIP_8,35,1,48,70,1839836192
21,17,3,ISIP_8,36,5,42,127,1839975008
21,17,3,ISIP_8,37,1,48,66,1840639392
21,17,3,ISIP_8,38,5,42,127,1840774544
21,17,3,ISIP_8,39,1,48,67,1841484944
21,17,3,ISIP_8,40,5,42,127,1841575344
21,17,3,ISIP_8,41,1,48,82,1842341504
21,17,3,ISIP_8,42,5,42,127,1842374960
21,17,3,ISIP_8,43,1,48,67,1843125092
21,17,3,ISIP_8,44,5,42,127,1843175028
21,17,3,ISIP_8,45,1,48,70,1843894644
21,17,3,ISIP_8,46,5,42,127,1843974416
21,17,3,ISIP_8,47,1,48,66,1844689904
21,17,3,ISIP_8,48,5,42,127,1844775252
21,17,3,ISIP_8,49,1,48,76,1845467008
21,17,3,ISIP_8,50,5,42,127,1845575000
21,17,3,ISIP_8,51,1,48,62,1846262580
21,17,3,ISIP_8,52,5,42,127,1846374768
21,17,3,ISIP_8,53,1,48,80,1847074476
21,17,3,ISIP_8,54,5,42,127,1847174988
21,17,3,ISIP_8,55,1,48,52,1847836780
21,17,3,ISIP_8,56,5,42,127,1847975240
21,17,3,ISIP_8,57,1,48,57,1848672024
21,17,3,ISIP_8,58,5,42,127,1848775004
21,17,3,ISIP_8,59,1,48,67,1849493848
21,17,3,ISIP_8,60,1,48,67,1850270588
21,17,3,ISIP_8,61,1,48,63,1851056928
21,17,3,ISIP_8,62,1,48,63,1851890808
21,17,3,ISIP_8,63,1,48,70,1852695300
21,17,3,ISIP_8,64,1,48,69,1853469124
21,17,3,ISIP_8,65,1,48,63,1854247524
21,17,3,ISIP_8,66,1,48,71,1855039812
21,17,3,ISIP_8,67,1,48,63,1855829432
21,17,3,ISIP_8,68,1,48,61,1856606148
21,17,3,ISIP_8,69,1,48,65,1857397296
21,17,3,ISIP_8,70,1,48,65,1858175620
21,17,3,ISIP_8,71,1,48,64,1858960432
21,17,3,ISIP_8,72,1,48,67,1859744572
21,17,3,ISIP_8,73,1,48,62,1860539616
21,17,3,ISIP_8,74,1,48,59,1861286576
21,17,3,ISIP_8,75,1,48,62,1862115872
21,17,3,ISIP_8,76,1,48,59,1862917012
21,17,3,ISIP_8,77,1,48,59,1863726776
21,17,3,ISIP_8,78,1,48,64,1864491596
21,17,3,ISIP_8,79,1,48,66,1865256412
21,17,3,ISIP_8,80,1,48,61,1866036648
21,17,3,ISIP_8,81,1,48,56,1866837024
21,17,3,ISIP_8,82,1,48,64,1867617712
21,17,3,ISIP_8,83,1,48,57,1868396876
21,17,3,ISIP_8,84,1,48,59,1869201216
21,17,3,ISIP_8,85,1,48,66,1870008792
21,17,3,ISIP_8,86,1,48,67,1870802908
21,17,3,ISIP_8,87,1,48,57,1871614052
21,17,3,ISIP_8,88,1,48,63,1872350784
21,17,3,ISIP_8,89,1,48,67,1873165660
21,17,3,ISIP_8,90,1,48,65,1873960392
21,17,3,ISIP_8,91,1,48,66,1874752448
21,17,3,ISIP_8,92,1,48,63,1875525508
21,17,3,ISIP_8,93,1,48,65,1876314440
21,17,3,ISIP_8,94,1,48,67,1877122824
21,17,3,ISIP_8,95,1,48,63,1877968252
21,17,3,ISIP_8,96,1,48,62,1878727804
21,17,3,ISIP_8,97,1,48,63,1879499872
21,17,3,ISIP_8,98,1,48,66,1880289868
21,17,3,ISIP_8,99,1,48,60,1881102988
21,17,3,ISIP_8,100,1,48,61,1881880704
21,17,3,ISIP_8,101,1,48,68,1882681996
21,17,3,ISIP_8,102,1,48,61,1883468028
21,17,3,ISIP_8,103,1,48,65,1884282064
21,17,3,ISIP_8,104,1,48,63,1885095132
21,17,3,ISIP_8,105,1,48,58,1885924732
21,17,3,ISIP_8,106,1,48,59,1886696188
21,17,3,ISIP_8,107,1,48,59,1887438340
21,17,3,ISIP_8,108,1,48,61,1888226816
21,17,3,ISIP_8,109,1,48,57,1889022916
21,17,3,ISIP_8,110,1,48,62,1889818336
21,17,3,ISIP_8,111,1,48,59,1890582924
21,17,3,ISIP_8,112,1,48,55,1891371324
21,17,3,ISIP_8,113,1,48,57,1892192456
21,17,3,ISIP_8,114,1,48,62,1892924992
21,17,3,ISIP_8,115,1,48,61,1893695764
21,17,3,ISIP_8,116,1,48,58,1894424872
21,17,3,ISIP_8,117,1,48,55,1895204108
21,17,3,ISIP_8,118,1,48,55,1895895432
21,17,3,ISIP_8,119,1,48,60,1896650628
21,17,3,ISIP_8,120,1,48,55,1897346140
21,17,3,ISIP_8,121,1,48,64,1898067836
21,17,3,ISIP_8,122,1,48,59,1898797480
21,17,3,ISIP_8,123,1,48,61,1899547492
21,17,3,ISIP_8,124,1,48,62,1900295908
21,17,3,ISIP_8,125,1,48,62,1901016848
21,17,3,ISIP_8,126,1,48,59,1901798988
21,17,3,ISIP_8,127,1,48,66,1902550756
21,17,3,ISIP_8,128,1,48,57,1903283068
21,17,3,ISIP_8,129,1,48,63,1904066276
21,17,3,ISIP_8,130,1,48,61,1904835904
21,17,3,ISIP_8,131,1,48,60,1905603464
21,17,3,ISIP_8,132,1,48,63,1906345380
21,17,3,ISIP_8,133,1,48,65,1907090252
21,17,3,ISIP_8,134,1,48,60,1907833548
21,17,3,ISIP_8,135,1,48,61,1908620112
21,17,3,ISIP_8,136,1,48,59,1909359680
21,17,3,ISIP_8,137,1,48,63,1910162800
21,17,3,ISIP_8,138,1,48,71,1910979736
21,17,3,ISIP_8,139,1,48,58,1911730892
21,17,3,ISIP_8,140,1,48,56,1912492884
21,17,3,ISIP_8,141,1,48,55,1913245568
21,17,3,ISIP_8,142,1,48,62,1913987396
21,17,3,ISIP_8,143,1,48,65,1914736800
21,17,3,ISIP_8,144,1,48,57,1915515352
21,17,3,ISIP_8,145,1,48,56,1916237132
21,17,3,ISIP_8,146,1,48,55,1917003784
21,17,3,ISIP_8,147,1,48,59,1917779660
21,17,3,ISIP_8,148,1,48,53,1918490148
21,17,3,ISIP_8,149,1,48,57,1919266872
21,17,3,ISIP_8,150,1,48,53,1920023444
21,17,3,ISIP_8,151,1,48,59,1920809632
21,17,3,ISIP_8,152,1,48,53,1921537656
21,17,3,ISIP_8,153,1,48,51,1922316364
21,17,3,ISIP_8,154,1,48,56,1923124216
21,17,3,ISIP_8,155,1,48,57,1923877360
21,17,3,ISIP_8,156,1,48,57,1924632108
21,17,3,ISIP_8,157,1,48,61,1925373572
21,17,3,ISIP_8,158,1,48,57,1926093368
21,17,3,ISIP_8,159,1,48,59,1926870012
21,17,3,ISIP_8,160,1,48,59,1927653296
21,17,3,ISIP_8,161,1,48,53,1928400640
21,17,3,ISIP_8,162,1,48,59,1929135776
21,17,3,ISIP_8,163,1,48,57,1929894564
21,17,3,ISIP_8,164,1,48,56,1930580380
21,17,3,ISIP_8,165,1,48,51,1931294148
21,17,3,ISIP_8,166,1,48,57,1931990972
21,17,3,ISIP_8,167,1,48,59,1932701908
21,17,3,ISIP_8,168,1,48,58,1933403972
21,17,3,ISIP_8,169,1,48,55,1934083860
21,17,3,ISIP_8,170,1,48,56,1934835708
21,17,3,ISIP_8,171,1,48,59,1935579996
21,17,3,ISIP_8,172,1,48,61,1936334136
21,17,3,ISIP_8,173,1,48,60,1937082776
21,17,3,ISIP_8,174,1,48,56,1937802852
21,17,3,ISIP_8,175,1,48,56,1938513952
21,17,3,ISIP_8,176,1,48,60,1939202308
21,17,3,ISIP_8,177,1,48,53,1939918576
21,17,3,ISIP_8,178,1,48,58,1940608816
21,17,3,ISIP_8,179,1,48,61,1941335104
21,17,3,ISIP_8,180,1,48,54,1942050620
21,17,3,ISIP_8,181,1,48,57,1942743708
21,17,3,ISIP_8,182,1,48,56,1943450304
21,17,3,ISIP_8,183,1,48,52,1944176944
21,17,3,ISIP_8,184,1,48,62,1944875376
21,17,3,ISIP_8,185,1,48,54,1945562576
21,17,3,ISIP_8,0,9999,9999,9999,1825572944
21,17,3,ISIP_8,1,9999,9999,9999,1826372656
21,17,3,ISIP_8,2,9999,9999,9999,1827172424
21,17,3,ISIP_8,3,9999,9999,9999,1827972180
21,17,3,ISIP_8,4,9999,9999,9999,1828772964
21,17,3,ISIP_8,5,9999,9999,9999,1829572656
21,17,3,ISIP_8,6,9999,9999,9999,1830372420
21,17,3,ISIP_8,7,9999,9999,9999,1831172188
21,17,3,ISIP_8,8,9999,9999,9999,1831972944
21,17,3,ISIP_8,9,9999,9999,9999,1832772712
21,17,3,ISIP_8,10,9999,9999,9999,1833572400
21,17,3,ISIP_8,11,9999,9999,9999,1834372168
21,17,3,ISIP_8,12,9999,9999,9999,1835172948
21,17,3,ISIP_8,13,9999,9999,9999,1835972716
21,17,3,ISIP_8,14,9999,9999,9999,1836772464
21,17,3,ISIP_8,15,9999,9999,9999,1837572156
21,17,3,ISIP_8,16,9999,9999,9999,1838372932
21,17,3,ISIP_8,17,9999,9999,9999,1839172680
21,17,3,ISIP_8,18,9999,9999,9999,1839972448
21,17,3,ISIP_8,19,9999,9999,9999,1840772216
21,17,3,ISIP_8,20,9999,9999,9999,1841572936
21,17,3,ISIP_8,21,9999,9999,9999,1842372704
21,17,3,ISIP_8,22,9999,9999,9999,1843172472
21,17,3,ISIP_8,23,9999,9999,9999,1843972160
21,17,3,ISIP_8,24,9999,9999,9999,1844772920
21,17,3,ISIP_8,25,9999,9999,9999,1845572668
21,17,3,ISIP_8,26,9999,9999,9999,1846372436
21,17,3,ISIP_8,27,9999,9999,9999,1847172144
21,17,3,ISIP_8,28,9999,9999,9999,1847972984
21,17,3,ISIP_8,29,9999,9999,9999,1848772672
21,17,3,ISIP_8,30,9999,9999,9999,1849572456
21,17,3,ISIP_8,31,9999,9999,9999,1850372208
21,17,3,ISIP_8,32,9999,9999,9999,1851172964
21,17,3,ISIP_8,33,9999,9999,9999,1851972672
21,17,3,ISIP_8,34,9999,9999,9999,1852772440
21,17,3,ISIP_8,35,9999,9999,9999,1853572188
21,17,3,ISIP_8,36,9999,9999,9999,1854372972
21,17,3,ISIP_8,37,9999,9999,9999,1855172660
21,17,3,ISIP_8,38,9999,9999,9999,1855972428
21,17,3,ISIP_8,39,9999,9999,9999,1856772196
21,17,3,ISIP_8,40,9999,9999,9999,1857572952
21,17,3,ISIP_8,41,9999,9999,9999,1858372720
21,17,3,ISIP_8,42,9999,9999,9999,1859172408
21,17,3,ISIP_8,43,9999,9999,9999,1859972176
21,17,3,ISIP_8,44,9999,9999,9999,1860772960
21,17,3,ISIP_8,45,9999,9999,9999,1861572724
21,17,3,ISIP_8,46,9999,9999,9999,1862372416
21,17,3,ISIP_8,47,9999,9999,9999,1863172184
21,17,3,ISIP_8,48,9999,9999,9999,1863972944
21,17,3,ISIP_8,49,9999,9999,9999,1864772708
21,17,3,ISIP_8,50,9999,9999,9999,1865572400
21,17,3,ISIP_8,51,9999,9999,9999,1866372168
21,17,3,ISIP_8,52,9999,9999,9999,1867172948
21,17,3,ISIP_8,53,9999,9999,9999,1867972716
21,17,3,ISIP_8,54,9999,9999,9999,1868772408
21,17,3,ISIP_8,55,9999,9999,9999,1869572172
21,17,3,ISIP_8,56,9999,9999,9999,1870372928
21,17,3,ISIP_8,57,9999,9999,9999,1871172696
21,17,3,ISIP_8,58,9999,9999,9999,1871972464
21,17,3,ISIP_8,59,9999,9999,9999,1872772152
21,17,3,ISIP_8,60,9999,9999,9999,1873572936
21,17,3,ISIP_8,61,9999,9999,9999,1874372704
21,17,3,ISIP_8,62,9999,9999,9999,1875172468
21,17,3,ISIP_8,63,9999,9999,9999,1875972160
21,17,3,ISIP_8,64,9999,9999,9999,1876772916
21,17,3,ISIP_8,65,9999,9999,9999,1877572680
21,17,3,ISIP_8,66,9999,9999,9999,1878372448
21,17,3,ISIP_8,67,9999,9999,9999,1879172216
21,17,3,ISIP_8,68,9999,9999,9999,1879972924
21,17,3,ISIP_8,69,9999,9999,9999,1880772692
21,17,3,ISIP_8,70,9999,9999,9999,1881572456
21,17,3,ISIP_8,71,9999,9999,9999,1882372148
21,17,3,ISIP_8,72,9999,9999,9999,1883172980
21,17,3,ISIP_8,73,9999,9999,9999,1883972668
21,17,3,ISIP_8,74,9999,9999,9999,1884772436
21,17,3,ISIP_8,75,9999,9999,9999,1885572200
21,17,3,ISIP_8,76,9999,9999,9999,1886372984
21,17,3,ISIP_8,77,9999,9999,9999,1887172672
21,17,3,ISIP_8,78,9999,9999,9999,1887972440
21,17,3,ISIP_8,79,9999,9999,9999,1888772208
21,17,3,ISIP_8,80,9999,9999,9999,1889572964
21,17,3,ISIP_8,81,9999,9999,9999,1890372656
21,17,3,ISIP_8,82,9999,9999,9999,1891172424
21,17,3,ISIP_8,83,9999,9999,9999,1891972188
21,17,3,ISIP_8,84,9999,9999,9999,1892772972
21,17,3,ISIP_8,85,9999,9999,9999,1893572664
21,17,3,ISIP_8,86,9999,9999,9999,1894372428
21,17,3,ISIP_8,87,9999,9999,9999,1895172196
21,17,3,ISIP_8,88,9999,9999,9999,1895972948
21,17,3,ISIP_8,89,9999,9999,9999,1896772696
21,17,3,ISIP_8,90,9999,9999,9999,1897572464
21,17,3,ISIP_8,91,9999,9999,9999,1898372152
21,17,3,ISIP_8,92,9999,9999,9999,1899172936
21,17,3,ISIP_8,93,9999,9999,9999,1899972704
21,17,3,ISIP_8,94,9999,9999,9999,1900772472
21,17,3,ISIP_8,95,9999,9999,9999,1901572160
21,17,3,ISIP_8,96,9999,9999,9999,1902372920
21,17,3,ISIP_8,97,9999,9999,9999,1903172684
21,17,3,ISIP_8,98,9999,9999,9999,1903972452
21,17,3,ISIP_8,99,9999,9999,9999,1904772144
21,17,3,ISIP_8,100,9999,9999,9999,1905572924
21,17,3,ISIP_8,101,9999,9999,9999,1906372684
21,17,3,ISIP_8,102,9999,9999,9999,1907172448
21,17,3,ISIP_8,103,9999,9999,9999,1907972200
21,17,3,ISIP_8,104,9999,9999,9999,1908772956
21,17,3,ISIP_8,105,9999,9999,9999,1909572724
21,17,3,ISIP_8,106,9999,9999,9999,1910372464
21,17,3,ISIP_8,107,9999,9999,9999,1911172156
21,17,3,ISIP_8,108,9999,9999,9999,1911972936
21,17,3,ISIP_8,109,9999,9999,9999,1912772704
21,17,3,ISIP_8,110,9999,9999,9999,1913572472
21,17,3,ISIP_8,111,9999,9999,9999,1914372160
21,17,3,ISIP_8,112,9999,9999,9999,1915172920
21,17,3,ISIP_8,113,9999,9999,9999,1915972684
21,17,3,ISIP_8,114,9999,9999,9999,1916772452
21,17,3,ISIP_8,115,9999,9999,9999,1917572216
21,17,3,ISIP_8,116,9999,9999,9999,1918372924
21,17,3,ISIP_8,117,9999,9999,9999,1919172688
21,17,3,ISIP_8,118,9999,9999,9999,1919972456
21,17,3,ISIP_8,119,9999,9999,9999,1920772148
21,17,3,ISIP_8,120,9999,9999,9999,1921572976
21,17,3,ISIP_8,121,9999,9999,9999,1922372668
21,17,3,ISIP_8,122,9999,9999,9999,1923172432
21,17,3,ISIP_8,123,9999,9999,9999,1923972184
21,17,3,ISIP_8,124,9999,9999,9999,1924772968
21,17,3,ISIP_8,125,9999,9999,9999,1925572656
21,17,3,ISIP_8,126,9999,9999,9999,1926372424
21,17,3,ISIP_8,127,9999,9999,9999,1927172192
21,17,3,ISIP_8,128,9999,9999,9999,1927972948
21,17,3,ISIP_8,129,9999,9999,9999,1928772716
21,17,3,ISIP_8,130,9999,9999,9999,1929572404
21,17,3,ISIP_8,131,9999,9999,9999,1930372172
21,17,3,ISIP_8,132,9999,9999,9999,1931172956
21,17,3,ISIP_8,133,9999,9999,9999,1931972724
21,17,3,ISIP_8,134,9999,9999,9999,1932772408
21,17,3,ISIP_8,135,9999,9999,9999,1933572156
21,17,3,ISIP_8,136,9999,9999,9999,1934372916
21,17,3,ISIP_8,137,9999,9999,9999,1935172680
21,17,3,ISIP_8,138,9999,9999,9999,1935972448
21,17,3,ISIP_8,139,9999,9999,9999,1936772216
21,17,3,ISIP_8,140,9999,9999,9999,1937572920
21,17,3,ISIP_8,141,9999,9999,9999,1938372688
21,17,3,ISIP_8,142,9999,9999,9999,1939172452
21,17,3,ISIP_8,143,9999,9999,9999,1939972212
21,17,3,ISIP_8,144,9999,9999,9999,1940772952
21,17,3,ISIP_8,145,9999,9999,9999,1941572720
21,17,3,ISIP_8,146,9999,9999,9999,1942372408
21,17,3,ISIP_8,147,9999,9999,9999,1943172176
21,17,3,ISIP_8,148,9999,9999,9999,1943972960
21,17,3,ISIP_8,149,9999,9999,9999,1944772724
21,18,5,ISIP_5,0,5,42,127,1970305316
21,18,5,ISIP_5,1,5,42,127,1970805344
21,18,5,ISIP_5,2,1,48,46,1971071652
21,18,5,ISIP_5,3,5,42,127,1971304968
21,18,5,ISIP_5,4,1,48,60,1971625940
21,18,5,ISIP_5,5,5,42,127,1971804516
21,18,5,ISIP_5,6,1,48,65,1972135184
21,18,5,ISIP_5,7,5,42,127,1972305208
21,18,5,ISIP_5,8,1,48,58,1972668148
21,18,5,ISIP_5,9,5,42,127,1972805136
21,18,5,ISIP_5,10,1,48,59,1973209052
21,18,5,ISIP_5,11,5,42,127,1973304684
21,18,5,ISIP_5,12,1,48,58,1973731652
21,18,5,ISIP_5,13,5,42,127,1973805396
21,18,5,ISIP_5,14,1,48,55,1974243024
21,18,5,ISIP_5,15,5,42,127,1974305320
21,18,5,ISIP_5,16,1,48,52,1974742572
21,18,5,ISIP_5,17,5,42,127,1974804796
21,18,5,ISIP_5,18,1,48,57,1975260360
21,18,5,ISIP_5,19,5,42,127,1975304648
21,18,5,ISIP_5,20,1,48,57,1975738692
21,18,5,ISIP_5,21,5,42,127,1975805188
21,18,5,ISIP_5,22,1,48,53,1976255944
21,18,5,ISIP_5,23,5,42,127,1976305116
21,18,5,ISIP_5,24,1,48,51,1976779912
21,18,5,ISIP_5,25,5,42,127,1976805044
21,18,5,ISIP_5,26,1,48,51,1977264956
21,18,5,ISIP_5,27,5,42,127,1977304364
21,18,5,ISIP_5,28,1,48,52,1977758784
21,18,5,ISIP_5,29,5,42,127,1977805132
21,18,5,ISIP_5,30,1,48,51,1978291752
21,18,5,ISIP_5,31,5,42,127,1978304984
21,18,5,ISIP_5,32,1,48,51,1978804692
21,18,5,ISIP_5,33,5,42,127,1978806288
21,18,5,ISIP_5,34,5,42,127,1979305384
21,18,5,ISIP_5,35,1,48,52,1979328324
21,18,5,ISIP_5,36,1,48,48,1979797184
21,18,5,ISIP_5,37,5,42,127,1979805000
21,18,5,ISIP_5,38,1,48,52,1980276184
21,18,5,ISIP_5,39,5,42,127,1980305004
21,18,5,ISIP_5,40,1,48,53,1980794196
21,18,5,ISIP_5,41,5,42,127,1980804376
21,18,5,ISIP_5,42,1,48,54,1981293436
21,18,5,ISIP_5,43,5,42,127,1981305144
21,18,5,ISIP_5,44,1,48,53,1981761548
21,18,5,ISIP_5,45,5,42,127,1981804996
21,18,5,ISIP_5,46,1,48,58,1982287720
21,18,5,ISIP_5,47,5,42,127,1982304696
21,18,5,ISIP_5,48,1,48,57,1982733780
21,18,5,ISIP_5,49,5,42,127,1982805616
21,18,5,ISIP_5,50,1,48,54,1983267664
21,18,5,ISIP_5,51,5,42,127,1983305164
21,18,5,ISIP_5,52,1,48,54,1983771256
21,18,5,ISIP_5,53,5,42,127,1983804864
21,18,5,ISIP_5,54,1,48,59,1984279200
21,18,5,ISIP_5,55,5,42,127,1984304564
21,18,5,ISIP_5,56,1,48,61,1984781952
21,18,5,ISIP_5,57,5,42,127,1984805256
21,18,5,ISIP_5,58,1,48,53,1985285696
21,18,5,ISIP_5,59,5,42,127,1985304960
21,18,5,ISIP_5,60,1,48,54,1985774104
21,18,5,ISIP_5,61,5,42,127,1985804736
21,18,5,ISIP_5,62,1,48,60,1986292424
21,18,5,ISIP_5,63,5,42,127,1986305580
21,18,5,ISIP_5,64,1,48,62,1986800212
21,18,5,ISIP_5,65,5,42,127,1986805128
21,18,5,ISIP_5,66,5,42,127,1987304836
21,18,5,ISIP_5,67,1,48,68,1987322132
21,18,5,ISIP_5,68,1,48,59,1987796712
21,18,5,ISIP_5,69,5,42,127,1987804756
21,18,5,ISIP_5,70,1,48,59,1988263524
21,18,5,ISIP_5,71,5,42,127,1988305220
21,18,5,ISIP_5,72,1,48,57,1988786116
21,18,5,ISIP_5,73,5,42,127,1988805072
21,18,5,ISIP_5,74,1,48,54,1989278952
21,18,5,ISIP_5,75,5,42,127,1989304848
21,18,5,ISIP_5,76,1,48,47,1989778652
21,18,5,ISIP_5,77,5,42,127,1989805616
21,18,5,ISIP_5,78,1,48,56,1990263668
21,18,5,ISIP_5,79,1,48,62,1990812628
21,18,5,ISIP_5,80,1,48,64,1991312560
21,18,5,ISIP_5,81,1,48,55,1991825844
21,18,5,ISIP_5,82,1,48,64,1992316976
21,18,5,ISIP_5,83,1,48,48,1992787736
21,18,5,ISIP_5,84,1,48,62,1993273628
21,18,5,ISIP_5,85,1,48,53,1993766384
21,18,5,ISIP_5,86,1,48,54,1994263488
21,18,5,ISIP_5,87,1,48,56,1994829740
21,18,5,ISIP_5,88,1,48,58,1995292116
21,18,5,ISIP_5,89,1,48,51,1995786476
21,18,5,ISIP_5,90,1,48,59,1996297160
21,18,5,ISIP_5,91,1,48,58,1996768480
21,18,5,ISIP_5,92,1,48,55,1997292904
21,18,5,ISIP_5,93,1,48,57,1997766580
21,18,5,ISIP_5,94,1,48,54,1998237360
21,18,5,ISIP_5,95,1,48,56,1998759196
21,18,5,ISIP_5,96,1,48,58,1999241012
21,18,5,ISIP_5,97,1,48,59,1999748192
21,18,5,ISIP_5,98,1,48,55,2000233312
21,18,5,ISIP_5,99,1,48,58,2000748348
21,18,5,ISIP_5,100,1,48,54,2001246452
21,18,5,ISIP_5,101,1,48,55,2001744932
21,18,5,ISIP_5,102,1,48,53,2002225404
21,18,5,ISIP_5,103,1,48,55,2002724112
21,18,5,ISIP_5,104,1,48,53,2003239376
21,18,5,ISIP_5,105,1,48,58,2003759068
21,18,5,ISIP_5,106,1,48,54,2004195052
21,18,5,ISIP_5,107,1,48,56,2004721692
21,18,5,ISIP_5,108,1,48,57,2005226276
21,18,5,ISIP_5,109,1,48,55,2005745208
21,18,5,ISIP_5,110,1,48,57,2006241324
21,18,5,ISIP_5,111,1,48,53,2006793900
21,18,5,ISIP_5,112,1,48,58,2007261556
21,18,5,ISIP_5,113,1,48,59,2007819340
21,18,5,ISIP_5,114,1,48,54,2008267136
21,18,5,ISIP_5,115,1,48,57,2008747984
21,18,5,ISIP_5,116,1,48,52,2009261272
21,18,5,ISIP_5,117,1,48,55,2009756852
21,18,5,ISIP_5,118,1,48,56,2010213416
21,18,5,ISIP_5,119,1,48,59,2010726620
21,18,5,ISIP_5,120,1,48,52,2011232652
21,18,5,ISIP_5,121,1,48,54,2011737160
21,18,5,ISIP_5,122,1,48,53,2012239076
21,18,5,ISIP_5,123,1,48,57,2012740068
21,18,5,ISIP_5,124,1,48,51,2013261364
21,18,5,ISIP_5,125,1,48,57,2013775336
21,18,5,ISIP_5,126,1,48,52,2014281592
21,18,5,ISIP_5,127,1,48,55,2014785036
21,18,5,ISIP_5,128,1,48,50,2015273444
21,18,5,ISIP_5,129,1,48,47,2015788632
21,18,5,ISIP_5,130,1,48,55,2016294792
21,18,5,ISIP_5,131,1,48,52,2016781752
21,18,5,ISIP_5,132,1,48,53,2017253216
21,18,5,ISIP_5,133,1,48,51,2017774972
21,18,5,ISIP_5,134,1,48,47,2018239036
21,18,5,ISIP_5,135,1,48,52,2018731716
21,18,5,ISIP_5,136,1,48,49,2019205980
21,18,5,ISIP_5,137,1,48,54,2019681796
21,18,5,ISIP_5,138,1,48,51,2020197904
21,18,5,ISIP_5,139,1,48,52,2020641288
21,18,5,ISIP_5,140,1,48,54,2021118932
21,18,5,ISIP_5,141,1,48,53,2021631912
21,18,5,ISIP_5,142,1,48,50,2022123296
21,18,5,ISIP_5,143,1,48,58,2022627040
21,18,5,ISIP_5,144,1,48,54,2023120104
21,18,5,ISIP_5,145,1,48,54,2023599280
21,18,5,ISIP_5,146,1,48,57,2024086084
21,18,5,ISIP_5,147,1,48,59,2024589064
21,18,5,ISIP_5,148,1,48,55,2025100896
21,18,5,ISIP_5,149,1,48,54,2025595236
21,18,5,ISIP_5,150,1,48,54,2026105008
21,18,5,ISIP_5,151,1,48,51,2026639604
21,18,5,ISIP_5,152,1,48,52,2027141568
21,18,5,ISIP_5,153,1,48,52,2027625016
21,18,5,ISIP_5,154,1,48,50,2028092516
21,18,5,ISIP_5,155,1,48,47,2028619304
21,18,5,ISIP_5,156,1,48,53,2029102976
21,18,5,ISIP_5,157,1,48,48,2029619084
21,18,5,ISIP_5,158,1,48,56,2030107640
21,18,5,ISIP_5,159,1,48,52,2030609560
21,18,5,ISIP_5,160,1,48,53,2031118796
21,18,5,ISIP_5,161,1,48,54,2031592324
21,18,5,ISIP_5,162,1,48,43,2032093248
21,18,5,ISIP_5,163,1,48,31,2032598668
21,18,5,ISIP_5,164,1,48,62,2033068840
21,18,5,ISIP_5,165,1,48,60,2033549388
21,18,5,ISIP_5,166,1,48,59,2034049672
21,18,5,ISIP_5,167,1,48,56,2034552728
21,18,5,ISIP_5,168,1,48,53,2035045412
21,18,5,ISIP_5,169,1,48,53,2035553960
21,18,5,ISIP_5,170,1,48,54,2036044500
21,18,5,ISIP_5,171,1,48,58,2036510624
21,18,5,ISIP_5,172,1,48,60,2037012236
21,18,5,ISIP_5,173,1,48,57,2037497900
21,18,5,ISIP_5,174,1,48,50,2037994700
21,18,5,ISIP_5,175,1,48,54,2038457924
21,18,5,ISIP_5,176,1,48,52,2038939920
21,18,5,ISIP_5,177,1,48,51,2039454272
21,18,5,ISIP_5,178,1,48,39,2039949012
21,18,5,ISIP_5,179,1,48,27,2040412976
21,18,5,ISIP_5,180,1,38,14,2040420892
21,18,5,ISIP_5,181,1,48,50,2040868980
21,18,5,ISIP_5,182,1,48,55,2041379436
21,18,5,ISIP_5,183,1,48,58,2041843964
21,18,5,ISIP_5,184,1,48,56,2042310700
21,18,5,ISIP_5,185,1,48,53,2042799320
21,18,5,ISIP_5,186,1,48,55,2043273688
21,18,5,ISIP_5,187,1,48,53,2043748716
21,18,5,ISIP_5,188,1,48,51,2044240940
21,18,5,ISIP_5,189,1,48,51,2044733920
21,18,5,ISIP_5,190,1,48,53,2045218896
21,18,5,ISIP_5,191,1,48,54,2045689908
21,18,5,ISIP_5,192,1,48,43,2046180600
21,18,5,ISIP_5,193,1,48,55,2046650308
21,18,5,ISIP_5,194,1,48,51,2047160160
21,18,5,ISIP_5,195,1,48,51,2047641240
21,18,5,ISIP_5,196,1,48,28,2048127792
21,18,5,ISIP_5,197,1,38,12,2048135708
21,18,5,ISIP_5,198,1,48,59,2048611036
21,18,5,ISIP_5,199,1,48,57,2049069228
21,18,5,ISIP_5,200,1,48,53,2049561984
21,18,5,ISIP_5,201,1,48,53,2050051384
21,18,5,ISIP_5,0,9999,9999,9999,1970303060
21,18,5,ISIP_5,1,9999,9999,9999,1970802784
21,18,5,ISIP_5,2,9999,9999,9999,1971302488
21,18,5,ISIP_5,3,9999,9999,9999,1971802188
21,18,5,ISIP_5,4,9999,9999,9999,1972302956
21,18,5,ISIP_5,5,9999,9999,9999,1972802656
21,18,5,ISIP_5,6,9999,9999,9999,1973302356
21,18,5,ISIP_5,7,9999,9999,9999,1973803064
21,18,5,ISIP_5,8,9999,9999,9999,1974302840
21,18,5,ISIP_5,9,9999,9999,9999,1974802544
21,18,5,ISIP_5,10,9999,9999,9999,1975302244
21,18,5,ISIP_5,11,9999,9999,9999,1975802932
21,18,5,ISIP_5,12,9999,9999,9999,1976302708
21,18,5,ISIP_5,13,9999,9999,9999,1976802412
21,18,5,ISIP_5,14,9999,9999,9999,1977302112
21,18,5,ISIP_5,15,9999,9999,9999,1977802804
21,18,5,ISIP_5,16,9999,9999,9999,1978302576
21,18,5,ISIP_5,17,9999,9999,9999,1978802284
21,18,5,ISIP_5,18,9999,9999,9999,1979302980
21,18,5,ISIP_5,19,9999,9999,9999,1979802744
21,18,5,ISIP_5,20,9999,9999,9999,1980302448
21,18,5,ISIP_5,21,9999,9999,9999,1980802124
21,18,5,ISIP_5,22,9999,9999,9999,1981302892
21,18,5,ISIP_5,23,9999,9999,9999,1981802592
21,18,5,ISIP_5,24,9999,9999,9999,1982302292
21,18,5,ISIP_5,25,9999,9999,9999,1982803060
21,18,5,ISIP_5,26,9999,9999,9999,1983302760
21,18,5,ISIP_5,27,9999,9999,9999,1983802460
21,18,5,ISIP_5,28,9999,9999,9999,1984302160
21,18,5,ISIP_5,29,9999,9999,9999,1984802928
21,18,5,ISIP_5,30,9999,9999,9999,1985302628
21,18,5,ISIP_5,31,9999,9999,9999,1985802328
21,18,5,ISIP_5,32,9999,9999,9999,1986303096
21,18,5,ISIP_5,33,9999,9999,9999,1986802800
21,18,5,ISIP_5,34,9999,9999,9999,1987302508
21,18,5,ISIP_5,35,9999,9999,9999,1987802200
21,18,5,ISIP_5,36,9999,9999,9999,1988302968
21,18,5,ISIP_5,37,9999,9999,9999,1988802668
21,18,5,ISIP_5,38,9999,9999,9999,1989302368
21,18,5,ISIP_5,39,9999,9999,9999,1989803060
21,18,5,ISIP_5,40,9999,9999,9999,1990302832
21,18,5,ISIP_5,41,9999,9999,9999,1990802540
21,18,5,ISIP_5,42,9999,9999,9999,1991302216
21,18,5,ISIP_5,43,9999,9999,9999,1991802984
21,18,5,ISIP_5,44,9999,9999,9999,1992302688
21,18,5,ISIP_5,45,9999,9999,9999,1992802380
21,18,5,ISIP_5,46,9999,9999,9999,1993302080
21,18,5,ISIP_5,47,9999,9999,9999,1993802848
21,18,5,ISIP_5,48,9999,9999,9999,1994302552
21,18,5,ISIP_5,49,9999,9999,9999,1994802260
21,18,5,ISIP_5,50,9999,9999,9999,1995303020
21,18,5,ISIP_5,51,9999,9999,9999,1995802720
21,18,5,ISIP_5,52,9999,9999,9999,1996302420
21,18,5,ISIP_5,53,9999,9999,9999,1996802120
21,18,5,ISIP_5,54,9999,9999,9999,1997302888
21,18,5,ISIP_5,55,9999,9999,9999,1997802592
21,18,5,ISIP_5,56,9999,9999,9999,1998302292
21,18,5,ISIP_5,57,9999,9999,9999,1998803060
21,18,5,ISIP_5,58,9999,9999,9999,1999302760
21,18,5,ISIP_5,59,9999,9999,9999,1999802460
21,18,5,ISIP_5,60,9999,9999,9999,2000302160
21,18,5,ISIP_5,61,9999,9999,9999,2000802928
21,18,5,ISIP_5,62,9999,9999,9999,2001302628
21,18,5,ISIP_5,63,9999,9999,9999,2001802304
21,18,5,ISIP_5,64,9999,9999,9999,2002303072
21,18,5,ISIP_5,65,9999,9999,9999,2002802772
21,18,5,ISIP_5,66,9999,9999,9999,2003302476
21,18,5,ISIP_5,67,9999,9999,9999,2003802176
21,18,5,ISIP_5,68,9999,9999,9999,2004302928
21,18,5,ISIP_5,69,9999,9999,9999,2004802644
21,18,5,ISIP_5,70,9999,9999,9999,2005302348
21,18,5,ISIP_5,71,9999,9999,9999,2005803116
21,18,5,ISIP_5,72,9999,9999,9999,2006302816
21,18,5,ISIP_5,73,9999,9999,9999,2006802516
21,18,5,ISIP_5,74,9999,9999,9999,2007302216
21,18,5,ISIP_5,75,9999,9999,9999,2007802992
21,18,5,ISIP_5,76,9999,9999,9999,2008302684
21,18,5,ISIP_5,77,9999,9999,9999,2008802388
21,18,5,ISIP_5,78,9999,9999,9999,2009302088
21,18,5,ISIP_5,79,9999,9999,9999,2009802856
21,18,5,ISIP_5,80,9999,9999,9999,2010302556
21,18,5,ISIP_5,81,9999,9999,9999,2010802256
21,18,5,ISIP_5,82,9999,9999,9999,2011303024
21,18,5,ISIP_5,83,9999,9999,9999,2011802724
21,18,5,ISIP_5,84,9999,9999,9999,2012302424
21,18,5,ISIP_5,85,9999,9999,9999,2012802100
21,18,5,ISIP_5,86,9999,9999,9999,2013302868
21,18,5,ISIP_5,87,9999,9999,9999,2013802568
21,18,5,ISIP_5,88,9999,9999,9999,2014302268
21,18,5,ISIP_5,89,9999,9999,9999,2014803036
21,18,5,ISIP_5,90,9999,9999,9999,2015302736
21,18,5,ISIP_5,91,9999,9999,9999,2015802436
21,18,5,ISIP_5,92,9999,9999,9999,2016302188
21,18,5,ISIP_5,93,9999,9999,9999,2016802880
21,18,5,ISIP_5,94,9999,9999,9999,2017302580
21,18,5,ISIP_5,95,9999,9999,9999,2017802356
21,18,5,ISIP_5,96,9999,9999,9999,2018303048
21,18,5,ISIP_5,97,9999,9999,9999,2018802748
21,18,5,ISIP_5,98,9999,9999,9999,2019302508
21,18,5,ISIP_5,99,9999,9999,9999,2019802208
21,18,5,ISIP_5,100,9999,9999,9999,2020302900
21,18,5,ISIP_5,101,9999,9999,9999,2020802676
21,18,5,ISIP_5,102,9999,9999,9999,2021302376
21,18,5,ISIP_5,103,9999,9999,9999,2021803072
21,18,5,ISIP_5,104,9999,9999,9999,2022302772
21,18,5,ISIP_5,105,9999,9999,9999,2022802548
21,18,5,ISIP_5,106,9999,9999,9999,2023302224
21,18,5,ISIP_5,107,9999,9999,9999,2023802992
21,18,5,ISIP_5,108,9999,9999,9999,2024302692
21,18,5,ISIP_5,109,9999,9999,9999,2024802396
21,18,5,ISIP_5,110,9999,9999,9999,2025302096
21,18,5,ISIP_5,111,9999,9999,9999,2025802864
21,18,5,ISIP_5,112,9999,9999,9999,2026302564
21,18,5,ISIP_5,113,9999,9999,9999,2026802264
21,18,5,ISIP_5,114,9999,9999,9999,2027303036
21,18,5,ISIP_5,115,9999,9999,9999,2027802732
21,18,5,ISIP_5,116,9999,9999,9999,2028302436
21,18,5,ISIP_5,117,9999,9999,9999,2028802136
21,18,5,ISIP_5,118,9999,9999,9999,2029302904
21,18,5,ISIP_5,119,9999,9999,9999,2029802604
21,18,5,ISIP_5,120,9999,9999,9999,2030302304
21,18,5,ISIP_5,121,9999,9999,9999,2030802996
21,18,5,ISIP_5,122,9999,9999,9999,2031302772
21,18,5,ISIP_5,123,9999,9999,9999,2031802476
21,18,5,ISIP_5,124,9999,9999,9999,2032302176
21,18,5,ISIP_5,125,9999,9999,9999,2032802868
21,18,5,ISIP_5,126,9999,9999,9999,2033302644
21,18,5,ISIP_5,127,9999,9999,9999,2033802344
21,18,5,ISIP_5,128,9999,9999,9999,2034303088
21,18,5,ISIP_5,129,9999,9999,9999,2034802788
21,18,5,ISIP_5,130,9999,9999,9999,2035302488
21,18,5,ISIP_5,131,9999,9999,9999,2035802188
21,18,5,ISIP_5,132,9999,9999,9999,2036302956
21,18,5,ISIP_5,133,9999,9999,9999,2036802656
21,18,5,ISIP_5,134,9999,9999,9999,2037302360
21,18,5,ISIP_5,135,9999,9999,9999,2037803128
21,18,5,ISIP_5,136,9999,9999,9999,2038302828
21,18,5,ISIP_5,137,9999,9999,9999,2038802528
21,18,5,ISIP_5,138,9999,9999,9999,2039302228
21,18,5,ISIP_5,139,9999,9999,9999,2039802996
21,18,5,ISIP_5,140,9999,9999,9999,2040302696
21,18,5,ISIP_5,141,9999,9999,9999,2040802424
21,18,5,ISIP_5,142,9999,9999,9999,2041302124
21,18,5,ISIP_5,143,9999,9999,9999,2041802816
21,18,5,ISIP_5,144,9999,9999,9999,2042302516
21,18,5,ISIP_5,145,9999,9999,9999,2042802288
21,18,5,ISIP_5,146,9999,9999,9999,2043302980
21,18,5,ISIP_5,147,9999,9999,9999,2043802680
21,18,5,ISIP_5,148,9999,9999,9999,2044302456
21,18,5,ISIP_5,149,9999,9999,9999,2044802132
21,18,5,ISIP_5,150,9999,9999,9999,2045302900
21,18,5,ISIP_5,151,9999,9999,9999,2045802584
21,18,5,ISIP_5,152,9999,9999,9999,2046302284
21,18,5,ISIP_5,153,9999,9999,9999,2046803052
21,18,5,ISIP_5,154,9999,9999,9999,2047302756
21,18,5,ISIP_5,155,9999,9999,9999,2047802456
21,18,5,ISIP_5,156,9999,9999,9999,2048302180
21,18,5,ISIP_5,157,9999,9999,9999,2048802872
21,18,5,ISIP_5,158,9999,9999,9999,2049302648
21,18,5,ISIP_5,159,9999,9999,9999,2049802352
21,19,11,Pattern_Practice,0,5,42,127,2139234868
21,19,11,Pattern_Practice,1,5,42,127,2139735508
21,19,11,Pattern_Practice,2,5,42,127,2140235084
21,19,11,Pattern_Practice,3,1,38,11,2140274276
21,19,11,Pattern_Practice,4,1,38,41,2140378968
21,19,11,Pattern_Practice,5,5,42,127,2140734984
21,19,11,Pattern_Practice,6,1,38,11,2140797000
21,19,11,Pattern_Practice,7,5,42,127,2141234760
21,19,11,Pattern_Practice,8,5,42,127,2141735328
21,19,11,Pattern_Practice,9,5,42,127,2142234900
21,19,11,Pattern_Practice,10,5,42,127,2142734852
21,19,11,Pattern_Practice,11,1,38,25,2143192116
21,19,11,Pattern_Practice,12,1,48,15,2143199644
21,19,11,Pattern_Practice,13,5,42,127,2143234396
21,19,11,Pattern_Practice,14,1,38,32,2143732584
21,19,11,Pattern_Practice,15,5,42,127,2143735060
21,19,11,Pattern_Practice,16,1,38,35,2143767216
21,19,11,Pattern_Practice,17,1,38,28,2144179148
21,19,11,Pattern_Practice,18,1,38,40,2144203240
21,19,11,Pattern_Practice,19,5,42,127,2144234784
21,19,11,Pattern_Practice,20,1,38,49,2144660280
21,19,11,Pattern_Practice,21,5,42,127,2144734484
21,19,11,Pattern_Practice,22,1,48,69,2145156852
21,19,11,Pattern_Practice,23,5,42,127,2145235252
21,19,11,Pattern_Practice,24,1,38,31,2145652408
21,19,11,Pattern_Practice,25,1,48,15,2145660020
21,19,11,Pattern_Practice,26,5,42,127,2145734932
21,19,11,Pattern_Practice,27,1,38,37,2146123440
21,19,11,Pattern_Practice,28,1,48,14,2146135404
21,19,11,Pattern_Practice,29,5,42,127,2146234764
21,19,11,Pattern_Practice,30,1,38,52,2146586848
21,19,11,Pattern_Practice,31,5,42,127,2146734540
21,19,11,Pattern_Practice,32,1,48,72,2147081284
21,19,11,Pattern_Practice,33,5,42,127,2147235084
21,19,11,Pattern_Practice,34,1,38,55,2147580984
21,19,11,Pattern_Practice,35,5,42,127,2147734780
21,19,11,Pattern_Practice,36,1,38,52,2148063516
21,19,11,Pattern_Practice,37,5,42,127,2148234636
21,19,11,Pattern_Practice,38,1,38,51,2148588624
21,19,11,Pattern_Practice,39,5,42,127,2148735452
21,19,11,Pattern_Practice,40,1,48,69,2149061696
21,19,11,Pattern_Practice,41,5,42,127,2149235380
21,19,11,Pattern_Practice,42,1,38,41,2149534300
21,19,11,Pattern_Practice,43,5,42,127,2149734700
21,19,11,Pattern_Practice,44,1,38,52,2150023164
21,19,11,Pattern_Practice,45,5,42,127,2150234400
21,19,11,Pattern_Practice,46,1,38,54,2150492244
21,19,11,Pattern_Practice,47,1,38,62,2150507096
21,19,11,Pattern_Practice,48,5,42,127,2150735448
21,19,11,Pattern_Practice,49,1,48,70,2150977724
21,19,11,Pattern_Practice,50,5,42,127,2151234844
21,19,11,Pattern_Practice,51,1,38,63,2151440796
21,19,11,Pattern_Practice,52,5,42,127,2151734540
21,19,11,Pattern_Practice,53,1,38,54,2151911112
21,19,11,Pattern_Practice,54,5,42,127,2152235308
21,19,11,Pattern_Practice,55,1,38,54,2152383652
21,19,11,Pattern_Practice,56,5,42,127,2152735160
21,19,11,Pattern_Practice,57,1,48,67,2152844436
21,19,11,Pattern_Practice,58,5,42,127,2153234788
21,19,11,Pattern_Practice,59,1,38,74,2153299772
21,19,11,Pattern_Practice,60,5,42,127,2153734488
21,19,11,Pattern_Practice,61,1,38,57,2153754836
21,19,11,Pattern_Practice,62,1,38,57,2154193776
21,19,11,Pattern_Practice,63,5,42,127,2154235324
21,19,11,Pattern_Practice,64,1,48,76,2154645176
21,19,11,Pattern_Practice,65,5,42,127,2154734948
21,19,11,Pattern_Practice,66,1,38,65,2155121272
21,19,11,Pattern_Practice,67,5,42,127,2155234632
21,19,11,Pattern_Practice,68,1,38,59,2155580912
21,19,11,Pattern_Practice,69,5,42,127,2155735320
21,19,11,Pattern_Practice,70,1,38,62,2156046196
21,19,11,Pattern_Practice,71,5,42,127,2156235020
21,19,11,Pattern_Practice,72,1,48,67,2156509804
21,19,11,Pattern_Practice,73,5,42,127,2156734724
21,19,11,Pattern_Practice,74,1,38,75,2156982948
21,19,11,Pattern_Practice,75,5,42,127,2157234576
21,19,11,Pattern_Practice,76,1,38,61,2157447776
21,19,11,Pattern_Practice,77,1,38,60,2157462560
21,19,11,Pattern_Practice,78,5,42,127,2157735316
21,19,11,Pattern_Practice,79,1,38,59,2157907976
21,19,11,Pattern_Practice,80,5,42,127,2158234940
21,19,11,Pattern_Practice,81,1,48,63,2158386844
21,19,11,Pattern_Practice,82,5,42,127,2158734640
21,19,11,Pattern_Practice,83,1,38,81,2158838852
21,19,11,Pattern_Practice,84,5,42,127,2159234340
21,19,11,Pattern_Practice,85,1,38,54,2159285744
21,19,11,Pattern_Practice,86,1,38,64,2159724668
21,19,11,Pattern_Practice,87,5,42,127,2159735152
21,19,11,Pattern_Practice,88,1,48,68,2160172932
21,19,11,Pattern_Practice,89,5,42,127,2160235080
21,19,11,Pattern_Practice,90,1,38,71,2160636920
21,19,11,Pattern_Practice,91,5,42,127,2160734536
21,19,11,Pattern_Practice,92,1,38,52,2161087024
21,19,11,Pattern_Practice,93,1,38,50,2161108060
21,19,11,Pattern_Practice,94,5,42,127,2161235280
21,19,11,Pattern_Practice,95,1,38,58,2161542820
21,19,11,Pattern_Practice,96,1,38,63,2161556376
21,19,11,Pattern_Practice,97,5,42,127,2161734956
21,19,11,Pattern_Practice,98,1,48,64,2161994548
21,19,11,Pattern_Practice,99,5,42,127,2162234956
21,19,11,Pattern_Practice,100,1,38,63,2162464488
21,19,11,Pattern_Practice,101,5,42,127,2162734352
21,19,11,Pattern_Practice,102,1,38,54,2162940228
21,19,11,Pattern_Practice,103,5,42,127,2163235196
21,19,11,Pattern_Practice,104,1,38,60,2163391856
21,19,11,Pattern_Practice,105,5,42,127,2163734972
21,19,11,Pattern_Practice,106,1,48,63,2163830712
21,19,11,Pattern_Practice,107,5,42,127,2164234672
21,19,11,Pattern_Practice,108,1,38,57,2164249832
21,19,11,Pattern_Practice,109,1,38,48,2164276288
21,19,11,Pattern_Practice,110,1,38,52,2164704320
21,19,11,Pattern_Practice,111,5,42,127,2164735332
21,19,11,Pattern_Practice,112,1,38,57,2165138392
21,19,11,Pattern_Practice,113,5,42,127,2165235016
21,19,11,Pattern_Practice,114,1,48,70,2165568320
21,19,11,Pattern_Practice,115,5,42,127,2165734716
21,19,11,Pattern_Practice,116,1,38,57,2166045208
21,19,11,Pattern_Practice,117,5,42,127,2166234716
21,19,11,Pattern_Practice,118,1,38,67,2166532244
21,19,11,Pattern_Practice,119,5,42,127,2166735332
21,19,11,Pattern_Practice,120,1,38,63,2166995012
21,19,11,Pattern_Practice,121,1,38,57,2167015664
21,19,11,Pattern_Practice,122,5,42,127,2167234936
21,19,11,Pattern_Practice,123,1,48,61,2167483696
21,19,11,Pattern_Practice,124,5,42,127,2167734788
21,19,11,Pattern_Practice,125,1,38,40,2167943792
21,19,11,Pattern_Practice,126,1,38,51,2167955440
21,19,11,Pattern_Practice,127,5,42,127,2168235532
21,19,11,Pattern_Practice,128,1,38,71,2168421928
21,19,11,Pattern_Practice,129,5,42,127,2168735004
21,19,11,Pattern_Practice,130,1,38,64,2168872256
21,19,11,Pattern_Practice,131,5,42,127,2169234856
21,19,11,Pattern_Practice,132,1,48,58,2169323880
21,19,11,Pattern_Practice,133,5,42,127,2169734556
21,19,11,Pattern_Practice,134,1,38,62,2169763676
21,19,11,Pattern_Practice,135,1,38,55,2170193980
21,19,11,Pattern_Practice,136,1,38,56,2170208984
21,19,11,Pattern_Practice,137,5,42,127,2170235344
21,19,11,Pattern_Practice,138,1,38,66,2170626352
21,19,11,Pattern_Practice,139,5,42,127,2170734876
21,19,11,Pattern_Practice,140,1,48,67,2171100488
21,19,11,Pattern_Practice,141,5,42,127,2171234576
21,19,11,Pattern_Practice,142,1,38,65,2171583784
21,19,11,Pattern_Practice,143,5,42,127,2171735572
21,19,11,Pattern_Practice,144,1,38,57,2172064864
21,19,11,Pattern_Practice,145,1,38,66,2172082316
21,19,11,Pattern_Practice,146,5,42,127,2172235096
21,19,11,Pattern_Practice,147,1,38,65,2172521396
21,19,11,Pattern_Practice,148,5,42,127,2172734872
21,19,11,Pattern_Practice,149,1,48,66,2173004312
21,19,11,Pattern_Practice,150,5,42,127,2173234572
21,19,11,Pattern_Practice,151,1,38,71,2173465476
21,19,11,Pattern_Practice,152,5,42,127,2173735264
21,19,11,Pattern_Practice,153,1,38,54,2173928016
21,19,11,Pattern_Practice,154,1,38,57,2173946076
21,19,11,Pattern_Practice,155,5,42,127,2174234940
21,19,11,Pattern_Practice,156,1,38,61,2174403500
21,19,11,Pattern_Practice,157,5,42,127,2174734720
21,19,11,Pattern_Practice,158,1,48,73,2174881840
21,19,11,Pattern_Practice,159,5,42,127,2175234420
21,19,11,Pattern_Practice,160,1,38,62,2175328860
21,19,11,Pattern_Practice,161,5,42,127,2175735412
21,19,11,Pattern_Practice,162,1,38,77,2175788044
21,19,11,Pattern_Practice,163,1,38,64,2176218972
21,19,11,Pattern_Practice,164,5,42,127,2176234952
21,19,11,Pattern_Practice,165,1,48,66,2176688988
21,19,11,Pattern_Practice,166,5,42,127,2176734652
21,19,11,Pattern_Practice,167,1,38,43,2177164656
21,19,11,Pattern_Practice,168,5,42,127,2177235268
21,19,11,Pattern_Practice,169,1,38,66,2177610764
21,19,11,Pattern_Practice,170,5,42,127,2177735104
21,19,11,Pattern_Practice,171,1,38,65,2178065668
21,19,11,Pattern_Practice,172,5,42,127,2178234652
21,19,11,Pattern_Practice,173,1,48,61,2178558800
21,19,11,Pattern_Practice,174,5,42,127,2178734352
21,19,11,Pattern_Practice,175,1,38,47,2179021796
21,19,11,Pattern_Practice,176,1,38,79,2179026276
21,19,11,Pattern_Practice,0,9999,9999,9999,2139232312
21,19,11,Pattern_Practice,1,9999,9999,9999,2139733104
21,19,11,Pattern_Practice,2,9999,9999,9999,2140232752
21,19,11,Pattern_Practice,3,9999,9999,9999,2140732504
21,19,11,Pattern_Practice,4,9999,9999,9999,2141232204
21,19,11,Pattern_Practice,5,9999,9999,9999,2141732920
21,19,11,Pattern_Practice,6,9999,9999,9999,2142232644
21,19,11,Pattern_Practice,7,9999,9999,9999,2142732372
21,19,11,Pattern_Practice,8,9999,9999,9999,2143232068
21,19,11,Pattern_Practice,9,9999,9999,9999,2143732804
21,19,11,Pattern_Practice,10,9999,9999,9999,2144232532
21,19,11,Pattern_Practice,11,9999,9999,9999,2144732232
21,19,11,Pattern_Practice,12,9999,9999,9999,2145233000
21,19,11,Pattern_Practice,13,9999,9999,9999,2145732680
21,19,11,Pattern_Practice,14,9999,9999,9999,2146232436
21,19,11,Pattern_Practice,15,9999,9999,9999,2146732136
21,19,11,Pattern_Practice,16,9999,9999,9999,2147232828
21,19,11,Pattern_Practice,17,9999,9999,9999,2147732528
21,19,11,Pattern_Practice,18,9999,9999,9999,2148232304
21,19,11,Pattern_Practice,19,9999,9999,9999,2148733048
21,19,11,Pattern_Practice,20,9999,9999,9999,2149232748
21,19,11,Pattern_Practice,21,9999,9999,9999,2149732448
21,19,11,Pattern_Practice,22,9999,9999,9999,2150232148
21,19,11,Pattern_Practice,23,9999,9999,9999,2150732888
21,19,11,Pattern_Practice,24,9999,9999,9999,2151232588
21,19,11,Pattern_Practice,25,9999,9999,9999,2151732288
21,19,11,Pattern_Practice,26,9999,9999,9999,2152233056
21,19,11,Pattern_Practice,27,9999,9999,9999,2152732756
21,19,11,Pattern_Practice,28,9999,9999,9999,2153232456
21,19,11,Pattern_Practice,29,9999,9999,9999,2153732156
21,19,11,Pattern_Practice,30,9999,9999,9999,2154232916
21,19,11,Pattern_Practice,31,9999,9999,9999,2154732616
21,19,11,Pattern_Practice,32,9999,9999,9999,2155232376
21,19,11,Pattern_Practice,33,9999,9999,9999,2155733068
21,19,11,Pattern_Practice,34,9999,9999,9999,2156232768
21,19,11,Pattern_Practice,35,9999,9999,9999,2156732468
21,19,11,Pattern_Practice,36,9999,9999,9999,2157232244
21,19,11,Pattern_Practice,37,9999,9999,9999,2157732912
21,19,11,Pattern_Practice,38,9999,9999,9999,2158232688
21,19,11,Pattern_Practice,39,9999,9999,9999,2158732388
21,19,11,Pattern_Practice,40,9999,9999,9999,2159232088
21,19,11,Pattern_Practice,41,9999,9999,9999,2159732820
21,19,11,Pattern_Practice,42,9999,9999,9999,2160232524
21,19,11,Pattern_Practice,43,9999,9999,9999,2160732280
21,19,11,Pattern_Practice,44,9999,9999,9999,2161232948
21,19,11,Pattern_Practice,45,9999,9999,9999,2161732700
21,19,11,Pattern_Practice,46,9999,9999,9999,2162232400
21,19,11,Pattern_Practice,47,9999,9999,9999,2162732100
21,19,11,Pattern_Practice,48,9999,9999,9999,2163232868
21,19,11,Pattern_Practice,49,9999,9999,9999,2163732568
21,19,11,Pattern_Practice,50,9999,9999,9999,2164232268
21,19,11,Pattern_Practice,51,9999,9999,9999,2164733000
21,19,11,Pattern_Practice,52,9999,9999,9999,2165232760
21,19,11,Pattern_Practice,53,9999,9999,9999,2165732460
21,19,11,Pattern_Practice,54,9999,9999,9999,2166232160
21,19,11,Pattern_Practice,55,9999,9999,9999,2166732852
21,19,11,Pattern_Practice,56,9999,9999,9999,2167232604
21,19,11,Pattern_Practice,57,9999,9999,9999,2167732304
21,19,11,Pattern_Practice,58,9999,9999,9999,2168233052
21,19,11,Pattern_Practice,59,9999,9999,9999,2168732748
21,19,11,Pattern_Practice,60,9999,9999,9999,2169232452
21,19,11,Pattern_Practice,61,9999,9999,9999,2169732152
21,19,11,Pattern_Practice,62,9999,9999,9999,2170232936
21,19,11,Pattern_Practice,63,9999,9999,9999,2170732620
21,19,11,Pattern_Practice,64,9999,9999,9999,2171232320
21,19,11,Pattern_Practice,65,9999,9999,9999,2171733088
21,19,11,Pattern_Practice,66,9999,9999,9999,2172232764
21,19,11,Pattern_Practice,67,9999,9999,9999,2172732464
21,19,11,Pattern_Practice,68,9999,9999,9999,2173232240
21,19,11,Pattern_Practice,69,9999,9999,9999,2173732936
21,19,11,Pattern_Practice,70,9999,9999,9999,2174232684
21,19,11,Pattern_Practice,71,9999,9999,9999,2174732388
21,19,11,Pattern_Practice,72,9999,9999,9999,2175232088
21,19,11,Pattern_Practice,73,9999,9999,9999,2175732856
21,19,11,Pattern_Practice,74,9999,9999,9999,2176232548
21,19,11,Pattern_Practice,75,9999,9999,9999,2176732244
21,19,11,Pattern_Practice,76,9999,9999,9999,2177233016
21,19,11,Pattern_Practice,77,9999,9999,9999,2177732700
21,19,11,Pattern_Practice,78,9999,9999,9999,2178232396
21,19,11,Pattern_Practice,79,9999,9999,9999,2178732100
21,20,13,Improv_Metronome,0,5,42,127,2211716716
21,20,13,Improv_Metronome,1,5,42,127,2212217180
21,20,13,Improv_Metronome,2,5,42,127,2212716804
21,20,13,Improv_Metronome,3,1,38,31,2212792044
21,20,13,Improv_Metronome,4,1,48,14,2212799580
21,20,13,Improv_Metronome,5,1,38,35,2212851900
21,20,13,Improv_Metronome,6,5,42,127,2213216660
21,20,13,Improv_Metronome,7,1,38,48,2213225328
21,20,13,Improv_Metronome,8,1,38,51,2213665268
21,20,13,Improv_Metronome,9,5,42,127,2213717644
21,20,13,Improv_Metronome,10,1,38,48,2214149404
21,20,13,Improv_Metronome,11,5,42,127,2214217040
21,20,13,Improv_Metronome,12,1,38,59,2214614916
21,20,13,Improv_Metronome,13,5,42,127,2214716876
21,20,13,Improv_Metronome,14,1,48,55,2215078444
21,20,13,Improv_Metronome,15,5,42,127,2215216804
21,20,13,Improv_Metronome,16,1,48,67,2215564028
21,20,13,Improv_Metronome,17,5,42,127,2215717344
21,20,13,Improv_Metronome,18,1,38,68,2216038680
21,20,13,Improv_Metronome,19,5,42,127,2216216892
21,20,13,Improv_Metronome,20,1,38,59,2216498240
21,20,13,Improv_Metronome,21,5,42,127,2216716592
21,20,13,Improv_Metronome,22,1,38,47,2216945896
21,20,13,Improv_Metronome,23,1,38,57,2216957092
21,20,13,Improv_Metronome,24,5,42,127,2217217488
21,20,13,Improv_Metronome,25,1,48,76,2217392076
21,20,13,Improv_Metronome,26,5,42,127,2217717264
21,20,13,Improv_Metronome,27,1,48,71,2217858056
21,20,13,Improv_Metronome,28,5,42,127,2218216812
21,20,13,Improv_Metronome,29,1,38,76,2218305992
21,20,13,Improv_Metronome,30,5,42,127,2218716436
21,20,13,Improv_Metronome,31,1,38,56,2218725720
21,20,13,Improv_Metronome,32,1,38,54,2219155352
21,20,13,Improv_Metronome,33,1,38,69,2219170900
21,20,13,Improv_Metronome,34,5,42,127,2219217324
21,20,13,Improv_Metronome,35,1,48,73,2219612960
21,20,13,Improv_Metronome,36,5,42,127,2219717460
21,20,13,Improv_Metronome,37,1,48,60,2220056420
21,20,13,Improv_Metronome,38,5,42,127,2220216632
21,20,13,Improv_Metronome,39,1,38,76,2220522928
21,20,13,Improv_Metronome,40,5,42,127,2220717476
21,20,13,Improv_Metronome,41,1,38,59,2220978448
21,20,13,Improv_Metronome,42,5,42,127,2221217252
21,20,13,Improv_Metronome,43,1,38,57,2221442360
21,20,13,Improv_Metronome,44,1,38,71,2221455304
21,20,13,Improv_Metronome,45,5,42,127,2221716776
21,20,13,Improv_Metronome,46,1,48,74,2221889052
21,20,13,Improv_Metronome,47,5,42,127,2222216548
21,20,13,Improv_Metronome,48,1,48,58,2222346780
21,20,13,Improv_Metronome,49,5,42,127,2222717320
21,20,13,Improv_Metronome,50,1,38,78,2222782304
21,20,13,Improv_Metronome,51,1,38,60,2223205892
21,20,13,Improv_Metronome,52,5,42,127,2223217136
21,20,13,Improv_Metronome,53,1,38,56,2223637752
21,20,13,Improv_Metronome,54,1,38,70,2223649476
21,20,13,Improv_Metronome,55,5,42,127,2223716660
21,20,13,Improv_Metronome,56,1,48,69,2224077600
21,20,13,Improv_Metronome,57,5,42,127,2224216420
21,20,13,Improv_Metronome,58,1,48,63,2224542352
21,20,13,Improv_Metronome,59,5,42,127,2224717112
21,20,13,Improv_Metronome,60,1,38,48,2224979836
21,20,13,Improv_Metronome,61,5,42,127,2225217040
21,20,13,Improv_Metronome,62,1,38,61,2225424212
21,20,13,Improv_Metronome,63,5,42,127,2225716512
21,20,13,Improv_Metronome,64,1,38,84,2225872944
21,20,13,Improv_Metronome,65,5,42,127,2226217280
21,20,13,Improv_Metronome,66,1,48,63,2226299464
21,20,13,Improv_Metronome,67,1,48,78,2226710152
21,20,13,Improv_Metronome,68,5,42,127,2226717124
21,20,13,Improv_Metronome,69,1,38,68,2227156436
21,20,13,Improv_Metronome,70,5,42,127,2227216904
21,20,13,Improv_Metronome,71,1,38,64,2227603024
21,20,13,Improv_Metronome,72,5,42,127,2227716356
21,20,13,Improv_Metronome,73,1,38,84,2228046460
21,20,13,Improv_Metronome,74,1,48,20,2228056440
21,20,13,Improv_Metronome,75,5,42,127,2228217152
21,20,13,Improv_Metronome,76,1,48,73,2228509868
21,20,13,Improv_Metronome,77,5,42,127,2228716848
21,20,13,Improv_Metronome,78,1,48,61,2228962332
21,20,13,Improv_Metronome,79,5,42,127,2229216852
21,20,13,Improv_Metronome,80,1,38,76,2229379844
21,20,13,Improv_Metronome,81,1,38,57,2229402408
21,20,13,Improv_Metronome,82,5,42,127,2229717444
21,20,13,Improv_Metronome,83,1,38,69,2229814024
21,20,13,Improv_Metronome,84,5,42,127,2230217144
21,20,13,Improv_Metronome,85,1,38,65,2230252908
21,20,13,Improv_Metronome,86,1,48,66,2230690864
21,20,13,Improv_Metronome,87,5,42,127,2230716912
21,20,13,Improv_Metronome,88,1,48,60,2231135824
21,20,13,Improv_Metronome,89,5,42,127,2231216388
21,20,13,Improv_Metronome,90,1,38,85,2231622784
21,20,13,Improv_Metronome,91,5,42,127,2231717364
21,20,13,Improv_Metronome,92,1,38,57,2232065784
21,20,13,Improv_Metronome,93,5,42,127,2232216912
21,20,13,Improv_Metronome,94,1,38,68,2232518936
21,20,13,Improv_Metronome,95,1,38,76,2232533336
21,20,13,Improv_Metronome,96,5,42,127,2232716816
21,20,13,Improv_Metronome,97,1,48,59,2232992136
21,20,13,Improv_Metronome,98,5,42,127,2233217356
21,20,13,Improv_Metronome,99,1,48,64,2233418400
21,20,13,Improv_Metronome,100,5,42,127,2233717108
21,20,13,Improv_Metronome,101,1,38,74,2233863692
21,20,13,Improv_Metronome,102,5,42,127,2234216884
21,20,13,Improv_Metronome,103,1,38,59,2234299292
21,20,13,Improv_Metronome,104,1,38,65,2234311552
21,20,13,Improv_Metronome,105,5,42,127,2234716636
21,20,13,Improv_Metronome,106,1,38,95,2234753416
21,20,13,Improv_Metronome,107,1,48,73,2235184328
21,20,13,Improv_Metronome,108,5,42,127,2235217168
21,20,13,Improv_Metronome,109,1,48,67,2235608784
21,20,13,Improv_Metronome,110,5,42,127,2235717004
21,20,13,Improv_Metronome,111,1,38,95,2236068196
21,20,13,Improv_Metronome,112,5,42,127,2236216704
21,20,13,Improv_Metronome,113,1,38,57,2236526896
21,20,13,Improv_Metronome,114,5,42,127,2236717472
21,20,13,Improv_Metronome,115,1,38,54,2236966692
21,20,13,Improv_Metronome,116,1,38,75,2236975444
21,20,13,Improv_Metronome,117,5,42,127,2237217224
21,20,13,Improv_Metronome,118,1,48,67,2237398452
21,20,13,Improv_Metronome,119,5,42,127,2237716848
21,20,13,Improv_Metronome,120,1,48,69,2237829176
21,20,13,Improv_Metronome,121,5,42,127,2238216624
21,20,13,Improv_Metronome,122,1,38,93,2238250176
21,20,13,Improv_Metronome,123,1,38,59,2238670196
21,20,13,Improv_Metronome,124,5,42,127,2238717460
21,20,13,Improv_Metronome,125,1,38,64,2239106560
21,20,13,Improv_Metronome,126,5,42,127,2239217068
21,20,13,Improv_Metronome,127,1,48,66,2239574644
21,20,13,Improv_Metronome,128,5,42,127,2239716768
21,20,13,Improv_Metronome,129,1,48,62,2240009864
21,20,13,Improv_Metronome,130,5,42,127,2240216544
21,20,13,Improv_Metronome,131,1,38,78,2240448596
21,20,13,Improv_Metronome,132,5,42,127,2240717384
21,20,13,Improv_Metronome,133,1,38,67,2240896256
21,20,13,Improv_Metronome,134,1,48,20,2240906684
21,20,13,Improv_Metronome,135,5,42,127,2241216812
21,20,13,Improv_Metronome,136,1,38,72,2241343836
21,20,13,Improv_Metronome,137,1,48,19,2241354268
21,20,13,Improv_Metronome,138,5,42,127,2241716536
21,20,13,Improv_Metronome,139,1,48,72,2241769848
21,20,13,Improv_Metronome,140,1,48,66,2242192468
21,20,13,Improv_Metronome,141,5,42,127,2242217372
21,20,13,Improv_Metronome,142,1,38,73,2242648112
21,20,13,Improv_Metronome,143,5,42,127,2242717148
21,20,13,Improv_Metronome,144,1,38,71,2243072344
21,20,13,Improv_Metronome,145,1,38,75,2243086588
21,20,13,Improv_Metronome,146,5,42,127,2243216656
21,20,13,Improv_Metronome,147,1,38,62,2243519364
21,20,13,Improv_Metronome,148,1,38,77,2243527048
21,20,13,Improv_Metronome,149,5,42,127,2243716556
21,20,13,Improv_Metronome,150,1,48,62,2243978448
21,20,13,Improv_Metronome,151,5,42,127,2244217096
21,20,13,Improv_Metronome,152,1,48,60,2244465684
21,20,13,Improv_Metronome,153,5,42,127,2244717076
21,20,13,Improv_Metronome,154,1,38,84,2244902660
21,20,13,Improv_Metronome,155,5,42,127,2245216552
21,20,13,Improv_Metronome,156,1,38,59,2245344672
21,20,13,Improv_Metronome,157,1,38,76,2245353956
21,20,13,Improv_Metronome,158,5,42,127,2245717448
21,20,13,Improv_Metronome,159,1,38,54,2245781928
21,20,13,Improv_Metronome,160,1,38,86,2245799528
21,20,13,Improv_Metronome,161,5,42,127,2246217124
21,20,13,Improv_Metronome,162,1,48,67,2246246320
21,20,13,Improv_Metronome,163,1,48,74,2246686412
21,20,13,Improv_Metronome,164,5,42,127,2246716892
21,20,13,Improv_Metronome,165,1,38,78,2247126744
21,20,13,Improv_Metronome,166,5,42,127,2247216592
21,20,13,Improv_Metronome,167,1,38,61,2247563036
21,20,13,Improv_Metronome,168,1,38,66,2247582620
21,20,13,Improv_Metronome,169,5,42,127,2247717320
21,20,13,Improv_Metronome,170,1,38,68,2248011028
21,20,13,Improv_Metronome,171,1,38,74,2248028556
21,20,13,Improv_Metronome,172,5,42,127,2248217148
21,20,13,Improv_Metronome,173,1,48,57,2248505056
21,20,13,Improv_Metronome,174,5,42,127,2248716544
21,20,13,Improv_Metronome,175,1,48,72,2248950500
21,20,13,Improv_Metronome,176,5,42,127,2249217460
21,20,13,Improv_Metronome,177,1,38,84,2249389156
21,20,13,Improv_Metronome,178,5,42,127,2249717012
21,20,13,Improv_Metronome,179,1,38,68,2249825648
21,20,13,Improv_Metronome,180,5,42,127,2250216940
21,20,13,Improv_Metronome,181,1,38,76,2250271092
21,20,13,Improv_Metronome,182,5,42,127,2250716564
21,20,13,Improv_Metronome,183,1,48,72,2250724400
21,20,13,Improv_Metronome,184,1,48,67,2251156016
21,20,13,Improv_Metronome,185,5,42,127,2251217324
21,20,13,Improv_Metronome,186,1,38,71,2251627000
21,20,13,Improv_Metronome,187,5,42,127,2251718224
21,20,13,Improv_Metronome,188,1,38,85,2252055348
21,20,13,Improv_Metronome,189,5,42,127,2252216780
21,20,13,Improv_Metronome,190,1,38,81,2252500340
21,20,13,Improv_Metronome,191,1,38,62,2252522440
21,20,13,Improv_Metronome,192,5,42,127,2252717448
21,20,13,Improv_Metronome,193,1,48,65,2252983224
21,20,13,Improv_Metronome,194,5,42,127,2253217072
21,20,13,Improv_Metronome,195,1,48,64,2253468576
21,20,13,Improv_Metronome,196,5,42,127,2253716848
21,20,13,Improv_Metronome,197,1,38,72,2253984076
21,20,13,Improv_Metronome,198,1,38,63,2254008008
21,20,13,Improv_Metronome,199,5,42,127,2254216824
21,20,13,Improv_Metronome,200,1,38,61,2254473676
21,20,13,Improv_Metronome,201,1,38,81,2254484256
21,20,13,Improv_Metronome,202,5,42,127,2254717116
21,20,13,Improv_Metronome,203,1,38,58,2254945780
21,20,13,Improv_Metronome,204,1,38,76,2254956820
21,20,13,Improv_Metronome,205,1,48,19,2254966108
21,20,13,Improv_Metronome,206,5,42,127,2255216940
21,20,13,Improv_Metronome,207,1,48,63,2255413280
21,20,13,Improv_Metronome,208,5,42,127,2255716868
21,20,13,Improv_Metronome,209,1,48,62,2255882072
21,20,13,Improv_Metronome,210,5,42,127,2256216340
21,20,13,Improv_Metronome,211,1,38,62,2256404516
21,20,13,Improv_Metronome,212,1,38,60,2256429368
21,20,13,Improv_Metronome,213,5,42,127,2256717160
21,20,13,Improv_Metronome,214,1,38,61,2256839788
21,20,13,Improv_Metronome,215,1,38,92,2256855328
21,20,13,Improv_Metronome,216,5,42,127,2257216912
21,20,13,Improv_Metronome,217,1,38,91,2257277648
21,20,13,Improv_Metronome,218,1,48,60,2257716152
21,20,13,Improv_Metronome,219,5,42,127,2257717900
21,20,13,Improv_Metronome,220,1,48,65,2258157512
21,20,13,Improv_Metronome,221,5,42,127,2258217448
21,20,13,Improv_Metronome,222,1,38,95,2258624864
21,20,13,Improv_Metronome,223,5,42,127,2258716996
21,20,13,Improv_Metronome,224,1,38,57,2259062496
21,20,13,Improv_Metronome,225,1,38,80,2259073868
21,20,13,Improv_Metronome,226,5,42,127,2259216656
21,20,13,Improv_Metronome,227,1,38,55,2259520592
21,20,13,Improv_Metronome,228,1,38,76,2259527276
21,20,13,Improv_Metronome,229,5,42,127,2259716560
21,20,13,Improv_Metronome,230,1,48,64,2260021332
21,20,13,Improv_Metronome,231,5,42,127,2260217328
21,20,13,Improv_Metronome,232,1,48,64,2260477080
21,20,13,Improv_Metronome,233,5,42,127,2260716876
21,20,13,Improv_Metronome,234,1,38,92,2260918404
21,20,13,Improv_Metronome,235,5,42,127,2261216576
21,20,13,Improv_Metronome,236,1,38,52,2261339176
21,20,13,Improv_Metronome,237,1,38,67,2261351436
21,20,13,Improv_Metronome,238,5,42,127,2261717468
21,20,13,Improv_Metronome,239,1,38,59,2261756892
21,20,13,Improv_Metronome,240,1,38,76,2261786552
21,20,13,Improv_Metronome,241,1,48,74,2262200928
21,20,13,Improv_Metronome,242,5,42,127,2262216984
21,20,13,Improv_Metronome,243,1,48,62,2262649200
21,20,13,Improv_Metronome,244,5,42,127,2262716760
21,20,13,Improv_Metronome,245,1,38,78,2263083324
21,20,13,Improv_Metronome,246,5,42,127,2263216444
21,20,13,Improv_Metronome,247,1,38,68,2263515644
21,20,13,Improv_Metronome,248,1,38,69,2263536448
21,20,13,Improv_Metronome,249,5,42,127,2263717492
21,20,13,Improv_Metronome,250,1,38,59,2263963580
21,20,13,Improv_Metronome,251,5,42,127,2264217040
21,20,13,Improv_Metronome,252,1,48,63,2264425332
21,20,13,Improv_Metronome,253,5,42,127,2264716740
21,20,13,Improv_Metronome,254,1,48,63,2264873376
21,20,13,Improv_Metronome,255,5,42,127,2265217356
21,20,13,Improv_Metronome,256,1,38,85,2265309124
21,20,13,Improv_Metronome,257,5,42,127,2265717412
21,20,13,Improv_Metronome,258,1,38,64,2265724356
21,20,13,Improv_Metronome,259,1,38,71,2265738980
21,20,13,Improv_Metronome,260,1,38,85,2266140660
21,20,13,Improv_Metronome,261,5,42,127,2266216852
21,20,13,Improv_Metronome,262,1,48,71,2266596716
21,20,13,Improv_Metronome,263,5,42,127,2266716608
21,20,13,Improv_Metronome,264,1,48,68,2267046056
21,20,13,Improv_Metronome,265,5,42,127,2267217300
21,20,13,Improv_Metronome,266,1,38,76,2267484304
21,20,13,Improv_Metronome,267,5,42,127,2267717152
21,20,13,Improv_Metronome,268,1,38,67,2267926620
21,20,13,Improv_Metronome,269,5,42,127,2268216624
21,20,13,Improv_Metronome,270,1,38,76,2268371604
21,20,13,Improv_Metronome,271,1,38,82,2268383712
21,20,13,Improv_Metronome,272,5,42,127,2268717368
21,20,13,Improv_Metronome,273,1,48,70,2268827936
21,20,13,Improv_Metronome,274,5,42,127,2269217144
21,20,13,Improv_Metronome,275,1,48,69,2269270988
21,20,13,Improv_Metronome,276,1,38,79,2269653924
21,20,13,Improv_Metronome,277,5,42,127,2269717064
21,20,13,Improv_Metronome,278,1,38,64,2270099372
21,20,13,Improv_Metronome,279,5,42,127,2270216672
21,20,13,Improv_Metronome,280,1,38,69,2270527164
21,20,13,Improv_Metronome,281,1,38,74,2270543092
21,20,13,Improv_Metronome,282,5,42,127,2270717188
21,20,13,Improv_Metronome,283,1,48,73,2270987772
21,20,13,Improv_Metronome,284,5,42,127,2271217116
21,20,13,Improv_Metronome,285,1,48,68,2271432300
21,20,13,Improv_Metronome,286,5,42,127,2271716888
21,20,13,Improv_Metronome,287,1,38,57,2271895524
21,20,13,Improv_Metronome,288,5,42,127,2272216360
21,20,13,Improv_Metronome,289,1,38,88,2272334836
21,20,13,Improv_Metronome,290,5,42,127,2272717128
21,20,13,Improv_Metronome,291,1,38,108,2272736788
21,20,13,Improv_Metronome,292,1,38,46,2272781020
21,20,13,Improv_Metronome,293,1,48,67,2273166860
21,20,13,Improv_Metronome,294,5,42,127,2273217024
21,20,13,Improv_Metronome,295,1,48,61,2273641272
21,20,13,Improv_Metronome,296,5,42,127,2273716648
21,20,13,Improv_Metronome,297,1,38,88,2274100380
21,20,13,Improv_Metronome,298,5,42,127,2274217244
21,20,13,Improv_Metronome,299,1,38,52,2274537276
21,20,13,Improv_Metronome,300,5,42,127,2274716948
21,20,13,Improv_Metronome,301,1,38,83,2274987076
21,20,13,Improv_Metronome,302,5,42,127,2275216800
21,20,13,Improv_Metronome,303,1,48,61,2275440352
21,20,13,Improv_Metronome,304,5,42,127,2275716576
21,20,13,Improv_Metronome,305,1,48,75,2275892516
21,20,13,Improv_Metronome,306,5,42,127,2276217268
21,20,13,Improv_Metronome,307,1,38,51,2276331092
21,20,13,Improv_Metronome,308,1,38,86,2276340836
21,20,13,Improv_Metronome,309,5,42,127,2276716840
21,20,13,Improv_Metronome,310,1,38,50,2276757668
21,20,13,Improv_Metronome,311,1,38,70,2276776112
21,20,13,Improv_Metronome,312,1,38,54,2277211748
21,20,13,Improv_Metronome,313,5,42,127,2277216588
21,20,13,Improv_Metronome,314,1,38,74,2277241064
21,20,13,Improv_Metronome,315,1,48,69,2277660984
21,20,13,Improv_Metronome,316,5,42,127,2277717256
21,20,13,Improv_Metronome,317,1,48,74,2278111696
21,20,13,Improv_Metronome,318,5,42,127,2278217164
21,20,13,Improv_Metronome,319,1,38,86,2278572404
21,20,13,Improv_Metronome,320,5,42,127,2278716944
21,20,13,Improv_Metronome,321,1,38,91,2279012712
21,20,13,Improv_Metronome,322,5,42,127,2279216644
21,20,13,Improv_Metronome,323,1,38,95,2279453884
21,20,13,Improv_Metronome,324,5,42,127,2279717180
21,20,13,Improv_Metronome,325,1,48,77,2279906956
21,20,13,Improv_Metronome,326,5,42,127,2280216956
21,20,13,Improv_Metronome,327,1,48,67,2280354612
21,20,13,Improv_Metronome,328,5,42,127,2280716580
21,20,13,Improv_Metronome,329,1,38,95,2280808428
21,20,13,Improv_Metronome,330,5,42,127,2281217652
21,20,13,Improv_Metronome,331,1,38,64,2281219016
21,20,13,Improv_Metronome,332,1,38,93,2281231184
21,20,13,Improv_Metronome,333,1,38,61,2281637700
21,20,13,Improv_Metronome,334,1,38,84,2281657672
21,20,13,Improv_Metronome,0,9999,9999,9999,2211714160
21,20,13,Improv_Metronome,1,9999,9999,9999,2212214852
21,20,13,Improv_Metronome,2,9999,9999,9999,2212714552
21,20,13,Improv_Metronome,3,9999,9999,9999,2213214328
21,20,13,Improv_Metronome,4,9999,9999,9999,2213715012
21,20,13,Improv_Metronome,5,9999,9999,9999,2214214712
21,20,13,Improv_Metronome,6,9999,9999,9999,2214714472
21,20,13,Improv_Metronome,7,9999,9999,9999,2215214172
21,20,13,Improv_Metronome,8,9999,9999,9999,2215714940
21,20,13,Improv_Metronome,9,9999,9999,9999,2216214640
21,20,13,Improv_Metronome,10,9999,9999,9999,2216714340
21,20,13,Improv_Metronome,11,9999,9999,9999,2217215084
21,20,13,Improv_Metronome,12,9999,9999,9999,2217714784
21,20,13,Improv_Metronome,13,9999,9999,9999,2218214484
21,20,13,Improv_Metronome,14,9999,9999,9999,2218714184
21,20,13,Improv_Metronome,15,9999,9999,9999,2219214920
21,20,13,Improv_Metronome,16,9999,9999,9999,2219714676
21,20,13,Improv_Metronome,17,9999,9999,9999,2220214380
21,20,13,Improv_Metronome,18,9999,9999,9999,2220715072
21,20,13,Improv_Metronome,19,9999,9999,9999,2221214772
21,20,13,Improv_Metronome,20,9999,9999,9999,2221714524
21,20,13,Improv_Metronome,21,9999,9999,9999,2222214220
21,20,13,Improv_Metronome,22,9999,9999,9999,2222714988
21,20,13,Improv_Metronome,23,9999,9999,9999,2223214656
21,20,13,Improv_Metronome,24,9999,9999,9999,2223714408
21,20,13,Improv_Metronome,25,9999,9999,9999,2224214092
21,20,13,Improv_Metronome,26,9999,9999,9999,2224714860
21,20,13,Improv_Metronome,27,9999,9999,9999,2225214560
21,20,13,Improv_Metronome,28,9999,9999,9999,2225714260
21,20,13,Improv_Metronome,29,9999,9999,9999,2226215028
21,20,13,Improv_Metronome,30,9999,9999,9999,2226714720
21,20,13,Improv_Metronome,31,9999,9999,9999,2227214420
21,20,13,Improv_Metronome,32,9999,9999,9999,2227714104
21,20,13,Improv_Metronome,33,9999,9999,9999,2228214896
21,20,13,Improv_Metronome,34,9999,9999,9999,2228714596
21,20,13,Improv_Metronome,35,9999,9999,9999,2229214296
21,20,13,Improv_Metronome,36,9999,9999,9999,2229715040
21,20,13,Improv_Metronome,37,9999,9999,9999,2230214740
21,20,13,Improv_Metronome,38,9999,9999,9999,2230714436
21,20,13,Improv_Metronome,39,9999,9999,9999,2231214132
21,20,13,Improv_Metronome,40,9999,9999,9999,2231714884
21,20,13,Improv_Metronome,41,9999,9999,9999,2232214584
21,20,13,Improv_Metronome,42,9999,9999,9999,2232714336
21,20,13,Improv_Metronome,43,9999,9999,9999,2233215028
21,20,13,Improv_Metronome,44,9999,9999,9999,2233714780
21,20,13,Improv_Metronome,45,9999,9999,9999,2234214480
21,20,13,Improv_Metronome,46,9999,9999,9999,2234714232
21,20,13,Improv_Metronome,47,9999,9999,9999,2235214916
21,20,13,Improv_Metronome,48,9999,9999,9999,2235714672
21,20,13,Improv_Metronome,49,9999,9999,9999,2236214376
21,20,13,Improv_Metronome,50,9999,9999,9999,2236715068
21,20,13,Improv_Metronome,51,9999,9999,9999,2237214820
21,20,13,Improv_Metronome,52,9999,9999,9999,2237714520
21,20,13,Improv_Metronome,53,9999,9999,9999,2238214220
21,20,13,Improv_Metronome,54,9999,9999,9999,2238714980
21,20,13,Improv_Metronome,55,9999,9999,9999,2239214664
21,20,13,Improv_Metronome,56,9999,9999,9999,2239714360
21,20,13,Improv_Metronome,57,9999,9999,9999,2240214140
21,20,13,Improv_Metronome,58,9999,9999,9999,2240714828
21,20,13,Improv_Metronome,59,9999,9999,9999,2241214556
21,20,13,Improv_Metronome,60,9999,9999,9999,2241714284
21,20,13,Improv_Metronome,61,9999,9999,9999,2242214968
21,20,13,Improv_Metronome,62,9999,9999,9999,2242714744
21,20,13,Improv_Metronome,63,9999,9999,9999,2243214404
21,20,13,Improv_Metronome,64,9999,9999,9999,2243714152
21,20,13,Improv_Metronome,65,9999,9999,9999,2244214896
21,20,13,Improv_Metronome,66,9999,9999,9999,2244714596
21,20,13,Improv_Metronome,67,9999,9999,9999,2245214300
21,20,13,Improv_Metronome,68,9999,9999,9999,2245715040
21,20,13,Improv_Metronome,69,9999,9999,9999,2246214716
21,20,13,Improv_Metronome,70,9999,9999,9999,2246714488
21,20,13,Improv_Metronome,71,9999,9999,9999,2247214188
21,20,13,Improv_Metronome,72,9999,9999,9999,2247714916
21,20,13,Improv_Metronome,73,9999,9999,9999,2248214592
21,20,13,Improv_Metronome,74,9999,9999,9999,2248714288
21,20,13,Improv_Metronome,75,9999,9999,9999,2249215056
21,20,13,Improv_Metronome,76,9999,9999,9999,2249714756
21,20,13,Improv_Metronome,77,9999,9999,9999,2250214456
21,20,13,Improv_Metronome,78,9999,9999,9999,2250714236
21,20,13,Improv_Metronome,79,9999,9999,9999,2251214920
21,20,13,Improv_Metronome,80,9999,9999,9999,2251714616
21,20,13,Improv_Metronome,81,9999,9999,9999,2252214376
21,20,13,Improv_Metronome,82,9999,9999,9999,2252715120
21,20,13,Improv_Metronome,83,9999,9999,9999,2253214820
21,20,13,Improv_Metronome,84,9999,9999,9999,2253714520
21,20,13,Improv_Metronome,85,9999,9999,9999,2254214268
21,20,13,Improv_Metronome,86,9999,9999,9999,2254714936
21,20,13,Improv_Metronome,87,9999,9999,9999,2255214688
21,20,13,Improv_Metronome,88,9999,9999,9999,2255714388
21,20,13,Improv_Metronome,89,9999,9999,9999,2256214088
21,20,13,Improv_Metronome,90,9999,9999,9999,2256714832
21,20,13,Improv_Metronome,91,9999,9999,9999,2257214584
21,20,13,Improv_Metronome,92,9999,9999,9999,2257714284
21,20,13,Improv_Metronome,93,9999,9999,9999,2258214968
21,20,13,Improv_Metronome,94,9999,9999,9999,2258714744
21,20,13,Improv_Metronome,95,9999,9999,9999,2259214404
21,20,13,Improv_Metronome,96,9999,9999,9999,2259714156
21,20,13,Improv_Metronome,97,9999,9999,9999,2260214848
21,20,13,Improv_Metronome,98,9999,9999,9999,2260714548
21,20,13,Improv_Metronome,99,9999,9999,9999,2261214324
21,20,13,Improv_Metronome,100,9999,9999,9999,2261715064
21,20,13,Improv_Metronome,101,9999,9999,9999,2262214732
21,20,13,Improv_Metronome,102,9999,9999,9999,2262714432
21,20,13,Improv_Metronome,103,9999,9999,9999,2263214192
21,20,13,Improv_Metronome,104,9999,9999,9999,2263714936
21,20,13,Improv_Metronome,105,9999,9999,9999,2264214636
21,20,13,Improv_Metronome,106,9999,9999,9999,2264714336
21,20,13,Improv_Metronome,107,9999,9999,9999,2265215028
21,20,13,Improv_Metronome,108,9999,9999,9999,2265714780
21,20,13,Improv_Metronome,109,9999,9999,9999,2266214524
21,20,13,Improv_Metronome,110,9999,9999,9999,2266714204
21,20,13,Improv_Metronome,111,9999,9999,9999,2267214896
21,20,13,Improv_Metronome,112,9999,9999,9999,2267714672
21,20,13,Improv_Metronome,113,9999,9999,9999,2268214372
21,20,13,Improv_Metronome,114,9999,9999,9999,2268715116
21,20,13,Improv_Metronome,115,9999,9999,9999,2269214816
21,20,13,Improv_Metronome,116,9999,9999,9999,2269714508
21,20,13,Improv_Metronome,117,9999,9999,9999,2270214268
21,20,13,Improv_Metronome,118,9999,9999,9999,2270714932
21,20,13,Improv_Metronome,119,9999,9999,9999,2271214708
21,20,13,Improv_Metronome,120,9999,9999,9999,2271714408
21,20,13,Improv_Metronome,121,9999,9999,9999,2272214108
21,20,13,Improv_Metronome,122,9999,9999,9999,2272714876
21,20,13,Improv_Metronome,123,9999,9999,9999,2273214544
21,20,13,Improv_Metronome,124,9999,9999,9999,2273714244
21,20,13,Improv_Metronome,125,9999,9999,9999,2274214992
21,20,13,Improv_Metronome,126,9999,9999,9999,2274714696
21,20,13,Improv_Metronome,127,9999,9999,9999,2275214396
21,20,13,Improv_Metronome,128,9999,9999,9999,2275714168
21,20,13,Improv_Metronome,129,9999,9999,9999,2276214864
21,20,13,Improv_Metronome,130,9999,9999,9999,2276714588
21,20,13,Improv_Metronome,131,9999,9999,9999,2277214260
21,20,13,Improv_Metronome,132,9999,9999,9999,2277715004
21,20,13,Improv_Metronome,133,9999,9999,9999,2278214760
21,20,13,Improv_Metronome,134,9999,9999,9999,2278714460
21,20,13,Improv_Metronome,135,9999,9999,9999,2279214164
21,20,13,Improv_Metronome,136,9999,9999,9999,2279714928
21,20,13,Improv_Metronome,137,9999,9999,9999,2280214628
21,20,13,Improv_Metronome,138,9999,9999,9999,2280714328
21,20,13,Improv_Metronome,139,9999,9999,9999,2281215096
21,21,14,Improv_Melody,0,2,48,80,2324426140
21,21,14,Improv_Melody,1,2,72,80,2324428340
21,21,14,Improv_Melody,2,5,42,127,2324431004
21,21,14,Improv_Melody,3,5,42,110,2324923712
21,21,14,Improv_Melody,4,5,42,110,2325423592
21,21,14,Improv_Melody,5,5,42,110,2325924316
21,21,14,Improv_Melody,6,5,42,127,2326423972
21,21,14,Improv_Melody,7,5,42,110,2326923548
21,21,14,Improv_Melody,8,5,42,110,2327424576
21,21,14,Improv_Melody,9,5,42,110,2327924000
21,21,14,Improv_Melody,10,2,43,80,2328426484
21,21,14,Improv_Melody,11,2,67,80,2328428448
21,21,14,Improv_Melody,12,5,42,127,2328430960
21,21,14,Improv_Melody,13,5,42,110,2328923520
21,21,14,Improv_Melody,14,5,42,110,2329424316
21,21,14,Improv_Melody,15,5,42,110,2329923896
21,21,14,Improv_Melody,16,5,42,127,2330423776
21,21,14,Improv_Melody,17,5,42,110,2330924500
21,21,14,Improv_Melody,18,5,42,110,2331424304
21,21,14,Improv_Melody,19,5,42,110,2331923728
21,21,14,Improv_Melody,20,2,45,80,2332425928
21,21,14,Improv_Melody,21,2,69,80,2332428124
21,21,14,Improv_Melody,22,5,42,127,2332430640
21,21,14,Improv_Melody,23,5,42,110,2332924416
21,21,14,Improv_Melody,24,5,42,110,2333423916
21,21,14,Improv_Melody,25,5,42,110,2333923724
21,21,14,Improv_Melody,26,5,42,127,2334424448
21,21,14,Improv_Melody,27,5,42,110,2334924324
21,21,14,Improv_Melody,28,5,42,110,2335423904
21,21,14,Improv_Melody,29,5,42,110,2335923480
21,21,14,Improv_Melody,30,2,41,80,2336426676
21,21,14,Improv_Melody,31,2,65,80,2336428948
21,21,14,Improv_Melody,32,5,42,127,2336431460
21,21,14,Improv_Melody,33,5,42,110,2336924092
21,21,14,Improv_Melody,34,5,42,110,2337423824
21,21,14,Improv_Melody,35,5,42,110,2337923404
21,21,14,Improv_Melody,36,1,38,30,2338363236
21,21,14,Improv_Melody,37,1,38,33,2338401520
21,21,14,Improv_Melody,38,5,42,127,2338424244
21,21,14,Improv_Melody,39,1,38,35,2338861240
21,21,14,Improv_Melody,40,1,38,51,2338880440
21,21,14,Improv_Melody,41,5,42,110,2338923900
21,21,14,Improv_Melody,42,1,38,50,2339341152
21,21,14,Improv_Melody,43,5,42,110,2339423528
21,21,14,Improv_Melody,44,1,48,50,2339805456
21,21,14,Improv_Melody,45,5,42,110,2339924436
21,21,14,Improv_Melody,46,1,38,37,2340325688
21,21,14,Improv_Melody,47,2,48,80,2340426536
21,21,14,Improv_Melody,48,2,72,80,2340428728
21,21,14,Improv_Melody,49,5,42,127,2340431320
21,21,14,Improv_Melody,50,1,38,45,2340704428
21,21,14,Improv_Melody,51,1,38,47,2340728080
21,21,14,Improv_Melody,52,5,42,110,2340923980
21,21,14,Improv_Melody,53,1,38,44,2340967296
21,21,14,Improv_Melody,54,1,38,41,2341102896
21,21,14,Improv_Melody,55,5,42,110,2341423432
21,21,14,Improv_Melody,56,1,38,48,2341722020
21,21,14,Improv_Melody,57,5,42,110,2341924128
21,21,14,Improv_Melody,58,1,38,48,2342217988
21,21,14,Improv_Melody,59,5,42,127,2342423836
21,21,14,Improv_Melody,60,1,38,44,2342735776
21,21,14,Improv_Melody,61,1,48,65,2342745148
21,21,14,Improv_Melody,62,5,42,110,2342923716
21,21,14,Improv_Melody,63,1,38,42,2343173852
21,21,14,Improv_Melody,64,1,38,55,2343192604
21,21,14,Improv_Melody,65,5,42,110,2343424388
21,21,14,Improv_Melody,66,1,38,53,2343606536
21,21,14,Improv_Melody,67,5,42,110,2343924016
21,21,14,Improv_Melody,68,1,48,67,2344038372
21,21,14,Improv_Melody,69,1,38,65,2344051904
21,21,14,Improv_Melody,70,2,43,80,2344426156
21,21,14,Improv_Melody,71,2,67,80,2344428504
21,21,14,Improv_Melody,72,5,42,127,2344431016
21,21,14,Improv_Melody,73,1,38,59,2344518672
21,21,14,Improv_Melody,74,5,42,110,2344923552
21,21,14,Improv_Melody,75,1,38,47,2344959996
21,21,14,Improv_Melody,76,1,38,58,2345401844
21,21,14,Improv_Melody,77,5,42,110,2345424160
21,21,14,Improv_Melody,78,1,48,54,2345915516
21,21,14,Improv_Melody,79,5,42,110,2345923868
21,21,14,Improv_Melody,80,1,38,45,2346338044
21,21,14,Improv_Melody,81,1,38,38,2346390468
21,21,14,Improv_Melody,82,5,42,127,2346423776
21,21,14,Improv_Melody,83,1,38,46,2346838796
21,21,14,Improv_Melody,84,5,42,110,2346924472
21,21,14,Improv_Melody,85,1,38,43,2347289584
21,21,14,Improv_Melody,86,5,42,110,2347424008
21,21,14,Improv_Melody,87,1,48,57,2347826604
21,21,14,Improv_Melody,88,5,42,110,2347923788
21,21,14,Improv_Melody,89,2,45,80,2348426224
21,21,14,Improv_Melody,90,2,69,80,2348428344
21,21,14,Improv_Melody,91,5,42,127,2348430928
21,21,14,Improv_Melody,92,1,48,56,2348821088
21,21,14,Improv_Melody,93,5,42,110,2348924300
21,21,14,Improv_Melody,94,1,38,49,2349352612
21,21,14,Improv_Melody,95,1,38,51,2349377920
21,21,14,Improv_Melody,96,5,42,110,2349424048
21,21,14,Improv_Melody,97,1,38,52,2349823424
21,21,14,Improv_Melody,98,5,42,110,2349923560
21,21,14,Improv_Melody,99,1,38,48,2350318472
21,21,14,Improv_Melody,100,5,42,127,2350424484
21,21,14,Improv_Melody,101,1,38,47,2350827872
21,21,14,Improv_Melody,102,5,42,110,2350924876
21,21,14,Improv_Melody,103,1,48,64,2351320784
21,21,14,Improv_Melody,104,5,42,110,2351423820
21,21,14,Improv_Melody,105,1,38,56,2351801792
21,21,14,Improv_Melody,106,5,42,110,2351923676
21,21,14,Improv_Melody,107,1,38,57,2352267696
21,21,14,Improv_Melody,108,2,41,80,2352427000
21,21,14,Improv_Melody,109,2,65,80,2352429348
21,21,14,Improv_Melody,110,5,42,127,2352431704
21,21,14,Improv_Melody,111,1,38,58,2352720828
21,21,14,Improv_Melody,112,5,42,110,2352923932
21,21,14,Improv_Melody,113,1,48,68,2353206728
21,21,14,Improv_Melody,114,5,42,110,2353423560
21,21,14,Improv_Melody,115,1,38,62,2353663928
21,21,14,Improv_Melody,116,5,42,110,2353923496
21,21,14,Improv_Melody,117,1,38,51,2354116396
21,21,14,Improv_Melody,118,5,42,127,2354424344
21,21,14,Improv_Melody,119,1,38,65,2354566888
21,21,14,Improv_Melody,120,1,38,73,2354580980
21,21,14,Improv_Melody,121,5,42,110,2354923796
21,21,14,Improv_Melody,122,1,48,64,2355044720
21,21,14,Improv_Melody,123,5,42,110,2355423504
21,21,14,Improv_Melody,124,1,48,59,2355481468
21,21,14,Improv_Melody,125,1,38,53,2355916524
21,21,14,Improv_Melody,126,5,42,110,2355924572
21,21,14,Improv_Melody,127,1,38,61,2356354876
21,21,14,Improv_Melody,128,2,48,80,2356426756
21,21,14,Improv_Melody,129,2,72,80,2356428948
21,21,14,Improv_Melody,130,5,42,127,2356431532
21,21,14,Improv_Melody,131,1,38,63,2356810996
21,21,14,Improv_Melody,132,5,42,110,2356923744
21,21,14,Improv_Melody,133,1,48,59,2357279108
21,21,14,Improv_Melody,134,5,42,110,2357423372
21,21,14,Improv_Melody,135,1,48,70,2357705632
21,21,14,Improv_Melody,136,1,38,59,2357708820
21,21,14,Improv_Melody,137,5,42,110,2357924172
21,21,14,Improv_Melody,138,1,48,64,2358140880
21,21,14,Improv_Melody,139,1,38,59,2358154372
21,21,14,Improv_Melody,140,5,42,127,2358424132
21,21,14,Improv_Melody,141,1,38,56,2358578328
21,21,14,Improv_Melody,142,1,38,78,2358591116
21,21,14,Improv_Melody,143,5,42,110,2358923508
21,21,14,Improv_Melody,144,1,38,51,2358997500
21,21,14,Improv_Melody,145,1,38,62,2359008464
21,21,14,Improv_Melody,146,1,48,16,2359017752
21,21,14,Improv_Melody,147,5,42,110,2359424284
21,21,14,Improv_Melody,148,1,38,67,2359439596
21,21,14,Improv_Melody,149,1,48,62,2359870580
21,21,14,Improv_Melody,150,5,42,110,2359924204
21,21,14,Improv_Melody,151,1,48,13,2360011460
21,21,14,Improv_Melody,152,1,48,69,2360322336
21,21,14,Improv_Melody,153,2,43,80,2360426396
21,21,14,Improv_Melody,154,2,67,80,2360428668
21,21,14,Improv_Melody,155,5,42,127,2360431176
21,21,14,Improv_Melody,156,1,38,61,2360813396
21,21,14,Improv_Melody,157,1,38,35,2360894332
21,21,14,Improv_Melody,158,5,42,110,2360923520
21,21,14,Improv_Melody,159,1,38,54,2361255768
21,21,14,Improv_Melody,160,1,38,59,2361274444
21,21,14,Improv_Melody,161,5,42,110,2361424100
21,21,14,Improv_Melody,162,1,38,70,2361696060
21,21,14,Improv_Melody,163,5,42,110,2361924260
21,21,14,Improv_Melody,164,1,48,73,2362153564
21,21,14,Improv_Melody,165,5,42,127,2362423588
21,21,14,Improv_Melody,166,1,38,68,2362602068
21,21,14,Improv_Melody,167,5,42,110,2362924360
21,21,14,Improv_Melody,168,1,38,61,2363071172
21,21,14,Improv_Melody,169,5,42,110,2363424144
21,21,14,Improv_Melody,170,1,38,58,2363512504
21,21,14,Improv_Melody,171,5,42,110,2363923924
21,21,14,Improv_Melody,172,1,48,62,2363969376
21,21,14,Improv_Melody,173,1,48,62,2364401224
21,21,14,Improv_Melody,174,2,45,80,2364426172
21,21,14,Improv_Melody,175,2,69,80,2364428208
21,21,14,Improv_Melody,176,5,42,127,2364430952
21,21,14,Improv_Melody,177,1,38,71,2364866908
21,21,14,Improv_Melody,178,1,38,46,2364908776
21,21,14,Improv_Melody,179,5,42,110,2364924376
21,21,14,Improv_Melody,180,1,38,63,2365311340
21,21,14,Improv_Melody,181,5,42,110,2365423912
21,21,14,Improv_Melody,182,1,38,62,2365759128
21,21,14,Improv_Melody,183,5,42,110,2365923996
21,21,14,Improv_Melody,184,1,48,59,2366230680
21,21,14,Improv_Melody,185,5,42,127,2366424392
21,21,14,Improv_Melody,186,1,48,68,2366659568
21,21,14,Improv_Melody,187,5,42,110,2366924172
21,21,14,Improv_Melody,188,1,38,63,2367102504
21,21,14,Improv_Melody,189,1,38,57,2367126056
21,21,14,Improv_Melody,190,5,42,110,2367423780
21,21,14,Improv_Melody,191,1,38,62,2367558740
21,21,14,Improv_Melody,192,5,42,110,2367923636
21,21,14,Improv_Melody,193,1,38,70,2368015564
21,21,14,Improv_Melody,194,2,41,80,2368427040
21,21,14,Improv_Melody,195,2,65,80,2368429232
21,21,14,Improv_Melody,196,5,42,127,2368431892
21,21,14,Improv_Melody,197,1,38,65,2368448424
21,21,14,Improv_Melody,198,1,38,68,2368884396
21,21,14,Improv_Melody,199,5,42,110,2368924036
21,21,14,Improv_Melody,200,1,38,69,2369337680
21,21,14,Improv_Melody,201,5,42,110,2369423816
21,21,14,Improv_Melody,202,1,38,58,2369833192
21,21,14,Improv_Melody,203,1,38,84,2369845528
21,21,14,Improv_Melody,204,5,42,110,2369923496
21,21,14,Improv_Melody,205,5,42,127,2370424200
21,21,14,Improv_Melody,206,5,42,110,2370923832
21,21,14,Improv_Melody,207,5,42,110,2371423712
21,21,14,Improv_Melody,208,1,38,53,2371917064
21,21,14,Improv_Melody,209,5,42,110,2371924424
21,21,14,Improv_Melody,210,1,38,68,2372402040
21,21,14,Improv_Melody,211,2,48,80,2372426764
21,21,14,Improv_Melody,212,2,72,80,2372428720
21,21,14,Improv_Melody,213,5,42,127,2372431460
21,21,14,Improv_Melody,214,1,38,67,2372881764
21,21,14,Improv_Melody,215,5,42,110,2372923692
21,21,14,Improv_Melody,216,1,38,59,2373352624
21,21,14,Improv_Melody,217,5,42,110,2373423548
21,21,14,Improv_Melody,218,1,38,55,2373843172
21,21,14,Improv_Melody,219,5,42,110,2373924700
21,21,14,Improv_Melody,220,1,38,58,2374327384
21,21,14,Improv_Melody,221,5,42,127,2374423948
21,21,14,Improv_Melody,222,1,38,70,2374802976
21,21,14,Improv_Melody,223,1,38,63,2374819208
21,21,14,Improv_Melody,224,5,42,110,2374923540
21,21,14,Improv_Melody,225,1,38,61,2375301668
21,21,14,Improv_Melody,226,1,38,64,2375332544
21,21,14,Improv_Melody,227,5,42,110,2375424304
21,21,14,Improv_Melody,228,1,38,50,2375780492
21,21,14,Improv_Melody,229,1,38,65,2375806356
21,21,14,Improv_Melody,230,5,42,110,2375924348
21,21,14,Improv_Melody,231,1,38,64,2376290852
21,21,14,Improv_Melody,232,2,43,80,2376426608
21,21,14,Improv_Melody,233,2,67,80,2376428488
21,21,14,Improv_Melody,234,5,42,127,2376431384
21,21,14,Improv_Melody,235,1,38,71,2376743556
21,21,14,Improv_Melody,236,1,38,61,2376775816
21,21,14,Improv_Melody,237,5,42,110,2376923512
21,21,14,Improv_Melody,238,1,48,71,2377206456
21,21,14,Improv_Melody,239,1,38,38,2377231160
21,21,14,Improv_Melody,240,5,42,110,2377424472
21,21,14,Improv_Melody,241,1,38,81,2377654084
21,21,14,Improv_Melody,242,5,42,110,2377923876
21,21,14,Improv_Melody,243,1,38,55,2378094344
21,21,14,Improv_Melody,244,1,38,65,2378118812
21,21,14,Improv_Melody,245,5,42,127,2378423708
21,21,14,Improv_Melody,246,1,38,53,2378562868
21,21,14,Improv_Melody,247,5,42,110,2378924404
21,21,14,Improv_Melody,248,1,38,57,2378998016
21,21,14,Improv_Melody,249,1,38,55,2379018520
21,21,14,Improv_Melody,250,5,42,110,2379424464
21,21,14,Improv_Melody,251,1,38,60,2379429936
21,21,14,Improv_Melody,252,1,38,55,2379464020
21,21,14,Improv_Melody,253,1,38,61,2379870432
21,21,14,Improv_Melody,254,5,42,110,2379923756
21,21,14,Improv_Melody,255,1,38,54,2380305200
21,21,14,Improv_Melody,256,1,38,67,2380319068
21,21,14,Improv_Melody,257,2,45,80,2380426436
21,21,14,Improv_Melody,258,2,69,80,2380428624
21,21,14,Improv_Melody,259,5,42,127,2380431208
21,21,14,Improv_Melody,260,1,38,56,2380732476
21,21,14,Improv_Melody,261,5,42,110,2380924276
21,21,14,Improv_Melody,262,1,48,66,2381162940
21,21,14,Improv_Melody,263,5,42,110,2381423980
21,21,14,Improv_Melody,264,1,38,71,2381607172
21,21,14,Improv_Melody,265,5,42,110,2381923660
21,21,14,Improv_Melody,266,1,38,67,2382030108
21,21,14,Improv_Melody,267,5,42,127,2382424360
21,21,14,Improv_Melody,268,1,38,61,2382466020
21,21,14,Improv_Melody,269,1,38,75,2382483012
21,21,14,Improv_Melody,270,1,38,52,2382912240
21,21,14,Improv_Melody,271,5,42,110,2382924180
21,21,14,Improv_Melody,272,1,38,65,2383337012
21,21,14,Improv_Melody,273,5,42,110,2383424116
21,21,14,Improv_Melody,274,1,38,60,2383795212
21,21,14,Improv_Melody,275,5,42,110,2383923500
21,21,14,Improv_Melody,276,1,38,54,2384275072
21,21,14,Improv_Melody,277,2,41,80,2384426668
21,21,14,Improv_Melody,278,2,65,80,2384428788
21,21,14,Improv_Melody,279,5,42,127,2384431300
21,21,14,Improv_Melody,280,1,38,70,2384726228
21,21,14,Improv_Melody,281,1,38,71,2384745124
21,21,14,Improv_Melody,282,5,42,110,2384924112
21,21,14,Improv_Melody,283,1,48,66,2385199352
21,21,14,Improv_Melody,284,5,42,110,2385423892
21,21,14,Improv_Melody,285,1,38,61,2385661740
21,21,14,Improv_Melody,286,1,38,74,2385673544
21,21,14,Improv_Melody,287,5,42,110,2385923496
21,21,14,Improv_Melody,288,1,38,48,2386114724
21,21,14,Improv_Melody,289,5,42,127,2386424272
21,21,14,Improv_Melody,290,1,38,65,2386550104
21,21,14,Improv_Melody,291,1,38,57,2386573044
21,21,14,Improv_Melody,292,5,42,110,2386924028
21,21,14,Improv_Melody,293,1,38,51,2386992528
21,21,14,Improv_Melody,294,5,42,110,2387423656
21,21,14,Improv_Melody,295,1,38,71,2387434312
21,21,14,Improv_Melody,296,1,38,61,2387868144
21,21,14,Improv_Melody,297,5,42,110,2387924572
21,21,14,Improv_Melody,298,1,38,62,2388324408
21,21,14,Improv_Melody,299,2,48,80,2388426736
21,21,14,Improv_Melody,300,2,72,80,2388428696
21,21,14,Improv_Melody,301,5,42,127,2388431364
21,21,14,Improv_Melody,302,1,38,62,2388746968
21,21,14,Improv_Melody,303,5,42,110,2388923668
21,21,14,Improv_Melody,304,1,48,66,2389181588
21,21,14,Improv_Melody,305,5,42,110,2389423448
21,21,14,Improv_Melody,306,1,38,56,2389610684
21,21,14,Improv_Melody,307,1,38,78,2389619608
21,21,14,Improv_Melody,308,5,42,110,2389924196
21,21,14,Improv_Melody,309,1,38,76,2390063356
21,21,14,Improv_Melody,310,5,42,127,2390423904
21,21,14,Improv_Melody,311,1,38,71,2390505832
21,21,14,Improv_Melody,312,5,42,110,2390923836
21,21,14,Improv_Melody,313,1,38,66,2390958984
21,21,14,Improv_Melody,314,1,38,76,2391402568
21,21,14,Improv_Melody,315,5,42,110,2391424600
21,21,14,Improv_Melody,316,1,38,72,2391846560
21,21,14,Improv_Melody,317,1,48,19,2391856992
21,21,14,Improv_Melody,318,5,42,110,2391923980
21,21,14,Improv_Melody,319,1,38,67,2392291812
21,21,14,Improv_Melody,320,1,38,80,2392303996
21,21,14,Improv_Melody,321,2,43,80,2392426444
21,21,14,Improv_Melody,322,2,67,80,2392429208
21,21,14,Improv_Melody,323,5,42,127,2392431260
21,21,14,Improv_Melody,324,1,38,96,2392772740
21,21,14,Improv_Melody,325,5,42,110,2392923616
21,21,14,Improv_Melody,326,1,48,77,2393211776
21,21,14,Improv_Melody,327,5,42,110,2393424236
21,21,14,Improv_Melody,328,1,38,56,2393613632
21,21,14,Improv_Melody,329,1,38,98,2393631084
21,21,14,Improv_Melody,330,5,42,110,2393923992
21,21,14,Improv_Melody,331,1,38,73,2394086528
21,21,14,Improv_Melody,332,5,42,127,2394423700
21,21,14,Improv_Melody,333,1,38,59,2394523052
21,21,14,Improv_Melody,334,1,38,68,2394539356
21,21,14,Improv_Melody,335,5,42,110,2394924600
21,21,14,Improv_Melody,336,1,38,73,2394965172
21,21,14,Improv_Melody,337,1,38,87,2394980712
21,21,14,Improv_Melody,338,1,38,54,2395388068
21,21,14,Improv_Melody,339,5,42,110,2395424120
21,21,14,Improv_Melody,340,1,38,65,2395833056
21,21,14,Improv_Melody,341,5,42,110,2395923748
21,21,14,Improv_Melody,342,1,38,60,2396285992
21,21,14,Improv_Melody,343,1,38,76,2396294512
21,21,14,Improv_Melody,344,2,45,80,2396425884
21,21,14,Improv_Melody,345,2,69,80,2396428004
21,21,14,Improv_Melody,346,5,42,127,2396430668
21,21,14,Improv_Melody,347,1,38,67,2396723916
21,21,14,Improv_Melody,348,5,42,110,2396924344
21,21,14,Improv_Melody,349,1,48,74,2397175016
21,21,14,Improv_Melody,350,5,42,110,2397424048
21,21,14,Improv_Melody,351,1,38,74,2397638472
21,21,14,Improv_Melody,352,5,42,110,2397923604
21,21,14,Improv_Melody,353,1,38,79,2398062480
21,21,14,Improv_Melody,354,5,42,127,2398424380
21,21,14,Improv_Melody,355,1,38,70,2398488372
21,21,14,Improv_Melody,356,1,38,78,2398917932
21,21,14,Improv_Melody,357,5,42,110,2398924452
21,21,14,Improv_Melody,358,1,38,65,2399341944
21,21,14,Improv_Melody,359,1,38,73,2399359164
21,21,14,Improv_Melody,360,5,42,110,2399423904
21,21,14,Improv_Melody,361,1,38,58,2399784516
21,21,14,Improv_Melody,362,5,42,110,2399923596
21,21,14,Improv_Melody,363,1,38,58,2400204708
21,21,14,Improv_Melody,364,1,38,80,2400215068
21,21,14,Improv_Melody,365,2,41,80,2400426740
21,21,14,Improv_Melody,366,2,65,80,2400429012
21,21,14,Improv_Melody,367,5,42,127,2400431524
21,21,14,Improv_Melody,368,1,38,54,2400648844
21,21,14,Improv_Melody,369,5,42,110,2400924132
21,21,14,Improv_Melody,370,1,38,72,2401082368
21,21,14,Improv_Melody,371,5,42,110,2401423988
21,21,14,Improv_Melody,372,1,48,64,2401502412
21,21,14,Improv_Melody,373,1,38,76,2401909920
21,21,14,Improv_Melody,374,5,42,110,2401923460
21,21,14,Improv_Melody,375,1,38,60,2402325276
21,21,14,Improv_Melody,376,5,42,127,2402424368
21,21,14,Improv_Melody,377,1,38,63,2402746464
21,21,14,Improv_Melody,378,5,42,110,2402923972
21,21,14,Improv_Melody,379,1,38,61,2403185552
21,21,14,Improv_Melody,380,1,38,81,2403220708
21,21,14,Improv_Melody,381,5,42,110,2403423552
21,21,14,Improv_Melody,382,1,38,66,2403642320
21,21,14,Improv_Melody,383,5,42,110,2403924248
21,21,14,Improv_Melody,384,1,38,61,2404092124
21,21,14,Improv_Melody,385,1,38,68,2404104920
21,21,14,Improv_Melody,386,2,48,80,2404426552
21,21,14,Improv_Melody,387,2,72,80,2404428828
21,21,14,Improv_Melody,388,5,42,127,2404431564
21,21,14,Improv_Melody,389,1,38,78,2404529696
21,21,14,Improv_Melody,390,1,48,19,2404540280
21,21,14,Improv_Melody,391,5,42,110,2404923668
21,21,14,Improv_Melody,392,1,38,64,2404964232
21,21,14,Improv_Melody,393,1,38,77,2404975760
21,21,14,Improv_Melody,394,1,48,56,2405385608
21,21,14,Improv_Melody,0,9999,9999,9999,2324421748
21,21,14,Improv_Melody,1,9999,9999,9999,2324921456
21,21,14,Improv_Melody,2,9999,9999,9999,2325421108
21,21,14,Improv_Melody,3,9999,9999,9999,2325921908
21,21,14,Improv_Melody,4,9999,9999,9999,2326421560
21,21,14,Improv_Melody,5,9999,9999,9999,2326921292
21,21,14,Improv_Melody,6,9999,9999,9999,2327422012
21,21,14,Improv_Melody,7,9999,9999,9999,2327921744
21,21,14,Improv_Melody,8,9999,9999,9999,2328421448
21,21,14,Improv_Melody,9,9999,9999,9999,2328921184
21,21,14,Improv_Melody,10,9999,9999,9999,2329421908
21,21,14,Improv_Melody,11,9999,9999,9999,2329921636
21,21,14,Improv_Melody,12,9999,9999,9999,2330421368
21,21,14,Improv_Melody,13,9999,9999,9999,2330922088
21,21,14,Improv_Melody,14,9999,9999,9999,2331421820
21,21,14,Improv_Melody,15,9999,9999,9999,2331921472
21,21,14,Improv_Melody,16,9999,9999,9999,2332421200
21,21,14,Improv_Melody,17,9999,9999,9999,2332921928
21,21,14,Improv_Melody,18,9999,9999,9999,2333421660
21,21,14,Improv_Melody,19,9999,9999,9999,2333921388
21,21,14,Improv_Melody,20,9999,9999,9999,2334422112
21,21,14,Improv_Melody,21,9999,9999,9999,2334921840
21,21,14,Improv_Melody,22,9999,9999,9999,2335421496
21,21,14,Improv_Melody,23,9999,9999,9999,2335921224
21,21,14,Improv_Melody,24,9999,9999,9999,2336421948
21,21,14,Improv_Melody,25,9999,9999,9999,2336921684
21,21,14,Improv_Melody,26,9999,9999,9999,2337421412
21,21,14,Improv_Melody,27,9999,9999,9999,2337921144
21,21,14,Improv_Melody,28,9999,9999,9999,2338421832
21,21,14,Improv_Melody,29,9999,9999,9999,2338921564
21,21,14,Improv_Melody,30,9999,9999,9999,2339421272
21,21,14,Improv_Melody,31,9999,9999,9999,2339922024
21,21,14,Improv_Melody,32,9999,9999,9999,2340421732
21,21,14,Improv_Melody,33,9999,9999,9999,2340921420
21,21,14,Improv_Melody,34,9999,9999,9999,2341421172
21,21,14,Improv_Melody,35,9999,9999,9999,2341921872
21,21,14,Improv_Melody,36,9999,9999,9999,2342421576
21,21,14,Improv_Melody,37,9999,9999,9999,2342921308
21,21,14,Improv_Melody,38,9999,9999,9999,2343422056
21,21,14,Improv_Melody,39,9999,9999,9999,2343921760
21,21,14,Improv_Melody,40,9999,9999,9999,2344421428
21,21,14,Improv_Melody,41,9999,9999,9999,2344921140
21,21,14,Improv_Melody,42,9999,9999,9999,2345421904
21,21,14,Improv_Melody,43,9999,9999,9999,2345921608
21,21,14,Improv_Melody,44,9999,9999,9999,2346421364
21,21,14,Improv_Melody,45,9999,9999,9999,2346922064
21,21,14,Improv_Melody,46,9999,9999,9999,2347421752
21,21,14,Improv_Melody,47,9999,9999,9999,2347921532
21,21,14,Improv_Melody,48,9999,9999,9999,2348421188
21,21,14,Improv_Melody,49,9999,9999,9999,2348921964
21,21,14,Improv_Melody,50,9999,9999,9999,2349421636
21,21,14,Improv_Melody,51,9999,9999,9999,2349921352
21,21,14,Improv_Melody,52,9999,9999,9999,2350422076
21,21,14,Improv_Melody,53,9999,9999,9999,2350921796
21,21,14,Improv_Melody,54,9999,9999,9999,2351421560
21,21,14,Improv_Melody,55,9999,9999,9999,2351921264
21,21,14,Improv_Melody,56,9999,9999,9999,2352421964
21,21,14,Improv_Melody,57,9999,9999,9999,2352921676
21,21,14,Improv_Melody,58,9999,9999,9999,2353421380
21,21,14,Improv_Melody,59,9999,9999,9999,2353921084
21,21,14,Improv_Melody,60,9999,9999,9999,2354421860
21,21,14,Improv_Melody,61,9999,9999,9999,2354921540
21,21,14,Improv_Melody,62,9999,9999,9999,2355421244
21,21,14,Improv_Melody,63,9999,9999,9999,2355922008
21,21,14,Improv_Melody,64,9999,9999,9999,2356421716
21,21,14,Improv_Melody,65,9999,9999,9999,2356921408
21,21,14,Improv_Melody,66,9999,9999,9999,2357421112
21,21,14,Improv_Melody,67,9999,9999,9999,2357921916
21,21,14,Improv_Melody,68,9999,9999,9999,2358421568
21,21,14,Improv_Melody,69,9999,9999,9999,2358921324
21,21,14,Improv_Melody,70,9999,9999,9999,2359422024
21,21,14,Improv_Melody,71,9999,9999,9999,2359921720
21,21,14,Improv_Melody,72,9999,9999,9999,2360421436
21,21,14,Improv_Melody,73,9999,9999,9999,2360921188
21,21,14,Improv_Melody,74,9999,9999,9999,2361421920
21,21,14,Improv_Melody,75,9999,9999,9999,2361921624
21,21,14,Improv_Melody,76,9999,9999,9999,2362421328
21,21,14,Improv_Melody,77,9999,9999,9999,2362922104
21,21,14,Improv_Melody,78,9999,9999,9999,2363421808
21,21,14,Improv_Melody,79,9999,9999,9999,2363921512
21,21,14,Improv_Melody,80,9999,9999,9999,2364421208
21,21,14,Improv_Melody,81,9999,9999,9999,2364921968
21,21,14,Improv_Melody,82,9999,9999,9999,2365421652
21,21,14,Improv_Melody,83,9999,9999,9999,2365921360
21,21,14,Improv_Melody,84,9999,9999,9999,2366422132
21,21,14,Improv_Melody,85,9999,9999,9999,2366921840
21,21,14,Improv_Melody,86,9999,9999,9999,2367421520
21,21,14,Improv_Melody,87,9999,9999,9999,2367921224
21,21,14,Improv_Melody,88,9999,9999,9999,2368421996
21,21,14,Improv_Melody,89,9999,9999,9999,2368921704
21,21,14,Improv_Melody,90,9999,9999,9999,2369421408
21,21,14,Improv_Melody,91,9999,9999,9999,2369921088
21,21,14,Improv_Melody,92,9999,9999,9999,2370421868
21,21,14,Improv_Melody,93,9999,9999,9999,2370921572
21,21,14,Improv_Melody,94,9999,9999,9999,2371421304
21,21,14,Improv_Melody,95,9999,9999,9999,2371922016
21,21,14,Improv_Melody,96,9999,9999,9999,2372421720
21,21,14,Improv_Melody,97,9999,9999,9999,2372921432
21,21,14,Improv_Melody,98,9999,9999,9999,2373421136
21,21,14,Improv_Melody,99,9999,9999,9999,2373921908
21,21,14,Improv_Melody,100,9999,9999,9999,2374421616
21,21,14,Improv_Melody,101,9999,9999,9999,2374921280
21,21,14,Improv_Melody,102,9999,9999,9999,2375422044
21,21,14,Improv_Melody,103,9999,9999,9999,2375921784
21,21,14,Improv_Melody,104,9999,9999,9999,2376421492
21,21,14,Improv_Melody,105,9999,9999,9999,2376921176
21,21,14,Improv_Melody,106,9999,9999,9999,2377421912
21,21,14,Improv_Melody,107,9999,9999,9999,2377921616
21,21,14,Improv_Melody,108,9999,9999,9999,2378421296
21,21,14,Improv_Melody,109,9999,9999,9999,2378922068
21,21,14,Improv_Melody,110,9999,9999,9999,2379421752
21,21,14,Improv_Melody,111,9999,9999,9999,2379921496
21,21,14,Improv_Melody,112,9999,9999,9999,2380421240
21,21,14,Improv_Melody,113,9999,9999,9999,2380921944
21,21,14,Improv_Melody,114,9999,9999,9999,2381421648
21,21,14,Improv_Melody,115,9999,9999,9999,2381921404
21,21,14,Improv_Melody,116,9999,9999,9999,2382422100
21,21,14,Improv_Melody,117,9999,9999,9999,2382921848
21,21,14,Improv_Melody,118,9999,9999,9999,2383421552
21,21,14,Improv_Melody,119,9999,9999,9999,2383921240
21,21,14,Improv_Melody,120,9999,9999,9999,2384421940
21,21,14,Improv_Melody,121,9999,9999,9999,2384921700
21,21,14,Improv_Melody,122,9999,9999,9999,2385421404
21,21,14,Improv_Melody,123,9999,9999,9999,2385921084
21,21,14,Improv_Melody,124,9999,9999,9999,2386421860
21,21,14,Improv_Melody,125,9999,9999,9999,2386921540
21,21,14,Improv_Melody,126,9999,9999,9999,2387421248
21,21,14,Improv_Melody,127,9999,9999,9999,2387922012
21,21,14,Improv_Melody,128,9999,9999,9999,2388421700
21,21,14,Improv_Melody,129,9999,9999,9999,2388921412
21,21,14,Improv_Melody,130,9999,9999,9999,2389421116
21,21,14,Improv_Melody,131,9999,9999,9999,2389921864
21,21,14,Improv_Melody,132,9999,9999,9999,2390421568
21,21,14,Improv_Melody,133,9999,9999,9999,2390921272
21,21,14,Improv_Melody,134,9999,9999,9999,2391422036
21,21,14,Improv_Melody,135,9999,9999,9999,2391921720
21,21,14,Improv_Melody,136,9999,9999,9999,2392421480
21,21,14,Improv_Melody,137,9999,9999,9999,2392921208
21,21,14,Improv_Melody,138,9999,9999,9999,2393421904
21,21,14,Improv_Melody,139,9999,9999,9999,2393921660
21,21,14,Improv_Melody,140,9999,9999,9999,2394421364
21,21,14,Improv_Melody,141,9999,9999,9999,2394922036
21,21,14,Improv_Melody,142,9999,9999,9999,2395421784
21,21,14,Improv_Melody,143,9999,9999,9999,2395921492
21,21,14,Improv_Melody,144,9999,9999,9999,2396421232
21,21,14,Improv_Melody,145,9999,9999,9999,2396921936
21,21,14,Improv_Melody,146,9999,9999,9999,2397421640
21,21,14,Improv_Melody,147,9999,9999,9999,2397921348
21,21,14,Improv_Melody,148,9999,9999,9999,2398422120
21,21,14,Improv_Melody,149,9999,9999,9999,2398921816
21,21,14,Improv_Melody,150,9999,9999,9999,2399421496
21,21,14,Improv_Melody,151,9999,9999,9999,2399921260
21,21,14,Improv_Melody,152,9999,9999,9999,2400422008
21,21,14,Improv_Melody,153,9999,9999,9999,2400921720
21,21,14,Improv_Melody,154,9999,9999,9999,2401421428
21,21,14,Improv_Melody,155,9999,9999,9999,2401921124
21,21,14,Improv_Melody,156,9999,9999,9999,2402421880
21,21,14,Improv_Melody,157,9999,9999,9999,2402921560
21,21,14,Improv_Melody,158,9999,9999,9999,2403421292
21,21,14,Improv_Melody,159,9999,9999,9999,2403921988
21,21,14,Improv_Melody,160,9999,9999,9999,2404421748
21,21,14,Improv_Melody,161,9999,9999,9999,2404921408
