pid,taskRunCount,taskID,taskName,i,channel,pitch,velocity,microseconds
25,1,0,Ticks_Pract_8,0,5,42,127,106214828
25,1,0,Ticks_Pract_8,1,5,42,127,107014436
25,1,0,Ticks_Pract_8,2,5,42,127,107815264
25,1,0,Ticks_Pract_8,3,5,42,127,108615020
25,1,0,Ticks_Pract_8,4,1,48,56,109356096
25,1,0,Ticks_Pract_8,5,5,42,127,109414768
25,1,0,Ticks_Pract_8,6,1,48,57,110131520
25,1,0,Ticks_Pract_8,7,5,42,127,110214576
25,1,0,Ticks_Pract_8,8,1,48,57,110929680
25,1,0,Ticks_Pract_8,9,5,42,127,111015208
25,1,0,Ticks_Pract_8,10,1,48,60,111751556
25,1,0,Ticks_Pract_8,11,5,42,127,111815088
25,1,0,Ticks_Pract_8,12,1,48,59,112564676
25,1,0,Ticks_Pract_8,13,5,42,127,112614748
25,1,0,Ticks_Pract_8,14,1,48,60,113346688
25,1,0,Ticks_Pract_8,15,5,42,127,113414480
25,1,0,Ticks_Pract_8,16,1,48,59,114162724
25,1,0,Ticks_Pract_8,17,5,42,127,114215508
25,1,0,Ticks_Pract_8,18,1,48,63,114950488
25,1,0,Ticks_Pract_8,19,5,42,127,115015020
25,1,0,Ticks_Pract_8,20,1,48,73,115769544
25,1,0,Ticks_Pract_8,21,5,42,127,115814680
25,1,0,Ticks_Pract_8,22,1,48,67,116558728
25,1,0,Ticks_Pract_8,23,5,42,127,116614412
25,1,0,Ticks_Pract_8,24,1,48,68,117340512
25,1,0,Ticks_Pract_8,25,5,42,127,117415492
25,1,0,Ticks_Pract_8,26,1,48,65,118168444
25,1,0,Ticks_Pract_8,27,5,42,127,118215148
25,1,0,Ticks_Pract_8,28,1,48,52,118983436
25,1,0,Ticks_Pract_8,29,5,42,127,119014736
25,1,0,Ticks_Pract_8,30,1,48,60,119803288
25,1,0,Ticks_Pract_8,31,5,42,127,119814392
25,1,0,Ticks_Pract_8,32,1,48,70,120586116
25,1,0,Ticks_Pract_8,33,5,42,127,120615348
25,1,0,Ticks_Pract_8,34,1,48,72,121405472
25,1,0,Ticks_Pract_8,35,5,42,127,121414928
25,1,0,Ticks_Pract_8,36,5,42,127,122214744
25,1,0,Ticks_Pract_8,37,1,48,63,122221980
25,1,0,Ticks_Pract_8,38,5,42,127,123014404
25,1,0,Ticks_Pract_8,39,1,48,56,123016268
25,1,0,Ticks_Pract_8,40,1,48,64,123793004
25,1,0,Ticks_Pract_8,41,5,42,127,123815252
25,1,0,Ticks_Pract_8,42,1,48,66,124606500
25,1,0,Ticks_Pract_8,43,5,42,127,124615136
25,1,0,Ticks_Pract_8,44,1,48,65,125408104
25,1,0,Ticks_Pract_8,45,5,42,127,125414792
25,1,0,Ticks_Pract_8,46,5,42,127,126214904
25,1,0,Ticks_Pract_8,47,1,48,65,126221840
25,1,0,Ticks_Pract_8,48,5,42,127,127015264
25,1,0,Ticks_Pract_8,49,1,48,63,127030576
25,1,0,Ticks_Pract_8,50,1,48,70,127814848
25,1,0,Ticks_Pract_8,51,5,42,127,127816632
25,1,0,Ticks_Pract_8,52,5,42,127,128614732
25,1,0,Ticks_Pract_8,53,1,48,65,128615696
25,1,0,Ticks_Pract_8,54,1,48,58,129410164
25,1,0,Ticks_Pract_8,55,5,42,127,129414752
25,1,0,Ticks_Pract_8,56,1,48,57,130157236
25,1,0,Ticks_Pract_8,0,9999,9999,9999,106212468
25,1,0,Ticks_Pract_8,1,9999,9999,9999,107012148
25,1,0,Ticks_Pract_8,2,9999,9999,9999,107812976
25,1,0,Ticks_Pract_8,3,9999,9999,9999,108612656
25,1,0,Ticks_Pract_8,4,9999,9999,9999,109412408
25,1,0,Ticks_Pract_8,5,9999,9999,9999,110212216
25,1,0,Ticks_Pract_8,6,9999,9999,9999,111012920
25,1,0,Ticks_Pract_8,7,9999,9999,9999,111812728
25,1,0,Ticks_Pract_8,8,9999,9999,9999,112612460
25,1,0,Ticks_Pract_8,9,9999,9999,9999,113412192
25,1,0,Ticks_Pract_8,10,9999,9999,9999,114212924
25,1,0,Ticks_Pract_8,11,9999,9999,9999,115012660
25,1,0,Ticks_Pract_8,12,9999,9999,9999,115812464
25,1,0,Ticks_Pract_8,13,9999,9999,9999,116612200
25,1,0,Ticks_Pract_8,14,9999,9999,9999,117412980
25,1,0,Ticks_Pract_8,15,9999,9999,9999,118212712
25,1,0,Ticks_Pract_8,16,9999,9999,9999,119012448
25,1,0,Ticks_Pract_8,17,9999,9999,9999,119812180
25,1,0,Ticks_Pract_8,18,9999,9999,9999,120612908
25,1,0,Ticks_Pract_8,19,9999,9999,9999,121412716
25,1,0,Ticks_Pract_8,20,9999,9999,9999,122212456
25,1,0,Ticks_Pract_8,21,9999,9999,9999,123012192
25,1,0,Ticks_Pract_8,22,9999,9999,9999,123812964
25,1,0,Ticks_Pract_8,23,9999,9999,9999,124612696
25,1,0,Ticks_Pract_8,24,9999,9999,9999,125412432
25,1,0,Ticks_Pract_8,25,9999,9999,9999,126212172
25,1,0,Ticks_Pract_8,26,9999,9999,9999,127012976
25,1,0,Ticks_Pract_8,27,9999,9999,9999,127812708
25,1,0,Ticks_Pract_8,28,9999,9999,9999,128612444
25,1,0,Ticks_Pract_8,29,9999,9999,9999,129412168
25,2,1,Ticks_Pract_5,0,5,42,127,149840096
25,2,1,Ticks_Pract_5,1,5,42,127,150340032
25,2,1,Ticks_Pract_5,2,5,42,127,150839600
25,2,1,Ticks_Pract_5,3,5,42,127,151340664
25,2,1,Ticks_Pract_5,4,5,42,127,151840080
25,2,1,Ticks_Pract_5,5,5,42,127,152339772
25,2,1,Ticks_Pract_5,6,5,42,127,152839784
25,2,1,Ticks_Pract_5,7,5,42,127,153340252
25,2,1,Ticks_Pract_5,8,1,48,60,153768496
25,2,1,Ticks_Pract_5,9,5,42,127,153840108
25,2,1,Ticks_Pract_5,10,1,48,61,154245748
25,2,1,Ticks_Pract_5,11,5,42,127,154339728
25,2,1,Ticks_Pract_5,12,1,48,60,154705200
25,2,1,Ticks_Pract_5,13,5,42,127,154840604
25,2,1,Ticks_Pract_5,14,1,48,73,155205344
25,2,1,Ticks_Pract_5,15,5,42,127,155340076
25,2,1,Ticks_Pract_5,16,1,48,70,155725232
25,2,1,Ticks_Pract_5,17,5,42,127,155839768
25,2,1,Ticks_Pract_5,18,1,48,68,156215580
25,2,1,Ticks_Pract_5,19,5,42,127,156339612
25,2,1,Ticks_Pract_5,20,1,48,52,156729936
25,2,1,Ticks_Pract_5,21,5,42,127,156840428
25,2,1,Ticks_Pract_5,22,1,48,59,157274056
25,2,1,Ticks_Pract_5,23,5,42,127,157340288
25,2,1,Ticks_Pract_5,24,1,48,71,157775996
25,2,1,Ticks_Pract_5,25,5,42,127,157839832
25,2,1,Ticks_Pract_5,26,1,48,67,158282800
25,2,1,Ticks_Pract_5,27,5,42,127,158339528
25,2,1,Ticks_Pract_5,28,1,48,62,158779872
25,2,1,Ticks_Pract_5,29,5,42,127,158840192
25,2,1,Ticks_Pract_5,30,1,48,66,159266476
25,2,1,Ticks_Pract_5,31,5,42,127,159339740
25,2,1,Ticks_Pract_5,32,1,48,59,159776416
25,2,1,Ticks_Pract_5,33,5,42,127,159839584
25,2,1,Ticks_Pract_5,34,1,48,62,160286060
25,2,1,Ticks_Pract_5,35,5,42,127,160340324
25,2,1,Ticks_Pract_5,36,1,48,53,160793612
25,2,1,Ticks_Pract_5,37,5,42,127,160840392
25,2,1,Ticks_Pract_5,38,1,48,57,161301208
25,2,1,Ticks_Pract_5,39,5,42,127,161339712
25,2,1,Ticks_Pract_5,40,1,48,55,161778316
25,2,1,Ticks_Pract_5,41,5,42,127,161839408
25,2,1,Ticks_Pract_5,42,1,48,54,162263496
25,2,1,Ticks_Pract_5,43,5,42,127,162340448
25,2,1,Ticks_Pract_5,44,1,48,44,162754888
25,2,1,Ticks_Pract_5,45,5,42,127,162840116
25,2,1,Ticks_Pract_5,46,5,42,127,163339568
25,2,1,Ticks_Pract_5,47,5,42,127,163840332
25,2,1,Ticks_Pract_5,48,5,42,127,164340272
25,2,1,Ticks_Pract_5,49,5,42,127,164839988
25,2,1,Ticks_Pract_5,50,5,42,127,165339404
25,2,1,Ticks_Pract_5,51,1,48,56,165827560
25,2,1,Ticks_Pract_5,52,5,42,127,165840160
25,2,1,Ticks_Pract_5,53,1,48,54,166269068
25,2,1,Ticks_Pract_5,54,5,42,127,166340080
25,2,1,Ticks_Pract_5,55,1,48,48,166763072
25,2,1,Ticks_Pract_5,56,5,42,127,166839924
25,2,1,Ticks_Pract_5,57,1,48,47,167268080
25,2,1,Ticks_Pract_5,58,5,42,127,167340368
25,2,1,Ticks_Pract_5,59,1,48,49,167794396
25,2,1,Ticks_Pract_5,60,5,42,127,167840064
25,2,1,Ticks_Pract_5,61,1,48,64,168294844
25,2,1,Ticks_Pract_5,62,5,42,127,168340056
25,2,1,Ticks_Pract_5,63,1,48,64,168802768
25,2,1,Ticks_Pract_5,64,5,42,127,168839600
25,2,1,Ticks_Pract_5,65,1,48,57,169305228
25,2,1,Ticks_Pract_5,66,5,42,127,169340192
25,2,1,Ticks_Pract_5,67,1,48,53,169802452
25,2,1,Ticks_Pract_5,0,9999,9999,9999,149837884
25,2,1,Ticks_Pract_5,1,9999,9999,9999,150337600
25,2,1,Ticks_Pract_5,2,9999,9999,9999,150837316
25,2,1,Ticks_Pract_5,3,9999,9999,9999,151338080
25,2,1,Ticks_Pract_5,4,9999,9999,9999,151837796
25,2,1,Ticks_Pract_5,5,9999,9999,9999,152337484
25,2,1,Ticks_Pract_5,6,9999,9999,9999,152837204
25,2,1,Ticks_Pract_5,7,9999,9999,9999,153337964
25,2,1,Ticks_Pract_5,8,9999,9999,9999,153837676
25,2,1,Ticks_Pract_5,9,9999,9999,9999,154337368
25,2,1,Ticks_Pract_5,10,9999,9999,9999,154838092
25,2,1,Ticks_Pract_5,11,9999,9999,9999,155337788
25,2,1,Ticks_Pract_5,12,9999,9999,9999,155837556
25,2,1,Ticks_Pract_5,13,9999,9999,9999,156337252
25,2,1,Ticks_Pract_5,14,9999,9999,9999,156837992
25,2,1,Ticks_Pract_5,15,9999,9999,9999,157337704
25,2,1,Ticks_Pract_5,16,9999,9999,9999,157837396
25,2,1,Ticks_Pract_5,17,9999,9999,9999,158337092
25,2,1,Ticks_Pract_5,18,9999,9999,9999,158837832
25,2,1,Ticks_Pract_5,19,9999,9999,9999,159337528
25,2,1,Ticks_Pract_5,20,9999,9999,9999,159837300
25,2,1,Ticks_Pract_5,21,9999,9999,9999,160338040
25,2,1,Ticks_Pract_5,22,9999,9999,9999,160837732
25,2,1,Ticks_Pract_5,23,9999,9999,9999,161337428
25,2,1,Ticks_Pract_5,24,9999,9999,9999,161837124
25,2,1,Ticks_Pract_5,25,9999,9999,9999,162337864
25,2,1,Ticks_Pract_5,26,9999,9999,9999,162837608
25,2,1,Ticks_Pract_5,27,9999,9999,9999,163337284
25,2,1,Ticks_Pract_5,28,9999,9999,9999,163838048
25,2,1,Ticks_Pract_5,29,9999,9999,9999,164337760
25,2,1,Ticks_Pract_5,30,9999,9999,9999,164837476
25,2,1,Ticks_Pract_5,31,9999,9999,9999,165337192
25,2,1,Ticks_Pract_5,32,9999,9999,9999,165837876
25,2,1,Ticks_Pract_5,33,9999,9999,9999,166337644
25,2,1,Ticks_Pract_5,34,9999,9999,9999,166837340
25,2,1,Ticks_Pract_5,35,9999,9999,9999,167338080
25,2,1,Ticks_Pract_5,36,9999,9999,9999,167837776
25,2,1,Ticks_Pract_5,37,9999,9999,9999,168337472
25,2,1,Ticks_Pract_5,38,9999,9999,9999,168837240
25,2,1,Ticks_Pract_5,39,9999,9999,9999,169337908
25,3,2,T1_SMS_8,0,5,42,127,207701220
25,3,2,T1_SMS_8,1,5,42,127,208501348
25,3,2,T1_SMS_8,2,5,42,127,209301028
25,3,2,T1_SMS_8,3,5,42,127,210100560
25,3,2,T1_SMS_8,4,5,42,127,210901436
25,3,2,T1_SMS_8,5,1,48,71,210938216
25,3,2,T1_SMS_8,6,1,48,58,211657224
25,3,2,T1_SMS_8,7,5,42,127,211701164
25,3,2,T1_SMS_8,8,1,48,49,212476108
25,3,2,T1_SMS_8,9,5,42,127,212501144
25,3,2,T1_SMS_8,10,1,48,62,213294116
25,3,2,T1_SMS_8,11,5,42,127,213300728
25,3,2,T1_SMS_8,12,5,42,127,214101292
25,3,2,T1_SMS_8,13,1,48,58,214150488
25,3,2,T1_SMS_8,14,1,48,65,214854456
25,3,2,T1_SMS_8,15,5,42,127,214901092
25,3,2,T1_SMS_8,16,1,48,63,215677008
25,3,2,T1_SMS_8,17,5,42,127,215700976
25,3,2,T1_SMS_8,18,1,48,61,216450860
25,3,2,T1_SMS_8,19,5,42,127,216500636
25,3,2,T1_SMS_8,20,1,48,67,217295176
25,3,2,T1_SMS_8,21,5,42,127,217301268
25,3,2,T1_SMS_8,22,5,42,127,218101156
25,3,2,T1_SMS_8,23,5,42,127,218900940
25,3,2,T1_SMS_8,24,1,48,69,218989252
25,3,2,T1_SMS_8,25,1,48,53,219682752
25,3,2,T1_SMS_8,26,5,42,127,219700740
25,3,2,T1_SMS_8,27,1,48,63,220433920
25,3,2,T1_SMS_8,28,5,42,127,220501592
25,3,2,T1_SMS_8,29,1,48,60,221266584
25,3,2,T1_SMS_8,30,5,42,127,221301028
25,3,2,T1_SMS_8,31,1,48,62,222082700
25,3,2,T1_SMS_8,32,5,42,127,222100984
25,3,2,T1_SMS_8,33,1,48,61,222883256
25,3,2,T1_SMS_8,34,5,42,127,222900644
25,3,2,T1_SMS_8,35,5,42,127,223701580
25,3,2,T1_SMS_8,36,1,48,54,223729604
25,3,2,T1_SMS_8,37,1,48,55,224482124
25,3,2,T1_SMS_8,38,5,42,127,224501156
25,3,2,T1_SMS_8,39,5,42,127,225300920
25,3,2,T1_SMS_8,40,1,48,59,225306356
25,3,2,T1_SMS_8,41,1,48,71,226064612
25,3,2,T1_SMS_8,42,5,42,127,226100648
25,3,2,T1_SMS_8,43,1,48,57,226897508
25,3,2,T1_SMS_8,44,5,42,127,226901576
25,3,2,T1_SMS_8,45,5,42,127,227701240
25,3,2,T1_SMS_8,46,1,48,54,227717676
25,3,2,T1_SMS_8,47,5,42,127,228500752
25,3,2,T1_SMS_8,48,1,48,62,228502236
25,3,2,T1_SMS_8,49,5,42,127,229300484
25,3,2,T1_SMS_8,50,1,48,67,229301820
25,3,2,T1_SMS_8,51,5,42,127,230101340
25,3,2,T1_SMS_8,52,1,48,54,230117100
25,3,2,T1_SMS_8,53,5,42,127,230901444
25,3,2,T1_SMS_8,54,1,48,50,230903820
25,3,2,T1_SMS_8,55,1,48,60,231680424
25,3,2,T1_SMS_8,56,5,42,127,231701048
25,3,2,T1_SMS_8,57,5,42,127,232500564
25,3,2,T1_SMS_8,58,1,48,63,232518492
25,3,2,T1_SMS_8,59,1,48,61,233299828
25,3,2,T1_SMS_8,60,5,42,127,233301560
25,3,2,T1_SMS_8,61,1,48,57,234076728
25,3,2,T1_SMS_8,62,5,42,127,234101144
25,3,2,T1_SMS_8,63,1,48,52,234879380
25,3,2,T1_SMS_8,64,5,42,127,234900956
25,3,2,T1_SMS_8,65,1,48,63,235654280
25,3,2,T1_SMS_8,66,5,42,127,235700760
25,3,2,T1_SMS_8,67,5,42,127,236501324
25,3,2,T1_SMS_8,68,1,48,62,236534512
25,3,2,T1_SMS_8,69,5,42,127,237301060
25,3,2,T1_SMS_8,70,1,48,52,237307320
25,3,2,T1_SMS_8,71,1,48,54,238062304
25,3,2,T1_SMS_8,72,5,42,127,238100884
25,3,2,T1_SMS_8,73,1,48,49,238888996
25,3,2,T1_SMS_8,74,5,42,127,238900696
25,3,2,T1_SMS_8,75,5,42,127,239701480
25,3,2,T1_SMS_8,76,1,48,47,239712080
25,3,2,T1_SMS_8,77,5,42,127,240501292
25,3,2,T1_SMS_8,78,1,48,72,240502184
25,3,2,T1_SMS_8,79,5,42,127,241300876
25,3,2,T1_SMS_8,80,1,48,64,241350592
25,3,2,T1_SMS_8,81,5,42,127,242100612
25,3,2,T1_SMS_8,82,1,48,69,242133052
25,3,2,T1_SMS_8,83,5,42,127,242901392
25,3,2,T1_SMS_8,84,1,48,65,242912212
25,3,2,T1_SMS_8,85,5,42,127,243701124
25,3,2,T1_SMS_8,86,1,48,66,243711052
25,3,2,T1_SMS_8,87,1,48,61,244478972
25,3,2,T1_SMS_8,88,5,42,127,244500800
25,3,2,T1_SMS_8,89,5,42,127,245300464
25,3,2,T1_SMS_8,90,1,48,76,245366116
25,3,2,T1_SMS_8,91,1,48,53,246042040
25,3,2,T1_SMS_8,92,1,48,35,246096620
25,3,2,T1_SMS_8,93,5,42,127,246101444
25,3,2,T1_SMS_8,94,5,42,127,246901108
25,3,2,T1_SMS_8,95,1,48,61,246924872
25,3,2,T1_SMS_8,96,1,48,57,247691824
25,3,2,T1_SMS_8,97,5,42,127,247700908
25,3,2,T1_SMS_8,98,5,42,127,248500576
25,3,2,T1_SMS_8,99,1,48,54,248526504
25,3,2,T1_SMS_8,100,5,42,127,249301504
25,3,2,T1_SMS_8,101,1,48,60,249354736
25,3,2,T1_SMS_8,102,1,48,62,250073152
25,3,2,T1_SMS_8,103,5,42,127,250101228
25,3,2,T1_SMS_8,104,5,42,127,250900772
25,3,2,T1_SMS_8,105,1,48,77,250909276
25,3,2,T1_SMS_8,106,1,48,56,251639404
25,3,2,T1_SMS_8,107,5,42,127,251700572
25,3,2,T1_SMS_8,108,1,48,50,252468860
25,3,2,T1_SMS_8,109,5,42,127,252501428
25,3,2,T1_SMS_8,110,1,48,59,253238600
25,3,2,T1_SMS_8,111,5,42,127,253301160
25,3,2,T1_SMS_8,112,1,48,54,254062264
25,3,2,T1_SMS_8,113,5,42,127,254101264
25,3,2,T1_SMS_8,114,5,42,127,254900560
25,3,2,T1_SMS_8,115,1,48,65,254920656
25,3,2,T1_SMS_8,116,5,42,127,255701340
25,3,2,T1_SMS_8,117,1,48,68,255727872
25,3,2,T1_SMS_8,118,5,42,127,256501076
25,3,2,T1_SMS_8,119,1,48,67,256601308
25,3,2,T1_SMS_8,120,5,42,127,257300908
25,3,2,T1_SMS_8,121,1,48,52,257306116
25,3,2,T1_SMS_8,122,1,48,53,258015224
25,3,2,T1_SMS_8,123,5,42,127,258100560
25,3,2,T1_SMS_8,124,5,42,127,258901344
25,3,2,T1_SMS_8,125,5,42,127,259701176
25,3,2,T1_SMS_8,126,1,48,65,259802652
25,3,2,T1_SMS_8,127,1,48,53,260482916
25,3,2,T1_SMS_8,128,5,42,127,260500980
25,3,2,T1_SMS_8,129,5,42,127,261300792
25,3,2,T1_SMS_8,130,1,48,57,261331736
25,3,2,T1_SMS_8,131,5,42,127,262101348
25,3,2,T1_SMS_8,132,1,48,59,262103288
25,3,2,T1_SMS_8,133,1,48,55,262890420
25,3,2,T1_SMS_8,134,5,42,127,262901076
25,3,2,T1_SMS_8,135,5,42,127,263700768
25,3,2,T1_SMS_8,136,1,48,55,263709124
25,3,2,T1_SMS_8,137,1,48,61,264482212
25,3,2,T1_SMS_8,138,5,42,127,264500868
25,3,2,T1_SMS_8,139,1,48,57,265268104
25,3,2,T1_SMS_8,140,5,42,127,265301276
25,3,2,T1_SMS_8,141,1,48,52,266044504
25,3,2,T1_SMS_8,142,5,42,127,266101084
25,3,2,T1_SMS_8,143,5,42,127,266900824
25,3,2,T1_SMS_8,144,1,48,59,266903268
25,3,2,T1_SMS_8,145,5,42,127,267700708
25,3,2,T1_SMS_8,146,1,48,53,267746760
25,3,2,T1_SMS_8,147,1,48,56,268492172
25,3,2,T1_SMS_8,148,5,42,127,268501332
25,3,2,T1_SMS_8,149,5,42,127,269300996
25,3,2,T1_SMS_8,150,1,48,52,269318480
25,3,2,T1_SMS_8,151,5,42,127,270100756
25,3,2,T1_SMS_8,152,1,48,55,270164904
25,3,2,T1_SMS_8,153,5,42,127,270900712
25,3,2,T1_SMS_8,154,1,48,57,270937788
25,3,2,T1_SMS_8,155,5,42,127,271701340
25,3,2,T1_SMS_8,156,1,48,57,271716952
25,3,2,T1_SMS_8,157,5,42,127,272501372
25,3,2,T1_SMS_8,158,1,48,50,272522444
25,3,2,T1_SMS_8,159,5,42,127,273300808
25,3,2,T1_SMS_8,160,1,48,52,273384032
25,3,2,T1_SMS_8,161,1,48,48,274094960
25,3,2,T1_SMS_8,162,5,42,127,274100608
25,3,2,T1_SMS_8,163,1,48,60,274892676
25,3,2,T1_SMS_8,164,5,42,127,274901316
25,3,2,T1_SMS_8,165,5,42,127,275701204
25,3,2,T1_SMS_8,166,1,48,58,275743540
25,3,2,T1_SMS_8,167,1,48,50,276469260
25,3,2,T1_SMS_8,168,5,42,127,276500880
25,3,2,T1_SMS_8,169,1,48,54,277232940
25,3,2,T1_SMS_8,170,5,42,127,277300464
25,3,2,T1_SMS_8,171,1,48,63,278070620
25,3,2,T1_SMS_8,172,5,42,127,278101320
25,3,2,T1_SMS_8,173,1,48,56,278888608
25,3,2,T1_SMS_8,174,5,42,127,278901056
25,3,2,T1_SMS_8,175,5,42,127,279701016
25,3,2,T1_SMS_8,176,1,48,49,279751556
25,3,2,T1_SMS_8,177,1,48,57,280496748
25,3,2,T1_SMS_8,178,5,42,127,280500520
25,3,2,T1_SMS_8,179,1,48,52,281288928
25,3,2,T1_SMS_8,180,5,42,127,281301300
25,3,2,T1_SMS_8,181,5,42,127,282101040
25,3,2,T1_SMS_8,182,1,48,53,282112460
25,3,2,T1_SMS_8,183,5,42,127,282901020
25,3,2,T1_SMS_8,184,1,48,60,282950964
25,3,2,T1_SMS_8,185,5,42,127,283700532
25,3,2,T1_SMS_8,186,1,48,61,283787196
25,3,2,T1_SMS_8,187,5,42,127,284501308
25,3,2,T1_SMS_8,188,1,48,45,284570028
25,3,2,T1_SMS_8,189,5,42,127,285301044
25,3,2,T1_SMS_8,190,1,48,41,285393468
25,3,2,T1_SMS_8,191,1,48,33,286098960
25,3,2,T1_SMS_8,192,5,42,127,286100768
25,3,2,T1_SMS_8,193,1,48,44,286858360
25,3,2,T1_SMS_8,194,5,42,127,286900948
25,3,2,T1_SMS_8,195,1,48,55,287648968
25,3,2,T1_SMS_8,196,5,42,127,287701356
25,3,2,T1_SMS_8,197,1,48,43,288472856
25,3,2,T1_SMS_8,198,5,42,127,288501016
25,3,2,T1_SMS_8,199,1,48,48,289276404
25,3,2,T1_SMS_8,200,5,42,127,289300776
25,3,2,T1_SMS_8,201,1,48,38,290088060
25,3,2,T1_SMS_8,202,5,42,127,290100804
25,3,2,T1_SMS_8,203,1,48,46,290867672
25,3,2,T1_SMS_8,204,5,42,127,290901584
25,3,2,T1_SMS_8,205,5,42,127,291701028
25,3,2,T1_SMS_8,206,1,48,51,291717240
25,3,2,T1_SMS_8,207,1,48,47,292492940
25,3,2,T1_SMS_8,208,5,42,127,292500980
25,3,2,T1_SMS_8,209,5,42,127,293300572
25,3,2,T1_SMS_8,210,1,48,56,293307432
25,3,2,T1_SMS_8,211,1,48,37,293366420
25,3,2,T1_SMS_8,212,5,42,127,294101480
25,3,2,T1_SMS_8,213,1,48,42,294103924
25,3,2,T1_SMS_8,214,1,48,33,294872824
25,3,2,T1_SMS_8,215,5,42,127,294901056
25,3,2,T1_SMS_8,216,1,48,48,295644880
25,3,2,T1_SMS_8,217,5,42,127,295700812
25,3,2,T1_SMS_8,218,1,48,49,296427040
25,3,2,T1_SMS_8,219,1,48,38,296482240
25,3,2,T1_SMS_8,220,5,42,127,296500524
25,3,2,T1_SMS_8,221,5,42,127,297301388
25,3,2,T1_SMS_8,222,1,48,61,297329264
25,3,2,T1_SMS_8,223,5,42,127,298101268
25,3,2,T1_SMS_8,224,1,48,56,298155028
25,3,2,T1_SMS_8,225,5,42,127,298900928
25,3,2,T1_SMS_8,226,1,48,39,298901892
25,3,2,T1_SMS_8,227,5,42,127,299700660
25,3,2,T1_SMS_8,228,1,48,60,299730632
25,3,2,T1_SMS_8,229,5,42,127,300501292
25,3,2,T1_SMS_8,230,1,48,57,300520044
25,3,2,T1_SMS_8,231,5,42,127,301301248
25,3,2,T1_SMS_8,232,1,48,50,301350320
25,3,2,T1_SMS_8,233,5,42,127,302100784
25,3,2,T1_SMS_8,234,1,48,60,302141824
25,3,2,T1_SMS_8,235,5,42,127,302900516
25,3,2,T1_SMS_8,236,1,48,65,302983740
25,3,2,T1_SMS_8,237,1,48,53,303662732
25,3,2,T1_SMS_8,0,9999,9999,9999,207699008
25,3,2,T1_SMS_8,1,9999,9999,9999,208498764
25,3,2,T1_SMS_8,2,9999,9999,9999,209298516
25,3,2,T1_SMS_8,3,9999,9999,9999,210098272
25,3,2,T1_SMS_8,4,9999,9999,9999,210899000
25,3,2,T1_SMS_8,5,9999,9999,9999,211698800
25,3,2,T1_SMS_8,6,9999,9999,9999,212498536
25,3,2,T1_SMS_8,7,9999,9999,9999,213298292
25,3,2,T1_SMS_8,8,9999,9999,9999,214099004
25,3,2,T1_SMS_8,9,9999,9999,9999,214898804
25,3,2,T1_SMS_8,10,9999,9999,9999,215698540
25,3,2,T1_SMS_8,11,9999,9999,9999,216498276
25,3,2,T1_SMS_8,12,9999,9999,9999,217299056
25,3,2,T1_SMS_8,13,9999,9999,9999,218098796
25,3,2,T1_SMS_8,14,9999,9999,9999,218898552
25,3,2,T1_SMS_8,15,9999,9999,9999,219698228
25,3,2,T1_SMS_8,16,9999,9999,9999,220499008
25,3,2,T1_SMS_8,17,9999,9999,9999,221298740
25,3,2,T1_SMS_8,18,9999,9999,9999,222098548
25,3,2,T1_SMS_8,19,9999,9999,9999,222898284
25,3,2,T1_SMS_8,20,9999,9999,9999,223698996
25,3,2,T1_SMS_8,21,9999,9999,9999,224498796
25,3,2,T1_SMS_8,22,9999,9999,9999,225298536
25,3,2,T1_SMS_8,23,9999,9999,9999,226098284
25,3,2,T1_SMS_8,24,9999,9999,9999,226898992
25,3,2,T1_SMS_8,25,9999,9999,9999,227698804
25,3,2,T1_SMS_8,26,9999,9999,9999,228498540
25,3,2,T1_SMS_8,27,9999,9999,9999,229298272
25,3,2,T1_SMS_8,28,9999,9999,9999,230099052
25,3,2,T1_SMS_8,29,9999,9999,9999,230898784
25,3,2,T1_SMS_8,30,9999,9999,9999,231698536
25,3,2,T1_SMS_8,31,9999,9999,9999,232498276
25,3,2,T1_SMS_8,32,9999,9999,9999,233299056
25,3,2,T1_SMS_8,33,9999,9999,9999,234098784
25,3,2,T1_SMS_8,34,9999,9999,9999,234898516
25,3,2,T1_SMS_8,35,9999,9999,9999,235698252
25,3,2,T1_SMS_8,36,9999,9999,9999,236499036
25,3,2,T1_SMS_8,37,9999,9999,9999,237298772
25,3,2,T1_SMS_8,38,9999,9999,9999,238098524
25,3,2,T1_SMS_8,39,9999,9999,9999,238898256
25,3,2,T1_SMS_8,40,9999,9999,9999,239699044
25,3,2,T1_SMS_8,41,9999,9999,9999,240498780
25,3,2,T1_SMS_8,42,9999,9999,9999,241298512
25,3,2,T1_SMS_8,43,9999,9999,9999,242098248
25,3,2,T1_SMS_8,44,9999,9999,9999,242899028
25,3,2,T1_SMS_8,45,9999,9999,9999,243698760
25,3,2,T1_SMS_8,46,9999,9999,9999,244498512
25,3,2,T1_SMS_8,47,9999,9999,9999,245298252
25,3,2,T1_SMS_8,48,9999,9999,9999,246099008
25,3,2,T1_SMS_8,49,9999,9999,9999,246898748
25,3,2,T1_SMS_8,50,9999,9999,9999,247698548
25,3,2,T1_SMS_8,51,9999,9999,9999,248498288
25,3,2,T1_SMS_8,52,9999,9999,9999,249298992
25,3,2,T1_SMS_8,53,9999,9999,9999,250098792
25,3,2,T1_SMS_8,54,9999,9999,9999,250898484
25,3,2,T1_SMS_8,55,9999,9999,9999,251698284
25,3,2,T1_SMS_8,56,9999,9999,9999,252498992
25,3,2,T1_SMS_8,57,9999,9999,9999,253298800
25,3,2,T1_SMS_8,58,9999,9999,9999,254098532
25,3,2,T1_SMS_8,59,9999,9999,9999,254898272
25,3,2,T1_SMS_8,60,9999,9999,9999,255699052
25,3,2,T1_SMS_8,61,9999,9999,9999,256498788
25,3,2,T1_SMS_8,62,9999,9999,9999,257298544
25,3,2,T1_SMS_8,63,9999,9999,9999,258098272
25,3,2,T1_SMS_8,64,9999,9999,9999,258899056
25,3,2,T1_SMS_8,65,9999,9999,9999,259698736
25,3,2,T1_SMS_8,66,9999,9999,9999,260498540
25,3,2,T1_SMS_8,67,9999,9999,9999,261298280
25,3,2,T1_SMS_8,68,9999,9999,9999,262099060
25,3,2,T1_SMS_8,69,9999,9999,9999,262898788
25,3,2,T1_SMS_8,70,9999,9999,9999,263698480
25,3,2,T1_SMS_8,71,9999,9999,9999,264498280
25,3,2,T1_SMS_8,72,9999,9999,9999,265299060
25,3,2,T1_SMS_8,73,9999,9999,9999,266098796
25,3,2,T1_SMS_8,74,9999,9999,9999,266898536
25,3,2,T1_SMS_8,75,9999,9999,9999,267698268
25,3,2,T1_SMS_8,76,9999,9999,9999,268499044
25,3,2,T1_SMS_8,77,9999,9999,9999,269298784
25,3,2,T1_SMS_8,78,9999,9999,9999,270098540
25,3,2,T1_SMS_8,79,9999,9999,9999,270898276
25,3,2,T1_SMS_8,80,9999,9999,9999,271699052
25,3,2,T1_SMS_8,81,9999,9999,9999,272498788
25,3,2,T1_SMS_8,82,9999,9999,9999,273298520
25,3,2,T1_SMS_8,83,9999,9999,9999,274098248
25,3,2,T1_SMS_8,84,9999,9999,9999,274899028
25,3,2,T1_SMS_8,85,9999,9999,9999,275698768
25,3,2,T1_SMS_8,86,9999,9999,9999,276498520
25,3,2,T1_SMS_8,87,9999,9999,9999,277298252
25,3,2,T1_SMS_8,88,9999,9999,9999,278099032
25,3,2,T1_SMS_8,89,9999,9999,9999,278898768
25,3,2,T1_SMS_8,90,9999,9999,9999,279698508
25,3,2,T1_SMS_8,91,9999,9999,9999,280498232
25,3,2,T1_SMS_8,92,9999,9999,9999,281299012
25,3,2,T1_SMS_8,93,9999,9999,9999,282098752
25,3,2,T1_SMS_8,94,9999,9999,9999,282898508
25,3,2,T1_SMS_8,95,9999,9999,9999,283698240
25,3,2,T1_SMS_8,96,9999,9999,9999,284499020
25,3,2,T1_SMS_8,97,9999,9999,9999,285298756
25,3,2,T1_SMS_8,98,9999,9999,9999,286098504
25,3,2,T1_SMS_8,99,9999,9999,9999,286898292
25,3,2,T1_SMS_8,100,9999,9999,9999,287698996
25,3,2,T1_SMS_8,101,9999,9999,9999,288498804
25,3,2,T1_SMS_8,102,9999,9999,9999,289298488
25,3,2,T1_SMS_8,103,9999,9999,9999,290098296
25,3,2,T1_SMS_8,104,9999,9999,9999,290899000
25,3,2,T1_SMS_8,105,9999,9999,9999,291698740
25,3,2,T1_SMS_8,106,9999,9999,9999,292498544
25,3,2,T1_SMS_8,107,9999,9999,9999,293298284
25,3,2,T1_SMS_8,108,9999,9999,9999,294099040
25,3,2,T1_SMS_8,109,9999,9999,9999,294898768
25,3,2,T1_SMS_8,110,9999,9999,9999,295698528
25,3,2,T1_SMS_8,111,9999,9999,9999,296498240
25,3,2,T1_SMS_8,112,9999,9999,9999,297299024
25,3,2,T1_SMS_8,113,9999,9999,9999,298098756
25,3,2,T1_SMS_8,114,9999,9999,9999,298898492
25,3,2,T1_SMS_8,115,9999,9999,9999,299698224
25,3,2,T1_SMS_8,116,9999,9999,9999,300499004
25,3,2,T1_SMS_8,117,9999,9999,9999,301298736
25,3,2,T1_SMS_8,118,9999,9999,9999,302098496
25,3,2,T1_SMS_8,119,9999,9999,9999,302898228
25,4,4,T1_SMS_5,0,5,42,127,368476492
25,4,4,T1_SMS_5,1,5,42,127,368977260
25,4,4,T1_SMS_5,2,5,42,127,369477196
25,4,4,T1_SMS_5,3,5,42,127,369976692
25,4,4,T1_SMS_5,4,5,42,127,370477380
25,4,4,T1_SMS_5,5,5,42,127,370977100
25,4,4,T1_SMS_5,6,5,42,127,371477036
25,4,4,T1_SMS_5,7,5,42,127,371976456
25,4,4,T1_SMS_5,8,5,42,127,372477268
25,4,4,T1_SMS_5,9,1,48,51,372488112
25,4,4,T1_SMS_5,10,1,48,48,372933692
25,4,4,T1_SMS_5,11,5,42,127,372976956
25,4,4,T1_SMS_5,12,1,48,55,373435628
25,4,4,T1_SMS_5,13,5,42,127,373476800
25,4,4,T1_SMS_5,14,1,48,51,373924252
25,4,4,T1_SMS_5,15,5,42,127,373976420
25,4,4,T1_SMS_5,16,1,48,46,374424540
25,4,4,T1_SMS_5,17,5,42,127,374477164
25,4,4,T1_SMS_5,18,1,48,54,374905388
25,4,4,T1_SMS_5,19,5,42,127,374976856
25,4,4,T1_SMS_5,20,1,48,43,375387808
25,4,4,T1_SMS_5,21,5,42,127,375476776
25,4,4,T1_SMS_5,22,1,48,44,375908072
25,4,4,T1_SMS_5,23,5,42,127,375977220
25,4,4,T1_SMS_5,24,1,48,46,376424440
25,4,4,T1_SMS_5,25,5,42,127,376477064
25,4,4,T1_SMS_5,26,1,48,43,376930724
25,4,4,T1_SMS_5,27,5,42,127,376976832
25,4,4,T1_SMS_5,28,1,48,50,377440516
25,4,4,T1_SMS_5,29,5,42,127,377476604
25,4,4,T1_SMS_5,30,1,48,47,377957416
25,4,4,T1_SMS_5,31,5,42,127,377977196
25,4,4,T1_SMS_5,32,1,48,46,378442668
25,4,4,T1_SMS_5,33,5,42,127,378477040
25,4,4,T1_SMS_5,34,1,48,57,378919404
25,4,4,T1_SMS_5,35,5,42,127,378976808
25,4,4,T1_SMS_5,36,1,48,53,379433088
25,4,4,T1_SMS_5,37,5,42,127,379477476
25,4,4,T1_SMS_5,38,1,48,52,379907480
25,4,4,T1_SMS_5,39,5,42,127,379977024
25,4,4,T1_SMS_5,40,1,48,41,380456632
25,4,4,T1_SMS_5,41,5,42,127,380476792
25,4,4,T1_SMS_5,42,1,48,62,380956476
25,4,4,T1_SMS_5,43,5,42,127,380976560
25,4,4,T1_SMS_5,44,1,48,42,381447344
25,4,4,T1_SMS_5,45,5,42,127,381477148
25,4,4,T1_SMS_5,46,1,48,52,381922480
25,4,4,T1_SMS_5,47,5,42,127,381976992
25,4,4,T1_SMS_5,48,1,48,48,382432120
25,4,4,T1_SMS_5,49,5,42,127,382476540
25,4,4,T1_SMS_5,50,1,48,57,382948576
25,4,4,T1_SMS_5,51,5,42,127,382977480
25,4,4,T1_SMS_5,52,1,48,50,383458520
25,4,4,T1_SMS_5,53,5,42,127,383477100
25,4,4,T1_SMS_5,54,1,48,45,383969056
25,4,4,T1_SMS_5,55,5,42,127,383976724
25,4,4,T1_SMS_5,56,1,48,48,384466876
25,4,4,T1_SMS_5,57,5,42,127,384476416
25,4,4,T1_SMS_5,58,1,48,52,384960596
25,4,4,T1_SMS_5,59,5,42,127,384977532
25,4,4,T1_SMS_5,60,5,42,127,385476864
25,4,4,T1_SMS_5,61,1,48,57,385491500
25,4,4,T1_SMS_5,62,1,48,50,385948464
25,4,4,T1_SMS_5,63,5,42,127,385976552
25,4,4,T1_SMS_5,64,1,48,57,386434324
25,4,4,T1_SMS_5,65,5,42,127,386477516
25,4,4,T1_SMS_5,66,1,48,51,386937756
25,4,4,T1_SMS_5,67,5,42,127,386977288
25,4,4,T1_SMS_5,68,1,48,45,387423164
25,4,4,T1_SMS_5,69,5,42,127,387476832
25,4,4,T1_SMS_5,70,1,48,45,387945148
25,4,4,T1_SMS_5,71,5,42,127,387976600
25,4,4,T1_SMS_5,72,1,48,55,388448060
25,4,4,T1_SMS_5,73,5,42,127,388477268
25,4,4,T1_SMS_5,74,1,48,40,388924572
25,4,4,T1_SMS_5,75,5,42,127,388977036
25,4,4,T1_SMS_5,76,1,48,44,389442216
25,4,4,T1_SMS_5,77,5,42,127,389476660
25,4,4,T1_SMS_5,78,1,48,59,389944600
25,4,4,T1_SMS_5,79,5,42,127,389976428
25,4,4,T1_SMS_5,80,1,48,48,390438836
25,4,4,T1_SMS_5,81,5,42,127,390477168
25,4,4,T1_SMS_5,82,1,48,47,390955584
25,4,4,T1_SMS_5,83,5,42,127,390977164
25,4,4,T1_SMS_5,84,1,48,45,391465156
25,4,4,T1_SMS_5,85,5,42,127,391476560
25,4,4,T1_SMS_5,86,1,48,52,391953556
25,4,4,T1_SMS_5,87,5,42,127,391977452
25,4,4,T1_SMS_5,88,1,48,45,392446416
25,4,4,T1_SMS_5,89,5,42,127,392477144
25,4,4,T1_SMS_5,90,1,48,43,392951948
25,4,4,T1_SMS_5,91,5,42,127,392976912
25,4,4,T1_SMS_5,92,1,48,48,393446480
25,4,4,T1_SMS_5,93,5,42,127,393476584
25,4,4,T1_SMS_5,94,1,48,43,393953952
25,4,4,T1_SMS_5,95,5,42,127,393977176
25,4,4,T1_SMS_5,96,1,48,50,394427992
25,4,4,T1_SMS_5,97,5,42,127,394477168
25,4,4,T1_SMS_5,98,1,48,40,394936136
25,4,4,T1_SMS_5,99,5,42,127,394976716
25,4,4,T1_SMS_5,100,1,48,48,395424760
25,4,4,T1_SMS_5,101,5,42,127,395477232
25,4,4,T1_SMS_5,102,1,48,51,395927080
25,4,4,T1_SMS_5,103,5,42,127,395976928
25,4,4,T1_SMS_5,104,1,48,49,396421012
25,4,4,T1_SMS_5,105,5,42,127,396476848
25,4,4,T1_SMS_5,106,1,48,56,396922204
25,4,4,T1_SMS_5,107,5,42,127,396976472
25,4,4,T1_SMS_5,108,1,48,53,397429008
25,4,4,T1_SMS_5,109,5,42,127,397477212
25,4,4,T1_SMS_5,110,1,48,53,397930572
25,4,4,T1_SMS_5,111,5,42,127,397977056
25,4,4,T1_SMS_5,112,1,48,55,398438868
25,4,4,T1_SMS_5,113,5,42,127,398476748
25,4,4,T1_SMS_5,114,1,48,55,398935196
25,4,4,T1_SMS_5,115,5,42,127,398977640
25,4,4,T1_SMS_5,116,1,48,51,399441324
25,4,4,T1_SMS_5,117,5,42,127,399477036
25,4,4,T1_SMS_5,118,1,48,54,399952756
25,4,4,T1_SMS_5,119,5,42,127,399976732
25,4,4,T1_SMS_5,120,1,48,52,400452680
25,4,4,T1_SMS_5,121,5,42,127,400476800
25,4,4,T1_SMS_5,122,1,48,54,400942576
25,4,4,T1_SMS_5,123,5,42,127,400977168
25,4,4,T1_SMS_5,124,1,48,47,401451324
25,4,4,T1_SMS_5,125,5,42,127,401476940
25,4,4,T1_SMS_5,126,1,48,61,401940392
25,4,4,T1_SMS_5,127,5,42,127,401976780
25,4,4,T1_SMS_5,128,1,48,57,402444948
25,4,4,T1_SMS_5,129,5,42,127,402477672
25,4,4,T1_SMS_5,130,1,48,50,402949108
25,4,4,T1_SMS_5,131,5,42,127,402977120
25,4,4,T1_SMS_5,132,1,48,51,403449824
25,4,4,T1_SMS_5,133,5,42,127,403476812
25,4,4,T1_SMS_5,134,1,48,52,403935832
25,4,4,T1_SMS_5,135,5,42,127,403976656
25,4,4,T1_SMS_5,136,1,48,52,404437100
25,4,4,T1_SMS_5,137,5,42,127,404477372
25,4,4,T1_SMS_5,138,1,48,50,404940456
25,4,4,T1_SMS_5,139,5,42,127,404977068
25,4,4,T1_SMS_5,140,1,48,46,405415616
25,4,4,T1_SMS_5,141,5,42,127,405476688
25,4,4,T1_SMS_5,142,1,48,55,405952788
25,4,4,T1_SMS_5,143,5,42,127,405976532
25,4,4,T1_SMS_5,144,1,48,58,406461156
25,4,4,T1_SMS_5,145,5,42,127,406477272
25,4,4,T1_SMS_5,146,1,48,59,406945820
25,4,4,T1_SMS_5,147,5,42,127,406976968
25,4,4,T1_SMS_5,148,1,48,52,407455432
25,4,4,T1_SMS_5,149,5,42,127,407476564
25,4,4,T1_SMS_5,150,1,48,51,407950716
25,4,4,T1_SMS_5,151,5,42,127,407977380
25,4,4,T1_SMS_5,152,1,48,48,408474268
25,4,4,T1_SMS_5,153,5,42,127,408477072
25,4,4,T1_SMS_5,154,1,48,60,408963272
25,4,4,T1_SMS_5,155,5,42,127,408976696
25,4,4,T1_SMS_5,156,1,48,53,409449580
25,4,4,T1_SMS_5,157,5,42,127,409476464
25,4,4,T1_SMS_5,158,1,48,41,409947848
25,4,4,T1_SMS_5,159,5,42,127,409977204
25,4,4,T1_SMS_5,160,1,48,48,410455172
25,4,4,T1_SMS_5,161,5,42,127,410476824
25,4,4,T1_SMS_5,162,1,48,52,410962720
25,4,4,T1_SMS_5,163,5,42,127,410976596
25,4,4,T1_SMS_5,164,1,48,62,411461892
25,4,4,T1_SMS_5,165,5,42,127,411477336
25,4,4,T1_SMS_5,166,1,48,53,411968844
25,4,4,T1_SMS_5,167,5,42,127,411977328
25,4,4,T1_SMS_5,168,1,48,58,412470484
25,4,4,T1_SMS_5,169,5,42,127,412476652
25,4,4,T1_SMS_5,170,1,48,59,412965536
25,4,4,T1_SMS_5,171,5,42,127,412976496
25,4,4,T1_SMS_5,172,1,48,46,413450200
25,4,4,T1_SMS_5,173,5,42,127,413477236
25,4,4,T1_SMS_5,174,1,48,55,413970092
25,4,4,T1_SMS_5,175,5,42,127,413977084
25,4,4,T1_SMS_5,176,1,48,38,414468040
25,4,4,T1_SMS_5,177,5,42,127,414476680
25,4,4,T1_SMS_5,178,1,48,51,414948416
25,4,4,T1_SMS_5,179,5,42,127,414977320
25,4,4,T1_SMS_5,180,5,42,127,415477172
25,4,4,T1_SMS_5,181,1,48,39,415479844
25,4,4,T1_SMS_5,182,5,42,127,415977012
25,4,4,T1_SMS_5,183,1,48,56,415978804
25,4,4,T1_SMS_5,184,1,48,44,416475040
25,4,4,T1_SMS_5,185,5,42,127,416476924
25,4,4,T1_SMS_5,186,1,48,38,416958036
25,4,4,T1_SMS_5,187,5,42,127,416977144
25,4,4,T1_SMS_5,188,1,48,54,417438136
25,4,4,T1_SMS_5,189,5,42,127,417476916
25,4,4,T1_SMS_5,190,1,48,48,417963632
25,4,4,T1_SMS_5,191,5,42,127,417976536
25,4,4,T1_SMS_5,192,1,48,51,418468860
25,4,4,T1_SMS_5,193,5,42,127,418477500
25,4,4,T1_SMS_5,194,1,48,46,418961300
25,4,4,T1_SMS_5,195,5,42,127,418977120
25,4,4,T1_SMS_5,196,1,48,46,419458604
25,4,4,T1_SMS_5,197,5,42,127,419477040
25,4,4,T1_SMS_5,198,1,48,51,419938704
25,4,4,T1_SMS_5,199,5,42,127,419976440
25,4,4,T1_SMS_5,200,1,48,54,420436748
25,4,4,T1_SMS_5,201,5,42,127,420477180
25,4,4,T1_SMS_5,202,1,48,45,420941684
25,4,4,T1_SMS_5,203,5,42,127,420976952
25,4,4,T1_SMS_5,204,1,48,47,421429712
25,4,4,T1_SMS_5,205,5,42,127,421476796
25,4,4,T1_SMS_5,206,1,48,53,421937488
25,4,4,T1_SMS_5,207,5,42,127,421976712
25,4,4,T1_SMS_5,208,1,48,50,422469044
25,4,4,T1_SMS_5,209,5,42,127,422477232
25,4,4,T1_SMS_5,210,1,48,49,422957968
25,4,4,T1_SMS_5,211,5,42,127,422976852
25,4,4,T1_SMS_5,212,1,48,51,423454668
25,4,4,T1_SMS_5,213,5,42,127,423476696
25,4,4,T1_SMS_5,214,1,48,48,423957060
25,4,4,T1_SMS_5,215,5,42,127,423977216
25,4,4,T1_SMS_5,216,1,48,48,424464828
25,4,4,T1_SMS_5,217,5,42,127,424477056
25,4,4,T1_SMS_5,218,1,48,48,424950964
25,4,4,T1_SMS_5,219,5,42,127,424976604
25,4,4,T1_SMS_5,220,1,48,47,425458360
25,4,4,T1_SMS_5,221,5,42,127,425476672
25,4,4,T1_SMS_5,222,1,48,50,425930528
25,4,4,T1_SMS_5,223,5,42,127,425977164
25,4,4,T1_SMS_5,224,1,48,47,426436500
25,4,4,T1_SMS_5,225,5,42,127,426476860
25,4,4,T1_SMS_5,226,1,48,53,426932536
25,4,4,T1_SMS_5,227,5,42,127,426976552
25,4,4,T1_SMS_5,228,1,48,50,427456988
25,4,4,T1_SMS_5,229,5,42,127,427477668
25,4,4,T1_SMS_5,230,1,48,56,427952348
25,4,4,T1_SMS_5,231,5,42,127,427977064
25,4,4,T1_SMS_5,232,5,42,127,428476768
25,4,4,T1_SMS_5,233,1,48,50,428492224
25,4,4,T1_SMS_5,234,1,48,49,428948596
25,4,4,T1_SMS_5,235,5,42,127,428976604
25,4,4,T1_SMS_5,236,1,48,48,429450460
25,4,4,T1_SMS_5,237,5,42,127,429477420
25,4,4,T1_SMS_5,238,1,48,46,429961820
25,4,4,T1_SMS_5,239,5,42,127,429976888
25,4,4,T1_SMS_5,240,1,48,47,430468400
25,4,4,T1_SMS_5,241,5,42,127,430476736
25,4,4,T1_SMS_5,242,1,48,49,430955300
25,4,4,T1_SMS_5,243,5,42,127,430977552
25,4,4,T1_SMS_5,244,1,48,51,431465240
25,4,4,T1_SMS_5,245,5,42,127,431477320
25,4,4,T1_SMS_5,246,1,48,54,431946236
25,4,4,T1_SMS_5,247,5,42,127,431976868
25,4,4,T1_SMS_5,248,1,48,54,432466576
25,4,4,T1_SMS_5,249,5,42,127,432476412
25,4,4,T1_SMS_5,250,1,48,57,432964400
25,4,4,T1_SMS_5,251,5,42,127,432977232
25,4,4,T1_SMS_5,252,1,48,51,433452060
25,4,4,T1_SMS_5,0,9999,9999,9999,368474204
25,4,4,T1_SMS_5,1,9999,9999,9999,368974968
25,4,4,T1_SMS_5,2,9999,9999,9999,369474612
25,4,4,T1_SMS_5,3,9999,9999,9999,369974324
25,4,4,T1_SMS_5,4,9999,9999,9999,370475088
25,4,4,T1_SMS_5,5,9999,9999,9999,370974808
25,4,4,T1_SMS_5,6,9999,9999,9999,371474524
25,4,4,T1_SMS_5,7,9999,9999,9999,371974216
25,4,4,T1_SMS_5,8,9999,9999,9999,372474980
25,4,4,T1_SMS_5,9,9999,9999,9999,372974668
25,4,4,T1_SMS_5,10,9999,9999,9999,373474364
25,4,4,T1_SMS_5,11,9999,9999,9999,373974132
25,4,4,T1_SMS_5,12,9999,9999,9999,374474872
25,4,4,T1_SMS_5,13,9999,9999,9999,374974568
25,4,4,T1_SMS_5,14,9999,9999,9999,375474264
25,4,4,T1_SMS_5,15,9999,9999,9999,375975004
25,4,4,T1_SMS_5,16,9999,9999,9999,376474700
25,4,4,T1_SMS_5,17,9999,9999,9999,376974392
25,4,4,T1_SMS_5,18,9999,9999,9999,377474164
25,4,4,T1_SMS_5,19,9999,9999,9999,377974904
25,4,4,T1_SMS_5,20,9999,9999,9999,378474600
25,4,4,T1_SMS_5,21,9999,9999,9999,378974296
25,4,4,T1_SMS_5,22,9999,9999,9999,379475040
25,4,4,T1_SMS_5,23,9999,9999,9999,379974732
25,4,4,T1_SMS_5,24,9999,9999,9999,380474428
25,4,4,T1_SMS_5,25,9999,9999,9999,380974196
25,4,4,T1_SMS_5,26,9999,9999,9999,381474932
25,4,4,T1_SMS_5,27,9999,9999,9999,381974628
25,4,4,T1_SMS_5,28,9999,9999,9999,382474324
25,4,4,T1_SMS_5,29,9999,9999,9999,382975040
25,4,4,T1_SMS_5,30,9999,9999,9999,383474736
25,4,4,T1_SMS_5,31,9999,9999,9999,383974508
25,4,4,T1_SMS_5,32,9999,9999,9999,384474200
25,4,4,T1_SMS_5,33,9999,9999,9999,384974944
25,4,4,T1_SMS_5,34,9999,9999,9999,385474648
25,4,4,T1_SMS_5,35,9999,9999,9999,385974336
25,4,4,T1_SMS_5,36,9999,9999,9999,386475076
25,4,4,T1_SMS_5,37,9999,9999,9999,386974772
25,4,4,T1_SMS_5,38,9999,9999,9999,387474540
25,4,4,T1_SMS_5,39,9999,9999,9999,387974236
25,4,4,T1_SMS_5,40,9999,9999,9999,388474976
25,4,4,T1_SMS_5,41,9999,9999,9999,388974672
25,4,4,T1_SMS_5,42,9999,9999,9999,389474368
25,4,4,T1_SMS_5,43,9999,9999,9999,389974136
25,4,4,T1_SMS_5,44,9999,9999,9999,390474804
25,4,4,T1_SMS_5,45,9999,9999,9999,390974576
25,4,4,T1_SMS_5,46,9999,9999,9999,391474272
25,4,4,T1_SMS_5,47,9999,9999,9999,391975012
25,4,4,T1_SMS_5,48,9999,9999,9999,392474708
25,4,4,T1_SMS_5,49,9999,9999,9999,392974400
25,4,4,T1_SMS_5,50,9999,9999,9999,393474144
25,4,4,T1_SMS_5,51,9999,9999,9999,393974888
25,4,4,T1_SMS_5,52,9999,9999,9999,394474580
25,4,4,T1_SMS_5,53,9999,9999,9999,394974276
25,4,4,T1_SMS_5,54,9999,9999,9999,395475016
25,4,4,T1_SMS_5,55,9999,9999,9999,395974712
25,4,4,T1_SMS_5,56,9999,9999,9999,396474484
25,4,4,T1_SMS_5,57,9999,9999,9999,396974180
25,4,4,T1_SMS_5,58,9999,9999,9999,397474920
25,4,4,T1_SMS_5,59,9999,9999,9999,397974616
25,4,4,T1_SMS_5,60,9999,9999,9999,398474312
25,4,4,T1_SMS_5,61,9999,9999,9999,398975052
25,4,4,T1_SMS_5,62,9999,9999,9999,399474748
25,4,4,T1_SMS_5,63,9999,9999,9999,399974516
25,4,4,T1_SMS_5,64,9999,9999,9999,400474212
25,4,4,T1_SMS_5,65,9999,9999,9999,400974952
25,4,4,T1_SMS_5,66,9999,9999,9999,401474648
25,4,4,T1_SMS_5,67,9999,9999,9999,401974344
25,4,4,T1_SMS_5,68,9999,9999,9999,402475084
25,4,4,T1_SMS_5,69,9999,9999,9999,402974832
25,4,4,T1_SMS_5,70,9999,9999,9999,403474524
25,4,4,T1_SMS_5,71,9999,9999,9999,403974220
25,4,4,T1_SMS_5,72,9999,9999,9999,404474932
25,4,4,T1_SMS_5,73,9999,9999,9999,404974704
25,4,4,T1_SMS_5,74,9999,9999,9999,405474400
25,4,4,T1_SMS_5,75,9999,9999,9999,405974092
25,4,4,T1_SMS_5,76,9999,9999,9999,406474836
25,4,4,T1_SMS_5,77,9999,9999,9999,406974528
25,4,4,T1_SMS_5,78,9999,9999,9999,407474272
25,4,4,T1_SMS_5,79,9999,9999,9999,407975016
25,4,4,T1_SMS_5,80,9999,9999,9999,408474708
25,4,4,T1_SMS_5,81,9999,9999,9999,408974404
25,4,4,T1_SMS_5,82,9999,9999,9999,409474100
25,4,4,T1_SMS_5,83,9999,9999,9999,409974840
25,4,4,T1_SMS_5,84,9999,9999,9999,410474608
25,4,4,T1_SMS_5,85,9999,9999,9999,410974304
25,4,4,T1_SMS_5,86,9999,9999,9999,411475044
25,4,4,T1_SMS_5,87,9999,9999,9999,411974740
25,4,4,T1_SMS_5,88,9999,9999,9999,412474436
25,4,4,T1_SMS_5,89,9999,9999,9999,412974132
25,4,4,T1_SMS_5,90,9999,9999,9999,413474872
25,4,4,T1_SMS_5,91,9999,9999,9999,413974644
25,4,4,T1_SMS_5,92,9999,9999,9999,414474312
25,4,4,T1_SMS_5,93,9999,9999,9999,414975032
25,4,4,T1_SMS_5,94,9999,9999,9999,415474804
25,4,4,T1_SMS_5,95,9999,9999,9999,415974500
25,4,4,T1_SMS_5,96,9999,9999,9999,416474196
25,4,4,T1_SMS_5,97,9999,9999,9999,416974928
25,4,4,T1_SMS_5,98,9999,9999,9999,417474624
25,4,4,T1_SMS_5,99,9999,9999,9999,417974320
25,4,4,T1_SMS_5,100,9999,9999,9999,418475064
25,4,4,T1_SMS_5,101,9999,9999,9999,418974832
25,4,4,T1_SMS_5,102,9999,9999,9999,419474528
25,4,4,T1_SMS_5,103,9999,9999,9999,419974224
25,4,4,T1_SMS_5,104,9999,9999,9999,420474964
25,4,4,T1_SMS_5,105,9999,9999,9999,420974660
25,4,4,T1_SMS_5,106,9999,9999,9999,421474356
25,4,4,T1_SMS_5,107,9999,9999,9999,421974128
25,4,4,T1_SMS_5,108,9999,9999,9999,422474868
25,4,4,T1_SMS_5,109,9999,9999,9999,422974564
25,4,4,T1_SMS_5,110,9999,9999,9999,423474260
25,4,4,T1_SMS_5,111,9999,9999,9999,423975000
25,4,4,T1_SMS_5,112,9999,9999,9999,424474692
25,4,4,T1_SMS_5,113,9999,9999,9999,424974388
25,4,4,T1_SMS_5,114,9999,9999,9999,425474132
25,4,4,T1_SMS_5,115,9999,9999,9999,425974872
25,4,4,T1_SMS_5,116,9999,9999,9999,426474568
25,4,4,T1_SMS_5,117,9999,9999,9999,426974264
25,4,4,T1_SMS_5,118,9999,9999,9999,427475004
25,4,4,T1_SMS_5,119,9999,9999,9999,427974776
25,4,4,T1_SMS_5,120,9999,9999,9999,428474476
25,4,4,T1_SMS_5,121,9999,9999,9999,428974164
25,4,4,T1_SMS_5,122,9999,9999,9999,429474904
25,4,4,T1_SMS_5,123,9999,9999,9999,429974600
25,4,4,T1_SMS_5,124,9999,9999,9999,430474296
25,4,4,T1_SMS_5,125,9999,9999,9999,430975036
25,4,4,T1_SMS_5,126,9999,9999,9999,431474804
25,4,4,T1_SMS_5,127,9999,9999,9999,431974504
25,4,4,T1_SMS_5,128,9999,9999,9999,432474196
25,4,4,T1_SMS_5,129,9999,9999,9999,432974940
25,5,9,Ticks_ISO_T2_8,0,5,42,127,448158956
25,5,9,Ticks_ISO_T2_8,1,5,42,127,448958932
25,5,9,Ticks_ISO_T2_8,2,5,42,127,449758764
25,5,9,Ticks_ISO_T2_8,3,5,42,127,450559568
25,5,9,Ticks_ISO_T2_8,4,1,48,55,451332156
25,5,9,Ticks_ISO_T2_8,5,5,42,127,451359040
25,5,9,Ticks_ISO_T2_8,6,1,48,47,452106460
25,5,9,Ticks_ISO_T2_8,7,5,42,127,452158924
25,5,9,Ticks_ISO_T2_8,8,1,48,50,452931844
25,5,9,Ticks_ISO_T2_8,9,5,42,127,452958508
25,5,9,Ticks_ISO_T2_8,10,5,42,127,453759444
25,5,9,Ticks_ISO_T2_8,11,1,48,55,453767576
25,5,9,Ticks_ISO_T2_8,12,5,42,127,454559028
25,5,9,Ticks_ISO_T2_8,13,1,48,49,454571720
25,5,9,Ticks_ISO_T2_8,14,1,48,49,455329928
25,5,9,Ticks_ISO_T2_8,15,5,42,127,455358684
25,5,9,Ticks_ISO_T2_8,16,5,42,127,456158572
25,5,9,Ticks_ISO_T2_8,17,5,42,127,456959300
25,5,9,Ticks_ISO_T2_8,18,1,48,38,457708496
25,5,9,Ticks_ISO_T2_8,19,5,42,127,457759416
25,5,9,Ticks_ISO_T2_8,20,1,48,38,458484824
25,5,9,Ticks_ISO_T2_8,21,5,42,127,458558780
25,5,9,Ticks_ISO_T2_8,22,1,48,43,459313072
25,5,9,Ticks_ISO_T2_8,23,5,42,127,459358512
25,5,9,Ticks_ISO_T2_8,24,1,48,35,460135624
25,5,9,Ticks_ISO_T2_8,25,5,42,127,460159292
25,5,9,Ticks_ISO_T2_8,26,1,48,48,460914788
25,5,9,Ticks_ISO_T2_8,27,5,42,127,460959172
25,5,9,Ticks_ISO_T2_8,28,1,48,41,461750500
25,5,9,Ticks_ISO_T2_8,29,5,42,127,461758836
25,5,9,Ticks_ISO_T2_8,30,1,48,57,462536020
25,5,9,Ticks_ISO_T2_8,31,5,42,127,462558716
25,5,9,Ticks_ISO_T2_8,32,5,42,127,463359208
25,5,9,Ticks_ISO_T2_8,33,1,48,41,463365564
25,5,9,Ticks_ISO_T2_8,34,1,48,48,464142244
25,5,9,Ticks_ISO_T2_8,35,5,42,127,464159108
25,5,9,Ticks_ISO_T2_8,36,1,48,45,464941900
25,5,9,Ticks_ISO_T2_8,37,5,42,127,464958844
25,5,9,Ticks_ISO_T2_8,38,1,48,43,465711720
25,5,9,Ticks_ISO_T2_8,39,5,42,127,465758428
25,5,9,Ticks_ISO_T2_8,40,1,48,50,466542344
25,5,9,Ticks_ISO_T2_8,41,5,42,127,466559284
25,5,9,Ticks_ISO_T2_8,42,1,48,51,467335116
25,5,9,Ticks_ISO_T2_8,43,5,42,127,467359016
25,5,9,Ticks_ISO_T2_8,44,5,42,127,468158904
25,5,9,Ticks_ISO_T2_8,45,1,48,47,468161424
25,5,9,Ticks_ISO_T2_8,46,5,42,127,468958712
25,5,9,Ticks_ISO_T2_8,47,1,48,41,468967216
25,5,9,Ticks_ISO_T2_8,48,5,42,127,469759268
25,5,9,Ticks_ISO_T2_8,49,1,48,30,469818136
25,5,9,Ticks_ISO_T2_8,50,5,42,127,470559100
25,5,9,Ticks_ISO_T2_8,51,1,48,48,470580096
25,5,9,Ticks_ISO_T2_8,52,5,42,127,471358760
25,5,9,Ticks_ISO_T2_8,53,1,48,48,471386564
25,5,9,Ticks_ISO_T2_8,54,1,48,45,472106692
25,5,9,Ticks_ISO_T2_8,55,5,42,127,472158564
25,5,9,Ticks_ISO_T2_8,56,5,42,127,472959496
25,5,9,Ticks_ISO_T2_8,57,1,48,45,472977876
25,5,9,Ticks_ISO_T2_8,58,1,48,45,473733164
25,5,9,Ticks_ISO_T2_8,59,5,42,127,473759076
25,5,9,Ticks_ISO_T2_8,60,1,48,41,474501256
25,5,9,Ticks_ISO_T2_8,61,5,42,127,474558736
25,5,9,Ticks_ISO_T2_8,62,5,42,127,475358476
25,5,9,Ticks_ISO_T2_8,63,1,48,45,475397744
25,5,9,Ticks_ISO_T2_8,64,1,48,37,476074468
25,5,9,Ticks_ISO_T2_8,65,5,42,127,476159864
25,5,9,Ticks_ISO_T2_8,66,5,42,127,476959232
25,5,9,Ticks_ISO_T2_8,67,5,42,127,477758764
25,5,9,Ticks_ISO_T2_8,68,1,48,51,477795164
25,5,9,Ticks_ISO_T2_8,69,1,48,43,478555908
25,5,9,Ticks_ISO_T2_8,70,5,42,127,478558564
25,5,9,Ticks_ISO_T2_8,71,5,42,127,479359424
25,5,9,Ticks_ISO_T2_8,72,1,48,42,479363960
25,5,9,Ticks_ISO_T2_8,73,1,48,43,480120148
25,5,9,Ticks_ISO_T2_8,74,5,42,127,480159224
25,5,9,Ticks_ISO_T2_8,75,1,48,31,480947856
25,5,9,Ticks_ISO_T2_8,76,5,42,127,480958736
25,5,9,Ticks_ISO_T2_8,77,5,42,127,481758548
25,5,9,Ticks_ISO_T2_8,78,1,48,44,481772212
25,5,9,Ticks_ISO_T2_8,79,1,48,43,482558576
25,5,9,Ticks_ISO_T2_8,80,5,42,127,482560444
25,5,9,Ticks_ISO_T2_8,81,1,48,40,483346300
25,5,9,Ticks_ISO_T2_8,82,5,42,127,483359128
25,5,9,Ticks_ISO_T2_8,83,1,48,53,484134520
25,5,9,Ticks_ISO_T2_8,84,5,42,127,484158864
25,5,9,Ticks_ISO_T2_8,85,1,48,46,484900972
25,5,9,Ticks_ISO_T2_8,86,5,42,127,484958524
25,5,9,Ticks_ISO_T2_8,87,5,42,127,485759312
25,5,9,Ticks_ISO_T2_8,88,5,42,127,486559068
25,5,9,Ticks_ISO_T2_8,89,1,48,35,486596896
25,5,9,Ticks_ISO_T2_8,90,1,48,43,487291144
25,5,9,Ticks_ISO_T2_8,91,5,42,127,487358944
25,5,9,Ticks_ISO_T2_8,92,5,42,127,488158536
25,5,9,Ticks_ISO_T2_8,93,1,48,26,488234752
25,5,9,Ticks_ISO_T2_8,94,1,48,31,488920824
25,5,9,Ticks_ISO_T2_8,95,5,42,127,488959256
25,5,9,Ticks_ISO_T2_8,96,5,42,127,489759072
25,5,9,Ticks_ISO_T2_8,97,1,48,45,489798696
25,5,9,Ticks_ISO_T2_8,98,1,48,51,490543052
25,5,9,Ticks_ISO_T2_8,99,5,42,127,490558800
25,5,9,Ticks_ISO_T2_8,100,1,48,42,491330972
25,5,9,Ticks_ISO_T2_8,101,5,42,127,491358828
25,5,9,Ticks_ISO_T2_8,102,5,42,127,492159468
25,5,9,Ticks_ISO_T2_8,103,1,48,38,492178968
25,5,9,Ticks_ISO_T2_8,104,5,42,127,492959200
25,5,9,Ticks_ISO_T2_8,105,1,48,40,492967704
25,5,9,Ticks_ISO_T2_8,106,5,42,127,493758708
25,5,9,Ticks_ISO_T2_8,107,1,48,40,493771324
25,5,9,Ticks_ISO_T2_8,108,1,48,43,494521148
25,5,9,Ticks_ISO_T2_8,109,5,42,127,494558660
25,5,9,Ticks_ISO_T2_8,110,5,42,127,495359248
25,5,9,Ticks_ISO_T2_8,111,1,48,53,495399908
25,5,9,Ticks_ISO_T2_8,112,1,48,38,496150336
25,5,9,Ticks_ISO_T2_8,113,5,42,127,496158976
25,5,9,Ticks_ISO_T2_8,114,1,48,41,496934660
25,5,9,Ticks_ISO_T2_8,115,5,42,127,496958784
25,5,9,Ticks_ISO_T2_8,116,1,48,54,497744044
25,5,9,Ticks_ISO_T2_8,117,5,42,127,497758440
25,5,9,Ticks_ISO_T2_8,118,5,42,127,498559452
25,5,9,Ticks_ISO_T2_8,119,1,48,57,498568336
25,5,9,Ticks_ISO_T2_8,120,5,42,127,499359036
25,5,9,Ticks_ISO_T2_8,121,1,48,50,499420424
25,5,9,Ticks_ISO_T2_8,122,1,48,39,500141452
25,5,9,Ticks_ISO_T2_8,123,5,42,127,500158688
25,5,9,Ticks_ISO_T2_8,124,5,42,127,500958504
25,5,9,Ticks_ISO_T2_8,125,1,48,39,500965204
25,5,9,Ticks_ISO_T2_8,126,1,48,44,501753552
25,5,9,Ticks_ISO_T2_8,127,5,42,127,501759448
25,5,9,Ticks_ISO_T2_8,128,1,48,36,502555480
25,5,9,Ticks_ISO_T2_8,129,5,42,127,502559256
25,5,9,Ticks_ISO_T2_8,130,1,48,43,503342128
25,5,9,Ticks_ISO_T2_8,131,5,42,127,503358840
25,5,9,Ticks_ISO_T2_8,132,5,42,127,504158580
25,5,9,Ticks_ISO_T2_8,133,1,48,46,504173888
25,5,9,Ticks_ISO_T2_8,134,1,48,57,504952360
25,5,9,Ticks_ISO_T2_8,135,5,42,127,504959352
25,5,9,Ticks_ISO_T2_8,136,1,48,52,505757576
25,5,9,Ticks_ISO_T2_8,137,5,42,127,505759456
25,5,9,Ticks_ISO_T2_8,138,1,48,46,506533800
25,5,9,Ticks_ISO_T2_8,139,5,42,127,506559116
25,5,9,Ticks_ISO_T2_8,140,1,48,45,507342436
25,5,9,Ticks_ISO_T2_8,141,5,42,127,507358552
25,5,9,Ticks_ISO_T2_8,142,1,48,48,508144412
25,5,9,Ticks_ISO_T2_8,143,5,42,127,508159284
25,5,9,Ticks_ISO_T2_8,144,1,48,40,508956064
25,5,9,Ticks_ISO_T2_8,145,5,42,127,508959092
25,5,9,Ticks_ISO_T2_8,146,1,48,52,509737548
25,5,9,Ticks_ISO_T2_8,147,5,42,127,509759120
25,5,9,Ticks_ISO_T2_8,148,5,42,127,510558640
25,5,9,Ticks_ISO_T2_8,149,1,48,46,510574392
25,5,9,Ticks_ISO_T2_8,150,5,42,127,511359416
25,5,9,Ticks_ISO_T2_8,151,1,48,49,511415344
25,5,9,Ticks_ISO_T2_8,152,1,48,40,512157184
25,5,9,Ticks_ISO_T2_8,153,5,42,127,512158996
25,5,9,Ticks_ISO_T2_8,154,1,48,51,512934828
25,5,9,Ticks_ISO_T2_8,155,5,42,127,512958728
25,5,9,Ticks_ISO_T2_8,156,1,48,48,513729252
25,5,9,Ticks_ISO_T2_8,157,5,42,127,513758756
25,5,9,Ticks_ISO_T2_8,158,1,48,49,514505800
25,5,9,Ticks_ISO_T2_8,159,5,42,127,514559412
25,5,9,Ticks_ISO_T2_8,160,5,42,127,515359004
25,5,9,Ticks_ISO_T2_8,161,1,48,46,515405952
25,5,9,Ticks_ISO_T2_8,162,5,42,127,516158812
25,5,9,Ticks_ISO_T2_8,163,1,48,41,516179656
25,5,9,Ticks_ISO_T2_8,164,1,48,32,516943920
25,5,9,Ticks_ISO_T2_8,165,5,42,127,516958836
25,5,9,Ticks_ISO_T2_8,166,1,48,41,517744700
25,5,9,Ticks_ISO_T2_8,167,5,42,127,517759692
25,5,9,Ticks_ISO_T2_8,168,5,42,127,518559136
25,5,9,Ticks_ISO_T2_8,169,1,48,44,518602944
25,5,9,Ticks_ISO_T2_8,170,1,48,48,519320684
25,5,9,Ticks_ISO_T2_8,171,5,42,127,519358936
25,5,9,Ticks_ISO_T2_8,172,1,48,43,520152280
25,5,9,Ticks_ISO_T2_8,173,5,42,127,520158744
25,5,9,Ticks_ISO_T2_8,174,1,48,48,520896812
25,5,9,Ticks_ISO_T2_8,175,5,42,127,520959472
25,5,9,Ticks_ISO_T2_8,176,5,42,127,521759064
25,5,9,Ticks_ISO_T2_8,177,5,42,127,522558820
25,5,9,Ticks_ISO_T2_8,178,1,48,43,522619756
25,5,9,Ticks_ISO_T2_8,179,5,42,127,523358700
25,5,9,Ticks_ISO_T2_8,180,1,48,51,523437516
25,5,9,Ticks_ISO_T2_8,181,5,42,127,524159404
25,5,9,Ticks_ISO_T2_8,182,1,48,49,524204336
25,5,9,Ticks_ISO_T2_8,183,5,42,127,524959288
25,5,9,Ticks_ISO_T2_8,184,1,48,50,524999060
25,5,9,Ticks_ISO_T2_8,185,5,42,127,525758800
25,5,9,Ticks_ISO_T2_8,186,1,48,52,525808068
25,5,9,Ticks_ISO_T2_8,187,1,48,40,526536572
25,5,9,Ticks_ISO_T2_8,188,5,42,127,526558452
25,5,9,Ticks_ISO_T2_8,189,5,42,127,527359412
25,5,9,Ticks_ISO_T2_8,190,1,48,42,527403148
25,5,9,Ticks_ISO_T2_8,191,5,42,127,528159372
25,5,9,Ticks_ISO_T2_8,192,1,48,36,528195248
25,5,9,Ticks_ISO_T2_8,193,1,48,43,528923532
25,5,9,Ticks_ISO_T2_8,194,5,42,127,528959024
25,5,9,Ticks_ISO_T2_8,195,5,42,127,529758616
25,5,9,Ticks_ISO_T2_8,196,1,48,47,529782452
25,5,9,Ticks_ISO_T2_8,197,1,48,51,530512084
25,5,9,Ticks_ISO_T2_8,198,5,42,127,530559312
25,5,9,Ticks_ISO_T2_8,199,5,42,127,531359052
25,5,9,Ticks_ISO_T2_8,200,1,48,44,531378256
25,5,9,Ticks_ISO_T2_8,201,5,42,127,532159084
25,5,9,Ticks_ISO_T2_8,202,1,48,53,532169456
25,5,9,Ticks_ISO_T2_8,203,5,42,127,532958444
25,5,9,Ticks_ISO_T2_8,204,1,48,51,532984224
25,5,9,Ticks_ISO_T2_8,205,5,42,127,533759324
25,5,9,Ticks_ISO_T2_8,206,1,48,54,533802532
25,5,9,Ticks_ISO_T2_8,207,5,42,127,534559056
25,5,9,Ticks_ISO_T2_8,208,1,48,47,534602712
25,5,9,Ticks_ISO_T2_8,209,5,42,127,535358936
25,5,9,Ticks_ISO_T2_8,210,1,48,55,535419276
25,5,9,Ticks_ISO_T2_8,211,5,42,127,536158672
25,5,9,Ticks_ISO_T2_8,212,1,48,44,536240024
25,5,9,Ticks_ISO_T2_8,213,5,42,127,536959300
25,5,9,Ticks_ISO_T2_8,214,1,48,44,536991736
25,5,9,Ticks_ISO_T2_8,215,5,42,127,537759108
25,5,9,Ticks_ISO_T2_8,216,1,48,47,537771724
25,5,9,Ticks_ISO_T2_8,217,5,42,127,538558696
25,5,9,Ticks_ISO_T2_8,218,1,48,60,538565852
25,5,9,Ticks_ISO_T2_8,219,1,48,49,539343796
25,5,9,Ticks_ISO_T2_8,220,5,42,127,539358568
25,5,9,Ticks_ISO_T2_8,221,5,42,127,540159604
25,5,9,Ticks_ISO_T2_8,222,1,48,57,540207380
25,5,9,Ticks_ISO_T2_8,223,5,42,127,540958964
25,5,9,Ticks_ISO_T2_8,224,1,48,46,540966716
25,5,9,Ticks_ISO_T2_8,225,1,48,59,541721256
25,5,9,Ticks_ISO_T2_8,226,5,42,127,541758844
25,5,9,Ticks_ISO_T2_8,227,1,48,51,542545748
25,5,9,Ticks_ISO_T2_8,228,5,42,127,542558652
25,5,9,Ticks_ISO_T2_8,229,1,48,51,543314516
25,5,9,Ticks_ISO_T2_8,230,5,42,127,543359504
25,5,9,Ticks_ISO_T2_8,231,1,48,53,544069596
25,5,9,Ticks_ISO_T2_8,0,9999,9999,9999,448156740
25,5,9,Ticks_ISO_T2_8,1,9999,9999,9999,448956496
25,5,9,Ticks_ISO_T2_8,2,9999,9999,9999,449756252
25,5,9,Ticks_ISO_T2_8,3,9999,9999,9999,450556980
25,5,9,Ticks_ISO_T2_8,4,9999,9999,9999,451356752
25,5,9,Ticks_ISO_T2_8,5,9999,9999,9999,452156488
25,5,9,Ticks_ISO_T2_8,6,9999,9999,9999,452956220
25,5,9,Ticks_ISO_T2_8,7,9999,9999,9999,453757008
25,5,9,Ticks_ISO_T2_8,8,9999,9999,9999,454556740
25,5,9,Ticks_ISO_T2_8,9,9999,9999,9999,455356468
25,5,9,Ticks_ISO_T2_8,10,9999,9999,9999,456156208
25,5,9,Ticks_ISO_T2_8,11,9999,9999,9999,456957008
25,5,9,Ticks_ISO_T2_8,12,9999,9999,9999,457756760
25,5,9,Ticks_ISO_T2_8,13,9999,9999,9999,458556492
25,5,9,Ticks_ISO_T2_8,14,9999,9999,9999,459356224
25,5,9,Ticks_ISO_T2_8,15,9999,9999,9999,460157004
25,5,9,Ticks_ISO_T2_8,16,9999,9999,9999,460956736
25,5,9,Ticks_ISO_T2_8,17,9999,9999,9999,461756472
25,5,9,Ticks_ISO_T2_8,18,9999,9999,9999,462556280
25,5,9,Ticks_ISO_T2_8,19,9999,9999,9999,463356992
25,5,9,Ticks_ISO_T2_8,20,9999,9999,9999,464156748
25,5,9,Ticks_ISO_T2_8,21,9999,9999,9999,464956480
25,5,9,Ticks_ISO_T2_8,22,9999,9999,9999,465756216
25,5,9,Ticks_ISO_T2_8,23,9999,9999,9999,466556996
25,5,9,Ticks_ISO_T2_8,24,9999,9999,9999,467356728
25,5,9,Ticks_ISO_T2_8,25,9999,9999,9999,468156468
25,5,9,Ticks_ISO_T2_8,26,9999,9999,9999,468956276
25,5,9,Ticks_ISO_T2_8,27,9999,9999,9999,469756980
25,5,9,Ticks_ISO_T2_8,28,9999,9999,9999,470556740
25,5,9,Ticks_ISO_T2_8,29,9999,9999,9999,471356472
25,5,9,Ticks_ISO_T2_8,30,9999,9999,9999,472156276
25,5,9,Ticks_ISO_T2_8,31,9999,9999,9999,472956988
25,5,9,Ticks_ISO_T2_8,32,9999,9999,9999,473756788
25,5,9,Ticks_ISO_T2_8,33,9999,9999,9999,474556520
25,5,9,Ticks_ISO_T2_8,34,9999,9999,9999,475356260
25,5,9,Ticks_ISO_T2_8,35,9999,9999,9999,476157036
25,5,9,Ticks_ISO_T2_8,36,9999,9999,9999,476956796
25,5,9,Ticks_ISO_T2_8,37,9999,9999,9999,477756476
25,5,9,Ticks_ISO_T2_8,38,9999,9999,9999,478556276
25,5,9,Ticks_ISO_T2_8,39,9999,9999,9999,479356988
25,5,9,Ticks_ISO_T2_8,40,9999,9999,9999,480156788
25,5,9,Ticks_ISO_T2_8,41,9999,9999,9999,480956520
25,5,9,Ticks_ISO_T2_8,42,9999,9999,9999,481756260
25,5,9,Ticks_ISO_T2_8,43,9999,9999,9999,482557040
25,5,9,Ticks_ISO_T2_8,44,9999,9999,9999,483356768
25,5,9,Ticks_ISO_T2_8,45,9999,9999,9999,484156504
25,5,9,Ticks_ISO_T2_8,46,9999,9999,9999,484956236
25,5,9,Ticks_ISO_T2_8,47,9999,9999,9999,485757020
25,5,9,Ticks_ISO_T2_8,48,9999,9999,9999,486556780
25,5,9,Ticks_ISO_T2_8,49,9999,9999,9999,487356504
25,5,9,Ticks_ISO_T2_8,50,9999,9999,9999,488156248
25,5,9,Ticks_ISO_T2_8,51,9999,9999,9999,488957020
25,5,9,Ticks_ISO_T2_8,52,9999,9999,9999,489756784
25,5,9,Ticks_ISO_T2_8,53,9999,9999,9999,490556512
25,5,9,Ticks_ISO_T2_8,54,9999,9999,9999,491356244
25,5,9,Ticks_ISO_T2_8,55,9999,9999,9999,492157028
25,5,9,Ticks_ISO_T2_8,56,9999,9999,9999,492956760
25,5,9,Ticks_ISO_T2_8,57,9999,9999,9999,493756496
25,5,9,Ticks_ISO_T2_8,58,9999,9999,9999,494556220
25,5,9,Ticks_ISO_T2_8,59,9999,9999,9999,495357008
25,5,9,Ticks_ISO_T2_8,60,9999,9999,9999,496156760
25,5,9,Ticks_ISO_T2_8,61,9999,9999,9999,496956496
25,5,9,Ticks_ISO_T2_8,62,9999,9999,9999,497756228
25,5,9,Ticks_ISO_T2_8,63,9999,9999,9999,498557016
25,5,9,Ticks_ISO_T2_8,64,9999,9999,9999,499356748
25,5,9,Ticks_ISO_T2_8,65,9999,9999,9999,500156476
25,5,9,Ticks_ISO_T2_8,66,9999,9999,9999,500956212
25,5,9,Ticks_ISO_T2_8,67,9999,9999,9999,501757012
25,5,9,Ticks_ISO_T2_8,68,9999,9999,9999,502556744
25,5,9,Ticks_ISO_T2_8,69,9999,9999,9999,503356476
25,5,9,Ticks_ISO_T2_8,70,9999,9999,9999,504156216
25,5,9,Ticks_ISO_T2_8,71,9999,9999,9999,504956988
25,5,9,Ticks_ISO_T2_8,72,9999,9999,9999,505756728
25,5,9,Ticks_ISO_T2_8,73,9999,9999,9999,506556532
25,5,9,Ticks_ISO_T2_8,74,9999,9999,9999,507356264
25,5,9,Ticks_ISO_T2_8,75,9999,9999,9999,508156996
25,5,9,Ticks_ISO_T2_8,76,9999,9999,9999,508956728
25,5,9,Ticks_ISO_T2_8,77,9999,9999,9999,509756536
25,5,9,Ticks_ISO_T2_8,78,9999,9999,9999,510556276
25,5,9,Ticks_ISO_T2_8,79,9999,9999,9999,511356980
25,5,9,Ticks_ISO_T2_8,80,9999,9999,9999,512156732
25,5,9,Ticks_ISO_T2_8,81,9999,9999,9999,512956512
25,5,9,Ticks_ISO_T2_8,82,9999,9999,9999,513756248
25,5,9,Ticks_ISO_T2_8,83,9999,9999,9999,514557052
25,5,9,Ticks_ISO_T2_8,84,9999,9999,9999,515356792
25,5,9,Ticks_ISO_T2_8,85,9999,9999,9999,516156524
25,5,9,Ticks_ISO_T2_8,86,9999,9999,9999,516956252
25,5,9,Ticks_ISO_T2_8,87,9999,9999,9999,517757032
25,5,9,Ticks_ISO_T2_8,88,9999,9999,9999,518556772
25,5,9,Ticks_ISO_T2_8,89,9999,9999,9999,519356500
25,5,9,Ticks_ISO_T2_8,90,9999,9999,9999,520156232
25,5,9,Ticks_ISO_T2_8,91,9999,9999,9999,520957036
25,5,9,Ticks_ISO_T2_8,92,9999,9999,9999,521756776
25,5,9,Ticks_ISO_T2_8,93,9999,9999,9999,522556532
25,5,9,Ticks_ISO_T2_8,94,9999,9999,9999,523356264
25,5,9,Ticks_ISO_T2_8,95,9999,9999,9999,524157044
25,5,9,Ticks_ISO_T2_8,96,9999,9999,9999,524956776
25,5,9,Ticks_ISO_T2_8,97,9999,9999,9999,525756512
25,5,9,Ticks_ISO_T2_8,98,9999,9999,9999,526556236
25,5,9,Ticks_ISO_T2_8,99,9999,9999,9999,527357048
25,5,9,Ticks_ISO_T2_8,100,9999,9999,9999,528156784
25,5,9,Ticks_ISO_T2_8,101,9999,9999,9999,528956512
25,5,9,Ticks_ISO_T2_8,102,9999,9999,9999,529756252
25,5,9,Ticks_ISO_T2_8,103,9999,9999,9999,530557028
25,5,9,Ticks_ISO_T2_8,104,9999,9999,9999,531356764
25,5,9,Ticks_ISO_T2_8,105,9999,9999,9999,532156496
25,5,9,Ticks_ISO_T2_8,106,9999,9999,9999,532956228
25,5,9,Ticks_ISO_T2_8,107,9999,9999,9999,533757036
25,5,9,Ticks_ISO_T2_8,108,9999,9999,9999,534556768
25,5,9,Ticks_ISO_T2_8,109,9999,9999,9999,535356500
25,5,9,Ticks_ISO_T2_8,110,9999,9999,9999,536156236
25,5,9,Ticks_ISO_T2_8,111,9999,9999,9999,536957012
25,5,9,Ticks_ISO_T2_8,112,9999,9999,9999,537756748
25,5,9,Ticks_ISO_T2_8,113,9999,9999,9999,538556480
25,5,9,Ticks_ISO_T2_8,114,9999,9999,9999,539356280
25,5,9,Ticks_ISO_T2_8,115,9999,9999,9999,540157016
25,5,9,Ticks_ISO_T2_8,116,9999,9999,9999,540956752
25,5,9,Ticks_ISO_T2_8,117,9999,9999,9999,541756480
25,5,9,Ticks_ISO_T2_8,118,9999,9999,9999,542556216
25,5,9,Ticks_ISO_T2_8,119,9999,9999,9999,543356992
25,6,10,Ticks_ISO_T2_5,0,5,42,127,558171392
25,6,10,Ticks_ISO_T2_5,1,5,42,127,558672308
25,6,10,Ticks_ISO_T2_5,2,5,42,127,559171948
25,6,10,Ticks_ISO_T2_5,3,5,42,127,559671816
25,6,10,Ticks_ISO_T2_5,4,5,42,127,560172356
25,6,10,Ticks_ISO_T2_5,5,5,42,127,560672148
25,6,10,Ticks_ISO_T2_5,6,5,42,127,561171716
25,6,10,Ticks_ISO_T2_5,7,5,42,127,561671804
25,6,10,Ticks_ISO_T2_5,8,5,42,127,562172124
25,6,10,Ticks_ISO_T2_5,9,1,48,49,562190648
25,6,10,Ticks_ISO_T2_5,10,1,48,44,562658284
25,6,10,Ticks_ISO_T2_5,11,5,42,127,562671932
25,6,10,Ticks_ISO_T2_5,12,1,48,43,563161496
25,6,10,Ticks_ISO_T2_5,13,5,42,127,563171552
25,6,10,Ticks_ISO_T2_5,14,1,48,46,563646152
25,6,10,Ticks_ISO_T2_5,15,5,42,127,563672592
25,6,10,Ticks_ISO_T2_5,16,5,42,127,564171996
25,6,10,Ticks_ISO_T2_5,17,1,48,43,564206604
25,6,10,Ticks_ISO_T2_5,18,1,48,35,564671312
25,6,10,Ticks_ISO_T2_5,19,5,42,127,564673028
25,6,10,Ticks_ISO_T2_5,20,1,48,44,565144792
25,6,10,Ticks_ISO_T2_5,21,5,42,127,565171676
25,6,10,Ticks_ISO_T2_5,22,1,48,35,565650892
25,6,10,Ticks_ISO_T2_5,23,5,42,127,565672392
25,6,10,Ticks_ISO_T2_5,24,1,48,38,566145500
25,6,10,Ticks_ISO_T2_5,25,5,42,127,566172012
25,6,10,Ticks_ISO_T2_5,26,1,48,41,566645048
25,6,10,Ticks_ISO_T2_5,27,5,42,127,566671636
25,6,10,Ticks_ISO_T2_5,28,1,48,37,567157532
25,6,10,Ticks_ISO_T2_5,29,5,42,127,567171404
25,6,10,Ticks_ISO_T2_5,30,1,48,43,567659772
25,6,10,Ticks_ISO_T2_5,31,5,42,127,567672368
25,6,10,Ticks_ISO_T2_5,32,1,48,42,568171700
25,6,10,Ticks_ISO_T2_5,33,5,42,127,568173408
25,6,10,Ticks_ISO_T2_5,34,1,48,44,568667012
25,6,10,Ticks_ISO_T2_5,35,5,42,127,568671536
25,6,10,Ticks_ISO_T2_5,36,1,48,43,569154364
25,6,10,Ticks_ISO_T2_5,37,5,42,127,569172276
25,6,10,Ticks_ISO_T2_5,38,1,48,41,569648376
25,6,10,Ticks_ISO_T2_5,39,5,42,127,569672192
25,6,10,Ticks_ISO_T2_5,40,1,48,35,570134756
25,6,10,Ticks_ISO_T2_5,41,5,42,127,570171740
25,6,10,Ticks_ISO_T2_5,42,5,42,127,570671516
25,6,10,Ticks_ISO_T2_5,43,1,48,38,570679944
25,6,10,Ticks_ISO_T2_5,44,5,42,127,571172256
25,6,10,Ticks_ISO_T2_5,45,1,48,32,571181732
25,6,10,Ticks_ISO_T2_5,46,1,48,44,571663760
25,6,10,Ticks_ISO_T2_5,47,5,42,127,571672020
25,6,10,Ticks_ISO_T2_5,48,1,48,48,572168244
25,6,10,Ticks_ISO_T2_5,49,5,42,127,572171640
25,6,10,Ticks_ISO_T2_5,50,1,48,45,572654368
25,6,10,Ticks_ISO_T2_5,51,5,42,127,572672308
25,6,10,Ticks_ISO_T2_5,52,1,48,40,573140824
25,6,10,Ticks_ISO_T2_5,53,5,42,127,573172348
25,6,10,Ticks_ISO_T2_5,54,1,48,24,573200392
25,6,10,Ticks_ISO_T2_5,55,1,48,46,573640728
25,6,10,Ticks_ISO_T2_5,56,5,42,127,573671648
25,6,10,Ticks_ISO_T2_5,57,1,48,43,574147076
25,6,10,Ticks_ISO_T2_5,58,5,42,127,574171420
25,6,10,Ticks_ISO_T2_5,59,1,48,40,574666216
25,6,10,Ticks_ISO_T2_5,60,5,42,127,574672236
25,6,10,Ticks_ISO_T2_5,61,1,48,37,575161352
25,6,10,Ticks_ISO_T2_5,62,5,42,127,575171928
25,6,10,Ticks_ISO_T2_5,63,1,48,47,575664188
25,6,10,Ticks_ISO_T2_5,64,5,42,127,575671776
25,6,10,Ticks_ISO_T2_5,65,1,48,44,576164328
25,6,10,Ticks_ISO_T2_5,66,5,42,127,576172292
25,6,10,Ticks_ISO_T2_5,67,1,48,41,576665516
25,6,10,Ticks_ISO_T2_5,68,5,42,127,576672136
25,6,10,Ticks_ISO_T2_5,69,1,48,37,577158188
25,6,10,Ticks_ISO_T2_5,70,5,42,127,577171980
25,6,10,Ticks_ISO_T2_5,71,1,48,47,577634912
25,6,10,Ticks_ISO_T2_5,72,5,42,127,577671524
25,6,10,Ticks_ISO_T2_5,73,5,42,127,578172200
25,6,10,Ticks_ISO_T2_5,74,1,48,46,578183620
25,6,10,Ticks_ISO_T2_5,75,1,48,41,578665416
25,6,10,Ticks_ISO_T2_5,76,5,42,127,578671888
25,6,10,Ticks_ISO_T2_5,77,5,42,127,579172036
25,6,10,Ticks_ISO_T2_5,78,1,48,50,579199688
25,6,10,Ticks_ISO_T2_5,79,5,42,127,579672404
25,6,10,Ticks_ISO_T2_5,80,1,48,36,579680688
25,6,10,Ticks_ISO_T2_5,81,1,48,43,580116560
25,6,10,Ticks_ISO_T2_5,82,5,42,127,580172092
25,6,10,Ticks_ISO_T2_5,83,5,42,127,580671944
25,6,10,Ticks_ISO_T2_5,84,1,48,35,580700200
25,6,10,Ticks_ISO_T2_5,85,5,42,127,581171640
25,6,10,Ticks_ISO_T2_5,86,1,48,48,581183584
25,6,10,Ticks_ISO_T2_5,87,1,48,27,581671024
25,6,10,Ticks_ISO_T2_5,88,5,42,127,581672744
25,6,10,Ticks_ISO_T2_5,89,5,42,127,582172076
25,6,10,Ticks_ISO_T2_5,90,1,48,35,582182076
25,6,10,Ticks_ISO_T2_5,91,1,48,50,582658640
25,6,10,Ticks_ISO_T2_5,92,5,42,127,582671764
25,6,10,Ticks_ISO_T2_5,93,1,48,48,583171164
25,6,10,Ticks_ISO_T2_5,94,5,42,127,583172876
25,6,10,Ticks_ISO_T2_5,95,1,48,45,583640796
25,6,10,Ticks_ISO_T2_5,96,5,42,127,583672272
25,6,10,Ticks_ISO_T2_5,97,5,42,127,584171876
25,6,10,Ticks_ISO_T2_5,98,1,48,40,584198284
25,6,10,Ticks_ISO_T2_5,99,5,42,127,584671496
25,6,10,Ticks_ISO_T2_5,100,1,48,44,584719520
25,6,10,Ticks_ISO_T2_5,101,1,48,39,585149608
25,6,10,Ticks_ISO_T2_5,102,5,42,127,585172452
25,6,10,Ticks_ISO_T2_5,103,5,42,127,585672004
25,6,10,Ticks_ISO_T2_5,104,1,48,40,585704068
25,6,10,Ticks_ISO_T2_5,105,5,42,127,586171700
25,6,10,Ticks_ISO_T2_5,106,1,48,41,586188652
25,6,10,Ticks_ISO_T2_5,107,5,42,127,586671616
25,6,10,Ticks_ISO_T2_5,108,1,48,35,586697928
25,6,10,Ticks_ISO_T2_5,109,5,42,127,587172060
25,6,10,Ticks_ISO_T2_5,110,1,48,18,587215944
25,6,10,Ticks_ISO_T2_5,111,5,42,127,587671980
25,6,10,Ticks_ISO_T2_5,112,1,48,34,587729476
25,6,10,Ticks_ISO_T2_5,113,5,42,127,588171672
25,6,10,Ticks_ISO_T2_5,114,1,48,39,588209276
25,6,10,Ticks_ISO_T2_5,115,5,42,127,588672560
25,6,10,Ticks_ISO_T2_5,116,1,48,44,588678228
25,6,10,Ticks_ISO_T2_5,117,1,48,42,589165860
25,6,10,Ticks_ISO_T2_5,118,5,42,127,589172100
25,6,10,Ticks_ISO_T2_5,119,1,48,41,589664508
25,6,10,Ticks_ISO_T2_5,120,5,42,127,589671796
25,6,10,Ticks_ISO_T2_5,121,5,42,127,590171500
25,6,10,Ticks_ISO_T2_5,122,1,48,49,590177836
25,6,10,Ticks_ISO_T2_5,123,5,42,127,590672464
25,6,10,Ticks_ISO_T2_5,124,1,48,30,590694956
25,6,10,Ticks_ISO_T2_5,125,1,48,34,591159104
25,6,10,Ticks_ISO_T2_5,126,5,42,127,591171928
25,6,10,Ticks_ISO_T2_5,127,1,48,35,591659772
25,6,10,Ticks_ISO_T2_5,128,5,42,127,591671624
25,6,10,Ticks_ISO_T2_5,129,5,42,127,592172448
25,6,10,Ticks_ISO_T2_5,130,1,48,42,592181776
25,6,10,Ticks_ISO_T2_5,131,5,42,127,592672216
25,6,10,Ticks_ISO_T2_5,132,1,48,30,592696276
25,6,10,Ticks_ISO_T2_5,133,5,42,127,593171764
25,6,10,Ticks_ISO_T2_5,134,1,48,46,593187300
25,6,10,Ticks_ISO_T2_5,135,5,42,127,593671532
25,6,10,Ticks_ISO_T2_5,136,1,48,44,593750196
25,6,10,Ticks_ISO_T2_5,137,5,42,127,594172196
25,6,10,Ticks_ISO_T2_5,138,1,48,23,594255272
25,6,10,Ticks_ISO_T2_5,139,5,42,127,594672240
25,6,10,Ticks_ISO_T2_5,140,1,48,13,594801720
25,6,10,Ticks_ISO_T2_5,141,5,42,127,595171560
25,6,10,Ticks_ISO_T2_5,142,5,42,127,595672548
25,6,10,Ticks_ISO_T2_5,143,5,42,127,596172192
25,6,10,Ticks_ISO_T2_5,144,5,42,127,596671980
25,6,10,Ticks_ISO_T2_5,145,5,42,127,597171552
25,6,10,Ticks_ISO_T2_5,146,1,48,57,597194040
25,6,10,Ticks_ISO_T2_5,147,5,42,127,597672288
25,6,10,Ticks_ISO_T2_5,148,1,48,48,597722828
25,6,10,Ticks_ISO_T2_5,149,5,42,127,598172208
25,6,10,Ticks_ISO_T2_5,150,1,48,44,598201436
25,6,10,Ticks_ISO_T2_5,151,5,42,127,598671904
25,6,10,Ticks_ISO_T2_5,152,1,48,42,598686612
25,6,10,Ticks_ISO_T2_5,153,1,48,47,599169704
25,6,10,Ticks_ISO_T2_5,154,5,42,127,599171516
25,6,10,Ticks_ISO_T2_5,155,1,48,37,599655768
25,6,10,Ticks_ISO_T2_5,156,5,42,127,599672108
25,6,10,Ticks_ISO_T2_5,157,5,42,127,600171960
25,6,10,Ticks_ISO_T2_5,158,1,48,33,600192952
25,6,10,Ticks_ISO_T2_5,159,1,48,39,600660916
25,6,10,Ticks_ISO_T2_5,160,5,42,127,600671576
25,6,10,Ticks_ISO_T2_5,161,5,42,127,601172248
25,6,10,Ticks_ISO_T2_5,162,1,48,32,601176864
25,6,10,Ticks_ISO_T2_5,163,5,42,127,601672168
25,6,10,Ticks_ISO_T2_5,164,1,48,46,601676856
25,6,10,Ticks_ISO_T2_5,165,5,42,127,602171860
25,6,10,Ticks_ISO_T2_5,166,1,48,43,602188220
25,6,10,Ticks_ISO_T2_5,167,5,42,127,602671408
25,6,10,Ticks_ISO_T2_5,168,1,48,29,602678940
25,6,10,Ticks_ISO_T2_5,169,1,48,47,603136728
25,6,10,Ticks_ISO_T2_5,170,5,42,127,603172140
25,6,10,Ticks_ISO_T2_5,171,5,42,127,603671916
25,6,10,Ticks_ISO_T2_5,172,1,48,49,603673928
25,6,10,Ticks_ISO_T2_5,173,1,48,40,604166936
25,6,10,Ticks_ISO_T2_5,174,5,42,127,604171904
25,6,10,Ticks_ISO_T2_5,175,1,48,40,604665132
25,6,10,Ticks_ISO_T2_5,176,5,42,127,604672420
25,6,10,Ticks_ISO_T2_5,177,5,42,127,605172096
25,6,10,Ticks_ISO_T2_5,178,1,48,48,605179208
25,6,10,Ticks_ISO_T2_5,179,1,48,25,605657316
25,6,10,Ticks_ISO_T2_5,180,5,42,127,605671932
25,6,10,Ticks_ISO_T2_5,181,1,48,47,606157384
25,6,10,Ticks_ISO_T2_5,182,5,42,127,606171628
25,6,10,Ticks_ISO_T2_5,183,1,48,47,606657004
25,6,10,Ticks_ISO_T2_5,184,5,42,127,606672516
25,6,10,Ticks_ISO_T2_5,185,1,48,43,607136952
25,6,10,Ticks_ISO_T2_5,186,5,42,127,607171988
25,6,10,Ticks_ISO_T2_5,187,1,48,43,607654892
25,6,10,Ticks_ISO_T2_5,188,5,42,127,607671608
25,6,10,Ticks_ISO_T2_5,189,1,48,38,608153844
25,6,10,Ticks_ISO_T2_5,190,5,42,127,608172428
25,6,10,Ticks_ISO_T2_5,191,1,48,29,608667004
25,6,10,Ticks_ISO_T2_5,192,5,42,127,608672120
25,6,10,Ticks_ISO_T2_5,193,5,42,127,609171824
25,6,10,Ticks_ISO_T2_5,194,1,48,46,609183468
25,6,10,Ticks_ISO_T2_5,195,5,42,127,609671516
25,6,10,Ticks_ISO_T2_5,196,1,48,48,609694908
25,6,10,Ticks_ISO_T2_5,197,5,42,127,610172408
25,6,10,Ticks_ISO_T2_5,198,1,48,43,610173744
25,6,10,Ticks_ISO_T2_5,199,5,42,127,610671952
25,6,10,Ticks_ISO_T2_5,200,1,48,45,610742764
25,6,10,Ticks_ISO_T2_5,201,5,42,127,611171572
25,6,10,Ticks_ISO_T2_5,202,1,48,17,611263776
25,6,10,Ticks_ISO_T2_5,203,5,42,127,611672388
25,6,10,Ticks_ISO_T2_5,204,5,42,127,612172404
25,6,10,Ticks_ISO_T2_5,205,5,42,127,612671748
25,6,10,Ticks_ISO_T2_5,206,5,42,127,613171684
25,6,10,Ticks_ISO_T2_5,207,5,42,127,613672524
25,6,10,Ticks_ISO_T2_5,208,5,42,127,614171868
25,6,10,Ticks_ISO_T2_5,209,5,42,127,614671584
25,6,10,Ticks_ISO_T2_5,210,1,48,45,615171152
25,6,10,Ticks_ISO_T2_5,211,5,42,127,615172712
25,6,10,Ticks_ISO_T2_5,212,5,42,127,615672264
25,6,10,Ticks_ISO_T2_5,213,1,48,42,615679572
25,6,10,Ticks_ISO_T2_5,214,5,42,127,616171860
25,6,10,Ticks_ISO_T2_5,215,1,48,49,616187496
25,6,10,Ticks_ISO_T2_5,216,5,42,127,616671556
25,6,10,Ticks_ISO_T2_5,217,1,48,39,616675720
25,6,10,Ticks_ISO_T2_5,218,1,48,51,617171164
25,6,10,Ticks_ISO_T2_5,219,5,42,127,617173040
25,6,10,Ticks_ISO_T2_5,220,1,48,48,617655644
25,6,10,Ticks_ISO_T2_5,221,5,42,127,617672208
25,6,10,Ticks_ISO_T2_5,222,5,42,127,618171760
25,6,10,Ticks_ISO_T2_5,223,1,48,40,618174580
25,6,10,Ticks_ISO_T2_5,224,1,48,45,618646428
25,6,10,Ticks_ISO_T2_5,225,5,42,127,618671372
25,6,10,Ticks_ISO_T2_5,226,1,48,42,619152856
25,6,10,Ticks_ISO_T2_5,227,5,42,127,619172116
25,6,10,Ticks_ISO_T2_5,228,1,48,43,619646048
25,6,10,Ticks_ISO_T2_5,229,5,42,127,619672184
25,6,10,Ticks_ISO_T2_5,230,5,42,127,620171812
25,6,10,Ticks_ISO_T2_5,231,1,48,43,620172776
25,6,10,Ticks_ISO_T2_5,232,5,42,127,620672256
25,6,10,Ticks_ISO_T2_5,233,1,48,41,620691828
25,6,10,Ticks_ISO_T2_5,234,5,42,127,621172024
25,6,10,Ticks_ISO_T2_5,235,1,48,47,621176636
25,6,10,Ticks_ISO_T2_5,236,1,48,43,621660460
25,6,10,Ticks_ISO_T2_5,237,5,42,127,621671712
25,6,10,Ticks_ISO_T2_5,238,5,42,127,622171488
25,6,10,Ticks_ISO_T2_5,239,1,48,42,622199440
25,6,10,Ticks_ISO_T2_5,240,5,42,127,622672232
25,6,10,Ticks_ISO_T2_5,241,1,48,47,622708632
25,6,10,Ticks_ISO_T2_5,0,9999,9999,9999,558169180
25,6,10,Ticks_ISO_T2_5,1,9999,9999,9999,558669944
25,6,10,Ticks_ISO_T2_5,2,9999,9999,9999,559169588
25,6,10,Ticks_ISO_T2_5,3,9999,9999,9999,559669304
25,6,10,Ticks_ISO_T2_5,4,9999,9999,9999,560170068
25,6,10,Ticks_ISO_T2_5,5,9999,9999,9999,560669784
25,6,10,Ticks_ISO_T2_5,6,9999,9999,9999,561169504
25,6,10,Ticks_ISO_T2_5,7,9999,9999,9999,561669220
25,6,10,Ticks_ISO_T2_5,8,9999,9999,9999,562169908
25,6,10,Ticks_ISO_T2_5,9,9999,9999,9999,562669648
25,6,10,Ticks_ISO_T2_5,10,9999,9999,9999,563169340
25,6,10,Ticks_ISO_T2_5,11,9999,9999,9999,563670084
25,6,10,Ticks_ISO_T2_5,12,9999,9999,9999,564169784
25,6,10,Ticks_ISO_T2_5,13,9999,9999,9999,564669552
25,6,10,Ticks_ISO_T2_5,14,9999,9999,9999,565169244
25,6,10,Ticks_ISO_T2_5,15,9999,9999,9999,565669960
25,6,10,Ticks_ISO_T2_5,16,9999,9999,9999,566169652
25,6,10,Ticks_ISO_T2_5,17,9999,9999,9999,566669424
25,6,10,Ticks_ISO_T2_5,18,9999,9999,9999,567169116
25,6,10,Ticks_ISO_T2_5,19,9999,9999,9999,567669860
25,6,10,Ticks_ISO_T2_5,20,9999,9999,9999,568169560
25,6,10,Ticks_ISO_T2_5,21,9999,9999,9999,568669248
25,6,10,Ticks_ISO_T2_5,22,9999,9999,9999,569169992
25,6,10,Ticks_ISO_T2_5,23,9999,9999,9999,569669684
25,6,10,Ticks_ISO_T2_5,24,9999,9999,9999,570169456
25,6,10,Ticks_ISO_T2_5,25,9999,9999,9999,570669156
25,6,10,Ticks_ISO_T2_5,26,9999,9999,9999,571169896
25,6,10,Ticks_ISO_T2_5,27,9999,9999,9999,571669584
25,6,10,Ticks_ISO_T2_5,28,9999,9999,9999,572169280
25,6,10,Ticks_ISO_T2_5,29,9999,9999,9999,572670020
25,6,10,Ticks_ISO_T2_5,30,9999,9999,9999,573169764
25,6,10,Ticks_ISO_T2_5,31,9999,9999,9999,573669436
25,6,10,Ticks_ISO_T2_5,32,9999,9999,9999,574169208
25,6,10,Ticks_ISO_T2_5,33,9999,9999,9999,574669872
25,6,10,Ticks_ISO_T2_5,34,9999,9999,9999,575169644
25,6,10,Ticks_ISO_T2_5,35,9999,9999,9999,575669340
25,6,10,Ticks_ISO_T2_5,36,9999,9999,9999,576170080
25,6,10,Ticks_ISO_T2_5,37,9999,9999,9999,576669776
25,6,10,Ticks_ISO_T2_5,38,9999,9999,9999,577169468
25,6,10,Ticks_ISO_T2_5,39,9999,9999,9999,577669236
25,6,10,Ticks_ISO_T2_5,40,9999,9999,9999,578169912
25,6,10,Ticks_ISO_T2_5,41,9999,9999,9999,578669676
25,6,10,Ticks_ISO_T2_5,42,9999,9999,9999,579169376
25,6,10,Ticks_ISO_T2_5,43,9999,9999,9999,579670120
25,6,10,Ticks_ISO_T2_5,44,9999,9999,9999,580169808
25,6,10,Ticks_ISO_T2_5,45,9999,9999,9999,580669508
25,6,10,Ticks_ISO_T2_5,46,9999,9999,9999,581169204
25,6,10,Ticks_ISO_T2_5,47,9999,9999,9999,581669944
25,6,10,Ticks_ISO_T2_5,48,9999,9999,9999,582169712
25,6,10,Ticks_ISO_T2_5,49,9999,9999,9999,582669400
25,6,10,Ticks_ISO_T2_5,50,9999,9999,9999,583169100
25,6,10,Ticks_ISO_T2_5,51,9999,9999,9999,583669812
25,6,10,Ticks_ISO_T2_5,52,9999,9999,9999,584169588
25,6,10,Ticks_ISO_T2_5,53,9999,9999,9999,584669284
25,6,10,Ticks_ISO_T2_5,54,9999,9999,9999,585170016
25,6,10,Ticks_ISO_T2_5,55,9999,9999,9999,585669716
25,6,10,Ticks_ISO_T2_5,56,9999,9999,9999,586169412
25,6,10,Ticks_ISO_T2_5,57,9999,9999,9999,586669108
25,6,10,Ticks_ISO_T2_5,58,9999,9999,9999,587169848
25,6,10,Ticks_ISO_T2_5,59,9999,9999,9999,587669616
25,6,10,Ticks_ISO_T2_5,60,9999,9999,9999,588169312
25,6,10,Ticks_ISO_T2_5,61,9999,9999,9999,588670052
25,6,10,Ticks_ISO_T2_5,62,9999,9999,9999,589169740
25,6,10,Ticks_ISO_T2_5,63,9999,9999,9999,589669436
25,6,10,Ticks_ISO_T2_5,64,9999,9999,9999,590169136
25,6,10,Ticks_ISO_T2_5,65,9999,9999,9999,590669880
25,6,10,Ticks_ISO_T2_5,66,9999,9999,9999,591169640
25,6,10,Ticks_ISO_T2_5,67,9999,9999,9999,591669336
25,6,10,Ticks_ISO_T2_5,68,9999,9999,9999,592170084
25,6,10,Ticks_ISO_T2_5,69,9999,9999,9999,592669780
25,6,10,Ticks_ISO_T2_5,70,9999,9999,9999,593169476
25,6,10,Ticks_ISO_T2_5,71,9999,9999,9999,593669168
25,6,10,Ticks_ISO_T2_5,72,9999,9999,9999,594169912
25,6,10,Ticks_ISO_T2_5,73,9999,9999,9999,594669656
25,6,10,Ticks_ISO_T2_5,74,9999,9999,9999,595169348
25,6,10,Ticks_ISO_T2_5,75,9999,9999,9999,595670112
25,6,10,Ticks_ISO_T2_5,76,9999,9999,9999,596169828
25,6,10,Ticks_ISO_T2_5,77,9999,9999,9999,596669544
25,6,10,Ticks_ISO_T2_5,78,9999,9999,9999,597169264
25,6,10,Ticks_ISO_T2_5,79,9999,9999,9999,597670004
25,6,10,Ticks_ISO_T2_5,80,9999,9999,9999,598169700
25,6,10,Ticks_ISO_T2_5,81,9999,9999,9999,598669392
25,6,10,Ticks_ISO_T2_5,82,9999,9999,9999,599169104
25,6,10,Ticks_ISO_T2_5,83,9999,9999,9999,599669820
25,6,10,Ticks_ISO_T2_5,84,9999,9999,9999,600169524
25,6,10,Ticks_ISO_T2_5,85,9999,9999,9999,600669288
25,6,10,Ticks_ISO_T2_5,86,9999,9999,9999,601170036
25,6,10,Ticks_ISO_T2_5,87,9999,9999,9999,601669732
25,6,10,Ticks_ISO_T2_5,88,9999,9999,9999,602169428
25,6,10,Ticks_ISO_T2_5,89,9999,9999,9999,602669120
25,6,10,Ticks_ISO_T2_5,90,9999,9999,9999,603169856
25,6,10,Ticks_ISO_T2_5,91,9999,9999,9999,603669556
25,6,10,Ticks_ISO_T2_5,92,9999,9999,9999,604169320
25,6,10,Ticks_ISO_T2_5,93,9999,9999,9999,604670060
25,6,10,Ticks_ISO_T2_5,94,9999,9999,9999,605169736
25,6,10,Ticks_ISO_T2_5,95,9999,9999,9999,605669424
25,6,10,Ticks_ISO_T2_5,96,9999,9999,9999,606169192
25,6,10,Ticks_ISO_T2_5,97,9999,9999,9999,606669936
25,6,10,Ticks_ISO_T2_5,98,9999,9999,9999,607169628
25,6,10,Ticks_ISO_T2_5,99,9999,9999,9999,607669324
25,6,10,Ticks_ISO_T2_5,100,9999,9999,9999,608170068
25,6,10,Ticks_ISO_T2_5,101,9999,9999,9999,608669760
25,6,10,Ticks_ISO_T2_5,102,9999,9999,9999,609169464
25,6,10,Ticks_ISO_T2_5,103,9999,9999,9999,609669232
25,6,10,Ticks_ISO_T2_5,104,9999,9999,9999,610169972
25,6,10,Ticks_ISO_T2_5,105,9999,9999,9999,610669668
25,6,10,Ticks_ISO_T2_5,106,9999,9999,9999,611169360
25,6,10,Ticks_ISO_T2_5,107,9999,9999,9999,611670100
25,6,10,Ticks_ISO_T2_5,108,9999,9999,9999,612169816
25,6,10,Ticks_ISO_T2_5,109,9999,9999,9999,612669532
25,6,10,Ticks_ISO_T2_5,110,9999,9999,9999,613169252
25,6,10,Ticks_ISO_T2_5,111,9999,9999,9999,613669940
25,6,10,Ticks_ISO_T2_5,112,9999,9999,9999,614169656
25,6,10,Ticks_ISO_T2_5,113,9999,9999,9999,614669372
25,6,10,Ticks_ISO_T2_5,114,9999,9999,9999,615169088
25,6,10,Ticks_ISO_T2_5,115,9999,9999,9999,615669832
25,6,10,Ticks_ISO_T2_5,116,9999,9999,9999,616169576
25,6,10,Ticks_ISO_T2_5,117,9999,9999,9999,616669268
25,6,10,Ticks_ISO_T2_5,118,9999,9999,9999,617170012
25,6,10,Ticks_ISO_T2_5,119,9999,9999,9999,617669696
25,6,10,Ticks_ISO_T2_5,120,9999,9999,9999,618169400
25,6,10,Ticks_ISO_T2_5,121,9999,9999,9999,618669160
25,6,10,Ticks_ISO_T2_5,122,9999,9999,9999,619169904
25,6,10,Ticks_ISO_T2_5,123,9999,9999,9999,619669600
25,6,10,Ticks_ISO_T2_5,124,9999,9999,9999,620169304
25,6,10,Ticks_ISO_T2_5,125,9999,9999,9999,620670044
25,6,10,Ticks_ISO_T2_5,126,9999,9999,9999,621169736
25,6,10,Ticks_ISO_T2_5,127,9999,9999,9999,621669424
25,6,10,Ticks_ISO_T2_5,128,9999,9999,9999,622169200
25,6,10,Ticks_ISO_T2_5,129,9999,9999,9999,622669944
25,7,22,Ticks_Phase_8,0,5,42,127,638033140
25,7,22,Ticks_Phase_8,1,5,42,127,638833248
25,7,22,Ticks_Phase_8,2,5,42,127,639632612
25,7,22,Ticks_Phase_8,3,5,42,127,640432568
25,7,22,Ticks_Phase_8,4,5,42,127,641233276
25,7,22,Ticks_Phase_8,5,1,48,44,641252428
25,7,22,Ticks_Phase_8,6,5,42,127,642033208
25,7,22,Ticks_Phase_8,7,5,42,127,642832896
25,7,22,Ticks_Phase_8,8,5,42,127,643632480
25,7,22,Ticks_Phase_8,9,1,48,53,644400580
25,7,22,Ticks_Phase_8,10,5,42,127,644433176
25,7,22,Ticks_Phase_8,11,1,48,49,645231840
25,7,22,Ticks_Phase_8,12,5,42,127,645233484
25,7,22,Ticks_Phase_8,13,1,48,35,645985692
25,7,22,Ticks_Phase_8,14,5,42,127,646032900
25,7,22,Ticks_Phase_8,15,5,42,127,646832696
25,7,22,Ticks_Phase_8,16,1,48,29,646881200
25,7,22,Ticks_Phase_8,17,5,42,127,647633228
25,7,22,Ticks_Phase_8,18,1,48,43,647647580
25,7,22,Ticks_Phase_8,19,5,42,127,648433016
25,7,22,Ticks_Phase_8,20,1,48,37,648437208
25,7,22,Ticks_Phase_8,21,1,48,36,649229716
25,7,22,Ticks_Phase_8,22,5,42,127,649232820
25,7,22,Ticks_Phase_8,23,5,42,127,650032612
25,7,22,Ticks_Phase_8,24,1,48,45,650065460
25,7,22,Ticks_Phase_8,25,1,48,44,650805176
25,7,22,Ticks_Phase_8,26,5,42,127,650833140
25,7,22,Ticks_Phase_8,27,5,42,127,651633008
25,7,22,Ticks_Phase_8,28,1,48,39,651634644
25,7,22,Ticks_Phase_8,29,5,42,127,652432720
25,7,22,Ticks_Phase_8,30,1,48,19,652487580
25,7,22,Ticks_Phase_8,31,5,42,127,653232580
25,7,22,Ticks_Phase_8,32,1,48,35,653253076
25,7,22,Ticks_Phase_8,33,1,48,46,654022372
25,7,22,Ticks_Phase_8,34,5,42,127,654033480
25,7,22,Ticks_Phase_8,35,5,42,127,654832900
25,7,22,Ticks_Phase_8,36,1,48,47,654852424
25,7,22,Ticks_Phase_8,37,5,42,127,655632688
25,7,22,Ticks_Phase_8,38,1,48,47,655657596
25,7,22,Ticks_Phase_8,39,5,42,127,656432400
25,7,22,Ticks_Phase_8,40,1,48,43,656466592
25,7,22,Ticks_Phase_8,41,1,48,38,657231792
25,7,22,Ticks_Phase_8,42,5,42,127,657233600
25,7,22,Ticks_Phase_8,43,5,42,127,658033020
25,7,22,Ticks_Phase_8,44,1,48,43,658035032
25,7,22,Ticks_Phase_8,45,5,42,127,658832884
25,7,22,Ticks_Phase_8,46,1,48,47,658856592
25,7,22,Ticks_Phase_8,47,1,48,47,659624996
25,7,22,Ticks_Phase_8,48,5,42,127,659632512
25,7,22,Ticks_Phase_8,49,5,42,127,660433428
25,7,22,Ticks_Phase_8,50,1,48,53,660492668
25,7,22,Ticks_Phase_8,51,5,42,127,661233164
25,7,22,Ticks_Phase_8,52,1,48,51,661236888
25,7,22,Ticks_Phase_8,53,5,42,127,662013404
25,7,22,Ticks_Phase_8,54,1,48,48,662081380
25,7,22,Ticks_Phase_8,55,1,48,43,662801780
25,7,22,Ticks_Phase_8,56,5,42,127,662813112
25,7,22,Ticks_Phase_8,57,1,48,47,663602160
25,7,22,Ticks_Phase_8,58,5,42,127,663612896
25,7,22,Ticks_Phase_8,59,1,48,39,664395728
25,7,22,Ticks_Phase_8,60,5,42,127,664412460
25,7,22,Ticks_Phase_8,61,1,48,51,665185556
25,7,22,Ticks_Phase_8,62,5,42,127,665213144
25,7,22,Ticks_Phase_8,63,5,42,127,666013088
25,7,22,Ticks_Phase_8,64,1,48,49,666028336
25,7,22,Ticks_Phase_8,65,5,42,127,666812948
25,7,22,Ticks_Phase_8,66,1,48,55,666842360
25,7,22,Ticks_Phase_8,67,5,42,127,667612584
25,7,22,Ticks_Phase_8,68,1,48,53,667630676
25,7,22,Ticks_Phase_8,69,5,42,127,668413440
25,7,22,Ticks_Phase_8,70,1,48,49,668455056
25,7,22,Ticks_Phase_8,71,5,42,127,669213080
25,7,22,Ticks_Phase_8,72,1,48,46,669249968
25,7,22,Ticks_Phase_8,73,5,42,127,670012792
25,7,22,Ticks_Phase_8,74,1,48,54,670082784
25,7,22,Ticks_Phase_8,75,5,42,127,670812724
25,7,22,Ticks_Phase_8,76,1,48,47,670844156
25,7,22,Ticks_Phase_8,77,5,42,127,671613260
25,7,22,Ticks_Phase_8,78,1,48,49,671642820
25,7,22,Ticks_Phase_8,79,5,42,127,672412972
25,7,22,Ticks_Phase_8,80,1,48,35,672437880
25,7,22,Ticks_Phase_8,81,1,48,53,673169804
25,7,22,Ticks_Phase_8,82,5,42,127,673212676
25,7,22,Ticks_Phase_8,83,5,42,127,674012616
25,7,22,Ticks_Phase_8,84,1,48,52,674063992
25,7,22,Ticks_Phase_8,85,5,42,127,674813252
25,7,22,Ticks_Phase_8,86,1,48,46,674823112
25,7,22,Ticks_Phase_8,87,5,42,127,675612964
25,7,22,Ticks_Phase_8,88,1,48,56,675644544
25,7,22,Ticks_Phase_8,89,5,42,127,676433344
25,7,22,Ticks_Phase_8,90,1,48,28,676449344
25,7,22,Ticks_Phase_8,91,1,48,44,677187788
25,7,22,Ticks_Phase_8,92,5,42,127,677233124
25,7,22,Ticks_Phase_8,93,1,48,50,678025396
25,7,22,Ticks_Phase_8,94,5,42,127,678032612
25,7,22,Ticks_Phase_8,95,5,42,127,678832480
25,7,22,Ticks_Phase_8,96,1,48,54,678852376
25,7,22,Ticks_Phase_8,97,5,42,127,679633388
25,7,22,Ticks_Phase_8,98,1,48,51,679723108
25,7,22,Ticks_Phase_8,99,5,42,127,680433124
25,7,22,Ticks_Phase_8,100,5,42,127,681232712
25,7,22,Ticks_Phase_8,101,5,42,127,682032516
25,7,22,Ticks_Phase_8,102,1,48,53,682052188
25,7,22,Ticks_Phase_8,103,5,42,127,682833276
25,7,22,Ticks_Phase_8,104,1,48,53,682881116
25,7,22,Ticks_Phase_8,105,1,48,55,683618500
25,7,22,Ticks_Phase_8,106,5,42,127,683633132
25,7,22,Ticks_Phase_8,107,1,48,54,684388324
25,7,22,Ticks_Phase_8,108,5,42,127,684432768
25,7,22,Ticks_Phase_8,109,1,48,54,685220536
25,7,22,Ticks_Phase_8,110,5,42,127,685232556
25,7,22,Ticks_Phase_8,111,5,42,127,686033320
25,7,22,Ticks_Phase_8,112,1,48,58,686100112
25,7,22,Ticks_Phase_8,113,5,42,127,686833060
25,7,22,Ticks_Phase_8,114,1,48,45,686927988
25,7,22,Ticks_Phase_8,115,5,42,127,687632992
25,7,22,Ticks_Phase_8,116,5,42,127,688432356
25,7,22,Ticks_Phase_8,117,5,42,127,689273204
25,7,22,Ticks_Phase_8,118,5,42,127,690072936
25,7,22,Ticks_Phase_8,119,1,48,62,690824632
25,7,22,Ticks_Phase_8,120,5,42,127,690872812
25,7,22,Ticks_Phase_8,121,5,42,127,691672456
25,7,22,Ticks_Phase_8,122,1,48,50,691678268
25,7,22,Ticks_Phase_8,123,1,48,35,692455428
25,7,22,Ticks_Phase_8,124,5,42,127,692473080
25,7,22,Ticks_Phase_8,125,1,48,46,693220624
25,7,22,Ticks_Phase_8,126,5,42,127,693272868
25,7,22,Ticks_Phase_8,127,1,48,45,694071980
25,7,22,Ticks_Phase_8,128,5,42,127,694073776
25,7,22,Ticks_Phase_8,129,5,42,127,694872596
25,7,22,Ticks_Phase_8,130,1,48,54,694890460
25,7,22,Ticks_Phase_8,131,1,48,45,695673356
25,7,22,Ticks_Phase_8,132,5,42,127,695675072
25,7,22,Ticks_Phase_8,133,1,48,39,696445620
25,7,22,Ticks_Phase_8,134,5,42,127,696472912
25,7,22,Ticks_Phase_8,135,5,42,127,697272632
25,7,22,Ticks_Phase_8,136,1,48,50,697377096
25,7,22,Ticks_Phase_8,137,5,42,127,698072416
25,7,22,Ticks_Phase_8,138,5,42,127,698873296
25,7,22,Ticks_Phase_8,139,5,42,127,699672956
25,7,22,Ticks_Phase_8,140,1,48,51,699746916
25,7,22,Ticks_Phase_8,141,1,48,40,700456896
25,7,22,Ticks_Phase_8,142,5,42,127,700472808
25,7,22,Ticks_Phase_8,143,1,48,29,701217448
25,7,22,Ticks_Phase_8,144,5,42,127,701272376
25,7,22,Ticks_Phase_8,145,1,48,35,702032148
25,7,22,Ticks_Phase_8,146,5,42,127,702073284
25,7,22,Ticks_Phase_8,147,5,42,127,702833384
25,7,22,Ticks_Phase_8,148,1,48,38,702855004
25,7,22,Ticks_Phase_8,149,5,42,127,703632724
25,7,22,Ticks_Phase_8,150,1,48,47,703636364
25,7,22,Ticks_Phase_8,151,1,48,43,704425060
25,7,22,Ticks_Phase_8,152,5,42,127,704432428
25,7,22,Ticks_Phase_8,153,5,42,127,705233344
25,7,22,Ticks_Phase_8,154,1,48,45,705312128
25,7,22,Ticks_Phase_8,155,5,42,127,706033228
25,7,22,Ticks_Phase_8,156,1,48,35,706084276
25,7,22,Ticks_Phase_8,157,5,42,127,706832716
25,7,22,Ticks_Phase_8,158,1,48,29,706877096
25,7,22,Ticks_Phase_8,159,5,42,127,707632356
25,7,22,Ticks_Phase_8,160,1,48,45,707652704
25,7,22,Ticks_Phase_8,161,1,48,47,708421924
25,7,22,Ticks_Phase_8,162,5,42,127,708433256
25,7,22,Ticks_Phase_8,163,1,48,47,709210260
25,7,22,Ticks_Phase_8,164,5,42,127,709233120
25,7,22,Ticks_Phase_8,165,1,48,45,710025084
25,7,22,Ticks_Phase_8,166,5,42,127,710032832
25,7,22,Ticks_Phase_8,167,1,48,52,710820152
25,7,22,Ticks_Phase_8,168,5,42,127,710832468
25,7,22,Ticks_Phase_8,169,5,42,127,711633156
25,7,22,Ticks_Phase_8,170,1,48,48,711653432
25,7,22,Ticks_Phase_8,171,1,48,57,712420316
25,7,22,Ticks_Phase_8,172,5,42,127,712432960
25,7,22,Ticks_Phase_8,173,1,48,54,713226276
25,7,22,Ticks_Phase_8,174,5,42,127,713233044
25,7,22,Ticks_Phase_8,175,1,48,47,713982036
25,7,22,Ticks_Phase_8,176,5,42,127,714032608
25,7,22,Ticks_Phase_8,177,5,42,127,714833300
25,7,22,Ticks_Phase_8,178,1,48,43,714849144
25,7,22,Ticks_Phase_8,179,5,42,127,715553032
25,7,22,Ticks_Phase_8,180,1,48,51,715635528
25,7,22,Ticks_Phase_8,181,5,42,127,716352820
25,7,22,Ticks_Phase_8,182,1,48,51,716500392
25,7,22,Ticks_Phase_8,183,5,42,127,717152680
25,7,22,Ticks_Phase_8,184,5,42,127,717953608
25,7,22,Ticks_Phase_8,185,1,48,62,718740572
25,7,22,Ticks_Phase_8,186,5,42,127,718753264
25,7,22,Ticks_Phase_8,187,5,42,127,719552832
25,7,22,Ticks_Phase_8,188,1,48,51,719564264
25,7,22,Ticks_Phase_8,189,1,48,35,720327044
25,7,22,Ticks_Phase_8,190,5,42,127,720352612
25,7,22,Ticks_Phase_8,191,1,48,42,721153176
25,7,22,Ticks_Phase_8,192,5,42,127,721154664
25,7,22,Ticks_Phase_8,193,1,48,46,721948732
25,7,22,Ticks_Phase_8,194,5,42,127,721953104
25,7,22,Ticks_Phase_8,195,5,42,127,722752824
25,7,22,Ticks_Phase_8,196,1,48,54,722757740
25,7,22,Ticks_Phase_8,197,5,42,127,723552536
25,7,22,Ticks_Phase_8,198,1,48,43,723637504
25,7,22,Ticks_Phase_8,199,5,42,127,724353444
25,7,22,Ticks_Phase_8,200,5,42,127,725153176
25,7,22,Ticks_Phase_8,201,1,48,46,725883380
25,7,22,Ticks_Phase_8,202,5,42,127,725952904
25,7,22,Ticks_Phase_8,203,5,42,127,726752620
25,7,22,Ticks_Phase_8,204,1,48,53,726756260
25,7,22,Ticks_Phase_8,205,1,48,51,727527880
25,7,22,Ticks_Phase_8,206,5,42,127,727553396
25,7,22,Ticks_Phase_8,207,1,48,47,728281016
25,7,22,Ticks_Phase_8,208,5,42,127,728353184
25,7,22,Ticks_Phase_8,209,1,48,41,729072588
25,7,22,Ticks_Phase_8,210,5,42,127,729232788
25,7,22,Ticks_Phase_8,211,5,42,127,730032444
25,7,22,Ticks_Phase_8,212,5,42,127,730833300
25,7,22,Ticks_Phase_8,213,5,42,127,731633132
25,7,22,Ticks_Phase_8,214,1,48,51,732406244
25,7,22,Ticks_Phase_8,215,5,42,127,732432860
25,7,22,Ticks_Phase_8,216,5,42,127,733232580
25,7,22,Ticks_Phase_8,217,1,48,42,733262888
25,7,22,Ticks_Phase_8,218,1,48,45,733984548
25,7,22,Ticks_Phase_8,219,5,42,127,734033328
25,7,22,Ticks_Phase_8,220,1,48,36,734816616
25,7,22,Ticks_Phase_8,221,5,42,127,734832968
25,7,22,Ticks_Phase_8,222,5,42,127,735632760
25,7,22,Ticks_Phase_8,223,1,48,42,735654824
25,7,22,Ticks_Phase_8,224,5,42,127,736432620
25,7,22,Ticks_Phase_8,225,1,48,50,736497468
25,7,22,Ticks_Phase_8,226,5,42,127,737233380
25,7,22,Ticks_Phase_8,227,1,48,46,737333880
25,7,22,Ticks_Phase_8,228,5,42,127,738032892
25,7,22,Ticks_Phase_8,229,1,48,44,738228472
25,7,22,Ticks_Phase_8,230,5,42,127,738832756
25,7,22,Ticks_Phase_8,231,5,42,127,739632560
25,7,22,Ticks_Phase_8,232,5,42,127,740433416
25,7,22,Ticks_Phase_8,233,5,42,127,741233000
25,7,22,Ticks_Phase_8,234,1,48,48,741290632
25,7,22,Ticks_Phase_8,235,5,42,127,742032860
25,7,22,Ticks_Phase_8,236,1,48,46,742081892
25,7,22,Ticks_Phase_8,237,1,48,18,742916360
25,7,22,Ticks_Phase_8,238,5,42,127,742993300
25,7,22,Ticks_Phase_8,239,5,42,127,743792868
25,7,22,Ticks_Phase_8,240,5,42,127,744592676
25,7,22,Ticks_Phase_8,241,5,42,127,745392560
25,7,22,Ticks_Phase_8,242,1,48,54,746169564
25,7,22,Ticks_Phase_8,243,5,42,127,746193260
25,7,22,Ticks_Phase_8,244,5,42,127,746993152
25,7,22,Ticks_Phase_8,245,1,48,57,747051844
25,7,22,Ticks_Phase_8,246,1,48,48,747783844
25,7,22,Ticks_Phase_8,247,5,42,127,747792636
25,7,22,Ticks_Phase_8,248,1,48,52,748588792
25,7,22,Ticks_Phase_8,249,5,42,127,748592424
25,7,22,Ticks_Phase_8,250,5,42,127,749393412
25,7,22,Ticks_Phase_8,251,1,48,47,749405144
25,7,22,Ticks_Phase_8,252,5,42,127,750192976
25,7,22,Ticks_Phase_8,253,1,48,47,750205084
25,7,22,Ticks_Phase_8,254,5,42,127,750992612
25,7,22,Ticks_Phase_8,255,1,48,47,751067400
25,7,22,Ticks_Phase_8,256,5,42,127,751792472
25,7,22,Ticks_Phase_8,257,1,48,45,751917680
25,7,22,Ticks_Phase_8,258,5,42,127,752593232
25,7,22,Ticks_Phase_8,259,1,48,48,752851448
25,7,22,Ticks_Phase_8,260,5,42,127,753393116
25,7,22,Ticks_Phase_8,261,5,42,127,754192924
25,7,22,Ticks_Phase_8,262,5,42,127,754992360
25,7,22,Ticks_Phase_8,263,5,42,127,755793216
25,7,22,Ticks_Phase_8,264,5,42,127,756593024
25,7,22,Ticks_Phase_8,265,1,48,39,756630060
25,7,22,Ticks_Phase_8,266,5,42,127,757392884
25,7,22,Ticks_Phase_8,267,1,48,46,757423936
25,7,22,Ticks_Phase_8,268,5,42,127,758032712
25,7,22,Ticks_Phase_8,269,5,42,127,758832820
25,7,22,Ticks_Phase_8,270,5,42,127,759633228
25,7,22,Ticks_Phase_8,271,1,48,36,759674092
25,7,22,Ticks_Phase_8,272,5,42,127,760432940
25,7,22,Ticks_Phase_8,273,5,42,127,761232676
25,7,22,Ticks_Phase_8,274,5,42,127,762032704
25,7,22,Ticks_Phase_8,275,5,42,127,762833264
25,7,22,Ticks_Phase_8,276,5,42,127,763633096
25,7,22,Ticks_Phase_8,277,1,48,26,763661460
25,7,22,Ticks_Phase_8,278,1,48,41,764403868
25,7,22,Ticks_Phase_8,279,5,42,127,764432724
25,7,22,Ticks_Phase_8,280,1,48,47,765184556
25,7,22,Ticks_Phase_8,281,5,42,127,765232436
25,7,22,Ticks_Phase_8,282,1,48,42,765977000
25,7,22,Ticks_Phase_8,283,5,42,127,766033272
25,7,22,Ticks_Phase_8,284,1,48,43,766783832
25,7,22,Ticks_Phase_8,285,5,42,127,766832908
25,7,22,Ticks_Phase_8,286,5,42,127,767632628
25,7,22,Ticks_Phase_8,287,5,42,127,768432440
25,7,22,Ticks_Phase_8,288,5,42,127,769233220
25,7,22,Ticks_Phase_8,289,5,42,127,770033348
25,7,22,Ticks_Phase_8,290,1,48,49,770098700
25,7,22,Ticks_Phase_8,291,1,48,35,770826960
25,7,22,Ticks_Phase_8,292,5,42,127,770832756
25,7,22,Ticks_Phase_8,293,1,48,44,771566012
25,7,22,Ticks_Phase_8,294,5,42,127,771632468
25,7,22,Ticks_Phase_8,295,1,48,46,772342892
25,7,22,Ticks_Phase_8,296,5,42,127,772433376
25,7,22,Ticks_Phase_8,297,1,48,43,773166560
25,7,22,Ticks_Phase_8,298,5,42,127,773233092
25,7,22,Ticks_Phase_8,0,9999,9999,9999,638030928
25,7,22,Ticks_Phase_8,1,9999,9999,9999,638830664
25,7,22,Ticks_Phase_8,2,9999,9999,9999,639630400
25,7,22,Ticks_Phase_8,3,9999,9999,9999,640430208
25,7,22,Ticks_Phase_8,4,9999,9999,9999,641230912
25,7,22,Ticks_Phase_8,5,9999,9999,9999,642030700
25,7,22,Ticks_Phase_8,6,9999,9999,9999,642830460
25,7,22,Ticks_Phase_8,7,9999,9999,9999,643630192
25,7,22,Ticks_Phase_8,8,9999,9999,9999,644430964
25,7,22,Ticks_Phase_8,9,9999,9999,9999,645230684
25,7,22,Ticks_Phase_8,10,9999,9999,9999,646030392
25,7,22,Ticks_Phase_8,11,9999,9999,9999,646830184
25,7,22,Ticks_Phase_8,12,9999,9999,9999,647630944
25,7,22,Ticks_Phase_8,13,9999,9999,9999,648430656
25,7,22,Ticks_Phase_8,14,9999,9999,9999,649230460
25,7,22,Ticks_Phase_8,15,9999,9999,9999,650030176
25,7,22,Ticks_Phase_8,16,9999,9999,9999,650830928
25,7,22,Ticks_Phase_8,17,9999,9999,9999,651630648
25,7,22,Ticks_Phase_8,18,9999,9999,9999,652430432
25,7,22,Ticks_Phase_8,19,9999,9999,9999,653230144
25,7,22,Ticks_Phase_8,20,9999,9999,9999,654030972
25,7,22,Ticks_Phase_8,21,9999,9999,9999,654830688
25,7,22,Ticks_Phase_8,22,9999,9999,9999,655630400
25,7,22,Ticks_Phase_8,23,9999,9999,9999,656430188
25,7,22,Ticks_Phase_8,24,9999,9999,9999,657230944
25,7,22,Ticks_Phase_8,25,9999,9999,9999,658030660
25,7,22,Ticks_Phase_8,26,9999,9999,9999,658830448
25,7,22,Ticks_Phase_8,27,9999,9999,9999,659630152
25,7,22,Ticks_Phase_8,28,9999,9999,9999,660430916
25,7,22,Ticks_Phase_8,29,9999,9999,9999,661230704
25,7,22,Ticks_Phase_8,30,9999,9999,9999,662010968
25,7,22,Ticks_Phase_8,31,9999,9999,9999,662810752
25,7,22,Ticks_Phase_8,32,9999,9999,9999,663610460
25,7,22,Ticks_Phase_8,33,9999,9999,9999,664410176
25,7,22,Ticks_Phase_8,34,9999,9999,9999,665210932
25,7,22,Ticks_Phase_8,35,9999,9999,9999,666010724
25,7,22,Ticks_Phase_8,36,9999,9999,9999,666810440
25,7,22,Ticks_Phase_8,37,9999,9999,9999,667610224
25,7,22,Ticks_Phase_8,38,9999,9999,9999,668411004
25,7,22,Ticks_Phase_8,39,9999,9999,9999,669210716
25,7,22,Ticks_Phase_8,40,9999,9999,9999,670010428
25,7,22,Ticks_Phase_8,41,9999,9999,9999,670810216
25,7,22,Ticks_Phase_8,42,9999,9999,9999,671610972
25,7,22,Ticks_Phase_8,43,9999,9999,9999,672410684
25,7,22,Ticks_Phase_8,44,9999,9999,9999,673210464
25,7,22,Ticks_Phase_8,45,9999,9999,9999,674010180
25,7,22,Ticks_Phase_8,46,9999,9999,9999,674810964
25,7,22,Ticks_Phase_8,47,9999,9999,9999,675610752
25,7,22,Ticks_Phase_8,48,9999,9999,9999,676430908
25,7,22,Ticks_Phase_8,49,9999,9999,9999,677230688
25,7,22,Ticks_Phase_8,50,9999,9999,9999,678030400
25,7,22,Ticks_Phase_8,51,9999,9999,9999,678830196
25,7,22,Ticks_Phase_8,52,9999,9999,9999,679630952
25,7,22,Ticks_Phase_8,53,9999,9999,9999,680430688
25,7,22,Ticks_Phase_8,54,9999,9999,9999,681230424
25,7,22,Ticks_Phase_8,55,9999,9999,9999,682030156
25,7,22,Ticks_Phase_8,56,9999,9999,9999,682830916
25,7,22,Ticks_Phase_8,57,9999,9999,9999,683630696
25,7,22,Ticks_Phase_8,58,9999,9999,9999,684430408
25,7,22,Ticks_Phase_8,59,9999,9999,9999,685230196
25,7,22,Ticks_Phase_8,60,9999,9999,9999,686030960
25,7,22,Ticks_Phase_8,61,9999,9999,9999,686830696
25,7,22,Ticks_Phase_8,62,9999,9999,9999,687630408
25,7,22,Ticks_Phase_8,63,9999,9999,9999,688430140
25,7,22,Ticks_Phase_8,64,9999,9999,9999,689270840
25,7,22,Ticks_Phase_8,65,9999,9999,9999,690070648
25,7,22,Ticks_Phase_8,66,9999,9999,9999,690870376
25,7,22,Ticks_Phase_8,67,9999,9999,9999,691670096
25,7,22,Ticks_Phase_8,68,9999,9999,9999,692470868
25,7,22,Ticks_Phase_8,69,9999,9999,9999,693270580
25,7,22,Ticks_Phase_8,70,9999,9999,9999,694070376
25,7,22,Ticks_Phase_8,71,9999,9999,9999,694870088
25,7,22,Ticks_Phase_8,72,9999,9999,9999,695670844
25,7,22,Ticks_Phase_8,73,9999,9999,9999,696470624
25,7,22,Ticks_Phase_8,74,9999,9999,9999,697270344
25,7,22,Ticks_Phase_8,75,9999,9999,9999,698070128
25,7,22,Ticks_Phase_8,76,9999,9999,9999,698870860
25,7,22,Ticks_Phase_8,77,9999,9999,9999,699670596
25,7,22,Ticks_Phase_8,78,9999,9999,9999,700470372
25,7,22,Ticks_Phase_8,79,9999,9999,9999,701270088
25,7,22,Ticks_Phase_8,80,9999,9999,9999,702070848
25,7,22,Ticks_Phase_8,81,9999,9999,9999,702830652
25,7,22,Ticks_Phase_8,82,9999,9999,9999,703630436
25,7,22,Ticks_Phase_8,83,9999,9999,9999,704430144
25,7,22,Ticks_Phase_8,84,9999,9999,9999,705230908
25,7,22,Ticks_Phase_8,85,9999,9999,9999,706030716
25,7,22,Ticks_Phase_8,86,9999,9999,9999,706830432
25,7,22,Ticks_Phase_8,87,9999,9999,9999,707630140
25,7,22,Ticks_Phase_8,88,9999,9999,9999,708430972
25,7,22,Ticks_Phase_8,89,9999,9999,9999,709230684
25,7,22,Ticks_Phase_8,90,9999,9999,9999,710030396
25,7,22,Ticks_Phase_8,91,9999,9999,9999,710830180
25,7,22,Ticks_Phase_8,92,9999,9999,9999,711630944
25,7,22,Ticks_Phase_8,93,9999,9999,9999,712430676
25,7,22,Ticks_Phase_8,94,9999,9999,9999,713230460
25,7,22,Ticks_Phase_8,95,9999,9999,9999,714030172
25,7,22,Ticks_Phase_8,96,9999,9999,9999,714830936
25,7,22,Ticks_Phase_8,97,9999,9999,9999,715550820
25,7,22,Ticks_Phase_8,98,9999,9999,9999,716350532
25,7,22,Ticks_Phase_8,99,9999,9999,9999,717150320
25,7,22,Ticks_Phase_8,100,9999,9999,9999,717951100
25,7,22,Ticks_Phase_8,101,9999,9999,9999,718750828
25,7,22,Ticks_Phase_8,102,9999,9999,9999,719550544
25,7,22,Ticks_Phase_8,103,9999,9999,9999,720350324
25,7,22,Ticks_Phase_8,104,9999,9999,9999,721151040
25,7,22,Ticks_Phase_8,105,9999,9999,9999,721950820
25,7,22,Ticks_Phase_8,106,9999,9999,9999,722750536
25,7,22,Ticks_Phase_8,107,9999,9999,9999,723550324
25,7,22,Ticks_Phase_8,108,9999,9999,9999,724351080
25,7,22,Ticks_Phase_8,109,9999,9999,9999,725150816
25,7,22,Ticks_Phase_8,110,9999,9999,9999,725950540
25,7,22,Ticks_Phase_8,111,9999,9999,9999,726750336
25,7,22,Ticks_Phase_8,112,9999,9999,9999,727551036
25,7,22,Ticks_Phase_8,113,9999,9999,9999,728350824
25,7,22,Ticks_Phase_8,114,9999,9999,9999,729230424
25,7,22,Ticks_Phase_8,115,9999,9999,9999,730030160
25,7,22,Ticks_Phase_8,116,9999,9999,9999,730830940
25,7,22,Ticks_Phase_8,117,9999,9999,9999,731630696
25,7,22,Ticks_Phase_8,118,9999,9999,9999,732430424
25,7,22,Ticks_Phase_8,119,9999,9999,9999,733230144
25,7,22,Ticks_Phase_8,120,9999,9999,9999,734030968
25,7,22,Ticks_Phase_8,121,9999,9999,9999,734830684
25,7,22,Ticks_Phase_8,122,9999,9999,9999,735630400
25,7,22,Ticks_Phase_8,123,9999,9999,9999,736430184
25,7,22,Ticks_Phase_8,124,9999,9999,9999,737230944
25,7,22,Ticks_Phase_8,125,9999,9999,9999,738030680
25,7,22,Ticks_Phase_8,126,9999,9999,9999,738830392
25,7,22,Ticks_Phase_8,127,9999,9999,9999,739630200
25,7,22,Ticks_Phase_8,128,9999,9999,9999,740430904
25,7,22,Ticks_Phase_8,129,9999,9999,9999,741230712
25,7,22,Ticks_Phase_8,130,9999,9999,9999,742030424
25,7,22,Ticks_Phase_8,131,9999,9999,9999,742990936
25,7,22,Ticks_Phase_8,132,9999,9999,9999,743790656
25,7,22,Ticks_Phase_8,133,9999,9999,9999,744590388
25,7,22,Ticks_Phase_8,134,9999,9999,9999,745390200
25,7,22,Ticks_Phase_8,135,9999,9999,9999,746190976
25,7,22,Ticks_Phase_8,136,9999,9999,9999,746990716
25,7,22,Ticks_Phase_8,137,9999,9999,9999,747790424
25,7,22,Ticks_Phase_8,138,9999,9999,9999,748590136
25,7,22,Ticks_Phase_8,139,9999,9999,9999,749390904
25,7,22,Ticks_Phase_8,140,9999,9999,9999,750190688
25,7,22,Ticks_Phase_8,141,9999,9999,9999,750990400
25,7,22,Ticks_Phase_8,142,9999,9999,9999,751790188
25,7,22,Ticks_Phase_8,143,9999,9999,9999,752590944
25,7,22,Ticks_Phase_8,144,9999,9999,9999,753390684
25,7,22,Ticks_Phase_8,145,9999,9999,9999,754190416
25,7,22,Ticks_Phase_8,146,9999,9999,9999,754990148
25,7,22,Ticks_Phase_8,147,9999,9999,9999,755790928
25,7,22,Ticks_Phase_8,148,9999,9999,9999,756590660
25,7,22,Ticks_Phase_8,149,9999,9999,9999,757390448
25,7,22,Ticks_Phase_8,150,9999,9999,9999,758030424
25,7,22,Ticks_Phase_8,151,9999,9999,9999,758830160
25,7,22,Ticks_Phase_8,152,9999,9999,9999,759630940
25,7,22,Ticks_Phase_8,153,9999,9999,9999,760430652
25,7,22,Ticks_Phase_8,154,9999,9999,9999,761230464
25,7,22,Ticks_Phase_8,155,9999,9999,9999,762030196
25,7,22,Ticks_Phase_8,156,9999,9999,9999,762830900
25,7,22,Ticks_Phase_8,157,9999,9999,9999,763630660
25,7,22,Ticks_Phase_8,158,9999,9999,9999,764430440
25,7,22,Ticks_Phase_8,159,9999,9999,9999,765230152
25,7,22,Ticks_Phase_8,160,9999,9999,9999,766030912
25,7,22,Ticks_Phase_8,161,9999,9999,9999,766830696
25,7,22,Ticks_Phase_8,162,9999,9999,9999,767630416
25,7,22,Ticks_Phase_8,163,9999,9999,9999,768430152
25,7,22,Ticks_Phase_8,164,9999,9999,9999,769230932
25,7,22,Ticks_Phase_8,165,9999,9999,9999,770030688
25,7,22,Ticks_Phase_8,166,9999,9999,9999,770830396
25,7,22,Ticks_Phase_8,167,9999,9999,9999,771630180
25,7,22,Ticks_Phase_8,168,9999,9999,9999,772430940
25,7,22,Ticks_Phase_8,169,9999,9999,9999,773230656
25,8,23,Ticks_Phase_5,0,5,42,127,833791444
25,8,23,Ticks_Phase_5,1,5,42,127,834291152
25,8,23,Ticks_Phase_5,2,5,42,127,834790788
25,8,23,Ticks_Phase_5,3,5,42,127,835290400
25,8,23,Ticks_Phase_5,4,5,42,127,835791156
25,8,23,Ticks_Phase_5,5,5,42,127,836290868
25,8,23,Ticks_Phase_5,6,5,42,127,836790500
25,8,23,Ticks_Phase_5,7,5,42,127,837291408
25,8,23,Ticks_Phase_5,8,1,48,56,837764200
25,8,23,Ticks_Phase_5,9,5,42,127,837791184
25,8,23,Ticks_Phase_5,10,1,48,57,838271672
25,8,23,Ticks_Phase_5,11,5,42,127,838290724
25,8,23,Ticks_Phase_5,12,5,42,127,838790568
25,8,23,Ticks_Phase_5,13,1,48,57,838799908
25,8,23,Ticks_Phase_5,14,1,48,45,839264152
25,8,23,Ticks_Phase_5,15,5,42,127,839291368
25,8,23,Ticks_Phase_5,16,1,48,39,839771560
25,8,23,Ticks_Phase_5,17,5,42,127,839791204
25,8,23,Ticks_Phase_5,18,1,48,55,840262112
25,8,23,Ticks_Phase_5,19,5,42,127,840290596
25,8,23,Ticks_Phase_5,20,1,48,50,840746884
25,8,23,Ticks_Phase_5,21,5,42,127,840791556
25,8,23,Ticks_Phase_5,22,1,48,54,841281328
25,8,23,Ticks_Phase_5,23,5,42,127,841291092
25,8,23,Ticks_Phase_5,24,1,48,44,841781168
25,8,23,Ticks_Phase_5,25,5,42,127,841790856
25,8,23,Ticks_Phase_5,26,1,48,52,842275308
25,8,23,Ticks_Phase_5,27,5,42,127,842290468
25,8,23,Ticks_Phase_5,28,1,48,52,842773800
25,8,23,Ticks_Phase_5,29,5,42,127,842791280
25,8,23,Ticks_Phase_5,30,1,48,57,843268852
25,8,23,Ticks_Phase_5,31,5,42,127,843290968
25,8,23,Ticks_Phase_5,32,1,48,56,843788692
25,8,23,Ticks_Phase_5,33,5,42,127,843790880
25,8,23,Ticks_Phase_5,34,5,42,127,844290428
25,8,23,Ticks_Phase_5,35,1,48,55,844295112
25,8,23,Ticks_Phase_5,36,1,48,61,844780720
25,8,23,Ticks_Phase_5,37,5,42,127,844791304
25,8,23,Ticks_Phase_5,38,5,42,127,845290848
25,8,23,Ticks_Phase_5,39,1,48,55,845297712
25,8,23,Ticks_Phase_5,40,5,42,127,845790736
25,8,23,Ticks_Phase_5,41,1,48,51,845800100
25,8,23,Ticks_Phase_5,42,5,42,127,846291324
25,8,23,Ticks_Phase_5,43,1,48,53,846297660
25,8,23,Ticks_Phase_5,44,5,42,127,846790936
25,8,23,Ticks_Phase_5,45,1,48,57,846796076
25,8,23,Ticks_Phase_5,46,5,42,127,847290700
25,8,23,Ticks_Phase_5,47,1,48,59,847294192
25,8,23,Ticks_Phase_5,48,1,48,55,847781968
25,8,23,Ticks_Phase_5,49,5,42,127,847790532
25,8,23,Ticks_Phase_5,50,1,48,58,848289920
25,8,23,Ticks_Phase_5,51,5,42,127,848291640
25,8,23,Ticks_Phase_5,52,1,48,54,848776396
25,8,23,Ticks_Phase_5,53,5,42,127,848780772
25,8,23,Ticks_Phase_5,54,1,48,57,849275856
25,8,23,Ticks_Phase_5,55,5,42,127,849281656
25,8,23,Ticks_Phase_5,56,5,42,127,849781276
25,8,23,Ticks_Phase_5,57,1,48,61,849782244
25,8,23,Ticks_Phase_5,58,1,48,57,850271868
25,8,23,Ticks_Phase_5,59,5,42,127,850280812
25,8,23,Ticks_Phase_5,60,5,42,127,850780656
25,8,23,Ticks_Phase_5,61,1,48,59,850801752
25,8,23,Ticks_Phase_5,62,1,48,59,851274384
25,8,23,Ticks_Phase_5,63,5,42,127,851281380
25,8,23,Ticks_Phase_5,64,1,48,64,851757520
25,8,23,Ticks_Phase_5,65,5,42,127,851780920
25,8,23,Ticks_Phase_5,66,1,48,48,852264624
25,8,23,Ticks_Phase_5,67,5,42,127,852280608
25,8,23,Ticks_Phase_5,68,1,48,48,852764312
25,8,23,Ticks_Phase_5,69,5,42,127,852781568
25,8,23,Ticks_Phase_5,70,1,48,53,853265268
25,8,23,Ticks_Phase_5,71,5,42,127,853291364
25,8,23,Ticks_Phase_5,72,1,48,51,853778972
25,8,23,Ticks_Phase_5,73,5,42,127,853791352
25,8,23,Ticks_Phase_5,74,5,42,127,854290896
25,8,23,Ticks_Phase_5,75,1,48,51,854308240
25,8,23,Ticks_Phase_5,76,1,48,46,854781788
25,8,23,Ticks_Phase_5,77,5,42,127,854790580
25,8,23,Ticks_Phase_5,78,5,42,127,855291396
25,8,23,Ticks_Phase_5,79,1,48,48,855292436
25,8,23,Ticks_Phase_5,80,1,48,54,855769240
25,8,23,Ticks_Phase_5,81,5,42,127,855791080
25,8,23,Ticks_Phase_5,82,1,48,56,856266664
25,8,23,Ticks_Phase_5,83,5,42,127,856290616
25,8,23,Ticks_Phase_5,84,1,48,56,856774220
25,8,23,Ticks_Phase_5,85,5,42,127,856791400
25,8,23,Ticks_Phase_5,86,1,48,57,857248292
25,8,23,Ticks_Phase_5,87,5,42,127,857291240
25,8,23,Ticks_Phase_5,88,1,48,55,857799684
25,8,23,Ticks_Phase_5,89,5,42,127,857801412
25,8,23,Ticks_Phase_5,90,1,48,58,858272240
25,8,23,Ticks_Phase_5,91,5,42,127,858300724
25,8,23,Ticks_Phase_5,92,1,48,47,858799292
25,8,23,Ticks_Phase_5,93,5,42,127,858801316
25,8,23,Ticks_Phase_5,94,1,48,40,859287936
25,8,23,Ticks_Phase_5,95,5,42,127,859301152
25,8,23,Ticks_Phase_5,96,1,48,58,859782316
25,8,23,Ticks_Phase_5,97,5,42,127,859800912
25,8,23,Ticks_Phase_5,98,1,48,53,860300232
25,8,23,Ticks_Phase_5,99,5,42,127,860302020
25,8,23,Ticks_Phase_5,100,1,48,57,860793892
25,8,23,Ticks_Phase_5,101,5,42,127,860801336
25,8,23,Ticks_Phase_5,102,1,48,59,861274184
25,8,23,Ticks_Phase_5,103,5,42,127,861301100
25,8,23,Ticks_Phase_5,104,1,48,51,861800720
25,8,23,Ticks_Phase_5,105,5,42,127,861802280
25,8,23,Ticks_Phase_5,106,5,42,127,862300480
25,8,23,Ticks_Phase_5,107,1,48,51,862308848
25,8,23,Ticks_Phase_5,108,5,42,127,862801216
25,8,23,Ticks_Phase_5,109,1,48,52,862824928
25,8,23,Ticks_Phase_5,110,1,48,54,863297792
25,8,23,Ticks_Phase_5,111,5,42,127,863300896
25,8,23,Ticks_Phase_5,112,5,42,127,863800892
25,8,23,Ticks_Phase_5,113,1,48,49,863809712
25,8,23,Ticks_Phase_5,114,5,42,127,864301404
25,8,23,Ticks_Phase_5,115,1,48,59,864311716
25,8,23,Ticks_Phase_5,116,1,48,45,864806368
25,8,23,Ticks_Phase_5,117,5,42,127,864811416
25,8,23,Ticks_Phase_5,118,1,48,50,865305380
25,8,23,Ticks_Phase_5,119,5,42,127,865311108
25,8,23,Ticks_Phase_5,120,1,48,51,865805596
25,8,23,Ticks_Phase_5,121,5,42,127,865831164
25,8,23,Ticks_Phase_5,122,1,48,51,866292108
25,8,23,Ticks_Phase_5,123,5,42,127,866331076
25,8,23,Ticks_Phase_5,124,1,48,52,866817924
25,8,23,Ticks_Phase_5,125,5,42,127,866830692
25,8,23,Ticks_Phase_5,126,5,42,127,867330312
25,8,23,Ticks_Phase_5,127,1,48,50,867333356
25,8,23,Ticks_Phase_5,128,5,42,127,867831120
25,8,23,Ticks_Phase_5,129,1,48,51,867833940
25,8,23,Ticks_Phase_5,130,5,42,127,868330736
25,8,23,Ticks_Phase_5,131,1,48,49,868332220
25,8,23,Ticks_Phase_5,132,5,42,127,868830844
25,8,23,Ticks_Phase_5,133,1,48,47,868848824
25,8,23,Ticks_Phase_5,134,5,42,127,869331284
25,8,23,Ticks_Phase_5,135,1,48,43,869334328
25,8,23,Ticks_Phase_5,136,5,42,127,869830896
25,8,23,Ticks_Phase_5,137,1,48,49,869834388
25,8,23,Ticks_Phase_5,138,5,42,127,870330880
25,8,23,Ticks_Phase_5,139,1,48,43,870336624
25,8,23,Ticks_Phase_5,140,1,48,37,870820500
25,8,23,Ticks_Phase_5,141,5,42,127,870830416
25,8,23,Ticks_Phase_5,142,5,42,127,871331304
25,8,23,Ticks_Phase_5,143,1,48,49,871332788
25,8,23,Ticks_Phase_5,144,5,42,127,871830916
25,8,23,Ticks_Phase_5,145,1,48,46,871874700
25,8,23,Ticks_Phase_5,146,5,42,127,872330680
25,8,23,Ticks_Phase_5,147,1,48,47,872400528
25,8,23,Ticks_Phase_5,148,5,42,127,872831488
25,8,23,Ticks_Phase_5,149,1,48,47,872901116
25,8,23,Ticks_Phase_5,150,5,42,127,873330956
25,8,23,Ticks_Phase_5,151,1,48,33,873393980
25,8,23,Ticks_Phase_5,152,5,42,127,873830796
25,8,23,Ticks_Phase_5,153,1,48,49,873901912
25,8,23,Ticks_Phase_5,154,5,42,127,874311012
25,8,23,Ticks_Phase_5,155,1,48,47,874402348
25,8,23,Ticks_Phase_5,156,5,42,127,874810924
25,8,23,Ticks_Phase_5,157,1,48,45,874886532
25,8,23,Ticks_Phase_5,158,5,42,127,875310388
25,8,23,Ticks_Phase_5,159,1,48,42,875355060
25,8,23,Ticks_Phase_5,160,5,42,127,875811344
25,8,23,Ticks_Phase_5,161,1,48,44,875842324
25,8,23,Ticks_Phase_5,162,5,42,127,876310884
25,8,23,Ticks_Phase_5,163,1,48,22,876367544
25,8,23,Ticks_Phase_5,164,5,42,127,876810648
25,8,23,Ticks_Phase_5,165,1,48,40,876828064
25,8,23,Ticks_Phase_5,166,5,42,127,877311308
25,8,23,Ticks_Phase_5,167,1,48,46,877330380
25,8,23,Ticks_Phase_5,168,5,42,127,877811220
25,8,23,Ticks_Phase_5,169,1,48,44,877848408
25,8,23,Ticks_Phase_5,170,5,42,127,878310760
25,8,23,Ticks_Phase_5,171,1,48,44,878362480
25,8,23,Ticks_Phase_5,172,5,42,127,878810424
25,8,23,Ticks_Phase_5,173,1,48,45,878860900
25,8,23,Ticks_Phase_5,174,5,42,127,879311380
25,8,23,Ticks_Phase_5,175,1,48,49,879354660
25,8,23,Ticks_Phase_5,176,5,42,127,879811144
25,8,23,Ticks_Phase_5,177,1,48,39,879878700
25,8,23,Ticks_Phase_5,178,5,42,127,880310608
25,8,23,Ticks_Phase_5,179,1,48,49,880352096
25,8,23,Ticks_Phase_5,180,5,42,127,880811344
25,8,23,Ticks_Phase_5,181,1,48,44,880823376
25,8,23,Ticks_Phase_5,182,1,48,47,881305972
25,8,23,Ticks_Phase_5,183,5,42,127,881311320
25,8,23,Ticks_Phase_5,184,1,48,45,881807904
25,8,23,Ticks_Phase_5,185,5,42,127,881811012
25,8,23,Ticks_Phase_5,186,5,42,127,882261504
25,8,23,Ticks_Phase_5,187,1,48,41,882326476
25,8,23,Ticks_Phase_5,188,5,42,127,882761044
25,8,23,Ticks_Phase_5,189,1,48,45,882811864
25,8,23,Ticks_Phase_5,190,5,42,127,883260880
25,8,23,Ticks_Phase_5,191,1,48,44,883278300
25,8,23,Ticks_Phase_5,192,5,42,127,883760420
25,8,23,Ticks_Phase_5,193,1,48,46,883763160
25,8,23,Ticks_Phase_5,194,5,42,127,884261228
25,8,23,Ticks_Phase_5,195,1,48,44,884290488
25,8,23,Ticks_Phase_5,196,5,42,127,884761140
25,8,23,Ticks_Phase_5,197,1,48,48,884778708
25,8,23,Ticks_Phase_5,198,5,42,127,885260828
25,8,23,Ticks_Phase_5,199,1,48,45,885307608
25,8,23,Ticks_Phase_5,200,5,42,127,885761344
25,8,23,Ticks_Phase_5,201,1,48,36,885801016
25,8,23,Ticks_Phase_5,202,5,42,127,886261032
25,8,23,Ticks_Phase_5,203,1,48,43,886281000
25,8,23,Ticks_Phase_5,204,1,48,39,886749952
25,8,23,Ticks_Phase_5,205,5,42,127,886760840
25,8,23,Ticks_Phase_5,206,5,42,127,887260952
25,8,23,Ticks_Phase_5,207,1,48,44,887288108
25,8,23,Ticks_Phase_5,208,5,42,127,887761368
25,8,23,Ticks_Phase_5,209,1,48,44,887804128
25,8,23,Ticks_Phase_5,210,5,42,127,888260908
25,8,23,Ticks_Phase_5,211,1,48,42,888300076
25,8,23,Ticks_Phase_5,212,5,42,127,888760892
25,8,23,Ticks_Phase_5,213,1,48,46,888808288
25,8,23,Ticks_Phase_5,214,5,42,127,889261552
25,8,23,Ticks_Phase_5,215,1,48,52,889294856
25,8,23,Ticks_Phase_5,216,5,42,127,889771352
25,8,23,Ticks_Phase_5,217,1,48,46,889794092
25,8,23,Ticks_Phase_5,218,5,42,127,890271116
25,8,23,Ticks_Phase_5,219,1,48,46,890311528
25,8,23,Ticks_Phase_5,220,1,48,48,890811660
25,8,23,Ticks_Phase_5,221,5,42,127,890820896
25,8,23,Ticks_Phase_5,222,5,42,127,891320816
25,8,23,Ticks_Phase_5,223,1,48,50,891321780
25,8,23,Ticks_Phase_5,224,5,42,127,891821700
25,8,23,Ticks_Phase_5,225,1,48,53,891827440
25,8,23,Ticks_Phase_5,226,1,48,44,892316180
25,8,23,Ticks_Phase_5,227,5,42,127,892331344
25,8,23,Ticks_Phase_5,228,1,48,48,892828920
25,8,23,Ticks_Phase_5,229,5,42,127,892831108
25,8,23,Ticks_Phase_5,230,5,42,127,893330728
25,8,23,Ticks_Phase_5,231,1,48,49,893341188
25,8,23,Ticks_Phase_5,232,5,42,127,893830716
25,8,23,Ticks_Phase_5,233,1,48,47,893833388
25,8,23,Ticks_Phase_5,234,5,42,127,894331524
25,8,23,Ticks_Phase_5,235,1,48,49,894360556
25,8,23,Ticks_Phase_5,236,5,42,127,894830916
25,8,23,Ticks_Phase_5,237,1,48,50,894841300
25,8,23,Ticks_Phase_5,238,1,48,47,895329848
25,8,23,Ticks_Phase_5,239,5,42,127,895331568
25,8,23,Ticks_Phase_5,240,5,42,127,895831708
25,8,23,Ticks_Phase_5,241,1,48,46,895834900
25,8,23,Ticks_Phase_5,242,5,42,127,896331024
25,8,23,Ticks_Phase_5,243,1,48,46,896331992
25,8,23,Ticks_Phase_5,244,1,48,49,896826252
25,8,23,Ticks_Phase_5,245,5,42,127,896830932
25,8,23,Ticks_Phase_5,246,5,42,127,897330628
25,8,23,Ticks_Phase_5,247,1,48,49,897343032
25,8,23,Ticks_Phase_5,248,5,42,127,897831288
25,8,23,Ticks_Phase_5,249,1,48,40,897849616
25,8,23,Ticks_Phase_5,250,5,42,127,898331200
25,8,23,Ticks_Phase_5,251,1,48,54,898335216
25,8,23,Ticks_Phase_5,252,5,42,127,898830592
25,8,23,Ticks_Phase_5,253,1,48,44,898843592
25,8,23,Ticks_Phase_5,254,1,48,44,899345888
25,8,23,Ticks_Phase_5,255,5,42,127,899430772
25,8,23,Ticks_Phase_5,256,5,42,127,899930392
25,8,23,Ticks_Phase_5,257,5,42,127,900431372
25,8,23,Ticks_Phase_5,258,1,48,46,900656704
25,8,23,Ticks_Phase_5,259,5,42,127,900930908
25,8,23,Ticks_Phase_5,260,1,48,45,901128544
25,8,23,Ticks_Phase_5,261,5,42,127,901430672
25,8,23,Ticks_Phase_5,262,1,48,44,901602612
25,8,23,Ticks_Phase_5,263,5,42,127,901931408
25,8,23,Ticks_Phase_5,264,1,48,32,902102500
25,8,23,Ticks_Phase_5,265,5,42,127,902431244
25,8,23,Ticks_Phase_5,266,5,42,127,902930732
25,8,23,Ticks_Phase_5,267,1,48,37,902972116
25,8,23,Ticks_Phase_5,268,1,48,45,903401704
25,8,23,Ticks_Phase_5,269,5,42,127,903430488
25,8,23,Ticks_Phase_5,270,1,48,42,903906924
25,8,23,Ticks_Phase_5,271,5,42,127,903931296
25,8,23,Ticks_Phase_5,272,1,48,44,904402548
25,8,23,Ticks_Phase_5,273,5,42,127,904431208
25,8,23,Ticks_Phase_5,274,1,48,46,904896236
25,8,23,Ticks_Phase_5,275,5,42,127,904930596
25,8,23,Ticks_Phase_5,276,1,48,44,905400052
25,8,23,Ticks_Phase_5,277,5,42,127,905431384
25,8,23,Ticks_Phase_5,278,1,48,43,905905352
25,8,23,Ticks_Phase_5,279,5,42,127,905931220
25,8,23,Ticks_Phase_5,280,1,48,41,906398908
25,8,23,Ticks_Phase_5,281,5,42,127,906430984
25,8,23,Ticks_Phase_5,282,1,48,41,906927640
25,8,23,Ticks_Phase_5,283,5,42,127,906930524
25,8,23,Ticks_Phase_5,284,5,42,127,907431264
25,8,23,Ticks_Phase_5,285,1,48,45,907442024
25,8,23,Ticks_Phase_5,286,5,42,127,907930952
25,8,23,Ticks_Phase_5,287,1,48,37,907934668
25,8,23,Ticks_Phase_5,288,5,42,127,908431016
25,8,23,Ticks_Phase_5,289,1,48,36,908434436
25,8,23,Ticks_Phase_5,290,5,42,127,908831028
25,8,23,Ticks_Phase_5,291,1,48,41,908945876
25,8,23,Ticks_Phase_5,292,5,42,127,909330940
25,8,23,Ticks_Phase_5,293,1,48,39,909424748
25,8,23,Ticks_Phase_5,294,5,42,127,909830480
25,8,23,Ticks_Phase_5,295,1,48,27,909925484
25,8,23,Ticks_Phase_5,296,5,42,127,910331288
25,8,23,Ticks_Phase_5,297,1,48,38,910358832
25,8,23,Ticks_Phase_5,298,1,48,44,910792800
25,8,23,Ticks_Phase_5,299,5,42,127,910830824
25,8,23,Ticks_Phase_5,300,1,48,38,911219252
25,8,23,Ticks_Phase_5,301,5,42,127,911331088
25,8,23,Ticks_Phase_5,302,1,48,33,911803928
25,8,23,Ticks_Phase_5,303,5,42,127,911831368
25,8,23,Ticks_Phase_5,304,1,48,45,912278448
25,8,23,Ticks_Phase_5,305,5,42,127,912331060
25,8,23,Ticks_Phase_5,306,1,48,33,912777320
25,8,23,Ticks_Phase_5,307,5,42,127,912830896
25,8,23,Ticks_Phase_5,308,1,48,32,913296700
25,8,23,Ticks_Phase_5,309,5,42,127,913330732
25,8,23,Ticks_Phase_5,310,1,48,41,913821628
25,8,23,Ticks_Phase_5,311,5,42,127,913831244
25,8,23,Ticks_Phase_5,312,5,42,127,914330936
25,8,23,Ticks_Phase_5,313,1,48,44,914335696
25,8,23,Ticks_Phase_5,314,5,42,127,914830776
25,8,23,Ticks_Phase_5,315,1,48,47,914850900
25,8,23,Ticks_Phase_5,316,1,48,35,915321892
25,8,23,Ticks_Phase_5,317,5,42,127,915330456
25,8,23,Ticks_Phase_5,318,1,48,44,915821500
25,8,23,Ticks_Phase_5,319,5,42,127,915831188
25,8,23,Ticks_Phase_5,320,1,48,43,916330588
25,8,23,Ticks_Phase_5,321,5,42,127,916332224
25,8,23,Ticks_Phase_5,322,5,42,127,916830576
25,8,23,Ticks_Phase_5,323,1,48,38,916858104
25,8,23,Ticks_Phase_5,324,5,42,127,917331460
25,8,23,Ticks_Phase_5,325,1,48,37,917354344
25,8,23,Ticks_Phase_5,326,5,42,127,917831148
25,8,23,Ticks_Phase_5,327,1,48,40,917838084
25,8,23,Ticks_Phase_5,328,5,42,127,918330612
25,8,23,Ticks_Phase_5,0,9999,9999,9999,833789008
25,8,23,Ticks_Phase_5,1,9999,9999,9999,834288716
25,8,23,Ticks_Phase_5,2,9999,9999,9999,834788428
25,8,23,Ticks_Phase_5,3,9999,9999,9999,835288188
25,8,23,Ticks_Phase_5,4,9999,9999,9999,835788868
25,8,23,Ticks_Phase_5,5,9999,9999,9999,836288580
25,8,23,Ticks_Phase_5,6,9999,9999,9999,836788288
25,8,23,Ticks_Phase_5,7,9999,9999,9999,837289048
25,8,23,Ticks_Phase_5,8,9999,9999,9999,837788752
25,8,23,Ticks_Phase_5,9,9999,9999,9999,838288436
25,8,23,Ticks_Phase_5,10,9999,9999,9999,838788208
25,8,23,Ticks_Phase_5,11,9999,9999,9999,839288932
25,8,23,Ticks_Phase_5,12,9999,9999,9999,839788620
25,8,23,Ticks_Phase_5,13,9999,9999,9999,840288312
25,8,23,Ticks_Phase_5,14,9999,9999,9999,840789120
25,8,23,Ticks_Phase_5,15,9999,9999,9999,841288808
25,8,23,Ticks_Phase_5,16,9999,9999,9999,841788496
25,8,23,Ticks_Phase_5,17,9999,9999,9999,842288184
25,8,23,Ticks_Phase_5,18,9999,9999,9999,842788916
25,8,23,Ticks_Phase_5,19,9999,9999,9999,843288680
25,8,23,Ticks_Phase_5,20,9999,9999,9999,843788408
25,8,23,Ticks_Phase_5,21,9999,9999,9999,844288068
25,8,23,Ticks_Phase_5,22,9999,9999,9999,844788792
25,8,23,Ticks_Phase_5,23,9999,9999,9999,845288564
25,8,23,Ticks_Phase_5,24,9999,9999,9999,845788228
25,8,23,Ticks_Phase_5,25,9999,9999,9999,846288960
25,8,23,Ticks_Phase_5,26,9999,9999,9999,846788724
25,8,23,Ticks_Phase_5,27,9999,9999,9999,847288412
25,8,23,Ticks_Phase_5,28,9999,9999,9999,847788096
25,8,23,Ticks_Phase_5,29,9999,9999,9999,848288840
25,8,23,Ticks_Phase_5,30,9999,9999,9999,848778336
25,8,23,Ticks_Phase_5,31,9999,9999,9999,849279072
25,8,23,Ticks_Phase_5,32,9999,9999,9999,849778768
25,8,23,Ticks_Phase_5,33,9999,9999,9999,850278524
25,8,23,Ticks_Phase_5,34,9999,9999,9999,850778220
25,8,23,Ticks_Phase_5,35,9999,9999,9999,851278948
25,8,23,Ticks_Phase_5,36,9999,9999,9999,851778636
25,8,23,Ticks_Phase_5,37,9999,9999,9999,852278396
25,8,23,Ticks_Phase_5,38,9999,9999,9999,852779132
25,8,23,Ticks_Phase_5,39,9999,9999,9999,853289080
25,8,23,Ticks_Phase_5,40,9999,9999,9999,853788768
25,8,23,Ticks_Phase_5,41,9999,9999,9999,854288460
25,8,23,Ticks_Phase_5,42,9999,9999,9999,854788220
25,8,23,Ticks_Phase_5,43,9999,9999,9999,855288888
25,8,23,Ticks_Phase_5,44,9999,9999,9999,855788644
25,8,23,Ticks_Phase_5,45,9999,9999,9999,856288404
25,8,23,Ticks_Phase_5,46,9999,9999,9999,856789112
25,8,23,Ticks_Phase_5,47,9999,9999,9999,857288804
25,8,23,Ticks_Phase_5,48,9999,9999,9999,857798756
25,8,23,Ticks_Phase_5,49,9999,9999,9999,858298440
25,8,23,Ticks_Phase_5,50,9999,9999,9999,858798136
25,8,23,Ticks_Phase_5,51,9999,9999,9999,859298940
25,8,23,Ticks_Phase_5,52,9999,9999,9999,859798628
25,8,23,Ticks_Phase_5,53,9999,9999,9999,860298320
25,8,23,Ticks_Phase_5,54,9999,9999,9999,860799048
25,8,23,Ticks_Phase_5,55,9999,9999,9999,861298812
25,8,23,Ticks_Phase_5,56,9999,9999,9999,861798508
25,8,23,Ticks_Phase_5,57,9999,9999,9999,862298196
25,8,23,Ticks_Phase_5,58,9999,9999,9999,862798932
25,8,23,Ticks_Phase_5,59,9999,9999,9999,863298684
25,8,23,Ticks_Phase_5,60,9999,9999,9999,863798380
25,8,23,Ticks_Phase_5,61,9999,9999,9999,864299116
25,8,23,Ticks_Phase_5,62,9999,9999,9999,864809056
25,8,23,Ticks_Phase_5,63,9999,9999,9999,865308744
25,8,23,Ticks_Phase_5,64,9999,9999,9999,865828952
25,8,23,Ticks_Phase_5,65,9999,9999,9999,866328640
25,8,23,Ticks_Phase_5,66,9999,9999,9999,866828404
25,8,23,Ticks_Phase_5,67,9999,9999,9999,867328100
25,8,23,Ticks_Phase_5,68,9999,9999,9999,867828832
25,8,23,Ticks_Phase_5,69,9999,9999,9999,868328520
25,8,23,Ticks_Phase_5,70,9999,9999,9999,868828260
25,8,23,Ticks_Phase_5,71,9999,9999,9999,869328996
25,8,23,Ticks_Phase_5,72,9999,9999,9999,869828684
25,8,23,Ticks_Phase_5,73,9999,9999,9999,870328444
25,8,23,Ticks_Phase_5,74,9999,9999,9999,870828128
25,8,23,Ticks_Phase_5,75,9999,9999,9999,871328868
25,8,23,Ticks_Phase_5,76,9999,9999,9999,871828556
25,8,23,Ticks_Phase_5,77,9999,9999,9999,872328244
25,8,23,Ticks_Phase_5,78,9999,9999,9999,872829056
25,8,23,Ticks_Phase_5,79,9999,9999,9999,873328744
25,8,23,Ticks_Phase_5,80,9999,9999,9999,873828432
25,8,23,Ticks_Phase_5,81,9999,9999,9999,874308724
25,8,23,Ticks_Phase_5,82,9999,9999,9999,874808412
25,8,23,Ticks_Phase_5,83,9999,9999,9999,875308100
25,8,23,Ticks_Phase_5,84,9999,9999,9999,875808836
25,8,23,Ticks_Phase_5,85,9999,9999,9999,876308600
25,8,23,Ticks_Phase_5,86,9999,9999,9999,876808288
25,8,23,Ticks_Phase_5,87,9999,9999,9999,877309020
25,8,23,Ticks_Phase_5,88,9999,9999,9999,877808712
25,8,23,Ticks_Phase_5,89,9999,9999,9999,878308472
25,8,23,Ticks_Phase_5,90,9999,9999,9999,878808136
25,8,23,Ticks_Phase_5,91,9999,9999,9999,879308872
25,8,23,Ticks_Phase_5,92,9999,9999,9999,879808632
25,8,23,Ticks_Phase_5,93,9999,9999,9999,880308324
25,8,23,Ticks_Phase_5,94,9999,9999,9999,880809056
25,8,23,Ticks_Phase_5,95,9999,9999,9999,881308740
25,8,23,Ticks_Phase_5,96,9999,9999,9999,881808500
25,8,23,Ticks_Phase_5,97,9999,9999,9999,882259068
25,8,23,Ticks_Phase_5,98,9999,9999,9999,882758756
25,8,23,Ticks_Phase_5,99,9999,9999,9999,883258444
25,8,23,Ticks_Phase_5,100,9999,9999,9999,883758132
25,8,23,Ticks_Phase_5,101,9999,9999,9999,884258944
25,8,23,Ticks_Phase_5,102,9999,9999,9999,884758632
25,8,23,Ticks_Phase_5,103,9999,9999,9999,885258320
25,8,23,Ticks_Phase_5,104,9999,9999,9999,885759056
25,8,23,Ticks_Phase_5,105,9999,9999,9999,886258744
25,8,23,Ticks_Phase_5,106,9999,9999,9999,886758476
25,8,23,Ticks_Phase_5,107,9999,9999,9999,887258220
25,8,23,Ticks_Phase_5,108,9999,9999,9999,887758932
25,8,23,Ticks_Phase_5,109,9999,9999,9999,888258620
25,8,23,Ticks_Phase_5,110,9999,9999,9999,888758384
25,8,23,Ticks_Phase_5,111,9999,9999,9999,889259116
25,8,23,Ticks_Phase_5,112,9999,9999,9999,889769064
25,8,23,Ticks_Phase_5,113,9999,9999,9999,890268756
25,8,23,Ticks_Phase_5,114,9999,9999,9999,890818684
25,8,23,Ticks_Phase_5,115,9999,9999,9999,891318380
25,8,23,Ticks_Phase_5,116,9999,9999,9999,891819116
25,8,23,Ticks_Phase_5,117,9999,9999,9999,892329056
25,8,23,Ticks_Phase_5,118,9999,9999,9999,892828792
25,8,23,Ticks_Phase_5,119,9999,9999,9999,893328444
25,8,23,Ticks_Phase_5,120,9999,9999,9999,893828204
25,8,23,Ticks_Phase_5,121,9999,9999,9999,894328940
25,8,23,Ticks_Phase_5,122,9999,9999,9999,894828628
25,8,23,Ticks_Phase_5,123,9999,9999,9999,895328316
25,8,23,Ticks_Phase_5,124,9999,9999,9999,895829052
25,8,23,Ticks_Phase_5,125,9999,9999,9999,896328812
25,8,23,Ticks_Phase_5,126,9999,9999,9999,896828496
25,8,23,Ticks_Phase_5,127,9999,9999,9999,897328192
25,8,23,Ticks_Phase_5,128,9999,9999,9999,897828928
25,8,23,Ticks_Phase_5,129,9999,9999,9999,898328688
25,8,23,Ticks_Phase_5,130,9999,9999,9999,898828376
25,8,23,Ticks_Phase_5,131,9999,9999,9999,899428408
25,8,23,Ticks_Phase_5,132,9999,9999,9999,899928180
25,8,23,Ticks_Phase_5,133,9999,9999,9999,900428860
25,8,23,Ticks_Phase_5,134,9999,9999,9999,900928624
25,8,23,Ticks_Phase_5,135,9999,9999,9999,901428312
25,8,23,Ticks_Phase_5,136,9999,9999,9999,901929048
25,8,23,Ticks_Phase_5,137,9999,9999,9999,902428732
25,8,23,Ticks_Phase_5,138,9999,9999,9999,902928444
25,8,23,Ticks_Phase_5,139,9999,9999,9999,903428200
25,8,23,Ticks_Phase_5,140,9999,9999,9999,903928936
25,8,23,Ticks_Phase_5,141,9999,9999,9999,904428624
25,8,23,Ticks_Phase_5,142,9999,9999,9999,904928312
25,8,23,Ticks_Phase_5,143,9999,9999,9999,905429096
25,8,23,Ticks_Phase_5,144,9999,9999,9999,905928784
25,8,23,Ticks_Phase_5,145,9999,9999,9999,906428472
25,8,23,Ticks_Phase_5,146,9999,9999,9999,906928236
25,8,23,Ticks_Phase_5,147,9999,9999,9999,907428980
25,8,23,Ticks_Phase_5,148,9999,9999,9999,907928668
25,8,23,Ticks_Phase_5,149,9999,9999,9999,908428356
25,8,23,Ticks_Phase_5,150,9999,9999,9999,908828744
25,8,23,Ticks_Phase_5,151,9999,9999,9999,909328504
25,8,23,Ticks_Phase_5,152,9999,9999,9999,909828196
25,8,23,Ticks_Phase_5,153,9999,9999,9999,910328928
25,8,23,Ticks_Phase_5,154,9999,9999,9999,910828612
25,8,23,Ticks_Phase_5,155,9999,9999,9999,911328356
25,8,23,Ticks_Phase_5,156,9999,9999,9999,911829084
25,8,23,Ticks_Phase_5,157,9999,9999,9999,912328772
25,8,23,Ticks_Phase_5,158,9999,9999,9999,912828532
25,8,23,Ticks_Phase_5,159,9999,9999,9999,913328220
25,8,23,Ticks_Phase_5,160,9999,9999,9999,913828956
25,8,23,Ticks_Phase_5,161,9999,9999,9999,914328652
25,8,23,Ticks_Phase_5,162,9999,9999,9999,914828412
25,8,23,Ticks_Phase_5,163,9999,9999,9999,915328096
25,8,23,Ticks_Phase_5,164,9999,9999,9999,915828828
25,8,23,Ticks_Phase_5,165,9999,9999,9999,916328524
25,8,23,Ticks_Phase_5,166,9999,9999,9999,916828212
25,8,23,Ticks_Phase_5,167,9999,9999,9999,917329020
25,8,23,Ticks_Phase_5,168,9999,9999,9999,917828712
25,8,23,Ticks_Phase_5,169,9999,9999,9999,918328400
25,9,20,Ticks_Linear_8,0,5,42,127,935072048
25,9,20,Ticks_Linear_8,1,5,42,127,935892312
25,9,20,Ticks_Linear_8,2,5,42,127,936711776
25,9,20,Ticks_Linear_8,3,5,42,127,937531744
25,9,20,Ticks_Linear_8,4,5,42,127,938352008
25,9,20,Ticks_Linear_8,5,1,48,39,938439516
25,9,20,Ticks_Linear_8,6,1,48,22,939162136
25,9,20,Ticks_Linear_8,7,5,42,127,939163704
25,9,20,Ticks_Linear_8,8,1,48,24,939935080
25,9,20,Ticks_Linear_8,9,5,42,127,939971892
25,9,20,Ticks_Linear_8,10,1,48,28,940771380
25,9,20,Ticks_Linear_8,11,5,42,127,940782048
25,9,20,Ticks_Linear_8,12,5,42,127,941591816
25,9,20,Ticks_Linear_8,13,1,48,33,941604444
25,9,20,Ticks_Linear_8,14,1,48,35,942396128
25,9,20,Ticks_Linear_8,15,5,42,127,942401868
25,9,20,Ticks_Linear_8,16,1,48,37,943198252
25,9,20,Ticks_Linear_8,17,5,42,127,943201516
25,9,20,Ticks_Linear_8,18,5,42,127,944002368
25,9,20,Ticks_Linear_8,19,1,48,30,944022716
25,9,20,Ticks_Linear_8,20,1,48,29,944808256
25,9,20,Ticks_Linear_8,21,5,42,127,944812420
25,9,20,Ticks_Linear_8,22,1,48,31,945572784
25,9,20,Ticks_Linear_8,23,5,42,127,945612292
25,9,20,Ticks_Linear_8,24,1,48,35,946408480
25,9,20,Ticks_Linear_8,25,5,42,127,946412120
25,9,20,Ticks_Linear_8,26,1,48,36,947188208
25,9,20,Ticks_Linear_8,27,5,42,127,947202408
25,9,20,Ticks_Linear_8,28,1,48,35,948000092
25,9,20,Ticks_Linear_8,29,5,42,127,948002204
25,9,20,Ticks_Linear_8,30,1,48,32,948762052
25,9,20,Ticks_Linear_8,31,5,42,127,948791596
25,9,20,Ticks_Linear_8,32,5,42,127,949582188
25,9,20,Ticks_Linear_8,33,1,48,24,949620360
25,9,20,Ticks_Linear_8,34,1,48,38,950352508
25,9,20,Ticks_Linear_8,35,5,42,127,950371724
25,9,20,Ticks_Linear_8,36,5,42,127,951152056
25,9,20,Ticks_Linear_8,37,1,48,39,951202432
25,9,20,Ticks_Linear_8,38,1,48,40,951922004
25,9,20,Ticks_Linear_8,39,5,42,127,951932224
25,9,20,Ticks_Linear_8,40,5,42,127,952711588
25,9,20,Ticks_Linear_8,41,1,48,33,952729680
25,9,20,Ticks_Linear_8,42,1,48,43,953488264
25,9,20,Ticks_Linear_8,43,5,42,127,953491908
25,9,20,Ticks_Linear_8,44,5,42,127,954272092
25,9,20,Ticks_Linear_8,45,1,48,42,954281580
25,9,20,Ticks_Linear_8,46,1,48,42,955037684
25,9,20,Ticks_Linear_8,47,5,42,127,955042076
25,9,20,Ticks_Linear_8,48,1,48,39,955812152
25,9,20,Ticks_Linear_8,49,5,42,127,955813712
25,9,20,Ticks_Linear_8,50,1,48,46,956582444
25,9,20,Ticks_Linear_8,51,5,42,127,956584084
25,9,20,Ticks_Linear_8,52,5,42,127,957352364
25,9,20,Ticks_Linear_8,53,1,48,40,957471140
25,9,20,Ticks_Linear_8,54,5,42,127,958122804
25,9,20,Ticks_Linear_8,55,1,48,32,958137756
25,9,20,Ticks_Linear_8,56,5,42,127,958882316
25,9,20,Ticks_Linear_8,57,1,48,28,958914868
25,9,20,Ticks_Linear_8,58,5,42,127,959641976
25,9,20,Ticks_Linear_8,59,1,48,35,959704556
25,9,20,Ticks_Linear_8,60,5,42,127,960401760
25,9,20,Ticks_Linear_8,61,1,48,34,960428688
25,9,20,Ticks_Linear_8,62,5,42,127,961161644
25,9,20,Ticks_Linear_8,63,1,48,31,961178092
25,9,20,Ticks_Linear_8,64,5,42,127,961922724
25,9,20,Ticks_Linear_8,65,1,48,37,961939392
25,9,20,Ticks_Linear_8,66,5,42,127,962682160
25,9,20,Ticks_Linear_8,67,1,48,39,962752308
25,9,20,Ticks_Linear_8,68,5,42,127,963431784
25,9,20,Ticks_Linear_8,69,1,48,33,963442468
25,9,20,Ticks_Linear_8,70,5,42,127,964182384
25,9,20,Ticks_Linear_8,71,1,48,30,964193592
25,9,20,Ticks_Linear_8,72,1,48,41,964916076
25,9,20,Ticks_Linear_8,73,5,42,127,964932072
25,9,20,Ticks_Linear_8,74,1,48,35,965675068
25,9,20,Ticks_Linear_8,75,5,42,127,965681476
25,9,20,Ticks_Linear_8,76,5,42,127,966421968
25,9,20,Ticks_Linear_8,77,1,48,37,966431456
25,9,20,Ticks_Linear_8,78,1,48,41,967150956
25,9,20,Ticks_Linear_8,79,5,42,127,967162372
25,9,20,Ticks_Linear_8,80,5,42,127,967901448
25,9,20,Ticks_Linear_8,81,1,48,32,967973760
25,9,20,Ticks_Linear_8,82,1,48,32,968613928
25,9,20,Ticks_Linear_8,83,5,42,127,968641904
25,9,20,Ticks_Linear_8,84,5,42,127,969382248
25,9,20,Ticks_Linear_8,85,1,48,41,969416744
25,9,20,Ticks_Linear_8,86,5,42,127,970112324
25,9,20,Ticks_Linear_8,87,1,48,42,970136188
25,9,20,Ticks_Linear_8,88,1,48,38,970838308
25,9,20,Ticks_Linear_8,89,5,42,127,970841428
25,9,20,Ticks_Linear_8,90,1,48,36,971569056
25,9,20,Ticks_Linear_8,91,5,42,127,971571580
25,9,20,Ticks_Linear_8,92,5,42,127,972301664
25,9,20,Ticks_Linear_8,93,1,48,37,972341708
25,9,20,Ticks_Linear_8,94,5,42,127,973031744
25,9,20,Ticks_Linear_8,95,1,48,37,973044372
25,9,20,Ticks_Linear_8,96,5,42,127,973751688
25,9,20,Ticks_Linear_8,97,1,48,30,973780572
25,9,20,Ticks_Linear_8,98,5,42,127,974471432
25,9,20,Ticks_Linear_8,99,1,48,29,974510504
25,9,20,Ticks_Linear_8,100,5,42,127,975192372
25,9,20,Ticks_Linear_8,101,1,48,33,975200140
25,9,20,Ticks_Linear_8,102,1,48,21,975267360
25,9,20,Ticks_Linear_8,103,1,48,42,975880524
25,9,20,Ticks_Linear_8,104,5,42,127,975921600
25,9,20,Ticks_Linear_8,105,1,48,25,975942080
25,9,20,Ticks_Linear_8,106,5,42,127,976642376
25,9,20,Ticks_Linear_8,107,1,48,39,976651040
25,9,20,Ticks_Linear_8,108,1,48,41,977350220
25,9,20,Ticks_Linear_8,109,5,42,127,977362312
25,9,20,Ticks_Linear_8,110,5,42,127,978072028
25,9,20,Ticks_Linear_8,111,1,48,37,978080924
25,9,20,Ticks_Linear_8,112,1,48,33,978767756
25,9,20,Ticks_Linear_8,113,5,42,127,978781656
25,9,20,Ticks_Linear_8,114,1,48,38,979454700
25,9,20,Ticks_Linear_8,115,5,42,127,979492188
25,9,20,Ticks_Linear_8,116,5,42,127,980201832
25,9,20,Ticks_Linear_8,117,1,48,31,980277812
25,9,20,Ticks_Linear_8,118,5,42,127,980902152
25,9,20,Ticks_Linear_8,119,1,48,34,980923992
25,9,20,Ticks_Linear_8,120,1,48,37,981579916
25,9,20,Ticks_Linear_8,121,5,42,127,981601596
25,9,20,Ticks_Linear_8,122,5,42,127,982301952
25,9,20,Ticks_Linear_8,123,1,48,34,982305516
25,9,20,Ticks_Linear_8,124,1,48,38,982993164
25,9,20,Ticks_Linear_8,125,5,42,127,983001840
25,9,20,Ticks_Linear_8,126,5,42,127,983701872
25,9,20,Ticks_Linear_8,127,1,48,36,983732028
25,9,20,Ticks_Linear_8,128,5,42,127,984392184
25,9,20,Ticks_Linear_8,129,1,48,34,984436708
25,9,20,Ticks_Linear_8,130,5,42,127,985082344
25,9,20,Ticks_Linear_8,131,1,48,42,985101348
25,9,20,Ticks_Linear_8,132,5,42,127,985772484
25,9,20,Ticks_Linear_8,133,1,48,43,985798364
25,9,20,Ticks_Linear_8,134,5,42,127,986461672
25,9,20,Ticks_Linear_8,135,1,48,33,986481796
25,9,20,Ticks_Linear_8,136,5,42,127,987151688
25,9,20,Ticks_Linear_8,137,1,48,36,987163868
25,9,20,Ticks_Linear_8,138,5,42,127,987831640
25,9,20,Ticks_Linear_8,139,1,48,29,987853408
25,9,20,Ticks_Linear_8,140,5,42,127,988511544
25,9,20,Ticks_Linear_8,141,1,48,36,988538620
25,9,20,Ticks_Linear_8,142,1,48,39,989156344
25,9,20,Ticks_Linear_8,143,5,42,127,989191516
25,9,20,Ticks_Linear_8,144,5,42,127,989871476
25,9,20,Ticks_Linear_8,145,1,48,33,989888524
25,9,20,Ticks_Linear_8,146,5,42,127,990552352
25,9,20,Ticks_Linear_8,147,1,48,41,990575464
25,9,20,Ticks_Linear_8,148,5,42,127,991232332
25,9,20,Ticks_Linear_8,149,1,48,40,991250736
25,9,20,Ticks_Linear_8,150,1,48,42,991877036
25,9,20,Ticks_Linear_8,151,5,42,127,991902316
25,9,20,Ticks_Linear_8,152,5,42,127,992571744
25,9,20,Ticks_Linear_8,153,1,48,40,992614252
25,9,20,Ticks_Linear_8,154,5,42,127,993241540
25,9,20,Ticks_Linear_8,155,1,48,38,993307036
25,9,20,Ticks_Linear_8,156,5,42,127,993912132
25,9,20,Ticks_Linear_8,157,1,48,41,993924316
25,9,20,Ticks_Linear_8,158,5,42,127,994571516
25,9,20,Ticks_Linear_8,159,1,48,37,994592460
25,9,20,Ticks_Linear_8,160,5,42,127,995232000
25,9,20,Ticks_Linear_8,161,1,48,35,995250404
25,9,20,Ticks_Linear_8,162,1,48,38,995889640
25,9,20,Ticks_Linear_8,163,5,42,127,995891528
25,9,20,Ticks_Linear_8,164,5,42,127,996552092
25,9,20,Ticks_Linear_8,165,1,48,49,996578072
25,9,20,Ticks_Linear_8,166,5,42,127,997211480
25,9,20,Ticks_Linear_8,167,1,48,40,997286560
25,9,20,Ticks_Linear_8,168,5,42,127,997861876
25,9,20,Ticks_Linear_8,169,1,48,31,997868136
25,9,20,Ticks_Linear_8,170,1,48,33,998468232
25,9,20,Ticks_Linear_8,171,5,42,127,998511940
25,9,20,Ticks_Linear_8,172,5,42,127,999162344
25,9,20,Ticks_Linear_8,173,1,48,32,999166880
25,9,20,Ticks_Linear_8,174,1,48,27,999807128
25,9,20,Ticks_Linear_8,175,5,42,127,999811368
25,9,20,Ticks_Linear_8,176,5,42,127,1000461920
25,9,20,Ticks_Linear_8,177,1,48,39,1000484360
25,9,20,Ticks_Linear_8,178,5,42,127,1001101884
25,9,20,Ticks_Linear_8,179,1,48,35,1001123876
25,9,20,Ticks_Linear_8,180,5,42,127,1001741872
25,9,20,Ticks_Linear_8,181,1,48,37,1001789560
25,9,20,Ticks_Linear_8,182,5,42,127,1002381836
25,9,20,Ticks_Linear_8,183,1,48,38,1002481288
25,9,20,Ticks_Linear_8,184,5,42,127,1003021824
25,9,20,Ticks_Linear_8,185,1,48,30,1003060520
25,9,20,Ticks_Linear_8,186,5,42,127,1003661788
25,9,20,Ticks_Linear_8,187,1,48,30,1003670608
25,9,20,Ticks_Linear_8,188,1,48,35,1004286744
25,9,20,Ticks_Linear_8,189,5,42,127,1004291960
25,9,20,Ticks_Linear_8,190,5,42,127,1004922196
25,9,20,Ticks_Linear_8,191,1,48,23,1004961636
25,9,20,Ticks_Linear_8,192,5,42,127,1005551924
25,9,20,Ticks_Linear_8,193,1,48,38,1005575036
25,9,20,Ticks_Linear_8,194,5,42,127,1006181704
25,9,20,Ticks_Linear_8,195,1,48,38,1006229616
25,9,20,Ticks_Linear_8,196,5,42,127,1006811660
25,9,20,Ticks_Linear_8,197,1,48,35,1006821148
25,9,20,Ticks_Linear_8,198,5,42,127,1007432076
25,9,20,Ticks_Linear_8,199,1,48,35,1007448968
25,9,20,Ticks_Linear_8,200,5,42,127,1008051596
25,9,20,Ticks_Linear_8,201,1,48,38,1008059964
25,9,20,Ticks_Linear_8,202,5,42,127,1008672264
25,9,20,Ticks_Linear_8,203,1,48,34,1008691640
25,9,20,Ticks_Linear_8,204,5,42,127,1009291632
25,9,20,Ticks_Linear_8,205,1,48,43,1009321716
25,9,20,Ticks_Linear_8,206,5,42,127,1009912300
25,9,20,Ticks_Linear_8,207,1,48,38,1009947844
25,9,20,Ticks_Linear_8,208,5,42,127,1010521560
25,9,20,Ticks_Linear_8,209,1,48,31,1010561232
25,9,20,Ticks_Linear_8,210,5,42,127,1011131796
25,9,20,Ticks_Linear_8,211,1,48,36,1011151840
25,9,20,Ticks_Linear_8,212,5,42,127,1011742128
25,9,20,Ticks_Linear_8,213,1,48,40,1011770188
25,9,20,Ticks_Linear_8,214,5,42,127,1012352360
25,9,20,Ticks_Linear_8,215,1,48,40,1012398240
25,9,20,Ticks_Linear_8,216,5,42,127,1012961648
25,9,20,Ticks_Linear_8,217,1,48,35,1012988276
25,9,20,Ticks_Linear_8,218,5,42,127,1013561620
25,9,20,Ticks_Linear_8,219,1,48,40,1013624496
25,9,20,Ticks_Linear_8,220,1,48,23,1013686484
25,9,20,Ticks_Linear_8,221,5,42,127,1014161796
25,9,20,Ticks_Linear_8,222,1,48,30,1014277644
25,9,20,Ticks_Linear_8,223,5,42,127,1014762092
25,9,20,Ticks_Linear_8,224,1,48,29,1014803108
25,9,20,Ticks_Linear_8,225,5,42,127,1015362140
25,9,20,Ticks_Linear_8,226,1,48,29,1015384360
25,9,20,Ticks_Linear_8,227,1,48,28,1015931968
25,9,20,Ticks_Linear_8,228,5,42,127,1015962184
25,9,20,Ticks_Linear_8,229,1,48,27,1016503032
25,9,20,Ticks_Linear_8,230,5,42,127,1016551924
25,9,20,Ticks_Linear_8,231,1,48,24,1017113140
25,9,20,Ticks_Linear_8,232,5,42,127,1017141492
25,9,20,Ticks_Linear_8,233,1,48,30,1017730076
25,9,20,Ticks_Linear_8,234,5,42,127,1017731876
25,9,20,Ticks_Linear_8,235,5,42,127,1018322272
25,9,20,Ticks_Linear_8,236,1,48,23,1018343916
25,9,20,Ticks_Linear_8,237,5,42,127,1018912012
25,9,20,Ticks_Linear_8,238,1,48,19,1018997356
25,9,20,Ticks_Linear_8,239,5,42,127,1019491992
25,9,20,Ticks_Linear_8,240,1,48,27,1019539212
25,9,20,Ticks_Linear_8,241,5,42,127,1020072268
25,9,20,Ticks_Linear_8,242,1,48,28,1020073308
25,9,20,Ticks_Linear_8,243,5,42,127,1020651900
25,9,20,Ticks_Linear_8,244,1,48,32,1020654344
25,9,20,Ticks_Linear_8,245,5,42,127,1021231432
25,9,20,Ticks_Linear_8,246,1,48,29,1021237544
25,9,20,Ticks_Linear_8,247,1,48,30,1021806716
25,9,20,Ticks_Linear_8,248,5,42,127,1021812152
25,9,20,Ticks_Linear_8,249,5,42,127,1022381576
25,9,20,Ticks_Linear_8,250,1,48,36,1022382544
25,9,20,Ticks_Linear_8,251,5,42,127,1022951920
25,9,20,Ticks_Linear_8,252,1,48,36,1022978180
25,9,20,Ticks_Linear_8,253,1,48,29,1023503768
25,9,20,Ticks_Linear_8,254,5,42,127,1023522084
25,9,20,Ticks_Linear_8,255,1,48,42,1024069584
25,9,20,Ticks_Linear_8,256,5,42,127,1024091652
25,9,20,Ticks_Linear_8,257,5,42,127,1024661756
25,9,20,Ticks_Linear_8,258,1,48,42,1024663620
25,9,20,Ticks_Linear_8,259,5,42,127,1025221964
25,9,20,Ticks_Linear_8,260,1,48,40,1025242188
25,9,20,Ticks_Linear_8,261,5,42,127,1025782048
25,9,20,Ticks_Linear_8,262,1,48,33,1025801944
25,9,20,Ticks_Linear_8,263,5,42,127,1026342332
25,9,20,Ticks_Linear_8,264,1,48,35,1026344344
25,9,20,Ticks_Linear_8,265,1,48,38,1026868184
25,9,20,Ticks_Linear_8,266,5,42,127,1026902680
25,9,20,Ticks_Linear_8,267,5,42,127,1027461700
25,9,20,Ticks_Linear_8,268,1,48,29,1027487732
25,9,20,Ticks_Linear_8,269,1,48,34,1027994680
25,9,20,Ticks_Linear_8,270,5,42,127,1028012392
25,9,20,Ticks_Linear_8,271,5,42,127,1028562420
25,9,20,Ticks_Linear_8,272,1,48,40,1028568188
25,9,20,Ticks_Linear_8,273,5,42,127,1029112320
25,9,20,Ticks_Linear_8,274,1,48,39,1029140456
25,9,20,Ticks_Linear_8,275,5,42,127,1029662120
25,9,20,Ticks_Linear_8,276,1,48,38,1029706720
25,9,20,Ticks_Linear_8,277,1,48,34,1030205128
25,9,20,Ticks_Linear_8,278,5,42,127,1030211992
25,9,20,Ticks_Linear_8,279,5,42,127,1030751464
25,9,20,Ticks_Linear_8,280,1,48,42,1030752428
25,9,20,Ticks_Linear_8,281,5,42,127,1031292496
25,9,20,Ticks_Linear_8,282,1,48,36,1031335752
25,9,20,Ticks_Linear_8,283,5,42,127,1031831888
25,9,20,Ticks_Linear_8,284,1,48,32,1031838372
25,9,20,Ticks_Linear_8,285,1,48,35,1032335804
25,9,20,Ticks_Linear_8,286,5,42,127,1032371572
25,9,20,Ticks_Linear_8,287,5,42,127,1032912464
25,9,20,Ticks_Linear_8,288,1,48,36,1032917776
25,9,20,Ticks_Linear_8,289,5,42,127,1033441844
25,9,20,Ticks_Linear_8,290,1,48,29,1033487424
25,9,20,Ticks_Linear_8,291,5,42,127,1033972172
25,9,20,Ticks_Linear_8,292,1,48,32,1034017600
25,9,20,Ticks_Linear_8,293,5,42,127,1034501456
25,9,20,Ticks_Linear_8,294,1,48,33,1034540524
25,9,20,Ticks_Linear_8,295,5,42,127,1035031784
25,9,20,Ticks_Linear_8,296,1,48,28,1035098996
25,9,20,Ticks_Linear_8,297,5,42,127,1035562412
25,9,20,Ticks_Linear_8,298,1,48,28,1035607912
25,9,20,Ticks_Linear_8,299,5,42,127,1036081584
25,9,20,Ticks_Linear_8,300,1,48,31,1036110392
25,9,20,Ticks_Linear_8,301,5,42,127,1036601728
25,9,20,Ticks_Linear_8,302,1,48,31,1036613908
25,9,20,Ticks_Linear_8,303,5,42,127,1037122020
25,9,20,Ticks_Linear_8,304,1,48,33,1037133156
25,9,20,Ticks_Linear_8,305,5,42,127,1037642016
25,9,20,Ticks_Linear_8,306,1,48,31,1037666096
25,9,20,Ticks_Linear_8,307,1,48,38,1038135144
25,9,20,Ticks_Linear_8,308,5,42,127,1038162300
25,9,20,Ticks_Linear_8,309,5,42,127,1038672268
25,9,20,Ticks_Linear_8,310,1,48,38,1038695532
25,9,20,Ticks_Linear_8,311,5,42,127,1039182152
25,9,20,Ticks_Linear_8,312,1,48,29,1039213280
25,9,20,Ticks_Linear_8,313,5,42,127,1039692112
25,9,20,Ticks_Linear_8,314,1,48,29,1039744432
25,9,20,Ticks_Linear_8,315,5,42,127,1040202072
25,9,20,Ticks_Linear_8,316,1,48,27,1040270424
25,9,20,Ticks_Linear_8,317,5,42,127,1040712104
25,9,20,Ticks_Linear_8,318,1,48,32,1040791536
25,9,20,Ticks_Linear_8,319,5,42,127,1041211952
25,9,20,Ticks_Linear_8,320,1,48,25,1041325752
25,9,20,Ticks_Linear_8,321,5,42,127,1041711356
25,9,20,Ticks_Linear_8,322,1,48,28,1041758124
25,9,20,Ticks_Linear_8,323,1,48,22,1042172140
25,9,20,Ticks_Linear_8,324,5,42,127,1042212096
25,9,20,Ticks_Linear_8,325,1,48,27,1042709124
25,9,20,Ticks_Linear_8,326,5,42,127,1042711868
25,9,20,Ticks_Linear_8,327,5,42,127,1043211800
25,9,20,Ticks_Linear_8,328,1,48,32,1043242628
25,9,20,Ticks_Linear_8,329,5,42,127,1043701992
25,9,20,Ticks_Linear_8,330,1,48,27,1043756704
25,9,20,Ticks_Linear_8,331,5,42,127,1044191804
25,9,20,Ticks_Linear_8,332,1,48,32,1044247268
25,9,20,Ticks_Linear_8,333,5,42,127,1044681972
25,9,20,Ticks_Linear_8,334,1,48,30,1044686580
25,9,20,Ticks_Linear_8,335,1,48,33,1045121788
25,9,20,Ticks_Linear_8,336,5,42,127,1045171700
25,9,20,Ticks_Linear_8,337,1,48,33,1045586504
25,9,20,Ticks_Linear_8,338,5,42,127,1045662116
25,9,20,Ticks_Linear_8,0,9999,9999,9999,935069820
25,9,20,Ticks_Linear_8,1,9999,9999,9999,935890012
25,9,20,Ticks_Linear_8,2,9999,9999,9999,936709180
25,9,20,Ticks_Linear_8,3,9999,9999,9999,937529444
25,9,20,Ticks_Linear_8,4,9999,9999,9999,938349632
25,9,20,Ticks_Linear_8,5,9999,9999,9999,939159616
25,9,20,Ticks_Linear_8,6,9999,9999,9999,939969592
25,9,20,Ticks_Linear_8,7,9999,9999,9999,940779600
25,9,20,Ticks_Linear_8,8,9999,9999,9999,941589592
25,9,20,Ticks_Linear_8,9,9999,9999,9999,942399568
25,9,20,Ticks_Linear_8,10,9999,9999,9999,943199292
25,9,20,Ticks_Linear_8,11,9999,9999,9999,944000072
25,9,20,Ticks_Linear_8,12,9999,9999,9999,944810048
25,9,20,Ticks_Linear_8,13,9999,9999,9999,945609844
25,9,20,Ticks_Linear_8,14,9999,9999,9999,946409596
25,9,20,Ticks_Linear_8,15,9999,9999,9999,947200108
25,9,20,Ticks_Linear_8,16,9999,9999,9999,947999872
25,9,20,Ticks_Linear_8,17,9999,9999,9999,948789372
25,9,20,Ticks_Linear_8,18,9999,9999,9999,949579888
25,9,20,Ticks_Linear_8,19,9999,9999,9999,950369348
25,9,20,Ticks_Linear_8,20,9999,9999,9999,951149680
25,9,20,Ticks_Linear_8,21,9999,9999,9999,951929928
25,9,20,Ticks_Linear_8,22,9999,9999,9999,952709216
25,9,20,Ticks_Linear_8,23,9999,9999,9999,953489532
25,9,20,Ticks_Linear_8,24,9999,9999,9999,954269792
25,9,20,Ticks_Linear_8,25,9999,9999,9999,955039852
25,9,20,Ticks_Linear_8,26,9999,9999,9999,955809856
25,9,20,Ticks_Linear_8,27,9999,9999,9999,956579920
25,9,20,Ticks_Linear_8,28,9999,9999,9999,957349992
25,9,20,Ticks_Linear_8,29,9999,9999,9999,958120060
25,9,20,Ticks_Linear_8,30,9999,9999,9999,958879868
25,9,20,Ticks_Linear_8,31,9999,9999,9999,959639676
25,9,20,Ticks_Linear_8,32,9999,9999,9999,960399460
25,9,20,Ticks_Linear_8,33,9999,9999,9999,961159272
25,9,20,Ticks_Linear_8,34,9999,9999,9999,961920128
25,9,20,Ticks_Linear_8,35,9999,9999,9999,962679864
25,9,20,Ticks_Linear_8,36,9999,9999,9999,963429488
25,9,20,Ticks_Linear_8,37,9999,9999,9999,964180084
25,9,20,Ticks_Linear_8,38,9999,9999,9999,964929628
25,9,20,Ticks_Linear_8,39,9999,9999,9999,965679176
25,9,20,Ticks_Linear_8,40,9999,9999,9999,966419520
25,9,20,Ticks_Linear_8,41,9999,9999,9999,967159924
25,9,20,Ticks_Linear_8,42,9999,9999,9999,967899224
25,9,20,Ticks_Linear_8,43,9999,9999,9999,968639604
25,9,20,Ticks_Linear_8,44,9999,9999,9999,969379948
25,9,20,Ticks_Linear_8,45,9999,9999,9999,970110028
25,9,20,Ticks_Linear_8,46,9999,9999,9999,970839128
25,9,20,Ticks_Linear_8,47,9999,9999,9999,971569204
25,9,20,Ticks_Linear_8,48,9999,9999,9999,972299364
25,9,20,Ticks_Linear_8,49,9999,9999,9999,973029444
25,9,20,Ticks_Linear_8,50,9999,9999,9999,973749316
25,9,20,Ticks_Linear_8,51,9999,9999,9999,974469208
25,9,20,Ticks_Linear_8,52,9999,9999,9999,975190076
25,9,20,Ticks_Linear_8,53,9999,9999,9999,975919228
25,9,20,Ticks_Linear_8,54,9999,9999,9999,976640076
25,9,20,Ticks_Linear_8,55,9999,9999,9999,977359940
25,9,20,Ticks_Linear_8,56,9999,9999,9999,978069580
25,9,20,Ticks_Linear_8,57,9999,9999,9999,978779208
25,9,20,Ticks_Linear_8,58,9999,9999,9999,979489888
25,9,20,Ticks_Linear_8,59,9999,9999,9999,980199532
25,9,20,Ticks_Linear_8,60,9999,9999,9999,980899928
25,9,20,Ticks_Linear_8,61,9999,9999,9999,981599296
25,9,20,Ticks_Linear_8,62,9999,9999,9999,982299728
25,9,20,Ticks_Linear_8,63,9999,9999,9999,982999096
25,9,20,Ticks_Linear_8,64,9999,9999,9999,983699572
25,9,20,Ticks_Linear_8,65,9999,9999,9999,984389736
25,9,20,Ticks_Linear_8,66,9999,9999,9999,985079900
25,9,20,Ticks_Linear_8,67,9999,9999,9999,985770036
25,9,20,Ticks_Linear_8,68,9999,9999,9999,986459224
25,9,20,Ticks_Linear_8,69,9999,9999,9999,987149388
25,9,20,Ticks_Linear_8,70,9999,9999,9999,987829344
25,9,20,Ticks_Linear_8,71,9999,9999,9999,988509244
25,9,20,Ticks_Linear_8,72,9999,9999,9999,989189220
25,9,20,Ticks_Linear_8,73,9999,9999,9999,989869180
25,9,20,Ticks_Linear_8,74,9999,9999,9999,990550128
25,9,20,Ticks_Linear_8,75,9999,9999,9999,991230032
25,9,20,Ticks_Linear_8,76,9999,9999,9999,991899720
25,9,20,Ticks_Linear_8,77,9999,9999,9999,992569448
25,9,20,Ticks_Linear_8,78,9999,9999,9999,993239168
25,9,20,Ticks_Linear_8,79,9999,9999,9999,993909832
25,9,20,Ticks_Linear_8,80,9999,9999,9999,994569292
25,9,20,Ticks_Linear_8,81,9999,9999,9999,995229776
25,9,20,Ticks_Linear_8,82,9999,9999,9999,995889260
25,9,20,Ticks_Linear_8,83,9999,9999,9999,996549716
25,9,20,Ticks_Linear_8,84,9999,9999,9999,997209180
25,9,20,Ticks_Linear_8,85,9999,9999,9999,997859428
25,9,20,Ticks_Linear_8,86,9999,9999,9999,998509640
25,9,20,Ticks_Linear_8,87,9999,9999,9999,999159896
25,9,20,Ticks_Linear_8,88,9999,9999,9999,999809144
25,9,20,Ticks_Linear_8,89,9999,9999,9999,1000459320
25,9,20,Ticks_Linear_8,90,9999,9999,9999,1001099360
25,9,20,Ticks_Linear_8,91,9999,9999,9999,1001739348
25,9,20,Ticks_Linear_8,92,9999,9999,9999,1002379388
25,9,20,Ticks_Linear_8,93,9999,9999,9999,1003019376
25,9,20,Ticks_Linear_8,94,9999,9999,9999,1003659340
25,9,20,Ticks_Linear_8,95,9999,9999,9999,1004289140
25,9,20,Ticks_Linear_8,96,9999,9999,9999,1004919896
25,9,20,Ticks_Linear_8,97,9999,9999,9999,1005549624
25,9,20,Ticks_Linear_8,98,9999,9999,9999,1006179404
25,9,20,Ticks_Linear_8,99,9999,9999,9999,1006809212
25,9,20,Ticks_Linear_8,100,9999,9999,9999,1007429704
25,9,20,Ticks_Linear_8,101,9999,9999,9999,1008049224
25,9,20,Ticks_Linear_8,102,9999,9999,9999,1008669816
25,9,20,Ticks_Linear_8,103,9999,9999,9999,1009289336
25,9,20,Ticks_Linear_8,104,9999,9999,9999,1009909852
25,9,20,Ticks_Linear_8,105,9999,9999,9999,1010519112
25,9,20,Ticks_Linear_8,106,9999,9999,9999,1011129420
25,9,20,Ticks_Linear_8,107,9999,9999,9999,1011739756
25,9,20,Ticks_Linear_8,108,9999,9999,9999,1012350060
25,9,20,Ticks_Linear_8,109,9999,9999,9999,1012959348
25,9,20,Ticks_Linear_8,110,9999,9999,9999,1013559396
25,9,20,Ticks_Linear_8,111,9999,9999,9999,1014159420
25,9,20,Ticks_Linear_8,112,9999,9999,9999,1014759496
25,9,20,Ticks_Linear_8,113,9999,9999,9999,1015359544
25,9,20,Ticks_Linear_8,114,9999,9999,9999,1015959660
25,9,20,Ticks_Linear_8,115,9999,9999,9999,1016549476
25,9,20,Ticks_Linear_8,116,9999,9999,9999,1017139268
25,9,20,Ticks_Linear_8,117,9999,9999,9999,1017729140
25,9,20,Ticks_Linear_8,118,9999,9999,9999,1018319976
25,9,20,Ticks_Linear_8,119,9999,9999,9999,1018909788
25,9,20,Ticks_Linear_8,120,9999,9999,9999,1019489396
25,9,20,Ticks_Linear_8,121,9999,9999,9999,1020069972
25,9,20,Ticks_Linear_8,122,9999,9999,9999,1020649528
25,9,20,Ticks_Linear_8,123,9999,9999,9999,1021229132
25,9,20,Ticks_Linear_8,124,9999,9999,9999,1021809776
25,9,20,Ticks_Linear_8,125,9999,9999,9999,1022379128
25,9,20,Ticks_Linear_8,126,9999,9999,9999,1022949472
25,9,20,Ticks_Linear_8,127,9999,9999,9999,1023519860
25,9,20,Ticks_Linear_8,128,9999,9999,9999,1024089204
25,9,20,Ticks_Linear_8,129,9999,9999,9999,1024659528
25,9,20,Ticks_Linear_8,130,9999,9999,9999,1025219668
25,9,20,Ticks_Linear_8,131,9999,9999,9999,1025779824
25,9,20,Ticks_Linear_8,132,9999,9999,9999,1026339956
25,9,20,Ticks_Linear_8,133,9999,9999,9999,1026900084
25,9,20,Ticks_Linear_8,134,9999,9999,9999,1027459180
25,9,20,Ticks_Linear_8,135,9999,9999,9999,1028010092
25,9,20,Ticks_Linear_8,136,9999,9999,9999,1028559972
25,9,20,Ticks_Linear_8,137,9999,9999,9999,1029109872
25,9,20,Ticks_Linear_8,138,9999,9999,9999,1029659748
25,9,20,Ticks_Linear_8,139,9999,9999,9999,1030209616
25,9,20,Ticks_Linear_8,140,9999,9999,9999,1030749240
25,9,20,Ticks_Linear_8,141,9999,9999,9999,1031289972
25,9,20,Ticks_Linear_8,142,9999,9999,9999,1031829588
25,9,20,Ticks_Linear_8,143,9999,9999,9999,1032369272
25,9,20,Ticks_Linear_8,144,9999,9999,9999,1032909940
25,9,20,Ticks_Linear_8,145,9999,9999,9999,1033439324
25,9,20,Ticks_Linear_8,146,9999,9999,9999,1033969724
25,9,20,Ticks_Linear_8,147,9999,9999,9999,1034499156
25,9,20,Ticks_Linear_8,148,9999,9999,9999,1035029560
25,9,20,Ticks_Linear_8,149,9999,9999,9999,1035560036
25,9,20,Ticks_Linear_8,150,9999,9999,9999,1036079208
25,9,20,Ticks_Linear_8,151,9999,9999,9999,1036599352
25,9,20,Ticks_Linear_8,152,9999,9999,9999,1037119572
25,9,20,Ticks_Linear_8,153,9999,9999,9999,1037639788
25,9,20,Ticks_Linear_8,154,9999,9999,9999,1038159928
25,9,20,Ticks_Linear_8,155,9999,9999,9999,1038669896
25,9,20,Ticks_Linear_8,156,9999,9999,9999,1039179852
25,9,20,Ticks_Linear_8,157,9999,9999,9999,1039689812
25,9,20,Ticks_Linear_8,158,9999,9999,9999,1040199772
25,9,20,Ticks_Linear_8,159,9999,9999,9999,1040709732
25,9,20,Ticks_Linear_8,160,9999,9999,9999,1041209432
25,9,20,Ticks_Linear_8,161,9999,9999,9999,1041709132
25,9,20,Ticks_Linear_8,162,9999,9999,9999,1042209872
25,9,20,Ticks_Linear_8,163,9999,9999,9999,1042709572
25,9,20,Ticks_Linear_8,164,9999,9999,9999,1043209276
25,9,20,Ticks_Linear_8,165,9999,9999,9999,1043699764
25,9,20,Ticks_Linear_8,166,9999,9999,9999,1044189284
25,9,20,Ticks_Linear_8,167,9999,9999,9999,1044679744
25,9,20,Ticks_Linear_8,168,9999,9999,9999,1045169256
25,9,20,Ticks_Linear_8,169,9999,9999,9999,1045659740
25,10,21,Ticks_Linear_5,0,5,42,127,1059762432
25,10,21,Ticks_Linear_5,1,5,42,127,1060242684
25,10,21,Ticks_Linear_5,2,5,42,127,1060723080
25,10,21,Ticks_Linear_5,3,5,42,127,1061203332
25,10,21,Ticks_Linear_5,4,5,42,127,1061682536
25,10,21,Ticks_Linear_5,5,5,42,127,1062173044
25,10,21,Ticks_Linear_5,6,5,42,127,1062662580
25,10,21,Ticks_Linear_5,7,5,42,127,1063153164
25,10,21,Ticks_Linear_5,8,1,48,48,1063617016
25,10,21,Ticks_Linear_5,9,5,42,127,1063642544
25,10,21,Ticks_Linear_5,10,1,48,49,1064091480
25,10,21,Ticks_Linear_5,11,5,42,127,1064133008
25,10,21,Ticks_Linear_5,12,1,48,40,1064589076
25,10,21,Ticks_Linear_5,13,5,42,127,1064632632
25,10,21,Ticks_Linear_5,14,1,48,35,1065091028
25,10,21,Ticks_Linear_5,15,5,42,127,1065133380
25,10,21,Ticks_Linear_5,16,1,48,38,1065614544
25,10,21,Ticks_Linear_5,17,5,42,127,1065643264
25,10,21,Ticks_Linear_5,18,1,48,37,1066100676
25,10,21,Ticks_Linear_5,19,5,42,127,1066143184
25,10,21,Ticks_Linear_5,20,1,48,42,1066607796
25,10,21,Ticks_Linear_5,21,5,42,127,1066642812
25,10,21,Ticks_Linear_5,22,1,48,41,1067141280
25,10,21,Ticks_Linear_5,23,5,42,127,1067152992
25,10,21,Ticks_Linear_5,24,1,48,30,1067641576
25,10,21,Ticks_Linear_5,25,5,42,127,1067662656
25,10,21,Ticks_Linear_5,26,1,48,40,1068129512
25,10,21,Ticks_Linear_5,27,5,42,127,1068172768
25,10,21,Ticks_Linear_5,28,1,48,44,1068641500
25,10,21,Ticks_Linear_5,29,5,42,127,1068682800
25,10,21,Ticks_Linear_5,30,1,48,44,1069134908
25,10,21,Ticks_Linear_5,31,5,42,127,1069192684
25,10,21,Ticks_Linear_5,32,1,48,35,1069662688
25,10,21,Ticks_Linear_5,33,5,42,127,1069712680
25,10,21,Ticks_Linear_5,34,1,48,40,1070162392
25,10,21,Ticks_Linear_5,35,5,42,127,1070233048
25,10,21,Ticks_Linear_5,36,1,48,46,1070681712
25,10,21,Ticks_Linear_5,37,5,42,127,1070753268
25,10,21,Ticks_Linear_5,38,1,48,43,1071218620
25,10,21,Ticks_Linear_5,39,5,42,127,1071273632
25,10,21,Ticks_Linear_5,40,5,42,127,1071792664
25,10,21,Ticks_Linear_5,41,1,48,42,1071829056
25,10,21,Ticks_Linear_5,42,1,48,39,1072304596
25,10,21,Ticks_Linear_5,43,5,42,127,1072322836
25,10,21,Ticks_Linear_5,44,1,48,37,1072830588
25,10,21,Ticks_Linear_5,45,5,42,127,1072853632
25,10,21,Ticks_Linear_5,46,1,48,38,1073323468
25,10,21,Ticks_Linear_5,47,5,42,127,1073382840
25,10,21,Ticks_Linear_5,48,1,48,40,1073883328
25,10,21,Ticks_Linear_5,49,5,42,127,1073913316
25,10,21,Ticks_Linear_5,50,1,48,42,1074381056
25,10,21,Ticks_Linear_5,51,5,42,127,1074442524
25,10,21,Ticks_Linear_5,52,1,48,40,1074938580
25,10,21,Ticks_Linear_5,53,5,42,127,1074983484
25,10,21,Ticks_Linear_5,54,1,48,35,1075491756
25,10,21,Ticks_Linear_5,55,5,42,127,1075522948
25,10,21,Ticks_Linear_5,56,1,48,37,1076014444
25,10,21,Ticks_Linear_5,57,5,42,127,1076062564
25,10,21,Ticks_Linear_5,58,1,48,37,1076574052
25,10,21,Ticks_Linear_5,59,5,42,127,1076603372
25,10,21,Ticks_Linear_5,60,1,48,37,1077116808
25,10,21,Ticks_Linear_5,61,5,42,127,1077143064
25,10,21,Ticks_Linear_5,62,1,48,36,1077647592
25,10,21,Ticks_Linear_5,63,5,42,127,1077692792
25,10,21,Ticks_Linear_5,64,1,48,39,1078231644
25,10,21,Ticks_Linear_5,65,5,42,127,1078242544
25,10,21,Ticks_Linear_5,66,1,48,39,1078767960
25,10,21,Ticks_Linear_5,67,5,42,127,1078792492
25,10,21,Ticks_Linear_5,68,1,48,40,1079310724
25,10,21,Ticks_Linear_5,69,5,42,127,1079342364
25,10,21,Ticks_Linear_5,70,1,48,36,1079840292
25,10,21,Ticks_Linear_5,71,5,42,127,1079893508
25,10,21,Ticks_Linear_5,72,1,48,37,1080445436
25,10,21,Ticks_Linear_5,73,5,42,127,1080452444
25,10,21,Ticks_Linear_5,74,5,42,127,1081012660
25,10,21,Ticks_Linear_5,75,1,48,30,1081023872
25,10,21,Ticks_Linear_5,76,5,42,127,1081572668
25,10,21,Ticks_Linear_5,77,1,48,32,1081584248
25,10,21,Ticks_Linear_5,78,5,42,127,1082132948
25,10,21,Ticks_Linear_5,79,1,48,32,1082153000
25,10,21,Ticks_Linear_5,80,1,48,36,1082688016
25,10,21,Ticks_Linear_5,81,5,42,127,1082693300
25,10,21,Ticks_Linear_5,82,1,48,37,1083229948
25,10,21,Ticks_Linear_5,83,5,42,127,1083263320
25,10,21,Ticks_Linear_5,84,5,42,127,1083832824
25,10,21,Ticks_Linear_5,85,1,48,36,1083839232
25,10,21,Ticks_Linear_5,86,5,42,127,1084403016
25,10,21,Ticks_Linear_5,87,1,48,31,1084403908
25,10,21,Ticks_Linear_5,88,5,42,127,1084973408
25,10,21,Ticks_Linear_5,89,1,48,35,1085000336
25,10,21,Ticks_Linear_5,90,5,42,127,1085553084
25,10,21,Ticks_Linear_5,91,1,48,31,1085603460
25,10,21,Ticks_Linear_5,92,1,48,30,1086119384
25,10,21,Ticks_Linear_5,93,5,42,127,1086132536
25,10,21,Ticks_Linear_5,94,1,48,30,1086672216
25,10,21,Ticks_Linear_5,95,5,42,127,1086713140
25,10,21,Ticks_Linear_5,96,1,48,25,1087263800
25,10,21,Ticks_Linear_5,97,5,42,127,1087292892
25,10,21,Ticks_Linear_5,98,1,48,28,1087803860
25,10,21,Ticks_Linear_5,99,5,42,127,1087873320
25,10,21,Ticks_Linear_5,100,1,48,27,1088387876
25,10,21,Ticks_Linear_5,101,5,42,127,1088452852
25,10,21,Ticks_Linear_5,102,1,48,26,1088991852
25,10,21,Ticks_Linear_5,103,5,42,127,1089042816
25,10,21,Ticks_Linear_5,104,1,48,30,1089616984
25,10,21,Ticks_Linear_5,105,5,42,127,1089632824
25,10,21,Ticks_Linear_5,106,1,48,28,1090219424
25,10,21,Ticks_Linear_5,107,5,42,127,1090222468
25,10,21,Ticks_Linear_5,108,5,42,127,1090813336
25,10,21,Ticks_Linear_5,109,1,48,29,1090827160
25,10,21,Ticks_Linear_5,110,1,48,33,1091383832
25,10,21,Ticks_Linear_5,111,5,42,127,1091403116
25,10,21,Ticks_Linear_5,112,1,48,34,1091973324
25,10,21,Ticks_Linear_5,113,5,42,127,1092003164
25,10,21,Ticks_Linear_5,114,1,48,32,1092557192
25,10,21,Ticks_Linear_5,115,5,42,127,1092603384
25,10,21,Ticks_Linear_5,116,1,48,32,1093191868
25,10,21,Ticks_Linear_5,117,5,42,127,1093203212
25,10,21,Ticks_Linear_5,118,5,42,127,1093803640
25,10,21,Ticks_Linear_5,119,1,48,34,1093822792
25,10,21,Ticks_Linear_5,120,5,42,127,1094402516
25,10,21,Ticks_Linear_5,121,1,48,30,1094425704
25,10,21,Ticks_Linear_5,122,1,48,31,1094999888
25,10,21,Ticks_Linear_5,123,5,42,127,1095012744
25,10,21,Ticks_Linear_5,124,1,48,34,1095594404
25,10,21,Ticks_Linear_5,125,5,42,127,1095622976
25,10,21,Ticks_Linear_5,126,1,48,35,1096230640
25,10,21,Ticks_Linear_5,127,5,42,127,1096233308
25,10,21,Ticks_Linear_5,128,5,42,127,1096842576
25,10,21,Ticks_Linear_5,129,1,48,32,1096855656
25,10,21,Ticks_Linear_5,130,1,48,35,1097447616
25,10,21,Ticks_Linear_5,131,5,42,127,1097452900
25,10,21,Ticks_Linear_5,132,1,48,39,1098036808
25,10,21,Ticks_Linear_5,133,5,42,127,1098072720
25,10,21,Ticks_Linear_5,134,1,48,36,1098645992
25,10,21,Ticks_Linear_5,135,5,42,127,1098692840
25,10,21,Ticks_Linear_5,136,5,42,127,1099312540
25,10,21,Ticks_Linear_5,137,1,48,32,1099325092
25,10,21,Ticks_Linear_5,138,1,48,29,1099893368
25,10,21,Ticks_Linear_5,139,5,42,127,1099933024
25,10,21,Ticks_Linear_5,140,1,48,29,1100511496
25,10,21,Ticks_Linear_5,141,5,42,127,1100552496
25,10,21,Ticks_Linear_5,142,1,48,30,1101153172
25,10,21,Ticks_Linear_5,143,5,42,127,1101183396
25,10,21,Ticks_Linear_5,144,1,48,28,1101777508
25,10,21,Ticks_Linear_5,145,5,42,127,1101813196
25,10,21,Ticks_Linear_5,146,1,48,31,1102430956
25,10,21,Ticks_Linear_5,147,5,42,127,1102442828
25,10,21,Ticks_Linear_5,148,5,42,127,1103072640
25,10,21,Ticks_Linear_5,149,1,48,31,1103078000
25,10,21,Ticks_Linear_5,150,1,48,37,1103702864
25,10,21,Ticks_Linear_5,151,5,42,127,1103704656
25,10,21,Ticks_Linear_5,152,5,42,127,1104343380
25,10,21,Ticks_Linear_5,153,1,48,38,1104362156
25,10,21,Ticks_Linear_5,154,5,42,127,1104983416
25,10,21,Ticks_Linear_5,155,1,48,41,1104986164
25,10,21,Ticks_Linear_5,156,5,42,127,1105623404
25,10,21,Ticks_Linear_5,157,1,48,35,1105681504
25,10,21,Ticks_Linear_5,158,1,48,36,1106241012
25,10,21,Ticks_Linear_5,159,5,42,127,1106263512
25,10,21,Ticks_Linear_5,160,1,48,34,1106896944
25,10,21,Ticks_Linear_5,161,5,42,127,1106903276
25,10,21,Ticks_Linear_5,162,1,48,32,1107524252
25,10,21,Ticks_Linear_5,163,5,42,127,1107552528
25,10,21,Ticks_Linear_5,164,1,48,35,1108169676
25,10,21,Ticks_Linear_5,165,5,42,127,1108202852
25,10,21,Ticks_Linear_5,166,1,48,31,1108817756
25,10,21,Ticks_Linear_5,167,5,42,127,1108853000
25,10,21,Ticks_Linear_5,168,1,48,31,1109479540
25,10,21,Ticks_Linear_5,169,5,42,127,1109503248
25,10,21,Ticks_Linear_5,170,1,48,30,1110115908
25,10,21,Ticks_Linear_5,171,5,42,127,1110152576
25,10,21,Ticks_Linear_5,172,1,48,31,1110767356
25,10,21,Ticks_Linear_5,173,5,42,127,1110813008
25,10,21,Ticks_Linear_5,174,5,42,127,1111472524
25,10,21,Ticks_Linear_5,175,1,48,30,1111497356
25,10,21,Ticks_Linear_5,176,1,48,31,1112093816
25,10,21,Ticks_Linear_5,177,5,42,127,1112133020
25,10,21,Ticks_Linear_5,178,5,42,127,1112792416
25,10,21,Ticks_Linear_5,179,1,48,33,1112797628
25,10,21,Ticks_Linear_5,180,5,42,127,1113452824
25,10,21,Ticks_Linear_5,181,1,48,36,1113483580
25,10,21,Ticks_Linear_5,182,1,48,31,1114097708
25,10,21,Ticks_Linear_5,183,5,42,127,1114122684
25,10,21,Ticks_Linear_5,184,1,48,29,1114763056
25,10,21,Ticks_Linear_5,185,5,42,127,1114793352
25,10,21,Ticks_Linear_5,186,1,48,35,1115431580
25,10,21,Ticks_Linear_5,187,5,42,127,1115463144
25,10,21,Ticks_Linear_5,188,5,42,127,1116132868
25,10,21,Ticks_Linear_5,189,1,48,33,1116136432
25,10,21,Ticks_Linear_5,190,1,48,32,1116788136
25,10,21,Ticks_Linear_5,191,5,42,127,1116802632
25,10,21,Ticks_Linear_5,192,1,48,34,1117456732
25,10,21,Ticks_Linear_5,193,5,42,127,1117483508
25,10,21,Ticks_Linear_5,194,1,48,33,1118123732
25,10,21,Ticks_Linear_5,195,5,42,127,1118163560
25,10,21,Ticks_Linear_5,196,1,48,39,1118836656
25,10,21,Ticks_Linear_5,197,5,42,127,1118843516
25,10,21,Ticks_Linear_5,198,5,42,127,1119523204
25,10,21,Ticks_Linear_5,199,1,48,35,1119540856
25,10,21,Ticks_Linear_5,200,5,42,127,1120203156
25,10,21,Ticks_Linear_5,201,1,48,33,1120225072
25,10,21,Ticks_Linear_5,202,1,48,35,1120823676
25,10,21,Ticks_Linear_5,203,5,42,127,1120893436
25,10,21,Ticks_Linear_5,204,5,42,127,1121582556
25,10,21,Ticks_Linear_5,205,1,48,32,1121588068
25,10,21,Ticks_Linear_5,206,5,42,127,1122272496
25,10,21,Ticks_Linear_5,207,1,48,29,1122318376
25,10,21,Ticks_Linear_5,208,1,48,28,1122933008
25,10,21,Ticks_Linear_5,209,5,42,127,1122962776
25,10,21,Ticks_Linear_5,210,1,48,31,1123616572
25,10,21,Ticks_Linear_5,211,5,42,127,1123652940
25,10,21,Ticks_Linear_5,212,1,48,30,1124336772
25,10,21,Ticks_Linear_5,213,5,42,127,1124353436
25,10,21,Ticks_Linear_5,214,5,42,127,1125052720
25,10,21,Ticks_Linear_5,215,1,48,31,1125065348
25,10,21,Ticks_Linear_5,216,5,42,127,1125753364
25,10,21,Ticks_Linear_5,217,1,48,29,1125839036
25,10,21,Ticks_Linear_5,218,5,42,127,1126452664
25,10,21,Ticks_Linear_5,219,1,48,26,1126465220
25,10,21,Ticks_Linear_5,220,5,42,127,1127153160
25,10,21,Ticks_Linear_5,221,1,48,32,1127174928
25,10,21,Ticks_Linear_5,222,5,42,127,1127862772
25,10,21,Ticks_Linear_5,223,1,48,32,1127871816
25,10,21,Ticks_Linear_5,224,5,42,127,1128573304
25,10,21,Ticks_Linear_5,225,1,48,36,1128580552
25,10,21,Ticks_Linear_5,226,5,42,127,1129283016
25,10,21,Ticks_Linear_5,227,1,48,36,1129358172
25,10,21,Ticks_Linear_5,228,5,42,127,1129992500
25,10,21,Ticks_Linear_5,229,1,48,30,1130068108
25,10,21,Ticks_Linear_5,230,5,42,127,1130703108
25,10,21,Ticks_Linear_5,231,1,48,29,1130717536
25,10,21,Ticks_Linear_5,232,1,48,32,1131421080
25,10,21,Ticks_Linear_5,233,5,42,127,1131423044
25,10,21,Ticks_Linear_5,234,1,48,28,1132110088
25,10,21,Ticks_Linear_5,235,5,42,127,1132142936
25,10,21,Ticks_Linear_5,236,1,48,30,1132832988
25,10,21,Ticks_Linear_5,237,5,42,127,1132862828
25,10,21,Ticks_Linear_5,238,1,48,30,1133572048
25,10,21,Ticks_Linear_5,239,5,42,127,1133582872
25,10,21,Ticks_Linear_5,240,1,48,30,1134277764
25,10,21,Ticks_Linear_5,241,5,42,127,1134302764
25,10,21,Ticks_Linear_5,242,1,48,27,1135010992
25,10,21,Ticks_Linear_5,243,5,42,127,1135032816
25,10,21,Ticks_Linear_5,244,1,48,35,1135751100
25,10,21,Ticks_Linear_5,245,5,42,127,1135762820
25,10,21,Ticks_Linear_5,246,5,42,127,1136492980
25,10,21,Ticks_Linear_5,247,1,48,32,1136530704
25,10,21,Ticks_Linear_5,248,5,42,127,1137222984
25,10,21,Ticks_Linear_5,249,1,48,29,1137275156
25,10,21,Ticks_Linear_5,250,5,42,127,1137953136
25,10,21,Ticks_Linear_5,251,1,48,25,1137970028
25,10,21,Ticks_Linear_5,252,1,48,30,1138685860
25,10,21,Ticks_Linear_5,253,5,42,127,1138692792
25,10,21,Ticks_Linear_5,254,5,42,127,1139432692
25,10,21,Ticks_Linear_5,255,1,48,32,1139486356
25,10,21,Ticks_Linear_5,256,5,42,127,1140173324
25,10,21,Ticks_Linear_5,257,1,48,26,1140206100
25,10,21,Ticks_Linear_5,258,5,42,127,1140912588
25,10,21,Ticks_Linear_5,259,1,48,32,1140924992
25,10,21,Ticks_Linear_5,260,5,42,127,1141652852
25,10,21,Ticks_Linear_5,261,1,48,34,1141753648
25,10,21,Ticks_Linear_5,262,5,42,127,1142402624
25,10,21,Ticks_Linear_5,263,1,48,30,1142546400
25,10,21,Ticks_Linear_5,264,5,42,127,1143153292
25,10,21,Ticks_Linear_5,265,1,48,27,1143292664
25,10,21,Ticks_Linear_5,266,5,42,127,1143902548
25,10,21,Ticks_Linear_5,267,1,48,27,1144038540
25,10,21,Ticks_Linear_5,268,5,42,127,1144653140
25,10,21,Ticks_Linear_5,269,5,42,127,1145402788
25,10,21,Ticks_Linear_5,270,1,48,24,1145416464
25,10,21,Ticks_Linear_5,271,1,48,27,1146093056
25,10,21,Ticks_Linear_5,272,5,42,127,1146162516
25,10,21,Ticks_Linear_5,273,1,48,27,1146839380
25,10,21,Ticks_Linear_5,274,5,42,127,1146923372
25,10,21,Ticks_Linear_5,275,1,48,27,1147605852
25,10,21,Ticks_Linear_5,276,5,42,127,1147683180
25,10,21,Ticks_Linear_5,277,1,48,28,1148344220
25,10,21,Ticks_Linear_5,278,5,42,127,1148443872
25,10,21,Ticks_Linear_5,279,1,48,28,1149143520
25,10,21,Ticks_Linear_5,280,5,42,127,1149202796
25,10,21,Ticks_Linear_5,281,1,48,26,1149918900
25,10,21,Ticks_Linear_5,282,5,42,127,1149972716
25,10,21,Ticks_Linear_5,283,1,48,30,1150672952
25,10,21,Ticks_Linear_5,284,5,42,127,1150743080
25,10,21,Ticks_Linear_5,285,5,42,127,1151512932
25,10,21,Ticks_Linear_5,286,1,48,23,1151572224
25,10,21,Ticks_Linear_5,287,5,42,127,1152283224
25,10,21,Ticks_Linear_5,288,1,48,32,1152355240
25,10,21,Ticks_Linear_5,289,5,42,127,1153053144
25,10,21,Ticks_Linear_5,290,1,48,32,1153072372
25,10,21,Ticks_Linear_5,291,5,42,127,1153833324
25,10,21,Ticks_Linear_5,292,1,48,32,1153874192
25,10,21,Ticks_Linear_5,293,5,42,127,1154612756
25,10,21,Ticks_Linear_5,294,1,48,27,1154644852
25,10,21,Ticks_Linear_5,295,5,42,127,1155393008
25,10,21,Ticks_Linear_5,296,1,48,33,1155425632
25,10,21,Ticks_Linear_5,297,5,42,127,1156173036
25,10,21,Ticks_Linear_5,298,1,48,36,1156230976
25,10,21,Ticks_Linear_5,299,5,42,127,1156952316
25,10,21,Ticks_Linear_5,300,1,48,28,1156986508
25,10,21,Ticks_Linear_5,301,1,48,31,1157713348
25,10,21,Ticks_Linear_5,302,5,42,127,1157743192
25,10,21,Ticks_Linear_5,303,5,42,127,1158532440
25,10,21,Ticks_Linear_5,304,1,48,36,1158565964
25,10,21,Ticks_Linear_5,305,5,42,127,1159322876
25,10,21,Ticks_Linear_5,306,1,48,38,1159343820
25,10,21,Ticks_Linear_5,307,5,42,127,1160112640
25,10,21,Ticks_Linear_5,308,1,48,36,1160180404
25,10,21,Ticks_Linear_5,309,1,48,33,1160886700
25,10,21,Ticks_Linear_5,310,5,42,127,1160902920
25,10,21,Ticks_Linear_5,311,5,42,127,1161702752
25,10,21,Ticks_Linear_5,312,1,48,33,1161735524
25,10,21,Ticks_Linear_5,313,5,42,127,1162502548
25,10,21,Ticks_Linear_5,314,1,48,27,1162527532
25,10,21,Ticks_Linear_5,315,5,42,127,1163303316
25,10,21,Ticks_Linear_5,316,1,48,32,1163305908
25,10,21,Ticks_Linear_5,317,5,42,127,1164102964
25,10,21,Ticks_Linear_5,318,1,48,33,1164119784
25,10,21,Ticks_Linear_5,319,1,48,35,1164880020
25,10,21,Ticks_Linear_5,320,5,42,127,1164902684
25,10,21,Ticks_Linear_5,321,1,48,38,1165700576
25,10,21,Ticks_Linear_5,322,5,42,127,1165712888
25,10,21,Ticks_Linear_5,323,5,42,127,1166522732
25,10,21,Ticks_Linear_5,324,1,48,34,1166544892
25,10,21,Ticks_Linear_5,325,1,48,32,1167319356
25,10,21,Ticks_Linear_5,326,5,42,127,1167332804
25,10,21,Ticks_Linear_5,327,1,48,42,1168095344
25,10,21,Ticks_Linear_5,328,5,42,127,1168142788
25,10,21,Ticks_Linear_5,329,1,48,37,1168924644
25,10,21,Ticks_Linear_5,330,5,42,127,1168952696
25,10,21,Ticks_Linear_5,0,9999,9999,9999,1059760208
25,10,21,Ticks_Linear_5,1,9999,9999,9999,1060240460
25,10,21,Ticks_Linear_5,2,9999,9999,9999,1060720708
25,10,21,Ticks_Linear_5,3,9999,9999,9999,1061200960
25,10,21,Ticks_Linear_5,4,9999,9999,9999,1061680236
25,10,21,Ticks_Linear_5,5,9999,9999,9999,1062170744
25,10,21,Ticks_Linear_5,6,9999,9999,9999,1062660208
25,10,21,Ticks_Linear_5,7,9999,9999,9999,1063150716
25,10,21,Ticks_Linear_5,8,9999,9999,9999,1063640172
25,10,21,Ticks_Linear_5,9,9999,9999,9999,1064130632
25,10,21,Ticks_Linear_5,10,9999,9999,9999,1064630336
25,10,21,Ticks_Linear_5,11,9999,9999,9999,1065131080
25,10,21,Ticks_Linear_5,12,9999,9999,9999,1065641040
25,10,21,Ticks_Linear_5,13,9999,9999,9999,1066140740
25,10,21,Ticks_Linear_5,14,9999,9999,9999,1066640440
25,10,21,Ticks_Linear_5,15,9999,9999,9999,1067150400
25,10,21,Ticks_Linear_5,16,9999,9999,9999,1067660360
25,10,21,Ticks_Linear_5,17,9999,9999,9999,1068170320
25,10,21,Ticks_Linear_5,18,9999,9999,9999,1068680280
25,10,21,Ticks_Linear_5,19,9999,9999,9999,1069190236
25,10,21,Ticks_Linear_5,20,9999,9999,9999,1069710456
25,10,21,Ticks_Linear_5,21,9999,9999,9999,1070230600
25,10,21,Ticks_Linear_5,22,9999,9999,9999,1070750820
25,10,21,Ticks_Linear_5,23,9999,9999,9999,1071271036
25,10,21,Ticks_Linear_5,24,9999,9999,9999,1071790144
25,10,21,Ticks_Linear_5,25,9999,9999,9999,1072320612
25,10,21,Ticks_Linear_5,26,9999,9999,9999,1072851040
25,10,21,Ticks_Linear_5,27,9999,9999,9999,1073380468
25,10,21,Ticks_Linear_5,28,9999,9999,9999,1073910872
25,10,21,Ticks_Linear_5,29,9999,9999,9999,1074440300
25,10,21,Ticks_Linear_5,30,9999,9999,9999,1074980960
25,10,21,Ticks_Linear_5,31,9999,9999,9999,1075520576
25,10,21,Ticks_Linear_5,32,9999,9999,9999,1076060264
25,10,21,Ticks_Linear_5,33,9999,9999,9999,1076600928
25,10,21,Ticks_Linear_5,34,9999,9999,9999,1077140544
25,10,21,Ticks_Linear_5,35,9999,9999,9999,1077690492
25,10,21,Ticks_Linear_5,36,9999,9999,9999,1078240320
25,10,21,Ticks_Linear_5,37,9999,9999,9999,1078790268
25,10,21,Ticks_Linear_5,38,9999,9999,9999,1079340140
25,10,21,Ticks_Linear_5,39,9999,9999,9999,1079891060
25,10,21,Ticks_Linear_5,40,9999,9999,9999,1080450148
25,10,21,Ticks_Linear_5,41,9999,9999,9999,1081010288
25,10,21,Ticks_Linear_5,42,9999,9999,9999,1081570368
25,10,21,Ticks_Linear_5,43,9999,9999,9999,1082130504
25,10,21,Ticks_Linear_5,44,9999,9999,9999,1082690632
25,10,21,Ticks_Linear_5,45,9999,9999,9999,1083261024
25,10,21,Ticks_Linear_5,46,9999,9999,9999,1083830376
25,10,21,Ticks_Linear_5,47,9999,9999,9999,1084400716
25,10,21,Ticks_Linear_5,48,9999,9999,9999,1084971108
25,10,21,Ticks_Linear_5,49,9999,9999,9999,1085550712
25,10,21,Ticks_Linear_5,50,9999,9999,9999,1086130236
25,10,21,Ticks_Linear_5,51,9999,9999,9999,1086710840
25,10,21,Ticks_Linear_5,52,9999,9999,9999,1087290444
25,10,21,Ticks_Linear_5,53,9999,9999,9999,1087871096
25,10,21,Ticks_Linear_5,54,9999,9999,9999,1088450628
25,10,21,Ticks_Linear_5,55,9999,9999,9999,1089040444
25,10,21,Ticks_Linear_5,56,9999,9999,9999,1089630304
25,10,21,Ticks_Linear_5,57,9999,9999,9999,1090220096
25,10,21,Ticks_Linear_5,58,9999,9999,9999,1090810960
25,10,21,Ticks_Linear_5,59,9999,9999,9999,1091400820
25,10,21,Ticks_Linear_5,60,9999,9999,9999,1092000868
25,10,21,Ticks_Linear_5,61,9999,9999,9999,1092600940
25,10,21,Ticks_Linear_5,62,9999,9999,9999,1093200988
25,10,21,Ticks_Linear_5,63,9999,9999,9999,1093801044
25,10,21,Ticks_Linear_5,64,9999,9999,9999,1094400068
25,10,21,Ticks_Linear_5,65,9999,9999,9999,1095010368
25,10,21,Ticks_Linear_5,66,9999,9999,9999,1095620676
25,10,21,Ticks_Linear_5,67,9999,9999,9999,1096231012
25,10,21,Ticks_Linear_5,68,9999,9999,9999,1096840276
25,10,21,Ticks_Linear_5,69,9999,9999,9999,1097450604
25,10,21,Ticks_Linear_5,70,9999,9999,9999,1098070124
25,10,21,Ticks_Linear_5,71,9999,9999,9999,1098690616
25,10,21,Ticks_Linear_5,72,9999,9999,9999,1099310164
25,10,21,Ticks_Linear_5,73,9999,9999,9999,1099930724
25,10,21,Ticks_Linear_5,74,9999,9999,9999,1100550268
25,10,21,Ticks_Linear_5,75,9999,9999,9999,1101181024
25,10,21,Ticks_Linear_5,76,9999,9999,9999,1101810752
25,10,21,Ticks_Linear_5,77,9999,9999,9999,1102440528
25,10,21,Ticks_Linear_5,78,9999,9999,9999,1103070264
25,10,21,Ticks_Linear_5,79,9999,9999,9999,1103701092
25,10,21,Ticks_Linear_5,80,9999,9999,9999,1104341080
25,10,21,Ticks_Linear_5,81,9999,9999,9999,1104981120
25,10,21,Ticks_Linear_5,82,9999,9999,9999,1105621104
25,10,21,Ticks_Linear_5,83,9999,9999,9999,1106261064
25,10,21,Ticks_Linear_5,84,9999,9999,9999,1106901052
25,10,21,Ticks_Linear_5,85,9999,9999,9999,1107550304
25,10,21,Ticks_Linear_5,86,9999,9999,9999,1108200552
25,10,21,Ticks_Linear_5,87,9999,9999,9999,1108850776
25,10,21,Ticks_Linear_5,88,9999,9999,9999,1109501024
25,10,21,Ticks_Linear_5,89,9999,9999,9999,1110150200
25,10,21,Ticks_Linear_5,90,9999,9999,9999,1110810708
25,10,21,Ticks_Linear_5,91,9999,9999,9999,1111470148
25,10,21,Ticks_Linear_5,92,9999,9999,9999,1112130648
25,10,21,Ticks_Linear_5,93,9999,9999,9999,1112790116
25,10,21,Ticks_Linear_5,94,9999,9999,9999,1113450600
25,10,21,Ticks_Linear_5,95,9999,9999,9999,1114120312
25,10,21,Ticks_Linear_5,96,9999,9999,9999,1114790980
25,10,21,Ticks_Linear_5,97,9999,9999,9999,1115460696
25,10,21,Ticks_Linear_5,98,9999,9999,9999,1116130420
25,10,21,Ticks_Linear_5,99,9999,9999,9999,1116800112
25,10,21,Ticks_Linear_5,100,9999,9999,9999,1117481060
25,10,21,Ticks_Linear_5,101,9999,9999,9999,1118160964
25,10,21,Ticks_Linear_5,102,9999,9999,9999,1118840920
25,10,21,Ticks_Linear_5,103,9999,9999,9999,1119520828
25,10,21,Ticks_Linear_5,104,9999,9999,9999,1120200784
25,10,21,Ticks_Linear_5,105,9999,9999,9999,1120890988
25,10,21,Ticks_Linear_5,106,9999,9999,9999,1121580108
25,10,21,Ticks_Linear_5,107,9999,9999,9999,1122270272
25,10,21,Ticks_Linear_5,108,9999,9999,9999,1122960480
25,10,21,Ticks_Linear_5,109,9999,9999,9999,1123650640
25,10,21,Ticks_Linear_5,110,9999,9999,9999,1124351064
25,10,21,Ticks_Linear_5,111,9999,9999,9999,1125050420
25,10,21,Ticks_Linear_5,112,9999,9999,9999,1125750844
25,10,21,Ticks_Linear_5,113,9999,9999,9999,1126450292
25,10,21,Ticks_Linear_5,114,9999,9999,9999,1127150712
25,10,21,Ticks_Linear_5,115,9999,9999,9999,1127860324
25,10,21,Ticks_Linear_5,116,9999,9999,9999,1128571008
25,10,21,Ticks_Linear_5,117,9999,9999,9999,1129280568
25,10,21,Ticks_Linear_5,118,9999,9999,9999,1129990200
25,10,21,Ticks_Linear_5,119,9999,9999,9999,1130700884
25,10,21,Ticks_Linear_5,120,9999,9999,9999,1131420784
25,10,21,Ticks_Linear_5,121,9999,9999,9999,1132140636
25,10,21,Ticks_Linear_5,122,9999,9999,9999,1132860532
25,10,21,Ticks_Linear_5,123,9999,9999,9999,1133580352
25,10,21,Ticks_Linear_5,124,9999,9999,9999,1134300244
25,10,21,Ticks_Linear_5,125,9999,9999,9999,1135030372
25,10,21,Ticks_Linear_5,126,9999,9999,9999,1135760448
25,10,21,Ticks_Linear_5,127,9999,9999,9999,1136490608
25,10,21,Ticks_Linear_5,128,9999,9999,9999,1137220684
25,10,21,Ticks_Linear_5,129,9999,9999,9999,1137950836
25,10,21,Ticks_Linear_5,130,9999,9999,9999,1138690124
25,10,21,Ticks_Linear_5,131,9999,9999,9999,1139430468
25,10,21,Ticks_Linear_5,132,9999,9999,9999,1140170876
25,10,21,Ticks_Linear_5,133,9999,9999,9999,1140910140
25,10,21,Ticks_Linear_5,134,9999,9999,9999,1141650552
25,10,21,Ticks_Linear_5,135,9999,9999,9999,1142400104
25,10,21,Ticks_Linear_5,136,9999,9999,9999,1143150696
25,10,21,Ticks_Linear_5,137,9999,9999,9999,1143900248
25,10,21,Ticks_Linear_5,138,9999,9999,9999,1144650844
25,10,21,Ticks_Linear_5,139,9999,9999,9999,1145400416
25,10,21,Ticks_Linear_5,140,9999,9999,9999,1146160220
25,10,21,Ticks_Linear_5,141,9999,9999,9999,1146921072
25,10,21,Ticks_Linear_5,142,9999,9999,9999,1147680884
25,10,21,Ticks_Linear_5,143,9999,9999,9999,1148440688
25,10,21,Ticks_Linear_5,144,9999,9999,9999,1149200500
25,10,21,Ticks_Linear_5,145,9999,9999,9999,1149970492
25,10,21,Ticks_Linear_5,146,9999,9999,9999,1150740560
25,10,21,Ticks_Linear_5,147,9999,9999,9999,1151510636
25,10,21,Ticks_Linear_5,148,9999,9999,9999,1152280704
25,10,21,Ticks_Linear_5,149,9999,9999,9999,1153050696
25,10,21,Ticks_Linear_5,150,9999,9999,9999,1153831028
25,10,21,Ticks_Linear_5,151,9999,9999,9999,1154610232
25,10,21,Ticks_Linear_5,152,9999,9999,9999,1155390560
25,10,21,Ticks_Linear_5,153,9999,9999,9999,1156170812
25,10,21,Ticks_Linear_5,154,9999,9999,9999,1156950092
25,10,21,Ticks_Linear_5,155,9999,9999,9999,1157740672
25,10,21,Ticks_Linear_5,156,9999,9999,9999,1158530144
25,10,21,Ticks_Linear_5,157,9999,9999,9999,1159320652
25,10,21,Ticks_Linear_5,158,9999,9999,9999,1160110192
25,10,21,Ticks_Linear_5,159,9999,9999,9999,1160900696
25,10,21,Ticks_Linear_5,160,9999,9999,9999,1161700452
25,10,21,Ticks_Linear_5,161,9999,9999,9999,1162500176
25,10,21,Ticks_Linear_5,162,9999,9999,9999,1163300944
25,10,21,Ticks_Linear_5,163,9999,9999,9999,1164100668
25,10,21,Ticks_Linear_5,164,9999,9999,9999,1164900460
25,10,21,Ticks_Linear_5,165,9999,9999,9999,1165710444
25,10,21,Ticks_Linear_5,166,9999,9999,9999,1166520432
25,10,21,Ticks_Linear_5,167,9999,9999,9999,1167330360
25,10,21,Ticks_Linear_5,168,9999,9999,9999,1168140416
25,10,21,Ticks_Linear_5,169,9999,9999,9999,1168950396
25,11,24,Jits_Pract_8,0,5,56,103,1239771632
25,11,24,Jits_Pract_8,1,5,63,98,1239774952
25,11,24,Jits_Pract_8,2,5,80,127,1239777996
25,11,24,Jits_Pract_8,0,5,56,103,1240572392
25,11,24,Jits_Pract_8,1,5,63,98,1240575412
25,11,24,Jits_Pract_8,2,5,80,127,1240578464
25,11,24,Jits_Pract_8,0,5,80,127,1241311740
25,11,24,Jits_Pract_8,1,5,63,98,1241401800
25,11,24,Jits_Pract_8,2,5,56,103,1241411848
25,11,24,Jits_Pract_8,0,5,56,103,1242131928
25,11,24,Jits_Pract_8,1,5,63,98,1242142048
25,11,24,Jits_Pract_8,2,5,80,127,1242232180
25,11,24,Jits_Pract_8,0,5,63,98,1242901920
25,11,24,Jits_Pract_8,1,5,80,127,1242931672
25,11,24,Jits_Pract_8,2,5,56,103,1242962244
25,11,24,Jits_Pract_8,0,5,56,103,1243701784
25,11,24,Jits_Pract_8,1,5,80,127,1243801884
25,11,24,Jits_Pract_8,2,5,63,98,1243852180
25,11,24,Jits_Pract_8,0,5,56,103,1244502564
25,11,24,Jits_Pract_8,1,5,80,127,1244551648
25,11,24,Jits_Pract_8,2,5,63,98,1244591512
25,11,24,Jits_Pract_8,3,1,48,41,1244621700
25,11,24,Jits_Pract_8,0,1,48,45,1245294508
25,11,24,Jits_Pract_8,1,5,80,127,1245331924
25,11,24,Jits_Pract_8,2,1,48,27,1245349108
25,11,24,Jits_Pract_8,3,5,63,98,1245361728
25,11,24,Jits_Pract_8,4,5,56,103,1245432032
25,11,24,Jits_Pract_8,0,1,48,42,1246153960
25,11,24,Jits_Pract_8,1,5,63,98,1246162376
25,11,24,Jits_Pract_8,2,5,56,103,1246191980
25,11,24,Jits_Pract_8,3,5,80,127,1246252504
25,11,24,Jits_Pract_8,0,5,56,103,1246901660
25,11,24,Jits_Pract_8,1,5,80,127,1246904652
25,11,24,Jits_Pract_8,2,1,48,43,1246955892
25,11,24,Jits_Pract_8,3,1,48,25,1247013484
25,11,24,Jits_Pract_8,4,5,63,98,1247021528
25,11,24,Jits_Pract_8,0,1,48,43,1247706308
25,11,24,Jits_Pract_8,1,5,56,103,1247782232
25,11,24,Jits_Pract_8,2,5,80,127,1247822084
25,11,24,Jits_Pract_8,3,5,63,98,1247832652
25,11,24,Jits_Pract_8,0,5,56,103,1248542068
25,11,24,Jits_Pract_8,1,5,80,127,1248561556
25,11,24,Jits_Pract_8,2,1,48,40,1248594564
25,11,24,Jits_Pract_8,3,5,63,98,1248642612
25,11,24,Jits_Pract_8,0,5,80,127,1249331652
25,11,24,Jits_Pract_8,1,1,48,45,1249356420
25,11,24,Jits_Pract_8,2,1,48,23,1249424352
25,11,24,Jits_Pract_8,3,5,56,103,1249431872
25,11,24,Jits_Pract_8,4,5,63,98,1249442144
25,11,24,Jits_Pract_8,0,5,63,98,1250101564
25,11,24,Jits_Pract_8,1,5,80,127,1250162104
25,11,24,Jits_Pract_8,2,5,56,103,1250172524
25,11,24,Jits_Pract_8,3,1,48,43,1250187704
25,11,24,Jits_Pract_8,4,1,48,28,1250239064
25,11,24,Jits_Pract_8,0,1,48,46,1250882808
25,11,24,Jits_Pract_8,1,5,56,103,1250902240
25,11,24,Jits_Pract_8,2,1,48,29,1250945124
25,11,24,Jits_Pract_8,3,5,63,98,1250971972
25,11,24,Jits_Pract_8,4,5,80,127,1250975484
25,11,24,Jits_Pract_8,0,9999,9999,9999,1240169560
25,11,24,Jits_Pract_8,1,9999,9999,9999,1240969276
25,11,24,Jits_Pract_8,2,9999,9999,9999,1241770060
25,11,24,Jits_Pract_8,3,9999,9999,9999,1242569820
25,11,24,Jits_Pract_8,4,9999,9999,9999,1243369552
25,11,24,Jits_Pract_8,5,9999,9999,9999,1244169272
25,11,24,Jits_Pract_8,6,9999,9999,9999,1244970104
25,11,24,Jits_Pract_8,7,9999,9999,9999,1245769780
25,11,24,Jits_Pract_8,8,9999,9999,9999,1246569592
25,11,24,Jits_Pract_8,9,9999,9999,9999,1247369316
25,11,24,Jits_Pract_8,10,9999,9999,9999,1248170044
25,11,24,Jits_Pract_8,11,9999,9999,9999,1248969828
25,11,24,Jits_Pract_8,12,9999,9999,9999,1249769580
25,11,24,Jits_Pract_8,13,9999,9999,9999,1250569304
25,11,24,Jits_Pract_8,14,9999,9999,9999,1251370048
25,12,25,Jits_Pract_5,0,5,56,103,1257636236
25,12,25,Jits_Pract_5,1,5,63,98,1257639412
25,12,25,Jits_Pract_5,2,5,80,127,1257642456
25,12,25,Jits_Pract_5,0,5,56,103,1258136036
25,12,25,Jits_Pract_5,1,5,63,98,1258139060
25,12,25,Jits_Pract_5,2,5,80,127,1258142108
25,12,25,Jits_Pract_5,0,5,56,103,1258635484
25,12,25,Jits_Pract_5,1,5,80,127,1258646128
25,12,25,Jits_Pract_5,2,5,63,98,1258666288
25,12,25,Jits_Pract_5,0,5,63,98,1259086152
25,12,25,Jits_Pract_5,1,5,80,127,1259115976
25,12,25,Jits_Pract_5,2,5,56,103,1259126024
25,12,25,Jits_Pract_5,0,5,80,127,1259646192
25,12,25,Jits_Pract_5,1,5,56,103,1259655564
25,12,25,Jits_Pract_5,2,5,63,98,1259686212
25,12,25,Jits_Pract_5,0,5,63,98,1260136048
25,12,25,Jits_Pract_5,1,5,56,103,1260165428
25,12,25,Jits_Pract_5,2,5,80,127,1260175996
25,12,25,Jits_Pract_5,0,5,56,103,1260586480
25,12,25,Jits_Pract_5,1,5,63,98,1260635636
25,12,25,Jits_Pract_5,2,5,80,127,1260655872
25,12,25,Jits_Pract_5,0,5,80,127,1261085924
25,12,25,Jits_Pract_5,1,5,63,98,1261136200
25,12,25,Jits_Pract_5,2,5,56,103,1261176064
25,12,25,Jits_Pract_5,0,5,56,103,1261585816
25,12,25,Jits_Pract_5,1,5,63,98,1261615344
25,12,25,Jits_Pract_5,2,1,48,47,1261659812
25,12,25,Jits_Pract_5,3,5,80,127,1261686064
25,12,25,Jits_Pract_5,0,5,56,103,1262085592
25,12,25,Jits_Pract_5,1,1,48,44,1262088716
25,12,25,Jits_Pract_5,2,5,80,127,1262145832
25,12,25,Jits_Pract_5,3,5,63,98,1262175732
25,12,25,Jits_Pract_5,0,1,48,50,1262572000
25,12,25,Jits_Pract_5,1,5,56,103,1262595412
25,12,25,Jits_Pract_5,2,5,63,98,1262605828
25,12,25,Jits_Pract_5,3,5,80,127,1262645768
25,12,25,Jits_Pract_5,0,1,48,49,1263040440
25,12,25,Jits_Pract_5,1,5,63,98,1263085804
25,12,25,Jits_Pract_5,2,5,80,127,1263165736
25,12,25,Jits_Pract_5,3,5,56,103,1263175932
25,12,25,Jits_Pract_5,0,1,48,43,1263548508
25,12,25,Jits_Pract_5,1,5,63,98,1263635920
25,12,25,Jits_Pract_5,2,5,56,103,1263675768
25,12,25,Jits_Pract_5,3,5,80,127,1263678984
25,12,25,Jits_Pract_5,0,1,48,43,1264059804
25,12,25,Jits_Pract_5,1,5,56,103,1264095596
25,12,25,Jits_Pract_5,2,5,63,98,1264105792
25,12,25,Jits_Pract_5,3,5,80,127,1264145656
25,12,25,Jits_Pract_5,0,1,48,43,1264570276
25,12,25,Jits_Pract_5,1,5,56,103,1264596328
25,12,25,Jits_Pract_5,2,5,63,98,1264599396
25,12,25,Jits_Pract_5,3,5,80,127,1264615664
25,12,25,Jits_Pract_5,0,9999,9999,9999,1257883752
25,12,25,Jits_Pract_5,1,9999,9999,9999,1258383476
25,12,25,Jits_Pract_5,2,9999,9999,9999,1258883152
25,12,25,Jits_Pract_5,3,9999,9999,9999,1259383864
25,12,25,Jits_Pract_5,4,9999,9999,9999,1259883596
25,12,25,Jits_Pract_5,5,9999,9999,9999,1260383344
25,12,25,Jits_Pract_5,6,9999,9999,9999,1260884044
25,12,25,Jits_Pract_5,7,9999,9999,9999,1261383784
25,12,25,Jits_Pract_5,8,9999,9999,9999,1261883504
25,12,25,Jits_Pract_5,9,9999,9999,9999,1262383212
25,12,25,Jits_Pract_5,10,9999,9999,9999,1262883960
25,12,25,Jits_Pract_5,11,9999,9999,9999,1263383652
25,12,25,Jits_Pract_5,12,9999,9999,9999,1263883336
25,12,25,Jits_Pract_5,13,9999,9999,9999,1264384072
25,12,25,Jits_Pract_5,14,9999,9999,9999,1264894012
25,13,7,Jits_ISO_8,0,5,56,103,1296503372
25,13,7,Jits_ISO_8,1,5,63,98,1296506544
25,13,7,Jits_ISO_8,2,5,80,127,1296509440
25,13,7,Jits_ISO_8,0,5,56,103,1297302848
25,13,7,Jits_ISO_8,1,5,63,98,1297306096
25,13,7,Jits_ISO_8,2,5,80,127,1297309288
25,13,7,Jits_ISO_8,0,5,80,127,1298043224
25,13,7,Jits_ISO_8,1,5,63,98,1298133312
25,13,7,Jits_ISO_8,2,5,56,103,1298142532
25,13,7,Jits_ISO_8,0,5,56,103,1298862348
25,13,7,Jits_ISO_8,1,5,63,98,1298872620
25,13,7,Jits_ISO_8,2,5,80,127,1298962924
25,13,7,Jits_ISO_8,0,5,63,98,1299632472
25,13,7,Jits_ISO_8,1,5,80,127,1299663144
25,13,7,Jits_ISO_8,2,5,56,103,1299693120
25,13,7,Jits_ISO_8,0,5,56,103,1300433244
25,13,7,Jits_ISO_8,1,5,80,127,1300532596
25,13,7,Jits_ISO_8,2,5,63,98,1300582724
25,13,7,Jits_ISO_8,0,5,56,103,1301233188
25,13,7,Jits_ISO_8,1,5,80,127,1301283168
25,13,7,Jits_ISO_8,2,5,63,98,1301323108
25,13,7,Jits_ISO_8,0,5,80,127,1302062352
25,13,7,Jits_ISO_8,1,5,63,98,1302093148
25,13,7,Jits_ISO_8,2,5,56,103,1302162980
25,13,7,Jits_ISO_8,0,5,63,98,1302893012
25,13,7,Jits_ISO_8,1,1,48,43,1302920724
25,13,7,Jits_ISO_8,2,5,56,103,1302922536
25,13,7,Jits_ISO_8,3,5,80,127,1302983024
25,13,7,Jits_ISO_8,0,5,56,103,1303633152
25,13,7,Jits_ISO_8,1,5,80,127,1303636224
25,13,7,Jits_ISO_8,2,1,48,39,1303659492
25,13,7,Jits_ISO_8,3,5,63,98,1303753040
25,13,7,Jits_ISO_8,0,1,48,41,1304468948
25,13,7,Jits_ISO_8,1,5,56,103,1304512984
25,13,7,Jits_ISO_8,2,5,80,127,1304552924
25,13,7,Jits_ISO_8,3,5,63,98,1304564228
25,13,7,Jits_ISO_8,0,5,56,103,1305272824
25,13,7,Jits_ISO_8,1,1,48,43,1305282412
25,13,7,Jits_ISO_8,2,5,80,127,1305293152
25,13,7,Jits_ISO_8,3,5,63,98,1305373020
25,13,7,Jits_ISO_8,0,5,80,127,1306063208
25,13,7,Jits_ISO_8,1,1,48,40,1306131816
25,13,7,Jits_ISO_8,2,5,56,103,1306162628
25,13,7,Jits_ISO_8,3,5,63,98,1306172976
25,13,7,Jits_ISO_8,0,5,63,98,1306833120
25,13,7,Jits_ISO_8,1,5,80,127,1306892836
25,13,7,Jits_ISO_8,2,5,56,103,1306902884
25,13,7,Jits_ISO_8,3,1,48,41,1306917988
25,13,7,Jits_ISO_8,0,1,48,43,1307631080
25,13,7,Jits_ISO_8,1,5,56,103,1307632968
25,13,7,Jits_ISO_8,2,5,63,98,1307702724
25,13,7,Jits_ISO_8,3,5,80,127,1307706016
25,13,7,Jits_ISO_8,0,1,48,38,1308426792
25,13,7,Jits_ISO_8,1,5,63,98,1308462636
25,13,7,Jits_ISO_8,2,5,56,103,1308512912
25,13,7,Jits_ISO_8,3,5,80,127,1308515828
25,13,7,Jits_ISO_8,0,5,56,103,1309223228
25,13,7,Jits_ISO_8,1,5,80,127,1309226516
25,13,7,Jits_ISO_8,2,1,48,35,1309259156
25,13,7,Jits_ISO_8,3,5,63,98,1309313356
25,13,7,Jits_ISO_8,0,1,48,37,1310037584
25,13,7,Jits_ISO_8,1,5,63,98,1310062868
25,13,7,Jits_ISO_8,2,5,56,103,1310152940
25,13,7,Jits_ISO_8,3,5,80,127,1310182688
25,13,7,Jits_ISO_8,0,1,48,29,1310845620
25,13,7,Jits_ISO_8,1,5,56,103,1310852544
25,13,7,Jits_ISO_8,2,5,63,98,1310952732
25,13,7,Jits_ISO_8,3,5,80,127,1310982704
25,13,7,Jits_ISO_8,0,5,63,98,1311672640
25,13,7,Jits_ISO_8,1,5,56,103,1311682788
25,13,7,Jits_ISO_8,2,1,48,38,1311696096
25,13,7,Jits_ISO_8,3,5,80,127,1311772988
25,13,7,Jits_ISO_8,0,1,48,34,1312490856
25,13,7,Jits_ISO_8,1,5,63,98,1312492896
25,13,7,Jits_ISO_8,2,5,56,103,1312572840
25,13,7,Jits_ISO_8,3,5,80,127,1312575904
25,13,7,Jits_ISO_8,0,5,80,127,1313252596
25,13,7,Jits_ISO_8,1,5,63,98,1313273280
25,13,7,Jits_ISO_8,2,5,56,103,1313332548
25,13,7,Jits_ISO_8,3,1,48,39,1313344060
25,13,7,Jits_ISO_8,0,1,48,34,1314052884
25,13,7,Jits_ISO_8,1,5,56,103,1314093516
25,13,7,Jits_ISO_8,2,5,63,98,1314112852
25,13,7,Jits_ISO_8,3,5,80,127,1314116216
25,13,7,Jits_ISO_8,0,5,63,98,1314832608
25,13,7,Jits_ISO_8,1,1,48,35,1314834548
25,13,7,Jits_ISO_8,2,5,80,127,1314912624
25,13,7,Jits_ISO_8,3,5,56,103,1314922892
25,13,7,Jits_ISO_8,0,1,48,42,1315627108
25,13,7,Jits_ISO_8,1,5,63,98,1315652908
25,13,7,Jits_ISO_8,2,5,56,103,1315672324
25,13,7,Jits_ISO_8,3,5,80,127,1315722508
25,13,7,Jits_ISO_8,0,1,48,41,1316407480
25,13,7,Jits_ISO_8,1,5,80,127,1316452692
25,13,7,Jits_ISO_8,2,5,63,98,1316492632
25,13,7,Jits_ISO_8,3,5,56,103,1316513300
25,13,7,Jits_ISO_8,0,1,48,42,1317243676
25,13,7,Jits_ISO_8,1,5,56,103,1317293304
25,13,7,Jits_ISO_8,2,5,63,98,1317302528
25,13,7,Jits_ISO_8,3,5,80,127,1317323236
25,13,7,Jits_ISO_8,0,5,56,103,1318022592
25,13,7,Jits_ISO_8,1,1,48,37,1318032760
25,13,7,Jits_ISO_8,2,5,63,98,1318112744
25,13,7,Jits_ISO_8,3,5,80,127,1318172972
25,13,7,Jits_ISO_8,0,1,48,41,1318830140
25,13,7,Jits_ISO_8,1,5,80,127,1318853124
25,13,7,Jits_ISO_8,2,5,56,103,1318863320
25,13,7,Jits_ISO_8,3,5,63,98,1318932836
25,13,7,Jits_ISO_8,0,1,48,38,1319671916
25,13,7,Jits_ISO_8,1,5,63,98,1319682500
25,13,7,Jits_ISO_8,2,5,80,127,1319772620
25,13,7,Jits_ISO_8,3,5,56,103,1319782968
25,13,7,Jits_ISO_8,0,5,63,98,1320422732
25,13,7,Jits_ISO_8,1,1,48,37,1320455372
25,13,7,Jits_ISO_8,2,5,80,127,1320473004
25,13,7,Jits_ISO_8,3,5,56,103,1320533320
25,13,7,Jits_ISO_8,0,1,48,35,1321200512
25,13,7,Jits_ISO_8,1,5,56,103,1321253296
25,13,7,Jits_ISO_8,2,5,80,127,1321303336
25,13,7,Jits_ISO_8,3,5,63,98,1321322824
25,13,7,Jits_ISO_8,0,5,56,103,1322023264
25,13,7,Jits_ISO_8,1,1,48,35,1322026604
25,13,7,Jits_ISO_8,2,5,80,127,1322082528
25,13,7,Jits_ISO_8,3,5,63,98,1322153392
25,13,7,Jits_ISO_8,0,1,48,42,1322790052
25,13,7,Jits_ISO_8,1,5,56,103,1322823204
25,13,7,Jits_ISO_8,2,5,80,127,1322852656
25,13,7,Jits_ISO_8,3,5,63,98,1322882480
25,13,7,Jits_ISO_8,0,1,48,40,1323639576
25,13,7,Jits_ISO_8,1,5,56,103,1323662692
25,13,7,Jits_ISO_8,2,5,80,127,1323683300
25,13,7,Jits_ISO_8,3,5,63,98,1323742504
25,13,7,Jits_ISO_8,0,1,48,38,1324492296
25,13,7,Jits_ISO_8,1,5,80,127,1324543416
25,13,7,Jits_ISO_8,2,5,56,103,1324552492
25,13,7,Jits_ISO_8,3,5,63,98,1324563060
25,13,7,Jits_ISO_8,0,5,56,103,1325303056
25,13,7,Jits_ISO_8,1,1,48,38,1325330288
25,13,7,Jits_ISO_8,2,5,80,127,1325343064
25,13,7,Jits_ISO_8,3,5,63,98,1325373036
25,13,7,Jits_ISO_8,0,5,56,103,1326073188
25,13,7,Jits_ISO_8,1,5,63,98,1326102864
25,13,7,Jits_ISO_8,2,1,48,39,1326122696
25,13,7,Jits_ISO_8,3,5,80,127,1326142948
25,13,7,Jits_ISO_8,0,5,80,127,1326822868
25,13,7,Jits_ISO_8,1,5,63,98,1326873068
25,13,7,Jits_ISO_8,2,1,48,37,1326888472
25,13,7,Jits_ISO_8,3,5,56,103,1326893372
25,13,7,Jits_ISO_8,0,1,48,35,1327587032
25,13,7,Jits_ISO_8,1,5,56,103,1327653292
25,13,7,Jits_ISO_8,2,5,80,127,1327722816
25,13,7,Jits_ISO_8,3,5,63,98,1327783356
25,13,7,Jits_ISO_8,0,1,48,38,1328397084
25,13,7,Jits_ISO_8,1,5,80,127,1328452932
25,13,7,Jits_ISO_8,2,5,63,98,1328543128
25,13,7,Jits_ISO_8,3,5,56,103,1328562540
25,13,7,Jits_ISO_8,0,5,63,98,1329273180
25,13,7,Jits_ISO_8,1,5,56,103,1329292740
25,13,7,Jits_ISO_8,2,1,48,28,1329299000
25,13,7,Jits_ISO_8,3,5,80,127,1329332672
25,13,7,Jits_ISO_8,0,5,80,127,1330032880
25,13,7,Jits_ISO_8,1,5,63,98,1330052740
25,13,7,Jits_ISO_8,2,1,48,38,1330067768
25,13,7,Jits_ISO_8,3,5,56,103,1330133300
25,13,7,Jits_ISO_8,0,5,63,98,1330822708
25,13,7,Jits_ISO_8,1,1,48,36,1330868528
25,13,7,Jits_ISO_8,2,5,56,103,1330933088
25,13,7,Jits_ISO_8,3,5,80,127,1330936152
25,13,7,Jits_ISO_8,0,1,48,28,1331624172
25,13,7,Jits_ISO_8,1,5,63,98,1331642952
25,13,7,Jits_ISO_8,2,5,56,103,1331652840
25,13,7,Jits_ISO_8,3,5,80,127,1331655988
25,13,7,Jits_ISO_8,0,1,48,37,1332405576
25,13,7,Jits_ISO_8,1,5,56,103,1332423012
25,13,7,Jits_ISO_8,2,5,80,127,1332542804
25,13,7,Jits_ISO_8,3,5,63,98,1332582740
25,13,7,Jits_ISO_8,0,5,56,103,1333243112
25,13,7,Jits_ISO_8,1,1,48,30,1333278516
25,13,7,Jits_ISO_8,2,5,80,127,1333323128
25,13,7,Jits_ISO_8,3,5,63,98,1333342612
25,13,7,Jits_ISO_8,0,5,56,103,1334043132
25,13,7,Jits_ISO_8,1,1,48,35,1334108584
25,13,7,Jits_ISO_8,2,5,63,98,1334152668
25,13,7,Jits_ISO_8,3,5,80,127,1334155880
25,13,7,Jits_ISO_8,0,5,56,103,1334872596
25,13,7,Jits_ISO_8,1,5,80,127,1334903244
25,13,7,Jits_ISO_8,2,1,48,34,1334913708
25,13,7,Jits_ISO_8,3,5,63,98,1334922724
25,13,7,Jits_ISO_8,0,5,63,98,1335652616
25,13,7,Jits_ISO_8,1,5,56,103,1335662888
25,13,7,Jits_ISO_8,2,1,48,33,1335667500
25,13,7,Jits_ISO_8,3,5,80,127,1335673300
25,13,7,Jits_ISO_8,0,1,48,36,1336428976
25,13,7,Jits_ISO_8,1,5,80,127,1336443544
25,13,7,Jits_ISO_8,2,5,56,103,1336493672
25,13,7,Jits_ISO_8,3,5,63,98,1336533620
25,13,7,Jits_ISO_8,0,1,48,37,1337202996
25,13,7,Jits_ISO_8,1,5,80,127,1337262584
25,13,7,Jits_ISO_8,2,5,63,98,1337282920
25,13,7,Jits_ISO_8,3,5,56,103,1337333256
25,13,7,Jits_ISO_8,0,1,48,38,1337967632
25,13,7,Jits_ISO_8,1,5,80,127,1338072416
25,13,7,Jits_ISO_8,2,5,56,103,1338103436
25,13,7,Jits_ISO_8,3,5,63,98,1338172672
25,13,7,Jits_ISO_8,0,1,48,31,1338819808
25,13,7,Jits_ISO_8,1,5,56,103,1338923300
25,13,7,Jits_ISO_8,2,5,80,127,1338932596
25,13,7,Jits_ISO_8,3,5,63,98,1338972460
25,13,7,Jits_ISO_8,0,5,56,103,1339633048
25,13,7,Jits_ISO_8,1,5,63,98,1339652612
25,13,7,Jits_ISO_8,2,1,48,31,1339661508
25,13,7,Jits_ISO_8,3,5,80,127,1339723260
25,13,7,Jits_ISO_8,0,1,48,37,1340430796
25,13,7,Jits_ISO_8,1,5,63,98,1340453364
25,13,7,Jits_ISO_8,2,5,80,127,1340512712
25,13,7,Jits_ISO_8,3,5,56,103,1340533528
25,13,7,Jits_ISO_8,0,5,80,127,1341242668
25,13,7,Jits_ISO_8,1,5,56,103,1341272496
25,13,7,Jits_ISO_8,2,1,48,36,1341295540
25,13,7,Jits_ISO_8,3,5,63,98,1341303284
25,13,7,Jits_ISO_8,0,5,56,103,1342042388
25,13,7,Jits_ISO_8,1,1,48,36,1342069696
25,13,7,Jits_ISO_8,2,5,63,98,1342102776
25,13,7,Jits_ISO_8,3,5,80,127,1342163336
25,13,7,Jits_ISO_8,0,5,80,127,1342862716
25,13,7,Jits_ISO_8,1,5,56,103,1342883176
25,13,7,Jits_ISO_8,2,1,48,33,1342886592
25,13,7,Jits_ISO_8,3,5,63,98,1342952800
25,13,7,Jits_ISO_8,0,1,48,38,1343657156
25,13,7,Jits_ISO_8,1,5,80,127,1343662508
25,13,7,Jits_ISO_8,2,5,63,98,1343683140
25,13,7,Jits_ISO_8,3,5,56,103,1343712740
25,13,7,Jits_ISO_8,0,5,80,127,1344453100
25,13,7,Jits_ISO_8,1,1,48,30,1344464612
25,13,7,Jits_ISO_8,2,5,63,98,1344472432
25,13,7,Jits_ISO_8,3,5,56,103,1344533044
25,13,7,Jits_ISO_8,0,1,48,37,1345235924
25,13,7,Jits_ISO_8,1,5,80,127,1345252588
25,13,7,Jits_ISO_8,2,5,56,103,1345353200
25,13,7,Jits_ISO_8,3,5,63,98,1345382724
25,13,7,Jits_ISO_8,0,5,63,98,1346043240
25,13,7,Jits_ISO_8,1,5,80,127,1346093368
25,13,7,Jits_ISO_8,2,5,56,103,1346112856
25,13,7,Jits_ISO_8,3,1,48,31,1346135452
25,13,7,Jits_ISO_8,0,5,80,127,1346883104
25,13,7,Jits_ISO_8,1,1,48,28,1346893568
25,13,7,Jits_ISO_8,2,5,56,103,1346912548
25,13,7,Jits_ISO_8,3,5,63,98,1346915688
25,13,7,Jits_ISO_8,0,1,48,39,1347674392
25,13,7,Jits_ISO_8,1,5,63,98,1347713380
25,13,7,Jits_ISO_8,2,5,56,103,1347753316
25,13,7,Jits_ISO_8,3,5,80,127,1347773112
25,13,7,Jits_ISO_8,0,5,80,127,1348453008
25,13,7,Jits_ISO_8,1,1,48,37,1348495540
25,13,7,Jits_ISO_8,2,5,63,98,1348532724
25,13,7,Jits_ISO_8,3,5,56,103,1348572540
25,13,7,Jits_ISO_8,0,5,63,98,1349272816
25,13,7,Jits_ISO_8,1,1,48,33,1349285820
25,13,7,Jits_ISO_8,2,5,80,127,1349353004
25,13,7,Jits_ISO_8,3,5,56,103,1349373240
25,13,7,Jits_ISO_8,0,1,48,29,1350088096
25,13,7,Jits_ISO_8,1,5,56,103,1350112776
25,13,7,Jits_ISO_8,2,5,63,98,1350122972
25,13,7,Jits_ISO_8,3,5,80,127,1350162988
25,13,7,Jits_ISO_8,0,5,56,103,1350832452
25,13,7,Jits_ISO_8,1,5,80,127,1350835592
25,13,7,Jits_ISO_8,2,1,48,30,1350927368
25,13,7,Jits_ISO_8,3,5,63,98,1350973096
25,13,7,Jits_ISO_8,0,5,56,103,1351622976
25,13,7,Jits_ISO_8,1,1,48,28,1351672696
25,13,7,Jits_ISO_8,2,5,63,98,1351713104
25,13,7,Jits_ISO_8,3,5,80,127,1351782772
25,13,7,Jits_ISO_8,0,1,48,32,1352475712
25,13,7,Jits_ISO_8,1,5,63,98,1352502940
25,13,7,Jits_ISO_8,2,5,80,127,1352506072
25,13,7,Jits_ISO_8,3,5,56,103,1352563028
25,13,7,Jits_ISO_8,0,1,48,35,1353294000
25,13,7,Jits_ISO_8,1,5,80,127,1353343472
25,13,7,Jits_ISO_8,2,5,56,103,1353362736
25,13,7,Jits_ISO_8,3,5,63,98,1353372932
25,13,7,Jits_ISO_8,0,5,56,103,1354052840
25,13,7,Jits_ISO_8,1,5,63,98,1354063112
25,13,7,Jits_ISO_8,2,1,48,32,1354098364
25,13,7,Jits_ISO_8,3,5,80,127,1354132784
25,13,7,Jits_ISO_8,0,5,80,127,1354852856
25,13,7,Jits_ISO_8,1,1,48,32,1354877104
25,13,7,Jits_ISO_8,2,5,56,103,1354902980
25,13,7,Jits_ISO_8,3,5,63,98,1354953056
25,13,7,Jits_ISO_8,0,1,48,37,1355675848
25,13,7,Jits_ISO_8,1,5,56,103,1355733516
25,13,7,Jits_ISO_8,2,5,63,98,1355742812
25,13,7,Jits_ISO_8,3,5,80,127,1355782512
25,13,7,Jits_ISO_8,0,5,56,103,1356472924
25,13,7,Jits_ISO_8,1,5,63,98,1356512564
25,13,7,Jits_ISO_8,2,1,48,31,1356554640
25,13,7,Jits_ISO_8,3,5,80,127,1356562760
25,13,7,Jits_ISO_8,0,5,80,127,1357232616
25,13,7,Jits_ISO_8,1,5,56,103,1357282768
25,13,7,Jits_ISO_8,2,5,63,98,1357303004
25,13,7,Jits_ISO_8,3,1,48,33,1357328668
25,13,7,Jits_ISO_8,0,5,80,127,1358042476
25,13,7,Jits_ISO_8,1,5,63,98,1358102868
25,13,7,Jits_ISO_8,2,1,48,32,1358117592
25,13,7,Jits_ISO_8,3,5,56,103,1358182732
25,13,7,Jits_ISO_8,0,5,80,127,1358822792
25,13,7,Jits_ISO_8,1,5,56,103,1358862732
25,13,7,Jits_ISO_8,2,5,63,98,1358883116
25,13,7,Jits_ISO_8,3,1,48,35,1358938224
25,13,7,Jits_ISO_8,0,5,56,103,1359672608
25,13,7,Jits_ISO_8,1,5,80,127,1359682880
25,13,7,Jits_ISO_8,2,5,63,98,1359722816
25,13,7,Jits_ISO_8,3,1,48,38,1359754408
25,13,7,Jits_ISO_8,0,1,48,25,1360528856
25,13,7,Jits_ISO_8,1,5,56,103,1360543052
25,13,7,Jits_ISO_8,2,5,63,98,1360583088
25,13,7,Jits_ISO_8,3,5,80,127,1360586600
25,13,7,Jits_ISO_8,0,5,63,98,1361233524
25,13,7,Jits_ISO_8,1,5,80,127,1361273316
25,13,7,Jits_ISO_8,2,5,56,103,1361342796
25,13,7,Jits_ISO_8,3,1,48,28,1361362400
25,13,7,Jits_ISO_8,0,5,63,98,1362022816
25,13,7,Jits_ISO_8,1,5,56,103,1362102616
25,13,7,Jits_ISO_8,2,1,48,34,1362143520
25,13,7,Jits_ISO_8,3,5,80,127,1362163024
25,13,7,Jits_ISO_8,0,5,80,127,1362832712
25,13,7,Jits_ISO_8,1,5,63,98,1362883088
25,13,7,Jits_ISO_8,2,1,48,29,1362896176
25,13,7,Jits_ISO_8,3,5,56,103,1362912612
25,13,7,Jits_ISO_8,0,5,56,103,1363623364
25,13,7,Jits_ISO_8,1,5,63,98,1363672396
25,13,7,Jits_ISO_8,2,5,80,127,1363682668
25,13,7,Jits_ISO_8,3,1,48,31,1363687508
25,13,7,Jits_ISO_8,0,5,56,103,1364433144
25,13,7,Jits_ISO_8,1,1,48,30,1364478960
25,13,7,Jits_ISO_8,2,5,63,98,1364542832
25,13,7,Jits_ISO_8,3,5,80,127,1364563216
25,13,7,Jits_ISO_8,0,5,63,98,1365233240
25,13,7,Jits_ISO_8,1,5,80,127,1365283372
25,13,7,Jits_ISO_8,2,1,48,32,1365291148
25,13,7,Jits_ISO_8,3,5,56,103,1365373272
25,13,7,Jits_ISO_8,0,5,63,98,1366022536
25,13,7,Jits_ISO_8,1,5,80,127,1366053260
25,13,7,Jits_ISO_8,2,1,48,32,1366110704
25,13,7,Jits_ISO_8,3,5,56,103,1366143312
25,13,7,Jits_ISO_8,0,5,63,98,1366823284
25,13,7,Jits_ISO_8,1,5,56,103,1366832508
25,13,7,Jits_ISO_8,2,1,48,36,1366921788
25,13,7,Jits_ISO_8,3,5,80,127,1366933048
25,13,7,Jits_ISO_8,0,1,48,38,1367702004
25,13,7,Jits_ISO_8,1,5,63,98,1367723452
25,13,7,Jits_ISO_8,2,5,80,127,1367753304
25,13,7,Jits_ISO_8,3,5,56,103,1367782828
25,13,7,Jits_ISO_8,0,5,80,127,1368542460
25,13,7,Jits_ISO_8,1,5,63,98,1368553028
25,13,7,Jits_ISO_8,2,1,48,31,1368582184
25,13,7,Jits_ISO_8,3,5,56,103,1368584112
25,13,7,Jits_ISO_8,0,5,80,127,1369243040
25,13,7,Jits_ISO_8,1,5,63,98,1369262304
25,13,7,Jits_ISO_8,2,5,56,103,1369312680
25,13,7,Jits_ISO_8,3,1,48,40,1369427636
25,13,7,Jits_ISO_8,0,5,63,98,1370072452
25,13,7,Jits_ISO_8,1,5,80,127,1370132992
25,13,7,Jits_ISO_8,2,5,56,103,1370153376
25,13,7,Jits_ISO_8,3,1,48,28,1370234780
25,13,7,Jits_ISO_8,0,5,63,98,1370833348
25,13,7,Jits_ISO_8,1,5,56,103,1370882432
25,13,7,Jits_ISO_8,2,5,80,127,1370892628
25,13,7,Jits_ISO_8,3,1,48,23,1370994628
25,13,7,Jits_ISO_8,0,5,56,103,1371662796
25,13,7,Jits_ISO_8,1,5,80,127,1371672844
25,13,7,Jits_ISO_8,2,1,48,19,1371714172
25,13,7,Jits_ISO_8,3,5,63,98,1371773160
25,13,7,Jits_ISO_8,0,5,80,127,1372422588
25,13,7,Jits_ISO_8,1,5,63,98,1372432932
25,13,7,Jits_ISO_8,2,1,48,22,1372496360
25,13,7,Jits_ISO_8,3,5,56,103,1372583144
25,13,7,Jits_ISO_8,0,1,48,27,1373228188
25,13,7,Jits_ISO_8,1,5,63,98,1373232492
25,13,7,Jits_ISO_8,2,5,80,127,1373272356
25,13,7,Jits_ISO_8,3,5,56,103,1373353404
25,13,7,Jits_ISO_8,0,1,48,26,1374015380
25,13,7,Jits_ISO_8,1,5,56,103,1374022904
25,13,7,Jits_ISO_8,2,5,80,127,1374123440
25,13,7,Jits_ISO_8,3,5,63,98,1374142948
25,13,7,Jits_ISO_8,0,1,48,28,1374853532
25,13,7,Jits_ISO_8,1,5,80,127,1374883152
25,13,7,Jits_ISO_8,2,5,56,103,1374893792
25,13,7,Jits_ISO_8,3,5,63,98,1374982740
25,13,7,Jits_ISO_8,0,5,56,103,1375682896
25,13,7,Jits_ISO_8,1,1,48,24,1375695452
25,13,7,Jits_ISO_8,2,5,63,98,1375703496
25,13,7,Jits_ISO_8,3,5,80,127,1375783292
25,13,7,Jits_ISO_8,0,5,63,98,1376432544
25,13,7,Jits_ISO_8,1,1,48,31,1376456744
25,13,7,Jits_ISO_8,2,5,56,103,1376522700
25,13,7,Jits_ISO_8,3,5,80,127,1376525688
25,13,7,Jits_ISO_8,0,1,48,31,1377179376
25,13,7,Jits_ISO_8,1,5,56,103,1377262904
25,13,7,Jits_ISO_8,2,5,80,127,1377323580
25,13,7,Jits_ISO_8,3,5,63,98,1377332580
25,13,7,Jits_ISO_8,0,1,48,23,1378061320
25,13,7,Jits_ISO_8,1,5,80,127,1378112812
25,13,7,Jits_ISO_8,2,5,56,103,1378123000
25,13,7,Jits_ISO_8,3,5,63,98,1378126220
25,13,7,Jits_ISO_8,0,5,56,103,1378872808
25,13,7,Jits_ISO_8,1,5,80,127,1378883004
25,13,7,Jits_ISO_8,2,5,63,98,1378903688
25,13,7,Jits_ISO_8,3,1,48,28,1378905024
25,13,7,Jits_ISO_8,0,5,63,98,1379642636
25,13,7,Jits_ISO_8,1,1,48,39,1379693032
25,13,7,Jits_ISO_8,2,5,80,127,1379703320
25,13,7,Jits_ISO_8,3,5,56,103,1379753372
25,13,7,Jits_ISO_8,0,1,48,36,1380453024
25,13,7,Jits_ISO_8,1,5,63,98,1380523552
25,13,7,Jits_ISO_8,2,5,56,103,1380532552
25,13,7,Jits_ISO_8,3,5,80,127,1380582664
25,13,7,Jits_ISO_8,0,5,63,98,1381222628
25,13,7,Jits_ISO_8,1,5,80,127,1381243384
25,13,7,Jits_ISO_8,2,5,56,103,1381252460
25,13,7,Jits_ISO_8,3,1,48,35,1381302952
25,13,7,Jits_ISO_8,0,5,63,98,1382022624
25,13,7,Jits_ISO_8,1,5,80,127,1382025836
25,13,7,Jits_ISO_8,2,5,56,103,1382062488
25,13,7,Jits_ISO_8,3,1,48,34,1382105188
25,13,7,Jits_ISO_8,0,1,48,27,1382842616
25,13,7,Jits_ISO_8,1,5,63,98,1382892836
25,13,7,Jits_ISO_8,2,5,80,127,1382922588
25,13,7,Jits_ISO_8,3,5,56,103,1382932784
25,13,7,Jits_ISO_8,0,5,56,103,1383642428
25,13,7,Jits_ISO_8,1,5,80,127,1383673452
25,13,7,Jits_ISO_8,2,5,63,98,1383702828
25,13,7,Jits_ISO_8,3,1,48,29,1383762364
25,13,7,Jits_ISO_8,0,1,48,29,1384492096
25,13,7,Jits_ISO_8,1,5,63,98,1384542688
25,13,7,Jits_ISO_8,2,5,56,103,1384582624
25,13,7,Jits_ISO_8,3,5,80,127,1384585764
25,13,7,Jits_ISO_8,0,5,80,127,1385243348
25,13,7,Jits_ISO_8,1,5,56,103,1385322776
25,13,7,Jits_ISO_8,2,5,63,98,1385372904
25,13,7,Jits_ISO_8,3,1,48,29,1385381200
25,13,7,Jits_ISO_8,0,5,80,127,1386023220
25,13,7,Jits_ISO_8,1,5,56,103,1386042632
25,13,7,Jits_ISO_8,2,5,63,98,1386132840
25,13,7,Jits_ISO_8,3,1,48,38,1386191880
25,13,7,Jits_ISO_8,0,5,80,127,1386863172
25,13,7,Jits_ISO_8,1,5,63,98,1386903108
25,13,7,Jits_ISO_8,2,5,56,103,1386942776
25,13,7,Jits_ISO_8,3,1,48,32,1386970624
25,13,7,Jits_ISO_8,0,5,63,98,1387633072
25,13,7,Jits_ISO_8,1,5,80,127,1387693468
25,13,7,Jits_ISO_8,2,1,48,34,1387706200
25,13,7,Jits_ISO_8,3,5,56,103,1387723312
25,13,7,Jits_ISO_8,0,5,56,103,1388432636
25,13,7,Jits_ISO_8,1,1,48,34,1388438744
25,13,7,Jits_ISO_8,2,5,80,127,1388462380
25,13,7,Jits_ISO_8,3,5,63,98,1388552444
25,13,7,Jits_ISO_8,0,5,56,103,1389242720
25,13,7,Jits_ISO_8,1,1,48,39,1389277304
25,13,7,Jits_ISO_8,2,5,80,127,1389353380
25,13,7,Jits_ISO_8,3,5,63,98,1389383260
25,13,7,Jits_ISO_8,0,5,56,103,1390092796
25,13,7,Jits_ISO_8,1,1,48,35,1390127076
25,13,7,Jits_ISO_8,2,5,63,98,1390153032
25,13,7,Jits_ISO_8,3,5,80,127,1390182712
25,13,7,Jits_ISO_8,0,5,56,103,1390862708
25,13,7,Jits_ISO_8,1,5,63,98,1390933288
25,13,7,Jits_ISO_8,2,5,80,127,1390953072
25,13,7,Jits_ISO_8,3,1,48,33,1390964964
25,13,7,Jits_ISO_8,0,5,80,127,1391632616
25,13,7,Jits_ISO_8,1,5,63,98,1391653372
25,13,7,Jits_ISO_8,2,5,56,103,1391703424
25,13,7,Jits_ISO_8,3,1,48,38,1391733292
25,13,7,Jits_ISO_8,0,9999,9999,9999,1296900216
25,13,7,Jits_ISO_8,1,9999,9999,9999,1297700964
25,13,7,Jits_ISO_8,2,9999,9999,9999,1298500684
25,13,7,Jits_ISO_8,3,9999,9999,9999,1299300476
25,13,7,Jits_ISO_8,4,9999,9999,9999,1300100188
25,13,7,Jits_ISO_8,5,9999,9999,9999,1300900944
25,13,7,Jits_ISO_8,6,9999,9999,9999,1301700684
25,13,7,Jits_ISO_8,7,9999,9999,9999,1302500404
25,13,7,Jits_ISO_8,8,9999,9999,9999,1303300180
25,13,7,Jits_ISO_8,9,9999,9999,9999,1304100924
25,13,7,Jits_ISO_8,10,9999,9999,9999,1304900728
25,13,7,Jits_ISO_8,11,9999,9999,9999,1305700440
25,13,7,Jits_ISO_8,12,9999,9999,9999,1306500172
25,13,7,Jits_ISO_8,13,9999,9999,9999,1307300940
25,13,7,Jits_ISO_8,14,9999,9999,9999,1308100664
25,13,7,Jits_ISO_8,15,9999,9999,9999,1308900440
25,13,7,Jits_ISO_8,16,9999,9999,9999,1309700208
25,13,7,Jits_ISO_8,17,9999,9999,9999,1310500984
25,13,7,Jits_ISO_8,18,9999,9999,9999,1311300700
25,13,7,Jits_ISO_8,19,9999,9999,9999,1312100408
25,13,7,Jits_ISO_8,20,9999,9999,9999,1312900188
25,13,7,Jits_ISO_8,21,9999,9999,9999,1313700940
25,13,7,Jits_ISO_8,22,9999,9999,9999,1314500676
25,13,7,Jits_ISO_8,23,9999,9999,9999,1315300456
25,13,7,Jits_ISO_8,24,9999,9999,9999,1316100160
25,13,7,Jits_ISO_8,25,9999,9999,9999,1316900916
25,13,7,Jits_ISO_8,26,9999,9999,9999,1317700700
25,13,7,Jits_ISO_8,27,9999,9999,9999,1318500408
25,13,7,Jits_ISO_8,28,9999,9999,9999,1319300200
25,13,7,Jits_ISO_8,29,9999,9999,9999,1320100964
25,13,7,Jits_ISO_8,30,9999,9999,9999,1320900692
25,13,7,Jits_ISO_8,31,9999,9999,9999,1321700476
25,13,7,Jits_ISO_8,32,9999,9999,9999,1322500180
25,13,7,Jits_ISO_8,33,9999,9999,9999,1323300944
25,13,7,Jits_ISO_8,34,9999,9999,9999,1324100728
25,13,7,Jits_ISO_8,35,9999,9999,9999,1324900444
25,13,7,Jits_ISO_8,36,9999,9999,9999,1325700160
25,13,7,Jits_ISO_8,37,9999,9999,9999,1326500932
25,13,7,Jits_ISO_8,38,9999,9999,9999,1327300676
25,13,7,Jits_ISO_8,39,9999,9999,9999,1328100404
25,13,7,Jits_ISO_8,40,9999,9999,9999,1328900192
25,13,7,Jits_ISO_8,41,9999,9999,9999,1329700944
25,13,7,Jits_ISO_8,42,9999,9999,9999,1330500724
25,13,7,Jits_ISO_8,43,9999,9999,9999,1331300436
25,13,7,Jits_ISO_8,44,9999,9999,9999,1332100204
25,13,7,Jits_ISO_8,45,9999,9999,9999,1332900964
25,13,7,Jits_ISO_8,46,9999,9999,9999,1333700696
25,13,7,Jits_ISO_8,47,9999,9999,9999,1334500416
25,13,7,Jits_ISO_8,48,9999,9999,9999,1335300216
25,13,7,Jits_ISO_8,49,9999,9999,9999,1336100980
25,13,7,Jits_ISO_8,50,9999,9999,9999,1336900688
25,13,7,Jits_ISO_8,51,9999,9999,9999,1337700472
25,13,7,Jits_ISO_8,52,9999,9999,9999,1338500184
25,13,7,Jits_ISO_8,53,9999,9999,9999,1339300944
25,13,7,Jits_ISO_8,54,9999,9999,9999,1340100672
25,13,7,Jits_ISO_8,55,9999,9999,9999,1340900472
25,13,7,Jits_ISO_8,56,9999,9999,9999,1341700176
25,13,7,Jits_ISO_8,57,9999,9999,9999,1342500948
25,13,7,Jits_ISO_8,58,9999,9999,9999,1343300672
25,13,7,Jits_ISO_8,59,9999,9999,9999,1344100468
25,13,7,Jits_ISO_8,60,9999,9999,9999,1344900172
25,13,7,Jits_ISO_8,61,9999,9999,9999,1345700944
25,13,7,Jits_ISO_8,62,9999,9999,9999,1346500672
25,13,7,Jits_ISO_8,63,9999,9999,9999,1347300448
25,13,7,Jits_ISO_8,64,9999,9999,9999,1348100176
25,13,7,Jits_ISO_8,65,9999,9999,9999,1348900932
25,13,7,Jits_ISO_8,66,9999,9999,9999,1349700660
25,13,7,Jits_ISO_8,67,9999,9999,9999,1350500448
25,13,7,Jits_ISO_8,68,9999,9999,9999,1351300220
25,13,7,Jits_ISO_8,69,9999,9999,9999,1352100988
25,13,7,Jits_ISO_8,70,9999,9999,9999,1352900660
25,13,7,Jits_ISO_8,71,9999,9999,9999,1353700456
25,13,7,Jits_ISO_8,72,9999,9999,9999,1354500160
25,13,7,Jits_ISO_8,73,9999,9999,9999,1355300928
25,13,7,Jits_ISO_8,74,9999,9999,9999,1356100732
25,13,7,Jits_ISO_8,75,9999,9999,9999,1356900444
25,13,7,Jits_ISO_8,76,9999,9999,9999,1357700164
25,13,7,Jits_ISO_8,77,9999,9999,9999,1358500936
25,13,7,Jits_ISO_8,78,9999,9999,9999,1359300724
25,13,7,Jits_ISO_8,79,9999,9999,9999,1360100444
25,13,7,Jits_ISO_8,80,9999,9999,9999,1360900172
25,13,7,Jits_ISO_8,81,9999,9999,9999,1361700924
25,13,7,Jits_ISO_8,82,9999,9999,9999,1362500708
25,13,7,Jits_ISO_8,83,9999,9999,9999,1363300412
25,13,7,Jits_ISO_8,84,9999,9999,9999,1364100200
25,13,7,Jits_ISO_8,85,9999,9999,9999,1364900972
25,13,7,Jits_ISO_8,86,9999,9999,9999,1365700720
25,13,7,Jits_ISO_8,87,9999,9999,9999,1366500424
25,13,7,Jits_ISO_8,88,9999,9999,9999,1367300196
25,13,7,Jits_ISO_8,89,9999,9999,9999,1368100960
25,13,7,Jits_ISO_8,90,9999,9999,9999,1368900680
25,13,7,Jits_ISO_8,91,9999,9999,9999,1369700472
25,13,7,Jits_ISO_8,92,9999,9999,9999,1370500196
25,13,7,Jits_ISO_8,93,9999,9999,9999,1371300944
25,13,7,Jits_ISO_8,94,9999,9999,9999,1372100680
25,13,7,Jits_ISO_8,95,9999,9999,9999,1372900476
25,13,7,Jits_ISO_8,96,9999,9999,9999,1373700196
25,13,7,Jits_ISO_8,97,9999,9999,9999,1374500952
25,13,7,Jits_ISO_8,98,9999,9999,9999,1375300664
25,13,7,Jits_ISO_8,99,9999,9999,9999,1376100448
25,13,7,Jits_ISO_8,100,9999,9999,9999,1376900160
25,13,7,Jits_ISO_8,101,9999,9999,9999,1377700916
25,13,7,Jits_ISO_8,102,9999,9999,9999,1378500716
25,13,7,Jits_ISO_8,103,9999,9999,9999,1379300424
25,13,7,Jits_ISO_8,104,9999,9999,9999,1380100220
25,13,7,Jits_ISO_8,105,9999,9999,9999,1380900956
25,13,7,Jits_ISO_8,106,9999,9999,9999,1381700660
25,13,7,Jits_ISO_8,107,9999,9999,9999,1382500424
25,13,7,Jits_ISO_8,108,9999,9999,9999,1383300208
25,13,7,Jits_ISO_8,109,9999,9999,9999,1384100956
25,13,7,Jits_ISO_8,110,9999,9999,9999,1384900708
25,13,7,Jits_ISO_8,111,9999,9999,9999,1385700416
25,13,7,Jits_ISO_8,112,9999,9999,9999,1386500208
25,13,7,Jits_ISO_8,113,9999,9999,9999,1387300976
25,13,7,Jits_ISO_8,114,9999,9999,9999,1388100700
25,13,7,Jits_ISO_8,115,9999,9999,9999,1388900408
25,13,7,Jits_ISO_8,116,9999,9999,9999,1389700212
25,13,7,Jits_ISO_8,117,9999,9999,9999,1390500988
25,13,7,Jits_ISO_8,118,9999,9999,9999,1391300668
25,13,7,Jits_ISO_8,119,9999,9999,9999,1392100456
25,14,16,Jits_ISO_5,0,5,56,103,1402737040
25,14,16,Jits_ISO_5,1,5,63,98,1402740060
25,14,16,Jits_ISO_5,2,5,80,127,1402743188
25,14,16,Jits_ISO_5,0,5,56,103,1403236836
25,14,16,Jits_ISO_5,1,5,63,98,1403239856
25,14,16,Jits_ISO_5,2,5,80,127,1403243056
25,14,16,Jits_ISO_5,0,5,56,103,1403736720
25,14,16,Jits_ISO_5,1,5,80,127,1403746692
25,14,16,Jits_ISO_5,2,5,63,98,1403767004
25,14,16,Jits_ISO_5,0,5,63,98,1404187016
25,14,16,Jits_ISO_5,1,5,80,127,1404216768
25,14,16,Jits_ISO_5,2,5,56,103,1404226888
25,14,16,Jits_ISO_5,0,5,80,127,1404747120
25,14,16,Jits_ISO_5,1,5,56,103,1404757764
25,14,16,Jits_ISO_5,2,5,63,98,1404787140
25,14,16,Jits_ISO_5,0,5,63,98,1405236676
25,14,16,Jits_ISO_5,1,5,56,103,1405267396
25,14,16,Jits_ISO_5,2,5,80,127,1405276620
25,14,16,Jits_ISO_5,0,5,56,103,1405687328
25,14,16,Jits_ISO_5,1,5,63,98,1405737528
25,14,16,Jits_ISO_5,2,5,80,127,1405756868
25,14,16,Jits_ISO_5,0,5,80,127,1406186920
25,14,16,Jits_ISO_5,1,5,63,98,1406237120
25,14,16,Jits_ISO_5,2,5,56,103,1406276908
25,14,16,Jits_ISO_5,0,5,56,103,1406686508
25,14,16,Jits_ISO_5,1,5,63,98,1406717452
25,14,16,Jits_ISO_5,2,5,80,127,1406786908
25,14,16,Jits_ISO_5,3,1,48,44,1406793092
25,14,16,Jits_ISO_5,0,5,56,103,1407187304
25,14,16,Jits_ISO_5,1,5,80,127,1407246644
25,14,16,Jits_ISO_5,2,5,63,98,1407277512
25,14,16,Jits_ISO_5,3,1,48,36,1407285880
25,14,16,Jits_ISO_5,0,5,56,103,1407697240
25,14,16,Jits_ISO_5,1,5,63,98,1407706388
25,14,16,Jits_ISO_5,2,5,80,127,1407746548
25,14,16,Jits_ISO_5,3,1,48,38,1407786600
25,14,16,Jits_ISO_5,0,5,63,98,1408186724
25,14,16,Jits_ISO_5,1,1,48,38,1408255920
25,14,16,Jits_ISO_5,2,5,80,127,1408266512
25,14,16,Jits_ISO_5,3,5,56,103,1408276780
25,14,16,Jits_ISO_5,0,5,63,98,1408736504
25,14,16,Jits_ISO_5,1,1,48,38,1408743956
25,14,16,Jits_ISO_5,2,5,56,103,1408776656
25,14,16,Jits_ISO_5,3,5,80,127,1408779720
25,14,16,Jits_ISO_5,0,5,56,103,1409197396
25,14,16,Jits_ISO_5,1,5,63,98,1409206496
25,14,16,Jits_ISO_5,2,5,80,127,1409246504
25,14,16,Jits_ISO_5,3,1,48,42,1409259208
25,14,16,Jits_ISO_5,0,5,56,103,1409687020
25,14,16,Jits_ISO_5,1,5,63,98,1409689864
25,14,16,Jits_ISO_5,2,5,80,127,1409707256
25,14,16,Jits_ISO_5,3,1,48,34,1409709996
25,14,16,Jits_ISO_5,0,1,48,38,1410192932
25,14,16,Jits_ISO_5,1,5,80,127,1410196788
25,14,16,Jits_ISO_5,2,5,56,103,1410207208
25,14,16,Jits_ISO_5,3,5,63,98,1410276760
25,14,16,Jits_ISO_5,0,5,63,98,1410687308
25,14,16,Jits_ISO_5,1,5,56,103,1410706944
25,14,16,Jits_ISO_5,2,1,48,35,1410721524
25,14,16,Jits_ISO_5,3,5,80,127,1410786604
25,14,16,Jits_ISO_5,0,5,56,103,1411197228
25,14,16,Jits_ISO_5,1,1,48,40,1411208888
25,14,16,Jits_ISO_5,2,5,80,127,1411237160
25,14,16,Jits_ISO_5,3,5,63,98,1411246532
25,14,16,Jits_ISO_5,0,5,80,127,1411687160
25,14,16,Jits_ISO_5,1,5,63,98,1411716460
25,14,16,Jits_ISO_5,2,1,48,39,1411724980
25,14,16,Jits_ISO_5,3,5,56,103,1411757364
25,14,16,Jits_ISO_5,0,1,48,39,1412196312
25,14,16,Jits_ISO_5,1,5,56,103,1412206904
25,14,16,Jits_ISO_5,2,5,63,98,1412236652
25,14,16,Jits_ISO_5,3,5,80,127,1412287100
25,14,16,Jits_ISO_5,0,5,80,127,1412706644
25,14,16,Jits_ISO_5,1,1,48,35,1412710208
25,14,16,Jits_ISO_5,2,5,56,103,1412746576
25,14,16,Jits_ISO_5,3,5,63,98,1412756992
25,14,16,Jits_ISO_5,0,5,80,127,1413187060
25,14,16,Jits_ISO_5,1,1,48,33,1413211828
25,14,16,Jits_ISO_5,2,5,63,98,1413227292
25,14,16,Jits_ISO_5,3,5,56,103,1413287232
25,14,16,Jits_ISO_5,0,5,56,103,1413686584
25,14,16,Jits_ISO_5,1,1,48,34,1413696708
25,14,16,Jits_ISO_5,2,5,80,127,1413698340
25,14,16,Jits_ISO_5,3,5,63,98,1413776712
25,14,16,Jits_ISO_5,0,5,80,127,1414187376
25,14,16,Jits_ISO_5,1,1,48,36,1414218516
25,14,16,Jits_ISO_5,2,5,63,98,1414246860
25,14,16,Jits_ISO_5,3,5,56,103,1414276460
25,14,16,Jits_ISO_5,0,5,56,103,1414686976
25,14,16,Jits_ISO_5,1,1,48,36,1414710696
25,14,16,Jits_ISO_5,2,5,80,127,1414746460
25,14,16,Jits_ISO_5,3,5,63,98,1414786396
25,14,16,Jits_ISO_5,0,1,48,34,1415227452
25,14,16,Jits_ISO_5,1,5,56,103,1415236912
25,14,16,Jits_ISO_5,2,5,63,98,1415247256
25,14,16,Jits_ISO_5,3,5,80,127,1415250768
25,14,16,Jits_ISO_5,0,5,80,127,1415686524
25,14,16,Jits_ISO_5,1,1,48,42,1415731668
25,14,16,Jits_ISO_5,2,5,63,98,1415776572
25,14,16,Jits_ISO_5,3,5,56,103,1415787140
25,14,16,Jits_ISO_5,0,5,56,103,1416187224
25,14,16,Jits_ISO_5,1,5,63,98,1416190472
25,14,16,Jits_ISO_5,2,5,80,127,1416193520
25,14,16,Jits_ISO_5,3,1,48,38,1416221744
25,14,16,Jits_ISO_5,0,1,48,42,1416695772
25,14,16,Jits_ISO_5,1,5,80,127,1416706288
25,14,16,Jits_ISO_5,2,5,63,98,1416756936
25,14,16,Jits_ISO_5,3,5,56,103,1416787360
25,14,16,Jits_ISO_5,0,5,56,103,1417186776
25,14,16,Jits_ISO_5,1,5,80,127,1417197044
25,14,16,Jits_ISO_5,2,1,48,42,1417208036
25,14,16,Jits_ISO_5,3,5,63,98,1417266492
25,14,16,Jits_ISO_5,0,1,48,41,1417667908
25,14,16,Jits_ISO_5,1,5,56,103,1417696480
25,14,16,Jits_ISO_5,2,5,63,98,1417717088
25,14,16,Jits_ISO_5,3,5,80,127,1417776412
25,14,16,Jits_ISO_5,0,1,48,43,1418157128
25,14,16,Jits_ISO_5,1,5,80,127,1418187068
25,14,16,Jits_ISO_5,2,5,63,98,1418256956
25,14,16,Jits_ISO_5,3,5,56,103,1418277340
25,14,16,Jits_ISO_5,0,5,80,127,1418707336
25,14,16,Jits_ISO_5,1,1,48,38,1418710604
25,14,16,Jits_ISO_5,2,5,56,103,1418716476
25,14,16,Jits_ISO_5,3,5,63,98,1418726896
25,14,16,Jits_ISO_5,0,5,80,127,1419196964
25,14,16,Jits_ISO_5,1,1,48,37,1419212292
25,14,16,Jits_ISO_5,2,5,56,103,1419217120
25,14,16,Jits_ISO_5,3,5,63,98,1419286944
25,14,16,Jits_ISO_5,0,5,56,103,1419706752
25,14,16,Jits_ISO_5,1,1,48,36,1419713984
25,14,16,Jits_ISO_5,2,5,80,127,1419736644
25,14,16,Jits_ISO_5,3,5,63,98,1419756804
25,14,16,Jits_ISO_5,0,5,63,98,1420197184
25,14,16,Jits_ISO_5,1,1,48,38,1420208248
25,14,16,Jits_ISO_5,2,5,56,103,1420256916
25,14,16,Jits_ISO_5,3,5,80,127,1420287340
25,14,16,Jits_ISO_5,0,5,63,98,1420686876
25,14,16,Jits_ISO_5,1,5,80,127,1420690092
25,14,16,Jits_ISO_5,2,1,48,32,1420703776
25,14,16,Jits_ISO_5,3,5,56,103,1420777024
25,14,16,Jits_ISO_5,0,1,48,36,1421202744
25,14,16,Jits_ISO_5,1,5,56,103,1421206972
25,14,16,Jits_ISO_5,2,5,63,98,1421236672
25,14,16,Jits_ISO_5,3,5,80,127,1421276536
25,14,16,Jits_ISO_5,0,1,48,38,1421702096
25,14,16,Jits_ISO_5,1,5,63,98,1421706776
25,14,16,Jits_ISO_5,2,5,56,103,1421746788
25,14,16,Jits_ISO_5,3,5,80,127,1421766900
25,14,16,Jits_ISO_5,0,1,48,35,1422192916
25,14,16,Jits_ISO_5,1,5,63,98,1422216700
25,14,16,Jits_ISO_5,2,5,56,103,1422256636
25,14,16,Jits_ISO_5,3,5,80,127,1422266636
25,14,16,Jits_ISO_5,0,5,80,127,1422696960
25,14,16,Jits_ISO_5,1,1,48,33,1422709740
25,14,16,Jits_ISO_5,2,5,63,98,1422766636
25,14,16,Jits_ISO_5,3,5,56,103,1422786892
25,14,16,Jits_ISO_5,0,5,56,103,1423187344
25,14,16,Jits_ISO_5,1,5,80,127,1423206832
25,14,16,Jits_ISO_5,2,1,48,38,1423228604
25,14,16,Jits_ISO_5,3,5,63,98,1423246684
25,14,16,Jits_ISO_5,0,5,63,98,1423697204
25,14,16,Jits_ISO_5,1,5,80,127,1423716840
25,14,16,Jits_ISO_5,2,1,48,33,1423731868
25,14,16,Jits_ISO_5,3,5,56,103,1423756768
25,14,16,Jits_ISO_5,0,5,63,98,1424196864
25,14,16,Jits_ISO_5,1,5,56,103,1424216572
25,14,16,Jits_ISO_5,2,1,48,37,1424224500
25,14,16,Jits_ISO_5,3,5,80,127,1424226616
25,14,16,Jits_ISO_5,0,5,80,127,1424696668
25,14,16,Jits_ISO_5,1,5,56,103,1424717128
25,14,16,Jits_ISO_5,2,1,48,40,1424731704
25,14,16,Jits_ISO_5,3,5,63,98,1424746792
25,14,16,Jits_ISO_5,0,1,48,36,1425262904
25,14,16,Jits_ISO_5,1,5,56,103,1425266980
25,14,16,Jits_ISO_5,2,5,80,127,1425269896
25,14,16,Jits_ISO_5,3,5,63,98,1425286764
25,14,16,Jits_ISO_5,0,5,63,98,1425686852
25,14,16,Jits_ISO_5,1,5,56,103,1425716604
25,14,16,Jits_ISO_5,2,1,48,36,1425760400
25,14,16,Jits_ISO_5,3,5,80,127,1425776984
25,14,16,Jits_ISO_5,0,1,48,32,1426215700
25,14,16,Jits_ISO_5,1,5,63,98,1426266596
25,14,16,Jits_ISO_5,2,5,56,103,1426276640
25,14,16,Jits_ISO_5,3,5,80,127,1426286836
25,14,16,Jits_ISO_5,0,5,56,103,1426716968
25,14,16,Jits_ISO_5,1,5,80,127,1426746716
25,14,16,Jits_ISO_5,2,5,63,98,1426756912
25,14,16,Jits_ISO_5,3,1,48,30,1426788344
25,14,16,Jits_ISO_5,0,1,48,35,1427200420
25,14,16,Jits_ISO_5,1,5,63,98,1427256568
25,14,16,Jits_ISO_5,2,5,56,103,1427266988
25,14,16,Jits_ISO_5,3,5,80,127,1427287592
25,14,16,Jits_ISO_5,0,5,56,103,1427686784
25,14,16,Jits_ISO_5,1,1,48,32,1427720544
25,14,16,Jits_ISO_5,2,5,63,98,1427747316
25,14,16,Jits_ISO_5,3,5,80,127,1427750604
25,14,16,Jits_ISO_5,0,1,48,34,1428194884
25,14,16,Jits_ISO_5,1,5,80,127,1428206892
25,14,16,Jits_ISO_5,2,5,56,103,1428217464
25,14,16,Jits_ISO_5,3,5,63,98,1428286768
25,14,16,Jits_ISO_5,0,1,48,38,1428696964
25,14,16,Jits_ISO_5,1,5,80,127,1428698384
25,14,16,Jits_ISO_5,2,5,56,103,1428766944
25,14,16,Jits_ISO_5,3,5,63,98,1428777584
25,14,16,Jits_ISO_5,0,1,48,38,1429203556
25,14,16,Jits_ISO_5,1,5,63,98,1429237228
25,14,16,Jits_ISO_5,2,5,56,103,1429247348
25,14,16,Jits_ISO_5,3,5,80,127,1429266836
25,14,16,Jits_ISO_5,0,1,48,41,1429685796
25,14,16,Jits_ISO_5,1,5,80,127,1429687664
25,14,16,Jits_ISO_5,2,5,63,98,1429747008
25,14,16,Jits_ISO_5,3,5,56,103,1429786928
25,14,16,Jits_ISO_5,0,1,48,34,1430192512
25,14,16,Jits_ISO_5,1,5,56,103,1430227256
25,14,16,Jits_ISO_5,2,5,63,98,1430236552
25,14,16,Jits_ISO_5,3,5,80,127,1430276488
25,14,16,Jits_ISO_5,0,5,56,103,1430687340
25,14,16,Jits_ISO_5,1,1,48,39,1430688452
25,14,16,Jits_ISO_5,2,5,80,127,1430716736
25,14,16,Jits_ISO_5,3,5,63,98,1430766856
25,14,16,Jits_ISO_5,0,1,48,41,1431172364
25,14,16,Jits_ISO_5,1,5,56,103,1431226812
25,14,16,Jits_ISO_5,2,5,63,98,1431266672
25,14,16,Jits_ISO_5,3,5,80,127,1431270848
25,14,16,Jits_ISO_5,0,1,48,35,1431691796
25,14,16,Jits_ISO_5,1,5,56,103,1431726444
25,14,16,Jits_ISO_5,2,5,63,98,1431736588
25,14,16,Jits_ISO_5,3,5,80,127,1431757272
25,14,16,Jits_ISO_5,0,1,48,39,1432137436
25,14,16,Jits_ISO_5,1,5,56,103,1432187128
25,14,16,Jits_ISO_5,2,5,80,127,1432190276
25,14,16,Jits_ISO_5,3,5,63,98,1432227368
25,14,16,Jits_ISO_5,0,1,48,38,1432670940
25,14,16,Jits_ISO_5,1,5,63,98,1432726864
25,14,16,Jits_ISO_5,2,5,56,103,1432756636
25,14,16,Jits_ISO_5,3,5,80,127,1432777156
25,14,16,Jits_ISO_5,0,1,48,30,1433195348
25,14,16,Jits_ISO_5,1,5,80,127,1433197156
25,14,16,Jits_ISO_5,2,5,56,103,1433207348
25,14,16,Jits_ISO_5,3,5,63,98,1433217324
25,14,16,Jits_ISO_5,0,1,48,27,1433668768
25,14,16,Jits_ISO_5,1,5,56,103,1433696588
25,14,16,Jits_ISO_5,2,5,80,127,1433736528
25,14,16,Jits_ISO_5,3,5,63,98,1433767232
25,14,16,Jits_ISO_5,0,1,48,30,1434178840
25,14,16,Jits_ISO_5,1,5,63,98,1434206512
25,14,16,Jits_ISO_5,2,5,80,127,1434216856
25,14,16,Jits_ISO_5,3,5,56,103,1434227348
25,14,16,Jits_ISO_5,0,1,48,31,1434652040
25,14,16,Jits_ISO_5,1,5,56,103,1434686688
25,14,16,Jits_ISO_5,2,5,63,98,1434756424
25,14,16,Jits_ISO_5,3,5,80,127,1434766696
25,14,16,Jits_ISO_5,0,1,48,32,1435170796
25,14,16,Jits_ISO_5,1,5,80,127,1435186416
25,14,16,Jits_ISO_5,2,5,56,103,1435196908
25,14,16,Jits_ISO_5,3,5,63,98,1435246960
25,14,16,Jits_ISO_5,0,1,48,32,1435674268
25,14,16,Jits_ISO_5,1,5,80,127,1435696560
25,14,16,Jits_ISO_5,2,5,56,103,1435757172
25,14,16,Jits_ISO_5,3,5,63,98,1435786532
25,14,16,Jits_ISO_5,0,5,56,103,1436197196
25,14,16,Jits_ISO_5,1,5,80,127,1436200560
25,14,16,Jits_ISO_5,2,5,63,98,1436237132
25,14,16,Jits_ISO_5,3,1,48,29,1436246696
25,14,16,Jits_ISO_5,0,1,48,27,1436694116
25,14,16,Jits_ISO_5,1,5,56,103,1436726592
25,14,16,Jits_ISO_5,2,5,63,98,1436757312
25,14,16,Jits_ISO_5,3,5,80,127,1436766464
25,14,16,Jits_ISO_5,0,1,48,27,1437192128
25,14,16,Jits_ISO_5,1,5,63,98,1437236592
25,14,16,Jits_ISO_5,2,5,80,127,1437246936
25,14,16,Jits_ISO_5,3,5,56,103,1437257056
25,14,16,Jits_ISO_5,0,5,80,127,1437687108
25,14,16,Jits_ISO_5,1,1,48,29,1437717424
25,14,16,Jits_ISO_5,2,5,56,103,1437737300
25,14,16,Jits_ISO_5,3,5,63,98,1437740516
25,14,16,Jits_ISO_5,0,1,48,29,1438204408
25,14,16,Jits_ISO_5,1,5,56,103,1438216584
25,14,16,Jits_ISO_5,2,5,80,127,1438237188
25,14,16,Jits_ISO_5,3,5,63,98,1438247164
25,14,16,Jits_ISO_5,0,1,48,33,1438673056
25,14,16,Jits_ISO_5,1,5,63,98,1438696984
25,14,16,Jits_ISO_5,2,5,56,103,1438726436
25,14,16,Jits_ISO_5,3,5,80,127,1438747116
25,14,16,Jits_ISO_5,0,1,48,31,1439159384
25,14,16,Jits_ISO_5,1,5,56,103,1439207132
25,14,16,Jits_ISO_5,2,5,80,127,1439217176
25,14,16,Jits_ISO_5,3,5,63,98,1439286840
25,14,16,Jits_ISO_5,0,5,63,98,1439697136
25,14,16,Jits_ISO_5,1,1,48,25,1439714428
25,14,16,Jits_ISO_5,2,5,80,127,1439737292
25,14,16,Jits_ISO_5,3,5,56,103,1439777156
25,14,16,Jits_ISO_5,0,5,56,103,1440207212
25,14,16,Jits_ISO_5,1,1,48,24,1440212572
25,14,16,Jits_ISO_5,2,5,63,98,1440216652
25,14,16,Jits_ISO_5,3,5,80,127,1440236888
25,14,16,Jits_ISO_5,0,1,48,28,1440712760
25,14,16,Jits_ISO_5,1,5,63,98,1440747104
25,14,16,Jits_ISO_5,2,5,80,127,1440767340
25,14,16,Jits_ISO_5,3,5,56,103,1440787048
25,14,16,Jits_ISO_5,0,5,56,103,1441187112
25,14,16,Jits_ISO_5,1,1,48,30,1441234228
25,14,16,Jits_ISO_5,2,5,80,127,1441266928
25,14,16,Jits_ISO_5,3,5,63,98,1441277496
25,14,16,Jits_ISO_5,0,1,48,28,1441706240
25,14,16,Jits_ISO_5,1,5,80,127,1441727036
25,14,16,Jits_ISO_5,2,5,63,98,1441737008
25,14,16,Jits_ISO_5,3,5,56,103,1441767056
25,14,16,Jits_ISO_5,0,5,63,98,1442186820
25,14,16,Jits_ISO_5,1,1,48,28,1442220208
25,14,16,Jits_ISO_5,2,5,80,127,1442226704
25,14,16,Jits_ISO_5,3,5,56,103,1442286940
25,14,16,Jits_ISO_5,0,1,48,27,1442692136
25,14,16,Jits_ISO_5,1,5,63,98,1442696512
25,14,16,Jits_ISO_5,2,5,56,103,1442746888
25,14,16,Jits_ISO_5,3,5,80,127,1442776336
25,14,16,Jits_ISO_5,0,1,48,29,1443185128
25,14,16,Jits_ISO_5,1,5,80,127,1443206648
25,14,16,Jits_ISO_5,2,5,63,98,1443216772
25,14,16,Jits_ISO_5,3,5,56,103,1443287356
25,14,16,Jits_ISO_5,0,1,48,27,1443701704
25,14,16,Jits_ISO_5,1,5,80,127,1443776908
25,14,16,Jits_ISO_5,2,5,56,103,1443787100
25,14,16,Jits_ISO_5,3,5,63,98,1443790240
25,14,16,Jits_ISO_5,0,5,56,103,1444217136
25,14,16,Jits_ISO_5,1,5,80,127,1444236844
25,14,16,Jits_ISO_5,2,5,63,98,1444246892
25,14,16,Jits_ISO_5,3,1,48,25,1444248980
25,14,16,Jits_ISO_5,0,5,63,98,1444727072
25,14,16,Jits_ISO_5,1,1,48,31,1444737008
25,14,16,Jits_ISO_5,2,5,56,103,1444767000
25,14,16,Jits_ISO_5,3,5,80,127,1444786736
25,14,16,Jits_ISO_5,0,1,48,27,1445226660
25,14,16,Jits_ISO_5,1,5,63,98,1445228220
25,14,16,Jits_ISO_5,2,5,56,103,1445287260
25,14,16,Jits_ISO_5,3,5,80,127,1445290552
25,14,16,Jits_ISO_5,0,5,56,103,1445686748
25,14,16,Jits_ISO_5,1,5,80,127,1445706988
25,14,16,Jits_ISO_5,2,1,48,31,1445736480
25,14,16,Jits_ISO_5,3,5,63,98,1445746916
25,14,16,Jits_ISO_5,0,1,48,32,1446207816
25,14,16,Jits_ISO_5,1,5,56,103,1446216980
25,14,16,Jits_ISO_5,2,5,63,98,1446236616
25,14,16,Jits_ISO_5,3,5,80,127,1446246812
25,14,16,Jits_ISO_5,0,1,48,31,1446661316
25,14,16,Jits_ISO_5,1,5,80,127,1446687044
25,14,16,Jits_ISO_5,2,5,56,103,1446716720
25,14,16,Jits_ISO_5,3,5,63,98,1446756716
25,14,16,Jits_ISO_5,0,1,48,25,1447149360
25,14,16,Jits_ISO_5,1,5,80,127,1447197040
25,14,16,Jits_ISO_5,2,5,56,103,1447216672
25,14,16,Jits_ISO_5,3,5,63,98,1447276896
25,14,16,Jits_ISO_5,0,1,48,27,1447667976
25,14,16,Jits_ISO_5,1,5,56,103,1447706960
25,14,16,Jits_ISO_5,2,5,80,127,1447726668
25,14,16,Jits_ISO_5,3,5,63,98,1447786968
25,14,16,Jits_ISO_5,0,5,80,127,1448187220
25,14,16,Jits_ISO_5,1,1,48,27,1448192432
25,14,16,Jits_ISO_5,2,5,56,103,1448196660
25,14,16,Jits_ISO_5,3,5,63,98,1448237568
25,14,16,Jits_ISO_5,0,1,48,30,1448687332
25,14,16,Jits_ISO_5,1,5,63,98,1448688676
25,14,16,Jits_ISO_5,2,5,56,103,1448726892
25,14,16,Jits_ISO_5,3,5,80,127,1448730104
25,14,16,Jits_ISO_5,0,1,48,35,1449174592
25,14,16,Jits_ISO_5,1,5,63,98,1449207276
25,14,16,Jits_ISO_5,2,5,80,127,1449246992
25,14,16,Jits_ISO_5,3,5,56,103,1449276872
25,14,16,Jits_ISO_5,0,1,48,30,1449693712
25,14,16,Jits_ISO_5,1,5,56,103,1449696596
25,14,16,Jits_ISO_5,2,5,63,98,1449706792
25,14,16,Jits_ISO_5,3,5,80,127,1449736464
25,14,16,Jits_ISO_5,0,1,48,32,1450179140
25,14,16,Jits_ISO_5,1,5,80,127,1450187184
25,14,16,Jits_ISO_5,2,5,63,98,1450256716
25,14,16,Jits_ISO_5,3,5,56,103,1450266912
25,14,16,Jits_ISO_5,0,5,63,98,1450686852
25,14,16,Jits_ISO_5,1,1,48,31,1450689672
25,14,16,Jits_ISO_5,2,5,56,103,1450756524
25,14,16,Jits_ISO_5,3,5,80,127,1450766796
25,14,16,Jits_ISO_5,0,1,48,35,1451185608
25,14,16,Jits_ISO_5,1,5,63,98,1451187404
25,14,16,Jits_ISO_5,2,5,56,103,1451206964
25,14,16,Jits_ISO_5,3,5,80,127,1451246900
25,14,16,Jits_ISO_5,0,1,48,34,1451650964
25,14,16,Jits_ISO_5,1,5,56,103,1451696400
25,14,16,Jits_ISO_5,2,5,63,98,1451706692
25,14,16,Jits_ISO_5,3,5,80,127,1451786544
25,14,16,Jits_ISO_5,0,1,48,32,1452159388
25,14,16,Jits_ISO_5,1,5,63,98,1452187136
25,14,16,Jits_ISO_5,2,5,56,103,1452216836
25,14,16,Jits_ISO_5,3,5,80,127,1452256684
25,14,16,Jits_ISO_5,0,1,48,32,1452673200
25,14,16,Jits_ISO_5,1,5,56,103,1452686644
25,14,16,Jits_ISO_5,2,5,63,98,1452726832
25,14,16,Jits_ISO_5,3,5,80,127,1452766544
25,14,16,Jits_ISO_5,0,1,48,27,1453176312
25,14,16,Jits_ISO_5,1,5,80,127,1453186528
25,14,16,Jits_ISO_5,2,5,56,103,1453267540
25,14,16,Jits_ISO_5,3,5,63,98,1453276600
25,14,16,Jits_ISO_5,0,1,48,29,1453679036
25,14,16,Jits_ISO_5,1,5,56,103,1453727232
25,14,16,Jits_ISO_5,2,5,63,98,1453730224
25,14,16,Jits_ISO_5,3,5,80,127,1453737504
25,14,16,Jits_ISO_5,0,1,48,30,1454197868
25,14,16,Jits_ISO_5,1,5,56,103,1454247412
25,14,16,Jits_ISO_5,2,5,63,98,1454266628
25,14,16,Jits_ISO_5,3,5,80,127,1454277044
25,14,16,Jits_ISO_5,0,1,48,33,1454692728
25,14,16,Jits_ISO_5,1,5,63,98,1454707144
25,14,16,Jits_ISO_5,2,5,80,127,1454717264
25,14,16,Jits_ISO_5,3,5,56,103,1454736900
25,14,16,Jits_ISO_5,0,1,48,30,1455180544
25,14,16,Jits_ISO_5,1,5,63,98,1455206800
25,14,16,Jits_ISO_5,2,5,56,103,1455286524
25,14,16,Jits_ISO_5,3,5,80,127,1455289596
25,14,16,Jits_ISO_5,0,1,48,34,1455691816
25,14,16,Jits_ISO_5,1,5,63,98,1455706380
25,14,16,Jits_ISO_5,2,5,56,103,1455727136
25,14,16,Jits_ISO_5,3,5,80,127,1455756512
25,14,16,Jits_ISO_5,0,1,48,34,1456184444
25,14,16,Jits_ISO_5,1,5,56,103,1456207236
25,14,16,Jits_ISO_5,2,5,63,98,1456226648
25,14,16,Jits_ISO_5,3,5,80,127,1456236768
25,14,16,Jits_ISO_5,0,1,48,32,1456690152
25,14,16,Jits_ISO_5,1,5,56,103,1456736488
25,14,16,Jits_ISO_5,2,5,63,98,1456767428
25,14,16,Jits_ISO_5,3,5,80,127,1456770720
25,14,16,Jits_ISO_5,0,5,56,103,1457187220
25,14,16,Jits_ISO_5,1,1,48,36,1457198360
25,14,16,Jits_ISO_5,2,5,63,98,1457227152
25,14,16,Jits_ISO_5,3,5,80,127,1457286640
25,14,16,Jits_ISO_5,0,1,48,35,1457697424
25,14,16,Jits_ISO_5,1,5,56,103,1457707488
25,14,16,Jits_ISO_5,2,5,63,98,1457716560
25,14,16,Jits_ISO_5,3,5,80,127,1457777096
25,14,16,Jits_ISO_5,0,1,48,36,1458193996
25,14,16,Jits_ISO_5,1,5,56,103,1458207292
25,14,16,Jits_ISO_5,2,5,80,127,1458226632
25,14,16,Jits_ISO_5,3,5,63,98,1458257280
25,14,16,Jits_ISO_5,0,1,48,31,1458691936
25,14,16,Jits_ISO_5,1,5,80,127,1458706952
25,14,16,Jits_ISO_5,2,5,56,103,1458717148
25,14,16,Jits_ISO_5,3,5,63,98,1458736560
25,14,16,Jits_ISO_5,0,1,48,32,1459183344
25,14,16,Jits_ISO_5,1,5,63,98,1459197240
25,14,16,Jits_ISO_5,2,5,80,127,1459277108
25,14,16,Jits_ISO_5,3,5,56,103,1459287512
25,14,16,Jits_ISO_5,0,1,48,33,1459693348
25,14,16,Jits_ISO_5,1,5,80,127,1459757292
25,14,16,Jits_ISO_5,2,5,56,103,1459777072
25,14,16,Jits_ISO_5,3,5,63,98,1459780136
25,14,16,Jits_ISO_5,0,5,63,98,1460226532
25,14,16,Jits_ISO_5,1,5,80,127,1460229748
25,14,16,Jits_ISO_5,2,1,48,35,1460279396
25,14,16,Jits_ISO_5,3,5,56,103,1460286836
25,14,16,Jits_ISO_5,0,5,56,103,1460706556
25,14,16,Jits_ISO_5,1,5,80,127,1460717120
25,14,16,Jits_ISO_5,2,1,48,19,1460753048
25,14,16,Jits_ISO_5,3,5,63,98,1460757048
25,14,16,Jits_ISO_5,0,5,56,103,1461187044
25,14,16,Jits_ISO_5,1,1,48,22,1461242004
25,14,16,Jits_ISO_5,2,5,63,98,1461247276
25,14,16,Jits_ISO_5,3,5,80,127,1461256500
25,14,16,Jits_ISO_5,0,5,63,98,1461697128
25,14,16,Jits_ISO_5,1,1,48,26,1461704436
25,14,16,Jits_ISO_5,2,5,80,127,1461737060
25,14,16,Jits_ISO_5,3,5,56,103,1461776996
25,14,16,Jits_ISO_5,0,1,48,20,1462196188
25,14,16,Jits_ISO_5,1,5,56,103,1462198124
25,14,16,Jits_ISO_5,2,5,63,98,1462276424
25,14,16,Jits_ISO_5,3,5,80,127,1462279864
25,14,16,Jits_ISO_5,0,9999,9999,9999,1402984540
25,14,16,Jits_ISO_5,1,9999,9999,9999,1403484264
25,14,16,Jits_ISO_5,2,9999,9999,9999,1403984976
25,14,16,Jits_ISO_5,3,9999,9999,9999,1404484712
25,14,16,Jits_ISO_5,4,9999,9999,9999,1404984440
25,14,16,Jits_ISO_5,5,9999,9999,9999,1405484108
25,14,16,Jits_ISO_5,6,9999,9999,9999,1405984880
25,14,16,Jits_ISO_5,7,9999,9999,9999,1406484544
25,14,16,Jits_ISO_5,8,9999,9999,9999,1406984260
25,14,16,Jits_ISO_5,9,9999,9999,9999,1407484980
25,14,16,Jits_ISO_5,10,9999,9999,9999,1407984724
25,14,16,Jits_ISO_5,11,9999,9999,9999,1408484476
25,14,16,Jits_ISO_5,12,9999,9999,9999,1408984128
25,14,16,Jits_ISO_5,13,9999,9999,9999,1409484904
25,14,16,Jits_ISO_5,14,9999,9999,9999,1409984636
25,14,16,Jits_ISO_5,15,9999,9999,9999,1410484308
25,14,16,Jits_ISO_5,16,9999,9999,9999,1410985060
25,14,16,Jits_ISO_5,17,9999,9999,9999,1411484792
25,14,16,Jits_ISO_5,18,9999,9999,9999,1411984464
25,14,16,Jits_ISO_5,19,9999,9999,9999,1412484208
25,14,16,Jits_ISO_5,20,9999,9999,9999,1412984916
25,14,16,Jits_ISO_5,21,9999,9999,9999,1413484664
25,14,16,Jits_ISO_5,22,9999,9999,9999,1413984336
25,14,16,Jits_ISO_5,23,9999,9999,9999,1414485052
25,14,16,Jits_ISO_5,24,9999,9999,9999,1414984800
25,14,16,Jits_ISO_5,25,9999,9999,9999,1415484468
25,14,16,Jits_ISO_5,26,9999,9999,9999,1415984204
25,14,16,Jits_ISO_5,27,9999,9999,9999,1416484968
25,14,16,Jits_ISO_5,28,9999,9999,9999,1416984644
25,14,16,Jits_ISO_5,29,9999,9999,9999,1417484376
25,14,16,Jits_ISO_5,30,9999,9999,9999,1417984124
25,14,16,Jits_ISO_5,31,9999,9999,9999,1418484828
25,14,16,Jits_ISO_5,32,9999,9999,9999,1418984556
25,14,16,Jits_ISO_5,33,9999,9999,9999,1419484228
25,14,16,Jits_ISO_5,34,9999,9999,9999,1419984948
25,14,16,Jits_ISO_5,35,9999,9999,9999,1420484700
25,14,16,Jits_ISO_5,36,9999,9999,9999,1420984420
25,14,16,Jits_ISO_5,37,9999,9999,9999,1421484132
25,14,16,Jits_ISO_5,38,9999,9999,9999,1421984832
25,14,16,Jits_ISO_5,39,9999,9999,9999,1422484564
25,14,16,Jits_ISO_5,40,9999,9999,9999,1422984300
25,14,16,Jits_ISO_5,41,9999,9999,9999,1423485020
25,14,16,Jits_ISO_5,42,9999,9999,9999,1423984692
25,14,16,Jits_ISO_5,43,9999,9999,9999,1424484424
25,14,16,Jits_ISO_5,44,9999,9999,9999,1424984156
25,14,16,Jits_ISO_5,45,9999,9999,9999,1425484872
25,14,16,Jits_ISO_5,46,9999,9999,9999,1425984604
25,14,16,Jits_ISO_5,47,9999,9999,9999,1426484344
25,14,16,Jits_ISO_5,48,9999,9999,9999,1426985048
25,14,16,Jits_ISO_5,49,9999,9999,9999,1427484728
25,14,16,Jits_ISO_5,50,9999,9999,9999,1427984452
25,14,16,Jits_ISO_5,51,9999,9999,9999,1428484200
25,14,16,Jits_ISO_5,52,9999,9999,9999,1428984912
25,14,16,Jits_ISO_5,53,9999,9999,9999,1429484644
25,14,16,Jits_ISO_5,54,9999,9999,9999,1429984376
25,14,16,Jits_ISO_5,55,9999,9999,9999,1430485084
25,14,16,Jits_ISO_5,56,9999,9999,9999,1430984816
25,14,16,Jits_ISO_5,57,9999,9999,9999,1431484484
25,14,16,Jits_ISO_5,58,9999,9999,9999,1431984196
25,14,16,Jits_ISO_5,59,9999,9999,9999,1432484956
25,14,16,Jits_ISO_5,60,9999,9999,9999,1432984692
25,14,16,Jits_ISO_5,61,9999,9999,9999,1433484348
25,14,16,Jits_ISO_5,62,9999,9999,9999,1433984084
25,14,16,Jits_ISO_5,63,9999,9999,9999,1434484860
25,14,16,Jits_ISO_5,64,9999,9999,9999,1434984516
25,14,16,Jits_ISO_5,65,9999,9999,9999,1435484244
25,14,16,Jits_ISO_5,66,9999,9999,9999,1435984952
25,14,16,Jits_ISO_5,67,9999,9999,9999,1436484672
25,14,16,Jits_ISO_5,68,9999,9999,9999,1436984420
25,14,16,Jits_ISO_5,69,9999,9999,9999,1437484156
25,14,16,Jits_ISO_5,70,9999,9999,9999,1437984848
25,14,16,Jits_ISO_5,71,9999,9999,9999,1438484596
25,14,16,Jits_ISO_5,72,9999,9999,9999,1438984256
25,14,16,Jits_ISO_5,73,9999,9999,9999,1439485040
25,14,16,Jits_ISO_5,74,9999,9999,9999,1439984704
25,14,16,Jits_ISO_5,75,9999,9999,9999,1440484432
25,14,16,Jits_ISO_5,76,9999,9999,9999,1440984184
25,14,16,Jits_ISO_5,77,9999,9999,9999,1441484892
25,14,16,Jits_ISO_5,78,9999,9999,9999,1441984568
25,14,16,Jits_ISO_5,79,9999,9999,9999,1442484300
25,14,16,Jits_ISO_5,80,9999,9999,9999,1442985052
25,14,16,Jits_ISO_5,81,9999,9999,9999,1443484780
25,14,16,Jits_ISO_5,82,9999,9999,9999,1443984436
25,14,16,Jits_ISO_5,83,9999,9999,9999,1444484172
25,14,16,Jits_ISO_5,84,9999,9999,9999,1444984892
25,14,16,Jits_ISO_5,85,9999,9999,9999,1445484620
25,14,16,Jits_ISO_5,86,9999,9999,9999,1445984352
25,14,16,Jits_ISO_5,87,9999,9999,9999,1446485068
25,14,16,Jits_ISO_5,88,9999,9999,9999,1446984800
25,14,16,Jits_ISO_5,89,9999,9999,9999,1447484532
25,14,16,Jits_ISO_5,90,9999,9999,9999,1447984192
25,14,16,Jits_ISO_5,91,9999,9999,9999,1448484968
25,14,16,Jits_ISO_5,92,9999,9999,9999,1448984628
25,14,16,Jits_ISO_5,93,9999,9999,9999,1449484360
25,14,16,Jits_ISO_5,94,9999,9999,9999,1449984088
25,14,16,Jits_ISO_5,95,9999,9999,9999,1450484792
25,14,16,Jits_ISO_5,96,9999,9999,9999,1450984528
25,14,16,Jits_ISO_5,97,9999,9999,9999,1451484260
25,14,16,Jits_ISO_5,98,9999,9999,9999,1451984964
25,14,16,Jits_ISO_5,99,9999,9999,9999,1452484696
25,14,16,Jits_ISO_5,100,9999,9999,9999,1452984428
25,14,16,Jits_ISO_5,101,9999,9999,9999,1453484136
25,14,16,Jits_ISO_5,102,9999,9999,9999,1453984828
25,14,16,Jits_ISO_5,103,9999,9999,9999,1454484564
25,14,16,Jits_ISO_5,104,9999,9999,9999,1454984296
25,14,16,Jits_ISO_5,105,9999,9999,9999,1455485000
25,14,16,Jits_ISO_5,106,9999,9999,9999,1455984732
25,14,16,Jits_ISO_5,107,9999,9999,9999,1456484464
25,14,16,Jits_ISO_5,108,9999,9999,9999,1456984116
25,14,16,Jits_ISO_5,109,9999,9999,9999,1457484896
25,14,16,Jits_ISO_5,110,9999,9999,9999,1457984568
25,14,16,Jits_ISO_5,111,9999,9999,9999,1458484300
25,14,16,Jits_ISO_5,112,9999,9999,9999,1458985076
25,14,16,Jits_ISO_5,113,9999,9999,9999,1459484740
25,14,16,Jits_ISO_5,114,9999,9999,9999,1459984472
25,14,16,Jits_ISO_5,115,9999,9999,9999,1460484196
25,14,16,Jits_ISO_5,116,9999,9999,9999,1460984900
25,14,16,Jits_ISO_5,117,9999,9999,9999,1461484644
25,14,16,Jits_ISO_5,118,9999,9999,9999,1461984320
25,14,16,Jits_ISO_5,119,9999,9999,9999,1462485092
25,15,15,Jits_Phase_8,0,5,56,103,1476132320
25,15,15,Jits_Phase_8,1,5,63,98,1476135340
25,15,15,Jits_Phase_8,2,5,80,127,1476138540
25,15,15,Jits_Phase_8,0,5,56,103,1476931888
25,15,15,Jits_Phase_8,1,5,63,98,1476935212
25,15,15,Jits_Phase_8,2,5,80,127,1476938256
25,15,15,Jits_Phase_8,0,5,80,127,1477672352
25,15,15,Jits_Phase_8,1,5,63,98,1477762340
25,15,15,Jits_Phase_8,2,5,56,103,1477771564
25,15,15,Jits_Phase_8,0,5,56,103,1478491424
25,15,15,Jits_Phase_8,1,5,63,98,1478501692
25,15,15,Jits_Phase_8,2,5,80,127,1478591848
25,15,15,Jits_Phase_8,0,5,63,98,1479261488
25,15,15,Jits_Phase_8,1,5,80,127,1479292284
25,15,15,Jits_Phase_8,2,5,56,103,1479322108
25,15,15,Jits_Phase_8,3,1,48,46,1479342164
25,15,15,Jits_Phase_8,0,5,56,103,1480062284
25,15,15,Jits_Phase_8,1,1,48,43,1480063472
25,15,15,Jits_Phase_8,2,5,80,127,1480161564
25,15,15,Jits_Phase_8,3,5,63,98,1480211692
25,15,15,Jits_Phase_8,0,5,56,103,1480862060
25,15,15,Jits_Phase_8,1,1,48,38,1480875516
25,15,15,Jits_Phase_8,2,5,80,127,1480912356
25,15,15,Jits_Phase_8,3,5,63,98,1480952292
25,15,15,Jits_Phase_8,0,1,48,30,1481650812
25,15,15,Jits_Phase_8,1,5,80,127,1481691444
25,15,15,Jits_Phase_8,2,5,63,98,1481722392
25,15,15,Jits_Phase_8,3,5,56,103,1481791836
25,15,15,Jits_Phase_8,0,1,48,30,1482468912
25,15,15,Jits_Phase_8,1,5,63,98,1482522068
25,15,15,Jits_Phase_8,2,5,56,103,1482551596
25,15,15,Jits_Phase_8,3,5,80,127,1482612268
25,15,15,Jits_Phase_8,0,5,56,103,1483262424
25,15,15,Jits_Phase_8,1,5,80,127,1483265340
25,15,15,Jits_Phase_8,2,1,48,36,1483277296
25,15,15,Jits_Phase_8,3,5,63,98,1483382200
25,15,15,Jits_Phase_8,0,1,48,35,1484109268
25,15,15,Jits_Phase_8,1,5,56,103,1484141896
25,15,15,Jits_Phase_8,2,5,80,127,1484182136
25,15,15,Jits_Phase_8,3,5,63,98,1484192108
25,15,15,Jits_Phase_8,0,1,48,36,1484888208
25,15,15,Jits_Phase_8,1,5,56,103,1484901800
25,15,15,Jits_Phase_8,2,5,80,127,1484922332
25,15,15,Jits_Phase_8,3,5,63,98,1485002136
25,15,15,Jits_Phase_8,0,5,80,127,1485692272
25,15,15,Jits_Phase_8,1,1,48,33,1485761580
25,15,15,Jits_Phase_8,2,5,56,103,1485791492
25,15,15,Jits_Phase_8,3,5,63,98,1485802136
25,15,15,Jits_Phase_8,0,5,63,98,1486462456
25,15,15,Jits_Phase_8,1,5,80,127,1486521900
25,15,15,Jits_Phase_8,2,5,56,103,1486532096
25,15,15,Jits_Phase_8,3,1,48,39,1486579700
25,15,15,Jits_Phase_8,0,5,56,103,1487262208
25,15,15,Jits_Phase_8,1,1,48,32,1487314796
25,15,15,Jits_Phase_8,2,5,63,98,1487331908
25,15,15,Jits_Phase_8,3,5,80,127,1487335272
25,15,15,Jits_Phase_8,0,1,48,39,1488071856
25,15,15,Jits_Phase_8,1,5,63,98,1488091432
25,15,15,Jits_Phase_8,2,5,56,103,1488141780
25,15,15,Jits_Phase_8,3,5,80,127,1488144924
25,15,15,Jits_Phase_8,0,5,56,103,1488852300
25,15,15,Jits_Phase_8,1,5,80,127,1488855220
25,15,15,Jits_Phase_8,2,1,48,36,1488861868
25,15,15,Jits_Phase_8,3,5,63,98,1488941452
25,15,15,Jits_Phase_8,0,1,48,35,1489659804
25,15,15,Jits_Phase_8,1,5,63,98,1489691912
25,15,15,Jits_Phase_8,2,5,56,103,1489782032
25,15,15,Jits_Phase_8,3,5,80,127,1489811708
25,15,15,Jits_Phase_8,0,5,56,103,1490481788
25,15,15,Jits_Phase_8,1,1,48,28,1490537500
25,15,15,Jits_Phase_8,2,5,63,98,1490581812
25,15,15,Jits_Phase_8,3,5,80,127,1490611656
25,15,15,Jits_Phase_8,0,5,63,98,1491301724
25,15,15,Jits_Phase_8,1,5,56,103,1491312068
25,15,15,Jits_Phase_8,2,1,48,32,1491373024
25,15,15,Jits_Phase_8,3,5,80,127,1491402140
25,15,15,Jits_Phase_8,0,5,63,98,1492122008
25,15,15,Jits_Phase_8,1,1,48,33,1492151680
25,15,15,Jits_Phase_8,2,5,56,103,1492201896
25,15,15,Jits_Phase_8,3,5,80,127,1492205112
25,15,15,Jits_Phase_8,0,5,80,127,1492881680
25,15,15,Jits_Phase_8,1,5,63,98,1492902288
25,15,15,Jits_Phase_8,2,5,56,103,1492961580
25,15,15,Jits_Phase_8,3,1,48,33,1492984252
25,15,15,Jits_Phase_8,0,5,56,103,1493721556
25,15,15,Jits_Phase_8,1,1,48,36,1493723120
25,15,15,Jits_Phase_8,2,5,63,98,1493741936
25,15,15,Jits_Phase_8,3,5,80,127,1493745296
25,15,15,Jits_Phase_8,0,5,63,98,1494461760
25,15,15,Jits_Phase_8,1,1,48,35,1494526984
25,15,15,Jits_Phase_8,2,5,80,127,1494541848
25,15,15,Jits_Phase_8,3,5,56,103,1494552116
25,15,15,Jits_Phase_8,0,5,63,98,1495281968
25,15,15,Jits_Phase_8,1,5,56,103,1495301604
25,15,15,Jits_Phase_8,2,1,48,32,1495309972
25,15,15,Jits_Phase_8,3,5,80,127,1495351648
25,15,15,Jits_Phase_8,0,5,80,127,1496081648
25,15,15,Jits_Phase_8,1,1,48,35,1496082612
25,15,15,Jits_Phase_8,2,5,63,98,1496121804
25,15,15,Jits_Phase_8,3,5,56,103,1496142336
25,15,15,Jits_Phase_8,0,1,48,38,1496890756
25,15,15,Jits_Phase_8,1,5,56,103,1496921492
25,15,15,Jits_Phase_8,2,5,63,98,1496931840
25,15,15,Jits_Phase_8,3,5,80,127,1496952072
25,15,15,Jits_Phase_8,0,5,56,103,1497651580
25,15,15,Jits_Phase_8,1,1,48,37,1497687136
25,15,15,Jits_Phase_8,2,5,63,98,1497741708
25,15,15,Jits_Phase_8,3,5,80,127,1497802108
25,15,15,Jits_Phase_8,0,5,80,127,1498481920
25,15,15,Jits_Phase_8,1,5,56,103,1498492560
25,15,15,Jits_Phase_8,2,1,48,30,1498501460
25,15,15,Jits_Phase_8,3,5,63,98,1498561812
25,15,15,Jits_Phase_8,0,1,48,36,1499295360
25,15,15,Jits_Phase_8,1,5,63,98,1499311524
25,15,15,Jits_Phase_8,2,5,80,127,1499401720
25,15,15,Jits_Phase_8,3,5,56,103,1499411768
25,15,15,Jits_Phase_8,0,5,63,98,1500041520
25,15,15,Jits_Phase_8,1,5,80,127,1500091896
25,15,15,Jits_Phase_8,2,5,56,103,1500152284
25,15,15,Jits_Phase_8,3,1,48,35,1500168584
25,15,15,Jits_Phase_8,0,5,56,103,1500861904
25,15,15,Jits_Phase_8,1,5,80,127,1500911956
25,15,15,Jits_Phase_8,2,5,63,98,1500931516
25,15,15,Jits_Phase_8,3,1,48,36,1500933380
25,15,15,Jits_Phase_8,0,5,56,103,1501632004
25,15,15,Jits_Phase_8,1,1,48,35,1501643068
25,15,15,Jits_Phase_8,2,5,80,127,1501692464
25,15,15,Jits_Phase_8,3,5,63,98,1501761756
25,15,15,Jits_Phase_8,0,5,56,103,1502431548
25,15,15,Jits_Phase_8,1,1,48,36,1502437356
25,15,15,Jits_Phase_8,2,5,80,127,1502462264
25,15,15,Jits_Phase_8,3,5,63,98,1502492164
25,15,15,Jits_Phase_8,0,1,48,35,1503241552
25,15,15,Jits_Phase_8,1,5,56,103,1503272364
25,15,15,Jits_Phase_8,2,5,80,127,1503291628
25,15,15,Jits_Phase_8,3,5,63,98,1503352224
25,15,15,Jits_Phase_8,0,1,48,36,1504056056
25,15,15,Jits_Phase_8,1,5,80,127,1504152124
25,15,15,Jits_Phase_8,2,5,56,103,1504162320
25,15,15,Jits_Phase_8,3,5,63,98,1504172368
25,15,15,Jits_Phase_8,0,5,56,103,1504911580
25,15,15,Jits_Phase_8,1,1,48,36,1504942744
25,15,15,Jits_Phase_8,2,5,80,127,1504951612
25,15,15,Jits_Phase_8,3,5,63,98,1504982336
25,15,15,Jits_Phase_8,0,5,56,103,1505681912
25,15,15,Jits_Phase_8,1,5,63,98,1505711392
25,15,15,Jits_Phase_8,2,5,80,127,1505752524
25,15,15,Jits_Phase_8,3,1,48,36,1505763368
25,15,15,Jits_Phase_8,0,5,80,127,1506432464
25,15,15,Jits_Phase_8,1,5,63,98,1506481496
25,15,15,Jits_Phase_8,2,1,48,31,1506486856
25,15,15,Jits_Phase_8,3,5,56,103,1506501944
25,15,15,Jits_Phase_8,0,1,48,39,1507256116
25,15,15,Jits_Phase_8,1,5,56,103,1507261992
25,15,15,Jits_Phase_8,2,5,80,127,1507331376
25,15,15,Jits_Phase_8,3,5,63,98,1507391972
25,15,15,Jits_Phase_8,0,5,80,127,1508061464
25,15,15,Jits_Phase_8,1,5,63,98,1508151820
25,15,15,Jits_Phase_8,2,5,56,103,1508172056
25,15,15,Jits_Phase_8,3,1,48,34,1508193008
25,15,15,Jits_Phase_8,0,5,63,98,1508881988
25,15,15,Jits_Phase_8,1,5,56,103,1508902300
25,15,15,Jits_Phase_8,2,5,80,127,1508942164
25,15,15,Jits_Phase_8,3,1,48,31,1508961020
25,15,15,Jits_Phase_8,0,5,80,127,1509641592
25,15,15,Jits_Phase_8,1,5,63,98,1509662124
25,15,15,Jits_Phase_8,2,1,48,33,1509695960
25,15,15,Jits_Phase_8,3,5,56,103,1509741984
25,15,15,Jits_Phase_8,0,5,63,98,1510432216
25,15,15,Jits_Phase_8,1,1,48,34,1510525240
25,15,15,Jits_Phase_8,2,5,56,103,1510541820
25,15,15,Jits_Phase_8,3,5,80,127,1510545036
25,15,15,Jits_Phase_8,0,5,63,98,1511252268
25,15,15,Jits_Phase_8,1,5,56,103,1511261712
25,15,15,Jits_Phase_8,2,5,80,127,1511264708
25,15,15,Jits_Phase_8,3,1,48,38,1511292184
25,15,15,Jits_Phase_8,0,5,56,103,1512031852
25,15,15,Jits_Phase_8,1,1,48,39,1512046060
25,15,15,Jits_Phase_8,2,5,80,127,1512152408
25,15,15,Jits_Phase_8,3,5,63,98,1512192496
25,15,15,Jits_Phase_8,0,5,56,103,1512851784
25,15,15,Jits_Phase_8,1,1,48,37,1512908864
25,15,15,Jits_Phase_8,2,5,80,127,1512931824
25,15,15,Jits_Phase_8,3,5,63,98,1512952060
25,15,15,Jits_Phase_8,0,5,56,103,1513651880
25,15,15,Jits_Phase_8,1,5,63,98,1513762096
25,15,15,Jits_Phase_8,2,5,80,127,1513765308
25,15,15,Jits_Phase_8,3,1,48,33,1513779456
25,15,15,Jits_Phase_8,0,5,56,103,1514492256
25,15,15,Jits_Phase_8,1,5,80,127,1514522080
25,15,15,Jits_Phase_8,2,5,63,98,1514541716
25,15,15,Jits_Phase_8,3,1,48,30,1514556892
25,15,15,Jits_Phase_8,0,5,63,98,1515281768
25,15,15,Jits_Phase_8,1,5,56,103,1515291964
25,15,15,Jits_Phase_8,2,5,80,127,1515302160
25,15,15,Jits_Phase_8,3,1,48,35,1515333592
25,15,15,Jits_Phase_8,0,5,80,127,1516072224
25,15,15,Jits_Phase_8,1,1,48,40,1516084932
25,15,15,Jits_Phase_8,2,5,56,103,1516121748
25,15,15,Jits_Phase_8,3,5,63,98,1516162360
25,15,15,Jits_Phase_8,0,5,80,127,1516891700
25,15,15,Jits_Phase_8,1,1,48,34,1516900144
25,15,15,Jits_Phase_8,2,5,63,98,1516911932
25,15,15,Jits_Phase_8,3,5,56,103,1516962208
25,15,15,Jits_Phase_8,0,5,80,127,1517701736
25,15,15,Jits_Phase_8,1,5,56,103,1517732384
25,15,15,Jits_Phase_8,2,1,48,35,1517749700
25,15,15,Jits_Phase_8,3,5,63,98,1517801788
25,15,15,Jits_Phase_8,0,5,56,103,1518552560
25,15,15,Jits_Phase_8,1,5,80,127,1518561708
25,15,15,Jits_Phase_8,2,1,48,36,1518588492
25,15,15,Jits_Phase_8,3,5,63,98,1518601640
25,15,15,Jits_Phase_8,0,5,56,103,1519262108
25,15,15,Jits_Phase_8,1,5,63,98,1519281768
25,15,15,Jits_Phase_8,2,5,80,127,1519352272
25,15,15,Jits_Phase_8,3,1,48,41,1519372404
25,15,15,Jits_Phase_8,0,1,48,33,1520062316
25,15,15,Jits_Phase_8,1,5,63,98,1520082496
25,15,15,Jits_Phase_8,2,5,80,127,1520141616
25,15,15,Jits_Phase_8,3,5,56,103,1520162064
25,15,15,Jits_Phase_8,0,1,48,35,1520868364
25,15,15,Jits_Phase_8,1,5,80,127,1520871916
25,15,15,Jits_Phase_8,2,5,56,103,1520901744
25,15,15,Jits_Phase_8,3,5,63,98,1520932316
25,15,15,Jits_Phase_8,0,5,56,103,1521671528
25,15,15,Jits_Phase_8,1,1,48,35,1521711512
25,15,15,Jits_Phase_8,2,5,63,98,1521731988
25,15,15,Jits_Phase_8,3,5,80,127,1521792304
25,15,15,Jits_Phase_8,0,5,80,127,1522491828
25,15,15,Jits_Phase_8,1,1,48,39,1522499828
25,15,15,Jits_Phase_8,2,5,56,103,1522512652
25,15,15,Jits_Phase_8,3,5,63,98,1522581960
25,15,15,Jits_Phase_8,0,5,80,127,1523291452
25,15,15,Jits_Phase_8,1,5,63,98,1523311912
25,15,15,Jits_Phase_8,2,5,56,103,1523341808
25,15,15,Jits_Phase_8,3,1,48,44,1523368816
25,15,15,Jits_Phase_8,0,5,80,127,1524081932
25,15,15,Jits_Phase_8,1,5,63,98,1524101496
25,15,15,Jits_Phase_8,2,1,48,36,1524125740
25,15,15,Jits_Phase_8,3,5,56,103,1524161904
25,15,15,Jits_Phase_8,0,5,80,127,1524881852
25,15,15,Jits_Phase_8,1,1,48,29,1524952208
25,15,15,Jits_Phase_8,2,5,56,103,1524982196
25,15,15,Jits_Phase_8,3,5,63,98,1525011944
25,15,15,Jits_Phase_8,0,5,63,98,1525672488
25,15,15,Jits_Phase_8,1,5,80,127,1525721372
25,15,15,Jits_Phase_8,2,5,56,103,1525742276
25,15,15,Jits_Phase_8,3,1,48,39,1525749660
25,15,15,Jits_Phase_8,0,5,80,127,1526512132
25,15,15,Jits_Phase_8,1,1,48,31,1526524240
25,15,15,Jits_Phase_8,2,5,56,103,1526541648
25,15,15,Jits_Phase_8,3,5,63,98,1526544640
25,15,15,Jits_Phase_8,0,1,48,37,1527306616
25,15,15,Jits_Phase_8,1,5,63,98,1527362012
25,15,15,Jits_Phase_8,2,5,56,103,1527401936
25,15,15,Jits_Phase_8,3,5,80,127,1527422172
25,15,15,Jits_Phase_8,0,5,80,127,1528121848
25,15,15,Jits_Phase_8,1,1,48,35,1528148560
25,15,15,Jits_Phase_8,2,5,63,98,1528201712
25,15,15,Jits_Phase_8,3,5,56,103,1528242784
25,15,15,Jits_Phase_8,0,5,63,98,1528942076
25,15,15,Jits_Phase_8,1,1,48,37,1528985428
25,15,15,Jits_Phase_8,2,5,80,127,1529021672
25,15,15,Jits_Phase_8,3,5,56,103,1529042428
25,15,15,Jits_Phase_8,0,5,56,103,1529781652
25,15,15,Jits_Phase_8,1,5,63,98,1529792148
25,15,15,Jits_Phase_8,2,1,48,30,1529816096
25,15,15,Jits_Phase_8,3,5,80,127,1529832004
25,15,15,Jits_Phase_8,0,5,56,103,1530501380
25,15,15,Jits_Phase_8,1,5,80,127,1530504452
25,15,15,Jits_Phase_8,2,1,48,24,1530578464
25,15,15,Jits_Phase_8,3,5,63,98,1530641728
25,15,15,Jits_Phase_8,0,5,56,103,1531292004
25,15,15,Jits_Phase_8,1,5,63,98,1531382092
25,15,15,Jits_Phase_8,2,1,48,30,1531399976
25,15,15,Jits_Phase_8,3,5,80,127,1531451688
25,15,15,Jits_Phase_8,0,5,63,98,1532171672
25,15,15,Jits_Phase_8,1,5,80,127,1532175036
25,15,15,Jits_Phase_8,2,5,56,103,1532231984
25,15,15,Jits_Phase_8,3,1,48,32,1532242448
25,15,15,Jits_Phase_8,0,1,48,27,1532977000
25,15,15,Jits_Phase_8,1,5,80,127,1533012248
25,15,15,Jits_Phase_8,2,5,56,103,1533032032
25,15,15,Jits_Phase_8,3,5,63,98,1533042156
25,15,15,Jits_Phase_8,0,5,56,103,1533721892
25,15,15,Jits_Phase_8,1,5,63,98,1533732236
25,15,15,Jits_Phase_8,2,1,48,34,1533750496
25,15,15,Jits_Phase_8,3,5,80,127,1533801836
25,15,15,Jits_Phase_8,0,1,48,32,1534492108
25,15,15,Jits_Phase_8,1,5,80,127,1534521952
25,15,15,Jits_Phase_8,2,5,56,103,1534572004
25,15,15,Jits_Phase_8,3,5,63,98,1534622040
25,15,15,Jits_Phase_8,0,1,48,28,1535313592
25,15,15,Jits_Phase_8,1,5,56,103,1535402328
25,15,15,Jits_Phase_8,2,5,63,98,1535411684
25,15,15,Jits_Phase_8,3,5,80,127,1535451548
25,15,15,Jits_Phase_8,0,5,56,103,1536141988
25,15,15,Jits_Phase_8,1,5,63,98,1536181808
25,15,15,Jits_Phase_8,2,1,48,33,1536200892
25,15,15,Jits_Phase_8,3,5,80,127,1536231852
25,15,15,Jits_Phase_8,0,5,80,127,1536901460
25,15,15,Jits_Phase_8,1,5,56,103,1536951760
25,15,15,Jits_Phase_8,2,5,63,98,1536971996
25,15,15,Jits_Phase_8,3,1,48,36,1537064932
25,15,15,Jits_Phase_8,0,5,80,127,1537711440
25,15,15,Jits_Phase_8,1,5,63,98,1537771980
25,15,15,Jits_Phase_8,2,1,48,29,1537839148
25,15,15,Jits_Phase_8,3,5,56,103,1537851692
25,15,15,Jits_Phase_8,0,5,80,127,1538491732
25,15,15,Jits_Phase_8,1,5,56,103,1538531672
25,15,15,Jits_Phase_8,2,5,63,98,1538552280
25,15,15,Jits_Phase_8,3,1,48,28,1538595104
25,15,15,Jits_Phase_8,0,5,56,103,1539341772
25,15,15,Jits_Phase_8,1,5,80,127,1539352040
25,15,15,Jits_Phase_8,2,1,48,30,1539385580
25,15,15,Jits_Phase_8,3,5,63,98,1539391972
25,15,15,Jits_Phase_8,0,1,48,27,1540162940
25,15,15,Jits_Phase_8,1,5,56,103,1540212040
25,15,15,Jits_Phase_8,2,5,63,98,1540251896
25,15,15,Jits_Phase_8,3,5,80,127,1540255192
25,15,15,Jits_Phase_8,0,5,63,98,1540881736
25,15,15,Jits_Phase_8,1,5,80,127,1540921676
25,15,15,Jits_Phase_8,2,5,56,103,1540992328
25,15,15,Jits_Phase_8,3,1,48,24,1541022268
25,15,15,Jits_Phase_8,0,5,63,98,1541651824
25,15,15,Jits_Phase_8,1,5,56,103,1541731620
25,15,15,Jits_Phase_8,2,1,48,30,1541766948
25,15,15,Jits_Phase_8,3,5,80,127,1541792080
25,15,15,Jits_Phase_8,0,5,80,127,1542461920
25,15,15,Jits_Phase_8,1,5,63,98,1542511972
25,15,15,Jits_Phase_8,2,5,56,103,1542541648
25,15,15,Jits_Phase_8,3,1,48,27,1542559364
25,15,15,Jits_Phase_8,0,5,56,103,1543252320
25,15,15,Jits_Phase_8,1,5,63,98,1543301624
25,15,15,Jits_Phase_8,2,5,80,127,1543311748
25,15,15,Jits_Phase_8,3,1,48,27,1543325956
25,15,15,Jits_Phase_8,0,5,56,103,1544062576
25,15,15,Jits_Phase_8,1,1,48,29,1544067120
25,15,15,Jits_Phase_8,2,5,63,98,1544171896
25,15,15,Jits_Phase_8,3,5,80,127,1544192504
25,15,15,Jits_Phase_8,0,5,63,98,1544861980
25,15,15,Jits_Phase_8,1,1,48,28,1544894644
25,15,15,Jits_Phase_8,2,5,80,127,1544912348
25,15,15,Jits_Phase_8,3,5,56,103,1545002760
25,15,15,Jits_Phase_8,0,5,63,98,1545651496
25,15,15,Jits_Phase_8,1,1,48,29,1545656932
25,15,15,Jits_Phase_8,2,5,80,127,1545682512
25,15,15,Jits_Phase_8,3,5,56,103,1545772480
25,15,15,Jits_Phase_8,0,5,63,98,1546452372
25,15,15,Jits_Phase_8,1,1,48,33,1546456912
25,15,15,Jits_Phase_8,2,5,56,103,1546461740
25,15,15,Jits_Phase_8,3,5,80,127,1546561968
25,15,15,Jits_Phase_8,0,1,48,35,1547246168
25,15,15,Jits_Phase_8,1,5,63,98,1547352428
25,15,15,Jits_Phase_8,2,5,80,127,1547382252
25,15,15,Jits_Phase_8,3,5,56,103,1547411776
25,15,15,Jits_Phase_8,0,1,48,31,1548102208
25,15,15,Jits_Phase_8,1,5,80,127,1548171616
25,15,15,Jits_Phase_8,2,5,63,98,1548181812
25,15,15,Jits_Phase_8,3,5,56,103,1548211496
25,15,15,Jits_Phase_8,0,5,80,127,1548872336
25,15,15,Jits_Phase_8,1,5,63,98,1548891452
25,15,15,Jits_Phase_8,2,5,56,103,1548941576
25,15,15,Jits_Phase_8,3,1,48,36,1549003304
25,15,15,Jits_Phase_8,0,5,63,98,1549701552
25,15,15,Jits_Phase_8,1,5,80,127,1549761968
25,15,15,Jits_Phase_8,2,5,56,103,1549782352
25,15,15,Jits_Phase_8,3,1,48,30,1549806672
25,15,15,Jits_Phase_8,0,5,63,98,1550462500
25,15,15,Jits_Phase_8,1,5,56,103,1550511456
25,15,15,Jits_Phase_8,2,5,80,127,1550521580
25,15,15,Jits_Phase_8,3,1,48,24,1550568064
25,15,15,Jits_Phase_8,0,5,56,103,1551291948
25,15,15,Jits_Phase_8,1,5,80,127,1551302516
25,15,15,Jits_Phase_8,2,1,48,27,1551330520
25,15,15,Jits_Phase_8,3,5,63,98,1551402308
25,15,15,Jits_Phase_8,0,5,80,127,1552051564
25,15,15,Jits_Phase_8,1,5,63,98,1552061688
25,15,15,Jits_Phase_8,2,1,48,20,1552138136
25,15,15,Jits_Phase_8,3,5,56,103,1552212340
25,15,15,Jits_Phase_8,0,5,63,98,1552861448
25,15,15,Jits_Phase_8,1,5,80,127,1552901536
25,15,15,Jits_Phase_8,2,1,48,26,1552915216
25,15,15,Jits_Phase_8,3,5,56,103,1552982444
25,15,15,Jits_Phase_8,0,5,56,103,1553612128
25,15,15,Jits_Phase_8,1,1,48,25,1553707320
25,15,15,Jits_Phase_8,2,5,80,127,1553711400
25,15,15,Jits_Phase_8,3,5,63,98,1553732008
25,15,15,Jits_Phase_8,0,5,80,127,1554432364
25,15,15,Jits_Phase_8,1,5,56,103,1554441440
25,15,15,Jits_Phase_8,2,1,48,35,1554516100
25,15,15,Jits_Phase_8,3,5,63,98,1554531636
25,15,15,Jits_Phase_8,0,5,56,103,1555231984
25,15,15,Jits_Phase_8,1,5,63,98,1555251544
25,15,15,Jits_Phase_8,2,1,48,34,1555309956
25,15,15,Jits_Phase_8,3,5,80,127,1555331404
25,15,15,Jits_Phase_8,0,5,63,98,1555981784
25,15,15,Jits_Phase_8,1,1,48,25,1556033452
25,15,15,Jits_Phase_8,2,5,56,103,1556072060
25,15,15,Jits_Phase_8,3,5,80,127,1556075052
25,15,15,Jits_Phase_8,0,1,48,29,1556775132
25,15,15,Jits_Phase_8,1,5,56,103,1556812020
25,15,15,Jits_Phase_8,2,5,80,127,1556871592
25,15,15,Jits_Phase_8,3,5,63,98,1556881920
25,15,15,Jits_Phase_8,0,1,48,33,1557576164
25,15,15,Jits_Phase_8,1,5,80,127,1557662128
25,15,15,Jits_Phase_8,2,5,56,103,1557672248
25,15,15,Jits_Phase_8,3,5,63,98,1557675392
25,15,15,Jits_Phase_8,0,5,56,103,1558422004
25,15,15,Jits_Phase_8,1,5,80,127,1558431976
25,15,15,Jits_Phase_8,2,5,63,98,1558451712
25,15,15,Jits_Phase_8,3,1,48,29,1558462100
25,15,15,Jits_Phase_8,0,5,63,98,1559192104
25,15,15,Jits_Phase_8,1,5,80,127,1559252448
25,15,15,Jits_Phase_8,2,1,48,30,1559261492
25,15,15,Jits_Phase_8,3,5,56,103,1559301444
25,15,15,Jits_Phase_8,0,1,48,34,1560036880
25,15,15,Jits_Phase_8,1,5,63,98,1560071748
25,15,15,Jits_Phase_8,2,5,56,103,1560081724
25,15,15,Jits_Phase_8,3,5,80,127,1560132732
25,15,15,Jits_Phase_8,0,5,63,98,1560772100
25,15,15,Jits_Phase_8,1,5,80,127,1560792336
25,15,15,Jits_Phase_8,2,5,56,103,1560801856
25,15,15,Jits_Phase_8,3,1,48,38,1560843632
25,15,15,Jits_Phase_8,0,5,63,98,1561571840
25,15,15,Jits_Phase_8,1,5,80,127,1561575128
25,15,15,Jits_Phase_8,2,5,56,103,1561611852
25,15,15,Jits_Phase_8,3,1,48,37,1561654824
25,15,15,Jits_Phase_8,0,1,48,37,1562377388
25,15,15,Jits_Phase_8,1,5,63,98,1562442076
25,15,15,Jits_Phase_8,2,5,80,127,1562471680
25,15,15,Jits_Phase_8,3,5,56,103,1562482232
25,15,15,Jits_Phase_8,0,5,56,103,1563191576
25,15,15,Jits_Phase_8,1,5,80,127,1563222372
25,15,15,Jits_Phase_8,2,5,63,98,1563252196
25,15,15,Jits_Phase_8,3,1,48,36,1563253160
25,15,15,Jits_Phase_8,0,1,48,36,1564057764
25,15,15,Jits_Phase_8,1,5,63,98,1564091908
25,15,15,Jits_Phase_8,2,5,56,103,1564131620
25,15,15,Jits_Phase_8,3,5,80,127,1564134764
25,15,15,Jits_Phase_8,0,5,80,127,1564792148
25,15,15,Jits_Phase_8,1,5,56,103,1564872044
25,15,15,Jits_Phase_8,2,1,48,35,1564902588
25,15,15,Jits_Phase_8,3,5,63,98,1564922240
25,15,15,Jits_Phase_8,0,5,80,127,1565571844
25,15,15,Jits_Phase_8,1,5,56,103,1565591856
25,15,15,Jits_Phase_8,2,5,63,98,1565682012
25,15,15,Jits_Phase_8,3,1,48,39,1565729472
25,15,15,Jits_Phase_8,0,5,80,127,1566412172
25,15,15,Jits_Phase_8,1,5,63,98,1566452112
25,15,15,Jits_Phase_8,2,5,56,103,1566491976
25,15,15,Jits_Phase_8,3,1,48,38,1566529392
25,15,15,Jits_Phase_8,0,5,63,98,1567221988
25,15,15,Jits_Phase_8,1,5,80,127,1567281632
25,15,15,Jits_Phase_8,2,1,48,33,1567305648
25,15,15,Jits_Phase_8,3,5,56,103,1567312196
25,15,15,Jits_Phase_8,0,5,56,103,1568061748
25,15,15,Jits_Phase_8,1,5,80,127,1568091648
25,15,15,Jits_Phase_8,2,1,48,35,1568095516
25,15,15,Jits_Phase_8,3,5,63,98,1568181572
25,15,15,Jits_Phase_8,0,5,56,103,1568871780
25,15,15,Jits_Phase_8,1,1,48,34,1568950600
25,15,15,Jits_Phase_8,2,5,80,127,1568982536
25,15,15,Jits_Phase_8,3,5,63,98,1569012136
25,15,15,Jits_Phase_8,0,5,56,103,1569721708
25,15,15,Jits_Phase_8,1,5,63,98,1569782248
25,15,15,Jits_Phase_8,2,5,80,127,1569811848
25,15,15,Jits_Phase_8,3,1,48,36,1569834520
25,15,15,Jits_Phase_8,0,5,56,103,1570491668
25,15,15,Jits_Phase_8,1,5,63,98,1570562396
25,15,15,Jits_Phase_8,2,1,48,29,1570578316
25,15,15,Jits_Phase_8,3,5,80,127,1570581948
25,15,15,Jits_Phase_8,0,5,80,127,1571261772
25,15,15,Jits_Phase_8,1,5,63,98,1571282528
25,15,15,Jits_Phase_8,2,5,56,103,1571331312
25,15,15,Jits_Phase_8,3,1,48,32,1571386264
25,15,15,Jits_Phase_8,0,5,63,98,1572081992
25,15,15,Jits_Phase_8,1,5,80,127,1572092412
25,15,15,Jits_Phase_8,2,1,48,40,1572131644
25,15,15,Jits_Phase_8,3,5,56,103,1572141412
25,15,15,Jits_Phase_8,0,5,63,98,1572881824
25,15,15,Jits_Phase_8,1,1,48,37,1572943232
25,15,15,Jits_Phase_8,2,5,80,127,1572952472
25,15,15,Jits_Phase_8,3,5,56,103,1572971960
25,15,15,Jits_Phase_8,0,5,63,98,1573712224
25,15,15,Jits_Phase_8,1,5,80,127,1573715364
25,15,15,Jits_Phase_8,2,1,48,36,1573738408
25,15,15,Jits_Phase_8,3,5,56,103,1573781820
25,15,15,Jits_Phase_8,0,5,80,127,1574461776
25,15,15,Jits_Phase_8,1,5,56,103,1574482456
25,15,15,Jits_Phase_8,2,5,63,98,1574491456
25,15,15,Jits_Phase_8,3,1,48,31,1574551588
25,15,15,Jits_Phase_8,0,5,56,103,1575282140
25,15,15,Jits_Phase_8,1,1,48,37,1575303468
25,15,15,Jits_Phase_8,2,5,63,98,1575372364
25,15,15,Jits_Phase_8,3,5,80,127,1575375728
25,15,15,Jits_Phase_8,0,5,80,127,1576052304
25,15,15,Jits_Phase_8,1,5,56,103,1576062356
25,15,15,Jits_Phase_8,2,5,63,98,1576081840
25,15,15,Jits_Phase_8,3,1,48,35,1576111808
25,15,15,Jits_Phase_8,0,5,63,98,1576851700
25,15,15,Jits_Phase_8,1,1,48,37,1576877388
25,15,15,Jits_Phase_8,2,5,80,127,1576912180
25,15,15,Jits_Phase_8,3,5,56,103,1576921404
25,15,15,Jits_Phase_8,0,1,48,35,1577657876
25,15,15,Jits_Phase_8,1,5,63,98,1577722196
25,15,15,Jits_Phase_8,2,5,80,127,1577752004
25,15,15,Jits_Phase_8,3,5,56,103,1577791944
25,15,15,Jits_Phase_8,0,1,48,36,1578479064
25,15,15,Jits_Phase_8,1,5,56,103,1578511692
25,15,15,Jits_Phase_8,2,5,80,127,1578522184
25,15,15,Jits_Phase_8,3,5,63,98,1578562124
25,15,15,Jits_Phase_8,0,5,80,127,1579271524
25,15,15,Jits_Phase_8,1,1,48,34,1579323040
25,15,15,Jits_Phase_8,2,5,56,103,1579352508
25,15,15,Jits_Phase_8,3,5,63,98,1579361584
25,15,15,Jits_Phase_8,0,5,80,127,1580121492
25,15,15,Jits_Phase_8,1,1,48,32,1580153308
25,15,15,Jits_Phase_8,2,5,56,103,1580202356
25,15,15,Jits_Phase_8,3,5,63,98,1580211432
25,15,15,Jits_Phase_8,0,5,80,127,1580962108
25,15,15,Jits_Phase_8,1,1,48,43,1580976932
25,15,15,Jits_Phase_8,2,5,56,103,1581012328
25,15,15,Jits_Phase_8,3,5,63,98,1581061408
25,15,15,Jits_Phase_8,0,1,48,39,1581843004
25,15,15,Jits_Phase_8,1,5,56,103,1581902140
25,15,15,Jits_Phase_8,2,5,63,98,1581905208
25,15,15,Jits_Phase_8,3,5,80,127,1581952324
25,15,15,Jits_Phase_8,0,5,56,103,1582722580
25,15,15,Jits_Phase_8,1,1,48,44,1582748772
25,15,15,Jits_Phase_8,2,5,63,98,1582752100
25,15,15,Jits_Phase_8,3,5,80,127,1582762544
25,15,15,Jits_Phase_8,0,5,63,98,1583432152
25,15,15,Jits_Phase_8,1,5,56,103,1583501760
25,15,15,Jits_Phase_8,2,5,80,127,1583551836
25,15,15,Jits_Phase_8,3,1,48,46,1583607684
25,15,15,Jits_Phase_8,0,5,63,98,1584261356
25,15,15,Jits_Phase_8,1,5,56,103,1584271996
25,15,15,Jits_Phase_8,2,5,80,127,1584275140
25,15,15,Jits_Phase_8,3,1,48,36,1584402872
25,15,15,Jits_Phase_8,0,5,80,127,1585012024
25,15,15,Jits_Phase_8,1,5,56,103,1585071616
25,15,15,Jits_Phase_8,2,5,63,98,1585161748
25,15,15,Jits_Phase_8,3,1,48,39,1585188608
25,15,15,Jits_Phase_8,0,5,80,127,1585811944
25,15,15,Jits_Phase_8,1,5,56,103,1585912072
25,15,15,Jits_Phase_8,2,5,63,98,1585952232
25,15,15,Jits_Phase_8,3,1,48,31,1586008608
25,15,15,Jits_Phase_8,0,5,56,103,1586661720
25,15,15,Jits_Phase_8,1,5,63,98,1586682328
25,15,15,Jits_Phase_8,2,5,80,127,1586722264
25,15,15,Jits_Phase_8,3,1,48,40,1586764564
25,15,15,Jits_Phase_8,0,5,63,98,1587431748
25,15,15,Jits_Phase_8,1,5,56,103,1587452208
25,15,15,Jits_Phase_8,2,1,48,40,1587546944
25,15,15,Jits_Phase_8,3,5,80,127,1587551696
25,15,15,Jits_Phase_8,0,5,63,98,1588222588
25,15,15,Jits_Phase_8,1,1,48,42,1588283920
25,15,15,Jits_Phase_8,2,5,80,127,1588331896
25,15,15,Jits_Phase_8,3,5,56,103,1588361792
25,15,15,Jits_Phase_8,0,5,56,103,1589041456
25,15,15,Jits_Phase_8,1,1,48,37,1589072180
25,15,15,Jits_Phase_8,2,5,63,98,1589073816
25,15,15,Jits_Phase_8,3,5,80,127,1589122820
25,15,15,Jits_Phase_8,0,5,63,98,1589811488
25,15,15,Jits_Phase_8,1,5,56,103,1589842284
25,15,15,Jits_Phase_8,2,1,48,39,1589875592
25,15,15,Jits_Phase_8,3,5,80,127,1589891652
25,15,15,Jits_Phase_8,0,1,48,43,1590610460
25,15,15,Jits_Phase_8,1,5,56,103,1590642172
25,15,15,Jits_Phase_8,2,5,63,98,1590661584
25,15,15,Jits_Phase_8,3,5,80,127,1590742508
25,15,15,Jits_Phase_8,0,5,63,98,1591412192
25,15,15,Jits_Phase_8,1,1,48,41,1591446848
25,15,15,Jits_Phase_8,2,5,56,103,1591471628
25,15,15,Jits_Phase_8,3,5,80,127,1591502200
25,15,15,Jits_Phase_8,0,1,48,42,1592209128
25,15,15,Jits_Phase_8,1,5,56,103,1592251676
25,15,15,Jits_Phase_8,2,5,80,127,1592312124
25,15,15,Jits_Phase_8,3,5,63,98,1592352064
25,15,15,Jits_Phase_8,0,5,63,98,1593032184
25,15,15,Jits_Phase_8,1,5,56,103,1593091676
25,15,15,Jits_Phase_8,2,1,48,42,1593093972
25,15,15,Jits_Phase_8,3,5,80,127,1593162172
25,15,15,Jits_Phase_8,0,1,48,43,1593903168
25,15,15,Jits_Phase_8,1,5,56,103,1593911584
25,15,15,Jits_Phase_8,2,5,63,98,1593921852
25,15,15,Jits_Phase_8,3,5,80,127,1593925440
25,15,15,Jits_Phase_8,0,5,63,98,1594651928
25,15,15,Jits_Phase_8,1,5,56,103,1594712468
25,15,15,Jits_Phase_8,2,5,80,127,1594715536
25,15,15,Jits_Phase_8,3,1,48,38,1594719172
25,15,15,Jits_Phase_8,0,5,63,98,1595432496
25,15,15,Jits_Phase_8,1,5,80,127,1595462172
25,15,15,Jits_Phase_8,2,5,56,103,1595481432
25,15,15,Jits_Phase_8,3,1,48,45,1595500288
25,15,15,Jits_Phase_8,0,5,56,103,1596162424
25,15,15,Jits_Phase_8,1,5,63,98,1596211580
25,15,15,Jits_Phase_8,2,5,80,127,1596291372
25,15,15,Jits_Phase_8,3,1,48,43,1596301464
25,15,15,Jits_Phase_8,0,5,80,127,1596861740
25,15,15,Jits_Phase_8,1,5,63,98,1596901832
25,15,15,Jits_Phase_8,2,5,56,103,1596922512
25,15,15,Jits_Phase_8,3,1,48,43,1597041756
25,15,15,Jits_Phase_8,0,5,56,103,1597732308
25,15,15,Jits_Phase_8,1,1,48,37,1597737000
25,15,15,Jits_Phase_8,2,5,80,127,1597741528
25,15,15,Jits_Phase_8,3,5,63,98,1597761764
25,15,15,Jits_Phase_8,0,1,48,43,1598489484
25,15,15,Jits_Phase_8,1,5,56,103,1598511400
25,15,15,Jits_Phase_8,2,5,63,98,1598561608
25,15,15,Jits_Phase_8,3,5,80,127,1598592312
25,15,15,Jits_Phase_8,0,5,56,103,1599262096
25,15,15,Jits_Phase_8,1,5,63,98,1599272220
25,15,15,Jits_Phase_8,2,1,48,37,1599286796
25,15,15,Jits_Phase_8,3,5,80,127,1599321512
25,15,15,Jits_Phase_8,0,1,48,39,1600007652
25,15,15,Jits_Phase_8,1,5,56,103,1600051516
25,15,15,Jits_Phase_8,2,5,80,127,1600054580
25,15,15,Jits_Phase_8,3,5,63,98,1600212376
25,15,15,Jits_Phase_8,0,1,48,41,1600861576
25,15,15,Jits_Phase_8,1,5,63,98,1600871860
25,15,15,Jits_Phase_8,2,5,56,103,1600941420
25,15,15,Jits_Phase_8,3,5,80,127,1600982392
25,15,15,Jits_Phase_8,0,1,48,38,1601664176
25,15,15,Jits_Phase_8,1,5,63,98,1601711428
25,15,15,Jits_Phase_8,2,5,56,103,1601801548
25,15,15,Jits_Phase_8,3,5,80,127,1601804688
25,15,15,Jits_Phase_8,0,5,56,103,1602491632
25,15,15,Jits_Phase_8,1,1,48,34,1602504188
25,15,15,Jits_Phase_8,2,5,63,98,1602582132
25,15,15,Jits_Phase_8,3,5,80,127,1602592252
25,15,15,Jits_Phase_8,0,5,56,103,1603261736
25,15,15,Jits_Phase_8,1,1,48,35,1603289440
25,15,15,Jits_Phase_8,2,5,63,98,1603312380
25,15,15,Jits_Phase_8,3,5,80,127,1603341760
25,15,15,Jits_Phase_8,0,1,48,44,1604067008
25,15,15,Jits_Phase_8,1,5,63,98,1604141292
25,15,15,Jits_Phase_8,2,5,80,127,1604151564
25,15,15,Jits_Phase_8,3,5,56,103,1604212236
25,15,15,Jits_Phase_8,0,1,48,41,1604847216
25,15,15,Jits_Phase_8,1,5,63,98,1604862236
25,15,15,Jits_Phase_8,2,5,80,127,1604921580
25,15,15,Jits_Phase_8,3,5,56,103,1604961580
25,15,15,Jits_Phase_8,0,1,48,40,1605653124
25,15,15,Jits_Phase_8,1,5,56,103,1605762372
25,15,15,Jits_Phase_8,2,5,80,127,1605782080
25,15,15,Jits_Phase_8,3,5,63,98,1605802344
25,15,15,Jits_Phase_8,0,5,63,98,1606482212
25,15,15,Jits_Phase_8,1,1,48,42,1606493724
25,15,15,Jits_Phase_8,2,5,56,103,1606501844
25,15,15,Jits_Phase_8,3,5,80,127,1606541632
25,15,15,Jits_Phase_8,0,5,63,98,1607292304
25,15,15,Jits_Phase_8,1,5,80,127,1607322056
25,15,15,Jits_Phase_8,2,1,48,43,1607333292
25,15,15,Jits_Phase_8,3,5,56,103,1607341336
25,15,15,Jits_Phase_8,0,5,80,127,1608062316
25,15,15,Jits_Phase_8,1,5,56,103,1608111420
25,15,15,Jits_Phase_8,2,1,48,35,1608160240
25,15,15,Jits_Phase_8,3,5,63,98,1608171804
25,15,15,Jits_Phase_8,0,5,63,98,1608851820
25,15,15,Jits_Phase_8,1,1,48,46,1608933180
25,15,15,Jits_Phase_8,2,5,56,103,1608971940
25,15,15,Jits_Phase_8,3,5,80,127,1609002216
25,15,15,Jits_Phase_8,0,1,48,37,1609681768
25,15,15,Jits_Phase_8,1,5,80,127,1609691608
25,15,15,Jits_Phase_8,2,5,63,98,1609711920
25,15,15,Jits_Phase_8,3,5,56,103,1609781732
25,15,15,Jits_Phase_8,0,5,63,98,1610511900
25,15,15,Jits_Phase_8,1,1,48,38,1610514208
25,15,15,Jits_Phase_8,2,5,56,103,1610521940
25,15,15,Jits_Phase_8,3,5,80,127,1610601808
25,15,15,Jits_Phase_8,0,1,48,30,1611301144
25,15,15,Jits_Phase_8,1,5,56,103,1611371892
25,15,15,Jits_Phase_8,2,5,80,127,1611401776
25,15,15,Jits_Phase_8,3,5,63,98,1611411972
25,15,15,Jits_Phase_8,0,9999,9999,9999,1476529232
25,15,15,Jits_Phase_8,1,9999,9999,9999,1477329996
25,15,15,Jits_Phase_8,2,9999,9999,9999,1478129732
25,15,15,Jits_Phase_8,3,9999,9999,9999,1478929468
25,15,15,Jits_Phase_8,4,9999,9999,9999,1479729248
25,15,15,Jits_Phase_8,5,9999,9999,9999,1480529980
25,15,15,Jits_Phase_8,6,9999,9999,9999,1481329752
25,15,15,Jits_Phase_8,7,9999,9999,9999,1482129524
25,15,15,Jits_Phase_8,8,9999,9999,9999,1482929240
25,15,15,Jits_Phase_8,9,9999,9999,9999,1483730028
25,15,15,Jits_Phase_8,10,9999,9999,9999,1484529732
25,15,15,Jits_Phase_8,11,9999,9999,9999,1485329492
25,15,15,Jits_Phase_8,12,9999,9999,9999,1486129256
25,15,15,Jits_Phase_8,13,9999,9999,9999,1486929996
25,15,15,Jits_Phase_8,14,9999,9999,9999,1487729740
25,15,15,Jits_Phase_8,15,9999,9999,9999,1488529504
25,15,15,Jits_Phase_8,16,9999,9999,9999,1489329272
25,15,15,Jits_Phase_8,17,9999,9999,9999,1490130020
25,15,15,Jits_Phase_8,18,9999,9999,9999,1490929784
25,15,15,Jits_Phase_8,19,9999,9999,9999,1491729480
25,15,15,Jits_Phase_8,20,9999,9999,9999,1492529236
25,15,15,Jits_Phase_8,21,9999,9999,9999,1493330036
25,15,15,Jits_Phase_8,22,9999,9999,9999,1494129728
25,15,15,Jits_Phase_8,23,9999,9999,9999,1494929500
25,15,15,Jits_Phase_8,24,9999,9999,9999,1495729204
25,15,15,Jits_Phase_8,25,9999,9999,9999,1496530008
25,15,15,Jits_Phase_8,26,9999,9999,9999,1497329780
25,15,15,Jits_Phase_8,27,9999,9999,9999,1498129464
25,15,15,Jits_Phase_8,28,9999,9999,9999,1498929232
25,15,15,Jits_Phase_8,29,9999,9999,9999,1499729980
25,15,15,Jits_Phase_8,30,9999,9999,9999,1500509284
25,15,15,Jits_Phase_8,31,9999,9999,9999,1501310012
25,15,15,Jits_Phase_8,32,9999,9999,9999,1502109784
25,15,15,Jits_Phase_8,33,9999,9999,9999,1502909500
25,15,15,Jits_Phase_8,34,9999,9999,9999,1503709272
25,15,15,Jits_Phase_8,35,9999,9999,9999,1504510060
25,15,15,Jits_Phase_8,36,9999,9999,9999,1505309748
25,15,15,Jits_Phase_8,37,9999,9999,9999,1506109524
25,15,15,Jits_Phase_8,38,9999,9999,9999,1506909292
25,15,15,Jits_Phase_8,39,9999,9999,9999,1507710040
25,15,15,Jits_Phase_8,40,9999,9999,9999,1508509800
25,15,15,Jits_Phase_8,41,9999,9999,9999,1509309524
25,15,15,Jits_Phase_8,42,9999,9999,9999,1510109280
25,15,15,Jits_Phase_8,43,9999,9999,9999,1510910016
25,15,15,Jits_Phase_8,44,9999,9999,9999,1511709756
25,15,15,Jits_Phase_8,45,9999,9999,9999,1512509516
25,15,15,Jits_Phase_8,46,9999,9999,9999,1513309288
25,15,15,Jits_Phase_8,47,9999,9999,9999,1514110024
25,15,15,Jits_Phase_8,48,9999,9999,9999,1514929232
25,15,15,Jits_Phase_8,49,9999,9999,9999,1515730048
25,15,15,Jits_Phase_8,50,9999,9999,9999,1516529728
25,15,15,Jits_Phase_8,51,9999,9999,9999,1517329500
25,15,15,Jits_Phase_8,52,9999,9999,9999,1518129276
25,15,15,Jits_Phase_8,53,9999,9999,9999,1518930028
25,15,15,Jits_Phase_8,54,9999,9999,9999,1519729720
25,15,15,Jits_Phase_8,55,9999,9999,9999,1520529496
25,15,15,Jits_Phase_8,56,9999,9999,9999,1521329276
25,15,15,Jits_Phase_8,57,9999,9999,9999,1522130004
25,15,15,Jits_Phase_8,58,9999,9999,9999,1522929776
25,15,15,Jits_Phase_8,59,9999,9999,9999,1523729472
25,15,15,Jits_Phase_8,60,9999,9999,9999,1524529248
25,15,15,Jits_Phase_8,61,9999,9999,9999,1525329996
25,15,15,Jits_Phase_8,62,9999,9999,9999,1526129768
25,15,15,Jits_Phase_8,63,9999,9999,9999,1526929516
25,15,15,Jits_Phase_8,64,9999,9999,9999,1527769180
25,15,15,Jits_Phase_8,65,9999,9999,9999,1528569916
25,15,15,Jits_Phase_8,66,9999,9999,9999,1529369692
25,15,15,Jits_Phase_8,67,9999,9999,9999,1530169456
25,15,15,Jits_Phase_8,68,9999,9999,9999,1530969140
25,15,15,Jits_Phase_8,69,9999,9999,9999,1531769964
25,15,15,Jits_Phase_8,70,9999,9999,9999,1532569652
25,15,15,Jits_Phase_8,71,9999,9999,9999,1533369444
25,15,15,Jits_Phase_8,72,9999,9999,9999,1534169200
25,15,15,Jits_Phase_8,73,9999,9999,9999,1534969948
25,15,15,Jits_Phase_8,74,9999,9999,9999,1535769688
25,15,15,Jits_Phase_8,75,9999,9999,9999,1536569456
25,15,15,Jits_Phase_8,76,9999,9999,9999,1537369148
25,15,15,Jits_Phase_8,77,9999,9999,9999,1538169968
25,15,15,Jits_Phase_8,78,9999,9999,9999,1538969656
25,15,15,Jits_Phase_8,79,9999,9999,9999,1539769456
25,15,15,Jits_Phase_8,80,9999,9999,9999,1540569152
25,15,15,Jits_Phase_8,81,9999,9999,9999,1541330020
25,15,15,Jits_Phase_8,82,9999,9999,9999,1542129780
25,15,15,Jits_Phase_8,83,9999,9999,9999,1542929532
25,15,15,Jits_Phase_8,84,9999,9999,9999,1543729228
25,15,15,Jits_Phase_8,85,9999,9999,9999,1544530048
25,15,15,Jits_Phase_8,86,9999,9999,9999,1545329744
25,15,15,Jits_Phase_8,87,9999,9999,9999,1546129500
25,15,15,Jits_Phase_8,88,9999,9999,9999,1546929276
25,15,15,Jits_Phase_8,89,9999,9999,9999,1547730016
25,15,15,Jits_Phase_8,90,9999,9999,9999,1548529784
25,15,15,Jits_Phase_8,91,9999,9999,9999,1549329464
25,15,15,Jits_Phase_8,92,9999,9999,9999,1550129240
25,15,15,Jits_Phase_8,93,9999,9999,9999,1550930040
25,15,15,Jits_Phase_8,94,9999,9999,9999,1551729724
25,15,15,Jits_Phase_8,95,9999,9999,9999,1552529492
25,15,15,Jits_Phase_8,96,9999,9999,9999,1553329212
25,15,15,Jits_Phase_8,97,9999,9999,9999,1554049088
25,15,15,Jits_Phase_8,98,9999,9999,9999,1554849912
25,15,15,Jits_Phase_8,99,9999,9999,9999,1555649628
25,15,15,Jits_Phase_8,100,9999,9999,9999,1556449392
25,15,15,Jits_Phase_8,101,9999,9999,9999,1557249080
25,15,15,Jits_Phase_8,102,9999,9999,9999,1558049856
25,15,15,Jits_Phase_8,103,9999,9999,9999,1558849612
25,15,15,Jits_Phase_8,104,9999,9999,9999,1559649384
25,15,15,Jits_Phase_8,105,9999,9999,9999,1560449152
25,15,15,Jits_Phase_8,106,9999,9999,9999,1561249872
25,15,15,Jits_Phase_8,107,9999,9999,9999,1562049632
25,15,15,Jits_Phase_8,108,9999,9999,9999,1562849392
25,15,15,Jits_Phase_8,109,9999,9999,9999,1563649148
25,15,15,Jits_Phase_8,110,9999,9999,9999,1564449896
25,15,15,Jits_Phase_8,111,9999,9999,9999,1565249656
25,15,15,Jits_Phase_8,112,9999,9999,9999,1566049348
25,15,15,Jits_Phase_8,113,9999,9999,9999,1566849124
25,15,15,Jits_Phase_8,114,9999,9999,9999,1567729756
25,15,15,Jits_Phase_8,115,9999,9999,9999,1568529512
25,15,15,Jits_Phase_8,116,9999,9999,9999,1569329212
25,15,15,Jits_Phase_8,117,9999,9999,9999,1570130040
25,15,15,Jits_Phase_8,118,9999,9999,9999,1570929740
25,15,15,Jits_Phase_8,119,9999,9999,9999,1571729508
25,15,15,Jits_Phase_8,120,9999,9999,9999,1572529228
25,15,15,Jits_Phase_8,121,9999,9999,9999,1573330040
25,15,15,Jits_Phase_8,122,9999,9999,9999,1574129784
25,15,15,Jits_Phase_8,123,9999,9999,9999,1574929532
25,15,15,Jits_Phase_8,124,9999,9999,9999,1575729220
25,15,15,Jits_Phase_8,125,9999,9999,9999,1576530032
25,15,15,Jits_Phase_8,126,9999,9999,9999,1577329724
25,15,15,Jits_Phase_8,127,9999,9999,9999,1578129488
25,15,15,Jits_Phase_8,128,9999,9999,9999,1578929268
25,15,15,Jits_Phase_8,129,9999,9999,9999,1579730000
25,15,15,Jits_Phase_8,130,9999,9999,9999,1580529780
25,15,15,Jits_Phase_8,131,9999,9999,9999,1581489228
25,15,15,Jits_Phase_8,132,9999,9999,9999,1582290040
25,15,15,Jits_Phase_8,133,9999,9999,9999,1583089732
25,15,15,Jits_Phase_8,134,9999,9999,9999,1583889508
25,15,15,Jits_Phase_8,135,9999,9999,9999,1584689252
25,15,15,Jits_Phase_8,136,9999,9999,9999,1585489980
25,15,15,Jits_Phase_8,137,9999,9999,9999,1586289752
25,15,15,Jits_Phase_8,138,9999,9999,9999,1587089524
25,15,15,Jits_Phase_8,139,9999,9999,9999,1587889248
25,15,15,Jits_Phase_8,140,9999,9999,9999,1588689984
25,15,15,Jits_Phase_8,141,9999,9999,9999,1589489744
25,15,15,Jits_Phase_8,142,9999,9999,9999,1590289512
25,15,15,Jits_Phase_8,143,9999,9999,9999,1591089268
25,15,15,Jits_Phase_8,144,9999,9999,9999,1591889992
25,15,15,Jits_Phase_8,145,9999,9999,9999,1592689756
25,15,15,Jits_Phase_8,146,9999,9999,9999,1593489516
25,15,15,Jits_Phase_8,147,9999,9999,9999,1594289220
25,15,15,Jits_Phase_8,148,9999,9999,9999,1595090016
25,15,15,Jits_Phase_8,149,9999,9999,9999,1595889768
25,15,15,Jits_Phase_8,150,9999,9999,9999,1596529784
25,15,15,Jits_Phase_8,151,9999,9999,9999,1597329480
25,15,15,Jits_Phase_8,152,9999,9999,9999,1598129280
25,15,15,Jits_Phase_8,153,9999,9999,9999,1598930028
25,15,15,Jits_Phase_8,154,9999,9999,9999,1599729784
25,15,15,Jits_Phase_8,155,9999,9999,9999,1600529468
25,15,15,Jits_Phase_8,156,9999,9999,9999,1601329224
25,15,15,Jits_Phase_8,157,9999,9999,9999,1602130020
25,15,15,Jits_Phase_8,158,9999,9999,9999,1602929784
25,15,15,Jits_Phase_8,159,9999,9999,9999,1603729476
25,15,15,Jits_Phase_8,160,9999,9999,9999,1604529280
25,15,15,Jits_Phase_8,161,9999,9999,9999,1605330008
25,15,15,Jits_Phase_8,162,9999,9999,9999,1606129772
25,15,15,Jits_Phase_8,163,9999,9999,9999,1606929524
25,15,15,Jits_Phase_8,164,9999,9999,9999,1607729204
25,15,15,Jits_Phase_8,165,9999,9999,9999,1608530004
25,15,15,Jits_Phase_8,166,9999,9999,9999,1609329780
25,15,15,Jits_Phase_8,167,9999,9999,9999,1610129464
25,15,15,Jits_Phase_8,168,9999,9999,9999,1610929248
25,15,15,Jits_Phase_8,169,9999,9999,9999,1611729988
25,16,17,Jits_Phase_5,0,5,56,103,1622411584
25,16,17,Jits_Phase_5,1,5,63,98,1622414608
25,16,17,Jits_Phase_5,2,5,80,127,1622417656
25,16,17,Jits_Phase_5,0,5,56,103,1622912340
25,16,17,Jits_Phase_5,1,5,63,98,1622915364
25,16,17,Jits_Phase_5,2,5,80,127,1622918488
25,16,17,Jits_Phase_5,0,5,56,103,1623412144
25,16,17,Jits_Phase_5,1,5,80,127,1623422188
25,16,17,Jits_Phase_5,2,5,63,98,1623441896
25,16,17,Jits_Phase_5,0,5,63,98,1623861676
25,16,17,Jits_Phase_5,1,5,80,127,1623892324
25,16,17,Jits_Phase_5,2,5,56,103,1623901620
25,16,17,Jits_Phase_5,0,5,80,127,1624421920
25,16,17,Jits_Phase_5,1,1,48,43,1624432488
25,16,17,Jits_Phase_5,2,5,56,103,1624433756
25,16,17,Jits_Phase_5,3,5,63,98,1624461708
25,16,17,Jits_Phase_5,0,5,63,98,1624912172
25,16,17,Jits_Phase_5,1,5,56,103,1624942072
25,16,17,Jits_Phase_5,2,5,80,127,1624952116
25,16,17,Jits_Phase_5,3,1,48,42,1624959424
25,16,17,Jits_Phase_5,0,5,56,103,1625361880
25,16,17,Jits_Phase_5,1,5,63,98,1625412228
25,16,17,Jits_Phase_5,2,5,80,127,1625432388
25,16,17,Jits_Phase_5,3,1,48,37,1625440312
25,16,17,Jits_Phase_5,0,5,80,127,1625861492
25,16,17,Jits_Phase_5,1,1,48,35,1625896520
25,16,17,Jits_Phase_5,2,5,63,98,1625911612
25,16,17,Jits_Phase_5,3,5,56,103,1625951548
25,16,17,Jits_Phase_5,0,5,56,103,1626362152
25,16,17,Jits_Phase_5,1,5,63,98,1626392128
25,16,17,Jits_Phase_5,2,1,48,39,1626405436
25,16,17,Jits_Phase_5,3,5,80,127,1626461424
25,16,17,Jits_Phase_5,0,5,56,103,1626861992
25,16,17,Jits_Phase_5,1,1,48,45,1626898364
25,16,17,Jits_Phase_5,2,5,80,127,1626922376
25,16,17,Jits_Phase_5,3,5,63,98,1626951976
25,16,17,Jits_Phase_5,0,5,56,103,1627372172
25,16,17,Jits_Phase_5,1,5,63,98,1627382144
25,16,17,Jits_Phase_5,2,1,48,46,1627410444
25,16,17,Jits_Phase_5,3,5,80,127,1627422000
25,16,17,Jits_Phase_5,0,5,63,98,1627862344
25,16,17,Jits_Phase_5,1,1,48,46,1627897744
25,16,17,Jits_Phase_5,2,5,80,127,1627942132
25,16,17,Jits_Phase_5,3,5,56,103,1627951504
25,16,17,Jits_Phase_5,0,5,63,98,1628421436
25,16,17,Jits_Phase_5,1,1,48,43,1628427472
25,16,17,Jits_Phase_5,2,5,56,103,1628461516
25,16,17,Jits_Phase_5,3,5,80,127,1628464508
25,16,17,Jits_Phase_5,0,5,56,103,1628882368
25,16,17,Jits_Phase_5,1,5,63,98,1628891520
25,16,17,Jits_Phase_5,2,5,80,127,1628931452
25,16,17,Jits_Phase_5,3,1,48,42,1628971140
25,16,17,Jits_Phase_5,0,5,56,103,1629371868
25,16,17,Jits_Phase_5,1,5,63,98,1629374932
25,16,17,Jits_Phase_5,2,5,80,127,1629392100
25,16,17,Jits_Phase_5,3,1,48,32,1629567428
25,16,17,Jits_Phase_5,0,5,80,127,1629881956
25,16,17,Jits_Phase_5,1,5,56,103,1629892080
25,16,17,Jits_Phase_5,2,5,63,98,1629961608
25,16,17,Jits_Phase_5,3,1,48,29,1629995364
25,16,17,Jits_Phase_5,0,5,63,98,1630372128
25,16,17,Jits_Phase_5,1,5,56,103,1630391840
25,16,17,Jits_Phase_5,2,1,48,28,1630454292
25,16,17,Jits_Phase_5,3,5,80,127,1630471476
25,16,17,Jits_Phase_5,0,5,56,103,1630882192
25,16,17,Jits_Phase_5,1,1,48,33,1630894476
25,16,17,Jits_Phase_5,2,5,80,127,1630921996
25,16,17,Jits_Phase_5,3,5,63,98,1630932192
25,16,17,Jits_Phase_5,0,5,80,127,1631371840
25,16,17,Jits_Phase_5,1,1,48,33,1631399696
25,16,17,Jits_Phase_5,2,5,63,98,1631402428
25,16,17,Jits_Phase_5,3,5,56,103,1631442216
25,16,17,Jits_Phase_5,0,5,56,103,1631891976
25,16,17,Jits_Phase_5,1,1,48,41,1631916248
25,16,17,Jits_Phase_5,2,5,63,98,1631921448
25,16,17,Jits_Phase_5,3,5,80,127,1631971792
25,16,17,Jits_Phase_5,0,5,80,127,1632391520
25,16,17,Jits_Phase_5,1,5,56,103,1632431408
25,16,17,Jits_Phase_5,2,5,63,98,1632441828
25,16,17,Jits_Phase_5,3,1,48,38,1632448160
25,16,17,Jits_Phase_5,0,5,80,127,1632871724
25,16,17,Jits_Phase_5,1,5,63,98,1632911660
25,16,17,Jits_Phase_5,2,1,48,39,1632968960
25,16,17,Jits_Phase_5,3,5,56,103,1632972140
25,16,17,Jits_Phase_5,0,5,56,103,1633371932
25,16,17,Jits_Phase_5,1,5,80,127,1633382128
25,16,17,Jits_Phase_5,2,5,63,98,1633461796
25,16,17,Jits_Phase_5,3,1,48,41,1633477872
25,16,17,Jits_Phase_5,0,5,80,127,1633872148
25,16,17,Jits_Phase_5,1,5,63,98,1633931864
25,16,17,Jits_Phase_5,2,5,56,103,1633962240
25,16,17,Jits_Phase_5,3,1,48,36,1633991732
25,16,17,Jits_Phase_5,0,5,56,103,1634372064
25,16,17,Jits_Phase_5,1,5,80,127,1634432304
25,16,17,Jits_Phase_5,2,1,48,34,1634442620
25,16,17,Jits_Phase_5,3,5,63,98,1634472184
25,16,17,Jits_Phase_5,0,5,56,103,1634921804
25,16,17,Jits_Phase_5,1,5,63,98,1634932072
25,16,17,Jits_Phase_5,2,5,80,127,1634935660
25,16,17,Jits_Phase_5,3,1,48,34,1634942988
25,16,17,Jits_Phase_5,0,5,80,127,1635372264
25,16,17,Jits_Phase_5,1,1,48,38,1635431728
25,16,17,Jits_Phase_5,2,5,63,98,1635461564
25,16,17,Jits_Phase_5,3,5,56,103,1635471836
25,16,17,Jits_Phase_5,0,5,56,103,1635882276
25,16,17,Jits_Phase_5,1,5,63,98,1635885376
25,16,17,Jits_Phase_5,2,5,80,127,1635888648
25,16,17,Jits_Phase_5,3,1,48,45,1635957920
25,16,17,Jits_Phase_5,0,5,80,127,1636401736
25,16,17,Jits_Phase_5,1,1,48,35,1636450436
25,16,17,Jits_Phase_5,2,5,63,98,1636452228
25,16,17,Jits_Phase_5,3,5,56,103,1636482504
25,16,17,Jits_Phase_5,0,5,56,103,1636881728
25,16,17,Jits_Phase_5,1,5,80,127,1636892148
25,16,17,Jits_Phase_5,2,1,48,44,1636947700
25,16,17,Jits_Phase_5,3,5,63,98,1636961596
25,16,17,Jits_Phase_5,0,5,56,103,1637391828
25,16,17,Jits_Phase_5,1,5,63,98,1637412064
25,16,17,Jits_Phase_5,2,1,48,38,1637443276
25,16,17,Jits_Phase_5,3,5,80,127,1637471844
25,16,17,Jits_Phase_5,0,5,80,127,1637872120
25,16,17,Jits_Phase_5,1,1,48,40,1637918984
25,16,17,Jits_Phase_5,2,5,63,98,1637941568
25,16,17,Jits_Phase_5,3,5,56,103,1637962028
25,16,17,Jits_Phase_5,0,5,80,127,1638392040
25,16,17,Jits_Phase_5,1,5,56,103,1638402604
25,16,17,Jits_Phase_5,2,1,48,41,1638410476
25,16,17,Jits_Phase_5,3,5,63,98,1638412424
25,16,17,Jits_Phase_5,0,5,80,127,1638881540
25,16,17,Jits_Phase_5,1,1,48,46,1638888920
25,16,17,Jits_Phase_5,2,5,56,103,1638902140
25,16,17,Jits_Phase_5,3,5,63,98,1638971744
25,16,17,Jits_Phase_5,0,5,56,103,1639391712
25,16,17,Jits_Phase_5,1,1,48,46,1639401056
25,16,17,Jits_Phase_5,2,5,80,127,1639422500
25,16,17,Jits_Phase_5,3,5,63,98,1639441692
25,16,17,Jits_Phase_5,0,5,63,98,1639882108
25,16,17,Jits_Phase_5,1,1,48,45,1639892128
25,16,17,Jits_Phase_5,2,5,56,103,1639941740
25,16,17,Jits_Phase_5,3,5,80,127,1639972164
25,16,17,Jits_Phase_5,0,5,63,98,1640371520
25,16,17,Jits_Phase_5,1,5,80,127,1640374960
25,16,17,Jits_Phase_5,2,1,48,44,1640418976
25,16,17,Jits_Phase_5,3,5,56,103,1640461564
25,16,17,Jits_Phase_5,0,5,56,103,1640891708
25,16,17,Jits_Phase_5,1,1,48,43,1640901424
25,16,17,Jits_Phase_5,2,5,63,98,1640921600
25,16,17,Jits_Phase_5,3,5,80,127,1640962660
25,16,17,Jits_Phase_5,0,5,63,98,1641391472
25,16,17,Jits_Phase_5,1,1,48,46,1641399768
25,16,17,Jits_Phase_5,2,5,56,103,1641432452
25,16,17,Jits_Phase_5,3,5,80,127,1641451936
25,16,17,Jits_Phase_5,0,1,48,41,1641895824
25,16,17,Jits_Phase_5,1,5,63,98,1641901404
25,16,17,Jits_Phase_5,2,5,56,103,1641942464
25,16,17,Jits_Phase_5,3,5,80,127,1641951464
25,16,17,Jits_Phase_5,0,5,80,127,1642381880
25,16,17,Jits_Phase_5,1,1,48,43,1642415216
25,16,17,Jits_Phase_5,2,5,63,98,1642452324
25,16,17,Jits_Phase_5,3,5,56,103,1642471812
25,16,17,Jits_Phase_5,0,5,56,103,1642872576
25,16,17,Jits_Phase_5,1,5,80,127,1642891540
25,16,17,Jits_Phase_5,2,1,48,38,1642898244
25,16,17,Jits_Phase_5,3,5,63,98,1642931496
25,16,17,Jits_Phase_5,0,5,63,98,1643382224
25,16,17,Jits_Phase_5,1,1,48,42,1643400736
25,16,17,Jits_Phase_5,2,5,80,127,1643402528
25,16,17,Jits_Phase_5,3,5,56,103,1643441516
25,16,17,Jits_Phase_5,0,1,48,41,1643871900
25,16,17,Jits_Phase_5,1,5,63,98,1643881740
25,16,17,Jits_Phase_5,2,5,56,103,1643902496
25,16,17,Jits_Phase_5,3,5,80,127,1643911424
25,16,17,Jits_Phase_5,0,1,48,37,1644374348
25,16,17,Jits_Phase_5,1,5,80,127,1644381492
25,16,17,Jits_Phase_5,2,5,56,103,1644402172
25,16,17,Jits_Phase_5,3,5,63,98,1644431696
25,16,17,Jits_Phase_5,0,1,48,40,1644875140
25,16,17,Jits_Phase_5,1,5,56,103,1644951884
25,16,17,Jits_Phase_5,2,5,80,127,1644954948
25,16,17,Jits_Phase_5,3,5,63,98,1644972428
25,16,17,Jits_Phase_5,0,5,63,98,1645371848
25,16,17,Jits_Phase_5,1,5,56,103,1645401448
25,16,17,Jits_Phase_5,2,1,48,41,1645439096
25,16,17,Jits_Phase_5,3,5,80,127,1645461828
25,16,17,Jits_Phase_5,0,1,48,44,1645887516
25,16,17,Jits_Phase_5,1,5,63,98,1645952276
25,16,17,Jits_Phase_5,2,5,56,103,1645961724
25,16,17,Jits_Phase_5,3,5,80,127,1645971992
25,16,17,Jits_Phase_5,0,5,56,103,1646412328
25,16,17,Jits_Phase_5,1,1,48,43,1646425788
25,16,17,Jits_Phase_5,2,5,80,127,1646441848
25,16,17,Jits_Phase_5,3,5,63,98,1646452192
25,16,17,Jits_Phase_5,0,1,48,38,1646882176
25,16,17,Jits_Phase_5,1,5,63,98,1646951800
25,16,17,Jits_Phase_5,2,5,56,103,1646962292
25,16,17,Jits_Phase_5,3,5,80,127,1646982436
25,16,17,Jits_Phase_5,0,5,56,103,1647382032
25,16,17,Jits_Phase_5,1,1,48,39,1647416688
25,16,17,Jits_Phase_5,2,5,63,98,1647442412
25,16,17,Jits_Phase_5,3,5,80,127,1647445628
25,16,17,Jits_Phase_5,0,5,80,127,1647902236
25,16,17,Jits_Phase_5,1,5,56,103,1647912284
25,16,17,Jits_Phase_5,2,1,48,29,1647952860
25,16,17,Jits_Phase_5,3,5,63,98,1647981880
25,16,17,Jits_Phase_5,0,5,80,127,1648391516
25,16,17,Jits_Phase_5,1,1,48,46,1648406168
25,16,17,Jits_Phase_5,2,5,56,103,1648462088
25,16,17,Jits_Phase_5,3,5,63,98,1648472432
25,16,17,Jits_Phase_5,0,1,48,39,1648931808
25,16,17,Jits_Phase_5,1,5,63,98,1648933520
25,16,17,Jits_Phase_5,2,5,56,103,1648941476
25,16,17,Jits_Phase_5,3,5,80,127,1648961860
25,16,17,Jits_Phase_5,0,5,80,127,1649381740
25,16,17,Jits_Phase_5,1,1,48,38,1649428828
25,16,17,Jits_Phase_5,2,5,63,98,1649442048
25,16,17,Jits_Phase_5,3,5,56,103,1649482280
25,16,17,Jits_Phase_5,0,5,56,103,1649922332
25,16,17,Jits_Phase_5,1,5,63,98,1649931632
25,16,17,Jits_Phase_5,2,1,48,34,1649947180
25,16,17,Jits_Phase_5,3,5,80,127,1649971708
25,16,17,Jits_Phase_5,0,5,56,103,1650382164
25,16,17,Jits_Phase_5,1,5,80,127,1650412136
25,16,17,Jits_Phase_5,2,1,48,37,1650419836
25,16,17,Jits_Phase_5,3,5,63,98,1650462256
25,16,17,Jits_Phase_5,0,1,48,34,1650916876
25,16,17,Jits_Phase_5,1,5,56,103,1650921928
25,16,17,Jits_Phase_5,2,5,63,98,1650961716
25,16,17,Jits_Phase_5,3,5,80,127,1650965080
25,16,17,Jits_Phase_5,0,5,56,103,1651421532
25,16,17,Jits_Phase_5,1,1,48,39,1651428464
25,16,17,Jits_Phase_5,2,5,63,98,1651431720
25,16,17,Jits_Phase_5,3,5,80,127,1651452252
25,16,17,Jits_Phase_5,0,5,56,103,1651882332
25,16,17,Jits_Phase_5,1,5,80,127,1651885252
25,16,17,Jits_Phase_5,2,5,63,98,1651922268
25,16,17,Jits_Phase_5,3,1,48,40,1651938640
25,16,17,Jits_Phase_5,0,5,63,98,1652422088
25,16,17,Jits_Phase_5,1,1,48,38,1652433376
25,16,17,Jits_Phase_5,2,5,56,103,1652451608
25,16,17,Jits_Phase_5,3,5,80,127,1652472216
25,16,17,Jits_Phase_5,0,5,80,127,1652891996
25,16,17,Jits_Phase_5,1,5,56,103,1652902216
25,16,17,Jits_Phase_5,2,1,48,38,1652911736
25,16,17,Jits_Phase_5,3,5,63,98,1652913148
25,16,17,Jits_Phase_5,0,5,56,103,1653391756
25,16,17,Jits_Phase_5,1,1,48,39,1653411832
25,16,17,Jits_Phase_5,2,5,80,127,1653431860
25,16,17,Jits_Phase_5,3,5,63,98,1653462284
25,16,17,Jits_Phase_5,0,1,48,35,1653897772
25,16,17,Jits_Phase_5,1,5,63,98,1653901628
25,16,17,Jits_Phase_5,2,5,80,127,1653912048
25,16,17,Jits_Phase_5,3,5,56,103,1653922120
25,16,17,Jits_Phase_5,0,1,48,41,1654389720
25,16,17,Jits_Phase_5,1,5,56,103,1654392232
25,16,17,Jits_Phase_5,2,5,63,98,1654461864
25,16,17,Jits_Phase_5,3,5,80,127,1654472060
25,16,17,Jits_Phase_5,0,5,80,127,1654902180
25,16,17,Jits_Phase_5,1,1,48,44,1654912152
25,16,17,Jits_Phase_5,2,5,56,103,1654913788
25,16,17,Jits_Phase_5,3,5,63,98,1654961696
25,16,17,Jits_Phase_5,0,1,48,43,1655397780
25,16,17,Jits_Phase_5,1,5,80,127,1655412048
25,16,17,Jits_Phase_5,2,5,56,103,1655471340
25,16,17,Jits_Phase_5,3,5,63,98,1655502196
25,16,17,Jits_Phase_5,0,5,56,103,1655911728
25,16,17,Jits_Phase_5,1,5,80,127,1655914944
25,16,17,Jits_Phase_5,2,1,48,45,1655938588
25,16,17,Jits_Phase_5,3,5,63,98,1655951660
25,16,17,Jits_Phase_5,0,5,56,103,1656442196
25,16,17,Jits_Phase_5,1,1,48,45,1656450272
25,16,17,Jits_Phase_5,2,5,63,98,1656472016
25,16,17,Jits_Phase_5,3,5,80,127,1656482088
25,16,17,Jits_Phase_5,0,1,48,48,1656930476
25,16,17,Jits_Phase_5,1,5,63,98,1656952144
25,16,17,Jits_Phase_5,2,5,80,127,1656962268
25,16,17,Jits_Phase_5,3,5,56,103,1656971788
25,16,17,Jits_Phase_5,0,5,80,127,1657401928
25,16,17,Jits_Phase_5,1,1,48,46,1657436660
25,16,17,Jits_Phase_5,2,5,56,103,1657452044
25,16,17,Jits_Phase_5,3,5,63,98,1657455188
25,16,17,Jits_Phase_5,0,5,56,103,1657932024
25,16,17,Jits_Phase_5,1,5,80,127,1657951736
25,16,17,Jits_Phase_5,2,1,48,45,1657957920
25,16,17,Jits_Phase_5,3,5,63,98,1657961996
25,16,17,Jits_Phase_5,0,5,63,98,1658412456
25,16,17,Jits_Phase_5,1,5,56,103,1658442056
25,16,17,Jits_Phase_5,2,1,48,48,1658454168
25,16,17,Jits_Phase_5,3,5,80,127,1658461760
25,16,17,Jits_Phase_5,0,1,48,43,1658907144
25,16,17,Jits_Phase_5,1,5,56,103,1658922460
25,16,17,Jits_Phase_5,2,5,80,127,1658931756
25,16,17,Jits_Phase_5,3,5,63,98,1659002096
25,16,17,Jits_Phase_5,0,5,63,98,1659411804
25,16,17,Jits_Phase_5,1,1,48,46,1659417092
25,16,17,Jits_Phase_5,2,5,80,127,1659451660
25,16,17,Jits_Phase_5,3,5,56,103,1659491672
25,16,17,Jits_Phase_5,0,1,48,51,1659902452
25,16,17,Jits_Phase_5,1,5,56,103,1659921880
25,16,17,Jits_Phase_5,2,5,63,98,1659932152
25,16,17,Jits_Phase_5,3,5,80,127,1659951636
25,16,17,Jits_Phase_5,0,1,48,45,1660430976
25,16,17,Jits_Phase_5,1,5,63,98,1660461564
25,16,17,Jits_Phase_5,2,5,80,127,1660481876
25,16,17,Jits_Phase_5,3,5,56,103,1660502336
25,16,17,Jits_Phase_5,0,5,56,103,1660901840
25,16,17,Jits_Phase_5,1,1,48,41,1660941376
25,16,17,Jits_Phase_5,2,5,80,127,1660981776
25,16,17,Jits_Phase_5,3,5,63,98,1660991748
25,16,17,Jits_Phase_5,0,5,80,127,1661442660
25,16,17,Jits_Phase_5,1,5,63,98,1661451736
25,16,17,Jits_Phase_5,2,1,48,43,1661454780
25,16,17,Jits_Phase_5,3,5,56,103,1661482300
25,16,17,Jits_Phase_5,0,5,63,98,1661902340
25,16,17,Jits_Phase_5,1,1,48,45,1661928828
25,16,17,Jits_Phase_5,2,5,80,127,1661942048
25,16,17,Jits_Phase_5,3,5,56,103,1662001540
25,16,17,Jits_Phase_5,0,5,63,98,1662412056
25,16,17,Jits_Phase_5,1,1,48,46,1662430840
25,16,17,Jits_Phase_5,2,5,56,103,1662462252
25,16,17,Jits_Phase_5,3,5,80,127,1662491924
25,16,17,Jits_Phase_5,0,5,80,127,1662911812
25,16,17,Jits_Phase_5,1,5,63,98,1662922156
25,16,17,Jits_Phase_5,2,1,48,44,1662935316
25,16,17,Jits_Phase_5,3,5,56,103,1662991604
25,16,17,Jits_Phase_5,0,1,48,46,1663443912
25,16,17,Jits_Phase_5,1,5,80,127,1663471960
25,16,17,Jits_Phase_5,2,5,56,103,1663482156
25,16,17,Jits_Phase_5,3,5,63,98,1663485444
25,16,17,Jits_Phase_5,0,5,56,103,1663912524
25,16,17,Jits_Phase_5,1,5,80,127,1663931712
25,16,17,Jits_Phase_5,2,5,63,98,1663942132
25,16,17,Jits_Phase_5,3,1,48,45,1663949064
25,16,17,Jits_Phase_5,0,1,48,42,1664401000
25,16,17,Jits_Phase_5,1,5,63,98,1664422472
25,16,17,Jits_Phase_5,2,5,56,103,1664462184
25,16,17,Jits_Phase_5,3,5,80,127,1664481672
25,16,17,Jits_Phase_5,0,5,63,98,1664921980
25,16,17,Jits_Phase_5,1,1,48,36,1664934268
25,16,17,Jits_Phase_5,2,5,56,103,1664982392
25,16,17,Jits_Phase_5,3,5,80,127,1664985384
25,16,17,Jits_Phase_5,0,5,56,103,1665381716
25,16,17,Jits_Phase_5,1,5,80,127,1665402396
25,16,17,Jits_Phase_5,2,5,63,98,1665442356
25,16,17,Jits_Phase_5,3,1,48,40,1665445848
25,16,17,Jits_Phase_5,0,5,56,103,1665912120
25,16,17,Jits_Phase_5,1,1,48,36,1665918380
25,16,17,Jits_Phase_5,2,5,63,98,1665931748
25,16,17,Jits_Phase_5,3,5,80,127,1665942316
25,16,17,Jits_Phase_5,0,5,80,127,1666382436
25,16,17,Jits_Phase_5,1,1,48,37,1666408248
25,16,17,Jits_Phase_5,2,5,56,103,1666411956
25,16,17,Jits_Phase_5,3,5,63,98,1666451816
25,16,17,Jits_Phase_5,0,1,48,32,1666885984
25,16,17,Jits_Phase_5,1,5,80,127,1666892304
25,16,17,Jits_Phase_5,2,5,56,103,1666911568
25,16,17,Jits_Phase_5,3,5,63,98,1666972176
25,16,17,Jits_Phase_5,0,1,48,46,1667398840
25,16,17,Jits_Phase_5,1,5,56,103,1667402168
25,16,17,Jits_Phase_5,2,5,80,127,1667421656
25,16,17,Jits_Phase_5,3,5,63,98,1667482040
25,16,17,Jits_Phase_5,0,5,80,127,1667882516
25,16,17,Jits_Phase_5,1,1,48,48,1667889076
25,16,17,Jits_Phase_5,2,5,56,103,1667891660
25,16,17,Jits_Phase_5,3,5,63,98,1667931448
25,16,17,Jits_Phase_5,0,5,63,98,1668382128
25,16,17,Jits_Phase_5,1,1,48,45,1668403236
25,16,17,Jits_Phase_5,2,5,56,103,1668422280
25,16,17,Jits_Phase_5,3,5,80,127,1668425200
25,16,17,Jits_Phase_5,0,1,48,46,1668889536
25,16,17,Jits_Phase_5,1,5,63,98,1668902460
25,16,17,Jits_Phase_5,2,5,80,127,1668942252
25,16,17,Jits_Phase_5,3,5,56,103,1668972072
25,16,17,Jits_Phase_5,0,5,56,103,1669391660
25,16,17,Jits_Phase_5,1,5,63,98,1669402076
25,16,17,Jits_Phase_5,2,5,80,127,1669431528
25,16,17,Jits_Phase_5,3,1,48,37,1669452180
25,16,17,Jits_Phase_5,0,5,80,127,1669882204
25,16,17,Jits_Phase_5,1,1,48,39,1669911624
25,16,17,Jits_Phase_5,2,5,63,98,1669951728
25,16,17,Jits_Phase_5,3,5,56,103,1669962220
25,16,17,Jits_Phase_5,0,5,63,98,1670382264
25,16,17,Jits_Phase_5,1,1,48,44,1670416320
25,16,17,Jits_Phase_5,2,5,56,103,1670451488
25,16,17,Jits_Phase_5,3,5,80,127,1670461760
25,16,17,Jits_Phase_5,0,5,63,98,1670862236
25,16,17,Jits_Phase_5,1,5,56,103,1670881652
25,16,17,Jits_Phase_5,2,1,48,38,1670907916
25,16,17,Jits_Phase_5,3,5,80,127,1670921728
25,16,17,Jits_Phase_5,0,5,56,103,1671341388
25,16,17,Jits_Phase_5,1,5,63,98,1671351808
25,16,17,Jits_Phase_5,2,1,48,45,1671364896
25,16,17,Jits_Phase_5,3,5,80,127,1671431592
25,16,17,Jits_Phase_5,0,5,63,98,1671832060
25,16,17,Jits_Phase_5,1,5,56,103,1671861612
25,16,17,Jits_Phase_5,2,1,48,45,1671888172
25,16,17,Jits_Phase_5,3,5,80,127,1671901540
25,16,17,Jits_Phase_5,0,5,56,103,1672331584
25,16,17,Jits_Phase_5,1,1,48,46,1672347360
25,16,17,Jits_Phase_5,2,5,63,98,1672371692
25,16,17,Jits_Phase_5,3,5,80,127,1672411476
25,16,17,Jits_Phase_5,0,5,80,127,1672832396
25,16,17,Jits_Phase_5,1,1,48,39,1672837608
25,16,17,Jits_Phase_5,2,5,56,103,1672912280
25,16,17,Jits_Phase_5,3,5,63,98,1672921356
25,16,17,Jits_Phase_5,0,1,48,38,1673307324
25,16,17,Jits_Phase_5,1,5,56,103,1673372084
25,16,17,Jits_Phase_5,2,5,63,98,1673375224
25,16,17,Jits_Phase_5,3,5,80,127,1673382228
25,16,17,Jits_Phase_5,0,1,48,29,1673838668
25,16,17,Jits_Phase_5,1,5,56,103,1673892144
25,16,17,Jits_Phase_5,2,5,63,98,1673911632
25,16,17,Jits_Phase_5,3,5,80,127,1673922200
25,16,17,Jits_Phase_5,0,1,48,37,1674309124
25,16,17,Jits_Phase_5,1,5,63,98,1674352016
25,16,17,Jits_Phase_5,2,5,80,127,1674362212
25,16,17,Jits_Phase_5,3,5,56,103,1674381700
25,16,17,Jits_Phase_5,0,1,48,37,1674806336
25,16,17,Jits_Phase_5,1,5,63,98,1674851692
25,16,17,Jits_Phase_5,2,5,56,103,1674931496
25,16,17,Jits_Phase_5,3,5,80,127,1674934640
25,16,17,Jits_Phase_5,0,1,48,36,1675313428
25,16,17,Jits_Phase_5,1,5,63,98,1675352336
25,16,17,Jits_Phase_5,2,5,56,103,1675372048
25,16,17,Jits_Phase_5,3,5,80,127,1675401720
25,16,17,Jits_Phase_5,0,1,48,37,1675808372
25,16,17,Jits_Phase_5,1,5,56,103,1675852236
25,16,17,Jits_Phase_5,2,5,63,98,1675871500
25,16,17,Jits_Phase_5,3,5,80,127,1675881768
25,16,17,Jits_Phase_5,0,1,48,39,1676311428
25,16,17,Jits_Phase_5,1,5,56,103,1676381504
25,16,17,Jits_Phase_5,2,5,63,98,1676412208
25,16,17,Jits_Phase_5,3,5,80,127,1676415720
25,16,17,Jits_Phase_5,0,1,48,43,1676797824
25,16,17,Jits_Phase_5,1,5,56,103,1676842360
25,16,17,Jits_Phase_5,2,5,63,98,1676882300
25,16,17,Jits_Phase_5,3,5,80,127,1676941624
25,16,17,Jits_Phase_5,0,1,48,38,1677311300
25,16,17,Jits_Phase_5,1,5,56,103,1677361444
25,16,17,Jits_Phase_5,2,5,63,98,1677372012
25,16,17,Jits_Phase_5,3,5,80,127,1677432160
25,16,17,Jits_Phase_5,0,1,48,36,1677827600
25,16,17,Jits_Phase_5,1,5,56,103,1677862244
25,16,17,Jits_Phase_5,2,5,80,127,1677881880
25,16,17,Jits_Phase_5,3,5,63,98,1677912376
25,16,17,Jits_Phase_5,0,1,48,36,1678349608
25,16,17,Jits_Phase_5,1,5,80,127,1678362064
25,16,17,Jits_Phase_5,2,5,56,103,1678372184
25,16,17,Jits_Phase_5,3,5,63,98,1678391816
25,16,17,Jits_Phase_5,0,5,63,98,1678851328
25,16,17,Jits_Phase_5,1,1,48,38,1678867996
25,16,17,Jits_Phase_5,2,5,80,127,1678932456
25,16,17,Jits_Phase_5,3,5,56,103,1678941608
25,16,17,Jits_Phase_5,0,1,48,33,1679331940
25,16,17,Jits_Phase_5,1,5,80,127,1679442304
25,16,17,Jits_Phase_5,2,5,56,103,1679461864
25,16,17,Jits_Phase_5,3,5,63,98,1679464856
25,16,17,Jits_Phase_5,0,1,48,40,1679855572
25,16,17,Jits_Phase_5,1,5,63,98,1679931948
25,16,17,Jits_Phase_5,2,5,80,127,1679935312
25,16,17,Jits_Phase_5,3,5,56,103,1679992316
25,16,17,Jits_Phase_5,0,1,48,39,1680380572
25,16,17,Jits_Phase_5,1,5,56,103,1680411988
25,16,17,Jits_Phase_5,2,5,80,127,1680422332
25,16,17,Jits_Phase_5,3,5,63,98,1680462192
25,16,17,Jits_Phase_5,0,5,56,103,1680892184
25,16,17,Jits_Phase_5,1,1,48,40,1680928788
25,16,17,Jits_Phase_5,2,5,63,98,1680951820
25,16,17,Jits_Phase_5,3,5,80,127,1680961864
25,16,17,Jits_Phase_5,0,5,63,98,1681402284
25,16,17,Jits_Phase_5,1,1,48,38,1681421368
25,16,17,Jits_Phase_5,2,5,80,127,1681442140
25,16,17,Jits_Phase_5,3,5,56,103,1681482004
25,16,17,Jits_Phase_5,0,5,56,103,1681901884
25,16,17,Jits_Phase_5,1,1,48,45,1681924852
25,16,17,Jits_Phase_5,2,5,63,98,1681981892
25,16,17,Jits_Phase_5,3,5,80,127,1681985108
25,16,17,Jits_Phase_5,0,1,48,40,1682440496
25,16,17,Jits_Phase_5,1,5,80,127,1682462016
25,16,17,Jits_Phase_5,2,5,56,103,1682491608
25,16,17,Jits_Phase_5,3,5,63,98,1682494832
25,16,17,Jits_Phase_5,0,5,56,103,1682921908
25,16,17,Jits_Phase_5,1,5,80,127,1682942216
25,16,17,Jits_Phase_5,2,1,48,39,1682966084
25,16,17,Jits_Phase_5,3,5,63,98,1682982148
25,16,17,Jits_Phase_5,0,5,80,127,1683402044
25,16,17,Jits_Phase_5,1,5,63,98,1683421752
25,16,17,Jits_Phase_5,2,1,48,40,1683422720
25,16,17,Jits_Phase_5,3,5,56,103,1683481984
25,16,17,Jits_Phase_5,0,5,63,98,1683911992
25,16,17,Jits_Phase_5,1,5,56,103,1683922264
25,16,17,Jits_Phase_5,2,1,48,42,1683959236
25,16,17,Jits_Phase_5,3,5,80,127,1683971632
25,16,17,Jits_Phase_5,0,5,56,103,1684401700
25,16,17,Jits_Phase_5,1,1,48,37,1684418972
25,16,17,Jits_Phase_5,2,5,63,98,1684422004
25,16,17,Jits_Phase_5,3,5,80,127,1684432272
25,16,17,Jits_Phase_5,0,5,56,103,1684892140
25,16,17,Jits_Phase_5,1,5,63,98,1684895380
25,16,17,Jits_Phase_5,2,5,80,127,1684911724
25,16,17,Jits_Phase_5,3,1,48,45,1684920092
25,16,17,Jits_Phase_5,0,1,48,46,1685422748
25,16,17,Jits_Phase_5,1,5,63,98,1685431540
25,16,17,Jits_Phase_5,2,5,56,103,1685462336
25,16,17,Jits_Phase_5,3,5,80,127,1685491936
25,16,17,Jits_Phase_5,0,5,80,127,1685891636
25,16,17,Jits_Phase_5,1,1,48,44,1685923772
25,16,17,Jits_Phase_5,2,5,56,103,1685981564
25,16,17,Jits_Phase_5,3,5,63,98,1685984704
25,16,17,Jits_Phase_5,0,5,56,103,1686392140
25,16,17,Jits_Phase_5,1,5,80,127,1686395204
25,16,17,Jits_Phase_5,2,1,48,42,1686420660
25,16,17,Jits_Phase_5,3,5,63,98,1686472020
25,16,17,Jits_Phase_5,0,1,48,40,1686886464
25,16,17,Jits_Phase_5,1,5,80,127,1686891884
25,16,17,Jits_Phase_5,2,5,63,98,1686952596
25,16,17,Jits_Phase_5,3,5,56,103,1686981960
25,16,17,Jits_Phase_5,0,1,48,41,1687383360
25,16,17,Jits_Phase_5,1,5,63,98,1687391704
25,16,17,Jits_Phase_5,2,5,80,127,1687401824
25,16,17,Jits_Phase_5,3,5,56,103,1687471672
25,16,17,Jits_Phase_5,0,1,48,41,1687906700
25,16,17,Jits_Phase_5,1,5,56,103,1687951684
25,16,17,Jits_Phase_5,2,5,80,127,1687981456
25,16,17,Jits_Phase_5,3,5,63,98,1688031640
25,16,17,Jits_Phase_5,0,1,48,40,1688411916
25,16,17,Jits_Phase_5,1,5,63,98,1688541488
25,16,17,Jits_Phase_5,2,5,56,103,1688572436
25,16,17,Jits_Phase_5,3,5,80,127,1688575576
25,16,17,Jits_Phase_5,0,1,48,41,1688934436
25,16,17,Jits_Phase_5,1,5,63,98,1689051496
25,16,17,Jits_Phase_5,2,5,80,127,1689071956
25,16,17,Jits_Phase_5,3,5,56,103,1689082524
25,16,17,Jits_Phase_5,0,1,48,39,1689524564
25,16,17,Jits_Phase_5,1,5,56,103,1689561368
25,16,17,Jits_Phase_5,2,5,63,98,1689564516
25,16,17,Jits_Phase_5,3,5,80,127,1689581908
25,16,17,Jits_Phase_5,0,5,56,103,1690011876
25,16,17,Jits_Phase_5,1,5,63,98,1690022544
25,16,17,Jits_Phase_5,2,5,80,127,1690051996
25,16,17,Jits_Phase_5,3,1,48,44,1690080740
25,16,17,Jits_Phase_5,0,5,63,98,1690532332
25,16,17,Jits_Phase_5,1,5,80,127,1690551596
25,16,17,Jits_Phase_5,2,5,56,103,1690591536
25,16,17,Jits_Phase_5,3,1,48,44,1690608056
25,16,17,Jits_Phase_5,0,5,56,103,1691061604
25,16,17,Jits_Phase_5,1,1,48,39,1691094012
25,16,17,Jits_Phase_5,2,5,63,98,1691101532
25,16,17,Jits_Phase_5,3,5,80,127,1691104896
25,16,17,Jits_Phase_5,0,5,80,127,1691502072
25,16,17,Jits_Phase_5,1,5,56,103,1691541936
25,16,17,Jits_Phase_5,2,5,63,98,1691592160
25,16,17,Jits_Phase_5,3,1,48,42,1691596400
25,16,17,Jits_Phase_5,0,5,56,103,1692062064
25,16,17,Jits_Phase_5,1,5,80,127,1692072408
25,16,17,Jits_Phase_5,2,5,63,98,1692102084
25,16,17,Jits_Phase_5,3,1,48,46,1692122140
25,16,17,Jits_Phase_5,0,5,56,103,1692511536
25,16,17,Jits_Phase_5,1,5,80,127,1692551548
25,16,17,Jits_Phase_5,2,5,63,98,1692601844
25,16,17,Jits_Phase_5,3,1,48,41,1692631636
25,16,17,Jits_Phase_5,0,5,56,103,1693021712
25,16,17,Jits_Phase_5,1,5,80,127,1693061428
25,16,17,Jits_Phase_5,2,5,63,98,1693111724
25,16,17,Jits_Phase_5,3,1,48,38,1693124960
25,16,17,Jits_Phase_5,0,5,80,127,1693512256
25,16,17,Jits_Phase_5,1,5,63,98,1693591976
25,16,17,Jits_Phase_5,2,5,56,103,1693602348
25,16,17,Jits_Phase_5,3,1,48,43,1693665092
25,16,17,Jits_Phase_5,0,5,80,127,1694062144
25,16,17,Jits_Phase_5,1,5,56,103,1694072188
25,16,17,Jits_Phase_5,2,5,63,98,1694091528
25,16,17,Jits_Phase_5,3,1,48,38,1694138412
25,16,17,Jits_Phase_5,0,5,63,98,1694532240
25,16,17,Jits_Phase_5,1,5,56,103,1694601696
25,16,17,Jits_Phase_5,2,5,80,127,1694604612
25,16,17,Jits_Phase_5,3,1,48,42,1694608408
25,16,17,Jits_Phase_5,0,5,80,127,1695021420
25,16,17,Jits_Phase_5,1,5,63,98,1695071548
25,16,17,Jits_Phase_5,2,1,48,36,1695077204
25,16,17,Jits_Phase_5,3,5,56,103,1695111400
25,16,17,Jits_Phase_5,0,5,63,98,1695562240
25,16,17,Jits_Phase_5,1,1,48,45,1695571288
25,16,17,Jits_Phase_5,2,5,56,103,1695602172
25,16,17,Jits_Phase_5,3,5,80,127,1695612216
25,16,17,Jits_Phase_5,0,1,48,42,1696015584
25,16,17,Jits_Phase_5,1,5,63,98,1696051424
25,16,17,Jits_Phase_5,2,5,56,103,1696072256
25,16,17,Jits_Phase_5,3,5,80,127,1696091368
25,16,17,Jits_Phase_5,0,5,80,127,1696512296
25,16,17,Jits_Phase_5,1,1,48,39,1696518628
25,16,17,Jits_Phase_5,2,5,56,103,1696521660
25,16,17,Jits_Phase_5,3,5,63,98,1696542192
25,16,17,Jits_Phase_5,0,1,48,38,1697017256
25,16,17,Jits_Phase_5,1,5,63,98,1697042084
25,16,17,Jits_Phase_5,2,5,56,103,1697081800
25,16,17,Jits_Phase_5,3,5,80,127,1697112356
25,16,17,Jits_Phase_5,0,5,56,103,1697501612
25,16,17,Jits_Phase_5,1,1,48,43,1697530516
25,16,17,Jits_Phase_5,2,5,63,98,1697532252
25,16,17,Jits_Phase_5,3,5,80,127,1697561928
25,16,17,Jits_Phase_5,0,5,80,127,1697922396
25,16,17,Jits_Phase_5,1,5,56,103,1697992248
25,16,17,Jits_Phase_5,2,5,63,98,1697995388
25,16,17,Jits_Phase_5,3,1,48,42,1698019332
25,16,17,Jits_Phase_5,0,5,56,103,1698432412
25,16,17,Jits_Phase_5,1,5,63,98,1698481592
25,16,17,Jits_Phase_5,2,5,80,127,1698512236
25,16,17,Jits_Phase_5,3,1,48,39,1698519188
25,16,17,Jits_Phase_5,0,5,63,98,1698911944
25,16,17,Jits_Phase_5,1,5,80,127,1698915156
25,16,17,Jits_Phase_5,2,1,48,40,1698962784
25,16,17,Jits_Phase_5,3,5,56,103,1698971948
25,16,17,Jits_Phase_5,0,1,48,38,1699411176
25,16,17,Jits_Phase_5,1,5,56,103,1699441992
25,16,17,Jits_Phase_5,2,5,80,127,1699452408
25,16,17,Jits_Phase_5,3,5,63,98,1699501288
25,16,17,Jits_Phase_5,0,1,48,44,1699897128
25,16,17,Jits_Phase_5,1,5,63,98,1699911996
25,16,17,Jits_Phase_5,2,5,56,103,1699922196
25,16,17,Jits_Phase_5,3,5,80,127,1699951940
25,16,17,Jits_Phase_5,0,1,48,38,1700419492
25,16,17,Jits_Phase_5,1,5,63,98,1700441480
25,16,17,Jits_Phase_5,2,5,80,127,1700444996
25,16,17,Jits_Phase_5,3,5,56,103,1700472276
25,16,17,Jits_Phase_5,0,1,48,44,1700906872
25,16,17,Jits_Phase_5,1,5,63,98,1700961528
25,16,17,Jits_Phase_5,2,5,56,103,1700982132
25,16,17,Jits_Phase_5,3,5,80,127,1700985200
25,16,17,Jits_Phase_5,0,1,48,44,1701401156
25,16,17,Jits_Phase_5,1,5,63,98,1701421484
25,16,17,Jits_Phase_5,2,5,56,103,1701492060
25,16,17,Jits_Phase_5,3,5,80,127,1701511752
25,16,17,Jits_Phase_5,0,1,48,45,1701895360
25,16,17,Jits_Phase_5,1,5,56,103,1701911944
25,16,17,Jits_Phase_5,2,5,63,98,1701922212
25,16,17,Jits_Phase_5,3,5,80,127,1702012248
25,16,17,Jits_Phase_5,0,1,48,38,1702400580
25,16,17,Jits_Phase_5,1,5,56,103,1702432216
25,16,17,Jits_Phase_5,2,5,80,127,1702472152
25,16,17,Jits_Phase_5,3,5,63,98,1702482424
25,16,17,Jits_Phase_5,0,1,48,38,1702897916
25,16,17,Jits_Phase_5,1,5,56,103,1702952192
25,16,17,Jits_Phase_5,2,5,63,98,1702981940
25,16,17,Jits_Phase_5,3,5,80,127,1703011972
25,16,17,Jits_Phase_5,0,1,48,41,1703409972
25,16,17,Jits_Phase_5,1,5,80,127,1703412012
25,16,17,Jits_Phase_5,2,5,63,98,1703452024
25,16,17,Jits_Phase_5,3,5,56,103,1703471360
25,16,17,Jits_Phase_5,0,1,48,45,1703897192
25,16,17,Jits_Phase_5,1,5,56,103,1703951912
25,16,17,Jits_Phase_5,2,5,80,127,1703972148
25,16,17,Jits_Phase_5,3,5,63,98,1703991932
25,16,17,Jits_Phase_5,0,5,63,98,1704421856
25,16,17,Jits_Phase_5,1,1,48,40,1704422820
25,16,17,Jits_Phase_5,2,5,56,103,1704431968
25,16,17,Jits_Phase_5,3,5,80,127,1704492432
25,16,17,Jits_Phase_5,0,1,48,46,1704897664
25,16,17,Jits_Phase_5,1,5,56,103,1704921444
25,16,17,Jits_Phase_5,2,5,63,98,1704992084
25,16,17,Jits_Phase_5,3,5,80,127,1705011720
25,16,17,Jits_Phase_5,0,5,56,103,1705422328
25,16,17,Jits_Phase_5,1,1,48,43,1705429040
25,16,17,Jits_Phase_5,2,5,63,98,1705451848
25,16,17,Jits_Phase_5,3,5,80,127,1705491856
25,16,17,Jits_Phase_5,0,5,63,98,1705911676
25,16,17,Jits_Phase_5,1,1,48,43,1705926328
25,16,17,Jits_Phase_5,2,5,56,103,1705961724
25,16,17,Jits_Phase_5,3,5,80,127,1705972216
25,16,17,Jits_Phase_5,0,1,48,47,1706431244
25,16,17,Jits_Phase_5,1,5,56,103,1706452320
25,16,17,Jits_Phase_5,2,5,63,98,1706501772
25,16,17,Jits_Phase_5,3,5,80,127,1706511820
25,16,17,Jits_Phase_5,0,5,56,103,1706931552
25,16,17,Jits_Phase_5,1,1,48,48,1706940996
25,16,17,Jits_Phase_5,2,5,63,98,1706942864
25,16,17,Jits_Phase_5,3,5,80,127,1707021680
25,16,17,Jits_Phase_5,0,9999,9999,9999,1622659164
25,16,17,Jits_Phase_5,1,9999,9999,9999,1623159920
25,16,17,Jits_Phase_5,2,9999,9999,9999,1623659576
25,16,17,Jits_Phase_5,3,9999,9999,9999,1624159300
25,16,17,Jits_Phase_5,4,9999,9999,9999,1624660044
25,16,17,Jits_Phase_5,5,9999,9999,9999,1625159736
25,16,17,Jits_Phase_5,6,9999,9999,9999,1625659484
25,16,17,Jits_Phase_5,7,9999,9999,9999,1626159172
25,16,17,Jits_Phase_5,8,9999,9999,9999,1626659908
25,16,17,Jits_Phase_5,9,9999,9999,9999,1627159676
25,16,17,Jits_Phase_5,10,9999,9999,9999,1627659364
25,16,17,Jits_Phase_5,11,9999,9999,9999,1628160104
25,16,17,Jits_Phase_5,12,9999,9999,9999,1628670040
25,16,17,Jits_Phase_5,13,9999,9999,9999,1629169788
25,16,17,Jits_Phase_5,14,9999,9999,9999,1629669460
25,16,17,Jits_Phase_5,15,9999,9999,9999,1630169152
25,16,17,Jits_Phase_5,16,9999,9999,9999,1630669884
25,16,17,Jits_Phase_5,17,9999,9999,9999,1631169632
25,16,17,Jits_Phase_5,18,9999,9999,9999,1631669320
25,16,17,Jits_Phase_5,19,9999,9999,9999,1632170056
25,16,17,Jits_Phase_5,20,9999,9999,9999,1632669796
25,16,17,Jits_Phase_5,21,9999,9999,9999,1633169480
25,16,17,Jits_Phase_5,22,9999,9999,9999,1633669240
25,16,17,Jits_Phase_5,23,9999,9999,9999,1634169980
25,16,17,Jits_Phase_5,24,9999,9999,9999,1634669672
25,16,17,Jits_Phase_5,25,9999,9999,9999,1635169356
25,16,17,Jits_Phase_5,26,9999,9999,9999,1635670100
25,16,17,Jits_Phase_5,27,9999,9999,9999,1636180028
25,16,17,Jits_Phase_5,28,9999,9999,9999,1636679796
25,16,17,Jits_Phase_5,29,9999,9999,9999,1637179484
25,16,17,Jits_Phase_5,30,9999,9999,9999,1637669956
25,16,17,Jits_Phase_5,31,9999,9999,9999,1638169724
25,16,17,Jits_Phase_5,32,9999,9999,9999,1638669416
25,16,17,Jits_Phase_5,33,9999,9999,9999,1639169108
25,16,17,Jits_Phase_5,34,9999,9999,9999,1639669840
25,16,17,Jits_Phase_5,35,9999,9999,9999,1640169532
25,16,17,Jits_Phase_5,36,9999,9999,9999,1640669268
25,16,17,Jits_Phase_5,37,9999,9999,9999,1641169988
25,16,17,Jits_Phase_5,38,9999,9999,9999,1641669748
25,16,17,Jits_Phase_5,39,9999,9999,9999,1642169424
25,16,17,Jits_Phase_5,40,9999,9999,9999,1642669176
25,16,17,Jits_Phase_5,41,9999,9999,9999,1643169904
25,16,17,Jits_Phase_5,42,9999,9999,9999,1643669568
25,16,17,Jits_Phase_5,43,9999,9999,9999,1644169316
25,16,17,Jits_Phase_5,44,9999,9999,9999,1644670032
25,16,17,Jits_Phase_5,45,9999,9999,9999,1645169780
25,16,17,Jits_Phase_5,46,9999,9999,9999,1645669452
25,16,17,Jits_Phase_5,47,9999,9999,9999,1646169208
25,16,17,Jits_Phase_5,48,9999,9999,9999,1646679148
25,16,17,Jits_Phase_5,49,9999,9999,9999,1647179892
25,16,17,Jits_Phase_5,50,9999,9999,9999,1647679556
25,16,17,Jits_Phase_5,51,9999,9999,9999,1648179320
25,16,17,Jits_Phase_5,52,9999,9999,9999,1648680056
25,16,17,Jits_Phase_5,53,9999,9999,9999,1649179748
25,16,17,Jits_Phase_5,54,9999,9999,9999,1649679420
25,16,17,Jits_Phase_5,55,9999,9999,9999,1650179188
25,16,17,Jits_Phase_5,56,9999,9999,9999,1650679924
25,16,17,Jits_Phase_5,57,9999,9999,9999,1651179604
25,16,17,Jits_Phase_5,58,9999,9999,9999,1651679352
25,16,17,Jits_Phase_5,59,9999,9999,9999,1652180076
25,16,17,Jits_Phase_5,60,9999,9999,9999,1652679764
25,16,17,Jits_Phase_5,61,9999,9999,9999,1653179512
25,16,17,Jits_Phase_5,62,9999,9999,9999,1653679200
25,16,17,Jits_Phase_5,63,9999,9999,9999,1654179932
25,16,17,Jits_Phase_5,64,9999,9999,9999,1654699088
25,16,17,Jits_Phase_5,65,9999,9999,9999,1655199856
25,16,17,Jits_Phase_5,66,9999,9999,9999,1655699548
25,16,17,Jits_Phase_5,67,9999,9999,9999,1656199284
25,16,17,Jits_Phase_5,68,9999,9999,9999,1656700024
25,16,17,Jits_Phase_5,69,9999,9999,9999,1657199712
25,16,17,Jits_Phase_5,70,9999,9999,9999,1657699448
25,16,17,Jits_Phase_5,71,9999,9999,9999,1658199140
25,16,17,Jits_Phase_5,72,9999,9999,9999,1658699872
25,16,17,Jits_Phase_5,73,9999,9999,9999,1659199548
25,16,17,Jits_Phase_5,74,9999,9999,9999,1659699296
25,16,17,Jits_Phase_5,75,9999,9999,9999,1660200016
25,16,17,Jits_Phase_5,76,9999,9999,9999,1660699772
25,16,17,Jits_Phase_5,77,9999,9999,9999,1661199448
25,16,17,Jits_Phase_5,78,9999,9999,9999,1661699140
25,16,17,Jits_Phase_5,79,9999,9999,9999,1662199872
25,16,17,Jits_Phase_5,80,9999,9999,9999,1662699628
25,16,17,Jits_Phase_5,81,9999,9999,9999,1663179900
25,16,17,Jits_Phase_5,82,9999,9999,9999,1663679592
25,16,17,Jits_Phase_5,83,9999,9999,9999,1664179268
25,16,17,Jits_Phase_5,84,9999,9999,9999,1664680008
25,16,17,Jits_Phase_5,85,9999,9999,9999,1665179732
25,16,17,Jits_Phase_5,86,9999,9999,9999,1665679468
25,16,17,Jits_Phase_5,87,9999,9999,9999,1666179160
25,16,17,Jits_Phase_5,88,9999,9999,9999,1666679892
25,16,17,Jits_Phase_5,89,9999,9999,9999,1667179580
25,16,17,Jits_Phase_5,90,9999,9999,9999,1667679328
25,16,17,Jits_Phase_5,91,9999,9999,9999,1668180048
25,16,17,Jits_Phase_5,92,9999,9999,9999,1668679800
25,16,17,Jits_Phase_5,93,9999,9999,9999,1669179476
25,16,17,Jits_Phase_5,94,9999,9999,9999,1669679220
25,16,17,Jits_Phase_5,95,9999,9999,9999,1670179960
25,16,17,Jits_Phase_5,96,9999,9999,9999,1670679648
25,16,17,Jits_Phase_5,97,9999,9999,9999,1671129204
25,16,17,Jits_Phase_5,98,9999,9999,9999,1671629928
25,16,17,Jits_Phase_5,99,9999,9999,9999,1672129616
25,16,17,Jits_Phase_5,100,9999,9999,9999,1672629364
25,16,17,Jits_Phase_5,101,9999,9999,9999,1673130100
25,16,17,Jits_Phase_5,102,9999,9999,9999,1673629752
25,16,17,Jits_Phase_5,103,9999,9999,9999,1674129504
25,16,17,Jits_Phase_5,104,9999,9999,9999,1674629180
25,16,17,Jits_Phase_5,105,9999,9999,9999,1675129972
25,16,17,Jits_Phase_5,106,9999,9999,9999,1675629644
25,16,17,Jits_Phase_5,107,9999,9999,9999,1676129392
25,16,17,Jits_Phase_5,108,9999,9999,9999,1676630112
25,16,17,Jits_Phase_5,109,9999,9999,9999,1677140048
25,16,17,Jits_Phase_5,110,9999,9999,9999,1677639800
25,16,17,Jits_Phase_5,111,9999,9999,9999,1678139476
25,16,17,Jits_Phase_5,112,9999,9999,9999,1678639220
25,16,17,Jits_Phase_5,113,9999,9999,9999,1679139940
25,16,17,Jits_Phase_5,114,9999,9999,9999,1679689808
25,16,17,Jits_Phase_5,115,9999,9999,9999,1680189548
25,16,17,Jits_Phase_5,116,9999,9999,9999,1680689220
25,16,17,Jits_Phase_5,117,9999,9999,9999,1681190016
25,16,17,Jits_Phase_5,118,9999,9999,9999,1681689700
25,16,17,Jits_Phase_5,119,9999,9999,9999,1682189368
25,16,17,Jits_Phase_5,120,9999,9999,9999,1682689128
25,16,17,Jits_Phase_5,121,9999,9999,9999,1683189848
25,16,17,Jits_Phase_5,122,9999,9999,9999,1683689536
25,16,17,Jits_Phase_5,123,9999,9999,9999,1684189296
25,16,17,Jits_Phase_5,124,9999,9999,9999,1684690012
25,16,17,Jits_Phase_5,125,9999,9999,9999,1685189760
25,16,17,Jits_Phase_5,126,9999,9999,9999,1685689448
25,16,17,Jits_Phase_5,127,9999,9999,9999,1686189112
25,16,17,Jits_Phase_5,128,9999,9999,9999,1686689912
25,16,17,Jits_Phase_5,129,9999,9999,9999,1687189576
25,16,17,Jits_Phase_5,130,9999,9999,9999,1687689312
25,16,17,Jits_Phase_5,131,9999,9999,9999,1688289396
25,16,17,Jits_Phase_5,132,9999,9999,9999,1688790116
25,16,17,Jits_Phase_5,133,9999,9999,9999,1689300052
25,16,17,Jits_Phase_5,134,9999,9999,9999,1689799796
25,16,17,Jits_Phase_5,135,9999,9999,9999,1690299464
25,16,17,Jits_Phase_5,136,9999,9999,9999,1690799228
25,16,17,Jits_Phase_5,137,9999,9999,9999,1691299944
25,16,17,Jits_Phase_5,138,9999,9999,9999,1691799680
25,16,17,Jits_Phase_5,139,9999,9999,9999,1692299340
25,16,17,Jits_Phase_5,140,9999,9999,9999,1692800076
25,16,17,Jits_Phase_5,141,9999,9999,9999,1693310028
25,16,17,Jits_Phase_5,142,9999,9999,9999,1693809720
25,16,17,Jits_Phase_5,143,9999,9999,9999,1694309484
25,16,17,Jits_Phase_5,144,9999,9999,9999,1694809164
25,16,17,Jits_Phase_5,145,9999,9999,9999,1695309888
25,16,17,Jits_Phase_5,146,9999,9999,9999,1695809656
25,16,17,Jits_Phase_5,147,9999,9999,9999,1696309332
25,16,17,Jits_Phase_5,148,9999,9999,9999,1696810044
25,16,17,Jits_Phase_5,149,9999,9999,9999,1697309808
25,16,17,Jits_Phase_5,150,9999,9999,9999,1697709176
25,16,17,Jits_Phase_5,151,9999,9999,9999,1698209904
25,16,17,Jits_Phase_5,152,9999,9999,9999,1698709572
25,16,17,Jits_Phase_5,153,9999,9999,9999,1699209288
25,16,17,Jits_Phase_5,154,9999,9999,9999,1699710012
25,16,17,Jits_Phase_5,155,9999,9999,9999,1700209756
25,16,17,Jits_Phase_5,156,9999,9999,9999,1700709492
25,16,17,Jits_Phase_5,157,9999,9999,9999,1701209160
25,16,17,Jits_Phase_5,158,9999,9999,9999,1701709880
25,16,17,Jits_Phase_5,159,9999,9999,9999,1702209628
25,16,17,Jits_Phase_5,160,9999,9999,9999,1702709304
25,16,17,Jits_Phase_5,161,9999,9999,9999,1703210100
25,16,17,Jits_Phase_5,162,9999,9999,9999,1703709772
25,16,17,Jits_Phase_5,163,9999,9999,9999,1704209524
25,16,17,Jits_Phase_5,164,9999,9999,9999,1704709196
25,16,17,Jits_Phase_5,165,9999,9999,9999,1705209924
25,16,17,Jits_Phase_5,166,9999,9999,9999,1705709672
25,16,17,Jits_Phase_5,167,9999,9999,9999,1706209356
25,16,17,Jits_Phase_5,168,9999,9999,9999,1706710084
25,16,17,Jits_Phase_5,169,9999,9999,9999,1707220092
25,17,18,Jits_Linear_8,0,5,56,103,1722380788
25,17,18,Jits_Linear_8,1,5,63,98,1722383808
25,17,18,Jits_Linear_8,2,5,80,127,1722387156
25,17,18,Jits_Linear_8,0,5,56,103,1723201096
25,17,18,Jits_Linear_8,1,5,63,98,1723204268
25,17,18,Jits_Linear_8,2,5,80,127,1723207164
25,17,18,Jits_Linear_8,0,5,80,127,1723960808
25,17,18,Jits_Linear_8,1,5,63,98,1724051020
25,17,18,Jits_Linear_8,2,5,56,103,1724061092
25,17,18,Jits_Linear_8,0,5,56,103,1724801440
25,17,18,Jits_Linear_8,1,5,63,98,1724810516
25,17,18,Jits_Linear_8,2,5,80,127,1724900820
25,17,18,Jits_Linear_8,0,5,63,98,1725590824
25,17,18,Jits_Linear_8,1,5,80,127,1725620824
25,17,18,Jits_Linear_8,2,5,56,103,1725651248
25,17,18,Jits_Linear_8,3,1,48,55,1725708984
25,17,18,Jits_Linear_8,0,5,56,103,1726411048
25,17,18,Jits_Linear_8,1,1,48,48,1726442864
25,17,18,Jits_Linear_8,2,5,80,127,1726510320
25,17,18,Jits_Linear_8,3,5,63,98,1726560880
25,17,18,Jits_Linear_8,0,5,56,103,1727221084
25,17,18,Jits_Linear_8,1,5,80,127,1727271140
25,17,18,Jits_Linear_8,2,1,48,51,1727302280
25,17,18,Jits_Linear_8,3,5,63,98,1727311072
25,17,18,Jits_Linear_8,0,1,48,51,1728023212
25,17,18,Jits_Linear_8,1,5,80,127,1728060708
25,17,18,Jits_Linear_8,2,5,63,98,1728090384
25,17,18,Jits_Linear_8,3,5,56,103,1728161124
25,17,18,Jits_Linear_8,0,5,63,98,1728900404
25,17,18,Jits_Linear_8,1,1,48,54,1728905540
25,17,18,Jits_Linear_8,2,5,56,103,1728931368
25,17,18,Jits_Linear_8,3,1,48,27,1728963992
25,17,18,Jits_Linear_8,4,5,80,127,1728990540
25,17,18,Jits_Linear_8,0,5,56,103,1729651124
25,17,18,Jits_Linear_8,1,5,80,127,1729654264
25,17,18,Jits_Linear_8,2,1,48,42,1729742004
25,17,18,Jits_Linear_8,3,5,63,98,1729770796
25,17,18,Jits_Linear_8,0,1,48,39,1730479500
25,17,18,Jits_Linear_8,1,5,56,103,1730530696
25,17,18,Jits_Linear_8,2,5,80,127,1730570784
25,17,18,Jits_Linear_8,3,5,63,98,1730580820
25,17,18,Jits_Linear_8,0,1,48,45,1731242024
25,17,18,Jits_Linear_8,1,5,56,103,1731290672
25,17,18,Jits_Linear_8,2,5,80,127,1731310908
25,17,18,Jits_Linear_8,3,5,63,98,1731390988
25,17,18,Jits_Linear_8,0,5,80,127,1732081212
25,17,18,Jits_Linear_8,1,1,48,47,1732131988
25,17,18,Jits_Linear_8,2,5,56,103,1732181312
25,17,18,Jits_Linear_8,3,5,63,98,1732190608
25,17,18,Jits_Linear_8,0,5,63,98,1732851164
25,17,18,Jits_Linear_8,1,5,80,127,1732910736
25,17,18,Jits_Linear_8,2,1,48,40,1732915428
25,17,18,Jits_Linear_8,3,5,56,103,1732920776
25,17,18,Jits_Linear_8,0,5,56,103,1733650768
25,17,18,Jits_Linear_8,1,1,48,50,1733664444
25,17,18,Jits_Linear_8,2,5,63,98,1733720592
25,17,18,Jits_Linear_8,3,5,80,127,1733723880
25,17,18,Jits_Linear_8,0,1,48,49,1734404928
25,17,18,Jits_Linear_8,1,5,63,98,1734481380
25,17,18,Jits_Linear_8,2,5,56,103,1734530668
25,17,18,Jits_Linear_8,3,5,80,127,1734533808
25,17,18,Jits_Linear_8,0,5,56,103,1735230784
25,17,18,Jits_Linear_8,1,5,80,127,1735233924
25,17,18,Jits_Linear_8,2,1,48,50,1735246556
25,17,18,Jits_Linear_8,3,5,63,98,1735320908
25,17,18,Jits_Linear_8,0,1,48,47,1736054976
25,17,18,Jits_Linear_8,1,5,63,98,1736061372
25,17,18,Jits_Linear_8,2,5,56,103,1736151596
25,17,18,Jits_Linear_8,3,5,80,127,1736181048
25,17,18,Jits_Linear_8,0,1,48,49,1736837868
25,17,18,Jits_Linear_8,1,5,56,103,1736840456
25,17,18,Jits_Linear_8,2,5,63,98,1736940868
25,17,18,Jits_Linear_8,3,5,80,127,1736970692
25,17,18,Jits_Linear_8,0,5,63,98,1737650656
25,17,18,Jits_Linear_8,1,5,56,103,1737660780
25,17,18,Jits_Linear_8,2,1,48,52,1737696336
25,17,18,Jits_Linear_8,3,5,80,127,1737750832
25,17,18,Jits_Linear_8,0,1,48,48,1738432852
25,17,18,Jits_Linear_8,1,5,63,98,1738451608
25,17,18,Jits_Linear_8,2,5,56,103,1738532376
25,17,18,Jits_Linear_8,3,5,80,127,1738535280
25,17,18,Jits_Linear_8,0,5,80,127,1739190604
25,17,18,Jits_Linear_8,1,5,63,98,1739211140
25,17,18,Jits_Linear_8,2,1,48,48,1739215452
25,17,18,Jits_Linear_8,3,5,56,103,1739270624
25,17,18,Jits_Linear_8,0,1,48,49,1739978956
25,17,18,Jits_Linear_8,1,5,56,103,1740010744
25,17,18,Jits_Linear_8,2,5,63,98,1740031428
25,17,18,Jits_Linear_8,3,5,80,127,1740034716
25,17,18,Jits_Linear_8,0,5,63,98,1740730780
25,17,18,Jits_Linear_8,1,1,48,44,1740765516
25,17,18,Jits_Linear_8,2,5,80,127,1740810572
25,17,18,Jits_Linear_8,3,5,56,103,1740821140
25,17,18,Jits_Linear_8,0,1,48,43,1741519344
25,17,18,Jits_Linear_8,1,5,63,98,1741530604
25,17,18,Jits_Linear_8,2,5,56,103,1741550916
25,17,18,Jits_Linear_8,3,5,80,127,1741601340
25,17,18,Jits_Linear_8,0,5,80,127,1742310876
25,17,18,Jits_Linear_8,1,1,48,39,1742312288
25,17,18,Jits_Linear_8,2,5,63,98,1742350664
25,17,18,Jits_Linear_8,3,5,56,103,1742371120
25,17,18,Jits_Linear_8,0,1,48,45,1743077104
25,17,18,Jits_Linear_8,1,5,56,103,1743120820
25,17,18,Jits_Linear_8,2,5,63,98,1743131388
25,17,18,Jits_Linear_8,3,5,80,127,1743150432
25,17,18,Jits_Linear_8,0,5,56,103,1743821080
25,17,18,Jits_Linear_8,1,1,48,45,1743849080
25,17,18,Jits_Linear_8,2,5,63,98,1743911212
25,17,18,Jits_Linear_8,3,5,80,127,1743970616
25,17,18,Jits_Linear_8,0,5,80,127,1744620996
25,17,18,Jits_Linear_8,1,5,56,103,1744631116
25,17,18,Jits_Linear_8,2,1,48,36,1744633632
25,17,18,Jits_Linear_8,3,5,63,98,1744700940
25,17,18,Jits_Linear_8,0,1,48,47,1745417352
25,17,18,Jits_Linear_8,1,5,63,98,1745420532
25,17,18,Jits_Linear_8,2,5,80,127,1745510744
25,17,18,Jits_Linear_8,3,5,56,103,1745521220
25,17,18,Jits_Linear_8,0,5,63,98,1746121176
25,17,18,Jits_Linear_8,1,5,80,127,1746171380
25,17,18,Jits_Linear_8,2,1,48,42,1746180948
25,17,18,Jits_Linear_8,3,5,56,103,1746230716
25,17,18,Jits_Linear_8,0,5,56,103,1746910436
25,17,18,Jits_Linear_8,1,1,48,47,1746916096
25,17,18,Jits_Linear_8,2,5,80,127,1746960928
25,17,18,Jits_Linear_8,3,5,63,98,1746981092
25,17,18,Jits_Linear_8,0,5,56,103,1747640896
25,17,18,Jits_Linear_8,1,1,48,45,1747658244
25,17,18,Jits_Linear_8,2,5,80,127,1747701208
25,17,18,Jits_Linear_8,3,5,63,98,1747770876
25,17,18,Jits_Linear_8,0,5,56,103,1748400360
25,17,18,Jits_Linear_8,1,5,80,127,1748431084
25,17,18,Jits_Linear_8,2,1,48,46,1748439972
25,17,18,Jits_Linear_8,3,5,63,98,1748461048
25,17,18,Jits_Linear_8,0,5,56,103,1749201316
25,17,18,Jits_Linear_8,1,5,80,127,1749220804
25,17,18,Jits_Linear_8,2,1,48,46,1749226388
25,17,18,Jits_Linear_8,3,5,63,98,1749281116
25,17,18,Jits_Linear_8,0,1,48,46,1750016856
25,17,18,Jits_Linear_8,1,5,80,127,1750041092
25,17,18,Jits_Linear_8,2,5,56,103,1750051064
25,17,18,Jits_Linear_8,3,5,63,98,1750061336
25,17,18,Jits_Linear_8,0,5,56,103,1750750508
25,17,18,Jits_Linear_8,1,5,80,127,1750790372
25,17,18,Jits_Linear_8,2,1,48,51,1750798520
25,17,18,Jits_Linear_8,3,5,63,98,1750821312
25,17,18,Jits_Linear_8,0,5,56,103,1751470492
25,17,18,Jits_Linear_8,1,5,63,98,1751501068
25,17,18,Jits_Linear_8,2,5,80,127,1751541004
25,17,18,Jits_Linear_8,3,1,48,45,1751574236
25,17,18,Jits_Linear_8,0,5,80,127,1752170892
25,17,18,Jits_Linear_8,1,5,63,98,1752221048
25,17,18,Jits_Linear_8,2,5,56,103,1752240684
25,17,18,Jits_Linear_8,3,1,48,51,1752257280
25,17,18,Jits_Linear_8,0,1,48,48,1752949208
25,17,18,Jits_Linear_8,1,5,56,103,1752951096
25,17,18,Jits_Linear_8,2,5,80,127,1753020732
25,17,18,Jits_Linear_8,3,5,63,98,1753081104
25,17,18,Jits_Linear_8,0,5,80,127,1753700664
25,17,18,Jits_Linear_8,1,1,48,43,1753748052
25,17,18,Jits_Linear_8,2,5,63,98,1753790820
25,17,18,Jits_Linear_8,3,5,56,103,1753811428
25,17,18,Jits_Linear_8,0,5,63,98,1754460804
25,17,18,Jits_Linear_8,1,1,48,51,1754480364
25,17,18,Jits_Linear_8,2,5,56,103,1754482080
25,17,18,Jits_Linear_8,3,5,80,127,1754520896
25,17,18,Jits_Linear_8,0,5,80,127,1755160912
25,17,18,Jits_Linear_8,1,5,63,98,1755181668
25,17,18,Jits_Linear_8,2,1,48,43,1755193780
25,17,18,Jits_Linear_8,3,5,56,103,1755261160
25,17,18,Jits_Linear_8,0,5,63,98,1755891076
25,17,18,Jits_Linear_8,1,1,48,49,1755940052
25,17,18,Jits_Linear_8,2,5,56,103,1756000684
25,17,18,Jits_Linear_8,3,5,80,127,1756003600
25,17,18,Jits_Linear_8,0,1,48,44,1756637512
25,17,18,Jits_Linear_8,1,5,63,98,1756650884
25,17,18,Jits_Linear_8,2,5,56,103,1756661080
25,17,18,Jits_Linear_8,3,5,80,127,1756664220
25,17,18,Jits_Linear_8,0,5,56,103,1757370684
25,17,18,Jits_Linear_8,1,1,48,43,1757383768
25,17,18,Jits_Linear_8,2,5,80,127,1757490544
25,17,18,Jits_Linear_8,3,5,63,98,1757530556
25,17,18,Jits_Linear_8,0,5,56,103,1758121456
25,17,18,Jits_Linear_8,1,5,80,127,1758201404
25,17,18,Jits_Linear_8,2,5,63,98,1758220596
25,17,18,Jits_Linear_8,3,1,48,43,1758251584
25,17,18,Jits_Linear_8,0,5,56,103,1758850632
25,17,18,Jits_Linear_8,1,1,48,46,1758946744
25,17,18,Jits_Linear_8,2,5,63,98,1758960940
25,17,18,Jits_Linear_8,3,5,80,127,1758964448
25,17,18,Jits_Linear_8,0,5,56,103,1759611508
25,17,18,Jits_Linear_8,1,5,80,127,1759641036
25,17,18,Jits_Linear_8,2,5,63,98,1759661568
25,17,18,Jits_Linear_8,3,1,48,44,1759698764
25,17,18,Jits_Linear_8,0,5,63,98,1760320828
25,17,18,Jits_Linear_8,1,5,56,103,1760331248
25,17,18,Jits_Linear_8,2,5,80,127,1760341296
25,17,18,Jits_Linear_8,3,1,48,29,1760412608
25,17,18,Jits_Linear_8,0,5,80,127,1761030596
25,17,18,Jits_Linear_8,1,5,56,103,1761080800
25,17,18,Jits_Linear_8,2,1,48,29,1761100856
25,17,18,Jits_Linear_8,3,5,63,98,1761120732
25,17,18,Jits_Linear_8,0,5,80,127,1761770804
25,17,18,Jits_Linear_8,1,5,63,98,1761791488
25,17,18,Jits_Linear_8,2,1,48,43,1761819560
25,17,18,Jits_Linear_8,3,5,56,103,1761840488
25,17,18,Jits_Linear_8,0,5,80,127,1762500892
25,17,18,Jits_Linear_8,1,5,56,103,1762530644
25,17,18,Jits_Linear_8,2,1,48,45,1762547916
25,17,18,Jits_Linear_8,3,5,63,98,1762601292
25,17,18,Jits_Linear_8,0,5,56,103,1763271000
25,17,18,Jits_Linear_8,1,5,80,127,1763281344
25,17,18,Jits_Linear_8,2,1,48,50,1763320304
25,17,18,Jits_Linear_8,3,5,63,98,1763322100
25,17,18,Jits_Linear_8,0,5,56,103,1763900752
25,17,18,Jits_Linear_8,1,5,63,98,1763921212
25,17,18,Jits_Linear_8,2,5,80,127,1763990816
25,17,18,Jits_Linear_8,3,1,48,42,1764028308
25,17,18,Jits_Linear_8,0,5,63,98,1764641380
25,17,18,Jits_Linear_8,1,5,80,127,1764700504
25,17,18,Jits_Linear_8,2,5,56,103,1764721260
25,17,18,Jits_Linear_8,3,1,48,34,1764826584
25,17,18,Jits_Linear_8,0,5,80,127,1765340744
25,17,18,Jits_Linear_8,1,5,56,103,1765371244
25,17,18,Jits_Linear_8,2,5,63,98,1765400916
25,17,18,Jits_Linear_8,3,1,48,33,1765414892
25,17,18,Jits_Linear_8,0,5,56,103,1766051204
25,17,18,Jits_Linear_8,1,1,48,36,1766091040
25,17,18,Jits_Linear_8,2,5,63,98,1766110468
25,17,18,Jits_Linear_8,3,5,80,127,1766171084
25,17,18,Jits_Linear_8,0,5,80,127,1766781276
25,17,18,Jits_Linear_8,1,5,56,103,1766800616
25,17,18,Jits_Linear_8,2,1,48,38,1766837464
25,17,18,Jits_Linear_8,3,5,63,98,1766871508
25,17,18,Jits_Linear_8,0,5,80,127,1767491216
25,17,18,Jits_Linear_8,1,5,63,98,1767511528
25,17,18,Jits_Linear_8,2,5,56,103,1767541276
25,17,18,Jits_Linear_8,3,1,48,42,1767580912
25,17,18,Jits_Linear_8,0,5,80,127,1768181152
25,17,18,Jits_Linear_8,1,5,63,98,1768200492
25,17,18,Jits_Linear_8,2,5,56,103,1768260956
25,17,18,Jits_Linear_8,3,1,48,39,1768295236
25,17,18,Jits_Linear_8,0,5,80,127,1768880452
25,17,18,Jits_Linear_8,1,5,56,103,1768980928
25,17,18,Jits_Linear_8,2,1,48,38,1769002924
25,17,18,Jits_Linear_8,3,5,63,98,1769010520
25,17,18,Jits_Linear_8,0,5,63,98,1769570816
25,17,18,Jits_Linear_8,1,5,80,127,1769620944
25,17,18,Jits_Linear_8,2,5,56,103,1769641352
25,17,18,Jits_Linear_8,3,1,48,43,1769749432
25,17,18,Jits_Linear_8,0,5,80,127,1770311084
25,17,18,Jits_Linear_8,1,5,56,103,1770340980
25,17,18,Jits_Linear_8,2,5,63,98,1770343896
25,17,18,Jits_Linear_8,3,1,48,38,1770362828
25,17,18,Jits_Linear_8,0,5,63,98,1771041092
25,17,18,Jits_Linear_8,1,5,56,103,1771080960
25,17,18,Jits_Linear_8,2,1,48,36,1771088268
25,17,18,Jits_Linear_8,3,5,80,127,1771100516
25,17,18,Jits_Linear_8,0,5,80,127,1771681272
25,17,18,Jits_Linear_8,1,5,63,98,1771761148
25,17,18,Jits_Linear_8,2,1,48,38,1771779632
25,17,18,Jits_Linear_8,3,5,56,103,1771801004
25,17,18,Jits_Linear_8,0,5,63,98,1772390748
25,17,18,Jits_Linear_8,1,5,80,127,1772470792
25,17,18,Jits_Linear_8,2,5,56,103,1772491104
25,17,18,Jits_Linear_8,3,1,48,37,1772517212
25,17,18,Jits_Linear_8,0,5,56,103,1773121056
25,17,18,Jits_Linear_8,1,1,48,47,1773127612
25,17,18,Jits_Linear_8,2,5,63,98,1773131244
25,17,18,Jits_Linear_8,3,5,80,127,1773171036
25,17,18,Jits_Linear_8,0,5,56,103,1773731044
25,17,18,Jits_Linear_8,1,5,80,127,1773734116
25,17,18,Jits_Linear_8,2,1,48,37,1773849248
25,17,18,Jits_Linear_8,3,5,63,98,1773870324
25,17,18,Jits_Linear_8,0,5,56,103,1774411136
25,17,18,Jits_Linear_8,1,5,63,98,1774501224
25,17,18,Jits_Linear_8,2,1,48,38,1774562256
25,17,18,Jits_Linear_8,3,5,80,127,1774570752
25,17,18,Jits_Linear_8,0,5,63,98,1775170904
25,17,18,Jits_Linear_8,1,5,80,127,1775174416
25,17,18,Jits_Linear_8,2,1,48,40,1775177840
25,17,18,Jits_Linear_8,3,5,56,103,1775231436
25,17,18,Jits_Linear_8,0,1,48,38,1775887600
25,17,18,Jits_Linear_8,1,5,80,127,1775890780
25,17,18,Jits_Linear_8,2,5,56,103,1775911240
25,17,18,Jits_Linear_8,3,5,63,98,1775920612
25,17,18,Jits_Linear_8,0,5,56,103,1776480744
25,17,18,Jits_Linear_8,1,5,63,98,1776490940
25,17,18,Jits_Linear_8,2,5,80,127,1776560572
25,17,18,Jits_Linear_8,3,1,48,44,1776590140
25,17,18,Jits_Linear_8,0,5,80,127,1777160640
25,17,18,Jits_Linear_8,1,5,56,103,1777210844
25,17,18,Jits_Linear_8,2,5,63,98,1777260896
25,17,18,Jits_Linear_8,3,1,48,37,1777285216
25,17,18,Jits_Linear_8,0,5,56,103,1777921452
25,17,18,Jits_Linear_8,1,5,63,98,1777930752
25,17,18,Jits_Linear_8,2,1,48,37,1777940168
25,17,18,Jits_Linear_8,3,5,80,127,1777970608
25,17,18,Jits_Linear_8,0,5,56,103,1778540868
25,17,18,Jits_Linear_8,1,5,63,98,1778580812
25,17,18,Jits_Linear_8,2,1,48,44,1778612352
25,17,18,Jits_Linear_8,3,5,80,127,1778630880
25,17,18,Jits_Linear_8,0,5,80,127,1779170724
25,17,18,Jits_Linear_8,1,5,56,103,1779220704
25,17,18,Jits_Linear_8,2,1,48,41,1779234308
25,17,18,Jits_Linear_8,3,5,63,98,1779241304
25,17,18,Jits_Linear_8,0,5,80,127,1779850668
25,17,18,Jits_Linear_8,1,1,48,32,1779868488
25,17,18,Jits_Linear_8,2,5,63,98,1779911004
25,17,18,Jits_Linear_8,3,5,56,103,1779990784
25,17,18,Jits_Linear_8,0,5,80,127,1780500824
25,17,18,Jits_Linear_8,1,5,56,103,1780540764
25,17,18,Jits_Linear_8,2,1,48,41,1780554972
25,17,18,Jits_Linear_8,3,5,63,98,1780561516
25,17,18,Jits_Linear_8,0,1,48,40,1781178124
25,17,18,Jits_Linear_8,1,5,56,103,1781220648
25,17,18,Jits_Linear_8,2,5,80,127,1781230916
25,17,18,Jits_Linear_8,3,5,63,98,1781270856
25,17,18,Jits_Linear_8,0,1,48,39,1781901228
25,17,18,Jits_Linear_8,1,5,56,103,1781950804
25,17,18,Jits_Linear_8,2,5,63,98,1781990744
25,17,18,Jits_Linear_8,3,5,80,127,1781994108
25,17,18,Jits_Linear_8,0,5,63,98,1782500680
25,17,18,Jits_Linear_8,1,5,80,127,1782540544
25,17,18,Jits_Linear_8,2,5,56,103,1782611496
25,17,18,Jits_Linear_8,3,1,48,35,1782630504
25,17,18,Jits_Linear_8,0,5,63,98,1783151088
25,17,18,Jits_Linear_8,1,5,56,103,1783230764
25,17,18,Jits_Linear_8,2,1,48,38,1783257552
25,17,18,Jits_Linear_8,3,5,80,127,1783291224
25,17,18,Jits_Linear_8,0,5,80,127,1783820564
25,17,18,Jits_Linear_8,1,5,63,98,1783870768
25,17,18,Jits_Linear_8,2,1,48,41,1783887140
25,17,18,Jits_Linear_8,3,5,56,103,1783900508
25,17,18,Jits_Linear_8,0,5,56,103,1784470836
25,17,18,Jits_Linear_8,1,5,63,98,1784521112
25,17,18,Jits_Linear_8,2,5,80,127,1784531384
25,17,18,Jits_Linear_8,3,1,48,44,1784584168
25,17,18,Jits_Linear_8,0,5,56,103,1785140588
25,17,18,Jits_Linear_8,1,1,48,40,1785236080
25,17,18,Jits_Linear_8,2,5,63,98,1785251420
25,17,18,Jits_Linear_8,3,5,80,127,1785270608
25,17,18,Jits_Linear_8,0,5,63,98,1785790748
25,17,18,Jits_Linear_8,1,5,80,127,1785841100
25,17,18,Jits_Linear_8,2,1,48,33,1785902432
25,17,18,Jits_Linear_8,3,5,56,103,1785931300
25,17,18,Jits_Linear_8,0,5,63,98,1786430824
25,17,18,Jits_Linear_8,1,5,80,127,1786460500
25,17,18,Jits_Linear_8,2,5,56,103,1786550508
25,17,18,Jits_Linear_8,3,1,48,37,1786559324
25,17,18,Jits_Linear_8,0,5,63,98,1787081180
25,17,18,Jits_Linear_8,1,5,56,103,1787091304
25,17,18,Jits_Linear_8,2,1,48,43,1787141920
25,17,18,Jits_Linear_8,3,5,80,127,1787190572
25,17,18,Jits_Linear_8,0,1,48,44,1787779064
25,17,18,Jits_Linear_8,1,5,63,98,1787830588
25,17,18,Jits_Linear_8,2,5,80,127,1787861308
25,17,18,Jits_Linear_8,3,5,56,103,1787891268
25,17,18,Jits_Linear_8,0,1,48,40,1788475356
25,17,18,Jits_Linear_8,1,5,80,127,1788491200
25,17,18,Jits_Linear_8,2,5,63,98,1788501248
25,17,18,Jits_Linear_8,3,5,56,103,1788531144
25,17,18,Jits_Linear_8,0,5,80,127,1789030672
25,17,18,Jits_Linear_8,1,5,63,98,1789051356
25,17,18,Jits_Linear_8,2,5,56,103,1789101580
25,17,18,Jits_Linear_8,3,1,48,39,1789125152
25,17,18,Jits_Linear_8,0,1,48,38,1789688964
25,17,18,Jits_Linear_8,1,5,63,98,1789700372
25,17,18,Jits_Linear_8,2,5,80,127,1789760988
25,17,18,Jits_Linear_8,3,5,56,103,1789781224
25,17,18,Jits_Linear_8,0,5,63,98,1790300596
25,17,18,Jits_Linear_8,1,1,48,40,1790349748
25,17,18,Jits_Linear_8,2,5,56,103,1790351544
25,17,18,Jits_Linear_8,3,5,80,127,1790361164
25,17,18,Jits_Linear_8,0,1,48,35,1790918468
25,17,18,Jits_Linear_8,1,5,56,103,1790971180
25,17,18,Jits_Linear_8,2,5,80,127,1790980404
25,17,18,Jits_Linear_8,3,5,63,98,1791080784
25,17,18,Jits_Linear_8,0,5,80,127,1791571180
25,17,18,Jits_Linear_8,1,5,63,98,1791580628
25,17,18,Jits_Linear_8,2,1,48,38,1791616332
25,17,18,Jits_Linear_8,3,5,56,103,1791731072
25,17,18,Jits_Linear_8,0,5,63,98,1792211444
25,17,18,Jits_Linear_8,1,5,80,127,1792251236
25,17,18,Jits_Linear_8,2,1,48,38,1792280132
25,17,18,Jits_Linear_8,3,5,56,103,1792331100
25,17,18,Jits_Linear_8,0,5,56,103,1792830988
25,17,18,Jits_Linear_8,1,1,48,36,1792917568
25,17,18,Jits_Linear_8,2,5,80,127,1792931184
25,17,18,Jits_Linear_8,3,5,63,98,1792950596
25,17,18,Jits_Linear_8,0,1,48,36,1793517216
25,17,18,Jits_Linear_8,1,5,80,127,1793521296
25,17,18,Jits_Linear_8,2,5,56,103,1793531344
25,17,18,Jits_Linear_8,3,5,63,98,1793621460
25,17,18,Jits_Linear_8,0,1,48,35,1794129588
25,17,18,Jits_Linear_8,1,5,56,103,1794150964
25,17,18,Jits_Linear_8,2,5,63,98,1794171128
25,17,18,Jits_Linear_8,3,5,80,127,1794251008
25,17,18,Jits_Linear_8,0,5,63,98,1794721100
25,17,18,Jits_Linear_8,1,1,48,40,1794806032
25,17,18,Jits_Linear_8,2,5,56,103,1794811228
25,17,18,Jits_Linear_8,3,5,80,127,1794814368
25,17,18,Jits_Linear_8,0,5,56,103,1795371284
25,17,18,Jits_Linear_8,1,1,48,34,1795383764
25,17,18,Jits_Linear_8,2,5,80,127,1795430696
25,17,18,Jits_Linear_8,3,5,63,98,1795440892
25,17,18,Jits_Linear_8,0,5,80,127,1796041068
25,17,18,Jits_Linear_8,1,5,56,103,1796051336
25,17,18,Jits_Linear_8,2,5,63,98,1796054552
25,17,18,Jits_Linear_8,3,1,48,41,1796074684
25,17,18,Jits_Linear_8,0,5,56,103,1796620912
25,17,18,Jits_Linear_8,1,5,80,127,1796630960
25,17,18,Jits_Linear_8,2,5,63,98,1796651272
25,17,18,Jits_Linear_8,3,1,48,41,1796725856
25,17,18,Jits_Linear_8,0,5,63,98,1797210508
25,17,18,Jits_Linear_8,1,5,80,127,1797271000
25,17,18,Jits_Linear_8,2,5,56,103,1797321124
25,17,18,Jits_Linear_8,3,1,48,38,1797359984
25,17,18,Jits_Linear_8,0,5,63,98,1797910996
25,17,18,Jits_Linear_8,1,5,56,103,1797921044
25,17,18,Jits_Linear_8,2,1,48,33,1797929860
25,17,18,Jits_Linear_8,3,5,80,127,1797971312
25,17,18,Jits_Linear_8,0,5,63,98,1798420864
25,17,18,Jits_Linear_8,1,5,80,127,1798441400
25,17,18,Jits_Linear_8,2,5,56,103,1798450772
25,17,18,Jits_Linear_8,3,1,48,40,1798558488
25,17,18,Jits_Linear_8,0,5,63,98,1799031180
25,17,18,Jits_Linear_8,1,5,80,127,1799034692
25,17,18,Jits_Linear_8,2,5,56,103,1799071068
25,17,18,Jits_Linear_8,3,1,48,38,1799102660
25,17,18,Jits_Linear_8,0,1,48,39,1799673408
25,17,18,Jits_Linear_8,1,5,63,98,1799711124
25,17,18,Jits_Linear_8,2,5,80,127,1799740876
25,17,18,Jits_Linear_8,3,5,56,103,1799750924
25,17,18,Jits_Linear_8,0,5,56,103,1800271120
25,17,18,Jits_Linear_8,1,5,80,127,1800300872
25,17,18,Jits_Linear_8,2,5,63,98,1800330768
25,17,18,Jits_Linear_8,3,1,48,41,1800340640
25,17,18,Jits_Linear_8,0,1,48,40,1800918328
25,17,18,Jits_Linear_8,1,5,63,98,1800970720
25,17,18,Jits_Linear_8,2,5,56,103,1801010732
25,17,18,Jits_Linear_8,3,5,80,127,1801013648
25,17,18,Jits_Linear_8,0,5,80,127,1801471444
25,17,18,Jits_Linear_8,1,5,56,103,1801551168
25,17,18,Jits_Linear_8,2,5,63,98,1801601520
25,17,18,Jits_Linear_8,3,1,48,42,1801609592
25,17,18,Jits_Linear_8,0,5,80,127,1802050780
25,17,18,Jits_Linear_8,1,5,56,103,1802071612
25,17,18,Jits_Linear_8,2,5,63,98,1802160500
25,17,18,Jits_Linear_8,3,1,48,38,1802237700
25,17,18,Jits_Linear_8,0,5,80,127,1802690896
25,17,18,Jits_Linear_8,1,5,63,98,1802730908
25,17,18,Jits_Linear_8,2,5,56,103,1802770772
25,17,18,Jits_Linear_8,3,1,48,30,1802828420
25,17,18,Jits_Linear_8,0,5,63,98,1803261156
25,17,18,Jits_Linear_8,1,5,80,127,1803320652
25,17,18,Jits_Linear_8,2,5,56,103,1803351744
25,17,18,Jits_Linear_8,3,1,48,37,1803381540
25,17,18,Jits_Linear_8,0,5,56,103,1803861448
25,17,18,Jits_Linear_8,1,5,80,127,1803890976
25,17,18,Jits_Linear_8,2,1,48,36,1803911552
25,17,18,Jits_Linear_8,3,5,63,98,1803981048
25,17,18,Jits_Linear_8,0,5,56,103,1804461476
25,17,18,Jits_Linear_8,1,1,48,42,1804501092
25,17,18,Jits_Linear_8,2,5,80,127,1804571088
25,17,18,Jits_Linear_8,3,5,63,98,1804600672
25,17,18,Jits_Linear_8,0,5,56,103,1805101428
25,17,18,Jits_Linear_8,1,1,48,41,1805136160
25,17,18,Jits_Linear_8,2,5,63,98,1805160768
25,17,18,Jits_Linear_8,3,5,80,127,1805190444
25,17,18,Jits_Linear_8,0,5,56,103,1805660464
25,17,18,Jits_Linear_8,1,1,48,41,1805726012
25,17,18,Jits_Linear_8,2,5,63,98,1805731360
25,17,18,Jits_Linear_8,3,5,80,127,1805750772
25,17,18,Jits_Linear_8,0,5,80,127,1806220616
25,17,18,Jits_Linear_8,1,5,63,98,1806241396
25,17,18,Jits_Linear_8,2,5,56,103,1806291524
25,17,18,Jits_Linear_8,3,1,48,42,1806305360
25,17,18,Jits_Linear_8,0,5,63,98,1806820576
25,17,18,Jits_Linear_8,1,5,80,127,1806830848
25,17,18,Jits_Linear_8,2,1,48,37,1806852248
25,17,18,Jits_Linear_8,3,5,56,103,1806881116
25,17,18,Jits_Linear_8,0,5,63,98,1807401532
25,17,18,Jits_Linear_8,1,1,48,35,1807421364
25,17,18,Jits_Linear_8,2,5,80,127,1807470988
25,17,18,Jits_Linear_8,3,5,56,103,1807490400
25,17,18,Jits_Linear_8,0,5,63,98,1808010512
25,17,18,Jits_Linear_8,1,5,80,127,1808013880
25,17,18,Jits_Linear_8,2,1,48,39,1808016776
25,17,18,Jits_Linear_8,3,5,56,103,1808081484
25,17,18,Jits_Linear_8,0,5,80,127,1808541000
25,17,18,Jits_Linear_8,1,5,56,103,1808560488
25,17,18,Jits_Linear_8,2,5,63,98,1808570684
25,17,18,Jits_Linear_8,3,1,48,47,1808638964
25,17,18,Jits_Linear_8,0,5,56,103,1809141304
25,17,18,Jits_Linear_8,1,1,48,39,1809161732
25,17,18,Jits_Linear_8,2,5,63,98,1809231208
25,17,18,Jits_Linear_8,3,5,80,127,1809234496
25,17,18,Jits_Linear_8,0,5,80,127,1809691256
25,17,18,Jits_Linear_8,1,5,56,103,1809701456
25,17,18,Jits_Linear_8,2,5,63,98,1809720644
25,17,18,Jits_Linear_8,3,1,48,41,1809750584
25,17,18,Jits_Linear_8,0,1,48,40,1810240132
25,17,18,Jits_Linear_8,1,5,63,98,1810261436
25,17,18,Jits_Linear_8,2,5,80,127,1810320856
25,17,18,Jits_Linear_8,3,5,56,103,1810331228
25,17,18,Jits_Linear_8,0,1,48,39,1810808568
25,17,18,Jits_Linear_8,1,5,63,98,1810901444
25,17,18,Jits_Linear_8,2,5,80,127,1810931344
25,17,18,Jits_Linear_8,3,5,56,103,1810971208
25,17,18,Jits_Linear_8,0,5,56,103,1811460636
25,17,18,Jits_Linear_8,1,1,48,37,1811461528
25,17,18,Jits_Linear_8,2,5,80,127,1811470604
25,17,18,Jits_Linear_8,3,5,63,98,1811510616
25,17,18,Jits_Linear_8,0,5,80,127,1811991040
25,17,18,Jits_Linear_8,1,1,48,43,1812002328
25,17,18,Jits_Linear_8,2,5,56,103,1812070980
25,17,18,Jits_Linear_8,3,5,63,98,1812081100
25,17,18,Jits_Linear_8,0,1,48,42,1812556852
25,17,18,Jits_Linear_8,1,5,80,127,1812601088
25,17,18,Jits_Linear_8,2,5,56,103,1812681268
25,17,18,Jits_Linear_8,3,5,63,98,1812691244
25,17,18,Jits_Linear_8,0,5,80,127,1813121376
25,17,18,Jits_Linear_8,1,5,56,103,1813170488
25,17,18,Jits_Linear_8,2,1,48,40,1813187908
25,17,18,Jits_Linear_8,3,5,63,98,1813220980
25,17,18,Jits_Linear_8,0,1,48,35,1813723256
25,17,18,Jits_Linear_8,1,5,56,103,1813741112
25,17,18,Jits_Linear_8,2,5,63,98,1813744104
25,17,18,Jits_Linear_8,3,5,80,127,1813791316
25,17,18,Jits_Linear_8,0,1,48,45,1814281300
25,17,18,Jits_Linear_8,1,5,56,103,1814320432
25,17,18,Jits_Linear_8,2,5,63,98,1814351156
25,17,18,Jits_Linear_8,3,5,80,127,1814360380
25,17,18,Jits_Linear_8,0,5,63,98,1814790452
25,17,18,Jits_Linear_8,1,5,56,103,1814861108
25,17,18,Jits_Linear_8,2,1,48,45,1814874416
25,17,18,Jits_Linear_8,3,5,80,127,1814911300
25,17,18,Jits_Linear_8,0,5,63,98,1815381232
25,17,18,Jits_Linear_8,1,1,48,39,1815382200
25,17,18,Jits_Linear_8,2,5,56,103,1815390440
25,17,18,Jits_Linear_8,3,5,80,127,1815393440
25,17,18,Jits_Linear_8,0,5,80,127,1815881116
25,17,18,Jits_Linear_8,1,1,48,41,1815909340
25,17,18,Jits_Linear_8,2,5,56,103,1815940456
25,17,18,Jits_Linear_8,3,5,63,98,1816030524
25,17,18,Jits_Linear_8,0,5,80,127,1816430856
25,17,18,Jits_Linear_8,1,5,56,103,1816531280
25,17,18,Jits_Linear_8,2,1,48,37,1816534028
25,17,18,Jits_Linear_8,3,5,63,98,1816571140
25,17,18,Jits_Linear_8,0,5,56,103,1817031120
25,17,18,Jits_Linear_8,1,5,63,98,1817050460
25,17,18,Jits_Linear_8,2,5,80,127,1817090396
25,17,18,Jits_Linear_8,3,1,48,35,1817098692
25,17,18,Jits_Linear_8,0,5,63,98,1817551188
25,17,18,Jits_Linear_8,1,5,56,103,1817570600
25,17,18,Jits_Linear_8,2,1,48,25,1817599868
25,17,18,Jits_Linear_8,3,5,80,127,1817671064
25,17,18,Jits_Linear_8,0,5,63,98,1818080612
25,17,18,Jits_Linear_8,1,1,48,38,1818137964
25,17,18,Jits_Linear_8,2,5,80,127,1818191196
25,17,18,Jits_Linear_8,3,5,56,103,1818220796
25,17,18,Jits_Linear_8,0,5,56,103,1818640824
25,17,18,Jits_Linear_8,1,1,48,40,1818661032
25,17,18,Jits_Linear_8,2,5,63,98,1818670644
25,17,18,Jits_Linear_8,3,5,80,127,1818720848
25,17,18,Jits_Linear_8,0,5,63,98,1819150924
25,17,18,Jits_Linear_8,1,5,56,103,1819181276
25,17,18,Jits_Linear_8,2,1,48,40,1819200584
25,17,18,Jits_Linear_8,3,5,80,127,1819230720
25,17,18,Jits_Linear_8,0,1,48,42,1819687788
25,17,18,Jits_Linear_8,1,5,56,103,1819721092
25,17,18,Jits_Linear_8,2,5,63,98,1819740656
25,17,18,Jits_Linear_8,3,5,80,127,1819821356
25,17,18,Jits_Linear_8,0,5,63,98,1820230888
25,17,18,Jits_Linear_8,1,1,48,46,1820252516
25,17,18,Jits_Linear_8,2,5,56,103,1820290528
25,17,18,Jits_Linear_8,3,5,80,127,1820321124
25,17,18,Jits_Linear_8,0,1,48,30,1820778316
25,17,18,Jits_Linear_8,1,5,56,103,1820810724
25,17,18,Jits_Linear_8,2,5,80,127,1820872096
25,17,18,Jits_Linear_8,3,5,63,98,1820911064
25,17,18,Jits_Linear_8,0,5,63,98,1821320824
25,17,18,Jits_Linear_8,1,1,48,40,1821366668
25,17,18,Jits_Linear_8,2,5,56,103,1821381012
25,17,18,Jits_Linear_8,3,5,80,127,1821450692
25,17,18,Jits_Linear_8,0,1,48,37,1821848056
25,17,18,Jits_Linear_8,1,5,56,103,1821930808
25,17,18,Jits_Linear_8,2,5,63,98,1821941228
25,17,18,Jits_Linear_8,3,5,80,127,1821945400
25,17,18,Jits_Linear_8,0,5,63,98,1822400816
25,17,18,Jits_Linear_8,1,1,48,28,1822411504
25,17,18,Jits_Linear_8,2,5,56,103,1822461276
25,17,18,Jits_Linear_8,3,5,80,127,1822464268
25,17,18,Jits_Linear_8,0,5,63,98,1822910824
25,17,18,Jits_Linear_8,1,1,48,35,1822938136
25,17,18,Jits_Linear_8,2,5,80,127,1822940792
25,17,18,Jits_Linear_8,3,5,56,103,1822960952
25,17,18,Jits_Linear_8,0,5,56,103,1823441216
25,17,18,Jits_Linear_8,1,1,48,39,1823489092
25,17,18,Jits_Linear_8,2,5,63,98,1823490888
25,17,18,Jits_Linear_8,3,5,80,127,1823571208
25,17,18,Jits_Linear_8,0,5,80,127,1823940836
25,17,18,Jits_Linear_8,1,1,48,34,1823979792
25,17,18,Jits_Linear_8,2,5,63,98,1823981740
25,17,18,Jits_Linear_8,3,5,56,103,1824001672
25,17,18,Jits_Linear_8,0,1,48,35,1824525744
25,17,18,Jits_Linear_8,1,5,56,103,1824530872
25,17,18,Jits_Linear_8,2,5,80,127,1824540992
25,17,18,Jits_Linear_8,3,5,63,98,1824560480
25,17,18,Jits_Linear_8,0,5,56,103,1825030708
25,17,18,Jits_Linear_8,1,1,48,46,1825036448
25,17,18,Jits_Linear_8,2,5,63,98,1825080756
25,17,18,Jits_Linear_8,3,5,80,127,1825111552
25,17,18,Jits_Linear_8,0,5,56,103,1825500580
25,17,18,Jits_Linear_8,1,5,63,98,1825510632
25,17,18,Jits_Linear_8,2,5,80,127,1825561056
25,17,18,Jits_Linear_8,3,1,48,46,1825583208
25,17,18,Jits_Linear_8,0,5,56,103,1826010756
25,17,18,Jits_Linear_8,1,5,80,127,1826013896
25,17,18,Jits_Linear_8,2,1,48,43,1826039204
25,17,18,Jits_Linear_8,3,5,63,98,1826171292
25,17,18,Jits_Linear_8,0,5,63,98,1826541008
25,17,18,Jits_Linear_8,1,5,56,103,1826610768
25,17,18,Jits_Linear_8,2,1,48,40,1826616728
25,17,18,Jits_Linear_8,3,5,80,127,1826650696
25,17,18,Jits_Linear_8,0,5,63,98,1827090736
25,17,18,Jits_Linear_8,1,1,48,40,1827144276
25,17,18,Jits_Linear_8,2,5,56,103,1827180864
25,17,18,Jits_Linear_8,3,5,80,127,1827184004
25,17,18,Jits_Linear_8,0,5,56,103,1827581420
25,17,18,Jits_Linear_8,1,5,63,98,1827671632
25,17,18,Jits_Linear_8,2,5,80,127,1827680632
25,17,18,Jits_Linear_8,3,1,48,46,1827717604
25,17,18,Jits_Linear_8,0,5,56,103,1828060516
25,17,18,Jits_Linear_8,1,5,63,98,1828110572
25,17,18,Jits_Linear_8,2,5,80,127,1828141368
25,17,18,Jits_Linear_8,3,1,48,45,1828247284
25,17,18,Jits_Linear_8,0,5,63,98,1828641124
25,17,18,Jits_Linear_8,1,5,80,127,1828651616
25,17,18,Jits_Linear_8,2,5,56,103,1828710664
25,17,18,Jits_Linear_8,3,1,48,40,1828798616
25,17,18,Jits_Linear_8,0,5,63,98,1829060936
25,17,18,Jits_Linear_8,1,5,80,127,1829121404
25,17,18,Jits_Linear_8,2,5,56,103,1829161416
25,17,18,Jits_Linear_8,3,1,48,38,1829328464
25,17,18,Jits_Linear_8,0,5,56,103,1829661308
25,17,18,Jits_Linear_8,1,5,80,127,1829680352
25,17,18,Jits_Linear_8,2,5,63,98,1829700884
25,17,18,Jits_Linear_8,0,1,48,37,1829893580
25,17,18,Jits_Linear_8,1,5,63,98,1830080784
25,17,18,Jits_Linear_8,2,5,56,103,1830101464
25,17,18,Jits_Linear_8,3,5,80,127,1830141404
25,17,18,Jits_Linear_8,0,1,48,37,1830412516
25,17,18,Jits_Linear_8,1,5,63,98,1830590796
25,17,18,Jits_Linear_8,2,5,80,127,1830620472
25,17,18,Jits_Linear_8,3,5,56,103,1830640932
25,17,18,Jits_Linear_8,0,1,48,39,1830952352
25,17,18,Jits_Linear_8,1,5,80,127,1831060804
25,17,18,Jits_Linear_8,2,5,56,103,1831111008
25,17,18,Jits_Linear_8,3,5,63,98,1831170352
25,17,18,Jits_Linear_8,0,1,48,36,1831515192
25,17,18,Jits_Linear_8,1,5,63,98,1831541364
25,17,18,Jits_Linear_8,2,5,56,103,1831660884
25,17,18,Jits_Linear_8,3,5,80,127,1831690560
25,17,18,Jits_Linear_8,0,5,80,127,1832070580
25,17,18,Jits_Linear_8,1,5,63,98,1832091212
25,17,18,Jits_Linear_8,2,1,48,38,1832104444
25,17,18,Jits_Linear_8,3,5,56,103,1832160664
25,17,18,Jits_Linear_8,0,5,63,98,1832580464
25,17,18,Jits_Linear_8,1,5,56,103,1832590808
25,17,18,Jits_Linear_8,2,5,80,127,1832670556
25,17,18,Jits_Linear_8,3,1,48,40,1832681544
25,17,18,Jits_Linear_8,0,5,56,103,1833131272
25,17,18,Jits_Linear_8,1,5,80,127,1833161168
25,17,18,Jits_Linear_8,2,5,63,98,1833171292
25,17,18,Jits_Linear_8,3,1,48,39,1833199436
25,17,18,Jits_Linear_8,0,9999,9999,9999,1722788948
25,17,18,Jits_Linear_8,1,9999,9999,9999,1723608132
25,17,18,Jits_Linear_8,2,9999,9999,9999,1724428384
25,17,18,Jits_Linear_8,3,9999,9999,9999,1725248636
25,17,18,Jits_Linear_8,4,9999,9999,9999,1726068860
25,17,18,Jits_Linear_8,5,9999,9999,9999,1726878832
25,17,18,Jits_Linear_8,6,9999,9999,9999,1727688788
25,17,18,Jits_Linear_8,7,9999,9999,9999,1728498748
25,17,18,Jits_Linear_8,8,9999,9999,9999,1729308748
25,17,18,Jits_Linear_8,9,9999,9999,9999,1730118744
25,17,18,Jits_Linear_8,10,9999,9999,9999,1730918520
25,17,18,Jits_Linear_8,11,9999,9999,9999,1731718204
25,17,18,Jits_Linear_8,12,9999,9999,9999,1732519028
25,17,18,Jits_Linear_8,13,9999,9999,9999,1733318716
25,17,18,Jits_Linear_8,14,9999,9999,9999,1734118460
25,17,18,Jits_Linear_8,15,9999,9999,9999,1734909000
25,17,18,Jits_Linear_8,16,9999,9999,9999,1735698524
25,17,18,Jits_Linear_8,17,9999,9999,9999,1736489080
25,17,18,Jits_Linear_8,18,9999,9999,9999,1737278576
25,17,18,Jits_Linear_8,19,9999,9999,9999,1738069116
25,17,18,Jits_Linear_8,20,9999,9999,9999,1738848344
25,17,18,Jits_Linear_8,21,9999,9999,9999,1739628612
25,17,18,Jits_Linear_8,22,9999,9999,9999,1740408892
25,17,18,Jits_Linear_8,23,9999,9999,9999,1741188196
25,17,18,Jits_Linear_8,24,9999,9999,9999,1741968468
25,17,18,Jits_Linear_8,25,9999,9999,9999,1742738548
25,17,18,Jits_Linear_8,26,9999,9999,9999,1743508568
25,17,18,Jits_Linear_8,27,9999,9999,9999,1744278648
25,17,18,Jits_Linear_8,28,9999,9999,9999,1745048664
25,17,18,Jits_Linear_8,29,9999,9999,9999,1745818724
25,17,18,Jits_Linear_8,30,9999,9999,9999,1746578516
25,17,18,Jits_Linear_8,31,9999,9999,9999,1747338328
25,17,18,Jits_Linear_8,32,9999,9999,9999,1748098164
25,17,18,Jits_Linear_8,33,9999,9999,9999,1748858964
25,17,18,Jits_Linear_8,34,9999,9999,9999,1749618800
25,17,18,Jits_Linear_8,35,9999,9999,9999,1750368384
25,17,18,Jits_Linear_8,36,9999,9999,9999,1751118920
25,17,18,Jits_Linear_8,37,9999,9999,9999,1751868496
25,17,18,Jits_Linear_8,38,9999,9999,9999,1752619112
25,17,18,Jits_Linear_8,39,9999,9999,9999,1753378876
25,17,18,Jits_Linear_8,40,9999,9999,9999,1754118252
25,17,18,Jits_Linear_8,41,9999,9999,9999,1754858608
25,17,18,Jits_Linear_8,42,9999,9999,9999,1755598944
25,17,18,Jits_Linear_8,43,9999,9999,9999,1756338248
25,17,18,Jits_Linear_8,44,9999,9999,9999,1757078624
25,17,18,Jits_Linear_8,45,9999,9999,9999,1757808700
25,17,18,Jits_Linear_8,46,9999,9999,9999,1758538868
25,17,18,Jits_Linear_8,47,9999,9999,9999,1759268956
25,17,18,Jits_Linear_8,48,9999,9999,9999,1759999100
25,17,18,Jits_Linear_8,49,9999,9999,9999,1760728144
25,17,18,Jits_Linear_8,50,9999,9999,9999,1761449076
25,17,18,Jits_Linear_8,51,9999,9999,9999,1762168956
25,17,18,Jits_Linear_8,52,9999,9999,9999,1762888788
25,17,18,Jits_Linear_8,53,9999,9999,9999,1763608696
25,17,18,Jits_Linear_8,54,9999,9999,9999,1764328572
25,17,18,Jits_Linear_8,55,9999,9999,9999,1765038144
25,17,18,Jits_Linear_8,56,9999,9999,9999,1765748860
25,17,18,Jits_Linear_8,57,9999,9999,9999,1766458428
25,17,18,Jits_Linear_8,58,9999,9999,9999,1767168068
25,17,18,Jits_Linear_8,59,9999,9999,9999,1767878760
25,17,18,Jits_Linear_8,60,9999,9999,9999,1768578108
25,17,18,Jits_Linear_8,61,9999,9999,9999,1769278540
25,17,18,Jits_Linear_8,62,9999,9999,9999,1769978960
25,17,18,Jits_Linear_8,63,9999,9999,9999,1770678388
25,17,18,Jits_Linear_8,64,9999,9999,9999,1771378792
25,17,18,Jits_Linear_8,65,9999,9999,9999,1772068944
25,17,18,Jits_Linear_8,66,9999,9999,9999,1772758140
25,17,18,Jits_Linear_8,67,9999,9999,9999,1773448268
25,17,18,Jits_Linear_8,68,9999,9999,9999,1774138488
25,17,18,Jits_Linear_8,69,9999,9999,9999,1774828652
25,17,18,Jits_Linear_8,70,9999,9999,9999,1775508596
25,17,18,Jits_Linear_8,71,9999,9999,9999,1776188480
25,17,18,Jits_Linear_8,72,9999,9999,9999,1776868436
25,17,18,Jits_Linear_8,73,9999,9999,9999,1777548380
25,17,18,Jits_Linear_8,74,9999,9999,9999,1778228288
25,17,18,Jits_Linear_8,75,9999,9999,9999,1778899048
25,17,18,Jits_Linear_8,76,9999,9999,9999,1779568728
25,17,18,Jits_Linear_8,77,9999,9999,9999,1780238440
25,17,18,Jits_Linear_8,78,9999,9999,9999,1780908144
25,17,18,Jits_Linear_8,79,9999,9999,9999,1781578876
25,17,18,Jits_Linear_8,80,9999,9999,9999,1782238308
25,17,18,Jits_Linear_8,81,9999,9999,9999,1782898760
25,17,18,Jits_Linear_8,82,9999,9999,9999,1783558268
25,17,18,Jits_Linear_8,83,9999,9999,9999,1784218740
25,17,18,Jits_Linear_8,84,9999,9999,9999,1784878204
25,17,18,Jits_Linear_8,85,9999,9999,9999,1785528436
25,17,18,Jits_Linear_8,86,9999,9999,9999,1786178644
25,17,18,Jits_Linear_8,87,9999,9999,9999,1786828852
25,17,18,Jits_Linear_8,88,9999,9999,9999,1787478140
25,17,18,Jits_Linear_8,89,9999,9999,9999,1788128360
25,17,18,Jits_Linear_8,90,9999,9999,9999,1788768376
25,17,18,Jits_Linear_8,91,9999,9999,9999,1789408324
25,17,18,Jits_Linear_8,92,9999,9999,9999,1790048340
25,17,18,Jits_Linear_8,93,9999,9999,9999,1790688364
25,17,18,Jits_Linear_8,94,9999,9999,9999,1791328364
25,17,18,Jits_Linear_8,95,9999,9999,9999,1791958128
25,17,18,Jits_Linear_8,96,9999,9999,9999,1792588924
25,17,18,Jits_Linear_8,97,9999,9999,9999,1793218612
25,17,18,Jits_Linear_8,98,9999,9999,9999,1793848444
25,17,18,Jits_Linear_8,99,9999,9999,9999,1794478136
25,17,18,Jits_Linear_8,100,9999,9999,9999,1795098724
25,17,18,Jits_Linear_8,101,9999,9999,9999,1795718200
25,17,18,Jits_Linear_8,102,9999,9999,9999,1796338752
25,17,18,Jits_Linear_8,103,9999,9999,9999,1796958312
25,17,18,Jits_Linear_8,104,9999,9999,9999,1797578872
25,17,18,Jits_Linear_8,105,9999,9999,9999,1798188092
25,17,18,Jits_Linear_8,106,9999,9999,9999,1798798416
25,17,18,Jits_Linear_8,107,9999,9999,9999,1799408752
25,17,18,Jits_Linear_8,108,9999,9999,9999,1800019012
25,17,18,Jits_Linear_8,109,9999,9999,9999,1800628320
25,17,18,Jits_Linear_8,110,9999,9999,9999,1801228408
25,17,18,Jits_Linear_8,111,9999,9999,9999,1801828480
25,17,18,Jits_Linear_8,112,9999,9999,9999,1802428508
25,17,18,Jits_Linear_8,113,9999,9999,9999,1803028592
25,17,18,Jits_Linear_8,114,9999,9999,9999,1803628596
25,17,18,Jits_Linear_8,115,9999,9999,9999,1804218428
25,17,18,Jits_Linear_8,116,9999,9999,9999,1804808252
25,17,18,Jits_Linear_8,117,9999,9999,9999,1805398080
25,17,18,Jits_Linear_8,118,9999,9999,9999,1805988976
25,17,18,Jits_Linear_8,119,9999,9999,9999,1806578792
25,17,18,Jits_Linear_8,120,9999,9999,9999,1807158344
25,17,18,Jits_Linear_8,121,9999,9999,9999,1807738936
25,17,18,Jits_Linear_8,122,9999,9999,9999,1808318568
25,17,18,Jits_Linear_8,123,9999,9999,9999,1808898104
25,17,18,Jits_Linear_8,124,9999,9999,9999,1809478772
25,17,18,Jits_Linear_8,125,9999,9999,9999,1810048060
25,17,18,Jits_Linear_8,126,9999,9999,9999,1810618424
25,17,18,Jits_Linear_8,127,9999,9999,9999,1811188828
25,17,18,Jits_Linear_8,128,9999,9999,9999,1811758180
25,17,18,Jits_Linear_8,129,9999,9999,9999,1812328520
25,17,18,Jits_Linear_8,130,9999,9999,9999,1812888632
25,17,18,Jits_Linear_8,131,9999,9999,9999,1813448768
25,17,18,Jits_Linear_8,132,9999,9999,9999,1814008916
25,17,18,Jits_Linear_8,133,9999,9999,9999,1814569064
25,17,18,Jits_Linear_8,134,9999,9999,9999,1815128152
25,17,18,Jits_Linear_8,135,9999,9999,9999,1815679064
25,17,18,Jits_Linear_8,136,9999,9999,9999,1816228960
25,17,18,Jits_Linear_8,137,9999,9999,9999,1816778848
25,17,18,Jits_Linear_8,138,9999,9999,9999,1817328740
25,17,18,Jits_Linear_8,139,9999,9999,9999,1817878628
25,17,18,Jits_Linear_8,140,9999,9999,9999,1818418244
25,17,18,Jits_Linear_8,141,9999,9999,9999,1818958972
25,17,18,Jits_Linear_8,142,9999,9999,9999,1819498588
25,17,18,Jits_Linear_8,143,9999,9999,9999,1820038200
25,17,18,Jits_Linear_8,144,9999,9999,9999,1820578876
25,17,18,Jits_Linear_8,145,9999,9999,9999,1821108304
25,17,18,Jits_Linear_8,146,9999,9999,9999,1821638772
25,17,18,Jits_Linear_8,147,9999,9999,9999,1822168116
25,17,18,Jits_Linear_8,148,9999,9999,9999,1822698580
25,17,18,Jits_Linear_8,149,9999,9999,9999,1823229044
25,17,18,Jits_Linear_8,150,9999,9999,9999,1823748208
25,17,18,Jits_Linear_8,151,9999,9999,9999,1824268348
25,17,18,Jits_Linear_8,152,9999,9999,9999,1824788568
25,17,18,Jits_Linear_8,153,9999,9999,9999,1825308776
25,17,18,Jits_Linear_8,154,9999,9999,9999,1825828916
25,17,18,Jits_Linear_8,155,9999,9999,9999,1826338936
25,17,18,Jits_Linear_8,156,9999,9999,9999,1826848820
25,17,18,Jits_Linear_8,157,9999,9999,9999,1827358836
25,17,18,Jits_Linear_8,158,9999,9999,9999,1827868784
25,17,18,Jits_Linear_8,159,9999,9999,9999,1828378736
25,17,18,Jits_Linear_8,160,9999,9999,9999,1828878452
25,17,18,Jits_Linear_8,161,9999,9999,9999,1829378128
25,17,18,Jits_Linear_8,162,9999,9999,9999,1829878868
25,17,18,Jits_Linear_8,163,9999,9999,9999,1830378572
25,17,18,Jits_Linear_8,164,9999,9999,9999,1830878324
25,17,18,Jits_Linear_8,165,9999,9999,9999,1831368788
25,17,18,Jits_Linear_8,166,9999,9999,9999,1831858284
25,17,18,Jits_Linear_8,167,9999,9999,9999,1832348748
25,17,18,Jits_Linear_8,168,9999,9999,9999,1832838232
25,17,18,Jits_Linear_8,169,9999,9999,9999,1833328704
25,18,19,Jits_Linear_5,0,5,56,103,1851481532
25,18,19,Jits_Linear_5,1,5,63,98,1851484632
25,18,19,Jits_Linear_5,2,5,80,127,1851487748
25,18,19,Jits_Linear_5,0,5,56,103,1851961840
25,18,19,Jits_Linear_5,1,5,63,98,1851964716
25,18,19,Jits_Linear_5,2,5,80,127,1851967912
25,18,19,Jits_Linear_5,0,5,56,103,1852441872
25,18,19,Jits_Linear_5,1,5,80,127,1852452288
25,18,19,Jits_Linear_5,2,5,63,98,1852471704
25,18,19,Jits_Linear_5,0,5,63,98,1852872000
25,18,19,Jits_Linear_5,1,5,80,127,1852901604
25,18,19,Jits_Linear_5,2,5,56,103,1852911948
25,18,19,Jits_Linear_5,0,5,80,127,1853411876
25,18,19,Jits_Linear_5,1,5,56,103,1853422296
25,18,19,Jits_Linear_5,2,5,63,98,1853451752
25,18,19,Jits_Linear_5,0,5,63,98,1853891916
25,18,19,Jits_Linear_5,1,5,56,103,1853921744
25,18,19,Jits_Linear_5,2,5,80,127,1853931792
25,18,19,Jits_Linear_5,0,5,56,103,1854332204
25,18,19,Jits_Linear_5,1,5,63,98,1854381536
25,18,19,Jits_Linear_5,2,5,80,127,1854401844
25,18,19,Jits_Linear_5,0,5,80,127,1854821676
25,18,19,Jits_Linear_5,1,5,63,98,1854872056
25,18,19,Jits_Linear_5,2,5,56,103,1854911772
25,18,19,Jits_Linear_5,0,5,56,103,1855312196
25,18,19,Jits_Linear_5,1,1,48,49,1855341652
25,18,19,Jits_Linear_5,2,5,63,98,1855343360
25,18,19,Jits_Linear_5,3,5,80,127,1855411504
25,18,19,Jits_Linear_5,0,5,56,103,1855801788
25,18,19,Jits_Linear_5,1,1,48,46,1855812028
25,18,19,Jits_Linear_5,2,5,80,127,1855862248
25,18,19,Jits_Linear_5,3,5,63,98,1855891800
25,18,19,Jits_Linear_5,0,5,56,103,1856301420
25,18,19,Jits_Linear_5,1,5,63,98,1856311544
25,18,19,Jits_Linear_5,2,1,48,44,1856333168
25,18,19,Jits_Linear_5,3,5,80,127,1856351476
25,18,19,Jits_Linear_5,0,1,48,44,1856787668
25,18,19,Jits_Linear_5,1,5,63,98,1856791896
25,18,19,Jits_Linear_5,2,5,80,127,1856871772
25,18,19,Jits_Linear_5,3,5,56,103,1856882176
25,18,19,Jits_Linear_5,0,1,48,48,1857332324
25,18,19,Jits_Linear_5,1,5,63,98,1857341788
25,18,19,Jits_Linear_5,2,5,56,103,1857381724
25,18,19,Jits_Linear_5,3,5,80,127,1857384716
25,18,19,Jits_Linear_5,0,1,48,46,1857798204
25,18,19,Jits_Linear_5,1,5,56,103,1857801756
25,18,19,Jits_Linear_5,2,5,63,98,1857812028
25,18,19,Jits_Linear_5,3,5,80,127,1857851740
25,18,19,Jits_Linear_5,0,1,48,41,1858234728
25,18,19,Jits_Linear_5,1,5,56,103,1858292144
25,18,19,Jits_Linear_5,2,5,63,98,1858295360
25,18,19,Jits_Linear_5,3,5,80,127,1858311408
25,18,19,Jits_Linear_5,0,1,48,48,1858722868
25,18,19,Jits_Linear_5,1,5,80,127,1858812200
25,18,19,Jits_Linear_5,2,5,56,103,1858821484
25,18,19,Jits_Linear_5,3,5,63,98,1858892212
25,18,19,Jits_Linear_5,0,1,48,42,1859283760
25,18,19,Jits_Linear_5,1,5,63,98,1859311960
25,18,19,Jits_Linear_5,2,5,56,103,1859331448
25,18,19,Jits_Linear_5,3,5,80,127,1859412204
25,18,19,Jits_Linear_5,0,1,48,44,1859782176
25,18,19,Jits_Linear_5,1,5,56,103,1859832324
25,18,19,Jits_Linear_5,2,5,80,127,1859872192
25,18,19,Jits_Linear_5,3,5,63,98,1859882444
25,18,19,Jits_Linear_5,0,1,48,43,1860298040
25,18,19,Jits_Linear_5,1,5,80,127,1860332012
25,18,19,Jits_Linear_5,2,5,63,98,1860361540
25,18,19,Jits_Linear_5,3,5,56,103,1860401464
25,18,19,Jits_Linear_5,0,1,48,44,1860794280
25,18,19,Jits_Linear_5,1,5,56,103,1860862340
25,18,19,Jits_Linear_5,2,5,63,98,1860891928
25,18,19,Jits_Linear_5,3,5,80,127,1860942204
25,18,19,Jits_Linear_5,0,1,48,44,1861361632
25,18,19,Jits_Linear_5,1,5,80,127,1861372296
25,18,19,Jits_Linear_5,2,5,56,103,1861412164
25,18,19,Jits_Linear_5,3,5,63,98,1861421388
25,18,19,Jits_Linear_5,0,1,48,43,1861843632
25,18,19,Jits_Linear_5,1,5,80,127,1861872056
25,18,19,Jits_Linear_5,2,5,63,98,1861911996
25,18,19,Jits_Linear_5,3,5,56,103,1861972224
25,18,19,Jits_Linear_5,0,1,48,40,1862362280
25,18,19,Jits_Linear_5,1,5,56,103,1862392120
25,18,19,Jits_Linear_5,2,5,80,127,1862402392
25,18,19,Jits_Linear_5,3,5,63,98,1862482248
25,18,19,Jits_Linear_5,0,1,48,45,1862897612
25,18,19,Jits_Linear_5,1,5,80,127,1862912260
25,18,19,Jits_Linear_5,2,5,63,98,1862971980
25,18,19,Jits_Linear_5,3,5,56,103,1863001340
25,18,19,Jits_Linear_5,0,1,48,46,1863407492
25,18,19,Jits_Linear_5,1,5,56,103,1863431428
25,18,19,Jits_Linear_5,2,5,80,127,1863491896
25,18,19,Jits_Linear_5,3,5,63,98,1863532116
25,18,19,Jits_Linear_5,0,1,48,35,1863969216
25,18,19,Jits_Linear_5,1,5,56,103,1864012036
25,18,19,Jits_Linear_5,2,5,63,98,1864022296
25,18,19,Jits_Linear_5,3,5,80,127,1864026040
25,18,19,Jits_Linear_5,0,5,80,127,1864492316
25,18,19,Jits_Linear_5,1,1,48,43,1864512144
25,18,19,Jits_Linear_5,2,5,63,98,1864581400
25,18,19,Jits_Linear_5,3,5,56,103,1864591892
25,18,19,Jits_Linear_5,0,5,56,103,1865021824
25,18,19,Jits_Linear_5,1,5,63,98,1865024844
25,18,19,Jits_Linear_5,2,5,80,127,1865027968
25,18,19,Jits_Linear_5,3,1,48,44,1865057236
25,18,19,Jits_Linear_5,0,1,48,45,1865544932
25,18,19,Jits_Linear_5,1,5,80,127,1865571780
25,18,19,Jits_Linear_5,2,5,63,98,1865621860
25,18,19,Jits_Linear_5,3,5,56,103,1865651672
25,18,19,Jits_Linear_5,0,5,56,103,1866081892
25,18,19,Jits_Linear_5,1,5,80,127,1866091940
25,18,19,Jits_Linear_5,2,1,48,37,1866126144
25,18,19,Jits_Linear_5,3,5,63,98,1866161640
25,18,19,Jits_Linear_5,0,5,56,103,1866622276
25,18,19,Jits_Linear_5,1,1,48,40,1866626516
25,18,19,Jits_Linear_5,2,5,63,98,1866641780
25,18,19,Jits_Linear_5,3,5,80,127,1866702172
25,18,19,Jits_Linear_5,0,1,48,44,1867113248
25,18,19,Jits_Linear_5,1,5,80,127,1867151712
25,18,19,Jits_Linear_5,2,5,63,98,1867222680
25,18,19,Jits_Linear_5,3,5,56,103,1867241792
25,18,19,Jits_Linear_5,0,5,80,127,1867711820
25,18,19,Jits_Linear_5,1,5,56,103,1867722240
25,18,19,Jits_Linear_5,2,5,63,98,1867732288
25,18,19,Jits_Linear_5,3,1,48,38,1867761408
25,18,19,Jits_Linear_5,0,5,80,127,1868242392
25,18,19,Jits_Linear_5,1,1,48,42,1868247004
25,18,19,Jits_Linear_5,2,5,56,103,1868261724
25,18,19,Jits_Linear_5,3,5,63,98,1868332452
25,18,19,Jits_Linear_5,0,5,56,103,1868792212
25,18,19,Jits_Linear_5,1,1,48,47,1868811148
25,18,19,Jits_Linear_5,2,5,80,127,1868821736
25,18,19,Jits_Linear_5,3,5,63,98,1868842568
25,18,19,Jits_Linear_5,0,1,48,49,1869312712
25,18,19,Jits_Linear_5,1,5,63,98,1869331772
25,18,19,Jits_Linear_5,2,5,56,103,1869392388
25,18,19,Jits_Linear_5,3,5,80,127,1869421900
25,18,19,Jits_Linear_5,0,5,63,98,1869871696
25,18,19,Jits_Linear_5,1,5,80,127,1869874836
25,18,19,Jits_Linear_5,2,1,48,45,1869877204
25,18,19,Jits_Linear_5,3,5,56,103,1869961600
25,18,19,Jits_Linear_5,0,1,48,44,1870441776
25,18,19,Jits_Linear_5,1,5,56,103,1870443260
25,18,19,Jits_Linear_5,2,5,63,98,1870471668
25,18,19,Jits_Linear_5,3,5,80,127,1870511708
25,18,19,Jits_Linear_5,0,5,63,98,1870991660
25,18,19,Jits_Linear_5,1,1,48,42,1871000128
25,18,19,Jits_Linear_5,2,5,56,103,1871031692
25,18,19,Jits_Linear_5,3,5,80,127,1871052004
25,18,19,Jits_Linear_5,0,1,48,31,1871509456
25,18,19,Jits_Linear_5,1,5,63,98,1871551832
25,18,19,Jits_Linear_5,2,5,56,103,1871591772
25,18,19,Jits_Linear_5,3,5,80,127,1871602924
25,18,19,Jits_Linear_5,0,5,80,127,1872082468
25,18,19,Jits_Linear_5,1,1,48,39,1872100804
25,18,19,Jits_Linear_5,2,5,63,98,1872151996
25,18,19,Jits_Linear_5,3,5,56,103,1872172608
25,18,19,Jits_Linear_5,0,5,56,103,1872632068
25,18,19,Jits_Linear_5,1,5,80,127,1872651780
25,18,19,Jits_Linear_5,2,1,48,46,1872675880
25,18,19,Jits_Linear_5,3,5,63,98,1872691716
25,18,19,Jits_Linear_5,0,1,48,37,1873188440
25,18,19,Jits_Linear_5,1,5,63,98,1873201516
25,18,19,Jits_Linear_5,2,5,80,127,1873222052
25,18,19,Jits_Linear_5,3,5,56,103,1873261992
25,18,19,Jits_Linear_5,0,5,63,98,1873761596
25,18,19,Jits_Linear_5,1,1,48,37,1873763460
25,18,19,Jits_Linear_5,2,5,56,103,1873782420
25,18,19,Jits_Linear_5,3,5,80,127,1873792544
25,18,19,Jits_Linear_5,0,1,48,38,1874277868
25,18,19,Jits_Linear_5,1,5,80,127,1874321684
25,18,19,Jits_Linear_5,2,5,56,103,1874342440
25,18,19,Jits_Linear_5,3,5,63,98,1874371896
25,18,19,Jits_Linear_5,0,1,48,42,1874881208
25,18,19,Jits_Linear_5,1,5,56,103,1874961700
25,18,19,Jits_Linear_5,2,5,80,127,1874964840
25,18,19,Jits_Linear_5,3,5,63,98,1874982444
25,18,19,Jits_Linear_5,0,5,63,98,1875452396
25,18,19,Jits_Linear_5,1,5,56,103,1875481848
25,18,19,Jits_Linear_5,2,1,48,38,1875482816
25,18,19,Jits_Linear_5,3,5,80,127,1875542308
25,18,19,Jits_Linear_5,0,1,48,36,1876028012
25,18,19,Jits_Linear_5,1,5,63,98,1876101624
25,18,19,Jits_Linear_5,2,5,56,103,1876111748
25,18,19,Jits_Linear_5,3,5,80,127,1876122596
25,18,19,Jits_Linear_5,0,5,56,103,1876621748
25,18,19,Jits_Linear_5,1,1,48,37,1876645620
25,18,19,Jits_Linear_5,2,5,80,127,1876652544
25,18,19,Jits_Linear_5,3,5,63,98,1876661616
25,18,19,Jits_Linear_5,0,1,48,38,1877209836
25,18,19,Jits_Linear_5,1,5,63,98,1877232332
25,18,19,Jits_Linear_5,2,5,56,103,1877242456
25,18,19,Jits_Linear_5,3,5,80,127,1877261644
25,18,19,Jits_Linear_5,0,5,56,103,1877731656
25,18,19,Jits_Linear_5,1,5,63,98,1877792200
25,18,19,Jits_Linear_5,2,5,80,127,1877795488
25,18,19,Jits_Linear_5,3,1,48,35,1877807676
25,18,19,Jits_Linear_5,0,5,80,127,1878331744
25,18,19,Jits_Linear_5,1,5,56,103,1878342164
25,18,19,Jits_Linear_5,2,1,48,33,1878372488
25,18,19,Jits_Linear_5,3,5,63,98,1878411544
25,18,19,Jits_Linear_5,0,5,80,127,1878902248
25,18,19,Jits_Linear_5,1,1,48,31,1878929752
25,18,19,Jits_Linear_5,2,5,56,103,1878971876
25,18,19,Jits_Linear_5,3,5,63,98,1878982220
25,18,19,Jits_Linear_5,0,5,63,98,1879521632
25,18,19,Jits_Linear_5,1,1,48,40,1879523940
25,18,19,Jits_Linear_5,2,5,56,103,1879532044
25,18,19,Jits_Linear_5,3,5,80,127,1879552428
25,18,19,Jits_Linear_5,0,5,80,127,1880052332
25,18,19,Jits_Linear_5,1,1,48,43,1880061452
25,18,19,Jits_Linear_5,2,5,63,98,1880111376
25,18,19,Jits_Linear_5,3,5,56,103,1880152360
25,18,19,Jits_Linear_5,0,5,56,103,1880682180
25,18,19,Jits_Linear_5,1,1,48,43,1880691396
25,18,19,Jits_Linear_5,2,5,63,98,1880693268
25,18,19,Jits_Linear_5,3,5,80,127,1880732256
25,18,19,Jits_Linear_5,0,5,56,103,1881231880
25,18,19,Jits_Linear_5,1,1,48,43,1881232848
25,18,19,Jits_Linear_5,2,5,80,127,1881261404
25,18,19,Jits_Linear_5,3,5,63,98,1881311604
25,18,19,Jits_Linear_5,0,1,48,41,1881839968
25,18,19,Jits_Linear_5,1,5,56,103,1881861420
25,18,19,Jits_Linear_5,2,5,63,98,1881901356
25,18,19,Jits_Linear_5,3,5,80,127,1881904648
25,18,19,Jits_Linear_5,0,1,48,41,1882404152
25,18,19,Jits_Linear_5,1,5,56,103,1882452428
25,18,19,Jits_Linear_5,2,5,63,98,1882461652
25,18,19,Jits_Linear_5,3,5,80,127,1882481892
25,18,19,Jits_Linear_5,0,5,56,103,1883002168
25,18,19,Jits_Linear_5,1,5,80,127,1883005384
25,18,19,Jits_Linear_5,2,1,48,38,1883032664
25,18,19,Jits_Linear_5,3,5,63,98,1883042276
25,18,19,Jits_Linear_5,0,1,48,46,1883582320
25,18,19,Jits_Linear_5,1,5,63,98,1883631944
25,18,19,Jits_Linear_5,2,5,56,103,1883661548
25,18,19,Jits_Linear_5,3,5,80,127,1883682216
25,18,19,Jits_Linear_5,0,5,80,127,1884202368
25,18,19,Jits_Linear_5,1,1,48,38,1884211516
25,18,19,Jits_Linear_5,2,5,56,103,1884213152
25,18,19,Jits_Linear_5,3,5,63,98,1884222004
25,18,19,Jits_Linear_5,0,1,48,45,1884791264
25,18,19,Jits_Linear_5,1,5,56,103,1884802372
25,18,19,Jits_Linear_5,2,5,80,127,1884842412
25,18,19,Jits_Linear_5,3,5,63,98,1884871940
25,18,19,Jits_Linear_5,0,5,63,98,1885411928
25,18,19,Jits_Linear_5,1,1,48,48,1885417964
25,18,19,Jits_Linear_5,2,5,80,127,1885422116
25,18,19,Jits_Linear_5,3,5,56,103,1885432164
25,18,19,Jits_Linear_5,0,5,56,103,1885992300
25,18,19,Jits_Linear_5,1,1,48,45,1885994388
25,18,19,Jits_Linear_5,2,5,63,98,1886062052
25,18,19,Jits_Linear_5,3,5,80,127,1886072176
25,18,19,Jits_Linear_5,0,5,80,127,1886601540
25,18,19,Jits_Linear_5,1,5,56,103,1886611764
25,18,19,Jits_Linear_5,2,1,48,48,1886649728
25,18,19,Jits_Linear_5,3,5,63,98,1886662036
25,18,19,Jits_Linear_5,0,5,80,127,1887222040
25,18,19,Jits_Linear_5,1,1,48,42,1887258868
25,18,19,Jits_Linear_5,2,5,56,103,1887281380
25,18,19,Jits_Linear_5,3,5,63,98,1887312104
25,18,19,Jits_Linear_5,0,5,56,103,1887832476
25,18,19,Jits_Linear_5,1,5,80,127,1887835544
25,18,19,Jits_Linear_5,2,5,63,98,1887872344
25,18,19,Jits_Linear_5,3,1,48,54,1887910256
25,18,19,Jits_Linear_5,0,5,56,103,1888472376
25,18,19,Jits_Linear_5,1,1,48,40,1888501976
25,18,19,Jits_Linear_5,2,5,63,98,1888503688
25,18,19,Jits_Linear_5,3,5,80,127,1888512240
25,18,19,Jits_Linear_5,0,5,63,98,1889091952
25,18,19,Jits_Linear_5,1,5,80,127,1889102152
25,18,19,Jits_Linear_5,2,5,56,103,1889112420
25,18,19,Jits_Linear_5,3,1,48,47,1889127000
25,18,19,Jits_Linear_5,0,5,80,127,1889652024
25,18,19,Jits_Linear_5,1,5,56,103,1889702252
25,18,19,Jits_Linear_5,2,5,63,98,1889705244
25,18,19,Jits_Linear_5,3,1,48,41,1889719836
25,18,19,Jits_Linear_5,0,5,56,103,1890302180
25,18,19,Jits_Linear_5,1,1,48,43,1890320460
25,18,19,Jits_Linear_5,2,5,80,127,1890322256
25,18,19,Jits_Linear_5,3,5,63,98,1890332008
25,18,19,Jits_Linear_5,0,5,63,98,1890902352
25,18,19,Jits_Linear_5,1,1,48,45,1890919940
25,18,19,Jits_Linear_5,2,5,56,103,1890931948
25,18,19,Jits_Linear_5,3,5,80,127,1890951508
25,18,19,Jits_Linear_5,0,1,48,40,1891488624
25,18,19,Jits_Linear_5,1,5,56,103,1891532268
25,18,19,Jits_Linear_5,2,5,80,127,1891542540
25,18,19,Jits_Linear_5,3,5,63,98,1891611984
25,18,19,Jits_Linear_5,0,5,63,98,1892141572
25,18,19,Jits_Linear_5,1,1,48,44,1892145060
25,18,19,Jits_Linear_5,2,5,80,127,1892182628
25,18,19,Jits_Linear_5,3,5,56,103,1892222344
25,18,19,Jits_Linear_5,0,1,48,43,1892757668
25,18,19,Jits_Linear_5,1,5,56,103,1892781452
25,18,19,Jits_Linear_5,2,5,63,98,1892791800
25,18,19,Jits_Linear_5,3,5,80,127,1892812108
25,18,19,Jits_Linear_5,0,1,48,44,1893379192
25,18,19,Jits_Linear_5,1,5,63,98,1893452184
25,18,19,Jits_Linear_5,2,5,80,127,1893471584
25,18,19,Jits_Linear_5,3,5,56,103,1893491968
25,18,19,Jits_Linear_5,0,5,56,103,1894031624
25,18,19,Jits_Linear_5,1,1,48,40,1894094904
25,18,19,Jits_Linear_5,2,5,80,127,1894111564
25,18,19,Jits_Linear_5,3,5,63,98,1894121760
25,18,19,Jits_Linear_5,0,5,80,127,1894711664
25,18,19,Jits_Linear_5,1,5,63,98,1894721932
25,18,19,Jits_Linear_5,2,1,48,40,1894726100
25,18,19,Jits_Linear_5,3,5,56,103,1894751528
25,18,19,Jits_Linear_5,0,5,63,98,1895311780
25,18,19,Jits_Linear_5,1,1,48,37,1895345988
25,18,19,Jits_Linear_5,2,5,80,127,1895351788
25,18,19,Jits_Linear_5,3,5,56,103,1895412032
25,18,19,Jits_Linear_5,0,5,63,98,1895972396
25,18,19,Jits_Linear_5,1,1,48,32,1895980620
25,18,19,Jits_Linear_5,2,5,56,103,1896022520
25,18,19,Jits_Linear_5,3,5,80,127,1896052048
25,18,19,Jits_Linear_5,0,1,48,43,1896612408
25,18,19,Jits_Linear_5,1,5,80,127,1896621500
25,18,19,Jits_Linear_5,2,5,63,98,1896631624
25,18,19,Jits_Linear_5,3,5,56,103,1896702352
25,18,19,Jits_Linear_5,0,1,48,42,1897241112
25,18,19,Jits_Linear_5,1,5,80,127,1897331944
25,18,19,Jits_Linear_5,2,5,56,103,1897342424
25,18,19,Jits_Linear_5,3,5,63,98,1897345416
25,18,19,Jits_Linear_5,0,5,56,103,1897911600
25,18,19,Jits_Linear_5,1,1,48,41,1897925208
25,18,19,Jits_Linear_5,2,5,80,127,1897932128
25,18,19,Jits_Linear_5,3,5,63,98,1897942324
25,18,19,Jits_Linear_5,0,5,63,98,1898561824
25,18,19,Jits_Linear_5,1,1,48,43,1898564644
25,18,19,Jits_Linear_5,2,5,56,103,1898601832
25,18,19,Jits_Linear_5,3,5,80,127,1898622288
25,18,19,Jits_Linear_5,0,1,48,45,1899199344
25,18,19,Jits_Linear_5,1,5,63,98,1899202008
25,18,19,Jits_Linear_5,2,5,56,103,1899262324
25,18,19,Jits_Linear_5,3,5,80,127,1899265316
25,18,19,Jits_Linear_5,0,5,56,103,1899821424
25,18,19,Jits_Linear_5,1,5,80,127,1899841808
25,18,19,Jits_Linear_5,2,1,48,43,1899850700
25,18,19,Jits_Linear_5,3,5,63,98,1899881740
25,18,19,Jits_Linear_5,0,1,48,38,1900459648
25,18,19,Jits_Linear_5,1,5,56,103,1900502524
25,18,19,Jits_Linear_5,2,5,63,98,1900521788
25,18,19,Jits_Linear_5,3,5,80,127,1900532132
25,18,19,Jits_Linear_5,0,5,80,127,1901122016
25,18,19,Jits_Linear_5,1,1,48,42,1901134576
25,18,19,Jits_Linear_5,2,5,56,103,1901151464
25,18,19,Jits_Linear_5,3,5,63,98,1901191480
25,18,19,Jits_Linear_5,0,1,48,48,1901766004
25,18,19,Jits_Linear_5,1,5,80,127,1901782368
25,18,19,Jits_Linear_5,2,5,56,103,1901801932
25,18,19,Jits_Linear_5,3,5,63,98,1901862156
25,18,19,Jits_Linear_5,0,5,56,103,1902441796
25,18,19,Jits_Linear_5,1,1,48,47,1902448576
25,18,19,Jits_Linear_5,2,5,80,127,1902462248
25,18,19,Jits_Linear_5,3,5,63,98,1902521692
25,18,19,Jits_Linear_5,0,1,48,47,1903067796
25,18,19,Jits_Linear_5,1,5,80,127,1903081692
25,18,19,Jits_Linear_5,2,5,56,103,1903092260
25,18,19,Jits_Linear_5,3,5,63,98,1903132124
25,18,19,Jits_Linear_5,0,1,48,46,1903701152
25,18,19,Jits_Linear_5,1,5,63,98,1903742304
25,18,19,Jits_Linear_5,2,5,56,103,1903782344
25,18,19,Jits_Linear_5,3,5,80,127,1903785340
25,18,19,Jits_Linear_5,0,1,48,51,1904367840
25,18,19,Jits_Linear_5,1,5,63,98,1904422268
25,18,19,Jits_Linear_5,2,5,80,127,1904462360
25,18,19,Jits_Linear_5,3,5,56,103,1904492096
25,18,19,Jits_Linear_5,0,1,48,41,1905046240
25,18,19,Jits_Linear_5,1,5,56,103,1905071520
25,18,19,Jits_Linear_5,2,5,63,98,1905081868
25,18,19,Jits_Linear_5,3,5,80,127,1905112440
25,18,19,Jits_Linear_5,0,1,48,50,1905682060
25,18,19,Jits_Linear_5,1,5,80,127,1905732136
25,18,19,Jits_Linear_5,2,5,63,98,1905801584
25,18,19,Jits_Linear_5,3,5,56,103,1905811952
25,18,19,Jits_Linear_5,0,5,63,98,1906402000
25,18,19,Jits_Linear_5,1,1,48,44,1906420632
25,18,19,Jits_Linear_5,2,5,56,103,1906472204
25,18,19,Jits_Linear_5,3,5,80,127,1906481648
25,18,19,Jits_Linear_5,0,5,63,98,1907072356
25,18,19,Jits_Linear_5,1,1,48,46,1907084840
25,18,19,Jits_Linear_5,2,5,56,103,1907091912
25,18,19,Jits_Linear_5,3,5,80,127,1907131848
25,18,19,Jits_Linear_5,0,1,48,44,1907729032
25,18,19,Jits_Linear_5,1,5,56,103,1907752296
25,18,19,Jits_Linear_5,2,5,63,98,1907761668
25,18,19,Jits_Linear_5,3,5,80,127,1907842272
25,18,19,Jits_Linear_5,0,1,48,46,1908386908
25,18,19,Jits_Linear_5,1,5,63,98,1908411964
25,18,19,Jits_Linear_5,2,5,56,103,1908441344
25,18,19,Jits_Linear_5,3,5,80,127,1908483360
25,18,19,Jits_Linear_5,0,1,48,49,1909033664
25,18,19,Jits_Linear_5,1,5,56,103,1909081424
25,18,19,Jits_Linear_5,2,5,63,98,1909122412
25,18,19,Jits_Linear_5,3,5,80,127,1909162360
25,18,19,Jits_Linear_5,0,1,48,49,1909688228
25,18,19,Jits_Linear_5,1,5,80,127,1909762368
25,18,19,Jits_Linear_5,2,5,56,103,1909842152
25,18,19,Jits_Linear_5,3,5,63,98,1909851896
25,18,19,Jits_Linear_5,0,5,56,103,1910482196
25,18,19,Jits_Linear_5,1,5,63,98,1910485268
25,18,19,Jits_Linear_5,2,5,80,127,1910491796
25,18,19,Jits_Linear_5,3,1,48,43,1910511632
25,18,19,Jits_Linear_5,0,1,48,44,1911153056
25,18,19,Jits_Linear_5,1,5,56,103,1911181728
25,18,19,Jits_Linear_5,2,5,63,98,1911202040
25,18,19,Jits_Linear_5,3,5,80,127,1911212536
25,18,19,Jits_Linear_5,0,1,48,49,1911813180
25,18,19,Jits_Linear_5,1,5,63,98,1911831860
25,18,19,Jits_Linear_5,2,5,80,127,1911842132
25,18,19,Jits_Linear_5,3,5,56,103,1911861692
25,18,19,Jits_Linear_5,0,1,48,48,1912475832
25,18,19,Jits_Linear_5,1,5,63,98,1912522012
25,18,19,Jits_Linear_5,2,5,56,103,1912601868
25,18,19,Jits_Linear_5,3,5,80,127,1912605016
25,18,19,Jits_Linear_5,0,5,63,98,1913212380
25,18,19,Jits_Linear_5,1,1,48,43,1913215868
25,18,19,Jits_Linear_5,2,5,56,103,1913231808
25,18,19,Jits_Linear_5,3,5,80,127,1913261636
25,18,19,Jits_Linear_5,0,1,48,41,1913896212
25,18,19,Jits_Linear_5,1,5,56,103,1913901636
25,18,19,Jits_Linear_5,2,5,63,98,1913921876
25,18,19,Jits_Linear_5,3,5,80,127,1913932072
25,18,19,Jits_Linear_5,0,1,48,44,1914579100
25,18,19,Jits_Linear_5,1,5,56,103,1914622516
25,18,19,Jits_Linear_5,2,5,63,98,1914651968
25,18,19,Jits_Linear_5,3,5,80,127,1914655332
25,18,19,Jits_Linear_5,0,5,56,103,1915262528
25,18,19,Jits_Linear_5,1,1,48,46,1915276660
25,18,19,Jits_Linear_5,2,5,63,98,1915302236
25,18,19,Jits_Linear_5,3,5,80,127,1915361732
25,18,19,Jits_Linear_5,0,1,48,45,1915957660
25,18,19,Jits_Linear_5,1,5,56,103,1915972004
25,18,19,Jits_Linear_5,2,5,63,98,1915982204
25,18,19,Jits_Linear_5,3,5,80,127,1916041696
25,18,19,Jits_Linear_5,0,1,48,49,1916641092
25,18,19,Jits_Linear_5,1,5,56,103,1916672360
25,18,19,Jits_Linear_5,2,5,80,127,1916691700
25,18,19,Jits_Linear_5,3,5,63,98,1916721744
25,18,19,Jits_Linear_5,0,1,48,52,1917331252
25,18,19,Jits_Linear_5,1,5,80,127,1917371736
25,18,19,Jits_Linear_5,2,5,56,103,1917381856
25,18,19,Jits_Linear_5,3,5,63,98,1917401716
25,18,19,Jits_Linear_5,0,1,48,45,1917996652
25,18,19,Jits_Linear_5,1,5,63,98,1918061948
25,18,19,Jits_Linear_5,2,5,80,127,1918141756
25,18,19,Jits_Linear_5,3,5,56,103,1918152176
25,18,19,Jits_Linear_5,0,1,48,43,1918803412
25,18,19,Jits_Linear_5,1,5,80,127,1918821720
25,18,19,Jits_Linear_5,2,5,56,103,1918842328
25,18,19,Jits_Linear_5,3,5,63,98,1918845468
25,18,19,Jits_Linear_5,0,5,63,98,1919501620
25,18,19,Jits_Linear_5,1,5,80,127,1919504908
25,18,19,Jits_Linear_5,2,1,48,47,1919527960
25,18,19,Jits_Linear_5,3,5,56,103,1919562228
25,18,19,Jits_Linear_5,0,5,56,103,1920191852
25,18,19,Jits_Linear_5,1,5,80,127,1920202120
25,18,19,Jits_Linear_5,2,1,48,40,1920212664
25,18,19,Jits_Linear_5,3,5,63,98,1920241980
25,18,19,Jits_Linear_5,0,5,56,103,1920882076
25,18,19,Jits_Linear_5,1,1,48,39,1920900488
25,18,19,Jits_Linear_5,2,5,63,98,1920941512
25,18,19,Jits_Linear_5,3,5,80,127,1920951636
25,18,19,Jits_Linear_5,0,1,48,51,1921582776
25,18,19,Jits_Linear_5,1,5,63,98,1921601836
25,18,19,Jits_Linear_5,2,5,80,127,1921641776
25,18,19,Jits_Linear_5,3,5,56,103,1921682320
25,18,19,Jits_Linear_5,0,1,48,44,1922280512
25,18,19,Jits_Linear_5,1,5,56,103,1922321668
25,18,19,Jits_Linear_5,2,5,63,98,1922401600
25,18,19,Jits_Linear_5,3,5,80,127,1922404964
25,18,19,Jits_Linear_5,0,1,48,47,1922996200
25,18,19,Jits_Linear_5,1,5,80,127,1923091688
25,18,19,Jits_Linear_5,2,5,56,103,1923121420
25,18,19,Jits_Linear_5,3,5,63,98,1923124712
25,18,19,Jits_Linear_5,0,5,56,103,1923771736
25,18,19,Jits_Linear_5,1,1,48,46,1923775900
25,18,19,Jits_Linear_5,2,5,80,127,1923792412
25,18,19,Jits_Linear_5,3,5,63,98,1923832424
25,18,19,Jits_Linear_5,0,5,80,127,1924472296
25,18,19,Jits_Linear_5,1,5,63,98,1924491564
25,18,19,Jits_Linear_5,2,1,48,54,1924549064
25,18,19,Jits_Linear_5,3,5,56,103,1924552172
25,18,19,Jits_Linear_5,0,5,63,98,1925202236
25,18,19,Jits_Linear_5,1,5,56,103,1925211536
25,18,19,Jits_Linear_5,2,1,48,50,1925228880
25,18,19,Jits_Linear_5,3,5,80,127,1925261608
25,18,19,Jits_Linear_5,0,1,48,38,1925913936
25,18,19,Jits_Linear_5,1,5,56,103,1925922352
25,18,19,Jits_Linear_5,2,5,63,98,1925941620
25,18,19,Jits_Linear_5,3,5,80,127,1925952112
25,18,19,Jits_Linear_5,0,5,56,103,1926642184
25,18,19,Jits_Linear_5,1,1,48,52,1926645252
25,18,19,Jits_Linear_5,2,5,63,98,1926646664
25,18,19,Jits_Linear_5,3,5,80,127,1926661520
25,18,19,Jits_Linear_5,0,1,48,38,1927308172
25,18,19,Jits_Linear_5,1,5,63,98,1927412192
25,18,19,Jits_Linear_5,2,5,56,103,1927441644
25,18,19,Jits_Linear_5,3,5,80,127,1927471472
25,18,19,Jits_Linear_5,0,1,48,42,1928082492
25,18,19,Jits_Linear_5,1,5,80,127,1928102368
25,18,19,Jits_Linear_5,2,5,56,103,1928192260
25,18,19,Jits_Linear_5,3,5,63,98,1928195408
25,18,19,Jits_Linear_5,0,5,56,103,1928832360
25,18,19,Jits_Linear_5,1,5,80,127,1928835424
25,18,19,Jits_Linear_5,2,1,48,44,1928872664
25,18,19,Jits_Linear_5,3,5,63,98,1928912096
25,18,19,Jits_Linear_5,0,5,80,127,1929561408
25,18,19,Jits_Linear_5,1,5,63,98,1929621976
25,18,19,Jits_Linear_5,2,1,48,42,1929635656
25,18,19,Jits_Linear_5,3,5,56,103,1929651496
25,18,19,Jits_Linear_5,0,5,63,98,1930291444
25,18,19,Jits_Linear_5,1,5,80,127,1930301940
25,18,19,Jits_Linear_5,2,1,48,42,1930346636
25,18,19,Jits_Linear_5,3,5,56,103,1930371316
25,18,19,Jits_Linear_5,0,5,56,103,1931052472
25,18,19,Jits_Linear_5,1,1,48,40,1931064056
25,18,19,Jits_Linear_5,2,5,80,127,1931082144
25,18,19,Jits_Linear_5,3,5,63,98,1931132272
25,18,19,Jits_Linear_5,0,1,48,41,1931821068
25,18,19,Jits_Linear_5,1,5,63,98,1931831804
25,18,19,Jits_Linear_5,2,5,56,103,1931862524
25,18,19,Jits_Linear_5,3,5,80,127,1931865812
25,18,19,Jits_Linear_5,0,5,63,98,1932572012
25,18,19,Jits_Linear_5,1,1,48,48,1932587336
25,18,19,Jits_Linear_5,2,5,80,127,1932591492
25,18,19,Jits_Linear_5,3,5,56,103,1932601908
25,18,19,Jits_Linear_5,0,1,48,46,1933320216
25,18,19,Jits_Linear_5,1,5,56,103,1933321800
25,18,19,Jits_Linear_5,2,5,63,98,1933324796
25,18,19,Jits_Linear_5,3,5,80,127,1933341964
25,18,19,Jits_Linear_5,0,5,56,103,1934021924
25,18,19,Jits_Linear_5,1,5,63,98,1934032200
25,18,19,Jits_Linear_5,2,1,48,49,1934052704
25,18,19,Jits_Linear_5,3,5,80,127,1934061868
25,18,19,Jits_Linear_5,0,1,48,49,1934766976
25,18,19,Jits_Linear_5,1,5,63,98,1934791960
25,18,19,Jits_Linear_5,2,5,80,127,1934811672
25,18,19,Jits_Linear_5,3,5,56,103,1934851464
25,18,19,Jits_Linear_5,0,1,48,43,1935561664
25,18,19,Jits_Linear_5,1,5,56,103,1935572624
25,18,19,Jits_Linear_5,2,5,63,98,1935612416
25,18,19,Jits_Linear_5,3,5,80,127,1935615852
25,18,19,Jits_Linear_5,0,5,80,127,1936261564
25,18,19,Jits_Linear_5,1,5,56,103,1936301384
25,18,19,Jits_Linear_5,2,5,63,98,1936351808
25,18,19,Jits_Linear_5,3,1,48,44,1936370364
25,18,19,Jits_Linear_5,0,5,56,103,1937071640
25,18,19,Jits_Linear_5,1,5,80,127,1937081912
25,18,19,Jits_Linear_5,2,5,63,98,1937112712
25,18,19,Jits_Linear_5,3,1,48,32,1937292588
25,18,19,Jits_Linear_5,0,5,56,103,1937771836
25,18,19,Jits_Linear_5,1,5,80,127,1937811804
25,18,19,Jits_Linear_5,2,5,63,98,1937862004
25,18,19,Jits_Linear_5,3,1,48,31,1937985812
25,18,19,Jits_Linear_5,0,5,56,103,1938531616
25,18,19,Jits_Linear_5,1,5,80,127,1938571804
25,18,19,Jits_Linear_5,2,1,48,27,1938584436
25,18,19,Jits_Linear_5,3,5,63,98,1938621704
25,18,19,Jits_Linear_5,0,5,80,127,1939282252
25,18,19,Jits_Linear_5,1,1,48,30,1939288288
25,18,19,Jits_Linear_5,2,5,63,98,1939362296
25,18,19,Jits_Linear_5,3,5,56,103,1939372640
25,18,19,Jits_Linear_5,0,1,48,42,1940068808
25,18,19,Jits_Linear_5,1,5,80,127,1940092224
25,18,19,Jits_Linear_5,2,5,56,103,1940101520
25,18,19,Jits_Linear_5,3,5,63,98,1940122080
25,18,19,Jits_Linear_5,0,5,63,98,1940822468
25,18,19,Jits_Linear_5,1,1,48,45,1940829644
25,18,19,Jits_Linear_5,2,5,56,103,1940891948
25,18,19,Jits_Linear_5,3,5,80,127,1940895236
25,18,19,Jits_Linear_5,0,1,48,46,1941579184
25,18,19,Jits_Linear_5,1,5,80,127,1941582516
25,18,19,Jits_Linear_5,2,5,63,98,1941632424
25,18,19,Jits_Linear_5,3,5,56,103,1941672388
25,18,19,Jits_Linear_5,0,1,48,45,1942381296
25,18,19,Jits_Linear_5,1,5,63,98,1942392184
25,18,19,Jits_Linear_5,2,5,56,103,1942432076
25,18,19,Jits_Linear_5,3,5,80,127,1942442568
25,18,19,Jits_Linear_5,0,5,63,98,1943151884
25,18,19,Jits_Linear_5,1,1,48,45,1943169784
25,18,19,Jits_Linear_5,2,5,56,103,1943171516
25,18,19,Jits_Linear_5,3,5,80,127,1943191776
25,18,19,Jits_Linear_5,0,5,80,127,1943882128
25,18,19,Jits_Linear_5,1,1,48,43,1943883464
25,18,19,Jits_Linear_5,2,5,56,103,1943892392
25,18,19,Jits_Linear_5,3,5,63,98,1943911656
25,18,19,Jits_Linear_5,0,1,48,44,1944579608
25,18,19,Jits_Linear_5,1,5,63,98,1944681740
25,18,19,Jits_Linear_5,2,5,56,103,1944721780
25,18,19,Jits_Linear_5,3,5,80,127,1944751532
25,18,19,Jits_Linear_5,0,1,48,35,1945417284
25,18,19,Jits_Linear_5,1,5,56,103,1945462272
25,18,19,Jits_Linear_5,2,5,63,98,1945491752
25,18,19,Jits_Linear_5,3,5,80,127,1945521412
25,18,19,Jits_Linear_5,0,5,80,127,1946211632
25,18,19,Jits_Linear_5,1,1,48,36,1946268488
25,18,19,Jits_Linear_5,2,5,56,103,1946282456
25,18,19,Jits_Linear_5,3,5,63,98,1946285596
25,18,19,Jits_Linear_5,0,5,56,103,1947002192
25,18,19,Jits_Linear_5,1,5,63,98,1947052348
25,18,19,Jits_Linear_5,2,5,80,127,1947082172
25,18,19,Jits_Linear_5,3,1,48,40,1947135932
25,18,19,Jits_Linear_5,0,5,63,98,1947762120
25,18,19,Jits_Linear_5,1,5,80,127,1947765336
25,18,19,Jits_Linear_5,2,5,56,103,1947821416
25,18,19,Jits_Linear_5,3,1,48,32,1947909024
25,18,19,Jits_Linear_5,0,5,56,103,1948572092
25,18,19,Jits_Linear_5,1,5,80,127,1948582216
25,18,19,Jits_Linear_5,2,1,48,30,1948609520
25,18,19,Jits_Linear_5,3,5,63,98,1948632412
25,18,19,Jits_Linear_5,0,5,63,98,1949331948
25,18,19,Jits_Linear_5,1,5,56,103,1949341996
25,18,19,Jits_Linear_5,2,1,48,35,1949354108
25,18,19,Jits_Linear_5,3,5,80,127,1949371736
25,18,19,Jits_Linear_5,0,1,48,37,1950111756
25,18,19,Jits_Linear_5,1,5,63,98,1950152084
25,18,19,Jits_Linear_5,2,5,80,127,1950155596
25,18,19,Jits_Linear_5,3,5,56,103,1950181836
25,18,19,Jits_Linear_5,0,1,48,36,1950918544
25,18,19,Jits_Linear_5,1,5,63,98,1950962116
25,18,19,Jits_Linear_5,2,5,56,103,1950981452
25,18,19,Jits_Linear_5,3,5,80,127,1950984668
25,18,19,Jits_Linear_5,0,5,63,98,1951711760
25,18,19,Jits_Linear_5,1,1,48,39,1951733760
25,18,19,Jits_Linear_5,2,5,56,103,1951782188
25,18,19,Jits_Linear_5,3,5,80,127,1951801824
25,18,19,Jits_Linear_5,0,5,56,103,1952491976
25,18,19,Jits_Linear_5,1,5,63,98,1952502100
25,18,19,Jits_Linear_5,2,1,48,39,1952524772
25,18,19,Jits_Linear_5,3,5,80,127,1952592228
25,18,19,Jits_Linear_5,0,1,48,34,1953269612
25,18,19,Jits_Linear_5,1,5,56,103,1953302020
25,18,19,Jits_Linear_5,2,5,80,127,1953341888
25,18,19,Jits_Linear_5,3,5,63,98,1953352084
25,18,19,Jits_Linear_5,0,5,56,103,1954122176
25,18,19,Jits_Linear_5,1,1,48,44,1954123736
25,18,19,Jits_Linear_5,2,5,63,98,1954152072
25,18,19,Jits_Linear_5,3,5,80,127,1954181448
25,18,19,Jits_Linear_5,0,5,80,127,1954881804
25,18,19,Jits_Linear_5,1,5,63,98,1954921896
25,18,19,Jits_Linear_5,2,1,48,42,1954929892
25,18,19,Jits_Linear_5,3,5,56,103,1954942272
25,18,19,Jits_Linear_5,0,5,56,103,1955721920
25,18,19,Jits_Linear_5,1,5,80,127,1955741932
25,18,19,Jits_Linear_5,2,1,48,40,1955759676
25,18,19,Jits_Linear_5,3,5,63,98,1955761488
25,18,19,Jits_Linear_5,0,5,63,98,1956491736
25,18,19,Jits_Linear_5,1,5,56,103,1956502004
25,18,19,Jits_Linear_5,2,5,80,127,1956562248
25,18,19,Jits_Linear_5,3,1,48,42,1956608732
25,18,19,Jits_Linear_5,0,5,56,103,1957301840
25,18,19,Jits_Linear_5,1,1,48,38,1957314704
25,18,19,Jits_Linear_5,2,5,63,98,1957372268
25,18,19,Jits_Linear_5,3,5,80,127,1957391608
25,18,19,Jits_Linear_5,0,5,56,103,1958111668
25,18,19,Jits_Linear_5,1,1,48,38,1958129608
25,18,19,Jits_Linear_5,2,5,63,98,1958142384
25,18,19,Jits_Linear_5,3,5,80,127,1958182400
25,18,19,Jits_Linear_5,0,5,63,98,1958912352
25,18,19,Jits_Linear_5,1,1,48,40,1958939584
25,18,19,Jits_Linear_5,2,5,56,103,1958961652
25,18,19,Jits_Linear_5,3,5,80,127,1958971700
25,18,19,Jits_Linear_5,0,1,48,38,1959726840
25,18,19,Jits_Linear_5,1,5,56,103,1959762240
25,18,19,Jits_Linear_5,2,5,63,98,1959811696
25,18,19,Jits_Linear_5,3,5,80,127,1959821844
25,18,19,Jits_Linear_5,0,5,56,103,1960541492
25,18,19,Jits_Linear_5,1,5,63,98,1960551688
25,18,19,Jits_Linear_5,2,1,48,41,1960568508
25,18,19,Jits_Linear_5,3,5,80,127,1960631800
25,18,19,Jits_Linear_5,0,9999,9999,9999,1851719764
25,18,19,Jits_Linear_5,1,9999,9999,9999,1852200000
25,18,19,Jits_Linear_5,2,9999,9999,9999,1852679284
25,18,19,Jits_Linear_5,3,9999,9999,9999,1853159532
25,18,19,Jits_Linear_5,4,9999,9999,9999,1853639780
25,18,19,Jits_Linear_5,5,9999,9999,9999,1854129260
25,18,19,Jits_Linear_5,6,9999,9999,9999,1854619764
25,18,19,Jits_Linear_5,7,9999,9999,9999,1855109212
25,18,19,Jits_Linear_5,8,9999,9999,9999,1855599712
25,18,19,Jits_Linear_5,9,9999,9999,9999,1856089152
25,18,19,Jits_Linear_5,10,9999,9999,9999,1856589904
25,18,19,Jits_Linear_5,11,9999,9999,9999,1857089608
25,18,19,Jits_Linear_5,12,9999,9999,9999,1857589364
25,18,19,Jits_Linear_5,13,9999,9999,9999,1858090096
25,18,19,Jits_Linear_5,14,9999,9999,9999,1858589768
25,18,19,Jits_Linear_5,15,9999,9999,9999,1859099720
25,18,19,Jits_Linear_5,16,9999,9999,9999,1859609668
25,18,19,Jits_Linear_5,17,9999,9999,9999,1860119620
25,18,19,Jits_Linear_5,18,9999,9999,9999,1860629568
25,18,19,Jits_Linear_5,19,9999,9999,9999,1861139524
25,18,19,Jits_Linear_5,20,9999,9999,9999,1861659740
25,18,19,Jits_Linear_5,21,9999,9999,9999,1862179956
25,18,19,Jits_Linear_5,22,9999,9999,9999,1862699120
25,18,19,Jits_Linear_5,23,9999,9999,9999,1863219260
25,18,19,Jits_Linear_5,24,9999,9999,9999,1863739476
25,18,19,Jits_Linear_5,25,9999,9999,9999,1864269952
25,18,19,Jits_Linear_5,26,9999,9999,9999,1864799308
25,18,19,Jits_Linear_5,27,9999,9999,9999,1865329780
25,18,19,Jits_Linear_5,28,9999,9999,9999,1865859152
25,18,19,Jits_Linear_5,29,9999,9999,9999,1866389580
25,18,19,Jits_Linear_5,30,9999,9999,9999,1866929216
25,18,19,Jits_Linear_5,31,9999,9999,9999,1867469900
25,18,19,Jits_Linear_5,32,9999,9999,9999,1868009592
25,18,19,Jits_Linear_5,33,9999,9999,9999,1868549232
25,18,19,Jits_Linear_5,34,9999,9999,9999,1869089912
25,18,19,Jits_Linear_5,35,9999,9999,9999,1869639744
25,18,19,Jits_Linear_5,36,9999,9999,9999,1870189664
25,18,19,Jits_Linear_5,37,9999,9999,9999,1870739576
25,18,19,Jits_Linear_5,38,9999,9999,9999,1871289460
25,18,19,Jits_Linear_5,39,9999,9999,9999,1871839352
25,18,19,Jits_Linear_5,40,9999,9999,9999,1872399428
25,18,19,Jits_Linear_5,41,9999,9999,9999,1872959588
25,18,19,Jits_Linear_5,42,9999,9999,9999,1873519672
25,18,19,Jits_Linear_5,43,9999,9999,9999,1874079844
25,18,19,Jits_Linear_5,44,9999,9999,9999,1874639992
25,18,19,Jits_Linear_5,45,9999,9999,9999,1875209280
25,18,19,Jits_Linear_5,46,9999,9999,9999,1875779692
25,18,19,Jits_Linear_5,47,9999,9999,9999,1876350012
25,18,19,Jits_Linear_5,48,9999,9999,9999,1876919376
25,18,19,Jits_Linear_5,49,9999,9999,9999,1877489736
25,18,19,Jits_Linear_5,50,9999,9999,9999,1878069356
25,18,19,Jits_Linear_5,51,9999,9999,9999,1878649972
25,18,19,Jits_Linear_5,52,9999,9999,9999,1879229496
25,18,19,Jits_Linear_5,53,9999,9999,9999,1879809140
25,18,19,Jits_Linear_5,54,9999,9999,9999,1880389744
25,18,19,Jits_Linear_5,55,9999,9999,9999,1880979532
25,18,19,Jits_Linear_5,56,9999,9999,9999,1881569364
25,18,19,Jits_Linear_5,57,9999,9999,9999,1882159188
25,18,19,Jits_Linear_5,58,9999,9999,9999,1882750060
25,18,19,Jits_Linear_5,59,9999,9999,9999,1883339888
25,18,19,Jits_Linear_5,60,9999,9999,9999,1883939916
25,18,19,Jits_Linear_5,61,9999,9999,9999,1884539992
25,18,19,Jits_Linear_5,62,9999,9999,9999,1885140036
25,18,19,Jits_Linear_5,63,9999,9999,9999,1885739068
25,18,19,Jits_Linear_5,64,9999,9999,9999,1886339152
25,18,19,Jits_Linear_5,65,9999,9999,9999,1886949460
25,18,19,Jits_Linear_5,66,9999,9999,9999,1887559748
25,18,19,Jits_Linear_5,67,9999,9999,9999,1888170052
25,18,19,Jits_Linear_5,68,9999,9999,9999,1888779364
25,18,19,Jits_Linear_5,69,9999,9999,9999,1889389652
25,18,19,Jits_Linear_5,70,9999,9999,9999,1890009148
25,18,19,Jits_Linear_5,71,9999,9999,9999,1890629696
25,18,19,Jits_Linear_5,72,9999,9999,9999,1891249220
25,18,19,Jits_Linear_5,73,9999,9999,9999,1891869756
25,18,19,Jits_Linear_5,74,9999,9999,9999,1892489316
25,18,19,Jits_Linear_5,75,9999,9999,9999,1893120060
25,18,19,Jits_Linear_5,76,9999,9999,9999,1893760084
25,18,19,Jits_Linear_5,77,9999,9999,9999,1894400120
25,18,19,Jits_Linear_5,78,9999,9999,9999,1895040076
25,18,19,Jits_Linear_5,79,9999,9999,9999,1895680128
25,18,19,Jits_Linear_5,80,9999,9999,9999,1896320072
25,18,19,Jits_Linear_5,81,9999,9999,9999,1896960112
25,18,19,Jits_Linear_5,82,9999,9999,9999,1897600120
25,18,19,Jits_Linear_5,83,9999,9999,9999,1898240088
25,18,19,Jits_Linear_5,84,9999,9999,9999,1898880124
25,18,19,Jits_Linear_5,85,9999,9999,9999,1899539560
25,18,19,Jits_Linear_5,86,9999,9999,9999,1900189792
25,18,19,Jits_Linear_5,87,9999,9999,9999,1900840008
25,18,19,Jits_Linear_5,88,9999,9999,9999,1901489264
25,18,19,Jits_Linear_5,89,9999,9999,9999,1902139484
25,18,19,Jits_Linear_5,90,9999,9999,9999,1902799976
25,18,19,Jits_Linear_5,91,9999,9999,9999,1903459408
25,18,19,Jits_Linear_5,92,9999,9999,9999,1904119888
25,18,19,Jits_Linear_5,93,9999,9999,9999,1904779388
25,18,19,Jits_Linear_5,94,9999,9999,9999,1905439872
25,18,19,Jits_Linear_5,95,9999,9999,9999,1906109504
25,18,19,Jits_Linear_5,96,9999,9999,9999,1906779188
25,18,19,Jits_Linear_5,97,9999,9999,9999,1907449916
25,18,19,Jits_Linear_5,98,9999,9999,9999,1908119624
25,18,19,Jits_Linear_5,99,9999,9999,9999,1908789308
25,18,19,Jits_Linear_5,100,9999,9999,9999,1909469280
25,18,19,Jits_Linear_5,101,9999,9999,9999,1910149228
25,18,19,Jits_Linear_5,102,9999,9999,9999,1910829112
25,18,19,Jits_Linear_5,103,9999,9999,9999,1911510076
25,18,19,Jits_Linear_5,104,9999,9999,9999,1912199236
25,18,19,Jits_Linear_5,105,9999,9999,9999,1912889464
25,18,19,Jits_Linear_5,106,9999,9999,9999,1913579624
25,18,19,Jits_Linear_5,107,9999,9999,9999,1914269788
25,18,19,Jits_Linear_5,108,9999,9999,9999,1914959992
25,18,19,Jits_Linear_5,109,9999,9999,9999,1915649084
25,18,19,Jits_Linear_5,110,9999,9999,9999,1916349524
25,18,19,Jits_Linear_5,111,9999,9999,9999,1917049924
25,18,19,Jits_Linear_5,112,9999,9999,9999,1917749376
25,18,19,Jits_Linear_5,113,9999,9999,9999,1918449732
25,18,19,Jits_Linear_5,114,9999,9999,9999,1919149180
25,18,19,Jits_Linear_5,115,9999,9999,9999,1919859768
25,18,19,Jits_Linear_5,116,9999,9999,9999,1920569408
25,18,19,Jits_Linear_5,117,9999,9999,9999,1921280112
25,18,19,Jits_Linear_5,118,9999,9999,9999,1921999956
25,18,19,Jits_Linear_5,119,9999,9999,9999,1922709588
25,18,19,Jits_Linear_5,120,9999,9999,9999,1923429464
25,18,19,Jits_Linear_5,121,9999,9999,9999,1924149368
25,18,19,Jits_Linear_5,122,9999,9999,9999,1924869188
25,18,19,Jits_Linear_5,123,9999,9999,9999,1925590084
25,18,19,Jits_Linear_5,124,9999,9999,9999,1926319200
25,18,19,Jits_Linear_5,125,9999,9999,9999,1927049328
25,18,19,Jits_Linear_5,126,9999,9999,9999,1927779436
25,18,19,Jits_Linear_5,127,9999,9999,9999,1928509520
25,18,19,Jits_Linear_5,128,9999,9999,9999,1929239676
25,18,19,Jits_Linear_5,129,9999,9999,9999,1929969784
25,18,19,Jits_Linear_5,130,9999,9999,9999,1930710080
25,18,19,Jits_Linear_5,131,9999,9999,9999,1931459652
25,18,19,Jits_Linear_5,132,9999,9999,9999,1932200020
25,18,19,Jits_Linear_5,133,9999,9999,9999,1932939328
25,18,19,Jits_Linear_5,134,9999,9999,9999,1933679732
25,18,19,Jits_Linear_5,135,9999,9999,9999,1934429300
25,18,19,Jits_Linear_5,136,9999,9999,9999,1935179864
25,18,19,Jits_Linear_5,137,9999,9999,9999,1935929432
25,18,19,Jits_Linear_5,138,9999,9999,9999,1936680056
25,18,19,Jits_Linear_5,139,9999,9999,9999,1937429572
25,18,19,Jits_Linear_5,140,9999,9999,9999,1938189428
25,18,19,Jits_Linear_5,141,9999,9999,9999,1938949208
25,18,19,Jits_Linear_5,142,9999,9999,9999,1939710036
25,18,19,Jits_Linear_5,143,9999,9999,9999,1940469888
25,18,19,Jits_Linear_5,144,9999,9999,9999,1941229640
25,18,19,Jits_Linear_5,145,9999,9999,9999,1941999744
25,18,19,Jits_Linear_5,146,9999,9999,9999,1942769776
25,18,19,Jits_Linear_5,147,9999,9999,9999,1943539808
25,18,19,Jits_Linear_5,148,9999,9999,9999,1944309828
25,18,19,Jits_Linear_5,149,9999,9999,9999,1945079876
25,18,19,Jits_Linear_5,150,9999,9999,9999,1945859196
25,18,19,Jits_Linear_5,151,9999,9999,9999,1946639476
25,18,19,Jits_Linear_5,152,9999,9999,9999,1947419712
25,18,19,Jits_Linear_5,153,9999,9999,9999,1948200004
25,18,19,Jits_Linear_5,154,9999,9999,9999,1948979320
25,18,19,Jits_Linear_5,155,9999,9999,9999,1949769812
25,18,19,Jits_Linear_5,156,9999,9999,9999,1950559312
25,18,19,Jits_Linear_5,157,9999,9999,9999,1951349856
25,18,19,Jits_Linear_5,158,9999,9999,9999,1952139392
25,18,19,Jits_Linear_5,159,9999,9999,9999,1952929868
25,18,19,Jits_Linear_5,160,9999,9999,9999,1953729656
25,18,19,Jits_Linear_5,161,9999,9999,9999,1954529352
25,18,19,Jits_Linear_5,162,9999,9999,9999,1955329136
25,18,19,Jits_Linear_5,163,9999,9999,9999,1956129892
25,18,19,Jits_Linear_5,164,9999,9999,9999,1956929600
25,18,19,Jits_Linear_5,165,9999,9999,9999,1957739636
25,18,19,Jits_Linear_5,166,9999,9999,9999,1958549560
25,18,19,Jits_Linear_5,167,9999,9999,9999,1959359612
25,18,19,Jits_Linear_5,168,9999,9999,9999,1960169576
25,18,19,Jits_Linear_5,169,9999,9999,9999,1960979532
25,19,3,ISIP_8,0,5,42,127,2022623672
25,19,3,ISIP_8,1,5,42,127,2023424328
25,19,3,ISIP_8,2,5,42,127,2024224084
25,19,3,ISIP_8,3,5,42,127,2025023988
25,19,3,ISIP_8,4,1,48,35,2025818244
25,19,3,ISIP_8,5,5,42,127,2025823660
25,19,3,ISIP_8,6,1,48,35,2026584468
25,19,3,ISIP_8,7,5,42,127,2026624292
25,19,3,ISIP_8,8,1,48,40,2027401356
25,19,3,ISIP_8,9,5,42,127,2027424048
25,19,3,ISIP_8,10,1,48,43,2028187700
25,19,3,ISIP_8,11,5,42,127,2028223708
25,19,3,ISIP_8,12,1,48,48,2028979052
25,19,3,ISIP_8,13,5,42,127,2029023516
25,19,3,ISIP_8,14,1,48,46,2029789484
25,19,3,ISIP_8,15,5,42,127,2029824300
25,19,3,ISIP_8,16,1,48,53,2030607992
25,19,3,ISIP_8,17,5,42,127,2030623960
25,19,3,ISIP_8,18,5,42,127,2031423924
25,19,3,ISIP_8,19,1,48,43,2031426516
25,19,3,ISIP_8,20,1,48,43,2032211648
25,19,3,ISIP_8,21,5,42,127,2032223576
25,19,3,ISIP_8,22,1,48,48,2032982656
25,19,3,ISIP_8,23,5,42,127,2033024428
25,19,3,ISIP_8,24,1,48,42,2033782244
25,19,3,ISIP_8,25,5,42,127,2033824188
25,19,3,ISIP_8,26,1,48,42,2034573552
25,19,3,ISIP_8,27,5,42,127,2034623848
25,19,3,ISIP_8,28,1,48,47,2035395948
25,19,3,ISIP_8,29,5,42,127,2035423580
25,19,3,ISIP_8,30,1,48,43,2036222320
25,19,3,ISIP_8,31,5,42,127,2036224216
25,19,3,ISIP_8,32,5,42,127,2037024028
25,19,3,ISIP_8,33,1,48,46,2037047112
25,19,3,ISIP_8,34,1,48,46,2037818856
25,19,3,ISIP_8,35,5,42,127,2037824048
25,19,3,ISIP_8,36,1,48,47,2038594804
25,19,3,ISIP_8,37,5,42,127,2038623560
25,19,3,ISIP_8,38,1,48,45,2039371572
25,19,3,ISIP_8,39,5,42,127,2039424268
25,19,3,ISIP_8,40,1,48,42,2040167644
25,19,3,ISIP_8,41,5,42,127,2040224100
25,19,3,ISIP_8,42,1,48,43,2040981840
25,19,3,ISIP_8,43,5,42,127,2041023980
25,19,3,ISIP_8,44,1,48,45,2041792040
25,19,3,ISIP_8,45,5,42,127,2041823864
25,19,3,ISIP_8,46,1,48,47,2042613992
25,19,3,ISIP_8,47,5,42,127,2042624272
25,19,3,ISIP_8,48,1,48,40,2043368096
25,19,3,ISIP_8,49,5,42,127,2043424080
25,19,3,ISIP_8,50,1,48,42,2044185408
25,19,3,ISIP_8,51,5,42,127,2044223812
25,19,3,ISIP_8,52,1,48,45,2044984692
25,19,3,ISIP_8,53,5,42,127,2045023768
25,19,3,ISIP_8,54,1,48,35,2045770816
25,19,3,ISIP_8,55,5,42,127,2045824624
25,19,3,ISIP_8,56,1,48,48,2046554964
25,19,3,ISIP_8,57,1,48,42,2047407524
25,19,3,ISIP_8,58,1,48,42,2048167016
25,19,3,ISIP_8,59,1,48,39,2048979008
25,19,3,ISIP_8,60,1,48,38,2049805140
25,19,3,ISIP_8,61,1,48,42,2050630536
25,19,3,ISIP_8,62,1,48,42,2051453528
25,19,3,ISIP_8,63,1,48,45,2052260832
25,19,3,ISIP_8,64,1,48,44,2053085548
25,19,3,ISIP_8,65,1,48,48,2053910332
25,19,3,ISIP_8,66,1,48,42,2054682312
25,19,3,ISIP_8,67,1,48,41,2055523176
25,19,3,ISIP_8,68,1,48,41,2056334900
25,19,3,ISIP_8,69,1,48,42,2057127600
25,19,3,ISIP_8,70,1,48,42,2057990760
25,19,3,ISIP_8,71,1,48,44,2058764156
25,19,3,ISIP_8,72,1,48,40,2059599192
25,19,3,ISIP_8,73,1,48,41,2060400340
25,19,3,ISIP_8,74,1,48,39,2061212064
25,19,3,ISIP_8,75,1,48,43,2062037224
25,19,3,ISIP_8,76,1,48,46,2062873080
25,19,3,ISIP_8,77,1,48,46,2063693008
25,19,3,ISIP_8,78,1,48,44,2064498416
25,19,3,ISIP_8,79,1,48,43,2065323828
25,19,3,ISIP_8,80,1,48,39,2066189828
25,19,3,ISIP_8,81,1,48,44,2067043784
25,19,3,ISIP_8,82,1,48,38,2067887148
25,19,3,ISIP_8,83,1,48,39,2068706096
25,19,3,ISIP_8,84,1,48,47,2069515172
25,19,3,ISIP_8,85,1,48,43,2070324632
25,19,3,ISIP_8,86,1,48,38,2071169188
25,19,3,ISIP_8,87,1,48,38,2071977812
25,19,3,ISIP_8,88,1,48,43,2072796844
25,19,3,ISIP_8,89,1,48,43,2073670544
25,19,3,ISIP_8,90,1,48,37,2074523860
25,19,3,ISIP_8,91,1,48,41,2075364348
25,19,3,ISIP_8,92,1,48,37,2076214796
25,19,3,ISIP_8,93,1,48,41,2077050892
25,19,3,ISIP_8,94,1,48,40,2077942796
25,19,3,ISIP_8,95,1,48,33,2078795932
25,19,3,ISIP_8,96,1,48,35,2079643252
25,19,3,ISIP_8,97,1,48,38,2080450312
25,19,3,ISIP_8,98,1,48,40,2081302104
25,19,3,ISIP_8,99,1,48,39,2082195656
25,19,3,ISIP_8,100,1,48,40,2083033308
25,19,3,ISIP_8,101,1,48,41,2083937224
25,19,3,ISIP_8,102,1,48,27,2084818288
25,19,3,ISIP_8,103,1,48,36,2085616220
25,19,3,ISIP_8,104,1,48,37,2086446468
25,19,3,ISIP_8,105,1,48,38,2087286960
25,19,3,ISIP_8,106,1,48,33,2088193000
25,19,3,ISIP_8,107,1,48,38,2089060284
25,19,3,ISIP_8,108,1,48,32,2089936036
25,19,3,ISIP_8,109,1,48,43,2090820580
25,19,3,ISIP_8,110,1,48,41,2091744052
25,19,3,ISIP_8,111,1,48,39,2092580212
25,19,3,ISIP_8,112,1,48,44,2093466504
25,19,3,ISIP_8,113,1,48,42,2094322860
25,19,3,ISIP_8,114,1,48,44,2095196264
25,19,3,ISIP_8,115,1,48,36,2096104320
25,19,3,ISIP_8,116,1,48,46,2096975852
25,19,3,ISIP_8,117,1,48,45,2097864256
25,19,3,ISIP_8,118,1,48,41,2098746640
25,19,3,ISIP_8,119,1,48,37,2099626132
25,19,3,ISIP_8,120,1,48,41,2100542092
25,19,3,ISIP_8,121,1,48,43,2101448580
25,19,3,ISIP_8,122,1,48,40,2102335976
25,19,3,ISIP_8,123,1,48,46,2103222796
25,19,3,ISIP_8,124,1,48,43,2104088868
25,19,3,ISIP_8,125,1,48,34,2104989752
25,19,3,ISIP_8,126,1,48,39,2105896532
25,19,3,ISIP_8,127,1,48,39,2106764200
25,19,3,ISIP_8,128,1,48,48,2107646060
25,19,3,ISIP_8,129,1,48,42,2108519088
25,19,3,ISIP_8,130,1,48,40,2109381004
25,19,3,ISIP_8,131,1,48,39,2110251192
25,19,3,ISIP_8,132,1,48,42,2111139724
25,19,3,ISIP_8,133,1,48,46,2111989716
25,19,3,ISIP_8,134,1,48,48,2112840164
25,19,3,ISIP_8,135,1,48,43,2113706188
25,19,3,ISIP_8,136,1,48,38,2114596568
25,19,3,ISIP_8,137,1,48,42,2115474504
25,19,3,ISIP_8,138,1,48,48,2116356732
25,19,3,ISIP_8,139,1,48,36,2117260832
25,19,3,ISIP_8,140,1,48,44,2118218232
25,19,3,ISIP_8,141,1,48,40,2119127268
25,19,3,ISIP_8,142,1,48,38,2120048540
25,19,3,ISIP_8,143,1,48,40,2120937904
25,19,3,ISIP_8,144,1,48,40,2121837500
25,19,3,ISIP_8,145,1,48,45,2122733516
25,19,3,ISIP_8,146,1,48,37,2123651828
25,19,3,ISIP_8,147,1,48,44,2124565100
25,19,3,ISIP_8,148,1,48,44,2125450576
25,19,3,ISIP_8,149,1,48,46,2126353296
25,19,3,ISIP_8,150,1,48,43,2127264500
25,19,3,ISIP_8,151,1,48,42,2128189816
25,19,3,ISIP_8,152,1,48,43,2129131848
25,19,3,ISIP_8,153,1,48,47,2130084560
25,19,3,ISIP_8,154,1,48,45,2131072360
25,19,3,ISIP_8,155,1,48,44,2131968872
25,19,3,ISIP_8,156,1,48,38,2132908204
25,19,3,ISIP_8,157,1,48,41,2133825156
25,19,3,ISIP_8,158,1,48,39,2134777196
25,19,3,ISIP_8,159,1,48,32,2135757512
25,19,3,ISIP_8,160,1,48,40,2136692624
25,19,3,ISIP_8,161,1,48,45,2137626720
25,19,3,ISIP_8,162,1,48,43,2138556448
25,19,3,ISIP_8,163,1,48,43,2139534228
25,19,3,ISIP_8,164,1,48,40,2140444360
25,19,3,ISIP_8,165,1,48,40,2141404384
25,19,3,ISIP_8,166,1,48,44,2142369964
25,19,3,ISIP_8,0,9999,9999,9999,2022621236
25,19,3,ISIP_8,1,9999,9999,9999,2023422040
25,19,3,ISIP_8,2,9999,9999,9999,2024221796
25,19,3,ISIP_8,3,9999,9999,9999,2025021548
25,19,3,ISIP_8,4,9999,9999,9999,2025821300
25,19,3,ISIP_8,5,9999,9999,9999,2026622004
25,19,3,ISIP_8,6,9999,9999,9999,2027421764
25,19,3,ISIP_8,7,9999,9999,9999,2028221496
25,19,3,ISIP_8,8,9999,9999,9999,2029021228
25,19,3,ISIP_8,9,9999,9999,9999,2029822008
25,19,3,ISIP_8,10,9999,9999,9999,2030621744
25,19,3,ISIP_8,11,9999,9999,9999,2031421560
25,19,3,ISIP_8,12,9999,9999,9999,2032221288
25,19,3,ISIP_8,13,9999,9999,9999,2033022064
25,19,3,ISIP_8,14,9999,9999,9999,2033821752
25,19,3,ISIP_8,15,9999,9999,9999,2034621560
25,19,3,ISIP_8,16,9999,9999,9999,2035421292
25,19,3,ISIP_8,17,9999,9999,9999,2036222036
25,19,3,ISIP_8,18,9999,9999,9999,2037021812
25,19,3,ISIP_8,19,9999,9999,9999,2037821540
25,19,3,ISIP_8,20,9999,9999,9999,2038621272
25,19,3,ISIP_8,21,9999,9999,9999,2039422052
25,19,3,ISIP_8,22,9999,9999,9999,2040221812
25,19,3,ISIP_8,23,9999,9999,9999,2041021544
25,19,3,ISIP_8,24,9999,9999,9999,2041821276
25,19,3,ISIP_8,25,9999,9999,9999,2042622056
25,19,3,ISIP_8,26,9999,9999,9999,2043421792
25,19,3,ISIP_8,27,9999,9999,9999,2044221524
25,19,3,ISIP_8,28,9999,9999,9999,2045021260
25,19,3,ISIP_8,29,9999,9999,9999,2045822040
25,19,3,ISIP_8,30,9999,9999,9999,2046621772
25,19,3,ISIP_8,31,9999,9999,9999,2047421500
25,19,3,ISIP_8,32,9999,9999,9999,2048221232
25,19,3,ISIP_8,33,9999,9999,9999,2049022008
25,19,3,ISIP_8,34,9999,9999,9999,2049821808
25,19,3,ISIP_8,35,9999,9999,9999,2050621544
25,19,3,ISIP_8,36,9999,9999,9999,2051421272
25,19,3,ISIP_8,37,9999,9999,9999,2052222048
25,19,3,ISIP_8,38,9999,9999,9999,2053021804
25,19,3,ISIP_8,39,9999,9999,9999,2053821532
25,19,3,ISIP_8,40,9999,9999,9999,2054621260
25,19,3,ISIP_8,41,9999,9999,9999,2055422036
25,19,3,ISIP_8,42,9999,9999,9999,2056221764
25,19,3,ISIP_8,43,9999,9999,9999,2057021496
25,19,3,ISIP_8,44,9999,9999,9999,2057821300
25,19,3,ISIP_8,45,9999,9999,9999,2058622000
25,19,3,ISIP_8,46,9999,9999,9999,2059421756
25,19,3,ISIP_8,47,9999,9999,9999,2060221560
25,19,3,ISIP_8,48,9999,9999,9999,2061021288
25,19,3,ISIP_8,49,9999,9999,9999,2061822064
25,19,3,ISIP_8,50,9999,9999,9999,2062621792
25,19,3,ISIP_8,51,9999,9999,9999,2063421524
25,19,3,ISIP_8,52,9999,9999,9999,2064221252
25,19,3,ISIP_8,53,9999,9999,9999,2065022028
25,19,3,ISIP_8,54,9999,9999,9999,2065821780
25,19,3,ISIP_8,55,9999,9999,9999,2066621508
25,19,3,ISIP_8,56,9999,9999,9999,2067421240
25,19,3,ISIP_8,57,9999,9999,9999,2068222016
25,19,3,ISIP_8,58,9999,9999,9999,2069021744
25,19,3,ISIP_8,59,9999,9999,9999,2069821548
25,19,3,ISIP_8,60,9999,9999,9999,2070621276
25,19,3,ISIP_8,61,9999,9999,9999,2071422052
25,19,3,ISIP_8,62,9999,9999,9999,2072221808
25,19,3,ISIP_8,63,9999,9999,9999,2073021536
25,19,3,ISIP_8,64,9999,9999,9999,2073821264
25,19,3,ISIP_8,65,9999,9999,9999,2074622040
25,19,3,ISIP_8,66,9999,9999,9999,2075421784
25,19,3,ISIP_8,67,9999,9999,9999,2076221516
25,19,3,ISIP_8,68,9999,9999,9999,2077021252
25,19,3,ISIP_8,69,9999,9999,9999,2077822028
25,19,3,ISIP_8,70,9999,9999,9999,2078621780
25,19,3,ISIP_8,71,9999,9999,9999,2079421512
25,19,3,ISIP_8,72,9999,9999,9999,2080221240
25,19,3,ISIP_8,73,9999,9999,9999,2081022016
25,19,3,ISIP_8,74,9999,9999,9999,2081821748
25,19,3,ISIP_8,75,9999,9999,9999,2082621548
25,19,3,ISIP_8,76,9999,9999,9999,2083421280
25,19,3,ISIP_8,77,9999,9999,9999,2084222056
25,19,3,ISIP_8,78,9999,9999,9999,2085021808
25,19,3,ISIP_8,79,9999,9999,9999,2085821540
25,19,3,ISIP_8,80,9999,9999,9999,2086621268
25,19,3,ISIP_8,81,9999,9999,9999,2087422044
25,19,3,ISIP_8,82,9999,9999,9999,2088221788
25,19,3,ISIP_8,83,9999,9999,9999,2089021524
25,19,3,ISIP_8,84,9999,9999,9999,2089821252
25,19,3,ISIP_8,85,9999,9999,9999,2090622028
25,19,3,ISIP_8,86,9999,9999,9999,2091421784
25,19,3,ISIP_8,87,9999,9999,9999,2092221512
25,19,3,ISIP_8,88,9999,9999,9999,2093021244
25,19,3,ISIP_8,89,9999,9999,9999,2093822020
25,19,3,ISIP_8,90,9999,9999,9999,2094621748
25,19,3,ISIP_8,91,9999,9999,9999,2095421552
25,19,3,ISIP_8,92,9999,9999,9999,2096221280
25,19,3,ISIP_8,93,9999,9999,9999,2097022020
25,19,3,ISIP_8,94,9999,9999,9999,2097821756
25,19,3,ISIP_8,95,9999,9999,9999,2098621560
25,19,3,ISIP_8,96,9999,9999,9999,2099421288
25,19,3,ISIP_8,97,9999,9999,9999,2100222068
25,19,3,ISIP_8,98,9999,9999,9999,2101021796
25,19,3,ISIP_8,99,9999,9999,9999,2101821524
25,19,3,ISIP_8,100,9999,9999,9999,2102621252
25,19,3,ISIP_8,101,9999,9999,9999,2103422052
25,19,3,ISIP_8,102,9999,9999,9999,2104221784
25,19,3,ISIP_8,103,9999,9999,9999,2105021528
25,19,3,ISIP_8,104,9999,9999,9999,2105821268
25,19,3,ISIP_8,105,9999,9999,9999,2106622040
25,19,3,ISIP_8,106,9999,9999,9999,2107421772
25,19,3,ISIP_8,107,9999,9999,9999,2108221504
25,19,3,ISIP_8,108,9999,9999,9999,2109021232
25,19,3,ISIP_8,109,9999,9999,9999,2109822032
25,19,3,ISIP_8,110,9999,9999,9999,2110621760
25,19,3,ISIP_8,111,9999,9999,9999,2111421492
25,19,3,ISIP_8,112,9999,9999,9999,2112221296
25,19,3,ISIP_8,113,9999,9999,9999,2113022068
25,19,3,ISIP_8,114,9999,9999,9999,2113821800
25,19,3,ISIP_8,115,9999,9999,9999,2114621544
25,19,3,ISIP_8,116,9999,9999,9999,2115421280
25,19,3,ISIP_8,117,9999,9999,9999,2116222008
25,19,3,ISIP_8,118,9999,9999,9999,2117021808
25,19,3,ISIP_8,119,9999,9999,9999,2117821540
25,19,3,ISIP_8,120,9999,9999,9999,2118621268
25,19,3,ISIP_8,121,9999,9999,9999,2119422044
25,19,3,ISIP_8,122,9999,9999,9999,2120221772
25,19,3,ISIP_8,123,9999,9999,9999,2121021516
25,19,3,ISIP_8,124,9999,9999,9999,2121821252
25,19,3,ISIP_8,125,9999,9999,9999,2122622052
25,19,3,ISIP_8,126,9999,9999,9999,2123421784
25,19,3,ISIP_8,127,9999,9999,9999,2124221512
25,19,3,ISIP_8,128,9999,9999,9999,2125021240
25,19,3,ISIP_8,129,9999,9999,9999,2125822016
25,19,3,ISIP_8,130,9999,9999,9999,2126621744
25,19,3,ISIP_8,131,9999,9999,9999,2127421548
25,19,3,ISIP_8,132,9999,9999,9999,2128221296
25,19,3,ISIP_8,133,9999,9999,9999,2129022024
25,19,3,ISIP_8,134,9999,9999,9999,2129821756
25,19,3,ISIP_8,135,9999,9999,9999,2130621560
25,19,3,ISIP_8,136,9999,9999,9999,2131421288
25,19,3,ISIP_8,137,9999,9999,9999,2132222064
25,19,3,ISIP_8,138,9999,9999,9999,2133021796
25,19,3,ISIP_8,139,9999,9999,9999,2133821548
25,19,3,ISIP_8,140,9999,9999,9999,2134621276
25,19,3,ISIP_8,141,9999,9999,9999,2135422000
25,19,3,ISIP_8,142,9999,9999,9999,2136221808
25,19,3,ISIP_8,143,9999,9999,9999,2137021536
25,19,3,ISIP_8,144,9999,9999,9999,2137821240
25,19,3,ISIP_8,145,9999,9999,9999,2138622028
25,19,3,ISIP_8,146,9999,9999,9999,2139421768
25,19,3,ISIP_8,147,9999,9999,9999,2140221496
25,19,3,ISIP_8,148,9999,9999,9999,2141021276
25,19,3,ISIP_8,149,9999,9999,9999,2141822000
25,20,5,ISIP_5,0,5,42,127,2170769744
25,20,5,ISIP_5,1,5,42,127,2171269460
25,20,5,ISIP_5,2,5,42,127,2171770224
25,20,5,ISIP_5,3,5,42,127,2172270064
25,20,5,ISIP_5,4,5,42,127,2172769708
25,20,5,ISIP_5,5,5,42,127,2173270324
25,20,5,ISIP_5,6,5,42,127,2173770260
25,20,5,ISIP_5,7,5,42,127,2174269756
25,20,5,ISIP_5,8,1,48,47,2174739208
25,20,5,ISIP_5,9,5,42,127,2174769540
25,20,5,ISIP_5,10,1,48,43,2175251172
25,20,5,ISIP_5,11,5,42,127,2175270204
25,20,5,ISIP_5,12,1,48,49,2175762088
25,20,5,ISIP_5,13,5,42,127,2175770052
25,20,5,ISIP_5,14,1,48,42,2176262756
25,20,5,ISIP_5,15,5,42,127,2176269824
25,20,5,ISIP_5,16,1,48,42,2176731712
25,20,5,ISIP_5,17,5,42,127,2176770492
25,20,5,ISIP_5,18,1,48,45,2177240684
25,20,5,ISIP_5,19,5,42,127,2177270184
25,20,5,ISIP_5,20,1,48,43,2177742844
25,20,5,ISIP_5,21,5,42,127,2177770104
25,20,5,ISIP_5,22,1,48,41,2178253312
25,20,5,ISIP_5,23,5,42,127,2178269428
25,20,5,ISIP_5,24,1,48,37,2178757120
25,20,5,ISIP_5,25,5,42,127,2178770168
25,20,5,ISIP_5,26,1,48,44,2179260852
25,20,5,ISIP_5,27,5,42,127,2179269864
25,20,5,ISIP_5,28,1,48,48,2179739980
25,20,5,ISIP_5,29,5,42,127,2179769928
25,20,5,ISIP_5,30,1,48,44,2180251720
25,20,5,ISIP_5,31,5,42,127,2180269404
25,20,5,ISIP_5,32,1,48,48,2180759712
25,20,5,ISIP_5,33,5,42,127,2180770216
25,20,5,ISIP_5,34,1,48,48,2181256864
25,20,5,ISIP_5,35,5,42,127,2181269988
25,20,5,ISIP_5,36,1,48,43,2181769984
25,20,5,ISIP_5,37,5,42,127,2181771480
25,20,5,ISIP_5,38,1,48,35,2182265980
25,20,5,ISIP_5,39,5,42,127,2182270276
25,20,5,ISIP_5,40,1,48,45,2182755928
25,20,5,ISIP_5,41,5,42,127,2182770024
25,20,5,ISIP_5,42,1,48,42,2183255248
25,20,5,ISIP_5,43,5,42,127,2183269864
25,20,5,ISIP_5,44,1,48,44,2183764736
25,20,5,ISIP_5,45,5,42,127,2183769560
25,20,5,ISIP_5,46,1,48,45,2184251868
25,20,5,ISIP_5,47,5,42,127,2184270228
25,20,5,ISIP_5,48,1,48,42,2184741464
25,20,5,ISIP_5,49,5,42,127,2184769848
25,20,5,ISIP_5,50,1,48,44,2185229568
25,20,5,ISIP_5,51,5,42,127,2185269620
25,20,5,ISIP_5,52,1,48,41,2185754392
25,20,5,ISIP_5,53,5,42,127,2185770284
25,20,5,ISIP_5,54,1,48,46,2186257376
25,20,5,ISIP_5,55,5,42,127,2186270056
25,20,5,ISIP_5,56,1,48,44,2186763288
25,20,5,ISIP_5,57,5,42,127,2186769752
25,20,5,ISIP_5,58,5,42,127,2187269672
25,20,5,ISIP_5,59,1,48,47,2187276908
25,20,5,ISIP_5,60,1,48,44,2187763268
25,20,5,ISIP_5,61,5,42,127,2187770184
25,20,5,ISIP_5,62,1,48,43,2188254368
25,20,5,ISIP_5,63,5,42,127,2188269884
25,20,5,ISIP_5,64,5,42,127,2188769732
25,20,5,ISIP_5,65,1,48,41,2188780252
25,20,5,ISIP_5,66,5,42,127,2189270476
25,20,5,ISIP_5,67,1,48,43,2189304184
25,20,5,ISIP_5,68,5,42,127,2189770016
25,20,5,ISIP_5,69,1,48,40,2189794828
25,20,5,ISIP_5,70,1,48,43,2190265412
25,20,5,ISIP_5,71,5,42,127,2190269784
25,20,5,ISIP_5,72,1,48,45,2190782772
25,20,5,ISIP_5,73,1,48,40,2191289416
25,20,5,ISIP_5,74,1,48,45,2191795320
25,20,5,ISIP_5,75,1,48,46,2192273616
25,20,5,ISIP_5,76,1,48,44,2192750300
25,20,5,ISIP_5,77,1,48,41,2193241468
25,20,5,ISIP_5,78,1,48,46,2193723276
25,20,5,ISIP_5,79,1,48,38,2194244960
25,20,5,ISIP_5,80,1,48,38,2194735452
25,20,5,ISIP_5,81,1,48,34,2195268212
25,20,5,ISIP_5,82,1,48,37,2195769552
25,20,5,ISIP_5,83,1,48,40,2196284124
25,20,5,ISIP_5,84,1,48,38,2196775064
25,20,5,ISIP_5,85,1,48,39,2197301980
25,20,5,ISIP_5,86,1,48,38,2197808024
25,20,5,ISIP_5,87,1,48,40,2198307492
25,20,5,ISIP_5,88,1,48,37,2198828872
25,20,5,ISIP_5,89,1,48,38,2199328116
25,20,5,ISIP_5,90,1,48,37,2199870516
25,20,5,ISIP_5,91,1,48,30,2200395040
25,20,5,ISIP_5,92,1,48,40,2200883660
25,20,5,ISIP_5,93,1,48,37,2201419928
25,20,5,ISIP_5,94,1,48,38,2201947592
25,20,5,ISIP_5,95,1,48,38,2202456408
25,20,5,ISIP_5,96,1,48,35,2202953856
25,20,5,ISIP_5,97,1,48,40,2203471792
25,20,5,ISIP_5,98,1,48,40,2203986592
25,20,5,ISIP_5,99,1,48,31,2204537100
25,20,5,ISIP_5,100,1,48,37,2205089740
25,20,5,ISIP_5,101,1,48,34,2205629372
25,20,5,ISIP_5,102,1,48,37,2206129064
25,20,5,ISIP_5,103,1,48,37,2206659200
25,20,5,ISIP_5,104,1,48,32,2207185072
25,20,5,ISIP_5,105,1,48,26,2207734804
25,20,5,ISIP_5,106,1,48,39,2208272204
25,20,5,ISIP_5,107,1,48,40,2208814680
25,20,5,ISIP_5,108,1,48,39,2209374952
25,20,5,ISIP_5,109,1,48,38,2209904412
25,20,5,ISIP_5,110,1,48,40,2210435916
25,20,5,ISIP_5,111,1,48,39,2210968744
25,20,5,ISIP_5,112,1,48,34,2211530292
25,20,5,ISIP_5,113,1,48,43,2212059076
25,20,5,ISIP_5,114,1,48,37,2212606344
25,20,5,ISIP_5,115,1,48,45,2213131468
25,20,5,ISIP_5,116,1,48,38,2213709316
25,20,5,ISIP_5,117,1,48,40,2214236832
25,20,5,ISIP_5,118,1,48,39,2214786676
25,20,5,ISIP_5,119,1,48,37,2215330420
25,20,5,ISIP_5,120,1,48,39,2215872972
25,20,5,ISIP_5,121,1,48,35,2216406620
25,20,5,ISIP_5,122,1,48,35,2216934360
25,20,5,ISIP_5,123,1,48,39,2217495612
25,20,5,ISIP_5,124,1,48,40,2218014000
25,20,5,ISIP_5,125,1,48,39,2218560592
25,20,5,ISIP_5,126,1,48,39,2219091840
25,20,5,ISIP_5,127,1,48,40,2219618312
25,20,5,ISIP_5,128,1,48,45,2220173000
25,20,5,ISIP_5,129,1,48,39,2220705232
25,20,5,ISIP_5,130,1,48,38,2221236108
25,20,5,ISIP_5,131,1,48,44,2221792512
25,20,5,ISIP_5,132,1,48,40,2222353464
25,20,5,ISIP_5,133,1,48,42,2222901624
25,20,5,ISIP_5,134,1,48,39,2223465340
25,20,5,ISIP_5,135,1,48,38,2223995948
25,20,5,ISIP_5,136,1,48,39,2224533184
25,20,5,ISIP_5,137,1,48,35,2225075960
25,20,5,ISIP_5,138,1,48,32,2225614544
25,20,5,ISIP_5,139,1,48,39,2226194044
25,20,5,ISIP_5,140,1,48,37,2226718492
25,20,5,ISIP_5,141,1,48,39,2227246756
25,20,5,ISIP_5,142,1,48,39,2227795680
25,20,5,ISIP_5,143,1,48,38,2228314816
25,20,5,ISIP_5,144,1,48,39,2228854768
25,20,5,ISIP_5,145,1,48,38,2229375260
25,20,5,ISIP_5,146,1,48,34,2229933812
25,20,5,ISIP_5,147,1,48,38,2230456768
25,20,5,ISIP_5,148,1,48,38,2231001784
25,20,5,ISIP_5,149,1,48,27,2231569240
25,20,5,ISIP_5,150,1,48,33,2232120988
25,20,5,ISIP_5,151,1,48,35,2232664216
25,20,5,ISIP_5,152,1,48,38,2233195920
25,20,5,ISIP_5,153,1,48,32,2233742156
25,20,5,ISIP_5,154,1,48,35,2234274324
25,20,5,ISIP_5,155,1,48,40,2234813132
25,20,5,ISIP_5,156,1,48,42,2235337580
25,20,5,ISIP_5,157,1,48,36,2235901676
25,20,5,ISIP_5,158,1,48,39,2236380352
25,20,5,ISIP_5,159,1,48,29,2236952068
25,20,5,ISIP_5,160,1,48,37,2237483248
25,20,5,ISIP_5,161,1,48,35,2238026620
25,20,5,ISIP_5,162,1,48,34,2238576500
25,20,5,ISIP_5,163,1,48,35,2239113692
25,20,5,ISIP_5,164,1,48,38,2239645844
25,20,5,ISIP_5,165,1,48,37,2240176796
25,20,5,ISIP_5,166,1,48,31,2240732588
25,20,5,ISIP_5,167,1,48,33,2241268796
25,20,5,ISIP_5,168,1,48,32,2241834308
25,20,5,ISIP_5,169,1,48,32,2242373336
25,20,5,ISIP_5,170,1,48,35,2242895096
25,20,5,ISIP_5,171,1,48,36,2243439140
25,20,5,ISIP_5,172,1,48,37,2244015596
25,20,5,ISIP_5,173,1,48,31,2244576172
25,20,5,ISIP_5,174,1,48,31,2245131136
25,20,5,ISIP_5,175,1,48,33,2245684684
25,20,5,ISIP_5,176,1,48,29,2246286812
25,20,5,ISIP_5,177,1,48,31,2246835792
25,20,5,ISIP_5,178,1,48,35,2247372808
25,20,5,ISIP_5,179,1,48,39,2247941388
25,20,5,ISIP_5,180,1,48,34,2248518564
25,20,5,ISIP_5,181,1,48,35,2249051916
25,20,5,ISIP_5,182,1,48,29,2249624036
25,20,5,ISIP_5,183,1,48,40,2250181848
25,20,5,ISIP_5,0,9999,9999,9999,2170767456
25,20,5,ISIP_5,1,9999,9999,9999,2171267172
25,20,5,ISIP_5,2,9999,9999,9999,2171767864
25,20,5,ISIP_5,3,9999,9999,9999,2172267628
25,20,5,ISIP_5,4,9999,9999,9999,2172767344
25,20,5,ISIP_5,5,9999,9999,9999,2173268032
25,20,5,ISIP_5,6,9999,9999,9999,2173767748
25,20,5,ISIP_5,7,9999,9999,9999,2174267464
25,20,5,ISIP_5,8,9999,9999,9999,2174767176
25,20,5,ISIP_5,9,9999,9999,9999,2175267916
25,20,5,ISIP_5,10,9999,9999,9999,2175767612
25,20,5,ISIP_5,11,9999,9999,9999,2176267384
25,20,5,ISIP_5,12,9999,9999,9999,2176768052
25,20,5,ISIP_5,13,9999,9999,9999,2177267824
25,20,5,ISIP_5,14,9999,9999,9999,2177767520
25,20,5,ISIP_5,15,9999,9999,9999,2178267216
25,20,5,ISIP_5,16,9999,9999,9999,2178767956
25,20,5,ISIP_5,17,9999,9999,9999,2179267652
25,20,5,ISIP_5,18,9999,9999,9999,2179767344
25,20,5,ISIP_5,19,9999,9999,9999,2180267116
25,20,5,ISIP_5,20,9999,9999,9999,2180767856
25,20,5,ISIP_5,21,9999,9999,9999,2181267552
25,20,5,ISIP_5,22,9999,9999,9999,2181767252
25,20,5,ISIP_5,23,9999,9999,9999,2182267988
25,20,5,ISIP_5,24,9999,9999,9999,2182767736
25,20,5,ISIP_5,25,9999,9999,9999,2183267428
25,20,5,ISIP_5,26,9999,9999,9999,2183767124
25,20,5,ISIP_5,27,9999,9999,9999,2184267868
25,20,5,ISIP_5,28,9999,9999,9999,2184767560
25,20,5,ISIP_5,29,9999,9999,9999,2185267256
25,20,5,ISIP_5,30,9999,9999,9999,2185767996
25,20,5,ISIP_5,31,9999,9999,9999,2186267768
25,20,5,ISIP_5,32,9999,9999,9999,2186767464
25,20,5,ISIP_5,33,9999,9999,9999,2187267164
25,20,5,ISIP_5,34,9999,9999,9999,2187767900
25,20,5,ISIP_5,35,9999,9999,9999,2188267596
25,20,5,ISIP_5,36,9999,9999,9999,2188767296
25,20,5,ISIP_5,37,9999,9999,9999,2189268036
25,20,5,ISIP_5,38,9999,9999,9999,2189767732
25,20,5,ISIP_5,39,9999,9999,9999,2190267496
25,20,5,ISIP_5,40,9999,9999,9999,2190767196
25,20,5,ISIP_5,41,9999,9999,9999,2191267932
25,20,5,ISIP_5,42,9999,9999,9999,2191767624
25,20,5,ISIP_5,43,9999,9999,9999,2192267316
25,20,5,ISIP_5,44,9999,9999,9999,2192768120
25,20,5,ISIP_5,45,9999,9999,9999,2193267784
25,20,5,ISIP_5,46,9999,9999,9999,2193767476
25,20,5,ISIP_5,47,9999,9999,9999,2194267240
25,20,5,ISIP_5,48,9999,9999,9999,2194767976
25,20,5,ISIP_5,49,9999,9999,9999,2195267692
25,20,5,ISIP_5,50,9999,9999,9999,2195767364
25,20,5,ISIP_5,51,9999,9999,9999,2196267128
25,20,5,ISIP_5,52,9999,9999,9999,2196767864
25,20,5,ISIP_5,53,9999,9999,9999,2197267556
25,20,5,ISIP_5,54,9999,9999,9999,2197767244
25,20,5,ISIP_5,55,9999,9999,9999,2198267980
25,20,5,ISIP_5,56,9999,9999,9999,2198767672
25,20,5,ISIP_5,57,9999,9999,9999,2199267436
25,20,5,ISIP_5,58,9999,9999,9999,2199767128
25,20,5,ISIP_5,59,9999,9999,9999,2200267868
25,20,5,ISIP_5,60,9999,9999,9999,2200767556
25,20,5,ISIP_5,61,9999,9999,9999,2201267248
25,20,5,ISIP_5,62,9999,9999,9999,2201767984
25,20,5,ISIP_5,63,9999,9999,9999,2202267748
25,20,5,ISIP_5,64,9999,9999,9999,2202767440
25,20,5,ISIP_5,65,9999,9999,9999,2203267128
25,20,5,ISIP_5,66,9999,9999,9999,2203767868
25,20,5,ISIP_5,67,9999,9999,9999,2204267608
25,20,5,ISIP_5,68,9999,9999,9999,2204767300
25,20,5,ISIP_5,69,9999,9999,9999,2205268036
25,20,5,ISIP_5,70,9999,9999,9999,2205767800
25,20,5,ISIP_5,71,9999,9999,9999,2206267492
25,20,5,ISIP_5,72,9999,9999,9999,2206767184
25,20,5,ISIP_5,73,9999,9999,9999,2207267936
25,20,5,ISIP_5,74,9999,9999,9999,2207767628
25,20,5,ISIP_5,75,9999,9999,9999,2208267324
25,20,5,ISIP_5,76,9999,9999,9999,2208768064
25,20,5,ISIP_5,77,9999,9999,9999,2209267828
25,20,5,ISIP_5,78,9999,9999,9999,2209767516
25,20,5,ISIP_5,79,9999,9999,9999,2210267208
25,20,5,ISIP_5,80,9999,9999,9999,2210767944
25,20,5,ISIP_5,81,9999,9999,9999,2211267636
25,20,5,ISIP_5,82,9999,9999,9999,2211767404
25,20,5,ISIP_5,83,9999,9999,9999,2212267092
25,20,5,ISIP_5,84,9999,9999,9999,2212767828
25,20,5,ISIP_5,85,9999,9999,9999,2213267520
25,20,5,ISIP_5,86,9999,9999,9999,2213767228
25,20,5,ISIP_5,87,9999,9999,9999,2214267964
25,20,5,ISIP_5,88,9999,9999,9999,2214767712
25,20,5,ISIP_5,89,9999,9999,9999,2215267400
25,20,5,ISIP_5,90,9999,9999,9999,2215767092
25,20,5,ISIP_5,91,9999,9999,9999,2216267832
25,20,5,ISIP_5,92,9999,9999,9999,2216767596
25,20,5,ISIP_5,93,9999,9999,9999,2217267288
25,20,5,ISIP_5,94,9999,9999,9999,2217768024
25,20,5,ISIP_5,95,9999,9999,9999,2218267712
25,20,5,ISIP_5,96,9999,9999,9999,2218767480
25,20,5,ISIP_5,97,9999,9999,9999,2219267168
25,20,5,ISIP_5,98,9999,9999,9999,2219767904
25,20,5,ISIP_5,99,9999,9999,9999,2220267612
25,20,5,ISIP_5,100,9999,9999,9999,2220767304
25,20,5,ISIP_5,101,9999,9999,9999,2221268040
25,20,5,ISIP_5,102,9999,9999,9999,2221767736
25,20,5,ISIP_5,103,9999,9999,9999,2222267504
25,20,5,ISIP_5,104,9999,9999,9999,2222767196
25,20,5,ISIP_5,105,9999,9999,9999,2223267932
25,20,5,ISIP_5,106,9999,9999,9999,2223767624
25,20,5,ISIP_5,107,9999,9999,9999,2224267312
25,20,5,ISIP_5,108,9999,9999,9999,2224768052
25,20,5,ISIP_5,109,9999,9999,9999,2225267816
25,20,5,ISIP_5,110,9999,9999,9999,2225767480
25,20,5,ISIP_5,111,9999,9999,9999,2226267188
25,20,5,ISIP_5,112,9999,9999,9999,2226767928
25,20,5,ISIP_5,113,9999,9999,9999,2227267692
25,20,5,ISIP_5,114,9999,9999,9999,2227767388
25,20,5,ISIP_5,115,9999,9999,9999,2228267080
25,20,5,ISIP_5,116,9999,9999,9999,2228767816
25,20,5,ISIP_5,117,9999,9999,9999,2229267508
25,20,5,ISIP_5,118,9999,9999,9999,2229767272
25,20,5,ISIP_5,119,9999,9999,9999,2230268008
25,20,5,ISIP_5,120,9999,9999,9999,2230767700
25,20,5,ISIP_5,121,9999,9999,9999,2231267392
25,20,5,ISIP_5,122,9999,9999,9999,2231767156
25,20,5,ISIP_5,123,9999,9999,9999,2232267892
25,20,5,ISIP_5,124,9999,9999,9999,2232767584
25,20,5,ISIP_5,125,9999,9999,9999,2233267292
25,20,5,ISIP_5,126,9999,9999,9999,2233768028
25,20,5,ISIP_5,127,9999,9999,9999,2234267724
25,20,5,ISIP_5,128,9999,9999,9999,2234767416
25,20,5,ISIP_5,129,9999,9999,9999,2235267184
25,20,5,ISIP_5,130,9999,9999,9999,2235767920
25,20,5,ISIP_5,131,9999,9999,9999,2236267588
25,20,5,ISIP_5,132,9999,9999,9999,2236767352
25,20,5,ISIP_5,133,9999,9999,9999,2237268088
25,20,5,ISIP_5,134,9999,9999,9999,2237767780
25,20,5,ISIP_5,135,9999,9999,9999,2238267468
25,20,5,ISIP_5,136,9999,9999,9999,2238767160
25,20,5,ISIP_5,137,9999,9999,9999,2239267896
25,20,5,ISIP_5,138,9999,9999,9999,2239767664
25,20,5,ISIP_5,139,9999,9999,9999,2240267368
25,20,5,ISIP_5,140,9999,9999,9999,2240768108
25,20,5,ISIP_5,141,9999,9999,9999,2241267804
25,20,5,ISIP_5,142,9999,9999,9999,2241767492
25,20,5,ISIP_5,143,9999,9999,9999,2242267184
25,20,5,ISIP_5,144,9999,9999,9999,2242767924
25,20,5,ISIP_5,145,9999,9999,9999,2243267684
25,20,5,ISIP_5,146,9999,9999,9999,2243767376
25,20,5,ISIP_5,147,9999,9999,9999,2244267068
25,20,5,ISIP_5,148,9999,9999,9999,2244767804
25,20,5,ISIP_5,149,9999,9999,9999,2245267568
25,20,5,ISIP_5,150,9999,9999,9999,2245767276
25,20,5,ISIP_5,151,9999,9999,9999,2246268020
25,20,5,ISIP_5,152,9999,9999,9999,2246767684
25,20,5,ISIP_5,153,9999,9999,9999,2247267448
25,20,5,ISIP_5,154,9999,9999,9999,2247767140
25,20,5,ISIP_5,155,9999,9999,9999,2248267876
25,20,5,ISIP_5,156,9999,9999,9999,2248767568
25,20,5,ISIP_5,157,9999,9999,9999,2249267260
25,20,5,ISIP_5,158,9999,9999,9999,2249767996
25,20,5,ISIP_5,159,9999,9999,9999,2250267704
25,21,11,Pattern_Practice,0,5,42,127,2352203324
25,21,11,Pattern_Practice,1,5,42,127,2352702820
25,21,11,Pattern_Practice,2,5,42,127,2353202464
25,21,11,Pattern_Practice,3,5,42,127,2353703372
25,21,11,Pattern_Practice,4,5,42,127,2354203164
25,21,11,Pattern_Practice,5,5,42,127,2354702584
25,21,11,Pattern_Practice,6,5,42,127,2355202448
25,21,11,Pattern_Practice,7,5,42,127,2355703360
25,21,11,Pattern_Practice,8,1,48,63,2356185608
25,21,11,Pattern_Practice,9,5,42,127,2356202920
25,21,11,Pattern_Practice,10,1,38,59,2356691736
25,21,11,Pattern_Practice,11,5,42,127,2356702544
25,21,11,Pattern_Practice,12,1,48,70,2357184176
25,21,11,Pattern_Practice,13,5,42,127,2357203284
25,21,11,Pattern_Practice,14,1,38,66,2357430288
25,21,11,Pattern_Practice,15,5,42,127,2357702892
25,21,11,Pattern_Practice,16,1,48,73,2357709524
25,21,11,Pattern_Practice,17,5,42,127,2358202660
25,21,11,Pattern_Practice,18,1,48,59,2358214304
25,21,11,Pattern_Practice,19,1,48,69,2358691172
25,21,11,Pattern_Practice,20,5,42,127,2358702348
25,21,11,Pattern_Practice,21,1,38,62,2359195572
25,21,11,Pattern_Practice,22,5,42,127,2359203164
25,21,11,Pattern_Practice,23,1,48,66,2359684352
25,21,11,Pattern_Practice,24,5,42,127,2359703008
25,21,11,Pattern_Practice,25,1,38,67,2359903356
25,21,11,Pattern_Practice,26,1,48,64,2360164248
25,21,11,Pattern_Practice,27,5,42,127,2360202456
25,21,11,Pattern_Practice,28,1,38,67,2360416416
25,21,11,Pattern_Practice,29,1,48,60,2360695732
25,21,11,Pattern_Practice,30,5,42,127,2360703324
25,21,11,Pattern_Practice,31,1,48,71,2361201284
25,21,11,Pattern_Practice,32,5,42,127,2361202948
25,21,11,Pattern_Practice,33,5,42,127,2361702920
25,21,11,Pattern_Practice,34,5,42,127,2362202712
25,21,11,Pattern_Practice,35,1,38,51,2362267936
25,21,11,Pattern_Practice,36,1,48,53,2362685160
25,21,11,Pattern_Practice,37,5,42,127,2362703072
25,21,11,Pattern_Practice,38,1,48,59,2363140128
25,21,11,Pattern_Practice,39,5,42,127,2363203064
25,21,11,Pattern_Practice,40,1,38,65,2363359604
25,21,11,Pattern_Practice,41,1,48,69,2363600532
25,21,11,Pattern_Practice,42,5,42,127,2363702576
25,21,11,Pattern_Practice,43,1,38,75,2363788300
25,21,11,Pattern_Practice,44,1,38,48,2363818120
25,21,11,Pattern_Practice,45,1,48,75,2364081784
25,21,11,Pattern_Practice,46,5,42,127,2364203276
25,21,11,Pattern_Practice,47,1,48,77,2364596736
25,21,11,Pattern_Practice,48,5,42,127,2364703044
25,21,11,Pattern_Practice,49,1,48,76,2365079904
25,21,11,Pattern_Practice,50,5,42,127,2365202664
25,21,11,Pattern_Practice,51,1,38,67,2365579068
25,21,11,Pattern_Practice,52,5,42,127,2365702656
25,21,11,Pattern_Practice,53,1,48,70,2366059244
25,21,11,Pattern_Practice,54,5,42,127,2366203100
25,21,11,Pattern_Practice,55,1,48,66,2366320532
25,21,11,Pattern_Practice,56,1,38,56,2366521720
25,21,11,Pattern_Practice,57,5,42,127,2366702924
25,21,11,Pattern_Practice,58,1,48,69,2366783456
25,21,11,Pattern_Practice,59,1,38,65,2367000148
25,21,11,Pattern_Practice,60,5,42,127,2367202744
25,21,11,Pattern_Practice,61,1,48,75,2367485260
25,21,11,Pattern_Practice,62,5,42,127,2367703636
25,21,11,Pattern_Practice,63,1,48,72,2367977024
25,21,11,Pattern_Practice,64,5,42,127,2368203184
25,21,11,Pattern_Practice,65,1,48,71,2368472680
25,21,11,Pattern_Practice,66,5,42,127,2368702804
25,21,11,Pattern_Practice,67,1,38,67,2368942904
25,21,11,Pattern_Practice,68,5,42,127,2369202648
25,21,11,Pattern_Practice,69,1,48,69,2369397420
25,21,11,Pattern_Practice,70,1,48,26,2369462772
25,21,11,Pattern_Practice,71,1,38,62,2369615340
25,21,11,Pattern_Practice,72,5,42,127,2369703136
25,21,11,Pattern_Practice,73,1,48,71,2369824796
25,21,11,Pattern_Practice,74,1,38,68,2370017248
25,21,11,Pattern_Practice,75,1,38,38,2370102720
25,21,11,Pattern_Practice,76,5,42,127,2370202996
25,21,11,Pattern_Practice,77,1,48,55,2370292652
25,21,11,Pattern_Practice,78,5,42,127,2370702692
25,21,11,Pattern_Practice,79,1,48,81,2370755176
25,21,11,Pattern_Practice,80,5,42,127,2371202532
25,21,11,Pattern_Practice,81,1,48,72,2371234300
25,21,11,Pattern_Practice,82,1,48,72,2371686532
25,21,11,Pattern_Practice,83,5,42,127,2371703268
25,21,11,Pattern_Practice,84,1,38,69,2372187572
25,21,11,Pattern_Practice,85,5,42,127,2372202812
25,21,11,Pattern_Practice,86,1,48,76,2372662880
25,21,11,Pattern_Practice,87,5,42,127,2372702560
25,21,11,Pattern_Practice,88,1,48,61,2372933592
25,21,11,Pattern_Practice,89,1,48,62,2373173476
25,21,11,Pattern_Practice,90,5,42,127,2373203204
25,21,11,Pattern_Practice,91,1,38,75,2373660828
25,21,11,Pattern_Practice,92,5,42,127,2373703268
25,21,11,Pattern_Practice,93,1,48,65,2374115792
25,21,11,Pattern_Practice,94,5,42,127,2374202592
25,21,11,Pattern_Practice,95,1,48,58,2374352176
25,21,11,Pattern_Practice,96,1,48,76,2374655484
25,21,11,Pattern_Practice,97,5,42,127,2374702416
25,21,11,Pattern_Practice,98,1,48,34,2374711428
25,21,11,Pattern_Practice,99,1,38,69,2375141016
25,21,11,Pattern_Practice,100,5,42,127,2375203208
25,21,11,Pattern_Practice,101,1,48,78,2375598072
25,21,11,Pattern_Practice,102,5,42,127,2375702812
25,21,11,Pattern_Practice,103,1,48,57,2375833556
25,21,11,Pattern_Practice,104,1,48,70,2376109940
25,21,11,Pattern_Practice,105,5,42,127,2376202724
25,21,11,Pattern_Practice,106,1,38,75,2376582412
25,21,11,Pattern_Practice,107,5,42,127,2376703448
25,21,11,Pattern_Practice,108,1,48,69,2377046920
25,21,11,Pattern_Practice,109,5,42,127,2377203292
25,21,11,Pattern_Practice,110,1,48,62,2377296920
25,21,11,Pattern_Practice,111,1,48,62,2377551684
25,21,11,Pattern_Practice,112,5,42,127,2377702668
25,21,11,Pattern_Practice,113,1,38,65,2378058932
25,21,11,Pattern_Practice,114,5,42,127,2378202588
25,21,11,Pattern_Practice,115,1,48,69,2378505068
25,21,11,Pattern_Practice,116,5,42,127,2378703180
25,21,11,Pattern_Practice,117,1,48,76,2378966840
25,21,11,Pattern_Practice,118,1,48,21,2379060992
25,21,11,Pattern_Practice,119,5,42,127,2379202852
25,21,11,Pattern_Practice,120,1,38,69,2379425156
25,21,11,Pattern_Practice,121,5,42,127,2379702696
25,21,11,Pattern_Practice,122,1,48,78,2379862740
25,21,11,Pattern_Practice,123,5,42,127,2380203364
25,21,11,Pattern_Practice,124,1,48,79,2380286220
25,21,11,Pattern_Practice,125,1,38,66,2380700324
25,21,11,Pattern_Practice,126,5,42,127,2380703276
25,21,11,Pattern_Practice,127,1,48,70,2381137168
25,21,11,Pattern_Practice,128,5,42,127,2381202824
25,21,11,Pattern_Practice,129,1,48,72,2381572084
25,21,11,Pattern_Practice,130,5,42,127,2381702432
25,21,11,Pattern_Practice,131,1,38,64,2382018976
25,21,11,Pattern_Practice,132,5,42,127,2382203244
25,21,11,Pattern_Practice,133,1,48,79,2382422232
25,21,11,Pattern_Practice,134,5,42,127,2382702940
25,21,11,Pattern_Practice,135,1,48,62,2382849892
25,21,11,Pattern_Practice,136,5,42,127,2383202832
25,21,11,Pattern_Practice,137,1,38,70,2383277408
25,21,11,Pattern_Practice,138,1,38,46,2383308352
25,21,11,Pattern_Practice,139,1,48,69,2383699100
25,21,11,Pattern_Practice,140,5,42,127,2383703400
25,21,11,Pattern_Practice,141,1,48,76,2384105444
25,21,11,Pattern_Practice,142,1,48,38,2384156512
25,21,11,Pattern_Practice,143,5,42,127,2384203144
25,21,11,Pattern_Practice,144,1,38,75,2384540048
25,21,11,Pattern_Practice,145,1,38,47,2384569192
25,21,11,Pattern_Practice,146,5,42,127,2384702952
25,21,11,Pattern_Practice,147,1,48,71,2385011520
25,21,11,Pattern_Practice,148,5,42,127,2385202648
25,21,11,Pattern_Practice,149,1,48,68,2385418368
25,21,11,Pattern_Practice,150,1,48,38,2385456864
25,21,11,Pattern_Practice,151,5,42,127,2385703292
25,21,11,Pattern_Practice,152,1,38,58,2385858052
25,21,11,Pattern_Practice,153,5,42,127,2386202988
25,21,11,Pattern_Practice,154,1,48,65,2386306732
25,21,11,Pattern_Practice,155,5,42,127,2386702908
25,21,11,Pattern_Practice,156,1,48,67,2386709840
25,21,11,Pattern_Practice,157,1,48,32,2386769284
25,21,11,Pattern_Practice,158,1,38,61,2387134548
25,21,11,Pattern_Practice,159,5,42,127,2387202496
25,21,11,Pattern_Practice,160,1,48,67,2387574252
25,21,11,Pattern_Practice,161,5,42,127,2387703300
25,21,11,Pattern_Practice,162,1,48,70,2387974892
25,21,11,Pattern_Practice,163,5,42,127,2388202844
25,21,11,Pattern_Practice,164,1,38,67,2388375256
25,21,11,Pattern_Practice,165,5,42,127,2388702616
25,21,11,Pattern_Practice,166,1,48,69,2388819872
25,21,11,Pattern_Practice,167,5,42,127,2389203208
25,21,11,Pattern_Practice,168,1,48,74,2389247540
25,21,11,Pattern_Practice,169,1,48,46,2389280056
25,21,11,Pattern_Practice,170,1,38,67,2389623328
25,21,11,Pattern_Practice,171,5,42,127,2389703024
25,21,11,Pattern_Practice,172,1,48,60,2390060016
25,21,11,Pattern_Practice,173,5,42,127,2390202704
25,21,11,Pattern_Practice,174,1,48,83,2390485588
25,21,11,Pattern_Practice,175,1,48,22,2390570464
25,21,11,Pattern_Practice,176,5,42,127,2390702672
25,21,11,Pattern_Practice,177,1,38,75,2390867432
25,21,11,Pattern_Practice,178,5,42,127,2391203044
25,21,11,Pattern_Practice,179,1,48,72,2391260764
25,21,11,Pattern_Practice,180,1,48,48,2391487556
25,21,11,Pattern_Practice,181,5,42,127,2391702940
25,21,11,Pattern_Practice,182,1,38,61,2391786540
25,21,11,Pattern_Practice,0,9999,9999,9999,2352200816
25,21,11,Pattern_Practice,1,9999,9999,9999,2352700532
25,21,11,Pattern_Practice,2,9999,9999,9999,2353200252
25,21,11,Pattern_Practice,3,9999,9999,9999,2353700936
25,21,11,Pattern_Practice,4,9999,9999,9999,2354200656
25,21,11,Pattern_Practice,5,9999,9999,9999,2354700372
25,21,11,Pattern_Practice,6,9999,9999,9999,2355200088
25,21,11,Pattern_Practice,7,9999,9999,9999,2355700852
25,21,11,Pattern_Practice,8,9999,9999,9999,2356200560
25,21,11,Pattern_Practice,9,9999,9999,9999,2356700256
25,21,11,Pattern_Practice,10,9999,9999,9999,2357201000
25,21,11,Pattern_Practice,11,9999,9999,9999,2357700680
25,21,11,Pattern_Practice,12,9999,9999,9999,2358200376
25,21,11,Pattern_Practice,13,9999,9999,9999,2358700140
25,21,11,Pattern_Practice,14,9999,9999,9999,2359200880
25,21,11,Pattern_Practice,15,9999,9999,9999,2359700572
25,21,11,Pattern_Practice,16,9999,9999,9999,2360200244
25,21,11,Pattern_Practice,17,9999,9999,9999,2360701040
25,21,11,Pattern_Practice,18,9999,9999,9999,2361200760
25,21,11,Pattern_Practice,19,9999,9999,9999,2361700408
25,21,11,Pattern_Practice,20,9999,9999,9999,2362200128
25,21,11,Pattern_Practice,21,9999,9999,9999,2362700860
25,21,11,Pattern_Practice,22,9999,9999,9999,2363200632
25,21,11,Pattern_Practice,23,9999,9999,9999,2363700292
25,21,11,Pattern_Practice,24,9999,9999,9999,2364201060
25,21,11,Pattern_Practice,25,9999,9999,9999,2364700756
25,21,11,Pattern_Practice,26,9999,9999,9999,2365200452
25,21,11,Pattern_Practice,27,9999,9999,9999,2365700148
25,21,11,Pattern_Practice,28,9999,9999,9999,2366200888
25,21,11,Pattern_Practice,29,9999,9999,9999,2366700636
25,21,11,Pattern_Practice,30,9999,9999,9999,2367200312
25,21,11,Pattern_Practice,31,9999,9999,9999,2367701052
25,21,11,Pattern_Practice,32,9999,9999,9999,2368200820
25,21,11,Pattern_Practice,33,9999,9999,9999,2368700516
25,21,11,Pattern_Practice,34,9999,9999,9999,2369200212
25,21,11,Pattern_Practice,35,9999,9999,9999,2369700924
25,21,11,Pattern_Practice,36,9999,9999,9999,2370200632
25,21,11,Pattern_Practice,37,9999,9999,9999,2370700404
25,21,11,Pattern_Practice,38,9999,9999,9999,2371200100
25,21,11,Pattern_Practice,39,9999,9999,9999,2371700836
25,21,11,Pattern_Practice,40,9999,9999,9999,2372200528
25,21,11,Pattern_Practice,41,9999,9999,9999,2372700272
25,21,11,Pattern_Practice,42,9999,9999,9999,2373200992
25,21,11,Pattern_Practice,43,9999,9999,9999,2373700684
25,21,11,Pattern_Practice,44,9999,9999,9999,2374200380
25,21,11,Pattern_Practice,45,9999,9999,9999,2374700128
25,21,11,Pattern_Practice,46,9999,9999,9999,2375200848
25,21,11,Pattern_Practice,47,9999,9999,9999,2375700600
25,21,11,Pattern_Practice,48,9999,9999,9999,2376200288
25,21,11,Pattern_Practice,49,9999,9999,9999,2376701016
25,21,11,Pattern_Practice,50,9999,9999,9999,2377200708
25,21,11,Pattern_Practice,51,9999,9999,9999,2377700456
25,21,11,Pattern_Practice,52,9999,9999,9999,2378200152
25,21,11,Pattern_Practice,53,9999,9999,9999,2378700892
25,21,11,Pattern_Practice,54,9999,9999,9999,2379200568
25,21,11,Pattern_Practice,55,9999,9999,9999,2379700336
25,21,11,Pattern_Practice,56,9999,9999,9999,2380201080
25,21,11,Pattern_Practice,57,9999,9999,9999,2380700768
25,21,11,Pattern_Practice,58,9999,9999,9999,2381200464
25,21,11,Pattern_Practice,59,9999,9999,9999,2381700216
25,21,11,Pattern_Practice,60,9999,9999,9999,2382200884
25,21,11,Pattern_Practice,61,9999,9999,9999,2382700652
25,21,11,Pattern_Practice,62,9999,9999,9999,2383200324
25,21,11,Pattern_Practice,63,9999,9999,9999,2383701112
25,21,11,Pattern_Practice,64,9999,9999,9999,2384200784
25,21,11,Pattern_Practice,65,9999,9999,9999,2384700516
25,21,11,Pattern_Practice,66,9999,9999,9999,2385200212
25,21,11,Pattern_Practice,67,9999,9999,9999,2385700932
25,21,11,Pattern_Practice,68,9999,9999,9999,2386200628
25,21,11,Pattern_Practice,69,9999,9999,9999,2386700396
25,21,11,Pattern_Practice,70,9999,9999,9999,2387200060
25,21,11,Pattern_Practice,71,9999,9999,9999,2387700788
25,21,11,Pattern_Practice,72,9999,9999,9999,2388200560
25,21,11,Pattern_Practice,73,9999,9999,9999,2388700252
25,21,11,Pattern_Practice,74,9999,9999,9999,2389200996
25,21,11,Pattern_Practice,75,9999,9999,9999,2389700664
25,21,11,Pattern_Practice,76,9999,9999,9999,2390200416
25,21,11,Pattern_Practice,77,9999,9999,9999,2390700088
25,21,11,Pattern_Practice,78,9999,9999,9999,2391200832
25,21,11,Pattern_Practice,79,9999,9999,9999,2391700576
25,22,13,Improv_Metronome,0,5,42,127,2431479076
25,22,13,Improv_Metronome,1,5,42,127,2431978940
25,22,13,Improv_Metronome,2,5,42,127,2432478660
25,22,13,Improv_Metronome,3,5,42,127,2432979496
25,22,13,Improv_Metronome,4,5,42,127,2433478988
25,22,13,Improv_Metronome,5,5,42,127,2433978704
25,22,13,Improv_Metronome,6,5,42,127,2434478568
25,22,13,Improv_Metronome,7,5,42,127,2434979108
25,22,13,Improv_Metronome,8,5,42,127,2435478900
25,22,13,Improv_Metronome,9,1,48,54,2435490548
25,22,13,Improv_Metronome,10,1,48,33,2435535332
25,22,13,Improv_Metronome,11,1,38,74,2435944652
25,22,13,Improv_Metronome,12,5,42,127,2435978716
25,22,13,Improv_Metronome,13,1,48,64,2436143308
25,22,13,Improv_Metronome,14,1,38,79,2436351176
25,22,13,Improv_Metronome,15,5,42,127,2436479420
25,22,13,Improv_Metronome,16,1,48,66,2436785644
25,22,13,Improv_Metronome,17,5,42,127,2436979188
25,22,13,Improv_Metronome,18,1,38,67,2437206628
25,22,13,Improv_Metronome,19,1,48,67,2437417856
25,22,13,Improv_Metronome,20,5,42,127,2437478800
25,22,13,Improv_Metronome,21,1,38,64,2437626264
25,22,13,Improv_Metronome,22,5,42,127,2437978456
25,22,13,Improv_Metronome,23,1,48,68,2438036504
25,22,13,Improv_Metronome,24,1,38,71,2438411912
25,22,13,Improv_Metronome,25,5,42,127,2438479412
25,22,13,Improv_Metronome,26,1,48,64,2438616136
25,22,13,Improv_Metronome,27,1,38,81,2438822576
25,22,13,Improv_Metronome,28,5,42,127,2438978924
25,22,13,Improv_Metronome,29,1,48,52,2439204892
25,22,13,Improv_Metronome,30,5,42,127,2439478620
25,22,13,Improv_Metronome,31,1,38,75,2439572340
25,22,13,Improv_Metronome,32,1,48,66,2439780808
25,22,13,Improv_Metronome,33,1,38,65,2439970248
25,22,13,Improv_Metronome,34,5,42,127,2439979404
25,22,13,Improv_Metronome,35,1,48,66,2440353856
25,22,13,Improv_Metronome,36,5,42,127,2440479008
25,22,13,Improv_Metronome,37,1,48,66,2440753744
25,22,13,Improv_Metronome,38,5,42,127,2440978780
25,22,13,Improv_Metronome,39,1,38,72,2441136756
25,22,13,Improv_Metronome,40,5,42,127,2441478548
25,22,13,Improv_Metronome,41,1,38,67,2441579756
25,22,13,Improv_Metronome,42,1,38,68,2441950384
25,22,13,Improv_Metronome,43,5,42,127,2441979432
25,22,13,Improv_Metronome,44,1,48,59,2442324092
25,22,13,Improv_Metronome,45,5,42,127,2442478812
25,22,13,Improv_Metronome,46,1,48,65,2442745024
25,22,13,Improv_Metronome,47,5,42,127,2442978660
25,22,13,Improv_Metronome,48,1,38,48,2443146056
25,22,13,Improv_Metronome,49,5,42,127,2443479328
25,22,13,Improv_Metronome,50,1,48,55,2443551556
25,22,13,Improv_Metronome,51,1,38,66,2443676024
25,22,13,Improv_Metronome,52,1,48,55,2443942604
25,22,13,Improv_Metronome,53,5,42,127,2443979140
25,22,13,Improv_Metronome,54,1,48,59,2444325444
25,22,13,Improv_Metronome,55,5,42,127,2444478748
25,22,13,Improv_Metronome,56,1,38,70,2444705760
25,22,13,Improv_Metronome,57,5,42,127,2444978516
25,22,13,Improv_Metronome,58,1,48,59,2445087028
25,22,13,Improv_Metronome,59,1,48,76,2445313072
25,22,13,Improv_Metronome,60,5,42,127,2445479236
25,22,13,Improv_Metronome,61,1,38,80,2445507264
25,22,13,Improv_Metronome,62,1,48,60,2445889256
25,22,13,Improv_Metronome,63,5,42,127,2445979072
25,22,13,Improv_Metronome,64,1,48,58,2446287452
25,22,13,Improv_Metronome,65,5,42,127,2446478604
25,22,13,Improv_Metronome,66,1,38,60,2446679636
25,22,13,Improv_Metronome,67,1,38,19,2446765656
25,22,13,Improv_Metronome,68,5,42,127,2446978500
25,22,13,Improv_Metronome,69,1,48,55,2447071604
25,22,13,Improv_Metronome,70,1,48,62,2447457036
25,22,13,Improv_Metronome,71,5,42,127,2447479160
25,22,13,Improv_Metronome,72,1,38,65,2447817160
25,22,13,Improv_Metronome,73,5,42,127,2447979064
25,22,13,Improv_Metronome,74,1,48,65,2448222960
25,22,13,Improv_Metronome,75,5,42,127,2448478512
25,22,13,Improv_Metronome,76,1,48,73,2448648456
25,22,13,Improv_Metronome,77,5,42,127,2448979252
25,22,13,Improv_Metronome,78,1,38,81,2449009472
25,22,13,Improv_Metronome,79,1,48,73,2449379052
25,22,13,Improv_Metronome,80,5,42,127,2449479000
25,22,13,Improv_Metronome,81,1,38,86,2449555148
25,22,13,Improv_Metronome,82,1,48,79,2449758800
25,22,13,Improv_Metronome,83,1,38,72,2449911992
25,22,13,Improv_Metronome,84,5,42,127,2449978892
25,22,13,Improv_Metronome,85,1,48,81,2450155176
25,22,13,Improv_Metronome,86,5,42,127,2450478572
25,22,13,Improv_Metronome,87,1,48,77,2450549784
25,22,13,Improv_Metronome,88,1,38,71,2450894600
25,22,13,Improv_Metronome,89,5,42,127,2450979156
25,22,13,Improv_Metronome,90,1,48,67,2451242060
25,22,13,Improv_Metronome,91,5,42,127,2451478760
25,22,13,Improv_Metronome,92,1,48,88,2451633744
25,22,13,Improv_Metronome,93,5,42,127,2451978900
25,22,13,Improv_Metronome,94,1,48,76,2451994436
25,22,13,Improv_Metronome,95,1,38,65,2452369876
25,22,13,Improv_Metronome,96,5,42,127,2452479324
25,22,13,Improv_Metronome,97,1,48,84,2452737976
25,22,13,Improv_Metronome,98,5,42,127,2452978944
25,22,13,Improv_Metronome,99,1,48,72,2453107224
25,22,13,Improv_Metronome,100,5,42,127,2453478716
25,22,13,Improv_Metronome,101,1,48,78,2453490656
25,22,13,Improv_Metronome,102,1,38,78,2453862356
25,22,13,Improv_Metronome,103,5,42,127,2453978832
25,22,13,Improv_Metronome,104,1,48,70,2454211764
25,22,13,Improv_Metronome,105,5,42,127,2454479204
25,22,13,Improv_Metronome,106,1,48,77,2454589428
25,22,13,Improv_Metronome,107,1,48,81,2454958292
25,22,13,Improv_Metronome,108,5,42,127,2454978892
25,22,13,Improv_Metronome,109,1,38,78,2455308208
25,22,13,Improv_Metronome,110,5,42,127,2455478796
25,22,13,Improv_Metronome,111,1,48,76,2455663324
25,22,13,Improv_Metronome,112,1,48,59,2455858524
25,22,13,Improv_Metronome,113,5,42,127,2455979664
25,22,13,Improv_Metronome,114,1,48,47,2456029312
25,22,13,Improv_Metronome,115,1,38,81,2456361488
25,22,13,Improv_Metronome,116,5,42,127,2456479040
25,22,13,Improv_Metronome,117,1,48,79,2456705676
25,22,13,Improv_Metronome,118,5,42,127,2456978732
25,22,13,Improv_Metronome,119,1,48,89,2457079916
25,22,13,Improv_Metronome,120,1,38,59,2457419200
25,22,13,Improv_Metronome,121,5,42,127,2457478496
25,22,13,Improv_Metronome,122,1,48,85,2457775136
25,22,13,Improv_Metronome,123,5,42,127,2457979152
25,22,13,Improv_Metronome,124,1,48,85,2458163284
25,22,13,Improv_Metronome,125,5,42,127,2458478992
25,22,13,Improv_Metronome,126,1,38,62,2458534844
25,22,13,Improv_Metronome,127,1,48,72,2458917288
25,22,13,Improv_Metronome,128,5,42,127,2458978608
25,22,13,Improv_Metronome,129,1,48,89,2459307256
25,22,13,Improv_Metronome,130,5,42,127,2459479536
25,22,13,Improv_Metronome,131,1,38,60,2459644612
25,22,13,Improv_Metronome,132,5,42,127,2459979004
25,22,13,Improv_Metronome,133,1,48,78,2460037200
25,22,13,Improv_Metronome,134,1,38,66,2460196348
25,22,13,Improv_Metronome,135,1,48,81,2460406832
25,22,13,Improv_Metronome,136,5,42,127,2460478892
25,22,13,Improv_Metronome,137,1,38,86,2460596540
25,22,13,Improv_Metronome,138,1,48,91,2460853624
25,22,13,Improv_Metronome,139,5,42,127,2460978404
25,22,13,Improv_Metronome,140,1,48,76,2461208936
25,22,13,Improv_Metronome,141,5,42,127,2461479444
25,22,13,Improv_Metronome,142,1,38,74,2461564120
25,22,13,Improv_Metronome,143,1,48,85,2461897272
25,22,13,Improv_Metronome,144,5,42,127,2461979132
25,22,13,Improv_Metronome,145,1,48,96,2462309828
25,22,13,Improv_Metronome,146,5,42,127,2462478588
25,22,13,Improv_Metronome,147,1,48,88,2462647784
25,22,13,Improv_Metronome,148,5,42,127,2462978360
25,22,13,Improv_Metronome,149,1,38,68,2462989028
25,22,13,Improv_Metronome,150,1,48,94,2463359308
25,22,13,Improv_Metronome,151,5,42,127,2463479300
25,22,13,Improv_Metronome,152,1,48,82,2463710200
25,22,13,Improv_Metronome,153,5,42,127,2463979068
25,22,13,Improv_Metronome,154,1,48,74,2464072244
25,22,13,Improv_Metronome,155,1,38,20,2464083964
25,22,13,Improv_Metronome,156,1,38,68,2464448684
25,22,13,Improv_Metronome,157,5,42,127,2464478712
25,22,13,Improv_Metronome,158,1,48,67,2464817904
25,22,13,Improv_Metronome,159,5,42,127,2464979436
25,22,13,Improv_Metronome,160,1,48,76,2465190668
25,22,13,Improv_Metronome,161,5,42,127,2465479204
25,22,13,Improv_Metronome,162,1,48,85,2465575896
25,22,13,Improv_Metronome,163,1,38,64,2465948564
25,22,13,Improv_Metronome,164,5,42,127,2465978668
25,22,13,Improv_Metronome,165,1,48,76,2466302084
25,22,13,Improv_Metronome,166,1,38,73,2466464172
25,22,13,Improv_Metronome,167,5,42,127,2466478492
25,22,13,Improv_Metronome,168,1,48,53,2466653260
25,22,13,Improv_Metronome,169,1,38,21,2466665544
25,22,13,Improv_Metronome,170,1,38,78,2466798180
25,22,13,Improv_Metronome,171,5,42,127,2466979308
25,22,13,Improv_Metronome,172,1,48,79,2467041672
25,22,13,Improv_Metronome,173,1,38,78,2467389484
25,22,13,Improv_Metronome,174,5,42,127,2467479072
25,22,13,Improv_Metronome,175,1,48,82,2467765160
25,22,13,Improv_Metronome,176,1,38,83,2467976020
25,22,13,Improv_Metronome,177,5,42,127,2467978596
25,22,13,Improv_Metronome,178,1,48,80,2468135260
25,22,13,Improv_Metronome,179,1,38,71,2468332428
25,22,13,Improv_Metronome,180,5,42,127,2468479300
25,22,13,Improv_Metronome,181,1,48,72,2468538592
25,22,13,Improv_Metronome,182,1,38,76,2468873164
25,22,13,Improv_Metronome,183,5,42,127,2468979048
25,22,13,Improv_Metronome,184,1,48,84,2469238000
25,22,13,Improv_Metronome,185,1,38,75,2469399092
25,22,13,Improv_Metronome,186,5,42,127,2469478956
25,22,13,Improv_Metronome,187,1,48,80,2469585360
25,22,13,Improv_Metronome,188,1,38,77,2469760392
25,22,13,Improv_Metronome,189,1,48,56,2469950352
25,22,13,Improv_Metronome,190,1,38,24,2469962300
25,22,13,Improv_Metronome,191,5,42,127,2469978416
25,22,13,Improv_Metronome,192,1,38,76,2470304144
25,22,13,Improv_Metronome,193,5,42,127,2470479188
25,22,13,Improv_Metronome,194,1,48,77,2470665292
25,22,13,Improv_Metronome,195,1,38,79,2470817060
25,22,13,Improv_Metronome,196,5,42,127,2470978864
25,22,13,Improv_Metronome,197,1,48,78,2471045364
25,22,13,Improv_Metronome,198,1,38,78,2471216328
25,22,13,Improv_Metronome,199,1,48,62,2471412972
25,22,13,Improv_Metronome,200,5,42,127,2471478528
25,22,13,Improv_Metronome,201,1,38,83,2471766712
25,22,13,Improv_Metronome,202,5,42,127,2471979332
25,22,13,Improv_Metronome,203,1,48,87,2472127884
25,22,13,Improv_Metronome,204,5,42,127,2472479028
25,22,13,Improv_Metronome,205,1,48,90,2472531960
25,22,13,Improv_Metronome,206,5,42,127,2472978944
25,22,13,Improv_Metronome,207,1,38,80,2473218748
25,22,13,Improv_Metronome,208,5,42,127,2473478416
25,22,13,Improv_Metronome,209,1,48,73,2473671920
25,22,13,Improv_Metronome,210,1,38,21,2473683716
25,22,13,Improv_Metronome,211,1,48,34,2473853556
25,22,13,Improv_Metronome,212,1,38,18,2473865656
25,22,13,Improv_Metronome,213,5,42,127,2473979188
25,22,13,Improv_Metronome,214,1,48,65,2474060396
25,22,13,Improv_Metronome,215,1,38,95,2474395368
25,22,13,Improv_Metronome,216,5,42,127,2474478948
25,22,13,Improv_Metronome,217,1,48,85,2474780748
25,22,13,Improv_Metronome,218,5,42,127,2474978852
25,22,13,Improv_Metronome,219,1,48,79,2475130248
25,22,13,Improv_Metronome,220,5,42,127,2475479524
25,22,13,Improv_Metronome,221,1,48,66,2475561628
25,22,13,Improv_Metronome,222,1,38,82,2475884936
25,22,13,Improv_Metronome,223,5,42,127,2475979060
25,22,13,Improv_Metronome,224,1,48,69,2476209876
25,22,13,Improv_Metronome,225,5,42,127,2476478744
25,22,13,Improv_Metronome,226,1,48,97,2476590916
25,22,13,Improv_Metronome,227,1,48,79,2476934196
25,22,13,Improv_Metronome,228,5,42,127,2476978656
25,22,13,Improv_Metronome,229,1,38,85,2477279704
25,22,13,Improv_Metronome,230,5,42,127,2477479232
25,22,13,Improv_Metronome,231,1,48,69,2477619308
25,22,13,Improv_Metronome,232,1,48,78,2477965648
25,22,13,Improv_Metronome,233,5,42,127,2477978844
25,22,13,Improv_Metronome,234,1,48,72,2478325740
25,22,13,Improv_Metronome,235,5,42,127,2478478600
25,22,13,Improv_Metronome,236,1,38,75,2478678288
25,22,13,Improv_Metronome,237,5,42,127,2478978440
25,22,13,Improv_Metronome,238,1,48,78,2479007144
25,22,13,Improv_Metronome,239,1,48,63,2479305660
25,22,13,Improv_Metronome,240,5,42,127,2479479088
25,22,13,Improv_Metronome,241,1,48,70,2479688948
25,22,13,Improv_Metronome,242,5,42,127,2479978856
25,22,13,Improv_Metronome,243,1,38,70,2480015032
25,22,13,Improv_Metronome,244,1,48,70,2480352148
25,22,13,Improv_Metronome,245,5,42,127,2480478724
25,22,13,Improv_Metronome,246,1,48,53,2480701324
25,22,13,Improv_Metronome,247,1,38,17,2480713276
25,22,13,Improv_Metronome,248,5,42,127,2480979420
25,22,13,Improv_Metronome,249,1,48,71,2481075244
25,22,13,Improv_Metronome,250,1,38,68,2481407272
25,22,13,Improv_Metronome,251,5,42,127,2481478960
25,22,13,Improv_Metronome,252,1,48,81,2481749612
25,22,13,Improv_Metronome,253,5,42,127,2481978688
25,22,13,Improv_Metronome,254,1,48,81,2482134868
25,22,13,Improv_Metronome,255,5,42,127,2482478532
25,22,13,Improv_Metronome,256,1,48,76,2482496540
25,22,13,Improv_Metronome,257,1,38,70,2482817076
25,22,13,Improv_Metronome,258,5,42,127,2482979324
25,22,13,Improv_Metronome,259,1,48,76,2483161460
25,22,13,Improv_Metronome,260,1,38,51,2483309788
25,22,13,Improv_Metronome,261,5,42,127,2483478924
25,22,13,Improv_Metronome,262,1,48,75,2483492664
25,22,13,Improv_Metronome,263,1,38,87,2483687892
25,22,13,Improv_Metronome,264,1,48,81,2483897248
25,22,13,Improv_Metronome,265,5,42,127,2483978740
25,22,13,Improv_Metronome,266,1,38,82,2484234012
25,22,13,Improv_Metronome,267,5,42,127,2484479540
25,22,13,Improv_Metronome,268,1,48,85,2484602660
25,22,13,Improv_Metronome,269,1,38,78,2484759188
25,22,13,Improv_Metronome,270,1,48,73,2484955836
25,22,13,Improv_Metronome,271,5,42,127,2484978908
25,22,13,Improv_Metronome,272,1,48,66,2485190124
25,22,13,Improv_Metronome,273,1,38,57,2485466052
25,22,13,Improv_Metronome,274,5,42,127,2485478652
25,22,13,Improv_Metronome,275,1,48,75,2485862456
25,22,13,Improv_Metronome,276,5,42,127,2485978484
25,22,13,Improv_Metronome,277,5,42,127,2486479320
25,22,13,Improv_Metronome,278,1,48,62,2486499116
25,22,13,Improv_Metronome,279,1,38,62,2486810356
25,22,13,Improv_Metronome,280,1,48,60,2486972368
25,22,13,Improv_Metronome,281,5,42,127,2486979060
25,22,13,Improv_Metronome,282,1,48,64,2487364256
25,22,13,Improv_Metronome,283,5,42,127,2487478592
25,22,13,Improv_Metronome,284,1,38,72,2487723036
25,22,13,Improv_Metronome,285,1,48,50,2487901552
25,22,13,Improv_Metronome,286,1,38,20,2487913912
25,22,13,Improv_Metronome,287,5,42,127,2487979244
25,22,13,Improv_Metronome,288,1,48,61,2488252516
25,22,13,Improv_Metronome,289,5,42,127,2488479268
25,22,13,Improv_Metronome,290,1,48,68,2488600416
25,22,13,Improv_Metronome,291,1,38,54,2488947132
25,22,13,Improv_Metronome,292,5,42,127,2488978656
25,22,13,Improv_Metronome,293,1,48,61,2489281052
25,22,13,Improv_Metronome,294,5,42,127,2489478560
25,22,13,Improv_Metronome,295,1,48,53,2489628576
25,22,13,Improv_Metronome,296,1,48,55,2489962584
25,22,13,Improv_Metronome,297,5,42,127,2489979144
25,22,13,Improv_Metronome,298,1,38,58,2490261120
25,22,13,Improv_Metronome,299,5,42,127,2490478896
25,22,13,Improv_Metronome,300,1,48,55,2490538340
25,22,13,Improv_Metronome,301,1,48,55,2490824072
25,22,13,Improv_Metronome,302,5,42,127,2490978644
25,22,13,Improv_Metronome,303,1,48,56,2491160380
25,22,13,Improv_Metronome,304,1,38,57,2491474904
25,22,13,Improv_Metronome,305,5,42,127,2491479280
25,22,13,Improv_Metronome,306,1,48,57,2491762104
25,22,13,Improv_Metronome,307,1,38,73,2491941444
25,22,13,Improv_Metronome,308,5,42,127,2491979396
25,22,13,Improv_Metronome,309,1,48,54,2492087096
25,22,13,Improv_Metronome,310,1,38,73,2492258316
25,22,13,Improv_Metronome,311,1,48,57,2492445960
25,22,13,Improv_Metronome,312,5,42,127,2492478828
25,22,13,Improv_Metronome,313,1,38,69,2492739036
25,22,13,Improv_Metronome,314,5,42,127,2492978508
25,22,13,Improv_Metronome,315,1,48,60,2493034908
25,22,13,Improv_Metronome,316,1,38,95,2493228312
25,22,13,Improv_Metronome,317,1,48,59,2493410072
25,22,13,Improv_Metronome,318,5,42,127,2493479368
25,22,13,Improv_Metronome,319,1,38,58,2493633964
25,22,13,Improv_Metronome,320,1,48,53,2493781888
25,22,13,Improv_Metronome,321,5,42,127,2493978952
25,22,13,Improv_Metronome,322,1,38,76,2494103416
25,22,13,Improv_Metronome,323,1,48,73,2494364840
25,22,13,Improv_Metronome,324,5,42,127,2494478548
25,22,13,Improv_Metronome,325,1,38,86,2494575336
25,22,13,Improv_Metronome,326,1,48,50,2494730972
25,22,13,Improv_Metronome,327,1,38,76,2494936592
25,22,13,Improv_Metronome,328,5,42,127,2494978364
25,22,13,Improv_Metronome,329,1,48,64,2495133932
25,22,13,Improv_Metronome,330,1,38,81,2495448608
25,22,13,Improv_Metronome,331,5,42,127,2495479084
25,22,13,Improv_Metronome,332,1,48,73,2495717224
25,22,13,Improv_Metronome,333,1,38,93,2495933844
25,22,13,Improv_Metronome,334,5,42,127,2495978904
25,22,13,Improv_Metronome,335,1,48,56,2496107244
25,22,13,Improv_Metronome,336,1,38,73,2496320472
25,22,13,Improv_Metronome,337,5,42,127,2496478492
25,22,13,Improv_Metronome,338,1,48,60,2496516392
25,22,13,Improv_Metronome,339,1,38,55,2496860616
25,22,13,Improv_Metronome,340,5,42,127,2496979284
25,22,13,Improv_Metronome,341,1,48,67,2497190592
25,22,13,Improv_Metronome,342,1,38,70,2497361112
25,22,13,Improv_Metronome,343,5,42,127,2497478884
25,22,13,Improv_Metronome,344,1,48,55,2497562332
25,22,13,Improv_Metronome,345,1,38,74,2497727568
25,22,13,Improv_Metronome,346,1,48,83,2497946276
25,22,13,Improv_Metronome,347,5,42,127,2497978996
25,22,13,Improv_Metronome,348,1,38,67,2498278396
25,22,13,Improv_Metronome,349,5,42,127,2498478304
25,22,13,Improv_Metronome,350,1,48,51,2498615908
25,22,13,Improv_Metronome,351,1,38,64,2498779792
25,22,13,Improv_Metronome,352,1,48,58,2498961180
25,22,13,Improv_Metronome,353,5,42,127,2498979312
25,22,13,Improv_Metronome,354,1,38,64,2499142112
25,22,13,Improv_Metronome,355,1,48,56,2499318040
25,22,13,Improv_Metronome,356,5,42,127,2499478972
25,22,13,Improv_Metronome,357,1,38,65,2499645076
25,22,13,Improv_Metronome,358,5,42,127,2499978740
25,22,13,Improv_Metronome,359,1,48,67,2499997268
25,22,13,Improv_Metronome,360,1,38,77,2500154624
25,22,13,Improv_Metronome,361,1,48,68,2500337132
25,22,13,Improv_Metronome,362,5,42,127,2500479216
25,22,13,Improv_Metronome,363,1,38,79,2500505148
25,22,13,Improv_Metronome,364,1,48,66,2500690028
25,22,13,Improv_Metronome,365,5,42,127,2500978964
25,22,13,Improv_Metronome,366,1,38,89,2501040124
25,22,13,Improv_Metronome,367,1,48,82,2501346652
25,22,13,Improv_Metronome,0,9999,9999,9999,2431476788
25,22,13,Improv_Metronome,1,9999,9999,9999,2431976508
25,22,13,Improv_Metronome,2,9999,9999,9999,2432476224
25,22,13,Improv_Metronome,3,9999,9999,9999,2432976984
25,22,13,Improv_Metronome,4,9999,9999,9999,2433476704
25,22,13,Improv_Metronome,5,9999,9999,9999,2433976420
25,22,13,Improv_Metronome,6,9999,9999,9999,2434476136
25,22,13,Improv_Metronome,7,9999,9999,9999,2434976824
25,22,13,Improv_Metronome,8,9999,9999,9999,2435476540
25,22,13,Improv_Metronome,9,9999,9999,9999,2435976280
25,22,13,Improv_Metronome,10,9999,9999,9999,2436476984
25,22,13,Improv_Metronome,11,9999,9999,9999,2436976752
25,22,13,Improv_Metronome,12,9999,9999,9999,2437476440
25,22,13,Improv_Metronome,13,9999,9999,9999,2437976168
25,22,13,Improv_Metronome,14,9999,9999,9999,2438476904
25,22,13,Improv_Metronome,15,9999,9999,9999,2438976560
25,22,13,Improv_Metronome,16,9999,9999,9999,2439476332
25,22,13,Improv_Metronome,17,9999,9999,9999,2439977044
25,22,13,Improv_Metronome,18,9999,9999,9999,2440476724
25,22,13,Improv_Metronome,19,9999,9999,9999,2440976492
25,22,13,Improv_Metronome,20,9999,9999,9999,2441476188
25,22,13,Improv_Metronome,21,9999,9999,9999,2441976924
25,22,13,Improv_Metronome,22,9999,9999,9999,2442476600
25,22,13,Improv_Metronome,23,9999,9999,9999,2442976372
25,22,13,Improv_Metronome,24,9999,9999,9999,2443477112
25,22,13,Improv_Metronome,25,9999,9999,9999,2443976780
25,22,13,Improv_Metronome,26,9999,9999,9999,2444476536
25,22,13,Improv_Metronome,27,9999,9999,9999,2444976228
25,22,13,Improv_Metronome,28,9999,9999,9999,2445476952
25,22,13,Improv_Metronome,29,9999,9999,9999,2445976640
25,22,13,Improv_Metronome,30,9999,9999,9999,2446476392
25,22,13,Improv_Metronome,31,9999,9999,9999,2446976064
25,22,13,Improv_Metronome,32,9999,9999,9999,2447476800
25,22,13,Improv_Metronome,33,9999,9999,9999,2447976556
25,22,13,Improv_Metronome,34,9999,9999,9999,2448476224
25,22,13,Improv_Metronome,35,9999,9999,9999,2448976964
25,22,13,Improv_Metronome,36,9999,9999,9999,2449476716
25,22,13,Improv_Metronome,37,9999,9999,9999,2449976380
25,22,13,Improv_Metronome,38,9999,9999,9999,2450476136
25,22,13,Improv_Metronome,39,9999,9999,9999,2450976872
25,22,13,Improv_Metronome,40,9999,9999,9999,2451476548
25,22,13,Improv_Metronome,41,9999,9999,9999,2451976244
25,22,13,Improv_Metronome,42,9999,9999,9999,2452477036
25,22,13,Improv_Metronome,43,9999,9999,9999,2452976732
25,22,13,Improv_Metronome,44,9999,9999,9999,2453476428
25,22,13,Improv_Metronome,45,9999,9999,9999,2453976176
25,22,13,Improv_Metronome,46,9999,9999,9999,2454476916
25,22,13,Improv_Metronome,47,9999,9999,9999,2454976604
25,22,13,Improv_Metronome,48,9999,9999,9999,2455476284
25,22,13,Improv_Metronome,49,9999,9999,9999,2455977076
25,22,13,Improv_Metronome,50,9999,9999,9999,2456476752
25,22,13,Improv_Metronome,51,9999,9999,9999,2456976444
25,22,13,Improv_Metronome,52,9999,9999,9999,2457476212
25,22,13,Improv_Metronome,53,9999,9999,9999,2457976940
25,22,13,Improv_Metronome,54,9999,9999,9999,2458476632
25,22,13,Improv_Metronome,55,9999,9999,9999,2458976372
25,22,13,Improv_Metronome,56,9999,9999,9999,2459477096
25,22,13,Improv_Metronome,57,9999,9999,9999,2459976792
25,22,13,Improv_Metronome,58,9999,9999,9999,2460476532
25,22,13,Improv_Metronome,59,9999,9999,9999,2460976192
25,22,13,Improv_Metronome,60,9999,9999,9999,2461476932
25,22,13,Improv_Metronome,61,9999,9999,9999,2461976696
25,22,13,Improv_Metronome,62,9999,9999,9999,2462476376
25,22,13,Improv_Metronome,63,9999,9999,9999,2462976072
25,22,13,Improv_Metronome,64,9999,9999,9999,2463476792
25,22,13,Improv_Metronome,65,9999,9999,9999,2463976560
25,22,13,Improv_Metronome,66,9999,9999,9999,2464476276
25,22,13,Improv_Metronome,67,9999,9999,9999,2464977000
25,22,13,Improv_Metronome,68,9999,9999,9999,2465476696
25,22,13,Improv_Metronome,69,9999,9999,9999,2465976384
25,22,13,Improv_Metronome,70,9999,9999,9999,2466476132
25,22,13,Improv_Metronome,71,9999,9999,9999,2466976876
25,22,13,Improv_Metronome,72,9999,9999,9999,2467476564
25,22,13,Improv_Metronome,73,9999,9999,9999,2467976312
25,22,13,Improv_Metronome,74,9999,9999,9999,2468477012
25,22,13,Improv_Metronome,75,9999,9999,9999,2468976760
25,22,13,Improv_Metronome,76,9999,9999,9999,2469476448
25,22,13,Improv_Metronome,77,9999,9999,9999,2469976132
25,22,13,Improv_Metronome,78,9999,9999,9999,2470476900
25,22,13,Improv_Metronome,79,9999,9999,9999,2470976576
25,22,13,Improv_Metronome,80,9999,9999,9999,2471476316
25,22,13,Improv_Metronome,81,9999,9999,9999,2471977044
25,22,13,Improv_Metronome,82,9999,9999,9999,2472476740
25,22,13,Improv_Metronome,83,9999,9999,9999,2472976432
25,22,13,Improv_Metronome,84,9999,9999,9999,2473476204
25,22,13,Improv_Metronome,85,9999,9999,9999,2473976900
25,22,13,Improv_Metronome,86,9999,9999,9999,2474476664
25,22,13,Improv_Metronome,87,9999,9999,9999,2474976344
25,22,13,Improv_Metronome,88,9999,9999,9999,2475477084
25,22,13,Improv_Metronome,89,9999,9999,9999,2475976776
25,22,13,Improv_Metronome,90,9999,9999,9999,2476476532
25,22,13,Improv_Metronome,91,9999,9999,9999,2476976220
25,22,13,Improv_Metronome,92,9999,9999,9999,2477476944
25,22,13,Improv_Metronome,93,9999,9999,9999,2477976632
25,22,13,Improv_Metronome,94,9999,9999,9999,2478476388
25,22,13,Improv_Metronome,95,9999,9999,9999,2478976080
25,22,13,Improv_Metronome,96,9999,9999,9999,2479476800
25,22,13,Improv_Metronome,97,9999,9999,9999,2479976568
25,22,13,Improv_Metronome,98,9999,9999,9999,2480476216
25,22,13,Improv_Metronome,99,9999,9999,9999,2480976984
25,22,13,Improv_Metronome,100,9999,9999,9999,2481476672
25,22,13,Improv_Metronome,101,9999,9999,9999,2481976400
25,22,13,Improv_Metronome,102,9999,9999,9999,2482476096
25,22,13,Improv_Metronome,103,9999,9999,9999,2482976888
25,22,13,Improv_Metronome,104,9999,9999,9999,2483476564
25,22,13,Improv_Metronome,105,9999,9999,9999,2483976304
25,22,13,Improv_Metronome,106,9999,9999,9999,2484477028
25,22,13,Improv_Metronome,107,9999,9999,9999,2484976696
25,22,13,Improv_Metronome,108,9999,9999,9999,2485476444
25,22,13,Improv_Metronome,109,9999,9999,9999,2485976120
25,22,13,Improv_Metronome,110,9999,9999,9999,2486476884
25,22,13,Improv_Metronome,111,9999,9999,9999,2486976624
25,22,13,Improv_Metronome,112,9999,9999,9999,2487476304
25,22,13,Improv_Metronome,113,9999,9999,9999,2487977032
25,22,13,Improv_Metronome,114,9999,9999,9999,2488476756
25,22,13,Improv_Metronome,115,9999,9999,9999,2488976444
25,22,13,Improv_Metronome,116,9999,9999,9999,2489476196
25,22,13,Improv_Metronome,117,9999,9999,9999,2489976932
25,22,13,Improv_Metronome,118,9999,9999,9999,2490476612
25,22,13,Improv_Metronome,119,9999,9999,9999,2490976360
25,22,13,Improv_Metronome,120,9999,9999,9999,2491477068
25,22,13,Improv_Metronome,121,9999,9999,9999,2491976816
25,22,13,Improv_Metronome,122,9999,9999,9999,2492476468
25,22,13,Improv_Metronome,123,9999,9999,9999,2492976220
25,22,13,Improv_Metronome,124,9999,9999,9999,2493476932
25,22,13,Improv_Metronome,125,9999,9999,9999,2493976664
25,22,13,Improv_Metronome,126,9999,9999,9999,2494476336
25,22,13,Improv_Metronome,127,9999,9999,9999,2494976076
25,22,13,Improv_Metronome,128,9999,9999,9999,2495476796
25,22,13,Improv_Metronome,129,9999,9999,9999,2495976544
25,22,13,Improv_Metronome,130,9999,9999,9999,2496476280
25,22,13,Improv_Metronome,131,9999,9999,9999,2496977000
25,22,13,Improv_Metronome,132,9999,9999,9999,2497476672
25,22,13,Improv_Metronome,133,9999,9999,9999,2497976412
25,22,13,Improv_Metronome,134,9999,9999,9999,2498476092
25,22,13,Improv_Metronome,135,9999,9999,9999,2498976880
25,22,13,Improv_Metronome,136,9999,9999,9999,2499476536
25,22,13,Improv_Metronome,137,9999,9999,9999,2499976304
25,22,13,Improv_Metronome,138,9999,9999,9999,2500477004
25,22,13,Improv_Metronome,139,9999,9999,9999,2500976748
25,23,14,Improv_Melody,0,2,48,80,2560502144
25,23,14,Improv_Melody,1,2,72,80,2560504736
25,23,14,Improv_Melody,2,5,42,127,2560506304
25,23,14,Improv_Melody,3,5,42,110,2560998620
25,23,14,Improv_Melody,4,5,42,110,2561498416
25,23,14,Improv_Melody,5,5,42,110,2561999336
25,23,14,Improv_Melody,6,5,42,127,2562499056
25,23,14,Improv_Melody,7,5,42,110,2562998632
25,23,14,Improv_Melody,8,5,42,110,2563499400
25,23,14,Improv_Melody,9,5,42,110,2563999044
25,23,14,Improv_Melody,10,2,43,80,2564501348
25,23,14,Improv_Melody,11,2,67,80,2564503652
25,23,14,Improv_Melody,12,5,42,127,2564506188
25,23,14,Improv_Melody,13,5,42,110,2564998504
25,23,14,Improv_Melody,14,5,42,110,2565499124
25,23,14,Improv_Melody,15,5,42,110,2565999068
25,23,14,Improv_Melody,16,5,42,127,2566498940
25,23,14,Improv_Melody,17,5,42,110,2566999388
25,23,14,Improv_Melody,18,5,42,110,2567499032
25,23,14,Improv_Melody,19,5,42,110,2567998976
25,23,14,Improv_Melody,20,2,45,80,2568501056
25,23,14,Improv_Melody,21,2,69,80,2568503204
25,23,14,Improv_Melody,22,5,42,127,2568505744
25,23,14,Improv_Melody,23,5,42,110,2568999332
25,23,14,Improv_Melody,24,5,42,110,2569498980
25,23,14,Improv_Melody,25,5,42,110,2569998628
25,23,14,Improv_Melody,26,5,42,127,2570498424
25,23,14,Improv_Melody,27,5,42,110,2570999044
25,23,14,Improv_Melody,28,5,42,110,2571498764
25,23,14,Improv_Melody,29,5,42,110,2571998856
25,23,14,Improv_Melody,30,2,41,80,2572501836
25,23,14,Improv_Melody,31,2,65,80,2572503836
25,23,14,Improv_Melody,32,5,42,127,2572506448
25,23,14,Improv_Melody,33,5,42,110,2572998988
25,23,14,Improv_Melody,34,5,42,110,2573498636
25,23,14,Improv_Melody,35,5,42,110,2573998580
25,23,14,Improv_Melody,36,5,42,127,2574499052
25,23,14,Improv_Melody,37,5,42,110,2574998772
25,23,14,Improv_Melody,38,5,42,110,2575498720
25,23,14,Improv_Melody,39,5,42,110,2575999860
25,23,14,Improv_Melody,40,2,48,80,2576501716
25,23,14,Improv_Melody,41,2,72,80,2576503944
25,23,14,Improv_Melody,42,5,42,127,2576506476
25,23,14,Improv_Melody,43,1,48,46,2576587912
25,23,14,Improv_Melody,44,5,42,110,2576998696
25,23,14,Improv_Melody,45,5,42,110,2577498420
25,23,14,Improv_Melody,46,1,38,69,2577947660
25,23,14,Improv_Melody,47,5,42,110,2577999304
25,23,14,Improv_Melody,48,1,48,56,2578460296
25,23,14,Improv_Melody,49,5,42,127,2578498780
25,23,14,Improv_Melody,50,1,48,51,2578943464
25,23,14,Improv_Melody,51,5,42,110,2578998556
25,23,14,Improv_Melody,52,5,42,110,2579499308
25,23,14,Improv_Melody,53,1,38,59,2579792740
25,23,14,Improv_Melody,54,1,38,43,2579848692
25,23,14,Improv_Melody,55,5,42,110,2579999360
25,23,14,Improv_Melody,56,1,48,60,2580456252
25,23,14,Improv_Melody,57,2,43,80,2580501432
25,23,14,Improv_Melody,58,2,67,80,2580503504
25,23,14,Improv_Melody,59,5,42,127,2580506120
25,23,14,Improv_Melody,60,5,42,110,2580998420
25,23,14,Improv_Melody,61,5,42,110,2581499340
25,23,14,Improv_Melody,62,1,38,70,2581534172
25,23,14,Improv_Melody,63,1,38,45,2581579328
25,23,14,Improv_Melody,64,5,42,110,2581999016
25,23,14,Improv_Melody,65,1,48,54,2582463912
25,23,14,Improv_Melody,66,5,42,127,2582498656
25,23,14,Improv_Melody,67,1,48,67,2582973936
25,23,14,Improv_Melody,68,5,42,110,2582999404
25,23,14,Improv_Melody,69,1,48,41,2583007744
25,23,14,Improv_Melody,70,1,38,68,2583477428
25,23,14,Improv_Melody,71,5,42,110,2583499380
25,23,14,Improv_Melody,72,1,38,47,2583513408
25,23,14,Improv_Melody,73,5,42,110,2583998768
25,23,14,Improv_Melody,74,2,45,80,2584500992
25,23,14,Improv_Melody,75,2,69,80,2584503068
25,23,14,Improv_Melody,76,5,42,127,2584505832
25,23,14,Improv_Melody,77,1,48,65,2584534004
25,23,14,Improv_Melody,78,5,42,110,2584999396
25,23,14,Improv_Melody,79,5,42,110,2585499120
25,23,14,Improv_Melody,80,1,38,68,2585551528
25,23,14,Improv_Melody,81,1,38,48,2585584416
25,23,14,Improv_Melody,82,5,42,110,2585998572
25,23,14,Improv_Melody,83,1,48,65,2586481492
25,23,14,Improv_Melody,84,5,42,127,2586498436
25,23,14,Improv_Melody,85,5,42,110,2586999116
25,23,14,Improv_Melody,86,1,48,78,2587012188
25,23,14,Improv_Melody,87,5,42,110,2587498964
25,23,14,Improv_Melody,88,1,38,60,2587519884
25,23,14,Improv_Melody,89,1,38,46,2587552476
25,23,14,Improv_Melody,90,5,42,110,2587998496
25,23,14,Improv_Melody,91,2,41,80,2588501668
25,23,14,Improv_Melody,92,2,65,80,2588504160
25,23,14,Improv_Melody,93,5,42,127,2588506324
25,23,14,Improv_Melody,94,1,48,74,2588528288
25,23,14,Improv_Melody,95,5,42,110,2588998964
25,23,14,Improv_Melody,96,5,42,110,2589498984
25,23,14,Improv_Melody,97,1,38,57,2589509508
25,23,14,Improv_Melody,98,1,38,45,2589534944
25,23,14,Improv_Melody,99,5,42,110,2589998588
25,23,14,Improv_Melody,100,1,48,71,2590443888
25,23,14,Improv_Melody,101,5,42,127,2590499052
25,23,14,Improv_Melody,102,1,48,71,2590969688
25,23,14,Improv_Melody,103,5,42,110,2590998976
25,23,14,Improv_Melody,104,1,38,59,2591474904
25,23,14,Improv_Melody,105,5,42,110,2591498652
25,23,14,Improv_Melody,106,5,42,110,2591999332
25,23,14,Improv_Melody,107,1,48,77,2592445828
25,23,14,Improv_Melody,108,2,48,80,2592501400
25,23,14,Improv_Melody,109,2,72,80,2592503628
25,23,14,Improv_Melody,110,5,42,127,2592506240
25,23,14,Improv_Melody,111,5,42,110,2592998916
25,23,14,Improv_Melody,112,5,42,110,2593498564
25,23,14,Improv_Melody,113,1,38,67,2593522552
25,23,14,Improv_Melody,114,1,38,52,2593546764
25,23,14,Improv_Melody,115,5,42,110,2593999216
25,23,14,Improv_Melody,116,1,48,62,2594494628
25,23,14,Improv_Melody,117,5,42,127,2594498856
25,23,14,Improv_Melody,118,5,42,110,2594998636
25,23,14,Improv_Melody,119,1,48,61,2595002728
25,23,14,Improv_Melody,120,5,42,110,2595499384
25,23,14,Improv_Melody,121,1,38,59,2595528156
25,23,14,Improv_Melody,122,5,42,110,2595999156
25,23,14,Improv_Melody,123,2,43,80,2596501312
25,23,14,Improv_Melody,124,1,48,76,2596503628
25,23,14,Improv_Melody,125,2,67,80,2596505336
25,23,14,Improv_Melody,126,5,42,127,2596507652
25,23,14,Improv_Melody,127,5,42,110,2596998680
25,23,14,Improv_Melody,128,5,42,110,2597499152
25,23,14,Improv_Melody,129,1,38,65,2597540340
25,23,14,Improv_Melody,130,5,42,110,2597999072
25,23,14,Improv_Melody,131,1,48,70,2598461924
25,23,14,Improv_Melody,132,5,42,127,2598498788
25,23,14,Improv_Melody,133,1,48,65,2598987576
25,23,14,Improv_Melody,134,5,42,110,2598999388
25,23,14,Improv_Melody,135,1,38,77,2599487876
25,23,14,Improv_Melody,136,5,42,110,2599498984
25,23,14,Improv_Melody,137,5,42,110,2599998840
25,23,14,Improv_Melody,138,2,45,80,2600501148
25,23,14,Improv_Melody,139,2,69,80,2600503376
25,23,14,Improv_Melody,140,5,42,127,2600505908
25,23,14,Improv_Melody,141,1,48,73,2600557296
25,23,14,Improv_Melody,142,5,42,110,2600999472
25,23,14,Improv_Melody,143,5,42,110,2601499044
25,23,14,Improv_Melody,144,1,38,64,2601532160
25,23,14,Improv_Melody,145,5,42,110,2601998672
25,23,14,Improv_Melody,146,1,48,62,2602455712
25,23,14,Improv_Melody,147,5,42,127,2602498384
25,23,14,Improv_Melody,148,1,48,70,2602978600
25,23,14,Improv_Melody,149,5,42,110,2602999280
25,23,14,Improv_Melody,150,1,38,69,2603483388
25,23,14,Improv_Melody,151,5,42,110,2603498832
25,23,14,Improv_Melody,152,5,42,110,2603998464
25,23,14,Improv_Melody,153,2,41,80,2604501892
25,23,14,Improv_Melody,154,2,65,80,2604504040
25,23,14,Improv_Melody,155,5,42,127,2604506580
25,23,14,Improv_Melody,156,1,48,77,2604527420
25,23,14,Improv_Melody,157,5,42,110,2604999244
25,23,14,Improv_Melody,158,5,42,110,2605498668
25,23,14,Improv_Melody,159,1,38,69,2605510916
25,23,14,Improv_Melody,160,5,42,110,2605998592
25,23,14,Improv_Melody,161,1,48,69,2606491608
25,23,14,Improv_Melody,162,5,42,127,2606499204
25,23,14,Improv_Melody,163,1,48,64,2606999060
25,23,14,Improv_Melody,164,5,42,110,2607000548
25,23,14,Improv_Melody,165,5,42,110,2607498540
25,23,14,Improv_Melody,166,1,38,62,2607503228
25,23,14,Improv_Melody,167,5,42,110,2607999284
25,23,14,Improv_Melody,168,2,48,80,2608501816
25,23,14,Improv_Melody,169,2,72,80,2608503964
25,23,14,Improv_Melody,170,5,42,127,2608506496
25,23,14,Improv_Melody,171,1,48,74,2608533632
25,23,14,Improv_Melody,172,5,42,110,2608998644
25,23,14,Improv_Melody,173,1,38,66,2609498220
25,23,14,Improv_Melody,174,5,42,110,2609500828
25,23,14,Improv_Melody,175,1,38,56,2609522480
25,23,14,Improv_Melody,176,5,42,110,2609999144
25,23,14,Improv_Melody,177,5,42,127,2610499012
25,23,14,Improv_Melody,178,1,48,72,2610511632
25,23,14,Improv_Melody,179,1,48,67,2610991192
25,23,14,Improv_Melody,180,5,42,110,2610998556
25,23,14,Improv_Melody,181,1,48,48,2611016772
25,23,14,Improv_Melody,182,5,42,110,2611499364
25,23,14,Improv_Melody,183,1,38,60,2611503828
25,23,14,Improv_Melody,184,5,42,110,2611999064
25,23,14,Improv_Melody,185,1,48,62,2612492904
25,23,14,Improv_Melody,186,2,43,80,2612501512
25,23,14,Improv_Melody,187,2,67,80,2612503588
25,23,14,Improv_Melody,188,5,42,127,2612506120
25,23,14,Improv_Melody,189,5,42,110,2612998496
25,23,14,Improv_Melody,190,1,38,76,2613464740
25,23,14,Improv_Melody,191,5,42,110,2613499184
25,23,14,Improv_Melody,192,5,42,110,2613998820
25,23,14,Improv_Melody,193,1,48,74,2614384876
25,23,14,Improv_Melody,194,5,42,127,2614498888
25,23,14,Improv_Melody,195,1,48,74,2614953092
25,23,14,Improv_Melody,196,5,42,110,2614999428
25,23,14,Improv_Melody,197,1,38,73,2615480472
25,23,14,Improv_Melody,198,5,42,110,2615499056
25,23,14,Improv_Melody,199,1,38,58,2615500908
25,23,14,Improv_Melody,200,5,42,110,2615998740
25,23,14,Improv_Melody,201,2,45,80,2616501272
25,23,14,Improv_Melody,202,2,69,80,2616503420
25,23,14,Improv_Melody,203,5,42,127,2616505956
25,23,14,Improv_Melody,204,1,48,66,2616527028
25,23,14,Improv_Melody,205,5,42,110,2616999296
25,23,14,Improv_Melody,206,5,42,110,2617498944
25,23,14,Improv_Melody,207,1,38,71,2617540508
25,23,14,Improv_Melody,208,1,38,57,2617560008
25,23,14,Improv_Melody,209,5,42,110,2617998844
25,23,14,Improv_Melody,210,1,48,72,2618487004
25,23,14,Improv_Melody,211,5,42,127,2618498560
25,23,14,Improv_Melody,212,1,48,62,2618973916
25,23,14,Improv_Melody,213,5,42,110,2618999088
25,23,14,Improv_Melody,214,1,38,65,2619488872
25,23,14,Improv_Melody,215,5,42,110,2619498788
25,23,14,Improv_Melody,216,5,42,110,2619998644
25,23,14,Improv_Melody,217,1,48,78,2620494856
25,23,14,Improv_Melody,218,2,41,80,2620501960
25,23,14,Improv_Melody,219,2,65,80,2620504116
25,23,14,Improv_Melody,220,5,42,127,2620506872
25,23,14,Improv_Melody,221,5,42,110,2620999000
25,23,14,Improv_Melody,222,1,38,73,2621470928
25,23,14,Improv_Melody,223,5,42,110,2621498716
25,23,14,Improv_Melody,224,5,42,110,2621998500
25,23,14,Improv_Melody,225,1,48,66,2622498664
25,23,14,Improv_Melody,226,5,42,127,2622500456
25,23,14,Improv_Melody,227,1,48,75,2622993984
25,23,14,Improv_Melody,228,5,42,110,2622998812
25,23,14,Improv_Melody,229,5,42,110,2623498592
25,23,14,Improv_Melody,230,1,38,66,2623511432
25,23,14,Improv_Melody,231,5,42,110,2623999484
25,23,14,Improv_Melody,232,2,48,80,2624501488
25,23,14,Improv_Melody,233,2,72,80,2624503492
25,23,14,Improv_Melody,234,5,42,127,2624506180
25,23,14,Improv_Melody,235,1,48,73,2624509972
25,23,14,Improv_Melody,236,1,48,70,2624987656
25,23,14,Improv_Melody,237,5,42,110,2624998764
25,23,14,Improv_Melody,238,5,42,110,2625498472
25,23,14,Improv_Melody,239,1,38,92,2625499512
25,23,14,Improv_Melody,240,1,38,33,2625601872
25,23,14,Improv_Melody,241,1,38,25,2625657300
25,23,14,Improv_Melody,242,1,48,74,2625945572
25,23,14,Improv_Melody,243,5,42,110,2625999464
25,23,14,Improv_Melody,244,1,48,95,2626434356
25,23,14,Improv_Melody,245,5,42,127,2626498868
25,23,14,Improv_Melody,246,1,48,74,2626887056
25,23,14,Improv_Melody,247,1,48,33,2626941508
25,23,14,Improv_Melody,248,5,42,110,2626998544
25,23,14,Improv_Melody,249,1,38,76,2627406776
25,23,14,Improv_Melody,250,1,38,34,2627490108
25,23,14,Improv_Melody,251,5,42,110,2627499344
25,23,14,Improv_Melody,252,1,48,74,2627870700
25,23,14,Improv_Melody,253,5,42,110,2627999176
25,23,14,Improv_Melody,254,1,48,83,2628367412
25,23,14,Improv_Melody,255,2,43,80,2628501308
25,23,14,Improv_Melody,256,2,67,80,2628503308
25,23,14,Improv_Melody,257,5,42,127,2628505996
25,23,14,Improv_Melody,258,1,48,78,2628854480
25,23,14,Improv_Melody,259,1,48,45,2628909508
25,23,14,Improv_Melody,260,5,42,110,2628998432
25,23,14,Improv_Melody,261,1,38,89,2629368668
25,23,14,Improv_Melody,262,1,38,48,2629406344
25,23,14,Improv_Melody,263,5,42,110,2629499216
25,23,14,Improv_Melody,264,1,48,72,2629869168
25,23,14,Improv_Melody,265,5,42,110,2629998920
25,23,14,Improv_Melody,266,1,48,64,2630372160
25,23,14,Improv_Melody,267,5,42,127,2630498692
25,23,14,Improv_Melody,268,1,48,86,2630870516
25,23,14,Improv_Melody,269,1,48,27,2630941104
25,23,14,Improv_Melody,270,5,42,110,2630999360
25,23,14,Improv_Melody,271,1,48,21,2631004336
25,23,14,Improv_Melody,272,1,38,95,2631421632
25,23,14,Improv_Melody,273,1,38,48,2631461256
25,23,14,Improv_Melody,274,5,42,110,2631499064
25,23,14,Improv_Melody,275,1,48,86,2631913832
25,23,14,Improv_Melody,276,5,42,110,2631998840
25,23,14,Improv_Melody,277,1,48,90,2632428716
25,23,14,Improv_Melody,278,2,45,80,2632501120
25,23,14,Improv_Melody,279,2,69,80,2632503352
25,23,14,Improv_Melody,280,5,42,127,2632506032
25,23,14,Improv_Melody,281,1,48,75,2632966800
25,23,14,Improv_Melody,282,5,42,110,2632999152
25,23,14,Improv_Melody,283,1,48,40,2633019084
25,23,14,Improv_Melody,284,5,42,110,2633499136
25,23,14,Improv_Melody,285,1,38,88,2633501884
25,23,14,Improv_Melody,286,1,38,47,2633558280
25,23,14,Improv_Melody,287,1,48,80,2633988816
25,23,14,Improv_Melody,288,5,42,110,2633998584
25,23,14,Improv_Melody,289,1,48,95,2634467356
25,23,14,Improv_Melody,290,5,42,127,2634498356
25,23,14,Improv_Melody,291,1,48,87,2634936908
25,23,14,Improv_Melody,292,5,42,110,2634999104
25,23,14,Improv_Melody,293,1,38,88,2635464884
25,23,14,Improv_Melody,294,5,42,110,2635498952
25,23,14,Improv_Melody,295,1,38,43,2635515972
25,23,14,Improv_Melody,296,1,48,84,2635965008
25,23,14,Improv_Melody,297,5,42,110,2635999000
25,23,14,Improv_Melody,298,1,48,95,2636493428
25,23,14,Improv_Melody,299,2,41,80,2636502184
25,23,14,Improv_Melody,300,2,65,80,2636504112
25,23,14,Improv_Melody,301,5,42,127,2636506792
25,23,14,Improv_Melody,302,5,42,110,2636999168
25,23,14,Improv_Melody,303,1,48,101,2637006104
25,23,14,Improv_Melody,304,1,48,33,2637100852
25,23,14,Improv_Melody,305,1,48,30,2637174008
25,23,14,Improv_Melody,306,5,42,110,2637498900
25,23,14,Improv_Melody,307,1,38,89,2637519816
25,23,14,Improv_Melody,308,1,38,40,2637581056
25,23,14,Improv_Melody,309,1,48,83,2637988732
25,23,14,Improv_Melody,310,5,42,110,2637998644
25,23,14,Improv_Melody,311,1,48,86,2638471232
25,23,14,Improv_Melody,312,5,42,127,2638499168
25,23,14,Improv_Melody,313,1,48,97,2638969136
25,23,14,Improv_Melody,314,5,42,110,2638998944
25,23,14,Improv_Melody,315,1,48,30,2639040044
25,23,14,Improv_Melody,316,1,48,19,2639110708
25,23,14,Improv_Melody,317,1,38,75,2639492132
25,23,14,Improv_Melody,318,5,42,110,2639498824
25,23,14,Improv_Melody,319,1,48,88,2639983372
25,23,14,Improv_Melody,320,5,42,110,2639999420
25,23,14,Improv_Melody,321,1,48,102,2640477912
25,23,14,Improv_Melody,322,2,48,80,2640501476
25,23,14,Improv_Melody,323,2,72,80,2640503700
25,23,14,Improv_Melody,324,5,42,127,2640506168
25,23,14,Improv_Melody,325,1,48,93,2640994608
25,23,14,Improv_Melody,326,5,42,110,2640998908
25,23,14,Improv_Melody,327,1,48,38,2641056916
25,23,14,Improv_Melody,328,1,48,24,2641125412
25,23,14,Improv_Melody,0,9999,9999,9999,2560496716
25,23,14,Improv_Melody,1,9999,9999,9999,2560996404
25,23,14,Improv_Melody,2,9999,9999,9999,2561496124
25,23,14,Improv_Melody,3,9999,9999,9999,2561996892
25,23,14,Improv_Melody,4,9999,9999,9999,2562496616
25,23,14,Improv_Melody,5,9999,9999,9999,2562996340
25,23,14,Improv_Melody,6,9999,9999,9999,2563497032
25,23,14,Improv_Melody,7,9999,9999,9999,2563996756
25,23,14,Improv_Melody,8,9999,9999,9999,2564496476
25,23,14,Improv_Melody,9,9999,9999,9999,2564996212
25,23,14,Improv_Melody,10,9999,9999,9999,2565496904
25,23,14,Improv_Melody,11,9999,9999,9999,2565996628
25,23,14,Improv_Melody,12,9999,9999,9999,2566496348
25,23,14,Improv_Melody,13,9999,9999,9999,2566997092
25,23,14,Improv_Melody,14,9999,9999,9999,2567496816
25,23,14,Improv_Melody,15,9999,9999,9999,2567996536
25,23,14,Improv_Melody,16,9999,9999,9999,2568496184
25,23,14,Improv_Melody,17,9999,9999,9999,2568996968
25,23,14,Improv_Melody,18,9999,9999,9999,2569496688
25,23,14,Improv_Melody,19,9999,9999,9999,2569996336
25,23,14,Improv_Melody,20,9999,9999,9999,2570496056
25,23,14,Improv_Melody,21,9999,9999,9999,2570996824
25,23,14,Improv_Melody,22,9999,9999,9999,2571496548
25,23,14,Improv_Melody,23,9999,9999,9999,2571996268
25,23,14,Improv_Melody,24,9999,9999,9999,2572496960
25,23,14,Improv_Melody,25,9999,9999,9999,2572996696
25,23,14,Improv_Melody,26,9999,9999,9999,2573496420
25,23,14,Improv_Melody,27,9999,9999,9999,2573996140
25,23,14,Improv_Melody,28,9999,9999,9999,2574496832
25,23,14,Improv_Melody,29,9999,9999,9999,2574996556
25,23,14,Improv_Melody,30,9999,9999,9999,2575496280
25,23,14,Improv_Melody,31,9999,9999,9999,2575997044
25,23,14,Improv_Melody,32,9999,9999,9999,2576496696
25,23,14,Improv_Melody,33,9999,9999,9999,2576996408
25,23,14,Improv_Melody,34,9999,9999,9999,2577496128
25,23,14,Improv_Melody,35,9999,9999,9999,2577996864
25,23,14,Improv_Melody,36,9999,9999,9999,2578496564
25,23,14,Improv_Melody,37,9999,9999,9999,2578996340
25,23,14,Improv_Melody,38,9999,9999,9999,2579497016
25,23,14,Improv_Melody,39,9999,9999,9999,2579996768
25,23,14,Improv_Melody,40,9999,9999,9999,2580496484
25,23,14,Improv_Melody,41,9999,9999,9999,2580996204
25,23,14,Improv_Melody,42,9999,9999,9999,2581496900
25,23,14,Improv_Melody,43,9999,9999,9999,2581996652
25,23,14,Improv_Melody,44,9999,9999,9999,2582496364
25,23,14,Improv_Melody,45,9999,9999,9999,2582997112
25,23,14,Improv_Melody,46,9999,9999,9999,2583496792
25,23,14,Improv_Melody,47,9999,9999,9999,2583996476
25,23,14,Improv_Melody,48,9999,9999,9999,2584496196
25,23,14,Improv_Melody,49,9999,9999,9999,2584996956
25,23,14,Improv_Melody,50,9999,9999,9999,2585496680
25,23,14,Improv_Melody,51,9999,9999,9999,2585996356
25,23,14,Improv_Melody,52,9999,9999,9999,2586496072
25,23,14,Improv_Melody,53,9999,9999,9999,2586996824
25,23,14,Improv_Melody,54,9999,9999,9999,2587496524
25,23,14,Improv_Melody,55,9999,9999,9999,2587996276
25,23,14,Improv_Melody,56,9999,9999,9999,2588496948
25,23,14,Improv_Melody,57,9999,9999,9999,2588996672
25,23,14,Improv_Melody,58,9999,9999,9999,2589496396
25,23,14,Improv_Melody,59,9999,9999,9999,2589996148
25,23,14,Improv_Melody,60,9999,9999,9999,2590496836
25,23,14,Improv_Melody,61,9999,9999,9999,2590996536
25,23,14,Improv_Melody,62,9999,9999,9999,2591496288
25,23,14,Improv_Melody,63,9999,9999,9999,2591997040
25,23,14,Improv_Melody,64,9999,9999,9999,2592496756
25,23,14,Improv_Melody,65,9999,9999,9999,2592996400
25,23,14,Improv_Melody,66,9999,9999,9999,2593496124
25,23,14,Improv_Melody,67,9999,9999,9999,2593996848
25,23,14,Improv_Melody,68,9999,9999,9999,2594496564
25,23,14,Improv_Melody,69,9999,9999,9999,2594996344
25,23,14,Improv_Melody,70,9999,9999,9999,2595497016
25,23,14,Improv_Melody,71,9999,9999,9999,2595996788
25,23,14,Improv_Melody,72,9999,9999,9999,2596496436
25,23,14,Improv_Melody,73,9999,9999,9999,2596996164
25,23,14,Improv_Melody,74,9999,9999,9999,2597496932
25,23,14,Improv_Melody,75,9999,9999,9999,2597996632
25,23,14,Improv_Melody,76,9999,9999,9999,2598496348
25,23,14,Improv_Melody,77,9999,9999,9999,2598997068
25,23,14,Improv_Melody,78,9999,9999,9999,2599496768
25,23,14,Improv_Melody,79,9999,9999,9999,2599996472
25,23,14,Improv_Melody,80,9999,9999,9999,2600496196
25,23,14,Improv_Melody,81,9999,9999,9999,2600996956
25,23,14,Improv_Melody,82,9999,9999,9999,2601496680
25,23,14,Improv_Melody,83,9999,9999,9999,2601996380
25,23,14,Improv_Melody,84,9999,9999,9999,2602496096
25,23,14,Improv_Melody,85,9999,9999,9999,2602996840
25,23,14,Improv_Melody,86,9999,9999,9999,2603496540
25,23,14,Improv_Melody,87,9999,9999,9999,2603996248
25,23,14,Improv_Melody,88,9999,9999,9999,2604497016
25,23,14,Improv_Melody,89,9999,9999,9999,2604996728
25,23,14,Improv_Melody,90,9999,9999,9999,2605496376
25,23,14,Improv_Melody,91,9999,9999,9999,2605996152
25,23,14,Improv_Melody,92,9999,9999,9999,2606496840
25,23,14,Improv_Melody,93,9999,9999,9999,2606996548
25,23,14,Improv_Melody,94,9999,9999,9999,2607496248
25,23,14,Improv_Melody,95,9999,9999,9999,2607996992
25,23,14,Improv_Melody,96,9999,9999,9999,2608496716
25,23,14,Improv_Melody,97,9999,9999,9999,2608996428
25,23,14,Improv_Melody,98,9999,9999,9999,2609496148
25,23,14,Improv_Melody,99,9999,9999,9999,2609996852
25,23,14,Improv_Melody,100,9999,9999,9999,2610496572
25,23,14,Improv_Melody,101,9999,9999,9999,2610996340
25,23,14,Improv_Melody,102,9999,9999,9999,2611497072
25,23,14,Improv_Melody,103,9999,9999,9999,2611996772
25,23,14,Improv_Melody,104,9999,9999,9999,2612496488
25,23,14,Improv_Melody,105,9999,9999,9999,2612996208
25,23,14,Improv_Melody,106,9999,9999,9999,2613496896
25,23,14,Improv_Melody,107,9999,9999,9999,2613996600
25,23,14,Improv_Melody,108,9999,9999,9999,2614496376
25,23,14,Improv_Melody,109,9999,9999,9999,2614997064
25,23,14,Improv_Melody,110,9999,9999,9999,2615496764
25,23,14,Improv_Melody,111,9999,9999,9999,2615996524
25,23,14,Improv_Melody,112,9999,9999,9999,2616496244
25,23,14,Improv_Melody,113,9999,9999,9999,2616996928
25,23,14,Improv_Melody,114,9999,9999,9999,2617496652
25,23,14,Improv_Melody,115,9999,9999,9999,2617996404
25,23,14,Improv_Melody,116,9999,9999,9999,2618496120
25,23,14,Improv_Melody,117,9999,9999,9999,2618996796
25,23,14,Improv_Melody,118,9999,9999,9999,2619496496
25,23,14,Improv_Melody,119,9999,9999,9999,2619996276
25,23,14,Improv_Melody,120,9999,9999,9999,2620497012
25,23,14,Improv_Melody,121,9999,9999,9999,2620996708
25,23,14,Improv_Melody,122,9999,9999,9999,2621496424
25,23,14,Improv_Melody,123,9999,9999,9999,2621996132
25,23,14,Improv_Melody,124,9999,9999,9999,2622496824
25,23,14,Improv_Melody,125,9999,9999,9999,2622996592
25,23,14,Improv_Melody,126,9999,9999,9999,2623496300
25,23,14,Improv_Melody,127,9999,9999,9999,2623997044
25,23,14,Improv_Melody,128,9999,9999,9999,2624496692
25,23,14,Improv_Melody,129,9999,9999,9999,2624996472
25,23,14,Improv_Melody,130,9999,9999,9999,2625496180
25,23,14,Improv_Melody,131,9999,9999,9999,2625996876
25,23,14,Improv_Melody,132,9999,9999,9999,2626496576
25,23,14,Improv_Melody,133,9999,9999,9999,2626996328
25,23,14,Improv_Melody,134,9999,9999,9999,2627497052
25,23,14,Improv_Melody,135,9999,9999,9999,2627996736
25,23,14,Improv_Melody,136,9999,9999,9999,2628496436
25,23,14,Improv_Melody,137,9999,9999,9999,2628996216
25,23,14,Improv_Melody,138,9999,9999,9999,2629496924
25,23,14,Improv_Melody,139,9999,9999,9999,2629996628
25,23,14,Improv_Melody,140,9999,9999,9999,2630496324
25,23,14,Improv_Melody,141,9999,9999,9999,2630997068
25,23,14,Improv_Melody,142,9999,9999,9999,2631496776
25,23,14,Improv_Melody,143,9999,9999,9999,2631996472
25,23,14,Improv_Melody,144,9999,9999,9999,2632496248
25,23,14,Improv_Melody,145,9999,9999,9999,2632996936
25,23,14,Improv_Melody,146,9999,9999,9999,2633496692
25,23,14,Improv_Melody,147,9999,9999,9999,2633996364
25,23,14,Improv_Melody,148,9999,9999,9999,2634496064
25,23,14,Improv_Melody,149,9999,9999,9999,2634996812
25,23,14,Improv_Melody,150,9999,9999,9999,2635496512
25,23,14,Improv_Melody,151,9999,9999,9999,2635996264
25,23,14,Improv_Melody,152,9999,9999,9999,2636497008
25,23,14,Improv_Melody,153,9999,9999,9999,2636996728
25,23,14,Improv_Melody,154,9999,9999,9999,2637496384
25,23,14,Improv_Melody,155,9999,9999,9999,2637996132
25,23,14,Improv_Melody,156,9999,9999,9999,2638496876
25,23,14,Improv_Melody,157,9999,9999,9999,2638996576
25,23,14,Improv_Melody,158,9999,9999,9999,2639496308
25,23,14,Improv_Melody,159,9999,9999,9999,2639996980
25,23,14,Improv_Melody,160,9999,9999,9999,2640496756
25,23,14,Improv_Melody,161,9999,9999,9999,2640996468
