pid,taskRunCount,taskID,taskName,i,channel,pitch,velocity,microseconds
1,1,Ticks_Pract_5,0,5,42,127,795114876
241,1,Ticks_Pract_5,1,5,42,127,795614744
241,1,Ticks_Pract_5,2,5,42,127,796115284
241,1,Ticks_Pract_5,3,5,42,127,796615000
241,1,Ticks_Pract_5,4,5,42,127,797114716
241,1,Ticks_Pract_5,5,1,48,35,797149024
241,1,Ticks_Pract_5,6,1,48,48,797569716
241,1,Ticks_Pract_5,7,5,42,127,797614628
241,1,Ticks_Pract_5,8,1,48,40,798068216
241,1,Ticks_Pract_5,9,5,42,127,798115144
241,1,Ticks_Pract_5,10,1,48,43,798559360
241,1,Ticks_Pract_5,11,5,42,127,798614916
241,1,Ticks_Pract_5,12,1,48,43,799080368
241,1,Ticks_Pract_5,13,5,42,127,799114460
241,1,Ticks_Pract_5,14,1,48,45,799570936
241,1,Ticks_Pract_5,15,5,42,127,799615648
241,1,Ticks_Pract_5,16,1,48,43,800064496
241,1,Ticks_Pract_5,17,5,42,127,800114968
241,1,Ticks_Pract_5,18,1,48,44,800574812
241,1,Ticks_Pract_5,19,5,42,127,800614788
241,1,Ticks_Pract_5,20,1,48,42,801084980
241,1,Ticks_Pract_5,21,5,42,127,801114632
241,1,Ticks_Pract_5,22,1,48,43,801597692
241,1,Ticks_Pract_5,23,5,42,127,801615376
241,1,Ticks_Pract_5,24,1,48,44,802095440
241,1,Ticks_Pract_5,25,5,42,127,802114772
241,1,Ticks_Pract_5,26,1,48,47,802594388
241,1,Ticks_Pract_5,27,5,42,127,802614616
241,1,Ticks_Pract_5,28,1,48,47,803076952
241,1,Ticks_Pract_5,29,5,42,127,803115580
241,1,Ticks_Pract_5,30,1,48,47,803592952
241,1,Ticks_Pract_5,31,5,42,127,803615052
241,1,Ticks_Pract_5,32,1,48,46,804073724
241,1,Ticks_Pract_5,33,5,42,127,804114744
241,1,Ticks_Pract_5,34,1,48,45,804562868
241,1,Ticks_Pract_5,35,5,42,127,804614512
241,1,Ticks_Pract_5,36,1,48,50,805026584
241,1,Ticks_Pract_5,37,1,48,28,805080568
241,1,Ticks_Pract_5,38,5,42,127,805115380
241,1,Ticks_Pract_5,39,1,48,45,805564028
241,1,Ticks_Pract_5,40,1,48,28,805615660
241,1,Ticks_Pract_5,41,5,42,127,805617000
241,1,Ticks_Pract_5,42,1,48,48,806077316
241,1,Ticks_Pract_5,43,5,42,127,806114524
241,1,Ticks_Pract_5,44,1,48,49,806551132
241,1,Ticks_Pract_5,45,5,42,127,806615488
241,1,Ticks_Pract_5,46,1,48,44,807092112
241,1,Ticks_Pract_5,47,5,42,127,807115256
241,1,Ticks_Pract_5,48,1,48,47,807580288
241,1,Ticks_Pract_5,49,5,42,127,807614952
241,1,Ticks_Pract_5,50,1,48,43,808063896
241,1,Ticks_Pract_5,51,5,42,127,808114424
241,1,Ticks_Pract_5,52,1,48,38,808596660
241,1,Ticks_Pract_5,53,5,42,127,808615312
241,1,Ticks_Pract_5,54,1,48,44,809091340
241,1,Ticks_Pract_5,55,5,42,127,809115156
241,1,Ticks_Pract_5,56,1,48,45,809587896
241,1,Ticks_Pract_5,57,5,42,127,809614628
241,1,Ticks_Pract_5,58,1,48,49,810057640
241,1,Ticks_Pract_5,59,5,42,127,810114544
241,1,Ticks_Pract_5,60,1,48,46,810544844
241,1,Ticks_Pract_5,61,5,42,127,810615288
241,1,Ticks_Pract_5,62,1,48,45,811037736
241,1,Ticks_Pract_5,63,5,42,127,811114956
241,1,Ticks_Pract_5,64,1,48,45,811546152
241,1,Ticks_Pract_5,65,5,42,127,811614552
241,1,Ticks_Pract_5,66,1,48,43,812032012
241,1,Ticks_Pract_5,67,5,42,127,812115292
241,1,Ticks_Pract_5,68,1,48,51,812528040
241,1,Ticks_Pract_5,69,5,42,127,812615136
241,1,Ticks_Pract_5,70,1,48,46,813072308
241,1,Ticks_Pract_5,71,5,42,127,813114680
241,1,Ticks_Pract_5,72,1,48,41,813552484
241,1,Ticks_Pract_5,73,5,42,127,813614300
241,1,Ticks_Pract_5,74,1,48,42,814053824
241,1,Ticks_Pract_5,75,5,42,127,814115116
241,1,Ticks_Pract_5,76,1,48,39,814580224
241,1,Ticks_Pract_5,77,5,42,127,814614888
241,1,Ticks_Pract_5,78,1,48,40,815099140
241,1,Ticks_Pract_5,0,9999,9999,9999,795112516
241,1,Ticks_Pract_5,1,9999,9999,9999,795612236
241,1,Ticks_Pract_5,2,9999,9999,9999,796112996
241,1,Ticks_Pract_5,3,9999,9999,9999,796612712
241,1,Ticks_Pract_5,4,9999,9999,9999,797112428
241,1,Ticks_Pract_5,5,9999,9999,9999,797612116
241,1,Ticks_Pract_5,6,9999,9999,9999,798112860
241,1,Ticks_Pract_5,7,9999,9999,9999,798612556
241,1,Ticks_Pract_5,8,9999,9999,9999,799112248
241,1,Ticks_Pract_5,9,9999,9999,9999,799612992
241,1,Ticks_Pract_5,10,9999,9999,9999,800112760
241,1,Ticks_Pract_5,11,9999,9999,9999,800612428
241,1,Ticks_Pract_5,12,9999,9999,9999,801112124
241,1,Ticks_Pract_5,13,9999,9999,9999,801612864
241,1,Ticks_Pract_5,14,9999,9999,9999,802112560
241,1,Ticks_Pract_5,15,9999,9999,9999,802612332
241,1,Ticks_Pract_5,16,9999,9999,9999,803113072
241,1,Ticks_Pract_5,17,9999,9999,9999,803612764
241,1,Ticks_Pract_5,18,9999,9999,9999,804112460
241,1,Ticks_Pract_5,19,9999,9999,9999,804612152
241,1,Ticks_Pract_5,20,9999,9999,9999,805112948
241,1,Ticks_Pract_5,21,9999,9999,9999,805612640
241,1,Ticks_Pract_5,22,9999,9999,9999,806112312
241,1,Ticks_Pract_5,23,9999,9999,9999,806613056
241,1,Ticks_Pract_5,24,9999,9999,9999,807112824
241,1,Ticks_Pract_5,25,9999,9999,9999,807612516
241,1,Ticks_Pract_5,26,9999,9999,9999,808112212
241,1,Ticks_Pract_5,27,9999,9999,9999,808612952
241,1,Ticks_Pract_5,28,9999,9999,9999,809112648
241,1,Ticks_Pract_5,29,9999,9999,9999,809612344
241,1,Ticks_Pract_5,30,9999,9999,9999,810112112
241,1,Ticks_Pract_5,31,9999,9999,9999,810612852
241,1,Ticks_Pract_5,32,9999,9999,9999,811112520
241,1,Ticks_Pract_5,33,9999,9999,9999,811612268
241,1,Ticks_Pract_5,34,9999,9999,9999,812113004
241,1,Ticks_Pract_5,35,9999,9999,9999,812612700
241,1,Ticks_Pract_5,36,9999,9999,9999,813112396
241,1,Ticks_Pract_5,37,9999,9999,9999,813612088
241,1,Ticks_Pract_5,38,9999,9999,9999,814112832
241,1,Ticks_Pract_5,39,9999,9999,9999,814612600
242,0,Ticks_Pract_8,0,5,42,127,826170620
242,0,Ticks_Pract_8,1,5,42,127,826970376
242,0,Ticks_Pract_8,2,5,42,127,827771200
242,0,Ticks_Pract_8,3,1,48,50,828516284
242,0,Ticks_Pract_8,4,5,42,127,828570876
242,0,Ticks_Pract_8,5,1,48,52,829300264
242,0,Ticks_Pract_8,6,5,42,127,829370756
242,0,Ticks_Pract_8,7,1,48,49,830078160
242,0,Ticks_Pract_8,8,5,42,127,830170416
242,0,Ticks_Pract_8,9,1,48,44,830917760
242,0,Ticks_Pract_8,10,5,42,127,830971272
242,0,Ticks_Pract_8,11,1,48,42,831695128
242,0,Ticks_Pract_8,12,5,42,127,831771080
242,0,Ticks_Pract_8,13,1,48,39,832535624
242,0,Ticks_Pract_8,14,5,42,127,832570888
242,0,Ticks_Pract_8,15,1,48,39,833363556
242,0,Ticks_Pract_8,16,5,42,127,833370472
242,0,Ticks_Pract_8,17,1,48,37,834134792
242,0,Ticks_Pract_8,18,5,42,127,834171352
242,0,Ticks_Pract_8,19,1,48,49,834882020
242,0,Ticks_Pract_8,20,5,42,127,834971084
242,0,Ticks_Pract_8,21,1,48,50,835697936
242,0,Ticks_Pract_8,22,5,42,127,835771116
242,0,Ticks_Pract_8,23,1,48,51,836541048
242,0,Ticks_Pract_8,24,5,42,127,836570328
242,0,Ticks_Pract_8,25,1,48,42,837270324
242,0,Ticks_Pract_8,26,5,42,127,837371244
242,0,Ticks_Pract_8,27,1,48,45,838159520
242,0,Ticks_Pract_8,28,5,42,127,838170920
242,0,Ticks_Pract_8,29,1,48,44,838916544
242,0,Ticks_Pract_8,30,5,42,127,838970876
242,0,Ticks_Pract_8,31,1,48,43,839761376
242,0,Ticks_Pract_8,32,5,42,127,839770460
242,0,Ticks_Pract_8,33,1,48,37,840550188
242,0,Ticks_Pract_8,34,5,42,127,840571268
242,0,Ticks_Pract_8,35,5,42,127,841370932
242,0,Ticks_Pract_8,36,1,48,39,841375620
242,0,Ticks_Pract_8,37,1,48,45,842168924
242,0,Ticks_Pract_8,38,5,42,127,842170660
242,0,Ticks_Pract_8,39,1,48,43,842952856
242,0,Ticks_Pract_8,40,5,42,127,842970688
242,0,Ticks_Pract_8,41,1,48,41,843751468
242,0,Ticks_Pract_8,42,5,42,127,843771100
242,0,Ticks_Pract_8,43,1,48,51,844548584
242,0,Ticks_Pract_8,44,5,42,127,844571128
242,0,Ticks_Pract_8,45,1,48,58,845342856
242,0,Ticks_Pract_8,46,5,42,127,845370712
242,0,Ticks_Pract_8,47,1,48,53,846166528
242,0,Ticks_Pract_8,48,5,42,127,846170744
242,0,Ticks_Pract_8,49,5,42,127,846971188
242,0,Ticks_Pract_8,50,1,48,58,846979392
242,0,Ticks_Pract_8,51,5,42,127,847770920
242,0,Ticks_Pract_8,52,1,48,52,847815624
242,0,Ticks_Pract_8,53,1,48,51,848546828
242,0,Ticks_Pract_8,54,5,42,127,848570648
242,0,Ticks_Pract_8,55,1,48,26,848604344
242,0,Ticks_Pract_8,56,1,48,50,849364268
242,0,Ticks_Pract_8,57,5,42,127,849370436
242,0,Ticks_Pract_8,0,9999,9999,9999,826168408
242,0,Ticks_Pract_8,1,9999,9999,9999,826968160
242,0,Ticks_Pract_8,2,9999,9999,9999,827768912
242,0,Ticks_Pract_8,3,9999,9999,9999,828568660
242,0,Ticks_Pract_8,4,9999,9999,9999,829368396
242,0,Ticks_Pract_8,5,9999,9999,9999,830168128
242,0,Ticks_Pract_8,6,9999,9999,9999,830968908
242,0,Ticks_Pract_8,7,9999,9999,9999,831768644
242,0,Ticks_Pract_8,8,9999,9999,9999,832568376
242,0,Ticks_Pract_8,9,9999,9999,9999,833368112
242,0,Ticks_Pract_8,10,9999,9999,9999,834168916
242,0,Ticks_Pract_8,11,9999,9999,9999,834968648
242,0,Ticks_Pract_8,12,9999,9999,9999,835768384
242,0,Ticks_Pract_8,13,9999,9999,9999,836568116
242,0,Ticks_Pract_8,14,9999,9999,9999,837368880
242,0,Ticks_Pract_8,15,9999,9999,9999,838168632
242,0,Ticks_Pract_8,16,9999,9999,9999,838968364
242,0,Ticks_Pract_8,17,9999,9999,9999,839768172
242,0,Ticks_Pract_8,18,9999,9999,9999,840568904
242,0,Ticks_Pract_8,19,9999,9999,9999,841368644
242,0,Ticks_Pract_8,20,9999,9999,9999,842168396
242,0,Ticks_Pract_8,21,9999,9999,9999,842968180
242,0,Ticks_Pract_8,22,9999,9999,9999,843768884
242,0,Ticks_Pract_8,23,9999,9999,9999,844568692
242,0,Ticks_Pract_8,24,9999,9999,9999,845368424
242,0,Ticks_Pract_8,25,9999,9999,9999,846168160
242,0,Ticks_Pract_8,26,9999,9999,9999,846968896
242,0,Ticks_Pract_8,27,9999,9999,9999,847768632
242,0,Ticks_Pract_8,28,9999,9999,9999,848568432
242,0,Ticks_Pract_8,29,9999,9999,9999,849368148
243,4,T1_SMS_5,0,5,42,127,926873060
243,4,T1_SMS_5,1,5,42,127,927372628
243,4,T1_SMS_5,2,1,48,35,927740188
243,4,T1_SMS_5,3,5,42,127,927873372
243,4,T1_SMS_5,4,1,48,50,928319692
243,4,T1_SMS_5,5,5,42,127,928373080
243,4,T1_SMS_5,6,1,48,46,928784532
243,4,T1_SMS_5,7,5,42,127,928872924
243,4,T1_SMS_5,8,1,48,44,929307260
243,4,T1_SMS_5,9,5,42,127,929372668
243,4,T1_SMS_5,10,1,48,48,929805160
243,4,T1_SMS_5,11,5,42,127,929873188
243,4,T1_SMS_5,12,1,48,51,930302988
243,4,T1_SMS_5,13,5,42,127,930372956
243,4,T1_SMS_5,14,1,48,50,930794528
243,4,T1_SMS_5,15,5,42,127,930872648
243,4,T1_SMS_5,16,1,48,57,931318908
243,4,T1_SMS_5,17,5,42,127,931373540
243,4,T1_SMS_5,18,1,48,47,931813516
243,4,T1_SMS_5,19,5,42,127,931873160
243,4,T1_SMS_5,20,1,48,42,932335420
243,4,T1_SMS_5,21,5,42,127,932372928
243,4,T1_SMS_5,22,1,48,48,932843720
243,4,T1_SMS_5,23,5,42,127,932872700
243,4,T1_SMS_5,24,1,48,53,933347976
243,4,T1_SMS_5,25,5,42,127,933373292
243,4,T1_SMS_5,26,1,48,57,933843628
243,4,T1_SMS_5,27,5,42,127,933872912
243,4,T1_SMS_5,28,1,48,51,934349236
243,4,T1_SMS_5,29,5,42,127,934372680
243,4,T1_SMS_5,30,1,48,54,934852368
243,4,T1_SMS_5,31,5,42,127,934872596
243,4,T1_SMS_5,32,1,48,52,935338228
243,4,T1_SMS_5,33,5,42,127,935373040
243,4,T1_SMS_5,34,1,48,52,935826928
243,4,T1_SMS_5,35,5,42,127,935872960
243,4,T1_SMS_5,36,1,48,46,936350404
243,4,T1_SMS_5,37,5,42,127,936372580
243,4,T1_SMS_5,38,1,48,55,936830724
243,4,T1_SMS_5,39,5,42,127,936873544
243,4,T1_SMS_5,40,1,48,52,937317256
243,4,T1_SMS_5,41,5,42,127,937373088
243,4,T1_SMS_5,42,1,48,51,937838944
243,4,T1_SMS_5,43,5,42,127,937872784
243,4,T1_SMS_5,44,1,48,47,938341104
243,4,T1_SMS_5,45,5,42,127,938372332
243,4,T1_SMS_5,46,1,48,44,938841524
243,4,T1_SMS_5,47,5,42,127,938873292
243,4,T1_SMS_5,48,1,48,48,939324760
243,4,T1_SMS_5,49,5,42,127,939372840
243,4,T1_SMS_5,50,1,48,24,939390156
243,4,T1_SMS_5,51,1,48,51,939806480
243,4,T1_SMS_5,52,5,42,127,939872564
243,4,T1_SMS_5,53,1,48,51,940329564
243,4,T1_SMS_5,54,5,42,127,940373428
243,4,T1_SMS_5,55,1,48,50,940834344
243,4,T1_SMS_5,56,5,42,127,940873048
243,4,T1_SMS_5,57,1,48,52,941351764
243,4,T1_SMS_5,58,5,42,127,941372820
243,4,T1_SMS_5,59,1,48,45,941838748
243,4,T1_SMS_5,60,5,42,127,941872588
243,4,T1_SMS_5,61,1,48,53,942342852
243,4,T1_SMS_5,62,5,42,127,942373328
243,4,T1_SMS_5,63,1,48,44,942814048
243,4,T1_SMS_5,64,5,42,127,942872876
243,4,T1_SMS_5,65,1,48,35,943366408
243,4,T1_SMS_5,66,5,42,127,943372792
243,4,T1_SMS_5,67,1,48,45,943816732
243,4,T1_SMS_5,68,5,42,127,943873312
243,4,T1_SMS_5,69,1,48,50,944324804
243,4,T1_SMS_5,70,5,42,127,944373304
243,4,T1_SMS_5,71,1,48,55,944853000
243,4,T1_SMS_5,72,5,42,127,944872776
243,4,T1_SMS_5,73,1,48,58,945329356
243,4,T1_SMS_5,74,5,42,127,945372400
243,4,T1_SMS_5,75,1,48,58,945850368
243,4,T1_SMS_5,76,5,42,127,945873216
243,4,T1_SMS_5,77,1,48,65,946354100
243,4,T1_SMS_5,78,5,42,127,946373060
243,4,T1_SMS_5,79,1,48,54,946859484
243,4,T1_SMS_5,80,5,42,127,946872680
243,4,T1_SMS_5,81,5,42,127,947373428
243,4,T1_SMS_5,82,1,48,51,947381860
243,4,T1_SMS_5,83,1,48,57,947856632
243,4,T1_SMS_5,84,5,42,127,947873116
243,4,T1_SMS_5,85,1,48,57,948357224
243,4,T1_SMS_5,86,5,42,127,948373036
243,4,T1_SMS_5,87,1,48,52,948831008
243,4,T1_SMS_5,88,5,42,127,948872580
243,4,T1_SMS_5,89,1,48,54,949337288
243,4,T1_SMS_5,90,5,42,127,949373400
243,4,T1_SMS_5,91,1,48,54,949825764
243,4,T1_SMS_5,92,5,42,127,949873092
243,4,T1_SMS_5,93,1,48,55,950342888
243,4,T1_SMS_5,94,5,42,127,950372860
243,4,T1_SMS_5,95,1,48,56,950815572
243,4,T1_SMS_5,96,5,42,127,950872384
243,4,T1_SMS_5,97,1,48,52,951332104
243,4,T1_SMS_5,98,5,42,127,951373200
243,4,T1_SMS_5,99,1,48,53,951812872
243,4,T1_SMS_5,100,5,42,127,951872820
243,4,T1_SMS_5,101,1,48,56,952343684
243,4,T1_SMS_5,102,5,42,127,952372664
243,4,T1_SMS_5,103,1,48,53,952805152
243,4,T1_SMS_5,104,5,42,127,952873480
243,4,T1_SMS_5,105,1,48,49,953341800
243,4,T1_SMS_5,106,5,42,127,953373028
243,4,T1_SMS_5,107,1,48,51,953826812
243,4,T1_SMS_5,108,5,42,127,953872920
243,4,T1_SMS_5,109,1,48,24,953891652
243,4,T1_SMS_5,110,1,48,47,954354084
243,4,T1_SMS_5,111,5,42,127,954372592
243,4,T1_SMS_5,112,1,48,54,954850636
243,4,T1_SMS_5,113,5,42,127,954873332
243,4,T1_SMS_5,114,1,48,57,955346144
243,4,T1_SMS_5,115,5,42,127,955372880
243,4,T1_SMS_5,116,1,48,51,955828268
243,4,T1_SMS_5,117,5,42,127,955872576
243,4,T1_SMS_5,118,1,48,51,956362064
243,4,T1_SMS_5,119,5,42,127,956373540
243,4,T1_SMS_5,120,1,48,52,956853532
243,4,T1_SMS_5,121,5,42,127,956873160
243,4,T1_SMS_5,122,1,48,49,957340212
243,4,T1_SMS_5,123,5,42,127,957372856
243,4,T1_SMS_5,124,1,48,53,957842824
243,4,T1_SMS_5,125,5,42,127,957872476
243,4,T1_SMS_5,126,1,48,55,958350600
243,4,T1_SMS_5,127,5,42,127,958373664
243,4,T1_SMS_5,128,1,48,48,958867048
243,4,T1_SMS_5,129,5,42,127,958873136
243,4,T1_SMS_5,130,1,48,56,959344300
243,4,T1_SMS_5,131,5,42,127,959372684
243,4,T1_SMS_5,132,5,42,127,959873580
243,4,T1_SMS_5,133,1,48,44,959876628
243,4,T1_SMS_5,134,1,48,51,960348680
243,4,T1_SMS_5,135,5,42,127,960372972
243,4,T1_SMS_5,136,1,48,49,960846052
243,4,T1_SMS_5,137,5,42,127,960872888
243,4,T1_SMS_5,138,1,48,51,961362800
243,4,T1_SMS_5,139,5,42,127,961372412
243,4,T1_SMS_5,140,1,48,47,961858612
243,4,T1_SMS_5,141,5,42,127,961873524
243,4,T1_SMS_5,142,1,48,51,962344316
243,4,T1_SMS_5,143,5,42,127,962372924
243,4,T1_SMS_5,144,1,48,24,962410760
243,4,T1_SMS_5,145,1,48,53,962836588
243,4,T1_SMS_5,146,5,42,127,962872596
243,4,T1_SMS_5,147,1,48,52,963366196
243,4,T1_SMS_5,148,5,42,127,963373488
243,4,T1_SMS_5,149,1,48,52,963848620
243,4,T1_SMS_5,150,5,42,127,963873332
243,4,T1_SMS_5,151,1,48,51,964367612
243,4,T1_SMS_5,152,5,42,127,964372952
243,4,T1_SMS_5,153,1,48,53,964854660
243,4,T1_SMS_5,154,5,42,127,964872648
243,4,T1_SMS_5,155,1,48,52,965356372
243,4,T1_SMS_5,156,5,42,127,965373392
243,4,T1_SMS_5,157,1,48,52,965829368
243,4,T1_SMS_5,158,5,42,127,965873008
243,4,T1_SMS_5,159,1,48,32,965889504
243,4,T1_SMS_5,160,1,48,51,966358068
243,4,T1_SMS_5,161,5,42,127,966372760
243,4,T1_SMS_5,162,1,48,57,966860528
243,4,T1_SMS_5,163,5,42,127,966872380
243,4,T1_SMS_5,164,1,48,51,967358580
243,4,T1_SMS_5,165,5,42,127,967373120
243,4,T1_SMS_5,166,1,48,51,967859620
243,4,T1_SMS_5,167,5,42,127,967873188
243,4,T1_SMS_5,168,5,42,127,968372592
243,4,T1_SMS_5,169,1,48,52,968380948
243,4,T1_SMS_5,170,1,48,48,968847792
243,4,T1_SMS_5,171,5,42,127,968873180
243,4,T1_SMS_5,172,1,48,48,969352116
243,4,T1_SMS_5,173,5,42,127,969373172
243,4,T1_SMS_5,174,1,48,46,969845908
243,4,T1_SMS_5,175,5,42,127,969872868
243,4,T1_SMS_5,176,1,48,51,970349488
243,4,T1_SMS_5,177,5,42,127,970372340
243,4,T1_SMS_5,178,1,48,48,970862272
243,4,T1_SMS_5,179,5,42,127,970873300
243,4,T1_SMS_5,180,1,48,50,971338908
243,4,T1_SMS_5,181,5,42,127,971372848
243,4,T1_SMS_5,182,1,48,48,971871540
243,4,T1_SMS_5,183,5,42,127,971873416
243,4,T1_SMS_5,184,1,48,53,972354876
243,4,T1_SMS_5,185,5,42,127,972373308
243,4,T1_SMS_5,186,1,48,55,972845368
243,4,T1_SMS_5,187,5,42,127,972873076
243,4,T1_SMS_5,188,1,48,51,973333392
243,4,T1_SMS_5,189,5,42,127,973372848
243,4,T1_SMS_5,190,1,48,51,973824560
243,4,T1_SMS_5,191,5,42,127,973872468
243,4,T1_SMS_5,192,1,48,48,974330540
243,4,T1_SMS_5,193,5,42,127,974373136
243,4,T1_SMS_5,194,1,48,45,974814076
243,4,T1_SMS_5,195,5,42,127,974872980
243,4,T1_SMS_5,196,1,48,48,975321556
243,4,T1_SMS_5,197,5,42,127,975372824
243,4,T1_SMS_5,198,1,48,53,975831496
243,4,T1_SMS_5,199,5,42,127,975873344
243,4,T1_SMS_5,200,1,48,56,976311596
243,4,T1_SMS_5,201,5,42,127,976373036
243,4,T1_SMS_5,202,1,48,48,976853996
243,4,T1_SMS_5,203,5,42,127,976872808
243,4,T1_SMS_5,204,1,48,53,977356160
243,4,T1_SMS_5,205,5,42,127,977372652
243,4,T1_SMS_5,206,1,48,49,977857128
243,4,T1_SMS_5,207,5,42,127,977873392
243,4,T1_SMS_5,208,1,48,53,978356528
243,4,T1_SMS_5,209,5,42,127,978372936
243,4,T1_SMS_5,210,1,48,54,978832732
243,4,T1_SMS_5,211,5,42,127,978872928
243,4,T1_SMS_5,212,1,48,30,978886576
243,4,T1_SMS_5,213,1,48,45,979355888
243,4,T1_SMS_5,214,5,42,127,979373500
243,4,T1_SMS_5,215,1,48,58,979864640
243,4,T1_SMS_5,216,5,42,127,979873124
243,4,T1_SMS_5,217,1,48,48,980358200
243,4,T1_SMS_5,218,5,42,127,980372964
243,4,T1_SMS_5,219,5,42,127,980872668
243,4,T1_SMS_5,220,1,48,50,980877808
243,4,T1_SMS_5,221,1,48,49,981353772
243,4,T1_SMS_5,222,5,42,127,981373252
243,4,T1_SMS_5,223,1,48,49,981848952
243,4,T1_SMS_5,224,5,42,127,981872872
243,4,T1_SMS_5,225,1,48,57,982364876
243,4,T1_SMS_5,226,5,42,127,982372640
243,4,T1_SMS_5,227,1,48,54,982859040
243,4,T1_SMS_5,228,5,42,127,982872460
243,4,T1_SMS_5,229,1,48,45,983354840
243,4,T1_SMS_5,230,5,42,127,983373052
243,4,T1_SMS_5,231,1,48,51,983846756
243,4,T1_SMS_5,232,5,42,127,983872824
243,4,T1_SMS_5,233,1,48,53,984347424
243,4,T1_SMS_5,234,5,42,127,984372444
243,4,T1_SMS_5,235,1,48,46,984847944
243,4,T1_SMS_5,236,5,42,127,984873408
243,4,T1_SMS_5,237,1,48,51,985329764
243,4,T1_SMS_5,238,5,42,127,985373104
243,4,T1_SMS_5,239,1,48,51,985846964
243,4,T1_SMS_5,240,5,42,127,985872872
243,4,T1_SMS_5,241,1,48,49,986350540
243,4,T1_SMS_5,242,5,42,127,986372420
243,4,T1_SMS_5,243,1,48,48,986836844
243,4,T1_SMS_5,244,5,42,127,986873384
243,4,T1_SMS_5,245,1,48,49,987361604
243,4,T1_SMS_5,246,5,42,127,987372780
243,4,T1_SMS_5,247,1,48,53,987836544
243,4,T1_SMS_5,248,5,42,127,987872476
243,4,T1_SMS_5,249,1,48,46,988336980
243,4,T1_SMS_5,250,5,42,127,988373216
243,4,T1_SMS_5,251,1,48,47,988854404
243,4,T1_SMS_5,252,5,42,127,988873136
243,4,T1_SMS_5,253,1,48,51,989346920
243,4,T1_SMS_5,254,5,42,127,989372756
243,4,T1_SMS_5,255,1,48,49,989837564
243,4,T1_SMS_5,256,5,42,127,989872448
243,4,T1_SMS_5,257,1,48,52,990341816
243,4,T1_SMS_5,258,5,42,127,990373264
243,4,T1_SMS_5,259,1,48,53,990857672
243,4,T1_SMS_5,260,5,42,127,990873108
243,4,T1_SMS_5,261,1,48,51,991332228
243,4,T1_SMS_5,262,5,42,127,991372508
243,4,T1_SMS_5,0,9999,9999,9999,926870624
243,4,T1_SMS_5,1,9999,9999,9999,927370340
243,4,T1_SMS_5,2,9999,9999,9999,927871084
243,4,T1_SMS_5,3,9999,9999,9999,928370792
243,4,T1_SMS_5,4,9999,9999,9999,928870488
243,4,T1_SMS_5,5,9999,9999,9999,929370232
243,4,T1_SMS_5,6,9999,9999,9999,929870900
243,4,T1_SMS_5,7,9999,9999,9999,930370668
243,4,T1_SMS_5,8,9999,9999,9999,930870364
243,4,T1_SMS_5,9,9999,9999,9999,931371104
243,4,T1_SMS_5,10,9999,9999,9999,931870800
243,4,T1_SMS_5,11,9999,9999,9999,932370496
243,4,T1_SMS_5,12,9999,9999,9999,932870264
243,4,T1_SMS_5,13,9999,9999,9999,933370932
243,4,T1_SMS_5,14,9999,9999,9999,933870700
243,4,T1_SMS_5,15,9999,9999,9999,934370392
243,4,T1_SMS_5,16,9999,9999,9999,934870088
243,4,T1_SMS_5,17,9999,9999,9999,935370828
243,4,T1_SMS_5,18,9999,9999,9999,935870524
243,4,T1_SMS_5,19,9999,9999,9999,936370292
243,4,T1_SMS_5,20,9999,9999,9999,936870960
243,4,T1_SMS_5,21,9999,9999,9999,937370728
243,4,T1_SMS_5,22,9999,9999,9999,937870424
243,4,T1_SMS_5,23,9999,9999,9999,938370120
243,4,T1_SMS_5,24,9999,9999,9999,938870860
243,4,T1_SMS_5,25,9999,9999,9999,939370552
243,4,T1_SMS_5,26,9999,9999,9999,939870276
243,4,T1_SMS_5,27,9999,9999,9999,940370992
243,4,T1_SMS_5,28,9999,9999,9999,940870764
243,4,T1_SMS_5,29,9999,9999,9999,941370460
243,4,T1_SMS_5,30,9999,9999,9999,941870152
243,4,T1_SMS_5,31,9999,9999,9999,942370896
243,4,T1_SMS_5,32,9999,9999,9999,942870588
243,4,T1_SMS_5,33,9999,9999,9999,943370360
243,4,T1_SMS_5,34,9999,9999,9999,943871024
243,4,T1_SMS_5,35,9999,9999,9999,944370796
243,4,T1_SMS_5,36,9999,9999,9999,944870492
243,4,T1_SMS_5,37,9999,9999,9999,945370188
243,4,T1_SMS_5,38,9999,9999,9999,945870932
243,4,T1_SMS_5,39,9999,9999,9999,946370624
243,4,T1_SMS_5,40,9999,9999,9999,946870320
243,4,T1_SMS_5,41,9999,9999,9999,947371068
243,4,T1_SMS_5,42,9999,9999,9999,947870832
243,4,T1_SMS_5,43,9999,9999,9999,948370524
243,4,T1_SMS_5,44,9999,9999,9999,948870220
243,4,T1_SMS_5,45,9999,9999,9999,949370964
243,4,T1_SMS_5,46,9999,9999,9999,949870656
243,4,T1_SMS_5,47,9999,9999,9999,950370352
243,4,T1_SMS_5,48,9999,9999,9999,950870096
243,4,T1_SMS_5,49,9999,9999,9999,951370840
243,4,T1_SMS_5,50,9999,9999,9999,951870532
243,4,T1_SMS_5,51,9999,9999,9999,952370228
243,4,T1_SMS_5,52,9999,9999,9999,952870972
243,4,T1_SMS_5,53,9999,9999,9999,953370740
243,4,T1_SMS_5,54,9999,9999,9999,953870408
243,4,T1_SMS_5,55,9999,9999,9999,954370156
243,4,T1_SMS_5,56,9999,9999,9999,954870896
243,4,T1_SMS_5,57,9999,9999,9999,955370592
243,4,T1_SMS_5,58,9999,9999,9999,955870292
243,4,T1_SMS_5,59,9999,9999,9999,956371032
243,4,T1_SMS_5,60,9999,9999,9999,956870728
243,4,T1_SMS_5,61,9999,9999,9999,957370424
243,4,T1_SMS_5,62,9999,9999,9999,957870192
243,4,T1_SMS_5,63,9999,9999,9999,958370932
243,4,T1_SMS_5,64,9999,9999,9999,958870628
243,4,T1_SMS_5,65,9999,9999,9999,959370324
243,4,T1_SMS_5,66,9999,9999,9999,959871072
243,4,T1_SMS_5,67,9999,9999,9999,960370760
243,4,T1_SMS_5,68,9999,9999,9999,960870452
243,4,T1_SMS_5,69,9999,9999,9999,961370200
243,4,T1_SMS_5,70,9999,9999,9999,961870940
243,4,T1_SMS_5,71,9999,9999,9999,962370636
243,4,T1_SMS_5,72,9999,9999,9999,962870384
243,4,T1_SMS_5,73,9999,9999,9999,963371124
243,4,T1_SMS_5,74,9999,9999,9999,963870824
243,4,T1_SMS_5,75,9999,9999,9999,964370516
243,4,T1_SMS_5,76,9999,9999,9999,964870212
243,4,T1_SMS_5,77,9999,9999,9999,965370956
243,4,T1_SMS_5,78,9999,9999,9999,965870648
243,4,T1_SMS_5,79,9999,9999,9999,966370400
243,4,T1_SMS_5,80,9999,9999,9999,966870092
243,4,T1_SMS_5,81,9999,9999,9999,967370836
243,4,T1_SMS_5,82,9999,9999,9999,967870532
243,4,T1_SMS_5,83,9999,9999,9999,968370232
243,4,T1_SMS_5,84,9999,9999,9999,968870968
243,4,T1_SMS_5,85,9999,9999,9999,969370736
243,4,T1_SMS_5,86,9999,9999,9999,969870432
243,4,T1_SMS_5,87,9999,9999,9999,970370128
243,4,T1_SMS_5,88,9999,9999,9999,970870868
243,4,T1_SMS_5,89,9999,9999,9999,971370560
243,4,T1_SMS_5,90,9999,9999,9999,971870312
243,4,T1_SMS_5,91,9999,9999,9999,972371020
243,4,T1_SMS_5,92,9999,9999,9999,972870716
243,4,T1_SMS_5,93,9999,9999,9999,973370488
243,4,T1_SMS_5,94,9999,9999,9999,973870180
243,4,T1_SMS_5,95,9999,9999,9999,974370924
243,4,T1_SMS_5,96,9999,9999,9999,974870620
243,4,T1_SMS_5,97,9999,9999,9999,975370316
243,4,T1_SMS_5,98,9999,9999,9999,975871056
243,4,T1_SMS_5,99,9999,9999,9999,976370752
243,4,T1_SMS_5,100,9999,9999,9999,976870520
243,4,T1_SMS_5,101,9999,9999,9999,977370216
243,4,T1_SMS_5,102,9999,9999,9999,977870956
243,4,T1_SMS_5,103,9999,9999,9999,978370652
243,4,T1_SMS_5,104,9999,9999,9999,978870344
243,4,T1_SMS_5,105,9999,9999,9999,979371064
243,4,T1_SMS_5,106,9999,9999,9999,979870836
243,4,T1_SMS_5,107,9999,9999,9999,980370528
243,4,T1_SMS_5,108,9999,9999,9999,980870232
243,4,T1_SMS_5,109,9999,9999,9999,981370968
243,4,T1_SMS_5,110,9999,9999,9999,981870660
243,4,T1_SMS_5,111,9999,9999,9999,982370356
243,4,T1_SMS_5,112,9999,9999,9999,982870100
243,4,T1_SMS_5,113,9999,9999,9999,983370840
243,4,T1_SMS_5,114,9999,9999,9999,983870536
243,4,T1_SMS_5,115,9999,9999,9999,984370232
243,4,T1_SMS_5,116,9999,9999,9999,984870972
243,4,T1_SMS_5,117,9999,9999,9999,985370744
243,4,T1_SMS_5,118,9999,9999,9999,985870436
243,4,T1_SMS_5,119,9999,9999,9999,986370132
243,4,T1_SMS_5,120,9999,9999,9999,986870872
243,4,T1_SMS_5,121,9999,9999,9999,987370568
243,4,T1_SMS_5,122,9999,9999,9999,987870264
243,4,T1_SMS_5,123,9999,9999,9999,988371004
243,4,T1_SMS_5,124,9999,9999,9999,988870776
243,4,T1_SMS_5,125,9999,9999,9999,989370468
243,4,T1_SMS_5,126,9999,9999,9999,989870164
243,4,T1_SMS_5,127,9999,9999,9999,990370904
243,4,T1_SMS_5,128,9999,9999,9999,990870600
243,4,T1_SMS_5,129,9999,9999,9999,991370296
244,2,T1_SMS_8,0,5,42,127,1017586096
244,2,T1_SMS_8,1,5,42,127,1018385780
244,2,T1_SMS_8,2,1,48,44,1018722172
244,2,T1_SMS_8,3,5,42,127,1019185440
244,2,T1_SMS_8,4,1,48,53,1019287020
244,2,T1_SMS_8,5,5,42,127,1019986144
244,2,T1_SMS_8,6,1,48,63,1019993900
244,2,T1_SMS_8,7,1,48,38,1020056136
244,2,T1_SMS_8,8,1,48,59,1020757916
244,2,T1_SMS_8,9,5,42,127,1020786024
244,2,T1_SMS_8,10,1,48,53,1021562164
244,2,T1_SMS_8,11,5,42,127,1021585756
244,2,T1_SMS_8,12,1,48,33,1021611676
244,2,T1_SMS_8,13,1,48,50,1022368160
244,2,T1_SMS_8,14,5,42,127,1022385472
244,2,T1_SMS_8,15,1,48,52,1023158696
244,2,T1_SMS_8,16,5,42,127,1023186324
244,2,T1_SMS_8,17,1,48,51,1023944740
244,2,T1_SMS_8,18,5,42,127,1023986132
244,2,T1_SMS_8,19,1,48,51,1024764220
244,2,T1_SMS_8,20,5,42,127,1024785868
244,2,T1_SMS_8,21,1,48,47,1025575396
244,2,T1_SMS_8,22,5,42,127,1025585528
244,2,T1_SMS_8,23,1,48,49,1026360548
244,2,T1_SMS_8,24,5,42,127,1026386384
244,2,T1_SMS_8,25,1,48,46,1027152128
244,2,T1_SMS_8,26,5,42,127,1027186068
244,2,T1_SMS_8,27,1,48,48,1027943356
244,2,T1_SMS_8,28,5,42,127,1027985728
244,2,T1_SMS_8,29,1,48,50,1028750572
244,2,T1_SMS_8,30,5,42,127,1028785384
244,2,T1_SMS_8,31,1,48,45,1029546712
244,2,T1_SMS_8,32,5,42,127,1029586312
244,2,T1_SMS_8,33,1,48,48,1030302988
244,2,T1_SMS_8,34,5,42,127,1030386120
244,2,T1_SMS_8,35,1,48,51,1031133540
244,2,T1_SMS_8,36,5,42,127,1031185632
244,2,T1_SMS_8,37,1,48,57,1031968352
244,2,T1_SMS_8,38,5,42,127,1031985364
244,2,T1_SMS_8,39,1,48,36,1032025416
244,2,T1_SMS_8,40,1,48,53,1032725724
244,2,T1_SMS_8,41,5,42,127,1032786420
244,2,T1_SMS_8,42,5,42,127,1033585888
244,2,T1_SMS_8,43,1,48,55,1033599628
244,2,T1_SMS_8,44,5,42,127,1034385696
244,2,T1_SMS_8,45,1,48,52,1034415292
244,2,T1_SMS_8,46,5,42,127,1035185652
244,2,T1_SMS_8,47,1,48,48,1035190868
244,2,T1_SMS_8,48,1,48,42,1035967920
244,2,T1_SMS_8,49,5,42,127,1035986276
244,2,T1_SMS_8,50,1,48,48,1036739004
244,2,T1_SMS_8,51,5,42,127,1036786156
244,2,T1_SMS_8,52,1,48,55,1037530732
244,2,T1_SMS_8,53,5,42,127,1037585820
244,2,T1_SMS_8,54,1,48,52,1038308556
244,2,T1_SMS_8,55,5,42,127,1038385476
244,2,T1_SMS_8,56,1,48,52,1039107012
244,2,T1_SMS_8,57,5,42,127,1039186332
244,2,T1_SMS_8,58,1,48,40,1039975588
244,2,T1_SMS_8,59,5,42,127,1039985940
244,2,T1_SMS_8,60,1,48,54,1040734704
244,2,T1_SMS_8,61,5,42,127,1040785972
244,2,T1_SMS_8,62,1,48,52,1041505116
244,2,T1_SMS_8,63,1,48,34,1041562992
244,2,T1_SMS_8,64,5,42,127,1041585388
244,2,T1_SMS_8,65,1,48,53,1042342084
244,2,T1_SMS_8,66,5,42,127,1042386244
244,2,T1_SMS_8,67,1,48,43,1043125804
244,2,T1_SMS_8,68,5,42,127,1043185976
244,2,T1_SMS_8,69,1,48,58,1043934068
244,2,T1_SMS_8,70,1,48,38,1043983040
244,2,T1_SMS_8,71,5,42,127,1043985768
244,2,T1_SMS_8,72,1,48,59,1044769164
244,2,T1_SMS_8,73,5,42,127,1044785720
244,2,T1_SMS_8,74,1,48,58,1045532920
244,2,T1_SMS_8,75,5,42,127,1045586356
244,2,T1_SMS_8,76,1,48,53,1046305128
244,2,T1_SMS_8,77,1,48,29,1046362096
244,2,T1_SMS_8,78,5,42,127,1046385992
244,2,T1_SMS_8,79,1,48,56,1047115212
244,2,T1_SMS_8,80,1,48,26,1047178424
244,2,T1_SMS_8,81,5,42,127,1047185856
244,2,T1_SMS_8,82,1,48,65,1047943372
244,2,T1_SMS_8,83,5,42,127,1047985664
244,2,T1_SMS_8,84,1,48,56,1048731508
244,2,T1_SMS_8,85,5,42,127,1048786220
244,2,T1_SMS_8,86,1,48,53,1049564076
244,2,T1_SMS_8,87,5,42,127,1049586028
244,2,T1_SMS_8,88,1,48,46,1050354388
244,2,T1_SMS_8,89,5,42,127,1050385760
244,2,T1_SMS_8,90,1,48,53,1051144020
244,2,T1_SMS_8,91,5,42,127,1051185792
244,2,T1_SMS_8,92,1,48,33,1051195780
244,2,T1_SMS_8,93,1,48,53,1051959744
244,2,T1_SMS_8,94,5,42,127,1051986476
244,2,T1_SMS_8,95,1,48,35,1052011676
244,2,T1_SMS_8,96,1,48,51,1052737764
244,2,T1_SMS_8,97,5,42,127,1052786136
244,2,T1_SMS_8,98,1,48,27,1052798740
244,2,T1_SMS_8,99,5,42,127,1053585708
244,2,T1_SMS_8,100,1,48,47,1053604608
244,2,T1_SMS_8,101,5,42,127,1054385516
244,2,T1_SMS_8,102,1,48,54,1054400904
244,2,T1_SMS_8,103,1,48,54,1055128364
244,2,T1_SMS_8,104,5,42,127,1055186364
244,2,T1_SMS_8,105,1,48,46,1055958100
244,2,T1_SMS_8,106,5,42,127,1055985952
244,2,T1_SMS_8,107,5,42,127,1056785692
244,2,T1_SMS_8,108,1,48,57,1056803544
244,2,T1_SMS_8,109,1,48,52,1057584220
244,2,T1_SMS_8,110,5,42,127,1057586160
244,2,T1_SMS_8,111,5,42,127,1058386352
244,2,T1_SMS_8,112,1,48,51,1058400572
244,2,T1_SMS_8,113,1,48,50,1059173512
244,2,T1_SMS_8,114,5,42,127,1059186256
244,2,T1_SMS_8,115,1,48,53,1059963968
244,2,T1_SMS_8,116,5,42,127,1059985764
244,2,T1_SMS_8,117,1,48,34,1060015424
244,2,T1_SMS_8,118,1,48,53,1060770632
244,2,T1_SMS_8,119,5,42,127,1060785624
244,2,T1_SMS_8,120,1,48,56,1061532592
244,2,T1_SMS_8,121,5,42,127,1061586256
244,2,T1_SMS_8,122,1,48,50,1062364268
244,2,T1_SMS_8,123,5,42,127,1062386064
244,2,T1_SMS_8,124,1,48,47,1063177316
244,2,T1_SMS_8,125,5,42,127,1063185724
244,2,T1_SMS_8,126,5,42,127,1063985536
244,2,T1_SMS_8,127,1,48,53,1064015060
244,2,T1_SMS_8,128,1,48,37,1064066600
244,2,T1_SMS_8,129,1,48,50,1064758360
244,2,T1_SMS_8,130,5,42,127,1064786212
244,2,T1_SMS_8,131,1,48,53,1065574868
244,2,T1_SMS_8,132,5,42,127,1065586196
244,2,T1_SMS_8,133,1,48,38,1065613612
244,2,T1_SMS_8,134,1,48,47,1066369944
244,2,T1_SMS_8,135,5,42,127,1066385984
244,2,T1_SMS_8,136,1,48,32,1066429784
244,2,T1_SMS_8,137,5,42,127,1067185480
244,2,T1_SMS_8,138,1,48,52,1067197348
244,2,T1_SMS_8,139,1,48,50,1067968196
244,2,T1_SMS_8,140,5,42,127,1067986180
244,2,T1_SMS_8,141,5,42,127,1068785996
244,2,T1_SMS_8,142,1,48,51,1068790536
244,2,T1_SMS_8,143,1,48,50,1069582100
244,2,T1_SMS_8,144,5,42,127,1069585872
244,2,T1_SMS_8,145,1,48,27,1069638120
244,2,T1_SMS_8,146,1,48,45,1070372832
244,2,T1_SMS_8,147,5,42,127,1070385732
244,2,T1_SMS_8,148,1,48,52,1071165836
244,2,T1_SMS_8,149,5,42,127,1071186216
244,2,T1_SMS_8,150,1,48,32,1071233104
244,2,T1_SMS_8,151,1,48,49,1071967896
244,2,T1_SMS_8,152,5,42,127,1071986028
244,2,T1_SMS_8,153,5,42,127,1072785840
244,2,T1_SMS_8,154,1,48,53,1072788960
244,2,T1_SMS_8,155,1,48,26,1072851768
244,2,T1_SMS_8,156,1,48,45,1073547216
244,2,T1_SMS_8,157,5,42,127,1073585620
244,2,T1_SMS_8,158,1,48,35,1073589172
244,2,T1_SMS_8,159,5,42,127,1074386536
244,2,T1_SMS_8,160,1,48,53,1074392576
244,2,T1_SMS_8,161,1,48,51,1075166712
244,2,T1_SMS_8,162,5,42,127,1075185964
244,2,T1_SMS_8,163,5,42,127,1075985780
244,2,T1_SMS_8,164,1,48,55,1076088556
244,2,T1_SMS_8,165,5,42,127,1076785512
244,2,T1_SMS_8,166,1,48,54,1076801872
244,2,T1_SMS_8,167,1,48,53,1077549752
244,2,T1_SMS_8,168,5,42,127,1077586360
244,2,T1_SMS_8,169,1,48,29,1077617392
244,2,T1_SMS_8,170,1,48,47,1078332408
244,2,T1_SMS_8,171,5,42,127,1078386028
244,2,T1_SMS_8,172,5,42,127,1079185988
244,2,T1_SMS_8,173,1,48,52,1079218656
244,2,T1_SMS_8,174,1,48,38,1079260144
244,2,T1_SMS_8,175,1,48,56,1079978856
244,2,T1_SMS_8,176,5,42,127,1079985472
244,2,T1_SMS_8,177,1,48,36,1080025300
244,2,T1_SMS_8,178,1,48,56,1080739596
244,2,T1_SMS_8,179,5,42,127,1080786376
244,2,T1_SMS_8,180,1,48,36,1080798240
244,2,T1_SMS_8,181,1,48,54,1081561600
244,2,T1_SMS_8,182,5,42,127,1081586240
244,2,T1_SMS_8,183,1,48,48,1082353856
244,2,T1_SMS_8,184,5,42,127,1082385752
244,2,T1_SMS_8,185,5,42,127,1083185416
244,2,T1_SMS_8,186,1,48,53,1083219580
244,2,T1_SMS_8,187,1,48,51,1083957888
244,2,T1_SMS_8,188,5,42,127,1083986416
244,2,T1_SMS_8,189,1,48,30,1084027096
244,2,T1_SMS_8,190,5,42,127,1084786232
244,2,T1_SMS_8,191,1,48,51,1084860408
244,2,T1_SMS_8,192,1,48,50,1085579424
244,2,T1_SMS_8,193,5,42,127,1085585736
244,2,T1_SMS_8,194,1,48,51,1086368908
244,2,T1_SMS_8,195,5,42,127,1086385468
244,2,T1_SMS_8,196,5,42,127,1087186256
244,2,T1_SMS_8,197,1,48,51,1087195360
244,2,T1_SMS_8,198,5,42,127,1087985992
244,2,T1_SMS_8,199,1,48,57,1088005340
244,2,T1_SMS_8,200,1,48,53,1088755612
244,2,T1_SMS_8,201,5,42,127,1088785788
244,2,T1_SMS_8,202,1,48,54,1089559312
244,2,T1_SMS_8,203,5,42,127,1089585524
244,2,T1_SMS_8,204,1,48,61,1090359572
244,2,T1_SMS_8,205,5,42,127,1090386380
244,2,T1_SMS_8,206,1,48,61,1091118764
244,2,T1_SMS_8,207,5,42,127,1091186064
244,2,T1_SMS_8,208,1,48,47,1091909824
244,2,T1_SMS_8,209,5,42,127,1091985872
244,2,T1_SMS_8,210,1,48,50,1092751392
244,2,T1_SMS_8,211,5,42,127,1092785680
244,2,T1_SMS_8,212,1,48,57,1093540724
244,2,T1_SMS_8,213,5,42,127,1093586312
244,2,T1_SMS_8,214,1,48,53,1094366864
244,2,T1_SMS_8,215,5,42,127,1094385896
244,2,T1_SMS_8,216,1,48,55,1095174972
244,2,T1_SMS_8,217,5,42,127,1095185852
244,2,T1_SMS_8,218,5,42,127,1095985444
244,2,T1_SMS_8,219,1,48,59,1095997468
244,2,T1_SMS_8,220,1,48,56,1096754020
244,2,T1_SMS_8,221,5,42,127,1096786292
244,2,T1_SMS_8,222,5,42,127,1097586056
244,2,T1_SMS_8,223,1,48,49,1097615276
244,2,T1_SMS_8,224,1,48,56,1098379768
244,2,T1_SMS_8,225,5,42,127,1098385856
244,2,T1_SMS_8,226,1,48,58,1099178380
244,2,T1_SMS_8,227,5,42,127,1099185516
244,2,T1_SMS_8,228,5,42,127,1099986600
244,2,T1_SMS_8,229,1,48,53,1099987496
244,2,T1_SMS_8,230,5,42,127,1100785964
244,2,T1_SMS_8,231,1,48,52,1100798064
244,2,T1_SMS_8,232,1,48,58,1101545936
244,2,T1_SMS_8,233,5,42,127,1101585688
244,2,T1_SMS_8,234,1,48,55,1102366240
244,2,T1_SMS_8,235,5,42,127,1102385648
244,2,T1_SMS_8,236,1,48,53,1103158120
244,2,T1_SMS_8,237,5,42,127,1103186352
244,2,T1_SMS_8,238,1,48,55,1103964984
244,2,T1_SMS_8,239,5,42,127,1103986108
244,2,T1_SMS_8,240,5,42,127,1104785628
244,2,T1_SMS_8,241,1,48,64,1104789648
244,2,T1_SMS_8,242,1,48,54,1105543660
244,2,T1_SMS_8,243,5,42,127,1105585576
244,2,T1_SMS_8,244,5,42,127,1106386216
244,2,T1_SMS_8,245,1,48,51,1106497196
244,2,T1_SMS_8,246,1,48,49,1107184892
244,2,T1_SMS_8,247,5,42,127,1107186768
244,2,T1_SMS_8,248,1,48,57,1107943908
244,2,T1_SMS_8,249,5,42,127,1107985824
244,2,T1_SMS_8,250,1,48,53,1108728160
244,2,T1_SMS_8,251,5,42,127,1108785408
244,2,T1_SMS_8,252,1,48,49,1109513232
244,2,T1_SMS_8,253,5,42,127,1109586188
244,2,T1_SMS_8,254,1,48,47,1110279004
244,2,T1_SMS_8,255,5,42,127,1110386156
244,2,T1_SMS_8,256,1,48,54,1111125956
244,2,T1_SMS_8,257,5,42,127,1111185756
244,2,T1_SMS_8,258,1,48,54,1111967208
244,2,T1_SMS_8,259,5,42,127,1111985564
244,2,T1_SMS_8,260,1,48,61,1112754968
244,2,T1_SMS_8,261,5,42,127,1112786268
244,2,T1_SMS_8,262,1,48,47,1113532864
244,2,T1_SMS_8,0,9999,9999,9999,1017583736
244,2,T1_SMS_8,1,9999,9999,9999,1018383416
244,2,T1_SMS_8,2,9999,9999,9999,1019183152
244,2,T1_SMS_8,3,9999,9999,9999,1019983932
244,2,T1_SMS_8,4,9999,9999,9999,1020783736
244,2,T1_SMS_8,5,9999,9999,9999,1021583472
244,2,T1_SMS_8,6,9999,9999,9999,1022383184
244,2,T1_SMS_8,7,9999,9999,9999,1023183964
244,2,T1_SMS_8,8,9999,9999,9999,1023983696
244,2,T1_SMS_8,9,9999,9999,9999,1024783428
244,2,T1_SMS_8,10,9999,9999,9999,1025583164
244,2,T1_SMS_8,11,9999,9999,9999,1026383948
244,2,T1_SMS_8,12,9999,9999,9999,1027183704
244,2,T1_SMS_8,13,9999,9999,9999,1027983440
244,2,T1_SMS_8,14,9999,9999,9999,1028783172
244,2,T1_SMS_8,15,9999,9999,9999,1029583952
244,2,T1_SMS_8,16,9999,9999,9999,1030383684
244,2,T1_SMS_8,17,9999,9999,9999,1031183416
244,2,T1_SMS_8,18,9999,9999,9999,1031983152
244,2,T1_SMS_8,19,9999,9999,9999,1032783980
244,2,T1_SMS_8,20,9999,9999,9999,1033583672
244,2,T1_SMS_8,21,9999,9999,9999,1034383408
244,2,T1_SMS_8,22,9999,9999,9999,1035183212
244,2,T1_SMS_8,23,9999,9999,9999,1035983988
244,2,T1_SMS_8,24,9999,9999,9999,1036783720
244,2,T1_SMS_8,25,9999,9999,9999,1037583456
244,2,T1_SMS_8,26,9999,9999,9999,1038383188
244,2,T1_SMS_8,27,9999,9999,9999,1039183968
244,2,T1_SMS_8,28,9999,9999,9999,1039983728
244,2,T1_SMS_8,29,9999,9999,9999,1040783460
244,2,T1_SMS_8,30,9999,9999,9999,1041583176
244,2,T1_SMS_8,31,9999,9999,9999,1042383956
244,2,T1_SMS_8,32,9999,9999,9999,1043183688
244,2,T1_SMS_8,33,9999,9999,9999,1043983480
244,2,T1_SMS_8,34,9999,9999,9999,1044783212
244,2,T1_SMS_8,35,9999,9999,9999,1045583916
244,2,T1_SMS_8,36,9999,9999,9999,1046383708
244,2,T1_SMS_8,37,9999,9999,9999,1047183420
244,2,T1_SMS_8,38,9999,9999,9999,1047983152
244,2,T1_SMS_8,39,9999,9999,9999,1048783932
244,2,T1_SMS_8,40,9999,9999,9999,1049583668
244,2,T1_SMS_8,41,9999,9999,9999,1050383476
244,2,T1_SMS_8,42,9999,9999,9999,1051183208
244,2,T1_SMS_8,43,9999,9999,9999,1051983964
244,2,T1_SMS_8,44,9999,9999,9999,1052783700
244,2,T1_SMS_8,45,9999,9999,9999,1053583420
244,2,T1_SMS_8,46,9999,9999,9999,1054383152
244,2,T1_SMS_8,47,9999,9999,9999,1055183928
244,2,T1_SMS_8,48,9999,9999,9999,1055983664
244,2,T1_SMS_8,49,9999,9999,9999,1056783476
244,2,T1_SMS_8,50,9999,9999,9999,1057583212
244,2,T1_SMS_8,51,9999,9999,9999,1058383992
244,2,T1_SMS_8,52,9999,9999,9999,1059183668
244,2,T1_SMS_8,53,9999,9999,9999,1059983476
244,2,T1_SMS_8,54,9999,9999,9999,1060783188
244,2,T1_SMS_8,55,9999,9999,9999,1061583968
244,2,T1_SMS_8,56,9999,9999,9999,1062383704
244,2,T1_SMS_8,57,9999,9999,9999,1063183436
244,2,T1_SMS_8,58,9999,9999,9999,1063983176
244,2,T1_SMS_8,59,9999,9999,9999,1064783924
244,2,T1_SMS_8,60,9999,9999,9999,1065583684
244,2,T1_SMS_8,61,9999,9999,9999,1066383472
244,2,T1_SMS_8,62,9999,9999,9999,1067183192
244,2,T1_SMS_8,63,9999,9999,9999,1067983968
244,2,T1_SMS_8,64,9999,9999,9999,1068783708
244,2,T1_SMS_8,65,9999,9999,9999,1069583436
244,2,T1_SMS_8,66,9999,9999,9999,1070383224
244,2,T1_SMS_8,67,9999,9999,9999,1071183928
244,2,T1_SMS_8,68,9999,9999,9999,1071983664
244,2,T1_SMS_8,69,9999,9999,9999,1072783476
244,2,T1_SMS_8,70,9999,9999,9999,1073583184
244,2,T1_SMS_8,71,9999,9999,9999,1074383948
244,2,T1_SMS_8,72,9999,9999,9999,1075183676
244,2,T1_SMS_8,73,9999,9999,9999,1075983416
244,2,T1_SMS_8,74,9999,9999,9999,1076783152
244,2,T1_SMS_8,75,9999,9999,9999,1077583924
244,2,T1_SMS_8,76,9999,9999,9999,1078383664
244,2,T1_SMS_8,77,9999,9999,9999,1079183476
244,2,T1_SMS_8,78,9999,9999,9999,1079983184
244,2,T1_SMS_8,79,9999,9999,9999,1080783940
244,2,T1_SMS_8,80,9999,9999,9999,1081583728
244,2,T1_SMS_8,81,9999,9999,9999,1082383464
244,2,T1_SMS_8,82,9999,9999,9999,1083183200
244,2,T1_SMS_8,83,9999,9999,9999,1083983976
244,2,T1_SMS_8,84,9999,9999,9999,1084783720
244,2,T1_SMS_8,85,9999,9999,9999,1085583448
244,2,T1_SMS_8,86,9999,9999,9999,1086383184
244,2,T1_SMS_8,87,9999,9999,9999,1087183968
244,2,T1_SMS_8,88,9999,9999,9999,1087983704
244,2,T1_SMS_8,89,9999,9999,9999,1088783428
244,2,T1_SMS_8,90,9999,9999,9999,1089583160
244,2,T1_SMS_8,91,9999,9999,9999,1090383940
244,2,T1_SMS_8,92,9999,9999,9999,1091183700
244,2,T1_SMS_8,93,9999,9999,9999,1091983436
244,2,T1_SMS_8,94,9999,9999,9999,1092783168
244,2,T1_SMS_8,95,9999,9999,9999,1093583948
244,2,T1_SMS_8,96,9999,9999,9999,1094383684
244,2,T1_SMS_8,97,9999,9999,9999,1095183416
244,2,T1_SMS_8,98,9999,9999,9999,1095983156
244,2,T1_SMS_8,99,9999,9999,9999,1096783928
244,2,T1_SMS_8,100,9999,9999,9999,1097583692
244,2,T1_SMS_8,101,9999,9999,9999,1098383420
244,2,T1_SMS_8,102,9999,9999,9999,1099183152
244,2,T1_SMS_8,103,9999,9999,9999,1099983940
244,2,T1_SMS_8,104,9999,9999,9999,1100783676
244,2,T1_SMS_8,105,9999,9999,9999,1101583476
244,2,T1_SMS_8,106,9999,9999,9999,1102383208
244,2,T1_SMS_8,107,9999,9999,9999,1103183988
244,2,T1_SMS_8,108,9999,9999,9999,1103983672
244,2,T1_SMS_8,109,9999,9999,9999,1104783412
244,2,T1_SMS_8,110,9999,9999,9999,1105583216
244,2,T1_SMS_8,111,9999,9999,9999,1106383928
244,2,T1_SMS_8,112,9999,9999,9999,1107183660
244,2,T1_SMS_8,113,9999,9999,9999,1107983464
244,2,T1_SMS_8,114,9999,9999,9999,1108783196
244,2,T1_SMS_8,115,9999,9999,9999,1109583976
244,2,T1_SMS_8,116,9999,9999,9999,1110383720
244,2,T1_SMS_8,117,9999,9999,9999,1111183468
244,2,T1_SMS_8,118,9999,9999,9999,1111983200
244,2,T1_SMS_8,119,9999,9999,9999,1112783980
245,10,Ticks_ISO_T2_5,0,5,42,127,1131762096
245,10,Ticks_ISO_T2_5,1,5,42,127,1132261884
245,10,Ticks_ISO_T2_5,2,5,42,127,1132761380
245,10,Ticks_ISO_T2_5,3,1,48,17,1132787312
245,10,Ticks_ISO_T2_5,4,1,48,27,1132791776
245,10,Ticks_ISO_T2_5,5,1,48,56,1133261772
245,10,Ticks_ISO_T2_5,6,5,42,127,1133263336
245,10,Ticks_ISO_T2_5,7,1,48,57,1133755144
245,10,Ticks_ISO_T2_5,8,5,42,127,1133761840
245,10,Ticks_ISO_T2_5,9,1,48,51,1134236140
245,10,Ticks_ISO_T2_5,10,5,42,127,1134261828
245,10,Ticks_ISO_T2_5,11,1,48,58,1134713692
245,10,Ticks_ISO_T2_5,12,5,42,127,1134762200
245,10,Ticks_ISO_T2_5,13,1,48,60,1135225432
245,10,Ticks_ISO_T2_5,14,5,42,127,1135262044
245,10,Ticks_ISO_T2_5,15,1,48,60,1135747940
245,10,Ticks_ISO_T2_5,16,5,42,127,1135761812
245,10,Ticks_ISO_T2_5,17,1,48,57,1136248012
245,10,Ticks_ISO_T2_5,18,5,42,127,1136261360
245,10,Ticks_ISO_T2_5,19,1,48,57,1136735660
245,10,Ticks_ISO_T2_5,20,5,42,127,1136762176
245,10,Ticks_ISO_T2_5,21,5,42,127,1137261800
245,10,Ticks_ISO_T2_5,22,1,48,57,1137272100
245,10,Ticks_ISO_T2_5,23,1,48,57,1137741088
245,10,Ticks_ISO_T2_5,24,5,42,127,1137761860
245,10,Ticks_ISO_T2_5,25,1,48,51,1138260492
245,10,Ticks_ISO_T2_5,26,5,42,127,1138262304
245,10,Ticks_ISO_T2_5,27,1,48,49,1138736736
245,10,Ticks_ISO_T2_5,28,1,38,15,1138748760
245,10,Ticks_ISO_T2_5,29,5,42,127,1138762104
245,10,Ticks_ISO_T2_5,30,1,48,56,1139260876
245,10,Ticks_ISO_T2_5,31,5,42,127,1139262744
245,10,Ticks_ISO_T2_5,32,1,48,58,1139756120
245,10,Ticks_ISO_T2_5,33,5,42,127,1139761464
245,10,Ticks_ISO_T2_5,34,1,48,59,1140249236
245,10,Ticks_ISO_T2_5,35,5,42,127,1140262356
245,10,Ticks_ISO_T2_5,36,5,42,127,1140761908
245,10,Ticks_ISO_T2_5,37,1,48,57,1140767124
245,10,Ticks_ISO_T2_5,38,1,48,59,1141256332
245,10,Ticks_ISO_T2_5,39,5,42,127,1141261672
245,10,Ticks_ISO_T2_5,40,5,42,127,1141762568
245,10,Ticks_ISO_T2_5,41,1,48,54,1141770848
245,10,Ticks_ISO_T2_5,42,1,48,52,1142248836
245,10,Ticks_ISO_T2_5,43,5,42,127,1142262180
245,10,Ticks_ISO_T2_5,44,1,48,59,1142749724
245,10,Ticks_ISO_T2_5,45,5,42,127,1142761952
245,10,Ticks_ISO_T2_5,46,5,42,127,1143261652
245,10,Ticks_ISO_T2_5,47,1,48,58,1143268440
245,10,Ticks_ISO_T2_5,48,5,42,127,1143762320
245,10,Ticks_ISO_T2_5,49,1,48,59,1143773740
245,10,Ticks_ISO_T2_5,50,5,42,127,1144262016
245,10,Ticks_ISO_T2_5,51,1,48,64,1144266860
245,10,Ticks_ISO_T2_5,52,1,48,58,1144731976
245,10,Ticks_ISO_T2_5,53,5,42,127,1144761628
245,10,Ticks_ISO_T2_5,54,5,42,127,1145261552
245,10,Ticks_ISO_T2_5,55,1,48,63,1145288384
245,10,Ticks_ISO_T2_5,56,1,48,60,1145749464
245,10,Ticks_ISO_T2_5,57,5,42,127,1145762588
245,10,Ticks_ISO_T2_5,58,1,48,55,1146247368
245,10,Ticks_ISO_T2_5,59,5,42,127,1146261836
245,10,Ticks_ISO_T2_5,60,1,48,67,1146753344
245,10,Ticks_ISO_T2_5,61,5,42,127,1146761604
245,10,Ticks_ISO_T2_5,62,1,48,56,1147230824
245,10,Ticks_ISO_T2_5,63,5,42,127,1147262420
245,10,Ticks_ISO_T2_5,64,5,42,127,1147762052
245,10,Ticks_ISO_T2_5,65,1,48,65,1147763016
245,10,Ticks_ISO_T2_5,66,1,48,56,1148250560
245,10,Ticks_ISO_T2_5,67,5,42,127,1148261664
245,10,Ticks_ISO_T2_5,68,1,48,57,1148742080
245,10,Ticks_ISO_T2_5,69,5,42,127,1148761436
245,10,Ticks_ISO_T2_5,70,5,42,127,1149262308
245,10,Ticks_ISO_T2_5,71,1,48,57,1149270988
245,10,Ticks_ISO_T2_5,72,1,48,56,1149755304
245,10,Ticks_ISO_T2_5,73,5,42,127,1149761996
245,10,Ticks_ISO_T2_5,74,1,48,58,1150242732
245,10,Ticks_ISO_T2_5,75,5,42,127,1150261616
245,10,Ticks_ISO_T2_5,76,1,48,55,1150745868
245,10,Ticks_ISO_T2_5,77,5,42,127,1150762284
245,10,Ticks_ISO_T2_5,78,1,48,55,1151245264
245,10,Ticks_ISO_T2_5,79,5,42,127,1151262056
245,10,Ticks_ISO_T2_5,80,1,48,60,1151741148
245,10,Ticks_ISO_T2_5,81,5,42,127,1151761824
245,10,Ticks_ISO_T2_5,82,1,48,62,1152238372
245,10,Ticks_ISO_T2_5,83,5,42,127,1152261444
245,10,Ticks_ISO_T2_5,84,1,48,62,1152722656
245,10,Ticks_ISO_T2_5,85,5,42,127,1152762184
245,10,Ticks_ISO_T2_5,86,1,48,63,1153233128
245,10,Ticks_ISO_T2_5,87,5,42,127,1153262104
245,10,Ticks_ISO_T2_5,88,1,48,58,1153730424
245,10,Ticks_ISO_T2_5,89,5,42,127,1153761576
245,10,Ticks_ISO_T2_5,90,5,42,127,1154262252
245,10,Ticks_ISO_T2_5,91,1,48,59,1154267464
245,10,Ticks_ISO_T2_5,92,1,48,58,1154737448
245,10,Ticks_ISO_T2_5,93,5,42,127,1154762012
245,10,Ticks_ISO_T2_5,94,1,48,58,1155254868
245,10,Ticks_ISO_T2_5,95,5,42,127,1155262008
245,10,Ticks_ISO_T2_5,96,1,48,57,1155759512
245,10,Ticks_ISO_T2_5,97,5,42,127,1155761480
245,10,Ticks_ISO_T2_5,98,1,48,62,1156249920
245,10,Ticks_ISO_T2_5,99,5,42,127,1156262144
245,10,Ticks_ISO_T2_5,100,1,48,65,1156727252
245,10,Ticks_ISO_T2_5,101,5,42,127,1156762064
245,10,Ticks_ISO_T2_5,102,5,42,127,1157261768
245,10,Ticks_ISO_T2_5,103,1,48,61,1157264208
245,10,Ticks_ISO_T2_5,104,1,48,59,1157755288
245,10,Ticks_ISO_T2_5,105,5,42,127,1157762352
245,10,Ticks_ISO_T2_5,106,1,48,60,1158244280
245,10,Ticks_ISO_T2_5,107,5,42,127,1158262048
245,10,Ticks_ISO_T2_5,108,1,48,62,1158730868
245,10,Ticks_ISO_T2_5,109,5,42,127,1158761964
245,10,Ticks_ISO_T2_5,110,1,48,59,1159248812
245,10,Ticks_ISO_T2_5,111,5,42,127,1159261712
245,10,Ticks_ISO_T2_5,112,1,48,58,1159751848
245,10,Ticks_ISO_T2_5,113,5,42,127,1159762748
245,10,Ticks_ISO_T2_5,114,1,48,57,1160256176
245,10,Ticks_ISO_T2_5,115,5,42,127,1160262048
245,10,Ticks_ISO_T2_5,116,1,48,54,1160736952
245,10,Ticks_ISO_T2_5,117,5,42,127,1160761816
245,10,Ticks_ISO_T2_5,118,1,48,57,1161246896
245,10,Ticks_ISO_T2_5,119,5,42,127,1161261288
245,10,Ticks_ISO_T2_5,120,1,48,62,1161753840
245,10,Ticks_ISO_T2_5,121,5,42,127,1161762104
245,10,Ticks_ISO_T2_5,122,1,48,65,1162229376
245,10,Ticks_ISO_T2_5,123,5,42,127,1162261796
245,10,Ticks_ISO_T2_5,124,1,48,57,1162755848
245,10,Ticks_ISO_T2_5,125,5,42,127,1162761792
245,10,Ticks_ISO_T2_5,126,1,48,54,1163245748
245,10,Ticks_ISO_T2_5,127,5,42,127,1163262532
245,10,Ticks_ISO_T2_5,128,1,48,54,1163759656
245,10,Ticks_ISO_T2_5,129,5,42,127,1163762080
245,10,Ticks_ISO_T2_5,130,1,48,62,1164259588
245,10,Ticks_ISO_T2_5,131,5,42,127,1164261628
245,10,Ticks_ISO_T2_5,132,1,48,63,1164743784
245,10,Ticks_ISO_T2_5,133,5,42,127,1164761544
245,10,Ticks_ISO_T2_5,134,5,42,127,1165262068
245,10,Ticks_ISO_T2_5,135,1,48,57,1165269452
245,10,Ticks_ISO_T2_5,136,1,48,61,1165750052
245,10,Ticks_ISO_T2_5,137,5,42,127,1165761756
245,10,Ticks_ISO_T2_5,138,1,48,59,1166256100
245,10,Ticks_ISO_T2_5,139,5,42,127,1166261600
245,10,Ticks_ISO_T2_5,140,1,48,22,1166336140
245,10,Ticks_ISO_T2_5,141,1,48,58,1166750772
245,10,Ticks_ISO_T2_5,142,5,42,127,1166762396
245,10,Ticks_ISO_T2_5,143,5,42,127,1167262096
245,10,Ticks_ISO_T2_5,144,1,48,57,1167290124
245,10,Ticks_ISO_T2_5,145,1,48,56,1167751356
245,10,Ticks_ISO_T2_5,146,5,42,127,1167761784
245,10,Ticks_ISO_T2_5,147,1,48,63,1168259292
245,10,Ticks_ISO_T2_5,148,5,42,127,1168261404
245,10,Ticks_ISO_T2_5,149,1,48,60,1168733012
245,10,Ticks_ISO_T2_5,150,5,42,127,1168762144
245,10,Ticks_ISO_T2_5,151,5,42,127,1169261920
245,10,Ticks_ISO_T2_5,152,1,48,58,1169269904
245,10,Ticks_ISO_T2_5,153,1,48,58,1169757912
245,10,Ticks_ISO_T2_5,154,5,42,127,1169761608
245,10,Ticks_ISO_T2_5,155,5,42,127,1170262356
245,10,Ticks_ISO_T2_5,156,1,48,53,1170267796
245,10,Ticks_ISO_T2_5,157,1,48,53,1170752336
245,10,Ticks_ISO_T2_5,158,5,42,127,1170762392
245,10,Ticks_ISO_T2_5,159,5,42,127,1171262020
245,10,Ticks_ISO_T2_5,160,1,48,49,1171271420
245,10,Ticks_ISO_T2_5,161,1,48,53,1171759368
245,10,Ticks_ISO_T2_5,162,5,42,127,1171761484
245,10,Ticks_ISO_T2_5,163,5,42,127,1172262160
245,10,Ticks_ISO_T2_5,164,1,48,59,1172298488
245,10,Ticks_ISO_T2_5,165,1,48,64,1172735780
245,10,Ticks_ISO_T2_5,166,5,42,127,1172762068
245,10,Ticks_ISO_T2_5,167,1,48,62,1173249464
245,10,Ticks_ISO_T2_5,168,5,42,127,1173261616
245,10,Ticks_ISO_T2_5,169,1,48,60,1173733224
245,10,Ticks_ISO_T2_5,170,5,42,127,1173762356
245,10,Ticks_ISO_T2_5,171,1,48,69,1174233148
245,10,Ticks_ISO_T2_5,172,5,42,127,1174262272
245,10,Ticks_ISO_T2_5,173,1,48,64,1174703444
245,10,Ticks_ISO_T2_5,174,5,42,127,1174761892
245,10,Ticks_ISO_T2_5,175,1,48,65,1175227824
245,10,Ticks_ISO_T2_5,176,5,42,127,1175261516
245,10,Ticks_ISO_T2_5,177,1,48,61,1175737168
245,10,Ticks_ISO_T2_5,178,5,42,127,1175762256
245,10,Ticks_ISO_T2_5,179,1,48,57,1176240380
245,10,Ticks_ISO_T2_5,180,5,42,127,1176261952
245,10,Ticks_ISO_T2_5,181,1,48,67,1176757576
245,10,Ticks_ISO_T2_5,182,5,42,127,1176761944
245,10,Ticks_ISO_T2_5,183,1,48,68,1177247924
245,10,Ticks_ISO_T2_5,184,5,42,127,1177261344
245,10,Ticks_ISO_T2_5,185,5,42,127,1177762016
245,10,Ticks_ISO_T2_5,186,1,48,64,1177775004
245,10,Ticks_ISO_T2_5,187,1,48,65,1178256204
245,10,Ticks_ISO_T2_5,188,5,42,127,1178262224
245,10,Ticks_ISO_T2_5,189,1,48,67,1178761928
245,10,Ticks_ISO_T2_5,190,5,42,127,1178763420
245,10,Ticks_ISO_T2_5,191,1,48,62,1179246928
245,10,Ticks_ISO_T2_5,192,5,42,127,1179262292
245,10,Ticks_ISO_T2_5,193,1,48,67,1179753272
245,10,Ticks_ISO_T2_5,194,5,42,127,1179761988
245,10,Ticks_ISO_T2_5,195,1,48,59,1180250876
245,10,Ticks_ISO_T2_5,196,5,42,127,1180261904
245,10,Ticks_ISO_T2_5,197,1,48,60,1180760252
245,10,Ticks_ISO_T2_5,198,5,42,127,1180762044
245,10,Ticks_ISO_T2_5,199,1,48,59,1181247324
245,10,Ticks_ISO_T2_5,200,5,42,127,1181262244
245,10,Ticks_ISO_T2_5,201,1,48,55,1181760816
245,10,Ticks_ISO_T2_5,202,5,42,127,1181762612
245,10,Ticks_ISO_T2_5,203,5,42,127,1182261712
245,10,Ticks_ISO_T2_5,204,1,48,52,1182262828
245,10,Ticks_ISO_T2_5,205,1,48,68,1182745812
245,10,Ticks_ISO_T2_5,206,5,42,127,1182762224
245,10,Ticks_ISO_T2_5,207,1,48,66,1183241164
245,10,Ticks_ISO_T2_5,208,5,42,127,1183262072
245,10,Ticks_ISO_T2_5,209,1,48,63,1183737644
245,10,Ticks_ISO_T2_5,210,5,42,127,1183761764
245,10,Ticks_ISO_T2_5,211,1,48,59,1184233752
245,10,Ticks_ISO_T2_5,212,5,42,127,1184261684
245,10,Ticks_ISO_T2_5,213,1,48,62,1184744436
245,10,Ticks_ISO_T2_5,214,5,42,127,1184762648
245,10,Ticks_ISO_T2_5,215,1,48,62,1185248552
245,10,Ticks_ISO_T2_5,216,5,42,127,1185261824
245,10,Ticks_ISO_T2_5,217,5,42,127,1185761600
245,10,Ticks_ISO_T2_5,218,1,48,65,1185772124
245,10,Ticks_ISO_T2_5,219,1,48,63,1186229468
245,10,Ticks_ISO_T2_5,220,5,42,127,1186262556
245,10,Ticks_ISO_T2_5,221,5,42,127,1186762036
245,10,Ticks_ISO_T2_5,222,1,48,55,1186790736
245,10,Ticks_ISO_T2_5,223,5,42,127,1187261732
245,10,Ticks_ISO_T2_5,224,1,48,54,1187270532
245,10,Ticks_ISO_T2_5,225,5,42,127,1187761648
245,10,Ticks_ISO_T2_5,226,1,48,62,1187764692
245,10,Ticks_ISO_T2_5,227,1,48,57,1188262760
245,10,Ticks_ISO_T2_5,228,5,42,127,1188264176
245,10,Ticks_ISO_T2_5,229,5,42,127,1188761860
245,10,Ticks_ISO_T2_5,230,1,48,59,1188770736
245,10,Ticks_ISO_T2_5,231,1,48,63,1189255752
245,10,Ticks_ISO_T2_5,232,5,42,127,1189261624
245,10,Ticks_ISO_T2_5,233,1,48,64,1189760016
245,10,Ticks_ISO_T2_5,234,5,42,127,1189762588
245,10,Ticks_ISO_T2_5,235,5,42,127,1190262064
245,10,Ticks_ISO_T2_5,236,1,48,58,1190287924
245,10,Ticks_ISO_T2_5,237,5,42,127,1190761684
245,10,Ticks_ISO_T2_5,238,1,48,57,1190769068
245,10,Ticks_ISO_T2_5,239,5,42,127,1191261604
245,10,Ticks_ISO_T2_5,240,1,48,63,1191267348
245,10,Ticks_ISO_T2_5,241,5,42,127,1191762420
245,10,Ticks_ISO_T2_5,242,1,48,62,1191764356
245,10,Ticks_ISO_T2_5,243,5,42,127,1192262164
245,10,Ticks_ISO_T2_5,244,1,48,67,1192264764
245,10,Ticks_ISO_T2_5,245,1,48,68,1192758604
245,10,Ticks_ISO_T2_5,246,5,42,127,1192761704
245,10,Ticks_ISO_T2_5,247,1,48,57,1193244456
245,10,Ticks_ISO_T2_5,248,5,42,127,1193261400
245,10,Ticks_ISO_T2_5,249,1,48,55,1193738992
245,10,Ticks_ISO_T2_5,250,5,42,127,1193762288
245,10,Ticks_ISO_T2_5,251,1,48,63,1194223280
245,10,Ticks_ISO_T2_5,252,5,42,127,1194261984
245,10,Ticks_ISO_T2_5,253,1,48,65,1194697248
245,10,Ticks_ISO_T2_5,254,5,42,127,1194761532
245,10,Ticks_ISO_T2_5,255,1,48,67,1195262204
245,10,Ticks_ISO_T2_5,256,5,42,127,1195263912
245,10,Ticks_ISO_T2_5,257,5,42,127,1195762196
245,10,Ticks_ISO_T2_5,258,1,48,62,1195765684
245,10,Ticks_ISO_T2_5,259,1,48,59,1196250484
245,10,Ticks_ISO_T2_5,260,5,42,127,1196261660
245,10,Ticks_ISO_T2_5,261,1,48,58,1196740304
245,10,Ticks_ISO_T2_5,0,9999,9999,9999,1131759732
245,10,Ticks_ISO_T2_5,1,9999,9999,9999,1132259376
245,10,Ticks_ISO_T2_5,2,9999,9999,9999,1132759092
245,10,Ticks_ISO_T2_5,3,9999,9999,9999,1133259864
245,10,Ticks_ISO_T2_5,4,9999,9999,9999,1133759552
245,10,Ticks_ISO_T2_5,5,9999,9999,9999,1134259320
245,10,Ticks_ISO_T2_5,6,9999,9999,9999,1134759988
245,10,Ticks_ISO_T2_5,7,9999,9999,9999,1135259756
245,10,Ticks_ISO_T2_5,8,9999,9999,9999,1135759452
245,10,Ticks_ISO_T2_5,9,9999,9999,9999,1136259148
245,10,Ticks_ISO_T2_5,10,9999,9999,9999,1136759888
245,10,Ticks_ISO_T2_5,11,9999,9999,9999,1137259588
245,10,Ticks_ISO_T2_5,12,9999,9999,9999,1137759352
245,10,Ticks_ISO_T2_5,13,9999,9999,9999,1138260044
245,10,Ticks_ISO_T2_5,14,9999,9999,9999,1138759744
245,10,Ticks_ISO_T2_5,15,9999,9999,9999,1139259492
245,10,Ticks_ISO_T2_5,16,9999,9999,9999,1139759180
245,10,Ticks_ISO_T2_5,17,9999,9999,9999,1140259924
245,10,Ticks_ISO_T2_5,18,9999,9999,9999,1140759624
245,10,Ticks_ISO_T2_5,19,9999,9999,9999,1141259384
245,10,Ticks_ISO_T2_5,20,9999,9999,9999,1141760060
245,10,Ticks_ISO_T2_5,21,9999,9999,9999,1142259820
245,10,Ticks_ISO_T2_5,22,9999,9999,9999,1142759516
245,10,Ticks_ISO_T2_5,23,9999,9999,9999,1143259220
245,10,Ticks_ISO_T2_5,24,9999,9999,9999,1143759960
245,10,Ticks_ISO_T2_5,25,9999,9999,9999,1144259656
245,10,Ticks_ISO_T2_5,26,9999,9999,9999,1144759416
245,10,Ticks_ISO_T2_5,27,9999,9999,9999,1145259120
245,10,Ticks_ISO_T2_5,28,9999,9999,9999,1145759856
245,10,Ticks_ISO_T2_5,29,9999,9999,9999,1146259548
245,10,Ticks_ISO_T2_5,30,9999,9999,9999,1146759244
245,10,Ticks_ISO_T2_5,31,9999,9999,9999,1147259984
245,10,Ticks_ISO_T2_5,32,9999,9999,9999,1147759688
245,10,Ticks_ISO_T2_5,33,9999,9999,9999,1148259380
245,10,Ticks_ISO_T2_5,34,9999,9999,9999,1148759148
245,10,Ticks_ISO_T2_5,35,9999,9999,9999,1149259872
245,10,Ticks_ISO_T2_5,36,9999,9999,9999,1149759564
245,10,Ticks_ISO_T2_5,37,9999,9999,9999,1150259256
245,10,Ticks_ISO_T2_5,38,9999,9999,9999,1150760000
245,10,Ticks_ISO_T2_5,39,9999,9999,9999,1151259768
245,10,Ticks_ISO_T2_5,40,9999,9999,9999,1151759464
245,10,Ticks_ISO_T2_5,41,9999,9999,9999,1152259160
245,10,Ticks_ISO_T2_5,42,9999,9999,9999,1152759900
245,10,Ticks_ISO_T2_5,43,9999,9999,9999,1153259596
245,10,Ticks_ISO_T2_5,44,9999,9999,9999,1153759292
245,10,Ticks_ISO_T2_5,45,9999,9999,9999,1154260036
245,10,Ticks_ISO_T2_5,46,9999,9999,9999,1154759800
245,10,Ticks_ISO_T2_5,47,9999,9999,9999,1155259496
245,10,Ticks_ISO_T2_5,48,9999,9999,9999,1155759232
245,10,Ticks_ISO_T2_5,49,9999,9999,9999,1156259932
245,10,Ticks_ISO_T2_5,50,9999,9999,9999,1156759628
245,10,Ticks_ISO_T2_5,51,9999,9999,9999,1157259332
245,10,Ticks_ISO_T2_5,52,9999,9999,9999,1157760068
245,10,Ticks_ISO_T2_5,53,9999,9999,9999,1158259760
245,10,Ticks_ISO_T2_5,54,9999,9999,9999,1158759532
245,10,Ticks_ISO_T2_5,55,9999,9999,9999,1159259200
245,10,Ticks_ISO_T2_5,56,9999,9999,9999,1159759992
245,10,Ticks_ISO_T2_5,57,9999,9999,9999,1160259684
245,10,Ticks_ISO_T2_5,58,9999,9999,9999,1160759380
245,10,Ticks_ISO_T2_5,59,9999,9999,9999,1161259076
245,10,Ticks_ISO_T2_5,60,9999,9999,9999,1161759816
245,10,Ticks_ISO_T2_5,61,9999,9999,9999,1162259512
245,10,Ticks_ISO_T2_5,62,9999,9999,9999,1162759284
245,10,Ticks_ISO_T2_5,63,9999,9999,9999,1163260024
245,10,Ticks_ISO_T2_5,64,9999,9999,9999,1163759716
245,10,Ticks_ISO_T2_5,65,9999,9999,9999,1164259376
245,10,Ticks_ISO_T2_5,66,9999,9999,9999,1164759108
245,10,Ticks_ISO_T2_5,67,9999,9999,9999,1165259856
245,10,Ticks_ISO_T2_5,68,9999,9999,9999,1165759548
245,10,Ticks_ISO_T2_5,69,9999,9999,9999,1166259312
245,10,Ticks_ISO_T2_5,70,9999,9999,9999,1166760036
245,10,Ticks_ISO_T2_5,71,9999,9999,9999,1167259736
245,10,Ticks_ISO_T2_5,72,9999,9999,9999,1167759424
245,10,Ticks_ISO_T2_5,73,9999,9999,9999,1168259164
245,10,Ticks_ISO_T2_5,74,9999,9999,9999,1168759860
245,10,Ticks_ISO_T2_5,75,9999,9999,9999,1169259636
245,10,Ticks_ISO_T2_5,76,9999,9999,9999,1169759324
245,10,Ticks_ISO_T2_5,77,9999,9999,9999,1170260068
245,10,Ticks_ISO_T2_5,78,9999,9999,9999,1170759732
245,10,Ticks_ISO_T2_5,79,9999,9999,9999,1171259508
245,10,Ticks_ISO_T2_5,80,9999,9999,9999,1171759160
245,10,Ticks_ISO_T2_5,81,9999,9999,9999,1172259948
245,10,Ticks_ISO_T2_5,82,9999,9999,9999,1172759636
245,10,Ticks_ISO_T2_5,83,9999,9999,9999,1173259328
245,10,Ticks_ISO_T2_5,84,9999,9999,9999,1173760072
245,10,Ticks_ISO_T2_5,85,9999,9999,9999,1174259764
245,10,Ticks_ISO_T2_5,86,9999,9999,9999,1174759532
245,10,Ticks_ISO_T2_5,87,9999,9999,9999,1175259228
245,10,Ticks_ISO_T2_5,88,9999,9999,9999,1175759972
245,10,Ticks_ISO_T2_5,89,9999,9999,9999,1176259668
245,10,Ticks_ISO_T2_5,90,9999,9999,9999,1176759360
245,10,Ticks_ISO_T2_5,91,9999,9999,9999,1177259056
245,10,Ticks_ISO_T2_5,92,9999,9999,9999,1177759804
245,10,Ticks_ISO_T2_5,93,9999,9999,9999,1178259568
245,10,Ticks_ISO_T2_5,94,9999,9999,9999,1178759268
245,10,Ticks_ISO_T2_5,95,9999,9999,9999,1179260004
245,10,Ticks_ISO_T2_5,96,9999,9999,9999,1179759700
245,10,Ticks_ISO_T2_5,97,9999,9999,9999,1180259396
245,10,Ticks_ISO_T2_5,98,9999,9999,9999,1180759096
245,10,Ticks_ISO_T2_5,99,9999,9999,9999,1181259880
245,10,Ticks_ISO_T2_5,100,9999,9999,9999,1181759584
245,10,Ticks_ISO_T2_5,101,9999,9999,9999,1182259280
245,10,Ticks_ISO_T2_5,102,9999,9999,9999,1182760012
245,10,Ticks_ISO_T2_5,103,9999,9999,9999,1183259708
245,10,Ticks_ISO_T2_5,104,9999,9999,9999,1183759476
245,10,Ticks_ISO_T2_5,105,9999,9999,9999,1184259176
245,10,Ticks_ISO_T2_5,106,9999,9999,9999,1184759916
245,10,Ticks_ISO_T2_5,107,9999,9999,9999,1185259612
245,10,Ticks_ISO_T2_5,108,9999,9999,9999,1185759316
245,10,Ticks_ISO_T2_5,109,9999,9999,9999,1186260048
245,10,Ticks_ISO_T2_5,110,9999,9999,9999,1186759748
245,10,Ticks_ISO_T2_5,111,9999,9999,9999,1187259444
245,10,Ticks_ISO_T2_5,112,9999,9999,9999,1187759212
245,10,Ticks_ISO_T2_5,113,9999,9999,9999,1188259952
245,10,Ticks_ISO_T2_5,114,9999,9999,9999,1188759648
245,10,Ticks_ISO_T2_5,115,9999,9999,9999,1189259336
245,10,Ticks_ISO_T2_5,116,9999,9999,9999,1189760080
245,10,Ticks_ISO_T2_5,117,9999,9999,9999,1190259780
245,10,Ticks_ISO_T2_5,118,9999,9999,9999,1190759472
245,10,Ticks_ISO_T2_5,119,9999,9999,9999,1191259244
245,10,Ticks_ISO_T2_5,120,9999,9999,9999,1191759984
245,10,Ticks_ISO_T2_5,121,9999,9999,9999,1192259656
245,10,Ticks_ISO_T2_5,122,9999,9999,9999,1192759416
245,10,Ticks_ISO_T2_5,123,9999,9999,9999,1193259112
245,10,Ticks_ISO_T2_5,124,9999,9999,9999,1193759856
245,10,Ticks_ISO_T2_5,125,9999,9999,9999,1194259548
245,10,Ticks_ISO_T2_5,126,9999,9999,9999,1194759244
245,10,Ticks_ISO_T2_5,127,9999,9999,9999,1195259992
245,10,Ticks_ISO_T2_5,128,9999,9999,9999,1195759688
245,10,Ticks_ISO_T2_5,129,9999,9999,9999,1196259448
246,9,Ticks_ISO_T2_8,0,5,42,127,1212376652
246,9,Ticks_ISO_T2_8,1,1,48,36,1212954788
246,9,Ticks_ISO_T2_8,2,5,42,127,1213177356
246,9,Ticks_ISO_T2_8,3,5,42,127,1213977036
246,9,Ticks_ISO_T2_8,4,1,48,59,1213979552
246,9,Ticks_ISO_T2_8,5,5,42,127,1214776544
246,9,Ticks_ISO_T2_8,6,1,48,40,1214804000
246,9,Ticks_ISO_T2_8,7,1,38,13,1214816092
246,9,Ticks_ISO_T2_8,8,1,48,54,1215550160
246,9,Ticks_ISO_T2_8,9,5,42,127,1215576472
246,9,Ticks_ISO_T2_8,10,5,42,127,1216377336
246,9,Ticks_ISO_T2_8,11,1,48,61,1216383296
246,9,Ticks_ISO_T2_8,12,5,42,127,1217177068
246,9,Ticks_ISO_T2_8,13,1,48,56,1217178036
246,9,Ticks_ISO_T2_8,14,5,42,127,1217976580
246,9,Ticks_ISO_T2_8,15,1,48,52,1217992336
246,9,Ticks_ISO_T2_8,16,1,38,16,1218004284
246,9,Ticks_ISO_T2_8,17,1,48,56,1218768444
246,9,Ticks_ISO_T2_8,18,5,42,127,1218776484
246,9,Ticks_ISO_T2_8,19,5,42,127,1219577192
246,9,Ticks_ISO_T2_8,20,1,48,51,1219589884
246,9,Ticks_ISO_T2_8,21,1,48,58,1220367836
246,9,Ticks_ISO_T2_8,22,5,42,127,1220377068
246,9,Ticks_ISO_T2_8,23,1,48,17,1221128000
246,9,Ticks_ISO_T2_8,24,1,38,16,1221140696
246,9,Ticks_ISO_T2_8,25,5,42,127,1221176708
246,9,Ticks_ISO_T2_8,26,1,48,64,1221971392
246,9,Ticks_ISO_T2_8,27,5,42,127,1221976364
246,9,Ticks_ISO_T2_8,28,5,42,127,1222777076
246,9,Ticks_ISO_T2_8,29,1,48,67,1222813548
246,9,Ticks_ISO_T2_8,30,1,48,59,1223543480
246,9,Ticks_ISO_T2_8,31,5,42,127,1223576952
246,9,Ticks_ISO_T2_8,32,1,48,62,1224355856
246,9,Ticks_ISO_T2_8,33,5,42,127,1224376760
246,9,Ticks_ISO_T2_8,34,1,48,61,1225131356
246,9,Ticks_ISO_T2_8,35,5,42,127,1225176344
246,9,Ticks_ISO_T2_8,36,1,48,51,1225926148
246,9,Ticks_ISO_T2_8,37,5,42,127,1225977124
246,9,Ticks_ISO_T2_8,38,1,48,57,1226718632
246,9,Ticks_ISO_T2_8,39,5,42,127,1226777080
246,9,Ticks_ISO_T2_8,40,1,48,61,1227511404
246,9,Ticks_ISO_T2_8,41,5,42,127,1227576740
246,9,Ticks_ISO_T2_8,42,1,48,64,1228357364
246,9,Ticks_ISO_T2_8,43,5,42,127,1228376648
246,9,Ticks_ISO_T2_8,44,1,48,51,1229151136
246,9,Ticks_ISO_T2_8,45,5,42,127,1229177132
246,9,Ticks_ISO_T2_8,46,5,42,127,1229976800
246,9,Ticks_ISO_T2_8,47,1,48,52,1230006992
246,9,Ticks_ISO_T2_8,48,1,48,67,1230764076
246,9,Ticks_ISO_T2_8,49,5,42,127,1230776748
246,9,Ticks_ISO_T2_8,50,1,48,61,1231572184
246,9,Ticks_ISO_T2_8,51,5,42,127,1231576556
246,9,Ticks_ISO_T2_8,52,1,48,59,1232372964
246,9,Ticks_ISO_T2_8,53,5,42,127,1232377260
246,9,Ticks_ISO_T2_8,54,1,48,57,1233153472
246,9,Ticks_ISO_T2_8,55,5,42,127,1233176844
246,9,Ticks_ISO_T2_8,56,1,48,64,1233957468
246,9,Ticks_ISO_T2_8,57,5,42,127,1233976580
246,9,Ticks_ISO_T2_8,58,5,42,127,1234776344
246,9,Ticks_ISO_T2_8,59,1,48,67,1234792248
246,9,Ticks_ISO_T2_8,60,1,48,59,1235545292
246,9,Ticks_ISO_T2_8,61,5,42,127,1235577340
246,9,Ticks_ISO_T2_8,62,5,42,127,1236377228
246,9,Ticks_ISO_T2_8,63,1,48,59,1236415652
246,9,Ticks_ISO_T2_8,64,1,48,35,1236488180
246,9,Ticks_ISO_T2_8,65,1,48,64,1237135980
246,9,Ticks_ISO_T2_8,66,5,42,127,1237176636
246,9,Ticks_ISO_T2_8,67,5,42,127,1237976300
246,9,Ticks_ISO_T2_8,68,1,48,60,1237982032
246,9,Ticks_ISO_T2_8,69,1,48,61,1238753172
246,9,Ticks_ISO_T2_8,70,5,42,127,1238777072
246,9,Ticks_ISO_T2_8,71,1,48,65,1239574836
246,9,Ticks_ISO_T2_8,72,5,42,127,1239576956
246,9,Ticks_ISO_T2_8,73,1,48,58,1240373208
246,9,Ticks_ISO_T2_8,74,5,42,127,1240376540
246,9,Ticks_ISO_T2_8,75,1,48,57,1241164892
246,9,Ticks_ISO_T2_8,76,5,42,127,1241176372
246,9,Ticks_ISO_T2_8,77,1,48,59,1241971880
246,9,Ticks_ISO_T2_8,78,5,42,127,1241977224
246,9,Ticks_ISO_T2_8,79,1,48,61,1242739004
246,9,Ticks_ISO_T2_8,80,5,42,127,1242776884
246,9,Ticks_ISO_T2_8,81,1,48,58,1243526088
246,9,Ticks_ISO_T2_8,82,5,42,127,1243576620
246,9,Ticks_ISO_T2_8,83,1,48,64,1244338168
246,9,Ticks_ISO_T2_8,84,5,42,127,1244376352
246,9,Ticks_ISO_T2_8,85,5,42,127,1245177064
246,9,Ticks_ISO_T2_8,86,1,48,69,1245187060
246,9,Ticks_ISO_T2_8,87,1,48,67,1245932396
246,9,Ticks_ISO_T2_8,88,5,42,127,1245976864
246,9,Ticks_ISO_T2_8,89,5,42,127,1246776904
246,9,Ticks_ISO_T2_8,90,1,48,64,1246789820
246,9,Ticks_ISO_T2_8,91,1,48,63,1247570560
246,9,Ticks_ISO_T2_8,92,5,42,127,1247576504
246,9,Ticks_ISO_T2_8,93,5,42,127,1248377292
246,9,Ticks_ISO_T2_8,94,1,48,57,1248378780
246,9,Ticks_ISO_T2_8,95,1,48,53,1249147812
246,9,Ticks_ISO_T2_8,96,5,42,127,1249176944
246,9,Ticks_ISO_T2_8,97,5,42,127,1249976760
246,9,Ticks_ISO_T2_8,98,1,48,66,1250031640
246,9,Ticks_ISO_T2_8,99,1,48,65,1250720204
246,9,Ticks_ISO_T2_8,100,5,42,127,1250776636
246,9,Ticks_ISO_T2_8,101,1,48,40,1250800760
246,9,Ticks_ISO_T2_8,102,1,48,63,1251489768
246,9,Ticks_ISO_T2_8,103,1,48,25,1251556312
246,9,Ticks_ISO_T2_8,104,5,42,127,1251577072
246,9,Ticks_ISO_T2_8,105,1,48,38,1252333088
246,9,Ticks_ISO_T2_8,106,5,42,127,1252376880
246,9,Ticks_ISO_T2_8,107,1,48,54,1253157284
246,9,Ticks_ISO_T2_8,108,5,42,127,1253176688
246,9,Ticks_ISO_T2_8,109,1,48,28,1253219388
246,9,Ticks_ISO_T2_8,110,1,48,59,1253950712
246,9,Ticks_ISO_T2_8,111,5,42,127,1253976648
246,9,Ticks_ISO_T2_8,112,1,48,29,1254007132
246,9,Ticks_ISO_T2_8,113,1,48,58,1254723268
246,9,Ticks_ISO_T2_8,114,5,42,127,1254777480
246,9,Ticks_ISO_T2_8,115,1,48,54,1255565660
246,9,Ticks_ISO_T2_8,116,5,42,127,1255576916
246,9,Ticks_ISO_T2_8,117,1,48,58,1256374532
246,9,Ticks_ISO_T2_8,118,5,42,127,1256376652
246,9,Ticks_ISO_T2_8,119,1,48,53,1257167300
246,9,Ticks_ISO_T2_8,120,5,42,127,1257176532
246,9,Ticks_ISO_T2_8,121,1,48,55,1257922828
246,9,Ticks_ISO_T2_8,122,5,42,127,1257977388
246,9,Ticks_ISO_T2_8,123,1,48,58,1258749856
246,9,Ticks_ISO_T2_8,124,5,42,127,1258776972
246,9,Ticks_ISO_T2_8,125,5,42,127,1259576640
246,9,Ticks_ISO_T2_8,126,1,48,52,1259624208
246,9,Ticks_ISO_T2_8,127,5,42,127,1260376396
246,9,Ticks_ISO_T2_8,128,1,48,57,1260403900
246,9,Ticks_ISO_T2_8,129,1,48,58,1261150204
246,9,Ticks_ISO_T2_8,130,5,42,127,1261177168
246,9,Ticks_ISO_T2_8,131,5,42,127,1261977132
246,9,Ticks_ISO_T2_8,132,1,48,65,1262022212
246,9,Ticks_ISO_T2_8,133,1,48,65,1262743840
246,9,Ticks_ISO_T2_8,134,5,42,127,1262776640
246,9,Ticks_ISO_T2_8,135,1,48,69,1263474088
246,9,Ticks_ISO_T2_8,136,5,42,127,1263576356
246,9,Ticks_ISO_T2_8,137,1,48,54,1264342116
246,9,Ticks_ISO_T2_8,138,5,42,127,1264377080
246,9,Ticks_ISO_T2_8,139,1,48,57,1265086720
246,9,Ticks_ISO_T2_8,140,5,42,127,1265177180
246,9,Ticks_ISO_T2_8,141,1,48,56,1265941876
246,9,Ticks_ISO_T2_8,142,5,42,127,1265976840
246,9,Ticks_ISO_T2_8,143,1,48,54,1266720892
246,9,Ticks_ISO_T2_8,144,5,42,127,1266776376
246,9,Ticks_ISO_T2_8,145,1,48,28,1266781424
246,9,Ticks_ISO_T2_8,146,1,48,53,1267511248
246,9,Ticks_ISO_T2_8,147,5,42,127,1267577132
246,9,Ticks_ISO_T2_8,148,1,48,50,1268323272
246,9,Ticks_ISO_T2_8,149,5,42,127,1268376792
246,9,Ticks_ISO_T2_8,150,1,48,30,1268395748
246,9,Ticks_ISO_T2_8,151,1,48,60,1269116924
246,9,Ticks_ISO_T2_8,152,5,42,127,1269176876
246,9,Ticks_ISO_T2_8,153,1,48,61,1269945832
246,9,Ticks_ISO_T2_8,154,5,42,127,1269976388
246,9,Ticks_ISO_T2_8,155,1,48,53,1270707796
246,9,Ticks_ISO_T2_8,156,5,42,127,1270777240
246,9,Ticks_ISO_T2_8,157,1,48,59,1271572224
246,9,Ticks_ISO_T2_8,158,5,42,127,1271576900
246,9,Ticks_ISO_T2_8,159,1,48,55,1272341892
246,9,Ticks_ISO_T2_8,160,5,42,127,1272376856
246,9,Ticks_ISO_T2_8,161,1,48,54,1273133396
246,9,Ticks_ISO_T2_8,162,5,42,127,1273176392
246,9,Ticks_ISO_T2_8,163,1,48,56,1273934576
246,9,Ticks_ISO_T2_8,164,5,42,127,1273977172
246,9,Ticks_ISO_T2_8,165,1,48,57,1274762364
246,9,Ticks_ISO_T2_8,166,5,42,127,1274776908
246,9,Ticks_ISO_T2_8,167,5,42,127,1275576648
246,9,Ticks_ISO_T2_8,168,1,48,59,1275589864
246,9,Ticks_ISO_T2_8,169,5,42,127,1276376532
246,9,Ticks_ISO_T2_8,170,1,48,46,1276388100
246,9,Ticks_ISO_T2_8,171,5,42,127,1277177384
246,9,Ticks_ISO_T2_8,172,1,48,57,1277185664
246,9,Ticks_ISO_T2_8,173,1,48,59,1277962792
246,9,Ticks_ISO_T2_8,174,5,42,127,1277977036
246,9,Ticks_ISO_T2_8,175,5,42,127,1278776776
246,9,Ticks_ISO_T2_8,176,1,48,53,1278777744
246,9,Ticks_ISO_T2_8,177,1,48,60,1279545200
246,9,Ticks_ISO_T2_8,178,5,42,127,1279576452
246,9,Ticks_ISO_T2_8,179,1,48,55,1280299384
246,9,Ticks_ISO_T2_8,180,1,48,32,1280360872
246,9,Ticks_ISO_T2_8,181,5,42,127,1280377432
246,9,Ticks_ISO_T2_8,182,5,42,127,1281176952
246,9,Ticks_ISO_T2_8,183,1,48,54,1281192408
246,9,Ticks_ISO_T2_8,184,5,42,127,1281976612
246,9,Ticks_ISO_T2_8,185,1,48,52,1281988928
246,9,Ticks_ISO_T2_8,186,1,48,54,1282723044
246,9,Ticks_ISO_T2_8,187,5,42,127,1282776560
246,9,Ticks_ISO_T2_8,188,1,48,40,1283534444
246,9,Ticks_ISO_T2_8,189,5,42,127,1283577340
246,9,Ticks_ISO_T2_8,190,1,48,54,1284366572
246,9,Ticks_ISO_T2_8,191,5,42,127,1284377072
246,9,Ticks_ISO_T2_8,192,1,48,29,1284427028
246,9,Ticks_ISO_T2_8,193,1,48,54,1285102924
246,9,Ticks_ISO_T2_8,194,5,42,127,1285176784
246,9,Ticks_ISO_T2_8,195,1,48,59,1285959980
246,9,Ticks_ISO_T2_8,196,5,42,127,1285976396
246,9,Ticks_ISO_T2_8,197,1,48,59,1286730464
246,9,Ticks_ISO_T2_8,198,5,42,127,1286777248
246,9,Ticks_ISO_T2_8,199,1,48,53,1287548600
246,9,Ticks_ISO_T2_8,200,5,42,127,1287577132
246,9,Ticks_ISO_T2_8,201,1,48,38,1287604468
246,9,Ticks_ISO_T2_8,202,5,42,127,1288376628
246,9,Ticks_ISO_T2_8,203,1,48,54,1288392764
246,9,Ticks_ISO_T2_8,204,1,48,34,1288459756
246,9,Ticks_ISO_T2_8,205,5,42,127,1289176340
246,9,Ticks_ISO_T2_8,206,1,48,50,1289177304
246,9,Ticks_ISO_T2_8,207,5,42,127,1289977120
246,9,Ticks_ISO_T2_8,208,1,48,55,1290020404
246,9,Ticks_ISO_T2_8,209,5,42,127,1290776928
246,9,Ticks_ISO_T2_8,210,1,48,55,1290799568
246,9,Ticks_ISO_T2_8,211,1,48,50,1291555900
246,9,Ticks_ISO_T2_8,212,5,42,127,1291576728
246,9,Ticks_ISO_T2_8,213,5,42,127,1292376716
246,9,Ticks_ISO_T2_8,214,1,48,56,1292399284
246,9,Ticks_ISO_T2_8,215,1,48,53,1293160480
246,9,Ticks_ISO_T2_8,216,5,42,127,1293177192
246,9,Ticks_ISO_T2_8,217,5,42,127,1293976936
246,9,Ticks_ISO_T2_8,218,1,48,57,1293998752
246,9,Ticks_ISO_T2_8,219,1,48,34,1294059388
246,9,Ticks_ISO_T2_8,220,5,42,127,1294776648
246,9,Ticks_ISO_T2_8,221,1,48,61,1294818364
246,9,Ticks_ISO_T2_8,222,5,42,127,1295576604
246,9,Ticks_ISO_T2_8,223,1,48,56,1295590044
246,9,Ticks_ISO_T2_8,224,1,48,49,1296337700
246,9,Ticks_ISO_T2_8,225,5,42,127,1296377228
246,9,Ticks_ISO_T2_8,226,1,48,56,1297098840
246,9,Ticks_ISO_T2_8,227,5,42,127,1297176884
246,9,Ticks_ISO_T2_8,228,1,48,53,1297917568
246,9,Ticks_ISO_T2_8,229,5,42,127,1297976620
246,9,Ticks_ISO_T2_8,230,1,48,48,1298764372
246,9,Ticks_ISO_T2_8,231,5,42,127,1298776524
246,9,Ticks_ISO_T2_8,232,1,48,58,1299517404
246,9,Ticks_ISO_T2_8,233,5,42,127,1299577304
246,9,Ticks_ISO_T2_8,234,1,48,52,1300361820
246,9,Ticks_ISO_T2_8,235,5,42,127,1300376892
246,9,Ticks_ISO_T2_8,236,1,48,51,1301147492
246,9,Ticks_ISO_T2_8,237,5,42,127,1301176548
246,9,Ticks_ISO_T2_8,238,5,42,127,1301976288
246,9,Ticks_ISO_T2_8,239,1,48,43,1301986812
246,9,Ticks_ISO_T2_8,240,1,48,49,1302742096
246,9,Ticks_ISO_T2_8,241,5,42,127,1302777284
246,9,Ticks_ISO_T2_8,242,1,48,61,1303574900
246,9,Ticks_ISO_T2_8,243,5,42,127,1303576868
246,9,Ticks_ISO_T2_8,244,5,42,127,1304376536
246,9,Ticks_ISO_T2_8,245,1,48,57,1304402860
246,9,Ticks_ISO_T2_8,246,1,48,61,1305163308
246,9,Ticks_ISO_T2_8,247,5,42,127,1305176436
246,9,Ticks_ISO_T2_8,248,1,48,54,1305953544
246,9,Ticks_ISO_T2_8,249,5,42,127,1305977364
246,9,Ticks_ISO_T2_8,250,5,42,127,1306777104
246,9,Ticks_ISO_T2_8,251,1,48,62,1306821508
246,9,Ticks_ISO_T2_8,252,5,42,127,1307576616
246,9,Ticks_ISO_T2_8,253,1,48,54,1307580780
246,9,Ticks_ISO_T2_8,0,9999,9999,9999,1212374136
246,9,Ticks_ISO_T2_8,1,9999,9999,9999,1213174840
246,9,Ticks_ISO_T2_8,2,9999,9999,9999,1213974596
246,9,Ticks_ISO_T2_8,3,9999,9999,9999,1214774328
246,9,Ticks_ISO_T2_8,4,9999,9999,9999,1215574108
246,9,Ticks_ISO_T2_8,5,9999,9999,9999,1216374892
246,9,Ticks_ISO_T2_8,6,9999,9999,9999,1217174628
246,9,Ticks_ISO_T2_8,7,9999,9999,9999,1217974364
246,9,Ticks_ISO_T2_8,8,9999,9999,9999,1218774116
246,9,Ticks_ISO_T2_8,9,9999,9999,9999,1219574900
246,9,Ticks_ISO_T2_8,10,9999,9999,9999,1220374628
246,9,Ticks_ISO_T2_8,11,9999,9999,9999,1221174344
246,9,Ticks_ISO_T2_8,12,9999,9999,9999,1221974072
246,9,Ticks_ISO_T2_8,13,9999,9999,9999,1222774860
246,9,Ticks_ISO_T2_8,14,9999,9999,9999,1223574584
246,9,Ticks_ISO_T2_8,15,9999,9999,9999,1224374320
246,9,Ticks_ISO_T2_8,16,9999,9999,9999,1225174128
246,9,Ticks_ISO_T2_8,17,9999,9999,9999,1225974832
246,9,Ticks_ISO_T2_8,18,9999,9999,9999,1226774640
246,9,Ticks_ISO_T2_8,19,9999,9999,9999,1227574376
246,9,Ticks_ISO_T2_8,20,9999,9999,9999,1228374132
246,9,Ticks_ISO_T2_8,21,9999,9999,9999,1229174840
246,9,Ticks_ISO_T2_8,22,9999,9999,9999,1229974580
246,9,Ticks_ISO_T2_8,23,9999,9999,9999,1230774384
246,9,Ticks_ISO_T2_8,24,9999,9999,9999,1231574116
246,9,Ticks_ISO_T2_8,25,9999,9999,9999,1232374896
246,9,Ticks_ISO_T2_8,26,9999,9999,9999,1233174628
246,9,Ticks_ISO_T2_8,27,9999,9999,9999,1233974360
246,9,Ticks_ISO_T2_8,28,9999,9999,9999,1234774124
246,9,Ticks_ISO_T2_8,29,9999,9999,9999,1235574900
246,9,Ticks_ISO_T2_8,30,9999,9999,9999,1236374640
246,9,Ticks_ISO_T2_8,31,9999,9999,9999,1237174344
246,9,Ticks_ISO_T2_8,32,9999,9999,9999,1237974084
246,9,Ticks_ISO_T2_8,33,9999,9999,9999,1238774856
246,9,Ticks_ISO_T2_8,34,9999,9999,9999,1239574628
246,9,Ticks_ISO_T2_8,35,9999,9999,9999,1240374324
246,9,Ticks_ISO_T2_8,36,9999,9999,9999,1241174080
246,9,Ticks_ISO_T2_8,37,9999,9999,9999,1241974860
246,9,Ticks_ISO_T2_8,38,9999,9999,9999,1242774596
246,9,Ticks_ISO_T2_8,39,9999,9999,9999,1243574328
246,9,Ticks_ISO_T2_8,40,9999,9999,9999,1244374060
246,9,Ticks_ISO_T2_8,41,9999,9999,9999,1245174848
246,9,Ticks_ISO_T2_8,42,9999,9999,9999,1245974572
246,9,Ticks_ISO_T2_8,43,9999,9999,9999,1246774388
246,9,Ticks_ISO_T2_8,44,9999,9999,9999,1247574064
246,9,Ticks_ISO_T2_8,45,9999,9999,9999,1248374852
246,9,Ticks_ISO_T2_8,46,9999,9999,9999,1249174576
246,9,Ticks_ISO_T2_8,47,9999,9999,9999,1249974320
246,9,Ticks_ISO_T2_8,48,9999,9999,9999,1250774120
246,9,Ticks_ISO_T2_8,49,9999,9999,9999,1251574856
246,9,Ticks_ISO_T2_8,50,9999,9999,9999,1252374588
246,9,Ticks_ISO_T2_8,51,9999,9999,9999,1253174324
246,9,Ticks_ISO_T2_8,52,9999,9999,9999,1253974136
246,9,Ticks_ISO_T2_8,53,9999,9999,9999,1254774892
246,9,Ticks_ISO_T2_8,54,9999,9999,9999,1255574624
246,9,Ticks_ISO_T2_8,55,9999,9999,9999,1256374324
246,9,Ticks_ISO_T2_8,56,9999,9999,9999,1257174092
246,9,Ticks_ISO_T2_8,57,9999,9999,9999,1257974872
246,9,Ticks_ISO_T2_8,58,9999,9999,9999,1258774608
246,9,Ticks_ISO_T2_8,59,9999,9999,9999,1259574348
246,9,Ticks_ISO_T2_8,60,9999,9999,9999,1260374104
246,9,Ticks_ISO_T2_8,61,9999,9999,9999,1261174880
246,9,Ticks_ISO_T2_8,62,9999,9999,9999,1261974620
246,9,Ticks_ISO_T2_8,63,9999,9999,9999,1262774348
246,9,Ticks_ISO_T2_8,64,9999,9999,9999,1263574064
246,9,Ticks_ISO_T2_8,65,9999,9999,9999,1264374860
246,9,Ticks_ISO_T2_8,66,9999,9999,9999,1265174592
246,9,Ticks_ISO_T2_8,67,9999,9999,9999,1265974328
246,9,Ticks_ISO_T2_8,68,9999,9999,9999,1266774084
246,9,Ticks_ISO_T2_8,69,9999,9999,9999,1267574840
246,9,Ticks_ISO_T2_8,70,9999,9999,9999,1268374576
246,9,Ticks_ISO_T2_8,71,9999,9999,9999,1269174360
246,9,Ticks_ISO_T2_8,72,9999,9999,9999,1269974096
246,9,Ticks_ISO_T2_8,73,9999,9999,9999,1270774876
246,9,Ticks_ISO_T2_8,74,9999,9999,9999,1271574608
246,9,Ticks_ISO_T2_8,75,9999,9999,9999,1272374344
246,9,Ticks_ISO_T2_8,76,9999,9999,9999,1273174100
246,9,Ticks_ISO_T2_8,77,9999,9999,9999,1273974880
246,9,Ticks_ISO_T2_8,78,9999,9999,9999,1274774616
246,9,Ticks_ISO_T2_8,79,9999,9999,9999,1275574356
246,9,Ticks_ISO_T2_8,80,9999,9999,9999,1276374092
246,9,Ticks_ISO_T2_8,81,9999,9999,9999,1277174868
246,9,Ticks_ISO_T2_8,82,9999,9999,9999,1277974596
246,9,Ticks_ISO_T2_8,83,9999,9999,9999,1278774336
246,9,Ticks_ISO_T2_8,84,9999,9999,9999,1279574088
246,9,Ticks_ISO_T2_8,85,9999,9999,9999,1280374844
246,9,Ticks_ISO_T2_8,86,9999,9999,9999,1281174584
246,9,Ticks_ISO_T2_8,87,9999,9999,9999,1281974320
246,9,Ticks_ISO_T2_8,88,9999,9999,9999,1282774120
246,9,Ticks_ISO_T2_8,89,9999,9999,9999,1283574900
246,9,Ticks_ISO_T2_8,90,9999,9999,9999,1284374632
246,9,Ticks_ISO_T2_8,91,9999,9999,9999,1285174344
246,9,Ticks_ISO_T2_8,92,9999,9999,9999,1285974104
246,9,Ticks_ISO_T2_8,93,9999,9999,9999,1286774884
246,9,Ticks_ISO_T2_8,94,9999,9999,9999,1287574616
246,9,Ticks_ISO_T2_8,95,9999,9999,9999,1288374336
246,9,Ticks_ISO_T2_8,96,9999,9999,9999,1289174120
246,9,Ticks_ISO_T2_8,97,9999,9999,9999,1289974900
246,9,Ticks_ISO_T2_8,98,9999,9999,9999,1290774636
246,9,Ticks_ISO_T2_8,99,9999,9999,9999,1291574360
246,9,Ticks_ISO_T2_8,100,9999,9999,9999,1292374128
246,9,Ticks_ISO_T2_8,101,9999,9999,9999,1293174900
246,9,Ticks_ISO_T2_8,102,9999,9999,9999,1293974644
246,9,Ticks_ISO_T2_8,103,9999,9999,9999,1294774356
246,9,Ticks_ISO_T2_8,104,9999,9999,9999,1295574088
246,9,Ticks_ISO_T2_8,105,9999,9999,9999,1296374860
246,9,Ticks_ISO_T2_8,106,9999,9999,9999,1297174592
246,9,Ticks_ISO_T2_8,107,9999,9999,9999,1297974328
246,9,Ticks_ISO_T2_8,108,9999,9999,9999,1298774084
246,9,Ticks_ISO_T2_8,109,9999,9999,9999,1299574864
246,9,Ticks_ISO_T2_8,110,9999,9999,9999,1300374600
246,9,Ticks_ISO_T2_8,111,9999,9999,9999,1301174332
246,9,Ticks_ISO_T2_8,112,9999,9999,9999,1301974072
246,9,Ticks_ISO_T2_8,113,9999,9999,9999,1302774844
246,9,Ticks_ISO_T2_8,114,9999,9999,9999,1303574616
246,9,Ticks_ISO_T2_8,115,9999,9999,9999,1304374320
246,9,Ticks_ISO_T2_8,116,9999,9999,9999,1305174068
246,9,Ticks_ISO_T2_8,117,9999,9999,9999,1305974848
246,9,Ticks_ISO_T2_8,118,9999,9999,9999,1306774588
246,9,Ticks_ISO_T2_8,119,9999,9999,9999,1307574324
247,21,Ticks_Linear_5,0,5,42,127,1331487164
247,21,Ticks_Linear_5,1,1,48,43,1331956508
247,21,Ticks_Linear_5,2,5,42,127,1331967408
247,21,Ticks_Linear_5,3,1,48,44,1332396528
247,21,Ticks_Linear_5,4,5,42,127,1332446440
247,21,Ticks_Linear_5,5,1,48,46,1332859452
247,21,Ticks_Linear_5,6,5,42,127,1332927116
247,21,Ticks_Linear_5,7,1,48,47,1333358552
247,21,Ticks_Linear_5,8,5,42,127,1333406976
247,21,Ticks_Linear_5,9,1,48,49,1333840652
247,21,Ticks_Linear_5,10,5,42,127,1333896860
247,21,Ticks_Linear_5,11,1,48,31,1333901232
247,21,Ticks_Linear_5,12,1,48,52,1334342644
247,21,Ticks_Linear_5,13,5,42,127,1334387028
247,21,Ticks_Linear_5,14,1,48,48,1334874884
247,21,Ticks_Linear_5,15,5,42,127,1334876692
247,21,Ticks_Linear_5,16,1,48,50,1335361720
247,21,Ticks_Linear_5,17,5,42,127,1335367032
247,21,Ticks_Linear_5,18,5,42,127,1335856456
247,21,Ticks_Linear_5,19,1,48,48,1335867140
247,21,Ticks_Linear_5,20,1,48,49,1336319112
247,21,Ticks_Linear_5,21,5,42,127,1336357272
247,21,Ticks_Linear_5,22,1,48,35,1336373172
247,21,Ticks_Linear_5,23,5,42,127,1336856956
247,21,Ticks_Linear_5,24,1,48,47,1336879768
247,21,Ticks_Linear_5,25,1,48,48,1337350464
247,21,Ticks_Linear_5,26,5,42,127,1337356796
247,21,Ticks_Linear_5,27,5,42,127,1337857552
247,21,Ticks_Linear_5,28,1,48,43,1337861864
247,21,Ticks_Linear_5,29,1,48,50,1338308300
247,21,Ticks_Linear_5,30,5,42,127,1338357096
247,21,Ticks_Linear_5,31,1,48,47,1338866080
247,21,Ticks_Linear_5,32,5,42,127,1338867952
247,21,Ticks_Linear_5,33,1,48,46,1339372396
247,21,Ticks_Linear_5,34,5,42,127,1339377088
247,21,Ticks_Linear_5,35,1,48,42,1339875852
247,21,Ticks_Linear_5,36,5,42,127,1339886900
247,21,Ticks_Linear_5,37,1,48,42,1340381084
247,21,Ticks_Linear_5,38,5,42,127,1340396856
247,21,Ticks_Linear_5,39,1,48,36,1340879440
247,21,Ticks_Linear_5,40,5,42,127,1340906892
247,21,Ticks_Linear_5,41,1,48,45,1341398612
247,21,Ticks_Linear_5,42,5,42,127,1341426960
247,21,Ticks_Linear_5,43,1,48,45,1341936352
247,21,Ticks_Linear_5,44,5,42,127,1341947252
247,21,Ticks_Linear_5,45,1,48,40,1342443232
247,21,Ticks_Linear_5,46,5,42,127,1342466424
247,21,Ticks_Linear_5,47,1,48,33,1342964200
247,21,Ticks_Linear_5,48,5,42,127,1342986640
247,21,Ticks_Linear_5,49,1,48,43,1343481500
247,21,Ticks_Linear_5,50,5,42,127,1343506708
247,21,Ticks_Linear_5,51,1,48,46,1343988096
247,21,Ticks_Linear_5,52,5,42,127,1344037408
247,21,Ticks_Linear_5,53,1,48,41,1344520220
247,21,Ticks_Linear_5,54,5,42,127,1344566616
247,21,Ticks_Linear_5,55,1,48,51,1345055492
247,21,Ticks_Linear_5,56,5,42,127,1345097192
247,21,Ticks_Linear_5,57,1,48,48,1345593076
247,21,Ticks_Linear_5,58,5,42,127,1345626476
247,21,Ticks_Linear_5,59,1,48,45,1346139984
247,21,Ticks_Linear_5,60,5,42,127,1346156880
247,21,Ticks_Linear_5,61,1,48,47,1346648596
247,21,Ticks_Linear_5,62,5,42,127,1346696640
247,21,Ticks_Linear_5,63,1,48,45,1347181916
247,21,Ticks_Linear_5,64,5,42,127,1347237376
247,21,Ticks_Linear_5,65,1,48,50,1347771932
247,21,Ticks_Linear_5,66,5,42,127,1347776772
247,21,Ticks_Linear_5,67,5,42,127,1348316540
247,21,Ticks_Linear_5,68,1,48,44,1348380992
247,21,Ticks_Linear_5,69,1,48,53,1348852356
247,21,Ticks_Linear_5,70,5,42,127,1348857120
247,21,Ticks_Linear_5,71,1,48,39,1348885988
247,21,Ticks_Linear_5,72,1,48,48,1349395776
247,21,Ticks_Linear_5,73,5,42,127,1349407272
247,21,Ticks_Linear_5,74,5,42,127,1349957100
247,21,Ticks_Linear_5,75,1,48,47,1349965540
247,21,Ticks_Linear_5,76,1,48,48,1350484156
247,21,Ticks_Linear_5,77,5,42,127,1350507044
247,21,Ticks_Linear_5,78,1,48,50,1351045044
247,21,Ticks_Linear_5,79,5,42,127,1351056844
247,21,Ticks_Linear_5,80,5,42,127,1351606652
247,21,Ticks_Linear_5,81,1,48,48,1351613660
247,21,Ticks_Linear_5,82,1,48,55,1352155728
247,21,Ticks_Linear_5,83,5,42,127,1352166852
247,21,Ticks_Linear_5,84,5,42,127,1352727064
247,21,Ticks_Linear_5,85,1,48,50,1352728032
247,21,Ticks_Linear_5,86,5,42,127,1353287152
247,21,Ticks_Linear_5,87,1,48,47,1353292364
247,21,Ticks_Linear_5,88,5,42,127,1353847212
247,21,Ticks_Linear_5,89,1,48,49,1353848400
247,21,Ticks_Linear_5,90,5,42,127,1354407272
247,21,Ticks_Linear_5,91,1,48,49,1354432176
247,21,Ticks_Linear_5,92,1,48,48,1354940316
247,21,Ticks_Linear_5,93,5,42,127,1354976608
247,21,Ticks_Linear_5,94,1,48,49,1355507420
247,21,Ticks_Linear_5,95,5,42,127,1355547000
247,21,Ticks_Linear_5,96,1,48,53,1356078488
247,21,Ticks_Linear_5,97,5,42,127,1356117344
247,21,Ticks_Linear_5,98,1,48,36,1356119488
247,21,Ticks_Linear_5,99,5,42,127,1356686972
247,21,Ticks_Linear_5,100,1,48,48,1356716752
247,21,Ticks_Linear_5,101,5,42,127,1357257140
247,21,Ticks_Linear_5,102,1,48,47,1357291636
247,21,Ticks_Linear_5,103,1,48,46,1357802168
247,21,Ticks_Linear_5,104,5,42,127,1357836664
247,21,Ticks_Linear_5,105,5,42,127,1358417344
247,21,Ticks_Linear_5,106,1,48,44,1358437472
247,21,Ticks_Linear_5,107,5,42,127,1358996804
247,21,Ticks_Linear_5,108,1,48,50,1359003660
247,21,Ticks_Linear_5,109,5,42,127,1359576556
247,21,Ticks_Linear_5,110,1,48,49,1359599820
247,21,Ticks_Linear_5,111,1,48,47,1360149216
247,21,Ticks_Linear_5,112,5,42,127,1360156976
247,21,Ticks_Linear_5,113,1,48,43,1360739856
247,21,Ticks_Linear_5,114,5,42,127,1360747012
247,21,Ticks_Linear_5,115,1,48,43,1361288536
247,21,Ticks_Linear_5,116,5,42,127,1361336732
247,21,Ticks_Linear_5,117,5,42,127,1361926672
247,21,Ticks_Linear_5,118,1,48,50,1361947844
247,21,Ticks_Linear_5,119,5,42,127,1362517536
247,21,Ticks_Linear_5,120,1,48,49,1362556528
247,21,Ticks_Linear_5,121,5,42,127,1363107176
247,21,Ticks_Linear_5,122,1,48,47,1363143092
247,21,Ticks_Linear_5,123,5,42,127,1363707448
247,21,Ticks_Linear_5,124,1,48,48,1363729212
247,21,Ticks_Linear_5,125,1,48,45,1364302976
247,21,Ticks_Linear_5,126,5,42,127,1364307588
247,21,Ticks_Linear_5,127,5,42,127,1364907420
247,21,Ticks_Linear_5,128,1,48,48,1364908460
247,21,Ticks_Linear_5,129,5,42,127,1365506572
247,21,Ticks_Linear_5,130,1,48,49,1365516132
247,21,Ticks_Linear_5,131,5,42,127,1366106496
247,21,Ticks_Linear_5,132,1,48,47,1366112756
247,21,Ticks_Linear_5,133,1,48,48,1366670096
247,21,Ticks_Linear_5,134,5,42,127,1366716796
247,21,Ticks_Linear_5,135,1,48,29,1366718720
247,21,Ticks_Linear_5,136,1,48,50,1367326336
247,21,Ticks_Linear_5,137,5,42,127,1367328204
247,21,Ticks_Linear_5,138,1,48,55,1367925848
247,21,Ticks_Linear_5,139,5,42,127,1367937492
247,21,Ticks_Linear_5,140,1,48,54,1368533376
247,21,Ticks_Linear_5,141,5,42,127,1368546680
247,21,Ticks_Linear_5,142,1,48,53,1369149304
247,21,Ticks_Linear_5,143,5,42,127,1369157012
247,21,Ticks_Linear_5,144,1,48,52,1369760460
247,21,Ticks_Linear_5,145,5,42,127,1369776384
247,21,Ticks_Linear_5,146,1,48,55,1370380728
247,21,Ticks_Linear_5,147,5,42,127,1370397096
247,21,Ticks_Linear_5,148,1,48,53,1371008660
247,21,Ticks_Linear_5,149,5,42,127,1371016568
247,21,Ticks_Linear_5,150,1,48,53,1371629524
247,21,Ticks_Linear_5,151,5,42,127,1371637280
247,21,Ticks_Linear_5,152,5,42,127,1372256536
247,21,Ticks_Linear_5,153,1,48,57,1372298748
247,21,Ticks_Linear_5,154,1,48,50,1372863940
247,21,Ticks_Linear_5,155,5,42,127,1372887280
247,21,Ticks_Linear_5,156,5,42,127,1373517240
247,21,Ticks_Linear_5,157,1,48,54,1373518576
247,21,Ticks_Linear_5,158,1,48,55,1374112664
247,21,Ticks_Linear_5,159,5,42,127,1374147084
247,21,Ticks_Linear_5,160,1,48,53,1374729344
247,21,Ticks_Linear_5,161,5,42,127,1374776640
247,21,Ticks_Linear_5,162,1,48,56,1375397416
247,21,Ticks_Linear_5,163,5,42,127,1375406592
247,21,Ticks_Linear_5,164,5,42,127,1376046416
247,21,Ticks_Linear_5,165,1,48,56,1376047528
247,21,Ticks_Linear_5,166,5,42,127,1376686776
247,21,Ticks_Linear_5,167,1,48,50,1376706000
247,21,Ticks_Linear_5,168,1,48,51,1377307520
247,21,Ticks_Linear_5,169,5,42,127,1377326660
247,21,Ticks_Linear_5,170,1,48,48,1377940772
247,21,Ticks_Linear_5,171,5,42,127,1377966500
247,21,Ticks_Linear_5,172,5,42,127,1378606472
247,21,Ticks_Linear_5,173,1,48,52,1378614148
247,21,Ticks_Linear_5,174,1,48,53,1379235480
247,21,Ticks_Linear_5,175,5,42,127,1379256712
247,21,Ticks_Linear_5,176,1,48,56,1379860912
247,21,Ticks_Linear_5,177,5,42,127,1379906960
247,21,Ticks_Linear_5,178,1,48,26,1379923388
247,21,Ticks_Linear_5,179,5,42,127,1380557244
247,21,Ticks_Linear_5,180,1,48,56,1380596764
247,21,Ticks_Linear_5,181,1,48,54,1381195840
247,21,Ticks_Linear_5,182,5,42,127,1381207708
247,21,Ticks_Linear_5,183,5,42,127,1381856592
247,21,Ticks_Linear_5,184,1,48,51,1381879856
247,21,Ticks_Linear_5,185,1,48,51,1382503640
247,21,Ticks_Linear_5,186,5,42,127,1382517016
247,21,Ticks_Linear_5,187,1,48,51,1383146156
247,21,Ticks_Linear_5,188,5,42,127,1383176452
247,21,Ticks_Linear_5,189,1,48,55,1383837340
247,21,Ticks_Linear_5,190,5,42,127,1383838908
247,21,Ticks_Linear_5,191,1,48,55,1384492156
247,21,Ticks_Linear_5,192,5,42,127,1384496768
247,21,Ticks_Linear_5,193,1,48,54,1385122256
247,21,Ticks_Linear_5,194,5,42,127,1385156976
247,21,Ticks_Linear_5,195,1,48,46,1385813392
247,21,Ticks_Linear_5,196,5,42,127,1385826548
247,21,Ticks_Linear_5,197,1,48,56,1386497220
247,21,Ticks_Linear_5,198,5,42,127,1386498928
247,21,Ticks_Linear_5,199,5,42,127,1387167088
247,21,Ticks_Linear_5,200,1,48,61,1387197392
247,21,Ticks_Linear_5,201,5,42,127,1387836784
247,21,Ticks_Linear_5,202,1,48,56,1387890596
247,21,Ticks_Linear_5,203,5,42,127,1388506476
247,21,Ticks_Linear_5,204,1,48,54,1388538956
247,21,Ticks_Linear_5,205,1,48,58,1389142144
247,21,Ticks_Linear_5,206,5,42,127,1389186524
247,21,Ticks_Linear_5,207,1,48,56,1389799564
247,21,Ticks_Linear_5,208,5,42,127,1389867376
247,21,Ticks_Linear_5,209,1,48,62,1390522520
247,21,Ticks_Linear_5,210,5,42,127,1390547276
247,21,Ticks_Linear_5,211,1,48,60,1391212008
247,21,Ticks_Linear_5,212,5,42,127,1391227256
247,21,Ticks_Linear_5,213,1,48,59,1391894352
247,21,Ticks_Linear_5,214,5,42,127,1391907284
247,21,Ticks_Linear_5,215,1,48,59,1392572088
247,21,Ticks_Linear_5,216,5,42,127,1392597296
247,21,Ticks_Linear_5,217,1,48,58,1393233792
247,21,Ticks_Linear_5,218,5,42,127,1393286416
247,21,Ticks_Linear_5,219,1,48,55,1393931048
247,21,Ticks_Linear_5,220,5,42,127,1393976704
247,21,Ticks_Linear_5,221,1,48,53,1394635224
247,21,Ticks_Linear_5,222,5,42,127,1394667088
247,21,Ticks_Linear_5,223,1,48,53,1395322532
247,21,Ticks_Linear_5,224,5,42,127,1395357176
247,21,Ticks_Linear_5,225,1,48,50,1395982496
247,21,Ticks_Linear_5,226,1,48,24,1396057056
247,21,Ticks_Linear_5,227,5,42,127,1396058476
247,21,Ticks_Linear_5,228,1,48,56,1396702364
247,21,Ticks_Linear_5,229,5,42,127,1396756928
247,21,Ticks_Linear_5,230,1,48,54,1397447128
247,21,Ticks_Linear_5,231,5,42,127,1397457200
247,21,Ticks_Linear_5,232,5,42,127,1398156880
247,21,Ticks_Linear_5,233,1,48,58,1398169884
247,21,Ticks_Linear_5,234,1,48,49,1398850436
247,21,Ticks_Linear_5,235,5,42,127,1398857072
247,21,Ticks_Linear_5,236,1,48,57,1399489804
247,21,Ticks_Linear_5,237,5,42,127,1399566828
247,21,Ticks_Linear_5,238,1,48,66,1400235760
247,21,Ticks_Linear_5,239,5,42,127,1400277512
247,21,Ticks_Linear_5,240,1,48,56,1400961788
247,21,Ticks_Linear_5,241,5,42,127,1400986996
247,21,Ticks_Linear_5,242,5,42,127,1401696788
247,21,Ticks_Linear_5,243,1,48,57,1401703416
247,21,Ticks_Linear_5,244,1,48,55,1402405100
247,21,Ticks_Linear_5,245,5,42,127,1402407288
247,21,Ticks_Linear_5,246,1,48,59,1403106404
247,21,Ticks_Linear_5,247,5,42,127,1403127032
247,21,Ticks_Linear_5,248,1,48,60,1403795440
247,21,Ticks_Linear_5,249,5,42,127,1403847004
247,21,Ticks_Linear_5,250,1,48,62,1404534956
247,21,Ticks_Linear_5,251,5,42,127,1404566820
247,21,Ticks_Linear_5,252,1,48,27,1404610960
247,21,Ticks_Linear_5,253,5,42,127,1405286772
247,21,Ticks_Linear_5,254,1,48,48,1405336624
247,21,Ticks_Linear_5,255,5,42,127,1406006640
247,21,Ticks_Linear_5,256,1,48,65,1406071188
247,21,Ticks_Linear_5,257,5,42,127,1406736864
247,21,Ticks_Linear_5,258,1,48,58,1406759008
247,21,Ticks_Linear_5,259,1,48,58,1407462920
247,21,Ticks_Linear_5,260,5,42,127,1407467012
247,21,Ticks_Linear_5,261,1,48,52,1408164312
247,21,Ticks_Linear_5,262,5,42,127,1408197012
247,21,Ticks_Linear_5,263,5,42,127,1408927100
247,21,Ticks_Linear_5,264,1,48,65,1408976720
247,21,Ticks_Linear_5,265,5,42,127,1409657400
247,21,Ticks_Linear_5,266,1,48,58,1409662536
247,21,Ticks_Linear_5,267,1,48,65,1410367288
247,21,Ticks_Linear_5,268,5,42,127,1410396460
247,21,Ticks_Linear_5,269,1,48,64,1411097488
247,21,Ticks_Linear_5,270,5,42,127,1411136872
247,21,Ticks_Linear_5,271,1,48,59,1411789596
247,21,Ticks_Linear_5,272,5,42,127,1411877408
247,21,Ticks_Linear_5,273,5,42,127,1412616480
247,21,Ticks_Linear_5,274,1,48,57,1412617448
247,21,Ticks_Linear_5,275,5,42,127,1413356968
247,21,Ticks_Linear_5,276,1,48,56,1413366528
247,21,Ticks_Linear_5,277,1,48,54,1414083392
247,21,Ticks_Linear_5,278,5,42,127,1414106584
247,21,Ticks_Linear_5,279,5,42,127,1414857036
247,21,Ticks_Linear_5,280,1,48,57,1414876636
247,21,Ticks_Linear_5,281,1,48,53,1415552536
247,21,Ticks_Linear_5,282,5,42,127,1415606728
247,21,Ticks_Linear_5,283,1,48,61,1416334896
247,21,Ticks_Linear_5,284,5,42,127,1416357100
247,21,Ticks_Linear_5,285,1,48,62,1417080844
247,21,Ticks_Linear_5,286,5,42,127,1417106872
247,21,Ticks_Linear_5,287,1,48,57,1417814452
247,21,Ticks_Linear_5,288,5,42,127,1417866756
247,21,Ticks_Linear_5,289,1,48,59,1418599640
247,21,Ticks_Linear_5,290,5,42,127,1418626564
247,21,Ticks_Linear_5,291,1,48,59,1419330840
247,21,Ticks_Linear_5,292,5,42,127,1419387196
247,21,Ticks_Linear_5,293,1,48,60,1420105624
247,21,Ticks_Linear_5,294,5,42,127,1420147004
247,21,Ticks_Linear_5,295,1,48,21,1420193088
247,21,Ticks_Linear_5,296,1,48,56,1420839400
247,21,Ticks_Linear_5,297,5,42,127,1420906792
247,21,Ticks_Linear_5,298,1,48,62,1421630456
247,21,Ticks_Linear_5,299,5,42,127,1421676784
247,21,Ticks_Linear_5,300,1,48,65,1422442308
247,21,Ticks_Linear_5,301,5,42,127,1422447000
247,21,Ticks_Linear_5,302,1,48,64,1423184516
247,21,Ticks_Linear_5,303,5,42,127,1423216992
247,21,Ticks_Linear_5,304,1,48,60,1423919300
247,21,Ticks_Linear_5,305,5,42,127,1423987060
247,21,Ticks_Linear_5,306,1,48,59,1424699172
247,21,Ticks_Linear_5,307,5,42,127,1424757104
247,21,Ticks_Linear_5,308,1,48,57,1425505788
247,21,Ticks_Linear_5,309,5,42,127,1425537656
247,21,Ticks_Linear_5,310,1,48,59,1426268520
247,21,Ticks_Linear_5,311,5,42,127,1426316712
247,21,Ticks_Linear_5,312,1,48,55,1427032812
247,21,Ticks_Linear_5,313,5,42,127,1427096888
247,21,Ticks_Linear_5,314,1,48,55,1427796748
247,21,Ticks_Linear_5,315,5,42,127,1427877216
247,21,Ticks_Linear_5,316,1,48,54,1428620952
247,21,Ticks_Linear_5,317,5,42,127,1428656424
247,21,Ticks_Linear_5,318,1,48,55,1429431160
247,21,Ticks_Linear_5,319,5,42,127,1429447008
247,21,Ticks_Linear_5,320,1,48,54,1430187456
247,21,Ticks_Linear_5,321,5,42,127,1430236400
247,21,Ticks_Linear_5,322,1,48,54,1431022596
247,21,Ticks_Linear_5,323,5,42,127,1431026988
247,21,Ticks_Linear_5,324,5,42,127,1431816460
247,21,Ticks_Linear_5,325,1,48,55,1431843236
247,21,Ticks_Linear_5,326,1,48,48,1432589020
247,21,Ticks_Linear_5,327,5,42,127,1432607040
247,21,Ticks_Linear_5,328,1,48,48,1433345464
247,21,Ticks_Linear_5,329,5,42,127,1433406712
247,21,Ticks_Linear_5,330,1,48,61,1434165484
247,21,Ticks_Linear_5,331,5,42,127,1434206656
247,21,Ticks_Linear_5,332,5,42,127,1435007284
247,21,Ticks_Linear_5,333,1,48,60,1435019616
247,21,Ticks_Linear_5,334,1,48,70,1435798652
247,21,Ticks_Linear_5,335,5,42,127,1435807228
247,21,Ticks_Linear_5,336,5,42,127,1436606808
247,21,Ticks_Linear_5,337,1,48,53,1436638008
247,21,Ticks_Linear_5,338,1,48,62,1437411268
247,21,Ticks_Linear_5,339,5,42,127,1437416784
247,21,Ticks_Linear_5,340,1,48,54,1438201184
247,21,Ticks_Linear_5,341,5,42,127,1438226768
247,21,Ticks_Linear_5,342,1,48,59,1438998964
247,21,Ticks_Linear_5,343,5,42,127,1439036996
247,21,Ticks_Linear_5,344,1,48,62,1439807852
247,21,Ticks_Linear_5,345,5,42,127,1439846980
247,21,Ticks_Linear_5,346,1,48,56,1440601948
247,21,Ticks_Linear_5,347,5,42,127,1440656964
247,21,Ticks_Linear_5,0,9999,9999,9999,1331484788
247,21,Ticks_Linear_5,1,9999,9999,9999,1331965032
247,21,Ticks_Linear_5,2,9999,9999,9999,1332444216
247,21,Ticks_Linear_5,3,9999,9999,9999,1332924520
247,21,Ticks_Linear_5,4,9999,9999,9999,1333404748
247,21,Ticks_Linear_5,5,9999,9999,9999,1333894264
247,21,Ticks_Linear_5,6,9999,9999,9999,1334384728
247,21,Ticks_Linear_5,7,9999,9999,9999,1334874176
247,21,Ticks_Linear_5,8,9999,9999,9999,1335364732
247,21,Ticks_Linear_5,9,9999,9999,9999,1335854156
247,21,Ticks_Linear_5,10,9999,9999,9999,1336354892
247,21,Ticks_Linear_5,11,9999,9999,9999,1336854656
247,21,Ticks_Linear_5,12,9999,9999,9999,1337354348
247,21,Ticks_Linear_5,13,9999,9999,9999,1337855100
247,21,Ticks_Linear_5,14,9999,9999,9999,1338354796
247,21,Ticks_Linear_5,15,9999,9999,9999,1338864760
247,21,Ticks_Linear_5,16,9999,9999,9999,1339374712
247,21,Ticks_Linear_5,17,9999,9999,9999,1339884600
247,21,Ticks_Linear_5,18,9999,9999,9999,1340394556
247,21,Ticks_Linear_5,19,9999,9999,9999,1340904516
247,21,Ticks_Linear_5,20,9999,9999,9999,1341424732
247,21,Ticks_Linear_5,21,9999,9999,9999,1341944952
247,21,Ticks_Linear_5,22,9999,9999,9999,1342464124
247,21,Ticks_Linear_5,23,9999,9999,9999,1342984268
247,21,Ticks_Linear_5,24,9999,9999,9999,1343504484
247,21,Ticks_Linear_5,25,9999,9999,9999,1344034884
247,21,Ticks_Linear_5,26,9999,9999,9999,1344564316
247,21,Ticks_Linear_5,27,9999,9999,9999,1345094744
247,21,Ticks_Linear_5,28,9999,9999,9999,1345624172
247,21,Ticks_Linear_5,29,9999,9999,9999,1346154576
247,21,Ticks_Linear_5,30,9999,9999,9999,1346694264
247,21,Ticks_Linear_5,31,9999,9999,9999,1347234928
247,21,Ticks_Linear_5,32,9999,9999,9999,1347774544
247,21,Ticks_Linear_5,33,9999,9999,9999,1348314240
247,21,Ticks_Linear_5,34,9999,9999,9999,1348854896
247,21,Ticks_Linear_5,35,9999,9999,9999,1349404748
247,21,Ticks_Linear_5,36,9999,9999,9999,1349954652
247,21,Ticks_Linear_5,37,9999,9999,9999,1350504520
247,21,Ticks_Linear_5,38,9999,9999,9999,1351054396
247,21,Ticks_Linear_5,39,9999,9999,9999,1351604348
247,21,Ticks_Linear_5,40,9999,9999,9999,1352164476
247,21,Ticks_Linear_5,41,9999,9999,9999,1352724540
247,21,Ticks_Linear_5,42,9999,9999,9999,1353284704
247,21,Ticks_Linear_5,43,9999,9999,9999,1353844836
247,21,Ticks_Linear_5,44,9999,9999,9999,1354404968
247,21,Ticks_Linear_5,45,9999,9999,9999,1354974308
247,21,Ticks_Linear_5,46,9999,9999,9999,1355544700
247,21,Ticks_Linear_5,47,9999,9999,9999,1356115044
247,21,Ticks_Linear_5,48,9999,9999,9999,1356684372
247,21,Ticks_Linear_5,49,9999,9999,9999,1357254764
247,21,Ticks_Linear_5,50,9999,9999,9999,1357834360
247,21,Ticks_Linear_5,51,9999,9999,9999,1358414972
247,21,Ticks_Linear_5,52,9999,9999,9999,1358994500
247,21,Ticks_Linear_5,53,9999,9999,9999,1359574104
247,21,Ticks_Linear_5,54,9999,9999,9999,1360154748
247,21,Ticks_Linear_5,55,9999,9999,9999,1360744564
247,21,Ticks_Linear_5,56,9999,9999,9999,1361334352
247,21,Ticks_Linear_5,57,9999,9999,9999,1361924148
247,21,Ticks_Linear_5,58,9999,9999,9999,1362515012
247,21,Ticks_Linear_5,59,9999,9999,9999,1363104876
247,21,Ticks_Linear_5,60,9999,9999,9999,1363704924
247,21,Ticks_Linear_5,61,9999,9999,9999,1364304992
247,21,Ticks_Linear_5,62,9999,9999,9999,1364905044
247,21,Ticks_Linear_5,63,9999,9999,9999,1365504124
247,21,Ticks_Linear_5,64,9999,9999,9999,1366104120
247,21,Ticks_Linear_5,65,9999,9999,9999,1366714424
247,21,Ticks_Linear_5,66,9999,9999,9999,1367324788
247,21,Ticks_Linear_5,67,9999,9999,9999,1367935044
247,21,Ticks_Linear_5,68,9999,9999,9999,1368544380
247,21,Ticks_Linear_5,69,9999,9999,9999,1369154636
247,21,Ticks_Linear_5,70,9999,9999,9999,1369774156
247,21,Ticks_Linear_5,71,9999,9999,9999,1370394720
247,21,Ticks_Linear_5,72,9999,9999,9999,1371014268
247,21,Ticks_Linear_5,73,9999,9999,9999,1371634760
247,21,Ticks_Linear_5,74,9999,9999,9999,1372254308
247,21,Ticks_Linear_5,75,9999,9999,9999,1372885056
247,21,Ticks_Linear_5,76,9999,9999,9999,1373514864
247,21,Ticks_Linear_5,77,9999,9999,9999,1374144636
247,21,Ticks_Linear_5,78,9999,9999,9999,1374774340
247,21,Ticks_Linear_5,79,9999,9999,9999,1375404144
247,21,Ticks_Linear_5,80,9999,9999,9999,1376044112
247,21,Ticks_Linear_5,81,9999,9999,9999,1376684104
247,21,Ticks_Linear_5,82,9999,9999,9999,1377324136
247,21,Ticks_Linear_5,83,9999,9999,9999,1377964124
247,21,Ticks_Linear_5,84,9999,9999,9999,1378604096
247,21,Ticks_Linear_5,85,9999,9999,9999,1379254336
247,21,Ticks_Linear_5,86,9999,9999,9999,1379904588
247,21,Ticks_Linear_5,87,9999,9999,9999,1380554868
247,21,Ticks_Linear_5,88,9999,9999,9999,1381205108
247,21,Ticks_Linear_5,89,9999,9999,9999,1381854292
247,21,Ticks_Linear_5,90,9999,9999,9999,1382514792
247,21,Ticks_Linear_5,91,9999,9999,9999,1383174224
247,21,Ticks_Linear_5,92,9999,9999,9999,1383834740
247,21,Ticks_Linear_5,93,9999,9999,9999,1384494168
247,21,Ticks_Linear_5,94,9999,9999,9999,1385154676
247,21,Ticks_Linear_5,95,9999,9999,9999,1385824320
247,21,Ticks_Linear_5,96,9999,9999,9999,1386495068
247,21,Ticks_Linear_5,97,9999,9999,9999,1387164788
247,21,Ticks_Linear_5,98,9999,9999,9999,1387834480
247,21,Ticks_Linear_5,99,9999,9999,9999,1388504176
247,21,Ticks_Linear_5,100,9999,9999,9999,1389184076
247,21,Ticks_Linear_5,101,9999,9999,9999,1389865076
247,21,Ticks_Linear_5,102,9999,9999,9999,1390544976
247,21,Ticks_Linear_5,103,9999,9999,9999,1391224956
247,21,Ticks_Linear_5,104,9999,9999,9999,1391904836
247,21,Ticks_Linear_5,105,9999,9999,9999,1392594996
247,21,Ticks_Linear_5,106,9999,9999,9999,1393284192
247,21,Ticks_Linear_5,107,9999,9999,9999,1393974328
247,21,Ticks_Linear_5,108,9999,9999,9999,1394664564
247,21,Ticks_Linear_5,109,9999,9999,9999,1395354728
247,21,Ticks_Linear_5,110,9999,9999,9999,1396054104
247,21,Ticks_Linear_5,111,9999,9999,9999,1396754552
247,21,Ticks_Linear_5,112,9999,9999,9999,1397454972
247,21,Ticks_Linear_5,113,9999,9999,9999,1398154356
247,21,Ticks_Linear_5,114,9999,9999,9999,1398854772
247,21,Ticks_Linear_5,115,9999,9999,9999,1399564380
247,21,Ticks_Linear_5,116,9999,9999,9999,1400275064
247,21,Ticks_Linear_5,117,9999,9999,9999,1400984696
247,21,Ticks_Linear_5,118,9999,9999,9999,1401694264
247,21,Ticks_Linear_5,119,9999,9999,9999,1402404952
247,21,Ticks_Linear_5,120,9999,9999,9999,1403124808
247,21,Ticks_Linear_5,121,9999,9999,9999,1403844700
247,21,Ticks_Linear_5,122,9999,9999,9999,1404564592
247,21,Ticks_Linear_5,123,9999,9999,9999,1405284472
247,21,Ticks_Linear_5,124,9999,9999,9999,1406004340
247,21,Ticks_Linear_5,125,9999,9999,9999,1406734416
247,21,Ticks_Linear_5,126,9999,9999,9999,1407464560
247,21,Ticks_Linear_5,127,9999,9999,9999,1408194640
247,21,Ticks_Linear_5,128,9999,9999,9999,1408924796
247,21,Ticks_Linear_5,129,9999,9999,9999,1409654876
247,21,Ticks_Linear_5,130,9999,9999,9999,1410394236
247,21,Ticks_Linear_5,131,9999,9999,9999,1411134572
247,21,Ticks_Linear_5,132,9999,9999,9999,1411874884
247,21,Ticks_Linear_5,133,9999,9999,9999,1412614256
247,21,Ticks_Linear_5,134,9999,9999,9999,1413354592
247,21,Ticks_Linear_5,135,9999,9999,9999,1414104132
247,21,Ticks_Linear_5,136,9999,9999,9999,1414854736
247,21,Ticks_Linear_5,137,9999,9999,9999,1415604280
247,21,Ticks_Linear_5,138,9999,9999,9999,1416354876
247,21,Ticks_Linear_5,139,9999,9999,9999,1417104500
247,21,Ticks_Linear_5,140,9999,9999,9999,1417864308
247,21,Ticks_Linear_5,141,9999,9999,9999,1418624116
247,21,Ticks_Linear_5,142,9999,9999,9999,1419384896
247,21,Ticks_Linear_5,143,9999,9999,9999,1420144704
247,21,Ticks_Linear_5,144,9999,9999,9999,1420904564
247,21,Ticks_Linear_5,145,9999,9999,9999,1421674556
247,21,Ticks_Linear_5,146,9999,9999,9999,1422444624
247,21,Ticks_Linear_5,147,9999,9999,9999,1423214692
247,21,Ticks_Linear_5,148,9999,9999,9999,1423984760
247,21,Ticks_Linear_5,149,9999,9999,9999,1424754804
247,21,Ticks_Linear_5,150,9999,9999,9999,1425535056
247,21,Ticks_Linear_5,151,9999,9999,9999,1426314336
247,21,Ticks_Linear_5,152,9999,9999,9999,1427094588
247,21,Ticks_Linear_5,153,9999,9999,9999,1427874916
247,21,Ticks_Linear_5,154,9999,9999,9999,1428654196
247,21,Ticks_Linear_5,155,9999,9999,9999,1429444708
247,21,Ticks_Linear_5,156,9999,9999,9999,1430234172
247,21,Ticks_Linear_5,157,9999,9999,9999,1431024760
247,21,Ticks_Linear_5,158,9999,9999,9999,1431814232
247,21,Ticks_Linear_5,159,9999,9999,9999,1432604736
247,21,Ticks_Linear_5,160,9999,9999,9999,1433404484
247,21,Ticks_Linear_5,161,9999,9999,9999,1434204284
247,21,Ticks_Linear_5,162,9999,9999,9999,1435004984
247,21,Ticks_Linear_5,163,9999,9999,9999,1435804776
247,21,Ticks_Linear_5,164,9999,9999,9999,1436604504
247,21,Ticks_Linear_5,165,9999,9999,9999,1437414484
247,21,Ticks_Linear_5,166,9999,9999,9999,1438224468
247,21,Ticks_Linear_5,167,9999,9999,9999,1439034476
247,21,Ticks_Linear_5,168,9999,9999,9999,1439844460
247,21,Ticks_Linear_5,169,9999,9999,9999,1440654440
248,20,Ticks_Linear_8,0,5,42,127,1453826412
248,20,Ticks_Linear_8,1,1,48,39,1454471984
248,20,Ticks_Linear_8,2,5,42,127,1454646652
248,20,Ticks_Linear_8,3,1,48,50,1455355140
248,20,Ticks_Linear_8,4,5,42,127,1455466772
248,20,Ticks_Linear_8,5,1,48,57,1456198616
248,20,Ticks_Linear_8,6,5,42,127,1456287180
248,20,Ticks_Linear_8,7,1,48,59,1457085816
248,20,Ticks_Linear_8,8,5,42,127,1457107424
248,20,Ticks_Linear_8,9,5,42,127,1457917264
248,20,Ticks_Linear_8,10,1,48,55,1457932588
248,20,Ticks_Linear_8,11,1,48,57,1458706156
248,20,Ticks_Linear_8,12,5,42,127,1458727240
248,20,Ticks_Linear_8,13,1,48,52,1459515268
248,20,Ticks_Linear_8,14,5,42,127,1459537248
248,20,Ticks_Linear_8,15,1,48,58,1460298964
248,20,Ticks_Linear_8,16,5,42,127,1460347232
248,20,Ticks_Linear_8,17,1,48,31,1460357528
248,20,Ticks_Linear_8,18,1,48,59,1461113408
248,20,Ticks_Linear_8,19,5,42,127,1461157268
248,20,Ticks_Linear_8,20,1,48,62,1461914944
248,20,Ticks_Linear_8,21,5,42,127,1461956992
248,20,Ticks_Linear_8,22,1,48,62,1462731956
248,20,Ticks_Linear_8,23,5,42,127,1462757088
248,20,Ticks_Linear_8,24,1,48,57,1463511088
248,20,Ticks_Linear_8,25,5,42,127,1463556440
248,20,Ticks_Linear_8,26,5,42,127,1464357144
248,20,Ticks_Linear_8,27,1,48,57,1464382528
248,20,Ticks_Linear_8,28,1,48,55,1465138548
248,20,Ticks_Linear_8,29,5,42,127,1465157036
248,20,Ticks_Linear_8,30,1,48,50,1465939712
248,20,Ticks_Linear_8,31,5,42,127,1465946352
248,20,Ticks_Linear_8,32,1,48,62,1466700420
248,20,Ticks_Linear_8,33,5,42,127,1466736936
248,20,Ticks_Linear_8,34,1,48,62,1467468024
248,20,Ticks_Linear_8,35,5,42,127,1467526696
248,20,Ticks_Linear_8,36,1,48,63,1468288340
248,20,Ticks_Linear_8,37,5,42,127,1468316916
248,20,Ticks_Linear_8,38,1,48,55,1469030772
248,20,Ticks_Linear_8,39,5,42,127,1469106752
248,20,Ticks_Linear_8,40,1,48,52,1469859404
248,20,Ticks_Linear_8,41,5,42,127,1469886780
248,20,Ticks_Linear_8,42,1,48,27,1469914900
248,20,Ticks_Linear_8,43,5,42,127,1470667092
248,20,Ticks_Linear_8,44,1,48,63,1470669028
248,20,Ticks_Linear_8,45,1,48,57,1471431564
248,20,Ticks_Linear_8,46,5,42,127,1471447560
248,20,Ticks_Linear_8,47,1,48,50,1472215716
248,20,Ticks_Linear_8,48,5,42,127,1472226616
248,20,Ticks_Linear_8,49,1,48,48,1472962336
248,20,Ticks_Linear_8,50,5,42,127,1473006868
248,20,Ticks_Linear_8,51,1,48,46,1473746492
248,20,Ticks_Linear_8,52,5,42,127,1473777088
248,20,Ticks_Linear_8,53,5,42,127,1474546940
248,20,Ticks_Linear_8,54,1,48,53,1474565340
248,20,Ticks_Linear_8,55,1,48,52,1475317228
248,20,Ticks_Linear_8,56,5,42,127,1475318796
248,20,Ticks_Linear_8,57,1,48,48,1476052348
248,20,Ticks_Linear_8,58,5,42,127,1476087288
248,20,Ticks_Linear_8,59,1,48,56,1476843756
248,20,Ticks_Linear_8,60,5,42,127,1476857432
248,20,Ticks_Linear_8,61,5,42,127,1477617024
248,20,Ticks_Linear_8,62,1,48,57,1477685600
248,20,Ticks_Linear_8,63,1,48,57,1478365560
248,20,Ticks_Linear_8,64,5,42,127,1478376756
248,20,Ticks_Linear_8,65,1,48,59,1479054824
248,20,Ticks_Linear_8,66,5,42,127,1479136488
248,20,Ticks_Linear_8,67,1,48,64,1479822112
248,20,Ticks_Linear_8,68,5,42,127,1479896524
248,20,Ticks_Linear_8,69,1,48,48,1480575564
248,20,Ticks_Linear_8,70,5,42,127,1480657228
248,20,Ticks_Linear_8,71,1,48,61,1481332444
248,20,Ticks_Linear_8,72,5,42,127,1481406928
248,20,Ticks_Linear_8,73,1,48,60,1482099444
248,20,Ticks_Linear_8,74,5,42,127,1482157376
248,20,Ticks_Linear_8,75,1,48,55,1482865924
248,20,Ticks_Linear_8,76,5,42,127,1482917112
248,20,Ticks_Linear_8,77,1,48,51,1483627976
248,20,Ticks_Linear_8,78,5,42,127,1483667032
248,20,Ticks_Linear_8,79,1,48,58,1484417488
248,20,Ticks_Linear_8,80,5,42,127,1484419048
248,20,Ticks_Linear_8,81,5,42,127,1485156852
248,20,Ticks_Linear_8,82,1,48,57,1485213136
248,20,Ticks_Linear_8,83,1,48,57,1485889804
248,20,Ticks_Linear_8,84,5,42,127,1485897036
248,20,Ticks_Linear_8,85,1,48,41,1486605556
248,20,Ticks_Linear_8,86,5,42,127,1486637348
248,20,Ticks_Linear_8,87,1,48,54,1487357796
248,20,Ticks_Linear_8,88,5,42,127,1487386896
248,20,Ticks_Linear_8,89,1,48,59,1488089672
248,20,Ticks_Linear_8,90,5,42,127,1488127308
248,20,Ticks_Linear_8,91,1,48,35,1488135056
248,20,Ticks_Linear_8,92,1,48,53,1488834712
248,20,Ticks_Linear_8,93,5,42,127,1488856616
248,20,Ticks_Linear_8,94,1,48,37,1488892812
248,20,Ticks_Linear_8,95,1,48,56,1489566560
248,20,Ticks_Linear_8,96,5,42,127,1489586672
248,20,Ticks_Linear_8,97,1,48,43,1490276196
248,20,Ticks_Linear_8,98,5,42,127,1490316752
248,20,Ticks_Linear_8,99,1,48,57,1490993436
248,20,Ticks_Linear_8,100,5,42,127,1491046756
248,20,Ticks_Linear_8,101,1,48,58,1491747708
248,20,Ticks_Linear_8,102,5,42,127,1491776836
248,20,Ticks_Linear_8,103,1,48,60,1492428588
248,20,Ticks_Linear_8,104,5,42,127,1492496704
248,20,Ticks_Linear_8,105,1,48,54,1493186372
248,20,Ticks_Linear_8,106,5,42,127,1493216596
248,20,Ticks_Linear_8,107,1,48,56,1493898776
248,20,Ticks_Linear_8,108,5,42,127,1493936416
248,20,Ticks_Linear_8,109,1,48,51,1494589912
248,20,Ticks_Linear_8,110,5,42,127,1494657352
248,20,Ticks_Linear_8,111,1,48,56,1495366644
248,20,Ticks_Linear_8,112,5,42,127,1495377248
248,20,Ticks_Linear_8,113,5,42,127,1496086792
248,20,Ticks_Linear_8,114,1,48,58,1496136820
248,20,Ticks_Linear_8,115,1,48,54,1496760200
248,20,Ticks_Linear_8,116,5,42,127,1496796568
248,20,Ticks_Linear_8,117,1,48,59,1497501888
248,20,Ticks_Linear_8,118,5,42,127,1497507248
248,20,Ticks_Linear_8,119,1,48,58,1498166068
248,20,Ticks_Linear_8,120,5,42,127,1498216808
248,20,Ticks_Linear_8,121,1,48,59,1498881812
248,20,Ticks_Linear_8,122,5,42,127,1498926420
248,20,Ticks_Linear_8,123,1,48,58,1499592944
248,20,Ticks_Linear_8,124,5,42,127,1499626768
248,20,Ticks_Linear_8,125,1,48,55,1500323244
248,20,Ticks_Linear_8,126,5,42,127,1500327412
248,20,Ticks_Linear_8,127,1,48,63,1501005404
248,20,Ticks_Linear_8,128,5,42,127,1501026564
248,20,Ticks_Linear_8,129,1,48,59,1501672168
248,20,Ticks_Linear_8,130,5,42,127,1501727036
248,20,Ticks_Linear_8,131,5,42,127,1502426492
248,20,Ticks_Linear_8,132,1,48,48,1502433352
248,20,Ticks_Linear_8,133,1,48,51,1503104924
248,20,Ticks_Linear_8,134,5,42,127,1503116648
248,20,Ticks_Linear_8,135,1,48,55,1503755896
248,20,Ticks_Linear_8,136,5,42,127,1503806884
248,20,Ticks_Linear_8,137,1,48,33,1503826764
248,20,Ticks_Linear_8,138,1,48,48,1504483172
248,20,Ticks_Linear_8,139,5,42,127,1504497004
248,20,Ticks_Linear_8,140,1,48,52,1505151696
248,20,Ticks_Linear_8,141,5,42,127,1505187316
248,20,Ticks_Linear_8,142,1,48,21,1505235728
248,20,Ticks_Linear_8,143,5,42,127,1505877316
248,20,Ticks_Linear_8,144,1,48,51,1505982204
248,20,Ticks_Linear_8,145,1,48,40,1506496940
248,20,Ticks_Linear_8,146,1,48,30,1506539824
248,20,Ticks_Linear_8,147,5,42,127,1506557244
248,20,Ticks_Linear_8,148,1,48,48,1507143188
248,20,Ticks_Linear_8,149,1,48,35,1507201804
248,20,Ticks_Linear_8,150,5,42,127,1507237124
248,20,Ticks_Linear_8,151,1,48,50,1507838924
248,20,Ticks_Linear_8,152,5,42,127,1507917104
248,20,Ticks_Linear_8,153,1,48,54,1508565864
248,20,Ticks_Linear_8,154,5,42,127,1508596984
248,20,Ticks_Linear_8,155,1,48,54,1509167336
248,20,Ticks_Linear_8,156,1,48,43,1509230988
248,20,Ticks_Linear_8,157,5,42,127,1509277164
248,20,Ticks_Linear_8,158,1,48,61,1509844064
248,20,Ticks_Linear_8,159,5,42,127,1509946868
248,20,Ticks_Linear_8,160,5,42,127,1510616364
248,20,Ticks_Linear_8,161,1,48,51,1510629444
248,20,Ticks_Linear_8,162,5,42,127,1511287132
248,20,Ticks_Linear_8,163,1,48,53,1511321100
248,20,Ticks_Linear_8,164,1,48,54,1511916868
248,20,Ticks_Linear_8,165,5,42,127,1511956820
248,20,Ticks_Linear_8,166,1,48,34,1511971304
248,20,Ticks_Linear_8,167,5,42,127,1512626600
248,20,Ticks_Linear_8,168,1,48,56,1512628012
248,20,Ticks_Linear_8,169,1,48,28,1512700684
248,20,Ticks_Linear_8,170,1,48,55,1513263196
248,20,Ticks_Linear_8,171,5,42,127,1513286928
248,20,Ticks_Linear_8,172,1,48,38,1513313468
248,20,Ticks_Linear_8,173,1,48,62,1513886240
248,20,Ticks_Linear_8,174,5,42,127,1513946488
248,20,Ticks_Linear_8,175,1,48,59,1514576404
248,20,Ticks_Linear_8,176,5,42,127,1514606848
248,20,Ticks_Linear_8,177,1,48,57,1515220628
248,20,Ticks_Linear_8,178,5,42,127,1515266360
248,20,Ticks_Linear_8,179,1,48,25,1515298444
248,20,Ticks_Linear_8,180,1,48,50,1515922900
248,20,Ticks_Linear_8,181,5,42,127,1515926992
248,20,Ticks_Linear_8,182,1,48,45,1516576924
248,20,Ticks_Linear_8,183,5,42,127,1516578632
248,20,Ticks_Linear_8,184,1,48,53,1517213936
248,20,Ticks_Linear_8,185,5,42,127,1517227316
248,20,Ticks_Linear_8,186,1,48,54,1517810096
248,20,Ticks_Linear_8,187,5,42,127,1517876664
248,20,Ticks_Linear_8,188,1,48,54,1518455180
248,20,Ticks_Linear_8,189,5,42,127,1518526736
248,20,Ticks_Linear_8,190,1,48,55,1519173192
248,20,Ticks_Linear_8,191,5,42,127,1519177060
248,20,Ticks_Linear_8,192,5,42,127,1519817256
248,20,Ticks_Linear_8,193,1,48,59,1519830336
248,20,Ticks_Linear_8,194,1,48,52,1520437504
248,20,Ticks_Linear_8,195,5,42,127,1520457312
248,20,Ticks_Linear_8,196,1,48,51,1521086604
248,20,Ticks_Linear_8,197,5,42,127,1521097272
248,20,Ticks_Linear_8,198,1,48,60,1521704612
248,20,Ticks_Linear_8,199,5,42,127,1521737336
248,20,Ticks_Linear_8,200,5,42,127,1522377308
248,20,Ticks_Linear_8,201,1,48,60,1522402520
248,20,Ticks_Linear_8,202,1,48,56,1522989072
248,20,Ticks_Linear_8,203,5,42,127,1523007256
248,20,Ticks_Linear_8,204,1,48,55,1523630628
248,20,Ticks_Linear_8,205,5,42,127,1523636736
248,20,Ticks_Linear_8,206,5,42,127,1524267348
248,20,Ticks_Linear_8,207,1,48,55,1524308384
248,20,Ticks_Linear_8,208,5,42,127,1524897148
248,20,Ticks_Linear_8,209,1,48,57,1524968416
248,20,Ticks_Linear_8,210,1,48,59,1525515428
248,20,Ticks_Linear_8,211,5,42,127,1525527072
248,20,Ticks_Linear_8,212,1,48,61,1526145796
248,20,Ticks_Linear_8,213,5,42,127,1526147512
248,20,Ticks_Linear_8,214,1,48,57,1526760320
248,20,Ticks_Linear_8,215,5,42,127,1526767180
248,20,Ticks_Linear_8,216,1,48,59,1527380840
248,20,Ticks_Linear_8,217,5,42,127,1527386356
248,20,Ticks_Linear_8,218,1,48,54,1527979248
248,20,Ticks_Linear_8,219,5,42,127,1528007072
248,20,Ticks_Linear_8,220,1,48,58,1528584912
248,20,Ticks_Linear_8,221,5,42,127,1528626516
248,20,Ticks_Linear_8,222,1,48,20,1528679744
248,20,Ticks_Linear_8,223,1,48,59,1529173420
248,20,Ticks_Linear_8,224,5,42,127,1529236752
248,20,Ticks_Linear_8,225,1,48,32,1529260524
248,20,Ticks_Linear_8,226,1,48,58,1529820856
248,20,Ticks_Linear_8,227,5,42,127,1529847260
248,20,Ticks_Linear_8,228,1,48,57,1530454512
248,20,Ticks_Linear_8,229,5,42,127,1530456400
248,20,Ticks_Linear_8,230,1,48,54,1531039780
248,20,Ticks_Linear_8,231,5,42,127,1531066856
248,20,Ticks_Linear_8,232,5,42,127,1531677020
248,20,Ticks_Linear_8,233,1,48,57,1531684696
248,20,Ticks_Linear_8,234,5,42,127,1532277020
248,20,Ticks_Linear_8,235,1,48,53,1532324168
248,20,Ticks_Linear_8,236,1,48,57,1532869232
248,20,Ticks_Linear_8,237,5,42,127,1532877360
248,20,Ticks_Linear_8,238,1,48,54,1533422244
248,20,Ticks_Linear_8,239,5,42,127,1533477184
248,20,Ticks_Linear_8,240,1,48,61,1534040892
248,20,Ticks_Linear_8,241,5,42,127,1534077184
248,20,Ticks_Linear_8,242,1,48,55,1534648956
248,20,Ticks_Linear_8,243,5,42,127,1534677456
248,20,Ticks_Linear_8,244,1,48,29,1534717632
248,20,Ticks_Linear_8,245,5,42,127,1535267232
248,20,Ticks_Linear_8,246,1,48,48,1535269824
248,20,Ticks_Linear_8,247,1,48,27,1535333100
248,20,Ticks_Linear_8,248,1,48,62,1535854824
248,20,Ticks_Linear_8,249,5,42,127,1535856940
248,20,Ticks_Linear_8,250,1,48,61,1536425572
248,20,Ticks_Linear_8,251,5,42,127,1536446732
248,20,Ticks_Linear_8,252,1,48,64,1537018356
248,20,Ticks_Linear_8,253,5,42,127,1537036668
248,20,Ticks_Linear_8,254,1,48,57,1537605704
248,20,Ticks_Linear_8,255,5,42,127,1537626412
248,20,Ticks_Linear_8,256,1,48,59,1538187476
248,20,Ticks_Linear_8,257,5,42,127,1538207360
248,20,Ticks_Linear_8,258,1,48,26,1538250672
248,20,Ticks_Linear_8,259,1,48,61,1538765412
248,20,Ticks_Linear_8,260,5,42,127,1538786644
248,20,Ticks_Linear_8,261,1,48,55,1539360436
248,20,Ticks_Linear_8,262,5,42,127,1539367220
248,20,Ticks_Linear_8,263,1,48,58,1539932048
248,20,Ticks_Linear_8,264,5,42,127,1539946852
248,20,Ticks_Linear_8,265,5,42,127,1540526316
248,20,Ticks_Linear_8,266,1,48,58,1540535200
248,20,Ticks_Linear_8,267,5,42,127,1541096780
248,20,Ticks_Linear_8,268,1,48,57,1541111576
248,20,Ticks_Linear_8,269,1,48,62,1541660760
248,20,Ticks_Linear_8,270,5,42,127,1541667316
248,20,Ticks_Linear_8,271,1,48,61,1542226240
248,20,Ticks_Linear_8,272,5,42,127,1542236464
248,20,Ticks_Linear_8,273,1,48,61,1542797532
248,20,Ticks_Linear_8,274,5,42,127,1542806784
248,20,Ticks_Linear_8,275,1,48,59,1543365976
248,20,Ticks_Linear_8,276,5,42,127,1543377472
248,20,Ticks_Linear_8,277,5,42,127,1543937392
248,20,Ticks_Linear_8,278,1,48,46,1543994684
248,20,Ticks_Linear_8,279,5,42,127,1544496476
248,20,Ticks_Linear_8,280,1,48,53,1544507564
248,20,Ticks_Linear_8,281,5,42,127,1545056636
248,20,Ticks_Linear_8,282,1,48,52,1545103180
248,20,Ticks_Linear_8,283,5,42,127,1545616768
248,20,Ticks_Linear_8,284,1,48,50,1545652756
248,20,Ticks_Linear_8,285,5,42,127,1546177052
248,20,Ticks_Linear_8,286,1,48,53,1546196796
248,20,Ticks_Linear_8,287,5,42,127,1546727000
248,20,Ticks_Linear_8,288,1,48,48,1546767044
248,20,Ticks_Linear_8,289,5,42,127,1547276876
248,20,Ticks_Linear_8,290,1,48,52,1547307332
248,20,Ticks_Linear_8,291,1,48,60,1547758928
248,20,Ticks_Linear_8,292,5,42,127,1547826692
248,20,Ticks_Linear_8,293,1,48,53,1548329024
248,20,Ticks_Linear_8,294,5,42,127,1548376420
248,20,Ticks_Linear_8,295,1,48,54,1548895624
248,20,Ticks_Linear_8,296,5,42,127,1548927412
248,20,Ticks_Linear_8,297,1,48,24,1548974100
248,20,Ticks_Linear_8,298,1,48,60,1549455736
248,20,Ticks_Linear_8,299,5,42,127,1549466932
248,20,Ticks_Linear_8,300,5,42,127,1550006780
248,20,Ticks_Linear_8,301,1,48,53,1550008344
248,20,Ticks_Linear_8,302,1,48,59,1550484400
248,20,Ticks_Linear_8,303,5,42,127,1550547432
248,20,Ticks_Linear_8,304,1,48,51,1551070456
248,20,Ticks_Linear_8,305,5,42,127,1551086972
248,20,Ticks_Linear_8,306,5,42,127,1551626820
248,20,Ticks_Linear_8,307,1,48,52,1551662736
248,20,Ticks_Linear_8,308,1,48,33,1551716892
248,20,Ticks_Linear_8,309,1,48,56,1552154596
248,20,Ticks_Linear_8,310,5,42,127,1552157120
248,20,Ticks_Linear_8,311,1,48,59,1552674592
248,20,Ticks_Linear_8,312,5,42,127,1552686328
248,20,Ticks_Linear_8,313,1,48,53,1553184780
248,20,Ticks_Linear_8,314,5,42,127,1553216832
248,20,Ticks_Linear_8,315,5,42,127,1553747536
248,20,Ticks_Linear_8,316,1,48,60,1553762340
248,20,Ticks_Linear_8,317,5,42,127,1554276672
248,20,Ticks_Linear_8,318,1,48,59,1554298736
248,20,Ticks_Linear_8,319,1,48,58,1554792792
248,20,Ticks_Linear_8,320,5,42,127,1554796960
248,20,Ticks_Linear_8,321,5,42,127,1555317032
248,20,Ticks_Linear_8,322,1,48,56,1555318972
248,20,Ticks_Linear_8,323,1,48,57,1555821996
248,20,Ticks_Linear_8,324,5,42,127,1555837244
248,20,Ticks_Linear_8,325,1,48,62,1556330160
248,20,Ticks_Linear_8,326,5,42,127,1556356640
248,20,Ticks_Linear_8,327,5,42,127,1556876644
248,20,Ticks_Linear_8,328,1,48,53,1556897660
248,20,Ticks_Linear_8,329,5,42,127,1557386528
248,20,Ticks_Linear_8,330,1,48,50,1557392260
248,20,Ticks_Linear_8,331,1,48,40,1557895120
248,20,Ticks_Linear_8,332,5,42,127,1557896708
248,20,Ticks_Linear_8,333,1,48,57,1558368288
248,20,Ticks_Linear_8,334,5,42,127,1558406664
248,20,Ticks_Linear_8,335,1,48,48,1558891568
248,20,Ticks_Linear_8,336,5,42,127,1558916404
248,20,Ticks_Linear_8,337,1,48,52,1559408724
248,20,Ticks_Linear_8,338,5,42,127,1559426512
248,20,Ticks_Linear_8,339,1,48,59,1559917108
248,20,Ticks_Linear_8,340,5,42,127,1559927036
248,20,Ticks_Linear_8,341,5,42,127,1560426816
248,20,Ticks_Linear_8,342,1,48,53,1560432852
248,20,Ticks_Linear_8,343,1,48,56,1560904980
248,20,Ticks_Linear_8,344,5,42,127,1560926732
248,20,Ticks_Linear_8,345,1,48,53,1561416736
248,20,Ticks_Linear_8,346,5,42,127,1561427480
248,20,Ticks_Linear_8,347,1,48,57,1561898804
248,20,Ticks_Linear_8,348,5,42,127,1561927032
248,20,Ticks_Linear_8,349,1,48,58,1562417000
248,20,Ticks_Linear_8,350,5,42,127,1562418344
248,20,Ticks_Linear_8,351,5,42,127,1562906944
248,20,Ticks_Linear_8,352,1,48,50,1562913056
248,20,Ticks_Linear_8,353,5,42,127,1563396460
248,20,Ticks_Linear_8,354,1,48,59,1563423532
248,20,Ticks_Linear_8,355,1,48,49,1563852072
248,20,Ticks_Linear_8,356,5,42,127,1563887236
248,20,Ticks_Linear_8,357,1,48,61,1564369000
248,20,Ticks_Linear_8,358,5,42,127,1564376384
248,20,Ticks_Linear_8,0,9999,9999,9999,1453824112
248,20,Ticks_Linear_8,1,9999,9999,9999,1454644276
248,20,Ticks_Linear_8,2,9999,9999,9999,1455464544
248,20,Ticks_Linear_8,3,9999,9999,9999,1456284728
248,20,Ticks_Linear_8,4,9999,9999,9999,1457104972
248,20,Ticks_Linear_8,5,9999,9999,9999,1457914964
248,20,Ticks_Linear_8,6,9999,9999,9999,1458724940
248,20,Ticks_Linear_8,7,9999,9999,9999,1459534948
248,20,Ticks_Linear_8,8,9999,9999,9999,1460344932
248,20,Ticks_Linear_8,9,9999,9999,9999,1461154892
248,20,Ticks_Linear_8,10,9999,9999,9999,1461954616
248,20,Ticks_Linear_8,11,9999,9999,9999,1462754416
248,20,Ticks_Linear_8,12,9999,9999,9999,1463554140
248,20,Ticks_Linear_8,13,9999,9999,9999,1464354916
248,20,Ticks_Linear_8,14,9999,9999,9999,1465154660
248,20,Ticks_Linear_8,15,9999,9999,9999,1465944124
248,20,Ticks_Linear_8,16,9999,9999,9999,1466734708
248,20,Ticks_Linear_8,17,9999,9999,9999,1467524172
248,20,Ticks_Linear_8,18,9999,9999,9999,1468314688
248,20,Ticks_Linear_8,19,9999,9999,9999,1469104228
248,20,Ticks_Linear_8,20,9999,9999,9999,1469884480
248,20,Ticks_Linear_8,21,9999,9999,9999,1470664788
248,20,Ticks_Linear_8,22,9999,9999,9999,1471445112
248,20,Ticks_Linear_8,23,9999,9999,9999,1472224316
248,20,Ticks_Linear_8,24,9999,9999,9999,1473004644
248,20,Ticks_Linear_8,25,9999,9999,9999,1473774712
248,20,Ticks_Linear_8,26,9999,9999,9999,1474544712
248,20,Ticks_Linear_8,27,9999,9999,9999,1475314780
248,20,Ticks_Linear_8,28,9999,9999,9999,1476084840
248,20,Ticks_Linear_8,29,9999,9999,9999,1476854908
248,20,Ticks_Linear_8,30,9999,9999,9999,1477614648
248,20,Ticks_Linear_8,31,9999,9999,9999,1478374456
248,20,Ticks_Linear_8,32,9999,9999,9999,1479134264
248,20,Ticks_Linear_8,33,9999,9999,9999,1479894072
248,20,Ticks_Linear_8,34,9999,9999,9999,1480654928
248,20,Ticks_Linear_8,35,9999,9999,9999,1481404480
248,20,Ticks_Linear_8,36,9999,9999,9999,1482155076
248,20,Ticks_Linear_8,37,9999,9999,9999,1482914884
248,20,Ticks_Linear_8,38,9999,9999,9999,1483664508
248,20,Ticks_Linear_8,39,9999,9999,9999,1484415036
248,20,Ticks_Linear_8,40,9999,9999,9999,1485154404
248,20,Ticks_Linear_8,41,9999,9999,9999,1485894732
248,20,Ticks_Linear_8,42,9999,9999,9999,1486635120
248,20,Ticks_Linear_8,43,9999,9999,9999,1487384668
248,20,Ticks_Linear_8,44,9999,9999,9999,1488125008
248,20,Ticks_Linear_8,45,9999,9999,9999,1488854092
248,20,Ticks_Linear_8,46,9999,9999,9999,1489584220
248,20,Ticks_Linear_8,47,9999,9999,9999,1490314300
248,20,Ticks_Linear_8,48,9999,9999,9999,1491044456
248,20,Ticks_Linear_8,49,9999,9999,9999,1491774532
248,20,Ticks_Linear_8,50,9999,9999,9999,1492494400
248,20,Ticks_Linear_8,51,9999,9999,9999,1493214296
248,20,Ticks_Linear_8,52,9999,9999,9999,1493934188
248,20,Ticks_Linear_8,53,9999,9999,9999,1494655052
248,20,Ticks_Linear_8,54,9999,9999,9999,1495374948
248,20,Ticks_Linear_8,55,9999,9999,9999,1496084564
248,20,Ticks_Linear_8,56,9999,9999,9999,1496794192
248,20,Ticks_Linear_8,57,9999,9999,9999,1497504872
248,20,Ticks_Linear_8,58,9999,9999,9999,1498214508
248,20,Ticks_Linear_8,59,9999,9999,9999,1498924116
248,20,Ticks_Linear_8,60,9999,9999,9999,1499624540
248,20,Ticks_Linear_8,61,9999,9999,9999,1500324960
248,20,Ticks_Linear_8,62,9999,9999,9999,1501024336
248,20,Ticks_Linear_8,63,9999,9999,9999,1501724732
248,20,Ticks_Linear_8,64,9999,9999,9999,1502424192
248,20,Ticks_Linear_8,65,9999,9999,9999,1503114348
248,20,Ticks_Linear_8,66,9999,9999,9999,1503804508
248,20,Ticks_Linear_8,67,9999,9999,9999,1504494700
248,20,Ticks_Linear_8,68,9999,9999,9999,1505184864
248,20,Ticks_Linear_8,69,9999,9999,9999,1505875012
248,20,Ticks_Linear_8,70,9999,9999,9999,1506554940
248,20,Ticks_Linear_8,71,9999,9999,9999,1507234896
248,20,Ticks_Linear_8,72,9999,9999,9999,1507914876
248,20,Ticks_Linear_8,73,9999,9999,9999,1508594756
248,20,Ticks_Linear_8,74,9999,9999,9999,1509274712
248,20,Ticks_Linear_8,75,9999,9999,9999,1509944416
248,20,Ticks_Linear_8,76,9999,9999,9999,1510614136
248,20,Ticks_Linear_8,77,9999,9999,9999,1511284828
248,20,Ticks_Linear_8,78,9999,9999,9999,1511954520
248,20,Ticks_Linear_8,79,9999,9999,9999,1512624224
248,20,Ticks_Linear_8,80,9999,9999,9999,1513284704
248,20,Ticks_Linear_8,81,9999,9999,9999,1513944188
248,20,Ticks_Linear_8,82,9999,9999,9999,1514604620
248,20,Ticks_Linear_8,83,9999,9999,9999,1515264056
248,20,Ticks_Linear_8,84,9999,9999,9999,1515924540
248,20,Ticks_Linear_8,85,9999,9999,9999,1516574844
248,20,Ticks_Linear_8,86,9999,9999,9999,1517225088
248,20,Ticks_Linear_8,87,9999,9999,9999,1517874264
248,20,Ticks_Linear_8,88,9999,9999,9999,1518524512
248,20,Ticks_Linear_8,89,9999,9999,9999,1519174760
248,20,Ticks_Linear_8,90,9999,9999,9999,1519814732
248,20,Ticks_Linear_8,91,9999,9999,9999,1520454712
248,20,Ticks_Linear_8,92,9999,9999,9999,1521094748
248,20,Ticks_Linear_8,93,9999,9999,9999,1521734740
248,20,Ticks_Linear_8,94,9999,9999,9999,1522374712
248,20,Ticks_Linear_8,95,9999,9999,9999,1523004508
248,20,Ticks_Linear_8,96,9999,9999,9999,1523634288
248,20,Ticks_Linear_8,97,9999,9999,9999,1524265044
248,20,Ticks_Linear_8,98,9999,9999,9999,1524894772
248,20,Ticks_Linear_8,99,9999,9999,9999,1525524544
248,20,Ticks_Linear_8,100,9999,9999,9999,1526144096
248,20,Ticks_Linear_8,101,9999,9999,9999,1526764656
248,20,Ticks_Linear_8,102,9999,9999,9999,1527384128
248,20,Ticks_Linear_8,103,9999,9999,9999,1528004696
248,20,Ticks_Linear_8,104,9999,9999,9999,1528624216
248,20,Ticks_Linear_8,105,9999,9999,9999,1529234524
248,20,Ticks_Linear_8,106,9999,9999,9999,1529844812
248,20,Ticks_Linear_8,107,9999,9999,9999,1530454124
248,20,Ticks_Linear_8,108,9999,9999,9999,1531064404
248,20,Ticks_Linear_8,109,9999,9999,9999,1531674720
248,20,Ticks_Linear_8,110,9999,9999,9999,1532274792
248,20,Ticks_Linear_8,111,9999,9999,9999,1532874836
248,20,Ticks_Linear_8,112,9999,9999,9999,1533474884
248,20,Ticks_Linear_8,113,9999,9999,9999,1534074956
248,20,Ticks_Linear_8,114,9999,9999,9999,1534675004
248,20,Ticks_Linear_8,115,9999,9999,9999,1535264856
248,20,Ticks_Linear_8,116,9999,9999,9999,1535854680
248,20,Ticks_Linear_8,117,9999,9999,9999,1536444504
248,20,Ticks_Linear_8,118,9999,9999,9999,1537034292
248,20,Ticks_Linear_8,119,9999,9999,9999,1537624184
248,20,Ticks_Linear_8,120,9999,9999,9999,1538204760
248,20,Ticks_Linear_8,121,9999,9999,9999,1538784344
248,20,Ticks_Linear_8,122,9999,9999,9999,1539364920
248,20,Ticks_Linear_8,123,9999,9999,9999,1539944552
248,20,Ticks_Linear_8,124,9999,9999,9999,1540524088
248,20,Ticks_Linear_8,125,9999,9999,9999,1541094480
248,20,Ticks_Linear_8,126,9999,9999,9999,1541664868
248,20,Ticks_Linear_8,127,9999,9999,9999,1542234236
248,20,Ticks_Linear_8,128,9999,9999,9999,1542804556
248,20,Ticks_Linear_8,129,9999,9999,9999,1543374948
248,20,Ticks_Linear_8,130,9999,9999,9999,1543935088
248,20,Ticks_Linear_8,131,9999,9999,9999,1544494176
248,20,Ticks_Linear_8,132,9999,9999,9999,1545054332
248,20,Ticks_Linear_8,133,9999,9999,9999,1545614392
248,20,Ticks_Linear_8,134,9999,9999,9999,1546174524
248,20,Ticks_Linear_8,135,9999,9999,9999,1546724476
248,20,Ticks_Linear_8,136,9999,9999,9999,1547274352
248,20,Ticks_Linear_8,137,9999,9999,9999,1547824220
248,20,Ticks_Linear_8,138,9999,9999,9999,1548374116
248,20,Ticks_Linear_8,139,9999,9999,9999,1548925036
248,20,Ticks_Linear_8,140,9999,9999,9999,1549464632
248,20,Ticks_Linear_8,141,9999,9999,9999,1550004328
248,20,Ticks_Linear_8,142,9999,9999,9999,1550544984
248,20,Ticks_Linear_8,143,9999,9999,9999,1551084600
248,20,Ticks_Linear_8,144,9999,9999,9999,1551624296
248,20,Ticks_Linear_8,145,9999,9999,9999,1552154744
248,20,Ticks_Linear_8,146,9999,9999,9999,1552684100
248,20,Ticks_Linear_8,147,9999,9999,9999,1553214528
248,20,Ticks_Linear_8,148,9999,9999,9999,1553745012
248,20,Ticks_Linear_8,149,9999,9999,9999,1554274368
248,20,Ticks_Linear_8,150,9999,9999,9999,1554794584
248,20,Ticks_Linear_8,151,9999,9999,9999,1555314808
248,20,Ticks_Linear_8,152,9999,9999,9999,1555834944
248,20,Ticks_Linear_8,153,9999,9999,9999,1556354116
248,20,Ticks_Linear_8,154,9999,9999,9999,1556874340
248,20,Ticks_Linear_8,155,9999,9999,9999,1557384300
248,20,Ticks_Linear_8,156,9999,9999,9999,1557894264
248,20,Ticks_Linear_8,157,9999,9999,9999,1558404216
248,20,Ticks_Linear_8,158,9999,9999,9999,1558914100
248,20,Ticks_Linear_8,159,9999,9999,9999,1559424060
248,20,Ticks_Linear_8,160,9999,9999,9999,1559924808
248,20,Ticks_Linear_8,161,9999,9999,9999,1560424516
248,20,Ticks_Linear_8,162,9999,9999,9999,1560924284
248,20,Ticks_Linear_8,163,9999,9999,9999,1561424956
248,20,Ticks_Linear_8,164,9999,9999,9999,1561924728
248,20,Ticks_Linear_8,165,9999,9999,9999,1562414152
248,20,Ticks_Linear_8,166,9999,9999,9999,1562904644
248,20,Ticks_Linear_8,167,9999,9999,9999,1563394160
248,20,Ticks_Linear_8,168,9999,9999,9999,1563884640
248,20,Ticks_Linear_8,169,9999,9999,9999,1564374080
249,23,Ticks_Phase_5,0,5,42,127,1581543748
249,23,Ticks_Phase_5,1,5,42,127,1582043456
249,23,Ticks_Phase_5,2,1,48,16,1582084396
249,23,Ticks_Phase_5,3,1,38,13,1582096432
249,23,Ticks_Phase_5,4,5,42,127,1582544440
249,23,Ticks_Phase_5,5,1,48,56,1582592872
249,23,Ticks_Phase_5,6,5,42,127,1583044056
249,23,Ticks_Phase_5,7,1,48,61,1583051288
249,23,Ticks_Phase_5,8,5,42,127,1583543596
249,23,Ticks_Phase_5,9,1,48,60,1583548356
249,23,Ticks_Phase_5,10,1,48,57,1584043732
249,23,Ticks_Phase_5,11,5,42,127,1584045372
249,23,Ticks_Phase_5,12,1,48,56,1584525936
249,23,Ticks_Phase_5,13,5,42,127,1584544160
249,23,Ticks_Phase_5,14,1,48,57,1585027272
249,23,Ticks_Phase_5,15,5,42,127,1585043776
249,23,Ticks_Phase_5,16,1,48,18,1585532204
249,23,Ticks_Phase_5,17,5,42,127,1585543536
249,23,Ticks_Phase_5,18,1,48,61,1585991216
249,23,Ticks_Phase_5,19,5,42,127,1586044348
249,23,Ticks_Phase_5,20,1,48,29,1586062512
249,23,Ticks_Phase_5,21,5,42,127,1586543944
249,23,Ticks_Phase_5,22,1,48,56,1586546992
249,23,Ticks_Phase_5,23,1,48,59,1587017684
249,23,Ticks_Phase_5,24,5,42,127,1587043776
249,23,Ticks_Phase_5,25,1,48,58,1587500496
249,23,Ticks_Phase_5,26,5,42,127,1587544288
249,23,Ticks_Phase_5,27,1,48,60,1588006476
249,23,Ticks_Phase_5,28,5,42,127,1588054384
249,23,Ticks_Phase_5,29,1,48,57,1588530672
249,23,Ticks_Phase_5,30,5,42,127,1588554296
249,23,Ticks_Phase_5,31,1,48,57,1589035508
249,23,Ticks_Phase_5,32,5,42,127,1589053908
249,23,Ticks_Phase_5,33,1,48,54,1589545012
249,23,Ticks_Phase_5,34,5,42,127,1589553448
249,23,Ticks_Phase_5,35,1,48,56,1590026872
249,23,Ticks_Phase_5,36,5,42,127,1590054308
249,23,Ticks_Phase_5,37,5,42,127,1590553928
249,23,Ticks_Phase_5,38,1,48,55,1590570744
249,23,Ticks_Phase_5,39,5,42,127,1591053544
249,23,Ticks_Phase_5,40,1,48,56,1591057708
249,23,Ticks_Phase_5,41,5,42,127,1591554500
249,23,Ticks_Phase_5,42,1,48,51,1591566612
249,23,Ticks_Phase_5,43,1,48,53,1592045464
249,23,Ticks_Phase_5,44,5,42,127,1592064588
249,23,Ticks_Phase_5,45,1,48,56,1592548524
249,23,Ticks_Phase_5,46,5,42,127,1592564056
249,23,Ticks_Phase_5,47,5,42,127,1593063748
249,23,Ticks_Phase_5,48,1,48,50,1593075856
249,23,Ticks_Phase_5,49,1,48,64,1593553220
249,23,Ticks_Phase_5,50,5,42,127,1593563356
249,23,Ticks_Phase_5,51,1,48,51,1594040616
249,23,Ticks_Phase_5,52,5,42,127,1594064164
249,23,Ticks_Phase_5,53,5,42,127,1594563936
249,23,Ticks_Phase_5,54,1,48,59,1594568620
249,23,Ticks_Phase_5,55,1,48,51,1595044120
249,23,Ticks_Phase_5,56,5,42,127,1595063764
249,23,Ticks_Phase_5,57,1,48,58,1595563076
249,23,Ticks_Phase_5,58,5,42,127,1595564796
249,23,Ticks_Phase_5,59,1,48,31,1596032264
249,23,Ticks_Phase_5,60,5,42,127,1596064040
249,23,Ticks_Phase_5,61,5,42,127,1596553700
249,23,Ticks_Phase_5,62,1,48,55,1596556824
249,23,Ticks_Phase_5,63,1,48,59,1597036808
249,23,Ticks_Phase_5,64,5,42,127,1597054208
249,23,Ticks_Phase_5,65,1,48,59,1597546076
249,23,Ticks_Phase_5,66,5,42,127,1597554048
249,23,Ticks_Phase_5,67,1,48,56,1598032664
249,23,Ticks_Phase_5,68,5,42,127,1598053808
249,23,Ticks_Phase_5,69,1,48,49,1598535492
249,23,Ticks_Phase_5,70,5,42,127,1598553496
249,23,Ticks_Phase_5,71,1,48,60,1599051648
249,23,Ticks_Phase_5,72,5,42,127,1599054232
249,23,Ticks_Phase_5,73,1,48,32,1599112236
249,23,Ticks_Phase_5,74,1,48,47,1599531164
249,23,Ticks_Phase_5,75,5,42,127,1599554048
249,23,Ticks_Phase_5,76,1,48,57,1600029716
249,23,Ticks_Phase_5,77,5,42,127,1600053588
249,23,Ticks_Phase_5,78,5,42,127,1600554376
249,23,Ticks_Phase_5,79,1,48,48,1600563220
249,23,Ticks_Phase_5,80,5,42,127,1601053992
249,23,Ticks_Phase_5,81,1,48,52,1601074436
249,23,Ticks_Phase_5,82,1,48,57,1601549968
249,23,Ticks_Phase_5,83,5,42,127,1601553672
249,23,Ticks_Phase_5,84,1,48,24,1601627720
249,23,Ticks_Phase_5,85,1,48,45,1602036912
249,23,Ticks_Phase_5,86,5,42,127,1602053564
249,23,Ticks_Phase_5,87,5,42,127,1602554376
249,23,Ticks_Phase_5,88,1,48,47,1602569776
249,23,Ticks_Phase_5,89,1,48,24,1602635012
249,23,Ticks_Phase_5,90,1,48,53,1603042556
249,23,Ticks_Phase_5,91,5,42,127,1603053888
249,23,Ticks_Phase_5,92,5,42,127,1603553584
249,23,Ticks_Phase_5,93,1,48,47,1603557372
249,23,Ticks_Phase_5,94,5,42,127,1604054540
249,23,Ticks_Phase_5,95,1,48,51,1604055876
249,23,Ticks_Phase_5,96,5,42,127,1604554080
249,23,Ticks_Phase_5,97,1,48,54,1604555044
249,23,Ticks_Phase_5,98,5,42,127,1605053768
249,23,Ticks_Phase_5,99,1,48,54,1605065496
249,23,Ticks_Phase_5,100,1,48,59,1605558060
249,23,Ticks_Phase_5,101,5,42,127,1605563712
249,23,Ticks_Phase_5,102,1,48,56,1606056776
249,23,Ticks_Phase_5,103,5,42,127,1606063400
249,23,Ticks_Phase_5,104,1,48,61,1606563540
249,23,Ticks_Phase_5,105,5,42,127,1606565256
249,23,Ticks_Phase_5,106,5,42,127,1607063908
249,23,Ticks_Phase_5,107,1,48,57,1607072348
249,23,Ticks_Phase_5,108,1,48,51,1607544536
249,23,Ticks_Phase_5,109,5,42,127,1607563588
249,23,Ticks_Phase_5,110,5,42,127,1608064480
249,23,Ticks_Phase_5,111,1,48,55,1608065668
249,23,Ticks_Phase_5,112,5,42,127,1608564244
249,23,Ticks_Phase_5,113,1,48,48,1608568864
249,23,Ticks_Phase_5,114,1,48,54,1609057380
249,23,Ticks_Phase_5,115,5,42,127,1609063924
249,23,Ticks_Phase_5,116,5,42,127,1609563468
249,23,Ticks_Phase_5,117,1,48,49,1609575124
249,23,Ticks_Phase_5,118,1,48,51,1610048068
249,23,Ticks_Phase_5,119,5,42,127,1610064348
249,23,Ticks_Phase_5,120,5,42,127,1610564040
249,23,Ticks_Phase_5,121,1,48,56,1610595620
249,23,Ticks_Phase_5,122,5,42,127,1611063656
249,23,Ticks_Phase_5,123,1,48,51,1611075988
249,23,Ticks_Phase_5,124,5,42,127,1611564364
249,23,Ticks_Phase_5,125,1,48,56,1611573408
249,23,Ticks_Phase_5,126,5,42,127,1612064104
249,23,Ticks_Phase_5,127,1,48,57,1612067296
249,23,Ticks_Phase_5,128,5,42,127,1612564312
249,23,Ticks_Phase_5,129,1,48,53,1612569608
249,23,Ticks_Phase_5,130,1,48,50,1613051980
249,23,Ticks_Phase_5,131,5,42,127,1613063476
249,23,Ticks_Phase_5,132,5,42,127,1613583912
249,23,Ticks_Phase_5,133,1,48,53,1613617836
249,23,Ticks_Phase_5,134,1,48,54,1614080788
249,23,Ticks_Phase_5,135,5,42,127,1614083372
249,23,Ticks_Phase_5,136,1,48,61,1614575164
249,23,Ticks_Phase_5,137,5,42,127,1614584180
249,23,Ticks_Phase_5,138,1,48,54,1615084096
249,23,Ticks_Phase_5,139,5,42,127,1615085812
249,23,Ticks_Phase_5,140,5,42,127,1615583564
249,23,Ticks_Phase_5,141,1,48,54,1615589896
249,23,Ticks_Phase_5,142,5,42,127,1616084296
249,23,Ticks_Phase_5,143,1,48,54,1616109056
249,23,Ticks_Phase_5,144,1,48,53,1616555640
249,23,Ticks_Phase_5,145,5,42,127,1616584052
249,23,Ticks_Phase_5,146,1,48,54,1617082616
249,23,Ticks_Phase_5,147,5,42,127,1617084408
249,23,Ticks_Phase_5,148,5,42,127,1617583584
249,23,Ticks_Phase_5,149,1,48,55,1617605656
249,23,Ticks_Phase_5,150,5,42,127,1618084172
249,23,Ticks_Phase_5,151,1,48,50,1618086836
249,23,Ticks_Phase_5,152,5,42,127,1618584008
249,23,Ticks_Phase_5,153,1,48,53,1618591856
249,23,Ticks_Phase_5,154,1,48,51,1619071596
249,23,Ticks_Phase_5,155,5,42,127,1619083692
249,23,Ticks_Phase_5,156,5,42,127,1619584360
249,23,Ticks_Phase_5,157,1,48,51,1619611664
249,23,Ticks_Phase_5,158,5,42,127,1620083972
249,23,Ticks_Phase_5,159,1,48,46,1620128648
249,23,Ticks_Phase_5,160,5,42,127,1620583736
249,23,Ticks_Phase_5,161,1,48,52,1620589772
249,23,Ticks_Phase_5,162,1,48,49,1621052012
249,23,Ticks_Phase_5,163,5,42,127,1621083716
249,23,Ticks_Phase_5,164,5,42,127,1621584160
249,23,Ticks_Phase_5,165,1,48,51,1621618732
249,23,Ticks_Phase_5,166,5,42,127,1622063628
249,23,Ticks_Phase_5,167,1,48,50,1622125612
249,23,Ticks_Phase_5,168,5,42,127,1622564188
249,23,Ticks_Phase_5,169,1,48,46,1622610316
249,23,Ticks_Phase_5,170,5,42,127,1623063804
249,23,Ticks_Phase_5,171,1,48,40,1623099524
249,23,Ticks_Phase_5,172,5,42,127,1623563564
249,23,Ticks_Phase_5,173,1,48,52,1623573580
249,23,Ticks_Phase_5,174,1,48,52,1624062180
249,23,Ticks_Phase_5,175,5,42,127,1624064668
249,23,Ticks_Phase_5,176,1,48,57,1624553172
249,23,Ticks_Phase_5,177,5,42,127,1624564208
249,23,Ticks_Phase_5,178,1,48,48,1625056752
249,23,Ticks_Phase_5,179,5,42,127,1625063820
249,23,Ticks_Phase_5,180,1,48,55,1625537488
249,23,Ticks_Phase_5,181,5,42,127,1625563432
249,23,Ticks_Phase_5,182,5,42,127,1626064324
249,23,Ticks_Phase_5,183,1,48,63,1626065736
249,23,Ticks_Phase_5,184,5,42,127,1626563936
249,23,Ticks_Phase_5,185,1,48,54,1626564904
249,23,Ticks_Phase_5,186,1,48,48,1627018880
249,23,Ticks_Phase_5,187,5,42,127,1627063544
249,23,Ticks_Phase_5,188,5,42,127,1627564360
249,23,Ticks_Phase_5,189,1,48,52,1627597140
249,23,Ticks_Phase_5,190,5,42,127,1628064200
249,23,Ticks_Phase_5,191,1,48,59,1628096976
249,23,Ticks_Phase_5,192,5,42,127,1628563740
249,23,Ticks_Phase_5,193,1,48,48,1628573752
249,23,Ticks_Phase_5,194,5,42,127,1629063500
249,23,Ticks_Phase_5,195,1,48,59,1629085792
249,23,Ticks_Phase_5,196,5,42,127,1629564312
249,23,Ticks_Phase_5,197,1,48,59,1629580756
249,23,Ticks_Phase_5,198,5,42,127,1630013756
249,23,Ticks_Phase_5,199,1,48,61,1630072296
249,23,Ticks_Phase_5,200,5,42,127,1630513516
249,23,Ticks_Phase_5,201,1,48,52,1630554004
249,23,Ticks_Phase_5,202,1,48,52,1630985956
249,23,Ticks_Phase_5,203,5,42,127,1631014368
249,23,Ticks_Phase_5,204,1,48,27,1631048804
249,23,Ticks_Phase_5,205,1,48,56,1631485252
249,23,Ticks_Phase_5,206,5,42,127,1631514036
249,23,Ticks_Phase_5,207,1,48,51,1631985384
249,23,Ticks_Phase_5,208,5,42,127,1632013648
249,23,Ticks_Phase_5,209,5,42,127,1632514464
249,23,Ticks_Phase_5,210,1,48,52,1632515952
249,23,Ticks_Phase_5,211,1,48,62,1632992780
249,23,Ticks_Phase_5,212,5,42,127,1633024332
249,23,Ticks_Phase_5,213,1,48,57,1633500396
249,23,Ticks_Phase_5,214,5,42,127,1633524096
249,23,Ticks_Phase_5,215,1,48,55,1634004656
249,23,Ticks_Phase_5,216,5,42,127,1634023856
249,23,Ticks_Phase_5,217,1,48,56,1634513332
249,23,Ticks_Phase_5,218,5,42,127,1634523396
249,23,Ticks_Phase_5,219,1,48,58,1634999232
249,23,Ticks_Phase_5,220,5,42,127,1635024132
249,23,Ticks_Phase_5,221,1,48,56,1635491208
249,23,Ticks_Phase_5,222,5,42,127,1635524040
249,23,Ticks_Phase_5,223,1,48,49,1636001676
249,23,Ticks_Phase_5,224,5,42,127,1636023952
249,23,Ticks_Phase_5,225,1,48,50,1636512532
249,23,Ticks_Phase_5,226,5,42,127,1636524392
249,23,Ticks_Phase_5,227,1,48,42,1637000604
249,23,Ticks_Phase_5,228,5,42,127,1637024152
249,23,Ticks_Phase_5,229,1,48,52,1637493560
249,23,Ticks_Phase_5,230,5,42,127,1637523768
249,23,Ticks_Phase_5,231,1,48,47,1637980512
249,23,Ticks_Phase_5,232,5,42,127,1638023680
249,23,Ticks_Phase_5,233,1,48,54,1638455640
249,23,Ticks_Phase_5,234,1,48,28,1638509612
249,23,Ticks_Phase_5,235,5,42,127,1638573520
249,23,Ticks_Phase_5,236,5,42,127,1639074192
249,23,Ticks_Phase_5,237,1,48,53,1639121708
249,23,Ticks_Phase_5,238,5,42,127,1639573952
249,23,Ticks_Phase_5,239,1,48,51,1639597220
249,23,Ticks_Phase_5,240,5,42,127,1640073640
249,23,Ticks_Phase_5,241,1,48,49,1640087244
249,23,Ticks_Phase_5,242,5,42,127,1640574376
249,23,Ticks_Phase_5,243,1,48,52,1640588504
249,23,Ticks_Phase_5,244,5,42,127,1641073916
249,23,Ticks_Phase_5,245,1,48,56,1641088044
249,23,Ticks_Phase_5,246,5,42,127,1641573604
249,23,Ticks_Phase_5,247,1,48,53,1641595220
249,23,Ticks_Phase_5,248,5,42,127,1642073812
249,23,Ticks_Phase_5,249,1,48,54,1642079404
249,23,Ticks_Phase_5,250,1,48,40,1642553248
249,23,Ticks_Phase_5,251,5,42,127,1642574096
249,23,Ticks_Phase_5,252,1,48,56,1643063944
249,23,Ticks_Phase_5,253,5,42,127,1643073860
249,23,Ticks_Phase_5,254,1,48,51,1643556564
249,23,Ticks_Phase_5,255,5,42,127,1643573620
249,23,Ticks_Phase_5,256,1,48,35,1643602268
249,23,Ticks_Phase_5,257,1,48,56,1644036168
249,23,Ticks_Phase_5,258,5,42,127,1644074632
249,23,Ticks_Phase_5,259,1,48,52,1644549480
249,23,Ticks_Phase_5,260,5,42,127,1644574148
249,23,Ticks_Phase_5,261,1,48,57,1645053968
249,23,Ticks_Phase_5,262,5,42,127,1645073908
249,23,Ticks_Phase_5,263,5,42,127,1645573532
249,23,Ticks_Phase_5,264,1,48,52,1645574572
249,23,Ticks_Phase_5,265,1,48,57,1646047572
249,23,Ticks_Phase_5,266,5,42,127,1646074332
249,23,Ticks_Phase_5,267,1,48,51,1646565304
249,23,Ticks_Phase_5,268,5,42,127,1646573800
249,23,Ticks_Phase_5,269,1,48,51,1647059596
249,23,Ticks_Phase_5,270,5,42,127,1647174144
249,23,Ticks_Phase_5,271,5,42,127,1647673704
249,23,Ticks_Phase_5,272,1,48,58,1647822708
249,23,Ticks_Phase_5,273,5,42,127,1648173392
249,23,Ticks_Phase_5,274,1,48,48,1648245628
249,23,Ticks_Phase_5,275,5,42,127,1648674176
249,23,Ticks_Phase_5,276,1,48,52,1648707500
249,23,Ticks_Phase_5,277,5,42,127,1649174012
249,23,Ticks_Phase_5,278,1,48,43,1649177584
249,23,Ticks_Phase_5,279,5,42,127,1649673480
249,23,Ticks_Phase_5,280,1,48,55,1649689324
249,23,Ticks_Phase_5,281,5,42,127,1650174364
249,23,Ticks_Phase_5,282,1,48,55,1650182360
249,23,Ticks_Phase_5,283,5,42,127,1650674200
249,23,Ticks_Phase_5,284,1,48,53,1650677320
249,23,Ticks_Phase_5,285,5,42,127,1651173740
249,23,Ticks_Phase_5,286,1,48,56,1651185248
249,23,Ticks_Phase_5,287,5,42,127,1651673576
249,23,Ticks_Phase_5,288,1,48,56,1651682168
249,23,Ticks_Phase_5,289,5,42,127,1652174088
249,23,Ticks_Phase_5,290,1,48,52,1652178628
249,23,Ticks_Phase_5,291,1,48,39,1652651280
249,23,Ticks_Phase_5,292,5,42,127,1652673992
249,23,Ticks_Phase_5,293,1,48,56,1653127668
249,23,Ticks_Phase_5,294,5,42,127,1653173828
249,23,Ticks_Phase_5,295,1,48,57,1653654548
249,23,Ticks_Phase_5,296,5,42,127,1653674416
249,23,Ticks_Phase_5,297,1,48,33,1653709792
249,23,Ticks_Phase_5,298,1,48,59,1654154060
249,23,Ticks_Phase_5,299,5,42,127,1654174232
249,23,Ticks_Phase_5,300,1,48,58,1654650296
249,23,Ticks_Phase_5,301,5,42,127,1654673916
249,23,Ticks_Phase_5,302,1,48,59,1655143776
249,23,Ticks_Phase_5,303,5,42,127,1655173384
249,23,Ticks_Phase_5,304,1,48,55,1655623696
249,23,Ticks_Phase_5,305,5,42,127,1655674268
249,23,Ticks_Phase_5,306,1,48,55,1656149360
249,23,Ticks_Phase_5,307,5,42,127,1656173880
249,23,Ticks_Phase_5,308,5,42,127,1656574180
249,23,Ticks_Phase_5,309,1,48,56,1656681184
249,23,Ticks_Phase_5,310,1,48,56,1657003960
249,23,Ticks_Phase_5,311,5,42,127,1657074008
249,23,Ticks_Phase_5,312,1,48,43,1657479232
249,23,Ticks_Phase_5,313,5,42,127,1657573920
249,23,Ticks_Phase_5,314,1,48,48,1657972936
249,23,Ticks_Phase_5,315,5,42,127,1658073368
249,23,Ticks_Phase_5,316,1,48,51,1658543012
249,23,Ticks_Phase_5,317,5,42,127,1658574268
249,23,Ticks_Phase_5,318,1,48,35,1658585908
249,23,Ticks_Phase_5,319,5,42,127,1659073944
249,23,Ticks_Phase_5,320,1,48,47,1659079756
249,23,Ticks_Phase_5,321,1,48,52,1659555468
249,23,Ticks_Phase_5,322,5,42,127,1659573548
249,23,Ticks_Phase_5,323,1,48,48,1660040552
249,23,Ticks_Phase_5,324,5,42,127,1660074360
249,23,Ticks_Phase_5,325,1,48,54,1660528936
249,23,Ticks_Phase_5,326,5,42,127,1660574124
249,23,Ticks_Phase_5,327,1,48,50,1661052072
249,23,Ticks_Phase_5,328,5,42,127,1661073884
249,23,Ticks_Phase_5,329,1,48,51,1661560728
249,23,Ticks_Phase_5,330,5,42,127,1661573572
249,23,Ticks_Phase_5,331,1,48,50,1662034144
249,23,Ticks_Phase_5,332,5,42,127,1662074308
249,23,Ticks_Phase_5,333,1,48,55,1662558540
249,23,Ticks_Phase_5,334,5,42,127,1662573924
249,23,Ticks_Phase_5,335,1,48,60,1663036892
249,23,Ticks_Phase_5,336,5,42,127,1663073616
249,23,Ticks_Phase_5,337,1,48,56,1663558892
249,23,Ticks_Phase_5,338,5,42,127,1663574348
249,23,Ticks_Phase_5,339,1,48,35,1663619760
249,23,Ticks_Phase_5,340,5,42,127,1664074024
249,23,Ticks_Phase_5,341,1,48,55,1664086428
249,23,Ticks_Phase_5,342,1,48,57,1664566860
249,23,Ticks_Phase_5,343,5,42,127,1664573852
249,23,Ticks_Phase_5,344,1,48,61,1665065644
249,23,Ticks_Phase_5,345,5,42,127,1665073464
249,23,Ticks_Phase_5,346,1,48,55,1665555124
249,23,Ticks_Phase_5,347,5,42,127,1665574248
249,23,Ticks_Phase_5,348,1,48,57,1666043212
249,23,Ticks_Phase_5,349,5,42,127,1666073864
249,23,Ticks_Phase_5,0,9999,9999,9999,1581541460
249,23,Ticks_Phase_5,1,9999,9999,9999,1582041168
249,23,Ticks_Phase_5,2,9999,9999,9999,1582541932
249,23,Ticks_Phase_5,3,9999,9999,9999,1583041620
249,23,Ticks_Phase_5,4,9999,9999,9999,1583541308
249,23,Ticks_Phase_5,5,9999,9999,9999,1584042044
249,23,Ticks_Phase_5,6,9999,9999,9999,1584541800
249,23,Ticks_Phase_5,7,9999,9999,9999,1585041488
249,23,Ticks_Phase_5,8,9999,9999,9999,1585541176
249,23,Ticks_Phase_5,9,9999,9999,9999,1586041912
249,23,Ticks_Phase_5,10,9999,9999,9999,1586541660
249,23,Ticks_Phase_5,11,9999,9999,9999,1587041344
249,23,Ticks_Phase_5,12,9999,9999,9999,1587542076
249,23,Ticks_Phase_5,13,9999,9999,9999,1588052024
249,23,Ticks_Phase_5,14,9999,9999,9999,1588551788
249,23,Ticks_Phase_5,15,9999,9999,9999,1589051476
249,23,Ticks_Phase_5,16,9999,9999,9999,1589551164
249,23,Ticks_Phase_5,17,9999,9999,9999,1590051948
249,23,Ticks_Phase_5,18,9999,9999,9999,1590551640
249,23,Ticks_Phase_5,19,9999,9999,9999,1591051328
249,23,Ticks_Phase_5,20,9999,9999,9999,1591552064
249,23,Ticks_Phase_5,21,9999,9999,9999,1592062080
249,23,Ticks_Phase_5,22,9999,9999,9999,1592561768
249,23,Ticks_Phase_5,23,9999,9999,9999,1593061464
249,23,Ticks_Phase_5,24,9999,9999,9999,1593561144
249,23,Ticks_Phase_5,25,9999,9999,9999,1594061880
249,23,Ticks_Phase_5,26,9999,9999,9999,1594561648
249,23,Ticks_Phase_5,27,9999,9999,9999,1595061328
249,23,Ticks_Phase_5,28,9999,9999,9999,1595562068
249,23,Ticks_Phase_5,29,9999,9999,9999,1596061752
249,23,Ticks_Phase_5,30,9999,9999,9999,1596551264
249,23,Ticks_Phase_5,31,9999,9999,9999,1597051996
249,23,Ticks_Phase_5,32,9999,9999,9999,1597551684
249,23,Ticks_Phase_5,33,9999,9999,9999,1598051448
249,23,Ticks_Phase_5,34,9999,9999,9999,1598551136
249,23,Ticks_Phase_5,35,9999,9999,9999,1599051872
249,23,Ticks_Phase_5,36,9999,9999,9999,1599551612
249,23,Ticks_Phase_5,37,9999,9999,9999,1600051300
249,23,Ticks_Phase_5,38,9999,9999,9999,1600552016
249,23,Ticks_Phase_5,39,9999,9999,9999,1601051704
249,23,Ticks_Phase_5,40,9999,9999,9999,1601551460
249,23,Ticks_Phase_5,41,9999,9999,9999,1602051128
249,23,Ticks_Phase_5,42,9999,9999,9999,1602551868
249,23,Ticks_Phase_5,43,9999,9999,9999,1603051600
249,23,Ticks_Phase_5,44,9999,9999,9999,1603551296
249,23,Ticks_Phase_5,45,9999,9999,9999,1604052028
249,23,Ticks_Phase_5,46,9999,9999,9999,1604551792
249,23,Ticks_Phase_5,47,9999,9999,9999,1605051480
249,23,Ticks_Phase_5,48,9999,9999,9999,1605561424
249,23,Ticks_Phase_5,49,9999,9999,9999,1606061112
249,23,Ticks_Phase_5,50,9999,9999,9999,1606561856
249,23,Ticks_Phase_5,51,9999,9999,9999,1607061616
249,23,Ticks_Phase_5,52,9999,9999,9999,1607561300
249,23,Ticks_Phase_5,53,9999,9999,9999,1608062044
249,23,Ticks_Phase_5,54,9999,9999,9999,1608561732
249,23,Ticks_Phase_5,55,9999,9999,9999,1609061488
249,23,Ticks_Phase_5,56,9999,9999,9999,1609561184
249,23,Ticks_Phase_5,57,9999,9999,9999,1610061912
249,23,Ticks_Phase_5,58,9999,9999,9999,1610561604
249,23,Ticks_Phase_5,59,9999,9999,9999,1611061368
249,23,Ticks_Phase_5,60,9999,9999,9999,1611562076
249,23,Ticks_Phase_5,61,9999,9999,9999,1612061816
249,23,Ticks_Phase_5,62,9999,9999,9999,1612561504
249,23,Ticks_Phase_5,63,9999,9999,9999,1613061188
249,23,Ticks_Phase_5,64,9999,9999,9999,1613581400
249,23,Ticks_Phase_5,65,9999,9999,9999,1614081084
249,23,Ticks_Phase_5,66,9999,9999,9999,1614581820
249,23,Ticks_Phase_5,67,9999,9999,9999,1615081588
249,23,Ticks_Phase_5,68,9999,9999,9999,1615581276
249,23,Ticks_Phase_5,69,9999,9999,9999,1616082008
249,23,Ticks_Phase_5,70,9999,9999,9999,1616581692
249,23,Ticks_Phase_5,71,9999,9999,9999,1617081460
249,23,Ticks_Phase_5,72,9999,9999,9999,1617581148
249,23,Ticks_Phase_5,73,9999,9999,9999,1618081884
249,23,Ticks_Phase_5,74,9999,9999,9999,1618581572
249,23,Ticks_Phase_5,75,9999,9999,9999,1619081332
249,23,Ticks_Phase_5,76,9999,9999,9999,1619582072
249,23,Ticks_Phase_5,77,9999,9999,9999,1620081760
249,23,Ticks_Phase_5,78,9999,9999,9999,1620581448
249,23,Ticks_Phase_5,79,9999,9999,9999,1621081204
249,23,Ticks_Phase_5,80,9999,9999,9999,1621581944
249,23,Ticks_Phase_5,81,9999,9999,9999,1622061116
249,23,Ticks_Phase_5,82,9999,9999,9999,1622561904
249,23,Ticks_Phase_5,83,9999,9999,9999,1623061592
249,23,Ticks_Phase_5,84,9999,9999,9999,1623561280
249,23,Ticks_Phase_5,85,9999,9999,9999,1624062044
249,23,Ticks_Phase_5,86,9999,9999,9999,1624561772
249,23,Ticks_Phase_5,87,9999,9999,9999,1625061460
249,23,Ticks_Phase_5,88,9999,9999,9999,1625561148
249,23,Ticks_Phase_5,89,9999,9999,9999,1626061888
249,23,Ticks_Phase_5,90,9999,9999,9999,1626561652
249,23,Ticks_Phase_5,91,9999,9999,9999,1627061332
249,23,Ticks_Phase_5,92,9999,9999,9999,1627562072
249,23,Ticks_Phase_5,93,9999,9999,9999,1628061764
249,23,Ticks_Phase_5,94,9999,9999,9999,1628561528
249,23,Ticks_Phase_5,95,9999,9999,9999,1629061212
249,23,Ticks_Phase_5,96,9999,9999,9999,1629561948
249,23,Ticks_Phase_5,97,9999,9999,9999,1630011464
249,23,Ticks_Phase_5,98,9999,9999,9999,1630511228
249,23,Ticks_Phase_5,99,9999,9999,9999,1631011932
249,23,Ticks_Phase_5,100,9999,9999,9999,1631511672
249,23,Ticks_Phase_5,101,9999,9999,9999,1632011364
249,23,Ticks_Phase_5,102,9999,9999,9999,1632512104
249,23,Ticks_Phase_5,103,9999,9999,9999,1633022044
249,23,Ticks_Phase_5,104,9999,9999,9999,1633521732
249,23,Ticks_Phase_5,105,9999,9999,9999,1634021496
249,23,Ticks_Phase_5,106,9999,9999,9999,1634521184
249,23,Ticks_Phase_5,107,9999,9999,9999,1635021920
249,23,Ticks_Phase_5,108,9999,9999,9999,1635521608
249,23,Ticks_Phase_5,109,9999,9999,9999,1636021368
249,23,Ticks_Phase_5,110,9999,9999,9999,1636522104
249,23,Ticks_Phase_5,111,9999,9999,9999,1637021792
249,23,Ticks_Phase_5,112,9999,9999,9999,1637521480
249,23,Ticks_Phase_5,113,9999,9999,9999,1638021244
249,23,Ticks_Phase_5,114,9999,9999,9999,1638571084
249,23,Ticks_Phase_5,115,9999,9999,9999,1639071828
249,23,Ticks_Phase_5,116,9999,9999,9999,1639571516
249,23,Ticks_Phase_5,117,9999,9999,9999,1640071280
249,23,Ticks_Phase_5,118,9999,9999,9999,1640572016
249,23,Ticks_Phase_5,119,9999,9999,9999,1641071704
249,23,Ticks_Phase_5,120,9999,9999,9999,1641571392
249,23,Ticks_Phase_5,121,9999,9999,9999,1642071152
249,23,Ticks_Phase_5,122,9999,9999,9999,1642571884
249,23,Ticks_Phase_5,123,9999,9999,9999,1643071572
249,23,Ticks_Phase_5,124,9999,9999,9999,1643571260
249,23,Ticks_Phase_5,125,9999,9999,9999,1644072024
249,23,Ticks_Phase_5,126,9999,9999,9999,1644571712
249,23,Ticks_Phase_5,127,9999,9999,9999,1645071476
249,23,Ticks_Phase_5,128,9999,9999,9999,1645571168
249,23,Ticks_Phase_5,129,9999,9999,9999,1646071900
249,23,Ticks_Phase_5,130,9999,9999,9999,1646571584
249,23,Ticks_Phase_5,131,9999,9999,9999,1647171708
249,23,Ticks_Phase_5,132,9999,9999,9999,1647671416
249,23,Ticks_Phase_5,133,9999,9999,9999,1648171104
249,23,Ticks_Phase_5,134,9999,9999,9999,1648671816
249,23,Ticks_Phase_5,135,9999,9999,9999,1649171576
249,23,Ticks_Phase_5,136,9999,9999,9999,1649671268
249,23,Ticks_Phase_5,137,9999,9999,9999,1650172004
249,23,Ticks_Phase_5,138,9999,9999,9999,1650671692
249,23,Ticks_Phase_5,139,9999,9999,9999,1651171452
249,23,Ticks_Phase_5,140,9999,9999,9999,1651671140
249,23,Ticks_Phase_5,141,9999,9999,9999,1652171876
249,23,Ticks_Phase_5,142,9999,9999,9999,1652671556
249,23,Ticks_Phase_5,143,9999,9999,9999,1653171320
249,23,Ticks_Phase_5,144,9999,9999,9999,1653672056
249,23,Ticks_Phase_5,145,9999,9999,9999,1654171720
249,23,Ticks_Phase_5,146,9999,9999,9999,1654671484
249,23,Ticks_Phase_5,147,9999,9999,9999,1655171172
249,23,Ticks_Phase_5,148,9999,9999,9999,1655671908
249,23,Ticks_Phase_5,149,9999,9999,9999,1656171596
249,23,Ticks_Phase_5,150,9999,9999,9999,1656571964
249,23,Ticks_Phase_5,151,9999,9999,9999,1657071720
249,23,Ticks_Phase_5,152,9999,9999,9999,1657571408
249,23,Ticks_Phase_5,153,9999,9999,9999,1658071156
249,23,Ticks_Phase_5,154,9999,9999,9999,1658571832
249,23,Ticks_Phase_5,155,9999,9999,9999,1659071580
249,23,Ticks_Phase_5,156,9999,9999,9999,1659571260
249,23,Ticks_Phase_5,157,9999,9999,9999,1660071996
249,23,Ticks_Phase_5,158,9999,9999,9999,1660571760
249,23,Ticks_Phase_5,159,9999,9999,9999,1661071448
249,23,Ticks_Phase_5,160,9999,9999,9999,1661571136
249,23,Ticks_Phase_5,161,9999,9999,9999,1662071872
249,23,Ticks_Phase_5,162,9999,9999,9999,1662571636
249,23,Ticks_Phase_5,163,9999,9999,9999,1663071328
249,23,Ticks_Phase_5,164,9999,9999,9999,1663572060
249,23,Ticks_Phase_5,165,9999,9999,9999,1664071736
249,23,Ticks_Phase_5,166,9999,9999,9999,1664571492
249,23,Ticks_Phase_5,167,9999,9999,9999,1665071180
249,23,Ticks_Phase_5,168,9999,9999,9999,1665571964
249,23,Ticks_Phase_5,169,9999,9999,9999,1666071652
2410,22,Ticks_Phase_8,0,5,42,127,1679852976
2410,22,Ticks_Phase_8,1,1,48,50,1680267724
2410,22,Ticks_Phase_8,2,5,42,127,1680652984
2410,22,Ticks_Phase_8,3,1,48,52,1680962900
2410,22,Ticks_Phase_8,4,5,42,127,1681453620
2410,22,Ticks_Phase_8,5,1,48,63,1681693988
2410,22,Ticks_Phase_8,6,5,42,127,1682263516
2410,22,Ticks_Phase_8,7,1,48,64,1682392676
2410,22,Ticks_Phase_8,8,5,42,127,1683063300
2410,22,Ticks_Phase_8,9,1,48,62,1683102520
2410,22,Ticks_Phase_8,10,1,48,66,1683824484
2410,22,Ticks_Phase_8,11,5,42,127,1683862932
2410,22,Ticks_Phase_8,12,1,48,59,1684601512
2410,22,Ticks_Phase_8,13,5,42,127,1684662792
2410,22,Ticks_Phase_8,14,1,48,54,1685432224
2410,22,Ticks_Phase_8,15,5,42,127,1685463628
2410,22,Ticks_Phase_8,16,1,48,56,1686217552
2410,22,Ticks_Phase_8,17,5,42,127,1686263116
2410,22,Ticks_Phase_8,18,1,48,55,1687021068
2410,22,Ticks_Phase_8,19,5,42,127,1687063028
2410,22,Ticks_Phase_8,20,1,48,57,1687823992
2410,22,Ticks_Phase_8,21,5,42,127,1687862616
2410,22,Ticks_Phase_8,22,1,48,18,1687915820
2410,22,Ticks_Phase_8,23,1,48,58,1688658676
2410,22,Ticks_Phase_8,24,5,42,127,1688663500
2410,22,Ticks_Phase_8,25,1,48,55,1689459436
2410,22,Ticks_Phase_8,26,5,42,127,1689463212
2410,22,Ticks_Phase_8,27,1,48,51,1690239972
2410,22,Ticks_Phase_8,28,5,42,127,1690262776
2410,22,Ticks_Phase_8,29,1,48,48,1691046504
2410,22,Ticks_Phase_8,30,5,42,127,1691062488
2410,22,Ticks_Phase_8,31,1,48,46,1691809820
2410,22,Ticks_Phase_8,32,5,42,127,1691863324
2410,22,Ticks_Phase_8,33,1,48,56,1692650568
2410,22,Ticks_Phase_8,34,5,42,127,1692663332
2410,22,Ticks_Phase_8,35,1,48,51,1693437476
2410,22,Ticks_Phase_8,36,5,42,127,1693462820
2410,22,Ticks_Phase_8,37,5,42,127,1694262564
2410,22,Ticks_Phase_8,38,1,48,59,1694269724
2410,22,Ticks_Phase_8,39,1,48,56,1695030568
2410,22,Ticks_Phase_8,40,5,42,127,1695063540
2410,22,Ticks_Phase_8,41,1,48,55,1695788112
2410,22,Ticks_Phase_8,42,5,42,127,1695863252
2410,22,Ticks_Phase_8,43,1,48,55,1696593440
2410,22,Ticks_Phase_8,44,5,42,127,1696663036
2410,22,Ticks_Phase_8,45,1,48,57,1697405504
2410,22,Ticks_Phase_8,46,5,42,127,1697462676
2410,22,Ticks_Phase_8,47,5,42,127,1698263292
2410,22,Ticks_Phase_8,48,1,48,55,1698275320
2410,22,Ticks_Phase_8,49,5,42,127,1699063080
2410,22,Ticks_Phase_8,50,1,48,54,1699077804
2410,22,Ticks_Phase_8,51,1,48,44,1699862792
2410,22,Ticks_Phase_8,52,5,42,127,1699864352
2410,22,Ticks_Phase_8,53,5,42,127,1700662676
2410,22,Ticks_Phase_8,54,1,48,47,1700703316
2410,22,Ticks_Phase_8,55,1,48,55,1701436360
2410,22,Ticks_Phase_8,56,5,42,127,1701463352
2410,22,Ticks_Phase_8,57,5,42,127,1702263072
2410,22,Ticks_Phase_8,58,1,48,50,1702264036
2410,22,Ticks_Phase_8,59,1,48,47,1703037432
2410,22,Ticks_Phase_8,60,5,42,127,1703063076
2410,22,Ticks_Phase_8,61,5,42,127,1703843100
2410,22,Ticks_Phase_8,62,1,48,51,1703857824
2410,22,Ticks_Phase_8,63,1,48,52,1704629368
2410,22,Ticks_Phase_8,64,5,42,127,1704642952
2410,22,Ticks_Phase_8,65,5,42,127,1705442748
2410,22,Ticks_Phase_8,66,1,48,50,1705461744
2410,22,Ticks_Phase_8,67,1,48,44,1706170148
2410,22,Ticks_Phase_8,68,5,42,127,1706242672
2410,22,Ticks_Phase_8,69,1,48,58,1707007088
2410,22,Ticks_Phase_8,70,5,42,127,1707043064
2410,22,Ticks_Phase_8,71,1,48,52,1707839392
2410,22,Ticks_Phase_8,72,5,42,127,1707842948
2410,22,Ticks_Phase_8,73,1,48,49,1708587064
2410,22,Ticks_Phase_8,74,5,42,127,1708642588
2410,22,Ticks_Phase_8,75,1,48,51,1709410596
2410,22,Ticks_Phase_8,76,5,42,127,1709442820
2410,22,Ticks_Phase_8,77,1,48,48,1710183264
2410,22,Ticks_Phase_8,78,5,42,127,1710243128
2410,22,Ticks_Phase_8,79,1,48,47,1710992264
2410,22,Ticks_Phase_8,80,5,42,127,1711042916
2410,22,Ticks_Phase_8,81,1,48,45,1711786060
2410,22,Ticks_Phase_8,82,5,42,127,1711842704
2410,22,Ticks_Phase_8,83,1,48,48,1712632652
2410,22,Ticks_Phase_8,84,5,42,127,1712642340
2410,22,Ticks_Phase_8,85,1,48,48,1713413112
2410,22,Ticks_Phase_8,86,5,42,127,1713443324
2410,22,Ticks_Phase_8,87,1,48,50,1714178596
2410,22,Ticks_Phase_8,88,5,42,127,1714243208
2410,22,Ticks_Phase_8,89,1,48,50,1715033904
2410,22,Ticks_Phase_8,90,5,42,127,1715042624
2410,22,Ticks_Phase_8,91,1,48,54,1715815120
2410,22,Ticks_Phase_8,92,5,42,127,1715842484
2410,22,Ticks_Phase_8,93,5,42,127,1716643248
2410,22,Ticks_Phase_8,94,1,48,52,1716658648
2410,22,Ticks_Phase_8,95,1,48,37,1717419184
2410,22,Ticks_Phase_8,96,5,42,127,1717443180
2410,22,Ticks_Phase_8,97,1,48,59,1718262896
2410,22,Ticks_Phase_8,98,5,42,127,1718264456
2410,22,Ticks_Phase_8,99,5,42,127,1719062980
2410,22,Ticks_Phase_8,100,1,48,56,1719069688
2410,22,Ticks_Phase_8,101,1,48,57,1719837796
2410,22,Ticks_Phase_8,102,5,42,127,1719862636
2410,22,Ticks_Phase_8,103,1,48,61,1720618876
2410,22,Ticks_Phase_8,104,5,42,127,1720663320
2410,22,Ticks_Phase_8,105,1,48,57,1721404740
2410,22,Ticks_Phase_8,106,5,42,127,1721463180
2410,22,Ticks_Phase_8,107,1,48,50,1722223924
2410,22,Ticks_Phase_8,108,5,42,127,1722262820
2410,22,Ticks_Phase_8,109,1,48,49,1723043180
2410,22,Ticks_Phase_8,110,5,42,127,1723062900
2410,22,Ticks_Phase_8,111,1,48,48,1723847380
2410,22,Ticks_Phase_8,112,5,42,127,1723863288
2410,22,Ticks_Phase_8,113,1,48,50,1724628964
2410,22,Ticks_Phase_8,114,5,42,127,1724663148
2410,22,Ticks_Phase_8,115,1,48,54,1725438488
2410,22,Ticks_Phase_8,116,5,42,127,1725462860
2410,22,Ticks_Phase_8,117,1,48,51,1726252980
2410,22,Ticks_Phase_8,118,5,42,127,1726262744
2410,22,Ticks_Phase_8,119,1,48,57,1726998220
2410,22,Ticks_Phase_8,120,5,42,127,1727063576
2410,22,Ticks_Phase_8,121,1,48,46,1727809484
2410,22,Ticks_Phase_8,122,5,42,127,1727863068
2410,22,Ticks_Phase_8,123,1,48,56,1728627696
2410,22,Ticks_Phase_8,124,5,42,127,1728663000
2410,22,Ticks_Phase_8,125,1,48,55,1729432208
2410,22,Ticks_Phase_8,126,5,42,127,1729462492
2410,22,Ticks_Phase_8,127,1,48,55,1730200920
2410,22,Ticks_Phase_8,128,5,42,127,1730263476
2410,22,Ticks_Phase_8,129,1,48,56,1731063232
2410,22,Ticks_Phase_8,130,5,42,127,1731102952
2410,22,Ticks_Phase_8,131,1,48,53,1731849760
2410,22,Ticks_Phase_8,132,5,42,127,1731902764
2410,22,Ticks_Phase_8,133,1,48,46,1732630444
2410,22,Ticks_Phase_8,134,5,42,127,1732702548
2410,22,Ticks_Phase_8,135,1,48,53,1733471904
2410,22,Ticks_Phase_8,136,5,42,127,1733503308
2410,22,Ticks_Phase_8,137,1,48,51,1734226748
2410,22,Ticks_Phase_8,138,5,42,127,1734303168
2410,22,Ticks_Phase_8,139,1,48,60,1735031940
2410,22,Ticks_Phase_8,140,5,42,127,1735102808
2410,22,Ticks_Phase_8,141,1,48,57,1735886012
2410,22,Ticks_Phase_8,142,5,42,127,1735902444
2410,22,Ticks_Phase_8,143,5,42,127,1736703432
2410,22,Ticks_Phase_8,144,1,48,57,1736709692
2410,22,Ticks_Phase_8,145,1,48,52,1737475772
2410,22,Ticks_Phase_8,146,5,42,127,1737503212
2410,22,Ticks_Phase_8,147,1,48,57,1738285620
2410,22,Ticks_Phase_8,148,5,42,127,1738302724
2410,22,Ticks_Phase_8,149,1,48,51,1739096712
2410,22,Ticks_Phase_8,150,5,42,127,1739102512
2410,22,Ticks_Phase_8,151,5,42,127,1739903276
2410,22,Ticks_Phase_8,152,1,48,54,1739920856
2410,22,Ticks_Phase_8,153,5,42,127,1740703212
2410,22,Ticks_Phase_8,154,1,48,54,1740704176
2410,22,Ticks_Phase_8,155,5,42,127,1741503148
2410,22,Ticks_Phase_8,156,1,48,48,1741520716
2410,22,Ticks_Phase_8,157,1,48,50,1742256840
2410,22,Ticks_Phase_8,158,5,42,127,1742302556
2410,22,Ticks_Phase_8,159,1,48,57,1743027796
2410,22,Ticks_Phase_8,160,5,42,127,1743103316
2410,22,Ticks_Phase_8,161,1,48,57,1743835152
2410,22,Ticks_Phase_8,162,5,42,127,1743903028
2410,22,Ticks_Phase_8,163,5,42,127,1744662904
2410,22,Ticks_Phase_8,164,1,48,57,1744687764
2410,22,Ticks_Phase_8,165,1,48,57,1745441868
2410,22,Ticks_Phase_8,166,5,42,127,1745462784
2410,22,Ticks_Phase_8,167,5,42,127,1746263400
2410,22,Ticks_Phase_8,168,1,48,52,1746275056
2410,22,Ticks_Phase_8,169,1,48,50,1747054164
2410,22,Ticks_Phase_8,170,5,42,127,1747063104
2410,22,Ticks_Phase_8,171,5,42,127,1747862828
2410,22,Ticks_Phase_8,172,1,48,52,1747886012
2410,22,Ticks_Phase_8,173,5,42,127,1748662760
2410,22,Ticks_Phase_8,174,1,48,50,1748684304
2410,22,Ticks_Phase_8,175,5,42,127,1749463744
2410,22,Ticks_Phase_8,176,1,48,46,1749489176
2410,22,Ticks_Phase_8,177,5,42,127,1750263232
2410,22,Ticks_Phase_8,178,1,48,55,1750280960
2410,22,Ticks_Phase_8,179,5,42,127,1751062868
2410,22,Ticks_Phase_8,180,1,48,57,1751138500
2410,22,Ticks_Phase_8,181,5,42,127,1751862680
2410,22,Ticks_Phase_8,182,1,48,50,1751890504
2410,22,Ticks_Phase_8,183,1,48,57,1752646472
2410,22,Ticks_Phase_8,184,5,42,127,1752663356
2410,22,Ticks_Phase_8,185,1,48,59,1753433164
2410,22,Ticks_Phase_8,186,5,42,127,1753463364
2410,22,Ticks_Phase_8,187,5,42,127,1754262860
2410,22,Ticks_Phase_8,188,1,48,59,1754266880
2410,22,Ticks_Phase_8,189,1,48,57,1755058268
2410,22,Ticks_Phase_8,190,5,42,127,1755062492
2410,22,Ticks_Phase_8,191,1,48,61,1755850484
2410,22,Ticks_Phase_8,192,5,42,127,1755863324
2410,22,Ticks_Phase_8,193,1,48,57,1756648776
2410,22,Ticks_Phase_8,194,5,42,127,1756663408
2410,22,Ticks_Phase_8,195,5,42,127,1757383000
2410,22,Ticks_Phase_8,196,1,48,57,1757450296
2410,22,Ticks_Phase_8,197,5,42,127,1758182640
2410,22,Ticks_Phase_8,198,1,48,51,1758184652
2410,22,Ticks_Phase_8,199,5,42,127,1758982500
2410,22,Ticks_Phase_8,200,1,48,49,1758987116
2410,22,Ticks_Phase_8,201,1,48,59,1759729824
2410,22,Ticks_Phase_8,202,5,42,127,1759783276
2410,22,Ticks_Phase_8,203,1,48,52,1760493296
2410,22,Ticks_Phase_8,204,5,42,127,1760583136
2410,22,Ticks_Phase_8,205,1,48,61,1761367168
2410,22,Ticks_Phase_8,206,5,42,127,1761382624
2410,22,Ticks_Phase_8,207,1,48,57,1762177140
2410,22,Ticks_Phase_8,208,5,42,127,1762182488
2410,22,Ticks_Phase_8,209,1,48,55,1762926448
2410,22,Ticks_Phase_8,210,5,42,127,1762983244
2410,22,Ticks_Phase_8,211,1,48,48,1763731860
2410,22,Ticks_Phase_8,212,5,42,127,1763783108
2410,22,Ticks_Phase_8,213,5,42,127,1764583048
2410,22,Ticks_Phase_8,214,1,48,49,1764594932
2410,22,Ticks_Phase_8,215,5,42,127,1765382388
2410,22,Ticks_Phase_8,216,1,48,51,1765423128
2410,22,Ticks_Phase_8,217,5,42,127,1766183244
2410,22,Ticks_Phase_8,218,1,48,55,1766263352
2410,22,Ticks_Phase_8,219,5,42,127,1766983104
2410,22,Ticks_Phase_8,220,1,48,53,1766995288
2410,22,Ticks_Phase_8,221,5,42,127,1767782668
2410,22,Ticks_Phase_8,222,1,48,53,1767811108
2410,22,Ticks_Phase_8,223,5,42,127,1768582528
2410,22,Ticks_Phase_8,224,1,48,49,1768592916
2410,22,Ticks_Phase_8,225,1,48,32,1768652504
2410,22,Ticks_Phase_8,226,5,42,127,1769383268
2410,22,Ticks_Phase_8,227,1,48,56,1769385352
2410,22,Ticks_Phase_8,228,1,48,53,1770168412
2410,22,Ticks_Phase_8,229,5,42,127,1770183196
2410,22,Ticks_Phase_8,230,1,48,49,1770964752
2410,22,Ticks_Phase_8,231,5,42,127,1771062600
2410,22,Ticks_Phase_8,232,5,42,127,1771863380
2410,22,Ticks_Phase_8,233,1,48,56,1771990148
2410,22,Ticks_Phase_8,234,1,48,48,1772643660
2410,22,Ticks_Phase_8,235,5,42,127,1772663160
2410,22,Ticks_Phase_8,236,1,48,50,1773443448
2410,22,Ticks_Phase_8,237,5,42,127,1773462944
2410,22,Ticks_Phase_8,238,1,48,40,1774218064
2410,22,Ticks_Phase_8,239,5,42,127,1774262580
2410,22,Ticks_Phase_8,240,1,48,45,1775055148
2410,22,Ticks_Phase_8,241,5,42,127,1775063860
2410,22,Ticks_Phase_8,242,1,48,47,1775846392
2410,22,Ticks_Phase_8,243,5,42,127,1775863276
2410,22,Ticks_Phase_8,244,1,48,42,1776585752
2410,22,Ticks_Phase_8,245,5,42,127,1776662840
2410,22,Ticks_Phase_8,246,1,48,46,1777378268
2410,22,Ticks_Phase_8,247,5,42,127,1777462576
2410,22,Ticks_Phase_8,248,1,48,46,1778192740
2410,22,Ticks_Phase_8,249,5,42,127,1778263484
2410,22,Ticks_Phase_8,250,1,48,51,1779012696
2410,22,Ticks_Phase_8,251,5,42,127,1779063268
2410,22,Ticks_Phase_8,252,5,42,127,1779862988
2410,22,Ticks_Phase_8,253,1,48,59,1779902732
2410,22,Ticks_Phase_8,254,5,42,127,1780662552
2410,22,Ticks_Phase_8,255,1,48,59,1780691364
2410,22,Ticks_Phase_8,256,1,48,22,1780773884
2410,22,Ticks_Phase_8,257,1,48,59,1781375856
2410,22,Ticks_Phase_8,258,5,42,127,1781463356
2410,22,Ticks_Phase_8,259,1,48,48,1782245516
2410,22,Ticks_Phase_8,260,5,42,127,1782263144
2410,22,Ticks_Phase_8,261,1,48,54,1783041488
2410,22,Ticks_Phase_8,262,5,42,127,1783063004
2410,22,Ticks_Phase_8,263,5,42,127,1783862600
2410,22,Ticks_Phase_8,264,1,48,59,1783867888
2410,22,Ticks_Phase_8,265,1,48,58,1784680312
2410,22,Ticks_Phase_8,266,5,42,127,1784823148
2410,22,Ticks_Phase_8,267,5,42,127,1785622880
2410,22,Ticks_Phase_8,268,1,48,56,1785740300
2410,22,Ticks_Phase_8,269,5,42,127,1786422616
2410,22,Ticks_Phase_8,270,1,48,54,1786459208
2410,22,Ticks_Phase_8,271,1,48,55,1787209780
2410,22,Ticks_Phase_8,272,5,42,127,1787223368
2410,22,Ticks_Phase_8,273,1,48,55,1788005824
2410,22,Ticks_Phase_8,274,5,42,127,1788023080
2410,22,Ticks_Phase_8,275,1,48,45,1788740768
2410,22,Ticks_Phase_8,276,5,42,127,1788822944
2410,22,Ticks_Phase_8,277,1,48,35,1789557544
2410,22,Ticks_Phase_8,278,5,42,127,1789622800
2410,22,Ticks_Phase_8,279,1,48,54,1790401896
2410,22,Ticks_Phase_8,280,5,42,127,1790423560
2410,22,Ticks_Phase_8,281,1,48,57,1791216880
2410,22,Ticks_Phase_8,282,5,42,127,1791223048
2410,22,Ticks_Phase_8,283,1,48,54,1792009400
2410,22,Ticks_Phase_8,284,5,42,127,1792022836
2410,22,Ticks_Phase_8,285,1,48,52,1792813932
2410,22,Ticks_Phase_8,286,5,42,127,1792822724
2410,22,Ticks_Phase_8,287,1,48,55,1793574032
2410,22,Ticks_Phase_8,288,5,42,127,1793623260
2410,22,Ticks_Phase_8,289,1,48,51,1794404596
2410,22,Ticks_Phase_8,290,5,42,127,1794423268
2410,22,Ticks_Phase_8,291,5,42,127,1795222916
2410,22,Ticks_Phase_8,292,1,48,54,1795259956
2410,22,Ticks_Phase_8,293,5,42,127,1796022552
2410,22,Ticks_Phase_8,294,1,48,57,1796051512
2410,22,Ticks_Phase_8,295,5,42,127,1796823536
2410,22,Ticks_Phase_8,296,1,48,56,1796841940
2410,22,Ticks_Phase_8,297,1,48,52,1797620508
2410,22,Ticks_Phase_8,298,5,42,127,1797623388
2410,22,Ticks_Phase_8,299,1,48,43,1798345864
2410,22,Ticks_Phase_8,300,5,42,127,1798422804
2410,22,Ticks_Phase_8,301,1,48,53,1799192460
2410,22,Ticks_Phase_8,302,5,42,127,1799222544
2410,22,Ticks_Phase_8,303,5,42,127,1799862576
2410,22,Ticks_Phase_8,304,1,48,59,1800003512
2410,22,Ticks_Phase_8,305,1,48,49,1800598220
2410,22,Ticks_Phase_8,306,5,42,127,1800663328
2410,22,Ticks_Phase_8,307,1,48,45,1801451184
2410,22,Ticks_Phase_8,308,5,42,127,1801463264
2410,22,Ticks_Phase_8,309,1,48,35,1802244072
2410,22,Ticks_Phase_8,310,5,42,127,1802262828
2410,22,Ticks_Phase_8,311,1,48,54,1803059384
2410,22,Ticks_Phase_8,312,5,42,127,1803062784
2410,22,Ticks_Phase_8,313,1,48,61,1803851092
2410,22,Ticks_Phase_8,314,5,42,127,1803863396
2410,22,Ticks_Phase_8,315,1,48,23,1803937340
2410,22,Ticks_Phase_8,316,5,42,127,1804663164
2410,22,Ticks_Phase_8,317,1,48,60,1804672652
2410,22,Ticks_Phase_8,318,5,42,127,1805463176
2410,22,Ticks_Phase_8,319,1,48,51,1805488980
2410,22,Ticks_Phase_8,320,1,48,46,1806244132
2410,22,Ticks_Phase_8,321,5,42,127,1806262508
2410,22,Ticks_Phase_8,322,1,48,56,1807026088
2410,22,Ticks_Phase_8,323,5,42,127,1807063340
2410,22,Ticks_Phase_8,324,1,48,26,1807097520
2410,22,Ticks_Phase_8,325,1,48,63,1807785936
2410,22,Ticks_Phase_8,326,5,42,127,1807863180
2410,22,Ticks_Phase_8,327,1,48,52,1808593072
2410,22,Ticks_Phase_8,328,5,42,127,1808663040
2410,22,Ticks_Phase_8,329,1,48,57,1809377124
2410,22,Ticks_Phase_8,330,5,42,127,1809462852
2410,22,Ticks_Phase_8,331,1,48,56,1810166352
2410,22,Ticks_Phase_8,332,5,42,127,1810263372
2410,22,Ticks_Phase_8,333,1,48,52,1811026972
2410,22,Ticks_Phase_8,334,5,42,127,1811063172
2410,22,Ticks_Phase_8,335,1,48,57,1811855596
2410,22,Ticks_Phase_8,336,5,42,127,1811862888
2410,22,Ticks_Phase_8,337,1,48,53,1812648188
2410,22,Ticks_Phase_8,338,5,42,127,1812662972
2410,22,Ticks_Phase_8,339,1,48,48,1813429700
2410,22,Ticks_Phase_8,340,5,42,127,1813463656
2410,22,Ticks_Phase_8,341,1,48,57,1814249104
2410,22,Ticks_Phase_8,342,5,42,127,1814263220
2410,22,Ticks_Phase_8,343,5,42,127,1815062788
2410,22,Ticks_Phase_8,0,9999,9999,9999,1679850616
2410,22,Ticks_Phase_8,1,9999,9999,9999,1680650328
2410,22,Ticks_Phase_8,2,9999,9999,9999,1681451112
2410,22,Ticks_Phase_8,3,9999,9999,9999,1682261080
2410,22,Ticks_Phase_8,4,9999,9999,9999,1683060792
2410,22,Ticks_Phase_8,5,9999,9999,9999,1683860572
2410,22,Ticks_Phase_8,6,9999,9999,9999,1684660284
2410,22,Ticks_Phase_8,7,9999,9999,9999,1685461120
2410,22,Ticks_Phase_8,8,9999,9999,9999,1686260832
2410,22,Ticks_Phase_8,9,9999,9999,9999,1687060592
2410,22,Ticks_Phase_8,10,9999,9999,9999,1687860328
2410,22,Ticks_Phase_8,11,9999,9999,9999,1688661068
2410,22,Ticks_Phase_8,12,9999,9999,9999,1689460852
2410,22,Ticks_Phase_8,13,9999,9999,9999,1690260564
2410,22,Ticks_Phase_8,14,9999,9999,9999,1691060276
2410,22,Ticks_Phase_8,15,9999,9999,9999,1691861112
2410,22,Ticks_Phase_8,16,9999,9999,9999,1692660824
2410,22,Ticks_Phase_8,17,9999,9999,9999,1693460536
2410,22,Ticks_Phase_8,18,9999,9999,9999,1694260276
2410,22,Ticks_Phase_8,19,9999,9999,9999,1695061104
2410,22,Ticks_Phase_8,20,9999,9999,9999,1695860816
2410,22,Ticks_Phase_8,21,9999,9999,9999,1696660600
2410,22,Ticks_Phase_8,22,9999,9999,9999,1697460316
2410,22,Ticks_Phase_8,23,9999,9999,9999,1698261080
2410,22,Ticks_Phase_8,24,9999,9999,9999,1699060792
2410,22,Ticks_Phase_8,25,9999,9999,9999,1699860576
2410,22,Ticks_Phase_8,26,9999,9999,9999,1700660312
2410,22,Ticks_Phase_8,27,9999,9999,9999,1701461068
2410,22,Ticks_Phase_8,28,9999,9999,9999,1702260860
2410,22,Ticks_Phase_8,29,9999,9999,9999,1703060564
2410,22,Ticks_Phase_8,30,9999,9999,9999,1703840888
2410,22,Ticks_Phase_8,31,9999,9999,9999,1704640592
2410,22,Ticks_Phase_8,32,9999,9999,9999,1705440312
2410,22,Ticks_Phase_8,33,9999,9999,9999,1706240092
2410,22,Ticks_Phase_8,34,9999,9999,9999,1707040852
2410,22,Ticks_Phase_8,35,9999,9999,9999,1707840588
2410,22,Ticks_Phase_8,36,9999,9999,9999,1708640376
2410,22,Ticks_Phase_8,37,9999,9999,9999,1709440088
2410,22,Ticks_Phase_8,38,9999,9999,9999,1710240844
2410,22,Ticks_Phase_8,39,9999,9999,9999,1711040628
2410,22,Ticks_Phase_8,40,9999,9999,9999,1711840344
2410,22,Ticks_Phase_8,41,9999,9999,9999,1712640056
2410,22,Ticks_Phase_8,42,9999,9999,9999,1713440888
2410,22,Ticks_Phase_8,43,9999,9999,9999,1714240624
2410,22,Ticks_Phase_8,44,9999,9999,9999,1715040336
2410,22,Ticks_Phase_8,45,9999,9999,9999,1715840124
2410,22,Ticks_Phase_8,46,9999,9999,9999,1716640888
2410,22,Ticks_Phase_8,47,9999,9999,9999,1717440596
2410,22,Ticks_Phase_8,48,9999,9999,9999,1718260832
2410,22,Ticks_Phase_8,49,9999,9999,9999,1719060544
2410,22,Ticks_Phase_8,50,9999,9999,9999,1719860352
2410,22,Ticks_Phase_8,51,9999,9999,9999,1720661108
2410,22,Ticks_Phase_8,52,9999,9999,9999,1721460820
2410,22,Ticks_Phase_8,53,9999,9999,9999,1722260532
2410,22,Ticks_Phase_8,54,9999,9999,9999,1723060320
2410,22,Ticks_Phase_8,55,9999,9999,9999,1723861076
2410,22,Ticks_Phase_8,56,9999,9999,9999,1724660864
2410,22,Ticks_Phase_8,57,9999,9999,9999,1725460576
2410,22,Ticks_Phase_8,58,9999,9999,9999,1726260312
2410,22,Ticks_Phase_8,59,9999,9999,9999,1727061068
2410,22,Ticks_Phase_8,60,9999,9999,9999,1727860856
2410,22,Ticks_Phase_8,61,9999,9999,9999,1728660568
2410,22,Ticks_Phase_8,62,9999,9999,9999,1729460280
2410,22,Ticks_Phase_8,63,9999,9999,9999,1730261112
2410,22,Ticks_Phase_8,64,9999,9999,9999,1731100740
2410,22,Ticks_Phase_8,65,9999,9999,9999,1731900480
2410,22,Ticks_Phase_8,66,9999,9999,9999,1732700264
2410,22,Ticks_Phase_8,67,9999,9999,9999,1733501020
2410,22,Ticks_Phase_8,68,9999,9999,9999,1734300732
2410,22,Ticks_Phase_8,69,9999,9999,9999,1735100520
2410,22,Ticks_Phase_8,70,9999,9999,9999,1735900232
2410,22,Ticks_Phase_8,71,9999,9999,9999,1736700996
2410,22,Ticks_Phase_8,72,9999,9999,9999,1737500776
2410,22,Ticks_Phase_8,73,9999,9999,9999,1738300512
2410,22,Ticks_Phase_8,74,9999,9999,9999,1739100224
2410,22,Ticks_Phase_8,75,9999,9999,9999,1739900988
2410,22,Ticks_Phase_8,76,9999,9999,9999,1740700776
2410,22,Ticks_Phase_8,77,9999,9999,9999,1741500488
2410,22,Ticks_Phase_8,78,9999,9999,9999,1742300268
2410,22,Ticks_Phase_8,79,9999,9999,9999,1743101028
2410,22,Ticks_Phase_8,80,9999,9999,9999,1743900740
2410,22,Ticks_Phase_8,81,9999,9999,9999,1744660544
2410,22,Ticks_Phase_8,82,9999,9999,9999,1745460348
2410,22,Ticks_Phase_8,83,9999,9999,9999,1746261116
2410,22,Ticks_Phase_8,84,9999,9999,9999,1747060820
2410,22,Ticks_Phase_8,85,9999,9999,9999,1747860540
2410,22,Ticks_Phase_8,86,9999,9999,9999,1748660328
2410,22,Ticks_Phase_8,87,9999,9999,9999,1749461084
2410,22,Ticks_Phase_8,88,9999,9999,9999,1750260796
2410,22,Ticks_Phase_8,89,9999,9999,9999,1751060580
2410,22,Ticks_Phase_8,90,9999,9999,9999,1751860320
2410,22,Ticks_Phase_8,91,9999,9999,9999,1752661068
2410,22,Ticks_Phase_8,92,9999,9999,9999,1753460856
2410,22,Ticks_Phase_8,93,9999,9999,9999,1754260576
2410,22,Ticks_Phase_8,94,9999,9999,9999,1755060280
2410,22,Ticks_Phase_8,95,9999,9999,9999,1755861112
2410,22,Ticks_Phase_8,96,9999,9999,9999,1756660824
2410,22,Ticks_Phase_8,97,9999,9999,9999,1757380716
2410,22,Ticks_Phase_8,98,9999,9999,9999,1758180428
2410,22,Ticks_Phase_8,99,9999,9999,9999,1758980216
2410,22,Ticks_Phase_8,100,9999,9999,9999,1759780992
2410,22,Ticks_Phase_8,101,9999,9999,9999,1760580700
2410,22,Ticks_Phase_8,102,9999,9999,9999,1761380412
2410,22,Ticks_Phase_8,103,9999,9999,9999,1762180200
2410,22,Ticks_Phase_8,104,9999,9999,9999,1762980960
2410,22,Ticks_Phase_8,105,9999,9999,9999,1763780672
2410,22,Ticks_Phase_8,106,9999,9999,9999,1764580464
2410,22,Ticks_Phase_8,107,9999,9999,9999,1765380176
2410,22,Ticks_Phase_8,108,9999,9999,9999,1766180956
2410,22,Ticks_Phase_8,109,9999,9999,9999,1766980672
2410,22,Ticks_Phase_8,110,9999,9999,9999,1767780456
2410,22,Ticks_Phase_8,111,9999,9999,9999,1768580168
2410,22,Ticks_Phase_8,112,9999,9999,9999,1769380980
2410,22,Ticks_Phase_8,113,9999,9999,9999,1770180684
2410,22,Ticks_Phase_8,114,9999,9999,9999,1771060312
2410,22,Ticks_Phase_8,115,9999,9999,9999,1771861092
2410,22,Ticks_Phase_8,116,9999,9999,9999,1772660796
2410,22,Ticks_Phase_8,117,9999,9999,9999,1773460584
2410,22,Ticks_Phase_8,118,9999,9999,9999,1774260296
2410,22,Ticks_Phase_8,119,9999,9999,9999,1775061052
2410,22,Ticks_Phase_8,120,9999,9999,9999,1775860840
2410,22,Ticks_Phase_8,121,9999,9999,9999,1776660552
2410,22,Ticks_Phase_8,122,9999,9999,9999,1777460288
2410,22,Ticks_Phase_8,123,9999,9999,9999,1778261048
2410,22,Ticks_Phase_8,124,9999,9999,9999,1779060836
2410,22,Ticks_Phase_8,125,9999,9999,9999,1779860552
2410,22,Ticks_Phase_8,126,9999,9999,9999,1780660340
2410,22,Ticks_Phase_8,127,9999,9999,9999,1781461068
2410,22,Ticks_Phase_8,128,9999,9999,9999,1782260856
2410,22,Ticks_Phase_8,129,9999,9999,9999,1783060568
2410,22,Ticks_Phase_8,130,9999,9999,9999,1783860312
2410,22,Ticks_Phase_8,131,9999,9999,9999,1784820860
2410,22,Ticks_Phase_8,132,9999,9999,9999,1785620592
2410,22,Ticks_Phase_8,133,9999,9999,9999,1786420332
2410,22,Ticks_Phase_8,134,9999,9999,9999,1787221080
2410,22,Ticks_Phase_8,135,9999,9999,9999,1788020792
2410,22,Ticks_Phase_8,136,9999,9999,9999,1788820580
2410,22,Ticks_Phase_8,137,9999,9999,9999,1789620292
2410,22,Ticks_Phase_8,138,9999,9999,9999,1790421052
2410,22,Ticks_Phase_8,139,9999,9999,9999,1791220836
2410,22,Ticks_Phase_8,140,9999,9999,9999,1792020552
2410,22,Ticks_Phase_8,141,9999,9999,9999,1792820288
2410,22,Ticks_Phase_8,142,9999,9999,9999,1793621048
2410,22,Ticks_Phase_8,143,9999,9999,9999,1794420836
2410,22,Ticks_Phase_8,144,9999,9999,9999,1795220552
2410,22,Ticks_Phase_8,145,9999,9999,9999,1796020340
2410,22,Ticks_Phase_8,146,9999,9999,9999,1796821100
2410,22,Ticks_Phase_8,147,9999,9999,9999,1797620804
2410,22,Ticks_Phase_8,148,9999,9999,9999,1798420592
2410,22,Ticks_Phase_8,149,9999,9999,9999,1799220332
2410,22,Ticks_Phase_8,150,9999,9999,9999,1799860288
2410,22,Ticks_Phase_8,151,9999,9999,9999,1800661116
2410,22,Ticks_Phase_8,152,9999,9999,9999,1801460828
2410,22,Ticks_Phase_8,153,9999,9999,9999,1802260540
2410,22,Ticks_Phase_8,154,9999,9999,9999,1803060352
2410,22,Ticks_Phase_8,155,9999,9999,9999,1803861108
2410,22,Ticks_Phase_8,156,9999,9999,9999,1804660804
2410,22,Ticks_Phase_8,157,9999,9999,9999,1805460592
2410,22,Ticks_Phase_8,158,9999,9999,9999,1806260296
2410,22,Ticks_Phase_8,159,9999,9999,9999,1807061056
2410,22,Ticks_Phase_8,160,9999,9999,9999,1807860820
2410,22,Ticks_Phase_8,161,9999,9999,9999,1808660604
2410,22,Ticks_Phase_8,162,9999,9999,9999,1809460344
2410,22,Ticks_Phase_8,163,9999,9999,9999,1810261084
2410,22,Ticks_Phase_8,164,9999,9999,9999,1811060812
2410,22,Ticks_Phase_8,165,9999,9999,9999,1811860600
2410,22,Ticks_Phase_8,166,9999,9999,9999,1812660312
2410,22,Ticks_Phase_8,167,9999,9999,9999,1813461072
2410,22,Ticks_Phase_8,168,9999,9999,9999,1814260856
2410,22,Ticks_Phase_8,169,9999,9999,9999,1815060576
2411,25,Jits_Pract_5,0,5,56,103,1887238468
2411,25,Jits_Pract_5,1,5,63,98,1887241564
2411,25,Jits_Pract_5,2,5,80,127,1887244612
2411,25,Jits_Pract_5,0,5,56,103,1887739316
2411,25,Jits_Pract_5,1,5,63,98,1887742564
2411,25,Jits_Pract_5,2,5,80,127,1887745608
2411,25,Jits_Pract_5,3,1,48,25,1887888928
2411,25,Jits_Pract_5,0,5,56,103,1888239168
2411,25,Jits_Pract_5,1,5,80,127,1888249288
2411,25,Jits_Pract_5,2,5,63,98,1888268628
2411,25,Jits_Pract_5,3,1,48,43,1888285024
2411,25,Jits_Pract_5,0,5,63,98,1888688380
2411,25,Jits_Pract_5,1,5,80,127,1888719104
2411,25,Jits_Pract_5,2,5,56,103,1888728476
2411,25,Jits_Pract_5,3,1,48,58,1888764548
2411,25,Jits_Pract_5,0,1,48,55,1889198072
2411,25,Jits_Pract_5,1,5,80,127,1889248672
2411,25,Jits_Pract_5,2,1,48,30,1889254388
2411,25,Jits_Pract_5,3,5,56,103,1889259144
2411,25,Jits_Pract_5,4,5,63,98,1889288448
2411,25,Jits_Pract_5,0,5,63,98,1889739264
2411,25,Jits_Pract_5,1,5,56,103,1889768940
2411,25,Jits_Pract_5,2,1,48,59,1889774152
2411,25,Jits_Pract_5,3,5,80,127,1889779128
2411,25,Jits_Pract_5,0,5,56,103,1890188760
2411,25,Jits_Pract_5,1,5,63,98,1890239264
2411,25,Jits_Pract_5,2,5,80,127,1890259276
2411,25,Jits_Pract_5,3,1,48,59,1890271012
2411,25,Jits_Pract_5,0,5,80,127,1890689292
2411,25,Jits_Pract_5,1,5,63,98,1890738520
2411,25,Jits_Pract_5,2,1,48,59,1890740536
2411,25,Jits_Pract_5,3,5,56,103,1890778380
2411,25,Jits_Pract_5,0,5,56,103,1891199336
2411,25,Jits_Pract_5,1,5,63,98,1891228936
2411,25,Jits_Pract_5,2,1,48,56,1891256168
2411,25,Jits_Pract_5,3,5,80,127,1891298536
2411,25,Jits_Pract_5,0,5,56,103,1891699044
2411,25,Jits_Pract_5,1,5,80,127,1891758388
2411,25,Jits_Pract_5,2,5,63,98,1891789260
2411,25,Jits_Pract_5,3,1,48,57,1891796268
2411,25,Jits_Pract_5,0,5,56,103,1892209088
2411,25,Jits_Pract_5,1,5,63,98,1892219360
2411,25,Jits_Pract_5,2,5,80,127,1892259072
2411,25,Jits_Pract_5,3,1,48,59,1892283912
2411,25,Jits_Pract_5,0,5,63,98,1892698380
2411,25,Jits_Pract_5,1,1,48,67,1892737836
2411,25,Jits_Pract_5,2,5,80,127,1892779368
2411,25,Jits_Pract_5,3,5,56,103,1892788740
2411,25,Jits_Pract_5,0,5,63,98,1893249392
2411,25,Jits_Pract_5,1,1,48,63,1893261360
2411,25,Jits_Pract_5,2,5,56,103,1893289324
2411,25,Jits_Pract_5,3,5,80,127,1893292468
2411,25,Jits_Pract_5,0,5,56,103,1893709144
2411,25,Jits_Pract_5,1,5,63,98,1893719340
2411,25,Jits_Pract_5,2,5,80,127,1893759204
2411,25,Jits_Pract_5,3,1,48,60,1893764864
2411,25,Jits_Pract_5,0,5,56,103,1894198584
2411,25,Jits_Pract_5,1,5,63,98,1894201724
2411,25,Jits_Pract_5,2,5,80,127,1894219192
2411,25,Jits_Pract_5,3,1,48,57,1894252652
2411,25,Jits_Pract_5,0,9999,9999,9999,1887487100
2411,25,Jits_Pract_5,1,9999,9999,9999,1887986804
2411,25,Jits_Pract_5,2,9999,9999,9999,1888486512
2411,25,Jits_Pract_5,3,9999,9999,9999,1888986216
2411,25,Jits_Pract_5,4,9999,9999,9999,1889486936
2411,25,Jits_Pract_5,5,9999,9999,9999,1889986612
2411,25,Jits_Pract_5,6,9999,9999,9999,1890486376
2411,25,Jits_Pract_5,7,9999,9999,9999,1890987132
2411,25,Jits_Pract_5,8,9999,9999,9999,1891497024
2411,25,Jits_Pract_5,9,9999,9999,9999,1891996736
2411,25,Jits_Pract_5,10,9999,9999,9999,1892496440
2411,25,Jits_Pract_5,11,9999,9999,9999,1892996220
2411,25,Jits_Pract_5,12,9999,9999,9999,1893496956
2411,25,Jits_Pract_5,13,9999,9999,9999,1893996644
2411,25,Jits_Pract_5,14,9999,9999,9999,1894496336
2412,24,Jits_Pract_8,0,5,56,103,1901451632
2412,24,Jits_Pract_8,1,5,63,98,1901454728
2412,24,Jits_Pract_8,2,5,80,127,1901457928
2412,24,Jits_Pract_8,0,5,56,103,1902252544
2412,24,Jits_Pract_8,1,5,63,98,1902255488
2412,24,Jits_Pract_8,2,5,80,127,1902258540
2412,24,Jits_Pract_8,3,1,48,40,1902403576
2412,24,Jits_Pract_8,0,5,80,127,1902991704
2412,24,Jits_Pract_8,1,1,48,64,1903032588
2412,24,Jits_Pract_8,2,5,63,98,1903081980
2412,24,Jits_Pract_8,3,5,56,103,1903092028
2412,24,Jits_Pract_8,0,5,56,103,1903811860
2412,24,Jits_Pract_8,1,5,63,98,1903822352
2412,24,Jits_Pract_8,2,1,48,63,1903882932
2412,24,Jits_Pract_8,3,5,80,127,1903912500
2412,24,Jits_Pract_8,0,5,63,98,1904581884
2412,24,Jits_Pract_8,1,5,80,127,1904611636
2412,24,Jits_Pract_8,2,1,48,59,1904633408
2412,24,Jits_Pract_8,3,5,56,103,1904642348
2412,24,Jits_Pract_8,0,5,56,103,1905381788
2412,24,Jits_Pract_8,1,1,48,60,1905422444
2412,24,Jits_Pract_8,2,5,80,127,1905482352
2412,24,Jits_Pract_8,3,5,63,98,1905532536
2412,24,Jits_Pract_8,0,5,56,103,1906181484
2412,24,Jits_Pract_8,1,1,48,48,1906219848
2412,24,Jits_Pract_8,2,5,80,127,1906231556
2412,24,Jits_Pract_8,3,5,63,98,1906271568
2412,24,Jits_Pract_8,0,5,80,127,1907011848
2412,24,Jits_Pract_8,1,1,48,62,1907024032
2412,24,Jits_Pract_8,2,5,63,98,1907041516
2412,24,Jits_Pract_8,3,5,56,103,1907112392
2412,24,Jits_Pract_8,0,1,48,62,1907818320
2412,24,Jits_Pract_8,1,5,63,98,1907842404
2412,24,Jits_Pract_8,2,5,56,103,1907872228
2412,24,Jits_Pract_8,3,5,80,127,1907931480
2412,24,Jits_Pract_8,0,5,56,103,1908581708
2412,24,Jits_Pract_8,1,5,80,127,1908584996
2412,24,Jits_Pract_8,2,1,48,57,1908611576
2412,24,Jits_Pract_8,3,5,63,98,1908701500
2412,24,Jits_Pract_8,0,1,48,57,1909415668
2412,24,Jits_Pract_8,1,5,56,103,1909462304
2412,24,Jits_Pract_8,2,5,80,127,1909502244
2412,24,Jits_Pract_8,3,5,63,98,1909511600
2412,24,Jits_Pract_8,0,5,56,103,1910222140
2412,24,Jits_Pract_8,1,1,48,51,1910235668
2412,24,Jits_Pract_8,2,5,80,127,1910241696
2412,24,Jits_Pract_8,3,5,63,98,1910321512
2412,24,Jits_Pract_8,0,5,80,127,1911011576
2412,24,Jits_Pract_8,1,1,48,59,1911028396
2412,24,Jits_Pract_8,2,5,56,103,1911112212
2412,24,Jits_Pract_8,3,5,63,98,1911122244
2412,24,Jits_Pract_8,0,5,63,98,1911782128
2412,24,Jits_Pract_8,1,1,48,61,1911840968
2412,24,Jits_Pract_8,2,5,80,127,1911842916
2412,24,Jits_Pract_8,3,5,56,103,1911852436
2412,24,Jits_Pract_8,0,1,48,64,1912559760
2412,24,Jits_Pract_8,1,5,56,103,1912581432
2412,24,Jits_Pract_8,2,5,63,98,1912652184
2412,24,Jits_Pract_8,3,5,80,127,1912656504
2412,24,Jits_Pract_8,0,9999,9999,9999,1901849664
2412,24,Jits_Pract_8,1,9999,9999,9999,1902649428
2412,24,Jits_Pract_8,2,9999,9999,9999,1903449204
2412,24,Jits_Pract_8,3,9999,9999,9999,1904249948
2412,24,Jits_Pract_8,4,9999,9999,9999,1905049716
2412,24,Jits_Pract_8,5,9999,9999,9999,1905849404
2412,24,Jits_Pract_8,6,9999,9999,9999,1906649172
2412,24,Jits_Pract_8,7,9999,9999,9999,1907449916
2412,24,Jits_Pract_8,8,9999,9999,9999,1908249716
2412,24,Jits_Pract_8,9,9999,9999,9999,1909049460
2412,24,Jits_Pract_8,10,9999,9999,9999,1909849164
2412,24,Jits_Pract_8,11,9999,9999,9999,1910649968
2412,24,Jits_Pract_8,12,9999,9999,9999,1911449672
2412,24,Jits_Pract_8,13,9999,9999,9999,1912249440
2412,24,Jits_Pract_8,14,9999,9999,9999,1913049192
2413,16,Jits_ISO_5,0,5,56,103,1943217680
2413,16,Jits_ISO_5,1,5,63,98,1943220704
2413,16,Jits_ISO_5,2,5,80,127,1943223748
2413,16,Jits_ISO_5,0,5,56,103,1943718520
2413,16,Jits_ISO_5,1,5,63,98,1943721620
2413,16,Jits_ISO_5,2,5,80,127,1943724664
2413,16,Jits_ISO_5,3,1,48,44,1943825500
2413,16,Jits_ISO_5,0,5,56,103,1944217896
2413,16,Jits_ISO_5,1,5,80,127,1944228164
2413,16,Jits_ISO_5,2,5,63,98,1944247652
2413,16,Jits_ISO_5,3,1,48,56,1944251216
2413,16,Jits_ISO_5,0,5,63,98,1944667448
2413,16,Jits_ISO_5,1,5,80,127,1944698172
2413,16,Jits_ISO_5,2,5,56,103,1944707544
2413,16,Jits_ISO_5,3,1,48,66,1944720628
2413,16,Jits_ISO_5,0,1,48,59,1945157712
2413,16,Jits_ISO_5,1,5,80,127,1945227560
2413,16,Jits_ISO_5,2,5,56,103,1945237832
2413,16,Jits_ISO_5,3,5,63,98,1945267640
2413,16,Jits_ISO_5,0,5,63,98,1945718088
2413,16,Jits_ISO_5,1,5,56,103,1945747692
2413,16,Jits_ISO_5,2,1,48,65,1945754544
2413,16,Jits_ISO_5,3,5,80,127,1945758252
2413,16,Jits_ISO_5,0,5,56,103,1946167632
2413,16,Jits_ISO_5,1,5,63,98,1946217832
2413,16,Jits_ISO_5,2,5,80,127,1946238512
2413,16,Jits_ISO_5,3,1,48,60,1946242308
2413,16,Jits_ISO_5,0,5,80,127,1946668276
2413,16,Jits_ISO_5,1,1,48,64,1946716824
2413,16,Jits_ISO_5,2,5,63,98,1946718620
2413,16,Jits_ISO_5,3,5,56,103,1946757432
2413,16,Jits_ISO_5,0,5,56,103,1947178508
2413,16,Jits_ISO_5,1,5,63,98,1947208112
2413,16,Jits_ISO_5,2,1,48,69,1947221640
2413,16,Jits_ISO_5,3,5,80,127,1947277560
2413,16,Jits_ISO_5,0,5,56,103,1947678256
2413,16,Jits_ISO_5,1,5,80,127,1947737452
2413,16,Jits_ISO_5,2,1,48,62,1947758476
2413,16,Jits_ISO_5,3,5,63,98,1947768464
2413,16,Jits_ISO_5,0,5,56,103,1948187972
2413,16,Jits_ISO_5,1,5,63,98,1948198316
2413,16,Jits_ISO_5,2,5,80,127,1948238180
2413,16,Jits_ISO_5,3,1,48,54,1948245336
2413,16,Jits_ISO_5,0,5,63,98,1948677432
2413,16,Jits_ISO_5,1,1,48,60,1948727848
2413,16,Jits_ISO_5,2,5,80,127,1948758364
2413,16,Jits_ISO_5,3,5,56,103,1948767664
2413,16,Jits_ISO_5,0,1,48,47,1949190016
2413,16,Jits_ISO_5,1,1,38,15,1949202392
2413,16,Jits_ISO_5,2,5,63,98,1949228272
2413,16,Jits_ISO_5,3,5,56,103,1949268360
2413,16,Jits_ISO_5,4,5,80,127,1949271352
2413,16,Jits_ISO_5,0,5,56,103,1949688432
2413,16,Jits_ISO_5,1,1,48,66,1949689548
2413,16,Jits_ISO_5,2,5,63,98,1949698400
2413,16,Jits_ISO_5,3,5,80,127,1949738284
2413,16,Jits_ISO_5,0,1,48,61,1950172636
2413,16,Jits_ISO_5,1,5,56,103,1950177684
2413,16,Jits_ISO_5,2,5,63,98,1950180680
2413,16,Jits_ISO_5,3,5,80,127,1950198144
2413,16,Jits_ISO_5,0,1,48,69,1950676332
2413,16,Jits_ISO_5,1,5,80,127,1950687592
2413,16,Jits_ISO_5,2,5,56,103,1950697936
2413,16,Jits_ISO_5,3,5,63,98,1950767996
2413,16,Jits_ISO_5,0,5,63,98,1951188380
2413,16,Jits_ISO_5,1,1,48,63,1951191200
2413,16,Jits_ISO_5,2,5,56,103,1951208080
2413,16,Jits_ISO_5,3,5,80,127,1951287600
2413,16,Jits_ISO_5,0,5,56,103,1951698228
2413,16,Jits_ISO_5,1,1,48,66,1951703588
2413,16,Jits_ISO_5,2,5,80,127,1951738156
2413,16,Jits_ISO_5,3,5,63,98,1951747380
2413,16,Jits_ISO_5,0,1,48,66,1952175620
2413,16,Jits_ISO_5,1,5,80,127,1952187852
2413,16,Jits_ISO_5,2,5,63,98,1952217528
2413,16,Jits_ISO_5,3,5,56,103,1952258508
2413,16,Jits_ISO_5,0,1,48,64,1952697528
2413,16,Jits_ISO_5,1,5,56,103,1952708108
2413,16,Jits_ISO_5,2,5,63,98,1952737564
2413,16,Jits_ISO_5,3,5,80,127,1952787788
2413,16,Jits_ISO_5,0,1,48,64,1953204292
2413,16,Jits_ISO_5,1,5,80,127,1953207624
2413,16,Jits_ISO_5,2,5,56,103,1953247560
2413,16,Jits_ISO_5,3,5,63,98,1953258052
2413,16,Jits_ISO_5,0,5,80,127,1953688180
2413,16,Jits_ISO_5,1,1,48,44,1953724856
2413,16,Jits_ISO_5,2,5,63,98,1953728112
2413,16,Jits_ISO_5,3,5,56,103,1953788352
2413,16,Jits_ISO_5,0,5,56,103,1954187560
2413,16,Jits_ISO_5,1,5,80,127,1954197828
2413,16,Jits_ISO_5,2,1,48,56,1954220724
2413,16,Jits_ISO_5,3,5,63,98,1954277612
2413,16,Jits_ISO_5,0,5,80,127,1954688348
2413,16,Jits_ISO_5,1,1,48,59,1954719412
2413,16,Jits_ISO_5,2,5,63,98,1954747612
2413,16,Jits_ISO_5,3,5,56,103,1954777360
2413,16,Jits_ISO_5,0,5,56,103,1955188096
2413,16,Jits_ISO_5,1,1,48,58,1955233316
2413,16,Jits_ISO_5,2,5,80,127,1955247508
2413,16,Jits_ISO_5,3,5,63,98,1955288564
2413,16,Jits_ISO_5,0,5,56,103,1955737892
2413,16,Jits_ISO_5,1,1,48,53,1955744152
2413,16,Jits_ISO_5,2,5,63,98,1955748304
2413,16,Jits_ISO_5,3,5,80,127,1955751744
2413,16,Jits_ISO_5,0,5,80,127,1956187660
2413,16,Jits_ISO_5,1,1,48,47,1956261796
2413,16,Jits_ISO_5,2,5,63,98,1956277712
2413,16,Jits_ISO_5,3,5,56,103,1956288128
2413,16,Jits_ISO_5,0,5,56,103,1956688368
2413,16,Jits_ISO_5,1,5,63,98,1956691616
2413,16,Jits_ISO_5,2,5,80,127,1956694808
2413,16,Jits_ISO_5,3,1,48,60,1956777948
2413,16,Jits_ISO_5,0,5,80,127,1957208336
2413,16,Jits_ISO_5,1,1,48,51,1957224256
2413,16,Jits_ISO_5,2,5,63,98,1957257856
2413,16,Jits_ISO_5,3,5,56,103,1957288352
2413,16,Jits_ISO_5,0,5,56,103,1957687780
2413,16,Jits_ISO_5,1,5,80,127,1957698052
2413,16,Jits_ISO_5,2,1,48,56,1957757732
2413,16,Jits_ISO_5,3,5,63,98,1957767648
2413,16,Jits_ISO_5,0,5,56,103,1958198016
2413,16,Jits_ISO_5,1,5,63,98,1958218104
2413,16,Jits_ISO_5,2,1,48,50,1958238680
2413,16,Jits_ISO_5,3,5,80,127,1958277364
2413,16,Jits_ISO_5,0,5,80,127,1958698292
2413,16,Jits_ISO_5,1,1,48,65,1958721112
2413,16,Jits_ISO_5,2,5,63,98,1958768040
2413,16,Jits_ISO_5,3,5,56,103,1958787528
2413,16,Jits_ISO_5,0,5,80,127,1959217376
2413,16,Jits_ISO_5,1,1,48,59,1959225356
2413,16,Jits_ISO_5,2,5,56,103,1959227860
2413,16,Jits_ISO_5,3,5,63,98,1959237980
2413,16,Jits_ISO_5,0,5,80,127,1959707980
2413,16,Jits_ISO_5,1,1,48,61,1959725344
2413,16,Jits_ISO_5,2,5,56,103,1959727384
2413,16,Jits_ISO_5,3,5,63,98,1959798032
2413,16,Jits_ISO_5,0,5,56,103,1960218064
2413,16,Jits_ISO_5,1,1,48,62,1960219028
2413,16,Jits_ISO_5,2,5,80,127,1960247880
2413,16,Jits_ISO_5,3,5,63,98,1960268044
2413,16,Jits_ISO_5,0,5,63,98,1960707672
2413,16,Jits_ISO_5,1,1,48,60,1960723248
2413,16,Jits_ISO_5,2,5,56,103,1960767784
2413,16,Jits_ISO_5,3,5,80,127,1960797680
2413,16,Jits_ISO_5,0,5,63,98,1961197968
2413,16,Jits_ISO_5,1,5,80,127,1961201180
2413,16,Jits_ISO_5,2,1,48,65,1961219064
2413,16,Jits_ISO_5,3,5,56,103,1961288036
2413,16,Jits_ISO_5,0,1,48,60,1961687992
2413,16,Jits_ISO_5,1,5,56,103,1961718212
2413,16,Jits_ISO_5,2,5,63,98,1961747764
2413,16,Jits_ISO_5,3,5,80,127,1961787836
2413,16,Jits_ISO_5,0,1,48,62,1962170492
2413,16,Jits_ISO_5,1,5,63,98,1962217796
2413,16,Jits_ISO_5,2,5,56,103,1962257756
2413,16,Jits_ISO_5,3,5,80,127,1962278204
2413,16,Jits_ISO_5,0,1,48,61,1962713748
2413,16,Jits_ISO_5,1,5,63,98,1962738132
2413,16,Jits_ISO_5,2,5,56,103,1962777872
2413,16,Jits_ISO_5,3,5,80,127,1962788144
2413,16,Jits_ISO_5,0,5,80,127,1963218468
2413,16,Jits_ISO_5,1,1,48,60,1963232452
2413,16,Jits_ISO_5,2,5,63,98,1963287872
2413,16,Jits_ISO_5,3,5,56,103,1963308624
2413,16,Jits_ISO_5,0,5,56,103,1963707732
2413,16,Jits_ISO_5,1,1,48,62,1963722988
2413,16,Jits_ISO_5,2,5,80,127,1963728184
2413,16,Jits_ISO_5,3,5,63,98,1963768048
2413,16,Jits_ISO_5,0,1,48,50,1964195148
2413,16,Jits_ISO_5,1,5,63,98,1964217660
2413,16,Jits_ISO_5,2,5,80,127,1964238120
2413,16,Jits_ISO_5,3,5,56,103,1964278132
2413,16,Jits_ISO_5,0,1,48,69,1964708156
2413,16,Jits_ISO_5,1,5,63,98,1964717692
2413,16,Jits_ISO_5,2,5,56,103,1964737852
2413,16,Jits_ISO_5,3,5,80,127,1964748048
2413,16,Jits_ISO_5,0,1,48,62,1965155820
2413,16,Jits_ISO_5,1,5,80,127,1965218100
2413,16,Jits_ISO_5,2,5,56,103,1965237588
2413,16,Jits_ISO_5,3,5,63,98,1965268592
2413,16,Jits_ISO_5,0,1,48,61,1965722372
2413,16,Jits_ISO_5,1,5,56,103,1965787584
2413,16,Jits_ISO_5,2,5,80,127,1965790800
2413,16,Jits_ISO_5,3,5,63,98,1965808044
2413,16,Jits_ISO_5,0,5,63,98,1966208580
2413,16,Jits_ISO_5,1,1,48,50,1966210520
2413,16,Jits_ISO_5,2,5,56,103,1966237952
2413,16,Jits_ISO_5,3,5,80,127,1966297664
2413,16,Jits_ISO_5,0,1,48,54,1966682872
2413,16,Jits_ISO_5,1,5,63,98,1966787856
2413,16,Jits_ISO_5,2,5,56,103,1966798348
2413,16,Jits_ISO_5,3,5,80,127,1966808692
2413,16,Jits_ISO_5,0,5,56,103,1967237644
2413,16,Jits_ISO_5,1,1,48,49,1967241884
2413,16,Jits_ISO_5,2,5,80,127,1967268212
2413,16,Jits_ISO_5,3,5,63,98,1967277656
2413,16,Jits_ISO_5,0,1,48,58,1967715640
2413,16,Jits_ISO_5,1,5,63,98,1967778140
2413,16,Jits_ISO_5,2,5,56,103,1967788560
2413,16,Jits_ISO_5,3,5,80,127,1967807896
2413,16,Jits_ISO_5,0,5,56,103,1968208360
2413,16,Jits_ISO_5,1,1,48,55,1968234320
2413,16,Jits_ISO_5,2,5,63,98,1968267620
2413,16,Jits_ISO_5,3,5,80,127,1968270984
2413,16,Jits_ISO_5,0,1,48,51,1968714644
2413,16,Jits_ISO_5,1,5,80,127,1968728540
2413,16,Jits_ISO_5,2,5,56,103,1968737620
2413,16,Jits_ISO_5,3,5,63,98,1968808400
2413,16,Jits_ISO_5,0,5,80,127,1969217944
2413,16,Jits_ISO_5,1,1,48,56,1969268416
2413,16,Jits_ISO_5,2,5,56,103,1969287472
2413,16,Jits_ISO_5,3,5,63,98,1969297740
2413,16,Jits_ISO_5,0,1,48,49,1969751372
2413,16,Jits_ISO_5,1,5,63,98,1969757472
2413,16,Jits_ISO_5,2,5,56,103,1969767892
2413,16,Jits_ISO_5,3,5,80,127,1969788424
2413,16,Jits_ISO_5,0,5,80,127,1970218552
2413,16,Jits_ISO_5,1,1,48,61,1970233880
2413,16,Jits_ISO_5,2,5,63,98,1970277740
2413,16,Jits_ISO_5,3,5,56,103,1970317824
2413,16,Jits_ISO_5,0,1,48,53,1970746820
2413,16,Jits_ISO_5,1,5,56,103,1970758152
2413,16,Jits_ISO_5,2,5,63,98,1970768200
2413,16,Jits_ISO_5,3,5,80,127,1970808136
2413,16,Jits_ISO_5,0,5,56,103,1971217740
2413,16,Jits_ISO_5,1,1,48,59,1971241012
2413,16,Jits_ISO_5,2,5,80,127,1971247480
2413,16,Jits_ISO_5,3,5,63,98,1971297756
2413,16,Jits_ISO_5,0,1,48,55,1971717284
2413,16,Jits_ISO_5,1,5,56,103,1971757484
2413,16,Jits_ISO_5,2,5,63,98,1971798468
2413,16,Jits_ISO_5,3,5,80,127,1971801688
2413,16,Jits_ISO_5,0,1,48,59,1972230712
2413,16,Jits_ISO_5,1,5,56,103,1972258184
2413,16,Jits_ISO_5,2,5,63,98,1972268308
2413,16,Jits_ISO_5,3,5,80,127,1972287868
2413,16,Jits_ISO_5,0,1,48,57,1972717124
2413,16,Jits_ISO_5,1,5,56,103,1972718872
2413,16,Jits_ISO_5,2,5,80,127,1972721772
2413,16,Jits_ISO_5,3,5,63,98,1972758140
2413,16,Jits_ISO_5,0,1,48,55,1973209412
2413,16,Jits_ISO_5,1,5,63,98,1973257684
2413,16,Jits_ISO_5,2,5,56,103,1973288208
2413,16,Jits_ISO_5,3,5,80,127,1973307680
2413,16,Jits_ISO_5,0,1,48,55,1973713252
2413,16,Jits_ISO_5,1,5,80,127,1973727520
2413,16,Jits_ISO_5,2,5,56,103,1973737792
2413,16,Jits_ISO_5,3,5,63,98,1973748360
2413,16,Jits_ISO_5,0,1,48,61,1974188788
2413,16,Jits_ISO_5,1,5,56,103,1974237516
2413,16,Jits_ISO_5,2,5,80,127,1974277380
2413,16,Jits_ISO_5,3,5,63,98,1974308480
2413,16,Jits_ISO_5,0,1,48,61,1974724400
2413,16,Jits_ISO_5,1,5,63,98,1974747364
2413,16,Jits_ISO_5,2,5,80,127,1974757856
2413,16,Jits_ISO_5,3,5,56,103,1974768056
2413,16,Jits_ISO_5,0,1,48,54,1975212152
2413,16,Jits_ISO_5,1,5,56,103,1975227688
2413,16,Jits_ISO_5,2,5,63,98,1975298416
2413,16,Jits_ISO_5,3,5,80,127,1975307568
2413,16,Jits_ISO_5,0,1,48,59,1975727104
2413,16,Jits_ISO_5,1,5,80,127,1975728596
2413,16,Jits_ISO_5,2,5,56,103,1975737596
2413,16,Jits_ISO_5,3,5,63,98,1975788016
2413,16,Jits_ISO_5,0,1,48,56,1976207480
2413,16,Jits_ISO_5,1,5,80,127,1976237392
2413,16,Jits_ISO_5,2,5,56,103,1976298080
2413,16,Jits_ISO_5,3,5,63,98,1976327516
2413,16,Jits_ISO_5,0,5,56,103,1976738180
2413,16,Jits_ISO_5,1,5,80,127,1976741320
2413,16,Jits_ISO_5,2,5,63,98,1976778116
2413,16,Jits_ISO_5,3,1,48,60,1976801084
2413,16,Jits_ISO_5,0,5,56,103,1977267512
2413,16,Jits_ISO_5,1,1,48,58,1977290860
2413,16,Jits_ISO_5,2,5,63,98,1977298448
2413,16,Jits_ISO_5,3,5,80,127,1977307448
2413,16,Jits_ISO_5,0,1,48,53,1977772392
2413,16,Jits_ISO_5,1,5,63,98,1977777444
2413,16,Jits_ISO_5,2,5,80,127,1977788160
2413,16,Jits_ISO_5,3,5,56,103,1977798208
2413,16,Jits_ISO_5,0,5,80,127,1978227964
2413,16,Jits_ISO_5,1,1,48,52,1978272960
2413,16,Jits_ISO_5,2,5,56,103,1978278380
2413,16,Jits_ISO_5,3,5,63,98,1978281372
2413,16,Jits_ISO_5,0,5,56,103,1978757444
2413,16,Jits_ISO_5,1,1,48,58,1978769704
2413,16,Jits_ISO_5,2,5,80,127,1978778268
2413,16,Jits_ISO_5,3,5,63,98,1978788240
2413,16,Jits_ISO_5,0,5,63,98,1979237860
2413,16,Jits_ISO_5,1,1,48,53,1979244048
2413,16,Jits_ISO_5,2,5,56,103,1979267384
2413,16,Jits_ISO_5,3,5,80,127,1979287912
2413,16,Jits_ISO_5,0,5,56,103,1979747932
2413,16,Jits_ISO_5,1,1,48,54,1979754188
2413,16,Jits_ISO_5,2,5,80,127,1979758044
2413,16,Jits_ISO_5,3,5,63,98,1979827648
2413,16,Jits_ISO_5,0,5,63,98,1980238164
2413,16,Jits_ISO_5,1,5,80,127,1980278180
2413,16,Jits_ISO_5,2,1,48,50,1980293952
2413,16,Jits_ISO_5,3,5,56,103,1980318112
2413,16,Jits_ISO_5,0,5,56,103,1980748168
2413,16,Jits_ISO_5,1,5,63,98,1980758512
2413,16,Jits_ISO_5,2,5,80,127,1980777848
2413,16,Jits_ISO_5,3,1,48,51,1980778888
2413,16,Jits_ISO_5,0,5,63,98,1981287996
2413,16,Jits_ISO_5,1,1,48,48,1981297868
2413,16,Jits_ISO_5,2,5,80,127,1981308156
2413,16,Jits_ISO_5,3,5,56,103,1981327936
2413,16,Jits_ISO_5,0,5,56,103,1981738364
2413,16,Jits_ISO_5,1,5,80,127,1981818160
2413,16,Jits_ISO_5,2,5,63,98,1981827456
2413,16,Jits_ISO_5,3,1,48,62,1981830204
2413,16,Jits_ISO_5,0,5,80,127,1982277976
2413,16,Jits_ISO_5,1,5,63,98,1982288320
2413,16,Jits_ISO_5,2,5,56,103,1982317920
2413,16,Jits_ISO_5,3,1,48,65,1982336252
2413,16,Jits_ISO_5,0,5,63,98,1982737792
2413,16,Jits_ISO_5,1,5,80,127,1982777880
2413,16,Jits_ISO_5,2,1,48,58,1982835996
2413,16,Jits_ISO_5,3,5,56,103,1982838036
2413,16,Jits_ISO_5,0,5,63,98,1983247788
2413,16,Jits_ISO_5,1,5,56,103,1983297992
2413,16,Jits_ISO_5,2,1,48,64,1983319096
2413,16,Jits_ISO_5,3,5,80,127,1983327732
2413,16,Jits_ISO_5,0,5,80,127,1983757840
2413,16,Jits_ISO_5,1,5,63,98,1983767888
2413,16,Jits_ISO_5,2,1,48,51,1983797228
2413,16,Jits_ISO_5,3,5,56,103,1983837852
2413,16,Jits_ISO_5,0,1,48,52,1984289472
2413,16,Jits_ISO_5,1,5,80,127,1984328008
2413,16,Jits_ISO_5,2,5,56,103,1984338276
2413,16,Jits_ISO_5,3,5,63,98,1984341716
2413,16,Jits_ISO_5,0,5,56,103,1984768460
2413,16,Jits_ISO_5,1,5,80,127,1984787820
2413,16,Jits_ISO_5,2,1,48,59,1984794304
2413,16,Jits_ISO_5,3,5,63,98,1984798084
2413,16,Jits_ISO_5,0,5,63,98,1985278460
2413,16,Jits_ISO_5,1,1,48,43,1985315912
2413,16,Jits_ISO_5,2,5,56,103,1985318344
2413,16,Jits_ISO_5,3,5,80,127,1985337680
2413,16,Jits_ISO_5,0,5,63,98,1985788164
2413,16,Jits_ISO_5,1,1,48,59,1985809664
2413,16,Jits_ISO_5,2,5,56,103,1985847596
2413,16,Jits_ISO_5,3,5,80,127,1985850664
2413,16,Jits_ISO_5,0,5,56,103,1986248108
2413,16,Jits_ISO_5,1,5,80,127,1986267672
2413,16,Jits_ISO_5,2,1,48,60,1986277088
2413,16,Jits_ISO_5,3,5,63,98,1986307676
2413,16,Jits_ISO_5,0,1,48,62,1986745508
2413,16,Jits_ISO_5,1,5,56,103,1986777444
2413,16,Jits_ISO_5,2,5,63,98,1986797976
2413,16,Jits_ISO_5,3,5,80,127,1986808320
2413,16,Jits_ISO_5,0,5,80,127,1987247660
2413,16,Jits_ISO_5,1,1,48,53,1987267644
2413,16,Jits_ISO_5,2,5,56,103,1987278152
2413,16,Jits_ISO_5,3,5,63,98,1987318016
2413,16,Jits_ISO_5,0,5,80,127,1987757596
2413,16,Jits_ISO_5,1,1,48,62,1987773372
2413,16,Jits_ISO_5,2,5,56,103,1987778048
2413,16,Jits_ISO_5,3,5,63,98,1987838360
2413,16,Jits_ISO_5,0,1,48,56,1988251912
2413,16,Jits_ISO_5,1,5,56,103,1988268500
2413,16,Jits_ISO_5,2,5,80,127,1988287836
2413,16,Jits_ISO_5,3,5,63,98,1988348520
2413,16,Jits_ISO_5,0,5,80,127,1988747564
2413,16,Jits_ISO_5,1,5,56,103,1988757760
2413,16,Jits_ISO_5,2,5,63,98,1988797772
2413,16,Jits_ISO_5,3,1,48,55,1988799636
2413,16,Jits_ISO_5,0,5,63,98,1989248580
2413,16,Jits_ISO_5,1,1,48,64,1989256652
2413,16,Jits_ISO_5,2,5,56,103,1989288584
2413,16,Jits_ISO_5,3,5,80,127,1989291652
2413,16,Jits_ISO_5,0,1,48,59,1989746472
2413,16,Jits_ISO_5,1,5,63,98,1989767624
2413,16,Jits_ISO_5,2,5,80,127,1989807636
2413,16,Jits_ISO_5,3,5,56,103,1989838132
2413,16,Jits_ISO_5,0,5,56,103,1990258072
2413,16,Jits_ISO_5,1,5,63,98,1990268568
2413,16,Jits_ISO_5,2,1,48,53,1990277240
2413,16,Jits_ISO_5,3,5,80,127,1990297936
2413,16,Jits_ISO_5,0,5,80,127,1990747628
2413,16,Jits_ISO_5,1,1,48,57,1990755008
2413,16,Jits_ISO_5,2,5,63,98,1990818352
2413,16,Jits_ISO_5,3,5,56,103,1990828472
2413,16,Jits_ISO_5,0,5,63,98,1991248276
2413,16,Jits_ISO_5,1,1,48,60,1991276728
2413,16,Jits_ISO_5,2,5,56,103,1991317804
2413,16,Jits_ISO_5,3,5,80,127,1991328368
2413,16,Jits_ISO_5,0,5,63,98,1991748084
2413,16,Jits_ISO_5,1,1,48,61,1991761320
2413,16,Jits_ISO_5,2,5,56,103,1991768464
2413,16,Jits_ISO_5,3,5,80,127,1991808552
2413,16,Jits_ISO_5,0,1,48,65,1992241860
2413,16,Jits_ISO_5,1,5,56,103,1992257776
2413,16,Jits_ISO_5,2,5,63,98,1992268344
2413,16,Jits_ISO_5,3,5,80,127,1992348120
2413,16,Jits_ISO_5,0,1,48,49,1992733576
2413,16,Jits_ISO_5,1,5,63,98,1992748516
2413,16,Jits_ISO_5,2,5,56,103,1992778568
2413,16,Jits_ISO_5,3,5,80,127,1992817908
2413,16,Jits_ISO_5,0,1,48,62,1993231368
2413,16,Jits_ISO_5,1,5,56,103,1993258288
2413,16,Jits_ISO_5,2,5,63,98,1993298228
2413,16,Jits_ISO_5,3,5,80,127,1993338448
2413,16,Jits_ISO_5,0,1,48,51,1993721256
2413,16,Jits_ISO_5,1,5,80,127,1993758096
2413,16,Jits_ISO_5,2,5,56,103,1993837876
2413,16,Jits_ISO_5,3,5,63,98,1993848292
2413,16,Jits_ISO_5,0,1,48,45,1994280208
2413,16,Jits_ISO_5,1,5,56,103,1994297688
2413,16,Jits_ISO_5,2,5,63,98,1994300904
2413,16,Jits_ISO_5,3,5,80,127,1994307808
2413,16,Jits_ISO_5,0,1,48,59,1994804192
2413,16,Jits_ISO_5,1,5,56,103,1994817864
2413,16,Jits_ISO_5,2,5,63,98,1994838324
2413,16,Jits_ISO_5,3,5,80,127,1994847548
2413,16,Jits_ISO_5,0,5,63,98,1995277676
2413,16,Jits_ISO_5,1,5,80,127,1995288172
2413,16,Jits_ISO_5,2,1,48,47,1995295872
2413,16,Jits_ISO_5,3,5,56,103,1995308400
2413,16,Jits_ISO_5,0,5,63,98,1995778360
2413,16,Jits_ISO_5,1,1,48,48,1995786056
2413,16,Jits_ISO_5,2,5,56,103,1995858244
2413,16,Jits_ISO_5,3,5,80,127,1995861312
2413,16,Jits_ISO_5,0,5,63,98,1996278088
2413,16,Jits_ISO_5,1,5,56,103,1996297500
2413,16,Jits_ISO_5,2,5,80,127,1996328244
2413,16,Jits_ISO_5,3,1,48,40,1996334800
2413,16,Jits_ISO_5,0,5,56,103,1996778044
2413,16,Jits_ISO_5,1,5,63,98,1996798280
2413,16,Jits_ISO_5,2,1,48,52,1996806136
2413,16,Jits_ISO_5,3,5,80,127,1996807716
2413,16,Jits_ISO_5,0,1,48,52,1997289600
2413,16,Jits_ISO_5,1,5,56,103,1997317496
2413,16,Jits_ISO_5,2,5,63,98,1997348240
2413,16,Jits_ISO_5,3,5,80,127,1997351532
2413,16,Jits_ISO_5,0,5,56,103,1997768228
2413,16,Jits_ISO_5,1,5,63,98,1997808168
2413,16,Jits_ISO_5,2,1,48,51,1997813008
2413,16,Jits_ISO_5,3,5,80,127,1997868348
2413,16,Jits_ISO_5,0,5,56,103,1998288356
2413,16,Jits_ISO_5,1,5,63,98,1998297432
2413,16,Jits_ISO_5,2,1,48,57,1998310516
2413,16,Jits_ISO_5,3,5,80,127,1998358056
2413,16,Jits_ISO_5,0,5,56,103,1998788176
2413,16,Jits_ISO_5,1,5,80,127,1998808340
2413,16,Jits_ISO_5,2,1,48,48,1998816708
2413,16,Jits_ISO_5,3,5,63,98,1998838080
2413,16,Jits_ISO_5,0,1,48,54,1999274028
2413,16,Jits_ISO_5,1,5,80,127,1999287696
2413,16,Jits_ISO_5,2,5,56,103,1999298116
2413,16,Jits_ISO_5,3,5,63,98,1999318348
2413,16,Jits_ISO_5,0,1,48,50,1999736908
2413,16,Jits_ISO_5,1,5,63,98,1999778136
2413,16,Jits_ISO_5,2,5,80,127,1999857988
2413,16,Jits_ISO_5,3,5,56,103,1999868184
2413,16,Jits_ISO_5,0,1,48,63,2000240604
2413,16,Jits_ISO_5,1,5,80,127,2000338316
2413,16,Jits_ISO_5,2,5,56,103,2000358032
2413,16,Jits_ISO_5,3,5,63,98,2000361092
2413,16,Jits_ISO_5,0,1,48,55,2000741012
2413,16,Jits_ISO_5,1,5,63,98,2000808464
2413,16,Jits_ISO_5,2,5,80,127,2000811680
2413,16,Jits_ISO_5,3,5,56,103,2000867644
2413,16,Jits_ISO_5,0,1,48,62,2001279920
2413,16,Jits_ISO_5,1,5,56,103,2001287592
2413,16,Jits_ISO_5,2,5,80,127,2001298012
2413,16,Jits_ISO_5,3,5,63,98,2001337652
2413,16,Jits_ISO_5,0,5,56,103,2001768004
2413,16,Jits_ISO_5,1,1,48,47,2001801392
2413,16,Jits_ISO_5,2,5,63,98,2001828388
2413,16,Jits_ISO_5,3,5,80,127,2001837460
2413,16,Jits_ISO_5,0,5,63,98,2002277864
2413,16,Jits_ISO_5,1,1,48,59,2002278828
2413,16,Jits_ISO_5,2,5,80,127,2002317648
2413,16,Jits_ISO_5,3,5,56,103,2002357732
2413,16,Jits_ISO_5,0,5,56,103,2002777376
2413,16,Jits_ISO_5,1,1,48,64,2002791056
2413,16,Jits_ISO_5,2,5,63,98,2002858356
2413,16,Jits_ISO_5,3,5,80,127,2002861720
2413,16,Jits_ISO_5,0,9999,9999,9999,1943466076
2413,16,Jits_ISO_5,1,9999,9999,9999,1943965780
2413,16,Jits_ISO_5,2,9999,9999,9999,1944465528
2413,16,Jits_ISO_5,3,9999,9999,9999,1944965200
2413,16,Jits_ISO_5,4,9999,9999,9999,1945465912
2413,16,Jits_ISO_5,5,9999,9999,9999,1945965652
2413,16,Jits_ISO_5,6,9999,9999,9999,1946465384
2413,16,Jits_ISO_5,7,9999,9999,9999,1946966104
2413,16,Jits_ISO_5,8,9999,9999,9999,1947476040
2413,16,Jits_ISO_5,9,9999,9999,9999,1947975788
2413,16,Jits_ISO_5,10,9999,9999,9999,1948475460
2413,16,Jits_ISO_5,11,9999,9999,9999,1948975208
2413,16,Jits_ISO_5,12,9999,9999,9999,1949475952
2413,16,Jits_ISO_5,13,9999,9999,9999,1949975648
2413,16,Jits_ISO_5,14,9999,9999,9999,1950475360
2413,16,Jits_ISO_5,15,9999,9999,9999,1950976060
2413,16,Jits_ISO_5,16,9999,9999,9999,1951486056
2413,16,Jits_ISO_5,17,9999,9999,9999,1951985788
2413,16,Jits_ISO_5,18,9999,9999,9999,1952485460
2413,16,Jits_ISO_5,19,9999,9999,9999,1952985196
2413,16,Jits_ISO_5,20,9999,9999,9999,1953485904
2413,16,Jits_ISO_5,21,9999,9999,9999,1953985636
2413,16,Jits_ISO_5,22,9999,9999,9999,1954485308
2413,16,Jits_ISO_5,23,9999,9999,9999,1954986104
2413,16,Jits_ISO_5,24,9999,9999,9999,1955485776
2413,16,Jits_ISO_5,25,9999,9999,9999,1955985516
2413,16,Jits_ISO_5,26,9999,9999,9999,1956485192
2413,16,Jits_ISO_5,27,9999,9999,9999,1956985960
2413,16,Jits_ISO_5,28,9999,9999,9999,1957485636
2413,16,Jits_ISO_5,29,9999,9999,9999,1957985384
2413,16,Jits_ISO_5,30,9999,9999,9999,1958486108
2413,16,Jits_ISO_5,31,9999,9999,9999,1958996048
2413,16,Jits_ISO_5,32,9999,9999,9999,1959495792
2413,16,Jits_ISO_5,33,9999,9999,9999,1959995468
2413,16,Jits_ISO_5,34,9999,9999,9999,1960495216
2413,16,Jits_ISO_5,35,9999,9999,9999,1960995936
2413,16,Jits_ISO_5,36,9999,9999,9999,1961495660
2413,16,Jits_ISO_5,37,9999,9999,9999,1961995372
2413,16,Jits_ISO_5,38,9999,9999,9999,1962496076
2413,16,Jits_ISO_5,39,9999,9999,9999,1963006076
2413,16,Jits_ISO_5,40,9999,9999,9999,1963505736
2413,16,Jits_ISO_5,41,9999,9999,9999,1964005484
2413,16,Jits_ISO_5,42,9999,9999,9999,1964505156
2413,16,Jits_ISO_5,43,9999,9999,9999,1965005932
2413,16,Jits_ISO_5,44,9999,9999,9999,1965505596
2413,16,Jits_ISO_5,45,9999,9999,9999,1966005328
2413,16,Jits_ISO_5,46,9999,9999,9999,1966506108
2413,16,Jits_ISO_5,47,9999,9999,9999,1967005768
2413,16,Jits_ISO_5,48,9999,9999,9999,1967505504
2413,16,Jits_ISO_5,49,9999,9999,9999,1968005184
2413,16,Jits_ISO_5,50,9999,9999,9999,1968505952
2413,16,Jits_ISO_5,51,9999,9999,9999,1969005628
2413,16,Jits_ISO_5,52,9999,9999,9999,1969505360
2413,16,Jits_ISO_5,53,9999,9999,9999,1970006088
2413,16,Jits_ISO_5,54,9999,9999,9999,1970516080
2413,16,Jits_ISO_5,55,9999,9999,9999,1971015756
2413,16,Jits_ISO_5,56,9999,9999,9999,1971515488
2413,16,Jits_ISO_5,57,9999,9999,9999,1972015160
2413,16,Jits_ISO_5,58,9999,9999,9999,1972515940
2413,16,Jits_ISO_5,59,9999,9999,9999,1973015652
2413,16,Jits_ISO_5,60,9999,9999,9999,1973515364
2413,16,Jits_ISO_5,61,9999,9999,9999,1974016060
2413,16,Jits_ISO_5,62,9999,9999,9999,1974526056
2413,16,Jits_ISO_5,63,9999,9999,9999,1975025716
2413,16,Jits_ISO_5,64,9999,9999,9999,1975525500
2413,16,Jits_ISO_5,65,9999,9999,9999,1976025156
2413,16,Jits_ISO_5,66,9999,9999,9999,1976525936
2413,16,Jits_ISO_5,67,9999,9999,9999,1977025656
2413,16,Jits_ISO_5,68,9999,9999,9999,1977525332
2413,16,Jits_ISO_5,69,9999,9999,9999,1978026056
2413,16,Jits_ISO_5,70,9999,9999,9999,1978525776
2413,16,Jits_ISO_5,71,9999,9999,9999,1979025528
2413,16,Jits_ISO_5,72,9999,9999,9999,1979525200
2413,16,Jits_ISO_5,73,9999,9999,9999,1980025904
2413,16,Jits_ISO_5,74,9999,9999,9999,1980525660
2413,16,Jits_ISO_5,75,9999,9999,9999,1981025392
2413,16,Jits_ISO_5,76,9999,9999,9999,1981526120
2413,16,Jits_ISO_5,77,9999,9999,9999,1982036044
2413,16,Jits_ISO_5,78,9999,9999,9999,1982535796
2413,16,Jits_ISO_5,79,9999,9999,9999,1983035472
2413,16,Jits_ISO_5,80,9999,9999,9999,1983535208
2413,16,Jits_ISO_5,81,9999,9999,9999,1984035964
2413,16,Jits_ISO_5,82,9999,9999,9999,1984535636
2413,16,Jits_ISO_5,83,9999,9999,9999,1985035344
2413,16,Jits_ISO_5,84,9999,9999,9999,1985536060
2413,16,Jits_ISO_5,85,9999,9999,9999,1986046056
2413,16,Jits_ISO_5,86,9999,9999,9999,1986545784
2413,16,Jits_ISO_5,87,9999,9999,9999,1987045456
2413,16,Jits_ISO_5,88,9999,9999,9999,1987545188
2413,16,Jits_ISO_5,89,9999,9999,9999,1988045908
2413,16,Jits_ISO_5,90,9999,9999,9999,1988545656
2413,16,Jits_ISO_5,91,9999,9999,9999,1989045312
2413,16,Jits_ISO_5,92,9999,9999,9999,1989546096
2413,16,Jits_ISO_5,93,9999,9999,9999,1990045756
2413,16,Jits_ISO_5,94,9999,9999,9999,1990545484
2413,16,Jits_ISO_5,95,9999,9999,9999,1991045232
2413,16,Jits_ISO_5,96,9999,9999,9999,1991545956
2413,16,Jits_ISO_5,97,9999,9999,9999,1992045688
2413,16,Jits_ISO_5,98,9999,9999,9999,1992545348
2413,16,Jits_ISO_5,99,9999,9999,9999,1993046128
2413,16,Jits_ISO_5,100,9999,9999,9999,1993556048
2413,16,Jits_ISO_5,101,9999,9999,9999,1994055780
2413,16,Jits_ISO_5,102,9999,9999,9999,1994555504
2413,16,Jits_ISO_5,103,9999,9999,9999,1995055168
2413,16,Jits_ISO_5,104,9999,9999,9999,1995555948
2413,16,Jits_ISO_5,105,9999,9999,9999,1996055604
2413,16,Jits_ISO_5,106,9999,9999,9999,1996555384
2413,16,Jits_ISO_5,107,9999,9999,9999,1997056092
2413,16,Jits_ISO_5,108,9999,9999,9999,1997566024
2413,16,Jits_ISO_5,109,9999,9999,9999,1998065760
2413,16,Jits_ISO_5,110,9999,9999,9999,1998565432
2413,16,Jits_ISO_5,111,9999,9999,9999,1999065180
2413,16,Jits_ISO_5,112,9999,9999,9999,1999565896
2413,16,Jits_ISO_5,113,9999,9999,9999,2000065632
2413,16,Jits_ISO_5,114,9999,9999,9999,2000565364
2413,16,Jits_ISO_5,115,9999,9999,9999,2001066064
2413,16,Jits_ISO_5,116,9999,9999,9999,2001565796
2413,16,Jits_ISO_5,117,9999,9999,9999,2002065532
2413,16,Jits_ISO_5,118,9999,9999,9999,2002565204
2413,16,Jits_ISO_5,119,9999,9999,9999,2003065976
2414,7,Jits_ISO_8,0,5,56,103,2018250072
2414,7,Jits_ISO_8,1,5,63,98,2018253168
2414,7,Jits_ISO_8,2,5,80,127,2018256216
2414,7,Jits_ISO_8,0,1,48,48,2018760224
2414,7,Jits_ISO_8,1,1,48,29,2018815340
2414,7,Jits_ISO_8,2,5,56,103,2019050028
2414,7,Jits_ISO_8,3,5,63,98,2019053200
2414,7,Jits_ISO_8,4,5,80,127,2019056320
2414,7,Jits_ISO_8,0,1,48,55,2019629768
2414,7,Jits_ISO_8,1,5,80,127,2019790116
2414,7,Jits_ISO_8,2,5,63,98,2019880276
2414,7,Jits_ISO_8,3,5,56,103,2019889500
2414,7,Jits_ISO_8,0,1,48,60,2020505892
2414,7,Jits_ISO_8,1,5,56,103,2020610280
2414,7,Jits_ISO_8,2,5,63,98,2020619752
2414,7,Jits_ISO_8,3,5,80,127,2020709884
2414,7,Jits_ISO_8,0,1,48,62,2021346584
2414,7,Jits_ISO_8,1,5,63,98,2021379508
2414,7,Jits_ISO_8,2,5,80,127,2021410180
2414,7,Jits_ISO_8,3,5,56,103,2021440004
2414,7,Jits_ISO_8,0,5,56,103,2022180216
2414,7,Jits_ISO_8,1,1,48,56,2022189112
2414,7,Jits_ISO_8,2,5,80,127,2022279416
2414,7,Jits_ISO_8,3,5,63,98,2022329676
2414,7,Jits_ISO_8,0,5,56,103,2022979944
2414,7,Jits_ISO_8,1,5,80,127,2023029996
2414,7,Jits_ISO_8,2,5,63,98,2023070084
2414,7,Jits_ISO_8,3,1,48,56,2023123840
2414,7,Jits_ISO_8,0,5,80,127,2023810384
2414,7,Jits_ISO_8,1,1,48,58,2023823764
2414,7,Jits_ISO_8,2,5,63,98,2023840128
2414,7,Jits_ISO_8,3,5,56,103,2023909736
2414,7,Jits_ISO_8,0,5,63,98,2024639928
2414,7,Jits_ISO_8,1,1,48,51,2024661852
2414,7,Jits_ISO_8,2,5,56,103,2024669820
2414,7,Jits_ISO_8,3,5,80,127,2024730012
2414,7,Jits_ISO_8,0,5,56,103,2025380228
2414,7,Jits_ISO_8,1,5,80,127,2025383220
2414,7,Jits_ISO_8,2,1,48,54,2025459616
2414,7,Jits_ISO_8,3,5,63,98,2025500124
2414,7,Jits_ISO_8,0,1,48,48,2026179692
2414,7,Jits_ISO_8,1,5,56,103,2026259904
2414,7,Jits_ISO_8,2,5,80,127,2026299756
2414,7,Jits_ISO_8,3,5,63,98,2026310176
2414,7,Jits_ISO_8,0,1,48,51,2026985836
2414,7,Jits_ISO_8,1,5,56,103,2027019760
2414,7,Jits_ISO_8,2,5,80,127,2027039996
2414,7,Jits_ISO_8,3,5,63,98,2027119924
2414,7,Jits_ISO_8,0,5,80,127,2027810116
2414,7,Jits_ISO_8,1,1,48,65,2027873544
2414,7,Jits_ISO_8,2,5,56,103,2027909608
2414,7,Jits_ISO_8,3,5,63,98,2027919656
2414,7,Jits_ISO_8,0,5,63,98,2028580172
2414,7,Jits_ISO_8,1,5,80,127,2028639592
2414,7,Jits_ISO_8,2,5,56,103,2028649716
2414,7,Jits_ISO_8,3,1,48,67,2028691792
2414,7,Jits_ISO_8,0,5,56,103,2029379804
2414,7,Jits_ISO_8,1,1,48,61,2029437532
2414,7,Jits_ISO_8,2,5,63,98,2029449628
2414,7,Jits_ISO_8,3,5,80,127,2029453068
2414,7,Jits_ISO_8,0,1,48,61,2030160380
2414,7,Jits_ISO_8,1,5,63,98,2030210452
2414,7,Jits_ISO_8,2,5,56,103,2030259684
2414,7,Jits_ISO_8,3,5,80,127,2030263560
2414,7,Jits_ISO_8,0,5,56,103,2030970148
2414,7,Jits_ISO_8,1,5,80,127,2030973364
2414,7,Jits_ISO_8,2,1,48,52,2031015968
2414,7,Jits_ISO_8,3,5,63,98,2031060648
2414,7,Jits_ISO_8,0,1,48,56,2031791408
2414,7,Jits_ISO_8,1,5,63,98,2031810012
2414,7,Jits_ISO_8,2,5,56,103,2031900160
2414,7,Jits_ISO_8,3,5,80,127,2031929760
2414,7,Jits_ISO_8,0,5,56,103,2032600592
2414,7,Jits_ISO_8,1,1,48,73,2032606176
2414,7,Jits_ISO_8,2,5,63,98,2032699740
2414,7,Jits_ISO_8,3,5,80,127,2032729476
2414,7,Jits_ISO_8,0,1,48,68,2033418248
2414,7,Jits_ISO_8,1,5,63,98,2033419824
2414,7,Jits_ISO_8,2,5,56,103,2033429796
2414,7,Jits_ISO_8,3,5,80,127,2033519912
2414,7,Jits_ISO_8,0,1,48,57,2034159544
2414,7,Jits_ISO_8,1,5,63,98,2034239988
2414,7,Jits_ISO_8,2,5,56,103,2034319844
2414,7,Jits_ISO_8,3,5,80,127,2034322836
2414,7,Jits_ISO_8,0,1,48,62,2034979208
2414,7,Jits_ISO_8,1,5,80,127,2034999684
2414,7,Jits_ISO_8,2,5,63,98,2035020072
2414,7,Jits_ISO_8,3,5,56,103,2035079472
2414,7,Jits_ISO_8,0,1,48,51,2035828820
2414,7,Jits_ISO_8,1,5,56,103,2035840228
2414,7,Jits_ISO_8,2,5,63,98,2035859788
2414,7,Jits_ISO_8,3,5,80,127,2035863524
2414,7,Jits_ISO_8,0,1,48,63,2036527376
2414,7,Jits_ISO_8,1,5,63,98,2036579764
2414,7,Jits_ISO_8,2,5,80,127,2036659472
2414,7,Jits_ISO_8,3,5,56,103,2036669744
2414,7,Jits_ISO_8,0,1,48,63,2037353596
2414,7,Jits_ISO_8,1,5,63,98,2037399852
2414,7,Jits_ISO_8,2,5,56,103,2037420536
2414,7,Jits_ISO_8,3,5,80,127,2037469528
2414,7,Jits_ISO_8,0,1,48,65,2038149340
2414,7,Jits_ISO_8,1,5,80,127,2038199636
2414,7,Jits_ISO_8,2,5,63,98,2038239576
2414,7,Jits_ISO_8,3,5,56,103,2038260316
2414,7,Jits_ISO_8,0,1,48,59,2038986196
2414,7,Jits_ISO_8,1,5,56,103,2039040252
2414,7,Jits_ISO_8,2,5,63,98,2039049800
2414,7,Jits_ISO_8,3,5,80,127,2039070032
2414,7,Jits_ISO_8,0,5,56,103,2039769320
2414,7,Jits_ISO_8,1,1,48,63,2039772292
2414,7,Jits_ISO_8,2,5,63,98,2039859472
2414,7,Jits_ISO_8,3,5,80,127,2039920220
2414,7,Jits_ISO_8,0,5,80,127,2040599860
2414,7,Jits_ISO_8,1,1,48,69,2040604548
2414,7,Jits_ISO_8,2,5,56,103,2040610124
2414,7,Jits_ISO_8,3,5,63,98,2040679804
2414,7,Jits_ISO_8,0,1,48,67,2041404188
2414,7,Jits_ISO_8,1,5,63,98,2041430368
2414,7,Jits_ISO_8,2,5,80,127,2041519444
2414,7,Jits_ISO_8,3,5,56,103,2041529712
2414,7,Jits_ISO_8,0,5,63,98,2042169852
2414,7,Jits_ISO_8,1,5,80,127,2042219836
2414,7,Jits_ISO_8,2,1,48,51,2042242284
2414,7,Jits_ISO_8,3,5,56,103,2042280292
2414,7,Jits_ISO_8,0,5,56,103,2043000128
2414,7,Jits_ISO_8,1,1,48,60,2043002576
2414,7,Jits_ISO_8,2,5,80,127,2043050252
2414,7,Jits_ISO_8,3,5,63,98,2043070036
2414,7,Jits_ISO_8,0,1,48,63,2043748276
2414,7,Jits_ISO_8,1,5,56,103,2043770180
2414,7,Jits_ISO_8,2,5,80,127,2043829600
2414,7,Jits_ISO_8,3,5,63,98,2043900236
2414,7,Jits_ISO_8,0,1,48,62,2044566104
2414,7,Jits_ISO_8,1,5,56,103,2044570036
2414,7,Jits_ISO_8,2,5,80,127,2044599936
2414,7,Jits_ISO_8,3,5,63,98,2044630288
2414,7,Jits_ISO_8,0,1,48,49,2045319816
2414,7,Jits_ISO_8,1,5,56,103,2045409676
2414,7,Jits_ISO_8,2,5,80,127,2045430120
2414,7,Jits_ISO_8,3,5,63,98,2045489488
2414,7,Jits_ISO_8,0,1,48,54,2046169948
2414,7,Jits_ISO_8,1,5,80,127,2046290312
2414,7,Jits_ISO_8,2,5,56,103,2046299460
2414,7,Jits_ISO_8,3,5,63,98,2046309732
2414,7,Jits_ISO_8,0,1,48,57,2047046624
2414,7,Jits_ISO_8,1,5,56,103,2047050184
2414,7,Jits_ISO_8,2,5,80,127,2047090052
2414,7,Jits_ISO_8,3,5,63,98,2047119876
2414,7,Jits_ISO_8,0,5,56,103,2047820092
2414,7,Jits_ISO_8,1,5,63,98,2047849772
2414,7,Jits_ISO_8,2,1,48,51,2047856704
2414,7,Jits_ISO_8,3,5,80,127,2047889848
2414,7,Jits_ISO_8,0,1,48,55,2048558952
2414,7,Jits_ISO_8,1,5,80,127,2048569612
2414,7,Jits_ISO_8,2,5,63,98,2048619892
2414,7,Jits_ISO_8,3,5,56,103,2048640576
2414,7,Jits_ISO_8,0,1,48,66,2049349584
2414,7,Jits_ISO_8,1,5,56,103,2049400108
2414,7,Jits_ISO_8,2,5,80,127,2049469776
2414,7,Jits_ISO_8,3,5,63,98,2049530164
2414,7,Jits_ISO_8,0,5,80,127,2050199972
2414,7,Jits_ISO_8,1,1,48,64,2050223172
2414,7,Jits_ISO_8,2,5,63,98,2050290176
2414,7,Jits_ISO_8,3,5,56,103,2050309664
2414,7,Jits_ISO_8,0,5,63,98,2051020080
2414,7,Jits_ISO_8,1,1,48,69,2051022016
2414,7,Jits_ISO_8,2,5,56,103,2051039560
2414,7,Jits_ISO_8,3,5,80,127,2051079648
2414,7,Jits_ISO_8,0,1,48,61,2051714028
2414,7,Jits_ISO_8,1,5,80,127,2051779920
2414,7,Jits_ISO_8,2,5,63,98,2051800604
2414,7,Jits_ISO_8,3,5,56,103,2051880484
2414,7,Jits_ISO_8,0,5,63,98,2052569592
2414,7,Jits_ISO_8,1,1,48,62,2052608528
2414,7,Jits_ISO_8,2,5,56,103,2052680048
2414,7,Jits_ISO_8,3,5,80,127,2052682964
2414,7,Jits_ISO_8,0,1,48,60,2053358248
2414,7,Jits_ISO_8,1,5,63,98,2053389540
2414,7,Jits_ISO_8,2,5,56,103,2053399956
2414,7,Jits_ISO_8,3,5,80,127,2053403096
2414,7,Jits_ISO_8,0,1,48,58,2054129992
2414,7,Jits_ISO_8,1,5,56,103,2054169972
2414,7,Jits_ISO_8,2,5,80,127,2054289836
2414,7,Jits_ISO_8,3,5,63,98,2054329700
2414,7,Jits_ISO_8,0,5,56,103,2054990292
2414,7,Jits_ISO_8,1,1,48,69,2055026592
2414,7,Jits_ISO_8,2,5,80,127,2055070160
2414,7,Jits_ISO_8,3,5,63,98,2055089572
2414,7,Jits_ISO_8,0,1,48,60,2055788280
2414,7,Jits_ISO_8,1,5,56,103,2055790012
2414,7,Jits_ISO_8,2,5,63,98,2055899536
2414,7,Jits_ISO_8,3,5,80,127,2055902828
2414,7,Jits_ISO_8,0,1,48,64,2056615380
2414,7,Jits_ISO_8,1,5,56,103,2056620356
2414,7,Jits_ISO_8,2,5,80,127,2056650332
2414,7,Jits_ISO_8,3,5,63,98,2056669444
2414,7,Jits_ISO_8,0,5,63,98,2057399692
2414,7,Jits_ISO_8,1,5,56,103,2057409888
2414,7,Jits_ISO_8,2,5,80,127,2057420160
2414,7,Jits_ISO_8,3,1,48,73,2057438568
2414,7,Jits_ISO_8,0,1,48,60,2058179508
2414,7,Jits_ISO_8,1,5,80,127,2058190172
2414,7,Jits_ISO_8,2,5,56,103,2058240448
2414,7,Jits_ISO_8,3,5,63,98,2058280396
2414,7,Jits_ISO_8,0,1,48,60,2058993368
2414,7,Jits_ISO_8,1,5,80,127,2059010332
2414,7,Jits_ISO_8,2,5,63,98,2059029844
2414,7,Jits_ISO_8,3,5,56,103,2059080196
2414,7,Jits_ISO_8,0,1,48,70,2059787644
2414,7,Jits_ISO_8,1,5,80,127,2059820332
2414,7,Jits_ISO_8,2,5,56,103,2059850304
2414,7,Jits_ISO_8,3,5,63,98,2059919672
2414,7,Jits_ISO_8,0,1,48,57,2060610348
2414,7,Jits_ISO_8,1,5,56,103,2060670312
2414,7,Jits_ISO_8,2,5,80,127,2060679464
2414,7,Jits_ISO_8,3,5,63,98,2060719384
2414,7,Jits_ISO_8,0,5,56,103,2061380124
2414,7,Jits_ISO_8,1,5,63,98,2061400436
2414,7,Jits_ISO_8,2,1,48,69,2061459900
2414,7,Jits_ISO_8,3,5,80,127,2061470256
2414,7,Jits_ISO_8,0,1,48,54,2062163100
2414,7,Jits_ISO_8,1,5,63,98,2062200140
2414,7,Jits_ISO_8,2,5,80,127,2062259560
2414,7,Jits_ISO_8,3,5,56,103,2062280152
2414,7,Jits_ISO_8,0,5,80,127,2062989816
2414,7,Jits_ISO_8,1,5,56,103,2063020468
2414,7,Jits_ISO_8,2,5,63,98,2063050064
2414,7,Jits_ISO_8,3,1,48,63,2063062772
2414,7,Jits_ISO_8,0,5,56,103,2063789460
2414,7,Jits_ISO_8,1,1,48,61,2063793100
2414,7,Jits_ISO_8,2,5,63,98,2063849920
2414,7,Jits_ISO_8,3,5,80,127,2063910320
2414,7,Jits_ISO_8,0,1,48,62,2064546960
2414,7,Jits_ISO_8,1,5,80,127,2064609556
2414,7,Jits_ISO_8,2,5,56,103,2064630164
2414,7,Jits_ISO_8,3,5,63,98,2064699708
2414,7,Jits_ISO_8,0,5,80,127,2065410396
2414,7,Jits_ISO_8,1,5,63,98,2065429980
2414,7,Jits_ISO_8,2,1,48,62,2065450112
2414,7,Jits_ISO_8,3,5,56,103,2065459428
2414,7,Jits_ISO_8,0,5,80,127,2066199876
2414,7,Jits_ISO_8,1,5,63,98,2066220484
2414,7,Jits_ISO_8,2,1,48,61,2066223456
2414,7,Jits_ISO_8,3,5,56,103,2066279900
2414,7,Jits_ISO_8,0,1,48,67,2066998772
2414,7,Jits_ISO_8,1,5,80,127,2067000568
2414,7,Jits_ISO_8,2,5,56,103,2067100052
2414,7,Jits_ISO_8,3,5,63,98,2067129876
2414,7,Jits_ISO_8,0,5,63,98,2067790244
2414,7,Jits_ISO_8,1,1,48,57,2067824452
2414,7,Jits_ISO_8,2,5,80,127,2067840444
2414,7,Jits_ISO_8,3,5,56,103,2067859856
2414,7,Jits_ISO_8,0,1,48,49,2068593136
2414,7,Jits_ISO_8,1,5,80,127,2068630028
2414,7,Jits_ISO_8,2,5,56,103,2068659776
2414,7,Jits_ISO_8,3,5,63,98,2068662696
2414,7,Jits_ISO_8,0,1,48,54,2069357464
2414,7,Jits_ISO_8,1,5,63,98,2069460284
2414,7,Jits_ISO_8,2,5,56,103,2069500224
2414,7,Jits_ISO_8,3,5,80,127,2069519808
2414,7,Jits_ISO_8,0,5,80,127,2070199856
2414,7,Jits_ISO_8,1,1,48,57,2070243656
2414,7,Jits_ISO_8,2,5,63,98,2070279820
2414,7,Jits_ISO_8,3,5,56,103,2070319684
2414,7,Jits_ISO_8,0,5,63,98,2071019740
2414,7,Jits_ISO_8,1,1,48,59,2071067920
2414,7,Jits_ISO_8,2,5,80,127,2071099704
2414,7,Jits_ISO_8,3,5,56,103,2071120388
2414,7,Jits_ISO_8,0,5,56,103,2071859860
2414,7,Jits_ISO_8,1,5,63,98,2071869908
2414,7,Jits_ISO_8,2,1,48,62,2071878880
2414,7,Jits_ISO_8,3,5,80,127,2071909692
2414,7,Jits_ISO_8,0,5,56,103,2072579468
2414,7,Jits_ISO_8,1,5,80,127,2072582536
2414,7,Jits_ISO_8,2,1,48,50,2072603484
2414,7,Jits_ISO_8,3,5,63,98,2072719848
2414,7,Jits_ISO_8,0,5,56,103,2073369964
2414,7,Jits_ISO_8,1,5,63,98,2073459952
2414,7,Jits_ISO_8,2,1,48,62,2073488320
2414,7,Jits_ISO_8,3,5,80,127,2073529700
2414,7,Jits_ISO_8,0,1,48,62,2074211308
2414,7,Jits_ISO_8,1,5,63,98,2074249548
2414,7,Jits_ISO_8,2,5,80,127,2074252840
2414,7,Jits_ISO_8,3,5,56,103,2074310072
2414,7,Jits_ISO_8,0,1,48,73,2075055144
2414,7,Jits_ISO_8,1,5,80,127,2075090536
2414,7,Jits_ISO_8,2,5,56,103,2075109728
2414,7,Jits_ISO_8,3,5,63,98,2075119996
2414,7,Jits_ISO_8,0,5,56,103,2075800052
2414,7,Jits_ISO_8,1,5,63,98,2075810100
2414,7,Jits_ISO_8,2,1,48,57,2075856140
2414,7,Jits_ISO_8,3,5,80,127,2075879996
2414,7,Jits_ISO_8,0,1,48,54,2076585944
2414,7,Jits_ISO_8,1,5,80,127,2076599692
2414,7,Jits_ISO_8,2,5,56,103,2076649748
2414,7,Jits_ISO_8,3,5,63,98,2076699884
2414,7,Jits_ISO_8,0,1,48,57,2077382892
2414,7,Jits_ISO_8,1,5,56,103,2077480328
2414,7,Jits_ISO_8,2,5,63,98,2077489628
2414,7,Jits_ISO_8,3,5,80,127,2077529564
2414,7,Jits_ISO_8,0,5,56,103,2078219532
2414,7,Jits_ISO_8,1,1,48,59,2078223096
2414,7,Jits_ISO_8,2,5,63,98,2078259468
2414,7,Jits_ISO_8,3,5,80,127,2078309816
2414,7,Jits_ISO_8,0,5,80,127,2078979372
2414,7,Jits_ISO_8,1,1,48,68,2079017940
2414,7,Jits_ISO_8,2,5,56,103,2079029596
2414,7,Jits_ISO_8,3,5,63,98,2079049980
2414,7,Jits_ISO_8,0,5,80,127,2079789532
2414,7,Jits_ISO_8,1,1,48,61,2079806876
2414,7,Jits_ISO_8,2,5,63,98,2079849768
2414,7,Jits_ISO_8,3,5,56,103,2079929844
2414,7,Jits_ISO_8,0,5,80,127,2080569848
2414,7,Jits_ISO_8,1,1,48,59,2080570740
2414,7,Jits_ISO_8,2,5,56,103,2080609560
2414,7,Jits_ISO_8,3,5,63,98,2080630392
2414,7,Jits_ISO_8,0,1,48,54,2081365704
2414,7,Jits_ISO_8,1,5,56,103,2081419684
2414,7,Jits_ISO_8,2,5,80,127,2081429808
2414,7,Jits_ISO_8,3,5,63,98,2081469732
2414,7,Jits_ISO_8,0,1,48,59,2082194564
2414,7,Jits_ISO_8,1,5,56,103,2082290272
2414,7,Jits_ISO_8,2,5,63,98,2082329996
2414,7,Jits_ISO_8,3,5,80,127,2082333436
2414,7,Jits_ISO_8,0,5,63,98,2082980296
2414,7,Jits_ISO_8,1,5,80,127,2083020088
2414,7,Jits_ISO_8,2,1,48,59,2083037900
2414,7,Jits_ISO_8,3,5,56,103,2083089712
2414,7,Jits_ISO_8,0,5,63,98,2083769740
2414,7,Jits_ISO_8,1,1,48,63,2083834740
2414,7,Jits_ISO_8,2,5,56,103,2083849632
2414,7,Jits_ISO_8,3,5,80,127,2083910244
2414,7,Jits_ISO_8,0,5,80,127,2084579564
2414,7,Jits_ISO_8,1,5,63,98,2084630016
2414,7,Jits_ISO_8,2,1,48,66,2084634036
2414,7,Jits_ISO_8,3,5,56,103,2084659536
2414,7,Jits_ISO_8,0,5,56,103,2085370292
2414,7,Jits_ISO_8,1,5,63,98,2085420300
2414,7,Jits_ISO_8,2,5,80,127,2085429744
2414,7,Jits_ISO_8,3,1,48,70,2085439612
2414,7,Jits_ISO_8,0,5,56,103,2086180224
2414,7,Jits_ISO_8,1,1,48,66,2086209724
2414,7,Jits_ISO_8,2,5,63,98,2086289908
2414,7,Jits_ISO_8,3,5,80,127,2086310204
2414,7,Jits_ISO_8,0,5,63,98,2086979948
2414,7,Jits_ISO_8,1,1,48,60,2086998880
2414,7,Jits_ISO_8,2,5,80,127,2087030068
2414,7,Jits_ISO_8,3,5,56,103,2087120260
2414,7,Jits_ISO_8,0,5,63,98,2087769544
2414,7,Jits_ISO_8,1,1,48,58,2087793864
2414,7,Jits_ISO_8,2,5,80,127,2087800108
2414,7,Jits_ISO_8,3,5,56,103,2087890228
2414,7,Jits_ISO_8,0,5,63,98,2088570220
2414,7,Jits_ISO_8,1,5,56,103,2088579444
2414,7,Jits_ISO_8,2,1,48,50,2088582416
2414,7,Jits_ISO_8,3,5,80,127,2088680040
2414,7,Jits_ISO_8,0,1,48,43,2089407344
2414,7,Jits_ISO_8,1,5,63,98,2089470392
2414,7,Jits_ISO_8,2,5,80,127,2089500752
2414,7,Jits_ISO_8,3,5,56,103,2089529976
2414,7,Jits_ISO_8,0,1,48,51,2090220484
2414,7,Jits_ISO_8,1,5,80,127,2090289616
2414,7,Jits_ISO_8,2,5,63,98,2090299812
2414,7,Jits_ISO_8,3,5,56,103,2090329548
2414,7,Jits_ISO_8,0,5,80,127,2090989816
2414,7,Jits_ISO_8,1,5,63,98,2091010424
2414,7,Jits_ISO_8,2,1,48,45,2091036940
2414,7,Jits_ISO_8,3,5,56,103,2091059672
2414,7,Jits_ISO_8,0,1,48,62,2091784880
2414,7,Jits_ISO_8,1,5,63,98,2091820352
2414,7,Jits_ISO_8,2,5,80,127,2091879696
2414,7,Jits_ISO_8,3,5,56,103,2091900140
2414,7,Jits_ISO_8,0,5,63,98,2092580284
2414,7,Jits_ISO_8,1,5,56,103,2092630340
2414,7,Jits_ISO_8,2,5,80,127,2092639708
2414,7,Jits_ISO_8,3,1,48,44,2092645368
2414,7,Jits_ISO_8,0,1,48,57,2093358680
2414,7,Jits_ISO_8,1,5,56,103,2093409800
2414,7,Jits_ISO_8,2,5,80,127,2093419848
2414,7,Jits_ISO_8,3,5,63,98,2093520228
2414,7,Jits_ISO_8,0,1,48,54,2094149100
2414,7,Jits_ISO_8,1,5,80,127,2094169576
2414,7,Jits_ISO_8,2,5,63,98,2094179920
2414,7,Jits_ISO_8,3,5,56,103,2094330200
2414,7,Jits_ISO_8,0,1,48,53,2094889244
2414,7,Jits_ISO_8,1,5,63,98,2094979696
2414,7,Jits_ISO_8,2,5,80,127,2095020820
2414,7,Jits_ISO_8,3,5,56,103,2095100240
2414,7,Jits_ISO_8,0,1,48,61,2095766184
2414,7,Jits_ISO_8,1,5,56,103,2095769968
2414,7,Jits_ISO_8,2,5,80,127,2095870424
2414,7,Jits_ISO_8,3,5,63,98,2095889712
2414,7,Jits_ISO_8,0,1,48,62,2096617288
2414,7,Jits_ISO_8,1,5,80,127,2096629988
2414,7,Jits_ISO_8,2,5,56,103,2096640708
2414,7,Jits_ISO_8,3,5,63,98,2096729576
2414,7,Jits_ISO_8,0,5,56,103,2097429808
2414,7,Jits_ISO_8,1,1,48,52,2097443488
2414,7,Jits_ISO_8,2,5,63,98,2097450484
2414,7,Jits_ISO_8,3,5,80,127,2097530204
2414,7,Jits_ISO_8,0,5,63,98,2098179384
2414,7,Jits_ISO_8,1,1,48,52,2098205592
2414,7,Jits_ISO_8,2,5,56,103,2098269536
2414,7,Jits_ISO_8,3,5,80,127,2098272604
2414,7,Jits_ISO_8,0,1,48,67,2098887476
2414,7,Jits_ISO_8,1,5,56,103,2099009952
2414,7,Jits_ISO_8,2,5,80,127,2099070492
2414,7,Jits_ISO_8,3,5,63,98,2099079640
2414,7,Jits_ISO_8,0,1,48,62,2099671092
2414,7,Jits_ISO_8,1,5,80,127,2099859860
2414,7,Jits_ISO_8,2,5,56,103,2099870276
2414,7,Jits_ISO_8,3,5,63,98,2099873492
2414,7,Jits_ISO_8,0,1,48,69,2100607316
2414,7,Jits_ISO_8,1,5,56,103,2100619488
2414,7,Jits_ISO_8,2,5,80,127,2100629832
2414,7,Jits_ISO_8,3,5,63,98,2100650368
2414,7,Jits_ISO_8,0,5,63,98,2101389680
2414,7,Jits_ISO_8,1,1,48,57,2101420300
2414,7,Jits_ISO_8,2,5,80,127,2101450288
2414,7,Jits_ISO_8,3,5,56,103,2101500340
2414,7,Jits_ISO_8,0,1,48,67,2102237068
2414,7,Jits_ISO_8,1,5,63,98,2102270444
2414,7,Jits_ISO_8,2,5,56,103,2102279548
2414,7,Jits_ISO_8,3,5,80,127,2102329660
2414,7,Jits_ISO_8,0,5,63,98,2102969620
2414,7,Jits_ISO_8,1,5,80,127,2102990304
2414,7,Jits_ISO_8,2,5,56,103,2103000428
2414,7,Jits_ISO_8,3,1,48,63,2103007748
2414,7,Jits_ISO_8,0,1,48,64,2103714432
2414,7,Jits_ISO_8,1,5,63,98,2103769384
2414,7,Jits_ISO_8,2,5,80,127,2103772748
2414,7,Jits_ISO_8,3,5,56,103,2103810520
2414,7,Jits_ISO_8,0,1,48,68,2104495240
2414,7,Jits_ISO_8,1,5,63,98,2104639956
2414,7,Jits_ISO_8,2,5,80,127,2104669488
2414,7,Jits_ISO_8,3,5,56,103,2104679980
2414,7,Jits_ISO_8,0,1,48,66,2105332792
2414,7,Jits_ISO_8,1,5,56,103,2105389484
2414,7,Jits_ISO_8,2,5,80,127,2105420284
2414,7,Jits_ISO_8,3,5,63,98,2105450092
2414,7,Jits_ISO_8,0,1,48,65,2106155516
2414,7,Jits_ISO_8,1,5,63,98,2106289576
2414,7,Jits_ISO_8,2,5,56,103,2106329516
2414,7,Jits_ISO_8,3,5,80,127,2106332580
2414,7,Jits_ISO_8,0,5,80,127,2106990180
2414,7,Jits_ISO_8,1,1,48,49,2107043948
2414,7,Jits_ISO_8,2,5,56,103,2107070048
2414,7,Jits_ISO_8,3,5,63,98,2107120176
2414,7,Jits_ISO_8,0,5,80,127,2107770276
2414,7,Jits_ISO_8,1,5,56,103,2107789616
2414,7,Jits_ISO_8,2,5,63,98,2107879896
2414,7,Jits_ISO_8,3,1,48,61,2107890432
2414,7,Jits_ISO_8,0,1,48,57,2108605620
2414,7,Jits_ISO_8,1,5,80,127,2108610368
2414,7,Jits_ISO_8,2,5,63,98,2108650084
2414,7,Jits_ISO_8,3,5,56,103,2108689900
2414,7,Jits_ISO_8,0,1,48,57,2109373492
2414,7,Jits_ISO_8,1,5,63,98,2109380112
2414,7,Jits_ISO_8,2,5,80,127,2109440432
2414,7,Jits_ISO_8,3,5,56,103,2109470204
2414,7,Jits_ISO_8,0,1,48,53,2110113108
2414,7,Jits_ISO_8,1,5,56,103,2110179892
2414,7,Jits_ISO_8,2,5,80,127,2110210380
2414,7,Jits_ISO_8,3,5,63,98,2110299640
2414,7,Jits_ISO_8,0,1,48,57,2110916708
2414,7,Jits_ISO_8,1,5,56,103,2110989964
2414,7,Jits_ISO_8,2,5,80,127,2111100240
2414,7,Jits_ISO_8,3,5,63,98,2111129916
2414,7,Jits_ISO_8,0,1,48,54,2111635272
2414,7,Jits_ISO_8,1,5,56,103,2111839784
2414,7,Jits_ISO_8,2,5,63,98,2111900028
2414,7,Jits_ISO_8,3,5,80,127,2111929852
2414,7,Jits_ISO_8,0,1,48,62,2112572508
2414,7,Jits_ISO_8,1,5,56,103,2112609768
2414,7,Jits_ISO_8,2,5,63,98,2112680336
2414,7,Jits_ISO_8,3,5,80,127,2112700044
2414,7,Jits_ISO_8,0,5,80,127,2113379964
2414,7,Jits_ISO_8,1,5,63,98,2113400128
2414,7,Jits_ISO_8,2,1,48,68,2113407512
2414,7,Jits_ISO_8,3,5,56,103,2113450396
2414,7,Jits_ISO_8,0,9999,9999,9999,2018647140
2414,7,Jits_ISO_8,1,9999,9999,9999,2019447920
2414,7,Jits_ISO_8,2,9999,9999,9999,2020247648
2414,7,Jits_ISO_8,3,9999,9999,9999,2021047356
2414,7,Jits_ISO_8,4,9999,9999,9999,2021847136
2414,7,Jits_ISO_8,5,9999,9999,9999,2022647892
2414,7,Jits_ISO_8,6,9999,9999,9999,2023447640
2414,7,Jits_ISO_8,7,9999,9999,9999,2024247368
2414,7,Jits_ISO_8,8,9999,9999,9999,2025047096
2414,7,Jits_ISO_8,9,9999,9999,9999,2025847920
2414,7,Jits_ISO_8,10,9999,9999,9999,2026647648
2414,7,Jits_ISO_8,11,9999,9999,9999,2027447360
2414,7,Jits_ISO_8,12,9999,9999,9999,2028247152
2414,7,Jits_ISO_8,13,9999,9999,9999,2029047920
2414,7,Jits_ISO_8,14,9999,9999,9999,2029847644
2414,7,Jits_ISO_8,15,9999,9999,9999,2030647360
2414,7,Jits_ISO_8,16,9999,9999,9999,2031447128
2414,7,Jits_ISO_8,17,9999,9999,9999,2032247904
2414,7,Jits_ISO_8,18,9999,9999,9999,2033047624
2414,7,Jits_ISO_8,19,9999,9999,9999,2033847348
2414,7,Jits_ISO_8,20,9999,9999,9999,2034647128
2414,7,Jits_ISO_8,21,9999,9999,9999,2035447884
2414,7,Jits_ISO_8,22,9999,9999,9999,2036247612
2414,7,Jits_ISO_8,23,9999,9999,9999,2037047396
2414,7,Jits_ISO_8,24,9999,9999,9999,2037847104
2414,7,Jits_ISO_8,25,9999,9999,9999,2038647860
2414,7,Jits_ISO_8,26,9999,9999,9999,2039447644
2414,7,Jits_ISO_8,27,9999,9999,9999,2040247356
2414,7,Jits_ISO_8,28,9999,9999,9999,2041047156
2414,7,Jits_ISO_8,29,9999,9999,9999,2041847860
2414,7,Jits_ISO_8,30,9999,9999,9999,2042647668
2414,7,Jits_ISO_8,31,9999,9999,9999,2043447376
2414,7,Jits_ISO_8,32,9999,9999,9999,2044247100
2414,7,Jits_ISO_8,33,9999,9999,9999,2045047924
2414,7,Jits_ISO_8,34,9999,9999,9999,2045847636
2414,7,Jits_ISO_8,35,9999,9999,9999,2046647356
2414,7,Jits_ISO_8,36,9999,9999,9999,2047447148
2414,7,Jits_ISO_8,37,9999,9999,9999,2048247908
2414,7,Jits_ISO_8,38,9999,9999,9999,2049047652
2414,7,Jits_ISO_8,39,9999,9999,9999,2049847364
2414,7,Jits_ISO_8,40,9999,9999,9999,2050647148
2414,7,Jits_ISO_8,41,9999,9999,9999,2051447920
2414,7,Jits_ISO_8,42,9999,9999,9999,2052247624
2414,7,Jits_ISO_8,43,9999,9999,9999,2053047396
2414,7,Jits_ISO_8,44,9999,9999,9999,2053847088
2414,7,Jits_ISO_8,45,9999,9999,9999,2054647920
2414,7,Jits_ISO_8,46,9999,9999,9999,2055447656
2414,7,Jits_ISO_8,47,9999,9999,9999,2056247372
2414,7,Jits_ISO_8,48,9999,9999,9999,2057047156
2414,7,Jits_ISO_8,49,9999,9999,9999,2057847904
2414,7,Jits_ISO_8,50,9999,9999,9999,2058647612
2414,7,Jits_ISO_8,51,9999,9999,9999,2059447396
2414,7,Jits_ISO_8,52,9999,9999,9999,2060247104
2414,7,Jits_ISO_8,53,9999,9999,9999,2061047868
2414,7,Jits_ISO_8,54,9999,9999,9999,2061847672
2414,7,Jits_ISO_8,55,9999,9999,9999,2062647392
2414,7,Jits_ISO_8,56,9999,9999,9999,2063447100
2414,7,Jits_ISO_8,57,9999,9999,9999,2064247868
2414,7,Jits_ISO_8,58,9999,9999,9999,2065047668
2414,7,Jits_ISO_8,59,9999,9999,9999,2065847376
2414,7,Jits_ISO_8,60,9999,9999,9999,2066647100
2414,7,Jits_ISO_8,61,9999,9999,9999,2067447872
2414,7,Jits_ISO_8,62,9999,9999,9999,2068247604
2414,7,Jits_ISO_8,63,9999,9999,9999,2069047380
2414,7,Jits_ISO_8,64,9999,9999,9999,2069847096
2414,7,Jits_ISO_8,65,9999,9999,9999,2070647928
2414,7,Jits_ISO_8,66,9999,9999,9999,2071447660
2414,7,Jits_ISO_8,67,9999,9999,9999,2072247372
2414,7,Jits_ISO_8,68,9999,9999,9999,2073047132
2414,7,Jits_ISO_8,69,9999,9999,9999,2073847904
2414,7,Jits_ISO_8,70,9999,9999,9999,2074647648
2414,7,Jits_ISO_8,71,9999,9999,9999,2075447368
2414,7,Jits_ISO_8,72,9999,9999,9999,2076247148
2414,7,Jits_ISO_8,73,9999,9999,9999,2077047920
2414,7,Jits_ISO_8,74,9999,9999,9999,2077847636
2414,7,Jits_ISO_8,75,9999,9999,9999,2078647348
2414,7,Jits_ISO_8,76,9999,9999,9999,2079447144
2414,7,Jits_ISO_8,77,9999,9999,9999,2080247916
2414,7,Jits_ISO_8,78,9999,9999,9999,2081047660
2414,7,Jits_ISO_8,79,9999,9999,9999,2081847384
2414,7,Jits_ISO_8,80,9999,9999,9999,2082647096
2414,7,Jits_ISO_8,81,9999,9999,9999,2083447924
2414,7,Jits_ISO_8,82,9999,9999,9999,2084247628
2414,7,Jits_ISO_8,83,9999,9999,9999,2085047412
2414,7,Jits_ISO_8,84,9999,9999,9999,2085847128
2414,7,Jits_ISO_8,85,9999,9999,9999,2086647900
2414,7,Jits_ISO_8,86,9999,9999,9999,2087447648
2414,7,Jits_ISO_8,87,9999,9999,9999,2088247352
2414,7,Jits_ISO_8,88,9999,9999,9999,2089047132
2414,7,Jits_ISO_8,89,9999,9999,9999,2089847900
2414,7,Jits_ISO_8,90,9999,9999,9999,2090647616
2414,7,Jits_ISO_8,91,9999,9999,9999,2091447400
2414,7,Jits_ISO_8,92,9999,9999,9999,2092247128
2414,7,Jits_ISO_8,93,9999,9999,9999,2093047880
2414,7,Jits_ISO_8,94,9999,9999,9999,2093847616
2414,7,Jits_ISO_8,95,9999,9999,9999,2094647396
2414,7,Jits_ISO_8,96,9999,9999,9999,2095447108
2414,7,Jits_ISO_8,97,9999,9999,9999,2096247860
2414,7,Jits_ISO_8,98,9999,9999,9999,2097047648
2414,7,Jits_ISO_8,99,9999,9999,9999,2097847364
2414,7,Jits_ISO_8,100,9999,9999,9999,2098647148
2414,7,Jits_ISO_8,101,9999,9999,9999,2099447904
2414,7,Jits_ISO_8,102,9999,9999,9999,2100247628
2414,7,Jits_ISO_8,103,9999,9999,9999,2101047408
2414,7,Jits_ISO_8,104,9999,9999,9999,2101847116
2414,7,Jits_ISO_8,105,9999,9999,9999,2102647876
2414,7,Jits_ISO_8,106,9999,9999,9999,2103447652
2414,7,Jits_ISO_8,107,9999,9999,9999,2104247412
2414,7,Jits_ISO_8,108,9999,9999,9999,2105047120
2414,7,Jits_ISO_8,109,9999,9999,9999,2105847872
2414,7,Jits_ISO_8,110,9999,9999,9999,2106647608
2414,7,Jits_ISO_8,111,9999,9999,9999,2107447396
2414,7,Jits_ISO_8,112,9999,9999,9999,2108247112
2414,7,Jits_ISO_8,113,9999,9999,9999,2109047884
2414,7,Jits_ISO_8,114,9999,9999,9999,2109847668
2414,7,Jits_ISO_8,115,9999,9999,9999,2110647376
2414,7,Jits_ISO_8,116,9999,9999,9999,2111447164
2414,7,Jits_ISO_8,117,9999,9999,9999,2112247924
2414,7,Jits_ISO_8,118,9999,9999,9999,2113047660
2414,7,Jits_ISO_8,119,9999,9999,9999,2113847364
2415,19,Jits_Linear_5,0,5,56,103,2137084216
2415,19,Jits_Linear_5,1,5,63,98,2137087688
2415,19,Jits_Linear_5,2,5,80,127,2137090760
2415,19,Jits_Linear_5,0,1,48,43,2137476772
2415,19,Jits_Linear_5,1,5,56,103,2137563696
2415,19,Jits_Linear_5,2,5,63,98,2137566796
2415,19,Jits_Linear_5,3,5,80,127,2137569916
2415,19,Jits_Linear_5,0,1,48,54,2138019668
2415,19,Jits_Linear_5,1,5,56,103,2138043904
2415,19,Jits_Linear_5,2,5,80,127,2138053952
2415,19,Jits_Linear_5,3,5,63,98,2138073588
2415,19,Jits_Linear_5,0,5,63,98,2138473924
2415,19,Jits_Linear_5,1,1,48,56,2138503304
2415,19,Jits_Linear_5,2,5,80,127,2138504864
2415,19,Jits_Linear_5,3,5,56,103,2138513864
2415,19,Jits_Linear_5,0,1,48,57,2138946600
2415,19,Jits_Linear_5,1,5,80,127,2139013536
2415,19,Jits_Linear_5,2,5,56,103,2139023660
2415,19,Jits_Linear_5,3,5,63,98,2139053544
2415,19,Jits_Linear_5,0,5,63,98,2139493680
2415,19,Jits_Linear_5,1,1,48,61,2139515380
2415,19,Jits_Linear_5,2,5,56,103,2139523724
2415,19,Jits_Linear_5,3,5,80,127,2139533624
2415,19,Jits_Linear_5,0,5,56,103,2139934032
2415,19,Jits_Linear_5,1,1,48,58,2139969888
2415,19,Jits_Linear_5,2,5,63,98,2139984380
2415,19,Jits_Linear_5,3,5,80,127,2140003792
2415,19,Jits_Linear_5,0,5,80,127,2140423696
2415,19,Jits_Linear_5,1,1,48,57,2140459032
2415,19,Jits_Linear_5,2,5,63,98,2140473672
2415,19,Jits_Linear_5,3,5,56,103,2140513608
2415,19,Jits_Linear_5,0,5,56,103,2140913932
2415,19,Jits_Linear_5,1,5,63,98,2140943784
2415,19,Jits_Linear_5,2,1,48,67,2140952228
2415,19,Jits_Linear_5,3,5,80,127,2141014504
2415,19,Jits_Linear_5,0,5,56,103,2141403592
2415,19,Jits_Linear_5,1,1,48,68,2141450564
2415,19,Jits_Linear_5,2,5,80,127,2141463856
2415,19,Jits_Linear_5,3,5,63,98,2141493608
2415,19,Jits_Linear_5,0,5,56,103,2141904336
2415,19,Jits_Linear_5,1,5,63,98,2141913488
2415,19,Jits_Linear_5,2,1,48,61,2141938328
2415,19,Jits_Linear_5,3,5,80,127,2141954344
2415,19,Jits_Linear_5,0,5,63,98,2142393624
2415,19,Jits_Linear_5,1,1,48,52,2142431276
2415,19,Jits_Linear_5,2,5,80,127,2142473592
2415,19,Jits_Linear_5,3,5,56,103,2142483940
2415,19,Jits_Linear_5,0,1,48,46,2142910056
2415,19,Jits_Linear_5,1,5,63,98,2142943584
2415,19,Jits_Linear_5,2,5,56,103,2142983548
2415,19,Jits_Linear_5,3,5,80,127,2142986616
2415,19,Jits_Linear_5,0,5,56,103,2143404536
2415,19,Jits_Linear_5,1,5,63,98,2143413536
2415,19,Jits_Linear_5,2,1,48,47,2143428112
2415,19,Jits_Linear_5,3,5,80,127,2143453468
2415,19,Jits_Linear_5,0,5,56,103,2143893896
2415,19,Jits_Linear_5,1,5,63,98,2143896812
2415,19,Jits_Linear_5,2,5,80,127,2143914280
2415,19,Jits_Linear_5,3,1,48,63,2143930876
2415,19,Jits_Linear_5,0,5,80,127,2144414188
2415,19,Jits_Linear_5,1,5,56,103,2144424236
2415,19,Jits_Linear_5,2,1,48,64,2144437992
2415,19,Jits_Linear_5,3,5,63,98,2144493836
2415,19,Jits_Linear_5,0,5,63,98,2144913740
2415,19,Jits_Linear_5,1,5,56,103,2144934348
2415,19,Jits_Linear_5,2,1,48,69,2144956196
2415,19,Jits_Linear_5,3,5,80,127,2145014064
2415,19,Jits_Linear_5,0,1,48,66,2145406276
2415,19,Jits_Linear_5,1,5,56,103,2145434096
2415,19,Jits_Linear_5,2,5,80,127,2145473816
2415,19,Jits_Linear_5,3,5,63,98,2145484384
2415,19,Jits_Linear_5,0,5,80,127,2145933644
2415,19,Jits_Linear_5,1,1,48,64,2145955344
2415,19,Jits_Linear_5,2,5,63,98,2145964508
2415,19,Jits_Linear_5,3,5,56,103,2146004300
2415,19,Jits_Linear_5,0,1,48,64,2146432788
2415,19,Jits_Linear_5,1,5,56,103,2146464280
2415,19,Jits_Linear_5,2,5,63,98,2146493956
2415,19,Jits_Linear_5,3,5,80,127,2146544292
2415,19,Jits_Linear_5,0,1,48,62,2146961308
2415,19,Jits_Linear_5,1,5,80,127,2146974160
2415,19,Jits_Linear_5,2,5,56,103,2147013952
2415,19,Jits_Linear_5,3,5,63,98,2147024368
2415,19,Jits_Linear_5,0,5,80,127,2147473628
2415,19,Jits_Linear_5,1,5,63,98,2147513644
2415,19,Jits_Linear_5,2,1,48,65,2147538188
2415,19,Jits_Linear_5,3,5,56,103,2147574176
2415,19,Jits_Linear_5,0,1,48,66,2147988724
2415,19,Jits_Linear_5,1,5,56,103,2147994072
2415,19,Jits_Linear_5,2,5,80,127,2148004196
2415,19,Jits_Linear_5,3,5,63,98,2148084364
2415,19,Jits_Linear_5,0,1,48,55,2148510280
2415,19,Jits_Linear_5,1,5,80,127,2148514136
2415,19,Jits_Linear_5,2,5,63,98,2148573412
2415,19,Jits_Linear_5,3,5,56,103,2148604280
2415,19,Jits_Linear_5,0,5,56,103,2149043420
2415,19,Jits_Linear_5,1,1,48,67,2149061832
2415,19,Jits_Linear_5,2,5,80,127,2149104180
2415,19,Jits_Linear_5,3,5,63,98,2149144068
2415,19,Jits_Linear_5,0,1,48,68,2149545412
2415,19,Jits_Linear_5,1,5,56,103,2149624260
2415,19,Jits_Linear_5,2,5,63,98,2149634628
2415,19,Jits_Linear_5,3,5,80,127,2149637916
2415,19,Jits_Linear_5,0,5,80,127,2150104532
2415,19,Jits_Linear_5,1,1,48,66,2150130124
2415,19,Jits_Linear_5,2,5,63,98,2150193568
2415,19,Jits_Linear_5,3,5,56,103,2150203840
2415,19,Jits_Linear_5,0,1,48,57,2150628996
2415,19,Jits_Linear_5,1,5,56,103,2150634108
2415,19,Jits_Linear_5,2,5,63,98,2150637280
2415,19,Jits_Linear_5,3,5,80,127,2150640252
2415,19,Jits_Linear_5,0,1,48,61,2151127908
2415,19,Jits_Linear_5,1,5,80,127,2151184080
2415,19,Jits_Linear_5,2,5,63,98,2151234348
2415,19,Jits_Linear_5,3,5,56,103,2151263724
2415,19,Jits_Linear_5,0,5,56,103,2151693820
2415,19,Jits_Linear_5,1,5,80,127,2151704088
2415,19,Jits_Linear_5,2,1,48,65,2151717248
2415,19,Jits_Linear_5,3,5,63,98,2151773768
2415,19,Jits_Linear_5,0,1,48,51,2152228688
2415,19,Jits_Linear_5,1,5,56,103,2152234268
2415,19,Jits_Linear_5,2,5,63,98,2152253980
2415,19,Jits_Linear_5,3,5,80,127,2152314148
2415,19,Jits_Linear_5,0,1,48,46,2152747704
2415,19,Jits_Linear_5,1,5,80,127,2152763996
2415,19,Jits_Linear_5,2,5,63,98,2152834280
2415,19,Jits_Linear_5,3,5,56,103,2152854052
2415,19,Jits_Linear_5,0,1,48,61,2153288828
2415,19,Jits_Linear_5,1,5,80,127,2153323848
2415,19,Jits_Linear_5,2,5,56,103,2153334268
2415,19,Jits_Linear_5,3,5,63,98,2153344388
2415,19,Jits_Linear_5,0,1,48,52,2153796824
2415,19,Jits_Linear_5,1,5,80,127,2153854248
2415,19,Jits_Linear_5,2,5,56,103,2153873956
2415,19,Jits_Linear_5,3,5,63,98,2153944448
2415,19,Jits_Linear_5,0,1,48,59,2154362976
2415,19,Jits_Linear_5,1,5,56,103,2154404204
2415,19,Jits_Linear_5,2,5,80,127,2154434028
2415,19,Jits_Linear_5,3,5,63,98,2154454340
2415,19,Jits_Linear_5,0,1,48,57,2154927684
2415,19,Jits_Linear_5,1,5,63,98,2154943824
2415,19,Jits_Linear_5,2,5,56,103,2155004144
2415,19,Jits_Linear_5,3,5,80,127,2155033908
2415,19,Jits_Linear_5,0,5,63,98,2155483600
2415,19,Jits_Linear_5,1,5,80,127,2155486888
2415,19,Jits_Linear_5,2,1,48,62,2155513396
2415,19,Jits_Linear_5,3,5,56,103,2155573828
2415,19,Jits_Linear_5,0,5,56,103,2156053732
2415,19,Jits_Linear_5,1,1,48,60,2156064872
2415,19,Jits_Linear_5,2,5,63,98,2156083700
2415,19,Jits_Linear_5,3,5,80,127,2156123640
2415,19,Jits_Linear_5,0,5,63,98,2156603932
2415,19,Jits_Linear_5,1,5,56,103,2156643872
2415,19,Jits_Linear_5,2,1,48,66,2156644764
2415,19,Jits_Linear_5,3,5,80,127,2156664100
2415,19,Jits_Linear_5,0,1,48,63,2157160668
2415,19,Jits_Linear_5,1,5,63,98,2157163776
2415,19,Jits_Linear_5,2,5,56,103,2157203868
2415,19,Jits_Linear_5,3,5,80,127,2157214136
2415,19,Jits_Linear_5,0,5,80,127,2157694260
2415,19,Jits_Linear_5,1,1,48,70,2157726076
2415,19,Jits_Linear_5,2,5,63,98,2157763864
2415,19,Jits_Linear_5,3,5,56,103,2157784548
2415,19,Jits_Linear_5,0,5,56,103,2158244160
2415,19,Jits_Linear_5,1,5,80,127,2158263652
2415,19,Jits_Linear_5,2,5,63,98,2158303588
2415,19,Jits_Linear_5,3,1,48,69,2158318168
2415,19,Jits_Linear_5,0,5,63,98,2158813760
2415,19,Jits_Linear_5,1,5,80,127,2158834072
2415,19,Jits_Linear_5,2,1,48,66,2158858040
2415,19,Jits_Linear_5,3,5,56,103,2158873956
2415,19,Jits_Linear_5,0,5,63,98,2159373784
2415,19,Jits_Linear_5,1,5,56,103,2159394092
2415,19,Jits_Linear_5,2,5,80,127,2159404364
2415,19,Jits_Linear_5,3,1,48,62,2159410848
2415,19,Jits_Linear_5,0,5,80,127,2159933852
2415,19,Jits_Linear_5,1,5,56,103,2159954312
2415,19,Jits_Linear_5,2,1,48,46,2159959452
2415,19,Jits_Linear_5,3,5,63,98,2159983908
2415,19,Jits_Linear_5,0,1,48,76,2160518256
2415,19,Jits_Linear_5,1,5,56,103,2160573876
2415,19,Jits_Linear_5,2,5,80,127,2160576868
2415,19,Jits_Linear_5,3,5,63,98,2160594264
2415,19,Jits_Linear_5,0,5,63,98,2161064424
2415,19,Jits_Linear_5,1,5,56,103,2161093880
2415,19,Jits_Linear_5,2,1,48,76,2161094844
2415,19,Jits_Linear_5,3,5,80,127,2161154660
2415,19,Jits_Linear_5,0,1,48,72,2161636000
2415,19,Jits_Linear_5,1,5,63,98,2161713604
2415,19,Jits_Linear_5,2,5,56,103,2161723724
2415,19,Jits_Linear_5,3,5,80,127,2161733904
2415,19,Jits_Linear_5,0,5,56,103,2162233676
2415,19,Jits_Linear_5,1,5,80,127,2162264552
2415,19,Jits_Linear_5,2,5,63,98,2162273628
2415,19,Jits_Linear_5,3,1,48,77,2162315480
2415,19,Jits_Linear_5,0,5,63,98,2162843968
2415,19,Jits_Linear_5,1,5,56,103,2162854240
2415,19,Jits_Linear_5,2,1,48,70,2162866428
2415,19,Jits_Linear_5,3,5,80,127,2162873724
2415,19,Jits_Linear_5,0,5,56,103,2163343808
2415,19,Jits_Linear_5,1,5,63,98,2163404276
2415,19,Jits_Linear_5,2,5,80,127,2163407640
2415,19,Jits_Linear_5,3,1,48,63,2163416312
2415,19,Jits_Linear_5,0,5,80,127,2163943744
2415,19,Jits_Linear_5,1,5,56,103,2163954016
2415,19,Jits_Linear_5,2,1,48,70,2163958180
2415,19,Jits_Linear_5,3,5,63,98,2164023716
2415,19,Jits_Linear_5,0,1,48,62,2164504796
2415,19,Jits_Linear_5,1,5,80,127,2164514112
2415,19,Jits_Linear_5,2,5,56,103,2164583872
2415,19,Jits_Linear_5,3,1,48,35,2164587876
2415,19,Jits_Linear_5,4,5,63,98,2164594120
2415,19,Jits_Linear_5,0,5,63,98,2165133732
2415,19,Jits_Linear_5,1,5,56,103,2165143928
2415,19,Jits_Linear_5,2,5,80,127,2165164536
2415,19,Jits_Linear_5,3,1,48,67,2165274744
2415,19,Jits_Linear_5,0,5,80,127,2165664136
2415,19,Jits_Linear_5,1,5,63,98,2165723484
2415,19,Jits_Linear_5,2,5,56,103,2165763524
2415,19,Jits_Linear_5,3,1,48,61,2165868896
2415,19,Jits_Linear_5,0,5,56,103,2166293856
2415,19,Jits_Linear_5,1,5,63,98,2166304052
2415,19,Jits_Linear_5,2,5,80,127,2166343916
2415,19,Jits_Linear_5,3,1,48,60,2166366364
2415,19,Jits_Linear_5,0,5,56,103,2166843752
2415,19,Jits_Linear_5,1,5,80,127,2166873432
2415,19,Jits_Linear_5,2,1,48,55,2166890400
2415,19,Jits_Linear_5,3,5,63,98,2166923624
2415,19,Jits_Linear_5,0,1,48,75,2167461412
2415,19,Jits_Linear_5,1,5,56,103,2167473512
2415,19,Jits_Linear_5,2,5,63,98,2167513452
2415,19,Jits_Linear_5,3,5,80,127,2167516812
2415,19,Jits_Linear_5,0,1,48,68,2168028452
2415,19,Jits_Linear_5,1,5,56,103,2168064396
2415,19,Jits_Linear_5,2,5,63,98,2168073544
2415,19,Jits_Linear_5,3,5,80,127,2168094300
2415,19,Jits_Linear_5,0,5,56,103,2168614208
2415,19,Jits_Linear_5,1,5,80,127,2168617272
2415,19,Jits_Linear_5,2,1,48,59,2168641440
2415,19,Jits_Linear_5,3,5,63,98,2168654436
2415,19,Jits_Linear_5,0,1,48,53,2169233820
2415,19,Jits_Linear_5,1,5,63,98,2169244180
2415,19,Jits_Linear_5,2,5,56,103,2169273788
2415,19,Jits_Linear_5,3,5,80,127,2169294392
2415,19,Jits_Linear_5,0,1,48,59,2169775312
2415,19,Jits_Linear_5,1,5,80,127,2169814372
2415,19,Jits_Linear_5,2,5,56,103,2169823672
2415,19,Jits_Linear_5,3,5,63,98,2169833792
2415,19,Jits_Linear_5,0,1,48,63,2170364300
2415,19,Jits_Linear_5,1,5,56,103,2170413428
2415,19,Jits_Linear_5,2,5,80,127,2170454488
2415,19,Jits_Linear_5,3,5,63,98,2170484076
2415,19,Jits_Linear_5,0,1,48,63,2171004944
2415,19,Jits_Linear_5,1,5,63,98,2171034112
2415,19,Jits_Linear_5,2,5,80,127,2171044160
2415,19,Jits_Linear_5,3,5,56,103,2171053384
2415,19,Jits_Linear_5,0,1,48,64,2171590324
2415,19,Jits_Linear_5,1,5,56,103,2171613516
2415,19,Jits_Linear_5,2,5,63,98,2171684196
2415,19,Jits_Linear_5,3,5,80,127,2171693408
2415,19,Jits_Linear_5,0,5,80,127,2172223968
2415,19,Jits_Linear_5,1,5,56,103,2172234240
2415,19,Jits_Linear_5,2,1,48,72,2172253168
2415,19,Jits_Linear_5,3,5,63,98,2172284212
2415,19,Jits_Linear_5,0,1,48,64,2172827772
2415,19,Jits_Linear_5,1,5,80,127,2172844284
2415,19,Jits_Linear_5,2,5,56,103,2172903928
2415,19,Jits_Linear_5,3,5,63,98,2172933468
2415,19,Jits_Linear_5,0,5,56,103,2173453536
2415,19,Jits_Linear_5,1,5,80,127,2173456608
2415,19,Jits_Linear_5,2,1,48,63,2173478160
2415,19,Jits_Linear_5,3,5,63,98,2173493696
2415,19,Jits_Linear_5,0,1,48,57,2174048188
2415,19,Jits_Linear_5,1,5,56,103,2174093700
2415,19,Jits_Linear_5,2,5,63,98,2174124352
2415,19,Jits_Linear_5,3,5,80,127,2174133576
2415,19,Jits_Linear_5,0,1,48,59,2174661680
2415,19,Jits_Linear_5,1,5,63,98,2174714236
2415,19,Jits_Linear_5,2,5,80,127,2174723336
2415,19,Jits_Linear_5,3,5,56,103,2174733532
2415,19,Jits_Linear_5,0,5,80,127,2175274344
2415,19,Jits_Linear_5,1,1,48,57,2175294628
2415,19,Jits_Linear_5,2,5,56,103,2175323644
2415,19,Jits_Linear_5,3,5,63,98,2175326856
2415,19,Jits_Linear_5,0,1,48,59,2175892012
2415,19,Jits_Linear_5,1,5,56,103,2175923576
2415,19,Jits_Linear_5,2,5,80,127,2175944036
2415,19,Jits_Linear_5,3,5,63,98,2175954156
2415,19,Jits_Linear_5,0,5,63,98,2176523828
2415,19,Jits_Linear_5,1,1,48,59,2176539008
2415,19,Jits_Linear_5,2,5,56,103,2176554396
2415,19,Jits_Linear_5,3,5,80,127,2176573960
2415,19,Jits_Linear_5,0,1,48,42,2177143728
2415,19,Jits_Linear_5,1,5,56,103,2177154468
2415,19,Jits_Linear_5,2,5,80,127,2177163840
2415,19,Jits_Linear_5,3,5,63,98,2177234272
2415,19,Jits_Linear_5,0,5,63,98,2177763772
2415,19,Jits_Linear_5,1,1,48,62,2177766964
2415,19,Jits_Linear_5,2,5,80,127,2177803804
2415,19,Jits_Linear_5,3,5,56,103,2177843520
2415,19,Jits_Linear_5,0,1,48,60,2178381812
2415,19,Jits_Linear_5,1,5,56,103,2178403952
2415,19,Jits_Linear_5,2,5,63,98,2178413928
2415,19,Jits_Linear_5,3,5,80,127,2178434608
2415,19,Jits_Linear_5,0,1,48,64,2178998008
2415,19,Jits_Linear_5,1,5,63,98,2179074560
2415,19,Jits_Linear_5,2,5,80,127,2179093900
2415,19,Jits_Linear_5,3,5,56,103,2179114420
2415,19,Jits_Linear_5,0,5,56,103,2179643712
2415,19,Jits_Linear_5,1,1,48,67,2179657844
2415,19,Jits_Linear_5,2,5,80,127,2179723876
2415,19,Jits_Linear_5,3,5,63,98,2179733924
2415,19,Jits_Linear_5,0,1,48,65,2180308356
2415,19,Jits_Linear_5,1,5,80,127,2180313704
2415,19,Jits_Linear_5,2,5,63,98,2180323828
2415,19,Jits_Linear_5,3,5,56,103,2180354352
2415,19,Jits_Linear_5,0,5,63,98,2180904304
2415,19,Jits_Linear_5,1,1,48,67,2180917236
2415,19,Jits_Linear_5,2,5,80,127,2180944240
2415,19,Jits_Linear_5,3,5,56,103,2181003880
2415,19,Jits_Linear_5,0,1,48,55,2181502784
2415,19,Jits_Linear_5,1,5,63,98,2181544164
2415,19,Jits_Linear_5,2,5,56,103,2181593696
2415,19,Jits_Linear_5,3,5,80,127,2181624104
2415,19,Jits_Linear_5,0,1,48,67,2182150900
2415,19,Jits_Linear_5,1,5,80,127,2182193796
2415,19,Jits_Linear_5,2,5,63,98,2182203916
2415,19,Jits_Linear_5,3,5,56,103,2182274408
2415,19,Jits_Linear_5,0,1,48,58,2182793480
2415,19,Jits_Linear_5,1,5,80,127,2182904148
2415,19,Jits_Linear_5,2,5,56,103,2182914516
2415,19,Jits_Linear_5,3,5,63,98,2182917436
2415,19,Jits_Linear_5,0,5,56,103,2183483744
2415,19,Jits_Linear_5,1,5,80,127,2183504204
2415,19,Jits_Linear_5,2,1,48,52,2183510688
2415,19,Jits_Linear_5,3,5,63,98,2183513720
2415,19,Jits_Linear_5,0,1,48,63,2184043872
2415,19,Jits_Linear_5,1,5,63,98,2184134104
2415,19,Jits_Linear_5,2,5,56,103,2184173884
2415,19,Jits_Linear_5,3,5,80,127,2184194588
2415,19,Jits_Linear_5,0,1,48,62,2184713364
2415,19,Jits_Linear_5,1,5,63,98,2184784412
2415,19,Jits_Linear_5,2,5,56,103,2184843668
2415,19,Jits_Linear_5,3,5,80,127,2184846808
2415,19,Jits_Linear_5,0,1,48,52,2185385732
2415,19,Jits_Linear_5,1,5,56,103,2185393628
2415,19,Jits_Linear_5,2,5,80,127,2185413864
2415,19,Jits_Linear_5,3,5,63,98,2185453880
2415,19,Jits_Linear_5,0,1,48,43,2185978460
2415,19,Jits_Linear_5,1,5,56,103,2186073584
2415,19,Jits_Linear_5,2,5,63,98,2186093896
2415,19,Jits_Linear_5,3,5,80,127,2186104388
2415,19,Jits_Linear_5,0,5,80,127,2186693988
2415,19,Jits_Linear_5,1,1,48,56,2186708120
2415,19,Jits_Linear_5,2,5,56,103,2186723584
2415,19,Jits_Linear_5,3,5,63,98,2186763772
2415,19,Jits_Linear_5,0,1,48,58,2187339244
2415,19,Jits_Linear_5,1,5,80,127,2187353440
2415,19,Jits_Linear_5,2,5,56,103,2187373900
2415,19,Jits_Linear_5,3,5,63,98,2187434500
2415,19,Jits_Linear_5,0,1,48,69,2187943156
2415,19,Jits_Linear_5,1,5,56,103,2188013980
2415,19,Jits_Linear_5,2,5,80,127,2188035500
2415,19,Jits_Linear_5,3,5,63,98,2188093796
2415,19,Jits_Linear_5,0,1,48,68,2188646876
2415,19,Jits_Linear_5,1,5,80,127,2188653948
2415,19,Jits_Linear_5,2,5,56,103,2188664440
2415,19,Jits_Linear_5,3,5,63,98,2188704380
2415,19,Jits_Linear_5,0,1,48,63,2189257960
2415,19,Jits_Linear_5,1,5,63,98,2189314360
2415,19,Jits_Linear_5,2,5,56,103,2189354520
2415,19,Jits_Linear_5,3,5,80,127,2189358396
2415,19,Jits_Linear_5,0,1,48,55,2189894696
2415,19,Jits_Linear_5,1,5,63,98,2189994204
2415,19,Jits_Linear_5,2,5,80,127,2190034144
2415,19,Jits_Linear_5,3,5,56,103,2190064044
2415,19,Jits_Linear_5,0,1,48,58,2190568412
2415,19,Jits_Linear_5,1,5,56,103,2190643548
2415,19,Jits_Linear_5,2,5,63,98,2190653968
2415,19,Jits_Linear_5,3,5,80,127,2190683480
2415,19,Jits_Linear_5,0,1,48,58,2191266220
2415,19,Jits_Linear_5,1,5,80,127,2191304160
2415,19,Jits_Linear_5,2,5,63,98,2191373560
2415,19,Jits_Linear_5,3,5,56,103,2191384128
2415,19,Jits_Linear_5,0,1,48,56,2191953100
2415,19,Jits_Linear_5,1,5,63,98,2191973652
2415,19,Jits_Linear_5,2,5,56,103,2192044368
2415,19,Jits_Linear_5,3,5,80,127,2192053592
2415,19,Jits_Linear_5,0,1,48,51,2192630940
2415,19,Jits_Linear_5,1,5,63,98,2192643508
2415,19,Jits_Linear_5,2,5,56,103,2192664044
2415,19,Jits_Linear_5,3,5,80,127,2192703984
2415,19,Jits_Linear_5,0,1,48,54,2193216956
2415,19,Jits_Linear_5,1,5,56,103,2193324340
2415,19,Jits_Linear_5,2,5,63,98,2193333564
2415,19,Jits_Linear_5,3,5,80,127,2193413460
2415,19,Jits_Linear_5,0,1,48,58,2193915636
2415,19,Jits_Linear_5,1,5,63,98,2193983796
2415,19,Jits_Linear_5,2,5,56,103,2194013460
2415,19,Jits_Linear_5,3,5,80,127,2194053476
2415,19,Jits_Linear_5,0,1,48,66,2194631808
2415,19,Jits_Linear_5,1,5,56,103,2194653556
2415,19,Jits_Linear_5,2,5,63,98,2194693520
2415,19,Jits_Linear_5,3,5,80,127,2194733444
2415,19,Jits_Linear_5,0,1,48,64,2195282408
2415,19,Jits_Linear_5,1,5,80,127,2195333380
2415,19,Jits_Linear_5,2,5,56,103,2195414360
2415,19,Jits_Linear_5,3,5,63,98,2195423732
2415,19,Jits_Linear_5,0,5,56,103,2196054260
2415,19,Jits_Linear_5,1,1,48,71,2196057332
2415,19,Jits_Linear_5,2,5,63,98,2196058964
2415,19,Jits_Linear_5,3,5,80,127,2196063556
2415,19,Jits_Linear_5,0,1,48,65,2196716052
2415,19,Jits_Linear_5,1,5,56,103,2196753864
2415,19,Jits_Linear_5,2,5,63,98,2196774252
2415,19,Jits_Linear_5,3,5,80,127,2196783628
2415,19,Jits_Linear_5,0,1,48,61,2197376992
2415,19,Jits_Linear_5,1,5,63,98,2197393884
2415,19,Jits_Linear_5,2,5,80,127,2197404004
2415,19,Jits_Linear_5,3,5,56,103,2197423420
2415,19,Jits_Linear_5,0,1,48,61,2198037184
2415,19,Jits_Linear_5,1,5,63,98,2198084116
2415,19,Jits_Linear_5,2,5,56,103,2198164048
2415,19,Jits_Linear_5,3,5,80,127,2198167040
2415,19,Jits_Linear_5,0,1,48,60,2198773204
2415,19,Jits_Linear_5,1,5,63,98,2198775000
2415,19,Jits_Linear_5,2,5,56,103,2198793836
2415,19,Jits_Linear_5,3,5,80,127,2198824264
2415,19,Jits_Linear_5,0,1,48,61,2199452032
2415,19,Jits_Linear_5,1,5,56,103,2199464188
2415,19,Jits_Linear_5,2,5,63,98,2199483824
2415,19,Jits_Linear_5,3,5,80,127,2199493944
2415,19,Jits_Linear_5,0,1,48,51,2200129508
2415,19,Jits_Linear_5,1,5,56,103,2200184164
2415,19,Jits_Linear_5,2,5,63,98,2200213760
2415,19,Jits_Linear_5,3,5,80,127,2200217132
2415,19,Jits_Linear_5,0,1,48,61,2200792164
2415,19,Jits_Linear_5,1,5,56,103,2200824320
2415,19,Jits_Linear_5,2,5,63,98,2200864064
2415,19,Jits_Linear_5,3,5,80,127,2200923764
2415,19,Jits_Linear_5,0,1,48,60,2201495728
2415,19,Jits_Linear_5,1,5,56,103,2201534040
2415,19,Jits_Linear_5,2,5,63,98,2201544088
2415,19,Jits_Linear_5,3,5,80,127,2201603516
2415,19,Jits_Linear_5,0,1,48,67,2202191644
2415,19,Jits_Linear_5,1,5,56,103,2202234092
2415,19,Jits_Linear_5,2,5,80,127,2202253876
2415,19,Jits_Linear_5,3,5,63,98,2202284452
2415,19,Jits_Linear_5,0,1,48,58,2202881816
2415,19,Jits_Linear_5,1,5,80,127,2202933760
2415,19,Jits_Linear_5,2,5,56,103,2202943808
2415,19,Jits_Linear_5,3,5,63,98,2202964192
2415,19,Jits_Linear_5,0,1,48,68,2203539564
2415,19,Jits_Linear_5,1,5,63,98,2203623740
2415,19,Jits_Linear_5,2,5,80,127,2203703776
2415,19,Jits_Linear_5,3,5,56,103,2203713896
2415,19,Jits_Linear_5,0,1,48,70,2204298884
2415,19,Jits_Linear_5,1,5,80,127,2204383808
2415,19,Jits_Linear_5,2,5,56,103,2204404032
2415,19,Jits_Linear_5,3,5,63,98,2204407096
2415,19,Jits_Linear_5,0,1,48,60,2205018488
2415,19,Jits_Linear_5,1,5,63,98,2205063852
2415,19,Jits_Linear_5,2,5,80,127,2205066984
2415,19,Jits_Linear_5,3,5,56,103,2205123848
2415,19,Jits_Linear_5,0,1,48,59,2205721220
2415,19,Jits_Linear_5,1,5,56,103,2205753628
2415,19,Jits_Linear_5,2,5,80,127,2205763824
2415,19,Jits_Linear_5,3,5,63,98,2205803764
2415,19,Jits_Linear_5,0,1,48,61,2206414068
2415,19,Jits_Linear_5,1,5,56,103,2206443760
2415,19,Jits_Linear_5,2,5,63,98,2206504180
2415,19,Jits_Linear_5,3,5,80,127,2206513464
2415,19,Jits_Linear_5,0,1,48,68,2207095452
2415,19,Jits_Linear_5,1,5,63,98,2207163816
2415,19,Jits_Linear_5,2,5,80,127,2207203664
2415,19,Jits_Linear_5,3,5,56,103,2207243556
2415,19,Jits_Linear_5,0,1,48,57,2207817156
2415,19,Jits_Linear_5,1,5,56,103,2207874504
2415,19,Jits_Linear_5,2,5,63,98,2207954436
2415,19,Jits_Linear_5,3,5,80,127,2207957724
2415,19,Jits_Linear_5,0,1,48,64,2208504296
2415,19,Jits_Linear_5,1,5,80,127,2208643468
2415,19,Jits_Linear_5,2,5,56,103,2208674032
2415,19,Jits_Linear_5,3,5,63,98,2208677104
2415,19,Jits_Linear_5,0,1,48,59,2209270192
2415,19,Jits_Linear_5,1,5,56,103,2209333636
2415,19,Jits_Linear_5,2,5,80,127,2209354172
2415,19,Jits_Linear_5,3,5,63,98,2209394244
2415,19,Jits_Linear_5,0,1,48,66,2210021656
2415,19,Jits_Linear_5,1,5,80,127,2210033960
2415,19,Jits_Linear_5,2,5,63,98,2210053476
2415,19,Jits_Linear_5,3,5,56,103,2210113852
2415,19,Jits_Linear_5,0,1,48,60,2210756084
2415,19,Jits_Linear_5,1,5,63,98,2210774468
2415,19,Jits_Linear_5,2,5,56,103,2210783616
2415,19,Jits_Linear_5,3,5,80,127,2210833844
2415,19,Jits_Linear_5,0,1,48,62,2211458152
2415,19,Jits_Linear_5,1,5,56,103,2211484252
2415,19,Jits_Linear_5,2,5,63,98,2211503444
2415,19,Jits_Linear_5,3,5,80,127,2211513640
2415,19,Jits_Linear_5,0,1,48,58,2212176108
2415,19,Jits_Linear_5,1,5,56,103,2212204004
2415,19,Jits_Linear_5,2,5,63,98,2212206924
2415,19,Jits_Linear_5,3,5,80,127,2212224316
2415,19,Jits_Linear_5,0,1,48,59,2212869764
2415,19,Jits_Linear_5,1,5,63,98,2212974080
2415,19,Jits_Linear_5,2,5,56,103,2213003536
2415,19,Jits_Linear_5,3,5,80,127,2213034256
2415,19,Jits_Linear_5,0,1,48,66,2213649540
2415,19,Jits_Linear_5,1,5,80,127,2213664328
2415,19,Jits_Linear_5,2,5,56,103,2213754300
2415,19,Jits_Linear_5,3,5,63,98,2213757440
2415,19,Jits_Linear_5,0,5,56,103,2214394248
2415,19,Jits_Linear_5,1,5,80,127,2214397336
2415,19,Jits_Linear_5,2,1,48,68,2214414480
2415,19,Jits_Linear_5,3,5,63,98,2214474136
2415,19,Jits_Linear_5,0,1,48,62,2215096960
2415,19,Jits_Linear_5,1,5,80,127,2215124412
2415,19,Jits_Linear_5,2,5,63,98,2215183708
2415,19,Jits_Linear_5,3,5,56,103,2215213444
2415,19,Jits_Linear_5,0,1,48,62,2215843100
2415,19,Jits_Linear_5,1,5,63,98,2215853312
2415,19,Jits_Linear_5,2,5,80,127,2215863584
2415,19,Jits_Linear_5,3,5,56,103,2215934412
2415,19,Jits_Linear_5,0,1,48,61,2216561336
2415,19,Jits_Linear_5,1,5,56,103,2216604080
2415,19,Jits_Linear_5,2,5,80,127,2216633684
2415,19,Jits_Linear_5,3,5,63,98,2216684020
2415,19,Jits_Linear_5,0,1,48,57,2217299376
2415,19,Jits_Linear_5,1,5,63,98,2217384228
2415,19,Jits_Linear_5,2,5,56,103,2217414184
2415,19,Jits_Linear_5,3,5,80,127,2217417324
2415,19,Jits_Linear_5,0,1,48,58,2218078836
2415,19,Jits_Linear_5,1,5,63,98,2218123604
2415,19,Jits_Linear_5,2,5,80,127,2218144136
2415,19,Jits_Linear_5,3,5,56,103,2218154484
2415,19,Jits_Linear_5,0,1,48,57,2218816880
2415,19,Jits_Linear_5,1,5,56,103,2218874300
2415,19,Jits_Linear_5,2,5,63,98,2218877292
2415,19,Jits_Linear_5,3,5,80,127,2218893640
2415,19,Jits_Linear_5,0,1,48,60,2219555884
2415,19,Jits_Linear_5,1,5,56,103,2219573668
2415,19,Jits_Linear_5,2,5,63,98,2219583940
2415,19,Jits_Linear_5,3,5,80,127,2219613688
2415,19,Jits_Linear_5,0,1,48,56,2220215144
2415,19,Jits_Linear_5,1,5,63,98,2220343828
2415,19,Jits_Linear_5,2,5,80,127,2220364064
2415,19,Jits_Linear_5,3,5,56,103,2220404080
2415,19,Jits_Linear_5,0,1,48,66,2220955576
2415,19,Jits_Linear_5,1,5,56,103,2221123972
2415,19,Jits_Linear_5,2,5,63,98,2221163836
2415,19,Jits_Linear_5,3,5,80,127,2221167128
2415,19,Jits_Linear_5,0,1,48,66,2221811928
2415,19,Jits_Linear_5,1,5,80,127,2221814116
2415,19,Jits_Linear_5,2,5,56,103,2221854232
2415,19,Jits_Linear_5,3,5,63,98,2221904284
2415,19,Jits_Linear_5,0,1,48,57,2222537960
2415,19,Jits_Linear_5,1,5,56,103,2222624032
2415,19,Jits_Linear_5,2,5,80,127,2222634212
2415,19,Jits_Linear_5,3,5,63,98,2222664036
2415,19,Jits_Linear_5,0,5,56,103,2223323616
2415,19,Jits_Linear_5,1,1,48,57,2223334228
2415,19,Jits_Linear_5,2,5,80,127,2223363428
2415,19,Jits_Linear_5,3,5,63,98,2223413852
2415,19,Jits_Linear_5,0,1,48,52,2224013304
2415,19,Jits_Linear_5,1,5,56,103,2224084284
2415,19,Jits_Linear_5,2,5,80,127,2224124308
2415,19,Jits_Linear_5,3,5,63,98,2224173540
2415,19,Jits_Linear_5,0,5,80,127,2224833864
2415,19,Jits_Linear_5,1,5,63,98,2224913836
2415,19,Jits_Linear_5,2,1,48,68,2224921220
2415,19,Jits_Linear_5,3,5,56,103,2224923876
2415,19,Jits_Linear_5,0,5,80,127,2225643840
2415,19,Jits_Linear_5,1,5,56,103,2225654112
2415,19,Jits_Linear_5,2,1,48,65,2225662360
2415,19,Jits_Linear_5,3,5,63,98,2225673840
2415,19,Jits_Linear_5,0,5,63,98,2226373876
2415,19,Jits_Linear_5,1,1,48,66,2226389724
2415,19,Jits_Linear_5,2,5,56,103,2226443652
2415,19,Jits_Linear_5,3,5,80,127,2226446716
2415,19,Jits_Linear_5,0,1,48,67,2227100396
2415,19,Jits_Linear_5,1,5,80,127,2227133852
2415,19,Jits_Linear_5,2,5,63,98,2227183980
2415,19,Jits_Linear_5,3,5,56,103,2227223856
2415,19,Jits_Linear_5,0,1,48,59,2227856948
2415,19,Jits_Linear_5,1,5,63,98,2227943668
2415,19,Jits_Linear_5,2,5,56,103,2227983764
2415,19,Jits_Linear_5,3,5,80,127,2227994112
2415,19,Jits_Linear_5,0,1,48,68,2228599324
2415,19,Jits_Linear_5,1,5,63,98,2228703568
2415,19,Jits_Linear_5,2,5,56,103,2228724100
2415,19,Jits_Linear_5,3,5,80,127,2228743688
2415,19,Jits_Linear_5,0,1,48,64,2229424732
2415,19,Jits_Linear_5,1,5,80,127,2229433824
2415,19,Jits_Linear_5,2,5,56,103,2229443872
2415,19,Jits_Linear_5,3,5,63,98,2229464556
2415,19,Jits_Linear_5,0,1,48,70,2230193928
2415,19,Jits_Linear_5,1,5,63,98,2230233588
2415,19,Jits_Linear_5,2,5,56,103,2230274380
2415,19,Jits_Linear_5,3,5,80,127,2230303968
2415,19,Jits_Linear_5,0,1,48,67,2230987860
2415,19,Jits_Linear_5,1,5,56,103,2231013664
2415,19,Jits_Linear_5,2,5,63,98,2231043516
2415,19,Jits_Linear_5,3,5,80,127,2231074312
2415,19,Jits_Linear_5,0,1,48,70,2231758260
2415,19,Jits_Linear_5,1,5,80,127,2231764508
2415,19,Jits_Linear_5,2,5,56,103,2231834068
2415,19,Jits_Linear_5,3,5,63,98,2231836912
2415,19,Jits_Linear_5,0,1,48,64,2232542376
2415,19,Jits_Linear_5,1,5,56,103,2232564272
2415,19,Jits_Linear_5,2,5,63,98,2232614204
2415,19,Jits_Linear_5,3,5,80,127,2232643940
2415,19,Jits_Linear_5,0,5,63,98,2233323740
2415,19,Jits_Linear_5,1,1,48,63,2233325704
2415,19,Jits_Linear_5,2,5,80,127,2233328520
2415,19,Jits_Linear_5,3,5,56,103,2233384452
2415,19,Jits_Linear_5,0,1,48,71,2234108956
2415,19,Jits_Linear_5,1,5,56,103,2234133788
2415,19,Jits_Linear_5,2,5,80,127,2234144056
2415,19,Jits_Linear_5,3,5,63,98,2234194336
2415,19,Jits_Linear_5,0,1,48,66,2234876068
2415,19,Jits_Linear_5,1,5,63,98,2234893628
2415,19,Jits_Linear_5,2,5,56,103,2234903972
2415,19,Jits_Linear_5,3,5,80,127,2234933576
2415,19,Jits_Linear_5,0,1,48,71,2235621724
2415,19,Jits_Linear_5,1,5,63,98,2235713848
2415,19,Jits_Linear_5,2,5,80,127,2235717208
2415,19,Jits_Linear_5,3,5,56,103,2235743580
2415,19,Jits_Linear_5,0,1,48,60,2236406788
2415,19,Jits_Linear_5,1,5,63,98,2236524232
2415,19,Jits_Linear_5,2,5,56,103,2236544240
2415,19,Jits_Linear_5,3,5,80,127,2236547460
2415,19,Jits_Linear_5,0,1,48,60,2237202684
2415,19,Jits_Linear_5,1,5,63,98,2237273436
2415,19,Jits_Linear_5,2,5,56,103,2237344152
2415,19,Jits_Linear_5,3,5,80,127,2237363564
2415,19,Jits_Linear_5,0,1,48,61,2238038112
2415,19,Jits_Linear_5,1,5,56,103,2238053800
2415,19,Jits_Linear_5,2,5,63,98,2238064148
2415,19,Jits_Linear_5,3,5,80,127,2238154116
2415,19,Jits_Linear_5,0,1,48,62,2238710256
2415,19,Jits_Linear_5,1,5,56,103,2238863676
2415,19,Jits_Linear_5,2,5,80,127,2238903764
2415,19,Jits_Linear_5,3,5,63,98,2238914036
2415,19,Jits_Linear_5,0,1,48,58,2239558232
2415,19,Jits_Linear_5,1,5,56,103,2239684120
2415,19,Jits_Linear_5,2,5,63,98,2239713576
2415,19,Jits_Linear_5,3,5,80,127,2239744324
2415,19,Jits_Linear_5,0,1,48,58,2240414432
2415,19,Jits_Linear_5,1,5,80,127,2240443900
2415,19,Jits_Linear_5,2,5,63,98,2240483844
2415,19,Jits_Linear_5,3,5,56,103,2240504156
2415,19,Jits_Linear_5,0,1,48,54,2241205952
2415,19,Jits_Linear_5,1,5,56,103,2241283332
2415,19,Jits_Linear_5,2,5,80,127,2241304000
2415,19,Jits_Linear_5,3,5,63,98,2241324388
2415,19,Jits_Linear_5,0,5,63,98,2242053440
2415,19,Jits_Linear_5,1,5,56,103,2242063860
2415,19,Jits_Linear_5,2,1,48,58,2242065124
2415,19,Jits_Linear_5,3,5,80,127,2242124096
2415,19,Jits_Linear_5,0,1,48,50,2242839680
2415,19,Jits_Linear_5,1,5,56,103,2242863392
2415,19,Jits_Linear_5,2,5,63,98,2242935304
2415,19,Jits_Linear_5,3,5,80,127,2242953520
2415,19,Jits_Linear_5,0,5,56,103,2243673508
2415,19,Jits_Linear_5,1,1,48,55,2243690328
2415,19,Jits_Linear_5,2,5,63,98,2243704152
2415,19,Jits_Linear_5,3,5,80,127,2243744240
2415,19,Jits_Linear_5,0,1,48,58,2244431736
2415,19,Jits_Linear_5,1,5,63,98,2244474112
2415,19,Jits_Linear_5,2,5,56,103,2244524836
2415,19,Jits_Linear_5,3,5,80,127,2244533748
2415,19,Jits_Linear_5,0,1,48,56,2245233772
2415,19,Jits_Linear_5,1,5,56,103,2245324080
2415,19,Jits_Linear_5,2,5,63,98,2245374440
2415,19,Jits_Linear_5,3,5,80,127,2245383664
2415,19,Jits_Linear_5,0,1,48,66,2246078716
2415,19,Jits_Linear_5,1,5,56,103,2246104520
2415,19,Jits_Linear_5,2,5,63,98,2246113668
2415,19,Jits_Linear_5,3,5,80,127,2246193696
2415,19,Jits_Linear_5,0,9999,9999,9999,2137321552
2415,19,Jits_Linear_5,1,9999,9999,9999,2137801844
2415,19,Jits_Linear_5,2,9999,9999,9999,2138282056
2415,19,Jits_Linear_5,3,9999,9999,9999,2138761288
2415,19,Jits_Linear_5,4,9999,9999,9999,2139241572
2415,19,Jits_Linear_5,5,9999,9999,9999,2139732048
2415,19,Jits_Linear_5,6,9999,9999,9999,2140221548
2415,19,Jits_Linear_5,7,9999,9999,9999,2140712032
2415,19,Jits_Linear_5,8,9999,9999,9999,2141201472
2415,19,Jits_Linear_5,9,9999,9999,9999,2141692008
2415,19,Jits_Linear_5,10,9999,9999,9999,2142191700
2415,19,Jits_Linear_5,11,9999,9999,9999,2142691404
2415,19,Jits_Linear_5,12,9999,9999,9999,2143191164
2415,19,Jits_Linear_5,13,9999,9999,9999,2143691896
2415,19,Jits_Linear_5,14,9999,9999,9999,2144191584
2415,19,Jits_Linear_5,15,9999,9999,9999,2144701552
2415,19,Jits_Linear_5,16,9999,9999,9999,2145211516
2415,19,Jits_Linear_5,17,9999,9999,9999,2145721468
2415,19,Jits_Linear_5,18,9999,9999,9999,2146231420
2415,19,Jits_Linear_5,19,9999,9999,9999,2146741312
2415,19,Jits_Linear_5,20,9999,9999,9999,2147261532
2415,19,Jits_Linear_5,21,9999,9999,9999,2147781744
2415,19,Jits_Linear_5,22,9999,9999,9999,2148301896
2415,19,Jits_Linear_5,23,9999,9999,9999,2148822104
2415,19,Jits_Linear_5,24,9999,9999,9999,2149351540
2415,19,Jits_Linear_5,25,9999,9999,9999,2149881952
2415,19,Jits_Linear_5,26,9999,9999,9999,2150411332
2415,19,Jits_Linear_5,27,9999,9999,9999,2150941800
2415,19,Jits_Linear_5,28,9999,9999,9999,2151471160
2415,19,Jits_Linear_5,29,9999,9999,9999,2152001636
2415,19,Jits_Linear_5,30,9999,9999,9999,2152541268
2415,19,Jits_Linear_5,31,9999,9999,9999,2153081932
2415,19,Jits_Linear_5,32,9999,9999,9999,2153621628
2415,19,Jits_Linear_5,33,9999,9999,9999,2154161244
2415,19,Jits_Linear_5,34,9999,9999,9999,2154701912
2415,19,Jits_Linear_5,35,9999,9999,9999,2155251800
2415,19,Jits_Linear_5,36,9999,9999,9999,2155801696
2415,19,Jits_Linear_5,37,9999,9999,9999,2156351584
2415,19,Jits_Linear_5,38,9999,9999,9999,2156901484
2415,19,Jits_Linear_5,39,9999,9999,9999,2157451372
2415,19,Jits_Linear_5,40,9999,9999,9999,2158011444
2415,19,Jits_Linear_5,41,9999,9999,9999,2158571604
2415,19,Jits_Linear_5,42,9999,9999,9999,2159131716
2415,19,Jits_Linear_5,43,9999,9999,9999,2159691860
2415,19,Jits_Linear_5,44,9999,9999,9999,2160252004
2415,19,Jits_Linear_5,45,9999,9999,9999,2160821312
2415,19,Jits_Linear_5,46,9999,9999,9999,2161391720
2415,19,Jits_Linear_5,47,9999,9999,9999,2161962088
2415,19,Jits_Linear_5,48,9999,9999,9999,2162531456
2415,19,Jits_Linear_5,49,9999,9999,9999,2163101816
2415,19,Jits_Linear_5,50,9999,9999,9999,2163681356
2415,19,Jits_Linear_5,51,9999,9999,9999,2164261996
2415,19,Jits_Linear_5,52,9999,9999,9999,2164841544
2415,19,Jits_Linear_5,53,9999,9999,9999,2165421168
2415,19,Jits_Linear_5,54,9999,9999,9999,2166001772
2415,19,Jits_Linear_5,55,9999,9999,9999,2166591556
2415,19,Jits_Linear_5,56,9999,9999,9999,2167181384
2415,19,Jits_Linear_5,57,9999,9999,9999,2167771212
2415,19,Jits_Linear_5,58,9999,9999,9999,2168362100
2415,19,Jits_Linear_5,59,9999,9999,9999,2168951904
2415,19,Jits_Linear_5,60,9999,9999,9999,2169551928
2415,19,Jits_Linear_5,61,9999,9999,9999,2170152032
2415,19,Jits_Linear_5,62,9999,9999,9999,2170752112
2415,19,Jits_Linear_5,63,9999,9999,9999,2171361336
2415,19,Jits_Linear_5,64,9999,9999,9999,2171961444
2415,19,Jits_Linear_5,65,9999,9999,9999,2172571712
2415,19,Jits_Linear_5,66,9999,9999,9999,2173182008
2415,19,Jits_Linear_5,67,9999,9999,9999,2173791312
2415,19,Jits_Linear_5,68,9999,9999,9999,2174401596
2415,19,Jits_Linear_5,69,9999,9999,9999,2175011896
2415,19,Jits_Linear_5,70,9999,9999,9999,2175631444
2415,19,Jits_Linear_5,71,9999,9999,9999,2176251992
2415,19,Jits_Linear_5,72,9999,9999,9999,2176871500
2415,19,Jits_Linear_5,73,9999,9999,9999,2177492032
2415,19,Jits_Linear_5,74,9999,9999,9999,2178111544
2415,19,Jits_Linear_5,75,9999,9999,9999,2178741364
2415,19,Jits_Linear_5,76,9999,9999,9999,2179371072
2415,19,Jits_Linear_5,77,9999,9999,9999,2180001872
2415,19,Jits_Linear_5,78,9999,9999,9999,2180631664
2415,19,Jits_Linear_5,79,9999,9999,9999,2181261420
2415,19,Jits_Linear_5,80,9999,9999,9999,2181901384
2415,19,Jits_Linear_5,81,9999,9999,9999,2182541400
2415,19,Jits_Linear_5,82,9999,9999,9999,2183181436
2415,19,Jits_Linear_5,83,9999,9999,9999,2183821376
2415,19,Jits_Linear_5,84,9999,9999,9999,2184461432
2415,19,Jits_Linear_5,85,9999,9999,9999,2185111628
2415,19,Jits_Linear_5,86,9999,9999,9999,2185761856
2415,19,Jits_Linear_5,87,9999,9999,9999,2186411088
2415,19,Jits_Linear_5,88,9999,9999,9999,2187061312
2415,19,Jits_Linear_5,89,9999,9999,9999,2187711604
2415,19,Jits_Linear_5,90,9999,9999,9999,2188372024
2415,19,Jits_Linear_5,91,9999,9999,9999,2189031512
2415,19,Jits_Linear_5,92,9999,9999,9999,2189691992
2415,19,Jits_Linear_5,93,9999,9999,9999,2190351436
2415,19,Jits_Linear_5,94,9999,9999,9999,2191011900
2415,19,Jits_Linear_5,95,9999,9999,9999,2191681608
2415,19,Jits_Linear_5,96,9999,9999,9999,2192351296
2415,19,Jits_Linear_5,97,9999,9999,9999,2193022048
2415,19,Jits_Linear_5,98,9999,9999,9999,2193691760
2415,19,Jits_Linear_5,99,9999,9999,9999,2194361440
2415,19,Jits_Linear_5,100,9999,9999,9999,2195041340
2415,19,Jits_Linear_5,101,9999,9999,9999,2195721312
2415,19,Jits_Linear_5,102,9999,9999,9999,2196401252
2415,19,Jits_Linear_5,103,9999,9999,9999,2197081164
2415,19,Jits_Linear_5,104,9999,9999,9999,2197761136
2415,19,Jits_Linear_5,105,9999,9999,9999,2198451272
2415,19,Jits_Linear_5,106,9999,9999,9999,2199141428
2415,19,Jits_Linear_5,107,9999,9999,9999,2199831664
2415,19,Jits_Linear_5,108,9999,9999,9999,2200521796
2415,19,Jits_Linear_5,109,9999,9999,9999,2201212028
2415,19,Jits_Linear_5,110,9999,9999,9999,2201911408
2415,19,Jits_Linear_5,111,9999,9999,9999,2202611808
2415,19,Jits_Linear_5,112,9999,9999,9999,2203311176
2415,19,Jits_Linear_5,113,9999,9999,9999,2204011600
2415,19,Jits_Linear_5,114,9999,9999,9999,2204712020
2415,19,Jits_Linear_5,115,9999,9999,9999,2205421628
2415,19,Jits_Linear_5,116,9999,9999,9999,2206131268
2415,19,Jits_Linear_5,117,9999,9999,9999,2206841956
2415,19,Jits_Linear_5,118,9999,9999,9999,2207551596
2415,19,Jits_Linear_5,119,9999,9999,9999,2208261232
2415,19,Jits_Linear_5,120,9999,9999,9999,2208982080
2415,19,Jits_Linear_5,121,9999,9999,9999,2209711204
2415,19,Jits_Linear_5,122,9999,9999,9999,2210432080
2415,19,Jits_Linear_5,123,9999,9999,9999,2211161200
2415,19,Jits_Linear_5,124,9999,9999,9999,2211882072
2415,19,Jits_Linear_5,125,9999,9999,9999,2212611180
2415,19,Jits_Linear_5,126,9999,9999,9999,2213341252
2415,19,Jits_Linear_5,127,9999,9999,9999,2214071412
2415,19,Jits_Linear_5,128,9999,9999,9999,2214801492
2415,19,Jits_Linear_5,129,9999,9999,9999,2215531600
2415,19,Jits_Linear_5,130,9999,9999,9999,2216271956
2415,19,Jits_Linear_5,131,9999,9999,9999,2217011268
2415,19,Jits_Linear_5,132,9999,9999,9999,2217751616
2415,19,Jits_Linear_5,133,9999,9999,9999,2218491980
2415,19,Jits_Linear_5,134,9999,9999,9999,2219231332
2415,19,Jits_Linear_5,135,9999,9999,9999,2219981948
2415,19,Jits_Linear_5,136,9999,9999,9999,2220731452
2415,19,Jits_Linear_5,137,9999,9999,9999,2221482068
2415,19,Jits_Linear_5,138,9999,9999,9999,2222231640
2415,19,Jits_Linear_5,139,9999,9999,9999,2222981220
2415,19,Jits_Linear_5,140,9999,9999,9999,2223742032
2415,19,Jits_Linear_5,141,9999,9999,9999,2224501884
2415,19,Jits_Linear_5,142,9999,9999,9999,2225261648
2415,19,Jits_Linear_5,143,9999,9999,9999,2226021500
2415,19,Jits_Linear_5,144,9999,9999,9999,2226781272
2415,19,Jits_Linear_5,145,9999,9999,9999,2227551300
2415,19,Jits_Linear_5,146,9999,9999,9999,2228321408
2415,19,Jits_Linear_5,147,9999,9999,9999,2229091436
2415,19,Jits_Linear_5,148,9999,9999,9999,2229861456
2415,19,Jits_Linear_5,149,9999,9999,9999,2230631484
2415,19,Jits_Linear_5,150,9999,9999,9999,2231411780
2415,19,Jits_Linear_5,151,9999,9999,9999,2232192060
2415,19,Jits_Linear_5,152,9999,9999,9999,2232981572
2415,19,Jits_Linear_5,153,9999,9999,9999,2233761852
2415,19,Jits_Linear_5,154,9999,9999,9999,2234541172
2415,19,Jits_Linear_5,155,9999,9999,9999,2235331648
2415,19,Jits_Linear_5,156,9999,9999,9999,2236121144
2415,19,Jits_Linear_5,157,9999,9999,9999,2236911692
2415,19,Jits_Linear_5,158,9999,9999,9999,2237701224
2415,19,Jits_Linear_5,159,9999,9999,9999,2238491704
2415,19,Jits_Linear_5,160,9999,9999,9999,2239291476
2415,19,Jits_Linear_5,161,9999,9999,9999,2240091248
2415,19,Jits_Linear_5,162,9999,9999,9999,2240891992
2415,19,Jits_Linear_5,163,9999,9999,9999,2241691760
2415,19,Jits_Linear_5,164,9999,9999,9999,2242491456
2415,19,Jits_Linear_5,165,9999,9999,9999,2243301492
2415,19,Jits_Linear_5,166,9999,9999,9999,2244111476
2415,19,Jits_Linear_5,167,9999,9999,9999,2244921448
2415,19,Jits_Linear_5,168,9999,9999,9999,2245731412
2415,19,Jits_Linear_5,169,9999,9999,9999,2246541372
2416,18,Jits_Linear_8,0,5,56,103,2262861284
2416,18,Jits_Linear_8,1,5,63,98,2262864228
2416,18,Jits_Linear_8,2,5,80,127,2262867724
2416,18,Jits_Linear_8,0,1,48,48,2263408984
2416,18,Jits_Linear_8,1,5,56,103,2263681496
2416,18,Jits_Linear_8,2,5,63,98,2263684516
2416,18,Jits_Linear_8,3,5,80,127,2263687788
2416,18,Jits_Linear_8,0,1,48,52,2264249996
2416,18,Jits_Linear_8,1,5,80,127,2264441384
2416,18,Jits_Linear_8,2,5,63,98,2264531296
2416,18,Jits_Linear_8,3,5,56,103,2264540596
2416,18,Jits_Linear_8,0,1,48,56,2264965672
2416,18,Jits_Linear_8,1,5,56,103,2265280852
2416,18,Jits_Linear_8,2,5,63,98,2265291048
2416,18,Jits_Linear_8,3,5,80,127,2265381204
2416,18,Jits_Linear_8,4,1,48,51,2265613208
2416,18,Jits_Linear_8,0,5,63,98,2266071528
2416,18,Jits_Linear_8,1,5,80,127,2266101056
2416,18,Jits_Linear_8,2,5,56,103,2266130956
2416,18,Jits_Linear_8,3,1,48,55,2266312148
2416,18,Jits_Linear_8,0,5,56,103,2266890684
2416,18,Jits_Linear_8,1,5,80,127,2266990936
2416,18,Jits_Linear_8,2,1,48,59,2267029048
2416,18,Jits_Linear_8,3,5,63,98,2267041128
2416,18,Jits_Linear_8,0,5,56,103,2267700792
2416,18,Jits_Linear_8,1,5,80,127,2267750920
2416,18,Jits_Linear_8,2,1,48,57,2267789808
2416,18,Jits_Linear_8,3,5,63,98,2267791456
2416,18,Jits_Linear_8,0,1,48,55,2268533488
2416,18,Jits_Linear_8,1,5,80,127,2268541160
2416,18,Jits_Linear_8,2,5,63,98,2268571064
2416,18,Jits_Linear_8,3,5,56,103,2268640800
2416,18,Jits_Linear_8,0,1,48,63,2269359024
2416,18,Jits_Linear_8,1,5,63,98,2269381000
2416,18,Jits_Linear_8,2,5,56,103,2269410680
2416,18,Jits_Linear_8,3,5,80,127,2269471080
2416,18,Jits_Linear_8,0,1,48,58,2270118012
2416,18,Jits_Linear_8,1,5,56,103,2270130632
2416,18,Jits_Linear_8,2,5,80,127,2270133624
2416,18,Jits_Linear_8,3,5,63,98,2270251564
2416,18,Jits_Linear_8,0,1,48,65,2270966084
2416,18,Jits_Linear_8,1,5,56,103,2271011096
2416,18,Jits_Linear_8,2,5,80,127,2271051036
2416,18,Jits_Linear_8,3,5,63,98,2271061680
2416,18,Jits_Linear_8,0,5,56,103,2271770932
2416,18,Jits_Linear_8,1,1,48,72,2271787752
2416,18,Jits_Linear_8,2,5,80,127,2271790632
2416,18,Jits_Linear_8,3,5,63,98,2271871476
2416,18,Jits_Linear_8,0,5,80,127,2272560436
2416,18,Jits_Linear_8,1,1,48,67,2272595688
2416,18,Jits_Linear_8,2,5,56,103,2272660828
2416,18,Jits_Linear_8,3,5,63,98,2272671100
2416,18,Jits_Linear_8,0,5,63,98,2273330540
2416,18,Jits_Linear_8,1,5,80,127,2273390932
2416,18,Jits_Linear_8,2,1,48,64,2273399612
2416,18,Jits_Linear_8,3,5,56,103,2273401568
2416,18,Jits_Linear_8,0,5,56,103,2274131556
2416,18,Jits_Linear_8,1,1,48,61,2274189680
2416,18,Jits_Linear_8,2,5,63,98,2274200936
2416,18,Jits_Linear_8,3,5,80,127,2274204596
2416,18,Jits_Linear_8,0,1,48,67,2274952268
2416,18,Jits_Linear_8,1,5,63,98,2274960684
2416,18,Jits_Linear_8,2,5,56,103,2275010960
2416,18,Jits_Linear_8,3,5,80,127,2275014024
2416,18,Jits_Linear_8,0,5,56,103,2275711656
2416,18,Jits_Linear_8,1,5,80,127,2275714496
2416,18,Jits_Linear_8,2,1,48,55,2275776800
2416,18,Jits_Linear_8,3,5,63,98,2275800360
2416,18,Jits_Linear_8,0,1,48,57,2276513400
2416,18,Jits_Linear_8,1,5,63,98,2276540776
2416,18,Jits_Linear_8,2,5,56,103,2276630776
2416,18,Jits_Linear_8,3,5,80,127,2276660524
2416,18,Jits_Linear_8,0,5,56,103,2277321284
2416,18,Jits_Linear_8,1,1,48,67,2277362768
2416,18,Jits_Linear_8,2,5,63,98,2277421332
2416,18,Jits_Linear_8,3,5,80,127,2277451232
2416,18,Jits_Linear_8,0,5,63,98,2278131252
2416,18,Jits_Linear_8,1,5,56,103,2278141252
2416,18,Jits_Linear_8,2,1,48,71,2278183700
2416,18,Jits_Linear_8,3,5,80,127,2278231524
2416,18,Jits_Linear_8,0,1,48,62,2278921416
2416,18,Jits_Linear_8,1,5,63,98,2278930732
2416,18,Jits_Linear_8,2,5,56,103,2279010604
2416,18,Jits_Linear_8,3,5,80,127,2279014396
2416,18,Jits_Linear_8,0,5,80,127,2279671148
2416,18,Jits_Linear_8,1,5,63,98,2279690636
2416,18,Jits_Linear_8,2,5,56,103,2279751176
2416,18,Jits_Linear_8,3,1,48,48,2279757508
2416,18,Jits_Linear_8,0,1,48,58,2280437580
2416,18,Jits_Linear_8,1,5,56,103,2280491340
2416,18,Jits_Linear_8,2,5,63,98,2280510744
2416,18,Jits_Linear_8,3,5,80,127,2280514412
2416,18,Jits_Linear_8,0,1,48,54,2281199112
2416,18,Jits_Linear_8,1,5,63,98,2281211220
2416,18,Jits_Linear_8,2,5,80,127,2281291092
2416,18,Jits_Linear_8,3,5,56,103,2281301496
2416,18,Jits_Linear_8,0,1,48,62,2281981956
2416,18,Jits_Linear_8,1,5,63,98,2282011200
2416,18,Jits_Linear_8,2,5,56,103,2282030540
2416,18,Jits_Linear_8,3,5,80,127,2282080724
2416,18,Jits_Linear_8,0,1,48,66,2282729164
2416,18,Jits_Linear_8,1,5,80,127,2282791396
2416,18,Jits_Linear_8,2,5,63,98,2282831396
2416,18,Jits_Linear_8,3,5,56,103,2282850660
2416,18,Jits_Linear_8,0,1,48,60,2283569100
2416,18,Jits_Linear_8,1,5,56,103,2283601416
2416,18,Jits_Linear_8,2,5,63,98,2283610492
2416,18,Jits_Linear_8,3,5,80,127,2283631252
2416,18,Jits_Linear_8,0,5,56,103,2284300564
2416,18,Jits_Linear_8,1,1,48,60,2284306896
2416,18,Jits_Linear_8,2,5,63,98,2284390916
2416,18,Jits_Linear_8,3,5,80,127,2284451216
2416,18,Jits_Linear_8,0,1,48,61,2285086956
2416,18,Jits_Linear_8,1,5,80,127,2285101300
2416,18,Jits_Linear_8,2,5,56,103,2285110524
2416,18,Jits_Linear_8,3,5,63,98,2285181328
2416,18,Jits_Linear_8,0,1,48,58,2285850764
2416,18,Jits_Linear_8,1,5,63,98,2285901056
2416,18,Jits_Linear_8,2,5,80,127,2285991404
2416,18,Jits_Linear_8,3,5,56,103,2286000552
2416,18,Jits_Linear_8,0,5,63,98,2286600656
2416,18,Jits_Linear_8,1,5,80,127,2286650860
2416,18,Jits_Linear_8,2,1,48,60,2286673680
2416,18,Jits_Linear_8,3,5,56,103,2286711092
2416,18,Jits_Linear_8,0,5,56,103,2287391188
2416,18,Jits_Linear_8,1,1,48,62,2287419420
2416,18,Jits_Linear_8,2,5,80,127,2287441460
2416,18,Jits_Linear_8,3,5,63,98,2287460800
2416,18,Jits_Linear_8,0,5,56,103,2288121132
2416,18,Jits_Linear_8,1,1,48,59,2288124252
2416,18,Jits_Linear_8,2,5,80,127,2288180544
2416,18,Jits_Linear_8,3,5,63,98,2288251256
2416,18,Jits_Linear_8,0,5,56,103,2288880868
2416,18,Jits_Linear_8,1,1,48,65,2288895988
2416,18,Jits_Linear_8,2,5,80,127,2288910936
2416,18,Jits_Linear_8,3,5,63,98,2288941436
2416,18,Jits_Linear_8,0,1,48,62,2289602904
2416,18,Jits_Linear_8,1,5,56,103,2289680872
2416,18,Jits_Linear_8,2,5,80,127,2289701244
2416,18,Jits_Linear_8,3,5,63,98,2289760736
2416,18,Jits_Linear_8,0,1,48,54,2290381012
2416,18,Jits_Linear_8,1,5,80,127,2290520700
2416,18,Jits_Linear_8,2,5,56,103,2290531044
2416,18,Jits_Linear_8,3,5,63,98,2290540944
2416,18,Jits_Linear_8,0,5,56,103,2291231180
2416,18,Jits_Linear_8,1,5,80,127,2291270900
2416,18,Jits_Linear_8,2,1,48,48,2291272236
2416,18,Jits_Linear_8,3,5,63,98,2291300864
2416,18,Jits_Linear_8,0,5,56,103,2291950844
2416,18,Jits_Linear_8,1,5,63,98,2291980696
2416,18,Jits_Linear_8,2,5,80,127,2292020556
2416,18,Jits_Linear_8,3,1,48,55,2292090724
2416,18,Jits_Linear_8,0,5,80,127,2292651340
2416,18,Jits_Linear_8,1,5,63,98,2292700796
2416,18,Jits_Linear_8,2,1,48,59,2292710812
2416,18,Jits_Linear_8,3,5,56,103,2292720952
2416,18,Jits_Linear_8,0,1,48,57,2293401856
2416,18,Jits_Linear_8,1,5,56,103,2293430500
2416,18,Jits_Linear_8,2,5,80,127,2293501540
2416,18,Jits_Linear_8,3,5,63,98,2293560732
2416,18,Jits_Linear_8,0,5,80,127,2294170928
2416,18,Jits_Linear_8,1,1,48,60,2294174568
2416,18,Jits_Linear_8,2,5,63,98,2294261232
2416,18,Jits_Linear_8,3,5,56,103,2294280704
2416,18,Jits_Linear_8,0,5,63,98,2294930916
2416,18,Jits_Linear_8,1,5,56,103,2294951228
2416,18,Jits_Linear_8,2,5,80,127,2294991316
2416,18,Jits_Linear_8,3,1,48,62,2295006116
2416,18,Jits_Linear_8,0,5,80,127,2295631324
2416,18,Jits_Linear_8,1,5,63,98,2295650812
2416,18,Jits_Linear_8,2,1,48,62,2295690648
2416,18,Jits_Linear_8,3,5,56,103,2295730528
2416,18,Jits_Linear_8,0,5,63,98,2296361564
2416,18,Jits_Linear_8,1,1,48,61,2296379372
2416,18,Jits_Linear_8,2,5,56,103,2296472152
2416,18,Jits_Linear_8,3,5,80,127,2296474824
2416,18,Jits_Linear_8,0,5,63,98,2297121228
2416,18,Jits_Linear_8,1,1,48,58,2297125840
2416,18,Jits_Linear_8,2,5,56,103,2297131488
2416,18,Jits_Linear_8,3,5,80,127,2297134480
2416,18,Jits_Linear_8,0,1,48,52,2297791292
2416,18,Jits_Linear_8,1,5,56,103,2297841144
2416,18,Jits_Linear_8,2,5,80,127,2297960808
2416,18,Jits_Linear_8,3,5,63,98,2298000824
2416,18,Jits_Linear_8,0,5,56,103,2298590564
2416,18,Jits_Linear_8,1,5,80,127,2298670388
2416,18,Jits_Linear_8,2,5,63,98,2298691072
2416,18,Jits_Linear_8,3,1,48,69,2298692408
2416,18,Jits_Linear_8,0,5,56,103,2299320588
2416,18,Jits_Linear_8,1,1,48,63,2299422780
2416,18,Jits_Linear_8,2,5,63,98,2299431492
2416,18,Jits_Linear_8,3,5,80,127,2299434632
2416,18,Jits_Linear_8,0,5,56,103,2300080420
2416,18,Jits_Linear_8,1,5,80,127,2300111588
2416,18,Jits_Linear_8,2,5,63,98,2300130704
2416,18,Jits_Linear_8,3,1,48,63,2300143484
2416,18,Jits_Linear_8,0,5,63,98,2300791332
2416,18,Jits_Linear_8,1,5,56,103,2300801380
2416,18,Jits_Linear_8,2,5,80,127,2300810604
2416,18,Jits_Linear_8,3,1,48,54,2300873424
2416,18,Jits_Linear_8,0,5,80,127,2301500732
2416,18,Jits_Linear_8,1,1,48,60,2301541016
2416,18,Jits_Linear_8,2,5,56,103,2301551076
2416,18,Jits_Linear_8,3,5,63,98,2301590792
2416,18,Jits_Linear_8,0,5,80,127,2302241240
2416,18,Jits_Linear_8,1,1,48,66,2302259216
2416,18,Jits_Linear_8,2,5,63,98,2302260796
2416,18,Jits_Linear_8,3,5,56,103,2302310772
2416,18,Jits_Linear_8,0,5,80,127,2302971184
2416,18,Jits_Linear_8,1,1,48,59,2302985612
2416,18,Jits_Linear_8,2,5,56,103,2303001300
2416,18,Jits_Linear_8,3,5,63,98,2303070612
2416,18,Jits_Linear_8,0,1,48,58,2303698144
2416,18,Jits_Linear_8,1,5,56,103,2303741284
2416,18,Jits_Linear_8,2,5,80,127,2303750584
2416,18,Jits_Linear_8,3,5,63,98,2303790524
2416,18,Jits_Linear_8,0,5,56,103,2304371108
2416,18,Jits_Linear_8,1,5,63,98,2304390372
2416,18,Jits_Linear_8,2,1,48,52,2304457240
2416,18,Jits_Linear_8,3,5,80,127,2304461244
2416,18,Jits_Linear_8,0,5,63,98,2305111392
2416,18,Jits_Linear_8,1,1,48,62,2305138104
2416,18,Jits_Linear_8,2,5,80,127,2305171028
2416,18,Jits_Linear_8,3,5,56,103,2305191264
2416,18,Jits_Linear_8,0,1,48,70,2305793412
2416,18,Jits_Linear_8,1,5,80,127,2305810972
2416,18,Jits_Linear_8,2,5,56,103,2305840500
2416,18,Jits_Linear_8,3,5,63,98,2305871144
2416,18,Jits_Linear_8,0,1,48,63,2306492968
2416,18,Jits_Linear_8,1,5,56,103,2306520496
2416,18,Jits_Linear_8,2,5,63,98,2306580988
2416,18,Jits_Linear_8,3,5,80,127,2306641212
2416,18,Jits_Linear_8,0,1,48,64,2307240288
2416,18,Jits_Linear_8,1,5,80,127,2307260916
2416,18,Jits_Linear_8,2,5,56,103,2307281224
2416,18,Jits_Linear_8,3,5,63,98,2307351064
2416,18,Jits_Linear_8,0,5,80,127,2307970472
2416,18,Jits_Linear_8,1,5,63,98,2307991080
2416,18,Jits_Linear_8,2,1,48,60,2308017644
2416,18,Jits_Linear_8,3,5,56,103,2308020676
2416,18,Jits_Linear_8,0,5,80,127,2308660560
2416,18,Jits_Linear_8,1,1,48,64,2308665096
2416,18,Jits_Linear_8,2,5,63,98,2308681012
2416,18,Jits_Linear_8,3,5,56,103,2308740428
2416,18,Jits_Linear_8,0,1,48,59,2309346680
2416,18,Jits_Linear_8,1,5,80,127,2309361024
2416,18,Jits_Linear_8,2,5,56,103,2309461360
2416,18,Jits_Linear_8,3,5,63,98,2309491032
2416,18,Jits_Linear_8,0,5,63,98,2310051180
2416,18,Jits_Linear_8,1,1,48,68,2310093780
2416,18,Jits_Linear_8,2,5,80,127,2310101376
2416,18,Jits_Linear_8,3,5,56,103,2310120936
2416,18,Jits_Linear_8,0,1,48,67,2310769544
2416,18,Jits_Linear_8,1,5,80,127,2310790696
2416,18,Jits_Linear_8,2,5,56,103,2310821196
2416,18,Jits_Linear_8,3,5,63,98,2310824336
2416,18,Jits_Linear_8,0,1,48,51,2311444092
2416,18,Jits_Linear_8,1,5,63,98,2311520772
2416,18,Jits_Linear_8,2,5,56,103,2311560696
2416,18,Jits_Linear_8,3,5,80,127,2311581084
2416,18,Jits_Linear_8,0,5,80,127,2312160560
2416,18,Jits_Linear_8,1,1,48,73,2312208196
2416,18,Jits_Linear_8,2,5,63,98,2312240600
2416,18,Jits_Linear_8,3,5,56,103,2312280316
2416,18,Jits_Linear_8,0,5,63,98,2312871252
2416,18,Jits_Linear_8,1,1,48,63,2312908748
2416,18,Jits_Linear_8,2,5,80,127,2312951068
2416,18,Jits_Linear_8,3,5,56,103,2312970780
2416,18,Jits_Linear_8,0,1,48,67,2313580708
2416,18,Jits_Linear_8,1,5,56,103,2313601332
2416,18,Jits_Linear_8,2,5,63,98,2313610780
2416,18,Jits_Linear_8,3,5,80,127,2313650716
2416,18,Jits_Linear_8,0,5,56,103,2314210700
2416,18,Jits_Linear_8,1,5,80,127,2314213688
2416,18,Jits_Linear_8,2,1,48,65,2314255044
2416,18,Jits_Linear_8,3,5,63,98,2314351328
2416,18,Jits_Linear_8,0,5,56,103,2314890736
2416,18,Jits_Linear_8,1,1,48,42,2314936104
2416,18,Jits_Linear_8,2,5,63,98,2314980792
2416,18,Jits_Linear_8,3,5,80,127,2315051680
2416,18,Jits_Linear_8,0,1,48,67,2315577488
2416,18,Jits_Linear_8,1,5,63,98,2315650348
2416,18,Jits_Linear_8,2,5,80,127,2315653936
2416,18,Jits_Linear_8,3,5,56,103,2315710948
2416,18,Jits_Linear_8,0,1,48,63,2316316184
2416,18,Jits_Linear_8,1,5,80,127,2316371360
2416,18,Jits_Linear_8,2,5,56,103,2316390628
2416,18,Jits_Linear_8,3,5,63,98,2316400972
2416,18,Jits_Linear_8,0,5,56,103,2316961100
2416,18,Jits_Linear_8,1,5,63,98,2316971744
2416,18,Jits_Linear_8,2,5,80,127,2317040904
2416,18,Jits_Linear_8,3,1,48,65,2317049200
2416,18,Jits_Linear_8,0,5,80,127,2317641196
2416,18,Jits_Linear_8,1,1,48,73,2317654428
2416,18,Jits_Linear_8,2,5,56,103,2317691392
2416,18,Jits_Linear_8,3,5,63,98,2317741520
2416,18,Jits_Linear_8,0,1,48,61,2318303952
2416,18,Jits_Linear_8,1,5,56,103,2318400796
2416,18,Jits_Linear_8,2,5,63,98,2318411216
2416,18,Jits_Linear_8,3,5,80,127,2318451156
2416,18,Jits_Linear_8,0,5,56,103,2319021424
2416,18,Jits_Linear_8,1,5,63,98,2319061436
2416,18,Jits_Linear_8,2,1,48,64,2319078332
2416,18,Jits_Linear_8,3,5,80,127,2319110612
2416,18,Jits_Linear_8,0,5,80,127,2319651128
2416,18,Jits_Linear_8,1,5,56,103,2319701480
2416,18,Jits_Linear_8,2,5,63,98,2319720744
2416,18,Jits_Linear_8,3,1,48,58,2319736740
2416,18,Jits_Linear_8,0,5,80,127,2320331372
2416,18,Jits_Linear_8,1,1,48,60,2320382840
2416,18,Jits_Linear_8,2,5,63,98,2320390440
2416,18,Jits_Linear_8,3,5,56,103,2320471428
2416,18,Jits_Linear_8,0,5,80,127,2320981452
2416,18,Jits_Linear_8,1,5,56,103,2321021540
2416,18,Jits_Linear_8,2,5,63,98,2321040732
2416,18,Jits_Linear_8,3,1,48,64,2321043924
2416,18,Jits_Linear_8,0,1,48,69,2321672020
2416,18,Jits_Linear_8,1,5,56,103,2321701488
2416,18,Jits_Linear_8,2,5,80,127,2321710340
2416,18,Jits_Linear_8,3,5,63,98,2321751400
2416,18,Jits_Linear_8,0,1,48,55,2322369792
2416,18,Jits_Linear_8,1,5,56,103,2322431276
2416,18,Jits_Linear_8,2,5,63,98,2322471272
2416,18,Jits_Linear_8,3,5,80,127,2322474488
2416,18,Jits_Linear_8,0,5,63,98,2322981224
2416,18,Jits_Linear_8,1,5,80,127,2323021312
2416,18,Jits_Linear_8,2,1,48,59,2323084292
2416,18,Jits_Linear_8,3,5,56,103,2323090840
2416,18,Jits_Linear_8,0,5,63,98,2323630512
2416,18,Jits_Linear_8,1,1,48,62,2323673192
2416,18,Jits_Linear_8,2,5,56,103,2323711228
2416,18,Jits_Linear_8,3,5,80,127,2323771676
2416,18,Jits_Linear_8,0,5,80,127,2324301256
2416,18,Jits_Linear_8,1,5,63,98,2324351308
2416,18,Jits_Linear_8,2,1,48,66,2324362148
2416,18,Jits_Linear_8,3,5,56,103,2324381128
2416,18,Jits_Linear_8,0,5,56,103,2324951308
2416,18,Jits_Linear_8,1,5,63,98,2325000416
2416,18,Jits_Linear_8,2,5,80,127,2325010688
2416,18,Jits_Linear_8,3,1,48,58,2325073436
2416,18,Jits_Linear_8,0,5,56,103,2325621016
2416,18,Jits_Linear_8,1,1,48,58,2325657464
2416,18,Jits_Linear_8,2,5,63,98,2325730624
2416,18,Jits_Linear_8,3,5,80,127,2325751256
2416,18,Jits_Linear_8,0,5,63,98,2326271472
2416,18,Jits_Linear_8,1,1,48,58,2326312580
2416,18,Jits_Linear_8,2,5,80,127,2326320400
2416,18,Jits_Linear_8,3,5,56,103,2326410664
2416,18,Jits_Linear_8,0,5,63,98,2326911404
2416,18,Jits_Linear_8,1,5,80,127,2326941004
2416,18,Jits_Linear_8,2,1,48,44,2326959340
2416,18,Jits_Linear_8,3,5,56,103,2327031228
2416,18,Jits_Linear_8,0,5,63,98,2327560568
2416,18,Jits_Linear_8,1,5,56,103,2327570912
2416,18,Jits_Linear_8,2,1,48,49,2327618224
2416,18,Jits_Linear_8,3,5,80,127,2327671228
2416,18,Jits_Linear_8,0,1,48,44,2328193856
2416,18,Jits_Linear_8,1,5,63,98,2328311080
2416,18,Jits_Linear_8,2,5,80,127,2328340832
2416,18,Jits_Linear_8,3,5,56,103,2328370804
2416,18,Jits_Linear_8,0,1,48,61,2328895176
2416,18,Jits_Linear_8,1,5,80,127,2328970508
2416,18,Jits_Linear_8,2,5,63,98,2328981004
2416,18,Jits_Linear_8,3,5,56,103,2329010440
2416,18,Jits_Linear_8,0,5,80,127,2329511400
2416,18,Jits_Linear_8,1,5,63,98,2329530960
2416,18,Jits_Linear_8,2,5,56,103,2329581088
2416,18,Jits_Linear_8,3,1,48,63,2329618928
2416,18,Jits_Linear_8,0,5,63,98,2330181184
2416,18,Jits_Linear_8,1,1,48,64,2330232856
2416,18,Jits_Linear_8,2,5,80,127,2330241348
2416,18,Jits_Linear_8,3,5,56,103,2330261060
2416,18,Jits_Linear_8,0,5,63,98,2330781032
2416,18,Jits_Linear_8,1,5,56,103,2330831088
2416,18,Jits_Linear_8,2,5,80,127,2330840460
2416,18,Jits_Linear_8,3,1,48,63,2330879864
2416,18,Jits_Linear_8,0,5,56,103,2331450948
2416,18,Jits_Linear_8,1,1,48,57,2331456984
2416,18,Jits_Linear_8,2,5,80,127,2331461136
2416,18,Jits_Linear_8,3,5,63,98,2331561296
2416,18,Jits_Linear_8,0,5,80,127,2332051104
2416,18,Jits_Linear_8,1,5,63,98,2332061004
2416,18,Jits_Linear_8,2,1,48,61,2332080312
2416,18,Jits_Linear_8,3,5,56,103,2332210696
2416,18,Jits_Linear_8,0,5,63,98,2332691072
2416,18,Jits_Linear_8,1,5,80,127,2332731012
2416,18,Jits_Linear_8,2,1,48,52,2332735176
2416,18,Jits_Linear_8,3,5,56,103,2332810728
2416,18,Jits_Linear_8,0,5,56,103,2333311300
2416,18,Jits_Linear_8,1,1,48,59,2333367752
2416,18,Jits_Linear_8,2,5,80,127,2333410644
2416,18,Jits_Linear_8,3,5,63,98,2333431204
2416,18,Jits_Linear_8,0,5,80,127,2334000644
2416,18,Jits_Linear_8,1,5,56,103,2334010692
2416,18,Jits_Linear_8,2,1,48,65,2334021528
2416,18,Jits_Linear_8,3,5,63,98,2334100816
2416,18,Jits_Linear_8,0,5,56,103,2334631444
2416,18,Jits_Linear_8,1,5,63,98,2334650784
2416,18,Jits_Linear_8,2,1,48,59,2334686184
2416,18,Jits_Linear_8,3,5,80,127,2334730672
2416,18,Jits_Linear_8,0,5,63,98,2335201032
2416,18,Jits_Linear_8,1,1,48,57,2335273332
2416,18,Jits_Linear_8,2,5,56,103,2335290664
2416,18,Jits_Linear_8,3,5,80,127,2335293880
2416,18,Jits_Linear_8,0,1,48,57,2335813072
2416,18,Jits_Linear_8,1,5,56,103,2335850936
2416,18,Jits_Linear_8,2,5,80,127,2335911388
2416,18,Jits_Linear_8,3,5,63,98,2335920612
2416,18,Jits_Linear_8,0,5,80,127,2336520644
2416,18,Jits_Linear_8,1,1,48,68,2336524884
2416,18,Jits_Linear_8,2,5,56,103,2336530980
2416,18,Jits_Linear_8,3,5,63,98,2336534120
2416,18,Jits_Linear_8,0,5,56,103,2337101160
2416,18,Jits_Linear_8,1,5,80,127,2337111580
2416,18,Jits_Linear_8,2,5,63,98,2337130844
2416,18,Jits_Linear_8,3,1,48,65,2337133592
2416,18,Jits_Linear_8,0,1,48,54,2337687264
2416,18,Jits_Linear_8,1,5,63,98,2337691120
2416,18,Jits_Linear_8,2,5,80,127,2337751516
2416,18,Jits_Linear_8,3,5,56,103,2337800456
2416,18,Jits_Linear_8,0,1,48,69,2338358236
2416,18,Jits_Linear_8,1,5,63,98,2338391540
2416,18,Jits_Linear_8,2,5,56,103,2338400688
2416,18,Jits_Linear_8,3,5,80,127,2338450816
2416,18,Jits_Linear_8,0,5,63,98,2338901492
2416,18,Jits_Linear_8,1,5,80,127,2338920680
2416,18,Jits_Linear_8,2,5,56,103,2338931248
2416,18,Jits_Linear_8,3,1,48,55,2338977812
2416,18,Jits_Linear_8,0,1,48,48,2339461364
2416,18,Jits_Linear_8,1,5,63,98,2339510612
2416,18,Jits_Linear_8,2,5,80,127,2339513900
2416,18,Jits_Linear_8,3,5,56,103,2339550624
2416,18,Jits_Linear_8,0,1,48,51,2340045592
2416,18,Jits_Linear_8,1,5,63,98,2340190692
2416,18,Jits_Linear_8,2,5,80,127,2340221416
2416,18,Jits_Linear_8,3,5,56,103,2340230636
2416,18,Jits_Linear_8,0,5,56,103,2340750700
2416,18,Jits_Linear_8,1,5,80,127,2340781500
2416,18,Jits_Linear_8,2,5,63,98,2340811100
2416,18,Jits_Linear_8,3,1,48,57,2340821192
2416,18,Jits_Linear_8,0,1,48,69,2341373624
2416,18,Jits_Linear_8,1,5,63,98,2341451200
2416,18,Jits_Linear_8,2,5,56,103,2341491196
2416,18,Jits_Linear_8,3,5,80,127,2341494116
2416,18,Jits_Linear_8,0,5,80,127,2341950804
2416,18,Jits_Linear_8,1,5,56,103,2342030680
2416,18,Jits_Linear_8,2,5,63,98,2342080880
2416,18,Jits_Linear_8,3,1,48,68,2342094260
2416,18,Jits_Linear_8,0,5,80,127,2342530364
2416,18,Jits_Linear_8,1,5,56,103,2342550896
2416,18,Jits_Linear_8,2,5,63,98,2342641272
2416,18,Jits_Linear_8,3,1,48,62,2342714512
2416,18,Jits_Linear_8,0,5,80,127,2343170324
2416,18,Jits_Linear_8,1,5,63,98,2343211532
2416,18,Jits_Linear_8,2,1,48,53,2343232332
2416,18,Jits_Linear_8,3,5,56,103,2343251464
2416,18,Jits_Linear_8,0,5,63,98,2343740736
2416,18,Jits_Linear_8,1,5,80,127,2343801352
2416,18,Jits_Linear_8,2,1,48,59,2343809128
2416,18,Jits_Linear_8,3,5,56,103,2343830800
2416,18,Jits_Linear_8,0,5,56,103,2344340804
2416,18,Jits_Linear_8,1,5,80,127,2344370556
2416,18,Jits_Linear_8,2,1,48,69,2344406336
2416,18,Jits_Linear_8,3,5,63,98,2344460632
2416,18,Jits_Linear_8,0,5,56,103,2344940964
2416,18,Jits_Linear_8,1,1,48,64,2345014384
2416,18,Jits_Linear_8,2,5,80,127,2345050448
2416,18,Jits_Linear_8,3,5,63,98,2345081396
2416,18,Jits_Linear_8,0,5,56,103,2345580940
2416,18,Jits_Linear_8,1,1,48,56,2345599428
2416,18,Jits_Linear_8,2,5,63,98,2345641328
2416,18,Jits_Linear_8,3,5,80,127,2345671224
2416,18,Jits_Linear_8,0,5,56,103,2346141172
2416,18,Jits_Linear_8,1,1,48,62,2346192024
2416,18,Jits_Linear_8,2,5,63,98,2346210628
2416,18,Jits_Linear_8,3,5,80,127,2346231260
2416,18,Jits_Linear_8,0,5,80,127,2346701400
2416,18,Jits_Linear_8,1,5,63,98,2346720740
2416,18,Jits_Linear_8,2,1,48,51,2346760072
2416,18,Jits_Linear_8,3,5,56,103,2346770960
2416,18,Jits_Linear_8,0,1,48,53,2347301508
2416,18,Jits_Linear_8,1,5,63,98,2347303076
2416,18,Jits_Linear_8,2,5,80,127,2347310428
2416,18,Jits_Linear_8,3,5,56,103,2347360704
2416,18,Jits_Linear_8,0,1,48,57,2347879996
2416,18,Jits_Linear_8,1,5,63,98,2347881720
2416,18,Jits_Linear_8,2,5,80,127,2347950580
2416,18,Jits_Linear_8,3,5,56,103,2347971112
2416,18,Jits_Linear_8,0,1,48,49,2348473596
2416,18,Jits_Linear_8,1,5,63,98,2348491228
2416,18,Jits_Linear_8,2,5,80,127,2348494592
2416,18,Jits_Linear_8,3,5,56,103,2348560860
2416,18,Jits_Linear_8,0,5,80,127,2349020428
2416,18,Jits_Linear_8,1,5,56,103,2349041136
2416,18,Jits_Linear_8,2,5,63,98,2349051108
2416,18,Jits_Linear_8,3,1,48,49,2349052076
2416,18,Jits_Linear_8,0,1,48,60,2349595464
2416,18,Jits_Linear_8,1,5,56,103,2349620672
2416,18,Jits_Linear_8,2,5,63,98,2349710644
2416,18,Jits_Linear_8,3,5,80,127,2349713932
2416,18,Jits_Linear_8,0,5,80,127,2350170472
2416,18,Jits_Linear_8,1,5,56,103,2350180592
2416,18,Jits_Linear_8,2,1,48,63,2350185804
2416,18,Jits_Linear_8,3,5,63,98,2350201192
2416,18,Jits_Linear_8,0,1,48,61,2350736716
2416,18,Jits_Linear_8,1,5,63,98,2350741096
2416,18,Jits_Linear_8,2,5,80,127,2350801192
2416,18,Jits_Linear_8,3,5,56,103,2350810492
2416,18,Jits_Linear_8,0,5,63,98,2351381128
2416,18,Jits_Linear_8,1,1,48,65,2351392048
2416,18,Jits_Linear_8,2,5,80,127,2351410504
2416,18,Jits_Linear_8,3,5,56,103,2351450440
2416,18,Jits_Linear_8,0,5,56,103,2351940972
2416,18,Jits_Linear_8,1,5,80,127,2351951320
2416,18,Jits_Linear_8,2,1,48,59,2351956976
2416,18,Jits_Linear_8,3,5,63,98,2351991176
2416,18,Jits_Linear_8,0,5,80,127,2352471532
2416,18,Jits_Linear_8,1,1,48,50,2352480356
2416,18,Jits_Linear_8,2,5,56,103,2352551396
2416,18,Jits_Linear_8,3,5,63,98,2352560624
2416,18,Jits_Linear_8,0,1,48,53,2353069500
2416,18,Jits_Linear_8,1,5,80,127,2353080832
2416,18,Jits_Linear_8,2,5,56,103,2353160656
2416,18,Jits_Linear_8,3,5,63,98,2353170984
2416,18,Jits_Linear_8,0,5,80,127,2353600976
2416,18,Jits_Linear_8,1,5,56,103,2353651056
2416,18,Jits_Linear_8,2,1,48,59,2353699060
2416,18,Jits_Linear_8,3,5,63,98,2353701176
2416,18,Jits_Linear_8,0,5,56,103,2354221392
2416,18,Jits_Linear_8,1,5,63,98,2354224384
2416,18,Jits_Linear_8,2,1,48,62,2354242120
2416,18,Jits_Linear_8,3,5,80,127,2354270836
2416,18,Jits_Linear_8,0,1,48,65,2354790656
2416,18,Jits_Linear_8,1,5,56,103,2354801016
2416,18,Jits_Linear_8,2,5,63,98,2354830992
2416,18,Jits_Linear_8,3,5,80,127,2354840964
2416,18,Jits_Linear_8,0,5,63,98,2355271036
2416,18,Jits_Linear_8,1,5,56,103,2355340720
2416,18,Jits_Linear_8,2,1,48,60,2355366984
2416,18,Jits_Linear_8,3,5,80,127,2355390916
2416,18,Jits_Linear_8,0,5,63,98,2355860848
2416,18,Jits_Linear_8,1,5,56,103,2355871192
2416,18,Jits_Linear_8,2,5,80,127,2355874184
2416,18,Jits_Linear_8,3,1,48,60,2355925696
2416,18,Jits_Linear_8,0,5,80,127,2356360660
2416,18,Jits_Linear_8,1,5,56,103,2356420980
2416,18,Jits_Linear_8,2,1,48,63,2356443352
2416,18,Jits_Linear_8,3,5,63,98,2356511204
2416,18,Jits_Linear_8,0,5,80,127,2356910400
2416,18,Jits_Linear_8,1,1,48,59,2356972780
2416,18,Jits_Linear_8,2,5,56,103,2357010888
2416,18,Jits_Linear_8,3,5,63,98,2357050828
2416,18,Jits_Linear_8,0,5,56,103,2357510660
2416,18,Jits_Linear_8,1,5,63,98,2357530972
2416,18,Jits_Linear_8,2,1,48,48,2357542260
2416,18,Jits_Linear_8,3,5,80,127,2357570904
2416,18,Jits_Linear_8,0,5,63,98,2358030804
2416,18,Jits_Linear_8,1,5,56,103,2358051116
2416,18,Jits_Linear_8,2,1,48,56,2358088092
2416,18,Jits_Linear_8,3,5,80,127,2358150608
2416,18,Jits_Linear_8,0,5,63,98,2358561128
2416,18,Jits_Linear_8,1,1,48,59,2358578640
2416,18,Jits_Linear_8,2,5,80,127,2358670812
2416,18,Jits_Linear_8,3,5,56,103,2358701668
2416,18,Jits_Linear_8,0,5,56,103,2359121192
2416,18,Jits_Linear_8,1,5,63,98,2359150944
2416,18,Jits_Linear_8,2,1,48,59,2359181036
2416,18,Jits_Linear_8,3,5,80,127,2359201064
2416,18,Jits_Linear_8,0,5,63,98,2359631300
2416,18,Jits_Linear_8,1,5,56,103,2359660976
2416,18,Jits_Linear_8,2,5,80,127,2359711176
2416,18,Jits_Linear_8,3,1,48,64,2359716316
2416,18,Jits_Linear_8,0,1,48,66,2360206528
2416,18,Jits_Linear_8,1,5,56,103,2360210756
2416,18,Jits_Linear_8,2,5,63,98,2360231516
2416,18,Jits_Linear_8,3,5,80,127,2360311244
2416,18,Jits_Linear_8,0,5,63,98,2360720628
2416,18,Jits_Linear_8,1,1,48,64,2360743448
2416,18,Jits_Linear_8,2,5,56,103,2360781312
2416,18,Jits_Linear_8,3,5,80,127,2360810764
2416,18,Jits_Linear_8,0,1,48,59,2361248796
2416,18,Jits_Linear_8,1,5,56,103,2361301648
2416,18,Jits_Linear_8,2,5,80,127,2361360856
2416,18,Jits_Linear_8,3,5,63,98,2361400724
2416,18,Jits_Linear_8,0,5,63,98,2361811380
2416,18,Jits_Linear_8,1,5,56,103,2361870676
2416,18,Jits_Linear_8,2,1,48,62,2361878972
2416,18,Jits_Linear_8,3,5,80,127,2361941616
2416,18,Jits_Linear_8,0,1,48,65,2362333276
2416,18,Jits_Linear_8,1,5,56,103,2362420540
2416,18,Jits_Linear_8,2,5,63,98,2362430792
2416,18,Jits_Linear_8,3,5,80,127,2362434080
2416,18,Jits_Linear_8,0,5,63,98,2362890548
2416,18,Jits_Linear_8,1,5,56,103,2362951016
2416,18,Jits_Linear_8,2,5,80,127,2362953932
2416,18,Jits_Linear_8,3,1,48,57,2362961700
2416,18,Jits_Linear_8,0,1,48,58,2363378952
2416,18,Jits_Linear_8,1,5,63,98,2363400624
2416,18,Jits_Linear_8,2,5,80,127,2363431496
2416,18,Jits_Linear_8,3,5,56,103,2363450836
2416,18,Jits_Linear_8,0,1,48,43,2363895472
2416,18,Jits_Linear_8,1,5,56,103,2363931092
2416,18,Jits_Linear_8,2,5,63,98,2363981296
2416,18,Jits_Linear_8,3,5,80,127,2364061000
2416,18,Jits_Linear_8,0,1,48,66,2364414040
2416,18,Jits_Linear_8,1,5,80,127,2364430700
2416,18,Jits_Linear_8,2,5,63,98,2364470788
2416,18,Jits_Linear_8,3,5,56,103,2364491100
2416,18,Jits_Linear_8,0,1,48,48,2364929528
2416,18,Jits_Linear_8,1,5,56,103,2365021688
2416,18,Jits_Linear_8,2,5,80,127,2365030764
2416,18,Jits_Linear_8,3,5,63,98,2365051520
2416,18,Jits_Linear_8,0,1,48,62,2365494532
2416,18,Jits_Linear_8,1,5,56,103,2365521308
2416,18,Jits_Linear_8,2,5,63,98,2365570540
2416,18,Jits_Linear_8,3,5,80,127,2365601324
2416,18,Jits_Linear_8,0,5,56,103,2365991476
2416,18,Jits_Linear_8,1,5,63,98,2366000404
2416,18,Jits_Linear_8,2,1,48,42,2366032368
2416,18,Jits_Linear_8,3,5,80,127,2366050748
2416,18,Jits_Linear_8,0,5,56,103,2366501352
2416,18,Jits_Linear_8,1,5,80,127,2366504272
2416,18,Jits_Linear_8,2,1,48,60,2366511968
2416,18,Jits_Linear_8,3,5,63,98,2366660840
2416,18,Jits_Linear_8,0,1,48,59,2367020044
2416,18,Jits_Linear_8,1,5,63,98,2367030628
2416,18,Jits_Linear_8,2,5,56,103,2367101284
2416,18,Jits_Linear_8,3,5,80,127,2367141280
2416,18,Jits_Linear_8,0,5,63,98,2367580516
2416,18,Jits_Linear_8,1,1,48,63,2367619228
2416,18,Jits_Linear_8,2,5,56,103,2367670568
2416,18,Jits_Linear_8,3,5,80,127,2367673708
2416,18,Jits_Linear_8,0,5,56,103,2368071124
2416,18,Jits_Linear_8,1,1,48,60,2368124436
2416,18,Jits_Linear_8,2,5,63,98,2368161328
2416,18,Jits_Linear_8,3,5,80,127,2368171376
2416,18,Jits_Linear_8,0,5,56,103,2368551340
2416,18,Jits_Linear_8,1,5,63,98,2368600424
2416,18,Jits_Linear_8,2,5,80,127,2368631144
2416,18,Jits_Linear_8,3,1,48,60,2368681688
2416,18,Jits_Linear_8,0,5,63,98,2369130752
2416,18,Jits_Linear_8,1,5,80,127,2369141320
2416,18,Jits_Linear_8,2,5,56,103,2369200372
2416,18,Jits_Linear_8,3,1,48,62,2369253004
2416,18,Jits_Linear_8,0,5,63,98,2369550568
2416,18,Jits_Linear_8,1,5,80,127,2369611036
2416,18,Jits_Linear_8,2,5,56,103,2369651048
2416,18,Jits_Linear_8,3,1,48,44,2369757396
2416,18,Jits_Linear_8,0,5,56,103,2370150644
2416,18,Jits_Linear_8,1,5,80,127,2370171328
2416,18,Jits_Linear_8,2,5,63,98,2370190592
2416,18,Jits_Linear_8,3,1,48,46,2370213636
2416,18,Jits_Linear_8,0,5,63,98,2370570476
2416,18,Jits_Linear_8,1,5,56,103,2370591084
2416,18,Jits_Linear_8,2,5,80,127,2370631024
2416,18,Jits_Linear_8,3,1,48,57,2370761876
2416,18,Jits_Linear_8,0,5,63,98,2371080416
2416,18,Jits_Linear_8,1,5,80,127,2371111212
2416,18,Jits_Linear_8,2,5,56,103,2371130848
2416,18,Jits_Linear_8,3,1,48,44,2371136584
2416,18,Jits_Linear_8,0,5,80,127,2371550468
2416,18,Jits_Linear_8,1,5,56,103,2371600848
2416,18,Jits_Linear_8,2,5,63,98,2371661164
2416,18,Jits_Linear_8,3,1,48,57,2371681668
2416,18,Jits_Linear_8,0,5,63,98,2372031128
2416,18,Jits_Linear_8,1,5,56,103,2372150588
2416,18,Jits_Linear_8,2,5,80,127,2372181312
2416,18,Jits_Linear_8,3,1,48,55,2372184052
2416,18,Jits_Linear_8,0,5,80,127,2372561160
2416,18,Jits_Linear_8,1,5,63,98,2372580796
2416,18,Jits_Linear_8,2,5,56,103,2372651400
2416,18,Jits_Linear_8,3,1,48,59,2372676316
2416,18,Jits_Linear_8,0,5,63,98,2373071112
2416,18,Jits_Linear_8,1,5,56,103,2373080336
2416,18,Jits_Linear_8,2,5,80,127,2373161204
2416,18,Jits_Linear_8,3,1,48,57,2373174884
2416,18,Jits_Linear_8,0,1,48,53,2373605524
2416,18,Jits_Linear_8,1,5,56,103,2373621088
2416,18,Jits_Linear_8,2,5,80,127,2373650764
2416,18,Jits_Linear_8,3,5,63,98,2373661036
2416,18,Jits_Linear_8,0,9999,9999,9999,2263268444
2416,18,Jits_Linear_8,1,9999,9999,9999,2264088680
2416,18,Jits_Linear_8,2,9999,9999,9999,2264908884
2416,18,Jits_Linear_8,3,9999,9999,9999,2265728100
2416,18,Jits_Linear_8,4,9999,9999,9999,2266548344
2416,18,Jits_Linear_8,5,9999,9999,9999,2267358292
2416,18,Jits_Linear_8,6,9999,9999,9999,2268168272
2416,18,Jits_Linear_8,7,9999,9999,9999,2268978232
2416,18,Jits_Linear_8,8,9999,9999,9999,2269788252
2416,18,Jits_Linear_8,9,9999,9999,9999,2270598260
2416,18,Jits_Linear_8,10,9999,9999,9999,2271398992
2416,18,Jits_Linear_8,11,9999,9999,9999,2272198748
2416,18,Jits_Linear_8,12,9999,9999,9999,2272998524
2416,18,Jits_Linear_8,13,9999,9999,9999,2273798240
2416,18,Jits_Linear_8,14,9999,9999,9999,2274599024
2416,18,Jits_Linear_8,15,9999,9999,9999,2275388524
2416,18,Jits_Linear_8,16,9999,9999,9999,2276179044
2416,18,Jits_Linear_8,17,9999,9999,9999,2276968560
2416,18,Jits_Linear_8,18,9999,9999,9999,2277759100
2416,18,Jits_Linear_8,19,9999,9999,9999,2278548536
2416,18,Jits_Linear_8,20,9999,9999,9999,2279328884
2416,18,Jits_Linear_8,21,9999,9999,9999,2280108108
2416,18,Jits_Linear_8,22,9999,9999,9999,2280888440
2416,18,Jits_Linear_8,23,9999,9999,9999,2281668716
2416,18,Jits_Linear_8,24,9999,9999,9999,2282448988
2416,18,Jits_Linear_8,25,9999,9999,9999,2283219000
2416,18,Jits_Linear_8,26,9999,9999,9999,2283989088
2416,18,Jits_Linear_8,27,9999,9999,9999,2284758128
2416,18,Jits_Linear_8,28,9999,9999,9999,2285528156
2416,18,Jits_Linear_8,29,9999,9999,9999,2286298176
2416,18,Jits_Linear_8,30,9999,9999,9999,2287059040
2416,18,Jits_Linear_8,31,9999,9999,9999,2287818864
2416,18,Jits_Linear_8,32,9999,9999,9999,2288578624
2416,18,Jits_Linear_8,33,9999,9999,9999,2289338456
2416,18,Jits_Linear_8,34,9999,9999,9999,2290098288
2416,18,Jits_Linear_8,35,9999,9999,9999,2290848832
2416,18,Jits_Linear_8,36,9999,9999,9999,2291598400
2416,18,Jits_Linear_8,37,9999,9999,9999,2292349020
2416,18,Jits_Linear_8,38,9999,9999,9999,2293098588
2416,18,Jits_Linear_8,39,9999,9999,9999,2293848168
2416,18,Jits_Linear_8,40,9999,9999,9999,2294588512
2416,18,Jits_Linear_8,41,9999,9999,9999,2295328872
2416,18,Jits_Linear_8,42,9999,9999,9999,2296068164
2416,18,Jits_Linear_8,43,9999,9999,9999,2296808560
2416,18,Jits_Linear_8,44,9999,9999,9999,2297548888
2416,18,Jits_Linear_8,45,9999,9999,9999,2298278968
2416,18,Jits_Linear_8,46,9999,9999,9999,2299008076
2416,18,Jits_Linear_8,47,9999,9999,9999,2299738168
2416,18,Jits_Linear_8,48,9999,9999,9999,2300468336
2416,18,Jits_Linear_8,49,9999,9999,9999,2301198424
2416,18,Jits_Linear_8,50,9999,9999,9999,2301918288
2416,18,Jits_Linear_8,51,9999,9999,9999,2302638196
2416,18,Jits_Linear_8,52,9999,9999,9999,2303359076
2416,18,Jits_Linear_8,53,9999,9999,9999,2304078916
2416,18,Jits_Linear_8,54,9999,9999,9999,2304798808
2416,18,Jits_Linear_8,55,9999,9999,9999,2305508424
2416,18,Jits_Linear_8,56,9999,9999,9999,2306219096
2416,18,Jits_Linear_8,57,9999,9999,9999,2306938984
2416,18,Jits_Linear_8,58,9999,9999,9999,2307648612
2416,18,Jits_Linear_8,59,9999,9999,9999,2308358240
2416,18,Jits_Linear_8,60,9999,9999,9999,2309058636
2416,18,Jits_Linear_8,61,9999,9999,9999,2309759064
2416,18,Jits_Linear_8,62,9999,9999,9999,2310458428
2416,18,Jits_Linear_8,63,9999,9999,9999,2311158908
2416,18,Jits_Linear_8,64,9999,9999,9999,2311858256
2416,18,Jits_Linear_8,65,9999,9999,9999,2312548408
2416,18,Jits_Linear_8,66,9999,9999,9999,2313238648
2416,18,Jits_Linear_8,67,9999,9999,9999,2313928772
2416,18,Jits_Linear_8,68,9999,9999,9999,2314618984
2416,18,Jits_Linear_8,69,9999,9999,9999,2315308104
2416,18,Jits_Linear_8,70,9999,9999,9999,2315989092
2416,18,Jits_Linear_8,71,9999,9999,9999,2316668984
2416,18,Jits_Linear_8,72,9999,9999,9999,2317348920
2416,18,Jits_Linear_8,73,9999,9999,9999,2318028868
2416,18,Jits_Linear_8,74,9999,9999,9999,2318708848
2416,18,Jits_Linear_8,75,9999,9999,9999,2319378552
2416,18,Jits_Linear_8,76,9999,9999,9999,2320048236
2416,18,Jits_Linear_8,77,9999,9999,9999,2320718920
2416,18,Jits_Linear_8,78,9999,9999,9999,2321388600
2416,18,Jits_Linear_8,79,9999,9999,9999,2322058300
2416,18,Jits_Linear_8,80,9999,9999,9999,2322718780
2416,18,Jits_Linear_8,81,9999,9999,9999,2323378260
2416,18,Jits_Linear_8,82,9999,9999,9999,2324038736
2416,18,Jits_Linear_8,83,9999,9999,9999,2324698216
2416,18,Jits_Linear_8,84,9999,9999,9999,2325358704
2416,18,Jits_Linear_8,85,9999,9999,9999,2326008940
2416,18,Jits_Linear_8,86,9999,9999,9999,2326658172
2416,18,Jits_Linear_8,87,9999,9999,9999,2327308388
2416,18,Jits_Linear_8,88,9999,9999,9999,2327958648
2416,18,Jits_Linear_8,89,9999,9999,9999,2328608868
2416,18,Jits_Linear_8,90,9999,9999,9999,2329248880
2416,18,Jits_Linear_8,91,9999,9999,9999,2329888828
2416,18,Jits_Linear_8,92,9999,9999,9999,2330528852
2416,18,Jits_Linear_8,93,9999,9999,9999,2331168872
2416,18,Jits_Linear_8,94,9999,9999,9999,2331808876
2416,18,Jits_Linear_8,95,9999,9999,9999,2332438652
2416,18,Jits_Linear_8,96,9999,9999,9999,2333068404
2416,18,Jits_Linear_8,97,9999,9999,9999,2333698172
2416,18,Jits_Linear_8,98,9999,9999,9999,2334328904
2416,18,Jits_Linear_8,99,9999,9999,9999,2334958660
2416,18,Jits_Linear_8,100,9999,9999,9999,2335578236
2416,18,Jits_Linear_8,101,9999,9999,9999,2336198756
2416,18,Jits_Linear_8,102,9999,9999,9999,2336818252
2416,18,Jits_Linear_8,103,9999,9999,9999,2337438784
2416,18,Jits_Linear_8,104,9999,9999,9999,2338058300
2416,18,Jits_Linear_8,105,9999,9999,9999,2338668640
2416,18,Jits_Linear_8,106,9999,9999,9999,2339278968
2416,18,Jits_Linear_8,107,9999,9999,9999,2339888188
2416,18,Jits_Linear_8,108,9999,9999,9999,2340498520
2416,18,Jits_Linear_8,109,9999,9999,9999,2341108800
2416,18,Jits_Linear_8,110,9999,9999,9999,2341708888
2416,18,Jits_Linear_8,111,9999,9999,9999,2342308960
2416,18,Jits_Linear_8,112,9999,9999,9999,2342908984
2416,18,Jits_Linear_8,113,9999,9999,9999,2343509068
2416,18,Jits_Linear_8,114,9999,9999,9999,2344108104
2416,18,Jits_Linear_8,115,9999,9999,9999,2344698980
2416,18,Jits_Linear_8,116,9999,9999,9999,2345288812
2416,18,Jits_Linear_8,117,9999,9999,9999,2345878640
2416,18,Jits_Linear_8,118,9999,9999,9999,2346468464
2416,18,Jits_Linear_8,119,9999,9999,9999,2347058232
2416,18,Jits_Linear_8,120,9999,9999,9999,2347638908
2416,18,Jits_Linear_8,121,9999,9999,9999,2348218452
2416,18,Jits_Linear_8,122,9999,9999,9999,2348799060
2416,18,Jits_Linear_8,123,9999,9999,9999,2349378676
2416,18,Jits_Linear_8,124,9999,9999,9999,2349958224
2416,18,Jits_Linear_8,125,9999,9999,9999,2350528620
2416,18,Jits_Linear_8,126,9999,9999,9999,2351098980
2416,18,Jits_Linear_8,127,9999,9999,9999,2351668340
2416,18,Jits_Linear_8,128,9999,9999,9999,2352238664
2416,18,Jits_Linear_8,129,9999,9999,9999,2352809012
2416,18,Jits_Linear_8,130,9999,9999,9999,2353368128
2416,18,Jits_Linear_8,131,9999,9999,9999,2353928292
2416,18,Jits_Linear_8,132,9999,9999,9999,2354488440
2416,18,Jits_Linear_8,133,9999,9999,9999,2355048528
2416,18,Jits_Linear_8,134,9999,9999,9999,2355608668
2416,18,Jits_Linear_8,135,9999,9999,9999,2356158532
2416,18,Jits_Linear_8,136,9999,9999,9999,2356708476
2416,18,Jits_Linear_8,137,9999,9999,9999,2357258316
2416,18,Jits_Linear_8,138,9999,9999,9999,2357808204
2416,18,Jits_Linear_8,139,9999,9999,9999,2358358096
2416,18,Jits_Linear_8,140,9999,9999,9999,2358898760
2416,18,Jits_Linear_8,141,9999,9999,9999,2359438444
2416,18,Jits_Linear_8,142,9999,9999,9999,2359979112
2416,18,Jits_Linear_8,143,9999,9999,9999,2360528988
2416,18,Jits_Linear_8,144,9999,9999,9999,2361068664
2416,18,Jits_Linear_8,145,9999,9999,9999,2361599084
2416,18,Jits_Linear_8,146,9999,9999,9999,2362128508
2416,18,Jits_Linear_8,147,9999,9999,9999,2362658896
2416,18,Jits_Linear_8,148,9999,9999,9999,2363188308
2416,18,Jits_Linear_8,149,9999,9999,9999,2363718776
2416,18,Jits_Linear_8,150,9999,9999,9999,2364238912
2416,18,Jits_Linear_8,151,9999,9999,9999,2364758140
2416,18,Jits_Linear_8,152,9999,9999,9999,2365278280
2416,18,Jits_Linear_8,153,9999,9999,9999,2365798492
2416,18,Jits_Linear_8,154,9999,9999,9999,2366318692
2416,18,Jits_Linear_8,155,9999,9999,9999,2366828640
2416,18,Jits_Linear_8,156,9999,9999,9999,2367338596
2416,18,Jits_Linear_8,157,9999,9999,9999,2367848540
2416,18,Jits_Linear_8,158,9999,9999,9999,2368358488
2416,18,Jits_Linear_8,159,9999,9999,9999,2368868440
2416,18,Jits_Linear_8,160,9999,9999,9999,2369368144
2416,18,Jits_Linear_8,161,9999,9999,9999,2369868868
2416,18,Jits_Linear_8,162,9999,9999,9999,2370368632
2416,18,Jits_Linear_8,163,9999,9999,9999,2370868320
2416,18,Jits_Linear_8,164,9999,9999,9999,2371369040
2416,18,Jits_Linear_8,165,9999,9999,9999,2371858532
2416,18,Jits_Linear_8,166,9999,9999,9999,2372349012
2416,18,Jits_Linear_8,167,9999,9999,9999,2372838484
2416,18,Jits_Linear_8,168,9999,9999,9999,2373328956
2416,18,Jits_Linear_8,169,9999,9999,9999,2373818456
2417,17,Jits_Phase_5,0,5,56,103,2387650984
2417,17,Jits_Phase_5,1,5,63,98,2387654080
2417,17,Jits_Phase_5,2,5,80,127,2387657280
2417,17,Jits_Phase_5,0,5,56,103,2388150620
2417,17,Jits_Phase_5,1,5,63,98,2388154092
2417,17,Jits_Phase_5,2,5,80,127,2388157136
2417,17,Jits_Phase_5,3,1,48,42,2388162744
2417,17,Jits_Phase_5,0,1,48,71,2388641432
2417,17,Jits_Phase_5,1,5,56,103,2388651272
2417,17,Jits_Phase_5,2,5,80,127,2388660496
2417,17,Jits_Phase_5,3,5,63,98,2388681176
2417,17,Jits_Phase_5,0,5,63,98,2389100912
2417,17,Jits_Phase_5,1,5,80,127,2389130584
2417,17,Jits_Phase_5,2,5,56,103,2389140856
2417,17,Jits_Phase_5,3,1,48,70,2389155132
2417,17,Jits_Phase_5,0,1,48,67,2389598460
2417,17,Jits_Phase_5,1,5,80,127,2389661184
2417,17,Jits_Phase_5,2,5,56,103,2389671228
2417,17,Jits_Phase_5,3,5,63,98,2389701184
2417,17,Jits_Phase_5,0,5,63,98,2390150460
2417,17,Jits_Phase_5,1,1,48,76,2390173652
2417,17,Jits_Phase_5,2,5,56,103,2390181248
2417,17,Jits_Phase_5,3,5,80,127,2390190396
2417,17,Jits_Phase_5,0,5,56,103,2390601288
2417,17,Jits_Phase_5,1,5,63,98,2390651340
2417,17,Jits_Phase_5,2,5,80,127,2390671268
2417,17,Jits_Phase_5,3,1,48,69,2390680016
2417,17,Jits_Phase_5,0,5,80,127,2391100900
2417,17,Jits_Phase_5,1,1,48,72,2391132864
2417,17,Jits_Phase_5,2,5,63,98,2391150948
2417,17,Jits_Phase_5,3,5,56,103,2391190884
2417,17,Jits_Phase_5,0,5,56,103,2391600444
2417,17,Jits_Phase_5,1,1,48,73,2391626700
2417,17,Jits_Phase_5,2,5,63,98,2391631380
2417,17,Jits_Phase_5,3,5,80,127,2391701132
2417,17,Jits_Phase_5,0,5,56,103,2392101252
2417,17,Jits_Phase_5,1,1,48,72,2392113060
2417,17,Jits_Phase_5,2,5,80,127,2392160736
2417,17,Jits_Phase_5,3,5,63,98,2392191384
2417,17,Jits_Phase_5,0,1,48,62,2392602712
2417,17,Jits_Phase_5,1,5,56,103,2392611276
2417,17,Jits_Phase_5,2,5,63,98,2392621396
2417,17,Jits_Phase_5,3,5,80,127,2392661408
2417,17,Jits_Phase_5,0,1,48,65,2393086784
2417,17,Jits_Phase_5,1,5,63,98,2393100608
2417,17,Jits_Phase_5,2,5,80,127,2393180480
2417,17,Jits_Phase_5,3,5,56,103,2393190660
2417,17,Jits_Phase_5,0,1,48,60,2393626028
2417,17,Jits_Phase_5,1,5,63,98,2393650412
2417,17,Jits_Phase_5,2,5,56,103,2393690496
2417,17,Jits_Phase_5,3,5,80,127,2393693636
2417,17,Jits_Phase_5,0,5,56,103,2394120640
2417,17,Jits_Phase_5,1,1,48,57,2394130616
2417,17,Jits_Phase_5,2,5,63,98,2394132248
2417,17,Jits_Phase_5,3,5,80,127,2394170692
2417,17,Jits_Phase_5,0,5,56,103,2394611108
2417,17,Jits_Phase_5,1,5,63,98,2394614100
2417,17,Jits_Phase_5,2,5,80,127,2394630520
2417,17,Jits_Phase_5,3,1,48,70,2394642480
2417,17,Jits_Phase_5,0,5,80,127,2395121200
2417,17,Jits_Phase_5,1,5,56,103,2395131244
2417,17,Jits_Phase_5,2,1,48,63,2395137060
2417,17,Jits_Phase_5,3,5,63,98,2395200988
2417,17,Jits_Phase_5,0,5,63,98,2395610380
2417,17,Jits_Phase_5,1,5,56,103,2395631084
2417,17,Jits_Phase_5,2,1,48,50,2395641772
2417,17,Jits_Phase_5,3,5,80,127,2395711092
2417,17,Jits_Phase_5,0,5,56,103,2396120316
2417,17,Jits_Phase_5,1,1,48,59,2396129132
2417,17,Jits_Phase_5,2,5,80,127,2396161468
2417,17,Jits_Phase_5,3,5,63,98,2396170468
2417,17,Jits_Phase_5,0,5,80,127,2396610864
2417,17,Jits_Phase_5,1,1,48,61,2396635404
2417,17,Jits_Phase_5,2,5,63,98,2396640904
2417,17,Jits_Phase_5,3,5,56,103,2396680864
2417,17,Jits_Phase_5,0,5,56,103,2397131076
2417,17,Jits_Phase_5,1,1,48,57,2397143636
2417,17,Jits_Phase_5,2,5,63,98,2397160968
2417,17,Jits_Phase_5,3,5,80,127,2397210968
2417,17,Jits_Phase_5,0,1,48,57,2397626832
2417,17,Jits_Phase_5,1,5,80,127,2397631060
2417,17,Jits_Phase_5,2,5,56,103,2397670924
2417,17,Jits_Phase_5,3,5,63,98,2397681072
2417,17,Jits_Phase_5,0,5,80,127,2398111116
2417,17,Jits_Phase_5,1,5,63,98,2398151056
2417,17,Jits_Phase_5,2,1,48,60,2398175968
2417,17,Jits_Phase_5,3,5,56,103,2398210336
2417,17,Jits_Phase_5,0,5,56,103,2398610956
2417,17,Jits_Phase_5,1,5,80,127,2398621152
2417,17,Jits_Phase_5,2,1,48,62,2398646740
2417,17,Jits_Phase_5,3,5,63,98,2398700884
2417,17,Jits_Phase_5,0,5,80,127,2399110496
2417,17,Jits_Phase_5,1,1,48,60,2399140812
2417,17,Jits_Phase_5,2,5,63,98,2399171028
2417,17,Jits_Phase_5,3,5,56,103,2399200776
2417,17,Jits_Phase_5,0,5,56,103,2399611236
2417,17,Jits_Phase_5,1,1,48,63,2399621924
2417,17,Jits_Phase_5,2,5,80,127,2399670720
2417,17,Jits_Phase_5,3,5,63,98,2399710656
2417,17,Jits_Phase_5,0,1,48,70,2400141836
2417,17,Jits_Phase_5,1,5,56,103,2400161116
2417,17,Jits_Phase_5,2,5,63,98,2400171308
2417,17,Jits_Phase_5,3,5,80,127,2400174600
2417,17,Jits_Phase_5,0,5,80,127,2400610668
2417,17,Jits_Phase_5,1,1,48,71,2400639120
2417,17,Jits_Phase_5,2,5,63,98,2400700720
2417,17,Jits_Phase_5,3,5,56,103,2400710916
2417,17,Jits_Phase_5,0,1,48,73,2401102680
2417,17,Jits_Phase_5,1,5,56,103,2401111456
2417,17,Jits_Phase_5,2,5,63,98,2401114480
2417,17,Jits_Phase_5,3,5,80,127,2401117604
2417,17,Jits_Phase_5,0,1,48,79,2401591696
2417,17,Jits_Phase_5,1,5,80,127,2401630680
2417,17,Jits_Phase_5,2,5,63,98,2401680956
2417,17,Jits_Phase_5,3,5,56,103,2401710392
2417,17,Jits_Phase_5,0,5,56,103,2402110888
2417,17,Jits_Phase_5,1,1,48,57,2402113632
2417,17,Jits_Phase_5,2,5,80,127,2402121148
2417,17,Jits_Phase_5,3,5,63,98,2402190752
2417,17,Jits_Phase_5,0,1,48,50,2402604688
2417,17,Jits_Phase_5,1,5,56,103,2402620756
2417,17,Jits_Phase_5,2,5,63,98,2402641140
2417,17,Jits_Phase_5,3,5,80,127,2402700776
2417,17,Jits_Phase_5,0,5,80,127,2403101108
2417,17,Jits_Phase_5,1,1,48,58,2403112100
2417,17,Jits_Phase_5,2,5,63,98,2403170560
2417,17,Jits_Phase_5,3,5,56,103,2403191092
2417,17,Jits_Phase_5,0,5,80,127,2403621180
2417,17,Jits_Phase_5,1,5,56,103,2403630700
2417,17,Jits_Phase_5,2,1,48,61,2403638704
2417,17,Jits_Phase_5,3,5,63,98,2403640592
2417,17,Jits_Phase_5,0,5,80,127,2404110676
2417,17,Jits_Phase_5,1,1,48,58,2404127420
2417,17,Jits_Phase_5,2,5,56,103,2404131128
2417,17,Jits_Phase_5,3,5,63,98,2404200804
2417,17,Jits_Phase_5,0,5,56,103,2404620556
2417,17,Jits_Phase_5,1,1,48,60,2404641132
2417,17,Jits_Phase_5,2,5,80,127,2404651644
2417,17,Jits_Phase_5,3,5,63,98,2404670980
2417,17,Jits_Phase_5,0,5,63,98,2405111104
2417,17,Jits_Phase_5,1,1,48,72,2405149288
2417,17,Jits_Phase_5,2,5,56,103,2405170664
2417,17,Jits_Phase_5,3,5,80,127,2405201384
2417,17,Jits_Phase_5,0,5,63,98,2405600488
2417,17,Jits_Phase_5,1,5,80,127,2405604004
2417,17,Jits_Phase_5,2,1,48,64,2405643416
2417,17,Jits_Phase_5,3,5,56,103,2405690712
2417,17,Jits_Phase_5,0,5,56,103,2406120832
2417,17,Jits_Phase_5,1,1,48,59,2406149020
2417,17,Jits_Phase_5,2,5,63,98,2406150752
2417,17,Jits_Phase_5,3,5,80,127,2406190688
2417,17,Jits_Phase_5,0,5,63,98,2406620528
2417,17,Jits_Phase_5,1,1,48,72,2406636700
2417,17,Jits_Phase_5,2,5,56,103,2406660408
2417,17,Jits_Phase_5,3,5,80,127,2406680864
2417,17,Jits_Phase_5,0,1,48,73,2407110504
2417,17,Jits_Phase_5,1,5,63,98,2407130680
2417,17,Jits_Phase_5,2,5,56,103,2407170568
2417,17,Jits_Phase_5,3,5,80,127,2407180764
2417,17,Jits_Phase_5,0,5,80,127,2407610804
2417,17,Jits_Phase_5,1,1,48,67,2407629436
2417,17,Jits_Phase_5,2,5,63,98,2407681548
2417,17,Jits_Phase_5,3,5,56,103,2407700736
2417,17,Jits_Phase_5,0,5,56,103,2408101500
2417,17,Jits_Phase_5,1,5,80,127,2408120764
2417,17,Jits_Phase_5,2,1,48,65,2408147328
2417,17,Jits_Phase_5,3,5,63,98,2408160620
2417,17,Jits_Phase_5,0,5,63,98,2408611304
2417,17,Jits_Phase_5,1,5,80,127,2408630640
2417,17,Jits_Phase_5,2,1,48,69,2408633308
2417,17,Jits_Phase_5,3,5,56,103,2408670572
2417,17,Jits_Phase_5,0,1,48,58,2409101436
2417,17,Jits_Phase_5,1,5,63,98,2409110748
2417,17,Jits_Phase_5,2,5,56,103,2409131580
2417,17,Jits_Phase_5,3,5,80,127,2409140652
2417,17,Jits_Phase_5,0,5,80,127,2409610504
2417,17,Jits_Phase_5,1,1,48,62,2409619844
2417,17,Jits_Phase_5,2,5,56,103,2409631252
2417,17,Jits_Phase_5,3,5,63,98,2409660852
2417,17,Jits_Phase_5,0,1,48,70,2410102364
2417,17,Jits_Phase_5,1,5,56,103,2410191316
2417,17,Jits_Phase_5,2,5,80,127,2410194232
2417,17,Jits_Phase_5,3,5,63,98,2410210712
2417,17,Jits_Phase_5,0,5,63,98,2410611356
2417,17,Jits_Phase_5,1,5,56,103,2410640808
2417,17,Jits_Phase_5,2,5,80,127,2410701488
2417,17,Jits_Phase_5,3,1,48,68,2410745908
2417,17,Jits_Phase_5,0,5,63,98,2411190672
2417,17,Jits_Phase_5,1,5,56,103,2411200868
2417,17,Jits_Phase_5,2,1,48,57,2411211584
2417,17,Jits_Phase_5,3,5,80,127,2411212928
2417,17,Jits_Phase_5,0,5,56,103,2411650424
2417,17,Jits_Phase_5,1,5,80,127,2411681220
2417,17,Jits_Phase_5,2,5,63,98,2411691492
2417,17,Jits_Phase_5,3,1,48,54,2411758152
2417,17,Jits_Phase_5,0,5,63,98,2412191320
2417,17,Jits_Phase_5,1,5,56,103,2412201440
2417,17,Jits_Phase_5,2,5,80,127,2412220704
2417,17,Jits_Phase_5,3,1,48,54,2412235804
2417,17,Jits_Phase_5,0,5,56,103,2412621100
2417,17,Jits_Phase_5,1,5,63,98,2412680588
2417,17,Jits_Phase_5,2,5,80,127,2412683876
2417,17,Jits_Phase_5,3,1,48,72,2412750752
2417,17,Jits_Phase_5,0,5,80,127,2413141304
2417,17,Jits_Phase_5,1,5,56,103,2413150528
2417,17,Jits_Phase_5,2,5,63,98,2413221400
2417,17,Jits_Phase_5,3,1,48,56,2413227216
2417,17,Jits_Phase_5,0,5,80,127,2413630956
2417,17,Jits_Phase_5,1,5,56,103,2413700484
2417,17,Jits_Phase_5,2,5,63,98,2413710828
2417,17,Jits_Phase_5,3,1,48,55,2413722792
2417,17,Jits_Phase_5,0,5,63,98,2414170428
2417,17,Jits_Phase_5,1,5,56,103,2414181072
2417,17,Jits_Phase_5,2,5,80,127,2414201084
2417,17,Jits_Phase_5,3,1,48,70,2414250428
2417,17,Jits_Phase_5,0,5,80,127,2414621108
2417,17,Jits_Phase_5,1,5,63,98,2414680304
2417,17,Jits_Phase_5,2,5,56,103,2414721360
2417,17,Jits_Phase_5,3,1,48,67,2414735112
2417,17,Jits_Phase_5,0,5,56,103,2415160656
2417,17,Jits_Phase_5,1,5,63,98,2415171152
2417,17,Jits_Phase_5,2,5,80,127,2415211012
2417,17,Jits_Phase_5,3,1,48,67,2415221400
2417,17,Jits_Phase_5,0,5,56,103,2415620416
2417,17,Jits_Phase_5,1,5,80,127,2415651288
2417,17,Jits_Phase_5,2,5,63,98,2415701340
2417,17,Jits_Phase_5,3,1,48,61,2415702304
2417,17,Jits_Phase_5,0,5,56,103,2416161232
2417,17,Jits_Phase_5,1,1,48,68,2416197160
2417,17,Jits_Phase_5,2,5,63,98,2416201012
2417,17,Jits_Phase_5,3,5,80,127,2416204304
2417,17,Jits_Phase_5,0,5,56,103,2416661064
2417,17,Jits_Phase_5,1,5,63,98,2416671112
2417,17,Jits_Phase_5,2,1,48,67,2416676844
2417,17,Jits_Phase_5,3,5,80,127,2416690516
2417,17,Jits_Phase_5,0,5,56,103,2417120492
2417,17,Jits_Phase_5,1,5,80,127,2417123636
2417,17,Jits_Phase_5,2,5,63,98,2417160532
2417,17,Jits_Phase_5,3,1,48,67,2417191892
2417,17,Jits_Phase_5,0,5,63,98,2417661252
2417,17,Jits_Phase_5,1,1,48,54,2417664816
2417,17,Jits_Phase_5,2,5,56,103,2417690848
2417,17,Jits_Phase_5,3,5,80,127,2417710556
2417,17,Jits_Phase_5,0,5,80,127,2418131388
2417,17,Jits_Phase_5,1,5,56,103,2418140460
2417,17,Jits_Phase_5,2,5,63,98,2418150880
2417,17,Jits_Phase_5,3,1,48,59,2418156040
2417,17,Jits_Phase_5,0,1,48,68,2418612008
2417,17,Jits_Phase_5,1,5,56,103,2418630988
2417,17,Jits_Phase_5,2,5,80,127,2418670880
2417,17,Jits_Phase_5,3,5,63,98,2418700776
2417,17,Jits_Phase_5,0,1,48,62,2419119472
2417,17,Jits_Phase_5,1,5,63,98,2419141068
2417,17,Jits_Phase_5,2,5,80,127,2419151192
2417,17,Jits_Phase_5,3,5,56,103,2419160416
2417,17,Jits_Phase_5,0,5,56,103,2419630340
2417,17,Jits_Phase_5,1,1,48,59,2419653012
2417,17,Jits_Phase_5,2,5,63,98,2419701160
2417,17,Jits_Phase_5,3,5,80,127,2419711356
2417,17,Jits_Phase_5,0,1,48,60,2420126308
2417,17,Jits_Phase_5,1,5,80,127,2420141476
2417,17,Jits_Phase_5,2,5,56,103,2420150996
2417,17,Jits_Phase_5,3,5,63,98,2420200752
2417,17,Jits_Phase_5,0,1,48,62,2420616916
2417,17,Jits_Phase_5,1,5,80,127,2420651264
2417,17,Jits_Phase_5,2,5,56,103,2420710980
2417,17,Jits_Phase_5,3,5,63,98,2420740440
2417,17,Jits_Phase_5,0,1,48,56,2421148504
2417,17,Jits_Phase_5,1,5,56,103,2421151016
2417,17,Jits_Phase_5,2,5,80,127,2421154156
2417,17,Jits_Phase_5,3,5,63,98,2421191028
2417,17,Jits_Phase_5,0,1,48,62,2421663912
2417,17,Jits_Phase_5,1,5,56,103,2421680424
2417,17,Jits_Phase_5,2,5,63,98,2421711220
2417,17,Jits_Phase_5,3,5,80,127,2421720296
2417,17,Jits_Phase_5,0,1,48,65,2422179184
2417,17,Jits_Phase_5,1,5,63,98,2422190444
2417,17,Jits_Phase_5,2,5,80,127,2422200788
2417,17,Jits_Phase_5,3,5,56,103,2422210984
2417,17,Jits_Phase_5,0,5,80,127,2422640980
2417,17,Jits_Phase_5,1,1,48,64,2422690108
2417,17,Jits_Phase_5,2,5,56,103,2422691932
2417,17,Jits_Phase_5,3,5,63,98,2422694760
2417,17,Jits_Phase_5,0,5,56,103,2423170404
2417,17,Jits_Phase_5,1,5,80,127,2423190860
2417,17,Jits_Phase_5,2,5,63,98,2423201056
2417,17,Jits_Phase_5,3,1,48,70,2423214140
2417,17,Jits_Phase_5,0,5,63,98,2423650760
2417,17,Jits_Phase_5,1,5,56,103,2423681336
2417,17,Jits_Phase_5,2,5,80,127,2423700820
2417,17,Jits_Phase_5,3,1,48,53,2423720720
2417,17,Jits_Phase_5,0,5,56,103,2424160776
2417,17,Jits_Phase_5,1,5,80,127,2424170820
2417,17,Jits_Phase_5,2,1,48,60,2424205476
2417,17,Jits_Phase_5,3,5,63,98,2424240788
2417,17,Jits_Phase_5,0,5,63,98,2424651028
2417,17,Jits_Phase_5,1,1,48,61,2424685456
2417,17,Jits_Phase_5,2,5,80,127,2424691108
2417,17,Jits_Phase_5,3,5,56,103,2424730968
2417,17,Jits_Phase_5,0,5,56,103,2425160968
2417,17,Jits_Phase_5,1,5,63,98,2425171240
2417,17,Jits_Phase_5,2,1,48,49,2425183196
2417,17,Jits_Phase_5,3,5,80,127,2425190720
2417,17,Jits_Phase_5,0,1,48,65,2425683172
2417,17,Jits_Phase_5,1,5,63,98,2425700808
2417,17,Jits_Phase_5,2,5,80,127,2425721116
2417,17,Jits_Phase_5,3,5,56,103,2425740828
2417,17,Jits_Phase_5,0,5,56,103,2426141084
2417,17,Jits_Phase_5,1,1,48,63,2426194996
2417,17,Jits_Phase_5,2,5,80,127,2426220868
2417,17,Jits_Phase_5,3,5,63,98,2426231064
2417,17,Jits_Phase_5,0,5,80,127,2426680632
2417,17,Jits_Phase_5,1,5,63,98,2426691052
2417,17,Jits_Phase_5,2,1,48,51,2426698356
2417,17,Jits_Phase_5,3,5,56,103,2426720716
2417,17,Jits_Phase_5,0,5,63,98,2427140464
2417,17,Jits_Phase_5,1,5,80,127,2427181672
2417,17,Jits_Phase_5,2,1,48,59,2427207408
2417,17,Jits_Phase_5,3,5,56,103,2427240784
2417,17,Jits_Phase_5,0,5,63,98,2427650628
2417,17,Jits_Phase_5,1,1,48,52,2427690832
2417,17,Jits_Phase_5,2,5,56,103,2427700748
2417,17,Jits_Phase_5,3,5,80,127,2427731392
2417,17,Jits_Phase_5,0,5,80,127,2428151500
2417,17,Jits_Phase_5,1,5,63,98,2428161620
2417,17,Jits_Phase_5,2,1,48,61,2428192536
2417,17,Jits_Phase_5,3,5,56,103,2428230992
2417,17,Jits_Phase_5,0,1,48,65,2428665840
2417,17,Jits_Phase_5,1,5,80,127,2428711500
2417,17,Jits_Phase_5,2,5,56,103,2428720572
2417,17,Jits_Phase_5,3,5,63,98,2428723712
2417,17,Jits_Phase_5,0,5,56,103,2429150544
2417,17,Jits_Phase_5,1,5,80,127,2429171028
2417,17,Jits_Phase_5,2,5,63,98,2429181300
2417,17,Jits_Phase_5,3,1,48,63,2429205464
2417,17,Jits_Phase_5,0,5,63,98,2429660576
2417,17,Jits_Phase_5,1,1,48,58,2429693832
2417,17,Jits_Phase_5,2,5,56,103,2429700460
2417,17,Jits_Phase_5,3,5,80,127,2429720916
2417,17,Jits_Phase_5,0,5,63,98,2430161376
2417,17,Jits_Phase_5,1,1,48,60,2430168256
2417,17,Jits_Phase_5,2,5,56,103,2430220660
2417,17,Jits_Phase_5,3,5,80,127,2430223876
2417,17,Jits_Phase_5,0,5,56,103,2430621040
2417,17,Jits_Phase_5,1,5,80,127,2430640452
2417,17,Jits_Phase_5,2,5,63,98,2430680388
2417,17,Jits_Phase_5,3,1,48,61,2430692424
2417,17,Jits_Phase_5,0,5,56,103,2431150472
2417,17,Jits_Phase_5,1,5,63,98,2431170856
2417,17,Jits_Phase_5,2,5,80,127,2431181272
2417,17,Jits_Phase_5,3,1,48,66,2431185292
2417,17,Jits_Phase_5,0,5,80,127,2431620420
2417,17,Jits_Phase_5,1,1,48,63,2431649168
2417,17,Jits_Phase_5,2,5,56,103,2431651208
2417,17,Jits_Phase_5,3,5,63,98,2431691144
2417,17,Jits_Phase_5,0,5,80,127,2432130520
2417,17,Jits_Phase_5,1,1,48,58,2432138280
2417,17,Jits_Phase_5,2,5,56,103,2432150824
2417,17,Jits_Phase_5,3,5,63,98,2432211436
2417,17,Jits_Phase_5,0,1,48,62,2432608064
2417,17,Jits_Phase_5,1,5,56,103,2432641292
2417,17,Jits_Phase_5,2,5,80,127,2432660852
2417,17,Jits_Phase_5,3,5,63,98,2432721300
2417,17,Jits_Phase_5,0,5,80,127,2433120596
2417,17,Jits_Phase_5,1,1,48,56,2433123788
2417,17,Jits_Phase_5,2,5,56,103,2433130860
2417,17,Jits_Phase_5,3,5,63,98,2433170872
2417,17,Jits_Phase_5,0,5,63,98,2433621328
2417,17,Jits_Phase_5,1,1,48,67,2433622740
2417,17,Jits_Phase_5,2,5,56,103,2433661260
2417,17,Jits_Phase_5,3,5,80,127,2433664324
2417,17,Jits_Phase_5,0,1,48,56,2434107840
2417,17,Jits_Phase_5,1,5,63,98,2434140540
2417,17,Jits_Phase_5,2,5,80,127,2434180480
2417,17,Jits_Phase_5,3,5,56,103,2434211112
2417,17,Jits_Phase_5,0,1,48,57,2434621984
2417,17,Jits_Phase_5,1,5,56,103,2434631148
2417,17,Jits_Phase_5,2,5,63,98,2434641124
2417,17,Jits_Phase_5,3,5,80,127,2434671168
2417,17,Jits_Phase_5,0,1,48,53,2435120344
2417,17,Jits_Phase_5,1,5,80,127,2435121828
2417,17,Jits_Phase_5,2,5,63,98,2435191064
2417,17,Jits_Phase_5,3,5,56,103,2435201332
2417,17,Jits_Phase_5,0,5,63,98,2435621288
2417,17,Jits_Phase_5,1,1,48,59,2435628312
2417,17,Jits_Phase_5,2,5,56,103,2435691112
2417,17,Jits_Phase_5,3,5,80,127,2435701380
2417,17,Jits_Phase_5,0,5,63,98,2436100588
2417,17,Jits_Phase_5,1,5,56,103,2436121048
2417,17,Jits_Phase_5,2,1,48,58,2436139828
2417,17,Jits_Phase_5,3,5,80,127,2436160976
2417,17,Jits_Phase_5,0,5,56,103,2436580684
2417,17,Jits_Phase_5,1,5,63,98,2436591132
2417,17,Jits_Phase_5,2,1,48,56,2436639352
2417,17,Jits_Phase_5,3,5,80,127,2436670764
2417,17,Jits_Phase_5,0,5,63,98,2437071160
2417,17,Jits_Phase_5,1,1,48,48,2437080652
2417,17,Jits_Phase_5,2,5,56,103,2437101004
2417,17,Jits_Phase_5,3,5,80,127,2437141012
2417,17,Jits_Phase_5,0,1,48,58,2437548556
2417,17,Jits_Phase_5,1,5,56,103,2437571276
2417,17,Jits_Phase_5,2,5,63,98,2437611088
2417,17,Jits_Phase_5,3,5,80,127,2437650936
2417,17,Jits_Phase_5,0,1,48,57,2438054968
2417,17,Jits_Phase_5,1,5,80,127,2438070580
2417,17,Jits_Phase_5,2,5,56,103,2438151280
2417,17,Jits_Phase_5,3,5,63,98,2438160728
2417,17,Jits_Phase_5,0,1,48,59,2438523996
2417,17,Jits_Phase_5,1,5,56,103,2438611452
2417,17,Jits_Phase_5,2,5,63,98,2438614444
2417,17,Jits_Phase_5,3,5,80,127,2438620600
2417,17,Jits_Phase_5,0,1,48,60,2439119264
2417,17,Jits_Phase_5,1,5,56,103,2439130376
2417,17,Jits_Phase_5,2,5,63,98,2439151156
2417,17,Jits_Phase_5,3,5,80,127,2439161280
2417,17,Jits_Phase_5,0,5,63,98,2439591252
2417,17,Jits_Phase_5,1,5,80,127,2439600476
2417,17,Jits_Phase_5,2,5,56,103,2439620936
2417,17,Jits_Phase_5,3,1,48,59,2439633944
2417,17,Jits_Phase_5,0,5,63,98,2440091076
2417,17,Jits_Phase_5,1,1,48,54,2440134800
2417,17,Jits_Phase_5,2,5,56,103,2440170812
2417,17,Jits_Phase_5,3,5,80,127,2440174100
2417,17,Jits_Phase_5,0,5,63,98,2440590892
2417,17,Jits_Phase_5,1,1,48,59,2440598200
2417,17,Jits_Phase_5,2,5,56,103,2440611124
2417,17,Jits_Phase_5,3,5,80,127,2440640868
2417,17,Jits_Phase_5,0,5,56,103,2441090268
2417,17,Jits_Phase_5,1,1,48,56,2441100132
2417,17,Jits_Phase_5,2,5,63,98,2441111020
2417,17,Jits_Phase_5,3,5,80,127,2441121064
2417,17,Jits_Phase_5,0,1,48,52,2441603260
2417,17,Jits_Phase_5,1,5,56,103,2441621040
2417,17,Jits_Phase_5,2,5,63,98,2441650488
2417,17,Jits_Phase_5,3,5,80,127,2441654000
2417,17,Jits_Phase_5,0,5,56,103,2442071340
2417,17,Jits_Phase_5,1,1,48,62,2442090344
2417,17,Jits_Phase_5,2,5,63,98,2442111348
2417,17,Jits_Phase_5,3,5,80,127,2442170836
2417,17,Jits_Phase_5,0,1,48,57,2442579392
2417,17,Jits_Phase_5,1,5,56,103,2442590504
2417,17,Jits_Phase_5,2,5,63,98,2442601072
2417,17,Jits_Phase_5,3,5,80,127,2442661088
2417,17,Jits_Phase_5,0,5,56,103,2443091308
2417,17,Jits_Phase_5,1,5,80,127,2443110720
2417,17,Jits_Phase_5,2,1,48,48,2443120664
2417,17,Jits_Phase_5,3,5,63,98,2443140612
2417,17,Jits_Phase_5,0,5,80,127,2443591000
2417,17,Jits_Phase_5,1,1,48,48,2443600512
2417,17,Jits_Phase_5,2,5,56,103,2443602308
2417,17,Jits_Phase_5,3,5,63,98,2443620676
2417,17,Jits_Phase_5,0,5,63,98,2444080352
2417,17,Jits_Phase_5,1,1,48,50,2444132912
2417,17,Jits_Phase_5,2,5,80,127,2444161336
2417,17,Jits_Phase_5,3,5,56,103,2444170780
2417,17,Jits_Phase_5,0,1,48,53,2444547916
2417,17,Jits_Phase_5,1,5,80,127,2444671332
2417,17,Jits_Phase_5,2,5,56,103,2444690744
2417,17,Jits_Phase_5,3,5,63,98,2444693884
2417,17,Jits_Phase_5,0,5,63,98,2445160832
2417,17,Jits_Phase_5,1,5,80,127,2445164120
2417,17,Jits_Phase_5,2,1,48,54,2445168756
2417,17,Jits_Phase_5,3,5,56,103,2445221212
2417,17,Jits_Phase_5,0,5,56,103,2445640948
2417,17,Jits_Phase_5,1,5,80,127,2445651516
2417,17,Jits_Phase_5,2,1,48,55,2445685124
2417,17,Jits_Phase_5,3,5,63,98,2445691148
2417,17,Jits_Phase_5,0,5,56,103,2446121232
2417,17,Jits_Phase_5,1,5,63,98,2446180648
2417,17,Jits_Phase_5,2,1,48,66,2446181612
2417,17,Jits_Phase_5,3,5,80,127,2446190836
2417,17,Jits_Phase_5,0,5,63,98,2446631184
2417,17,Jits_Phase_5,1,1,48,60,2446635872
2417,17,Jits_Phase_5,2,5,80,127,2446671264
2417,17,Jits_Phase_5,3,5,56,103,2446711200
2417,17,Jits_Phase_5,0,5,56,103,2447130936
2417,17,Jits_Phase_5,1,1,48,59,2447207164
2417,17,Jits_Phase_5,2,5,63,98,2447210944
2417,17,Jits_Phase_5,3,5,80,127,2447214160
2417,17,Jits_Phase_5,0,1,48,57,2447625860
2417,17,Jits_Phase_5,1,5,80,127,2447691220
2417,17,Jits_Phase_5,2,5,56,103,2447720820
2417,17,Jits_Phase_5,3,5,63,98,2447724844
2417,17,Jits_Phase_5,0,5,56,103,2448150968
2417,17,Jits_Phase_5,1,5,80,127,2448171500
2417,17,Jits_Phase_5,2,5,63,98,2448211288
2417,17,Jits_Phase_5,3,1,48,64,2448223548
2417,17,Jits_Phase_5,0,5,80,127,2448631104
2417,17,Jits_Phase_5,1,5,63,98,2448650740
2417,17,Jits_Phase_5,2,1,48,56,2448680680
2417,17,Jits_Phase_5,3,5,56,103,2448710896
2417,17,Jits_Phase_5,0,5,63,98,2449141060
2417,17,Jits_Phase_5,1,5,56,103,2449151404
2417,17,Jits_Phase_5,2,1,48,56,2449187628
2417,17,Jits_Phase_5,3,5,80,127,2449200772
2417,17,Jits_Phase_5,0,5,56,103,2449630448
2417,17,Jits_Phase_5,1,5,63,98,2449651152
2417,17,Jits_Phase_5,2,1,48,65,2449660596
2417,17,Jits_Phase_5,3,5,80,127,2449662464
2417,17,Jits_Phase_5,0,5,56,103,2450121216
2417,17,Jits_Phase_5,1,5,63,98,2450124132
2417,17,Jits_Phase_5,2,5,80,127,2450140552
2417,17,Jits_Phase_5,3,1,48,60,2450180556
2417,17,Jits_Phase_5,0,5,63,98,2450660676
2417,17,Jits_Phase_5,1,1,48,61,2450664092
2417,17,Jits_Phase_5,2,5,56,103,2450690492
2417,17,Jits_Phase_5,3,5,80,127,2450721140
2417,17,Jits_Phase_5,0,5,80,127,2451120696
2417,17,Jits_Phase_5,1,1,48,59,2451183852
2417,17,Jits_Phase_5,2,5,56,103,2451210548
2417,17,Jits_Phase_5,3,5,63,98,2451213760
2417,17,Jits_Phase_5,0,5,56,103,2451621276
2417,17,Jits_Phase_5,1,5,80,127,2451624488
2417,17,Jits_Phase_5,2,1,48,52,2451640280
2417,17,Jits_Phase_5,3,5,63,98,2451701084
2417,17,Jits_Phase_5,0,1,48,52,2452103540
2417,17,Jits_Phase_5,1,5,80,127,2452120872
2417,17,Jits_Phase_5,2,5,63,98,2452181560
2417,17,Jits_Phase_5,3,5,56,103,2452211024
2417,17,Jits_Phase_5,0,5,63,98,2452620636
2417,17,Jits_Phase_5,1,5,80,127,2452630904
2417,17,Jits_Phase_5,2,1,48,61,2452644656
2417,17,Jits_Phase_5,3,5,56,103,2452700500
2417,17,Jits_Phase_5,0,1,48,54,2453171300
2417,17,Jits_Phase_5,1,5,56,103,2453180688
2417,17,Jits_Phase_5,2,5,80,127,2453210364
2417,17,Jits_Phase_5,3,5,63,98,2453260588
2417,17,Jits_Phase_5,0,1,48,51,2453657392
2417,17,Jits_Phase_5,1,5,63,98,2453770496
2417,17,Jits_Phase_5,2,5,56,103,2453801516
2417,17,Jits_Phase_5,3,5,80,127,2453804656
2417,17,Jits_Phase_5,0,1,48,54,2454234764
2417,17,Jits_Phase_5,1,5,63,98,2454271308
2417,17,Jits_Phase_5,2,5,80,127,2454290796
2417,17,Jits_Phase_5,3,5,56,103,2454301212
2417,17,Jits_Phase_5,0,1,48,48,2454766160
2417,17,Jits_Phase_5,1,5,56,103,2454781400
2417,17,Jits_Phase_5,2,5,63,98,2454784540
2417,17,Jits_Phase_5,3,5,80,127,2454800660
2417,17,Jits_Phase_5,0,5,56,103,2455230704
2417,17,Jits_Phase_5,1,5,63,98,2455241272
2417,17,Jits_Phase_5,2,5,80,127,2455270800
2417,17,Jits_Phase_5,3,1,48,62,2455307424
2417,17,Jits_Phase_5,0,5,63,98,2455751064
2417,17,Jits_Phase_5,1,5,80,127,2455770476
2417,17,Jits_Phase_5,2,1,48,62,2455772492
2417,17,Jits_Phase_5,3,5,56,103,2455810360
2417,17,Jits_Phase_5,0,1,48,57,2456232728
2417,17,Jits_Phase_5,1,5,56,103,2456280408
2417,17,Jits_Phase_5,2,5,63,98,2456321488
2417,17,Jits_Phase_5,3,5,80,127,2456324704
2417,17,Jits_Phase_5,0,5,80,127,2456720748
2417,17,Jits_Phase_5,1,5,56,103,2456760836
2417,17,Jits_Phase_5,2,1,48,65,2456785004
2417,17,Jits_Phase_5,3,5,63,98,2456811128
2417,17,Jits_Phase_5,0,1,48,62,2457274192
2417,17,Jits_Phase_5,1,5,56,103,2457280744
2417,17,Jits_Phase_5,2,5,80,127,2457291384
2417,17,Jits_Phase_5,3,5,63,98,2457320788
2417,17,Jits_Phase_5,0,5,56,103,2457730460
2417,17,Jits_Phase_5,1,5,80,127,2457771520
2417,17,Jits_Phase_5,2,1,48,52,2457776656
2417,17,Jits_Phase_5,3,5,63,98,2457820516
2417,17,Jits_Phase_5,0,5,56,103,2458231192
2417,17,Jits_Phase_5,1,5,80,127,2458271132
2417,17,Jits_Phase_5,2,1,48,58,2458286904
2417,17,Jits_Phase_5,3,5,63,98,2458321324
2417,17,Jits_Phase_5,0,5,80,127,2458720696
2417,17,Jits_Phase_5,1,1,48,59,2458780308
2417,17,Jits_Phase_5,2,5,63,98,2458800488
2417,17,Jits_Phase_5,3,5,56,103,2458810756
2417,17,Jits_Phase_5,0,1,48,63,2459266500
2417,17,Jits_Phase_5,1,5,80,127,2459270580
2417,17,Jits_Phase_5,2,5,56,103,2459280924
2417,17,Jits_Phase_5,3,5,63,98,2459301160
2417,17,Jits_Phase_5,0,5,63,98,2459740520
2417,17,Jits_Phase_5,1,1,48,55,2459776148
2417,17,Jits_Phase_5,2,5,56,103,2459811084
2417,17,Jits_Phase_5,3,5,80,127,2459814228
2417,17,Jits_Phase_5,0,5,80,127,2460231044
2417,17,Jits_Phase_5,1,1,48,53,2460273272
2417,17,Jits_Phase_5,2,5,63,98,2460281164
2417,17,Jits_Phase_5,3,5,56,103,2460321252
2417,17,Jits_Phase_5,0,1,48,50,2460762840
2417,17,Jits_Phase_5,1,5,63,98,2460770588
2417,17,Jits_Phase_5,2,5,56,103,2460810604
2417,17,Jits_Phase_5,3,5,80,127,2460821020
2417,17,Jits_Phase_5,0,1,48,54,2461259544
2417,17,Jits_Phase_5,1,5,63,98,2461261352
2417,17,Jits_Phase_5,2,5,56,103,2461280616
2417,17,Jits_Phase_5,3,5,80,127,2461301148
2417,17,Jits_Phase_5,0,5,80,127,2461721028
2417,17,Jits_Phase_5,1,5,56,103,2461731152
2417,17,Jits_Phase_5,2,5,63,98,2461750636
2417,17,Jits_Phase_5,3,1,48,54,2461784392
2417,17,Jits_Phase_5,0,5,63,98,2462251356
2417,17,Jits_Phase_5,1,1,48,50,2462254324
2417,17,Jits_Phase_5,2,5,56,103,2462291288
2417,17,Jits_Phase_5,3,5,80,127,2462321108
2417,17,Jits_Phase_5,0,5,56,103,2462711100
2417,17,Jits_Phase_5,1,5,63,98,2462741000
2417,17,Jits_Phase_5,2,1,48,55,2462770524
2417,17,Jits_Phase_5,3,5,80,127,2462772012
2417,17,Jits_Phase_5,0,5,80,127,2463130988
2417,17,Jits_Phase_5,1,5,56,103,2463200740
2417,17,Jits_Phase_5,2,5,63,98,2463203956
2417,17,Jits_Phase_5,3,1,48,51,2463264788
2417,17,Jits_Phase_5,0,5,56,103,2463641084
2417,17,Jits_Phase_5,1,5,63,98,2463690988
2417,17,Jits_Phase_5,2,5,80,127,2463720908
2417,17,Jits_Phase_5,3,1,48,58,2463748236
2417,17,Jits_Phase_5,0,5,63,98,2464121220
2417,17,Jits_Phase_5,1,5,80,127,2464124436
2417,17,Jits_Phase_5,2,5,56,103,2464181008
2417,17,Jits_Phase_5,3,1,48,57,2464198652
2417,17,Jits_Phase_5,0,5,56,103,2464650556
2417,17,Jits_Phase_5,1,5,80,127,2464660976
2417,17,Jits_Phase_5,2,5,63,98,2464710952
2417,17,Jits_Phase_5,3,1,48,48,2464713260
2417,17,Jits_Phase_5,0,5,63,98,2465120948
2417,17,Jits_Phase_5,1,5,56,103,2465130996
2417,17,Jits_Phase_5,2,5,80,127,2465160744
2417,17,Jits_Phase_5,3,1,48,53,2465206336
2417,17,Jits_Phase_5,0,5,63,98,2465651036
2417,17,Jits_Phase_5,1,1,48,59,2465652468
2417,17,Jits_Phase_5,2,5,80,127,2465655736
2417,17,Jits_Phase_5,3,5,56,103,2465680924
2417,17,Jits_Phase_5,0,1,48,66,2466133956
2417,17,Jits_Phase_5,1,5,63,98,2466171448
2417,17,Jits_Phase_5,2,5,56,103,2466190780
2417,17,Jits_Phase_5,3,5,80,127,2466193772
2417,17,Jits_Phase_5,0,5,63,98,2466630964
2417,17,Jits_Phase_5,1,1,48,61,2466654760
2417,17,Jits_Phase_5,2,5,56,103,2466701012
2417,17,Jits_Phase_5,3,5,80,127,2466721096
2417,17,Jits_Phase_5,0,5,56,103,2467120604
2417,17,Jits_Phase_5,1,5,63,98,2467130724
2417,17,Jits_Phase_5,2,1,48,50,2467140140
2417,17,Jits_Phase_5,3,5,80,127,2467220844
2417,17,Jits_Phase_5,0,1,48,60,2467598764
2417,17,Jits_Phase_5,1,5,56,103,2467640964
2417,17,Jits_Phase_5,2,5,80,127,2467680752
2417,17,Jits_Phase_5,3,5,63,98,2467690796
2417,17,Jits_Phase_5,0,1,48,60,2468131100
2417,17,Jits_Phase_5,1,5,56,103,2468160792
2417,17,Jits_Phase_5,2,5,63,98,2468190912
2417,17,Jits_Phase_5,3,5,80,127,2468221188
2417,17,Jits_Phase_5,0,5,80,127,2468620916
2417,17,Jits_Phase_5,1,1,48,61,2468637140
2417,17,Jits_Phase_5,2,5,63,98,2468660776
2417,17,Jits_Phase_5,3,5,56,103,2468681008
2417,17,Jits_Phase_5,0,1,48,60,2469118464
2417,17,Jits_Phase_5,1,5,56,103,2469161504
2417,17,Jits_Phase_5,2,5,80,127,2469180916
2417,17,Jits_Phase_5,3,5,63,98,2469201152
2417,17,Jits_Phase_5,0,5,63,98,2469640660
2417,17,Jits_Phase_5,1,5,56,103,2469650784
2417,17,Jits_Phase_5,2,1,48,56,2469661248
2417,17,Jits_Phase_5,3,5,80,127,2469711312
2417,17,Jits_Phase_5,0,5,56,103,2470141160
2417,17,Jits_Phase_5,1,1,48,48,2470182412
2417,17,Jits_Phase_5,2,5,63,98,2470210908
2417,17,Jits_Phase_5,3,5,80,127,2470231588
2417,17,Jits_Phase_5,0,5,56,103,2470641152
2417,17,Jits_Phase_5,1,5,63,98,2470670752
2417,17,Jits_Phase_5,2,1,48,43,2470673796
2417,17,Jits_Phase_5,3,5,80,127,2470710680
2417,17,Jits_Phase_5,0,5,63,98,2471130776
2417,17,Jits_Phase_5,1,1,48,53,2471137564
2417,17,Jits_Phase_5,2,5,56,103,2471180552
2417,17,Jits_Phase_5,3,5,80,127,2471190968
2417,17,Jits_Phase_5,0,1,48,53,2471651552
2417,17,Jits_Phase_5,1,5,56,103,2471671076
2417,17,Jits_Phase_5,2,5,63,98,2471721352
2417,17,Jits_Phase_5,3,5,80,127,2471730724
2417,17,Jits_Phase_5,0,5,56,103,2472141148
2417,17,Jits_Phase_5,1,5,63,98,2472151640
2417,17,Jits_Phase_5,2,1,48,42,2472159112
2417,17,Jits_Phase_5,3,5,80,127,2472231224
2417,17,Jits_Phase_5,0,9999,9999,9999,2387898492
2417,17,Jits_Phase_5,1,9999,9999,9999,2388398180
2417,17,Jits_Phase_5,2,9999,9999,9999,2388898916
2417,17,Jits_Phase_5,3,9999,9999,9999,2389398588
2417,17,Jits_Phase_5,4,9999,9999,9999,2389898340
2417,17,Jits_Phase_5,5,9999,9999,9999,2390399068
2417,17,Jits_Phase_5,6,9999,9999,9999,2390898744
2417,17,Jits_Phase_5,7,9999,9999,9999,2391398508
2417,17,Jits_Phase_5,8,9999,9999,9999,2391898196
2417,17,Jits_Phase_5,9,9999,9999,9999,2392398936
2417,17,Jits_Phase_5,10,9999,9999,9999,2392898624
2417,17,Jits_Phase_5,11,9999,9999,9999,2393398376
2417,17,Jits_Phase_5,12,9999,9999,9999,2393899096
2417,17,Jits_Phase_5,13,9999,9999,9999,2394409028
2417,17,Jits_Phase_5,14,9999,9999,9999,2394908776
2417,17,Jits_Phase_5,15,9999,9999,9999,2395408468
2417,17,Jits_Phase_5,16,9999,9999,9999,2395908156
2417,17,Jits_Phase_5,17,9999,9999,9999,2396408952
2417,17,Jits_Phase_5,18,9999,9999,9999,2396908640
2417,17,Jits_Phase_5,19,9999,9999,9999,2397408384
2417,17,Jits_Phase_5,20,9999,9999,9999,2397909044
2417,17,Jits_Phase_5,21,9999,9999,9999,2398408796
2417,17,Jits_Phase_5,22,9999,9999,9999,2398908488
2417,17,Jits_Phase_5,23,9999,9999,9999,2399408256
2417,17,Jits_Phase_5,24,9999,9999,9999,2399908916
2417,17,Jits_Phase_5,25,9999,9999,9999,2400408676
2417,17,Jits_Phase_5,26,9999,9999,9999,2400908352
2417,17,Jits_Phase_5,27,9999,9999,9999,2401408092
2417,17,Jits_Phase_5,28,9999,9999,9999,2401908816
2417,17,Jits_Phase_5,29,9999,9999,9999,2402408564
2417,17,Jits_Phase_5,30,9999,9999,9999,2402899040
2417,17,Jits_Phase_5,31,9999,9999,9999,2403398716
2417,17,Jits_Phase_5,32,9999,9999,9999,2403898480
2417,17,Jits_Phase_5,33,9999,9999,9999,2404398168
2417,17,Jits_Phase_5,34,9999,9999,9999,2404898908
2417,17,Jits_Phase_5,35,9999,9999,9999,2405398600
2417,17,Jits_Phase_5,36,9999,9999,9999,2405898336
2417,17,Jits_Phase_5,37,9999,9999,9999,2406399060
2417,17,Jits_Phase_5,38,9999,9999,9999,2406898752
2417,17,Jits_Phase_5,39,9999,9999,9999,2407398480
2417,17,Jits_Phase_5,40,9999,9999,9999,2407898224
2417,17,Jits_Phase_5,41,9999,9999,9999,2408398960
2417,17,Jits_Phase_5,42,9999,9999,9999,2408898648
2417,17,Jits_Phase_5,43,9999,9999,9999,2409398396
2417,17,Jits_Phase_5,44,9999,9999,9999,2409899116
2417,17,Jits_Phase_5,45,9999,9999,9999,2410409064
2417,17,Jits_Phase_5,46,9999,9999,9999,2410908740
2417,17,Jits_Phase_5,47,9999,9999,9999,2411408496
2417,17,Jits_Phase_5,48,9999,9999,9999,2411918436
2417,17,Jits_Phase_5,49,9999,9999,9999,2412418136
2417,17,Jits_Phase_5,50,9999,9999,9999,2412918844
2417,17,Jits_Phase_5,51,9999,9999,9999,2413418608
2417,17,Jits_Phase_5,52,9999,9999,9999,2413918300
2417,17,Jits_Phase_5,53,9999,9999,9999,2414419040
2417,17,Jits_Phase_5,54,9999,9999,9999,2414918716
2417,17,Jits_Phase_5,55,9999,9999,9999,2415418480
2417,17,Jits_Phase_5,56,9999,9999,9999,2415918172
2417,17,Jits_Phase_5,57,9999,9999,9999,2416418904
2417,17,Jits_Phase_5,58,9999,9999,9999,2416918592
2417,17,Jits_Phase_5,59,9999,9999,9999,2417418340
2417,17,Jits_Phase_5,60,9999,9999,9999,2417919080
2417,17,Jits_Phase_5,61,9999,9999,9999,2418418752
2417,17,Jits_Phase_5,62,9999,9999,9999,2418918488
2417,17,Jits_Phase_5,63,9999,9999,9999,2419418228
2417,17,Jits_Phase_5,64,9999,9999,9999,2419938360
2417,17,Jits_Phase_5,65,9999,9999,9999,2420438116
2417,17,Jits_Phase_5,66,9999,9999,9999,2420938840
2417,17,Jits_Phase_5,67,9999,9999,9999,2421438580
2417,17,Jits_Phase_5,68,9999,9999,9999,2421938260
2417,17,Jits_Phase_5,69,9999,9999,9999,2422438984
2417,17,Jits_Phase_5,70,9999,9999,9999,2422938728
2417,17,Jits_Phase_5,71,9999,9999,9999,2423438412
2417,17,Jits_Phase_5,72,9999,9999,9999,2423938104
2417,17,Jits_Phase_5,73,9999,9999,9999,2424438904
2417,17,Jits_Phase_5,74,9999,9999,9999,2424938596
2417,17,Jits_Phase_5,75,9999,9999,9999,2425438272
2417,17,Jits_Phase_5,76,9999,9999,9999,2425939012
2417,17,Jits_Phase_5,77,9999,9999,9999,2426438764
2417,17,Jits_Phase_5,78,9999,9999,9999,2426938456
2417,17,Jits_Phase_5,79,9999,9999,9999,2427438148
2417,17,Jits_Phase_5,80,9999,9999,9999,2427938868
2417,17,Jits_Phase_5,81,9999,9999,9999,2428418172
2417,17,Jits_Phase_5,82,9999,9999,9999,2428918908
2417,17,Jits_Phase_5,83,9999,9999,9999,2429418584
2417,17,Jits_Phase_5,84,9999,9999,9999,2429918328
2417,17,Jits_Phase_5,85,9999,9999,9999,2430419048
2417,17,Jits_Phase_5,86,9999,9999,9999,2430918720
2417,17,Jits_Phase_5,87,9999,9999,9999,2431418484
2417,17,Jits_Phase_5,88,9999,9999,9999,2431918172
2417,17,Jits_Phase_5,89,9999,9999,9999,2432418912
2417,17,Jits_Phase_5,90,9999,9999,9999,2432918604
2417,17,Jits_Phase_5,91,9999,9999,9999,2433418348
2417,17,Jits_Phase_5,92,9999,9999,9999,2433919072
2417,17,Jits_Phase_5,93,9999,9999,9999,2434418752
2417,17,Jits_Phase_5,94,9999,9999,9999,2434918496
2417,17,Jits_Phase_5,95,9999,9999,9999,2435418172
2417,17,Jits_Phase_5,96,9999,9999,9999,2435918972
2417,17,Jits_Phase_5,97,9999,9999,9999,2436368452
2417,17,Jits_Phase_5,98,9999,9999,9999,2436868204
2417,17,Jits_Phase_5,99,9999,9999,9999,2437368940
2417,17,Jits_Phase_5,100,9999,9999,9999,2437868616
2417,17,Jits_Phase_5,101,9999,9999,9999,2438368344
2417,17,Jits_Phase_5,102,9999,9999,9999,2438869052
2417,17,Jits_Phase_5,103,9999,9999,9999,2439368804
2417,17,Jits_Phase_5,104,9999,9999,9999,2439868484
2417,17,Jits_Phase_5,105,9999,9999,9999,2440368224
2417,17,Jits_Phase_5,106,9999,9999,9999,2440868944
2417,17,Jits_Phase_5,107,9999,9999,9999,2441368692
2417,17,Jits_Phase_5,108,9999,9999,9999,2441868376
2417,17,Jits_Phase_5,109,9999,9999,9999,2442368124
2417,17,Jits_Phase_5,110,9999,9999,9999,2442868864
2417,17,Jits_Phase_5,111,9999,9999,9999,2443368536
2417,17,Jits_Phase_5,112,9999,9999,9999,2443868228
2417,17,Jits_Phase_5,113,9999,9999,9999,2444368968
2417,17,Jits_Phase_5,114,9999,9999,9999,2444918908
2417,17,Jits_Phase_5,115,9999,9999,9999,2445418576
2417,17,Jits_Phase_5,116,9999,9999,9999,2445918324
2417,17,Jits_Phase_5,117,9999,9999,9999,2446419060
2417,17,Jits_Phase_5,118,9999,9999,9999,2446918752
2417,17,Jits_Phase_5,119,9999,9999,9999,2447418420
2417,17,Jits_Phase_5,120,9999,9999,9999,2447918184
2417,17,Jits_Phase_5,121,9999,9999,9999,2448418908
2417,17,Jits_Phase_5,122,9999,9999,9999,2448918596
2417,17,Jits_Phase_5,123,9999,9999,9999,2449418364
2417,17,Jits_Phase_5,124,9999,9999,9999,2449919084
2417,17,Jits_Phase_5,125,9999,9999,9999,2450418760
2417,17,Jits_Phase_5,126,9999,9999,9999,2450918480
2417,17,Jits_Phase_5,127,9999,9999,9999,2451418220
2417,17,Jits_Phase_5,128,9999,9999,9999,2451918948
2417,17,Jits_Phase_5,129,9999,9999,9999,2452418640
2417,17,Jits_Phase_5,130,9999,9999,9999,2452918388
2417,17,Jits_Phase_5,131,9999,9999,9999,2453518400
2417,17,Jits_Phase_5,132,9999,9999,9999,2454018148
2417,17,Jits_Phase_5,133,9999,9999,9999,2454518876
2417,17,Jits_Phase_5,134,9999,9999,9999,2455018624
2417,17,Jits_Phase_5,135,9999,9999,9999,2455518268
2417,17,Jits_Phase_5,136,9999,9999,9999,2456019004
2417,17,Jits_Phase_5,137,9999,9999,9999,2456518752
2417,17,Jits_Phase_5,138,9999,9999,9999,2457018428
2417,17,Jits_Phase_5,139,9999,9999,9999,2457518200
2417,17,Jits_Phase_5,140,9999,9999,9999,2458018924
2417,17,Jits_Phase_5,141,9999,9999,9999,2458518612
2417,17,Jits_Phase_5,142,9999,9999,9999,2459018308
2417,17,Jits_Phase_5,143,9999,9999,9999,2459519044
2417,17,Jits_Phase_5,144,9999,9999,9999,2460018788
2417,17,Jits_Phase_5,145,9999,9999,9999,2460518464
2417,17,Jits_Phase_5,146,9999,9999,9999,2461018236
2417,17,Jits_Phase_5,147,9999,9999,9999,2461518960
2417,17,Jits_Phase_5,148,9999,9999,9999,2462018632
2417,17,Jits_Phase_5,149,9999,9999,9999,2462518396
2417,17,Jits_Phase_5,150,9999,9999,9999,2462918716
2417,17,Jits_Phase_5,151,9999,9999,9999,2463418476
2417,17,Jits_Phase_5,152,9999,9999,9999,2463918168
2417,17,Jits_Phase_5,153,9999,9999,9999,2464418896
2417,17,Jits_Phase_5,154,9999,9999,9999,2464918644
2417,17,Jits_Phase_5,155,9999,9999,9999,2465418328
2417,17,Jits_Phase_5,156,9999,9999,9999,2465919040
2417,17,Jits_Phase_5,157,9999,9999,9999,2466418784
2417,17,Jits_Phase_5,158,9999,9999,9999,2466918464
2417,17,Jits_Phase_5,159,9999,9999,9999,2467418208
2417,17,Jits_Phase_5,160,9999,9999,9999,2467918948
2417,17,Jits_Phase_5,161,9999,9999,9999,2468418628
2417,17,Jits_Phase_5,162,9999,9999,9999,2468918372
2417,17,Jits_Phase_5,163,9999,9999,9999,2469419112
2417,17,Jits_Phase_5,164,9999,9999,9999,2469929052
2417,17,Jits_Phase_5,165,9999,9999,9999,2470428728
2417,17,Jits_Phase_5,166,9999,9999,9999,2470928496
2417,17,Jits_Phase_5,167,9999,9999,9999,2471428184
2417,17,Jits_Phase_5,168,9999,9999,9999,2471928912
2417,17,Jits_Phase_5,169,9999,9999,9999,2472428664
2418,15,Jits_Phase_8,0,5,56,103,2486946208
2418,15,Jits_Phase_8,1,5,63,98,2486949384
2418,15,Jits_Phase_8,2,5,80,127,2486952428
2418,15,Jits_Phase_8,0,1,48,44,2487483664
2418,15,Jits_Phase_8,1,5,56,103,2487745832
2418,15,Jits_Phase_8,2,5,63,98,2487748928
2418,15,Jits_Phase_8,3,5,80,127,2487752200
2418,15,Jits_Phase_8,0,1,48,56,2488165548
2418,15,Jits_Phase_8,1,5,80,127,2488486400
2418,15,Jits_Phase_8,2,5,63,98,2488576260
2418,15,Jits_Phase_8,3,5,56,103,2488585780
2418,15,Jits_Phase_8,4,1,48,57,2488763828
2418,15,Jits_Phase_8,0,5,56,103,2489305544
2418,15,Jits_Phase_8,1,5,63,98,2489315668
2418,15,Jits_Phase_8,2,5,80,127,2489405748
2418,15,Jits_Phase_8,3,1,48,56,2489410060
2418,15,Jits_Phase_8,0,5,63,98,2490075796
2418,15,Jits_Phase_8,1,5,80,127,2490106396
2418,15,Jits_Phase_8,2,5,56,103,2490135996
2418,15,Jits_Phase_8,3,1,48,69,2490160392
2418,15,Jits_Phase_8,0,5,56,103,2490876180
2418,15,Jits_Phase_8,1,1,48,58,2490905376
2418,15,Jits_Phase_8,2,5,80,127,2490975600
2418,15,Jits_Phase_8,3,5,63,98,2491025856
2418,15,Jits_Phase_8,0,5,56,103,2491675880
2418,15,Jits_Phase_8,1,5,80,127,2491726156
2418,15,Jits_Phase_8,2,5,63,98,2491766168
2418,15,Jits_Phase_8,3,1,48,69,2491783532
2418,15,Jits_Phase_8,0,5,80,127,2492505396
2418,15,Jits_Phase_8,1,1,48,73,2492516464
2418,15,Jits_Phase_8,2,5,63,98,2492536040
2418,15,Jits_Phase_8,3,5,56,103,2492605792
2418,15,Jits_Phase_8,0,5,63,98,2493335888
2418,15,Jits_Phase_8,1,1,48,65,2493341704
2418,15,Jits_Phase_8,2,5,56,103,2493365560
2418,15,Jits_Phase_8,3,5,80,127,2493425972
2418,15,Jits_Phase_8,0,5,56,103,2494076312
2418,15,Jits_Phase_8,1,5,80,127,2494079452
2418,15,Jits_Phase_8,2,1,48,71,2494140260
2418,15,Jits_Phase_8,3,5,63,98,2494196052
2418,15,Jits_Phase_8,0,1,48,64,2494943088
2418,15,Jits_Phase_8,1,5,56,103,2494955812
2418,15,Jits_Phase_8,2,5,80,127,2494995676
2418,15,Jits_Phase_8,3,5,63,98,2495005948
2418,15,Jits_Phase_8,0,5,56,103,2495715628
2418,15,Jits_Phase_8,1,1,48,71,2495723256
2418,15,Jits_Phase_8,2,5,80,127,2495736252
2418,15,Jits_Phase_8,3,5,63,98,2495817228
2418,15,Jits_Phase_8,0,5,80,127,2496506504
2418,15,Jits_Phase_8,1,1,48,66,2496528736
2418,15,Jits_Phase_8,2,5,56,103,2496605480
2418,15,Jits_Phase_8,3,5,63,98,2496615676
2418,15,Jits_Phase_8,0,5,63,98,2497276468
2418,15,Jits_Phase_8,1,1,48,60,2497306564
2418,15,Jits_Phase_8,2,5,80,127,2497335732
2418,15,Jits_Phase_8,3,5,56,103,2497345856
2418,15,Jits_Phase_8,0,1,48,70,2498075928
2418,15,Jits_Phase_8,1,5,56,103,2498077560
2418,15,Jits_Phase_8,2,5,63,98,2498145600
2418,15,Jits_Phase_8,3,5,80,127,2498149260
2418,15,Jits_Phase_8,0,1,48,59,2498754020
2418,15,Jits_Phase_8,1,5,63,98,2498905396
2418,15,Jits_Phase_8,2,5,56,103,2498955668
2418,15,Jits_Phase_8,3,5,80,127,2498958736
2418,15,Jits_Phase_8,0,1,48,59,2499624372
2418,15,Jits_Phase_8,1,5,56,103,2499666492
2418,15,Jits_Phase_8,2,5,80,127,2499669484
2418,15,Jits_Phase_8,3,5,63,98,2499756384
2418,15,Jits_Phase_8,0,1,48,54,2500475804
2418,15,Jits_Phase_8,1,5,63,98,2500506096
2418,15,Jits_Phase_8,2,5,56,103,2500596464
2418,15,Jits_Phase_8,3,5,80,127,2500625768
2418,15,Jits_Phase_8,0,5,56,103,2501295604
2418,15,Jits_Phase_8,1,1,48,69,2501316708
2418,15,Jits_Phase_8,2,5,63,98,2501395796
2418,15,Jits_Phase_8,3,5,80,127,2501425384
2418,15,Jits_Phase_8,0,5,63,98,2502115684
2418,15,Jits_Phase_8,1,5,56,103,2502126032
2418,15,Jits_Phase_8,2,1,48,63,2502172444
2418,15,Jits_Phase_8,3,5,80,127,2502216228
2418,15,Jits_Phase_8,0,1,48,55,2502923592
2418,15,Jits_Phase_8,1,5,63,98,2502935896
2418,15,Jits_Phase_8,2,5,56,103,2503015988
2418,15,Jits_Phase_8,3,5,80,127,2503018980
2418,15,Jits_Phase_8,0,5,80,127,2503695648
2418,15,Jits_Phase_8,1,5,63,98,2503716184
2418,15,Jits_Phase_8,2,1,48,62,2503759380
2418,15,Jits_Phase_8,3,5,56,103,2503775744
2418,15,Jits_Phase_8,0,1,48,61,2504502192
2418,15,Jits_Phase_8,1,5,56,103,2504536468
2418,15,Jits_Phase_8,2,5,63,98,2504556104
2418,15,Jits_Phase_8,3,5,80,127,2504559392
2418,15,Jits_Phase_8,0,5,63,98,2505275840
2418,15,Jits_Phase_8,1,1,48,58,2505295372
2418,15,Jits_Phase_8,2,5,80,127,2505355708
2418,15,Jits_Phase_8,3,5,56,103,2505366128
2418,15,Jits_Phase_8,0,1,48,69,2506086060
2418,15,Jits_Phase_8,1,5,63,98,2506095976
2418,15,Jits_Phase_8,2,5,56,103,2506115388
2418,15,Jits_Phase_8,3,5,80,127,2506165736
2418,15,Jits_Phase_8,0,1,48,70,2506850752
2418,15,Jits_Phase_8,1,5,80,127,2506895884
2418,15,Jits_Phase_8,2,5,63,98,2506935524
2418,15,Jits_Phase_8,3,5,56,103,2506956264
2418,15,Jits_Phase_8,0,1,48,61,2507660020
2418,15,Jits_Phase_8,1,5,56,103,2507736396
2418,15,Jits_Phase_8,2,5,63,98,2507745768
2418,15,Jits_Phase_8,3,5,80,127,2507766064
2418,15,Jits_Phase_8,0,1,48,64,2508446424
2418,15,Jits_Phase_8,1,5,56,103,2508465480
2418,15,Jits_Phase_8,2,5,63,98,2508555920
2418,15,Jits_Phase_8,3,5,80,127,2508616160
2418,15,Jits_Phase_8,0,1,48,70,2509270900
2418,15,Jits_Phase_8,1,5,80,127,2509295980
2418,15,Jits_Phase_8,2,5,56,103,2509306176
2418,15,Jits_Phase_8,3,5,63,98,2509375840
2418,15,Jits_Phase_8,0,1,48,73,2510090464
2418,15,Jits_Phase_8,1,5,63,98,2510125484
2418,15,Jits_Phase_8,2,5,80,127,2510215676
2418,15,Jits_Phase_8,3,5,56,103,2510225796
2418,15,Jits_Phase_8,0,5,63,98,2510855724
2418,15,Jits_Phase_8,1,1,48,59,2510899972
2418,15,Jits_Phase_8,2,5,80,127,2510905700
2418,15,Jits_Phase_8,3,5,56,103,2510966088
2418,15,Jits_Phase_8,0,1,48,70,2511651920
2418,15,Jits_Phase_8,1,5,56,103,2511675848
2418,15,Jits_Phase_8,2,5,80,127,2511725900
2418,15,Jits_Phase_8,3,5,63,98,2511746584
2418,15,Jits_Phase_8,0,1,48,66,2512431820
2418,15,Jits_Phase_8,1,5,56,103,2512445716
2418,15,Jits_Phase_8,2,5,80,127,2512506180
2418,15,Jits_Phase_8,3,5,63,98,2512575916
2418,15,Jits_Phase_8,0,5,56,103,2513245704
2418,15,Jits_Phase_8,1,1,48,70,2513267704
2418,15,Jits_Phase_8,2,5,80,127,2513276272
2418,15,Jits_Phase_8,3,5,63,98,2513306096
2418,15,Jits_Phase_8,0,1,48,74,2514009548
2418,15,Jits_Phase_8,1,5,56,103,2514086148
2418,15,Jits_Phase_8,2,5,80,127,2514106964
2418,15,Jits_Phase_8,3,5,63,98,2514166332
2418,15,Jits_Phase_8,0,1,48,71,2514863636
2418,15,Jits_Phase_8,1,5,80,127,2514965860
2418,15,Jits_Phase_8,2,5,56,103,2514975980
2418,15,Jits_Phase_8,3,5,63,98,2514986624
2418,15,Jits_Phase_8,0,5,56,103,2515725640
2418,15,Jits_Phase_8,1,1,48,73,2515737828
2418,15,Jits_Phase_8,2,5,80,127,2515765724
2418,15,Jits_Phase_8,3,5,63,98,2515796296
2418,15,Jits_Phase_8,0,1,48,74,2516474376
2418,15,Jits_Phase_8,1,5,56,103,2516495600
2418,15,Jits_Phase_8,2,5,63,98,2516525572
2418,15,Jits_Phase_8,3,5,80,127,2516566484
2418,15,Jits_Phase_8,0,5,80,127,2517246516
2418,15,Jits_Phase_8,1,1,48,61,2517290540
2418,15,Jits_Phase_8,2,5,63,98,2517295664
2418,15,Jits_Phase_8,3,5,56,103,2517315900
2418,15,Jits_Phase_8,0,1,48,65,2518052980
2418,15,Jits_Phase_8,1,5,56,103,2518075864
2418,15,Jits_Phase_8,2,5,80,127,2518146504
2418,15,Jits_Phase_8,3,5,63,98,2518205772
2418,15,Jits_Phase_8,0,1,48,63,2518787420
2418,15,Jits_Phase_8,1,5,80,127,2518875552
2418,15,Jits_Phase_8,2,5,63,98,2518965596
2418,15,Jits_Phase_8,3,5,56,103,2518985980
2418,15,Jits_Phase_8,0,1,48,64,2519694028
2418,15,Jits_Phase_8,1,5,63,98,2519695692
2418,15,Jits_Phase_8,2,5,56,103,2519716300
2418,15,Jits_Phase_8,3,5,80,127,2519756236
2418,15,Jits_Phase_8,0,1,48,59,2520447396
2418,15,Jits_Phase_8,1,5,80,127,2520455516
2418,15,Jits_Phase_8,2,5,63,98,2520475900
2418,15,Jits_Phase_8,3,5,56,103,2520556076
2418,15,Jits_Phase_8,0,1,48,63,2521233056
2418,15,Jits_Phase_8,1,5,63,98,2521246352
2418,15,Jits_Phase_8,2,5,56,103,2521355676
2418,15,Jits_Phase_8,3,5,80,127,2521358744
2418,15,Jits_Phase_8,0,1,48,68,2522033348
2418,15,Jits_Phase_8,1,5,63,98,2522066256
2418,15,Jits_Phase_8,2,5,56,103,2522075476
2418,15,Jits_Phase_8,3,5,80,127,2522078620
2418,15,Jits_Phase_8,0,5,56,103,2522845476
2418,15,Jits_Phase_8,1,1,48,59,2522879336
2418,15,Jits_Phase_8,2,5,80,127,2522966344
2418,15,Jits_Phase_8,3,5,63,98,2523006416
2418,15,Jits_Phase_8,0,5,56,103,2523665732
2418,15,Jits_Phase_8,1,1,48,69,2523678144
2418,15,Jits_Phase_8,2,5,80,127,2523745672
2418,15,Jits_Phase_8,3,5,63,98,2523766352
2418,15,Jits_Phase_8,0,5,56,103,2524465424
2418,15,Jits_Phase_8,1,1,48,73,2524509300
2418,15,Jits_Phase_8,2,5,63,98,2524576224
2418,15,Jits_Phase_8,3,5,80,127,2524579440
2418,15,Jits_Phase_8,0,1,48,67,2525287712
2418,15,Jits_Phase_8,1,5,56,103,2525306316
2418,15,Jits_Phase_8,2,5,80,127,2525336140
2418,15,Jits_Phase_8,3,5,63,98,2525356376
2418,15,Jits_Phase_8,0,5,63,98,2526095592
2418,15,Jits_Phase_8,1,1,48,71,2526100204
2418,15,Jits_Phase_8,2,5,56,103,2526106152
2418,15,Jits_Phase_8,3,5,80,127,2526116124
2418,15,Jits_Phase_8,0,1,48,67,2526860692
2418,15,Jits_Phase_8,1,5,80,127,2526886272
2418,15,Jits_Phase_8,2,5,56,103,2526936396
2418,15,Jits_Phase_8,3,5,63,98,2526976420
2418,15,Jits_Phase_8,0,1,48,78,2527694844
2418,15,Jits_Phase_8,1,5,80,127,2527705436
2418,15,Jits_Phase_8,2,5,63,98,2527726068
2418,15,Jits_Phase_8,3,5,56,103,2527776192
2418,15,Jits_Phase_8,0,5,80,127,2528515412
2418,15,Jits_Phase_8,1,1,48,73,2528518236
2418,15,Jits_Phase_8,2,5,56,103,2528546128
2418,15,Jits_Phase_8,3,5,63,98,2528616032
2418,15,Jits_Phase_8,0,1,48,60,2529342416
2418,15,Jits_Phase_8,1,5,56,103,2529366276
2418,15,Jits_Phase_8,2,5,80,127,2529375872
2418,15,Jits_Phase_8,3,5,63,98,2529415664
2418,15,Jits_Phase_8,0,5,56,103,2530076068
2418,15,Jits_Phase_8,1,5,63,98,2530095408
2418,15,Jits_Phase_8,2,1,48,61,2530149840
2418,15,Jits_Phase_8,3,5,80,127,2530166124
2418,15,Jits_Phase_8,0,1,48,63,2530813756
2418,15,Jits_Phase_8,1,5,63,98,2530896136
2418,15,Jits_Phase_8,2,5,80,127,2530955912
2418,15,Jits_Phase_8,3,5,56,103,2530976000
2418,15,Jits_Phase_8,0,1,48,68,2531613444
2418,15,Jits_Phase_8,1,5,80,127,2531685856
2418,15,Jits_Phase_8,2,5,56,103,2531715368
2418,15,Jits_Phase_8,3,5,63,98,2531746236
2418,15,Jits_Phase_8,0,1,48,74,2532480932
2418,15,Jits_Phase_8,1,5,56,103,2532485684
2418,15,Jits_Phase_8,2,5,63,98,2532545928
2418,15,Jits_Phase_8,3,5,80,127,2532606476
2418,15,Jits_Phase_8,0,5,80,127,2533305752
2418,15,Jits_Phase_8,1,1,48,71,2533307092
2418,15,Jits_Phase_8,2,5,56,103,2533326056
2418,15,Jits_Phase_8,3,5,63,98,2533395908
2418,15,Jits_Phase_8,0,5,80,127,2534105752
2418,15,Jits_Phase_8,1,5,63,98,2534125936
2418,15,Jits_Phase_8,2,5,56,103,2534155836
2418,15,Jits_Phase_8,3,1,48,59,2534173708
2418,15,Jits_Phase_8,0,5,80,127,2534895884
2418,15,Jits_Phase_8,1,5,63,98,2534915596
2418,15,Jits_Phase_8,2,1,48,70,2534939692
2418,15,Jits_Phase_8,3,5,56,103,2534975828
2418,15,Jits_Phase_8,0,5,80,127,2535695732
2418,15,Jits_Phase_8,1,1,48,77,2535726352
2418,15,Jits_Phase_8,2,5,56,103,2535796048
2418,15,Jits_Phase_8,3,5,63,98,2535825784
2418,15,Jits_Phase_8,0,5,63,98,2536486144
2418,15,Jits_Phase_8,1,5,80,127,2536536568
2418,15,Jits_Phase_8,2,5,56,103,2536555832
2418,15,Jits_Phase_8,3,1,48,68,2536582248
2418,15,Jits_Phase_8,0,1,48,69,2537267288
2418,15,Jits_Phase_8,1,5,80,127,2537325976
2418,15,Jits_Phase_8,2,5,56,103,2537355576
2418,15,Jits_Phase_8,3,5,63,98,2537358792
2418,15,Jits_Phase_8,0,1,48,71,2538082464
2418,15,Jits_Phase_8,1,5,63,98,2538175848
2418,15,Jits_Phase_8,2,5,56,103,2538215796
2418,15,Jits_Phase_8,3,5,80,127,2538236404
2418,15,Jits_Phase_8,0,1,48,65,2538857884
2418,15,Jits_Phase_8,1,5,80,127,2538935604
2418,15,Jits_Phase_8,2,5,63,98,2539015484
2418,15,Jits_Phase_8,3,5,56,103,2539055572
2418,15,Jits_Phase_8,0,5,63,98,2539755924
2418,15,Jits_Phase_8,1,1,48,75,2539764372
2418,15,Jits_Phase_8,2,5,80,127,2539835716
2418,15,Jits_Phase_8,3,5,56,103,2539856324
2418,15,Jits_Phase_8,0,5,56,103,2540595624
2418,15,Jits_Phase_8,1,5,63,98,2540605896
2418,15,Jits_Phase_8,2,1,48,77,2540614340
2418,15,Jits_Phase_8,3,5,80,127,2540645676
2418,15,Jits_Phase_8,0,5,56,103,2541315460
2418,15,Jits_Phase_8,1,5,80,127,2541318380
2418,15,Jits_Phase_8,2,1,48,75,2541408776
2418,15,Jits_Phase_8,3,5,63,98,2541455848
2418,15,Jits_Phase_8,0,5,56,103,2542106000
2418,15,Jits_Phase_8,1,1,48,72,2542144936
2418,15,Jits_Phase_8,2,5,63,98,2542196052
2418,15,Jits_Phase_8,3,5,80,127,2542265568
2418,15,Jits_Phase_8,0,1,48,76,2542911128
2418,15,Jits_Phase_8,1,5,63,98,2542985476
2418,15,Jits_Phase_8,2,5,80,127,2542988996
2418,15,Jits_Phase_8,3,5,56,103,2543046228
2418,15,Jits_Phase_8,0,1,48,81,2543724976
2418,15,Jits_Phase_8,1,5,80,127,2543826204
2418,15,Jits_Phase_8,2,5,56,103,2543845716
2418,15,Jits_Phase_8,3,5,63,98,2543855912
2418,15,Jits_Phase_8,0,1,48,73,2544510200
2418,15,Jits_Phase_8,1,5,56,103,2544535928
2418,15,Jits_Phase_8,2,5,63,98,2544546348
2418,15,Jits_Phase_8,3,5,80,127,2544615812
2418,15,Jits_Phase_8,0,1,48,73,2545271896
2418,15,Jits_Phase_8,1,5,80,127,2545335688
2418,15,Jits_Phase_8,2,5,56,103,2545385824
2418,15,Jits_Phase_8,3,5,63,98,2545436176
2418,15,Jits_Phase_8,0,1,48,73,2546072704
2418,15,Jits_Phase_8,1,5,56,103,2546216296
2418,15,Jits_Phase_8,2,5,63,98,2546225444
2418,15,Jits_Phase_8,3,5,80,127,2546265460
2418,15,Jits_Phase_8,0,1,48,67,2546947356
2418,15,Jits_Phase_8,1,5,56,103,2546955620
2418,15,Jits_Phase_8,2,5,63,98,2546995560
2418,15,Jits_Phase_8,3,5,80,127,2547045820
2418,15,Jits_Phase_8,0,5,80,127,2547715380
2418,15,Jits_Phase_8,1,1,48,73,2547762472
2418,15,Jits_Phase_8,2,5,56,103,2547765576
2418,15,Jits_Phase_8,3,5,63,98,2547786184
2418,15,Jits_Phase_8,0,5,80,127,2548525484
2418,15,Jits_Phase_8,1,1,48,48,2548537672
2418,15,Jits_Phase_8,2,5,63,98,2548585868
2418,15,Jits_Phase_8,3,5,56,103,2548665796
2418,15,Jits_Phase_8,0,5,80,127,2549305852
2418,15,Jits_Phase_8,1,5,56,103,2549345568
2418,15,Jits_Phase_8,2,1,48,78,2549356108
2418,15,Jits_Phase_8,3,5,63,98,2549366168
2418,15,Jits_Phase_8,0,1,48,75,2550134888
2418,15,Jits_Phase_8,1,5,56,103,2550155588
2418,15,Jits_Phase_8,2,5,80,127,2550166080
2418,15,Jits_Phase_8,3,5,63,98,2550206016
2418,15,Jits_Phase_8,0,1,48,70,2550910284
2418,15,Jits_Phase_8,1,5,56,103,2551026004
2418,15,Jits_Phase_8,2,5,63,98,2551065944
2418,15,Jits_Phase_8,3,5,80,127,2551069604
2418,15,Jits_Phase_8,0,5,63,98,2551695848
2418,15,Jits_Phase_8,1,5,80,127,2551735788
2418,15,Jits_Phase_8,2,1,48,72,2551753736
2418,15,Jits_Phase_8,3,5,56,103,2551806308
2418,15,Jits_Phase_8,0,5,63,98,2552465792
2418,15,Jits_Phase_8,1,1,48,75,2552513796
2418,15,Jits_Phase_8,2,5,56,103,2552545604
2418,15,Jits_Phase_8,3,5,80,127,2552605992
2418,15,Jits_Phase_8,0,1,48,74,2553241236
2418,15,Jits_Phase_8,1,5,80,127,2553275732
2418,15,Jits_Phase_8,2,5,63,98,2553325812
2418,15,Jits_Phase_8,3,5,56,103,2553355844
2418,15,Jits_Phase_8,0,5,56,103,2554066280
2418,15,Jits_Phase_8,1,5,63,98,2554115536
2418,15,Jits_Phase_8,2,1,48,67,2554125584
2418,15,Jits_Phase_8,3,5,80,127,2554127216
2418,15,Jits_Phase_8,0,5,56,103,2554876264
2418,15,Jits_Phase_8,1,1,48,77,2554903124
2418,15,Jits_Phase_8,2,5,63,98,2554985796
2418,15,Jits_Phase_8,3,5,80,127,2555006464
2418,15,Jits_Phase_8,0,5,63,98,2555676040
2418,15,Jits_Phase_8,1,1,48,79,2555717296
2418,15,Jits_Phase_8,2,5,80,127,2555726160
2418,15,Jits_Phase_8,3,5,56,103,2555816292
2418,15,Jits_Phase_8,0,5,63,98,2556465612
2418,15,Jits_Phase_8,1,1,48,68,2556494908
2418,15,Jits_Phase_8,2,5,80,127,2556496772
2418,15,Jits_Phase_8,3,5,56,103,2556586236
2418,15,Jits_Phase_8,0,5,63,98,2557266268
2418,15,Jits_Phase_8,1,5,56,103,2557275788
2418,15,Jits_Phase_8,2,1,48,76,2557278240
2418,15,Jits_Phase_8,3,5,80,127,2557375788
2418,15,Jits_Phase_8,0,1,48,63,2558048228
2418,15,Jits_Phase_8,1,5,63,98,2558166468
2418,15,Jits_Phase_8,2,5,80,127,2558196168
2418,15,Jits_Phase_8,3,5,56,103,2558225768
2418,15,Jits_Phase_8,0,1,48,68,2558906364
2418,15,Jits_Phase_8,1,5,80,127,2558985532
2418,15,Jits_Phase_8,2,5,63,98,2558995804
2418,15,Jits_Phase_8,3,5,56,103,2559025536
2418,15,Jits_Phase_8,0,5,80,127,2559685936
2418,15,Jits_Phase_8,1,5,63,98,2559705644
2418,15,Jits_Phase_8,2,1,48,68,2559725652
2418,15,Jits_Phase_8,3,5,56,103,2559755788
2418,15,Jits_Phase_8,0,1,48,69,2560450608
2418,15,Jits_Phase_8,1,5,63,98,2560515472
2418,15,Jits_Phase_8,2,5,80,127,2560575996
2418,15,Jits_Phase_8,3,5,56,103,2560596604
2418,15,Jits_Phase_8,0,1,48,72,2561269124
2418,15,Jits_Phase_8,1,5,63,98,2561276344
2418,15,Jits_Phase_8,2,5,56,103,2561325648
2418,15,Jits_Phase_8,3,5,80,127,2561335620
2418,15,Jits_Phase_8,0,1,48,73,2562015612
2418,15,Jits_Phase_8,1,5,56,103,2562105688
2418,15,Jits_Phase_8,2,5,80,127,2562115948
2418,15,Jits_Phase_8,3,5,63,98,2562216340
2418,15,Jits_Phase_8,0,1,48,70,2562834104
2418,15,Jits_Phase_8,1,5,80,127,2562865444
2418,15,Jits_Phase_8,2,5,63,98,2562875788
2418,15,Jits_Phase_8,3,5,56,103,2563026508
2418,15,Jits_Phase_8,0,5,63,98,2563675468
2418,15,Jits_Phase_8,1,1,48,68,2563677704
2418,15,Jits_Phase_8,2,5,80,127,2563715400
2418,15,Jits_Phase_8,3,5,56,103,2563796300
2418,15,Jits_Phase_8,0,5,56,103,2564426076
2418,15,Jits_Phase_8,1,1,48,70,2564524368
2418,15,Jits_Phase_8,2,5,80,127,2564526244
2418,15,Jits_Phase_8,3,5,63,98,2564546100
2418,15,Jits_Phase_8,0,1,48,70,2565243860
2418,15,Jits_Phase_8,1,5,80,127,2565255516
2418,15,Jits_Phase_8,2,5,56,103,2565265636
2418,15,Jits_Phase_8,3,5,63,98,2565355852
2418,15,Jits_Phase_8,0,1,48,59,2566043620
2418,15,Jits_Phase_8,1,5,56,103,2566056320
2418,15,Jits_Phase_8,2,5,63,98,2566075732
2418,15,Jits_Phase_8,3,5,80,127,2566155536
2418,15,Jits_Phase_8,0,1,48,54,2566778140
2418,15,Jits_Phase_8,1,5,63,98,2566805736
2418,15,Jits_Phase_8,2,5,56,103,2566896248
2418,15,Jits_Phase_8,3,5,80,127,2566899316
2418,15,Jits_Phase_8,0,1,48,59,2567600356
2418,15,Jits_Phase_8,1,5,56,103,2567636348
2418,15,Jits_Phase_8,2,5,80,127,2567695776
2418,15,Jits_Phase_8,3,5,63,98,2567706120
2418,15,Jits_Phase_8,0,1,48,62,2568477460
2418,15,Jits_Phase_8,1,5,80,127,2568486180
2418,15,Jits_Phase_8,2,5,56,103,2568495552
2418,15,Jits_Phase_8,3,5,63,98,2568498620
2418,15,Jits_Phase_8,0,5,56,103,2569246228
2418,15,Jits_Phase_8,1,5,80,127,2569256276
2418,15,Jits_Phase_8,2,5,63,98,2569275836
2418,15,Jits_Phase_8,3,1,48,48,2569301352
2418,15,Jits_Phase_8,0,5,63,98,2570016252
2418,15,Jits_Phase_8,1,1,48,62,2570056012
2418,15,Jits_Phase_8,2,5,80,127,2570075440
2418,15,Jits_Phase_8,3,5,56,103,2570125568
2418,15,Jits_Phase_8,0,1,48,80,2570778888
2418,15,Jits_Phase_8,1,5,63,98,2570895632
2418,15,Jits_Phase_8,2,5,56,103,2570906200
2418,15,Jits_Phase_8,3,5,80,127,2570956252
2418,15,Jits_Phase_8,0,5,63,98,2571596140
2418,15,Jits_Phase_8,1,1,48,69,2571601056
2418,15,Jits_Phase_8,2,5,80,127,2571615472
2418,15,Jits_Phase_8,3,5,56,103,2571626040
2418,15,Jits_Phase_8,0,1,48,72,2572331716
2418,15,Jits_Phase_8,1,5,63,98,2572396032
2418,15,Jits_Phase_8,2,5,80,127,2572399248
2418,15,Jits_Phase_8,3,5,56,103,2572435880
2418,15,Jits_Phase_8,0,1,48,68,2573129960
2418,15,Jits_Phase_8,1,5,63,98,2573266260
2418,15,Jits_Phase_8,2,5,80,127,2573295960
2418,15,Jits_Phase_8,3,5,56,103,2573306304
2418,15,Jits_Phase_8,0,1,48,60,2573936768
2418,15,Jits_Phase_8,1,5,56,103,2574015908
2418,15,Jits_Phase_8,2,5,80,127,2574045420
2418,15,Jits_Phase_8,3,5,63,98,2574076240
2418,15,Jits_Phase_8,0,1,48,54,2574758464
2418,15,Jits_Phase_8,1,5,63,98,2574915992
2418,15,Jits_Phase_8,2,5,56,103,2574955856
2418,15,Jits_Phase_8,3,5,80,127,2574958920
2418,15,Jits_Phase_8,0,5,80,127,2575616276
2418,15,Jits_Phase_8,1,5,56,103,2575696220
2418,15,Jits_Phase_8,2,1,48,65,2575705488
2418,15,Jits_Phase_8,3,5,63,98,2575746412
2418,15,Jits_Phase_8,0,5,80,127,2576395740
2418,15,Jits_Phase_8,1,5,56,103,2576415976
2418,15,Jits_Phase_8,2,5,63,98,2576506108
2418,15,Jits_Phase_8,3,1,48,72,2576522928
2418,15,Jits_Phase_8,0,1,48,55,2577192992
2418,15,Jits_Phase_8,1,5,80,127,2577236404
2418,15,Jits_Phase_8,2,5,63,98,2577276124
2418,15,Jits_Phase_8,3,5,56,103,2577316192
2418,15,Jits_Phase_8,0,1,48,69,2577984828
2418,15,Jits_Phase_8,1,5,63,98,2578046728
2418,15,Jits_Phase_8,2,5,80,127,2578105908
2418,15,Jits_Phase_8,3,5,56,103,2578136556
2418,15,Jits_Phase_8,0,1,48,69,2578840232
2418,15,Jits_Phase_8,1,5,56,103,2578885892
2418,15,Jits_Phase_8,2,5,80,127,2578915668
2418,15,Jits_Phase_8,3,5,63,98,2579005784
2418,15,Jits_Phase_8,0,1,48,63,2579680096
2418,15,Jits_Phase_8,1,5,56,103,2579695864
2418,15,Jits_Phase_8,2,5,80,127,2579805760
2418,15,Jits_Phase_8,3,5,63,98,2579836480
2418,15,Jits_Phase_8,0,5,56,103,2580546052
2418,15,Jits_Phase_8,1,1,48,75,2580585592
2418,15,Jits_Phase_8,2,5,63,98,2580606288
2418,15,Jits_Phase_8,3,5,80,127,2580635964
2418,15,Jits_Phase_8,0,5,56,103,2581315856
2418,15,Jits_Phase_8,1,1,48,67,2581368124
2418,15,Jits_Phase_8,2,5,63,98,2581385756
2418,15,Jits_Phase_8,3,5,80,127,2581405992
2418,15,Jits_Phase_8,0,5,80,127,2582085964
2418,15,Jits_Phase_8,1,5,63,98,2582105448
2418,15,Jits_Phase_8,2,5,56,103,2582155576
2418,15,Jits_Phase_8,3,1,48,64,2582165364
2418,15,Jits_Phase_8,0,5,63,98,2582906332
2418,15,Jits_Phase_8,1,5,80,127,2582915628
2418,15,Jits_Phase_8,2,1,48,71,2582923316
2418,15,Jits_Phase_8,3,5,56,103,2582965524
2418,15,Jits_Phase_8,0,5,63,98,2583705936
2418,15,Jits_Phase_8,1,1,48,73,2583748236
2418,15,Jits_Phase_8,2,5,80,127,2583775712
2418,15,Jits_Phase_8,3,5,56,103,2583795948
2418,15,Jits_Phase_8,0,1,48,51,2584514280
2418,15,Jits_Phase_8,1,5,63,98,2584536404
2418,15,Jits_Phase_8,2,5,80,127,2584539840
2418,15,Jits_Phase_8,3,5,56,103,2584606104
2418,15,Jits_Phase_8,0,1,48,67,2585285208
2418,15,Jits_Phase_8,1,5,80,127,2585286928
2418,15,Jits_Phase_8,2,5,56,103,2585305520
2418,15,Jits_Phase_8,3,5,63,98,2585315740
2418,15,Jits_Phase_8,0,1,48,73,2586058108
2418,15,Jits_Phase_8,1,5,56,103,2586106332
2418,15,Jits_Phase_8,2,5,63,98,2586196524
2418,15,Jits_Phase_8,3,5,80,127,2586199664
2418,15,Jits_Phase_8,0,5,80,127,2586876272
2418,15,Jits_Phase_8,1,5,56,103,2586885572
2418,15,Jits_Phase_8,2,1,48,76,2586899924
2418,15,Jits_Phase_8,3,5,63,98,2586906024
2418,15,Jits_Phase_8,0,1,48,56,2587656372
2418,15,Jits_Phase_8,1,5,63,98,2587675948
2418,15,Jits_Phase_8,2,5,80,127,2587736564
2418,15,Jits_Phase_8,3,5,56,103,2587745788
2418,15,Jits_Phase_8,0,1,48,62,2588456052
2418,15,Jits_Phase_8,1,5,63,98,2588546500
2418,15,Jits_Phase_8,2,5,80,127,2588576236
2418,15,Jits_Phase_8,3,5,56,103,2588616248
2418,15,Jits_Phase_8,0,5,56,103,2589336232
2418,15,Jits_Phase_8,1,1,48,61,2589343936
2418,15,Jits_Phase_8,2,5,80,127,2589346420
2418,15,Jits_Phase_8,3,5,63,98,2589386356
2418,15,Jits_Phase_8,0,5,80,127,2590095700
2418,15,Jits_Phase_8,1,5,56,103,2590175596
2418,15,Jits_Phase_8,2,1,48,68,2590182456
2418,15,Jits_Phase_8,3,5,63,98,2590185784
2418,15,Jits_Phase_8,0,1,48,74,2590926828
2418,15,Jits_Phase_8,1,5,80,127,2590945688
2418,15,Jits_Phase_8,2,5,56,103,2591025544
2418,15,Jits_Phase_8,3,5,63,98,2591035740
2418,15,Jits_Phase_8,0,5,80,127,2591786292
2418,15,Jits_Phase_8,1,1,48,64,2591804324
2418,15,Jits_Phase_8,2,5,56,103,2591835588
2418,15,Jits_Phase_8,3,5,63,98,2591885788
2418,15,Jits_Phase_8,0,1,48,66,2592661012
2418,15,Jits_Phase_8,1,5,56,103,2592726372
2418,15,Jits_Phase_8,2,5,63,98,2592729516
2418,15,Jits_Phase_8,3,5,80,127,2592775536
2418,15,Jits_Phase_8,0,1,48,64,2593531368
2418,15,Jits_Phase_8,1,5,56,103,2593545560
2418,15,Jits_Phase_8,2,5,63,98,2593576356
2418,15,Jits_Phase_8,3,5,80,127,2593585504
2418,15,Jits_Phase_8,0,5,63,98,2594256372
2418,15,Jits_Phase_8,1,1,48,59,2594303932
2418,15,Jits_Phase_8,2,5,56,103,2594326072
2418,15,Jits_Phase_8,3,5,80,127,2594376200
2418,15,Jits_Phase_8,0,1,48,65,2595049004
2418,15,Jits_Phase_8,1,5,63,98,2595085672
2418,15,Jits_Phase_8,2,5,56,103,2595095940
2418,15,Jits_Phase_8,3,5,80,127,2595099004
2418,15,Jits_Phase_8,0,1,48,67,2595816312
2418,15,Jits_Phase_8,1,5,80,127,2595836416
2418,15,Jits_Phase_8,2,5,56,103,2595895836
2418,15,Jits_Phase_8,3,5,63,98,2595986100
2418,15,Jits_Phase_8,0,5,80,127,2596635956
2418,15,Jits_Phase_8,1,1,48,55,2596648588
2418,15,Jits_Phase_8,2,5,56,103,2596736420
2418,15,Jits_Phase_8,3,5,63,98,2596776344
2418,15,Jits_Phase_8,0,5,56,103,2597486076
2418,15,Jits_Phase_8,1,5,63,98,2597506460
2418,15,Jits_Phase_8,2,1,48,62,2597523600
2418,15,Jits_Phase_8,3,5,80,127,2597546464
2418,15,Jits_Phase_8,0,5,63,98,2598255956
2418,15,Jits_Phase_8,1,5,56,103,2598275444
2418,15,Jits_Phase_8,2,1,48,57,2598311892
2418,15,Jits_Phase_8,3,5,80,127,2598375852
2418,15,Jits_Phase_8,0,1,48,66,2599019340
2418,15,Jits_Phase_8,1,5,63,98,2599045444
2418,15,Jits_Phase_8,2,5,80,127,2599155968
2418,15,Jits_Phase_8,3,5,56,103,2599185788
2418,15,Jits_Phase_8,0,5,56,103,2599865740
2418,15,Jits_Phase_8,1,1,48,62,2599875232
2418,15,Jits_Phase_8,2,5,63,98,2599896384
2418,15,Jits_Phase_8,3,5,80,127,2599945708
2418,15,Jits_Phase_8,0,5,63,98,2600635916
2418,15,Jits_Phase_8,1,5,56,103,2600665740
2418,15,Jits_Phase_8,2,1,48,66,2600681168
2418,15,Jits_Phase_8,3,5,80,127,2600715960
2418,15,Jits_Phase_8,0,1,48,59,2601375256
2418,15,Jits_Phase_8,1,5,56,103,2601466404
2418,15,Jits_Phase_8,2,5,63,98,2601485804
2418,15,Jits_Phase_8,3,5,80,127,2601565968
2418,15,Jits_Phase_8,0,1,48,55,2602234532
2418,15,Jits_Phase_8,1,5,63,98,2602236268
2418,15,Jits_Phase_8,2,5,56,103,2602295764
2418,15,Jits_Phase_8,3,5,80,127,2602326632
2418,15,Jits_Phase_8,0,5,56,103,2603075884
2418,15,Jits_Phase_8,1,1,48,58,2603100576
2418,15,Jits_Phase_8,2,5,80,127,2603136492
2418,15,Jits_Phase_8,3,5,63,98,2603176280
2418,15,Jits_Phase_8,0,5,63,98,2603856180
2418,15,Jits_Phase_8,1,5,56,103,2603915600
2418,15,Jits_Phase_8,2,1,48,54,2603950776
2418,15,Jits_Phase_8,3,5,80,127,2603986240
2418,15,Jits_Phase_8,0,1,48,62,2604715324
2418,15,Jits_Phase_8,1,5,56,103,2604735724
2418,15,Jits_Phase_8,2,5,63,98,2604746216
2418,15,Jits_Phase_8,3,5,80,127,2604749504
2418,15,Jits_Phase_8,0,5,63,98,2605476296
2418,15,Jits_Phase_8,1,1,48,64,2605513496
2418,15,Jits_Phase_8,2,5,56,103,2605535580
2418,15,Jits_Phase_8,3,5,80,127,2605538652
2418,15,Jits_Phase_8,0,1,48,63,2606255744
2418,15,Jits_Phase_8,1,5,63,98,2606257384
2418,15,Jits_Phase_8,2,5,80,127,2606286312
2418,15,Jits_Phase_8,3,5,56,103,2606305600
2418,15,Jits_Phase_8,0,5,56,103,2606985596
2418,15,Jits_Phase_8,1,5,63,98,2607035648
2418,15,Jits_Phase_8,2,1,48,65,2607081568
2418,15,Jits_Phase_8,3,5,80,127,2607115684
2418,15,Jits_Phase_8,0,5,80,127,2607686260
2418,15,Jits_Phase_8,1,5,63,98,2607726048
2418,15,Jits_Phase_8,2,5,56,103,2607746508
2418,15,Jits_Phase_8,3,1,48,60,2607775404
2418,15,Jits_Phase_8,0,1,48,66,2608437672
2418,15,Jits_Phase_8,1,5,56,103,2608556356
2418,15,Jits_Phase_8,2,5,80,127,2608565580
2418,15,Jits_Phase_8,3,5,63,98,2608586192
2418,15,Jits_Phase_8,0,1,48,66,2609277812
2418,15,Jits_Phase_8,1,5,56,103,2609335608
2418,15,Jits_Phase_8,2,5,63,98,2609385896
2418,15,Jits_Phase_8,3,5,80,127,2609415420
2418,15,Jits_Phase_8,0,5,56,103,2610086372
2418,15,Jits_Phase_8,1,1,48,60,2610093708
2418,15,Jits_Phase_8,2,5,63,98,2610095592
2418,15,Jits_Phase_8,3,5,80,127,2610145668
2418,15,Jits_Phase_8,0,1,48,66,2610864836
2418,15,Jits_Phase_8,1,5,56,103,2610875720
2418,15,Jits_Phase_8,2,5,80,127,2610878788
2418,15,Jits_Phase_8,3,5,63,98,2611035456
2418,15,Jits_Phase_8,0,5,63,98,2611696176
2418,15,Jits_Phase_8,1,1,48,71,2611731512
2418,15,Jits_Phase_8,2,5,56,103,2611765480
2418,15,Jits_Phase_8,3,5,80,127,2611805420
2418,15,Jits_Phase_8,0,5,63,98,2612535572
2418,15,Jits_Phase_8,1,1,48,73,2612549176
2418,15,Jits_Phase_8,2,5,56,103,2612625772
2418,15,Jits_Phase_8,3,5,80,127,2612628988
2418,15,Jits_Phase_8,0,5,56,103,2613316140
2418,15,Jits_Phase_8,1,1,48,74,2613360312
2418,15,Jits_Phase_8,2,5,63,98,2613406268
2418,15,Jits_Phase_8,3,5,80,127,2613416240
2418,15,Jits_Phase_8,0,5,56,103,2614086024
2418,15,Jits_Phase_8,1,5,63,98,2614136152
2418,15,Jits_Phase_8,2,1,48,67,2614156204
2418,15,Jits_Phase_8,3,5,80,127,2614165820
2418,15,Jits_Phase_8,0,1,48,65,2614940004
2418,15,Jits_Phase_8,1,5,63,98,2614965508
2418,15,Jits_Phase_8,2,5,80,127,2614976152
2418,15,Jits_Phase_8,3,5,56,103,2615037376
2418,15,Jits_Phase_8,0,5,63,98,2615685416
2418,15,Jits_Phase_8,1,1,48,65,2615743684
2418,15,Jits_Phase_8,2,5,80,127,2615745872
2418,15,Jits_Phase_8,3,5,56,103,2615786060
2418,15,Jits_Phase_8,0,1,48,61,2616542544
2418,15,Jits_Phase_8,1,5,56,103,2616585732
2418,15,Jits_Phase_8,2,5,80,127,2616606044
2418,15,Jits_Phase_8,3,5,63,98,2616625456
2418,15,Jits_Phase_8,0,5,63,98,2617305392
2418,15,Jits_Phase_8,1,5,56,103,2617326024
2418,15,Jits_Phase_8,2,1,48,68,2617359184
2418,15,Jits_Phase_8,3,5,80,127,2617365808
2418,15,Jits_Phase_8,0,5,63,98,2618115364
2418,15,Jits_Phase_8,1,1,48,62,2618123192
2418,15,Jits_Phase_8,2,5,80,127,2618146152
2418,15,Jits_Phase_8,3,5,56,103,2618165564
2418,15,Jits_Phase_8,0,5,80,127,2618885452
2418,15,Jits_Phase_8,1,5,56,103,2618935804
2418,15,Jits_Phase_8,2,1,48,67,2618954140
2418,15,Jits_Phase_8,3,5,63,98,2618995960
2418,15,Jits_Phase_8,0,5,63,98,2619676080
2418,15,Jits_Phase_8,1,1,48,73,2619742576
2418,15,Jits_Phase_8,2,5,56,103,2619795728
2418,15,Jits_Phase_8,3,5,80,127,2619825400
2418,15,Jits_Phase_8,0,1,48,63,2620506976
2418,15,Jits_Phase_8,1,5,80,127,2620515692
2418,15,Jits_Phase_8,2,5,63,98,2620536152
2418,15,Jits_Phase_8,3,5,56,103,2620605964
2418,15,Jits_Phase_8,0,1,48,59,2621307036
2418,15,Jits_Phase_8,1,5,63,98,2621335980
2418,15,Jits_Phase_8,2,5,56,103,2621346176
2418,15,Jits_Phase_8,3,5,80,127,2621425904
2418,15,Jits_Phase_8,0,1,48,44,2622117732
2418,15,Jits_Phase_8,1,5,56,103,2622196080
2418,15,Jits_Phase_8,2,5,80,127,2622225892
2418,15,Jits_Phase_8,3,5,63,98,2622236160
2418,15,Jits_Phase_8,0,9999,9999,9999,2487343196
2418,15,Jits_Phase_8,1,9999,9999,9999,2488143940
2418,15,Jits_Phase_8,2,9999,9999,9999,2488943680
2418,15,Jits_Phase_8,3,9999,9999,9999,2489743416
2418,15,Jits_Phase_8,4,9999,9999,9999,2490543188
2418,15,Jits_Phase_8,5,9999,9999,9999,2491344000
2418,15,Jits_Phase_8,6,9999,9999,9999,2492143720
2418,15,Jits_Phase_8,7,9999,9999,9999,2492943420
2418,15,Jits_Phase_8,8,9999,9999,9999,2493743200
2418,15,Jits_Phase_8,9,9999,9999,9999,2494543992
2418,15,Jits_Phase_8,10,9999,9999,9999,2495343700
2418,15,Jits_Phase_8,11,9999,9999,9999,2496143460
2418,15,Jits_Phase_8,12,9999,9999,9999,2496943168
2418,15,Jits_Phase_8,13,9999,9999,9999,2497743984
2418,15,Jits_Phase_8,14,9999,9999,9999,2498543680
2418,15,Jits_Phase_8,15,9999,9999,9999,2499343432
2418,15,Jits_Phase_8,16,9999,9999,9999,2500143172
2418,15,Jits_Phase_8,17,9999,9999,9999,2500943984
2418,15,Jits_Phase_8,18,9999,9999,9999,2501743672
2418,15,Jits_Phase_8,19,9999,9999,9999,2502543420
2418,15,Jits_Phase_8,20,9999,9999,9999,2503343180
2418,15,Jits_Phase_8,21,9999,9999,9999,2504143984
2418,15,Jits_Phase_8,22,9999,9999,9999,2504943700
2418,15,Jits_Phase_8,23,9999,9999,9999,2505743460
2418,15,Jits_Phase_8,24,9999,9999,9999,2506543220
2418,15,Jits_Phase_8,25,9999,9999,9999,2507343952
2418,15,Jits_Phase_8,26,9999,9999,9999,2508143684
2418,15,Jits_Phase_8,27,9999,9999,9999,2508943444
2418,15,Jits_Phase_8,28,9999,9999,9999,2509743196
2418,15,Jits_Phase_8,29,9999,9999,9999,2510543940
2418,15,Jits_Phase_8,30,9999,9999,9999,2511323244
2418,15,Jits_Phase_8,31,9999,9999,9999,2512123992
2418,15,Jits_Phase_8,32,9999,9999,9999,2512923752
2418,15,Jits_Phase_8,33,9999,9999,9999,2513723504
2418,15,Jits_Phase_8,34,9999,9999,9999,2514523204
2418,15,Jits_Phase_8,35,9999,9999,9999,2515324020
2418,15,Jits_Phase_8,36,9999,9999,9999,2516123712
2418,15,Jits_Phase_8,37,9999,9999,9999,2516923492
2418,15,Jits_Phase_8,38,9999,9999,9999,2517723244
2418,15,Jits_Phase_8,39,9999,9999,9999,2518524012
2418,15,Jits_Phase_8,40,9999,9999,9999,2519323772
2418,15,Jits_Phase_8,41,9999,9999,9999,2520123456
2418,15,Jits_Phase_8,42,9999,9999,9999,2520923212
2418,15,Jits_Phase_8,43,9999,9999,9999,2521724008
2418,15,Jits_Phase_8,44,9999,9999,9999,2522523752
2418,15,Jits_Phase_8,45,9999,9999,9999,2523323512
2418,15,Jits_Phase_8,46,9999,9999,9999,2524123212
2418,15,Jits_Phase_8,47,9999,9999,9999,2524923968
2418,15,Jits_Phase_8,48,9999,9999,9999,2525743220
2418,15,Jits_Phase_8,49,9999,9999,9999,2526543948
2418,15,Jits_Phase_8,50,9999,9999,9999,2527343704
2418,15,Jits_Phase_8,51,9999,9999,9999,2528143464
2418,15,Jits_Phase_8,52,9999,9999,9999,2528943224
2418,15,Jits_Phase_8,53,9999,9999,9999,2529743976
2418,15,Jits_Phase_8,54,9999,9999,9999,2530543684
2418,15,Jits_Phase_8,55,9999,9999,9999,2531343456
2418,15,Jits_Phase_8,56,9999,9999,9999,2532143212
2418,15,Jits_Phase_8,57,9999,9999,9999,2532943944
2418,15,Jits_Phase_8,58,9999,9999,9999,2533743700
2418,15,Jits_Phase_8,59,9999,9999,9999,2534543472
2418,15,Jits_Phase_8,60,9999,9999,9999,2535343172
2418,15,Jits_Phase_8,61,9999,9999,9999,2536143996
2418,15,Jits_Phase_8,62,9999,9999,9999,2536943720
2418,15,Jits_Phase_8,63,9999,9999,9999,2537743468
2418,15,Jits_Phase_8,64,9999,9999,9999,2538583164
2418,15,Jits_Phase_8,65,9999,9999,9999,2539383900
2418,15,Jits_Phase_8,66,9999,9999,9999,2540183664
2418,15,Jits_Phase_8,67,9999,9999,9999,2540983356
2418,15,Jits_Phase_8,68,9999,9999,9999,2541783116
2418,15,Jits_Phase_8,69,9999,9999,9999,2542583884
2418,15,Jits_Phase_8,70,9999,9999,9999,2543383648
2418,15,Jits_Phase_8,71,9999,9999,9999,2544183416
2418,15,Jits_Phase_8,72,9999,9999,9999,2544983100
2418,15,Jits_Phase_8,73,9999,9999,9999,2545783908
2418,15,Jits_Phase_8,74,9999,9999,9999,2546583672
2418,15,Jits_Phase_8,75,9999,9999,9999,2547383364
2418,15,Jits_Phase_8,76,9999,9999,9999,2548183120
2418,15,Jits_Phase_8,77,9999,9999,9999,2548983888
2418,15,Jits_Phase_8,78,9999,9999,9999,2549783652
2418,15,Jits_Phase_8,79,9999,9999,9999,2550583352
2418,15,Jits_Phase_8,80,9999,9999,9999,2551383112
2418,15,Jits_Phase_8,81,9999,9999,9999,2552143984
2418,15,Jits_Phase_8,82,9999,9999,9999,2552943672
2418,15,Jits_Phase_8,83,9999,9999,9999,2553743428
2418,15,Jits_Phase_8,84,9999,9999,9999,2554543184
2418,15,Jits_Phase_8,85,9999,9999,9999,2555343932
2418,15,Jits_Phase_8,86,9999,9999,9999,2556143732
2418,15,Jits_Phase_8,87,9999,9999,9999,2556943416
2418,15,Jits_Phase_8,88,9999,9999,9999,2557743172
2418,15,Jits_Phase_8,89,9999,9999,9999,2558543984
2418,15,Jits_Phase_8,90,9999,9999,9999,2559343680
2418,15,Jits_Phase_8,91,9999,9999,9999,2560143436
2418,15,Jits_Phase_8,92,9999,9999,9999,2560943216
2418,15,Jits_Phase_8,93,9999,9999,9999,2561743936
2418,15,Jits_Phase_8,94,9999,9999,9999,2562543720
2418,15,Jits_Phase_8,95,9999,9999,9999,2563343476
2418,15,Jits_Phase_8,96,9999,9999,9999,2564143156
2418,15,Jits_Phase_8,97,9999,9999,9999,2564864104
2418,15,Jits_Phase_8,98,9999,9999,9999,2565674064
2418,15,Jits_Phase_8,99,9999,9999,9999,2566473824
2418,15,Jits_Phase_8,100,9999,9999,9999,2567273572
2418,15,Jits_Phase_8,101,9999,9999,9999,2568073332
2418,15,Jits_Phase_8,102,9999,9999,9999,2568874056
2418,15,Jits_Phase_8,103,9999,9999,9999,2569673808
2418,15,Jits_Phase_8,104,9999,9999,9999,2570473532
2418,15,Jits_Phase_8,105,9999,9999,9999,2571273296
2418,15,Jits_Phase_8,106,9999,9999,9999,2572074088
2418,15,Jits_Phase_8,107,9999,9999,9999,2572873828
2418,15,Jits_Phase_8,108,9999,9999,9999,2573673588
2418,15,Jits_Phase_8,109,9999,9999,9999,2574473340
2418,15,Jits_Phase_8,110,9999,9999,9999,2575274072
2418,15,Jits_Phase_8,111,9999,9999,9999,2576073828
2418,15,Jits_Phase_8,112,9999,9999,9999,2576873544
2418,15,Jits_Phase_8,113,9999,9999,9999,2577673316
2418,15,Jits_Phase_8,114,9999,9999,9999,2578553980
2418,15,Jits_Phase_8,115,9999,9999,9999,2579353664
2418,15,Jits_Phase_8,116,9999,9999,9999,2580153428
2418,15,Jits_Phase_8,117,9999,9999,9999,2580953192
2418,15,Jits_Phase_8,118,9999,9999,9999,2581753956
2418,15,Jits_Phase_8,119,9999,9999,9999,2582553724
2418,15,Jits_Phase_8,120,9999,9999,9999,2583353420
2418,15,Jits_Phase_8,121,9999,9999,9999,2584153176
2418,15,Jits_Phase_8,122,9999,9999,9999,2584953972
2418,15,Jits_Phase_8,123,9999,9999,9999,2585753720
2418,15,Jits_Phase_8,124,9999,9999,9999,2586553396
2418,15,Jits_Phase_8,125,9999,9999,9999,2587353148
2418,15,Jits_Phase_8,126,9999,9999,9999,2588153984
2418,15,Jits_Phase_8,127,9999,9999,9999,2588953668
2418,15,Jits_Phase_8,128,9999,9999,9999,2589753428
2418,15,Jits_Phase_8,129,9999,9999,9999,2590553200
2418,15,Jits_Phase_8,130,9999,9999,9999,2591353952
2418,15,Jits_Phase_8,131,9999,9999,9999,2592313460
2418,15,Jits_Phase_8,132,9999,9999,9999,2593113156
2418,15,Jits_Phase_8,133,9999,9999,9999,2593913968
2418,15,Jits_Phase_8,134,9999,9999,9999,2594713728
2418,15,Jits_Phase_8,135,9999,9999,9999,2595513400
2418,15,Jits_Phase_8,136,9999,9999,9999,2596313160
2418,15,Jits_Phase_8,137,9999,9999,9999,2597113912
2418,15,Jits_Phase_8,138,9999,9999,9999,2597913688
2418,15,Jits_Phase_8,139,9999,9999,9999,2598713456
2418,15,Jits_Phase_8,140,9999,9999,9999,2599513148
2418,15,Jits_Phase_8,141,9999,9999,9999,2600313952
2418,15,Jits_Phase_8,142,9999,9999,9999,2601113720
2418,15,Jits_Phase_8,143,9999,9999,9999,2601913404
2418,15,Jits_Phase_8,144,9999,9999,9999,2602713156
2418,15,Jits_Phase_8,145,9999,9999,9999,2603513908
2418,15,Jits_Phase_8,146,9999,9999,9999,2604313684
2418,15,Jits_Phase_8,147,9999,9999,9999,2605113436
2418,15,Jits_Phase_8,148,9999,9999,9999,2605913192
2418,15,Jits_Phase_8,149,9999,9999,9999,2606713916
2418,15,Jits_Phase_8,150,9999,9999,9999,2607353952
2418,15,Jits_Phase_8,151,9999,9999,9999,2608153720
2418,15,Jits_Phase_8,152,9999,9999,9999,2608953424
2418,15,Jits_Phase_8,153,9999,9999,9999,2609753188
2418,15,Jits_Phase_8,154,9999,9999,9999,2610553912
2418,15,Jits_Phase_8,155,9999,9999,9999,2611353672
2418,15,Jits_Phase_8,156,9999,9999,9999,2612153432
2418,15,Jits_Phase_8,157,9999,9999,9999,2612953188
2418,15,Jits_Phase_8,158,9999,9999,9999,2613753944
2418,15,Jits_Phase_8,159,9999,9999,9999,2614553712
2418,15,Jits_Phase_8,160,9999,9999,9999,2615353424
2418,15,Jits_Phase_8,161,9999,9999,9999,2616153180
2418,15,Jits_Phase_8,162,9999,9999,9999,2616953920
2418,15,Jits_Phase_8,163,9999,9999,9999,2617753672
2418,15,Jits_Phase_8,164,9999,9999,9999,2618553436
2418,15,Jits_Phase_8,165,9999,9999,9999,2619353192
2418,15,Jits_Phase_8,166,9999,9999,9999,2620153964
2418,15,Jits_Phase_8,167,9999,9999,9999,2620953724
2418,15,Jits_Phase_8,168,9999,9999,9999,2621753408
2418,15,Jits_Phase_8,169,9999,9999,9999,2622553180
2419,5,ISIP_5,0,5,42,127,2681225516
2419,5,ISIP_5,1,5,42,127,2681726280
2419,5,ISIP_5,2,1,48,50,2681854856
2419,5,ISIP_5,3,1,48,27,2681913104
2419,5,ISIP_5,4,5,42,127,2682225880
2419,5,ISIP_5,5,1,48,59,2682286812
2419,5,ISIP_5,6,5,42,127,2682725944
2419,5,ISIP_5,7,1,48,63,2682757036
2419,5,ISIP_5,8,5,42,127,2683225416
2419,5,ISIP_5,9,1,48,65,2683245064
2419,5,ISIP_5,10,5,42,127,2683726232
2419,5,ISIP_5,11,1,48,60,2683738848
2419,5,ISIP_5,12,5,42,127,2684225928
2419,5,ISIP_5,13,1,48,59,2684251932
2419,5,ISIP_5,14,5,42,127,2684725772
2419,5,ISIP_5,15,1,48,65,2684743400
2419,5,ISIP_5,16,5,42,127,2685226292
2419,5,ISIP_5,17,1,48,67,2685247512
2419,5,ISIP_5,18,5,42,127,2685725984
2419,5,ISIP_5,19,1,48,61,2685727620
2419,5,ISIP_5,20,5,42,127,2686225828
2419,5,ISIP_5,21,1,48,55,2686238668
2419,5,ISIP_5,22,5,42,127,2686725596
2419,5,ISIP_5,23,1,48,63,2686731784
2419,5,ISIP_5,24,1,48,72,2687192640
2419,5,ISIP_5,25,5,42,127,2687226108
2419,5,ISIP_5,26,1,48,65,2687723764
2419,5,ISIP_5,27,5,42,127,2687725880
2419,5,ISIP_5,28,1,48,65,2688177644
2419,5,ISIP_5,29,5,42,127,2688225720
2419,5,ISIP_5,30,1,48,59,2688711516
2419,5,ISIP_5,31,5,42,127,2688726464
2419,5,ISIP_5,32,1,48,57,2689205004
2419,5,ISIP_5,33,5,42,127,2689226136
2419,5,ISIP_5,34,1,48,63,2689709712
2419,5,ISIP_5,35,5,42,127,2689725680
2419,5,ISIP_5,36,5,42,127,2690225456
2419,5,ISIP_5,37,1,48,52,2690239120
2419,5,ISIP_5,38,1,48,63,2690711724
2419,5,ISIP_5,39,5,42,127,2690726192
2419,5,ISIP_5,40,5,42,127,2691225816
2419,5,ISIP_5,41,1,48,52,2691226784
2419,5,ISIP_5,42,1,48,57,2691720460
2419,5,ISIP_5,43,5,42,127,2691725728
2419,5,ISIP_5,44,1,48,66,2692181036
2419,5,ISIP_5,45,5,42,127,2692226544
2419,5,ISIP_5,46,5,42,127,2692726244
2419,5,ISIP_5,47,1,48,59,2692736696
2419,5,ISIP_5,48,5,42,127,2693225720
2419,5,ISIP_5,49,1,48,50,2693260700
2419,5,ISIP_5,50,1,48,51,2693696348
2419,5,ISIP_5,51,5,42,127,2693725480
2419,5,ISIP_5,52,1,48,51,2694165448
2419,5,ISIP_5,53,5,42,127,2694226444
2419,5,ISIP_5,54,1,48,62,2694670680
2419,5,ISIP_5,55,5,42,127,2694725916
2419,5,ISIP_5,56,1,48,66,2695179800
2419,5,ISIP_5,57,5,42,127,2695225612
2419,5,ISIP_5,58,1,48,63,2695688544
2419,5,ISIP_5,59,5,42,127,2695725380
2419,5,ISIP_5,60,1,48,61,2696194448
2419,5,ISIP_5,61,5,42,127,2696226268
2419,5,ISIP_5,62,1,48,54,2696679856
2419,5,ISIP_5,63,5,42,127,2696725816
2419,5,ISIP_5,64,1,48,63,2697204384
2419,5,ISIP_5,65,5,42,127,2697225512
2419,5,ISIP_5,66,1,48,65,2697700936
2419,5,ISIP_5,67,5,42,127,2697726476
2419,5,ISIP_5,68,1,48,63,2698204072
2419,5,ISIP_5,69,5,42,127,2698226248
2419,5,ISIP_5,70,1,48,70,2698714912
2419,5,ISIP_5,71,5,42,127,2698725716
2419,5,ISIP_5,72,1,48,55,2699213236
2419,5,ISIP_5,73,5,42,127,2699225488
2419,5,ISIP_5,74,1,48,56,2699715176
2419,5,ISIP_5,75,5,42,127,2699726280
2419,5,ISIP_5,76,1,48,61,2700209336
2419,5,ISIP_5,77,5,42,127,2700225824
2419,5,ISIP_5,78,1,48,65,2700696016
2419,5,ISIP_5,79,5,42,127,2700725596
2419,5,ISIP_5,80,1,48,56,2701194440
2419,5,ISIP_5,81,1,48,55,2701713348
2419,5,ISIP_5,82,1,48,60,2702220524
2419,5,ISIP_5,83,1,48,61,2702717440
2419,5,ISIP_5,84,1,48,54,2703210400
2419,5,ISIP_5,85,1,48,54,2703721764
2419,5,ISIP_5,86,1,48,59,2704229920
2419,5,ISIP_5,87,1,48,66,2704738812
2419,5,ISIP_5,88,1,48,53,2705251140
2419,5,ISIP_5,89,1,48,57,2705754276
2419,5,ISIP_5,90,1,48,63,2706238256
2419,5,ISIP_5,91,1,48,60,2706768388
2419,5,ISIP_5,92,1,48,63,2707265612
2419,5,ISIP_5,93,1,48,51,2707756024
2419,5,ISIP_5,94,1,48,55,2708257360
2419,5,ISIP_5,95,1,48,55,2708776352
2419,5,ISIP_5,96,1,48,54,2709270060
2419,5,ISIP_5,97,1,48,52,2709751572
2419,5,ISIP_5,98,1,48,61,2710245728
2419,5,ISIP_5,99,1,48,56,2710752676
2419,5,ISIP_5,100,1,48,52,2711247328
2419,5,ISIP_5,101,1,48,62,2711756516
2419,5,ISIP_5,102,1,48,61,2712275676
2419,5,ISIP_5,103,1,48,56,2712767340
2419,5,ISIP_5,104,1,48,59,2713279600
2419,5,ISIP_5,105,1,48,57,2713800904
2419,5,ISIP_5,106,1,48,59,2714285784
2419,5,ISIP_5,107,1,48,52,2714783528
2419,5,ISIP_5,108,1,48,61,2715293540
2419,5,ISIP_5,109,1,48,56,2715789420
2419,5,ISIP_5,110,1,48,61,2716272656
2419,5,ISIP_5,111,1,48,57,2716776460
2419,5,ISIP_5,112,1,48,58,2717273384
2419,5,ISIP_5,113,1,48,58,2717791248
2419,5,ISIP_5,114,1,48,53,2718274856
2419,5,ISIP_5,115,1,48,60,2718777392
2419,5,ISIP_5,116,1,48,64,2719339160
2419,5,ISIP_5,117,1,48,63,2719774300
2419,5,ISIP_5,118,1,48,64,2720265316
2419,5,ISIP_5,119,1,48,59,2720761120
2419,5,ISIP_5,120,1,48,63,2721299628
2419,5,ISIP_5,121,1,48,62,2721807548
2419,5,ISIP_5,122,1,48,69,2722317108
2419,5,ISIP_5,123,1,48,65,2722822108
2419,5,ISIP_5,124,1,48,62,2723321280
2419,5,ISIP_5,125,1,48,63,2723834212
2419,5,ISIP_5,126,1,48,55,2724350056
2419,5,ISIP_5,127,1,48,70,2724824840
2419,5,ISIP_5,128,1,48,60,2725307828
2419,5,ISIP_5,129,1,48,70,2725840576
2419,5,ISIP_5,130,1,48,58,2726320968
2419,5,ISIP_5,131,1,48,63,2726821112
2419,5,ISIP_5,132,1,48,67,2727314964
2419,5,ISIP_5,133,1,48,61,2727813980
2419,5,ISIP_5,134,1,48,65,2728328928
2419,5,ISIP_5,135,1,48,52,2728826596
2419,5,ISIP_5,136,1,48,63,2729338332
2419,5,ISIP_5,137,1,48,59,2729810048
2419,5,ISIP_5,138,1,48,69,2730334276
2419,5,ISIP_5,139,1,48,59,2730817504
2419,5,ISIP_5,140,1,48,60,2731322808
2419,5,ISIP_5,141,1,48,62,2731802832
2419,5,ISIP_5,142,1,48,71,2732307684
2419,5,ISIP_5,143,1,48,60,2732782240
2419,5,ISIP_5,144,1,48,58,2733279464
2419,5,ISIP_5,145,1,48,49,2733772024
2419,5,ISIP_5,146,1,48,73,2734271864
2419,5,ISIP_5,147,1,48,62,2734759804
2419,5,ISIP_5,148,1,48,72,2735292256
2419,5,ISIP_5,149,1,48,63,2735771604
2419,5,ISIP_5,150,1,48,60,2736270700
2419,5,ISIP_5,151,1,48,63,2736755804
2419,5,ISIP_5,152,1,48,62,2737255044
2419,5,ISIP_5,153,1,48,56,2737734612
2419,5,ISIP_5,154,1,48,59,2738224212
2419,5,ISIP_5,155,1,48,70,2738708100
2419,5,ISIP_5,156,1,48,60,2739205772
2419,5,ISIP_5,157,1,48,70,2739678688
2419,5,ISIP_5,158,1,48,64,2740157332
2419,5,ISIP_5,159,1,48,64,2740633092
2419,5,ISIP_5,160,1,48,61,2741132780
2419,5,ISIP_5,161,1,48,66,2741600312
2419,5,ISIP_5,162,1,48,53,2742074496
2419,5,ISIP_5,163,1,48,63,2742579572
2419,5,ISIP_5,164,1,48,65,2743063176
2419,5,ISIP_5,165,1,48,61,2743559876
2419,5,ISIP_5,166,1,48,70,2744041844
2419,5,ISIP_5,167,1,48,50,2744541156
2419,5,ISIP_5,168,1,48,64,2745031100
2419,5,ISIP_5,169,1,48,54,2745516876
2419,5,ISIP_5,170,1,48,57,2746002280
2419,5,ISIP_5,171,1,48,68,2746501452
2419,5,ISIP_5,172,1,48,57,2746965908
2419,5,ISIP_5,173,1,48,60,2747462532
2419,5,ISIP_5,174,1,48,60,2747938068
2419,5,ISIP_5,175,1,48,67,2748425344
2419,5,ISIP_5,176,1,48,70,2748899900
2419,5,ISIP_5,177,1,48,59,2749364412
2419,5,ISIP_5,178,1,48,59,2749920220
2419,5,ISIP_5,179,1,48,63,2750404404
2419,5,ISIP_5,180,1,48,66,2750903724
2419,5,ISIP_5,181,1,48,64,2751382844
2419,5,ISIP_5,182,1,48,69,2751883656
2419,5,ISIP_5,183,1,48,57,2752397180
2419,5,ISIP_5,184,1,48,64,2752896500
2419,5,ISIP_5,185,1,48,59,2753397912
2419,5,ISIP_5,186,1,48,64,2753872540
2419,5,ISIP_5,187,1,48,65,2754388540
2419,5,ISIP_5,188,1,48,63,2754894736
2419,5,ISIP_5,189,1,48,68,2755397268
2419,5,ISIP_5,190,1,48,59,2755879532
2419,5,ISIP_5,191,1,48,67,2756406000
2419,5,ISIP_5,192,1,48,64,2756925436
2419,5,ISIP_5,193,1,48,68,2757420640
2419,5,ISIP_5,194,1,48,62,2757894000
2419,5,ISIP_5,195,1,48,62,2758402592
2419,5,ISIP_5,196,1,48,71,2758914404
2419,5,ISIP_5,197,1,48,66,2759385668
2419,5,ISIP_5,198,1,48,67,2759893288
2419,5,ISIP_5,199,1,48,64,2760373656
2419,5,ISIP_5,200,1,48,61,2760882768
2419,5,ISIP_5,0,9999,9999,9999,2681223228
2419,5,ISIP_5,1,9999,9999,9999,2681723992
2419,5,ISIP_5,2,9999,9999,9999,2682223668
2419,5,ISIP_5,3,9999,9999,9999,2682723436
2419,5,ISIP_5,4,9999,9999,9999,2683223128
2419,5,ISIP_5,5,9999,9999,9999,2683723872
2419,5,ISIP_5,6,9999,9999,9999,2684223564
2419,5,ISIP_5,7,9999,9999,9999,2684723260
2419,5,ISIP_5,8,9999,9999,9999,2685224004
2419,5,ISIP_5,9,9999,9999,9999,2685723700
2419,5,ISIP_5,10,9999,9999,9999,2686223468
2419,5,ISIP_5,11,9999,9999,9999,2686723164
2419,5,ISIP_5,12,9999,9999,9999,2687223896
2419,5,ISIP_5,13,9999,9999,9999,2687723632
2419,5,ISIP_5,14,9999,9999,9999,2688223288
2419,5,ISIP_5,15,9999,9999,9999,2688724076
2419,5,ISIP_5,16,9999,9999,9999,2689223772
2419,5,ISIP_5,17,9999,9999,9999,2689723468
2419,5,ISIP_5,18,9999,9999,9999,2690223172
2419,5,ISIP_5,19,9999,9999,9999,2690723904
2419,5,ISIP_5,20,9999,9999,9999,2691223604
2419,5,ISIP_5,21,9999,9999,9999,2691723368
2419,5,ISIP_5,22,9999,9999,9999,2692224108
2419,5,ISIP_5,23,9999,9999,9999,2692723812
2419,5,ISIP_5,24,9999,9999,9999,2693223508
2419,5,ISIP_5,25,9999,9999,9999,2693723192
2419,5,ISIP_5,26,9999,9999,9999,2694223936
2419,5,ISIP_5,27,9999,9999,9999,2694723704
2419,5,ISIP_5,28,9999,9999,9999,2695223400
2419,5,ISIP_5,29,9999,9999,9999,2695723092
2419,5,ISIP_5,30,9999,9999,9999,2696223832
2419,5,ISIP_5,31,9999,9999,9999,2696723528
2419,5,ISIP_5,32,9999,9999,9999,2697223224
2419,5,ISIP_5,33,9999,9999,9999,2697723968
2419,5,ISIP_5,34,9999,9999,9999,2698223736
2419,5,ISIP_5,35,9999,9999,9999,2698723432
2419,5,ISIP_5,36,9999,9999,9999,2699223128
2419,5,ISIP_5,37,9999,9999,9999,2699723844
2419,5,ISIP_5,38,9999,9999,9999,2700223540
2419,5,ISIP_5,39,9999,9999,9999,2700723308
2419,5,ISIP_5,40,9999,9999,9999,2701224048
2419,5,ISIP_5,41,9999,9999,9999,2701723740
2419,5,ISIP_5,42,9999,9999,9999,2702223432
2419,5,ISIP_5,43,9999,9999,9999,2702723192
2419,5,ISIP_5,44,9999,9999,9999,2703223856
2419,5,ISIP_5,45,9999,9999,9999,2703723624
2419,5,ISIP_5,46,9999,9999,9999,2704223320
2419,5,ISIP_5,47,9999,9999,9999,2704724060
2419,5,ISIP_5,48,9999,9999,9999,2705223752
2419,5,ISIP_5,49,9999,9999,9999,2705723440
2419,5,ISIP_5,50,9999,9999,9999,2706223208
2419,5,ISIP_5,51,9999,9999,9999,2706723944
2419,5,ISIP_5,52,9999,9999,9999,2707223636
2419,5,ISIP_5,53,9999,9999,9999,2707723324
2419,5,ISIP_5,54,9999,9999,9999,2708224064
2419,5,ISIP_5,55,9999,9999,9999,2708723828
2419,5,ISIP_5,56,9999,9999,9999,2709223520
2419,5,ISIP_5,57,9999,9999,9999,2709723208
2419,5,ISIP_5,58,9999,9999,9999,2710223920
2419,5,ISIP_5,59,9999,9999,9999,2710723688
2419,5,ISIP_5,60,9999,9999,9999,2711223376
2419,5,ISIP_5,61,9999,9999,9999,2711723068
2419,5,ISIP_5,62,9999,9999,9999,2712223804
2419,5,ISIP_5,63,9999,9999,9999,2712723568
2419,5,ISIP_5,64,9999,9999,9999,2713223260
2419,5,ISIP_5,65,9999,9999,9999,2713723996
2419,5,ISIP_5,66,9999,9999,9999,2714223688
2419,5,ISIP_5,67,9999,9999,9999,2714723376
2419,5,ISIP_5,68,9999,9999,9999,2715223140
2419,5,ISIP_5,69,9999,9999,9999,2715723880
2419,5,ISIP_5,70,9999,9999,9999,2716223568
2419,5,ISIP_5,71,9999,9999,9999,2716723260
2419,5,ISIP_5,72,9999,9999,9999,2717223996
2419,5,ISIP_5,73,9999,9999,9999,2717723764
2419,5,ISIP_5,74,9999,9999,9999,2718223452
2419,5,ISIP_5,75,9999,9999,9999,2718723144
2419,5,ISIP_5,76,9999,9999,9999,2719223880
2419,5,ISIP_5,77,9999,9999,9999,2719723572
2419,5,ISIP_5,78,9999,9999,9999,2720223336
2419,5,ISIP_5,79,9999,9999,9999,2720724076
2419,5,ISIP_5,80,9999,9999,9999,2721223740
2419,5,ISIP_5,81,9999,9999,9999,2721723508
2419,5,ISIP_5,82,9999,9999,9999,2722223200
2419,5,ISIP_5,83,9999,9999,9999,2722723936
2419,5,ISIP_5,84,9999,9999,9999,2723223628
2419,5,ISIP_5,85,9999,9999,9999,2723723320
2419,5,ISIP_5,86,9999,9999,9999,2724224056
2419,5,ISIP_5,87,9999,9999,9999,2724723824
2419,5,ISIP_5,88,9999,9999,9999,2725223512
2419,5,ISIP_5,89,9999,9999,9999,2725723204
2419,5,ISIP_5,90,9999,9999,9999,2726223940
2419,5,ISIP_5,91,9999,9999,9999,2726723704
2419,5,ISIP_5,92,9999,9999,9999,2727223396
2419,5,ISIP_5,93,9999,9999,9999,2727723084
2419,5,ISIP_5,94,9999,9999,9999,2728223820
2419,5,ISIP_5,95,9999,9999,9999,2728723512
2419,5,ISIP_5,96,9999,9999,9999,2729223276
2419,5,ISIP_5,97,9999,9999,9999,2729724016
2419,5,ISIP_5,98,9999,9999,9999,2730223708
2419,5,ISIP_5,99,9999,9999,9999,2730723396
2419,5,ISIP_5,100,9999,9999,9999,2731223164
2419,5,ISIP_5,101,9999,9999,9999,2731723876
2419,5,ISIP_5,102,9999,9999,9999,2732223568
2419,5,ISIP_5,103,9999,9999,9999,2732723260
2419,5,ISIP_5,104,9999,9999,9999,2733223996
2419,5,ISIP_5,105,9999,9999,9999,2733723760
2419,5,ISIP_5,106,9999,9999,9999,2734223452
2419,5,ISIP_5,107,9999,9999,9999,2734723140
2419,5,ISIP_5,108,9999,9999,9999,2735223880
2419,5,ISIP_5,109,9999,9999,9999,2735723568
2419,5,ISIP_5,110,9999,9999,9999,2736223332
2419,5,ISIP_5,111,9999,9999,9999,2736724072
2419,5,ISIP_5,112,9999,9999,9999,2737223764
2419,5,ISIP_5,113,9999,9999,9999,2737723452
2419,5,ISIP_5,114,9999,9999,9999,2738223220
2419,5,ISIP_5,115,9999,9999,9999,2738723952
2419,5,ISIP_5,116,9999,9999,9999,2739223644
2419,5,ISIP_5,117,9999,9999,9999,2739723336
2419,5,ISIP_5,118,9999,9999,9999,2740224072
2419,5,ISIP_5,119,9999,9999,9999,2740723764
2419,5,ISIP_5,120,9999,9999,9999,2741223528
2419,5,ISIP_5,121,9999,9999,9999,2741723204
2419,5,ISIP_5,122,9999,9999,9999,2742223996
2419,5,ISIP_5,123,9999,9999,9999,2742723680
2419,5,ISIP_5,124,9999,9999,9999,2743223372
2419,5,ISIP_5,125,9999,9999,9999,2743723064
2419,5,ISIP_5,126,9999,9999,9999,2744223800
2419,5,ISIP_5,127,9999,9999,9999,2744723568
2419,5,ISIP_5,128,9999,9999,9999,2745223260
2419,5,ISIP_5,129,9999,9999,9999,2745723996
2419,5,ISIP_5,130,9999,9999,9999,2746223684
2419,5,ISIP_5,131,9999,9999,9999,2746723448
2419,5,ISIP_5,132,9999,9999,9999,2747223144
2419,5,ISIP_5,133,9999,9999,9999,2747723880
2419,5,ISIP_5,134,9999,9999,9999,2748223568
2419,5,ISIP_5,135,9999,9999,9999,2748723264
2419,5,ISIP_5,136,9999,9999,9999,2749224000
2419,5,ISIP_5,137,9999,9999,9999,2749723764
2419,5,ISIP_5,138,9999,9999,9999,2750223456
2419,5,ISIP_5,139,9999,9999,9999,2750723144
2419,5,ISIP_5,140,9999,9999,9999,2751223880
2419,5,ISIP_5,141,9999,9999,9999,2751723572
2419,5,ISIP_5,142,9999,9999,9999,2752223336
2419,5,ISIP_5,143,9999,9999,9999,2752724072
2419,5,ISIP_5,144,9999,9999,9999,2753223740
2419,5,ISIP_5,145,9999,9999,9999,2753723504
2419,5,ISIP_5,146,9999,9999,9999,2754223196
2419,5,ISIP_5,147,9999,9999,9999,2754723932
2419,5,ISIP_5,148,9999,9999,9999,2755223624
2419,5,ISIP_5,149,9999,9999,9999,2755723316
2419,5,ISIP_5,150,9999,9999,9999,2756224052
2419,5,ISIP_5,151,9999,9999,9999,2756723816
2419,5,ISIP_5,152,9999,9999,9999,2757223508
2419,5,ISIP_5,153,9999,9999,9999,2757723200
2419,5,ISIP_5,154,9999,9999,9999,2758223936
2419,5,ISIP_5,155,9999,9999,9999,2758723700
2419,5,ISIP_5,156,9999,9999,9999,2759223392
2419,5,ISIP_5,157,9999,9999,9999,2759723084
2419,5,ISIP_5,158,9999,9999,9999,2760223820
2419,5,ISIP_5,159,9999,9999,9999,2760723512
2420,3,ISIP_8,0,5,42,127,2810045788
2420,3,ISIP_8,1,1,48,49,2810597320
2420,3,ISIP_8,2,5,42,127,2810845396
2420,3,ISIP_8,3,1,48,57,2811546876
2420,3,ISIP_8,4,5,42,127,2811646324
2420,3,ISIP_8,5,1,48,63,2812408868
2420,3,ISIP_8,6,5,42,127,2812446000
2420,3,ISIP_8,7,1,48,66,2813211588
2420,3,ISIP_8,8,5,42,127,2813245956
2420,3,ISIP_8,9,1,48,70,2814024792
2420,3,ISIP_8,10,5,42,127,2814045468
2420,3,ISIP_8,11,1,48,55,2814785780
2420,3,ISIP_8,12,5,42,127,2814846324
2420,3,ISIP_8,13,1,48,65,2815612884
2420,3,ISIP_8,14,5,42,127,2815646056
2420,3,ISIP_8,15,1,48,65,2816423616
2420,3,ISIP_8,16,5,42,127,2816446088
2420,3,ISIP_8,17,1,48,64,2817236764
2420,3,ISIP_8,18,5,42,127,2817245476
2420,3,ISIP_8,19,1,48,65,2818020940
2420,3,ISIP_8,20,5,42,127,2818046256
2420,3,ISIP_8,21,1,48,61,2818837732
2420,3,ISIP_8,22,5,42,127,2818846068
2420,3,ISIP_8,23,1,48,61,2819630432
2420,3,ISIP_8,24,5,42,127,2819645800
2420,3,ISIP_8,25,1,48,62,2820395980
2420,3,ISIP_8,26,5,42,127,2820445756
2420,3,ISIP_8,27,1,48,68,2821182024
2420,3,ISIP_8,28,5,42,127,2821246236
2420,3,ISIP_8,29,1,48,60,2821939196
2420,3,ISIP_8,30,5,42,127,2822045956
2420,3,ISIP_8,31,1,48,67,2822753524
2420,3,ISIP_8,32,5,42,127,2822845704
2420,3,ISIP_8,33,1,48,70,2823597004
2420,3,ISIP_8,34,5,42,127,2823645684
2420,3,ISIP_8,35,1,48,60,2824362112
2420,3,ISIP_8,36,5,42,127,2824446540
2420,3,ISIP_8,37,1,48,59,2825151444
2420,3,ISIP_8,38,5,42,127,2825246184
2420,3,ISIP_8,39,1,48,63,2825998252
2420,3,ISIP_8,40,5,42,127,2826045784
2420,3,ISIP_8,41,1,48,62,2826814144
2420,3,ISIP_8,42,5,42,127,2826845516
2420,3,ISIP_8,43,1,48,59,2827561072
2420,3,ISIP_8,44,5,42,127,2827646372
2420,3,ISIP_8,45,1,48,21,2827677752
2420,3,ISIP_8,46,1,48,62,2828370132
2420,3,ISIP_8,47,5,42,127,2828446156
2420,3,ISIP_8,48,1,48,62,2829207860
2420,3,ISIP_8,49,5,42,127,2829245740
2420,3,ISIP_8,50,1,48,65,2830011328
2420,3,ISIP_8,51,5,42,127,2830045572
2420,3,ISIP_8,52,1,48,62,2830812216
2420,3,ISIP_8,53,5,42,127,2830846280
2420,3,ISIP_8,54,1,48,59,2831602748
2420,3,ISIP_8,55,5,42,127,2831646236
2420,3,ISIP_8,56,1,48,66,2832412204
2420,3,ISIP_8,57,5,42,127,2832445820
2420,3,ISIP_8,58,1,48,70,2833205876
2420,3,ISIP_8,59,5,42,127,2833245556
2420,3,ISIP_8,60,1,48,61,2833996112
2420,3,ISIP_8,61,1,48,63,2834805792
2420,3,ISIP_8,62,1,48,65,2835578516
2420,3,ISIP_8,63,1,48,64,2836353416
2420,3,ISIP_8,64,1,48,64,2837148132
2420,3,ISIP_8,65,1,48,64,2837925568
2420,3,ISIP_8,66,1,48,59,2838729136
2420,3,ISIP_8,67,1,48,55,2839518092
2420,3,ISIP_8,68,1,48,63,2840297176
2420,3,ISIP_8,69,1,48,59,2841079704
2420,3,ISIP_8,70,1,48,54,2841867092
2420,3,ISIP_8,71,1,48,57,2842639220
2420,3,ISIP_8,72,1,48,64,2843397220
2420,3,ISIP_8,73,1,48,63,2844156848
2420,3,ISIP_8,74,1,48,65,2844964656
2420,3,ISIP_8,75,1,48,67,2845718236
2420,3,ISIP_8,76,1,48,66,2846451172
2420,3,ISIP_8,77,1,48,65,2847198620
2420,3,ISIP_8,78,1,48,60,2847974416
2420,3,ISIP_8,79,1,48,64,2848751104
2420,3,ISIP_8,80,1,48,61,2849547616
2420,3,ISIP_8,81,1,48,66,2850316604
2420,3,ISIP_8,82,1,48,62,2851040268
2420,3,ISIP_8,83,1,48,50,2851731812
2420,3,ISIP_8,84,1,48,60,2852492420
2420,3,ISIP_8,85,1,48,65,2853262380
2420,3,ISIP_8,86,1,48,69,2854037480
2420,3,ISIP_8,87,1,48,65,2854782908
2420,3,ISIP_8,88,1,48,65,2855532148
2420,3,ISIP_8,89,1,48,66,2856269200
2420,3,ISIP_8,90,1,48,59,2857025320
2420,3,ISIP_8,91,1,48,62,2857767084
2420,3,ISIP_8,92,1,48,64,2858516172
2420,3,ISIP_8,93,1,48,64,2859233100
2420,3,ISIP_8,94,1,48,58,2859987132
2420,3,ISIP_8,95,1,48,59,2860755592
2420,3,ISIP_8,96,1,48,67,2861542084
2420,3,ISIP_8,97,1,48,67,2862284740
2420,3,ISIP_8,98,1,48,62,2863047296
2420,3,ISIP_8,99,1,48,64,2863804068
2420,3,ISIP_8,100,1,48,59,2864545524
2420,3,ISIP_8,101,1,48,59,2865311520
2420,3,ISIP_8,102,1,48,64,2866051412
2420,3,ISIP_8,103,1,48,58,2866794584
2420,3,ISIP_8,104,1,48,55,2867553620
2420,3,ISIP_8,105,1,48,69,2868284760
2420,3,ISIP_8,106,1,48,70,2869023300
2420,3,ISIP_8,107,1,48,63,2869771648
2420,3,ISIP_8,108,1,48,75,2870529192
2420,3,ISIP_8,109,1,48,64,2871238164
2420,3,ISIP_8,110,1,48,66,2872080528
2420,3,ISIP_8,111,1,48,67,2872817424
2420,3,ISIP_8,112,1,48,69,2873561356
2420,3,ISIP_8,113,1,48,59,2874267716
2420,3,ISIP_8,114,1,48,67,2874995860
2420,3,ISIP_8,115,1,48,63,2875711064
2420,3,ISIP_8,116,1,48,67,2876487836
2420,3,ISIP_8,117,1,48,67,2877205944
2420,3,ISIP_8,118,1,48,62,2877970820
2420,3,ISIP_8,119,1,48,69,2878696048
2420,3,ISIP_8,120,1,48,66,2879417964
2420,3,ISIP_8,121,1,48,61,2880185532
2420,3,ISIP_8,122,1,48,63,2880956984
2420,3,ISIP_8,123,1,48,63,2881676976
2420,3,ISIP_8,124,1,48,66,2882458684
2420,3,ISIP_8,125,1,48,60,2883188024
2420,3,ISIP_8,126,1,48,58,2883911764
2420,3,ISIP_8,127,1,48,67,2884653668
2420,3,ISIP_8,128,1,48,60,2885376136
2420,3,ISIP_8,129,1,48,63,2886139508
2420,3,ISIP_8,130,1,48,70,2886909396
2420,3,ISIP_8,131,1,48,61,2887655340
2420,3,ISIP_8,132,1,48,69,2888416688
2420,3,ISIP_8,133,1,48,65,2889177820
2420,3,ISIP_8,134,1,48,56,2889939552
2420,3,ISIP_8,135,1,48,67,2890670296
2420,3,ISIP_8,136,1,48,64,2891416392
2420,3,ISIP_8,137,1,48,66,2892160920
2420,3,ISIP_8,138,1,48,63,2892863716
2420,3,ISIP_8,139,1,48,61,2893625292
2420,3,ISIP_8,140,1,48,63,2894324948
2420,3,ISIP_8,141,1,48,50,2895082488
2420,3,ISIP_8,142,1,48,54,2895849156
2420,3,ISIP_8,143,1,48,64,2896575564
2420,3,ISIP_8,144,1,48,58,2897287924
2420,3,ISIP_8,145,1,48,64,2898036628
2420,3,ISIP_8,146,1,48,57,2898767996
2420,3,ISIP_8,147,1,48,60,2899528600
2420,3,ISIP_8,148,1,48,64,2900258692
2420,3,ISIP_8,149,1,48,65,2901064784
2420,3,ISIP_8,150,1,48,64,2901783132
2420,3,ISIP_8,151,1,48,67,2902507616
2420,3,ISIP_8,152,1,48,62,2903252740
2420,3,ISIP_8,153,1,48,63,2904004520
2420,3,ISIP_8,154,1,48,59,2904768628
2420,3,ISIP_8,155,1,48,70,2905501632
2420,3,ISIP_8,156,1,48,69,2906233596
2420,3,ISIP_8,157,1,48,66,2906949852
2420,3,ISIP_8,158,1,48,63,2907690636
2420,3,ISIP_8,159,1,48,66,2908407932
2420,3,ISIP_8,160,1,48,63,2909123736
2420,3,ISIP_8,161,1,48,63,2909867716
2420,3,ISIP_8,162,1,48,70,2910604912
2420,3,ISIP_8,163,1,48,67,2911330216
2420,3,ISIP_8,164,1,48,57,2912053280
2420,3,ISIP_8,165,1,48,63,2912821216
2420,3,ISIP_8,166,1,48,69,2913510844
2420,3,ISIP_8,167,1,48,67,2914222512
2420,3,ISIP_8,168,1,48,66,2914945424
2420,3,ISIP_8,169,1,48,65,2915679704
2420,3,ISIP_8,170,1,48,61,2916365652
2420,3,ISIP_8,171,1,48,68,2917081828
2420,3,ISIP_8,172,1,48,70,2917791700
2420,3,ISIP_8,173,1,48,67,2918511700
2420,3,ISIP_8,174,1,48,67,2919208576
2420,3,ISIP_8,175,1,48,68,2919928348
2420,3,ISIP_8,176,1,48,66,2920669956
2420,3,ISIP_8,177,1,48,64,2921409224
2420,3,ISIP_8,178,1,48,61,2922120092
2420,3,ISIP_8,179,1,48,62,2922812176
2420,3,ISIP_8,180,1,48,64,2923514592
2420,3,ISIP_8,181,1,48,60,2924232644
2420,3,ISIP_8,182,1,48,59,2924949024
2420,3,ISIP_8,183,1,48,74,2925651368
2420,3,ISIP_8,184,1,48,63,2926388188
2420,3,ISIP_8,185,1,48,62,2927074452
2420,3,ISIP_8,186,1,48,66,2927760988
2420,3,ISIP_8,187,1,48,61,2928530196
2420,3,ISIP_8,188,1,48,59,2929203508
2420,3,ISIP_8,189,1,48,67,2929861944
2420,3,ISIP_8,0,9999,9999,9999,2810043500
2420,3,ISIP_8,1,9999,9999,9999,2810843184
2420,3,ISIP_8,2,9999,9999,9999,2811643976
2420,3,ISIP_8,3,9999,9999,9999,2812443712
2420,3,ISIP_8,4,9999,9999,9999,2813243448
2420,3,ISIP_8,5,9999,9999,9999,2814043252
2420,3,ISIP_8,6,9999,9999,9999,2814843960
2420,3,ISIP_8,7,9999,9999,9999,2815643696
2420,3,ISIP_8,8,9999,9999,9999,2816443504
2420,3,ISIP_8,9,9999,9999,9999,2817243188
2420,3,ISIP_8,10,9999,9999,9999,2818043968
2420,3,ISIP_8,11,9999,9999,9999,2818843704
2420,3,ISIP_8,12,9999,9999,9999,2819643512
2420,3,ISIP_8,13,9999,9999,9999,2820443244
2420,3,ISIP_8,14,9999,9999,9999,2821244024
2420,3,ISIP_8,15,9999,9999,9999,2822043740
2420,3,ISIP_8,16,9999,9999,9999,2822843492
2420,3,ISIP_8,17,9999,9999,9999,2823643248
2420,3,ISIP_8,18,9999,9999,9999,2824443952
2420,3,ISIP_8,19,9999,9999,9999,2825243760
2420,3,ISIP_8,20,9999,9999,9999,2826043496
2420,3,ISIP_8,21,9999,9999,9999,2826843228
2420,3,ISIP_8,22,9999,9999,9999,2827644008
2420,3,ISIP_8,23,9999,9999,9999,2828443720
2420,3,ISIP_8,24,9999,9999,9999,2829243456
2420,3,ISIP_8,25,9999,9999,9999,2830043212
2420,3,ISIP_8,26,9999,9999,9999,2830843992
2420,3,ISIP_8,27,9999,9999,9999,2831643724
2420,3,ISIP_8,28,9999,9999,9999,2832443460
2420,3,ISIP_8,29,9999,9999,9999,2833243192
2420,3,ISIP_8,30,9999,9999,9999,2834043972
2420,3,ISIP_8,31,9999,9999,9999,2834843704
2420,3,ISIP_8,32,9999,9999,9999,2835643504
2420,3,ISIP_8,33,9999,9999,9999,2836443184
2420,3,ISIP_8,34,9999,9999,9999,2837244020
2420,3,ISIP_8,35,9999,9999,9999,2838043748
2420,3,ISIP_8,36,9999,9999,9999,2838843476
2420,3,ISIP_8,37,9999,9999,9999,2839643204
2420,3,ISIP_8,38,9999,9999,9999,2840443984
2420,3,ISIP_8,39,9999,9999,9999,2841243712
2420,3,ISIP_8,40,9999,9999,9999,2842043440
2420,3,ISIP_8,41,9999,9999,9999,2842843196
2420,3,ISIP_8,42,9999,9999,9999,2843643972
2420,3,ISIP_8,43,9999,9999,9999,2844443700
2420,3,ISIP_8,44,9999,9999,9999,2845243504
2420,3,ISIP_8,45,9999,9999,9999,2846043232
2420,3,ISIP_8,46,9999,9999,9999,2846844012
2420,3,ISIP_8,47,9999,9999,9999,2847643740
2420,3,ISIP_8,48,9999,9999,9999,2848443468
2420,3,ISIP_8,49,9999,9999,9999,2849243224
2420,3,ISIP_8,50,9999,9999,9999,2850043996
2420,3,ISIP_8,51,9999,9999,9999,2850843728
2420,3,ISIP_8,52,9999,9999,9999,2851643456
2420,3,ISIP_8,53,9999,9999,9999,2852443184
2420,3,ISIP_8,54,9999,9999,9999,2853243960
2420,3,ISIP_8,55,9999,9999,9999,2854043756
2420,3,ISIP_8,56,9999,9999,9999,2854843488
2420,3,ISIP_8,57,9999,9999,9999,2855643224
2420,3,ISIP_8,58,9999,9999,9999,2856444000
2420,3,ISIP_8,59,9999,9999,9999,2857243732
2420,3,ISIP_8,60,9999,9999,9999,2858043460
2420,3,ISIP_8,61,9999,9999,9999,2858843188
2420,3,ISIP_8,62,9999,9999,9999,2859643964
2420,3,ISIP_8,63,9999,9999,9999,2860443768
2420,3,ISIP_8,64,9999,9999,9999,2861243500
2420,3,ISIP_8,65,9999,9999,9999,2862043252
2420,3,ISIP_8,66,9999,9999,9999,2862843956
2420,3,ISIP_8,67,9999,9999,9999,2863643756
2420,3,ISIP_8,68,9999,9999,9999,2864443488
2420,3,ISIP_8,69,9999,9999,9999,2865243216
2420,3,ISIP_8,70,9999,9999,9999,2866043988
2420,3,ISIP_8,71,9999,9999,9999,2866843712
2420,3,ISIP_8,72,9999,9999,9999,2867643440
2420,3,ISIP_8,73,9999,9999,9999,2868443256
2420,3,ISIP_8,74,9999,9999,9999,2869243956
2420,3,ISIP_8,75,9999,9999,9999,2870043760
2420,3,ISIP_8,76,9999,9999,9999,2870843488
2420,3,ISIP_8,77,9999,9999,9999,2871643192
2420,3,ISIP_8,78,9999,9999,9999,2872443968
2420,3,ISIP_8,79,9999,9999,9999,2873243696
2420,3,ISIP_8,80,9999,9999,9999,2874043500
2420,3,ISIP_8,81,9999,9999,9999,2874843256
2420,3,ISIP_8,82,9999,9999,9999,2875643956
2420,3,ISIP_8,83,9999,9999,9999,2876443760
2420,3,ISIP_8,84,9999,9999,9999,2877243484
2420,3,ISIP_8,85,9999,9999,9999,2878043212
2420,3,ISIP_8,86,9999,9999,9999,2878843972
2420,3,ISIP_8,87,9999,9999,9999,2879643700
2420,3,ISIP_8,88,9999,9999,9999,2880443504
2420,3,ISIP_8,89,9999,9999,9999,2881243184
2420,3,ISIP_8,90,9999,9999,9999,2882043960
2420,3,ISIP_8,91,9999,9999,9999,2882843764
2420,3,ISIP_8,92,9999,9999,9999,2883643492
2420,3,ISIP_8,93,9999,9999,9999,2884443220
2420,3,ISIP_8,94,9999,9999,9999,2885243996
2420,3,ISIP_8,95,9999,9999,9999,2886043728
2420,3,ISIP_8,96,9999,9999,9999,2886843456
2420,3,ISIP_8,97,9999,9999,9999,2887643208
2420,3,ISIP_8,98,9999,9999,9999,2888443980
2420,3,ISIP_8,99,9999,9999,9999,2889243708
2420,3,ISIP_8,100,9999,9999,9999,2890043496
2420,3,ISIP_8,101,9999,9999,9999,2890843228
2420,3,ISIP_8,102,9999,9999,9999,2891644000
2420,3,ISIP_8,103,9999,9999,9999,2892443732
2420,3,ISIP_8,104,9999,9999,9999,2893243460
2420,3,ISIP_8,105,9999,9999,9999,2894043216
2420,3,ISIP_8,106,9999,9999,9999,2894843992
2420,3,ISIP_8,107,9999,9999,9999,2895643720
2420,3,ISIP_8,108,9999,9999,9999,2896443452
2420,3,ISIP_8,109,9999,9999,9999,2897243256
2420,3,ISIP_8,110,9999,9999,9999,2898044024
2420,3,ISIP_8,111,9999,9999,9999,2898843752
2420,3,ISIP_8,112,9999,9999,9999,2899643468
2420,3,ISIP_8,113,9999,9999,9999,2900443220
2420,3,ISIP_8,114,9999,9999,9999,2901243996
2420,3,ISIP_8,115,9999,9999,9999,2902043724
2420,3,ISIP_8,116,9999,9999,9999,2902843456
2420,3,ISIP_8,117,9999,9999,9999,2903643184
2420,3,ISIP_8,118,9999,9999,9999,2904443960
2420,3,ISIP_8,119,9999,9999,9999,2905243764
2420,3,ISIP_8,120,9999,9999,9999,2906043492
2420,3,ISIP_8,121,9999,9999,9999,2906843248
2420,3,ISIP_8,122,9999,9999,9999,2907644024
2420,3,ISIP_8,123,9999,9999,9999,2908443748
2420,3,ISIP_8,124,9999,9999,9999,2909243460
2420,3,ISIP_8,125,9999,9999,9999,2910043188
2420,3,ISIP_8,126,9999,9999,9999,2910843964
2420,3,ISIP_8,127,9999,9999,9999,2911643768
2420,3,ISIP_8,128,9999,9999,9999,2912443496
2420,3,ISIP_8,129,9999,9999,9999,2913243252
2420,3,ISIP_8,130,9999,9999,9999,2914043952
2420,3,ISIP_8,131,9999,9999,9999,2914843756
2420,3,ISIP_8,132,9999,9999,9999,2915643484
2420,3,ISIP_8,133,9999,9999,9999,2916443208
2420,3,ISIP_8,134,9999,9999,9999,2917243968
2420,3,ISIP_8,135,9999,9999,9999,2918043696
2420,3,ISIP_8,136,9999,9999,9999,2918843500
2420,3,ISIP_8,137,9999,9999,9999,2919643252
2420,3,ISIP_8,138,9999,9999,9999,2920443952
2420,3,ISIP_8,139,9999,9999,9999,2921243756
2420,3,ISIP_8,140,9999,9999,9999,2922043484
2420,3,ISIP_8,141,9999,9999,9999,2922843208
2420,3,ISIP_8,142,9999,9999,9999,2923643968
2420,3,ISIP_8,143,9999,9999,9999,2924443700
2420,3,ISIP_8,144,9999,9999,9999,2925243500
2420,3,ISIP_8,145,9999,9999,9999,2926043256
2420,3,ISIP_8,146,9999,9999,9999,2926843956
2420,3,ISIP_8,147,9999,9999,9999,2927643760
2420,3,ISIP_8,148,9999,9999,9999,2928443492
2420,3,ISIP_8,149,9999,9999,9999,2929243212
2421,11,Pattern_Practice,0,5,42,127,3034320164
2421,11,Pattern_Practice,1,5,42,127,3034819804
2421,11,Pattern_Practice,2,5,42,127,3035319796
2421,11,Pattern_Practice,3,5,42,127,3035820260
2421,11,Pattern_Practice,4,5,42,127,3036320048
2421,11,Pattern_Practice,5,5,42,127,3036819768
2421,11,Pattern_Practice,6,1,48,64,3037306952
2421,11,Pattern_Practice,7,5,42,127,3037319628
2421,11,Pattern_Practice,8,1,48,65,3037814876
2421,11,Pattern_Practice,9,5,42,127,3037820216
2421,11,Pattern_Practice,10,5,42,127,3038320068
2421,11,Pattern_Practice,11,1,38,49,3038339644
2421,11,Pattern_Practice,12,1,38,61,3038814488
2421,11,Pattern_Practice,13,5,42,127,3038819756
2421,11,Pattern_Practice,14,5,42,127,3039320508
2421,11,Pattern_Practice,15,1,48,64,3039364244
2421,11,Pattern_Practice,16,1,48,64,3039805952
2421,11,Pattern_Practice,17,5,42,127,3039820120
2421,11,Pattern_Practice,18,1,38,48,3040319524
2421,11,Pattern_Practice,19,5,42,127,3040321684
2421,11,Pattern_Practice,20,1,38,65,3040812964
2421,11,Pattern_Practice,21,5,42,127,3040819508
2421,11,Pattern_Practice,22,5,42,127,3041320556
2421,11,Pattern_Practice,23,1,48,67,3041361976
2421,11,Pattern_Practice,24,1,48,70,3041800160
2421,11,Pattern_Practice,25,5,42,127,3041819944
2421,11,Pattern_Practice,26,1,38,64,3042308240
2421,11,Pattern_Practice,27,5,42,127,3042319640
2421,11,Pattern_Practice,28,1,38,60,3042816828
2421,11,Pattern_Practice,29,5,42,127,3042819852
2421,11,Pattern_Practice,30,5,42,127,3043320380
2421,11,Pattern_Practice,31,1,48,61,3043349980
2421,11,Pattern_Practice,32,1,48,65,3043542660
2421,11,Pattern_Practice,33,1,48,67,3043785680
2421,11,Pattern_Practice,34,5,42,127,3043819900
2421,11,Pattern_Practice,35,1,38,34,3044099632
2421,11,Pattern_Practice,36,5,42,127,3044319504
2421,11,Pattern_Practice,37,1,38,59,3044584216
2421,11,Pattern_Practice,38,5,42,127,3044820320
2421,11,Pattern_Practice,39,1,38,57,3045103808
2421,11,Pattern_Practice,40,5,42,127,3045320164
2421,11,Pattern_Practice,41,1,48,62,3045625868
2421,11,Pattern_Practice,42,5,42,127,3045819712
2421,11,Pattern_Practice,43,1,48,67,3046163256
2421,11,Pattern_Practice,44,5,42,127,3046319380
2421,11,Pattern_Practice,45,1,48,63,3046631912
2421,11,Pattern_Practice,46,5,42,127,3046820196
2421,11,Pattern_Practice,47,1,38,53,3047096380
2421,11,Pattern_Practice,48,1,48,67,3047106756
2421,11,Pattern_Practice,49,5,42,127,3047319992
2421,11,Pattern_Practice,50,1,38,60,3047564136
2421,11,Pattern_Practice,51,1,48,62,3047571896
2421,11,Pattern_Practice,52,5,42,127,3047819716
2421,11,Pattern_Practice,53,1,48,67,3048050096
2421,11,Pattern_Practice,54,1,48,57,3048310316
2421,11,Pattern_Practice,55,5,42,127,3048320228
2421,11,Pattern_Practice,56,1,38,13,3048693932
2421,11,Pattern_Practice,57,1,38,22,3048698396
2421,11,Pattern_Practice,58,5,42,127,3048820032
2421,11,Pattern_Practice,59,1,38,60,3049147900
2421,11,Pattern_Practice,60,5,42,127,3049319728
2421,11,Pattern_Practice,61,1,38,66,3049618024
2421,11,Pattern_Practice,62,5,42,127,3049819424
2421,11,Pattern_Practice,63,1,38,58,3050103432
2421,11,Pattern_Practice,64,1,48,61,3050137672
2421,11,Pattern_Practice,65,5,42,127,3050320192
2421,11,Pattern_Practice,66,1,48,62,3050581460
2421,11,Pattern_Practice,67,5,42,127,3050820108
2421,11,Pattern_Practice,68,1,48,65,3051072104
2421,11,Pattern_Practice,69,5,42,127,3051319876
2421,11,Pattern_Practice,70,1,38,58,3051562376
2421,11,Pattern_Practice,71,5,42,127,3051820400
2421,11,Pattern_Practice,72,1,38,61,3052019436
2421,11,Pattern_Practice,73,5,42,127,3052320092
2421,11,Pattern_Practice,74,1,38,73,3052448424
2421,11,Pattern_Practice,75,5,42,127,3052820008
2421,11,Pattern_Practice,76,1,48,61,3052944224
2421,11,Pattern_Practice,77,5,42,127,3053319408
2421,11,Pattern_Practice,78,1,48,71,3053382960
2421,11,Pattern_Practice,79,5,42,127,3053820296
2421,11,Pattern_Practice,80,1,38,64,3053848924
2421,11,Pattern_Practice,81,1,38,71,3054317408
2421,11,Pattern_Practice,82,5,42,127,3054320284
2421,11,Pattern_Practice,83,1,48,61,3054812396
2421,11,Pattern_Practice,84,5,42,127,3054819980
2421,11,Pattern_Practice,85,1,48,72,3055264492
2421,11,Pattern_Practice,86,5,42,127,3055320428
2421,11,Pattern_Practice,87,1,38,61,3055749900
2421,11,Pattern_Practice,88,5,42,127,3055820120
2421,11,Pattern_Practice,89,1,38,68,3056240844
2421,11,Pattern_Practice,90,5,42,127,3056319812
2421,11,Pattern_Practice,91,1,48,78,3056773968
2421,11,Pattern_Practice,92,5,42,127,3056819928
2421,11,Pattern_Practice,93,1,48,71,3057218240
2421,11,Pattern_Practice,94,5,42,127,3057320432
2421,11,Pattern_Practice,95,1,48,73,3057722500
2421,11,Pattern_Practice,96,5,42,127,3057820068
2421,11,Pattern_Practice,97,1,48,78,3058208808
2421,11,Pattern_Practice,98,5,42,127,3058319824
2421,11,Pattern_Practice,99,1,38,54,3058713740
2421,11,Pattern_Practice,100,5,42,127,3058819520
2421,11,Pattern_Practice,101,1,38,63,3059208572
2421,11,Pattern_Practice,102,5,42,127,3059320112
2421,11,Pattern_Practice,103,1,38,63,3059706692
2421,11,Pattern_Practice,104,5,42,127,3059819808
2421,11,Pattern_Practice,105,1,38,67,3060202648
2421,11,Pattern_Practice,106,5,42,127,3060319576
2421,11,Pattern_Practice,107,1,48,68,3060741760
2421,11,Pattern_Practice,108,5,42,127,3060820408
2421,11,Pattern_Practice,109,1,48,76,3061246616
2421,11,Pattern_Practice,110,5,42,127,3061319952
2421,11,Pattern_Practice,111,1,38,64,3061734644
2421,11,Pattern_Practice,112,5,42,127,3061819796
2421,11,Pattern_Practice,113,1,38,68,3062220572
2421,11,Pattern_Practice,114,5,42,127,3062319552
2421,11,Pattern_Practice,115,1,48,67,3062762380
2421,11,Pattern_Practice,116,5,42,127,3062820236
2421,11,Pattern_Practice,117,1,48,72,3063237696
2421,11,Pattern_Practice,118,5,42,127,3063319928
2421,11,Pattern_Practice,119,1,38,64,3063743824
2421,11,Pattern_Practice,120,5,42,127,3063819548
2421,11,Pattern_Practice,121,1,38,84,3064218660
2421,11,Pattern_Practice,122,5,42,127,3064320500
2421,11,Pattern_Practice,123,1,48,75,3064745056
2421,11,Pattern_Practice,124,5,42,127,3064820280
2421,11,Pattern_Practice,125,1,48,72,3065220736
2421,11,Pattern_Practice,126,5,42,127,3065319884
2421,11,Pattern_Practice,127,1,48,59,3065697396
2421,11,Pattern_Practice,128,5,42,127,3065819504
2421,11,Pattern_Practice,129,1,48,65,3066178836
2421,11,Pattern_Practice,130,5,42,127,3066320620
2421,11,Pattern_Practice,131,1,38,68,3066713316
2421,11,Pattern_Practice,132,5,42,127,3066819944
2421,11,Pattern_Practice,133,1,38,76,3067219068
2421,11,Pattern_Practice,134,5,42,127,3067319564
2421,11,Pattern_Practice,135,1,38,70,3067689440
2421,11,Pattern_Practice,136,5,42,127,3067820428
2421,11,Pattern_Practice,137,1,38,67,3068165648
2421,11,Pattern_Practice,138,5,42,127,3068320196
2421,11,Pattern_Practice,139,1,48,68,3068691220
2421,11,Pattern_Practice,140,5,42,127,3068820188
2421,11,Pattern_Practice,141,1,38,63,3069149176
2421,11,Pattern_Practice,142,5,42,127,3069319512
2421,11,Pattern_Practice,143,1,48,70,3069682308
2421,11,Pattern_Practice,144,5,42,127,3069820252
2421,11,Pattern_Practice,145,1,38,59,3070152908
2421,11,Pattern_Practice,146,5,42,127,3070320096
2421,11,Pattern_Practice,147,1,48,58,3070656568
2421,11,Pattern_Practice,148,5,42,127,3070819644
2421,11,Pattern_Practice,149,1,48,67,3071135144
2421,11,Pattern_Practice,150,5,42,127,3071320384
2421,11,Pattern_Practice,151,1,38,84,3071610152
2421,11,Pattern_Practice,152,5,42,127,3071820080
2421,11,Pattern_Practice,153,1,38,79,3072070056
2421,11,Pattern_Practice,154,5,42,127,3072320072
2421,11,Pattern_Practice,155,1,48,68,3072584936
2421,11,Pattern_Practice,156,5,42,127,3072819544
2421,11,Pattern_Practice,157,1,38,60,3073062488
2421,11,Pattern_Practice,158,5,42,127,3073320360
2421,11,Pattern_Practice,159,1,48,70,3073563524
2421,11,Pattern_Practice,160,5,42,127,3073819980
2421,11,Pattern_Practice,161,1,38,79,3074014828
2421,11,Pattern_Practice,0,9999,9999,9999,3034317876
2421,11,Pattern_Practice,1,9999,9999,9999,3034817592
2421,11,Pattern_Practice,2,9999,9999,9999,3035317360
2421,11,Pattern_Practice,3,9999,9999,9999,3035818048
2421,11,Pattern_Practice,4,9999,9999,9999,3036317764
2421,11,Pattern_Practice,5,9999,9999,9999,3036817480
2421,11,Pattern_Practice,6,9999,9999,9999,3037317192
2421,11,Pattern_Practice,7,9999,9999,9999,3037817932
2421,11,Pattern_Practice,8,9999,9999,9999,3038317632
2421,11,Pattern_Practice,9,9999,9999,9999,3038817396
2421,11,Pattern_Practice,10,9999,9999,9999,3039318068
2421,11,Pattern_Practice,11,9999,9999,9999,3039817836
2421,11,Pattern_Practice,12,9999,9999,9999,3040317536
2421,11,Pattern_Practice,13,9999,9999,9999,3040817224
2421,11,Pattern_Practice,14,9999,9999,9999,3041317972
2421,11,Pattern_Practice,15,9999,9999,9999,3041817656
2421,11,Pattern_Practice,16,9999,9999,9999,3042317428
2421,11,Pattern_Practice,17,9999,9999,9999,3042817120
2421,11,Pattern_Practice,18,9999,9999,9999,3043317868
2421,11,Pattern_Practice,19,9999,9999,9999,3043817540
2421,11,Pattern_Practice,20,9999,9999,9999,3044317292
2421,11,Pattern_Practice,21,9999,9999,9999,3044818036
2421,11,Pattern_Practice,22,9999,9999,9999,3045317732
2421,11,Pattern_Practice,23,9999,9999,9999,3045817424
2421,11,Pattern_Practice,24,9999,9999,9999,3046317168
2421,11,Pattern_Practice,25,9999,9999,9999,3046817908
2421,11,Pattern_Practice,26,9999,9999,9999,3047317556
2421,11,Pattern_Practice,27,9999,9999,9999,3047817280
2421,11,Pattern_Practice,28,9999,9999,9999,3048318016
2421,11,Pattern_Practice,29,9999,9999,9999,3048817748
2421,11,Pattern_Practice,30,9999,9999,9999,3049317444
2421,11,Pattern_Practice,31,9999,9999,9999,3049817212
2421,11,Pattern_Practice,32,9999,9999,9999,3050317904
2421,11,Pattern_Practice,33,9999,9999,9999,3050817600
2421,11,Pattern_Practice,34,9999,9999,9999,3051317368
2421,11,Pattern_Practice,35,9999,9999,9999,3051818036
2421,11,Pattern_Practice,36,9999,9999,9999,3052317804
2421,11,Pattern_Practice,37,9999,9999,9999,3052817500
2421,11,Pattern_Practice,38,9999,9999,9999,3053317196
2421,11,Pattern_Practice,39,9999,9999,9999,3053817936
2421,11,Pattern_Practice,40,9999,9999,9999,3054317628
2421,11,Pattern_Practice,41,9999,9999,9999,3054817396
2421,11,Pattern_Practice,42,9999,9999,9999,3055318140
2421,11,Pattern_Practice,43,9999,9999,9999,3055817832
2421,11,Pattern_Practice,44,9999,9999,9999,3056317528
2421,11,Pattern_Practice,45,9999,9999,9999,3056817272
2421,11,Pattern_Practice,46,9999,9999,9999,3057318000
2421,11,Pattern_Practice,47,9999,9999,9999,3057817708
2421,11,Pattern_Practice,48,9999,9999,9999,3058317388
2421,11,Pattern_Practice,49,9999,9999,9999,3058817084
2421,11,Pattern_Practice,50,9999,9999,9999,3059317824
2421,11,Pattern_Practice,51,9999,9999,9999,3059817596
2421,11,Pattern_Practice,52,9999,9999,9999,3060317288
2421,11,Pattern_Practice,53,9999,9999,9999,3060817972
2421,11,Pattern_Practice,54,9999,9999,9999,3061317740
2421,11,Pattern_Practice,55,9999,9999,9999,3061817436
2421,11,Pattern_Practice,56,9999,9999,9999,3062317116
2421,11,Pattern_Practice,57,9999,9999,9999,3062817872
2421,11,Pattern_Practice,58,9999,9999,9999,3063317568
2421,11,Pattern_Practice,59,9999,9999,9999,3063817336
2421,11,Pattern_Practice,60,9999,9999,9999,3064318060
2421,11,Pattern_Practice,61,9999,9999,9999,3064817772
2421,11,Pattern_Practice,62,9999,9999,9999,3065317468
2421,11,Pattern_Practice,63,9999,9999,9999,3065817144
2421,11,Pattern_Practice,64,9999,9999,9999,3066317884
2421,11,Pattern_Practice,65,9999,9999,9999,3066817656
2421,11,Pattern_Practice,66,9999,9999,9999,3067317324
2421,11,Pattern_Practice,67,9999,9999,9999,3067818068
2421,11,Pattern_Practice,68,9999,9999,9999,3068317760
2421,11,Pattern_Practice,69,9999,9999,9999,3068817532
2421,11,Pattern_Practice,70,9999,9999,9999,3069317228
2421,11,Pattern_Practice,71,9999,9999,9999,3069817968
2421,11,Pattern_Practice,72,9999,9999,9999,3070317660
2421,11,Pattern_Practice,73,9999,9999,9999,3070817356
2421,11,Pattern_Practice,74,9999,9999,9999,3071318096
2421,11,Pattern_Practice,75,9999,9999,9999,3071817792
2421,11,Pattern_Practice,76,9999,9999,9999,3072317560
2421,11,Pattern_Practice,77,9999,9999,9999,3072817256
2421,11,Pattern_Practice,78,9999,9999,9999,3073318000
2421,11,Pattern_Practice,79,9999,9999,9999,3073817692
2422,13,Improv_Metronome,0,5,42,127,3107452488
2422,13,Improv_Metronome,1,5,42,127,3107951908
2422,13,Improv_Metronome,2,5,42,127,3108451624
2422,13,Improv_Metronome,3,1,48,56,3108532108
2422,13,Improv_Metronome,4,5,42,127,3108952368
2422,13,Improv_Metronome,5,1,48,65,3108981892
2422,13,Improv_Metronome,6,5,42,127,3109452136
2422,13,Improv_Metronome,7,1,38,69,3109511876
2422,13,Improv_Metronome,8,5,42,127,3109951904
2422,13,Improv_Metronome,9,1,38,78,3109978956
2422,13,Improv_Metronome,10,1,38,37,3110031220
2422,13,Improv_Metronome,11,5,42,127,3110451428
2422,13,Improv_Metronome,12,1,38,81,3110460304
2422,13,Improv_Metronome,13,5,42,127,3110952396
2422,13,Improv_Metronome,14,1,48,53,3110958360
2422,13,Improv_Metronome,15,1,38,61,3111448232
2422,13,Improv_Metronome,16,5,42,127,3111452156
2422,13,Improv_Metronome,17,5,42,127,3111951636
2422,13,Improv_Metronome,18,1,48,58,3111961188
2422,13,Improv_Metronome,19,1,48,68,3112433484
2422,13,Improv_Metronome,20,5,42,127,3112451472
2422,13,Improv_Metronome,21,1,48,59,3112871224
2422,13,Improv_Metronome,22,5,42,127,3112952140
2422,13,Improv_Metronome,23,1,38,53,3113394332
2422,13,Improv_Metronome,24,5,42,127,3113452032
2422,13,Improv_Metronome,25,1,38,70,3113890108
2422,13,Improv_Metronome,26,5,42,127,3113951652
2422,13,Improv_Metronome,27,1,38,72,3114382248
2422,13,Improv_Metronome,28,5,42,127,3114452392
2422,13,Improv_Metronome,29,1,48,64,3114898924
2422,13,Improv_Metronome,30,5,42,127,3114952012
2422,13,Improv_Metronome,31,1,48,56,3115381560
2422,13,Improv_Metronome,32,5,42,127,3115451708
2422,13,Improv_Metronome,33,1,38,61,3115856648
2422,13,Improv_Metronome,34,5,42,127,3115951512
2422,13,Improv_Metronome,35,1,38,75,3116356564
2422,13,Improv_Metronome,36,5,42,127,3116452328
2422,13,Improv_Metronome,37,1,48,69,3116919688
2422,13,Improv_Metronome,38,5,42,127,3116952112
2422,13,Improv_Metronome,39,1,48,72,3117408616
2422,13,Improv_Metronome,40,5,42,127,3117451584
2422,13,Improv_Metronome,41,1,48,72,3117914740
2422,13,Improv_Metronome,42,5,42,127,3117952472
2422,13,Improv_Metronome,43,1,38,62,3118408080
2422,13,Improv_Metronome,44,5,42,127,3118452020
2422,13,Improv_Metronome,45,1,38,61,3118883612
2422,13,Improv_Metronome,46,5,42,127,3118951860
2422,13,Improv_Metronome,47,1,48,64,3119397592
2422,13,Improv_Metronome,48,5,42,127,3119451480
2422,13,Improv_Metronome,49,1,38,73,3119917928
2422,13,Improv_Metronome,50,5,42,127,3119952148
2422,13,Improv_Metronome,51,5,42,127,3120451924
2422,13,Improv_Metronome,52,1,48,70,3120458860
2422,13,Improv_Metronome,53,1,38,75,3120926072
2422,13,Improv_Metronome,54,5,42,127,3120951688
2422,13,Improv_Metronome,55,1,48,72,3121437736
2422,13,Improv_Metronome,56,5,42,127,3121452800
2422,13,Improv_Metronome,57,1,48,62,3121928752
2422,13,Improv_Metronome,58,5,42,127,3121952048
2422,13,Improv_Metronome,59,1,38,67,3122430316
2422,13,Improv_Metronome,60,1,48,19,3122441816
2422,13,Improv_Metronome,61,5,42,127,3122451724
2422,13,Improv_Metronome,62,1,38,67,3122891148
2422,13,Improv_Metronome,63,5,42,127,3122951840
2422,13,Improv_Metronome,64,1,48,75,3123411636
2422,13,Improv_Metronome,65,5,42,127,3123452212
2422,13,Improv_Metronome,66,1,38,84,3123893228
2422,13,Improv_Metronome,67,5,42,127,3123951908
2422,13,Improv_Metronome,68,1,48,77,3124405792
2422,13,Improv_Metronome,69,5,42,127,3124451900
2422,13,Improv_Metronome,70,1,38,60,3124910176
2422,13,Improv_Metronome,71,5,42,127,3124952640
2422,13,Improv_Metronome,72,1,48,79,3125406880
2422,13,Improv_Metronome,73,5,42,127,3125452040
2422,13,Improv_Metronome,74,1,48,64,3125900812
2422,13,Improv_Metronome,75,5,42,127,3125951880
2422,13,Improv_Metronome,76,1,48,79,3126377696
2422,13,Improv_Metronome,77,5,42,127,3126451652
2422,13,Improv_Metronome,78,1,38,54,3126874544
2422,13,Improv_Metronome,79,5,42,127,3126952440
2422,13,Improv_Metronome,80,1,38,57,3127359052
2422,13,Improv_Metronome,81,5,42,127,3127451912
2422,13,Improv_Metronome,82,1,38,70,3127857256
2422,13,Improv_Metronome,83,5,42,127,3127951756
2422,13,Improv_Metronome,84,1,48,63,3128338996
2422,13,Improv_Metronome,85,5,42,127,3128451508
2422,13,Improv_Metronome,86,1,38,76,3128819392
2422,13,Improv_Metronome,87,5,42,127,3128952104
2422,13,Improv_Metronome,88,1,48,88,3129357612
2422,13,Improv_Metronome,89,5,42,127,3129451948
2422,13,Improv_Metronome,90,1,38,77,3129835460
2422,13,Improv_Metronome,91,5,42,127,3129951492
2422,13,Improv_Metronome,92,1,38,89,3130327380
2422,13,Improv_Metronome,93,5,42,127,3130452308
2422,13,Improv_Metronome,94,1,38,74,3130851232
2422,13,Improv_Metronome,95,5,42,127,3130952156
2422,13,Improv_Metronome,96,1,48,58,3131388028
2422,13,Improv_Metronome,97,5,42,127,3131451792
2422,13,Improv_Metronome,98,1,48,69,3131847628
2422,13,Improv_Metronome,99,5,42,127,3131951400
2422,13,Improv_Metronome,100,1,38,63,3132346432
2422,13,Improv_Metronome,101,5,42,127,3132452436
2422,13,Improv_Metronome,102,1,48,63,3132841168
2422,13,Improv_Metronome,103,5,42,127,3132951836
2422,13,Improv_Metronome,104,1,38,64,3133329188
2422,13,Improv_Metronome,105,5,42,127,3133451528
2422,13,Improv_Metronome,106,1,48,63,3133859928
2422,13,Improv_Metronome,107,5,42,127,3133952508
2422,13,Improv_Metronome,108,1,38,73,3134325964
2422,13,Improv_Metronome,109,5,42,127,3134452040
2422,13,Improv_Metronome,110,1,48,80,3134816312
2422,13,Improv_Metronome,111,5,42,127,3134951664
2422,13,Improv_Metronome,112,1,48,61,3135314208
2422,13,Improv_Metronome,113,5,42,127,3135451504
2422,13,Improv_Metronome,114,1,48,70,3135757656
2422,13,Improv_Metronome,115,5,42,127,3135952320
2422,13,Improv_Metronome,116,1,38,66,3136265576
2422,13,Improv_Metronome,117,5,42,127,3136452016
2422,13,Improv_Metronome,118,1,38,74,3136749188
2422,13,Improv_Metronome,119,5,42,127,3136951560
2422,13,Improv_Metronome,120,1,48,60,3137248512
2422,13,Improv_Metronome,121,5,42,127,3137452352
2422,13,Improv_Metronome,122,1,38,80,3137714020
2422,13,Improv_Metronome,123,5,42,127,3137952120
2422,13,Improv_Metronome,124,1,48,68,3138247076
2422,13,Improv_Metronome,125,5,42,127,3138452040
2422,13,Improv_Metronome,126,1,38,71,3138716976
2422,13,Improv_Metronome,127,5,42,127,3138951588
2422,13,Improv_Metronome,128,1,48,67,3139225048
2422,13,Improv_Metronome,129,5,42,127,3139452252
2422,13,Improv_Metronome,130,1,48,64,3139713968
2422,13,Improv_Metronome,131,5,42,127,3139952020
2422,13,Improv_Metronome,132,1,48,68,3140247996
2422,13,Improv_Metronome,133,5,42,127,3140451788
2422,13,Improv_Metronome,134,1,38,64,3140715532
2422,13,Improv_Metronome,135,5,42,127,3140952456
2422,13,Improv_Metronome,136,1,38,71,3141231156
2422,13,Improv_Metronome,137,5,42,127,3141452000
2422,13,Improv_Metronome,138,1,38,78,3141725540
2422,13,Improv_Metronome,139,5,42,127,3141951992
2422,13,Improv_Metronome,140,1,48,62,3142270484
2422,13,Improv_Metronome,141,5,42,127,3142451688
2422,13,Improv_Metronome,142,1,38,86,3142734276
2422,13,Improv_Metronome,143,5,42,127,3142952208
2422,13,Improv_Metronome,144,1,48,75,3143242124
2422,13,Improv_Metronome,145,5,42,127,3143452052
2422,13,Improv_Metronome,146,1,38,75,3143718632
2422,13,Improv_Metronome,147,5,42,127,3143951896
2422,13,Improv_Metronome,148,1,48,61,3144209948
2422,13,Improv_Metronome,149,5,42,127,3144451664
2422,13,Improv_Metronome,150,1,48,71,3144684960
2422,13,Improv_Metronome,151,5,42,127,3144952180
2422,13,Improv_Metronome,152,1,48,58,3145151744
2422,13,Improv_Metronome,153,5,42,127,3145451876
2422,13,Improv_Metronome,154,1,38,69,3145635628
2422,13,Improv_Metronome,155,5,42,127,3145951720
2422,13,Improv_Metronome,156,1,48,71,3146116700
2422,13,Improv_Metronome,157,5,42,127,3146452312
2422,13,Improv_Metronome,158,1,38,65,3146583336
2422,13,Improv_Metronome,159,5,42,127,3146952156
2422,13,Improv_Metronome,160,1,38,72,3147057600
2422,13,Improv_Metronome,161,1,48,74,3147066328
2422,13,Improv_Metronome,162,5,42,127,3147451732
2422,13,Improv_Metronome,163,1,38,78,3147522988
2422,13,Improv_Metronome,164,1,48,82,3147532992
2422,13,Improv_Metronome,165,5,42,127,3147951900
2422,13,Improv_Metronome,166,1,48,64,3147983368
2422,13,Improv_Metronome,167,5,42,127,3148452172
2422,13,Improv_Metronome,168,1,48,65,3148457904
2422,13,Improv_Metronome,169,1,38,86,3148903804
2422,13,Improv_Metronome,170,1,48,67,3148911336
2422,13,Improv_Metronome,171,5,42,127,3148951836
2422,13,Improv_Metronome,172,1,48,67,3149366948
2422,13,Improv_Metronome,173,1,38,81,3149371268
2422,13,Improv_Metronome,174,5,42,127,3149451636
2422,13,Improv_Metronome,175,1,38,95,3149868988
2422,13,Improv_Metronome,176,5,42,127,3149952644
2422,13,Improv_Metronome,177,1,38,60,3150334352
2422,13,Improv_Metronome,178,5,42,127,3150452176
2422,13,Improv_Metronome,179,1,48,93,3150847956
2422,13,Improv_Metronome,180,1,38,100,3150853996
2422,13,Improv_Metronome,181,5,42,127,3150951748
2422,13,Improv_Metronome,182,1,38,60,3151326812
2422,13,Improv_Metronome,183,1,48,70,3151344144
2422,13,Improv_Metronome,184,5,42,127,3151451396
2422,13,Improv_Metronome,185,1,48,76,3151828776
2422,13,Improv_Metronome,186,5,42,127,3151952360
2422,13,Improv_Metronome,187,1,48,66,3152298080
2422,13,Improv_Metronome,188,5,42,127,3152451908
2422,13,Improv_Metronome,189,1,38,69,3152780496
2422,13,Improv_Metronome,190,5,42,127,3152951600
2422,13,Improv_Metronome,191,1,38,79,3153297692
2422,13,Improv_Metronome,192,5,42,127,3153452416
2422,13,Improv_Metronome,193,1,38,65,3153798656
2422,13,Improv_Metronome,194,5,42,127,3153952184
2422,13,Improv_Metronome,195,1,38,74,3154305384
2422,13,Improv_Metronome,196,1,48,78,3154309700
2422,13,Improv_Metronome,197,5,42,127,3154451904
2422,13,Improv_Metronome,198,1,38,68,3154777948
2422,13,Improv_Metronome,199,1,48,72,3154788248
2422,13,Improv_Metronome,200,5,42,127,3154951628
2422,13,Improv_Metronome,201,1,48,83,3155268848
2422,13,Improv_Metronome,202,5,42,127,3155452144
2422,13,Improv_Metronome,203,1,48,79,3155739368
2422,13,Improv_Metronome,204,5,42,127,3155952212
2422,13,Improv_Metronome,205,1,38,77,3156327476
2422,13,Improv_Metronome,206,5,42,127,3156451608
2422,13,Improv_Metronome,207,1,38,83,3156818196
2422,13,Improv_Metronome,208,5,42,127,3156952424
2422,13,Improv_Metronome,209,1,48,78,3157341452
2422,13,Improv_Metronome,210,5,42,127,3157452268
2422,13,Improv_Metronome,211,1,48,77,3157824312
2422,13,Improv_Metronome,212,5,42,127,3157951812
2422,13,Improv_Metronome,213,1,38,63,3158329396
2422,13,Improv_Metronome,214,1,48,78,3158336928
2422,13,Improv_Metronome,215,5,42,127,3158451536
2422,13,Improv_Metronome,216,1,38,69,3158808468
2422,13,Improv_Metronome,217,1,48,77,3158818176
2422,13,Improv_Metronome,218,5,42,127,3158952204
2422,13,Improv_Metronome,219,1,38,76,3159326664
2422,13,Improv_Metronome,220,5,42,127,3159452048
2422,13,Improv_Metronome,221,1,38,78,3159812524
2422,13,Improv_Metronome,222,5,42,127,3159951740
2422,13,Improv_Metronome,223,1,48,79,3160323216
2422,13,Improv_Metronome,224,5,42,127,3160451288
2422,13,Improv_Metronome,225,1,48,85,3160814832
2422,13,Improv_Metronome,226,5,42,127,3160952252
2422,13,Improv_Metronome,227,1,38,81,3161309592
2422,13,Improv_Metronome,228,1,48,87,3161313908
2422,13,Improv_Metronome,229,5,42,127,3161451976
2422,13,Improv_Metronome,230,1,48,77,3161799436
2422,13,Improv_Metronome,231,1,38,71,3161800092
2422,13,Improv_Metronome,232,5,42,127,3161951548
2422,13,Improv_Metronome,233,1,48,84,3162291756
2422,13,Improv_Metronome,234,5,42,127,3162452288
2422,13,Improv_Metronome,235,1,38,78,3162771080
2422,13,Improv_Metronome,236,1,38,37,3162825984
2422,13,Improv_Metronome,237,5,42,127,3162952036
2422,13,Improv_Metronome,238,1,48,79,3163283316
2422,13,Improv_Metronome,239,5,42,127,3163452028
2422,13,Improv_Metronome,240,1,38,72,3163756160
2422,13,Improv_Metronome,241,5,42,127,3163951500
2422,13,Improv_Metronome,242,1,38,63,3164273280
2422,13,Improv_Metronome,243,1,48,82,3164279096
2422,13,Improv_Metronome,244,5,42,127,3164452196
2422,13,Improv_Metronome,245,1,38,61,3164726556
2422,13,Improv_Metronome,246,1,48,78,3164748900
2422,13,Improv_Metronome,247,5,42,127,3164951916
2422,13,Improv_Metronome,248,1,48,68,3165219096
2422,13,Improv_Metronome,249,5,42,127,3165451612
2422,13,Improv_Metronome,250,1,48,74,3165721332
2422,13,Improv_Metronome,251,5,42,127,3165952280
2422,13,Improv_Metronome,252,1,38,58,3166226564
2422,13,Improv_Metronome,253,1,48,18,3166238508
2422,13,Improv_Metronome,254,5,42,127,3166452000
2422,13,Improv_Metronome,255,1,38,65,3166709228
2422,13,Improv_Metronome,256,5,42,127,3166951844
2422,13,Improv_Metronome,257,1,48,79,3167211768
2422,13,Improv_Metronome,258,5,42,127,3167451612
2422,13,Improv_Metronome,259,1,38,56,3167674960
2422,13,Improv_Metronome,260,1,38,20,3167765296
2422,13,Improv_Metronome,261,5,42,127,3167952332
2422,13,Improv_Metronome,262,1,48,60,3168207768
2422,13,Improv_Metronome,263,5,42,127,3168451880
2422,13,Improv_Metronome,264,1,38,81,3168649096
2422,13,Improv_Metronome,265,5,42,127,3168951576
2422,13,Improv_Metronome,266,1,48,65,3169122836
2422,13,Improv_Metronome,267,5,42,127,3169452516
2422,13,Improv_Metronome,268,1,48,80,3169592984
2422,13,Improv_Metronome,269,5,42,127,3169952060
2422,13,Improv_Metronome,270,1,38,73,3170075328
2422,13,Improv_Metronome,271,5,42,127,3170451828
2422,13,Improv_Metronome,272,1,38,67,3170548392
2422,13,Improv_Metronome,273,5,42,127,3170951448
2422,13,Improv_Metronome,274,1,48,79,3171048016
2422,13,Improv_Metronome,275,5,42,127,3171452488
2422,13,Improv_Metronome,276,1,38,79,3171512028
2422,13,Improv_Metronome,277,5,42,127,3171951960
2422,13,Improv_Metronome,278,1,48,73,3171992252
2422,13,Improv_Metronome,279,1,38,78,3172406884
2422,13,Improv_Metronome,280,5,42,127,3172451576
2422,13,Improv_Metronome,281,1,38,85,3172906284
2422,13,Improv_Metronome,282,1,48,78,3172922720
2422,13,Improv_Metronome,283,5,42,127,3172952372
2422,13,Improv_Metronome,284,1,38,72,3173370176
2422,13,Improv_Metronome,285,1,48,72,3173374420
2422,13,Improv_Metronome,286,5,42,127,3173452240
2422,13,Improv_Metronome,287,1,48,81,3173854788
2422,13,Improv_Metronome,288,5,42,127,3173951820
2422,13,Improv_Metronome,289,1,38,68,3174289156
2422,13,Improv_Metronome,290,5,42,127,3174451588
2422,13,Improv_Metronome,291,1,38,65,3174808604
2422,13,Improv_Metronome,292,5,42,127,3174952556
2422,13,Improv_Metronome,293,1,38,71,3175272472
2422,13,Improv_Metronome,294,5,42,127,3175451876
2422,13,Improv_Metronome,295,1,48,71,3175769768
2422,13,Improv_Metronome,296,5,42,127,3175951796
2422,13,Improv_Metronome,297,1,48,76,3176263780
2422,13,Improv_Metronome,298,5,42,127,3176451416
2422,13,Improv_Metronome,299,1,48,68,3176745668
2422,13,Improv_Metronome,300,5,42,127,3176952380
2422,13,Improv_Metronome,301,1,38,68,3177246560
2422,13,Improv_Metronome,0,9999,9999,9999,3107449904
2422,13,Improv_Metronome,1,9999,9999,9999,3107949620
2422,13,Improv_Metronome,2,9999,9999,9999,3108449340
2422,13,Improv_Metronome,3,9999,9999,9999,3108950080
2422,13,Improv_Metronome,4,9999,9999,9999,3109449848
2422,13,Improv_Metronome,5,9999,9999,9999,3109949544
2422,13,Improv_Metronome,6,9999,9999,9999,3110449216
2422,13,Improv_Metronome,7,9999,9999,9999,3110949956
2422,13,Improv_Metronome,8,9999,9999,9999,3111449720
2422,13,Improv_Metronome,9,9999,9999,9999,3111949424
2422,13,Improv_Metronome,10,9999,9999,9999,3112449112
2422,13,Improv_Metronome,11,9999,9999,9999,3112949852
2422,13,Improv_Metronome,12,9999,9999,9999,3113449520
2422,13,Improv_Metronome,13,9999,9999,9999,3113949288
2422,13,Improv_Metronome,14,9999,9999,9999,3114450032
2422,13,Improv_Metronome,15,9999,9999,9999,3114949728
2422,13,Improv_Metronome,16,9999,9999,9999,3115449420
2422,13,Improv_Metronome,17,9999,9999,9999,3115949148
2422,13,Improv_Metronome,18,9999,9999,9999,3116449864
2422,13,Improv_Metronome,19,9999,9999,9999,3116949600
2422,13,Improv_Metronome,20,9999,9999,9999,3117449296
2422,13,Improv_Metronome,21,9999,9999,9999,3117950036
2422,13,Improv_Metronome,22,9999,9999,9999,3118449732
2422,13,Improv_Metronome,23,9999,9999,9999,3118949428
2422,13,Improv_Metronome,24,9999,9999,9999,3119449192
2422,13,Improv_Metronome,25,9999,9999,9999,3119949936
2422,13,Improv_Metronome,26,9999,9999,9999,3120449636
2422,13,Improv_Metronome,27,9999,9999,9999,3120949324
2422,13,Improv_Metronome,28,9999,9999,9999,3121450068
2422,13,Improv_Metronome,29,9999,9999,9999,3121949760
2422,13,Improv_Metronome,30,9999,9999,9999,3122449512
2422,13,Improv_Metronome,31,9999,9999,9999,3122949180
2422,13,Improv_Metronome,32,9999,9999,9999,3123449924
2422,13,Improv_Metronome,33,9999,9999,9999,3123949620
2422,13,Improv_Metronome,34,9999,9999,9999,3124449388
2422,13,Improv_Metronome,35,9999,9999,9999,3124950132
2422,13,Improv_Metronome,36,9999,9999,9999,3125449828
2422,13,Improv_Metronome,37,9999,9999,9999,3125949520
2422,13,Improv_Metronome,38,9999,9999,9999,3126449216
2422,13,Improv_Metronome,39,9999,9999,9999,3126950004
2422,13,Improv_Metronome,40,9999,9999,9999,3127449700
2422,13,Improv_Metronome,41,9999,9999,9999,3127949396
2422,13,Improv_Metronome,42,9999,9999,9999,3128449072
2422,13,Improv_Metronome,43,9999,9999,9999,3128949816
2422,13,Improv_Metronome,44,9999,9999,9999,3129449584
2422,13,Improv_Metronome,45,9999,9999,9999,3129949280
2422,13,Improv_Metronome,46,9999,9999,9999,3130450020
2422,13,Improv_Metronome,47,9999,9999,9999,3130949716
2422,13,Improv_Metronome,48,9999,9999,9999,3131449428
2422,13,Improv_Metronome,49,9999,9999,9999,3131949108
2422,13,Improv_Metronome,50,9999,9999,9999,3132449852
2422,13,Improv_Metronome,51,9999,9999,9999,3132949620
2422,13,Improv_Metronome,52,9999,9999,9999,3133449316
2422,13,Improv_Metronome,53,9999,9999,9999,3133950072
2422,13,Improv_Metronome,54,9999,9999,9999,3134449752
2422,13,Improv_Metronome,55,9999,9999,9999,3134949448
2422,13,Improv_Metronome,56,9999,9999,9999,3135449144
2422,13,Improv_Metronome,57,9999,9999,9999,3135949884
2422,13,Improv_Metronome,58,9999,9999,9999,3136449656
2422,13,Improv_Metronome,59,9999,9999,9999,3136949348
2422,13,Improv_Metronome,60,9999,9999,9999,3137450064
2422,13,Improv_Metronome,61,9999,9999,9999,3137949760
2422,13,Improv_Metronome,62,9999,9999,9999,3138449528
2422,13,Improv_Metronome,63,9999,9999,9999,3138949224
2422,13,Improv_Metronome,64,9999,9999,9999,3139449964
2422,13,Improv_Metronome,65,9999,9999,9999,3139949660
2422,13,Improv_Metronome,66,9999,9999,9999,3140449352
2422,13,Improv_Metronome,67,9999,9999,9999,3140950096
2422,13,Improv_Metronome,68,9999,9999,9999,3141449788
2422,13,Improv_Metronome,69,9999,9999,9999,3141949556
2422,13,Improv_Metronome,70,9999,9999,9999,3142449252
2422,13,Improv_Metronome,71,9999,9999,9999,3142949992
2422,13,Improv_Metronome,72,9999,9999,9999,3143449688
2422,13,Improv_Metronome,73,9999,9999,9999,3143949384
2422,13,Improv_Metronome,74,9999,9999,9999,3144449080
2422,13,Improv_Metronome,75,9999,9999,9999,3144949820
2422,13,Improv_Metronome,76,9999,9999,9999,3145449588
2422,13,Improv_Metronome,77,9999,9999,9999,3145949284
2422,13,Improv_Metronome,78,9999,9999,9999,3146450024
2422,13,Improv_Metronome,79,9999,9999,9999,3146949720
2422,13,Improv_Metronome,80,9999,9999,9999,3147449444
2422,13,Improv_Metronome,81,9999,9999,9999,3147949140
2422,13,Improv_Metronome,82,9999,9999,9999,3148449884
2422,13,Improv_Metronome,83,9999,9999,9999,3148949624
2422,13,Improv_Metronome,84,9999,9999,9999,3149449272
2422,13,Improv_Metronome,85,9999,9999,9999,3149950060
2422,13,Improv_Metronome,86,9999,9999,9999,3150449740
2422,13,Improv_Metronome,87,9999,9999,9999,3150949460
2422,13,Improv_Metronome,88,9999,9999,9999,3151449184
2422,13,Improv_Metronome,89,9999,9999,9999,3151949924
2422,13,Improv_Metronome,90,9999,9999,9999,3152449620
2422,13,Improv_Metronome,91,9999,9999,9999,3152949312
2422,13,Improv_Metronome,92,9999,9999,9999,3153450052
2422,13,Improv_Metronome,93,9999,9999,9999,3153949748
2422,13,Improv_Metronome,94,9999,9999,9999,3154449468
2422,13,Improv_Metronome,95,9999,9999,9999,3154949192
2422,13,Improv_Metronome,96,9999,9999,9999,3155449932
2422,13,Improv_Metronome,97,9999,9999,9999,3155949624
2422,13,Improv_Metronome,98,9999,9999,9999,3156449396
2422,13,Improv_Metronome,99,9999,9999,9999,3156950136
2422,13,Improv_Metronome,100,9999,9999,9999,3157449828
2422,13,Improv_Metronome,101,9999,9999,9999,3157949524
2422,13,Improv_Metronome,102,9999,9999,9999,3158449248
2422,13,Improv_Metronome,103,9999,9999,9999,3158949992
2422,13,Improv_Metronome,104,9999,9999,9999,3159449684
2422,13,Improv_Metronome,105,9999,9999,9999,3159949380
2422,13,Improv_Metronome,106,9999,9999,9999,3160449076
2422,13,Improv_Metronome,107,9999,9999,9999,3160949816
2422,13,Improv_Metronome,108,9999,9999,9999,3161449540
2422,13,Improv_Metronome,109,9999,9999,9999,3161949260
2422,13,Improv_Metronome,110,9999,9999,9999,3162450000
2422,13,Improv_Metronome,111,9999,9999,9999,3162949748
2422,13,Improv_Metronome,112,9999,9999,9999,3163449444
2422,13,Improv_Metronome,113,9999,9999,9999,3163949140
2422,13,Improv_Metronome,114,9999,9999,9999,3164449908
2422,13,Improv_Metronome,115,9999,9999,9999,3164949552
2422,13,Improv_Metronome,116,9999,9999,9999,3165449324
2422,13,Improv_Metronome,117,9999,9999,9999,3165950064
2422,13,Improv_Metronome,118,9999,9999,9999,3166449712
2422,13,Improv_Metronome,119,9999,9999,9999,3166949480
2422,13,Improv_Metronome,120,9999,9999,9999,3167449176
2422,13,Improv_Metronome,121,9999,9999,9999,3167949896
2422,13,Improv_Metronome,122,9999,9999,9999,3168449592
2422,13,Improv_Metronome,123,9999,9999,9999,3168949360
2422,13,Improv_Metronome,124,9999,9999,9999,3169450076
2422,13,Improv_Metronome,125,9999,9999,9999,3169949772
2422,13,Improv_Metronome,126,9999,9999,9999,3170449468
2422,13,Improv_Metronome,127,9999,9999,9999,3170949236
2422,13,Improv_Metronome,128,9999,9999,9999,3171449976
2422,13,Improv_Metronome,129,9999,9999,9999,3171949672
2422,13,Improv_Metronome,130,9999,9999,9999,3172449364
2422,13,Improv_Metronome,131,9999,9999,9999,3172950084
2422,13,Improv_Metronome,132,9999,9999,9999,3173449804
2422,13,Improv_Metronome,133,9999,9999,9999,3173949532
2422,13,Improv_Metronome,134,9999,9999,9999,3174449224
2422,13,Improv_Metronome,135,9999,9999,9999,3174949968
2422,13,Improv_Metronome,136,9999,9999,9999,3175449664
2422,13,Improv_Metronome,137,9999,9999,9999,3175949432
2422,13,Improv_Metronome,138,9999,9999,9999,3176449128
2422,13,Improv_Metronome,139,9999,9999,9999,3176949868
2423,14,Improv_Melody,0,2,48,80,3228310964
2423,14,Improv_Melody,1,2,72,80,3228313712
2423,14,Improv_Melody,2,5,42,127,3228315196
2423,14,Improv_Melody,3,5,42,110,3228807516
2423,14,Improv_Melody,4,5,42,110,3229308208
2423,14,Improv_Melody,5,5,42,110,3229807932
2423,14,Improv_Melody,6,5,42,127,3230307876
2423,14,Improv_Melody,7,5,42,110,3230808420
2423,14,Improv_Melody,8,5,42,110,3231308068
2423,14,Improv_Melody,9,5,42,110,3231807716
2423,14,Improv_Melody,10,2,43,80,3232310240
2423,14,Improv_Melody,11,2,67,80,3232312396
2423,14,Improv_Melody,12,5,42,127,3232314928
2423,14,Improv_Melody,13,5,42,110,3232808592
2423,14,Improv_Melody,14,5,42,110,3233307868
2423,14,Improv_Melody,15,5,42,110,3233807588
2423,14,Improv_Melody,16,5,42,127,3234307388
2423,14,Improv_Melody,17,5,42,110,3234808080
2423,14,Improv_Melody,18,5,42,110,3235307948
2423,14,Improv_Melody,19,5,42,110,3235807596
2423,14,Improv_Melody,20,2,45,80,3236310716
2423,14,Improv_Melody,21,2,69,80,3236313176
2423,14,Improv_Melody,22,5,42,127,3236315636
2423,14,Improv_Melody,23,5,42,110,3236807952
2423,14,Improv_Melody,24,5,42,110,3237307748
2423,14,Improv_Melody,25,5,42,110,3237807468
2423,14,Improv_Melody,26,5,42,127,3238308212
2423,14,Improv_Melody,27,5,42,110,3238807860
2423,14,Improv_Melody,28,5,42,110,3239307732
2423,14,Improv_Melody,29,5,42,110,3239808352
2423,14,Improv_Melody,30,2,41,80,3240310808
2423,14,Improv_Melody,31,2,65,80,3240313028
2423,14,Improv_Melody,32,5,42,127,3240315564
2423,14,Improv_Melody,33,5,42,110,3240807808
2423,14,Improv_Melody,34,5,42,110,3241307456
2423,14,Improv_Melody,35,5,42,110,3241808224
2423,14,Improv_Melody,36,5,42,127,3242308092
2423,14,Improv_Melody,37,5,42,110,3242807592
2423,14,Improv_Melody,38,5,42,110,3243308284
2423,14,Improv_Melody,39,5,42,110,3243808232
2423,14,Improv_Melody,40,2,48,80,3244310380
2423,14,Improv_Melody,41,2,72,80,3244312684
2423,14,Improv_Melody,42,5,42,127,3244315292
2423,14,Improv_Melody,43,5,42,110,3244807536
2423,14,Improv_Melody,44,5,42,110,3245308232
2423,14,Improv_Melody,45,5,42,110,3245808104
2423,14,Improv_Melody,46,5,42,127,3246307676
2423,14,Improv_Melody,47,5,42,110,3246808368
2423,14,Improv_Melody,48,5,42,110,3247308092
2423,14,Improv_Melody,49,5,42,110,3247807888
2423,14,Improv_Melody,50,2,43,80,3248310032
2423,14,Improv_Melody,51,2,67,80,3248312040
2423,14,Improv_Melody,52,5,42,127,3248314652
2423,14,Improv_Melody,53,1,48,23,3248343352
2423,14,Improv_Melody,54,1,38,10,3248355000
2423,14,Improv_Melody,55,5,42,110,3248808768
2423,14,Improv_Melody,56,1,48,51,3248825432
2423,14,Improv_Melody,57,5,42,110,3249308000
2423,14,Improv_Melody,58,1,48,63,3249331788
2423,14,Improv_Melody,59,1,48,71,3249792912
2423,14,Improv_Melody,60,5,42,110,3249807988
2423,14,Improv_Melody,61,5,42,127,3250307476
2423,14,Improv_Melody,62,1,38,54,3250320916
2423,14,Improv_Melody,63,1,38,62,3250801892
2423,14,Improv_Melody,64,5,42,110,3250808136
2423,14,Improv_Melody,65,1,38,63,3251304732
2423,14,Improv_Melody,66,5,42,110,3251307912
2423,14,Improv_Melody,67,5,42,110,3251807768
2423,14,Improv_Melody,68,1,38,69,3251817920
2423,14,Improv_Melody,69,2,45,80,3252310872
2423,14,Improv_Melody,70,2,69,80,3252313020
2423,14,Improv_Melody,71,5,42,127,3252315784
2423,14,Improv_Melody,72,1,48,54,3252363108
2423,14,Improv_Melody,73,5,42,110,3252808080
2423,14,Improv_Melody,74,1,48,53,3252825860
2423,14,Improv_Melody,75,5,42,110,3253307856
2423,14,Improv_Melody,76,1,48,58,3253314340
2423,14,Improv_Melody,77,1,48,61,3253782224
2423,14,Improv_Melody,78,5,42,110,3253807400
2423,14,Improv_Melody,79,5,42,127,3254308152
2423,14,Improv_Melody,80,1,38,53,3254321668
2423,14,Improv_Melody,81,5,42,110,3254807928
2423,14,Improv_Melody,82,1,38,71,3254821892
2423,14,Improv_Melody,83,1,38,65,3255303544
2423,14,Improv_Melody,84,5,42,110,3255307696
2423,14,Improv_Melody,85,5,42,110,3255808300
2423,14,Improv_Melody,86,1,38,66,3255809640
2423,14,Improv_Melody,87,2,41,80,3256310500
2423,14,Improv_Melody,88,1,48,55,3256313196
2423,14,Improv_Melody,89,2,65,80,3256314532
2423,14,Improv_Melody,90,5,42,127,3256316840
2423,14,Improv_Melody,91,5,42,110,3256807656
2423,14,Improv_Melody,92,1,48,56,3256825656
2423,14,Improv_Melody,93,1,48,58,3257295264
2423,14,Improv_Melody,94,5,42,110,3257307644
2423,14,Improv_Melody,95,1,48,62,3257787256
2423,14,Improv_Melody,96,5,42,110,3257808464
2423,14,Improv_Melody,97,1,38,60,3258302596
2423,14,Improv_Melody,98,5,42,127,3258307944
2423,14,Improv_Melody,99,5,42,110,3258807576
2423,14,Improv_Melody,100,1,38,55,3258812788
2423,14,Improv_Melody,101,1,38,67,3259292920
2423,14,Improv_Melody,102,5,42,110,3259308540
2423,14,Improv_Melody,103,1,38,83,3259790452
2423,14,Improv_Melody,104,5,42,110,3259808064
2423,14,Improv_Melody,105,2,48,80,3260310352
2423,14,Improv_Melody,106,2,72,80,3260312352
2423,14,Improv_Melody,107,5,42,127,3260314892
2423,14,Improv_Melody,108,1,48,61,3260355284
2423,14,Improv_Melody,109,5,42,110,3260807636
2423,14,Improv_Melody,110,1,38,77,3260810224
2423,14,Improv_Melody,111,5,42,110,3261308456
2423,14,Improv_Melody,112,1,48,50,3261334764
2423,14,Improv_Melody,113,1,48,54,3261765100
2423,14,Improv_Melody,114,5,42,110,3261807924
2423,14,Improv_Melody,115,1,48,55,3262277668
2423,14,Improv_Melody,116,5,42,127,3262307624
2423,14,Improv_Melody,117,1,48,72,3262750508
2423,14,Improv_Melody,118,5,42,110,3262808372
2423,14,Improv_Melody,119,1,48,69,3263255000
2423,14,Improv_Melody,120,5,42,110,3263308220
2423,14,Improv_Melody,121,1,48,62,3263730240
2423,14,Improv_Melody,122,5,42,110,3263807920
2423,14,Improv_Melody,123,1,38,65,3264282748
2423,14,Improv_Melody,124,2,43,80,3264310200
2423,14,Improv_Melody,125,2,67,80,3264312356
2423,14,Improv_Melody,126,5,42,127,3264314664
2423,14,Improv_Melody,127,1,38,68,3264766380
2423,14,Improv_Melody,128,5,42,110,3264808232
2423,14,Improv_Melody,129,1,38,73,3265298548
2423,14,Improv_Melody,130,5,42,110,3265308232
2423,14,Improv_Melody,131,1,38,71,3265789936
2423,14,Improv_Melody,132,5,42,110,3265807856
2423,14,Improv_Melody,133,1,38,68,3266278044
2423,14,Improv_Melody,134,5,42,127,3266307408
2423,14,Improv_Melody,135,1,38,56,3266782236
2423,14,Improv_Melody,136,5,42,110,3266808080
2423,14,Improv_Melody,137,5,42,110,3267308008
2423,14,Improv_Melody,138,1,48,66,3267325488
2423,14,Improv_Melody,139,1,48,62,3267796592
2423,14,Improv_Melody,140,5,42,110,3267807628
2423,14,Improv_Melody,141,1,48,60,3268286716
2423,14,Improv_Melody,142,2,45,80,3268310880
2423,14,Improv_Melody,143,2,69,80,3268313028
2423,14,Improv_Melody,144,5,42,127,3268315492
2423,14,Improv_Melody,145,1,48,67,3268806960
2423,14,Improv_Melody,146,5,42,110,3268808760
2423,14,Improv_Melody,147,1,48,74,3269302440
2423,14,Improv_Melody,148,5,42,110,3269307860
2423,14,Improv_Melody,149,1,48,65,3269781388
2423,14,Improv_Melody,150,5,42,110,3269807412
2423,14,Improv_Melody,151,1,48,82,3270283488
2423,14,Improv_Melody,152,5,42,127,3270308056
2423,14,Improv_Melody,153,1,48,67,3270755132
2423,14,Improv_Melody,154,5,42,110,3270807904
2423,14,Improv_Melody,155,1,48,73,3271259248
2423,14,Improv_Melody,156,5,42,110,3271307904
2423,14,Improv_Melody,157,1,48,89,3271749676
2423,14,Improv_Melody,158,5,42,110,3271808352
2423,14,Improv_Melody,159,1,38,72,3272268972
2423,14,Improv_Melody,160,2,41,80,3272310780
2423,14,Improv_Melody,161,2,65,80,3272312860
2423,14,Improv_Melody,162,5,42,127,3272315320
2423,14,Improv_Melody,163,1,38,75,3272782372
2423,14,Improv_Melody,164,5,42,110,3272807840
2423,14,Improv_Melody,165,1,38,67,3273289852
2423,14,Improv_Melody,166,5,42,110,3273307468
2423,14,Improv_Melody,167,1,38,68,3273766140
2423,14,Improv_Melody,168,5,42,110,3273808140
2423,14,Improv_Melody,169,1,38,75,3274236740
2423,14,Improv_Melody,170,5,42,127,3274307912
2423,14,Improv_Melody,171,1,38,71,3274719240
2423,14,Improv_Melody,172,5,42,110,3274807836
2423,14,Improv_Melody,173,1,38,64,3275216768
2423,14,Improv_Melody,174,5,42,110,3275308436
2423,14,Improv_Melody,175,1,38,69,3275743324
2423,14,Improv_Melody,176,5,42,110,3275808208
2423,14,Improv_Melody,177,1,48,84,3276219008
2423,14,Improv_Melody,178,1,38,91,3276222280
2423,14,Improv_Melody,179,2,48,80,3276310312
2423,14,Improv_Melody,180,2,72,80,3276312468
2423,14,Improv_Melody,181,5,42,127,3276314932
2423,14,Improv_Melody,182,1,48,62,3276766916
2423,14,Improv_Melody,183,5,42,110,3276807572
2423,14,Improv_Melody,184,1,48,67,3277264600
2423,14,Improv_Melody,185,5,42,110,3277308248
2423,14,Improv_Melody,186,1,48,65,3277758616
2423,14,Improv_Melody,187,5,42,110,3277808020
2423,14,Improv_Melody,188,1,48,80,3278261460
2423,14,Improv_Melody,189,5,42,127,3278307720
2423,14,Improv_Melody,190,1,48,76,3278743476
2423,14,Improv_Melody,191,5,42,110,3278808544
2423,14,Improv_Melody,192,1,48,75,3279252156
2423,14,Improv_Melody,193,5,42,110,3279308244
2423,14,Improv_Melody,194,1,48,85,3279758368
2423,14,Improv_Melody,195,5,42,110,3279807720
2423,14,Improv_Melody,196,1,38,86,3280265916
2423,14,Improv_Melody,197,1,48,108,3280279208
2423,14,Improv_Melody,198,2,43,80,3280309900
2423,14,Improv_Melody,199,2,67,80,3280312276
2423,14,Improv_Melody,200,5,42,127,3280314744
2423,14,Improv_Melody,201,1,38,19,3280805548
2423,14,Improv_Melody,202,5,42,110,3280808580
2423,14,Improv_Melody,203,1,38,81,3281235068
2423,14,Improv_Melody,204,5,42,110,3281307884
2423,14,Improv_Melody,205,1,38,74,3281734168
2423,14,Improv_Melody,206,5,42,110,3281807732
2423,14,Improv_Melody,207,1,38,83,3282237008
2423,14,Improv_Melody,208,5,42,127,3282307508
2423,14,Improv_Melody,209,1,38,67,3282746580
2423,14,Improv_Melody,210,5,42,110,3282808328
2423,14,Improv_Melody,211,1,38,71,3283230948
2423,14,Improv_Melody,212,1,38,28,3283295328
2423,14,Improv_Melody,213,5,42,110,3283307932
2423,14,Improv_Melody,214,1,38,75,3283743712
2423,14,Improv_Melody,215,5,42,110,3283807484
2423,14,Improv_Melody,216,1,38,114,3284248052
2423,14,Improv_Melody,217,1,48,102,3284276460
2423,14,Improv_Melody,218,2,45,80,3284310712
2423,14,Improv_Melody,219,2,69,80,3284312864
2423,14,Improv_Melody,220,5,42,127,3284315480
2423,14,Improv_Melody,221,1,48,68,3284768736
2423,14,Improv_Melody,222,5,42,110,3284808120
2423,14,Improv_Melody,223,1,48,74,3285259236
2423,14,Improv_Melody,224,5,42,110,3285307672
2423,14,Improv_Melody,225,1,48,70,3285741136
2423,14,Improv_Melody,226,5,42,110,3285807372
2423,14,Improv_Melody,227,1,48,69,3286260208
2423,14,Improv_Melody,228,5,42,127,3286308268
2423,14,Improv_Melody,229,1,48,64,3286758112
2423,14,Improv_Melody,230,5,42,110,3286807892
2423,14,Improv_Melody,231,1,48,62,3287234776
2423,14,Improv_Melody,232,5,42,110,3287307520
2423,14,Improv_Melody,233,1,48,90,3287759828
2423,14,Improv_Melody,234,5,42,110,3287808340
2423,14,Improv_Melody,235,1,38,84,3288264168
2423,14,Improv_Melody,236,1,48,107,3288274100
2423,14,Improv_Melody,237,2,41,80,3288310520
2423,14,Improv_Melody,238,2,65,80,3288312600
2423,14,Improv_Melody,239,5,42,127,3288315288
2423,14,Improv_Melody,240,5,42,110,3288808084
2423,14,Improv_Melody,241,1,38,60,3288826240
2423,14,Improv_Melody,242,1,38,74,3289299288
2423,14,Improv_Melody,243,5,42,110,3289307556
2423,14,Improv_Melody,244,1,38,74,3289758716
2423,14,Improv_Melody,245,5,42,110,3289808300
2423,14,Improv_Melody,246,1,38,71,3290279464
2423,14,Improv_Melody,247,5,42,127,3290308148
2423,14,Improv_Melody,248,1,38,73,3290763804
2423,14,Improv_Melody,249,5,42,110,3290807700
2423,14,Improv_Melody,250,1,38,65,3291261040
2423,14,Improv_Melody,251,5,42,110,3291308448
2423,14,Improv_Melody,252,1,38,77,3291766800
2423,14,Improv_Melody,253,5,42,110,3291808048
2423,14,Improv_Melody,254,1,38,110,3292287736
2423,14,Improv_Melody,255,2,48,80,3292310248
2423,14,Improv_Melody,256,2,72,80,3292312632
2423,14,Improv_Melody,257,1,48,86,3292313592
2423,14,Improv_Melody,258,5,42,127,3292316804
2423,14,Improv_Melody,259,5,42,110,3292807508
2423,14,Improv_Melody,260,1,48,58,3292812944
2423,14,Improv_Melody,261,1,48,70,3293283900
2423,14,Improv_Melody,262,5,42,110,3293308396
2423,14,Improv_Melody,263,1,48,73,3293777388
2423,14,Improv_Melody,264,5,42,110,3293808096
2423,14,Improv_Melody,265,1,48,74,3294254576
2423,14,Improv_Melody,266,5,42,127,3294307720
2423,14,Improv_Melody,267,1,48,75,3294760780
2423,14,Improv_Melody,268,5,42,110,3294808320
2423,14,Improv_Melody,269,1,48,67,3295247692
2423,14,Improv_Melody,270,5,42,110,3295308092
2423,14,Improv_Melody,271,1,48,85,3295743500
2423,14,Improv_Melody,272,5,42,110,3295807720
2423,14,Improv_Melody,273,1,48,79,3296266160
2423,14,Improv_Melody,274,1,38,79,3296281104
2423,14,Improv_Melody,275,2,43,80,3296310284
2423,14,Improv_Melody,276,2,67,80,3296312432
2423,14,Improv_Melody,277,5,42,127,3296315040
2423,14,Improv_Melody,278,1,38,74,3296780568
2423,14,Improv_Melody,279,5,42,110,3296808208
2423,14,Improv_Melody,280,1,38,62,3297246312
2423,14,Improv_Melody,281,5,42,110,3297307908
2423,14,Improv_Melody,282,1,38,64,3297728880
2423,14,Improv_Melody,283,5,42,110,3297807608
2423,14,Improv_Melody,284,1,38,68,3298222448
2423,14,Improv_Melody,285,5,42,127,3298307532
2423,14,Improv_Melody,286,1,38,66,3298705068
2423,14,Improv_Melody,287,5,42,110,3298808040
2423,14,Improv_Melody,288,1,38,68,3299215612
2423,14,Improv_Melody,289,5,42,110,3299307900
2423,14,Improv_Melody,290,1,38,62,3299707984
2423,14,Improv_Melody,291,5,42,110,3299807660
2423,14,Improv_Melody,292,1,48,74,3300248820
2423,14,Improv_Melody,293,1,38,90,3300253140
2423,14,Improv_Melody,294,2,45,80,3300311140
2423,14,Improv_Melody,295,2,69,80,3300313216
2423,14,Improv_Melody,296,5,42,127,3300315748
2423,14,Improv_Melody,297,1,48,61,3300764048
2423,14,Improv_Melody,298,5,42,110,3300808016
2423,14,Improv_Melody,299,1,48,65,3301286136
2423,14,Improv_Melody,300,5,42,110,3301307716
2423,14,Improv_Melody,301,1,38,78,3301750576
2423,14,Improv_Melody,302,5,42,110,3301807416
2423,14,Improv_Melody,303,1,48,64,3302256336
2423,14,Improv_Melody,304,5,42,127,3302308164
2423,14,Improv_Melody,305,1,38,70,3302785284
2423,14,Improv_Melody,306,5,42,110,3302808060
2423,14,Improv_Melody,307,1,48,60,3303303532
2423,14,Improv_Melody,308,5,42,110,3303307760
2423,14,Improv_Melody,309,1,48,69,3303772492
2423,14,Improv_Melody,310,5,42,110,3303808508
2423,14,Improv_Melody,311,1,38,78,3304309152
2423,14,Improv_Melody,312,2,41,80,3304313420
2423,14,Improv_Melody,313,2,65,80,3304315272
2423,14,Improv_Melody,314,5,42,127,3304317728
2423,14,Improv_Melody,315,5,42,110,3304807644
2423,14,Improv_Melody,316,1,48,43,3304808608
2423,14,Improv_Melody,317,1,38,69,3304815988
2423,14,Improv_Melody,318,1,38,75,3305272176
2423,14,Improv_Melody,319,5,42,110,3305307376
2423,14,Improv_Melody,320,1,38,68,3305767316
2423,14,Improv_Melody,321,5,42,110,3305808196
2423,14,Improv_Melody,322,1,38,69,3306278756
2423,14,Improv_Melody,323,5,42,127,3306308044
2423,14,Improv_Melody,324,1,38,64,3306755276
2423,14,Improv_Melody,325,5,42,110,3306807596
2423,14,Improv_Melody,326,1,38,59,3307253028
2423,14,Improv_Melody,327,5,42,110,3307308492
2423,14,Improv_Melody,328,1,38,53,3307757440
2423,14,Improv_Melody,329,5,42,110,3307808268
2423,14,Improv_Melody,330,1,48,51,3308301196
2423,14,Improv_Melody,331,2,48,80,3308310632
2423,14,Improv_Melody,332,2,72,80,3308312928
2423,14,Improv_Melody,333,5,42,127,3308315460
2423,14,Improv_Melody,334,5,42,110,3308807468
2423,14,Improv_Melody,335,1,48,58,3308823152
2423,14,Improv_Melody,336,1,48,77,3309272564
2423,14,Improv_Melody,0,9999,9999,9999,3228305460
2423,14,Improv_Melody,1,9999,9999,9999,3228805224
2423,14,Improv_Melody,2,9999,9999,9999,3229305916
2423,14,Improv_Melody,3,9999,9999,9999,3229805636
2423,14,Improv_Melody,4,9999,9999,9999,3230305360
2423,14,Improv_Melody,5,9999,9999,9999,3230806128
2423,14,Improv_Melody,6,9999,9999,9999,3231305776
2423,14,Improv_Melody,7,9999,9999,9999,3231805500
2423,14,Improv_Melody,8,9999,9999,9999,3232305220
2423,14,Improv_Melody,9,9999,9999,9999,3232806000
2423,14,Improv_Melody,10,9999,9999,9999,3233305652
2423,14,Improv_Melody,11,9999,9999,9999,3233805372
2423,14,Improv_Melody,12,9999,9999,9999,3234305092
2423,14,Improv_Melody,13,9999,9999,9999,3234805860
2423,14,Improv_Melody,14,9999,9999,9999,3235305584
2423,14,Improv_Melody,15,9999,9999,9999,3235805304
2423,14,Improv_Melody,16,9999,9999,9999,3236305996
2423,14,Improv_Melody,17,9999,9999,9999,3236805736
2423,14,Improv_Melody,18,9999,9999,9999,3237305456
2423,14,Improv_Melody,19,9999,9999,9999,3237805176
2423,14,Improv_Melody,20,9999,9999,9999,3238305844
2423,14,Improv_Melody,21,9999,9999,9999,3238805568
2423,14,Improv_Melody,22,9999,9999,9999,3239305288
2423,14,Improv_Melody,23,9999,9999,9999,3239806056
2423,14,Improv_Melody,24,9999,9999,9999,3240305780
2423,14,Improv_Melody,25,9999,9999,9999,3240805440
2423,14,Improv_Melody,26,9999,9999,9999,3241305164
2423,14,Improv_Melody,27,9999,9999,9999,3241805932
2423,14,Improv_Melody,28,9999,9999,9999,3242305652
2423,14,Improv_Melody,29,9999,9999,9999,3242805300
2423,14,Improv_Melody,30,9999,9999,9999,3243306068
2423,14,Improv_Melody,31,9999,9999,9999,3243805788
2423,14,Improv_Melody,32,9999,9999,9999,3244305508
2423,14,Improv_Melody,33,9999,9999,9999,3244805172
2423,14,Improv_Melody,34,9999,9999,9999,3245305940
2423,14,Improv_Melody,35,9999,9999,9999,3245805660
2423,14,Improv_Melody,36,9999,9999,9999,3246305384
2423,14,Improv_Melody,37,9999,9999,9999,3246806076
2423,14,Improv_Melody,38,9999,9999,9999,3247305796
2423,14,Improv_Melody,39,9999,9999,9999,3247805520
2423,14,Improv_Melody,40,9999,9999,9999,3248305240
2423,14,Improv_Melody,41,9999,9999,9999,3248806004
2423,14,Improv_Melody,42,9999,9999,9999,3249305708
2423,14,Improv_Melody,43,9999,9999,9999,3249805400
2423,14,Improv_Melody,44,9999,9999,9999,3250305108
2423,14,Improv_Melody,45,9999,9999,9999,3250805844
2423,14,Improv_Melody,46,9999,9999,9999,3251305544
2423,14,Improv_Melody,47,9999,9999,9999,3251805252
2423,14,Improv_Melody,48,9999,9999,9999,3252306000
2423,14,Improv_Melody,49,9999,9999,9999,3252805712
2423,14,Improv_Melody,50,9999,9999,9999,3253305412
2423,14,Improv_Melody,51,9999,9999,9999,3253805108
2423,14,Improv_Melody,52,9999,9999,9999,3254305860
2423,14,Improv_Melody,53,9999,9999,9999,3254805560
2423,14,Improv_Melody,54,9999,9999,9999,3255305328
2423,14,Improv_Melody,55,9999,9999,9999,3255806008
2423,14,Improv_Melody,56,9999,9999,9999,3256305784
2423,14,Improv_Melody,57,9999,9999,9999,3256805436
2423,14,Improv_Melody,58,9999,9999,9999,3257305204
2423,14,Improv_Melody,59,9999,9999,9999,3257805876
2423,14,Improv_Melody,60,9999,9999,9999,3258305652
2423,14,Improv_Melody,61,9999,9999,9999,3258805356
2423,14,Improv_Melody,62,9999,9999,9999,3259306096
2423,14,Improv_Melody,63,9999,9999,9999,3259805772
2423,14,Improv_Melody,64,9999,9999,9999,3260305480
2423,14,Improv_Melody,65,9999,9999,9999,3260805192
2423,14,Improv_Melody,66,9999,9999,9999,3261305940
2423,14,Improv_Melody,67,9999,9999,9999,3261805632
2423,14,Improv_Melody,68,9999,9999,9999,3262305332
2423,14,Improv_Melody,69,9999,9999,9999,3262806080
2423,14,Improv_Melody,70,9999,9999,9999,3263305780
2423,14,Improv_Melody,71,9999,9999,9999,3263805552
2423,14,Improv_Melody,72,9999,9999,9999,3264305252
2423,14,Improv_Melody,73,9999,9999,9999,3264805940
2423,14,Improv_Melody,74,9999,9999,9999,3265305716
2423,14,Improv_Melody,75,9999,9999,9999,3265805412
2423,14,Improv_Melody,76,9999,9999,9999,3266305112
2423,14,Improv_Melody,77,9999,9999,9999,3266805860
2423,14,Improv_Melody,78,9999,9999,9999,3267305568
2423,14,Improv_Melody,79,9999,9999,9999,3267805260
2423,14,Improv_Melody,80,9999,9999,9999,3268306004
2423,14,Improv_Melody,81,9999,9999,9999,3268805728
2423,14,Improv_Melody,82,9999,9999,9999,3269305420
2423,14,Improv_Melody,83,9999,9999,9999,3269805120
2423,14,Improv_Melody,84,9999,9999,9999,3270305840
2423,14,Improv_Melody,85,9999,9999,9999,3270805612
2423,14,Improv_Melody,86,9999,9999,9999,3271305312
2423,14,Improv_Melody,87,9999,9999,9999,3271806060
2423,14,Improv_Melody,88,9999,9999,9999,3272305760
2423,14,Improv_Melody,89,9999,9999,9999,3272805472
2423,14,Improv_Melody,90,9999,9999,9999,3273305176
2423,14,Improv_Melody,91,9999,9999,9999,3273805920
2423,14,Improv_Melody,92,9999,9999,9999,3274305620
2423,14,Improv_Melody,93,9999,9999,9999,3274805320
2423,14,Improv_Melody,94,9999,9999,9999,3275306068
2423,14,Improv_Melody,95,9999,9999,9999,3275805768
2423,14,Improv_Melody,96,9999,9999,9999,3276305520
2423,14,Improv_Melody,97,9999,9999,9999,3276805208
2423,14,Improv_Melody,98,9999,9999,9999,3277305956
2423,14,Improv_Melody,99,9999,9999,9999,3277805652
2423,14,Improv_Melody,100,9999,9999,9999,3278305352
2423,14,Improv_Melody,101,9999,9999,9999,3278806100
2423,14,Improv_Melody,102,9999,9999,9999,3279305800
2423,14,Improv_Melody,103,9999,9999,9999,3279805500
2423,14,Improv_Melody,104,9999,9999,9999,3280305256
2423,14,Improv_Melody,105,9999,9999,9999,3280805988
2423,14,Improv_Melody,106,9999,9999,9999,3281305664
2423,14,Improv_Melody,107,9999,9999,9999,3281805364
2423,14,Improv_Melody,108,9999,9999,9999,3282305140
2423,14,Improv_Melody,109,9999,9999,9999,3282805812
2423,14,Improv_Melody,110,9999,9999,9999,3283305564
2423,14,Improv_Melody,111,9999,9999,9999,3283805268
2423,14,Improv_Melody,112,9999,9999,9999,3284305992
2423,14,Improv_Melody,113,9999,9999,9999,3284805752
2423,14,Improv_Melody,114,9999,9999,9999,3285305452
2423,14,Improv_Melody,115,9999,9999,9999,3285805152
2423,14,Improv_Melody,116,9999,9999,9999,3286305900
2423,14,Improv_Melody,117,9999,9999,9999,3286805600
2423,14,Improv_Melody,118,9999,9999,9999,3287305300
2423,14,Improv_Melody,119,9999,9999,9999,3287806048
2423,14,Improv_Melody,120,9999,9999,9999,3288305728
2423,14,Improv_Melody,121,9999,9999,9999,3288805492
2423,14,Improv_Melody,122,9999,9999,9999,3289305188
2423,14,Improv_Melody,123,9999,9999,9999,3289805932
2423,14,Improv_Melody,124,9999,9999,9999,3290305632
2423,14,Improv_Melody,125,9999,9999,9999,3290805332
2423,14,Improv_Melody,126,9999,9999,9999,3291306080
2423,14,Improv_Melody,127,9999,9999,9999,3291805756
2423,14,Improv_Melody,128,9999,9999,9999,3292305456
2423,14,Improv_Melody,129,9999,9999,9999,3292805216
2423,14,Improv_Melody,130,9999,9999,9999,3293305956
2423,14,Improv_Melody,131,9999,9999,9999,3293805652
2423,14,Improv_Melody,132,9999,9999,9999,3294305356
2423,14,Improv_Melody,133,9999,9999,9999,3294806100
2423,14,Improv_Melody,134,9999,9999,9999,3295305800
2423,14,Improv_Melody,135,9999,9999,9999,3295805500
2423,14,Improv_Melody,136,9999,9999,9999,3296305256
2423,14,Improv_Melody,137,9999,9999,9999,3296805988
2423,14,Improv_Melody,138,9999,9999,9999,3297305692
2423,14,Improv_Melody,139,9999,9999,9999,3297805388
2423,14,Improv_Melody,140,9999,9999,9999,3298305088
2423,14,Improv_Melody,141,9999,9999,9999,3298805820
2423,14,Improv_Melody,142,9999,9999,9999,3299305536
2423,14,Improv_Melody,143,9999,9999,9999,3299805292
2423,14,Improv_Melody,144,9999,9999,9999,3300306036
2423,14,Improv_Melody,145,9999,9999,9999,3300805724
2423,14,Improv_Melody,146,9999,9999,9999,3301305424
2423,14,Improv_Melody,147,9999,9999,9999,3301805124
2423,14,Improv_Melody,148,9999,9999,9999,3302305844
2423,14,Improv_Melody,149,9999,9999,9999,3302805620
2423,14,Improv_Melody,150,9999,9999,9999,3303305320
2423,14,Improv_Melody,151,9999,9999,9999,3303806068
2423,14,Improv_Melody,152,9999,9999,9999,3304305772
2423,14,Improv_Melody,153,9999,9999,9999,3304805424
2423,14,Improv_Melody,154,9999,9999,9999,3305305156
2423,14,Improv_Melody,155,9999,9999,9999,3305805904
2423,14,Improv_Melody,156,9999,9999,9999,3306305604
2423,14,Improv_Melody,157,9999,9999,9999,3306805304
2423,14,Improv_Melody,158,9999,9999,9999,3307306052
2423,14,Improv_Melody,159,9999,9999,9999,3307805752
2423,14,Improv_Melody,160,9999,9999,9999,3308305528
2423,14,Improv_Melody,161,9999,9999,9999,3308805172
24