pid,taskRunCount,taskID,taskName,i,channel,pitch,velocity,microseconds
28,1,1,Ticks_Pract_5,0,5,42,127,1991697908
28,1,1,Ticks_Pract_5,1,5,42,127,1992197476
28,1,1,Ticks_Pract_5,2,5,42,127,1992698388
28,1,1,Ticks_Pract_5,3,5,42,127,1993198032
28,1,1,Ticks_Pract_5,4,5,42,127,1993697672
28,1,1,Ticks_Pract_5,5,5,42,127,1994198436
28,1,1,Ticks_Pract_5,6,5,42,127,1994698080
28,1,1,Ticks_Pract_5,7,5,42,127,1995197868
28,1,1,Ticks_Pract_5,8,5,42,127,1995697436
28,1,1,Ticks_Pract_5,9,5,42,127,1996198248
28,1,1,Ticks_Pract_5,10,5,42,127,1996697964
28,1,1,Ticks_Pract_5,11,5,42,127,1997197680
28,1,1,Ticks_Pract_5,12,5,42,127,1997698368
28,1,1,Ticks_Pract_5,13,5,42,127,1998198160
28,1,1,Ticks_Pract_5,14,5,42,127,1998698100
28,1,1,Ticks_Pract_5,15,5,42,127,1999197740
28,1,1,Ticks_Pract_5,16,5,42,127,1999698432
28,1,1,Ticks_Pract_5,17,5,42,127,2000197924
28,1,1,Ticks_Pract_5,18,5,42,127,2000697788
28,1,1,Ticks_Pract_5,19,5,42,127,2001197356
28,1,1,Ticks_Pract_5,20,5,42,127,2001698120
28,1,1,Ticks_Pract_5,21,5,42,127,2002197984
28,1,1,Ticks_Pract_5,22,5,42,127,2002697552
28,1,1,Ticks_Pract_5,23,5,42,127,2003198240
28,1,1,Ticks_Pract_5,24,5,42,127,2003697960
28,1,1,Ticks_Pract_5,25,5,42,127,2004197824
28,1,1,Ticks_Pract_5,26,5,42,127,2004697540
28,1,1,Ticks_Pract_5,27,5,42,127,2005198152
28,1,1,Ticks_Pract_5,28,1,48,19,2005355276
28,1,1,Ticks_Pract_5,29,5,42,127,2005697848
28,1,1,Ticks_Pract_5,30,5,42,127,2006197712
28,1,1,Ticks_Pract_5,31,5,42,127,2006698400
28,1,1,Ticks_Pract_5,32,5,42,127,2007197944
28,1,1,Ticks_Pract_5,33,5,42,127,2007697808
28,1,1,Ticks_Pract_5,34,5,42,127,2008197748
28,1,1,Ticks_Pract_5,35,5,42,127,2008698140
28,1,1,Ticks_Pract_5,36,5,42,127,2009197932
28,1,1,Ticks_Pract_5,37,5,42,127,2009697644
28,1,1,Ticks_Pract_5,38,5,42,127,2010198704
28,1,1,Ticks_Pract_5,39,5,42,127,2010697976
28,1,1,Ticks_Pract_5,40,5,42,127,2011197692
28,1,1,Ticks_Pract_5,0,9999,9999,9999,1991695472
28,1,1,Ticks_Pract_5,1,9999,9999,9999,1992195188
28,1,1,Ticks_Pract_5,2,9999,9999,9999,1992695876
28,1,1,Ticks_Pract_5,3,9999,9999,9999,1993195592
28,1,1,Ticks_Pract_5,4,9999,9999,9999,1993695308
28,1,1,Ticks_Pract_5,5,9999,9999,9999,1994196072
28,1,1,Ticks_Pract_5,6,9999,9999,9999,1994695788
28,1,1,Ticks_Pract_5,7,9999,9999,9999,1995195504
28,1,1,Ticks_Pract_5,8,9999,9999,9999,1995695220
28,1,1,Ticks_Pract_5,9,9999,9999,9999,1996195960
28,1,1,Ticks_Pract_5,10,9999,9999,9999,1996695600
28,1,1,Ticks_Pract_5,11,9999,9999,9999,1997195316
28,1,1,Ticks_Pract_5,12,9999,9999,9999,1997696084
28,1,1,Ticks_Pract_5,13,9999,9999,9999,1998195796
28,1,1,Ticks_Pract_5,14,9999,9999,9999,1998695512
28,1,1,Ticks_Pract_5,15,9999,9999,9999,1999195228
28,1,1,Ticks_Pract_5,16,9999,9999,9999,1999695992
28,1,1,Ticks_Pract_5,17,9999,9999,9999,2000195636
28,1,1,Ticks_Pract_5,18,9999,9999,9999,2000695348
28,1,1,Ticks_Pract_5,19,9999,9999,9999,2001195068
28,1,1,Ticks_Pract_5,20,9999,9999,9999,2001695828
28,1,1,Ticks_Pract_5,21,9999,9999,9999,2002195548
28,1,1,Ticks_Pract_5,22,9999,9999,9999,2002695264
28,1,1,Ticks_Pract_5,23,9999,9999,9999,2003196024
28,1,1,Ticks_Pract_5,24,9999,9999,9999,2003695668
28,1,1,Ticks_Pract_5,25,9999,9999,9999,2004195384
28,1,1,Ticks_Pract_5,26,9999,9999,9999,2004695100
28,1,1,Ticks_Pract_5,27,9999,9999,9999,2005195864
28,1,1,Ticks_Pract_5,28,9999,9999,9999,2005695556
28,1,1,Ticks_Pract_5,29,9999,9999,9999,2006195272
28,1,1,Ticks_Pract_5,30,9999,9999,9999,2006696012
28,1,1,Ticks_Pract_5,31,9999,9999,9999,2007195728
28,1,1,Ticks_Pract_5,32,9999,9999,9999,2007695444
28,1,1,Ticks_Pract_5,33,9999,9999,9999,2008195160
28,1,1,Ticks_Pract_5,34,9999,9999,9999,2008695924
28,1,1,Ticks_Pract_5,35,9999,9999,9999,2009195640
28,1,1,Ticks_Pract_5,36,9999,9999,9999,2009695280
28,1,1,Ticks_Pract_5,37,9999,9999,9999,2010196044
28,1,1,Ticks_Pract_5,38,9999,9999,9999,2010695760
28,1,1,Ticks_Pract_5,39,9999,9999,9999,2011195476
28,2,1,Ticks_Pract_5,0,5,42,127,2025919056
28,2,1,Ticks_Pract_5,1,5,42,127,2026418848
28,2,1,Ticks_Pract_5,2,5,42,127,2026919216
28,2,1,Ticks_Pract_5,3,1,48,28,2026950332
28,2,1,Ticks_Pract_5,4,5,42,127,2027418984
28,2,1,Ticks_Pract_5,5,1,48,24,2027445392
28,2,1,Ticks_Pract_5,6,5,42,127,2027918900
28,2,1,Ticks_Pract_5,7,1,48,35,2027926504
28,2,1,Ticks_Pract_5,8,5,42,127,2028418524
28,2,1,Ticks_Pract_5,9,1,48,32,2028437948
28,2,1,Ticks_Pract_5,10,1,48,29,2028901944
28,2,1,Ticks_Pract_5,11,5,42,127,2028919256
28,2,1,Ticks_Pract_5,12,1,48,32,2029392964
28,2,1,Ticks_Pract_5,13,5,42,127,2029418800
28,2,1,Ticks_Pract_5,14,5,42,127,2029918652
28,2,1,Ticks_Pract_5,15,1,48,34,2030221512
28,2,1,Ticks_Pract_5,16,5,42,127,2030419392
28,2,1,Ticks_Pract_5,17,1,48,47,2030738560
28,2,1,Ticks_Pract_5,18,5,42,127,2030919012
28,2,1,Ticks_Pract_5,19,1,48,44,2031199804
28,2,1,Ticks_Pract_5,20,5,42,127,2031418856
28,2,1,Ticks_Pract_5,21,1,48,40,2031719096
28,2,1,Ticks_Pract_5,22,5,42,127,2031918552
28,2,1,Ticks_Pract_5,23,1,48,48,2032194928
28,2,1,Ticks_Pract_5,24,5,42,127,2032419068
28,2,1,Ticks_Pract_5,25,1,48,44,2032720956
28,2,1,Ticks_Pract_5,26,5,42,127,2032918764
28,2,1,Ticks_Pract_5,27,1,48,40,2033230520
28,2,1,Ticks_Pract_5,28,5,42,127,2033418532
28,2,1,Ticks_Pract_5,29,1,48,41,2033746372
28,2,1,Ticks_Pract_5,30,5,42,127,2033919420
28,2,1,Ticks_Pract_5,31,1,48,38,2034318472
28,2,1,Ticks_Pract_5,32,5,42,127,2034419116
28,2,1,Ticks_Pract_5,33,1,48,44,2034895452
28,2,1,Ticks_Pract_5,34,5,42,127,2034918752
28,2,1,Ticks_Pract_5,35,5,42,127,2035418452
28,2,1,Ticks_Pract_5,36,1,48,46,2035422392
28,2,1,Ticks_Pract_5,37,5,42,127,2035919120
28,2,1,Ticks_Pract_5,38,1,48,42,2035951404
28,2,1,Ticks_Pract_5,39,5,42,127,2036419036
28,2,1,Ticks_Pract_5,40,1,48,48,2036436960
28,2,1,Ticks_Pract_5,41,1,48,44,2036885900
28,2,1,Ticks_Pract_5,42,5,42,127,2036918576
28,2,1,Ticks_Pract_5,43,1,48,50,2037397644
28,2,1,Ticks_Pract_5,44,5,42,127,2037419388
28,2,1,Ticks_Pract_5,45,5,42,127,2037919216
28,2,1,Ticks_Pract_5,46,1,48,44,2037922260
28,2,1,Ticks_Pract_5,47,5,42,127,2038418832
28,2,1,Ticks_Pract_5,48,1,48,45,2038421804
28,2,1,Ticks_Pract_5,49,1,48,42,2038906292
28,2,1,Ticks_Pract_5,50,5,42,127,2038918448
28,2,1,Ticks_Pract_5,51,1,48,42,2039417756
28,2,1,Ticks_Pract_5,52,5,42,127,2039419560
28,2,1,Ticks_Pract_5,53,1,48,48,2039888404
28,2,1,Ticks_Pract_5,54,5,42,127,2039918956
28,2,1,Ticks_Pract_5,55,1,48,42,2040417980
28,2,1,Ticks_Pract_5,56,5,42,127,2040419624
28,2,1,Ticks_Pract_5,57,1,48,45,2040905592
28,2,1,Ticks_Pract_5,58,5,42,127,2040919468
28,2,1,Ticks_Pract_5,59,5,42,127,2041419092
28,2,1,Ticks_Pract_5,60,1,48,46,2041448692
28,2,1,Ticks_Pract_5,61,5,42,127,2041918788
28,2,1,Ticks_Pract_5,62,1,48,31,2041922352
28,2,1,Ticks_Pract_5,63,5,42,127,2042418632
28,2,1,Ticks_Pract_5,64,1,48,46,2042438736
28,2,1,Ticks_Pract_5,65,5,42,127,2042919376
28,2,1,Ticks_Pract_5,66,1,48,46,2042922492
28,2,1,Ticks_Pract_5,67,5,42,127,2043418924
28,2,1,Ticks_Pract_5,68,1,48,48,2043445072
28,2,1,Ticks_Pract_5,69,1,48,47,2043909072
28,2,1,Ticks_Pract_5,70,5,42,127,2043918608
28,2,1,Ticks_Pract_5,71,5,42,127,2044418388
28,2,1,Ticks_Pract_5,72,1,48,50,2044458012
28,2,1,Ticks_Pract_5,73,5,42,127,2044919204
28,2,1,Ticks_Pract_5,74,1,48,45,2044938260
28,2,1,Ticks_Pract_5,75,5,42,127,2045418824
28,2,1,Ticks_Pract_5,76,1,48,42,2045420688
28,2,1,Ticks_Pract_5,77,1,48,35,2045906808
28,2,1,Ticks_Pract_5,0,9999,9999,9999,2025916472
28,2,1,Ticks_Pract_5,1,9999,9999,9999,2026416188
28,2,1,Ticks_Pract_5,2,9999,9999,9999,2026916928
28,2,1,Ticks_Pract_5,3,9999,9999,9999,2027416700
28,2,1,Ticks_Pract_5,4,9999,9999,9999,2027916392
28,2,1,Ticks_Pract_5,5,9999,9999,9999,2028416088
28,2,1,Ticks_Pract_5,6,9999,9999,9999,2028916820
28,2,1,Ticks_Pract_5,7,9999,9999,9999,2029416516
28,2,1,Ticks_Pract_5,8,9999,9999,9999,2029916216
28,2,1,Ticks_Pract_5,9,9999,9999,9999,2030416960
28,2,1,Ticks_Pract_5,10,9999,9999,9999,2030916728
28,2,1,Ticks_Pract_5,11,9999,9999,9999,2031416420
28,2,1,Ticks_Pract_5,12,9999,9999,9999,2031916116
28,2,1,Ticks_Pract_5,13,9999,9999,9999,2032416856
28,2,1,Ticks_Pract_5,14,9999,9999,9999,2032916552
28,2,1,Ticks_Pract_5,15,9999,9999,9999,2033416244
28,2,1,Ticks_Pract_5,16,9999,9999,9999,2033916988
28,2,1,Ticks_Pract_5,17,9999,9999,9999,2034416696
28,2,1,Ticks_Pract_5,18,9999,9999,9999,2034916464
28,2,1,Ticks_Pract_5,19,9999,9999,9999,2035416164
28,2,1,Ticks_Pract_5,20,9999,9999,9999,2035916908
28,2,1,Ticks_Pract_5,21,9999,9999,9999,2036416604
28,2,1,Ticks_Pract_5,22,9999,9999,9999,2036916288
28,2,1,Ticks_Pract_5,23,9999,9999,9999,2037417028
28,2,1,Ticks_Pract_5,24,9999,9999,9999,2037916780
28,2,1,Ticks_Pract_5,25,9999,9999,9999,2038416472
28,2,1,Ticks_Pract_5,26,9999,9999,9999,2038916160
28,2,1,Ticks_Pract_5,27,9999,9999,9999,2039416908
28,2,1,Ticks_Pract_5,28,9999,9999,9999,2039916596
28,2,1,Ticks_Pract_5,29,9999,9999,9999,2040416372
28,2,1,Ticks_Pract_5,30,9999,9999,9999,2040917104
28,2,1,Ticks_Pract_5,31,9999,9999,9999,2041416808
28,2,1,Ticks_Pract_5,32,9999,9999,9999,2041916500
28,2,1,Ticks_Pract_5,33,9999,9999,9999,2042416196
28,2,1,Ticks_Pract_5,34,9999,9999,9999,2042916940
28,2,1,Ticks_Pract_5,35,9999,9999,9999,2043416636
28,2,1,Ticks_Pract_5,36,9999,9999,9999,2043916396
28,2,1,Ticks_Pract_5,37,9999,9999,9999,2044416100
28,2,1,Ticks_Pract_5,38,9999,9999,9999,2044916844
28,2,1,Ticks_Pract_5,39,9999,9999,9999,2045416540
28,3,0,Ticks_Pract_8,0,1,48,16,2076059680
28,3,0,Ticks_Pract_8,1,1,48,17,2076060736
28,3,0,Ticks_Pract_8,2,5,42,127,2076860868
28,3,0,Ticks_Pract_8,3,5,42,127,2077660476
28,3,0,Ticks_Pract_8,4,1,48,40,2078419948
28,3,0,Ticks_Pract_8,5,5,42,127,2078461420
28,3,0,Ticks_Pract_8,6,5,42,127,2079260936
28,3,0,Ticks_Pract_8,7,1,48,38,2079266520
28,3,0,Ticks_Pract_8,8,1,48,39,2080038860
28,3,0,Ticks_Pract_8,9,5,42,127,2080060736
28,3,0,Ticks_Pract_8,10,1,48,38,2080812864
28,3,0,Ticks_Pract_8,11,5,42,127,2080860620
28,3,0,Ticks_Pract_8,12,1,48,35,2081650296
28,3,0,Ticks_Pract_8,13,5,42,127,2081661180
28,3,0,Ticks_Pract_8,14,1,48,38,2082422280
28,3,0,Ticks_Pract_8,15,5,42,127,2082460988
28,3,0,Ticks_Pract_8,16,1,48,35,2083204436
28,3,0,Ticks_Pract_8,17,5,42,127,2083260744
28,3,0,Ticks_Pract_8,18,1,48,41,2084010404
28,3,0,Ticks_Pract_8,19,5,42,127,2084060552
28,3,0,Ticks_Pract_8,20,1,48,44,2084782240
28,3,0,Ticks_Pract_8,21,5,42,127,2084861480
28,3,0,Ticks_Pract_8,22,1,48,43,2085634184
28,3,0,Ticks_Pract_8,23,5,42,127,2085661140
28,3,0,Ticks_Pract_8,24,1,48,46,2086425240
28,3,0,Ticks_Pract_8,25,5,42,127,2086460728
28,3,0,Ticks_Pract_8,26,1,48,39,2087228336
28,3,0,Ticks_Pract_8,27,5,42,127,2087260388
28,3,0,Ticks_Pract_8,28,1,48,38,2087989628
28,3,0,Ticks_Pract_8,29,5,42,127,2088061540
28,3,0,Ticks_Pract_8,30,1,48,31,2088832148
28,3,0,Ticks_Pract_8,31,5,42,127,2088861124
28,3,0,Ticks_Pract_8,32,1,48,42,2089595376
28,3,0,Ticks_Pract_8,33,5,42,127,2089660884
28,3,0,Ticks_Pract_8,34,1,48,28,2090427372
28,3,0,Ticks_Pract_8,35,5,42,127,2090460544
28,3,0,Ticks_Pract_8,36,1,48,35,2091230252
28,3,0,Ticks_Pract_8,37,5,42,127,2091261248
28,3,0,Ticks_Pract_8,38,1,48,45,2091971640
28,3,0,Ticks_Pract_8,39,5,42,127,2092061056
28,3,0,Ticks_Pract_8,40,1,48,40,2092819388
28,3,0,Ticks_Pract_8,41,5,42,127,2092860940
28,3,0,Ticks_Pract_8,42,1,48,40,2093614788
28,3,0,Ticks_Pract_8,43,5,42,127,2093660376
28,3,0,Ticks_Pract_8,44,5,42,127,2094461384
28,3,0,Ticks_Pract_8,45,1,48,42,2094474152
28,3,0,Ticks_Pract_8,46,5,42,127,2095260968
28,3,0,Ticks_Pract_8,47,1,48,46,2095279072
28,3,0,Ticks_Pract_8,48,1,48,51,2096051936
28,3,0,Ticks_Pract_8,49,5,42,127,2096060724
28,3,0,Ticks_Pract_8,50,1,48,49,2096848084
28,3,0,Ticks_Pract_8,51,5,42,127,2096860456
28,3,0,Ticks_Pract_8,52,1,48,48,2097639812
28,3,0,Ticks_Pract_8,53,5,42,127,2097661164
28,3,0,Ticks_Pract_8,54,1,48,46,2098420544
28,3,0,Ticks_Pract_8,55,5,42,127,2098461120
28,3,0,Ticks_Pract_8,56,1,48,48,2099214968
28,3,0,Ticks_Pract_8,57,5,42,127,2099260928
28,3,0,Ticks_Pract_8,58,1,48,43,2100023828
28,3,0,Ticks_Pract_8,59,5,42,127,2100060516
28,3,0,Ticks_Pract_8,60,1,48,39,2100827004
28,3,0,Ticks_Pract_8,0,9999,9999,9999,2076858432
28,3,0,Ticks_Pract_8,1,9999,9999,9999,2077658188
28,3,0,Ticks_Pract_8,2,9999,9999,9999,2078458984
28,3,0,Ticks_Pract_8,3,9999,9999,9999,2079258720
28,3,0,Ticks_Pract_8,4,9999,9999,9999,2080058448
28,3,0,Ticks_Pract_8,5,9999,9999,9999,2080858184
28,3,0,Ticks_Pract_8,6,9999,9999,9999,2081658964
28,3,0,Ticks_Pract_8,7,9999,9999,9999,2082458700
28,3,0,Ticks_Pract_8,8,9999,9999,9999,2083258456
28,3,0,Ticks_Pract_8,9,9999,9999,9999,2084058192
28,3,0,Ticks_Pract_8,10,9999,9999,9999,2084858968
28,3,0,Ticks_Pract_8,11,9999,9999,9999,2085658704
28,3,0,Ticks_Pract_8,12,9999,9999,9999,2086458440
28,3,0,Ticks_Pract_8,13,9999,9999,9999,2087258172
28,3,0,Ticks_Pract_8,14,9999,9999,9999,2088058956
28,3,0,Ticks_Pract_8,15,9999,9999,9999,2088858688
28,3,0,Ticks_Pract_8,16,9999,9999,9999,2089658448
28,3,0,Ticks_Pract_8,17,9999,9999,9999,2090458180
28,3,0,Ticks_Pract_8,18,9999,9999,9999,2091258960
28,3,0,Ticks_Pract_8,19,9999,9999,9999,2092058692
28,3,0,Ticks_Pract_8,20,9999,9999,9999,2092858428
28,3,0,Ticks_Pract_8,21,9999,9999,9999,2093658164
28,3,0,Ticks_Pract_8,22,9999,9999,9999,2094458948
28,3,0,Ticks_Pract_8,23,9999,9999,9999,2095258680
28,3,0,Ticks_Pract_8,24,9999,9999,9999,2096058436
28,3,0,Ticks_Pract_8,25,9999,9999,9999,2096858168
28,3,0,Ticks_Pract_8,26,9999,9999,9999,2097658948
28,3,0,Ticks_Pract_8,27,9999,9999,9999,2098458684
28,3,0,Ticks_Pract_8,28,9999,9999,9999,2099258416
28,3,0,Ticks_Pract_8,29,9999,9999,9999,2100058228
28,4,4,T1_SMS_5,0,5,42,127,2177193536
28,4,4,T1_SMS_5,1,5,42,127,2177693032
28,4,4,T1_SMS_5,2,5,42,127,2178192796
28,4,4,T1_SMS_5,3,5,42,127,2178692588
28,4,4,T1_SMS_5,4,1,48,40,2179176784
28,4,4,T1_SMS_5,5,5,42,127,2179193044
28,4,4,T1_SMS_5,6,5,42,127,2179692896
28,4,4,T1_SMS_5,7,1,48,39,2179695716
28,4,4,T1_SMS_5,8,1,48,39,2180192212
28,4,4,T1_SMS_5,9,5,42,127,2180193928
28,4,4,T1_SMS_5,10,1,48,33,2180689624
28,4,4,T1_SMS_5,11,5,42,127,2180693400
28,4,4,T1_SMS_5,12,1,48,37,2181169204
28,4,4,T1_SMS_5,13,5,42,127,2181193092
28,4,4,T1_SMS_5,14,5,42,127,2181692720
28,4,4,T1_SMS_5,15,1,48,39,2181711176
28,4,4,T1_SMS_5,16,1,48,37,2182181304
28,4,4,T1_SMS_5,17,5,42,127,2182192484
28,4,4,T1_SMS_5,18,5,42,127,2182693456
28,4,4,T1_SMS_5,19,1,48,38,2182699048
28,4,4,T1_SMS_5,20,1,48,36,2183175980
28,4,4,T1_SMS_5,21,5,42,127,2183192996
28,4,4,T1_SMS_5,22,5,42,127,2183692772
28,4,4,T1_SMS_5,23,1,48,39,2183696264
28,4,4,T1_SMS_5,24,5,42,127,2184193368
28,4,4,T1_SMS_5,25,1,48,45,2184198804
28,4,4,T1_SMS_5,26,5,42,127,2184693136
28,4,4,T1_SMS_5,27,1,48,40,2184712416
28,4,4,T1_SMS_5,28,1,48,43,2185190788
28,4,4,T1_SMS_5,29,5,42,127,2185192752
28,4,4,T1_SMS_5,30,1,48,41,2185684112
28,4,4,T1_SMS_5,31,5,42,127,2185692448
28,4,4,T1_SMS_5,32,1,48,35,2186155084
28,4,4,T1_SMS_5,33,5,42,127,2186193412
28,4,4,T1_SMS_5,34,5,42,127,2186693112
28,4,4,T1_SMS_5,35,1,48,42,2186697208
28,4,4,T1_SMS_5,36,1,48,35,2187178852
28,4,4,T1_SMS_5,37,5,42,127,2187192728
28,4,4,T1_SMS_5,38,1,48,37,2187664688
28,4,4,T1_SMS_5,39,5,42,127,2187693544
28,4,4,T1_SMS_5,40,1,48,34,2188186592
28,4,4,T1_SMS_5,41,5,42,127,2188193016
28,4,4,T1_SMS_5,42,1,48,39,2188649264
28,4,4,T1_SMS_5,43,5,42,127,2188693132
28,4,4,T1_SMS_5,44,1,48,36,2189175892
28,4,4,T1_SMS_5,45,5,42,127,2189192604
28,4,4,T1_SMS_5,46,5,42,127,2189693424
28,4,4,T1_SMS_5,47,1,48,31,2189710388
28,4,4,T1_SMS_5,48,1,48,40,2190168472
28,4,4,T1_SMS_5,49,5,42,127,2190193040
28,4,4,T1_SMS_5,50,1,48,38,2190668244
28,4,4,T1_SMS_5,51,5,42,127,2190692732
28,4,4,T1_SMS_5,52,1,48,38,2191180128
28,4,4,T1_SMS_5,53,5,42,127,2191192428
28,4,4,T1_SMS_5,54,1,48,43,2191690368
28,4,4,T1_SMS_5,55,5,42,127,2191693020
28,4,4,T1_SMS_5,56,5,42,127,2192193168
28,4,4,T1_SMS_5,57,1,48,46,2192196360
28,4,4,T1_SMS_5,58,5,42,127,2192692564
28,4,4,T1_SMS_5,59,1,48,40,2192696732
28,4,4,T1_SMS_5,60,5,42,127,2193193456
28,4,4,T1_SMS_5,61,1,48,45,2193210864
28,4,4,T1_SMS_5,62,5,42,127,2193693076
28,4,4,T1_SMS_5,63,1,48,47,2193703228
28,4,4,T1_SMS_5,64,1,48,45,2194183828
28,4,4,T1_SMS_5,65,5,42,127,2194192840
28,4,4,T1_SMS_5,66,1,48,32,2194674024
28,4,4,T1_SMS_5,67,5,42,127,2194692460
28,4,4,T1_SMS_5,68,5,42,127,2195193060
28,4,4,T1_SMS_5,69,1,48,22,2195205528
28,4,4,T1_SMS_5,70,1,48,42,2195692608
28,4,4,T1_SMS_5,71,5,42,127,2195694316
28,4,4,T1_SMS_5,72,1,48,40,2196177004
28,4,4,T1_SMS_5,73,5,42,127,2196192740
28,4,4,T1_SMS_5,74,1,48,46,2196672732
28,4,4,T1_SMS_5,75,5,42,127,2196693336
28,4,4,T1_SMS_5,76,1,48,44,2197190304
28,4,4,T1_SMS_5,77,5,42,127,2197193032
28,4,4,T1_SMS_5,78,1,48,44,2197666212
28,4,4,T1_SMS_5,79,5,42,127,2197692800
28,4,4,T1_SMS_5,80,5,42,127,2198192428
28,4,4,T1_SMS_5,81,1,48,38,2198203248
28,4,4,T1_SMS_5,82,1,48,36,2198652636
28,4,4,T1_SMS_5,83,5,42,127,2198693164
28,4,4,T1_SMS_5,84,5,42,127,2199192988
28,4,4,T1_SMS_5,85,1,48,38,2199218476
28,4,4,T1_SMS_5,86,5,42,127,2199692808
28,4,4,T1_SMS_5,87,1,48,46,2199714572
28,4,4,T1_SMS_5,88,5,42,127,2200193328
28,4,4,T1_SMS_5,89,1,48,41,2200203024
28,4,4,T1_SMS_5,90,1,48,44,2200675624
28,4,4,T1_SMS_5,91,5,42,127,2200693160
28,4,4,T1_SMS_5,92,5,42,127,2201192864
28,4,4,T1_SMS_5,93,1,48,34,2201200248
28,4,4,T1_SMS_5,94,1,48,37,2201666112
28,4,4,T1_SMS_5,95,5,42,127,2201692480
28,4,4,T1_SMS_5,96,5,42,127,2202193152
28,4,4,T1_SMS_5,97,1,48,34,2202196124
28,4,4,T1_SMS_5,98,1,48,35,2202666476
28,4,4,T1_SMS_5,99,5,42,127,2202692916
28,4,4,T1_SMS_5,100,1,48,33,2203178292
28,4,4,T1_SMS_5,101,5,42,127,2203192684
28,4,4,T1_SMS_5,102,1,48,39,2203692380
28,4,4,T1_SMS_5,103,5,42,127,2203694100
28,4,4,T1_SMS_5,104,1,48,31,2204159876
28,4,4,T1_SMS_5,105,5,42,127,2204193048
28,4,4,T1_SMS_5,106,1,48,40,2204678048
28,4,4,T1_SMS_5,107,5,42,127,2204692816
28,4,4,T1_SMS_5,108,1,48,27,2205187916
28,4,4,T1_SMS_5,109,5,42,127,2205192664
28,4,4,T1_SMS_5,110,5,42,127,2205693336
28,4,4,T1_SMS_5,111,1,48,42,2205696384
28,4,4,T1_SMS_5,112,5,42,127,2206192956
28,4,4,T1_SMS_5,113,1,48,33,2206216424
28,4,4,T1_SMS_5,114,5,42,127,2206692728
28,4,4,T1_SMS_5,115,1,48,34,2206709312
28,4,4,T1_SMS_5,116,1,48,38,2207189092
28,4,4,T1_SMS_5,117,5,42,127,2207192340
28,4,4,T1_SMS_5,118,5,42,127,2207693388
28,4,4,T1_SMS_5,119,1,48,35,2207701816
28,4,4,T1_SMS_5,120,1,48,40,2208175168
28,4,4,T1_SMS_5,121,5,42,127,2208192852
28,4,4,T1_SMS_5,122,5,42,127,2208692480
28,4,4,T1_SMS_5,123,1,48,33,2208704796
28,4,4,T1_SMS_5,124,1,48,45,2209177300
28,4,4,T1_SMS_5,125,5,42,127,2209193364
28,4,4,T1_SMS_5,126,5,42,127,2209692988
28,4,4,T1_SMS_5,127,1,48,29,2209708600
28,4,4,T1_SMS_5,128,5,42,127,2210192732
28,4,4,T1_SMS_5,129,1,48,30,2210210684
28,4,4,T1_SMS_5,130,5,42,127,2210692428
28,4,4,T1_SMS_5,131,1,48,33,2210712228
28,4,4,T1_SMS_5,132,1,48,40,2211170616
28,4,4,T1_SMS_5,133,5,42,127,2211193460
28,4,4,T1_SMS_5,134,1,48,29,2211686164
28,4,4,T1_SMS_5,135,5,42,127,2211693008
28,4,4,T1_SMS_5,136,1,48,43,2212190668
28,4,4,T1_SMS_5,137,5,42,127,2212192552
28,4,4,T1_SMS_5,138,1,48,39,2212671648
28,4,4,T1_SMS_5,139,5,42,127,2212693368
28,4,4,T1_SMS_5,140,5,42,127,2213193144
28,4,4,T1_SMS_5,141,1,48,40,2213194336
28,4,4,T1_SMS_5,142,1,48,47,2213678964
28,4,4,T1_SMS_5,143,5,42,127,2213692836
28,4,4,T1_SMS_5,144,5,42,127,2214192460
28,4,4,T1_SMS_5,145,1,48,36,2214212556
28,4,4,T1_SMS_5,146,1,48,42,2214666984
28,4,4,T1_SMS_5,147,5,42,127,2214693272
28,4,4,T1_SMS_5,148,5,42,127,2215193048
28,4,4,T1_SMS_5,149,1,48,40,2215205292
28,4,4,T1_SMS_5,150,1,48,41,2215683504
28,4,4,T1_SMS_5,151,5,42,127,2215692512
28,4,4,T1_SMS_5,152,5,42,127,2216193484
28,4,4,T1_SMS_5,153,1,48,38,2216200868
28,4,4,T1_SMS_5,154,1,48,37,2216657608
28,4,4,T1_SMS_5,155,5,42,127,2216693024
28,4,4,T1_SMS_5,156,5,42,127,2217193096
28,4,4,T1_SMS_5,157,1,48,31,2217200480
28,4,4,T1_SMS_5,158,1,48,39,2217687372
28,4,4,T1_SMS_5,159,5,42,127,2217692564
28,4,4,T1_SMS_5,160,1,48,26,2218189232
28,4,4,T1_SMS_5,161,5,42,127,2218193228
28,4,4,T1_SMS_5,162,5,42,127,2218693080
28,4,4,T1_SMS_5,163,1,48,34,2218723052
28,4,4,T1_SMS_5,164,1,48,40,2219186000
28,4,4,T1_SMS_5,165,5,42,127,2219192620
28,4,4,T1_SMS_5,166,1,48,38,2219676200
28,4,4,T1_SMS_5,167,5,42,127,2219693436
28,4,4,T1_SMS_5,168,1,48,26,2220188912
28,4,4,T1_SMS_5,169,5,42,127,2220193132
28,4,4,T1_SMS_5,170,5,42,127,2220693108
28,4,4,T1_SMS_5,171,1,48,42,2220700588
28,4,4,T1_SMS_5,172,5,42,127,2221192504
28,4,4,T1_SMS_5,173,1,48,19,2221203928
28,4,4,T1_SMS_5,174,5,42,127,2221693248
28,4,4,T1_SMS_5,175,1,48,37,2221711628
28,4,4,T1_SMS_5,176,5,42,127,2222193016
28,4,4,T1_SMS_5,177,1,48,30,2222201444
28,4,4,T1_SMS_5,178,5,42,127,2222692784
28,4,4,T1_SMS_5,179,1,48,36,2222710044
28,4,4,T1_SMS_5,180,1,48,37,2223181144
28,4,4,T1_SMS_5,181,5,42,127,2223192768
28,4,4,T1_SMS_5,182,5,42,127,2223693220
28,4,4,T1_SMS_5,183,1,48,28,2223723488
28,4,4,T1_SMS_5,184,5,42,127,2224192992
28,4,4,T1_SMS_5,185,1,48,32,2224208080
28,4,4,T1_SMS_5,186,5,42,127,2224692832
28,4,4,T1_SMS_5,187,1,48,31,2224704928
28,4,4,T1_SMS_5,188,1,48,35,2225184112
28,4,4,T1_SMS_5,189,5,42,127,2225193196
28,4,4,T1_SMS_5,190,5,42,127,2225692972
28,4,4,T1_SMS_5,191,1,48,25,2225704468
28,4,4,T1_SMS_5,192,5,42,127,2226192740
28,4,4,T1_SMS_5,193,1,48,34,2226215528
28,4,4,T1_SMS_5,194,5,42,127,2226692808
28,4,4,T1_SMS_5,195,1,48,29,2226695408
28,4,4,T1_SMS_5,196,1,48,38,2227175932
28,4,4,T1_SMS_5,197,5,42,127,2227193172
28,4,4,T1_SMS_5,198,5,42,127,2227692796
28,4,4,T1_SMS_5,199,1,48,29,2227717536
28,4,4,T1_SMS_5,200,1,48,30,2228189612
28,4,4,T1_SMS_5,201,5,42,127,2228192784
28,4,4,T1_SMS_5,202,1,48,30,2228674940
28,4,4,T1_SMS_5,203,5,42,127,2228693600
28,4,4,T1_SMS_5,204,1,48,34,2229170972
28,4,4,T1_SMS_5,205,5,42,127,2229193144
28,4,4,T1_SMS_5,206,1,48,35,2229674332
28,4,4,T1_SMS_5,207,5,42,127,2229692768
28,4,4,T1_SMS_5,208,1,48,40,2230166676
28,4,4,T1_SMS_5,209,5,42,127,2230192388
28,4,4,T1_SMS_5,210,1,48,34,2230638992
28,4,4,T1_SMS_5,211,5,42,127,2230693276
28,4,4,T1_SMS_5,212,5,42,127,2231192832
28,4,4,T1_SMS_5,213,1,48,42,2231203652
28,4,4,T1_SMS_5,214,5,42,127,2231692500
28,4,4,T1_SMS_5,215,1,48,36,2231728260
28,4,4,T1_SMS_5,216,5,42,127,2232193316
28,4,4,T1_SMS_5,217,1,48,37,2232228552
28,4,4,T1_SMS_5,218,5,42,127,2232693384
28,4,4,T1_SMS_5,219,1,48,35,2232719240
28,4,4,T1_SMS_5,220,5,42,127,2233192780
28,4,4,T1_SMS_5,221,1,48,34,2233196272
28,4,4,T1_SMS_5,222,1,48,36,2233660576
28,4,4,T1_SMS_5,223,5,42,127,2233692472
28,4,4,T1_SMS_5,224,5,42,127,2234193220
28,4,4,T1_SMS_5,225,1,48,36,2234204268
28,4,4,T1_SMS_5,226,5,42,127,2234693212
28,4,4,T1_SMS_5,227,1,48,38,2234712040
28,4,4,T1_SMS_5,228,5,42,127,2235192608
28,4,4,T1_SMS_5,229,5,42,127,2235693372
28,4,4,T1_SMS_5,230,1,48,39,2235706816
28,4,4,T1_SMS_5,231,1,48,38,2236154504
28,4,4,T1_SMS_5,232,5,42,127,2236193360
28,4,4,T1_SMS_5,233,1,48,25,2236214492
28,4,4,T1_SMS_5,234,1,48,38,2236690380
28,4,4,T1_SMS_5,235,5,42,127,2236692884
28,4,4,T1_SMS_5,236,5,42,127,2237192584
28,4,4,T1_SMS_5,237,1,48,37,2237222108
28,4,4,T1_SMS_5,238,5,42,127,2237693176
28,4,4,T1_SMS_5,239,1,48,39,2237723296
28,4,4,T1_SMS_5,240,5,42,127,2238192948
28,4,4,T1_SMS_5,241,1,48,38,2238202272
28,4,4,T1_SMS_5,242,5,42,127,2238692640
28,4,4,T1_SMS_5,243,1,48,41,2238706832
28,4,4,T1_SMS_5,244,1,48,42,2239179132
28,4,4,T1_SMS_5,245,5,42,127,2239192328
28,4,4,T1_SMS_5,246,5,42,127,2239693152
28,4,4,T1_SMS_5,247,1,48,40,2239733444
28,4,4,T1_SMS_5,248,5,42,127,2240193000
28,4,4,T1_SMS_5,249,1,48,38,2240206888
28,4,4,T1_SMS_5,250,1,48,36,2240680536
28,4,4,T1_SMS_5,251,5,42,127,2240692464
28,4,4,T1_SMS_5,252,5,42,127,2241193360
28,4,4,T1_SMS_5,253,1,48,35,2241219516
28,4,4,T1_SMS_5,254,1,48,38,2241679080
28,4,4,T1_SMS_5,255,5,42,127,2241692976
28,4,4,T1_SMS_5,0,9999,9999,9999,2177191028
28,4,4,T1_SMS_5,1,9999,9999,9999,2177690720
28,4,4,T1_SMS_5,2,9999,9999,9999,2178190436
28,4,4,T1_SMS_5,3,9999,9999,9999,2178690152
28,4,4,T1_SMS_5,4,9999,9999,9999,2179190832
28,4,4,T1_SMS_5,5,9999,9999,9999,2179690608
28,4,4,T1_SMS_5,6,9999,9999,9999,2180190304
28,4,4,T1_SMS_5,7,9999,9999,9999,2180691040
28,4,4,T1_SMS_5,8,9999,9999,9999,2181190732
28,4,4,T1_SMS_5,9,9999,9999,9999,2181690436
28,4,4,T1_SMS_5,10,9999,9999,9999,2182190196
28,4,4,T1_SMS_5,11,9999,9999,9999,2182690872
28,4,4,T1_SMS_5,12,9999,9999,9999,2183190636
28,4,4,T1_SMS_5,13,9999,9999,9999,2183690336
28,4,4,T1_SMS_5,14,9999,9999,9999,2184191080
28,4,4,T1_SMS_5,15,9999,9999,9999,2184690776
28,4,4,T1_SMS_5,16,9999,9999,9999,2185190504
28,4,4,T1_SMS_5,17,9999,9999,9999,2185690160
28,4,4,T1_SMS_5,18,9999,9999,9999,2186190900
28,4,4,T1_SMS_5,19,9999,9999,9999,2186690676
28,4,4,T1_SMS_5,20,9999,9999,9999,2187190364
28,4,4,T1_SMS_5,21,9999,9999,9999,2187691108
28,4,4,T1_SMS_5,22,9999,9999,9999,2188190804
28,4,4,T1_SMS_5,23,9999,9999,9999,2188690548
28,4,4,T1_SMS_5,24,9999,9999,9999,2189190244
28,4,4,T1_SMS_5,25,9999,9999,9999,2189690992
28,4,4,T1_SMS_5,26,9999,9999,9999,2190190680
28,4,4,T1_SMS_5,27,9999,9999,9999,2190690372
28,4,4,T1_SMS_5,28,9999,9999,9999,2191190068
28,4,4,T1_SMS_5,29,9999,9999,9999,2191690808
28,4,4,T1_SMS_5,30,9999,9999,9999,2192190584
28,4,4,T1_SMS_5,31,9999,9999,9999,2192690280
28,4,4,T1_SMS_5,32,9999,9999,9999,2193191020
28,4,4,T1_SMS_5,33,9999,9999,9999,2193690716
28,4,4,T1_SMS_5,34,9999,9999,9999,2194190404
28,4,4,T1_SMS_5,35,9999,9999,9999,2194690100
28,4,4,T1_SMS_5,36,9999,9999,9999,2195190848
28,4,4,T1_SMS_5,37,9999,9999,9999,2195690616
28,4,4,T1_SMS_5,38,9999,9999,9999,2196190308
28,4,4,T1_SMS_5,39,9999,9999,9999,2196691048
28,4,4,T1_SMS_5,40,9999,9999,9999,2197190744
28,4,4,T1_SMS_5,41,9999,9999,9999,2197690440
28,4,4,T1_SMS_5,42,9999,9999,9999,2198190140
28,4,4,T1_SMS_5,43,9999,9999,9999,2198690876
28,4,4,T1_SMS_5,44,9999,9999,9999,2199190628
28,4,4,T1_SMS_5,45,9999,9999,9999,2199690296
28,4,4,T1_SMS_5,46,9999,9999,9999,2200191040
28,4,4,T1_SMS_5,47,9999,9999,9999,2200690800
28,4,4,T1_SMS_5,48,9999,9999,9999,2201190504
28,4,4,T1_SMS_5,49,9999,9999,9999,2201690192
28,4,4,T1_SMS_5,50,9999,9999,9999,2202190940
28,4,4,T1_SMS_5,51,9999,9999,9999,2202690628
28,4,4,T1_SMS_5,52,9999,9999,9999,2203190324
28,4,4,T1_SMS_5,53,9999,9999,9999,2203691072
28,4,4,T1_SMS_5,54,9999,9999,9999,2204190836
28,4,4,T1_SMS_5,55,9999,9999,9999,2204690528
28,4,4,T1_SMS_5,56,9999,9999,9999,2205190228
28,4,4,T1_SMS_5,57,9999,9999,9999,2205690976
28,4,4,T1_SMS_5,58,9999,9999,9999,2206190672
28,4,4,T1_SMS_5,59,9999,9999,9999,2206690368
28,4,4,T1_SMS_5,60,9999,9999,9999,2207190128
28,4,4,T1_SMS_5,61,9999,9999,9999,2207690800
28,4,4,T1_SMS_5,62,9999,9999,9999,2208190564
28,4,4,T1_SMS_5,63,9999,9999,9999,2208690268
28,4,4,T1_SMS_5,64,9999,9999,9999,2209191000
28,4,4,T1_SMS_5,65,9999,9999,9999,2209690704
28,4,4,T1_SMS_5,66,9999,9999,9999,2210190448
28,4,4,T1_SMS_5,67,9999,9999,9999,2210690144
28,4,4,T1_SMS_5,68,9999,9999,9999,2211190876
28,4,4,T1_SMS_5,69,9999,9999,9999,2211690572
28,4,4,T1_SMS_5,70,9999,9999,9999,2212190296
28,4,4,T1_SMS_5,71,9999,9999,9999,2212691008
28,4,4,T1_SMS_5,72,9999,9999,9999,2213190712
28,4,4,T1_SMS_5,73,9999,9999,9999,2213690476
28,4,4,T1_SMS_5,74,9999,9999,9999,2214190176
28,4,4,T1_SMS_5,75,9999,9999,9999,2214690908
28,4,4,T1_SMS_5,76,9999,9999,9999,2215190612
28,4,4,T1_SMS_5,77,9999,9999,9999,2215690300
28,4,4,T1_SMS_5,78,9999,9999,9999,2216191048
28,4,4,T1_SMS_5,79,9999,9999,9999,2216690736
28,4,4,T1_SMS_5,80,9999,9999,9999,2217190512
28,4,4,T1_SMS_5,81,9999,9999,9999,2217690204
28,4,4,T1_SMS_5,82,9999,9999,9999,2218190944
28,4,4,T1_SMS_5,83,9999,9999,9999,2218690648
28,4,4,T1_SMS_5,84,9999,9999,9999,2219190336
28,4,4,T1_SMS_5,85,9999,9999,9999,2219691076
28,4,4,T1_SMS_5,86,9999,9999,9999,2220190772
28,4,4,T1_SMS_5,87,9999,9999,9999,2220690524
28,4,4,T1_SMS_5,88,9999,9999,9999,2221190220
28,4,4,T1_SMS_5,89,9999,9999,9999,2221690960
28,4,4,T1_SMS_5,90,9999,9999,9999,2222190656
28,4,4,T1_SMS_5,91,9999,9999,9999,2222690424
28,4,4,T1_SMS_5,92,9999,9999,9999,2223190112
28,4,4,T1_SMS_5,93,9999,9999,9999,2223690860
28,4,4,T1_SMS_5,94,9999,9999,9999,2224190556
28,4,4,T1_SMS_5,95,9999,9999,9999,2224690248
28,4,4,T1_SMS_5,96,9999,9999,9999,2225190984
28,4,4,T1_SMS_5,97,9999,9999,9999,2225690684
28,4,4,T1_SMS_5,98,9999,9999,9999,2226190452
28,4,4,T1_SMS_5,99,9999,9999,9999,2226690148
28,4,4,T1_SMS_5,100,9999,9999,9999,2227190884
28,4,4,T1_SMS_5,101,9999,9999,9999,2227690584
28,4,4,T1_SMS_5,102,9999,9999,9999,2228190276
28,4,4,T1_SMS_5,103,9999,9999,9999,2228691016
28,4,4,T1_SMS_5,104,9999,9999,9999,2229190708
28,4,4,T1_SMS_5,105,9999,9999,9999,2229690480
28,4,4,T1_SMS_5,106,9999,9999,9999,2230190176
28,4,4,T1_SMS_5,107,9999,9999,9999,2230690916
28,4,4,T1_SMS_5,108,9999,9999,9999,2231190592
28,4,4,T1_SMS_5,109,9999,9999,9999,2231690288
28,4,4,T1_SMS_5,110,9999,9999,9999,2232191032
28,4,4,T1_SMS_5,111,9999,9999,9999,2232690800
28,4,4,T1_SMS_5,112,9999,9999,9999,2233190496
28,4,4,T1_SMS_5,113,9999,9999,9999,2233690184
28,4,4,T1_SMS_5,114,9999,9999,9999,2234190932
28,4,4,T1_SMS_5,115,9999,9999,9999,2234690628
28,4,4,T1_SMS_5,116,9999,9999,9999,2235190324
28,4,4,T1_SMS_5,117,9999,9999,9999,2235691088
28,4,4,T1_SMS_5,118,9999,9999,9999,2236190776
28,4,4,T1_SMS_5,119,9999,9999,9999,2236690520
28,4,4,T1_SMS_5,120,9999,9999,9999,2237190224
28,4,4,T1_SMS_5,121,9999,9999,9999,2237690964
28,4,4,T1_SMS_5,122,9999,9999,9999,2238190660
28,4,4,T1_SMS_5,123,9999,9999,9999,2238690356
28,4,4,T1_SMS_5,124,9999,9999,9999,2239190116
28,4,4,T1_SMS_5,125,9999,9999,9999,2239690868
28,4,4,T1_SMS_5,126,9999,9999,9999,2240190564
28,4,4,T1_SMS_5,127,9999,9999,9999,2240690252
28,4,4,T1_SMS_5,128,9999,9999,9999,2241191000
28,4,4,T1_SMS_5,129,9999,9999,9999,2241690688
28,5,2,T1_SMS_8,0,5,42,127,2290055540
28,5,2,T1_SMS_8,1,5,42,127,2290856292
28,5,2,T1_SMS_8,2,5,42,127,2291655972
28,5,2,T1_SMS_8,3,1,48,38,2291670836
28,5,2,T1_SMS_8,4,1,48,40,2292433676
28,5,2,T1_SMS_8,5,5,42,127,2292455772
28,5,2,T1_SMS_8,6,5,42,127,2293255440
28,5,2,T1_SMS_8,7,1,48,44,2293260128
28,5,2,T1_SMS_8,8,1,48,44,2294036664
28,5,2,T1_SMS_8,9,5,42,127,2294056288
28,5,2,T1_SMS_8,10,1,48,45,2294821960
28,5,2,T1_SMS_8,11,5,42,127,2294856168
28,5,2,T1_SMS_8,12,1,48,47,2295606284
28,5,2,T1_SMS_8,13,5,42,127,2295655828
28,5,2,T1_SMS_8,14,1,48,41,2296439448
28,5,2,T1_SMS_8,15,5,42,127,2296455636
28,5,2,T1_SMS_8,16,1,48,43,2297212480
28,5,2,T1_SMS_8,17,5,42,127,2297256368
28,5,2,T1_SMS_8,18,1,48,49,2298048216
28,5,2,T1_SMS_8,19,5,42,127,2298055952
28,5,2,T1_SMS_8,20,1,48,43,2298803220
28,5,2,T1_SMS_8,21,5,42,127,2298855832
28,5,2,T1_SMS_8,22,1,48,44,2299638332
28,5,2,T1_SMS_8,23,5,42,127,2299655568
28,5,2,T1_SMS_8,24,1,48,39,2300430368
28,5,2,T1_SMS_8,25,5,42,127,2300456424
28,5,2,T1_SMS_8,26,1,48,39,2301237580
28,5,2,T1_SMS_8,27,5,42,127,2301256012
28,5,2,T1_SMS_8,28,1,48,27,2302036832
28,5,2,T1_SMS_8,29,5,42,127,2302055644
28,5,2,T1_SMS_8,30,1,48,46,2302828268
28,5,2,T1_SMS_8,31,5,42,127,2302855676
28,5,2,T1_SMS_8,32,1,48,41,2303604964
28,5,2,T1_SMS_8,33,5,42,127,2303656332
28,5,2,T1_SMS_8,34,5,42,127,2304456000
28,5,2,T1_SMS_8,35,1,48,18,2304475648
28,5,2,T1_SMS_8,36,1,48,47,2305221432
28,5,2,T1_SMS_8,37,5,42,127,2305255652
28,5,2,T1_SMS_8,38,1,48,53,2306035080
28,5,2,T1_SMS_8,39,5,42,127,2306055460
28,5,2,T1_SMS_8,40,1,48,45,2306843488
28,5,2,T1_SMS_8,41,5,42,127,2306856460
28,5,2,T1_SMS_8,42,1,48,49,2307618916
28,5,2,T1_SMS_8,43,5,42,127,2307656120
28,5,2,T1_SMS_8,44,1,48,43,2308425976
28,5,2,T1_SMS_8,45,5,42,127,2308455928
28,5,2,T1_SMS_8,46,1,48,42,2309158616
28,5,2,T1_SMS_8,47,5,42,127,2309255512
28,5,2,T1_SMS_8,48,1,48,44,2310043720
28,5,2,T1_SMS_8,49,5,42,127,2310056316
28,5,2,T1_SMS_8,50,1,48,44,2310848840
28,5,2,T1_SMS_8,51,5,42,127,2310856048
28,5,2,T1_SMS_8,52,1,48,35,2311647304
28,5,2,T1_SMS_8,53,5,42,127,2311655708
28,5,2,T1_SMS_8,54,1,48,40,2312424216
28,5,2,T1_SMS_8,55,5,42,127,2312455664
28,5,2,T1_SMS_8,56,1,48,45,2313206004
28,5,2,T1_SMS_8,57,5,42,127,2313256224
28,5,2,T1_SMS_8,58,1,48,49,2314041112
28,5,2,T1_SMS_8,59,5,42,127,2314055956
28,5,2,T1_SMS_8,60,1,48,43,2314844136
28,5,2,T1_SMS_8,61,5,42,127,2314855916
28,5,2,T1_SMS_8,62,1,48,48,2315599668
28,5,2,T1_SMS_8,63,5,42,127,2315655500
28,5,2,T1_SMS_8,64,1,48,44,2316441460
28,5,2,T1_SMS_8,65,5,42,127,2316456156
28,5,2,T1_SMS_8,66,1,48,44,2317236340
28,5,2,T1_SMS_8,67,5,42,127,2317256040
28,5,2,T1_SMS_8,68,1,48,47,2317989840
28,5,2,T1_SMS_8,69,5,42,127,2318055848
28,5,2,T1_SMS_8,70,1,48,45,2318804384
28,5,2,T1_SMS_8,71,5,42,127,2318855876
28,5,2,T1_SMS_8,72,1,48,48,2319638152
28,5,2,T1_SMS_8,73,5,42,127,2319656284
28,5,2,T1_SMS_8,74,1,48,43,2320415516
28,5,2,T1_SMS_8,75,5,42,127,2320456016
28,5,2,T1_SMS_8,76,1,48,38,2321255460
28,5,2,T1_SMS_8,77,5,42,127,2321257100
28,5,2,T1_SMS_8,78,1,48,40,2322026504
28,5,2,T1_SMS_8,79,5,42,127,2322055708
28,5,2,T1_SMS_8,80,1,48,46,2322810528
28,5,2,T1_SMS_8,81,5,42,127,2322856212
28,5,2,T1_SMS_8,82,1,48,45,2323639312
28,5,2,T1_SMS_8,83,5,42,127,2323655948
28,5,2,T1_SMS_8,84,1,48,48,2324449292
28,5,2,T1_SMS_8,85,5,42,127,2324455680
28,5,2,T1_SMS_8,86,5,42,127,2325255644
28,5,2,T1_SMS_8,87,1,48,47,2325280908
28,5,2,T1_SMS_8,88,1,48,29,2326046812
28,5,2,T1_SMS_8,89,5,42,127,2326056492
28,5,2,T1_SMS_8,90,1,48,41,2326840416
28,5,2,T1_SMS_8,91,5,42,127,2326856004
28,5,2,T1_SMS_8,92,1,48,44,2327631544
28,5,2,T1_SMS_8,93,5,42,127,2327655812
28,5,2,T1_SMS_8,94,1,48,43,2328405920
28,5,2,T1_SMS_8,95,5,42,127,2328455400
28,5,2,T1_SMS_8,96,1,48,35,2329200948
28,5,2,T1_SMS_8,97,5,42,127,2329256424
28,5,2,T1_SMS_8,98,1,48,40,2330052016
28,5,2,T1_SMS_8,99,5,42,127,2330056160
28,5,2,T1_SMS_8,100,1,48,43,2330812704
28,5,2,T1_SMS_8,101,5,42,127,2330855744
28,5,2,T1_SMS_8,102,5,42,127,2331655408
28,5,2,T1_SMS_8,103,1,48,35,2331659504
28,5,2,T1_SMS_8,104,1,48,41,2332452336
28,5,2,T1_SMS_8,105,5,42,127,2332456260
28,5,2,T1_SMS_8,106,1,48,46,2333218708
28,5,2,T1_SMS_8,107,5,42,127,2333256140
28,5,2,T1_SMS_8,108,1,48,39,2334045520
28,5,2,T1_SMS_8,109,5,42,127,2334055800
28,5,2,T1_SMS_8,110,5,42,127,2334855464
28,5,2,T1_SMS_8,111,1,48,37,2334880900
28,5,2,T1_SMS_8,112,1,48,34,2335630404
28,5,2,T1_SMS_8,113,5,42,127,2335656260
28,5,2,T1_SMS_8,114,1,48,46,2336422676
28,5,2,T1_SMS_8,115,5,42,127,2336456068
28,5,2,T1_SMS_8,116,1,48,45,2337219868
28,5,2,T1_SMS_8,117,5,42,127,2337256100
28,5,2,T1_SMS_8,118,1,48,31,2338001572
28,5,2,T1_SMS_8,119,5,42,127,2338055384
28,5,2,T1_SMS_8,120,1,48,31,2338812976
28,5,2,T1_SMS_8,121,5,42,127,2338856164
28,5,2,T1_SMS_8,122,1,48,24,2339622208
28,5,2,T1_SMS_8,123,5,42,127,2339655900
28,5,2,T1_SMS_8,124,5,42,127,2340456012
28,5,2,T1_SMS_8,125,1,48,17,2340459880
28,5,2,T1_SMS_8,126,1,48,45,2341221600
28,5,2,T1_SMS_8,127,5,42,127,2341255512
28,5,2,T1_SMS_8,128,1,48,43,2342016324
28,5,2,T1_SMS_8,129,5,42,127,2342056316
28,5,2,T1_SMS_8,130,1,48,47,2342843004
28,5,2,T1_SMS_8,131,5,42,127,2342856124
28,5,2,T1_SMS_8,132,5,42,127,2343655864
28,5,2,T1_SMS_8,133,1,48,39,2343658384
28,5,2,T1_SMS_8,134,5,42,127,2344455820
28,5,2,T1_SMS_8,135,1,48,43,2344472932
28,5,2,T1_SMS_8,136,1,48,41,2345254952
28,5,2,T1_SMS_8,137,5,42,127,2345256744
28,5,2,T1_SMS_8,138,1,48,34,2346011416
28,5,2,T1_SMS_8,139,5,42,127,2346056104
28,5,2,T1_SMS_8,140,1,48,49,2346826940
28,5,2,T1_SMS_8,141,5,42,127,2346855764
28,5,2,T1_SMS_8,142,1,48,50,2347635640
28,5,2,T1_SMS_8,143,5,42,127,2347655796
28,5,2,T1_SMS_8,144,5,42,127,2348456236
28,5,2,T1_SMS_8,145,1,48,42,2348465712
28,5,2,T1_SMS_8,146,1,48,27,2349235956
28,5,2,T1_SMS_8,147,5,42,127,2349256112
28,5,2,T1_SMS_8,148,1,48,34,2350030084
28,5,2,T1_SMS_8,149,5,42,127,2350055768
28,5,2,T1_SMS_8,150,1,48,41,2350818296
28,5,2,T1_SMS_8,151,5,42,127,2350855652
28,5,2,T1_SMS_8,152,5,42,127,2351656364
28,5,2,T1_SMS_8,153,1,48,39,2351715204
28,5,2,T1_SMS_8,154,5,42,127,2352456020
28,5,2,T1_SMS_8,155,1,48,44,2352491532
28,5,2,T1_SMS_8,156,5,42,127,2353255760
28,5,2,T1_SMS_8,157,1,48,45,2353288872
28,5,2,T1_SMS_8,158,5,42,127,2354055564
28,5,2,T1_SMS_8,159,1,48,43,2354056532
28,5,2,T1_SMS_8,160,1,48,36,2354820628
28,5,2,T1_SMS_8,161,5,42,127,2354856512
28,5,2,T1_SMS_8,162,1,48,37,2355588872
28,5,2,T1_SMS_8,163,5,42,127,2355656024
28,5,2,T1_SMS_8,164,5,42,127,2356455688
28,5,2,T1_SMS_8,165,1,48,47,2356463592
28,5,2,T1_SMS_8,166,1,48,42,2357241172
28,5,2,T1_SMS_8,167,5,42,127,2357255492
28,5,2,T1_SMS_8,168,1,48,40,2357995728
28,5,2,T1_SMS_8,169,5,42,127,2358056344
28,5,2,T1_SMS_8,170,1,48,39,2358824480
28,5,2,T1_SMS_8,171,5,42,127,2358856228
28,5,2,T1_SMS_8,172,1,48,30,2359619352
28,5,2,T1_SMS_8,173,5,42,127,2359655736
28,5,2,T1_SMS_8,174,1,48,41,2360431876
28,5,2,T1_SMS_8,175,5,42,127,2360455620
28,5,2,T1_SMS_8,176,1,48,34,2361174092
28,5,2,T1_SMS_8,177,5,42,127,2361256272
28,5,2,T1_SMS_8,178,5,42,127,2362056160
28,5,2,T1_SMS_8,179,1,48,41,2362069232
28,5,2,T1_SMS_8,180,1,48,30,2362829156
28,5,2,T1_SMS_8,181,5,42,127,2362855964
28,5,2,T1_SMS_8,182,1,48,38,2363654112
28,5,2,T1_SMS_8,183,5,42,127,2363655992
28,5,2,T1_SMS_8,184,1,48,36,2364455128
28,5,2,T1_SMS_8,185,5,42,127,2364456920
28,5,2,T1_SMS_8,186,5,42,127,2365256140
28,5,2,T1_SMS_8,187,1,48,32,2365259708
28,5,2,T1_SMS_8,188,1,48,38,2366044244
28,5,2,T1_SMS_8,189,5,42,127,2366056016
28,5,2,T1_SMS_8,190,1,48,35,2366797528
28,5,2,T1_SMS_8,191,5,42,127,2366855528
28,5,2,T1_SMS_8,192,5,42,127,2367656264
28,5,2,T1_SMS_8,193,1,48,38,2367688184
28,5,2,T1_SMS_8,194,5,42,127,2368456072
28,5,2,T1_SMS_8,195,1,48,35,2368484404
28,5,2,T1_SMS_8,196,5,42,127,2369256032
28,5,2,T1_SMS_8,197,1,48,38,2369260800
28,5,2,T1_SMS_8,198,5,42,127,2370055392
28,5,2,T1_SMS_8,199,1,48,37,2370064868
28,5,2,T1_SMS_8,200,1,48,39,2370840500
28,5,2,T1_SMS_8,201,5,42,127,2370856240
28,5,2,T1_SMS_8,202,5,42,127,2371655980
28,5,2,T1_SMS_8,203,1,48,42,2371686172
28,5,2,T1_SMS_8,204,5,42,127,2372455788
28,5,2,T1_SMS_8,205,1,48,44,2372457352
28,5,2,T1_SMS_8,206,5,42,127,2373255744
28,5,2,T1_SMS_8,207,1,48,32,2373264872
28,5,2,T1_SMS_8,208,1,48,28,2374052924
28,5,2,T1_SMS_8,209,5,42,127,2374056168
28,5,2,T1_SMS_8,210,1,48,37,2374807632
28,5,2,T1_SMS_8,211,5,42,127,2374856128
28,5,2,T1_SMS_8,212,1,48,21,2375649548
28,5,2,T1_SMS_8,213,5,42,127,2375655860
28,5,2,T1_SMS_8,214,1,48,33,2376397744
28,5,2,T1_SMS_8,215,5,42,127,2376455668
28,5,2,T1_SMS_8,216,1,48,43,2377238916
28,5,2,T1_SMS_8,217,5,42,127,2377256224
28,5,2,T1_SMS_8,218,1,48,45,2378003264
28,5,2,T1_SMS_8,219,5,42,127,2378056108
28,5,2,T1_SMS_8,220,1,48,31,2378805396
28,5,2,T1_SMS_8,221,5,42,127,2378855692
28,5,2,T1_SMS_8,222,5,42,127,2379655508
28,5,2,T1_SMS_8,223,1,48,18,2379681016
28,5,2,T1_SMS_8,224,1,48,43,2380440340
28,5,2,T1_SMS_8,225,5,42,127,2380456452
28,5,2,T1_SMS_8,226,1,48,50,2381229680
28,5,2,T1_SMS_8,227,5,42,127,2381256260
28,5,2,T1_SMS_8,228,1,48,43,2382012352
28,5,2,T1_SMS_8,229,5,42,127,2382055696
28,5,2,T1_SMS_8,230,1,48,37,2382813736
28,5,2,T1_SMS_8,231,5,42,127,2382855652
28,5,2,T1_SMS_8,232,1,48,31,2383640320
28,5,2,T1_SMS_8,233,5,42,127,2383656356
28,5,2,T1_SMS_8,234,1,48,32,2384427936
28,5,2,T1_SMS_8,235,5,42,127,2384456312
28,5,2,T1_SMS_8,236,1,48,21,2385254088
28,5,2,T1_SMS_8,237,5,42,127,2385255752
28,5,2,T1_SMS_8,238,1,48,18,2386050144
28,5,2,T1_SMS_8,0,9999,9999,9999,2290053176
28,5,2,T1_SMS_8,1,9999,9999,9999,2290854004
28,5,2,T1_SMS_8,2,9999,9999,9999,2291653684
28,5,2,T1_SMS_8,3,9999,9999,9999,2292453488
28,5,2,T1_SMS_8,4,9999,9999,9999,2293253228
28,5,2,T1_SMS_8,5,9999,9999,9999,2294054000
28,5,2,T1_SMS_8,6,9999,9999,9999,2294853732
28,5,2,T1_SMS_8,7,9999,9999,9999,2295653468
28,5,2,T1_SMS_8,8,9999,9999,9999,2296453200
28,5,2,T1_SMS_8,9,9999,9999,9999,2297254004
28,5,2,T1_SMS_8,10,9999,9999,9999,2298053736
28,5,2,T1_SMS_8,11,9999,9999,9999,2298853472
28,5,2,T1_SMS_8,12,9999,9999,9999,2299653204
28,5,2,T1_SMS_8,13,9999,9999,9999,2300453988
28,5,2,T1_SMS_8,14,9999,9999,9999,2301253724
28,5,2,T1_SMS_8,15,9999,9999,9999,2302053432
28,5,2,T1_SMS_8,16,9999,9999,9999,2302853240
28,5,2,T1_SMS_8,17,9999,9999,9999,2303653968
28,5,2,T1_SMS_8,18,9999,9999,9999,2304453712
28,5,2,T1_SMS_8,19,9999,9999,9999,2305253436
28,5,2,T1_SMS_8,20,9999,9999,9999,2306053172
28,5,2,T1_SMS_8,21,9999,9999,9999,2306853952
28,5,2,T1_SMS_8,22,9999,9999,9999,2307653684
28,5,2,T1_SMS_8,23,9999,9999,9999,2308453492
28,5,2,T1_SMS_8,24,9999,9999,9999,2309253224
28,5,2,T1_SMS_8,25,9999,9999,9999,2310053956
28,5,2,T1_SMS_8,26,9999,9999,9999,2310853688
28,5,2,T1_SMS_8,27,9999,9999,9999,2311653420
28,5,2,T1_SMS_8,28,9999,9999,9999,2312453228
28,5,2,T1_SMS_8,29,9999,9999,9999,2313253936
28,5,2,T1_SMS_8,30,9999,9999,9999,2314053744
28,5,2,T1_SMS_8,31,9999,9999,9999,2314853480
28,5,2,T1_SMS_8,32,9999,9999,9999,2315653212
28,5,2,T1_SMS_8,33,9999,9999,9999,2316453940
28,5,2,T1_SMS_8,34,9999,9999,9999,2317253752
28,5,2,T1_SMS_8,35,9999,9999,9999,2318053484
28,5,2,T1_SMS_8,36,9999,9999,9999,2318853216
28,5,2,T1_SMS_8,37,9999,9999,9999,2319653996
28,5,2,T1_SMS_8,38,9999,9999,9999,2320453728
28,5,2,T1_SMS_8,39,9999,9999,9999,2321253468
28,5,2,T1_SMS_8,40,9999,9999,9999,2322053196
28,5,2,T1_SMS_8,41,9999,9999,9999,2322854000
28,5,2,T1_SMS_8,42,9999,9999,9999,2323653732
28,5,2,T1_SMS_8,43,9999,9999,9999,2324453468
28,5,2,T1_SMS_8,44,9999,9999,9999,2325253208
28,5,2,T1_SMS_8,45,9999,9999,9999,2326053980
28,5,2,T1_SMS_8,46,9999,9999,9999,2326853716
28,5,2,T1_SMS_8,47,9999,9999,9999,2327653448
28,5,2,T1_SMS_8,48,9999,9999,9999,2328453184
28,5,2,T1_SMS_8,49,9999,9999,9999,2329253988
28,5,2,T1_SMS_8,50,9999,9999,9999,2330053724
28,5,2,T1_SMS_8,51,9999,9999,9999,2330853456
28,5,2,T1_SMS_8,52,9999,9999,9999,2331653196
28,5,2,T1_SMS_8,53,9999,9999,9999,2332453972
28,5,2,T1_SMS_8,54,9999,9999,9999,2333253704
28,5,2,T1_SMS_8,55,9999,9999,9999,2334053436
28,5,2,T1_SMS_8,56,9999,9999,9999,2334853176
28,5,2,T1_SMS_8,57,9999,9999,9999,2335653972
28,5,2,T1_SMS_8,58,9999,9999,9999,2336453708
28,5,2,T1_SMS_8,59,9999,9999,9999,2337253440
28,5,2,T1_SMS_8,60,9999,9999,9999,2338053172
28,5,2,T1_SMS_8,61,9999,9999,9999,2338853952
28,5,2,T1_SMS_8,62,9999,9999,9999,2339653684
28,5,2,T1_SMS_8,63,9999,9999,9999,2340453424
28,5,2,T1_SMS_8,64,9999,9999,9999,2341253228
28,5,2,T1_SMS_8,65,9999,9999,9999,2342053956
28,5,2,T1_SMS_8,66,9999,9999,9999,2342853688
28,5,2,T1_SMS_8,67,9999,9999,9999,2343653428
28,5,2,T1_SMS_8,68,9999,9999,9999,2344453236
28,5,2,T1_SMS_8,69,9999,9999,9999,2345253944
28,5,2,T1_SMS_8,70,9999,9999,9999,2346053744
28,5,2,T1_SMS_8,71,9999,9999,9999,2346853476
28,5,2,T1_SMS_8,72,9999,9999,9999,2347653212
28,5,2,T1_SMS_8,73,9999,9999,9999,2348453948
28,5,2,T1_SMS_8,74,9999,9999,9999,2349253748
28,5,2,T1_SMS_8,75,9999,9999,9999,2350053480
28,5,2,T1_SMS_8,76,9999,9999,9999,2350853216
28,5,2,T1_SMS_8,77,9999,9999,9999,2351654000
28,5,2,T1_SMS_8,78,9999,9999,9999,2352453732
28,5,2,T1_SMS_8,79,9999,9999,9999,2353253468
28,5,2,T1_SMS_8,80,9999,9999,9999,2354053204
28,5,2,T1_SMS_8,81,9999,9999,9999,2354854000
28,5,2,T1_SMS_8,82,9999,9999,9999,2355653736
28,5,2,T1_SMS_8,83,9999,9999,9999,2356453476
28,5,2,T1_SMS_8,84,9999,9999,9999,2357253204
28,5,2,T1_SMS_8,85,9999,9999,9999,2358053984
28,5,2,T1_SMS_8,86,9999,9999,9999,2358853716
28,5,2,T1_SMS_8,87,9999,9999,9999,2359653448
28,5,2,T1_SMS_8,88,9999,9999,9999,2360453180
28,5,2,T1_SMS_8,89,9999,9999,9999,2361253988
28,5,2,T1_SMS_8,90,9999,9999,9999,2362053724
28,5,2,T1_SMS_8,91,9999,9999,9999,2362853452
28,5,2,T1_SMS_8,92,9999,9999,9999,2363653192
28,5,2,T1_SMS_8,93,9999,9999,9999,2364453972
28,5,2,T1_SMS_8,94,9999,9999,9999,2365253704
28,5,2,T1_SMS_8,95,9999,9999,9999,2366053432
28,5,2,T1_SMS_8,96,9999,9999,9999,2366853240
28,5,2,T1_SMS_8,97,9999,9999,9999,2367653976
28,5,2,T1_SMS_8,98,9999,9999,9999,2368453712
28,5,2,T1_SMS_8,99,9999,9999,9999,2369253444
28,5,2,T1_SMS_8,100,9999,9999,9999,2370053176
28,5,2,T1_SMS_8,101,9999,9999,9999,2370853952
28,5,2,T1_SMS_8,102,9999,9999,9999,2371653692
28,5,2,T1_SMS_8,103,9999,9999,9999,2372453424
28,5,2,T1_SMS_8,104,9999,9999,9999,2373253232
28,5,2,T1_SMS_8,105,9999,9999,9999,2374053956
28,5,2,T1_SMS_8,106,9999,9999,9999,2374853692
28,5,2,T1_SMS_8,107,9999,9999,9999,2375653424
28,5,2,T1_SMS_8,108,9999,9999,9999,2376453232
28,5,2,T1_SMS_8,109,9999,9999,9999,2377253936
28,5,2,T1_SMS_8,110,9999,9999,9999,2378053744
28,5,2,T1_SMS_8,111,9999,9999,9999,2378853480
28,5,2,T1_SMS_8,112,9999,9999,9999,2379653220
28,5,2,T1_SMS_8,113,9999,9999,9999,2380453944
28,5,2,T1_SMS_8,114,9999,9999,9999,2381253752
28,5,2,T1_SMS_8,115,9999,9999,9999,2382053484
28,5,2,T1_SMS_8,116,9999,9999,9999,2382853216
28,5,2,T1_SMS_8,117,9999,9999,9999,2383653996
28,5,2,T1_SMS_8,118,9999,9999,9999,2384453728
28,5,2,T1_SMS_8,119,9999,9999,9999,2385253488
28,6,10,Ticks_ISO_T2_5,0,5,42,127,2400475656
28,6,10,Ticks_ISO_T2_5,1,5,42,127,2400976496
28,6,10,Ticks_ISO_T2_5,2,5,42,127,2401475840
28,6,10,Ticks_ISO_T2_5,3,5,42,127,2401975776
28,6,10,Ticks_ISO_T2_5,4,5,42,127,2402476620
28,6,10,Ticks_ISO_T2_5,5,1,48,40,2402497544
28,6,10,Ticks_ISO_T2_5,6,5,42,127,2402976088
28,6,10,Ticks_ISO_T2_5,7,1,48,40,2403001272
28,6,10,Ticks_ISO_T2_5,8,5,42,127,2403475708
28,6,10,Ticks_ISO_T2_5,9,1,48,38,2403521612
28,6,10,Ticks_ISO_T2_5,10,5,42,127,2403975676
28,6,10,Ticks_ISO_T2_5,11,1,48,46,2403995424
28,6,10,Ticks_ISO_T2_5,12,1,48,47,2404468152
28,6,10,Ticks_ISO_T2_5,13,5,42,127,2404476556
28,6,10,Ticks_ISO_T2_5,14,5,42,127,2404975960
28,6,10,Ticks_ISO_T2_5,15,1,48,43,2404979156
28,6,10,Ticks_ISO_T2_5,16,5,42,127,2405475656
28,6,10,Ticks_ISO_T2_5,17,1,48,39,2405486708
28,6,10,Ticks_ISO_T2_5,18,5,42,127,2405976620
28,6,10,Ticks_ISO_T2_5,19,1,48,44,2405980788
28,6,10,Ticks_ISO_T2_5,20,1,48,44,2406467676
28,6,10,Ticks_ISO_T2_5,21,5,42,127,2406476304
28,6,10,Ticks_ISO_T2_5,22,1,48,48,2406975408
28,6,10,Ticks_ISO_T2_5,23,5,42,127,2406977124
28,6,10,Ticks_ISO_T2_5,24,5,42,127,2407475628
28,6,10,Ticks_ISO_T2_5,25,1,48,46,2407491164
28,6,10,Ticks_ISO_T2_5,26,1,48,40,2407967432
28,6,10,Ticks_ISO_T2_5,27,5,42,127,2407976288
28,6,10,Ticks_ISO_T2_5,28,5,42,127,2408476288
28,6,10,Ticks_ISO_T2_5,29,1,48,32,2408491600
28,6,10,Ticks_ISO_T2_5,30,1,48,45,2408967348
28,6,10,Ticks_ISO_T2_5,31,5,42,127,2408975680
28,6,10,Ticks_ISO_T2_5,32,1,48,43,2409458584
28,6,10,Ticks_ISO_T2_5,33,5,42,127,2409475300
28,6,10,Ticks_ISO_T2_5,34,1,48,40,2409925292
28,6,10,Ticks_ISO_T2_5,35,5,42,127,2409976040
28,6,10,Ticks_ISO_T2_5,36,5,42,127,2410475964
28,6,10,Ticks_ISO_T2_5,37,1,48,37,2410502796
28,6,10,Ticks_ISO_T2_5,38,5,42,127,2410975660
28,6,10,Ticks_ISO_T2_5,39,1,48,39,2410999352
28,6,10,Ticks_ISO_T2_5,40,5,42,127,2411476252
28,6,10,Ticks_ISO_T2_5,41,1,48,40,2411510188
28,6,10,Ticks_ISO_T2_5,42,1,48,41,2411965432
28,6,10,Ticks_ISO_T2_5,43,5,42,127,2411976236
28,6,10,Ticks_ISO_T2_5,44,5,42,127,2412475864
28,6,10,Ticks_ISO_T2_5,45,1,48,27,2412487436
28,6,10,Ticks_ISO_T2_5,46,1,48,40,2412958992
28,6,10,Ticks_ISO_T2_5,47,5,42,127,2412975404
28,6,10,Ticks_ISO_T2_5,48,1,48,40,2413450204
28,6,10,Ticks_ISO_T2_5,49,5,42,127,2413476268
28,6,10,Ticks_ISO_T2_5,50,5,42,127,2413976044
28,6,10,Ticks_ISO_T2_5,51,1,48,31,2413977084
28,6,10,Ticks_ISO_T2_5,52,5,42,127,2414475588
28,6,10,Ticks_ISO_T2_5,53,1,48,40,2414478260
28,6,10,Ticks_ISO_T2_5,54,5,42,127,2414976456
28,6,10,Ticks_ISO_T2_5,55,1,48,45,2414992616
28,6,10,Ticks_ISO_T2_5,56,5,42,127,2415476000
28,6,10,Ticks_ISO_T2_5,57,1,48,36,2415488248
28,6,10,Ticks_ISO_T2_5,58,1,48,43,2415962120
28,6,10,Ticks_ISO_T2_5,59,5,42,127,2415975984
28,6,10,Ticks_ISO_T2_5,60,5,42,127,2416475464
28,6,10,Ticks_ISO_T2_5,61,1,48,36,2416483524
28,6,10,Ticks_ISO_T2_5,62,5,42,127,2416976428
28,6,10,Ticks_ISO_T2_5,63,1,48,42,2416987028
28,6,10,Ticks_ISO_T2_5,64,5,42,127,2417475976
28,6,10,Ticks_ISO_T2_5,65,1,48,45,2417484556
28,6,10,Ticks_ISO_T2_5,66,5,42,127,2417975968
28,6,10,Ticks_ISO_T2_5,67,1,48,42,2417984324
28,6,10,Ticks_ISO_T2_5,68,5,42,127,2418476488
28,6,10,Ticks_ISO_T2_5,69,1,48,44,2418504964
28,6,10,Ticks_ISO_T2_5,70,5,42,127,2418976032
28,6,10,Ticks_ISO_T2_5,71,1,48,41,2419007580
28,6,10,Ticks_ISO_T2_5,72,1,48,43,2419473068
28,6,10,Ticks_ISO_T2_5,73,5,42,127,2419475944
28,6,10,Ticks_ISO_T2_5,74,5,42,127,2419975644
28,6,10,Ticks_ISO_T2_5,75,1,48,39,2420012276
28,6,10,Ticks_ISO_T2_5,76,5,42,127,2420476312
28,6,10,Ticks_ISO_T2_5,77,1,48,39,2420501948
28,6,10,Ticks_ISO_T2_5,78,1,48,46,2420960412
28,6,10,Ticks_ISO_T2_5,79,5,42,127,2420975924
28,6,10,Ticks_ISO_T2_5,80,1,48,47,2421457560
28,6,10,Ticks_ISO_T2_5,81,5,42,127,2421475840
28,6,10,Ticks_ISO_T2_5,82,1,48,41,2421970120
28,6,10,Ticks_ISO_T2_5,83,5,42,127,2421976512
28,6,10,Ticks_ISO_T2_5,84,1,48,48,2422448872
28,6,10,Ticks_ISO_T2_5,85,5,42,127,2422476132
28,6,10,Ticks_ISO_T2_5,86,5,42,127,2422975908
28,6,10,Ticks_ISO_T2_5,87,1,48,38,2423009400
28,6,10,Ticks_ISO_T2_5,88,5,42,127,2423475676
28,6,10,Ticks_ISO_T2_5,89,1,48,39,2423503552
28,6,10,Ticks_ISO_T2_5,90,1,48,43,2423965680
28,6,10,Ticks_ISO_T2_5,91,5,42,127,2423976336
28,6,10,Ticks_ISO_T2_5,92,5,42,127,2424475964
28,6,10,Ticks_ISO_T2_5,93,1,48,37,2424476932
28,6,10,Ticks_ISO_T2_5,94,5,42,127,2424975584
28,6,10,Ticks_ISO_T2_5,95,1,48,34,2425013180
28,6,10,Ticks_ISO_T2_5,96,5,42,127,2425475700
28,6,10,Ticks_ISO_T2_5,97,1,48,44,2425492012
28,6,10,Ticks_ISO_T2_5,98,1,48,33,2425966152
28,6,10,Ticks_ISO_T2_5,99,5,42,127,2425976284
28,6,10,Ticks_ISO_T2_5,100,1,48,39,2426446476
28,6,10,Ticks_ISO_T2_5,101,5,42,127,2426475832
28,6,10,Ticks_ISO_T2_5,102,1,48,36,2426967344
28,6,10,Ticks_ISO_T2_5,103,5,42,127,2426975676
28,6,10,Ticks_ISO_T2_5,104,5,42,127,2427476572
28,6,10,Ticks_ISO_T2_5,105,1,48,34,2427477540
28,6,10,Ticks_ISO_T2_5,106,1,48,40,2427949156
28,6,10,Ticks_ISO_T2_5,107,5,42,127,2427975960
28,6,10,Ticks_ISO_T2_5,108,1,48,35,2428465672
28,6,10,Ticks_ISO_T2_5,109,5,42,127,2428475880
28,6,10,Ticks_ISO_T2_5,110,1,48,34,2428974752
28,6,10,Ticks_ISO_T2_5,111,5,42,127,2428976476
28,6,10,Ticks_ISO_T2_5,112,5,42,127,2429476472
28,6,10,Ticks_ISO_T2_5,113,1,48,31,2429499568
28,6,10,Ticks_ISO_T2_5,114,5,42,127,2429975868
28,6,10,Ticks_ISO_T2_5,115,1,48,38,2430002772
28,6,10,Ticks_ISO_T2_5,116,1,48,38,2430472152
28,6,10,Ticks_ISO_T2_5,117,5,42,127,2430475556
28,6,10,Ticks_ISO_T2_5,118,1,48,39,2430956216
28,6,10,Ticks_ISO_T2_5,119,5,42,127,2430976452
28,6,10,Ticks_ISO_T2_5,120,1,48,45,2431454864
28,6,10,Ticks_ISO_T2_5,121,5,42,127,2431476216
28,6,10,Ticks_ISO_T2_5,122,1,48,37,2431971392
28,6,10,Ticks_ISO_T2_5,123,5,42,127,2431975760
28,6,10,Ticks_ISO_T2_5,124,5,42,127,2432475464
28,6,10,Ticks_ISO_T2_5,125,1,48,32,2432497064
28,6,10,Ticks_ISO_T2_5,126,5,42,127,2432976356
28,6,10,Ticks_ISO_T2_5,127,1,48,41,2432981940
28,6,10,Ticks_ISO_T2_5,128,5,42,127,2433475900
28,6,10,Ticks_ISO_T2_5,129,1,48,46,2433487180
28,6,10,Ticks_ISO_T2_5,130,5,42,127,2433975520
28,6,10,Ticks_ISO_T2_5,131,1,48,46,2433998092
28,6,10,Ticks_ISO_T2_5,132,1,48,46,2434453712
28,6,10,Ticks_ISO_T2_5,133,5,42,127,2434476484
28,6,10,Ticks_ISO_T2_5,134,5,42,127,2434976256
28,6,10,Ticks_ISO_T2_5,135,1,48,43,2434993512
28,6,10,Ticks_ISO_T2_5,136,5,42,127,2435475728
28,6,10,Ticks_ISO_T2_5,137,1,48,43,2435484008
28,6,10,Ticks_ISO_T2_5,138,1,48,51,2435954560
28,6,10,Ticks_ISO_T2_5,139,5,42,127,2435975540
28,6,10,Ticks_ISO_T2_5,140,1,48,40,2436460540
28,6,10,Ticks_ISO_T2_5,141,5,42,127,2436476356
28,6,10,Ticks_ISO_T2_5,142,1,48,39,2436940564
28,6,10,Ticks_ISO_T2_5,143,5,42,127,2436976200
28,6,10,Ticks_ISO_T2_5,144,1,48,38,2437452004
28,6,10,Ticks_ISO_T2_5,145,5,42,127,2437475744
28,6,10,Ticks_ISO_T2_5,146,1,48,42,2437974372
28,6,10,Ticks_ISO_T2_5,147,5,42,127,2437976340
28,6,10,Ticks_ISO_T2_5,148,5,42,127,2438476112
28,6,10,Ticks_ISO_T2_5,149,1,48,32,2438486120
28,6,10,Ticks_ISO_T2_5,150,1,48,27,2438914508
28,6,10,Ticks_ISO_T2_5,151,5,42,127,2438975948
28,6,10,Ticks_ISO_T2_5,152,5,42,127,2439475500
28,6,10,Ticks_ISO_T2_5,153,1,48,35,2439484532
28,6,10,Ticks_ISO_T2_5,154,5,42,127,2439976316
28,6,10,Ticks_ISO_T2_5,155,1,48,38,2440009504
28,6,10,Ticks_ISO_T2_5,156,5,42,127,2440476088
28,6,10,Ticks_ISO_T2_5,157,1,48,32,2440530000
28,6,10,Ticks_ISO_T2_5,158,5,42,127,2440975856
28,6,10,Ticks_ISO_T2_5,159,1,48,47,2440995580
28,6,10,Ticks_ISO_T2_5,160,1,48,35,2441467964
28,6,10,Ticks_ISO_T2_5,161,5,42,127,2441475396
28,6,10,Ticks_ISO_T2_5,162,1,48,29,2441962192
28,6,10,Ticks_ISO_T2_5,163,5,42,127,2441976136
28,6,10,Ticks_ISO_T2_5,164,1,48,41,2442474324
28,6,10,Ticks_ISO_T2_5,165,5,42,127,2442476056
28,6,10,Ticks_ISO_T2_5,166,1,48,40,2442971976
28,6,10,Ticks_ISO_T2_5,167,5,42,127,2442975824
28,6,10,Ticks_ISO_T2_5,168,5,42,127,2443476276
28,6,10,Ticks_ISO_T2_5,169,1,48,43,2443480516
28,6,10,Ticks_ISO_T2_5,170,5,42,127,2443975968
28,6,10,Ticks_ISO_T2_5,171,1,48,33,2444028232
28,6,10,Ticks_ISO_T2_5,172,5,42,127,2444475740
28,6,10,Ticks_ISO_T2_5,173,1,48,46,2444489032
28,6,10,Ticks_ISO_T2_5,174,5,42,127,2444975432
28,6,10,Ticks_ISO_T2_5,175,1,48,22,2444991116
28,6,10,Ticks_ISO_T2_5,176,1,48,37,2445457440
28,6,10,Ticks_ISO_T2_5,177,5,42,127,2445476168
28,6,10,Ticks_ISO_T2_5,178,1,48,39,2445936084
28,6,10,Ticks_ISO_T2_5,179,5,42,127,2445975936
28,6,10,Ticks_ISO_T2_5,180,1,48,43,2446474504
28,6,10,Ticks_ISO_T2_5,181,5,42,127,2446476304
28,6,10,Ticks_ISO_T2_5,182,5,42,127,2446976504
28,6,10,Ticks_ISO_T2_5,183,1,48,35,2446991396
28,6,10,Ticks_ISO_T2_5,184,1,48,46,2447449756
28,6,10,Ticks_ISO_T2_5,185,5,42,127,2447475968
28,6,10,Ticks_ISO_T2_5,186,5,42,127,2447975744
28,6,10,Ticks_ISO_T2_5,187,1,48,37,2447998756
28,6,10,Ticks_ISO_T2_5,188,5,42,127,2448475584
28,6,10,Ticks_ISO_T2_5,189,1,48,44,2448493292
28,6,10,Ticks_ISO_T2_5,190,1,48,38,2448950336
28,6,10,Ticks_ISO_T2_5,191,5,42,127,2448976172
28,6,10,Ticks_ISO_T2_5,192,1,48,38,2449468584
28,6,10,Ticks_ISO_T2_5,193,5,42,127,2449476092
28,6,10,Ticks_ISO_T2_5,194,5,42,127,2449975644
28,6,10,Ticks_ISO_T2_5,195,1,48,38,2449985120
28,6,10,Ticks_ISO_T2_5,196,5,42,127,2450476536
28,6,10,Ticks_ISO_T2_5,197,1,48,42,2450477504
28,6,10,Ticks_ISO_T2_5,198,1,48,39,2450958912
28,6,10,Ticks_ISO_T2_5,199,5,42,127,2450976072
28,6,10,Ticks_ISO_T2_5,200,5,42,127,2451475772
28,6,10,Ticks_ISO_T2_5,201,1,48,36,2451513676
28,6,10,Ticks_ISO_T2_5,202,5,42,127,2451975468
28,6,10,Ticks_ISO_T2_5,203,1,48,48,2451996016
28,6,10,Ticks_ISO_T2_5,204,5,42,127,2452476284
28,6,10,Ticks_ISO_T2_5,205,1,48,30,2452495260
28,6,10,Ticks_ISO_T2_5,206,5,42,127,2452975904
28,6,10,Ticks_ISO_T2_5,207,1,48,31,2452989792
28,6,10,Ticks_ISO_T2_5,208,1,48,41,2453475672
28,6,10,Ticks_ISO_T2_5,209,5,42,127,2453477312
28,6,10,Ticks_ISO_T2_5,210,5,42,127,2453976416
28,6,10,Ticks_ISO_T2_5,211,1,48,34,2453991580
28,6,10,Ticks_ISO_T2_5,212,1,48,45,2454473912
28,6,10,Ticks_ISO_T2_5,213,5,42,127,2454476400
28,6,10,Ticks_ISO_T2_5,214,5,42,127,2454976028
28,6,10,Ticks_ISO_T2_5,215,1,48,39,2454992164
28,6,10,Ticks_ISO_T2_5,216,5,42,127,2455475424
28,6,10,Ticks_ISO_T2_5,217,1,48,45,2455489388
28,6,10,Ticks_ISO_T2_5,218,1,48,43,2455970740
28,6,10,Ticks_ISO_T2_5,219,5,42,127,2455976380
28,6,10,Ticks_ISO_T2_5,220,5,42,127,2456475936
28,6,10,Ticks_ISO_T2_5,221,1,48,40,2456476828
28,6,10,Ticks_ISO_T2_5,222,1,48,46,2456952452
28,6,10,Ticks_ISO_T2_5,223,5,42,127,2456975772
28,6,10,Ticks_ISO_T2_5,224,5,42,127,2457475376
28,6,10,Ticks_ISO_T2_5,225,1,48,40,2457497148
28,6,10,Ticks_ISO_T2_5,226,5,42,127,2457976116
28,6,10,Ticks_ISO_T2_5,227,1,48,30,2457996012
28,6,10,Ticks_ISO_T2_5,228,1,48,43,2458466724
28,6,10,Ticks_ISO_T2_5,229,5,42,127,2458475880
28,6,10,Ticks_ISO_T2_5,230,5,42,127,2458975584
28,6,10,Ticks_ISO_T2_5,231,1,48,47,2458978852
28,6,10,Ticks_ISO_T2_5,232,5,42,127,2459476324
28,6,10,Ticks_ISO_T2_5,233,1,48,35,2459524620
28,6,10,Ticks_ISO_T2_5,234,5,42,127,2459976092
28,6,10,Ticks_ISO_T2_5,235,1,48,37,2459997164
28,6,10,Ticks_ISO_T2_5,236,5,42,127,2460475788
28,6,10,Ticks_ISO_T2_5,237,1,48,42,2460498432
28,6,10,Ticks_ISO_T2_5,238,5,42,127,2460975408
28,6,10,Ticks_ISO_T2_5,239,1,48,33,2461018692
28,6,10,Ticks_ISO_T2_5,240,5,42,127,2461476072
28,6,10,Ticks_ISO_T2_5,241,1,48,49,2461506724
28,6,10,Ticks_ISO_T2_5,242,5,42,127,2461976064
28,6,10,Ticks_ISO_T2_5,243,1,48,40,2462001252
28,6,10,Ticks_ISO_T2_5,244,5,42,127,2462475608
28,6,10,Ticks_ISO_T2_5,245,1,48,38,2462504756
28,6,10,Ticks_ISO_T2_5,246,5,42,127,2462976356
28,6,10,Ticks_ISO_T2_5,247,1,48,36,2462996076
28,6,10,Ticks_ISO_T2_5,248,5,42,127,2463476196
28,6,10,Ticks_ISO_T2_5,249,1,48,50,2463479392
28,6,10,Ticks_ISO_T2_5,250,5,42,127,2463975968
28,6,10,Ticks_ISO_T2_5,251,1,48,41,2463999660
28,6,10,Ticks_ISO_T2_5,252,5,42,127,2464475368
28,6,10,Ticks_ISO_T2_5,253,1,48,43,2464482148
28,6,10,Ticks_ISO_T2_5,254,1,48,30,2464962152
28,6,10,Ticks_ISO_T2_5,255,5,42,127,2464976176
28,6,10,Ticks_ISO_T2_5,256,1,48,43,2465470452
28,6,10,Ticks_ISO_T2_5,0,9999,9999,9999,2400473148
28,6,10,Ticks_ISO_T2_5,1,9999,9999,9999,2400973912
28,6,10,Ticks_ISO_T2_5,2,9999,9999,9999,2401473628
28,6,10,Ticks_ISO_T2_5,3,9999,9999,9999,2401973344
28,6,10,Ticks_ISO_T2_5,4,9999,9999,9999,2402474104
28,6,10,Ticks_ISO_T2_5,5,9999,9999,9999,2402973800
28,6,10,Ticks_ISO_T2_5,6,9999,9999,9999,2403473496
28,6,10,Ticks_ISO_T2_5,7,9999,9999,9999,2403973240
28,6,10,Ticks_ISO_T2_5,8,9999,9999,9999,2404473976
28,6,10,Ticks_ISO_T2_5,9,9999,9999,9999,2404973676
28,6,10,Ticks_ISO_T2_5,10,9999,9999,9999,2405473368
28,6,10,Ticks_ISO_T2_5,11,9999,9999,9999,2405974108
28,6,10,Ticks_ISO_T2_5,12,9999,9999,9999,2406473796
28,6,10,Ticks_ISO_T2_5,13,9999,9999,9999,2406973500
28,6,10,Ticks_ISO_T2_5,14,9999,9999,9999,2407473268
28,6,10,Ticks_ISO_T2_5,15,9999,9999,9999,2407974004
28,6,10,Ticks_ISO_T2_5,16,9999,9999,9999,2408473704
28,6,10,Ticks_ISO_T2_5,17,9999,9999,9999,2408973392
28,6,10,Ticks_ISO_T2_5,18,9999,9999,9999,2409473088
28,6,10,Ticks_ISO_T2_5,19,9999,9999,9999,2409973828
28,6,10,Ticks_ISO_T2_5,20,9999,9999,9999,2410473532
28,6,10,Ticks_ISO_T2_5,21,9999,9999,9999,2410973300
28,6,10,Ticks_ISO_T2_5,22,9999,9999,9999,2411474040
28,6,10,Ticks_ISO_T2_5,23,9999,9999,9999,2411973728
28,6,10,Ticks_ISO_T2_5,24,9999,9999,9999,2412473428
28,6,10,Ticks_ISO_T2_5,25,9999,9999,9999,2412973116
28,6,10,Ticks_ISO_T2_5,26,9999,9999,9999,2413473908
28,6,10,Ticks_ISO_T2_5,27,9999,9999,9999,2413973608
28,6,10,Ticks_ISO_T2_5,28,9999,9999,9999,2414473276
28,6,10,Ticks_ISO_T2_5,29,9999,9999,9999,2414974020
28,6,10,Ticks_ISO_T2_5,30,9999,9999,9999,2415473712
28,6,10,Ticks_ISO_T2_5,31,9999,9999,9999,2415973476
28,6,10,Ticks_ISO_T2_5,32,9999,9999,9999,2416473176
28,6,10,Ticks_ISO_T2_5,33,9999,9999,9999,2416973920
28,6,10,Ticks_ISO_T2_5,34,9999,9999,9999,2417473616
28,6,10,Ticks_ISO_T2_5,35,9999,9999,9999,2417973308
28,6,10,Ticks_ISO_T2_5,36,9999,9999,9999,2418474052
28,6,10,Ticks_ISO_T2_5,37,9999,9999,9999,2418973744
28,6,10,Ticks_ISO_T2_5,38,9999,9999,9999,2419473508
28,6,10,Ticks_ISO_T2_5,39,9999,9999,9999,2419973208
28,6,10,Ticks_ISO_T2_5,40,9999,9999,9999,2420473952
28,6,10,Ticks_ISO_T2_5,41,9999,9999,9999,2420973636
28,6,10,Ticks_ISO_T2_5,42,9999,9999,9999,2421473332
28,6,10,Ticks_ISO_T2_5,43,9999,9999,9999,2421974072
28,6,10,Ticks_ISO_T2_5,44,9999,9999,9999,2422473844
28,6,10,Ticks_ISO_T2_5,45,9999,9999,9999,2422973548
28,6,10,Ticks_ISO_T2_5,46,9999,9999,9999,2423473240
28,6,10,Ticks_ISO_T2_5,47,9999,9999,9999,2423973976
28,6,10,Ticks_ISO_T2_5,48,9999,9999,9999,2424473676
28,6,10,Ticks_ISO_T2_5,49,9999,9999,9999,2424973372
28,6,10,Ticks_ISO_T2_5,50,9999,9999,9999,2425473116
28,6,10,Ticks_ISO_T2_5,51,9999,9999,9999,2425973852
28,6,10,Ticks_ISO_T2_5,52,9999,9999,9999,2426473544
28,6,10,Ticks_ISO_T2_5,53,9999,9999,9999,2426973240
28,6,10,Ticks_ISO_T2_5,54,9999,9999,9999,2427473988
28,6,10,Ticks_ISO_T2_5,55,9999,9999,9999,2427973748
28,6,10,Ticks_ISO_T2_5,56,9999,9999,9999,2428473444
28,6,10,Ticks_ISO_T2_5,57,9999,9999,9999,2428973144
28,6,10,Ticks_ISO_T2_5,58,9999,9999,9999,2429473888
28,6,10,Ticks_ISO_T2_5,59,9999,9999,9999,2429973580
28,6,10,Ticks_ISO_T2_5,60,9999,9999,9999,2430473268
28,6,10,Ticks_ISO_T2_5,61,9999,9999,9999,2430974012
28,6,10,Ticks_ISO_T2_5,62,9999,9999,9999,2431473780
28,6,10,Ticks_ISO_T2_5,63,9999,9999,9999,2431973476
28,6,10,Ticks_ISO_T2_5,64,9999,9999,9999,2432473176
28,6,10,Ticks_ISO_T2_5,65,9999,9999,9999,2432973920
28,6,10,Ticks_ISO_T2_5,66,9999,9999,9999,2433473616
28,6,10,Ticks_ISO_T2_5,67,9999,9999,9999,2433973308
28,6,10,Ticks_ISO_T2_5,68,9999,9999,9999,2434474044
28,6,10,Ticks_ISO_T2_5,69,9999,9999,9999,2434973744
28,6,10,Ticks_ISO_T2_5,70,9999,9999,9999,2435473516
28,6,10,Ticks_ISO_T2_5,71,9999,9999,9999,2435973180
28,6,10,Ticks_ISO_T2_5,72,9999,9999,9999,2436473920
28,6,10,Ticks_ISO_T2_5,73,9999,9999,9999,2436973688
28,6,10,Ticks_ISO_T2_5,74,9999,9999,9999,2437473384
28,6,10,Ticks_ISO_T2_5,75,9999,9999,9999,2437974088
28,6,10,Ticks_ISO_T2_5,76,9999,9999,9999,2438473828
28,6,10,Ticks_ISO_T2_5,77,9999,9999,9999,2438973516
28,6,10,Ticks_ISO_T2_5,78,9999,9999,9999,2439473216
28,6,10,Ticks_ISO_T2_5,79,9999,9999,9999,2439973956
28,6,10,Ticks_ISO_T2_5,80,9999,9999,9999,2440473652
28,6,10,Ticks_ISO_T2_5,81,9999,9999,9999,2440973420
28,6,10,Ticks_ISO_T2_5,82,9999,9999,9999,2441473112
28,6,10,Ticks_ISO_T2_5,83,9999,9999,9999,2441973852
28,6,10,Ticks_ISO_T2_5,84,9999,9999,9999,2442473552
28,6,10,Ticks_ISO_T2_5,85,9999,9999,9999,2442973240
28,6,10,Ticks_ISO_T2_5,86,9999,9999,9999,2443473988
28,6,10,Ticks_ISO_T2_5,87,9999,9999,9999,2443973684
28,6,10,Ticks_ISO_T2_5,88,9999,9999,9999,2444473452
28,6,10,Ticks_ISO_T2_5,89,9999,9999,9999,2444973144
28,6,10,Ticks_ISO_T2_5,90,9999,9999,9999,2445473880
28,6,10,Ticks_ISO_T2_5,91,9999,9999,9999,2445973576
28,6,10,Ticks_ISO_T2_5,92,9999,9999,9999,2446473276
28,6,10,Ticks_ISO_T2_5,93,9999,9999,9999,2446974068
28,6,10,Ticks_ISO_T2_5,94,9999,9999,9999,2447473756
28,6,10,Ticks_ISO_T2_5,95,9999,9999,9999,2447973456
28,6,10,Ticks_ISO_T2_5,96,9999,9999,9999,2448473152
28,6,10,Ticks_ISO_T2_5,97,9999,9999,9999,2448973884
28,6,10,Ticks_ISO_T2_5,98,9999,9999,9999,2449473656
28,6,10,Ticks_ISO_T2_5,99,9999,9999,9999,2449973356
28,6,10,Ticks_ISO_T2_5,100,9999,9999,9999,2450474096
28,6,10,Ticks_ISO_T2_5,101,9999,9999,9999,2450973788
28,6,10,Ticks_ISO_T2_5,102,9999,9999,9999,2451473488
28,6,10,Ticks_ISO_T2_5,103,9999,9999,9999,2451973184
28,6,10,Ticks_ISO_T2_5,104,9999,9999,9999,2452473924
28,6,10,Ticks_ISO_T2_5,105,9999,9999,9999,2452973620
28,6,10,Ticks_ISO_T2_5,106,9999,9999,9999,2453473388
28,6,10,Ticks_ISO_T2_5,107,9999,9999,9999,2453974128
28,6,10,Ticks_ISO_T2_5,108,9999,9999,9999,2454473780
28,6,10,Ticks_ISO_T2_5,109,9999,9999,9999,2454973516
28,6,10,Ticks_ISO_T2_5,110,9999,9999,9999,2455473212
28,6,10,Ticks_ISO_T2_5,111,9999,9999,9999,2455973948
28,6,10,Ticks_ISO_T2_5,112,9999,9999,9999,2456473648
28,6,10,Ticks_ISO_T2_5,113,9999,9999,9999,2456973412
28,6,10,Ticks_ISO_T2_5,114,9999,9999,9999,2457473088
28,6,10,Ticks_ISO_T2_5,115,9999,9999,9999,2457973828
28,6,10,Ticks_ISO_T2_5,116,9999,9999,9999,2458473592
28,6,10,Ticks_ISO_T2_5,117,9999,9999,9999,2458973296
28,6,10,Ticks_ISO_T2_5,118,9999,9999,9999,2459474036
28,6,10,Ticks_ISO_T2_5,119,9999,9999,9999,2459973732
28,6,10,Ticks_ISO_T2_5,120,9999,9999,9999,2460473428
28,6,10,Ticks_ISO_T2_5,121,9999,9999,9999,2460973120
28,6,10,Ticks_ISO_T2_5,122,9999,9999,9999,2461473860
28,6,10,Ticks_ISO_T2_5,123,9999,9999,9999,2461973556
28,6,10,Ticks_ISO_T2_5,124,9999,9999,9999,2462473324
28,6,10,Ticks_ISO_T2_5,125,9999,9999,9999,2462974064
28,6,10,Ticks_ISO_T2_5,126,9999,9999,9999,2463473760
28,6,10,Ticks_ISO_T2_5,127,9999,9999,9999,2463973456
28,6,10,Ticks_ISO_T2_5,128,9999,9999,9999,2464473156
28,6,10,Ticks_ISO_T2_5,129,9999,9999,9999,2464973888
28,7,9,Ticks_ISO_T2_8,0,5,42,127,2478827864
28,7,9,Ticks_ISO_T2_8,1,5,42,127,2479627544
28,7,9,Ticks_ISO_T2_8,2,5,42,127,2480428348
28,7,9,Ticks_ISO_T2_8,3,1,48,32,2480460040
28,7,9,Ticks_ISO_T2_8,4,1,48,27,2481209940
28,7,9,Ticks_ISO_T2_8,5,5,42,127,2481228372
28,7,9,Ticks_ISO_T2_8,6,5,42,127,2482027964
28,7,9,Ticks_ISO_T2_8,7,1,48,43,2482051872
28,7,9,Ticks_ISO_T2_8,8,1,48,31,2482827872
28,7,9,Ticks_ISO_T2_8,9,5,42,127,2482829364
28,7,9,Ticks_ISO_T2_8,10,1,48,43,2483601536
28,7,9,Ticks_ISO_T2_8,11,5,42,127,2483628348
28,7,9,Ticks_ISO_T2_8,12,1,48,44,2484406732
28,7,9,Ticks_ISO_T2_8,13,5,42,127,2484428232
28,7,9,Ticks_ISO_T2_8,14,1,48,53,2485181256
28,7,9,Ticks_ISO_T2_8,15,5,42,127,2485227964
28,7,9,Ticks_ISO_T2_8,16,1,48,39,2486013980
28,7,9,Ticks_ISO_T2_8,17,5,42,127,2486027552
28,7,9,Ticks_ISO_T2_8,18,1,48,31,2486825376
28,7,9,Ticks_ISO_T2_8,19,5,42,127,2486828404
28,7,9,Ticks_ISO_T2_8,20,1,48,42,2487622392
28,7,9,Ticks_ISO_T2_8,21,5,42,127,2487628264
28,7,9,Ticks_ISO_T2_8,22,1,48,42,2488385248
28,7,9,Ticks_ISO_T2_8,23,5,42,127,2488427848
28,7,9,Ticks_ISO_T2_8,24,1,48,46,2489216180
28,7,9,Ticks_ISO_T2_8,25,5,42,127,2489227756
28,7,9,Ticks_ISO_T2_8,26,5,42,127,2490028392
28,7,9,Ticks_ISO_T2_8,27,1,48,37,2490039592
28,7,9,Ticks_ISO_T2_8,28,5,42,127,2490828276
28,7,9,Ticks_ISO_T2_8,29,1,48,43,2490880536
28,7,9,Ticks_ISO_T2_8,30,5,42,127,2491627860
28,7,9,Ticks_ISO_T2_8,31,1,48,42,2491636508
28,7,9,Ticks_ISO_T2_8,32,1,48,42,2492418948
28,7,9,Ticks_ISO_T2_8,33,5,42,127,2492427588
28,7,9,Ticks_ISO_T2_8,34,1,48,48,2493219132
28,7,9,Ticks_ISO_T2_8,35,5,42,127,2493228516
28,7,9,Ticks_ISO_T2_8,36,5,42,127,2494028032
28,7,9,Ticks_ISO_T2_8,37,1,48,40,2494059576
28,7,9,Ticks_ISO_T2_8,38,1,48,45,2494808800
28,7,9,Ticks_ISO_T2_8,39,5,42,127,2494827908
28,7,9,Ticks_ISO_T2_8,40,1,48,33,2495601424
28,7,9,Ticks_ISO_T2_8,41,5,42,127,2495627592
28,7,9,Ticks_ISO_T2_8,42,1,48,43,2496403424
28,7,9,Ticks_ISO_T2_8,43,5,42,127,2496428520
28,7,9,Ticks_ISO_T2_8,44,5,42,127,2497228112
28,7,9,Ticks_ISO_T2_8,45,1,48,31,2497231600
28,7,9,Ticks_ISO_T2_8,46,1,48,45,2498013444
28,7,9,Ticks_ISO_T2_8,47,5,42,127,2498027912
28,7,9,Ticks_ISO_T2_8,48,1,48,31,2498770316
28,7,9,Ticks_ISO_T2_8,49,5,42,127,2498827720
28,7,9,Ticks_ISO_T2_8,50,5,42,127,2499628508
28,7,9,Ticks_ISO_T2_8,51,1,48,53,2499637908
28,7,9,Ticks_ISO_T2_8,52,5,42,127,2500428240
28,7,9,Ticks_ISO_T2_8,53,1,48,49,2500438688
28,7,9,Ticks_ISO_T2_8,54,1,48,29,2501214244
28,7,9,Ticks_ISO_T2_8,55,5,42,127,2501227816
28,7,9,Ticks_ISO_T2_8,56,5,42,127,2502027656
28,7,9,Ticks_ISO_T2_8,57,1,48,39,2502057404
28,7,9,Ticks_ISO_T2_8,58,1,48,40,2502819272
28,7,9,Ticks_ISO_T2_8,59,5,42,127,2502828356
28,7,9,Ticks_ISO_T2_8,60,1,48,32,2503581528
28,7,9,Ticks_ISO_T2_8,61,5,42,127,2503628240
28,7,9,Ticks_ISO_T2_8,62,1,48,43,2504403776
28,7,9,Ticks_ISO_T2_8,63,5,42,127,2504427748
28,7,9,Ticks_ISO_T2_8,64,1,48,34,2505200748
28,7,9,Ticks_ISO_T2_8,65,5,42,127,2505227632
28,7,9,Ticks_ISO_T2_8,66,5,42,127,2506028496
28,7,9,Ticks_ISO_T2_8,67,1,48,41,2506813848
28,7,9,Ticks_ISO_T2_8,68,5,42,127,2506828020
28,7,9,Ticks_ISO_T2_8,69,1,48,41,2507609172
28,7,9,Ticks_ISO_T2_8,70,5,42,127,2507627976
28,7,9,Ticks_ISO_T2_8,71,1,48,46,2508389828
28,7,9,Ticks_ISO_T2_8,72,5,42,127,2508427732
28,7,9,Ticks_ISO_T2_8,73,1,48,37,2509226776
28,7,9,Ticks_ISO_T2_8,74,5,42,127,2509228364
28,7,9,Ticks_ISO_T2_8,75,1,48,38,2510005328
28,7,9,Ticks_ISO_T2_8,76,5,42,127,2510028100
28,7,9,Ticks_ISO_T2_8,77,1,48,40,2510803484
28,7,9,Ticks_ISO_T2_8,78,5,42,127,2510827832
28,7,9,Ticks_ISO_T2_8,79,1,48,48,2511566948
28,7,9,Ticks_ISO_T2_8,80,5,42,127,2511627864
28,7,9,Ticks_ISO_T2_8,81,1,48,45,2512424420
28,7,9,Ticks_ISO_T2_8,82,5,42,127,2512428272
28,7,9,Ticks_ISO_T2_8,83,1,48,44,2513217652
28,7,9,Ticks_ISO_T2_8,84,5,42,127,2513228008
28,7,9,Ticks_ISO_T2_8,85,5,42,127,2514027748
28,7,9,Ticks_ISO_T2_8,86,1,48,45,2514034376
28,7,9,Ticks_ISO_T2_8,87,5,42,127,2514827876
28,7,9,Ticks_ISO_T2_8,88,1,48,41,2514836980
28,7,9,Ticks_ISO_T2_8,89,5,42,127,2515628288
28,7,9,Ticks_ISO_T2_8,90,1,48,32,2515637316
28,7,9,Ticks_ISO_T2_8,91,1,48,40,2516420496
28,7,9,Ticks_ISO_T2_8,92,5,42,127,2516428012
28,7,9,Ticks_ISO_T2_8,93,1,48,43,2517196900
28,7,9,Ticks_ISO_T2_8,94,5,42,127,2517227820
28,7,9,Ticks_ISO_T2_8,95,1,48,41,2518019816
28,7,9,Ticks_ISO_T2_8,96,5,42,127,2518027704
28,7,9,Ticks_ISO_T2_8,97,1,48,38,2518803840
28,7,9,Ticks_ISO_T2_8,98,5,42,127,2518828484
28,7,9,Ticks_ISO_T2_8,99,1,48,42,2519624820
28,7,9,Ticks_ISO_T2_8,100,5,42,127,2519628364
28,7,9,Ticks_ISO_T2_8,101,1,48,45,2520399944
28,7,9,Ticks_ISO_T2_8,102,5,42,127,2520427800
28,7,9,Ticks_ISO_T2_8,103,5,42,127,2521227568
28,7,9,Ticks_ISO_T2_8,104,1,48,47,2521268460
28,7,9,Ticks_ISO_T2_8,105,5,42,127,2522028496
28,7,9,Ticks_ISO_T2_8,106,1,48,40,2522074920
28,7,9,Ticks_ISO_T2_8,107,5,42,127,2522828452
28,7,9,Ticks_ISO_T2_8,108,1,48,42,2522848700
28,7,9,Ticks_ISO_T2_8,109,1,48,42,2523588204
28,7,9,Ticks_ISO_T2_8,110,5,42,127,2523627880
28,7,9,Ticks_ISO_T2_8,111,5,42,127,2524427696
28,7,9,Ticks_ISO_T2_8,112,1,48,36,2524454296
28,7,9,Ticks_ISO_T2_8,113,1,48,43,2525219456
28,7,9,Ticks_ISO_T2_8,114,5,42,127,2525228392
28,7,9,Ticks_ISO_T2_8,115,5,42,127,2526028208
28,7,9,Ticks_ISO_T2_8,116,1,48,38,2526041048
28,7,9,Ticks_ISO_T2_8,117,1,48,35,2526789680
28,7,9,Ticks_ISO_T2_8,118,5,42,127,2526827936
28,7,9,Ticks_ISO_T2_8,119,5,42,127,2527627700
28,7,9,Ticks_ISO_T2_8,120,1,48,40,2527635604
28,7,9,Ticks_ISO_T2_8,121,5,42,127,2528428480
28,7,9,Ticks_ISO_T2_8,122,1,48,41,2528444012
28,7,9,Ticks_ISO_T2_8,123,1,48,37,2529223456
28,7,9,Ticks_ISO_T2_8,124,5,42,127,2529228132
28,7,9,Ticks_ISO_T2_8,125,1,48,48,2530017288
28,7,9,Ticks_ISO_T2_8,126,5,42,127,2530028164
28,7,9,Ticks_ISO_T2_8,127,1,48,46,2530827904
28,7,9,Ticks_ISO_T2_8,128,5,42,127,2530829468
28,7,9,Ticks_ISO_T2_8,129,1,48,43,2531628756
28,7,9,Ticks_ISO_T2_8,130,5,42,127,2531630100
28,7,9,Ticks_ISO_T2_8,131,5,42,127,2532428044
28,7,9,Ticks_ISO_T2_8,132,1,48,51,2532466088
28,7,9,Ticks_ISO_T2_8,133,1,48,42,2533225116
28,7,9,Ticks_ISO_T2_8,134,5,42,127,2533228140
28,7,9,Ticks_ISO_T2_8,135,5,42,127,2534027684
28,7,9,Ticks_ISO_T2_8,136,1,48,43,2534047036
28,7,9,Ticks_ISO_T2_8,137,1,48,45,2534822588
28,7,9,Ticks_ISO_T2_8,138,5,42,127,2534828384
28,7,9,Ticks_ISO_T2_8,139,5,42,127,2535628048
28,7,9,Ticks_ISO_T2_8,140,1,48,37,2535656676
28,7,9,Ticks_ISO_T2_8,141,1,48,40,2536422432
28,7,9,Ticks_ISO_T2_8,142,5,42,127,2536427848
28,7,9,Ticks_ISO_T2_8,143,1,48,38,2537202340
28,7,9,Ticks_ISO_T2_8,144,5,42,127,2537227808
28,7,9,Ticks_ISO_T2_8,145,5,42,127,2538028816
28,7,9,Ticks_ISO_T2_8,146,1,48,32,2538029932
28,7,9,Ticks_ISO_T2_8,147,1,48,35,2538821032
28,7,9,Ticks_ISO_T2_8,148,5,42,127,2538828024
28,7,9,Ticks_ISO_T2_8,149,5,42,127,2539627836
28,7,9,Ticks_ISO_T2_8,150,1,48,25,2539641648
28,7,9,Ticks_ISO_T2_8,151,5,42,127,2540427816
28,7,9,Ticks_ISO_T2_8,152,1,48,41,2540455244
28,7,9,Ticks_ISO_T2_8,153,1,48,36,2541207016
28,7,9,Ticks_ISO_T2_8,154,5,42,127,2541228664
28,7,9,Ticks_ISO_T2_8,155,1,48,41,2542026976
28,7,9,Ticks_ISO_T2_8,156,5,42,127,2542028852
28,7,9,Ticks_ISO_T2_8,157,1,48,50,2542772448
28,7,9,Ticks_ISO_T2_8,158,5,42,127,2542827908
28,7,9,Ticks_ISO_T2_8,159,5,42,127,2543627720
28,7,9,Ticks_ISO_T2_8,160,1,48,40,2543656048
28,7,9,Ticks_ISO_T2_8,161,5,42,127,2544428504
28,7,9,Ticks_ISO_T2_8,162,1,48,35,2544462660
28,7,9,Ticks_ISO_T2_8,163,1,48,39,2545210844
28,7,9,Ticks_ISO_T2_8,164,5,42,127,2545228080
28,7,9,Ticks_ISO_T2_8,165,5,42,127,2546027748
28,7,9,Ticks_ISO_T2_8,166,1,48,46,2546031916
28,7,9,Ticks_ISO_T2_8,167,1,48,43,2546804776
28,7,9,Ticks_ISO_T2_8,168,5,42,127,2546827724
28,7,9,Ticks_ISO_T2_8,169,1,48,40,2547593464
28,7,9,Ticks_ISO_T2_8,170,5,42,127,2547628280
28,7,9,Ticks_ISO_T2_8,171,1,48,48,2548404416
28,7,9,Ticks_ISO_T2_8,172,5,42,127,2548428012
28,7,9,Ticks_ISO_T2_8,173,1,48,42,2549226696
28,7,9,Ticks_ISO_T2_8,174,5,42,127,2549228488
28,7,9,Ticks_ISO_T2_8,175,1,48,41,2550013604
28,7,9,Ticks_ISO_T2_8,176,5,42,127,2550027628
28,7,9,Ticks_ISO_T2_8,177,1,48,47,2550805636
28,7,9,Ticks_ISO_T2_8,178,5,42,127,2550828332
28,7,9,Ticks_ISO_T2_8,179,5,42,127,2551628296
28,7,9,Ticks_ISO_T2_8,180,1,48,29,2551653928
28,7,9,Ticks_ISO_T2_8,181,1,48,40,2552411080
28,7,9,Ticks_ISO_T2_8,182,5,42,127,2552427796
28,7,9,Ticks_ISO_T2_8,183,1,48,34,2553212832
28,7,9,Ticks_ISO_T2_8,184,5,42,127,2553227484
28,7,9,Ticks_ISO_T2_8,185,1,48,48,2554006384
28,7,9,Ticks_ISO_T2_8,186,5,42,127,2554028264
28,7,9,Ticks_ISO_T2_8,187,5,42,127,2554828076
28,7,9,Ticks_ISO_T2_8,188,1,48,41,2554842192
28,7,9,Ticks_ISO_T2_8,189,1,48,32,2555580048
28,7,9,Ticks_ISO_T2_8,190,5,42,127,2555628104
28,7,9,Ticks_ISO_T2_8,191,5,42,127,2556427620
28,7,9,Ticks_ISO_T2_8,192,1,48,30,2556448316
28,7,9,Ticks_ISO_T2_8,193,1,48,48,2557189540
28,7,9,Ticks_ISO_T2_8,194,5,42,127,2557228468
28,7,9,Ticks_ISO_T2_8,195,5,42,127,2558028208
28,7,9,Ticks_ISO_T2_8,196,1,48,49,2558030880
28,7,9,Ticks_ISO_T2_8,197,5,42,127,2558828088
28,7,9,Ticks_ISO_T2_8,198,1,48,25,2558865788
28,7,9,Ticks_ISO_T2_8,199,5,42,127,2559627624
28,7,9,Ticks_ISO_T2_8,200,1,48,37,2559646900
28,7,9,Ticks_ISO_T2_8,201,5,42,127,2560428328
28,7,9,Ticks_ISO_T2_8,202,1,48,40,2560435108
28,7,9,Ticks_ISO_T2_8,203,5,42,127,2561228212
28,7,9,Ticks_ISO_T2_8,204,1,48,40,2561246516
28,7,9,Ticks_ISO_T2_8,205,1,48,34,2562018928
28,7,9,Ticks_ISO_T2_8,206,5,42,127,2562027864
28,7,9,Ticks_ISO_T2_8,207,1,48,43,2562801760
28,7,9,Ticks_ISO_T2_8,208,5,42,127,2562827672
28,7,9,Ticks_ISO_T2_8,209,1,48,28,2563623184
28,7,9,Ticks_ISO_T2_8,210,5,42,127,2563628600
28,7,9,Ticks_ISO_T2_8,211,5,42,127,2564428192
28,7,9,Ticks_ISO_T2_8,212,1,48,42,2564445072
28,7,9,Ticks_ISO_T2_8,213,1,48,39,2565212256
28,7,9,Ticks_ISO_T2_8,214,5,42,127,2565227848
28,7,9,Ticks_ISO_T2_8,215,1,48,43,2566005852
28,7,9,Ticks_ISO_T2_8,216,5,42,127,2566027828
28,7,9,Ticks_ISO_T2_8,217,1,48,36,2566825060
28,7,9,Ticks_ISO_T2_8,218,5,42,127,2566828680
28,7,9,Ticks_ISO_T2_8,219,1,48,44,2567597864
28,7,9,Ticks_ISO_T2_8,220,5,42,127,2567628192
28,7,9,Ticks_ISO_T2_8,221,1,48,41,2568412480
28,7,9,Ticks_ISO_T2_8,222,5,42,127,2568427776
28,7,9,Ticks_ISO_T2_8,223,1,48,43,2569206304
28,7,9,Ticks_ISO_T2_8,224,5,42,127,2569227660
28,7,9,Ticks_ISO_T2_8,225,1,48,29,2570025708
28,7,9,Ticks_ISO_T2_8,226,5,42,127,2570028512
28,7,9,Ticks_ISO_T2_8,227,5,42,127,2570828104
28,7,9,Ticks_ISO_T2_8,228,1,48,43,2570843340
28,7,9,Ticks_ISO_T2_8,229,5,42,127,2571627840
28,7,9,Ticks_ISO_T2_8,230,1,48,32,2571708772
28,7,9,Ticks_ISO_T2_8,231,5,42,127,2572427524
28,7,9,Ticks_ISO_T2_8,232,1,48,47,2572434828
28,7,9,Ticks_ISO_T2_8,233,1,48,46,2573196020
28,7,9,Ticks_ISO_T2_8,234,5,42,127,2573228372
28,7,9,Ticks_ISO_T2_8,235,5,42,127,2574028484
28,7,9,Ticks_ISO_T2_8,236,1,48,43,2574032276
28,7,9,Ticks_ISO_T2_8,237,1,48,44,2574812696
28,7,9,Ticks_ISO_T2_8,0,9999,9999,9999,2478825572
28,7,9,Ticks_ISO_T2_8,1,9999,9999,9999,2479625328
28,7,9,Ticks_ISO_T2_8,2,9999,9999,9999,2480426056
28,7,9,Ticks_ISO_T2_8,3,9999,9999,9999,2481225784
28,7,9,Ticks_ISO_T2_8,4,9999,9999,9999,2482025524
28,7,9,Ticks_ISO_T2_8,5,9999,9999,9999,2482825280
28,7,9,Ticks_ISO_T2_8,6,9999,9999,9999,2483626056
28,7,9,Ticks_ISO_T2_8,7,9999,9999,9999,2484425788
28,7,9,Ticks_ISO_T2_8,8,9999,9999,9999,2485225524
28,7,9,Ticks_ISO_T2_8,9,9999,9999,9999,2486025336
28,7,9,Ticks_ISO_T2_8,10,9999,9999,9999,2486826040
28,7,9,Ticks_ISO_T2_8,11,9999,9999,9999,2487625824
28,7,9,Ticks_ISO_T2_8,12,9999,9999,9999,2488425556
28,7,9,Ticks_ISO_T2_8,13,9999,9999,9999,2489225316
28,7,9,Ticks_ISO_T2_8,14,9999,9999,9999,2490026100
28,7,9,Ticks_ISO_T2_8,15,9999,9999,9999,2490825836
28,7,9,Ticks_ISO_T2_8,16,9999,9999,9999,2491625568
28,7,9,Ticks_ISO_T2_8,17,9999,9999,9999,2492425296
28,7,9,Ticks_ISO_T2_8,18,9999,9999,9999,2493226076
28,7,9,Ticks_ISO_T2_8,19,9999,9999,9999,2494025816
28,7,9,Ticks_ISO_T2_8,20,9999,9999,9999,2494825540
28,7,9,Ticks_ISO_T2_8,21,9999,9999,9999,2495625300
28,7,9,Ticks_ISO_T2_8,22,9999,9999,9999,2496426080
28,7,9,Ticks_ISO_T2_8,23,9999,9999,9999,2497225820
28,7,9,Ticks_ISO_T2_8,24,9999,9999,9999,2498025548
28,7,9,Ticks_ISO_T2_8,25,9999,9999,9999,2498825280
28,7,9,Ticks_ISO_T2_8,26,9999,9999,9999,2499626064
28,7,9,Ticks_ISO_T2_8,27,9999,9999,9999,2500425800
28,7,9,Ticks_ISO_T2_8,28,9999,9999,9999,2501225524
28,7,9,Ticks_ISO_T2_8,29,9999,9999,9999,2502025288
28,7,9,Ticks_ISO_T2_8,30,9999,9999,9999,2502826064
28,7,9,Ticks_ISO_T2_8,31,9999,9999,9999,2503625800
28,7,9,Ticks_ISO_T2_8,32,9999,9999,9999,2504425532
28,7,9,Ticks_ISO_T2_8,33,9999,9999,9999,2505225268
28,7,9,Ticks_ISO_T2_8,34,9999,9999,9999,2506026052
28,7,9,Ticks_ISO_T2_8,35,9999,9999,9999,2506825800
28,7,9,Ticks_ISO_T2_8,36,9999,9999,9999,2507625536
28,7,9,Ticks_ISO_T2_8,37,9999,9999,9999,2508425292
28,7,9,Ticks_ISO_T2_8,38,9999,9999,9999,2509226080
28,7,9,Ticks_ISO_T2_8,39,9999,9999,9999,2510025808
28,7,9,Ticks_ISO_T2_8,40,9999,9999,9999,2510825540
28,7,9,Ticks_ISO_T2_8,41,9999,9999,9999,2511625276
28,7,9,Ticks_ISO_T2_8,42,9999,9999,9999,2512426056
28,7,9,Ticks_ISO_T2_8,43,9999,9999,9999,2513225788
28,7,9,Ticks_ISO_T2_8,44,9999,9999,9999,2514025532
28,7,9,Ticks_ISO_T2_8,45,9999,9999,9999,2514825288
28,7,9,Ticks_ISO_T2_8,46,9999,9999,9999,2515626068
28,7,9,Ticks_ISO_T2_8,47,9999,9999,9999,2516425796
28,7,9,Ticks_ISO_T2_8,48,9999,9999,9999,2517225528
28,7,9,Ticks_ISO_T2_8,49,9999,9999,9999,2518025264
28,7,9,Ticks_ISO_T2_8,50,9999,9999,9999,2518826044
28,7,9,Ticks_ISO_T2_8,51,9999,9999,9999,2519625776
28,7,9,Ticks_ISO_T2_8,52,9999,9999,9999,2520425584
28,7,9,Ticks_ISO_T2_8,53,9999,9999,9999,2521225276
28,7,9,Ticks_ISO_T2_8,54,9999,9999,9999,2522026056
28,7,9,Ticks_ISO_T2_8,55,9999,9999,9999,2522825788
28,7,9,Ticks_ISO_T2_8,56,9999,9999,9999,2523625588
28,7,9,Ticks_ISO_T2_8,57,9999,9999,9999,2524425328
28,7,9,Ticks_ISO_T2_8,58,9999,9999,9999,2525226100
28,7,9,Ticks_ISO_T2_8,59,9999,9999,9999,2526025840
28,7,9,Ticks_ISO_T2_8,60,9999,9999,9999,2526825568
28,7,9,Ticks_ISO_T2_8,61,9999,9999,9999,2527625332
28,7,9,Ticks_ISO_T2_8,62,9999,9999,9999,2528426036
28,7,9,Ticks_ISO_T2_8,63,9999,9999,9999,2529225840
28,7,9,Ticks_ISO_T2_8,64,9999,9999,9999,2530025572
28,7,9,Ticks_ISO_T2_8,65,9999,9999,9999,2530825312
28,7,9,Ticks_ISO_T2_8,66,9999,9999,9999,2531626092
28,7,9,Ticks_ISO_T2_8,67,9999,9999,9999,2532425828
28,7,9,Ticks_ISO_T2_8,68,9999,9999,9999,2533225552
28,7,9,Ticks_ISO_T2_8,69,9999,9999,9999,2534025320
28,7,9,Ticks_ISO_T2_8,70,9999,9999,9999,2534826092
28,7,9,Ticks_ISO_T2_8,71,9999,9999,9999,2535625832
28,7,9,Ticks_ISO_T2_8,72,9999,9999,9999,2536425560
28,7,9,Ticks_ISO_T2_8,73,9999,9999,9999,2537225292
28,7,9,Ticks_ISO_T2_8,74,9999,9999,9999,2538026080
28,7,9,Ticks_ISO_T2_8,75,9999,9999,9999,2538825804
28,7,9,Ticks_ISO_T2_8,76,9999,9999,9999,2539625544
28,7,9,Ticks_ISO_T2_8,77,9999,9999,9999,2540425304
28,7,9,Ticks_ISO_T2_8,78,9999,9999,9999,2541226076
28,7,9,Ticks_ISO_T2_8,79,9999,9999,9999,2542025816
28,7,9,Ticks_ISO_T2_8,80,9999,9999,9999,2542825540
28,7,9,Ticks_ISO_T2_8,81,9999,9999,9999,2543625280
28,7,9,Ticks_ISO_T2_8,82,9999,9999,9999,2544426060
28,7,9,Ticks_ISO_T2_8,83,9999,9999,9999,2545225792
28,7,9,Ticks_ISO_T2_8,84,9999,9999,9999,2546025532
28,7,9,Ticks_ISO_T2_8,85,9999,9999,9999,2546825284
28,7,9,Ticks_ISO_T2_8,86,9999,9999,9999,2547626064
28,7,9,Ticks_ISO_T2_8,87,9999,9999,9999,2548425796
28,7,9,Ticks_ISO_T2_8,88,9999,9999,9999,2549225536
28,7,9,Ticks_ISO_T2_8,89,9999,9999,9999,2550025264
28,7,9,Ticks_ISO_T2_8,90,9999,9999,9999,2550826040
28,7,9,Ticks_ISO_T2_8,91,9999,9999,9999,2551625780
28,7,9,Ticks_ISO_T2_8,92,9999,9999,9999,2552425580
28,7,9,Ticks_ISO_T2_8,93,9999,9999,9999,2553225264
28,7,9,Ticks_ISO_T2_8,94,9999,9999,9999,2554026044
28,7,9,Ticks_ISO_T2_8,95,9999,9999,9999,2554825784
28,7,9,Ticks_ISO_T2_8,96,9999,9999,9999,2555625588
28,7,9,Ticks_ISO_T2_8,97,9999,9999,9999,2556425328
28,7,9,Ticks_ISO_T2_8,98,9999,9999,9999,2557226100
28,7,9,Ticks_ISO_T2_8,99,9999,9999,9999,2558025840
28,7,9,Ticks_ISO_T2_8,100,9999,9999,9999,2558825572
28,7,9,Ticks_ISO_T2_8,101,9999,9999,9999,2559625332
28,7,9,Ticks_ISO_T2_8,102,9999,9999,9999,2560426036
28,7,9,Ticks_ISO_T2_8,103,9999,9999,9999,2561225844
28,7,9,Ticks_ISO_T2_8,104,9999,9999,9999,2562025572
28,7,9,Ticks_ISO_T2_8,105,9999,9999,9999,2562825304
28,7,9,Ticks_ISO_T2_8,106,9999,9999,9999,2563626084
28,7,9,Ticks_ISO_T2_8,107,9999,9999,9999,2564425824
28,7,9,Ticks_ISO_T2_8,108,9999,9999,9999,2565225556
28,7,9,Ticks_ISO_T2_8,109,9999,9999,9999,2566025312
28,7,9,Ticks_ISO_T2_8,110,9999,9999,9999,2566826092
28,7,9,Ticks_ISO_T2_8,111,9999,9999,9999,2567625824
28,7,9,Ticks_ISO_T2_8,112,9999,9999,9999,2568425560
28,7,9,Ticks_ISO_T2_8,113,9999,9999,9999,2569225292
28,7,9,Ticks_ISO_T2_8,114,9999,9999,9999,2570026072
28,7,9,Ticks_ISO_T2_8,115,9999,9999,9999,2570825812
28,7,9,Ticks_ISO_T2_8,116,9999,9999,9999,2571625548
28,7,9,Ticks_ISO_T2_8,117,9999,9999,9999,2572425304
28,7,9,Ticks_ISO_T2_8,118,9999,9999,9999,2573226080
28,7,9,Ticks_ISO_T2_8,119,9999,9999,9999,2574025820
28,8,23,Ticks_Phase_5,0,5,42,127,2585880928
28,8,23,Ticks_Phase_5,1,5,42,127,2586380860
28,8,23,Ticks_Phase_5,2,5,42,127,2586881320
28,8,23,Ticks_Phase_5,3,5,42,127,2587381104
28,8,23,Ticks_Phase_5,4,5,42,127,2587880668
28,8,23,Ticks_Phase_5,5,1,48,41,2587911644
28,8,23,Ticks_Phase_5,6,5,42,127,2588380504
28,8,23,Ticks_Phase_5,7,1,48,49,2588436260
28,8,23,Ticks_Phase_5,8,5,42,127,2588881460
28,8,23,Ticks_Phase_5,9,1,48,38,2588926960
28,8,23,Ticks_Phase_5,10,5,42,127,2589380928
28,8,23,Ticks_Phase_5,11,1,48,46,2589396024
28,8,23,Ticks_Phase_5,12,1,48,36,2589864176
28,8,23,Ticks_Phase_5,13,5,42,127,2589880828
28,8,23,Ticks_Phase_5,14,1,48,39,2590377564
28,8,23,Ticks_Phase_5,15,5,42,127,2590381712
28,8,23,Ticks_Phase_5,16,1,48,40,2590877400
28,8,23,Ticks_Phase_5,17,5,42,127,2590891660
28,8,23,Ticks_Phase_5,18,1,48,38,2591363760
28,8,23,Ticks_Phase_5,19,5,42,127,2591391052
28,8,23,Ticks_Phase_5,20,1,48,41,2591862004
28,8,23,Ticks_Phase_5,21,5,42,127,2591890812
28,8,23,Ticks_Phase_5,22,1,48,44,2592386572
28,8,23,Ticks_Phase_5,23,5,42,127,2592390648
28,8,23,Ticks_Phase_5,24,5,42,127,2592891516
28,8,23,Ticks_Phase_5,25,1,48,39,2592908452
28,8,23,Ticks_Phase_5,26,1,48,46,2593378204
28,8,23,Ticks_Phase_5,27,5,42,127,2593390900
28,8,23,Ticks_Phase_5,28,1,48,44,2593884640
28,8,23,Ticks_Phase_5,29,5,42,127,2593890736
28,8,23,Ticks_Phase_5,30,1,48,45,2594389208
28,8,23,Ticks_Phase_5,31,5,42,127,2594391620
28,8,23,Ticks_Phase_5,32,5,42,127,2594891240
28,8,23,Ticks_Phase_5,33,1,48,33,2594907012
28,8,23,Ticks_Phase_5,34,5,42,127,2595390852
28,8,23,Ticks_Phase_5,35,1,48,38,2595400564
28,8,23,Ticks_Phase_5,36,1,48,43,2595877096
28,8,23,Ticks_Phase_5,37,5,42,127,2595890536
28,8,23,Ticks_Phase_5,38,5,42,127,2596391424
28,8,23,Ticks_Phase_5,39,1,48,39,2596416932
28,8,23,Ticks_Phase_5,40,5,42,127,2596891184
28,8,23,Ticks_Phase_5,41,1,48,39,2596918432
28,8,23,Ticks_Phase_5,42,5,42,127,2597390652
28,8,23,Ticks_Phase_5,43,1,48,34,2597429048
28,8,23,Ticks_Phase_5,44,5,42,127,2597890340
28,8,23,Ticks_Phase_5,45,1,48,42,2597892352
28,8,23,Ticks_Phase_5,46,1,48,48,2598382804
28,8,23,Ticks_Phase_5,47,5,42,127,2598391364
28,8,23,Ticks_Phase_5,48,1,48,46,2598874476
28,8,23,Ticks_Phase_5,49,5,42,127,2598890980
28,8,23,Ticks_Phase_5,50,5,42,127,2599390528
28,8,23,Ticks_Phase_5,51,1,48,48,2599393868
28,8,23,Ticks_Phase_5,52,5,42,127,2599891260
28,8,23,Ticks_Phase_5,53,1,48,42,2599904640
28,8,23,Ticks_Phase_5,54,5,42,127,2600391172
28,8,23,Ticks_Phase_5,55,1,48,45,2600395264
28,8,23,Ticks_Phase_5,56,1,48,45,2600877040
28,8,23,Ticks_Phase_5,57,5,42,127,2600880448
28,8,23,Ticks_Phase_5,58,5,42,127,2601381264
28,8,23,Ticks_Phase_5,59,1,48,44,2601384232
28,8,23,Ticks_Phase_5,60,5,42,127,2601881024
28,8,23,Ticks_Phase_5,61,1,48,50,2601883696
28,8,23,Ticks_Phase_5,62,5,42,127,2602380640
28,8,23,Ticks_Phase_5,63,1,48,51,2602394388
28,8,23,Ticks_Phase_5,64,1,48,41,2602881376
28,8,23,Ticks_Phase_5,65,5,42,127,2602883092
28,8,23,Ticks_Phase_5,66,1,48,34,2603375684
28,8,23,Ticks_Phase_5,67,5,42,127,2603381032
28,8,23,Ticks_Phase_5,68,1,48,40,2603865260
28,8,23,Ticks_Phase_5,69,5,42,127,2603881016
28,8,23,Ticks_Phase_5,70,1,48,28,2604368092
28,8,23,Ticks_Phase_5,71,5,42,127,2604380484
28,8,23,Ticks_Phase_5,72,1,48,40,2604867928
28,8,23,Ticks_Phase_5,73,5,42,127,2604881364
28,8,23,Ticks_Phase_5,74,1,48,40,2605377200
28,8,23,Ticks_Phase_5,75,5,42,127,2605381128
28,8,23,Ticks_Phase_5,76,1,48,40,2605872400
28,8,23,Ticks_Phase_5,77,5,42,127,2605880816
28,8,23,Ticks_Phase_5,78,5,42,127,2606381556
28,8,23,Ticks_Phase_5,79,1,48,38,2606395232
28,8,23,Ticks_Phase_5,80,1,48,49,2606886372
28,8,23,Ticks_Phase_5,81,5,42,127,2606891500
28,8,23,Ticks_Phase_5,82,1,48,48,2607356256
28,8,23,Ticks_Phase_5,83,5,42,127,2607391112
28,8,23,Ticks_Phase_5,84,5,42,127,2607890884
28,8,23,Ticks_Phase_5,85,1,48,35,2607893852
28,8,23,Ticks_Phase_5,86,5,42,127,2608390496
28,8,23,Ticks_Phase_5,87,1,48,35,2608436220
28,8,23,Ticks_Phase_5,88,5,42,127,2608891308
28,8,23,Ticks_Phase_5,89,1,48,43,2608916212
28,8,23,Ticks_Phase_5,90,5,42,127,2609390996
28,8,23,Ticks_Phase_5,91,1,48,41,2609413288
28,8,23,Ticks_Phase_5,92,1,48,45,2609888484
28,8,23,Ticks_Phase_5,93,5,42,127,2609900864
28,8,23,Ticks_Phase_5,94,1,48,44,2610383972
28,8,23,Ticks_Phase_5,95,5,42,127,2610400628
28,8,23,Ticks_Phase_5,96,5,42,127,2610901448
28,8,23,Ticks_Phase_5,97,1,48,28,2610909888
28,8,23,Ticks_Phase_5,98,5,42,127,2611401208
28,8,23,Ticks_Phase_5,99,1,48,43,2611409500
28,8,23,Ticks_Phase_5,100,1,48,46,2611883116
28,8,23,Ticks_Phase_5,101,5,42,127,2611900744
28,8,23,Ticks_Phase_5,102,1,48,41,2612382056
28,8,23,Ticks_Phase_5,103,5,42,127,2612400728
28,8,23,Ticks_Phase_5,104,5,42,127,2612901172
28,8,23,Ticks_Phase_5,105,1,48,46,2612911408
28,8,23,Ticks_Phase_5,106,1,48,46,2613395424
28,8,23,Ticks_Phase_5,107,5,42,127,2613400928
28,8,23,Ticks_Phase_5,108,1,48,39,2613895640
28,8,23,Ticks_Phase_5,109,5,42,127,2613900616
28,8,23,Ticks_Phase_5,110,1,48,34,2614394256
28,8,23,Ticks_Phase_5,111,5,42,127,2614401648
28,8,23,Ticks_Phase_5,112,5,42,127,2614901172
28,8,23,Ticks_Phase_5,113,1,48,29,2614920120
28,8,23,Ticks_Phase_5,114,5,42,127,2615400932
28,8,23,Ticks_Phase_5,115,1,48,36,2615413488
28,8,23,Ticks_Phase_5,116,1,48,21,2615898352
28,8,23,Ticks_Phase_5,117,5,42,127,2615900468
28,8,23,Ticks_Phase_5,118,5,42,127,2616401356
28,8,23,Ticks_Phase_5,119,1,48,41,2616418096
28,8,23,Ticks_Phase_5,120,5,42,127,2616901044
28,8,23,Ticks_Phase_5,121,1,48,37,2616902456
28,8,23,Ticks_Phase_5,122,1,48,43,2617395896
28,8,23,Ticks_Phase_5,123,5,42,127,2617400724
28,8,23,Ticks_Phase_5,124,1,48,48,2617892220
28,8,23,Ticks_Phase_5,125,5,42,127,2617920932
28,8,23,Ticks_Phase_5,126,5,42,127,2618420552
28,8,23,Ticks_Phase_5,127,1,48,43,2618433328
28,8,23,Ticks_Phase_5,128,1,48,31,2618913684
28,8,23,Ticks_Phase_5,129,5,42,127,2618921280
28,8,23,Ticks_Phase_5,130,5,42,127,2619421200
28,8,23,Ticks_Phase_5,131,1,48,32,2619469628
28,8,23,Ticks_Phase_5,132,5,42,127,2619920812
28,8,23,Ticks_Phase_5,133,1,48,45,2619940856
28,8,23,Ticks_Phase_5,134,5,42,127,2620420576
28,8,23,Ticks_Phase_5,135,1,48,37,2620444888
28,8,23,Ticks_Phase_5,136,1,48,44,2620906216
28,8,23,Ticks_Phase_5,137,5,42,127,2620921376
28,8,23,Ticks_Phase_5,138,1,48,43,2621387260
28,8,23,Ticks_Phase_5,139,5,42,127,2621421064
28,8,23,Ticks_Phase_5,140,5,42,127,2621920688
28,8,23,Ticks_Phase_5,141,1,48,39,2621923732
28,8,23,Ticks_Phase_5,142,5,42,127,2622421348
28,8,23,Ticks_Phase_5,143,1,48,14,2622437644
28,8,23,Ticks_Phase_5,144,1,48,47,2622889848
28,8,23,Ticks_Phase_5,145,5,42,127,2622921328
28,8,23,Ticks_Phase_5,146,5,42,127,2623420724
28,8,23,Ticks_Phase_5,147,1,48,40,2623899360
28,8,23,Ticks_Phase_5,148,5,42,127,2623920356
28,8,23,Ticks_Phase_5,149,1,48,40,2624406976
28,8,23,Ticks_Phase_5,150,5,42,127,2624421312
28,8,23,Ticks_Phase_5,151,1,48,34,2624916024
28,8,23,Ticks_Phase_5,152,5,42,127,2624921076
28,8,23,Ticks_Phase_5,153,1,48,35,2625419256
28,8,23,Ticks_Phase_5,154,5,42,127,2625421136
28,8,23,Ticks_Phase_5,155,5,42,127,2625921284
28,8,23,Ticks_Phase_5,156,1,48,45,2625933392
28,8,23,Ticks_Phase_5,157,5,42,127,2626400504
28,8,23,Ticks_Phase_5,158,1,48,37,2626428432
28,8,23,Ticks_Phase_5,159,5,42,127,2626901316
28,8,23,Ticks_Phase_5,160,1,48,43,2626931996
28,8,23,Ticks_Phase_5,161,5,42,127,2627401004
28,8,23,Ticks_Phase_5,162,1,48,37,2627414232
28,8,23,Ticks_Phase_5,163,5,42,127,2627900988
28,8,23,Ticks_Phase_5,164,1,48,34,2627914440
28,8,23,Ticks_Phase_5,165,5,42,127,2628400380
28,8,23,Ticks_Phase_5,166,1,48,26,2628431580
28,8,23,Ticks_Phase_5,167,1,48,50,2628884444
28,8,23,Ticks_Phase_5,168,5,42,127,2628901180
28,8,23,Ticks_Phase_5,169,1,48,42,2629372984
28,8,23,Ticks_Phase_5,170,5,42,127,2629400796
28,8,23,Ticks_Phase_5,171,5,42,127,2629900788
28,8,23,Ticks_Phase_5,172,1,48,25,2629910276
28,8,23,Ticks_Phase_5,173,5,42,127,2630401496
28,8,23,Ticks_Phase_5,174,1,48,44,2630409940
28,8,23,Ticks_Phase_5,175,5,42,127,2630901184
28,8,23,Ticks_Phase_5,176,1,48,41,2630910452
28,8,23,Ticks_Phase_5,177,5,42,127,2631400948
28,8,23,Ticks_Phase_5,178,1,48,38,2631432972
28,8,23,Ticks_Phase_5,179,1,48,48,2631870648
28,8,23,Ticks_Phase_5,180,5,42,127,2631900404
28,8,23,Ticks_Phase_5,181,1,48,46,2632367780
28,8,23,Ticks_Phase_5,182,5,42,127,2632401288
28,8,23,Ticks_Phase_5,183,5,42,127,2632900984
28,8,23,Ticks_Phase_5,184,1,48,35,2632911444
28,8,23,Ticks_Phase_5,185,5,42,127,2633400672
28,8,23,Ticks_Phase_5,186,1,48,43,2633426848
28,8,23,Ticks_Phase_5,187,5,42,127,2633901556
28,8,23,Ticks_Phase_5,188,1,48,38,2633919960
28,8,23,Ticks_Phase_5,189,5,42,127,2634361308
28,8,23,Ticks_Phase_5,190,1,48,37,2634417964
28,8,23,Ticks_Phase_5,191,5,42,127,2634861044
28,8,23,Ticks_Phase_5,192,1,48,42,2634883956
28,8,23,Ticks_Phase_5,193,1,48,37,2635340328
28,8,23,Ticks_Phase_5,194,5,42,127,2635360800
28,8,23,Ticks_Phase_5,195,5,42,127,2635861244
28,8,23,Ticks_Phase_5,196,1,48,38,2635885028
28,8,23,Ticks_Phase_5,197,5,42,127,2636361080
28,8,23,Ticks_Phase_5,198,1,48,40,2636372212
28,8,23,Ticks_Phase_5,199,1,48,32,2636842608
28,8,23,Ticks_Phase_5,200,5,42,127,2636860836
28,8,23,Ticks_Phase_5,201,1,48,46,2637331960
28,8,23,Ticks_Phase_5,202,5,42,127,2637360744
28,8,23,Ticks_Phase_5,203,1,48,46,2637825576
28,8,23,Ticks_Phase_5,204,5,42,127,2637861256
28,8,23,Ticks_Phase_5,205,5,42,127,2638360952
28,8,23,Ticks_Phase_5,206,1,48,41,2638363696
28,8,23,Ticks_Phase_5,207,1,48,41,2638844500
28,8,23,Ticks_Phase_5,208,5,42,127,2638860784
28,8,23,Ticks_Phase_5,209,1,48,32,2639346652
28,8,23,Ticks_Phase_5,210,5,42,127,2639361664
28,8,23,Ticks_Phase_5,211,1,48,39,2639849052
28,8,23,Ticks_Phase_5,212,5,42,127,2639860984
28,8,23,Ticks_Phase_5,213,1,48,34,2640342292
28,8,23,Ticks_Phase_5,214,5,42,127,2640360744
28,8,23,Ticks_Phase_5,215,1,48,37,2640815392
28,8,23,Ticks_Phase_5,216,5,42,127,2640860656
28,8,23,Ticks_Phase_5,217,1,48,40,2641347056
28,8,23,Ticks_Phase_5,218,5,42,127,2641361464
28,8,23,Ticks_Phase_5,219,5,42,127,2641861012
28,8,23,Ticks_Phase_5,220,1,48,35,2641864648
28,8,23,Ticks_Phase_5,221,5,42,127,2642360852
28,8,23,Ticks_Phase_5,222,1,48,38,2642370116
28,8,23,Ticks_Phase_5,223,1,48,40,2642852192
28,8,23,Ticks_Phase_5,224,5,42,127,2642910560
28,8,23,Ticks_Phase_5,225,1,48,37,2643393436
28,8,23,Ticks_Phase_5,226,5,42,127,2643411292
28,8,23,Ticks_Phase_5,227,5,42,127,2643910988
28,8,23,Ticks_Phase_5,228,1,48,36,2643936572
28,8,23,Ticks_Phase_5,229,5,42,127,2644410824
28,8,23,Ticks_Phase_5,230,1,48,44,2644431840
28,8,23,Ticks_Phase_5,231,5,42,127,2644910440
28,8,23,Ticks_Phase_5,232,1,48,32,2644931528
28,8,23,Ticks_Phase_5,233,5,42,127,2645411396
28,8,23,Ticks_Phase_5,234,1,48,37,2645430772
28,8,23,Ticks_Phase_5,235,5,42,127,2645911012
28,8,23,Ticks_Phase_5,236,1,48,42,2645935696
28,8,23,Ticks_Phase_5,237,5,42,127,2646410480
28,8,23,Ticks_Phase_5,238,1,48,44,2646433588
28,8,23,Ticks_Phase_5,239,5,42,127,2646911364
28,8,23,Ticks_Phase_5,240,1,48,48,2646921452
28,8,23,Ticks_Phase_5,241,1,48,43,2647400956
28,8,23,Ticks_Phase_5,242,5,42,127,2647411168
28,8,23,Ticks_Phase_5,243,5,42,127,2647910788
28,8,23,Ticks_Phase_5,244,1,48,36,2647937292
28,8,23,Ticks_Phase_5,245,5,42,127,2648410624
28,8,23,Ticks_Phase_5,246,1,48,29,2648435832
28,8,23,Ticks_Phase_5,247,1,48,48,2648887728
28,8,23,Ticks_Phase_5,248,5,42,127,2648911128
28,8,23,Ticks_Phase_5,249,1,48,40,2649395952
28,8,23,Ticks_Phase_5,250,5,42,127,2649411040
28,8,23,Ticks_Phase_5,251,5,42,127,2649910732
28,8,23,Ticks_Phase_5,252,1,48,25,2649917744
28,8,23,Ticks_Phase_5,253,5,42,127,2650411320
28,8,23,Ticks_Phase_5,254,1,48,38,2650428676
28,8,23,Ticks_Phase_5,255,1,48,35,2650889708
28,8,23,Ticks_Phase_5,256,5,42,127,2650911076
28,8,23,Ticks_Phase_5,257,1,48,35,2651412304
28,8,23,Ticks_Phase_5,258,5,42,127,2651511176
28,8,23,Ticks_Phase_5,259,1,48,32,2651951760
28,8,23,Ticks_Phase_5,260,5,42,127,2652011100
28,8,23,Ticks_Phase_5,261,1,48,29,2652473088
28,8,23,Ticks_Phase_5,262,5,42,127,2652510492
28,8,23,Ticks_Phase_5,263,1,48,45,2652979748
28,8,23,Ticks_Phase_5,264,5,42,127,2653011300
28,8,23,Ticks_Phase_5,265,1,48,25,2653510996
28,8,23,Ticks_Phase_5,266,5,42,127,2653512784
28,8,23,Ticks_Phase_5,267,1,48,36,2654001884
28,8,23,Ticks_Phase_5,268,5,42,127,2654010900
28,8,23,Ticks_Phase_5,269,5,42,127,2654510372
28,8,23,Ticks_Phase_5,270,1,48,33,2654534908
28,8,23,Ticks_Phase_5,271,5,42,127,2655011036
28,8,23,Ticks_Phase_5,272,1,48,26,2655025236
28,8,23,Ticks_Phase_5,273,1,48,32,2655506036
28,8,23,Ticks_Phase_5,274,5,42,127,2655511012
28,8,23,Ticks_Phase_5,275,1,48,52,2655976896
28,8,23,Ticks_Phase_5,276,5,42,127,2656010700
28,8,23,Ticks_Phase_5,277,5,42,127,2656511220
28,8,23,Ticks_Phase_5,278,1,48,32,2656521156
28,8,23,Ticks_Phase_5,279,5,42,127,2657011132
28,8,23,Ticks_Phase_5,280,1,48,42,2657014324
28,8,23,Ticks_Phase_5,281,1,48,43,2657506960
28,8,23,Ticks_Phase_5,282,5,42,127,2657510736
28,8,23,Ticks_Phase_5,283,5,42,127,2658010728
28,8,23,Ticks_Phase_5,284,1,48,47,2658014144
28,8,23,Ticks_Phase_5,285,5,42,127,2658511168
28,8,23,Ticks_Phase_5,286,1,48,40,2658514136
28,8,23,Ticks_Phase_5,287,5,42,127,2659010856
28,8,23,Ticks_Phase_5,288,1,48,48,2659025724
28,8,23,Ticks_Phase_5,289,5,42,127,2659510768
28,8,23,Ticks_Phase_5,290,1,48,29,2659545484
28,8,23,Ticks_Phase_5,291,1,48,46,2660010072
28,8,23,Ticks_Phase_5,292,5,42,127,2660011792
28,8,23,Ticks_Phase_5,293,1,48,40,2660504112
28,8,23,Ticks_Phase_5,294,5,42,127,2660511036
28,8,23,Ticks_Phase_5,295,5,42,127,2660910580
28,8,23,Ticks_Phase_5,296,1,48,48,2660999480
28,8,23,Ticks_Phase_5,297,5,42,127,2661411092
28,8,23,Ticks_Phase_5,298,1,48,40,2661462592
28,8,23,Ticks_Phase_5,299,1,48,42,2661903028
28,8,23,Ticks_Phase_5,300,5,42,127,2661910924
28,8,23,Ticks_Phase_5,301,1,48,41,2662383996
28,8,23,Ticks_Phase_5,302,5,42,127,2662410760
28,8,23,Ticks_Phase_5,303,1,48,38,2662851636
28,8,23,Ticks_Phase_5,304,5,42,127,2662911420
28,8,23,Ticks_Phase_5,305,1,48,40,2663359860
28,8,23,Ticks_Phase_5,306,5,42,127,2663410960
28,8,23,Ticks_Phase_5,307,1,48,45,2663864256
28,8,23,Ticks_Phase_5,308,5,42,127,2663910648
28,8,23,Ticks_Phase_5,309,5,42,127,2664410416
28,8,23,Ticks_Phase_5,310,1,48,26,2664439524
28,8,23,Ticks_Phase_5,311,5,42,127,2664911300
28,8,23,Ticks_Phase_5,312,1,48,42,2664951868
28,8,23,Ticks_Phase_5,313,1,48,43,2665402116
28,8,23,Ticks_Phase_5,314,5,42,127,2665411056
28,8,23,Ticks_Phase_5,315,1,48,41,2665878584
28,8,23,Ticks_Phase_5,316,5,42,127,2665910596
28,8,23,Ticks_Phase_5,317,1,48,35,2666376624
28,8,23,Ticks_Phase_5,318,5,42,127,2666411256
28,8,23,Ticks_Phase_5,319,1,48,38,2666834352
28,8,23,Ticks_Phase_5,320,5,42,127,2666911468
28,8,23,Ticks_Phase_5,321,1,48,38,2667342056
28,8,23,Ticks_Phase_5,322,5,42,127,2667410856
28,8,23,Ticks_Phase_5,323,1,48,34,2667885996
28,8,23,Ticks_Phase_5,324,5,42,127,2667910472
28,8,23,Ticks_Phase_5,325,1,48,39,2668388300
28,8,23,Ticks_Phase_5,326,5,42,127,2668411280
28,8,23,Ticks_Phase_5,327,1,48,26,2668882232
28,8,23,Ticks_Phase_5,328,5,42,127,2668911092
28,8,23,Ticks_Phase_5,329,1,48,28,2669353536
28,8,23,Ticks_Phase_5,330,5,42,127,2669410556
28,8,23,Ticks_Phase_5,331,1,48,46,2669866548
28,8,23,Ticks_Phase_5,332,5,42,127,2669911440
28,8,23,Ticks_Phase_5,333,1,48,40,2670344972
28,8,23,Ticks_Phase_5,334,5,42,127,2670411280
28,8,23,Ticks_Phase_5,0,9999,9999,9999,2585878640
28,8,23,Ticks_Phase_5,1,9999,9999,9999,2586378352
28,8,23,Ticks_Phase_5,2,9999,9999,9999,2586879036
28,8,23,Ticks_Phase_5,3,9999,9999,9999,2587378744
28,8,23,Ticks_Phase_5,4,9999,9999,9999,2587878452
28,8,23,Ticks_Phase_5,5,9999,9999,9999,2588378216
28,8,23,Ticks_Phase_5,6,9999,9999,9999,2588878952
28,8,23,Ticks_Phase_5,7,9999,9999,9999,2589378640
28,8,23,Ticks_Phase_5,8,9999,9999,9999,2589878396
28,8,23,Ticks_Phase_5,9,9999,9999,9999,2590379128
28,8,23,Ticks_Phase_5,10,9999,9999,9999,2590889076
28,8,23,Ticks_Phase_5,11,9999,9999,9999,2591388764
28,8,23,Ticks_Phase_5,12,9999,9999,9999,2591888452
28,8,23,Ticks_Phase_5,13,9999,9999,9999,2592388216
28,8,23,Ticks_Phase_5,14,9999,9999,9999,2592888932
28,8,23,Ticks_Phase_5,15,9999,9999,9999,2593388612
28,8,23,Ticks_Phase_5,16,9999,9999,9999,2593888376
28,8,23,Ticks_Phase_5,17,9999,9999,9999,2594389080
28,8,23,Ticks_Phase_5,18,9999,9999,9999,2594888804
28,8,23,Ticks_Phase_5,19,9999,9999,9999,2595388492
28,8,23,Ticks_Phase_5,20,9999,9999,9999,2595888248
28,8,23,Ticks_Phase_5,21,9999,9999,9999,2596388988
28,8,23,Ticks_Phase_5,22,9999,9999,9999,2596888676
28,8,23,Ticks_Phase_5,23,9999,9999,9999,2597388364
28,8,23,Ticks_Phase_5,24,9999,9999,9999,2597888124
28,8,23,Ticks_Phase_5,25,9999,9999,9999,2598388856
28,8,23,Ticks_Phase_5,26,9999,9999,9999,2598888548
28,8,23,Ticks_Phase_5,27,9999,9999,9999,2599388240
28,8,23,Ticks_Phase_5,28,9999,9999,9999,2599888976
28,8,23,Ticks_Phase_5,29,9999,9999,9999,2600388660
28,8,23,Ticks_Phase_5,30,9999,9999,9999,2600878160
28,8,23,Ticks_Phase_5,31,9999,9999,9999,2601378900
28,8,23,Ticks_Phase_5,32,9999,9999,9999,2601878588
28,8,23,Ticks_Phase_5,33,9999,9999,9999,2602378352
28,8,23,Ticks_Phase_5,34,9999,9999,9999,2602879088
28,8,23,Ticks_Phase_5,35,9999,9999,9999,2603378744
28,8,23,Ticks_Phase_5,36,9999,9999,9999,2603878508
28,8,23,Ticks_Phase_5,37,9999,9999,9999,2604378196
28,8,23,Ticks_Phase_5,38,9999,9999,9999,2604878932
28,8,23,Ticks_Phase_5,39,9999,9999,9999,2605378620
28,8,23,Ticks_Phase_5,40,9999,9999,9999,2605878380
28,8,23,Ticks_Phase_5,41,9999,9999,9999,2606379124
28,8,23,Ticks_Phase_5,42,9999,9999,9999,2606889064
28,8,23,Ticks_Phase_5,43,9999,9999,9999,2607388752
28,8,23,Ticks_Phase_5,44,9999,9999,9999,2607888448
28,8,23,Ticks_Phase_5,45,9999,9999,9999,2608388208
28,8,23,Ticks_Phase_5,46,9999,9999,9999,2608888944
28,8,23,Ticks_Phase_5,47,9999,9999,9999,2609388632
28,8,23,Ticks_Phase_5,48,9999,9999,9999,2609898576
28,8,23,Ticks_Phase_5,49,9999,9999,9999,2610398268
28,8,23,Ticks_Phase_5,50,9999,9999,9999,2610899008
28,8,23,Ticks_Phase_5,51,9999,9999,9999,2611398772
28,8,23,Ticks_Phase_5,52,9999,9999,9999,2611898456
28,8,23,Ticks_Phase_5,53,9999,9999,9999,2612398144
28,8,23,Ticks_Phase_5,54,9999,9999,9999,2612898884
28,8,23,Ticks_Phase_5,55,9999,9999,9999,2613398640
28,8,23,Ticks_Phase_5,56,9999,9999,9999,2613898328
28,8,23,Ticks_Phase_5,57,9999,9999,9999,2614399064
28,8,23,Ticks_Phase_5,58,9999,9999,9999,2614898808
28,8,23,Ticks_Phase_5,59,9999,9999,9999,2615398496
28,8,23,Ticks_Phase_5,60,9999,9999,9999,2615898216
28,8,23,Ticks_Phase_5,61,9999,9999,9999,2616398920
28,8,23,Ticks_Phase_5,62,9999,9999,9999,2616898680
28,8,23,Ticks_Phase_5,63,9999,9999,9999,2617398364
28,8,23,Ticks_Phase_5,64,9999,9999,9999,2617918568
28,8,23,Ticks_Phase_5,65,9999,9999,9999,2618418264
28,8,23,Ticks_Phase_5,66,9999,9999,9999,2618918996
28,8,23,Ticks_Phase_5,67,9999,9999,9999,2619418688
28,8,23,Ticks_Phase_5,68,9999,9999,9999,2619918452
28,8,23,Ticks_Phase_5,69,9999,9999,9999,2620418140
28,8,23,Ticks_Phase_5,70,9999,9999,9999,2620918868
28,8,23,Ticks_Phase_5,71,9999,9999,9999,2621418556
28,8,23,Ticks_Phase_5,72,9999,9999,9999,2621918324
28,8,23,Ticks_Phase_5,73,9999,9999,9999,2622419060
28,8,23,Ticks_Phase_5,74,9999,9999,9999,2622918744
28,8,23,Ticks_Phase_5,75,9999,9999,9999,2623418440
28,8,23,Ticks_Phase_5,76,9999,9999,9999,2623918144
28,8,23,Ticks_Phase_5,77,9999,9999,9999,2624418876
28,8,23,Ticks_Phase_5,78,9999,9999,9999,2624918640
28,8,23,Ticks_Phase_5,79,9999,9999,9999,2625418336
28,8,23,Ticks_Phase_5,80,9999,9999,9999,2625919068
28,8,23,Ticks_Phase_5,81,9999,9999,9999,2626398292
28,8,23,Ticks_Phase_5,82,9999,9999,9999,2626899032
28,8,23,Ticks_Phase_5,83,9999,9999,9999,2627398716
28,8,23,Ticks_Phase_5,84,9999,9999,9999,2627898480
28,8,23,Ticks_Phase_5,85,9999,9999,9999,2628398164
28,8,23,Ticks_Phase_5,86,9999,9999,9999,2628898896
28,8,23,Ticks_Phase_5,87,9999,9999,9999,2629398584
28,8,23,Ticks_Phase_5,88,9999,9999,9999,2629898352
28,8,23,Ticks_Phase_5,89,9999,9999,9999,2630399060
28,8,23,Ticks_Phase_5,90,9999,9999,9999,2630898752
28,8,23,Ticks_Phase_5,91,9999,9999,9999,2631398512
28,8,23,Ticks_Phase_5,92,9999,9999,9999,2631898192
28,8,23,Ticks_Phase_5,93,9999,9999,9999,2632398928
28,8,23,Ticks_Phase_5,94,9999,9999,9999,2632898624
28,8,23,Ticks_Phase_5,95,9999,9999,9999,2633398388
28,8,23,Ticks_Phase_5,96,9999,9999,9999,2633899120
28,8,23,Ticks_Phase_5,97,9999,9999,9999,2634358868
28,8,23,Ticks_Phase_5,98,9999,9999,9999,2634858608
28,8,23,Ticks_Phase_5,99,9999,9999,9999,2635358288
28,8,23,Ticks_Phase_5,100,9999,9999,9999,2635859032
28,8,23,Ticks_Phase_5,101,9999,9999,9999,2636358716
28,8,23,Ticks_Phase_5,102,9999,9999,9999,2636858472
28,8,23,Ticks_Phase_5,103,9999,9999,9999,2637358160
28,8,23,Ticks_Phase_5,104,9999,9999,9999,2637858896
28,8,23,Ticks_Phase_5,105,9999,9999,9999,2638358592
28,8,23,Ticks_Phase_5,106,9999,9999,9999,2638858348
28,8,23,Ticks_Phase_5,107,9999,9999,9999,2639359080
28,8,23,Ticks_Phase_5,108,9999,9999,9999,2639858772
28,8,23,Ticks_Phase_5,109,9999,9999,9999,2640358456
28,8,23,Ticks_Phase_5,110,9999,9999,9999,2640858220
28,8,23,Ticks_Phase_5,111,9999,9999,9999,2641358956
28,8,23,Ticks_Phase_5,112,9999,9999,9999,2641858648
28,8,23,Ticks_Phase_5,113,9999,9999,9999,2642358340
28,8,23,Ticks_Phase_5,114,9999,9999,9999,2642908272
28,8,23,Ticks_Phase_5,115,9999,9999,9999,2643409004
28,8,23,Ticks_Phase_5,116,9999,9999,9999,2643908700
28,8,23,Ticks_Phase_5,117,9999,9999,9999,2644408388
28,8,23,Ticks_Phase_5,118,9999,9999,9999,2644908152
28,8,23,Ticks_Phase_5,119,9999,9999,9999,2645408888
28,8,23,Ticks_Phase_5,120,9999,9999,9999,2645908576
28,8,23,Ticks_Phase_5,121,9999,9999,9999,2646408268
28,8,23,Ticks_Phase_5,122,9999,9999,9999,2646909000
28,8,23,Ticks_Phase_5,123,9999,9999,9999,2647408732
28,8,23,Ticks_Phase_5,124,9999,9999,9999,2647908428
28,8,23,Ticks_Phase_5,125,9999,9999,9999,2648408188
28,8,23,Ticks_Phase_5,126,9999,9999,9999,2648908916
28,8,23,Ticks_Phase_5,127,9999,9999,9999,2649408604
28,8,23,Ticks_Phase_5,128,9999,9999,9999,2649908296
28,8,23,Ticks_Phase_5,129,9999,9999,9999,2650409032
28,8,23,Ticks_Phase_5,130,9999,9999,9999,2650908788
28,8,23,Ticks_Phase_5,131,9999,9999,9999,2651508812
28,8,23,Ticks_Phase_5,132,9999,9999,9999,2652008516
28,8,23,Ticks_Phase_5,133,9999,9999,9999,2652508280
28,8,23,Ticks_Phase_5,134,9999,9999,9999,2653009012
28,8,23,Ticks_Phase_5,135,9999,9999,9999,2653508708
28,8,23,Ticks_Phase_5,136,9999,9999,9999,2654008388
28,8,23,Ticks_Phase_5,137,9999,9999,9999,2654508084
28,8,23,Ticks_Phase_5,138,9999,9999,9999,2655008820
28,8,23,Ticks_Phase_5,139,9999,9999,9999,2655508580
28,8,23,Ticks_Phase_5,140,9999,9999,9999,2656008268
28,8,23,Ticks_Phase_5,141,9999,9999,9999,2656509008
28,8,23,Ticks_Phase_5,142,9999,9999,9999,2657008696
28,8,23,Ticks_Phase_5,143,9999,9999,9999,2657508452
28,8,23,Ticks_Phase_5,144,9999,9999,9999,2658008144
28,8,23,Ticks_Phase_5,145,9999,9999,9999,2658508880
28,8,23,Ticks_Phase_5,146,9999,9999,9999,2659008568
28,8,23,Ticks_Phase_5,147,9999,9999,9999,2659508332
28,8,23,Ticks_Phase_5,148,9999,9999,9999,2660009064
28,8,23,Ticks_Phase_5,149,9999,9999,9999,2660508748
28,8,23,Ticks_Phase_5,150,9999,9999,9999,2660908144
28,8,23,Ticks_Phase_5,151,9999,9999,9999,2661408880
28,8,23,Ticks_Phase_5,152,9999,9999,9999,2661908564
28,8,23,Ticks_Phase_5,153,9999,9999,9999,2662408252
28,8,23,Ticks_Phase_5,154,9999,9999,9999,2662908988
28,8,23,Ticks_Phase_5,155,9999,9999,9999,2663408748
28,8,23,Ticks_Phase_5,156,9999,9999,9999,2663908436
28,8,23,Ticks_Phase_5,157,9999,9999,9999,2664408128
28,8,23,Ticks_Phase_5,158,9999,9999,9999,2664908864
28,8,23,Ticks_Phase_5,159,9999,9999,9999,2665408620
28,8,23,Ticks_Phase_5,160,9999,9999,9999,2665908308
28,8,23,Ticks_Phase_5,161,9999,9999,9999,2666409044
28,8,23,Ticks_Phase_5,162,9999,9999,9999,2666908732
28,8,23,Ticks_Phase_5,163,9999,9999,9999,2667408496
28,8,23,Ticks_Phase_5,164,9999,9999,9999,2667908184
28,8,23,Ticks_Phase_5,165,9999,9999,9999,2668408916
28,8,23,Ticks_Phase_5,166,9999,9999,9999,2668908656
28,8,23,Ticks_Phase_5,167,9999,9999,9999,2669408344
28,8,23,Ticks_Phase_5,168,9999,9999,9999,2669909080
28,8,23,Ticks_Phase_5,169,9999,9999,9999,2670408768
28,9,22,Ticks_Phase_8,0,5,42,127,2684785060
28,9,22,Ticks_Phase_8,1,5,42,127,2685584668
28,9,22,Ticks_Phase_8,2,5,42,127,2686384624
28,9,22,Ticks_Phase_8,3,1,48,38,2686403028
28,9,22,Ticks_Phase_8,4,1,48,43,2687178680
28,9,22,Ticks_Phase_8,5,5,42,127,2687185376
28,9,22,Ticks_Phase_8,6,5,42,127,2687984948
28,9,22,Ticks_Phase_8,7,1,48,44,2688006344
28,9,22,Ticks_Phase_8,8,1,48,51,2688748076
28,9,22,Ticks_Phase_8,9,5,42,127,2688784724
28,9,22,Ticks_Phase_8,10,1,48,35,2689572716
28,9,22,Ticks_Phase_8,11,5,42,127,2689584512
28,9,22,Ticks_Phase_8,12,1,48,41,2690369592
28,9,22,Ticks_Phase_8,13,5,42,127,2690385344
28,9,22,Ticks_Phase_8,14,1,48,37,2691163764
28,9,22,Ticks_Phase_8,15,5,42,127,2691185280
28,9,22,Ticks_Phase_8,16,1,48,41,2691935612
28,9,22,Ticks_Phase_8,17,5,42,127,2691984720
28,9,22,Ticks_Phase_8,18,1,48,44,2692720940
28,9,22,Ticks_Phase_8,19,5,42,127,2692784428
28,9,22,Ticks_Phase_8,20,1,48,42,2693551680
28,9,22,Ticks_Phase_8,21,5,42,127,2693585188
28,9,22,Ticks_Phase_8,22,1,48,46,2694341956
28,9,22,Ticks_Phase_8,23,5,42,127,2694385196
28,9,22,Ticks_Phase_8,24,1,48,47,2695142492
28,9,22,Ticks_Phase_8,25,5,42,127,2695184684
28,9,22,Ticks_Phase_8,26,1,48,40,2695931788
28,9,22,Ticks_Phase_8,27,5,42,127,2695984548
28,9,22,Ticks_Phase_8,28,5,42,127,2696785236
28,9,22,Ticks_Phase_8,29,1,48,42,2696808656
28,9,22,Ticks_Phase_8,30,1,48,35,2697531364
28,9,22,Ticks_Phase_8,31,5,42,127,2697584944
28,9,22,Ticks_Phase_8,32,1,48,50,2698365556
28,9,22,Ticks_Phase_8,33,5,42,127,2698384904
28,9,22,Ticks_Phase_8,34,1,48,43,2699175080
28,9,22,Ticks_Phase_8,35,5,42,127,2699184468
28,9,22,Ticks_Phase_8,36,1,48,38,2699984100
28,9,22,Ticks_Phase_8,37,5,42,127,2699985896
28,9,22,Ticks_Phase_8,38,1,48,36,2700770976
28,9,22,Ticks_Phase_8,39,5,42,127,2700784940
28,9,22,Ticks_Phase_8,40,5,42,127,2701584956
28,9,22,Ticks_Phase_8,41,1,48,40,2701608816
28,9,22,Ticks_Phase_8,42,1,48,45,2702357972
28,9,22,Ticks_Phase_8,43,5,42,127,2702384508
28,9,22,Ticks_Phase_8,44,1,48,46,2703167044
28,9,22,Ticks_Phase_8,45,5,42,127,2703185192
28,9,22,Ticks_Phase_8,46,1,48,43,2703955968
28,9,22,Ticks_Phase_8,47,5,42,127,2703984908
28,9,22,Ticks_Phase_8,48,1,48,41,2704772180
28,9,22,Ticks_Phase_8,49,5,42,127,2704784940
28,9,22,Ticks_Phase_8,50,5,42,127,2705584660
28,9,22,Ticks_Phase_8,51,1,48,45,2705615044
28,9,22,Ticks_Phase_8,52,5,42,127,2706385272
28,9,22,Ticks_Phase_8,53,1,48,24,2706469416
28,9,22,Ticks_Phase_8,54,5,42,127,2707184984
28,9,22,Ticks_Phase_8,55,1,48,53,2707199856
28,9,22,Ticks_Phase_8,56,5,42,127,2707984696
28,9,22,Ticks_Phase_8,57,1,48,52,2708022336
28,9,22,Ticks_Phase_8,58,5,42,127,2708765084
28,9,22,Ticks_Phase_8,59,1,48,52,2708777268
28,9,22,Ticks_Phase_8,60,5,42,127,2709564796
28,9,22,Ticks_Phase_8,61,1,48,35,2709600640
28,9,22,Ticks_Phase_8,62,1,48,47,2710331592
28,9,22,Ticks_Phase_8,63,5,42,127,2710364648
28,9,22,Ticks_Phase_8,64,1,48,45,2711161356
28,9,22,Ticks_Phase_8,65,5,42,127,2711165584
28,9,22,Ticks_Phase_8,66,1,48,46,2711930364
28,9,22,Ticks_Phase_8,67,5,42,127,2711964996
28,9,22,Ticks_Phase_8,68,1,48,43,2712752848
28,9,22,Ticks_Phase_8,69,5,42,127,2712764856
28,9,22,Ticks_Phase_8,70,1,48,52,2713493248
28,9,22,Ticks_Phase_8,71,5,42,127,2713564492
28,9,22,Ticks_Phase_8,72,1,48,31,2714354292
28,9,22,Ticks_Phase_8,73,5,42,127,2714365176
28,9,22,Ticks_Phase_8,74,1,48,41,2715150100
28,9,22,Ticks_Phase_8,75,5,42,127,2715165260
28,9,22,Ticks_Phase_8,76,1,48,38,2715922716
28,9,22,Ticks_Phase_8,77,5,42,127,2715964748
28,9,22,Ticks_Phase_8,78,1,48,57,2716687220
28,9,22,Ticks_Phase_8,79,5,42,127,2716764464
28,9,22,Ticks_Phase_8,80,1,48,46,2717498092
28,9,22,Ticks_Phase_8,81,5,42,127,2717565320
28,9,22,Ticks_Phase_8,82,5,42,127,2718365336
28,9,22,Ticks_Phase_8,83,1,48,35,2718366672
28,9,22,Ticks_Phase_8,84,1,48,46,2719144796
28,9,22,Ticks_Phase_8,85,5,42,127,2719164748
28,9,22,Ticks_Phase_8,86,1,48,48,2719900772
28,9,22,Ticks_Phase_8,87,5,42,127,2719964608
28,9,22,Ticks_Phase_8,88,1,48,45,2720739724
28,9,22,Ticks_Phase_8,89,5,42,127,2720765292
28,9,22,Ticks_Phase_8,90,1,48,46,2721539436
28,9,22,Ticks_Phase_8,91,5,42,127,2721565152
28,9,22,Ticks_Phase_8,92,1,48,39,2722345216
28,9,22,Ticks_Phase_8,93,5,42,127,2722364864
28,9,22,Ticks_Phase_8,94,1,48,49,2723145452
28,9,22,Ticks_Phase_8,95,5,42,127,2723184948
28,9,22,Ticks_Phase_8,96,1,48,27,2723952720
28,9,22,Ticks_Phase_8,97,5,42,127,2723984832
28,9,22,Ticks_Phase_8,98,1,48,43,2724739208
28,9,22,Ticks_Phase_8,99,5,42,127,2724784692
28,9,22,Ticks_Phase_8,100,1,48,48,2725510756
28,9,22,Ticks_Phase_8,101,5,42,127,2725585156
28,9,22,Ticks_Phase_8,102,1,48,50,2726328448
28,9,22,Ticks_Phase_8,103,5,42,127,2726384940
28,9,22,Ticks_Phase_8,104,1,48,42,2727149796
28,9,22,Ticks_Phase_8,105,5,42,127,2727184876
28,9,22,Ticks_Phase_8,106,1,48,31,2727976692
28,9,22,Ticks_Phase_8,107,5,42,127,2727984664
28,9,22,Ticks_Phase_8,108,1,48,25,2728775736
28,9,22,Ticks_Phase_8,109,5,42,127,2728785196
28,9,22,Ticks_Phase_8,110,1,48,46,2729554104
28,9,22,Ticks_Phase_8,111,5,42,127,2729585132
28,9,22,Ticks_Phase_8,112,1,48,21,2730337636
28,9,22,Ticks_Phase_8,113,5,42,127,2730384720
28,9,22,Ticks_Phase_8,114,1,48,38,2731128756
28,9,22,Ticks_Phase_8,115,5,42,127,2731184580
28,9,22,Ticks_Phase_8,116,1,48,40,2731927800
28,9,22,Ticks_Phase_8,117,5,42,127,2731985192
28,9,22,Ticks_Phase_8,118,1,48,48,2732754844
28,9,22,Ticks_Phase_8,119,5,42,127,2732784980
28,9,22,Ticks_Phase_8,120,1,48,42,2733529544
28,9,22,Ticks_Phase_8,121,5,42,127,2733584764
28,9,22,Ticks_Phase_8,122,1,48,40,2734354340
28,9,22,Ticks_Phase_8,123,5,42,127,2734384400
28,9,22,Ticks_Phase_8,124,1,48,42,2735132624
28,9,22,Ticks_Phase_8,125,5,42,127,2735185456
28,9,22,Ticks_Phase_8,126,1,48,48,2735977204
28,9,22,Ticks_Phase_8,127,5,42,127,2736024816
28,9,22,Ticks_Phase_8,128,1,48,34,2736787728
28,9,22,Ticks_Phase_8,129,5,42,127,2736824600
28,9,22,Ticks_Phase_8,130,1,48,47,2737624244
28,9,22,Ticks_Phase_8,131,5,42,127,2737625804
28,9,22,Ticks_Phase_8,132,1,48,39,2738382876
28,9,22,Ticks_Phase_8,133,5,42,127,2738425440
28,9,22,Ticks_Phase_8,134,5,42,127,2739224936
28,9,22,Ticks_Phase_8,135,1,48,47,2739228880
28,9,22,Ticks_Phase_8,136,5,42,127,2740024724
28,9,22,Ticks_Phase_8,137,1,48,38,2740033092
28,9,22,Ticks_Phase_8,138,1,48,37,2740785384
28,9,22,Ticks_Phase_8,139,5,42,127,2740824428
28,9,22,Ticks_Phase_8,140,1,48,38,2741553644
28,9,22,Ticks_Phase_8,141,5,42,127,2741625136
28,9,22,Ticks_Phase_8,142,5,42,127,2742425152
28,9,22,Ticks_Phase_8,143,1,48,45,2742457780
28,9,22,Ticks_Phase_8,144,1,48,46,2743187308
28,9,22,Ticks_Phase_8,145,5,42,127,2743224632
28,9,22,Ticks_Phase_8,146,1,48,40,2743972856
28,9,22,Ticks_Phase_8,147,5,42,127,2744024496
28,9,22,Ticks_Phase_8,148,1,48,42,2744799984
28,9,22,Ticks_Phase_8,149,5,42,127,2744825104
28,9,22,Ticks_Phase_8,150,1,48,51,2745623996
28,9,22,Ticks_Phase_8,151,5,42,127,2745625864
28,9,22,Ticks_Phase_8,152,1,48,50,2746407276
28,9,22,Ticks_Phase_8,153,5,42,127,2746424824
28,9,22,Ticks_Phase_8,154,1,48,48,2747203920
28,9,22,Ticks_Phase_8,155,5,42,127,2747224464
28,9,22,Ticks_Phase_8,156,1,48,47,2747977492
28,9,22,Ticks_Phase_8,157,5,42,127,2748025176
28,9,22,Ticks_Phase_8,158,5,42,127,2748824892
28,9,22,Ticks_Phase_8,159,1,48,51,2748827864
28,9,22,Ticks_Phase_8,160,5,42,127,2749584840
28,9,22,Ticks_Phase_8,161,1,48,35,2749637836
28,9,22,Ticks_Phase_8,162,1,48,46,2750372600
28,9,22,Ticks_Phase_8,163,5,42,127,2750384840
28,9,22,Ticks_Phase_8,164,1,48,50,2751145140
28,9,22,Ticks_Phase_8,165,5,42,127,2751185156
28,9,22,Ticks_Phase_8,166,1,48,51,2751958624
28,9,22,Ticks_Phase_8,167,5,42,127,2751985088
28,9,22,Ticks_Phase_8,168,1,48,48,2752729652
28,9,22,Ticks_Phase_8,169,5,42,127,2752784724
28,9,22,Ticks_Phase_8,170,1,48,57,2753545092
28,9,22,Ticks_Phase_8,171,5,42,127,2753584440
28,9,22,Ticks_Phase_8,172,1,48,46,2754374764
28,9,22,Ticks_Phase_8,173,5,42,127,2754385120
28,9,22,Ticks_Phase_8,174,1,48,50,2755159712
28,9,22,Ticks_Phase_8,175,5,42,127,2755184932
28,9,22,Ticks_Phase_8,176,1,48,46,2755928496
28,9,22,Ticks_Phase_8,177,5,42,127,2755984792
28,9,22,Ticks_Phase_8,178,1,48,38,2756734008
28,9,22,Ticks_Phase_8,179,5,42,127,2756784580
28,9,22,Ticks_Phase_8,180,5,42,127,2757585268
28,9,22,Ticks_Phase_8,181,1,48,41,2757624192
28,9,22,Ticks_Phase_8,182,5,42,127,2758384980
28,9,22,Ticks_Phase_8,183,1,48,45,2758386772
28,9,22,Ticks_Phase_8,184,1,48,50,2759151632
28,9,22,Ticks_Phase_8,185,5,42,127,2759184688
28,9,22,Ticks_Phase_8,186,1,48,45,2759962344
28,9,22,Ticks_Phase_8,187,5,42,127,2759984548
28,9,22,Ticks_Phase_8,188,1,48,40,2760777044
28,9,22,Ticks_Phase_8,189,5,42,127,2760785308
28,9,22,Ticks_Phase_8,190,1,48,56,2761551732
28,9,22,Ticks_Phase_8,191,5,42,127,2761585120
28,9,22,Ticks_Phase_8,192,5,42,127,2762304760
28,9,22,Ticks_Phase_8,193,1,48,35,2762355908
28,9,22,Ticks_Phase_8,194,1,48,48,2763087960
28,9,22,Ticks_Phase_8,195,5,42,127,2763104612
28,9,22,Ticks_Phase_8,196,1,48,48,2763875088
28,9,22,Ticks_Phase_8,197,5,42,127,2763905468
28,9,22,Ticks_Phase_8,198,1,48,44,2764665468
28,9,22,Ticks_Phase_8,199,5,42,127,2764705036
28,9,22,Ticks_Phase_8,200,1,48,45,2765455444
28,9,22,Ticks_Phase_8,201,5,42,127,2765504972
28,9,22,Ticks_Phase_8,202,5,42,127,2766304764
28,9,22,Ticks_Phase_8,203,1,48,41,2766325860
28,9,22,Ticks_Phase_8,204,1,48,42,2767097928
28,9,22,Ticks_Phase_8,205,5,42,127,2767105440
28,9,22,Ticks_Phase_8,206,1,48,44,2767879212
28,9,22,Ticks_Phase_8,207,5,42,127,2767905004
28,9,22,Ticks_Phase_8,208,1,48,27,2768680940
28,9,22,Ticks_Phase_8,209,5,42,127,2768705088
28,9,22,Ticks_Phase_8,210,1,48,41,2769463212
28,9,22,Ticks_Phase_8,211,5,42,127,2769504580
28,9,22,Ticks_Phase_8,212,1,48,47,2770285764
28,9,22,Ticks_Phase_8,213,5,42,127,2770305512
28,9,22,Ticks_Phase_8,214,1,48,42,2771083560
28,9,22,Ticks_Phase_8,215,5,42,127,2771105000
28,9,22,Ticks_Phase_8,216,1,48,49,2771871128
28,9,22,Ticks_Phase_8,217,5,42,127,2771904936
28,9,22,Ticks_Phase_8,218,1,48,38,2772696236
28,9,22,Ticks_Phase_8,219,5,42,127,2772704724
28,9,22,Ticks_Phase_8,220,1,48,42,2773498412
28,9,22,Ticks_Phase_8,221,5,42,127,2773505332
28,9,22,Ticks_Phase_8,222,1,48,46,2774264280
28,9,22,Ticks_Phase_8,223,5,42,127,2774305192
28,9,22,Ticks_Phase_8,224,1,48,29,2775069524
28,9,22,Ticks_Phase_8,225,5,42,127,2775104832
28,9,22,Ticks_Phase_8,226,1,48,45,2775830968
28,9,22,Ticks_Phase_8,227,5,42,127,2775984756
28,9,22,Ticks_Phase_8,228,5,42,127,2776785536
28,9,22,Ticks_Phase_8,229,1,48,38,2776856736
28,9,22,Ticks_Phase_8,230,5,42,127,2777585028
28,9,22,Ticks_Phase_8,231,1,48,49,2777612940
28,9,22,Ticks_Phase_8,232,1,48,33,2778375788
28,9,22,Ticks_Phase_8,233,5,42,127,2778384728
28,9,22,Ticks_Phase_8,234,1,48,41,2779131988
28,9,22,Ticks_Phase_8,235,5,42,127,2779184740
28,9,22,Ticks_Phase_8,236,5,42,127,2779985432
28,9,22,Ticks_Phase_8,237,1,48,48,2780003236
28,9,22,Ticks_Phase_8,238,1,48,40,2780766988
28,9,22,Ticks_Phase_8,239,5,42,127,2780785088
28,9,22,Ticks_Phase_8,240,1,48,41,2781553172
28,9,22,Ticks_Phase_8,241,5,42,127,2781584724
28,9,22,Ticks_Phase_8,242,1,48,41,2782340816
28,9,22,Ticks_Phase_8,243,5,42,127,2782384512
28,9,22,Ticks_Phase_8,244,1,48,48,2783168092
28,9,22,Ticks_Phase_8,245,5,42,127,2783185344
28,9,22,Ticks_Phase_8,246,1,48,48,2783927212
28,9,22,Ticks_Phase_8,247,5,42,127,2783984984
28,9,22,Ticks_Phase_8,248,1,48,48,2784736288
28,9,22,Ticks_Phase_8,249,5,42,127,2784784620
28,9,22,Ticks_Phase_8,250,1,48,38,2785569764
28,9,22,Ticks_Phase_8,251,5,42,127,2785584404
28,9,22,Ticks_Phase_8,252,1,48,41,2786360040
28,9,22,Ticks_Phase_8,253,5,42,127,2786385312
28,9,22,Ticks_Phase_8,254,1,48,53,2787174064
28,9,22,Ticks_Phase_8,255,5,42,127,2787185272
28,9,22,Ticks_Phase_8,256,1,48,35,2787950132
28,9,22,Ticks_Phase_8,257,5,42,127,2787984912
28,9,22,Ticks_Phase_8,258,1,48,43,2788774412
28,9,22,Ticks_Phase_8,259,5,42,127,2788784548
28,9,22,Ticks_Phase_8,260,1,48,35,2789579960
28,9,22,Ticks_Phase_8,261,5,42,127,2789744980
28,9,22,Ticks_Phase_8,262,5,42,127,2790545008
28,9,22,Ticks_Phase_8,263,1,48,47,2790556972
28,9,22,Ticks_Phase_8,264,1,48,40,2791333160
28,9,22,Ticks_Phase_8,265,5,42,127,2791344568
28,9,22,Ticks_Phase_8,266,1,48,51,2792085016
28,9,22,Ticks_Phase_8,267,5,42,127,2792145176
28,9,22,Ticks_Phase_8,268,5,42,127,2792945044
28,9,22,Ticks_Phase_8,269,1,48,41,2792954384
28,9,22,Ticks_Phase_8,270,1,48,35,2793715588
28,9,22,Ticks_Phase_8,271,5,42,127,2793744900
28,9,22,Ticks_Phase_8,272,1,48,48,2794496360
28,9,22,Ticks_Phase_8,273,5,42,127,2794544612
28,9,22,Ticks_Phase_8,274,1,48,32,2795322120
28,9,22,Ticks_Phase_8,275,5,42,127,2795345148
28,9,22,Ticks_Phase_8,276,1,48,51,2796093912
28,9,22,Ticks_Phase_8,277,5,42,127,2796144956
28,9,22,Ticks_Phase_8,278,1,48,43,2796884484
28,9,22,Ticks_Phase_8,279,5,42,127,2796944816
28,9,22,Ticks_Phase_8,280,5,42,127,2797744460
28,9,22,Ticks_Phase_8,281,1,48,45,2797771760
28,9,22,Ticks_Phase_8,282,1,48,45,2798506396
28,9,22,Ticks_Phase_8,283,5,42,127,2798545212
28,9,22,Ticks_Phase_8,284,1,48,40,2799330812
28,9,22,Ticks_Phase_8,285,5,42,127,2799344924
28,9,22,Ticks_Phase_8,286,5,42,127,2800144720
28,9,22,Ticks_Phase_8,287,1,48,51,2800162284
28,9,22,Ticks_Phase_8,288,1,48,37,2800930384
28,9,22,Ticks_Phase_8,289,5,42,127,2800944644
28,9,22,Ticks_Phase_8,290,5,42,127,2801745560
28,9,22,Ticks_Phase_8,291,1,48,41,2801749208
28,9,22,Ticks_Phase_8,292,1,48,53,2802505852
28,9,22,Ticks_Phase_8,293,5,42,127,2802544920
28,9,22,Ticks_Phase_8,294,1,48,45,2803336444
28,9,22,Ticks_Phase_8,295,5,42,127,2803344856
28,9,22,Ticks_Phase_8,296,1,48,41,2804132772
28,9,22,Ticks_Phase_8,297,5,42,127,2804144572
28,9,22,Ticks_Phase_8,298,5,42,127,2804784456
28,9,22,Ticks_Phase_8,299,1,48,44,2804978484
28,9,22,Ticks_Phase_8,300,5,42,127,2805585360
28,9,22,Ticks_Phase_8,301,1,48,31,2805683092
28,9,22,Ticks_Phase_8,302,5,42,127,2806384876
28,9,22,Ticks_Phase_8,303,1,48,40,2806399004
28,9,22,Ticks_Phase_8,304,1,48,49,2807169572
28,9,22,Ticks_Phase_8,305,5,42,127,2807184880
28,9,22,Ticks_Phase_8,306,1,48,46,2807918432
28,9,22,Ticks_Phase_8,307,5,42,127,2807984444
28,9,22,Ticks_Phase_8,308,5,42,127,2808785132
28,9,22,Ticks_Phase_8,309,1,48,25,2808821720
28,9,22,Ticks_Phase_8,310,1,48,48,2809554852
28,9,22,Ticks_Phase_8,311,5,42,127,2809585208
28,9,22,Ticks_Phase_8,312,1,48,52,2810342588
28,9,22,Ticks_Phase_8,313,5,42,127,2810384848
28,9,22,Ticks_Phase_8,314,1,48,49,2811174424
28,9,22,Ticks_Phase_8,315,5,42,127,2811184484
28,9,22,Ticks_Phase_8,316,5,42,127,2811985248
28,9,22,Ticks_Phase_8,317,1,48,43,2812022460
28,9,22,Ticks_Phase_8,318,1,48,47,2812782940
28,9,22,Ticks_Phase_8,319,5,42,127,2812785128
28,9,22,Ticks_Phase_8,320,1,48,51,2813556428
28,9,22,Ticks_Phase_8,321,5,42,127,2813584840
28,9,22,Ticks_Phase_8,322,1,48,45,2814383356
28,9,22,Ticks_Phase_8,323,5,42,127,2814385148
28,9,22,Ticks_Phase_8,324,1,48,54,2815153688
28,9,22,Ticks_Phase_8,325,5,42,127,2815185312
28,9,22,Ticks_Phase_8,326,1,48,54,2815951440
28,9,22,Ticks_Phase_8,327,5,42,127,2815984952
28,9,22,Ticks_Phase_8,328,5,42,127,2816784892
28,9,22,Ticks_Phase_8,329,1,48,45,2816798048
28,9,22,Ticks_Phase_8,330,1,48,49,2817557308
28,9,22,Ticks_Phase_8,331,5,42,127,2817584372
28,9,22,Ticks_Phase_8,332,1,48,47,2818376792
28,9,22,Ticks_Phase_8,333,5,42,127,2818385204
28,9,22,Ticks_Phase_8,334,5,42,127,2819184876
28,9,22,Ticks_Phase_8,335,1,48,31,2819197960
28,9,22,Ticks_Phase_8,336,1,48,40,2819984884
28,9,22,Ticks_Phase_8,337,5,42,127,2819986604
28,9,22,Ticks_Phase_8,0,9999,9999,9999,2684782696
28,9,22,Ticks_Phase_8,1,9999,9999,9999,2685582456
28,9,22,Ticks_Phase_8,2,9999,9999,9999,2686382188
28,9,22,Ticks_Phase_8,3,9999,9999,9999,2687182940
28,9,22,Ticks_Phase_8,4,9999,9999,9999,2687982660
28,9,22,Ticks_Phase_8,5,9999,9999,9999,2688782440
28,9,22,Ticks_Phase_8,6,9999,9999,9999,2689582152
28,9,22,Ticks_Phase_8,7,9999,9999,9999,2690382908
28,9,22,Ticks_Phase_8,8,9999,9999,9999,2691182696
28,9,22,Ticks_Phase_8,9,9999,9999,9999,2691982432
28,9,22,Ticks_Phase_8,10,9999,9999,9999,2692782144
28,9,22,Ticks_Phase_8,11,9999,9999,9999,2693582904
28,9,22,Ticks_Phase_8,12,9999,9999,9999,2694382688
28,9,22,Ticks_Phase_8,13,9999,9999,9999,2695182400
28,9,22,Ticks_Phase_8,14,9999,9999,9999,2695982184
28,9,22,Ticks_Phase_8,15,9999,9999,9999,2696782952
28,9,22,Ticks_Phase_8,16,9999,9999,9999,2697582656
28,9,22,Ticks_Phase_8,17,9999,9999,9999,2698382392
28,9,22,Ticks_Phase_8,18,9999,9999,9999,2699182180
28,9,22,Ticks_Phase_8,19,9999,9999,9999,2699982944
28,9,22,Ticks_Phase_8,20,9999,9999,9999,2700782652
28,9,22,Ticks_Phase_8,21,9999,9999,9999,2701582444
28,9,22,Ticks_Phase_8,22,9999,9999,9999,2702382148
28,9,22,Ticks_Phase_8,23,9999,9999,9999,2703182908
28,9,22,Ticks_Phase_8,24,9999,9999,9999,2703982696
28,9,22,Ticks_Phase_8,25,9999,9999,9999,2704782432
28,9,22,Ticks_Phase_8,26,9999,9999,9999,2705582152
28,9,22,Ticks_Phase_8,27,9999,9999,9999,2706382908
28,9,22,Ticks_Phase_8,28,9999,9999,9999,2707182696
28,9,22,Ticks_Phase_8,29,9999,9999,9999,2707982408
28,9,22,Ticks_Phase_8,30,9999,9999,9999,2708762724
28,9,22,Ticks_Phase_8,31,9999,9999,9999,2709562436
28,9,22,Ticks_Phase_8,32,9999,9999,9999,2710362216
28,9,22,Ticks_Phase_8,33,9999,9999,9999,2711163000
28,9,22,Ticks_Phase_8,34,9999,9999,9999,2711962708
28,9,22,Ticks_Phase_8,35,9999,9999,9999,2712762496
28,9,22,Ticks_Phase_8,36,9999,9999,9999,2713562208
28,9,22,Ticks_Phase_8,37,9999,9999,9999,2714362964
28,9,22,Ticks_Phase_8,38,9999,9999,9999,2715162752
28,9,22,Ticks_Phase_8,39,9999,9999,9999,2715962464
28,9,22,Ticks_Phase_8,40,9999,9999,9999,2716762176
28,9,22,Ticks_Phase_8,41,9999,9999,9999,2717562960
28,9,22,Ticks_Phase_8,42,9999,9999,9999,2718362752
28,9,22,Ticks_Phase_8,43,9999,9999,9999,2719162460
28,9,22,Ticks_Phase_8,44,9999,9999,9999,2719962172
28,9,22,Ticks_Phase_8,45,9999,9999,9999,2720763004
28,9,22,Ticks_Phase_8,46,9999,9999,9999,2721562716
28,9,22,Ticks_Phase_8,47,9999,9999,9999,2722362428
28,9,22,Ticks_Phase_8,48,9999,9999,9999,2723182660
28,9,22,Ticks_Phase_8,49,9999,9999,9999,2723982396
28,9,22,Ticks_Phase_8,50,9999,9999,9999,2724782184
28,9,22,Ticks_Phase_8,51,9999,9999,9999,2725582940
28,9,22,Ticks_Phase_8,52,9999,9999,9999,2726382652
28,9,22,Ticks_Phase_8,53,9999,9999,9999,2727182440
28,9,22,Ticks_Phase_8,54,9999,9999,9999,2727982152
28,9,22,Ticks_Phase_8,55,9999,9999,9999,2728782912
28,9,22,Ticks_Phase_8,56,9999,9999,9999,2729582696
28,9,22,Ticks_Phase_8,57,9999,9999,9999,2730382432
28,9,22,Ticks_Phase_8,58,9999,9999,9999,2731182144
28,9,22,Ticks_Phase_8,59,9999,9999,9999,2731982904
28,9,22,Ticks_Phase_8,60,9999,9999,9999,2732782692
28,9,22,Ticks_Phase_8,61,9999,9999,9999,2733582404
28,9,22,Ticks_Phase_8,62,9999,9999,9999,2734382188
28,9,22,Ticks_Phase_8,63,9999,9999,9999,2735182948
28,9,22,Ticks_Phase_8,64,9999,9999,9999,2736022600
28,9,22,Ticks_Phase_8,65,9999,9999,9999,2736822388
28,9,22,Ticks_Phase_8,66,9999,9999,9999,2737622108
28,9,22,Ticks_Phase_8,67,9999,9999,9999,2738422856
28,9,22,Ticks_Phase_8,68,9999,9999,9999,2739222652
28,9,22,Ticks_Phase_8,69,9999,9999,9999,2740022364
28,9,22,Ticks_Phase_8,70,9999,9999,9999,2740822140
28,9,22,Ticks_Phase_8,71,9999,9999,9999,2741622852
28,9,22,Ticks_Phase_8,72,9999,9999,9999,2742422640
28,9,22,Ticks_Phase_8,73,9999,9999,9999,2743222348
28,9,22,Ticks_Phase_8,74,9999,9999,9999,2744022132
28,9,22,Ticks_Phase_8,75,9999,9999,9999,2744822892
28,9,22,Ticks_Phase_8,76,9999,9999,9999,2745622608
28,9,22,Ticks_Phase_8,77,9999,9999,9999,2746422392
28,9,22,Ticks_Phase_8,78,9999,9999,9999,2747222104
28,9,22,Ticks_Phase_8,79,9999,9999,9999,2748022888
28,9,22,Ticks_Phase_8,80,9999,9999,9999,2748822604
28,9,22,Ticks_Phase_8,81,9999,9999,9999,2749582404
28,9,22,Ticks_Phase_8,82,9999,9999,9999,2750382184
28,9,22,Ticks_Phase_8,83,9999,9999,9999,2751182944
28,9,22,Ticks_Phase_8,84,9999,9999,9999,2751982656
28,9,22,Ticks_Phase_8,85,9999,9999,9999,2752782440
28,9,22,Ticks_Phase_8,86,9999,9999,9999,2753582152
28,9,22,Ticks_Phase_8,87,9999,9999,9999,2754382908
28,9,22,Ticks_Phase_8,88,9999,9999,9999,2755182696
28,9,22,Ticks_Phase_8,89,9999,9999,9999,2755982432
28,9,22,Ticks_Phase_8,90,9999,9999,9999,2756782144
28,9,22,Ticks_Phase_8,91,9999,9999,9999,2757582908
28,9,22,Ticks_Phase_8,92,9999,9999,9999,2758382696
28,9,22,Ticks_Phase_8,93,9999,9999,9999,2759182400
28,9,22,Ticks_Phase_8,94,9999,9999,9999,2759982188
28,9,22,Ticks_Phase_8,95,9999,9999,9999,2760782948
28,9,22,Ticks_Phase_8,96,9999,9999,9999,2761582660
28,9,22,Ticks_Phase_8,97,9999,9999,9999,2762302548
28,9,22,Ticks_Phase_8,98,9999,9999,9999,2763102328
28,9,22,Ticks_Phase_8,99,9999,9999,9999,2763903036
28,9,22,Ticks_Phase_8,100,9999,9999,9999,2764702824
28,9,22,Ticks_Phase_8,101,9999,9999,9999,2765502536
28,9,22,Ticks_Phase_8,102,9999,9999,9999,2766302328
28,9,22,Ticks_Phase_8,103,9999,9999,9999,2767103080
28,9,22,Ticks_Phase_8,104,9999,9999,9999,2767902792
28,9,22,Ticks_Phase_8,105,9999,9999,9999,2768702580
28,9,22,Ticks_Phase_8,106,9999,9999,9999,2769502292
28,9,22,Ticks_Phase_8,107,9999,9999,9999,2770303072
28,9,22,Ticks_Phase_8,108,9999,9999,9999,2771102788
28,9,22,Ticks_Phase_8,109,9999,9999,9999,2771902576
28,9,22,Ticks_Phase_8,110,9999,9999,9999,2772702288
28,9,22,Ticks_Phase_8,111,9999,9999,9999,2773503048
28,9,22,Ticks_Phase_8,112,9999,9999,9999,2774302832
28,9,22,Ticks_Phase_8,113,9999,9999,9999,2775102544
28,9,22,Ticks_Phase_8,114,9999,9999,9999,2775982172
28,9,22,Ticks_Phase_8,115,9999,9999,9999,2776782952
28,9,22,Ticks_Phase_8,116,9999,9999,9999,2777582664
28,9,22,Ticks_Phase_8,117,9999,9999,9999,2778382444
28,9,22,Ticks_Phase_8,118,9999,9999,9999,2779182156
28,9,22,Ticks_Phase_8,119,9999,9999,9999,2779982924
28,9,22,Ticks_Phase_8,120,9999,9999,9999,2780782652
28,9,22,Ticks_Phase_8,121,9999,9999,9999,2781582440
28,9,22,Ticks_Phase_8,122,9999,9999,9999,2782382148
28,9,22,Ticks_Phase_8,123,9999,9999,9999,2783182908
28,9,22,Ticks_Phase_8,124,9999,9999,9999,2783982696
28,9,22,Ticks_Phase_8,125,9999,9999,9999,2784782408
28,9,22,Ticks_Phase_8,126,9999,9999,9999,2785582192
28,9,22,Ticks_Phase_8,127,9999,9999,9999,2786382952
28,9,22,Ticks_Phase_8,128,9999,9999,9999,2787182688
28,9,22,Ticks_Phase_8,129,9999,9999,9999,2787982400
28,9,22,Ticks_Phase_8,130,9999,9999,9999,2788782188
28,9,22,Ticks_Phase_8,131,9999,9999,9999,2789742692
28,9,22,Ticks_Phase_8,132,9999,9999,9999,2790542424
28,9,22,Ticks_Phase_8,133,9999,9999,9999,2791342204
28,9,22,Ticks_Phase_8,134,9999,9999,9999,2792142964
28,9,22,Ticks_Phase_8,135,9999,9999,9999,2792942684
28,9,22,Ticks_Phase_8,136,9999,9999,9999,2793742392
28,9,22,Ticks_Phase_8,137,9999,9999,9999,2794542176
28,9,22,Ticks_Phase_8,138,9999,9999,9999,2795342936
28,9,22,Ticks_Phase_8,139,9999,9999,9999,2796142672
28,9,22,Ticks_Phase_8,140,9999,9999,9999,2796942456
28,9,22,Ticks_Phase_8,141,9999,9999,9999,2797742176
28,9,22,Ticks_Phase_8,142,9999,9999,9999,2798542928
28,9,22,Ticks_Phase_8,143,9999,9999,9999,2799342712
28,9,22,Ticks_Phase_8,144,9999,9999,9999,2800142432
28,9,22,Ticks_Phase_8,145,9999,9999,9999,2800942136
28,9,22,Ticks_Phase_8,146,9999,9999,9999,2801742976
28,9,22,Ticks_Phase_8,147,9999,9999,9999,2802542708
28,9,22,Ticks_Phase_8,148,9999,9999,9999,2803342420
28,9,22,Ticks_Phase_8,149,9999,9999,9999,2804142136
28,9,22,Ticks_Phase_8,150,9999,9999,9999,2804782168
28,9,22,Ticks_Phase_8,151,9999,9999,9999,2805582928
28,9,22,Ticks_Phase_8,152,9999,9999,9999,2806382664
28,9,22,Ticks_Phase_8,153,9999,9999,9999,2807182444
28,9,22,Ticks_Phase_8,154,9999,9999,9999,2807982156
28,9,22,Ticks_Phase_8,155,9999,9999,9999,2808782920
28,9,22,Ticks_Phase_8,156,9999,9999,9999,2809582700
28,9,22,Ticks_Phase_8,157,9999,9999,9999,2810382412
28,9,22,Ticks_Phase_8,158,9999,9999,9999,2811182196
28,9,22,Ticks_Phase_8,159,9999,9999,9999,2811982964
28,9,22,Ticks_Phase_8,160,9999,9999,9999,2812782656
28,9,22,Ticks_Phase_8,161,9999,9999,9999,2813582408
28,9,22,Ticks_Phase_8,162,9999,9999,9999,2814382200
28,9,22,Ticks_Phase_8,163,9999,9999,9999,2815182952
28,9,22,Ticks_Phase_8,164,9999,9999,9999,2815982664
28,9,22,Ticks_Phase_8,165,9999,9999,9999,2816782456
28,9,22,Ticks_Phase_8,166,9999,9999,9999,2817582160
28,9,22,Ticks_Phase_8,167,9999,9999,9999,2818382920
28,9,22,Ticks_Phase_8,168,9999,9999,9999,2819182664
28,9,22,Ticks_Phase_8,169,9999,9999,9999,2819982448
28,10,21,Ticks_Linear_5,0,5,42,127,2833692160
28,10,21,Ticks_Linear_5,1,5,42,127,2834172264
28,10,21,Ticks_Linear_5,2,5,42,127,2834651540
28,10,21,Ticks_Linear_5,3,5,42,127,2835131940
28,10,21,Ticks_Linear_5,4,1,48,47,2835601660
28,10,21,Ticks_Linear_5,5,5,42,127,2835612108
28,10,21,Ticks_Linear_5,6,1,48,50,2836093272
28,10,21,Ticks_Linear_5,7,5,42,127,2836101476
28,10,21,Ticks_Linear_5,8,5,42,127,2836591896
28,10,21,Ticks_Linear_5,9,1,48,49,2836595460
28,10,21,Ticks_Linear_5,10,5,42,127,2837081460
28,10,21,Ticks_Linear_5,11,1,48,49,2837084952
28,10,21,Ticks_Linear_5,12,5,42,127,2837571876
28,10,21,Ticks_Linear_5,13,1,48,40,2837572840
28,10,21,Ticks_Linear_5,14,1,48,44,2838059572
28,10,21,Ticks_Linear_5,15,5,42,127,2838061312
28,10,21,Ticks_Linear_5,16,1,48,47,2838534528
28,10,21,Ticks_Linear_5,17,5,42,127,2838562128
28,10,21,Ticks_Linear_5,18,1,48,48,2839033556
28,10,21,Ticks_Linear_5,19,5,42,127,2839061828
28,10,21,Ticks_Linear_5,20,1,48,47,2839535272
28,10,21,Ticks_Linear_5,21,5,42,127,2839561528
28,10,21,Ticks_Linear_5,22,1,48,42,2840054896
28,10,21,Ticks_Linear_5,23,5,42,127,2840062276
28,10,21,Ticks_Linear_5,24,5,42,127,2840561984
28,10,21,Ticks_Linear_5,25,1,48,40,2840569588
28,10,21,Ticks_Linear_5,26,1,48,45,2841060740
28,10,21,Ticks_Linear_5,27,5,42,127,2841071860
28,10,21,Ticks_Linear_5,28,1,48,49,2841550104
28,10,21,Ticks_Linear_5,29,5,42,127,2841581892
28,10,21,Ticks_Linear_5,30,1,48,45,2842057736
28,10,21,Ticks_Linear_5,31,5,42,127,2842091852
28,10,21,Ticks_Linear_5,32,1,48,37,2842587612
28,10,21,Ticks_Linear_5,33,5,42,127,2842601812
28,10,21,Ticks_Linear_5,34,1,48,45,2843106412
28,10,21,Ticks_Linear_5,35,5,42,127,2843111996
28,10,21,Ticks_Linear_5,36,1,48,48,2843580508
28,10,21,Ticks_Linear_5,37,5,42,127,2843632064
28,10,21,Ticks_Linear_5,38,1,48,44,2844125876
28,10,21,Ticks_Linear_5,39,5,42,127,2844152132
28,10,21,Ticks_Linear_5,40,1,48,39,2844651048
28,10,21,Ticks_Linear_5,41,5,42,127,2844672500
28,10,21,Ticks_Linear_5,42,1,48,44,2845129316
28,10,21,Ticks_Linear_5,43,5,42,127,2845191596
28,10,21,Ticks_Linear_5,44,1,48,48,2845678820
28,10,21,Ticks_Linear_5,45,5,42,127,2845711740
28,10,21,Ticks_Linear_5,46,1,48,21,2846226368
28,10,21,Ticks_Linear_5,47,5,42,127,2846242068
28,10,21,Ticks_Linear_5,48,1,48,49,2846730944
28,10,21,Ticks_Linear_5,49,5,42,127,2846771644
28,10,21,Ticks_Linear_5,50,5,42,127,2847301984
28,10,21,Ticks_Linear_5,51,1,48,41,2847311844
28,10,21,Ticks_Linear_5,52,5,42,127,2847832532
28,10,21,Ticks_Linear_5,53,1,48,40,2847837228
28,10,21,Ticks_Linear_5,54,1,48,37,2848369420
28,10,21,Ticks_Linear_5,55,5,42,127,2848372020
28,10,21,Ticks_Linear_5,56,1,48,45,2848858840
28,10,21,Ticks_Linear_5,57,5,42,127,2848911708
28,10,21,Ticks_Linear_5,58,1,48,49,2849414660
28,10,21,Ticks_Linear_5,59,5,42,127,2849452668
28,10,21,Ticks_Linear_5,60,1,48,42,2849967376
28,10,21,Ticks_Linear_5,61,5,42,127,2849991912
28,10,21,Ticks_Linear_5,62,1,48,43,2850494488
28,10,21,Ticks_Linear_5,63,5,42,127,2850531672
28,10,21,Ticks_Linear_5,64,1,48,45,2851051032
28,10,21,Ticks_Linear_5,65,5,42,127,2851072560
28,10,21,Ticks_Linear_5,66,1,48,44,2851590120
28,10,21,Ticks_Linear_5,67,5,42,127,2851622284
28,10,21,Ticks_Linear_5,68,1,48,35,2852107036
28,10,21,Ticks_Linear_5,69,5,42,127,2852172232
28,10,21,Ticks_Linear_5,70,1,48,44,2852718720
28,10,21,Ticks_Linear_5,71,5,42,127,2852722060
28,10,21,Ticks_Linear_5,72,1,48,49,2853270196
28,10,21,Ticks_Linear_5,73,5,42,127,2853271860
28,10,21,Ticks_Linear_5,74,5,42,127,2853821964
28,10,21,Ticks_Linear_5,75,1,48,47,2853839456
28,10,21,Ticks_Linear_5,76,1,48,45,2854371424
28,10,21,Ticks_Linear_5,77,5,42,127,2854382092
28,10,21,Ticks_Linear_5,78,5,42,127,2854942008
28,10,21,Ticks_Linear_5,79,1,48,45,2854949316
28,10,21,Ticks_Linear_5,80,5,42,127,2855502292
28,10,21,Ticks_Linear_5,81,1,48,43,2855506084
28,10,21,Ticks_Linear_5,82,5,42,127,2856062224
28,10,21,Ticks_Linear_5,83,1,48,47,2856069544
28,10,21,Ticks_Linear_5,84,5,42,127,2856621312
28,10,21,Ticks_Linear_5,85,1,48,49,2856627120
28,10,21,Ticks_Linear_5,86,5,42,127,2857191928
28,10,21,Ticks_Linear_5,87,1,48,54,2857213544
28,10,21,Ticks_Linear_5,88,5,42,127,2857762172
28,10,21,Ticks_Linear_5,89,1,48,40,2857777120
28,10,21,Ticks_Linear_5,90,5,42,127,2858331372
28,10,21,Ticks_Linear_5,91,1,48,39,2858334112
28,10,21,Ticks_Linear_5,92,1,48,40,2858885412
28,10,21,Ticks_Linear_5,93,5,42,127,2858902076
28,10,21,Ticks_Linear_5,94,5,42,127,2859472104
28,10,21,Ticks_Linear_5,95,1,48,37,2859476792
28,10,21,Ticks_Linear_5,96,1,48,39,2860013392
28,10,21,Ticks_Linear_5,97,5,42,127,2860051928
28,10,21,Ticks_Linear_5,98,1,48,38,2860607004
28,10,21,Ticks_Linear_5,99,5,42,127,2860632432
28,10,21,Ticks_Linear_5,100,1,48,40,2861205128
28,10,21,Ticks_Linear_5,101,5,42,127,2861222244
28,10,21,Ticks_Linear_5,102,5,42,127,2861802080
28,10,21,Ticks_Linear_5,103,1,48,42,2861825716
28,10,21,Ticks_Linear_5,104,5,42,127,2862381760
28,10,21,Ticks_Linear_5,105,1,48,37,2862386228
28,10,21,Ticks_Linear_5,106,1,48,44,2862964864
28,10,21,Ticks_Linear_5,107,5,42,127,2862972240
28,10,21,Ticks_Linear_5,108,1,48,38,2863559916
28,10,21,Ticks_Linear_5,109,5,42,127,2863562032
28,10,21,Ticks_Linear_5,110,1,48,48,2864132388
28,10,21,Ticks_Linear_5,111,5,42,127,2864151820
28,10,21,Ticks_Linear_5,112,5,42,127,2864741888
28,10,21,Ticks_Linear_5,113,1,48,32,2865320744
28,10,21,Ticks_Linear_5,114,5,42,127,2865331644
28,10,21,Ticks_Linear_5,115,1,48,42,2865852272
28,10,21,Ticks_Linear_5,116,5,42,127,2865931840
28,10,21,Ticks_Linear_5,117,1,48,51,2866524808
28,10,21,Ticks_Linear_5,118,5,42,127,2866531816
28,10,21,Ticks_Linear_5,119,1,48,43,2867121592
28,10,21,Ticks_Linear_5,120,5,42,127,2867131816
28,10,21,Ticks_Linear_5,121,1,48,50,2867708524
28,10,21,Ticks_Linear_5,122,5,42,127,2867731712
28,10,21,Ticks_Linear_5,123,1,48,53,2868292480
28,10,21,Ticks_Linear_5,124,5,42,127,2868331788
28,10,21,Ticks_Linear_5,125,1,48,44,2868932168
28,10,21,Ticks_Linear_5,126,5,42,127,2868942316
28,10,21,Ticks_Linear_5,127,5,42,127,2869551584
28,10,21,Ticks_Linear_5,128,1,48,44,2869568032
28,10,21,Ticks_Linear_5,129,1,48,47,2870123380
28,10,21,Ticks_Linear_5,130,5,42,127,2870161840
28,10,21,Ticks_Linear_5,131,1,48,48,2870741552
28,10,21,Ticks_Linear_5,132,5,42,127,2870771996
28,10,21,Ticks_Linear_5,133,5,42,127,2871382608
28,10,21,Ticks_Linear_5,134,1,48,40,2871385132
28,10,21,Ticks_Linear_5,135,1,48,31,2871990952
28,10,21,Ticks_Linear_5,136,5,42,127,2872001776
28,10,21,Ticks_Linear_5,137,1,48,39,2872581864
28,10,21,Ticks_Linear_5,138,5,42,127,2872621368
28,10,21,Ticks_Linear_5,139,1,48,38,2873205072
28,10,21,Ticks_Linear_5,140,5,42,127,2873241960
28,10,21,Ticks_Linear_5,141,1,48,46,2873812760
28,10,21,Ticks_Linear_5,142,5,42,127,2873861404
28,10,21,Ticks_Linear_5,143,5,42,127,2874482304
28,10,21,Ticks_Linear_5,144,1,48,43,2874504820
28,10,21,Ticks_Linear_5,145,5,42,127,2875111788
28,10,21,Ticks_Linear_5,146,1,48,43,2875139624
28,10,21,Ticks_Linear_5,147,1,48,46,2875740124
28,10,21,Ticks_Linear_5,148,5,42,127,2875741708
28,10,21,Ticks_Linear_5,149,1,48,48,2876361364
28,10,21,Ticks_Linear_5,150,5,42,127,2876372336
28,10,21,Ticks_Linear_5,151,1,48,39,2876996832
28,10,21,Ticks_Linear_5,152,5,42,127,2877002264
28,10,21,Ticks_Linear_5,153,1,48,44,2877626180
28,10,21,Ticks_Linear_5,154,5,42,127,2877632140
28,10,21,Ticks_Linear_5,155,1,48,20,2878248324
28,10,21,Ticks_Linear_5,156,5,42,127,2878271884
28,10,21,Ticks_Linear_5,157,1,48,40,2878873864
28,10,21,Ticks_Linear_5,158,5,42,127,2878911796
28,10,21,Ticks_Linear_5,159,1,48,43,2879535316
28,10,21,Ticks_Linear_5,160,5,42,127,2879552056
28,10,21,Ticks_Linear_5,161,1,48,47,2880147892
28,10,21,Ticks_Linear_5,162,5,42,127,2880192120
28,10,21,Ticks_Linear_5,163,1,48,45,2880796316
28,10,21,Ticks_Linear_5,164,5,42,127,2880832084
28,10,21,Ticks_Linear_5,165,1,48,47,2881424408
28,10,21,Ticks_Linear_5,166,5,42,127,2881482184
28,10,21,Ticks_Linear_5,167,5,42,127,2882132264
28,10,21,Ticks_Linear_5,168,1,48,35,2882166556
28,10,21,Ticks_Linear_5,169,5,42,127,2882781464
28,10,21,Ticks_Linear_5,170,1,48,38,2882829132
28,10,21,Ticks_Linear_5,171,1,48,51,2883407000
28,10,21,Ticks_Linear_5,172,5,42,127,2883432000
28,10,21,Ticks_Linear_5,173,1,48,49,2884029460
28,10,21,Ticks_Linear_5,174,5,42,127,2884082076
28,10,21,Ticks_Linear_5,175,5,42,127,2884741468
28,10,21,Ticks_Linear_5,176,1,48,49,2884745180
28,10,21,Ticks_Linear_5,177,1,48,46,2885400132
28,10,21,Ticks_Linear_5,178,5,42,127,2885401868
28,10,21,Ticks_Linear_5,179,5,42,127,2886061412
28,10,21,Ticks_Linear_5,180,1,48,46,2886087816
28,10,21,Ticks_Linear_5,181,1,48,38,2886720912
28,10,21,Ticks_Linear_5,182,5,42,127,2886722780
28,10,21,Ticks_Linear_5,183,1,48,40,2887361532
28,10,21,Ticks_Linear_5,184,5,42,127,2887382464
28,10,21,Ticks_Linear_5,185,1,48,43,2888031532
28,10,21,Ticks_Linear_5,186,5,42,127,2888052036
28,10,21,Ticks_Linear_5,187,1,48,31,2888675104
28,10,21,Ticks_Linear_5,188,5,42,127,2888721732
28,10,21,Ticks_Linear_5,189,1,48,44,2889342136
28,10,21,Ticks_Linear_5,190,5,42,127,2889391672
28,10,21,Ticks_Linear_5,191,5,42,127,2890062200
28,10,21,Ticks_Linear_5,192,1,48,49,2890719692
28,10,21,Ticks_Linear_5,193,5,42,127,2890731860
28,10,21,Ticks_Linear_5,194,1,48,39,2891349308
28,10,21,Ticks_Linear_5,195,5,42,127,2891411688
28,10,21,Ticks_Linear_5,196,1,48,47,2892045240
28,10,21,Ticks_Linear_5,197,5,42,127,2892091788
28,10,21,Ticks_Linear_5,198,1,48,48,2892727316
28,10,21,Ticks_Linear_5,199,5,42,127,2892771768
28,10,21,Ticks_Linear_5,200,5,42,127,2893451604
28,10,21,Ticks_Linear_5,201,1,48,52,2893468796
28,10,21,Ticks_Linear_5,202,1,48,48,2894123792
28,10,21,Ticks_Linear_5,203,5,42,127,2894131624
28,10,21,Ticks_Linear_5,204,1,48,32,2894778384
28,10,21,Ticks_Linear_5,205,5,42,127,2894821636
28,10,21,Ticks_Linear_5,206,1,48,46,2895509988
28,10,21,Ticks_Linear_5,207,5,42,127,2895511876
28,10,21,Ticks_Linear_5,208,1,48,48,2896173292
28,10,21,Ticks_Linear_5,209,5,42,127,2896202236
28,10,21,Ticks_Linear_5,210,5,42,127,2896892480
28,10,21,Ticks_Linear_5,211,1,48,50,2896896720
28,10,21,Ticks_Linear_5,212,5,42,127,2897581448
28,10,21,Ticks_Linear_5,213,1,48,48,2897617884
28,10,21,Ticks_Linear_5,214,1,48,46,2898258872
28,10,21,Ticks_Linear_5,215,5,42,127,2898281864
28,10,21,Ticks_Linear_5,216,1,48,47,2898959448
28,10,21,Ticks_Linear_5,217,5,42,127,2898982336
28,10,21,Ticks_Linear_5,218,1,48,51,2899592776
28,10,21,Ticks_Linear_5,219,5,42,127,2899681560
28,10,21,Ticks_Linear_5,220,1,48,33,2900380396
28,10,21,Ticks_Linear_5,221,5,42,127,2900382132
28,10,21,Ticks_Linear_5,222,1,48,48,2901055752
28,10,21,Ticks_Linear_5,223,5,42,127,2901081408
28,10,21,Ticks_Linear_5,224,1,48,46,2901732288
28,10,21,Ticks_Linear_5,225,5,42,127,2901792088
28,10,21,Ticks_Linear_5,226,1,48,43,2902462668
28,10,21,Ticks_Linear_5,227,5,42,127,2902501948
28,10,21,Ticks_Linear_5,228,1,48,52,2903144520
28,10,21,Ticks_Linear_5,229,5,42,127,2903212552
28,10,21,Ticks_Linear_5,230,5,42,127,2903922120
28,10,21,Ticks_Linear_5,231,1,48,37,2903924564
28,10,21,Ticks_Linear_5,232,1,48,41,2904623224
28,10,21,Ticks_Linear_5,233,5,42,127,2904631576
28,10,21,Ticks_Linear_5,234,1,48,50,2905295556
28,10,21,Ticks_Linear_5,235,5,42,127,2905351544
28,10,21,Ticks_Linear_5,236,1,48,45,2905985424
28,10,21,Ticks_Linear_5,237,5,42,127,2906072336
28,10,21,Ticks_Linear_5,238,1,48,48,2906782080
28,10,21,Ticks_Linear_5,239,5,42,127,2906801512
28,10,21,Ticks_Linear_5,240,1,48,43,2907487488
28,10,21,Ticks_Linear_5,241,5,42,127,2907522304
28,10,21,Ticks_Linear_5,242,1,48,57,2908241236
28,10,21,Ticks_Linear_5,243,5,42,127,2908251384
28,10,21,Ticks_Linear_5,244,5,42,127,2908981992
28,10,21,Ticks_Linear_5,245,1,48,36,2908990960
28,10,21,Ticks_Linear_5,246,1,48,44,2909675852
28,10,21,Ticks_Linear_5,247,5,42,127,2909711692
28,10,21,Ticks_Linear_5,248,1,48,47,2910415736
28,10,21,Ticks_Linear_5,249,5,42,127,2910441768
28,10,21,Ticks_Linear_5,250,1,48,51,2911145220
28,10,21,Ticks_Linear_5,251,5,42,127,2911171920
28,10,21,Ticks_Linear_5,252,1,48,32,2911892072
28,10,21,Ticks_Linear_5,253,5,42,127,2911902072
28,10,21,Ticks_Linear_5,254,1,48,47,2912561620
28,10,21,Ticks_Linear_5,255,5,42,127,2912642560
28,10,21,Ticks_Linear_5,256,1,48,49,2913350864
28,10,21,Ticks_Linear_5,257,5,42,127,2913391960
28,10,21,Ticks_Linear_5,258,1,48,50,2914089096
28,10,21,Ticks_Linear_5,259,5,42,127,2914132572
28,10,21,Ticks_Linear_5,260,1,48,32,2914859692
28,10,21,Ticks_Linear_5,261,5,42,127,2914871636
28,10,21,Ticks_Linear_5,262,1,48,48,2915585644
28,10,21,Ticks_Linear_5,263,5,42,127,2915611976
28,10,21,Ticks_Linear_5,264,1,48,43,2916321092
28,10,21,Ticks_Linear_5,265,5,42,127,2916361572
28,10,21,Ticks_Linear_5,266,1,48,46,2917080680
28,10,21,Ticks_Linear_5,267,5,42,127,2917112392
28,10,21,Ticks_Linear_5,268,1,48,37,2917829540
28,10,21,Ticks_Linear_5,269,5,42,127,2917861644
28,10,21,Ticks_Linear_5,270,1,48,48,2918571760
28,10,21,Ticks_Linear_5,271,5,42,127,2918612464
28,10,21,Ticks_Linear_5,272,1,48,41,2919344596
28,10,21,Ticks_Linear_5,273,5,42,127,2919361788
28,10,21,Ticks_Linear_5,274,1,48,41,2920056176
28,10,21,Ticks_Linear_5,275,5,42,127,2920121672
28,10,21,Ticks_Linear_5,276,1,48,48,2920794244
28,10,21,Ticks_Linear_5,277,5,42,127,2920881480
28,10,21,Ticks_Linear_5,278,5,42,127,2921642340
28,10,21,Ticks_Linear_5,279,1,48,51,2921678332
28,10,21,Ticks_Linear_5,280,1,48,50,2922393412
28,10,21,Ticks_Linear_5,281,5,42,127,2922402292
28,10,21,Ticks_Linear_5,282,1,48,48,2923162256
28,10,21,Ticks_Linear_5,283,5,42,127,2923163592
28,10,21,Ticks_Linear_5,284,1,48,46,2923921872
28,10,21,Ticks_Linear_5,285,5,42,127,2923932244
28,10,21,Ticks_Linear_5,286,1,48,45,2924684220
28,10,21,Ticks_Linear_5,287,5,42,127,2924702160
28,10,21,Ticks_Linear_5,288,1,48,50,2925455560
28,10,21,Ticks_Linear_5,289,5,42,127,2925472228
28,10,21,Ticks_Linear_5,290,1,48,51,2926226152
28,10,21,Ticks_Linear_5,291,5,42,127,2926242072
28,10,21,Ticks_Linear_5,292,5,42,127,2927012148
28,10,21,Ticks_Linear_5,293,1,48,53,2927015416
28,10,21,Ticks_Linear_5,294,1,48,47,2927785756
28,10,21,Ticks_Linear_5,295,5,42,127,2927791420
28,10,21,Ticks_Linear_5,296,5,42,127,2928572052
28,10,21,Ticks_Linear_5,297,1,48,39,2928587300
28,10,21,Ticks_Linear_5,298,1,48,47,2929276320
28,10,21,Ticks_Linear_5,299,5,42,127,2929351924
28,10,21,Ticks_Linear_5,300,1,48,39,2930126968
28,10,21,Ticks_Linear_5,301,5,42,127,2930132400
28,10,21,Ticks_Linear_5,302,1,48,35,2930892764
28,10,21,Ticks_Linear_5,303,5,42,127,2930911680
28,10,21,Ticks_Linear_5,304,1,48,31,2931672796
28,10,21,Ticks_Linear_5,305,5,42,127,2931702116
28,10,21,Ticks_Linear_5,306,1,48,54,2932398672
28,10,21,Ticks_Linear_5,307,5,42,127,2932491716
28,10,21,Ticks_Linear_5,308,1,48,49,2933231732
28,10,21,Ticks_Linear_5,309,5,42,127,2933282240
28,10,21,Ticks_Linear_5,310,1,48,44,2934069036
28,10,21,Ticks_Linear_5,311,5,42,127,2934071780
28,10,21,Ticks_Linear_5,312,1,48,50,2934854608
28,10,21,Ticks_Linear_5,313,5,42,127,2934862144
28,10,21,Ticks_Linear_5,314,1,48,44,2935621912
28,10,21,Ticks_Linear_5,315,5,42,127,2935661892
28,10,21,Ticks_Linear_5,316,1,48,41,2936437832
28,10,21,Ticks_Linear_5,317,5,42,127,2936461688
28,10,21,Ticks_Linear_5,318,1,48,41,2937240784
28,10,21,Ticks_Linear_5,319,5,42,127,2937261412
28,10,21,Ticks_Linear_5,320,5,42,127,2938062192
28,10,21,Ticks_Linear_5,321,1,48,27,2938068080
28,10,21,Ticks_Linear_5,322,1,48,49,2938851980
28,10,21,Ticks_Linear_5,323,5,42,127,2938861908
28,10,21,Ticks_Linear_5,324,1,48,34,2939615532
28,10,21,Ticks_Linear_5,325,5,42,127,2939671816
28,10,21,Ticks_Linear_5,326,5,42,127,2940481956
28,10,21,Ticks_Linear_5,327,1,48,46,2940490172
28,10,21,Ticks_Linear_5,328,1,48,45,2941277728
28,10,21,Ticks_Linear_5,329,5,42,127,2941291804
28,10,21,Ticks_Linear_5,330,5,42,127,2942101868
28,10,21,Ticks_Linear_5,331,1,48,52,2942118092
28,10,21,Ticks_Linear_5,332,1,48,35,2942891956
28,10,21,Ticks_Linear_5,333,5,42,127,2942911916
28,10,21,Ticks_Linear_5,0,9999,9999,9999,2833689712
28,10,21,Ticks_Linear_5,1,9999,9999,9999,2834169964
28,10,21,Ticks_Linear_5,2,9999,9999,9999,2834649168
28,10,21,Ticks_Linear_5,3,9999,9999,9999,2835129416
28,10,21,Ticks_Linear_5,4,9999,9999,9999,2835609660
28,10,21,Ticks_Linear_5,5,9999,9999,9999,2836099180
28,10,21,Ticks_Linear_5,6,9999,9999,9999,2836589672
28,10,21,Ticks_Linear_5,7,9999,9999,9999,2837079164
28,10,21,Ticks_Linear_5,8,9999,9999,9999,2837569652
28,10,21,Ticks_Linear_5,9,9999,9999,9999,2838059112
28,10,21,Ticks_Linear_5,10,9999,9999,9999,2838559832
28,10,21,Ticks_Linear_5,11,9999,9999,9999,2839059532
28,10,21,Ticks_Linear_5,12,9999,9999,9999,2839559232
28,10,21,Ticks_Linear_5,13,9999,9999,9999,2840059976
28,10,21,Ticks_Linear_5,14,9999,9999,9999,2840559684
28,10,21,Ticks_Linear_5,15,9999,9999,9999,2841069636
28,10,21,Ticks_Linear_5,16,9999,9999,9999,2841579596
28,10,21,Ticks_Linear_5,17,9999,9999,9999,2842089552
28,10,21,Ticks_Linear_5,18,9999,9999,9999,2842599512
28,10,21,Ticks_Linear_5,19,9999,9999,9999,2843109472
28,10,21,Ticks_Linear_5,20,9999,9999,9999,2843629692
28,10,21,Ticks_Linear_5,21,9999,9999,9999,2844149836
28,10,21,Ticks_Linear_5,22,9999,9999,9999,2844670052
28,10,21,Ticks_Linear_5,23,9999,9999,9999,2845189224
28,10,21,Ticks_Linear_5,24,9999,9999,9999,2845709368
28,10,21,Ticks_Linear_5,25,9999,9999,9999,2846239844
28,10,21,Ticks_Linear_5,26,9999,9999,9999,2846769272
28,10,21,Ticks_Linear_5,27,9999,9999,9999,2847299684
28,10,21,Ticks_Linear_5,28,9999,9999,9999,2847830088
28,10,21,Ticks_Linear_5,29,9999,9999,9999,2848369720
28,10,21,Ticks_Linear_5,30,9999,9999,9999,2848909408
28,10,21,Ticks_Linear_5,31,9999,9999,9999,2849450072
28,10,21,Ticks_Linear_5,32,9999,9999,9999,2849989688
28,10,21,Ticks_Linear_5,33,9999,9999,9999,2850529376
28,10,21,Ticks_Linear_5,34,9999,9999,9999,2851070036
28,10,21,Ticks_Linear_5,35,9999,9999,9999,2851619912
28,10,21,Ticks_Linear_5,36,9999,9999,9999,2852169784
28,10,21,Ticks_Linear_5,37,9999,9999,9999,2852719684
28,10,21,Ticks_Linear_5,38,9999,9999,9999,2853269572
28,10,21,Ticks_Linear_5,39,9999,9999,9999,2853819516
28,10,21,Ticks_Linear_5,40,9999,9999,9999,2854379644
28,10,21,Ticks_Linear_5,41,9999,9999,9999,2854939708
28,10,21,Ticks_Linear_5,42,9999,9999,9999,2855499844
28,10,21,Ticks_Linear_5,43,9999,9999,9999,2856060000
28,10,21,Ticks_Linear_5,44,9999,9999,9999,2856619088
28,10,21,Ticks_Linear_5,45,9999,9999,9999,2857189480
28,10,21,Ticks_Linear_5,46,9999,9999,9999,2857759800
28,10,21,Ticks_Linear_5,47,9999,9999,9999,2858329148
28,10,21,Ticks_Linear_5,48,9999,9999,9999,2858899556
28,10,21,Ticks_Linear_5,49,9999,9999,9999,2859469880
28,10,21,Ticks_Linear_5,50,9999,9999,9999,2860049480
28,10,21,Ticks_Linear_5,51,9999,9999,9999,2860630136
28,10,21,Ticks_Linear_5,52,9999,9999,9999,2861219948
28,10,21,Ticks_Linear_5,53,9999,9999,9999,2861799484
28,10,21,Ticks_Linear_5,54,9999,9999,9999,2862379088
28,10,21,Ticks_Linear_5,55,9999,9999,9999,2862969944
28,10,21,Ticks_Linear_5,56,9999,9999,9999,2863559776
28,10,21,Ticks_Linear_5,57,9999,9999,9999,2864149596
28,10,21,Ticks_Linear_5,58,9999,9999,9999,2864739440
28,10,21,Ticks_Linear_5,59,9999,9999,9999,2865329272
28,10,21,Ticks_Linear_5,60,9999,9999,9999,2865929320
28,10,21,Ticks_Linear_5,61,9999,9999,9999,2866529368
28,10,21,Ticks_Linear_5,62,9999,9999,9999,2867129440
28,10,21,Ticks_Linear_5,63,9999,9999,9999,2867729492
28,10,21,Ticks_Linear_5,64,9999,9999,9999,2868329564
28,10,21,Ticks_Linear_5,65,9999,9999,9999,2868939872
28,10,21,Ticks_Linear_5,66,9999,9999,9999,2869549140
28,10,21,Ticks_Linear_5,67,9999,9999,9999,2870159464
28,10,21,Ticks_Linear_5,68,9999,9999,9999,2870769772
28,10,21,Ticks_Linear_5,69,9999,9999,9999,2871380084
28,10,21,Ticks_Linear_5,70,9999,9999,9999,2871999552
28,10,21,Ticks_Linear_5,71,9999,9999,9999,2872619072
28,10,21,Ticks_Linear_5,72,9999,9999,9999,2873239664
28,10,21,Ticks_Linear_5,73,9999,9999,9999,2873859180
28,10,21,Ticks_Linear_5,74,9999,9999,9999,2874479708
28,10,21,Ticks_Linear_5,75,9999,9999,9999,2875109488
28,10,21,Ticks_Linear_5,76,9999,9999,9999,2875739192
28,10,21,Ticks_Linear_5,77,9999,9999,9999,2876370036
28,10,21,Ticks_Linear_5,78,9999,9999,9999,2876999740
28,10,21,Ticks_Linear_5,79,9999,9999,9999,2877629548
28,10,21,Ticks_Linear_5,80,9999,9999,9999,2878269512
28,10,21,Ticks_Linear_5,81,9999,9999,9999,2878909500
28,10,21,Ticks_Linear_5,82,9999,9999,9999,2879549536
28,10,21,Ticks_Linear_5,83,9999,9999,9999,2880189524
28,10,21,Ticks_Linear_5,84,9999,9999,9999,2880829564
28,10,21,Ticks_Linear_5,85,9999,9999,9999,2881479736
28,10,21,Ticks_Linear_5,86,9999,9999,9999,2882130040
28,10,21,Ticks_Linear_5,87,9999,9999,9999,2882779240
28,10,21,Ticks_Linear_5,88,9999,9999,9999,2883429480
28,10,21,Ticks_Linear_5,89,9999,9999,9999,2884079704
28,10,21,Ticks_Linear_5,90,9999,9999,9999,2884739172
28,10,21,Ticks_Linear_5,91,9999,9999,9999,2885399668
28,10,21,Ticks_Linear_5,92,9999,9999,9999,2886059112
28,10,21,Ticks_Linear_5,93,9999,9999,9999,2886719592
28,10,21,Ticks_Linear_5,94,9999,9999,9999,2887380092
28,10,21,Ticks_Linear_5,95,9999,9999,9999,2888049740
28,10,21,Ticks_Linear_5,96,9999,9999,9999,2888719432
28,10,21,Ticks_Linear_5,97,9999,9999,9999,2889389152
28,10,21,Ticks_Linear_5,98,9999,9999,9999,2890059900
28,10,21,Ticks_Linear_5,99,9999,9999,9999,2890729560
28,10,21,Ticks_Linear_5,100,9999,9999,9999,2891409464
28,10,21,Ticks_Linear_5,101,9999,9999,9999,2892089416
28,10,21,Ticks_Linear_5,102,9999,9999,9999,2892769396
28,10,21,Ticks_Linear_5,103,9999,9999,9999,2893449304
28,10,21,Ticks_Linear_5,104,9999,9999,9999,2894129252
28,10,21,Ticks_Linear_5,105,9999,9999,9999,2894819412
28,10,21,Ticks_Linear_5,106,9999,9999,9999,2895509600
28,10,21,Ticks_Linear_5,107,9999,9999,9999,2896199788
28,10,21,Ticks_Linear_5,108,9999,9999,9999,2896889956
28,10,21,Ticks_Linear_5,109,9999,9999,9999,2897579072
28,10,21,Ticks_Linear_5,110,9999,9999,9999,2898279492
28,10,21,Ticks_Linear_5,111,9999,9999,9999,2898979964
28,10,21,Ticks_Linear_5,112,9999,9999,9999,2899679336
28,10,21,Ticks_Linear_5,113,9999,9999,9999,2900379780
28,10,21,Ticks_Linear_5,114,9999,9999,9999,2901079108
28,10,21,Ticks_Linear_5,115,9999,9999,9999,2901789792
28,10,21,Ticks_Linear_5,116,9999,9999,9999,2902499428
28,10,21,Ticks_Linear_5,117,9999,9999,9999,2903210108
28,10,21,Ticks_Linear_5,118,9999,9999,9999,2903919672
28,10,21,Ticks_Linear_5,119,9999,9999,9999,2904629352
28,10,21,Ticks_Linear_5,120,9999,9999,9999,2905349244
28,10,21,Ticks_Linear_5,121,9999,9999,9999,2906070112
28,10,21,Ticks_Linear_5,122,9999,9999,9999,2906799216
28,10,21,Ticks_Linear_5,123,9999,9999,9999,2907520080
28,10,21,Ticks_Linear_5,124,9999,9999,9999,2908249160
28,10,21,Ticks_Linear_5,125,9999,9999,9999,2908979320
28,10,21,Ticks_Linear_5,126,9999,9999,9999,2909709392
28,10,21,Ticks_Linear_5,127,9999,9999,9999,2910439544
28,10,21,Ticks_Linear_5,128,9999,9999,9999,2911169624
28,10,21,Ticks_Linear_5,129,9999,9999,9999,2911899776
28,10,21,Ticks_Linear_5,130,9999,9999,9999,2912640112
28,10,21,Ticks_Linear_5,131,9999,9999,9999,2913389660
28,10,21,Ticks_Linear_5,132,9999,9999,9999,2914129976
28,10,21,Ticks_Linear_5,133,9999,9999,9999,2914869340
28,10,21,Ticks_Linear_5,134,9999,9999,9999,2915609676
28,10,21,Ticks_Linear_5,135,9999,9999,9999,2916359276
28,10,21,Ticks_Linear_5,136,9999,9999,9999,2917109872
28,10,21,Ticks_Linear_5,137,9999,9999,9999,2917859420
28,10,21,Ticks_Linear_5,138,9999,9999,9999,2918610016
28,10,21,Ticks_Linear_5,139,9999,9999,9999,2919359564
28,10,21,Ticks_Linear_5,140,9999,9999,9999,2920119372
28,10,21,Ticks_Linear_5,141,9999,9999,9999,2920879180
28,10,21,Ticks_Linear_5,142,9999,9999,9999,2921640040
28,10,21,Ticks_Linear_5,143,9999,9999,9999,2922399844
28,10,21,Ticks_Linear_5,144,9999,9999,9999,2923159660
28,10,21,Ticks_Linear_5,145,9999,9999,9999,2923929720
28,10,21,Ticks_Linear_5,146,9999,9999,9999,2924699716
28,10,21,Ticks_Linear_5,147,9999,9999,9999,2925469780
28,10,21,Ticks_Linear_5,148,9999,9999,9999,2926239848
28,10,21,Ticks_Linear_5,149,9999,9999,9999,2927009848
28,10,21,Ticks_Linear_5,150,9999,9999,9999,2927789124
28,10,21,Ticks_Linear_5,151,9999,9999,9999,2928569456
28,10,21,Ticks_Linear_5,152,9999,9999,9999,2929349700
28,10,21,Ticks_Linear_5,153,9999,9999,9999,2930130028
28,10,21,Ticks_Linear_5,154,9999,9999,9999,2930909308
28,10,21,Ticks_Linear_5,155,9999,9999,9999,2931699820
28,10,21,Ticks_Linear_5,156,9999,9999,9999,2932489304
28,10,21,Ticks_Linear_5,157,9999,9999,9999,2933279868
28,10,21,Ticks_Linear_5,158,9999,9999,9999,2934069332
28,10,21,Ticks_Linear_5,159,9999,9999,9999,2934859844
28,10,21,Ticks_Linear_5,160,9999,9999,9999,2935659592
28,10,21,Ticks_Linear_5,161,9999,9999,9999,2936459392
28,10,21,Ticks_Linear_5,162,9999,9999,9999,2937259116
28,10,21,Ticks_Linear_5,163,9999,9999,9999,2938059892
28,10,21,Ticks_Linear_5,164,9999,9999,9999,2938859608
28,10,21,Ticks_Linear_5,165,9999,9999,9999,2939669592
28,10,21,Ticks_Linear_5,166,9999,9999,9999,2940479580
28,10,21,Ticks_Linear_5,167,9999,9999,9999,2941289580
28,10,21,Ticks_Linear_5,168,9999,9999,9999,2942099568
28,10,21,Ticks_Linear_5,169,9999,9999,9999,2942909544
28,11,20,Ticks_Linear_8,0,5,42,127,2955985240
28,11,20,Ticks_Linear_8,1,5,42,127,2956804752
28,11,20,Ticks_Linear_8,2,1,48,44,2957553160
28,11,20,Ticks_Linear_8,3,5,42,127,2957624788
28,11,20,Ticks_Linear_8,4,1,48,49,2958421764
28,11,20,Ticks_Linear_8,5,5,42,127,2958444828
28,11,20,Ticks_Linear_8,6,1,48,46,2959257168
28,11,20,Ticks_Linear_8,7,5,42,127,2959265000
28,11,20,Ticks_Linear_8,8,1,48,47,2960042804
28,11,20,Ticks_Linear_8,9,5,42,127,2960075056
28,11,20,Ticks_Linear_8,10,1,48,45,2960847108
28,11,20,Ticks_Linear_8,11,5,42,127,2960885036
28,11,20,Ticks_Linear_8,12,1,48,39,2961692908
28,11,20,Ticks_Linear_8,13,5,42,127,2961695020
28,11,20,Ticks_Linear_8,14,1,48,26,2962497552
28,11,20,Ticks_Linear_8,15,5,42,127,2962505076
28,11,20,Ticks_Linear_8,16,1,48,40,2963242672
28,11,20,Ticks_Linear_8,17,5,42,127,2963315160
28,11,20,Ticks_Linear_8,18,1,48,49,2964075452
28,11,20,Ticks_Linear_8,19,5,42,127,2964114812
28,11,20,Ticks_Linear_8,20,1,48,47,2964880788
28,11,20,Ticks_Linear_8,21,5,42,127,2964914536
28,11,20,Ticks_Linear_8,22,1,48,51,2965647568
28,11,20,Ticks_Linear_8,23,5,42,127,2965715232
28,11,20,Ticks_Linear_8,24,1,48,43,2966476644
28,11,20,Ticks_Linear_8,25,5,42,127,2966515104
28,11,20,Ticks_Linear_8,26,1,48,22,2967296664
28,11,20,Ticks_Linear_8,27,1,38,10,2967308100
28,11,20,Ticks_Linear_8,28,5,42,127,2967314808
28,11,20,Ticks_Linear_8,29,1,48,47,2968059344
28,11,20,Ticks_Linear_8,30,5,42,127,2968105292
28,11,20,Ticks_Linear_8,31,1,48,48,2968848960
28,11,20,Ticks_Linear_8,32,5,42,127,2968894908
28,11,20,Ticks_Linear_8,33,1,48,56,2969664112
28,11,20,Ticks_Linear_8,34,5,42,127,2969685348
28,11,20,Ticks_Linear_8,35,1,48,54,2970444516
28,11,20,Ticks_Linear_8,36,5,42,127,2970475060
28,11,20,Ticks_Linear_8,37,1,48,57,2971257072
28,11,20,Ticks_Linear_8,38,5,42,127,2971265348
28,11,20,Ticks_Linear_8,39,1,48,41,2972036504
28,11,20,Ticks_Linear_8,40,5,42,127,2972044628
28,11,20,Ticks_Linear_8,41,1,48,49,2972776616
28,11,20,Ticks_Linear_8,42,5,42,127,2972825032
28,11,20,Ticks_Linear_8,43,5,42,127,2973605144
28,11,20,Ticks_Linear_8,44,1,48,19,2973633880
28,11,20,Ticks_Linear_8,45,1,38,10,2973642684
28,11,20,Ticks_Linear_8,46,1,48,41,2974378560
28,11,20,Ticks_Linear_8,47,5,42,127,2974384368
28,11,20,Ticks_Linear_8,48,1,48,40,2975119120
28,11,20,Ticks_Linear_8,49,5,42,127,2975164920
28,11,20,Ticks_Linear_8,50,1,48,49,2975932320
28,11,20,Ticks_Linear_8,51,5,42,127,2975934916
28,11,20,Ticks_Linear_8,52,1,48,48,2976680080
28,11,20,Ticks_Linear_8,53,5,42,127,2976704836
28,11,20,Ticks_Linear_8,54,1,48,43,2977471184
28,11,20,Ticks_Linear_8,55,5,42,127,2977474904
28,11,20,Ticks_Linear_8,56,5,42,127,2978244904
28,11,20,Ticks_Linear_8,57,1,48,41,2978245868
28,11,20,Ticks_Linear_8,58,5,42,127,2979014972
28,11,20,Ticks_Linear_8,59,1,48,48,2979029100
28,11,20,Ticks_Linear_8,60,5,42,127,2979774780
28,11,20,Ticks_Linear_8,61,1,48,41,2979788752
28,11,20,Ticks_Linear_8,62,1,48,55,2980530116
28,11,20,Ticks_Linear_8,63,5,42,127,2980534880
28,11,20,Ticks_Linear_8,64,1,48,51,2981260868
28,11,20,Ticks_Linear_8,65,5,42,127,2981294464
28,11,20,Ticks_Linear_8,66,5,42,127,2982055328
28,11,20,Ticks_Linear_8,67,1,48,45,2982064368
28,11,20,Ticks_Linear_8,68,1,48,43,2982799512
28,11,20,Ticks_Linear_8,69,5,42,127,2982815052
28,11,20,Ticks_Linear_8,70,5,42,127,2983564536
28,11,20,Ticks_Linear_8,71,1,48,53,2983588100
28,11,20,Ticks_Linear_8,72,5,42,127,2984315356
28,11,20,Ticks_Linear_8,73,1,48,34,2984336004
28,11,20,Ticks_Linear_8,74,5,42,127,2985064760
28,11,20,Ticks_Linear_8,75,1,48,52,2985078068
28,11,20,Ticks_Linear_8,76,1,48,51,2985813588
28,11,20,Ticks_Linear_8,77,5,42,127,2985815476
28,11,20,Ticks_Linear_8,78,5,42,127,2986564884
28,11,20,Ticks_Linear_8,79,1,48,51,2986572040
28,11,20,Ticks_Linear_8,80,5,42,127,2987305516
28,11,20,Ticks_Linear_8,81,1,48,46,2987306480
28,11,20,Ticks_Linear_8,82,5,42,127,2988044660
28,11,20,Ticks_Linear_8,83,1,48,54,2988091808
28,11,20,Ticks_Linear_8,84,5,42,127,2988784996
28,11,20,Ticks_Linear_8,85,1,48,58,2988785960
28,11,20,Ticks_Linear_8,86,5,42,127,2989525408
28,11,20,Ticks_Linear_8,87,1,48,51,2989552876
28,11,20,Ticks_Linear_8,88,1,48,51,2990227880
28,11,20,Ticks_Linear_8,89,5,42,127,2990264616
28,11,20,Ticks_Linear_8,90,5,42,127,2990994776
28,11,20,Ticks_Linear_8,91,1,48,37,2991038860
28,11,20,Ticks_Linear_8,92,5,42,127,2991724780
28,11,20,Ticks_Linear_8,93,1,48,49,2991751560
28,11,20,Ticks_Linear_8,94,5,42,127,2992455056
28,11,20,Ticks_Linear_8,95,1,48,48,2992482848
28,11,20,Ticks_Linear_8,96,1,48,45,2993134464
28,11,20,Ticks_Linear_8,97,5,42,127,2993185056
28,11,20,Ticks_Linear_8,98,1,48,49,2993912312
28,11,20,Ticks_Linear_8,99,5,42,127,2993915208
28,11,20,Ticks_Linear_8,100,5,42,127,2994635184
28,11,20,Ticks_Linear_8,101,1,48,51,2994643548
28,11,20,Ticks_Linear_8,102,1,48,49,2995325376
28,11,20,Ticks_Linear_8,103,5,42,127,2995354996
28,11,20,Ticks_Linear_8,104,1,48,19,2996059988
28,11,20,Ticks_Linear_8,105,5,42,127,2996074964
28,11,20,Ticks_Linear_8,106,5,42,127,2996794912
28,11,20,Ticks_Linear_8,107,1,48,46,2996802908
28,11,20,Ticks_Linear_8,108,5,42,127,2997514732
28,11,20,Ticks_Linear_8,109,1,48,43,2997543320
28,11,20,Ticks_Linear_8,110,5,42,127,2998225188
28,11,20,Ticks_Linear_8,111,1,48,48,2998279308
28,11,20,Ticks_Linear_8,112,1,48,56,2998930652
28,11,20,Ticks_Linear_8,113,5,42,127,2998935112
28,11,20,Ticks_Linear_8,114,5,42,127,2999644980
28,11,20,Ticks_Linear_8,115,1,48,49,2999645872
28,11,20,Ticks_Linear_8,116,1,48,51,3000334172
28,11,20,Ticks_Linear_8,117,5,42,127,3000355180
28,11,20,Ticks_Linear_8,118,1,48,48,3001057960
28,11,20,Ticks_Linear_8,119,5,42,127,3001064964
28,11,20,Ticks_Linear_8,120,1,48,48,3001750440
28,11,20,Ticks_Linear_8,121,5,42,127,3001765164
28,11,20,Ticks_Linear_8,122,5,42,127,3002464844
28,11,20,Ticks_Linear_8,123,1,48,39,3002468564
28,11,20,Ticks_Linear_8,124,1,48,46,3003144680
28,11,20,Ticks_Linear_8,125,5,42,127,3003165012
28,11,20,Ticks_Linear_8,126,1,48,51,3003843608
28,11,20,Ticks_Linear_8,127,5,42,127,3003864460
28,11,20,Ticks_Linear_8,128,1,48,51,3004541620
28,11,20,Ticks_Linear_8,129,5,42,127,3004564812
28,11,20,Ticks_Linear_8,130,5,42,127,3005255032
28,11,20,Ticks_Linear_8,131,1,48,49,3005269756
28,11,20,Ticks_Linear_8,132,1,48,49,3005932632
28,11,20,Ticks_Linear_8,133,5,42,127,3005945260
28,11,20,Ticks_Linear_8,134,1,48,46,3006605952
28,11,20,Ticks_Linear_8,135,5,42,127,3006635648
28,11,20,Ticks_Linear_8,136,5,42,127,3007324548
28,11,20,Ticks_Linear_8,137,1,48,55,3007332544
28,11,20,Ticks_Linear_8,138,5,42,127,3008014836
28,11,20,Ticks_Linear_8,139,1,48,45,3008047240
28,11,20,Ticks_Linear_8,140,1,48,54,3008682108
28,11,20,Ticks_Linear_8,141,5,42,127,3008694660
28,11,20,Ticks_Linear_8,142,1,48,47,3009373740
28,11,20,Ticks_Linear_8,143,5,42,127,3009375536
28,11,20,Ticks_Linear_8,144,1,48,49,3010018824
28,11,20,Ticks_Linear_8,145,5,42,127,3010054516
28,11,20,Ticks_Linear_8,146,1,48,48,3010718800
28,11,20,Ticks_Linear_8,147,5,42,127,3010734496
28,11,20,Ticks_Linear_8,148,1,48,53,3011371492
28,11,20,Ticks_Linear_8,149,5,42,127,3011415496
28,11,20,Ticks_Linear_8,150,5,42,127,3012085300
28,11,20,Ticks_Linear_8,151,1,48,15,3012110132
28,11,20,Ticks_Linear_8,152,1,38,11,3012122096
28,11,20,Ticks_Linear_8,153,1,48,51,3012748108
28,11,20,Ticks_Linear_8,154,5,42,127,3012754668
28,11,20,Ticks_Linear_8,155,1,48,49,3013378488
28,11,20,Ticks_Linear_8,156,5,42,127,3013424512
28,11,20,Ticks_Linear_8,157,1,48,49,3014091264
28,11,20,Ticks_Linear_8,158,5,42,127,3014095128
28,11,20,Ticks_Linear_8,159,1,48,54,3014758588
28,11,20,Ticks_Linear_8,160,5,42,127,3014765068
28,11,20,Ticks_Linear_8,161,5,42,127,3015425484
28,11,20,Ticks_Linear_8,162,1,48,54,3015429728
28,11,20,Ticks_Linear_8,163,5,42,127,3016084796
28,11,20,Ticks_Linear_8,164,1,48,47,3016114952
28,11,20,Ticks_Linear_8,165,1,48,51,3016737296
28,11,20,Ticks_Linear_8,166,5,42,127,3016745420
28,11,20,Ticks_Linear_8,167,1,48,45,3017391208
28,11,20,Ticks_Linear_8,168,5,42,127,3017404808
28,11,20,Ticks_Linear_8,169,1,48,51,3018051464
28,11,20,Ticks_Linear_8,170,5,42,127,3018065216
28,11,20,Ticks_Linear_8,171,5,42,127,3018714424
28,11,20,Ticks_Linear_8,172,1,48,45,3018765476
28,11,20,Ticks_Linear_8,173,5,42,127,3019364596
28,11,20,Ticks_Linear_8,174,1,48,50,3019390108
28,11,20,Ticks_Linear_8,175,5,42,127,3020014972
28,11,20,Ticks_Linear_8,176,1,48,43,3020078300
28,11,20,Ticks_Linear_8,177,1,48,52,3020641876
28,11,20,Ticks_Linear_8,178,5,42,127,3020665284
28,11,20,Ticks_Linear_8,179,1,48,48,3021259976
28,11,20,Ticks_Linear_8,180,5,42,127,3021314316
28,11,20,Ticks_Linear_8,181,1,48,38,3021883772
28,11,20,Ticks_Linear_8,182,5,42,127,3021954376
28,11,20,Ticks_Linear_8,183,1,48,43,3022593368
28,11,20,Ticks_Linear_8,184,5,42,127,3022595168
28,11,20,Ticks_Linear_8,185,1,48,47,3023184688
28,11,20,Ticks_Linear_8,186,5,42,127,3023234332
28,11,20,Ticks_Linear_8,187,5,42,127,3023874524
28,11,20,Ticks_Linear_8,188,1,48,38,3023897716
28,11,20,Ticks_Linear_8,189,5,42,127,3024514292
28,11,20,Ticks_Linear_8,190,1,48,51,3024528116
28,11,20,Ticks_Linear_8,191,1,48,33,3024602004
28,11,20,Ticks_Linear_8,192,5,42,127,3025145096
28,11,20,Ticks_Linear_8,193,1,48,36,3025172468
28,11,20,Ticks_Linear_8,194,5,42,127,3025774900
28,11,20,Ticks_Linear_8,195,1,48,51,3025821224
28,11,20,Ticks_Linear_8,196,5,42,127,3026404752
28,11,20,Ticks_Linear_8,197,1,48,39,3026451828
28,11,20,Ticks_Linear_8,198,5,42,127,3027034780
28,11,20,Ticks_Linear_8,199,1,48,49,3027059616
28,11,20,Ticks_Linear_8,200,1,48,50,3027642504
28,11,20,Ticks_Linear_8,201,5,42,127,3027665228
28,11,20,Ticks_Linear_8,202,1,48,44,3028247940
28,11,20,Ticks_Linear_8,203,5,42,127,3028284748
28,11,20,Ticks_Linear_8,204,1,48,43,3028903604
28,11,20,Ticks_Linear_8,205,5,42,127,3028905192
28,11,20,Ticks_Linear_8,206,1,48,58,3029514788
28,11,20,Ticks_Linear_8,207,5,42,127,3029524788
28,11,20,Ticks_Linear_8,208,5,42,127,3030145760
28,11,20,Ticks_Linear_8,209,1,48,49,3030164836
28,11,20,Ticks_Linear_8,210,1,48,40,3030747036
28,11,20,Ticks_Linear_8,211,5,42,127,3030764828
28,11,20,Ticks_Linear_8,212,1,48,51,3031369028
28,11,20,Ticks_Linear_8,213,5,42,127,3031375656
28,11,20,Ticks_Linear_8,214,1,48,51,3031981156
28,11,20,Ticks_Linear_8,215,5,42,127,3031984420
28,11,20,Ticks_Linear_8,216,1,48,51,3032587352
28,11,20,Ticks_Linear_8,217,5,42,127,3032594876
28,11,20,Ticks_Linear_8,218,1,48,14,3033193492
28,11,20,Ticks_Linear_8,219,5,42,127,3033204984
28,11,20,Ticks_Linear_8,220,1,38,13,3033205952
28,11,20,Ticks_Linear_8,221,5,42,127,3033815416
28,11,20,Ticks_Linear_8,222,1,48,51,3033818464
28,11,20,Ticks_Linear_8,223,5,42,127,3034414568
28,11,20,Ticks_Linear_8,224,1,48,48,3034435360
28,11,20,Ticks_Linear_8,225,1,48,31,3034998492
28,11,20,Ticks_Linear_8,226,1,38,13,3035010452
28,11,20,Ticks_Linear_8,227,5,42,127,3035014464
28,11,20,Ticks_Linear_8,228,1,48,55,3035605308
28,11,20,Ticks_Linear_8,229,5,42,127,3035614560
28,11,20,Ticks_Linear_8,230,5,42,127,3036214540
28,11,20,Ticks_Linear_8,231,1,48,35,3036278640
28,11,20,Ticks_Linear_8,232,5,42,127,3036814616
28,11,20,Ticks_Linear_8,233,1,48,47,3036853684
28,11,20,Ticks_Linear_8,234,1,48,45,3037404776
28,11,20,Ticks_Linear_8,235,5,42,127,3037406268
28,11,20,Ticks_Linear_8,236,1,48,50,3037990472
28,11,20,Ticks_Linear_8,237,5,42,127,3037995384
28,11,20,Ticks_Linear_8,238,5,42,127,3038585356
28,11,20,Ticks_Linear_8,239,1,48,59,3038587652
28,11,20,Ticks_Linear_8,240,5,42,127,3039175144
28,11,20,Ticks_Linear_8,241,1,48,46,3039205752
28,11,20,Ticks_Linear_8,242,1,48,46,3039755976
28,11,20,Ticks_Linear_8,243,5,42,127,3039765004
28,11,20,Ticks_Linear_8,244,1,48,47,3040330484
28,11,20,Ticks_Linear_8,245,5,42,127,3040344384
28,11,20,Ticks_Linear_8,246,1,48,39,3040924844
28,11,20,Ticks_Linear_8,247,5,42,127,3040926404
28,11,20,Ticks_Linear_8,248,5,42,127,3041504748
28,11,20,Ticks_Linear_8,249,1,48,52,3041544492
28,11,20,Ticks_Linear_8,250,5,42,127,3042085324
28,11,20,Ticks_Linear_8,251,1,48,51,3042102296
28,11,20,Ticks_Linear_8,252,1,48,39,3042661828
28,11,20,Ticks_Linear_8,253,5,42,127,3042665096
28,11,20,Ticks_Linear_8,254,5,42,127,3043235048
28,11,20,Ticks_Linear_8,255,1,48,49,3043251420
28,11,20,Ticks_Linear_8,256,5,42,127,3043804396
28,11,20,Ticks_Linear_8,257,1,48,17,3043818072
28,11,20,Ticks_Linear_8,258,1,38,14,3043830108
28,11,20,Ticks_Linear_8,259,5,42,127,3044374960
28,11,20,Ticks_Linear_8,260,1,48,55,3044386024
28,11,20,Ticks_Linear_8,261,1,48,50,3044920740
28,11,20,Ticks_Linear_8,262,5,42,127,3044945420
28,11,20,Ticks_Linear_8,263,1,48,40,3045501940
28,11,20,Ticks_Linear_8,264,5,42,127,3045514572
28,11,20,Ticks_Linear_8,265,5,42,127,3046074860
28,11,20,Ticks_Linear_8,266,1,48,38,3046099548
28,11,20,Ticks_Linear_8,267,5,42,127,3046634844
28,11,20,Ticks_Linear_8,268,1,48,54,3046647856
28,11,20,Ticks_Linear_8,269,1,48,43,3047171636
28,11,20,Ticks_Linear_8,270,5,42,127,3047195124
28,11,20,Ticks_Linear_8,271,5,42,127,3047755040
28,11,20,Ticks_Linear_8,272,1,48,43,3047774060
28,11,20,Ticks_Linear_8,273,5,42,127,3048315196
28,11,20,Ticks_Linear_8,274,1,48,50,3048321532
28,11,20,Ticks_Linear_8,275,5,42,127,3048865072
28,11,20,Ticks_Linear_8,276,1,48,51,3048880920
28,11,20,Ticks_Linear_8,277,5,42,127,3049415096
28,11,20,Ticks_Linear_8,278,1,48,49,3049422856
28,11,20,Ticks_Linear_8,279,5,42,127,3049964896
28,11,20,Ticks_Linear_8,280,1,48,40,3049975508
28,11,20,Ticks_Linear_8,281,5,42,127,3050514772
28,11,20,Ticks_Linear_8,282,1,48,58,3050528004
28,11,20,Ticks_Linear_8,283,1,48,50,3051060776
28,11,20,Ticks_Linear_8,284,5,42,127,3051064568
28,11,20,Ticks_Linear_8,285,5,42,127,3051605532
28,11,20,Ticks_Linear_8,286,1,48,42,3051630696
28,11,20,Ticks_Linear_8,287,1,48,52,3052142200
28,11,20,Ticks_Linear_8,288,5,42,127,3052144872
28,11,20,Ticks_Linear_8,289,1,48,50,3052663480
28,11,20,Ticks_Linear_8,290,5,42,127,3052684560
28,11,20,Ticks_Linear_8,291,1,48,43,3053225008
28,11,20,Ticks_Linear_8,292,5,42,127,3053226720
28,11,20,Ticks_Linear_8,293,1,48,52,3053762804
28,11,20,Ticks_Linear_8,294,5,42,127,3053764916
28,11,20,Ticks_Linear_8,295,1,48,42,3054270412
28,11,20,Ticks_Linear_8,296,5,42,127,3054295468
28,11,20,Ticks_Linear_8,297,1,48,52,3054821256
28,11,20,Ticks_Linear_8,298,5,42,127,3054824976
28,11,20,Ticks_Linear_8,299,5,42,127,3055355384
28,11,20,Ticks_Linear_8,300,1,48,41,3055372592
28,11,20,Ticks_Linear_8,301,5,42,127,3055884664
28,11,20,Ticks_Linear_8,302,1,48,52,3055896468
28,11,20,Ticks_Linear_8,303,1,48,53,3056410220
28,11,20,Ticks_Linear_8,304,5,42,127,3056415432
28,11,20,Ticks_Linear_8,305,1,48,43,3056929848
28,11,20,Ticks_Linear_8,306,5,42,127,3056935280
28,11,20,Ticks_Linear_8,307,1,48,48,3057408800
28,11,20,Ticks_Linear_8,308,5,42,127,3057454452
28,11,20,Ticks_Linear_8,309,1,48,50,3057946096
28,11,20,Ticks_Linear_8,310,5,42,127,3057974744
28,11,20,Ticks_Linear_8,311,5,42,127,3058494896
28,11,20,Ticks_Linear_8,312,1,48,51,3058505284
28,11,20,Ticks_Linear_8,313,5,42,127,3059014968
28,11,20,Ticks_Linear_8,314,1,48,54,3059066488
28,11,20,Ticks_Linear_8,315,5,42,127,3059524852
28,11,20,Ticks_Linear_8,316,1,48,49,3059544328
28,11,20,Ticks_Linear_8,317,5,42,127,3060035108
28,11,20,Ticks_Linear_8,318,1,48,47,3060040776
28,11,20,Ticks_Linear_8,319,5,42,127,3060544844
28,11,20,Ticks_Linear_8,320,1,48,44,3060564072
28,11,20,Ticks_Linear_8,321,1,48,37,3061022620
28,11,20,Ticks_Linear_8,322,5,42,127,3061054724
28,11,20,Ticks_Linear_8,323,1,48,33,3061523684
28,11,20,Ticks_Linear_8,324,5,42,127,3061564760
28,11,20,Ticks_Linear_8,325,1,48,48,3062035888
28,11,20,Ticks_Linear_8,326,5,42,127,3062064460
28,11,20,Ticks_Linear_8,327,1,48,52,3062541268
28,11,20,Ticks_Linear_8,328,5,42,127,3062565132
28,11,20,Ticks_Linear_8,329,5,42,127,3063065060
28,11,20,Ticks_Linear_8,330,1,48,25,3063090200
28,11,20,Ticks_Linear_8,331,1,48,40,3063549360
28,11,20,Ticks_Linear_8,332,5,42,127,3063564604
28,11,20,Ticks_Linear_8,333,1,48,42,3064041416
28,11,20,Ticks_Linear_8,334,5,42,127,3064065352
28,11,20,Ticks_Linear_8,335,1,48,40,3064552680
28,11,20,Ticks_Linear_8,336,5,42,127,3064555092
28,11,20,Ticks_Linear_8,337,5,42,127,3065045436
28,11,20,Ticks_Linear_8,338,1,48,43,3065050724
28,11,20,Ticks_Linear_8,339,5,42,127,3065535248
28,11,20,Ticks_Linear_8,340,1,48,24,3065544216
28,11,20,Ticks_Linear_8,341,1,48,46,3065973052
28,11,20,Ticks_Linear_8,342,5,42,127,3066025284
28,11,20,Ticks_Linear_8,343,1,48,40,3066478740
28,11,20,Ticks_Linear_8,344,5,42,127,3066515100
28,11,20,Ticks_Linear_8,0,9999,9999,9999,2955982940
28,11,20,Ticks_Linear_8,1,9999,9999,9999,2956802156
28,11,20,Ticks_Linear_8,2,9999,9999,9999,2957622340
28,11,20,Ticks_Linear_8,3,9999,9999,9999,2958442604
28,11,20,Ticks_Linear_8,4,9999,9999,9999,2959262772
28,11,20,Ticks_Linear_8,5,9999,9999,9999,2960072756
28,11,20,Ticks_Linear_8,6,9999,9999,9999,2960882812
28,11,20,Ticks_Linear_8,7,9999,9999,9999,2961692760
28,11,20,Ticks_Linear_8,8,9999,9999,9999,2962502780
28,11,20,Ticks_Linear_8,9,9999,9999,9999,2963312712
28,11,20,Ticks_Linear_8,10,9999,9999,9999,2964112436
28,11,20,Ticks_Linear_8,11,9999,9999,9999,2964912236
28,11,20,Ticks_Linear_8,12,9999,9999,9999,2965713008
28,11,20,Ticks_Linear_8,13,9999,9999,9999,2966512732
28,11,20,Ticks_Linear_8,14,9999,9999,9999,2967312508
28,11,20,Ticks_Linear_8,15,9999,9999,9999,2968102996
28,11,20,Ticks_Linear_8,16,9999,9999,9999,2968892532
28,11,20,Ticks_Linear_8,17,9999,9999,9999,2969683048
28,11,20,Ticks_Linear_8,18,9999,9999,9999,2970472536
28,11,20,Ticks_Linear_8,19,9999,9999,9999,2971263048
28,11,20,Ticks_Linear_8,20,9999,9999,9999,2972042332
28,11,20,Ticks_Linear_8,21,9999,9999,9999,2972822584
28,11,20,Ticks_Linear_8,22,9999,9999,9999,2973602920
28,11,20,Ticks_Linear_8,23,9999,9999,9999,2974382144
28,11,20,Ticks_Linear_8,24,9999,9999,9999,2975162472
28,11,20,Ticks_Linear_8,25,9999,9999,9999,2975932540
28,11,20,Ticks_Linear_8,26,9999,9999,9999,2976702536
28,11,20,Ticks_Linear_8,27,9999,9999,9999,2977472604
28,11,20,Ticks_Linear_8,28,9999,9999,9999,2978242676
28,11,20,Ticks_Linear_8,29,9999,9999,9999,2979012672
28,11,20,Ticks_Linear_8,30,9999,9999,9999,2979772480
28,11,20,Ticks_Linear_8,31,9999,9999,9999,2980532284
28,11,20,Ticks_Linear_8,32,9999,9999,9999,2981292092
28,11,20,Ticks_Linear_8,33,9999,9999,9999,2982052952
28,11,20,Ticks_Linear_8,34,9999,9999,9999,2982812756
28,11,20,Ticks_Linear_8,35,9999,9999,9999,2983562312
28,11,20,Ticks_Linear_8,36,9999,9999,9999,2984312908
28,11,20,Ticks_Linear_8,37,9999,9999,9999,2985062460
28,11,20,Ticks_Linear_8,38,9999,9999,9999,2985813052
28,11,20,Ticks_Linear_8,39,9999,9999,9999,2986562660
28,11,20,Ticks_Linear_8,40,9999,9999,9999,2987302996
28,11,20,Ticks_Linear_8,41,9999,9999,9999,2988042360
28,11,20,Ticks_Linear_8,42,9999,9999,9999,2988782696
28,11,20,Ticks_Linear_8,43,9999,9999,9999,2989523036
28,11,20,Ticks_Linear_8,44,9999,9999,9999,2990262392
28,11,20,Ticks_Linear_8,45,9999,9999,9999,2990992480
28,11,20,Ticks_Linear_8,46,9999,9999,9999,2991722556
28,11,20,Ticks_Linear_8,47,9999,9999,9999,2992452684
28,11,20,Ticks_Linear_8,48,9999,9999,9999,2993182832
28,11,20,Ticks_Linear_8,49,9999,9999,9999,2993912908
28,11,20,Ticks_Linear_8,50,9999,9999,9999,2994632808
28,11,20,Ticks_Linear_8,51,9999,9999,9999,2995352696
28,11,20,Ticks_Linear_8,52,9999,9999,9999,2996072516
28,11,20,Ticks_Linear_8,53,9999,9999,9999,2996792388
28,11,20,Ticks_Linear_8,54,9999,9999,9999,2997512284
28,11,20,Ticks_Linear_8,55,9999,9999,9999,2998222964
28,11,20,Ticks_Linear_8,56,9999,9999,9999,2998932592
28,11,20,Ticks_Linear_8,57,9999,9999,9999,2999642208
28,11,20,Ticks_Linear_8,58,9999,9999,9999,3000352884
28,11,20,Ticks_Linear_8,59,9999,9999,9999,3001062516
28,11,20,Ticks_Linear_8,60,9999,9999,9999,3001762940
28,11,20,Ticks_Linear_8,61,9999,9999,9999,3002462324
28,11,20,Ticks_Linear_8,62,9999,9999,9999,3003162712
28,11,20,Ticks_Linear_8,63,9999,9999,9999,3003862088
28,11,20,Ticks_Linear_8,64,9999,9999,9999,3004562512
28,11,20,Ticks_Linear_8,65,9999,9999,9999,3005252732
28,11,20,Ticks_Linear_8,66,9999,9999,9999,3005942888
28,11,20,Ticks_Linear_8,67,9999,9999,9999,3006633048
28,11,20,Ticks_Linear_8,68,9999,9999,9999,3007322224
28,11,20,Ticks_Linear_8,69,9999,9999,9999,3008012388
28,11,20,Ticks_Linear_8,70,9999,9999,9999,3008692284
28,11,20,Ticks_Linear_8,71,9999,9999,9999,3009372268
28,11,20,Ticks_Linear_8,72,9999,9999,9999,3010052216
28,11,20,Ticks_Linear_8,73,9999,9999,9999,3010732120
28,11,20,Ticks_Linear_8,74,9999,9999,9999,3011413048
28,11,20,Ticks_Linear_8,75,9999,9999,9999,3012082776
28,11,20,Ticks_Linear_8,76,9999,9999,9999,3012752444
28,11,20,Ticks_Linear_8,77,9999,9999,9999,3013422136
28,11,20,Ticks_Linear_8,78,9999,9999,9999,3014092904
28,11,20,Ticks_Linear_8,79,9999,9999,9999,3014762620
28,11,20,Ticks_Linear_8,80,9999,9999,9999,3015423036
28,11,20,Ticks_Linear_8,81,9999,9999,9999,3016082500
28,11,20,Ticks_Linear_8,82,9999,9999,9999,3016742976
28,11,20,Ticks_Linear_8,83,9999,9999,9999,3017402436
28,11,20,Ticks_Linear_8,84,9999,9999,9999,3018062916
28,11,20,Ticks_Linear_8,85,9999,9999,9999,3018712124
28,11,20,Ticks_Linear_8,86,9999,9999,9999,3019362372
28,11,20,Ticks_Linear_8,87,9999,9999,9999,3020012672
28,11,20,Ticks_Linear_8,88,9999,9999,9999,3020662840
28,11,20,Ticks_Linear_8,89,9999,9999,9999,3021312088
28,11,20,Ticks_Linear_8,90,9999,9999,9999,3021952080
28,11,20,Ticks_Linear_8,91,9999,9999,9999,3022592124
28,11,20,Ticks_Linear_8,92,9999,9999,9999,3023232108
28,11,20,Ticks_Linear_8,93,9999,9999,9999,3023872076
28,11,20,Ticks_Linear_8,94,9999,9999,9999,3024512068
28,11,20,Ticks_Linear_8,95,9999,9999,9999,3025142868
28,11,20,Ticks_Linear_8,96,9999,9999,9999,3025772600
28,11,20,Ticks_Linear_8,97,9999,9999,9999,3026402380
28,11,20,Ticks_Linear_8,98,9999,9999,9999,3027032160
28,11,20,Ticks_Linear_8,99,9999,9999,9999,3027662932
28,11,20,Ticks_Linear_8,100,9999,9999,9999,3028282452
28,11,20,Ticks_Linear_8,101,9999,9999,9999,3028902980
28,11,20,Ticks_Linear_8,102,9999,9999,9999,3029522488
28,11,20,Ticks_Linear_8,103,9999,9999,9999,3030143088
28,11,20,Ticks_Linear_8,104,9999,9999,9999,3030762600
28,11,20,Ticks_Linear_8,105,9999,9999,9999,3031372908
28,11,20,Ticks_Linear_8,106,9999,9999,9999,3031982196
28,11,20,Ticks_Linear_8,107,9999,9999,9999,3032592504
28,11,20,Ticks_Linear_8,108,9999,9999,9999,3033202760
28,11,20,Ticks_Linear_8,109,9999,9999,9999,3033813116
28,11,20,Ticks_Linear_8,110,9999,9999,9999,3034412120
28,11,20,Ticks_Linear_8,111,9999,9999,9999,3035012168
28,11,20,Ticks_Linear_8,112,9999,9999,9999,3035612260
28,11,20,Ticks_Linear_8,113,9999,9999,9999,3036212316
28,11,20,Ticks_Linear_8,114,9999,9999,9999,3036812388
28,11,20,Ticks_Linear_8,115,9999,9999,9999,3037402180
28,11,20,Ticks_Linear_8,116,9999,9999,9999,3037993084
28,11,20,Ticks_Linear_8,117,9999,9999,9999,3038582908
28,11,20,Ticks_Linear_8,118,9999,9999,9999,3039172696
28,11,20,Ticks_Linear_8,119,9999,9999,9999,3039762556
28,11,20,Ticks_Linear_8,120,9999,9999,9999,3040342088
28,11,20,Ticks_Linear_8,121,9999,9999,9999,3040922696
28,11,20,Ticks_Linear_8,122,9999,9999,9999,3041502300
28,11,20,Ticks_Linear_8,123,9999,9999,9999,3042082876
28,11,20,Ticks_Linear_8,124,9999,9999,9999,3042662500
28,11,20,Ticks_Linear_8,125,9999,9999,9999,3043232824
28,11,20,Ticks_Linear_8,126,9999,9999,9999,3043802172
28,11,20,Ticks_Linear_8,127,9999,9999,9999,3044372588
28,11,20,Ticks_Linear_8,128,9999,9999,9999,3044942972
28,11,20,Ticks_Linear_8,129,9999,9999,9999,3045512272
28,11,20,Ticks_Linear_8,130,9999,9999,9999,3046072412
28,11,20,Ticks_Linear_8,131,9999,9999,9999,3046632544
28,11,20,Ticks_Linear_8,132,9999,9999,9999,3047192676
28,11,20,Ticks_Linear_8,133,9999,9999,9999,3047752816
28,11,20,Ticks_Linear_8,134,9999,9999,9999,3048312896
28,11,20,Ticks_Linear_8,135,9999,9999,9999,3048862776
28,11,20,Ticks_Linear_8,136,9999,9999,9999,3049412724
28,11,20,Ticks_Linear_8,137,9999,9999,9999,3049962596
28,11,20,Ticks_Linear_8,138,9999,9999,9999,3050512472
28,11,20,Ticks_Linear_8,139,9999,9999,9999,3051062344
28,11,20,Ticks_Linear_8,140,9999,9999,9999,3051603012
28,11,20,Ticks_Linear_8,141,9999,9999,9999,3052142648
28,11,20,Ticks_Linear_8,142,9999,9999,9999,3052682336
28,11,20,Ticks_Linear_8,143,9999,9999,9999,3053223008
28,11,20,Ticks_Linear_8,144,9999,9999,9999,3053762656
28,11,20,Ticks_Linear_8,145,9999,9999,9999,3054293096
28,11,20,Ticks_Linear_8,146,9999,9999,9999,3054822528
28,11,20,Ticks_Linear_8,147,9999,9999,9999,3055352936
28,11,20,Ticks_Linear_8,148,9999,9999,9999,3055882368
28,11,20,Ticks_Linear_8,149,9999,9999,9999,3056412760
28,11,20,Ticks_Linear_8,150,9999,9999,9999,3056932980
28,11,20,Ticks_Linear_8,151,9999,9999,9999,3057452152
28,11,20,Ticks_Linear_8,152,9999,9999,9999,3057972296
28,11,20,Ticks_Linear_8,153,9999,9999,9999,3058492524
28,11,20,Ticks_Linear_8,154,9999,9999,9999,3059012668
28,11,20,Ticks_Linear_8,155,9999,9999,9999,3059522628
28,11,20,Ticks_Linear_8,156,9999,9999,9999,3060032588
28,11,20,Ticks_Linear_8,157,9999,9999,9999,3060542548
28,11,20,Ticks_Linear_8,158,9999,9999,9999,3061052500
28,11,20,Ticks_Linear_8,159,9999,9999,9999,3061562460
28,11,20,Ticks_Linear_8,160,9999,9999,9999,3062062160
28,11,20,Ticks_Linear_8,161,9999,9999,9999,3062562908
28,11,20,Ticks_Linear_8,162,9999,9999,9999,3063062616
28,11,20,Ticks_Linear_8,163,9999,9999,9999,3063562308
28,11,20,Ticks_Linear_8,164,9999,9999,9999,3064063052
28,11,20,Ticks_Linear_8,165,9999,9999,9999,3064552536
28,11,20,Ticks_Linear_8,166,9999,9999,9999,3065043064
28,11,20,Ticks_Linear_8,167,9999,9999,9999,3065532504
28,11,20,Ticks_Linear_8,168,9999,9999,9999,3066022984
28,11,20,Ticks_Linear_8,169,9999,9999,9999,3066512504
28,12,25,Jits_Pract_5,0,5,56,103,3135577424
28,12,25,Jits_Pract_5,1,5,63,98,3135580516
28,12,25,Jits_Pract_5,2,5,80,127,3135583792
28,12,25,Jits_Pract_5,0,5,56,103,3136078172
28,12,25,Jits_Pract_5,1,5,63,98,3136081268
28,12,25,Jits_Pract_5,2,5,80,127,3136084464
28,12,25,Jits_Pract_5,0,5,56,103,3136577816
28,12,25,Jits_Pract_5,1,5,80,127,3136588084
28,12,25,Jits_Pract_5,2,5,63,98,3136607672
28,12,25,Jits_Pract_5,0,5,63,98,3137027364
28,12,25,Jits_Pract_5,1,5,80,127,3137058012
28,12,25,Jits_Pract_5,2,5,56,103,3137068284
28,12,25,Jits_Pract_5,0,1,48,35,3137535732
28,12,25,Jits_Pract_5,1,5,80,127,3137587692
28,12,25,Jits_Pract_5,2,5,56,103,3137597740
28,12,25,Jits_Pract_5,3,5,63,98,3137628620
28,12,25,Jits_Pract_5,0,5,63,98,3138078108
28,12,25,Jits_Pract_5,1,5,56,103,3138107860
28,12,25,Jits_Pract_5,2,5,80,127,3138117980
28,12,25,Jits_Pract_5,3,1,48,20,3138140152
28,12,25,Jits_Pract_5,0,5,56,103,3138527684
28,12,25,Jits_Pract_5,1,5,63,98,3138577816
28,12,25,Jits_Pract_5,2,5,80,127,3138598124
28,12,25,Jits_Pract_5,3,1,48,26,3138623564
28,12,25,Jits_Pract_5,0,5,80,127,3139028516
28,12,25,Jits_Pract_5,1,1,48,29,3139055772
28,12,25,Jits_Pract_5,2,5,63,98,3139077664
28,12,25,Jits_Pract_5,3,5,56,103,3139117452
28,12,25,Jits_Pract_5,0,5,56,103,3139528072
28,12,25,Jits_Pract_5,1,1,48,32,3139555156
28,12,25,Jits_Pract_5,2,5,63,98,3139557816
28,12,25,Jits_Pract_5,3,5,80,127,3139628616
28,12,25,Jits_Pract_5,0,1,48,38,3140026340
28,12,25,Jits_Pract_5,1,5,56,103,3140027996
28,12,25,Jits_Pract_5,2,5,80,127,3140088168
28,12,25,Jits_Pract_5,3,5,63,98,3140117768
28,12,25,Jits_Pract_5,0,5,56,103,3140537740
28,12,25,Jits_Pract_5,1,5,63,98,3140547936
28,12,25,Jits_Pract_5,2,5,80,127,3140587872
28,12,25,Jits_Pract_5,3,1,48,42,3140600728
28,12,25,Jits_Pract_5,0,5,63,98,3141028228
28,12,25,Jits_Pract_5,1,1,48,35,3141089708
28,12,25,Jits_Pract_5,2,5,80,127,3141108020
28,12,25,Jits_Pract_5,3,5,56,103,3141118288
28,12,25,Jits_Pract_5,0,1,48,45,3141577972
28,12,25,Jits_Pract_5,1,5,63,98,3141579532
28,12,25,Jits_Pract_5,2,5,56,103,3141617976
28,12,25,Jits_Pract_5,3,5,80,127,3141621416
28,12,25,Jits_Pract_5,0,5,56,103,3142037728
28,12,25,Jits_Pract_5,1,5,63,98,3142048000
28,12,25,Jits_Pract_5,2,1,48,38,3142083780
28,12,25,Jits_Pract_5,3,5,80,127,3142087932
28,12,25,Jits_Pract_5,0,5,56,103,3142528516
28,12,25,Jits_Pract_5,1,5,63,98,3142531360
28,12,25,Jits_Pract_5,2,5,80,127,3142547780
28,12,25,Jits_Pract_5,3,1,48,32,3142565272
28,12,25,Jits_Pract_5,0,9999,9999,9999,3135825980
28,12,25,Jits_Pract_5,1,9999,9999,9999,3136325732
28,12,25,Jits_Pract_5,2,9999,9999,9999,3136825404
28,12,25,Jits_Pract_5,3,9999,9999,9999,3137325144
28,12,25,Jits_Pract_5,4,9999,9999,9999,3137825904
28,12,25,Jits_Pract_5,5,9999,9999,9999,3138325604
28,12,25,Jits_Pract_5,6,9999,9999,9999,3138825300
28,12,25,Jits_Pract_5,7,9999,9999,9999,3139326052
28,12,25,Jits_Pract_5,8,9999,9999,9999,3139825760
28,12,25,Jits_Pract_5,9,9999,9999,9999,3140325472
28,12,25,Jits_Pract_5,10,9999,9999,9999,3140825160
28,12,25,Jits_Pract_5,11,9999,9999,9999,3141325916
28,12,25,Jits_Pract_5,12,9999,9999,9999,3141825604
28,12,25,Jits_Pract_5,13,9999,9999,9999,3142325300
28,12,25,Jits_Pract_5,14,9999,9999,9999,3142826044
28,13,24,Jits_Pract_8,0,5,56,103,3150206280
28,13,24,Jits_Pract_8,1,5,63,98,3150209376
28,13,24,Jits_Pract_8,2,5,80,127,3150212500
28,13,24,Jits_Pract_8,0,5,56,103,3151006148
28,13,24,Jits_Pract_8,1,5,63,98,3151009248
28,13,24,Jits_Pract_8,2,5,80,127,3151012516
28,13,24,Jits_Pract_8,0,5,80,127,3151746468
28,13,24,Jits_Pract_8,1,1,48,28,3151770712
28,13,24,Jits_Pract_8,2,5,63,98,3151835544
28,13,24,Jits_Pract_8,3,5,56,103,3151846040
28,13,24,Jits_Pract_8,0,5,56,103,3152565564
28,13,24,Jits_Pract_8,1,5,63,98,3152575984
28,13,24,Jits_Pract_8,2,1,48,29,3152603220
28,13,24,Jits_Pract_8,3,5,80,127,3152666108
28,13,24,Jits_Pract_8,0,5,63,98,3153335516
28,13,24,Jits_Pract_8,1,1,48,38,3153366760
28,13,24,Jits_Pract_8,2,5,80,127,3153368176
28,13,24,Jits_Pract_8,3,5,56,103,3153396204
28,13,24,Jits_Pract_8,0,1,48,47,3154086164
28,13,24,Jits_Pract_8,1,5,56,103,3154136312
28,13,24,Jits_Pract_8,2,5,80,127,3154235868
28,13,24,Jits_Pract_8,3,5,63,98,3154286092
28,13,24,Jits_Pract_8,0,5,56,103,3154936148
28,13,24,Jits_Pract_8,1,5,80,127,3154986276
28,13,24,Jits_Pract_8,2,5,63,98,3155026240
28,13,24,Jits_Pract_8,3,1,48,31,3155119400
28,13,24,Jits_Pract_8,0,5,80,127,3155765512
28,13,24,Jits_Pract_8,1,5,63,98,3155796260
28,13,24,Jits_Pract_8,2,5,56,103,3155866088
28,13,24,Jits_Pract_8,3,1,48,44,3156024880
28,13,24,Jits_Pract_8,0,5,63,98,3156596104
28,13,24,Jits_Pract_8,1,5,56,103,3156625852
28,13,24,Jits_Pract_8,2,5,80,127,3156686168
28,13,24,Jits_Pract_8,3,1,48,49,3156853284
28,13,24,Jits_Pract_8,0,5,56,103,3157336448
28,13,24,Jits_Pract_8,1,5,80,127,3157339364
28,13,24,Jits_Pract_8,2,5,63,98,3157456244
28,13,24,Jits_Pract_8,3,1,48,39,3157600596
28,13,24,Jits_Pract_8,0,5,56,103,3158216000
28,13,24,Jits_Pract_8,1,5,80,127,3158255864
28,13,24,Jits_Pract_8,2,5,63,98,3158266356
28,13,24,Jits_Pract_8,3,1,48,27,3158332848
28,13,24,Jits_Pract_8,0,5,56,103,3158975836
28,13,24,Jits_Pract_8,1,5,80,127,3158996296
28,13,24,Jits_Pract_8,2,1,48,44,3159044376
28,13,24,Jits_Pract_8,3,5,63,98,3159076084
28,13,24,Jits_Pract_8,0,5,80,127,3159766248
28,13,24,Jits_Pract_8,1,1,48,47,3159826908
28,13,24,Jits_Pract_8,2,5,56,103,3159865740
28,13,24,Jits_Pract_8,3,5,63,98,3159875936
28,13,24,Jits_Pract_8,0,5,63,98,3160536652
28,13,24,Jits_Pract_8,1,5,80,127,3160595776
28,13,24,Jits_Pract_8,2,5,56,103,3160606192
28,13,24,Jits_Pract_8,3,1,48,43,3160631180
28,13,24,Jits_Pract_8,0,1,48,48,3161334828
28,13,24,Jits_Pract_8,1,5,56,103,3161336620
28,13,24,Jits_Pract_8,2,5,63,98,3161405856
28,13,24,Jits_Pract_8,3,5,80,127,3161409144
28,13,24,Jits_Pract_8,0,9999,9999,9999,3150603316
28,13,24,Jits_Pract_8,1,9999,9999,9999,3151403104
28,13,24,Jits_Pract_8,2,9999,9999,9999,3152203868
28,13,24,Jits_Pract_8,3,9999,9999,9999,3153003584
28,13,24,Jits_Pract_8,4,9999,9999,9999,3153803348
28,13,24,Jits_Pract_8,5,9999,9999,9999,3154603112
28,13,24,Jits_Pract_8,6,9999,9999,9999,3155403832
28,13,24,Jits_Pract_8,7,9999,9999,9999,3156203608
28,13,24,Jits_Pract_8,8,9999,9999,9999,3157003384
28,13,24,Jits_Pract_8,9,9999,9999,9999,3157803128
28,13,24,Jits_Pract_8,10,9999,9999,9999,3158603876
28,13,24,Jits_Pract_8,11,9999,9999,9999,3159403596
28,13,24,Jits_Pract_8,12,9999,9999,9999,3160203372
28,13,24,Jits_Pract_8,13,9999,9999,9999,3161003068
28,13,24,Jits_Pract_8,14,9999,9999,9999,3161803860
28,14,16,Jits_ISO_5,0,5,56,103,3209338144
28,14,16,Jits_ISO_5,1,5,63,98,3209341312
28,14,16,Jits_ISO_5,2,5,80,127,3209344512
28,14,16,Jits_ISO_5,0,5,56,103,3209837784
28,14,16,Jits_ISO_5,1,5,63,98,3209840884
28,14,16,Jits_ISO_5,2,5,80,127,3209844008
28,14,16,Jits_ISO_5,0,5,56,103,3210337752
28,14,16,Jits_ISO_5,1,5,80,127,3210347876
28,14,16,Jits_ISO_5,2,5,63,98,3210368556
28,14,16,Jits_ISO_5,0,5,63,98,3210788392
28,14,16,Jits_ISO_5,1,5,80,127,3210817844
28,14,16,Jits_ISO_5,2,5,56,103,3210828364
28,14,16,Jits_ISO_5,0,1,48,37,3211286360
28,14,16,Jits_ISO_5,1,5,80,127,3211348592
28,14,16,Jits_ISO_5,2,5,56,103,3211357592
28,14,16,Jits_ISO_5,3,5,63,98,3211388668
28,14,16,Jits_ISO_5,0,1,48,41,3211835700
28,14,16,Jits_ISO_5,1,5,63,98,3211837744
28,14,16,Jits_ISO_5,2,5,56,103,3211867592
28,14,16,Jits_ISO_5,3,5,80,127,3211877788
28,14,16,Jits_ISO_5,0,5,56,103,3212288636
28,14,16,Jits_ISO_5,1,5,63,98,3212337492
28,14,16,Jits_ISO_5,2,1,48,39,3212349452
28,14,16,Jits_ISO_5,3,5,80,127,3212357940
28,14,16,Jits_ISO_5,0,5,80,127,3212788008
28,14,16,Jits_ISO_5,1,1,48,44,3212820192
28,14,16,Jits_ISO_5,2,5,63,98,3212838352
28,14,16,Jits_ISO_5,3,5,56,103,3212878384
28,14,16,Jits_ISO_5,0,5,56,103,3213287756
28,14,16,Jits_ISO_5,1,5,63,98,3213317580
28,14,16,Jits_ISO_5,2,1,48,48,3213329764
28,14,16,Jits_ISO_5,3,5,80,127,3213388248
28,14,16,Jits_ISO_5,0,5,56,103,3213787504
28,14,16,Jits_ISO_5,1,1,48,50,3213792568
28,14,16,Jits_ISO_5,2,5,80,127,3213847884
28,14,16,Jits_ISO_5,3,5,63,98,3213877560
28,14,16,Jits_ISO_5,0,5,56,103,3214297368
28,14,16,Jits_ISO_5,1,5,63,98,3214307636
28,14,16,Jits_ISO_5,2,1,48,41,3214322288
28,14,16,Jits_ISO_5,3,5,80,127,3214347492
28,14,16,Jits_ISO_5,0,5,63,98,3214787820
28,14,16,Jits_ISO_5,1,1,48,48,3214794600
28,14,16,Jits_ISO_5,2,5,80,127,3214867832
28,14,16,Jits_ISO_5,3,5,56,103,3214878176
28,14,16,Jits_ISO_5,0,1,48,41,3215320408
28,14,16,Jits_ISO_5,1,5,63,98,3215337744
28,14,16,Jits_ISO_5,2,5,56,103,3215377828
28,14,16,Jits_ISO_5,3,5,80,127,3215380820
28,14,16,Jits_ISO_5,0,5,56,103,3215797476
28,14,16,Jits_ISO_5,1,5,63,98,3215807744
28,14,16,Jits_ISO_5,2,1,48,49,3215830860
28,14,16,Jits_ISO_5,3,5,80,127,3215847748
28,14,16,Jits_ISO_5,0,1,48,44,3216292160
28,14,16,Jits_ISO_5,1,5,56,103,3216298404
28,14,16,Jits_ISO_5,2,5,63,98,3216301324
28,14,16,Jits_ISO_5,3,5,80,127,3216317740
28,14,16,Jits_ISO_5,0,1,48,40,3216772696
28,14,16,Jits_ISO_5,1,5,80,127,3216808240
28,14,16,Jits_ISO_5,2,5,56,103,3216817536
28,14,16,Jits_ISO_5,3,5,63,98,3216888172
28,14,16,Jits_ISO_5,0,1,48,43,3217266668
28,14,16,Jits_ISO_5,1,5,63,98,3217297708
28,14,16,Jits_ISO_5,2,5,56,103,3217318316
28,14,16,Jits_ISO_5,3,5,80,127,3217398092
28,14,16,Jits_ISO_5,0,1,48,40,3217770064
28,14,16,Jits_ISO_5,1,5,56,103,3217807632
28,14,16,Jits_ISO_5,2,5,80,127,3217847568
28,14,16,Jits_ISO_5,3,5,63,98,3217857764
28,14,16,Jits_ISO_5,0,1,48,42,3218294216
28,14,16,Jits_ISO_5,1,5,80,127,3218298296
28,14,16,Jits_ISO_5,2,5,63,98,3218328120
28,14,16,Jits_ISO_5,3,5,56,103,3218367832
28,14,16,Jits_ISO_5,0,1,48,43,3218797476
28,14,16,Jits_ISO_5,1,5,56,103,3218818404
28,14,16,Jits_ISO_5,2,5,63,98,3218848228
28,14,16,Jits_ISO_5,3,5,80,127,3218898264
28,14,16,Jits_ISO_5,0,1,48,40,3219284688
28,14,16,Jits_ISO_5,1,5,80,127,3219318064
28,14,16,Jits_ISO_5,2,5,56,103,3219358152
28,14,16,Jits_ISO_5,3,5,63,98,3219368272
28,14,16,Jits_ISO_5,0,5,80,127,3219798252
28,14,16,Jits_ISO_5,1,1,48,40,3219824064
28,14,16,Jits_ISO_5,2,5,63,98,3219838256
28,14,16,Jits_ISO_5,3,5,56,103,3219897744
28,14,16,Jits_ISO_5,0,5,56,103,3220308188
28,14,16,Jits_ISO_5,1,5,80,127,3220317636
28,14,16,Jits_ISO_5,2,1,48,38,3220334684
28,14,16,Jits_ISO_5,3,5,63,98,3220397492
28,14,16,Jits_ISO_5,0,5,80,127,3220808208
28,14,16,Jits_ISO_5,1,1,48,41,3220832024
28,14,16,Jits_ISO_5,2,5,63,98,3220867420
28,14,16,Jits_ISO_5,3,5,56,103,3220898212
28,14,16,Jits_ISO_5,0,5,56,103,3221307880
28,14,16,Jits_ISO_5,1,1,48,41,3221314740
28,14,16,Jits_ISO_5,2,5,80,127,3221368140
28,14,16,Jits_ISO_5,3,5,63,98,3221408224
28,14,16,Jits_ISO_5,0,1,48,39,3221808424
28,14,16,Jits_ISO_5,1,5,56,103,3221857544
28,14,16,Jits_ISO_5,2,5,63,98,3221868036
28,14,16,Jits_ISO_5,3,5,80,127,3221871400
28,14,16,Jits_ISO_5,0,1,48,44,3222304240
28,14,16,Jits_ISO_5,1,5,80,127,3222308244
28,14,16,Jits_ISO_5,2,5,63,98,3222398180
28,14,16,Jits_ISO_5,3,5,56,103,3222407608
28,14,16,Jits_ISO_5,0,1,48,42,3222807896
28,14,16,Jits_ISO_5,1,5,56,103,3222809640
28,14,16,Jits_ISO_5,2,5,63,98,3222812560
28,14,16,Jits_ISO_5,3,5,80,127,3222815456
28,14,16,Jits_ISO_5,0,1,48,40,3223277244
28,14,16,Jits_ISO_5,1,5,80,127,3223328136
28,14,16,Jits_ISO_5,2,5,63,98,3223378200
28,14,16,Jits_ISO_5,3,5,56,103,3223407948
28,14,16,Jits_ISO_5,0,5,56,103,3223808404
28,14,16,Jits_ISO_5,1,5,80,127,3223817628
28,14,16,Jits_ISO_5,2,1,48,36,3223823812
28,14,16,Jits_ISO_5,3,5,63,98,3223888368
28,14,16,Jits_ISO_5,0,1,48,42,3224295688
28,14,16,Jits_ISO_5,1,5,56,103,3224318256
28,14,16,Jits_ISO_5,2,5,63,98,3224337892
28,14,16,Jits_ISO_5,3,5,80,127,3224398212
28,14,16,Jits_ISO_5,0,1,48,44,3224790616
28,14,16,Jits_ISO_5,1,5,80,127,3224807952
28,14,16,Jits_ISO_5,2,5,63,98,3224877484
28,14,16,Jits_ISO_5,3,5,56,103,3224898148
28,14,16,Jits_ISO_5,0,1,48,42,3225264048
28,14,16,Jits_ISO_5,1,5,80,127,3225327844
28,14,16,Jits_ISO_5,2,5,56,103,3225338112
28,14,16,Jits_ISO_5,3,5,63,98,3225347560
28,14,16,Jits_ISO_5,0,1,48,46,3225780044
28,14,16,Jits_ISO_5,1,5,80,127,3225817308
28,14,16,Jits_ISO_5,2,5,56,103,3225837916
28,14,16,Jits_ISO_5,3,5,63,98,3225907652
28,14,16,Jits_ISO_5,0,1,48,46,3226270408
28,14,16,Jits_ISO_5,1,5,56,103,3226328576
28,14,16,Jits_ISO_5,2,5,80,127,3226358104
28,14,16,Jits_ISO_5,3,5,63,98,3226377720
28,14,16,Jits_ISO_5,0,1,48,47,3226779508
28,14,16,Jits_ISO_5,1,5,63,98,3226817972
28,14,16,Jits_ISO_5,2,5,56,103,3226878272
28,14,16,Jits_ISO_5,3,5,80,127,3226907944
28,14,16,Jits_ISO_5,0,1,48,47,3227273096
28,14,16,Jits_ISO_5,1,5,63,98,3227308340
28,14,16,Jits_ISO_5,2,5,80,127,3227311924
28,14,16,Jits_ISO_5,3,5,56,103,3227397776
28,14,16,Jits_ISO_5,0,1,48,49,3227764572
28,14,16,Jits_ISO_5,1,5,56,103,3227837736
28,14,16,Jits_ISO_5,2,5,63,98,3227867616
28,14,16,Jits_ISO_5,3,5,80,127,3227907552
28,14,16,Jits_ISO_5,0,1,48,38,3228276384
28,14,16,Jits_ISO_5,1,5,63,98,3228337688
28,14,16,Jits_ISO_5,2,5,56,103,3228377464
28,14,16,Jits_ISO_5,3,5,80,127,3228397996
28,14,16,Jits_ISO_5,0,1,48,49,3228761280
28,14,16,Jits_ISO_5,1,5,63,98,3228847616
28,14,16,Jits_ISO_5,2,5,56,103,3228888436
28,14,16,Jits_ISO_5,3,5,80,127,3228897732
28,14,16,Jits_ISO_5,0,1,48,44,3229322448
28,14,16,Jits_ISO_5,1,5,80,127,3229327944
28,14,16,Jits_ISO_5,2,5,63,98,3229398596
28,14,16,Jits_ISO_5,3,5,56,103,3229419116
28,14,16,Jits_ISO_5,0,1,48,47,3229777760
28,14,16,Jits_ISO_5,1,5,56,103,3229818168
28,14,16,Jits_ISO_5,2,5,80,127,3229837804
28,14,16,Jits_ISO_5,3,5,63,98,3229877944
28,14,16,Jits_ISO_5,0,1,48,44,3230305272
28,14,16,Jits_ISO_5,1,5,63,98,3230328160
28,14,16,Jits_ISO_5,2,5,80,127,3230347720
28,14,16,Jits_ISO_5,3,5,56,103,3230387656
28,14,16,Jits_ISO_5,0,1,48,49,3230805528
28,14,16,Jits_ISO_5,1,5,63,98,3230827896
28,14,16,Jits_ISO_5,2,5,56,103,3230848356
28,14,16,Jits_ISO_5,3,5,80,127,3230857800
28,14,16,Jits_ISO_5,0,1,48,46,3231307900
28,14,16,Jits_ISO_5,1,5,80,127,3231327700
28,14,16,Jits_ISO_5,2,5,56,103,3231348008
28,14,16,Jits_ISO_5,3,5,63,98,3231377832
28,14,16,Jits_ISO_5,0,1,48,46,3231790064
28,14,16,Jits_ISO_5,1,5,56,103,3231908556
28,14,16,Jits_ISO_5,2,5,80,127,3231911540
28,14,16,Jits_ISO_5,3,5,63,98,3231927592
28,14,16,Jits_ISO_5,0,1,48,47,3232324932
28,14,16,Jits_ISO_5,1,5,63,98,3232328112
28,14,16,Jits_ISO_5,2,5,56,103,3232357788
28,14,16,Jits_ISO_5,3,5,80,127,3232418172
28,14,16,Jits_ISO_5,0,1,48,46,3232796552
28,14,16,Jits_ISO_5,1,5,63,98,3232907768
28,14,16,Jits_ISO_5,2,5,56,103,3232917816
28,14,16,Jits_ISO_5,3,5,80,127,3232928084
28,14,16,Jits_ISO_5,0,1,48,48,3233306408
28,14,16,Jits_ISO_5,1,5,56,103,3233358300
28,14,16,Jits_ISO_5,2,5,80,127,3233387900
28,14,16,Jits_ISO_5,3,5,63,98,3233398304
28,14,16,Jits_ISO_5,0,1,48,39,3233820148
28,14,16,Jits_ISO_5,1,5,63,98,3233897892
28,14,16,Jits_ISO_5,2,5,56,103,3233908012
28,14,16,Jits_ISO_5,3,5,80,127,3233927408
28,14,16,Jits_ISO_5,0,1,48,46,3234325972
28,14,16,Jits_ISO_5,1,5,56,103,3234327856
28,14,16,Jits_ISO_5,2,5,63,98,3234388420
28,14,16,Jits_ISO_5,3,5,80,127,3234391780
28,14,16,Jits_ISO_5,0,1,48,38,3234831440
28,14,16,Jits_ISO_5,1,5,80,127,3234848100
28,14,16,Jits_ISO_5,2,5,56,103,3234858296
28,14,16,Jits_ISO_5,3,5,63,98,3234927924
28,14,16,Jits_ISO_5,0,1,48,46,3235335912
28,14,16,Jits_ISO_5,1,5,80,127,3235337648
28,14,16,Jits_ISO_5,2,5,56,103,3235408400
28,14,16,Jits_ISO_5,3,5,63,98,3235417472
28,14,16,Jits_ISO_5,0,1,48,49,3235844692
28,14,16,Jits_ISO_5,1,5,63,98,3235878216
28,14,16,Jits_ISO_5,2,5,56,103,3235887588
28,14,16,Jits_ISO_5,3,5,80,127,3235907900
28,14,16,Jits_ISO_5,0,5,80,127,3236327760
28,14,16,Jits_ISO_5,1,1,48,45,3236346396
28,14,16,Jits_ISO_5,2,5,63,98,3236388440
28,14,16,Jits_ISO_5,3,5,56,103,3236428180
28,14,16,Jits_ISO_5,0,1,48,43,3236851668
28,14,16,Jits_ISO_5,1,5,56,103,3236867436
28,14,16,Jits_ISO_5,2,5,63,98,3236877708
28,14,16,Jits_ISO_5,3,5,80,127,3236917568
28,14,16,Jits_ISO_5,0,5,56,103,3237328444
28,14,16,Jits_ISO_5,1,1,48,49,3237341528
28,14,16,Jits_ISO_5,2,5,80,127,3237357816
28,14,16,Jits_ISO_5,3,5,63,98,3237408236
28,14,16,Jits_ISO_5,0,1,48,47,3237827188
28,14,16,Jits_ISO_5,1,5,56,103,3237867816
28,14,16,Jits_ISO_5,2,5,63,98,3237907752
28,14,16,Jits_ISO_5,3,5,80,127,3237911340
28,14,16,Jits_ISO_5,0,1,48,42,3238307808
28,14,16,Jits_ISO_5,1,5,56,103,3238367696
28,14,16,Jits_ISO_5,2,5,63,98,3238377816
28,14,16,Jits_ISO_5,3,5,80,127,3238398272
28,14,16,Jits_ISO_5,0,1,48,38,3238811060
28,14,16,Jits_ISO_5,1,5,56,103,3238828544
28,14,16,Jits_ISO_5,2,5,80,127,3238831536
28,14,16,Jits_ISO_5,3,5,63,98,3238868480
28,14,16,Jits_ISO_5,0,1,48,33,3239294440
28,14,16,Jits_ISO_5,1,5,63,98,3239378164
28,14,16,Jits_ISO_5,2,5,56,103,3239407972
28,14,16,Jits_ISO_5,3,5,80,127,3239427532
28,14,16,Jits_ISO_5,0,1,48,36,3239816224
28,14,16,Jits_ISO_5,1,5,80,127,3239848380
28,14,16,Jits_ISO_5,2,5,56,103,3239857380
28,14,16,Jits_ISO_5,3,5,63,98,3239867652
28,14,16,Jits_ISO_5,0,1,48,40,3240326884
28,14,16,Jits_ISO_5,1,5,56,103,3240347960
28,14,16,Jits_ISO_5,2,5,80,127,3240388048
28,14,16,Jits_ISO_5,3,5,63,98,3240417648
28,14,16,Jits_ISO_5,0,1,48,47,3240850884
28,14,16,Jits_ISO_5,1,5,63,98,3240858032
28,14,16,Jits_ISO_5,2,5,80,127,3240868300
28,14,16,Jits_ISO_5,3,5,56,103,3240877376
28,14,16,Jits_ISO_5,0,5,56,103,3241338288
28,14,16,Jits_ISO_5,1,1,48,48,3241358720
28,14,16,Jits_ISO_5,2,5,63,98,3241407740
28,14,16,Jits_ISO_5,3,5,80,127,3241418308
28,14,16,Jits_ISO_5,0,1,48,46,3241827820
28,14,16,Jits_ISO_5,1,5,80,127,3241837884
28,14,16,Jits_ISO_5,2,5,56,103,3241848300
28,14,16,Jits_ISO_5,3,5,63,98,3241898352
28,14,16,Jits_ISO_5,0,1,48,50,3242320132
28,14,16,Jits_ISO_5,1,5,80,127,3242348176
28,14,16,Jits_ISO_5,2,5,56,103,3242408268
28,14,16,Jits_ISO_5,3,5,63,98,3242438000
28,14,16,Jits_ISO_5,0,1,48,48,3242843608
28,14,16,Jits_ISO_5,1,5,56,103,3242847456
28,14,16,Jits_ISO_5,2,5,80,127,3242850528
28,14,16,Jits_ISO_5,3,5,63,98,3242887472
28,14,16,Jits_ISO_5,0,1,48,47,3243327352
28,14,16,Jits_ISO_5,1,5,56,103,3243388164
28,14,16,Jits_ISO_5,2,5,63,98,3243418136
28,14,16,Jits_ISO_5,3,5,80,127,3243428240
28,14,16,Jits_ISO_5,0,1,48,51,3243838628
28,14,16,Jits_ISO_5,1,5,63,98,3243898164
28,14,16,Jits_ISO_5,2,5,80,127,3243907388
28,14,16,Jits_ISO_5,3,5,56,103,3243917584
28,14,16,Jits_ISO_5,0,5,80,127,3244347908
28,14,16,Jits_ISO_5,1,1,48,48,3244353796
28,14,16,Jits_ISO_5,2,5,56,103,3244398052
28,14,16,Jits_ISO_5,3,5,63,98,3244401116
28,14,16,Jits_ISO_5,0,1,48,51,3244825128
28,14,16,Jits_ISO_5,1,5,56,103,3244878304
28,14,16,Jits_ISO_5,2,5,80,127,3244897644
28,14,16,Jits_ISO_5,3,5,63,98,3244908136
28,14,16,Jits_ISO_5,0,1,48,50,3245330492
28,14,16,Jits_ISO_5,1,5,63,98,3245357340
28,14,16,Jits_ISO_5,2,5,56,103,3245388236
28,14,16,Jits_ISO_5,3,5,80,127,3245407572
28,14,16,Jits_ISO_5,0,1,48,48,3245867560
28,14,16,Jits_ISO_5,1,5,56,103,3245869280
28,14,16,Jits_ISO_5,2,5,80,127,3245877752
28,14,16,Jits_ISO_5,3,5,63,98,3245948204
28,14,16,Jits_ISO_5,0,5,63,98,3246357856
28,14,16,Jits_ISO_5,1,1,48,45,3246359192
28,14,16,Jits_ISO_5,2,5,80,127,3246398084
28,14,16,Jits_ISO_5,3,5,56,103,3246437672
28,14,16,Jits_ISO_5,0,1,48,49,3246835144
28,14,16,Jits_ISO_5,1,5,56,103,3246867920
28,14,16,Jits_ISO_5,2,5,63,98,3246877968
28,14,16,Jits_ISO_5,3,5,80,127,3246897456
28,14,16,Jits_ISO_5,0,1,48,46,3247349800
28,14,16,Jits_ISO_5,1,5,63,98,3247407588
28,14,16,Jits_ISO_5,2,5,80,127,3247428044
28,14,16,Jits_ISO_5,3,5,56,103,3247448440
28,14,16,Jits_ISO_5,0,5,56,103,3247847920
28,14,16,Jits_ISO_5,1,1,48,52,3247866480
28,14,16,Jits_ISO_5,2,5,80,127,3247927784
28,14,16,Jits_ISO_5,3,5,63,98,3247937976
28,14,16,Jits_ISO_5,0,1,48,47,3248359776
28,14,16,Jits_ISO_5,1,5,80,127,3248387372
28,14,16,Jits_ISO_5,2,5,63,98,3248397716
28,14,16,Jits_ISO_5,3,5,56,103,3248428364
28,14,16,Jits_ISO_5,0,1,48,51,3248837336
28,14,16,Jits_ISO_5,1,5,63,98,3248848148
28,14,16,Jits_ISO_5,2,5,80,127,3248888308
28,14,16,Jits_ISO_5,3,5,56,103,3248947560
28,14,16,Jits_ISO_5,0,5,63,98,3249358080
28,14,16,Jits_ISO_5,1,1,48,48,3249388468
28,14,16,Jits_ISO_5,2,5,56,103,3249408348
28,14,16,Jits_ISO_5,3,5,80,127,3249438020
28,14,16,Jits_ISO_5,0,5,80,127,3249868000
28,14,16,Jits_ISO_5,1,5,63,98,3249878492
28,14,16,Jits_ISO_5,2,1,48,38,3249894868
28,14,16,Jits_ISO_5,3,5,56,103,3249948236
28,14,16,Jits_ISO_5,0,1,48,46,3250393112
28,14,16,Jits_ISO_5,1,5,80,127,3250437348
28,14,16,Jits_ISO_5,2,5,56,103,3250447912
28,14,16,Jits_ISO_5,3,5,63,98,3250450828
28,14,16,Jits_ISO_5,0,1,48,50,3250871644
28,14,16,Jits_ISO_5,1,5,56,103,3250888004
28,14,16,Jits_ISO_5,2,5,80,127,3250907492
28,14,16,Jits_ISO_5,3,5,63,98,3250917836
28,14,16,Jits_ISO_5,0,1,48,49,3251354816
28,14,16,Jits_ISO_5,1,5,63,98,3251397928
28,14,16,Jits_ISO_5,2,5,56,103,3251437864
28,14,16,Jits_ISO_5,3,5,80,127,3251458308
28,14,16,Jits_ISO_5,0,1,48,42,3251886704
28,14,16,Jits_ISO_5,1,5,63,98,3251897816
28,14,16,Jits_ISO_5,2,5,56,103,3251958052
28,14,16,Jits_ISO_5,3,5,80,127,3251961120
28,14,16,Jits_ISO_5,0,5,56,103,3252357616
28,14,16,Jits_ISO_5,1,5,80,127,3252378076
28,14,16,Jits_ISO_5,2,5,63,98,3252418012
28,14,16,Jits_ISO_5,3,1,48,38,3252421204
28,14,16,Jits_ISO_5,0,1,48,46,3252887476
28,14,16,Jits_ISO_5,1,5,56,103,3252889264
28,14,16,Jits_ISO_5,2,5,63,98,3252908604
28,14,16,Jits_ISO_5,3,5,80,127,3252917604
28,14,16,Jits_ISO_5,0,5,80,127,3253358068
28,14,16,Jits_ISO_5,1,5,56,103,3253387816
28,14,16,Jits_ISO_5,2,1,48,42,3253391388
28,14,16,Jits_ISO_5,3,5,63,98,3253427744
28,14,16,Jits_ISO_5,0,1,48,43,3253858080
28,14,16,Jits_ISO_5,1,5,80,127,3253867848
28,14,16,Jits_ISO_5,2,5,56,103,3253888308
28,14,16,Jits_ISO_5,3,5,63,98,3253947868
28,14,16,Jits_ISO_5,0,5,56,103,3254377852
28,14,16,Jits_ISO_5,1,1,48,43,3254385852
28,14,16,Jits_ISO_5,2,5,80,127,3254398380
28,14,16,Jits_ISO_5,3,5,63,98,3254457568
28,14,16,Jits_ISO_5,0,1,48,53,3254855732
28,14,16,Jits_ISO_5,1,5,80,127,3254868452
28,14,16,Jits_ISO_5,2,5,56,103,3254877528
28,14,16,Jits_ISO_5,3,5,63,98,3254917688
28,14,16,Jits_ISO_5,0,1,48,48,3255350148
28,14,16,Jits_ISO_5,1,5,63,98,3255367936
28,14,16,Jits_ISO_5,2,5,56,103,3255407944
28,14,16,Jits_ISO_5,3,5,80,127,3255411008
28,14,16,Jits_ISO_5,0,1,48,58,3255843400
28,14,16,Jits_ISO_5,1,5,63,98,3255888108
28,14,16,Jits_ISO_5,2,5,80,127,3255928120
28,14,16,Jits_ISO_5,3,5,56,103,3255957852
28,14,16,Jits_ISO_5,0,1,48,52,3256343656
28,14,16,Jits_ISO_5,1,5,56,103,3256377704
28,14,16,Jits_ISO_5,2,5,63,98,3256387900
28,14,16,Jits_ISO_5,3,5,80,127,3256417596
28,14,16,Jits_ISO_5,0,1,48,42,3256830800
28,14,16,Jits_ISO_5,1,5,80,127,3256868068
28,14,16,Jits_ISO_5,2,5,63,98,3256937756
28,14,16,Jits_ISO_5,3,5,56,103,3256948028
28,14,16,Jits_ISO_5,0,5,63,98,3257368032
28,14,16,Jits_ISO_5,1,1,48,50,3257397076
28,14,16,Jits_ISO_5,2,5,56,103,3257437656
28,14,16,Jits_ISO_5,3,5,80,127,3257447852
28,14,16,Jits_ISO_5,0,5,63,98,3257867688
28,14,16,Jits_ISO_5,1,5,56,103,3257888220
28,14,16,Jits_ISO_5,2,1,48,52,3257890736
28,14,16,Jits_ISO_5,3,5,80,127,3257928000
28,14,16,Jits_ISO_5,0,1,48,48,3258361888
28,14,16,Jits_ISO_5,1,5,56,103,3258377652
28,14,16,Jits_ISO_5,2,5,63,98,3258387772
28,14,16,Jits_ISO_5,3,5,80,127,3258467648
28,14,16,Jits_ISO_5,0,5,63,98,3258868028
28,14,16,Jits_ISO_5,1,5,56,103,3258897776
28,14,16,Jits_ISO_5,2,1,48,49,3258907492
28,14,16,Jits_ISO_5,3,5,80,127,3258937704
28,14,16,Jits_ISO_5,0,1,48,41,3259361652
28,14,16,Jits_ISO_5,1,5,56,103,3259367752
28,14,16,Jits_ISO_5,2,5,63,98,3259407616
28,14,16,Jits_ISO_5,3,5,80,127,3259447772
28,14,16,Jits_ISO_5,0,1,48,43,3259847160
28,14,16,Jits_ISO_5,1,5,80,127,3259867636
28,14,16,Jits_ISO_5,2,5,56,103,3259948384
28,14,16,Jits_ISO_5,3,5,63,98,3259957608
28,14,16,Jits_ISO_5,0,1,48,46,3260371088
28,14,16,Jits_ISO_5,1,5,56,103,3260408344
28,14,16,Jits_ISO_5,2,5,63,98,3260411484
28,14,16,Jits_ISO_5,3,5,80,127,3260418544
28,14,16,Jits_ISO_5,0,1,48,45,3260852004
28,14,16,Jits_ISO_5,1,5,56,103,3260928380
28,14,16,Jits_ISO_5,2,5,63,98,3260948296
28,14,16,Jits_ISO_5,3,5,80,127,3260958196
28,14,16,Jits_ISO_5,0,1,48,50,3261357076
28,14,16,Jits_ISO_5,1,5,63,98,3261388332
28,14,16,Jits_ISO_5,2,5,80,127,3261398456
28,14,16,Jits_ISO_5,3,5,56,103,3261417940
28,14,16,Jits_ISO_5,0,1,48,51,3261877856
28,14,16,Jits_ISO_5,1,5,63,98,3261887992
28,14,16,Jits_ISO_5,2,5,56,103,3261967628
28,14,16,Jits_ISO_5,3,5,80,127,3261971732
28,14,16,Jits_ISO_5,0,1,48,46,3262373084
28,14,16,Jits_ISO_5,1,5,63,98,3262397688
28,14,16,Jits_ISO_5,2,5,56,103,3262418368
28,14,16,Jits_ISO_5,3,5,80,127,3262448116
28,14,16,Jits_ISO_5,0,1,48,50,3262847056
28,14,16,Jits_ISO_5,1,5,56,103,3262897424
28,14,16,Jits_ISO_5,2,5,63,98,3262918256
28,14,16,Jits_ISO_5,3,5,80,127,3262928376
28,14,16,Jits_ISO_5,0,1,48,48,3263336900
28,14,16,Jits_ISO_5,1,5,56,103,3263428096
28,14,16,Jits_ISO_5,2,5,63,98,3263457756
28,14,16,Jits_ISO_5,3,5,80,127,3263461044
28,14,16,Jits_ISO_5,0,1,48,45,3263829136
28,14,16,Jits_ISO_5,1,5,56,103,3263877484
28,14,16,Jits_ISO_5,2,5,63,98,3263917420
28,14,16,Jits_ISO_5,3,5,80,127,3263977720
28,14,16,Jits_ISO_5,0,1,48,47,3264322168
28,14,16,Jits_ISO_5,1,5,56,103,3264397668
28,14,16,Jits_ISO_5,2,5,63,98,3264408012
28,14,16,Jits_ISO_5,3,5,80,127,3264468312
28,14,16,Jits_ISO_5,0,1,48,46,3264828348
28,14,16,Jits_ISO_5,1,5,56,103,3264898372
28,14,16,Jits_ISO_5,2,5,80,127,3264917936
28,14,16,Jits_ISO_5,3,5,63,98,3264947592
28,14,16,Jits_ISO_5,0,1,48,54,3265344252
28,14,16,Jits_ISO_5,1,5,80,127,3265398108
28,14,16,Jits_ISO_5,2,5,56,103,3265408524
28,14,16,Jits_ISO_5,3,5,63,98,3265427788
28,14,16,Jits_ISO_5,0,5,63,98,3265887580
28,14,16,Jits_ISO_5,1,1,48,48,3265913764
28,14,16,Jits_ISO_5,2,5,80,127,3265967592
28,14,16,Jits_ISO_5,3,5,56,103,3265977640
28,14,16,Jits_ISO_5,0,1,48,52,3266414320
28,14,16,Jits_ISO_5,1,5,80,127,3266458184
28,14,16,Jits_ISO_5,2,5,56,103,3266477444
28,14,16,Jits_ISO_5,3,5,63,98,3266480584
28,14,16,Jits_ISO_5,0,1,48,50,3266918784
28,14,16,Jits_ISO_5,1,5,63,98,3266927944
28,14,16,Jits_ISO_5,2,5,80,127,3266931308
28,14,16,Jits_ISO_5,3,5,56,103,3266988336
28,14,16,Jits_ISO_5,0,5,56,103,3267408276
28,14,16,Jits_ISO_5,1,5,80,127,3267417424
28,14,16,Jits_ISO_5,2,1,48,45,3267422564
28,14,16,Jits_ISO_5,3,5,63,98,3267458328
28,14,16,Jits_ISO_5,0,1,48,49,3267869832
28,14,16,Jits_ISO_5,1,5,56,103,3267887388
28,14,16,Jits_ISO_5,2,5,63,98,3267948100
28,14,16,Jits_ISO_5,3,5,80,127,3267958224
28,14,16,Jits_ISO_5,0,1,48,48,3268366048
28,14,16,Jits_ISO_5,1,5,63,98,3268397536
28,14,16,Jits_ISO_5,2,5,80,127,3268438396
28,14,16,Jits_ISO_5,3,5,56,103,3268478320
28,14,16,Jits_ISO_5,0,1,48,49,3268867432
28,14,16,Jits_ISO_5,1,5,56,103,3268898316
28,14,16,Jits_ISO_5,2,5,63,98,3268978276
28,14,16,Jits_ISO_5,3,5,80,127,3268981560
28,14,16,Jits_ISO_5,0,9999,9999,9999,3209585720
28,14,16,Jits_ISO_5,1,9999,9999,9999,3210085444
28,14,16,Jits_ISO_5,2,9999,9999,9999,3210585184
28,14,16,Jits_ISO_5,3,9999,9999,9999,3211085892
28,14,16,Jits_ISO_5,4,9999,9999,9999,3211585648
28,14,16,Jits_ISO_5,5,9999,9999,9999,3212085308
28,14,16,Jits_ISO_5,6,9999,9999,9999,3212586088
28,14,16,Jits_ISO_5,7,9999,9999,9999,3213085760
28,14,16,Jits_ISO_5,8,9999,9999,9999,3213585508
28,14,16,Jits_ISO_5,9,9999,9999,9999,3214085180
28,14,16,Jits_ISO_5,10,9999,9999,9999,3214585972
28,14,16,Jits_ISO_5,11,9999,9999,9999,3215085648
28,14,16,Jits_ISO_5,12,9999,9999,9999,3215585376
28,14,16,Jits_ISO_5,13,9999,9999,9999,3216086084
28,14,16,Jits_ISO_5,14,9999,9999,9999,3216596076
28,14,16,Jits_ISO_5,15,9999,9999,9999,3217095732
28,14,16,Jits_ISO_5,16,9999,9999,9999,3217595468
28,14,16,Jits_ISO_5,17,9999,9999,9999,3218095200
28,14,16,Jits_ISO_5,18,9999,9999,9999,3218595904
28,14,16,Jits_ISO_5,19,9999,9999,9999,3219095636
28,14,16,Jits_ISO_5,20,9999,9999,9999,3219595372
28,14,16,Jits_ISO_5,21,9999,9999,9999,3220096080
28,14,16,Jits_ISO_5,22,9999,9999,9999,3220606016
28,14,16,Jits_ISO_5,23,9999,9999,9999,3221105760
28,14,16,Jits_ISO_5,24,9999,9999,9999,3221605436
28,14,16,Jits_ISO_5,25,9999,9999,9999,3222105176
28,14,16,Jits_ISO_5,26,9999,9999,9999,3222605884
28,14,16,Jits_ISO_5,27,9999,9999,9999,3223105640
28,14,16,Jits_ISO_5,28,9999,9999,9999,3223605300
28,14,16,Jits_ISO_5,29,9999,9999,9999,3224106080
28,14,16,Jits_ISO_5,30,9999,9999,9999,3224605752
28,14,16,Jits_ISO_5,31,9999,9999,9999,3225105488
28,14,16,Jits_ISO_5,32,9999,9999,9999,3225605220
28,14,16,Jits_ISO_5,33,9999,9999,9999,3226105928
28,14,16,Jits_ISO_5,34,9999,9999,9999,3226605660
28,14,16,Jits_ISO_5,35,9999,9999,9999,3227105392
28,14,16,Jits_ISO_5,36,9999,9999,9999,3227606092
28,14,16,Jits_ISO_5,37,9999,9999,9999,3228116088
28,14,16,Jits_ISO_5,38,9999,9999,9999,3228615748
28,14,16,Jits_ISO_5,39,9999,9999,9999,3229115484
28,14,16,Jits_ISO_5,40,9999,9999,9999,3229615220
28,14,16,Jits_ISO_5,41,9999,9999,9999,3230115924
28,14,16,Jits_ISO_5,42,9999,9999,9999,3230615656
28,14,16,Jits_ISO_5,43,9999,9999,9999,3231115312
28,14,16,Jits_ISO_5,44,9999,9999,9999,3231616092
28,14,16,Jits_ISO_5,45,9999,9999,9999,3232126012
28,14,16,Jits_ISO_5,46,9999,9999,9999,3232625724
28,14,16,Jits_ISO_5,47,9999,9999,9999,3233125460
28,14,16,Jits_ISO_5,48,9999,9999,9999,3233625196
28,14,16,Jits_ISO_5,49,9999,9999,9999,3234125908
28,14,16,Jits_ISO_5,50,9999,9999,9999,3234625604
28,14,16,Jits_ISO_5,51,9999,9999,9999,3235125336
28,14,16,Jits_ISO_5,52,9999,9999,9999,3235626044
28,14,16,Jits_ISO_5,53,9999,9999,9999,3236125784
28,14,16,Jits_ISO_5,54,9999,9999,9999,3236625516
28,14,16,Jits_ISO_5,55,9999,9999,9999,3237125192
28,14,16,Jits_ISO_5,56,9999,9999,9999,3237625972
28,14,16,Jits_ISO_5,57,9999,9999,9999,3238125640
28,14,16,Jits_ISO_5,58,9999,9999,9999,3238625372
28,14,16,Jits_ISO_5,59,9999,9999,9999,3239126068
28,14,16,Jits_ISO_5,60,9999,9999,9999,3239636068
28,14,16,Jits_ISO_5,61,9999,9999,9999,3240135796
28,14,16,Jits_ISO_5,62,9999,9999,9999,3240635456
28,14,16,Jits_ISO_5,63,9999,9999,9999,3241135188
28,14,16,Jits_ISO_5,64,9999,9999,9999,3241635892
28,14,16,Jits_ISO_5,65,9999,9999,9999,3242135640
28,14,16,Jits_ISO_5,66,9999,9999,9999,3242635376
28,14,16,Jits_ISO_5,67,9999,9999,9999,3243136068
28,14,16,Jits_ISO_5,68,9999,9999,9999,3243646068
28,14,16,Jits_ISO_5,69,9999,9999,9999,3244145728
28,14,16,Jits_ISO_5,70,9999,9999,9999,3244645452
28,14,16,Jits_ISO_5,71,9999,9999,9999,3245145200
28,14,16,Jits_ISO_5,72,9999,9999,9999,3245645904
28,14,16,Jits_ISO_5,73,9999,9999,9999,3246145616
28,14,16,Jits_ISO_5,74,9999,9999,9999,3246645344
28,14,16,Jits_ISO_5,75,9999,9999,9999,3247146048
28,14,16,Jits_ISO_5,76,9999,9999,9999,3247645792
28,14,16,Jits_ISO_5,77,9999,9999,9999,3248145524
28,14,16,Jits_ISO_5,78,9999,9999,9999,3248645204
28,14,16,Jits_ISO_5,79,9999,9999,9999,3249145908
28,14,16,Jits_ISO_5,80,9999,9999,9999,3249645640
28,14,16,Jits_ISO_5,81,9999,9999,9999,3250145376
28,14,16,Jits_ISO_5,82,9999,9999,9999,3250646096
28,14,16,Jits_ISO_5,83,9999,9999,9999,3251156020
28,14,16,Jits_ISO_5,84,9999,9999,9999,3251655760
28,14,16,Jits_ISO_5,85,9999,9999,9999,3252155488
28,14,16,Jits_ISO_5,86,9999,9999,9999,3252655220
28,14,16,Jits_ISO_5,87,9999,9999,9999,3253155936
28,14,16,Jits_ISO_5,88,9999,9999,9999,3253655668
28,14,16,Jits_ISO_5,89,9999,9999,9999,3254155344
28,14,16,Jits_ISO_5,90,9999,9999,9999,3254656052
28,14,16,Jits_ISO_5,91,9999,9999,9999,3255166060
28,14,16,Jits_ISO_5,92,9999,9999,9999,3255665756
28,14,16,Jits_ISO_5,93,9999,9999,9999,3256165492
28,14,16,Jits_ISO_5,94,9999,9999,9999,3256665148
28,14,16,Jits_ISO_5,95,9999,9999,9999,3257165928
28,14,16,Jits_ISO_5,96,9999,9999,9999,3257665636
28,14,16,Jits_ISO_5,97,9999,9999,9999,3258165340
28,14,16,Jits_ISO_5,98,9999,9999,9999,3258666044
28,14,16,Jits_ISO_5,99,9999,9999,9999,3259165776
28,14,16,Jits_ISO_5,100,9999,9999,9999,3259665508
28,14,16,Jits_ISO_5,101,9999,9999,9999,3260165172
28,14,16,Jits_ISO_5,102,9999,9999,9999,3260665944
28,14,16,Jits_ISO_5,103,9999,9999,9999,3261165684
28,14,16,Jits_ISO_5,104,9999,9999,9999,3261665340
28,14,16,Jits_ISO_5,105,9999,9999,9999,3262166120
28,14,16,Jits_ISO_5,106,9999,9999,9999,3262676040
28,14,16,Jits_ISO_5,107,9999,9999,9999,3263175776
28,14,16,Jits_ISO_5,108,9999,9999,9999,3263675504
28,14,16,Jits_ISO_5,109,9999,9999,9999,3264175168
28,14,16,Jits_ISO_5,110,9999,9999,9999,3264675948
28,14,16,Jits_ISO_5,111,9999,9999,9999,3265175604
28,14,16,Jits_ISO_5,112,9999,9999,9999,3265675336
28,14,16,Jits_ISO_5,113,9999,9999,9999,3266176120
28,14,16,Jits_ISO_5,114,9999,9999,9999,3266686040
28,14,16,Jits_ISO_5,115,9999,9999,9999,3267185768
28,14,16,Jits_ISO_5,116,9999,9999,9999,3267685428
28,14,16,Jits_ISO_5,117,9999,9999,9999,3268185172
28,14,16,Jits_ISO_5,118,9999,9999,9999,3268685880
28,14,16,Jits_ISO_5,119,9999,9999,9999,3269185656
28,15,7,Jits_ISO_8,0,5,56,103,3292546376
28,15,7,Jits_ISO_8,1,5,63,98,3292549624
28,15,7,Jits_ISO_8,2,5,80,127,3292552744
28,15,7,Jits_ISO_8,0,5,56,103,3293347344
28,15,7,Jits_ISO_8,1,5,63,98,3293350444
28,15,7,Jits_ISO_8,2,5,80,127,3293353712
28,15,7,Jits_ISO_8,0,5,80,127,3294086524
28,15,7,Jits_ISO_8,1,5,63,98,3294177032
28,15,7,Jits_ISO_8,2,5,56,103,3294187228
28,15,7,Jits_ISO_8,0,5,56,103,3294906844
28,15,7,Jits_ISO_8,1,5,63,98,3294917040
28,15,7,Jits_ISO_8,2,5,80,127,3295007024
28,15,7,Jits_ISO_8,0,1,48,54,3295676968
28,15,7,Jits_ISO_8,1,5,63,98,3295678532
28,15,7,Jits_ISO_8,2,5,80,127,3295706340
28,15,7,Jits_ISO_8,3,5,56,103,3295737060
28,15,7,Jits_ISO_8,0,1,48,51,3296469148
28,15,7,Jits_ISO_8,1,5,56,103,3296476516
28,15,7,Jits_ISO_8,2,5,80,127,3296576976
28,15,7,Jits_ISO_8,3,5,63,98,3296627052
28,15,7,Jits_ISO_8,0,5,56,103,3297277280
28,15,7,Jits_ISO_8,1,1,48,46,3297309616
28,15,7,Jits_ISO_8,2,5,80,127,3297326508
28,15,7,Jits_ISO_8,3,5,63,98,3297367516
28,15,7,Jits_ISO_8,0,1,48,52,3298073744
28,15,7,Jits_ISO_8,1,5,80,127,3298106820
28,15,7,Jits_ISO_8,2,5,63,98,3298136300
28,15,7,Jits_ISO_8,3,5,56,103,3298207160
28,15,7,Jits_ISO_8,0,1,48,45,3298881320
28,15,7,Jits_ISO_8,1,5,63,98,3298937196
28,15,7,Jits_ISO_8,2,5,56,103,3298966876
28,15,7,Jits_ISO_8,3,5,80,127,3299027252
28,15,7,Jits_ISO_8,0,5,56,103,3299676604
28,15,7,Jits_ISO_8,1,5,80,127,3299679596
28,15,7,Jits_ISO_8,2,1,48,51,3299734796
28,15,7,Jits_ISO_8,3,5,63,98,3299797220
28,15,7,Jits_ISO_8,0,1,48,48,3300479876
28,15,7,Jits_ISO_8,1,5,56,103,3300557156
28,15,7,Jits_ISO_8,2,5,80,127,3300597156
28,15,7,Jits_ISO_8,3,5,63,98,3300607424
28,15,7,Jits_ISO_8,0,1,48,49,3301264768
28,15,7,Jits_ISO_8,1,5,56,103,3301316864
28,15,7,Jits_ISO_8,2,5,80,127,3301336648
28,15,7,Jits_ISO_8,3,5,63,98,3301417548
28,15,7,Jits_ISO_8,0,1,48,46,3302101776
28,15,7,Jits_ISO_8,1,5,80,127,3302106684
28,15,7,Jits_ISO_8,2,5,56,103,3302206696
28,15,7,Jits_ISO_8,3,5,63,98,3302217212
28,15,7,Jits_ISO_8,0,5,63,98,3302876656
28,15,7,Jits_ISO_8,1,1,48,48,3302902024
28,15,7,Jits_ISO_8,2,5,80,127,3302936896
28,15,7,Jits_ISO_8,3,5,56,103,3302947164
28,15,7,Jits_ISO_8,0,1,48,48,3303611516
28,15,7,Jits_ISO_8,1,5,56,103,3303677480
28,15,7,Jits_ISO_8,2,5,63,98,3303746844
28,15,7,Jits_ISO_8,3,5,80,127,3303750608
28,15,7,Jits_ISO_8,0,1,48,43,3304427180
28,15,7,Jits_ISO_8,1,5,63,98,3304506700
28,15,7,Jits_ISO_8,2,5,56,103,3304556836
28,15,7,Jits_ISO_8,3,5,80,127,3304559976
28,15,7,Jits_ISO_8,0,1,48,46,3305256772
28,15,7,Jits_ISO_8,1,5,56,103,3305266684
28,15,7,Jits_ISO_8,2,5,80,127,3305269676
28,15,7,Jits_ISO_8,3,5,63,98,3305356752
28,15,7,Jits_ISO_8,0,1,48,45,3306058140
28,15,7,Jits_ISO_8,1,5,63,98,3306107388
28,15,7,Jits_ISO_8,2,5,56,103,3306197508
28,15,7,Jits_ISO_8,3,5,80,127,3306226960
28,15,7,Jits_ISO_8,0,1,48,51,3306844300
28,15,7,Jits_ISO_8,1,5,56,103,3306896688
28,15,7,Jits_ISO_8,2,5,63,98,3306997224
28,15,7,Jits_ISO_8,3,5,80,127,3307026824
28,15,7,Jits_ISO_8,0,1,48,49,3307683928
28,15,7,Jits_ISO_8,1,5,63,98,3307716932
28,15,7,Jits_ISO_8,2,5,56,103,3307727424
28,15,7,Jits_ISO_8,3,5,80,127,3307817540
28,15,7,Jits_ISO_8,0,1,48,46,3308443328
28,15,7,Jits_ISO_8,1,5,63,98,3308537320
28,15,7,Jits_ISO_8,2,5,56,103,3308617124
28,15,7,Jits_ISO_8,3,5,80,127,3308620044
28,15,7,Jits_ISO_8,0,5,80,127,3309297024
28,15,7,Jits_ISO_8,1,1,48,54,3309316136
28,15,7,Jits_ISO_8,2,5,63,98,3309317772
28,15,7,Jits_ISO_8,3,5,56,103,3309376820
28,15,7,Jits_ISO_8,0,1,48,42,3310043436
28,15,7,Jits_ISO_8,1,5,56,103,3310136808
28,15,7,Jits_ISO_8,2,5,63,98,3310157292
28,15,7,Jits_ISO_8,3,5,80,127,3310160580
28,15,7,Jits_ISO_8,0,1,48,54,3310843284
28,15,7,Jits_ISO_8,1,5,63,98,3310877180
28,15,7,Jits_ISO_8,2,5,80,127,3310956844
28,15,7,Jits_ISO_8,3,5,56,103,3310967484
28,15,7,Jits_ISO_8,0,1,48,52,3311690224
28,15,7,Jits_ISO_8,1,5,63,98,3311697220
28,15,7,Jits_ISO_8,2,5,56,103,3311716708
28,15,7,Jits_ISO_8,3,5,80,127,3311766908
28,15,7,Jits_ISO_8,0,1,48,40,3312467236
28,15,7,Jits_ISO_8,1,5,80,127,3312497300
28,15,7,Jits_ISO_8,2,5,63,98,3312537168
28,15,7,Jits_ISO_8,3,5,56,103,3312557552
28,15,7,Jits_ISO_8,0,1,48,45,3313244916
28,15,7,Jits_ISO_8,1,5,56,103,3313336648
28,15,7,Jits_ISO_8,2,5,63,98,3313347200
28,15,7,Jits_ISO_8,3,5,80,127,3313367508
28,15,7,Jits_ISO_8,0,1,48,45,3314048072
28,15,7,Jits_ISO_8,1,5,56,103,3314066752
28,15,7,Jits_ISO_8,2,5,63,98,3314157096
28,15,7,Jits_ISO_8,3,5,80,127,3314217408
28,15,7,Jits_ISO_8,0,1,48,50,3314870096
28,15,7,Jits_ISO_8,1,5,80,127,3314897176
28,15,7,Jits_ISO_8,2,5,56,103,3314906700
28,15,7,Jits_ISO_8,3,5,63,98,3314977112
28,15,7,Jits_ISO_8,0,1,48,43,3315681420
28,15,7,Jits_ISO_8,1,5,63,98,3315726704
28,15,7,Jits_ISO_8,2,5,80,127,3315817000
28,15,7,Jits_ISO_8,3,5,56,103,3315827120
28,15,7,Jits_ISO_8,0,5,63,98,3316466936
28,15,7,Jits_ISO_8,1,1,48,46,3316498976
28,15,7,Jits_ISO_8,2,5,80,127,3316517284
28,15,7,Jits_ISO_8,3,5,56,103,3316576724
28,15,7,Jits_ISO_8,0,1,48,46,3317270724
28,15,7,Jits_ISO_8,1,5,56,103,3317296604
28,15,7,Jits_ISO_8,2,5,80,127,3317346684
28,15,7,Jits_ISO_8,3,5,63,98,3317367144
28,15,7,Jits_ISO_8,0,1,48,51,3318023676
28,15,7,Jits_ISO_8,1,5,56,103,3318066568
28,15,7,Jits_ISO_8,2,5,80,127,3318126896
28,15,7,Jits_ISO_8,3,5,63,98,3318196504
28,15,7,Jits_ISO_8,0,1,48,50,3318823308
28,15,7,Jits_ISO_8,1,5,56,103,3318867272
28,15,7,Jits_ISO_8,2,5,80,127,3318896876
28,15,7,Jits_ISO_8,3,5,63,98,3318926836
28,15,7,Jits_ISO_8,0,1,48,48,3319643864
28,15,7,Jits_ISO_8,1,5,56,103,3319706988
28,15,7,Jits_ISO_8,2,5,80,127,3319726328
28,15,7,Jits_ISO_8,3,5,63,98,3319787000
28,15,7,Jits_ISO_8,0,1,48,46,3320469732
28,15,7,Jits_ISO_8,1,5,80,127,3320586776
28,15,7,Jits_ISO_8,2,5,56,103,3320596824
28,15,7,Jits_ISO_8,3,5,63,98,3320606944
28,15,7,Jits_ISO_8,0,1,48,40,3321312220
28,15,7,Jits_ISO_8,1,5,56,103,3321346348
28,15,7,Jits_ISO_8,2,5,80,127,3321387336
28,15,7,Jits_ISO_8,3,5,63,98,3321416948
28,15,7,Jits_ISO_8,0,1,48,42,3322109548
28,15,7,Jits_ISO_8,1,5,56,103,3322116396
28,15,7,Jits_ISO_8,2,5,63,98,3322147044
28,15,7,Jits_ISO_8,3,5,80,127,3322187008
28,15,7,Jits_ISO_8,0,1,48,45,3322845876
28,15,7,Jits_ISO_8,1,5,80,127,3322867028
28,15,7,Jits_ISO_8,2,5,63,98,3322917308
28,15,7,Jits_ISO_8,3,5,56,103,3322936868
28,15,7,Jits_ISO_8,0,1,48,36,3323604504
28,15,7,Jits_ISO_8,1,5,56,103,3323696700
28,15,7,Jits_ISO_8,2,5,80,127,3323767072
28,15,7,Jits_ISO_8,3,5,63,98,3323826784
28,15,7,Jits_ISO_8,0,1,48,40,3324449108
28,15,7,Jits_ISO_8,1,5,80,127,3324497412
28,15,7,Jits_ISO_8,2,5,63,98,3324587460
28,15,7,Jits_ISO_8,3,5,56,103,3324606944
28,15,7,Jits_ISO_8,0,1,48,41,3325289680
28,15,7,Jits_ISO_8,1,5,63,98,3325316604
28,15,7,Jits_ISO_8,2,5,56,103,3325336916
28,15,7,Jits_ISO_8,3,5,80,127,3325376928
28,15,7,Jits_ISO_8,0,1,48,45,3326026984
28,15,7,Jits_ISO_8,1,5,80,127,3326077352
28,15,7,Jits_ISO_8,2,5,63,98,3326096768
28,15,7,Jits_ISO_8,3,5,56,103,3326176620
28,15,7,Jits_ISO_8,0,1,48,47,3326859124
28,15,7,Jits_ISO_8,1,5,63,98,3326866796
28,15,7,Jits_ISO_8,2,5,56,103,3326977516
28,15,7,Jits_ISO_8,3,5,80,127,3326980436
28,15,7,Jits_ISO_8,0,1,48,41,3327618964
28,15,7,Jits_ISO_8,1,5,63,98,3327686952
28,15,7,Jits_ISO_8,2,5,56,103,3327697220
28,15,7,Jits_ISO_8,3,5,80,127,3327700360
28,15,7,Jits_ISO_8,0,1,48,37,3328406752
28,15,7,Jits_ISO_8,1,5,56,103,3328467460
28,15,7,Jits_ISO_8,2,5,80,127,3328587056
28,15,7,Jits_ISO_8,3,5,63,98,3328626996
28,15,7,Jits_ISO_8,0,1,48,29,3329254720
28,15,7,Jits_ISO_8,1,5,56,103,3329286432
28,15,7,Jits_ISO_8,2,5,80,127,3329367636
28,15,7,Jits_ISO_8,3,5,63,98,3329386976
28,15,7,Jits_ISO_8,0,1,48,45,3330071848
28,15,7,Jits_ISO_8,1,5,56,103,3330087388
28,15,7,Jits_ISO_8,2,5,63,98,3330196864
28,15,7,Jits_ISO_8,3,5,80,127,3330200152
28,15,7,Jits_ISO_8,0,1,48,35,3330904256
28,15,7,Jits_ISO_8,1,5,56,103,3330916708
28,15,7,Jits_ISO_8,2,5,80,127,3330946384
28,15,7,Jits_ISO_8,3,5,63,98,3330966920
28,15,7,Jits_ISO_8,0,1,48,33,3331657056
28,15,7,Jits_ISO_8,1,5,63,98,3331696936
28,15,7,Jits_ISO_8,2,5,56,103,3331707280
28,15,7,Jits_ISO_8,3,5,80,127,3331716432
28,15,7,Jits_ISO_8,0,1,48,39,3332414380
28,15,7,Jits_ISO_8,1,5,80,127,3332486452
28,15,7,Jits_ISO_8,2,5,56,103,3332536640
28,15,7,Jits_ISO_8,3,5,63,98,3332576504
28,15,7,Jits_ISO_8,0,1,48,36,3333249640
28,15,7,Jits_ISO_8,1,5,80,127,3333306612
28,15,7,Jits_ISO_8,2,5,63,98,3333327296
28,15,7,Jits_ISO_8,3,5,56,103,3333377480
28,15,7,Jits_ISO_8,0,1,48,35,3334099696
28,15,7,Jits_ISO_8,1,5,80,127,3334116808
28,15,7,Jits_ISO_8,2,5,56,103,3334146484
28,15,7,Jits_ISO_8,3,5,63,98,3334217220
28,15,7,Jits_ISO_8,0,1,48,48,3334925112
28,15,7,Jits_ISO_8,1,5,56,103,3334966720
28,15,7,Jits_ISO_8,2,5,80,127,3334976840
28,15,7,Jits_ISO_8,3,5,63,98,3335016728
28,15,7,Jits_ISO_8,0,5,56,103,3335677428
28,15,7,Jits_ISO_8,1,5,63,98,3335696692
28,15,7,Jits_ISO_8,2,1,48,49,3335710824
28,15,7,Jits_ISO_8,3,5,80,127,3335767288
28,15,7,Jits_ISO_8,0,1,48,42,3336455544
28,15,7,Jits_ISO_8,1,5,63,98,3336496552
28,15,7,Jits_ISO_8,2,5,80,127,3336557176
28,15,7,Jits_ISO_8,3,5,56,103,3336577340
28,15,7,Jits_ISO_8,0,1,48,41,3337232164
28,15,7,Jits_ISO_8,1,5,80,127,3337287220
28,15,7,Jits_ISO_8,2,5,56,103,3337316672
28,15,7,Jits_ISO_8,3,5,63,98,3337346332
28,15,7,Jits_ISO_8,0,1,48,45,3338065928
28,15,7,Jits_ISO_8,1,5,56,103,3338086776
28,15,7,Jits_ISO_8,2,5,63,98,3338147168
28,15,7,Jits_ISO_8,3,5,80,127,3338206572
28,15,7,Jits_ISO_8,0,1,48,47,3338878592
28,15,7,Jits_ISO_8,1,5,80,127,3338906940
28,15,7,Jits_ISO_8,2,5,56,103,3338926428
28,15,7,Jits_ISO_8,3,5,63,98,3338996992
28,15,7,Jits_ISO_8,0,1,48,43,3339654088
28,15,7,Jits_ISO_8,1,5,80,127,3339707172
28,15,7,Jits_ISO_8,2,5,63,98,3339727188
28,15,7,Jits_ISO_8,3,5,56,103,3339757068
28,15,7,Jits_ISO_8,0,5,80,127,3340497224
28,15,7,Jits_ISO_8,1,1,48,38,3340510904
28,15,7,Jits_ISO_8,2,5,63,98,3340516704
28,15,7,Jits_ISO_8,3,5,56,103,3340577096
28,15,7,Jits_ISO_8,0,5,80,127,3341297096
28,15,7,Jits_ISO_8,1,1,48,20,3341306364
28,15,7,Jits_ISO_8,2,5,56,103,3341397292
28,15,7,Jits_ISO_8,3,5,63,98,3341427100
28,15,7,Jits_ISO_8,0,5,63,98,3342086488
28,15,7,Jits_ISO_8,1,5,80,127,3342136616
28,15,7,Jits_ISO_8,2,1,48,42,3342144836
28,15,7,Jits_ISO_8,3,5,56,103,3342157168
28,15,7,Jits_ISO_8,0,1,48,33,3342905496
28,15,7,Jits_ISO_8,1,5,80,127,3342927192
28,15,7,Jits_ISO_8,2,5,56,103,3342956940
28,15,7,Jits_ISO_8,3,5,63,98,3342960080
28,15,7,Jits_ISO_8,0,1,48,32,3343708288
28,15,7,Jits_ISO_8,1,5,63,98,3343756788
28,15,7,Jits_ISO_8,2,5,56,103,3343796800
28,15,7,Jits_ISO_8,3,5,80,127,3343817020
28,15,7,Jits_ISO_8,0,5,80,127,3344497020
28,15,7,Jits_ISO_8,1,1,48,45,3344569592
28,15,7,Jits_ISO_8,2,5,63,98,3344576888
28,15,7,Jits_ISO_8,3,5,56,103,3344616752
28,15,7,Jits_ISO_8,0,1,48,46,3345268316
28,15,7,Jits_ISO_8,1,5,63,98,3345317120
28,15,7,Jits_ISO_8,2,5,80,127,3345397204
28,15,7,Jits_ISO_8,3,5,56,103,3345416764
28,15,7,Jits_ISO_8,0,1,48,48,3346118908
28,15,7,Jits_ISO_8,1,5,56,103,3346156920
28,15,7,Jits_ISO_8,2,5,63,98,3346167116
28,15,7,Jits_ISO_8,3,5,80,127,3346207056
28,15,7,Jits_ISO_8,0,5,56,103,3346876768
28,15,7,Jits_ISO_8,1,5,80,127,3346879760
28,15,7,Jits_ISO_8,2,1,48,30,3346900040
28,15,7,Jits_ISO_8,3,5,63,98,3347017024
28,15,7,Jits_ISO_8,0,1,48,50,3347654112
28,15,7,Jits_ISO_8,1,5,56,103,3347667260
28,15,7,Jits_ISO_8,2,5,63,98,3347757384
28,15,7,Jits_ISO_8,3,5,80,127,3347827088
28,15,7,Jits_ISO_8,0,1,48,50,3348415628
28,15,7,Jits_ISO_8,1,5,63,98,3348546924
28,15,7,Jits_ISO_8,2,5,80,127,3348550212
28,15,7,Jits_ISO_8,3,5,56,103,3348607316
28,15,7,Jits_ISO_8,0,1,48,48,3349256764
28,15,7,Jits_ISO_8,1,5,80,127,3349386716
28,15,7,Jits_ISO_8,2,5,56,103,3349407100
28,15,7,Jits_ISO_8,3,5,63,98,3349417520
28,15,7,Jits_ISO_8,0,5,56,103,3350097220
28,15,7,Jits_ISO_8,1,5,63,98,3350106744
28,15,7,Jits_ISO_8,2,1,48,39,3350132184
28,15,7,Jits_ISO_8,3,5,80,127,3350177016
28,15,7,Jits_ISO_8,0,1,48,48,3350875488
28,15,7,Jits_ISO_8,1,5,80,127,3350897088
28,15,7,Jits_ISO_8,2,5,56,103,3350947068
28,15,7,Jits_ISO_8,3,5,63,98,3350997476
28,15,7,Jits_ISO_8,0,1,48,48,3351649492
28,15,7,Jits_ISO_8,1,5,56,103,3351776576
28,15,7,Jits_ISO_8,2,5,63,98,3351786772
28,15,7,Jits_ISO_8,3,5,80,127,3351826860
28,15,7,Jits_ISO_8,0,1,48,50,3352475364
28,15,7,Jits_ISO_8,1,5,56,103,3352517268
28,15,7,Jits_ISO_8,2,5,63,98,3352556984
28,15,7,Jits_ISO_8,3,5,80,127,3352607096
28,15,7,Jits_ISO_8,0,1,48,54,3353244884
28,15,7,Jits_ISO_8,1,5,80,127,3353276672
28,15,7,Jits_ISO_8,2,5,56,103,3353326876
28,15,7,Jits_ISO_8,3,5,63,98,3353346496
28,15,7,Jits_ISO_8,0,1,48,42,3354025016
28,15,7,Jits_ISO_8,1,5,80,127,3354086720
28,15,7,Jits_ISO_8,2,5,63,98,3354147392
28,15,7,Jits_ISO_8,3,5,56,103,3354227064
28,15,7,Jits_ISO_8,0,1,48,48,3354812596
28,15,7,Jits_ISO_8,1,5,80,127,3354867024
28,15,7,Jits_ISO_8,2,5,56,103,3354906892
28,15,7,Jits_ISO_8,3,5,63,98,3354926512
28,15,7,Jits_ISO_8,0,1,48,51,3355616956
28,15,7,Jits_ISO_8,1,5,56,103,3355716864
28,15,7,Jits_ISO_8,2,5,80,127,3355727360
28,15,7,Jits_ISO_8,3,5,63,98,3355767296
28,15,7,Jits_ISO_8,0,1,48,44,3356407444
28,15,7,Jits_ISO_8,1,5,56,103,3356587524
28,15,7,Jits_ISO_8,2,5,63,98,3356627460
28,15,7,Jits_ISO_8,3,5,80,127,3356630676
28,15,7,Jits_ISO_8,0,5,63,98,3357276520
28,15,7,Jits_ISO_8,1,5,80,127,3357316460
28,15,7,Jits_ISO_8,2,1,48,40,3357322272
28,15,7,Jits_ISO_8,3,5,56,103,3357387256
28,15,7,Jits_ISO_8,0,1,48,47,3358062776
28,15,7,Jits_ISO_8,1,5,63,98,3358067152
28,15,7,Jits_ISO_8,2,5,56,103,3358147028
28,15,7,Jits_ISO_8,3,5,80,127,3358207328
28,15,7,Jits_ISO_8,0,1,48,51,3358863832
28,15,7,Jits_ISO_8,1,5,80,127,3358877128
28,15,7,Jits_ISO_8,2,5,63,98,3358927332
28,15,7,Jits_ISO_8,3,5,56,103,3358956856
28,15,7,Jits_ISO_8,0,5,56,103,3359666500
28,15,7,Jits_ISO_8,1,1,48,52,3359688648
28,15,7,Jits_ISO_8,2,5,63,98,3359716696
28,15,7,Jits_ISO_8,3,5,80,127,3359726820
28,15,7,Jits_ISO_8,0,1,48,54,3360431932
28,15,7,Jits_ISO_8,1,5,56,103,3360476476
28,15,7,Jits_ISO_8,2,5,63,98,3360587224
28,15,7,Jits_ISO_8,3,5,80,127,3360606560
28,15,7,Jits_ISO_8,0,1,48,42,3361266268
28,15,7,Jits_ISO_8,1,5,63,98,3361277304
28,15,7,Jits_ISO_8,2,5,80,127,3361326388
28,15,7,Jits_ISO_8,3,5,56,103,3361416604
28,15,7,Jits_ISO_8,0,5,63,98,3362066980
28,15,7,Jits_ISO_8,1,1,48,47,3362083800
28,15,7,Jits_ISO_8,2,5,80,127,3362096576
28,15,7,Jits_ISO_8,3,5,56,103,3362186720
28,15,7,Jits_ISO_8,0,1,48,37,3362847324
28,15,7,Jits_ISO_8,1,5,63,98,3362866528
28,15,7,Jits_ISO_8,2,5,56,103,3362876652
28,15,7,Jits_ISO_8,3,5,80,127,3362977132
28,15,7,Jits_ISO_8,0,1,48,51,3363622512
28,15,7,Jits_ISO_8,1,5,63,98,3363766564
28,15,7,Jits_ISO_8,2,5,80,127,3363797364
28,15,7,Jits_ISO_8,3,5,56,103,3363827260
28,15,7,Jits_ISO_8,0,1,48,42,3364457328
28,15,7,Jits_ISO_8,1,5,80,127,3364586960
28,15,7,Jits_ISO_8,2,5,63,98,3364597228
28,15,7,Jits_ISO_8,3,5,56,103,3364626756
28,15,7,Jits_ISO_8,0,1,48,43,3365272096
28,15,7,Jits_ISO_8,1,5,80,127,3365287412
28,15,7,Jits_ISO_8,2,5,63,98,3365306604
28,15,7,Jits_ISO_8,3,5,56,103,3365357176
28,15,7,Jits_ISO_8,0,1,48,40,3366067912
28,15,7,Jits_ISO_8,1,5,63,98,3366116936
28,15,7,Jits_ISO_8,2,5,80,127,3366177092
28,15,7,Jits_ISO_8,3,5,56,103,3366196804
28,15,7,Jits_ISO_8,0,1,48,46,3366872712
28,15,7,Jits_ISO_8,1,5,63,98,3366876492
28,15,7,Jits_ISO_8,2,5,56,103,3366926992
28,15,7,Jits_ISO_8,3,5,80,127,3366937116
28,15,7,Jits_ISO_8,0,1,48,35,3367616684
28,15,7,Jits_ISO_8,1,5,56,103,3367707140
28,15,7,Jits_ISO_8,2,5,80,127,3367717320
28,15,7,Jits_ISO_8,3,5,63,98,3367816620
28,15,7,Jits_ISO_8,0,1,48,37,3368448008
28,15,7,Jits_ISO_8,1,5,80,127,3368467060
28,15,7,Jits_ISO_8,2,5,63,98,3368477036
28,15,7,Jits_ISO_8,3,5,56,103,3368626588
28,15,7,Jits_ISO_8,0,1,48,41,3369239016
28,15,7,Jits_ISO_8,1,5,63,98,3369276880
28,15,7,Jits_ISO_8,2,5,80,127,3369316844
28,15,7,Jits_ISO_8,3,5,56,103,3369396624
28,15,7,Jits_ISO_8,0,1,48,44,3370061972
28,15,7,Jits_ISO_8,1,5,56,103,3370067244
28,15,7,Jits_ISO_8,2,5,80,127,3370166584
28,15,7,Jits_ISO_8,3,5,63,98,3370187192
28,15,7,Jits_ISO_8,0,1,48,39,3370879068
28,15,7,Jits_ISO_8,1,5,80,127,3370926520
28,15,7,Jits_ISO_8,2,5,56,103,3370936716
28,15,7,Jits_ISO_8,3,5,63,98,3371026908
28,15,7,Jits_ISO_8,0,1,48,50,3371706656
28,15,7,Jits_ISO_8,1,5,56,103,3371727204
28,15,7,Jits_ISO_8,2,5,63,98,3371746692
28,15,7,Jits_ISO_8,3,5,80,127,3371826472
28,15,7,Jits_ISO_8,0,5,63,98,3372476728
28,15,7,Jits_ISO_8,1,1,48,48,3372564956
28,15,7,Jits_ISO_8,2,5,56,103,3372566848
28,15,7,Jits_ISO_8,3,5,80,127,3372569696
28,15,7,Jits_ISO_8,0,5,56,103,3373307292
28,15,7,Jits_ISO_8,1,1,48,52,3373357764
28,15,7,Jits_ISO_8,2,5,80,127,3373366632
28,15,7,Jits_ISO_8,3,5,63,98,3373376780
28,15,7,Jits_ISO_8,0,1,48,50,3374142716
28,15,7,Jits_ISO_8,1,5,80,127,3374157136
28,15,7,Jits_ISO_8,2,5,56,103,3374167628
28,15,7,Jits_ISO_8,3,5,63,98,3374170616
28,15,7,Jits_ISO_8,0,5,56,103,3374917056
28,15,7,Jits_ISO_8,1,5,80,127,3374927180
28,15,7,Jits_ISO_8,2,1,48,42,3374934040
28,15,7,Jits_ISO_8,3,5,63,98,3374946736
28,15,7,Jits_ISO_8,0,5,63,98,3375687036
28,15,7,Jits_ISO_8,1,1,48,48,3375709412
28,15,7,Jits_ISO_8,2,5,80,127,3375746672
28,15,7,Jits_ISO_8,3,5,56,103,3375796724
28,15,7,Jits_ISO_8,0,1,48,48,3376515564
28,15,7,Jits_ISO_8,1,5,63,98,3376566608
28,15,7,Jits_ISO_8,2,5,56,103,3376576956
28,15,7,Jits_ISO_8,3,5,80,127,3376626920
28,15,7,Jits_ISO_8,0,5,63,98,3377267056
28,15,7,Jits_ISO_8,1,5,80,127,3377286692
28,15,7,Jits_ISO_8,2,5,56,103,3377296664
28,15,7,Jits_ISO_8,3,1,48,31,3377352512
28,15,7,Jits_ISO_8,0,5,63,98,3378066756
28,15,7,Jits_ISO_8,1,5,80,127,3378070044
28,15,7,Jits_ISO_8,2,1,48,46,3378101932
28,15,7,Jits_ISO_8,3,5,56,103,3378106688
28,15,7,Jits_ISO_8,0,1,48,49,3378804584
28,15,7,Jits_ISO_8,1,5,63,98,3378937152
28,15,7,Jits_ISO_8,2,5,80,127,3378966904
28,15,7,Jits_ISO_8,3,5,56,103,3378977248
28,15,7,Jits_ISO_8,0,1,48,40,3379640648
28,15,7,Jits_ISO_8,1,5,56,103,3379686828
28,15,7,Jits_ISO_8,2,5,80,127,3379716580
28,15,7,Jits_ISO_8,3,5,63,98,3379747136
28,15,7,Jits_ISO_8,0,1,48,46,3380428892
28,15,7,Jits_ISO_8,1,5,63,98,3380586792
28,15,7,Jits_ISO_8,2,5,56,103,3380626652
28,15,7,Jits_ISO_8,3,5,80,127,3380629796
28,15,7,Jits_ISO_8,0,5,80,127,3381287520
28,15,7,Jits_ISO_8,1,1,48,39,3381346340
28,15,7,Jits_ISO_8,2,5,56,103,3381367260
28,15,7,Jits_ISO_8,3,5,63,98,3381417464
28,15,7,Jits_ISO_8,0,5,80,127,3382066568
28,15,7,Jits_ISO_8,1,5,56,103,3382086980
28,15,7,Jits_ISO_8,2,1,48,39,3382118340
28,15,7,Jits_ISO_8,3,5,63,98,3382177328
28,15,7,Jits_ISO_8,0,1,48,48,3382815604
28,15,7,Jits_ISO_8,1,5,80,127,3382907212
28,15,7,Jits_ISO_8,2,5,63,98,3382947136
28,15,7,Jits_ISO_8,3,5,56,103,3382987224
28,15,7,Jits_ISO_8,0,1,48,41,3383671224
28,15,7,Jits_ISO_8,1,5,63,98,3383677176
28,15,7,Jits_ISO_8,2,5,80,127,3383736596
28,15,7,Jits_ISO_8,3,5,56,103,3383767452
28,15,7,Jits_ISO_8,0,5,56,103,3384477116
28,15,7,Jits_ISO_8,1,1,48,54,3384498064
28,15,7,Jits_ISO_8,2,5,80,127,3384506860
28,15,7,Jits_ISO_8,3,5,63,98,3384596844
28,15,7,Jits_ISO_8,0,5,56,103,3385287248
28,15,7,Jits_ISO_8,1,1,48,50,3385311272
28,15,7,Jits_ISO_8,2,5,80,127,3385396564
28,15,7,Jits_ISO_8,3,5,63,98,3385427368
28,15,7,Jits_ISO_8,0,5,56,103,3386137028
28,15,7,Jits_ISO_8,1,1,48,44,3386161276
28,15,7,Jits_ISO_8,2,5,63,98,3386197216
28,15,7,Jits_ISO_8,3,5,80,127,3386227044
28,15,7,Jits_ISO_8,0,1,48,45,3386906488
28,15,7,Jits_ISO_8,1,5,56,103,3386908204
28,15,7,Jits_ISO_8,2,5,63,98,3386976568
28,15,7,Jits_ISO_8,3,5,80,127,3386997028
28,15,7,Jits_ISO_8,0,5,80,127,3387677128
28,15,7,Jits_ISO_8,1,5,63,98,3387696540
28,15,7,Jits_ISO_8,2,1,48,41,3387740364
28,15,7,Jits_ISO_8,3,5,56,103,3387746612
28,15,7,Jits_ISO_8,0,9999,9999,9999,3292944464
28,15,7,Jits_ISO_8,1,9999,9999,9999,3293744240
28,15,7,Jits_ISO_8,2,9999,9999,9999,3294544956
28,15,7,Jits_ISO_8,3,9999,9999,9999,3295344748
28,15,7,Jits_ISO_8,4,9999,9999,9999,3296144440
28,15,7,Jits_ISO_8,5,9999,9999,9999,3296944224
28,15,7,Jits_ISO_8,6,9999,9999,9999,3297744980
28,15,7,Jits_ISO_8,7,9999,9999,9999,3298544708
28,15,7,Jits_ISO_8,8,9999,9999,9999,3299344496
28,15,7,Jits_ISO_8,9,9999,9999,9999,3300144196
28,15,7,Jits_ISO_8,10,9999,9999,9999,3300944996
28,15,7,Jits_ISO_8,11,9999,9999,9999,3301744708
28,15,7,Jits_ISO_8,12,9999,9999,9999,3302544500
28,15,7,Jits_ISO_8,13,9999,9999,9999,3303344204
28,15,7,Jits_ISO_8,14,9999,9999,9999,3304144952
28,15,7,Jits_ISO_8,15,9999,9999,9999,3304944724
28,15,7,Jits_ISO_8,16,9999,9999,9999,3305744492
28,15,7,Jits_ISO_8,17,9999,9999,9999,3306544208
28,15,7,Jits_ISO_8,18,9999,9999,9999,3307344992
28,15,7,Jits_ISO_8,19,9999,9999,9999,3308144704
28,15,7,Jits_ISO_8,20,9999,9999,9999,3308944484
28,15,7,Jits_ISO_8,21,9999,9999,9999,3309744192
28,15,7,Jits_ISO_8,22,9999,9999,9999,3310544956
28,15,7,Jits_ISO_8,23,9999,9999,9999,3311344740
28,15,7,Jits_ISO_8,24,9999,9999,9999,3312144448
28,15,7,Jits_ISO_8,25,9999,9999,9999,3312944228
28,15,7,Jits_ISO_8,26,9999,9999,9999,3313745012
28,15,7,Jits_ISO_8,27,9999,9999,9999,3314544720
28,15,7,Jits_ISO_8,28,9999,9999,9999,3315344500
28,15,7,Jits_ISO_8,29,9999,9999,9999,3316144220
28,15,7,Jits_ISO_8,30,9999,9999,9999,3316944968
28,15,7,Jits_ISO_8,31,9999,9999,9999,3317744756
28,15,7,Jits_ISO_8,32,9999,9999,9999,3318544464
28,15,7,Jits_ISO_8,33,9999,9999,9999,3319344240
28,15,7,Jits_ISO_8,34,9999,9999,9999,3320144948
28,15,7,Jits_ISO_8,35,9999,9999,9999,3320944740
28,15,7,Jits_ISO_8,36,9999,9999,9999,3321744456
28,15,7,Jits_ISO_8,37,9999,9999,9999,3322544240
28,15,7,Jits_ISO_8,38,9999,9999,9999,3323344992
28,15,7,Jits_ISO_8,39,9999,9999,9999,3324144708
28,15,7,Jits_ISO_8,40,9999,9999,9999,3324944492
28,15,7,Jits_ISO_8,41,9999,9999,9999,3325744204
28,15,7,Jits_ISO_8,42,9999,9999,9999,3326544980
28,15,7,Jits_ISO_8,43,9999,9999,9999,3327344756
28,15,7,Jits_ISO_8,44,9999,9999,9999,3328144452
28,15,7,Jits_ISO_8,45,9999,9999,9999,3328944240
28,15,7,Jits_ISO_8,46,9999,9999,9999,3329744972
28,15,7,Jits_ISO_8,47,9999,9999,9999,3330544748
28,15,7,Jits_ISO_8,48,9999,9999,9999,3331344456
28,15,7,Jits_ISO_8,49,9999,9999,9999,3332144232
28,15,7,Jits_ISO_8,50,9999,9999,9999,3332945012
28,15,7,Jits_ISO_8,51,9999,9999,9999,3333744720
28,15,7,Jits_ISO_8,52,9999,9999,9999,3334544508
28,15,7,Jits_ISO_8,53,9999,9999,9999,3335344224
28,15,7,Jits_ISO_8,54,9999,9999,9999,3336144976
28,15,7,Jits_ISO_8,55,9999,9999,9999,3336944704
28,15,7,Jits_ISO_8,56,9999,9999,9999,3337744484
28,15,7,Jits_ISO_8,57,9999,9999,9999,3338544196
28,15,7,Jits_ISO_8,58,9999,9999,9999,3339344976
28,15,7,Jits_ISO_8,59,9999,9999,9999,3340144760
28,15,7,Jits_ISO_8,60,9999,9999,9999,3340944468
28,15,7,Jits_ISO_8,61,9999,9999,9999,3341744196
28,15,7,Jits_ISO_8,62,9999,9999,9999,3342544968
28,15,7,Jits_ISO_8,63,9999,9999,9999,3343344740
28,15,7,Jits_ISO_8,64,9999,9999,9999,3344144456
28,15,7,Jits_ISO_8,65,9999,9999,9999,3344944244
28,15,7,Jits_ISO_8,66,9999,9999,9999,3345744972
28,15,7,Jits_ISO_8,67,9999,9999,9999,3346544760
28,15,7,Jits_ISO_8,68,9999,9999,9999,3347344456
28,15,7,Jits_ISO_8,69,9999,9999,9999,3348144188
28,15,7,Jits_ISO_8,70,9999,9999,9999,3348945012
28,15,7,Jits_ISO_8,71,9999,9999,9999,3349744732
28,15,7,Jits_ISO_8,72,9999,9999,9999,3350544440
28,15,7,Jits_ISO_8,73,9999,9999,9999,3351344240
28,15,7,Jits_ISO_8,74,9999,9999,9999,3352144956
28,15,7,Jits_ISO_8,75,9999,9999,9999,3352944744
28,15,7,Jits_ISO_8,76,9999,9999,9999,3353744448
28,15,7,Jits_ISO_8,77,9999,9999,9999,3354544236
28,15,7,Jits_ISO_8,78,9999,9999,9999,3355344988
28,15,7,Jits_ISO_8,79,9999,9999,9999,3356144700
28,15,7,Jits_ISO_8,80,9999,9999,9999,3356944484
28,15,7,Jits_ISO_8,81,9999,9999,9999,3357744192
28,15,7,Jits_ISO_8,82,9999,9999,9999,3358544976
28,15,7,Jits_ISO_8,83,9999,9999,9999,3359344756
28,15,7,Jits_ISO_8,84,9999,9999,9999,3360144456
28,15,7,Jits_ISO_8,85,9999,9999,9999,3360944184
28,15,7,Jits_ISO_8,86,9999,9999,9999,3361745012
28,15,7,Jits_ISO_8,87,9999,9999,9999,3362544716
28,15,7,Jits_ISO_8,88,9999,9999,9999,3363344492
28,15,7,Jits_ISO_8,89,9999,9999,9999,3364144212
28,15,7,Jits_ISO_8,90,9999,9999,9999,3364945000
28,15,7,Jits_ISO_8,91,9999,9999,9999,3365744700
28,15,7,Jits_ISO_8,92,9999,9999,9999,3366544492
28,15,7,Jits_ISO_8,93,9999,9999,9999,3367344196
28,15,7,Jits_ISO_8,94,9999,9999,9999,3368144952
28,15,7,Jits_ISO_8,95,9999,9999,9999,3368944728
28,15,7,Jits_ISO_8,96,9999,9999,9999,3369744436
28,15,7,Jits_ISO_8,97,9999,9999,9999,3370544220
28,15,7,Jits_ISO_8,98,9999,9999,9999,3371345000
28,15,7,Jits_ISO_8,99,9999,9999,9999,3372144716
28,15,7,Jits_ISO_8,100,9999,9999,9999,3372944488
28,15,7,Jits_ISO_8,101,9999,9999,9999,3373744200
28,15,7,Jits_ISO_8,102,9999,9999,9999,3374545016
28,15,7,Jits_ISO_8,103,9999,9999,9999,3375344720
28,15,7,Jits_ISO_8,104,9999,9999,9999,3376144448
28,15,7,Jits_ISO_8,105,9999,9999,9999,3376944240
28,15,7,Jits_ISO_8,106,9999,9999,9999,3377745012
28,15,7,Jits_ISO_8,107,9999,9999,9999,3378544704
28,15,7,Jits_ISO_8,108,9999,9999,9999,3379344488
28,15,7,Jits_ISO_8,109,9999,9999,9999,3380144192
28,15,7,Jits_ISO_8,110,9999,9999,9999,3380944948
28,15,7,Jits_ISO_8,111,9999,9999,9999,3381744732
28,15,7,Jits_ISO_8,112,9999,9999,9999,3382544452
28,15,7,Jits_ISO_8,113,9999,9999,9999,3383344252
28,15,7,Jits_ISO_8,114,9999,9999,9999,3384144956
28,15,7,Jits_ISO_8,115,9999,9999,9999,3384944736
28,15,7,Jits_ISO_8,116,9999,9999,9999,3385744468
28,15,7,Jits_ISO_8,117,9999,9999,9999,3386544200
28,15,7,Jits_ISO_8,118,9999,9999,9999,3387344972
28,15,7,Jits_ISO_8,119,9999,9999,9999,3388144748
28,16,17,Jits_Phase_5,0,5,56,103,3399121216
28,16,17,Jits_Phase_5,1,5,63,98,3399124392
28,16,17,Jits_Phase_5,2,5,80,127,3399127368
28,16,17,Jits_Phase_5,0,5,56,103,3399620924
28,16,17,Jits_Phase_5,1,5,63,98,3399624100
28,16,17,Jits_Phase_5,2,5,80,127,3399627224
28,16,17,Jits_Phase_5,3,1,48,32,3399803492
28,16,17,Jits_Phase_5,0,5,56,103,3400120620
28,16,17,Jits_Phase_5,1,5,80,127,3400130888
28,16,17,Jits_Phase_5,2,5,63,98,3400151568
28,16,17,Jits_Phase_5,0,5,63,98,3400571124
28,16,17,Jits_Phase_5,1,1,48,42,3400589080
28,16,17,Jits_Phase_5,2,5,80,127,3400601012
28,16,17,Jits_Phase_5,3,5,56,103,3400611136
28,16,17,Jits_Phase_5,0,1,48,39,3401069716
28,16,17,Jits_Phase_5,1,5,80,127,3401131616
28,16,17,Jits_Phase_5,2,5,56,103,3401140544
28,16,17,Jits_Phase_5,3,5,63,98,3401171472
28,16,17,Jits_Phase_5,0,1,48,37,3401595232
28,16,17,Jits_Phase_5,1,5,63,98,3401620884
28,16,17,Jits_Phase_5,2,5,56,103,3401650632
28,16,17,Jits_Phase_5,3,5,80,127,3401660756
28,16,17,Jits_Phase_5,0,5,56,103,3402071572
28,16,17,Jits_Phase_5,1,1,48,39,3402079944
28,16,17,Jits_Phase_5,2,5,63,98,3402120496
28,16,17,Jits_Phase_5,3,5,80,127,3402141028
28,16,17,Jits_Phase_5,0,5,80,127,3402571336
28,16,17,Jits_Phase_5,1,1,48,43,3402573704
28,16,17,Jits_Phase_5,2,5,63,98,3402621528
28,16,17,Jits_Phase_5,3,5,56,103,3402661464
28,16,17,Jits_Phase_5,0,5,56,103,3403070804
28,16,17,Jits_Phase_5,1,1,48,50,3403083436
28,16,17,Jits_Phase_5,2,5,63,98,3403100396
28,16,17,Jits_Phase_5,3,5,80,127,3403171120
28,16,17,Jits_Phase_5,0,1,48,49,3403562416
28,16,17,Jits_Phase_5,1,5,56,103,3403570608
28,16,17,Jits_Phase_5,2,5,80,127,3403631024
28,16,17,Jits_Phase_5,3,5,63,98,3403660680
28,16,17,Jits_Phase_5,0,1,48,40,3404076692
28,16,17,Jits_Phase_5,1,5,56,103,3404080472
28,16,17,Jits_Phase_5,2,5,63,98,3404090816
28,16,17,Jits_Phase_5,3,5,80,127,3404130620
28,16,17,Jits_Phase_5,0,1,48,44,3404554488
28,16,17,Jits_Phase_5,1,5,63,98,3404570920
28,16,17,Jits_Phase_5,2,5,80,127,3404652068
28,16,17,Jits_Phase_5,3,5,56,103,3404661068
28,16,17,Jits_Phase_5,0,1,48,43,3405062100
28,16,17,Jits_Phase_5,1,5,63,98,3405120820
28,16,17,Jits_Phase_5,2,5,56,103,3405160752
28,16,17,Jits_Phase_5,3,5,80,127,3405164556
28,16,17,Jits_Phase_5,0,5,56,103,3405580532
28,16,17,Jits_Phase_5,1,1,48,51,3405581868
28,16,17,Jits_Phase_5,2,5,63,98,3405590944
28,16,17,Jits_Phase_5,3,5,80,127,3405630904
28,16,17,Jits_Phase_5,0,1,48,45,3406061604
28,16,17,Jits_Phase_5,1,5,56,103,3406071212
28,16,17,Jits_Phase_5,2,5,63,98,3406074280
28,16,17,Jits_Phase_5,3,5,80,127,3406090552
28,16,17,Jits_Phase_5,0,1,48,54,3406539608
28,16,17,Jits_Phase_5,1,5,80,127,3406581136
28,16,17,Jits_Phase_5,2,5,56,103,3406591332
28,16,17,Jits_Phase_5,3,5,63,98,3406661092
28,16,17,Jits_Phase_5,0,1,48,50,3407023324
28,16,17,Jits_Phase_5,1,5,63,98,3407070476
28,16,17,Jits_Phase_5,2,5,56,103,3407091232
28,16,17,Jits_Phase_5,3,5,80,127,3407170956
28,16,17,Jits_Phase_5,0,1,48,52,3407538116
28,16,17,Jits_Phase_5,1,5,56,103,3407580488
28,16,17,Jits_Phase_5,2,5,80,127,3407620424
28,16,17,Jits_Phase_5,3,5,63,98,3407630620
28,16,17,Jits_Phase_5,0,1,48,52,3408047464
28,16,17,Jits_Phase_5,1,5,80,127,3408071392
28,16,17,Jits_Phase_5,2,5,63,98,3408100772
28,16,17,Jits_Phase_5,3,5,56,103,3408140692
28,16,17,Jits_Phase_5,0,1,48,47,3408546608
28,16,17,Jits_Phase_5,1,5,56,103,3408591292
28,16,17,Jits_Phase_5,2,5,63,98,3408621264
28,16,17,Jits_Phase_5,3,5,80,127,3408671300
28,16,17,Jits_Phase_5,0,1,48,56,3409046428
28,16,17,Jits_Phase_5,1,5,80,127,3409090968
28,16,17,Jits_Phase_5,2,5,56,103,3409130904
28,16,17,Jits_Phase_5,3,5,63,98,3409141908
28,16,17,Jits_Phase_5,0,5,80,127,3409571316
28,16,17,Jits_Phase_5,1,1,48,48,3409599092
28,16,17,Jits_Phase_5,2,5,63,98,3409611248
28,16,17,Jits_Phase_5,3,5,56,103,3409670440
28,16,17,Jits_Phase_5,0,5,56,103,3410071004
28,16,17,Jits_Phase_5,1,5,80,127,3410081276
28,16,17,Jits_Phase_5,2,1,48,44,3410100132
28,16,17,Jits_Phase_5,3,5,63,98,3410161208
28,16,17,Jits_Phase_5,0,5,80,127,3410570544
28,16,17,Jits_Phase_5,1,1,48,35,3410594784
28,16,17,Jits_Phase_5,2,5,63,98,3410631224
28,16,17,Jits_Phase_5,3,5,56,103,3410660600
28,16,17,Jits_Phase_5,0,1,48,40,3411062552
28,16,17,Jits_Phase_5,1,5,56,103,3411071272
28,16,17,Jits_Phase_5,2,5,80,127,3411130840
28,16,17,Jits_Phase_5,3,5,63,98,3411170684
28,16,17,Jits_Phase_5,0,5,56,103,3411621300
28,16,17,Jits_Phase_5,1,1,48,42,3411622340
28,16,17,Jits_Phase_5,2,5,63,98,3411630360
28,16,17,Jits_Phase_5,3,5,80,127,3411633880
28,16,17,Jits_Phase_5,0,5,80,127,3412071084
28,16,17,Jits_Phase_5,1,1,48,49,3412104844
28,16,17,Jits_Phase_5,2,5,63,98,3412161280
28,16,17,Jits_Phase_5,3,5,56,103,3412171180
28,16,17,Jits_Phase_5,0,5,56,103,3412570380
28,16,17,Jits_Phase_5,1,5,63,98,3412573556
28,16,17,Jits_Phase_5,2,5,80,127,3412576456
28,16,17,Jits_Phase_5,3,1,48,44,3412631800
28,16,17,Jits_Phase_5,0,1,48,50,3413087556
28,16,17,Jits_Phase_5,1,5,80,127,3413091032
28,16,17,Jits_Phase_5,2,5,63,98,3413140860
28,16,17,Jits_Phase_5,3,5,56,103,3413170532
28,16,17,Jits_Phase_5,0,5,56,103,3413570940
28,16,17,Jits_Phase_5,1,5,80,127,3413581064
28,16,17,Jits_Phase_5,2,1,48,41,3413590404
28,16,17,Jits_Phase_5,3,5,63,98,3413651032
28,16,17,Jits_Phase_5,0,1,48,38,3414069452
28,16,17,Jits_Phase_5,1,5,56,103,3414080960
28,16,17,Jits_Phase_5,2,5,63,98,3414101568
28,16,17,Jits_Phase_5,3,5,80,127,3414160832
28,16,17,Jits_Phase_5,0,5,80,127,3414561064
28,16,17,Jits_Phase_5,1,1,48,49,3414570256
28,16,17,Jits_Phase_5,2,5,63,98,3414630984
28,16,17,Jits_Phase_5,3,5,56,103,3414651220
28,16,17,Jits_Phase_5,0,1,48,48,3415056668
28,16,17,Jits_Phase_5,1,5,80,127,3415081276
28,16,17,Jits_Phase_5,2,5,56,103,3415090496
28,16,17,Jits_Phase_5,3,5,63,98,3415101016
28,16,17,Jits_Phase_5,0,1,48,57,3415565408
28,16,17,Jits_Phase_5,1,5,80,127,3415571200
28,16,17,Jits_Phase_5,2,5,56,103,3415591288
28,16,17,Jits_Phase_5,3,5,63,98,3415660844
28,16,17,Jits_Phase_5,0,1,48,48,3416048828
28,16,17,Jits_Phase_5,1,5,56,103,3416080836
28,16,17,Jits_Phase_5,2,5,80,127,3416110440
28,16,17,Jits_Phase_5,3,5,63,98,3416130996
28,16,17,Jits_Phase_5,0,5,63,98,3416571152
28,16,17,Jits_Phase_5,1,1,48,51,3416581692
28,16,17,Jits_Phase_5,2,5,56,103,3416630564
28,16,17,Jits_Phase_5,3,5,80,127,3416661308
28,16,17,Jits_Phase_5,0,5,63,98,3417060936
28,16,17,Jits_Phase_5,1,5,80,127,3417064080
28,16,17,Jits_Phase_5,2,1,48,44,3417090060
28,16,17,Jits_Phase_5,3,5,56,103,3417151080
28,16,17,Jits_Phase_5,0,1,48,46,3417532924
28,16,17,Jits_Phase_5,1,5,56,103,3417580900
28,16,17,Jits_Phase_5,2,5,63,98,3417610724
28,16,17,Jits_Phase_5,3,5,80,127,3417650644
28,16,17,Jits_Phase_5,0,1,48,49,3418066536
28,16,17,Jits_Phase_5,1,5,63,98,3418081024
28,16,17,Jits_Phase_5,2,5,56,103,3418120740
28,16,17,Jits_Phase_5,3,5,80,127,3418140976
28,16,17,Jits_Phase_5,0,5,63,98,3418590524
28,16,17,Jits_Phase_5,1,1,48,44,3418591492
28,16,17,Jits_Phase_5,2,5,56,103,3418630456
28,16,17,Jits_Phase_5,3,5,80,127,3418640724
28,16,17,Jits_Phase_5,0,5,80,127,3419070944
28,16,17,Jits_Phase_5,1,1,48,49,3419079616
28,16,17,Jits_Phase_5,2,5,63,98,3419140324
28,16,17,Jits_Phase_5,3,5,56,103,3419161004
28,16,17,Jits_Phase_5,0,5,56,103,3419561200
28,16,17,Jits_Phase_5,1,1,48,42,3419571136
28,16,17,Jits_Phase_5,2,5,80,127,3419580828
28,16,17,Jits_Phase_5,3,5,63,98,3419620912
28,16,17,Jits_Phase_5,0,5,63,98,3420071224
28,16,17,Jits_Phase_5,1,5,80,127,3420090708
28,16,17,Jits_Phase_5,2,1,48,52,3420104464
28,16,17,Jits_Phase_5,3,5,56,103,3420130716
28,16,17,Jits_Phase_5,0,5,63,98,3420570976
28,16,17,Jits_Phase_5,1,1,48,52,3420581288
28,16,17,Jits_Phase_5,2,5,56,103,3420590676
28,16,17,Jits_Phase_5,3,5,80,127,3420600872
28,16,17,Jits_Phase_5,0,1,48,42,3421038928
28,16,17,Jits_Phase_5,1,5,80,127,3421070564
28,16,17,Jits_Phase_5,2,5,56,103,3421091248
28,16,17,Jits_Phase_5,3,5,63,98,3421120848
28,16,17,Jits_Phase_5,0,1,48,42,3421528020
28,16,17,Jits_Phase_5,1,5,56,103,3421641020
28,16,17,Jits_Phase_5,2,5,80,127,3421644160
28,16,17,Jits_Phase_5,3,5,63,98,3421660652
28,16,17,Jits_Phase_5,0,5,63,98,3422061072
28,16,17,Jits_Phase_5,1,5,56,103,3422090820
28,16,17,Jits_Phase_5,2,1,48,41,3422100088
28,16,17,Jits_Phase_5,3,5,80,127,3422151052
28,16,17,Jits_Phase_5,0,1,48,47,3422592928
28,16,17,Jits_Phase_5,1,5,63,98,3422640456
28,16,17,Jits_Phase_5,2,5,56,103,3422650652
28,16,17,Jits_Phase_5,3,5,80,127,3422661068
28,16,17,Jits_Phase_5,0,1,48,50,3423090744
28,16,17,Jits_Phase_5,1,5,56,103,3423101548
28,16,17,Jits_Phase_5,2,5,80,127,3423130924
28,16,17,Jits_Phase_5,3,5,63,98,3423141492
28,16,17,Jits_Phase_5,0,1,48,46,3423581352
28,16,17,Jits_Phase_5,1,5,63,98,3423641008
28,16,17,Jits_Phase_5,2,5,56,103,3423651280
28,16,17,Jits_Phase_5,3,5,80,127,3423670692
28,16,17,Jits_Phase_5,0,5,56,103,3424071020
28,16,17,Jits_Phase_5,1,1,48,46,3424110632
28,16,17,Jits_Phase_5,2,5,63,98,3424130580
28,16,17,Jits_Phase_5,3,5,80,127,3424134092
28,16,17,Jits_Phase_5,0,1,48,46,3424584672
28,16,17,Jits_Phase_5,1,5,80,127,3424591072
28,16,17,Jits_Phase_5,2,5,56,103,3424600520
28,16,17,Jits_Phase_5,3,5,63,98,3424670944
28,16,17,Jits_Phase_5,0,5,80,127,3425080688
28,16,17,Jits_Phase_5,1,1,48,48,3425119352
28,16,17,Jits_Phase_5,2,5,56,103,3425151504
28,16,17,Jits_Phase_5,3,5,63,98,3425160580
28,16,17,Jits_Phase_5,0,5,63,98,3425621456
28,16,17,Jits_Phase_5,1,1,48,49,3425622868
28,16,17,Jits_Phase_5,2,5,56,103,3425630748
28,16,17,Jits_Phase_5,3,5,80,127,3425650980
28,16,17,Jits_Phase_5,0,5,80,127,3426070836
28,16,17,Jits_Phase_5,1,1,48,48,3426083468
28,16,17,Jits_Phase_5,2,5,63,98,3426131540
28,16,17,Jits_Phase_5,3,5,56,103,3426171180
28,16,17,Jits_Phase_5,0,1,48,43,3426594460
28,16,17,Jits_Phase_5,1,5,56,103,3426610524
28,16,17,Jits_Phase_5,2,5,63,98,3426620896
28,16,17,Jits_Phase_5,3,5,80,127,3426660908
28,16,17,Jits_Phase_5,0,5,56,103,3427071540
28,16,17,Jits_Phase_5,1,1,48,44,3427091748
28,16,17,Jits_Phase_5,2,5,80,127,3427100988
28,16,17,Jits_Phase_5,3,5,63,98,3427151360
28,16,17,Jits_Phase_5,0,1,48,42,3427593376
28,16,17,Jits_Phase_5,1,5,56,103,3427611080
28,16,17,Jits_Phase_5,2,5,63,98,3427650892
28,16,17,Jits_Phase_5,3,5,80,127,3427654408
28,16,17,Jits_Phase_5,0,1,48,29,3428084648
28,16,17,Jits_Phase_5,1,5,56,103,3428110676
28,16,17,Jits_Phase_5,2,5,63,98,3428120872
28,16,17,Jits_Phase_5,3,5,80,127,3428141332
28,16,17,Jits_Phase_5,0,5,56,103,3428570572
28,16,17,Jits_Phase_5,1,5,80,127,3428573716
28,16,17,Jits_Phase_5,2,1,48,31,3428608388
28,16,17,Jits_Phase_5,3,5,63,98,3428610356
28,16,17,Jits_Phase_5,0,1,48,41,3429038460
28,16,17,Jits_Phase_5,1,5,63,98,3429111224
28,16,17,Jits_Phase_5,2,5,56,103,3429140960
28,16,17,Jits_Phase_5,3,5,80,127,3429161340
28,16,17,Jits_Phase_5,0,5,80,127,3429581464
28,16,17,Jits_Phase_5,1,5,56,103,3429591436
28,16,17,Jits_Phase_5,2,5,63,98,3429600512
28,16,17,Jits_Phase_5,0,1,48,31,3430042344
28,16,17,Jits_Phase_5,1,5,56,103,3430080808
28,16,17,Jits_Phase_5,2,5,80,127,3430120668
28,16,17,Jits_Phase_5,3,5,63,98,3430150476
28,16,17,Jits_Phase_5,0,1,48,46,3430574308
28,16,17,Jits_Phase_5,1,5,63,98,3430590744
28,16,17,Jits_Phase_5,2,5,80,127,3430601016
28,16,17,Jits_Phase_5,3,5,56,103,3430611432
28,16,17,Jits_Phase_5,0,5,56,103,3431081280
28,16,17,Jits_Phase_5,1,1,48,43,3431092868
28,16,17,Jits_Phase_5,2,5,63,98,3431151176
28,16,17,Jits_Phase_5,3,5,80,127,3431161372
28,16,17,Jits_Phase_5,0,1,48,46,3431565352
28,16,17,Jits_Phase_5,1,5,80,127,3431591300
28,16,17,Jits_Phase_5,2,5,56,103,3431600376
28,16,17,Jits_Phase_5,3,5,63,98,3431650648
28,16,17,Jits_Phase_5,0,5,80,127,3432101316
28,16,17,Jits_Phase_5,1,1,48,35,3432117544
28,16,17,Jits_Phase_5,2,5,56,103,3432160580
28,16,17,Jits_Phase_5,3,5,63,98,3432191372
28,16,17,Jits_Phase_5,0,5,56,103,3432600932
28,16,17,Jits_Phase_5,1,5,80,127,3432604076
28,16,17,Jits_Phase_5,2,1,48,39,3432637232
28,16,17,Jits_Phase_5,3,5,63,98,3432641012
28,16,17,Jits_Phase_5,0,1,48,40,3433086712
28,16,17,Jits_Phase_5,1,5,56,103,3433131324
28,16,17,Jits_Phase_5,2,5,63,98,3433161148
28,16,17,Jits_Phase_5,3,5,80,127,3433171192
28,16,17,Jits_Phase_5,0,1,48,30,3433597256
28,16,17,Jits_Phase_5,1,5,63,98,3433641340
28,16,17,Jits_Phase_5,2,5,80,127,3433650564
28,16,17,Jits_Phase_5,3,5,56,103,3433660760
28,16,17,Jits_Phase_5,0,5,80,127,3434090976
28,16,17,Jits_Phase_5,1,1,48,48,3434101968
28,16,17,Jits_Phase_5,2,5,56,103,3434141168
28,16,17,Jits_Phase_5,3,5,63,98,3434144160
28,16,17,Jits_Phase_5,0,1,48,49,3434591072
28,16,17,Jits_Phase_5,1,5,56,103,3434621216
28,16,17,Jits_Phase_5,2,5,80,127,3434640700
28,16,17,Jits_Phase_5,3,5,63,98,3434651492
28,16,17,Jits_Phase_5,0,1,48,30,3435089404
28,16,17,Jits_Phase_5,1,5,63,98,3435100664
28,16,17,Jits_Phase_5,2,5,56,103,3435131160
28,16,17,Jits_Phase_5,3,5,80,127,3435150868
28,16,17,Jits_Phase_5,0,1,48,40,3435564916
28,16,17,Jits_Phase_5,1,5,56,103,3435610524
28,16,17,Jits_Phase_5,2,5,80,127,3435620644
28,16,17,Jits_Phase_5,3,5,63,98,3435691356
28,16,17,Jits_Phase_5,0,1,48,48,3436073808
28,16,17,Jits_Phase_5,1,5,63,98,3436100908
28,16,17,Jits_Phase_5,2,5,80,127,3436141068
28,16,17,Jits_Phase_5,3,5,56,103,3436181064
28,16,17,Jits_Phase_5,0,5,56,103,3436611076
28,16,17,Jits_Phase_5,1,5,63,98,3436621124
28,16,17,Jits_Phase_5,2,1,48,43,3436626932
28,16,17,Jits_Phase_5,3,5,80,127,3436640528
28,16,17,Jits_Phase_5,0,1,48,55,3437088668
28,16,17,Jits_Phase_5,1,5,63,98,3437150468
28,16,17,Jits_Phase_5,2,5,80,127,3437171148
28,16,17,Jits_Phase_5,3,5,56,103,3437190472
28,16,17,Jits_Phase_5,0,5,56,103,3437591016
28,16,17,Jits_Phase_5,1,1,48,43,3437598396
28,16,17,Jits_Phase_5,2,5,80,127,3437670900
28,16,17,Jits_Phase_5,3,5,63,98,3437680948
28,16,17,Jits_Phase_5,0,1,48,41,3438127304
28,16,17,Jits_Phase_5,1,5,80,127,3438130556
28,16,17,Jits_Phase_5,2,5,63,98,3438141076
28,16,17,Jits_Phase_5,3,5,56,103,3438170452
28,16,17,Jits_Phase_5,0,5,63,98,3438591276
28,16,17,Jits_Phase_5,1,5,80,127,3438631136
28,16,17,Jits_Phase_5,2,1,48,37,3438632104
28,16,17,Jits_Phase_5,3,5,56,103,3438690868
28,16,17,Jits_Phase_5,0,5,63,98,3439101292
28,16,17,Jits_Phase_5,1,1,48,48,3439108616
28,16,17,Jits_Phase_5,2,5,56,103,3439150440
28,16,17,Jits_Phase_5,3,5,80,127,3439181184
28,16,17,Jits_Phase_5,0,5,80,127,3439601044
28,16,17,Jits_Phase_5,1,5,63,98,3439611392
28,16,17,Jits_Phase_5,2,1,48,38,3439618716
28,16,17,Jits_Phase_5,3,5,56,103,3439681012
28,16,17,Jits_Phase_5,0,1,48,47,3440161420
28,16,17,Jits_Phase_5,1,5,80,127,3440162988
28,16,17,Jits_Phase_5,2,5,56,103,3440171384
28,16,17,Jits_Phase_5,3,5,63,98,3440174452
28,16,17,Jits_Phase_5,0,5,56,103,3440600412
28,16,17,Jits_Phase_5,1,5,80,127,3440621016
28,16,17,Jits_Phase_5,2,5,63,98,3440631140
28,16,17,Jits_Phase_5,3,1,48,39,3440693512
28,16,17,Jits_Phase_5,0,5,63,98,3441111260
28,16,17,Jits_Phase_5,1,1,48,38,3441151272
28,16,17,Jits_Phase_5,2,5,56,103,3441152984
28,16,17,Jits_Phase_5,3,5,80,127,3441171048
28,16,17,Jits_Phase_5,0,1,48,41,3441610408
28,16,17,Jits_Phase_5,1,5,63,98,3441612200
28,16,17,Jits_Phase_5,2,5,56,103,3441670496
28,16,17,Jits_Phase_5,3,5,80,127,3441673636
28,16,17,Jits_Phase_5,0,5,56,103,3442070900
28,16,17,Jits_Phase_5,1,5,80,127,3442091284
28,16,17,Jits_Phase_5,2,5,63,98,3442131292
28,16,17,Jits_Phase_5,3,1,48,29,3442141980
28,16,17,Jits_Phase_5,0,5,56,103,3442601372
28,16,17,Jits_Phase_5,1,1,48,42,3442614080
28,16,17,Jits_Phase_5,2,5,63,98,3442620780
28,16,17,Jits_Phase_5,3,5,80,127,3442630976
28,16,17,Jits_Phase_5,0,5,80,127,3443071396
28,16,17,Jits_Phase_5,1,1,48,46,3443095640
28,16,17,Jits_Phase_5,2,5,56,103,3443101064
28,16,17,Jits_Phase_5,3,5,63,98,3443141072
28,16,17,Jits_Phase_5,0,5,80,127,3443581272
28,16,17,Jits_Phase_5,1,5,56,103,3443600684
28,16,17,Jits_Phase_5,2,1,48,34,3443603204
28,16,17,Jits_Phase_5,3,5,63,98,3443661144
28,16,17,Jits_Phase_5,0,1,48,38,3444061532
28,16,17,Jits_Phase_5,1,5,56,103,3444091224
28,16,17,Jits_Phase_5,2,5,80,127,3444110860
28,16,17,Jits_Phase_5,3,5,63,98,3444171080
28,16,17,Jits_Phase_5,0,5,80,127,3444570676
28,16,17,Jits_Phase_5,1,5,56,103,3444580648
28,16,17,Jits_Phase_5,2,5,63,98,3444620584
28,16,17,Jits_Phase_5,3,1,48,46,3444641608
28,16,17,Jits_Phase_5,0,5,63,98,3445071184
28,16,17,Jits_Phase_5,1,5,56,103,3445111192
28,16,17,Jits_Phase_5,2,5,80,127,3445114260
28,16,17,Jits_Phase_5,3,1,48,37,3445138128
28,16,17,Jits_Phase_5,0,1,48,44,3445586540
28,16,17,Jits_Phase_5,1,5,63,98,3445591516
28,16,17,Jits_Phase_5,2,5,80,127,3445631232
28,16,17,Jits_Phase_5,3,5,56,103,3445661052
28,16,17,Jits_Phase_5,0,5,56,103,3446080860
28,16,17,Jits_Phase_5,1,5,63,98,3446090984
28,16,17,Jits_Phase_5,2,1,48,38,3446120732
28,16,17,Jits_Phase_5,3,5,80,127,3446122520
28,16,17,Jits_Phase_5,0,1,48,43,3446550896
28,16,17,Jits_Phase_5,1,5,80,127,3446571520
28,16,17,Jits_Phase_5,2,5,63,98,3446641000
28,16,17,Jits_Phase_5,3,5,56,103,3446651256
28,16,17,Jits_Phase_5,0,1,48,47,3447052592
28,16,17,Jits_Phase_5,1,5,63,98,3447071196
28,16,17,Jits_Phase_5,2,5,56,103,3447140676
28,16,17,Jits_Phase_5,3,5,80,127,3447150932
28,16,17,Jits_Phase_5,0,5,63,98,3447551472
28,16,17,Jits_Phase_5,1,5,56,103,3447570736
28,16,17,Jits_Phase_5,2,1,48,40,3447610476
28,16,17,Jits_Phase_5,3,5,80,127,3447612036
28,16,17,Jits_Phase_5,0,5,56,103,3448030700
28,16,17,Jits_Phase_5,1,5,63,98,3448040896
28,16,17,Jits_Phase_5,2,1,48,50,3448104764
28,16,17,Jits_Phase_5,3,5,80,127,3448120680
28,16,17,Jits_Phase_5,0,5,63,98,3448521024
28,16,17,Jits_Phase_5,1,5,56,103,3448550772
28,16,17,Jits_Phase_5,2,1,48,36,3448575616
28,16,17,Jits_Phase_5,3,5,80,127,3448590628
28,16,17,Jits_Phase_5,0,5,56,103,3449020916
28,16,17,Jits_Phase_5,1,1,48,42,3449058512
28,16,17,Jits_Phase_5,2,5,63,98,3449060700
28,16,17,Jits_Phase_5,3,5,80,127,3449100860
28,16,17,Jits_Phase_5,0,5,80,127,3449520460
28,16,17,Jits_Phase_5,1,1,48,43,3449546876
28,16,17,Jits_Phase_5,2,5,56,103,3449601592
28,16,17,Jits_Phase_5,3,5,63,98,3449610592
28,16,17,Jits_Phase_5,0,5,56,103,3450061276
28,16,17,Jits_Phase_5,1,5,63,98,3450064196
28,16,17,Jits_Phase_5,2,1,48,40,3450071624
28,16,17,Jits_Phase_5,3,5,80,127,3450073036
28,16,17,Jits_Phase_5,0,1,48,42,3450557548
28,16,17,Jits_Phase_5,1,5,56,103,3450581476
28,16,17,Jits_Phase_5,2,5,63,98,3450600668
28,16,17,Jits_Phase_5,3,5,80,127,3450611012
28,16,17,Jits_Phase_5,0,1,48,38,3451026440
28,16,17,Jits_Phase_5,1,5,63,98,3451041228
28,16,17,Jits_Phase_5,2,5,80,127,3451051496
28,16,17,Jits_Phase_5,3,5,56,103,3451070684
28,16,17,Jits_Phase_5,0,1,48,30,3451519452
28,16,17,Jits_Phase_5,1,5,63,98,3451540824
28,16,17,Jits_Phase_5,2,5,56,103,3451620676
28,16,17,Jits_Phase_5,3,5,80,127,3451623820
28,16,17,Jits_Phase_5,0,1,48,49,3451999572
28,16,17,Jits_Phase_5,1,5,63,98,3452050836
28,16,17,Jits_Phase_5,2,5,56,103,3452071520
28,16,17,Jits_Phase_5,3,5,80,127,3452100956
28,16,17,Jits_Phase_5,0,1,48,38,3452519776
28,16,17,Jits_Phase_5,1,5,56,103,3452550440
28,16,17,Jits_Phase_5,2,5,63,98,3452571048
28,16,17,Jits_Phase_5,3,5,80,127,3452581392
28,16,17,Jits_Phase_5,0,1,48,47,3453001384
28,16,17,Jits_Phase_5,1,5,56,103,3453080828
28,16,17,Jits_Phase_5,2,5,63,98,3453110632
28,16,17,Jits_Phase_5,3,5,80,127,3453113924
28,16,17,Jits_Phase_5,0,1,48,45,3453530904
28,16,17,Jits_Phase_5,1,5,56,103,3453532248
28,16,17,Jits_Phase_5,2,5,63,98,3453570536
28,16,17,Jits_Phase_5,3,5,80,127,3453630836
28,16,17,Jits_Phase_5,0,1,48,34,3454020508
28,16,17,Jits_Phase_5,1,5,56,103,3454050652
28,16,17,Jits_Phase_5,2,5,63,98,3454061000
28,16,17,Jits_Phase_5,3,5,80,127,3454121296
28,16,17,Jits_Phase_5,0,5,56,103,3454551532
28,16,17,Jits_Phase_5,1,1,48,46,3454554204
28,16,17,Jits_Phase_5,2,5,80,127,3454570860
28,16,17,Jits_Phase_5,3,5,63,98,3454600536
28,16,17,Jits_Phase_5,0,5,80,127,3455051296
28,16,17,Jits_Phase_5,1,1,48,33,3455059676
28,16,17,Jits_Phase_5,2,5,56,103,3455061488
28,16,17,Jits_Phase_5,3,5,63,98,3455080752
28,16,17,Jits_Phase_5,0,5,63,98,3455540548
28,16,17,Jits_Phase_5,1,1,48,47,3455568632
28,16,17,Jits_Phase_5,2,5,80,127,3455620436
28,16,17,Jits_Phase_5,3,5,56,103,3455630560
28,16,17,Jits_Phase_5,0,1,48,40,3456116260
28,16,17,Jits_Phase_5,1,5,80,127,3456130304
28,16,17,Jits_Phase_5,2,5,56,103,3456151132
28,16,17,Jits_Phase_5,3,5,63,98,3456154200
28,16,17,Jits_Phase_5,0,5,63,98,3456620836
28,16,17,Jits_Phase_5,1,5,80,127,3456624052
28,16,17,Jits_Phase_5,2,1,48,25,3456646124
28,16,17,Jits_Phase_5,3,5,56,103,3456681292
28,16,17,Jits_Phase_5,0,5,56,103,3457101320
28,16,17,Jits_Phase_5,1,5,80,127,3457111368
28,16,17,Jits_Phase_5,2,1,48,45,3457133516
28,16,17,Jits_Phase_5,3,5,63,98,3457151224
28,16,17,Jits_Phase_5,0,1,48,46,3457575700
28,16,17,Jits_Phase_5,1,5,56,103,3457581424
28,16,17,Jits_Phase_5,2,5,63,98,3457640720
28,16,17,Jits_Phase_5,3,5,80,127,3457650988
28,16,17,Jits_Phase_5,0,5,63,98,3458091372
28,16,17,Jits_Phase_5,1,5,80,127,3458131332
28,16,17,Jits_Phase_5,2,1,48,43,3458140232
28,16,17,Jits_Phase_5,3,5,56,103,3458171188
28,16,17,Jits_Phase_5,0,5,56,103,3458591044
28,16,17,Jits_Phase_5,1,1,48,47,3458644904
28,16,17,Jits_Phase_5,2,5,63,98,3458671152
28,16,17,Jits_Phase_5,3,5,80,127,3458674296
28,16,17,Jits_Phase_5,0,1,48,29,3459116612
28,16,17,Jits_Phase_5,1,5,80,127,3459151352
28,16,17,Jits_Phase_5,2,5,56,103,3459181028
28,16,17,Jits_Phase_5,3,5,63,98,3459183944
28,16,17,Jits_Phase_5,0,5,56,103,3459611216
28,16,17,Jits_Phase_5,1,5,80,127,3459630332
28,16,17,Jits_Phase_5,2,1,48,40,3459634872
28,16,17,Jits_Phase_5,3,5,63,98,3459671408
28,16,17,Jits_Phase_5,0,5,80,127,3460091204
28,16,17,Jits_Phase_5,1,5,63,98,3460110616
28,16,17,Jits_Phase_5,2,1,48,46,3460132092
28,16,17,Jits_Phase_5,3,5,56,103,3460171168
28,16,17,Jits_Phase_5,0,5,63,98,3460601156
28,16,17,Jits_Phase_5,1,5,56,103,3460610528
28,16,17,Jits_Phase_5,2,1,48,54,3460627424
28,16,17,Jits_Phase_5,3,5,80,127,3460660720
28,16,17,Jits_Phase_5,0,5,56,103,3461090864
28,16,17,Jits_Phase_5,1,1,48,40,3461093836
28,16,17,Jits_Phase_5,2,5,63,98,3461111168
28,16,17,Jits_Phase_5,3,5,80,127,3461121364
28,16,17,Jits_Phase_5,0,1,48,46,3461570144
28,16,17,Jits_Phase_5,1,5,56,103,3461581024
28,16,17,Jits_Phase_5,2,5,63,98,3461584244
28,16,17,Jits_Phase_5,3,5,80,127,3461600664
28,16,17,Jits_Phase_5,0,1,48,47,3462072868
28,16,17,Jits_Phase_5,1,5,63,98,3462121068
28,16,17,Jits_Phase_5,2,5,56,103,3462150596
28,16,17,Jits_Phase_5,3,5,80,127,3462181152
28,16,17,Jits_Phase_5,0,5,80,127,3462580524
28,16,17,Jits_Phase_5,1,1,48,43,3462624992
28,16,17,Jits_Phase_5,2,5,56,103,3462670796
28,16,17,Jits_Phase_5,3,5,63,98,3462673788
28,16,17,Jits_Phase_5,0,5,56,103,3463081244
28,16,17,Jits_Phase_5,1,5,80,127,3463084320
28,16,17,Jits_Phase_5,2,1,48,43,3463128352
28,16,17,Jits_Phase_5,3,5,63,98,3463161108
28,16,17,Jits_Phase_5,0,5,80,127,3463580928
28,16,17,Jits_Phase_5,1,1,48,35,3463586660
28,16,17,Jits_Phase_5,2,5,63,98,3463640412
28,16,17,Jits_Phase_5,3,5,56,103,3463671132
28,16,17,Jits_Phase_5,0,5,63,98,3464080988
28,16,17,Jits_Phase_5,1,5,80,127,3464091112
28,16,17,Jits_Phase_5,2,1,48,42,3464118588
28,16,17,Jits_Phase_5,3,5,56,103,3464160780
28,16,17,Jits_Phase_5,0,1,48,42,3464603328
28,16,17,Jits_Phase_5,1,5,56,103,3464640964
28,16,17,Jits_Phase_5,2,5,80,127,3464670492
28,16,17,Jits_Phase_5,3,5,63,98,3464720900
28,16,17,Jits_Phase_5,0,1,48,43,3465154768
28,16,17,Jits_Phase_5,1,5,63,98,3465230988
28,16,17,Jits_Phase_5,2,5,56,103,3465261468
28,16,17,Jits_Phase_5,3,5,80,127,3465264760
28,16,17,Jits_Phase_5,0,1,48,35,3465712276
28,16,17,Jits_Phase_5,1,5,63,98,3465730288
28,16,17,Jits_Phase_5,2,5,80,127,3465750968
28,16,17,Jits_Phase_5,3,5,56,103,3465761312
28,16,17,Jits_Phase_5,0,1,48,38,3466230016
28,16,17,Jits_Phase_5,1,5,56,103,3466241348
28,16,17,Jits_Phase_5,2,5,63,98,3466244492
28,16,17,Jits_Phase_5,3,5,80,127,3466260832
28,16,17,Jits_Phase_5,0,5,56,103,3466691052
28,16,17,Jits_Phase_5,1,5,63,98,3466701172
28,16,17,Jits_Phase_5,2,1,48,39,3466721224
28,16,17,Jits_Phase_5,3,5,80,127,3466730988
28,16,17,Jits_Phase_5,0,5,63,98,3467211044
28,16,17,Jits_Phase_5,1,5,80,127,3467230828
28,16,17,Jits_Phase_5,2,1,48,32,3467241368
28,16,17,Jits_Phase_5,3,5,56,103,3467270608
28,16,17,Jits_Phase_5,0,1,48,32,3467735332
28,16,17,Jits_Phase_5,1,5,56,103,3467740608
28,16,17,Jits_Phase_5,2,5,63,98,3467780392
28,16,17,Jits_Phase_5,3,5,80,127,3467783908
28,16,17,Jits_Phase_5,0,5,80,127,3468180724
28,16,17,Jits_Phase_5,1,5,56,103,3468220812
28,16,17,Jits_Phase_5,2,1,48,41,3468247744
28,16,17,Jits_Phase_5,3,5,63,98,3468270928
28,16,17,Jits_Phase_5,0,1,48,30,3468707640
28,16,17,Jits_Phase_5,1,5,56,103,3468741016
28,16,17,Jits_Phase_5,2,5,80,127,3468751212
28,16,17,Jits_Phase_5,3,5,63,98,3468780812
28,16,17,Jits_Phase_5,0,5,56,103,3469190656
28,16,17,Jits_Phase_5,1,5,80,127,3469230596
28,16,17,Jits_Phase_5,2,1,48,25,3469252968
28,16,17,Jits_Phase_5,3,5,63,98,3469280564
28,16,17,Jits_Phase_5,0,5,56,103,3469691320
28,16,17,Jits_Phase_5,1,5,80,127,3469731184
28,16,17,Jits_Phase_5,2,1,48,33,3469736472
28,16,17,Jits_Phase_5,3,5,63,98,3469781300
28,16,17,Jits_Phase_5,0,5,80,127,3470180748
28,16,17,Jits_Phase_5,1,1,48,30,3470231292
28,16,17,Jits_Phase_5,2,5,63,98,3470260536
28,16,17,Jits_Phase_5,3,5,56,103,3470270808
28,16,17,Jits_Phase_5,0,1,48,26,3470719224
28,16,17,Jits_Phase_5,1,5,80,127,3470730556
28,16,17,Jits_Phase_5,2,5,56,103,3470740824
28,16,17,Jits_Phase_5,3,5,63,98,3470761284
28,16,17,Jits_Phase_5,0,1,48,33,3471190876
28,16,17,Jits_Phase_5,1,5,63,98,3471200640
28,16,17,Jits_Phase_5,2,5,56,103,3471271216
28,16,17,Jits_Phase_5,3,5,80,127,3471274356
28,16,17,Jits_Phase_5,0,5,80,127,3471691252
28,16,17,Jits_Phase_5,1,1,48,39,3471728916
28,16,17,Jits_Phase_5,2,5,63,98,3471741520
28,16,17,Jits_Phase_5,3,5,56,103,3471781380
28,16,17,Jits_Phase_5,0,5,63,98,3472230728
28,16,17,Jits_Phase_5,1,1,48,21,3472241792
28,16,17,Jits_Phase_5,2,5,56,103,3472270808
28,16,17,Jits_Phase_5,3,5,80,127,3472280928
28,16,17,Jits_Phase_5,0,1,48,35,3472714336
28,16,17,Jits_Phase_5,1,5,63,98,3472721556
28,16,17,Jits_Phase_5,2,5,56,103,3472740820
28,16,17,Jits_Phase_5,3,5,80,127,3472761052
28,16,17,Jits_Phase_5,0,5,80,127,3473180984
28,16,17,Jits_Phase_5,1,5,56,103,3473191476
28,16,17,Jits_Phase_5,2,1,48,32,3473192516
28,16,17,Jits_Phase_5,3,5,63,98,3473210832
28,16,17,Jits_Phase_5,0,1,48,24,3473686472
28,16,17,Jits_Phase_5,1,5,63,98,3473710408
28,16,17,Jits_Phase_5,2,5,56,103,3473751492
28,16,17,Jits_Phase_5,3,5,80,127,3473781016
28,16,17,Jits_Phase_5,0,5,56,103,3474171428
28,16,17,Jits_Phase_5,1,5,63,98,3474200956
28,16,17,Jits_Phase_5,2,5,80,127,3474230704
28,16,17,Jits_Phase_5,3,1,48,13,3474242912
28,16,17,Jits_Phase_5,0,5,80,127,3474591040
28,16,17,Jits_Phase_5,1,5,56,103,3474660720
28,16,17,Jits_Phase_5,2,5,63,98,3474663640
28,16,17,Jits_Phase_5,3,1,48,18,3474731636
28,16,17,Jits_Phase_5,0,5,56,103,3475100988
28,16,17,Jits_Phase_5,1,1,48,16,3475151636
28,16,17,Jits_Phase_5,2,5,63,98,3475153056
28,16,17,Jits_Phase_5,3,1,48,28,3475156752
28,16,17,Jits_Phase_5,4,5,80,127,3475180908
28,16,17,Jits_Phase_5,0,5,63,98,3475581376
28,16,17,Jits_Phase_5,1,5,80,127,3475584668
28,16,17,Jits_Phase_5,2,1,48,42,3475613116
28,16,17,Jits_Phase_5,3,5,56,103,3475640712
28,16,17,Jits_Phase_5,0,1,48,41,3476060708
28,16,17,Jits_Phase_5,1,5,56,103,3476110780
28,16,17,Jits_Phase_5,2,5,80,127,3476121048
28,16,17,Jits_Phase_5,3,5,63,98,3476171380
28,16,17,Jits_Phase_5,0,1,48,47,3476576184
28,16,17,Jits_Phase_5,1,5,63,98,3476580864
28,16,17,Jits_Phase_5,2,5,56,103,3476590984
28,16,17,Jits_Phase_5,3,5,80,127,3476620584
28,16,17,Jits_Phase_5,0,1,48,55,3477038236
28,16,17,Jits_Phase_5,1,5,63,98,3477111320
28,16,17,Jits_Phase_5,2,5,80,127,3477114460
28,16,17,Jits_Phase_5,3,5,56,103,3477140904
28,16,17,Jits_Phase_5,0,1,48,55,3477556688
28,16,17,Jits_Phase_5,1,5,63,98,3477631364
28,16,17,Jits_Phase_5,2,5,56,103,3477651668
28,16,17,Jits_Phase_5,3,5,80,127,3477654576
28,16,17,Jits_Phase_5,0,5,63,98,3478091332
28,16,17,Jits_Phase_5,1,1,48,50,3478120828
28,16,17,Jits_Phase_5,2,5,56,103,3478160704
28,16,17,Jits_Phase_5,3,5,80,127,3478181236
28,16,17,Jits_Phase_5,0,5,56,103,3478580568
28,16,17,Jits_Phase_5,1,5,63,98,3478590792
28,16,17,Jits_Phase_5,2,1,48,55,3478640284
28,16,17,Jits_Phase_5,3,5,80,127,3478681132
28,16,17,Jits_Phase_5,0,1,48,49,3479086660
28,16,17,Jits_Phase_5,1,5,56,103,3479100728
28,16,17,Jits_Phase_5,2,5,80,127,3479140664
28,16,17,Jits_Phase_5,3,5,63,98,3479150936
28,16,17,Jits_Phase_5,0,1,48,49,3479612284
28,16,17,Jits_Phase_5,1,5,56,103,3479621152
28,16,17,Jits_Phase_5,2,5,63,98,3479650680
28,16,17,Jits_Phase_5,3,5,80,127,3479681252
28,16,17,Jits_Phase_5,0,5,80,127,3480080732
28,16,17,Jits_Phase_5,1,1,48,63,3480108804
28,16,17,Jits_Phase_5,2,5,63,98,3480120616
28,16,17,Jits_Phase_5,3,5,56,103,3480141148
28,16,17,Jits_Phase_5,0,1,48,45,3480590204
28,16,17,Jits_Phase_5,1,5,56,103,3480621392
28,16,17,Jits_Phase_5,2,5,80,127,3480640828
28,16,17,Jits_Phase_5,3,5,63,98,3480661288
28,16,17,Jits_Phase_5,0,1,48,50,3481073840
28,16,17,Jits_Phase_5,1,5,63,98,3481090276
28,16,17,Jits_Phase_5,2,5,56,103,3481100620
28,16,17,Jits_Phase_5,3,5,80,127,3481161328
28,16,17,Jits_Phase_5,0,1,48,43,3481579064
28,16,17,Jits_Phase_5,1,5,56,103,3481591072
28,16,17,Jits_Phase_5,2,5,63,98,3481660700
28,16,17,Jits_Phase_5,3,5,80,127,3481681220
28,16,17,Jits_Phase_5,0,5,56,103,3482091056
28,16,17,Jits_Phase_5,1,1,48,49,3482095896
28,16,17,Jits_Phase_5,2,5,63,98,3482120424
28,16,17,Jits_Phase_5,3,5,80,127,3482160512
28,16,17,Jits_Phase_5,0,1,48,49,3482567476
28,16,17,Jits_Phase_5,1,5,63,98,3482581220
28,16,17,Jits_Phase_5,2,5,56,103,3482630448
28,16,17,Jits_Phase_5,3,5,80,127,3482640644
28,16,17,Jits_Phase_5,0,1,48,46,3483034940
28,16,17,Jits_Phase_5,1,5,56,103,3483120976
28,16,17,Jits_Phase_5,2,5,63,98,3483171164
28,16,17,Jits_Phase_5,3,5,80,127,3483181432
28,16,17,Jits_Phase_5,0,1,48,40,3483558432
28,16,17,Jits_Phase_5,1,5,56,103,3483591132
28,16,17,Jits_Phase_5,2,5,63,98,3483601180
28,16,17,Jits_Phase_5,3,5,80,127,3483681180
28,16,17,Jits_Phase_5,0,9999,9999,9999,3399368800
28,16,17,Jits_Phase_5,1,9999,9999,9999,3399868504
28,16,17,Jits_Phase_5,2,9999,9999,9999,3400368204
28,16,17,Jits_Phase_5,3,9999,9999,9999,3400868948
28,16,17,Jits_Phase_5,4,9999,9999,9999,3401368704
28,16,17,Jits_Phase_5,5,9999,9999,9999,3401868380
28,16,17,Jits_Phase_5,6,9999,9999,9999,3402368056
28,16,17,Jits_Phase_5,7,9999,9999,9999,3402868796
28,16,17,Jits_Phase_5,8,9999,9999,9999,3403368560
28,16,17,Jits_Phase_5,9,9999,9999,9999,3403868248
28,16,17,Jits_Phase_5,10,9999,9999,9999,3404368960
28,16,17,Jits_Phase_5,11,9999,9999,9999,3404868708
28,16,17,Jits_Phase_5,12,9999,9999,9999,3405368428
28,16,17,Jits_Phase_5,13,9999,9999,9999,3405868092
28,16,17,Jits_Phase_5,14,9999,9999,9999,3406368888
28,16,17,Jits_Phase_5,15,9999,9999,9999,3406868564
28,16,17,Jits_Phase_5,16,9999,9999,9999,3407368308
28,16,17,Jits_Phase_5,17,9999,9999,9999,3407869032
28,16,17,Jits_Phase_5,18,9999,9999,9999,3408368708
28,16,17,Jits_Phase_5,19,9999,9999,9999,3408868456
28,16,17,Jits_Phase_5,20,9999,9999,9999,3409368128
28,16,17,Jits_Phase_5,21,9999,9999,9999,3409868924
28,16,17,Jits_Phase_5,22,9999,9999,9999,3410368612
28,16,17,Jits_Phase_5,23,9999,9999,9999,3410868300
28,16,17,Jits_Phase_5,24,9999,9999,9999,3411369036
28,16,17,Jits_Phase_5,25,9999,9999,9999,3411868780
28,16,17,Jits_Phase_5,26,9999,9999,9999,3412368468
28,16,17,Jits_Phase_5,27,9999,9999,9999,3412868208
28,16,17,Jits_Phase_5,28,9999,9999,9999,3413368948
28,16,17,Jits_Phase_5,29,9999,9999,9999,3413868620
28,16,17,Jits_Phase_5,30,9999,9999,9999,3414358120
28,16,17,Jits_Phase_5,31,9999,9999,9999,3414858844
28,16,17,Jits_Phase_5,32,9999,9999,9999,3415358532
28,16,17,Jits_Phase_5,33,9999,9999,9999,3415858256
28,16,17,Jits_Phase_5,34,9999,9999,9999,3416358972
28,16,17,Jits_Phase_5,35,9999,9999,9999,3416858724
28,16,17,Jits_Phase_5,36,9999,9999,9999,3417358460
28,16,17,Jits_Phase_5,37,9999,9999,9999,3417858136
28,16,17,Jits_Phase_5,38,9999,9999,9999,3418358864
28,16,17,Jits_Phase_5,39,9999,9999,9999,3418858616
28,16,17,Jits_Phase_5,40,9999,9999,9999,3419358292
28,16,17,Jits_Phase_5,41,9999,9999,9999,3419859028
28,16,17,Jits_Phase_5,42,9999,9999,9999,3420358716
28,16,17,Jits_Phase_5,43,9999,9999,9999,3420858464
28,16,17,Jits_Phase_5,44,9999,9999,9999,3421358140
28,16,17,Jits_Phase_5,45,9999,9999,9999,3421858928
28,16,17,Jits_Phase_5,46,9999,9999,9999,3422358604
28,16,17,Jits_Phase_5,47,9999,9999,9999,3422858360
28,16,17,Jits_Phase_5,48,9999,9999,9999,3423368296
28,16,17,Jits_Phase_5,49,9999,9999,9999,3423869028
28,16,17,Jits_Phase_5,50,9999,9999,9999,3424368768
28,16,17,Jits_Phase_5,51,9999,9999,9999,3424868456
28,16,17,Jits_Phase_5,52,9999,9999,9999,3425368132
28,16,17,Jits_Phase_5,53,9999,9999,9999,3425868868
28,16,17,Jits_Phase_5,54,9999,9999,9999,3426368616
28,16,17,Jits_Phase_5,55,9999,9999,9999,3426868284
28,16,17,Jits_Phase_5,56,9999,9999,9999,3427369072
28,16,17,Jits_Phase_5,57,9999,9999,9999,3427868756
28,16,17,Jits_Phase_5,58,9999,9999,9999,3428368508
28,16,17,Jits_Phase_5,59,9999,9999,9999,3428868172
28,16,17,Jits_Phase_5,60,9999,9999,9999,3429368908
28,16,17,Jits_Phase_5,61,9999,9999,9999,3429868600
28,16,17,Jits_Phase_5,62,9999,9999,9999,3430368380
28,16,17,Jits_Phase_5,63,9999,9999,9999,3430869100
28,16,17,Jits_Phase_5,64,9999,9999,9999,3431388252
28,16,17,Jits_Phase_5,65,9999,9999,9999,3431888984
28,16,17,Jits_Phase_5,66,9999,9999,9999,3432388664
28,16,17,Jits_Phase_5,67,9999,9999,9999,3432888416
28,16,17,Jits_Phase_5,68,9999,9999,9999,3433388108
28,16,17,Jits_Phase_5,69,9999,9999,9999,3433888832
28,16,17,Jits_Phase_5,70,9999,9999,9999,3434388572
28,16,17,Jits_Phase_5,71,9999,9999,9999,3434888264
28,16,17,Jits_Phase_5,72,9999,9999,9999,3435388984
28,16,17,Jits_Phase_5,73,9999,9999,9999,3435888732
28,16,17,Jits_Phase_5,74,9999,9999,9999,3436388408
28,16,17,Jits_Phase_5,75,9999,9999,9999,3436888156
28,16,17,Jits_Phase_5,76,9999,9999,9999,3437388896
28,16,17,Jits_Phase_5,77,9999,9999,9999,3437888572
28,16,17,Jits_Phase_5,78,9999,9999,9999,3438388316
28,16,17,Jits_Phase_5,79,9999,9999,9999,3438889032
28,16,17,Jits_Phase_5,80,9999,9999,9999,3439388784
28,16,17,Jits_Phase_5,81,9999,9999,9999,3439868984
28,16,17,Jits_Phase_5,82,9999,9999,9999,3440368748
28,16,17,Jits_Phase_5,83,9999,9999,9999,3440868420
28,16,17,Jits_Phase_5,84,9999,9999,9999,3441368192
28,16,17,Jits_Phase_5,85,9999,9999,9999,3441868908
28,16,17,Jits_Phase_5,86,9999,9999,9999,3442368576
28,16,17,Jits_Phase_5,87,9999,9999,9999,3442868340
28,16,17,Jits_Phase_5,88,9999,9999,9999,3443369076
28,16,17,Jits_Phase_5,89,9999,9999,9999,3443868768
28,16,17,Jits_Phase_5,90,9999,9999,9999,3444368460
28,16,17,Jits_Phase_5,91,9999,9999,9999,3444868204
28,16,17,Jits_Phase_5,92,9999,9999,9999,3445368928
28,16,17,Jits_Phase_5,93,9999,9999,9999,3445868604
28,16,17,Jits_Phase_5,94,9999,9999,9999,3446368352
28,16,17,Jits_Phase_5,95,9999,9999,9999,3446869088
28,16,17,Jits_Phase_5,96,9999,9999,9999,3447368760
28,16,17,Jits_Phase_5,97,9999,9999,9999,3447818368
28,16,17,Jits_Phase_5,98,9999,9999,9999,3448319088
28,16,17,Jits_Phase_5,99,9999,9999,9999,3448818776
28,16,17,Jits_Phase_5,100,9999,9999,9999,3449318524
28,16,17,Jits_Phase_5,101,9999,9999,9999,3449818216
28,16,17,Jits_Phase_5,102,9999,9999,9999,3450318944
28,16,17,Jits_Phase_5,103,9999,9999,9999,3450818640
28,16,17,Jits_Phase_5,104,9999,9999,9999,3451318388
28,16,17,Jits_Phase_5,105,9999,9999,9999,3451819104
28,16,17,Jits_Phase_5,106,9999,9999,9999,3452329044
28,16,17,Jits_Phase_5,107,9999,9999,9999,3452828796
28,16,17,Jits_Phase_5,108,9999,9999,9999,3453328464
28,16,17,Jits_Phase_5,109,9999,9999,9999,3453828212
28,16,17,Jits_Phase_5,110,9999,9999,9999,3454328936
28,16,17,Jits_Phase_5,111,9999,9999,9999,3454828612
28,16,17,Jits_Phase_5,112,9999,9999,9999,3455328376
28,16,17,Jits_Phase_5,113,9999,9999,9999,3455829120
28,16,17,Jits_Phase_5,114,9999,9999,9999,3456378984
28,16,17,Jits_Phase_5,115,9999,9999,9999,3456878656
28,16,17,Jits_Phase_5,116,9999,9999,9999,3457378404
28,16,17,Jits_Phase_5,117,9999,9999,9999,3457878092
28,16,17,Jits_Phase_5,118,9999,9999,9999,3458378816
28,16,17,Jits_Phase_5,119,9999,9999,9999,3458878556
28,16,17,Jits_Phase_5,120,9999,9999,9999,3459378292
28,16,17,Jits_Phase_5,121,9999,9999,9999,3459879008
28,16,17,Jits_Phase_5,122,9999,9999,9999,3460378696
28,16,17,Jits_Phase_5,123,9999,9999,9999,3460878460
28,16,17,Jits_Phase_5,124,9999,9999,9999,3461378132
28,16,17,Jits_Phase_5,125,9999,9999,9999,3461878852
28,16,17,Jits_Phase_5,126,9999,9999,9999,3462378604
28,16,17,Jits_Phase_5,127,9999,9999,9999,3462878272
28,16,17,Jits_Phase_5,128,9999,9999,9999,3463379068
28,16,17,Jits_Phase_5,129,9999,9999,9999,3463878760
28,16,17,Jits_Phase_5,130,9999,9999,9999,3464378444
28,16,17,Jits_Phase_5,131,9999,9999,9999,3464978508
28,16,17,Jits_Phase_5,132,9999,9999,9999,3465478252
28,16,17,Jits_Phase_5,133,9999,9999,9999,3465978980
28,16,17,Jits_Phase_5,134,9999,9999,9999,3466478648
28,16,17,Jits_Phase_5,135,9999,9999,9999,3466978396
28,16,17,Jits_Phase_5,136,9999,9999,9999,3467478088
28,16,17,Jits_Phase_5,137,9999,9999,9999,3467978804
28,16,17,Jits_Phase_5,138,9999,9999,9999,3468478556
28,16,17,Jits_Phase_5,139,9999,9999,9999,3468978252
28,16,17,Jits_Phase_5,140,9999,9999,9999,3469478976
28,16,17,Jits_Phase_5,141,9999,9999,9999,3469978740
28,16,17,Jits_Phase_5,142,9999,9999,9999,3470478432
28,16,17,Jits_Phase_5,143,9999,9999,9999,3470978128
28,16,17,Jits_Phase_5,144,9999,9999,9999,3471478844
28,16,17,Jits_Phase_5,145,9999,9999,9999,3471978600
28,16,17,Jits_Phase_5,146,9999,9999,9999,3472478296
28,16,17,Jits_Phase_5,147,9999,9999,9999,3472979016
28,16,17,Jits_Phase_5,148,9999,9999,9999,3473478764
28,16,17,Jits_Phase_5,149,9999,9999,9999,3473978456
28,16,17,Jits_Phase_5,150,9999,9999,9999,3474378844
28,16,17,Jits_Phase_5,151,9999,9999,9999,3474878528
28,16,17,Jits_Phase_5,152,9999,9999,9999,3475378272
28,16,17,Jits_Phase_5,153,9999,9999,9999,3475878976
28,16,17,Jits_Phase_5,154,9999,9999,9999,3476378724
28,16,17,Jits_Phase_5,155,9999,9999,9999,3476878396
28,16,17,Jits_Phase_5,156,9999,9999,9999,3477378136
28,16,17,Jits_Phase_5,157,9999,9999,9999,3477878852
28,16,17,Jits_Phase_5,158,9999,9999,9999,3478378600
28,16,17,Jits_Phase_5,159,9999,9999,9999,3478878276
28,16,17,Jits_Phase_5,160,9999,9999,9999,3479379008
28,16,17,Jits_Phase_5,161,9999,9999,9999,3479878764
28,16,17,Jits_Phase_5,162,9999,9999,9999,3480378436
28,16,17,Jits_Phase_5,163,9999,9999,9999,3480878180
28,16,17,Jits_Phase_5,164,9999,9999,9999,3481378896
28,16,17,Jits_Phase_5,165,9999,9999,9999,3481878648
28,16,17,Jits_Phase_5,166,9999,9999,9999,3482378324
28,16,17,Jits_Phase_5,167,9999,9999,9999,3482879056
28,16,17,Jits_Phase_5,168,9999,9999,9999,3483378812
28,16,17,Jits_Phase_5,169,9999,9999,9999,3483878484
28,17,15,Jits_Phase_8,0,5,56,103,3495505436
28,17,15,Jits_Phase_8,1,5,63,98,3495508380
28,17,15,Jits_Phase_8,2,5,80,127,3495511728
28,17,15,Jits_Phase_8,0,5,56,103,3496305004
28,17,15,Jits_Phase_8,1,5,63,98,3496308024
28,17,15,Jits_Phase_8,2,5,80,127,3496311444
28,17,15,Jits_Phase_8,0,5,80,127,3497045324
28,17,15,Jits_Phase_8,1,1,48,35,3497065452
28,17,15,Jits_Phase_8,2,5,63,98,3497134556
28,17,15,Jits_Phase_8,3,5,56,103,3497144752
28,17,15,Jits_Phase_8,0,1,48,46,3497854360
28,17,15,Jits_Phase_8,1,5,56,103,3497864496
28,17,15,Jits_Phase_8,2,5,63,98,3497874768
28,17,15,Jits_Phase_8,3,5,80,127,3497964808
28,17,15,Jits_Phase_8,0,5,63,98,3498634596
28,17,15,Jits_Phase_8,1,5,80,127,3498665392
28,17,15,Jits_Phase_8,2,1,48,47,3498668440
28,17,15,Jits_Phase_8,3,5,56,103,3498694912
28,17,15,Jits_Phase_8,0,1,48,51,3499398280
28,17,15,Jits_Phase_8,1,5,56,103,3499435392
28,17,15,Jits_Phase_8,2,5,80,127,3499534728
28,17,15,Jits_Phase_8,3,5,63,98,3499585028
28,17,15,Jits_Phase_8,0,5,56,103,3500235236
28,17,15,Jits_Phase_8,1,1,48,47,3500257980
28,17,15,Jits_Phase_8,2,5,80,127,3500285356
28,17,15,Jits_Phase_8,3,5,63,98,3500325444
28,17,15,Jits_Phase_8,0,1,48,51,3500980872
28,17,15,Jits_Phase_8,1,5,80,127,3501064668
28,17,15,Jits_Phase_8,2,5,63,98,3501095228
28,17,15,Jits_Phase_8,3,5,56,103,3501164784
28,17,15,Jits_Phase_8,0,1,48,50,3501769920
28,17,15,Jits_Phase_8,1,5,63,98,3501895232
28,17,15,Jits_Phase_8,2,5,56,103,3501924608
28,17,15,Jits_Phase_8,3,5,80,127,3501985368
28,17,15,Jits_Phase_8,0,5,56,103,3502635428
28,17,15,Jits_Phase_8,1,1,48,39,3502637008
28,17,15,Jits_Phase_8,2,5,80,127,3502639680
28,17,15,Jits_Phase_8,3,5,63,98,3502755376
28,17,15,Jits_Phase_8,0,1,48,47,3503436832
28,17,15,Jits_Phase_8,1,5,56,103,3503515148
28,17,15,Jits_Phase_8,2,5,80,127,3503555148
28,17,15,Jits_Phase_8,3,5,63,98,3503565416
28,17,15,Jits_Phase_8,0,5,56,103,3504274764
28,17,15,Jits_Phase_8,1,5,80,127,3504295220
28,17,15,Jits_Phase_8,2,1,48,37,3504300064
28,17,15,Jits_Phase_8,3,5,63,98,3504375084
28,17,15,Jits_Phase_8,0,5,80,127,3505065396
28,17,15,Jits_Phase_8,1,1,48,43,3505068516
28,17,15,Jits_Phase_8,2,5,56,103,3505164948
28,17,15,Jits_Phase_8,3,5,63,98,3505174996
28,17,15,Jits_Phase_8,0,5,63,98,3505835356
28,17,15,Jits_Phase_8,1,1,48,36,3505869560
28,17,15,Jits_Phase_8,2,5,80,127,3505894692
28,17,15,Jits_Phase_8,3,5,56,103,3505904964
28,17,15,Jits_Phase_8,0,1,48,34,3506563092
28,17,15,Jits_Phase_8,1,5,56,103,3506635108
28,17,15,Jits_Phase_8,2,5,63,98,3506704924
28,17,15,Jits_Phase_8,3,5,80,127,3506708136
28,17,15,Jits_Phase_8,0,1,48,41,3507367996
28,17,15,Jits_Phase_8,1,5,63,98,3507464524
28,17,15,Jits_Phase_8,2,5,56,103,3507514660
28,17,15,Jits_Phase_8,3,5,80,127,3507517800
28,17,15,Jits_Phase_8,0,1,48,48,3508150584
28,17,15,Jits_Phase_8,1,5,56,103,3508225308
28,17,15,Jits_Phase_8,2,5,80,127,3508228452
28,17,15,Jits_Phase_8,3,5,63,98,3508314408
28,17,15,Jits_Phase_8,0,1,48,42,3509006300
28,17,15,Jits_Phase_8,1,5,63,98,3509064944
28,17,15,Jits_Phase_8,2,5,56,103,3509155284
28,17,15,Jits_Phase_8,3,5,80,127,3509185032
28,17,15,Jits_Phase_8,0,1,48,46,3509804940
28,17,15,Jits_Phase_8,1,5,56,103,3509854516
28,17,15,Jits_Phase_8,2,5,63,98,3509954896
28,17,15,Jits_Phase_8,3,5,80,127,3509984648
28,17,15,Jits_Phase_8,0,1,48,43,3510604884
28,17,15,Jits_Phase_8,1,5,63,98,3510674732
28,17,15,Jits_Phase_8,2,5,56,103,3510684928
28,17,15,Jits_Phase_8,3,5,80,127,3510775116
28,17,15,Jits_Phase_8,0,1,48,48,3511372704
28,17,15,Jits_Phase_8,1,5,63,98,3511495008
28,17,15,Jits_Phase_8,2,5,56,103,3511574948
28,17,15,Jits_Phase_8,3,5,80,127,3511577864
28,17,15,Jits_Phase_8,0,1,48,49,3512231804
28,17,15,Jits_Phase_8,1,5,80,127,3512254768
28,17,15,Jits_Phase_8,2,5,63,98,3512275304
28,17,15,Jits_Phase_8,3,5,56,103,3512335080
28,17,15,Jits_Phase_8,0,1,48,50,3513025136
28,17,15,Jits_Phase_8,1,5,56,103,3513094464
28,17,15,Jits_Phase_8,2,5,63,98,3513114924
28,17,15,Jits_Phase_8,3,5,80,127,3513119020
28,17,15,Jits_Phase_8,0,1,48,44,3513798880
28,17,15,Jits_Phase_8,1,5,63,98,3513834800
28,17,15,Jits_Phase_8,2,5,80,127,3513914828
28,17,15,Jits_Phase_8,3,5,56,103,3513925100
28,17,15,Jits_Phase_8,0,1,48,51,3514581548
28,17,15,Jits_Phase_8,1,5,63,98,3514655160
28,17,15,Jits_Phase_8,2,5,56,103,3514674644
28,17,15,Jits_Phase_8,3,5,80,127,3514724776
28,17,15,Jits_Phase_8,0,1,48,52,3515388052
28,17,15,Jits_Phase_8,1,5,80,127,3515454936
28,17,15,Jits_Phase_8,2,5,63,98,3515494712
28,17,15,Jits_Phase_8,3,5,56,103,3515515244
28,17,15,Jits_Phase_8,0,1,48,30,3516285908
28,17,15,Jits_Phase_8,1,5,56,103,3516294628
28,17,15,Jits_Phase_8,2,5,63,98,3516304752
28,17,15,Jits_Phase_8,3,5,80,127,3516325284
28,17,15,Jits_Phase_8,0,5,56,103,3517024868
28,17,15,Jits_Phase_8,1,1,48,32,3517065972
28,17,15,Jits_Phase_8,2,5,63,98,3517114696
28,17,15,Jits_Phase_8,3,5,80,127,3517175144
28,17,15,Jits_Phase_8,0,1,48,45,3517818384
28,17,15,Jits_Phase_8,1,5,80,127,3517855052
28,17,15,Jits_Phase_8,2,5,56,103,3517865696
28,17,15,Jits_Phase_8,3,5,63,98,3517934836
28,17,15,Jits_Phase_8,0,1,48,45,3518658004
28,17,15,Jits_Phase_8,1,5,63,98,3518684632
28,17,15,Jits_Phase_8,2,5,80,127,3518774628
28,17,15,Jits_Phase_8,3,5,56,103,3518784820
28,17,15,Jits_Phase_8,0,5,63,98,3519414652
28,17,15,Jits_Phase_8,1,5,80,127,3519464780
28,17,15,Jits_Phase_8,2,1,48,43,3519501076
28,17,15,Jits_Phase_8,3,5,56,103,3519525160
28,17,15,Jits_Phase_8,0,5,56,103,3520234940
28,17,15,Jits_Phase_8,1,1,48,49,3520277164
28,17,15,Jits_Phase_8,2,5,80,127,3520284912
28,17,15,Jits_Phase_8,3,5,63,98,3520304548
28,17,15,Jits_Phase_8,0,1,48,49,3520993480
28,17,15,Jits_Phase_8,1,5,56,103,3521015524
28,17,15,Jits_Phase_8,2,5,80,127,3521074496
28,17,15,Jits_Phase_8,3,5,63,98,3521145232
28,17,15,Jits_Phase_8,0,5,56,103,3521814840
28,17,15,Jits_Phase_8,1,1,48,43,3521836012
28,17,15,Jits_Phase_8,2,5,80,127,3521844532
28,17,15,Jits_Phase_8,3,5,63,98,3521875476
28,17,15,Jits_Phase_8,0,1,48,48,3522545568
28,17,15,Jits_Phase_8,1,5,56,103,3522654616
28,17,15,Jits_Phase_8,2,5,80,127,3522675004
28,17,15,Jits_Phase_8,3,5,63,98,3522734420
28,17,15,Jits_Phase_8,0,1,48,46,3523390372
28,17,15,Jits_Phase_8,1,5,80,127,3523535440
28,17,15,Jits_Phase_8,2,5,56,103,3523544292
28,17,15,Jits_Phase_8,3,5,63,98,3523554788
28,17,15,Jits_Phase_8,0,1,48,40,3524257128
28,17,15,Jits_Phase_8,1,5,56,103,3524295140
28,17,15,Jits_Phase_8,2,5,80,127,3524335076
28,17,15,Jits_Phase_8,3,5,63,98,3524364588
28,17,15,Jits_Phase_8,0,5,56,103,3525065316
28,17,15,Jits_Phase_8,1,1,48,50,3525082900
28,17,15,Jits_Phase_8,2,5,63,98,3525094912
28,17,15,Jits_Phase_8,3,5,80,127,3525134624
28,17,15,Jits_Phase_8,0,1,48,46,3525781512
28,17,15,Jits_Phase_8,1,5,80,127,3525814660
28,17,15,Jits_Phase_8,2,5,63,98,3525864716
28,17,15,Jits_Phase_8,3,5,56,103,3525885308
28,17,15,Jits_Phase_8,0,1,48,45,3526604648
28,17,15,Jits_Phase_8,1,5,56,103,3526645280
28,17,15,Jits_Phase_8,2,5,80,127,3526714600
28,17,15,Jits_Phase_8,3,5,63,98,3526775212
28,17,15,Jits_Phase_8,0,5,80,127,3527444976
28,17,15,Jits_Phase_8,1,1,48,54,3527493828
28,17,15,Jits_Phase_8,2,5,63,98,3527535128
28,17,15,Jits_Phase_8,3,5,56,103,3527554392
28,17,15,Jits_Phase_8,0,5,63,98,3528265228
28,17,15,Jits_Phase_8,1,5,56,103,3528284492
28,17,15,Jits_Phase_8,2,1,48,48,3528289704
28,17,15,Jits_Phase_8,3,5,80,127,3528324496
28,17,15,Jits_Phase_8,0,1,48,51,3529014760
28,17,15,Jits_Phase_8,1,5,80,127,3529024824
28,17,15,Jits_Phase_8,2,5,63,98,3529045432
28,17,15,Jits_Phase_8,3,5,56,103,3529125208
28,17,15,Jits_Phase_8,0,5,63,98,3529815292
28,17,15,Jits_Phase_8,1,1,48,54,3529818108
28,17,15,Jits_Phase_8,2,5,56,103,3529925032
28,17,15,Jits_Phase_8,3,5,80,127,3529927948
28,17,15,Jits_Phase_8,0,5,63,98,3530634672
28,17,15,Jits_Phase_8,1,5,56,103,3530644940
28,17,15,Jits_Phase_8,2,5,80,127,3530647932
28,17,15,Jits_Phase_8,3,1,48,52,3530668804
28,17,15,Jits_Phase_8,0,1,48,53,3531364780
28,17,15,Jits_Phase_8,1,5,56,103,3531415076
28,17,15,Jits_Phase_8,2,5,80,127,3531534640
28,17,15,Jits_Phase_8,3,5,63,98,3531574676
28,17,15,Jits_Phase_8,0,1,48,46,3532211432
28,17,15,Jits_Phase_8,1,5,56,103,3532234992
28,17,15,Jits_Phase_8,2,5,80,127,3532315072
28,17,15,Jits_Phase_8,3,5,63,98,3532334560
28,17,15,Jits_Phase_8,0,5,56,103,3533034836
28,17,15,Jits_Phase_8,1,1,48,42,3533065308
28,17,15,Jits_Phase_8,2,5,63,98,3533144392
28,17,15,Jits_Phase_8,3,5,80,127,3533147752
28,17,15,Jits_Phase_8,0,1,48,31,3533835768
28,17,15,Jits_Phase_8,1,5,56,103,3533875000
28,17,15,Jits_Phase_8,2,5,80,127,3533905204
28,17,15,Jits_Phase_8,3,5,63,98,3533924912
28,17,15,Jits_Phase_8,0,1,48,51,3534651196
28,17,15,Jits_Phase_8,1,5,63,98,3534665020
28,17,15,Jits_Phase_8,2,5,56,103,3534675216
28,17,15,Jits_Phase_8,3,5,80,127,3534684736
28,17,15,Jits_Phase_8,0,1,48,40,3535407776
28,17,15,Jits_Phase_8,1,5,80,127,3535454732
28,17,15,Jits_Phase_8,2,5,56,103,3535504936
28,17,15,Jits_Phase_8,3,5,63,98,3535544784
28,17,15,Jits_Phase_8,0,1,48,48,3536223520
28,17,15,Jits_Phase_8,1,5,80,127,3536274936
28,17,15,Jits_Phase_8,2,5,63,98,3536295176
28,17,15,Jits_Phase_8,3,5,56,103,3536344608
28,17,15,Jits_Phase_8,0,1,48,43,3537047772
28,17,15,Jits_Phase_8,1,5,80,127,3537084884
28,17,15,Jits_Phase_8,2,5,56,103,3537114560
28,17,15,Jits_Phase_8,3,5,63,98,3537185196
28,17,15,Jits_Phase_8,0,5,56,103,3537934704
28,17,15,Jits_Phase_8,1,1,48,42,3537939692
28,17,15,Jits_Phase_8,2,5,80,127,3537945040
28,17,15,Jits_Phase_8,3,5,63,98,3537984856
28,17,15,Jits_Phase_8,0,5,56,103,3538645324
28,17,15,Jits_Phase_8,1,5,63,98,3538664888
28,17,15,Jits_Phase_8,2,1,48,45,3538709352
28,17,15,Jits_Phase_8,3,5,80,127,3538734560
28,17,15,Jits_Phase_8,0,1,48,50,3539463368
28,17,15,Jits_Phase_8,1,5,63,98,3539465012
28,17,15,Jits_Phase_8,2,5,80,127,3539524912
28,17,15,Jits_Phase_8,3,5,56,103,3539544620
28,17,15,Jits_Phase_8,0,1,48,49,3540228108
28,17,15,Jits_Phase_8,1,5,80,127,3540255108
28,17,15,Jits_Phase_8,2,5,56,103,3540284808
28,17,15,Jits_Phase_8,3,5,63,98,3540314484
28,17,15,Jits_Phase_8,0,5,56,103,3541054744
28,17,15,Jits_Phase_8,1,1,48,19,3541057788
28,17,15,Jits_Phase_8,2,5,63,98,3541115428
28,17,15,Jits_Phase_8,3,5,80,127,3541174680
28,17,15,Jits_Phase_8,0,1,48,30,3541858824
28,17,15,Jits_Phase_8,1,5,80,127,3541874964
28,17,15,Jits_Phase_8,2,5,56,103,3541894600
28,17,15,Jits_Phase_8,3,5,63,98,3541965236
28,17,15,Jits_Phase_8,0,5,80,127,3542674796
28,17,15,Jits_Phase_8,1,1,48,44,3542678964
28,17,15,Jits_Phase_8,2,5,63,98,3542695472
28,17,15,Jits_Phase_8,3,5,56,103,3542724924
28,17,15,Jits_Phase_8,0,1,48,52,3543443524
28,17,15,Jits_Phase_8,1,5,80,127,3543465492
28,17,15,Jits_Phase_8,2,5,63,98,3543484832
28,17,15,Jits_Phase_8,3,5,56,103,3543545280
28,17,15,Jits_Phase_8,0,1,48,46,3544238920
28,17,15,Jits_Phase_8,1,5,80,127,3544265028
28,17,15,Jits_Phase_8,2,5,56,103,3544365708
28,17,15,Jits_Phase_8,3,5,63,98,3544395408
28,17,15,Jits_Phase_8,0,5,63,98,3545054460
28,17,15,Jits_Phase_8,1,5,80,127,3545104812
28,17,15,Jits_Phase_8,2,1,48,44,3545120140
28,17,15,Jits_Phase_8,3,5,56,103,3545125340
28,17,15,Jits_Phase_8,0,1,48,45,3545817172
28,17,15,Jits_Phase_8,1,5,80,127,3545895340
28,17,15,Jits_Phase_8,2,5,56,103,3545925096
28,17,15,Jits_Phase_8,3,5,63,98,3545928088
28,17,15,Jits_Phase_8,0,1,48,48,3546644496
28,17,15,Jits_Phase_8,1,5,63,98,3546745296
28,17,15,Jits_Phase_8,2,5,56,103,3546785312
28,17,15,Jits_Phase_8,3,5,80,127,3546804572
28,17,15,Jits_Phase_8,0,5,80,127,3547505224
28,17,15,Jits_Phase_8,1,1,48,50,3547527300
28,17,15,Jits_Phase_8,2,5,63,98,3547585308
28,17,15,Jits_Phase_8,3,5,56,103,3547624784
28,17,15,Jits_Phase_8,0,5,63,98,3548325152
28,17,15,Jits_Phase_8,1,1,48,57,3548336740
28,17,15,Jits_Phase_8,2,5,80,127,3548405316
28,17,15,Jits_Phase_8,3,5,56,103,3548424504
28,17,15,Jits_Phase_8,0,1,48,53,3549125112
28,17,15,Jits_Phase_8,1,5,56,103,3549165144
28,17,15,Jits_Phase_8,2,5,63,98,3549175264
28,17,15,Jits_Phase_8,3,5,80,127,3549215052
28,17,15,Jits_Phase_8,0,5,56,103,3549884744
28,17,15,Jits_Phase_8,1,5,80,127,3549888108
28,17,15,Jits_Phase_8,2,1,48,43,3549956860
28,17,15,Jits_Phase_8,3,5,63,98,3550025236
28,17,15,Jits_Phase_8,0,5,56,103,3550675292
28,17,15,Jits_Phase_8,1,1,48,49,3550745844
28,17,15,Jits_Phase_8,2,5,63,98,3550765348
28,17,15,Jits_Phase_8,3,5,80,127,3550834976
28,17,15,Jits_Phase_8,0,1,48,47,3551531664
28,17,15,Jits_Phase_8,1,5,63,98,3551555028
28,17,15,Jits_Phase_8,2,5,80,127,3551558168
28,17,15,Jits_Phase_8,3,5,56,103,3551615340
28,17,15,Jits_Phase_8,0,1,48,50,3552317068
28,17,15,Jits_Phase_8,1,5,80,127,3552394716
28,17,15,Jits_Phase_8,2,5,56,103,3552415012
28,17,15,Jits_Phase_8,3,5,63,98,3552425208
28,17,15,Jits_Phase_8,0,5,56,103,3553105332
28,17,15,Jits_Phase_8,1,5,63,98,3553114484
28,17,15,Jits_Phase_8,2,1,48,46,3553150852
28,17,15,Jits_Phase_8,3,5,80,127,3553185052
28,17,15,Jits_Phase_8,0,5,80,127,3553905104
28,17,15,Jits_Phase_8,1,1,48,40,3553918112
28,17,15,Jits_Phase_8,2,5,56,103,3553955152
28,17,15,Jits_Phase_8,3,5,63,98,3554005352
28,17,15,Jits_Phase_8,0,1,48,41,3554709784
28,17,15,Jits_Phase_8,1,5,56,103,3554784888
28,17,15,Jits_Phase_8,2,5,63,98,3554795084
28,17,15,Jits_Phase_8,3,5,80,127,3554835008
28,17,15,Jits_Phase_8,0,5,56,103,3555524952
28,17,15,Jits_Phase_8,1,1,48,44,3555531208
28,17,15,Jits_Phase_8,2,5,63,98,3555564884
28,17,15,Jits_Phase_8,3,5,80,127,3555615304
28,17,15,Jits_Phase_8,0,1,48,40,3556283200
28,17,15,Jits_Phase_8,1,5,80,127,3556285008
28,17,15,Jits_Phase_8,2,5,56,103,3556334912
28,17,15,Jits_Phase_8,3,5,63,98,3556354324
28,17,15,Jits_Phase_8,0,1,48,41,3557009280
28,17,15,Jits_Phase_8,1,5,80,127,3557094876
28,17,15,Jits_Phase_8,2,5,63,98,3557155180
28,17,15,Jits_Phase_8,3,5,56,103,3557234924
28,17,15,Jits_Phase_8,0,5,80,127,3557875012
28,17,15,Jits_Phase_8,1,5,56,103,3557914952
28,17,15,Jits_Phase_8,2,5,63,98,3557934364
28,17,15,Jits_Phase_8,3,1,48,46,3557942832
28,17,15,Jits_Phase_8,0,1,48,43,3558658484
28,17,15,Jits_Phase_8,1,5,56,103,3558724996
28,17,15,Jits_Phase_8,2,5,80,127,3558735192
28,17,15,Jits_Phase_8,3,5,63,98,3558775188
28,17,15,Jits_Phase_8,0,1,48,38,3559551612
28,17,15,Jits_Phase_8,1,5,56,103,3559595328
28,17,15,Jits_Phase_8,2,5,63,98,3559635268
28,17,15,Jits_Phase_8,3,5,80,127,3559638852
28,17,15,Jits_Phase_8,0,5,63,98,3560265108
28,17,15,Jits_Phase_8,1,5,80,127,3560304900
28,17,15,Jits_Phase_8,2,1,48,52,3560322336
28,17,15,Jits_Phase_8,3,5,56,103,3560374644
28,17,15,Jits_Phase_8,0,5,63,98,3561035124
28,17,15,Jits_Phase_8,1,1,48,42,3561102684
28,17,15,Jits_Phase_8,2,5,56,103,3561114988
28,17,15,Jits_Phase_8,3,5,80,127,3561175676
28,17,15,Jits_Phase_8,0,5,80,127,3561845216
28,17,15,Jits_Phase_8,1,1,48,51,3561850724
28,17,15,Jits_Phase_8,2,5,63,98,3561895264
28,17,15,Jits_Phase_8,3,5,56,103,3561924936
28,17,15,Jits_Phase_8,0,5,56,103,3562634648
28,17,15,Jits_Phase_8,1,1,48,46,3562643240
28,17,15,Jits_Phase_8,2,5,63,98,3562684768
28,17,15,Jits_Phase_8,3,5,80,127,3562694964
28,17,15,Jits_Phase_8,0,5,56,103,3563444604
28,17,15,Jits_Phase_8,1,1,48,41,3563453124
28,17,15,Jits_Phase_8,2,5,63,98,3563555396
28,17,15,Jits_Phase_8,3,5,80,127,3563574684
28,17,15,Jits_Phase_8,0,5,63,98,3564245504
28,17,15,Jits_Phase_8,1,1,48,48,3564280012
28,17,15,Jits_Phase_8,2,5,80,127,3564294728
28,17,15,Jits_Phase_8,3,5,56,103,3564384568
28,17,15,Jits_Phase_8,0,5,63,98,3565034776
28,17,15,Jits_Phase_8,1,1,48,45,3565039388
28,17,15,Jits_Phase_8,2,5,80,127,3565064520
28,17,15,Jits_Phase_8,3,5,56,103,3565154736
28,17,15,Jits_Phase_8,0,5,63,98,3565834684
28,17,15,Jits_Phase_8,1,5,56,103,3565844804
28,17,15,Jits_Phase_8,2,1,48,37,3565867180
28,17,15,Jits_Phase_8,3,5,80,127,3565945436
28,17,15,Jits_Phase_8,0,1,48,42,3566610192
28,17,15,Jits_Phase_8,1,5,63,98,3566734756
28,17,15,Jits_Phase_8,2,5,80,127,3566765404
28,17,15,Jits_Phase_8,3,5,56,103,3566795152
28,17,15,Jits_Phase_8,0,1,48,48,3567466856
28,17,15,Jits_Phase_8,1,5,80,127,3567554844
28,17,15,Jits_Phase_8,2,5,63,98,3567565412
28,17,15,Jits_Phase_8,3,5,56,103,3567594848
28,17,15,Jits_Phase_8,0,5,80,127,3568255260
28,17,15,Jits_Phase_8,1,5,63,98,3568274748
28,17,15,Jits_Phase_8,2,1,48,49,3568295328
28,17,15,Jits_Phase_8,3,5,56,103,3568325016
28,17,15,Jits_Phase_8,0,1,48,39,3569055524
28,17,15,Jits_Phase_8,1,5,63,98,3569084844
28,17,15,Jits_Phase_8,2,5,80,127,3569145532
28,17,15,Jits_Phase_8,3,5,56,103,3569164708
28,17,15,Jits_Phase_8,0,5,63,98,3569844604
28,17,15,Jits_Phase_8,1,1,48,51,3569883836
28,17,15,Jits_Phase_8,2,5,56,103,3569894800
28,17,15,Jits_Phase_8,3,5,80,127,3569904996
28,17,15,Jits_Phase_8,0,1,48,50,3570601160
28,17,15,Jits_Phase_8,1,5,56,103,3570675292
28,17,15,Jits_Phase_8,2,5,80,127,3570685412
28,17,15,Jits_Phase_8,3,5,63,98,3570784620
28,17,15,Jits_Phase_8,0,5,80,127,3571435048
28,17,15,Jits_Phase_8,1,5,63,98,3571445540
28,17,15,Jits_Phase_8,2,1,48,45,3571460272
28,17,15,Jits_Phase_8,3,5,56,103,3571594564
28,17,15,Jits_Phase_8,0,1,48,47,3572193056
28,17,15,Jits_Phase_8,1,5,63,98,3572244776
28,17,15,Jits_Phase_8,2,5,80,127,3572284816
28,17,15,Jits_Phase_8,3,5,56,103,3572364596
28,17,15,Jits_Phase_8,0,1,48,50,3572988164
28,17,15,Jits_Phase_8,1,5,56,103,3572994412
28,17,15,Jits_Phase_8,2,5,80,127,3573094748
28,17,15,Jits_Phase_8,3,5,63,98,3573115204
28,17,15,Jits_Phase_8,0,1,48,47,3573788600
28,17,15,Jits_Phase_8,1,5,80,127,3573814656
28,17,15,Jits_Phase_8,2,5,56,103,3573825372
28,17,15,Jits_Phase_8,3,5,63,98,3573915116
28,17,15,Jits_Phase_8,0,5,56,103,3574615468
28,17,15,Jits_Phase_8,1,5,63,98,3574635032
28,17,15,Jits_Phase_8,2,1,48,40,3574639872
28,17,15,Jits_Phase_8,3,5,80,127,3574714668
28,17,15,Jits_Phase_8,0,5,63,98,3575365272
28,17,15,Jits_Phase_8,1,1,48,54,3575425632
28,17,15,Jits_Phase_8,2,5,56,103,3575455248
28,17,15,Jits_Phase_8,3,5,80,127,3575458240
28,17,15,Jits_Phase_8,0,1,48,50,3576098724
28,17,15,Jits_Phase_8,1,5,56,103,3576194384
28,17,15,Jits_Phase_8,2,5,80,127,3576254908
28,17,15,Jits_Phase_8,3,5,63,98,3576265180
28,17,15,Jits_Phase_8,0,1,48,33,3576979652
28,17,15,Jits_Phase_8,1,5,80,127,3577045464
28,17,15,Jits_Phase_8,2,5,56,103,3577054536
28,17,15,Jits_Phase_8,3,5,63,98,3577057900
28,17,15,Jits_Phase_8,0,1,48,40,3577785852
28,17,15,Jits_Phase_8,1,5,56,103,3577805132
28,17,15,Jits_Phase_8,2,5,80,127,3577815552
28,17,15,Jits_Phase_8,3,5,63,98,3577835036
28,17,15,Jits_Phase_8,0,1,48,39,3578539972
28,17,15,Jits_Phase_8,1,5,63,98,3578575144
28,17,15,Jits_Phase_8,2,5,80,127,3578634552
28,17,15,Jits_Phase_8,3,5,56,103,3578684848
28,17,15,Jits_Phase_8,0,1,48,39,3579408444
28,17,15,Jits_Phase_8,1,5,63,98,3579455020
28,17,15,Jits_Phase_8,2,5,56,103,3579465068
28,17,15,Jits_Phase_8,3,5,80,127,3579515256
28,17,15,Jits_Phase_8,0,5,63,98,3580155272
28,17,15,Jits_Phase_8,1,5,80,127,3580174908
28,17,15,Jits_Phase_8,2,5,56,103,3580184956
28,17,15,Jits_Phase_8,3,1,48,28,3580270120
28,17,15,Jits_Phase_8,0,1,48,42,3580930852
28,17,15,Jits_Phase_8,1,5,63,98,3580955088
28,17,15,Jits_Phase_8,2,5,80,127,3580958228
28,17,15,Jits_Phase_8,3,5,56,103,3580994904
28,17,15,Jits_Phase_8,0,1,48,46,3581658896
28,17,15,Jits_Phase_8,1,5,63,98,3581825340
28,17,15,Jits_Phase_8,2,5,80,127,3581855164
28,17,15,Jits_Phase_8,3,5,56,103,3581865508
28,17,15,Jits_Phase_8,0,1,48,43,3582507884
28,17,15,Jits_Phase_8,1,5,56,103,3582574844
28,17,15,Jits_Phase_8,2,5,80,127,3582604876
28,17,15,Jits_Phase_8,3,5,63,98,3582635600
28,17,15,Jits_Phase_8,0,1,48,40,3583298672
28,17,15,Jits_Phase_8,1,5,63,98,3583475056
28,17,15,Jits_Phase_8,2,5,56,103,3583515064
28,17,15,Jits_Phase_8,3,5,80,127,3583518056
28,17,15,Jits_Phase_8,0,5,80,127,3584174740
28,17,15,Jits_Phase_8,1,1,48,47,3584194648
28,17,15,Jits_Phase_8,2,5,56,103,3584255500
28,17,15,Jits_Phase_8,3,5,63,98,3584304592
28,17,15,Jits_Phase_8,0,5,80,127,3584954884
28,17,15,Jits_Phase_8,1,5,56,103,3584975192
28,17,15,Jits_Phase_8,2,1,48,53,3584980404
28,17,15,Jits_Phase_8,3,5,63,98,3585065464
28,17,15,Jits_Phase_8,0,1,48,46,3585758880
28,17,15,Jits_Phase_8,1,5,80,127,3585794800
28,17,15,Jits_Phase_8,2,5,63,98,3585835488
28,17,15,Jits_Phase_8,3,5,56,103,3585875284
28,17,15,Jits_Phase_8,0,5,63,98,3586605652
28,17,15,Jits_Phase_8,1,1,48,38,3586610220
28,17,15,Jits_Phase_8,2,5,80,127,3586664940
28,17,15,Jits_Phase_8,3,5,56,103,3586694764
28,17,15,Jits_Phase_8,0,1,48,53,3587423824
28,17,15,Jits_Phase_8,1,5,56,103,3587445124
28,17,15,Jits_Phase_8,2,5,80,127,3587474952
28,17,15,Jits_Phase_8,3,5,63,98,3587564844
28,17,15,Jits_Phase_8,0,1,48,51,3588249720
28,17,15,Jits_Phase_8,1,5,56,103,3588255220
28,17,15,Jits_Phase_8,2,5,80,127,3588364600
28,17,15,Jits_Phase_8,3,5,63,98,3588395544
28,17,15,Jits_Phase_8,0,5,56,103,3589104892
28,17,15,Jits_Phase_8,1,1,48,48,3589115956
28,17,15,Jits_Phase_8,2,5,63,98,3589165496
28,17,15,Jits_Phase_8,3,5,80,127,3589194972
28,17,15,Jits_Phase_8,0,1,48,48,3589871504
28,17,15,Jits_Phase_8,1,5,56,103,3589875068
28,17,15,Jits_Phase_8,2,5,63,98,3589944624
28,17,15,Jits_Phase_8,3,5,80,127,3589965380
28,17,15,Jits_Phase_8,0,5,80,127,3590645092
28,17,15,Jits_Phase_8,1,5,63,98,3590664504
28,17,15,Jits_Phase_8,2,1,48,39,3590679980
28,17,15,Jits_Phase_8,3,5,56,103,3590714724
28,17,15,Jits_Phase_8,0,1,48,46,3591419864
28,17,15,Jits_Phase_8,1,5,63,98,3591465304
28,17,15,Jits_Phase_8,2,5,80,127,3591474480
28,17,15,Jits_Phase_8,3,5,56,103,3591524664
28,17,15,Jits_Phase_8,0,1,48,45,3592210560
28,17,15,Jits_Phase_8,1,5,63,98,3592265008
28,17,15,Jits_Phase_8,2,5,80,127,3592334604
28,17,15,Jits_Phase_8,3,5,56,103,3592355284
28,17,15,Jits_Phase_8,0,1,48,40,3593081512
28,17,15,Jits_Phase_8,1,5,63,98,3593094436
28,17,15,Jits_Phase_8,2,5,80,127,3593097724
28,17,15,Jits_Phase_8,3,5,56,103,3593165460
28,17,15,Jits_Phase_8,0,5,80,127,3593845412
28,17,15,Jits_Phase_8,1,5,56,103,3593864600
28,17,15,Jits_Phase_8,2,5,63,98,3593874948
28,17,15,Jits_Phase_8,3,1,48,46,3593883168
28,17,15,Jits_Phase_8,0,1,48,49,3594657208
28,17,15,Jits_Phase_8,1,5,56,103,3594665404
28,17,15,Jits_Phase_8,2,5,63,98,3594754416
28,17,15,Jits_Phase_8,3,5,80,127,3594758512
28,17,15,Jits_Phase_8,0,1,48,47,3595410424
28,17,15,Jits_Phase_8,1,5,80,127,3595435408
28,17,15,Jits_Phase_8,2,5,56,103,3595444708
28,17,15,Jits_Phase_8,3,5,63,98,3595465164
28,17,15,Jits_Phase_8,0,1,48,48,3596151656
28,17,15,Jits_Phase_8,1,5,63,98,3596235084
28,17,15,Jits_Phase_8,2,5,80,127,3596294488
28,17,15,Jits_Phase_8,3,5,56,103,3596304684
28,17,15,Jits_Phase_8,0,1,48,43,3596996376
28,17,15,Jits_Phase_8,1,5,63,98,3597104604
28,17,15,Jits_Phase_8,2,5,80,127,3597135252
28,17,15,Jits_Phase_8,3,5,56,103,3597175112
28,17,15,Jits_Phase_8,0,1,48,44,3597855032
28,17,15,Jits_Phase_8,1,5,56,103,3597895308
28,17,15,Jits_Phase_8,2,5,80,127,3597905284
28,17,15,Jits_Phase_8,3,5,63,98,3597945224
28,17,15,Jits_Phase_8,0,1,48,48,3598651956
28,17,15,Jits_Phase_8,1,5,80,127,3598654768
28,17,15,Jits_Phase_8,2,5,56,103,3598734860
28,17,15,Jits_Phase_8,3,5,63,98,3598746088
28,17,15,Jits_Phase_8,0,1,48,46,3599445212
28,17,15,Jits_Phase_8,1,5,80,127,3599505024
28,17,15,Jits_Phase_8,2,5,56,103,3599584728
28,17,15,Jits_Phase_8,3,5,63,98,3599595076
28,17,15,Jits_Phase_8,0,1,48,32,3600326716
28,17,15,Jits_Phase_8,1,5,80,127,3600344348
28,17,15,Jits_Phase_8,2,5,56,103,3600394548
28,17,15,Jits_Phase_8,3,5,63,98,3600444984
28,17,15,Jits_Phase_8,0,1,48,41,3601105260
28,17,15,Jits_Phase_8,1,5,56,103,3601284432
28,17,15,Jits_Phase_8,2,5,63,98,3601287424
28,17,15,Jits_Phase_8,3,5,80,127,3601334708
28,17,15,Jits_Phase_8,0,1,48,38,3602068964
28,17,15,Jits_Phase_8,1,5,56,103,3602104732
28,17,15,Jits_Phase_8,2,5,63,98,3602135308
28,17,15,Jits_Phase_8,3,5,80,127,3602144604
28,17,15,Jits_Phase_8,0,5,63,98,3602815268
28,17,15,Jits_Phase_8,1,5,56,103,3602885172
28,17,15,Jits_Phase_8,2,1,48,42,3602902072
28,17,15,Jits_Phase_8,3,5,80,127,3602935144
28,17,15,Jits_Phase_8,0,5,63,98,3603644852
28,17,15,Jits_Phase_8,1,5,56,103,3603654968
28,17,15,Jits_Phase_8,2,5,80,127,3603658260
28,17,15,Jits_Phase_8,3,1,48,36,3603695628
28,17,15,Jits_Phase_8,0,5,80,127,3604395372
28,17,15,Jits_Phase_8,1,5,56,103,3604454940
28,17,15,Jits_Phase_8,2,1,48,35,3604461648
28,17,15,Jits_Phase_8,3,5,63,98,3604544940
28,17,15,Jits_Phase_8,0,5,80,127,3605195144
28,17,15,Jits_Phase_8,1,1,48,41,3605237824
28,17,15,Jits_Phase_8,2,5,56,103,3605294368
28,17,15,Jits_Phase_8,3,5,63,98,3605335336
28,17,15,Jits_Phase_8,0,1,48,50,3606042920
28,17,15,Jits_Phase_8,1,5,56,103,3606044960
28,17,15,Jits_Phase_8,2,5,63,98,3606064772
28,17,15,Jits_Phase_8,3,5,80,127,3606104708
28,17,15,Jits_Phase_8,0,5,63,98,3606815056
28,17,15,Jits_Phase_8,1,5,56,103,3606834716
28,17,15,Jits_Phase_8,2,1,48,50,3606842788
28,17,15,Jits_Phase_8,3,5,80,127,3606934792
28,17,15,Jits_Phase_8,0,5,63,98,3607604796
28,17,15,Jits_Phase_8,1,1,48,41,3607613692
28,17,15,Jits_Phase_8,2,5,80,127,3607715216
28,17,15,Jits_Phase_8,3,5,56,103,3607744816
28,17,15,Jits_Phase_8,0,1,48,44,3608414568
28,17,15,Jits_Phase_8,1,5,56,103,3608424780
28,17,15,Jits_Phase_8,2,5,63,98,3608454604
28,17,15,Jits_Phase_8,3,5,80,127,3608504584
28,17,15,Jits_Phase_8,0,5,63,98,3609194864
28,17,15,Jits_Phase_8,1,1,48,48,3609210860
28,17,15,Jits_Phase_8,2,5,56,103,3609224756
28,17,15,Jits_Phase_8,3,5,80,127,3609274736
28,17,15,Jits_Phase_8,0,5,56,103,3610025260
28,17,15,Jits_Phase_8,1,5,63,98,3610044748
28,17,15,Jits_Phase_8,2,1,48,30,3610052052
28,17,15,Jits_Phase_8,3,5,80,127,3610124684
28,17,15,Jits_Phase_8,0,5,63,98,3610795508
28,17,15,Jits_Phase_8,1,5,56,103,3610854708
28,17,15,Jits_Phase_8,2,5,80,127,3610884456
28,17,15,Jits_Phase_8,0,1,48,42,3611548216
28,17,15,Jits_Phase_8,1,5,56,103,3611635084
28,17,15,Jits_Phase_8,2,5,80,127,3611694512
28,17,15,Jits_Phase_8,3,5,63,98,3611735572
28,17,15,Jits_Phase_8,0,1,48,55,3612414084
28,17,15,Jits_Phase_8,1,5,63,98,3612415880
28,17,15,Jits_Phase_8,2,5,56,103,3612474880
28,17,15,Jits_Phase_8,3,5,80,127,3612545592
28,17,15,Jits_Phase_8,0,1,48,54,3613172752
28,17,15,Jits_Phase_8,1,5,56,103,3613294996
28,17,15,Jits_Phase_8,2,5,63,98,3613305192
28,17,15,Jits_Phase_8,3,5,80,127,3613308556
28,17,15,Jits_Phase_8,0,1,48,56,3614006704
28,17,15,Jits_Phase_8,1,5,63,98,3614035576
28,17,15,Jits_Phase_8,2,5,56,103,3614094768
28,17,15,Jits_Phase_8,3,5,80,127,3614097684
28,17,15,Jits_Phase_8,0,1,48,49,3614769584
28,17,15,Jits_Phase_8,1,5,63,98,3614814648
28,17,15,Jits_Phase_8,2,5,80,127,3614845296
28,17,15,Jits_Phase_8,3,5,56,103,3614864844
28,17,15,Jits_Phase_8,0,1,48,50,3615530276
28,17,15,Jits_Phase_8,1,5,56,103,3615544572
28,17,15,Jits_Phase_8,2,5,63,98,3615594772
28,17,15,Jits_Phase_8,3,5,80,127,3615674776
28,17,15,Jits_Phase_8,0,5,80,127,3616245348
28,17,15,Jits_Phase_8,1,5,63,98,3616285288
28,17,15,Jits_Phase_8,2,5,56,103,3616304428
28,17,15,Jits_Phase_8,3,1,48,31,3616312252
28,17,15,Jits_Phase_8,0,1,48,38,3616998328
28,17,15,Jits_Phase_8,1,5,56,103,3617114428
28,17,15,Jits_Phase_8,2,5,80,127,3617124696
28,17,15,Jits_Phase_8,3,5,63,98,3617145232
28,17,15,Jits_Phase_8,0,1,48,28,3617870864
28,17,15,Jits_Phase_8,1,5,56,103,3617894800
28,17,15,Jits_Phase_8,2,5,63,98,3617944928
28,17,15,Jits_Phase_8,3,5,80,127,3617974664
28,17,15,Jits_Phase_8,0,1,48,56,3618636396
28,17,15,Jits_Phase_8,1,5,56,103,3618645264
28,17,15,Jits_Phase_8,2,5,63,98,3618654488
28,17,15,Jits_Phase_8,3,5,80,127,3618704764
28,17,15,Jits_Phase_8,0,1,48,65,3619381440
28,17,15,Jits_Phase_8,1,5,56,103,3619435196
28,17,15,Jits_Phase_8,2,5,80,127,3619438256
28,17,15,Jits_Phase_8,3,5,63,98,3619594608
28,17,15,Jits_Phase_8,0,1,48,51,3620204348
28,17,15,Jits_Phase_8,1,5,63,98,3620255020
28,17,15,Jits_Phase_8,2,5,56,103,3620324616
28,17,15,Jits_Phase_8,3,5,80,127,3620364624
28,17,15,Jits_Phase_8,0,1,48,58,3621017668
28,17,15,Jits_Phase_8,1,5,63,98,3621094640
28,17,15,Jits_Phase_8,2,5,56,103,3621184856
28,17,15,Jits_Phase_8,3,5,80,127,3621187996
28,17,15,Jits_Phase_8,0,1,48,42,3621828956
28,17,15,Jits_Phase_8,1,5,56,103,3621874988
28,17,15,Jits_Phase_8,2,5,63,98,3621965132
28,17,15,Jits_Phase_8,3,5,80,127,3621975332
28,17,15,Jits_Phase_8,0,1,48,43,3622636068
28,17,15,Jits_Phase_8,1,5,56,103,3622645232
28,17,15,Jits_Phase_8,2,5,63,98,3622695360
28,17,15,Jits_Phase_8,3,5,80,127,3622725132
28,17,15,Jits_Phase_8,0,1,48,46,3623378868
28,17,15,Jits_Phase_8,1,5,63,98,3623525012
28,17,15,Jits_Phase_8,2,5,80,127,3623535280
28,17,15,Jits_Phase_8,3,5,56,103,3623595372
28,17,15,Jits_Phase_8,0,5,63,98,3624244560
28,17,15,Jits_Phase_8,1,1,48,46,3624297420
28,17,15,Jits_Phase_8,2,5,80,127,3624304868
28,17,15,Jits_Phase_8,3,5,56,103,3624344804
28,17,15,Jits_Phase_8,0,1,48,58,3625019320
28,17,15,Jits_Phase_8,1,5,56,103,3625144984
28,17,15,Jits_Phase_8,2,5,80,127,3625165144
28,17,15,Jits_Phase_8,3,5,63,98,3625184556
28,17,15,Jits_Phase_8,0,5,63,98,3625864524
28,17,15,Jits_Phase_8,1,5,56,103,3625884908
28,17,15,Jits_Phase_8,2,1,48,48,3625913204
28,17,15,Jits_Phase_8,3,5,80,127,3625924840
28,17,15,Jits_Phase_8,0,1,48,47,3626638988
28,17,15,Jits_Phase_8,1,5,63,98,3626674536
28,17,15,Jits_Phase_8,2,5,80,127,3626705256
28,17,15,Jits_Phase_8,3,5,56,103,3626724892
28,17,15,Jits_Phase_8,0,1,48,33,3627410948
28,17,15,Jits_Phase_8,1,5,80,127,3627444772
28,17,15,Jits_Phase_8,2,5,56,103,3627494752
28,17,15,Jits_Phase_8,3,5,63,98,3627555128
28,17,15,Jits_Phase_8,0,1,48,48,3628176476
28,17,15,Jits_Phase_8,1,5,63,98,3628235092
28,17,15,Jits_Phase_8,2,5,56,103,3628354904
28,17,15,Jits_Phase_8,3,5,80,127,3628384652
28,17,15,Jits_Phase_8,0,1,48,56,3629057224
28,17,15,Jits_Phase_8,1,5,80,127,3629074708
28,17,15,Jits_Phase_8,2,5,63,98,3629095316
28,17,15,Jits_Phase_8,3,5,56,103,3629164932
28,17,15,Jits_Phase_8,0,1,48,48,3629865820
28,17,15,Jits_Phase_8,1,5,63,98,3629895168
28,17,15,Jits_Phase_8,2,5,56,103,3629905212
28,17,15,Jits_Phase_8,3,5,80,127,3629984992
28,17,15,Jits_Phase_8,0,1,48,48,3630731904
28,17,15,Jits_Phase_8,1,5,56,103,3630755168
28,17,15,Jits_Phase_8,2,5,80,127,3630784992
28,17,15,Jits_Phase_8,3,5,63,98,3630795112
28,17,15,Jits_Phase_8,0,9999,9999,9999,3495902324
28,17,15,Jits_Phase_8,1,9999,9999,9999,3496703088
28,17,15,Jits_Phase_8,2,9999,9999,9999,3497502804
28,17,15,Jits_Phase_8,3,9999,9999,9999,3498302528
28,17,15,Jits_Phase_8,4,9999,9999,9999,3499102288
28,17,15,Jits_Phase_8,5,9999,9999,9999,3499903092
28,17,15,Jits_Phase_8,6,9999,9999,9999,3500702776
28,17,15,Jits_Phase_8,7,9999,9999,9999,3501502552
28,17,15,Jits_Phase_8,8,9999,9999,9999,3502302316
28,17,15,Jits_Phase_8,9,9999,9999,9999,3503103032
28,17,15,Jits_Phase_8,10,9999,9999,9999,3503902812
28,17,15,Jits_Phase_8,11,9999,9999,9999,3504702524
28,17,15,Jits_Phase_8,12,9999,9999,9999,3505502304
28,17,15,Jits_Phase_8,13,9999,9999,9999,3506303044
28,17,15,Jits_Phase_8,14,9999,9999,9999,3507102796
28,17,15,Jits_Phase_8,15,9999,9999,9999,3507902544
28,17,15,Jits_Phase_8,16,9999,9999,9999,3508702288
28,17,15,Jits_Phase_8,17,9999,9999,9999,3509503100
28,17,15,Jits_Phase_8,18,9999,9999,9999,3510302788
28,17,15,Jits_Phase_8,19,9999,9999,9999,3511102576
28,17,15,Jits_Phase_8,20,9999,9999,9999,3511902328
28,17,15,Jits_Phase_8,21,9999,9999,9999,3512703064
28,17,15,Jits_Phase_8,22,9999,9999,9999,3513502816
28,17,15,Jits_Phase_8,23,9999,9999,9999,3514302572
28,17,15,Jits_Phase_8,24,9999,9999,9999,3515102324
28,17,15,Jits_Phase_8,25,9999,9999,9999,3515903052
28,17,15,Jits_Phase_8,26,9999,9999,9999,3516702816
28,17,15,Jits_Phase_8,27,9999,9999,9999,3517502528
28,17,15,Jits_Phase_8,28,9999,9999,9999,3518302296
28,17,15,Jits_Phase_8,29,9999,9999,9999,3519103036
28,17,15,Jits_Phase_8,30,9999,9999,9999,3519882340
28,17,15,Jits_Phase_8,31,9999,9999,9999,3520683076
28,17,15,Jits_Phase_8,32,9999,9999,9999,3521493112
28,17,15,Jits_Phase_8,33,9999,9999,9999,3522292864
28,17,15,Jits_Phase_8,34,9999,9999,9999,3523092564
28,17,15,Jits_Phase_8,35,9999,9999,9999,3523892280
28,17,15,Jits_Phase_8,36,9999,9999,9999,3524693092
28,17,15,Jits_Phase_8,37,9999,9999,9999,3525492852
28,17,15,Jits_Phase_8,38,9999,9999,9999,3526292544
28,17,15,Jits_Phase_8,39,9999,9999,9999,3527092308
28,17,15,Jits_Phase_8,40,9999,9999,9999,3527893116
28,17,15,Jits_Phase_8,41,9999,9999,9999,3528692816
28,17,15,Jits_Phase_8,42,9999,9999,9999,3529492568
28,17,15,Jits_Phase_8,43,9999,9999,9999,3530292344
28,17,15,Jits_Phase_8,44,9999,9999,9999,3531093056
28,17,15,Jits_Phase_8,45,9999,9999,9999,3531892816
28,17,15,Jits_Phase_8,46,9999,9999,9999,3532692580
28,17,15,Jits_Phase_8,47,9999,9999,9999,3533492332
28,17,15,Jits_Phase_8,48,9999,9999,9999,3534312556
28,17,15,Jits_Phase_8,49,9999,9999,9999,3535112312
28,17,15,Jits_Phase_8,50,9999,9999,9999,3535913040
28,17,15,Jits_Phase_8,51,9999,9999,9999,3536712816
28,17,15,Jits_Phase_8,52,9999,9999,9999,3537512504
28,17,15,Jits_Phase_8,53,9999,9999,9999,3538312272
28,17,15,Jits_Phase_8,54,9999,9999,9999,3539113088
28,17,15,Jits_Phase_8,55,9999,9999,9999,3539912784
28,17,15,Jits_Phase_8,56,9999,9999,9999,3540712540
28,17,15,Jits_Phase_8,57,9999,9999,9999,3541512300
28,17,15,Jits_Phase_8,58,9999,9999,9999,3542313044
28,17,15,Jits_Phase_8,59,9999,9999,9999,3543112816
28,17,15,Jits_Phase_8,60,9999,9999,9999,3543912512
28,17,15,Jits_Phase_8,61,9999,9999,9999,3544712280
28,17,15,Jits_Phase_8,62,9999,9999,9999,3545513084
28,17,15,Jits_Phase_8,63,9999,9999,9999,3546312760
28,17,15,Jits_Phase_8,64,9999,9999,9999,3547152456
28,17,15,Jits_Phase_8,65,9999,9999,9999,3547952216
28,17,15,Jits_Phase_8,66,9999,9999,9999,3548752992
28,17,15,Jits_Phase_8,67,9999,9999,9999,3549552756
28,17,15,Jits_Phase_8,68,9999,9999,9999,3550352504
28,17,15,Jits_Phase_8,69,9999,9999,9999,3551152204
28,17,15,Jits_Phase_8,70,9999,9999,9999,3551953020
28,17,15,Jits_Phase_8,71,9999,9999,9999,3552752712
28,17,15,Jits_Phase_8,72,9999,9999,9999,3553552472
28,17,15,Jits_Phase_8,73,9999,9999,9999,3554352244
28,17,15,Jits_Phase_8,74,9999,9999,9999,3555153024
28,17,15,Jits_Phase_8,75,9999,9999,9999,3555952712
28,17,15,Jits_Phase_8,76,9999,9999,9999,3556752480
28,17,15,Jits_Phase_8,77,9999,9999,9999,3557552240
28,17,15,Jits_Phase_8,78,9999,9999,9999,3558352960
28,17,15,Jits_Phase_8,79,9999,9999,9999,3559152736
28,17,15,Jits_Phase_8,80,9999,9999,9999,3559952496
28,17,15,Jits_Phase_8,81,9999,9999,9999,3560712252
28,17,15,Jits_Phase_8,82,9999,9999,9999,3561513056
28,17,15,Jits_Phase_8,83,9999,9999,9999,3562312832
28,17,15,Jits_Phase_8,84,9999,9999,9999,3563112524
28,17,15,Jits_Phase_8,85,9999,9999,9999,3563912300
28,17,15,Jits_Phase_8,86,9999,9999,9999,3564713048
28,17,15,Jits_Phase_8,87,9999,9999,9999,3565512804
28,17,15,Jits_Phase_8,88,9999,9999,9999,3566312560
28,17,15,Jits_Phase_8,89,9999,9999,9999,3567112248
28,17,15,Jits_Phase_8,90,9999,9999,9999,3567913060
28,17,15,Jits_Phase_8,91,9999,9999,9999,3568712760
28,17,15,Jits_Phase_8,92,9999,9999,9999,3569512540
28,17,15,Jits_Phase_8,93,9999,9999,9999,3570312292
28,17,15,Jits_Phase_8,94,9999,9999,9999,3571113024
28,17,15,Jits_Phase_8,95,9999,9999,9999,3571912776
28,17,15,Jits_Phase_8,96,9999,9999,9999,3572712548
28,17,15,Jits_Phase_8,97,9999,9999,9999,3573432448
28,17,15,Jits_Phase_8,98,9999,9999,9999,3574232136
28,17,15,Jits_Phase_8,99,9999,9999,9999,3575032944
28,17,15,Jits_Phase_8,100,9999,9999,9999,3575832704
28,17,15,Jits_Phase_8,101,9999,9999,9999,3576632416
28,17,15,Jits_Phase_8,102,9999,9999,9999,3577432164
28,17,15,Jits_Phase_8,103,9999,9999,9999,3578232896
28,17,15,Jits_Phase_8,104,9999,9999,9999,3579032656
28,17,15,Jits_Phase_8,105,9999,9999,9999,3579832424
28,17,15,Jits_Phase_8,106,9999,9999,9999,3580632172
28,17,15,Jits_Phase_8,107,9999,9999,9999,3581432960
28,17,15,Jits_Phase_8,108,9999,9999,9999,3582232644
28,17,15,Jits_Phase_8,109,9999,9999,9999,3583032424
28,17,15,Jits_Phase_8,110,9999,9999,9999,3583832184
28,17,15,Jits_Phase_8,111,9999,9999,9999,3584632920
28,17,15,Jits_Phase_8,112,9999,9999,9999,3585432684
28,17,15,Jits_Phase_8,113,9999,9999,9999,3586232380
28,17,15,Jits_Phase_8,114,9999,9999,9999,3587113048
28,17,15,Jits_Phase_8,115,9999,9999,9999,3587912820
28,17,15,Jits_Phase_8,116,9999,9999,9999,3588712512
28,17,15,Jits_Phase_8,117,9999,9999,9999,3589512276
28,17,15,Jits_Phase_8,118,9999,9999,9999,3590313024
28,17,15,Jits_Phase_8,119,9999,9999,9999,3591112780
28,17,15,Jits_Phase_8,120,9999,9999,9999,3591912548
28,17,15,Jits_Phase_8,121,9999,9999,9999,3592712308
28,17,15,Jits_Phase_8,122,9999,9999,9999,3593513028
28,17,15,Jits_Phase_8,123,9999,9999,9999,3594312800
28,17,15,Jits_Phase_8,124,9999,9999,9999,3595112568
28,17,15,Jits_Phase_8,125,9999,9999,9999,3595912316
28,17,15,Jits_Phase_8,126,9999,9999,9999,3596713040
28,17,15,Jits_Phase_8,127,9999,9999,9999,3597512808
28,17,15,Jits_Phase_8,128,9999,9999,9999,3598312568
28,17,15,Jits_Phase_8,129,9999,9999,9999,3599112252
28,17,15,Jits_Phase_8,130,9999,9999,9999,3599913068
28,17,15,Jits_Phase_8,131,9999,9999,9999,3600872568
28,17,15,Jits_Phase_8,132,9999,9999,9999,3601672248
28,17,15,Jits_Phase_8,133,9999,9999,9999,3602473068
28,17,15,Jits_Phase_8,134,9999,9999,9999,3603272772
28,17,15,Jits_Phase_8,135,9999,9999,9999,3604072520
28,17,15,Jits_Phase_8,136,9999,9999,9999,3604872280
28,17,15,Jits_Phase_8,137,9999,9999,9999,3605673028
28,17,15,Jits_Phase_8,138,9999,9999,9999,3606472800
28,17,15,Jits_Phase_8,139,9999,9999,9999,3607272556
28,17,15,Jits_Phase_8,140,9999,9999,9999,3608072320
28,17,15,Jits_Phase_8,141,9999,9999,9999,3608873044
28,17,15,Jits_Phase_8,142,9999,9999,9999,3609672816
28,17,15,Jits_Phase_8,143,9999,9999,9999,3610472572
28,17,15,Jits_Phase_8,144,9999,9999,9999,3611272288
28,17,15,Jits_Phase_8,145,9999,9999,9999,3612073040
28,17,15,Jits_Phase_8,146,9999,9999,9999,3612872796
28,17,15,Jits_Phase_8,147,9999,9999,9999,3613672548
28,17,15,Jits_Phase_8,148,9999,9999,9999,3614472300
28,17,15,Jits_Phase_8,149,9999,9999,9999,3615273028
28,17,15,Jits_Phase_8,150,9999,9999,9999,3615913060
28,17,15,Jits_Phase_8,151,9999,9999,9999,3616712812
28,17,15,Jits_Phase_8,152,9999,9999,9999,3617512516
28,17,15,Jits_Phase_8,153,9999,9999,9999,3618312284
28,17,15,Jits_Phase_8,154,9999,9999,9999,3619113080
28,17,15,Jits_Phase_8,155,9999,9999,9999,3619912772
28,17,15,Jits_Phase_8,156,9999,9999,9999,3620712532
28,17,15,Jits_Phase_8,157,9999,9999,9999,3621512288
28,17,15,Jits_Phase_8,158,9999,9999,9999,3622313024
28,17,15,Jits_Phase_8,159,9999,9999,9999,3623112776
28,17,15,Jits_Phase_8,160,9999,9999,9999,3623912540
28,17,15,Jits_Phase_8,161,9999,9999,9999,3624712296
28,17,15,Jits_Phase_8,162,9999,9999,9999,3625513036
28,17,15,Jits_Phase_8,163,9999,9999,9999,3626312808
28,17,15,Jits_Phase_8,164,9999,9999,9999,3627112564
28,17,15,Jits_Phase_8,165,9999,9999,9999,3627912248
28,17,15,Jits_Phase_8,166,9999,9999,9999,3628713056
28,17,15,Jits_Phase_8,167,9999,9999,9999,3629512812
28,17,15,Jits_Phase_8,168,9999,9999,9999,3630312572
28,17,15,Jits_Phase_8,169,9999,9999,9999,3631112268
28,18,19,Jits_Linear_5,0,5,56,103,3640938824
28,18,19,Jits_Linear_5,1,5,63,98,3640942152
28,18,19,Jits_Linear_5,2,5,80,127,3640945200
28,18,19,Jits_Linear_5,0,5,56,103,3641419216
28,18,19,Jits_Linear_5,1,5,63,98,3641422316
28,18,19,Jits_Linear_5,2,5,80,127,3641425216
28,18,19,Jits_Linear_5,0,5,56,103,3641899324
28,18,19,Jits_Linear_5,1,5,80,127,3641908472
28,18,19,Jits_Linear_5,2,5,63,98,3641929380
28,18,19,Jits_Linear_5,0,5,63,98,3642328388
28,18,19,Jits_Linear_5,1,1,48,48,3642352404
28,18,19,Jits_Linear_5,2,5,80,127,3642359028
28,18,19,Jits_Linear_5,3,5,56,103,3642369372
28,18,19,Jits_Linear_5,0,1,48,53,3642791024
28,18,19,Jits_Linear_5,1,5,80,127,3642869196
28,18,19,Jits_Linear_5,2,5,56,103,3642879244
28,18,19,Jits_Linear_5,3,5,63,98,3642909128
28,18,19,Jits_Linear_5,0,1,48,56,3643301208
28,18,19,Jits_Linear_5,1,5,63,98,3643349484
28,18,19,Jits_Linear_5,2,5,56,103,3643379236
28,18,19,Jits_Linear_5,3,5,80,127,3643389432
28,18,19,Jits_Linear_5,0,5,56,103,3643788648
28,18,19,Jits_Linear_5,1,1,48,48,3643795132
28,18,19,Jits_Linear_5,2,5,63,98,3643838772
28,18,19,Jits_Linear_5,3,5,80,127,3643859380
28,18,19,Jits_Linear_5,0,5,80,127,3644279212
28,18,19,Jits_Linear_5,1,1,48,41,3644291020
28,18,19,Jits_Linear_5,2,5,63,98,3644329260
28,18,19,Jits_Linear_5,3,5,56,103,3644369124
28,18,19,Jits_Linear_5,0,5,56,103,3644768504
28,18,19,Jits_Linear_5,1,1,48,44,3644796044
28,18,19,Jits_Linear_5,2,5,63,98,3644799224
28,18,19,Jits_Linear_5,3,5,80,127,3644868904
28,18,19,Jits_Linear_5,0,5,56,103,3645259144
28,18,19,Jits_Linear_5,1,1,48,47,3645266672
28,18,19,Jits_Linear_5,2,5,80,127,3645318408
28,18,19,Jits_Linear_5,3,5,63,98,3645349204
28,18,19,Jits_Linear_5,0,1,48,48,3645718640
28,18,19,Jits_Linear_5,1,5,56,103,3645758992
28,18,19,Jits_Linear_5,2,5,63,98,3645768964
28,18,19,Jits_Linear_5,3,5,80,127,3645809128
28,18,19,Jits_Linear_5,0,1,48,33,3646234872
28,18,19,Jits_Linear_5,1,5,63,98,3646249360
28,18,19,Jits_Linear_5,2,5,80,127,3646330120
28,18,19,Jits_Linear_5,3,5,56,103,3646338372
28,18,19,Jits_Linear_5,0,1,48,48,3646763336
28,18,19,Jits_Linear_5,1,5,63,98,3646799328
28,18,19,Jits_Linear_5,2,5,56,103,3646839120
28,18,19,Jits_Linear_5,3,5,80,127,3646842260
28,18,19,Jits_Linear_5,0,5,56,103,3647258984
28,18,19,Jits_Linear_5,1,5,63,98,3647269332
28,18,19,Jits_Linear_5,2,1,48,62,3647280276
28,18,19,Jits_Linear_5,3,5,80,127,3647309144
28,18,19,Jits_Linear_5,0,5,56,103,3647748344
28,18,19,Jits_Linear_5,1,5,63,98,3647751564
28,18,19,Jits_Linear_5,2,5,80,127,3647769032
28,18,19,Jits_Linear_5,3,1,48,56,3647771780
28,18,19,Jits_Linear_5,0,5,80,127,3648268792
28,18,19,Jits_Linear_5,1,5,56,103,3648278912
28,18,19,Jits_Linear_5,2,1,48,45,3648291024
28,18,19,Jits_Linear_5,3,5,63,98,3648348464
28,18,19,Jits_Linear_5,0,5,63,98,3648769392
28,18,19,Jits_Linear_5,1,1,48,48,3648772808
28,18,19,Jits_Linear_5,2,5,56,103,3648789096
28,18,19,Jits_Linear_5,3,5,80,127,3648868900
28,18,19,Jits_Linear_5,0,5,56,103,3649288636
28,18,19,Jits_Linear_5,1,1,48,43,3649299848
28,18,19,Jits_Linear_5,2,5,80,127,3649328596
28,18,19,Jits_Linear_5,3,5,63,98,3649339012
28,18,19,Jits_Linear_5,0,1,48,49,3649775932
28,18,19,Jits_Linear_5,1,5,80,127,3649798444
28,18,19,Jits_Linear_5,2,5,63,98,3649829320
28,18,19,Jits_Linear_5,3,5,56,103,3649869192
28,18,19,Jits_Linear_5,0,1,48,48,3650288368
28,18,19,Jits_Linear_5,1,5,56,103,3650329000
28,18,19,Jits_Linear_5,2,5,63,98,3650358852
28,18,19,Jits_Linear_5,3,5,80,127,3650408740
28,18,19,Jits_Linear_5,0,1,48,47,3650825512
28,18,19,Jits_Linear_5,1,5,80,127,3650838884
28,18,19,Jits_Linear_5,2,5,56,103,3650878924
28,18,19,Jits_Linear_5,3,5,63,98,3650889044
28,18,19,Jits_Linear_5,0,5,80,127,3651338728
28,18,19,Jits_Linear_5,1,1,48,51,3651363948
28,18,19,Jits_Linear_5,2,5,63,98,3651378760
28,18,19,Jits_Linear_5,3,5,56,103,3651438928
28,18,19,Jits_Linear_5,0,5,56,103,3651858884
28,18,19,Jits_Linear_5,1,5,80,127,3651869004
28,18,19,Jits_Linear_5,2,1,48,51,3651898824
28,18,19,Jits_Linear_5,3,5,63,98,3651948968
28,18,19,Jits_Linear_5,0,5,80,127,3652379032
28,18,19,Jits_Linear_5,1,1,48,48,3652396424
28,18,19,Jits_Linear_5,2,5,63,98,3652439520
28,18,19,Jits_Linear_5,3,5,56,103,3652469048
28,18,19,Jits_Linear_5,0,5,56,103,3652899264
28,18,19,Jits_Linear_5,1,1,48,47,3652907588
28,18,19,Jits_Linear_5,2,5,80,127,3652958628
28,18,19,Jits_Linear_5,3,5,63,98,3652998644
28,18,19,Jits_Linear_5,0,1,48,40,3653462348
28,18,19,Jits_Linear_5,1,5,56,103,3653478932
28,18,19,Jits_Linear_5,2,5,63,98,3653489204
28,18,19,Jits_Linear_5,3,5,80,127,3653492416
28,18,19,Jits_Linear_5,0,1,48,42,3653953476
28,18,19,Jits_Linear_5,1,5,80,127,3653958908
28,18,19,Jits_Linear_5,2,5,63,98,3654049184
28,18,19,Jits_Linear_5,3,5,56,103,3654059304
28,18,19,Jits_Linear_5,0,5,56,103,3654488488
28,18,19,Jits_Linear_5,1,5,63,98,3654491736
28,18,19,Jits_Linear_5,2,5,80,127,3654494856
28,18,19,Jits_Linear_5,3,1,48,35,3654511996
28,18,19,Jits_Linear_5,0,1,48,43,3654981396
28,18,19,Jits_Linear_5,1,5,80,127,3655039420
28,18,19,Jits_Linear_5,2,5,63,98,3655088788
28,18,19,Jits_Linear_5,3,5,56,103,3655119656
28,18,19,Jits_Linear_5,0,1,48,29,3655528148
28,18,19,Jits_Linear_5,1,5,56,103,3655549300
28,18,19,Jits_Linear_5,2,5,80,127,3655558448
28,18,19,Jits_Linear_5,3,5,63,98,3655629312
28,18,19,Jits_Linear_5,0,1,48,44,3656040416
28,18,19,Jits_Linear_5,1,5,56,103,3656089072
28,18,19,Jits_Linear_5,2,5,63,98,3656109608
28,18,19,Jits_Linear_5,3,5,80,127,3656168936
28,18,19,Jits_Linear_5,0,1,48,16,3656562648
28,18,19,Jits_Linear_5,1,1,48,29,3656567212
28,18,19,Jits_Linear_5,2,1,38,10,3656574816
28,18,19,Jits_Linear_5,3,5,80,127,3656619432
28,18,19,Jits_Linear_5,4,5,63,98,3656689000
28,18,19,Jits_Linear_5,5,5,56,103,3656708564
28,18,19,Jits_Linear_5,0,1,48,31,3657098896
28,18,19,Jits_Linear_5,1,5,80,127,3657178492
28,18,19,Jits_Linear_5,2,5,56,103,3657188688
28,18,19,Jits_Linear_5,3,5,63,98,3657198868
28,18,19,Jits_Linear_5,0,1,48,35,3657647656
28,18,19,Jits_Linear_5,1,5,80,127,3657708968
28,18,19,Jits_Linear_5,2,5,56,103,3657729652
28,18,19,Jits_Linear_5,3,5,63,98,3657799120
28,18,19,Jits_Linear_5,0,1,48,40,3658243308
28,18,19,Jits_Linear_5,1,5,56,103,3658258776
28,18,19,Jits_Linear_5,2,5,80,127,3658288400
28,18,19,Jits_Linear_5,3,5,63,98,3658309012
28,18,19,Jits_Linear_5,0,1,48,48,3658789008
28,18,19,Jits_Linear_5,1,5,63,98,3658798568
28,18,19,Jits_Linear_5,2,5,56,103,3658858816
28,18,19,Jits_Linear_5,3,5,80,127,3658888624
28,18,19,Jits_Linear_5,0,1,48,53,3659273772
28,18,19,Jits_Linear_5,1,5,63,98,3659339088
28,18,19,Jits_Linear_5,2,5,80,127,3659342600
28,18,19,Jits_Linear_5,3,5,56,103,3659429284
28,18,19,Jits_Linear_5,0,1,48,55,3659891408
28,18,19,Jits_Linear_5,1,5,56,103,3659908524
28,18,19,Jits_Linear_5,2,5,63,98,3659939472
28,18,19,Jits_Linear_5,3,5,80,127,3659979412
28,18,19,Jits_Linear_5,0,1,48,54,3660405780
28,18,19,Jits_Linear_5,1,5,63,98,3660459532
28,18,19,Jits_Linear_5,2,5,56,103,3660499476
28,18,19,Jits_Linear_5,3,5,80,127,3660518800
28,18,19,Jits_Linear_5,0,1,48,55,3660976736
28,18,19,Jits_Linear_5,1,5,63,98,3661018568
28,18,19,Jits_Linear_5,2,5,56,103,3661058580
28,18,19,Jits_Linear_5,3,5,80,127,3661068776
28,18,19,Jits_Linear_5,0,1,48,61,3661491256
28,18,19,Jits_Linear_5,1,5,80,127,3661548900
28,18,19,Jits_Linear_5,2,5,63,98,3661618520
28,18,19,Jits_Linear_5,3,5,56,103,3661639128
28,18,19,Jits_Linear_5,0,1,48,49,3662091940
28,18,19,Jits_Linear_5,1,5,56,103,3662108904
28,18,19,Jits_Linear_5,2,5,80,127,3662128564
28,18,19,Jits_Linear_5,3,5,63,98,3662168428
28,18,19,Jits_Linear_5,0,1,48,45,3662618520
28,18,19,Jits_Linear_5,1,5,63,98,3662679484
28,18,19,Jits_Linear_5,2,5,80,127,3662698748
28,18,19,Jits_Linear_5,3,5,56,103,3662738672
28,18,19,Jits_Linear_5,0,1,48,40,3663179668
28,18,19,Jits_Linear_5,1,5,63,98,3663238436
28,18,19,Jits_Linear_5,2,5,56,103,3663259196
28,18,19,Jits_Linear_5,3,5,80,127,3663269388
28,18,19,Jits_Linear_5,0,1,48,21,3663768668
28,18,19,Jits_Linear_5,1,5,80,127,3663798584
28,18,19,Jits_Linear_5,2,5,56,103,3663819340
28,18,19,Jits_Linear_5,3,5,63,98,3663848944
28,18,19,Jits_Linear_5,0,1,48,42,3664344984
28,18,19,Jits_Linear_5,1,5,56,103,3664439520
28,18,19,Jits_Linear_5,2,5,80,127,3664442272
28,18,19,Jits_Linear_5,3,5,63,98,3664459296
28,18,19,Jits_Linear_5,0,1,48,43,3664874340
28,18,19,Jits_Linear_5,1,5,63,98,3664929368
28,18,19,Jits_Linear_5,2,5,56,103,3664958696
28,18,19,Jits_Linear_5,3,5,80,127,3665019148
28,18,19,Jits_Linear_5,0,1,48,51,3665406992
28,18,19,Jits_Linear_5,1,5,63,98,3665579440
28,18,19,Jits_Linear_5,2,5,56,103,3665588588
28,18,19,Jits_Linear_5,3,5,80,127,3665598784
28,18,19,Jits_Linear_5,0,1,48,40,3665995872
28,18,19,Jits_Linear_5,1,5,56,103,3666098468
28,18,19,Jits_Linear_5,2,5,80,127,3666129192
28,18,19,Jits_Linear_5,3,5,63,98,3666138340
28,18,19,Jits_Linear_5,0,1,48,35,3666571392
28,18,19,Jits_Linear_5,1,5,63,98,3666708816
28,18,19,Jits_Linear_5,2,5,56,103,3666719160
28,18,19,Jits_Linear_5,3,5,80,127,3666738524
28,18,19,Jits_Linear_5,0,1,48,35,3667193580
28,18,19,Jits_Linear_5,1,5,56,103,3667208672
28,18,19,Jits_Linear_5,2,5,63,98,3667269088
28,18,19,Jits_Linear_5,3,5,80,127,3667272304
28,18,19,Jits_Linear_5,0,1,48,41,3667775320
28,18,19,Jits_Linear_5,1,5,80,127,3667808624
28,18,19,Jits_Linear_5,2,5,56,103,3667819116
28,18,19,Jits_Linear_5,3,5,63,98,3667888560
28,18,19,Jits_Linear_5,0,1,48,45,3668345508
28,18,19,Jits_Linear_5,1,5,80,127,3668379184
28,18,19,Jits_Linear_5,2,5,56,103,3668448484
28,18,19,Jits_Linear_5,3,5,63,98,3668459052
28,18,19,Jits_Linear_5,0,1,48,46,3668975948
28,18,19,Jits_Linear_5,1,5,63,98,3668998460
28,18,19,Jits_Linear_5,2,5,56,103,3669009028
28,18,19,Jits_Linear_5,3,5,80,127,3669029340
28,18,19,Jits_Linear_5,0,5,80,127,3669529020
28,18,19,Jits_Linear_5,1,1,48,42,3669584308
28,18,19,Jits_Linear_5,2,5,63,98,3669589284
28,18,19,Jits_Linear_5,3,5,56,103,3669629224
28,18,19,Jits_Linear_5,0,5,56,103,3670158820
28,18,19,Jits_Linear_5,1,5,63,98,3670168944
28,18,19,Jits_Linear_5,2,1,48,36,3670171912
28,18,19,Jits_Linear_5,3,5,80,127,3670208952
28,18,19,Jits_Linear_5,0,5,56,103,3670708720
28,18,19,Jits_Linear_5,1,1,48,34,3670726068
28,18,19,Jits_Linear_5,2,5,80,127,3670739288
28,18,19,Jits_Linear_5,3,5,63,98,3670788444
28,18,19,Jits_Linear_5,0,1,48,29,3671301064
28,18,19,Jits_Linear_5,1,5,56,103,3671339476
28,18,19,Jits_Linear_5,2,5,63,98,3671379340
28,18,19,Jits_Linear_5,3,5,80,127,3671382484
28,18,19,Jits_Linear_5,0,1,48,33,3671893444
28,18,19,Jits_Linear_5,1,5,56,103,3671929140
28,18,19,Jits_Linear_5,2,5,63,98,3671938292
28,18,19,Jits_Linear_5,3,5,80,127,3671958824
28,18,19,Jits_Linear_5,0,5,56,103,3672479032
28,18,19,Jits_Linear_5,1,5,80,127,3672482020
28,18,19,Jits_Linear_5,2,5,63,98,3672519044
28,18,19,Jits_Linear_5,3,1,48,20,3672538204
28,18,19,Jits_Linear_5,0,1,48,35,3673086412
28,18,19,Jits_Linear_5,1,5,63,98,3673108928
28,18,19,Jits_Linear_5,2,5,56,103,3673138480
28,18,19,Jits_Linear_5,3,5,80,127,3673159016
28,18,19,Jits_Linear_5,0,5,80,127,3673679076
28,18,19,Jits_Linear_5,1,1,48,32,3673683688
28,18,19,Jits_Linear_5,2,5,56,103,3673688888
28,18,19,Jits_Linear_5,3,5,63,98,3673699084
28,18,19,Jits_Linear_5,0,1,48,47,3674249468
28,18,19,Jits_Linear_5,1,5,56,103,3674279164
28,18,19,Jits_Linear_5,2,5,80,127,3674319252
28,18,19,Jits_Linear_5,3,5,63,98,3674348840
28,18,19,Jits_Linear_5,0,5,63,98,3674888692
28,18,19,Jits_Linear_5,1,1,48,31,3674894356
28,18,19,Jits_Linear_5,2,5,80,127,3674898732
28,18,19,Jits_Linear_5,3,5,56,103,3674909004
28,18,19,Jits_Linear_5,0,5,56,103,3675469460
28,18,19,Jits_Linear_5,1,5,63,98,3675538852
28,18,19,Jits_Linear_5,2,5,80,127,3675548972
28,18,19,Jits_Linear_5,0,5,80,127,3676078588
28,18,19,Jits_Linear_5,1,5,56,103,3676088784
28,18,19,Jits_Linear_5,2,1,48,45,3676107872
28,18,19,Jits_Linear_5,3,5,63,98,3676138908
28,18,19,Jits_Linear_5,0,1,48,38,3676664256
28,18,19,Jits_Linear_5,1,5,80,127,3676699056
28,18,19,Jits_Linear_5,2,5,56,103,3676759384
28,18,19,Jits_Linear_5,3,5,63,98,3676789136
28,18,19,Jits_Linear_5,0,5,56,103,3677309660
28,18,19,Jits_Linear_5,1,5,80,127,3677312648
28,18,19,Jits_Linear_5,2,1,48,40,3677342072
28,18,19,Jits_Linear_5,3,5,63,98,3677349144
28,18,19,Jits_Linear_5,0,1,48,45,3677928672
28,18,19,Jits_Linear_5,1,5,56,103,3677949224
28,18,19,Jits_Linear_5,2,5,63,98,3677978976
28,18,19,Jits_Linear_5,3,5,80,127,3677989096
28,18,19,Jits_Linear_5,0,1,48,36,3678547860
28,18,19,Jits_Linear_5,1,5,63,98,3678568788
28,18,19,Jits_Linear_5,2,5,80,127,3678578912
28,18,19,Jits_Linear_5,3,5,56,103,3678589552
28,18,19,Jits_Linear_5,0,1,48,43,3679126500
28,18,19,Jits_Linear_5,1,5,80,127,3679129012
28,18,19,Jits_Linear_5,2,5,56,103,3679178988
28,18,19,Jits_Linear_5,3,5,63,98,3679182280
28,18,19,Jits_Linear_5,0,1,48,45,3679722908
28,18,19,Jits_Linear_5,1,5,56,103,3679779060
28,18,19,Jits_Linear_5,2,5,80,127,3679798648
28,18,19,Jits_Linear_5,3,5,63,98,3679808844
28,18,19,Jits_Linear_5,0,1,48,30,3680370296
28,18,19,Jits_Linear_5,1,5,63,98,3680379388
28,18,19,Jits_Linear_5,2,5,56,103,3680408988
28,18,19,Jits_Linear_5,3,5,80,127,3680429672
28,18,19,Jits_Linear_5,0,1,48,35,3680884280
28,18,19,Jits_Linear_5,1,5,56,103,3681008976
28,18,19,Jits_Linear_5,2,5,80,127,3681019396
28,18,19,Jits_Linear_5,3,5,63,98,3681088876
28,18,19,Jits_Linear_5,0,5,63,98,3681619440
28,18,19,Jits_Linear_5,1,1,48,46,3681634844
28,18,19,Jits_Linear_5,2,5,80,127,3681659300
28,18,19,Jits_Linear_5,3,5,56,103,3681699388
28,18,19,Jits_Linear_5,0,5,56,103,3682259456
28,18,19,Jits_Linear_5,1,5,63,98,3682268608
28,18,19,Jits_Linear_5,2,5,80,127,3682289140
28,18,19,Jits_Linear_5,3,1,48,51,3682291508
28,18,19,Jits_Linear_5,0,1,48,47,3682890256
28,18,19,Jits_Linear_5,1,5,63,98,3682928948
28,18,19,Jits_Linear_5,2,5,80,127,3682948436
28,18,19,Jits_Linear_5,3,5,56,103,3682968968
28,18,19,Jits_Linear_5,0,5,56,103,3683499368
28,18,19,Jits_Linear_5,1,1,48,35,3683555676
28,18,19,Jits_Linear_5,2,5,80,127,3683579456
28,18,19,Jits_Linear_5,3,5,63,98,3683588460
28,18,19,Jits_Linear_5,0,1,48,52,3684150408
28,18,19,Jits_Linear_5,1,5,80,127,3684169164
28,18,19,Jits_Linear_5,2,5,63,98,3684179288
28,18,19,Jits_Linear_5,3,5,56,103,3684209036
28,18,19,Jits_Linear_5,0,5,63,98,3684758912
28,18,19,Jits_Linear_5,1,1,48,44,3684761072
28,18,19,Jits_Linear_5,2,5,80,127,3684798848
28,18,19,Jits_Linear_5,3,5,56,103,3684859444
28,18,19,Jits_Linear_5,0,1,48,47,3685349676
28,18,19,Jits_Linear_5,1,5,63,98,3685398776
28,18,19,Jits_Linear_5,2,5,56,103,3685449216
28,18,19,Jits_Linear_5,3,5,80,127,3685478892
28,18,19,Jits_Linear_5,0,1,48,44,3686009200
28,18,19,Jits_Linear_5,1,5,80,127,3686049232
28,18,19,Jits_Linear_5,2,5,63,98,3686059356
28,18,19,Jits_Linear_5,3,5,56,103,3686129172
28,18,19,Jits_Linear_5,0,1,48,48,3686699292
28,18,19,Jits_Linear_5,1,5,80,127,3686758732
28,18,19,Jits_Linear_5,2,5,56,103,3686769376
28,18,19,Jits_Linear_5,3,5,63,98,3686772360
28,18,19,Jits_Linear_5,0,5,56,103,3687339328
28,18,19,Jits_Linear_5,1,5,80,127,3687358892
28,18,19,Jits_Linear_5,2,5,63,98,3687369312
28,18,19,Jits_Linear_5,3,1,48,43,3687392288
28,18,19,Jits_Linear_5,0,1,48,38,3687972128
28,18,19,Jits_Linear_5,1,5,63,98,3687988520
28,18,19,Jits_Linear_5,2,5,56,103,3688028536
28,18,19,Jits_Linear_5,3,5,80,127,3688049292
28,18,19,Jits_Linear_5,0,1,48,23,3688600188
28,18,19,Jits_Linear_5,1,5,63,98,3688638728
28,18,19,Jits_Linear_5,2,5,56,103,3688699256
28,18,19,Jits_Linear_5,3,5,80,127,3688702244
28,18,19,Jits_Linear_5,0,1,48,27,3689223708
28,18,19,Jits_Linear_5,1,5,56,103,3689249364
28,18,19,Jits_Linear_5,2,5,80,127,3689268580
28,18,19,Jits_Linear_5,3,5,63,98,3689308444
28,18,19,Jits_Linear_5,0,1,48,45,3689857312
28,18,19,Jits_Linear_5,1,5,56,103,3689929256
28,18,19,Jits_Linear_5,2,5,63,98,3689948524
28,18,19,Jits_Linear_5,3,5,80,127,3689958704
28,18,19,Jits_Linear_5,0,5,80,127,3690548624
28,18,19,Jits_Linear_5,1,1,48,46,3690552116
28,18,19,Jits_Linear_5,2,5,56,103,3690579268
28,18,19,Jits_Linear_5,3,5,63,98,3690619208
28,18,19,Jits_Linear_5,0,5,80,127,3691209180
28,18,19,Jits_Linear_5,1,1,48,50,3691213052
28,18,19,Jits_Linear_5,2,5,56,103,3691228440
28,18,19,Jits_Linear_5,3,5,63,98,3691289052
28,18,19,Jits_Linear_5,0,5,56,103,3691868492
28,18,19,Jits_Linear_5,1,1,48,53,3691883672
28,18,19,Jits_Linear_5,2,5,80,127,3691889172
28,18,19,Jits_Linear_5,3,5,63,98,3691949340
28,18,19,Jits_Linear_5,0,5,80,127,3692508448
28,18,19,Jits_Linear_5,1,5,56,103,3692518720
28,18,19,Jits_Linear_5,2,5,63,98,3692558808
28,18,19,Jits_Linear_5,3,1,48,47,3692562972
28,18,19,Jits_Linear_5,0,1,48,49,3693162840
28,18,19,Jits_Linear_5,1,5,63,98,3693168940
28,18,19,Jits_Linear_5,2,5,56,103,3693209028
28,18,19,Jits_Linear_5,3,5,80,127,3693212240
28,18,19,Jits_Linear_5,0,1,48,35,3693812428
28,18,19,Jits_Linear_5,1,5,63,98,3693848948
28,18,19,Jits_Linear_5,2,5,80,127,3693888916
28,18,19,Jits_Linear_5,3,5,56,103,3693918576
28,18,19,Jits_Linear_5,0,5,56,103,3694499112
28,18,19,Jits_Linear_5,1,5,63,98,3694509384
28,18,19,Jits_Linear_5,2,5,80,127,3694538984
28,18,19,Jits_Linear_5,3,1,48,28,3694541724
28,18,19,Jits_Linear_5,0,1,48,43,3695139856
28,18,19,Jits_Linear_5,1,5,80,127,3695158708
28,18,19,Jits_Linear_5,2,5,63,98,3695229292
28,18,19,Jits_Linear_5,3,5,56,103,3695238576
28,18,19,Jits_Linear_5,0,5,63,98,3695829296
28,18,19,Jits_Linear_5,1,1,48,33,3695880520
28,18,19,Jits_Linear_5,2,1,38,9,3695895472
28,18,19,Jits_Linear_5,3,5,56,103,3695899104
28,18,19,Jits_Linear_5,4,5,80,127,3695909152
28,18,19,Jits_Linear_5,0,1,48,39,3696498872
28,18,19,Jits_Linear_5,1,5,63,98,3696500728
28,18,19,Jits_Linear_5,2,5,56,103,3696518576
28,18,19,Jits_Linear_5,3,5,80,127,3696558812
28,18,19,Jits_Linear_5,0,1,48,45,3697128356
28,18,19,Jits_Linear_5,1,5,56,103,3697178956
28,18,19,Jits_Linear_5,2,5,63,98,3697189152
28,18,19,Jits_Linear_5,3,5,80,127,3697269032
28,18,19,Jits_Linear_5,0,1,48,39,3697815432
28,18,19,Jits_Linear_5,1,5,63,98,3697838400
28,18,19,Jits_Linear_5,2,5,56,103,3697869124
28,18,19,Jits_Linear_5,3,5,80,127,3697908988
28,18,19,Jits_Linear_5,0,1,48,32,3698442864
28,18,19,Jits_Linear_5,1,5,56,103,3698509228
28,18,19,Jits_Linear_5,2,5,63,98,3698549080
28,18,19,Jits_Linear_5,3,5,80,127,3698588944
28,18,19,Jits_Linear_5,0,1,48,27,3699145908
28,18,19,Jits_Linear_5,1,5,80,127,3699189096
28,18,19,Jits_Linear_5,2,5,56,103,3699268908
28,18,19,Jits_Linear_5,3,5,63,98,3699279104
28,18,19,Jits_Linear_5,0,1,48,34,3699907336
28,18,19,Jits_Linear_5,1,5,56,103,3699909004
28,18,19,Jits_Linear_5,2,5,63,98,3699911920
28,18,19,Jits_Linear_5,3,5,80,127,3699919200
28,18,19,Jits_Linear_5,0,1,48,54,3700516668
28,18,19,Jits_Linear_5,1,5,56,103,3700609472
28,18,19,Jits_Linear_5,2,5,63,98,3700628740
28,18,19,Jits_Linear_5,3,5,80,127,3700639156
28,18,19,Jits_Linear_5,0,5,63,98,3701249508
28,18,19,Jits_Linear_5,1,5,80,127,3701258880
28,18,19,Jits_Linear_5,2,5,56,103,3701279120
28,18,19,Jits_Linear_5,3,1,48,43,3701289312
28,18,19,Jits_Linear_5,0,1,48,47,3701920832
28,18,19,Jits_Linear_5,1,5,63,98,3701938764
28,18,19,Jits_Linear_5,2,5,56,103,3702018564
28,18,19,Jits_Linear_5,3,5,80,127,3702022436
28,18,19,Jits_Linear_5,0,1,48,44,3702546604
28,18,19,Jits_Linear_5,1,5,63,98,3702628692
28,18,19,Jits_Linear_5,2,5,56,103,3702649060
28,18,19,Jits_Linear_5,3,5,80,127,3702678888
28,18,19,Jits_Linear_5,0,1,48,29,3703311532
28,18,19,Jits_Linear_5,1,5,56,103,3703318828
28,18,19,Jits_Linear_5,2,5,63,98,3703339536
28,18,19,Jits_Linear_5,3,5,80,127,3703348536
28,18,19,Jits_Linear_5,0,1,48,26,3703995388
28,18,19,Jits_Linear_5,1,5,56,103,3704038808
28,18,19,Jits_Linear_5,2,5,63,98,3704068632
28,18,19,Jits_Linear_5,3,5,80,127,3704071920
28,18,19,Jits_Linear_5,0,1,48,35,3704657688
28,18,19,Jits_Linear_5,1,5,56,103,3704678692
28,18,19,Jits_Linear_5,2,5,63,98,3704718632
28,18,19,Jits_Linear_5,3,5,80,127,3704779008
28,18,19,Jits_Linear_5,0,1,48,48,3705331036
28,18,19,Jits_Linear_5,1,5,56,103,3705389380
28,18,19,Jits_Linear_5,2,5,63,98,3705398604
28,18,19,Jits_Linear_5,3,5,80,127,3705458980
28,18,19,Jits_Linear_5,0,1,48,33,3706070504
28,18,19,Jits_Linear_5,1,5,56,103,3706088812
28,18,19,Jits_Linear_5,2,5,80,127,3706109568
28,18,19,Jits_Linear_5,3,5,63,98,3706138948
28,18,19,Jits_Linear_5,0,1,48,44,3706726580
28,18,19,Jits_Linear_5,1,5,80,127,3706789380
28,18,19,Jits_Linear_5,2,5,56,103,3706798308
28,18,19,Jits_Linear_5,3,5,63,98,3706818916
28,18,19,Jits_Linear_5,0,1,48,58,3707441368
28,18,19,Jits_Linear_5,1,5,63,98,3707479460
28,18,19,Jits_Linear_5,2,5,80,127,3707559244
28,18,19,Jits_Linear_5,3,5,56,103,3707568468
28,18,19,Jits_Linear_5,0,1,48,32,3708149416
28,18,19,Jits_Linear_5,1,5,80,127,3708239376
28,18,19,Jits_Linear_5,2,5,56,103,3708258624
28,18,19,Jits_Linear_5,3,5,63,98,3708261616
28,18,19,Jits_Linear_5,0,5,63,98,3708919400
28,18,19,Jits_Linear_5,1,5,80,127,3708922612
28,18,19,Jits_Linear_5,2,1,48,41,3708976884
28,18,19,Jits_Linear_5,3,5,56,103,3708978616
28,18,19,Jits_Linear_5,0,5,56,103,3709609408
28,18,19,Jits_Linear_5,1,5,80,127,3709618484
28,18,19,Jits_Linear_5,2,1,48,40,3709632236
28,18,19,Jits_Linear_5,3,5,63,98,3709658488
28,18,19,Jits_Linear_5,0,1,48,38,3710253756
28,18,19,Jits_Linear_5,1,5,56,103,3710298592
28,18,19,Jits_Linear_5,2,5,63,98,3710358896
28,18,19,Jits_Linear_5,3,5,80,127,3710369168
28,18,19,Jits_Linear_5,0,1,48,46,3710903660
28,18,19,Jits_Linear_5,1,5,63,98,3711019312
28,18,19,Jits_Linear_5,2,5,80,127,3711059252
28,18,19,Jits_Linear_5,3,5,56,103,3711099116
28,18,19,Jits_Linear_5,0,1,48,51,3711652120
28,18,19,Jits_Linear_5,1,5,56,103,3711729096
28,18,19,Jits_Linear_5,2,5,63,98,3711808828
28,18,19,Jits_Linear_5,3,5,80,127,3711812416
28,18,19,Jits_Linear_5,0,1,48,43,3712427992
28,18,19,Jits_Linear_5,1,5,80,127,3712499196
28,18,19,Jits_Linear_5,2,5,56,103,3712528708
28,18,19,Jits_Linear_5,3,5,63,98,3712531776
28,18,19,Jits_Linear_5,0,5,56,103,3713179020
28,18,19,Jits_Linear_5,1,1,48,38,3713193748
28,18,19,Jits_Linear_5,2,5,80,127,3713198576
28,18,19,Jits_Linear_5,3,5,63,98,3713239264
28,18,19,Jits_Linear_5,0,1,48,26,3713834760
28,18,19,Jits_Linear_5,1,5,80,127,3713879376
28,18,19,Jits_Linear_5,2,5,63,98,3713898788
28,18,19,Jits_Linear_5,3,5,56,103,3713959312
28,18,19,Jits_Linear_5,0,1,48,39,3714598360
28,18,19,Jits_Linear_5,1,5,63,98,3714608352
28,18,19,Jits_Linear_5,2,5,56,103,3714618620
28,18,19,Jits_Linear_5,3,5,80,127,3714669196
28,18,19,Jits_Linear_5,0,1,48,46,3715233784
28,18,19,Jits_Linear_5,1,5,56,103,3715319084
28,18,19,Jits_Linear_5,2,5,63,98,3715338632
28,18,19,Jits_Linear_5,3,5,80,127,3715348828
28,18,19,Jits_Linear_5,0,1,48,40,3715967188
28,18,19,Jits_Linear_5,1,5,56,103,3716038984
28,18,19,Jits_Linear_5,2,5,63,98,3716042052
28,18,19,Jits_Linear_5,3,5,80,127,3716058472
28,18,19,Jits_Linear_5,0,1,48,46,3716692908
28,18,19,Jits_Linear_5,1,5,63,98,3716809060
28,18,19,Jits_Linear_5,2,5,56,103,3716839036
28,18,19,Jits_Linear_5,3,5,80,127,3716868340
28,18,19,Jits_Linear_5,0,1,48,57,3717447368
28,18,19,Jits_Linear_5,1,5,80,127,3717499240
28,18,19,Jits_Linear_5,2,5,56,103,3717589204
28,18,19,Jits_Linear_5,3,5,63,98,3717592428
28,18,19,Jits_Linear_5,0,1,48,57,3718212584
28,18,19,Jits_Linear_5,1,5,56,103,3718229396
28,18,19,Jits_Linear_5,2,5,80,127,3718232316
28,18,19,Jits_Linear_5,3,5,63,98,3718309104
28,18,19,Jits_Linear_5,0,1,48,51,3718888556
28,18,19,Jits_Linear_5,1,5,80,127,3718958584
28,18,19,Jits_Linear_5,2,5,63,98,3719018964
28,18,19,Jits_Linear_5,3,5,56,103,3719048416
28,18,19,Jits_Linear_5,0,5,63,98,3719688512
28,18,19,Jits_Linear_5,1,1,48,60,3719691928
28,18,19,Jits_Linear_5,2,5,80,127,3719699000
28,18,19,Jits_Linear_5,3,5,56,103,3719768336
28,18,19,Jits_Linear_5,0,1,48,51,3720355396
28,18,19,Jits_Linear_5,1,5,56,103,3720449388
28,18,19,Jits_Linear_5,2,5,80,127,3720479052
28,18,19,Jits_Linear_5,3,5,63,98,3720529204
28,18,19,Jits_Linear_5,0,1,48,41,3721152928
28,18,19,Jits_Linear_5,1,5,63,98,3721228860
28,18,19,Jits_Linear_5,2,5,56,103,3721259368
28,18,19,Jits_Linear_5,3,5,80,127,3721262508
28,18,19,Jits_Linear_5,0,1,48,48,3721909168
28,18,19,Jits_Linear_5,1,5,63,98,3721968984
28,18,19,Jits_Linear_5,2,5,80,127,3721988400
28,18,19,Jits_Linear_5,3,5,56,103,3721998668
28,18,19,Jits_Linear_5,0,1,48,55,3722637696
28,18,19,Jits_Linear_5,1,5,56,103,3722718784
28,18,19,Jits_Linear_5,2,5,63,98,3722721700
28,18,19,Jits_Linear_5,3,5,80,127,3722739080
28,18,19,Jits_Linear_5,0,5,56,103,3723419056
28,18,19,Jits_Linear_5,1,5,63,98,3723429328
28,18,19,Jits_Linear_5,2,1,48,46,3723445104
28,18,19,Jits_Linear_5,3,5,80,127,3723459000
28,18,19,Jits_Linear_5,0,1,48,46,3724142456
28,18,19,Jits_Linear_5,1,5,63,98,3724189016
28,18,19,Jits_Linear_5,2,5,80,127,3724208580
28,18,19,Jits_Linear_5,3,5,56,103,3724248428
28,18,19,Jits_Linear_5,0,1,48,57,3724912404
28,18,19,Jits_Linear_5,1,5,56,103,3724969452
28,18,19,Jits_Linear_5,2,5,63,98,3725009392
28,18,19,Jits_Linear_5,3,5,80,127,3725013268
28,18,19,Jits_Linear_5,0,5,80,127,3725658640
28,18,19,Jits_Linear_5,1,1,48,40,3725681092
28,18,19,Jits_Linear_5,2,5,56,103,3725698576
28,18,19,Jits_Linear_5,3,5,63,98,3725748556
28,18,19,Jits_Linear_5,0,1,48,43,3726430672
28,18,19,Jits_Linear_5,1,5,56,103,3726468536
28,18,19,Jits_Linear_5,2,5,80,127,3726478660
28,18,19,Jits_Linear_5,3,5,63,98,3726509608
28,18,19,Jits_Linear_5,0,5,56,103,3727168972
28,18,19,Jits_Linear_5,1,5,80,127,3727208764
28,18,19,Jits_Linear_5,2,1,48,41,3727232036
28,18,19,Jits_Linear_5,3,5,63,98,3727258884
28,18,19,Jits_Linear_5,0,1,48,40,3727926932
28,18,19,Jits_Linear_5,1,5,56,103,3727928596
28,18,19,Jits_Linear_5,2,5,80,127,3727968536
28,18,19,Jits_Linear_5,3,5,63,98,3728018652
28,18,19,Jits_Linear_5,0,1,48,50,3728669500
28,18,19,Jits_Linear_5,1,5,80,127,3728679440
28,18,19,Jits_Linear_5,2,5,63,98,3728759016
28,18,19,Jits_Linear_5,3,5,56,103,3728769944
28,18,19,Jits_Linear_5,0,1,48,48,3729418404
28,18,19,Jits_Linear_5,1,5,80,127,3729489404
28,18,19,Jits_Linear_5,2,5,56,103,3729498556
28,18,19,Jits_Linear_5,3,5,63,98,3729518924
28,18,19,Jits_Linear_5,0,5,63,98,3730219504
28,18,19,Jits_Linear_5,1,1,48,37,3730226456
28,18,19,Jits_Linear_5,2,5,56,103,3730289104
28,18,19,Jits_Linear_5,3,5,80,127,3730291948
28,18,19,Jits_Linear_5,0,1,48,41,3730940320
28,18,19,Jits_Linear_5,1,5,80,127,3730979552
28,18,19,Jits_Linear_5,2,5,63,98,3731029312
28,18,19,Jits_Linear_5,3,5,56,103,3731069312
28,18,19,Jits_Linear_5,0,1,48,48,3731716112
28,18,19,Jits_Linear_5,1,5,63,98,3731789520
28,18,19,Jits_Linear_5,2,5,56,103,3731829444
28,18,19,Jits_Linear_5,3,5,80,127,3731839344
28,18,19,Jits_Linear_5,0,1,48,30,3732460000
28,18,19,Jits_Linear_5,1,5,63,98,3732549140
28,18,19,Jits_Linear_5,2,5,56,103,3732568388
28,18,19,Jits_Linear_5,3,5,80,127,3732588848
28,18,19,Jits_Linear_5,0,1,48,24,3733224632
28,18,19,Jits_Linear_5,1,5,80,127,3733279284
28,18,19,Jits_Linear_5,2,5,56,103,3733289280
28,18,19,Jits_Linear_5,3,5,63,98,3733308916
28,18,19,Jits_Linear_5,0,1,48,52,3733957204
28,18,19,Jits_Linear_5,1,5,63,98,3734079040
28,18,19,Jits_Linear_5,2,5,56,103,3734118904
28,18,19,Jits_Linear_5,3,5,80,127,3734148432
28,18,19,Jits_Linear_5,0,1,48,30,3734778232
28,18,19,Jits_Linear_5,1,5,56,103,3734859348
28,18,19,Jits_Linear_5,2,5,63,98,3734888788
28,18,19,Jits_Linear_5,3,5,80,127,3734918464
28,18,19,Jits_Linear_5,0,5,80,127,3735608632
28,18,19,Jits_Linear_5,1,1,48,39,3735623212
28,18,19,Jits_Linear_5,2,5,56,103,3735679356
28,18,19,Jits_Linear_5,3,5,63,98,3735682200
28,18,19,Jits_Linear_5,0,1,48,40,3736390840
28,18,19,Jits_Linear_5,1,5,56,103,3736399332
28,18,19,Jits_Linear_5,2,5,63,98,3736449388
28,18,19,Jits_Linear_5,3,5,80,127,3736479212
28,18,19,Jits_Linear_5,0,1,48,45,3737120380
28,18,19,Jits_Linear_5,1,5,63,98,3737159240
28,18,19,Jits_Linear_5,2,5,80,127,3737162456
28,18,19,Jits_Linear_5,3,5,56,103,3737218424
28,18,19,Jits_Linear_5,0,1,48,49,3737906536
28,18,19,Jits_Linear_5,1,5,56,103,3737969192
28,18,19,Jits_Linear_5,2,5,80,127,3737979164
28,18,19,Jits_Linear_5,3,5,63,98,3738029356
28,18,19,Jits_Linear_5,0,5,63,98,3738729036
28,18,19,Jits_Linear_5,1,5,56,103,3738739160
28,18,19,Jits_Linear_5,2,1,48,44,3738756968
28,18,19,Jits_Linear_5,3,5,80,127,3738768828
28,18,19,Jits_Linear_5,0,1,48,42,3739501112
28,18,19,Jits_Linear_5,1,5,63,98,3739549016
28,18,19,Jits_Linear_5,2,5,80,127,3739552380
28,18,19,Jits_Linear_5,3,5,56,103,3739578840
28,18,19,Jits_Linear_5,0,1,48,54,3740289492
28,18,19,Jits_Linear_5,1,5,63,98,3740358972
28,18,19,Jits_Linear_5,2,5,56,103,3740378376
28,18,19,Jits_Linear_5,3,5,80,127,3740381524
28,18,19,Jits_Linear_5,0,1,48,48,3741094712
28,18,19,Jits_Linear_5,1,5,63,98,3741108760
28,18,19,Jits_Linear_5,2,5,56,103,3741179192
28,18,19,Jits_Linear_5,3,5,80,127,3741198964
28,18,19,Jits_Linear_5,0,5,56,103,3741889056
28,18,19,Jits_Linear_5,1,5,63,98,3741899032
28,18,19,Jits_Linear_5,2,1,48,47,3741906264
28,18,19,Jits_Linear_5,3,5,80,127,3741989184
28,18,19,Jits_Linear_5,0,1,48,43,3742623096
28,18,19,Jits_Linear_5,1,5,56,103,3742698804
28,18,19,Jits_Linear_5,2,5,80,127,3742739024
28,18,19,Jits_Linear_5,3,5,63,98,3742749000
28,18,19,Jits_Linear_5,0,1,48,36,3743469628
28,18,19,Jits_Linear_5,1,5,56,103,3743519028
28,18,19,Jits_Linear_5,2,5,63,98,3743548656
28,18,19,Jits_Linear_5,3,5,80,127,3743578468
28,18,19,Jits_Linear_5,0,1,48,39,3744269404
28,18,19,Jits_Linear_5,1,5,80,127,3744278944
28,18,19,Jits_Linear_5,2,5,63,98,3744318908
28,18,19,Jits_Linear_5,3,5,56,103,3744339444
28,18,19,Jits_Linear_5,0,1,48,46,3745006220
28,18,19,Jits_Linear_5,1,5,56,103,3745118656
28,18,19,Jits_Linear_5,2,5,80,127,3745138968
28,18,19,Jits_Linear_5,3,5,63,98,3745158604
28,18,19,Jits_Linear_5,0,1,48,47,3745886264
28,18,19,Jits_Linear_5,1,5,63,98,3745888844
28,18,19,Jits_Linear_5,2,5,56,103,3745898744
28,18,19,Jits_Linear_5,3,5,80,127,3745959284
28,18,19,Jits_Linear_5,0,1,48,45,3746629704
28,18,19,Jits_Linear_5,1,5,56,103,3746698584
28,18,19,Jits_Linear_5,2,5,63,98,3746769224
28,18,19,Jits_Linear_5,3,5,80,127,3746788712
28,18,19,Jits_Linear_5,0,5,56,103,3747508776
28,18,19,Jits_Linear_5,1,5,63,98,3747539424
28,18,19,Jits_Linear_5,2,1,48,44,3747548916
28,18,19,Jits_Linear_5,3,5,80,127,3747579208
28,18,19,Jits_Linear_5,0,5,63,98,3748309608
28,18,19,Jits_Linear_5,1,1,48,48,3748329592
28,18,19,Jits_Linear_5,2,5,56,103,3748358612
28,18,19,Jits_Linear_5,3,5,80,127,3748368956
28,18,19,Jits_Linear_5,0,1,48,39,3749098936
28,18,19,Jits_Linear_5,1,5,56,103,3749159224
28,18,19,Jits_Linear_5,2,5,63,98,3749208516
28,18,19,Jits_Linear_5,3,5,80,127,3749218712
28,18,19,Jits_Linear_5,0,5,56,103,3749938548
28,18,19,Jits_Linear_5,1,5,63,98,3749948972
28,18,19,Jits_Linear_5,2,1,48,38,3749956276
28,18,19,Jits_Linear_5,3,5,80,127,3750028688
28,18,19,Jits_Linear_5,0,9999,9999,9999,3641176164
28,18,19,Jits_Linear_5,1,9999,9999,9999,3641656404
28,18,19,Jits_Linear_5,2,9999,9999,9999,3642136640
28,18,19,Jits_Linear_5,3,9999,9999,9999,3642616944
28,18,19,Jits_Linear_5,4,9999,9999,9999,3643096184
28,18,19,Jits_Linear_5,5,9999,9999,9999,3643586664
28,18,19,Jits_Linear_5,6,9999,9999,9999,3644076092
28,18,19,Jits_Linear_5,7,9999,9999,9999,3644566580
28,18,19,Jits_Linear_5,8,9999,9999,9999,3645056096
28,18,19,Jits_Linear_5,9,9999,9999,9999,3645546584
28,18,19,Jits_Linear_5,10,9999,9999,9999,3646046288
28,18,19,Jits_Linear_5,11,9999,9999,9999,3646547000
28,18,19,Jits_Linear_5,12,9999,9999,9999,3647046760
28,18,19,Jits_Linear_5,13,9999,9999,9999,3647546452
28,18,19,Jits_Linear_5,14,9999,9999,9999,3648046140
28,18,19,Jits_Linear_5,15,9999,9999,9999,3648556108
28,18,19,Jits_Linear_5,16,9999,9999,9999,3649067120
28,18,19,Jits_Linear_5,17,9999,9999,9999,3649586288
28,18,19,Jits_Linear_5,18,9999,9999,9999,3650096180
28,18,19,Jits_Linear_5,19,9999,9999,9999,3650606136
28,18,19,Jits_Linear_5,20,9999,9999,9999,3651126356
28,18,19,Jits_Linear_5,21,9999,9999,9999,3651646572
28,18,19,Jits_Linear_5,22,9999,9999,9999,3652166724
28,18,19,Jits_Linear_5,23,9999,9999,9999,3652686952
28,18,19,Jits_Linear_5,24,9999,9999,9999,3653206136
28,18,19,Jits_Linear_5,25,9999,9999,9999,3653736548
28,18,19,Jits_Linear_5,26,9999,9999,9999,3654266960
28,18,19,Jits_Linear_5,27,9999,9999,9999,3654796368
28,18,19,Jits_Linear_5,28,9999,9999,9999,3655326792
28,18,19,Jits_Linear_5,29,9999,9999,9999,3655856224
28,18,19,Jits_Linear_5,30,9999,9999,9999,3656396892
28,18,19,Jits_Linear_5,31,9999,9999,9999,3656936520
28,18,19,Jits_Linear_5,32,9999,9999,9999,3657476200
28,18,19,Jits_Linear_5,33,9999,9999,9999,3658016864
28,18,19,Jits_Linear_5,34,9999,9999,9999,3658556508
28,18,19,Jits_Linear_5,35,9999,9999,9999,3659106396
28,18,19,Jits_Linear_5,36,9999,9999,9999,3659656272
28,18,19,Jits_Linear_5,37,9999,9999,9999,3660206160
28,18,19,Jits_Linear_5,38,9999,9999,9999,3660757096
28,18,19,Jits_Linear_5,39,9999,9999,9999,3661306984
28,18,19,Jits_Linear_5,40,9999,9999,9999,3661867088
28,18,19,Jits_Linear_5,41,9999,9999,9999,3662436448
28,18,19,Jits_Linear_5,42,9999,9999,9999,3662996596
28,18,19,Jits_Linear_5,43,9999,9999,9999,3663556668
28,18,19,Jits_Linear_5,44,9999,9999,9999,3664116816
28,18,19,Jits_Linear_5,45,9999,9999,9999,3664686136
28,18,19,Jits_Linear_5,46,9999,9999,9999,3665256548
28,18,19,Jits_Linear_5,47,9999,9999,9999,3665826892
28,18,19,Jits_Linear_5,48,9999,9999,9999,3666396260
28,18,19,Jits_Linear_5,49,9999,9999,9999,3666966608
28,18,19,Jits_Linear_5,50,9999,9999,9999,3667546180
28,18,19,Jits_Linear_5,51,9999,9999,9999,3668126784
28,18,19,Jits_Linear_5,52,9999,9999,9999,3668706416
28,18,19,Jits_Linear_5,53,9999,9999,9999,3669287024
28,18,19,Jits_Linear_5,54,9999,9999,9999,3669866608
28,18,19,Jits_Linear_5,55,9999,9999,9999,3670456376
28,18,19,Jits_Linear_5,56,9999,9999,9999,3671046204
28,18,19,Jits_Linear_5,57,9999,9999,9999,3671637104
28,18,19,Jits_Linear_5,58,9999,9999,9999,3672226920
28,18,19,Jits_Linear_5,59,9999,9999,9999,3672816724
28,18,19,Jits_Linear_5,60,9999,9999,9999,3673416776
28,18,19,Jits_Linear_5,61,9999,9999,9999,3674016856
28,18,19,Jits_Linear_5,62,9999,9999,9999,3674616948
28,18,19,Jits_Linear_5,63,9999,9999,9999,3675216980
28,18,19,Jits_Linear_5,64,9999,9999,9999,3675817084
28,18,19,Jits_Linear_5,65,9999,9999,9999,3676426332
28,18,19,Jits_Linear_5,66,9999,9999,9999,3677036648
28,18,19,Jits_Linear_5,67,9999,9999,9999,3677646908
28,18,19,Jits_Linear_5,68,9999,9999,9999,3678256220
28,18,19,Jits_Linear_5,69,9999,9999,9999,3678866496
28,18,19,Jits_Linear_5,70,9999,9999,9999,3679487092
28,18,19,Jits_Linear_5,71,9999,9999,9999,3680106608
28,18,19,Jits_Linear_5,72,9999,9999,9999,3680726092
28,18,19,Jits_Linear_5,73,9999,9999,9999,3681346652
28,18,19,Jits_Linear_5,74,9999,9999,9999,3681966140
28,18,19,Jits_Linear_5,75,9999,9999,9999,3682596936
28,18,19,Jits_Linear_5,76,9999,9999,9999,3683226728
28,18,19,Jits_Linear_5,77,9999,9999,9999,3683856484
28,18,19,Jits_Linear_5,78,9999,9999,9999,3684486200
28,18,19,Jits_Linear_5,79,9999,9999,9999,3685116996
28,18,19,Jits_Linear_5,80,9999,9999,9999,3685757044
28,18,19,Jits_Linear_5,81,9999,9999,9999,3686396984
28,18,19,Jits_Linear_5,82,9999,9999,9999,3687037024
28,18,19,Jits_Linear_5,83,9999,9999,9999,3687677036
28,18,19,Jits_Linear_5,84,9999,9999,9999,3688317016
28,18,19,Jits_Linear_5,85,9999,9999,9999,3688966244
28,18,19,Jits_Linear_5,86,9999,9999,9999,3689616468
28,18,19,Jits_Linear_5,87,9999,9999,9999,3690266748
28,18,19,Jits_Linear_5,88,9999,9999,9999,3690916972
28,18,19,Jits_Linear_5,89,9999,9999,9999,3691566168
28,18,19,Jits_Linear_5,90,9999,9999,9999,3692226652
28,18,19,Jits_Linear_5,91,9999,9999,9999,3692886104
28,18,19,Jits_Linear_5,92,9999,9999,9999,3693546572
28,18,19,Jits_Linear_5,93,9999,9999,9999,3694207064
28,18,19,Jits_Linear_5,94,9999,9999,9999,3694866556
28,18,19,Jits_Linear_5,95,9999,9999,9999,3695536208
28,18,19,Jits_Linear_5,96,9999,9999,9999,3696206912
28,18,19,Jits_Linear_5,97,9999,9999,9999,3696876656
28,18,19,Jits_Linear_5,98,9999,9999,9999,3697546364
28,18,19,Jits_Linear_5,99,9999,9999,9999,3698217040
28,18,19,Jits_Linear_5,100,9999,9999,9999,3698896984
28,18,19,Jits_Linear_5,101,9999,9999,9999,3699576956
28,18,19,Jits_Linear_5,102,9999,9999,9999,3700256892
28,18,19,Jits_Linear_5,103,9999,9999,9999,3700936784
28,18,19,Jits_Linear_5,104,9999,9999,9999,3701616756
28,18,19,Jits_Linear_5,105,9999,9999,9999,3702306888
28,18,19,Jits_Linear_5,106,9999,9999,9999,3702997116
28,18,19,Jits_Linear_5,107,9999,9999,9999,3703686232
28,18,19,Jits_Linear_5,108,9999,9999,9999,3704376384
28,18,19,Jits_Linear_5,109,9999,9999,9999,3705066596
28,18,19,Jits_Linear_5,110,9999,9999,9999,3705767024
28,18,19,Jits_Linear_5,111,9999,9999,9999,3706466404
28,18,19,Jits_Linear_5,112,9999,9999,9999,3707166800
28,18,19,Jits_Linear_5,113,9999,9999,9999,3707866172
28,18,19,Jits_Linear_5,114,9999,9999,9999,3708566592
28,18,19,Jits_Linear_5,115,9999,9999,9999,3709276228
28,18,19,Jits_Linear_5,116,9999,9999,9999,3709986892
28,18,19,Jits_Linear_5,117,9999,9999,9999,3710696540
28,18,19,Jits_Linear_5,118,9999,9999,9999,3711406184
28,18,19,Jits_Linear_5,119,9999,9999,9999,3712116796
28,18,19,Jits_Linear_5,120,9999,9999,9999,3712836700
28,18,19,Jits_Linear_5,121,9999,9999,9999,3713556580
28,18,19,Jits_Linear_5,122,9999,9999,9999,3714276424
28,18,19,Jits_Linear_5,123,9999,9999,9999,3714996328
28,18,19,Jits_Linear_5,124,9999,9999,9999,3715716156
28,18,19,Jits_Linear_5,125,9999,9999,9999,3716446308
28,18,19,Jits_Linear_5,126,9999,9999,9999,3717176408
28,18,19,Jits_Linear_5,127,9999,9999,9999,3717906540
28,18,19,Jits_Linear_5,128,9999,9999,9999,3718636624
28,18,19,Jits_Linear_5,129,9999,9999,9999,3719366720
28,18,19,Jits_Linear_5,130,9999,9999,9999,3720107076
28,18,19,Jits_Linear_5,131,9999,9999,9999,3720856648
28,18,19,Jits_Linear_5,132,9999,9999,9999,3721597000
28,18,19,Jits_Linear_5,133,9999,9999,9999,3722336312
28,18,19,Jits_Linear_5,134,9999,9999,9999,3723076664
28,18,19,Jits_Linear_5,135,9999,9999,9999,3723826236
28,18,19,Jits_Linear_5,136,9999,9999,9999,3724576848
28,18,19,Jits_Linear_5,137,9999,9999,9999,3725326412
28,18,19,Jits_Linear_5,138,9999,9999,9999,3726077032
28,18,19,Jits_Linear_5,139,9999,9999,9999,3726826552
28,18,19,Jits_Linear_5,140,9999,9999,9999,3727586388
28,18,19,Jits_Linear_5,141,9999,9999,9999,3728346168
28,18,19,Jits_Linear_5,142,9999,9999,9999,3729107056
28,18,19,Jits_Linear_5,143,9999,9999,9999,3729866820
28,18,19,Jits_Linear_5,144,9999,9999,9999,3730626652
28,18,19,Jits_Linear_5,145,9999,9999,9999,3731396680
28,18,19,Jits_Linear_5,146,9999,9999,9999,3732166716
28,18,19,Jits_Linear_5,147,9999,9999,9999,3732936820
28,18,19,Jits_Linear_5,148,9999,9999,9999,3733706844
28,18,19,Jits_Linear_5,149,9999,9999,9999,3734476924
28,18,19,Jits_Linear_5,150,9999,9999,9999,3735256172
28,18,19,Jits_Linear_5,151,9999,9999,9999,3736036452
28,18,19,Jits_Linear_5,152,9999,9999,9999,3736816756
28,18,19,Jits_Linear_5,153,9999,9999,9999,3737597036
28,18,19,Jits_Linear_5,154,9999,9999,9999,3738376276
28,18,19,Jits_Linear_5,155,9999,9999,9999,3739166828
28,18,19,Jits_Linear_5,156,9999,9999,9999,3739956340
28,18,19,Jits_Linear_5,157,9999,9999,9999,3740746816
28,18,19,Jits_Linear_5,158,9999,9999,9999,3741536324
28,18,19,Jits_Linear_5,159,9999,9999,9999,3742326876
28,18,19,Jits_Linear_5,160,9999,9999,9999,3743126588
28,18,19,Jits_Linear_5,161,9999,9999,9999,3743926364
28,18,19,Jits_Linear_5,162,9999,9999,9999,3744726136
28,18,19,Jits_Linear_5,163,9999,9999,9999,3745526876
28,18,19,Jits_Linear_5,164,9999,9999,9999,3746326648
28,18,19,Jits_Linear_5,165,9999,9999,9999,3747136636
28,18,19,Jits_Linear_5,166,9999,9999,9999,3747946596
28,18,19,Jits_Linear_5,167,9999,9999,9999,3748756572
28,18,19,Jits_Linear_5,168,9999,9999,9999,3749566536
28,18,19,Jits_Linear_5,169,9999,9999,9999,3750376568
28,19,18,Jits_Linear_8,0,5,56,103,3761812932
28,19,18,Jits_Linear_8,1,5,63,98,3761816032
28,19,18,Jits_Linear_8,2,5,80,127,3761819152
28,19,18,Jits_Linear_8,0,1,48,31,3762364896
28,19,18,Jits_Linear_8,1,5,56,103,3762633220
28,19,18,Jits_Linear_8,2,5,63,98,3762636168
28,19,18,Jits_Linear_8,3,5,80,127,3762639364
28,19,18,Jits_Linear_8,0,5,80,127,3763392836
28,19,18,Jits_Linear_8,1,1,48,52,3763447720
28,19,18,Jits_Linear_8,2,5,63,98,3763483120
28,19,18,Jits_Linear_8,3,5,56,103,3763493264
28,19,18,Jits_Linear_8,0,5,56,103,3764232544
28,19,18,Jits_Linear_8,1,5,63,98,3764243040
28,19,18,Jits_Linear_8,2,1,48,47,3764272712
28,19,18,Jits_Linear_8,3,5,80,127,3764332816
28,19,18,Jits_Linear_8,0,5,63,98,3765022948
28,19,18,Jits_Linear_8,1,5,80,127,3765052796
28,19,18,Jits_Linear_8,2,1,48,36,3765061612
28,19,18,Jits_Linear_8,3,5,56,103,3765082392
28,19,18,Jits_Linear_8,0,1,48,56,3765811232
28,19,18,Jits_Linear_8,1,5,56,103,3765843244
28,19,18,Jits_Linear_8,2,5,80,127,3765942728
28,19,18,Jits_Linear_8,3,5,63,98,3765992784
28,19,18,Jits_Linear_8,0,1,48,54,3766625140
28,19,18,Jits_Linear_8,1,5,56,103,3766653188
28,19,18,Jits_Linear_8,2,5,80,127,3766702420
28,19,18,Jits_Linear_8,3,5,63,98,3766743540
28,19,18,Jits_Linear_8,0,1,48,48,3767441304
28,19,18,Jits_Linear_8,1,5,80,127,3767492952
28,19,18,Jits_Linear_8,2,5,63,98,3767522852
28,19,18,Jits_Linear_8,3,5,56,103,3767593216
28,19,18,Jits_Linear_8,0,1,48,48,3768236708
28,19,18,Jits_Linear_8,1,5,63,98,3768332864
28,19,18,Jits_Linear_8,2,5,56,103,3768363300
28,19,18,Jits_Linear_8,3,5,80,127,3768422716
28,19,18,Jits_Linear_8,0,5,56,103,3769083260
28,19,18,Jits_Linear_8,1,5,80,127,3769086176
28,19,18,Jits_Linear_8,2,1,48,52,3769092156
28,19,18,Jits_Linear_8,3,5,63,98,3769202988
28,19,18,Jits_Linear_8,0,1,48,49,3769882608
28,19,18,Jits_Linear_8,1,5,56,103,3769962756
28,19,18,Jits_Linear_8,2,5,80,127,3770002756
28,19,18,Jits_Linear_8,3,5,63,98,3770013028
28,19,18,Jits_Linear_8,0,1,48,55,3770686140
28,19,18,Jits_Linear_8,1,5,56,103,3770722732
28,19,18,Jits_Linear_8,2,5,80,127,3770743116
28,19,18,Jits_Linear_8,3,5,63,98,3770823044
28,19,18,Jits_Linear_8,0,5,80,127,3771513280
28,19,18,Jits_Linear_8,1,1,48,53,3771528460
28,19,18,Jits_Linear_8,2,5,56,103,3771612628
28,19,18,Jits_Linear_8,3,5,63,98,3771623704
28,19,18,Jits_Linear_8,0,5,63,98,3772283384
28,19,18,Jits_Linear_8,1,1,48,53,3772311088
28,19,18,Jits_Linear_8,2,5,80,127,3772342576
28,19,18,Jits_Linear_8,3,5,56,103,3772352996
28,19,18,Jits_Linear_8,0,1,48,51,3773075616
28,19,18,Jits_Linear_8,1,5,56,103,3773082984
28,19,18,Jits_Linear_8,2,5,63,98,3773152664
28,19,18,Jits_Linear_8,3,5,80,127,3773156104
28,19,18,Jits_Linear_8,0,1,48,51,3773827548
28,19,18,Jits_Linear_8,1,5,63,98,3773912472
28,19,18,Jits_Linear_8,2,5,56,103,3773962584
28,19,18,Jits_Linear_8,3,5,80,127,3773965800
28,19,18,Jits_Linear_8,0,1,48,51,3774634868
28,19,18,Jits_Linear_8,1,5,56,103,3774662912
28,19,18,Jits_Linear_8,2,5,80,127,3774666060
28,19,18,Jits_Linear_8,3,5,63,98,3774753060
28,19,18,Jits_Linear_8,0,1,48,52,3775428384
28,19,18,Jits_Linear_8,1,5,63,98,3775492484
28,19,18,Jits_Linear_8,2,5,56,103,3775582552
28,19,18,Jits_Linear_8,3,5,80,127,3775613348
28,19,18,Jits_Linear_8,0,1,48,35,3776246356
28,19,18,Jits_Linear_8,1,5,56,103,3776272612
28,19,18,Jits_Linear_8,2,5,63,98,3776373096
28,19,18,Jits_Linear_8,3,5,80,127,3776402920
28,19,18,Jits_Linear_8,0,5,63,98,3777082668
28,19,18,Jits_Linear_8,1,5,56,103,3777092940
28,19,18,Jits_Linear_8,2,1,48,36,3777109164
28,19,18,Jits_Linear_8,3,5,80,127,3777183212
28,19,18,Jits_Linear_8,0,1,48,34,3777859832
28,19,18,Jits_Linear_8,1,5,63,98,3777882420
28,19,18,Jits_Linear_8,2,5,56,103,3777963324
28,19,18,Jits_Linear_8,3,5,80,127,3777966540
28,19,18,Jits_Linear_8,0,5,80,127,3778622916
28,19,18,Jits_Linear_8,1,5,63,98,3778643300
28,19,18,Jits_Linear_8,2,1,48,37,3778661412
28,19,18,Jits_Linear_8,3,5,56,103,3778702712
28,19,18,Jits_Linear_8,0,1,48,39,3779383912
28,19,18,Jits_Linear_8,1,5,56,103,3779443276
28,19,18,Jits_Linear_8,2,5,63,98,3779462464
28,19,18,Jits_Linear_8,3,5,80,127,3779465828
28,19,18,Jits_Linear_8,0,5,63,98,3780163088
28,19,18,Jits_Linear_8,1,1,48,36,3780175128
28,19,18,Jits_Linear_8,2,5,80,127,3780242880
28,19,18,Jits_Linear_8,3,5,56,103,3780253300
28,19,18,Jits_Linear_8,0,5,63,98,3780962620
28,19,18,Jits_Linear_8,1,1,48,31,3780975552
28,19,18,Jits_Linear_8,2,5,56,103,3780983296
28,19,18,Jits_Linear_8,3,5,80,127,3781033500
28,19,18,Jits_Linear_8,0,5,80,127,3781742960
28,19,18,Jits_Linear_8,1,5,63,98,3781782976
28,19,18,Jits_Linear_8,2,5,56,103,3781803360
28,19,18,Jits_Linear_8,3,1,48,32,3781807600
28,19,18,Jits_Linear_8,0,1,48,42,3782489860
28,19,18,Jits_Linear_8,1,5,56,103,3782553208
28,19,18,Jits_Linear_8,2,5,63,98,3782563404
28,19,18,Jits_Linear_8,3,5,80,127,3782582592
28,19,18,Jits_Linear_8,0,5,56,103,3783253392
28,19,18,Jits_Linear_8,1,1,48,41,3783315176
28,19,18,Jits_Linear_8,2,5,63,98,3783342404
28,19,18,Jits_Linear_8,3,5,80,127,3783402940
28,19,18,Jits_Linear_8,0,5,80,127,3784053020
28,19,18,Jits_Linear_8,1,5,56,103,3784063292
28,19,18,Jits_Linear_8,2,1,48,22,3784083192
28,19,18,Jits_Linear_8,3,5,63,98,3784133188
28,19,18,Jits_Linear_8,0,1,48,46,3784789584
28,19,18,Jits_Linear_8,1,5,63,98,3784853080
28,19,18,Jits_Linear_8,2,5,80,127,3784943052
28,19,18,Jits_Linear_8,3,5,56,103,3784953320
28,19,18,Jits_Linear_8,0,5,63,98,3785553204
28,19,18,Jits_Linear_8,1,5,80,127,3785602436
28,19,18,Jits_Linear_8,2,1,48,43,3785632748
28,19,18,Jits_Linear_8,3,5,56,103,3785662892
28,19,18,Jits_Linear_8,0,5,56,103,3786342988
28,19,18,Jits_Linear_8,1,1,48,54,3786359212
28,19,18,Jits_Linear_8,2,5,80,127,3786393036
28,19,18,Jits_Linear_8,3,5,63,98,3786413420
28,19,18,Jits_Linear_8,0,5,56,103,3787073004
28,19,18,Jits_Linear_8,1,1,48,43,3787106840
28,19,18,Jits_Linear_8,2,5,80,127,3787133240
28,19,18,Jits_Linear_8,3,5,63,98,3787202848
28,19,18,Jits_Linear_8,0,5,56,103,3787832836
28,19,18,Jits_Linear_8,1,5,80,127,3787863412
28,19,18,Jits_Linear_8,2,5,63,98,3787893088
28,19,18,Jits_Linear_8,3,1,48,37,3787905424
28,19,18,Jits_Linear_8,0,1,48,43,3788621636
28,19,18,Jits_Linear_8,1,5,56,103,3788632376
28,19,18,Jits_Linear_8,2,5,80,127,3788652984
28,19,18,Jits_Linear_8,3,5,63,98,3788713228
28,19,18,Jits_Linear_8,0,1,48,40,3789396292
28,19,18,Jits_Linear_8,1,5,80,127,3789473044
28,19,18,Jits_Linear_8,2,5,56,103,3789483240
28,19,18,Jits_Linear_8,3,5,63,98,3789492896
28,19,18,Jits_Linear_8,0,5,56,103,3790182904
28,19,18,Jits_Linear_8,1,1,48,47,3790204384
28,19,18,Jits_Linear_8,2,5,80,127,3790222840
28,19,18,Jits_Linear_8,3,5,63,98,3790253336
28,19,18,Jits_Linear_8,0,5,56,103,3790902592
28,19,18,Jits_Linear_8,1,5,63,98,3790933312
28,19,18,Jits_Linear_8,2,1,48,50,3790966104
28,19,18,Jits_Linear_8,3,5,80,127,3790973320
28,19,18,Jits_Linear_8,0,1,48,48,3791589160
28,19,18,Jits_Linear_8,1,5,80,127,3791603056
28,19,18,Jits_Linear_8,2,5,63,98,3791653136
28,19,18,Jits_Linear_8,3,5,56,103,3791672700
28,19,18,Jits_Linear_8,0,1,48,51,3792330616
28,19,18,Jits_Linear_8,1,5,56,103,3792383256
28,19,18,Jits_Linear_8,2,5,80,127,3792452876
28,19,18,Jits_Linear_8,3,5,63,98,3792513340
28,19,18,Jits_Linear_8,0,5,80,127,3793122636
28,19,18,Jits_Linear_8,1,1,48,54,3793158268
28,19,18,Jits_Linear_8,2,5,63,98,3793212716
28,19,18,Jits_Linear_8,3,5,56,103,3793233396
28,19,18,Jits_Linear_8,0,1,48,51,3793879140
28,19,18,Jits_Linear_8,1,5,63,98,3793882468
28,19,18,Jits_Linear_8,2,5,56,103,3793903076
28,19,18,Jits_Linear_8,3,5,80,127,3793942792
28,19,18,Jits_Linear_8,0,1,48,46,3794568608
28,19,18,Jits_Linear_8,1,5,80,127,3794582804
28,19,18,Jits_Linear_8,2,5,63,98,3794603488
28,19,18,Jits_Linear_8,3,5,56,103,3794683264
28,19,18,Jits_Linear_8,0,5,63,98,3795313032
28,19,18,Jits_Linear_8,1,1,48,46,3795329776
28,19,18,Jits_Linear_8,2,5,56,103,3795422712
28,19,18,Jits_Linear_8,3,5,80,127,3795426516
28,19,18,Jits_Linear_8,0,5,63,98,3796072848
28,19,18,Jits_Linear_8,1,5,56,103,3796083044
28,19,18,Jits_Linear_8,2,1,48,42,3796085732
28,19,18,Jits_Linear_8,3,5,80,127,3796087520
28,19,18,Jits_Linear_8,0,1,48,46,3796778364
28,19,18,Jits_Linear_8,1,5,56,103,3796792708
28,19,18,Jits_Linear_8,2,5,80,127,3796912576
28,19,18,Jits_Linear_8,3,5,63,98,3796952436
28,19,18,Jits_Linear_8,0,1,48,46,3797528580
28,19,18,Jits_Linear_8,1,5,56,103,3797543544
28,19,18,Jits_Linear_8,2,5,80,127,3797623328
28,19,18,Jits_Linear_8,3,5,63,98,3797642516
28,19,18,Jits_Linear_8,0,1,48,37,3798272628
28,19,18,Jits_Linear_8,1,5,56,103,3798274424
28,19,18,Jits_Linear_8,2,5,63,98,3798383000
28,19,18,Jits_Linear_8,3,5,80,127,3798386292
28,19,18,Jits_Linear_8,0,1,48,41,3798990600
28,19,18,Jits_Linear_8,1,5,56,103,3799033344
28,19,18,Jits_Linear_8,2,5,80,127,3799062944
28,19,18,Jits_Linear_8,3,5,63,98,3799083564
28,19,18,Jits_Linear_8,0,1,48,41,3799736428
28,19,18,Jits_Linear_8,1,5,63,98,3799742896
28,19,18,Jits_Linear_8,2,5,56,103,3799753020
28,19,18,Jits_Linear_8,3,5,80,127,3799763440
28,19,18,Jits_Linear_8,0,1,48,49,3800433912
28,19,18,Jits_Linear_8,1,5,80,127,3800452444
28,19,18,Jits_Linear_8,2,5,56,103,3800502576
28,19,18,Jits_Linear_8,3,5,63,98,3800542648
28,19,18,Jits_Linear_8,0,1,48,44,3801189304
28,19,18,Jits_Linear_8,1,5,80,127,3801193012
28,19,18,Jits_Linear_8,2,5,63,98,3801213172
28,19,18,Jits_Linear_8,3,5,56,103,3801262328
28,19,18,Jits_Linear_8,0,1,48,36,3801847508
28,19,18,Jits_Linear_8,1,5,80,127,3801923236
28,19,18,Jits_Linear_8,2,5,56,103,3801952676
28,19,18,Jits_Linear_8,3,5,63,98,3802023332
28,19,18,Jits_Linear_8,0,1,48,34,3802665140
28,19,18,Jits_Linear_8,1,5,56,103,3802693108
28,19,18,Jits_Linear_8,2,5,80,127,3802703156
28,19,18,Jits_Linear_8,3,5,63,98,3802743244
28,19,18,Jits_Linear_8,0,5,56,103,3803322780
28,19,18,Jits_Linear_8,1,5,63,98,3803343316
28,19,18,Jits_Linear_8,2,1,48,35,3803380364
28,19,18,Jits_Linear_8,3,5,80,127,3803412988
28,19,18,Jits_Linear_8,0,5,63,98,3804063360
28,19,18,Jits_Linear_8,1,1,48,33,3804075328
28,19,18,Jits_Linear_8,2,5,80,127,3804122404
28,19,18,Jits_Linear_8,3,5,56,103,3804143456
28,19,18,Jits_Linear_8,0,5,80,127,3804762428
28,19,18,Jits_Linear_8,1,1,48,18,3804775136
28,19,18,Jits_Linear_8,2,5,56,103,3804793292
28,19,18,Jits_Linear_8,3,5,63,98,3804823116
28,19,18,Jits_Linear_8,0,5,56,103,3805473260
28,19,18,Jits_Linear_8,1,1,48,32,3805488144
28,19,18,Jits_Linear_8,2,5,63,98,3805532528
28,19,18,Jits_Linear_8,3,5,80,127,3805592976
28,19,18,Jits_Linear_8,0,1,48,29,3806149348
28,19,18,Jits_Linear_8,1,5,80,127,3806203180
28,19,18,Jits_Linear_8,2,5,56,103,3806222740
28,19,18,Jits_Linear_8,3,5,63,98,3806293332
28,19,18,Jits_Linear_8,0,1,48,39,3806908880
28,19,18,Jits_Linear_8,1,5,80,127,3806912960
28,19,18,Jits_Linear_8,2,5,63,98,3806933420
28,19,18,Jits_Linear_8,3,5,56,103,3806963168
28,19,18,Jits_Linear_8,0,5,80,127,3807603036
28,19,18,Jits_Linear_8,1,1,48,32,3807620704
28,19,18,Jits_Linear_8,2,5,63,98,3807622444
28,19,18,Jits_Linear_8,3,5,56,103,3807682908
28,19,18,Jits_Linear_8,0,5,80,127,3808302416
28,19,18,Jits_Linear_8,1,1,48,50,3808345620
28,19,18,Jits_Linear_8,2,5,56,103,3808402884
28,19,18,Jits_Linear_8,3,5,63,98,3808432636
28,19,18,Jits_Linear_8,0,5,63,98,3808992560
28,19,18,Jits_Linear_8,1,5,80,127,3809042836
28,19,18,Jits_Linear_8,2,1,48,59,3809061804
28,19,18,Jits_Linear_8,3,5,56,103,3809063536
28,19,18,Jits_Linear_8,0,1,48,51,3809657864
28,19,18,Jits_Linear_8,1,5,80,127,3809732896
28,19,18,Jits_Linear_8,2,5,56,103,3809762852
28,19,18,Jits_Linear_8,3,5,63,98,3809765920
28,19,18,Jits_Linear_8,0,5,63,98,3810463048
28,19,18,Jits_Linear_8,1,1,48,43,3810465872
28,19,18,Jits_Linear_8,2,5,56,103,3810502984
28,19,18,Jits_Linear_8,3,5,80,127,3810522472
28,19,18,Jits_Linear_8,0,5,80,127,3811103080
28,19,18,Jits_Linear_8,1,1,48,48,3811125608
28,19,18,Jits_Linear_8,2,5,63,98,3811183020
28,19,18,Jits_Linear_8,3,5,56,103,3811222944
28,19,18,Jits_Linear_8,0,5,63,98,3811812780
28,19,18,Jits_Linear_8,1,1,48,41,3811817392
28,19,18,Jits_Linear_8,2,5,80,127,3811892520
28,19,18,Jits_Linear_8,3,5,56,103,3811913112
28,19,18,Jits_Linear_8,0,5,56,103,3812542868
28,19,18,Jits_Linear_8,1,5,63,98,3812553064
28,19,18,Jits_Linear_8,2,1,48,39,3812571920
28,19,18,Jits_Linear_8,3,5,80,127,3812592920
28,19,18,Jits_Linear_8,0,5,56,103,3813153240
28,19,18,Jits_Linear_8,1,5,80,127,3813156156
28,19,18,Jits_Linear_8,2,1,48,37,3813261552
28,19,18,Jits_Linear_8,3,5,63,98,3813293560
28,19,18,Jits_Linear_8,0,5,56,103,3813832956
28,19,18,Jits_Linear_8,1,1,48,47,3813892272
28,19,18,Jits_Linear_8,2,5,63,98,3813923112
28,19,18,Jits_Linear_8,3,5,80,127,3813992776
28,19,18,Jits_Linear_8,0,1,48,45,3814552164
28,19,18,Jits_Linear_8,1,5,63,98,3814592868
28,19,18,Jits_Linear_8,2,5,80,127,3814596084
28,19,18,Jits_Linear_8,3,5,56,103,3814653320
28,19,18,Jits_Linear_8,0,1,48,45,3815254064
28,19,18,Jits_Linear_8,1,5,80,127,3815312752
28,19,18,Jits_Linear_8,2,5,56,103,3815333284
28,19,18,Jits_Linear_8,3,5,63,98,3815342584
28,19,18,Jits_Linear_8,0,5,56,103,3815902716
28,19,18,Jits_Linear_8,1,5,63,98,3815912840
28,19,18,Jits_Linear_8,2,1,48,40,3815976812
28,19,18,Jits_Linear_8,3,5,80,127,3815982612
28,19,18,Jits_Linear_8,0,5,80,127,3816582540
28,19,18,Jits_Linear_8,1,1,48,47,3816586932
28,19,18,Jits_Linear_8,2,5,56,103,3816632592
28,19,18,Jits_Linear_8,3,5,63,98,3816682776
28,19,18,Jits_Linear_8,0,1,48,41,3817268020
28,19,18,Jits_Linear_8,1,5,56,103,3817343276
28,19,18,Jits_Linear_8,2,5,63,98,3817352724
28,19,18,Jits_Linear_8,3,5,80,127,3817392720
28,19,18,Jits_Linear_8,0,1,48,46,3817962080
28,19,18,Jits_Linear_8,1,5,56,103,3817963800
28,19,18,Jits_Linear_8,2,5,63,98,3818002696
28,19,18,Jits_Linear_8,3,5,80,127,3818052996
28,19,18,Jits_Linear_8,0,5,80,127,3818592600
28,19,18,Jits_Linear_8,1,1,48,51,3818598036
28,19,18,Jits_Linear_8,2,5,56,103,3818642796
28,19,18,Jits_Linear_8,3,5,63,98,3818663404
28,19,18,Jits_Linear_8,0,1,48,52,3819227100
28,19,18,Jits_Linear_8,1,5,80,127,3819272688
28,19,18,Jits_Linear_8,2,5,63,98,3819333016
28,19,18,Jits_Linear_8,3,5,56,103,3819412736
28,19,18,Jits_Linear_8,0,5,80,127,3819922764
28,19,18,Jits_Linear_8,1,1,48,57,3819930144
28,19,18,Jits_Linear_8,2,5,56,103,3819962700
28,19,18,Jits_Linear_8,3,5,63,98,3819983160
28,19,18,Jits_Linear_8,0,1,48,54,3820542068
28,19,18,Jits_Linear_8,1,5,56,103,3820642796
28,19,18,Jits_Linear_8,2,5,80,127,3820652920
28,19,18,Jits_Linear_8,3,5,63,98,3820692784
28,19,18,Jits_Linear_8,0,1,48,44,3821240292
28,19,18,Jits_Linear_8,1,5,56,103,3821383000
28,19,18,Jits_Linear_8,2,5,63,98,3821422936
28,19,18,Jits_Linear_8,3,5,80,127,3821426376
28,19,18,Jits_Linear_8,0,5,63,98,3821932968
28,19,18,Jits_Linear_8,1,5,80,127,3821972832
28,19,18,Jits_Linear_8,2,1,48,46,3821985392
28,19,18,Jits_Linear_8,3,5,56,103,3822042584
28,19,18,Jits_Linear_8,0,5,63,98,3822583456
28,19,18,Jits_Linear_8,1,1,48,39,3822584420
28,19,18,Jits_Linear_8,2,5,56,103,3822662976
28,19,18,Jits_Linear_8,3,5,80,127,3822722452
28,19,18,Jits_Linear_8,0,5,80,127,3823252780
28,19,18,Jits_Linear_8,1,1,48,42,3823292468
28,19,18,Jits_Linear_8,2,5,63,98,3823303124
28,19,18,Jits_Linear_8,3,5,56,103,3823332652
28,19,18,Jits_Linear_8,0,1,48,43,3823901492
28,19,18,Jits_Linear_8,1,5,56,103,3823903148
28,19,18,Jits_Linear_8,2,5,63,98,3823953352
28,19,18,Jits_Linear_8,3,5,80,127,3823962352
28,19,18,Jits_Linear_8,0,1,48,48,3824543276
28,19,18,Jits_Linear_8,1,5,56,103,3824572820
28,19,18,Jits_Linear_8,2,5,63,98,3824683268
28,19,18,Jits_Linear_8,3,5,80,127,3824702904
28,19,18,Jits_Linear_8,0,5,63,98,3825223044
28,19,18,Jits_Linear_8,1,1,48,48,3825227508
28,19,18,Jits_Linear_8,2,5,80,127,3825273168
28,19,18,Jits_Linear_8,3,5,56,103,3825363360
28,19,18,Jits_Linear_8,0,5,63,98,3825863048
28,19,18,Jits_Linear_8,1,5,80,127,3825892648
28,19,18,Jits_Linear_8,2,1,48,47,3825896888
28,19,18,Jits_Linear_8,3,5,56,103,3825983172
28,19,18,Jits_Linear_8,0,5,63,98,3826513260
28,19,18,Jits_Linear_8,1,5,56,103,3826522412
28,19,18,Jits_Linear_8,2,1,48,43,3826534368
28,19,18,Jits_Linear_8,3,5,80,127,3826622800
28,19,18,Jits_Linear_8,0,1,48,38,3827155324
28,19,18,Jits_Linear_8,1,5,63,98,3827262876
28,19,18,Jits_Linear_8,2,5,80,127,3827292556
28,19,18,Jits_Linear_8,3,5,56,103,3827323276
28,19,18,Jits_Linear_8,0,1,48,35,3827856348
28,19,18,Jits_Linear_8,1,5,80,127,3827923432
28,19,18,Jits_Linear_8,2,5,63,98,3827932584
28,19,18,Jits_Linear_8,3,5,56,103,3827963364
28,19,18,Jits_Linear_8,0,5,80,127,3828462976
28,19,18,Jits_Linear_8,1,5,63,98,3828482392
28,19,18,Jits_Linear_8,2,5,56,103,3828532620
28,19,18,Jits_Linear_8,3,1,48,37,3828557384
28,19,18,Jits_Linear_8,0,5,63,98,3829132612
28,19,18,Jits_Linear_8,1,1,48,36,3829147940
28,19,18,Jits_Linear_8,2,5,80,127,3829193296
28,19,18,Jits_Linear_8,3,5,56,103,3829212484
28,19,18,Jits_Linear_8,0,5,63,98,3829732756
28,19,18,Jits_Linear_8,1,5,56,103,3829783108
28,19,18,Jits_Linear_8,2,5,80,127,3829793256
28,19,18,Jits_Linear_8,3,1,48,19,3829796228
28,19,18,Jits_Linear_8,0,1,48,32,3830358436
28,19,18,Jits_Linear_8,1,5,56,103,3830402376
28,19,18,Jits_Linear_8,2,5,80,127,3830412644
28,19,18,Jits_Linear_8,3,5,63,98,3830513028
28,19,18,Jits_Linear_8,0,5,80,127,3831002528
28,19,18,Jits_Linear_8,1,5,63,98,3831012576
28,19,18,Jits_Linear_8,2,1,48,25,3831018308
28,19,18,Jits_Linear_8,3,5,56,103,3831163168
28,19,18,Jits_Linear_8,0,5,63,98,3831642492
28,19,18,Jits_Linear_8,1,1,48,24,3831659988
28,19,18,Jits_Linear_8,2,5,80,127,3831682352
28,19,18,Jits_Linear_8,3,5,56,103,3831763400
28,19,18,Jits_Linear_8,0,5,56,103,3832263160
28,19,18,Jits_Linear_8,1,1,48,33,3832322628
28,19,18,Jits_Linear_8,2,5,80,127,3832363284
28,19,18,Jits_Linear_8,3,5,63,98,3832382920
28,19,18,Jits_Linear_8,0,1,48,44,3832877396
28,19,18,Jits_Linear_8,1,5,80,127,3832953324
28,19,18,Jits_Linear_8,2,5,56,103,3832962400
28,19,18,Jits_Linear_8,3,5,63,98,3833052668
28,19,18,Jits_Linear_8,0,5,56,103,3833583080
28,19,18,Jits_Linear_8,1,5,63,98,3833602344
28,19,18,Jits_Linear_8,2,1,48,43,3833637844
28,19,18,Jits_Linear_8,3,5,80,127,3833683424
28,19,18,Jits_Linear_8,0,5,63,98,3834153372
28,19,18,Jits_Linear_8,1,1,48,38,3834202576
28,19,18,Jits_Linear_8,2,5,56,103,3834242380
28,19,18,Jits_Linear_8,3,5,80,127,3834245448
28,19,18,Jits_Linear_8,0,5,56,103,3834802436
28,19,18,Jits_Linear_8,1,1,48,36,3834808240
28,19,18,Jits_Linear_8,2,5,80,127,3834862972
28,19,18,Jits_Linear_8,3,5,63,98,3834873168
28,19,18,Jits_Linear_8,0,1,48,38,3835377984
28,19,18,Jits_Linear_8,1,5,80,127,3835473180
28,19,18,Jits_Linear_8,2,5,56,103,3835482476
28,19,18,Jits_Linear_8,3,5,63,98,3835485692
28,19,18,Jits_Linear_8,0,5,56,103,3836052812
28,19,18,Jits_Linear_8,1,5,80,127,3836063080
28,19,18,Jits_Linear_8,2,5,63,98,3836082864
28,19,18,Jits_Linear_8,3,1,48,34,3836098720
28,19,18,Jits_Linear_8,0,5,63,98,3836642852
28,19,18,Jits_Linear_8,1,5,80,127,3836703048
28,19,18,Jits_Linear_8,2,1,48,35,3836707508
28,19,18,Jits_Linear_8,3,5,56,103,3836753316
28,19,18,Jits_Linear_8,0,1,48,41,3837271392
28,19,18,Jits_Linear_8,1,5,63,98,3837343040
28,19,18,Jits_Linear_8,2,5,56,103,3837353312
28,19,18,Jits_Linear_8,3,5,80,127,3837402676
28,19,18,Jits_Linear_8,0,5,63,98,3837852996
28,19,18,Jits_Linear_8,1,5,80,127,3837872480
28,19,18,Jits_Linear_8,2,5,56,103,3837882604
28,19,18,Jits_Linear_8,3,1,48,37,3837944752
28,19,18,Jits_Linear_8,0,5,63,98,3838463388
28,19,18,Jits_Linear_8,1,5,80,127,3838466752
28,19,18,Jits_Linear_8,2,5,56,103,3838503204
28,19,18,Jits_Linear_8,3,1,48,38,3838523708
28,19,18,Jits_Linear_8,0,1,48,44,3839067552
28,19,18,Jits_Linear_8,1,5,63,98,3839143408
28,19,18,Jits_Linear_8,2,5,80,127,3839172920
28,19,18,Jits_Linear_8,3,5,56,103,3839183412
28,19,18,Jits_Linear_8,0,5,56,103,3839703704
28,19,18,Jits_Linear_8,1,5,80,127,3839733080
28,19,18,Jits_Linear_8,2,1,48,47,3839750520
28,19,18,Jits_Linear_8,3,5,63,98,3839762676
28,19,18,Jits_Linear_8,0,1,48,45,3840345660
28,19,18,Jits_Linear_8,1,5,63,98,3840402856
28,19,18,Jits_Linear_8,2,5,56,103,3840443844
28,19,18,Jits_Linear_8,3,5,80,127,3840446672
28,19,18,Jits_Linear_8,0,5,80,127,3840902460
28,19,18,Jits_Linear_8,1,5,56,103,3840983752
28,19,18,Jits_Linear_8,2,5,63,98,3841032612
28,19,18,Jits_Linear_8,3,1,48,22,3841037376
28,19,18,Jits_Linear_8,0,5,80,127,3841483064
28,19,18,Jits_Linear_8,1,5,56,103,3841502700
28,19,18,Jits_Linear_8,2,5,63,98,3841592636
28,19,18,Jits_Linear_8,3,1,48,45,3841594872
28,19,18,Jits_Linear_8,0,5,80,127,3842123028
28,19,18,Jits_Linear_8,1,1,48,32,3842124440
28,19,18,Jits_Linear_8,2,5,63,98,3842163408
28,19,18,Jits_Linear_8,3,5,56,103,3842202976
28,19,18,Jits_Linear_8,0,5,63,98,3842692616
28,19,18,Jits_Linear_8,1,1,48,34,3842739560
28,19,18,Jits_Linear_8,2,5,80,127,3842752928
28,19,18,Jits_Linear_8,3,5,56,103,3842782528
28,19,18,Jits_Linear_8,0,5,56,103,3843292612
28,19,18,Jits_Linear_8,1,5,80,127,3843323408
28,19,18,Jits_Linear_8,2,1,48,28,3843356516
28,19,18,Jits_Linear_8,3,5,63,98,3843413560
28,19,18,Jits_Linear_8,0,5,56,103,3843892644
28,19,18,Jits_Linear_8,1,1,48,28,3843910664
28,19,18,Jits_Linear_8,2,5,80,127,3844003300
28,19,18,Jits_Linear_8,3,5,63,98,3844032812
28,19,18,Jits_Linear_8,0,1,48,27,3844489992
28,19,18,Jits_Linear_8,1,5,56,103,3844532664
28,19,18,Jits_Linear_8,2,5,63,98,3844592892
28,19,18,Jits_Linear_8,3,5,80,127,3844622640
28,19,18,Jits_Linear_8,0,5,56,103,3845092588
28,19,18,Jits_Linear_8,1,1,48,37,3845147496
28,19,18,Jits_Linear_8,2,5,63,98,3845163412
28,19,18,Jits_Linear_8,3,5,80,127,3845182972
28,19,18,Jits_Linear_8,0,5,80,127,3845652892
28,19,18,Jits_Linear_8,1,5,63,98,3845673528
28,19,18,Jits_Linear_8,2,5,56,103,3845722460
28,19,18,Jits_Linear_8,3,1,48,37,3845727372
28,19,18,Jits_Linear_8,0,1,48,32,3846242408
28,19,18,Jits_Linear_8,1,5,63,98,3846252768
28,19,18,Jits_Linear_8,2,5,80,127,3846263412
28,19,18,Jits_Linear_8,3,5,56,103,3846313464
28,19,18,Jits_Linear_8,0,1,48,34,3846820956
28,19,18,Jits_Linear_8,1,5,63,98,3846832460
28,19,18,Jits_Linear_8,2,5,80,127,3846903336
28,19,18,Jits_Linear_8,3,5,56,103,3846922584
28,19,18,Jits_Linear_8,0,1,48,50,3847376980
28,19,18,Jits_Linear_8,1,5,63,98,3847442712
28,19,18,Jits_Linear_8,2,5,80,127,3847446080
28,19,18,Jits_Linear_8,3,5,56,103,3847512332
28,19,18,Jits_Linear_8,0,5,80,127,3847973356
28,19,18,Jits_Linear_8,1,5,56,103,3847992548
28,19,18,Jits_Linear_8,2,5,63,98,3848003040
28,19,18,Jits_Linear_8,3,1,48,39,3848027956
28,19,18,Jits_Linear_8,0,5,56,103,3848573436
28,19,18,Jits_Linear_8,1,1,48,26,3848606076
28,19,18,Jits_Linear_8,2,5,63,98,3848663340
28,19,18,Jits_Linear_8,3,5,80,127,3848666704
28,19,18,Jits_Linear_8,0,5,80,127,3849123392
28,19,18,Jits_Linear_8,1,5,56,103,3849133368
28,19,18,Jits_Linear_8,2,5,63,98,3849152780
28,19,18,Jits_Linear_8,3,1,48,34,3849164736
28,19,18,Jits_Linear_8,0,1,48,32,3849677132
28,19,18,Jits_Linear_8,1,5,63,98,3849692524
28,19,18,Jits_Linear_8,2,5,80,127,3849753212
28,19,18,Jits_Linear_8,3,5,56,103,3849763332
28,19,18,Jits_Linear_8,0,1,48,27,3850188984
28,19,18,Jits_Linear_8,1,5,63,98,3850332508
28,19,18,Jits_Linear_8,2,5,80,127,3850363232
28,19,18,Jits_Linear_8,3,5,56,103,3850403244
28,19,18,Jits_Linear_8,0,5,56,103,3850892524
28,19,18,Jits_Linear_8,1,5,80,127,3850903020
28,19,18,Jits_Linear_8,2,1,48,40,3850909352
28,19,18,Jits_Linear_8,3,5,63,98,3850942876
28,19,18,Jits_Linear_8,0,5,80,127,3851423080
28,19,18,Jits_Linear_8,1,1,48,46,3851468524
28,19,18,Jits_Linear_8,2,5,56,103,3851503024
28,19,18,Jits_Linear_8,3,5,63,98,3851513292
28,19,18,Jits_Linear_8,0,5,80,127,3852033360
28,19,18,Jits_Linear_8,1,1,48,53,3852038352
28,19,18,Jits_Linear_8,2,5,56,103,3852113252
28,19,18,Jits_Linear_8,3,5,63,98,3852122476
28,19,18,Jits_Linear_8,0,5,80,127,3852552612
28,19,18,Jits_Linear_8,1,5,56,103,3852602840
28,19,18,Jits_Linear_8,2,1,48,51,3852650004
28,19,18,Jits_Linear_8,3,5,63,98,3852653184
28,19,18,Jits_Linear_8,0,5,56,103,3853173176
28,19,18,Jits_Linear_8,1,1,48,43,3853175944
28,19,18,Jits_Linear_8,2,5,63,98,3853177580
28,19,18,Jits_Linear_8,3,5,80,127,3853223368
28,19,18,Jits_Linear_8,0,1,48,43,3853730064
28,19,18,Jits_Linear_8,1,5,56,103,3853752876
28,19,18,Jits_Linear_8,2,5,63,98,3853783452
28,19,18,Jits_Linear_8,3,5,80,127,3853792600
28,19,18,Jits_Linear_8,0,5,63,98,3854223116
28,19,18,Jits_Linear_8,1,5,56,103,3854293404
28,19,18,Jits_Linear_8,2,1,48,42,3854320952
28,19,18,Jits_Linear_8,3,5,80,127,3854342624
28,19,18,Jits_Linear_8,0,5,63,98,3854812632
28,19,18,Jits_Linear_8,1,5,56,103,3854823048
28,19,18,Jits_Linear_8,2,5,80,127,3854826192
28,19,18,Jits_Linear_8,3,1,48,46,3854841160
28,19,18,Jits_Linear_8,0,5,80,127,3855313268
28,19,18,Jits_Linear_8,1,1,48,49,3855348148
28,19,18,Jits_Linear_8,2,5,56,103,3855372532
28,19,18,Jits_Linear_8,3,5,63,98,3855462972
28,19,18,Jits_Linear_8,0,5,80,127,3855863232
28,19,18,Jits_Linear_8,1,1,48,35,3855922800
28,19,18,Jits_Linear_8,2,5,56,103,3855962604
28,19,18,Jits_Linear_8,3,5,63,98,3856002396
28,19,18,Jits_Linear_8,0,1,48,35,3856452084
28,19,18,Jits_Linear_8,1,5,56,103,3856463268
28,19,18,Jits_Linear_8,2,5,63,98,3856482832
28,19,18,Jits_Linear_8,3,5,80,127,3856522548
28,19,18,Jits_Linear_8,0,5,63,98,3856983408
28,19,18,Jits_Linear_8,1,5,56,103,3857003044
28,19,18,Jits_Linear_8,2,1,48,25,3857060172
28,19,18,Jits_Linear_8,3,5,80,127,3857103136
28,19,18,Jits_Linear_8,0,1,48,39,3857470844
28,19,18,Jits_Linear_8,1,5,63,98,3857512748
28,19,18,Jits_Linear_8,2,5,80,127,3857623544
28,19,18,Jits_Linear_8,3,5,56,103,3857653292
28,19,18,Jits_Linear_8,0,5,56,103,3858072896
28,19,18,Jits_Linear_8,1,5,63,98,3858102796
28,19,18,Jits_Linear_8,2,1,48,43,3858112664
28,19,18,Jits_Linear_8,3,5,80,127,3858152692
28,19,18,Jits_Linear_8,0,5,63,98,3858583000
28,19,18,Jits_Linear_8,1,1,48,55,3858610940
28,19,18,Jits_Linear_8,2,5,56,103,3858612896
28,19,18,Jits_Linear_8,3,5,80,127,3858662872
28,19,18,Jits_Linear_8,0,5,56,103,3859153180
28,19,18,Jits_Linear_8,1,1,48,46,3859159884
28,19,18,Jits_Linear_8,2,5,63,98,3859173032
28,19,18,Jits_Linear_8,3,5,80,127,3859252928
28,19,18,Jits_Linear_8,0,5,63,98,3859663128
28,19,18,Jits_Linear_8,1,5,56,103,3859722700
28,19,18,Jits_Linear_8,2,1,48,45,3859725448
28,19,18,Jits_Linear_8,3,5,80,127,3859753216
28,19,18,Jits_Linear_8,0,1,48,49,3860217232
28,19,18,Jits_Linear_8,1,5,56,103,3860242888
28,19,18,Jits_Linear_8,2,5,80,127,3860303156
28,19,18,Jits_Linear_8,3,5,63,98,3860343152
28,19,18,Jits_Linear_8,0,5,63,98,3860762980
28,19,18,Jits_Linear_8,1,1,48,57,3860794496
28,19,18,Jits_Linear_8,2,5,56,103,3860823440
28,19,18,Jits_Linear_8,3,5,80,127,3860893028
28,19,18,Jits_Linear_8,0,1,48,59,3861331632
28,19,18,Jits_Linear_8,1,5,56,103,3861373388
28,19,18,Jits_Linear_8,2,5,63,98,3861382756
28,19,18,Jits_Linear_8,3,5,80,127,3861385972
28,19,18,Jits_Linear_8,0,1,48,61,3861836844
28,19,18,Jits_Linear_8,1,5,63,98,3861843240
28,19,18,Jits_Linear_8,2,5,56,103,3861902804
28,19,18,Jits_Linear_8,3,5,80,127,3861905724
28,19,18,Jits_Linear_8,0,5,63,98,3862353176
28,19,18,Jits_Linear_8,1,1,48,59,3862374276
28,19,18,Jits_Linear_8,2,5,80,127,3862382920
28,19,18,Jits_Linear_8,3,5,56,103,3862402704
28,19,18,Jits_Linear_8,0,1,48,53,3862866528
28,19,18,Jits_Linear_8,1,5,56,103,3862882668
28,19,18,Jits_Linear_8,2,5,63,98,3862932872
28,19,18,Jits_Linear_8,3,5,80,127,3863012876
28,19,18,Jits_Linear_8,0,5,80,127,3863383696
28,19,18,Jits_Linear_8,1,1,48,46,3863412444
28,19,18,Jits_Linear_8,2,5,63,98,3863423556
28,19,18,Jits_Linear_8,3,5,56,103,3863442896
28,19,18,Jits_Linear_8,0,1,48,54,3863909944
28,19,18,Jits_Linear_8,1,5,56,103,3863973364
28,19,18,Jits_Linear_8,2,5,80,127,3863982736
28,19,18,Jits_Linear_8,3,5,63,98,3864002824
28,19,18,Jits_Linear_8,0,1,48,56,3864442380
28,19,18,Jits_Linear_8,1,5,56,103,3864472896
28,19,18,Jits_Linear_8,2,5,63,98,3864523176
28,19,18,Jits_Linear_8,3,5,80,127,3864552760
28,19,18,Jits_Linear_8,0,5,56,103,3864942840
28,19,18,Jits_Linear_8,1,5,63,98,3864953332
28,19,18,Jits_Linear_8,2,1,48,58,3864997060
28,19,18,Jits_Linear_8,3,5,80,127,3865003528
28,19,18,Jits_Linear_8,0,5,56,103,3865452784
28,19,18,Jits_Linear_8,1,5,80,127,3865455856
28,19,18,Jits_Linear_8,2,1,48,56,3865509244
28,19,18,Jits_Linear_8,3,5,63,98,3865612796
28,19,18,Jits_Linear_8,0,5,63,98,3865983640
28,19,18,Jits_Linear_8,1,1,48,52,3866004068
28,19,18,Jits_Linear_8,2,5,56,103,3866052944
28,19,18,Jits_Linear_8,3,5,80,127,3866093032
28,19,18,Jits_Linear_8,0,1,48,54,3866505320
28,19,18,Jits_Linear_8,1,5,63,98,3866533440
28,19,18,Jits_Linear_8,2,5,56,103,3866623632
28,19,18,Jits_Linear_8,3,5,80,127,3866626552
28,19,18,Jits_Linear_8,0,5,56,103,3867022636
28,19,18,Jits_Linear_8,1,1,48,48,3867035420
28,19,18,Jits_Linear_8,2,5,63,98,3867112916
28,19,18,Jits_Linear_8,3,5,80,127,3867123112
28,19,18,Jits_Linear_8,0,5,56,103,3867503000
28,19,18,Jits_Linear_8,1,1,48,44,3867550536
28,19,18,Jits_Linear_8,2,5,63,98,3867553420
28,19,18,Jits_Linear_8,3,5,80,127,3867582800
28,19,18,Jits_Linear_8,0,1,48,45,3868039888
28,19,18,Jits_Linear_8,1,5,63,98,3868082556
28,19,18,Jits_Linear_8,2,5,80,127,3868092828
28,19,18,Jits_Linear_8,3,5,56,103,3868153424
28,19,18,Jits_Linear_8,0,5,63,98,3868503576
28,19,18,Jits_Linear_8,1,1,48,50,3868548572
28,19,18,Jits_Linear_8,2,5,80,127,3868562768
28,19,18,Jits_Linear_8,3,5,56,103,3868602632
28,19,18,Jits_Linear_8,0,1,48,50,3869045404
28,19,18,Jits_Linear_8,1,5,56,103,3869102524
28,19,18,Jits_Linear_8,2,5,80,127,3869122912
28,19,18,Jits_Linear_8,3,5,63,98,3869143504
28,19,18,Jits_Linear_8,0,5,63,98,3869523400
28,19,18,Jits_Linear_8,1,5,56,103,3869542740
28,19,18,Jits_Linear_8,2,1,48,51,3869558436
28,19,18,Jits_Linear_8,3,5,80,127,3869582596
28,19,18,Jits_Linear_8,0,5,63,98,3870033412
28,19,18,Jits_Linear_8,1,1,48,49,3870061120
28,19,18,Jits_Linear_8,2,5,80,127,3870062936
28,19,18,Jits_Linear_8,3,5,56,103,3870082424
28,19,18,Jits_Linear_8,0,5,80,127,3870503348
28,19,18,Jits_Linear_8,1,5,56,103,3870552428
28,19,18,Jits_Linear_8,2,1,48,46,3870573304
28,19,18,Jits_Linear_8,3,5,63,98,3870612740
28,19,18,Jits_Linear_8,0,5,63,98,3870982492
28,19,18,Jits_Linear_8,1,1,48,45,3871044372
28,19,18,Jits_Linear_8,2,5,56,103,3871103288
28,19,18,Jits_Linear_8,3,5,80,127,3871133036
28,19,18,Jits_Linear_8,0,1,48,44,3871506408
28,19,18,Jits_Linear_8,1,5,80,127,3871512832
28,19,18,Jits_Linear_8,2,5,63,98,3871533292
28,19,18,Jits_Linear_8,3,5,56,103,3871603256
28,19,18,Jits_Linear_8,0,1,48,45,3871978740
28,19,18,Jits_Linear_8,1,5,63,98,3872022828
28,19,18,Jits_Linear_8,2,5,56,103,3872033124
28,19,18,Jits_Linear_8,3,5,80,127,3872113128
28,19,18,Jits_Linear_8,0,1,48,45,3872465540
28,19,18,Jits_Linear_8,1,5,56,103,3872572720
28,19,18,Jits_Linear_8,2,5,80,127,3872602472
28,19,18,Jits_Linear_8,3,5,63,98,3872612668
28,19,18,Jits_Linear_8,0,9999,9999,9999,3762220116
28,19,18,Jits_Linear_8,1,9999,9999,9999,3763040332
28,19,18,Jits_Linear_8,2,9999,9999,9999,3763860544
28,19,18,Jits_Linear_8,3,9999,9999,9999,3764680768
28,19,18,Jits_Linear_8,4,9999,9999,9999,3765500984
28,19,18,Jits_Linear_8,5,9999,9999,9999,3766311032
28,19,18,Jits_Linear_8,6,9999,9999,9999,3767120972
28,19,18,Jits_Linear_8,7,9999,9999,9999,3767930992
28,19,18,Jits_Linear_8,8,9999,9999,9999,3768740944
28,19,18,Jits_Linear_8,9,9999,9999,9999,3769550952
28,19,18,Jits_Linear_8,10,9999,9999,9999,3770350656
28,19,18,Jits_Linear_8,11,9999,9999,9999,3771150412
28,19,18,Jits_Linear_8,12,9999,9999,9999,3771950196
28,19,18,Jits_Linear_8,13,9999,9999,9999,3772750936
28,19,18,Jits_Linear_8,14,9999,9999,9999,3773550680
28,19,18,Jits_Linear_8,15,9999,9999,9999,3774340164
28,19,18,Jits_Linear_8,16,9999,9999,9999,3775130692
28,19,18,Jits_Linear_8,17,9999,9999,9999,3775920188
28,19,18,Jits_Linear_8,18,9999,9999,9999,3776710732
28,19,18,Jits_Linear_8,19,9999,9999,9999,3777500228
28,19,18,Jits_Linear_8,20,9999,9999,9999,3778280576
28,19,18,Jits_Linear_8,21,9999,9999,9999,3779060848
28,19,18,Jits_Linear_8,22,9999,9999,9999,3779840080
28,19,18,Jits_Linear_8,23,9999,9999,9999,3780620356
28,19,18,Jits_Linear_8,24,9999,9999,9999,3781400700
28,19,18,Jits_Linear_8,25,9999,9999,9999,3782170708
28,19,18,Jits_Linear_8,26,9999,9999,9999,3782940732
28,19,18,Jits_Linear_8,27,9999,9999,9999,3783710840
28,19,18,Jits_Linear_8,28,9999,9999,9999,3784480864
28,19,18,Jits_Linear_8,29,9999,9999,9999,3785250896
28,19,18,Jits_Linear_8,30,9999,9999,9999,3786010692
28,19,18,Jits_Linear_8,31,9999,9999,9999,3786770508
28,19,18,Jits_Linear_8,32,9999,9999,9999,3787530344
28,19,18,Jits_Linear_8,33,9999,9999,9999,3788290176
28,19,18,Jits_Linear_8,34,9999,9999,9999,3789050988
28,19,18,Jits_Linear_8,35,9999,9999,9999,3789800556
28,19,18,Jits_Linear_8,36,9999,9999,9999,3790550124
28,19,18,Jits_Linear_8,37,9999,9999,9999,3791300668
28,19,18,Jits_Linear_8,38,9999,9999,9999,3792050240
28,19,18,Jits_Linear_8,39,9999,9999,9999,3792800848
28,19,18,Jits_Linear_8,40,9999,9999,9999,3793540220
28,19,18,Jits_Linear_8,41,9999,9999,9999,3794280504
28,19,18,Jits_Linear_8,42,9999,9999,9999,3795020920
28,19,18,Jits_Linear_8,43,9999,9999,9999,3795760204
28,19,18,Jits_Linear_8,44,9999,9999,9999,3796500584
28,19,18,Jits_Linear_8,45,9999,9999,9999,3797230660
28,19,18,Jits_Linear_8,46,9999,9999,9999,3797960812
28,19,18,Jits_Linear_8,47,9999,9999,9999,3798690888
28,19,18,Jits_Linear_8,48,9999,9999,9999,3799421040
28,19,18,Jits_Linear_8,49,9999,9999,9999,3800150072
28,19,18,Jits_Linear_8,50,9999,9999,9999,3800871008
28,19,18,Jits_Linear_8,51,9999,9999,9999,3801590872
28,19,18,Jits_Linear_8,52,9999,9999,9999,3802310768
28,19,18,Jits_Linear_8,53,9999,9999,9999,3803030592
28,19,18,Jits_Linear_8,54,9999,9999,9999,3803750476
28,19,18,Jits_Linear_8,55,9999,9999,9999,3804460124
28,19,18,Jits_Linear_8,56,9999,9999,9999,3805170768
28,19,18,Jits_Linear_8,57,9999,9999,9999,3805880412
28,19,18,Jits_Linear_8,58,9999,9999,9999,3806591104
28,19,18,Jits_Linear_8,59,9999,9999,9999,3807300728
28,19,18,Jits_Linear_8,60,9999,9999,9999,3808000072
28,19,18,Jits_Linear_8,61,9999,9999,9999,3808700504
28,19,18,Jits_Linear_8,62,9999,9999,9999,3809400924
28,19,18,Jits_Linear_8,63,9999,9999,9999,3810100280
28,19,18,Jits_Linear_8,64,9999,9999,9999,3810800748
28,19,18,Jits_Linear_8,65,9999,9999,9999,3811490900
28,19,18,Jits_Linear_8,66,9999,9999,9999,3812181072
28,19,18,Jits_Linear_8,67,9999,9999,9999,3812870228
28,19,18,Jits_Linear_8,68,9999,9999,9999,3813560380
28,19,18,Jits_Linear_8,69,9999,9999,9999,3814250620
28,19,18,Jits_Linear_8,70,9999,9999,9999,3814930492
28,19,18,Jits_Linear_8,71,9999,9999,9999,3815610452
28,19,18,Jits_Linear_8,72,9999,9999,9999,3816290408
28,19,18,Jits_Linear_8,73,9999,9999,9999,3816970360
28,19,18,Jits_Linear_8,74,9999,9999,9999,3817650268
28,19,18,Jits_Linear_8,75,9999,9999,9999,3818321012
28,19,18,Jits_Linear_8,76,9999,9999,9999,3818990680
28,19,18,Jits_Linear_8,77,9999,9999,9999,3819660392
28,19,18,Jits_Linear_8,78,9999,9999,9999,3820331132
28,19,18,Jits_Linear_8,79,9999,9999,9999,3821011008
28,19,18,Jits_Linear_8,80,9999,9999,9999,3821670520
28,19,18,Jits_Linear_8,81,9999,9999,9999,3822330976
28,19,18,Jits_Linear_8,82,9999,9999,9999,3822990408
28,19,18,Jits_Linear_8,83,9999,9999,9999,3823650888
28,19,18,Jits_Linear_8,84,9999,9999,9999,3824310376
28,19,18,Jits_Linear_8,85,9999,9999,9999,3824960596
28,19,18,Jits_Linear_8,86,9999,9999,9999,3825610864
28,19,18,Jits_Linear_8,87,9999,9999,9999,3826261076
28,19,18,Jits_Linear_8,88,9999,9999,9999,3826910292
28,19,18,Jits_Linear_8,89,9999,9999,9999,3827560520
28,19,18,Jits_Linear_8,90,9999,9999,9999,3828200532
28,19,18,Jits_Linear_8,91,9999,9999,9999,3828840556
28,19,18,Jits_Linear_8,92,9999,9999,9999,3829480504
28,19,18,Jits_Linear_8,93,9999,9999,9999,3830120528
28,19,18,Jits_Linear_8,94,9999,9999,9999,3830760532
28,19,18,Jits_Linear_8,95,9999,9999,9999,3831390296
28,19,18,Jits_Linear_8,96,9999,9999,9999,3832021096
28,19,18,Jits_Linear_8,97,9999,9999,9999,3832650860
28,19,18,Jits_Linear_8,98,9999,9999,9999,3833280624
28,19,18,Jits_Linear_8,99,9999,9999,9999,3833910392
28,19,18,Jits_Linear_8,100,9999,9999,9999,3834530920
28,19,18,Jits_Linear_8,101,9999,9999,9999,3835150400
28,19,18,Jits_Linear_8,102,9999,9999,9999,3835770956
28,19,18,Jits_Linear_8,103,9999,9999,9999,3836390504
28,19,18,Jits_Linear_8,104,9999,9999,9999,3837011068
28,19,18,Jits_Linear_8,105,9999,9999,9999,3837620292
28,19,18,Jits_Linear_8,106,9999,9999,9999,3838230620
28,19,18,Jits_Linear_8,107,9999,9999,9999,3838840956
28,19,18,Jits_Linear_8,108,9999,9999,9999,3839450172
28,19,18,Jits_Linear_8,109,9999,9999,9999,3840060532
28,19,18,Jits_Linear_8,110,9999,9999,9999,3840660548
28,19,18,Jits_Linear_8,111,9999,9999,9999,3841260616
28,19,18,Jits_Linear_8,112,9999,9999,9999,3841860720
28,19,18,Jits_Linear_8,113,9999,9999,9999,3842460728
28,19,18,Jits_Linear_8,114,9999,9999,9999,3843060808
28,19,18,Jits_Linear_8,115,9999,9999,9999,3843650640
28,19,18,Jits_Linear_8,116,9999,9999,9999,3844240464
28,19,18,Jits_Linear_8,117,9999,9999,9999,3844830292
28,19,18,Jits_Linear_8,118,9999,9999,9999,3845420128
28,19,18,Jits_Linear_8,119,9999,9999,9999,3846010992
28,19,18,Jits_Linear_8,120,9999,9999,9999,3846590548
28,19,18,Jits_Linear_8,121,9999,9999,9999,3847170168
28,19,18,Jits_Linear_8,122,9999,9999,9999,3847750772
28,19,18,Jits_Linear_8,123,9999,9999,9999,3848330308
28,19,18,Jits_Linear_8,124,9999,9999,9999,3848910904
28,19,18,Jits_Linear_8,125,9999,9999,9999,3849480268
28,19,18,Jits_Linear_8,126,9999,9999,9999,3850050680
28,19,18,Jits_Linear_8,127,9999,9999,9999,3850621012
28,19,18,Jits_Linear_8,128,9999,9999,9999,3851190368
28,19,18,Jits_Linear_8,129,9999,9999,9999,3851760712
28,19,18,Jits_Linear_8,130,9999,9999,9999,3852320896
28,19,18,Jits_Linear_8,131,9999,9999,9999,3852880972
28,19,18,Jits_Linear_8,132,9999,9999,9999,3853440072
28,19,18,Jits_Linear_8,133,9999,9999,9999,3854000236
28,19,18,Jits_Linear_8,134,9999,9999,9999,3854560376
28,19,18,Jits_Linear_8,135,9999,9999,9999,3855110240
28,19,18,Jits_Linear_8,136,9999,9999,9999,3855660140
28,19,18,Jits_Linear_8,137,9999,9999,9999,3856211004
28,19,18,Jits_Linear_8,138,9999,9999,9999,3856760896
28,19,18,Jits_Linear_8,139,9999,9999,9999,3857310844
28,19,18,Jits_Linear_8,140,9999,9999,9999,3857850460
28,19,18,Jits_Linear_8,141,9999,9999,9999,3858390072
28,19,18,Jits_Linear_8,142,9999,9999,9999,3858930740
28,19,18,Jits_Linear_8,143,9999,9999,9999,3859470428
28,19,18,Jits_Linear_8,144,9999,9999,9999,3860011116
28,19,18,Jits_Linear_8,145,9999,9999,9999,3860550732
28,19,18,Jits_Linear_8,146,9999,9999,9999,3861080156
28,19,18,Jits_Linear_8,147,9999,9999,9999,3861610620
28,19,18,Jits_Linear_8,148,9999,9999,9999,3862141008
28,19,18,Jits_Linear_8,149,9999,9999,9999,3862670424
28,19,18,Jits_Linear_8,150,9999,9999,9999,3863190636
28,19,18,Jits_Linear_8,151,9999,9999,9999,3863710836
28,19,18,Jits_Linear_8,152,9999,9999,9999,3864230984
28,19,18,Jits_Linear_8,153,9999,9999,9999,3864750148
28,19,18,Jits_Linear_8,154,9999,9999,9999,3865270348
28,19,18,Jits_Linear_8,155,9999,9999,9999,3865780296
28,19,18,Jits_Linear_8,156,9999,9999,9999,3866290256
28,19,18,Jits_Linear_8,157,9999,9999,9999,3866800200
28,19,18,Jits_Linear_8,158,9999,9999,9999,3867310148
28,19,18,Jits_Linear_8,159,9999,9999,9999,3867820104
28,19,18,Jits_Linear_8,160,9999,9999,9999,3868320852
28,19,18,Jits_Linear_8,161,9999,9999,9999,3868820604
28,19,18,Jits_Linear_8,162,9999,9999,9999,3869320296
28,19,18,Jits_Linear_8,163,9999,9999,9999,3869821016
28,19,18,Jits_Linear_8,164,9999,9999,9999,3870320696
28,19,18,Jits_Linear_8,165,9999,9999,9999,3870810188
28,19,18,Jits_Linear_8,166,9999,9999,9999,3871300668
28,19,18,Jits_Linear_8,167,9999,9999,9999,3871790160
28,19,18,Jits_Linear_8,168,9999,9999,9999,3872280700
28,19,18,Jits_Linear_8,169,9999,9999,9999,3872770104
28,20,5,ISIP_5,0,5,42,127,3932024028
28,20,5,ISIP_5,1,5,42,127,3932523744
28,20,5,ISIP_5,2,5,42,127,3933023460
28,20,5,ISIP_5,3,5,42,127,3933524520
28,20,5,ISIP_5,4,1,48,53,3933991288
28,20,5,ISIP_5,5,5,42,127,3934023932
28,20,5,ISIP_5,6,1,48,52,3934502352
28,20,5,ISIP_5,7,5,42,127,3934523628
28,20,5,ISIP_5,8,1,48,56,3934981452
28,20,5,ISIP_5,9,5,42,127,3935023400
28,20,5,ISIP_5,10,1,48,51,3935483392
28,20,5,ISIP_5,11,5,42,127,3935524288
28,20,5,ISIP_5,12,1,48,55,3935994528
28,20,5,ISIP_5,13,5,42,127,3936024060
28,20,5,ISIP_5,14,1,48,51,3936475156
28,20,5,ISIP_5,15,5,42,127,3936523580
28,20,5,ISIP_5,16,1,48,49,3936995640
28,20,5,ISIP_5,17,5,42,127,3937024396
28,20,5,ISIP_5,18,1,48,49,3937480296
28,20,5,ISIP_5,19,5,42,127,3937524016
28,20,5,ISIP_5,20,1,48,50,3937985004
28,20,5,ISIP_5,21,5,42,127,3938023932
28,20,5,ISIP_5,22,1,48,52,3938470636
28,20,5,ISIP_5,23,5,42,127,3938523480
28,20,5,ISIP_5,24,1,48,44,3938959712
28,20,5,ISIP_5,25,5,42,127,3939024220
28,20,5,ISIP_5,26,1,48,51,3939495088
28,20,5,ISIP_5,27,5,42,127,3939524136
28,20,5,ISIP_5,28,1,48,53,3939989544
28,20,5,ISIP_5,29,5,42,127,3940023612
28,20,5,ISIP_5,30,1,48,43,3940492976
28,20,5,ISIP_5,31,5,42,127,3940524352
28,20,5,ISIP_5,32,1,48,38,3941001048
28,20,5,ISIP_5,33,5,42,127,3941024048
28,20,5,ISIP_5,34,1,48,34,3941457884
28,20,5,ISIP_5,35,5,42,127,3941523744
28,20,5,ISIP_5,36,1,48,45,3941996028
28,20,5,ISIP_5,37,5,42,127,3942023588
28,20,5,ISIP_5,38,1,48,43,3942509408
28,20,5,ISIP_5,39,5,42,127,3942524332
28,20,5,ISIP_5,40,1,48,42,3942980236
28,20,5,ISIP_5,41,5,42,127,3943024104
28,20,5,ISIP_5,42,1,48,35,3943506188
28,20,5,ISIP_5,43,5,42,127,3943523648
28,20,5,ISIP_5,44,1,48,38,3943997952
28,20,5,ISIP_5,45,5,42,127,3944024540
28,20,5,ISIP_5,46,1,48,48,3944476932
28,20,5,ISIP_5,47,5,42,127,3944524084
28,20,5,ISIP_5,48,1,48,38,3945006912
28,20,5,ISIP_5,49,5,42,127,3945023928
28,20,5,ISIP_5,50,1,48,37,3945493972
28,20,5,ISIP_5,51,5,42,127,3945523624
28,20,5,ISIP_5,52,1,48,39,3945977936
28,20,5,ISIP_5,53,5,42,127,3946024364
28,20,5,ISIP_5,54,1,48,41,3946498348
28,20,5,ISIP_5,55,5,42,127,3946523984
28,20,5,ISIP_5,56,1,48,43,3947021300
28,20,5,ISIP_5,57,5,42,127,3947023804
28,20,5,ISIP_5,58,1,48,42,3947517032
28,20,5,ISIP_5,59,5,42,127,3947523424
28,20,5,ISIP_5,60,1,48,47,3948006780
28,20,5,ISIP_5,61,5,42,127,3948024164
28,20,5,ISIP_5,62,1,48,45,3948495624
28,20,5,ISIP_5,63,5,42,127,3948523860
28,20,5,ISIP_5,64,1,48,48,3948978116
28,20,5,ISIP_5,65,5,42,127,3949023852
28,20,5,ISIP_5,66,1,48,51,3949487836
28,20,5,ISIP_5,67,5,42,127,3949524296
28,20,5,ISIP_5,68,1,48,48,3949995904
28,20,5,ISIP_5,69,5,42,127,3950023992
28,20,5,ISIP_5,70,1,48,48,3950489316
28,20,5,ISIP_5,71,5,42,127,3950523836
28,20,5,ISIP_5,72,1,48,48,3950969640
28,20,5,ISIP_5,73,5,42,127,3951023608
28,20,5,ISIP_5,74,1,48,45,3951508008
28,20,5,ISIP_5,75,5,42,127,3951524124
28,20,5,ISIP_5,76,1,48,45,3952014660
28,20,5,ISIP_5,77,1,48,46,3952517792
28,20,5,ISIP_5,78,1,48,47,3953011872
28,20,5,ISIP_5,79,1,48,45,3953505876
28,20,5,ISIP_5,80,1,48,45,3954008484
28,20,5,ISIP_5,81,1,48,47,3954495012
28,20,5,ISIP_5,82,1,48,44,3955023588
28,20,5,ISIP_5,83,1,48,46,3955551100
28,20,5,ISIP_5,84,1,48,45,3956045332
28,20,5,ISIP_5,85,1,48,43,3956548764
28,20,5,ISIP_5,86,1,48,44,3957037088
28,20,5,ISIP_5,87,1,48,43,3957530488
28,20,5,ISIP_5,88,1,48,42,3958036692
28,20,5,ISIP_5,89,1,48,43,3958528280
28,20,5,ISIP_5,90,1,48,47,3959029840
28,20,5,ISIP_5,91,1,48,43,3959537380
28,20,5,ISIP_5,92,1,48,45,3960030188
28,20,5,ISIP_5,93,1,48,46,3960519844
28,20,5,ISIP_5,94,1,48,38,3961030316
28,20,5,ISIP_5,95,1,48,42,3961541300
28,20,5,ISIP_5,96,1,48,50,3962016296
28,20,5,ISIP_5,97,1,48,46,3962507608
28,20,5,ISIP_5,98,1,48,46,3963028928
28,20,5,ISIP_5,99,1,48,46,3963534080
28,20,5,ISIP_5,100,1,48,42,3964029208
28,20,5,ISIP_5,101,1,48,39,3964538472
28,20,5,ISIP_5,102,1,48,43,3965013464
28,20,5,ISIP_5,103,1,48,38,3965533516
28,20,5,ISIP_5,104,1,48,46,3966028048
28,20,5,ISIP_5,105,1,48,46,3966529452
28,20,5,ISIP_5,106,1,48,46,3967029144
28,20,5,ISIP_5,107,1,48,46,3967514912
28,20,5,ISIP_5,108,1,48,50,3968023068
28,20,5,ISIP_5,109,1,48,52,3968519652
28,20,5,ISIP_5,110,1,48,46,3969032596
28,20,5,ISIP_5,111,1,48,52,3969508036
28,20,5,ISIP_5,112,1,48,47,3970018868
28,20,5,ISIP_5,113,1,48,46,3970516020
28,20,5,ISIP_5,114,1,48,47,3971014064
28,20,5,ISIP_5,115,1,48,41,3971489516
28,20,5,ISIP_5,116,1,48,49,3971989060
28,20,5,ISIP_5,117,1,48,51,3972500948
28,20,5,ISIP_5,118,1,48,51,3972962344
28,20,5,ISIP_5,119,1,48,53,3973460312
28,20,5,ISIP_5,120,1,48,47,3973980792
28,20,5,ISIP_5,121,1,48,48,3974485868
28,20,5,ISIP_5,122,1,48,49,3974984892
28,20,5,ISIP_5,123,1,48,52,3975485480
28,20,5,ISIP_5,124,1,48,52,3975994216
28,20,5,ISIP_5,125,1,48,48,3976497124
28,20,5,ISIP_5,126,1,48,43,3976977596
28,20,5,ISIP_5,127,1,48,53,3977477336
28,20,5,ISIP_5,128,1,48,44,3978021772
28,20,5,ISIP_5,129,1,48,46,3978549976
28,20,5,ISIP_5,130,1,48,41,3979052512
28,20,5,ISIP_5,131,1,48,40,3979565516
28,20,5,ISIP_5,132,1,48,48,3980082932
28,20,5,ISIP_5,133,1,48,51,3980552608
28,20,5,ISIP_5,134,1,48,50,3981076032
28,20,5,ISIP_5,135,1,48,48,3981580784
28,20,5,ISIP_5,136,1,48,51,3982055416
28,20,5,ISIP_5,137,1,48,47,3982555780
28,20,5,ISIP_5,138,1,48,49,3983024128
28,20,5,ISIP_5,139,1,48,53,3983505328
28,20,5,ISIP_5,140,1,48,51,3983996420
28,20,5,ISIP_5,141,1,48,48,3984505832
28,20,5,ISIP_5,142,1,48,46,3984985184
28,20,5,ISIP_5,143,1,48,43,3985491080
28,20,5,ISIP_5,144,1,48,43,3985994212
28,20,5,ISIP_5,145,1,48,48,3986509912
28,20,5,ISIP_5,146,1,48,52,3986994864
28,20,5,ISIP_5,147,1,48,31,3987524940
28,20,5,ISIP_5,148,1,48,40,3988045128
28,20,5,ISIP_5,149,1,48,44,3988547356
28,20,5,ISIP_5,150,1,48,49,3989035308
28,20,5,ISIP_5,151,1,48,48,3989561176
28,20,5,ISIP_5,152,1,48,49,3990062216
28,20,5,ISIP_5,153,1,48,37,3990595560
28,20,5,ISIP_5,154,1,48,39,3991123748
28,20,5,ISIP_5,155,1,48,48,3991608856
28,20,5,ISIP_5,156,1,48,43,3992093512
28,20,5,ISIP_5,157,1,48,50,3992597920
28,20,5,ISIP_5,158,1,48,42,3993100872
28,20,5,ISIP_5,159,1,48,44,3993581644
28,20,5,ISIP_5,160,1,48,46,3994088812
28,20,5,ISIP_5,161,1,48,42,3994605252
28,20,5,ISIP_5,162,1,48,40,3995110028
28,20,5,ISIP_5,163,1,48,41,3995623404
28,20,5,ISIP_5,164,1,48,43,3996121232
28,20,5,ISIP_5,165,1,48,44,3996599528
28,20,5,ISIP_5,166,1,48,49,3997103632
28,20,5,ISIP_5,167,1,48,55,3997579908
28,20,5,ISIP_5,168,1,48,48,3998103984
28,20,5,ISIP_5,169,1,48,42,3998627164
28,20,5,ISIP_5,170,1,48,48,3999090052
28,20,5,ISIP_5,171,1,48,47,3999598492
28,20,5,ISIP_5,172,1,48,35,4000100952
28,20,5,ISIP_5,173,1,48,38,4000614856
28,20,5,ISIP_5,174,1,48,48,4001091280
28,20,5,ISIP_5,175,1,48,47,4001611168
28,20,5,ISIP_5,176,1,48,37,4002118336
28,20,5,ISIP_5,177,1,48,50,4002607408
28,20,5,ISIP_5,178,1,48,46,4003074760
28,20,5,ISIP_5,179,1,48,48,4003541464
28,20,5,ISIP_5,180,1,48,48,4004064040
28,20,5,ISIP_5,181,1,48,57,4004564184
28,20,5,ISIP_5,182,1,48,58,4005075468
28,20,5,ISIP_5,183,1,48,58,4005577620
28,20,5,ISIP_5,184,1,48,57,4006076496
28,20,5,ISIP_5,185,1,48,48,4006581644
28,20,5,ISIP_5,186,1,48,59,4007050296
28,20,5,ISIP_5,187,1,48,59,4008022176
28,20,5,ISIP_5,188,1,48,44,4008541760
28,20,5,ISIP_5,189,1,48,58,4008998872
28,20,5,ISIP_5,190,1,48,61,4009443940
28,20,5,ISIP_5,191,1,48,48,4009917600
28,20,5,ISIP_5,192,1,48,56,4010388568
28,20,5,ISIP_5,193,1,48,54,4010873524
28,20,5,ISIP_5,194,1,48,50,4011365208
28,20,5,ISIP_5,195,1,48,60,4011859216
28,20,5,ISIP_5,0,9999,9999,9999,3932021816
28,20,5,ISIP_5,1,9999,9999,9999,3932521532
28,20,5,ISIP_5,2,9999,9999,9999,3933021248
28,20,5,ISIP_5,3,9999,9999,9999,3933522012
28,20,5,ISIP_5,4,9999,9999,9999,3934021720
28,20,5,ISIP_5,5,9999,9999,9999,3934521416
28,20,5,ISIP_5,6,9999,9999,9999,3935021112
28,20,5,ISIP_5,7,9999,9999,9999,3935521852
28,20,5,ISIP_5,8,9999,9999,9999,3936021620
28,20,5,ISIP_5,9,9999,9999,9999,3936521292
28,20,5,ISIP_5,10,9999,9999,9999,3937022032
28,20,5,ISIP_5,11,9999,9999,9999,3937521728
28,20,5,ISIP_5,12,9999,9999,9999,3938021496
28,20,5,ISIP_5,13,9999,9999,9999,3938521192
28,20,5,ISIP_5,14,9999,9999,9999,3939021932
28,20,5,ISIP_5,15,9999,9999,9999,3939521628
28,20,5,ISIP_5,16,9999,9999,9999,3940021324
28,20,5,ISIP_5,17,9999,9999,9999,3940522064
28,20,5,ISIP_5,18,9999,9999,9999,3941021760
28,20,5,ISIP_5,19,9999,9999,9999,3941521456
28,20,5,ISIP_5,20,9999,9999,9999,3942021228
28,20,5,ISIP_5,21,9999,9999,9999,3942521968
28,20,5,ISIP_5,22,9999,9999,9999,3943021668
28,20,5,ISIP_5,23,9999,9999,9999,3943521360
28,20,5,ISIP_5,24,9999,9999,9999,3944022104
28,20,5,ISIP_5,25,9999,9999,9999,3944521800
28,20,5,ISIP_5,26,9999,9999,9999,3945021492
28,20,5,ISIP_5,27,9999,9999,9999,3945521264
28,20,5,ISIP_5,28,9999,9999,9999,3946022004
28,20,5,ISIP_5,29,9999,9999,9999,3946521696
28,20,5,ISIP_5,30,9999,9999,9999,3947021368
28,20,5,ISIP_5,31,9999,9999,9999,3947521136
28,20,5,ISIP_5,32,9999,9999,9999,3948021876
28,20,5,ISIP_5,33,9999,9999,9999,3948521572
28,20,5,ISIP_5,34,9999,9999,9999,3949021268
28,20,5,ISIP_5,35,9999,9999,9999,3949522008
28,20,5,ISIP_5,36,9999,9999,9999,3950021704
28,20,5,ISIP_5,37,9999,9999,9999,3950521400
28,20,5,ISIP_5,38,9999,9999,9999,3951021172
28,20,5,ISIP_5,39,9999,9999,9999,3951521912
28,20,5,ISIP_5,40,9999,9999,9999,3952021608
28,20,5,ISIP_5,41,9999,9999,9999,3952521296
28,20,5,ISIP_5,42,9999,9999,9999,3953022032
28,20,5,ISIP_5,43,9999,9999,9999,3953521724
28,20,5,ISIP_5,44,9999,9999,9999,3954021488
28,20,5,ISIP_5,45,9999,9999,9999,3954521180
28,20,5,ISIP_5,46,9999,9999,9999,3955021924
28,20,5,ISIP_5,47,9999,9999,9999,3955521616
28,20,5,ISIP_5,48,9999,9999,9999,3956021308
28,20,5,ISIP_5,49,9999,9999,9999,3956522044
28,20,5,ISIP_5,50,9999,9999,9999,3957021808
28,20,5,ISIP_5,51,9999,9999,9999,3957521500
28,20,5,ISIP_5,52,9999,9999,9999,3958021240
28,20,5,ISIP_5,53,9999,9999,9999,3958521976
28,20,5,ISIP_5,54,9999,9999,9999,3959021668
28,20,5,ISIP_5,55,9999,9999,9999,3959521356
28,20,5,ISIP_5,56,9999,9999,9999,3960022096
28,20,5,ISIP_5,57,9999,9999,9999,3960521780
28,20,5,ISIP_5,58,9999,9999,9999,3961021548
28,20,5,ISIP_5,59,9999,9999,9999,3961521240
28,20,5,ISIP_5,60,9999,9999,9999,3962021972
28,20,5,ISIP_5,61,9999,9999,9999,3962521660
28,20,5,ISIP_5,62,9999,9999,9999,3963021432
28,20,5,ISIP_5,63,9999,9999,9999,3963521124
28,20,5,ISIP_5,64,9999,9999,9999,3964021860
28,20,5,ISIP_5,65,9999,9999,9999,3964521552
28,20,5,ISIP_5,66,9999,9999,9999,3965021236
28,20,5,ISIP_5,67,9999,9999,9999,3965521980
28,20,5,ISIP_5,68,9999,9999,9999,3966021744
28,20,5,ISIP_5,69,9999,9999,9999,3966521436
28,20,5,ISIP_5,70,9999,9999,9999,3967021128
28,20,5,ISIP_5,71,9999,9999,9999,3967521856
28,20,5,ISIP_5,72,9999,9999,9999,3968021552
28,20,5,ISIP_5,73,9999,9999,9999,3968521288
28,20,5,ISIP_5,74,9999,9999,9999,3969022032
28,20,5,ISIP_5,75,9999,9999,9999,3969521716
28,20,5,ISIP_5,76,9999,9999,9999,3970021480
28,20,5,ISIP_5,77,9999,9999,9999,3970521168
28,20,5,ISIP_5,78,9999,9999,9999,3971021908
28,20,5,ISIP_5,79,9999,9999,9999,3971521600
28,20,5,ISIP_5,80,9999,9999,9999,3972021368
28,20,5,ISIP_5,81,9999,9999,9999,3972522104
28,20,5,ISIP_5,82,9999,9999,9999,3973021796
28,20,5,ISIP_5,83,9999,9999,9999,3973521484
28,20,5,ISIP_5,84,9999,9999,9999,3974021176
28,20,5,ISIP_5,85,9999,9999,9999,3974521912
28,20,5,ISIP_5,86,9999,9999,9999,3975021680
28,20,5,ISIP_5,87,9999,9999,9999,3975521372
28,20,5,ISIP_5,88,9999,9999,9999,3976022112
28,20,5,ISIP_5,89,9999,9999,9999,3976521800
28,20,5,ISIP_5,90,9999,9999,9999,3977021492
28,20,5,ISIP_5,91,9999,9999,9999,3977521256
28,20,5,ISIP_5,92,9999,9999,9999,3978021992
28,20,5,ISIP_5,93,9999,9999,9999,3978521688
28,20,5,ISIP_5,94,9999,9999,9999,3979021428
28,20,5,ISIP_5,95,9999,9999,9999,3979521120
28,20,5,ISIP_5,96,9999,9999,9999,3980021856
28,20,5,ISIP_5,97,9999,9999,9999,3980521548
28,20,5,ISIP_5,98,9999,9999,9999,3981021240
28,20,5,ISIP_5,99,9999,9999,9999,3981521976
28,20,5,ISIP_5,100,9999,9999,9999,3982021740
28,20,5,ISIP_5,101,9999,9999,9999,3982521432
28,20,5,ISIP_5,102,9999,9999,9999,3983021120
28,20,5,ISIP_5,103,9999,9999,9999,3983521852
28,20,5,ISIP_5,104,9999,9999,9999,3984021616
28,20,5,ISIP_5,105,9999,9999,9999,3984521308
28,20,5,ISIP_5,106,9999,9999,9999,3985022044
28,20,5,ISIP_5,107,9999,9999,9999,3985521736
28,20,5,ISIP_5,108,9999,9999,9999,3986021428
28,20,5,ISIP_5,109,9999,9999,9999,3986521196
28,20,5,ISIP_5,110,9999,9999,9999,3987021932
28,20,5,ISIP_5,111,9999,9999,9999,3987521628
28,20,5,ISIP_5,112,9999,9999,9999,3988021324
28,20,5,ISIP_5,113,9999,9999,9999,3988522060
28,20,5,ISIP_5,114,9999,9999,9999,3989021748
28,20,5,ISIP_5,115,9999,9999,9999,3989521516
28,20,5,ISIP_5,116,9999,9999,9999,3990021180
28,20,5,ISIP_5,117,9999,9999,9999,3990521920
28,20,5,ISIP_5,118,9999,9999,9999,3991021684
28,20,5,ISIP_5,119,9999,9999,9999,3991521376
28,20,5,ISIP_5,120,9999,9999,9999,3992022116
28,20,5,ISIP_5,121,9999,9999,9999,3992521804
28,20,5,ISIP_5,122,9999,9999,9999,3993021496
28,20,5,ISIP_5,123,9999,9999,9999,3993521260
28,20,5,ISIP_5,124,9999,9999,9999,3994021996
28,20,5,ISIP_5,125,9999,9999,9999,3994521688
28,20,5,ISIP_5,126,9999,9999,9999,3995021380
28,20,5,ISIP_5,127,9999,9999,9999,3995521144
28,20,5,ISIP_5,128,9999,9999,9999,3996021880
28,20,5,ISIP_5,129,9999,9999,9999,3996521572
28,20,5,ISIP_5,130,9999,9999,9999,3997021260
28,20,5,ISIP_5,131,9999,9999,9999,3997522000
28,20,5,ISIP_5,132,9999,9999,9999,3998021688
28,20,5,ISIP_5,133,9999,9999,9999,3998521456
28,20,5,ISIP_5,134,9999,9999,9999,3999021148
28,20,5,ISIP_5,135,9999,9999,9999,3999521884
28,20,5,ISIP_5,136,9999,9999,9999,4000021576
28,20,5,ISIP_5,137,9999,9999,9999,4000521316
28,20,5,ISIP_5,138,9999,9999,9999,4001022052
28,20,5,ISIP_5,139,9999,9999,9999,4001521744
28,20,5,ISIP_5,140,9999,9999,9999,4002021432
28,20,5,ISIP_5,141,9999,9999,9999,4002521200
28,20,5,ISIP_5,142,9999,9999,9999,4003021936
28,20,5,ISIP_5,143,9999,9999,9999,4003521628
28,20,5,ISIP_5,144,9999,9999,9999,4004021316
28,20,5,ISIP_5,145,9999,9999,9999,4004522056
28,20,5,ISIP_5,146,9999,9999,9999,4005021744
28,20,5,ISIP_5,147,9999,9999,9999,4005521508
28,20,5,ISIP_5,148,9999,9999,9999,4006021200
28,20,5,ISIP_5,149,9999,9999,9999,4006521936
28,20,5,ISIP_5,150,9999,9999,9999,4007021628
28,20,5,ISIP_5,151,9999,9999,9999,4007521392
28,20,5,ISIP_5,152,9999,9999,9999,4008022120
28,20,5,ISIP_5,153,9999,9999,9999,4008521844
28,20,5,ISIP_5,154,9999,9999,9999,4009021528
28,20,5,ISIP_5,155,9999,9999,9999,4009521220
28,20,5,ISIP_5,156,9999,9999,9999,4010021940
28,20,5,ISIP_5,157,9999,9999,9999,4010521708
28,20,5,ISIP_5,158,9999,9999,9999,4011021400
28,20,5,ISIP_5,159,9999,9999,9999,4011521136
28,21,3,ISIP_8,0,5,42,127,4036323644
28,21,3,ISIP_8,1,5,42,127,4037123476
28,21,3,ISIP_8,2,5,42,127,4037924152
28,21,3,ISIP_8,3,1,48,70,4037926896
28,21,3,ISIP_8,4,1,48,63,4038697072
28,21,3,ISIP_8,5,5,42,127,4038723808
28,21,3,ISIP_8,6,1,48,60,4039509964
28,21,3,ISIP_8,7,5,42,127,4039523912
28,21,3,ISIP_8,8,1,48,47,4040267216
28,21,3,ISIP_8,9,5,42,127,4040323644
28,21,3,ISIP_8,10,1,48,45,4041058796
28,21,3,ISIP_8,11,5,42,127,4041124056
28,21,3,ISIP_8,12,1,48,53,4041863692
28,21,3,ISIP_8,13,5,42,127,4041923864
28,21,3,ISIP_8,14,1,48,49,4042677184
28,21,3,ISIP_8,15,5,42,127,4042723672
28,21,3,ISIP_8,16,1,48,44,4043490832
28,21,3,ISIP_8,17,5,42,127,4043523556
28,21,3,ISIP_8,18,5,42,127,4044324216
28,21,3,ISIP_8,19,1,48,39,4044350072
28,21,3,ISIP_8,20,1,48,48,4045093840
28,21,3,ISIP_8,21,5,42,127,4045123944
28,21,3,ISIP_8,22,1,48,56,4045871880
28,21,3,ISIP_8,23,5,42,127,4045923676
28,21,3,ISIP_8,24,1,48,53,4046701984
28,21,3,ISIP_8,25,5,42,127,4046723336
28,21,3,ISIP_8,26,1,48,49,4047452948
28,21,3,ISIP_8,27,5,42,127,4047524412
28,21,3,ISIP_8,28,1,48,47,4048238700
28,21,3,ISIP_8,29,5,42,127,4048324000
28,21,3,ISIP_8,30,1,48,56,4049035812
28,21,3,ISIP_8,31,5,42,127,4049123656
28,21,3,ISIP_8,32,1,48,54,4049860828
28,21,3,ISIP_8,33,5,42,127,4049923392
28,21,3,ISIP_8,34,1,48,53,4050683376
28,21,3,ISIP_8,35,5,42,127,4050724344
28,21,3,ISIP_8,36,1,48,40,4051487172
28,21,3,ISIP_8,37,5,42,127,4051524004
28,21,3,ISIP_8,38,1,48,50,4052322540
28,21,3,ISIP_8,39,5,42,127,4052324260
28,21,3,ISIP_8,40,1,48,47,4053087612
28,21,3,ISIP_8,41,5,42,127,4053123548
28,21,3,ISIP_8,42,1,48,46,4053841864
28,21,3,ISIP_8,43,5,42,127,4053924176
28,21,3,ISIP_8,44,1,48,46,4054670316
28,21,3,ISIP_8,45,5,42,127,4054724060
28,21,3,ISIP_8,46,1,48,49,4055481272
28,21,3,ISIP_8,47,5,42,127,4055523572
28,21,3,ISIP_8,48,5,42,127,4056323384
28,21,3,ISIP_8,49,1,48,34,4056329668
28,21,3,ISIP_8,50,1,48,51,4057094728
28,21,3,ISIP_8,51,5,42,127,4057124108
28,21,3,ISIP_8,52,1,48,50,4057896504
28,21,3,ISIP_8,53,5,42,127,4057924064
28,21,3,ISIP_8,54,1,48,52,4058664376
28,21,3,ISIP_8,55,5,42,127,4058723872
28,21,3,ISIP_8,56,1,48,53,4059501504
28,21,3,ISIP_8,57,5,42,127,4059523384
28,21,3,ISIP_8,58,1,48,50,4060278276
28,21,3,ISIP_8,59,1,48,51,4061040604
28,21,3,ISIP_8,60,1,48,47,4061843028
28,21,3,ISIP_8,61,1,48,54,4062674248
28,21,3,ISIP_8,62,1,48,48,4063473828
28,21,3,ISIP_8,63,1,48,49,4064295124
28,21,3,ISIP_8,64,1,48,49,4065105400
28,21,3,ISIP_8,65,1,48,48,4065886280
28,21,3,ISIP_8,66,1,48,51,4066674336
28,21,3,ISIP_8,67,1,48,46,4067460380
28,21,3,ISIP_8,68,1,48,51,4068252704
28,21,3,ISIP_8,69,1,48,43,4069012112
28,21,3,ISIP_8,70,1,48,35,4069779380
28,21,3,ISIP_8,71,1,48,29,4070563480
28,21,3,ISIP_8,72,1,48,37,4071276440
28,21,3,ISIP_8,73,1,48,46,4072052384
28,21,3,ISIP_8,74,1,48,56,4072801476
28,21,3,ISIP_8,75,1,48,48,4073593880
28,21,3,ISIP_8,76,1,48,48,4074366156
28,21,3,ISIP_8,77,1,48,51,4075113972
28,21,3,ISIP_8,78,1,48,59,4075875852
28,21,3,ISIP_8,79,1,48,52,4076657708
28,21,3,ISIP_8,80,1,48,44,4077456012
28,21,3,ISIP_8,81,1,48,48,4078196128
28,21,3,ISIP_8,82,1,48,53,4078978132
28,21,3,ISIP_8,83,1,48,51,4079747568
28,21,3,ISIP_8,84,1,48,50,4080544080
28,21,3,ISIP_8,85,1,48,52,4081322044
28,21,3,ISIP_8,86,1,48,50,4082096040
28,21,3,ISIP_8,87,1,48,51,4082826584
28,21,3,ISIP_8,88,1,48,17,4082948704
28,21,3,ISIP_8,89,1,48,53,4083592852
28,21,3,ISIP_8,90,1,48,51,4084365280
28,21,3,ISIP_8,91,1,48,48,4085118476
28,21,3,ISIP_8,92,1,48,54,4085875724
28,21,3,ISIP_8,93,1,48,46,4086630724
28,21,3,ISIP_8,94,1,48,50,4087369864
28,21,3,ISIP_8,95,1,48,41,4088096216
28,21,3,ISIP_8,96,1,48,40,4088843212
28,21,3,ISIP_8,97,1,48,43,4089600732
28,21,3,ISIP_8,98,1,48,40,4090392480
28,21,3,ISIP_8,99,1,48,40,4091164240
28,21,3,ISIP_8,100,1,48,47,4091904552
28,21,3,ISIP_8,101,1,48,33,4092678404
28,21,3,ISIP_8,102,1,48,41,4093437636
28,21,3,ISIP_8,103,1,48,40,4094199740
28,21,3,ISIP_8,104,1,48,39,4094956388
28,21,3,ISIP_8,105,1,48,48,4095699200
28,21,3,ISIP_8,106,1,48,37,4096500344
28,21,3,ISIP_8,107,1,48,48,4097265220
28,21,3,ISIP_8,108,1,48,34,4098020520
28,21,3,ISIP_8,109,1,48,42,4098772524
28,21,3,ISIP_8,110,1,48,42,4099522668
28,21,3,ISIP_8,111,1,48,42,4100279068
28,21,3,ISIP_8,112,1,48,29,4101037140
28,21,3,ISIP_8,113,1,48,37,4101813076
28,21,3,ISIP_8,114,1,48,43,4102512204
28,21,3,ISIP_8,115,1,48,41,4103277604
28,21,3,ISIP_8,116,1,48,47,4104047336
28,21,3,ISIP_8,117,1,48,45,4104780792
28,21,3,ISIP_8,118,1,48,44,4105539460
28,21,3,ISIP_8,119,1,48,48,4106270448
28,21,3,ISIP_8,120,1,48,44,4107005384
28,21,3,ISIP_8,121,1,48,41,4107754396
28,21,3,ISIP_8,122,1,48,45,4108523088
28,21,3,ISIP_8,123,1,48,48,4109259088
28,21,3,ISIP_8,124,1,48,52,4110019396
28,21,3,ISIP_8,125,1,48,48,4110752480
28,21,3,ISIP_8,126,1,48,45,4111528648
28,21,3,ISIP_8,127,1,48,36,4112272720
28,21,3,ISIP_8,128,1,48,48,4113012456
28,21,3,ISIP_8,129,1,48,45,4113754224
28,21,3,ISIP_8,130,1,48,48,4114469280
28,21,3,ISIP_8,131,1,48,46,4115232888
28,21,3,ISIP_8,132,1,48,48,4115999328
28,21,3,ISIP_8,133,1,48,45,4116731044
28,21,3,ISIP_8,134,1,48,34,4117529152
28,21,3,ISIP_8,135,1,48,38,4118278244
28,21,3,ISIP_8,136,1,48,31,4119043616
28,21,3,ISIP_8,137,1,48,38,4119832372
28,21,3,ISIP_8,138,1,48,34,4120637716
28,21,3,ISIP_8,139,1,48,44,4121383068
28,21,3,ISIP_8,140,1,48,47,4122117420
28,21,3,ISIP_8,141,1,48,39,4122870672
28,21,3,ISIP_8,142,1,48,39,4123617748
28,21,3,ISIP_8,143,1,48,40,4124376192
28,21,3,ISIP_8,144,1,48,37,4125061244
28,21,3,ISIP_8,145,1,48,44,4125792308
28,21,3,ISIP_8,146,1,48,47,4126544464
28,21,3,ISIP_8,147,1,48,36,4127281884
28,21,3,ISIP_8,148,1,48,27,4127993328
28,21,3,ISIP_8,149,1,48,38,4128710032
28,21,3,ISIP_8,150,1,48,29,4129465328
28,21,3,ISIP_8,151,1,48,40,4130183380
28,21,3,ISIP_8,152,1,48,44,4130941296
28,21,3,ISIP_8,153,1,48,36,4131643492
28,21,3,ISIP_8,154,1,48,33,4132393028
28,21,3,ISIP_8,155,1,48,42,4133140320
28,21,3,ISIP_8,156,1,48,46,4133852800
28,21,3,ISIP_8,157,1,48,51,4134564944
28,21,3,ISIP_8,158,1,48,49,4135307072
28,21,3,ISIP_8,159,1,48,43,4136049656
28,21,3,ISIP_8,160,1,48,51,4136811016
28,21,3,ISIP_8,161,1,48,49,4137546944
28,21,3,ISIP_8,162,1,48,47,4138236244
28,21,3,ISIP_8,163,1,48,51,4138965592
28,21,3,ISIP_8,164,1,48,47,4139710416
28,21,3,ISIP_8,165,1,48,44,4140451056
28,21,3,ISIP_8,166,1,48,36,4141268884
28,21,3,ISIP_8,167,1,48,41,4142017752
28,21,3,ISIP_8,168,1,48,33,4142726380
28,21,3,ISIP_8,169,1,48,42,4143477996
28,21,3,ISIP_8,170,1,48,33,4144221776
28,21,3,ISIP_8,171,1,48,48,4144947308
28,21,3,ISIP_8,172,1,48,46,4145711804
28,21,3,ISIP_8,173,1,48,46,4146521928
28,21,3,ISIP_8,174,1,48,41,4147266912
28,21,3,ISIP_8,175,1,48,44,4148001564
28,21,3,ISIP_8,176,1,48,46,4148737096
28,21,3,ISIP_8,177,1,48,30,4149501816
28,21,3,ISIP_8,178,1,48,39,4150231760
28,21,3,ISIP_8,179,1,48,42,4150983020
28,21,3,ISIP_8,180,1,48,46,4151764572
28,21,3,ISIP_8,181,1,48,40,4152515308
28,21,3,ISIP_8,182,1,48,40,4153291924
28,21,3,ISIP_8,183,1,48,45,4154005336
28,21,3,ISIP_8,184,1,48,44,4154740068
28,21,3,ISIP_8,185,1,48,47,4155462140
28,21,3,ISIP_8,186,1,48,38,4156203680
28,21,3,ISIP_8,0,9999,9999,9999,4036321356
28,21,3,ISIP_8,1,9999,9999,9999,4037121112
28,21,3,ISIP_8,2,9999,9999,9999,4037921864
28,21,3,ISIP_8,3,9999,9999,9999,4038721592
28,21,3,ISIP_8,4,9999,9999,9999,4039521328
28,21,3,ISIP_8,5,9999,9999,9999,4040321132
28,21,3,ISIP_8,6,9999,9999,9999,4041121840
28,21,3,ISIP_8,7,9999,9999,9999,4041921648
28,21,3,ISIP_8,8,9999,9999,9999,4042721380
28,21,3,ISIP_8,9,9999,9999,9999,4043521116
28,21,3,ISIP_8,10,9999,9999,9999,4044321852
28,21,3,ISIP_8,11,9999,9999,9999,4045121656
28,21,3,ISIP_8,12,9999,9999,9999,4045921388
28,21,3,ISIP_8,13,9999,9999,9999,4046721124
28,21,3,ISIP_8,14,9999,9999,9999,4047521900
28,21,3,ISIP_8,15,9999,9999,9999,4048321636
28,21,3,ISIP_8,16,9999,9999,9999,4049121368
28,21,3,ISIP_8,17,9999,9999,9999,4049921100
28,21,3,ISIP_8,18,9999,9999,9999,4050721908
28,21,3,ISIP_8,19,9999,9999,9999,4051521644
28,21,3,ISIP_8,20,9999,9999,9999,4052321380
28,21,3,ISIP_8,21,9999,9999,9999,4053121108
28,21,3,ISIP_8,22,9999,9999,9999,4053921888
28,21,3,ISIP_8,23,9999,9999,9999,4054721620
28,21,3,ISIP_8,24,9999,9999,9999,4055521356
28,21,3,ISIP_8,25,9999,9999,9999,4056321096
28,21,3,ISIP_8,26,9999,9999,9999,4057121892
28,21,3,ISIP_8,27,9999,9999,9999,4057921624
28,21,3,ISIP_8,28,9999,9999,9999,4058721360
28,21,3,ISIP_8,29,9999,9999,9999,4059521092
28,21,3,ISIP_8,30,9999,9999,9999,4060321872
28,21,3,ISIP_8,31,9999,9999,9999,4061121600
28,21,3,ISIP_8,32,9999,9999,9999,4061921332
28,21,3,ISIP_8,33,9999,9999,9999,4062721136
28,21,3,ISIP_8,34,9999,9999,9999,4063521860
28,21,3,ISIP_8,35,9999,9999,9999,4064321588
28,21,3,ISIP_8,36,9999,9999,9999,4065121392
28,21,3,ISIP_8,37,9999,9999,9999,4065921120
28,21,3,ISIP_8,38,9999,9999,9999,4066721896
28,21,3,ISIP_8,39,9999,9999,9999,4067521628
28,21,3,ISIP_8,40,9999,9999,9999,4068321356
28,21,3,ISIP_8,41,9999,9999,9999,4069121068
28,21,3,ISIP_8,42,9999,9999,9999,4069921868
28,21,3,ISIP_8,43,9999,9999,9999,4070721600
28,21,3,ISIP_8,44,9999,9999,9999,4071521328
28,21,3,ISIP_8,45,9999,9999,9999,4072321132
28,21,3,ISIP_8,46,9999,9999,9999,4073121908
28,21,3,ISIP_8,47,9999,9999,9999,4073921636
28,21,3,ISIP_8,48,9999,9999,9999,4074721364
28,21,3,ISIP_8,49,9999,9999,9999,4075521096
28,21,3,ISIP_8,50,9999,9999,9999,4076321896
28,21,3,ISIP_8,51,9999,9999,9999,4077121624
28,21,3,ISIP_8,52,9999,9999,9999,4077921352
28,21,3,ISIP_8,53,9999,9999,9999,4078721084
28,21,3,ISIP_8,54,9999,9999,9999,4079521856
28,21,3,ISIP_8,55,9999,9999,9999,4080321588
28,21,3,ISIP_8,56,9999,9999,9999,4081121392
28,21,3,ISIP_8,57,9999,9999,9999,4081921120
28,21,3,ISIP_8,58,9999,9999,9999,4082721848
28,21,3,ISIP_8,59,9999,9999,9999,4083521628
28,21,3,ISIP_8,60,9999,9999,9999,4084321356
28,21,3,ISIP_8,61,9999,9999,9999,4085121084
28,21,3,ISIP_8,62,9999,9999,9999,4085921860
28,21,3,ISIP_8,63,9999,9999,9999,4086721588
28,21,3,ISIP_8,64,9999,9999,9999,4087521376
28,21,3,ISIP_8,65,9999,9999,9999,4088321108
28,21,3,ISIP_8,66,9999,9999,9999,4089121908
28,21,3,ISIP_8,67,9999,9999,9999,4089921636
28,21,3,ISIP_8,68,9999,9999,9999,4090721368
28,21,3,ISIP_8,69,9999,9999,9999,4091521096
28,21,3,ISIP_8,70,9999,9999,9999,4092321872
28,21,3,ISIP_8,71,9999,9999,9999,4093121652
28,21,3,ISIP_8,72,9999,9999,9999,4093921380
28,21,3,ISIP_8,73,9999,9999,9999,4094721108
28,21,3,ISIP_8,74,9999,9999,9999,4095521908
28,21,3,ISIP_8,75,9999,9999,9999,4096321636
28,21,3,ISIP_8,76,9999,9999,9999,4097121364
28,21,3,ISIP_8,77,9999,9999,9999,4097921092
28,21,3,ISIP_8,78,9999,9999,9999,4098721868
28,21,3,ISIP_8,79,9999,9999,9999,4099521600
28,21,3,ISIP_8,80,9999,9999,9999,4100321392
28,21,3,ISIP_8,81,9999,9999,9999,4101121124
28,21,3,ISIP_8,82,9999,9999,9999,4101921908
28,21,3,ISIP_8,83,9999,9999,9999,4102721636
28,21,3,ISIP_8,84,9999,9999,9999,4103521368
28,21,3,ISIP_8,85,9999,9999,9999,4104321096
28,21,3,ISIP_8,86,9999,9999,9999,4105121872
28,21,3,ISIP_8,87,9999,9999,9999,4105921600
28,21,3,ISIP_8,88,9999,9999,9999,4106721332
28,21,3,ISIP_8,89,9999,9999,9999,4107521136
28,21,3,ISIP_8,90,9999,9999,9999,4108321864
28,21,3,ISIP_8,91,9999,9999,9999,4109121592
28,21,3,ISIP_8,92,9999,9999,9999,4109921396
28,21,3,ISIP_8,93,9999,9999,9999,4110721124
28,21,3,ISIP_8,94,9999,9999,9999,4111521900
28,21,3,ISIP_8,95,9999,9999,9999,4112321624
28,21,3,ISIP_8,96,9999,9999,9999,4113121340
28,21,3,ISIP_8,97,9999,9999,9999,4113921144
28,21,3,ISIP_8,98,9999,9999,9999,4114721872
28,21,3,ISIP_8,99,9999,9999,9999,4115521604
28,21,3,ISIP_8,100,9999,9999,9999,4116321332
28,21,3,ISIP_8,101,9999,9999,9999,4117121136
28,21,3,ISIP_8,102,9999,9999,9999,4117921912
28,21,3,ISIP_8,103,9999,9999,9999,4118721640
28,21,3,ISIP_8,104,9999,9999,9999,4119521372
28,21,3,ISIP_8,105,9999,9999,9999,4120321100
28,21,3,ISIP_8,106,9999,9999,9999,4121121904
28,21,3,ISIP_8,107,9999,9999,9999,4121921632
28,21,3,ISIP_8,108,9999,9999,9999,4122721360
28,21,3,ISIP_8,109,9999,9999,9999,4123521092
28,21,3,ISIP_8,110,9999,9999,9999,4124321868
28,21,3,ISIP_8,111,9999,9999,9999,4125121592
28,21,3,ISIP_8,112,9999,9999,9999,4125921380
28,21,3,ISIP_8,113,9999,9999,9999,4126721108
28,21,3,ISIP_8,114,9999,9999,9999,4127521908
28,21,3,ISIP_8,115,9999,9999,9999,4128321636
28,21,3,ISIP_8,116,9999,9999,9999,4129121368
28,21,3,ISIP_8,117,9999,9999,9999,4129921096
28,21,3,ISIP_8,118,9999,9999,9999,4130721872
28,21,3,ISIP_8,119,9999,9999,9999,4131521600
28,21,3,ISIP_8,120,9999,9999,9999,4132321328
28,21,3,ISIP_8,121,9999,9999,9999,4133121132
28,21,3,ISIP_8,122,9999,9999,9999,4133921852
28,21,3,ISIP_8,123,9999,9999,9999,4134721640
28,21,3,ISIP_8,124,9999,9999,9999,4135521368
28,21,3,ISIP_8,125,9999,9999,9999,4136321096
28,21,3,ISIP_8,126,9999,9999,9999,4137121872
28,21,3,ISIP_8,127,9999,9999,9999,4137921600
28,21,3,ISIP_8,128,9999,9999,9999,4138721332
28,21,3,ISIP_8,129,9999,9999,9999,4139521136
28,21,3,ISIP_8,130,9999,9999,9999,4140321860
28,21,3,ISIP_8,131,9999,9999,9999,4141121592
28,21,3,ISIP_8,132,9999,9999,9999,4141921392
28,21,3,ISIP_8,133,9999,9999,9999,4142721124
28,21,3,ISIP_8,134,9999,9999,9999,4143521892
28,21,3,ISIP_8,135,9999,9999,9999,4144321604
28,21,3,ISIP_8,136,9999,9999,9999,4145121336
28,21,3,ISIP_8,137,9999,9999,9999,4145921136
28,21,3,ISIP_8,138,9999,9999,9999,4146721864
28,21,3,ISIP_8,139,9999,9999,9999,4147521596
28,21,3,ISIP_8,140,9999,9999,9999,4148321400
28,21,3,ISIP_8,141,9999,9999,9999,4149121128
28,21,3,ISIP_8,142,9999,9999,9999,4149921904
28,21,3,ISIP_8,143,9999,9999,9999,4150721632
28,21,3,ISIP_8,144,9999,9999,9999,4151521364
28,21,3,ISIP_8,145,9999,9999,9999,4152321092
28,21,3,ISIP_8,146,9999,9999,9999,4153121892
28,21,3,ISIP_8,147,9999,9999,9999,4153921620
28,21,3,ISIP_8,148,9999,9999,9999,4154721348
28,21,3,ISIP_8,149,9999,9999,9999,4155521072
28,22,11,Pattern_Practice,0,5,42,127,4263691788
28,22,11,Pattern_Practice,1,5,42,127,4264192252
28,22,11,Pattern_Practice,2,5,42,127,4264691944
28,22,11,Pattern_Practice,3,5,42,127,4265192180
28,22,11,Pattern_Practice,4,5,42,127,4265691600
28,22,11,Pattern_Practice,5,5,42,127,4266192364
28,22,11,Pattern_Practice,6,5,42,127,4266691928
28,22,11,Pattern_Practice,7,5,42,127,4267191796
28,22,11,Pattern_Practice,8,5,42,127,4267692336
28,22,11,Pattern_Practice,9,1,48,50,4267942164
28,22,11,Pattern_Practice,10,5,42,127,4268192104
28,22,11,Pattern_Practice,11,1,48,56,4268449484
28,22,11,Pattern_Practice,12,5,42,127,4268691876
28,22,11,Pattern_Practice,13,1,48,57,4268947312
28,22,11,Pattern_Practice,14,5,42,127,4269191496
28,22,11,Pattern_Practice,15,1,48,61,4269465184
28,22,11,Pattern_Practice,16,5,42,127,4269692236
28,22,11,Pattern_Practice,17,1,48,59,4269980736
28,22,11,Pattern_Practice,18,5,42,127,4270192080
28,22,11,Pattern_Practice,19,1,48,60,4270496884
28,22,11,Pattern_Practice,20,5,42,127,4270691624
28,22,11,Pattern_Practice,21,1,48,55,4270995304
28,22,11,Pattern_Practice,22,5,42,127,4271192292
28,22,11,Pattern_Practice,23,1,48,57,4271555888
28,22,11,Pattern_Practice,24,5,42,127,4271692136
28,22,11,Pattern_Practice,25,1,48,55,4272161516
28,22,11,Pattern_Practice,26,1,38,52,4272190160
28,22,11,Pattern_Practice,27,5,42,127,4272193096
28,22,11,Pattern_Practice,28,1,48,51,4272681952
28,22,11,Pattern_Practice,29,5,42,127,4272691640
28,22,11,Pattern_Practice,30,1,48,51,4273184568
28,22,11,Pattern_Practice,31,5,42,127,4273192456
28,22,11,Pattern_Practice,32,1,38,50,4273225716
28,22,11,Pattern_Practice,33,1,48,45,4273559368
28,22,11,Pattern_Practice,34,5,42,127,4273691952
28,22,11,Pattern_Practice,35,1,48,52,4274186396
28,22,11,Pattern_Practice,36,5,42,127,4274191664
28,22,11,Pattern_Practice,37,5,42,127,4274691512
28,22,11,Pattern_Practice,38,1,48,40,4274694336
28,22,11,Pattern_Practice,39,1,48,49,4275181120
28,22,11,Pattern_Practice,40,5,42,127,4275192472
28,22,11,Pattern_Practice,41,1,48,51,4275672060
28,22,11,Pattern_Practice,42,5,42,127,4275691992
28,22,11,Pattern_Practice,43,1,48,56,4276141012
28,22,11,Pattern_Practice,44,5,42,127,4276191536
28,22,11,Pattern_Practice,45,1,48,53,4276643180
28,22,11,Pattern_Practice,46,5,42,127,4276692500
28,22,11,Pattern_Practice,47,1,48,55,4277146460
28,22,11,Pattern_Practice,48,5,42,127,4277192048
28,22,11,Pattern_Practice,49,1,48,48,4277520344
28,22,11,Pattern_Practice,50,1,48,43,4277644568
28,22,11,Pattern_Practice,51,5,42,127,4277691648
28,22,11,Pattern_Practice,52,1,48,55,4278161688
28,22,11,Pattern_Practice,53,5,42,127,4278191492
28,22,11,Pattern_Practice,54,1,48,48,4278553228
28,22,11,Pattern_Practice,55,5,42,127,4278692292
28,22,11,Pattern_Practice,56,1,48,52,4278700648
28,22,11,Pattern_Practice,57,1,48,58,4279164052
28,22,11,Pattern_Practice,58,5,42,127,4279192056
28,22,11,Pattern_Practice,59,1,48,47,4279537688
28,22,11,Pattern_Practice,60,5,42,127,4279691660
28,22,11,Pattern_Practice,61,1,48,45,4279739956
28,22,11,Pattern_Practice,62,1,48,54,4280183756
28,22,11,Pattern_Practice,63,5,42,127,4280192320
28,22,11,Pattern_Practice,64,1,48,53,4280671712
28,22,11,Pattern_Practice,65,5,42,127,4280692240
28,22,11,Pattern_Practice,66,1,48,53,4281160484
28,22,11,Pattern_Practice,67,1,38,36,4281191920
28,22,11,Pattern_Practice,68,5,42,127,4281194084
28,22,11,Pattern_Practice,69,1,48,50,4281551952
28,22,11,Pattern_Practice,70,5,42,127,4281691492
28,22,11,Pattern_Practice,71,1,48,39,4281708972
28,22,11,Pattern_Practice,72,1,48,56,4282152028
28,22,11,Pattern_Practice,73,5,42,127,4282192300
28,22,11,Pattern_Practice,74,1,38,35,4282205068
28,22,11,Pattern_Practice,75,1,48,51,4282522332
28,22,11,Pattern_Practice,76,5,42,127,4282692020
28,22,11,Pattern_Practice,77,1,48,44,4282706284
28,22,11,Pattern_Practice,78,1,48,55,4283146868
28,22,11,Pattern_Practice,79,1,38,39,4283182456
28,22,11,Pattern_Practice,80,5,42,127,4283191612
28,22,11,Pattern_Practice,81,1,48,47,4283518512
28,22,11,Pattern_Practice,82,1,48,38,4283657716
28,22,11,Pattern_Practice,83,5,42,127,4283692380
28,22,11,Pattern_Practice,84,1,48,53,4284118340
28,22,11,Pattern_Practice,85,1,38,38,4284181336
28,22,11,Pattern_Practice,86,5,42,127,4284192216
28,22,11,Pattern_Practice,87,1,48,46,4284591224
28,22,11,Pattern_Practice,88,5,42,127,4284691868
28,22,11,Pattern_Practice,89,1,48,45,4284740616
28,22,11,Pattern_Practice,90,1,48,57,4285161952
28,22,11,Pattern_Practice,91,1,38,43,4285191556
28,22,11,Pattern_Practice,92,5,42,127,4285193644
28,22,11,Pattern_Practice,93,5,42,127,4285692344
28,22,11,Pattern_Practice,94,1,48,49,4285695468
28,22,11,Pattern_Practice,95,1,48,57,4286163848
28,22,11,Pattern_Practice,96,1,38,35,4286189800
28,22,11,Pattern_Practice,97,5,42,127,4286192288
28,22,11,Pattern_Practice,98,5,42,127,4286691588
28,22,11,Pattern_Practice,99,1,48,54,4286699340
28,22,11,Pattern_Practice,100,1,48,57,4287174484
28,22,11,Pattern_Practice,101,1,38,43,4287189800
28,22,11,Pattern_Practice,102,5,42,127,4287192304
28,22,11,Pattern_Practice,103,1,48,54,4287647432
28,22,11,Pattern_Practice,104,5,42,127,4287692120
28,22,11,Pattern_Practice,105,1,48,48,4288044356
28,22,11,Pattern_Practice,106,1,38,23,4288186220
28,22,11,Pattern_Practice,107,5,42,127,4288191940
28,22,11,Pattern_Practice,108,1,48,57,4288426720
28,22,11,Pattern_Practice,109,5,42,127,4288691472
28,22,11,Pattern_Practice,110,1,48,57,4289126748
28,22,11,Pattern_Practice,111,5,42,127,4289192228
28,22,11,Pattern_Practice,112,1,48,50,4289614548
28,22,11,Pattern_Practice,113,5,42,127,4289691924
28,22,11,Pattern_Practice,114,1,48,51,4290070408
28,22,11,Pattern_Practice,115,5,42,127,4290191900
28,22,11,Pattern_Practice,116,1,38,36,4290197716
28,22,11,Pattern_Practice,117,1,48,56,4290430260
28,22,11,Pattern_Practice,118,5,42,127,4290691424
28,22,11,Pattern_Practice,119,1,48,60,4291147120
28,22,11,Pattern_Practice,120,5,42,127,4291192104
28,22,11,Pattern_Practice,121,1,48,43,4291640680
28,22,11,Pattern_Practice,122,5,42,127,4291691876
28,22,11,Pattern_Practice,123,1,48,54,4292076848
28,22,11,Pattern_Practice,124,5,42,127,4292191776
28,22,11,Pattern_Practice,125,1,38,37,4292212400
28,22,11,Pattern_Practice,126,1,48,55,4292433504
28,22,11,Pattern_Practice,127,5,42,127,4292692276
28,22,11,Pattern_Practice,128,1,48,61,4293133760
28,22,11,Pattern_Practice,129,1,38,46,4293150712
28,22,11,Pattern_Practice,130,5,42,127,4293191964
28,22,11,Pattern_Practice,131,1,48,54,4293663248
28,22,11,Pattern_Practice,132,5,42,127,4293691856
28,22,11,Pattern_Practice,133,1,48,53,4294098740
28,22,11,Pattern_Practice,134,5,42,127,4294191624
28,22,11,Pattern_Practice,135,1,38,40,4294233996
28,22,11,Pattern_Practice,136,1,48,54,4294490484
28,22,11,Pattern_Practice,137,5,42,127,4294692256
28,22,11,Pattern_Practice,138,1,48,57,194416
28,22,11,Pattern_Practice,139,1,38,41,210408
28,22,11,Pattern_Practice,140,5,42,127,224504
28,22,11,Pattern_Practice,141,1,48,46,687608
28,22,11,Pattern_Practice,142,5,42,127,724392
28,22,11,Pattern_Practice,143,1,48,55,1091784
28,22,11,Pattern_Practice,144,5,42,127,1225192
28,22,11,Pattern_Practice,145,1,38,47,1241024
28,22,11,Pattern_Practice,146,1,48,52,1525264
28,22,11,Pattern_Practice,147,5,42,127,1724768
28,22,11,Pattern_Practice,148,1,48,59,2194452
28,22,11,Pattern_Practice,149,1,38,47,2219412
28,22,11,Pattern_Practice,150,5,42,127,2224456
28,22,11,Pattern_Practice,151,1,48,55,2685344
28,22,11,Pattern_Practice,152,5,42,127,2724348
28,22,11,Pattern_Practice,153,1,48,52,3118916
28,22,11,Pattern_Practice,154,5,42,127,3225224
28,22,11,Pattern_Practice,155,1,38,34,3287312
28,22,11,Pattern_Practice,156,1,48,54,3508320
28,22,11,Pattern_Practice,157,5,42,127,3724672
28,22,11,Pattern_Practice,158,1,48,50,4222644
28,22,11,Pattern_Practice,159,5,42,127,4224384
28,22,11,Pattern_Practice,160,1,38,44,4237976
28,22,11,Pattern_Practice,161,1,48,46,4552948
28,22,11,Pattern_Practice,162,5,42,127,4725300
28,22,11,Pattern_Practice,163,1,48,44,5046484
28,22,11,Pattern_Practice,164,1,38,34,5181648
28,22,11,Pattern_Practice,165,5,42,127,5224688
28,22,11,Pattern_Practice,166,1,48,48,5427308
28,22,11,Pattern_Practice,167,5,42,127,5724520
28,22,11,Pattern_Practice,168,1,48,49,6196144
28,22,11,Pattern_Practice,169,5,42,127,6224228
28,22,11,Pattern_Practice,170,1,38,40,6227944
28,22,11,Pattern_Practice,171,1,48,30,6691168
28,22,11,Pattern_Practice,172,5,42,127,6725156
28,22,11,Pattern_Practice,173,1,48,54,7102352
28,22,11,Pattern_Practice,174,1,38,40,7220736
28,22,11,Pattern_Practice,175,5,42,127,7224660
28,22,11,Pattern_Practice,176,1,48,59,7481724
28,22,11,Pattern_Practice,177,5,42,127,7724412
28,22,11,Pattern_Practice,178,1,48,22,7963844
28,22,11,Pattern_Practice,179,5,42,127,8225304
28,22,11,Pattern_Practice,180,1,48,52,8295216
28,22,11,Pattern_Practice,0,9999,9999,9999,4263689276
28,22,11,Pattern_Practice,1,9999,9999,9999,4264190036
28,22,11,Pattern_Practice,2,9999,9999,9999,4264689732
28,22,11,Pattern_Practice,3,9999,9999,9999,4265189448
28,22,11,Pattern_Practice,4,9999,9999,9999,4265689164
28,22,11,Pattern_Practice,5,9999,9999,9999,4266189928
28,22,11,Pattern_Practice,6,9999,9999,9999,4266689640
28,22,11,Pattern_Practice,7,9999,9999,9999,4267189360
28,22,11,Pattern_Practice,8,9999,9999,9999,4267690048
28,22,11,Pattern_Practice,9,9999,9999,9999,4268189816
28,22,11,Pattern_Practice,10,9999,9999,9999,4268689512
28,22,11,Pattern_Practice,11,9999,9999,9999,4269189208
28,22,11,Pattern_Practice,12,9999,9999,9999,4269689948
28,22,11,Pattern_Practice,13,9999,9999,9999,4270189644
28,22,11,Pattern_Practice,14,9999,9999,9999,4270689336
28,22,11,Pattern_Practice,15,9999,9999,9999,4271190080
28,22,11,Pattern_Practice,16,9999,9999,9999,4271689848
28,22,11,Pattern_Practice,17,9999,9999,9999,4272189556
28,22,11,Pattern_Practice,18,9999,9999,9999,4272689204
28,22,11,Pattern_Practice,19,9999,9999,9999,4273189944
28,22,11,Pattern_Practice,20,9999,9999,9999,4273689664
28,22,11,Pattern_Practice,21,9999,9999,9999,4274189376
28,22,11,Pattern_Practice,22,9999,9999,9999,4274689076
28,22,11,Pattern_Practice,23,9999,9999,9999,4275189860
28,22,11,Pattern_Practice,24,9999,9999,9999,4275689556
28,22,11,Pattern_Practice,25,9999,9999,9999,4276189252
28,22,11,Pattern_Practice,26,9999,9999,9999,4276689992
28,22,11,Pattern_Practice,27,9999,9999,9999,4277189688
28,22,11,Pattern_Practice,28,9999,9999,9999,4277689432
28,22,11,Pattern_Practice,29,9999,9999,9999,4278189132
28,22,11,Pattern_Practice,30,9999,9999,9999,4278689856
28,22,11,Pattern_Practice,31,9999,9999,9999,4279189620
28,22,11,Pattern_Practice,32,9999,9999,9999,4279689300
28,22,11,Pattern_Practice,33,9999,9999,9999,4280190032
28,22,11,Pattern_Practice,34,9999,9999,9999,4280689728
28,22,11,Pattern_Practice,35,9999,9999,9999,4281189496
28,22,11,Pattern_Practice,36,9999,9999,9999,4281689204
28,22,11,Pattern_Practice,37,9999,9999,9999,4282189936
28,22,11,Pattern_Practice,38,9999,9999,9999,4282689656
28,22,11,Pattern_Practice,39,9999,9999,9999,4283189324
28,22,11,Pattern_Practice,40,9999,9999,9999,4283690092
28,22,11,Pattern_Practice,41,9999,9999,9999,4284189780
28,22,11,Pattern_Practice,42,9999,9999,9999,4284689508
28,22,11,Pattern_Practice,43,9999,9999,9999,4285189196
28,22,11,Pattern_Practice,44,9999,9999,9999,4285689908
28,22,11,Pattern_Practice,45,9999,9999,9999,4286189664
28,22,11,Pattern_Practice,46,9999,9999,9999,4286689376
28,22,11,Pattern_Practice,47,9999,9999,9999,4287190092
28,22,11,Pattern_Practice,48,9999,9999,9999,4287689832
28,22,11,Pattern_Practice,49,9999,9999,9999,4288189504
28,22,11,Pattern_Practice,50,9999,9999,9999,4288689260
28,22,11,Pattern_Practice,51,9999,9999,9999,4289189940
28,22,11,Pattern_Practice,52,9999,9999,9999,4289689712
28,22,11,Pattern_Practice,53,9999,9999,9999,4290189388
28,22,11,Pattern_Practice,54,9999,9999,9999,4290689136
28,22,11,Pattern_Practice,55,9999,9999,9999,4291189816
28,22,11,Pattern_Practice,56,9999,9999,9999,4291689588
28,22,11,Pattern_Practice,57,9999,9999,9999,4292189268
28,22,11,Pattern_Practice,58,9999,9999,9999,4292689988
28,22,11,Pattern_Practice,59,9999,9999,9999,4293189752
28,22,11,Pattern_Practice,60,9999,9999,9999,4293689420
28,22,11,Pattern_Practice,61,9999,9999,9999,4294189116
28,22,11,Pattern_Practice,62,9999,9999,9999,4294689892
28,22,11,Pattern_Practice,63,9999,9999,9999,222288
28,22,11,Pattern_Practice,64,9999,9999,9999,722032
28,22,11,Pattern_Practice,65,9999,9999,9999,1222756
28,22,11,Pattern_Practice,66,9999,9999,9999,1722480
28,22,11,Pattern_Practice,67,9999,9999,9999,2222172
28,22,11,Pattern_Practice,68,9999,9999,9999,2721912
28,22,11,Pattern_Practice,69,9999,9999,9999,3222636
28,22,11,Pattern_Practice,70,9999,9999,9999,3722312
28,22,11,Pattern_Practice,71,9999,9999,9999,4222036
28,22,11,Pattern_Practice,72,9999,9999,9999,4722788
28,22,11,Pattern_Practice,73,9999,9999,9999,5222476
28,22,11,Pattern_Practice,74,9999,9999,9999,5722232
28,22,11,Pattern_Practice,75,9999,9999,9999,6221940
28,22,11,Pattern_Practice,76,9999,9999,9999,6722648
28,22,11,Pattern_Practice,77,9999,9999,9999,7222372
28,22,11,Pattern_Practice,78,9999,9999,9999,7722048
28,22,11,Pattern_Practice,79,9999,9999,9999,8222792
28,23,13,Improv_Metronome,0,5,42,127,31569140
28,23,13,Improv_Metronome,1,5,42,127,32069904
28,23,13,Improv_Metronome,2,5,42,127,32569916
28,23,13,Improv_Metronome,3,5,42,127,33069560
28,23,13,Improv_Metronome,4,1,48,48,33560184
28,23,13,Improv_Metronome,5,5,42,127,33569044
28,23,13,Improv_Metronome,6,1,48,43,34024872
28,23,13,Improv_Metronome,7,5,42,127,34069936
28,23,13,Improv_Metronome,8,1,48,46,34540200
28,23,13,Improv_Metronome,9,5,42,127,34569556
28,23,13,Improv_Metronome,10,1,48,55,35042588
28,23,13,Improv_Metronome,11,5,42,127,35069252
28,23,13,Improv_Metronome,12,1,48,50,35414872
28,23,13,Improv_Metronome,13,5,42,127,35569904
28,23,13,Improv_Metronome,14,1,48,55,36042500
28,23,13,Improv_Metronome,15,5,42,127,36069912
28,23,13,Improv_Metronome,16,1,48,55,36396840
28,23,13,Improv_Metronome,17,1,48,39,36539908
28,23,13,Improv_Metronome,18,5,42,127,36569340
28,23,13,Improv_Metronome,19,1,48,56,37012200
28,23,13,Improv_Metronome,20,5,42,127,37069032
28,23,13,Improv_Metronome,21,1,48,51,37523788
28,23,13,Improv_Metronome,22,5,42,127,37569996
28,23,13,Improv_Metronome,23,1,38,38,38021612
28,23,13,Improv_Metronome,24,5,42,127,38069664
28,23,13,Improv_Metronome,25,1,48,49,38259044
28,23,13,Improv_Metronome,26,5,42,127,38569272
28,23,13,Improv_Metronome,27,1,48,57,39027812
28,23,13,Improv_Metronome,28,1,38,55,39031676
28,23,13,Improv_Metronome,29,5,42,127,39070008
28,23,13,Improv_Metronome,30,1,48,58,39538976
28,23,13,Improv_Metronome,31,5,42,127,39569748
28,23,13,Improv_Metronome,32,1,38,46,40060212
28,23,13,Improv_Metronome,33,1,48,52,40063408
28,23,13,Improv_Metronome,34,5,42,127,40069576
28,23,13,Improv_Metronome,35,1,48,61,40321156
28,23,13,Improv_Metronome,36,5,42,127,40569300
28,23,13,Improv_Metronome,37,1,48,52,41036440
28,23,13,Improv_Metronome,38,5,42,127,41069984
28,23,13,Improv_Metronome,39,1,38,40,41079460
28,23,13,Improv_Metronome,40,1,48,52,41528560
28,23,13,Improv_Metronome,41,5,42,127,41569508
28,23,13,Improv_Metronome,42,1,48,53,42018600
28,23,13,Improv_Metronome,43,1,38,45,42038332
28,23,13,Improv_Metronome,44,5,42,127,42069628
28,23,13,Improv_Metronome,45,1,48,55,42512788
28,23,13,Improv_Metronome,46,5,42,127,42570044
28,23,13,Improv_Metronome,47,1,48,53,43024532
28,23,13,Improv_Metronome,48,1,38,41,43053084
28,23,13,Improv_Metronome,49,5,42,127,43069720
28,23,13,Improv_Metronome,50,1,48,48,43420404
28,23,13,Improv_Metronome,51,1,38,41,43562524
28,23,13,Improv_Metronome,52,5,42,127,43569516
28,23,13,Improv_Metronome,53,1,48,53,44051524
28,23,13,Improv_Metronome,54,5,42,127,44069360
28,23,13,Improv_Metronome,55,1,38,38,44071000
28,23,13,Improv_Metronome,56,1,48,39,44526800
28,23,13,Improv_Metronome,57,1,38,33,44542040
28,23,13,Improv_Metronome,58,5,42,127,44569824
28,23,13,Improv_Metronome,59,1,38,43,45030712
28,23,13,Improv_Metronome,60,5,42,127,45069640
28,23,13,Improv_Metronome,61,1,48,51,45568812
28,23,13,Improv_Metronome,62,5,42,127,45570604
28,23,13,Improv_Metronome,63,1,48,48,46057848
28,23,13,Improv_Metronome,64,1,38,38,46068168
28,23,13,Improv_Metronome,65,5,42,127,46070724
28,23,13,Improv_Metronome,66,1,48,19,46478484
28,23,13,Improv_Metronome,67,5,42,127,46570752
28,23,13,Improv_Metronome,68,1,48,49,46716880
28,23,13,Improv_Metronome,69,5,42,127,47069548
28,23,13,Improv_Metronome,70,1,48,53,47103484
28,23,13,Improv_Metronome,71,1,38,42,47133084
28,23,13,Improv_Metronome,72,5,42,127,47569344
28,23,13,Improv_Metronome,73,1,48,43,47599536
28,23,13,Improv_Metronome,74,1,48,47,48051472
28,23,13,Improv_Metronome,75,5,42,127,48069932
28,23,13,Improv_Metronome,76,1,38,41,48079184
28,23,13,Improv_Metronome,77,1,48,45,48544924
28,23,13,Improv_Metronome,78,5,42,127,48569640
28,23,13,Improv_Metronome,79,1,48,57,49052072
28,23,13,Improv_Metronome,80,1,38,37,49060952
28,23,13,Improv_Metronome,81,5,42,127,49069364
28,23,13,Improv_Metronome,82,1,48,45,49236272
28,23,13,Improv_Metronome,83,1,48,39,49404640
28,23,13,Improv_Metronome,84,5,42,127,49569144
28,23,13,Improv_Metronome,85,1,48,60,49596144
28,23,13,Improv_Metronome,86,1,48,57,50025936
28,23,13,Improv_Metronome,87,1,38,44,50038332
28,23,13,Improv_Metronome,88,5,42,127,50070228
28,23,13,Improv_Metronome,89,1,48,49,50243196
28,23,13,Improv_Metronome,90,1,48,47,50394668
28,23,13,Improv_Metronome,91,1,48,62,50564736
28,23,13,Improv_Metronome,92,5,42,127,50569632
28,23,13,Improv_Metronome,93,1,48,54,51016336
28,23,13,Improv_Metronome,94,1,38,36,51047280
28,23,13,Improv_Metronome,95,5,42,127,51069456
28,23,13,Improv_Metronome,96,1,48,40,51204064
28,23,13,Improv_Metronome,97,1,48,48,51365236
28,23,13,Improv_Metronome,98,1,48,56,51547520
28,23,13,Improv_Metronome,99,5,42,127,51570064
28,23,13,Improv_Metronome,100,1,48,41,51707604
28,23,13,Improv_Metronome,101,1,48,50,51871768
28,23,13,Improv_Metronome,102,1,48,60,52048812
28,23,13,Improv_Metronome,103,5,42,127,52069716
28,23,13,Improv_Metronome,104,1,38,45,52075604
28,23,13,Improv_Metronome,105,1,48,50,52227284
28,23,13,Improv_Metronome,106,1,48,47,52390616
28,23,13,Improv_Metronome,107,1,48,52,52556596
28,23,13,Improv_Metronome,108,5,42,127,52569420
28,23,13,Improv_Metronome,109,1,48,44,52706960
28,23,13,Improv_Metronome,110,1,48,43,52969352
28,23,13,Improv_Metronome,111,5,42,127,53069228
28,23,13,Improv_Metronome,112,1,48,59,53114456
28,23,13,Improv_Metronome,113,1,38,36,53185984
28,23,13,Improv_Metronome,114,5,42,127,53570156
28,23,13,Improv_Metronome,115,1,48,50,53592948
28,23,13,Improv_Metronome,116,1,48,57,54063232
28,23,13,Improv_Metronome,117,5,42,127,54069620
28,23,13,Improv_Metronome,118,1,38,41,54079100
28,23,13,Improv_Metronome,119,1,48,50,54459288
28,23,13,Improv_Metronome,120,5,42,127,54569336
28,23,13,Improv_Metronome,121,1,38,20,54614192
28,23,13,Improv_Metronome,122,1,48,59,55070448
28,23,13,Improv_Metronome,123,5,42,127,55072016
28,23,13,Improv_Metronome,124,1,48,49,55534572
28,23,13,Improv_Metronome,125,5,42,127,55569764
28,23,13,Improv_Metronome,126,1,48,52,56044512
28,23,13,Improv_Metronome,127,5,42,127,56069384
28,23,13,Improv_Metronome,128,1,48,54,56525808
28,23,13,Improv_Metronome,129,5,42,127,56569228
28,23,13,Improv_Metronome,130,1,48,51,57020044
28,23,13,Improv_Metronome,131,5,42,127,57070044
28,23,13,Improv_Metronome,132,1,48,60,57488752
28,23,13,Improv_Metronome,133,5,42,127,57569592
28,23,13,Improv_Metronome,134,1,38,41,58039980
28,23,13,Improv_Metronome,135,1,48,55,58043516
28,23,13,Improv_Metronome,136,5,42,127,58069500
28,23,13,Improv_Metronome,137,1,48,48,58509120
28,23,13,Improv_Metronome,138,5,42,127,58570068
28,23,13,Improv_Metronome,139,1,38,47,59052572
28,23,13,Improv_Metronome,140,1,48,60,59055768
28,23,13,Improv_Metronome,141,5,42,127,59069964
28,23,13,Improv_Metronome,142,1,48,57,59539276
28,23,13,Improv_Metronome,143,5,42,127,59569384
28,23,13,Improv_Metronome,144,1,48,58,60034264
28,23,13,Improv_Metronome,145,1,38,46,60050700
28,23,13,Improv_Metronome,146,5,42,127,60069132
28,23,13,Improv_Metronome,147,1,48,57,60547068
28,23,13,Improv_Metronome,148,5,42,127,60569996
28,23,13,Improv_Metronome,149,1,48,49,60933896
28,23,13,Improv_Metronome,150,5,42,127,61069896
28,23,13,Improv_Metronome,151,1,38,45,61088648
28,23,13,Improv_Metronome,152,1,48,55,61179844
28,23,13,Improv_Metronome,153,5,42,127,61569336
28,23,13,Improv_Metronome,154,1,48,48,61584720
28,23,13,Improv_Metronome,155,1,48,56,62036820
28,23,13,Improv_Metronome,156,1,38,49,62041220
28,23,13,Improv_Metronome,157,5,42,127,62070048
28,23,13,Improv_Metronome,158,1,48,59,62544924
28,23,13,Improv_Metronome,159,5,42,127,62569864
28,23,13,Improv_Metronome,160,1,48,64,63045512
28,23,13,Improv_Metronome,161,1,38,53,63055368
28,23,13,Improv_Metronome,162,5,42,127,63069540
28,23,13,Improv_Metronome,163,1,48,60,63554736
28,23,13,Improv_Metronome,164,5,42,127,63569132
28,23,13,Improv_Metronome,165,1,48,65,64035804
28,23,13,Improv_Metronome,166,1,38,46,64041320
28,23,13,Improv_Metronome,167,5,42,127,64069928
28,23,13,Improv_Metronome,168,1,48,57,64545472
28,23,13,Improv_Metronome,169,5,42,127,64569820
28,23,13,Improv_Metronome,170,1,48,54,64969176
28,23,13,Improv_Metronome,171,1,38,51,65069272
28,23,13,Improv_Metronome,172,5,42,127,65071880
28,23,13,Improv_Metronome,173,1,48,47,65204012
28,23,13,Improv_Metronome,174,5,42,127,65569096
28,23,13,Improv_Metronome,175,1,48,51,65602352
28,23,13,Improv_Metronome,176,1,38,48,65609440
28,23,13,Improv_Metronome,177,1,48,52,66068044
28,23,13,Improv_Metronome,178,5,42,127,66069780
28,23,13,Improv_Metronome,179,1,48,50,66566824
28,23,13,Improv_Metronome,180,5,42,127,66569476
28,23,13,Improv_Metronome,181,1,48,54,67057244
28,23,13,Improv_Metronome,182,5,42,127,67069544
28,23,13,Improv_Metronome,183,1,48,56,67536664
28,23,13,Improv_Metronome,184,5,42,127,67569988
28,23,13,Improv_Metronome,185,1,48,55,68021752
28,23,13,Improv_Metronome,186,5,42,127,68069608
28,23,13,Improv_Metronome,187,1,48,47,68538528
28,23,13,Improv_Metronome,188,5,42,127,68569528
28,23,13,Improv_Metronome,189,5,42,127,69069376
28,23,13,Improv_Metronome,190,1,48,43,69070344
28,23,13,Improv_Metronome,191,1,48,49,69555992
28,23,13,Improv_Metronome,192,5,42,127,69569888
28,23,13,Improv_Metronome,193,1,38,46,70050448
28,23,13,Improv_Metronome,194,1,48,48,70053644
28,23,13,Improv_Metronome,195,5,42,127,70069540
28,23,13,Improv_Metronome,196,1,48,44,70430196
28,23,13,Improv_Metronome,197,1,38,24,70550600
28,23,13,Improv_Metronome,198,5,42,127,70569480
28,23,13,Improv_Metronome,199,1,48,57,71029200
28,23,13,Improv_Metronome,200,5,42,127,71070072
28,23,13,Improv_Metronome,201,1,48,39,71538096
28,23,13,Improv_Metronome,202,5,42,127,71569696
28,23,13,Improv_Metronome,203,1,38,47,72058508
28,23,13,Improv_Metronome,204,1,48,42,72061704
28,23,13,Improv_Metronome,205,5,42,127,72069520
28,23,13,Improv_Metronome,206,1,48,43,72448356
28,23,13,Improv_Metronome,207,5,42,127,72569320
28,23,13,Improv_Metronome,208,1,48,50,73033092
28,23,13,Improv_Metronome,209,5,42,127,73070152
28,23,13,Improv_Metronome,210,1,48,46,73539292
28,23,13,Improv_Metronome,211,5,42,127,73569772
28,23,13,Improv_Metronome,212,1,38,52,74028520
28,23,13,Improv_Metronome,213,1,48,46,74043080
28,23,13,Improv_Metronome,214,5,42,127,74069596
28,23,13,Improv_Metronome,215,1,48,48,74378472
28,23,13,Improv_Metronome,216,1,38,42,74546544
28,23,13,Improv_Metronome,217,5,42,127,74570140
28,23,13,Improv_Metronome,218,1,48,44,75018416
28,23,13,Improv_Metronome,219,1,38,43,75030432
28,23,13,Improv_Metronome,220,5,42,127,75069740
28,23,13,Improv_Metronome,221,1,38,46,75502276
28,23,13,Improv_Metronome,222,1,48,52,75528136
28,23,13,Improv_Metronome,223,5,42,127,75569388
28,23,13,Improv_Metronome,224,1,48,50,76032144
28,23,13,Improv_Metronome,225,1,38,34,76035416
28,23,13,Improv_Metronome,226,5,42,127,76069184
28,23,13,Improv_Metronome,227,1,48,47,76564776
28,23,13,Improv_Metronome,228,1,38,35,76568752
28,23,13,Improv_Metronome,229,5,42,127,76571372
28,23,13,Improv_Metronome,230,5,42,127,77069552
28,23,13,Improv_Metronome,231,1,38,41,77085384
28,23,13,Improv_Metronome,232,5,42,127,77569320
28,23,13,Improv_Metronome,233,1,38,41,77573488
28,23,13,Improv_Metronome,234,1,48,45,77587300
28,23,13,Improv_Metronome,235,1,48,52,78050972
28,23,13,Improv_Metronome,236,5,42,127,78070008
28,23,13,Improv_Metronome,237,1,48,49,78556128
28,23,13,Improv_Metronome,238,5,42,127,78569780
28,23,13,Improv_Metronome,239,1,48,47,79045804
28,23,13,Improv_Metronome,240,1,38,50,79059100
28,23,13,Improv_Metronome,241,5,42,127,79069528
28,23,13,Improv_Metronome,242,1,48,44,79538620
28,23,13,Improv_Metronome,243,5,42,127,79569268
28,23,13,Improv_Metronome,244,1,38,53,80023128
28,23,13,Improv_Metronome,245,1,48,45,80032236
28,23,13,Improv_Metronome,246,5,42,127,80070140
28,23,13,Improv_Metronome,247,1,48,26,80222960
28,23,13,Improv_Metronome,248,1,38,28,80257276
28,23,13,Improv_Metronome,249,1,48,25,80505132
28,23,13,Improv_Metronome,250,5,42,127,80569812
28,23,13,Improv_Metronome,251,1,48,55,81039156
28,23,13,Improv_Metronome,252,5,42,127,81069408
28,23,13,Improv_Metronome,253,1,48,48,81539376
28,23,13,Improv_Metronome,254,5,42,127,81569104
28,23,13,Improv_Metronome,255,1,38,47,82042732
28,23,13,Improv_Metronome,256,1,48,38,82045928
28,23,13,Improv_Metronome,257,5,42,127,82069972
28,23,13,Improv_Metronome,258,1,48,51,82514108
28,23,13,Improv_Metronome,259,5,42,127,82569568
28,23,13,Improv_Metronome,260,5,42,127,83069416
28,23,13,Improv_Metronome,261,1,38,49,83072608
28,23,13,Improv_Metronome,262,1,48,42,83088900
28,23,13,Improv_Metronome,263,5,42,127,83569960
28,23,13,Improv_Metronome,264,1,48,44,83576148
28,23,13,Improv_Metronome,265,1,48,44,84047252
28,23,13,Improv_Metronome,266,1,38,43,84050596
28,23,13,Improv_Metronome,267,5,42,127,84069852
28,23,13,Improv_Metronome,268,1,48,49,84474944
28,23,13,Improv_Metronome,269,5,42,127,84569448
28,23,13,Improv_Metronome,270,1,38,40,84636352
28,23,13,Improv_Metronome,271,5,42,127,85069128
28,23,13,Improv_Metronome,272,1,48,48,85073968
28,23,13,Improv_Metronome,273,1,38,36,85074620
28,23,13,Improv_Metronome,274,1,48,41,85545772
28,23,13,Improv_Metronome,275,5,42,127,85569892
28,23,13,Improv_Metronome,276,1,48,53,86048608
28,23,13,Improv_Metronome,277,1,38,51,86053004
28,23,13,Improv_Metronome,278,5,42,127,86069864
28,23,13,Improv_Metronome,279,1,48,52,86423240
28,23,13,Improv_Metronome,280,5,42,127,86569292
28,23,13,Improv_Metronome,281,1,48,36,86572560
28,23,13,Improv_Metronome,282,1,48,54,87023772
28,23,13,Improv_Metronome,283,1,38,45,87038856
28,23,13,Improv_Metronome,284,5,42,127,87070084
28,23,13,Improv_Metronome,285,1,48,49,87368632
28,23,13,Improv_Metronome,286,1,48,36,87533560
28,23,13,Improv_Metronome,287,5,42,127,87569728
28,23,13,Improv_Metronome,288,1,48,46,88006556
28,23,13,Improv_Metronome,289,1,38,45,88034440
28,23,13,Improv_Metronome,290,5,42,127,88069624
28,23,13,Improv_Metronome,291,1,48,42,88495704
28,23,13,Improv_Metronome,292,5,42,127,88569144
28,23,13,Improv_Metronome,293,1,48,45,89032596
28,23,13,Improv_Metronome,294,1,38,45,89051652
28,23,13,Improv_Metronome,295,5,42,127,89070012
28,23,13,Improv_Metronome,296,1,48,25,89534644
28,23,13,Improv_Metronome,297,5,42,127,89569680
28,23,13,Improv_Metronome,298,1,38,44,90032292
28,23,13,Improv_Metronome,299,1,48,47,90041808
28,23,13,Improv_Metronome,300,5,42,127,90069516
28,23,13,Improv_Metronome,301,1,48,46,90400832
28,23,13,Improv_Metronome,302,1,48,35,90540160
28,23,13,Improv_Metronome,303,5,42,127,90570208
28,23,13,Improv_Metronome,304,1,48,49,90993324
28,23,13,Improv_Metronome,305,1,38,50,91014096
28,23,13,Improv_Metronome,306,5,42,127,91069736
28,23,13,Improv_Metronome,307,1,48,43,91534256
28,23,13,Improv_Metronome,308,5,42,127,91569452
28,23,13,Improv_Metronome,309,1,48,49,92027596
28,23,13,Improv_Metronome,310,1,38,44,92042236
28,23,13,Improv_Metronome,311,5,42,127,92069124
28,23,13,Improv_Metronome,312,1,48,44,92554020
28,23,13,Improv_Metronome,313,5,42,127,92569840
28,23,13,Improv_Metronome,314,1,38,50,92716208
28,23,13,Improv_Metronome,315,5,42,127,93069668
28,23,13,Improv_Metronome,316,1,48,51,93083036
28,23,13,Improv_Metronome,317,1,38,41,93110392
28,23,13,Improv_Metronome,318,5,42,127,93569540
28,23,13,Improv_Metronome,319,1,48,45,93580888
28,23,13,Improv_Metronome,320,1,48,48,94039052
28,23,13,Improv_Metronome,321,1,38,47,94054136
28,23,13,Improv_Metronome,322,5,42,127,94070328
28,23,13,Improv_Metronome,323,1,48,39,94422104
28,23,13,Improv_Metronome,324,5,42,127,94569920
28,23,13,Improv_Metronome,325,1,48,45,94649360
28,23,13,Improv_Metronome,326,1,48,48,95022072
28,23,13,Improv_Metronome,327,1,38,40,95039636
28,23,13,Improv_Metronome,328,5,42,127,95069512
28,23,13,Improv_Metronome,329,1,48,19,95405240
28,23,13,Improv_Metronome,330,1,48,42,95534792
28,23,13,Improv_Metronome,331,5,42,127,95569456
28,23,13,Improv_Metronome,332,1,48,38,96014288
28,23,13,Improv_Metronome,333,1,38,29,96034688
28,23,13,Improv_Metronome,334,5,42,127,96070104
28,23,13,Improv_Metronome,335,1,48,39,96217344
28,23,13,Improv_Metronome,336,1,48,31,96493572
28,23,13,Improv_Metronome,337,5,42,127,96569676
28,23,13,Improv_Metronome,338,1,48,35,96602996
28,23,13,Improv_Metronome,339,1,48,44,97034308
28,23,13,Improv_Metronome,340,1,38,42,97055528
28,23,13,Improv_Metronome,341,5,42,127,97069404
28,23,13,Improv_Metronome,342,1,48,37,97495288
28,23,13,Improv_Metronome,343,5,42,127,97569144
28,23,13,Improv_Metronome,344,1,48,35,97758744
28,23,13,Improv_Metronome,345,5,42,127,98069796
28,23,13,Improv_Metronome,346,1,48,43,98090492
28,23,13,Improv_Metronome,347,1,38,45,98123160
28,23,13,Improv_Metronome,348,1,48,38,98274076
28,23,13,Improv_Metronome,349,1,48,13,98431728
28,23,13,Improv_Metronome,350,5,42,127,98569552
28,23,13,Improv_Metronome,351,1,48,42,98599148
28,23,13,Improv_Metronome,352,1,48,45,99024400
28,23,13,Improv_Metronome,353,1,38,47,99039116
28,23,13,Improv_Metronome,354,5,42,127,99069368
28,23,13,Improv_Metronome,355,1,48,32,99372780
28,23,13,Improv_Metronome,356,1,48,38,99495504
28,23,13,Improv_Metronome,357,5,42,127,99570208
28,23,13,Improv_Metronome,358,1,48,46,100015168
28,23,13,Improv_Metronome,359,1,38,43,100045256
28,23,13,Improv_Metronome,360,5,42,127,100069672
28,23,13,Improv_Metronome,361,1,48,39,100517816
28,23,13,Improv_Metronome,362,5,42,127,100569416
28,23,13,Improv_Metronome,363,1,48,32,100944660
28,23,13,Improv_Metronome,364,5,42,127,101069096
28,23,13,Improv_Metronome,365,1,38,39,101084480
28,23,13,Improv_Metronome,366,1,48,48,101165764
28,23,13,Improv_Metronome,0,9999,9999,9999,31566928
28,23,13,Improv_Metronome,1,9999,9999,9999,32067692
28,23,13,Improv_Metronome,2,9999,9999,9999,32567408
28,23,13,Improv_Metronome,3,9999,9999,9999,33067124
28,23,13,Improv_Metronome,4,9999,9999,9999,33566836
28,23,13,Improv_Metronome,5,9999,9999,9999,34067576
28,23,13,Improv_Metronome,6,9999,9999,9999,34567268
28,23,13,Improv_Metronome,7,9999,9999,9999,35066964
28,23,13,Improv_Metronome,8,9999,9999,9999,35567692
28,23,13,Improv_Metronome,9,9999,9999,9999,36067400
28,23,13,Improv_Metronome,10,9999,9999,9999,36567128
28,23,13,Improv_Metronome,11,9999,9999,9999,37066820
28,23,13,Improv_Metronome,12,9999,9999,9999,37567560
28,23,13,Improv_Metronome,13,9999,9999,9999,38067304
28,23,13,Improv_Metronome,14,9999,9999,9999,38566984
28,23,13,Improv_Metronome,15,9999,9999,9999,39067720
28,23,13,Improv_Metronome,16,9999,9999,9999,39567464
28,23,13,Improv_Metronome,17,9999,9999,9999,40067140
28,23,13,Improv_Metronome,18,9999,9999,9999,40566868
28,23,13,Improv_Metronome,19,9999,9999,9999,41067620
28,23,13,Improv_Metronome,20,9999,9999,9999,41567296
28,23,13,Improv_Metronome,21,9999,9999,9999,42067044
28,23,13,Improv_Metronome,22,9999,9999,9999,42567760
28,23,13,Improv_Metronome,23,9999,9999,9999,43067508
28,23,13,Improv_Metronome,24,9999,9999,9999,43567152
28,23,13,Improv_Metronome,25,9999,9999,9999,44066924
28,23,13,Improv_Metronome,26,9999,9999,9999,44567612
28,23,13,Improv_Metronome,27,9999,9999,9999,45067352
28,23,13,Improv_Metronome,28,9999,9999,9999,45567052
28,23,13,Improv_Metronome,29,9999,9999,9999,46067792
28,23,13,Improv_Metronome,30,9999,9999,9999,46567508
28,23,13,Improv_Metronome,31,9999,9999,9999,47067188
28,23,13,Improv_Metronome,32,9999,9999,9999,47566908
28,23,13,Improv_Metronome,33,9999,9999,9999,48067644
28,23,13,Improv_Metronome,34,9999,9999,9999,48567352
28,23,13,Improv_Metronome,35,9999,9999,9999,49067076
28,23,13,Improv_Metronome,36,9999,9999,9999,49566780
28,23,13,Improv_Metronome,37,9999,9999,9999,50067572
28,23,13,Improv_Metronome,38,9999,9999,9999,50567272
28,23,13,Improv_Metronome,39,9999,9999,9999,51066948
28,23,13,Improv_Metronome,40,9999,9999,9999,51567704
28,23,13,Improv_Metronome,41,9999,9999,9999,52067432
28,23,13,Improv_Metronome,42,9999,9999,9999,52567136
28,23,13,Improv_Metronome,43,9999,9999,9999,53066868
28,23,13,Improv_Metronome,44,9999,9999,9999,53567576
28,23,13,Improv_Metronome,45,9999,9999,9999,54067260
28,23,13,Improv_Metronome,46,9999,9999,9999,54566976
28,23,13,Improv_Metronome,47,9999,9999,9999,55067716
28,23,13,Improv_Metronome,48,9999,9999,9999,55567476
28,23,13,Improv_Metronome,49,9999,9999,9999,56067172
28,23,13,Improv_Metronome,50,9999,9999,9999,56566868
28,23,13,Improv_Metronome,51,9999,9999,9999,57067608
28,23,13,Improv_Metronome,52,9999,9999,9999,57567304
28,23,13,Improv_Metronome,53,9999,9999,9999,58067064
28,23,13,Improv_Metronome,54,9999,9999,9999,58567780
28,23,13,Improv_Metronome,55,9999,9999,9999,59067456
28,23,13,Improv_Metronome,56,9999,9999,9999,59567172
28,23,13,Improv_Metronome,57,9999,9999,9999,60066920
28,23,13,Improv_Metronome,58,9999,9999,9999,60567636
28,23,13,Improv_Metronome,59,9999,9999,9999,61067312
28,23,13,Improv_Metronome,60,9999,9999,9999,61567048
28,23,13,Improv_Metronome,61,9999,9999,9999,62067764
28,23,13,Improv_Metronome,62,9999,9999,9999,62567504
28,23,13,Improv_Metronome,63,9999,9999,9999,63067252
28,23,13,Improv_Metronome,64,9999,9999,9999,63566920
28,23,13,Improv_Metronome,65,9999,9999,9999,64067640
28,23,13,Improv_Metronome,66,9999,9999,9999,64567384
28,23,13,Improv_Metronome,67,9999,9999,9999,65067060
28,23,13,Improv_Metronome,68,9999,9999,9999,65566808
28,23,13,Improv_Metronome,69,9999,9999,9999,66067520
28,23,13,Improv_Metronome,70,9999,9999,9999,66567264
28,23,13,Improv_Metronome,71,9999,9999,9999,67066960
28,23,13,Improv_Metronome,72,9999,9999,9999,67567700
28,23,13,Improv_Metronome,73,9999,9999,9999,68067396
28,23,13,Improv_Metronome,74,9999,9999,9999,68567092
28,23,13,Improv_Metronome,75,9999,9999,9999,69066868
28,23,13,Improv_Metronome,76,9999,9999,9999,69567600
28,23,13,Improv_Metronome,77,9999,9999,9999,70067252
28,23,13,Improv_Metronome,78,9999,9999,9999,70566972
28,23,13,Improv_Metronome,79,9999,9999,9999,71067712
28,23,13,Improv_Metronome,80,9999,9999,9999,71567484
28,23,13,Improv_Metronome,81,9999,9999,9999,72067160
28,23,13,Improv_Metronome,82,9999,9999,9999,72566884
28,23,13,Improv_Metronome,83,9999,9999,9999,73067640
28,23,13,Improv_Metronome,84,9999,9999,9999,73567336
28,23,13,Improv_Metronome,85,9999,9999,9999,74067012
28,23,13,Improv_Metronome,86,9999,9999,9999,74567776
28,23,13,Improv_Metronome,87,9999,9999,9999,75067452
28,23,13,Improv_Metronome,88,9999,9999,9999,75567176
28,23,13,Improv_Metronome,89,9999,9999,9999,76066896
28,23,13,Improv_Metronome,90,9999,9999,9999,76567612
28,23,13,Improv_Metronome,91,9999,9999,9999,77067340
28,23,13,Improv_Metronome,92,9999,9999,9999,77567032
28,23,13,Improv_Metronome,93,9999,9999,9999,78067796
28,23,13,Improv_Metronome,94,9999,9999,9999,78567492
28,23,13,Improv_Metronome,95,9999,9999,9999,79067240
28,23,13,Improv_Metronome,96,9999,9999,9999,79566908
28,23,13,Improv_Metronome,97,9999,9999,9999,80067704
28,23,13,Improv_Metronome,98,9999,9999,9999,80567356
28,23,13,Improv_Metronome,99,9999,9999,9999,81067124
28,23,13,Improv_Metronome,100,9999,9999,9999,81566816
28,23,13,Improv_Metronome,101,9999,9999,9999,82067540
28,23,13,Improv_Metronome,102,9999,9999,9999,82567280
28,23,13,Improv_Metronome,103,9999,9999,9999,83066980
28,23,13,Improv_Metronome,104,9999,9999,9999,83567676
28,23,13,Improv_Metronome,105,9999,9999,9999,84067420
28,23,13,Improv_Metronome,106,9999,9999,9999,84567160
28,23,13,Improv_Metronome,107,9999,9999,9999,85066840
28,23,13,Improv_Metronome,108,9999,9999,9999,85567604
28,23,13,Improv_Metronome,109,9999,9999,9999,86067280
28,23,13,Improv_Metronome,110,9999,9999,9999,86567008
28,23,13,Improv_Metronome,111,9999,9999,9999,87067720
28,23,13,Improv_Metronome,112,9999,9999,9999,87567440
28,23,13,Improv_Metronome,113,9999,9999,9999,88067192
28,23,13,Improv_Metronome,114,9999,9999,9999,88566856
28,23,13,Improv_Metronome,115,9999,9999,9999,89067580
28,23,13,Improv_Metronome,116,9999,9999,9999,89567320
28,23,13,Improv_Metronome,117,9999,9999,9999,90067008
28,23,13,Improv_Metronome,118,9999,9999,9999,90567772
28,23,13,Improv_Metronome,119,9999,9999,9999,91067448
28,23,13,Improv_Metronome,120,9999,9999,9999,91567164
28,23,13,Improv_Metronome,121,9999,9999,9999,92066916
28,23,13,Improv_Metronome,122,9999,9999,9999,92567628
28,23,13,Improv_Metronome,123,9999,9999,9999,93067384
28,23,13,Improv_Metronome,124,9999,9999,9999,93567032
28,23,13,Improv_Metronome,125,9999,9999,9999,94067820
28,23,13,Improv_Metronome,126,9999,9999,9999,94567484
28,23,13,Improv_Metronome,127,9999,9999,9999,95067228
28,23,13,Improv_Metronome,128,9999,9999,9999,95566948
28,23,13,Improv_Metronome,129,9999,9999,9999,96067668
28,23,13,Improv_Metronome,130,9999,9999,9999,96567392
28,23,13,Improv_Metronome,131,9999,9999,9999,97067116
28,23,13,Improv_Metronome,132,9999,9999,9999,97566784
28,23,13,Improv_Metronome,133,9999,9999,9999,98067512
28,23,13,Improv_Metronome,134,9999,9999,9999,98567264
28,23,13,Improv_Metronome,135,9999,9999,9999,99066932
28,23,13,Improv_Metronome,136,9999,9999,9999,99567700
28,23,13,Improv_Metronome,137,9999,9999,9999,100067388
28,23,13,Improv_Metronome,138,9999,9999,9999,100567128
28,23,13,Improv_Metronome,139,9999,9999,9999,101066808
28,24,14,Improv_Melody,0,2,48,80,151525788
28,24,14,Improv_Melody,1,2,72,80,151528380
28,24,14,Improv_Melody,2,5,42,127,151529948
28,24,14,Improv_Melody,3,5,42,110,152022340
28,24,14,Improv_Melody,4,5,42,110,152523260
28,24,14,Improv_Melody,5,5,42,110,153023052
28,24,14,Improv_Melody,6,5,42,127,153522528
28,24,14,Improv_Melody,7,5,42,110,154022248
28,24,14,Improv_Melody,8,5,42,110,154522944
28,24,14,Improv_Melody,9,5,42,110,155022664
28,24,14,Improv_Melody,10,2,43,80,155524968
28,24,14,Improv_Melody,11,2,67,80,155526892
28,24,14,Improv_Melody,12,5,42,127,155529804
28,24,14,Improv_Melody,13,5,42,110,156022272
28,24,14,Improv_Melody,14,5,42,110,156522964
28,24,14,Improv_Melody,15,5,42,110,157022764
28,24,14,Improv_Melody,16,5,42,127,157522188
28,24,14,Improv_Melody,17,5,42,110,158022956
28,24,14,Improv_Melody,18,5,42,110,158522604
28,24,14,Improv_Melody,19,5,42,110,159022696
28,24,14,Improv_Melody,20,2,45,80,159524700
28,24,14,Improv_Melody,21,2,69,80,159526700
28,24,14,Improv_Melody,22,5,42,127,159529092
28,24,14,Improv_Melody,23,5,42,110,160022752
28,24,14,Improv_Melody,24,5,42,110,160522624
28,24,14,Improv_Melody,25,5,42,110,161022420
28,24,14,Improv_Melody,26,5,42,127,161523040
28,24,14,Improv_Melody,27,5,42,110,162022832
28,24,14,Improv_Melody,28,5,42,110,162522556
28,24,14,Improv_Melody,29,5,42,110,163022128
28,24,14,Improv_Melody,30,2,41,80,163525552
28,24,14,Improv_Melody,31,2,65,80,163527552
28,24,14,Improv_Melody,32,5,42,127,163530316
28,24,14,Improv_Melody,33,5,42,110,164022632
28,24,14,Improv_Melody,34,5,42,110,164522252
28,24,14,Improv_Melody,35,5,42,110,165023172
28,24,14,Improv_Melody,36,5,42,127,165522668
28,24,14,Improv_Melody,37,5,42,110,166022388
28,24,14,Improv_Melody,38,5,42,110,166522336
28,24,14,Improv_Melody,39,5,42,110,167023180
28,24,14,Improv_Melody,40,1,48,53,167520812
28,24,14,Improv_Melody,41,2,48,80,167525096
28,24,14,Improv_Melody,42,2,72,80,167527252
28,24,14,Improv_Melody,43,5,42,127,167529568
28,24,14,Improv_Melody,44,5,42,110,168022316
28,24,14,Improv_Melody,45,1,38,51,168026408
28,24,14,Improv_Melody,46,1,48,64,168030728
28,24,14,Improv_Melody,47,1,48,59,168493944
28,24,14,Improv_Melody,48,5,42,110,168523232
28,24,14,Improv_Melody,49,1,48,58,169002844
28,24,14,Improv_Melody,50,1,38,48,169016668
28,24,14,Improv_Melody,51,5,42,110,169022836
28,24,14,Improv_Melody,52,1,48,63,169491204
28,24,14,Improv_Melody,53,5,42,127,169522512
28,24,14,Improv_Melody,54,1,48,62,169995992
28,24,14,Improv_Melody,55,1,38,47,169998516
28,24,14,Improv_Melody,56,5,42,110,170022188
28,24,14,Improv_Melody,57,1,48,60,170496024
28,24,14,Improv_Melody,58,5,42,110,170523208
28,24,14,Improv_Melody,59,1,48,59,170989512
28,24,14,Improv_Melody,60,1,38,59,170990168
28,24,14,Improv_Melody,61,5,42,110,171022816
28,24,14,Improv_Melody,62,1,38,53,171383828
28,24,14,Improv_Melody,63,1,38,17,171522584
28,24,14,Improv_Melody,64,2,43,80,171527372
28,24,14,Improv_Melody,65,2,67,80,171529444
28,24,14,Improv_Melody,66,5,42,127,171532052
28,24,14,Improv_Melody,67,1,48,48,171542880
28,24,14,Improv_Melody,68,1,48,46,171992412
28,24,14,Improv_Melody,69,1,38,16,172000996
28,24,14,Improv_Melody,70,5,42,110,172022200
28,24,14,Improv_Melody,71,1,38,50,172047676
28,24,14,Improv_Melody,72,1,48,53,172492716
28,24,14,Improv_Melody,73,5,42,110,172522900
28,24,14,Improv_Melody,74,1,48,64,173002144
28,24,14,Improv_Melody,75,1,38,65,173007656
28,24,14,Improv_Melody,76,5,42,110,173022432
28,24,14,Improv_Melody,77,1,48,56,173483296
28,24,14,Improv_Melody,78,5,42,127,173522252
28,24,14,Improv_Melody,79,1,48,62,173987628
28,24,14,Improv_Melody,80,1,38,59,173988284
28,24,14,Improv_Melody,81,5,42,110,174023052
28,24,14,Improv_Melody,82,1,48,65,174470824
28,24,14,Improv_Melody,83,5,42,110,174522948
28,24,14,Improv_Melody,84,1,38,55,174969552
28,24,14,Improv_Melody,85,1,48,59,174974996
28,24,14,Improv_Melody,86,5,42,110,175022304
28,24,14,Improv_Melody,87,1,38,56,175343096
28,24,14,Improv_Melody,88,1,38,41,175439340
28,24,14,Improv_Melody,89,2,45,80,175524684
28,24,14,Improv_Melody,90,2,69,80,175526832
28,24,14,Improv_Melody,91,5,42,127,175529300
28,24,14,Improv_Melody,92,1,48,58,175542524
28,24,14,Improv_Melody,93,1,38,55,175980244
28,24,14,Improv_Melody,94,1,48,60,175984484
28,24,14,Improv_Melody,95,5,42,110,176022824
28,24,14,Improv_Melody,96,1,48,62,176483340
28,24,14,Improv_Melody,97,5,42,110,176522568
28,24,14,Improv_Melody,98,1,48,59,177004880
28,24,14,Improv_Melody,99,1,38,54,177010392
28,24,14,Improv_Melody,100,5,42,110,177022324
28,24,14,Improv_Melody,101,1,48,56,177492936
28,24,14,Improv_Melody,102,5,42,127,177522972
28,24,14,Improv_Melody,103,1,48,61,177980968
28,24,14,Improv_Melody,104,1,38,57,177990752
28,24,14,Improv_Melody,105,5,42,110,178022876
28,24,14,Improv_Melody,106,1,48,57,178494908
28,24,14,Improv_Melody,107,5,42,110,178522624
28,24,14,Improv_Melody,108,1,48,62,178988852
28,24,14,Improv_Melody,109,1,38,49,179003792
28,24,14,Improv_Melody,110,5,42,110,179022156
28,24,14,Improv_Melody,111,1,48,58,179464420
28,24,14,Improv_Melody,112,2,41,80,179525456
28,24,14,Improv_Melody,113,2,65,80,179527528
28,24,14,Improv_Melody,114,5,42,127,179530144
28,24,14,Improv_Melody,115,1,48,57,180018136
28,24,14,Improv_Melody,116,5,42,110,180022588
28,24,14,Improv_Melody,117,1,38,53,180025332
28,24,14,Improv_Melody,118,1,48,57,180503592
28,24,14,Improv_Melody,119,5,42,110,180522328
28,24,14,Improv_Melody,120,1,48,62,180973748
28,24,14,Improv_Melody,121,1,38,49,180981432
28,24,14,Improv_Melody,122,5,42,110,181023132
28,24,14,Improv_Melody,123,1,48,56,181474072
28,24,14,Improv_Melody,124,5,42,127,181522656
28,24,14,Improv_Melody,125,1,48,39,182008032
28,24,14,Improv_Melody,126,5,42,110,182022504
28,24,14,Improv_Melody,127,1,48,49,182482896
28,24,14,Improv_Melody,128,5,42,110,182522204
28,24,14,Improv_Melody,129,1,48,50,182970556
28,24,14,Improv_Melody,130,5,42,110,183022876
28,24,14,Improv_Melody,131,1,38,71,183159048
28,24,14,Improv_Melody,132,1,48,54,183486616
28,24,14,Improv_Melody,133,2,48,80,183525356
28,24,14,Improv_Melody,134,2,72,80,183527440
28,24,14,Improv_Melody,135,5,42,127,183529972
28,24,14,Improv_Melody,136,1,38,62,183985124
28,24,14,Improv_Melody,137,1,48,49,183998652
28,24,14,Improv_Melody,138,5,42,110,184022620
28,24,14,Improv_Melody,139,1,48,38,184352892
28,24,14,Improv_Melody,140,5,42,110,184523028
28,24,14,Improv_Melody,141,1,48,66,184995004
28,24,14,Improv_Melody,142,1,38,60,184999320
28,24,14,Improv_Melody,143,5,42,110,185022796
28,24,14,Improv_Melody,144,1,48,43,185505576
28,24,14,Improv_Melody,145,5,42,127,185522396
28,24,14,Improv_Melody,146,1,48,47,185980588
28,24,14,Improv_Melody,147,1,38,51,185984908
28,24,14,Improv_Melody,148,5,42,110,186022196
28,24,14,Improv_Melody,149,1,48,49,186309856
28,24,14,Improv_Melody,150,5,42,110,186522900
28,24,14,Improv_Melody,151,1,38,68,186990792
28,24,14,Improv_Melody,152,1,48,52,186993988
28,24,14,Improv_Melody,153,5,42,110,187022600
28,24,14,Improv_Melody,154,1,48,49,187485356
28,24,14,Improv_Melody,155,2,43,80,187524772
28,24,14,Improv_Melody,156,2,67,80,187527304
28,24,14,Improv_Melody,157,5,42,127,187529688
28,24,14,Improv_Melody,158,1,48,73,187999804
28,24,14,Improv_Melody,159,1,38,59,188005168
28,24,14,Improv_Melody,160,5,42,110,188022260
28,24,14,Improv_Melody,161,1,48,57,188311988
28,24,14,Improv_Melody,162,5,42,110,188522740
28,24,14,Improv_Melody,163,1,48,68,188979032
28,24,14,Improv_Melody,164,1,38,62,188984924
28,24,14,Improv_Melody,165,5,42,110,189022512
28,24,14,Improv_Melody,166,1,48,60,189468436
28,24,14,Improv_Melody,167,5,42,127,189522184
28,24,14,Improv_Melody,168,1,48,60,189997384
28,24,14,Improv_Melody,169,1,38,48,190009780
28,24,14,Improv_Melody,170,5,42,110,190023132
28,24,14,Improv_Melody,171,1,48,60,190299324
28,24,14,Improv_Melody,172,5,42,110,190522640
28,24,14,Improv_Melody,173,1,48,68,190969964
28,24,14,Improv_Melody,174,1,38,51,190977124
28,24,14,Improv_Melody,175,5,42,110,191022340
28,24,14,Improv_Melody,176,1,48,53,191280872
28,24,14,Improv_Melody,177,2,45,80,191524724
28,24,14,Improv_Melody,178,2,69,80,191527028
28,24,14,Improv_Melody,179,5,42,127,191529488
28,24,14,Improv_Melody,180,1,48,71,192021108
28,24,14,Improv_Melody,181,5,42,110,192023068
28,24,14,Improv_Melody,182,1,38,58,192031052
28,24,14,Improv_Melody,183,1,48,51,192395960
28,24,14,Improv_Melody,184,5,42,110,192522716
28,24,14,Improv_Melody,185,5,42,110,193022440
28,24,14,Improv_Melody,186,1,48,57,193074700
28,24,14,Improv_Melody,187,1,38,54,193080668
28,24,14,Improv_Melody,188,1,48,46,193409304
28,24,14,Improv_Melody,189,5,42,127,193522968
28,24,14,Improv_Melody,190,5,42,110,194022836
28,24,14,Improv_Melody,191,1,48,47,194045924
28,24,14,Improv_Melody,192,1,38,45,194055780
28,24,14,Improv_Melody,193,1,48,57,194404836
28,24,14,Improv_Melody,194,5,42,110,194522468
28,24,14,Improv_Melody,195,1,38,47,194990032
28,24,14,Improv_Melody,196,1,48,53,194993568
28,24,14,Improv_Melody,197,5,42,110,195022180
28,24,14,Improv_Melody,198,1,48,48,195442648
28,24,14,Improv_Melody,199,2,41,80,195525624
28,24,14,Improv_Melody,200,2,65,80,195527856
28,24,14,Improv_Melody,201,5,42,127,195530240
28,24,14,Improv_Melody,202,1,48,49,195734100
28,24,14,Improv_Melody,203,1,38,51,195993352
28,24,14,Improv_Melody,204,5,42,110,196022512
28,24,14,Improv_Melody,205,1,48,51,196067744
28,24,14,Improv_Melody,206,1,48,38,196498928
28,24,14,Improv_Melody,207,5,42,110,196522228
28,24,14,Improv_Melody,208,1,48,41,197004160
28,24,14,Improv_Melody,209,5,42,110,197023200
28,24,14,Improv_Melody,210,1,38,47,197027144
28,24,14,Improv_Melody,211,1,48,38,197452364
28,24,14,Improv_Melody,212,5,42,127,197522864
28,24,14,Improv_Melody,213,1,48,47,197546908
28,24,14,Improv_Melody,214,1,48,52,197982632
28,24,14,Improv_Melody,215,1,38,48,197999820
28,24,14,Improv_Melody,216,5,42,110,198022520
28,24,14,Improv_Melody,217,1,48,50,198469648
28,24,14,Improv_Melody,218,5,42,110,198522340
28,24,14,Improv_Melody,219,1,48,43,198879512
28,24,14,Improv_Melody,220,5,42,110,199022924
28,24,14,Improv_Melody,221,1,38,45,199032924
28,24,14,Improv_Melody,222,1,48,52,199124124
28,24,14,Improv_Melody,223,2,48,80,199525472
28,24,14,Improv_Melody,224,2,72,80,199527548
28,24,14,Improv_Melody,225,5,42,127,199530080
28,24,14,Improv_Melody,226,1,48,51,199535292
28,24,14,Improv_Melody,227,1,48,44,199767844
28,24,14,Improv_Melody,228,1,38,59,200004208
28,24,14,Improv_Melody,229,5,42,110,200022272
28,24,14,Improv_Melody,230,1,48,57,200103912
28,24,14,Improv_Melody,231,1,48,49,200247680
28,24,14,Improv_Melody,232,5,42,110,200523056
28,24,14,Improv_Melody,233,1,48,44,200534700
28,24,14,Improv_Melody,234,1,48,55,200959732
28,24,14,Improv_Melody,235,1,38,53,200978036
28,24,14,Improv_Melody,236,5,42,110,201022804
28,24,14,Improv_Melody,237,1,48,54,201315452
28,24,14,Improv_Melody,238,1,48,52,201437968
28,24,14,Improv_Melody,239,5,42,127,201522828
28,24,14,Improv_Melody,240,1,48,42,201975144
28,24,14,Improv_Melody,241,1,38,44,201999808
28,24,14,Improv_Melody,242,5,42,110,202022212
28,24,14,Improv_Melody,243,1,48,46,202461484
28,24,14,Improv_Melody,244,5,42,110,202523004
28,24,14,Improv_Melody,245,1,48,43,202912916
28,24,14,Improv_Melody,246,5,42,110,203022692
28,24,14,Improv_Melody,247,1,38,51,203023656
28,24,14,Improv_Melody,248,1,48,45,203140380
28,24,14,Improv_Melody,249,1,48,51,203518584
28,24,14,Improv_Melody,250,2,43,80,203525088
28,24,14,Improv_Melody,251,2,67,80,203527320
28,24,14,Improv_Melody,252,5,42,127,203529780
28,24,14,Improv_Melody,253,1,48,48,203750044
28,24,14,Improv_Melody,254,1,38,59,203995908
28,24,14,Improv_Melody,255,5,42,110,204022200
28,24,14,Improv_Melody,256,1,48,56,204026444
28,24,14,Improv_Melody,257,1,48,51,204139568
28,24,14,Improv_Melody,258,1,48,46,204267996
28,24,14,Improv_Melody,259,5,42,110,204522952
28,24,14,Improv_Melody,260,1,48,56,204528612
28,24,14,Improv_Melody,261,1,48,53,204973368
28,24,14,Improv_Melody,262,1,38,50,204983104
28,24,14,Improv_Melody,263,5,42,110,205022712
28,24,14,Improv_Melody,264,1,48,52,205340560
28,24,14,Improv_Melody,265,1,48,54,205460820
28,24,14,Improv_Melody,266,5,42,127,205522216
28,24,14,Improv_Melody,267,1,48,58,205954160
28,24,14,Improv_Melody,268,1,38,48,205981440
28,24,14,Improv_Melody,269,5,42,110,206023016
28,24,14,Improv_Melody,270,5,42,110,206522696
28,24,14,Improv_Melody,271,5,42,110,207022320
28,24,14,Improv_Melody,272,1,38,63,207242148
28,24,14,Improv_Melody,273,2,45,80,207524820
28,24,14,Improv_Melody,274,2,69,80,207526896
28,24,14,Improv_Melody,275,5,42,127,207529436
28,24,14,Improv_Melody,276,1,48,46,207533304
28,24,14,Improv_Melody,277,5,42,110,208022852
28,24,14,Improv_Melody,278,1,48,54,208023820
28,24,14,Improv_Melody,279,1,38,54,208048952
28,24,14,Improv_Melody,280,1,48,43,208349316
28,24,14,Improv_Melody,281,1,48,52,208475848
28,24,14,Improv_Melody,282,5,42,110,208522564
28,24,14,Improv_Melody,283,1,48,48,209006512
28,24,14,Improv_Melody,284,1,38,48,209012476
28,24,14,Improv_Melody,285,5,42,110,209022464
28,24,14,Improv_Melody,286,1,48,38,209481704
28,24,14,Improv_Melody,287,5,42,127,209522960
28,24,14,Improv_Melody,288,1,48,43,209976772
28,24,14,Improv_Melody,289,1,38,46,209986248
28,24,14,Improv_Melody,290,5,42,110,210022716
28,24,14,Improv_Melody,291,1,48,37,210474256
28,24,14,Improv_Melody,292,5,42,110,210522464
28,24,14,Improv_Melody,293,1,48,42,210921824
28,24,14,Improv_Melody,294,5,42,110,211022152
28,24,14,Improv_Melody,295,1,38,29,211062740
28,24,14,Improv_Melody,296,1,48,52,211188784
28,24,14,Improv_Melody,297,2,41,80,211525604
28,24,14,Improv_Melody,298,2,65,80,211527676
28,24,14,Improv_Melody,299,5,42,127,211530292
28,24,14,Improv_Melody,300,1,48,46,211581356
28,24,14,Improv_Melody,301,1,48,61,212022736
28,24,14,Improv_Melody,302,5,42,110,212024380
28,24,14,Improv_Melody,303,1,38,55,212028472
28,24,14,Improv_Melody,304,1,48,43,212375500
28,24,14,Improv_Melody,305,1,48,53,212495256
28,24,14,Improv_Melody,306,5,42,110,212522448
28,24,14,Improv_Melody,307,1,48,53,212991368
28,24,14,Improv_Melody,308,1,38,51,212995164
28,24,14,Improv_Melody,309,5,42,110,213023252
28,24,14,Improv_Melody,310,5,42,127,213522780
28,24,14,Improv_Melody,311,1,48,51,213989320
28,24,14,Improv_Melody,312,1,38,45,214004864
28,24,14,Improv_Melody,313,5,42,110,214022400
28,24,14,Improv_Melody,314,5,42,110,214522156
28,24,14,Improv_Melody,315,1,48,46,214813416
28,24,14,Improv_Melody,316,1,38,37,214947508
28,24,14,Improv_Melody,317,5,42,110,215023044
28,24,14,Improv_Melody,318,1,48,46,215061304
28,24,14,Improv_Melody,319,1,48,48,215508844
28,24,14,Improv_Melody,320,2,48,80,215525300
28,24,14,Improv_Melody,321,2,72,80,215527304
28,24,14,Improv_Melody,322,5,42,127,215530068
28,24,14,Improv_Melody,323,1,48,48,215759460
28,24,14,Improv_Melody,324,1,38,59,215998520
28,24,14,Improv_Melody,325,1,48,64,216009564
28,24,14,Improv_Melody,326,5,42,110,216022248
28,24,14,Improv_Melody,327,1,48,42,216132808
28,24,14,Improv_Melody,328,1,48,43,216488172
28,24,14,Improv_Melody,329,5,42,110,216523092
28,24,14,Improv_Melody,330,1,48,35,216527316
28,24,14,Improv_Melody,331,1,48,57,216964364
28,24,14,Improv_Melody,332,1,38,54,216973692
28,24,14,Improv_Melody,333,5,42,110,217023120
28,24,14,Improv_Melody,334,1,48,58,217333120
28,24,14,Improv_Melody,335,1,48,58,217474988
28,24,14,Improv_Melody,336,5,42,127,217522476
28,24,14,Improv_Melody,337,1,48,65,217989572
28,24,14,Improv_Melody,338,1,38,53,218000924
28,24,14,Improv_Melody,339,5,42,110,218022128
28,24,14,Improv_Melody,340,1,48,46,218486084
28,24,14,Improv_Melody,341,5,42,110,218522848
28,24,14,Improv_Melody,342,1,48,49,218905076
28,24,14,Improv_Melody,343,1,38,54,219004612
28,24,14,Improv_Melody,344,5,42,110,219022900
28,24,14,Improv_Melody,345,1,48,59,219125736
28,24,14,Improv_Melody,346,2,43,80,219525248
28,24,14,Improv_Melody,347,2,67,80,219527092
28,24,14,Improv_Melody,348,5,42,127,219529856
28,24,14,Improv_Melody,349,1,48,55,219531496
28,24,14,Improv_Melody,350,1,48,51,219761340
28,24,14,Improv_Melody,351,1,38,56,219986704
28,24,14,Improv_Melody,352,1,48,68,220014436
28,24,14,Improv_Melody,353,5,42,110,220022104
28,24,14,Improv_Melody,354,1,48,52,220145552
28,24,14,Improv_Melody,355,1,48,37,220422756
28,24,14,Improv_Melody,356,5,42,110,220523012
28,24,14,Improv_Melody,357,1,48,25,220680088
28,24,14,Improv_Melody,358,1,48,62,221015112
28,24,14,Improv_Melody,359,5,42,110,221022776
28,24,14,Improv_Melody,360,1,38,51,221044372
28,24,14,Improv_Melody,361,1,48,44,221351392
28,24,14,Improv_Melody,362,1,48,46,221473020
28,24,14,Improv_Melody,363,5,42,127,221522272
28,24,14,Improv_Melody,364,1,48,53,221986404
28,24,14,Improv_Melody,365,1,38,54,221997604
28,24,14,Improv_Melody,366,5,42,110,222023148
28,24,14,Improv_Melody,367,1,48,43,222472520
28,24,14,Improv_Melody,368,5,42,110,222522672
28,24,14,Improv_Melody,369,1,48,66,222961072
28,24,14,Improv_Melody,370,1,38,55,222983272
28,24,14,Improv_Melody,371,5,42,110,223022724
28,24,14,Improv_Melody,372,1,48,52,223120944
28,24,14,Improv_Melody,373,1,48,51,223282212
28,24,14,Improv_Melody,374,1,48,56,223457236
28,24,14,Improv_Melody,375,2,45,80,223524708
28,24,14,Improv_Melody,376,2,69,80,223526784
28,24,14,Improv_Melody,377,5,42,127,223529248
28,24,14,Improv_Melody,378,1,48,56,223985448
28,24,14,Improv_Melody,379,1,38,35,223997920
28,24,14,Improv_Melody,380,5,42,110,224022944
28,24,14,Improv_Melody,381,1,48,49,224142408
28,24,14,Improv_Melody,382,1,48,49,224293200
28,24,14,Improv_Melody,383,1,48,64,224503680
28,24,14,Improv_Melody,384,5,42,110,224522792
28,24,14,Improv_Melody,385,1,48,60,224982812
28,24,14,Improv_Melody,386,1,38,55,224992740
28,24,14,Improv_Melody,387,5,42,110,225022328
28,24,14,Improv_Melody,388,1,48,51,225484264
28,24,14,Improv_Melody,389,5,42,127,225523268
28,24,14,Improv_Melody,390,1,48,62,225987028
28,24,14,Improv_Melody,391,1,38,51,225995840
28,24,14,Improv_Melody,392,5,42,110,226022728
28,24,14,Improv_Melody,393,1,48,53,226445596
28,24,14,Improv_Melody,394,5,42,110,226522768
28,24,14,Improv_Melody,395,1,48,53,226597828
28,24,14,Improv_Melody,396,1,48,49,226753564
28,24,14,Improv_Melody,397,1,48,65,226998004
28,24,14,Improv_Melody,398,5,42,110,227022204
28,24,14,Improv_Melody,399,1,38,36,227043652
28,24,14,Improv_Melody,400,1,48,49,227174572
28,24,14,Improv_Melody,401,1,48,51,227343164
28,24,14,Improv_Melody,402,1,48,61,227523740
28,24,14,Improv_Melody,403,2,41,80,227527116
28,24,14,Improv_Melody,404,2,65,80,227529116
28,24,14,Improv_Melody,405,5,42,127,227531648
28,24,14,Improv_Melody,406,1,48,58,228006232
28,24,14,Improv_Melody,407,1,38,59,228009576
28,24,14,Improv_Melody,408,5,42,110,228022656
28,24,14,Improv_Melody,409,1,48,38,228503640
28,24,14,Improv_Melody,410,5,42,110,228522524
28,24,14,Improv_Melody,411,1,48,60,228999228
28,24,14,Improv_Melody,412,1,38,48,229008256
28,24,14,Improv_Melody,413,5,42,110,229022956
28,24,14,Improv_Melody,414,1,48,51,229483548
28,24,14,Improv_Melody,415,5,42,127,229522852
28,24,14,Improv_Melody,416,1,48,50,229963052
28,24,14,Improv_Melody,417,1,38,48,229973132
28,24,14,Improv_Melody,418,5,42,110,230022456
28,24,14,Improv_Melody,419,1,48,47,230349620
28,24,14,Improv_Melody,420,1,38,51,230464564
28,24,14,Improv_Melody,421,5,42,110,230522492
28,24,14,Improv_Melody,422,1,48,54,230960152
28,24,14,Improv_Melody,423,5,42,110,231023016
28,24,14,Improv_Melody,424,1,48,32,231500912
28,24,14,Improv_Melody,425,2,48,80,231525372
28,24,14,Improv_Melody,426,2,72,80,231527452
28,24,14,Improv_Melody,427,5,42,127,231529688
28,24,14,Improv_Melody,428,1,48,46,232021084
28,24,14,Improv_Melody,429,5,42,110,232022804
28,24,14,Improv_Melody,430,1,38,50,232027868
28,24,14,Improv_Melody,431,1,48,40,232504032
28,24,14,Improv_Melody,0,9999,9999,9999,151520360
28,24,14,Improv_Melody,1,9999,9999,9999,152020048
28,24,14,Improv_Melody,2,9999,9999,9999,152520816
28,24,14,Improv_Melody,3,9999,9999,9999,153020464
28,24,14,Improv_Melody,4,9999,9999,9999,153520236
28,24,14,Improv_Melody,5,9999,9999,9999,154019956
28,24,14,Improv_Melody,6,9999,9999,9999,154520652
28,24,14,Improv_Melody,7,9999,9999,9999,155020372
28,24,14,Improv_Melody,8,9999,9999,9999,155520096
28,24,14,Improv_Melody,9,9999,9999,9999,156019832
28,24,14,Improv_Melody,10,9999,9999,9999,156520524
28,24,14,Improv_Melody,11,9999,9999,9999,157020248
28,24,14,Improv_Melody,12,9999,9999,9999,157519968
28,24,14,Improv_Melody,13,9999,9999,9999,158020664
28,24,14,Improv_Melody,14,9999,9999,9999,158520384
28,24,14,Improv_Melody,15,9999,9999,9999,159020108
28,24,14,Improv_Melody,16,9999,9999,9999,159519828
28,24,14,Improv_Melody,17,9999,9999,9999,160020536
28,24,14,Improv_Melody,18,9999,9999,9999,160520256
28,24,14,Improv_Melody,19,9999,9999,9999,161019980
28,24,14,Improv_Melody,20,9999,9999,9999,161520748
28,24,14,Improv_Melody,21,9999,9999,9999,162020468
28,24,14,Improv_Melody,22,9999,9999,9999,162520116
28,24,14,Improv_Melody,23,9999,9999,9999,163019836
28,24,14,Improv_Melody,24,9999,9999,9999,163520604
28,24,14,Improv_Melody,25,9999,9999,9999,164020340
28,24,14,Improv_Melody,26,9999,9999,9999,164520036
28,24,14,Improv_Melody,27,9999,9999,9999,165020728
28,24,14,Improv_Melody,28,9999,9999,9999,165520452
28,24,14,Improv_Melody,29,9999,9999,9999,166020172
28,24,14,Improv_Melody,30,9999,9999,9999,166519896
28,24,14,Improv_Melody,31,9999,9999,9999,167020664
28,24,14,Improv_Melody,32,9999,9999,9999,167520328
28,24,14,Improv_Melody,33,9999,9999,9999,168020024
28,24,14,Improv_Melody,34,9999,9999,9999,168520792
28,24,14,Improv_Melody,35,9999,9999,9999,169020472
28,24,14,Improv_Melody,36,9999,9999,9999,169520220
28,24,14,Improv_Melody,37,9999,9999,9999,170019900
28,24,14,Improv_Melody,38,9999,9999,9999,170520692
28,24,14,Improv_Melody,39,9999,9999,9999,171020376
28,24,14,Improv_Melody,40,9999,9999,9999,171520108
28,24,14,Improv_Melody,41,9999,9999,9999,172019760
28,24,14,Improv_Melody,42,9999,9999,9999,172520532
28,24,14,Improv_Melody,43,9999,9999,9999,173020216
28,24,14,Improv_Melody,44,9999,9999,9999,173519960
28,24,14,Improv_Melody,45,9999,9999,9999,174020688
28,24,14,Improv_Melody,46,9999,9999,9999,174520432
28,24,14,Improv_Melody,47,9999,9999,9999,175020088
28,24,14,Improv_Melody,48,9999,9999,9999,175519812
28,24,14,Improv_Melody,49,9999,9999,9999,176020532
28,24,14,Improv_Melody,50,9999,9999,9999,176520280
28,24,14,Improv_Melody,51,9999,9999,9999,177019960
28,24,14,Improv_Melody,52,9999,9999,9999,177520756
28,24,14,Improv_Melody,53,9999,9999,9999,178020436
28,24,14,Improv_Melody,54,9999,9999,9999,178520184
28,24,14,Improv_Melody,55,9999,9999,9999,179019864
28,24,14,Improv_Melody,56,9999,9999,9999,179520584
28,24,14,Improv_Melody,57,9999,9999,9999,180020296
28,24,14,Improv_Melody,58,9999,9999,9999,180520036
28,24,14,Improv_Melody,59,9999,9999,9999,181020764
28,24,14,Improv_Melody,60,9999,9999,9999,181520440
28,24,14,Improv_Melody,61,9999,9999,9999,182020212
28,24,14,Improv_Melody,62,9999,9999,9999,182519912
28,24,14,Improv_Melody,63,9999,9999,9999,183020660
28,24,14,Improv_Melody,64,9999,9999,9999,183520336
28,24,14,Improv_Melody,65,9999,9999,9999,184020032
28,24,14,Improv_Melody,66,9999,9999,9999,184520808
28,24,14,Improv_Melody,67,9999,9999,9999,185020504
28,24,14,Improv_Melody,68,9999,9999,9999,185520176
28,24,14,Improv_Melody,69,9999,9999,9999,186019908
28,24,14,Improv_Melody,70,9999,9999,9999,186520684
28,24,14,Improv_Melody,71,9999,9999,9999,187020380
28,24,14,Improv_Melody,72,9999,9999,9999,187520052
28,24,14,Improv_Melody,73,9999,9999,9999,188019820
28,24,14,Improv_Melody,74,9999,9999,9999,188520524
28,24,14,Improv_Melody,75,9999,9999,9999,189020220
28,24,14,Improv_Melody,76,9999,9999,9999,189519964
28,24,14,Improv_Melody,77,9999,9999,9999,190020692
28,24,14,Improv_Melody,78,9999,9999,9999,190520424
28,24,14,Improv_Melody,79,9999,9999,9999,191020120
28,24,14,Improv_Melody,80,9999,9999,9999,191519852
28,24,14,Improv_Melody,81,9999,9999,9999,192020576
28,24,14,Improv_Melody,82,9999,9999,9999,192520276
28,24,14,Improv_Melody,83,9999,9999,9999,193020000
28,24,14,Improv_Melody,84,9999,9999,9999,193520752
28,24,14,Improv_Melody,85,9999,9999,9999,194020472
28,24,14,Improv_Melody,86,9999,9999,9999,194520176
28,24,14,Improv_Melody,87,9999,9999,9999,195019888
28,24,14,Improv_Melody,88,9999,9999,9999,195520604
28,24,14,Improv_Melody,89,9999,9999,9999,196020296
28,24,14,Improv_Melody,90,9999,9999,9999,196520012
28,24,14,Improv_Melody,91,9999,9999,9999,197020756
28,24,14,Improv_Melody,92,9999,9999,9999,197520496
28,24,14,Improv_Melody,93,9999,9999,9999,198020156
28,24,14,Improv_Melody,94,9999,9999,9999,198519900
28,24,14,Improv_Melody,95,9999,9999,9999,199020632
28,24,14,Improv_Melody,96,9999,9999,9999,199520368
28,24,14,Improv_Melody,97,9999,9999,9999,200020056
28,24,14,Improv_Melody,98,9999,9999,9999,200520764
28,24,14,Improv_Melody,99,9999,9999,9999,201020512
28,24,14,Improv_Melody,100,9999,9999,9999,201520240
28,24,14,Improv_Melody,101,9999,9999,9999,202019920
28,24,14,Improv_Melody,102,9999,9999,9999,202520640
28,24,14,Improv_Melody,103,9999,9999,9999,203020400
28,24,14,Improv_Melody,104,9999,9999,9999,203520068
28,24,14,Improv_Melody,105,9999,9999,9999,204019760
28,24,14,Improv_Melody,106,9999,9999,9999,204520512
28,24,14,Improv_Melody,107,9999,9999,9999,205020272
28,24,14,Improv_Melody,108,9999,9999,9999,205519924
28,24,14,Improv_Melody,109,9999,9999,9999,206020724
28,24,14,Improv_Melody,110,9999,9999,9999,206520404
28,24,14,Improv_Melody,111,9999,9999,9999,207020104
28,24,14,Improv_Melody,112,9999,9999,9999,207519800
28,24,14,Improv_Melody,113,9999,9999,9999,208020560
28,24,14,Improv_Melody,114,9999,9999,9999,208520272
28,24,14,Improv_Melody,115,9999,9999,9999,209020024
28,24,14,Improv_Melody,116,9999,9999,9999,209520744
28,24,14,Improv_Melody,117,9999,9999,9999,210020424
28,24,14,Improv_Melody,118,9999,9999,9999,210520172
28,24,14,Improv_Melody,119,9999,9999,9999,211019860
28,24,14,Improv_Melody,120,9999,9999,9999,211520584
28,24,14,Improv_Melody,121,9999,9999,9999,212020296
28,24,14,Improv_Melody,122,9999,9999,9999,212520008
28,24,14,Improv_Melody,123,9999,9999,9999,213020736
28,24,14,Improv_Melody,124,9999,9999,9999,213520488
28,24,14,Improv_Melody,125,9999,9999,9999,214020184
28,24,14,Improv_Melody,126,9999,9999,9999,214519864
28,24,14,Improv_Melody,127,9999,9999,9999,215020604
28,24,14,Improv_Melody,128,9999,9999,9999,215520356
28,24,14,Improv_Melody,129,9999,9999,9999,216020028
28,24,14,Improv_Melody,130,9999,9999,9999,216520800
28,24,14,Improv_Melody,131,9999,9999,9999,217020532
28,24,14,Improv_Melody,132,9999,9999,9999,217520184
28,24,14,Improv_Melody,133,9999,9999,9999,218019912
28,24,14,Improv_Melody,134,9999,9999,9999,218520632
28,24,14,Improv_Melody,135,9999,9999,9999,219020388
28,24,14,Improv_Melody,136,9999,9999,9999,219520072
28,24,14,Improv_Melody,137,9999,9999,9999,220019816
28,24,14,Improv_Melody,138,9999,9999,9999,220520496
28,24,14,Improv_Melody,139,9999,9999,9999,221020264
28,24,14,Improv_Melody,140,9999,9999,9999,221519980
28,24,14,Improv_Melody,141,9999,9999,9999,222020708
28,24,14,Improv_Melody,142,9999,9999,9999,222520380
28,24,14,Improv_Melody,143,9999,9999,9999,223020136
28,24,14,Improv_Melody,144,9999,9999,9999,223519836
28,24,14,Improv_Melody,145,9999,9999,9999,224020576
28,24,14,Improv_Melody,146,9999,9999,9999,224520280
28,24,14,Improv_Melody,147,9999,9999,9999,225019960
28,24,14,Improv_Melody,148,9999,9999,9999,225520756
28,24,14,Improv_Melody,149,9999,9999,9999,226020436
28,24,14,Improv_Melody,150,9999,9999,9999,226520180
28,24,14,Improv_Melody,151,9999,9999,9999,227019840
28,24,14,Improv_Melody,152,9999,9999,9999,227520588
28,24,14,Improv_Melody,153,9999,9999,9999,228020288
28,24,14,Improv_Melody,154,9999,9999,9999,228520008
28,24,14,Improv_Melody,155,9999,9999,9999,229020740
28,24,14,Improv_Melody,156,9999,9999,9999,229520488
28,24,14,Improv_Melody,157,9999,9999,9999,230020168
28,24,14,Improv_Melody,158,9999,9999,9999,230519904
28,24,14,Improv_Melody,159,9999,9999,9999,231020652
28,24,14,Improv_Melody,160,9999,9999,9999,231520348
28,24,14,Improv_Melody,161,9999,9999,9999,232020072
