pid,taskRunCount,taskID,taskName,i,channel,pitch,velocity,microseconds
29,1,0,Ticks_Pract_8,0,5,42,127,1832396080
29,1,0,Ticks_Pract_8,1,5,42,127,1833195908
29,1,0,Ticks_Pract_8,2,5,42,127,1833995736
29,1,0,Ticks_Pract_8,3,5,42,127,1834796392
29,1,0,Ticks_Pract_8,4,5,42,127,1835596072
29,1,0,Ticks_Pract_8,5,1,48,26,1835613628
29,1,0,Ticks_Pract_8,6,1,48,25,1836370260
29,1,0,Ticks_Pract_8,7,5,42,127,1836395872
29,1,0,Ticks_Pract_8,8,1,48,40,1837160416
29,1,0,Ticks_Pract_8,9,5,42,127,1837195752
29,1,0,Ticks_Pract_8,10,1,48,21,1837936512
29,1,0,Ticks_Pract_8,11,5,42,127,1837996340
29,1,0,Ticks_Pract_8,12,1,48,23,1838717552
29,1,0,Ticks_Pract_8,13,5,42,127,1838796144
29,1,0,Ticks_Pract_8,14,1,48,28,1839543416
29,1,0,Ticks_Pract_8,15,5,42,127,1839595804
29,1,0,Ticks_Pract_8,16,5,42,127,1840395620
29,1,0,Ticks_Pract_8,17,1,48,29,1840410032
29,1,0,Ticks_Pract_8,18,5,42,127,1841196328
29,1,0,Ticks_Pract_8,19,1,48,24,1841213584
29,1,0,Ticks_Pract_8,20,5,42,127,1841996132
29,1,0,Ticks_Pract_8,21,1,48,26,1841998148
29,1,0,Ticks_Pract_8,22,5,42,127,1842795788
29,1,0,Ticks_Pract_8,23,1,48,14,1842942176
29,1,0,Ticks_Pract_8,24,1,48,21,1843593856
29,1,0,Ticks_Pract_8,25,5,42,127,1843595516
29,1,0,Ticks_Pract_8,26,1,48,30,1844369788
29,1,0,Ticks_Pract_8,27,5,42,127,1844396548
29,1,0,Ticks_Pract_8,28,1,48,26,1845098016
29,1,0,Ticks_Pract_8,29,5,42,127,1845196264
29,1,0,Ticks_Pract_8,30,1,48,16,1845968084
29,1,0,Ticks_Pract_8,31,5,42,127,1845995864
29,1,0,Ticks_Pract_8,32,1,48,39,1846748592
29,1,0,Ticks_Pract_8,33,5,42,127,1846795672
29,1,0,Ticks_Pract_8,34,1,48,30,1847595932
29,1,0,Ticks_Pract_8,35,5,42,127,1847597724
29,1,0,Ticks_Pract_8,36,5,42,127,1848396340
29,1,0,Ticks_Pract_8,37,1,48,36,1848446956
29,1,0,Ticks_Pract_8,38,1,48,34,1849134256
29,1,0,Ticks_Pract_8,39,5,42,127,1849195920
29,1,0,Ticks_Pract_8,40,1,48,34,1849903840
29,1,0,Ticks_Pract_8,41,5,42,127,1849995504
29,1,0,Ticks_Pract_8,42,1,48,31,1850745312
29,1,0,Ticks_Pract_8,43,5,42,127,1850796384
29,1,0,Ticks_Pract_8,44,1,48,30,1851549556
29,1,0,Ticks_Pract_8,45,5,42,127,1851596188
29,1,0,Ticks_Pract_8,46,1,48,25,1852354448
29,1,0,Ticks_Pract_8,47,5,42,127,1852395996
29,1,0,Ticks_Pract_8,48,5,42,127,1853195516
29,1,0,Ticks_Pract_8,49,5,42,127,1853996396
29,1,0,Ticks_Pract_8,50,5,42,127,1854796292
29,1,0,Ticks_Pract_8,51,5,42,127,1855595900
29,1,0,Ticks_Pract_8,52,1,48,30,1856351708
29,1,0,Ticks_Pract_8,0,9999,9999,9999,1832393788
29,1,0,Ticks_Pract_8,1,9999,9999,9999,1833193544
29,1,0,Ticks_Pract_8,2,9999,9999,9999,1833993300
29,1,0,Ticks_Pract_8,3,9999,9999,9999,1834794100
29,1,0,Ticks_Pract_8,4,9999,9999,9999,1835593784
29,1,0,Ticks_Pract_8,5,9999,9999,9999,1836393584
29,1,0,Ticks_Pract_8,6,9999,9999,9999,1837193316
29,1,0,Ticks_Pract_8,7,9999,9999,9999,1837994048
29,1,0,Ticks_Pract_8,8,9999,9999,9999,1838793780
29,1,0,Ticks_Pract_8,9,9999,9999,9999,1839593592
29,1,0,Ticks_Pract_8,10,9999,9999,9999,1840393332
29,1,0,Ticks_Pract_8,11,9999,9999,9999,1841194036
29,1,0,Ticks_Pract_8,12,9999,9999,9999,1841993844
29,1,0,Ticks_Pract_8,13,9999,9999,9999,1842793576
29,1,0,Ticks_Pract_8,14,9999,9999,9999,1843593328
29,1,0,Ticks_Pract_8,15,9999,9999,9999,1844394032
29,1,0,Ticks_Pract_8,16,9999,9999,9999,1845193828
29,1,0,Ticks_Pract_8,17,9999,9999,9999,1845993576
29,1,0,Ticks_Pract_8,18,9999,9999,9999,1846793308
29,1,0,Ticks_Pract_8,19,9999,9999,9999,1847594096
29,1,0,Ticks_Pract_8,20,9999,9999,9999,1848393828
29,1,0,Ticks_Pract_8,21,9999,9999,9999,1849193556
29,1,0,Ticks_Pract_8,22,9999,9999,9999,1849993288
29,1,0,Ticks_Pract_8,23,9999,9999,9999,1850794092
29,1,0,Ticks_Pract_8,24,9999,9999,9999,1851593828
29,1,0,Ticks_Pract_8,25,9999,9999,9999,1852393560
29,1,0,Ticks_Pract_8,26,9999,9999,9999,1853193300
29,1,0,Ticks_Pract_8,27,9999,9999,9999,1853994100
29,1,0,Ticks_Pract_8,28,9999,9999,9999,1854793780
29,1,0,Ticks_Pract_8,29,9999,9999,9999,1855593536
29,2,1,Ticks_Pract_5,0,5,42,127,1870578940
29,2,1,Ticks_Pract_5,1,5,42,127,1871078732
29,2,1,Ticks_Pract_5,2,5,42,127,1871578596
29,2,1,Ticks_Pract_5,3,5,42,127,1872079432
29,2,1,Ticks_Pract_5,4,5,42,127,1872579000
29,2,1,Ticks_Pract_5,5,5,42,127,1873078492
29,2,1,Ticks_Pract_5,6,5,42,127,1873579332
29,2,1,Ticks_Pract_5,7,1,48,35,1874045248
29,2,1,Ticks_Pract_5,8,5,42,127,1874079264
29,2,1,Ticks_Pract_5,9,1,48,30,1874521456
29,2,1,Ticks_Pract_5,10,5,42,127,1874578736
29,2,1,Ticks_Pract_5,11,1,48,32,1875021224
29,2,1,Ticks_Pract_5,12,5,42,127,1875078480
29,2,1,Ticks_Pract_5,13,1,48,35,1875508576
29,2,1,Ticks_Pract_5,14,5,42,127,1875579368
29,2,1,Ticks_Pract_5,15,1,48,35,1876012384
29,2,1,Ticks_Pract_5,16,5,42,127,1876079136
29,2,1,Ticks_Pract_5,17,1,48,34,1876537736
29,2,1,Ticks_Pract_5,18,5,42,127,1876578532
29,2,1,Ticks_Pract_5,19,1,48,36,1877039372
29,2,1,Ticks_Pract_5,20,5,42,127,1877079348
29,2,1,Ticks_Pract_5,21,1,48,39,1877524556
29,2,1,Ticks_Pract_5,22,5,42,127,1877579044
29,2,1,Ticks_Pract_5,23,1,48,40,1878061352
29,2,1,Ticks_Pract_5,24,5,42,127,1878079036
29,2,1,Ticks_Pract_5,25,1,48,40,1878542264
29,2,1,Ticks_Pract_5,26,5,42,127,1878578504
29,2,1,Ticks_Pract_5,27,1,48,37,1879014136
29,2,1,Ticks_Pract_5,28,5,42,127,1879079172
29,2,1,Ticks_Pract_5,29,1,48,42,1879500896
29,2,1,Ticks_Pract_5,30,5,42,127,1879579236
29,2,1,Ticks_Pract_5,31,1,48,30,1880000064
29,2,1,Ticks_Pract_5,32,5,42,127,1880078784
29,2,1,Ticks_Pract_5,33,1,48,41,1880508436
29,2,1,Ticks_Pract_5,34,5,42,127,1880578332
29,2,1,Ticks_Pract_5,35,1,48,40,1880980976
29,2,1,Ticks_Pract_5,36,5,42,127,1881079132
29,2,1,Ticks_Pract_5,37,1,48,39,1881489048
29,2,1,Ticks_Pract_5,38,5,42,127,1881578840
29,2,1,Ticks_Pract_5,39,1,48,36,1881998740
29,2,1,Ticks_Pract_5,40,5,42,127,1882078536
29,2,1,Ticks_Pract_5,41,1,48,38,1882465524
29,2,1,Ticks_Pract_5,42,5,42,127,1882579260
29,2,1,Ticks_Pract_5,43,1,48,40,1882989900
29,2,1,Ticks_Pract_5,44,5,42,127,1883079044
29,2,1,Ticks_Pract_5,45,1,48,40,1883476280
29,2,1,Ticks_Pract_5,46,5,42,127,1883578872
29,2,1,Ticks_Pract_5,47,1,48,39,1883972760
29,2,1,Ticks_Pract_5,48,5,42,127,1884078564
29,2,1,Ticks_Pract_5,49,1,48,43,1884453380
29,2,1,Ticks_Pract_5,50,5,42,127,1884579160
29,2,1,Ticks_Pract_5,51,1,48,41,1884976936
29,2,1,Ticks_Pract_5,52,5,42,127,1885078856
29,2,1,Ticks_Pract_5,53,1,48,37,1885425844
29,2,1,Ticks_Pract_5,54,5,42,127,1885578896
29,2,1,Ticks_Pract_5,55,1,48,36,1885949324
29,2,1,Ticks_Pract_5,56,5,42,127,1886079340
29,2,1,Ticks_Pract_5,57,1,48,40,1886495840
29,2,1,Ticks_Pract_5,58,5,42,127,1886579048
29,2,1,Ticks_Pract_5,59,1,48,34,1886975932
29,2,1,Ticks_Pract_5,60,5,42,127,1887078656
29,2,1,Ticks_Pract_5,61,1,48,40,1887497328
29,2,1,Ticks_Pract_5,62,5,42,127,1887578664
29,2,1,Ticks_Pract_5,63,1,48,35,1888004424
29,2,1,Ticks_Pract_5,64,5,42,127,1888079184
29,2,1,Ticks_Pract_5,65,1,48,39,1888502472
29,2,1,Ticks_Pract_5,66,5,42,127,1888578952
29,2,1,Ticks_Pract_5,67,1,48,36,1889031268
29,2,1,Ticks_Pract_5,68,5,42,127,1889078872
29,2,1,Ticks_Pract_5,69,1,48,36,1889506804
29,2,1,Ticks_Pract_5,70,5,42,127,1889579316
29,2,1,Ticks_Pract_5,71,1,48,38,1890018392
29,2,1,Ticks_Pract_5,72,5,42,127,1890079084
29,2,1,Ticks_Pract_5,73,1,48,38,1890506264
29,2,1,Ticks_Pract_5,0,9999,9999,9999,1870576728
29,2,1,Ticks_Pract_5,1,9999,9999,9999,1871076444
29,2,1,Ticks_Pract_5,2,9999,9999,9999,1871576160
29,2,1,Ticks_Pract_5,3,9999,9999,9999,1872076924
29,2,1,Ticks_Pract_5,4,9999,9999,9999,1872576568
29,2,1,Ticks_Pract_5,5,9999,9999,9999,1873076280
29,2,1,Ticks_Pract_5,6,9999,9999,9999,1873577044
29,2,1,Ticks_Pract_5,7,9999,9999,9999,1874076756
29,2,1,Ticks_Pract_5,8,9999,9999,9999,1874576448
29,2,1,Ticks_Pract_5,9,9999,9999,9999,1875076192
29,2,1,Ticks_Pract_5,10,9999,9999,9999,1875576932
29,2,1,Ticks_Pract_5,11,9999,9999,9999,1876076628
29,2,1,Ticks_Pract_5,12,9999,9999,9999,1876576324
29,2,1,Ticks_Pract_5,13,9999,9999,9999,1877077064
29,2,1,Ticks_Pract_5,14,9999,9999,9999,1877576756
29,2,1,Ticks_Pract_5,15,9999,9999,9999,1878076524
29,2,1,Ticks_Pract_5,16,9999,9999,9999,1878576220
29,2,1,Ticks_Pract_5,17,9999,9999,9999,1879076960
29,2,1,Ticks_Pract_5,18,9999,9999,9999,1879576656
29,2,1,Ticks_Pract_5,19,9999,9999,9999,1880076348
29,2,1,Ticks_Pract_5,20,9999,9999,9999,1880576120
29,2,1,Ticks_Pract_5,21,9999,9999,9999,1881076844
29,2,1,Ticks_Pract_5,22,9999,9999,9999,1881576556
29,2,1,Ticks_Pract_5,23,9999,9999,9999,1882076248
29,2,1,Ticks_Pract_5,24,9999,9999,9999,1882576972
29,2,1,Ticks_Pract_5,25,9999,9999,9999,1883076684
29,2,1,Ticks_Pract_5,26,9999,9999,9999,1883576436
29,2,1,Ticks_Pract_5,27,9999,9999,9999,1884076128
29,2,1,Ticks_Pract_5,28,9999,9999,9999,1884576872
29,2,1,Ticks_Pract_5,29,9999,9999,9999,1885076568
29,2,1,Ticks_Pract_5,30,9999,9999,9999,1885576312
29,2,1,Ticks_Pract_5,31,9999,9999,9999,1886076980
29,2,1,Ticks_Pract_5,32,9999,9999,9999,1886576764
29,2,1,Ticks_Pract_5,33,9999,9999,9999,1887076444
29,2,1,Ticks_Pract_5,34,9999,9999,9999,1887576152
29,2,1,Ticks_Pract_5,35,9999,9999,9999,1888076896
29,2,1,Ticks_Pract_5,36,9999,9999,9999,1888576592
29,2,1,Ticks_Pract_5,37,9999,9999,9999,1889076288
29,2,1,Ticks_Pract_5,38,9999,9999,9999,1889577028
29,2,1,Ticks_Pract_5,39,9999,9999,9999,1890076796
29,4,2,T1_SMS_8,0,5,42,127,2149057072
29,4,2,T1_SMS_8,1,5,42,127,2149856532
29,4,2,T1_SMS_8,2,5,42,127,2150657484
29,4,2,T1_SMS_8,3,1,48,28,2150679000
29,4,2,T1_SMS_8,4,1,48,40,2151386568
29,4,2,T1_SMS_8,5,5,42,127,2151456984
29,4,2,T1_SMS_8,6,1,48,33,2152119804
29,4,2,T1_SMS_8,7,5,42,127,2152256928
29,4,2,T1_SMS_8,8,1,48,33,2152982140
29,4,2,T1_SMS_8,9,5,42,127,2153056604
29,4,2,T1_SMS_8,10,1,48,43,2153772676
29,4,2,T1_SMS_8,11,5,42,127,2153857556
29,4,2,T1_SMS_8,12,1,48,36,2154551764
29,4,2,T1_SMS_8,13,5,42,127,2154657272
29,4,2,T1_SMS_8,14,1,48,43,2155346260
29,4,2,T1_SMS_8,15,5,42,127,2155456856
29,4,2,T1_SMS_8,16,1,48,37,2156146368
29,4,2,T1_SMS_8,17,5,42,127,2156256592
29,4,2,T1_SMS_8,18,1,48,46,2157017784
29,4,2,T1_SMS_8,19,5,42,127,2157057384
29,4,2,T1_SMS_8,20,1,48,34,2157847664
29,4,2,T1_SMS_8,21,5,42,127,2157857268
29,4,2,T1_SMS_8,22,1,48,22,2158655012
29,4,2,T1_SMS_8,23,5,42,127,2158656828
29,4,2,T1_SMS_8,24,1,48,36,2159423840
29,4,2,T1_SMS_8,25,5,42,127,2159456560
29,4,2,T1_SMS_8,26,1,48,42,2160202700
29,4,2,T1_SMS_8,27,5,42,127,2160257292
29,4,2,T1_SMS_8,28,1,48,43,2161008796
29,4,2,T1_SMS_8,29,5,42,127,2161057100
29,4,2,T1_SMS_8,30,1,48,43,2161779732
29,4,2,T1_SMS_8,31,5,42,127,2161857056
29,4,2,T1_SMS_8,32,1,48,40,2162582104
29,4,2,T1_SMS_8,33,5,42,127,2162656712
29,4,2,T1_SMS_8,34,1,48,42,2163429784
29,4,2,T1_SMS_8,35,5,42,127,2163457416
29,4,2,T1_SMS_8,36,1,48,42,2164206104
29,4,2,T1_SMS_8,37,5,42,127,2164257152
29,4,2,T1_SMS_8,38,1,48,37,2164968740
29,4,2,T1_SMS_8,39,5,42,127,2165056884
29,4,2,T1_SMS_8,40,1,48,46,2165814096
29,4,2,T1_SMS_8,41,5,42,127,2165856544
29,4,2,T1_SMS_8,42,1,48,39,2166586156
29,4,2,T1_SMS_8,43,5,42,127,2166657276
29,4,2,T1_SMS_8,44,1,48,31,2167418824
29,4,2,T1_SMS_8,45,5,42,127,2167457232
29,4,2,T1_SMS_8,46,5,42,127,2168256896
29,4,2,T1_SMS_8,47,1,48,35,2168284844
29,4,2,T1_SMS_8,48,5,42,127,2169056780
29,4,2,T1_SMS_8,49,1,48,25,2169080020
29,4,2,T1_SMS_8,50,5,42,127,2169857412
29,4,2,T1_SMS_8,51,1,48,38,2169882292
29,4,2,T1_SMS_8,52,5,42,127,2170657144
29,4,2,T1_SMS_8,53,1,48,33,2170689808
29,4,2,T1_SMS_8,54,1,48,35,2171449128
29,4,2,T1_SMS_8,55,5,42,127,2171456944
29,4,2,T1_SMS_8,56,5,42,127,2172256832
29,4,2,T1_SMS_8,57,1,48,37,2172272744
29,4,2,T1_SMS_8,58,5,42,127,2173057488
29,4,2,T1_SMS_8,59,1,48,40,2173060608
29,4,2,T1_SMS_8,60,1,48,42,2173823968
29,4,2,T1_SMS_8,61,5,42,127,2173856996
29,4,2,T1_SMS_8,62,1,48,15,2173933624
29,4,2,T1_SMS_8,63,1,48,34,2174650012
29,4,2,T1_SMS_8,64,5,42,127,2174656856
29,4,2,T1_SMS_8,65,5,42,127,2175456520
29,4,2,T1_SMS_8,66,1,48,40,2175519400
29,4,2,T1_SMS_8,67,5,42,127,2176257524
29,4,2,T1_SMS_8,68,1,48,29,2176316596
29,4,2,T1_SMS_8,69,5,42,127,2177057032
29,4,2,T1_SMS_8,70,1,48,32,2177140556
29,4,2,T1_SMS_8,71,5,42,127,2177856768
29,4,2,T1_SMS_8,72,1,48,28,2177923264
29,4,2,T1_SMS_8,73,5,42,127,2178656576
29,4,2,T1_SMS_8,74,1,48,36,2178662460
29,4,2,T1_SMS_8,75,1,48,27,2179436216
29,4,2,T1_SMS_8,76,5,42,127,2179457444
29,4,2,T1_SMS_8,77,1,48,38,2180164516
29,4,2,T1_SMS_8,78,5,42,127,2180257388
29,4,2,T1_SMS_8,79,1,48,31,2180994348
29,4,2,T1_SMS_8,80,5,42,127,2181056840
29,4,2,T1_SMS_8,81,1,48,31,2181768652
29,4,2,T1_SMS_8,82,5,42,127,2181856572
29,4,2,T1_SMS_8,83,1,48,38,2182641088
29,4,2,T1_SMS_8,84,5,42,127,2182657280
29,4,2,T1_SMS_8,85,1,48,38,2183432964
29,4,2,T1_SMS_8,86,5,42,127,2183457084
29,4,2,T1_SMS_8,87,5,42,127,2184256900
29,4,2,T1_SMS_8,88,1,48,43,2184272656
29,4,2,T1_SMS_8,89,5,42,127,2185056484
29,4,2,T1_SMS_8,90,1,48,34,2185085432
29,4,2,T1_SMS_8,91,5,42,127,2185857516
29,4,2,T1_SMS_8,92,1,48,33,2185893992
29,4,2,T1_SMS_8,93,5,42,127,2186657100
29,4,2,T1_SMS_8,94,1,48,37,2186894880
29,4,2,T1_SMS_8,95,5,42,127,2187457056
29,4,2,T1_SMS_8,96,1,48,29,2187794624
29,4,2,T1_SMS_8,97,5,42,127,2188256492
29,4,2,T1_SMS_8,98,1,48,20,2188548580
29,4,2,T1_SMS_8,99,5,42,127,2189057348
29,4,2,T1_SMS_8,100,1,48,23,2189379952
29,4,2,T1_SMS_8,101,5,42,127,2189857004
29,4,2,T1_SMS_8,102,1,48,21,2190216808
29,4,2,T1_SMS_8,103,5,42,127,2190657036
29,4,2,T1_SMS_8,104,1,48,35,2190993580
29,4,2,T1_SMS_8,105,5,42,127,2191456472
29,4,2,T1_SMS_8,106,1,48,31,2191817100
29,4,2,T1_SMS_8,107,5,42,127,2192257276
29,4,2,T1_SMS_8,108,1,48,23,2192626252
29,4,2,T1_SMS_8,109,5,42,127,2193057160
29,4,2,T1_SMS_8,110,1,48,38,2193399656
29,4,2,T1_SMS_8,111,5,42,127,2193856744
29,4,2,T1_SMS_8,112,1,48,24,2194231028
29,4,2,T1_SMS_8,113,5,42,127,2194656920
29,4,2,T1_SMS_8,114,1,48,34,2195031956
29,4,2,T1_SMS_8,115,5,42,127,2195457332
29,4,2,T1_SMS_8,116,1,48,38,2195856024
29,4,2,T1_SMS_8,117,5,42,127,2196257064
29,4,2,T1_SMS_8,118,1,48,30,2196704080
29,4,2,T1_SMS_8,119,5,42,127,2197056872
29,4,2,T1_SMS_8,120,1,48,20,2197581604
29,4,2,T1_SMS_8,121,5,42,127,2197856756
29,4,2,T1_SMS_8,122,1,48,27,2198269444
29,4,2,T1_SMS_8,123,5,42,127,2198657560
29,4,2,T1_SMS_8,124,1,48,17,2199107172
29,4,2,T1_SMS_8,125,5,42,127,2199457072
29,4,2,T1_SMS_8,126,1,48,32,2199844520
29,4,2,T1_SMS_8,127,5,42,127,2200256804
29,4,2,T1_SMS_8,128,1,48,32,2200762984
29,4,2,T1_SMS_8,129,5,42,127,2201056612
29,4,2,T1_SMS_8,130,1,48,32,2201655240
29,4,2,T1_SMS_8,131,5,42,127,2201857392
29,4,2,T1_SMS_8,132,1,48,27,2202612596
29,4,2,T1_SMS_8,133,5,42,127,2202657068
29,4,2,T1_SMS_8,134,5,42,127,2203456732
29,4,2,T1_SMS_8,135,1,48,35,2203523600
29,4,2,T1_SMS_8,136,5,42,127,2204256612
29,4,2,T1_SMS_8,137,1,48,32,2204336428
29,4,2,T1_SMS_8,138,5,42,127,2205057344
29,4,2,T1_SMS_8,139,1,48,26,2205084320
29,4,2,T1_SMS_8,140,5,42,127,2205857300
29,4,2,T1_SMS_8,141,1,48,27,2205892580
29,4,2,T1_SMS_8,142,5,42,127,2206656960
29,4,2,T1_SMS_8,143,1,48,20,2206725376
29,4,2,T1_SMS_8,144,1,48,29,2207450668
29,4,2,T1_SMS_8,145,5,42,127,2207456612
29,4,2,T1_SMS_8,146,5,42,127,2208257472
29,4,2,T1_SMS_8,147,1,48,22,2208291332
29,4,2,T1_SMS_8,148,5,42,127,2209057280
29,4,2,T1_SMS_8,149,1,48,29,2209103184
29,4,2,T1_SMS_8,150,5,42,127,2209856940
29,4,2,T1_SMS_8,151,1,48,27,2209925676
29,4,2,T1_SMS_8,152,5,42,127,2210656600
29,4,2,T1_SMS_8,153,1,48,27,2210754356
29,4,2,T1_SMS_8,154,5,42,127,2211457256
29,4,2,T1_SMS_8,155,1,48,27,2211493656
29,4,2,T1_SMS_8,156,1,48,36,2212254624
29,4,2,T1_SMS_8,157,5,42,127,2212257056
29,4,2,T1_SMS_8,158,1,48,40,2213040376
29,4,2,T1_SMS_8,159,5,42,127,2213057088
29,4,2,T1_SMS_8,160,5,42,127,2213856752
29,4,2,T1_SMS_8,161,1,48,43,2213996448
29,4,2,T1_SMS_8,162,5,42,127,2214657308
29,4,2,T1_SMS_8,163,1,48,39,2214806608
29,4,2,T1_SMS_8,164,5,42,127,2215457264
29,4,2,T1_SMS_8,165,1,48,33,2215656076
29,4,2,T1_SMS_8,166,5,42,127,2216257000
29,4,2,T1_SMS_8,167,1,48,40,2216440104
29,4,2,T1_SMS_8,168,5,42,127,2217056732
29,4,2,T1_SMS_8,169,1,48,34,2217208496
29,4,2,T1_SMS_8,170,5,42,127,2217857612
29,4,2,T1_SMS_8,171,1,48,23,2218063356
29,4,2,T1_SMS_8,172,5,42,127,2218657196
29,4,2,T1_SMS_8,173,1,48,31,2218867804
29,4,2,T1_SMS_8,174,5,42,127,2219456852
29,4,2,T1_SMS_8,175,1,48,34,2219605748
29,4,2,T1_SMS_8,176,5,42,127,2220256736
29,4,2,T1_SMS_8,177,1,48,32,2220352828
29,4,2,T1_SMS_8,178,5,42,127,2221057664
29,4,2,T1_SMS_8,179,1,48,35,2221063020
29,4,2,T1_SMS_8,180,1,48,32,2221840676
29,4,2,T1_SMS_8,181,5,42,127,2221857240
29,4,2,T1_SMS_8,182,1,48,32,2222590444
29,4,2,T1_SMS_8,183,5,42,127,2222656824
29,4,2,T1_SMS_8,184,1,48,26,2223433628
29,4,2,T1_SMS_8,185,5,42,127,2223456780
29,4,2,T1_SMS_8,186,5,42,127,2224257592
29,4,2,T1_SMS_8,187,1,48,29,2224261832
29,4,2,T1_SMS_8,188,1,48,33,2225031408
29,4,2,T1_SMS_8,189,5,42,127,2225057020
29,4,2,T1_SMS_8,190,1,48,44,2225847672
29,4,2,T1_SMS_8,191,5,42,127,2225856980
29,4,2,T1_SMS_8,192,1,48,42,2226646804
29,4,2,T1_SMS_8,193,5,42,127,2226656564
29,4,2,T1_SMS_8,194,5,42,127,2227457500
29,4,2,T1_SMS_8,195,1,48,44,2227462192
29,4,2,T1_SMS_8,196,5,42,127,2228257084
29,4,2,T1_SMS_8,197,1,48,33,2228260428
29,4,2,T1_SMS_8,198,1,48,36,2229017356
29,4,2,T1_SMS_8,199,5,42,127,2229056812
29,4,2,T1_SMS_8,200,1,48,35,2229766904
29,4,2,T1_SMS_8,201,5,42,127,2229856620
29,4,2,T1_SMS_8,202,1,48,40,2230648340
29,4,2,T1_SMS_8,203,5,42,127,2230657352
29,4,2,T1_SMS_8,204,5,42,127,2231457312
29,4,2,T1_SMS_8,205,1,48,32,2231482120
29,4,2,T1_SMS_8,206,1,48,37,2232242044
29,4,2,T1_SMS_8,207,5,42,127,2232256964
29,4,2,T1_SMS_8,208,5,42,127,2233056480
29,4,2,T1_SMS_8,209,1,48,38,2233075976
29,4,2,T1_SMS_8,210,5,42,127,2233857412
29,4,2,T1_SMS_8,211,1,48,35,2233861576
29,4,2,T1_SMS_8,212,5,42,127,2234657292
29,4,2,T1_SMS_8,213,1,48,37,2234689356
29,4,2,T1_SMS_8,214,1,48,32,2235400960
29,4,2,T1_SMS_8,215,5,42,127,2235456944
29,4,2,T1_SMS_8,216,1,48,33,2236177208
29,4,2,T1_SMS_8,217,5,42,127,2236256604
29,4,2,T1_SMS_8,218,1,48,36,2237029372
29,4,2,T1_SMS_8,219,5,42,127,2237057260
29,4,2,T1_SMS_8,220,1,48,40,2237822256
29,4,2,T1_SMS_8,221,5,42,127,2237857144
29,4,2,T1_SMS_8,222,5,42,127,2238656808
29,4,2,T1_SMS_8,223,1,48,35,2238680128
29,4,2,T1_SMS_8,224,1,48,31,2239419852
29,4,2,T1_SMS_8,225,5,42,127,2239456612
29,4,2,T1_SMS_8,226,5,42,127,2240257248
29,4,2,T1_SMS_8,227,1,48,36,2240340176
29,4,2,T1_SMS_8,228,5,42,127,2241057132
29,4,2,T1_SMS_8,229,1,48,19,2241106472
29,4,2,T1_SMS_8,230,5,42,127,2241856864
29,4,2,T1_SMS_8,231,1,48,38,2241902692
29,4,2,T1_SMS_8,232,5,42,127,2242656748
29,4,2,T1_SMS_8,233,1,48,33,2242676416
29,4,2,T1_SMS_8,234,1,48,19,2243452868
29,4,2,T1_SMS_8,235,5,42,127,2243457248
29,4,2,T1_SMS_8,236,5,42,127,2244256988
29,4,2,T1_SMS_8,237,1,48,18,2244261976
29,4,2,T1_SMS_8,238,1,48,33,2245011424
29,4,2,T1_SMS_8,0,9999,9999,9999,2149054556
29,4,2,T1_SMS_8,1,9999,9999,9999,2149854312
29,4,2,T1_SMS_8,2,9999,9999,9999,2150655044
29,4,2,T1_SMS_8,3,9999,9999,9999,2151454768
29,4,2,T1_SMS_8,4,9999,9999,9999,2152254564
29,4,2,T1_SMS_8,5,9999,9999,9999,2153054308
29,4,2,T1_SMS_8,6,9999,9999,9999,2153855040
29,4,2,T1_SMS_8,7,9999,9999,9999,2154654832
29,4,2,T1_SMS_8,8,9999,9999,9999,2155454564
29,4,2,T1_SMS_8,9,9999,9999,9999,2156254300
29,4,2,T1_SMS_8,10,9999,9999,9999,2157055092
29,4,2,T1_SMS_8,11,9999,9999,9999,2157854828
29,4,2,T1_SMS_8,12,9999,9999,9999,2158654560
29,4,2,T1_SMS_8,13,9999,9999,9999,2159454272
29,4,2,T1_SMS_8,14,9999,9999,9999,2160255076
29,4,2,T1_SMS_8,15,9999,9999,9999,2161054808
29,4,2,T1_SMS_8,16,9999,9999,9999,2161854540
29,4,2,T1_SMS_8,17,9999,9999,9999,2162654272
29,4,2,T1_SMS_8,18,9999,9999,9999,2163455052
29,4,2,T1_SMS_8,19,9999,9999,9999,2164254788
29,4,2,T1_SMS_8,20,9999,9999,9999,2165054520
29,4,2,T1_SMS_8,21,9999,9999,9999,2165854252
29,4,2,T1_SMS_8,22,9999,9999,9999,2166655060
29,4,2,T1_SMS_8,23,9999,9999,9999,2167454792
29,4,2,T1_SMS_8,24,9999,9999,9999,2168254532
29,4,2,T1_SMS_8,25,9999,9999,9999,2169054264
29,4,2,T1_SMS_8,26,9999,9999,9999,2169855044
29,4,2,T1_SMS_8,27,9999,9999,9999,2170654776
29,4,2,T1_SMS_8,28,9999,9999,9999,2171454576
29,4,2,T1_SMS_8,29,9999,9999,9999,2172254320
29,4,2,T1_SMS_8,30,9999,9999,9999,2173055048
29,4,2,T1_SMS_8,31,9999,9999,9999,2173854776
29,4,2,T1_SMS_8,32,9999,9999,9999,2174654564
29,4,2,T1_SMS_8,33,9999,9999,9999,2175454304
29,4,2,T1_SMS_8,34,9999,9999,9999,2176255084
29,4,2,T1_SMS_8,35,9999,9999,9999,2177054816
29,4,2,T1_SMS_8,36,9999,9999,9999,2177854548
29,4,2,T1_SMS_8,37,9999,9999,9999,2178654284
29,4,2,T1_SMS_8,38,9999,9999,9999,2179455080
29,4,2,T1_SMS_8,39,9999,9999,9999,2180254832
29,4,2,T1_SMS_8,40,9999,9999,9999,2181054548
29,4,2,T1_SMS_8,41,9999,9999,9999,2181854280
29,4,2,T1_SMS_8,42,9999,9999,9999,2182655060
29,4,2,T1_SMS_8,43,9999,9999,9999,2183454792
29,4,2,T1_SMS_8,44,9999,9999,9999,2184254536
29,4,2,T1_SMS_8,45,9999,9999,9999,2185054268
29,4,2,T1_SMS_8,46,9999,9999,9999,2185855072
29,4,2,T1_SMS_8,47,9999,9999,9999,2186654808
29,4,2,T1_SMS_8,48,9999,9999,9999,2187454540
29,4,2,T1_SMS_8,49,9999,9999,9999,2188254276
29,4,2,T1_SMS_8,50,9999,9999,9999,2189055056
29,4,2,T1_SMS_8,51,9999,9999,9999,2189854788
29,4,2,T1_SMS_8,52,9999,9999,9999,2190654520
29,4,2,T1_SMS_8,53,9999,9999,9999,2191454252
29,4,2,T1_SMS_8,54,9999,9999,9999,2192255060
29,4,2,T1_SMS_8,55,9999,9999,9999,2193054792
29,4,2,T1_SMS_8,56,9999,9999,9999,2193854524
29,4,2,T1_SMS_8,57,9999,9999,9999,2194654260
29,4,2,T1_SMS_8,58,9999,9999,9999,2195455036
29,4,2,T1_SMS_8,59,9999,9999,9999,2196254772
29,4,2,T1_SMS_8,60,9999,9999,9999,2197054580
29,4,2,T1_SMS_8,61,9999,9999,9999,2197854316
29,4,2,T1_SMS_8,62,9999,9999,9999,2198655048
29,4,2,T1_SMS_8,63,9999,9999,9999,2199454780
29,4,2,T1_SMS_8,64,9999,9999,9999,2200254512
29,4,2,T1_SMS_8,65,9999,9999,9999,2201054320
29,4,2,T1_SMS_8,66,9999,9999,9999,2201855024
29,4,2,T1_SMS_8,67,9999,9999,9999,2202654772
29,4,2,T1_SMS_8,68,9999,9999,9999,2203454512
29,4,2,T1_SMS_8,69,9999,9999,9999,2204254320
29,4,2,T1_SMS_8,70,9999,9999,9999,2205055052
29,4,2,T1_SMS_8,71,9999,9999,9999,2205854788
29,4,2,T1_SMS_8,72,9999,9999,9999,2206654520
29,4,2,T1_SMS_8,73,9999,9999,9999,2207454320
29,4,2,T1_SMS_8,74,9999,9999,9999,2208255032
29,4,2,T1_SMS_8,75,9999,9999,9999,2209054840
29,4,2,T1_SMS_8,76,9999,9999,9999,2209854572
29,4,2,T1_SMS_8,77,9999,9999,9999,2210654308
29,4,2,T1_SMS_8,78,9999,9999,9999,2211455036
29,4,2,T1_SMS_8,79,9999,9999,9999,2212254764
29,4,2,T1_SMS_8,80,9999,9999,9999,2213054572
29,4,2,T1_SMS_8,81,9999,9999,9999,2213854312
29,4,2,T1_SMS_8,82,9999,9999,9999,2214655092
29,4,2,T1_SMS_8,83,9999,9999,9999,2215454824
29,4,2,T1_SMS_8,84,9999,9999,9999,2216254560
29,4,2,T1_SMS_8,85,9999,9999,9999,2217054292
29,4,2,T1_SMS_8,86,9999,9999,9999,2217855096
29,4,2,T1_SMS_8,87,9999,9999,9999,2218654828
29,4,2,T1_SMS_8,88,9999,9999,9999,2219454560
29,4,2,T1_SMS_8,89,9999,9999,9999,2220254296
29,4,2,T1_SMS_8,90,9999,9999,9999,2221055072
29,4,2,T1_SMS_8,91,9999,9999,9999,2221854800
29,4,2,T1_SMS_8,92,9999,9999,9999,2222654532
29,4,2,T1_SMS_8,93,9999,9999,9999,2223454264
29,4,2,T1_SMS_8,94,9999,9999,9999,2224255080
29,4,2,T1_SMS_8,95,9999,9999,9999,2225054804
29,4,2,T1_SMS_8,96,9999,9999,9999,2225854540
29,4,2,T1_SMS_8,97,9999,9999,9999,2226654272
29,4,2,T1_SMS_8,98,9999,9999,9999,2227455060
29,4,2,T1_SMS_8,99,9999,9999,9999,2228254792
29,4,2,T1_SMS_8,100,9999,9999,9999,2229054520
29,4,2,T1_SMS_8,101,9999,9999,9999,2229854256
29,4,2,T1_SMS_8,102,9999,9999,9999,2230655060
29,4,2,T1_SMS_8,103,9999,9999,9999,2231454796
29,4,2,T1_SMS_8,104,9999,9999,9999,2232254524
29,4,2,T1_SMS_8,105,9999,9999,9999,2233054264
29,4,2,T1_SMS_8,106,9999,9999,9999,2233855044
29,4,2,T1_SMS_8,107,9999,9999,9999,2234654780
29,4,2,T1_SMS_8,108,9999,9999,9999,2235454580
29,4,2,T1_SMS_8,109,9999,9999,9999,2236254312
29,4,2,T1_SMS_8,110,9999,9999,9999,2237055040
29,4,2,T1_SMS_8,111,9999,9999,9999,2237854780
29,4,2,T1_SMS_8,112,9999,9999,9999,2238654516
29,4,2,T1_SMS_8,113,9999,9999,9999,2239454320
29,4,2,T1_SMS_8,114,9999,9999,9999,2240255032
29,4,2,T1_SMS_8,115,9999,9999,9999,2241054840
29,4,2,T1_SMS_8,116,9999,9999,9999,2241854572
29,4,2,T1_SMS_8,117,9999,9999,9999,2242654308
29,4,2,T1_SMS_8,118,9999,9999,9999,2243455028
29,4,2,T1_SMS_8,119,9999,9999,9999,2244254768
29,5,4,T1_SMS_5,0,5,42,127,2265854204
29,5,4,T1_SMS_5,1,5,42,127,2266354072
29,5,4,T1_SMS_5,2,5,42,127,2266853788
29,5,4,T1_SMS_5,3,1,48,39,2267311208
29,5,4,T1_SMS_5,4,5,42,127,2267353496
29,5,4,T1_SMS_5,5,1,48,38,2267827208
29,5,4,T1_SMS_5,6,5,42,127,2267854164
29,5,4,T1_SMS_5,7,1,48,36,2268321660
29,5,4,T1_SMS_5,8,5,42,127,2268353860
29,5,4,T1_SMS_5,9,1,48,40,2268797872
29,5,4,T1_SMS_5,10,5,42,127,2268853704
29,5,4,T1_SMS_5,11,1,48,40,2269290812
29,5,4,T1_SMS_5,12,5,42,127,2269354372
29,5,4,T1_SMS_5,13,1,48,29,2269814016
29,5,4,T1_SMS_5,14,5,42,127,2269854140
29,5,4,T1_SMS_5,15,1,48,40,2270325008
29,5,4,T1_SMS_5,16,5,42,127,2270353912
29,5,4,T1_SMS_5,17,1,48,38,2270838464
29,5,4,T1_SMS_5,18,5,42,127,2270853608
29,5,4,T1_SMS_5,19,1,48,38,2271345312
29,5,4,T1_SMS_5,20,5,42,127,2271354548
29,5,4,T1_SMS_5,21,1,48,36,2271830776
29,5,4,T1_SMS_5,22,5,42,127,2271853848
29,5,4,T1_SMS_5,23,1,48,28,2272318204
29,5,4,T1_SMS_5,24,5,42,127,2272353616
29,5,4,T1_SMS_5,25,1,48,35,2272781848
29,5,4,T1_SMS_5,26,5,42,127,2272854360
29,5,4,T1_SMS_5,27,1,48,40,2273334428
29,5,4,T1_SMS_5,28,5,42,127,2273354056
29,5,4,T1_SMS_5,29,1,48,28,2273793580
29,5,4,T1_SMS_5,30,5,42,127,2273853676
29,5,4,T1_SMS_5,31,1,48,43,2274314216
29,5,4,T1_SMS_5,32,5,42,127,2274353596
29,5,4,T1_SMS_5,33,1,48,34,2274803440
29,5,4,T1_SMS_5,34,5,42,127,2274854560
29,5,4,T1_SMS_5,35,1,48,37,2275318996
29,5,4,T1_SMS_5,36,5,42,127,2275353884
29,5,4,T1_SMS_5,37,1,48,42,2275819664
29,5,4,T1_SMS_5,38,5,42,127,2275853728
29,5,4,T1_SMS_5,39,1,48,42,2276304544
29,5,4,T1_SMS_5,40,5,42,127,2276354472
29,5,4,T1_SMS_5,41,1,48,43,2276831396
29,5,4,T1_SMS_5,42,5,42,127,2276854240
29,5,4,T1_SMS_5,43,1,48,37,2277307376
29,5,4,T1_SMS_5,44,5,42,127,2277353936
29,5,4,T1_SMS_5,45,1,48,38,2277813732
29,5,4,T1_SMS_5,46,5,42,127,2277853408
29,5,4,T1_SMS_5,47,1,48,35,2278293228
29,5,4,T1_SMS_5,48,5,42,127,2278354372
29,5,4,T1_SMS_5,49,1,48,32,2278782232
29,5,4,T1_SMS_5,50,5,42,127,2278853996
29,5,4,T1_SMS_5,51,1,48,24,2279283420
29,5,4,T1_SMS_5,52,5,42,127,2279353616
29,5,4,T1_SMS_5,53,1,48,27,2279770156
29,5,4,T1_SMS_5,54,5,42,127,2279853312
29,5,4,T1_SMS_5,55,1,48,44,2280294080
29,5,4,T1_SMS_5,56,5,42,127,2280354128
29,5,4,T1_SMS_5,57,1,48,39,2280817288
29,5,4,T1_SMS_5,58,5,42,127,2280854044
29,5,4,T1_SMS_5,59,1,48,36,2281306268
29,5,4,T1_SMS_5,60,5,42,127,2281353520
29,5,4,T1_SMS_5,61,1,48,40,2281809324
29,5,4,T1_SMS_5,62,5,42,127,2281854184
29,5,4,T1_SMS_5,63,1,48,41,2282294052
29,5,4,T1_SMS_5,64,5,42,127,2282354252
29,5,4,T1_SMS_5,65,1,48,38,2282799884
29,5,4,T1_SMS_5,66,5,42,127,2282853700
29,5,4,T1_SMS_5,67,1,48,42,2283320220
29,5,4,T1_SMS_5,68,5,42,127,2283353320
29,5,4,T1_SMS_5,69,1,48,36,2283796204
29,5,4,T1_SMS_5,70,5,42,127,2283854208
29,5,4,T1_SMS_5,71,1,48,40,2284321408
29,5,4,T1_SMS_5,72,5,42,127,2284354052
29,5,4,T1_SMS_5,73,1,48,40,2284817212
29,5,4,T1_SMS_5,74,5,42,127,2284853600
29,5,4,T1_SMS_5,75,1,48,40,2285329776
29,5,4,T1_SMS_5,76,5,42,127,2285354340
29,5,4,T1_SMS_5,77,5,42,127,2285853968
29,5,4,T1_SMS_5,78,1,48,45,2285856788
29,5,4,T1_SMS_5,79,1,48,46,2286339636
29,5,4,T1_SMS_5,80,5,42,127,2286353804
29,5,4,T1_SMS_5,81,5,42,127,2286853508
29,5,4,T1_SMS_5,82,1,48,45,2286865456
29,5,4,T1_SMS_5,83,1,48,41,2287320328
29,5,4,T1_SMS_5,84,5,42,127,2287354168
29,5,4,T1_SMS_5,85,5,42,127,2287853944
29,5,4,T1_SMS_5,86,1,48,24,2287862596
29,5,4,T1_SMS_5,87,1,48,40,2288312308
29,5,4,T1_SMS_5,88,5,42,127,2288353856
29,5,4,T1_SMS_5,89,1,48,40,2288850748
29,5,4,T1_SMS_5,90,5,42,127,2288854520
29,5,4,T1_SMS_5,91,1,48,38,2289334588
29,5,4,T1_SMS_5,92,5,42,127,2289354068
29,5,4,T1_SMS_5,93,1,48,39,2289845576
29,5,4,T1_SMS_5,94,5,42,127,2289853912
29,5,4,T1_SMS_5,95,1,48,41,2290333380
29,5,4,T1_SMS_5,96,5,42,127,2290353608
29,5,4,T1_SMS_5,97,1,48,39,2290806824
29,5,4,T1_SMS_5,98,5,42,127,2290854276
29,5,4,T1_SMS_5,99,1,48,40,2291312652
29,5,4,T1_SMS_5,100,5,42,127,2291353972
29,5,4,T1_SMS_5,101,5,42,127,2291853820
29,5,4,T1_SMS_5,102,1,48,39,2292330436
29,5,4,T1_SMS_5,103,5,42,127,2292354576
29,5,4,T1_SMS_5,104,1,48,44,2292823548
29,5,4,T1_SMS_5,105,5,42,127,2292853972
29,5,4,T1_SMS_5,106,1,48,47,2293335284
29,5,4,T1_SMS_5,107,5,42,127,2293353868
29,5,4,T1_SMS_5,108,1,48,28,2293843356
29,5,4,T1_SMS_5,109,5,42,127,2293853636
29,5,4,T1_SMS_5,110,1,48,34,2294332952
29,5,4,T1_SMS_5,111,5,42,127,2294354456
29,5,4,T1_SMS_5,112,1,48,34,2294837664
29,5,4,T1_SMS_5,113,5,42,127,2294853852
29,5,4,T1_SMS_5,114,1,48,47,2295301752
29,5,4,T1_SMS_5,115,5,42,127,2295353696
29,5,4,T1_SMS_5,116,1,48,47,2295805632
29,5,4,T1_SMS_5,117,5,42,127,2295853540
29,5,4,T1_SMS_5,118,1,48,38,2296299724
29,5,4,T1_SMS_5,119,5,42,127,2296354132
29,5,4,T1_SMS_5,120,1,48,45,2296796872
29,5,4,T1_SMS_5,121,5,42,127,2296853828
29,5,4,T1_SMS_5,122,1,48,46,2297307864
29,5,4,T1_SMS_5,123,5,42,127,2297353524
29,5,4,T1_SMS_5,124,1,48,45,2297821092
29,5,4,T1_SMS_5,125,5,42,127,2297854336
29,5,4,T1_SMS_5,126,1,48,40,2298316300
29,5,4,T1_SMS_5,127,5,42,127,2298354032
29,5,4,T1_SMS_5,128,1,48,44,2298785480
29,5,4,T1_SMS_5,129,5,42,127,2298853728
29,5,4,T1_SMS_5,130,1,48,35,2299316292
29,5,4,T1_SMS_5,131,5,42,127,2299353424
29,5,4,T1_SMS_5,132,1,48,38,2299786372
29,5,4,T1_SMS_5,133,5,42,127,2299854392
29,5,4,T1_SMS_5,134,1,48,32,2300319272
29,5,4,T1_SMS_5,135,5,42,127,2300353864
29,5,4,T1_SMS_5,136,1,48,46,2300796004
29,5,4,T1_SMS_5,137,5,42,127,2300853480
29,5,4,T1_SMS_5,138,1,48,40,2301303476
29,5,4,T1_SMS_5,139,5,42,127,2301354224
29,5,4,T1_SMS_5,140,1,48,44,2301773152
29,5,4,T1_SMS_5,141,5,42,127,2301854140
29,5,4,T1_SMS_5,142,1,48,27,2302311592
29,5,4,T1_SMS_5,143,5,42,127,2302353688
29,5,4,T1_SMS_5,144,1,48,41,2302837868
29,5,4,T1_SMS_5,145,5,42,127,2302853456
29,5,4,T1_SMS_5,146,1,48,37,2303326160
29,5,4,T1_SMS_5,147,5,42,127,2303354420
29,5,4,T1_SMS_5,148,1,48,39,2303809104
29,5,4,T1_SMS_5,149,5,42,127,2303853940
29,5,4,T1_SMS_5,150,1,48,46,2304308352
29,5,4,T1_SMS_5,151,5,42,127,2304353560
29,5,4,T1_SMS_5,152,1,48,32,2304809616
29,5,4,T1_SMS_5,153,5,42,127,2304854452
29,5,4,T1_SMS_5,154,1,48,33,2305344540
29,5,4,T1_SMS_5,155,5,42,127,2305354072
29,5,4,T1_SMS_5,156,1,48,48,2305825984
29,5,4,T1_SMS_5,157,5,42,127,2305854064
29,5,4,T1_SMS_5,158,1,48,46,2306310200
29,5,4,T1_SMS_5,159,5,42,127,2306353388
29,5,4,T1_SMS_5,160,1,48,44,2306811608
29,5,4,T1_SMS_5,161,5,42,127,2306854276
29,5,4,T1_SMS_5,162,1,48,49,2307335908
29,5,4,T1_SMS_5,163,5,42,127,2307353896
29,5,4,T1_SMS_5,164,1,48,45,2307847504
29,5,4,T1_SMS_5,165,5,42,127,2307853888
29,5,4,T1_SMS_5,166,1,48,49,2308311964
29,5,4,T1_SMS_5,167,5,42,127,2308354336
29,5,4,T1_SMS_5,168,1,48,38,2308851008
29,5,4,T1_SMS_5,169,5,42,127,2308854256
29,5,4,T1_SMS_5,170,1,48,42,2309300292
29,5,4,T1_SMS_5,171,5,42,127,2309354100
29,5,4,T1_SMS_5,172,1,48,27,2309783976
29,5,4,T1_SMS_5,173,5,42,127,2309853496
29,5,4,T1_SMS_5,174,1,48,51,2310347400
29,5,4,T1_SMS_5,175,5,42,127,2310354388
29,5,4,T1_SMS_5,176,1,48,27,2310795408
29,5,4,T1_SMS_5,177,5,42,127,2310853932
29,5,4,T1_SMS_5,178,1,48,51,2311335944
29,5,4,T1_SMS_5,179,5,42,127,2311353924
29,5,4,T1_SMS_5,180,1,48,46,2311793752
29,5,4,T1_SMS_5,181,5,42,127,2311853396
29,5,4,T1_SMS_5,182,1,48,44,2312309604
29,5,4,T1_SMS_5,183,5,42,127,2312354364
29,5,4,T1_SMS_5,184,1,48,42,2312832264
29,5,4,T1_SMS_5,185,5,42,127,2312853836
29,5,4,T1_SMS_5,186,1,48,47,2313316752
29,5,4,T1_SMS_5,187,5,42,127,2313353756
29,5,4,T1_SMS_5,188,1,48,41,2313794448
29,5,4,T1_SMS_5,189,5,42,127,2313854272
29,5,4,T1_SMS_5,190,1,48,47,2314309708
29,5,4,T1_SMS_5,191,5,42,127,2314354044
29,5,4,T1_SMS_5,192,1,48,48,2314791300
29,5,4,T1_SMS_5,193,5,42,127,2314853640
29,5,4,T1_SMS_5,194,1,48,48,2315314100
29,5,4,T1_SMS_5,195,5,42,127,2315353780
29,5,4,T1_SMS_5,196,1,48,42,2315811932
29,5,4,T1_SMS_5,197,5,42,127,2315854148
29,5,4,T1_SMS_5,198,1,48,46,2316348052
29,5,4,T1_SMS_5,199,5,42,127,2316353772
29,5,4,T1_SMS_5,200,1,48,50,2316835928
29,5,4,T1_SMS_5,201,5,42,127,2316853836
29,5,4,T1_SMS_5,202,1,48,37,2317311836
29,5,4,T1_SMS_5,203,5,42,127,2317354800
29,5,4,T1_SMS_5,204,1,48,45,2317809964
29,5,4,T1_SMS_5,205,5,42,127,2317854124
29,5,4,T1_SMS_5,206,1,48,43,2318306064
29,5,4,T1_SMS_5,207,5,42,127,2318353896
29,5,4,T1_SMS_5,208,1,48,31,2318807632
29,5,4,T1_SMS_5,209,5,42,127,2318853516
29,5,4,T1_SMS_5,210,1,48,40,2319277336
29,5,4,T1_SMS_5,211,5,42,127,2319354184
29,5,4,T1_SMS_5,212,1,48,37,2319792436
29,5,4,T1_SMS_5,213,5,42,127,2319853876
29,5,4,T1_SMS_5,214,1,48,40,2320266172
29,5,4,T1_SMS_5,215,5,42,127,2320353648
29,5,4,T1_SMS_5,216,1,48,35,2320805960
29,5,4,T1_SMS_5,217,5,42,127,2320854464
29,5,4,T1_SMS_5,218,1,48,46,2321307600
29,5,4,T1_SMS_5,219,5,42,127,2321354008
29,5,4,T1_SMS_5,220,1,48,35,2321792336
29,5,4,T1_SMS_5,221,5,42,127,2321853776
29,5,4,T1_SMS_5,222,1,48,37,2322268892
29,5,4,T1_SMS_5,223,5,42,127,2322353548
29,5,4,T1_SMS_5,224,1,48,50,2322765220
29,5,4,T1_SMS_5,225,5,42,127,2322854288
29,5,4,T1_SMS_5,226,1,48,48,2323268208
29,5,4,T1_SMS_5,227,5,42,127,2323353908
29,5,4,T1_SMS_5,228,1,48,49,2323767528
29,5,4,T1_SMS_5,229,5,42,127,2323853604
29,5,4,T1_SMS_5,230,1,48,48,2324275072
29,5,4,T1_SMS_5,231,5,42,127,2324354344
29,5,4,T1_SMS_5,232,1,48,42,2324781280
29,5,4,T1_SMS_5,233,5,42,127,2324854336
29,5,4,T1_SMS_5,234,1,48,51,2325266540
29,5,4,T1_SMS_5,235,5,42,127,2325353784
29,5,4,T1_SMS_5,236,1,48,49,2325765104
29,5,4,T1_SMS_5,237,5,42,127,2325853476
29,5,4,T1_SMS_5,238,1,48,49,2326286500
29,5,4,T1_SMS_5,239,5,42,127,2326354368
29,5,4,T1_SMS_5,240,1,48,54,2326779236
29,5,4,T1_SMS_5,241,5,42,127,2326854140
29,5,4,T1_SMS_5,242,1,48,48,2327265464
29,5,4,T1_SMS_5,243,5,42,127,2327353684
29,5,4,T1_SMS_5,244,1,48,43,2327751468
29,5,4,T1_SMS_5,245,5,42,127,2327853440
29,5,4,T1_SMS_5,246,1,48,48,2328262308
29,5,4,T1_SMS_5,247,5,42,127,2328354344
29,5,4,T1_SMS_5,248,1,48,38,2328788112
29,5,4,T1_SMS_5,249,5,42,127,2328853964
29,5,4,T1_SMS_5,250,1,48,56,2329283316
29,5,4,T1_SMS_5,251,5,42,127,2329353512
29,5,4,T1_SMS_5,252,1,48,56,2329777404
29,5,4,T1_SMS_5,253,5,42,127,2329854252
29,5,4,T1_SMS_5,254,1,48,30,2330300280
29,5,4,T1_SMS_5,255,5,42,127,2330354020
29,5,4,T1_SMS_5,256,1,48,53,2330797288
29,5,4,T1_SMS_5,0,9999,9999,9999,2265851992
29,5,4,T1_SMS_5,1,9999,9999,9999,2266351708
29,5,4,T1_SMS_5,2,9999,9999,9999,2266851428
29,5,4,T1_SMS_5,3,9999,9999,9999,2267351136
29,5,4,T1_SMS_5,4,9999,9999,9999,2267851880
29,5,4,T1_SMS_5,5,9999,9999,9999,2268351576
29,5,4,T1_SMS_5,6,9999,9999,9999,2268851268
29,5,4,T1_SMS_5,7,9999,9999,9999,2269352012
29,5,4,T1_SMS_5,8,9999,9999,9999,2269851704
29,5,4,T1_SMS_5,9,9999,9999,9999,2270351476
29,5,4,T1_SMS_5,10,9999,9999,9999,2270851172
29,5,4,T1_SMS_5,11,9999,9999,9999,2271351888
29,5,4,T1_SMS_5,12,9999,9999,9999,2271851636
29,5,4,T1_SMS_5,13,9999,9999,9999,2272351332
29,5,4,T1_SMS_5,14,9999,9999,9999,2272852072
29,5,4,T1_SMS_5,15,9999,9999,9999,2273351768
29,5,4,T1_SMS_5,16,9999,9999,9999,2273851464
29,5,4,T1_SMS_5,17,9999,9999,9999,2274351160
29,5,4,T1_SMS_5,18,9999,9999,9999,2274851904
29,5,4,T1_SMS_5,19,9999,9999,9999,2275351672
29,5,4,T1_SMS_5,20,9999,9999,9999,2275851368
29,5,4,T1_SMS_5,21,9999,9999,9999,2276352112
29,5,4,T1_SMS_5,22,9999,9999,9999,2276851804
29,5,4,T1_SMS_5,23,9999,9999,9999,2277351500
29,5,4,T1_SMS_5,24,9999,9999,9999,2277851196
29,5,4,T1_SMS_5,25,9999,9999,9999,2278351940
29,5,4,T1_SMS_5,26,9999,9999,9999,2278851636
29,5,4,T1_SMS_5,27,9999,9999,9999,2279351404
29,5,4,T1_SMS_5,28,9999,9999,9999,2279851100
29,5,4,T1_SMS_5,29,9999,9999,9999,2280351844
29,5,4,T1_SMS_5,30,9999,9999,9999,2280851536
29,5,4,T1_SMS_5,31,9999,9999,9999,2281351232
29,5,4,T1_SMS_5,32,9999,9999,9999,2281851972
29,5,4,T1_SMS_5,33,9999,9999,9999,2282351716
29,5,4,T1_SMS_5,34,9999,9999,9999,2282851412
29,5,4,T1_SMS_5,35,9999,9999,9999,2283351108
29,5,4,T1_SMS_5,36,9999,9999,9999,2283851848
29,5,4,T1_SMS_5,37,9999,9999,9999,2284351544
29,5,4,T1_SMS_5,38,9999,9999,9999,2284851312
29,5,4,T1_SMS_5,39,9999,9999,9999,2285352056
29,5,4,T1_SMS_5,40,9999,9999,9999,2285851756
29,5,4,T1_SMS_5,41,9999,9999,9999,2286351444
29,5,4,T1_SMS_5,42,9999,9999,9999,2286851148
29,5,4,T1_SMS_5,43,9999,9999,9999,2287351880
29,5,4,T1_SMS_5,44,9999,9999,9999,2287851584
29,5,4,T1_SMS_5,45,9999,9999,9999,2288351348
29,5,4,T1_SMS_5,46,9999,9999,9999,2288852088
29,5,4,T1_SMS_5,47,9999,9999,9999,2289351784
29,5,4,T1_SMS_5,48,9999,9999,9999,2289851476
29,5,4,T1_SMS_5,49,9999,9999,9999,2290351176
29,5,4,T1_SMS_5,50,9999,9999,9999,2290851916
29,5,4,T1_SMS_5,51,9999,9999,9999,2291351608
29,5,4,T1_SMS_5,52,9999,9999,9999,2291851312
29,5,4,T1_SMS_5,53,9999,9999,9999,2292352068
29,5,4,T1_SMS_5,54,9999,9999,9999,2292851760
29,5,4,T1_SMS_5,55,9999,9999,9999,2293351508
29,5,4,T1_SMS_5,56,9999,9999,9999,2293851200
29,5,4,T1_SMS_5,57,9999,9999,9999,2294351944
29,5,4,T1_SMS_5,58,9999,9999,9999,2294851640
29,5,4,T1_SMS_5,59,9999,9999,9999,2295351408
29,5,4,T1_SMS_5,60,9999,9999,9999,2295851104
29,5,4,T1_SMS_5,61,9999,9999,9999,2296351848
29,5,4,T1_SMS_5,62,9999,9999,9999,2296851540
29,5,4,T1_SMS_5,63,9999,9999,9999,2297351236
29,5,4,T1_SMS_5,64,9999,9999,9999,2297851976
29,5,4,T1_SMS_5,65,9999,9999,9999,2298351672
29,5,4,T1_SMS_5,66,9999,9999,9999,2298851444
29,5,4,T1_SMS_5,67,9999,9999,9999,2299351140
29,5,4,T1_SMS_5,68,9999,9999,9999,2299851880
29,5,4,T1_SMS_5,69,9999,9999,9999,2300351576
29,5,4,T1_SMS_5,70,9999,9999,9999,2300851268
29,5,4,T1_SMS_5,71,9999,9999,9999,2301352012
29,5,4,T1_SMS_5,72,9999,9999,9999,2301851704
29,5,4,T1_SMS_5,73,9999,9999,9999,2302351476
29,5,4,T1_SMS_5,74,9999,9999,9999,2302851172
29,5,4,T1_SMS_5,75,9999,9999,9999,2303351912
29,5,4,T1_SMS_5,76,9999,9999,9999,2303851580
29,5,4,T1_SMS_5,77,9999,9999,9999,2304351352
29,5,4,T1_SMS_5,78,9999,9999,9999,2304852016
29,5,4,T1_SMS_5,79,9999,9999,9999,2305351784
29,5,4,T1_SMS_5,80,9999,9999,9999,2305851480
29,5,4,T1_SMS_5,81,9999,9999,9999,2306351176
29,5,4,T1_SMS_5,82,9999,9999,9999,2306851916
29,5,4,T1_SMS_5,83,9999,9999,9999,2307351612
29,5,4,T1_SMS_5,84,9999,9999,9999,2307851380
29,5,4,T1_SMS_5,85,9999,9999,9999,2308352048
29,5,4,T1_SMS_5,86,9999,9999,9999,2308851820
29,5,4,T1_SMS_5,87,9999,9999,9999,2309351516
29,5,4,T1_SMS_5,88,9999,9999,9999,2309851208
29,5,4,T1_SMS_5,89,9999,9999,9999,2310351952
29,5,4,T1_SMS_5,90,9999,9999,9999,2310851648
29,5,4,T1_SMS_5,91,9999,9999,9999,2311351416
29,5,4,T1_SMS_5,92,9999,9999,9999,2311851112
29,5,4,T1_SMS_5,93,9999,9999,9999,2312351856
29,5,4,T1_SMS_5,94,9999,9999,9999,2312851552
29,5,4,T1_SMS_5,95,9999,9999,9999,2313351248
29,5,4,T1_SMS_5,96,9999,9999,9999,2313851988
29,5,4,T1_SMS_5,97,9999,9999,9999,2314351680
29,5,4,T1_SMS_5,98,9999,9999,9999,2314851428
29,5,4,T1_SMS_5,99,9999,9999,9999,2315351120
29,5,4,T1_SMS_5,100,9999,9999,9999,2315851864
29,5,4,T1_SMS_5,101,9999,9999,9999,2316351560
29,5,4,T1_SMS_5,102,9999,9999,9999,2316851252
29,5,4,T1_SMS_5,103,9999,9999,9999,2317351996
29,5,4,T1_SMS_5,104,9999,9999,9999,2317851764
29,5,4,T1_SMS_5,105,9999,9999,9999,2318351460
29,5,4,T1_SMS_5,106,9999,9999,9999,2318851156
29,5,4,T1_SMS_5,107,9999,9999,9999,2319351896
29,5,4,T1_SMS_5,108,9999,9999,9999,2319851592
29,5,4,T1_SMS_5,109,9999,9999,9999,2320351288
29,5,4,T1_SMS_5,110,9999,9999,9999,2320852028
29,5,4,T1_SMS_5,111,9999,9999,9999,2321351796
29,5,4,T1_SMS_5,112,9999,9999,9999,2321851492
29,5,4,T1_SMS_5,113,9999,9999,9999,2322351184
29,5,4,T1_SMS_5,114,9999,9999,9999,2322851928
29,5,4,T1_SMS_5,115,9999,9999,9999,2323351620
29,5,4,T1_SMS_5,116,9999,9999,9999,2323851316
29,5,4,T1_SMS_5,117,9999,9999,9999,2324352056
29,5,4,T1_SMS_5,118,9999,9999,9999,2324851828
29,5,4,T1_SMS_5,119,9999,9999,9999,2325351496
29,5,4,T1_SMS_5,120,9999,9999,9999,2325851192
29,5,4,T1_SMS_5,121,9999,9999,9999,2326351932
29,5,4,T1_SMS_5,122,9999,9999,9999,2326851704
29,5,4,T1_SMS_5,123,9999,9999,9999,2327351396
29,5,4,T1_SMS_5,124,9999,9999,9999,2327851076
29,5,4,T1_SMS_5,125,9999,9999,9999,2328351836
29,5,4,T1_SMS_5,126,9999,9999,9999,2328851532
29,5,4,T1_SMS_5,127,9999,9999,9999,2329351224
29,5,4,T1_SMS_5,128,9999,9999,9999,2329851964
29,5,4,T1_SMS_5,129,9999,9999,9999,2330351736
29,6,22,Ticks_Phase_8,0,5,42,127,2348547388
29,6,22,Ticks_Phase_8,1,5,42,127,2349348240
29,6,22,Ticks_Phase_8,2,5,42,127,2350147976
29,6,22,Ticks_Phase_8,3,1,48,36,2350206464
29,6,22,Ticks_Phase_8,4,5,42,127,2350947836
29,6,22,Ticks_Phase_8,5,1,48,48,2351008048
29,6,22,Ticks_Phase_8,6,5,42,127,2351747348
29,6,22,Ticks_Phase_8,7,1,48,43,2352059252
29,6,22,Ticks_Phase_8,8,5,42,127,2352548180
29,6,22,Ticks_Phase_8,9,1,48,30,2353067404
29,6,22,Ticks_Phase_8,10,5,42,127,2353347892
29,6,22,Ticks_Phase_8,11,1,48,38,2353807504
29,6,22,Ticks_Phase_8,12,5,42,127,2354147680
29,6,22,Ticks_Phase_8,13,1,48,38,2354545960
29,6,22,Ticks_Phase_8,14,5,42,127,2354947320
29,6,22,Ticks_Phase_8,15,1,48,42,2355473572
29,6,22,Ticks_Phase_8,16,5,42,127,2355748152
29,6,22,Ticks_Phase_8,17,1,48,37,2356346032
29,6,22,Ticks_Phase_8,18,5,42,127,2356547940
29,6,22,Ticks_Phase_8,19,1,48,38,2357229988
29,6,22,Ticks_Phase_8,20,5,42,127,2357348020
29,6,22,Ticks_Phase_8,21,1,48,37,2358107212
29,6,22,Ticks_Phase_8,22,5,42,127,2358147476
29,6,22,Ticks_Phase_8,23,1,48,48,2358948612
29,6,22,Ticks_Phase_8,24,5,42,127,2358949872
29,6,22,Ticks_Phase_8,25,5,42,127,2359748024
29,6,22,Ticks_Phase_8,26,1,48,50,2359765516
29,6,22,Ticks_Phase_8,27,5,42,127,2360547812
29,6,22,Ticks_Phase_8,28,1,48,48,2360556704
29,6,22,Ticks_Phase_8,29,5,42,127,2361347300
29,6,22,Ticks_Phase_8,30,1,48,31,2361445140
29,6,22,Ticks_Phase_8,31,5,42,127,2362148356
29,6,22,Ticks_Phase_8,32,1,48,38,2362198508
29,6,22,Ticks_Phase_8,33,5,42,127,2362947920
29,6,22,Ticks_Phase_8,34,1,48,44,2363034108
29,6,22,Ticks_Phase_8,35,5,42,127,2363747704
29,6,22,Ticks_Phase_8,36,1,48,44,2363812252
29,6,22,Ticks_Phase_8,37,5,42,127,2364547816
29,6,22,Ticks_Phase_8,38,1,48,43,2364629268
29,6,22,Ticks_Phase_8,39,5,42,127,2365348424
29,6,22,Ticks_Phase_8,40,1,48,51,2365422532
29,6,22,Ticks_Phase_8,41,5,42,127,2366147988
29,6,22,Ticks_Phase_8,42,1,48,42,2366241120
29,6,22,Ticks_Phase_8,43,5,42,127,2366947700
29,6,22,Ticks_Phase_8,44,1,48,40,2366975376
29,6,22,Ticks_Phase_8,45,5,42,127,2367747636
29,6,22,Ticks_Phase_8,46,1,48,31,2367845028
29,6,22,Ticks_Phase_8,47,5,42,127,2368548316
29,6,22,Ticks_Phase_8,48,1,48,38,2368613288
29,6,22,Ticks_Phase_8,49,5,42,127,2369347804
29,6,22,Ticks_Phase_8,50,1,48,34,2369527016
29,6,22,Ticks_Phase_8,51,5,42,127,2370147592
29,6,22,Ticks_Phase_8,52,1,48,24,2370304620
29,6,22,Ticks_Phase_8,53,5,42,127,2370947328
29,6,22,Ticks_Phase_8,54,1,48,42,2371018444
29,6,22,Ticks_Phase_8,55,5,42,127,2371748236
29,6,22,Ticks_Phase_8,56,1,48,35,2371752920
29,6,22,Ticks_Phase_8,57,5,42,127,2372527432
29,6,22,Ticks_Phase_8,58,1,48,45,2372535572
29,6,22,Ticks_Phase_8,59,1,48,47,2373266676
29,6,22,Ticks_Phase_8,60,5,42,127,2373328256
29,6,22,Ticks_Phase_8,61,1,48,50,2374097760
29,6,22,Ticks_Phase_8,62,5,42,127,2374128192
29,6,22,Ticks_Phase_8,63,5,42,127,2374927836
29,6,22,Ticks_Phase_8,64,1,48,35,2374934244
29,6,22,Ticks_Phase_8,65,5,42,127,2375727400
29,6,22,Ticks_Phase_8,66,1,48,46,2375773120
29,6,22,Ticks_Phase_8,67,5,42,127,2376528232
29,6,22,Ticks_Phase_8,68,1,48,39,2376562672
29,6,22,Ticks_Phase_8,69,5,42,127,2377328192
29,6,22,Ticks_Phase_8,70,1,48,44,2377335960
29,6,22,Ticks_Phase_8,71,1,48,43,2378124492
29,6,22,Ticks_Phase_8,72,5,42,127,2378127672
29,6,22,Ticks_Phase_8,73,5,42,127,2378927540
29,6,22,Ticks_Phase_8,74,1,48,41,2378933352
29,6,22,Ticks_Phase_8,75,5,42,127,2379728148
29,6,22,Ticks_Phase_8,76,1,48,44,2379775444
29,6,22,Ticks_Phase_8,77,5,42,127,2380528008
29,6,22,Ticks_Phase_8,78,1,48,42,2380558240
29,6,22,Ticks_Phase_8,79,5,42,127,2381327944
29,6,22,Ticks_Phase_8,80,1,48,46,2381371800
29,6,22,Ticks_Phase_8,81,5,42,127,2382127432
29,6,22,Ticks_Phase_8,82,1,48,43,2382132272
29,6,22,Ticks_Phase_8,83,5,42,127,2382928188
29,6,22,Ticks_Phase_8,84,1,48,50,2382975284
29,6,22,Ticks_Phase_8,85,5,42,127,2383727924
29,6,22,Ticks_Phase_8,86,1,48,15,2383900740
29,6,22,Ticks_Phase_8,87,5,42,127,2384527936
29,6,22,Ticks_Phase_8,88,1,48,41,2384647660
29,6,22,Ticks_Phase_8,89,5,42,127,2385327424
29,6,22,Ticks_Phase_8,90,1,48,48,2385493196
29,6,22,Ticks_Phase_8,91,5,42,127,2386128184
29,6,22,Ticks_Phase_8,92,1,48,40,2386252844
29,6,22,Ticks_Phase_8,93,5,42,127,2386947372
29,6,22,Ticks_Phase_8,94,1,48,32,2387034952
29,6,22,Ticks_Phase_8,95,5,42,127,2387748724
29,6,22,Ticks_Phase_8,96,1,48,39,2387809808
29,6,22,Ticks_Phase_8,97,5,42,127,2388548064
29,6,22,Ticks_Phase_8,98,1,48,43,2388571924
29,6,22,Ticks_Phase_8,99,1,48,45,2389326768
29,6,22,Ticks_Phase_8,100,5,42,127,2389347692
29,6,22,Ticks_Phase_8,101,1,48,42,2390108808
29,6,22,Ticks_Phase_8,102,5,42,127,2390147728
29,6,22,Ticks_Phase_8,103,1,48,46,2390907276
29,6,22,Ticks_Phase_8,104,5,42,127,2390948188
29,6,22,Ticks_Phase_8,105,1,48,46,2391726312
29,6,22,Ticks_Phase_8,106,5,42,127,2391747976
29,6,22,Ticks_Phase_8,107,1,48,50,2392500852
29,6,22,Ticks_Phase_8,108,5,42,127,2392547760
29,6,22,Ticks_Phase_8,109,1,48,37,2393239008
29,6,22,Ticks_Phase_8,110,5,42,127,2393347532
29,6,22,Ticks_Phase_8,111,1,48,42,2394073164
29,6,22,Ticks_Phase_8,112,5,42,127,2394148456
29,6,22,Ticks_Phase_8,113,1,48,35,2394947272
29,6,22,Ticks_Phase_8,114,5,42,127,2394949064
29,6,22,Ticks_Phase_8,115,5,42,127,2395747664
29,6,22,Ticks_Phase_8,116,1,48,48,2395777544
29,6,22,Ticks_Phase_8,117,5,42,127,2396547624
29,6,22,Ticks_Phase_8,118,1,48,46,2396669440
29,6,22,Ticks_Phase_8,119,5,42,127,2397348156
29,6,22,Ticks_Phase_8,120,1,48,38,2397506748
29,6,22,Ticks_Phase_8,121,5,42,127,2398148240
29,6,22,Ticks_Phase_8,122,1,48,37,2398182884
29,6,22,Ticks_Phase_8,123,5,42,127,2398947580
29,6,22,Ticks_Phase_8,124,1,48,40,2398988144
29,6,22,Ticks_Phase_8,125,5,42,127,2399788328
29,6,22,Ticks_Phase_8,126,1,48,42,2399798188
29,6,22,Ticks_Phase_8,127,5,42,127,2400588116
29,6,22,Ticks_Phase_8,128,1,48,39,2400621436
29,6,22,Ticks_Phase_8,129,5,42,127,2401388300
29,6,22,Ticks_Phase_8,130,1,48,36,2401445932
29,6,22,Ticks_Phase_8,131,1,48,39,2402182728
29,6,22,Ticks_Phase_8,132,5,42,127,2402187556
29,6,22,Ticks_Phase_8,133,5,42,127,2402988544
29,6,22,Ticks_Phase_8,134,1,48,41,2403069328
29,6,22,Ticks_Phase_8,135,5,42,127,2403788108
29,6,22,Ticks_Phase_8,136,1,48,42,2403862216
29,6,22,Ticks_Phase_8,137,5,42,127,2404587968
29,6,22,Ticks_Phase_8,138,1,48,39,2404657220
29,6,22,Ticks_Phase_8,139,5,42,127,2405387604
29,6,22,Ticks_Phase_8,140,1,48,44,2405404796
29,6,22,Ticks_Phase_8,141,5,42,127,2406188288
29,6,22,Ticks_Phase_8,142,1,48,45,2406250520
29,6,22,Ticks_Phase_8,143,5,42,127,2406988076
29,6,22,Ticks_Phase_8,144,1,48,40,2407027616
29,6,22,Ticks_Phase_8,145,5,42,127,2407787884
29,6,22,Ticks_Phase_8,146,1,48,46,2407906336
29,6,22,Ticks_Phase_8,147,5,42,127,2408587820
29,6,22,Ticks_Phase_8,148,1,48,43,2408708220
29,6,22,Ticks_Phase_8,149,5,42,127,2409388432
29,6,22,Ticks_Phase_8,150,1,48,44,2409476180
29,6,22,Ticks_Phase_8,151,5,42,127,2410188144
29,6,22,Ticks_Phase_8,152,1,48,37,2410278732
29,6,22,Ticks_Phase_8,153,5,42,127,2410988004
29,6,22,Ticks_Phase_8,154,1,48,33,2411075512
29,6,22,Ticks_Phase_8,155,5,42,127,2411787864
29,6,22,Ticks_Phase_8,156,1,48,36,2411790836
29,6,22,Ticks_Phase_8,157,1,48,31,2412564392
29,6,22,Ticks_Phase_8,158,5,42,127,2412588544
29,6,22,Ticks_Phase_8,159,1,48,45,2413308100
29,6,22,Ticks_Phase_8,160,5,42,127,2413348116
29,6,22,Ticks_Phase_8,161,1,48,35,2414085868
29,6,22,Ticks_Phase_8,162,5,42,127,2414147904
29,6,22,Ticks_Phase_8,163,1,48,51,2414886480
29,6,22,Ticks_Phase_8,164,5,42,127,2414947912
29,6,22,Ticks_Phase_8,165,1,48,49,2415690600
29,6,22,Ticks_Phase_8,166,5,42,127,2415747352
29,6,22,Ticks_Phase_8,167,1,48,43,2416515124
29,6,22,Ticks_Phase_8,168,5,42,127,2416548480
29,6,22,Ticks_Phase_8,169,1,48,46,2417325328
29,6,22,Ticks_Phase_8,170,5,42,127,2417347968
29,6,22,Ticks_Phase_8,171,5,42,127,2418147688
29,6,22,Ticks_Phase_8,172,1,48,39,2418156128
29,6,22,Ticks_Phase_8,173,5,42,127,2418947400
29,6,22,Ticks_Phase_8,174,1,48,47,2418973056
29,6,22,Ticks_Phase_8,175,1,48,42,2419734708
29,6,22,Ticks_Phase_8,176,5,42,127,2419748596
29,6,22,Ticks_Phase_8,177,1,48,44,2420509564
29,6,22,Ticks_Phase_8,178,5,42,127,2420548012
29,6,22,Ticks_Phase_8,179,1,48,32,2421332636
29,6,22,Ticks_Phase_8,180,5,42,127,2421347724
29,6,22,Ticks_Phase_8,181,1,48,37,2422129528
29,6,22,Ticks_Phase_8,182,5,42,127,2422147312
29,6,22,Ticks_Phase_8,183,5,42,127,2422948148
29,6,22,Ticks_Phase_8,184,1,48,43,2422949116
29,6,22,Ticks_Phase_8,185,1,48,41,2423704232
29,6,22,Ticks_Phase_8,186,5,42,127,2423748076
29,6,22,Ticks_Phase_8,187,1,48,46,2424488156
29,6,22,Ticks_Phase_8,188,5,42,127,2424547640
29,6,22,Ticks_Phase_8,189,1,48,44,2425288236
29,6,22,Ticks_Phase_8,190,5,42,127,2425347428
29,6,22,Ticks_Phase_8,191,5,42,127,2426068288
29,6,22,Ticks_Phase_8,192,1,48,46,2426081888
29,6,22,Ticks_Phase_8,193,1,48,46,2426835980
29,6,22,Ticks_Phase_8,194,5,42,127,2426868068
29,6,22,Ticks_Phase_8,195,1,48,44,2427568600
29,6,22,Ticks_Phase_8,196,5,42,127,2427668136
29,6,22,Ticks_Phase_8,197,1,48,42,2428405000
29,6,22,Ticks_Phase_8,198,5,42,127,2428467564
29,6,22,Ticks_Phase_8,199,1,48,44,2429240808
29,6,22,Ticks_Phase_8,200,5,42,127,2429268324
29,6,22,Ticks_Phase_8,201,1,48,39,2429970424
29,6,22,Ticks_Phase_8,202,5,42,127,2430068120
29,6,22,Ticks_Phase_8,203,1,48,46,2430830676
29,6,22,Ticks_Phase_8,204,5,42,127,2430867700
29,6,22,Ticks_Phase_8,205,1,48,44,2431622372
29,6,22,Ticks_Phase_8,206,5,42,127,2431667784
29,6,22,Ticks_Phase_8,207,1,48,47,2432340428
29,6,22,Ticks_Phase_8,208,5,42,127,2432468452
29,6,22,Ticks_Phase_8,209,1,48,45,2433215344
29,6,22,Ticks_Phase_8,210,5,42,127,2433268028
29,6,22,Ticks_Phase_8,211,1,48,44,2434006164
29,6,22,Ticks_Phase_8,212,5,42,127,2434067740
29,6,22,Ticks_Phase_8,213,1,48,39,2434724676
29,6,22,Ticks_Phase_8,214,5,42,127,2434867736
29,6,22,Ticks_Phase_8,215,1,48,36,2435650132
29,6,22,Ticks_Phase_8,216,5,42,127,2435668584
29,6,22,Ticks_Phase_8,217,1,48,43,2436453832
29,6,22,Ticks_Phase_8,218,5,42,127,2436468024
29,6,22,Ticks_Phase_8,219,5,42,127,2437267888
29,6,22,Ticks_Phase_8,220,1,48,40,2437315720
29,6,22,Ticks_Phase_8,221,5,42,127,2438067676
29,6,22,Ticks_Phase_8,222,1,48,46,2438074532
29,6,22,Ticks_Phase_8,223,5,42,127,2438868360
29,6,22,Ticks_Phase_8,224,1,48,29,2438959996
29,6,22,Ticks_Phase_8,225,1,48,43,2439670056
29,6,22,Ticks_Phase_8,226,5,42,127,2439747820
29,6,22,Ticks_Phase_8,227,1,48,41,2440482716
29,6,22,Ticks_Phase_8,228,5,42,127,2440547756
29,6,22,Ticks_Phase_8,229,1,48,46,2441275996
29,6,22,Ticks_Phase_8,230,5,42,127,2441347416
29,6,22,Ticks_Phase_8,231,1,48,45,2442111004
29,6,22,Ticks_Phase_8,232,5,42,127,2442148400
29,6,22,Ticks_Phase_8,233,1,48,48,2442921868
29,6,22,Ticks_Phase_8,234,5,42,127,2442947892
29,6,22,Ticks_Phase_8,235,5,42,127,2443747756
29,6,22,Ticks_Phase_8,236,1,48,44,2443763452
29,6,22,Ticks_Phase_8,237,1,48,45,2444538224
29,6,22,Ticks_Phase_8,238,5,42,127,2444547388
29,6,22,Ticks_Phase_8,239,1,48,42,2445332984
29,6,22,Ticks_Phase_8,240,5,42,127,2445348368
29,6,22,Ticks_Phase_8,241,5,42,127,2446148088
29,6,22,Ticks_Phase_8,242,1,48,46,2446213760
29,6,22,Ticks_Phase_8,243,5,42,127,2446948504
29,6,22,Ticks_Phase_8,244,1,48,43,2447008092
29,6,22,Ticks_Phase_8,245,5,42,127,2447747392
29,6,22,Ticks_Phase_8,246,1,48,43,2447831008
29,6,22,Ticks_Phase_8,247,5,42,127,2448548148
29,6,22,Ticks_Phase_8,248,1,48,37,2448593796
29,6,22,Ticks_Phase_8,249,5,42,127,2449348160
29,6,22,Ticks_Phase_8,250,1,48,39,2449414180
29,6,22,Ticks_Phase_8,251,5,42,127,2450148092
29,6,22,Ticks_Phase_8,252,1,48,47,2450356960
29,6,22,Ticks_Phase_8,253,5,42,127,2450947432
29,6,22,Ticks_Phase_8,254,1,48,36,2451061556
29,6,22,Ticks_Phase_8,255,5,42,127,2451748340
29,6,22,Ticks_Phase_8,256,1,48,39,2451812140
29,6,22,Ticks_Phase_8,257,5,42,127,2452547904
29,6,22,Ticks_Phase_8,258,1,48,41,2452589464
29,6,22,Ticks_Phase_8,259,1,48,37,2453381228
29,6,22,Ticks_Phase_8,260,5,42,127,2453507356
29,6,22,Ticks_Phase_8,261,1,48,47,2454252228
29,6,22,Ticks_Phase_8,262,5,42,127,2454308204
29,6,22,Ticks_Phase_8,263,5,42,127,2455107924
29,6,22,Ticks_Phase_8,264,1,48,41,2455122200
29,6,22,Ticks_Phase_8,265,1,48,41,2455899808
29,6,22,Ticks_Phase_8,266,5,42,127,2455907800
29,6,22,Ticks_Phase_8,267,5,42,127,2456707372
29,6,22,Ticks_Phase_8,268,1,48,46,2456762460
29,6,22,Ticks_Phase_8,269,5,42,127,2457508276
29,6,22,Ticks_Phase_8,270,1,48,47,2457526904
29,6,22,Ticks_Phase_8,271,1,48,38,2458270208
29,6,22,Ticks_Phase_8,272,5,42,127,2458307908
29,6,22,Ticks_Phase_8,273,1,48,40,2459081300
29,6,22,Ticks_Phase_8,274,5,42,127,2459107620
29,6,22,Ticks_Phase_8,275,1,48,41,2459828296
29,6,22,Ticks_Phase_8,276,5,42,127,2459907628
29,6,22,Ticks_Phase_8,277,1,48,37,2460678556
29,6,22,Ticks_Phase_8,278,5,42,127,2460708088
29,6,22,Ticks_Phase_8,279,1,48,43,2461438500
29,6,22,Ticks_Phase_8,280,5,42,127,2461508024
29,6,22,Ticks_Phase_8,281,1,48,38,2462245536
29,6,22,Ticks_Phase_8,282,5,42,127,2462307684
29,6,22,Ticks_Phase_8,283,1,48,39,2463040912
29,6,22,Ticks_Phase_8,284,5,42,127,2463107468
29,6,22,Ticks_Phase_8,285,5,42,127,2463908308
29,6,22,Ticks_Phase_8,286,1,48,42,2463911576
29,6,22,Ticks_Phase_8,287,1,48,45,2464678932
29,6,22,Ticks_Phase_8,288,5,42,127,2464707940
29,6,22,Ticks_Phase_8,289,1,48,47,2465481484
29,6,22,Ticks_Phase_8,290,5,42,127,2465507728
29,6,22,Ticks_Phase_8,291,1,48,39,2466289736
29,6,22,Ticks_Phase_8,292,5,42,127,2466307436
29,6,22,Ticks_Phase_8,293,1,48,46,2467036580
29,6,22,Ticks_Phase_8,294,5,42,127,2467108196
29,6,22,Ticks_Phase_8,295,1,48,40,2467802136
29,6,22,Ticks_Phase_8,296,5,42,127,2467907892
29,6,22,Ticks_Phase_8,297,5,42,127,2468547892
29,6,22,Ticks_Phase_8,298,1,48,41,2468626728
29,6,22,Ticks_Phase_8,299,5,42,127,2469347752
29,6,22,Ticks_Phase_8,300,1,48,35,2469367204
29,6,22,Ticks_Phase_8,301,1,48,38,2470084816
29,6,22,Ticks_Phase_8,302,5,42,127,2470147456
29,6,22,Ticks_Phase_8,303,1,48,37,2470883252
29,6,22,Ticks_Phase_8,304,5,42,127,2470948216
29,6,22,Ticks_Phase_8,305,1,48,40,2471684164
29,6,22,Ticks_Phase_8,306,5,42,127,2471748000
29,6,22,Ticks_Phase_8,307,1,48,44,2472520276
29,6,22,Ticks_Phase_8,308,5,42,127,2472547740
29,6,22,Ticks_Phase_8,309,5,42,127,2473347384
29,6,22,Ticks_Phase_8,310,1,48,36,2473361356
29,6,22,Ticks_Phase_8,311,1,48,32,2474064720
29,6,22,Ticks_Phase_8,312,5,42,127,2474148356
29,6,22,Ticks_Phase_8,313,1,48,44,2474845352
29,6,22,Ticks_Phase_8,314,5,42,127,2474948056
29,6,22,Ticks_Phase_8,315,1,48,46,2475628984
29,6,22,Ticks_Phase_8,316,5,42,127,2475747916
29,6,22,Ticks_Phase_8,317,1,48,45,2476424420
29,6,22,Ticks_Phase_8,318,5,42,127,2476547408
29,6,22,Ticks_Phase_8,319,1,48,40,2477272808
29,6,22,Ticks_Phase_8,320,5,42,127,2477348328
29,6,22,Ticks_Phase_8,321,1,48,39,2478059648
29,6,22,Ticks_Phase_8,322,5,42,127,2478148040
29,6,22,Ticks_Phase_8,323,1,48,45,2478804980
29,6,22,Ticks_Phase_8,324,5,42,127,2478948136
29,6,22,Ticks_Phase_8,325,5,42,127,2479747572
29,6,22,Ticks_Phase_8,326,1,48,43,2479780716
29,6,22,Ticks_Phase_8,327,1,48,42,2480523952
29,6,22,Ticks_Phase_8,328,5,42,127,2480548176
29,6,22,Ticks_Phase_8,329,1,48,30,2481316556
29,6,22,Ticks_Phase_8,330,5,42,127,2481347888
29,6,22,Ticks_Phase_8,331,1,48,51,2482146704
29,6,22,Ticks_Phase_8,332,5,42,127,2482148268
29,6,22,Ticks_Phase_8,333,5,42,127,2482947688
29,6,22,Ticks_Phase_8,334,1,48,21,2483106452
29,6,22,Ticks_Phase_8,335,5,42,127,2483748148
29,6,22,Ticks_Phase_8,0,9999,9999,9999,2348545100
29,6,22,Ticks_Phase_8,1,9999,9999,9999,2349345876
29,6,22,Ticks_Phase_8,2,9999,9999,9999,2350145612
29,6,22,Ticks_Phase_8,3,9999,9999,9999,2350945400
29,6,22,Ticks_Phase_8,4,9999,9999,9999,2351745132
29,6,22,Ticks_Phase_8,5,9999,9999,9999,2352545892
29,6,22,Ticks_Phase_8,6,9999,9999,9999,2353345604
29,6,22,Ticks_Phase_8,7,9999,9999,9999,2354145392
29,6,22,Ticks_Phase_8,8,9999,9999,9999,2354945104
29,6,22,Ticks_Phase_8,9,9999,9999,9999,2355745864
29,6,22,Ticks_Phase_8,10,9999,9999,9999,2356545648
29,6,22,Ticks_Phase_8,11,9999,9999,9999,2357345360
29,6,22,Ticks_Phase_8,12,9999,9999,9999,2358145112
29,6,22,Ticks_Phase_8,13,9999,9999,9999,2358945876
29,6,22,Ticks_Phase_8,14,9999,9999,9999,2359745660
29,6,22,Ticks_Phase_8,15,9999,9999,9999,2360545376
29,6,22,Ticks_Phase_8,16,9999,9999,9999,2361345084
29,6,22,Ticks_Phase_8,17,9999,9999,9999,2362145920
29,6,22,Ticks_Phase_8,18,9999,9999,9999,2362945632
29,6,22,Ticks_Phase_8,19,9999,9999,9999,2363745340
29,6,22,Ticks_Phase_8,20,9999,9999,9999,2364545080
29,6,22,Ticks_Phase_8,21,9999,9999,9999,2365345912
29,6,22,Ticks_Phase_8,22,9999,9999,9999,2366145624
29,6,22,Ticks_Phase_8,23,9999,9999,9999,2366945336
29,6,22,Ticks_Phase_8,24,9999,9999,9999,2367745120
29,6,22,Ticks_Phase_8,25,9999,9999,9999,2368545880
29,6,22,Ticks_Phase_8,26,9999,9999,9999,2369345588
29,6,22,Ticks_Phase_8,27,9999,9999,9999,2370145376
29,6,22,Ticks_Phase_8,28,9999,9999,9999,2370945112
29,6,22,Ticks_Phase_8,29,9999,9999,9999,2371745872
29,6,22,Ticks_Phase_8,30,9999,9999,9999,2372525140
29,6,22,Ticks_Phase_8,31,9999,9999,9999,2373325892
29,6,22,Ticks_Phase_8,32,9999,9999,9999,2374125680
29,6,22,Ticks_Phase_8,33,9999,9999,9999,2374925400
29,6,22,Ticks_Phase_8,34,9999,9999,9999,2375725108
29,6,22,Ticks_Phase_8,35,9999,9999,9999,2376525944
29,6,22,Ticks_Phase_8,36,9999,9999,9999,2377325680
29,6,22,Ticks_Phase_8,37,9999,9999,9999,2378125384
29,6,22,Ticks_Phase_8,38,9999,9999,9999,2378925176
29,6,22,Ticks_Phase_8,39,9999,9999,9999,2379725936
29,6,22,Ticks_Phase_8,40,9999,9999,9999,2380525648
29,6,22,Ticks_Phase_8,41,9999,9999,9999,2381325432
29,6,22,Ticks_Phase_8,42,9999,9999,9999,2382125144
29,6,22,Ticks_Phase_8,43,9999,9999,9999,2382925900
29,6,22,Ticks_Phase_8,44,9999,9999,9999,2383725636
29,6,22,Ticks_Phase_8,45,9999,9999,9999,2384525424
29,6,22,Ticks_Phase_8,46,9999,9999,9999,2385325136
29,6,22,Ticks_Phase_8,47,9999,9999,9999,2386125896
29,6,22,Ticks_Phase_8,48,9999,9999,9999,2386945080
29,6,22,Ticks_Phase_8,49,9999,9999,9999,2387745912
29,6,22,Ticks_Phase_8,50,9999,9999,9999,2388545624
29,6,22,Ticks_Phase_8,51,9999,9999,9999,2389345404
29,6,22,Ticks_Phase_8,52,9999,9999,9999,2390145140
29,6,22,Ticks_Phase_8,53,9999,9999,9999,2390945900
29,6,22,Ticks_Phase_8,54,9999,9999,9999,2391745612
29,6,22,Ticks_Phase_8,55,9999,9999,9999,2392545400
29,6,22,Ticks_Phase_8,56,9999,9999,9999,2393345096
29,6,22,Ticks_Phase_8,57,9999,9999,9999,2394145868
29,6,22,Ticks_Phase_8,58,9999,9999,9999,2394945664
29,6,22,Ticks_Phase_8,59,9999,9999,9999,2395745372
29,6,22,Ticks_Phase_8,60,9999,9999,9999,2396545108
29,6,22,Ticks_Phase_8,61,9999,9999,9999,2397345868
29,6,22,Ticks_Phase_8,62,9999,9999,9999,2398145652
29,6,22,Ticks_Phase_8,63,9999,9999,9999,2398945364
29,6,22,Ticks_Phase_8,64,9999,9999,9999,2399786040
29,6,22,Ticks_Phase_8,65,9999,9999,9999,2400585824
29,6,22,Ticks_Phase_8,66,9999,9999,9999,2401385564
29,6,22,Ticks_Phase_8,67,9999,9999,9999,2402185344
29,6,22,Ticks_Phase_8,68,9999,9999,9999,2402986108
29,6,22,Ticks_Phase_8,69,9999,9999,9999,2403785820
29,6,22,Ticks_Phase_8,70,9999,9999,9999,2404585532
29,6,22,Ticks_Phase_8,71,9999,9999,9999,2405385316
29,6,22,Ticks_Phase_8,72,9999,9999,9999,2406186072
29,6,22,Ticks_Phase_8,73,9999,9999,9999,2406985784
29,6,22,Ticks_Phase_8,74,9999,9999,9999,2407785596
29,6,22,Ticks_Phase_8,75,9999,9999,9999,2408585308
29,6,22,Ticks_Phase_8,76,9999,9999,9999,2409386068
29,6,22,Ticks_Phase_8,77,9999,9999,9999,2410185856
29,6,22,Ticks_Phase_8,78,9999,9999,9999,2410985568
29,6,22,Ticks_Phase_8,79,9999,9999,9999,2411785276
29,6,22,Ticks_Phase_8,80,9999,9999,9999,2412586104
29,6,22,Ticks_Phase_8,81,9999,9999,9999,2413345900
29,6,22,Ticks_Phase_8,82,9999,9999,9999,2414145616
29,6,22,Ticks_Phase_8,83,9999,9999,9999,2414945400
29,6,22,Ticks_Phase_8,84,9999,9999,9999,2415745136
29,6,22,Ticks_Phase_8,85,9999,9999,9999,2416545896
29,6,22,Ticks_Phase_8,86,9999,9999,9999,2417345608
29,6,22,Ticks_Phase_8,87,9999,9999,9999,2418145400
29,6,22,Ticks_Phase_8,88,9999,9999,9999,2418945112
29,6,22,Ticks_Phase_8,89,9999,9999,9999,2419745860
29,6,22,Ticks_Phase_8,90,9999,9999,9999,2420545648
29,6,22,Ticks_Phase_8,91,9999,9999,9999,2421345360
29,6,22,Ticks_Phase_8,92,9999,9999,9999,2422145096
29,6,22,Ticks_Phase_8,93,9999,9999,9999,2422945860
29,6,22,Ticks_Phase_8,94,9999,9999,9999,2423745640
29,6,22,Ticks_Phase_8,95,9999,9999,9999,2424545352
29,6,22,Ticks_Phase_8,96,9999,9999,9999,2425345136
29,6,22,Ticks_Phase_8,97,9999,9999,9999,2426066000
29,6,22,Ticks_Phase_8,98,9999,9999,9999,2426865780
29,6,22,Ticks_Phase_8,99,9999,9999,9999,2427665508
29,6,22,Ticks_Phase_8,100,9999,9999,9999,2428465276
29,6,22,Ticks_Phase_8,101,9999,9999,9999,2429266036
29,6,22,Ticks_Phase_8,102,9999,9999,9999,2430065756
29,6,22,Ticks_Phase_8,103,9999,9999,9999,2430865484
29,6,22,Ticks_Phase_8,104,9999,9999,9999,2431665272
29,6,22,Ticks_Phase_8,105,9999,9999,9999,2432466012
29,6,22,Ticks_Phase_8,106,9999,9999,9999,2433265740
29,6,22,Ticks_Phase_8,107,9999,9999,9999,2434065528
29,6,22,Ticks_Phase_8,108,9999,9999,9999,2434865224
29,6,22,Ticks_Phase_8,109,9999,9999,9999,2435665996
29,6,22,Ticks_Phase_8,110,9999,9999,9999,2436465732
29,6,22,Ticks_Phase_8,111,9999,9999,9999,2437265524
29,6,22,Ticks_Phase_8,112,9999,9999,9999,2438065236
29,6,22,Ticks_Phase_8,113,9999,9999,9999,2438865996
29,6,22,Ticks_Phase_8,114,9999,9999,9999,2439745604
29,6,22,Ticks_Phase_8,115,9999,9999,9999,2440545392
29,6,22,Ticks_Phase_8,116,9999,9999,9999,2441345128
29,6,22,Ticks_Phase_8,117,9999,9999,9999,2442145888
29,6,22,Ticks_Phase_8,118,9999,9999,9999,2442945604
29,6,22,Ticks_Phase_8,119,9999,9999,9999,2443745396
29,6,22,Ticks_Phase_8,120,9999,9999,9999,2444545100
29,6,22,Ticks_Phase_8,121,9999,9999,9999,2445345856
29,6,22,Ticks_Phase_8,122,9999,9999,9999,2446145652
29,6,22,Ticks_Phase_8,123,9999,9999,9999,2446945364
29,6,22,Ticks_Phase_8,124,9999,9999,9999,2447745100
29,6,22,Ticks_Phase_8,125,9999,9999,9999,2448545860
29,6,22,Ticks_Phase_8,126,9999,9999,9999,2449345644
29,6,22,Ticks_Phase_8,127,9999,9999,9999,2450145356
29,6,22,Ticks_Phase_8,128,9999,9999,9999,2450945144
29,6,22,Ticks_Phase_8,129,9999,9999,9999,2451745900
29,6,22,Ticks_Phase_8,130,9999,9999,9999,2452545612
29,6,22,Ticks_Phase_8,131,9999,9999,9999,2453505140
29,6,22,Ticks_Phase_8,132,9999,9999,9999,2454305912
29,6,22,Ticks_Phase_8,133,9999,9999,9999,2455105632
29,6,22,Ticks_Phase_8,134,9999,9999,9999,2455905340
29,6,22,Ticks_Phase_8,135,9999,9999,9999,2456705080
29,6,22,Ticks_Phase_8,136,9999,9999,9999,2457505912
29,6,22,Ticks_Phase_8,137,9999,9999,9999,2458305620
29,6,22,Ticks_Phase_8,138,9999,9999,9999,2459105404
29,6,22,Ticks_Phase_8,139,9999,9999,9999,2459905116
29,6,22,Ticks_Phase_8,140,9999,9999,9999,2460705872
29,6,22,Ticks_Phase_8,141,9999,9999,9999,2461505660
29,6,22,Ticks_Phase_8,142,9999,9999,9999,2462305372
29,6,22,Ticks_Phase_8,143,9999,9999,9999,2463105108
29,6,22,Ticks_Phase_8,144,9999,9999,9999,2463905872
29,6,22,Ticks_Phase_8,145,9999,9999,9999,2464705652
29,6,22,Ticks_Phase_8,146,9999,9999,9999,2465505364
29,6,22,Ticks_Phase_8,147,9999,9999,9999,2466305148
29,6,22,Ticks_Phase_8,148,9999,9999,9999,2467105908
29,6,22,Ticks_Phase_8,149,9999,9999,9999,2467905604
29,6,22,Ticks_Phase_8,150,9999,9999,9999,2468545604
29,6,22,Ticks_Phase_8,151,9999,9999,9999,2469345388
29,6,22,Ticks_Phase_8,152,9999,9999,9999,2470145096
29,6,22,Ticks_Phase_8,153,9999,9999,9999,2470945852
29,6,22,Ticks_Phase_8,154,9999,9999,9999,2471745640
29,6,22,Ticks_Phase_8,155,9999,9999,9999,2472545352
29,6,22,Ticks_Phase_8,156,9999,9999,9999,2473345092
29,6,22,Ticks_Phase_8,157,9999,9999,9999,2474145920
29,6,22,Ticks_Phase_8,158,9999,9999,9999,2474945620
29,6,22,Ticks_Phase_8,159,9999,9999,9999,2475745404
29,6,22,Ticks_Phase_8,160,9999,9999,9999,2476545116
29,6,22,Ticks_Phase_8,161,9999,9999,9999,2477345892
29,6,22,Ticks_Phase_8,162,9999,9999,9999,2478145604
29,6,22,Ticks_Phase_8,163,9999,9999,9999,2478945404
29,6,22,Ticks_Phase_8,164,9999,9999,9999,2479745136
29,6,22,Ticks_Phase_8,165,9999,9999,9999,2480545888
29,6,22,Ticks_Phase_8,166,9999,9999,9999,2481345600
29,6,22,Ticks_Phase_8,167,9999,9999,9999,2482145392
29,6,22,Ticks_Phase_8,168,9999,9999,9999,2482945104
29,6,22,Ticks_Phase_8,169,9999,9999,9999,2483745860
29,7,23,Ticks_Phase_5,0,5,42,127,2500321868
29,7,23,Ticks_Phase_5,1,5,42,127,2500822324
29,7,23,Ticks_Phase_5,2,5,42,127,2501322108
29,7,23,Ticks_Phase_5,3,5,42,127,2501821672
29,7,23,Ticks_Phase_5,4,1,48,43,2501881184
29,7,23,Ticks_Phase_5,5,5,42,127,2502321656
29,7,23,Ticks_Phase_5,6,1,48,48,2502359756
29,7,23,Ticks_Phase_5,7,5,42,127,2502822316
29,7,23,Ticks_Phase_5,8,1,48,45,2502851880
29,7,23,Ticks_Phase_5,9,1,48,49,2503314704
29,7,23,Ticks_Phase_5,10,5,42,127,2503321848
29,7,23,Ticks_Phase_5,11,1,48,54,2503803680
29,7,23,Ticks_Phase_5,12,5,42,127,2503822060
29,7,23,Ticks_Phase_5,13,1,48,52,2504267692
29,7,23,Ticks_Phase_5,14,5,42,127,2504322496
29,7,23,Ticks_Phase_5,15,1,48,46,2504772708
29,7,23,Ticks_Phase_5,16,5,42,127,2504832292
29,7,23,Ticks_Phase_5,17,1,48,50,2505295080
29,7,23,Ticks_Phase_5,18,5,42,127,2505331980
29,7,23,Ticks_Phase_5,19,1,48,53,2505802184
29,7,23,Ticks_Phase_5,20,5,42,127,2505831744
29,7,23,Ticks_Phase_5,21,1,48,57,2506278648
29,7,23,Ticks_Phase_5,22,5,42,127,2506331780
29,7,23,Ticks_Phase_5,23,1,48,51,2506793996
29,7,23,Ticks_Phase_5,24,5,42,127,2506832364
29,7,23,Ticks_Phase_5,25,1,48,49,2507278548
29,7,23,Ticks_Phase_5,26,5,42,127,2507331828
29,7,23,Ticks_Phase_5,27,1,48,51,2507797108
29,7,23,Ticks_Phase_5,28,5,42,127,2507831592
29,7,23,Ticks_Phase_5,29,1,48,50,2508266844
29,7,23,Ticks_Phase_5,30,5,42,127,2508332624
29,7,23,Ticks_Phase_5,31,1,48,46,2508799256
29,7,23,Ticks_Phase_5,32,5,42,127,2508832016
29,7,23,Ticks_Phase_5,33,1,48,48,2509294304
29,7,23,Ticks_Phase_5,34,5,42,127,2509331780
29,7,23,Ticks_Phase_5,35,1,48,53,2509785676
29,7,23,Ticks_Phase_5,36,5,42,127,2509831392
29,7,23,Ticks_Phase_5,37,1,48,54,2510264996
29,7,23,Ticks_Phase_5,38,5,42,127,2510332276
29,7,23,Ticks_Phase_5,39,1,48,54,2510770904
29,7,23,Ticks_Phase_5,40,5,42,127,2510831964
29,7,23,Ticks_Phase_5,41,1,48,48,2511305936
29,7,23,Ticks_Phase_5,42,5,42,127,2511331652
29,7,23,Ticks_Phase_5,43,1,48,47,2511785924
29,7,23,Ticks_Phase_5,44,5,42,127,2511832612
29,7,23,Ticks_Phase_5,45,1,48,52,2512296696
29,7,23,Ticks_Phase_5,46,5,42,127,2512342336
29,7,23,Ticks_Phase_5,47,1,48,49,2512807840
29,7,23,Ticks_Phase_5,48,5,42,127,2512842172
29,7,23,Ticks_Phase_5,49,1,48,45,2513310532
29,7,23,Ticks_Phase_5,50,5,42,127,2513341864
29,7,23,Ticks_Phase_5,51,1,48,46,2513808336
29,7,23,Ticks_Phase_5,52,5,42,127,2513841400
29,7,23,Ticks_Phase_5,53,1,48,35,2514313052
29,7,23,Ticks_Phase_5,54,5,42,127,2514342436
29,7,23,Ticks_Phase_5,55,1,48,48,2514822628
29,7,23,Ticks_Phase_5,56,5,42,127,2514841828
29,7,23,Ticks_Phase_5,57,1,48,48,2515269876
29,7,23,Ticks_Phase_5,58,5,42,127,2515331480
29,7,23,Ticks_Phase_5,59,5,42,127,2515832296
29,7,23,Ticks_Phase_5,60,1,48,48,2516200000
29,7,23,Ticks_Phase_5,61,5,42,127,2516331988
29,7,23,Ticks_Phase_5,62,1,48,48,2516720432
29,7,23,Ticks_Phase_5,63,5,42,127,2516831600
29,7,23,Ticks_Phase_5,64,1,48,41,2517263248
29,7,23,Ticks_Phase_5,65,5,42,127,2517332400
29,7,23,Ticks_Phase_5,66,1,48,46,2517766380
29,7,23,Ticks_Phase_5,67,5,42,127,2517832160
29,7,23,Ticks_Phase_5,68,1,48,53,2518233716
29,7,23,Ticks_Phase_5,69,5,42,127,2518331684
29,7,23,Ticks_Phase_5,70,1,48,47,2518766500
29,7,23,Ticks_Phase_5,71,5,42,127,2518831536
29,7,23,Ticks_Phase_5,72,1,48,51,2519255628
29,7,23,Ticks_Phase_5,73,5,42,127,2519332344
29,7,23,Ticks_Phase_5,74,1,48,48,2519757412
29,7,23,Ticks_Phase_5,75,5,42,127,2519832032
29,7,23,Ticks_Phase_5,76,1,48,48,2520255080
29,7,23,Ticks_Phase_5,77,5,42,127,2520331500
29,7,23,Ticks_Phase_5,78,1,48,50,2520741144
29,7,23,Ticks_Phase_5,79,5,42,127,2520832308
29,7,23,Ticks_Phase_5,80,1,48,51,2521256476
29,7,23,Ticks_Phase_5,81,5,42,127,2521332144
29,7,23,Ticks_Phase_5,82,1,48,54,2521712508
29,7,23,Ticks_Phase_5,83,5,42,127,2521831968
29,7,23,Ticks_Phase_5,84,1,48,48,2522317112
29,7,23,Ticks_Phase_5,85,5,42,127,2522331448
29,7,23,Ticks_Phase_5,86,1,48,47,2522797476
29,7,23,Ticks_Phase_5,87,5,42,127,2522832256
29,7,23,Ticks_Phase_5,88,1,48,48,2523291180
29,7,23,Ticks_Phase_5,89,5,42,127,2523332020
29,7,23,Ticks_Phase_5,90,1,48,47,2523789452
29,7,23,Ticks_Phase_5,91,5,42,127,2523831784
29,7,23,Ticks_Phase_5,92,1,48,45,2524258944
29,7,23,Ticks_Phase_5,93,5,42,127,2524341880
29,7,23,Ticks_Phase_5,94,1,48,39,2524797428
29,7,23,Ticks_Phase_5,95,5,42,127,2524842244
29,7,23,Ticks_Phase_5,96,1,48,42,2525286712
29,7,23,Ticks_Phase_5,97,5,42,127,2525342008
29,7,23,Ticks_Phase_5,98,1,48,42,2525774464
29,7,23,Ticks_Phase_5,99,5,42,127,2525841696
29,7,23,Ticks_Phase_5,100,1,48,42,2526266284
29,7,23,Ticks_Phase_5,101,5,42,127,2526341604
29,7,23,Ticks_Phase_5,102,1,48,44,2526781856
29,7,23,Ticks_Phase_5,103,5,42,127,2526842192
29,7,23,Ticks_Phase_5,104,1,48,49,2527251212
29,7,23,Ticks_Phase_5,105,5,42,127,2527341804
29,7,23,Ticks_Phase_5,106,1,48,38,2527767072
29,7,23,Ticks_Phase_5,107,5,42,127,2527841792
29,7,23,Ticks_Phase_5,108,1,48,46,2528296264
29,7,23,Ticks_Phase_5,109,5,42,127,2528342652
29,7,23,Ticks_Phase_5,110,1,48,57,2528758356
29,7,23,Ticks_Phase_5,111,5,42,127,2528842040
29,7,23,Ticks_Phase_5,112,1,48,48,2529284484
29,7,23,Ticks_Phase_5,113,5,42,127,2529341876
29,7,23,Ticks_Phase_5,114,1,48,46,2529817868
29,7,23,Ticks_Phase_5,115,5,42,127,2529841492
29,7,23,Ticks_Phase_5,116,1,48,53,2530292400
29,7,23,Ticks_Phase_5,117,5,42,127,2530342304
29,7,23,Ticks_Phase_5,118,1,48,43,2530807136
29,7,23,Ticks_Phase_5,119,5,42,127,2530841916
29,7,23,Ticks_Phase_5,120,1,48,48,2531292972
29,7,23,Ticks_Phase_5,121,5,42,127,2531341752
29,7,23,Ticks_Phase_5,122,1,48,44,2531823140
29,7,23,Ticks_Phase_5,123,5,42,127,2531842416
29,7,23,Ticks_Phase_5,124,1,48,56,2532288604
29,7,23,Ticks_Phase_5,125,5,42,127,2532371836
29,7,23,Ticks_Phase_5,126,1,48,48,2532794356
29,7,23,Ticks_Phase_5,127,5,42,127,2532871600
29,7,23,Ticks_Phase_5,128,1,48,38,2533316504
29,7,23,Ticks_Phase_5,129,5,42,127,2533372484
29,7,23,Ticks_Phase_5,130,1,48,50,2533835592
29,7,23,Ticks_Phase_5,131,5,42,127,2533872020
29,7,23,Ticks_Phase_5,132,1,48,44,2534343520
29,7,23,Ticks_Phase_5,133,5,42,127,2534371708
29,7,23,Ticks_Phase_5,134,1,48,50,2534846948
29,7,23,Ticks_Phase_5,135,5,42,127,2534872520
29,7,23,Ticks_Phase_5,136,1,48,46,2535297288
29,7,23,Ticks_Phase_5,137,5,42,127,2535382392
29,7,23,Ticks_Phase_5,138,1,48,48,2535879344
29,7,23,Ticks_Phase_5,139,5,42,127,2535882376
29,7,23,Ticks_Phase_5,140,5,42,127,2536381772
29,7,23,Ticks_Phase_5,141,1,48,46,2536383332
29,7,23,Ticks_Phase_5,142,5,42,127,2536881388
29,7,23,Ticks_Phase_5,143,1,48,46,2536896636
29,7,23,Ticks_Phase_5,144,1,48,49,2537381668
29,7,23,Ticks_Phase_5,145,5,42,127,2537383384
29,7,23,Ticks_Phase_5,146,1,48,48,2537865816
29,7,23,Ticks_Phase_5,147,5,42,127,2537881952
29,7,23,Ticks_Phase_5,148,1,48,43,2538371052
29,7,23,Ticks_Phase_5,149,5,42,127,2538381788
29,7,23,Ticks_Phase_5,150,1,48,55,2538851192
29,7,23,Ticks_Phase_5,151,5,42,127,2538882372
29,7,23,Ticks_Phase_5,152,1,48,51,2539319780
29,7,23,Ticks_Phase_5,153,5,42,127,2539392320
29,7,23,Ticks_Phase_5,154,1,48,49,2539873708
29,7,23,Ticks_Phase_5,155,5,42,127,2539892232
29,7,23,Ticks_Phase_5,156,1,48,40,2540384028
29,7,23,Ticks_Phase_5,157,5,42,127,2540391996
29,7,23,Ticks_Phase_5,158,5,42,127,2540872268
29,7,23,Ticks_Phase_5,159,1,48,48,2540875016
29,7,23,Ticks_Phase_5,160,1,48,49,2541355668
29,7,23,Ticks_Phase_5,161,5,42,127,2541371728
29,7,23,Ticks_Phase_5,162,1,48,38,2541854836
29,7,23,Ticks_Phase_5,163,5,42,127,2541871564
29,7,23,Ticks_Phase_5,164,1,48,35,2542344636
29,7,23,Ticks_Phase_5,165,5,42,127,2542372224
29,7,23,Ticks_Phase_5,166,1,48,47,2542811452
29,7,23,Ticks_Phase_5,167,5,42,127,2542871912
29,7,23,Ticks_Phase_5,168,1,48,46,2543294060
29,7,23,Ticks_Phase_5,169,5,42,127,2543371524
29,7,23,Ticks_Phase_5,170,1,48,57,2543769252
29,7,23,Ticks_Phase_5,171,5,42,127,2543872320
29,7,23,Ticks_Phase_5,172,1,48,44,2544330136
29,7,23,Ticks_Phase_5,173,5,42,127,2544372172
29,7,23,Ticks_Phase_5,174,1,48,56,2544778516
29,7,23,Ticks_Phase_5,175,5,42,127,2544872964
29,7,23,Ticks_Phase_5,176,1,48,45,2545320524
29,7,23,Ticks_Phase_5,177,5,42,127,2545371472
29,7,23,Ticks_Phase_5,178,1,48,42,2545818328
29,7,23,Ticks_Phase_5,179,5,42,127,2545872136
29,7,23,Ticks_Phase_5,180,1,48,39,2546282372
29,7,23,Ticks_Phase_5,181,5,42,127,2546371896
29,7,23,Ticks_Phase_5,182,1,48,46,2546791504
29,7,23,Ticks_Phase_5,183,5,42,127,2546872032
29,7,23,Ticks_Phase_5,184,1,48,44,2547265472
29,7,23,Ticks_Phase_5,185,5,42,127,2547372528
29,7,23,Ticks_Phase_5,186,1,48,40,2547825844
29,7,23,Ticks_Phase_5,187,5,42,127,2547872232
29,7,23,Ticks_Phase_5,188,1,48,40,2548331532
29,7,23,Ticks_Phase_5,189,5,42,127,2548371700
29,7,23,Ticks_Phase_5,190,1,48,55,2548808044
29,7,23,Ticks_Phase_5,191,5,42,127,2548822384
29,7,23,Ticks_Phase_5,192,1,48,47,2549277328
29,7,23,Ticks_Phase_5,193,5,42,127,2549322072
29,7,23,Ticks_Phase_5,194,1,48,49,2549781144
29,7,23,Ticks_Phase_5,195,5,42,127,2549821836
29,7,23,Ticks_Phase_5,196,1,48,49,2550276932
29,7,23,Ticks_Phase_5,197,5,42,127,2550321672
29,7,23,Ticks_Phase_5,198,1,48,42,2550773856
29,7,23,Ticks_Phase_5,199,5,42,127,2550822112
29,7,23,Ticks_Phase_5,200,1,48,29,2551273916
29,7,23,Ticks_Phase_5,201,5,42,127,2551321948
29,7,23,Ticks_Phase_5,202,1,48,49,2551753456
29,7,23,Ticks_Phase_5,203,5,42,127,2551821712
29,7,23,Ticks_Phase_5,204,1,48,48,2552235024
29,7,23,Ticks_Phase_5,205,5,42,127,2552322296
29,7,23,Ticks_Phase_5,206,1,48,52,2552789296
29,7,23,Ticks_Phase_5,207,5,42,127,2552832316
29,7,23,Ticks_Phase_5,208,1,48,42,2553272816
29,7,23,Ticks_Phase_5,209,5,42,127,2553332080
29,7,23,Ticks_Phase_5,210,1,48,49,2553781116
29,7,23,Ticks_Phase_5,211,5,42,127,2553831768
29,7,23,Ticks_Phase_5,212,1,48,48,2554305812
29,7,23,Ticks_Phase_5,213,5,42,127,2554331532
29,7,23,Ticks_Phase_5,214,1,48,46,2554788348
29,7,23,Ticks_Phase_5,215,5,42,127,2554832116
29,7,23,Ticks_Phase_5,216,1,48,46,2555293656
29,7,23,Ticks_Phase_5,217,5,42,127,2555331956
29,7,23,Ticks_Phase_5,218,1,48,43,2555808316
29,7,23,Ticks_Phase_5,219,5,42,127,2555831644
29,7,23,Ticks_Phase_5,220,1,48,49,2556293932
29,7,23,Ticks_Phase_5,221,5,42,127,2556332528
29,7,23,Ticks_Phase_5,222,1,48,43,2556802684
29,7,23,Ticks_Phase_5,223,5,42,127,2556832068
29,7,23,Ticks_Phase_5,224,1,48,39,2557314132
29,7,23,Ticks_Phase_5,225,5,42,127,2557381932
29,7,23,Ticks_Phase_5,226,1,48,42,2557843392
29,7,23,Ticks_Phase_5,227,5,42,127,2557881772
29,7,23,Ticks_Phase_5,228,1,48,47,2558316272
29,7,23,Ticks_Phase_5,229,5,42,127,2558381460
29,7,23,Ticks_Phase_5,230,1,48,46,2558828388
29,7,23,Ticks_Phase_5,231,5,42,127,2558882268
29,7,23,Ticks_Phase_5,232,1,48,48,2559299216
29,7,23,Ticks_Phase_5,233,5,42,127,2559381956
29,7,23,Ticks_Phase_5,234,1,48,42,2559831792
29,7,23,Ticks_Phase_5,235,5,42,127,2559881496
29,7,23,Ticks_Phase_5,236,1,48,44,2560323388
29,7,23,Ticks_Phase_5,237,5,42,127,2560382308
29,7,23,Ticks_Phase_5,238,1,48,46,2560822104
29,7,23,Ticks_Phase_5,239,5,42,127,2560882364
29,7,23,Ticks_Phase_5,240,1,48,50,2561330708
29,7,23,Ticks_Phase_5,241,5,42,127,2561381608
29,7,23,Ticks_Phase_5,242,1,48,44,2561827388
29,7,23,Ticks_Phase_5,243,5,42,127,2561881344
29,7,23,Ticks_Phase_5,244,1,48,47,2562313728
29,7,23,Ticks_Phase_5,245,5,42,127,2562382352
29,7,23,Ticks_Phase_5,246,1,48,47,2562842848
29,7,23,Ticks_Phase_5,247,5,42,127,2562881892
29,7,23,Ticks_Phase_5,248,1,48,41,2563335716
29,7,23,Ticks_Phase_5,249,5,42,127,2563381580
29,7,23,Ticks_Phase_5,250,1,48,39,2563849180
29,7,23,Ticks_Phase_5,251,5,42,127,2563882244
29,7,23,Ticks_Phase_5,252,1,48,43,2564356216
29,7,23,Ticks_Phase_5,253,5,42,127,2564382304
29,7,23,Ticks_Phase_5,254,1,48,46,2564835080
29,7,23,Ticks_Phase_5,255,5,42,127,2564881916
29,7,23,Ticks_Phase_5,256,1,48,43,2565359552
29,7,23,Ticks_Phase_5,257,5,42,127,2565381532
29,7,23,Ticks_Phase_5,258,1,48,48,2565818276
29,7,23,Ticks_Phase_5,259,5,42,127,2565981432
29,7,23,Ticks_Phase_5,260,5,42,127,2566482236
29,7,23,Ticks_Phase_5,261,1,48,29,2566614784
29,7,23,Ticks_Phase_5,262,5,42,127,2566982076
29,7,23,Ticks_Phase_5,263,1,48,38,2567035096
29,7,23,Ticks_Phase_5,264,5,42,127,2567481988
29,7,23,Ticks_Phase_5,265,1,48,39,2567503084
29,7,23,Ticks_Phase_5,266,5,42,127,2567981304
29,7,23,Ticks_Phase_5,267,1,48,42,2568015716
29,7,23,Ticks_Phase_5,268,1,48,44,2568480832
29,7,23,Ticks_Phase_5,269,5,42,127,2568482476
29,7,23,Ticks_Phase_5,270,1,48,49,2568972028
29,7,23,Ticks_Phase_5,271,5,42,127,2568982016
29,7,23,Ticks_Phase_5,272,1,48,50,2569457184
29,7,23,Ticks_Phase_5,273,5,42,127,2569481556
29,7,23,Ticks_Phase_5,274,1,48,40,2569971628
29,7,23,Ticks_Phase_5,275,5,42,127,2569982292
29,7,23,Ticks_Phase_5,276,1,48,48,2570465996
29,7,23,Ticks_Phase_5,277,5,42,127,2570481908
29,7,23,Ticks_Phase_5,278,1,48,42,2570963148
29,7,23,Ticks_Phase_5,279,5,42,127,2570981896
29,7,23,Ticks_Phase_5,280,1,48,47,2571411236
29,7,23,Ticks_Phase_5,281,5,42,127,2571481360
29,7,23,Ticks_Phase_5,282,1,48,52,2571930396
29,7,23,Ticks_Phase_5,283,5,42,127,2571982096
29,7,23,Ticks_Phase_5,284,1,48,50,2572477708
29,7,23,Ticks_Phase_5,285,5,42,127,2572482084
29,7,23,Ticks_Phase_5,286,1,48,44,2572965488
29,7,23,Ticks_Phase_5,287,5,42,127,2572981696
29,7,23,Ticks_Phase_5,288,1,48,46,2573444360
29,7,23,Ticks_Phase_5,289,5,42,127,2573482208
29,7,23,Ticks_Phase_5,290,1,48,42,2573958868
29,7,23,Ticks_Phase_5,291,5,42,127,2573982196
29,7,23,Ticks_Phase_5,292,1,48,44,2574430560
29,7,23,Ticks_Phase_5,293,5,42,127,2574481808
29,7,23,Ticks_Phase_5,294,1,48,46,2574936132
29,7,23,Ticks_Phase_5,295,5,42,127,2574981644
29,7,23,Ticks_Phase_5,296,5,42,127,2575381864
29,7,23,Ticks_Phase_5,297,1,48,45,2575448708
29,7,23,Ticks_Phase_5,298,5,42,127,2575881704
29,7,23,Ticks_Phase_5,299,1,48,48,2575930208
29,7,23,Ticks_Phase_5,300,1,48,48,2576381992
29,7,23,Ticks_Phase_5,301,5,42,127,2576383776
29,7,23,Ticks_Phase_5,302,5,42,127,2576881976
29,7,23,Ticks_Phase_5,303,1,48,49,2576883988
29,7,23,Ticks_Phase_5,304,5,42,127,2577381740
29,7,23,Ticks_Phase_5,305,1,48,47,2577383900
29,7,23,Ticks_Phase_5,306,5,42,127,2577881724
29,7,23,Ticks_Phase_5,307,1,48,48,2577884096
29,7,23,Ticks_Phase_5,308,1,48,54,2578356588
29,7,23,Ticks_Phase_5,309,5,42,127,2578382156
29,7,23,Ticks_Phase_5,310,5,42,127,2578881776
29,7,23,Ticks_Phase_5,311,1,48,44,2578886388
29,7,23,Ticks_Phase_5,312,1,48,43,2579352896
29,7,23,Ticks_Phase_5,313,5,42,127,2579381680
29,7,23,Ticks_Phase_5,314,1,48,52,2579856476
29,7,23,Ticks_Phase_5,315,5,42,127,2579882564
29,7,23,Ticks_Phase_5,316,1,48,49,2580336692
29,7,23,Ticks_Phase_5,317,5,42,127,2580382032
29,7,23,Ticks_Phase_5,318,1,48,45,2580847908
29,7,23,Ticks_Phase_5,319,5,42,127,2580881644
29,7,23,Ticks_Phase_5,320,1,48,54,2581333424
29,7,23,Ticks_Phase_5,321,5,42,127,2581381628
29,7,23,Ticks_Phase_5,322,1,48,46,2581835648
29,7,23,Ticks_Phase_5,323,5,42,127,2581882292
29,7,23,Ticks_Phase_5,324,1,48,42,2582366296
29,7,23,Ticks_Phase_5,325,5,42,127,2582381904
29,7,23,Ticks_Phase_5,326,1,48,42,2582855248
29,7,23,Ticks_Phase_5,327,5,42,127,2582881516
29,7,23,Ticks_Phase_5,328,1,48,45,2583339144
29,7,23,Ticks_Phase_5,329,5,42,127,2583382448
29,7,23,Ticks_Phase_5,330,1,48,42,2583840176
29,7,23,Ticks_Phase_5,331,5,42,127,2583882212
29,7,23,Ticks_Phase_5,332,1,48,47,2584317168
29,7,23,Ticks_Phase_5,333,5,42,127,2584381828
29,7,23,Ticks_Phase_5,334,1,48,48,2584804272
29,7,23,Ticks_Phase_5,335,5,42,127,2584881664
29,7,23,Ticks_Phase_5,0,9999,9999,9999,2500319356
29,7,23,Ticks_Phase_5,1,9999,9999,9999,2500820036
29,7,23,Ticks_Phase_5,2,9999,9999,9999,2501319748
29,7,23,Ticks_Phase_5,3,9999,9999,9999,2501819456
29,7,23,Ticks_Phase_5,4,9999,9999,9999,2502319220
29,7,23,Ticks_Phase_5,5,9999,9999,9999,2502819956
29,7,23,Ticks_Phase_5,6,9999,9999,9999,2503319636
29,7,23,Ticks_Phase_5,7,9999,9999,9999,2503819324
29,7,23,Ticks_Phase_5,8,9999,9999,9999,2504320060
29,7,23,Ticks_Phase_5,9,9999,9999,9999,2504830004
29,7,23,Ticks_Phase_5,10,9999,9999,9999,2505329768
29,7,23,Ticks_Phase_5,11,9999,9999,9999,2505829456
29,7,23,Ticks_Phase_5,12,9999,9999,9999,2506329196
29,7,23,Ticks_Phase_5,13,9999,9999,9999,2506829928
29,7,23,Ticks_Phase_5,14,9999,9999,9999,2507329616
29,7,23,Ticks_Phase_5,15,9999,9999,9999,2507829304
29,7,23,Ticks_Phase_5,16,9999,9999,9999,2508330040
29,7,23,Ticks_Phase_5,17,9999,9999,9999,2508829804
29,7,23,Ticks_Phase_5,18,9999,9999,9999,2509329492
29,7,23,Ticks_Phase_5,19,9999,9999,9999,2509829180
29,7,23,Ticks_Phase_5,20,9999,9999,9999,2510329916
29,7,23,Ticks_Phase_5,21,9999,9999,9999,2510829680
29,7,23,Ticks_Phase_5,22,9999,9999,9999,2511329364
29,7,23,Ticks_Phase_5,23,9999,9999,9999,2511830104
29,7,23,Ticks_Phase_5,24,9999,9999,9999,2512340048
29,7,23,Ticks_Phase_5,25,9999,9999,9999,2512839736
29,7,23,Ticks_Phase_5,26,9999,9999,9999,2513339500
29,7,23,Ticks_Phase_5,27,9999,9999,9999,2513839188
29,7,23,Ticks_Phase_5,28,9999,9999,9999,2514339924
29,7,23,Ticks_Phase_5,29,9999,9999,9999,2514839616
29,7,23,Ticks_Phase_5,30,9999,9999,9999,2515329120
29,7,23,Ticks_Phase_5,31,9999,9999,9999,2515829860
29,7,23,Ticks_Phase_5,32,9999,9999,9999,2516329552
29,7,23,Ticks_Phase_5,33,9999,9999,9999,2516829288
29,7,23,Ticks_Phase_5,34,9999,9999,9999,2517330040
29,7,23,Ticks_Phase_5,35,9999,9999,9999,2517829724
29,7,23,Ticks_Phase_5,36,9999,9999,9999,2518329400
29,7,23,Ticks_Phase_5,37,9999,9999,9999,2518829176
29,7,23,Ticks_Phase_5,38,9999,9999,9999,2519329908
29,7,23,Ticks_Phase_5,39,9999,9999,9999,2519829600
29,7,23,Ticks_Phase_5,40,9999,9999,9999,2520329288
29,7,23,Ticks_Phase_5,41,9999,9999,9999,2520830020
29,7,23,Ticks_Phase_5,42,9999,9999,9999,2521329784
29,7,23,Ticks_Phase_5,43,9999,9999,9999,2521829456
29,7,23,Ticks_Phase_5,44,9999,9999,9999,2522329160
29,7,23,Ticks_Phase_5,45,9999,9999,9999,2522829896
29,7,23,Ticks_Phase_5,46,9999,9999,9999,2523329656
29,7,23,Ticks_Phase_5,47,9999,9999,9999,2523829348
29,7,23,Ticks_Phase_5,48,9999,9999,9999,2524339296
29,7,23,Ticks_Phase_5,49,9999,9999,9999,2524840032
29,7,23,Ticks_Phase_5,50,9999,9999,9999,2525339720
29,7,23,Ticks_Phase_5,51,9999,9999,9999,2525839484
29,7,23,Ticks_Phase_5,52,9999,9999,9999,2526339172
29,7,23,Ticks_Phase_5,53,9999,9999,9999,2526839904
29,7,23,Ticks_Phase_5,54,9999,9999,9999,2527339592
29,7,23,Ticks_Phase_5,55,9999,9999,9999,2527839356
29,7,23,Ticks_Phase_5,56,9999,9999,9999,2528340064
29,7,23,Ticks_Phase_5,57,9999,9999,9999,2528839752
29,7,23,Ticks_Phase_5,58,9999,9999,9999,2529339516
29,7,23,Ticks_Phase_5,59,9999,9999,9999,2529839204
29,7,23,Ticks_Phase_5,60,9999,9999,9999,2530339940
29,7,23,Ticks_Phase_5,61,9999,9999,9999,2530839632
29,7,23,Ticks_Phase_5,62,9999,9999,9999,2531339320
29,7,23,Ticks_Phase_5,63,9999,9999,9999,2531840056
29,7,23,Ticks_Phase_5,64,9999,9999,9999,2532369476
29,7,23,Ticks_Phase_5,65,9999,9999,9999,2532869236
29,7,23,Ticks_Phase_5,66,9999,9999,9999,2533369972
29,7,23,Ticks_Phase_5,67,9999,9999,9999,2533869660
29,7,23,Ticks_Phase_5,68,9999,9999,9999,2534369348
29,7,23,Ticks_Phase_5,69,9999,9999,9999,2534870084
29,7,23,Ticks_Phase_5,70,9999,9999,9999,2535380028
29,7,23,Ticks_Phase_5,71,9999,9999,9999,2535879792
29,7,23,Ticks_Phase_5,72,9999,9999,9999,2536379488
29,7,23,Ticks_Phase_5,73,9999,9999,9999,2536879172
29,7,23,Ticks_Phase_5,74,9999,9999,9999,2537379908
29,7,23,Ticks_Phase_5,75,9999,9999,9999,2537879664
29,7,23,Ticks_Phase_5,76,9999,9999,9999,2538379352
29,7,23,Ticks_Phase_5,77,9999,9999,9999,2538880088
29,7,23,Ticks_Phase_5,78,9999,9999,9999,2539390032
29,7,23,Ticks_Phase_5,79,9999,9999,9999,2539889724
29,7,23,Ticks_Phase_5,80,9999,9999,9999,2540389484
29,7,23,Ticks_Phase_5,81,9999,9999,9999,2540869756
29,7,23,Ticks_Phase_5,82,9999,9999,9999,2541369440
29,7,23,Ticks_Phase_5,83,9999,9999,9999,2541869128
29,7,23,Ticks_Phase_5,84,9999,9999,9999,2542369864
29,7,23,Ticks_Phase_5,85,9999,9999,9999,2542869628
29,7,23,Ticks_Phase_5,86,9999,9999,9999,2543369312
29,7,23,Ticks_Phase_5,87,9999,9999,9999,2543870032
29,7,23,Ticks_Phase_5,88,9999,9999,9999,2544369736
29,7,23,Ticks_Phase_5,89,9999,9999,9999,2544869500
29,7,23,Ticks_Phase_5,90,9999,9999,9999,2545369188
29,7,23,Ticks_Phase_5,91,9999,9999,9999,2545869920
29,7,23,Ticks_Phase_5,92,9999,9999,9999,2546369608
29,7,23,Ticks_Phase_5,93,9999,9999,9999,2546869372
29,7,23,Ticks_Phase_5,94,9999,9999,9999,2547370092
29,7,23,Ticks_Phase_5,95,9999,9999,9999,2547869796
29,7,23,Ticks_Phase_5,96,9999,9999,9999,2548369488
29,7,23,Ticks_Phase_5,97,9999,9999,9999,2548820096
29,7,23,Ticks_Phase_5,98,9999,9999,9999,2549319784
29,7,23,Ticks_Phase_5,99,9999,9999,9999,2549819472
29,7,23,Ticks_Phase_5,100,9999,9999,9999,2550319164
29,7,23,Ticks_Phase_5,101,9999,9999,9999,2550819900
29,7,23,Ticks_Phase_5,102,9999,9999,9999,2551319660
29,7,23,Ticks_Phase_5,103,9999,9999,9999,2551819348
29,7,23,Ticks_Phase_5,104,9999,9999,9999,2552320084
29,7,23,Ticks_Phase_5,105,9999,9999,9999,2552830032
29,7,23,Ticks_Phase_5,106,9999,9999,9999,2553329720
29,7,23,Ticks_Phase_5,107,9999,9999,9999,2553829480
29,7,23,Ticks_Phase_5,108,9999,9999,9999,2554329172
29,7,23,Ticks_Phase_5,109,9999,9999,9999,2554829904
29,7,23,Ticks_Phase_5,110,9999,9999,9999,2555329592
29,7,23,Ticks_Phase_5,111,9999,9999,9999,2555829356
29,7,23,Ticks_Phase_5,112,9999,9999,9999,2556330092
29,7,23,Ticks_Phase_5,113,9999,9999,9999,2556829780
29,7,23,Ticks_Phase_5,114,9999,9999,9999,2557379644
29,7,23,Ticks_Phase_5,115,9999,9999,9999,2557879408
29,7,23,Ticks_Phase_5,116,9999,9999,9999,2558379100
29,7,23,Ticks_Phase_5,117,9999,9999,9999,2558879832
29,7,23,Ticks_Phase_5,118,9999,9999,9999,2559379520
29,7,23,Ticks_Phase_5,119,9999,9999,9999,2559879284
29,7,23,Ticks_Phase_5,120,9999,9999,9999,2560380020
29,7,23,Ticks_Phase_5,121,9999,9999,9999,2560879708
29,7,23,Ticks_Phase_5,122,9999,9999,9999,2561379396
29,7,23,Ticks_Phase_5,123,9999,9999,9999,2561879132
29,7,23,Ticks_Phase_5,124,9999,9999,9999,2562379844
29,7,23,Ticks_Phase_5,125,9999,9999,9999,2562879608
29,7,23,Ticks_Phase_5,126,9999,9999,9999,2563379296
29,7,23,Ticks_Phase_5,127,9999,9999,9999,2563880032
29,7,23,Ticks_Phase_5,128,9999,9999,9999,2564379720
29,7,23,Ticks_Phase_5,129,9999,9999,9999,2564879484
29,7,23,Ticks_Phase_5,130,9999,9999,9999,2565379172
29,7,23,Ticks_Phase_5,131,9999,9999,9999,2565979220
29,7,23,Ticks_Phase_5,132,9999,9999,9999,2566479952
29,7,23,Ticks_Phase_5,133,9999,9999,9999,2566979640
29,7,23,Ticks_Phase_5,134,9999,9999,9999,2567479404
29,7,23,Ticks_Phase_5,135,9999,9999,9999,2567979088
29,7,23,Ticks_Phase_5,136,9999,9999,9999,2568479824
29,7,23,Ticks_Phase_5,137,9999,9999,9999,2568979580
29,7,23,Ticks_Phase_5,138,9999,9999,9999,2569479272
29,7,23,Ticks_Phase_5,139,9999,9999,9999,2569980004
29,7,23,Ticks_Phase_5,140,9999,9999,9999,2570479696
29,7,23,Ticks_Phase_5,141,9999,9999,9999,2570979384
29,7,23,Ticks_Phase_5,142,9999,9999,9999,2571479148
29,7,23,Ticks_Phase_5,143,9999,9999,9999,2571979884
29,7,23,Ticks_Phase_5,144,9999,9999,9999,2572479572
29,7,23,Ticks_Phase_5,145,9999,9999,9999,2572979260
29,7,23,Ticks_Phase_5,146,9999,9999,9999,2573479996
29,7,23,Ticks_Phase_5,147,9999,9999,9999,2573979760
29,7,23,Ticks_Phase_5,148,9999,9999,9999,2574479448
29,7,23,Ticks_Phase_5,149,9999,9999,9999,2574979136
29,7,23,Ticks_Phase_5,150,9999,9999,9999,2575379576
29,7,23,Ticks_Phase_5,151,9999,9999,9999,2575879268
29,7,23,Ticks_Phase_5,152,9999,9999,9999,2576380004
29,7,23,Ticks_Phase_5,153,9999,9999,9999,2576879688
29,7,23,Ticks_Phase_5,154,9999,9999,9999,2577379452
29,7,23,Ticks_Phase_5,155,9999,9999,9999,2577879140
29,7,23,Ticks_Phase_5,156,9999,9999,9999,2578379868
29,7,23,Ticks_Phase_5,157,9999,9999,9999,2578879564
29,7,23,Ticks_Phase_5,158,9999,9999,9999,2579379320
29,7,23,Ticks_Phase_5,159,9999,9999,9999,2579880056
29,7,23,Ticks_Phase_5,160,9999,9999,9999,2580379744
29,7,23,Ticks_Phase_5,161,9999,9999,9999,2580879432
29,7,23,Ticks_Phase_5,162,9999,9999,9999,2581379192
29,7,23,Ticks_Phase_5,163,9999,9999,9999,2581879928
29,7,23,Ticks_Phase_5,164,9999,9999,9999,2582379616
29,7,23,Ticks_Phase_5,165,9999,9999,9999,2582879304
29,7,23,Ticks_Phase_5,166,9999,9999,9999,2583380088
29,7,23,Ticks_Phase_5,167,9999,9999,9999,2583879776
29,7,23,Ticks_Phase_5,168,9999,9999,9999,2584379464
29,7,23,Ticks_Phase_5,169,9999,9999,9999,2584879228
29,8,20,Ticks_Linear_8,0,5,42,127,2601920896
29,8,20,Ticks_Linear_8,1,5,42,127,2602741308
29,8,20,Ticks_Linear_8,2,5,42,127,2603561568
29,8,20,Ticks_Linear_8,3,1,48,45,2603621412
29,8,20,Ticks_Linear_8,4,5,42,127,2604380568
29,8,20,Ticks_Linear_8,5,1,48,40,2604390056
29,8,20,Ticks_Linear_8,6,1,48,45,2605181440
29,8,20,Ticks_Linear_8,7,5,42,127,2605200728
29,8,20,Ticks_Linear_8,8,1,48,46,2605969564
29,8,20,Ticks_Linear_8,9,5,42,127,2606010784
29,8,20,Ticks_Linear_8,10,1,48,46,2606765680
29,8,20,Ticks_Linear_8,11,5,42,127,2606820692
29,8,20,Ticks_Linear_8,12,1,48,41,2607584580
29,8,20,Ticks_Linear_8,13,5,42,127,2607630752
29,8,20,Ticks_Linear_8,14,1,48,39,2608382284
29,8,20,Ticks_Linear_8,15,5,42,127,2608440588
29,8,20,Ticks_Linear_8,16,1,48,43,2609139696
29,8,20,Ticks_Linear_8,17,5,42,127,2609250652
29,8,20,Ticks_Linear_8,18,1,48,38,2610019200
29,8,20,Ticks_Linear_8,19,5,42,127,2610050320
29,8,20,Ticks_Linear_8,20,1,48,39,2610798540
29,8,20,Ticks_Linear_8,21,5,42,127,2610851236
29,8,20,Ticks_Linear_8,22,1,48,40,2611579632
29,8,20,Ticks_Linear_8,23,5,42,127,2611651112
29,8,20,Ticks_Linear_8,24,1,48,41,2612360632
29,8,20,Ticks_Linear_8,25,5,42,127,2612450760
29,8,20,Ticks_Linear_8,26,1,48,45,2613207080
29,8,20,Ticks_Linear_8,27,5,42,127,2613250336
29,8,20,Ticks_Linear_8,28,1,48,37,2613985908
29,8,20,Ticks_Linear_8,29,5,42,127,2614040924
29,8,20,Ticks_Linear_8,30,1,48,34,2614778892
29,8,20,Ticks_Linear_8,31,5,42,127,2614830536
29,8,20,Ticks_Linear_8,32,1,48,38,2615598008
29,8,20,Ticks_Linear_8,33,5,42,127,2615620976
29,8,20,Ticks_Linear_8,34,1,48,39,2616379404
29,8,20,Ticks_Linear_8,35,5,42,127,2616410392
29,8,20,Ticks_Linear_8,36,1,48,31,2617159200
29,8,20,Ticks_Linear_8,37,5,42,127,2617200900
29,8,20,Ticks_Linear_8,38,1,48,44,2617971156
29,8,20,Ticks_Linear_8,39,5,42,127,2617981376
29,8,20,Ticks_Linear_8,40,1,48,46,2618735224
29,8,20,Ticks_Linear_8,41,5,42,127,2618760584
29,8,20,Ticks_Linear_8,42,1,48,43,2619453072
29,8,20,Ticks_Linear_8,43,5,42,127,2619540908
29,8,20,Ticks_Linear_8,44,1,48,34,2620291764
29,8,20,Ticks_Linear_8,45,5,42,127,2620321160
29,8,20,Ticks_Linear_8,46,5,42,127,2621101496
29,8,20,Ticks_Linear_8,47,1,48,42,2621145352
29,8,20,Ticks_Linear_8,48,5,42,127,2621880704
29,8,20,Ticks_Linear_8,49,1,48,33,2621967316
29,8,20,Ticks_Linear_8,50,5,42,127,2622650696
29,8,20,Ticks_Linear_8,51,1,48,43,2622703536
29,8,20,Ticks_Linear_8,52,1,48,44,2623404312
29,8,20,Ticks_Linear_8,53,5,42,127,2623420756
29,8,20,Ticks_Linear_8,54,1,48,38,2624142328
29,8,20,Ticks_Linear_8,55,5,42,127,2624190824
29,8,20,Ticks_Linear_8,56,1,48,41,2624886036
29,8,20,Ticks_Linear_8,57,5,42,127,2624960744
29,8,20,Ticks_Linear_8,58,1,48,39,2625683064
29,8,20,Ticks_Linear_8,59,5,42,127,2625720628
29,8,20,Ticks_Linear_8,60,1,48,45,2626455228
29,8,20,Ticks_Linear_8,61,5,42,127,2626480660
29,8,20,Ticks_Linear_8,62,1,48,40,2627221032
29,8,20,Ticks_Linear_8,63,5,42,127,2627241812
29,8,20,Ticks_Linear_8,64,1,48,37,2627991176
29,8,20,Ticks_Linear_8,65,5,42,127,2628001248
29,8,20,Ticks_Linear_8,66,1,48,40,2628711368
29,8,20,Ticks_Linear_8,67,5,42,127,2628760836
29,8,20,Ticks_Linear_8,68,1,48,36,2629466532
29,8,20,Ticks_Linear_8,69,5,42,127,2629510460
29,8,20,Ticks_Linear_8,70,1,48,37,2630175688
29,8,20,Ticks_Linear_8,71,5,42,127,2630261056
29,8,20,Ticks_Linear_8,72,1,48,32,2630922252
29,8,20,Ticks_Linear_8,73,5,42,127,2631010608
29,8,20,Ticks_Linear_8,74,5,42,127,2631761336
29,8,20,Ticks_Linear_8,75,1,48,51,2631789272
29,8,20,Ticks_Linear_8,76,1,48,28,2632473916
29,8,20,Ticks_Linear_8,77,5,42,127,2632510728
29,8,20,Ticks_Linear_8,78,1,48,22,2633208332
29,8,20,Ticks_Linear_8,79,5,42,127,2633251288
29,8,20,Ticks_Linear_8,80,5,42,127,2633990512
29,8,20,Ticks_Linear_8,81,1,48,41,2634168452
29,8,20,Ticks_Linear_8,82,5,42,127,2634731072
29,8,20,Ticks_Linear_8,83,1,48,22,2634844304
29,8,20,Ticks_Linear_8,84,5,42,127,2635471188
29,8,20,Ticks_Linear_8,85,1,48,29,2635526276
29,8,20,Ticks_Linear_8,86,1,48,31,2636210100
29,8,20,Ticks_Linear_8,87,5,42,127,2636212036
29,8,20,Ticks_Linear_8,88,1,48,46,2636901044
29,8,20,Ticks_Linear_8,89,5,42,127,2636940624
29,8,20,Ticks_Linear_8,90,1,48,39,2637613716
29,8,20,Ticks_Linear_8,91,5,42,127,2637671220
29,8,20,Ticks_Linear_8,92,5,42,127,2638400836
29,8,20,Ticks_Linear_8,93,1,48,57,2638553308
29,8,20,Ticks_Linear_8,94,5,42,127,2639130916
29,8,20,Ticks_Linear_8,95,1,48,42,2639705868
29,8,20,Ticks_Linear_8,96,5,42,127,2639861068
29,8,20,Ticks_Linear_8,97,1,48,27,2640450236
29,8,20,Ticks_Linear_8,98,5,42,127,2640580960
29,8,20,Ticks_Linear_8,99,1,48,33,2641281436
29,8,20,Ticks_Linear_8,100,5,42,127,2641300796
29,8,20,Ticks_Linear_8,101,1,48,30,2641949712
29,8,20,Ticks_Linear_8,102,5,42,127,2642020912
29,8,20,Ticks_Linear_8,103,1,48,34,2642732504
29,8,20,Ticks_Linear_8,104,5,42,127,2642740932
29,8,20,Ticks_Linear_8,105,1,48,36,2643379984
29,8,20,Ticks_Linear_8,106,5,42,127,2643460528
29,8,20,Ticks_Linear_8,107,5,42,127,2644171216
29,8,20,Ticks_Linear_8,108,1,48,29,2644336632
29,8,20,Ticks_Linear_8,109,5,42,127,2644880704
29,8,20,Ticks_Linear_8,110,1,48,20,2645224356
29,8,20,Ticks_Linear_8,111,5,42,127,2645591680
29,8,20,Ticks_Linear_8,112,1,48,28,2645877596
29,8,20,Ticks_Linear_8,113,5,42,127,2646300992
29,8,20,Ticks_Linear_8,114,1,48,27,2646543628
29,8,20,Ticks_Linear_8,115,5,42,127,2647010776
29,8,20,Ticks_Linear_8,116,1,48,33,2647179580
29,8,20,Ticks_Linear_8,117,5,42,127,2647710976
29,8,20,Ticks_Linear_8,118,1,48,46,2648183164
29,8,20,Ticks_Linear_8,119,5,42,127,2648410576
29,8,20,Ticks_Linear_8,120,1,48,43,2648753556
29,8,20,Ticks_Linear_8,121,5,42,127,2649110900
29,8,20,Ticks_Linear_8,122,1,48,27,2649368500
29,8,20,Ticks_Linear_8,123,5,42,127,2649811392
29,8,20,Ticks_Linear_8,124,1,48,39,2649941628
29,8,20,Ticks_Linear_8,125,5,42,127,2650510696
29,8,20,Ticks_Linear_8,126,1,48,43,2650546836
29,8,20,Ticks_Linear_8,127,5,42,127,2651200836
29,8,20,Ticks_Linear_8,128,1,48,39,2651216160
29,8,20,Ticks_Linear_8,129,1,48,41,2651891444
29,8,20,Ticks_Linear_8,130,5,42,127,2651892864
29,8,20,Ticks_Linear_8,131,1,48,45,2652552732
29,8,20,Ticks_Linear_8,132,5,42,127,2652581528
29,8,20,Ticks_Linear_8,133,1,48,40,2653224520
29,8,20,Ticks_Linear_8,134,5,42,127,2653271392
29,8,20,Ticks_Linear_8,135,1,48,39,2653902704
29,8,20,Ticks_Linear_8,136,5,42,127,2653960488
29,8,20,Ticks_Linear_8,137,5,42,127,2654640396
29,8,20,Ticks_Linear_8,138,1,48,49,2654680884
29,8,20,Ticks_Linear_8,139,5,42,127,2655320376
29,8,20,Ticks_Linear_8,140,1,48,39,2655327608
29,8,20,Ticks_Linear_8,141,1,48,43,2655947404
29,8,20,Ticks_Linear_8,142,5,42,127,2656001372
29,8,20,Ticks_Linear_8,143,1,48,42,2656659820
29,8,20,Ticks_Linear_8,144,5,42,127,2656681348
29,8,20,Ticks_Linear_8,145,1,48,33,2657328692
29,8,20,Ticks_Linear_8,146,5,42,127,2657361228
29,8,20,Ticks_Linear_8,147,1,48,41,2657961860
29,8,20,Ticks_Linear_8,148,5,42,127,2658031096
29,8,20,Ticks_Linear_8,149,5,42,127,2658700600
29,8,20,Ticks_Linear_8,150,1,48,40,2659320920
29,8,20,Ticks_Linear_8,151,5,42,127,2659371432
29,8,20,Ticks_Linear_8,152,1,48,29,2660030628
29,8,20,Ticks_Linear_8,153,5,42,127,2660041000
29,8,20,Ticks_Linear_8,154,5,42,127,2660711172
29,8,20,Ticks_Linear_8,155,1,48,42,2660715940
29,8,20,Ticks_Linear_8,156,5,42,127,2661371212
29,8,20,Ticks_Linear_8,157,5,42,127,2662030916
29,8,20,Ticks_Linear_8,158,1,48,39,2662205972
29,8,20,Ticks_Linear_8,159,1,48,40,2662679224
29,8,20,Ticks_Linear_8,160,5,42,127,2662691092
29,8,20,Ticks_Linear_8,161,1,48,44,2663296064
29,8,20,Ticks_Linear_8,162,5,42,127,2663350848
29,8,20,Ticks_Linear_8,163,5,42,127,2664011044
29,8,20,Ticks_Linear_8,164,1,48,36,2664065332
29,8,20,Ticks_Linear_8,165,5,42,127,2664661292
29,8,20,Ticks_Linear_8,166,1,48,32,2664784824
29,8,20,Ticks_Linear_8,167,5,42,127,2665310716
29,8,20,Ticks_Linear_8,168,1,48,36,2665455144
29,8,20,Ticks_Linear_8,169,5,42,127,2665960864
29,8,20,Ticks_Linear_8,170,1,48,36,2666325064
29,8,20,Ticks_Linear_8,171,5,42,127,2666610964
29,8,20,Ticks_Linear_8,172,1,48,40,2666834772
29,8,20,Ticks_Linear_8,173,5,42,127,2667261164
29,8,20,Ticks_Linear_8,174,1,48,37,2667460744
29,8,20,Ticks_Linear_8,175,5,42,127,2667901448
29,8,20,Ticks_Linear_8,176,1,48,29,2668108628
29,8,20,Ticks_Linear_8,177,5,42,127,2668541264
29,8,20,Ticks_Linear_8,178,1,48,41,2668711260
29,8,20,Ticks_Linear_8,179,5,42,127,2669181252
29,8,20,Ticks_Linear_8,180,1,48,48,2669314820
29,8,20,Ticks_Linear_8,181,5,42,127,2669821436
29,8,20,Ticks_Linear_8,182,1,48,40,2669940964
29,8,20,Ticks_Linear_8,183,5,42,127,2670461352
29,8,20,Ticks_Linear_8,184,1,48,35,2670660160
29,8,20,Ticks_Linear_8,185,5,42,127,2671090984
29,8,20,Ticks_Linear_8,186,1,48,34,2671310180
29,8,20,Ticks_Linear_8,187,5,42,127,2671720788
29,8,20,Ticks_Linear_8,188,1,48,33,2671928804
29,8,20,Ticks_Linear_8,189,5,42,127,2672350716
29,8,20,Ticks_Linear_8,190,1,48,37,2672586832
29,8,20,Ticks_Linear_8,191,5,42,127,2672981492
29,8,20,Ticks_Linear_8,192,1,48,29,2673276020
29,8,20,Ticks_Linear_8,193,5,42,127,2673611344
29,8,20,Ticks_Linear_8,194,1,48,38,2673970136
29,8,20,Ticks_Linear_8,195,5,42,127,2674230568
29,8,20,Ticks_Linear_8,196,1,48,28,2674813836
29,8,20,Ticks_Linear_8,197,5,42,127,2674851248
29,8,20,Ticks_Linear_8,198,1,48,33,2675463984
29,8,20,Ticks_Linear_8,199,5,42,127,2675470844
29,8,20,Ticks_Linear_8,200,5,42,127,2676091292
29,8,20,Ticks_Linear_8,201,1,48,39,2676300656
29,8,20,Ticks_Linear_8,202,5,42,127,2676710740
29,8,20,Ticks_Linear_8,203,1,48,25,2676955692
29,8,20,Ticks_Linear_8,204,5,42,127,2677321344
29,8,20,Ticks_Linear_8,205,1,48,37,2677670424
29,8,20,Ticks_Linear_8,206,5,42,127,2677931456
29,8,20,Ticks_Linear_8,207,1,48,33,2678411960
29,8,20,Ticks_Linear_8,208,5,42,127,2678540644
29,8,20,Ticks_Linear_8,209,5,42,127,2679151292
29,8,20,Ticks_Linear_8,210,1,48,33,2679202716
29,8,20,Ticks_Linear_8,211,5,42,127,2679761232
29,8,20,Ticks_Linear_8,212,1,48,38,2679813404
29,8,20,Ticks_Linear_8,213,5,42,127,2680361428
29,8,20,Ticks_Linear_8,214,1,48,39,2680418504
29,8,20,Ticks_Linear_8,215,5,42,127,2680961352
29,8,20,Ticks_Linear_8,216,1,48,38,2681009488
29,8,20,Ticks_Linear_8,217,5,42,127,2681560428
29,8,20,Ticks_Linear_8,218,1,48,34,2681631100
29,8,20,Ticks_Linear_8,219,5,42,127,2682160476
29,8,20,Ticks_Linear_8,220,1,48,30,2682214916
29,8,20,Ticks_Linear_8,221,5,42,127,2682760476
29,8,20,Ticks_Linear_8,222,1,48,39,2682783736
29,8,20,Ticks_Linear_8,223,5,42,127,2683351388
29,8,20,Ticks_Linear_8,224,1,48,46,2683416060
29,8,20,Ticks_Linear_8,225,5,42,127,2683941180
29,8,20,Ticks_Linear_8,226,1,48,34,2684019588
29,8,20,Ticks_Linear_8,227,5,42,127,2684531068
29,8,20,Ticks_Linear_8,228,1,48,20,2684577244
29,8,20,Ticks_Linear_8,229,1,48,43,2685094296
29,8,20,Ticks_Linear_8,230,5,42,127,2685121076
29,8,20,Ticks_Linear_8,231,5,42,127,2685710724
29,8,20,Ticks_Linear_8,232,1,48,48,2685765060
29,8,20,Ticks_Linear_8,233,5,42,127,2686291176
29,8,20,Ticks_Linear_8,234,1,48,34,2686406924
29,8,20,Ticks_Linear_8,235,5,42,127,2686870856
29,8,20,Ticks_Linear_8,236,1,48,43,2687036628
29,8,20,Ticks_Linear_8,237,5,42,127,2687450460
29,8,20,Ticks_Linear_8,238,1,48,44,2687650188
29,8,20,Ticks_Linear_8,239,5,42,127,2688031112
29,8,20,Ticks_Linear_8,240,1,48,37,2688594688
29,8,20,Ticks_Linear_8,241,5,42,127,2688610832
29,8,20,Ticks_Linear_8,242,5,42,127,2689181012
29,8,20,Ticks_Linear_8,243,1,48,40,2689252728
29,8,20,Ticks_Linear_8,244,5,42,127,2689751476
29,8,20,Ticks_Linear_8,245,1,48,31,2689916596
29,8,20,Ticks_Linear_8,246,5,42,127,2690320748
29,8,20,Ticks_Linear_8,247,1,48,37,2690579864
29,8,20,Ticks_Linear_8,248,5,42,127,2690891144
29,8,20,Ticks_Linear_8,249,1,48,38,2691344980
29,8,20,Ticks_Linear_8,250,5,42,127,2691460736
29,8,20,Ticks_Linear_8,251,5,42,127,2692020744
29,8,20,Ticks_Linear_8,252,1,48,29,2692175504
29,8,20,Ticks_Linear_8,253,5,42,127,2692580652
29,8,20,Ticks_Linear_8,254,1,48,40,2692773188
29,8,20,Ticks_Linear_8,255,5,42,127,2693140712
29,8,20,Ticks_Linear_8,256,1,48,40,2693482220
29,8,20,Ticks_Linear_8,257,5,42,127,2693700920
29,8,20,Ticks_Linear_8,258,5,42,127,2694261100
29,8,20,Ticks_Linear_8,259,1,48,13,2694270216
29,8,20,Ticks_Linear_8,260,5,42,127,2694810900
29,8,20,Ticks_Linear_8,261,1,48,38,2694944696
29,8,20,Ticks_Linear_8,262,5,42,127,2695360852
29,8,20,Ticks_Linear_8,263,1,48,38,2695574952
29,8,20,Ticks_Linear_8,264,5,42,127,2695910652
29,8,20,Ticks_Linear_8,265,1,48,24,2696243596
29,8,20,Ticks_Linear_8,266,5,42,127,2696460600
29,8,20,Ticks_Linear_8,267,5,42,127,2697010424
29,8,20,Ticks_Linear_8,268,1,48,35,2697021328
29,8,20,Ticks_Linear_8,269,5,42,127,2697551456
29,8,20,Ticks_Linear_8,270,1,48,47,2697683632
29,8,20,Ticks_Linear_8,271,5,42,127,2698090728
29,8,20,Ticks_Linear_8,272,1,48,34,2698289680
29,8,20,Ticks_Linear_8,273,5,42,127,2698630488
29,8,20,Ticks_Linear_8,274,1,48,36,2699025888
29,8,20,Ticks_Linear_8,275,5,42,127,2699171448
29,8,20,Ticks_Linear_8,276,1,48,33,2699647828
29,8,20,Ticks_Linear_8,277,5,42,127,2699710932
29,8,20,Ticks_Linear_8,278,5,42,127,2700241340
29,8,20,Ticks_Linear_8,279,1,48,30,2700330064
29,8,20,Ticks_Linear_8,280,5,42,127,2700770772
29,8,20,Ticks_Linear_8,281,1,48,46,2700904368
29,8,20,Ticks_Linear_8,282,5,42,127,2701301324
29,8,20,Ticks_Linear_8,283,1,48,43,2701519252
29,8,20,Ticks_Linear_8,284,5,42,127,2701830456
29,8,20,Ticks_Linear_8,285,5,42,127,2702360884
29,8,20,Ticks_Linear_8,286,1,48,37,2702382872
29,8,20,Ticks_Linear_8,287,5,42,127,2702881252
29,8,20,Ticks_Linear_8,288,1,48,46,2703028172
29,8,20,Ticks_Linear_8,289,5,42,127,2703401468
29,8,20,Ticks_Linear_8,290,1,48,38,2703611160
29,8,20,Ticks_Linear_8,291,5,42,127,2703920420
29,8,20,Ticks_Linear_8,292,1,48,30,2704196072
29,8,20,Ticks_Linear_8,293,5,42,127,2704440784
29,8,20,Ticks_Linear_8,294,5,42,127,2704960876
29,8,20,Ticks_Linear_8,295,1,48,45,2705286360
29,8,20,Ticks_Linear_8,296,5,42,127,2705471060
29,8,20,Ticks_Linear_8,297,1,48,39,2705726044
29,8,20,Ticks_Linear_8,298,5,42,127,2705980648
29,8,20,Ticks_Linear_8,299,1,48,35,2706289284
29,8,20,Ticks_Linear_8,300,5,42,127,2706490832
29,8,20,Ticks_Linear_8,301,1,48,38,2706907972
29,8,20,Ticks_Linear_8,302,5,42,127,2707000656
29,8,20,Ticks_Linear_8,303,1,48,38,2707418616
29,8,20,Ticks_Linear_8,304,5,42,127,2707510544
29,8,20,Ticks_Linear_8,305,1,48,42,2707876664
29,8,20,Ticks_Linear_8,306,5,42,127,2708011424
29,8,20,Ticks_Linear_8,307,1,48,34,2708411872
29,8,20,Ticks_Linear_8,308,5,42,127,2708511048
29,8,20,Ticks_Linear_8,309,1,48,38,2708939136
29,8,20,Ticks_Linear_8,310,5,42,127,2709010836
29,8,20,Ticks_Linear_8,311,1,48,43,2709434412
29,8,20,Ticks_Linear_8,312,5,42,127,2709510536
29,8,20,Ticks_Linear_8,313,1,48,40,2709920408
29,8,20,Ticks_Linear_8,314,5,42,127,2710011136
29,8,20,Ticks_Linear_8,315,1,48,42,2710406548
29,8,20,Ticks_Linear_8,316,5,42,127,2710500948
29,8,20,Ticks_Linear_8,317,1,48,37,2710916212
29,8,20,Ticks_Linear_8,318,5,42,127,2710991288
29,8,20,Ticks_Linear_8,319,1,48,35,2711423992
29,8,20,Ticks_Linear_8,320,5,42,127,2711480880
29,8,20,Ticks_Linear_8,321,1,48,41,2711934924
29,8,20,Ticks_Linear_8,322,5,42,127,2711971144
29,8,20,Ticks_Linear_8,323,1,48,48,2712420780
29,8,20,Ticks_Linear_8,324,5,42,127,2712460808
29,8,20,Ticks_Linear_8,0,9999,9999,9999,2601918520
29,8,20,Ticks_Linear_8,1,9999,9999,9999,2602738784
29,8,20,Ticks_Linear_8,2,9999,9999,9999,2603558972
29,8,20,Ticks_Linear_8,3,9999,9999,9999,2604378196
29,8,20,Ticks_Linear_8,4,9999,9999,9999,2605198428
29,8,20,Ticks_Linear_8,5,9999,9999,9999,2606008412
29,8,20,Ticks_Linear_8,6,9999,9999,9999,2606818396
29,8,20,Ticks_Linear_8,7,9999,9999,9999,2607628380
29,8,20,Ticks_Linear_8,8,9999,9999,9999,2608438364
29,8,20,Ticks_Linear_8,9,9999,9999,9999,2609248356
29,8,20,Ticks_Linear_8,10,9999,9999,9999,2610048096
29,8,20,Ticks_Linear_8,11,9999,9999,9999,2610848864
29,8,20,Ticks_Linear_8,12,9999,9999,9999,2611648588
29,8,20,Ticks_Linear_8,13,9999,9999,9999,2612448312
29,8,20,Ticks_Linear_8,14,9999,9999,9999,2613248112
29,8,20,Ticks_Linear_8,15,9999,9999,9999,2614038628
29,8,20,Ticks_Linear_8,16,9999,9999,9999,2614828088
29,8,20,Ticks_Linear_8,17,9999,9999,9999,2615618676
29,8,20,Ticks_Linear_8,18,9999,9999,9999,2616408168
29,8,20,Ticks_Linear_8,19,9999,9999,9999,2617198676
29,8,20,Ticks_Linear_8,20,9999,9999,9999,2617979004
29,8,20,Ticks_Linear_8,21,9999,9999,9999,2618758212
29,8,20,Ticks_Linear_8,22,9999,9999,9999,2619538536
29,8,20,Ticks_Linear_8,23,9999,9999,9999,2620318788
29,8,20,Ticks_Linear_8,24,9999,9999,9999,2621099124
29,8,20,Ticks_Linear_8,25,9999,9999,9999,2621878328
29,8,20,Ticks_Linear_8,26,9999,9999,9999,2622648396
29,8,20,Ticks_Linear_8,27,9999,9999,9999,2623418460
29,8,20,Ticks_Linear_8,28,9999,9999,9999,2624188528
29,8,20,Ticks_Linear_8,29,9999,9999,9999,2624958520
29,8,20,Ticks_Linear_8,30,9999,9999,9999,2625718328
29,8,20,Ticks_Linear_8,31,9999,9999,9999,2626478140
29,8,20,Ticks_Linear_8,32,9999,9999,9999,2627238992
29,8,20,Ticks_Linear_8,33,9999,9999,9999,2627998804
29,8,20,Ticks_Linear_8,34,9999,9999,9999,2628758612
29,8,20,Ticks_Linear_8,35,9999,9999,9999,2629508164
29,8,20,Ticks_Linear_8,36,9999,9999,9999,2630258760
29,8,20,Ticks_Linear_8,37,9999,9999,9999,2631008308
29,8,20,Ticks_Linear_8,38,9999,9999,9999,2631758960
29,8,20,Ticks_Linear_8,39,9999,9999,9999,2632508504
29,8,20,Ticks_Linear_8,40,9999,9999,9999,2633248844
29,8,20,Ticks_Linear_8,41,9999,9999,9999,2633988212
29,8,20,Ticks_Linear_8,42,9999,9999,9999,2634728548
29,8,20,Ticks_Linear_8,43,9999,9999,9999,2635468888
29,8,20,Ticks_Linear_8,44,9999,9999,9999,2636208252
29,8,20,Ticks_Linear_8,45,9999,9999,9999,2636938324
29,8,20,Ticks_Linear_8,46,9999,9999,9999,2637668476
29,8,20,Ticks_Linear_8,47,9999,9999,9999,2638398536
29,8,20,Ticks_Linear_8,48,9999,9999,9999,2639128688
29,8,20,Ticks_Linear_8,49,9999,9999,9999,2639858768
29,8,20,Ticks_Linear_8,50,9999,9999,9999,2640578664
29,8,20,Ticks_Linear_8,51,9999,9999,9999,2641298496
29,8,20,Ticks_Linear_8,52,9999,9999,9999,2642018392
29,8,20,Ticks_Linear_8,53,9999,9999,9999,2642738260
29,8,20,Ticks_Linear_8,54,9999,9999,9999,2643458156
29,8,20,Ticks_Linear_8,55,9999,9999,9999,2644168768
29,8,20,Ticks_Linear_8,56,9999,9999,9999,2644878404
29,8,20,Ticks_Linear_8,57,9999,9999,9999,2645589084
29,8,20,Ticks_Linear_8,58,9999,9999,9999,2646298692
29,8,20,Ticks_Linear_8,59,9999,9999,9999,2647008328
29,8,20,Ticks_Linear_8,60,9999,9999,9999,2647708752
29,8,20,Ticks_Linear_8,61,9999,9999,9999,2648408128
29,8,20,Ticks_Linear_8,62,9999,9999,9999,2649108600
29,8,20,Ticks_Linear_8,63,9999,9999,9999,2649809020
29,8,20,Ticks_Linear_8,64,9999,9999,9999,2650508396
29,8,20,Ticks_Linear_8,65,9999,9999,9999,2651198536
29,8,20,Ticks_Linear_8,66,9999,9999,9999,2651888700
29,8,20,Ticks_Linear_8,67,9999,9999,9999,2652578932
29,8,20,Ticks_Linear_8,68,9999,9999,9999,2653269096
29,8,20,Ticks_Linear_8,69,9999,9999,9999,2653958260
29,8,20,Ticks_Linear_8,70,9999,9999,9999,2654638172
29,8,20,Ticks_Linear_8,71,9999,9999,9999,2655318076
29,8,20,Ticks_Linear_8,72,9999,9999,9999,2655999072
29,8,20,Ticks_Linear_8,73,9999,9999,9999,2656678976
29,8,20,Ticks_Linear_8,74,9999,9999,9999,2657358932
29,8,20,Ticks_Linear_8,75,9999,9999,9999,2658028648
29,8,20,Ticks_Linear_8,76,9999,9999,9999,2658698300
29,8,20,Ticks_Linear_8,77,9999,9999,9999,2659369056
29,8,20,Ticks_Linear_8,78,9999,9999,9999,2660038776
29,8,20,Ticks_Linear_8,79,9999,9999,9999,2660708428
29,8,20,Ticks_Linear_8,80,9999,9999,9999,2661368912
29,8,20,Ticks_Linear_8,81,9999,9999,9999,2662028392
29,8,20,Ticks_Linear_8,82,9999,9999,9999,2662688868
29,8,20,Ticks_Linear_8,83,9999,9999,9999,2663348328
29,8,20,Ticks_Linear_8,84,9999,9999,9999,2664008816
29,8,20,Ticks_Linear_8,85,9999,9999,9999,2664659068
29,8,20,Ticks_Linear_8,86,9999,9999,9999,2665308268
29,8,20,Ticks_Linear_8,87,9999,9999,9999,2665958492
29,8,20,Ticks_Linear_8,88,9999,9999,9999,2666608740
29,8,20,Ticks_Linear_8,89,9999,9999,9999,2667258936
29,8,20,Ticks_Linear_8,90,9999,9999,9999,2667899000
29,8,20,Ticks_Linear_8,91,9999,9999,9999,2668538964
29,8,20,Ticks_Linear_8,92,9999,9999,9999,2669178952
29,8,20,Ticks_Linear_8,93,9999,9999,9999,2669818988
29,8,20,Ticks_Linear_8,94,9999,9999,9999,2670458980
29,8,20,Ticks_Linear_8,95,9999,9999,9999,2671088760
29,8,20,Ticks_Linear_8,96,9999,9999,9999,2671718488
29,8,20,Ticks_Linear_8,97,9999,9999,9999,2672348268
29,8,20,Ticks_Linear_8,98,9999,9999,9999,2672979044
29,8,20,Ticks_Linear_8,99,9999,9999,9999,2673608824
29,8,20,Ticks_Linear_8,100,9999,9999,9999,2674228344
29,8,20,Ticks_Linear_8,101,9999,9999,9999,2674848876
29,8,20,Ticks_Linear_8,102,9999,9999,9999,2675468396
29,8,20,Ticks_Linear_8,103,9999,9999,9999,2676088920
29,8,20,Ticks_Linear_8,104,9999,9999,9999,2676708440
29,8,20,Ticks_Linear_8,105,9999,9999,9999,2677318748
29,8,20,Ticks_Linear_8,106,9999,9999,9999,2677929084
29,8,20,Ticks_Linear_8,107,9999,9999,9999,2678538344
29,8,20,Ticks_Linear_8,108,9999,9999,9999,2679148624
29,8,20,Ticks_Linear_8,109,9999,9999,9999,2679758932
29,8,20,Ticks_Linear_8,110,9999,9999,9999,2680358984
29,8,20,Ticks_Linear_8,111,9999,9999,9999,2680959056
29,8,20,Ticks_Linear_8,112,9999,9999,9999,2681558132
29,8,20,Ticks_Linear_8,113,9999,9999,9999,2682158180
29,8,20,Ticks_Linear_8,114,9999,9999,9999,2682758252
29,8,20,Ticks_Linear_8,115,9999,9999,9999,2683349088
29,8,20,Ticks_Linear_8,116,9999,9999,9999,2683938880
29,8,20,Ticks_Linear_8,117,9999,9999,9999,2684528696
29,8,20,Ticks_Linear_8,118,9999,9999,9999,2685118552
29,8,20,Ticks_Linear_8,119,9999,9999,9999,2685708348
29,8,20,Ticks_Linear_8,120,9999,9999,9999,2686288952
29,8,20,Ticks_Linear_8,121,9999,9999,9999,2686868560
29,8,20,Ticks_Linear_8,122,9999,9999,9999,2687448160
29,8,20,Ticks_Linear_8,123,9999,9999,9999,2688028740
29,8,20,Ticks_Linear_8,124,9999,9999,9999,2688608312
29,8,20,Ticks_Linear_8,125,9999,9999,9999,2689178712
29,8,20,Ticks_Linear_8,126,9999,9999,9999,2689749104
29,8,20,Ticks_Linear_8,127,9999,9999,9999,2690318448
29,8,20,Ticks_Linear_8,128,9999,9999,9999,2690888768
29,8,20,Ticks_Linear_8,129,9999,9999,9999,2691458140
29,8,20,Ticks_Linear_8,130,9999,9999,9999,2692018296
29,8,20,Ticks_Linear_8,131,9999,9999,9999,2692578428
29,8,20,Ticks_Linear_8,132,9999,9999,9999,2693138488
29,8,20,Ticks_Linear_8,133,9999,9999,9999,2693698620
29,8,20,Ticks_Linear_8,134,9999,9999,9999,2694258800
29,8,20,Ticks_Linear_8,135,9999,9999,9999,2694808676
29,8,20,Ticks_Linear_8,136,9999,9999,9999,2695358552
29,8,20,Ticks_Linear_8,137,9999,9999,9999,2695908428
29,8,20,Ticks_Linear_8,138,9999,9999,9999,2696458304
29,8,20,Ticks_Linear_8,139,9999,9999,9999,2697008196
29,8,20,Ticks_Linear_8,140,9999,9999,9999,2697548860
29,8,20,Ticks_Linear_8,141,9999,9999,9999,2698088500
29,8,20,Ticks_Linear_8,142,9999,9999,9999,2698628188
29,8,20,Ticks_Linear_8,143,9999,9999,9999,2699168852
29,8,20,Ticks_Linear_8,144,9999,9999,9999,2699708484
29,8,20,Ticks_Linear_8,145,9999,9999,9999,2700238968
29,8,20,Ticks_Linear_8,146,9999,9999,9999,2700768324
29,8,20,Ticks_Linear_8,147,9999,9999,9999,2701298800
29,8,20,Ticks_Linear_8,148,9999,9999,9999,2701828156
29,8,20,Ticks_Linear_8,149,9999,9999,9999,2702358584
29,8,20,Ticks_Linear_8,150,9999,9999,9999,2702878804
29,8,20,Ticks_Linear_8,151,9999,9999,9999,2703399020
29,8,20,Ticks_Linear_8,152,9999,9999,9999,2703918192
29,8,20,Ticks_Linear_8,153,9999,9999,9999,2704438336
29,8,20,Ticks_Linear_8,154,9999,9999,9999,2704958576
29,8,20,Ticks_Linear_8,155,9999,9999,9999,2705468536
29,8,20,Ticks_Linear_8,156,9999,9999,9999,2705978424
29,8,20,Ticks_Linear_8,157,9999,9999,9999,2706488384
29,8,20,Ticks_Linear_8,158,9999,9999,9999,2706998356
29,8,20,Ticks_Linear_8,159,9999,9999,9999,2707508316
29,8,20,Ticks_Linear_8,160,9999,9999,9999,2708009048
29,8,20,Ticks_Linear_8,161,9999,9999,9999,2708508784
29,8,20,Ticks_Linear_8,162,9999,9999,9999,2709008464
29,8,20,Ticks_Linear_8,163,9999,9999,9999,2709508164
29,8,20,Ticks_Linear_8,164,9999,9999,9999,2710008912
29,8,20,Ticks_Linear_8,165,9999,9999,9999,2710498428
29,8,20,Ticks_Linear_8,166,9999,9999,9999,2710988916
29,8,20,Ticks_Linear_8,167,9999,9999,9999,2711478356
29,8,20,Ticks_Linear_8,168,9999,9999,9999,2711968844
29,8,20,Ticks_Linear_8,169,9999,9999,9999,2712458360
29,9,21,Ticks_Linear_5,0,5,42,127,2726539572
29,9,21,Ticks_Linear_5,1,5,42,127,2727019896
29,9,21,Ticks_Linear_5,2,5,42,127,2727500268
29,9,21,Ticks_Linear_5,3,5,42,127,2727980420
29,9,21,Ticks_Linear_5,4,1,48,42,2727985104
29,9,21,Ticks_Linear_5,5,1,48,36,2728432216
29,9,21,Ticks_Linear_5,6,5,42,127,2728459520
29,9,21,Ticks_Linear_5,7,1,48,44,2728917828
29,9,21,Ticks_Linear_5,8,5,42,127,2728950156
29,9,21,Ticks_Linear_5,9,1,48,35,2729350140
29,9,21,Ticks_Linear_5,10,5,42,127,2729439672
29,9,21,Ticks_Linear_5,11,1,48,36,2729899348
29,9,21,Ticks_Linear_5,12,5,42,127,2729930088
29,9,21,Ticks_Linear_5,13,1,48,28,2730368268
29,9,21,Ticks_Linear_5,14,5,42,127,2730419528
29,9,21,Ticks_Linear_5,15,1,48,31,2730841380
29,9,21,Ticks_Linear_5,16,5,42,127,2730910164
29,9,21,Ticks_Linear_5,17,1,48,25,2731333112
29,9,21,Ticks_Linear_5,18,5,42,127,2731409864
29,9,21,Ticks_Linear_5,19,1,48,33,2731800092
29,9,21,Ticks_Linear_5,20,5,42,127,2731909400
29,9,21,Ticks_Linear_5,21,1,48,37,2732295516
29,9,21,Ticks_Linear_5,22,5,42,127,2732410224
29,9,21,Ticks_Linear_5,23,1,48,38,2732809600
29,9,21,Ticks_Linear_5,24,5,42,127,2732909996
29,9,21,Ticks_Linear_5,25,1,48,32,2733292144
29,9,21,Ticks_Linear_5,26,5,42,127,2733409848
29,9,21,Ticks_Linear_5,27,1,48,26,2733788852
29,9,21,Ticks_Linear_5,28,5,42,127,2733919732
29,9,21,Ticks_Linear_5,29,1,48,33,2734299712
29,9,21,Ticks_Linear_5,30,5,42,127,2734429840
29,9,21,Ticks_Linear_5,31,1,48,32,2734814828
29,9,21,Ticks_Linear_5,32,5,42,127,2734939648
29,9,21,Ticks_Linear_5,33,1,48,48,2735287952
29,9,21,Ticks_Linear_5,34,5,42,127,2735449460
29,9,21,Ticks_Linear_5,35,1,48,32,2735706764
29,9,21,Ticks_Linear_5,36,5,42,127,2735960540
29,9,21,Ticks_Linear_5,37,5,42,127,2736489844
29,9,21,Ticks_Linear_5,38,1,48,38,2736607624
29,9,21,Ticks_Linear_5,39,1,48,32,2736986568
29,9,21,Ticks_Linear_5,40,5,42,127,2737010128
29,9,21,Ticks_Linear_5,41,1,48,37,2737503044
29,9,21,Ticks_Linear_5,42,5,42,127,2737530200
29,9,21,Ticks_Linear_5,43,1,48,40,2737993884
29,9,21,Ticks_Linear_5,44,5,42,127,2738050716
29,9,21,Ticks_Linear_5,45,1,48,38,2738497936
29,9,21,Ticks_Linear_5,46,5,42,127,2738579772
29,9,21,Ticks_Linear_5,47,1,48,33,2739029036
29,9,21,Ticks_Linear_5,48,5,42,127,2739110396
29,9,21,Ticks_Linear_5,49,1,48,39,2739484068
29,9,21,Ticks_Linear_5,50,5,42,127,2739639740
29,9,21,Ticks_Linear_5,51,1,48,18,2740021440
29,9,21,Ticks_Linear_5,52,5,42,127,2740170064
29,9,21,Ticks_Linear_5,53,1,48,29,2740491932
29,9,21,Ticks_Linear_5,54,5,42,127,2740699720
29,9,21,Ticks_Linear_5,55,1,48,37,2741002936
29,9,21,Ticks_Linear_5,56,5,42,127,2741229900
29,9,21,Ticks_Linear_5,57,1,48,27,2741585932
29,9,21,Ticks_Linear_5,58,5,42,127,2741769588
29,9,21,Ticks_Linear_5,59,1,48,33,2742161648
29,9,21,Ticks_Linear_5,60,5,42,127,2742310248
29,9,21,Ticks_Linear_5,61,1,48,45,2742761168
29,9,21,Ticks_Linear_5,62,5,42,127,2742849876
29,9,21,Ticks_Linear_5,63,1,48,39,2743341076
29,9,21,Ticks_Linear_5,64,5,42,127,2743389516
29,9,21,Ticks_Linear_5,65,1,48,31,2743876188
29,9,21,Ticks_Linear_5,66,5,42,127,2743930404
29,9,21,Ticks_Linear_5,67,1,48,42,2744413960
29,9,21,Ticks_Linear_5,68,5,42,127,2744480056
29,9,21,Ticks_Linear_5,69,1,48,30,2744923092
29,9,21,Ticks_Linear_5,70,5,42,127,2745030136
29,9,21,Ticks_Linear_5,71,1,48,33,2745490872
29,9,21,Ticks_Linear_5,72,5,42,127,2745579804
29,9,21,Ticks_Linear_5,73,1,48,25,2746053172
29,9,21,Ticks_Linear_5,74,5,42,127,2746129752
29,9,21,Ticks_Linear_5,75,1,48,22,2746599684
29,9,21,Ticks_Linear_5,76,5,42,127,2746679776
29,9,21,Ticks_Linear_5,77,1,48,34,2747138700
29,9,21,Ticks_Linear_5,78,5,42,127,2747239768
29,9,21,Ticks_Linear_5,79,1,48,33,2747678240
29,9,21,Ticks_Linear_5,80,5,42,127,2747800200
29,9,21,Ticks_Linear_5,81,1,48,43,2748195376
29,9,21,Ticks_Linear_5,82,5,42,127,2748360336
29,9,21,Ticks_Linear_5,83,1,48,27,2748847360
29,9,21,Ticks_Linear_5,84,5,42,127,2748920184
29,9,21,Ticks_Linear_5,85,1,48,37,2749435860
29,9,21,Ticks_Linear_5,86,5,42,127,2749480168
29,9,21,Ticks_Linear_5,87,1,48,38,2749944852
29,9,21,Ticks_Linear_5,88,5,42,127,2750049900
29,9,21,Ticks_Linear_5,89,1,48,46,2750505508
29,9,21,Ticks_Linear_5,90,5,42,127,2750620216
29,9,21,Ticks_Linear_5,91,1,48,31,2751028880
29,9,21,Ticks_Linear_5,92,5,42,127,2751190456
29,9,21,Ticks_Linear_5,93,1,48,39,2751574576
29,9,21,Ticks_Linear_5,94,5,42,127,2751759728
29,9,21,Ticks_Linear_5,95,1,48,46,2752221436
29,9,21,Ticks_Linear_5,96,5,42,127,2752330048
29,9,21,Ticks_Linear_5,97,1,48,33,2752778176
29,9,21,Ticks_Linear_5,98,5,42,127,2752909576
29,9,21,Ticks_Linear_5,99,1,48,48,2753318168
29,9,21,Ticks_Linear_5,100,5,42,127,2753490152
29,9,21,Ticks_Linear_5,101,1,48,29,2753955900
29,9,21,Ticks_Linear_5,102,5,42,127,2754070056
29,9,21,Ticks_Linear_5,103,1,48,44,2754549736
29,9,21,Ticks_Linear_5,104,5,42,127,2754649460
29,9,21,Ticks_Linear_5,105,1,48,16,2755189052
29,9,21,Ticks_Linear_5,106,5,42,127,2755230128
29,9,21,Ticks_Linear_5,107,1,48,45,2755750232
29,9,21,Ticks_Linear_5,108,5,42,127,2755819768
29,9,21,Ticks_Linear_5,109,1,48,29,2756290148
29,9,21,Ticks_Linear_5,110,5,42,127,2756409840
29,9,21,Ticks_Linear_5,111,1,48,43,2756933620
29,9,21,Ticks_Linear_5,112,5,42,127,2756999668
29,9,21,Ticks_Linear_5,113,1,48,42,2757569872
29,9,21,Ticks_Linear_5,114,5,42,127,2757590428
29,9,21,Ticks_Linear_5,115,1,48,44,2758121168
29,9,21,Ticks_Linear_5,116,5,42,127,2758180220
29,9,21,Ticks_Linear_5,117,1,48,40,2758699576
29,9,21,Ticks_Linear_5,118,5,42,127,2758780220
29,9,21,Ticks_Linear_5,119,1,48,50,2759262200
29,9,21,Ticks_Linear_5,120,5,42,127,2759380476
29,9,21,Ticks_Linear_5,121,1,48,38,2759865468
29,9,21,Ticks_Linear_5,122,5,42,127,2759980600
29,9,21,Ticks_Linear_5,123,1,48,46,2760560504
29,9,21,Ticks_Linear_5,124,5,42,127,2760579492
29,9,21,Ticks_Linear_5,125,1,48,46,2761164220
29,9,21,Ticks_Linear_5,126,5,42,127,2761179692
29,9,21,Ticks_Linear_5,127,1,48,48,2761748320
29,9,21,Ticks_Linear_5,128,5,42,127,2761789772
29,9,21,Ticks_Linear_5,129,1,48,38,2762392652
29,9,21,Ticks_Linear_5,130,5,42,127,2762400104
29,9,21,Ticks_Linear_5,131,5,42,127,2763010644
29,9,21,Ticks_Linear_5,132,1,48,43,2763012284
29,9,21,Ticks_Linear_5,133,1,48,35,2763619208
29,9,21,Ticks_Linear_5,134,5,42,127,2763629956
29,9,21,Ticks_Linear_5,135,1,48,37,2764181516
29,9,21,Ticks_Linear_5,136,5,42,127,2764240412
29,9,21,Ticks_Linear_5,137,1,48,33,2764813008
29,9,21,Ticks_Linear_5,138,5,42,127,2764859636
29,9,21,Ticks_Linear_5,139,1,48,43,2765386924
29,9,21,Ticks_Linear_5,140,5,42,127,2765480500
29,9,21,Ticks_Linear_5,141,1,48,37,2766021496
29,9,21,Ticks_Linear_5,142,5,42,127,2766099948
29,9,21,Ticks_Linear_5,143,1,48,28,2766651800
29,9,21,Ticks_Linear_5,144,5,42,127,2766720388
29,9,21,Ticks_Linear_5,145,1,48,42,2767282048
29,9,21,Ticks_Linear_5,146,5,42,127,2767339908
29,9,21,Ticks_Linear_5,147,1,48,36,2767964120
29,9,21,Ticks_Linear_5,148,5,42,127,2767969564
29,9,21,Ticks_Linear_5,149,1,48,40,2768548908
29,9,21,Ticks_Linear_5,150,5,42,127,2768600536
29,9,21,Ticks_Linear_5,151,1,48,38,2769152020
29,9,21,Ticks_Linear_5,152,5,42,127,2769240376
29,9,21,Ticks_Linear_5,153,1,48,30,2769745196
29,9,21,Ticks_Linear_5,154,5,42,127,2769880324
29,9,21,Ticks_Linear_5,155,1,48,38,2770402464
29,9,21,Ticks_Linear_5,156,5,42,127,2770520388
29,9,21,Ticks_Linear_5,157,1,48,26,2771045968
29,9,21,Ticks_Linear_5,158,5,42,127,2771160428
29,9,21,Ticks_Linear_5,159,1,48,53,2771649096
29,9,21,Ticks_Linear_5,160,5,42,127,2771800416
29,9,21,Ticks_Linear_5,161,1,48,55,2772374224
29,9,21,Ticks_Linear_5,162,5,42,127,2772440320
29,9,21,Ticks_Linear_5,163,1,48,51,2773022728
29,9,21,Ticks_Linear_5,164,5,42,127,2773080456
29,9,21,Ticks_Linear_5,165,1,48,40,2773692068
29,9,21,Ticks_Linear_5,166,5,42,127,2773720492
29,9,21,Ticks_Linear_5,167,1,48,40,2774282460
29,9,21,Ticks_Linear_5,168,5,42,127,2774380088
29,9,21,Ticks_Linear_5,169,1,48,54,2774869804
29,9,21,Ticks_Linear_5,170,5,42,127,2775030308
29,9,21,Ticks_Linear_5,171,1,48,29,2775526536
29,9,21,Ticks_Linear_5,172,5,42,127,2775680232
29,9,21,Ticks_Linear_5,173,1,48,50,2776189124
29,9,21,Ticks_Linear_5,174,5,42,127,2776329708
29,9,21,Ticks_Linear_5,175,1,48,24,2776861736
29,9,21,Ticks_Linear_5,176,5,42,127,2776979808
29,9,21,Ticks_Linear_5,177,1,48,35,2777539464
29,9,21,Ticks_Linear_5,178,5,42,127,2777640288
29,9,21,Ticks_Linear_5,179,1,48,21,2778178612
29,9,21,Ticks_Linear_5,180,5,42,127,2778299896
29,9,21,Ticks_Linear_5,181,1,48,47,2778810656
29,9,21,Ticks_Linear_5,182,5,42,127,2778960180
29,9,21,Ticks_Linear_5,183,1,48,40,2779460956
29,9,21,Ticks_Linear_5,184,5,42,127,2779619840
29,9,21,Ticks_Linear_5,185,1,48,57,2780138236
29,9,21,Ticks_Linear_5,186,5,42,127,2780280120
29,9,21,Ticks_Linear_5,187,1,48,26,2780829224
29,9,21,Ticks_Linear_5,188,5,42,127,2780949888
29,9,21,Ticks_Linear_5,189,1,48,56,2781480940
29,9,21,Ticks_Linear_5,190,5,42,127,2781619756
29,9,21,Ticks_Linear_5,191,1,48,31,2782141372
29,9,21,Ticks_Linear_5,192,5,42,127,2782290372
29,9,21,Ticks_Linear_5,193,1,48,35,2782835572
29,9,21,Ticks_Linear_5,194,5,42,127,2782959920
29,9,21,Ticks_Linear_5,195,1,48,40,2783490076
29,9,21,Ticks_Linear_5,196,5,42,127,2783629564
29,9,21,Ticks_Linear_5,197,1,48,47,2784163456
29,9,21,Ticks_Linear_5,198,5,42,127,2784309516
29,9,21,Ticks_Linear_5,199,1,48,27,2784867092
29,9,21,Ticks_Linear_5,200,5,42,127,2784989568
29,9,21,Ticks_Linear_5,201,1,48,55,2785516192
29,9,21,Ticks_Linear_5,202,5,42,127,2785669696
29,9,21,Ticks_Linear_5,203,1,48,47,2786064500
29,9,21,Ticks_Linear_5,204,5,42,127,2786349724
29,9,21,Ticks_Linear_5,205,5,42,127,2787030844
29,9,21,Ticks_Linear_5,206,1,48,46,2787112524
29,9,21,Ticks_Linear_5,207,5,42,127,2787719512
29,9,21,Ticks_Linear_5,208,1,48,51,2787731244
29,9,21,Ticks_Linear_5,209,1,48,44,2788361380
29,9,21,Ticks_Linear_5,210,5,42,127,2788409720
29,9,21,Ticks_Linear_5,211,1,48,44,2789038588
29,9,21,Ticks_Linear_5,212,5,42,127,2789099884
29,9,21,Ticks_Linear_5,213,1,48,40,2789695840
29,9,21,Ticks_Linear_5,214,5,42,127,2789790548
29,9,21,Ticks_Linear_5,215,1,48,47,2790349612
29,9,21,Ticks_Linear_5,216,5,42,127,2790480344
29,9,21,Ticks_Linear_5,217,1,48,47,2791007192
29,9,21,Ticks_Linear_5,218,5,42,127,2791179840
29,9,21,Ticks_Linear_5,219,1,48,37,2791800936
29,9,21,Ticks_Linear_5,220,5,42,127,2791880204
29,9,21,Ticks_Linear_5,221,1,48,48,2792438504
29,9,21,Ticks_Linear_5,222,5,42,127,2792579416
29,9,21,Ticks_Linear_5,223,1,48,21,2793135472
29,9,21,Ticks_Linear_5,224,5,42,127,2793279812
29,9,21,Ticks_Linear_5,225,1,48,40,2793825412
29,9,21,Ticks_Linear_5,226,5,42,127,2793980456
29,9,21,Ticks_Linear_5,227,1,48,39,2794358444
29,9,21,Ticks_Linear_5,228,5,42,127,2794689868
29,9,21,Ticks_Linear_5,229,1,48,27,2795096748
29,9,21,Ticks_Linear_5,230,5,42,127,2795399500
29,9,21,Ticks_Linear_5,231,1,48,29,2795831676
29,9,21,Ticks_Linear_5,232,5,42,127,2796110180
29,9,21,Ticks_Linear_5,233,1,48,42,2796592752
29,9,21,Ticks_Linear_5,234,5,42,127,2796820160
29,9,21,Ticks_Linear_5,235,1,48,40,2797315036
29,9,21,Ticks_Linear_5,236,5,42,127,2797529352
29,9,21,Ticks_Linear_5,237,1,48,29,2798144120
29,9,21,Ticks_Linear_5,238,5,42,127,2798250288
29,9,21,Ticks_Linear_5,239,1,48,31,2798839980
29,9,21,Ticks_Linear_5,240,5,42,127,2798970180
29,9,21,Ticks_Linear_5,241,1,48,46,2799590800
29,9,21,Ticks_Linear_5,242,5,42,127,2799690048
29,9,21,Ticks_Linear_5,243,1,48,40,2800271800
29,9,21,Ticks_Linear_5,244,5,42,127,2800409916
29,9,21,Ticks_Linear_5,245,1,48,44,2801102900
29,9,21,Ticks_Linear_5,246,5,42,127,2801129976
29,9,21,Ticks_Linear_5,247,5,42,127,2801859988
29,9,21,Ticks_Linear_5,248,1,48,28,2801876724
29,9,21,Ticks_Linear_5,249,1,48,42,2802530484
29,9,21,Ticks_Linear_5,250,5,42,127,2802590056
29,9,21,Ticks_Linear_5,251,1,48,27,2803208788
29,9,21,Ticks_Linear_5,252,5,42,127,2803320044
29,9,21,Ticks_Linear_5,253,1,48,34,2803927784
29,9,21,Ticks_Linear_5,254,5,42,127,2804050272
29,9,21,Ticks_Linear_5,255,1,48,25,2804674628
29,9,21,Ticks_Linear_5,256,5,42,127,2804780400
29,9,21,Ticks_Linear_5,257,1,48,32,2805370268
29,9,21,Ticks_Linear_5,258,5,42,127,2805519764
29,9,21,Ticks_Linear_5,259,5,42,127,2806259976
29,9,21,Ticks_Linear_5,260,1,48,38,2806467032
29,9,21,Ticks_Linear_5,261,5,42,127,2807000312
29,9,21,Ticks_Linear_5,262,1,48,43,2807123720
29,9,21,Ticks_Linear_5,263,5,42,127,2807749864
29,9,21,Ticks_Linear_5,264,1,48,47,2807795136
29,9,21,Ticks_Linear_5,265,1,48,38,2808425364
29,9,21,Ticks_Linear_5,266,5,42,127,2808490492
29,9,21,Ticks_Linear_5,267,1,48,52,2809119704
29,9,21,Ticks_Linear_5,268,5,42,127,2809239876
29,9,21,Ticks_Linear_5,269,1,48,39,2809858400
29,9,21,Ticks_Linear_5,270,5,42,127,2809989648
29,9,21,Ticks_Linear_5,271,1,48,40,2810654968
29,9,21,Ticks_Linear_5,272,5,42,127,2810739960
29,9,21,Ticks_Linear_5,273,1,48,45,2811365500
29,9,21,Ticks_Linear_5,274,5,42,127,2811489792
29,9,21,Ticks_Linear_5,275,1,48,35,2812117364
29,9,21,Ticks_Linear_5,276,5,42,127,2812240236
29,9,21,Ticks_Linear_5,277,1,48,40,2812803036
29,9,21,Ticks_Linear_5,278,5,42,127,2812999972
29,9,21,Ticks_Linear_5,279,1,48,31,2813620368
29,9,21,Ticks_Linear_5,280,5,42,127,2813759828
29,9,21,Ticks_Linear_5,281,1,48,35,2814331272
29,9,21,Ticks_Linear_5,282,5,42,127,2814519788
29,9,21,Ticks_Linear_5,283,1,48,52,2815108312
29,9,21,Ticks_Linear_5,284,5,42,127,2815279520
29,9,21,Ticks_Linear_5,285,1,48,32,2815854252
29,9,21,Ticks_Linear_5,286,5,42,127,2816040304
29,9,21,Ticks_Linear_5,287,1,48,53,2816596684
29,9,21,Ticks_Linear_5,288,5,42,127,2816810368
29,9,21,Ticks_Linear_5,289,1,48,25,2817455420
29,9,21,Ticks_Linear_5,290,5,42,127,2817580288
29,9,21,Ticks_Linear_5,291,1,48,28,2818205192
29,9,21,Ticks_Linear_5,292,5,42,127,2818349308
29,9,21,Ticks_Linear_5,293,1,48,43,2818954144
29,9,21,Ticks_Linear_5,294,5,42,127,2819119452
29,9,21,Ticks_Linear_5,295,1,48,41,2819799108
29,9,21,Ticks_Linear_5,296,5,42,127,2819889460
29,9,21,Ticks_Linear_5,297,1,48,42,2820481556
29,9,21,Ticks_Linear_5,298,5,42,127,2820669920
29,9,21,Ticks_Linear_5,299,1,48,21,2821220992
29,9,21,Ticks_Linear_5,300,5,42,127,2821450048
29,9,21,Ticks_Linear_5,301,1,48,39,2822004912
29,9,21,Ticks_Linear_5,302,5,42,127,2822230376
29,9,21,Ticks_Linear_5,303,1,48,43,2822747804
29,9,21,Ticks_Linear_5,304,5,42,127,2823009804
29,9,21,Ticks_Linear_5,305,1,48,48,2823509260
29,9,21,Ticks_Linear_5,306,5,42,127,2823790056
29,9,21,Ticks_Linear_5,307,1,48,51,2824359456
29,9,21,Ticks_Linear_5,308,5,42,127,2824579376
29,9,21,Ticks_Linear_5,309,1,48,41,2825196764
29,9,21,Ticks_Linear_5,310,5,42,127,2825369960
29,9,21,Ticks_Linear_5,311,1,48,49,2826147556
29,9,21,Ticks_Linear_5,312,5,42,127,2826159588
29,9,21,Ticks_Linear_5,313,1,48,38,2826918608
29,9,21,Ticks_Linear_5,314,5,42,127,2826949952
29,9,21,Ticks_Linear_5,315,1,48,46,2827713832
29,9,21,Ticks_Linear_5,316,5,42,127,2827739788
29,9,21,Ticks_Linear_5,317,1,48,29,2828519556
29,9,21,Ticks_Linear_5,318,5,42,127,2828540260
29,9,21,Ticks_Linear_5,319,1,48,51,2829306756
29,9,21,Ticks_Linear_5,320,5,42,127,2829340056
29,9,21,Ticks_Linear_5,321,5,42,127,2830139712
29,9,21,Ticks_Linear_5,322,1,48,31,2830395596
29,9,21,Ticks_Linear_5,323,5,42,127,2830939760
29,9,21,Ticks_Linear_5,324,1,48,44,2831079176
29,9,21,Ticks_Linear_5,325,5,42,127,2831740604
29,9,21,Ticks_Linear_5,326,1,48,46,2832147384
29,9,21,Ticks_Linear_5,327,5,42,127,2832550288
29,9,21,Ticks_Linear_5,328,1,48,45,2832931540
29,9,21,Ticks_Linear_5,329,5,42,127,2833360196
29,9,21,Ticks_Linear_5,330,1,48,40,2833851256
29,9,21,Ticks_Linear_5,331,5,42,127,2834170180
29,9,21,Ticks_Linear_5,332,1,48,41,2834854176
29,9,21,Ticks_Linear_5,333,5,42,127,2834980312
29,9,21,Ticks_Linear_5,334,1,48,38,2835719128
29,9,21,Ticks_Linear_5,335,5,42,127,2835790484
29,9,21,Ticks_Linear_5,0,9999,9999,9999,2726537272
29,9,21,Ticks_Linear_5,1,9999,9999,9999,2727017596
29,9,21,Ticks_Linear_5,2,9999,9999,9999,2727497820
29,9,21,Ticks_Linear_5,3,9999,9999,9999,2727978044
29,9,21,Ticks_Linear_5,4,9999,9999,9999,2728457296
29,9,21,Ticks_Linear_5,5,9999,9999,9999,2728947784
29,9,21,Ticks_Linear_5,6,9999,9999,9999,2729437300
29,9,21,Ticks_Linear_5,7,9999,9999,9999,2729927788
29,9,21,Ticks_Linear_5,8,9999,9999,9999,2730417228
29,9,21,Ticks_Linear_5,9,9999,9999,9999,2730907716
29,9,21,Ticks_Linear_5,10,9999,9999,9999,2731407416
29,9,21,Ticks_Linear_5,11,9999,9999,9999,2731907176
29,9,21,Ticks_Linear_5,12,9999,9999,9999,2732407924
29,9,21,Ticks_Linear_5,13,9999,9999,9999,2732907624
29,9,21,Ticks_Linear_5,14,9999,9999,9999,2733407324
29,9,21,Ticks_Linear_5,15,9999,9999,9999,2733917284
29,9,21,Ticks_Linear_5,16,9999,9999,9999,2734427244
29,9,21,Ticks_Linear_5,17,9999,9999,9999,2734937200
29,9,21,Ticks_Linear_5,18,9999,9999,9999,2735447160
29,9,21,Ticks_Linear_5,19,9999,9999,9999,2735958092
29,9,21,Ticks_Linear_5,20,9999,9999,9999,2736487544
29,9,21,Ticks_Linear_5,21,9999,9999,9999,2737007680
29,9,21,Ticks_Linear_5,22,9999,9999,9999,2737527900
29,9,21,Ticks_Linear_5,23,9999,9999,9999,2738048120
29,9,21,Ticks_Linear_5,24,9999,9999,9999,2738577472
29,9,21,Ticks_Linear_5,25,9999,9999,9999,2739107952
29,9,21,Ticks_Linear_5,26,9999,9999,9999,2739637364
29,9,21,Ticks_Linear_5,27,9999,9999,9999,2740167768
29,9,21,Ticks_Linear_5,28,9999,9999,9999,2740697196
29,9,21,Ticks_Linear_5,29,9999,9999,9999,2741227600
29,9,21,Ticks_Linear_5,30,9999,9999,9999,2741767288
29,9,21,Ticks_Linear_5,31,9999,9999,9999,2742307948
29,9,21,Ticks_Linear_5,32,9999,9999,9999,2742847580
29,9,21,Ticks_Linear_5,33,9999,9999,9999,2743387220
29,9,21,Ticks_Linear_5,34,9999,9999,9999,2743927884
29,9,21,Ticks_Linear_5,35,9999,9999,9999,2744477756
29,9,21,Ticks_Linear_5,36,9999,9999,9999,2745027688
29,9,21,Ticks_Linear_5,37,9999,9999,9999,2745577580
29,9,21,Ticks_Linear_5,38,9999,9999,9999,2746127456
29,9,21,Ticks_Linear_5,39,9999,9999,9999,2746677328
29,9,21,Ticks_Linear_5,40,9999,9999,9999,2747237472
29,9,21,Ticks_Linear_5,41,9999,9999,9999,2747797604
29,9,21,Ticks_Linear_5,42,9999,9999,9999,2748357740
29,9,21,Ticks_Linear_5,43,9999,9999,9999,2748917888
29,9,21,Ticks_Linear_5,44,9999,9999,9999,2749477944
29,9,21,Ticks_Linear_5,45,9999,9999,9999,2750047300
29,9,21,Ticks_Linear_5,46,9999,9999,9999,2750617692
29,9,21,Ticks_Linear_5,47,9999,9999,9999,2751188084
29,9,21,Ticks_Linear_5,48,9999,9999,9999,2751757432
29,9,21,Ticks_Linear_5,49,9999,9999,9999,2752327748
29,9,21,Ticks_Linear_5,50,9999,9999,9999,2752907352
29,9,21,Ticks_Linear_5,51,9999,9999,9999,2753487928
29,9,21,Ticks_Linear_5,52,9999,9999,9999,2754067536
29,9,21,Ticks_Linear_5,53,9999,9999,9999,2754647164
29,9,21,Ticks_Linear_5,54,9999,9999,9999,2755227756
29,9,21,Ticks_Linear_5,55,9999,9999,9999,2755817544
29,9,21,Ticks_Linear_5,56,9999,9999,9999,2756407392
29,9,21,Ticks_Linear_5,57,9999,9999,9999,2756997220
29,9,21,Ticks_Linear_5,58,9999,9999,9999,2757588056
29,9,21,Ticks_Linear_5,59,9999,9999,9999,2758177848
29,9,21,Ticks_Linear_5,60,9999,9999,9999,2758777920
29,9,21,Ticks_Linear_5,61,9999,9999,9999,2759378028
29,9,21,Ticks_Linear_5,62,9999,9999,9999,2759978076
29,9,21,Ticks_Linear_5,63,9999,9999,9999,2760577120
29,9,21,Ticks_Linear_5,64,9999,9999,9999,2761177168
29,9,21,Ticks_Linear_5,65,9999,9999,9999,2761787476
29,9,21,Ticks_Linear_5,66,9999,9999,9999,2762397808
29,9,21,Ticks_Linear_5,67,9999,9999,9999,2763008120
29,9,21,Ticks_Linear_5,68,9999,9999,9999,2763627584
29,9,21,Ticks_Linear_5,69,9999,9999,9999,2764237892
29,9,21,Ticks_Linear_5,70,9999,9999,9999,2764857412
29,9,21,Ticks_Linear_5,71,9999,9999,9999,2765477980
29,9,21,Ticks_Linear_5,72,9999,9999,9999,2766097500
29,9,21,Ticks_Linear_5,73,9999,9999,9999,2766718016
29,9,21,Ticks_Linear_5,74,9999,9999,9999,2767337532
29,9,21,Ticks_Linear_5,75,9999,9999,9999,2767967340
29,9,21,Ticks_Linear_5,76,9999,9999,9999,2768598092
29,9,21,Ticks_Linear_5,77,9999,9999,9999,2769238080
29,9,21,Ticks_Linear_5,78,9999,9999,9999,2769878100
29,9,21,Ticks_Linear_5,79,9999,9999,9999,2770518088
29,9,21,Ticks_Linear_5,80,9999,9999,9999,2771158128
29,9,21,Ticks_Linear_5,81,9999,9999,9999,2771798116
29,9,21,Ticks_Linear_5,82,9999,9999,9999,2772438096
29,9,21,Ticks_Linear_5,83,9999,9999,9999,2773078084
29,9,21,Ticks_Linear_5,84,9999,9999,9999,2773718120
29,9,21,Ticks_Linear_5,85,9999,9999,9999,2774377564
29,9,21,Ticks_Linear_5,86,9999,9999,9999,2775027788
29,9,21,Ticks_Linear_5,87,9999,9999,9999,2775678008
29,9,21,Ticks_Linear_5,88,9999,9999,9999,2776327260
29,9,21,Ticks_Linear_5,89,9999,9999,9999,2776977508
29,9,21,Ticks_Linear_5,90,9999,9999,9999,2777637988
29,9,21,Ticks_Linear_5,91,9999,9999,9999,2778297448
29,9,21,Ticks_Linear_5,92,9999,9999,9999,2778957880
29,9,21,Ticks_Linear_5,93,9999,9999,9999,2779617392
29,9,21,Ticks_Linear_5,94,9999,9999,9999,2780277820
29,9,21,Ticks_Linear_5,95,9999,9999,9999,2780947516
29,9,21,Ticks_Linear_5,96,9999,9999,9999,2781617236
29,9,21,Ticks_Linear_5,97,9999,9999,9999,2782287924
29,9,21,Ticks_Linear_5,98,9999,9999,9999,2782957696
29,9,21,Ticks_Linear_5,99,9999,9999,9999,2783627340
29,9,21,Ticks_Linear_5,100,9999,9999,9999,2784307292
29,9,21,Ticks_Linear_5,101,9999,9999,9999,2784987196
29,9,21,Ticks_Linear_5,102,9999,9999,9999,2785667172
29,9,21,Ticks_Linear_5,103,9999,9999,9999,2786347124
29,9,21,Ticks_Linear_5,104,9999,9999,9999,2787028024
29,9,21,Ticks_Linear_5,105,9999,9999,9999,2787717216
29,9,21,Ticks_Linear_5,106,9999,9999,9999,2788407420
29,9,21,Ticks_Linear_5,107,9999,9999,9999,2789097584
29,9,21,Ticks_Linear_5,108,9999,9999,9999,2789787728
29,9,21,Ticks_Linear_5,109,9999,9999,9999,2790477896
29,9,21,Ticks_Linear_5,110,9999,9999,9999,2791177320
29,9,21,Ticks_Linear_5,111,9999,9999,9999,2791877756
29,9,21,Ticks_Linear_5,112,9999,9999,9999,2792577116
29,9,21,Ticks_Linear_5,113,9999,9999,9999,2793277512
29,9,21,Ticks_Linear_5,114,9999,9999,9999,2793977936
29,9,21,Ticks_Linear_5,115,9999,9999,9999,2794687568
29,9,21,Ticks_Linear_5,116,9999,9999,9999,2795397204
29,9,21,Ticks_Linear_5,117,9999,9999,9999,2796107880
29,9,21,Ticks_Linear_5,118,9999,9999,9999,2796817492
29,9,21,Ticks_Linear_5,119,9999,9999,9999,2797527124
29,9,21,Ticks_Linear_5,120,9999,9999,9999,2798247988
29,9,21,Ticks_Linear_5,121,9999,9999,9999,2798967884
29,9,21,Ticks_Linear_5,122,9999,9999,9999,2799687784
29,9,21,Ticks_Linear_5,123,9999,9999,9999,2800407620
29,9,21,Ticks_Linear_5,124,9999,9999,9999,2801127528
29,9,21,Ticks_Linear_5,125,9999,9999,9999,2801857612
29,9,21,Ticks_Linear_5,126,9999,9999,9999,2802587756
29,9,21,Ticks_Linear_5,127,9999,9999,9999,2803317820
29,9,21,Ticks_Linear_5,128,9999,9999,9999,2804047972
29,9,21,Ticks_Linear_5,129,9999,9999,9999,2804778100
29,9,21,Ticks_Linear_5,130,9999,9999,9999,2805517392
29,9,21,Ticks_Linear_5,131,9999,9999,9999,2806257752
29,9,21,Ticks_Linear_5,132,9999,9999,9999,2806998088
29,9,21,Ticks_Linear_5,133,9999,9999,9999,2807747640
29,9,21,Ticks_Linear_5,134,9999,9999,9999,2808488044
29,9,21,Ticks_Linear_5,135,9999,9999,9999,2809237576
29,9,21,Ticks_Linear_5,136,9999,9999,9999,2809987128
29,9,21,Ticks_Linear_5,137,9999,9999,9999,2810737736
29,9,21,Ticks_Linear_5,138,9999,9999,9999,2811487344
29,9,21,Ticks_Linear_5,139,9999,9999,9999,2812237940
29,9,21,Ticks_Linear_5,140,9999,9999,9999,2812997724
29,9,21,Ticks_Linear_5,141,9999,9999,9999,2813757532
29,9,21,Ticks_Linear_5,142,9999,9999,9999,2814517340
29,9,21,Ticks_Linear_5,143,9999,9999,9999,2815277148
29,9,21,Ticks_Linear_5,144,9999,9999,9999,2816038004
29,9,21,Ticks_Linear_5,145,9999,9999,9999,2816807996
29,9,21,Ticks_Linear_5,146,9999,9999,9999,2817578064
29,9,21,Ticks_Linear_5,147,9999,9999,9999,2818347084
29,9,21,Ticks_Linear_5,148,9999,9999,9999,2819117152
29,9,21,Ticks_Linear_5,149,9999,9999,9999,2819887160
29,9,21,Ticks_Linear_5,150,9999,9999,9999,2820667472
29,9,21,Ticks_Linear_5,151,9999,9999,9999,2821447752
29,9,21,Ticks_Linear_5,152,9999,9999,9999,2822228076
29,9,21,Ticks_Linear_5,153,9999,9999,9999,2823007356
29,9,21,Ticks_Linear_5,154,9999,9999,9999,2823787608
29,9,21,Ticks_Linear_5,155,9999,9999,9999,2824577152
29,9,21,Ticks_Linear_5,156,9999,9999,9999,2825367660
29,9,21,Ticks_Linear_5,157,9999,9999,9999,2826157140
29,9,21,Ticks_Linear_5,158,9999,9999,9999,2826947652
29,9,21,Ticks_Linear_5,159,9999,9999,9999,2827737192
29,9,21,Ticks_Linear_5,160,9999,9999,9999,2828537960
29,9,21,Ticks_Linear_5,161,9999,9999,9999,2829337684
29,9,21,Ticks_Linear_5,162,9999,9999,9999,2830137416
29,9,21,Ticks_Linear_5,163,9999,9999,9999,2830937164
29,9,21,Ticks_Linear_5,164,9999,9999,9999,2831737932
29,9,21,Ticks_Linear_5,165,9999,9999,9999,2832547916
29,9,21,Ticks_Linear_5,166,9999,9999,9999,2833357900
29,9,21,Ticks_Linear_5,167,9999,9999,9999,2834167880
29,9,21,Ticks_Linear_5,168,9999,9999,9999,2834977864
29,9,21,Ticks_Linear_5,169,9999,9999,9999,2835787888
29,10,9,Ticks_ISO_T2_8,0,5,42,127,2848803044
29,10,9,Ticks_ISO_T2_8,1,5,42,127,2849602800
29,10,9,Ticks_ISO_T2_8,2,5,42,127,2850402876
29,10,9,Ticks_ISO_T2_8,3,1,48,35,2850467776
29,10,9,Ticks_ISO_T2_8,4,1,48,33,2851192996
29,10,9,Ticks_ISO_T2_8,5,5,42,127,2851202528
29,10,9,Ticks_ISO_T2_8,6,1,48,32,2851949272
29,10,9,Ticks_ISO_T2_8,7,5,42,127,2852003084
29,10,9,Ticks_ISO_T2_8,8,1,48,38,2852696044
29,10,9,Ticks_ISO_T2_8,9,5,42,127,2852802952
29,10,9,Ticks_ISO_T2_8,10,1,48,38,2853512612
29,10,9,Ticks_ISO_T2_8,11,5,42,127,2853602700
29,10,9,Ticks_ISO_T2_8,12,1,48,46,2854353628
29,10,9,Ticks_ISO_T2_8,13,5,42,127,2854402508
29,10,9,Ticks_ISO_T2_8,14,1,48,41,2855191436
29,10,9,Ticks_ISO_T2_8,15,5,42,127,2855203288
29,10,9,Ticks_ISO_T2_8,16,1,48,44,2855954520
29,10,9,Ticks_ISO_T2_8,17,5,42,127,2856002872
29,10,9,Ticks_ISO_T2_8,18,1,48,43,2856751932
29,10,9,Ticks_ISO_T2_8,19,5,42,127,2856802704
29,10,9,Ticks_ISO_T2_8,20,1,48,45,2857526464
29,10,9,Ticks_ISO_T2_8,21,5,42,127,2857602660
29,10,9,Ticks_ISO_T2_8,22,1,48,40,2858314320
29,10,9,Ticks_ISO_T2_8,23,5,42,127,2858403440
29,10,9,Ticks_ISO_T2_8,24,1,48,43,2859094532
29,10,9,Ticks_ISO_T2_8,25,5,42,127,2859202860
29,10,9,Ticks_ISO_T2_8,26,1,48,41,2859897860
29,10,9,Ticks_ISO_T2_8,27,5,42,127,2860002592
29,10,9,Ticks_ISO_T2_8,28,1,48,41,2860699688
29,10,9,Ticks_ISO_T2_8,29,5,42,127,2860802400
29,10,9,Ticks_ISO_T2_8,30,1,48,39,2861434496
29,10,9,Ticks_ISO_T2_8,31,5,42,127,2861603556
29,10,9,Ticks_ISO_T2_8,32,1,48,43,2862277536
29,10,9,Ticks_ISO_T2_8,33,5,42,127,2862402916
29,10,9,Ticks_ISO_T2_8,34,1,48,40,2863116888
29,10,9,Ticks_ISO_T2_8,35,5,42,127,2863202588
29,10,9,Ticks_ISO_T2_8,36,1,48,44,2863881840
29,10,9,Ticks_ISO_T2_8,37,5,42,127,2864002384
29,10,9,Ticks_ISO_T2_8,38,1,48,30,2864675512
29,10,9,Ticks_ISO_T2_8,39,5,42,127,2864803088
29,10,9,Ticks_ISO_T2_8,40,1,48,37,2865474272
29,10,9,Ticks_ISO_T2_8,41,5,42,127,2865603268
29,10,9,Ticks_ISO_T2_8,42,1,48,48,2866283456
29,10,9,Ticks_ISO_T2_8,43,5,42,127,2866402628
29,10,9,Ticks_ISO_T2_8,44,1,48,44,2867058432
29,10,9,Ticks_ISO_T2_8,45,5,42,127,2867202288
29,10,9,Ticks_ISO_T2_8,46,1,48,47,2867812464
29,10,9,Ticks_ISO_T2_8,47,5,42,127,2868003140
29,10,9,Ticks_ISO_T2_8,48,1,48,39,2868649968
29,10,9,Ticks_ISO_T2_8,49,5,42,127,2868803272
29,10,9,Ticks_ISO_T2_8,50,1,48,48,2869542748
29,10,9,Ticks_ISO_T2_8,51,5,42,127,2869602648
29,10,9,Ticks_ISO_T2_8,52,1,48,38,2870331112
29,10,9,Ticks_ISO_T2_8,53,5,42,127,2870402824
29,10,9,Ticks_ISO_T2_8,54,1,48,35,2871037352
29,10,9,Ticks_ISO_T2_8,55,5,42,127,2871203144
29,10,9,Ticks_ISO_T2_8,56,1,48,39,2871958956
29,10,9,Ticks_ISO_T2_8,57,5,42,127,2872002820
29,10,9,Ticks_ISO_T2_8,58,1,48,30,2872735720
29,10,9,Ticks_ISO_T2_8,59,5,42,127,2872802704
29,10,9,Ticks_ISO_T2_8,60,1,48,42,2873484448
29,10,9,Ticks_ISO_T2_8,61,5,42,127,2873602496
29,10,9,Ticks_ISO_T2_8,62,1,48,30,2874255828
29,10,9,Ticks_ISO_T2_8,63,5,42,127,2874403128
29,10,9,Ticks_ISO_T2_8,64,1,48,47,2875058260
29,10,9,Ticks_ISO_T2_8,65,5,42,127,2875202884
29,10,9,Ticks_ISO_T2_8,66,1,48,48,2875928976
29,10,9,Ticks_ISO_T2_8,67,5,42,127,2876002708
29,10,9,Ticks_ISO_T2_8,68,1,48,42,2876725564
29,10,9,Ticks_ISO_T2_8,69,5,42,127,2876802512
29,10,9,Ticks_ISO_T2_8,70,1,48,41,2877542456
29,10,9,Ticks_ISO_T2_8,71,5,42,127,2877603144
29,10,9,Ticks_ISO_T2_8,72,1,48,42,2878376516
29,10,9,Ticks_ISO_T2_8,73,5,42,127,2878402956
29,10,9,Ticks_ISO_T2_8,74,1,48,46,2879194504
29,10,9,Ticks_ISO_T2_8,75,5,42,127,2879202688
29,10,9,Ticks_ISO_T2_8,76,5,42,127,2880002428
29,10,9,Ticks_ISO_T2_8,77,1,48,50,2880018788
29,10,9,Ticks_ISO_T2_8,78,5,42,127,2880803208
29,10,9,Ticks_ISO_T2_8,79,1,48,35,2880813284
29,10,9,Ticks_ISO_T2_8,80,1,48,41,2881554280
29,10,9,Ticks_ISO_T2_8,81,5,42,127,2881602812
29,10,9,Ticks_ISO_T2_8,82,1,48,40,2882273684
29,10,9,Ticks_ISO_T2_8,83,5,42,127,2882402680
29,10,9,Ticks_ISO_T2_8,84,1,48,43,2883161776
29,10,9,Ticks_ISO_T2_8,85,5,42,127,2883202424
29,10,9,Ticks_ISO_T2_8,86,5,42,127,2884003360
29,10,9,Ticks_ISO_T2_8,87,1,48,34,2884007456
29,10,9,Ticks_ISO_T2_8,88,5,42,127,2884803020
29,10,9,Ticks_ISO_T2_8,89,1,48,40,2884827312
29,10,9,Ticks_ISO_T2_8,90,1,48,43,2885567184
29,10,9,Ticks_ISO_T2_8,91,5,42,127,2885602748
29,10,9,Ticks_ISO_T2_8,92,5,42,127,2886402340
29,10,9,Ticks_ISO_T2_8,93,1,48,40,2886428496
29,10,9,Ticks_ISO_T2_8,94,1,48,47,2887176528
29,10,9,Ticks_ISO_T2_8,95,5,42,127,2887203260
29,10,9,Ticks_ISO_T2_8,96,1,48,38,2887961372
29,10,9,Ticks_ISO_T2_8,97,5,42,127,2888003020
29,10,9,Ticks_ISO_T2_8,98,1,48,44,2888766572
29,10,9,Ticks_ISO_T2_8,99,5,42,127,2888802604
29,10,9,Ticks_ISO_T2_8,100,1,48,38,2889602120
29,10,9,Ticks_ISO_T2_8,101,5,42,127,2889603828
29,10,9,Ticks_ISO_T2_8,102,5,42,127,2890403124
29,10,9,Ticks_ISO_T2_8,103,1,48,50,2890465484
29,10,9,Ticks_ISO_T2_8,104,1,48,43,2891138864
29,10,9,Ticks_ISO_T2_8,105,5,42,127,2891203000
29,10,9,Ticks_ISO_T2_8,106,1,48,40,2891921996
29,10,9,Ticks_ISO_T2_8,107,5,42,127,2892002808
29,10,9,Ticks_ISO_T2_8,108,1,48,45,2892721208
29,10,9,Ticks_ISO_T2_8,109,5,42,127,2892802392
29,10,9,Ticks_ISO_T2_8,110,1,48,38,2893539264
29,10,9,Ticks_ISO_T2_8,111,5,42,127,2893603396
29,10,9,Ticks_ISO_T2_8,112,1,48,45,2894261656
29,10,9,Ticks_ISO_T2_8,113,5,42,127,2894402916
29,10,9,Ticks_ISO_T2_8,114,1,48,47,2895197696
29,10,9,Ticks_ISO_T2_8,115,5,42,127,2895202592
29,10,9,Ticks_ISO_T2_8,116,1,48,50,2895997504
29,10,9,Ticks_ISO_T2_8,117,5,42,127,2896002324
29,10,9,Ticks_ISO_T2_8,118,5,42,127,2896803112
29,10,9,Ticks_ISO_T2_8,119,1,48,41,2896815876
29,10,9,Ticks_ISO_T2_8,120,5,42,127,2897602772
29,10,9,Ticks_ISO_T2_8,121,1,48,32,2897618680
29,10,9,Ticks_ISO_T2_8,122,5,42,127,2898402728
29,10,9,Ticks_ISO_T2_8,123,1,48,37,2898428140
29,10,9,Ticks_ISO_T2_8,124,1,48,29,2899155372
29,10,9,Ticks_ISO_T2_8,125,5,42,127,2899202676
29,10,9,Ticks_ISO_T2_8,126,1,48,35,2899972008
29,10,9,Ticks_ISO_T2_8,127,5,42,127,2900003160
29,10,9,Ticks_ISO_T2_8,128,1,48,27,2900780792
29,10,9,Ticks_ISO_T2_8,129,5,42,127,2900802844
29,10,9,Ticks_ISO_T2_8,130,1,48,54,2901581820
29,10,9,Ticks_ISO_T2_8,131,5,42,127,2901602648
29,10,9,Ticks_ISO_T2_8,132,1,48,51,2902368320
29,10,9,Ticks_ISO_T2_8,133,5,42,127,2902402532
29,10,9,Ticks_ISO_T2_8,134,1,48,45,2903176356
29,10,9,Ticks_ISO_T2_8,135,5,42,127,2903203312
29,10,9,Ticks_ISO_T2_8,136,1,48,44,2903957384
29,10,9,Ticks_ISO_T2_8,137,5,42,127,2904002896
29,10,9,Ticks_ISO_T2_8,138,1,48,45,2904753380
29,10,9,Ticks_ISO_T2_8,139,5,42,127,2904802628
29,10,9,Ticks_ISO_T2_8,140,1,48,34,2905515560
29,10,9,Ticks_ISO_T2_8,141,5,42,127,2905602288
29,10,9,Ticks_ISO_T2_8,142,1,48,36,2906267348
29,10,9,Ticks_ISO_T2_8,143,5,42,127,2906403276
29,10,9,Ticks_ISO_T2_8,144,1,48,35,2907110916
29,10,9,Ticks_ISO_T2_8,145,5,42,127,2907204156
29,10,9,Ticks_ISO_T2_8,146,5,42,127,2908002716
29,10,9,Ticks_ISO_T2_8,147,1,48,34,2908065592
29,10,9,Ticks_ISO_T2_8,148,5,42,127,2908802300
29,10,9,Ticks_ISO_T2_8,149,1,48,37,2908831896
29,10,9,Ticks_ISO_T2_8,150,1,48,48,2909590996
29,10,9,Ticks_ISO_T2_8,151,5,42,127,2909603148
29,10,9,Ticks_ISO_T2_8,152,5,42,127,2910403036
29,10,9,Ticks_ISO_T2_8,153,1,48,38,2910528400
29,10,9,Ticks_ISO_T2_8,154,5,42,127,2911202768
29,10,9,Ticks_ISO_T2_8,155,1,48,42,2911346528
29,10,9,Ticks_ISO_T2_8,156,5,42,127,2912002356
29,10,9,Ticks_ISO_T2_8,157,1,48,33,2912083880
29,10,9,Ticks_ISO_T2_8,158,5,42,127,2912803208
29,10,9,Ticks_ISO_T2_8,159,1,48,25,2912905980
29,10,9,Ticks_ISO_T2_8,160,5,42,127,2913603116
29,10,9,Ticks_ISO_T2_8,161,1,48,47,2913690384
29,10,9,Ticks_ISO_T2_8,162,5,42,127,2914402704
29,10,9,Ticks_ISO_T2_8,163,1,48,45,2914461620
29,10,9,Ticks_ISO_T2_8,164,5,42,127,2915202508
29,10,9,Ticks_ISO_T2_8,165,1,48,42,2915268836
29,10,9,Ticks_ISO_T2_8,166,5,42,127,2916003140
29,10,9,Ticks_ISO_T2_8,167,1,48,48,2916028924
29,10,9,Ticks_ISO_T2_8,168,5,42,127,2916802800
29,10,9,Ticks_ISO_T2_8,169,1,48,60,2916816536
29,10,9,Ticks_ISO_T2_8,170,5,42,127,2917602904
29,10,9,Ticks_ISO_T2_8,171,1,48,48,2917607296
29,10,9,Ticks_ISO_T2_8,172,5,42,127,2918402340
29,10,9,Ticks_ISO_T2_8,173,1,48,43,2918465772
29,10,9,Ticks_ISO_T2_8,174,5,42,127,2919203120
29,10,9,Ticks_ISO_T2_8,175,1,48,24,2919257652
29,10,9,Ticks_ISO_T2_8,176,1,48,50,2919995784
29,10,9,Ticks_ISO_T2_8,177,5,42,127,2920002872
29,10,9,Ticks_ISO_T2_8,178,5,42,127,2920802764
29,10,9,Ticks_ISO_T2_8,179,1,48,49,2920829520
29,10,9,Ticks_ISO_T2_8,180,1,48,49,2921592884
29,10,9,Ticks_ISO_T2_8,181,5,42,127,2921602488
29,10,9,Ticks_ISO_T2_8,182,1,48,47,2922397476
29,10,9,Ticks_ISO_T2_8,183,5,42,127,2922403268
29,10,9,Ticks_ISO_T2_8,184,1,48,33,2923201804
29,10,9,Ticks_ISO_T2_8,185,5,42,127,2923203604
29,10,9,Ticks_ISO_T2_8,186,5,42,127,2924002520
29,10,9,Ticks_ISO_T2_8,187,1,48,32,2924041620
29,10,9,Ticks_ISO_T2_8,188,1,48,27,2924758160
29,10,9,Ticks_ISO_T2_8,189,5,42,127,2924802544
29,10,9,Ticks_ISO_T2_8,190,1,48,51,2925597308
29,10,9,Ticks_ISO_T2_8,191,5,42,127,2925603400
29,10,9,Ticks_ISO_T2_8,192,1,48,51,2926347604
29,10,9,Ticks_ISO_T2_8,193,5,42,127,2926402860
29,10,9,Ticks_ISO_T2_8,194,5,42,127,2927202528
29,10,9,Ticks_ISO_T2_8,195,1,48,35,2927220904
29,10,9,Ticks_ISO_T2_8,196,1,48,44,2927963920
29,10,9,Ticks_ISO_T2_8,197,5,42,127,2928002476
29,10,9,Ticks_ISO_T2_8,198,1,48,49,2928751460
29,10,9,Ticks_ISO_T2_8,199,5,42,127,2928803256
29,10,9,Ticks_ISO_T2_8,200,1,48,30,2929554184
29,10,9,Ticks_ISO_T2_8,201,5,42,127,2929603212
29,10,9,Ticks_ISO_T2_8,202,1,48,43,2930335820
29,10,9,Ticks_ISO_T2_8,203,5,42,127,2930402648
29,10,9,Ticks_ISO_T2_8,204,1,48,49,2931176768
29,10,9,Ticks_ISO_T2_8,205,5,42,127,2931202380
29,10,9,Ticks_ISO_T2_8,206,5,42,127,2932003168
29,10,9,Ticks_ISO_T2_8,207,1,48,48,2932008236
29,10,9,Ticks_ISO_T2_8,208,1,48,45,2932796504
29,10,9,Ticks_ISO_T2_8,209,5,42,127,2932803140
29,10,9,Ticks_ISO_T2_8,210,1,48,21,2933582124
29,10,9,Ticks_ISO_T2_8,211,5,42,127,2933602652
29,10,9,Ticks_ISO_T2_8,212,1,48,53,2934337804
29,10,9,Ticks_ISO_T2_8,213,5,42,127,2934402608
29,10,9,Ticks_ISO_T2_8,214,1,48,45,2935069000
29,10,9,Ticks_ISO_T2_8,215,5,42,127,2935203076
29,10,9,Ticks_ISO_T2_8,216,1,48,39,2935865516
29,10,9,Ticks_ISO_T2_8,217,5,42,127,2936003108
29,10,9,Ticks_ISO_T2_8,218,1,48,40,2936714488
29,10,9,Ticks_ISO_T2_8,219,5,42,127,2936802632
29,10,9,Ticks_ISO_T2_8,220,1,48,44,2937557900
29,10,9,Ticks_ISO_T2_8,221,5,42,127,2937602292
29,10,9,Ticks_ISO_T2_8,222,1,48,50,2938349036
29,10,9,Ticks_ISO_T2_8,223,5,42,127,2938403148
29,10,9,Ticks_ISO_T2_8,224,1,48,42,2939164924
29,10,9,Ticks_ISO_T2_8,225,5,42,127,2939202980
29,10,9,Ticks_ISO_T2_8,226,5,42,127,2940002944
29,10,9,Ticks_ISO_T2_8,227,1,48,52,2940052668
29,10,9,Ticks_ISO_T2_8,228,5,42,127,2940802456
29,10,9,Ticks_ISO_T2_8,229,1,48,44,2941266524
29,10,9,Ticks_ISO_T2_8,230,5,42,127,2941603160
29,10,9,Ticks_ISO_T2_8,231,1,48,31,2942100596
29,10,9,Ticks_ISO_T2_8,232,5,42,127,2942402892
29,10,9,Ticks_ISO_T2_8,233,1,48,40,2942872200
29,10,9,Ticks_ISO_T2_8,234,5,42,127,2943202848
29,10,9,Ticks_ISO_T2_8,235,1,48,33,2943673128
29,10,9,Ticks_ISO_T2_8,236,5,42,127,2944002436
29,10,9,Ticks_ISO_T2_8,237,1,48,29,2944751212
29,10,9,Ticks_ISO_T2_8,0,9999,9999,9999,2848800828
29,10,9,Ticks_ISO_T2_8,1,9999,9999,9999,2849600584
29,10,9,Ticks_ISO_T2_8,2,9999,9999,9999,2850400364
29,10,9,Ticks_ISO_T2_8,3,9999,9999,9999,2851200092
29,10,9,Ticks_ISO_T2_8,4,9999,9999,9999,2852000872
29,10,9,Ticks_ISO_T2_8,5,9999,9999,9999,2852800588
29,10,9,Ticks_ISO_T2_8,6,9999,9999,9999,2853600336
29,10,9,Ticks_ISO_T2_8,7,9999,9999,9999,2854400072
29,10,9,Ticks_ISO_T2_8,8,9999,9999,9999,2855200852
29,10,9,Ticks_ISO_T2_8,9,9999,9999,9999,2856000584
29,10,9,Ticks_ISO_T2_8,10,9999,9999,9999,2856800340
29,10,9,Ticks_ISO_T2_8,11,9999,9999,9999,2857600076
29,10,9,Ticks_ISO_T2_8,12,9999,9999,9999,2858400856
29,10,9,Ticks_ISO_T2_8,13,9999,9999,9999,2859200572
29,10,9,Ticks_ISO_T2_8,14,9999,9999,9999,2860000304
29,10,9,Ticks_ISO_T2_8,15,9999,9999,9999,2860800112
29,10,9,Ticks_ISO_T2_8,16,9999,9999,9999,2861600820
29,10,9,Ticks_ISO_T2_8,17,9999,9999,9999,2862400628
29,10,9,Ticks_ISO_T2_8,18,9999,9999,9999,2863200304
29,10,9,Ticks_ISO_T2_8,19,9999,9999,9999,2864000096
29,10,9,Ticks_ISO_T2_8,20,9999,9999,9999,2864800876
29,10,9,Ticks_ISO_T2_8,21,9999,9999,9999,2865600608
29,10,9,Ticks_ISO_T2_8,22,9999,9999,9999,2866400340
29,10,9,Ticks_ISO_T2_8,23,9999,9999,9999,2867200072
29,10,9,Ticks_ISO_T2_8,24,9999,9999,9999,2868000852
29,10,9,Ticks_ISO_T2_8,25,9999,9999,9999,2868800584
29,10,9,Ticks_ISO_T2_8,26,9999,9999,9999,2869600360
29,10,9,Ticks_ISO_T2_8,27,9999,9999,9999,2870400092
29,10,9,Ticks_ISO_T2_8,28,9999,9999,9999,2871200856
29,10,9,Ticks_ISO_T2_8,29,9999,9999,9999,2872000608
29,10,9,Ticks_ISO_T2_8,30,9999,9999,9999,2872800340
29,10,9,Ticks_ISO_T2_8,31,9999,9999,9999,2873600060
29,10,9,Ticks_ISO_T2_8,32,9999,9999,9999,2874400840
29,10,9,Ticks_ISO_T2_8,33,9999,9999,9999,2875200572
29,10,9,Ticks_ISO_T2_8,34,9999,9999,9999,2876000344
29,10,9,Ticks_ISO_T2_8,35,9999,9999,9999,2876800076
29,10,9,Ticks_ISO_T2_8,36,9999,9999,9999,2877600856
29,10,9,Ticks_ISO_T2_8,37,9999,9999,9999,2878400592
29,10,9,Ticks_ISO_T2_8,38,9999,9999,9999,2879200328
29,10,9,Ticks_ISO_T2_8,39,9999,9999,9999,2880000068
29,10,9,Ticks_ISO_T2_8,40,9999,9999,9999,2880800844
29,10,9,Ticks_ISO_T2_8,41,9999,9999,9999,2881600572
29,10,9,Ticks_ISO_T2_8,42,9999,9999,9999,2882400316
29,10,9,Ticks_ISO_T2_8,43,9999,9999,9999,2883200064
29,10,9,Ticks_ISO_T2_8,44,9999,9999,9999,2884000848
29,10,9,Ticks_ISO_T2_8,45,9999,9999,9999,2884800584
29,10,9,Ticks_ISO_T2_8,46,9999,9999,9999,2885600312
29,10,9,Ticks_ISO_T2_8,47,9999,9999,9999,2886400052
29,10,9,Ticks_ISO_T2_8,48,9999,9999,9999,2887200824
29,10,9,Ticks_ISO_T2_8,49,9999,9999,9999,2888000560
29,10,9,Ticks_ISO_T2_8,50,9999,9999,9999,2888800316
29,10,9,Ticks_ISO_T2_8,51,9999,9999,9999,2889600056
29,10,9,Ticks_ISO_T2_8,52,9999,9999,9999,2890400836
29,10,9,Ticks_ISO_T2_8,53,9999,9999,9999,2891200564
29,10,9,Ticks_ISO_T2_8,54,9999,9999,9999,2892000372
29,10,9,Ticks_ISO_T2_8,55,9999,9999,9999,2892800108
29,10,9,Ticks_ISO_T2_8,56,9999,9999,9999,2893600888
29,10,9,Ticks_ISO_T2_8,57,9999,9999,9999,2894400628
29,10,9,Ticks_ISO_T2_8,58,9999,9999,9999,2895200304
29,10,9,Ticks_ISO_T2_8,59,9999,9999,9999,2896000112
29,10,9,Ticks_ISO_T2_8,60,9999,9999,9999,2896800824
29,10,9,Ticks_ISO_T2_8,61,9999,9999,9999,2897600560
29,10,9,Ticks_ISO_T2_8,62,9999,9999,9999,2898400368
29,10,9,Ticks_ISO_T2_8,63,9999,9999,9999,2899200092
29,10,9,Ticks_ISO_T2_8,64,9999,9999,9999,2900000872
29,10,9,Ticks_ISO_T2_8,65,9999,9999,9999,2900800628
29,10,9,Ticks_ISO_T2_8,66,9999,9999,9999,2901600364
29,10,9,Ticks_ISO_T2_8,67,9999,9999,9999,2902400096
29,10,9,Ticks_ISO_T2_8,68,9999,9999,9999,2903200876
29,10,9,Ticks_ISO_T2_8,69,9999,9999,9999,2904000608
29,10,9,Ticks_ISO_T2_8,70,9999,9999,9999,2904800340
29,10,9,Ticks_ISO_T2_8,71,9999,9999,9999,2905600076
29,10,9,Ticks_ISO_T2_8,72,9999,9999,9999,2906400840
29,10,9,Ticks_ISO_T2_8,73,9999,9999,9999,2907200612
29,10,9,Ticks_ISO_T2_8,74,9999,9999,9999,2908000352
29,10,9,Ticks_ISO_T2_8,75,9999,9999,9999,2908800084
29,10,9,Ticks_ISO_T2_8,76,9999,9999,9999,2909600860
29,10,9,Ticks_ISO_T2_8,77,9999,9999,9999,2910400600
29,10,9,Ticks_ISO_T2_8,78,9999,9999,9999,2911200332
29,10,9,Ticks_ISO_T2_8,79,9999,9999,9999,2912000064
29,10,9,Ticks_ISO_T2_8,80,9999,9999,9999,2912800844
29,10,9,Ticks_ISO_T2_8,81,9999,9999,9999,2913600604
29,10,9,Ticks_ISO_T2_8,82,9999,9999,9999,2914400340
29,10,9,Ticks_ISO_T2_8,83,9999,9999,9999,2915200072
29,10,9,Ticks_ISO_T2_8,84,9999,9999,9999,2916000852
29,10,9,Ticks_ISO_T2_8,85,9999,9999,9999,2916800584
29,10,9,Ticks_ISO_T2_8,86,9999,9999,9999,2917600320
29,10,9,Ticks_ISO_T2_8,87,9999,9999,9999,2918400052
29,10,9,Ticks_ISO_T2_8,88,9999,9999,9999,2919200832
29,10,9,Ticks_ISO_T2_8,89,9999,9999,9999,2920000588
29,10,9,Ticks_ISO_T2_8,90,9999,9999,9999,2920800324
29,10,9,Ticks_ISO_T2_8,91,9999,9999,9999,2921600052
29,10,9,Ticks_ISO_T2_8,92,9999,9999,9999,2922400832
29,10,9,Ticks_ISO_T2_8,93,9999,9999,9999,2923200572
29,10,9,Ticks_ISO_T2_8,94,9999,9999,9999,2924000308
29,10,9,Ticks_ISO_T2_8,95,9999,9999,9999,2924800108
29,10,9,Ticks_ISO_T2_8,96,9999,9999,9999,2925600816
29,10,9,Ticks_ISO_T2_8,97,9999,9999,9999,2926400572
29,10,9,Ticks_ISO_T2_8,98,9999,9999,9999,2927200312
29,10,9,Ticks_ISO_T2_8,99,9999,9999,9999,2928000116
29,10,9,Ticks_ISO_T2_8,100,9999,9999,9999,2928800820
29,10,9,Ticks_ISO_T2_8,101,9999,9999,9999,2929600628
29,10,9,Ticks_ISO_T2_8,102,9999,9999,9999,2930400360
29,10,9,Ticks_ISO_T2_8,103,9999,9999,9999,2931200092
29,10,9,Ticks_ISO_T2_8,104,9999,9999,9999,2932000880
29,10,9,Ticks_ISO_T2_8,105,9999,9999,9999,2932800632
29,10,9,Ticks_ISO_T2_8,106,9999,9999,9999,2933600364
29,10,9,Ticks_ISO_T2_8,107,9999,9999,9999,2934400100
29,10,9,Ticks_ISO_T2_8,108,9999,9999,9999,2935200864
29,10,9,Ticks_ISO_T2_8,109,9999,9999,9999,2936000596
29,10,9,Ticks_ISO_T2_8,110,9999,9999,9999,2936800344
29,10,9,Ticks_ISO_T2_8,111,9999,9999,9999,2937600080
29,10,9,Ticks_ISO_T2_8,112,9999,9999,9999,2938400860
29,10,9,Ticks_ISO_T2_8,113,9999,9999,9999,2939200616
29,10,9,Ticks_ISO_T2_8,114,9999,9999,9999,2940000356
29,10,9,Ticks_ISO_T2_8,115,9999,9999,9999,2940800092
29,10,9,Ticks_ISO_T2_8,116,9999,9999,9999,2941600872
29,10,9,Ticks_ISO_T2_8,117,9999,9999,9999,2942400604
29,10,9,Ticks_ISO_T2_8,118,9999,9999,9999,2943200340
29,10,9,Ticks_ISO_T2_8,119,9999,9999,9999,2944000072
29,11,10,Ticks_ISO_T2_5,0,5,42,127,2957093308
29,11,10,Ticks_ISO_T2_5,1,5,42,127,2957593028
29,11,10,Ticks_ISO_T2_5,2,5,42,127,2958092892
29,11,10,Ticks_ISO_T2_5,3,5,42,127,2958593432
29,11,10,Ticks_ISO_T2_5,4,1,48,59,2959070224
29,11,10,Ticks_ISO_T2_5,5,5,42,127,2959093220
29,11,10,Ticks_ISO_T2_5,6,1,48,49,2959579864
29,11,10,Ticks_ISO_T2_5,7,5,42,127,2959592764
29,11,10,Ticks_ISO_T2_5,8,1,48,51,2960061908
29,11,10,Ticks_ISO_T2_5,9,5,42,127,2960092460
29,11,10,Ticks_ISO_T2_5,10,1,48,57,2960538340
29,11,10,Ticks_ISO_T2_5,11,5,42,127,2960593200
29,11,10,Ticks_ISO_T2_5,12,1,48,56,2961043868
29,11,10,Ticks_ISO_T2_5,13,5,42,127,2961092820
29,11,10,Ticks_ISO_T2_5,14,1,48,54,2961544980
29,11,10,Ticks_ISO_T2_5,15,5,42,127,2961592960
29,11,10,Ticks_ISO_T2_5,16,1,48,54,2962050068
29,11,10,Ticks_ISO_T2_5,17,5,42,127,2962093480
29,11,10,Ticks_ISO_T2_5,18,1,48,58,2962532484
29,11,10,Ticks_ISO_T2_5,19,5,42,127,2962593176
29,11,10,Ticks_ISO_T2_5,20,1,48,54,2963088424
29,11,10,Ticks_ISO_T2_5,21,5,42,127,2963092792
29,11,10,Ticks_ISO_T2_5,22,1,48,46,2963563208
29,11,10,Ticks_ISO_T2_5,23,5,42,127,2963592636
29,11,10,Ticks_ISO_T2_5,24,1,48,51,2964058196
29,11,10,Ticks_ISO_T2_5,25,5,42,127,2964093232
29,11,10,Ticks_ISO_T2_5,26,1,48,49,2964578232
29,11,10,Ticks_ISO_T2_5,27,5,42,127,2964593004
29,11,10,Ticks_ISO_T2_5,28,1,48,52,2965064092
29,11,10,Ticks_ISO_T2_5,29,5,42,127,2965092700
29,11,10,Ticks_ISO_T2_5,30,1,48,47,2965550448
29,11,10,Ticks_ISO_T2_5,31,5,42,127,2965592540
29,11,10,Ticks_ISO_T2_5,32,1,48,37,2966076944
29,11,10,Ticks_ISO_T2_5,33,5,42,127,2966093060
29,11,10,Ticks_ISO_T2_5,34,1,48,52,2966579608
29,11,10,Ticks_ISO_T2_5,35,5,42,127,2966592904
29,11,10,Ticks_ISO_T2_5,36,1,48,57,2967053796
29,11,10,Ticks_ISO_T2_5,37,5,42,127,2967092500
29,11,10,Ticks_ISO_T2_5,38,1,48,58,2967544588
29,11,10,Ticks_ISO_T2_5,39,5,42,127,2967593316
29,11,10,Ticks_ISO_T2_5,40,1,48,60,2968071660
29,11,10,Ticks_ISO_T2_5,41,5,42,127,2968093012
29,11,10,Ticks_ISO_T2_5,42,1,48,57,2968574048
29,11,10,Ticks_ISO_T2_5,43,5,42,127,2968592632
29,11,10,Ticks_ISO_T2_5,44,1,48,61,2969076960
29,11,10,Ticks_ISO_T2_5,45,5,42,127,2969092624
29,11,10,Ticks_ISO_T2_5,46,1,48,62,2969573588
29,11,10,Ticks_ISO_T2_5,47,5,42,127,2969593440
29,11,10,Ticks_ISO_T2_5,48,1,48,54,2970074776
29,11,10,Ticks_ISO_T2_5,49,5,42,127,2970092840
29,11,10,Ticks_ISO_T2_5,50,1,48,59,2970587836
29,11,10,Ticks_ISO_T2_5,51,5,42,127,2970592732
29,11,10,Ticks_ISO_T2_5,52,1,48,58,2971074436
29,11,10,Ticks_ISO_T2_5,53,5,42,127,2971093472
29,11,10,Ticks_ISO_T2_5,54,1,48,54,2971585584
29,11,10,Ticks_ISO_T2_5,55,5,42,127,2971593168
29,11,10,Ticks_ISO_T2_5,56,5,42,127,2972092648
29,11,10,Ticks_ISO_T2_5,57,1,48,48,2972114688
29,11,10,Ticks_ISO_T2_5,58,5,42,127,2972592492
29,11,10,Ticks_ISO_T2_5,59,1,48,56,2972609824
29,11,10,Ticks_ISO_T2_5,60,1,48,60,2973060432
29,11,10,Ticks_ISO_T2_5,61,5,42,127,2973093376
29,11,10,Ticks_ISO_T2_5,62,1,48,56,2973543368
29,11,10,Ticks_ISO_T2_5,63,5,42,127,2973592920
29,11,10,Ticks_ISO_T2_5,64,1,48,59,2974033416
29,11,10,Ticks_ISO_T2_5,65,5,42,127,2974092616
29,11,10,Ticks_ISO_T2_5,66,1,48,54,2974527656
29,11,10,Ticks_ISO_T2_5,67,5,42,127,2974593284
29,11,10,Ticks_ISO_T2_5,68,1,48,57,2975030012
29,11,10,Ticks_ISO_T2_5,69,5,42,127,2975093200
29,11,10,Ticks_ISO_T2_5,70,1,48,56,2975579252
29,11,10,Ticks_ISO_T2_5,71,5,42,127,2975592748
29,11,10,Ticks_ISO_T2_5,72,1,48,62,2976051248
29,11,10,Ticks_ISO_T2_5,73,5,42,127,2976092440
29,11,10,Ticks_ISO_T2_5,74,1,48,45,2976544204
29,11,10,Ticks_ISO_T2_5,75,5,42,127,2976593256
29,11,10,Ticks_ISO_T2_5,76,1,48,53,2977077636
29,11,10,Ticks_ISO_T2_5,77,5,42,127,2977093172
29,11,10,Ticks_ISO_T2_5,78,1,48,63,2977577400
29,11,10,Ticks_ISO_T2_5,79,5,42,127,2977592916
29,11,10,Ticks_ISO_T2_5,80,1,48,51,2978048156
29,11,10,Ticks_ISO_T2_5,81,5,42,127,2978093364
29,11,10,Ticks_ISO_T2_5,82,1,48,63,2978536400
29,11,10,Ticks_ISO_T2_5,83,5,42,127,2978593060
29,11,10,Ticks_ISO_T2_5,84,1,48,56,2979053296
29,11,10,Ticks_ISO_T2_5,85,5,42,127,2979093272
29,11,10,Ticks_ISO_T2_5,86,1,48,65,2979514172
29,11,10,Ticks_ISO_T2_5,87,5,42,127,2979592520
29,11,10,Ticks_ISO_T2_5,88,1,48,63,2980036304
29,11,10,Ticks_ISO_T2_5,89,5,42,127,2980093336
29,11,10,Ticks_ISO_T2_5,90,1,48,62,2980582000
29,11,10,Ticks_ISO_T2_5,91,5,42,127,2980593180
29,11,10,Ticks_ISO_T2_5,92,1,48,76,2981053948
29,11,10,Ticks_ISO_T2_5,93,5,42,127,2981092652
29,11,10,Ticks_ISO_T2_5,94,1,48,66,2981551620
29,11,10,Ticks_ISO_T2_5,95,5,42,127,2981592420
29,11,10,Ticks_ISO_T2_5,96,1,48,57,2982065600
29,11,10,Ticks_ISO_T2_5,97,5,42,127,2982093088
29,11,10,Ticks_ISO_T2_5,98,5,42,127,2982592864
29,11,10,Ticks_ISO_T2_5,99,1,48,64,2982594200
29,11,10,Ticks_ISO_T2_5,100,5,42,127,2983092784
29,11,10,Ticks_ISO_T2_5,101,1,48,55,2983138236
29,11,10,Ticks_ISO_T2_5,102,5,42,127,2983593300
29,11,10,Ticks_ISO_T2_5,103,1,48,59,2983620804
29,11,10,Ticks_ISO_T2_5,104,1,48,63,2984091864
29,11,10,Ticks_ISO_T2_5,105,5,42,127,2984093736
29,11,10,Ticks_ISO_T2_5,106,1,48,68,2984587184
29,11,10,Ticks_ISO_T2_5,107,5,42,127,2984592904
29,11,10,Ticks_ISO_T2_5,108,1,48,67,2985065640
29,11,10,Ticks_ISO_T2_5,109,5,42,127,2985092676
29,11,10,Ticks_ISO_T2_5,110,1,48,62,2985567728
29,11,10,Ticks_ISO_T2_5,111,5,42,127,2985593192
29,11,10,Ticks_ISO_T2_5,112,1,48,70,2986052088
29,11,10,Ticks_ISO_T2_5,113,5,42,127,2986092812
29,11,10,Ticks_ISO_T2_5,114,1,48,67,2986575716
29,11,10,Ticks_ISO_T2_5,115,5,42,127,2986592804
29,11,10,Ticks_ISO_T2_5,116,1,48,67,2987029912
29,11,10,Ticks_ISO_T2_5,117,5,42,127,2987093620
29,11,10,Ticks_ISO_T2_5,118,1,48,56,2987536112
29,11,10,Ticks_ISO_T2_5,119,5,42,127,2987592944
29,11,10,Ticks_ISO_T2_5,120,1,48,47,2988034464
29,11,10,Ticks_ISO_T2_5,121,5,42,127,2988092640
29,11,10,Ticks_ISO_T2_5,122,5,42,127,2988592612
29,11,10,Ticks_ISO_T2_5,123,1,48,57,2988596180
29,11,10,Ticks_ISO_T2_5,124,1,48,54,2989078356
29,11,10,Ticks_ISO_T2_5,125,5,42,127,2989093424
29,11,10,Ticks_ISO_T2_5,126,1,48,61,2989550448
29,11,10,Ticks_ISO_T2_5,127,5,42,127,2989592820
29,11,10,Ticks_ISO_T2_5,128,5,42,127,2990092744
29,11,10,Ticks_ISO_T2_5,129,1,48,50,2990106556
29,11,10,Ticks_ISO_T2_5,130,1,48,54,2990590752
29,11,10,Ticks_ISO_T2_5,131,5,42,127,2990593404
29,11,10,Ticks_ISO_T2_5,132,5,42,127,2991092956
29,11,10,Ticks_ISO_T2_5,133,1,48,53,2991096000
29,11,10,Ticks_ISO_T2_5,134,1,48,46,2991587600
29,11,10,Ticks_ISO_T2_5,135,5,42,127,2991592868
29,11,10,Ticks_ISO_T2_5,136,5,42,127,2992092568
29,11,10,Ticks_ISO_T2_5,137,1,48,49,2992102644
29,11,10,Ticks_ISO_T2_5,138,1,48,58,2992562528
29,11,10,Ticks_ISO_T2_5,139,5,42,127,2992593376
29,11,10,Ticks_ISO_T2_5,140,1,48,54,2993041504
29,11,10,Ticks_ISO_T2_5,141,5,42,127,2993092924
29,11,10,Ticks_ISO_T2_5,142,5,42,127,2993592624
29,11,10,Ticks_ISO_T2_5,143,1,48,56,2993613320
29,11,10,Ticks_ISO_T2_5,144,5,42,127,2994093516
29,11,10,Ticks_ISO_T2_5,145,1,48,60,2994105684
29,11,10,Ticks_ISO_T2_5,146,5,42,127,2994592988
29,11,10,Ticks_ISO_T2_5,147,1,48,42,2994611888
29,11,10,Ticks_ISO_T2_5,148,1,48,58,2995061376
29,11,10,Ticks_ISO_T2_5,149,5,42,127,2995092828
29,11,10,Ticks_ISO_T2_5,150,1,48,58,2995566528
29,11,10,Ticks_ISO_T2_5,151,5,42,127,2995592448
29,11,10,Ticks_ISO_T2_5,152,1,48,65,2996029128
29,11,10,Ticks_ISO_T2_5,153,5,42,127,2996093188
29,11,10,Ticks_ISO_T2_5,154,1,48,56,2996571532
29,11,10,Ticks_ISO_T2_5,155,5,42,127,2996592956
29,11,10,Ticks_ISO_T2_5,156,5,42,127,2997092660
29,11,10,Ticks_ISO_T2_5,157,1,48,51,2997110216
29,11,10,Ticks_ISO_T2_5,158,1,48,69,2997543444
29,11,10,Ticks_ISO_T2_5,159,5,42,127,2997592496
29,11,10,Ticks_ISO_T2_5,160,1,48,58,2998083552
29,11,10,Ticks_ISO_T2_5,161,5,42,127,2998093312
29,11,10,Ticks_ISO_T2_5,162,1,48,57,2998575224
29,11,10,Ticks_ISO_T2_5,163,5,42,127,2998592860
29,11,10,Ticks_ISO_T2_5,164,1,48,50,2999059208
29,11,10,Ticks_ISO_T2_5,165,5,42,127,2999092528
29,11,10,Ticks_ISO_T2_5,166,1,48,69,2999539232
29,11,10,Ticks_ISO_T2_5,167,5,42,127,2999593268
29,11,10,Ticks_ISO_T2_5,168,1,48,56,3000039752
29,11,10,Ticks_ISO_T2_5,169,5,42,127,3000093116
29,11,10,Ticks_ISO_T2_5,170,1,48,71,3000565324
29,11,10,Ticks_ISO_T2_5,171,5,42,127,3000593180
29,11,10,Ticks_ISO_T2_5,172,1,48,60,3001047592
29,11,10,Ticks_ISO_T2_5,173,5,42,127,3001092504
29,11,10,Ticks_ISO_T2_5,174,1,48,65,3001576608
29,11,10,Ticks_ISO_T2_5,175,5,42,127,3001593172
29,11,10,Ticks_ISO_T2_5,176,1,48,66,3002080492
29,11,10,Ticks_ISO_T2_5,177,5,42,127,3002093088
29,11,10,Ticks_ISO_T2_5,178,5,42,127,3002592568
29,11,10,Ticks_ISO_T2_5,179,1,48,61,3002610124
29,11,10,Ticks_ISO_T2_5,180,1,48,65,3003073516
29,11,10,Ticks_ISO_T2_5,181,5,42,127,3003093376
29,11,10,Ticks_ISO_T2_5,182,1,48,67,3003578384
29,11,10,Ticks_ISO_T2_5,183,5,42,127,3003593072
29,11,10,Ticks_ISO_T2_5,184,1,48,70,3004079792
29,11,10,Ticks_ISO_T2_5,185,5,42,127,3004092992
29,11,10,Ticks_ISO_T2_5,186,1,48,64,3004565272
29,11,10,Ticks_ISO_T2_5,187,5,42,127,3004592684
29,11,10,Ticks_ISO_T2_5,188,1,48,62,3005067888
29,11,10,Ticks_ISO_T2_5,189,5,42,127,3005093128
29,11,10,Ticks_ISO_T2_5,190,1,48,57,3005568112
29,11,10,Ticks_ISO_T2_5,191,5,42,127,3005593048
29,11,10,Ticks_ISO_T2_5,192,1,48,62,3006048360
29,11,10,Ticks_ISO_T2_5,193,5,42,127,3006092668
29,11,10,Ticks_ISO_T2_5,194,1,48,59,3006581708
29,11,10,Ticks_ISO_T2_5,195,5,42,127,3006593412
29,11,10,Ticks_ISO_T2_5,196,1,48,60,3007087608
29,11,10,Ticks_ISO_T2_5,197,5,42,127,3007092956
29,11,10,Ticks_ISO_T2_5,198,1,48,58,3007556868
29,11,10,Ticks_ISO_T2_5,199,5,42,127,3007592804
29,11,10,Ticks_ISO_T2_5,200,5,42,127,3008092728
29,11,10,Ticks_ISO_T2_5,201,1,48,51,3008110884
29,11,10,Ticks_ISO_T2_5,202,1,48,57,3008579672
29,11,10,Ticks_ISO_T2_5,203,5,42,127,3008593388
29,11,10,Ticks_ISO_T2_5,204,5,42,127,3009093088
29,11,10,Ticks_ISO_T2_5,205,1,48,58,3009109300
29,11,10,Ticks_ISO_T2_5,206,5,42,127,3009592636
29,11,10,Ticks_ISO_T2_5,207,1,48,57,3009627172
29,11,10,Ticks_ISO_T2_5,208,5,42,127,3010093648
29,11,10,Ticks_ISO_T2_5,209,1,48,56,3010102456
29,11,10,Ticks_ISO_T2_5,210,5,42,127,3010593044
29,11,10,Ticks_ISO_T2_5,211,1,48,44,3010628732
29,11,10,Ticks_ISO_T2_5,212,5,42,127,3011092740
29,11,10,Ticks_ISO_T2_5,213,1,48,54,3011135448
29,11,10,Ticks_ISO_T2_5,214,1,48,64,3011572272
29,11,10,Ticks_ISO_T2_5,215,5,42,127,3011592800
29,11,10,Ticks_ISO_T2_5,216,1,48,51,3012090520
29,11,10,Ticks_ISO_T2_5,217,5,42,127,3012093544
29,11,10,Ticks_ISO_T2_5,218,5,42,127,3012593096
29,11,10,Ticks_ISO_T2_5,219,1,48,60,3012594656
29,11,10,Ticks_ISO_T2_5,220,1,48,55,3013088416
29,11,10,Ticks_ISO_T2_5,221,5,42,127,3013092708
29,11,10,Ticks_ISO_T2_5,222,5,42,127,3013592408
29,11,10,Ticks_ISO_T2_5,223,1,48,64,3013606976
29,11,10,Ticks_ISO_T2_5,224,1,48,56,3014088252
29,11,10,Ticks_ISO_T2_5,225,5,42,127,3014093144
29,11,10,Ticks_ISO_T2_5,226,1,48,53,3014588472
29,11,10,Ticks_ISO_T2_5,227,5,42,127,3014592840
29,11,10,Ticks_ISO_T2_5,228,5,42,127,3015092688
29,11,10,Ticks_ISO_T2_5,229,1,48,53,3015096932
29,11,10,Ticks_ISO_T2_5,230,1,48,59,3015580904
29,11,10,Ticks_ISO_T2_5,231,5,42,127,3015593424
29,11,10,Ticks_ISO_T2_5,232,1,48,64,3016061372
29,11,10,Ticks_ISO_T2_5,233,5,42,127,3016092972
29,11,10,Ticks_ISO_T2_5,234,5,42,127,3016592672
29,11,10,Ticks_ISO_T2_5,235,1,48,61,3016593640
29,11,10,Ticks_ISO_T2_5,236,1,48,54,3017078420
29,11,10,Ticks_ISO_T2_5,237,5,42,127,3017092440
29,11,10,Ticks_ISO_T2_5,238,5,42,127,3017593260
29,11,10,Ticks_ISO_T2_5,239,1,48,54,3017604684
29,11,10,Ticks_ISO_T2_5,240,5,42,127,3018092884
29,11,10,Ticks_ISO_T2_5,241,1,48,54,3018126216
29,11,10,Ticks_ISO_T2_5,242,5,42,127,3018592652
29,11,10,Ticks_ISO_T2_5,243,1,48,45,3018633544
29,11,10,Ticks_ISO_T2_5,244,1,48,52,3019090964
29,11,10,Ticks_ISO_T2_5,245,5,42,127,3019093312
29,11,10,Ticks_ISO_T2_5,246,5,42,127,3019593236
29,11,10,Ticks_ISO_T2_5,247,1,48,52,3019617972
29,11,10,Ticks_ISO_T2_5,248,5,42,127,3020092784
29,11,10,Ticks_ISO_T2_5,249,1,48,59,3020103232
29,11,10,Ticks_ISO_T2_5,250,1,48,62,3020562572
29,11,10,Ticks_ISO_T2_5,251,5,42,127,3020592448
29,11,10,Ticks_ISO_T2_5,252,5,42,127,3021093120
29,11,10,Ticks_ISO_T2_5,253,1,48,51,3021104244
29,11,10,Ticks_ISO_T2_5,254,5,42,127,3021592888
29,11,10,Ticks_ISO_T2_5,255,1,48,56,3021594376
29,11,10,Ticks_ISO_T2_5,256,1,48,57,3022090224
29,11,10,Ticks_ISO_T2_5,0,9999,9999,9999,2957090876
29,11,10,Ticks_ISO_T2_5,1,9999,9999,9999,2957590592
29,11,10,Ticks_ISO_T2_5,2,9999,9999,9999,2958090308
29,11,10,Ticks_ISO_T2_5,3,9999,9999,9999,2958591072
29,11,10,Ticks_ISO_T2_5,4,9999,9999,9999,2959090784
29,11,10,Ticks_ISO_T2_5,5,9999,9999,9999,2959590480
29,11,10,Ticks_ISO_T2_5,6,9999,9999,9999,2960090172
29,11,10,Ticks_ISO_T2_5,7,9999,9999,9999,2960590912
29,11,10,Ticks_ISO_T2_5,8,9999,9999,9999,2961090608
29,11,10,Ticks_ISO_T2_5,9,9999,9999,9999,2961590376
29,11,10,Ticks_ISO_T2_5,10,9999,9999,9999,2962091120
29,11,10,Ticks_ISO_T2_5,11,9999,9999,9999,2962590812
29,11,10,Ticks_ISO_T2_5,12,9999,9999,9999,2963090508
29,11,10,Ticks_ISO_T2_5,13,9999,9999,9999,2963590204
29,11,10,Ticks_ISO_T2_5,14,9999,9999,9999,2964090948
29,11,10,Ticks_ISO_T2_5,15,9999,9999,9999,2964590644
29,11,10,Ticks_ISO_T2_5,16,9999,9999,9999,2965090412
29,11,10,Ticks_ISO_T2_5,17,9999,9999,9999,2965590108
29,11,10,Ticks_ISO_T2_5,18,9999,9999,9999,2966090848
29,11,10,Ticks_ISO_T2_5,19,9999,9999,9999,2966590544
29,11,10,Ticks_ISO_T2_5,20,9999,9999,9999,2967090288
29,11,10,Ticks_ISO_T2_5,21,9999,9999,9999,2967591028
29,11,10,Ticks_ISO_T2_5,22,9999,9999,9999,2968090724
29,11,10,Ticks_ISO_T2_5,23,9999,9999,9999,2968590420
29,11,10,Ticks_ISO_T2_5,24,9999,9999,9999,2969090116
29,11,10,Ticks_ISO_T2_5,25,9999,9999,9999,2969590856
29,11,10,Ticks_ISO_T2_5,26,9999,9999,9999,2970090552
29,11,10,Ticks_ISO_T2_5,27,9999,9999,9999,2970590296
29,11,10,Ticks_ISO_T2_5,28,9999,9999,9999,2971091036
29,11,10,Ticks_ISO_T2_5,29,9999,9999,9999,2971590732
29,11,10,Ticks_ISO_T2_5,30,9999,9999,9999,2972090436
29,11,10,Ticks_ISO_T2_5,31,9999,9999,9999,2972590128
29,11,10,Ticks_ISO_T2_5,32,9999,9999,9999,2973090868
29,11,10,Ticks_ISO_T2_5,33,9999,9999,9999,2973590636
29,11,10,Ticks_ISO_T2_5,34,9999,9999,9999,2974090332
29,11,10,Ticks_ISO_T2_5,35,9999,9999,9999,2974591072
29,11,10,Ticks_ISO_T2_5,36,9999,9999,9999,2975090764
29,11,10,Ticks_ISO_T2_5,37,9999,9999,9999,2975590460
29,11,10,Ticks_ISO_T2_5,38,9999,9999,9999,2976090228
29,11,10,Ticks_ISO_T2_5,39,9999,9999,9999,2976590968
29,11,10,Ticks_ISO_T2_5,40,9999,9999,9999,2977090664
29,11,10,Ticks_ISO_T2_5,41,9999,9999,9999,2977590332
29,11,10,Ticks_ISO_T2_5,42,9999,9999,9999,2978091076
29,11,10,Ticks_ISO_T2_5,43,9999,9999,9999,2978590772
29,11,10,Ticks_ISO_T2_5,44,9999,9999,9999,2979090540
29,11,10,Ticks_ISO_T2_5,45,9999,9999,9999,2979590236
29,11,10,Ticks_ISO_T2_5,46,9999,9999,9999,2980090976
29,11,10,Ticks_ISO_T2_5,47,9999,9999,9999,2980590672
29,11,10,Ticks_ISO_T2_5,48,9999,9999,9999,2981090364
29,11,10,Ticks_ISO_T2_5,49,9999,9999,9999,2981590136
29,11,10,Ticks_ISO_T2_5,50,9999,9999,9999,2982090800
29,11,10,Ticks_ISO_T2_5,51,9999,9999,9999,2982590576
29,11,10,Ticks_ISO_T2_5,52,9999,9999,9999,2983090272
29,11,10,Ticks_ISO_T2_5,53,9999,9999,9999,2983591012
29,11,10,Ticks_ISO_T2_5,54,9999,9999,9999,2984090708
29,11,10,Ticks_ISO_T2_5,55,9999,9999,9999,2984590396
29,11,10,Ticks_ISO_T2_5,56,9999,9999,9999,2985090164
29,11,10,Ticks_ISO_T2_5,57,9999,9999,9999,2985590832
29,11,10,Ticks_ISO_T2_5,58,9999,9999,9999,2986090600
29,11,10,Ticks_ISO_T2_5,59,9999,9999,9999,2986590296
29,11,10,Ticks_ISO_T2_5,60,9999,9999,9999,2987091036
29,11,10,Ticks_ISO_T2_5,61,9999,9999,9999,2987590732
29,11,10,Ticks_ISO_T2_5,62,9999,9999,9999,2988090428
29,11,10,Ticks_ISO_T2_5,63,9999,9999,9999,2988590180
29,11,10,Ticks_ISO_T2_5,64,9999,9999,9999,2989090912
29,11,10,Ticks_ISO_T2_5,65,9999,9999,9999,2989590608
29,11,10,Ticks_ISO_T2_5,66,9999,9999,9999,2990090308
29,11,10,Ticks_ISO_T2_5,67,9999,9999,9999,2990591044
29,11,10,Ticks_ISO_T2_5,68,9999,9999,9999,2991090744
29,11,10,Ticks_ISO_T2_5,69,9999,9999,9999,2991590508
29,11,10,Ticks_ISO_T2_5,70,9999,9999,9999,2992090208
29,11,10,Ticks_ISO_T2_5,71,9999,9999,9999,2992590944
29,11,10,Ticks_ISO_T2_5,72,9999,9999,9999,2993090636
29,11,10,Ticks_ISO_T2_5,73,9999,9999,9999,2993590336
29,11,10,Ticks_ISO_T2_5,74,9999,9999,9999,2994091080
29,11,10,Ticks_ISO_T2_5,75,9999,9999,9999,2994590776
29,11,10,Ticks_ISO_T2_5,76,9999,9999,9999,2995090540
29,11,10,Ticks_ISO_T2_5,77,9999,9999,9999,2995590236
29,11,10,Ticks_ISO_T2_5,78,9999,9999,9999,2996090976
29,11,10,Ticks_ISO_T2_5,79,9999,9999,9999,2996590672
29,11,10,Ticks_ISO_T2_5,80,9999,9999,9999,2997090372
29,11,10,Ticks_ISO_T2_5,81,9999,9999,9999,2997590136
29,11,10,Ticks_ISO_T2_5,82,9999,9999,9999,2998090804
29,11,10,Ticks_ISO_T2_5,83,9999,9999,9999,2998590572
29,11,10,Ticks_ISO_T2_5,84,9999,9999,9999,2999090244
29,11,10,Ticks_ISO_T2_5,85,9999,9999,9999,2999590984
29,11,10,Ticks_ISO_T2_5,86,9999,9999,9999,3000090680
29,11,10,Ticks_ISO_T2_5,87,9999,9999,9999,3000590448
29,11,10,Ticks_ISO_T2_5,88,9999,9999,9999,3001090144
29,11,10,Ticks_ISO_T2_5,89,9999,9999,9999,3001590884
29,11,10,Ticks_ISO_T2_5,90,9999,9999,9999,3002090580
29,11,10,Ticks_ISO_T2_5,91,9999,9999,9999,3002590280
29,11,10,Ticks_ISO_T2_5,92,9999,9999,9999,3003091016
29,11,10,Ticks_ISO_T2_5,93,9999,9999,9999,3003590712
29,11,10,Ticks_ISO_T2_5,94,9999,9999,9999,3004090480
29,11,10,Ticks_ISO_T2_5,95,9999,9999,9999,3004590176
29,11,10,Ticks_ISO_T2_5,96,9999,9999,9999,3005090916
29,11,10,Ticks_ISO_T2_5,97,9999,9999,9999,3005590612
29,11,10,Ticks_ISO_T2_5,98,9999,9999,9999,3006090308
29,11,10,Ticks_ISO_T2_5,99,9999,9999,9999,3006591052
29,11,10,Ticks_ISO_T2_5,100,9999,9999,9999,3007090744
29,11,10,Ticks_ISO_T2_5,101,9999,9999,9999,3007590516
29,11,10,Ticks_ISO_T2_5,102,9999,9999,9999,3008090220
29,11,10,Ticks_ISO_T2_5,103,9999,9999,9999,3008590952
29,11,10,Ticks_ISO_T2_5,104,9999,9999,9999,3009090656
29,11,10,Ticks_ISO_T2_5,105,9999,9999,9999,3009590324
29,11,10,Ticks_ISO_T2_5,106,9999,9999,9999,3010091064
29,11,10,Ticks_ISO_T2_5,107,9999,9999,9999,3010590832
29,11,10,Ticks_ISO_T2_5,108,9999,9999,9999,3011090528
29,11,10,Ticks_ISO_T2_5,109,9999,9999,9999,3011590216
29,11,10,Ticks_ISO_T2_5,110,9999,9999,9999,3012090960
29,11,10,Ticks_ISO_T2_5,111,9999,9999,9999,3012590660
29,11,10,Ticks_ISO_T2_5,112,9999,9999,9999,3013090424
29,11,10,Ticks_ISO_T2_5,113,9999,9999,9999,3013590124
29,11,10,Ticks_ISO_T2_5,114,9999,9999,9999,3014090860
29,11,10,Ticks_ISO_T2_5,115,9999,9999,9999,3014590556
29,11,10,Ticks_ISO_T2_5,116,9999,9999,9999,3015090256
29,11,10,Ticks_ISO_T2_5,117,9999,9999,9999,3015590988
29,11,10,Ticks_ISO_T2_5,118,9999,9999,9999,3016090684
29,11,10,Ticks_ISO_T2_5,119,9999,9999,9999,3016590388
29,11,10,Ticks_ISO_T2_5,120,9999,9999,9999,3017090152
29,11,10,Ticks_ISO_T2_5,121,9999,9999,9999,3017590900
29,11,10,Ticks_ISO_T2_5,122,9999,9999,9999,3018090596
29,11,10,Ticks_ISO_T2_5,123,9999,9999,9999,3018590292
29,11,10,Ticks_ISO_T2_5,124,9999,9999,9999,3019091028
29,11,10,Ticks_ISO_T2_5,125,9999,9999,9999,3019590728
29,11,10,Ticks_ISO_T2_5,126,9999,9999,9999,3020090424
29,11,10,Ticks_ISO_T2_5,127,9999,9999,9999,3020590160
29,11,10,Ticks_ISO_T2_5,128,9999,9999,9999,3021090908
29,11,10,Ticks_ISO_T2_5,129,9999,9999,9999,3021590600
29,12,24,Jits_Pract_8,0,5,56,103,3096325720
29,12,24,Jits_Pract_8,1,5,63,98,3096328824
29,12,24,Jits_Pract_8,2,5,80,127,3096331792
29,12,24,Jits_Pract_8,0,5,56,103,3097126260
29,12,24,Jits_Pract_8,1,5,63,98,3097129584
29,12,24,Jits_Pract_8,2,5,80,127,3097132628
29,12,24,Jits_Pract_8,0,5,80,127,3097865756
29,12,24,Jits_Pract_8,1,5,63,98,3097955692
29,12,24,Jits_Pract_8,2,5,56,103,3097965884
29,12,24,Jits_Pract_8,0,5,56,103,3098685672
29,12,24,Jits_Pract_8,1,5,63,98,3098696164
29,12,24,Jits_Pract_8,2,5,80,127,3098786144
29,12,24,Jits_Pract_8,0,5,63,98,3099455808
29,12,24,Jits_Pract_8,1,1,48,44,3099485632
29,12,24,Jits_Pract_8,2,5,80,127,3099487192
29,12,24,Jits_Pract_8,3,5,56,103,3099516420
29,12,24,Jits_Pract_8,0,5,56,103,3100255560
29,12,24,Jits_Pract_8,1,1,48,51,3100257932
29,12,24,Jits_Pract_8,2,5,80,127,3100355936
29,12,24,Jits_Pract_8,3,5,63,98,3100406060
29,12,24,Jits_Pract_8,0,5,56,103,3101056456
29,12,24,Jits_Pract_8,1,5,80,127,3101105464
29,12,24,Jits_Pract_8,2,5,63,98,3101145328
29,12,24,Jits_Pract_8,3,1,48,46,3101149864
29,12,24,Jits_Pract_8,0,5,80,127,3101885896
29,12,24,Jits_Pract_8,1,5,63,98,3101915644
29,12,24,Jits_Pract_8,2,1,48,54,3101932464
29,12,24,Jits_Pract_8,3,5,56,103,3101986288
29,12,24,Jits_Pract_8,0,5,63,98,3102716456
29,12,24,Jits_Pract_8,1,1,48,56,3102728044
29,12,24,Jits_Pract_8,2,5,56,103,3102745904
29,12,24,Jits_Pract_8,3,5,80,127,3102806320
29,12,24,Jits_Pract_8,0,5,56,103,3103455536
29,12,24,Jits_Pract_8,1,5,80,127,3103458604
29,12,24,Jits_Pract_8,2,1,48,54,3103486824
29,12,24,Jits_Pract_8,3,5,63,98,3103576400
29,12,24,Jits_Pract_8,0,1,48,52,3104286284
29,12,24,Jits_Pract_8,1,5,56,103,3104336232
29,12,24,Jits_Pract_8,2,5,80,127,3104376320
29,12,24,Jits_Pract_8,3,5,63,98,3104386500
29,12,24,Jits_Pract_8,0,1,48,55,3105090332
29,12,24,Jits_Pract_8,1,5,56,103,3105096208
29,12,24,Jits_Pract_8,2,5,80,127,3105115620
29,12,24,Jits_Pract_8,3,5,63,98,3105196372
29,12,24,Jits_Pract_8,0,5,80,127,3105885488
29,12,24,Jits_Pract_8,1,1,48,54,3105911448
29,12,24,Jits_Pract_8,2,5,56,103,3105985804
29,12,24,Jits_Pract_8,3,5,63,98,3105996072
29,12,24,Jits_Pract_8,0,5,63,98,3106655520
29,12,24,Jits_Pract_8,1,5,80,127,3106716136
29,12,24,Jits_Pract_8,2,5,56,103,3106726184
29,12,24,Jits_Pract_8,3,1,48,55,3106745112
29,12,24,Jits_Pract_8,0,1,48,51,3107456024
29,12,24,Jits_Pract_8,1,5,56,103,3107457660
29,12,24,Jits_Pract_8,2,5,63,98,3107526068
29,12,24,Jits_Pract_8,3,5,80,127,3107529360
29,12,24,Jits_Pract_8,0,9999,9999,9999,3096723528
29,12,24,Jits_Pract_8,1,9999,9999,9999,3097523316
29,12,24,Jits_Pract_8,2,9999,9999,9999,3098324024
29,12,24,Jits_Pract_8,3,9999,9999,9999,3099123836
29,12,24,Jits_Pract_8,4,9999,9999,9999,3099923540
29,12,24,Jits_Pract_8,5,9999,9999,9999,3100723252
29,12,24,Jits_Pract_8,6,9999,9999,9999,3101524068
29,12,24,Jits_Pract_8,7,9999,9999,9999,3102323764
29,12,24,Jits_Pract_8,8,9999,9999,9999,3103123544
29,12,24,Jits_Pract_8,9,9999,9999,9999,3103923288
29,12,24,Jits_Pract_8,10,9999,9999,9999,3104724040
29,12,24,Jits_Pract_8,11,9999,9999,9999,3105523796
29,12,24,Jits_Pract_8,12,9999,9999,9999,3106323560
29,12,24,Jits_Pract_8,13,9999,9999,9999,3107123280
29,12,24,Jits_Pract_8,14,9999,9999,9999,3107924072
29,13,25,Jits_Pract_5,0,5,56,103,3114865136
29,13,25,Jits_Pract_5,1,5,63,98,3114868236
29,13,25,Jits_Pract_5,2,5,80,127,3114871356
29,13,25,Jits_Pract_5,0,5,56,103,3115364788
29,13,25,Jits_Pract_5,1,5,63,98,3115367812
29,13,25,Jits_Pract_5,2,5,80,127,3115371008
29,13,25,Jits_Pract_5,0,1,48,39,3115693876
29,13,25,Jits_Pract_5,1,5,56,103,3115864360
29,13,25,Jits_Pract_5,2,5,80,127,3115874856
29,13,25,Jits_Pract_5,3,5,63,98,3115895164
29,13,25,Jits_Pract_5,0,1,48,51,3116306556
29,13,25,Jits_Pract_5,1,5,63,98,3116314896
29,13,25,Jits_Pract_5,2,5,80,127,3116344748
29,13,25,Jits_Pract_5,3,5,56,103,3116354944
29,13,25,Jits_Pract_5,0,1,48,54,3116807592
29,13,25,Jits_Pract_5,1,5,80,127,3116875072
29,13,25,Jits_Pract_5,2,5,56,103,3116885640
29,13,25,Jits_Pract_5,3,5,63,98,3116915080
29,13,25,Jits_Pract_5,0,1,48,58,3117331484
29,13,25,Jits_Pract_5,1,5,63,98,3117364804
29,13,25,Jits_Pract_5,2,5,56,103,3117395452
29,13,25,Jits_Pract_5,3,5,80,127,3117404752
29,13,25,Jits_Pract_5,0,5,56,103,3117815180
29,13,25,Jits_Pract_5,1,1,48,48,3117849164
29,13,25,Jits_Pract_5,2,5,63,98,3117865376
29,13,25,Jits_Pract_5,3,5,80,127,3117884736
29,13,25,Jits_Pract_5,0,1,48,46,3118293208
29,13,25,Jits_Pract_5,1,5,80,127,3118314952
29,13,25,Jits_Pract_5,2,5,63,98,3118365008
29,13,25,Jits_Pract_5,3,5,56,103,3118404884
29,13,25,Jits_Pract_5,0,5,56,103,3118814728
29,13,25,Jits_Pract_5,1,1,48,56,3118816068
29,13,25,Jits_Pract_5,2,5,63,98,3118845224
29,13,25,Jits_Pract_5,3,5,80,127,3118915956
29,13,25,Jits_Pract_5,0,1,48,67,3119311400
29,13,25,Jits_Pract_5,1,5,56,103,3119315256
29,13,25,Jits_Pract_5,2,5,80,127,3119374600
29,13,25,Jits_Pract_5,3,5,63,98,3119405620
29,13,25,Jits_Pract_5,0,5,56,103,3119825268
29,13,25,Jits_Pract_5,1,5,63,98,3119834716
29,13,25,Jits_Pract_5,2,1,48,62,3119835680
29,13,25,Jits_Pract_5,3,5,80,127,3119874648
29,13,25,Jits_Pract_5,0,1,48,58,3120303068
29,13,25,Jits_Pract_5,1,5,63,98,3120314704
29,13,25,Jits_Pract_5,2,5,80,127,3120394500
29,13,25,Jits_Pract_5,3,5,56,103,3120404828
29,13,25,Jits_Pract_5,0,1,48,57,3120839692
29,13,25,Jits_Pract_5,1,5,63,98,3120864744
29,13,25,Jits_Pract_5,2,5,56,103,3120904532
29,13,25,Jits_Pract_5,3,5,80,127,3120907676
29,13,25,Jits_Pract_5,0,5,56,103,3121325624
29,13,25,Jits_Pract_5,1,5,63,98,3121334552
29,13,25,Jits_Pract_5,2,1,48,54,3121339092
29,13,25,Jits_Pract_5,3,5,80,127,3121374632
29,13,25,Jits_Pract_5,0,1,48,55,3121796828
29,13,25,Jits_Pract_5,1,5,56,103,3121814832
29,13,25,Jits_Pract_5,2,5,63,98,3121817828
29,13,25,Jits_Pract_5,3,5,80,127,3121835516
29,13,25,Jits_Pract_5,0,9999,9999,9999,3115112500
29,13,25,Jits_Pract_5,1,9999,9999,9999,3115612224
29,13,25,Jits_Pract_5,2,9999,9999,9999,3116113000
29,13,25,Jits_Pract_5,3,9999,9999,9999,3116612688
29,13,25,Jits_Pract_5,4,9999,9999,9999,3117112388
29,13,25,Jits_Pract_5,5,9999,9999,9999,3117612136
29,13,25,Jits_Pract_5,6,9999,9999,9999,3118112868
29,13,25,Jits_Pract_5,7,9999,9999,9999,3118612576
29,13,25,Jits_Pract_5,8,9999,9999,9999,3119112268
29,13,25,Jits_Pract_5,9,9999,9999,9999,3119613000
29,13,25,Jits_Pract_5,10,9999,9999,9999,3120112692
29,13,25,Jits_Pract_5,11,9999,9999,9999,3120612476
29,13,25,Jits_Pract_5,12,9999,9999,9999,3121112164
29,13,25,Jits_Pract_5,13,9999,9999,9999,3121612900
29,13,25,Jits_Pract_5,14,9999,9999,9999,3122112592
29,14,15,Jits_Phase_8,0,5,56,103,3203179904
29,14,15,Jits_Phase_8,1,5,63,98,3203182928
29,14,15,Jits_Phase_8,2,5,80,127,3203185900
29,14,15,Jits_Phase_8,0,5,56,103,3203979696
29,14,15,Jits_Phase_8,1,5,63,98,3203982944
29,14,15,Jits_Phase_8,2,5,80,127,3203985768
29,14,15,Jits_Phase_8,0,5,80,127,3204720088
29,14,15,Jits_Phase_8,1,1,48,47,3204800684
29,14,15,Jits_Phase_8,2,5,63,98,3204809996
29,14,15,Jits_Phase_8,3,5,56,103,3204820264
29,14,15,Jits_Phase_8,0,5,56,103,3205540092
29,14,15,Jits_Phase_8,1,5,63,98,3205549612
29,14,15,Jits_Phase_8,2,1,48,52,3205578060
29,14,15,Jits_Phase_8,3,5,80,127,3205639516
29,14,15,Jits_Phase_8,0,5,63,98,3206310192
29,14,15,Jits_Phase_8,1,5,80,127,3206339940
29,14,15,Jits_Phase_8,2,1,48,47,3206350704
29,14,15,Jits_Phase_8,3,5,56,103,3206369684
29,14,15,Jits_Phase_8,0,1,48,47,3207010344
29,14,15,Jits_Phase_8,1,5,56,103,3207109996
29,14,15,Jits_Phase_8,2,5,80,127,3207210496
29,14,15,Jits_Phase_8,3,5,63,98,3207259500
29,14,15,Jits_Phase_8,0,5,56,103,3207909704
29,14,15,Jits_Phase_8,1,5,80,127,3207959832
29,14,15,Jits_Phase_8,2,1,48,38,3207996232
29,14,15,Jits_Phase_8,3,5,63,98,3207999936
29,14,15,Jits_Phase_8,0,5,80,127,3208740488
29,14,15,Jits_Phase_8,1,1,48,46,3208755916
29,14,15,Jits_Phase_8,2,5,63,98,3208769888
29,14,15,Jits_Phase_8,3,5,56,103,3208839492
29,14,15,Jits_Phase_8,0,5,63,98,3209569584
29,14,15,Jits_Phase_8,1,1,48,51,3209593752
29,14,15,Jits_Phase_8,2,5,56,103,3209600452
29,14,15,Jits_Phase_8,3,5,80,127,3209659644
29,14,15,Jits_Phase_8,0,5,56,103,3210309852
29,14,15,Jits_Phase_8,1,5,80,127,3210313224
29,14,15,Jits_Phase_8,2,1,48,48,3210372536
29,14,15,Jits_Phase_8,3,5,63,98,3210429724
29,14,15,Jits_Phase_8,0,1,48,35,3211173564
29,14,15,Jits_Phase_8,1,5,56,103,3211189556
29,14,15,Jits_Phase_8,2,5,80,127,3211229496
29,14,15,Jits_Phase_8,3,5,63,98,3211239764
29,14,15,Jits_Phase_8,0,1,48,48,3211908680
29,14,15,Jits_Phase_8,1,5,56,103,3211949384
29,14,15,Jits_Phase_8,2,5,80,127,3211969772
29,14,15,Jits_Phase_8,3,5,63,98,3212049772
29,14,15,Jits_Phase_8,0,1,48,42,3212737268
29,14,15,Jits_Phase_8,1,5,80,127,3212740004
29,14,15,Jits_Phase_8,2,5,56,103,3212840336
29,14,15,Jits_Phase_8,3,5,63,98,3212849636
29,14,15,Jits_Phase_8,0,1,48,52,3213509124
29,14,15,Jits_Phase_8,1,5,63,98,3213510772
29,14,15,Jits_Phase_8,2,5,80,127,3213570488
29,14,15,Jits_Phase_8,3,5,56,103,3213579636
29,14,15,Jits_Phase_8,0,1,48,57,3214257388
29,14,15,Jits_Phase_8,1,5,56,103,3214309924
29,14,15,Jits_Phase_8,2,5,63,98,3214380364
29,14,15,Jits_Phase_8,3,5,80,127,3214383728
29,14,15,Jits_Phase_8,0,1,48,56,3215032548
29,14,15,Jits_Phase_8,1,5,63,98,3215140152
29,14,15,Jits_Phase_8,2,5,56,103,3215190452
29,14,15,Jits_Phase_8,3,5,80,127,3215193444
29,14,15,Jits_Phase_8,0,1,48,54,3215837996
29,14,15,Jits_Phase_8,1,5,56,103,3215900052
29,14,15,Jits_Phase_8,2,5,80,127,3215903120
29,14,15,Jits_Phase_8,3,5,63,98,3215990268
29,14,15,Jits_Phase_8,0,1,48,47,3216691408
29,14,15,Jits_Phase_8,1,5,63,98,3216739608
29,14,15,Jits_Phase_8,2,5,56,103,3216829952
29,14,15,Jits_Phase_8,3,5,80,127,3216859404
29,14,15,Jits_Phase_8,0,1,48,48,3217471384
29,14,15,Jits_Phase_8,1,5,56,103,3217530152
29,14,15,Jits_Phase_8,2,5,63,98,3217629488
29,14,15,Jits_Phase_8,3,5,80,127,3217660284
29,14,15,Jits_Phase_8,0,1,48,56,3218313700
29,14,15,Jits_Phase_8,1,5,63,98,3218349544
29,14,15,Jits_Phase_8,2,5,56,103,3218359664
29,14,15,Jits_Phase_8,3,5,80,127,3218450004
29,14,15,Jits_Phase_8,0,1,48,55,3219103568
29,14,15,Jits_Phase_8,1,5,63,98,3219169756
29,14,15,Jits_Phase_8,2,5,56,103,3219249636
29,14,15,Jits_Phase_8,3,5,80,127,3219252628
29,14,15,Jits_Phase_8,0,1,48,58,3219898092
29,14,15,Jits_Phase_8,1,5,80,127,3219929356
29,14,15,Jits_Phase_8,2,5,63,98,3219949892
29,14,15,Jits_Phase_8,3,5,56,103,3220010288
29,14,15,Jits_Phase_8,0,1,48,61,3220706972
29,14,15,Jits_Phase_8,1,5,56,103,3220770168
29,14,15,Jits_Phase_8,2,5,63,98,3220789824
29,14,15,Jits_Phase_8,3,5,80,127,3220793192
29,14,15,Jits_Phase_8,0,1,48,64,3221472936
29,14,15,Jits_Phase_8,1,5,63,98,3221509528
29,14,15,Jits_Phase_8,2,5,80,127,3221590384
29,14,15,Jits_Phase_8,3,5,56,103,3221599532
29,14,15,Jits_Phase_8,0,1,48,51,3222307004
29,14,15,Jits_Phase_8,1,5,63,98,3222329840
29,14,15,Jits_Phase_8,2,5,56,103,3222350152
29,14,15,Jits_Phase_8,3,5,80,127,3222401756
29,14,15,Jits_Phase_8,0,1,48,62,3223090612
29,14,15,Jits_Phase_8,1,5,80,127,3223129376
29,14,15,Jits_Phase_8,2,5,63,98,3223170288
29,14,15,Jits_Phase_8,3,5,56,103,3223189980
29,14,15,Jits_Phase_8,0,1,48,54,3223902504
29,14,15,Jits_Phase_8,1,5,56,103,3223970036
29,14,15,Jits_Phase_8,2,5,63,98,3223980308
29,14,15,Jits_Phase_8,3,5,80,127,3223999928
29,14,15,Jits_Phase_8,0,5,56,103,3224700128
29,14,15,Jits_Phase_8,1,1,48,57,3224741160
29,14,15,Jits_Phase_8,2,5,63,98,3224790404
29,14,15,Jits_Phase_8,3,5,80,127,3224849732
29,14,15,Jits_Phase_8,0,5,80,127,3225529792
29,14,15,Jits_Phase_8,1,1,48,57,3225539768
29,14,15,Jits_Phase_8,2,5,56,103,3225541476
29,14,15,Jits_Phase_8,3,5,63,98,3225609664
29,14,15,Jits_Phase_8,0,1,48,56,3226292644
29,14,15,Jits_Phase_8,1,5,63,98,3226360176
29,14,15,Jits_Phase_8,2,5,80,127,3226450248
29,14,15,Jits_Phase_8,3,5,56,103,3226459692
29,14,15,Jits_Phase_8,0,5,63,98,3227090344
29,14,15,Jits_Phase_8,1,5,80,127,3227139652
29,14,15,Jits_Phase_8,2,5,56,103,3227199768
29,14,15,Jits_Phase_8,3,1,48,51,3227259448
29,14,15,Jits_Phase_8,0,5,56,103,3227909732
29,14,15,Jits_Phase_8,1,5,80,127,3227959664
29,14,15,Jits_Phase_8,2,5,63,98,3227980344
29,14,15,Jits_Phase_8,3,1,48,43,3227990956
29,14,15,Jits_Phase_8,0,5,56,103,3228679540
29,14,15,Jits_Phase_8,1,1,48,46,3228701388
29,14,15,Jits_Phase_8,2,5,80,127,3228739876
29,14,15,Jits_Phase_8,3,5,63,98,3228809540
29,14,15,Jits_Phase_8,0,5,56,103,3229480456
29,14,15,Jits_Phase_8,1,5,80,127,3229510056
29,14,15,Jits_Phase_8,2,1,48,51,3229512576
29,14,15,Jits_Phase_8,3,5,63,98,3229539652
29,14,15,Jits_Phase_8,0,1,48,46,3230205388
29,14,15,Jits_Phase_8,1,5,56,103,3230319836
29,14,15,Jits_Phase_8,2,5,80,127,3230339396
29,14,15,Jits_Phase_8,3,5,63,98,3230399788
29,14,15,Jits_Phase_8,0,1,48,52,3231122276
29,14,15,Jits_Phase_8,1,5,80,127,3231199704
29,14,15,Jits_Phase_8,2,5,56,103,3231209972
29,14,15,Jits_Phase_8,3,5,63,98,3231221052
29,14,15,Jits_Phase_8,0,1,48,55,3231954260
29,14,15,Jits_Phase_8,1,5,56,103,3231960284
29,14,15,Jits_Phase_8,2,5,80,127,3232000448
29,14,15,Jits_Phase_8,3,5,63,98,3232029972
29,14,15,Jits_Phase_8,0,5,56,103,3232729488
29,14,15,Jits_Phase_8,1,5,63,98,3232760360
29,14,15,Jits_Phase_8,2,1,48,53,3232767668
29,14,15,Jits_Phase_8,3,5,80,127,3232800068
29,14,15,Jits_Phase_8,0,5,80,127,3233480188
29,14,15,Jits_Phase_8,1,5,63,98,3233530316
29,14,15,Jits_Phase_8,2,1,48,56,3233543096
29,14,15,Jits_Phase_8,3,5,56,103,3233549648
29,14,15,Jits_Phase_8,0,1,48,54,3234293704
29,14,15,Jits_Phase_8,1,5,56,103,3234309396
29,14,15,Jits_Phase_8,2,5,80,127,3234380300
29,14,15,Jits_Phase_8,3,5,63,98,3234439480
29,14,15,Jits_Phase_8,0,5,80,127,3235110164
29,14,15,Jits_Phase_8,1,1,48,55,3235186024
29,14,15,Jits_Phase_8,2,5,63,98,3235200368
29,14,15,Jits_Phase_8,3,5,56,103,3235219780
29,14,15,Jits_Phase_8,0,5,63,98,3235929424
29,14,15,Jits_Phase_8,1,5,56,103,3235949880
29,14,15,Jits_Phase_8,2,1,48,62,3235973304
29,14,15,Jits_Phase_8,3,5,80,127,3235989736
29,14,15,Jits_Phase_8,0,1,48,45,3236689464
29,14,15,Jits_Phase_8,1,5,80,127,3236691260
29,14,15,Jits_Phase_8,2,5,63,98,3236709624
29,14,15,Jits_Phase_8,3,5,56,103,3236789552
29,14,15,Jits_Phase_8,0,5,63,98,3237479780
29,14,15,Jits_Phase_8,1,1,48,47,3237539768
29,14,15,Jits_Phase_8,2,5,56,103,3237590436
29,14,15,Jits_Phase_8,3,5,80,127,3237593576
29,14,15,Jits_Phase_8,0,5,63,98,3238300132
29,14,15,Jits_Phase_8,1,1,48,50,3238309336
29,14,15,Jits_Phase_8,2,5,56,103,3238311236
29,14,15,Jits_Phase_8,3,5,80,127,3238314060
29,14,15,Jits_Phase_8,0,1,48,57,3239067016
29,14,15,Jits_Phase_8,1,5,56,103,3239080236
29,14,15,Jits_Phase_8,2,5,80,127,3239200100
29,14,15,Jits_Phase_8,3,5,63,98,3239240140
29,14,15,Jits_Phase_8,0,5,56,103,3239899560
29,14,15,Jits_Phase_8,1,5,80,127,3239980504
29,14,15,Jits_Phase_8,2,1,48,49,3239995228
29,14,15,Jits_Phase_8,3,5,63,98,3240000132
29,14,15,Jits_Phase_8,0,5,56,103,3240700232
29,14,15,Jits_Phase_8,1,1,48,51,3240792088
29,14,15,Jits_Phase_8,2,5,63,98,3240809940
29,14,15,Jits_Phase_8,3,5,80,127,3240813304
29,14,15,Jits_Phase_8,0,5,56,103,3241539888
29,14,15,Jits_Phase_8,1,5,80,127,3241569784
29,14,15,Jits_Phase_8,2,5,63,98,3241590020
29,14,15,Jits_Phase_8,3,1,48,53,3241608880
29,14,15,Jits_Phase_8,0,5,63,98,3242329396
29,14,15,Jits_Phase_8,1,5,56,103,3242339888
29,14,15,Jits_Phase_8,2,5,80,127,3242349936
29,14,15,Jits_Phase_8,3,1,48,61,3242397544
29,14,15,Jits_Phase_8,0,1,48,51,3243097284
29,14,15,Jits_Phase_8,1,5,80,127,3243120152
29,14,15,Jits_Phase_8,2,5,56,103,3243170128
29,14,15,Jits_Phase_8,3,5,63,98,3243210052
29,14,15,Jits_Phase_8,0,5,80,127,3243940068
29,14,15,Jits_Phase_8,1,5,63,98,3243959780
29,14,15,Jits_Phase_8,2,1,48,50,3243972864
29,14,15,Jits_Phase_8,3,5,56,103,3244009824
29,14,15,Jits_Phase_8,0,5,80,127,3244750328
29,14,15,Jits_Phase_8,1,5,56,103,3244779928
29,14,15,Jits_Phase_8,2,1,48,50,3244793608
29,14,15,Jits_Phase_8,3,5,63,98,3244849704
29,14,15,Jits_Phase_8,0,5,56,103,3245600080
29,14,15,Jits_Phase_8,1,5,80,127,3245610376
29,14,15,Jits_Phase_8,2,1,48,49,3245611936
29,14,15,Jits_Phase_8,3,5,63,98,3245650304
29,14,15,Jits_Phase_8,0,5,56,103,3246309872
29,14,15,Jits_Phase_8,1,5,63,98,3246330184
29,14,15,Jits_Phase_8,2,1,48,48,3246393488
29,14,15,Jits_Phase_8,3,5,80,127,3246399956
29,14,15,Jits_Phase_8,0,1,48,50,3246996840
29,14,15,Jits_Phase_8,1,5,63,98,3247129852
29,14,15,Jits_Phase_8,2,5,80,127,3247190492
29,14,15,Jits_Phase_8,3,5,56,103,3247209904
29,14,15,Jits_Phase_8,0,1,48,53,3247897916
29,14,15,Jits_Phase_8,1,5,80,127,3247919760
29,14,15,Jits_Phase_8,2,5,56,103,3247950184
29,14,15,Jits_Phase_8,3,5,63,98,3247979932
29,14,15,Jits_Phase_8,0,5,56,103,3248720124
29,14,15,Jits_Phase_8,1,1,48,42,3248749540
29,14,15,Jits_Phase_8,2,5,63,98,3248779608
29,14,15,Jits_Phase_8,3,5,80,127,3248839924
29,14,15,Jits_Phase_8,0,1,48,66,3249470708
29,14,15,Jits_Phase_8,1,5,80,127,3249539808
29,14,15,Jits_Phase_8,2,5,56,103,3249560044
29,14,15,Jits_Phase_8,3,5,63,98,3249629636
29,14,15,Jits_Phase_8,0,1,48,51,3250279012
29,14,15,Jits_Phase_8,1,5,80,127,3250340096
29,14,15,Jits_Phase_8,2,5,63,98,3250359808
29,14,15,Jits_Phase_8,3,5,56,103,3250390440
29,14,15,Jits_Phase_8,0,1,48,49,3251059660
29,14,15,Jits_Phase_8,1,5,80,127,3251129740
29,14,15,Jits_Phase_8,2,5,63,98,3251150124
29,14,15,Jits_Phase_8,3,5,56,103,3251209452
29,14,15,Jits_Phase_8,0,1,48,65,3251836704
29,14,15,Jits_Phase_8,1,5,80,127,3251929420
29,14,15,Jits_Phase_8,2,5,56,103,3252029756
29,14,15,Jits_Phase_8,3,5,63,98,3252059652
29,14,15,Jits_Phase_8,0,5,63,98,3252719900
29,14,15,Jits_Phase_8,1,5,80,127,3252770476
29,14,15,Jits_Phase_8,2,1,48,53,3252788632
29,14,15,Jits_Phase_8,3,5,56,103,3252790572
29,14,15,Jits_Phase_8,0,1,48,48,3253496908
29,14,15,Jits_Phase_8,1,5,80,127,3253559752
29,14,15,Jits_Phase_8,2,5,56,103,3253590384
29,14,15,Jits_Phase_8,3,5,63,98,3253593452
29,14,15,Jits_Phase_8,0,1,48,63,3254300788
29,14,15,Jits_Phase_8,1,5,63,98,3254409536
29,14,15,Jits_Phase_8,2,5,56,103,3254449476
29,14,15,Jits_Phase_8,3,5,80,127,3254469932
29,14,15,Jits_Phase_8,0,1,48,55,3255154736
29,14,15,Jits_Phase_8,1,5,80,127,3255170496
29,14,15,Jits_Phase_8,2,5,63,98,3255250592
29,14,15,Jits_Phase_8,3,5,56,103,3255290588
29,14,15,Jits_Phase_8,0,1,48,47,3255986484
29,14,15,Jits_Phase_8,1,5,63,98,3255989740
29,14,15,Jits_Phase_8,2,5,80,127,3256069464
29,14,15,Jits_Phase_8,3,5,56,103,3256089832
29,14,15,Jits_Phase_8,0,1,48,61,3256760488
29,14,15,Jits_Phase_8,1,5,56,103,3256830412
29,14,15,Jits_Phase_8,2,5,63,98,3256839416
29,14,15,Jits_Phase_8,3,5,80,127,3256879436
29,14,15,Jits_Phase_8,0,5,56,103,3257550312
29,14,15,Jits_Phase_8,1,5,80,127,3257553456
29,14,15,Jits_Phase_8,2,1,48,53,3257611796
29,14,15,Jits_Phase_8,3,5,63,98,3257689388
29,14,15,Jits_Phase_8,0,1,48,49,3258338608
29,14,15,Jits_Phase_8,1,5,56,103,3258340480
29,14,15,Jits_Phase_8,2,5,63,98,3258430552
29,14,15,Jits_Phase_8,3,5,80,127,3258499556
29,14,15,Jits_Phase_8,0,1,48,59,3259161792
29,14,15,Jits_Phase_8,1,5,63,98,3259220280
29,14,15,Jits_Phase_8,2,5,80,127,3259223572
29,14,15,Jits_Phase_8,3,5,56,103,3259279756
29,14,15,Jits_Phase_8,0,1,48,48,3259955864
29,14,15,Jits_Phase_8,1,5,80,127,3260060176
29,14,15,Jits_Phase_8,2,5,56,103,3260079440
29,14,15,Jits_Phase_8,3,5,63,98,3260089636
29,14,15,Jits_Phase_8,0,1,48,41,3260763956
29,14,15,Jits_Phase_8,1,5,56,103,3260769532
29,14,15,Jits_Phase_8,2,5,63,98,3260780024
29,14,15,Jits_Phase_8,3,5,80,127,3260849484
29,14,15,Jits_Phase_8,0,1,48,61,3261486912
29,14,15,Jits_Phase_8,1,5,80,127,3261570412
29,14,15,Jits_Phase_8,2,5,56,103,3261619704
29,14,15,Jits_Phase_8,3,5,63,98,3261669832
29,14,15,Jits_Phase_8,0,1,48,46,3262356352
29,14,15,Jits_Phase_8,1,5,56,103,3262450100
29,14,15,Jits_Phase_8,2,5,63,98,3262460224
29,14,15,Jits_Phase_8,3,5,80,127,3262500188
29,14,15,Jits_Phase_8,0,1,48,45,3263146904
29,14,15,Jits_Phase_8,1,5,56,103,3263190320
29,14,15,Jits_Phase_8,2,5,63,98,3263230264
29,14,15,Jits_Phase_8,3,5,80,127,3263279352
29,14,15,Jits_Phase_8,0,1,48,60,3263903968
29,14,15,Jits_Phase_8,1,5,80,127,3263950152
29,14,15,Jits_Phase_8,2,5,56,103,3264000504
29,14,15,Jits_Phase_8,3,5,63,98,3264019900
29,14,15,Jits_Phase_8,0,1,48,45,3264754372
29,14,15,Jits_Phase_8,1,5,80,127,3264760248
29,14,15,Jits_Phase_8,2,5,63,98,3264819620
29,14,15,Jits_Phase_8,3,5,56,103,3264899324
29,14,15,Jits_Phase_8,0,5,80,127,3265539412
29,14,15,Jits_Phase_8,1,5,56,103,3265580348
29,14,15,Jits_Phase_8,2,1,48,49,3265583392
29,14,15,Jits_Phase_8,3,5,63,98,3265599904
29,14,15,Jits_Phase_8,0,1,48,63,3266328136
29,14,15,Jits_Phase_8,1,5,56,103,3266390440
29,14,15,Jits_Phase_8,2,5,80,127,3266399740
29,14,15,Jits_Phase_8,3,5,63,98,3266439664
29,14,15,Jits_Phase_8,0,1,48,51,3267145588
29,14,15,Jits_Phase_8,1,5,56,103,3267260016
29,14,15,Jits_Phase_8,2,5,63,98,3267299952
29,14,15,Jits_Phase_8,3,5,80,127,3267303168
29,14,15,Jits_Phase_8,0,5,63,98,3267929360
29,14,15,Jits_Phase_8,1,5,80,127,3267970344
29,14,15,Jits_Phase_8,2,5,56,103,3268040172
29,14,15,Jits_Phase_8,3,1,48,50,3268081276
29,14,15,Jits_Phase_8,0,5,63,98,3268699520
29,14,15,Jits_Phase_8,1,5,56,103,3268780436
29,14,15,Jits_Phase_8,2,1,48,51,3268806324
29,14,15,Jits_Phase_8,3,5,80,127,3268839996
29,14,15,Jits_Phase_8,0,1,48,56,3269390880
29,14,15,Jits_Phase_8,1,5,80,127,3269509444
29,14,15,Jits_Phase_8,2,5,63,98,3269559720
29,14,15,Jits_Phase_8,3,5,56,103,3269590368
29,14,15,Jits_Phase_8,0,5,56,103,3270300008
29,14,15,Jits_Phase_8,1,1,48,57,3270337580
29,14,15,Jits_Phase_8,2,5,63,98,3270350200
29,14,15,Jits_Phase_8,3,5,80,127,3270360396
29,14,15,Jits_Phase_8,0,5,56,103,3271110036
29,14,15,Jits_Phase_8,1,1,48,54,3271119980
29,14,15,Jits_Phase_8,2,5,63,98,3271219580
29,14,15,Jits_Phase_8,3,5,80,127,3271240040
29,14,15,Jits_Phase_8,0,5,63,98,3271909964
29,14,15,Jits_Phase_8,1,5,80,127,3271959868
29,14,15,Jits_Phase_8,2,1,48,38,3271972976
29,14,15,Jits_Phase_8,3,5,56,103,3272050016
29,14,15,Jits_Phase_8,0,1,48,56,3272649304
29,14,15,Jits_Phase_8,1,5,63,98,3272700128
29,14,15,Jits_Phase_8,2,5,80,127,3272730100
29,14,15,Jits_Phase_8,3,5,56,103,3272820020
29,14,15,Jits_Phase_8,0,1,48,57,3273432572
29,14,15,Jits_Phase_8,1,5,63,98,3273499956
29,14,15,Jits_Phase_8,2,5,56,103,3273510476
29,14,15,Jits_Phase_8,3,5,80,127,3273609512
29,14,15,Jits_Phase_8,0,1,48,32,3274213448
29,14,15,Jits_Phase_8,1,5,63,98,3274399968
29,14,15,Jits_Phase_8,2,5,80,127,3274429868
29,14,15,Jits_Phase_8,3,5,56,103,3274459620
29,14,15,Jits_Phase_8,0,1,48,46,3275141284
29,14,15,Jits_Phase_8,1,5,80,127,3275220500
29,14,15,Jits_Phase_8,2,5,63,98,3275229424
29,14,15,Jits_Phase_8,3,5,56,103,3275260428
29,14,15,Jits_Phase_8,0,5,80,127,3275919728
29,14,15,Jits_Phase_8,1,5,63,98,3275940188
29,14,15,Jits_Phase_8,2,1,48,55,3275960616
29,14,15,Jits_Phase_8,3,5,56,103,3275990380
29,14,15,Jits_Phase_8,0,1,48,45,3276749920
29,14,15,Jits_Phase_8,1,5,63,98,3276751480
29,14,15,Jits_Phase_8,2,5,80,127,3276809628
29,14,15,Jits_Phase_8,3,5,56,103,3276830012
29,14,15,Jits_Phase_8,0,5,63,98,3277509972
29,14,15,Jits_Phase_8,1,1,48,47,3277533916
29,14,15,Jits_Phase_8,2,5,56,103,3277560316
29,14,15,Jits_Phase_8,3,5,80,127,3277570440
29,14,15,Jits_Phase_8,0,1,48,56,3278285336
29,14,15,Jits_Phase_8,1,5,56,103,3278339536
29,14,15,Jits_Phase_8,2,5,80,127,3278349660
29,14,15,Jits_Phase_8,3,5,63,98,3278449988
29,14,15,Jits_Phase_8,0,5,80,127,3279100416
29,14,15,Jits_Phase_8,1,5,63,98,3279109488
29,14,15,Jits_Phase_8,2,1,48,15,3279204100
29,14,15,Jits_Phase_8,3,5,56,103,3279259872
29,14,15,Jits_Phase_8,0,1,48,50,3279796896
29,14,15,Jits_Phase_8,1,5,63,98,3279910376
29,14,15,Jits_Phase_8,2,5,80,127,3279950388
29,14,15,Jits_Phase_8,3,5,56,103,3280030256
29,14,15,Jits_Phase_8,0,5,56,103,3280659780
29,14,15,Jits_Phase_8,1,1,48,52,3280738528
29,14,15,Jits_Phase_8,2,5,80,127,3280760272
29,14,15,Jits_Phase_8,3,5,63,98,3280779536
29,14,15,Jits_Phase_8,0,1,48,34,3281469596
29,14,15,Jits_Phase_8,1,5,80,127,3281480256
29,14,15,Jits_Phase_8,2,5,56,103,3281490452
29,14,15,Jits_Phase_8,3,5,63,98,3281580344
29,14,15,Jits_Phase_8,0,5,56,103,3282279948
29,14,15,Jits_Phase_8,1,1,48,54,3282290412
29,14,15,Jits_Phase_8,2,5,63,98,3282300252
29,14,15,Jits_Phase_8,3,5,80,127,3282380192
29,14,15,Jits_Phase_8,0,1,48,51,3282979300
29,14,15,Jits_Phase_8,1,5,63,98,3283030268
29,14,15,Jits_Phase_8,2,5,56,103,3283119416
29,14,15,Jits_Phase_8,3,5,80,127,3283122408
29,14,15,Jits_Phase_8,0,1,48,45,3283757176
29,14,15,Jits_Phase_8,1,5,56,103,3283859968
29,14,15,Jits_Phase_8,2,5,80,127,3283920208
29,14,15,Jits_Phase_8,3,5,63,98,3283929360
29,14,15,Jits_Phase_8,0,1,48,52,3284548016
29,14,15,Jits_Phase_8,1,5,80,127,3284709704
29,14,15,Jits_Phase_8,2,5,56,103,3284720268
29,14,15,Jits_Phase_8,3,5,63,98,3284723336
29,14,15,Jits_Phase_8,0,1,48,57,3285443956
29,14,15,Jits_Phase_8,1,5,56,103,3285469460
29,14,15,Jits_Phase_8,2,5,80,127,3285479728
29,14,15,Jits_Phase_8,3,5,63,98,3285500188
29,14,15,Jits_Phase_8,0,1,48,51,3286231872
29,14,15,Jits_Phase_8,1,5,63,98,3286239544
29,14,15,Jits_Phase_8,2,5,80,127,3286300236
29,14,15,Jits_Phase_8,3,5,56,103,3286350296
29,14,15,Jits_Phase_8,0,1,48,58,3287002712
29,14,15,Jits_Phase_8,1,5,63,98,3287120228
29,14,15,Jits_Phase_8,2,5,56,103,3287129452
29,14,15,Jits_Phase_8,3,5,80,127,3287179576
29,14,15,Jits_Phase_8,0,5,63,98,3287819596
29,14,15,Jits_Phase_8,1,5,80,127,3287840052
29,14,15,Jits_Phase_8,2,1,48,52,3287845364
29,14,15,Jits_Phase_8,3,5,56,103,3287850340
29,14,15,Jits_Phase_8,0,1,48,48,3288546772
29,14,15,Jits_Phase_8,1,5,63,98,3288620332
29,14,15,Jits_Phase_8,2,5,80,127,3288623920
29,14,15,Jits_Phase_8,3,5,56,103,3288660328
29,14,15,Jits_Phase_8,0,1,48,62,3289358368
29,14,15,Jits_Phase_8,1,5,63,98,3289489808
29,14,15,Jits_Phase_8,2,5,80,127,3289519484
29,14,15,Jits_Phase_8,3,5,56,103,3289529904
29,14,15,Jits_Phase_8,0,1,48,49,3290180628
29,14,15,Jits_Phase_8,1,5,56,103,3290240360
29,14,15,Jits_Phase_8,2,5,80,127,3290270184
29,14,15,Jits_Phase_8,3,5,63,98,3290299844
29,14,15,Jits_Phase_8,0,1,48,46,3291014608
29,14,15,Jits_Phase_8,1,5,63,98,3291139524
29,14,15,Jits_Phase_8,2,5,56,103,3291180384
29,14,15,Jits_Phase_8,3,5,80,127,3291183452
29,14,15,Jits_Phase_8,0,5,80,127,3291839956
29,14,15,Jits_Phase_8,1,1,48,65,3291906448
29,14,15,Jits_Phase_8,2,5,56,103,3291919892
29,14,15,Jits_Phase_8,3,5,63,98,3291969896
29,14,15,Jits_Phase_8,0,5,80,127,3292620104
29,14,15,Jits_Phase_8,1,5,56,103,3292639588
29,14,15,Jits_Phase_8,2,1,48,47,3292695968
29,14,15,Jits_Phase_8,3,5,63,98,3292729812
29,14,15,Jits_Phase_8,0,1,48,50,3293451752
29,14,15,Jits_Phase_8,1,5,80,127,3293459944
29,14,15,Jits_Phase_8,2,5,63,98,3293499836
29,14,15,Jits_Phase_8,3,5,56,103,3293539920
29,14,15,Jits_Phase_8,0,5,63,98,3294269776
29,14,15,Jits_Phase_8,1,1,48,60,3294293944
29,14,15,Jits_Phase_8,2,5,80,127,3294330312
29,14,15,Jits_Phase_8,3,5,56,103,3294359836
29,14,15,Jits_Phase_8,0,1,48,52,3295088904
29,14,15,Jits_Phase_8,1,5,56,103,3295109676
29,14,15,Jits_Phase_8,2,5,80,127,3295140324
29,14,15,Jits_Phase_8,3,5,63,98,3295230292
29,14,15,Jits_Phase_8,0,5,56,103,3295919556
29,14,15,Jits_Phase_8,1,1,48,40,3296008764
29,14,15,Jits_Phase_8,2,5,80,127,3296030060
29,14,15,Jits_Phase_8,3,5,63,98,3296059836
29,14,15,Jits_Phase_8,0,1,48,64,3296764472
29,14,15,Jits_Phase_8,1,5,56,103,3296770572
29,14,15,Jits_Phase_8,2,5,63,98,3296829720
29,14,15,Jits_Phase_8,3,5,80,127,3296859544
29,14,15,Jits_Phase_8,0,5,56,103,3297539628
29,14,15,Jits_Phase_8,1,1,48,54,3297567684
29,14,15,Jits_Phase_8,2,5,63,98,3297610080
29,14,15,Jits_Phase_8,3,5,80,127,3297629716
29,14,15,Jits_Phase_8,0,5,80,127,3298309436
29,14,15,Jits_Phase_8,1,1,48,37,3298314720
29,14,15,Jits_Phase_8,2,5,63,98,3298329888
29,14,15,Jits_Phase_8,3,5,56,103,3298380260
29,14,15,Jits_Phase_8,0,1,48,65,3299080168
29,14,15,Jits_Phase_8,1,5,63,98,3299129600
29,14,15,Jits_Phase_8,2,5,80,127,3299140016
29,14,15,Jits_Phase_8,3,5,56,103,3299190352
29,14,15,Jits_Phase_8,0,1,48,51,3299853552
29,14,15,Jits_Phase_8,1,5,63,98,3299929352
29,14,15,Jits_Phase_8,2,5,80,127,3300000436
29,14,15,Jits_Phase_8,3,5,56,103,3300019480
29,14,15,Jits_Phase_8,0,1,48,45,3300705844
29,14,15,Jits_Phase_8,1,5,63,98,3300759968
29,14,15,Jits_Phase_8,2,5,80,127,3300763332
29,14,15,Jits_Phase_8,3,5,56,103,3300829484
29,14,15,Jits_Phase_8,0,5,80,127,3301509456
29,14,15,Jits_Phase_8,1,1,48,57,3301517828
29,14,15,Jits_Phase_8,2,5,56,103,3301529908
29,14,15,Jits_Phase_8,3,5,63,98,3301540476
29,14,15,Jits_Phase_8,0,1,48,52,3302286924
29,14,15,Jits_Phase_8,1,5,56,103,3302329668
29,14,15,Jits_Phase_8,2,5,63,98,3302419788
29,14,15,Jits_Phase_8,3,5,80,127,3302423152
29,14,15,Jits_Phase_8,0,5,80,127,3303099684
29,14,15,Jits_Phase_8,1,1,48,54,3303104296
29,14,15,Jits_Phase_8,2,5,56,103,3303109948
29,14,15,Jits_Phase_8,3,5,63,98,3303129360
29,14,15,Jits_Phase_8,0,5,63,98,3303899592
29,14,15,Jits_Phase_8,1,1,48,66,3303930808
29,14,15,Jits_Phase_8,2,5,80,127,3303959904
29,14,15,Jits_Phase_8,3,5,56,103,3303970124
29,14,15,Jits_Phase_8,0,1,48,54,3304667704
29,14,15,Jits_Phase_8,1,5,63,98,3304770000
29,14,15,Jits_Phase_8,2,5,80,127,3304799452
29,14,15,Jits_Phase_8,3,5,56,103,3304839464
29,14,15,Jits_Phase_8,0,1,48,52,3305536700
29,14,15,Jits_Phase_8,1,5,56,103,3305560556
29,14,15,Jits_Phase_8,2,5,80,127,3305569632
29,14,15,Jits_Phase_8,3,5,63,98,3305609576
29,14,15,Jits_Phase_8,0,5,80,127,3306320240
29,14,15,Jits_Phase_8,1,1,48,70,3306326500
29,14,15,Jits_Phase_8,2,5,56,103,3306400104
29,14,15,Jits_Phase_8,3,5,63,98,3306410528
29,14,15,Jits_Phase_8,0,5,80,127,3307170204
29,14,15,Jits_Phase_8,1,1,48,40,3307191684
29,14,15,Jits_Phase_8,2,5,56,103,3307250072
29,14,15,Jits_Phase_8,3,5,63,98,3307260268
29,14,15,Jits_Phase_8,0,1,48,56,3308006132
29,14,15,Jits_Phase_8,1,5,80,127,3308009916
29,14,15,Jits_Phase_8,2,5,56,103,3308059968
29,14,15,Jits_Phase_8,3,5,63,98,3308110328
29,14,15,Jits_Phase_8,0,1,48,69,3308868332
29,14,15,Jits_Phase_8,1,5,56,103,3308950088
29,14,15,Jits_Phase_8,2,5,63,98,3308952932
29,14,15,Jits_Phase_8,3,5,80,127,3308999976
29,14,15,Jits_Phase_8,0,1,48,58,3309713848
29,14,15,Jits_Phase_8,1,5,56,103,3309770068
29,14,15,Jits_Phase_8,2,5,63,98,3309799892
29,14,15,Jits_Phase_8,3,5,80,127,3309810092
29,14,15,Jits_Phase_8,0,5,63,98,3310479860
29,14,15,Jits_Phase_8,1,1,48,51,3310543512
29,14,15,Jits_Phase_8,2,5,56,103,3310550508
29,14,15,Jits_Phase_8,3,5,80,127,3310599588
29,14,15,Jits_Phase_8,0,1,48,54,3311178592
29,14,15,Jits_Phase_8,1,5,63,98,3311310168
29,14,15,Jits_Phase_8,2,5,56,103,3311320360
29,14,15,Jits_Phase_8,3,5,80,127,3311323428
29,14,15,Jits_Phase_8,0,1,48,48,3312045388
29,14,15,Jits_Phase_8,1,5,80,127,3312059728
29,14,15,Jits_Phase_8,2,5,56,103,3312120124
29,14,15,Jits_Phase_8,3,5,63,98,3312210260
29,14,15,Jits_Phase_8,0,5,80,127,3312859792
29,14,15,Jits_Phase_8,1,1,48,41,3312930892
29,14,15,Jits_Phase_8,2,5,56,103,3312959836
29,14,15,Jits_Phase_8,3,5,63,98,3312999772
29,14,15,Jits_Phase_8,0,5,56,103,3313709340
29,14,15,Jits_Phase_8,1,5,63,98,3313730024
29,14,15,Jits_Phase_8,2,1,48,60,3313731360
29,14,15,Jits_Phase_8,3,5,80,127,3313770028
29,14,15,Jits_Phase_8,0,5,63,98,3314479444
29,14,15,Jits_Phase_8,1,5,56,103,3314499904
29,14,15,Jits_Phase_8,2,1,48,53,3314504816
29,14,15,Jits_Phase_8,3,5,80,127,3314600440
29,14,15,Jits_Phase_8,0,1,48,66,3315223024
29,14,15,Jits_Phase_8,1,5,63,98,3315269904
29,14,15,Jits_Phase_8,2,5,80,127,3315379800
29,14,15,Jits_Phase_8,3,5,56,103,3315410152
29,14,15,Jits_Phase_8,0,1,48,49,3316027760
29,14,15,Jits_Phase_8,1,5,56,103,3316090336
29,14,15,Jits_Phase_8,2,5,63,98,3316119792
29,14,15,Jits_Phase_8,3,5,80,127,3316170052
29,14,15,Jits_Phase_8,0,1,48,69,3316839948
29,14,15,Jits_Phase_8,1,5,63,98,3316860128
29,14,15,Jits_Phase_8,2,5,56,103,3316889952
29,14,15,Jits_Phase_8,3,5,80,127,3316940064
29,14,15,Jits_Phase_8,0,1,48,45,3317638804
29,14,15,Jits_Phase_8,1,5,56,103,3317689848
29,14,15,Jits_Phase_8,2,5,63,98,3317710160
29,14,15,Jits_Phase_8,3,5,80,127,3317790012
29,14,15,Jits_Phase_8,0,5,63,98,3318459720
29,14,15,Jits_Phase_8,1,1,48,63,3318493776
29,14,15,Jits_Phase_8,2,5,56,103,3318520252
29,14,15,Jits_Phase_8,3,5,80,127,3318549852
29,14,15,Jits_Phase_8,0,1,48,38,3319235528
29,14,15,Jits_Phase_8,1,5,56,103,3319299548
29,14,15,Jits_Phase_8,2,5,80,127,3319359800
29,14,15,Jits_Phase_8,3,5,63,98,3319399740
29,14,15,Jits_Phase_8,0,5,63,98,3320079760
29,14,15,Jits_Phase_8,1,1,48,66,3320100292
29,14,15,Jits_Phase_8,2,5,56,103,3320140024
29,14,15,Jits_Phase_8,3,5,80,127,3320209688
29,14,15,Jits_Phase_8,0,1,48,57,3320809516
29,14,15,Jits_Phase_8,1,5,56,103,3320960588
29,14,15,Jits_Phase_8,2,5,63,98,3320969512
29,14,15,Jits_Phase_8,3,5,80,127,3320972724
29,14,15,Jits_Phase_8,0,1,48,44,3321679120
29,14,15,Jits_Phase_8,1,5,63,98,3321699672
29,14,15,Jits_Phase_8,2,5,56,103,3321760136
29,14,15,Jits_Phase_8,3,5,80,127,3321763348
29,14,15,Jits_Phase_8,0,1,48,57,3322439600
29,14,15,Jits_Phase_8,1,5,63,98,3322480008
29,14,15,Jits_Phase_8,2,5,80,127,3322509608
29,14,15,Jits_Phase_8,3,5,56,103,3322530140
29,14,15,Jits_Phase_8,0,5,56,103,3323210168
29,14,15,Jits_Phase_8,1,5,63,98,3323260372
29,14,15,Jits_Phase_8,2,1,48,51,3323268740
29,14,15,Jits_Phase_8,3,5,80,127,3323340080
29,14,15,Jits_Phase_8,0,5,80,127,3323909460
29,14,15,Jits_Phase_8,1,5,63,98,3323949500
29,14,15,Jits_Phase_8,2,5,56,103,3323969884
29,14,15,Jits_Phase_8,3,1,48,38,3324018404
29,14,15,Jits_Phase_8,0,1,48,56,3324632400
29,14,15,Jits_Phase_8,1,5,56,103,3324779884
29,14,15,Jits_Phase_8,2,5,80,127,3324790300
29,14,15,Jits_Phase_8,3,5,63,98,3324809564
29,14,15,Jits_Phase_8,0,1,48,50,3325465796
29,14,15,Jits_Phase_8,1,5,56,103,3325560460
29,14,15,Jits_Phase_8,2,5,63,98,3325610440
29,14,15,Jits_Phase_8,3,5,80,127,3325640264
29,14,15,Jits_Phase_8,0,1,48,43,3326297580
29,14,15,Jits_Phase_8,1,5,56,103,3326309812
29,14,15,Jits_Phase_8,2,5,63,98,3326320156
29,14,15,Jits_Phase_8,3,5,80,127,3326370284
29,14,15,Jits_Phase_8,0,1,48,54,3326995552
29,14,15,Jits_Phase_8,1,5,56,103,3327100332
29,14,15,Jits_Phase_8,2,5,80,127,3327103328
29,14,15,Jits_Phase_8,3,5,63,98,3327260136
29,14,15,Jits_Phase_8,0,5,63,98,3327919436
29,14,15,Jits_Phase_8,1,5,56,103,3327990164
29,14,15,Jits_Phase_8,2,1,48,52,3328022952
29,14,15,Jits_Phase_8,3,5,80,127,3328030268
29,14,15,Jits_Phase_8,0,1,48,55,3328699608
29,14,15,Jits_Phase_8,1,5,63,98,3328760392
29,14,15,Jits_Phase_8,2,5,56,103,3328850156
29,14,15,Jits_Phase_8,3,5,80,127,3328853376
29,14,15,Jits_Phase_8,0,5,56,103,3329539548
29,14,15,Jits_Phase_8,1,1,48,34,3329544688
29,14,15,Jits_Phase_8,2,5,63,98,3329629480
29,14,15,Jits_Phase_8,3,5,80,127,3329639900
29,14,15,Jits_Phase_8,0,5,56,103,3330309432
29,14,15,Jits_Phase_8,1,1,48,57,3330341048
29,14,15,Jits_Phase_8,2,5,63,98,3330359728
29,14,15,Jits_Phase_8,3,5,80,127,3330390372
29,14,15,Jits_Phase_8,0,1,48,55,3331058296
29,14,15,Jits_Phase_8,1,5,63,98,3331190264
29,14,15,Jits_Phase_8,2,5,80,127,3331200316
29,14,15,Jits_Phase_8,3,5,56,103,3331260028
29,14,15,Jits_Phase_8,0,1,48,57,3331860536
29,14,15,Jits_Phase_8,1,5,63,98,3331910104
29,14,15,Jits_Phase_8,2,5,80,127,3331970480
29,14,15,Jits_Phase_8,3,5,56,103,3332010348
29,14,15,Jits_Phase_8,0,1,48,48,3332682108
29,14,15,Jits_Phase_8,1,5,56,103,3332810088
29,14,15,Jits_Phase_8,2,5,80,127,3332829576
29,14,15,Jits_Phase_8,3,5,63,98,3332850036
29,14,15,Jits_Phase_8,0,5,63,98,3333529932
29,14,15,Jits_Phase_8,1,1,48,60,3333540844
29,14,15,Jits_Phase_8,2,5,56,103,3333549560
29,14,15,Jits_Phase_8,3,5,80,127,3333590396
29,14,15,Jits_Phase_8,0,1,48,54,3334260352
29,14,15,Jits_Phase_8,1,5,63,98,3334340092
29,14,15,Jits_Phase_8,2,5,80,127,3334369828
29,14,15,Jits_Phase_8,3,5,56,103,3334390064
29,14,15,Jits_Phase_8,0,1,48,61,3335103788
29,14,15,Jits_Phase_8,1,5,80,127,3335109960
29,14,15,Jits_Phase_8,2,5,56,103,3335160160
29,14,15,Jits_Phase_8,3,5,63,98,3335219712
29,14,15,Jits_Phase_8,0,5,63,98,3335899436
29,14,15,Jits_Phase_8,1,1,48,48,3335940168
29,14,15,Jits_Phase_8,2,5,56,103,3336020376
29,14,15,Jits_Phase_8,3,5,80,127,3336049964
29,14,15,Jits_Phase_8,0,1,48,56,3336662372
29,14,15,Jits_Phase_8,1,5,80,127,3336740192
29,14,15,Jits_Phase_8,2,5,63,98,3336759756
29,14,15,Jits_Phase_8,3,5,56,103,3336830464
29,14,15,Jits_Phase_8,0,1,48,61,3337512500
29,14,15,Jits_Phase_8,1,5,63,98,3337560404
29,14,15,Jits_Phase_8,2,5,56,103,3337569852
29,14,15,Jits_Phase_8,3,5,80,127,3337649484
29,14,15,Jits_Phase_8,0,1,48,49,3338299608
29,14,15,Jits_Phase_8,1,5,56,103,3338419792
29,14,15,Jits_Phase_8,2,5,80,127,3338450216
29,14,15,Jits_Phase_8,3,5,63,98,3338459736
29,14,15,Jits_Phase_8,0,9999,9999,9999,3203577912
29,14,15,Jits_Phase_8,1,9999,9999,9999,3204377708
29,14,15,Jits_Phase_8,2,9999,9999,9999,3205177448
29,14,15,Jits_Phase_8,3,9999,9999,9999,3205977216
29,14,15,Jits_Phase_8,4,9999,9999,9999,3206777952
29,14,15,Jits_Phase_8,5,9999,9999,9999,3207577716
29,14,15,Jits_Phase_8,6,9999,9999,9999,3208377472
29,14,15,Jits_Phase_8,7,9999,9999,9999,3209177172
29,14,15,Jits_Phase_8,8,9999,9999,9999,3209977920
29,14,15,Jits_Phase_8,9,9999,9999,9999,3210777664
29,14,15,Jits_Phase_8,10,9999,9999,9999,3211577468
29,14,15,Jits_Phase_8,11,9999,9999,9999,3212377156
29,14,15,Jits_Phase_8,12,9999,9999,9999,3213177964
29,14,15,Jits_Phase_8,13,9999,9999,9999,3213977720
29,14,15,Jits_Phase_8,14,9999,9999,9999,3214777464
29,14,15,Jits_Phase_8,15,9999,9999,9999,3215577212
29,14,15,Jits_Phase_8,16,9999,9999,9999,3216377928
29,14,15,Jits_Phase_8,17,9999,9999,9999,3217177692
29,14,15,Jits_Phase_8,18,9999,9999,9999,3217977404
29,14,15,Jits_Phase_8,19,9999,9999,9999,3218777164
29,14,15,Jits_Phase_8,20,9999,9999,9999,3219577964
29,14,15,Jits_Phase_8,21,9999,9999,9999,3220377724
29,14,15,Jits_Phase_8,22,9999,9999,9999,3221177400
29,14,15,Jits_Phase_8,23,9999,9999,9999,3221977156
29,14,15,Jits_Phase_8,24,9999,9999,9999,3222777960
29,14,15,Jits_Phase_8,25,9999,9999,9999,3223577716
29,14,15,Jits_Phase_8,26,9999,9999,9999,3224377428
29,14,15,Jits_Phase_8,27,9999,9999,9999,3225177188
29,14,15,Jits_Phase_8,28,9999,9999,9999,3225977980
29,14,15,Jits_Phase_8,29,9999,9999,9999,3226777688
29,14,15,Jits_Phase_8,30,9999,9999,9999,3227557964
29,14,15,Jits_Phase_8,31,9999,9999,9999,3228357724
29,14,15,Jits_Phase_8,32,9999,9999,9999,3229157496
29,14,15,Jits_Phase_8,33,9999,9999,9999,3229957188
29,14,15,Jits_Phase_8,34,9999,9999,9999,3230757956
29,14,15,Jits_Phase_8,35,9999,9999,9999,3231557724
29,14,15,Jits_Phase_8,36,9999,9999,9999,3232357488
29,14,15,Jits_Phase_8,37,9999,9999,9999,3233157176
29,14,15,Jits_Phase_8,38,9999,9999,9999,3233957992
29,14,15,Jits_Phase_8,39,9999,9999,9999,3234757696
29,14,15,Jits_Phase_8,40,9999,9999,9999,3235557456
29,14,15,Jits_Phase_8,41,9999,9999,9999,3236357232
29,14,15,Jits_Phase_8,42,9999,9999,9999,3237157980
29,14,15,Jits_Phase_8,43,9999,9999,9999,3237957728
29,14,15,Jits_Phase_8,44,9999,9999,9999,3238757472
29,14,15,Jits_Phase_8,45,9999,9999,9999,3239557232
29,14,15,Jits_Phase_8,46,9999,9999,9999,3240357964
29,14,15,Jits_Phase_8,47,9999,9999,9999,3241157732
29,14,15,Jits_Phase_8,48,9999,9999,9999,3241977956
29,14,15,Jits_Phase_8,49,9999,9999,9999,3242777728
29,14,15,Jits_Phase_8,50,9999,9999,9999,3243577436
29,14,15,Jits_Phase_8,51,9999,9999,9999,3244377192
29,14,15,Jits_Phase_8,52,9999,9999,9999,3245177940
29,14,15,Jits_Phase_8,53,9999,9999,9999,3245977720
29,14,15,Jits_Phase_8,54,9999,9999,9999,3246777416
29,14,15,Jits_Phase_8,55,9999,9999,9999,3247577188
29,14,15,Jits_Phase_8,56,9999,9999,9999,3248377916
29,14,15,Jits_Phase_8,57,9999,9999,9999,3249177676
29,14,15,Jits_Phase_8,58,9999,9999,9999,3249977468
29,14,15,Jits_Phase_8,59,9999,9999,9999,3250777152
29,14,15,Jits_Phase_8,60,9999,9999,9999,3251577956
29,14,15,Jits_Phase_8,61,9999,9999,9999,3252377720
29,14,15,Jits_Phase_8,62,9999,9999,9999,3253177472
29,14,15,Jits_Phase_8,63,9999,9999,9999,3253977144
29,14,15,Jits_Phase_8,64,9999,9999,9999,3254817888
29,14,15,Jits_Phase_8,65,9999,9999,9999,3255617600
29,14,15,Jits_Phase_8,66,9999,9999,9999,3256417364
29,14,15,Jits_Phase_8,67,9999,9999,9999,3257217132
29,14,15,Jits_Phase_8,68,9999,9999,9999,3258017848
29,14,15,Jits_Phase_8,69,9999,9999,9999,3258817624
29,14,15,Jits_Phase_8,70,9999,9999,9999,3259617376
29,14,15,Jits_Phase_8,71,9999,9999,9999,3260417144
29,14,15,Jits_Phase_8,72,9999,9999,9999,3261217876
29,14,15,Jits_Phase_8,73,9999,9999,9999,3262017664
29,14,15,Jits_Phase_8,74,9999,9999,9999,3262817356
29,14,15,Jits_Phase_8,75,9999,9999,9999,3263617120
29,14,15,Jits_Phase_8,76,9999,9999,9999,3264417848
29,14,15,Jits_Phase_8,77,9999,9999,9999,3265217612
29,14,15,Jits_Phase_8,78,9999,9999,9999,3266017364
29,14,15,Jits_Phase_8,79,9999,9999,9999,3266817136
29,14,15,Jits_Phase_8,80,9999,9999,9999,3267617868
29,14,15,Jits_Phase_8,81,9999,9999,9999,3268377696
29,14,15,Jits_Phase_8,82,9999,9999,9999,3269177404
29,14,15,Jits_Phase_8,83,9999,9999,9999,3269977156
29,14,15,Jits_Phase_8,84,9999,9999,9999,3270777956
29,14,15,Jits_Phase_8,85,9999,9999,9999,3271577656
29,14,15,Jits_Phase_8,86,9999,9999,9999,3272377432
29,14,15,Jits_Phase_8,87,9999,9999,9999,3273177188
29,14,15,Jits_Phase_8,88,9999,9999,9999,3273977916
29,14,15,Jits_Phase_8,89,9999,9999,9999,3274777684
29,14,15,Jits_Phase_8,90,9999,9999,9999,3275577472
29,14,15,Jits_Phase_8,91,9999,9999,9999,3276377152
29,14,15,Jits_Phase_8,92,9999,9999,9999,3277177980
29,14,15,Jits_Phase_8,93,9999,9999,9999,3277977664
29,14,15,Jits_Phase_8,94,9999,9999,9999,3278777420
29,14,15,Jits_Phase_8,95,9999,9999,9999,3279577172
29,14,15,Jits_Phase_8,96,9999,9999,9999,3280377916
29,14,15,Jits_Phase_8,97,9999,9999,9999,3281097812
29,14,15,Jits_Phase_8,98,9999,9999,9999,3281897588
29,14,15,Jits_Phase_8,99,9999,9999,9999,3282697276
29,14,15,Jits_Phase_8,100,9999,9999,9999,3283498108
29,14,15,Jits_Phase_8,101,9999,9999,9999,3284297792
29,14,15,Jits_Phase_8,102,9999,9999,9999,3285097544
29,14,15,Jits_Phase_8,103,9999,9999,9999,3285897300
29,14,15,Jits_Phase_8,104,9999,9999,9999,3286698104
29,14,15,Jits_Phase_8,105,9999,9999,9999,3287497792
29,14,15,Jits_Phase_8,106,9999,9999,9999,3288297540
29,14,15,Jits_Phase_8,107,9999,9999,9999,3289097284
29,14,15,Jits_Phase_8,108,9999,9999,9999,3289898040
29,14,15,Jits_Phase_8,109,9999,9999,9999,3290697792
29,14,15,Jits_Phase_8,110,9999,9999,9999,3291497552
29,14,15,Jits_Phase_8,111,9999,9999,9999,3292297312
29,14,15,Jits_Phase_8,112,9999,9999,9999,3293098056
29,14,15,Jits_Phase_8,113,9999,9999,9999,3293897828
29,14,15,Jits_Phase_8,114,9999,9999,9999,3294777472
29,14,15,Jits_Phase_8,115,9999,9999,9999,3295577152
29,14,15,Jits_Phase_8,116,9999,9999,9999,3296377960
29,14,15,Jits_Phase_8,117,9999,9999,9999,3297177668
29,14,15,Jits_Phase_8,118,9999,9999,9999,3297977432
29,14,15,Jits_Phase_8,119,9999,9999,9999,3298777196
29,14,15,Jits_Phase_8,120,9999,9999,9999,3299577936
29,14,15,Jits_Phase_8,121,9999,9999,9999,3300377696
29,14,15,Jits_Phase_8,122,9999,9999,9999,3301177468
29,14,15,Jits_Phase_8,123,9999,9999,9999,3301977216
29,14,15,Jits_Phase_8,124,9999,9999,9999,3302777956
29,14,15,Jits_Phase_8,125,9999,9999,9999,3303577704
29,14,15,Jits_Phase_8,126,9999,9999,9999,3304377472
29,14,15,Jits_Phase_8,127,9999,9999,9999,3305177160
29,14,15,Jits_Phase_8,128,9999,9999,9999,3305977964
29,14,15,Jits_Phase_8,129,9999,9999,9999,3306777720
29,14,15,Jits_Phase_8,130,9999,9999,9999,3307577444
29,14,15,Jits_Phase_8,131,9999,9999,9999,3308537916
29,14,15,Jits_Phase_8,132,9999,9999,9999,3309337672
29,14,15,Jits_Phase_8,133,9999,9999,9999,3310137456
29,14,15,Jits_Phase_8,134,9999,9999,9999,3310937216
29,14,15,Jits_Phase_8,135,9999,9999,9999,3311737936
29,14,15,Jits_Phase_8,136,9999,9999,9999,3312537692
29,14,15,Jits_Phase_8,137,9999,9999,9999,3313337452
29,14,15,Jits_Phase_8,138,9999,9999,9999,3314137152
29,14,15,Jits_Phase_8,139,9999,9999,9999,3314937968
29,14,15,Jits_Phase_8,140,9999,9999,9999,3315737656
29,14,15,Jits_Phase_8,141,9999,9999,9999,3316537432
29,14,15,Jits_Phase_8,142,9999,9999,9999,3317337188
29,14,15,Jits_Phase_8,143,9999,9999,9999,3318137916
29,14,15,Jits_Phase_8,144,9999,9999,9999,3318937668
29,14,15,Jits_Phase_8,145,9999,9999,9999,3319737432
29,14,15,Jits_Phase_8,146,9999,9999,9999,3320537192
29,14,15,Jits_Phase_8,147,9999,9999,9999,3321337916
29,14,15,Jits_Phase_8,148,9999,9999,9999,3322137668
29,14,15,Jits_Phase_8,149,9999,9999,9999,3322937440
29,14,15,Jits_Phase_8,150,9999,9999,9999,3323577452
29,14,15,Jits_Phase_8,151,9999,9999,9999,3324377148
29,14,15,Jits_Phase_8,152,9999,9999,9999,3325177972
29,14,15,Jits_Phase_8,153,9999,9999,9999,3325977660
29,14,15,Jits_Phase_8,154,9999,9999,9999,3326777432
29,14,15,Jits_Phase_8,155,9999,9999,9999,3327577180
29,14,15,Jits_Phase_8,156,9999,9999,9999,3328377984
29,14,15,Jits_Phase_8,157,9999,9999,9999,3329177668
29,14,15,Jits_Phase_8,158,9999,9999,9999,3329977428
29,14,15,Jits_Phase_8,159,9999,9999,9999,3330777196
29,14,15,Jits_Phase_8,160,9999,9999,9999,3331577948
29,14,15,Jits_Phase_8,161,9999,9999,9999,3332377704
29,14,15,Jits_Phase_8,162,9999,9999,9999,3333177416
29,14,15,Jits_Phase_8,163,9999,9999,9999,3333977168
29,14,15,Jits_Phase_8,164,9999,9999,9999,3334777972
29,14,15,Jits_Phase_8,165,9999,9999,9999,3335577708
29,14,15,Jits_Phase_8,166,9999,9999,9999,3336377468
29,14,15,Jits_Phase_8,167,9999,9999,9999,3337177152
29,14,15,Jits_Phase_8,168,9999,9999,9999,3337977960
29,14,15,Jits_Phase_8,169,9999,9999,9999,3338777656
29,15,17,Jits_Phase_5,0,5,56,103,3364389180
29,15,17,Jits_Phase_5,1,5,63,98,3364392504
29,15,17,Jits_Phase_5,2,5,80,127,3364395548
29,15,17,Jits_Phase_5,0,5,56,103,3364888784
29,15,17,Jits_Phase_5,1,5,63,98,3364891960
29,15,17,Jits_Phase_5,2,5,80,127,3364895380
29,15,17,Jits_Phase_5,0,5,56,103,3365388712
29,15,17,Jits_Phase_5,1,5,80,127,3365398760
29,15,17,Jits_Phase_5,2,5,63,98,3365419540
29,15,17,Jits_Phase_5,3,1,48,49,3365485876
29,15,17,Jits_Phase_5,0,5,63,98,3365839328
29,15,17,Jits_Phase_5,1,5,80,127,3365868932
29,15,17,Jits_Phase_5,2,5,56,103,3365879276
29,15,17,Jits_Phase_5,3,1,48,56,3365971560
29,15,17,Jits_Phase_5,0,5,80,127,3366399608
29,15,17,Jits_Phase_5,1,1,48,50,3366406716
29,15,17,Jits_Phase_5,2,5,56,103,3366408528
29,15,17,Jits_Phase_5,3,5,63,98,3366439496
29,15,17,Jits_Phase_5,0,5,63,98,3366888820
29,15,17,Jits_Phase_5,1,1,48,58,3366897636
29,15,17,Jits_Phase_5,2,5,56,103,3366918488
29,15,17,Jits_Phase_5,3,5,80,127,3366928684
29,15,17,Jits_Phase_5,0,5,56,103,3367339572
29,15,17,Jits_Phase_5,1,1,48,55,3367385012
29,15,17,Jits_Phase_5,2,5,63,98,3367388568
29,15,17,Jits_Phase_5,3,5,80,127,3367408876
29,15,17,Jits_Phase_5,0,5,80,127,3367839032
29,15,17,Jits_Phase_5,1,1,48,60,3367842448
29,15,17,Jits_Phase_5,2,5,63,98,3367889448
29,15,17,Jits_Phase_5,3,5,56,103,3367929460
29,15,17,Jits_Phase_5,0,1,48,60,3368322800
29,15,17,Jits_Phase_5,1,5,56,103,3368338788
29,15,17,Jits_Phase_5,2,5,63,98,3368368464
29,15,17,Jits_Phase_5,3,5,80,127,3368439100
29,15,17,Jits_Phase_5,0,1,48,56,3368803220
29,15,17,Jits_Phase_5,1,5,56,103,3368838468
29,15,17,Jits_Phase_5,2,5,80,127,3368898780
29,15,17,Jits_Phase_5,3,5,63,98,3368928664
29,15,17,Jits_Phase_5,0,1,48,70,3369341776
29,15,17,Jits_Phase_5,1,5,56,103,3369348404
29,15,17,Jits_Phase_5,2,5,63,98,3369358600
29,15,17,Jits_Phase_5,3,5,80,127,3369398608
29,15,17,Jits_Phase_5,0,1,48,64,3369821144
29,15,17,Jits_Phase_5,1,5,63,98,3369839156
29,15,17,Jits_Phase_5,2,5,80,127,3369918784
29,15,17,Jits_Phase_5,3,5,56,103,3369929204
29,15,17,Jits_Phase_5,0,1,48,59,3370327944
29,15,17,Jits_Phase_5,1,5,63,98,3370388804
29,15,17,Jits_Phase_5,2,5,56,103,3370428644
29,15,17,Jits_Phase_5,3,5,80,127,3370431864
29,15,17,Jits_Phase_5,0,1,48,67,3370829408
29,15,17,Jits_Phase_5,1,5,56,103,3370848540
29,15,17,Jits_Phase_5,2,5,63,98,3370858812
29,15,17,Jits_Phase_5,3,5,80,127,3370898820
29,15,17,Jits_Phase_5,0,1,48,59,3371322484
29,15,17,Jits_Phase_5,1,5,56,103,3371339292
29,15,17,Jits_Phase_5,2,5,63,98,3371342284
29,15,17,Jits_Phase_5,3,5,80,127,3371358704
29,15,17,Jits_Phase_5,0,1,48,60,3371822368
29,15,17,Jits_Phase_5,1,5,80,127,3371849064
29,15,17,Jits_Phase_5,2,5,56,103,3371859260
29,15,17,Jits_Phase_5,3,5,63,98,3371929072
29,15,17,Jits_Phase_5,0,1,48,56,3372300740
29,15,17,Jits_Phase_5,1,5,63,98,3372338400
29,15,17,Jits_Phase_5,2,5,56,103,3372359232
29,15,17,Jits_Phase_5,3,5,80,127,3372438932
29,15,17,Jits_Phase_5,0,1,48,62,3372798168
29,15,17,Jits_Phase_5,1,5,56,103,3372848564
29,15,17,Jits_Phase_5,2,5,80,127,3372888500
29,15,17,Jits_Phase_5,3,5,63,98,3372898608
29,15,17,Jits_Phase_5,0,1,48,55,3373295060
29,15,17,Jits_Phase_5,1,5,80,127,3373339020
29,15,17,Jits_Phase_5,2,5,63,98,3373368620
29,15,17,Jits_Phase_5,3,5,56,103,3373408616
29,15,17,Jits_Phase_5,0,1,48,54,3373791444
29,15,17,Jits_Phase_5,1,5,56,103,3373859220
29,15,17,Jits_Phase_5,2,5,63,98,3373889044
29,15,17,Jits_Phase_5,3,5,80,127,3373939228
29,15,17,Jits_Phase_5,0,1,48,57,3374292016
29,15,17,Jits_Phase_5,1,5,80,127,3374358872
29,15,17,Jits_Phase_5,2,5,56,103,3374398968
29,15,17,Jits_Phase_5,3,5,63,98,3374409164
29,15,17,Jits_Phase_5,0,1,48,56,3374817620
29,15,17,Jits_Phase_5,1,5,80,127,3374839140
29,15,17,Jits_Phase_5,2,5,63,98,3374879176
29,15,17,Jits_Phase_5,3,5,56,103,3374938576
29,15,17,Jits_Phase_5,0,1,48,56,3375320952
29,15,17,Jits_Phase_5,1,5,56,103,3375338964
29,15,17,Jits_Phase_5,2,5,80,127,3375349308
29,15,17,Jits_Phase_5,3,5,63,98,3375429256
29,15,17,Jits_Phase_5,0,5,80,127,3375838560
29,15,17,Jits_Phase_5,1,1,48,55,3375840572
29,15,17,Jits_Phase_5,2,5,63,98,3375898896
29,15,17,Jits_Phase_5,3,5,56,103,3375928792
29,15,17,Jits_Phase_5,0,1,48,70,3376327656
29,15,17,Jits_Phase_5,1,5,56,103,3376339292
29,15,17,Jits_Phase_5,2,5,80,127,3376398636
29,15,17,Jits_Phase_5,3,5,63,98,3376438732
29,15,17,Jits_Phase_5,0,1,48,56,3376835188
29,15,17,Jits_Phase_5,1,5,56,103,3376889092
29,15,17,Jits_Phase_5,2,5,63,98,3376898608
29,15,17,Jits_Phase_5,3,5,80,127,3376901896
29,15,17,Jits_Phase_5,0,1,48,54,3377332832
29,15,17,Jits_Phase_5,1,5,80,127,3377339152
29,15,17,Jits_Phase_5,2,5,63,98,3377430092
29,15,17,Jits_Phase_5,3,5,56,103,3377439116
29,15,17,Jits_Phase_5,0,1,48,62,3377826976
29,15,17,Jits_Phase_5,1,5,56,103,3377838440
29,15,17,Jits_Phase_5,2,5,63,98,3377841616
29,15,17,Jits_Phase_5,3,5,80,127,3377844960
29,15,17,Jits_Phase_5,0,1,48,59,3378303012
29,15,17,Jits_Phase_5,1,5,80,127,3378358856
29,15,17,Jits_Phase_5,2,5,63,98,3378408820
29,15,17,Jits_Phase_5,3,5,56,103,3378438644
29,15,17,Jits_Phase_5,0,5,56,103,3378838764
29,15,17,Jits_Phase_5,1,5,80,127,3378849256
29,15,17,Jits_Phase_5,2,1,48,57,3378881068
29,15,17,Jits_Phase_5,3,5,63,98,3378919004
29,15,17,Jits_Phase_5,0,1,48,52,3379343356
29,15,17,Jits_Phase_5,1,5,56,103,3379348712
29,15,17,Jits_Phase_5,2,5,63,98,3379369320
29,15,17,Jits_Phase_5,3,5,80,127,3379428880
29,15,17,Jits_Phase_5,0,1,48,66,3379821532
29,15,17,Jits_Phase_5,1,5,80,127,3379839468
29,15,17,Jits_Phase_5,2,5,63,98,3379908924
29,15,17,Jits_Phase_5,3,5,56,103,3379928544
29,15,17,Jits_Phase_5,0,1,48,60,3380345552
29,15,17,Jits_Phase_5,1,5,80,127,3380358624
29,15,17,Jits_Phase_5,2,5,56,103,3380368820
29,15,17,Jits_Phase_5,3,5,63,98,3380378940
29,15,17,Jits_Phase_5,0,1,48,72,3380820956
29,15,17,Jits_Phase_5,1,5,80,127,3380849008
29,15,17,Jits_Phase_5,2,5,56,103,3380868716
29,15,17,Jits_Phase_5,3,5,63,98,3380939052
29,15,17,Jits_Phase_5,0,1,48,62,3381352020
29,15,17,Jits_Phase_5,1,5,56,103,3381358944
29,15,17,Jits_Phase_5,2,5,80,127,3381388768
29,15,17,Jits_Phase_5,3,5,63,98,3381409152
29,15,17,Jits_Phase_5,0,5,63,98,3381848656
29,15,17,Jits_Phase_5,1,1,48,56,3381852072
29,15,17,Jits_Phase_5,2,5,56,103,3381908892
29,15,17,Jits_Phase_5,3,5,80,127,3381938640
29,15,17,Jits_Phase_5,0,5,63,98,3382338888
29,15,17,Jits_Phase_5,1,5,80,127,3382342176
29,15,17,Jits_Phase_5,2,1,48,46,3382354736
29,15,17,Jits_Phase_5,3,5,56,103,3382429084
29,15,17,Jits_Phase_5,0,1,48,58,3382821960
29,15,17,Jits_Phase_5,1,5,56,103,3382858996
29,15,17,Jits_Phase_5,2,5,63,98,3382888820
29,15,17,Jits_Phase_5,3,5,80,127,3382928668
29,15,17,Jits_Phase_5,0,1,48,63,3383317192
29,15,17,Jits_Phase_5,1,5,63,98,3383358972
29,15,17,Jits_Phase_5,2,5,56,103,3383398760
29,15,17,Jits_Phase_5,3,5,80,127,3383419204
29,15,17,Jits_Phase_5,0,1,48,62,3383826760
29,15,17,Jits_Phase_5,1,5,63,98,3383868836
29,15,17,Jits_Phase_5,2,5,56,103,3383908624
29,15,17,Jits_Phase_5,3,5,80,127,3383918820
29,15,17,Jits_Phase_5,0,1,48,50,3384322460
29,15,17,Jits_Phase_5,1,5,80,127,3384349108
29,15,17,Jits_Phase_5,2,5,63,98,3384418624
29,15,17,Jits_Phase_5,3,5,56,103,3384439084
29,15,17,Jits_Phase_5,0,5,56,103,3384838648
29,15,17,Jits_Phase_5,1,1,48,60,3384841092
29,15,17,Jits_Phase_5,2,5,80,127,3384858980
29,15,17,Jits_Phase_5,3,5,63,98,3384898916
29,15,17,Jits_Phase_5,0,1,48,56,3385336640
29,15,17,Jits_Phase_5,1,5,63,98,3385348592
29,15,17,Jits_Phase_5,2,5,80,127,3385369052
29,15,17,Jits_Phase_5,3,5,56,103,3385408840
29,15,17,Jits_Phase_5,0,1,48,53,3385841844
29,15,17,Jits_Phase_5,1,5,63,98,3385849212
29,15,17,Jits_Phase_5,2,5,56,103,3385868624
29,15,17,Jits_Phase_5,3,5,80,127,3385878748
29,15,17,Jits_Phase_5,0,1,48,51,3386331096
29,15,17,Jits_Phase_5,1,5,80,127,3386349032
29,15,17,Jits_Phase_5,2,5,56,103,3386369640
29,15,17,Jits_Phase_5,3,5,63,98,3386399040
29,15,17,Jits_Phase_5,0,1,48,60,3386796392
29,15,17,Jits_Phase_5,1,5,56,103,3386919588
29,15,17,Jits_Phase_5,2,5,80,127,3386922576
29,15,17,Jits_Phase_5,3,5,63,98,3386938624
29,15,17,Jits_Phase_5,0,5,63,98,3387339096
29,15,17,Jits_Phase_5,1,1,48,52,3387341108
29,15,17,Jits_Phase_5,2,5,56,103,3387368912
29,15,17,Jits_Phase_5,3,5,80,127,3387429248
29,15,17,Jits_Phase_5,0,1,48,81,3387844944
29,15,17,Jits_Phase_5,1,5,63,98,3387918700
29,15,17,Jits_Phase_5,2,5,56,103,3387928972
29,15,17,Jits_Phase_5,3,5,80,127,3387939464
29,15,17,Jits_Phase_5,0,1,48,52,3388334264
29,15,17,Jits_Phase_5,1,5,56,103,3388378648
29,15,17,Jits_Phase_5,2,5,80,127,3388409148
29,15,17,Jits_Phase_5,3,5,63,98,3388418592
29,15,17,Jits_Phase_5,0,1,48,58,3388792960
29,15,17,Jits_Phase_5,1,5,63,98,3388919288
29,15,17,Jits_Phase_5,2,5,56,103,3388929336
29,15,17,Jits_Phase_5,3,5,80,127,3388948820
29,15,17,Jits_Phase_5,0,1,48,52,3389314588
29,15,17,Jits_Phase_5,1,5,56,103,3389349232
29,15,17,Jits_Phase_5,2,5,63,98,3389408708
29,15,17,Jits_Phase_5,3,5,80,127,3389411920
29,15,17,Jits_Phase_5,0,1,48,58,3389857192
29,15,17,Jits_Phase_5,1,5,80,127,3389869348
29,15,17,Jits_Phase_5,2,5,56,103,3389878500
29,15,17,Jits_Phase_5,3,5,63,98,3389949372
29,15,17,Jits_Phase_5,0,1,48,52,3390347800
29,15,17,Jits_Phase_5,1,5,80,127,3390358832
29,15,17,Jits_Phase_5,2,5,56,103,3390428588
29,15,17,Jits_Phase_5,3,5,63,98,3390438788
29,15,17,Jits_Phase_5,0,1,48,66,3390816392
29,15,17,Jits_Phase_5,1,5,63,98,3390898668
29,15,17,Jits_Phase_5,2,5,56,103,3390909524
29,15,17,Jits_Phase_5,3,5,80,127,3390929384
29,15,17,Jits_Phase_5,0,1,48,55,3391319360
29,15,17,Jits_Phase_5,1,5,80,127,3391359612
29,15,17,Jits_Phase_5,2,5,63,98,3391418864
29,15,17,Jits_Phase_5,3,5,56,103,3391458800
29,15,17,Jits_Phase_5,0,1,48,65,3391860164
29,15,17,Jits_Phase_5,1,5,56,103,3391898852
29,15,17,Jits_Phase_5,2,5,63,98,3391909196
29,15,17,Jits_Phase_5,3,5,80,127,3391949356
29,15,17,Jits_Phase_5,0,5,56,103,3392358676
29,15,17,Jits_Phase_5,1,1,48,57,3392377456
29,15,17,Jits_Phase_5,2,5,80,127,3392388568
29,15,17,Jits_Phase_5,3,5,63,98,3392438616
29,15,17,Jits_Phase_5,0,1,48,66,3392825128
29,15,17,Jits_Phase_5,1,5,56,103,3392898364
29,15,17,Jits_Phase_5,2,5,63,98,3392939480
29,15,17,Jits_Phase_5,3,5,80,127,3392942620
29,15,17,Jits_Phase_5,0,1,48,56,3393338520
29,15,17,Jits_Phase_5,1,5,56,103,3393399152
29,15,17,Jits_Phase_5,2,5,63,98,3393409272
29,15,17,Jits_Phase_5,3,5,80,127,3393428832
29,15,17,Jits_Phase_5,0,1,48,51,3393838940
29,15,17,Jits_Phase_5,1,5,56,103,3393858892
29,15,17,Jits_Phase_5,2,5,80,127,3393862032
29,15,17,Jits_Phase_5,3,5,63,98,3393898828
29,15,17,Jits_Phase_5,0,1,48,62,3394313620
29,15,17,Jits_Phase_5,1,5,63,98,3394398560
29,15,17,Jits_Phase_5,2,5,56,103,3394429196
29,15,17,Jits_Phase_5,3,5,80,127,3394448756
29,15,17,Jits_Phase_5,0,1,48,67,3394817728
29,15,17,Jits_Phase_5,1,5,80,127,3394868720
29,15,17,Jits_Phase_5,2,5,56,103,3394878840
29,15,17,Jits_Phase_5,3,5,63,98,3394889112
29,15,17,Jits_Phase_5,0,1,48,59,3395326444
29,15,17,Jits_Phase_5,1,5,56,103,3395369288
29,15,17,Jits_Phase_5,2,5,80,127,3395409224
29,15,17,Jits_Phase_5,3,5,63,98,3395439252
29,15,17,Jits_Phase_5,0,1,48,51,3395857452
29,15,17,Jits_Phase_5,1,5,63,98,3395879372
29,15,17,Jits_Phase_5,2,5,80,127,3395888520
29,15,17,Jits_Phase_5,3,5,56,103,3395898864
29,15,17,Jits_Phase_5,0,1,48,53,3396358992
29,15,17,Jits_Phase_5,1,5,56,103,3396368608
29,15,17,Jits_Phase_5,2,5,63,98,3396439360
29,15,17,Jits_Phase_5,3,5,80,127,3396448508
29,15,17,Jits_Phase_5,0,1,48,62,3396819336
29,15,17,Jits_Phase_5,1,5,80,127,3396878696
29,15,17,Jits_Phase_5,2,5,56,103,3396889068
29,15,17,Jits_Phase_5,3,5,63,98,3396939100
29,15,17,Jits_Phase_5,0,1,48,55,3397322972
29,15,17,Jits_Phase_5,1,5,80,127,3397388704
29,15,17,Jits_Phase_5,2,5,56,103,3397448956
29,15,17,Jits_Phase_5,3,5,63,98,3397478856
29,15,17,Jits_Phase_5,0,1,48,49,3397813288
29,15,17,Jits_Phase_5,1,5,56,103,3397889276
29,15,17,Jits_Phase_5,2,5,80,127,3397892420
29,15,17,Jits_Phase_5,3,5,63,98,3397929228
29,15,17,Jits_Phase_5,0,1,48,47,3398346276
29,15,17,Jits_Phase_5,1,5,56,103,3398418912
29,15,17,Jits_Phase_5,2,5,63,98,3398448524
29,15,17,Jits_Phase_5,3,5,80,127,3398458868
29,15,17,Jits_Phase_5,0,1,48,60,3398828060
29,15,17,Jits_Phase_5,1,5,63,98,3398928684
29,15,17,Jits_Phase_5,2,5,80,127,3398939128
29,15,17,Jits_Phase_5,3,5,56,103,3398949172
29,15,17,Jits_Phase_5,0,1,48,51,3399352824
29,15,17,Jits_Phase_5,1,5,80,127,3399379372
29,15,17,Jits_Phase_5,2,5,56,103,3399428452
29,15,17,Jits_Phase_5,3,5,63,98,3399431444
29,15,17,Jits_Phase_5,0,1,48,69,3399856616
29,15,17,Jits_Phase_5,1,5,56,103,3399909000
29,15,17,Jits_Phase_5,2,5,80,127,3399929312
29,15,17,Jits_Phase_5,3,5,63,98,3399938312
29,15,17,Jits_Phase_5,0,1,48,38,3400364664
29,15,17,Jits_Phase_5,1,5,63,98,3400389124
29,15,17,Jits_Phase_5,2,5,56,103,3400418796
29,15,17,Jits_Phase_5,3,5,80,127,3400439108
29,15,17,Jits_Phase_5,0,1,48,71,3400874748
29,15,17,Jits_Phase_5,1,5,56,103,3400898908
29,15,17,Jits_Phase_5,2,5,80,127,3400909252
29,15,17,Jits_Phase_5,3,5,63,98,3400978916
29,15,17,Jits_Phase_5,0,1,48,56,3401383716
29,15,17,Jits_Phase_5,1,5,63,98,3401389292
29,15,17,Jits_Phase_5,2,5,80,127,3401429304
29,15,17,Jits_Phase_5,3,5,56,103,3401469164
29,15,17,Jits_Phase_5,0,5,56,103,3401899460
29,15,17,Jits_Phase_5,1,5,63,98,3401908536
29,15,17,Jits_Phase_5,2,1,48,65,3401915168
29,15,17,Jits_Phase_5,3,5,80,127,3401928988
29,15,17,Jits_Phase_5,0,1,48,50,3402404056
29,15,17,Jits_Phase_5,1,5,63,98,3402438928
29,15,17,Jits_Phase_5,2,5,80,127,3402458412
29,15,17,Jits_Phase_5,3,5,56,103,3402478872
29,15,17,Jits_Phase_5,0,5,56,103,3402879348
29,15,17,Jits_Phase_5,1,1,48,63,3402906432
29,15,17,Jits_Phase_5,2,5,80,127,3402959208
29,15,17,Jits_Phase_5,3,5,63,98,3402968508
29,15,17,Jits_Phase_5,0,1,48,57,3403353456
29,15,17,Jits_Phase_5,1,5,80,127,3403418892
29,15,17,Jits_Phase_5,2,5,63,98,3403429088
29,15,17,Jits_Phase_5,3,5,56,103,3403458896
29,15,17,Jits_Phase_5,0,1,48,62,3403871344
29,15,17,Jits_Phase_5,1,5,63,98,3403878860
29,15,17,Jits_Phase_5,2,5,80,127,3403919096
29,15,17,Jits_Phase_5,3,5,56,103,3403979172
29,15,17,Jits_Phase_5,0,1,48,46,3404366288
29,15,17,Jits_Phase_5,1,5,63,98,3404388652
29,15,17,Jits_Phase_5,2,5,56,103,3404438780
29,15,17,Jits_Phase_5,3,5,80,127,3404468588
29,15,17,Jits_Phase_5,0,1,48,70,3404853160
29,15,17,Jits_Phase_5,1,5,80,127,3404888704
29,15,17,Jits_Phase_5,2,5,63,98,3404899124
29,15,17,Jits_Phase_5,3,5,56,103,3404969460
29,15,17,Jits_Phase_5,0,1,48,47,3405351268
29,15,17,Jits_Phase_5,1,5,80,127,3405448540
29,15,17,Jits_Phase_5,2,5,56,103,3405458712
29,15,17,Jits_Phase_5,3,5,63,98,3405461932
29,15,17,Jits_Phase_5,0,1,48,51,3405863744
29,15,17,Jits_Phase_5,1,5,56,103,3405888876
29,15,17,Jits_Phase_5,2,5,80,127,3405909632
29,15,17,Jits_Phase_5,3,5,63,98,3405918632
29,15,17,Jits_Phase_5,0,1,48,54,3406359056
29,15,17,Jits_Phase_5,1,5,63,98,3406398788
29,15,17,Jits_Phase_5,2,5,56,103,3406438724
29,15,17,Jits_Phase_5,3,5,80,127,3406459464
29,15,17,Jits_Phase_5,0,1,48,62,3406816760
29,15,17,Jits_Phase_5,1,5,63,98,3406898692
29,15,17,Jits_Phase_5,2,5,56,103,3406958988
29,15,17,Jits_Phase_5,3,5,80,127,3406961904
29,15,17,Jits_Phase_5,0,1,48,54,3407326228
29,15,17,Jits_Phase_5,1,5,56,103,3407359448
29,15,17,Jits_Phase_5,2,5,80,127,3407378936
29,15,17,Jits_Phase_5,3,5,63,98,3407418824
29,15,17,Jits_Phase_5,0,1,48,67,3407822008
29,15,17,Jits_Phase_5,1,5,56,103,3407888792
29,15,17,Jits_Phase_5,2,5,63,98,3407909200
29,15,17,Jits_Phase_5,3,5,80,127,3407918408
29,15,17,Jits_Phase_5,0,1,48,59,3408326320
29,15,17,Jits_Phase_5,1,5,80,127,3408358800
29,15,17,Jits_Phase_5,2,5,56,103,3408388624
29,15,17,Jits_Phase_5,3,5,63,98,3408429616
29,15,17,Jits_Phase_5,0,1,48,49,3408858592
29,15,17,Jits_Phase_5,1,5,80,127,3408868728
29,15,17,Jits_Phase_5,2,5,56,103,3408889112
29,15,17,Jits_Phase_5,3,5,63,98,3408948700
29,15,17,Jits_Phase_5,0,1,48,75,3409376476
29,15,17,Jits_Phase_5,1,5,56,103,3409378664
29,15,17,Jits_Phase_5,2,5,80,127,3409399196
29,15,17,Jits_Phase_5,3,5,63,98,3409458412
29,15,17,Jits_Phase_5,0,5,80,127,3409858864
29,15,17,Jits_Phase_5,1,1,48,67,3409864976
29,15,17,Jits_Phase_5,2,5,56,103,3409869352
29,15,17,Jits_Phase_5,3,5,63,98,3409908992
29,15,17,Jits_Phase_5,0,1,48,51,3410357944
29,15,17,Jits_Phase_5,1,5,63,98,3410359740
29,15,17,Jits_Phase_5,2,5,56,103,3410398552
29,15,17,Jits_Phase_5,3,5,80,127,3410401768
29,15,17,Jits_Phase_5,0,1,48,51,3410856292
29,15,17,Jits_Phase_5,1,5,63,98,3410879028
29,15,17,Jits_Phase_5,2,5,80,127,3410918672
29,15,17,Jits_Phase_5,3,5,56,103,3410948492
29,15,17,Jits_Phase_5,0,1,48,62,3411304428
29,15,17,Jits_Phase_5,1,5,56,103,3411369564
29,15,17,Jits_Phase_5,2,5,63,98,3411378492
29,15,17,Jits_Phase_5,3,5,80,127,3411409344
29,15,17,Jits_Phase_5,0,1,48,55,3411830176
29,15,17,Jits_Phase_5,1,5,80,127,3411858748
29,15,17,Jits_Phase_5,2,5,63,98,3411928336
29,15,17,Jits_Phase_5,3,5,56,103,3411938608
29,15,17,Jits_Phase_5,0,1,48,62,3412354268
29,15,17,Jits_Phase_5,1,5,63,98,3412358496
29,15,17,Jits_Phase_5,2,5,56,103,3412429296
29,15,17,Jits_Phase_5,3,5,80,127,3412439272
29,15,17,Jits_Phase_5,0,5,63,98,3412838776
29,15,17,Jits_Phase_5,1,5,56,103,3412859456
29,15,17,Jits_Phase_5,2,1,48,66,3412880032
29,15,17,Jits_Phase_5,3,5,80,127,3412899532
29,15,17,Jits_Phase_5,0,5,56,103,3413319116
29,15,17,Jits_Phase_5,1,1,48,56,3413320604
29,15,17,Jits_Phase_5,2,5,63,98,3413329380
29,15,17,Jits_Phase_5,3,5,80,127,3413409320
29,15,17,Jits_Phase_5,0,1,48,64,3413789784
29,15,17,Jits_Phase_5,1,5,63,98,3413808388
29,15,17,Jits_Phase_5,2,5,56,103,3413839480
29,15,17,Jits_Phase_5,3,5,80,127,3413879416
29,15,17,Jits_Phase_5,0,1,48,40,3414284324
29,15,17,Jits_Phase_5,1,5,56,103,3414309328
29,15,17,Jits_Phase_5,2,5,63,98,3414349340
29,15,17,Jits_Phase_5,3,5,80,127,3414389184
29,15,17,Jits_Phase_5,0,1,48,56,3414780776
29,15,17,Jits_Phase_5,1,5,80,127,3414808852
29,15,17,Jits_Phase_5,2,5,56,103,3414888780
29,15,17,Jits_Phase_5,3,5,63,98,3414899200
29,15,17,Jits_Phase_5,0,1,48,38,3415327764
29,15,17,Jits_Phase_5,1,5,56,103,3415348612
29,15,17,Jits_Phase_5,2,5,63,98,3415351676
29,15,17,Jits_Phase_5,3,5,80,127,3415358952
29,15,17,Jits_Phase_5,0,1,48,56,3415854164
29,15,17,Jits_Phase_5,1,5,56,103,3415868728
29,15,17,Jits_Phase_5,2,5,63,98,3415889260
29,15,17,Jits_Phase_5,3,5,80,127,3415898412
29,15,17,Jits_Phase_5,0,1,48,56,3416334184
29,15,17,Jits_Phase_5,1,5,63,98,3416339088
29,15,17,Jits_Phase_5,2,5,80,127,3416349308
29,15,17,Jits_Phase_5,3,5,56,103,3416368348
29,15,17,Jits_Phase_5,0,1,48,56,3416820524
29,15,17,Jits_Phase_5,1,5,63,98,3416838460
29,15,17,Jits_Phase_5,2,5,56,103,3416919460
29,15,17,Jits_Phase_5,3,5,80,127,3416922524
29,15,17,Jits_Phase_5,0,1,48,46,3417315240
29,15,17,Jits_Phase_5,1,5,63,98,3417339248
29,15,17,Jits_Phase_5,2,5,56,103,3417358736
29,15,17,Jits_Phase_5,3,5,80,127,3417389408
29,15,17,Jits_Phase_5,0,1,48,53,3417826836
29,15,17,Jits_Phase_5,1,5,56,103,3417839064
29,15,17,Jits_Phase_5,2,5,63,98,3417858480
29,15,17,Jits_Phase_5,3,5,80,127,3417868600
29,15,17,Jits_Phase_5,0,1,48,47,3418328976
29,15,17,Jits_Phase_5,1,5,56,103,3418369380
29,15,17,Jits_Phase_5,2,5,63,98,3418399080
29,15,17,Jits_Phase_5,3,5,80,127,3418402444
29,15,17,Jits_Phase_5,0,5,56,103,3418819160
29,15,17,Jits_Phase_5,1,1,48,68,3418823776
29,15,17,Jits_Phase_5,2,5,63,98,3418858720
29,15,17,Jits_Phase_5,3,5,80,127,3418919280
29,15,17,Jits_Phase_5,0,1,48,72,3419279936
29,15,17,Jits_Phase_5,1,5,56,103,3419339000
29,15,17,Jits_Phase_5,2,5,63,98,3419349344
29,15,17,Jits_Phase_5,3,5,80,127,3419408744
29,15,17,Jits_Phase_5,0,1,48,53,3419767772
29,15,17,Jits_Phase_5,1,5,56,103,3419839120
29,15,17,Jits_Phase_5,2,5,80,127,3419859280
29,15,17,Jits_Phase_5,3,5,63,98,3419889012
29,15,17,Jits_Phase_5,0,1,48,33,3420296968
29,15,17,Jits_Phase_5,1,5,80,127,3420338420
29,15,17,Jits_Phase_5,2,5,56,103,3420348916
29,15,17,Jits_Phase_5,3,5,63,98,3420369296
29,15,17,Jits_Phase_5,0,1,48,74,3420824048
29,15,17,Jits_Phase_5,1,5,63,98,3420829248
29,15,17,Jits_Phase_5,2,5,80,127,3420909044
29,15,17,Jits_Phase_5,3,5,56,103,3420919240
29,15,17,Jits_Phase_5,0,1,48,68,3421290844
29,15,17,Jits_Phase_5,1,5,80,127,3421419116
29,15,17,Jits_Phase_5,2,5,56,103,3421439276
29,15,17,Jits_Phase_5,3,5,63,98,3421442340
29,15,17,Jits_Phase_5,0,1,48,53,3421836668
29,15,17,Jits_Phase_5,1,5,63,98,3421909356
29,15,17,Jits_Phase_5,2,5,80,127,3421912724
29,15,17,Jits_Phase_5,3,5,56,103,3421968980
29,15,17,Jits_Phase_5,0,1,48,43,3422381576
29,15,17,Jits_Phase_5,1,5,56,103,3422388872
29,15,17,Jits_Phase_5,2,5,80,127,3422399216
29,15,17,Jits_Phase_5,3,5,63,98,3422438856
29,15,17,Jits_Phase_5,0,5,56,103,3422868928
29,15,17,Jits_Phase_5,1,1,48,48,3422912048
29,15,17,Jits_Phase_5,2,5,63,98,3422929308
29,15,17,Jits_Phase_5,3,5,80,127,3422938532
29,15,17,Jits_Phase_5,0,5,63,98,3423378732
29,15,17,Jits_Phase_5,1,1,48,40,3423396596
29,15,17,Jits_Phase_5,2,5,80,127,3423418736
29,15,17,Jits_Phase_5,3,5,56,103,3423458600
29,15,17,Jits_Phase_5,0,5,56,103,3423878408
29,15,17,Jits_Phase_5,1,1,48,49,3423902800
29,15,17,Jits_Phase_5,2,5,63,98,3423959460
29,15,17,Jits_Phase_5,3,5,80,127,3423962900
29,15,17,Jits_Phase_5,0,1,48,44,3424390040
29,15,17,Jits_Phase_5,1,5,80,127,3424438764
29,15,17,Jits_Phase_5,2,5,56,103,3424469336
29,15,17,Jits_Phase_5,3,5,63,98,3424472404
29,15,17,Jits_Phase_5,0,5,56,103,3424898364
29,15,17,Jits_Phase_5,1,5,80,127,3424918896
29,15,17,Jits_Phase_5,2,1,48,51,3424926056
29,15,17,Jits_Phase_5,3,5,63,98,3424958828
29,15,17,Jits_Phase_5,0,5,80,127,3425378796
29,15,17,Jits_Phase_5,1,5,63,98,3425399108
29,15,17,Jits_Phase_5,2,1,48,53,3425414284
29,15,17,Jits_Phase_5,3,5,56,103,3425458736
29,15,17,Jits_Phase_5,0,5,63,98,3425888748
29,15,17,Jits_Phase_5,1,5,56,103,3425898796
29,15,17,Jits_Phase_5,2,1,48,56,3425919448
29,15,17,Jits_Phase_5,3,5,80,127,3425948912
29,15,17,Jits_Phase_5,0,5,56,103,3426378984
29,15,17,Jits_Phase_5,1,1,48,55,3426386808
29,15,17,Jits_Phase_5,2,5,63,98,3426398832
29,15,17,Jits_Phase_5,3,5,80,127,3426408808
29,15,17,Jits_Phase_5,0,5,56,103,3426868776
29,15,17,Jits_Phase_5,1,5,63,98,3426871844
29,15,17,Jits_Phase_5,2,5,80,127,3426889012
29,15,17,Jits_Phase_5,3,1,48,55,3426902012
29,15,17,Jits_Phase_5,0,1,48,45,3427382504
29,15,17,Jits_Phase_5,1,5,63,98,3427409280
29,15,17,Jits_Phase_5,2,5,56,103,3427439100
29,15,17,Jits_Phase_5,3,5,80,127,3427468700
29,15,17,Jits_Phase_5,0,5,80,127,3427869176
29,15,17,Jits_Phase_5,1,1,48,59,3427889384
29,15,17,Jits_Phase_5,2,5,56,103,3427959076
29,15,17,Jits_Phase_5,3,5,63,98,3427962144
29,15,17,Jits_Phase_5,0,5,56,103,3428368908
29,15,17,Jits_Phase_5,1,5,80,127,3428371976
29,15,17,Jits_Phase_5,2,1,48,46,3428402164
29,15,17,Jits_Phase_5,3,5,63,98,3428448792
29,15,17,Jits_Phase_5,0,5,80,127,3428868588
29,15,17,Jits_Phase_5,1,1,48,54,3428878228
29,15,17,Jits_Phase_5,2,5,63,98,3428928772
29,15,17,Jits_Phase_5,3,5,56,103,3428958744
29,15,17,Jits_Phase_5,0,5,63,98,3429369172
29,15,17,Jits_Phase_5,1,5,80,127,3429378544
29,15,17,Jits_Phase_5,2,1,48,31,3429412624
29,15,17,Jits_Phase_5,3,5,56,103,3429448988
29,15,17,Jits_Phase_5,0,1,48,55,3429877580
29,15,17,Jits_Phase_5,1,5,56,103,3429929472
29,15,17,Jits_Phase_5,2,5,80,127,3429959000
29,15,17,Jits_Phase_5,3,5,63,98,3430009184
29,15,17,Jits_Phase_5,0,1,48,47,3430368184
29,15,17,Jits_Phase_5,1,5,63,98,3430519332
29,15,17,Jits_Phase_5,2,5,56,103,3430548856
29,15,17,Jits_Phase_5,3,5,80,127,3430551848
29,15,17,Jits_Phase_5,0,1,48,59,3430989028
29,15,17,Jits_Phase_5,1,5,63,98,3431018792
29,15,17,Jits_Phase_5,2,5,80,127,3431039552
29,15,17,Jits_Phase_5,3,5,56,103,3431048476
29,15,17,Jits_Phase_5,0,5,56,103,3431528812
29,15,17,Jits_Phase_5,1,5,63,98,3431531804
29,15,17,Jits_Phase_5,2,5,80,127,3431549496
29,15,17,Jits_Phase_5,3,1,48,55,3431562504
29,15,17,Jits_Phase_5,0,5,56,103,3431979572
29,15,17,Jits_Phase_5,1,5,63,98,3431988496
29,15,17,Jits_Phase_5,2,5,80,127,3432019444
29,15,17,Jits_Phase_5,3,1,48,52,3432080168
29,15,17,Jits_Phase_5,0,5,63,98,3432498520
29,15,17,Jits_Phase_5,1,5,80,127,3432518976
29,15,17,Jits_Phase_5,2,5,56,103,3432558912
29,15,17,Jits_Phase_5,0,1,48,51,3432942952
29,15,17,Jits_Phase_5,1,5,56,103,3433029016
29,15,17,Jits_Phase_5,2,5,63,98,3433069012
29,15,17,Jits_Phase_5,3,5,80,127,3433072300
29,15,17,Jits_Phase_5,0,5,80,127,3433469556
29,15,17,Jits_Phase_5,1,1,48,49,3433485632
29,15,17,Jits_Phase_5,2,5,56,103,3433509508
29,15,17,Jits_Phase_5,3,5,63,98,3433559484
29,15,17,Jits_Phase_5,0,1,48,48,3433987356
29,15,17,Jits_Phase_5,1,5,56,103,3434029500
29,15,17,Jits_Phase_5,2,5,80,127,3434038652
29,15,17,Jits_Phase_5,3,5,63,98,3434069520
29,15,17,Jits_Phase_5,0,5,56,103,3434478896
29,15,17,Jits_Phase_5,1,1,48,42,3434494892
29,15,17,Jits_Phase_5,2,5,80,127,3434518852
29,15,17,Jits_Phase_5,3,5,63,98,3434569048
29,15,17,Jits_Phase_5,0,5,56,103,3434978652
29,15,17,Jits_Phase_5,1,1,48,38,3435002896
29,15,17,Jits_Phase_5,2,5,80,127,3435018508
29,15,17,Jits_Phase_5,3,5,63,98,3435068660
29,15,17,Jits_Phase_5,0,5,80,127,3435469276
29,15,17,Jits_Phase_5,1,1,48,55,3435491948
29,15,17,Jits_Phase_5,2,5,63,98,3435549012
29,15,17,Jits_Phase_5,3,5,56,103,3435559356
29,15,17,Jits_Phase_5,0,1,48,48,3436003844
29,15,17,Jits_Phase_5,1,5,80,127,3436018932
29,15,17,Jits_Phase_5,2,5,56,103,3436029500
29,15,17,Jits_Phase_5,3,5,63,98,3436048616
29,15,17,Jits_Phase_5,0,5,63,98,3436489024
29,15,17,Jits_Phase_5,1,1,48,54,3436508332
29,15,17,Jits_Phase_5,2,5,56,103,3436558616
29,15,17,Jits_Phase_5,3,5,80,127,3436561688
29,15,17,Jits_Phase_5,0,5,80,127,3436978504
29,15,17,Jits_Phase_5,1,1,48,37,3436990840
29,15,17,Jits_Phase_5,2,5,63,98,3437028772
29,15,17,Jits_Phase_5,3,5,56,103,3437068560
29,15,17,Jits_Phase_5,0,1,48,53,3437468200
29,15,17,Jits_Phase_5,1,5,63,98,3437519244
29,15,17,Jits_Phase_5,2,5,56,103,3437559328
29,15,17,Jits_Phase_5,3,5,80,127,3437569360
29,15,17,Jits_Phase_5,0,1,48,34,3437995884
29,15,17,Jits_Phase_5,1,5,63,98,3438008808
29,15,17,Jits_Phase_5,2,5,56,103,3438029116
29,15,17,Jits_Phase_5,3,5,80,127,3438048604
29,15,17,Jits_Phase_5,0,5,80,127,3438468488
29,15,17,Jits_Phase_5,1,5,56,103,3438478684
29,15,17,Jits_Phase_5,2,1,48,48,3438498764
29,15,17,Jits_Phase_5,3,5,63,98,3438500480
29,15,17,Jits_Phase_5,0,1,48,37,3438987552
29,15,17,Jits_Phase_5,1,5,63,98,3438998956
29,15,17,Jits_Phase_5,2,5,56,103,3439038968
29,15,17,Jits_Phase_5,3,5,80,127,3439068496
29,15,17,Jits_Phase_5,0,5,56,103,3439458636
29,15,17,Jits_Phase_5,1,1,48,49,3439479216
29,15,17,Jits_Phase_5,2,5,63,98,3439489500
29,15,17,Jits_Phase_5,3,5,80,127,3439519252
29,15,17,Jits_Phase_5,0,5,80,127,3439878448
29,15,17,Jits_Phase_5,1,1,48,52,3439917264
29,15,17,Jits_Phase_5,2,5,56,103,3439949192
29,15,17,Jits_Phase_5,3,5,63,98,3439952108
29,15,17,Jits_Phase_5,0,5,56,103,3440388468
29,15,17,Jits_Phase_5,1,1,48,58,3440431168
29,15,17,Jits_Phase_5,2,5,63,98,3440438760
29,15,17,Jits_Phase_5,3,5,80,127,3440469408
29,15,17,Jits_Phase_5,0,5,63,98,3440868828
29,15,17,Jits_Phase_5,1,5,80,127,3440872040
29,15,17,Jits_Phase_5,2,1,48,57,3440905872
29,15,17,Jits_Phase_5,3,5,56,103,3440929084
29,15,17,Jits_Phase_5,0,1,48,51,3441381032
29,15,17,Jits_Phase_5,1,5,56,103,3441399116
29,15,17,Jits_Phase_5,2,5,80,127,3441409460
29,15,17,Jits_Phase_5,3,5,63,98,3441458412
29,15,17,Jits_Phase_5,0,5,63,98,3441869128
29,15,17,Jits_Phase_5,1,5,56,103,3441879548
29,15,17,Jits_Phase_5,2,1,48,42,3441885284
29,15,17,Jits_Phase_5,3,5,80,127,3441909064
29,15,17,Jits_Phase_5,0,1,48,62,3442360820
29,15,17,Jits_Phase_5,1,5,63,98,3442398532
29,15,17,Jits_Phase_5,2,5,80,127,3442402044
29,15,17,Jits_Phase_5,3,5,56,103,3442429252
29,15,17,Jits_Phase_5,0,1,48,46,3442837336
29,15,17,Jits_Phase_5,1,5,63,98,3442919020
29,15,17,Jits_Phase_5,2,5,56,103,3442939316
29,15,17,Jits_Phase_5,3,5,80,127,3442942304
29,15,17,Jits_Phase_5,0,5,63,98,3443378616
29,15,17,Jits_Phase_5,1,1,48,30,3443384504
29,15,17,Jits_Phase_5,2,5,56,103,3443449188
29,15,17,Jits_Phase_5,3,5,80,127,3443468524
29,15,17,Jits_Phase_5,0,5,56,103,3443869148
29,15,17,Jits_Phase_5,1,5,63,98,3443879196
29,15,17,Jits_Phase_5,2,1,48,56,3443905304
29,15,17,Jits_Phase_5,3,5,80,127,3443969244
29,15,17,Jits_Phase_5,0,5,56,103,3444389216
29,15,17,Jits_Phase_5,1,1,48,37,3444391880
29,15,17,Jits_Phase_5,2,5,80,127,3444429220
29,15,17,Jits_Phase_5,3,5,63,98,3444439416
29,15,17,Jits_Phase_5,0,1,48,59,3444878464
29,15,17,Jits_Phase_5,1,5,56,103,3444909424
29,15,17,Jits_Phase_5,2,5,63,98,3444939176
29,15,17,Jits_Phase_5,3,5,80,127,3444968924
29,15,17,Jits_Phase_5,0,5,80,127,3445369176
29,15,17,Jits_Phase_5,1,1,48,48,3445404956
29,15,17,Jits_Phase_5,2,5,63,98,3445409108
29,15,17,Jits_Phase_5,3,5,56,103,3445428592
29,15,17,Jits_Phase_5,0,1,48,54,3445861860
29,15,17,Jits_Phase_5,1,5,56,103,3445908940
29,15,17,Jits_Phase_5,2,5,80,127,3445929324
29,15,17,Jits_Phase_5,3,5,63,98,3445948808
29,15,17,Jits_Phase_5,0,5,63,98,3446379028
29,15,17,Jits_Phase_5,1,5,56,103,3446389152
29,15,17,Jits_Phase_5,2,1,48,47,3446395632
29,15,17,Jits_Phase_5,3,5,80,127,3446448780
29,15,17,Jits_Phase_5,0,5,56,103,3446878704
29,15,17,Jits_Phase_5,1,1,48,53,3446882868
29,15,17,Jits_Phase_5,2,5,63,98,3446949124
29,15,17,Jits_Phase_5,3,5,80,127,3446968760
29,15,17,Jits_Phase_5,0,5,56,103,3447379740
29,15,17,Jits_Phase_5,1,5,63,98,3447409044
29,15,17,Jits_Phase_5,2,1,48,45,3447411792
29,15,17,Jits_Phase_5,3,5,80,127,3447448976
29,15,17,Jits_Phase_5,0,5,63,98,3447868868
29,15,17,Jits_Phase_5,1,1,48,56,3447889596
29,15,17,Jits_Phase_5,2,5,56,103,3447918988
29,15,17,Jits_Phase_5,3,5,80,127,3447929112
29,15,17,Jits_Phase_5,0,1,48,51,3448402520
29,15,17,Jits_Phase_5,1,5,56,103,3448408616
29,15,17,Jits_Phase_5,2,5,63,98,3448458596
29,15,17,Jits_Phase_5,3,5,80,127,3448468792
29,15,17,Jits_Phase_5,0,5,56,103,3448878636
29,15,17,Jits_Phase_5,1,5,63,98,3448888980
29,15,17,Jits_Phase_5,2,1,48,56,3448908140
29,15,17,Jits_Phase_5,3,5,80,127,3448968764
29,15,17,Jits_Phase_5,0,9999,9999,9999,3364636760
29,15,17,Jits_Phase_5,1,9999,9999,9999,3365136492
29,15,17,Jits_Phase_5,2,9999,9999,9999,3365636200
29,15,17,Jits_Phase_5,3,9999,9999,9999,3366136932
29,15,17,Jits_Phase_5,4,9999,9999,9999,3366636612
29,15,17,Jits_Phase_5,5,9999,9999,9999,3367136380
29,15,17,Jits_Phase_5,6,9999,9999,9999,3367637100
29,15,17,Jits_Phase_5,7,9999,9999,9999,3368136788
29,15,17,Jits_Phase_5,8,9999,9999,9999,3368636480
29,15,17,Jits_Phase_5,9,9999,9999,9999,3369136228
29,15,17,Jits_Phase_5,10,9999,9999,9999,3369636948
29,15,17,Jits_Phase_5,11,9999,9999,9999,3370136696
29,15,17,Jits_Phase_5,12,9999,9999,9999,3370636368
29,15,17,Jits_Phase_5,13,9999,9999,9999,3371136112
29,15,17,Jits_Phase_5,14,9999,9999,9999,3371636816
29,15,17,Jits_Phase_5,15,9999,9999,9999,3372136564
29,15,17,Jits_Phase_5,16,9999,9999,9999,3372636236
29,15,17,Jits_Phase_5,17,9999,9999,9999,3373136960
29,15,17,Jits_Phase_5,18,9999,9999,9999,3373636708
29,15,17,Jits_Phase_5,19,9999,9999,9999,3374136384
29,15,17,Jits_Phase_5,20,9999,9999,9999,3374636132
29,15,17,Jits_Phase_5,21,9999,9999,9999,3375136852
29,15,17,Jits_Phase_5,22,9999,9999,9999,3375636576
29,15,17,Jits_Phase_5,23,9999,9999,9999,3376136320
29,15,17,Jits_Phase_5,24,9999,9999,9999,3376636980
29,15,17,Jits_Phase_5,25,9999,9999,9999,3377136724
29,15,17,Jits_Phase_5,26,9999,9999,9999,3377636472
29,15,17,Jits_Phase_5,27,9999,9999,9999,3378136120
29,15,17,Jits_Phase_5,28,9999,9999,9999,3378636920
29,15,17,Jits_Phase_5,29,9999,9999,9999,3379136592
29,15,17,Jits_Phase_5,30,9999,9999,9999,3379627072
29,15,17,Jits_Phase_5,31,9999,9999,9999,3380137084
29,15,17,Jits_Phase_5,32,9999,9999,9999,3380636756
29,15,17,Jits_Phase_5,33,9999,9999,9999,3381136504
29,15,17,Jits_Phase_5,34,9999,9999,9999,3381636180
29,15,17,Jits_Phase_5,35,9999,9999,9999,3382136900
29,15,17,Jits_Phase_5,36,9999,9999,9999,3382636636
29,15,17,Jits_Phase_5,37,9999,9999,9999,3383136384
29,15,17,Jits_Phase_5,38,9999,9999,9999,3383637108
29,15,17,Jits_Phase_5,39,9999,9999,9999,3384136784
29,15,17,Jits_Phase_5,40,9999,9999,9999,3384636536
29,15,17,Jits_Phase_5,41,9999,9999,9999,3385136208
29,15,17,Jits_Phase_5,42,9999,9999,9999,3385636988
29,15,17,Jits_Phase_5,43,9999,9999,9999,3386136660
29,15,17,Jits_Phase_5,44,9999,9999,9999,3386636380
29,15,17,Jits_Phase_5,45,9999,9999,9999,3387136128
29,15,17,Jits_Phase_5,46,9999,9999,9999,3387636848
29,15,17,Jits_Phase_5,47,9999,9999,9999,3388136508
29,15,17,Jits_Phase_5,48,9999,9999,9999,3388646520
29,15,17,Jits_Phase_5,49,9999,9999,9999,3389146200
29,15,17,Jits_Phase_5,50,9999,9999,9999,3389646912
29,15,17,Jits_Phase_5,51,9999,9999,9999,3390146660
29,15,17,Jits_Phase_5,52,9999,9999,9999,3390646340
29,15,17,Jits_Phase_5,53,9999,9999,9999,3391147068
29,15,17,Jits_Phase_5,54,9999,9999,9999,3391657080
29,15,17,Jits_Phase_5,55,9999,9999,9999,3392156760
29,15,17,Jits_Phase_5,56,9999,9999,9999,3392656504
29,15,17,Jits_Phase_5,57,9999,9999,9999,3393156188
29,15,17,Jits_Phase_5,58,9999,9999,9999,3393656908
29,15,17,Jits_Phase_5,59,9999,9999,9999,3394156640
29,15,17,Jits_Phase_5,60,9999,9999,9999,3394656320
29,15,17,Jits_Phase_5,61,9999,9999,9999,3395157112
29,15,17,Jits_Phase_5,62,9999,9999,9999,3395656784
29,15,17,Jits_Phase_5,63,9999,9999,9999,3396156532
29,15,17,Jits_Phase_5,64,9999,9999,9999,3396676732
29,15,17,Jits_Phase_5,65,9999,9999,9999,3397176408
29,15,17,Jits_Phase_5,66,9999,9999,9999,3397676084
29,15,17,Jits_Phase_5,67,9999,9999,9999,3398176868
29,15,17,Jits_Phase_5,68,9999,9999,9999,3398676596
29,15,17,Jits_Phase_5,69,9999,9999,9999,3399176264
29,15,17,Jits_Phase_5,70,9999,9999,9999,3399677048
29,15,17,Jits_Phase_5,71,9999,9999,9999,3400176724
29,15,17,Jits_Phase_5,72,9999,9999,9999,3400676472
29,15,17,Jits_Phase_5,73,9999,9999,9999,3401176144
29,15,17,Jits_Phase_5,74,9999,9999,9999,3401676868
29,15,17,Jits_Phase_5,75,9999,9999,9999,3402176612
29,15,17,Jits_Phase_5,76,9999,9999,9999,3402676312
29,15,17,Jits_Phase_5,77,9999,9999,9999,3403177032
29,15,17,Jits_Phase_5,78,9999,9999,9999,3403676724
29,15,17,Jits_Phase_5,79,9999,9999,9999,3404176476
29,15,17,Jits_Phase_5,80,9999,9999,9999,3404676156
29,15,17,Jits_Phase_5,81,9999,9999,9999,3405156428
29,15,17,Jits_Phase_5,82,9999,9999,9999,3405656172
29,15,17,Jits_Phase_5,83,9999,9999,9999,3406156892
29,15,17,Jits_Phase_5,84,9999,9999,9999,3406656624
29,15,17,Jits_Phase_5,85,9999,9999,9999,3407156292
29,15,17,Jits_Phase_5,86,9999,9999,9999,3407657084
29,15,17,Jits_Phase_5,87,9999,9999,9999,3408156760
29,15,17,Jits_Phase_5,88,9999,9999,9999,3408656484
29,15,17,Jits_Phase_5,89,9999,9999,9999,3409156152
29,15,17,Jits_Phase_5,90,9999,9999,9999,3409656948
29,15,17,Jits_Phase_5,91,9999,9999,9999,3410156616
29,15,17,Jits_Phase_5,92,9999,9999,9999,3410656368
29,15,17,Jits_Phase_5,93,9999,9999,9999,3411157092
29,15,17,Jits_Phase_5,94,9999,9999,9999,3411656764
29,15,17,Jits_Phase_5,95,9999,9999,9999,3412156512
29,15,17,Jits_Phase_5,96,9999,9999,9999,3412656184
29,15,17,Jits_Phase_5,97,9999,9999,9999,3413106788
29,15,17,Jits_Phase_5,98,9999,9999,9999,3413606460
29,15,17,Jits_Phase_5,99,9999,9999,9999,3414106220
29,15,17,Jits_Phase_5,100,9999,9999,9999,3414606940
29,15,17,Jits_Phase_5,101,9999,9999,9999,3415106616
29,15,17,Jits_Phase_5,102,9999,9999,9999,3415606356
29,15,17,Jits_Phase_5,103,9999,9999,9999,3416107088
29,15,17,Jits_Phase_5,104,9999,9999,9999,3416617020
29,15,17,Jits_Phase_5,105,9999,9999,9999,3417116764
29,15,17,Jits_Phase_5,106,9999,9999,9999,3417616484
29,15,17,Jits_Phase_5,107,9999,9999,9999,3418116152
29,15,17,Jits_Phase_5,108,9999,9999,9999,3418616944
29,15,17,Jits_Phase_5,109,9999,9999,9999,3419116620
29,15,17,Jits_Phase_5,110,9999,9999,9999,3419616384
29,15,17,Jits_Phase_5,111,9999,9999,9999,3420117104
29,15,17,Jits_Phase_5,112,9999,9999,9999,3420616776
29,15,17,Jits_Phase_5,113,9999,9999,9999,3421116528
29,15,17,Jits_Phase_5,114,9999,9999,9999,3421666392
29,15,17,Jits_Phase_5,115,9999,9999,9999,3422166136
29,15,17,Jits_Phase_5,116,9999,9999,9999,3422666860
29,15,17,Jits_Phase_5,117,9999,9999,9999,3423166532
29,15,17,Jits_Phase_5,118,9999,9999,9999,3423666296
29,15,17,Jits_Phase_5,119,9999,9999,9999,3424167016
29,15,17,Jits_Phase_5,120,9999,9999,9999,3424666700
29,15,17,Jits_Phase_5,121,9999,9999,9999,3425166452
29,15,17,Jits_Phase_5,122,9999,9999,9999,3425666140
29,15,17,Jits_Phase_5,123,9999,9999,9999,3426166876
29,15,17,Jits_Phase_5,124,9999,9999,9999,3426666624
29,15,17,Jits_Phase_5,125,9999,9999,9999,3427166296
29,15,17,Jits_Phase_5,126,9999,9999,9999,3427667036
29,15,17,Jits_Phase_5,127,9999,9999,9999,3428166780
29,15,17,Jits_Phase_5,128,9999,9999,9999,3428666456
29,15,17,Jits_Phase_5,129,9999,9999,9999,3429166144
29,15,17,Jits_Phase_5,130,9999,9999,9999,3429666876
29,15,17,Jits_Phase_5,131,9999,9999,9999,3430266936
29,15,17,Jits_Phase_5,132,9999,9999,9999,3430766684
29,15,17,Jits_Phase_5,133,9999,9999,9999,3431266364
29,15,17,Jits_Phase_5,134,9999,9999,9999,3431766108
29,15,17,Jits_Phase_5,135,9999,9999,9999,3432266840
29,15,17,Jits_Phase_5,136,9999,9999,9999,3432766552
29,15,17,Jits_Phase_5,137,9999,9999,9999,3433266240
29,15,17,Jits_Phase_5,138,9999,9999,9999,3433767036
29,15,17,Jits_Phase_5,139,9999,9999,9999,3434266736
29,15,17,Jits_Phase_5,140,9999,9999,9999,3434766460
29,15,17,Jits_Phase_5,141,9999,9999,9999,3435266148
29,15,17,Jits_Phase_5,142,9999,9999,9999,3435766884
29,15,17,Jits_Phase_5,143,9999,9999,9999,3436266576
29,15,17,Jits_Phase_5,144,9999,9999,9999,3436766320
29,15,17,Jits_Phase_5,145,9999,9999,9999,3437267044
29,15,17,Jits_Phase_5,146,9999,9999,9999,3437766740
29,15,17,Jits_Phase_5,147,9999,9999,9999,3438266492
29,15,17,Jits_Phase_5,148,9999,9999,9999,3438766164
29,15,17,Jits_Phase_5,149,9999,9999,9999,3439266904
29,15,17,Jits_Phase_5,150,9999,9999,9999,3439666276
29,15,17,Jits_Phase_5,151,9999,9999,9999,3440167004
29,15,17,Jits_Phase_5,152,9999,9999,9999,3440666696
29,15,17,Jits_Phase_5,153,9999,9999,9999,3441166420
29,15,17,Jits_Phase_5,154,9999,9999,9999,3441666164
29,15,17,Jits_Phase_5,155,9999,9999,9999,3442166880
29,15,17,Jits_Phase_5,156,9999,9999,9999,3442666620
29,15,17,Jits_Phase_5,157,9999,9999,9999,3443166284
29,15,17,Jits_Phase_5,158,9999,9999,9999,3443667008
29,15,17,Jits_Phase_5,159,9999,9999,9999,3444166756
29,15,17,Jits_Phase_5,160,9999,9999,9999,3444666444
29,15,17,Jits_Phase_5,161,9999,9999,9999,3445166140
29,15,17,Jits_Phase_5,162,9999,9999,9999,3445666932
29,15,17,Jits_Phase_5,163,9999,9999,9999,3446166624
29,15,17,Jits_Phase_5,164,9999,9999,9999,3446666296
29,15,17,Jits_Phase_5,165,9999,9999,9999,3447167096
29,15,17,Jits_Phase_5,166,9999,9999,9999,3447666788
29,15,17,Jits_Phase_5,167,9999,9999,9999,3448166476
29,15,17,Jits_Phase_5,168,9999,9999,9999,3448666228
29,15,17,Jits_Phase_5,169,9999,9999,9999,3449166952
29,16,18,Jits_Linear_8,0,5,56,103,3462146512
29,16,18,Jits_Linear_8,1,5,63,98,3462149536
29,16,18,Jits_Linear_8,2,5,80,127,3462152512
29,16,18,Jits_Linear_8,0,1,48,24,3462682384
29,16,18,Jits_Linear_8,1,5,56,103,3462966748
29,16,18,Jits_Linear_8,2,5,63,98,3462969924
29,16,18,Jits_Linear_8,3,5,80,127,3462973044
29,16,18,Jits_Linear_8,0,1,48,24,3463696788
29,16,18,Jits_Linear_8,1,5,80,127,3463726580
29,16,18,Jits_Linear_8,2,5,63,98,3463816476
29,16,18,Jits_Linear_8,3,5,56,103,3463826672
29,16,18,Jits_Linear_8,0,5,56,103,3464567096
29,16,18,Jits_Linear_8,1,5,63,98,3464577368
29,16,18,Jits_Linear_8,2,1,48,34,3464601460
29,16,18,Jits_Linear_8,3,5,80,127,3464666444
29,16,18,Jits_Linear_8,0,5,63,98,3465356524
29,16,18,Jits_Linear_8,1,1,48,45,3465373344
29,16,18,Jits_Linear_8,2,5,80,127,3465387316
29,16,18,Jits_Linear_8,3,5,56,103,3465417064
29,16,18,Jits_Linear_8,0,1,48,42,3466126496
29,16,18,Jits_Linear_8,1,5,56,103,3466177092
29,16,18,Jits_Linear_8,2,5,80,127,3466277128
29,16,18,Jits_Linear_8,3,5,63,98,3466327404
29,16,18,Jits_Linear_8,0,5,56,103,3466986896
29,16,18,Jits_Linear_8,1,5,80,127,3467036976
29,16,18,Jits_Linear_8,2,1,48,44,3467055904
29,16,18,Jits_Linear_8,3,5,63,98,3467077056
29,16,18,Jits_Linear_8,0,1,48,41,3467800284
29,16,18,Jits_Linear_8,1,5,80,127,3467826760
29,16,18,Jits_Linear_8,2,5,63,98,3467857260
29,16,18,Jits_Linear_8,3,5,56,103,3467926856
29,16,18,Jits_Linear_8,0,1,48,56,3468637660
29,16,18,Jits_Linear_8,1,5,63,98,3468667128
29,16,18,Jits_Linear_8,2,5,56,103,3468697028
29,16,18,Jits_Linear_8,3,5,80,127,3468757328
29,16,18,Jits_Linear_8,0,5,56,103,3469416844
29,16,18,Jits_Linear_8,1,5,80,127,3469419908
29,16,18,Jits_Linear_8,2,1,48,47,3469452620
29,16,18,Jits_Linear_8,3,5,63,98,3469536860
29,16,18,Jits_Linear_8,0,1,48,54,3470241660
29,16,18,Jits_Linear_8,1,5,56,103,3470296464
29,16,18,Jits_Linear_8,2,5,80,127,3470337584
29,16,18,Jits_Linear_8,3,5,63,98,3470346732
29,16,18,Jits_Linear_8,0,5,56,103,3471057192
29,16,18,Jits_Linear_8,1,1,48,48,3471076828
29,16,18,Jits_Linear_8,2,5,80,127,3471078240
29,16,18,Jits_Linear_8,3,5,63,98,3471156940
29,16,18,Jits_Linear_8,0,1,48,56,3471843736
29,16,18,Jits_Linear_8,1,5,80,127,3471846840
29,16,18,Jits_Linear_8,2,5,56,103,3471947104
29,16,18,Jits_Linear_8,3,5,63,98,3471957372
29,16,18,Jits_Linear_8,0,5,63,98,3472616716
29,16,18,Jits_Linear_8,1,5,80,127,3472677208
29,16,18,Jits_Linear_8,2,5,56,103,3472686952
29,16,18,Jits_Linear_8,3,1,48,41,3472710224
29,16,18,Jits_Linear_8,0,1,48,52,3473372140
29,16,18,Jits_Linear_8,1,5,56,103,3473416756
29,16,18,Jits_Linear_8,2,5,63,98,3473487196
29,16,18,Jits_Linear_8,3,5,80,127,3473490708
29,16,18,Jits_Linear_8,0,1,48,56,3474174656
29,16,18,Jits_Linear_8,1,5,63,98,3474246944
29,16,18,Jits_Linear_8,2,5,56,103,3474297052
29,16,18,Jits_Linear_8,3,5,80,127,3474300348
29,16,18,Jits_Linear_8,0,1,48,55,3474970532
29,16,18,Jits_Linear_8,1,5,56,103,3474996712
29,16,18,Jits_Linear_8,2,5,80,127,3474999780
29,16,18,Jits_Linear_8,3,5,63,98,3475086604
29,16,18,Jits_Linear_8,0,1,48,55,3475677868
29,16,18,Jits_Linear_8,1,5,63,98,3475827000
29,16,18,Jits_Linear_8,2,5,56,103,3475917284
29,16,18,Jits_Linear_8,3,5,80,127,3475946812
29,16,18,Jits_Linear_8,0,1,48,60,3476554512
29,16,18,Jits_Linear_8,1,5,56,103,3476607520
29,16,18,Jits_Linear_8,2,5,63,98,3476706636
29,16,18,Jits_Linear_8,3,5,80,127,3476737508
29,16,18,Jits_Linear_8,0,5,63,98,3477417476
29,16,18,Jits_Linear_8,1,5,56,103,3477426628
29,16,18,Jits_Linear_8,2,1,48,45,3477430268
29,16,18,Jits_Linear_8,3,5,80,127,3477516604
29,16,18,Jits_Linear_8,0,1,48,51,3478201468
29,16,18,Jits_Linear_8,1,5,63,98,3478217008
29,16,18,Jits_Linear_8,2,5,56,103,3478296824
29,16,18,Jits_Linear_8,3,5,80,127,3478301004
29,16,18,Jits_Linear_8,0,5,80,127,3478957356
29,16,18,Jits_Linear_8,1,5,63,98,3478976916
29,16,18,Jits_Linear_8,2,1,48,45,3478996448
29,16,18,Jits_Linear_8,3,5,56,103,3479037372
29,16,18,Jits_Linear_8,0,1,48,59,3479683880
29,16,18,Jits_Linear_8,1,5,56,103,3479776672
29,16,18,Jits_Linear_8,2,5,63,98,3479797040
29,16,18,Jits_Linear_8,3,5,80,127,3479800404
29,16,18,Jits_Linear_8,0,1,48,54,3480453360
29,16,18,Jits_Linear_8,1,5,63,98,3480496400
29,16,18,Jits_Linear_8,2,5,80,127,3480577380
29,16,18,Jits_Linear_8,3,5,56,103,3480586528
29,16,18,Jits_Linear_8,0,1,48,54,3481249520
29,16,18,Jits_Linear_8,1,5,63,98,3481297204
29,16,18,Jits_Linear_8,2,5,56,103,3481316840
29,16,18,Jits_Linear_8,3,5,80,127,3481366824
29,16,18,Jits_Linear_8,0,1,48,46,3482038864
29,16,18,Jits_Linear_8,1,5,80,127,3482076576
29,16,18,Jits_Linear_8,2,5,63,98,3482116520
29,16,18,Jits_Linear_8,3,5,56,103,3482137076
29,16,18,Jits_Linear_8,0,5,56,103,3482886528
29,16,18,Jits_Linear_8,1,1,48,54,3482890164
29,16,18,Jits_Linear_8,2,5,63,98,3482896716
29,16,18,Jits_Linear_8,3,5,80,127,3482917348
29,16,18,Jits_Linear_8,0,5,56,103,3483586872
29,16,18,Jits_Linear_8,1,1,48,51,3483609916
29,16,18,Jits_Linear_8,2,5,63,98,3483677248
29,16,18,Jits_Linear_8,3,5,80,127,3483736504
29,16,18,Jits_Linear_8,0,5,80,127,3484386644
29,16,18,Jits_Linear_8,1,1,48,40,3484387608
29,16,18,Jits_Linear_8,2,5,56,103,3484397056
29,16,18,Jits_Linear_8,3,5,63,98,3484466540
29,16,18,Jits_Linear_8,0,5,63,98,3485186336
29,16,18,Jits_Linear_8,1,1,48,51,3485217280
29,16,18,Jits_Linear_8,2,5,80,127,3485276416
29,16,18,Jits_Linear_8,3,5,56,103,3485286912
29,16,18,Jits_Linear_8,0,5,63,98,3485886972
29,16,18,Jits_Linear_8,1,1,48,59,3485916096
29,16,18,Jits_Linear_8,2,5,80,127,3485937096
29,16,18,Jits_Linear_8,3,5,56,103,3485997364
29,16,18,Jits_Linear_8,0,5,56,103,3486677436
29,16,18,Jits_Linear_8,1,1,48,65,3486693960
29,16,18,Jits_Linear_8,2,5,80,127,3486726584
29,16,18,Jits_Linear_8,3,5,63,98,3486747220
29,16,18,Jits_Linear_8,0,5,56,103,3487406408
29,16,18,Jits_Linear_8,1,5,80,127,3487466872
29,16,18,Jits_Linear_8,2,1,48,27,3487478160
29,16,18,Jits_Linear_8,3,1,38,13,3487490872
29,16,18,Jits_Linear_8,4,5,63,98,3487536476
29,16,18,Jits_Linear_8,0,5,56,103,3488167232
29,16,18,Jits_Linear_8,1,1,48,56,3488185116
29,16,18,Jits_Linear_8,2,5,80,127,3488196828
29,16,18,Jits_Linear_8,3,5,63,98,3488226652
29,16,18,Jits_Linear_8,0,1,48,39,3488902668
29,16,18,Jits_Linear_8,1,5,56,103,3488967060
29,16,18,Jits_Linear_8,2,5,80,127,3488986624
29,16,18,Jits_Linear_8,3,5,63,98,3489046876
29,16,18,Jits_Linear_8,0,1,48,70,3489730900
29,16,18,Jits_Linear_8,1,5,80,127,3489806904
29,16,18,Jits_Linear_8,2,5,56,103,3489817124
29,16,18,Jits_Linear_8,3,5,63,98,3489827304
29,16,18,Jits_Linear_8,0,1,48,55,3490497632
29,16,18,Jits_Linear_8,1,5,56,103,3490517356
29,16,18,Jits_Linear_8,2,5,80,127,3490557148
29,16,18,Jits_Linear_8,3,5,63,98,3490586924
29,16,18,Jits_Linear_8,0,5,56,103,3491237184
29,16,18,Jits_Linear_8,1,5,63,98,3491266860
29,16,18,Jits_Linear_8,2,1,48,61,3491275232
29,16,18,Jits_Linear_8,3,5,80,127,3491306940
29,16,18,Jits_Linear_8,0,5,80,127,3491936708
29,16,18,Jits_Linear_8,1,5,63,98,3491986688
29,16,18,Jits_Linear_8,2,1,48,73,3492006092
29,16,18,Jits_Linear_8,3,5,56,103,3492007808
29,16,18,Jits_Linear_8,0,5,56,103,3492716992
29,16,18,Jits_Linear_8,1,5,80,127,3492786676
29,16,18,Jits_Linear_8,2,1,48,62,3492805984
29,16,18,Jits_Linear_8,3,5,63,98,3492846912
29,16,18,Jits_Linear_8,0,5,80,127,3493457196
29,16,18,Jits_Linear_8,1,1,48,70,3493523020
29,16,18,Jits_Linear_8,2,5,63,98,3493547404
29,16,18,Jits_Linear_8,3,5,56,103,3493566740
29,16,18,Jits_Linear_8,0,5,63,98,3494217040
29,16,18,Jits_Linear_8,1,5,56,103,3494236748
29,16,18,Jits_Linear_8,2,5,80,127,3494276392
29,16,18,Jits_Linear_8,3,1,48,67,3494292460
29,16,18,Jits_Linear_8,0,5,80,127,3494916748
29,16,18,Jits_Linear_8,1,5,63,98,3494936936
29,16,18,Jits_Linear_8,2,1,48,58,3494963196
29,16,18,Jits_Linear_8,3,5,56,103,3495016796
29,16,18,Jits_Linear_8,0,5,63,98,3495646540
29,16,18,Jits_Linear_8,1,1,48,77,3495694076
29,16,18,Jits_Linear_8,2,5,56,103,3495757292
29,16,18,Jits_Linear_8,3,5,80,127,3495760508
29,16,18,Jits_Linear_8,0,1,48,47,3496353336
29,16,18,Jits_Linear_8,1,5,63,98,3496407540
29,16,18,Jits_Linear_8,2,5,56,103,3496416688
29,16,18,Jits_Linear_8,3,5,80,127,3496419828
29,16,18,Jits_Linear_8,0,1,48,67,3497036356
29,16,18,Jits_Linear_8,1,5,56,103,3497127264
29,16,18,Jits_Linear_8,2,5,80,127,3497247080
29,16,18,Jits_Linear_8,3,5,63,98,3497287016
29,16,18,Jits_Linear_8,0,1,48,53,3497861288
29,16,18,Jits_Linear_8,1,5,56,103,3497876828
29,16,18,Jits_Linear_8,2,5,80,127,3497956688
29,16,18,Jits_Linear_8,3,5,63,98,3497977368
29,16,18,Jits_Linear_8,0,5,56,103,3498606992
29,16,18,Jits_Linear_8,1,1,48,55,3498630712
29,16,18,Jits_Linear_8,2,5,63,98,3498716600
29,16,18,Jits_Linear_8,3,5,80,127,3498719888
29,16,18,Jits_Linear_8,0,5,56,103,3499366896
29,16,18,Jits_Linear_8,1,1,48,68,3499392340
29,16,18,Jits_Linear_8,2,5,80,127,3499396568
29,16,18,Jits_Linear_8,3,5,63,98,3499416804
29,16,18,Jits_Linear_8,0,1,48,51,3500075544
29,16,18,Jits_Linear_8,1,5,63,98,3500077504
29,16,18,Jits_Linear_8,2,5,56,103,3500086652
29,16,18,Jits_Linear_8,3,5,80,127,3500096852
29,16,18,Jits_Linear_8,0,5,80,127,3500787108
29,16,18,Jits_Linear_8,1,1,48,69,3500831008
29,16,18,Jits_Linear_8,2,5,56,103,3500837180
29,16,18,Jits_Linear_8,3,5,63,98,3500877044
29,16,18,Jits_Linear_8,0,5,80,127,3501527392
29,16,18,Jits_Linear_8,1,5,63,98,3501546880
29,16,18,Jits_Linear_8,2,1,48,47,3501585016
29,16,18,Jits_Linear_8,3,5,56,103,3501597024
29,16,18,Jits_Linear_8,0,5,80,127,3502256368
29,16,18,Jits_Linear_8,1,1,48,60,3502266384
29,16,18,Jits_Linear_8,2,5,56,103,3502287456
29,16,18,Jits_Linear_8,3,5,63,98,3502356788
29,16,18,Jits_Linear_8,0,1,48,58,3502927164
29,16,18,Jits_Linear_8,1,5,56,103,3503026524
29,16,18,Jits_Linear_8,2,5,80,127,3503036720
29,16,18,Jits_Linear_8,3,5,63,98,3503076732
29,16,18,Jits_Linear_8,0,5,56,103,3503657432
29,16,18,Jits_Linear_8,1,5,63,98,3503676696
29,16,18,Jits_Linear_8,2,5,80,127,3503746376
29,16,18,Jits_Linear_8,3,1,48,62,3503777664
29,16,18,Jits_Linear_8,0,5,63,98,3504396568
29,16,18,Jits_Linear_8,1,5,80,127,3504457356
29,16,18,Jits_Linear_8,2,5,56,103,3504476472
29,16,18,Jits_Linear_8,3,1,48,58,3504479212
29,16,18,Jits_Linear_8,0,5,80,127,3505097500
29,16,18,Jits_Linear_8,1,5,56,103,3505126732
29,16,18,Jits_Linear_8,2,5,63,98,3505156408
29,16,18,Jits_Linear_8,3,1,48,43,3505175816
29,16,18,Jits_Linear_8,0,1,48,59,3505769724
29,16,18,Jits_Linear_8,1,5,56,103,3505806688
29,16,18,Jits_Linear_8,2,5,63,98,3505867232
29,16,18,Jits_Linear_8,3,5,80,127,3505926560
29,16,18,Jits_Linear_8,0,1,48,39,3506459496
29,16,18,Jits_Linear_8,1,5,80,127,3506536848
29,16,18,Jits_Linear_8,2,5,56,103,3506557216
29,16,18,Jits_Linear_8,3,5,63,98,3506627048
29,16,18,Jits_Linear_8,0,1,48,68,3507211432
29,16,18,Jits_Linear_8,1,5,80,127,3507246400
29,16,18,Jits_Linear_8,2,5,63,98,3507267160
29,16,18,Jits_Linear_8,3,5,56,103,3507296536
29,16,18,Jits_Linear_8,0,1,48,63,3507887196
29,16,18,Jits_Linear_8,1,5,80,127,3507936596
29,16,18,Jits_Linear_8,2,5,63,98,3507957204
29,16,18,Jits_Linear_8,3,5,56,103,3508016632
29,16,18,Jits_Linear_8,0,1,48,54,3508601308
29,16,18,Jits_Linear_8,1,5,80,127,3508637228
29,16,18,Jits_Linear_8,2,5,56,103,3508737392
29,16,18,Jits_Linear_8,3,5,63,98,3508767016
29,16,18,Jits_Linear_8,0,5,63,98,3509336380
29,16,18,Jits_Linear_8,1,1,48,57,3509365804
29,16,18,Jits_Linear_8,2,5,80,127,3509386504
29,16,18,Jits_Linear_8,3,5,56,103,3509407036
29,16,18,Jits_Linear_8,0,1,48,60,3509994632
29,16,18,Jits_Linear_8,1,5,80,127,3510076716
29,16,18,Jits_Linear_8,2,5,56,103,3510106600
29,16,18,Jits_Linear_8,3,5,63,98,3510109888
29,16,18,Jits_Linear_8,0,1,48,40,3510704004
29,16,18,Jits_Linear_8,1,5,63,98,3510807072
29,16,18,Jits_Linear_8,2,5,56,103,3510847084
29,16,18,Jits_Linear_8,3,5,80,127,3510867172
29,16,18,Jits_Linear_8,0,1,48,73,3511416576
29,16,18,Jits_Linear_8,1,5,80,127,3511447092
29,16,18,Jits_Linear_8,2,5,63,98,3511526952
29,16,18,Jits_Linear_8,3,5,56,103,3511566888
29,16,18,Jits_Linear_8,0,5,63,98,3512156488
29,16,18,Jits_Linear_8,1,1,48,71,3512182524
29,16,18,Jits_Linear_8,2,5,80,127,3512237328
29,16,18,Jits_Linear_8,3,5,56,103,3512256888
29,16,18,Jits_Linear_8,0,1,48,62,3512867888
29,16,18,Jits_Linear_8,1,5,56,103,3512886716
29,16,18,Jits_Linear_8,2,5,63,98,3512896912
29,16,18,Jits_Linear_8,3,5,80,127,3512937000
29,16,18,Jits_Linear_8,0,5,56,103,3513496904
29,16,18,Jits_Linear_8,1,5,80,127,3513499896
29,16,18,Jits_Linear_8,2,1,48,30,3513569096
29,16,18,Jits_Linear_8,3,5,63,98,3513637248
29,16,18,Jits_Linear_8,0,5,56,103,3514176868
29,16,18,Jits_Linear_8,1,1,48,54,3514230256
29,16,18,Jits_Linear_8,2,5,63,98,3514267072
29,16,18,Jits_Linear_8,3,5,80,127,3514336660
29,16,18,Jits_Linear_8,0,5,63,98,3514936856
29,16,18,Jits_Linear_8,1,5,80,127,3514940148
29,16,18,Jits_Linear_8,2,1,48,89,3514950164
29,16,18,Jits_Linear_8,3,5,56,103,3514997240
29,16,18,Jits_Linear_8,0,1,48,53,3515598844
29,16,18,Jits_Linear_8,1,5,80,127,3515656640
29,16,18,Jits_Linear_8,2,5,56,103,3515676904
29,16,18,Jits_Linear_8,3,5,63,98,3515687176
29,16,18,Jits_Linear_8,0,5,56,103,3516247608
29,16,18,Jits_Linear_8,1,5,63,98,3516256608
29,16,18,Jits_Linear_8,2,1,48,58,3516263912
29,16,18,Jits_Linear_8,3,5,80,127,3516327176
29,16,18,Jits_Linear_8,0,1,48,44,3516898680
29,16,18,Jits_Linear_8,1,5,80,127,3516927620
29,16,18,Jits_Linear_8,2,5,56,103,3516976504
29,16,18,Jits_Linear_8,3,5,63,98,3517026544
29,16,18,Jits_Linear_8,0,1,48,57,3517636556
29,16,18,Jits_Linear_8,1,5,56,103,3517687080
29,16,18,Jits_Linear_8,2,5,63,98,3517697572
29,16,18,Jits_Linear_8,3,5,80,127,3517737448
29,16,18,Jits_Linear_8,0,1,48,53,3518266248
29,16,18,Jits_Linear_8,1,5,56,103,3518306808
29,16,18,Jits_Linear_8,2,5,63,98,3518346820
29,16,18,Jits_Linear_8,3,5,80,127,3518396860
29,16,18,Jits_Linear_8,0,1,48,45,3518893652
29,16,18,Jits_Linear_8,1,5,80,127,3518946660
29,16,18,Jits_Linear_8,2,5,56,103,3518996800
29,16,18,Jits_Linear_8,3,5,63,98,3519017332
29,16,18,Jits_Linear_8,0,1,48,58,3519585764
29,16,18,Jits_Linear_8,1,5,80,127,3519626768
29,16,18,Jits_Linear_8,2,5,63,98,3519686996
29,16,18,Jits_Linear_8,3,5,56,103,3519766816
29,16,18,Jits_Linear_8,0,5,80,127,3520276844
29,16,18,Jits_Linear_8,1,1,48,50,3520313220
29,16,18,Jits_Linear_8,2,5,56,103,3520316852
29,16,18,Jits_Linear_8,3,5,63,98,3520337236
29,16,18,Jits_Linear_8,0,1,48,61,3520936676
29,16,18,Jits_Linear_8,1,5,56,103,3520996716
29,16,18,Jits_Linear_8,2,5,80,127,3521006912
29,16,18,Jits_Linear_8,3,5,63,98,3521047008
29,16,18,Jits_Linear_8,0,1,48,49,3521640608
29,16,18,Jits_Linear_8,1,5,56,103,3521726800
29,16,18,Jits_Linear_8,2,5,63,98,3521766796
29,16,18,Jits_Linear_8,3,5,80,127,3521770088
29,16,18,Jits_Linear_8,0,5,63,98,3522276676
29,16,18,Jits_Linear_8,1,5,80,127,3522316616
29,16,18,Jits_Linear_8,2,5,56,103,3522387292
29,16,18,Jits_Linear_8,3,1,48,71,3522392360
29,16,18,Jits_Linear_8,0,5,63,98,3522926816
29,16,18,Jits_Linear_8,1,1,48,42,3522973012
29,16,18,Jits_Linear_8,2,5,56,103,3523006756
29,16,18,Jits_Linear_8,3,5,80,127,3523068032
29,16,18,Jits_Linear_8,0,5,80,127,3523596628
29,16,18,Jits_Linear_8,1,5,63,98,3523646856
29,16,18,Jits_Linear_8,2,1,48,50,3523655304
29,16,18,Jits_Linear_8,3,5,56,103,3523676524
29,16,18,Jits_Linear_8,0,1,48,52,3524242016
29,16,18,Jits_Linear_8,1,5,56,103,3524246992
29,16,18,Jits_Linear_8,2,5,63,98,3524297124
29,16,18,Jits_Linear_8,3,5,80,127,3524307320
29,16,18,Jits_Linear_8,0,1,48,35,3524910060
29,16,18,Jits_Linear_8,1,5,56,103,3524916536
29,16,18,Jits_Linear_8,2,5,63,98,3525027256
29,16,18,Jits_Linear_8,3,5,80,127,3525046520
29,16,18,Jits_Linear_8,0,1,48,54,3525559732
29,16,18,Jits_Linear_8,1,5,63,98,3525566804
29,16,18,Jits_Linear_8,2,5,80,127,3525617008
29,16,18,Jits_Linear_8,3,5,56,103,3525707296
29,16,18,Jits_Linear_8,0,5,63,98,3526206764
29,16,18,Jits_Linear_8,1,5,80,127,3526236512
29,16,18,Jits_Linear_8,2,1,48,58,3526240152
29,16,18,Jits_Linear_8,3,5,56,103,3526326636
29,16,18,Jits_Linear_8,0,5,63,98,3526857096
29,16,18,Jits_Linear_8,1,5,56,103,3526867216
29,16,18,Jits_Linear_8,2,1,48,57,3526897384
29,16,18,Jits_Linear_8,3,5,80,127,3526966584
29,16,18,Jits_Linear_8,0,1,48,62,3527492428
29,16,18,Jits_Linear_8,1,5,63,98,3527606784
29,16,18,Jits_Linear_8,2,5,80,127,3527637356
29,16,18,Jits_Linear_8,3,5,56,103,3527667256
29,16,18,Jits_Linear_8,0,1,48,49,3528172900
29,16,18,Jits_Linear_8,1,5,80,127,3528267360
29,16,18,Jits_Linear_8,2,5,63,98,3528277316
29,16,18,Jits_Linear_8,3,5,56,103,3528307216
29,16,18,Jits_Linear_8,0,5,80,127,3528806680
29,16,18,Jits_Linear_8,1,5,63,98,3528827360
29,16,18,Jits_Linear_8,2,1,48,66,3528861120
29,16,18,Jits_Linear_8,3,5,56,103,3528877556
29,16,18,Jits_Linear_8,0,1,48,55,3529453988
29,16,18,Jits_Linear_8,1,5,63,98,3529476424
29,16,18,Jits_Linear_8,2,5,80,127,3529537140
29,16,18,Jits_Linear_8,3,5,56,103,3529557436
29,16,18,Jits_Linear_8,0,5,63,98,3530076452
29,16,18,Jits_Linear_8,1,1,48,67,3530083160
29,16,18,Jits_Linear_8,2,5,56,103,3530126652
29,16,18,Jits_Linear_8,3,5,80,127,3530137216
29,16,18,Jits_Linear_8,0,5,56,103,3530747244
29,16,18,Jits_Linear_8,1,5,80,127,3530756392
29,16,18,Jits_Linear_8,2,1,48,67,3530787036
29,16,18,Jits_Linear_8,3,5,63,98,3530856956
29,16,18,Jits_Linear_8,0,5,80,127,3531347204
29,16,18,Jits_Linear_8,1,5,63,98,3531356652
29,16,18,Jits_Linear_8,2,1,48,53,3531464196
29,16,18,Jits_Linear_8,3,5,56,103,3531507008
29,16,18,Jits_Linear_8,0,5,63,98,3531987288
29,16,18,Jits_Linear_8,1,1,48,54,3532019480
29,16,18,Jits_Linear_8,2,5,80,127,3532027224
29,16,18,Jits_Linear_8,3,5,56,103,3532106972
29,16,18,Jits_Linear_8,0,1,48,53,3532597544
29,16,18,Jits_Linear_8,1,5,56,103,3532607080
29,16,18,Jits_Linear_8,2,5,80,127,3532707240
29,16,18,Jits_Linear_8,3,5,63,98,3532726580
29,16,18,Jits_Linear_8,0,1,48,62,3533284976
29,16,18,Jits_Linear_8,1,5,80,127,3533297132
29,16,18,Jits_Linear_8,2,5,56,103,3533307252
29,16,18,Jits_Linear_8,3,5,63,98,3533397320
29,16,18,Jits_Linear_8,0,1,48,59,3533909416
29,16,18,Jits_Linear_8,1,5,56,103,3533926972
29,16,18,Jits_Linear_8,2,5,63,98,3533947136
29,16,18,Jits_Linear_8,3,5,80,127,3534027064
29,16,18,Jits_Linear_8,0,5,63,98,3534497160
29,16,18,Jits_Linear_8,1,1,48,45,3534564180
29,16,18,Jits_Linear_8,2,1,38,13,3534579080
29,16,18,Jits_Linear_8,3,5,56,103,3534587268
29,16,18,Jits_Linear_8,4,5,80,127,3534590188
29,16,18,Jits_Linear_8,0,1,48,63,3535141136
29,16,18,Jits_Linear_8,1,5,56,103,3535147236
29,16,18,Jits_Linear_8,2,5,80,127,3535207100
29,16,18,Jits_Linear_8,3,5,63,98,3535217148
29,16,18,Jits_Linear_8,0,5,80,127,3535817064
29,16,18,Jits_Linear_8,1,1,48,60,3535822572
29,16,18,Jits_Linear_8,2,5,56,103,3535827252
29,16,18,Jits_Linear_8,3,5,63,98,3535830392
29,16,18,Jits_Linear_8,0,5,56,103,3536396912
29,16,18,Jits_Linear_8,1,5,80,127,3536407032
29,16,18,Jits_Linear_8,2,5,63,98,3536427272
29,16,18,Jits_Linear_8,3,1,48,71,3536432408
29,16,18,Jits_Linear_8,0,5,63,98,3536986356
29,16,18,Jits_Linear_8,1,1,48,60,3537011644
29,16,18,Jits_Linear_8,2,5,80,127,3537047040
29,16,18,Jits_Linear_8,3,5,56,103,3537097092
29,16,18,Jits_Linear_8,0,1,48,47,3537679472
29,16,18,Jits_Linear_8,1,5,63,98,3537686992
29,16,18,Jits_Linear_8,2,5,56,103,3537697112
29,16,18,Jits_Linear_8,3,5,80,127,3537747316
29,16,18,Jits_Linear_8,0,5,63,98,3538196868
29,16,18,Jits_Linear_8,1,5,80,127,3538217328
29,16,18,Jits_Linear_8,2,5,56,103,3538226700
29,16,18,Jits_Linear_8,3,1,48,43,3538325568
29,16,18,Jits_Linear_8,0,5,63,98,3538807116
29,16,18,Jits_Linear_8,1,1,48,48,3538809524
29,16,18,Jits_Linear_8,2,5,80,127,3538812048
29,16,18,Jits_Linear_8,3,5,56,103,3538847120
29,16,18,Jits_Linear_8,0,1,48,58,3539396804
29,16,18,Jits_Linear_8,1,5,63,98,3539486984
29,16,18,Jits_Linear_8,2,5,80,127,3539516868
29,16,18,Jits_Linear_8,3,5,56,103,3539526992
29,16,18,Jits_Linear_8,0,1,48,66,3540026644
29,16,18,Jits_Linear_8,1,5,56,103,3540047344
29,16,18,Jits_Linear_8,2,5,80,127,3540077020
29,16,18,Jits_Linear_8,3,5,63,98,3540106772
29,16,18,Jits_Linear_8,0,1,48,57,3540592008
29,16,18,Jits_Linear_8,1,5,63,98,3540746520
29,16,18,Jits_Linear_8,2,5,56,103,3540786756
29,16,18,Jits_Linear_8,3,5,80,127,3540789824
29,16,18,Jits_Linear_8,0,5,80,127,3541247684
29,16,18,Jits_Linear_8,1,1,48,46,3541267992
29,16,18,Jits_Linear_8,2,5,56,103,3541327576
29,16,18,Jits_Linear_8,3,5,63,98,3541377612
29,16,18,Jits_Linear_8,0,5,80,127,3541826968
29,16,18,Jits_Linear_8,1,5,56,103,3541847356
29,16,18,Jits_Linear_8,2,1,48,56,3541913024
29,16,18,Jits_Linear_8,3,5,63,98,3541936580
29,16,18,Jits_Linear_8,0,5,80,127,3542466832
29,16,18,Jits_Linear_8,1,1,48,52,3542476252
29,16,18,Jits_Linear_8,2,5,63,98,3542506840
29,16,18,Jits_Linear_8,3,5,56,103,3542546804
29,16,18,Jits_Linear_8,0,5,63,98,3543037392
29,16,18,Jits_Linear_8,1,1,48,40,3543064356
29,16,18,Jits_Linear_8,2,5,80,127,3543096760
29,16,18,Jits_Linear_8,3,5,56,103,3543127704
29,16,18,Jits_Linear_8,0,1,48,47,3543584624
29,16,18,Jits_Linear_8,1,5,56,103,3543637336
29,16,18,Jits_Linear_8,2,5,80,127,3543667012
29,16,18,Jits_Linear_8,3,5,63,98,3543757128
29,16,18,Jits_Linear_8,0,1,48,55,3544139672
29,16,18,Jits_Linear_8,1,5,56,103,3544237388
29,16,18,Jits_Linear_8,2,5,80,127,3544346880
29,16,18,Jits_Linear_8,3,5,63,98,3544376780
29,16,18,Jits_Linear_8,0,1,48,60,3544777508
29,16,18,Jits_Linear_8,1,5,56,103,3544877416
29,16,18,Jits_Linear_8,2,5,63,98,3544936764
29,16,18,Jits_Linear_8,3,5,80,127,3544966584
29,16,18,Jits_Linear_8,0,5,56,103,3545436460
29,16,18,Jits_Linear_8,1,1,48,48,3545455096
29,16,18,Jits_Linear_8,2,5,63,98,3545507260
29,16,18,Jits_Linear_8,3,5,80,127,3545526524
29,16,18,Jits_Linear_8,0,5,80,127,3545996764
29,16,18,Jits_Linear_8,1,5,63,98,3546017076
29,16,18,Jits_Linear_8,2,1,48,43,3546061848
29,16,18,Jits_Linear_8,3,5,56,103,3546067492
29,16,18,Jits_Linear_8,0,5,63,98,3546596624
29,16,18,Jits_Linear_8,1,5,80,127,3546606968
29,16,18,Jits_Linear_8,2,1,48,27,3546615564
29,16,18,Jits_Linear_8,3,5,56,103,3546657412
29,16,18,Jits_Linear_8,0,1,48,62,3547137096
29,16,18,Jits_Linear_8,1,5,63,98,3547177376
29,16,18,Jits_Linear_8,2,5,80,127,3547246896
29,16,18,Jits_Linear_8,3,5,56,103,3547266384
29,16,18,Jits_Linear_8,0,1,48,60,3547735768
29,16,18,Jits_Linear_8,1,5,63,98,3547786588
29,16,18,Jits_Linear_8,2,5,80,127,3547789952
29,16,18,Jits_Linear_8,3,5,56,103,3547857372
29,16,18,Jits_Linear_8,0,5,80,127,3548317128
29,16,18,Jits_Linear_8,1,5,56,103,3548336392
29,16,18,Jits_Linear_8,2,1,48,65,3548339132
29,16,18,Jits_Linear_8,3,5,63,98,3548346804
29,16,18,Jits_Linear_8,0,5,56,103,3548917196
29,16,18,Jits_Linear_8,1,1,48,62,3548920244
29,16,18,Jits_Linear_8,2,5,63,98,3549007276
29,16,18,Jits_Linear_8,3,5,80,127,3549010492
29,16,18,Jits_Linear_8,0,5,80,127,3549467252
29,16,18,Jits_Linear_8,1,5,56,103,3549477448
29,16,18,Jits_Linear_8,2,5,63,98,3549496712
29,16,18,Jits_Linear_8,3,1,48,52,3549511588
29,16,18,Jits_Linear_8,0,5,63,98,3550037212
29,16,18,Jits_Linear_8,1,1,48,47,3550061232
29,16,18,Jits_Linear_8,2,5,80,127,3550096924
29,16,18,Jits_Linear_8,3,5,56,103,3550107268
29,16,18,Jits_Linear_8,0,1,48,37,3550609752
29,16,18,Jits_Linear_8,1,5,63,98,3550677432
29,16,18,Jits_Linear_8,2,5,80,127,3550708140
29,16,18,Jits_Linear_8,3,5,56,103,3550747280
29,16,18,Jits_Linear_8,0,1,48,60,3551192292
29,16,18,Jits_Linear_8,1,5,56,103,3551236604
29,16,18,Jits_Linear_8,2,5,80,127,3551246600
29,16,18,Jits_Linear_8,3,5,63,98,3551286612
29,16,18,Jits_Linear_8,0,1,48,56,3551753176
29,16,18,Jits_Linear_8,1,5,80,127,3551767020
29,16,18,Jits_Linear_8,2,5,56,103,3551846672
29,16,18,Jits_Linear_8,3,5,63,98,3551857152
29,16,18,Jits_Linear_8,0,1,48,54,3552332080
29,16,18,Jits_Linear_8,1,5,80,127,3552377064
29,16,18,Jits_Linear_8,2,5,56,103,3552457144
29,16,18,Jits_Linear_8,3,5,63,98,3552467268
29,16,18,Jits_Linear_8,0,5,80,127,3552897356
29,16,18,Jits_Linear_8,1,1,48,70,3552919504
29,16,18,Jits_Linear_8,2,5,56,103,3552946432
29,16,18,Jits_Linear_8,3,5,63,98,3552996784
29,16,18,Jits_Linear_8,0,1,48,42,3553494644
29,16,18,Jits_Linear_8,1,5,56,103,3553517140
29,16,18,Jits_Linear_8,2,5,63,98,3553520204
29,16,18,Jits_Linear_8,3,5,80,127,3553567144
29,16,18,Jits_Linear_8,0,1,48,68,3554056948
29,16,18,Jits_Linear_8,1,5,56,103,3554096408
29,16,18,Jits_Linear_8,2,5,63,98,3554127208
29,16,18,Jits_Linear_8,3,5,80,127,3554136284
29,16,18,Jits_Linear_8,0,5,63,98,3554566628
29,16,18,Jits_Linear_8,1,5,56,103,3554637088
29,16,18,Jits_Linear_8,2,1,48,46,3554672864
29,16,18,Jits_Linear_8,3,5,80,127,3554687208
29,16,18,Jits_Linear_8,0,5,63,98,3555157216
29,16,18,Jits_Linear_8,1,1,48,68,3555166732
29,16,18,Jits_Linear_8,2,5,56,103,3555168472
29,16,18,Jits_Linear_8,3,5,80,127,3555171064
29,16,18,Jits_Linear_8,0,5,80,127,3555657028
29,16,18,Jits_Linear_8,1,1,48,43,3555683816
29,16,18,Jits_Linear_8,2,5,56,103,3555716516
29,16,18,Jits_Linear_8,3,5,63,98,3555806632
29,16,18,Jits_Linear_8,0,5,80,127,3556206916
29,16,18,Jits_Linear_8,1,1,48,60,3556235292
29,16,18,Jits_Linear_8,2,5,56,103,3556307384
29,16,18,Jits_Linear_8,3,5,63,98,3556347304
29,16,18,Jits_Linear_8,0,5,56,103,3556807004
29,16,18,Jits_Linear_8,1,5,63,98,3556826416
29,16,18,Jits_Linear_8,2,1,48,64,3556828128
29,16,18,Jits_Linear_8,3,5,80,127,3556866348
29,16,18,Jits_Linear_8,0,5,63,98,3557327224
29,16,18,Jits_Linear_8,1,5,56,103,3557346932
29,16,18,Jits_Linear_8,2,1,48,32,3557383388
29,16,18,Jits_Linear_8,3,5,80,127,3557446976
29,16,18,Jits_Linear_8,0,1,48,59,3557853532
29,16,18,Jits_Linear_8,1,5,63,98,3557856712
29,16,18,Jits_Linear_8,2,5,80,127,3557967164
29,16,18,Jits_Linear_8,3,5,56,103,3557996912
29,16,18,Jits_Linear_8,0,1,48,69,3558396824
29,16,18,Jits_Linear_8,1,5,56,103,3558416880
29,16,18,Jits_Linear_8,2,5,63,98,3558446332
29,16,18,Jits_Linear_8,3,5,80,127,3558496740
29,16,18,Jits_Linear_8,0,5,63,98,3558927048
29,16,18,Jits_Linear_8,1,1,48,66,3558939312
29,16,18,Jits_Linear_8,2,5,56,103,3558957320
29,16,18,Jits_Linear_8,3,5,80,127,3559006696
29,16,18,Jits_Linear_8,0,1,48,59,3559441520
29,16,18,Jits_Linear_8,1,5,56,103,3559497144
29,16,18,Jits_Linear_8,2,5,63,98,3559516704
29,16,18,Jits_Linear_8,3,5,80,127,3559597384
29,16,18,Jits_Linear_8,0,1,48,56,3560007164
29,16,18,Jits_Linear_8,1,5,63,98,3560008804
29,16,18,Jits_Linear_8,2,5,56,103,3560066580
29,16,18,Jits_Linear_8,3,5,80,127,3560097004
29,16,18,Jits_Linear_8,0,5,56,103,3560586708
29,16,18,Jits_Linear_8,1,1,48,61,3560593940
29,16,18,Jits_Linear_8,2,5,80,127,3560646944
29,16,18,Jits_Linear_8,3,5,63,98,3560686884
29,16,18,Jits_Linear_8,0,5,63,98,3561096744
29,16,18,Jits_Linear_8,1,1,48,38,3561151032
29,16,18,Jits_Linear_8,2,5,56,103,3561156904
29,16,18,Jits_Linear_8,3,5,80,127,3561226736
29,16,18,Jits_Linear_8,0,1,48,57,3561637872
29,16,18,Jits_Linear_8,1,5,56,103,3561706832
29,16,18,Jits_Linear_8,2,5,63,98,3561717020
29,16,18,Jits_Linear_8,3,5,80,127,3561720464
29,16,18,Jits_Linear_8,0,1,48,61,3562152076
29,16,18,Jits_Linear_8,1,5,63,98,3562176984
29,16,18,Jits_Linear_8,2,5,56,103,3562237224
29,16,18,Jits_Linear_8,3,5,80,127,3562240516
29,16,18,Jits_Linear_8,0,1,48,52,3562655352
29,16,18,Jits_Linear_8,1,5,63,98,3562686840
29,16,18,Jits_Linear_8,2,5,80,127,3562716740
29,16,18,Jits_Linear_8,3,5,56,103,3562736904
29,16,18,Jits_Linear_8,0,1,48,57,3563136372
29,16,18,Jits_Linear_8,1,5,56,103,3563217164
29,16,18,Jits_Linear_8,2,5,63,98,3563266528
29,16,18,Jits_Linear_8,3,5,80,127,3563347244
29,16,18,Jits_Linear_8,0,1,48,59,3563616640
29,16,18,Jits_Linear_8,1,5,80,127,3563716896
29,16,18,Jits_Linear_8,2,5,63,98,3563756764
29,16,18,Jits_Linear_8,3,5,56,103,3563777596
29,16,18,Jits_Linear_8,0,1,48,70,3564197156
29,16,18,Jits_Linear_8,1,5,56,103,3564306876
29,16,18,Jits_Linear_8,2,5,80,127,3564317000
29,16,18,Jits_Linear_8,3,5,63,98,3564336856
29,16,18,Jits_Linear_8,0,1,48,76,3564759468
29,16,18,Jits_Linear_8,1,5,56,103,3564806548
29,16,18,Jits_Linear_8,2,5,63,98,3564856628
29,16,18,Jits_Linear_8,3,5,80,127,3564887560
29,16,18,Jits_Linear_8,0,5,56,103,3565276644
29,16,18,Jits_Linear_8,1,1,48,59,3565284400
29,16,18,Jits_Linear_8,2,5,63,98,3565286908
29,16,18,Jits_Linear_8,3,5,80,127,3565336984
29,16,18,Jits_Linear_8,0,5,56,103,3565786440
29,16,18,Jits_Linear_8,1,5,80,127,3565789360
29,16,18,Jits_Linear_8,2,1,48,58,3565790548
29,16,18,Jits_Linear_8,3,5,63,98,3565947592
29,16,18,Jits_Linear_8,0,1,48,55,3566266612
29,16,18,Jits_Linear_8,1,5,63,98,3566317056
29,16,18,Jits_Linear_8,2,5,56,103,3566386452
29,16,18,Jits_Linear_8,3,5,80,127,3566426616
29,16,18,Jits_Linear_8,0,1,48,53,3566824412
29,16,18,Jits_Linear_8,1,5,63,98,3566866812
29,16,18,Jits_Linear_8,2,5,56,103,3566956856
29,16,18,Jits_Linear_8,3,5,80,127,3566959996
29,16,18,Jits_Linear_8,0,5,56,103,3567357324
29,16,18,Jits_Linear_8,1,1,48,60,3567433812
29,16,18,Jits_Linear_8,2,5,63,98,3567447556
29,16,18,Jits_Linear_8,3,5,80,127,3567456556
29,16,18,Jits_Linear_8,0,5,56,103,3567836496
29,16,18,Jits_Linear_8,1,5,63,98,3567886652
29,16,18,Jits_Linear_8,2,5,80,127,3567917600
29,16,18,Jits_Linear_8,3,1,48,67,3567945824
29,16,18,Jits_Linear_8,0,1,48,52,3568400760
29,16,18,Jits_Linear_8,1,5,63,98,3568417272
29,16,18,Jits_Linear_8,2,5,80,127,3568427396
29,16,18,Jits_Linear_8,3,5,56,103,3568486664
29,16,18,Jits_Linear_8,0,5,63,98,3568837072
29,16,18,Jits_Linear_8,1,1,48,51,3568877656
29,16,18,Jits_Linear_8,2,5,80,127,3568897308
29,16,18,Jits_Linear_8,3,5,56,103,3568937268
29,16,18,Jits_Linear_8,0,1,48,67,3569339628
29,16,18,Jits_Linear_8,1,5,56,103,3569437228
29,16,18,Jits_Linear_8,2,5,80,127,3569456480
29,16,18,Jits_Linear_8,3,5,63,98,3569477236
29,16,18,Jits_Linear_8,0,5,63,98,3569856808
29,16,18,Jits_Linear_8,1,1,48,46,3569871088
29,16,18,Jits_Linear_8,2,5,56,103,3569877336
29,16,18,Jits_Linear_8,3,5,80,127,3569917272
29,16,18,Jits_Linear_8,0,1,48,42,3570353816
29,16,18,Jits_Linear_8,1,5,63,98,3570367188
29,16,18,Jits_Linear_8,2,5,80,127,3570396492
29,16,18,Jits_Linear_8,3,5,56,103,3570416952
29,16,18,Jits_Linear_8,0,1,48,66,3570812664
29,16,18,Jits_Linear_8,1,5,80,127,3570836900
29,16,18,Jits_Linear_8,2,5,56,103,3570887104
29,16,18,Jits_Linear_8,3,5,63,98,3570946360
29,16,18,Jits_Linear_8,0,5,63,98,3571317328
29,16,18,Jits_Linear_8,1,1,48,62,3571325624
29,16,18,Jits_Linear_8,2,5,56,103,3571437040
29,16,18,Jits_Linear_8,3,5,80,127,3571466664
29,16,18,Jits_Linear_8,0,1,48,54,3571820272
29,16,18,Jits_Linear_8,1,5,80,127,3571846528
29,16,18,Jits_Linear_8,2,5,63,98,3571867060
29,16,18,Jits_Linear_8,3,5,56,103,3571936580
29,16,18,Jits_Linear_8,0,1,48,46,3572325584
29,16,18,Jits_Linear_8,1,5,63,98,3572356396
29,16,18,Jits_Linear_8,2,5,56,103,3572366592
29,16,18,Jits_Linear_8,3,5,80,127,3572446448
29,16,18,Jits_Linear_8,0,1,48,65,3572822556
29,16,18,Jits_Linear_8,1,5,56,103,3572907328
29,16,18,Jits_Linear_8,2,5,80,127,3572937288
29,16,18,Jits_Linear_8,3,5,63,98,3572947260
29,16,18,Jits_Linear_8,0,9999,9999,9999,3462554744
29,16,18,Jits_Linear_8,1,9999,9999,9999,3463374956
29,16,18,Jits_Linear_8,2,9999,9999,9999,3464194120
29,16,18,Jits_Linear_8,3,9999,9999,9999,3465014344
29,16,18,Jits_Linear_8,4,9999,9999,9999,3465834560
29,16,18,Jits_Linear_8,5,9999,9999,9999,3466644584
29,16,18,Jits_Linear_8,6,9999,9999,9999,3467454524
29,16,18,Jits_Linear_8,7,9999,9999,9999,3468264556
29,16,18,Jits_Linear_8,8,9999,9999,9999,3469074532
29,16,18,Jits_Linear_8,9,9999,9999,9999,3469884536
29,16,18,Jits_Linear_8,10,9999,9999,9999,3470684240
29,16,18,Jits_Linear_8,11,9999,9999,9999,3471485040
29,16,18,Jits_Linear_8,12,9999,9999,9999,3472284740
29,16,18,Jits_Linear_8,13,9999,9999,9999,3473084492
29,16,18,Jits_Linear_8,14,9999,9999,9999,3473884232
29,16,18,Jits_Linear_8,15,9999,9999,9999,3474674764
29,16,18,Jits_Linear_8,16,9999,9999,9999,3475464312
29,16,18,Jits_Linear_8,17,9999,9999,9999,3476254800
29,16,18,Jits_Linear_8,18,9999,9999,9999,3477044296
29,16,18,Jits_Linear_8,19,9999,9999,9999,3477834840
29,16,18,Jits_Linear_8,20,9999,9999,9999,3478614144
29,16,18,Jits_Linear_8,21,9999,9999,9999,3479394416
29,16,18,Jits_Linear_8,22,9999,9999,9999,3480174696
29,16,18,Jits_Linear_8,23,9999,9999,9999,3480954972
29,16,18,Jits_Linear_8,24,9999,9999,9999,3481734272
29,16,18,Jits_Linear_8,25,9999,9999,9999,3482504280
29,16,18,Jits_Linear_8,26,9999,9999,9999,3483274368
29,16,18,Jits_Linear_8,27,9999,9999,9999,3484044392
29,16,18,Jits_Linear_8,28,9999,9999,9999,3484814416
29,16,18,Jits_Linear_8,29,9999,9999,9999,3485584444
29,16,18,Jits_Linear_8,30,9999,9999,9999,3486344264
29,16,18,Jits_Linear_8,31,9999,9999,9999,3487104088
29,16,18,Jits_Linear_8,32,9999,9999,9999,3487864920
29,16,18,Jits_Linear_8,33,9999,9999,9999,3488624744
29,16,18,Jits_Linear_8,34,9999,9999,9999,3489384500
29,16,18,Jits_Linear_8,35,9999,9999,9999,3490134072
29,16,18,Jits_Linear_8,36,9999,9999,9999,3490884680
29,16,18,Jits_Linear_8,37,9999,9999,9999,3491634240
29,16,18,Jits_Linear_8,38,9999,9999,9999,3492384856
29,16,18,Jits_Linear_8,39,9999,9999,9999,3493134408
29,16,18,Jits_Linear_8,40,9999,9999,9999,3493874760
29,16,18,Jits_Linear_8,41,9999,9999,9999,3494614072
29,16,18,Jits_Linear_8,42,9999,9999,9999,3495354484
29,16,18,Jits_Linear_8,43,9999,9999,9999,3496094832
29,16,18,Jits_Linear_8,44,9999,9999,9999,3496834108
29,16,18,Jits_Linear_8,45,9999,9999,9999,3497564264
29,16,18,Jits_Linear_8,46,9999,9999,9999,3498294348
29,16,18,Jits_Linear_8,47,9999,9999,9999,3499024496
29,16,18,Jits_Linear_8,48,9999,9999,9999,3499754564
29,16,18,Jits_Linear_8,49,9999,9999,9999,3500484728
29,16,18,Jits_Linear_8,50,9999,9999,9999,3501204544
29,16,18,Jits_Linear_8,51,9999,9999,9999,3501924452
29,16,18,Jits_Linear_8,52,9999,9999,9999,3502644288
29,16,18,Jits_Linear_8,53,9999,9999,9999,3503364172
29,16,18,Jits_Linear_8,54,9999,9999,9999,3504085104
29,16,18,Jits_Linear_8,55,9999,9999,9999,3504794748
29,16,18,Jits_Linear_8,56,9999,9999,9999,3505504372
29,16,18,Jits_Linear_8,57,9999,9999,9999,3506214992
29,16,18,Jits_Linear_8,58,9999,9999,9999,3506924672
29,16,18,Jits_Linear_8,59,9999,9999,9999,3507634300
29,16,18,Jits_Linear_8,60,9999,9999,9999,3508334708
29,16,18,Jits_Linear_8,61,9999,9999,9999,3509035120
29,16,18,Jits_Linear_8,62,9999,9999,9999,3509744724
29,16,18,Jits_Linear_8,63,9999,9999,9999,3510444152
29,16,18,Jits_Linear_8,64,9999,9999,9999,3511144568
29,16,18,Jits_Linear_8,65,9999,9999,9999,3511834700
29,16,18,Jits_Linear_8,66,9999,9999,9999,3512524904
29,16,18,Jits_Linear_8,67,9999,9999,9999,3513215056
29,16,18,Jits_Linear_8,68,9999,9999,9999,3513904220
29,16,18,Jits_Linear_8,69,9999,9999,9999,3514594360
29,16,18,Jits_Linear_8,70,9999,9999,9999,3515274324
29,16,18,Jits_Linear_8,71,9999,9999,9999,3515954296
29,16,18,Jits_Linear_8,72,9999,9999,9999,3516634228
29,16,18,Jits_Linear_8,73,9999,9999,9999,3517314128
29,16,18,Jits_Linear_8,74,9999,9999,9999,3517995068
29,16,18,Jits_Linear_8,75,9999,9999,9999,3518675004
29,16,18,Jits_Linear_8,76,9999,9999,9999,3519344700
29,16,18,Jits_Linear_8,77,9999,9999,9999,3520014400
29,16,18,Jits_Linear_8,78,9999,9999,9999,3520684140
29,16,18,Jits_Linear_8,79,9999,9999,9999,3521354820
29,16,18,Jits_Linear_8,80,9999,9999,9999,3522014308
29,16,18,Jits_Linear_8,81,9999,9999,9999,3522674784
29,16,18,Jits_Linear_8,82,9999,9999,9999,3523334268
29,16,18,Jits_Linear_8,83,9999,9999,9999,3523994732
29,16,18,Jits_Linear_8,84,9999,9999,9999,3524654172
29,16,18,Jits_Linear_8,85,9999,9999,9999,3525304440
29,16,18,Jits_Linear_8,86,9999,9999,9999,3525954656
29,16,18,Jits_Linear_8,87,9999,9999,9999,3526604920
29,16,18,Jits_Linear_8,88,9999,9999,9999,3527254080
29,16,18,Jits_Linear_8,89,9999,9999,9999,3527904352
29,16,18,Jits_Linear_8,90,9999,9999,9999,3528544312
29,16,18,Jits_Linear_8,91,9999,9999,9999,3529184380
29,16,18,Jits_Linear_8,92,9999,9999,9999,3529824348
29,16,18,Jits_Linear_8,93,9999,9999,9999,3530464344
29,16,18,Jits_Linear_8,94,9999,9999,9999,3531104372
29,16,18,Jits_Linear_8,95,9999,9999,9999,3531734124
29,16,18,Jits_Linear_8,96,9999,9999,9999,3532364872
29,16,18,Jits_Linear_8,97,9999,9999,9999,3532994684
29,16,18,Jits_Linear_8,98,9999,9999,9999,3533624380
29,16,18,Jits_Linear_8,99,9999,9999,9999,3534254196
29,16,18,Jits_Linear_8,100,9999,9999,9999,3534874688
29,16,18,Jits_Linear_8,101,9999,9999,9999,3535494232
29,16,18,Jits_Linear_8,102,9999,9999,9999,3536114748
29,16,18,Jits_Linear_8,103,9999,9999,9999,3536734312
29,16,18,Jits_Linear_8,104,9999,9999,9999,3537354844
29,16,18,Jits_Linear_8,105,9999,9999,9999,3537964092
29,16,18,Jits_Linear_8,106,9999,9999,9999,3538574420
29,16,18,Jits_Linear_8,107,9999,9999,9999,3539184732
29,16,18,Jits_Linear_8,108,9999,9999,9999,3539795024
29,16,18,Jits_Linear_8,109,9999,9999,9999,3540404304
29,16,18,Jits_Linear_8,110,9999,9999,9999,3541004376
29,16,18,Jits_Linear_8,111,9999,9999,9999,3541604448
29,16,18,Jits_Linear_8,112,9999,9999,9999,3542204524
29,16,18,Jits_Linear_8,113,9999,9999,9999,3542804560
29,16,18,Jits_Linear_8,114,9999,9999,9999,3543404640
29,16,18,Jits_Linear_8,115,9999,9999,9999,3543994448
29,16,18,Jits_Linear_8,116,9999,9999,9999,3544584256
29,16,18,Jits_Linear_8,117,9999,9999,9999,3545174092
29,16,18,Jits_Linear_8,118,9999,9999,9999,3545764948
29,16,18,Jits_Linear_8,119,9999,9999,9999,3546354764
29,16,18,Jits_Linear_8,120,9999,9999,9999,3546934344
29,16,18,Jits_Linear_8,121,9999,9999,9999,3547514936
29,16,18,Jits_Linear_8,122,9999,9999,9999,3548094544
29,16,18,Jits_Linear_8,123,9999,9999,9999,3548674152
29,16,18,Jits_Linear_8,124,9999,9999,9999,3549254768
29,16,18,Jits_Linear_8,125,9999,9999,9999,3549824056
29,16,18,Jits_Linear_8,126,9999,9999,9999,3550394464
29,16,18,Jits_Linear_8,127,9999,9999,9999,3550964796
29,16,18,Jits_Linear_8,128,9999,9999,9999,3551534180
29,16,18,Jits_Linear_8,129,9999,9999,9999,3552104512
29,16,18,Jits_Linear_8,130,9999,9999,9999,3552664660
29,16,18,Jits_Linear_8,131,9999,9999,9999,3553224796
29,16,18,Jits_Linear_8,132,9999,9999,9999,3553784944
29,16,18,Jits_Linear_8,133,9999,9999,9999,3554345040
29,16,18,Jits_Linear_8,134,9999,9999,9999,3554904136
29,16,18,Jits_Linear_8,135,9999,9999,9999,3555455044
29,16,18,Jits_Linear_8,136,9999,9999,9999,3556004920
29,16,18,Jits_Linear_8,137,9999,9999,9999,3556554808
29,16,18,Jits_Linear_8,138,9999,9999,9999,3557104700
29,16,18,Jits_Linear_8,139,9999,9999,9999,3557654616
29,16,18,Jits_Linear_8,140,9999,9999,9999,3558194304
29,16,18,Jits_Linear_8,141,9999,9999,9999,3558734960
29,16,18,Jits_Linear_8,142,9999,9999,9999,3559274568
29,16,18,Jits_Linear_8,143,9999,9999,9999,3559814252
29,16,18,Jits_Linear_8,144,9999,9999,9999,3560354904
29,16,18,Jits_Linear_8,145,9999,9999,9999,3560884336
29,16,18,Jits_Linear_8,146,9999,9999,9999,3561414720
29,16,18,Jits_Linear_8,147,9999,9999,9999,3561944140
29,16,18,Jits_Linear_8,148,9999,9999,9999,3562474604
29,16,18,Jits_Linear_8,149,9999,9999,9999,3563004996
29,16,18,Jits_Linear_8,150,9999,9999,9999,3563524160
29,16,18,Jits_Linear_8,151,9999,9999,9999,3564044380
29,16,18,Jits_Linear_8,152,9999,9999,9999,3564564588
29,16,18,Jits_Linear_8,153,9999,9999,9999,3565084800
29,16,18,Jits_Linear_8,154,9999,9999,9999,3565604928
29,16,18,Jits_Linear_8,155,9999,9999,9999,3566114872
29,16,18,Jits_Linear_8,156,9999,9999,9999,3566624828
29,16,18,Jits_Linear_8,157,9999,9999,9999,3567134840
29,16,18,Jits_Linear_8,158,9999,9999,9999,3567644788
29,16,18,Jits_Linear_8,159,9999,9999,9999,3568154748
29,16,18,Jits_Linear_8,160,9999,9999,9999,3568654448
29,16,18,Jits_Linear_8,161,9999,9999,9999,3569154172
29,16,18,Jits_Linear_8,162,9999,9999,9999,3569654900
29,16,18,Jits_Linear_8,163,9999,9999,9999,3570154576
29,16,18,Jits_Linear_8,164,9999,9999,9999,3570654332
29,16,18,Jits_Linear_8,165,9999,9999,9999,3571144796
29,16,18,Jits_Linear_8,166,9999,9999,9999,3571634292
29,16,18,Jits_Linear_8,167,9999,9999,9999,3572124756
29,16,18,Jits_Linear_8,168,9999,9999,9999,3572614244
29,16,18,Jits_Linear_8,169,9999,9999,9999,3573104720
29,17,19,Jits_Linear_5,0,5,56,103,3587946824
29,17,19,Jits_Linear_5,1,5,63,98,3587950000
29,17,19,Jits_Linear_5,2,5,80,127,3587953124
29,17,19,Jits_Linear_5,0,5,56,103,3588427368
29,17,19,Jits_Linear_5,1,5,63,98,3588430468
29,17,19,Jits_Linear_5,2,5,80,127,3588433512
29,17,19,Jits_Linear_5,0,5,56,103,3588907324
29,17,19,Jits_Linear_5,1,5,80,127,3588916548
29,17,19,Jits_Linear_5,2,5,63,98,3588936932
29,17,19,Jits_Linear_5,3,1,48,53,3588955788
29,17,19,Jits_Linear_5,0,5,63,98,3589336428
29,17,19,Jits_Linear_5,1,5,80,127,3589367372
29,17,19,Jits_Linear_5,2,5,56,103,3589377496
29,17,19,Jits_Linear_5,3,1,48,57,3589381588
29,17,19,Jits_Linear_5,0,1,48,59,3589790664
29,17,19,Jits_Linear_5,1,5,80,127,3589877460
29,17,19,Jits_Linear_5,2,5,56,103,3589887416
29,17,19,Jits_Linear_5,3,5,63,98,3589916896
29,17,19,Jits_Linear_5,0,1,48,62,3590295992
29,17,19,Jits_Linear_5,1,5,63,98,3590357524
29,17,19,Jits_Linear_5,2,5,56,103,3590387348
29,17,19,Jits_Linear_5,3,5,80,127,3590397456
29,17,19,Jits_Linear_5,0,5,56,103,3590796616
29,17,19,Jits_Linear_5,1,1,48,30,3590823404
29,17,19,Jits_Linear_5,2,5,63,98,3590846812
29,17,19,Jits_Linear_5,3,5,80,127,3590867272
29,17,19,Jits_Linear_5,0,1,48,51,3591251028
29,17,19,Jits_Linear_5,1,5,80,127,3591287392
29,17,19,Jits_Linear_5,2,5,63,98,3591337524
29,17,19,Jits_Linear_5,3,5,56,103,3591377224
29,17,19,Jits_Linear_5,0,1,48,61,3591726600
29,17,19,Jits_Linear_5,1,5,56,103,3591776748
29,17,19,Jits_Linear_5,2,5,63,98,3591807396
29,17,19,Jits_Linear_5,3,5,80,127,3591877064
29,17,19,Jits_Linear_5,0,1,48,56,3592242160
29,17,19,Jits_Linear_5,1,5,56,103,3592267368
29,17,19,Jits_Linear_5,2,5,80,127,3592326492
29,17,19,Jits_Linear_5,3,5,63,98,3592357200
29,17,19,Jits_Linear_5,0,1,48,57,3592692448
29,17,19,Jits_Linear_5,1,5,56,103,3592766760
29,17,19,Jits_Linear_5,2,5,63,98,3592777256
29,17,19,Jits_Linear_5,3,5,80,127,3592817180
29,17,19,Jits_Linear_5,0,1,48,51,3593190264
29,17,19,Jits_Linear_5,1,5,63,98,3593257452
29,17,19,Jits_Linear_5,2,5,80,127,3593337312
29,17,19,Jits_Linear_5,3,5,56,103,3593346388
29,17,19,Jits_Linear_5,0,1,48,52,3593684332
29,17,19,Jits_Linear_5,1,5,63,98,3593807256
29,17,19,Jits_Linear_5,2,5,56,103,3593847268
29,17,19,Jits_Linear_5,3,5,80,127,3593850336
29,17,19,Jits_Linear_5,0,1,48,43,3594215576
29,17,19,Jits_Linear_5,1,5,56,103,3594267164
29,17,19,Jits_Linear_5,2,5,63,98,3594277212
29,17,19,Jits_Linear_5,3,5,80,127,3594317140
29,17,19,Jits_Linear_5,0,1,48,61,3594684696
29,17,19,Jits_Linear_5,1,5,56,103,3594756336
29,17,19,Jits_Linear_5,2,5,63,98,3594759560
29,17,19,Jits_Linear_5,3,5,80,127,3594777272
29,17,19,Jits_Linear_5,0,1,48,59,3595161056
29,17,19,Jits_Linear_5,1,5,80,127,3595276560
29,17,19,Jits_Linear_5,2,5,56,103,3595286980
29,17,19,Jits_Linear_5,3,5,63,98,3595356588
29,17,19,Jits_Linear_5,0,1,48,63,3595683444
29,17,19,Jits_Linear_5,1,5,63,98,3595777496
29,17,19,Jits_Linear_5,2,5,56,103,3595796932
29,17,19,Jits_Linear_5,3,5,80,127,3595876580
29,17,19,Jits_Linear_5,0,1,48,47,3596216488
29,17,19,Jits_Linear_5,1,5,56,103,3596296704
29,17,19,Jits_Linear_5,2,5,80,127,3596336628
29,17,19,Jits_Linear_5,3,5,63,98,3596347120
29,17,19,Jits_Linear_5,0,1,48,38,3596710764
29,17,19,Jits_Linear_5,1,5,80,127,3596806480
29,17,19,Jits_Linear_5,2,5,63,98,3596837116
29,17,19,Jits_Linear_5,3,5,56,103,3596877204
29,17,19,Jits_Linear_5,0,1,48,67,3597240028
29,17,19,Jits_Linear_5,1,5,56,103,3597337184
29,17,19,Jits_Linear_5,2,5,63,98,3597366696
29,17,19,Jits_Linear_5,3,5,80,127,3597416900
29,17,19,Jits_Linear_5,0,1,48,53,3597770584
29,17,19,Jits_Linear_5,1,5,80,127,3597846992
29,17,19,Jits_Linear_5,2,5,56,103,3597886988
29,17,19,Jits_Linear_5,3,5,63,98,3597897112
29,17,19,Jits_Linear_5,0,1,48,51,3598273188
29,17,19,Jits_Linear_5,1,5,80,127,3598346600
29,17,19,Jits_Linear_5,2,5,63,98,3598386604
29,17,19,Jits_Linear_5,3,5,56,103,3598446920
29,17,19,Jits_Linear_5,0,1,48,61,3598791164
29,17,19,Jits_Linear_5,1,5,56,103,3598867040
29,17,19,Jits_Linear_5,2,5,80,127,3598877016
29,17,19,Jits_Linear_5,3,5,63,98,3598956872
29,17,19,Jits_Linear_5,0,1,48,59,3599297520
29,17,19,Jits_Linear_5,1,5,80,127,3599386960
29,17,19,Jits_Linear_5,2,5,63,98,3599447340
29,17,19,Jits_Linear_5,3,5,56,103,3599477164
29,17,19,Jits_Linear_5,0,1,48,56,3599879924
29,17,19,Jits_Linear_5,1,5,56,103,3599907076
29,17,19,Jits_Linear_5,2,5,80,127,3599966572
29,17,19,Jits_Linear_5,3,5,63,98,3600006500
29,17,19,Jits_Linear_5,0,1,48,66,3600434472
29,17,19,Jits_Linear_5,1,5,56,103,3600487012
29,17,19,Jits_Linear_5,2,5,63,98,3600497056
29,17,19,Jits_Linear_5,3,5,80,127,3600500272
29,17,19,Jits_Linear_5,0,1,48,67,3600935720
29,17,19,Jits_Linear_5,1,5,80,127,3600966984
29,17,19,Jits_Linear_5,2,5,63,98,3601057108
29,17,19,Jits_Linear_5,3,5,56,103,3601067456
29,17,19,Jits_Linear_5,0,1,48,53,3601465604
29,17,19,Jits_Linear_5,1,5,56,103,3601496628
29,17,19,Jits_Linear_5,2,5,63,98,3601499952
29,17,19,Jits_Linear_5,3,5,80,127,3601503144
29,17,19,Jits_Linear_5,0,1,48,71,3601965712
29,17,19,Jits_Linear_5,1,5,80,127,3602047256
29,17,19,Jits_Linear_5,2,5,63,98,3602096472
29,17,19,Jits_Linear_5,3,5,56,103,3602127120
29,17,19,Jits_Linear_5,0,1,48,61,3602512668
29,17,19,Jits_Linear_5,1,5,56,103,3602557284
29,17,19,Jits_Linear_5,2,5,80,127,3602566656
29,17,19,Jits_Linear_5,3,5,63,98,3602637224
29,17,19,Jits_Linear_5,0,1,48,55,3603012428
29,17,19,Jits_Linear_5,1,5,56,103,3603096904
29,17,19,Jits_Linear_5,2,5,63,98,3603117352
29,17,19,Jits_Linear_5,3,5,80,127,3603176772
29,17,19,Jits_Linear_5,0,1,48,61,3603595452
29,17,19,Jits_Linear_5,1,5,80,127,3603627312
29,17,19,Jits_Linear_5,2,5,63,98,3603696980
29,17,19,Jits_Linear_5,3,5,56,103,3603716396
29,17,19,Jits_Linear_5,0,1,48,62,3604143748
29,17,19,Jits_Linear_5,1,5,80,127,3604186716
29,17,19,Jits_Linear_5,2,5,56,103,3604196764
29,17,19,Jits_Linear_5,3,5,63,98,3604206960
29,17,19,Jits_Linear_5,0,1,48,67,3604656100
29,17,19,Jits_Linear_5,1,5,80,127,3604716816
29,17,19,Jits_Linear_5,2,5,56,103,3604737500
29,17,19,Jits_Linear_5,3,5,63,98,3604807044
29,17,19,Jits_Linear_5,0,1,48,51,3605205536
29,17,19,Jits_Linear_5,1,5,56,103,3605266872
29,17,19,Jits_Linear_5,2,5,80,127,3605297360
29,17,19,Jits_Linear_5,3,5,63,98,3605316844
29,17,19,Jits_Linear_5,0,1,48,59,3605762976
29,17,19,Jits_Linear_5,1,5,63,98,3605806644
29,17,19,Jits_Linear_5,2,5,56,103,3605866800
29,17,19,Jits_Linear_5,3,5,80,127,3605896696
29,17,19,Jits_Linear_5,0,1,48,63,3606276980
29,17,19,Jits_Linear_5,1,5,63,98,3606347084
29,17,19,Jits_Linear_5,2,5,80,127,3606350672
29,17,19,Jits_Linear_5,3,5,56,103,3606437280
29,17,19,Jits_Linear_5,0,1,48,72,3606829724
29,17,19,Jits_Linear_5,1,5,56,103,3606916592
29,17,19,Jits_Linear_5,2,5,63,98,3606947152
29,17,19,Jits_Linear_5,3,5,80,127,3606987092
29,17,19,Jits_Linear_5,0,1,48,57,3607416036
29,17,19,Jits_Linear_5,1,5,63,98,3607467528
29,17,19,Jits_Linear_5,2,5,56,103,3607507468
29,17,19,Jits_Linear_5,3,5,80,127,3607526792
29,17,19,Jits_Linear_5,0,1,48,81,3607938788
29,17,19,Jits_Linear_5,1,5,63,98,3608026704
29,17,19,Jits_Linear_5,2,5,56,103,3608066484
29,17,19,Jits_Linear_5,3,5,80,127,3608076704
29,17,19,Jits_Linear_5,0,1,48,46,3608468972
29,17,19,Jits_Linear_5,1,5,80,127,3608556812
29,17,19,Jits_Linear_5,2,5,63,98,3608626660
29,17,19,Jits_Linear_5,3,5,56,103,3608646968
29,17,19,Jits_Linear_5,0,1,48,61,3609040064
29,17,19,Jits_Linear_5,1,5,56,103,3609116916
29,17,19,Jits_Linear_5,2,5,80,127,3609136388
29,17,19,Jits_Linear_5,3,5,63,98,3609176328
29,17,19,Jits_Linear_5,0,1,48,48,3609638300
29,17,19,Jits_Linear_5,1,5,63,98,3609687624
29,17,19,Jits_Linear_5,2,5,80,127,3609706812
29,17,19,Jits_Linear_5,3,5,56,103,3609746812
29,17,19,Jits_Linear_5,0,1,48,78,3610192968
29,17,19,Jits_Linear_5,1,5,63,98,3610246644
29,17,19,Jits_Linear_5,2,5,56,103,3610267032
29,17,19,Jits_Linear_5,3,5,80,127,3610277448
29,17,19,Jits_Linear_5,0,1,48,39,3610734604
29,17,19,Jits_Linear_5,1,5,80,127,3610806564
29,17,19,Jits_Linear_5,2,5,56,103,3610827324
29,17,19,Jits_Linear_5,3,5,63,98,3610856760
29,17,19,Jits_Linear_5,0,1,48,57,3611260064
29,17,19,Jits_Linear_5,1,5,56,103,3611446664
29,17,19,Jits_Linear_5,2,5,80,127,3611449732
29,17,19,Jits_Linear_5,3,5,63,98,3611467048
29,17,19,Jits_Linear_5,0,5,63,98,3611937300
29,17,19,Jits_Linear_5,1,5,56,103,3611966828
29,17,19,Jits_Linear_5,2,5,80,127,3612027296
29,17,19,Jits_Linear_5,0,1,48,63,3612339028
29,17,19,Jits_Linear_5,1,5,63,98,3612587444
29,17,19,Jits_Linear_5,2,5,56,103,3612596596
29,17,19,Jits_Linear_5,3,5,80,127,3612606940
29,17,19,Jits_Linear_5,0,1,48,70,3612873552
29,17,19,Jits_Linear_5,1,5,56,103,3613106620
29,17,19,Jits_Linear_5,2,5,80,127,3613137420
29,17,19,Jits_Linear_5,3,5,63,98,3613146496
29,17,19,Jits_Linear_5,0,1,48,61,3613414924
29,17,19,Jits_Linear_5,1,5,63,98,3613716756
29,17,19,Jits_Linear_5,2,5,56,103,3613727176
29,17,19,Jits_Linear_5,3,5,80,127,3613746516
29,17,19,Jits_Linear_5,0,1,48,63,3613985276
29,17,19,Jits_Linear_5,1,5,56,103,3614216580
29,17,19,Jits_Linear_5,2,5,63,98,3614277120
29,17,19,Jits_Linear_5,3,5,80,127,3614280336
29,17,19,Jits_Linear_5,4,1,48,59,3614494512
29,17,19,Jits_Linear_5,0,5,80,127,3614816572
29,17,19,Jits_Linear_5,1,5,56,103,3614826992
29,17,19,Jits_Linear_5,2,5,63,98,3614896376
29,17,19,Jits_Linear_5,3,1,48,54,3615009492
29,17,19,Jits_Linear_5,0,5,80,127,3615387220
29,17,19,Jits_Linear_5,1,5,56,103,3615456756
29,17,19,Jits_Linear_5,2,5,63,98,3615466804
29,17,19,Jits_Linear_5,3,1,48,54,3615531968
29,17,19,Jits_Linear_5,0,5,63,98,3616006576
29,17,19,Jits_Linear_5,1,5,56,103,3616016848
29,17,19,Jits_Linear_5,2,5,80,127,3616037308
29,17,19,Jits_Linear_5,3,1,48,52,3616075196
29,17,19,Jits_Linear_5,0,5,80,127,3616537124
29,17,19,Jits_Linear_5,1,5,63,98,3616597296
29,17,19,Jits_Linear_5,2,1,48,53,3616618924
29,17,19,Jits_Linear_5,3,5,56,103,3616637304
29,17,19,Jits_Linear_5,0,1,48,61,3617161468
29,17,19,Jits_Linear_5,1,5,56,103,3617166668
29,17,19,Jits_Linear_5,2,5,63,98,3617177088
29,17,19,Jits_Linear_5,3,5,80,127,3617217028
29,17,19,Jits_Linear_5,0,5,56,103,3617716488
29,17,19,Jits_Linear_5,1,1,48,50,3617731744
29,17,19,Jits_Linear_5,2,5,80,127,3617747204
29,17,19,Jits_Linear_5,3,5,63,98,3617796584
29,17,19,Jits_Linear_5,0,1,48,51,3618278760
29,17,19,Jits_Linear_5,1,5,56,103,3618347368
29,17,19,Jits_Linear_5,2,5,63,98,3618387364
29,17,19,Jits_Linear_5,3,5,80,127,3618390504
29,17,19,Jits_Linear_5,0,1,48,59,3618888148
29,17,19,Jits_Linear_5,1,5,56,103,3618937248
29,17,19,Jits_Linear_5,2,5,63,98,3618946400
29,17,19,Jits_Linear_5,3,5,80,127,3618966932
29,17,19,Jits_Linear_5,0,1,48,61,3619455568
29,17,19,Jits_Linear_5,1,5,56,103,3619487204
29,17,19,Jits_Linear_5,2,5,80,127,3619490124
29,17,19,Jits_Linear_5,3,5,63,98,3619527144
29,17,19,Jits_Linear_5,0,1,48,56,3620021688
29,17,19,Jits_Linear_5,1,5,63,98,3620117124
29,17,19,Jits_Linear_5,2,5,56,103,3620146636
29,17,19,Jits_Linear_5,3,5,80,127,3620167020
29,17,19,Jits_Linear_5,0,1,48,54,3620610684
29,17,19,Jits_Linear_5,1,5,80,127,3620687160
29,17,19,Jits_Linear_5,2,5,56,103,3620696384
29,17,19,Jits_Linear_5,3,5,63,98,3620707028
29,17,19,Jits_Linear_5,0,1,48,57,3621226824
29,17,19,Jits_Linear_5,1,5,56,103,3621287312
29,17,19,Jits_Linear_5,2,5,80,127,3621327236
29,17,19,Jits_Linear_5,3,5,63,98,3621357064
29,17,19,Jits_Linear_5,0,1,48,56,3621802468
29,17,19,Jits_Linear_5,1,5,63,98,3621896412
29,17,19,Jits_Linear_5,2,5,80,127,3621906892
29,17,19,Jits_Linear_5,3,5,56,103,3621917088
29,17,19,Jits_Linear_5,0,1,48,51,3622393552
29,17,19,Jits_Linear_5,1,5,56,103,3622477304
29,17,19,Jits_Linear_5,2,5,63,98,3622546828
29,17,19,Jits_Linear_5,3,5,80,127,3622557024
29,17,19,Jits_Linear_5,0,1,48,39,3622980332
29,17,19,Jits_Linear_5,1,5,80,127,3623086444
29,17,19,Jits_Linear_5,2,5,56,103,3623096640
29,17,19,Jits_Linear_5,3,5,63,98,3623146840
29,17,19,Jits_Linear_5,0,1,48,57,3623578464
29,17,19,Jits_Linear_5,1,5,80,127,3623706848
29,17,19,Jits_Linear_5,2,5,56,103,3623767392
29,17,19,Jits_Linear_5,3,5,63,98,3623797068
29,17,19,Jits_Linear_5,0,1,48,38,3624174564
29,17,19,Jits_Linear_5,1,5,56,103,3624317268
29,17,19,Jits_Linear_5,2,5,80,127,3624320412
29,17,19,Jits_Linear_5,3,5,63,98,3624357208
29,17,19,Jits_Linear_5,0,1,48,62,3624830336
29,17,19,Jits_Linear_5,1,5,56,103,3624957272
29,17,19,Jits_Linear_5,2,5,63,98,3624987048
29,17,19,Jits_Linear_5,3,5,80,127,3624997172
29,17,19,Jits_Linear_5,0,1,48,69,3625447280
29,17,19,Jits_Linear_5,1,5,63,98,3625576788
29,17,19,Jits_Linear_5,2,5,80,127,3625587136
29,17,19,Jits_Linear_5,3,5,56,103,3625597184
29,17,19,Jits_Linear_5,0,1,48,62,3626045524
29,17,19,Jits_Linear_5,1,5,80,127,3626136804
29,17,19,Jits_Linear_5,2,5,56,103,3626187068
29,17,19,Jits_Linear_5,3,5,63,98,3626190356
29,17,19,Jits_Linear_5,0,1,48,62,3626671048
29,17,19,Jits_Linear_5,1,5,56,103,3626787148
29,17,19,Jits_Linear_5,2,5,80,127,3626806636
29,17,19,Jits_Linear_5,3,5,63,98,3626816760
29,17,19,Jits_Linear_5,0,1,48,62,3627315224
29,17,19,Jits_Linear_5,1,5,63,98,3627387244
29,17,19,Jits_Linear_5,2,5,56,103,3627416832
29,17,19,Jits_Linear_5,3,5,80,127,3627437588
29,17,19,Jits_Linear_5,0,1,48,54,3627927584
29,17,19,Jits_Linear_5,1,5,56,103,3628017068
29,17,19,Jits_Linear_5,2,5,80,127,3628027172
29,17,19,Jits_Linear_5,3,5,63,98,3628096808
29,17,19,Jits_Linear_5,0,1,48,59,3628544900
29,17,19,Jits_Linear_5,1,5,63,98,3628627288
29,17,19,Jits_Linear_5,2,5,80,127,3628667212
29,17,19,Jits_Linear_5,3,5,56,103,3628707376
29,17,19,Jits_Linear_5,0,1,48,58,3629189428
29,17,19,Jits_Linear_5,1,5,56,103,3629267524
29,17,19,Jits_Linear_5,2,5,63,98,3629276676
29,17,19,Jits_Linear_5,3,5,80,127,3629296972
29,17,19,Jits_Linear_5,0,1,48,63,3629762828
29,17,19,Jits_Linear_5,1,5,63,98,3629936996
29,17,19,Jits_Linear_5,2,5,80,127,3629956560
29,17,19,Jits_Linear_5,3,5,56,103,3629976872
29,17,19,Jits_Linear_5,0,1,48,57,3630340288
29,17,19,Jits_Linear_5,1,5,56,103,3630507412
29,17,19,Jits_Linear_5,2,5,80,127,3630587656
29,17,19,Jits_Linear_5,3,5,63,98,3630596436
29,17,19,Jits_Linear_5,0,1,48,63,3631094288
29,17,19,Jits_Linear_5,1,5,80,127,3631177212
29,17,19,Jits_Linear_5,2,5,63,98,3631187708
29,17,19,Jits_Linear_5,3,5,56,103,3631217148
29,17,19,Jits_Linear_5,0,1,48,56,3631732836
29,17,19,Jits_Linear_5,1,5,63,98,3631766884
29,17,19,Jits_Linear_5,2,5,80,127,3631806824
29,17,19,Jits_Linear_5,3,5,56,103,3631867424
29,17,19,Jits_Linear_5,0,1,48,67,3632326924
29,17,19,Jits_Linear_5,1,5,63,98,3632406844
29,17,19,Jits_Linear_5,2,5,56,103,3632457180
29,17,19,Jits_Linear_5,3,5,80,127,3632486856
29,17,19,Jits_Linear_5,0,1,48,59,3632975960
29,17,19,Jits_Linear_5,1,5,80,127,3633057272
29,17,19,Jits_Linear_5,2,5,63,98,3633067900
29,17,19,Jits_Linear_5,3,5,56,103,3633136988
29,17,19,Jits_Linear_5,0,1,48,54,3633646616
29,17,19,Jits_Linear_5,1,5,80,127,3633766748
29,17,19,Jits_Linear_5,2,5,56,103,3633777020
29,17,19,Jits_Linear_5,3,5,63,98,3633780308
29,17,19,Jits_Linear_5,0,1,48,70,3634330024
29,17,19,Jits_Linear_5,1,5,56,103,3634347436
29,17,19,Jits_Linear_5,2,5,80,127,3634366920
29,17,19,Jits_Linear_5,3,5,63,98,3634377340
29,17,19,Jits_Linear_5,0,1,48,69,3634955752
29,17,19,Jits_Linear_5,1,5,63,98,3634996536
29,17,19,Jits_Linear_5,2,5,56,103,3635036476
29,17,19,Jits_Linear_5,3,5,80,127,3635056996
29,17,19,Jits_Linear_5,0,1,48,56,3635592468
29,17,19,Jits_Linear_5,1,5,63,98,3635646820
29,17,19,Jits_Linear_5,2,5,56,103,3635707492
29,17,19,Jits_Linear_5,3,5,80,127,3635710488
29,17,19,Jits_Linear_5,0,5,56,103,3636257340
29,17,19,Jits_Linear_5,1,5,80,127,3636276456
29,17,19,Jits_Linear_5,2,1,48,63,3636280472
29,17,19,Jits_Linear_5,3,5,63,98,3636316388
29,17,19,Jits_Linear_5,0,1,48,44,3636904740
29,17,19,Jits_Linear_5,1,5,56,103,3636937372
29,17,19,Jits_Linear_5,2,5,63,98,3636956488
29,17,19,Jits_Linear_5,3,5,80,127,3636966832
29,17,19,Jits_Linear_5,0,1,48,61,3637547272
29,17,19,Jits_Linear_5,1,5,80,127,3637556584
29,17,19,Jits_Linear_5,2,5,56,103,3637587308
29,17,19,Jits_Linear_5,3,5,63,98,3637627172
29,17,19,Jits_Linear_5,0,5,80,127,3638217204
29,17,19,Jits_Linear_5,1,5,56,103,3638236620
29,17,19,Jits_Linear_5,2,1,48,51,3638252464
29,17,19,Jits_Linear_5,3,5,63,98,3638297100
29,17,19,Jits_Linear_5,0,5,56,103,3638876516
29,17,19,Jits_Linear_5,1,5,80,127,3638897052
29,17,19,Jits_Linear_5,2,1,48,48,3638922040
29,17,19,Jits_Linear_5,3,5,63,98,3638957364
29,17,19,Jits_Linear_5,0,5,80,127,3639516624
29,17,19,Jits_Linear_5,1,5,56,103,3639526672
29,17,19,Jits_Linear_5,2,1,48,52,3639538256
29,17,19,Jits_Linear_5,3,5,63,98,3639566924
29,17,19,Jits_Linear_5,0,5,63,98,3640177128
29,17,19,Jits_Linear_5,1,1,48,46,3640181740
29,17,19,Jits_Linear_5,2,5,56,103,3640216988
29,17,19,Jits_Linear_5,3,5,80,127,3640220128
29,17,19,Jits_Linear_5,0,1,48,46,3640834564
29,17,19,Jits_Linear_5,1,5,63,98,3640857008
29,17,19,Jits_Linear_5,2,5,80,127,3640896876
29,17,19,Jits_Linear_5,3,5,56,103,3640926552
29,17,19,Jits_Linear_5,0,1,48,51,3641475124
29,17,19,Jits_Linear_5,1,5,56,103,3641507060
29,17,19,Jits_Linear_5,2,5,63,98,3641517408
29,17,19,Jits_Linear_5,3,5,80,127,3641547084
29,17,19,Jits_Linear_5,0,1,48,50,3642167032
29,17,19,Jits_Linear_5,1,5,80,127,3642168376
29,17,19,Jits_Linear_5,2,5,63,98,3642237164
29,17,19,Jits_Linear_5,3,5,56,103,3642246536
29,17,19,Jits_Linear_5,0,1,48,54,3642837616
29,17,19,Jits_Linear_5,1,5,63,98,3642839184
29,17,19,Jits_Linear_5,2,5,56,103,3642907096
29,17,19,Jits_Linear_5,3,5,80,127,3642917292
29,17,19,Jits_Linear_5,0,1,48,49,3643502488
29,17,19,Jits_Linear_5,1,5,63,98,3643507244
29,17,19,Jits_Linear_5,2,5,56,103,3643526432
29,17,19,Jits_Linear_5,3,5,80,127,3643566372
29,17,19,Jits_Linear_5,0,1,48,60,3644169880
29,17,19,Jits_Linear_5,1,5,56,103,3644186920
29,17,19,Jits_Linear_5,2,5,63,98,3644197340
29,17,19,Jits_Linear_5,3,5,80,127,3644276972
29,17,19,Jits_Linear_5,0,1,48,57,3644793552
29,17,19,Jits_Linear_5,1,5,63,98,3644846560
29,17,19,Jits_Linear_5,2,5,56,103,3644877212
29,17,19,Jits_Linear_5,3,5,80,127,3644917060
29,17,19,Jits_Linear_5,0,1,48,43,3645474272
29,17,19,Jits_Linear_5,1,5,56,103,3645517168
29,17,19,Jits_Linear_5,2,5,63,98,3645557180
29,17,19,Jits_Linear_5,3,5,80,127,3645597180
29,17,19,Jits_Linear_5,0,1,48,47,3646177904
29,17,19,Jits_Linear_5,1,5,80,127,3646197036
29,17,19,Jits_Linear_5,2,5,56,103,3646276996
29,17,19,Jits_Linear_5,3,5,63,98,3646287340
29,17,19,Jits_Linear_5,0,1,48,73,3646870540
29,17,19,Jits_Linear_5,1,5,56,103,3646917168
29,17,19,Jits_Linear_5,2,5,63,98,3646920084
29,17,19,Jits_Linear_5,3,5,80,127,3646927288
29,17,19,Jits_Linear_5,0,1,48,51,3647504732
29,17,19,Jits_Linear_5,1,5,56,103,3647617496
29,17,19,Jits_Linear_5,2,5,63,98,3647636836
29,17,19,Jits_Linear_5,3,5,80,127,3647647032
29,17,19,Jits_Linear_5,0,5,63,98,3648257388
29,17,19,Jits_Linear_5,1,1,48,60,3648258352
29,17,19,Jits_Linear_5,2,5,80,127,3648266924
29,17,19,Jits_Linear_5,3,5,56,103,3648287160
29,17,19,Jits_Linear_5,0,5,63,98,3648946648
29,17,19,Jits_Linear_5,1,1,48,51,3648956964
29,17,19,Jits_Linear_5,2,5,56,103,3649026512
29,17,19,Jits_Linear_5,3,5,80,127,3649029528
29,17,19,Jits_Linear_5,0,1,48,49,3649630620
29,17,19,Jits_Linear_5,1,5,63,98,3649636572
29,17,19,Jits_Linear_5,2,5,56,103,3649657180
29,17,19,Jits_Linear_5,3,5,80,127,3649686784
29,17,19,Jits_Linear_5,0,1,48,57,3650287120
29,17,19,Jits_Linear_5,1,5,56,103,3650326880
29,17,19,Jits_Linear_5,2,5,63,98,3650347564
29,17,19,Jits_Linear_5,3,5,80,127,3650356712
29,17,19,Jits_Linear_5,0,1,48,64,3650993680
29,17,19,Jits_Linear_5,1,5,56,103,3651046912
29,17,19,Jits_Linear_5,2,5,63,98,3651076684
29,17,19,Jits_Linear_5,3,5,80,127,3651079900
29,17,19,Jits_Linear_5,0,5,56,103,3651686724
29,17,19,Jits_Linear_5,1,1,48,46,3651689772
29,17,19,Jits_Linear_5,2,5,63,98,3651726664
29,17,19,Jits_Linear_5,3,5,80,127,3651787128
29,17,19,Jits_Linear_5,0,1,48,51,3652385416
29,17,19,Jits_Linear_5,1,5,56,103,3652397500
29,17,19,Jits_Linear_5,2,5,63,98,3652406576
29,17,19,Jits_Linear_5,3,5,80,127,3652467040
29,17,19,Jits_Linear_5,0,1,48,63,3653060556
29,17,19,Jits_Linear_5,1,5,56,103,3653096780
29,17,19,Jits_Linear_5,2,5,80,127,3653117612
29,17,19,Jits_Linear_5,3,5,63,98,3653147088
29,17,19,Jits_Linear_5,0,1,48,54,3653725256
29,17,19,Jits_Linear_5,1,5,80,127,3653797352
29,17,19,Jits_Linear_5,2,5,56,103,3653806428
29,17,19,Jits_Linear_5,3,5,63,98,3653826796
29,17,19,Jits_Linear_5,0,1,48,58,3654460436
29,17,19,Jits_Linear_5,1,5,63,98,3654487508
29,17,19,Jits_Linear_5,2,5,80,127,3654567368
29,17,19,Jits_Linear_5,3,5,56,103,3654576592
29,17,19,Jits_Linear_5,0,1,48,48,3655183484
29,17,19,Jits_Linear_5,1,5,80,127,3655247576
29,17,19,Jits_Linear_5,2,5,56,103,3655266616
29,17,19,Jits_Linear_5,3,5,63,98,3655269756
29,17,19,Jits_Linear_5,0,5,63,98,3655927372
29,17,19,Jits_Linear_5,1,5,80,127,3655930512
29,17,19,Jits_Linear_5,2,1,48,55,3655951044
29,17,19,Jits_Linear_5,3,5,56,103,3655986516
29,17,19,Jits_Linear_5,0,1,48,47,3656617828
29,17,19,Jits_Linear_5,1,5,56,103,3656619172
29,17,19,Jits_Linear_5,2,5,80,127,3656626672
29,17,19,Jits_Linear_5,3,5,63,98,3656666612
29,17,19,Jits_Linear_5,0,5,56,103,3657306424
29,17,19,Jits_Linear_5,1,1,48,34,3657355328
29,17,19,Jits_Linear_5,2,5,63,98,3657366884
29,17,19,Jits_Linear_5,3,5,80,127,3657377228
29,17,19,Jits_Linear_5,0,5,63,98,3658027316
29,17,19,Jits_Linear_5,1,1,48,24,3658029256
29,17,19,Jits_Linear_5,2,5,80,127,3658067324
29,17,19,Jits_Linear_5,3,5,56,103,3658107412
29,17,19,Jits_Linear_5,0,5,56,103,3658737232
29,17,19,Jits_Linear_5,1,1,48,18,3658752488
29,17,19,Jits_Linear_5,2,5,63,98,3658816972
29,17,19,Jits_Linear_5,3,5,80,127,3658820336
29,17,19,Jits_Linear_5,0,1,48,60,3659405800
29,17,19,Jits_Linear_5,1,5,80,127,3659507180
29,17,19,Jits_Linear_5,2,5,56,103,3659536728
29,17,19,Jits_Linear_5,3,5,63,98,3659539724
29,17,19,Jits_Linear_5,0,1,48,36,3660112576
29,17,19,Jits_Linear_5,1,5,56,103,3660187160
29,17,19,Jits_Linear_5,2,5,80,127,3660207236
29,17,19,Jits_Linear_5,3,5,63,98,3660247396
29,17,19,Jits_Linear_5,0,1,48,56,3660793196
29,17,19,Jits_Linear_5,1,5,80,127,3660888616
29,17,19,Jits_Linear_5,2,5,63,98,3660906984
29,17,19,Jits_Linear_5,3,5,56,103,3660967224
29,17,19,Jits_Linear_5,0,1,48,68,3661479020
29,17,19,Jits_Linear_5,1,5,63,98,3661616396
29,17,19,Jits_Linear_5,2,5,56,103,3661626592
29,17,19,Jits_Linear_5,3,5,80,127,3661677016
29,17,19,Jits_Linear_5,0,1,48,68,3662190080
29,17,19,Jits_Linear_5,1,5,56,103,3662327132
29,17,19,Jits_Linear_5,2,5,63,98,3662346572
29,17,19,Jits_Linear_5,3,5,80,127,3662356992
29,17,19,Jits_Linear_5,0,1,48,38,3662899348
29,17,19,Jits_Linear_5,1,5,56,103,3663047184
29,17,19,Jits_Linear_5,2,5,63,98,3663050100
29,17,19,Jits_Linear_5,3,5,80,127,3663066448
29,17,19,Jits_Linear_5,0,1,48,65,3663650180
29,17,19,Jits_Linear_5,1,5,63,98,3663817200
29,17,19,Jits_Linear_5,2,5,56,103,3663846952
29,17,19,Jits_Linear_5,3,5,80,127,3663876432
29,17,19,Jits_Linear_5,0,1,48,68,3664345868
29,17,19,Jits_Linear_5,1,5,80,127,3664507288
29,17,19,Jits_Linear_5,2,5,56,103,3664597424
29,17,19,Jits_Linear_5,3,5,63,98,3664600492
29,17,19,Jits_Linear_5,0,1,48,62,3665143748
29,17,19,Jits_Linear_5,1,5,56,103,3665238212
29,17,19,Jits_Linear_5,2,5,80,127,3665241116
29,17,19,Jits_Linear_5,3,5,63,98,3665317320
29,17,19,Jits_Linear_5,0,1,48,55,3665882896
29,17,19,Jits_Linear_5,1,5,80,127,3665966424
29,17,19,Jits_Linear_5,2,5,63,98,3666027028
29,17,19,Jits_Linear_5,3,5,56,103,3666056852
29,17,19,Jits_Linear_5,0,1,48,51,3666534716
29,17,19,Jits_Linear_5,1,5,63,98,3666696512
29,17,19,Jits_Linear_5,2,5,80,127,3666707080
29,17,19,Jits_Linear_5,3,5,56,103,3666776612
29,17,19,Jits_Linear_5,0,1,48,65,3667279112
29,17,19,Jits_Linear_5,1,5,56,103,3667457296
29,17,19,Jits_Linear_5,2,5,80,127,3667487068
29,17,19,Jits_Linear_5,3,5,63,98,3667537196
29,17,19,Jits_Linear_5,0,1,48,41,3667986276
29,17,19,Jits_Linear_5,1,5,63,98,3668236936
29,17,19,Jits_Linear_5,2,5,56,103,3668267364
29,17,19,Jits_Linear_5,3,5,80,127,3668270428
29,17,19,Jits_Linear_5,0,1,48,56,3668707268
29,17,19,Jits_Linear_5,1,5,63,98,3668976892
29,17,19,Jits_Linear_5,2,5,80,127,3668996552
29,17,19,Jits_Linear_5,3,5,56,103,3669006824
29,17,19,Jits_Linear_5,0,1,48,67,3669397356
29,17,19,Jits_Linear_5,1,5,56,103,3669726764
29,17,19,Jits_Linear_5,2,5,63,98,3669729760
29,17,19,Jits_Linear_5,3,5,80,127,3669747076
29,17,19,Jits_Linear_5,0,1,48,60,3670133728
29,17,19,Jits_Linear_5,1,5,56,103,3670426964
29,17,19,Jits_Linear_5,2,5,63,98,3670437384
29,17,19,Jits_Linear_5,3,5,80,127,3670467060
29,17,19,Jits_Linear_5,4,1,48,53,3670782220
29,17,19,Jits_Linear_5,0,5,63,98,3671197056
29,17,19,Jits_Linear_5,1,5,80,127,3671216544
29,17,19,Jits_Linear_5,2,5,56,103,3671256484
29,17,19,Jits_Linear_5,3,1,48,62,3671437928
29,17,19,Jits_Linear_5,0,5,56,103,3671977276
29,17,19,Jits_Linear_5,1,5,63,98,3672017136
29,17,19,Jits_Linear_5,2,5,80,127,3672020504
29,17,19,Jits_Linear_5,3,1,48,58,3672186600
29,17,19,Jits_Linear_5,0,5,80,127,3672666696
29,17,19,Jits_Linear_5,1,5,56,103,3672706564
29,17,19,Jits_Linear_5,2,5,63,98,3672756544
29,17,19,Jits_Linear_5,3,1,48,30,3672932588
29,17,19,Jits_Linear_5,0,5,56,103,3673476596
29,17,19,Jits_Linear_5,1,5,80,127,3673486644
29,17,19,Jits_Linear_5,2,5,63,98,3673517516
29,17,19,Jits_Linear_5,3,1,48,52,3673618428
29,17,19,Jits_Linear_5,0,5,56,103,3674176740
29,17,19,Jits_Linear_5,1,5,80,127,3674216756
29,17,19,Jits_Linear_5,2,5,63,98,3674267108
29,17,19,Jits_Linear_5,3,1,48,44,3674330684
29,17,19,Jits_Linear_5,0,5,56,103,3674936740
29,17,19,Jits_Linear_5,1,5,80,127,3674976608
29,17,19,Jits_Linear_5,2,5,63,98,3675026736
29,17,19,Jits_Linear_5,3,1,48,35,3675056752
29,17,19,Jits_Linear_5,0,5,80,127,3675687376
29,17,19,Jits_Linear_5,1,1,48,38,3675703224
29,17,19,Jits_Linear_5,2,5,63,98,3675767168
29,17,19,Jits_Linear_5,3,5,56,103,3675777516
29,17,19,Jits_Linear_5,0,1,48,54,3676393740
29,17,19,Jits_Linear_5,1,5,80,127,3676497556
29,17,19,Jits_Linear_5,2,5,56,103,3676506556
29,17,19,Jits_Linear_5,3,5,63,98,3676526868
29,17,19,Jits_Linear_5,0,1,48,56,3677151340
29,17,19,Jits_Linear_5,1,5,63,98,3677227516
29,17,19,Jits_Linear_5,2,5,56,103,3677296960
29,17,19,Jits_Linear_5,3,5,80,127,3677300028
29,17,19,Jits_Linear_5,0,1,48,52,3677905560
29,17,19,Jits_Linear_5,1,5,80,127,3677987276
29,17,19,Jits_Linear_5,2,5,63,98,3678037464
29,17,19,Jits_Linear_5,3,5,56,103,3678077476
29,17,19,Jits_Linear_5,0,1,48,54,3678706308
29,17,19,Jits_Linear_5,1,5,63,98,3678797820
29,17,19,Jits_Linear_5,2,5,56,103,3678837240
29,17,19,Jits_Linear_5,3,5,80,127,3678847360
29,17,19,Jits_Linear_5,0,1,48,65,3679462316
29,17,19,Jits_Linear_5,1,5,63,98,3679556936
29,17,19,Jits_Linear_5,2,5,56,103,3679576408
29,17,19,Jits_Linear_5,3,5,80,127,3679597016
29,17,19,Jits_Linear_5,0,1,48,67,3680234148
29,17,19,Jits_Linear_5,1,5,80,127,3680287328
29,17,19,Jits_Linear_5,2,5,56,103,3680297376
29,17,19,Jits_Linear_5,3,5,63,98,3680316788
29,17,19,Jits_Linear_5,0,1,48,69,3680995192
29,17,19,Jits_Linear_5,1,5,63,98,3681086800
29,17,19,Jits_Linear_5,2,5,56,103,3681126652
29,17,19,Jits_Linear_5,3,5,80,127,3681156400
29,17,19,Jits_Linear_5,0,1,48,62,3681786500
29,17,19,Jits_Linear_5,1,5,56,103,3681867316
29,17,19,Jits_Linear_5,2,5,63,98,3681896680
29,17,19,Jits_Linear_5,3,5,80,127,3681926504
29,17,19,Jits_Linear_5,0,1,48,65,3682540788
29,17,19,Jits_Linear_5,1,5,80,127,3682616668
29,17,19,Jits_Linear_5,2,5,56,103,3682687308
29,17,19,Jits_Linear_5,3,5,63,98,3682690300
29,17,19,Jits_Linear_5,0,1,48,60,3683384248
29,17,19,Jits_Linear_5,1,5,56,103,3683407216
29,17,19,Jits_Linear_5,2,5,63,98,3683457420
29,17,19,Jits_Linear_5,3,5,80,127,3683487304
29,17,19,Jits_Linear_5,0,5,63,98,3684167132
29,17,19,Jits_Linear_5,1,5,80,127,3684170572
29,17,19,Jits_Linear_5,2,1,48,65,3684196852
29,17,19,Jits_Linear_5,3,5,56,103,3684226472
29,17,19,Jits_Linear_5,0,1,48,60,3684900992
29,17,19,Jits_Linear_5,1,5,56,103,3684976996
29,17,19,Jits_Linear_5,2,5,80,127,3684987192
29,17,19,Jits_Linear_5,3,5,63,98,3685037380
29,17,19,Jits_Linear_5,0,5,63,98,3685736992
29,17,19,Jits_Linear_5,1,5,56,103,3685746964
29,17,19,Jits_Linear_5,2,5,80,127,3685776936
29,17,19,Jits_Linear_5,3,1,48,52,3685785832
29,17,19,Jits_Linear_5,0,1,48,60,3686460452
29,17,19,Jits_Linear_5,1,5,63,98,3686557188
29,17,19,Jits_Linear_5,2,5,80,127,3686560404
29,17,19,Jits_Linear_5,3,5,56,103,3686586940
29,17,19,Jits_Linear_5,0,1,48,53,3687253532
29,17,19,Jits_Linear_5,1,5,63,98,3687367064
29,17,19,Jits_Linear_5,2,5,56,103,3687386396
29,17,19,Jits_Linear_5,3,5,80,127,3687389544
29,17,19,Jits_Linear_5,0,1,48,51,3688052924
29,17,19,Jits_Linear_5,1,5,63,98,3688116496
29,17,19,Jits_Linear_5,2,5,56,103,3688187288
29,17,19,Jits_Linear_5,3,5,80,127,3688206948
29,17,19,Jits_Linear_5,0,5,56,103,3688896868
29,17,19,Jits_Linear_5,1,1,48,19,3688900508
29,17,19,Jits_Linear_5,2,5,63,98,3688906984
29,17,19,Jits_Linear_5,3,5,80,127,3688997216
29,17,19,Jits_Linear_5,0,1,48,44,3689641912
29,17,19,Jits_Linear_5,1,5,56,103,3689706984
29,17,19,Jits_Linear_5,2,5,80,127,3689747008
29,17,19,Jits_Linear_5,3,5,63,98,3689756980
29,17,19,Jits_Linear_5,0,1,48,55,3690412688
29,17,19,Jits_Linear_5,1,5,56,103,3690527216
29,17,19,Jits_Linear_5,2,5,63,98,3690556744
29,17,19,Jits_Linear_5,3,5,80,127,3690586344
29,17,19,Jits_Linear_5,0,1,48,64,3691230068
29,17,19,Jits_Linear_5,1,5,80,127,3691286920
29,17,19,Jits_Linear_5,2,5,63,98,3691326992
29,17,19,Jits_Linear_5,3,5,56,103,3691347228
29,17,19,Jits_Linear_5,0,1,48,58,3692062976
29,17,19,Jits_Linear_5,1,5,56,103,3692126624
29,17,19,Jits_Linear_5,2,5,80,127,3692147008
29,17,19,Jits_Linear_5,3,5,63,98,3692166632
29,17,19,Jits_Linear_5,0,1,48,48,3692830600
29,17,19,Jits_Linear_5,1,5,63,98,3692896792
29,17,19,Jits_Linear_5,2,5,56,103,3692906840
29,17,19,Jits_Linear_5,3,5,80,127,3692967140
29,17,19,Jits_Linear_5,0,1,48,54,3693608720
29,17,19,Jits_Linear_5,1,5,56,103,3693706812
29,17,19,Jits_Linear_5,2,5,63,98,3693777244
29,17,19,Jits_Linear_5,3,5,80,127,3693796584
29,17,19,Jits_Linear_5,0,1,48,43,3694479376
29,17,19,Jits_Linear_5,1,1,38,12,3694494028
29,17,19,Jits_Linear_5,2,5,56,103,3694516764
29,17,19,Jits_Linear_5,3,5,63,98,3694547492
29,17,19,Jits_Linear_5,4,5,80,127,3694587340
29,17,19,Jits_Linear_5,0,1,48,57,3695259172
29,17,19,Jits_Linear_5,1,5,63,98,3695317564
29,17,19,Jits_Linear_5,2,5,56,103,3695366580
29,17,19,Jits_Linear_5,3,5,80,127,3695376852
29,17,19,Jits_Linear_5,0,1,48,57,3696020500
29,17,19,Jits_Linear_5,1,5,56,103,3696167244
29,17,19,Jits_Linear_5,2,5,63,98,3696216548
29,17,19,Jits_Linear_5,3,5,80,127,3696226596
29,17,19,Jits_Linear_5,0,5,56,103,3696946508
29,17,19,Jits_Linear_5,1,5,63,98,3696956780
29,17,19,Jits_Linear_5,2,1,48,51,3696967096
29,17,19,Jits_Linear_5,3,5,80,127,3697036720
29,17,19,Jits_Linear_5,0,9999,9999,9999,3588184168
29,17,19,Jits_Linear_5,1,9999,9999,9999,3588664404
29,17,19,Jits_Linear_5,2,9999,9999,9999,3589144644
29,17,19,Jits_Linear_5,3,9999,9999,9999,3589624912
29,17,19,Jits_Linear_5,4,9999,9999,9999,3590104152
29,17,19,Jits_Linear_5,5,9999,9999,9999,3590594628
29,17,19,Jits_Linear_5,6,9999,9999,9999,3591084128
29,17,19,Jits_Linear_5,7,9999,9999,9999,3591574616
29,17,19,Jits_Linear_5,8,9999,9999,9999,3592064120
29,17,19,Jits_Linear_5,9,9999,9999,9999,3592554596
29,17,19,Jits_Linear_5,10,9999,9999,9999,3593054280
29,17,19,Jits_Linear_5,11,9999,9999,9999,3593555016
29,17,19,Jits_Linear_5,12,9999,9999,9999,3594054776
29,17,19,Jits_Linear_5,13,9999,9999,9999,3594554464
29,17,19,Jits_Linear_5,14,9999,9999,9999,3595054140
29,17,19,Jits_Linear_5,15,9999,9999,9999,3595564096
29,17,19,Jits_Linear_5,16,9999,9999,9999,3596075096
29,17,19,Jits_Linear_5,17,9999,9999,9999,3596594264
29,17,19,Jits_Linear_5,18,9999,9999,9999,3597104192
29,17,19,Jits_Linear_5,19,9999,9999,9999,3597614144
29,17,19,Jits_Linear_5,20,9999,9999,9999,3598134360
29,17,19,Jits_Linear_5,21,9999,9999,9999,3598654576
29,17,19,Jits_Linear_5,22,9999,9999,9999,3599174716
29,17,19,Jits_Linear_5,23,9999,9999,9999,3599694936
29,17,19,Jits_Linear_5,24,9999,9999,9999,3600214080
29,17,19,Jits_Linear_5,25,9999,9999,9999,3600744552
29,17,19,Jits_Linear_5,26,9999,9999,9999,3601274960
29,17,19,Jits_Linear_5,27,9999,9999,9999,3601804372
29,17,19,Jits_Linear_5,28,9999,9999,9999,3602334776
29,17,19,Jits_Linear_5,29,9999,9999,9999,3602864208
29,17,19,Jits_Linear_5,30,9999,9999,9999,3603404880
29,17,19,Jits_Linear_5,31,9999,9999,9999,3603944576
29,17,19,Jits_Linear_5,32,9999,9999,9999,3604484196
29,17,19,Jits_Linear_5,33,9999,9999,9999,3605024888
29,17,19,Jits_Linear_5,34,9999,9999,9999,3605564504
29,17,19,Jits_Linear_5,35,9999,9999,9999,3606114392
29,17,19,Jits_Linear_5,36,9999,9999,9999,3606664268
29,17,19,Jits_Linear_5,37,9999,9999,9999,3607214152
29,17,19,Jits_Linear_5,38,9999,9999,9999,3607765088
29,17,19,Jits_Linear_5,39,9999,9999,9999,3608314976
29,17,19,Jits_Linear_5,40,9999,9999,9999,3608875076
29,17,19,Jits_Linear_5,41,9999,9999,9999,3609444440
29,17,19,Jits_Linear_5,42,9999,9999,9999,3610004584
29,17,19,Jits_Linear_5,43,9999,9999,9999,3610564728
29,17,19,Jits_Linear_5,44,9999,9999,9999,3611124796
29,17,19,Jits_Linear_5,45,9999,9999,9999,3611694184
29,17,19,Jits_Linear_5,46,9999,9999,9999,3612264544
29,17,19,Jits_Linear_5,47,9999,9999,9999,3612834900
29,17,19,Jits_Linear_5,48,9999,9999,9999,3613404268
29,17,19,Jits_Linear_5,49,9999,9999,9999,3613974624
29,17,19,Jits_Linear_5,50,9999,9999,9999,3614554216
29,17,19,Jits_Linear_5,51,9999,9999,9999,3615134800
29,17,19,Jits_Linear_5,52,9999,9999,9999,3615714368
29,17,19,Jits_Linear_5,53,9999,9999,9999,3616294984
29,17,19,Jits_Linear_5,54,9999,9999,9999,3616874612
29,17,19,Jits_Linear_5,55,9999,9999,9999,3617464376
29,17,19,Jits_Linear_5,56,9999,9999,9999,3618054268
29,17,19,Jits_Linear_5,57,9999,9999,9999,3618645064
29,17,19,Jits_Linear_5,58,9999,9999,9999,3619234884
29,17,19,Jits_Linear_5,59,9999,9999,9999,3619824760
29,17,19,Jits_Linear_5,60,9999,9999,9999,3620424796
29,17,19,Jits_Linear_5,61,9999,9999,9999,3621024872
29,17,19,Jits_Linear_5,62,9999,9999,9999,3621624952
29,17,19,Jits_Linear_5,63,9999,9999,9999,3622224980
29,17,19,Jits_Linear_5,64,9999,9999,9999,3622825060
29,17,19,Jits_Linear_5,65,9999,9999,9999,3623434308
29,17,19,Jits_Linear_5,66,9999,9999,9999,3624044656
29,17,19,Jits_Linear_5,67,9999,9999,9999,3624654912
29,17,19,Jits_Linear_5,68,9999,9999,9999,3625264236
29,17,19,Jits_Linear_5,69,9999,9999,9999,3625874512
29,17,19,Jits_Linear_5,70,9999,9999,9999,3626495032
29,17,19,Jits_Linear_5,71,9999,9999,9999,3627114612
29,17,19,Jits_Linear_5,72,9999,9999,9999,3627734096
29,17,19,Jits_Linear_5,73,9999,9999,9999,3628354656
29,17,19,Jits_Linear_5,74,9999,9999,9999,3628974144
29,17,19,Jits_Linear_5,75,9999,9999,9999,3629604964
29,17,19,Jits_Linear_5,76,9999,9999,9999,3630234720
29,17,19,Jits_Linear_5,77,9999,9999,9999,3630864500
29,17,19,Jits_Linear_5,78,9999,9999,9999,3631494252
29,17,19,Jits_Linear_5,79,9999,9999,9999,3632125052
29,17,19,Jits_Linear_5,80,9999,9999,9999,3632765008
29,17,19,Jits_Linear_5,81,9999,9999,9999,3633405024
29,17,19,Jits_Linear_5,82,9999,9999,9999,3634045056
29,17,19,Jits_Linear_5,83,9999,9999,9999,3634684996
29,17,19,Jits_Linear_5,84,9999,9999,9999,3635325032
29,17,19,Jits_Linear_5,85,9999,9999,9999,3635974212
29,17,19,Jits_Linear_5,86,9999,9999,9999,3636624492
29,17,19,Jits_Linear_5,87,9999,9999,9999,3637274736
29,17,19,Jits_Linear_5,88,9999,9999,9999,3637924936
29,17,19,Jits_Linear_5,89,9999,9999,9999,3638574192
29,17,19,Jits_Linear_5,90,9999,9999,9999,3639234676
29,17,19,Jits_Linear_5,91,9999,9999,9999,3639894136
29,17,19,Jits_Linear_5,92,9999,9999,9999,3640554604
29,17,19,Jits_Linear_5,93,9999,9999,9999,3641215100
29,17,19,Jits_Linear_5,94,9999,9999,9999,3641874540
29,17,19,Jits_Linear_5,95,9999,9999,9999,3642544224
29,17,19,Jits_Linear_5,96,9999,9999,9999,3643214908
29,17,19,Jits_Linear_5,97,9999,9999,9999,3643884664
29,17,19,Jits_Linear_5,98,9999,9999,9999,3644554300
29,17,19,Jits_Linear_5,99,9999,9999,9999,3645225052
29,17,19,Jits_Linear_5,100,9999,9999,9999,3645905000
29,17,19,Jits_Linear_5,101,9999,9999,9999,3646584896
29,17,19,Jits_Linear_5,102,9999,9999,9999,3647264860
29,17,19,Jits_Linear_5,103,9999,9999,9999,3647944808
29,17,19,Jits_Linear_5,104,9999,9999,9999,3648624704
29,17,19,Jits_Linear_5,105,9999,9999,9999,3649314936
29,17,19,Jits_Linear_5,106,9999,9999,9999,3650005072
29,17,19,Jits_Linear_5,107,9999,9999,9999,3650694260
29,17,19,Jits_Linear_5,108,9999,9999,9999,3651384416
29,17,19,Jits_Linear_5,109,9999,9999,9999,3652074556
29,17,19,Jits_Linear_5,110,9999,9999,9999,3652774992
29,17,19,Jits_Linear_5,111,9999,9999,9999,3653474368
29,17,19,Jits_Linear_5,112,9999,9999,9999,3654174792
29,17,19,Jits_Linear_5,113,9999,9999,9999,3654874224
29,17,19,Jits_Linear_5,114,9999,9999,9999,3655574640
29,17,19,Jits_Linear_5,115,9999,9999,9999,3656284280
29,17,19,Jits_Linear_5,116,9999,9999,9999,3656994896
29,17,19,Jits_Linear_5,117,9999,9999,9999,3657704516
29,17,19,Jits_Linear_5,118,9999,9999,9999,3658414172
29,17,19,Jits_Linear_5,119,9999,9999,9999,3659124852
29,17,19,Jits_Linear_5,120,9999,9999,9999,3659844696
29,17,19,Jits_Linear_5,121,9999,9999,9999,3660564600
29,17,19,Jits_Linear_5,122,9999,9999,9999,3661284408
29,17,19,Jits_Linear_5,123,9999,9999,9999,3662004312
29,17,19,Jits_Linear_5,124,9999,9999,9999,3662724220
29,17,19,Jits_Linear_5,125,9999,9999,9999,3663454300
29,17,19,Jits_Linear_5,126,9999,9999,9999,3664184400
29,17,19,Jits_Linear_5,127,9999,9999,9999,3664914488
29,17,19,Jits_Linear_5,128,9999,9999,9999,3665644616
29,17,19,Jits_Linear_5,129,9999,9999,9999,3666374708
29,17,19,Jits_Linear_5,130,9999,9999,9999,3667115068
29,17,19,Jits_Linear_5,131,9999,9999,9999,3667864644
29,17,19,Jits_Linear_5,132,9999,9999,9999,3668604996
29,17,19,Jits_Linear_5,133,9999,9999,9999,3669344384
29,17,19,Jits_Linear_5,134,9999,9999,9999,3670084736
29,17,19,Jits_Linear_5,135,9999,9999,9999,3670834232
29,17,19,Jits_Linear_5,136,9999,9999,9999,3671584832
29,17,19,Jits_Linear_5,137,9999,9999,9999,3672334404
29,17,19,Jits_Linear_5,138,9999,9999,9999,3673085016
29,17,19,Jits_Linear_5,139,9999,9999,9999,3673834604
29,17,19,Jits_Linear_5,140,9999,9999,9999,3674594384
29,17,19,Jits_Linear_5,141,9999,9999,9999,3675354236
29,17,19,Jits_Linear_5,142,9999,9999,9999,3676115060
29,17,19,Jits_Linear_5,143,9999,9999,9999,3676874840
29,17,19,Jits_Linear_5,144,9999,9999,9999,3677634672
29,17,19,Jits_Linear_5,145,9999,9999,9999,3678404700
29,17,19,Jits_Linear_5,146,9999,9999,9999,3679174732
29,17,19,Jits_Linear_5,147,9999,9999,9999,3679944764
29,17,19,Jits_Linear_5,148,9999,9999,9999,3680714864
29,17,19,Jits_Linear_5,149,9999,9999,9999,3681484892
29,17,19,Jits_Linear_5,150,9999,9999,9999,3682264140
29,17,19,Jits_Linear_5,151,9999,9999,9999,3683044420
29,17,19,Jits_Linear_5,152,9999,9999,9999,3683824712
29,17,19,Jits_Linear_5,153,9999,9999,9999,3684604992
29,17,19,Jits_Linear_5,154,9999,9999,9999,3685384256
29,17,19,Jits_Linear_5,155,9999,9999,9999,3686174804
29,17,19,Jits_Linear_5,156,9999,9999,9999,3686964304
29,17,19,Jits_Linear_5,157,9999,9999,9999,3687754848
29,17,19,Jits_Linear_5,158,9999,9999,9999,3688544360
29,17,19,Jits_Linear_5,159,9999,9999,9999,3689334908
29,17,19,Jits_Linear_5,160,9999,9999,9999,3690134620
29,17,19,Jits_Linear_5,161,9999,9999,9999,3690934392
29,17,19,Jits_Linear_5,162,9999,9999,9999,3691734084
29,17,19,Jits_Linear_5,163,9999,9999,9999,3692534904
29,17,19,Jits_Linear_5,164,9999,9999,9999,3693334616
29,17,19,Jits_Linear_5,165,9999,9999,9999,3694144580
29,17,19,Jits_Linear_5,166,9999,9999,9999,3694954576
29,17,19,Jits_Linear_5,167,9999,9999,9999,3695764604
29,17,19,Jits_Linear_5,168,9999,9999,9999,3696574568
29,17,19,Jits_Linear_5,169,9999,9999,9999,3697384528
29,18,7,Jits_ISO_8,0,5,56,103,3709009316
29,18,7,Jits_ISO_8,1,5,63,98,3709012412
29,18,7,Jits_ISO_8,2,5,80,127,3709015460
29,18,7,Jits_ISO_8,0,5,56,103,3709808944
29,18,7,Jits_ISO_8,1,5,63,98,3709812040
29,18,7,Jits_ISO_8,2,5,80,127,3709815236
29,18,7,Jits_ISO_8,0,5,80,127,3710549468
29,18,7,Jits_ISO_8,1,1,48,35,3710638188
29,18,7,Jits_ISO_8,2,5,63,98,3710639896
29,18,7,Jits_ISO_8,3,5,56,103,3710648972
29,18,7,Jits_ISO_8,0,5,56,103,3711368528
29,18,7,Jits_ISO_8,1,1,48,64,3711374108
29,18,7,Jits_ISO_8,2,5,63,98,3711378940
29,18,7,Jits_ISO_8,3,5,80,127,3711469056
29,18,7,Jits_ISO_8,0,5,63,98,3712138880
29,18,7,Jits_ISO_8,1,1,48,73,3712165740
29,18,7,Jits_ISO_8,2,5,80,127,3712169596
29,18,7,Jits_ISO_8,3,5,56,103,3712199048
29,18,7,Jits_ISO_8,0,1,48,67,3712875752
29,18,7,Jits_ISO_8,1,5,56,103,3712939324
29,18,7,Jits_ISO_8,2,5,80,127,3713038832
29,18,7,Jits_ISO_8,3,5,63,98,3713088960
29,18,7,Jits_ISO_8,0,5,56,103,3713739116
29,18,7,Jits_ISO_8,1,1,48,52,3713764484
29,18,7,Jits_ISO_8,2,5,80,127,3713789240
29,18,7,Jits_ISO_8,3,5,63,98,3713829200
29,18,7,Jits_ISO_8,0,1,48,65,3714532732
29,18,7,Jits_ISO_8,1,5,80,127,3714568748
29,18,7,Jits_ISO_8,2,5,63,98,3714599248
29,18,7,Jits_ISO_8,3,5,56,103,3714668840
29,18,7,Jits_ISO_8,0,1,48,53,3715347984
29,18,7,Jits_ISO_8,1,5,63,98,3715398956
29,18,7,Jits_ISO_8,2,5,56,103,3715428780
29,18,7,Jits_ISO_8,3,5,80,127,3715489152
29,18,7,Jits_ISO_8,0,5,56,103,3716139556
29,18,7,Jits_ISO_8,1,5,80,127,3716142548
29,18,7,Jits_ISO_8,2,1,48,70,3716147852
29,18,7,Jits_ISO_8,3,5,63,98,3716259332
29,18,7,Jits_ISO_8,0,1,48,78,3716928076
29,18,7,Jits_ISO_8,1,5,56,103,3717018984
29,18,7,Jits_ISO_8,2,5,80,127,3717058908
29,18,7,Jits_ISO_8,3,5,63,98,3717069104
29,18,7,Jits_ISO_8,0,1,48,60,3717772140
29,18,7,Jits_ISO_8,1,5,56,103,3717778764
29,18,7,Jits_ISO_8,2,5,80,127,3717799148
29,18,7,Jits_ISO_8,3,5,63,98,3717879448
29,18,7,Jits_ISO_8,0,5,80,127,3718569488
29,18,7,Jits_ISO_8,1,1,48,57,3718594476
29,18,7,Jits_ISO_8,2,5,56,103,3718668712
29,18,7,Jits_ISO_8,3,5,63,98,3718678908
29,18,7,Jits_ISO_8,0,5,63,98,3719339472
29,18,7,Jits_ISO_8,1,1,48,60,3719388676
29,18,7,Jits_ISO_8,2,5,80,127,3719398664
29,18,7,Jits_ISO_8,3,5,56,103,3719409008
29,18,7,Jits_ISO_8,0,1,48,75,3720104452
29,18,7,Jits_ISO_8,1,5,56,103,3720139100
29,18,7,Jits_ISO_8,2,5,63,98,3720208720
29,18,7,Jits_ISO_8,3,5,80,127,3720212232
29,18,7,Jits_ISO_8,0,1,48,55,3720922880
29,18,7,Jits_ISO_8,1,5,63,98,3720968640
29,18,7,Jits_ISO_8,2,5,56,103,3721019816
29,18,7,Jits_ISO_8,3,5,80,127,3721022568
29,18,7,Jits_ISO_8,0,5,56,103,3721729532
29,18,7,Jits_ISO_8,1,1,48,43,3721732376
29,18,7,Jits_ISO_8,2,5,80,127,3721733936
29,18,7,Jits_ISO_8,3,5,63,98,3721818460
29,18,7,Jits_ISO_8,0,1,48,75,3722509880
29,18,7,Jits_ISO_8,1,5,63,98,3722569020
29,18,7,Jits_ISO_8,2,5,56,103,3722659364
29,18,7,Jits_ISO_8,3,5,80,127,3722688816
29,18,7,Jits_ISO_8,0,1,48,79,3723292804
29,18,7,Jits_ISO_8,1,5,56,103,3723358616
29,18,7,Jits_ISO_8,2,5,63,98,3723458852
29,18,7,Jits_ISO_8,3,5,80,127,3723488604
29,18,7,Jits_ISO_8,0,1,48,78,3724157632
29,18,7,Jits_ISO_8,1,5,63,98,3724178784
29,18,7,Jits_ISO_8,2,5,56,103,3724188984
29,18,7,Jits_ISO_8,3,5,80,127,3724279396
29,18,7,Jits_ISO_8,0,1,48,58,3724948428
29,18,7,Jits_ISO_8,1,5,63,98,3724999104
29,18,7,Jits_ISO_8,2,5,56,103,3725078908
29,18,7,Jits_ISO_8,3,5,80,127,3725082124
29,18,7,Jits_ISO_8,0,1,48,71,3725749636
29,18,7,Jits_ISO_8,1,5,80,127,3725759024
29,18,7,Jits_ISO_8,2,5,63,98,3725779260
29,18,7,Jits_ISO_8,3,5,56,103,3725838704
29,18,7,Jits_ISO_8,0,1,48,74,3726523332
29,18,7,Jits_ISO_8,1,5,56,103,3726598468
29,18,7,Jits_ISO_8,2,5,63,98,3726619076
29,18,7,Jits_ISO_8,3,5,80,127,3726623248
29,18,7,Jits_ISO_8,0,1,48,51,3727321096
29,18,7,Jits_ISO_8,1,5,63,98,3727338876
29,18,7,Jits_ISO_8,2,5,80,127,3727418684
29,18,7,Jits_ISO_8,3,5,56,103,3727429252
29,18,7,Jits_ISO_8,0,1,48,55,3728117964
29,18,7,Jits_ISO_8,1,5,63,98,3728159140
29,18,7,Jits_ISO_8,2,5,56,103,3728178480
29,18,7,Jits_ISO_8,3,5,80,127,3728228668
29,18,7,Jits_ISO_8,0,1,48,67,3728869716
29,18,7,Jits_ISO_8,1,5,80,127,3728959072
29,18,7,Jits_ISO_8,2,5,63,98,3728998624
29,18,7,Jits_ISO_8,3,5,56,103,3729019308
29,18,7,Jits_ISO_8,0,1,48,66,3729691620
29,18,7,Jits_ISO_8,1,5,56,103,3729798480
29,18,7,Jits_ISO_8,2,5,63,98,3729808972
29,18,7,Jits_ISO_8,3,5,80,127,3729829136
29,18,7,Jits_ISO_8,0,1,48,41,3730477108
29,18,7,Jits_ISO_8,1,5,56,103,3730528676
29,18,7,Jits_ISO_8,2,5,63,98,3730619020
29,18,7,Jits_ISO_8,3,5,80,127,3730679112
29,18,7,Jits_ISO_8,0,1,48,64,3731322436
29,18,7,Jits_ISO_8,1,5,80,127,3731358956
29,18,7,Jits_ISO_8,2,5,56,103,3731369372
29,18,7,Jits_ISO_8,3,5,63,98,3731438892
29,18,7,Jits_ISO_8,0,5,63,98,3732188416
29,18,7,Jits_ISO_8,1,1,48,44,3732211532
29,18,7,Jits_ISO_8,2,5,80,127,3732278716
29,18,7,Jits_ISO_8,3,5,56,103,3732288988
29,18,7,Jits_ISO_8,0,5,63,98,3732928864
29,18,7,Jits_ISO_8,1,5,80,127,3732978920
29,18,7,Jits_ISO_8,2,1,48,56,3732999972
29,18,7,Jits_ISO_8,3,5,56,103,3733038432
29,18,7,Jits_ISO_8,0,1,48,70,3733746828
29,18,7,Jits_ISO_8,1,5,56,103,3733759384
29,18,7,Jits_ISO_8,2,5,80,127,3733808540
29,18,7,Jits_ISO_8,3,5,63,98,3733828924
29,18,7,Jits_ISO_8,0,1,48,73,3734519260
29,18,7,Jits_ISO_8,1,5,56,103,3734529272
29,18,7,Jits_ISO_8,2,5,80,127,3734588768
29,18,7,Jits_ISO_8,3,5,63,98,3734658432
29,18,7,Jits_ISO_8,0,5,56,103,3735329212
29,18,7,Jits_ISO_8,1,5,80,127,3735358892
29,18,7,Jits_ISO_8,2,1,48,59,3735364704
29,18,7,Jits_ISO_8,3,5,63,98,3735388560
29,18,7,Jits_ISO_8,0,1,48,72,3736116232
29,18,7,Jits_ISO_8,1,5,56,103,3736168788
29,18,7,Jits_ISO_8,2,5,80,127,3736189396
29,18,7,Jits_ISO_8,3,5,63,98,3736248872
29,18,7,Jits_ISO_8,0,1,48,61,3737031328
29,18,7,Jits_ISO_8,1,5,80,127,3737048364
29,18,7,Jits_ISO_8,2,5,56,103,3737058860
29,18,7,Jits_ISO_8,3,5,63,98,3737069128
29,18,7,Jits_ISO_8,0,1,48,53,3737801828
29,18,7,Jits_ISO_8,1,5,56,103,3737809196
29,18,7,Jits_ISO_8,2,5,80,127,3737849136
29,18,7,Jits_ISO_8,3,5,63,98,3737878840
29,18,7,Jits_ISO_8,0,1,48,60,3738570600
29,18,7,Jits_ISO_8,1,5,56,103,3738579244
29,18,7,Jits_ISO_8,2,5,63,98,3738608996
29,18,7,Jits_ISO_8,3,5,80,127,3738648956
29,18,7,Jits_ISO_8,0,1,48,61,3739300408
29,18,7,Jits_ISO_8,1,5,80,127,3739328756
29,18,7,Jits_ISO_8,2,5,63,98,3739378960
29,18,7,Jits_ISO_8,3,5,56,103,3739399876
29,18,7,Jits_ISO_8,0,1,48,50,3740116508
29,18,7,Jits_ISO_8,1,5,56,103,3740159500
29,18,7,Jits_ISO_8,2,5,80,127,3740228872
29,18,7,Jits_ISO_8,3,5,63,98,3740289484
29,18,7,Jits_ISO_8,0,1,48,61,3740916820
29,18,7,Jits_ISO_8,1,5,80,127,3740959212
29,18,7,Jits_ISO_8,2,5,63,98,3741049112
29,18,7,Jits_ISO_8,3,5,56,103,3741068596
29,18,7,Jits_ISO_8,0,5,63,98,3741779756
29,18,7,Jits_ISO_8,1,5,56,103,3741798724
29,18,7,Jits_ISO_8,2,1,48,51,3741805132
29,18,7,Jits_ISO_8,3,5,80,127,3741838656
29,18,7,Jits_ISO_8,0,5,80,127,3742539236
29,18,7,Jits_ISO_8,1,5,63,98,3742558500
29,18,7,Jits_ISO_8,2,1,48,57,3742561392
29,18,7,Jits_ISO_8,3,5,56,103,3742638436
29,18,7,Jits_ISO_8,0,5,63,98,3743328544
29,18,7,Jits_ISO_8,1,1,48,66,3743341548
29,18,7,Jits_ISO_8,2,5,56,103,3743439332
29,18,7,Jits_ISO_8,3,5,80,127,3743442324
29,18,7,Jits_ISO_8,0,1,48,68,3744147260
29,18,7,Jits_ISO_8,1,5,63,98,3744148916
29,18,7,Jits_ISO_8,2,5,56,103,3744159260
29,18,7,Jits_ISO_8,3,5,80,127,3744162400
29,18,7,Jits_ISO_8,0,1,48,64,3744916428
29,18,7,Jits_ISO_8,1,5,56,103,3744929352
29,18,7,Jits_ISO_8,2,5,80,127,3745048796
29,18,7,Jits_ISO_8,3,5,63,98,3745088808
29,18,7,Jits_ISO_8,0,5,56,103,3745749376
29,18,7,Jits_ISO_8,1,5,80,127,3745829424
29,18,7,Jits_ISO_8,2,1,48,54,3745841080
29,18,7,Jits_ISO_8,3,5,63,98,3745848680
29,18,7,Jits_ISO_8,0,5,56,103,3746549248
29,18,7,Jits_ISO_8,1,1,48,65,3746608220
29,18,7,Jits_ISO_8,2,5,63,98,3746658580
29,18,7,Jits_ISO_8,3,5,80,127,3746661876
29,18,7,Jits_ISO_8,0,1,48,59,3747358784
29,18,7,Jits_ISO_8,1,5,56,103,3747378436
29,18,7,Jits_ISO_8,2,5,80,127,3747409380
29,18,7,Jits_ISO_8,3,5,63,98,3747428792
29,18,7,Jits_ISO_8,0,1,48,75,3748124692
29,18,7,Jits_ISO_8,1,5,63,98,3748158960
29,18,7,Jits_ISO_8,2,5,56,103,3748169084
29,18,7,Jits_ISO_8,3,5,80,127,3748179352
29,18,7,Jits_ISO_8,0,1,48,59,3748892780
29,18,7,Jits_ISO_8,1,5,80,127,3748949300
29,18,7,Jits_ISO_8,2,5,56,103,3748998588
29,18,7,Jits_ISO_8,3,5,63,98,3749038528
29,18,7,Jits_ISO_8,0,1,48,67,3749686576
29,18,7,Jits_ISO_8,1,5,80,127,3749768492
29,18,7,Jits_ISO_8,2,5,63,98,3749789084
29,18,7,Jits_ISO_8,3,5,56,103,3749839136
29,18,7,Jits_ISO_8,0,1,48,52,3750506044
29,18,7,Jits_ISO_8,1,5,80,127,3750578536
29,18,7,Jits_ISO_8,2,5,56,103,3750609244
29,18,7,Jits_ISO_8,3,5,63,98,3750679024
29,18,7,Jits_ISO_8,0,1,48,71,3751316396
29,18,7,Jits_ISO_8,1,5,56,103,3751428460
29,18,7,Jits_ISO_8,2,5,80,127,3751438580
29,18,7,Jits_ISO_8,3,5,63,98,3751478520
29,18,7,Jits_ISO_8,0,5,56,103,3752139088
29,18,7,Jits_ISO_8,1,5,63,98,3752158944
29,18,7,Jits_ISO_8,2,5,80,127,3752229176
29,18,7,Jits_ISO_8,3,1,48,59,3752251320
29,18,7,Jits_ISO_8,0,1,48,62,3752867448
29,18,7,Jits_ISO_8,1,5,63,98,3752959560
29,18,7,Jits_ISO_8,2,5,80,127,3753018980
29,18,7,Jits_ISO_8,3,5,56,103,3753039144
29,18,7,Jits_ISO_8,0,1,48,46,3753732584
29,18,7,Jits_ISO_8,1,5,80,127,3753749024
29,18,7,Jits_ISO_8,2,5,56,103,3753778476
29,18,7,Jits_ISO_8,3,5,63,98,3753809348
29,18,7,Jits_ISO_8,0,1,48,60,3754480652
29,18,7,Jits_ISO_8,1,5,56,103,3754548728
29,18,7,Jits_ISO_8,2,5,63,98,3754608960
29,18,7,Jits_ISO_8,3,5,80,127,3754669424
29,18,7,Jits_ISO_8,0,1,48,55,3755297996
29,18,7,Jits_ISO_8,1,5,80,127,3755368744
29,18,7,Jits_ISO_8,2,5,56,103,3755389428
29,18,7,Jits_ISO_8,3,5,63,98,3755458796
29,18,7,Jits_ISO_8,0,1,48,70,3756109468
29,18,7,Jits_ISO_8,1,5,80,127,3756168756
29,18,7,Jits_ISO_8,2,5,63,98,3756188920
29,18,7,Jits_ISO_8,3,5,56,103,3756218952
29,18,7,Jits_ISO_8,0,1,48,51,3756920264
29,18,7,Jits_ISO_8,1,5,80,127,3756959100
29,18,7,Jits_ISO_8,2,5,63,98,3756978660
29,18,7,Jits_ISO_8,3,5,56,103,3757039036
29,18,7,Jits_ISO_8,0,1,48,57,3757710532
29,18,7,Jits_ISO_8,1,5,80,127,3757759108
29,18,7,Jits_ISO_8,2,5,56,103,3757859220
29,18,7,Jits_ISO_8,3,5,63,98,3757888968
29,18,7,Jits_ISO_8,0,5,63,98,3758549240
29,18,7,Jits_ISO_8,1,1,48,51,3758555500
29,18,7,Jits_ISO_8,2,5,80,127,3758598564
29,18,7,Jits_ISO_8,3,5,56,103,3758619100
29,18,7,Jits_ISO_8,0,1,48,65,3759305672
29,18,7,Jits_ISO_8,1,5,80,127,3759388976
29,18,7,Jits_ISO_8,2,5,56,103,3759418784
29,18,7,Jits_ISO_8,3,5,63,98,3759421776
29,18,7,Jits_ISO_8,0,1,48,54,3760186784
29,18,7,Jits_ISO_8,1,5,63,98,3760218572
29,18,7,Jits_ISO_8,2,5,56,103,3760258512
29,18,7,Jits_ISO_8,3,5,80,127,3760278972
29,18,7,Jits_ISO_8,0,1,48,60,3760919064
29,18,7,Jits_ISO_8,1,5,80,127,3760958800
29,18,7,Jits_ISO_8,2,5,63,98,3761038660
29,18,7,Jits_ISO_8,3,5,56,103,3761078744
29,18,7,Jits_ISO_8,0,1,48,62,3761772944
29,18,7,Jits_ISO_8,1,5,63,98,3761779044
29,18,7,Jits_ISO_8,2,5,80,127,3761858844
29,18,7,Jits_ISO_8,3,5,56,103,3761879512
29,18,7,Jits_ISO_8,0,5,56,103,3762618852
29,18,7,Jits_ISO_8,1,5,63,98,3762628972
29,18,7,Jits_ISO_8,2,5,80,127,3762668912
29,18,7,Jits_ISO_8,3,1,48,59,3762688764
29,18,7,Jits_ISO_8,0,5,56,103,3763338636
29,18,7,Jits_ISO_8,1,5,80,127,3763341552
29,18,7,Jits_ISO_8,2,1,48,61,3763410604
29,18,7,Jits_ISO_8,3,5,63,98,3763478904
29,18,7,Jits_ISO_8,0,5,56,103,3764129060
29,18,7,Jits_ISO_8,1,5,63,98,3764219520
29,18,7,Jits_ISO_8,2,1,48,54,3764266608
29,18,7,Jits_ISO_8,3,5,80,127,3764288968
29,18,7,Jits_ISO_8,0,1,48,57,3764996296
29,18,7,Jits_ISO_8,1,5,63,98,3765008820
29,18,7,Jits_ISO_8,2,5,80,127,3765012184
29,18,7,Jits_ISO_8,3,5,56,103,3765069064
29,18,7,Jits_ISO_8,0,5,80,127,3765848548
29,18,7,Jits_ISO_8,1,1,48,61,3765869156
29,18,7,Jits_ISO_8,2,5,56,103,3765870648
29,18,7,Jits_ISO_8,3,5,63,98,3765879268
29,18,7,Jits_ISO_8,0,5,56,103,3766559192
29,18,7,Jits_ISO_8,1,5,63,98,3766569464
29,18,7,Jits_ISO_8,2,5,80,127,3766638996
29,18,7,Jits_ISO_8,3,1,48,48,3766711336
29,18,7,Jits_ISO_8,0,5,80,127,3767358916
29,18,7,Jits_ISO_8,1,5,56,103,3767409120
29,18,7,Jits_ISO_8,2,1,48,60,3767452392
29,18,7,Jits_ISO_8,3,5,63,98,3767459316
29,18,7,Jits_ISO_8,0,1,48,38,3768230760
29,18,7,Jits_ISO_8,1,5,56,103,3768238436
29,18,7,Jits_ISO_8,2,5,63,98,3768248780
29,18,7,Jits_ISO_8,3,5,80,127,3768288644
29,18,7,Jits_ISO_8,0,5,56,103,3768978744
29,18,7,Jits_ISO_8,1,1,48,59,3768989432
29,18,7,Jits_ISO_8,2,5,63,98,3769018680
29,18,7,Jits_ISO_8,3,5,80,127,3769069100
29,18,7,Jits_ISO_8,0,5,80,127,3769738536
29,18,7,Jits_ISO_8,1,5,56,103,3769788740
29,18,7,Jits_ISO_8,2,5,63,98,3769809200
29,18,7,Jits_ISO_8,3,1,48,42,3769843852
29,18,7,Jits_ISO_8,0,1,48,59,3770546548
29,18,7,Jits_ISO_8,1,5,80,127,3770548512
29,18,7,Jits_ISO_8,2,5,63,98,3770609128
29,18,7,Jits_ISO_8,3,5,56,103,3770689008
29,18,7,Jits_ISO_8,0,5,80,127,3771328976
29,18,7,Jits_ISO_8,1,5,56,103,3771368692
29,18,7,Jits_ISO_8,2,1,48,51,3771379676
29,18,7,Jits_ISO_8,3,5,63,98,3771389244
29,18,7,Jits_ISO_8,0,1,48,65,3772072988
29,18,7,Jits_ISO_8,1,5,56,103,3772178748
29,18,7,Jits_ISO_8,2,5,80,127,3772189168
29,18,7,Jits_ISO_8,3,5,63,98,3772229104
29,18,7,Jits_ISO_8,0,1,48,23,3772911060
29,18,7,Jits_ISO_8,1,1,38,13,3772919888
29,18,7,Jits_ISO_8,2,5,56,103,3773049212
29,18,7,Jits_ISO_8,3,5,63,98,3773089224
29,18,7,Jits_ISO_8,4,5,80,127,3773092512
29,18,7,Jits_ISO_8,0,5,63,98,3773739352
29,18,7,Jits_ISO_8,1,5,80,127,3773779292
29,18,7,Jits_ISO_8,2,1,48,56,3773840548
29,18,7,Jits_ISO_8,3,5,56,103,3773848892
29,18,7,Jits_ISO_8,0,5,63,98,3774528944
29,18,7,Jits_ISO_8,1,1,48,55,3774548848
29,18,7,Jits_ISO_8,2,5,56,103,3774608960
29,18,7,Jits_ISO_8,3,5,80,127,3774669336
29,18,7,Jits_ISO_8,0,1,48,67,3775317392
29,18,7,Jits_ISO_8,1,5,80,127,3775339064
29,18,7,Jits_ISO_8,2,5,63,98,3775388968
29,18,7,Jits_ISO_8,3,5,56,103,3775418924
29,18,7,Jits_ISO_8,0,5,56,103,3776129336
29,18,7,Jits_ISO_8,1,1,48,57,3776163020
29,18,7,Jits_ISO_8,2,5,63,98,3776178412
29,18,7,Jits_ISO_8,3,5,80,127,3776189052
29,18,7,Jits_ISO_8,0,1,48,62,3776908644
29,18,7,Jits_ISO_8,1,5,56,103,3776939308
29,18,7,Jits_ISO_8,2,5,63,98,3777049008
29,18,7,Jits_ISO_8,3,5,80,127,3777069468
29,18,7,Jits_ISO_8,0,5,63,98,3777739100
29,18,7,Jits_ISO_8,1,1,48,55,3777741996
29,18,7,Jits_ISO_8,2,5,80,127,3777789248
29,18,7,Jits_ISO_8,3,5,56,103,3777879512
29,18,7,Jits_ISO_8,0,5,63,98,3778528696
29,18,7,Jits_ISO_8,1,1,48,62,3778542376
29,18,7,Jits_ISO_8,2,5,80,127,3778559288
29,18,7,Jits_ISO_8,3,5,56,103,3778648288
29,18,7,Jits_ISO_8,0,1,48,65,3779324416
29,18,7,Jits_ISO_8,1,5,63,98,3779329244
29,18,7,Jits_ISO_8,2,5,56,103,3779338764
29,18,7,Jits_ISO_8,3,5,80,127,3779438924
29,18,7,Jits_ISO_8,0,1,48,54,3780100824
29,18,7,Jits_ISO_8,1,5,63,98,3780228584
29,18,7,Jits_ISO_8,2,5,80,127,3780259156
29,18,7,Jits_ISO_8,3,5,56,103,3780288908
29,18,7,Jits_ISO_8,0,1,48,43,3780995012
29,18,7,Jits_ISO_8,1,5,80,127,3781048620
29,18,7,Jits_ISO_8,2,5,63,98,3781059040
29,18,7,Jits_ISO_8,3,5,56,103,3781088564
29,18,7,Jits_ISO_8,0,5,80,127,3781748996
29,18,7,Jits_ISO_8,1,5,63,98,3781768704
29,18,7,Jits_ISO_8,2,1,48,55,3781816712
29,18,7,Jits_ISO_8,3,5,56,103,3781818676
29,18,7,Jits_ISO_8,0,1,48,55,3782519612
29,18,7,Jits_ISO_8,1,5,63,98,3782578752
29,18,7,Jits_ISO_8,2,5,80,127,3782638984
29,18,7,Jits_ISO_8,3,5,56,103,3782658420
29,18,7,Jits_ISO_8,0,5,63,98,3783339364
29,18,7,Jits_ISO_8,1,1,48,39,3783357776
29,18,7,Jits_ISO_8,2,1,38,11,3783372428
29,18,7,Jits_ISO_8,3,5,56,103,3783388792
29,18,7,Jits_ISO_8,4,5,80,127,3783398912
29,18,7,Jits_ISO_8,0,1,48,46,3784106408
29,18,7,Jits_ISO_8,1,5,56,103,3784168708
29,18,7,Jits_ISO_8,2,5,80,127,3784179276
29,18,7,Jits_ISO_8,3,5,63,98,3784279532
29,18,7,Jits_ISO_8,0,5,80,127,3784928488
29,18,7,Jits_ISO_8,1,5,63,98,3784938832
29,18,7,Jits_ISO_8,2,1,48,38,3784999740
29,18,7,Jits_ISO_8,3,5,56,103,3785089664
29,18,7,Jits_ISO_8,0,1,48,47,3785735904
29,18,7,Jits_ISO_8,1,5,63,98,3785738564
29,18,7,Jits_ISO_8,2,5,80,127,3785778504
29,18,7,Jits_ISO_8,3,5,56,103,3785858508
29,18,7,Jits_ISO_8,0,1,48,43,3786479708
29,18,7,Jits_ISO_8,1,5,56,103,3786529276
29,18,7,Jits_ISO_8,2,5,80,127,3786628616
29,18,7,Jits_ISO_8,3,5,63,98,3786648928
29,18,7,Jits_ISO_8,0,1,48,46,3787382380
29,18,7,Jits_ISO_8,1,5,80,127,3787389452
29,18,7,Jits_ISO_8,2,5,56,103,3787398452
29,18,7,Jits_ISO_8,3,5,63,98,3787488568
29,18,7,Jits_ISO_8,0,1,48,72,3788139240
29,18,7,Jits_ISO_8,1,5,56,103,3788189164
29,18,7,Jits_ISO_8,2,5,63,98,3788208504
29,18,7,Jits_ISO_8,3,5,80,127,3788289504
29,18,7,Jits_ISO_8,0,5,63,98,3788938540
29,18,7,Jits_ISO_8,1,1,48,57,3788957924
29,18,7,Jits_ISO_8,2,5,56,103,3789028668
29,18,7,Jits_ISO_8,3,5,80,127,3789031660
29,18,7,Jits_ISO_8,0,1,48,60,3789726132
29,18,7,Jits_ISO_8,1,5,56,103,3789769024
29,18,7,Jits_ISO_8,2,5,80,127,3789828456
29,18,7,Jits_ISO_8,3,5,63,98,3789838652
29,18,7,Jits_ISO_8,0,1,48,56,3790490188
29,18,7,Jits_ISO_8,1,5,80,127,3790618944
29,18,7,Jits_ISO_8,2,5,56,103,3790629288
29,18,7,Jits_ISO_8,3,5,63,98,3790632280
29,18,7,Jits_ISO_8,0,1,48,40,3791344052
29,18,7,Jits_ISO_8,1,5,56,103,3791378800
29,18,7,Jits_ISO_8,2,5,80,127,3791389220
29,18,7,Jits_ISO_8,3,5,63,98,3791408484
29,18,7,Jits_ISO_8,0,1,48,63,3792060300
29,18,7,Jits_ISO_8,1,5,63,98,3792148916
29,18,7,Jits_ISO_8,2,5,80,127,3792209216
29,18,7,Jits_ISO_8,3,5,56,103,3792258296
29,18,7,Jits_ISO_8,0,1,48,67,3792841428
29,18,7,Jits_ISO_8,1,5,63,98,3793028404
29,18,7,Jits_ISO_8,2,5,56,103,3793038676
29,18,7,Jits_ISO_8,3,5,80,127,3793089028
29,18,7,Jits_ISO_8,0,5,63,98,3793728872
29,18,7,Jits_ISO_8,1,5,80,127,3793749404
29,18,7,Jits_ISO_8,2,5,56,103,3793758552
29,18,7,Jits_ISO_8,3,1,48,39,3793797108
29,18,7,Jits_ISO_8,0,1,48,66,3794468820
29,18,7,Jits_ISO_8,1,5,63,98,3794528636
29,18,7,Jits_ISO_8,2,5,80,127,3794532072
29,18,7,Jits_ISO_8,3,5,56,103,3794568556
29,18,7,Jits_ISO_8,0,1,48,49,3795260044
29,18,7,Jits_ISO_8,1,5,63,98,3795399116
29,18,7,Jits_ISO_8,2,5,80,127,3795428720
29,18,7,Jits_ISO_8,3,5,56,103,3795439064
29,18,7,Jits_ISO_8,0,1,48,46,3796141944
29,18,7,Jits_ISO_8,1,5,56,103,3796148496
29,18,7,Jits_ISO_8,2,5,80,127,3796179220
29,18,7,Jits_ISO_8,3,5,63,98,3796209192
29,18,7,Jits_ISO_8,0,1,48,51,3796906060
29,18,7,Jits_ISO_8,1,5,63,98,3797048832
29,18,7,Jits_ISO_8,2,5,56,103,3797088552
29,18,7,Jits_ISO_8,3,5,80,127,3797091840
29,18,7,Jits_ISO_8,0,5,80,127,3797749196
29,18,7,Jits_ISO_8,1,1,48,59,3797821568
29,18,7,Jits_ISO_8,2,5,56,103,3797829012
29,18,7,Jits_ISO_8,3,5,63,98,3797879284
29,18,7,Jits_ISO_8,0,5,80,127,3798529320
29,18,7,Jits_ISO_8,1,5,56,103,3798548956
29,18,7,Jits_ISO_8,2,1,48,49,3798630364
29,18,7,Jits_ISO_8,3,5,63,98,3798639084
29,18,7,Jits_ISO_8,0,5,80,127,3799369048
29,18,7,Jits_ISO_8,1,1,48,61,3799375908
29,18,7,Jits_ISO_8,2,5,63,98,3799409056
29,18,7,Jits_ISO_8,3,5,56,103,3799448920
29,18,7,Jits_ISO_8,0,1,48,63,3800101160
29,18,7,Jits_ISO_8,1,5,63,98,3800139024
29,18,7,Jits_ISO_8,2,5,80,127,3800198504
29,18,7,Jits_ISO_8,3,5,56,103,3800229228
29,18,7,Jits_ISO_8,0,1,48,76,3800882956
29,18,7,Jits_ISO_8,1,5,56,103,3800939032
29,18,7,Jits_ISO_8,2,5,80,127,3800968780
29,18,7,Jits_ISO_8,3,5,63,98,3801058748
29,18,7,Jits_ISO_8,0,1,48,79,3801657652
29,18,7,Jits_ISO_8,1,5,56,103,3801748856
29,18,7,Jits_ISO_8,2,5,80,127,3801858408
29,18,7,Jits_ISO_8,3,5,63,98,3801889204
29,18,7,Jits_ISO_8,0,1,48,69,3802533324
29,18,7,Jits_ISO_8,1,5,56,103,3802598692
29,18,7,Jits_ISO_8,2,5,63,98,3802659244
29,18,7,Jits_ISO_8,3,5,80,127,3802688844
29,18,7,Jits_ISO_8,0,5,56,103,3803368820
29,18,7,Jits_ISO_8,1,1,48,61,3803414360
29,18,7,Jits_ISO_8,2,5,63,98,3803438820
29,18,7,Jits_ISO_8,3,5,80,127,3803458980
29,18,7,Jits_ISO_8,0,5,80,127,3804138876
29,18,7,Jits_ISO_8,1,5,63,98,3804159212
29,18,7,Jits_ISO_8,2,1,48,66,3804199196
29,18,7,Jits_ISO_8,3,5,56,103,3804208508
29,18,7,Jits_ISO_8,0,9999,9999,9999,3709406284
29,18,7,Jits_ISO_8,1,9999,9999,9999,3710207056
29,18,7,Jits_ISO_8,2,9999,9999,9999,3711006828
29,18,7,Jits_ISO_8,3,9999,9999,9999,3711806556
29,18,7,Jits_ISO_8,4,9999,9999,9999,3712606276
29,18,7,Jits_ISO_8,5,9999,9999,9999,3713407032
29,18,7,Jits_ISO_8,6,9999,9999,9999,3714206812
29,18,7,Jits_ISO_8,7,9999,9999,9999,3715006536
29,18,7,Jits_ISO_8,8,9999,9999,9999,3715806328
29,18,7,Jits_ISO_8,9,9999,9999,9999,3716607096
29,18,7,Jits_ISO_8,10,9999,9999,9999,3717406824
29,18,7,Jits_ISO_8,11,9999,9999,9999,3718206536
29,18,7,Jits_ISO_8,12,9999,9999,9999,3719006324
29,18,7,Jits_ISO_8,13,9999,9999,9999,3719807096
29,18,7,Jits_ISO_8,14,9999,9999,9999,3720606796
29,18,7,Jits_ISO_8,15,9999,9999,9999,3721406568
29,18,7,Jits_ISO_8,16,9999,9999,9999,3722206260
29,18,7,Jits_ISO_8,17,9999,9999,9999,3723007060
29,18,7,Jits_ISO_8,18,9999,9999,9999,3723806772
29,18,7,Jits_ISO_8,19,9999,9999,9999,3724606560
29,18,7,Jits_ISO_8,20,9999,9999,9999,3725406268
29,18,7,Jits_ISO_8,21,9999,9999,9999,3726207100
29,18,7,Jits_ISO_8,22,9999,9999,9999,3727006800
29,18,7,Jits_ISO_8,23,9999,9999,9999,3727806580
29,18,7,Jits_ISO_8,24,9999,9999,9999,3728606296
29,18,7,Jits_ISO_8,25,9999,9999,9999,3729407072
29,18,7,Jits_ISO_8,26,9999,9999,9999,3730206788
29,18,7,Jits_ISO_8,27,9999,9999,9999,3731006572
29,18,7,Jits_ISO_8,28,9999,9999,9999,3731806280
29,18,7,Jits_ISO_8,29,9999,9999,9999,3732607044
29,18,7,Jits_ISO_8,30,9999,9999,9999,3733406828
29,18,7,Jits_ISO_8,31,9999,9999,9999,3734206536
29,18,7,Jits_ISO_8,32,9999,9999,9999,3735006320
29,18,7,Jits_ISO_8,33,9999,9999,9999,3735807096
29,18,7,Jits_ISO_8,34,9999,9999,9999,3736606824
29,18,7,Jits_ISO_8,35,9999,9999,9999,3737406540
29,18,7,Jits_ISO_8,36,9999,9999,9999,3738206256
29,18,7,Jits_ISO_8,37,9999,9999,9999,3739007088
29,18,7,Jits_ISO_8,38,9999,9999,9999,3739806796
29,18,7,Jits_ISO_8,39,9999,9999,9999,3740606584
29,18,7,Jits_ISO_8,40,9999,9999,9999,3741406296
29,18,7,Jits_ISO_8,41,9999,9999,9999,3742207076
29,18,7,Jits_ISO_8,42,9999,9999,9999,3743006784
29,18,7,Jits_ISO_8,43,9999,9999,9999,3743806572
29,18,7,Jits_ISO_8,44,9999,9999,9999,3744606272
29,18,7,Jits_ISO_8,45,9999,9999,9999,3745407028
29,18,7,Jits_ISO_8,46,9999,9999,9999,3746206812
29,18,7,Jits_ISO_8,47,9999,9999,9999,3747006532
29,18,7,Jits_ISO_8,48,9999,9999,9999,3747806332
29,18,7,Jits_ISO_8,49,9999,9999,9999,3748607032
29,18,7,Jits_ISO_8,50,9999,9999,9999,3749406816
29,18,7,Jits_ISO_8,51,9999,9999,9999,3750206524
29,18,7,Jits_ISO_8,52,9999,9999,9999,3751006312
29,18,7,Jits_ISO_8,53,9999,9999,9999,3751807072
29,18,7,Jits_ISO_8,54,9999,9999,9999,3752606780
29,18,7,Jits_ISO_8,55,9999,9999,9999,3753406580
29,18,7,Jits_ISO_8,56,9999,9999,9999,3754206288
29,18,7,Jits_ISO_8,57,9999,9999,9999,3755007072
29,18,7,Jits_ISO_8,58,9999,9999,9999,3755806784
29,18,7,Jits_ISO_8,59,9999,9999,9999,3756606568
29,18,7,Jits_ISO_8,60,9999,9999,9999,3757406276
29,18,7,Jits_ISO_8,61,9999,9999,9999,3758207040
29,18,7,Jits_ISO_8,62,9999,9999,9999,3759006820
29,18,7,Jits_ISO_8,63,9999,9999,9999,3759806524
29,18,7,Jits_ISO_8,64,9999,9999,9999,3760606320
29,18,7,Jits_ISO_8,65,9999,9999,9999,3761407028
29,18,7,Jits_ISO_8,66,9999,9999,9999,3762206820
29,18,7,Jits_ISO_8,67,9999,9999,9999,3763006536
29,18,7,Jits_ISO_8,68,9999,9999,9999,3763806324
29,18,7,Jits_ISO_8,69,9999,9999,9999,3764607028
29,18,7,Jits_ISO_8,70,9999,9999,9999,3765406820
29,18,7,Jits_ISO_8,71,9999,9999,9999,3766206540
29,18,7,Jits_ISO_8,72,9999,9999,9999,3767006264
29,18,7,Jits_ISO_8,73,9999,9999,9999,3767807064
29,18,7,Jits_ISO_8,74,9999,9999,9999,3768606796
29,18,7,Jits_ISO_8,75,9999,9999,9999,3769406588
29,18,7,Jits_ISO_8,76,9999,9999,9999,3770206308
29,18,7,Jits_ISO_8,77,9999,9999,9999,3771007076
29,18,7,Jits_ISO_8,78,9999,9999,9999,3771806784
29,18,7,Jits_ISO_8,79,9999,9999,9999,3772606584
29,18,7,Jits_ISO_8,80,9999,9999,9999,3773406320
29,18,7,Jits_ISO_8,81,9999,9999,9999,3774207048
29,18,7,Jits_ISO_8,82,9999,9999,9999,3775006836
29,18,7,Jits_ISO_8,83,9999,9999,9999,3775806540
29,18,7,Jits_ISO_8,84,9999,9999,9999,3776606320
29,18,7,Jits_ISO_8,85,9999,9999,9999,3777407092
29,18,7,Jits_ISO_8,86,9999,9999,9999,3778206800
29,18,7,Jits_ISO_8,87,9999,9999,9999,3779006580
29,18,7,Jits_ISO_8,88,9999,9999,9999,3779806288
29,18,7,Jits_ISO_8,89,9999,9999,9999,3780607076
29,18,7,Jits_ISO_8,90,9999,9999,9999,3781406796
29,18,7,Jits_ISO_8,91,9999,9999,9999,3782206576
29,18,7,Jits_ISO_8,92,9999,9999,9999,3783006304
29,18,7,Jits_ISO_8,93,9999,9999,9999,3783807084
29,18,7,Jits_ISO_8,94,9999,9999,9999,3784606816
29,18,7,Jits_ISO_8,95,9999,9999,9999,3785406524
29,18,7,Jits_ISO_8,96,9999,9999,9999,3786206320
29,18,7,Jits_ISO_8,97,9999,9999,9999,3787007100
29,18,7,Jits_ISO_8,98,9999,9999,9999,3787806812
29,18,7,Jits_ISO_8,99,9999,9999,9999,3788606528
29,18,7,Jits_ISO_8,100,9999,9999,9999,3789406304
29,18,7,Jits_ISO_8,101,9999,9999,9999,3790207060
29,18,7,Jits_ISO_8,102,9999,9999,9999,3791006840
29,18,7,Jits_ISO_8,103,9999,9999,9999,3791806548
29,18,7,Jits_ISO_8,104,9999,9999,9999,3792606332
29,18,7,Jits_ISO_8,105,9999,9999,9999,3793407048
29,18,7,Jits_ISO_8,106,9999,9999,9999,3794206824
29,18,7,Jits_ISO_8,107,9999,9999,9999,3795006588
29,18,7,Jits_ISO_8,108,9999,9999,9999,3795806304
29,18,7,Jits_ISO_8,109,9999,9999,9999,3796607056
29,18,7,Jits_ISO_8,110,9999,9999,9999,3797406844
29,18,7,Jits_ISO_8,111,9999,9999,9999,3798206560
29,18,7,Jits_ISO_8,112,9999,9999,9999,3799006284
29,18,7,Jits_ISO_8,113,9999,9999,9999,3799807080
29,18,7,Jits_ISO_8,114,9999,9999,9999,3800606804
29,18,7,Jits_ISO_8,115,9999,9999,9999,3801406584
29,18,7,Jits_ISO_8,116,9999,9999,9999,3802206304
29,18,7,Jits_ISO_8,117,9999,9999,9999,3803007064
29,18,7,Jits_ISO_8,118,9999,9999,9999,3803806776
29,18,7,Jits_ISO_8,119,9999,9999,9999,3804606572
29,19,16,Jits_ISO_5,0,5,56,103,3817083304
29,19,16,Jits_ISO_5,1,5,63,98,3817086324
29,19,16,Jits_ISO_5,2,5,80,127,3817089524
29,19,16,Jits_ISO_5,0,5,56,103,3817583172
29,19,16,Jits_ISO_5,1,5,63,98,3817586124
29,19,16,Jits_ISO_5,2,5,80,127,3817589316
29,19,16,Jits_ISO_5,0,5,56,103,3818082688
29,19,16,Jits_ISO_5,1,5,80,127,3818093032
29,19,16,Jits_ISO_5,2,5,63,98,3818113344
29,19,16,Jits_ISO_5,3,1,48,70,3818185008
29,19,16,Jits_ISO_5,0,5,63,98,3818533216
29,19,16,Jits_ISO_5,1,5,80,127,3818563040
29,19,16,Jits_ISO_5,2,5,56,103,3818573160
29,19,16,Jits_ISO_5,3,1,48,71,3818622356
29,19,16,Jits_ISO_5,0,1,48,65,3819074044
29,19,16,Jits_ISO_5,1,5,80,127,3819093400
29,19,16,Jits_ISO_5,2,5,56,103,3819102996
29,19,16,Jits_ISO_5,3,5,63,98,3819133268
29,19,16,Jits_ISO_5,0,1,48,68,3819574608
29,19,16,Jits_ISO_5,1,5,63,98,3819582876
29,19,16,Jits_ISO_5,2,5,56,103,3819612476
29,19,16,Jits_ISO_5,3,5,80,127,3819622968
29,19,16,Jits_ISO_5,0,5,56,103,3820033396
29,19,16,Jits_ISO_5,1,5,63,98,3820082400
29,19,16,Jits_ISO_5,2,1,48,69,3820087468
29,19,16,Jits_ISO_5,3,5,80,127,3820103076
29,19,16,Jits_ISO_5,0,5,80,127,3820543256
29,19,16,Jits_ISO_5,1,1,48,69,3820549444
29,19,16,Jits_ISO_5,2,5,63,98,3820592480
29,19,16,Jits_ISO_5,3,5,56,103,3820632564
29,19,16,Jits_ISO_5,0,5,56,103,3821042984
29,19,16,Jits_ISO_5,1,1,48,68,3821066204
29,19,16,Jits_ISO_5,2,5,63,98,3821072900
29,19,16,Jits_ISO_5,3,5,80,127,3821143400
29,19,16,Jits_ISO_5,0,5,56,103,3821542732
29,19,16,Jits_ISO_5,1,1,48,71,3821562660
29,19,16,Jits_ISO_5,2,5,80,127,3821603144
29,19,16,Jits_ISO_5,3,5,63,98,3821633116
29,19,16,Jits_ISO_5,0,1,48,73,3822047164
29,19,16,Jits_ISO_5,1,5,56,103,3822052888
29,19,16,Jits_ISO_5,2,5,63,98,3822062936
29,19,16,Jits_ISO_5,3,5,80,127,3822102900
29,19,16,Jits_ISO_5,0,5,63,98,3822543192
29,19,16,Jits_ISO_5,1,1,48,76,3822560088
29,19,16,Jits_ISO_5,2,5,80,127,3822623152
29,19,16,Jits_ISO_5,3,5,56,103,3822633496
29,19,16,Jits_ISO_5,0,1,48,75,3823030840
29,19,16,Jits_ISO_5,1,5,63,98,3823093044
29,19,16,Jits_ISO_5,2,5,56,103,3823132992
29,19,16,Jits_ISO_5,3,5,80,127,3823136060
29,19,16,Jits_ISO_5,0,5,56,103,3823552992
29,19,16,Jits_ISO_5,1,5,63,98,3823563340
29,19,16,Jits_ISO_5,2,1,48,72,3823590668
29,19,16,Jits_ISO_5,3,5,80,127,3823603196
29,19,16,Jits_ISO_5,0,1,48,81,3824037124
29,19,16,Jits_ISO_5,1,5,56,103,3824043592
29,19,16,Jits_ISO_5,2,5,63,98,3824046732
29,19,16,Jits_ISO_5,3,5,80,127,3824062780
29,19,16,Jits_ISO_5,0,1,48,75,3824549792
29,19,16,Jits_ISO_5,1,5,80,127,3824553576
29,19,16,Jits_ISO_5,2,5,56,103,3824562724
29,19,16,Jits_ISO_5,3,5,63,98,3824633100
29,19,16,Jits_ISO_5,0,5,63,98,3825042680
29,19,16,Jits_ISO_5,1,1,48,82,3825059504
29,19,16,Jits_ISO_5,2,5,56,103,3825063208
29,19,16,Jits_ISO_5,3,5,80,127,3825143100
29,19,16,Jits_ISO_5,0,5,56,103,3825552680
29,19,16,Jits_ISO_5,1,1,48,67,3825573780
29,19,16,Jits_ISO_5,2,5,80,127,3825592764
29,19,16,Jits_ISO_5,3,5,63,98,3825602884
29,19,16,Jits_ISO_5,0,5,80,127,3826043212
29,19,16,Jits_ISO_5,1,1,48,84,3826051732
29,19,16,Jits_ISO_5,2,5,63,98,3826072880
29,19,16,Jits_ISO_5,3,5,56,103,3826112744
29,19,16,Jits_ISO_5,0,5,56,103,3826562440
29,19,16,Jits_ISO_5,1,1,48,73,3826568628
29,19,16,Jits_ISO_5,2,5,63,98,3826593008
29,19,16,Jits_ISO_5,3,5,80,127,3826643504
29,19,16,Jits_ISO_5,0,1,48,67,3827029636
29,19,16,Jits_ISO_5,1,5,80,127,3827063084
29,19,16,Jits_ISO_5,2,5,56,103,3827103024
29,19,16,Jits_ISO_5,3,5,63,98,3827113292
29,19,16,Jits_ISO_5,0,5,80,127,3827543496
29,19,16,Jits_ISO_5,1,1,48,74,3827567144
29,19,16,Jits_ISO_5,2,5,63,98,3827583428
29,19,16,Jits_ISO_5,3,5,56,103,3827642696
29,19,16,Jits_ISO_5,0,1,48,79,3828026352
29,19,16,Jits_ISO_5,1,5,56,103,3828043312
29,19,16,Jits_ISO_5,2,5,80,127,3828053808
29,19,16,Jits_ISO_5,3,5,63,98,3828133508
29,19,16,Jits_ISO_5,0,5,80,127,3828542756
29,19,16,Jits_ISO_5,1,1,48,61,3828547892
29,19,16,Jits_ISO_5,2,5,63,98,3828603360
29,19,16,Jits_ISO_5,3,5,56,103,3828632812
29,19,16,Jits_ISO_5,0,5,56,103,3829042504
29,19,16,Jits_ISO_5,1,1,48,66,3829045476
29,19,16,Jits_ISO_5,2,5,80,127,3829102888
29,19,16,Jits_ISO_5,3,5,63,98,3829142748
29,19,16,Jits_ISO_5,0,1,48,83,3829555104
29,19,16,Jits_ISO_5,1,5,56,103,3829592592
29,19,16,Jits_ISO_5,2,5,63,98,3829602640
29,19,16,Jits_ISO_5,3,5,80,127,3829606152
29,19,16,Jits_ISO_5,0,5,80,127,3830042956
29,19,16,Jits_ISO_5,1,1,48,68,3830056264
29,19,16,Jits_ISO_5,2,5,63,98,3830133008
29,19,16,Jits_ISO_5,3,5,56,103,3830143500
29,19,16,Jits_ISO_5,0,5,56,103,3830542692
29,19,16,Jits_ISO_5,1,5,63,98,3830545636
29,19,16,Jits_ISO_5,2,5,80,127,3830548912
29,19,16,Jits_ISO_5,3,1,48,59,3830596232
29,19,16,Jits_ISO_5,0,1,48,59,3831023796
29,19,16,Jits_ISO_5,1,5,80,127,3831062876
29,19,16,Jits_ISO_5,2,5,63,98,3831113004
29,19,16,Jits_ISO_5,3,5,56,103,3831142664
29,19,16,Jits_ISO_5,0,5,56,103,3831543440
29,19,16,Jits_ISO_5,1,5,80,127,3831553488
29,19,16,Jits_ISO_5,2,1,48,83,3831576308
29,19,16,Jits_ISO_5,3,5,63,98,3831623008
29,19,16,Jits_ISO_5,0,1,48,62,3832043284
29,19,16,Jits_ISO_5,1,5,56,103,3832053592
29,19,16,Jits_ISO_5,2,5,63,98,3832072856
29,19,16,Jits_ISO_5,3,5,80,127,3832132948
29,19,16,Jits_ISO_5,0,5,80,127,3832542452
29,19,16,Jits_ISO_5,1,1,48,66,3832545496
29,19,16,Jits_ISO_5,2,5,63,98,3832613272
29,19,16,Jits_ISO_5,3,5,56,103,3832632756
29,19,16,Jits_ISO_5,0,1,48,71,3833030100
29,19,16,Jits_ISO_5,1,5,80,127,3833062724
29,19,16,Jits_ISO_5,2,5,56,103,3833073216
29,19,16,Jits_ISO_5,3,5,63,98,3833083436
29,19,16,Jits_ISO_5,0,1,48,64,3833513436
29,19,16,Jits_ISO_5,1,5,80,127,3833553164
29,19,16,Jits_ISO_5,2,5,56,103,3833572728
29,19,16,Jits_ISO_5,3,5,63,98,3833643312
29,19,16,Jits_ISO_5,0,1,48,67,3834003200
29,19,16,Jits_ISO_5,1,5,56,103,3834063384
29,19,16,Jits_ISO_5,2,5,80,127,3834093208
29,19,16,Jits_ISO_5,3,5,63,98,3834113452
29,19,16,Jits_ISO_5,0,1,48,71,3834523384
29,19,16,Jits_ISO_5,1,5,63,98,3834552708
29,19,16,Jits_ISO_5,2,5,56,103,3834613420
29,19,16,Jits_ISO_5,3,5,80,127,3834642928
29,19,16,Jits_ISO_5,0,1,48,75,3835012636
29,19,16,Jits_ISO_5,1,5,63,98,3835043448
29,19,16,Jits_ISO_5,2,5,80,127,3835046588
29,19,16,Jits_ISO_5,3,5,56,103,3835133288
29,19,16,Jits_ISO_5,0,1,48,75,3835510028
29,19,16,Jits_ISO_5,1,5,56,103,3835563252
29,19,16,Jits_ISO_5,2,5,63,98,3835593004
29,19,16,Jits_ISO_5,3,5,80,127,3835633220
29,19,16,Jits_ISO_5,0,1,48,73,3836000936
29,19,16,Jits_ISO_5,1,5,63,98,3836063212
29,19,16,Jits_ISO_5,2,5,56,103,3836103136
29,19,16,Jits_ISO_5,3,5,80,127,3836122548
29,19,16,Jits_ISO_5,0,1,48,74,3836505904
29,19,16,Jits_ISO_5,1,5,63,98,3836573212
29,19,16,Jits_ISO_5,2,5,56,103,3836613212
29,19,16,Jits_ISO_5,3,5,80,127,3836623480
29,19,16,Jits_ISO_5,0,1,48,76,3837001456
29,19,16,Jits_ISO_5,1,5,80,127,3837053248
29,19,16,Jits_ISO_5,2,5,63,98,3837123064
29,19,16,Jits_ISO_5,3,5,56,103,3837143372
29,19,16,Jits_ISO_5,0,5,56,103,3837543100
29,19,16,Jits_ISO_5,1,1,48,70,3837553792
29,19,16,Jits_ISO_5,2,5,80,127,3837563328
29,19,16,Jits_ISO_5,3,5,63,98,3837603340
29,19,16,Jits_ISO_5,0,1,48,72,3838027600
29,19,16,Jits_ISO_5,1,5,63,98,3838052656
29,19,16,Jits_ISO_5,2,5,80,127,3838073116
29,19,16,Jits_ISO_5,3,5,56,103,3838113052
29,19,16,Jits_ISO_5,0,1,48,79,3838514308
29,19,16,Jits_ISO_5,1,5,63,98,3838552392
29,19,16,Jits_ISO_5,2,5,56,103,3838572924
29,19,16,Jits_ISO_5,3,5,80,127,3838583268
29,19,16,Jits_ISO_5,0,1,48,67,3838997324
29,19,16,Jits_ISO_5,1,5,80,127,3839053096
29,19,16,Jits_ISO_5,2,5,56,103,3839072732
29,19,16,Jits_ISO_5,3,5,63,98,3839103288
29,19,16,Jits_ISO_5,0,1,48,81,3839519984
29,19,16,Jits_ISO_5,1,5,56,103,3839622492
29,19,16,Jits_ISO_5,2,5,80,127,3839625560
29,19,16,Jits_ISO_5,3,5,63,98,3839643024
29,19,16,Jits_ISO_5,0,5,63,98,3840043504
29,19,16,Jits_ISO_5,1,1,48,74,3840057184
29,19,16,Jits_ISO_5,2,5,56,103,3840073172
29,19,16,Jits_ISO_5,3,5,80,127,3840132440
29,19,16,Jits_ISO_5,0,1,48,45,3840524476
29,19,16,Jits_ISO_5,1,5,63,98,3840623004
29,19,16,Jits_ISO_5,2,5,56,103,3840633128
29,19,16,Jits_ISO_5,3,5,80,127,3840642352
29,19,16,Jits_ISO_5,0,1,48,56,3841028028
29,19,16,Jits_ISO_5,1,5,56,103,3841072488
29,19,16,Jits_ISO_5,2,5,80,127,3841103284
29,19,16,Jits_ISO_5,3,5,63,98,3841112360
29,19,16,Jits_ISO_5,0,1,48,71,3841550924
29,19,16,Jits_ISO_5,1,5,63,98,3841613128
29,19,16,Jits_ISO_5,2,5,56,103,3841623400
29,19,16,Jits_ISO_5,3,5,80,127,3841643168
29,19,16,Jits_ISO_5,0,1,48,85,3842021192
29,19,16,Jits_ISO_5,1,5,56,103,3842043340
29,19,16,Jits_ISO_5,2,5,63,98,3842102756
29,19,16,Jits_ISO_5,3,5,80,127,3842105896
29,19,16,Jits_ISO_5,0,1,48,79,3842553380
29,19,16,Jits_ISO_5,1,5,80,127,3842562472
29,19,16,Jits_ISO_5,2,5,56,103,3842572592
29,19,16,Jits_ISO_5,3,5,63,98,3842643244
29,19,16,Jits_ISO_5,0,5,80,127,3843052824
29,19,16,Jits_ISO_5,1,1,48,70,3843066080
29,19,16,Jits_ISO_5,2,5,56,103,3843122524
29,19,16,Jits_ISO_5,3,5,63,98,3843132868
29,19,16,Jits_ISO_5,0,1,48,64,3843589344
29,19,16,Jits_ISO_5,1,5,63,98,3843592524
29,19,16,Jits_ISO_5,2,5,56,103,3843603020
29,19,16,Jits_ISO_5,3,5,80,127,3843623252
29,19,16,Jits_ISO_5,0,1,48,48,3844034440
29,19,16,Jits_ISO_5,1,5,80,127,3844043084
29,19,16,Jits_ISO_5,2,5,63,98,3844102380
29,19,16,Jits_ISO_5,3,5,56,103,3844142376
29,19,16,Jits_ISO_5,0,1,48,67,3844538964
29,19,16,Jits_ISO_5,1,5,56,103,3844582824
29,19,16,Jits_ISO_5,2,5,63,98,3844592948
29,19,16,Jits_ISO_5,3,5,80,127,3844632912
29,19,16,Jits_ISO_5,0,5,56,103,3845042636
29,19,16,Jits_ISO_5,1,5,80,127,3845073284
29,19,16,Jits_ISO_5,2,1,48,47,3845109536
29,19,16,Jits_ISO_5,3,5,63,98,3845122528
29,19,16,Jits_ISO_5,0,1,48,72,3845572100
29,19,16,Jits_ISO_5,1,5,56,103,3845583208
29,19,16,Jits_ISO_5,2,5,63,98,3845623096
29,19,16,Jits_ISO_5,3,5,80,127,3845626312
29,19,16,Jits_ISO_5,0,1,48,63,3846073244
29,19,16,Jits_ISO_5,1,5,56,103,3846083012
29,19,16,Jits_ISO_5,2,5,63,98,3846093280
29,19,16,Jits_ISO_5,3,5,80,127,3846112916
29,19,16,Jits_ISO_5,0,5,56,103,3846542744
29,19,16,Jits_ISO_5,1,5,80,127,3846545888
29,19,16,Jits_ISO_5,2,5,63,98,3846582828
29,19,16,Jits_ISO_5,3,1,48,52,3846587968
29,19,16,Jits_ISO_5,0,1,48,65,3847073536
29,19,16,Jits_ISO_5,1,5,63,98,3847083304
29,19,16,Jits_ISO_5,2,5,56,103,3847113200
29,19,16,Jits_ISO_5,3,5,80,127,3847132540
29,19,16,Jits_ISO_5,0,1,48,56,3847548544
29,19,16,Jits_ISO_5,1,5,80,127,3847553596
29,19,16,Jits_ISO_5,2,5,56,103,3847562668
29,19,16,Jits_ISO_5,3,5,63,98,3847572792
29,19,16,Jits_ISO_5,0,1,48,88,3848022516
29,19,16,Jits_ISO_5,1,5,56,103,3848052956
29,19,16,Jits_ISO_5,2,5,80,127,3848092968
29,19,16,Jits_ISO_5,3,5,63,98,3848122700
29,19,16,Jits_ISO_5,0,1,48,64,3848518044
29,19,16,Jits_ISO_5,1,5,63,98,3848562952
29,19,16,Jits_ISO_5,2,5,80,127,3848573148
29,19,16,Jits_ISO_5,3,5,56,103,3848582740
29,19,16,Jits_ISO_5,0,5,56,103,3849043284
29,19,16,Jits_ISO_5,1,1,48,56,3849048276
29,19,16,Jits_ISO_5,2,5,63,98,3849112884
29,19,16,Jits_ISO_5,3,5,80,127,3849123152
29,19,16,Jits_ISO_5,0,1,48,71,3849496320
29,19,16,Jits_ISO_5,1,5,80,127,3849542948
29,19,16,Jits_ISO_5,2,5,56,103,3849553368
29,19,16,Jits_ISO_5,3,5,63,98,3849602508
29,19,16,Jits_ISO_5,0,1,48,62,3849980536
29,19,16,Jits_ISO_5,1,5,80,127,3850052948
29,19,16,Jits_ISO_5,2,5,56,103,3850113472
29,19,16,Jits_ISO_5,3,5,63,98,3850142996
29,19,16,Jits_ISO_5,0,1,48,70,3850549728
29,19,16,Jits_ISO_5,1,5,56,103,3850552680
29,19,16,Jits_ISO_5,2,5,80,127,3850555748
29,19,16,Jits_ISO_5,3,5,63,98,3850592620
29,19,16,Jits_ISO_5,0,5,56,103,3851082976
29,19,16,Jits_ISO_5,1,1,48,72,3851092916
29,19,16,Jits_ISO_5,2,5,63,98,3851112720
29,19,16,Jits_ISO_5,3,5,80,127,3851122916
29,19,16,Jits_ISO_5,0,1,48,68,3851544556
29,19,16,Jits_ISO_5,1,5,63,98,3851592988
29,19,16,Jits_ISO_5,2,5,80,127,3851603628
29,19,16,Jits_ISO_5,3,5,56,103,3851612480
29,19,16,Jits_ISO_5,0,5,80,127,3852042680
29,19,16,Jits_ISO_5,1,1,48,64,3852090676
29,19,16,Jits_ISO_5,2,5,56,103,3852092800
29,19,16,Jits_ISO_5,3,5,63,98,3852095868
29,19,16,Jits_ISO_5,0,1,48,53,3852554524
29,19,16,Jits_ISO_5,1,5,56,103,3852572980
29,19,16,Jits_ISO_5,2,5,80,127,3852592464
29,19,16,Jits_ISO_5,3,5,63,98,3852602736
29,19,16,Jits_ISO_5,0,5,63,98,3853053312
29,19,16,Jits_ISO_5,1,1,48,63,3853059800
29,19,16,Jits_ISO_5,2,5,56,103,3853082984
29,19,16,Jits_ISO_5,3,5,80,127,3853102396
29,19,16,Jits_ISO_5,0,1,48,66,3853515156
29,19,16,Jits_ISO_5,1,5,56,103,3853563376
29,19,16,Jits_ISO_5,2,5,80,127,3853572452
29,19,16,Jits_ISO_5,3,5,63,98,3853643312
29,19,16,Jits_ISO_5,0,1,48,77,3854033696
29,19,16,Jits_ISO_5,1,5,63,98,3854052752
29,19,16,Jits_ISO_5,2,5,80,127,3854092644
29,19,16,Jits_ISO_5,3,5,56,103,3854132564
29,19,16,Jits_ISO_5,0,5,56,103,3854562612
29,19,16,Jits_ISO_5,1,5,63,98,3854573028
29,19,16,Jits_ISO_5,2,1,48,59,3854575704
29,19,16,Jits_ISO_5,3,5,80,127,3854593284
29,19,16,Jits_ISO_5,0,1,48,59,3855095384
29,19,16,Jits_ISO_5,1,5,63,98,3855103204
29,19,16,Jits_ISO_5,2,5,80,127,3855122764
29,19,16,Jits_ISO_5,3,5,56,103,3855143220
29,19,16,Jits_ISO_5,0,5,56,103,3855542532
29,19,16,Jits_ISO_5,1,1,48,60,3855580104
29,19,16,Jits_ISO_5,2,5,80,127,3855622496
29,19,16,Jits_ISO_5,3,5,63,98,3855632692
29,19,16,Jits_ISO_5,0,1,48,67,3856075364
29,19,16,Jits_ISO_5,1,5,80,127,3856083404
29,19,16,Jits_ISO_5,2,5,63,98,3856092480
29,19,16,Jits_ISO_5,3,5,56,103,3856123376
29,19,16,Jits_ISO_5,0,5,63,98,3856543364
29,19,16,Jits_ISO_5,1,5,80,127,3856583304
29,19,16,Jits_ISO_5,2,1,48,63,3856602612
29,19,16,Jits_ISO_5,3,5,56,103,3856642288
29,19,16,Jits_ISO_5,0,5,63,98,3857053140
29,19,16,Jits_ISO_5,1,1,48,71,3857067868
29,19,16,Jits_ISO_5,2,5,56,103,3857103264
29,19,16,Jits_ISO_5,3,5,80,127,3857132788
29,19,16,Jits_ISO_5,0,5,80,127,3857563212
29,19,16,Jits_ISO_5,1,1,48,67,3857569476
29,19,16,Jits_ISO_5,2,5,63,98,3857573480
29,19,16,Jits_ISO_5,3,5,56,103,3857643008
29,19,16,Jits_ISO_5,0,1,48,62,3858060076
29,19,16,Jits_ISO_5,1,5,80,127,3858133312
29,19,16,Jits_ISO_5,2,5,56,103,3858142532
29,19,16,Jits_ISO_5,3,5,63,98,3858145748
29,19,16,Jits_ISO_5,0,1,48,70,3858562076
29,19,16,Jits_ISO_5,1,5,56,103,3858572584
29,19,16,Jits_ISO_5,2,5,80,127,3858593192
29,19,16,Jits_ISO_5,3,5,63,98,3858603464
29,19,16,Jits_ISO_5,0,1,48,75,3859061356
29,19,16,Jits_ISO_5,1,5,63,98,3859082656
29,19,16,Jits_ISO_5,2,5,56,103,3859122520
29,19,16,Jits_ISO_5,3,5,80,127,3859143276
29,19,16,Jits_ISO_5,0,5,63,98,3859583300
29,19,16,Jits_ISO_5,1,1,48,65,3859587616
29,19,16,Jits_ISO_5,2,5,56,103,3859642708
29,19,16,Jits_ISO_5,3,5,80,127,3859645776
29,19,16,Jits_ISO_5,0,5,56,103,3860043244
29,19,16,Jits_ISO_5,1,1,48,78,3860059092
29,19,16,Jits_ISO_5,2,5,80,127,3860062652
29,19,16,Jits_ISO_5,3,5,63,98,3860102512
29,19,16,Jits_ISO_5,0,1,48,56,3860568800
29,19,16,Jits_ISO_5,1,5,56,103,3860572580
29,19,16,Jits_ISO_5,2,5,63,98,3860592964
29,19,16,Jits_ISO_5,3,5,80,127,3860603384
29,19,16,Jits_ISO_5,0,5,80,127,3861042428
29,19,16,Jits_ISO_5,1,1,48,71,3861053492
29,19,16,Jits_ISO_5,2,5,56,103,3861073288
29,19,16,Jits_ISO_5,3,5,63,98,3861113228
29,19,16,Jits_ISO_5,0,5,80,127,3861552584
29,19,16,Jits_ISO_5,1,1,48,64,3861554072
29,19,16,Jits_ISO_5,2,5,56,103,3861573188
29,19,16,Jits_ISO_5,3,5,63,98,3861633352
29,19,16,Jits_ISO_5,0,1,48,78,3862050420
29,19,16,Jits_ISO_5,1,5,56,103,3862062516
29,19,16,Jits_ISO_5,2,5,80,127,3862082900
29,19,16,Jits_ISO_5,3,5,63,98,3862143364
29,19,16,Jits_ISO_5,0,5,80,127,3862542928
29,19,16,Jits_ISO_5,1,5,56,103,3862553124
29,19,16,Jits_ISO_5,2,1,48,56,3862565680
29,19,16,Jits_ISO_5,3,5,63,98,3862593128
29,19,16,Jits_ISO_5,0,5,63,98,3863042372
29,19,16,Jits_ISO_5,1,1,48,70,3863050372
29,19,16,Jits_ISO_5,2,5,56,103,3863083268
29,19,16,Jits_ISO_5,3,5,80,127,3863086340
29,19,16,Jits_ISO_5,0,1,48,50,3863533492
29,19,16,Jits_ISO_5,1,5,63,98,3863562612
29,19,16,Jits_ISO_5,2,5,80,127,3863602552
29,19,16,Jits_ISO_5,3,5,56,103,3863633404
29,19,16,Jits_ISO_5,0,5,56,103,3864052992
29,19,16,Jits_ISO_5,1,1,48,74,3864055960
29,19,16,Jits_ISO_5,2,5,63,98,3864063328
29,19,16,Jits_ISO_5,3,5,80,127,3864093004
29,19,16,Jits_ISO_5,0,5,80,127,3864542668
29,19,16,Jits_ISO_5,1,1,48,53,3864559120
29,19,16,Jits_ISO_5,2,5,63,98,3864613192
29,19,16,Jits_ISO_5,3,5,56,103,3864622340
29,19,16,Jits_ISO_5,0,5,63,98,3865043244
29,19,16,Jits_ISO_5,1,1,48,67,3865087960
29,19,16,Jits_ISO_5,2,5,56,103,3865113092
29,19,16,Jits_ISO_5,3,5,80,127,3865123288
29,19,16,Jits_ISO_5,0,5,63,98,3865542980
29,19,16,Jits_ISO_5,1,5,56,103,3865562392
29,19,16,Jits_ISO_5,2,1,48,66,3865568124
29,19,16,Jits_ISO_5,3,5,80,127,3865602272
29,19,16,Jits_ISO_5,0,1,48,61,3866042676
29,19,16,Jits_ISO_5,1,5,56,103,3866053112
29,19,16,Jits_ISO_5,2,5,63,98,3866063380
29,19,16,Jits_ISO_5,3,5,80,127,3866143184
29,19,16,Jits_ISO_5,0,5,63,98,3866542440
29,19,16,Jits_ISO_5,1,1,48,49,3866558964
29,19,16,Jits_ISO_5,2,5,56,103,3866573228
29,19,16,Jits_ISO_5,3,5,80,127,3866613044
29,19,16,Jits_ISO_5,0,5,56,103,3867043220
29,19,16,Jits_ISO_5,1,1,48,58,3867066492
29,19,16,Jits_ISO_5,2,5,63,98,3867083000
29,19,16,Jits_ISO_5,3,5,80,127,3867123040
29,19,16,Jits_ISO_5,0,5,80,127,3867542892
29,19,16,Jits_ISO_5,1,1,48,23,3867579420
29,19,16,Jits_ISO_5,2,5,56,103,3867622828
29,19,16,Jits_ISO_5,3,5,63,98,3867632948
29,19,16,Jits_ISO_5,0,1,48,63,3868034668
29,19,16,Jits_ISO_5,1,5,56,103,3868082716
29,19,16,Jits_ISO_5,2,5,63,98,3868085632
29,19,16,Jits_ISO_5,3,5,80,127,3868092836
29,19,16,Jits_ISO_5,0,1,48,61,3868577916
29,19,16,Jits_ISO_5,1,5,56,103,3868602892
29,19,16,Jits_ISO_5,2,5,63,98,3868623128
29,19,16,Jits_ISO_5,3,5,80,127,3868632572
29,19,16,Jits_ISO_5,0,5,63,98,3869062480
29,19,16,Jits_ISO_5,1,5,80,127,3869072680
29,19,16,Jits_ISO_5,2,1,48,60,3869086060
29,19,16,Jits_ISO_5,3,5,56,103,3869093204
29,19,16,Jits_ISO_5,0,1,48,65,3869562732
29,19,16,Jits_ISO_5,1,5,63,98,3869564448
29,19,16,Jits_ISO_5,2,5,56,103,3869643196
29,19,16,Jits_ISO_5,3,5,80,127,3869646192
29,19,16,Jits_ISO_5,0,5,63,98,3870062916
29,19,16,Jits_ISO_5,1,5,56,103,3870082700
29,19,16,Jits_ISO_5,2,5,80,127,3870113200
29,19,16,Jits_ISO_5,3,1,48,67,3870122912
29,19,16,Jits_ISO_5,0,5,56,103,3870562652
29,19,16,Jits_ISO_5,1,5,63,98,3870583112
29,19,16,Jits_ISO_5,2,1,48,55,3870587204
29,19,16,Jits_ISO_5,3,5,80,127,3870593672
29,19,16,Jits_ISO_5,0,1,48,42,3871084992
29,19,16,Jits_ISO_5,1,5,56,103,3871092964
29,19,16,Jits_ISO_5,2,5,63,98,3871122784
29,19,16,Jits_ISO_5,3,5,80,127,3871126148
29,19,16,Jits_ISO_5,0,5,56,103,3871542576
29,19,16,Jits_ISO_5,1,5,63,98,3871582660
29,19,16,Jits_ISO_5,2,1,48,60,3871594772
29,19,16,Jits_ISO_5,3,5,80,127,3871642968
29,19,16,Jits_ISO_5,0,1,48,64,3872046628
29,19,16,Jits_ISO_5,1,5,56,103,3872062692
29,19,16,Jits_ISO_5,2,5,63,98,3872073036
29,19,16,Jits_ISO_5,3,5,80,127,3872132528
29,19,16,Jits_ISO_5,0,1,48,58,3872533404
29,19,16,Jits_ISO_5,1,5,56,103,3872562572
29,19,16,Jits_ISO_5,2,5,80,127,3872582884
29,19,16,Jits_ISO_5,3,5,63,98,3872612632
29,19,16,Jits_ISO_5,0,1,48,55,3873045196
29,19,16,Jits_ISO_5,1,5,80,127,3873063428
29,19,16,Jits_ISO_5,2,5,56,103,3873072428
29,19,16,Jits_ISO_5,3,5,63,98,3873093112
29,19,16,Jits_ISO_5,0,1,48,54,3873545676
29,19,16,Jits_ISO_5,1,5,63,98,3873552672
29,19,16,Jits_ISO_5,2,5,80,127,3873632620
29,19,16,Jits_ISO_5,3,5,56,103,3873642800
29,19,16,Jits_ISO_5,0,1,48,66,3874060412
29,19,16,Jits_ISO_5,1,5,80,127,3874113024
29,19,16,Jits_ISO_5,2,5,56,103,3874133404
29,19,16,Jits_ISO_5,3,5,63,98,3874136544
29,19,16,Jits_ISO_5,0,1,48,61,3874550308
29,19,16,Jits_ISO_5,1,5,63,98,3874582932
29,19,16,Jits_ISO_5,2,5,80,127,3874586372
29,19,16,Jits_ISO_5,3,5,56,103,3874643468
29,19,16,Jits_ISO_5,0,1,48,58,3875056312
29,19,16,Jits_ISO_5,1,5,56,103,3875063332
29,19,16,Jits_ISO_5,2,5,80,127,3875073304
29,19,16,Jits_ISO_5,3,5,63,98,3875113316
29,19,16,Jits_ISO_5,0,5,56,103,3875543492
29,19,16,Jits_ISO_5,1,1,48,67,3875592940
29,19,16,Jits_ISO_5,2,5,63,98,3875602780
29,19,16,Jits_ISO_5,3,5,80,127,3875613420
29,19,16,Jits_ISO_5,0,5,63,98,3876053432
29,19,16,Jits_ISO_5,1,1,48,62,3876090136
29,19,16,Jits_ISO_5,2,5,80,127,3876093392
29,19,16,Jits_ISO_5,3,5,56,103,3876133400
29,19,16,Jits_ISO_5,0,5,56,103,3876553020
29,19,16,Jits_ISO_5,1,1,48,42,3876564084
29,19,16,Jits_ISO_5,2,5,63,98,3876632904
29,19,16,Jits_ISO_5,3,5,80,127,3876636416
29,19,16,Jits_ISO_5,0,9999,9999,9999,3817330808
29,19,16,Jits_ISO_5,1,9999,9999,9999,3817830452
29,19,16,Jits_ISO_5,2,9999,9999,9999,3818330172
29,19,16,Jits_ISO_5,3,9999,9999,9999,3818830968
29,19,16,Jits_ISO_5,4,9999,9999,9999,3819330632
29,19,16,Jits_ISO_5,5,9999,9999,9999,3819830368
29,19,16,Jits_ISO_5,6,9999,9999,9999,3820331072
29,19,16,Jits_ISO_5,7,9999,9999,9999,3820841012
29,19,16,Jits_ISO_5,8,9999,9999,9999,3821340760
29,19,16,Jits_ISO_5,9,9999,9999,9999,3821840440
29,19,16,Jits_ISO_5,10,9999,9999,9999,3822340188
29,19,16,Jits_ISO_5,11,9999,9999,9999,3822840896
29,19,16,Jits_ISO_5,12,9999,9999,9999,3823340604
29,19,16,Jits_ISO_5,13,9999,9999,9999,3823840332
29,19,16,Jits_ISO_5,14,9999,9999,9999,3824341116
29,19,16,Jits_ISO_5,15,9999,9999,9999,3824840776
29,19,16,Jits_ISO_5,16,9999,9999,9999,3825340508
29,19,16,Jits_ISO_5,17,9999,9999,9999,3825840244
29,19,16,Jits_ISO_5,18,9999,9999,9999,3826340964
29,19,16,Jits_ISO_5,19,9999,9999,9999,3826840644
29,19,16,Jits_ISO_5,20,9999,9999,9999,3827340392
29,19,16,Jits_ISO_5,21,9999,9999,9999,3827840056
29,19,16,Jits_ISO_5,22,9999,9999,9999,3828340848
29,19,16,Jits_ISO_5,23,9999,9999,9999,3828840508
29,19,16,Jits_ISO_5,24,9999,9999,9999,3829340260
29,19,16,Jits_ISO_5,25,9999,9999,9999,3829840972
29,19,16,Jits_ISO_5,26,9999,9999,9999,3830340712
29,19,16,Jits_ISO_5,27,9999,9999,9999,3830840436
29,19,16,Jits_ISO_5,28,9999,9999,9999,3831340112
29,19,16,Jits_ISO_5,29,9999,9999,9999,3831840820
29,19,16,Jits_ISO_5,30,9999,9999,9999,3832340568
29,19,16,Jits_ISO_5,31,9999,9999,9999,3832840308
29,19,16,Jits_ISO_5,32,9999,9999,9999,3833341028
29,19,16,Jits_ISO_5,33,9999,9999,9999,3833840736
29,19,16,Jits_ISO_5,34,9999,9999,9999,3834340468
29,19,16,Jits_ISO_5,35,9999,9999,9999,3834840132
29,19,16,Jits_ISO_5,36,9999,9999,9999,3835340900
29,19,16,Jits_ISO_5,37,9999,9999,9999,3835840636
29,19,16,Jits_ISO_5,38,9999,9999,9999,3836340300
29,19,16,Jits_ISO_5,39,9999,9999,9999,3836841084
29,19,16,Jits_ISO_5,40,9999,9999,9999,3837340748
29,19,16,Jits_ISO_5,41,9999,9999,9999,3837840480
29,19,16,Jits_ISO_5,42,9999,9999,9999,3838340152
29,19,16,Jits_ISO_5,43,9999,9999,9999,3838840932
29,19,16,Jits_ISO_5,44,9999,9999,9999,3839340668
29,19,16,Jits_ISO_5,45,9999,9999,9999,3839840324
29,19,16,Jits_ISO_5,46,9999,9999,9999,3840341108
29,19,16,Jits_ISO_5,47,9999,9999,9999,3840840772
29,19,16,Jits_ISO_5,48,9999,9999,9999,3841340508
29,19,16,Jits_ISO_5,49,9999,9999,9999,3841840244
29,19,16,Jits_ISO_5,50,9999,9999,9999,3842340940
29,19,16,Jits_ISO_5,51,9999,9999,9999,3842840676
29,19,16,Jits_ISO_5,52,9999,9999,9999,3843340340
29,19,16,Jits_ISO_5,53,9999,9999,9999,3843840092
29,19,16,Jits_ISO_5,54,9999,9999,9999,3844340796
29,19,16,Jits_ISO_5,55,9999,9999,9999,3844840508
29,19,16,Jits_ISO_5,56,9999,9999,9999,3845340240
29,19,16,Jits_ISO_5,57,9999,9999,9999,3845840956
29,19,16,Jits_ISO_5,58,9999,9999,9999,3846340692
29,19,16,Jits_ISO_5,59,9999,9999,9999,3846840412
29,19,16,Jits_ISO_5,60,9999,9999,9999,3847340088
29,19,16,Jits_ISO_5,61,9999,9999,9999,3847840864
29,19,16,Jits_ISO_5,62,9999,9999,9999,3848340600
29,19,16,Jits_ISO_5,63,9999,9999,9999,3848840256
29,19,16,Jits_ISO_5,64,9999,9999,9999,3849341036
29,19,16,Jits_ISO_5,65,9999,9999,9999,3849840708
29,19,16,Jits_ISO_5,66,9999,9999,9999,3850340444
29,19,16,Jits_ISO_5,67,9999,9999,9999,3850840168
29,19,16,Jits_ISO_5,68,9999,9999,9999,3851340876
29,19,16,Jits_ISO_5,69,9999,9999,9999,3851840628
29,19,16,Jits_ISO_5,70,9999,9999,9999,3852340276
29,19,16,Jits_ISO_5,71,9999,9999,9999,3852841068
29,19,16,Jits_ISO_5,72,9999,9999,9999,3853340728
29,19,16,Jits_ISO_5,73,9999,9999,9999,3853840464
29,19,16,Jits_ISO_5,74,9999,9999,9999,3854340200
29,19,16,Jits_ISO_5,75,9999,9999,9999,3854840904
29,19,16,Jits_ISO_5,76,9999,9999,9999,3855340632
29,19,16,Jits_ISO_5,77,9999,9999,9999,3855840360
29,19,16,Jits_ISO_5,78,9999,9999,9999,3856341084
29,19,16,Jits_ISO_5,79,9999,9999,9999,3856840820
29,19,16,Jits_ISO_5,80,9999,9999,9999,3857340484
29,19,16,Jits_ISO_5,81,9999,9999,9999,3857840220
29,19,16,Jits_ISO_5,82,9999,9999,9999,3858340940
29,19,16,Jits_ISO_5,83,9999,9999,9999,3858840676
29,19,16,Jits_ISO_5,84,9999,9999,9999,3859340340
29,19,16,Jits_ISO_5,85,9999,9999,9999,3859840068
29,19,16,Jits_ISO_5,86,9999,9999,9999,3860340848
29,19,16,Jits_ISO_5,87,9999,9999,9999,3860840524
29,19,16,Jits_ISO_5,88,9999,9999,9999,3861340252
29,19,16,Jits_ISO_5,89,9999,9999,9999,3861840976
29,19,16,Jits_ISO_5,90,9999,9999,9999,3862340724
29,19,16,Jits_ISO_5,91,9999,9999,9999,3862840380
29,19,16,Jits_ISO_5,92,9999,9999,9999,3863340116
29,19,16,Jits_ISO_5,93,9999,9999,9999,3863840820
29,19,16,Jits_ISO_5,94,9999,9999,9999,3864340552
29,19,16,Jits_ISO_5,95,9999,9999,9999,3864840300
29,19,16,Jits_ISO_5,96,9999,9999,9999,3865341024
29,19,16,Jits_ISO_5,97,9999,9999,9999,3865840728
29,19,16,Jits_ISO_5,98,9999,9999,9999,3866340460
29,19,16,Jits_ISO_5,99,9999,9999,9999,3866840116
29,19,16,Jits_ISO_5,100,9999,9999,9999,3867340900
29,19,16,Jits_ISO_5,101,9999,9999,9999,3867840572
29,19,16,Jits_ISO_5,102,9999,9999,9999,3868340312
29,19,16,Jits_ISO_5,103,9999,9999,9999,3868841020
29,19,16,Jits_ISO_5,104,9999,9999,9999,3869340752
29,19,16,Jits_ISO_5,105,9999,9999,9999,3869840484
29,19,16,Jits_ISO_5,106,9999,9999,9999,3870340216
29,19,16,Jits_ISO_5,107,9999,9999,9999,3870840928
29,19,16,Jits_ISO_5,108,9999,9999,9999,3871340596
29,19,16,Jits_ISO_5,109,9999,9999,9999,3871840328
29,19,16,Jits_ISO_5,110,9999,9999,9999,3872341048
29,19,16,Jits_ISO_5,111,9999,9999,9999,3872840780
29,19,16,Jits_ISO_5,112,9999,9999,9999,3873340512
29,19,16,Jits_ISO_5,113,9999,9999,9999,3873840252
29,19,16,Jits_ISO_5,114,9999,9999,9999,3874340952
29,19,16,Jits_ISO_5,115,9999,9999,9999,3874840680
29,19,16,Jits_ISO_5,116,9999,9999,9999,3875340340
29,19,16,Jits_ISO_5,117,9999,9999,9999,3875840076
29,19,16,Jits_ISO_5,118,9999,9999,9999,3876340800
29,19,16,Jits_ISO_5,119,9999,9999,9999,3876840504
29,20,3,ISIP_8,0,5,42,127,3941117452
29,20,3,ISIP_8,1,5,42,127,3941917132
29,20,3,ISIP_8,2,5,42,127,3942716816
29,20,3,ISIP_8,3,1,48,41,3942793312
29,20,3,ISIP_8,4,1,48,40,3943501100
29,20,3,ISIP_8,5,5,42,127,3943516540
29,20,3,ISIP_8,6,1,48,47,3944289836
29,20,3,ISIP_8,7,5,42,127,3944317172
29,20,3,ISIP_8,8,1,48,56,3945075884
29,20,3,ISIP_8,9,5,42,127,3945117352
29,20,3,ISIP_8,10,1,48,61,3945863276
29,20,3,ISIP_8,11,5,42,127,3945916716
29,20,3,ISIP_8,12,1,48,56,3946595840
29,20,3,ISIP_8,13,5,42,127,3946716508
29,20,3,ISIP_8,14,1,48,58,3947410232
29,20,3,ISIP_8,15,5,42,127,3947517160
29,20,3,ISIP_8,16,1,48,59,3948242872
29,20,3,ISIP_8,17,5,42,127,3948317132
29,20,3,ISIP_8,18,1,48,62,3948989804
29,20,3,ISIP_8,19,5,42,127,3949116928
29,20,3,ISIP_8,20,1,48,59,3949801204
29,20,3,ISIP_8,21,5,42,127,3949916584
29,20,3,ISIP_8,22,1,48,58,3950633796
29,20,3,ISIP_8,23,5,42,127,3950717160
29,20,3,ISIP_8,24,1,48,65,3951506012
29,20,3,ISIP_8,25,5,42,127,3951516968
29,20,3,ISIP_8,26,1,48,57,3952269772
29,20,3,ISIP_8,27,5,42,127,3952316780
29,20,3,ISIP_8,28,1,48,65,3953045040
29,20,3,ISIP_8,29,5,42,127,3953116656
29,20,3,ISIP_8,30,1,48,61,3953844772
29,20,3,ISIP_8,31,5,42,127,3953917160
29,20,3,ISIP_8,32,1,48,61,3954663956
29,20,3,ISIP_8,33,5,42,127,3954717044
29,20,3,ISIP_8,34,1,48,53,3955453540
29,20,3,ISIP_8,35,5,42,127,3955516852
29,20,3,ISIP_8,36,1,48,58,3956256264
29,20,3,ISIP_8,37,5,42,127,3956316660
29,20,3,ISIP_8,38,1,48,65,3957065348
29,20,3,ISIP_8,39,5,42,127,3957117216
29,20,3,ISIP_8,40,1,48,57,3957882888
29,20,3,ISIP_8,41,5,42,127,3957917024
29,20,3,ISIP_8,42,1,48,65,3958649332
29,20,3,ISIP_8,43,5,42,127,3958716684
29,20,3,ISIP_8,44,1,48,65,3959473072
29,20,3,ISIP_8,45,5,42,127,3959516564
29,20,3,ISIP_8,46,1,48,67,3960221496
29,20,3,ISIP_8,47,5,42,127,3960317444
29,20,3,ISIP_8,48,1,48,65,3961004996
29,20,3,ISIP_8,49,5,42,127,3961116940
29,20,3,ISIP_8,50,1,48,58,3961819468
29,20,3,ISIP_8,51,5,42,127,3961916820
29,20,3,ISIP_8,52,1,48,57,3962546424
29,20,3,ISIP_8,53,5,42,127,3962716404
29,20,3,ISIP_8,54,1,48,60,3963409980
29,20,3,ISIP_8,55,5,42,127,3963517480
29,20,3,ISIP_8,56,1,48,61,3964274412
29,20,3,ISIP_8,57,5,42,127,3964317156
29,20,3,ISIP_8,58,1,48,57,3965071608
29,20,3,ISIP_8,59,1,48,60,3965892656
29,20,3,ISIP_8,60,1,48,64,3966711856
29,20,3,ISIP_8,61,1,48,61,3967540016
29,20,3,ISIP_8,62,1,48,56,3968373480
29,20,3,ISIP_8,63,1,48,57,3969234916
29,20,3,ISIP_8,64,1,48,58,3970005104
29,20,3,ISIP_8,65,1,48,45,3970833580
29,20,3,ISIP_8,66,1,48,58,3971640260
29,20,3,ISIP_8,67,1,48,65,3972440072
29,20,3,ISIP_8,68,1,48,52,3973251540
29,20,3,ISIP_8,69,1,48,65,3974106020
29,20,3,ISIP_8,70,1,48,50,3974950204
29,20,3,ISIP_8,71,1,48,63,3975694732
29,20,3,ISIP_8,72,1,48,70,3976457808
29,20,3,ISIP_8,73,1,48,56,3977222008
29,20,3,ISIP_8,74,1,48,67,3978011636
29,20,3,ISIP_8,75,1,48,67,3978807556
29,20,3,ISIP_8,76,1,48,61,3979627632
29,20,3,ISIP_8,77,1,48,59,3980530980
29,20,3,ISIP_8,78,1,48,65,3981421592
29,20,3,ISIP_8,79,1,48,51,3982180928
29,20,3,ISIP_8,80,1,48,56,3982967564
29,20,3,ISIP_8,81,1,48,65,3983750392
29,20,3,ISIP_8,82,1,48,65,3984543460
29,20,3,ISIP_8,83,1,48,61,3985380888
29,20,3,ISIP_8,84,1,48,50,3986210040
29,20,3,ISIP_8,85,1,48,58,3986969676
29,20,3,ISIP_8,86,1,48,67,3987741808
29,20,3,ISIP_8,87,1,48,60,3988579228
29,20,3,ISIP_8,88,1,48,83,3989398032
29,20,3,ISIP_8,89,1,48,63,3990204644
29,20,3,ISIP_8,90,1,48,62,3991045164
29,20,3,ISIP_8,91,1,48,55,3991868080
29,20,3,ISIP_8,92,1,48,60,3992604980
29,20,3,ISIP_8,93,1,48,54,3993423852
29,20,3,ISIP_8,94,1,48,61,3994192840
29,20,3,ISIP_8,95,1,48,65,3995016212
29,20,3,ISIP_8,96,1,48,64,3995820204
29,20,3,ISIP_8,97,1,48,61,3996613052
29,20,3,ISIP_8,98,1,48,63,3997343964
29,20,3,ISIP_8,99,1,48,57,3998220316
29,20,3,ISIP_8,100,1,48,59,3998986980
29,20,3,ISIP_8,101,1,48,55,3999767564
29,20,3,ISIP_8,102,1,48,51,4000577012
29,20,3,ISIP_8,103,1,48,61,4001391632
29,20,3,ISIP_8,104,1,48,65,4002198312
29,20,3,ISIP_8,105,1,48,55,4002984204
29,20,3,ISIP_8,106,1,48,63,4003713700
29,20,3,ISIP_8,107,1,48,62,4004489716
29,20,3,ISIP_8,108,1,48,52,4005242844
29,20,3,ISIP_8,109,1,48,66,4006046388
29,20,3,ISIP_8,110,1,48,59,4006803332
29,20,3,ISIP_8,111,1,48,72,4007671752
29,20,3,ISIP_8,112,1,48,64,4008454428
29,20,3,ISIP_8,113,1,48,60,4009227532
29,20,3,ISIP_8,114,1,48,66,4010031968
29,20,3,ISIP_8,115,1,48,67,4010836784
29,20,3,ISIP_8,116,1,48,61,4011650056
29,20,3,ISIP_8,117,1,48,68,4012414032
29,20,3,ISIP_8,118,1,48,60,4013163648
29,20,3,ISIP_8,119,1,48,81,4013998604
29,20,3,ISIP_8,120,1,48,72,4014771104
29,20,3,ISIP_8,121,1,48,53,4015652016
29,20,3,ISIP_8,122,1,48,65,4016418680
29,20,3,ISIP_8,123,1,48,68,4017211380
29,20,3,ISIP_8,124,1,48,60,4018020464
29,20,3,ISIP_8,125,1,48,67,4018722724
29,20,3,ISIP_8,126,1,48,60,4019538688
29,20,3,ISIP_8,127,1,48,66,4020358012
29,20,3,ISIP_8,128,1,48,66,4021094680
29,20,3,ISIP_8,129,1,48,63,4021892908
29,20,3,ISIP_8,130,1,48,71,4022679924
29,20,3,ISIP_8,131,1,48,71,4023443824
29,20,3,ISIP_8,132,1,48,61,4024194560
29,20,3,ISIP_8,133,1,48,63,4024971024
29,20,3,ISIP_8,134,1,48,61,4025754976
29,20,3,ISIP_8,135,1,48,69,4026610004
29,20,3,ISIP_8,136,1,48,58,4027404044
29,20,3,ISIP_8,137,1,48,69,4028150072
29,20,3,ISIP_8,138,1,48,73,4028914272
29,20,3,ISIP_8,139,1,48,59,4029681168
29,20,3,ISIP_8,140,1,48,53,4030482840
29,20,3,ISIP_8,141,1,48,75,4031267312
29,20,3,ISIP_8,142,1,48,65,4031987676
29,20,3,ISIP_8,143,1,48,54,4032852408
29,20,3,ISIP_8,144,1,48,64,4033667324
29,20,3,ISIP_8,145,1,48,61,4034439304
29,20,3,ISIP_8,146,1,48,67,4035168476
29,20,3,ISIP_8,147,1,48,73,4035978148
29,20,3,ISIP_8,148,1,48,75,4036807724
29,20,3,ISIP_8,149,1,48,56,4037596756
29,20,3,ISIP_8,150,1,48,63,4038376464
29,20,3,ISIP_8,151,1,48,60,4039205588
29,20,3,ISIP_8,152,1,48,66,4040037484
29,20,3,ISIP_8,153,1,48,72,4040880368
29,20,3,ISIP_8,154,1,48,76,4041711536
29,20,3,ISIP_8,155,1,48,59,4042552180
29,20,3,ISIP_8,156,1,48,62,4043351760
29,20,3,ISIP_8,157,1,48,66,4044132644
29,20,3,ISIP_8,158,1,48,81,4044978224
29,20,3,ISIP_8,159,1,48,68,4045844396
29,20,3,ISIP_8,160,1,48,69,4046706736
29,20,3,ISIP_8,161,1,48,68,4047513716
29,20,3,ISIP_8,162,1,48,57,4048237752
29,20,3,ISIP_8,163,1,48,55,4049120596
29,20,3,ISIP_8,164,1,48,61,4049891208
29,20,3,ISIP_8,165,1,48,67,4050737332
29,20,3,ISIP_8,166,1,48,67,4051633020
29,20,3,ISIP_8,167,1,48,71,4052543776
29,20,3,ISIP_8,168,1,48,66,4053441264
29,20,3,ISIP_8,169,1,48,57,4054243640
29,20,3,ISIP_8,170,1,48,54,4055044936
29,20,3,ISIP_8,171,1,48,57,4055854092
29,20,3,ISIP_8,172,1,48,53,4056645968
29,20,3,ISIP_8,173,1,48,60,4057499924
29,20,3,ISIP_8,174,1,48,63,4058329792
29,20,3,ISIP_8,175,1,48,55,4059194100
29,20,3,ISIP_8,176,1,48,51,4060051500
29,20,3,ISIP_8,177,1,48,57,4060865592
29,20,3,ISIP_8,0,9999,9999,9999,3941114940
29,20,3,ISIP_8,1,9999,9999,9999,3941914696
29,20,3,ISIP_8,2,9999,9999,9999,3942714452
29,20,3,ISIP_8,3,9999,9999,9999,3943514180
29,20,3,ISIP_8,4,9999,9999,9999,3944314960
29,20,3,ISIP_8,5,9999,9999,9999,3945114692
29,20,3,ISIP_8,6,9999,9999,9999,3945914428
29,20,3,ISIP_8,7,9999,9999,9999,3946714220
29,20,3,ISIP_8,8,9999,9999,9999,3947514948
29,20,3,ISIP_8,9,9999,9999,9999,3948314696
29,20,3,ISIP_8,10,9999,9999,9999,3949114416
29,20,3,ISIP_8,11,9999,9999,9999,3949914220
29,20,3,ISIP_8,12,9999,9999,9999,3950714944
29,20,3,ISIP_8,13,9999,9999,9999,3951514680
29,20,3,ISIP_8,14,9999,9999,9999,3952314416
29,20,3,ISIP_8,15,9999,9999,9999,3953114220
29,20,3,ISIP_8,16,9999,9999,9999,3953914948
29,20,3,ISIP_8,17,9999,9999,9999,3954714684
29,20,3,ISIP_8,18,9999,9999,9999,3955514416
29,20,3,ISIP_8,19,9999,9999,9999,3956314224
29,20,3,ISIP_8,20,9999,9999,9999,3957114928
29,20,3,ISIP_8,21,9999,9999,9999,3957914736
29,20,3,ISIP_8,22,9999,9999,9999,3958714472
29,20,3,ISIP_8,23,9999,9999,9999,3959514204
29,20,3,ISIP_8,24,9999,9999,9999,3960314932
29,20,3,ISIP_8,25,9999,9999,9999,3961114728
29,20,3,ISIP_8,26,9999,9999,9999,3961914460
29,20,3,ISIP_8,27,9999,9999,9999,3962714192
29,20,3,ISIP_8,28,9999,9999,9999,3963514972
29,20,3,ISIP_8,29,9999,9999,9999,3964314720
29,20,3,ISIP_8,30,9999,9999,9999,3965114456
29,20,3,ISIP_8,31,9999,9999,9999,3965914184
29,20,3,ISIP_8,32,9999,9999,9999,3966714984
29,20,3,ISIP_8,33,9999,9999,9999,3967514720
29,20,3,ISIP_8,34,9999,9999,9999,3968314448
29,20,3,ISIP_8,35,9999,9999,9999,3969114176
29,20,3,ISIP_8,36,9999,9999,9999,3969914952
29,20,3,ISIP_8,37,9999,9999,9999,3970714680
29,20,3,ISIP_8,38,9999,9999,9999,3971514484
29,20,3,ISIP_8,39,9999,9999,9999,3972314216
29,20,3,ISIP_8,40,9999,9999,9999,3973114940
29,20,3,ISIP_8,41,9999,9999,9999,3973914744
29,20,3,ISIP_8,42,9999,9999,9999,3974714472
29,20,3,ISIP_8,43,9999,9999,9999,3975514200
29,20,3,ISIP_8,44,9999,9999,9999,3976314976
29,20,3,ISIP_8,45,9999,9999,9999,3977114708
29,20,3,ISIP_8,46,9999,9999,9999,3977914436
29,20,3,ISIP_8,47,9999,9999,9999,3978714164
29,20,3,ISIP_8,48,9999,9999,9999,3979514964
29,20,3,ISIP_8,49,9999,9999,9999,3980314696
29,20,3,ISIP_8,50,9999,9999,9999,3981114424
29,20,3,ISIP_8,51,9999,9999,9999,3981914228
29,20,3,ISIP_8,52,9999,9999,9999,3982714932
29,20,3,ISIP_8,53,9999,9999,9999,3983514732
29,20,3,ISIP_8,54,9999,9999,9999,3984314464
29,20,3,ISIP_8,55,9999,9999,9999,3985114192
29,20,3,ISIP_8,56,9999,9999,9999,3985914992
29,20,3,ISIP_8,57,9999,9999,9999,3986714724
29,20,3,ISIP_8,58,9999,9999,9999,3987514452
29,20,3,ISIP_8,59,9999,9999,9999,3988314180
29,20,3,ISIP_8,60,9999,9999,9999,3989114956
29,20,3,ISIP_8,61,9999,9999,9999,3989914684
29,20,3,ISIP_8,62,9999,9999,9999,3990714488
29,20,3,ISIP_8,63,9999,9999,9999,3991514216
29,20,3,ISIP_8,64,9999,9999,9999,3992314944
29,20,3,ISIP_8,65,9999,9999,9999,3993114676
29,20,3,ISIP_8,66,9999,9999,9999,3993914480
29,20,3,ISIP_8,67,9999,9999,9999,3994714208
29,20,3,ISIP_8,68,9999,9999,9999,3995514984
29,20,3,ISIP_8,69,9999,9999,9999,3996314712
29,20,3,ISIP_8,70,9999,9999,9999,3997114444
29,20,3,ISIP_8,71,9999,9999,9999,3997914172
29,20,3,ISIP_8,72,9999,9999,9999,3998714976
29,20,3,ISIP_8,73,9999,9999,9999,3999514704
29,20,3,ISIP_8,74,9999,9999,9999,4000314432
29,20,3,ISIP_8,75,9999,9999,9999,4001114160
29,20,3,ISIP_8,76,9999,9999,9999,4001914936
29,20,3,ISIP_8,77,9999,9999,9999,4002714740
29,20,3,ISIP_8,78,9999,9999,9999,4003514468
29,20,3,ISIP_8,79,9999,9999,9999,4004314200
29,20,3,ISIP_8,80,9999,9999,9999,4005115000
29,20,3,ISIP_8,81,9999,9999,9999,4005914728
29,20,3,ISIP_8,82,9999,9999,9999,4006714460
29,20,3,ISIP_8,83,9999,9999,9999,4007514188
29,20,3,ISIP_8,84,9999,9999,9999,4008314964
29,20,3,ISIP_8,85,9999,9999,9999,4009114692
29,20,3,ISIP_8,86,9999,9999,9999,4009914420
29,20,3,ISIP_8,87,9999,9999,9999,4010714224
29,20,3,ISIP_8,88,9999,9999,9999,4011514952
29,20,3,ISIP_8,89,9999,9999,9999,4012314680
29,20,3,ISIP_8,90,9999,9999,9999,4013114484
29,20,3,ISIP_8,91,9999,9999,9999,4013914212
29,20,3,ISIP_8,92,9999,9999,9999,4014714988
29,20,3,ISIP_8,93,9999,9999,9999,4015514716
29,20,3,ISIP_8,94,9999,9999,9999,4016314448
29,20,3,ISIP_8,95,9999,9999,9999,4017114176
29,20,3,ISIP_8,96,9999,9999,9999,4017914976
29,20,3,ISIP_8,97,9999,9999,9999,4018714708
29,20,3,ISIP_8,98,9999,9999,9999,4019514436
29,20,3,ISIP_8,99,9999,9999,9999,4020314164
29,20,3,ISIP_8,100,9999,9999,9999,4021114936
29,20,3,ISIP_8,101,9999,9999,9999,4021914740
29,20,3,ISIP_8,102,9999,9999,9999,4022714468
29,20,3,ISIP_8,103,9999,9999,9999,4023514200
29,20,3,ISIP_8,104,9999,9999,9999,4024314984
29,20,3,ISIP_8,105,9999,9999,9999,4025114712
29,20,3,ISIP_8,106,9999,9999,9999,4025914440
29,20,3,ISIP_8,107,9999,9999,9999,4026714168
29,20,3,ISIP_8,108,9999,9999,9999,4027514948
29,20,3,ISIP_8,109,9999,9999,9999,4028314676
29,20,3,ISIP_8,110,9999,9999,9999,4029114480
29,20,3,ISIP_8,111,9999,9999,9999,4029914208
29,20,3,ISIP_8,112,9999,9999,9999,4030714936
29,20,3,ISIP_8,113,9999,9999,9999,4031514740
29,20,3,ISIP_8,114,9999,9999,9999,4032314472
29,20,3,ISIP_8,115,9999,9999,9999,4033114200
29,20,3,ISIP_8,116,9999,9999,9999,4033914976
29,20,3,ISIP_8,117,9999,9999,9999,4034714680
29,20,3,ISIP_8,118,9999,9999,9999,4035514484
29,20,3,ISIP_8,119,9999,9999,9999,4036314216
29,20,3,ISIP_8,120,9999,9999,9999,4037114940
29,20,3,ISIP_8,121,9999,9999,9999,4037914744
29,20,3,ISIP_8,122,9999,9999,9999,4038714472
29,20,3,ISIP_8,123,9999,9999,9999,4039514200
29,20,3,ISIP_8,124,9999,9999,9999,4040314976
29,20,3,ISIP_8,125,9999,9999,9999,4041114708
29,20,3,ISIP_8,126,9999,9999,9999,4041914436
29,20,3,ISIP_8,127,9999,9999,9999,4042714168
29,20,3,ISIP_8,128,9999,9999,9999,4043514968
29,20,3,ISIP_8,129,9999,9999,9999,4044314700
29,20,3,ISIP_8,130,9999,9999,9999,4045114428
29,20,3,ISIP_8,131,9999,9999,9999,4045914172
29,20,3,ISIP_8,132,9999,9999,9999,4046714948
29,20,3,ISIP_8,133,9999,9999,9999,4047514676
29,20,3,ISIP_8,134,9999,9999,9999,4048314480
29,20,3,ISIP_8,135,9999,9999,9999,4049114216
29,20,3,ISIP_8,136,9999,9999,9999,4049914984
29,20,3,ISIP_8,137,9999,9999,9999,4050714720
29,20,3,ISIP_8,138,9999,9999,9999,4051514452
29,20,3,ISIP_8,139,9999,9999,9999,4052314180
29,20,3,ISIP_8,140,9999,9999,9999,4053114956
29,20,3,ISIP_8,141,9999,9999,9999,4053914684
29,20,3,ISIP_8,142,9999,9999,9999,4054714416
29,20,3,ISIP_8,143,9999,9999,9999,4055514216
29,20,3,ISIP_8,144,9999,9999,9999,4056314944
29,20,3,ISIP_8,145,9999,9999,9999,4057114672
29,20,3,ISIP_8,146,9999,9999,9999,4057914476
29,20,3,ISIP_8,147,9999,9999,9999,4058714204
29,20,3,ISIP_8,148,9999,9999,9999,4059514980
29,20,3,ISIP_8,149,9999,9999,9999,4060314708
29,21,5,ISIP_5,0,5,42,127,4091661788
29,21,5,ISIP_5,1,5,42,127,4092162704
29,21,5,ISIP_5,2,5,42,127,4092662048
29,21,5,ISIP_5,3,1,48,55,4092749164
29,21,5,ISIP_5,4,5,42,127,4093161820
29,21,5,ISIP_5,5,1,48,47,4093203304
29,21,5,ISIP_5,6,5,42,127,4093661636
29,21,5,ISIP_5,7,1,48,54,4093684904
29,21,5,ISIP_5,8,5,42,127,4094162232
29,21,5,ISIP_5,9,1,48,55,4094175300
29,21,5,ISIP_5,10,5,42,127,4094661924
29,21,5,ISIP_5,11,1,48,53,4094668036
29,21,5,ISIP_5,12,1,48,61,4095158212
29,21,5,ISIP_5,13,5,42,127,4095161764
29,21,5,ISIP_5,14,1,48,59,4095650724
29,21,5,ISIP_5,15,5,42,127,4095661312
29,21,5,ISIP_5,16,1,48,57,4096144284
29,21,5,ISIP_5,17,5,42,127,4096162272
29,21,5,ISIP_5,18,1,48,58,4096633732
29,21,5,ISIP_5,19,5,42,127,4096661744
29,21,5,ISIP_5,20,1,48,57,4097117204
29,21,5,ISIP_5,21,5,42,127,4097161664
29,21,5,ISIP_5,22,1,48,59,4097621608
29,21,5,ISIP_5,23,5,42,127,4097662332
29,21,5,ISIP_5,24,1,48,57,4098122876
29,21,5,ISIP_5,25,5,42,127,4098162176
29,21,5,ISIP_5,26,1,48,57,4098630196
29,21,5,ISIP_5,27,5,42,127,4098661648
29,21,5,ISIP_5,28,1,48,60,4099106256
29,21,5,ISIP_5,29,5,42,127,4099161416
29,21,5,ISIP_5,30,1,48,55,4099606324
29,21,5,ISIP_5,31,5,42,127,4099662160
29,21,5,ISIP_5,32,1,48,50,4100076028
29,21,5,ISIP_5,33,5,42,127,4100162004
29,21,5,ISIP_5,34,1,48,56,4100579540
29,21,5,ISIP_5,35,5,42,127,4100661552
29,21,5,ISIP_5,36,1,48,51,4101087908
29,21,5,ISIP_5,37,5,42,127,4101162220
29,21,5,ISIP_5,38,1,48,60,4101586752
29,21,5,ISIP_5,39,5,42,127,4101662208
29,21,5,ISIP_5,40,1,48,54,4102093704
29,21,5,ISIP_5,41,5,42,127,4102161756
29,21,5,ISIP_5,42,1,48,60,4102602076
29,21,5,ISIP_5,43,5,42,127,4102661524
29,21,5,ISIP_5,44,1,48,49,4103090328
29,21,5,ISIP_5,45,5,42,127,4103162340
29,21,5,ISIP_5,46,1,48,67,4103605128
29,21,5,ISIP_5,47,5,42,127,4103661884
29,21,5,ISIP_5,48,1,48,59,4104077896
29,21,5,ISIP_5,49,5,42,127,4104161504
29,21,5,ISIP_5,50,1,48,58,4104578416
29,21,5,ISIP_5,51,5,42,127,4104662444
29,21,5,ISIP_5,52,1,48,59,4105075044
29,21,5,ISIP_5,53,5,42,127,4105162216
29,21,5,ISIP_5,54,1,48,59,4105607724
29,21,5,ISIP_5,55,5,42,127,4105661908
29,21,5,ISIP_5,56,1,48,56,4106115420
29,21,5,ISIP_5,57,5,42,127,4106161604
29,21,5,ISIP_5,58,1,48,57,4106575100
29,21,5,ISIP_5,59,5,42,127,4106662272
29,21,5,ISIP_5,60,1,48,54,4107082124
29,21,5,ISIP_5,61,5,42,127,4107161968
29,21,5,ISIP_5,62,1,48,52,4107600812
29,21,5,ISIP_5,63,5,42,127,4107661960
29,21,5,ISIP_5,64,1,48,60,4108082188
29,21,5,ISIP_5,65,5,42,127,4108162404
29,21,5,ISIP_5,66,1,48,61,4108585472
29,21,5,ISIP_5,67,5,42,127,4108662024
29,21,5,ISIP_5,68,1,48,51,4109098852
29,21,5,ISIP_5,69,5,42,127,4109161944
29,21,5,ISIP_5,70,1,48,64,4109589496
29,21,5,ISIP_5,71,5,42,127,4109661636
29,21,5,ISIP_5,72,1,48,58,4110090764
29,21,5,ISIP_5,73,5,42,127,4110162380
29,21,5,ISIP_5,74,1,48,62,4110603996
29,21,5,ISIP_5,75,5,42,127,4110661852
29,21,5,ISIP_5,76,1,48,57,4111086488
29,21,5,ISIP_5,77,5,42,127,4111161696
29,21,5,ISIP_5,78,1,48,62,4111590896
29,21,5,ISIP_5,79,1,48,50,4112108240
29,21,5,ISIP_5,80,1,48,65,4112600948
29,21,5,ISIP_5,81,1,48,59,4113078724
29,21,5,ISIP_5,82,1,48,55,4113570336
29,21,5,ISIP_5,83,1,48,56,4114062248
29,21,5,ISIP_5,84,1,48,58,4114519752
29,21,5,ISIP_5,85,1,48,53,4115061480
29,21,5,ISIP_5,86,1,48,59,4115556684
29,21,5,ISIP_5,87,1,48,59,4116049788
29,21,5,ISIP_5,88,1,48,55,4116510740
29,21,5,ISIP_5,89,1,48,55,4117012368
29,21,5,ISIP_5,90,1,48,60,4117496652
29,21,5,ISIP_5,91,1,48,51,4118000604
29,21,5,ISIP_5,92,1,48,56,4118505456
29,21,5,ISIP_5,93,1,48,53,4119017340
29,21,5,ISIP_5,94,1,48,60,4119497036
29,21,5,ISIP_5,95,1,48,48,4120010040
29,21,5,ISIP_5,96,1,48,53,4120488708
29,21,5,ISIP_5,97,1,48,53,4120992216
29,21,5,ISIP_5,98,1,48,56,4121455704
29,21,5,ISIP_5,99,1,48,56,4121963396
29,21,5,ISIP_5,100,1,48,54,4122429424
29,21,5,ISIP_5,101,1,48,55,4122941384
29,21,5,ISIP_5,102,1,48,56,4123435468
29,21,5,ISIP_5,103,1,48,59,4123932840
29,21,5,ISIP_5,104,1,48,59,4124426024
29,21,5,ISIP_5,105,1,48,49,4124916740
29,21,5,ISIP_5,106,1,48,52,4125415460
29,21,5,ISIP_5,107,1,48,54,4125924344
29,21,5,ISIP_5,108,1,48,61,4126372552
29,21,5,ISIP_5,109,1,48,66,4126841876
29,21,5,ISIP_5,110,1,48,51,4127371932
29,21,5,ISIP_5,111,1,48,56,4127861600
29,21,5,ISIP_5,112,1,48,53,4128341024
29,21,5,ISIP_5,113,1,48,57,4128827624
29,21,5,ISIP_5,114,1,48,59,4129310936
29,21,5,ISIP_5,115,1,48,48,4129790204
29,21,5,ISIP_5,116,1,48,63,4130275232
29,21,5,ISIP_5,117,1,48,49,4130780060
29,21,5,ISIP_5,118,1,48,57,4131262624
29,21,5,ISIP_5,119,1,48,48,4131738452
29,21,5,ISIP_5,120,1,48,55,4132243832
29,21,5,ISIP_5,121,1,48,59,4132746512
29,21,5,ISIP_5,122,1,48,61,4133208656
29,21,5,ISIP_5,123,1,48,58,4133719788
29,21,5,ISIP_5,124,1,48,49,4134215216
29,21,5,ISIP_5,125,1,48,67,4134719396
29,21,5,ISIP_5,126,1,48,57,4135192084
29,21,5,ISIP_5,127,1,48,56,4135683920
29,21,5,ISIP_5,128,1,48,57,4136196332
29,21,5,ISIP_5,129,1,48,59,4136674252
29,21,5,ISIP_5,130,1,48,60,4137158724
29,21,5,ISIP_5,131,1,48,44,4137655496
29,21,5,ISIP_5,132,1,48,59,4138118240
29,21,5,ISIP_5,133,1,48,44,4138602144
29,21,5,ISIP_5,134,1,48,56,4139079848
29,21,5,ISIP_5,135,1,48,47,4139554552
29,21,5,ISIP_5,136,1,48,57,4140028588
29,21,5,ISIP_5,137,1,48,57,4140515416
29,21,5,ISIP_5,138,1,48,52,4140984488
29,21,5,ISIP_5,139,1,48,58,4141465704
29,21,5,ISIP_5,140,1,48,52,4141978332
29,21,5,ISIP_5,141,1,48,52,4142449824
29,21,5,ISIP_5,142,1,48,58,4142925356
29,21,5,ISIP_5,143,1,48,54,4143376052
29,21,5,ISIP_5,144,1,48,60,4143879708
29,21,5,ISIP_5,145,1,48,55,4144356440
29,21,5,ISIP_5,146,1,48,62,4144833736
29,21,5,ISIP_5,147,1,48,62,4145278600
29,21,5,ISIP_5,148,1,48,57,4145790408
29,21,5,ISIP_5,149,1,48,52,4146267660
29,21,5,ISIP_5,150,1,48,61,4146724860
29,21,5,ISIP_5,151,1,48,53,4147182516
29,21,5,ISIP_5,152,1,48,57,4147661612
29,21,5,ISIP_5,153,1,48,50,4148136160
29,21,5,ISIP_5,154,1,48,59,4148596284
29,21,5,ISIP_5,155,1,48,51,4149067324
29,21,5,ISIP_5,156,1,48,58,4149535828
29,21,5,ISIP_5,157,1,48,51,4150013824
29,21,5,ISIP_5,158,1,48,56,4150484396
29,21,5,ISIP_5,159,1,48,41,4150972412
29,21,5,ISIP_5,160,1,48,62,4151428276
29,21,5,ISIP_5,161,1,48,48,4151889816
29,21,5,ISIP_5,162,1,48,61,4152374404
29,21,5,ISIP_5,163,1,48,54,4152834820
29,21,5,ISIP_5,164,1,48,50,4153317684
29,21,5,ISIP_5,165,1,48,56,4153764612
29,21,5,ISIP_5,166,1,48,54,4154276272
29,21,5,ISIP_5,167,1,48,56,4154732584
29,21,5,ISIP_5,168,1,48,48,4155203544
29,21,5,ISIP_5,169,1,48,42,4155691124
29,21,5,ISIP_5,170,1,48,56,4156180264
29,21,5,ISIP_5,171,1,48,67,4156632720
29,21,5,ISIP_5,172,1,48,55,4157110944
29,21,5,ISIP_5,173,1,48,62,4157569868
29,21,5,ISIP_5,174,1,48,48,4158064924
29,21,5,ISIP_5,175,1,48,57,4158506864
29,21,5,ISIP_5,176,1,48,51,4158986812
29,21,5,ISIP_5,177,1,48,57,4159444888
29,21,5,ISIP_5,178,1,48,54,4159890052
29,21,5,ISIP_5,179,1,48,51,4160375608
29,21,5,ISIP_5,180,1,48,57,4160842164
29,21,5,ISIP_5,181,1,48,52,4161315224
29,21,5,ISIP_5,182,1,48,52,4161808708
29,21,5,ISIP_5,183,1,48,55,4162263048
29,21,5,ISIP_5,184,1,48,59,4162745608
29,21,5,ISIP_5,185,1,48,49,4163230260
29,21,5,ISIP_5,186,1,48,43,4163730400
29,21,5,ISIP_5,187,1,48,51,4164229864
29,21,5,ISIP_5,188,1,48,65,4164694104
29,21,5,ISIP_5,189,1,48,55,4165151296
29,21,5,ISIP_5,190,1,48,49,4165633556
29,21,5,ISIP_5,191,1,48,60,4166099640
29,21,5,ISIP_5,192,1,48,53,4166557216
29,21,5,ISIP_5,193,1,48,50,4167046216
29,21,5,ISIP_5,194,1,48,47,4167520400
29,21,5,ISIP_5,195,1,48,47,4167974384
29,21,5,ISIP_5,196,1,48,51,4168461212
29,21,5,ISIP_5,197,1,48,52,4168956044
29,21,5,ISIP_5,198,1,48,60,4169402148
29,21,5,ISIP_5,199,1,48,51,4169874312
29,21,5,ISIP_5,200,1,48,57,4170326508
29,21,5,ISIP_5,201,1,48,46,4170811764
29,21,5,ISIP_5,202,1,48,51,4171292156
29,21,5,ISIP_5,0,9999,9999,9999,4091659352
29,21,5,ISIP_5,1,9999,9999,9999,4092160116
29,21,5,ISIP_5,2,9999,9999,9999,4092659760
29,21,5,ISIP_5,3,9999,9999,9999,4093159532
29,21,5,ISIP_5,4,9999,9999,9999,4093659200
29,21,5,ISIP_5,5,9999,9999,9999,4094159944
29,21,5,ISIP_5,6,9999,9999,9999,4094659636
29,21,5,ISIP_5,7,9999,9999,9999,4095159400
29,21,5,ISIP_5,8,9999,9999,9999,4095659096
29,21,5,ISIP_5,9,9999,9999,9999,4096159836
29,21,5,ISIP_5,10,9999,9999,9999,4096659532
29,21,5,ISIP_5,11,9999,9999,9999,4097159228
29,21,5,ISIP_5,12,9999,9999,9999,4097659968
29,21,5,ISIP_5,13,9999,9999,9999,4098159664
29,21,5,ISIP_5,14,9999,9999,9999,4098659432
29,21,5,ISIP_5,15,9999,9999,9999,4099159128
29,21,5,ISIP_5,16,9999,9999,9999,4099659872
29,21,5,ISIP_5,17,9999,9999,9999,4100159568
29,21,5,ISIP_5,18,9999,9999,9999,4100659264
29,21,5,ISIP_5,19,9999,9999,9999,4101160004
29,21,5,ISIP_5,20,9999,9999,9999,4101659700
29,21,5,ISIP_5,21,9999,9999,9999,4102159468
29,21,5,ISIP_5,22,9999,9999,9999,4102659164
29,21,5,ISIP_5,23,9999,9999,9999,4103159904
29,21,5,ISIP_5,24,9999,9999,9999,4103659596
29,21,5,ISIP_5,25,9999,9999,9999,4104159292
29,21,5,ISIP_5,26,9999,9999,9999,4104660084
29,21,5,ISIP_5,27,9999,9999,9999,4105159780
29,21,5,ISIP_5,28,9999,9999,9999,4105659472
29,21,5,ISIP_5,29,9999,9999,9999,4106159168
29,21,5,ISIP_5,30,9999,9999,9999,4106659908
29,21,5,ISIP_5,31,9999,9999,9999,4107159604
29,21,5,ISIP_5,32,9999,9999,9999,4107659376
29,21,5,ISIP_5,33,9999,9999,9999,4108160116
29,21,5,ISIP_5,34,9999,9999,9999,4108659812
29,21,5,ISIP_5,35,9999,9999,9999,4109159508
29,21,5,ISIP_5,36,9999,9999,9999,4109659200
29,21,5,ISIP_5,37,9999,9999,9999,4110159944
29,21,5,ISIP_5,38,9999,9999,9999,4110659636
29,21,5,ISIP_5,39,9999,9999,9999,4111159408
29,21,5,ISIP_5,40,9999,9999,9999,4111659104
29,21,5,ISIP_5,41,9999,9999,9999,4112159840
29,21,5,ISIP_5,42,9999,9999,9999,4112659532
29,21,5,ISIP_5,43,9999,9999,9999,4113159224
29,21,5,ISIP_5,44,9999,9999,9999,4113659960
29,21,5,ISIP_5,45,9999,9999,9999,4114159712
29,21,5,ISIP_5,46,9999,9999,9999,4114659400
29,21,5,ISIP_5,47,9999,9999,9999,4115159140
29,21,5,ISIP_5,48,9999,9999,9999,4115659880
29,21,5,ISIP_5,49,9999,9999,9999,4116159568
29,21,5,ISIP_5,50,9999,9999,9999,4116659260
29,21,5,ISIP_5,51,9999,9999,9999,4117159996
29,21,5,ISIP_5,52,9999,9999,9999,4117659760
29,21,5,ISIP_5,53,9999,9999,9999,4118159452
29,21,5,ISIP_5,54,9999,9999,9999,4118659144
29,21,5,ISIP_5,55,9999,9999,9999,4119159880
29,21,5,ISIP_5,56,9999,9999,9999,4119659572
29,21,5,ISIP_5,57,9999,9999,9999,4120159336
29,21,5,ISIP_5,58,9999,9999,9999,4120660072
29,21,5,ISIP_5,59,9999,9999,9999,4121159764
29,21,5,ISIP_5,60,9999,9999,9999,4121659452
29,21,5,ISIP_5,61,9999,9999,9999,4122159220
29,21,5,ISIP_5,62,9999,9999,9999,4122659956
29,21,5,ISIP_5,63,9999,9999,9999,4123159648
29,21,5,ISIP_5,64,9999,9999,9999,4123659336
29,21,5,ISIP_5,65,9999,9999,9999,4124160076
29,21,5,ISIP_5,66,9999,9999,9999,4124659768
29,21,5,ISIP_5,67,9999,9999,9999,4125159532
29,21,5,ISIP_5,68,9999,9999,9999,4125659200
29,21,5,ISIP_5,69,9999,9999,9999,4126159936
29,21,5,ISIP_5,70,9999,9999,9999,4126659700
29,21,5,ISIP_5,71,9999,9999,9999,4127159392
29,21,5,ISIP_5,72,9999,9999,9999,4127659084
29,21,5,ISIP_5,73,9999,9999,9999,4128159820
29,21,5,ISIP_5,74,9999,9999,9999,4128659512
29,21,5,ISIP_5,75,9999,9999,9999,4129159276
29,21,5,ISIP_5,76,9999,9999,9999,4129660012
29,21,5,ISIP_5,77,9999,9999,9999,4130159704
29,21,5,ISIP_5,78,9999,9999,9999,4130659396
29,21,5,ISIP_5,79,9999,9999,9999,4131159088
29,21,5,ISIP_5,80,9999,9999,9999,4131659824
29,21,5,ISIP_5,81,9999,9999,9999,4132159592
29,21,5,ISIP_5,82,9999,9999,9999,4132659280
29,21,5,ISIP_5,83,9999,9999,9999,4133160020
29,21,5,ISIP_5,84,9999,9999,9999,4133659712
29,21,5,ISIP_5,85,9999,9999,9999,4134159476
29,21,5,ISIP_5,86,9999,9999,9999,4134659168
29,21,5,ISIP_5,87,9999,9999,9999,4135159904
29,21,5,ISIP_5,88,9999,9999,9999,4135659596
29,21,5,ISIP_5,89,9999,9999,9999,4136159288
29,21,5,ISIP_5,90,9999,9999,9999,4136660076
29,21,5,ISIP_5,91,9999,9999,9999,4137159760
29,21,5,ISIP_5,92,9999,9999,9999,4137659452
29,21,5,ISIP_5,93,9999,9999,9999,4138159216
29,21,5,ISIP_5,94,9999,9999,9999,4138659952
29,21,5,ISIP_5,95,9999,9999,9999,4139159644
29,21,5,ISIP_5,96,9999,9999,9999,4139659320
29,21,5,ISIP_5,97,9999,9999,9999,4140160060
29,21,5,ISIP_5,98,9999,9999,9999,4140659824
29,21,5,ISIP_5,99,9999,9999,9999,4141159516
29,21,5,ISIP_5,100,9999,9999,9999,4141659204
29,21,5,ISIP_5,101,9999,9999,9999,4142159940
29,21,5,ISIP_5,102,9999,9999,9999,4142659704
29,21,5,ISIP_5,103,9999,9999,9999,4143159396
29,21,5,ISIP_5,104,9999,9999,9999,4143659088
29,21,5,ISIP_5,105,9999,9999,9999,4144159824
29,21,5,ISIP_5,106,9999,9999,9999,4144659516
29,21,5,ISIP_5,107,9999,9999,9999,4145159280
29,21,5,ISIP_5,108,9999,9999,9999,4145660016
29,21,5,ISIP_5,109,9999,9999,9999,4146159708
29,21,5,ISIP_5,110,9999,9999,9999,4146659400
29,21,5,ISIP_5,111,9999,9999,9999,4147159140
29,21,5,ISIP_5,112,9999,9999,9999,4147659880
29,21,5,ISIP_5,113,9999,9999,9999,4148159564
29,21,5,ISIP_5,114,9999,9999,9999,4148659256
29,21,5,ISIP_5,115,9999,9999,9999,4149159992
29,21,5,ISIP_5,116,9999,9999,9999,4149659740
29,21,5,ISIP_5,117,9999,9999,9999,4150159432
29,21,5,ISIP_5,118,9999,9999,9999,4150659124
29,21,5,ISIP_5,119,9999,9999,9999,4151159860
29,21,5,ISIP_5,120,9999,9999,9999,4151659624
29,21,5,ISIP_5,121,9999,9999,9999,4152159316
29,21,5,ISIP_5,122,9999,9999,9999,4152660052
29,21,5,ISIP_5,123,9999,9999,9999,4153159744
29,21,5,ISIP_5,124,9999,9999,9999,4153659508
29,21,5,ISIP_5,125,9999,9999,9999,4154159200
29,21,5,ISIP_5,126,9999,9999,9999,4154659936
29,21,5,ISIP_5,127,9999,9999,9999,4155159628
29,21,5,ISIP_5,128,9999,9999,9999,4155659316
29,21,5,ISIP_5,129,9999,9999,9999,4156160056
29,21,5,ISIP_5,130,9999,9999,9999,4156659812
29,21,5,ISIP_5,131,9999,9999,9999,4157159504
29,21,5,ISIP_5,132,9999,9999,9999,4157659192
29,21,5,ISIP_5,133,9999,9999,9999,4158159980
29,21,5,ISIP_5,134,9999,9999,9999,4158659656
29,21,5,ISIP_5,135,9999,9999,9999,4159159348
29,21,5,ISIP_5,136,9999,9999,9999,4159659112
29,21,5,ISIP_5,137,9999,9999,9999,4160159848
29,21,5,ISIP_5,138,9999,9999,9999,4160659540
29,21,5,ISIP_5,139,9999,9999,9999,4161159232
29,21,5,ISIP_5,140,9999,9999,9999,4161659968
29,21,5,ISIP_5,141,9999,9999,9999,4162159732
29,21,5,ISIP_5,142,9999,9999,9999,4162659424
29,21,5,ISIP_5,143,9999,9999,9999,4163159112
29,21,5,ISIP_5,144,9999,9999,9999,4163659852
29,21,5,ISIP_5,145,9999,9999,9999,4164159540
29,21,5,ISIP_5,146,9999,9999,9999,4164659304
29,21,5,ISIP_5,147,9999,9999,9999,4165160036
29,21,5,ISIP_5,148,9999,9999,9999,4165659728
29,21,5,ISIP_5,149,9999,9999,9999,4166159420
29,21,5,ISIP_5,150,9999,9999,9999,4166659168
29,21,5,ISIP_5,151,9999,9999,9999,4167159904
29,21,5,ISIP_5,152,9999,9999,9999,4167659596
29,21,5,ISIP_5,153,9999,9999,9999,4168159288
29,21,5,ISIP_5,154,9999,9999,9999,4168660072
29,21,5,ISIP_5,155,9999,9999,9999,4169159764
29,21,5,ISIP_5,156,9999,9999,9999,4169659456
29,21,5,ISIP_5,157,9999,9999,9999,4170159220
29,21,5,ISIP_5,158,9999,9999,9999,4170659956
29,21,5,ISIP_5,159,9999,9999,9999,4171159648
29,22,11,Pattern_Practice,0,5,42,127,45412852
29,22,11,Pattern_Practice,1,5,42,127,45912420
29,22,11,Pattern_Practice,2,5,42,127,46412208
29,22,11,Pattern_Practice,3,1,48,24,46494564
29,22,11,Pattern_Practice,4,1,48,50,46910216
29,22,11,Pattern_Practice,5,5,42,127,46912868
29,22,11,Pattern_Practice,6,5,42,127,47412720
29,22,11,Pattern_Practice,7,1,48,40,47437008
29,22,11,Pattern_Practice,8,1,48,35,47904824
29,22,11,Pattern_Practice,9,5,42,127,47912260
29,22,11,Pattern_Practice,10,1,38,64,48399276
29,22,11,Pattern_Practice,11,5,42,127,48413000
29,22,11,Pattern_Practice,12,1,48,64,48861500
29,22,11,Pattern_Practice,13,5,42,127,48912692
29,22,11,Pattern_Practice,14,1,38,61,49329628
29,22,11,Pattern_Practice,15,5,42,127,49412760
29,22,11,Pattern_Practice,16,1,48,48,49788680
29,22,11,Pattern_Practice,17,5,42,127,49912144
29,22,11,Pattern_Practice,18,1,38,65,50331788
29,22,11,Pattern_Practice,19,5,42,127,50413048
29,22,11,Pattern_Practice,20,1,48,54,50831752
29,22,11,Pattern_Practice,21,5,42,127,50912516
29,22,11,Pattern_Practice,22,1,48,54,51364532
29,22,11,Pattern_Practice,23,5,42,127,51412288
29,22,11,Pattern_Practice,24,1,48,61,51836976
29,22,11,Pattern_Practice,25,5,42,127,51913028
29,22,11,Pattern_Practice,26,1,48,53,52346916
29,22,11,Pattern_Practice,27,5,42,127,52412720
29,22,11,Pattern_Practice,28,1,48,63,52833372
29,22,11,Pattern_Practice,29,5,42,127,52912640
29,22,11,Pattern_Practice,30,1,48,57,53315408
29,22,11,Pattern_Practice,31,5,42,127,53412096
29,22,11,Pattern_Practice,32,1,48,54,53785936
29,22,11,Pattern_Practice,33,5,42,127,53912908
29,22,11,Pattern_Practice,34,1,48,71,54332752
29,22,11,Pattern_Practice,35,5,42,127,54412596
29,22,11,Pattern_Practice,36,1,48,67,54844640
29,22,11,Pattern_Practice,37,5,42,127,54912436
29,22,11,Pattern_Practice,38,1,48,63,55377540
29,22,11,Pattern_Practice,39,5,42,127,55413256
29,22,11,Pattern_Practice,40,1,48,59,55859436
29,22,11,Pattern_Practice,41,5,42,127,55912800
29,22,11,Pattern_Practice,42,1,38,32,56342272
29,22,11,Pattern_Practice,43,5,42,127,56412468
29,22,11,Pattern_Practice,44,1,48,60,56833816
29,22,11,Pattern_Practice,45,5,42,127,56912388
29,22,11,Pattern_Practice,46,1,38,51,57322064
29,22,11,Pattern_Practice,47,5,42,127,57412980
29,22,11,Pattern_Practice,48,1,48,63,57810096
29,22,11,Pattern_Practice,49,5,42,127,57912584
29,22,11,Pattern_Practice,50,1,38,59,58218736
29,22,11,Pattern_Practice,51,5,42,127,58412352
29,22,11,Pattern_Practice,52,1,48,64,58707656
29,22,11,Pattern_Practice,53,5,42,127,58913168
29,22,11,Pattern_Practice,54,1,38,59,59170548
29,22,11,Pattern_Practice,55,5,42,127,59412936
29,22,11,Pattern_Practice,56,1,48,56,59700612
29,22,11,Pattern_Practice,57,5,42,127,59912560
29,22,11,Pattern_Practice,58,1,48,51,60178468
29,22,11,Pattern_Practice,59,5,42,127,60412400
29,22,11,Pattern_Practice,60,1,48,58,60688256
29,22,11,Pattern_Practice,61,5,42,127,60913292
29,22,11,Pattern_Practice,62,1,48,43,61234628
29,22,11,Pattern_Practice,63,5,42,127,61412836
29,22,11,Pattern_Practice,64,1,48,51,61797224
29,22,11,Pattern_Practice,65,5,42,127,61912384
29,22,11,Pattern_Practice,66,1,48,45,62321904
29,22,11,Pattern_Practice,67,5,42,127,62412164
29,22,11,Pattern_Practice,68,1,48,60,62842688
29,22,11,Pattern_Practice,69,5,42,127,62912908
29,22,11,Pattern_Practice,70,1,38,49,63388332
29,22,11,Pattern_Practice,71,5,42,127,63412452
29,22,11,Pattern_Practice,72,1,48,42,63858608
29,22,11,Pattern_Practice,73,5,42,127,63912224
29,22,11,Pattern_Practice,74,1,38,56,64356056
29,22,11,Pattern_Practice,75,5,42,127,64413112
29,22,11,Pattern_Practice,76,1,48,36,64866376
29,22,11,Pattern_Practice,77,5,42,127,64913004
29,22,11,Pattern_Practice,78,1,38,61,65353576
29,22,11,Pattern_Practice,79,5,42,127,65412552
29,22,11,Pattern_Practice,80,1,48,63,65846164
29,22,11,Pattern_Practice,81,5,42,127,65912024
29,22,11,Pattern_Practice,82,1,38,67,66362396
29,22,11,Pattern_Practice,83,5,42,127,66412912
29,22,11,Pattern_Practice,84,1,48,47,66896120
29,22,11,Pattern_Practice,85,5,42,127,66912608
29,22,11,Pattern_Practice,86,1,38,61,67331712
29,22,11,Pattern_Practice,87,5,42,127,67412304
29,22,11,Pattern_Practice,88,1,48,54,67879576
29,22,11,Pattern_Practice,89,5,42,127,67913044
29,22,11,Pattern_Practice,90,1,38,59,68388840
29,22,11,Pattern_Practice,91,5,42,127,68413036
29,22,11,Pattern_Practice,92,5,42,127,68912364
29,22,11,Pattern_Practice,93,1,48,53,68920268
29,22,11,Pattern_Practice,94,5,42,127,69412136
29,22,11,Pattern_Practice,95,1,48,42,69430884
29,22,11,Pattern_Practice,96,1,48,61,69895332
29,22,11,Pattern_Practice,97,5,42,127,69912792
29,22,11,Pattern_Practice,98,1,48,63,70388592
29,22,11,Pattern_Practice,99,5,42,127,70412860
29,22,11,Pattern_Practice,100,1,38,39,70908632
29,22,11,Pattern_Practice,101,5,42,127,70912480
29,22,11,Pattern_Practice,102,1,48,60,71373768
29,22,11,Pattern_Practice,103,5,42,127,71413000
29,22,11,Pattern_Practice,104,1,38,68,71871220
29,22,11,Pattern_Practice,105,5,42,127,71912768
29,22,11,Pattern_Practice,106,1,48,67,72364408
29,22,11,Pattern_Practice,107,5,42,127,72412612
29,22,11,Pattern_Practice,108,1,38,67,72901728
29,22,11,Pattern_Practice,109,5,42,127,72912156
29,22,11,Pattern_Practice,110,5,42,127,73412832
29,22,11,Pattern_Practice,111,1,48,71,73417444
29,22,11,Pattern_Practice,112,1,48,58,73909344
29,22,11,Pattern_Practice,113,5,42,127,73912888
29,22,11,Pattern_Practice,114,1,48,54,74398636
29,22,11,Pattern_Practice,115,5,42,127,74412660
29,22,11,Pattern_Practice,116,1,48,67,74885068
29,22,11,Pattern_Practice,117,5,42,127,74913252
29,22,11,Pattern_Practice,118,1,38,84,75371976
29,22,11,Pattern_Practice,119,5,42,127,75412948
29,22,11,Pattern_Practice,120,1,48,61,75825372
29,22,11,Pattern_Practice,121,5,42,127,75912544
29,22,11,Pattern_Practice,122,1,38,76,76385652
29,22,11,Pattern_Practice,123,5,42,127,76412312
29,22,11,Pattern_Practice,124,5,42,127,76912988
29,22,11,Pattern_Practice,125,1,48,56,76931736
29,22,11,Pattern_Practice,126,1,38,40,77374196
29,22,11,Pattern_Practice,127,5,42,127,77412600
29,22,11,Pattern_Practice,128,1,48,68,77889296
29,22,11,Pattern_Practice,129,5,42,127,77912668
29,22,11,Pattern_Practice,130,1,38,75,78342544
29,22,11,Pattern_Practice,131,5,42,127,78412212
29,22,11,Pattern_Practice,132,1,48,57,78846724
29,22,11,Pattern_Practice,133,5,42,127,78912804
29,22,11,Pattern_Practice,134,1,48,62,79369312
29,22,11,Pattern_Practice,135,5,42,127,79412576
29,22,11,Pattern_Practice,136,1,48,68,79826968
29,22,11,Pattern_Practice,137,5,42,127,79912344
29,22,11,Pattern_Practice,138,1,48,70,80326284
29,22,11,Pattern_Practice,139,5,42,127,80413160
29,22,11,Pattern_Practice,140,1,38,43,80845800
29,22,11,Pattern_Practice,141,5,42,127,80912704
29,22,11,Pattern_Practice,142,1,48,61,81362476
29,22,11,Pattern_Practice,143,5,42,127,81412400
29,22,11,Pattern_Practice,144,1,38,52,81892840
29,22,11,Pattern_Practice,145,5,42,127,81912392
29,22,11,Pattern_Practice,146,1,38,75,82347284
29,22,11,Pattern_Practice,147,5,42,127,82412764
29,22,11,Pattern_Practice,148,1,48,53,82831392
29,22,11,Pattern_Practice,149,5,42,127,82912680
29,22,11,Pattern_Practice,150,1,48,57,83332360
29,22,11,Pattern_Practice,151,5,42,127,83412228
29,22,11,Pattern_Practice,152,1,38,61,83811560
29,22,11,Pattern_Practice,153,5,42,127,83913104
29,22,11,Pattern_Practice,154,1,38,76,84258220
29,22,11,Pattern_Practice,155,5,42,127,84412720
29,22,11,Pattern_Practice,156,1,48,50,84760008
29,22,11,Pattern_Practice,157,5,42,127,84912416
29,22,11,Pattern_Practice,158,1,48,58,85260224
29,22,11,Pattern_Practice,0,9999,9999,9999,45410416
29,22,11,Pattern_Practice,1,9999,9999,9999,45910132
29,22,11,Pattern_Practice,2,9999,9999,9999,46409848
29,22,11,Pattern_Practice,3,9999,9999,9999,46910584
29,22,11,Pattern_Practice,4,9999,9999,9999,47410284
29,22,11,Pattern_Practice,5,9999,9999,9999,47909972
29,22,11,Pattern_Practice,6,9999,9999,9999,48410712
29,22,11,Pattern_Practice,7,9999,9999,9999,48910408
29,22,11,Pattern_Practice,8,9999,9999,9999,49410104
29,22,11,Pattern_Practice,9,9999,9999,9999,49909856
29,22,11,Pattern_Practice,10,9999,9999,9999,50410612
29,22,11,Pattern_Practice,11,9999,9999,9999,50910308
29,22,11,Pattern_Practice,12,9999,9999,9999,51410000
29,22,11,Pattern_Practice,13,9999,9999,9999,51910740
29,22,11,Pattern_Practice,14,9999,9999,9999,52410436
29,22,11,Pattern_Practice,15,9999,9999,9999,52910128
29,22,11,Pattern_Practice,16,9999,9999,9999,53409856
29,22,11,Pattern_Practice,17,9999,9999,9999,53910624
29,22,11,Pattern_Practice,18,9999,9999,9999,54410308
29,22,11,Pattern_Practice,19,9999,9999,9999,54910004
29,22,11,Pattern_Practice,20,9999,9999,9999,55410744
29,22,11,Pattern_Practice,21,9999,9999,9999,55910512
29,22,11,Pattern_Practice,22,9999,9999,9999,56410184
29,22,11,Pattern_Practice,23,9999,9999,9999,56909876
29,22,11,Pattern_Practice,24,9999,9999,9999,57410620
29,22,11,Pattern_Practice,25,9999,9999,9999,57910372
29,22,11,Pattern_Practice,26,9999,9999,9999,58410068
29,22,11,Pattern_Practice,27,9999,9999,9999,58910808
29,22,11,Pattern_Practice,28,9999,9999,9999,59410500
29,22,11,Pattern_Practice,29,9999,9999,9999,59910196
29,22,11,Pattern_Practice,30,9999,9999,9999,60409964
29,22,11,Pattern_Practice,31,9999,9999,9999,60910708
29,22,11,Pattern_Practice,32,9999,9999,9999,61410404
29,22,11,Pattern_Practice,33,9999,9999,9999,61910096
29,22,11,Pattern_Practice,34,9999,9999,9999,62409804
29,22,11,Pattern_Practice,35,9999,9999,9999,62910548
29,22,11,Pattern_Practice,36,9999,9999,9999,63410240
29,22,11,Pattern_Practice,37,9999,9999,9999,63909936
29,22,11,Pattern_Practice,38,9999,9999,9999,64410676
29,22,11,Pattern_Practice,39,9999,9999,9999,64910420
29,22,11,Pattern_Practice,40,9999,9999,9999,65410116
29,22,11,Pattern_Practice,41,9999,9999,9999,65909812
29,22,11,Pattern_Practice,42,9999,9999,9999,66410552
29,22,11,Pattern_Practice,43,9999,9999,9999,66910320
29,22,11,Pattern_Practice,44,9999,9999,9999,67410016
29,22,11,Pattern_Practice,45,9999,9999,9999,67910756
29,22,11,Pattern_Practice,46,9999,9999,9999,68410452
29,22,11,Pattern_Practice,47,9999,9999,9999,68910152
29,22,11,Pattern_Practice,48,9999,9999,9999,69409848
29,22,11,Pattern_Practice,49,9999,9999,9999,69910580
29,22,11,Pattern_Practice,50,9999,9999,9999,70410352
29,22,11,Pattern_Practice,51,9999,9999,9999,70910044
29,22,11,Pattern_Practice,52,9999,9999,9999,71410788
29,22,11,Pattern_Practice,53,9999,9999,9999,71910480
29,22,11,Pattern_Practice,54,9999,9999,9999,72410176
29,22,11,Pattern_Practice,55,9999,9999,9999,72909944
29,22,11,Pattern_Practice,56,9999,9999,9999,73410620
29,22,11,Pattern_Practice,57,9999,9999,9999,73910380
29,22,11,Pattern_Practice,58,9999,9999,9999,74410076
29,22,11,Pattern_Practice,59,9999,9999,9999,74910816
29,22,11,Pattern_Practice,60,9999,9999,9999,75410512
29,22,11,Pattern_Practice,61,9999,9999,9999,75910260
29,22,11,Pattern_Practice,62,9999,9999,9999,76409952
29,22,11,Pattern_Practice,63,9999,9999,9999,76910700
29,22,11,Pattern_Practice,64,9999,9999,9999,77410388
29,22,11,Pattern_Practice,65,9999,9999,9999,77910084
29,22,11,Pattern_Practice,66,9999,9999,9999,78409780
29,22,11,Pattern_Practice,67,9999,9999,9999,78910520
29,22,11,Pattern_Practice,68,9999,9999,9999,79410288
29,22,11,Pattern_Practice,69,9999,9999,9999,79909984
29,22,11,Pattern_Practice,70,9999,9999,9999,80410724
29,22,11,Pattern_Practice,71,9999,9999,9999,80910420
29,22,11,Pattern_Practice,72,9999,9999,9999,81410116
29,22,11,Pattern_Practice,73,9999,9999,9999,81909808
29,22,11,Pattern_Practice,74,9999,9999,9999,82410552
29,22,11,Pattern_Practice,75,9999,9999,9999,82910320
29,22,11,Pattern_Practice,76,9999,9999,9999,83410016
29,22,11,Pattern_Practice,77,9999,9999,9999,83910740
29,22,11,Pattern_Practice,78,9999,9999,9999,84410436
29,22,11,Pattern_Practice,79,9999,9999,9999,84910132
29,23,13,Improv_Metronome,0,5,42,127,150663532
29,23,13,Improv_Metronome,1,5,42,127,151163324
29,23,13,Improv_Metronome,2,5,42,127,151664008
29,23,13,Improv_Metronome,3,5,42,127,152163652
29,23,13,Improv_Metronome,4,1,48,42,152655028
29,23,13,Improv_Metronome,5,5,42,127,152663288
29,23,13,Improv_Metronome,6,1,38,59,153134072
29,23,13,Improv_Metronome,7,5,42,127,153163132
29,23,13,Improv_Metronome,8,1,48,40,153595152
29,23,13,Improv_Metronome,9,5,42,127,153663848
29,23,13,Improv_Metronome,10,1,38,66,154102924
29,23,13,Improv_Metronome,11,5,42,127,154163692
29,23,13,Improv_Metronome,12,1,48,53,154575616
29,23,13,Improv_Metronome,13,5,42,127,154663240
29,23,13,Improv_Metronome,14,1,38,53,155067232
29,23,13,Improv_Metronome,15,5,42,127,155164116
29,23,13,Improv_Metronome,16,1,48,61,155541200
29,23,13,Improv_Metronome,17,5,42,127,155663960
29,23,13,Improv_Metronome,18,1,38,69,156092204
29,23,13,Improv_Metronome,19,5,42,127,156163372
29,23,13,Improv_Metronome,20,1,38,53,156575296
29,23,13,Improv_Metronome,21,5,42,127,156663144
29,23,13,Improv_Metronome,22,1,38,54,157077832
29,23,13,Improv_Metronome,23,5,42,127,157163808
29,23,13,Improv_Metronome,24,1,38,68,157559928
29,23,13,Improv_Metronome,25,5,42,127,157663564
29,23,13,Improv_Metronome,26,1,48,68,158017060
29,23,13,Improv_Metronome,27,5,42,127,158163260
29,23,13,Improv_Metronome,28,1,48,70,158533432
29,23,13,Improv_Metronome,29,5,42,127,158663928
29,23,13,Improv_Metronome,30,1,48,53,159046220
29,23,13,Improv_Metronome,31,5,42,127,159163848
29,23,13,Improv_Metronome,32,1,38,83,159556688
29,23,13,Improv_Metronome,33,5,42,127,159663540
29,23,13,Improv_Metronome,34,1,38,65,160004544
29,23,13,Improv_Metronome,35,5,42,127,160163160
29,23,13,Improv_Metronome,36,1,48,82,160494668
29,23,13,Improv_Metronome,37,5,42,127,160663976
29,23,13,Improv_Metronome,38,1,38,97,160995632
29,23,13,Improv_Metronome,39,5,42,127,161163744
29,23,13,Improv_Metronome,40,1,38,48,161470340
29,23,13,Improv_Metronome,41,5,42,127,161663340
29,23,13,Improv_Metronome,42,1,48,77,161957024
29,23,13,Improv_Metronome,43,1,38,18,161966948
29,23,13,Improv_Metronome,44,5,42,127,162164036
29,23,13,Improv_Metronome,45,1,48,61,162458240
29,23,13,Improv_Metronome,46,5,42,127,162663804
29,23,13,Improv_Metronome,47,1,48,91,162961600
29,23,13,Improv_Metronome,48,5,42,127,163163424
29,23,13,Improv_Metronome,49,1,38,65,163414148
29,23,13,Improv_Metronome,50,5,42,127,163663412
29,23,13,Improv_Metronome,51,1,38,65,163905836
29,23,13,Improv_Metronome,52,5,42,127,164164080
29,23,13,Improv_Metronome,53,1,38,100,164396552
29,23,13,Improv_Metronome,54,5,42,127,164663628
29,23,13,Improv_Metronome,55,1,38,66,164820552
29,23,13,Improv_Metronome,56,5,42,127,165163544
29,23,13,Improv_Metronome,57,1,48,71,165344408
29,23,13,Improv_Metronome,58,5,42,127,165664284
29,23,13,Improv_Metronome,59,1,48,76,165840360
29,23,13,Improv_Metronome,60,5,42,127,166163756
29,23,13,Improv_Metronome,61,1,38,63,166253188
29,23,13,Improv_Metronome,62,5,42,127,166663600
29,23,13,Improv_Metronome,63,1,38,88,166709872
29,23,13,Improv_Metronome,64,5,42,127,167163220
29,23,13,Improv_Metronome,65,1,38,62,167184212
29,23,13,Improv_Metronome,66,1,48,71,167651952
29,23,13,Improv_Metronome,67,5,42,127,167663952
29,23,13,Improv_Metronome,68,1,48,76,168148876
29,23,13,Improv_Metronome,69,1,38,19,168158284
29,23,13,Improv_Metronome,70,5,42,127,168163628
29,23,13,Improv_Metronome,71,1,48,84,168650996
29,23,13,Improv_Metronome,72,5,42,127,168663368
29,23,13,Improv_Metronome,73,1,48,84,169121968
29,23,13,Improv_Metronome,74,5,42,127,169163508
29,23,13,Improv_Metronome,75,1,38,63,169594332
29,23,13,Improv_Metronome,76,5,42,127,169663732
29,23,13,Improv_Metronome,77,1,38,76,170048324
29,23,13,Improv_Metronome,78,5,42,127,170163708
29,23,13,Improv_Metronome,79,1,38,61,170560960
29,23,13,Improv_Metronome,80,5,42,127,170663252
29,23,13,Improv_Metronome,81,1,38,92,171071876
29,23,13,Improv_Metronome,82,5,42,127,171164156
29,23,13,Improv_Metronome,83,1,38,59,171556680
29,23,13,Improv_Metronome,84,5,42,127,171663616
29,23,13,Improv_Metronome,85,1,48,55,172066028
29,23,13,Improv_Metronome,86,5,42,127,172163360
29,23,13,Improv_Metronome,87,1,48,46,172555328
29,23,13,Improv_Metronome,88,5,42,127,172663132
29,23,13,Improv_Metronome,89,1,38,84,173044924
29,23,13,Improv_Metronome,90,5,42,127,173164240
29,23,13,Improv_Metronome,91,1,38,66,173485456
29,23,13,Improv_Metronome,92,5,42,127,173663564
29,23,13,Improv_Metronome,93,1,48,71,173976020
29,23,13,Improv_Metronome,94,5,42,127,174163336
29,23,13,Improv_Metronome,95,1,48,64,174454524
29,23,13,Improv_Metronome,96,5,42,127,174664148
29,23,13,Improv_Metronome,97,1,38,89,174943892
29,23,13,Improv_Metronome,98,5,42,127,175163696
29,23,13,Improv_Metronome,99,1,38,61,175391756
29,23,13,Improv_Metronome,100,5,42,127,175663536
29,23,13,Improv_Metronome,101,1,48,65,175906936
29,23,13,Improv_Metronome,102,5,42,127,176163156
29,23,13,Improv_Metronome,103,1,48,40,176392488
29,23,13,Improv_Metronome,104,5,42,127,176664048
29,23,13,Improv_Metronome,105,1,38,67,176905348
29,23,13,Improv_Metronome,106,5,42,127,177163892
29,23,13,Improv_Metronome,107,1,38,61,177411772
29,23,13,Improv_Metronome,108,5,42,127,177663288
29,23,13,Improv_Metronome,109,1,48,62,177921416
29,23,13,Improv_Metronome,110,5,42,127,178164032
29,23,13,Improv_Metronome,111,1,38,72,178358880
29,23,13,Improv_Metronome,112,5,42,127,178663872
29,23,13,Improv_Metronome,113,1,48,67,178837856
29,23,13,Improv_Metronome,114,5,42,127,179164012
29,23,13,Improv_Metronome,115,1,48,65,179285468
29,23,13,Improv_Metronome,116,5,42,127,179663116
29,23,13,Improv_Metronome,117,1,48,72,179792712
29,23,13,Improv_Metronome,118,5,42,127,180164004
29,23,13,Improv_Metronome,119,1,38,78,180254336
29,23,13,Improv_Metronome,120,5,42,127,180663924
29,23,13,Improv_Metronome,121,1,38,59,180688064
29,23,13,Improv_Metronome,122,1,48,15,180703600
29,23,13,Improv_Metronome,123,1,48,70,181163272
29,23,13,Improv_Metronome,124,5,42,127,181164904
29,23,13,Improv_Metronome,125,1,48,76,181654996
29,23,13,Improv_Metronome,126,5,42,127,181664232
29,23,13,Improv_Metronome,127,1,38,73,182077396
29,23,13,Improv_Metronome,128,1,48,16,182092636
29,23,13,Improv_Metronome,129,5,42,127,182163684
29,23,13,Improv_Metronome,130,1,38,76,182544888
29,23,13,Improv_Metronome,131,5,42,127,182663612
29,23,13,Improv_Metronome,132,1,38,66,183020096
29,23,13,Improv_Metronome,133,5,42,127,183163208
29,23,13,Improv_Metronome,134,1,48,70,183496528
29,23,13,Improv_Metronome,135,5,42,127,183663948
29,23,13,Improv_Metronome,136,1,48,72,184005276
29,23,13,Improv_Metronome,137,5,42,127,184163792
29,23,13,Improv_Metronome,138,1,48,85,184463536
29,23,13,Improv_Metronome,139,5,42,127,184663412
29,23,13,Improv_Metronome,140,1,48,69,184937624
29,23,13,Improv_Metronome,141,5,42,127,185163260
29,23,13,Improv_Metronome,142,1,48,35,185432828
29,23,13,Improv_Metronome,143,5,42,127,185663852
29,23,13,Improv_Metronome,144,1,38,72,185856976
29,23,13,Improv_Metronome,145,5,42,127,186163548
29,23,13,Improv_Metronome,146,1,38,87,186323096
29,23,13,Improv_Metronome,147,5,42,127,186663688
29,23,13,Improv_Metronome,148,1,38,58,186736068
29,23,13,Improv_Metronome,149,5,42,127,187164056
29,23,13,Improv_Metronome,150,1,48,75,187173608
29,23,13,Improv_Metronome,151,1,38,19,187183464
29,23,13,Improv_Metronome,152,1,48,71,187627172
29,23,13,Improv_Metronome,153,5,42,127,187663784
29,23,13,Improv_Metronome,154,1,38,71,188088196
29,23,13,Improv_Metronome,155,5,42,127,188163556
29,23,13,Improv_Metronome,156,1,38,67,188555880
29,23,13,Improv_Metronome,157,5,42,127,188663236
29,23,13,Improv_Metronome,158,1,38,75,189013812
29,23,13,Improv_Metronome,159,5,42,127,189163904
29,23,13,Improv_Metronome,160,1,48,91,189481420
29,23,13,Improv_Metronome,161,5,42,127,189663448
29,23,13,Improv_Metronome,162,1,48,81,189975352
29,23,13,Improv_Metronome,163,5,42,127,190163516
29,23,13,Improv_Metronome,164,1,38,73,190434208
29,23,13,Improv_Metronome,165,5,42,127,190664184
29,23,13,Improv_Metronome,166,1,48,78,190906228
29,23,13,Improv_Metronome,167,5,42,127,191163656
29,23,13,Improv_Metronome,168,1,48,77,191350548
29,23,13,Improv_Metronome,169,5,42,127,191663424
29,23,13,Improv_Metronome,170,1,38,55,191839624
29,23,13,Improv_Metronome,171,5,42,127,192163340
29,23,13,Improv_Metronome,172,1,38,61,192235872
29,23,13,Improv_Metronome,173,5,42,127,192664084
29,23,13,Improv_Metronome,174,1,48,74,192690088
29,23,13,Improv_Metronome,175,1,48,76,193098560
29,23,13,Improv_Metronome,176,5,42,127,193163696
29,23,13,Improv_Metronome,177,1,38,66,193563028
29,23,13,Improv_Metronome,178,5,42,127,193663424
29,23,13,Improv_Metronome,179,1,38,77,194035948
29,23,13,Improv_Metronome,180,5,42,127,194164020
29,23,13,Improv_Metronome,181,1,48,91,194529436
29,23,13,Improv_Metronome,182,5,42,127,194663716
29,23,13,Improv_Metronome,183,1,38,76,194924308
29,23,13,Improv_Metronome,184,5,42,127,195163412
29,23,13,Improv_Metronome,185,1,48,94,195402164
29,23,13,Improv_Metronome,186,5,42,127,195663176
29,23,13,Improv_Metronome,187,1,48,68,195842620
29,23,13,Improv_Metronome,188,1,38,18,195852772
29,23,13,Improv_Metronome,189,5,42,127,196164020
29,23,13,Improv_Metronome,190,1,38,94,196275992
29,23,13,Improv_Metronome,191,5,42,127,196663716
29,23,13,Improv_Metronome,192,1,48,77,196727196
29,23,13,Improv_Metronome,193,5,42,127,197163484
29,23,13,Improv_Metronome,194,1,38,59,197178944
29,23,13,Improv_Metronome,195,1,48,82,197577568
29,23,13,Improv_Metronome,196,5,42,127,197664144
29,23,13,Improv_Metronome,197,1,38,65,198014184
29,23,13,Improv_Metronome,198,5,42,127,198163972
29,23,13,Improv_Metronome,199,1,48,72,198461072
29,23,13,Improv_Metronome,200,5,42,127,198663592
29,23,13,Improv_Metronome,201,1,48,71,198878268
29,23,13,Improv_Metronome,202,5,42,127,199163216
29,23,13,Improv_Metronome,203,1,48,64,199314980
29,23,13,Improv_Metronome,204,5,42,127,199663956
29,23,13,Improv_Metronome,205,1,48,60,199755036
29,23,13,Improv_Metronome,206,5,42,127,200163724
29,23,13,Improv_Metronome,207,1,38,77,200203116
29,23,13,Improv_Metronome,208,1,38,74,200606604
29,23,13,Improv_Metronome,209,5,42,127,200663340
29,23,13,Improv_Metronome,210,1,48,78,201059300
29,23,13,Improv_Metronome,211,5,42,127,201163092
29,23,13,Improv_Metronome,212,1,48,68,201522424
29,23,13,Improv_Metronome,213,5,42,127,201663984
29,23,13,Improv_Metronome,214,1,48,69,201952780
29,23,13,Improv_Metronome,215,5,42,127,202163604
29,23,13,Improv_Metronome,216,1,38,76,202387924
29,23,13,Improv_Metronome,217,1,48,19,202400172
29,23,13,Improv_Metronome,218,5,42,127,202663176
29,23,13,Improv_Metronome,219,1,38,71,202836384
29,23,13,Improv_Metronome,220,5,42,127,203164140
29,23,13,Improv_Metronome,221,1,48,44,203261800
29,23,13,Improv_Metronome,222,1,38,16,203270684
29,23,13,Improv_Metronome,223,5,42,127,203663860
29,23,13,Improv_Metronome,224,1,38,77,203680444
29,23,13,Improv_Metronome,225,1,38,62,204074632
29,23,13,Improv_Metronome,226,5,42,127,204163672
29,23,13,Improv_Metronome,227,1,48,69,204484868
29,23,13,Improv_Metronome,228,5,42,127,204663204
29,23,13,Improv_Metronome,229,1,48,56,204866428
29,23,13,Improv_Metronome,230,5,42,127,205163872
29,23,13,Improv_Metronome,231,1,48,67,205258340
29,23,13,Improv_Metronome,232,1,38,71,205630616
29,23,13,Improv_Metronome,233,5,42,127,205663784
29,23,13,Improv_Metronome,234,1,38,41,205994256
29,23,13,Improv_Metronome,235,5,42,127,206163464
29,23,13,Improv_Metronome,236,1,48,76,206350084
29,23,13,Improv_Metronome,237,5,42,127,206663980
29,23,13,Improv_Metronome,238,1,48,65,206668148
29,23,13,Improv_Metronome,239,1,48,69,207015312
29,23,13,Improv_Metronome,240,5,42,127,207163880
29,23,13,Improv_Metronome,241,1,48,60,207334720
29,23,13,Improv_Metronome,242,1,48,49,207650516
29,23,13,Improv_Metronome,243,5,42,127,207663564
29,23,13,Improv_Metronome,244,1,38,86,208002088
29,23,13,Improv_Metronome,245,5,42,127,208163468
29,23,13,Improv_Metronome,246,1,38,73,208345528
29,23,13,Improv_Metronome,247,5,42,127,208663840
29,23,13,Improv_Metronome,248,1,38,65,208692760
29,23,13,Improv_Metronome,249,1,48,71,209040600
29,23,13,Improv_Metronome,250,5,42,127,209163584
29,23,13,Improv_Metronome,251,1,48,64,209317368
29,23,13,Improv_Metronome,252,1,48,63,209657552
29,23,13,Improv_Metronome,253,5,42,127,209663420
29,23,13,Improv_Metronome,254,1,48,59,209975016
29,23,13,Improv_Metronome,255,5,42,127,210164000
29,23,13,Improv_Metronome,256,1,38,76,210344936
29,23,13,Improv_Metronome,257,5,42,127,210663772
29,23,13,Improv_Metronome,258,1,38,43,210707128
29,23,13,Improv_Metronome,259,1,48,75,211052852
29,23,13,Improv_Metronome,260,5,42,127,211163520
29,23,13,Improv_Metronome,261,1,48,63,211339300
29,23,13,Improv_Metronome,262,5,42,127,211663436
29,23,13,Improv_Metronome,263,1,38,66,211712036
29,23,13,Improv_Metronome,264,1,38,62,211993876
29,23,13,Improv_Metronome,265,5,42,127,212163936
29,23,13,Improv_Metronome,266,1,48,71,212347836
29,23,13,Improv_Metronome,267,1,48,56,212594596
29,23,13,Improv_Metronome,268,5,42,127,212663548
29,23,13,Improv_Metronome,269,1,38,86,212953972
29,23,13,Improv_Metronome,270,5,42,127,213163300
29,23,13,Improv_Metronome,271,1,38,71,213238744
29,23,13,Improv_Metronome,272,1,48,63,213599052
29,23,13,Improv_Metronome,273,5,42,127,213663960
29,23,13,Improv_Metronome,274,1,48,52,213929700
29,23,13,Improv_Metronome,275,5,42,127,214163940
29,23,13,Improv_Metronome,276,1,38,45,214269456
29,23,13,Improv_Metronome,277,1,38,66,214559372
29,23,13,Improv_Metronome,278,5,42,127,214663536
29,23,13,Improv_Metronome,279,1,48,65,214879004
29,23,13,Improv_Metronome,280,5,42,127,215163508
29,23,13,Improv_Metronome,281,1,38,77,215236812
29,23,13,Improv_Metronome,282,1,38,64,215549396
29,23,13,Improv_Metronome,283,5,42,127,215663928
29,23,13,Improv_Metronome,284,1,48,74,215892140
29,23,13,Improv_Metronome,285,5,42,127,216163624
29,23,13,Improv_Metronome,286,1,38,65,216165184
29,23,13,Improv_Metronome,287,1,38,95,216519660
29,23,13,Improv_Metronome,288,5,42,127,216663372
29,23,13,Improv_Metronome,289,1,38,78,216829944
29,23,13,Improv_Metronome,290,5,42,127,217163140
29,23,13,Improv_Metronome,291,1,48,68,217164552
29,23,13,Improv_Metronome,292,1,48,70,217505792
29,23,13,Improv_Metronome,293,5,42,127,217663788
29,23,13,Improv_Metronome,294,1,48,83,217791464
29,23,13,Improv_Metronome,295,1,38,74,218155436
29,23,13,Improv_Metronome,296,5,42,127,218163476
29,23,13,Improv_Metronome,297,1,38,65,218481424
29,23,13,Improv_Metronome,298,5,42,127,218663228
29,23,13,Improv_Metronome,299,1,48,68,218842892
29,23,13,Improv_Metronome,300,5,42,127,219163968
29,23,13,Improv_Metronome,301,1,48,73,219186084
29,23,13,Improv_Metronome,302,1,48,68,219535420
29,23,13,Improv_Metronome,303,5,42,127,219663788
29,23,13,Improv_Metronome,304,1,38,72,219865072
29,23,13,Improv_Metronome,305,5,42,127,220163412
29,23,13,Improv_Metronome,306,1,38,78,220245144
29,23,13,Improv_Metronome,307,1,38,81,220556700
29,23,13,Improv_Metronome,0,9999,9999,9999,150661168
29,23,13,Improv_Metronome,1,9999,9999,9999,151160888
29,23,13,Improv_Metronome,2,9999,9999,9999,151661648
29,23,13,Improv_Metronome,3,9999,9999,9999,152161364
29,23,13,Improv_Metronome,4,9999,9999,9999,152661076
29,23,13,Improv_Metronome,5,9999,9999,9999,153160768
29,23,13,Improv_Metronome,6,9999,9999,9999,153661560
29,23,13,Improv_Metronome,7,9999,9999,9999,154161256
29,23,13,Improv_Metronome,8,9999,9999,9999,154660952
29,23,13,Improv_Metronome,9,9999,9999,9999,155161712
29,23,13,Improv_Metronome,10,9999,9999,9999,155661376
29,23,13,Improv_Metronome,11,9999,9999,9999,156161088
29,23,13,Improv_Metronome,12,9999,9999,9999,156660856
29,23,13,Improv_Metronome,13,9999,9999,9999,157161520
29,23,13,Improv_Metronome,14,9999,9999,9999,157661276
29,23,13,Improv_Metronome,15,9999,9999,9999,158160972
29,23,13,Improv_Metronome,16,9999,9999,9999,158661716
29,23,13,Improv_Metronome,17,9999,9999,9999,159161408
29,23,13,Improv_Metronome,18,9999,9999,9999,159661176
29,23,13,Improv_Metronome,19,9999,9999,9999,160160872
29,23,13,Improv_Metronome,20,9999,9999,9999,160661612
29,23,13,Improv_Metronome,21,9999,9999,9999,161161284
29,23,13,Improv_Metronome,22,9999,9999,9999,161660980
29,23,13,Improv_Metronome,23,9999,9999,9999,162161748
29,23,13,Improv_Metronome,24,9999,9999,9999,162661440
29,23,13,Improv_Metronome,25,9999,9999,9999,163161208
29,23,13,Improv_Metronome,26,9999,9999,9999,163660904
29,23,13,Improv_Metronome,27,9999,9999,9999,164161644
29,23,13,Improv_Metronome,28,9999,9999,9999,164661340
29,23,13,Improv_Metronome,29,9999,9999,9999,165161032
29,23,13,Improv_Metronome,30,9999,9999,9999,165661772
29,23,13,Improv_Metronome,31,9999,9999,9999,166161468
29,23,13,Improv_Metronome,32,9999,9999,9999,166661236
29,23,13,Improv_Metronome,33,9999,9999,9999,167160932
29,23,13,Improv_Metronome,34,9999,9999,9999,167661664
29,23,13,Improv_Metronome,35,9999,9999,9999,168161340
29,23,13,Improv_Metronome,36,9999,9999,9999,168661084
29,23,13,Improv_Metronome,37,9999,9999,9999,169160776
29,23,13,Improv_Metronome,38,9999,9999,9999,169661516
29,23,13,Improv_Metronome,39,9999,9999,9999,170161272
29,23,13,Improv_Metronome,40,9999,9999,9999,170660964
29,23,13,Improv_Metronome,41,9999,9999,9999,171161720
29,23,13,Improv_Metronome,42,9999,9999,9999,171661400
29,23,13,Improv_Metronome,43,9999,9999,9999,172161144
29,23,13,Improv_Metronome,44,9999,9999,9999,172660840
29,23,13,Improv_Metronome,45,9999,9999,9999,173161584
29,23,13,Improv_Metronome,46,9999,9999,9999,173661280
29,23,13,Improv_Metronome,47,9999,9999,9999,174160972
29,23,13,Improv_Metronome,48,9999,9999,9999,174661712
29,23,13,Improv_Metronome,49,9999,9999,9999,175161408
29,23,13,Improv_Metronome,50,9999,9999,9999,175661176
29,23,13,Improv_Metronome,51,9999,9999,9999,176160868
29,23,13,Improv_Metronome,52,9999,9999,9999,176661612
29,23,13,Improv_Metronome,53,9999,9999,9999,177161304
29,23,13,Improv_Metronome,54,9999,9999,9999,177661000
29,23,13,Improv_Metronome,55,9999,9999,9999,178161744
29,23,13,Improv_Metronome,56,9999,9999,9999,178661436
29,23,13,Improv_Metronome,57,9999,9999,9999,179161204
29,23,13,Improv_Metronome,58,9999,9999,9999,179660900
29,23,13,Improv_Metronome,59,9999,9999,9999,180161644
29,23,13,Improv_Metronome,60,9999,9999,9999,180661336
29,23,13,Improv_Metronome,61,9999,9999,9999,181161060
29,23,13,Improv_Metronome,62,9999,9999,9999,181661792
29,23,13,Improv_Metronome,63,9999,9999,9999,182161472
29,23,13,Improv_Metronome,64,9999,9999,9999,182661172
29,23,13,Improv_Metronome,65,9999,9999,9999,183160920
29,23,13,Improv_Metronome,66,9999,9999,9999,183661660
29,23,13,Improv_Metronome,67,9999,9999,9999,184161356
29,23,13,Improv_Metronome,68,9999,9999,9999,184661052
29,23,13,Improv_Metronome,69,9999,9999,9999,185160820
29,23,13,Improv_Metronome,70,9999,9999,9999,185661488
29,23,13,Improv_Metronome,71,9999,9999,9999,186161260
29,23,13,Improv_Metronome,72,9999,9999,9999,186660952
29,23,13,Improv_Metronome,73,9999,9999,9999,187161692
29,23,13,Improv_Metronome,74,9999,9999,9999,187661424
29,23,13,Improv_Metronome,75,9999,9999,9999,188161120
29,23,13,Improv_Metronome,76,9999,9999,9999,188660800
29,23,13,Improv_Metronome,77,9999,9999,9999,189161540
29,23,13,Improv_Metronome,78,9999,9999,9999,189661236
29,23,13,Improv_Metronome,79,9999,9999,9999,190161004
29,23,13,Improv_Metronome,80,9999,9999,9999,190661744
29,23,13,Improv_Metronome,81,9999,9999,9999,191161440
29,23,13,Improv_Metronome,82,9999,9999,9999,191661136
29,23,13,Improv_Metronome,83,9999,9999,9999,192160832
29,23,13,Improv_Metronome,84,9999,9999,9999,192661572
29,23,13,Improv_Metronome,85,9999,9999,9999,193161332
29,23,13,Improv_Metronome,86,9999,9999,9999,193660988
29,23,13,Improv_Metronome,87,9999,9999,9999,194161732
29,23,13,Improv_Metronome,88,9999,9999,9999,194661428
29,23,13,Improv_Metronome,89,9999,9999,9999,195161196
29,23,13,Improv_Metronome,90,9999,9999,9999,195660888
29,23,13,Improv_Metronome,91,9999,9999,9999,196161584
29,23,13,Improv_Metronome,92,9999,9999,9999,196661352
29,23,13,Improv_Metronome,93,9999,9999,9999,197161048
29,23,13,Improv_Metronome,94,9999,9999,9999,197661780
29,23,13,Improv_Metronome,95,9999,9999,9999,198161460
29,23,13,Improv_Metronome,96,9999,9999,9999,198661232
29,23,13,Improv_Metronome,97,9999,9999,9999,199160928
29,23,13,Improv_Metronome,98,9999,9999,9999,199661668
29,23,13,Improv_Metronome,99,9999,9999,9999,200161360
29,23,13,Improv_Metronome,100,9999,9999,9999,200661052
29,23,13,Improv_Metronome,101,9999,9999,9999,201160804
29,23,13,Improv_Metronome,102,9999,9999,9999,201661548
29,23,13,Improv_Metronome,103,9999,9999,9999,202161244
29,23,13,Improv_Metronome,104,9999,9999,9999,202660964
29,23,13,Improv_Metronome,105,9999,9999,9999,203161704
29,23,13,Improv_Metronome,106,9999,9999,9999,203661424
29,23,13,Improv_Metronome,107,9999,9999,9999,204161088
29,23,13,Improv_Metronome,108,9999,9999,9999,204660844
29,23,13,Improv_Metronome,109,9999,9999,9999,205161584
29,23,13,Improv_Metronome,110,9999,9999,9999,205661272
29,23,13,Improv_Metronome,111,9999,9999,9999,206160952
29,23,13,Improv_Metronome,112,9999,9999,9999,206661696
29,23,13,Improv_Metronome,113,9999,9999,9999,207161444
29,23,13,Improv_Metronome,114,9999,9999,9999,207661128
29,23,13,Improv_Metronome,115,9999,9999,9999,208160884
29,23,13,Improv_Metronome,116,9999,9999,9999,208661624
29,23,13,Improv_Metronome,117,9999,9999,9999,209161296
29,23,13,Improv_Metronome,118,9999,9999,9999,209660984
29,23,13,Improv_Metronome,119,9999,9999,9999,210161712
29,23,13,Improv_Metronome,120,9999,9999,9999,210661484
29,23,13,Improv_Metronome,121,9999,9999,9999,211161156
29,23,13,Improv_Metronome,122,9999,9999,9999,211660852
29,23,13,Improv_Metronome,123,9999,9999,9999,212161648
29,23,13,Improv_Metronome,124,9999,9999,9999,212661336
29,23,13,Improv_Metronome,125,9999,9999,9999,213161012
29,23,13,Improv_Metronome,126,9999,9999,9999,213661748
29,23,13,Improv_Metronome,127,9999,9999,9999,214161504
29,23,13,Improv_Metronome,128,9999,9999,9999,214661224
29,23,13,Improv_Metronome,129,9999,9999,9999,215160920
29,23,13,Improv_Metronome,130,9999,9999,9999,215661640
29,23,13,Improv_Metronome,131,9999,9999,9999,216161336
29,23,13,Improv_Metronome,132,9999,9999,9999,216661084
29,23,13,Improv_Metronome,133,9999,9999,9999,217160780
29,23,13,Improv_Metronome,134,9999,9999,9999,217661496
29,23,13,Improv_Metronome,135,9999,9999,9999,218161264
29,23,13,Improv_Metronome,136,9999,9999,9999,218660940
29,23,13,Improv_Metronome,137,9999,9999,9999,219161680
29,23,13,Improv_Metronome,138,9999,9999,9999,219661428
29,23,13,Improv_Metronome,139,9999,9999,9999,220161124
29,24,14,Improv_Melody,0,2,48,80,274557248
29,24,14,Improv_Melody,1,2,72,80,274559480
29,24,14,Improv_Melody,2,5,42,127,274561940
29,24,14,Improv_Melody,3,5,42,110,275055956
29,24,14,Improv_Melody,4,5,42,110,275555752
29,24,14,Improv_Melody,5,5,42,110,276055548
29,24,14,Improv_Melody,6,5,42,127,276555268
29,24,14,Improv_Melody,7,5,42,110,277055964
29,24,14,Improv_Melody,8,5,42,110,277555460
29,24,14,Improv_Melody,9,5,42,110,278055404
29,24,14,Improv_Melody,10,2,43,80,278558604
29,24,14,Improv_Melody,11,2,67,80,278560532
29,24,14,Improv_Melody,12,5,42,127,278563444
29,24,14,Improv_Melody,13,5,42,110,279055688
29,24,14,Improv_Melody,14,5,42,110,279555480
29,24,14,Improv_Melody,15,5,42,110,280055352
29,24,14,Improv_Melody,16,5,42,127,280555824
29,24,14,Improv_Melody,17,5,42,110,281055692
29,24,14,Improv_Melody,18,5,42,110,281555340
29,24,14,Improv_Melody,19,5,42,110,282056256
29,24,14,Improv_Melody,20,2,45,80,282558336
29,24,14,Improv_Melody,21,2,69,80,282560412
29,24,14,Improv_Melody,22,5,42,127,282563100
29,24,14,Improv_Melody,23,5,42,110,283055492
29,24,14,Improv_Melody,24,5,42,110,283555216
29,24,14,Improv_Melody,25,5,42,110,284056056
29,24,14,Improv_Melody,26,5,42,127,284555704
29,24,14,Improv_Melody,27,5,42,110,285055476
29,24,14,Improv_Melody,28,5,42,110,285556220
29,24,14,Improv_Melody,29,5,42,110,286055868
29,24,14,Improv_Melody,30,2,41,80,286558168
29,24,14,Improv_Melody,31,2,65,80,286560168
29,24,14,Improv_Melody,32,5,42,127,286562856
29,24,14,Improv_Melody,33,5,42,110,287055324
29,24,14,Improv_Melody,34,5,42,110,287555944
29,24,14,Improv_Melody,35,5,42,110,288055888
29,24,14,Improv_Melody,36,5,42,127,288555240
29,24,14,Improv_Melody,37,5,42,110,289056004
29,24,14,Improv_Melody,38,5,42,110,289555952
29,24,14,Improv_Melody,39,5,42,110,290055672
29,24,14,Improv_Melody,40,2,48,80,290557900
29,24,14,Improv_Melody,41,2,72,80,290559976
29,24,14,Improv_Melody,42,5,42,127,290562588
29,24,14,Improv_Melody,43,5,42,110,291055952
29,24,14,Improv_Melody,44,5,42,110,291555900
29,24,14,Improv_Melody,45,5,42,110,292055396
29,24,14,Improv_Melody,46,1,38,46,292093000
29,24,14,Improv_Melody,47,5,42,127,292555100
29,24,14,Improv_Melody,48,1,38,52,292574820
29,24,14,Improv_Melody,49,5,42,110,293055768
29,24,14,Improv_Melody,50,1,48,59,293068536
29,24,14,Improv_Melody,51,1,48,68,293555472
29,24,14,Improv_Melody,52,5,42,110,293557032
29,24,14,Improv_Melody,53,1,38,69,294013436
29,24,14,Improv_Melody,54,5,42,110,294055312
29,24,14,Improv_Melody,55,1,38,63,294476784
29,24,14,Improv_Melody,56,2,43,80,294558640
29,24,14,Improv_Melody,57,2,67,80,294560716
29,24,14,Improv_Melody,58,5,42,127,294563628
29,24,14,Improv_Melody,59,1,38,67,295048028
29,24,14,Improv_Melody,60,5,42,110,295055700
29,24,14,Improv_Melody,61,5,42,110,295555700
29,24,14,Improv_Melody,62,1,48,55,295575424
29,24,14,Improv_Melody,63,5,42,110,296055080
29,24,14,Improv_Melody,64,1,48,65,296067572
29,24,14,Improv_Melody,65,5,42,127,296555900
29,24,14,Improv_Melody,66,1,48,72,296556792
29,24,14,Improv_Melody,67,1,38,64,297010228
29,24,14,Improv_Melody,68,5,42,110,297055744
29,24,14,Improv_Melody,69,1,38,70,297499980
29,24,14,Improv_Melody,70,5,42,110,297555368
29,24,14,Improv_Melody,71,5,42,110,298056196
29,24,14,Improv_Melody,72,1,38,74,298057912
29,24,14,Improv_Melody,73,1,38,65,298521588
29,24,14,Improv_Melody,74,2,45,80,298558392
29,24,14,Improv_Melody,75,2,69,80,298560468
29,24,14,Improv_Melody,76,5,42,127,298563008
29,24,14,Improv_Melody,77,5,42,110,299055536
29,24,14,Improv_Melody,78,1,48,64,299058728
29,24,14,Improv_Melody,79,5,42,110,299555308
29,24,14,Improv_Melody,80,1,48,78,299564188
29,24,14,Improv_Melody,81,1,38,72,300024072
29,24,14,Improv_Melody,82,5,42,110,300055824
29,24,14,Improv_Melody,83,1,48,80,300517936
29,24,14,Improv_Melody,84,5,42,127,300555524
29,24,14,Improv_Melody,85,1,48,70,301014344
29,24,14,Improv_Melody,86,5,42,110,301055224
29,24,14,Improv_Melody,87,1,48,71,301504920
29,24,14,Improv_Melody,88,5,42,110,301556268
29,24,14,Improv_Melody,89,1,38,81,301959888
29,24,14,Improv_Melody,90,5,42,110,302055728
29,24,14,Improv_Melody,91,1,48,73,302502672
29,24,14,Improv_Melody,92,2,41,80,302557800
29,24,14,Improv_Melody,93,2,65,80,302560176
29,24,14,Improv_Melody,94,5,42,127,302562492
29,24,14,Improv_Melody,95,1,48,66,303024160
29,24,14,Improv_Melody,96,5,42,110,303055160
29,24,14,Improv_Melody,97,1,48,86,303510992
29,24,14,Improv_Melody,98,5,42,110,303555832
29,24,14,Improv_Melody,99,1,38,82,303994888
29,24,14,Improv_Melody,100,5,42,110,304055680
29,24,14,Improv_Melody,101,1,48,83,304517720
29,24,14,Improv_Melody,102,5,42,127,304555380
29,24,14,Improv_Melody,103,1,48,62,304963460
29,24,14,Improv_Melody,104,5,42,110,305056052
29,24,14,Improv_Melody,105,1,48,81,305446556
29,24,14,Improv_Melody,106,5,42,110,305556036
29,24,14,Improv_Melody,107,1,38,84,305933916
29,24,14,Improv_Melody,108,5,42,110,306055660
29,24,14,Improv_Melody,109,1,48,74,306470788
29,24,14,Improv_Melody,110,2,48,80,306557704
29,24,14,Improv_Melody,111,2,72,80,306560272
29,24,14,Improv_Melody,112,5,42,127,306563392
29,24,14,Improv_Melody,113,1,38,76,306926012
29,24,14,Improv_Melody,114,5,42,110,307056184
29,24,14,Improv_Melody,115,1,38,75,307425036
29,24,14,Improv_Melody,116,5,42,110,307555584
29,24,14,Improv_Melody,117,1,38,66,307925784
29,24,14,Improv_Melody,118,5,42,110,308055360
29,24,14,Improv_Melody,119,1,48,72,308420700
29,24,14,Improv_Melody,120,5,42,127,308555132
29,24,14,Improv_Melody,121,1,48,66,308929676
29,24,14,Improv_Melody,122,5,42,110,309055804
29,24,14,Improv_Melody,123,1,48,84,309402972
29,24,14,Improv_Melody,124,5,42,110,309555580
29,24,14,Improv_Melody,125,1,38,74,309832784
29,24,14,Improv_Melody,126,5,42,110,310055356
29,24,14,Improv_Melody,127,1,38,71,310313856
29,24,14,Improv_Melody,128,2,43,80,310558152
29,24,14,Improv_Melody,129,2,67,80,310560840
29,24,14,Improv_Melody,130,5,42,127,310563224
29,24,14,Improv_Melody,131,1,38,77,310798836
29,24,14,Improv_Melody,132,5,42,110,311055892
29,24,14,Improv_Melody,133,1,48,78,311317384
29,24,14,Improv_Melody,134,5,42,110,311555292
29,24,14,Improv_Melody,135,1,48,67,311822244
29,24,14,Improv_Melody,136,5,42,110,312055216
29,24,14,Improv_Melody,137,1,48,67,312281928
29,24,14,Improv_Melody,138,5,42,127,312555740
29,24,14,Improv_Melody,139,1,38,67,312719924
29,24,14,Improv_Melody,140,5,42,110,313055884
29,24,14,Improv_Melody,141,1,38,81,313195888
29,24,14,Improv_Melody,142,5,42,110,313555216
29,24,14,Improv_Melody,143,1,38,74,313677936
29,24,14,Improv_Melody,144,5,42,110,314055960
29,24,14,Improv_Melody,145,1,48,71,314126020
29,24,14,Improv_Melody,146,2,45,80,314558164
29,24,14,Improv_Melody,147,2,69,80,314560388
29,24,14,Improv_Melody,148,5,42,127,314563080
29,24,14,Improv_Melody,149,1,48,74,314629328
29,24,14,Improv_Melody,150,5,42,110,315055596
29,24,14,Improv_Melody,151,1,48,64,315097688
29,24,14,Improv_Melody,152,5,42,110,315555076
29,24,14,Improv_Melody,153,1,48,79,315557816
29,24,14,Improv_Melody,154,5,42,110,316055972
29,24,14,Improv_Melody,155,1,38,73,316060140
29,24,14,Improv_Melody,156,1,38,58,316512296
29,24,14,Improv_Melody,157,5,42,127,316555740
29,24,14,Improv_Melody,158,1,38,62,316988732
29,24,14,Improv_Melody,159,5,42,110,317055440
29,24,14,Improv_Melody,160,1,48,75,317471228
29,24,14,Improv_Melody,161,5,42,110,317556012
29,24,14,Improv_Melody,162,1,38,69,317982044
29,24,14,Improv_Melody,163,5,42,110,318055836
29,24,14,Improv_Melody,164,1,38,53,318434628
29,24,14,Improv_Melody,165,2,41,80,318557948
29,24,14,Improv_Melody,166,2,65,80,318560248
29,24,14,Improv_Melody,167,5,42,127,318562864
29,24,14,Improv_Melody,168,1,48,81,318900904
29,24,14,Improv_Melody,169,5,42,110,319055460
29,24,14,Improv_Melody,170,1,38,48,319462612
29,24,14,Improv_Melody,171,5,42,110,319555924
29,24,14,Improv_Melody,172,1,38,54,319954984
29,24,14,Improv_Melody,173,5,42,110,320055608
29,24,14,Improv_Melody,174,1,48,86,320476968
29,24,14,Improv_Melody,175,5,42,127,320555472
29,24,14,Improv_Melody,176,1,48,87,321016840
29,24,14,Improv_Melody,177,5,42,110,321056072
29,24,14,Improv_Melody,178,1,38,78,321528356
29,24,14,Improv_Melody,179,5,42,110,321555772
29,24,14,Improv_Melody,180,5,42,110,322055480
29,24,14,Improv_Melody,181,1,38,45,322056516
29,24,14,Improv_Melody,182,1,38,67,322510700
29,24,14,Improv_Melody,183,2,48,80,322557828
29,24,14,Improv_Melody,184,2,72,80,322559976
29,24,14,Improv_Melody,185,5,42,127,322562516
29,24,14,Improv_Melody,186,1,48,66,323015952
29,24,14,Improv_Melody,187,5,42,110,323055932
29,24,14,Improv_Melody,188,1,48,71,323529788
29,24,14,Improv_Melody,189,5,42,110,323555556
29,24,14,Improv_Melody,190,1,38,79,324014004
29,24,14,Improv_Melody,191,5,42,110,324055408
29,24,14,Improv_Melody,192,1,38,73,324510636
29,24,14,Improv_Melody,193,5,42,127,324555256
29,24,14,Improv_Melody,194,1,48,68,325014152
29,24,14,Improv_Melody,195,1,38,21,325025880
29,24,14,Improv_Melody,196,5,42,110,325056056
29,24,14,Improv_Melody,197,1,48,82,325520464
29,24,14,Improv_Melody,198,5,42,110,325555508
29,24,14,Improv_Melody,199,1,38,80,325988944
29,24,14,Improv_Melody,200,5,42,110,326055132
29,24,14,Improv_Melody,201,1,38,80,326473016
29,24,14,Improv_Melody,202,2,43,80,326558608
29,24,14,Improv_Melody,203,2,67,80,326560756
29,24,14,Improv_Melody,204,5,42,127,326563372
29,24,14,Improv_Melody,205,1,38,73,327020824
29,24,14,Improv_Melody,206,5,42,110,327055668
29,24,14,Improv_Melody,207,1,38,81,327479228
29,24,14,Improv_Melody,208,5,42,110,327555512
29,24,14,Improv_Melody,209,1,48,71,328011020
29,24,14,Improv_Melody,210,5,42,110,328055116
29,24,14,Improv_Melody,211,1,48,74,328522764
29,24,14,Improv_Melody,212,5,42,127,328556084
29,24,14,Improv_Melody,213,1,48,75,329012516
29,24,14,Improv_Melody,214,5,42,110,329055636
29,24,14,Improv_Melody,215,1,48,69,329512368
29,24,14,Improv_Melody,216,5,42,110,329555340
29,24,14,Improv_Melody,217,1,38,70,330025380
29,24,14,Improv_Melody,218,5,42,110,330056012
29,24,14,Improv_Melody,219,2,45,80,330558300
29,24,14,Improv_Melody,220,2,69,80,330560448
29,24,14,Improv_Melody,221,5,42,127,330563136
29,24,14,Improv_Melody,222,1,48,62,330618916
29,24,14,Improv_Melody,223,1,38,73,331039156
29,24,14,Improv_Melody,224,5,42,110,331055348
29,24,14,Improv_Melody,225,5,42,110,331555056
29,24,14,Improv_Melody,226,1,48,73,331558100
29,24,14,Improv_Melody,227,1,38,71,332045364
29,24,14,Improv_Melody,228,5,42,110,332056020
29,24,14,Improv_Melody,229,1,38,92,332522020
29,24,14,Improv_Melody,230,5,42,127,332555572
29,24,14,Improv_Melody,231,1,48,69,333037056
29,24,14,Improv_Melody,232,5,42,110,333055196
29,24,14,Improv_Melody,233,1,48,85,333524044
29,24,14,Improv_Melody,234,5,42,110,333556020
29,24,14,Improv_Melody,235,1,38,76,333994864
29,24,14,Improv_Melody,236,5,42,110,334055792
29,24,14,Improv_Melody,237,1,38,73,334483576
29,24,14,Improv_Melody,238,2,41,80,334558376
29,24,14,Improv_Melody,239,2,65,80,334560600
29,24,14,Improv_Melody,240,5,42,127,334563132
29,24,14,Improv_Melody,241,1,48,80,335048656
29,24,14,Improv_Melody,242,5,42,110,335055208
29,24,14,Improv_Melody,243,1,48,64,335534820
29,24,14,Improv_Melody,244,5,42,110,335555952
29,24,14,Improv_Melody,245,1,38,76,336010436
29,24,14,Improv_Melody,246,5,42,110,336055800
29,24,14,Improv_Melody,247,1,38,67,336503228
29,24,14,Improv_Melody,248,5,42,127,336555576
29,24,14,Improv_Melody,249,1,38,75,336992756
29,24,14,Improv_Melody,250,5,42,110,337056024
29,24,14,Improv_Melody,251,1,48,67,337497988
29,24,14,Improv_Melody,252,5,42,110,337555800
29,24,14,Improv_Melody,253,1,48,70,337977868
29,24,14,Improv_Melody,254,5,42,110,338055720
29,24,14,Improv_Melody,255,1,38,78,338480268
29,24,14,Improv_Melody,256,2,48,80,338557780
29,24,14,Improv_Melody,257,2,72,80,338559928
29,24,14,Improv_Melody,258,5,42,127,338562616
29,24,14,Improv_Melody,259,1,38,59,338956788
29,24,14,Improv_Melody,260,5,42,110,339055848
29,24,14,Improv_Melody,261,1,38,65,339494936
29,24,14,Improv_Melody,262,5,42,110,339555636
29,24,14,Improv_Melody,263,1,48,68,340028596
29,24,14,Improv_Melody,264,5,42,110,340055484
29,24,14,Improv_Melody,265,1,48,56,340545420
29,24,14,Improv_Melody,266,5,42,127,340555112
29,24,14,Improv_Melody,267,1,38,75,341012432
29,24,14,Improv_Melody,268,5,42,110,341055856
29,24,14,Improv_Melody,269,1,38,64,341521636
29,24,14,Improv_Melody,270,5,42,110,341555556
29,24,14,Improv_Melody,271,1,38,64,341997024
29,24,14,Improv_Melody,272,5,42,110,342055404
29,24,14,Improv_Melody,273,1,48,67,342522980
29,24,14,Improv_Melody,274,2,43,80,342558812
29,24,14,Improv_Melody,275,2,67,80,342561108
29,24,14,Improv_Melody,276,5,42,127,342563644
29,24,14,Improv_Melody,277,5,42,110,343055724
29,24,14,Improv_Melody,278,1,48,68,343059064
29,24,14,Improv_Melody,279,1,48,71,343546928
29,24,14,Improv_Melody,280,5,42,110,343555340
29,24,14,Improv_Melody,281,1,38,88,343983124
29,24,14,Improv_Melody,282,5,42,110,344055488
29,24,14,Improv_Melody,283,1,38,71,344507276
29,24,14,Improv_Melody,284,5,42,127,344555864
29,24,14,Improv_Melody,285,1,38,70,344974668
29,24,14,Improv_Melody,286,5,42,110,345055564
29,24,14,Improv_Melody,287,1,48,70,345472424
29,24,14,Improv_Melody,288,5,42,110,345555336
29,24,14,Improv_Melody,289,1,48,64,346011988
29,24,14,Improv_Melody,290,5,42,110,346056304
29,24,14,Improv_Melody,291,1,38,79,346506900
29,24,14,Improv_Melody,292,2,45,80,346558288
29,24,14,Improv_Melody,293,2,69,80,346560436
29,24,14,Improv_Melody,294,5,42,127,346563052
29,24,14,Improv_Melody,295,1,38,76,347006392
29,24,14,Improv_Melody,296,5,42,110,347055424
29,24,14,Improv_Melody,297,1,38,74,347493800
29,24,14,Improv_Melody,298,5,42,110,347555272
29,24,14,Improv_Melody,299,1,48,70,348037132
29,24,14,Improv_Melody,300,5,42,110,348056016
29,24,14,Improv_Melody,301,1,48,60,348537848
29,24,14,Improv_Melody,302,5,42,127,348555496
29,24,14,Improv_Melody,303,1,38,74,349027224
29,24,14,Improv_Melody,304,5,42,110,349055492
29,24,14,Improv_Melody,305,1,38,53,349505460
29,24,14,Improv_Melody,306,5,42,110,349556216
29,24,14,Improv_Melody,307,1,38,76,350005760
29,24,14,Improv_Melody,308,5,42,110,350055912
29,24,14,Improv_Melody,309,1,48,54,350555660
29,24,14,Improv_Melody,310,2,41,80,350559844
29,24,14,Improv_Melody,311,2,65,80,350561768
29,24,14,Improv_Melody,312,5,42,127,350564228
29,24,14,Improv_Melody,313,5,42,110,351055188
29,24,14,Improv_Melody,314,1,48,74,351060476
29,24,14,Improv_Melody,315,5,42,110,351555860
29,24,14,Improv_Melody,316,1,38,83,351559496
29,24,14,Improv_Melody,317,1,38,57,352038384
29,24,14,Improv_Melody,318,5,42,110,352055848
29,24,14,Improv_Melody,319,1,38,74,352534940
29,24,14,Improv_Melody,320,5,42,127,352555324
29,24,14,Improv_Melody,321,1,48,75,353040324
29,24,14,Improv_Melody,322,5,42,110,353056072
29,24,14,Improv_Melody,323,1,48,61,353516840
29,24,14,Improv_Melody,324,5,42,110,353556068
29,24,14,Improv_Melody,325,1,38,68,354042120
29,24,14,Improv_Melody,326,5,42,110,354055620
29,24,14,Improv_Melody,327,1,38,77,354492152
29,24,14,Improv_Melody,328,2,48,80,354558056
29,24,14,Improv_Melody,329,2,72,80,354559972
29,24,14,Improv_Melody,330,5,42,127,354562664
29,24,14,Improv_Melody,331,1,48,71,354999644
29,24,14,Improv_Melody,332,5,42,110,355055932
29,24,14,Improv_Melody,333,1,38,70,355481540
29,24,14,Improv_Melody,0,9999,9999,9999,274552940
29,24,14,Improv_Melody,1,9999,9999,9999,275053664
29,24,14,Improv_Melody,2,9999,9999,9999,275553384
29,24,14,Improv_Melody,3,9999,9999,9999,276053108
29,24,14,Improv_Melody,4,9999,9999,9999,276552756
29,24,14,Improv_Melody,5,9999,9999,9999,277053524
29,24,14,Improv_Melody,6,9999,9999,9999,277553244
29,24,14,Improv_Melody,7,9999,9999,9999,278052964
29,24,14,Improv_Melody,8,9999,9999,9999,278553660
29,24,14,Improv_Melody,9,9999,9999,9999,279053396
29,24,14,Improv_Melody,10,9999,9999,9999,279553116
29,24,14,Improv_Melody,11,9999,9999,9999,280052836
29,24,14,Improv_Melody,12,9999,9999,9999,280553532
29,24,14,Improv_Melody,13,9999,9999,9999,281053252
29,24,14,Improv_Melody,14,9999,9999,9999,281552976
29,24,14,Improv_Melody,15,9999,9999,9999,282053744
29,24,14,Improv_Melody,16,9999,9999,9999,282553464
29,24,14,Improv_Melody,17,9999,9999,9999,283053128
29,24,14,Improv_Melody,18,9999,9999,9999,283552848
29,24,14,Improv_Melody,19,9999,9999,9999,284053616
29,24,14,Improv_Melody,20,9999,9999,9999,284553340
29,24,14,Improv_Melody,21,9999,9999,9999,285053036
29,24,14,Improv_Melody,22,9999,9999,9999,285553780
29,24,14,Improv_Melody,23,9999,9999,9999,286053428
29,24,14,Improv_Melody,24,9999,9999,9999,286553148
29,24,14,Improv_Melody,25,9999,9999,9999,287052884
29,24,14,Improv_Melody,26,9999,9999,9999,287553652
29,24,14,Improv_Melody,27,9999,9999,9999,288053300
29,24,14,Improv_Melody,28,9999,9999,9999,288553020
29,24,14,Improv_Melody,29,9999,9999,9999,289053788
29,24,14,Improv_Melody,30,9999,9999,9999,289553508
29,24,14,Improv_Melody,31,9999,9999,9999,290053232
29,24,14,Improv_Melody,32,9999,9999,9999,290552952
29,24,14,Improv_Melody,33,9999,9999,9999,291053660
29,24,14,Improv_Melody,34,9999,9999,9999,291553384
29,24,14,Improv_Melody,35,9999,9999,9999,292053104
29,24,14,Improv_Melody,36,9999,9999,9999,292552808
29,24,14,Improv_Melody,37,9999,9999,9999,293053552
29,24,14,Improv_Melody,38,9999,9999,9999,293553252
29,24,14,Improv_Melody,39,9999,9999,9999,294052948
29,24,14,Improv_Melody,40,9999,9999,9999,294553692
29,24,14,Improv_Melody,41,9999,9999,9999,295053408
29,24,14,Improv_Melody,42,9999,9999,9999,295553112
29,24,14,Improv_Melody,43,9999,9999,9999,296052788
29,24,14,Improv_Melody,44,9999,9999,9999,296553536
29,24,14,Improv_Melody,45,9999,9999,9999,297053304
29,24,14,Improv_Melody,46,9999,9999,9999,297553004
29,24,14,Improv_Melody,47,9999,9999,9999,298053756
29,24,14,Improv_Melody,48,9999,9999,9999,298553448
29,24,14,Improv_Melody,49,9999,9999,9999,299053168
29,24,14,Improv_Melody,50,9999,9999,9999,299552868
29,24,14,Improv_Melody,51,9999,9999,9999,300053608
29,24,14,Improv_Melody,52,9999,9999,9999,300553308
29,24,14,Improv_Melody,53,9999,9999,9999,301053008
29,24,14,Improv_Melody,54,9999,9999,9999,301553752
29,24,14,Improv_Melody,55,9999,9999,9999,302053436
29,24,14,Improv_Melody,56,9999,9999,9999,302553156
29,24,14,Improv_Melody,57,9999,9999,9999,303052868
29,24,14,Improv_Melody,58,9999,9999,9999,303553616
29,24,14,Improv_Melody,59,9999,9999,9999,304053316
29,24,14,Improv_Melody,60,9999,9999,9999,304553016
29,24,14,Improv_Melody,61,9999,9999,9999,305053760
29,24,14,Improv_Melody,62,9999,9999,9999,305553520
29,24,14,Improv_Melody,63,9999,9999,9999,306053220
29,24,14,Improv_Melody,64,9999,9999,9999,306552912
29,24,14,Improv_Melody,65,9999,9999,9999,307053668
29,24,14,Improv_Melody,66,9999,9999,9999,307553368
29,24,14,Improv_Melody,67,9999,9999,9999,308053068
29,24,14,Improv_Melody,68,9999,9999,9999,308552768
29,24,14,Improv_Melody,69,9999,9999,9999,309053512
29,24,14,Improv_Melody,70,9999,9999,9999,309553216
29,24,14,Improv_Melody,71,9999,9999,9999,310052916
29,24,14,Improv_Melody,72,9999,9999,9999,310553660
29,24,14,Improv_Melody,73,9999,9999,9999,311053376
29,24,14,Improv_Melody,74,9999,9999,9999,311553076
29,24,14,Improv_Melody,75,9999,9999,9999,312052852
29,24,14,Improv_Melody,76,9999,9999,9999,312553524
29,24,14,Improv_Melody,77,9999,9999,9999,313053296
29,24,14,Improv_Melody,78,9999,9999,9999,313552996
29,24,14,Improv_Melody,79,9999,9999,9999,314053744
29,24,14,Improv_Melody,80,9999,9999,9999,314553444
29,24,14,Improv_Melody,81,9999,9999,9999,315053156
29,24,14,Improv_Melody,82,9999,9999,9999,315552856
29,24,14,Improv_Melody,83,9999,9999,9999,316053604
29,24,14,Improv_Melody,84,9999,9999,9999,316553300
29,24,14,Improv_Melody,85,9999,9999,9999,317053048
29,24,14,Improv_Melody,86,9999,9999,9999,317553720
29,24,14,Improv_Melody,87,9999,9999,9999,318053468
29,24,14,Improv_Melody,88,9999,9999,9999,318553156
29,24,14,Improv_Melody,89,9999,9999,9999,319052872
29,24,14,Improv_Melody,90,9999,9999,9999,319553632
29,24,14,Improv_Melody,91,9999,9999,9999,320053316
29,24,14,Improv_Melody,92,9999,9999,9999,320553032
29,24,14,Improv_Melody,93,9999,9999,9999,321053780
29,24,14,Improv_Melody,94,9999,9999,9999,321553480
29,24,14,Improv_Melody,95,9999,9999,9999,322053188
29,24,14,Improv_Melody,96,9999,9999,9999,322552956
29,24,14,Improv_Melody,97,9999,9999,9999,323053640
29,24,14,Improv_Melody,98,9999,9999,9999,323553340
29,24,14,Improv_Melody,99,9999,9999,9999,324053044
29,24,14,Improv_Melody,100,9999,9999,9999,324552816
29,24,14,Improv_Melody,101,9999,9999,9999,325053544
29,24,14,Improv_Melody,102,9999,9999,9999,325553216
29,24,14,Improv_Melody,103,9999,9999,9999,326052916
29,24,14,Improv_Melody,104,9999,9999,9999,326553660
29,24,14,Improv_Melody,105,9999,9999,9999,327053376
29,24,14,Improv_Melody,106,9999,9999,9999,327553072
29,24,14,Improv_Melody,107,9999,9999,9999,328052824
29,24,14,Improv_Melody,108,9999,9999,9999,328553572
29,24,14,Improv_Melody,109,9999,9999,9999,329053272
29,24,14,Improv_Melody,110,9999,9999,9999,329552972
29,24,14,Improv_Melody,111,9999,9999,9999,330053720
29,24,14,Improv_Melody,112,9999,9999,9999,330553428
29,24,14,Improv_Melody,113,9999,9999,9999,331053132
29,24,14,Improv_Melody,114,9999,9999,9999,331552840
29,24,14,Improv_Melody,115,9999,9999,9999,332053580
29,24,14,Improv_Melody,116,9999,9999,9999,332553280
29,24,14,Improv_Melody,117,9999,9999,9999,333052980
29,24,14,Improv_Melody,118,9999,9999,9999,333553728
29,24,14,Improv_Melody,119,9999,9999,9999,334053428
29,24,14,Improv_Melody,120,9999,9999,9999,334553200
29,24,14,Improv_Melody,121,9999,9999,9999,335052916
29,24,14,Improv_Melody,122,9999,9999,9999,335553584
29,24,14,Improv_Melody,123,9999,9999,9999,336053360
29,24,14,Improv_Melody,124,9999,9999,9999,336553060
29,24,14,Improv_Melody,125,9999,9999,9999,337053808
29,24,14,Improv_Melody,126,9999,9999,9999,337553508
29,24,14,Improv_Melody,127,9999,9999,9999,338053208
29,24,14,Improv_Melody,128,9999,9999,9999,338552884
29,24,14,Improv_Melody,129,9999,9999,9999,339053628
29,24,14,Improv_Melody,130,9999,9999,9999,339553344
29,24,14,Improv_Melody,131,9999,9999,9999,340053044
29,24,14,Improv_Melody,132,9999,9999,9999,340552820
29,24,14,Improv_Melody,133,9999,9999,9999,341053492
29,24,14,Improv_Melody,134,9999,9999,9999,341553264
29,24,14,Improv_Melody,135,9999,9999,9999,342052964
29,24,14,Improv_Melody,136,9999,9999,9999,342553712
29,24,14,Improv_Melody,137,9999,9999,9999,343053432
29,24,14,Improv_Melody,138,9999,9999,9999,343553124
29,24,14,Improv_Melody,139,9999,9999,9999,344052824
29,24,14,Improv_Melody,140,9999,9999,9999,344553572
29,24,14,Improv_Melody,141,9999,9999,9999,345053272
29,24,14,Improv_Melody,142,9999,9999,9999,345552972
29,24,14,Improv_Melody,143,9999,9999,9999,346053716
29,24,14,Improv_Melody,144,9999,9999,9999,346553416
29,24,14,Improv_Melody,145,9999,9999,9999,347053132
29,24,14,Improv_Melody,146,9999,9999,9999,347552832
29,24,14,Improv_Melody,147,9999,9999,9999,348053576
29,24,14,Improv_Melody,148,9999,9999,9999,348553276
29,24,14,Improv_Melody,149,9999,9999,9999,349053052
29,24,14,Improv_Melody,150,9999,9999,9999,349553776
29,24,14,Improv_Melody,151,9999,9999,9999,350053472
29,24,14,Improv_Melody,152,9999,9999,9999,350553180
29,24,14,Improv_Melody,153,9999,9999,9999,351052896
29,24,14,Improv_Melody,154,9999,9999,9999,351553640
29,24,14,Improv_Melody,155,9999,9999,9999,352053336
29,24,14,Improv_Melody,156,9999,9999,9999,352553036
29,24,14,Improv_Melody,157,9999,9999,9999,353053780
29,24,14,Improv_Melody,158,9999,9999,9999,353553480
29,24,14,Improv_Melody,159,9999,9999,9999,354053180
29,24,14,Improv_Melody,160,9999,9999,9999,354552956
29,24,14,Improv_Melody,161,9999,9999,9999,355053640
