pid,taskRunCount,taskID,taskName,i,channel,pitch,velocity,microseconds
22,1,0,Ticks_Pract_8,0,5,42,127,89665044
22,1,0,Ticks_Pract_8,1,5,42,127,90464532
22,1,0,Ticks_Pract_8,2,5,42,127,91265388
22,1,0,Ticks_Pract_8,3,5,42,127,92065104
22,1,0,Ticks_Pract_8,4,1,38,56,92849220
22,1,0,Ticks_Pract_8,5,5,42,127,92865116
22,1,0,Ticks_Pract_8,6,1,38,59,93599844
22,1,0,Ticks_Pract_8,7,5,42,127,93664732
22,1,0,Ticks_Pract_8,8,1,38,56,94443328
22,1,0,Ticks_Pract_8,9,5,42,127,94465340
22,1,0,Ticks_Pract_8,10,1,38,59,95257468
22,1,0,Ticks_Pract_8,11,5,42,127,95265128
22,1,0,Ticks_Pract_8,12,5,42,127,96065052
22,1,0,Ticks_Pract_8,13,1,38,54,96097920
22,1,0,Ticks_Pract_8,14,5,42,127,96864516
22,1,0,Ticks_Pract_8,15,1,38,59,96872960
22,1,0,Ticks_Pract_8,16,5,42,127,97665500
22,1,0,Ticks_Pract_8,17,1,38,60,97670896
22,1,0,Ticks_Pract_8,18,1,38,53,98461340
22,1,0,Ticks_Pract_8,19,5,42,127,98465108
22,1,0,Ticks_Pract_8,20,1,38,53,99238900
22,1,0,Ticks_Pract_8,21,5,42,127,99264800
22,1,0,Ticks_Pract_8,22,1,38,57,100026844
22,1,0,Ticks_Pract_8,23,5,42,127,100064716
22,1,0,Ticks_Pract_8,24,1,38,52,100826508
22,1,0,Ticks_Pract_8,25,5,42,127,100865676
22,1,0,Ticks_Pract_8,26,1,38,52,101634892
22,1,0,Ticks_Pract_8,27,5,42,127,101665088
22,1,0,Ticks_Pract_8,28,1,38,47,102445064
22,1,0,Ticks_Pract_8,29,5,42,127,102464856
22,1,0,Ticks_Pract_8,30,5,42,127,103264556
22,1,0,Ticks_Pract_8,31,1,38,61,103265840
22,1,0,Ticks_Pract_8,32,5,42,127,104065616
22,1,0,Ticks_Pract_8,33,1,38,56,104100928
22,1,0,Ticks_Pract_8,34,5,42,127,104865232
22,1,0,Ticks_Pract_8,35,1,38,51,104879176
22,1,0,Ticks_Pract_8,36,1,38,49,105662684
22,1,0,Ticks_Pract_8,37,5,42,127,105665444
22,1,0,Ticks_Pract_8,38,5,42,127,106464612
22,1,0,Ticks_Pract_8,39,1,38,54,106469476
22,1,0,Ticks_Pract_8,40,5,42,127,107265296
22,1,0,Ticks_Pract_8,41,1,38,52,107290784
22,1,0,Ticks_Pract_8,42,5,42,127,108065236
22,1,0,Ticks_Pract_8,43,1,38,59,108080400
22,1,0,Ticks_Pract_8,44,5,42,127,108864776
22,1,0,Ticks_Pract_8,45,1,38,51,108875660
22,1,0,Ticks_Pract_8,46,5,42,127,109664544
22,1,0,Ticks_Pract_8,47,1,38,55,109678788
22,1,0,Ticks_Pract_8,48,1,38,59,110426804
22,1,0,Ticks_Pract_8,49,5,42,127,110465368
22,1,0,Ticks_Pract_8,50,5,42,127,111265444
22,1,0,Ticks_Pract_8,51,1,38,50,111290220
22,1,0,Ticks_Pract_8,52,5,42,127,112065136
22,1,0,Ticks_Pract_8,53,1,38,54,112109448
22,1,0,Ticks_Pract_8,54,5,42,127,112864596
22,1,0,Ticks_Pract_8,55,1,38,53,112897616
22,1,0,Ticks_Pract_8,0,9999,9999,9999,89662560
22,1,0,Ticks_Pract_8,1,9999,9999,9999,90462276
22,1,0,Ticks_Pract_8,2,9999,9999,9999,91263060
22,1,0,Ticks_Pract_8,3,9999,9999,9999,92062776
22,1,0,Ticks_Pract_8,4,9999,9999,9999,92862556
22,1,0,Ticks_Pract_8,5,9999,9999,9999,93662324
22,1,0,Ticks_Pract_8,6,9999,9999,9999,94463084
22,1,0,Ticks_Pract_8,7,9999,9999,9999,95262796
22,1,0,Ticks_Pract_8,8,9999,9999,9999,96062572
22,1,0,Ticks_Pract_8,9,9999,9999,9999,96862260
22,1,0,Ticks_Pract_8,10,9999,9999,9999,97663096
22,1,0,Ticks_Pract_8,11,9999,9999,9999,98462780
22,1,0,Ticks_Pract_8,12,9999,9999,9999,99262544
22,1,0,Ticks_Pract_8,13,9999,9999,9999,100062312
22,1,0,Ticks_Pract_8,14,9999,9999,9999,100863044
22,1,0,Ticks_Pract_8,15,9999,9999,9999,101662836
22,1,0,Ticks_Pract_8,16,9999,9999,9999,102462524
22,1,0,Ticks_Pract_8,17,9999,9999,9999,103262300
22,1,0,Ticks_Pract_8,18,9999,9999,9999,104063060
22,1,0,Ticks_Pract_8,19,9999,9999,9999,104862824
22,1,0,Ticks_Pract_8,20,9999,9999,9999,105662552
22,1,0,Ticks_Pract_8,21,9999,9999,9999,106462280
22,1,0,Ticks_Pract_8,22,9999,9999,9999,107263040
22,1,0,Ticks_Pract_8,23,9999,9999,9999,108062832
22,1,0,Ticks_Pract_8,24,9999,9999,9999,108862520
22,1,0,Ticks_Pract_8,25,9999,9999,9999,109662288
22,1,0,Ticks_Pract_8,26,9999,9999,9999,110463040
22,1,0,Ticks_Pract_8,27,9999,9999,9999,111262812
22,1,0,Ticks_Pract_8,28,9999,9999,9999,112062580
22,1,0,Ticks_Pract_8,29,9999,9999,9999,112862268
22,2,1,Ticks_Pract_5,0,5,42,127,143319304
22,2,1,Ticks_Pract_5,1,5,42,127,143819028
22,2,1,Ticks_Pract_5,2,5,42,127,144318904
22,2,1,Ticks_Pract_5,3,5,42,127,144818628
22,2,1,Ticks_Pract_5,4,1,48,46,145299236
22,2,1,Ticks_Pract_5,5,5,42,127,145319260
22,2,1,Ticks_Pract_5,6,1,48,51,145794660
22,2,1,Ticks_Pract_5,7,5,42,127,145818884
22,2,1,Ticks_Pract_5,8,1,48,54,146289476
22,2,1,Ticks_Pract_5,9,5,42,127,146318660
22,2,1,Ticks_Pract_5,10,1,48,54,146806344
22,2,1,Ticks_Pract_5,11,5,42,127,146818664
22,2,1,Ticks_Pract_5,12,5,42,127,147319060
22,2,1,Ticks_Pract_5,13,1,48,58,147326964
22,2,1,Ticks_Pract_5,14,1,48,58,147797048
22,2,1,Ticks_Pract_5,15,5,42,127,147818828
22,2,1,Ticks_Pract_5,16,1,48,56,148291332
22,2,1,Ticks_Pract_5,17,5,42,127,148318528
22,2,1,Ticks_Pract_5,18,1,48,48,148778516
22,2,1,Ticks_Pract_5,19,5,42,127,148819448
22,2,1,Ticks_Pract_5,20,1,48,58,149286456
22,2,1,Ticks_Pract_5,21,5,42,127,149318920
22,2,1,Ticks_Pract_5,22,1,48,51,149781424
22,2,1,Ticks_Pract_5,23,5,42,127,149818696
22,2,1,Ticks_Pract_5,24,1,48,52,150311268
22,2,1,Ticks_Pract_5,25,5,42,127,150318624
22,2,1,Ticks_Pract_5,26,1,48,55,150787216
22,2,1,Ticks_Pract_5,27,5,42,127,150819088
22,2,1,Ticks_Pract_5,28,1,48,51,151300420
22,2,1,Ticks_Pract_5,29,5,42,127,151318864
22,2,1,Ticks_Pract_5,30,1,48,45,151800960
22,2,1,Ticks_Pract_5,31,5,42,127,151818540
22,2,1,Ticks_Pract_5,32,1,48,51,152296460
22,2,1,Ticks_Pract_5,33,5,42,127,152319536
22,2,1,Ticks_Pract_5,34,1,48,50,152783264
22,2,1,Ticks_Pract_5,35,5,42,127,152819160
22,2,1,Ticks_Pract_5,36,5,42,127,153318716
22,2,1,Ticks_Pract_5,37,1,48,46,153323804
22,2,1,Ticks_Pract_5,38,1,48,44,153809372
22,2,1,Ticks_Pract_5,39,5,42,127,153818408
22,2,1,Ticks_Pract_5,40,1,48,45,154280836
22,2,1,Ticks_Pract_5,41,5,42,127,154319328
22,2,1,Ticks_Pract_5,42,1,48,44,154778248
22,2,1,Ticks_Pract_5,43,5,42,127,154819104
22,2,1,Ticks_Pract_5,44,1,48,46,155304880
22,2,1,Ticks_Pract_5,45,5,42,127,155318728
22,2,1,Ticks_Pract_5,46,1,48,45,155806412
22,2,1,Ticks_Pract_5,47,5,42,127,155819344
22,2,1,Ticks_Pract_5,48,1,48,46,156300700
22,2,1,Ticks_Pract_5,49,5,42,127,156319120
22,2,1,Ticks_Pract_5,50,1,48,46,156814968
22,2,1,Ticks_Pract_5,51,5,42,127,156818744
22,2,1,Ticks_Pract_5,52,1,48,44,157315048
22,2,1,Ticks_Pract_5,53,5,42,127,157318668
22,2,1,Ticks_Pract_5,54,1,48,45,157813300
22,2,1,Ticks_Pract_5,55,5,42,127,157819208
22,2,1,Ticks_Pract_5,56,1,48,45,158283620
22,2,1,Ticks_Pract_5,57,5,42,127,158319212
22,2,1,Ticks_Pract_5,58,1,48,43,158808044
22,2,1,Ticks_Pract_5,59,5,42,127,158818760
22,2,1,Ticks_Pract_5,60,1,48,42,159289740
22,2,1,Ticks_Pract_5,61,5,42,127,159319452
22,2,1,Ticks_Pract_5,62,1,48,43,159812556
22,2,1,Ticks_Pract_5,63,5,42,127,159819076
22,2,1,Ticks_Pract_5,64,1,48,46,160300964
22,2,1,Ticks_Pract_5,65,5,42,127,160319004
22,2,1,Ticks_Pract_5,66,1,48,46,160789680
22,2,1,Ticks_Pract_5,67,5,42,127,160818476
22,2,1,Ticks_Pract_5,68,1,48,41,161298280
22,2,1,Ticks_Pract_5,69,5,42,127,161319220
22,2,1,Ticks_Pract_5,70,1,48,36,161794824
22,2,1,Ticks_Pract_5,71,5,42,127,161819224
22,2,1,Ticks_Pract_5,72,1,48,44,162311316
22,2,1,Ticks_Pract_5,73,5,42,127,162318820
22,2,1,Ticks_Pract_5,74,1,48,43,162812080
22,2,1,Ticks_Pract_5,75,5,42,127,162818520
22,2,1,Ticks_Pract_5,76,1,48,43,163306824
22,2,1,Ticks_Pract_5,0,9999,9999,9999,143317052
22,2,1,Ticks_Pract_5,1,9999,9999,9999,143816776
22,2,1,Ticks_Pract_5,2,9999,9999,9999,144316500
22,2,1,Ticks_Pract_5,3,9999,9999,9999,144816224
22,2,1,Ticks_Pract_5,4,9999,9999,9999,145316932
22,2,1,Ticks_Pract_5,5,9999,9999,9999,145816632
22,2,1,Ticks_Pract_5,6,9999,9999,9999,146316408
22,2,1,Ticks_Pract_5,7,9999,9999,9999,146816108
22,2,1,Ticks_Pract_5,8,9999,9999,9999,147316808
22,2,1,Ticks_Pract_5,9,9999,9999,9999,147816500
22,2,1,Ticks_Pract_5,10,9999,9999,9999,148316276
22,2,1,Ticks_Pract_5,11,9999,9999,9999,148816968
22,2,1,Ticks_Pract_5,12,9999,9999,9999,149316668
22,2,1,Ticks_Pract_5,13,9999,9999,9999,149816444
22,2,1,Ticks_Pract_5,14,9999,9999,9999,150316144
22,2,1,Ticks_Pract_5,15,9999,9999,9999,150816836
22,2,1,Ticks_Pract_5,16,9999,9999,9999,151316536
22,2,1,Ticks_Pract_5,17,9999,9999,9999,151816288
22,2,1,Ticks_Pract_5,18,9999,9999,9999,152316980
22,2,1,Ticks_Pract_5,19,9999,9999,9999,152816756
22,2,1,Ticks_Pract_5,20,9999,9999,9999,153316464
22,2,1,Ticks_Pract_5,21,9999,9999,9999,153816156
22,2,1,Ticks_Pract_5,22,9999,9999,9999,154316924
22,2,1,Ticks_Pract_5,23,9999,9999,9999,154816624
22,2,1,Ticks_Pract_5,24,9999,9999,9999,155316324
22,2,1,Ticks_Pract_5,25,9999,9999,9999,155817016
22,2,1,Ticks_Pract_5,26,9999,9999,9999,156316792
22,2,1,Ticks_Pract_5,27,9999,9999,9999,156816492
22,2,1,Ticks_Pract_5,28,9999,9999,9999,157316192
22,2,1,Ticks_Pract_5,29,9999,9999,9999,157816956
22,2,1,Ticks_Pract_5,30,9999,9999,9999,158316656
22,2,1,Ticks_Pract_5,31,9999,9999,9999,158816356
22,2,1,Ticks_Pract_5,32,9999,9999,9999,159317048
22,2,1,Ticks_Pract_5,33,9999,9999,9999,159816824
22,2,1,Ticks_Pract_5,34,9999,9999,9999,160316524
22,2,1,Ticks_Pract_5,35,9999,9999,9999,160816224
22,2,1,Ticks_Pract_5,36,9999,9999,9999,161316968
22,2,1,Ticks_Pract_5,37,9999,9999,9999,161816668
22,2,1,Ticks_Pract_5,38,9999,9999,9999,162316340
22,2,1,Ticks_Pract_5,39,9999,9999,9999,162816116
22,3,4,T1_SMS_5,0,5,42,127,221162876
22,3,4,T1_SMS_5,1,5,42,127,221662676
22,3,4,T1_SMS_5,2,5,42,127,222163468
22,3,4,T1_SMS_5,3,5,42,127,222663120
22,3,4,T1_SMS_5,4,1,48,57,223139456
22,3,4,T1_SMS_5,5,5,42,127,223162760
22,3,4,T1_SMS_5,6,1,48,61,223620688
22,3,4,T1_SMS_5,7,5,42,127,223662460
22,3,4,T1_SMS_5,8,1,48,54,224110700
22,3,4,T1_SMS_5,9,5,42,127,224163380
22,3,4,T1_SMS_5,10,1,48,51,224628104
22,3,4,T1_SMS_5,11,5,42,127,224663004
22,3,4,T1_SMS_5,12,1,48,55,225116284
22,3,4,T1_SMS_5,13,5,42,127,225162628
22,3,4,T1_SMS_5,14,1,48,56,225650852
22,3,4,T1_SMS_5,15,5,42,127,225663396
22,3,4,T1_SMS_5,16,1,48,47,226145816
22,3,4,T1_SMS_5,17,5,42,127,226163096
22,3,4,T1_SMS_5,18,1,48,56,226618584
22,3,4,T1_SMS_5,19,5,42,127,226663024
22,3,4,T1_SMS_5,20,1,48,52,227149492
22,3,4,T1_SMS_5,21,5,42,127,227162572
22,3,4,T1_SMS_5,22,1,48,46,227636452
22,3,4,T1_SMS_5,23,5,42,127,227663112
22,3,4,T1_SMS_5,24,1,48,52,228153396
22,3,4,T1_SMS_5,25,5,42,127,228163116
22,3,4,T1_SMS_5,26,1,48,47,228653324
22,3,4,T1_SMS_5,27,5,42,127,228662588
22,3,4,T1_SMS_5,28,1,48,53,229138452
22,3,4,T1_SMS_5,29,5,42,127,229163280
22,3,4,T1_SMS_5,30,1,48,50,229626292
22,3,4,T1_SMS_5,31,5,42,127,229662980
22,3,4,T1_SMS_5,32,1,48,54,230138972
22,3,4,T1_SMS_5,33,5,42,127,230162984
22,3,4,T1_SMS_5,34,1,48,54,230635996
22,3,4,T1_SMS_5,35,5,42,127,230662584
22,3,4,T1_SMS_5,36,1,48,52,231148212
22,3,4,T1_SMS_5,37,5,42,127,231163200
22,3,4,T1_SMS_5,38,1,48,46,231604268
22,3,4,T1_SMS_5,39,5,42,127,231663052
22,3,4,T1_SMS_5,40,1,48,43,232147612
22,3,4,T1_SMS_5,41,5,42,127,232162904
22,3,4,T1_SMS_5,42,1,48,46,232650976
22,3,4,T1_SMS_5,43,5,42,127,232663896
22,3,4,T1_SMS_5,44,1,48,43,233138620
22,3,4,T1_SMS_5,45,5,42,127,233163068
22,3,4,T1_SMS_5,46,1,48,47,233652512
22,3,4,T1_SMS_5,47,5,42,127,233662768
22,3,4,T1_SMS_5,48,1,48,43,234148172
22,3,4,T1_SMS_5,49,5,42,127,234162468
22,3,4,T1_SMS_5,50,1,48,49,234633372
22,3,4,T1_SMS_5,51,5,42,127,234663388
22,3,4,T1_SMS_5,52,1,48,47,235158176
22,3,4,T1_SMS_5,53,5,42,127,235162936
22,3,4,T1_SMS_5,54,1,48,51,235657500
22,3,4,T1_SMS_5,55,5,42,127,235662868
22,3,4,T1_SMS_5,56,1,48,44,236156428
22,3,4,T1_SMS_5,57,5,42,127,236162340
22,3,4,T1_SMS_5,58,5,42,127,236663112
22,3,4,T1_SMS_5,59,1,48,50,236664100
22,3,4,T1_SMS_5,60,1,48,52,237160180
22,3,4,T1_SMS_5,61,5,42,127,237162884
22,3,4,T1_SMS_5,62,1,48,53,237635384
22,3,4,T1_SMS_5,63,5,42,127,237662812
22,3,4,T1_SMS_5,64,5,42,127,238163360
22,3,4,T1_SMS_5,65,1,48,48,238167916
22,3,4,T1_SMS_5,66,1,48,50,238653716
22,3,4,T1_SMS_5,67,5,42,127,238662980
22,3,4,T1_SMS_5,68,1,48,45,239162764
22,3,4,T1_SMS_5,69,5,42,127,239164276
22,3,4,T1_SMS_5,70,1,48,48,239631824
22,3,4,T1_SMS_5,71,5,42,127,239662532
22,3,4,T1_SMS_5,72,5,42,127,240163232
22,3,4,T1_SMS_5,73,1,48,49,240166256
22,3,4,T1_SMS_5,74,1,48,49,240645240
22,3,4,T1_SMS_5,75,5,42,127,240662848
22,3,4,T1_SMS_5,76,1,48,48,241128840
22,3,4,T1_SMS_5,77,5,42,127,241162600
22,3,4,T1_SMS_5,78,1,48,47,241641640
22,3,4,T1_SMS_5,79,5,42,127,241663416
22,3,4,T1_SMS_5,80,1,48,45,242154156
22,3,4,T1_SMS_5,81,5,42,127,242162964
22,3,4,T1_SMS_5,82,1,48,48,242637304
22,3,4,T1_SMS_5,83,5,42,127,242662668
22,3,4,T1_SMS_5,84,5,42,127,243162448
22,3,4,T1_SMS_5,85,1,48,49,243170896
22,3,4,T1_SMS_5,86,1,48,47,243653412
22,3,4,T1_SMS_5,87,5,42,127,243663364
22,3,4,T1_SMS_5,88,1,48,48,244131216
22,3,4,T1_SMS_5,89,5,42,127,244162912
22,3,4,T1_SMS_5,90,1,48,49,244643652
22,3,4,T1_SMS_5,91,5,42,127,244662536
22,3,4,T1_SMS_5,92,1,48,52,245148852
22,3,4,T1_SMS_5,93,5,42,127,245163380
22,3,4,T1_SMS_5,94,5,42,127,245663316
22,3,4,T1_SMS_5,95,1,48,42,245671684
22,3,4,T1_SMS_5,96,5,42,127,246162712
22,3,4,T1_SMS_5,97,1,48,39,246164072
22,3,4,T1_SMS_5,98,1,48,46,246624828
22,3,4,T1_SMS_5,99,5,42,127,246662404
22,3,4,T1_SMS_5,100,1,48,44,247156808
22,3,4,T1_SMS_5,101,5,42,127,247163248
22,3,4,T1_SMS_5,102,1,48,46,247646668
22,3,4,T1_SMS_5,103,5,42,127,247662872
22,3,4,T1_SMS_5,104,1,48,48,248141632
22,3,4,T1_SMS_5,105,5,42,127,248162576
22,3,4,T1_SMS_5,106,1,48,51,248628208
22,3,4,T1_SMS_5,107,5,42,127,248663568
22,3,4,T1_SMS_5,108,5,42,127,249163276
22,3,4,T1_SMS_5,109,1,48,42,249172412
22,3,4,T1_SMS_5,110,1,48,43,249656072
22,3,4,T1_SMS_5,111,5,42,127,249662972
22,3,4,T1_SMS_5,112,1,48,42,250134024
22,3,4,T1_SMS_5,113,5,42,127,250162444
22,3,4,T1_SMS_5,114,1,48,48,250636164
22,3,4,T1_SMS_5,115,5,42,127,250663288
22,3,4,T1_SMS_5,116,1,48,44,251144924
22,3,4,T1_SMS_5,117,5,42,127,251163140
22,3,4,T1_SMS_5,118,5,42,127,251662772
22,3,4,T1_SMS_5,119,1,48,44,251671144
22,3,4,T1_SMS_5,120,5,42,127,252162372
22,3,4,T1_SMS_5,121,1,48,40,252167844
22,3,4,T1_SMS_5,122,5,42,127,252663292
22,3,4,T1_SMS_5,123,1,48,41,252681812
22,3,4,T1_SMS_5,124,5,42,127,253163220
22,3,4,T1_SMS_5,125,1,48,38,253164128
22,3,4,T1_SMS_5,126,5,42,127,253662692
22,3,4,T1_SMS_5,127,1,48,32,253695024
22,3,4,T1_SMS_5,128,5,42,127,254163308
22,3,4,T1_SMS_5,129,1,48,35,254166412
22,3,4,T1_SMS_5,130,5,42,127,254662932
22,3,4,T1_SMS_5,131,1,48,39,254665808
22,3,4,T1_SMS_5,132,1,48,48,255124820
22,3,4,T1_SMS_5,133,5,42,127,255163156
22,3,4,T1_SMS_5,134,1,48,39,255641996
22,3,4,T1_SMS_5,135,5,42,127,255662628
22,3,4,T1_SMS_5,136,1,48,33,256132236
22,3,4,T1_SMS_5,137,5,42,127,256163168
22,3,4,T1_SMS_5,138,1,48,45,256661572
22,3,4,T1_SMS_5,139,5,42,127,256663248
22,3,4,T1_SMS_5,140,1,48,45,257137896
22,3,4,T1_SMS_5,141,5,42,127,257162492
22,3,4,T1_SMS_5,142,1,48,37,257654224
22,3,4,T1_SMS_5,143,5,42,127,257663260
22,3,4,T1_SMS_5,144,1,48,35,258144004
22,3,4,T1_SMS_5,145,5,42,127,258163036
22,3,4,T1_SMS_5,146,1,48,38,258644620
22,3,4,T1_SMS_5,147,5,42,127,258662812
22,3,4,T1_SMS_5,148,1,48,46,259148828
22,3,4,T1_SMS_5,149,5,42,127,259162740
22,3,4,T1_SMS_5,150,5,42,127,259663140
22,3,4,T1_SMS_5,151,1,48,42,259664964
22,3,4,T1_SMS_5,152,1,48,42,260160280
22,3,4,T1_SMS_5,153,5,42,127,260162984
22,3,4,T1_SMS_5,154,1,48,46,260656248
22,3,4,T1_SMS_5,155,5,42,127,260662756
22,3,4,T1_SMS_5,156,5,42,127,261163308
22,3,4,T1_SMS_5,157,1,48,39,261169388
22,3,4,T1_SMS_5,158,5,42,127,261663084
22,3,4,T1_SMS_5,159,1,48,38,261673588
22,3,4,T1_SMS_5,160,5,42,127,262162708
22,3,4,T1_SMS_5,161,1,48,39,262170848
22,3,4,T1_SMS_5,162,1,48,37,262657084
22,3,4,T1_SMS_5,163,5,42,127,262662756
22,3,4,T1_SMS_5,164,1,48,42,263144872
22,3,4,T1_SMS_5,165,5,42,127,263163144
22,3,4,T1_SMS_5,166,5,42,127,263662928
22,3,4,T1_SMS_5,167,1,48,43,263667792
22,3,4,T1_SMS_5,168,1,48,32,264158320
22,3,4,T1_SMS_5,169,5,42,127,264162620
22,3,4,T1_SMS_5,170,1,48,41,264646032
22,3,4,T1_SMS_5,171,5,42,127,264663616
22,3,4,T1_SMS_5,172,1,48,42,265143900
22,3,4,T1_SMS_5,173,5,42,127,265163164
22,3,4,T1_SMS_5,174,5,42,127,265662872
22,3,4,T1_SMS_5,175,1,48,35,265664388
22,3,4,T1_SMS_5,176,1,48,47,266142692
22,3,4,T1_SMS_5,177,5,42,127,266162640
22,3,4,T1_SMS_5,178,5,42,127,266663340
22,3,4,T1_SMS_5,179,1,48,42,266668660
22,3,4,T1_SMS_5,180,5,42,127,267162888
22,3,4,T1_SMS_5,181,1,48,39,267164940
22,3,4,T1_SMS_5,182,1,48,42,267644616
22,3,4,T1_SMS_5,183,5,42,127,267662732
22,3,4,T1_SMS_5,184,1,48,50,268135160
22,3,4,T1_SMS_5,185,5,42,127,268162436
22,3,4,T1_SMS_5,186,5,42,127,268663132
22,3,4,T1_SMS_5,187,1,48,40,268678296
22,3,4,T1_SMS_5,188,1,48,42,269153868
22,3,4,T1_SMS_5,189,5,42,127,269162828
22,3,4,T1_SMS_5,190,1,48,37,269655012
22,3,4,T1_SMS_5,191,5,42,127,269662528
22,3,4,T1_SMS_5,192,1,48,40,270151360
22,3,4,T1_SMS_5,193,5,42,127,270163372
22,3,4,T1_SMS_5,194,5,42,127,270663232
22,3,4,T1_SMS_5,195,1,48,44,270671908
22,3,4,T1_SMS_5,196,5,42,127,271162628
22,3,4,T1_SMS_5,197,1,48,38,271178700
22,3,4,T1_SMS_5,198,5,42,127,271662632
22,3,4,T1_SMS_5,199,1,48,45,271665808
22,3,4,T1_SMS_5,200,1,48,51,272160232
22,3,4,T1_SMS_5,201,5,42,127,272163240
22,3,4,T1_SMS_5,202,1,48,43,272658636
22,3,4,T1_SMS_5,203,5,42,127,272662788
22,3,4,T1_SMS_5,204,5,42,127,273162724
22,3,4,T1_SMS_5,205,1,48,41,273174220
22,3,4,T1_SMS_5,206,5,42,127,273663240
22,3,4,T1_SMS_5,207,1,48,44,273670312
22,3,4,T1_SMS_5,208,1,48,43,274143972
22,3,4,T1_SMS_5,209,5,42,127,274163312
22,3,4,T1_SMS_5,210,5,42,127,274662868
22,3,4,T1_SMS_5,211,1,48,48,274670548
22,3,4,T1_SMS_5,212,5,42,127,275162416
22,3,4,T1_SMS_5,213,1,48,44,275165364
22,3,4,T1_SMS_5,214,5,42,127,275663256
22,3,4,T1_SMS_5,215,1,48,39,275680936
22,3,4,T1_SMS_5,216,1,48,40,276149264
22,3,4,T1_SMS_5,217,5,42,127,276163024
22,3,4,T1_SMS_5,218,5,42,127,276662580
22,3,4,T1_SMS_5,219,1,48,41,276671252
22,3,4,T1_SMS_5,220,1,48,39,277163200
22,3,4,T1_SMS_5,221,5,42,127,277164940
22,3,4,T1_SMS_5,222,5,42,127,277662976
22,3,4,T1_SMS_5,223,1,48,44,277693928
22,3,4,T1_SMS_5,224,1,48,40,278131500
22,3,4,T1_SMS_5,225,5,42,127,278163044
22,3,4,T1_SMS_5,226,1,48,40,278652036
22,3,4,T1_SMS_5,227,5,42,127,278662444
22,3,4,T1_SMS_5,228,1,48,35,279163140
22,3,4,T1_SMS_5,229,5,42,127,279164884
22,3,4,T1_SMS_5,230,1,48,39,279629000
22,3,4,T1_SMS_5,231,5,42,127,279663060
22,3,4,T1_SMS_5,232,1,48,40,280138692
22,3,4,T1_SMS_5,233,5,42,127,280162912
22,3,4,T1_SMS_5,234,1,48,40,280644420
22,3,4,T1_SMS_5,235,5,42,127,280663376
22,3,4,T1_SMS_5,236,1,48,40,281156944
22,3,4,T1_SMS_5,237,5,42,127,281163228
22,3,4,T1_SMS_5,238,1,48,42,281658016
22,3,4,T1_SMS_5,239,5,42,127,281663080
22,3,4,T1_SMS_5,240,1,48,33,282157488
22,3,4,T1_SMS_5,241,5,42,127,282162552
22,3,4,T1_SMS_5,242,1,48,38,282627256
22,3,4,T1_SMS_5,243,5,42,127,282663172
22,3,4,T1_SMS_5,244,1,48,37,283126112
22,3,4,T1_SMS_5,245,5,42,127,283163024
22,3,4,T1_SMS_5,246,1,48,40,283644280
22,3,4,T1_SMS_5,247,5,42,127,283662724
22,3,4,T1_SMS_5,248,1,48,38,284151076
22,3,4,T1_SMS_5,249,5,42,127,284162400
22,3,4,T1_SMS_5,250,1,48,37,284659096
22,3,4,T1_SMS_5,251,5,42,127,284663244
22,3,4,T1_SMS_5,252,5,42,127,285163028
22,3,4,T1_SMS_5,253,1,48,32,285165516
22,3,4,T1_SMS_5,254,1,48,40,285660172
22,3,4,T1_SMS_5,255,5,42,127,285662720
22,3,4,T1_SMS_5,256,1,48,38,286112484
22,3,4,T1_SMS_5,0,9999,9999,9999,221160548
22,3,4,T1_SMS_5,1,9999,9999,9999,221660272
22,3,4,T1_SMS_5,2,9999,9999,9999,222160988
22,3,4,T1_SMS_5,3,9999,9999,9999,222660716
22,3,4,T1_SMS_5,4,9999,9999,9999,223160432
22,3,4,T1_SMS_5,5,9999,9999,9999,223660132
22,3,4,T1_SMS_5,6,9999,9999,9999,224160824
22,3,4,T1_SMS_5,7,9999,9999,9999,224660600
22,3,4,T1_SMS_5,8,9999,9999,9999,225160300
22,3,4,T1_SMS_5,9,9999,9999,9999,225660988
22,3,4,T1_SMS_5,10,9999,9999,9999,226160692
22,3,4,T1_SMS_5,11,9999,9999,9999,226660468
22,3,4,T1_SMS_5,12,9999,9999,9999,227160168
22,3,4,T1_SMS_5,13,9999,9999,9999,227660860
22,3,4,T1_SMS_5,14,9999,9999,9999,228160560
22,3,4,T1_SMS_5,15,9999,9999,9999,228660336
22,3,4,T1_SMS_5,16,9999,9999,9999,229161028
22,3,4,T1_SMS_5,17,9999,9999,9999,229660724
22,3,4,T1_SMS_5,18,9999,9999,9999,230160504
22,3,4,T1_SMS_5,19,9999,9999,9999,230660180
22,3,4,T1_SMS_5,20,9999,9999,9999,231160944
22,3,4,T1_SMS_5,21,9999,9999,9999,231660648
22,3,4,T1_SMS_5,22,9999,9999,9999,232160348
22,3,4,T1_SMS_5,23,9999,9999,9999,232661116
22,3,4,T1_SMS_5,24,9999,9999,9999,233160816
22,3,4,T1_SMS_5,25,9999,9999,9999,233660516
22,3,4,T1_SMS_5,26,9999,9999,9999,234160216
22,3,4,T1_SMS_5,27,9999,9999,9999,234660984
22,3,4,T1_SMS_5,28,9999,9999,9999,235160684
22,3,4,T1_SMS_5,29,9999,9999,9999,235660388
22,3,4,T1_SMS_5,30,9999,9999,9999,236160088
22,3,4,T1_SMS_5,31,9999,9999,9999,236660784
22,3,4,T1_SMS_5,32,9999,9999,9999,237160556
22,3,4,T1_SMS_5,33,9999,9999,9999,237660252
22,3,4,T1_SMS_5,34,9999,9999,9999,238160956
22,3,4,T1_SMS_5,35,9999,9999,9999,238660724
22,3,4,T1_SMS_5,36,9999,9999,9999,239160432
22,3,4,T1_SMS_5,37,9999,9999,9999,239660128
22,3,4,T1_SMS_5,38,9999,9999,9999,240160828
22,3,4,T1_SMS_5,39,9999,9999,9999,240660592
22,3,4,T1_SMS_5,40,9999,9999,9999,241160268
22,3,4,T1_SMS_5,41,9999,9999,9999,241661012
22,3,4,T1_SMS_5,42,9999,9999,9999,242160712
22,3,4,T1_SMS_5,43,9999,9999,9999,242660416
22,3,4,T1_SMS_5,44,9999,9999,9999,243160120
22,3,4,T1_SMS_5,45,9999,9999,9999,243660884
22,3,4,T1_SMS_5,46,9999,9999,9999,244160584
22,3,4,T1_SMS_5,47,9999,9999,9999,244660284
22,3,4,T1_SMS_5,48,9999,9999,9999,245161052
22,3,4,T1_SMS_5,49,9999,9999,9999,245660756
22,3,4,T1_SMS_5,50,9999,9999,9999,246160456
22,3,4,T1_SMS_5,51,9999,9999,9999,246660152
22,3,4,T1_SMS_5,52,9999,9999,9999,247160920
22,3,4,T1_SMS_5,53,9999,9999,9999,247660620
22,3,4,T1_SMS_5,54,9999,9999,9999,248160320
22,3,4,T1_SMS_5,55,9999,9999,9999,248661088
22,3,4,T1_SMS_5,56,9999,9999,9999,249160796
22,3,4,T1_SMS_5,57,9999,9999,9999,249660492
22,3,4,T1_SMS_5,58,9999,9999,9999,250160192
22,3,4,T1_SMS_5,59,9999,9999,9999,250660960
22,3,4,T1_SMS_5,60,9999,9999,9999,251160660
22,3,4,T1_SMS_5,61,9999,9999,9999,251660368
22,3,4,T1_SMS_5,62,9999,9999,9999,252160120
22,3,4,T1_SMS_5,63,9999,9999,9999,252660812
22,3,4,T1_SMS_5,64,9999,9999,9999,253160512
22,3,4,T1_SMS_5,65,9999,9999,9999,253660212
22,3,4,T1_SMS_5,66,9999,9999,9999,254160980
22,3,4,T1_SMS_5,67,9999,9999,9999,254660680
22,3,4,T1_SMS_5,68,9999,9999,9999,255160372
22,3,4,T1_SMS_5,69,9999,9999,9999,255660148
22,3,4,T1_SMS_5,70,9999,9999,9999,256160840
22,3,4,T1_SMS_5,71,9999,9999,9999,256660548
22,3,4,T1_SMS_5,72,9999,9999,9999,257160240
22,3,4,T1_SMS_5,73,9999,9999,9999,257661008
22,3,4,T1_SMS_5,74,9999,9999,9999,258160708
22,3,4,T1_SMS_5,75,9999,9999,9999,258660408
22,3,4,T1_SMS_5,76,9999,9999,9999,259160184
22,3,4,T1_SMS_5,77,9999,9999,9999,259660884
22,3,4,T1_SMS_5,78,9999,9999,9999,260160580
22,3,4,T1_SMS_5,79,9999,9999,9999,260660276
22,3,4,T1_SMS_5,80,9999,9999,9999,261161052
22,3,4,T1_SMS_5,81,9999,9999,9999,261660752
22,3,4,T1_SMS_5,82,9999,9999,9999,262160456
22,3,4,T1_SMS_5,83,9999,9999,9999,262660200
22,3,4,T1_SMS_5,84,9999,9999,9999,263160892
22,3,4,T1_SMS_5,85,9999,9999,9999,263660600
22,3,4,T1_SMS_5,86,9999,9999,9999,264160368
22,3,4,T1_SMS_5,87,9999,9999,9999,264661060
22,3,4,T1_SMS_5,88,9999,9999,9999,265160760
22,3,4,T1_SMS_5,89,9999,9999,9999,265660468
22,3,4,T1_SMS_5,90,9999,9999,9999,266160236
22,3,4,T1_SMS_5,91,9999,9999,9999,266660936
22,3,4,T1_SMS_5,92,9999,9999,9999,267160636
22,3,4,T1_SMS_5,93,9999,9999,9999,267660404
22,3,4,T1_SMS_5,94,9999,9999,9999,268160104
22,3,4,T1_SMS_5,95,9999,9999,9999,268660804
22,3,4,T1_SMS_5,96,9999,9999,9999,269160500
22,3,4,T1_SMS_5,97,9999,9999,9999,269660272
22,3,4,T1_SMS_5,98,9999,9999,9999,270160964
22,3,4,T1_SMS_5,99,9999,9999,9999,270660676
22,3,4,T1_SMS_5,100,9999,9999,9999,271160372
22,3,4,T1_SMS_5,101,9999,9999,9999,271660148
22,3,4,T1_SMS_5,102,9999,9999,9999,272160836
22,3,4,T1_SMS_5,103,9999,9999,9999,272660532
22,3,4,T1_SMS_5,104,9999,9999,9999,273160292
22,3,4,T1_SMS_5,105,9999,9999,9999,273660984
22,3,4,T1_SMS_5,106,9999,9999,9999,274160756
22,3,4,T1_SMS_5,107,9999,9999,9999,274660464
22,3,4,T1_SMS_5,108,9999,9999,9999,275160160
22,3,4,T1_SMS_5,109,9999,9999,9999,275660852
22,3,4,T1_SMS_5,110,9999,9999,9999,276160620
22,3,4,T1_SMS_5,111,9999,9999,9999,276660328
22,3,4,T1_SMS_5,112,9999,9999,9999,277161020
22,3,4,T1_SMS_5,113,9999,9999,9999,277660720
22,3,4,T1_SMS_5,114,9999,9999,9999,278160488
22,3,4,T1_SMS_5,115,9999,9999,9999,278660188
22,3,4,T1_SMS_5,116,9999,9999,9999,279160888
22,3,4,T1_SMS_5,117,9999,9999,9999,279660656
22,3,4,T1_SMS_5,118,9999,9999,9999,280160360
22,3,4,T1_SMS_5,119,9999,9999,9999,280661048
22,3,4,T1_SMS_5,120,9999,9999,9999,281160824
22,3,4,T1_SMS_5,121,9999,9999,9999,281660524
22,3,4,T1_SMS_5,122,9999,9999,9999,282160224
22,3,4,T1_SMS_5,123,9999,9999,9999,282660920
22,3,4,T1_SMS_5,124,9999,9999,9999,283160696
22,3,4,T1_SMS_5,125,9999,9999,9999,283660396
22,3,4,T1_SMS_5,126,9999,9999,9999,284160072
22,3,4,T1_SMS_5,127,9999,9999,9999,284660840
22,3,4,T1_SMS_5,128,9999,9999,9999,285160548
22,3,4,T1_SMS_5,129,9999,9999,9999,285660236
22,4,2,T1_SMS_8,0,5,42,127,308047180
22,4,2,T1_SMS_8,1,5,42,127,308846896
22,4,2,T1_SMS_8,2,5,42,127,309646760
22,4,2,T1_SMS_8,3,5,42,127,310446552
22,4,2,T1_SMS_8,4,1,48,25,311242872
22,4,2,T1_SMS_8,5,5,42,127,311247252
22,4,2,T1_SMS_8,6,1,38,14,311255312
22,4,2,T1_SMS_8,7,1,48,61,312035268
22,4,2,T1_SMS_8,8,5,42,127,312046904
22,4,2,T1_SMS_8,9,1,48,66,312845932
22,4,2,T1_SMS_8,10,5,42,127,312847688
22,4,2,T1_SMS_8,11,5,42,127,313646468
22,4,2,T1_SMS_8,12,1,48,60,313657664
22,4,2,T1_SMS_8,13,1,48,56,314444440
22,4,2,T1_SMS_8,14,5,42,127,314447296
22,4,2,T1_SMS_8,15,5,42,127,315246920
22,4,2,T1_SMS_8,16,1,48,61,315261468
22,4,2,T1_SMS_8,17,5,42,127,316046608
22,4,2,T1_SMS_8,18,1,48,59,316053832
22,4,2,T1_SMS_8,19,1,48,62,316838248
22,4,2,T1_SMS_8,20,5,42,127,316846520
22,4,2,T1_SMS_8,21,5,42,127,317647284
22,4,2,T1_SMS_8,22,1,48,58,317667788
22,4,2,T1_SMS_8,23,5,42,127,318446976
22,4,2,T1_SMS_8,24,1,48,57,318464724
22,4,2,T1_SMS_8,25,1,48,59,319240472
22,4,2,T1_SMS_8,26,5,42,127,319246608
22,4,2,T1_SMS_8,27,5,42,127,320046380
22,4,2,T1_SMS_8,28,1,48,59,320063752
22,4,2,T1_SMS_8,29,1,48,57,320839008
22,4,2,T1_SMS_8,30,5,42,127,320847356
22,4,2,T1_SMS_8,31,1,48,54,321643888
22,4,2,T1_SMS_8,32,5,42,127,321647048
22,4,2,T1_SMS_8,33,1,48,55,322426404
22,4,2,T1_SMS_8,34,5,42,127,322446664
22,4,2,T1_SMS_8,35,5,42,127,323246436
22,4,2,T1_SMS_8,36,1,48,57,323251828
22,4,2,T1_SMS_8,37,5,42,127,324047268
22,4,2,T1_SMS_8,38,1,48,55,324060596
22,4,2,T1_SMS_8,39,5,42,127,324847112
22,4,2,T1_SMS_8,40,1,48,58,324848548
22,4,2,T1_SMS_8,41,5,42,127,325646676
22,4,2,T1_SMS_8,42,1,48,57,325693040
22,4,2,T1_SMS_8,43,5,42,127,326446364
22,4,2,T1_SMS_8,44,1,48,57,326464188
22,4,2,T1_SMS_8,45,1,48,54,327243344
22,4,2,T1_SMS_8,46,5,42,127,327247116
22,4,2,T1_SMS_8,47,5,42,127,328047040
22,4,2,T1_SMS_8,48,1,48,56,328058080
22,4,2,T1_SMS_8,49,5,42,127,328846732
22,4,2,T1_SMS_8,50,1,48,56,328850900
22,4,2,T1_SMS_8,51,5,42,127,329646496
22,4,2,T1_SMS_8,52,1,48,57,329657916
22,4,2,T1_SMS_8,53,1,48,52,330438212
22,4,2,T1_SMS_8,54,5,42,127,330447168
22,4,2,T1_SMS_8,55,1,48,58,331235912
22,4,2,T1_SMS_8,56,5,42,127,331246936
22,4,2,T1_SMS_8,57,5,42,127,332046812
22,4,2,T1_SMS_8,58,1,48,61,332057392
22,4,2,T1_SMS_8,59,5,42,127,332846348
22,4,2,T1_SMS_8,60,1,48,58,332849300
22,4,2,T1_SMS_8,61,5,42,127,333647332
22,4,2,T1_SMS_8,62,1,48,61,333660968
22,4,2,T1_SMS_8,63,5,42,127,334446872
22,4,2,T1_SMS_8,64,1,48,56,334468368
22,4,2,T1_SMS_8,65,5,42,127,335246640
22,4,2,T1_SMS_8,66,1,48,58,335266148
22,4,2,T1_SMS_8,67,1,48,51,336038356
22,4,2,T1_SMS_8,68,5,42,127,336046700
22,4,2,T1_SMS_8,69,1,48,52,336836900
22,4,2,T1_SMS_8,70,5,42,127,336847384
22,4,2,T1_SMS_8,71,1,48,56,337644144
22,4,2,T1_SMS_8,72,5,42,127,337646848
22,4,2,T1_SMS_8,73,1,48,57,338435668
22,4,2,T1_SMS_8,74,5,42,127,338446792
22,4,2,T1_SMS_8,75,1,48,56,339242404
22,4,2,T1_SMS_8,76,5,42,127,339246708
22,4,2,T1_SMS_8,77,5,42,127,340047324
22,4,2,T1_SMS_8,78,1,48,61,340050576
22,4,2,T1_SMS_8,79,1,48,59,340829196
22,4,2,T1_SMS_8,80,5,42,127,340846852
22,4,2,T1_SMS_8,81,5,42,127,341646704
22,4,2,T1_SMS_8,82,1,48,57,341662168
22,4,2,T1_SMS_8,83,5,42,127,342446544
22,4,2,T1_SMS_8,84,1,48,53,342466820
22,4,2,T1_SMS_8,85,1,48,59,343226276
22,4,2,T1_SMS_8,86,5,42,127,343247144
22,4,2,T1_SMS_8,87,1,48,57,344002848
22,4,2,T1_SMS_8,88,5,42,127,344047136
22,4,2,T1_SMS_8,89,5,42,127,344846632
22,4,2,T1_SMS_8,90,1,48,53,344849196
22,4,2,T1_SMS_8,91,5,42,127,345646472
22,4,2,T1_SMS_8,92,1,48,51,345669648
22,4,2,T1_SMS_8,93,5,42,127,346447080
22,4,2,T1_SMS_8,94,1,48,54,346460788
22,4,2,T1_SMS_8,95,1,48,54,347236888
22,4,2,T1_SMS_8,96,5,42,127,347246992
22,4,2,T1_SMS_8,97,5,42,127,348046764
22,4,2,T1_SMS_8,98,1,48,51,348064136
22,4,2,T1_SMS_8,99,5,42,127,348846380
22,4,2,T1_SMS_8,100,1,48,56,348854208
22,4,2,T1_SMS_8,101,5,42,127,349647288
22,4,2,T1_SMS_8,102,1,48,40,349659852
22,4,2,T1_SMS_8,103,1,48,54,350417104
22,4,2,T1_SMS_8,104,5,42,127,350446892
22,4,2,T1_SMS_8,105,1,48,48,351217712
22,4,2,T1_SMS_8,106,5,42,127,351246988
22,4,2,T1_SMS_8,107,1,48,48,352046384
22,4,2,T1_SMS_8,108,5,42,127,352047972
22,4,2,T1_SMS_8,109,1,48,52,352835572
22,4,2,T1_SMS_8,110,5,42,127,352847132
22,4,2,T1_SMS_8,111,5,42,127,353647060
22,4,2,T1_SMS_8,112,1,48,47,353649708
22,4,2,T1_SMS_8,113,1,48,48,354443736
22,4,2,T1_SMS_8,114,5,42,127,354446896
22,4,2,T1_SMS_8,115,5,42,127,355246516
22,4,2,T1_SMS_8,116,1,48,53,355250000
22,4,2,T1_SMS_8,117,1,48,45,356036628
22,4,2,T1_SMS_8,118,5,42,127,356047268
22,4,2,T1_SMS_8,119,1,48,53,356836704
22,4,2,T1_SMS_8,120,5,42,127,356846880
22,4,2,T1_SMS_8,121,5,42,127,357646604
22,4,2,T1_SMS_8,122,1,48,47,357662296
22,4,2,T1_SMS_8,123,5,42,127,358446676
22,4,2,T1_SMS_8,124,1,48,50,358457180
22,4,2,T1_SMS_8,125,1,48,50,359227172
22,4,2,T1_SMS_8,126,5,42,127,359247272
22,4,2,T1_SMS_8,127,5,42,127,360047124
22,4,2,T1_SMS_8,128,1,48,49,360070372
22,4,2,T1_SMS_8,129,5,42,127,360846740
22,4,2,T1_SMS_8,130,1,48,55,360856548
22,4,2,T1_SMS_8,131,5,42,127,361646656
22,4,2,T1_SMS_8,132,1,48,46,361655096
22,4,2,T1_SMS_8,133,1,48,51,362417540
22,4,2,T1_SMS_8,134,5,42,127,362447556
22,4,2,T1_SMS_8,135,5,42,127,363246876
22,4,2,T1_SMS_8,136,1,48,57,363260508
22,4,2,T1_SMS_8,137,5,42,127,364046744
22,4,2,T1_SMS_8,138,1,48,56,364111044
22,4,2,T1_SMS_8,139,5,42,127,364846508
22,4,2,T1_SMS_8,140,1,48,46,364893488
22,4,2,T1_SMS_8,141,5,42,127,365647264
22,4,2,T1_SMS_8,142,1,48,48,365651132
22,4,2,T1_SMS_8,143,5,42,127,366446880
22,4,2,T1_SMS_8,144,1,48,53,366449980
22,4,2,T1_SMS_8,145,5,42,127,367246720
22,4,2,T1_SMS_8,146,1,48,59,367252572
22,4,2,T1_SMS_8,147,5,42,127,368046488
22,4,2,T1_SMS_8,148,1,48,56,368064084
22,4,2,T1_SMS_8,149,5,42,127,368847168
22,4,2,T1_SMS_8,150,1,48,54,368876440
22,4,2,T1_SMS_8,151,5,42,127,369647088
22,4,2,T1_SMS_8,152,1,48,46,369656444
22,4,2,T1_SMS_8,153,5,42,127,370446648
22,4,2,T1_SMS_8,154,1,48,54,370487372
22,4,2,T1_SMS_8,155,5,42,127,371246340
22,4,2,T1_SMS_8,156,1,48,56,371276224
22,4,2,T1_SMS_8,157,5,42,127,372047324
22,4,2,T1_SMS_8,158,1,48,54,372055156
22,4,2,T1_SMS_8,159,5,42,127,372846864
22,4,2,T1_SMS_8,160,1,48,52,372866752
22,4,2,T1_SMS_8,161,5,42,127,373646628
22,4,2,T1_SMS_8,162,1,48,52,373677044
22,4,2,T1_SMS_8,163,5,42,127,374446472
22,4,2,T1_SMS_8,164,1,48,50,374477120
22,4,2,T1_SMS_8,165,5,42,127,375247152
22,4,2,T1_SMS_8,166,1,48,52,375271696
22,4,2,T1_SMS_8,167,5,42,127,376046916
22,4,2,T1_SMS_8,168,1,48,57,376054444
22,4,2,T1_SMS_8,169,5,42,127,376846860
22,4,2,T1_SMS_8,170,1,48,53,376860568
22,4,2,T1_SMS_8,171,5,42,127,377646628
22,4,2,T1_SMS_8,172,1,48,54,377664304
22,4,2,T1_SMS_8,173,1,48,47,378441544
22,4,2,T1_SMS_8,174,5,42,127,378447224
22,4,2,T1_SMS_8,175,5,42,127,379246848
22,4,2,T1_SMS_8,176,1,48,52,379260024
22,4,2,T1_SMS_8,177,5,42,127,380046764
22,4,2,T1_SMS_8,178,1,48,47,380071156
22,4,2,T1_SMS_8,179,5,42,127,380846528
22,4,2,T1_SMS_8,180,1,48,54,380847592
22,4,2,T1_SMS_8,181,1,48,51,381647060
22,4,2,T1_SMS_8,182,5,42,127,381648576
22,4,2,T1_SMS_8,183,1,48,57,382429616
22,4,2,T1_SMS_8,184,5,42,127,382446968
22,4,2,T1_SMS_8,185,5,42,127,383246544
22,4,2,T1_SMS_8,186,1,48,54,383292908
22,4,2,T1_SMS_8,187,5,42,127,384046460
22,4,2,T1_SMS_8,188,1,48,55,384066496
22,4,2,T1_SMS_8,189,5,42,127,384847444
22,4,2,T1_SMS_8,190,1,48,54,384867872
22,4,2,T1_SMS_8,191,1,48,48,385615652
22,4,2,T1_SMS_8,192,5,42,127,385647052
22,4,2,T1_SMS_8,193,1,48,56,386430380
22,4,2,T1_SMS_8,194,5,42,127,386446816
22,4,2,T1_SMS_8,195,5,42,127,387246516
22,4,2,T1_SMS_8,196,1,48,56,387261752
22,4,2,T1_SMS_8,197,5,42,127,388047424
22,4,2,T1_SMS_8,198,1,48,52,388067548
22,4,2,T1_SMS_8,199,5,42,127,388846964
22,4,2,T1_SMS_8,200,1,48,54,388853044
22,4,2,T1_SMS_8,201,5,42,127,389646680
22,4,2,T1_SMS_8,202,1,48,54,389651916
22,4,2,T1_SMS_8,203,5,42,127,390446368
22,4,2,T1_SMS_8,204,1,48,56,390453204
22,4,2,T1_SMS_8,205,5,42,127,391247128
22,4,2,T1_SMS_8,206,1,48,42,391279988
22,4,2,T1_SMS_8,207,5,42,127,392047044
22,4,2,T1_SMS_8,208,1,48,59,392059916
22,4,2,T1_SMS_8,209,5,42,127,392846812
22,4,2,T1_SMS_8,210,1,48,49,392872804
22,4,2,T1_SMS_8,211,5,42,127,393646348
22,4,2,T1_SMS_8,212,1,48,51,393664864
22,4,2,T1_SMS_8,213,5,42,127,394447184
22,4,2,T1_SMS_8,214,1,48,54,394456164
22,4,2,T1_SMS_8,215,1,48,55,395238360
22,4,2,T1_SMS_8,216,5,42,127,395247092
22,4,2,T1_SMS_8,217,1,48,56,396046512
22,4,2,T1_SMS_8,218,5,42,127,396048104
22,4,2,T1_SMS_8,219,5,42,127,396846356
22,4,2,T1_SMS_8,220,1,48,54,396859144
22,4,2,T1_SMS_8,221,5,42,127,397647188
22,4,2,T1_SMS_8,222,1,48,54,397668072
22,4,2,T1_SMS_8,223,5,42,127,398447032
22,4,2,T1_SMS_8,224,1,48,56,398451736
22,4,2,T1_SMS_8,225,5,42,127,399246796
22,4,2,T1_SMS_8,226,1,48,56,399269284
22,4,2,T1_SMS_8,227,5,42,127,400046336
22,4,2,T1_SMS_8,228,1,48,53,400074692
22,4,2,T1_SMS_8,229,5,42,127,400847172
22,4,2,T1_SMS_8,230,1,48,58,400879880
22,4,2,T1_SMS_8,231,5,42,127,401646860
22,4,2,T1_SMS_8,232,1,48,60,401652864
22,4,2,T1_SMS_8,233,5,42,127,402446652
22,4,2,T1_SMS_8,234,1,48,57,402460744
22,4,2,T1_SMS_8,235,5,42,127,403246568
22,4,2,T1_SMS_8,236,1,48,56,403260584
22,4,2,T1_SMS_8,0,9999,9999,9999,308044844
22,4,2,T1_SMS_8,1,9999,9999,9999,308844636
22,4,2,T1_SMS_8,2,9999,9999,9999,309644352
22,4,2,T1_SMS_8,3,9999,9999,9999,310444144
22,4,2,T1_SMS_8,4,9999,9999,9999,311244916
22,4,2,T1_SMS_8,5,9999,9999,9999,312044648
22,4,2,T1_SMS_8,6,9999,9999,9999,312844372
22,4,2,T1_SMS_8,7,9999,9999,9999,313644136
22,4,2,T1_SMS_8,8,9999,9999,9999,314444888
22,4,2,T1_SMS_8,9,9999,9999,9999,315244660
22,4,2,T1_SMS_8,10,9999,9999,9999,316044352
22,4,2,T1_SMS_8,11,9999,9999,9999,316844112
22,4,2,T1_SMS_8,12,9999,9999,9999,317644876
22,4,2,T1_SMS_8,13,9999,9999,9999,318444640
22,4,2,T1_SMS_8,14,9999,9999,9999,319244348
22,4,2,T1_SMS_8,15,9999,9999,9999,320044120
22,4,2,T1_SMS_8,16,9999,9999,9999,320844872
22,4,2,T1_SMS_8,17,9999,9999,9999,321644636
22,4,2,T1_SMS_8,18,9999,9999,9999,322444404
22,4,2,T1_SMS_8,19,9999,9999,9999,323244104
22,4,2,T1_SMS_8,20,9999,9999,9999,324044860
22,4,2,T1_SMS_8,21,9999,9999,9999,324844624
22,4,2,T1_SMS_8,22,9999,9999,9999,325644340
22,4,2,T1_SMS_8,23,9999,9999,9999,326444108
22,4,2,T1_SMS_8,24,9999,9999,9999,327244856
22,4,2,T1_SMS_8,25,9999,9999,9999,328044632
22,4,2,T1_SMS_8,26,9999,9999,9999,328844396
22,4,2,T1_SMS_8,27,9999,9999,9999,329644088
22,4,2,T1_SMS_8,28,9999,9999,9999,330444912
22,4,2,T1_SMS_8,29,9999,9999,9999,331244604
22,4,2,T1_SMS_8,30,9999,9999,9999,332044400
22,4,2,T1_SMS_8,31,9999,9999,9999,332844092
22,4,2,T1_SMS_8,32,9999,9999,9999,333644848
22,4,2,T1_SMS_8,33,9999,9999,9999,334444616
22,4,2,T1_SMS_8,34,9999,9999,9999,335244384
22,4,2,T1_SMS_8,35,9999,9999,9999,336044140
22,4,2,T1_SMS_8,36,9999,9999,9999,336844900
22,4,2,T1_SMS_8,37,9999,9999,9999,337644588
22,4,2,T1_SMS_8,38,9999,9999,9999,338444380
22,4,2,T1_SMS_8,39,9999,9999,9999,339244148
22,4,2,T1_SMS_8,40,9999,9999,9999,340044912
22,4,2,T1_SMS_8,41,9999,9999,9999,340844596
22,4,2,T1_SMS_8,42,9999,9999,9999,341644368
22,4,2,T1_SMS_8,43,9999,9999,9999,342444136
22,4,2,T1_SMS_8,44,9999,9999,9999,343244884
22,4,2,T1_SMS_8,45,9999,9999,9999,344044648
22,4,2,T1_SMS_8,46,9999,9999,9999,344844372
22,4,2,T1_SMS_8,47,9999,9999,9999,345644140
22,4,2,T1_SMS_8,48,9999,9999,9999,346444896
22,4,2,T1_SMS_8,49,9999,9999,9999,347244656
22,4,2,T1_SMS_8,50,9999,9999,9999,348044356
22,4,2,T1_SMS_8,51,9999,9999,9999,348844120
22,4,2,T1_SMS_8,52,9999,9999,9999,349644880
22,4,2,T1_SMS_8,53,9999,9999,9999,350444636
22,4,2,T1_SMS_8,54,9999,9999,9999,351244352
22,4,2,T1_SMS_8,55,9999,9999,9999,352044124
22,4,2,T1_SMS_8,56,9999,9999,9999,352844876
22,4,2,T1_SMS_8,57,9999,9999,9999,353644648
22,4,2,T1_SMS_8,58,9999,9999,9999,354444332
22,4,2,T1_SMS_8,59,9999,9999,9999,355244108
22,4,2,T1_SMS_8,60,9999,9999,9999,356044856
22,4,2,T1_SMS_8,61,9999,9999,9999,356844624
22,4,2,T1_SMS_8,62,9999,9999,9999,357644344
22,4,2,T1_SMS_8,63,9999,9999,9999,358444112
22,4,2,T1_SMS_8,64,9999,9999,9999,359244864
22,4,2,T1_SMS_8,65,9999,9999,9999,360044636
22,4,2,T1_SMS_8,66,9999,9999,9999,360844404
22,4,2,T1_SMS_8,67,9999,9999,9999,361644096
22,4,2,T1_SMS_8,68,9999,9999,9999,362444920
22,4,2,T1_SMS_8,69,9999,9999,9999,363244620
22,4,2,T1_SMS_8,70,9999,9999,9999,364044408
22,4,2,T1_SMS_8,71,9999,9999,9999,364844100
22,4,2,T1_SMS_8,72,9999,9999,9999,365644856
22,4,2,T1_SMS_8,73,9999,9999,9999,366444620
22,4,2,T1_SMS_8,74,9999,9999,9999,367244388
22,4,2,T1_SMS_8,75,9999,9999,9999,368044076
22,4,2,T1_SMS_8,76,9999,9999,9999,368844912
22,4,2,T1_SMS_8,77,9999,9999,9999,369644600
22,4,2,T1_SMS_8,78,9999,9999,9999,370444392
22,4,2,T1_SMS_8,79,9999,9999,9999,371244080
22,4,2,T1_SMS_8,80,9999,9999,9999,372044912
22,4,2,T1_SMS_8,81,9999,9999,9999,372844604
22,4,2,T1_SMS_8,82,9999,9999,9999,373644368
22,4,2,T1_SMS_8,83,9999,9999,9999,374444136
22,4,2,T1_SMS_8,84,9999,9999,9999,375244892
22,4,2,T1_SMS_8,85,9999,9999,9999,376044660
22,4,2,T1_SMS_8,86,9999,9999,9999,376844376
22,4,2,T1_SMS_8,87,9999,9999,9999,377644140
22,4,2,T1_SMS_8,88,9999,9999,9999,378444892
22,4,2,T1_SMS_8,89,9999,9999,9999,379244588
22,4,2,T1_SMS_8,90,9999,9999,9999,380044356
22,4,2,T1_SMS_8,91,9999,9999,9999,380844120
22,4,2,T1_SMS_8,92,9999,9999,9999,381644876
22,4,2,T1_SMS_8,93,9999,9999,9999,382444636
22,4,2,T1_SMS_8,94,9999,9999,9999,383244360
22,4,2,T1_SMS_8,95,9999,9999,9999,384044124
22,4,2,T1_SMS_8,96,9999,9999,9999,384844884
22,4,2,T1_SMS_8,97,9999,9999,9999,385644640
22,4,2,T1_SMS_8,98,9999,9999,9999,386444408
22,4,2,T1_SMS_8,99,9999,9999,9999,387244108
22,4,2,T1_SMS_8,100,9999,9999,9999,388044864
22,4,2,T1_SMS_8,101,9999,9999,9999,388844632
22,4,2,T1_SMS_8,102,9999,9999,9999,389644344
22,4,2,T1_SMS_8,103,9999,9999,9999,390444112
22,4,2,T1_SMS_8,104,9999,9999,9999,391244868
22,4,2,T1_SMS_8,105,9999,9999,9999,392044636
22,4,2,T1_SMS_8,106,9999,9999,9999,392844400
22,4,2,T1_SMS_8,107,9999,9999,9999,393644092
22,4,2,T1_SMS_8,108,9999,9999,9999,394444848
22,4,2,T1_SMS_8,109,9999,9999,9999,395244608
22,4,2,T1_SMS_8,110,9999,9999,9999,396044408
22,4,2,T1_SMS_8,111,9999,9999,9999,396844096
22,4,2,T1_SMS_8,112,9999,9999,9999,397644856
22,4,2,T1_SMS_8,113,9999,9999,9999,398444620
22,4,2,T1_SMS_8,114,9999,9999,9999,399244388
22,4,2,T1_SMS_8,115,9999,9999,9999,400044080
22,4,2,T1_SMS_8,116,9999,9999,9999,400844912
22,4,2,T1_SMS_8,117,9999,9999,9999,401644600
22,4,2,T1_SMS_8,118,9999,9999,9999,402444392
22,4,2,T1_SMS_8,119,9999,9999,9999,403244084
22,5,22,Ticks_Phase_8,0,5,42,127,420135220
22,5,22,Ticks_Phase_8,1,5,42,127,420935048
22,5,22,Ticks_Phase_8,2,5,42,127,421734720
22,5,22,Ticks_Phase_8,3,5,42,127,422534772
22,5,22,Ticks_Phase_8,4,5,42,127,423335288
22,5,22,Ticks_Phase_8,5,1,48,43,423345728
22,5,22,Ticks_Phase_8,6,1,48,57,424119696
22,5,22,Ticks_Phase_8,7,5,42,127,424134928
22,5,22,Ticks_Phase_8,8,1,48,49,424917664
22,5,22,Ticks_Phase_8,9,5,42,127,424934804
22,5,22,Ticks_Phase_8,10,1,48,59,425710820
22,5,22,Ticks_Phase_8,11,5,42,127,425734708
22,5,22,Ticks_Phase_8,12,1,48,58,426512400
22,5,22,Ticks_Phase_8,13,5,42,127,426535196
22,5,22,Ticks_Phase_8,14,1,48,58,427317628
22,5,22,Ticks_Phase_8,15,5,42,127,427334996
22,5,22,Ticks_Phase_8,16,1,48,54,428115672
22,5,22,Ticks_Phase_8,17,5,42,127,428134720
22,5,22,Ticks_Phase_8,18,1,48,50,428933536
22,5,22,Ticks_Phase_8,19,5,42,127,428935132
22,5,22,Ticks_Phase_8,20,1,48,49,429723528
22,5,22,Ticks_Phase_8,21,5,42,127,429735392
22,5,22,Ticks_Phase_8,22,1,48,55,430519356
22,5,22,Ticks_Phase_8,23,5,42,127,430535116
22,5,22,Ticks_Phase_8,24,5,42,127,431334852
22,5,22,Ticks_Phase_8,25,1,48,55,431353392
22,5,22,Ticks_Phase_8,26,1,48,56,432130360
22,5,22,Ticks_Phase_8,27,5,42,127,432134592
22,5,22,Ticks_Phase_8,28,5,42,127,432935316
22,5,22,Ticks_Phase_8,29,1,48,54,432946296
22,5,22,Ticks_Phase_8,30,1,48,53,433711852
22,5,22,Ticks_Phase_8,31,5,42,127,433735260
22,5,22,Ticks_Phase_8,32,5,42,127,434534688
22,5,22,Ticks_Phase_8,33,1,48,56,434571632
22,5,22,Ticks_Phase_8,34,5,42,127,435334492
22,5,22,Ticks_Phase_8,35,1,48,53,435359364
22,5,22,Ticks_Phase_8,36,1,48,50,436113936
22,5,22,Ticks_Phase_8,37,5,42,127,436135196
22,5,22,Ticks_Phase_8,38,1,48,57,436931836
22,5,22,Ticks_Phase_8,39,5,42,127,436935076
22,5,22,Ticks_Phase_8,40,5,42,127,437735036
22,5,22,Ticks_Phase_8,41,1,48,56,437765520
22,5,22,Ticks_Phase_8,42,5,42,127,438534408
22,5,22,Ticks_Phase_8,43,1,48,50,438536228
22,5,22,Ticks_Phase_8,44,1,48,51,439334740
22,5,22,Ticks_Phase_8,45,5,42,127,439336336
22,5,22,Ticks_Phase_8,46,1,48,52,440135228
22,5,22,Ticks_Phase_8,47,5,42,127,440136828
22,5,22,Ticks_Phase_8,48,5,42,127,440935028
22,5,22,Ticks_Phase_8,49,1,48,54,440961964
22,5,22,Ticks_Phase_8,50,5,42,127,441734452
22,5,22,Ticks_Phase_8,51,1,48,58,441738012
22,5,22,Ticks_Phase_8,52,5,42,127,442535244
22,5,22,Ticks_Phase_8,53,1,48,53,442539264
22,5,22,Ticks_Phase_8,54,1,48,64,443329888
22,5,22,Ticks_Phase_8,55,5,42,127,443335036
22,5,22,Ticks_Phase_8,56,1,48,58,444098520
22,5,22,Ticks_Phase_8,57,5,42,127,444115280
22,5,22,Ticks_Phase_8,58,5,42,127,444915012
22,5,22,Ticks_Phase_8,59,1,48,60,444944584
22,5,22,Ticks_Phase_8,60,1,48,54,445691396
22,5,22,Ticks_Phase_8,61,5,42,127,445714832
22,5,22,Ticks_Phase_8,62,1,48,54,446496120
22,5,22,Ticks_Phase_8,63,5,42,127,446514708
22,5,22,Ticks_Phase_8,64,5,42,127,447315280
22,5,22,Ticks_Phase_8,65,1,48,56,447320596
22,5,22,Ticks_Phase_8,66,1,48,53,448109084
22,5,22,Ticks_Phase_8,67,5,42,127,448114996
22,5,22,Ticks_Phase_8,68,5,42,127,448914808
22,5,22,Ticks_Phase_8,69,1,48,54,448928528
22,5,22,Ticks_Phase_8,70,1,48,51,449702116
22,5,22,Ticks_Phase_8,71,5,42,127,449714752
22,5,22,Ticks_Phase_8,72,1,48,53,450507196
22,5,22,Ticks_Phase_8,73,5,42,127,450515620
22,5,22,Ticks_Phase_8,74,1,48,49,451312032
22,5,22,Ticks_Phase_8,75,5,42,127,451315120
22,5,22,Ticks_Phase_8,76,1,48,47,452108956
22,5,22,Ticks_Phase_8,77,5,42,127,452114792
22,5,22,Ticks_Phase_8,78,5,42,127,452914600
22,5,22,Ticks_Phase_8,79,1,48,47,452936268
22,5,22,Ticks_Phase_8,80,5,42,127,453715620
22,5,22,Ticks_Phase_8,81,1,48,60,453718120
22,5,22,Ticks_Phase_8,82,5,42,127,454514964
22,5,22,Ticks_Phase_8,83,1,48,55,454524868
22,5,22,Ticks_Phase_8,84,5,42,127,455314844
22,5,22,Ticks_Phase_8,85,1,48,54,455336360
22,5,22,Ticks_Phase_8,86,1,48,56,456093984
22,5,22,Ticks_Phase_8,87,5,42,127,456114560
22,5,22,Ticks_Phase_8,88,5,42,127,456915360
22,5,22,Ticks_Phase_8,89,1,48,58,456929316
22,5,22,Ticks_Phase_8,90,5,42,127,457715312
22,5,22,Ticks_Phase_8,91,1,48,55,457720864
22,5,22,Ticks_Phase_8,92,1,48,54,458516560
22,5,22,Ticks_Phase_8,93,5,42,127,458535148
22,5,22,Ticks_Phase_8,94,5,42,127,459335264
22,5,22,Ticks_Phase_8,95,1,48,52,459379544
22,5,22,Ticks_Phase_8,96,5,42,127,460134912
22,5,22,Ticks_Phase_8,97,1,48,45,460156580
22,5,22,Ticks_Phase_8,98,5,42,127,460934408
22,5,22,Ticks_Phase_8,99,1,48,40,460946532
22,5,22,Ticks_Phase_8,100,5,42,127,461735280
22,5,22,Ticks_Phase_8,101,1,48,30,461759464
22,5,22,Ticks_Phase_8,102,1,48,55,462525116
22,5,22,Ticks_Phase_8,103,5,42,127,462535072
22,5,22,Ticks_Phase_8,104,5,42,127,463334880
22,5,22,Ticks_Phase_8,105,1,48,43,463338676
22,5,22,Ticks_Phase_8,106,5,42,127,464134404
22,5,22,Ticks_Phase_8,107,1,48,49,464140176
22,5,22,Ticks_Phase_8,108,5,42,127,464935272
22,5,22,Ticks_Phase_8,109,1,48,48,464951284
22,5,22,Ticks_Phase_8,110,5,42,127,465735000
22,5,22,Ticks_Phase_8,111,1,48,51,465751392
22,5,22,Ticks_Phase_8,112,5,42,127,466534952
22,5,22,Ticks_Phase_8,113,1,48,49,466551572
22,5,22,Ticks_Phase_8,114,5,42,127,467334676
22,5,22,Ticks_Phase_8,115,1,48,50,467347792
22,5,22,Ticks_Phase_8,116,5,42,127,468135240
22,5,22,Ticks_Phase_8,117,1,48,54,468162176
22,5,22,Ticks_Phase_8,118,5,42,127,468934968
22,5,22,Ticks_Phase_8,119,1,48,49,468953128
22,5,22,Ticks_Phase_8,120,5,42,127,469734768
22,5,22,Ticks_Phase_8,121,1,48,48,469768532
22,5,22,Ticks_Phase_8,122,1,48,53,470506652
22,5,22,Ticks_Phase_8,123,5,42,127,470534584
22,5,22,Ticks_Phase_8,124,1,48,42,471365304
22,5,22,Ticks_Phase_8,125,5,42,127,471375108
22,5,22,Ticks_Phase_8,126,5,42,127,472174996
22,5,22,Ticks_Phase_8,127,1,48,46,472186124
22,5,22,Ticks_Phase_8,128,1,48,52,472974872
22,5,22,Ticks_Phase_8,129,5,42,127,472976468
22,5,22,Ticks_Phase_8,130,1,48,47,473743780
22,5,22,Ticks_Phase_8,131,5,42,127,473774668
22,5,22,Ticks_Phase_8,132,5,42,127,474575388
22,5,22,Ticks_Phase_8,133,1,48,52,474630164
22,5,22,Ticks_Phase_8,134,5,42,127,475374888
22,5,22,Ticks_Phase_8,135,1,48,45,475390692
22,5,22,Ticks_Phase_8,136,1,48,46,476173408
22,5,22,Ticks_Phase_8,137,5,42,127,476175396
22,5,22,Ticks_Phase_8,138,1,48,49,476932240
22,5,22,Ticks_Phase_8,139,5,42,127,476974508
22,5,22,Ticks_Phase_8,140,1,48,44,477751436
22,5,22,Ticks_Phase_8,141,5,42,127,477775528
22,5,22,Ticks_Phase_8,142,1,48,45,478551160
22,5,22,Ticks_Phase_8,143,5,42,127,478574800
22,5,22,Ticks_Phase_8,144,1,48,45,479344624
22,5,22,Ticks_Phase_8,145,5,42,127,479374676
22,5,22,Ticks_Phase_8,146,1,48,46,480160160
22,5,22,Ticks_Phase_8,147,5,42,127,480174476
22,5,22,Ticks_Phase_8,148,5,42,127,480975276
22,5,22,Ticks_Phase_8,149,1,48,45,480990224
22,5,22,Ticks_Phase_8,150,1,48,47,481751128
22,5,22,Ticks_Phase_8,151,5,42,127,481775144
22,5,22,Ticks_Phase_8,152,5,42,127,482574676
22,5,22,Ticks_Phase_8,153,1,48,40,482612308
22,5,22,Ticks_Phase_8,154,1,48,42,483354120
22,5,22,Ticks_Phase_8,155,5,42,127,483374544
22,5,22,Ticks_Phase_8,156,5,42,127,484175192
22,5,22,Ticks_Phase_8,157,1,48,45,484187996
22,5,22,Ticks_Phase_8,158,5,42,127,484935112
22,5,22,Ticks_Phase_8,159,1,48,43,484980308
22,5,22,Ticks_Phase_8,160,1,48,48,485734992
22,5,22,Ticks_Phase_8,161,5,42,127,485736592
22,5,22,Ticks_Phase_8,162,1,48,52,486505956
22,5,22,Ticks_Phase_8,163,5,42,127,486534404
22,5,22,Ticks_Phase_8,164,5,42,127,487335204
22,5,22,Ticks_Phase_8,165,1,48,39,487344576
22,5,22,Ticks_Phase_8,166,5,42,127,488135080
22,5,22,Ticks_Phase_8,167,1,48,44,488139404
22,5,22,Ticks_Phase_8,168,5,42,127,488934880
22,5,22,Ticks_Phase_8,169,1,48,49,488964904
22,5,22,Ticks_Phase_8,170,1,48,52,489713488
22,5,22,Ticks_Phase_8,171,5,42,127,489735004
22,5,22,Ticks_Phase_8,172,5,42,127,490535272
22,5,22,Ticks_Phase_8,173,1,48,51,490543124
22,5,22,Ticks_Phase_8,174,1,48,44,491317772
22,5,22,Ticks_Phase_8,175,5,42,127,491334988
22,5,22,Ticks_Phase_8,176,5,42,127,492134796
22,5,22,Ticks_Phase_8,177,1,48,46,492155776
22,5,22,Ticks_Phase_8,178,5,42,127,492934600
22,5,22,Ticks_Phase_8,179,1,48,45,492937248
22,5,22,Ticks_Phase_8,180,5,42,127,493735240
22,5,22,Ticks_Phase_8,181,1,48,46,493747440
22,5,22,Ticks_Phase_8,182,5,42,127,494534964
22,5,22,Ticks_Phase_8,183,1,48,48,494546548
22,5,22,Ticks_Phase_8,184,5,42,127,495334764
22,5,22,Ticks_Phase_8,185,1,48,46,495357152
22,5,22,Ticks_Phase_8,186,1,48,50,496124400
22,5,22,Ticks_Phase_8,187,5,42,127,496134432
22,5,22,Ticks_Phase_8,188,5,42,127,496935460
22,5,22,Ticks_Phase_8,189,1,48,48,496953012
22,5,22,Ticks_Phase_8,190,5,42,127,497655400
22,5,22,Ticks_Phase_8,191,1,48,47,497766564
22,5,22,Ticks_Phase_8,192,5,42,127,498454848
22,5,22,Ticks_Phase_8,193,1,48,41,498704520
22,5,22,Ticks_Phase_8,194,1,48,51,499245600
22,5,22,Ticks_Phase_8,195,5,42,127,499254564
22,5,22,Ticks_Phase_8,196,1,48,46,499924816
22,5,22,Ticks_Phase_8,197,5,42,127,500055340
22,5,22,Ticks_Phase_8,198,1,48,46,500811960
22,5,22,Ticks_Phase_8,199,5,42,127,500855384
22,5,22,Ticks_Phase_8,200,1,48,48,501627732
22,5,22,Ticks_Phase_8,201,5,42,127,501654804
22,5,22,Ticks_Phase_8,202,1,48,48,502445796
22,5,22,Ticks_Phase_8,203,5,42,127,502454608
22,5,22,Ticks_Phase_8,204,5,42,127,503255408
22,5,22,Ticks_Phase_8,205,1,48,48,503291536
22,5,22,Ticks_Phase_8,206,1,48,48,504048760
22,5,22,Ticks_Phase_8,207,5,42,127,504055276
22,5,22,Ticks_Phase_8,208,1,48,48,504829380
22,5,22,Ticks_Phase_8,209,5,42,127,504855000
22,5,22,Ticks_Phase_8,210,1,48,51,505654884
22,5,22,Ticks_Phase_8,211,5,42,127,505656484
22,5,22,Ticks_Phase_8,212,5,42,127,506455452
22,5,22,Ticks_Phase_8,213,1,48,47,506459700
22,5,22,Ticks_Phase_8,214,1,48,47,507244448
22,5,22,Ticks_Phase_8,215,5,42,127,507255244
22,5,22,Ticks_Phase_8,216,1,48,48,508040804
22,5,22,Ticks_Phase_8,217,5,42,127,508055120
22,5,22,Ticks_Phase_8,218,5,42,127,508854704
22,5,22,Ticks_Phase_8,219,1,48,44,508856144
22,5,22,Ticks_Phase_8,220,1,48,48,509637816
22,5,22,Ticks_Phase_8,221,5,42,127,509655488
22,5,22,Ticks_Phase_8,222,1,48,47,510424248
22,5,22,Ticks_Phase_8,223,5,42,127,510455060
22,5,22,Ticks_Phase_8,224,1,48,46,511217760
22,5,22,Ticks_Phase_8,225,5,42,127,511334912
22,5,22,Ticks_Phase_8,226,5,42,127,512134888
22,5,22,Ticks_Phase_8,227,1,48,48,512203320
22,5,22,Ticks_Phase_8,228,5,42,127,512935300
22,5,22,Ticks_Phase_8,229,1,48,47,512938556
22,5,22,Ticks_Phase_8,230,5,42,127,513734952
22,5,22,Ticks_Phase_8,231,1,48,46,513738284
22,5,22,Ticks_Phase_8,232,1,48,49,514530128
22,5,22,Ticks_Phase_8,233,5,42,127,514534892
22,5,22,Ticks_Phase_8,234,5,42,127,515334728
22,5,22,Ticks_Phase_8,235,1,48,43,515359524
22,5,22,Ticks_Phase_8,236,5,42,127,516135216
22,5,22,Ticks_Phase_8,237,1,48,44,516153684
22,5,22,Ticks_Phase_8,238,1,48,50,516905116
22,5,22,Ticks_Phase_8,239,5,42,127,516935084
22,5,22,Ticks_Phase_8,240,1,48,46,517686352
22,5,22,Ticks_Phase_8,241,5,42,127,517734736
22,5,22,Ticks_Phase_8,242,1,48,49,518515948
22,5,22,Ticks_Phase_8,243,5,42,127,518534840
22,5,22,Ticks_Phase_8,244,1,48,41,519290300
22,5,22,Ticks_Phase_8,245,5,42,127,519335404
22,5,22,Ticks_Phase_8,246,1,48,44,520115548
22,5,22,Ticks_Phase_8,247,5,42,127,520135128
22,5,22,Ticks_Phase_8,248,1,48,37,520928944
22,5,22,Ticks_Phase_8,249,5,42,127,520934780
22,5,22,Ticks_Phase_8,250,5,42,127,521734536
22,5,22,Ticks_Phase_8,251,1,48,40,521750392
22,5,22,Ticks_Phase_8,252,1,48,41,522507028
22,5,22,Ticks_Phase_8,253,5,42,127,522535396
22,5,22,Ticks_Phase_8,254,1,48,44,523321420
22,5,22,Ticks_Phase_8,255,5,42,127,523335272
22,5,22,Ticks_Phase_8,256,5,42,127,524134704
22,5,22,Ticks_Phase_8,257,1,48,36,524135916
22,5,22,Ticks_Phase_8,258,1,48,38,524927900
22,5,22,Ticks_Phase_8,259,5,42,127,525095324
22,5,22,Ticks_Phase_8,260,5,42,127,525895228
22,5,22,Ticks_Phase_8,261,1,48,48,526097376
22,5,22,Ticks_Phase_8,262,5,42,127,526694724
22,5,22,Ticks_Phase_8,263,1,48,46,526718760
22,5,22,Ticks_Phase_8,264,5,42,127,527494528
22,5,22,Ticks_Phase_8,265,1,48,46,527604588
22,5,22,Ticks_Phase_8,266,5,42,127,528295396
22,5,22,Ticks_Phase_8,267,1,48,45,528300104
22,5,22,Ticks_Phase_8,268,5,42,127,529095044
22,5,22,Ticks_Phase_8,269,1,48,47,529105180
22,5,22,Ticks_Phase_8,270,1,48,38,529880668
22,5,22,Ticks_Phase_8,271,5,42,127,529894760
22,5,22,Ticks_Phase_8,272,1,48,42,530671840
22,5,22,Ticks_Phase_8,273,5,42,127,530694432
22,5,22,Ticks_Phase_8,274,1,48,45,531471436
22,5,22,Ticks_Phase_8,275,5,42,127,531495376
22,5,22,Ticks_Phase_8,276,5,42,127,532295112
22,5,22,Ticks_Phase_8,277,1,48,41,532321588
22,5,22,Ticks_Phase_8,278,1,48,39,533066152
22,5,22,Ticks_Phase_8,279,5,42,127,533095052
22,5,22,Ticks_Phase_8,280,1,48,32,533886504
22,5,22,Ticks_Phase_8,281,5,42,127,533894780
22,5,22,Ticks_Phase_8,282,5,42,127,534695200
22,5,22,Ticks_Phase_8,283,1,48,42,534696184
22,5,22,Ticks_Phase_8,284,1,48,43,535474344
22,5,22,Ticks_Phase_8,285,5,42,127,535495072
22,5,22,Ticks_Phase_8,286,1,48,46,536256728
22,5,22,Ticks_Phase_8,287,5,42,127,536294948
22,5,22,Ticks_Phase_8,288,1,48,47,537056300
22,5,22,Ticks_Phase_8,289,5,42,127,537094620
22,5,22,Ticks_Phase_8,290,1,48,45,537874464
22,5,22,Ticks_Phase_8,291,5,42,127,537895188
22,5,22,Ticks_Phase_8,292,1,48,36,538688008
22,5,22,Ticks_Phase_8,293,5,42,127,538694988
22,5,22,Ticks_Phase_8,294,1,48,41,539462284
22,5,22,Ticks_Phase_8,295,5,42,127,539494788
22,5,22,Ticks_Phase_8,296,5,42,127,540134824
22,5,22,Ticks_Phase_8,297,1,48,39,540290824
22,5,22,Ticks_Phase_8,298,1,48,38,540801652
22,5,22,Ticks_Phase_8,299,5,42,127,540934704
22,5,22,Ticks_Phase_8,300,1,48,44,541700268
22,5,22,Ticks_Phase_8,301,5,42,127,541735512
22,5,22,Ticks_Phase_8,302,1,48,48,542514892
22,5,22,Ticks_Phase_8,303,5,42,127,542535008
22,5,22,Ticks_Phase_8,304,5,42,127,543334820
22,5,22,Ticks_Phase_8,305,1,48,46,543369164
22,5,22,Ticks_Phase_8,306,5,42,127,544134544
22,5,22,Ticks_Phase_8,307,1,48,45,544148416
22,5,22,Ticks_Phase_8,308,5,42,127,544935488
22,5,22,Ticks_Phase_8,309,1,48,46,544945776
22,5,22,Ticks_Phase_8,310,5,42,127,545735212
22,5,22,Ticks_Phase_8,311,1,48,46,545744512
22,5,22,Ticks_Phase_8,312,5,42,127,546534864
22,5,22,Ticks_Phase_8,313,1,48,43,546544236
22,5,22,Ticks_Phase_8,314,1,48,44,547324876
22,5,22,Ticks_Phase_8,315,5,42,127,547334452
22,5,22,Ticks_Phase_8,316,1,48,44,548130248
22,5,22,Ticks_Phase_8,317,5,42,127,548135396
22,5,22,Ticks_Phase_8,318,5,42,127,548935280
22,5,22,Ticks_Phase_8,319,1,48,45,548947708
22,5,22,Ticks_Phase_8,320,5,42,127,549734704
22,5,22,Ticks_Phase_8,321,1,48,44,549738800
22,5,22,Ticks_Phase_8,322,5,42,127,550534504
22,5,22,Ticks_Phase_8,323,1,48,48,550536560
22,5,22,Ticks_Phase_8,324,1,48,47,551329380
22,5,22,Ticks_Phase_8,325,5,42,127,551335292
22,5,22,Ticks_Phase_8,326,5,42,127,552135252
22,5,22,Ticks_Phase_8,327,1,48,45,552137152
22,5,22,Ticks_Phase_8,328,1,48,46,552932584
22,5,22,Ticks_Phase_8,329,5,42,127,552934892
22,5,22,Ticks_Phase_8,330,5,42,127,553734424
22,5,22,Ticks_Phase_8,331,1,48,47,553737144
22,5,22,Ticks_Phase_8,332,5,42,127,554535368
22,5,22,Ticks_Phase_8,333,1,48,43,554543060
22,5,22,Ticks_Phase_8,334,1,48,44,555311676
22,5,22,Ticks_Phase_8,335,5,42,127,555335160
22,5,22,Ticks_Phase_8,0,9999,9999,9999,420132968
22,5,22,Ticks_Phase_8,1,9999,9999,9999,420932716
22,5,22,Ticks_Phase_8,2,9999,9999,9999,421732468
22,5,22,Ticks_Phase_8,3,9999,9999,9999,422532216
22,5,22,Ticks_Phase_8,4,9999,9999,9999,423332960
22,5,22,Ticks_Phase_8,5,9999,9999,9999,424132676
22,5,22,Ticks_Phase_8,6,9999,9999,9999,424932476
22,5,22,Ticks_Phase_8,7,9999,9999,9999,425732152
22,5,22,Ticks_Phase_8,8,9999,9999,9999,426532944
22,5,22,Ticks_Phase_8,9,9999,9999,9999,427332668
22,5,22,Ticks_Phase_8,10,9999,9999,9999,428132468
22,5,22,Ticks_Phase_8,11,9999,9999,9999,428932204
22,5,22,Ticks_Phase_8,12,9999,9999,9999,429732988
22,5,22,Ticks_Phase_8,13,9999,9999,9999,430532712
22,5,22,Ticks_Phase_8,14,9999,9999,9999,431332444
22,5,22,Ticks_Phase_8,15,9999,9999,9999,432132188
22,5,22,Ticks_Phase_8,16,9999,9999,9999,432932988
22,5,22,Ticks_Phase_8,17,9999,9999,9999,433732704
22,5,22,Ticks_Phase_8,18,9999,9999,9999,434532436
22,5,22,Ticks_Phase_8,19,9999,9999,9999,435332160
22,5,22,Ticks_Phase_8,20,9999,9999,9999,436132944
22,5,22,Ticks_Phase_8,21,9999,9999,9999,436932668
22,5,22,Ticks_Phase_8,22,9999,9999,9999,437732480
22,5,22,Ticks_Phase_8,23,9999,9999,9999,438532152
22,5,22,Ticks_Phase_8,24,9999,9999,9999,439332948
22,5,22,Ticks_Phase_8,25,9999,9999,9999,440132672
22,5,22,Ticks_Phase_8,26,9999,9999,9999,440932472
22,5,22,Ticks_Phase_8,27,9999,9999,9999,441732200
22,5,22,Ticks_Phase_8,28,9999,9999,9999,442532992
22,5,22,Ticks_Phase_8,29,9999,9999,9999,443332708
22,5,22,Ticks_Phase_8,30,9999,9999,9999,444112952
22,5,22,Ticks_Phase_8,31,9999,9999,9999,444912760
22,5,22,Ticks_Phase_8,32,9999,9999,9999,445712504
22,5,22,Ticks_Phase_8,33,9999,9999,9999,446512228
22,5,22,Ticks_Phase_8,34,9999,9999,9999,447312952
22,5,22,Ticks_Phase_8,35,9999,9999,9999,448112744
22,5,22,Ticks_Phase_8,36,9999,9999,9999,448912476
22,5,22,Ticks_Phase_8,37,9999,9999,9999,449712196
22,5,22,Ticks_Phase_8,38,9999,9999,9999,450512988
22,5,22,Ticks_Phase_8,39,9999,9999,9999,451312716
22,5,22,Ticks_Phase_8,40,9999,9999,9999,452112464
22,5,22,Ticks_Phase_8,41,9999,9999,9999,452912196
22,5,22,Ticks_Phase_8,42,9999,9999,9999,453712988
22,5,22,Ticks_Phase_8,43,9999,9999,9999,454512712
22,5,22,Ticks_Phase_8,44,9999,9999,9999,455312440
22,5,22,Ticks_Phase_8,45,9999,9999,9999,456112228
22,5,22,Ticks_Phase_8,46,9999,9999,9999,456912956
22,5,22,Ticks_Phase_8,47,9999,9999,9999,457712756
22,5,22,Ticks_Phase_8,48,9999,9999,9999,458532972
22,5,22,Ticks_Phase_8,49,9999,9999,9999,459332704
22,5,22,Ticks_Phase_8,50,9999,9999,9999,460132432
22,5,22,Ticks_Phase_8,51,9999,9999,9999,460932156
22,5,22,Ticks_Phase_8,52,9999,9999,9999,461732948
22,5,22,Ticks_Phase_8,53,9999,9999,9999,462532668
22,5,22,Ticks_Phase_8,54,9999,9999,9999,463332476
22,5,22,Ticks_Phase_8,55,9999,9999,9999,464132152
22,5,22,Ticks_Phase_8,56,9999,9999,9999,464932944
22,5,22,Ticks_Phase_8,57,9999,9999,9999,465732672
22,5,22,Ticks_Phase_8,58,9999,9999,9999,466532472
22,5,22,Ticks_Phase_8,59,9999,9999,9999,467332196
22,5,22,Ticks_Phase_8,60,9999,9999,9999,468132988
22,5,22,Ticks_Phase_8,61,9999,9999,9999,468932712
22,5,22,Ticks_Phase_8,62,9999,9999,9999,469732440
22,5,22,Ticks_Phase_8,63,9999,9999,9999,470532180
22,5,22,Ticks_Phase_8,64,9999,9999,9999,471372856
22,5,22,Ticks_Phase_8,65,9999,9999,9999,472172668
22,5,22,Ticks_Phase_8,66,9999,9999,9999,472972392
22,5,22,Ticks_Phase_8,67,9999,9999,9999,473772112
22,5,22,Ticks_Phase_8,68,9999,9999,9999,474572908
22,5,22,Ticks_Phase_8,69,9999,9999,9999,475372636
22,5,22,Ticks_Phase_8,70,9999,9999,9999,476172384
22,5,22,Ticks_Phase_8,71,9999,9999,9999,476972104
22,5,22,Ticks_Phase_8,72,9999,9999,9999,477772896
22,5,22,Ticks_Phase_8,73,9999,9999,9999,478572620
22,5,22,Ticks_Phase_8,74,9999,9999,9999,479372348
22,5,22,Ticks_Phase_8,75,9999,9999,9999,480172148
22,5,22,Ticks_Phase_8,76,9999,9999,9999,480972872
22,5,22,Ticks_Phase_8,77,9999,9999,9999,481772664
22,5,22,Ticks_Phase_8,78,9999,9999,9999,482572344
22,5,22,Ticks_Phase_8,79,9999,9999,9999,483372140
22,5,22,Ticks_Phase_8,80,9999,9999,9999,484172864
22,5,22,Ticks_Phase_8,81,9999,9999,9999,484932708
22,5,22,Ticks_Phase_8,82,9999,9999,9999,485732436
22,5,22,Ticks_Phase_8,83,9999,9999,9999,486532152
22,5,22,Ticks_Phase_8,84,9999,9999,9999,487332952
22,5,22,Ticks_Phase_8,85,9999,9999,9999,488132676
22,5,22,Ticks_Phase_8,86,9999,9999,9999,488932476
22,5,22,Ticks_Phase_8,87,9999,9999,9999,489732220
22,5,22,Ticks_Phase_8,88,9999,9999,9999,490532944
22,5,22,Ticks_Phase_8,89,9999,9999,9999,491332736
22,5,22,Ticks_Phase_8,90,9999,9999,9999,492132468
22,5,22,Ticks_Phase_8,91,9999,9999,9999,492932192
22,5,22,Ticks_Phase_8,92,9999,9999,9999,493732988
22,5,22,Ticks_Phase_8,93,9999,9999,9999,494532712
22,5,22,Ticks_Phase_8,94,9999,9999,9999,495332436
22,5,22,Ticks_Phase_8,95,9999,9999,9999,496132180
22,5,22,Ticks_Phase_8,96,9999,9999,9999,496932980
22,5,22,Ticks_Phase_8,97,9999,9999,9999,497652844
22,5,22,Ticks_Phase_8,98,9999,9999,9999,498452592
22,5,22,Ticks_Phase_8,99,9999,9999,9999,499252312
22,5,22,Ticks_Phase_8,100,9999,9999,9999,500053084
22,5,22,Ticks_Phase_8,101,9999,9999,9999,500852828
22,5,22,Ticks_Phase_8,102,9999,9999,9999,501652552
22,5,22,Ticks_Phase_8,103,9999,9999,9999,502452280
22,5,22,Ticks_Phase_8,104,9999,9999,9999,503253080
22,5,22,Ticks_Phase_8,105,9999,9999,9999,504052796
22,5,22,Ticks_Phase_8,106,9999,9999,9999,504852596
22,5,22,Ticks_Phase_8,107,9999,9999,9999,505652328
22,5,22,Ticks_Phase_8,108,9999,9999,9999,506453044
22,5,22,Ticks_Phase_8,109,9999,9999,9999,507252840
22,5,22,Ticks_Phase_8,110,9999,9999,9999,508052564
22,5,22,Ticks_Phase_8,111,9999,9999,9999,508852300
22,5,22,Ticks_Phase_8,112,9999,9999,9999,509653084
22,5,22,Ticks_Phase_8,113,9999,9999,9999,510452808
22,5,22,Ticks_Phase_8,114,9999,9999,9999,511332428
22,5,22,Ticks_Phase_8,115,9999,9999,9999,512132180
22,5,22,Ticks_Phase_8,116,9999,9999,9999,512932972
22,5,22,Ticks_Phase_8,117,9999,9999,9999,513732696
22,5,22,Ticks_Phase_8,118,9999,9999,9999,514532412
22,5,22,Ticks_Phase_8,119,9999,9999,9999,515332172
22,5,22,Ticks_Phase_8,120,9999,9999,9999,516132964
22,5,22,Ticks_Phase_8,121,9999,9999,9999,516932680
22,5,22,Ticks_Phase_8,122,9999,9999,9999,517732408
22,5,22,Ticks_Phase_8,123,9999,9999,9999,518532208
22,5,22,Ticks_Phase_8,124,9999,9999,9999,519332924
22,5,22,Ticks_Phase_8,125,9999,9999,9999,520132724
22,5,22,Ticks_Phase_8,126,9999,9999,9999,520932452
22,5,22,Ticks_Phase_8,127,9999,9999,9999,521732208
22,5,22,Ticks_Phase_8,128,9999,9999,9999,522532992
22,5,22,Ticks_Phase_8,129,9999,9999,9999,523332720
22,5,22,Ticks_Phase_8,130,9999,9999,9999,524132452
22,5,22,Ticks_Phase_8,131,9999,9999,9999,525092920
22,5,22,Ticks_Phase_8,132,9999,9999,9999,525892672
22,5,22,Ticks_Phase_8,133,9999,9999,9999,526692472
22,5,22,Ticks_Phase_8,134,9999,9999,9999,527492196
22,5,22,Ticks_Phase_8,135,9999,9999,9999,528292992
22,5,22,Ticks_Phase_8,136,9999,9999,9999,529092712
22,5,22,Ticks_Phase_8,137,9999,9999,9999,529892432
22,5,22,Ticks_Phase_8,138,9999,9999,9999,530692180
22,5,22,Ticks_Phase_8,139,9999,9999,9999,531492972
22,5,22,Ticks_Phase_8,140,9999,9999,9999,532292704
22,5,22,Ticks_Phase_8,141,9999,9999,9999,533092424
22,5,22,Ticks_Phase_8,142,9999,9999,9999,533892224
22,5,22,Ticks_Phase_8,143,9999,9999,9999,534692948
22,5,22,Ticks_Phase_8,144,9999,9999,9999,535492664
22,5,22,Ticks_Phase_8,145,9999,9999,9999,536292468
22,5,22,Ticks_Phase_8,146,9999,9999,9999,537092216
22,5,22,Ticks_Phase_8,147,9999,9999,9999,537892936
22,5,22,Ticks_Phase_8,148,9999,9999,9999,538692736
22,5,22,Ticks_Phase_8,149,9999,9999,9999,539492460
22,5,22,Ticks_Phase_8,150,9999,9999,9999,540132416
22,5,22,Ticks_Phase_8,151,9999,9999,9999,540932220
22,5,22,Ticks_Phase_8,152,9999,9999,9999,541732956
22,5,22,Ticks_Phase_8,153,9999,9999,9999,542532680
22,5,22,Ticks_Phase_8,154,9999,9999,9999,543332416
22,5,22,Ticks_Phase_8,155,9999,9999,9999,544132212
22,5,22,Ticks_Phase_8,156,9999,9999,9999,544932932
22,5,22,Ticks_Phase_8,157,9999,9999,9999,545732732
22,5,22,Ticks_Phase_8,158,9999,9999,9999,546532456
22,5,22,Ticks_Phase_8,159,9999,9999,9999,547332200
22,5,22,Ticks_Phase_8,160,9999,9999,9999,548132992
22,5,22,Ticks_Phase_8,161,9999,9999,9999,548932724
22,5,22,Ticks_Phase_8,162,9999,9999,9999,549732452
22,5,22,Ticks_Phase_8,163,9999,9999,9999,550532176
22,5,22,Ticks_Phase_8,164,9999,9999,9999,551332964
22,5,22,Ticks_Phase_8,165,9999,9999,9999,552132692
22,5,22,Ticks_Phase_8,166,9999,9999,9999,552932452
22,5,22,Ticks_Phase_8,167,9999,9999,9999,553732168
22,5,22,Ticks_Phase_8,168,9999,9999,9999,554532960
22,5,22,Ticks_Phase_8,169,9999,9999,9999,555332680
22,6,23,Ticks_Phase_5,0,5,42,127,604951852
22,6,23,Ticks_Phase_5,1,5,42,127,605451636
22,6,23,Ticks_Phase_5,2,5,42,127,605952636
22,6,23,Ticks_Phase_5,3,5,42,127,606452040
22,6,23,Ticks_Phase_5,4,1,48,38,606946944
22,6,23,Ticks_Phase_5,5,5,42,127,606951864
22,6,23,Ticks_Phase_5,6,1,48,59,607428748
22,6,23,Ticks_Phase_5,7,5,42,127,607451624
22,6,23,Ticks_Phase_5,8,1,48,61,607914524
22,6,23,Ticks_Phase_5,9,5,42,127,607952292
22,6,23,Ticks_Phase_5,10,1,48,60,608430716
22,6,23,Ticks_Phase_5,11,5,42,127,608451900
22,6,23,Ticks_Phase_5,12,1,48,59,608906932
22,6,23,Ticks_Phase_5,13,5,42,127,608951580
22,6,23,Ticks_Phase_5,14,1,48,57,609426480
22,6,23,Ticks_Phase_5,15,5,42,127,609452556
22,6,23,Ticks_Phase_5,16,1,48,54,609924404
22,6,23,Ticks_Phase_5,17,5,42,127,609952012
22,6,23,Ticks_Phase_5,18,1,48,56,610433256
22,6,23,Ticks_Phase_5,19,5,42,127,610451768
22,6,23,Ticks_Phase_5,20,1,48,56,610939876
22,6,23,Ticks_Phase_5,21,5,42,127,610951452
22,6,23,Ticks_Phase_5,22,1,48,49,611436352
22,6,23,Ticks_Phase_5,23,5,42,127,611452352
22,6,23,Ticks_Phase_5,24,1,48,52,611937868
22,6,23,Ticks_Phase_5,25,5,42,127,611952032
22,6,23,Ticks_Phase_5,26,5,42,127,612451648
22,6,23,Ticks_Phase_5,27,1,48,49,612455132
22,6,23,Ticks_Phase_5,28,1,48,51,612947548
22,6,23,Ticks_Phase_5,29,5,42,127,612952544
22,6,23,Ticks_Phase_5,30,1,48,49,613446084
22,6,23,Ticks_Phase_5,31,5,42,127,613462384
22,6,23,Ticks_Phase_5,32,1,48,52,613936672
22,6,23,Ticks_Phase_5,33,5,42,127,613962220
22,6,23,Ticks_Phase_5,34,1,48,45,614458124
22,6,23,Ticks_Phase_5,35,5,42,127,614461976
22,6,23,Ticks_Phase_5,36,1,48,48,614961128
22,6,23,Ticks_Phase_5,37,5,42,127,614962800
22,6,23,Ticks_Phase_5,38,5,42,127,615462340
22,6,23,Ticks_Phase_5,39,1,48,49,615468344
22,6,23,Ticks_Phase_5,40,1,48,53,615936084
22,6,23,Ticks_Phase_5,41,5,42,127,615962012
22,6,23,Ticks_Phase_5,42,1,48,48,616443708
22,6,23,Ticks_Phase_5,43,5,42,127,616461692
22,6,23,Ticks_Phase_5,44,5,42,127,616962452
22,6,23,Ticks_Phase_5,45,1,48,48,616967768
22,6,23,Ticks_Phase_5,46,5,42,127,617472292
22,6,23,Ticks_Phase_5,47,1,48,40,617484340
22,6,23,Ticks_Phase_5,48,1,48,40,617970660
22,6,23,Ticks_Phase_5,49,5,42,127,617972348
22,6,23,Ticks_Phase_5,50,5,42,127,618471936
22,6,23,Ticks_Phase_5,51,1,48,41,618484232
22,6,23,Ticks_Phase_5,52,1,48,45,618959732
22,6,23,Ticks_Phase_5,53,5,42,127,618971456
22,6,23,Ticks_Phase_5,54,5,42,127,619472292
22,6,23,Ticks_Phase_5,55,1,48,44,619483344
22,6,23,Ticks_Phase_5,56,5,42,127,619961812
22,6,23,Ticks_Phase_5,57,1,48,42,619997232
22,6,23,Ticks_Phase_5,58,5,42,127,620461420
22,6,23,Ticks_Phase_5,59,1,48,46,620479336
22,6,23,Ticks_Phase_5,60,5,42,127,620962092
22,6,23,Ticks_Phase_5,61,1,48,45,620965116
22,6,23,Ticks_Phase_5,62,5,42,127,621462076
22,6,23,Ticks_Phase_5,63,1,48,40,621494444
22,6,23,Ticks_Phase_5,64,1,48,45,621961912
22,6,23,Ticks_Phase_5,65,5,42,127,621963280
22,6,23,Ticks_Phase_5,66,5,42,127,622462436
22,6,23,Ticks_Phase_5,67,1,48,43,622478828
22,6,23,Ticks_Phase_5,68,5,42,127,622961964
22,6,23,Ticks_Phase_5,69,1,48,49,622971336
22,6,23,Ticks_Phase_5,70,5,42,127,623461872
22,6,23,Ticks_Phase_5,71,1,48,38,623473228
22,6,23,Ticks_Phase_5,72,5,42,127,623961556
22,6,23,Ticks_Phase_5,73,1,48,44,623965876
22,6,23,Ticks_Phase_5,74,5,42,127,624462304
22,6,23,Ticks_Phase_5,75,1,48,45,624466624
22,6,23,Ticks_Phase_5,76,1,48,45,624946972
22,6,23,Ticks_Phase_5,77,5,42,127,624961900
22,6,23,Ticks_Phase_5,78,1,48,39,625450104
22,6,23,Ticks_Phase_5,79,5,42,127,625461584
22,6,23,Ticks_Phase_5,80,1,48,43,625941376
22,6,23,Ticks_Phase_5,81,5,42,127,625962332
22,6,23,Ticks_Phase_5,82,1,48,40,626453888
22,6,23,Ticks_Phase_5,83,5,42,127,626462088
22,6,23,Ticks_Phase_5,84,1,48,46,626960000
22,6,23,Ticks_Phase_5,85,5,42,127,626961696
22,6,23,Ticks_Phase_5,86,1,48,39,627454848
22,6,23,Ticks_Phase_5,87,5,42,127,627461756
22,6,23,Ticks_Phase_5,88,1,48,37,627942972
22,6,23,Ticks_Phase_5,89,5,42,127,627962124
22,6,23,Ticks_Phase_5,90,1,48,48,628449140
22,6,23,Ticks_Phase_5,91,5,42,127,628462188
22,6,23,Ticks_Phase_5,92,5,42,127,628971936
22,6,23,Ticks_Phase_5,93,1,48,40,628972844
22,6,23,Ticks_Phase_5,94,1,48,37,629438652
22,6,23,Ticks_Phase_5,95,5,42,127,629471684
22,6,23,Ticks_Phase_5,96,1,48,48,629946660
22,6,23,Ticks_Phase_5,97,5,42,127,629972512
22,6,23,Ticks_Phase_5,98,5,42,127,630471972
22,6,23,Ticks_Phase_5,99,1,48,40,630485540
22,6,23,Ticks_Phase_5,100,1,48,40,630953664
22,6,23,Ticks_Phase_5,101,5,42,127,630971872
22,6,23,Ticks_Phase_5,102,1,48,35,631468924
22,6,23,Ticks_Phase_5,103,5,42,127,631471632
22,6,23,Ticks_Phase_5,104,1,48,44,631961280
22,6,23,Ticks_Phase_5,105,5,42,127,631972452
22,6,23,Ticks_Phase_5,106,1,48,35,632441704
22,6,23,Ticks_Phase_5,107,5,42,127,632471832
22,6,23,Ticks_Phase_5,108,1,48,43,632960568
22,6,23,Ticks_Phase_5,109,5,42,127,632971668
22,6,23,Ticks_Phase_5,110,1,48,38,633464216
22,6,23,Ticks_Phase_5,111,5,42,127,633472568
22,6,23,Ticks_Phase_5,112,1,48,37,633967180
22,6,23,Ticks_Phase_5,113,5,42,127,633972024
22,6,23,Ticks_Phase_5,114,1,48,47,634448600
22,6,23,Ticks_Phase_5,115,5,42,127,634471932
22,6,23,Ticks_Phase_5,116,5,42,127,634971396
22,6,23,Ticks_Phase_5,117,1,48,45,634976020
22,6,23,Ticks_Phase_5,118,5,42,127,635472448
22,6,23,Ticks_Phase_5,119,1,48,40,635496484
22,6,23,Ticks_Phase_5,120,1,48,43,635962776
22,6,23,Ticks_Phase_5,121,5,42,127,635971892
22,6,23,Ticks_Phase_5,122,1,48,43,636460704
22,6,23,Ticks_Phase_5,123,5,42,127,636471576
22,6,23,Ticks_Phase_5,124,1,48,41,636975808
22,6,23,Ticks_Phase_5,125,5,42,127,636991960
22,6,23,Ticks_Phase_5,126,1,48,38,637473968
22,6,23,Ticks_Phase_5,127,5,42,127,637491640
22,6,23,Ticks_Phase_5,128,1,48,48,637986940
22,6,23,Ticks_Phase_5,129,5,42,127,637992316
22,6,23,Ticks_Phase_5,130,1,48,43,638487152
22,6,23,Ticks_Phase_5,131,5,42,127,638492148
22,6,23,Ticks_Phase_5,132,1,48,53,638969948
22,6,23,Ticks_Phase_5,133,5,42,127,638991680
22,6,23,Ticks_Phase_5,134,5,42,127,639491368
22,6,23,Ticks_Phase_5,135,1,48,47,639518304
22,6,23,Ticks_Phase_5,136,5,42,127,639992192
22,6,23,Ticks_Phase_5,137,1,48,48,639998044
22,6,23,Ticks_Phase_5,138,1,48,41,640483492
22,6,23,Ticks_Phase_5,139,5,42,127,640492148
22,6,23,Ticks_Phase_5,140,5,42,127,640991536
22,6,23,Ticks_Phase_5,141,1,48,46,640994100
22,6,23,Ticks_Phase_5,142,1,48,39,641481324
22,6,23,Ticks_Phase_5,143,5,42,127,641492272
22,6,23,Ticks_Phase_5,144,5,42,127,641992192
22,6,23,Ticks_Phase_5,145,1,48,42,642016148
22,6,23,Ticks_Phase_5,146,5,42,127,642491796
22,6,23,Ticks_Phase_5,147,1,48,43,642495816
22,6,23,Ticks_Phase_5,148,5,42,127,642991932
22,6,23,Ticks_Phase_5,149,1,48,38,643011928
22,6,23,Ticks_Phase_5,150,1,48,54,643473320
22,6,23,Ticks_Phase_5,151,5,42,127,643492220
22,6,23,Ticks_Phase_5,152,1,48,47,643976128
22,6,23,Ticks_Phase_5,153,5,42,127,643991900
22,6,23,Ticks_Phase_5,154,1,48,45,644480632
22,6,23,Ticks_Phase_5,155,5,42,127,644491884
22,6,23,Ticks_Phase_5,156,5,42,127,644992264
22,6,23,Ticks_Phase_5,157,1,48,54,644993324
22,6,23,Ticks_Phase_5,158,5,42,127,645471852
22,6,23,Ticks_Phase_5,159,1,48,43,645473216
22,6,23,Ticks_Phase_5,160,5,42,127,645972300
22,6,23,Ticks_Phase_5,161,1,48,45,645973208
22,6,23,Ticks_Phase_5,162,1,48,44,646467592
22,6,23,Ticks_Phase_5,163,5,42,127,646472276
22,6,23,Ticks_Phase_5,164,1,48,42,646971968
22,6,23,Ticks_Phase_5,165,5,42,127,646973488
22,6,23,Ticks_Phase_5,166,1,48,41,647465120
22,6,23,Ticks_Phase_5,167,5,42,127,647471868
22,6,23,Ticks_Phase_5,168,5,42,127,647972244
22,6,23,Ticks_Phase_5,169,1,48,41,647975120
22,6,23,Ticks_Phase_5,170,1,48,43,648472080
22,6,23,Ticks_Phase_5,171,5,42,127,648473752
22,6,23,Ticks_Phase_5,172,5,42,127,648971836
22,6,23,Ticks_Phase_5,173,1,48,40,648973508
22,6,23,Ticks_Phase_5,174,1,48,45,649452460
22,6,23,Ticks_Phase_5,175,5,42,127,649472276
22,6,23,Ticks_Phase_5,176,1,48,47,649965968
22,6,23,Ticks_Phase_5,177,5,42,127,649972032
22,6,23,Ticks_Phase_5,178,5,42,127,650471776
22,6,23,Ticks_Phase_5,179,1,48,39,650475716
22,6,23,Ticks_Phase_5,180,1,48,43,650955652
22,6,23,Ticks_Phase_5,181,5,42,127,650971652
22,6,23,Ticks_Phase_5,182,1,48,40,651472108
22,6,23,Ticks_Phase_5,183,5,42,127,651473772
22,6,23,Ticks_Phase_5,184,1,48,35,651964796
22,6,23,Ticks_Phase_5,185,5,42,127,651971932
22,6,23,Ticks_Phase_5,186,5,42,127,652471620
22,6,23,Ticks_Phase_5,187,1,48,40,652472908
22,6,23,Ticks_Phase_5,188,1,48,37,652955068
22,6,23,Ticks_Phase_5,189,5,42,127,652972592
22,6,23,Ticks_Phase_5,190,5,42,127,653421860
22,6,23,Ticks_Phase_5,191,1,48,38,653470200
22,6,23,Ticks_Phase_5,192,1,48,43,653906908
22,6,23,Ticks_Phase_5,193,5,42,127,653921612
22,6,23,Ticks_Phase_5,194,1,48,39,654392232
22,6,23,Ticks_Phase_5,195,5,42,127,654422588
22,6,23,Ticks_Phase_5,196,1,48,37,654895728
22,6,23,Ticks_Phase_5,197,5,42,127,654922192
22,6,23,Ticks_Phase_5,198,1,48,38,655401756
22,6,23,Ticks_Phase_5,199,5,42,127,655421724
22,6,23,Ticks_Phase_5,200,1,48,43,655888976
22,6,23,Ticks_Phase_5,201,5,42,127,655921632
22,6,23,Ticks_Phase_5,202,1,48,41,656406616
22,6,23,Ticks_Phase_5,203,5,42,127,656422380
22,6,23,Ticks_Phase_5,204,1,48,40,656921460
22,6,23,Ticks_Phase_5,205,5,42,127,656923284
22,6,23,Ticks_Phase_5,206,1,48,45,657420832
22,6,23,Ticks_Phase_5,207,5,42,127,657422584
22,6,23,Ticks_Phase_5,208,1,48,48,657899780
22,6,23,Ticks_Phase_5,209,5,42,127,657922564
22,6,23,Ticks_Phase_5,210,1,48,41,658421152
22,6,23,Ticks_Phase_5,211,5,42,127,658432404
22,6,23,Ticks_Phase_5,212,1,48,46,658914312
22,6,23,Ticks_Phase_5,213,5,42,127,658932240
22,6,23,Ticks_Phase_5,214,1,48,44,659416048
22,6,23,Ticks_Phase_5,215,5,42,127,659431744
22,6,23,Ticks_Phase_5,216,1,48,35,659922232
22,6,23,Ticks_Phase_5,217,5,42,127,659931500
22,6,23,Ticks_Phase_5,218,1,48,34,660388596
22,6,23,Ticks_Phase_5,219,5,42,127,660432404
22,6,23,Ticks_Phase_5,220,1,48,35,660895236
22,6,23,Ticks_Phase_5,221,5,42,127,660932088
22,6,23,Ticks_Phase_5,222,1,48,37,661383764
22,6,23,Ticks_Phase_5,223,5,42,127,661431696
22,6,23,Ticks_Phase_5,224,1,48,39,661917516
22,6,23,Ticks_Phase_5,225,5,42,127,661981496
22,6,23,Ticks_Phase_5,226,5,42,127,662482328
22,6,23,Ticks_Phase_5,227,1,48,38,662524876
22,6,23,Ticks_Phase_5,228,5,42,127,662982388
22,6,23,Ticks_Phase_5,229,1,48,41,663031288
22,6,23,Ticks_Phase_5,230,5,42,127,663481692
22,6,23,Ticks_Phase_5,231,1,48,36,663509996
22,6,23,Ticks_Phase_5,232,5,42,127,663981372
22,6,23,Ticks_Phase_5,233,1,48,39,663988672
22,6,23,Ticks_Phase_5,234,5,42,127,664482272
22,6,23,Ticks_Phase_5,235,1,48,40,664488504
22,6,23,Ticks_Phase_5,236,1,48,41,664971308
22,6,23,Ticks_Phase_5,237,5,42,127,664982024
22,6,23,Ticks_Phase_5,238,1,48,40,665447368
22,6,23,Ticks_Phase_5,239,5,42,127,665481628
22,6,23,Ticks_Phase_5,240,5,42,127,665982308
22,6,23,Ticks_Phase_5,241,1,48,42,665992448
22,6,23,Ticks_Phase_5,242,5,42,127,666482068
22,6,23,Ticks_Phase_5,243,1,48,37,666511840
22,6,23,Ticks_Phase_5,244,5,42,127,666981976
22,6,23,Ticks_Phase_5,245,1,48,37,666985540
22,6,23,Ticks_Phase_5,246,1,48,40,667469320
22,6,23,Ticks_Phase_5,247,5,42,127,667481424
22,6,23,Ticks_Phase_5,248,1,48,44,667952044
22,6,23,Ticks_Phase_5,249,5,42,127,667982096
22,6,23,Ticks_Phase_5,250,5,42,127,668482016
22,6,23,Ticks_Phase_5,251,1,48,47,668496724
22,6,23,Ticks_Phase_5,252,5,42,127,668981848
22,6,23,Ticks_Phase_5,253,1,48,38,668995036
22,6,23,Ticks_Phase_5,254,5,42,127,669482444
22,6,23,Ticks_Phase_5,255,1,48,44,669486920
22,6,23,Ticks_Phase_5,256,5,42,127,669982052
22,6,23,Ticks_Phase_5,257,1,48,41,669992568
22,6,23,Ticks_Phase_5,258,1,48,30,670460844
22,6,23,Ticks_Phase_5,259,5,42,127,670582172
22,6,23,Ticks_Phase_5,260,5,42,127,671081804
22,6,23,Ticks_Phase_5,261,1,48,38,671235740
22,6,23,Ticks_Phase_5,262,5,42,127,671581788
22,6,23,Ticks_Phase_5,263,1,48,36,671658080
22,6,23,Ticks_Phase_5,264,5,42,127,672082232
22,6,23,Ticks_Phase_5,265,1,48,37,672087400
22,6,23,Ticks_Phase_5,266,5,42,127,672581916
22,6,23,Ticks_Phase_5,267,1,48,37,672607168
22,6,23,Ticks_Phase_5,268,5,42,127,673081748
22,6,23,Ticks_Phase_5,269,1,48,41,673098144
22,6,23,Ticks_Phase_5,270,1,48,39,673569944
22,6,23,Ticks_Phase_5,271,5,42,127,673581424
22,6,23,Ticks_Phase_5,272,1,48,38,674071912
22,6,23,Ticks_Phase_5,273,5,42,127,674082096
22,6,23,Ticks_Phase_5,274,5,42,127,674581864
22,6,23,Ticks_Phase_5,275,1,48,37,674591688
22,6,23,Ticks_Phase_5,276,5,42,127,675081620
22,6,23,Ticks_Phase_5,277,1,48,37,675087472
22,6,23,Ticks_Phase_5,278,5,42,127,675582368
22,6,23,Ticks_Phase_5,279,1,48,37,675592204
22,6,23,Ticks_Phase_5,280,5,42,127,676081976
22,6,23,Ticks_Phase_5,281,1,48,40,676087140
22,6,23,Ticks_Phase_5,282,1,48,40,676563640
22,6,23,Ticks_Phase_5,283,5,42,127,676581852
22,6,23,Ticks_Phase_5,284,5,42,127,677081616
22,6,23,Ticks_Phase_5,285,1,48,43,677097396
22,6,23,Ticks_Phase_5,286,5,42,127,677582416
22,6,23,Ticks_Phase_5,287,1,48,44,677586888
22,6,23,Ticks_Phase_5,288,5,42,127,678081944
22,6,23,Ticks_Phase_5,289,1,48,39,678091932
22,6,23,Ticks_Phase_5,290,1,48,38,678567076
22,6,23,Ticks_Phase_5,291,5,42,127,678581620
22,6,23,Ticks_Phase_5,292,1,48,37,679073024
22,6,23,Ticks_Phase_5,293,5,42,127,679082520
22,6,23,Ticks_Phase_5,294,1,48,40,679555052
22,6,23,Ticks_Phase_5,295,5,42,127,679582204
22,6,23,Ticks_Phase_5,296,5,42,127,679981584
22,6,23,Ticks_Phase_5,297,1,48,38,680059780
22,6,23,Ticks_Phase_5,298,1,48,35,680462896
22,6,23,Ticks_Phase_5,299,5,42,127,680482324
22,6,23,Ticks_Phase_5,300,1,48,18,680857808
22,6,23,Ticks_Phase_5,301,5,42,127,680981840
22,6,23,Ticks_Phase_5,302,1,48,40,681451408
22,6,23,Ticks_Phase_5,303,5,42,127,681481688
22,6,23,Ticks_Phase_5,304,1,48,39,681946016
22,6,23,Ticks_Phase_5,305,5,42,127,681982512
22,6,23,Ticks_Phase_5,306,1,48,43,682457540
22,6,23,Ticks_Phase_5,307,5,42,127,682482044
22,6,23,Ticks_Phase_5,308,5,42,127,682981784
22,6,23,Ticks_Phase_5,309,1,48,44,682984424
22,6,23,Ticks_Phase_5,310,1,48,47,683453928
22,6,23,Ticks_Phase_5,311,5,42,127,683481456
22,6,23,Ticks_Phase_5,312,1,48,38,683974004
22,6,23,Ticks_Phase_5,313,5,42,127,683982128
22,6,23,Ticks_Phase_5,314,1,48,35,684468944
22,6,23,Ticks_Phase_5,315,5,42,127,684482116
22,6,23,Ticks_Phase_5,316,1,48,42,684920276
22,6,23,Ticks_Phase_5,317,5,42,127,684981568
22,6,23,Ticks_Phase_5,318,1,48,40,685466860
22,6,23,Ticks_Phase_5,319,5,42,127,685482320
22,6,23,Ticks_Phase_5,320,1,48,42,685972580
22,6,23,Ticks_Phase_5,321,5,42,127,685982076
22,6,23,Ticks_Phase_5,322,1,48,39,686478444
22,6,23,Ticks_Phase_5,323,5,42,127,686481684
22,6,23,Ticks_Phase_5,324,1,48,41,686969488
22,6,23,Ticks_Phase_5,325,5,42,127,686981668
22,6,23,Ticks_Phase_5,326,5,42,127,687482124
22,6,23,Ticks_Phase_5,327,1,48,34,687491496
22,6,23,Ticks_Phase_5,328,5,42,127,687982108
22,6,23,Ticks_Phase_5,329,1,48,35,688003092
22,6,23,Ticks_Phase_5,330,1,48,44,688464564
22,6,23,Ticks_Phase_5,331,5,42,127,688481704
22,6,23,Ticks_Phase_5,332,1,48,43,688963944
22,6,23,Ticks_Phase_5,333,5,42,127,688982304
22,6,23,Ticks_Phase_5,334,1,48,37,689459032
22,6,23,Ticks_Phase_5,335,5,42,127,689482060
22,6,23,Ticks_Phase_5,0,9999,9999,9999,604949600
22,6,23,Ticks_Phase_5,1,9999,9999,9999,605449304
22,6,23,Ticks_Phase_5,2,9999,9999,9999,605950080
22,6,23,Ticks_Phase_5,3,9999,9999,9999,606449788
22,6,23,Ticks_Phase_5,4,9999,9999,9999,606949460
22,6,23,Ticks_Phase_5,5,9999,9999,9999,607449140
22,6,23,Ticks_Phase_5,6,9999,9999,9999,607949888
22,6,23,Ticks_Phase_5,7,9999,9999,9999,608449648
22,6,23,Ticks_Phase_5,8,9999,9999,9999,608949328
22,6,23,Ticks_Phase_5,9,9999,9999,9999,609450076
22,6,23,Ticks_Phase_5,10,9999,9999,9999,609949760
22,6,23,Ticks_Phase_5,11,9999,9999,9999,610449516
22,6,23,Ticks_Phase_5,12,9999,9999,9999,610949196
22,6,23,Ticks_Phase_5,13,9999,9999,9999,611449948
22,6,23,Ticks_Phase_5,14,9999,9999,9999,611949628
22,6,23,Ticks_Phase_5,15,9999,9999,9999,612449396
22,6,23,Ticks_Phase_5,16,9999,9999,9999,612950140
22,6,23,Ticks_Phase_5,17,9999,9999,9999,613460056
22,6,23,Ticks_Phase_5,18,9999,9999,9999,613959740
22,6,23,Ticks_Phase_5,19,9999,9999,9999,614459496
22,6,23,Ticks_Phase_5,20,9999,9999,9999,614959184
22,6,23,Ticks_Phase_5,21,9999,9999,9999,615459932
22,6,23,Ticks_Phase_5,22,9999,9999,9999,615959608
22,6,23,Ticks_Phase_5,23,9999,9999,9999,616459364
22,6,23,Ticks_Phase_5,24,9999,9999,9999,616960120
22,6,23,Ticks_Phase_5,25,9999,9999,9999,617470040
22,6,23,Ticks_Phase_5,26,9999,9999,9999,617969724
22,6,23,Ticks_Phase_5,27,9999,9999,9999,618469456
22,6,23,Ticks_Phase_5,28,9999,9999,9999,618969204
22,6,23,Ticks_Phase_5,29,9999,9999,9999,619469888
22,6,23,Ticks_Phase_5,30,9999,9999,9999,619959408
22,6,23,Ticks_Phase_5,31,9999,9999,9999,620459088
22,6,23,Ticks_Phase_5,32,9999,9999,9999,620959840
22,6,23,Ticks_Phase_5,33,9999,9999,9999,621459520
22,6,23,Ticks_Phase_5,34,9999,9999,9999,621959276
22,6,23,Ticks_Phase_5,35,9999,9999,9999,622460028
22,6,23,Ticks_Phase_5,36,9999,9999,9999,622959712
22,6,23,Ticks_Phase_5,37,9999,9999,9999,623459392
22,6,23,Ticks_Phase_5,38,9999,9999,9999,623959152
22,6,23,Ticks_Phase_5,39,9999,9999,9999,624459900
22,6,23,Ticks_Phase_5,40,9999,9999,9999,624959572
22,6,23,Ticks_Phase_5,41,9999,9999,9999,625459252
22,6,23,Ticks_Phase_5,42,9999,9999,9999,625960004
22,6,23,Ticks_Phase_5,43,9999,9999,9999,626459760
22,6,23,Ticks_Phase_5,44,9999,9999,9999,626959468
22,6,23,Ticks_Phase_5,45,9999,9999,9999,627459200
22,6,23,Ticks_Phase_5,46,9999,9999,9999,627959872
22,6,23,Ticks_Phase_5,47,9999,9999,9999,628459604
22,6,23,Ticks_Phase_5,48,9999,9999,9999,628969532
22,6,23,Ticks_Phase_5,49,9999,9999,9999,629469280
22,6,23,Ticks_Phase_5,50,9999,9999,9999,629970028
22,6,23,Ticks_Phase_5,51,9999,9999,9999,630469720
22,6,23,Ticks_Phase_5,52,9999,9999,9999,630969468
22,6,23,Ticks_Phase_5,53,9999,9999,9999,631469152
22,6,23,Ticks_Phase_5,54,9999,9999,9999,631969896
22,6,23,Ticks_Phase_5,55,9999,9999,9999,632469580
22,6,23,Ticks_Phase_5,56,9999,9999,9999,632969340
22,6,23,Ticks_Phase_5,57,9999,9999,9999,633470012
22,6,23,Ticks_Phase_5,58,9999,9999,9999,633969768
22,6,23,Ticks_Phase_5,59,9999,9999,9999,634469452
22,6,23,Ticks_Phase_5,60,9999,9999,9999,634969140
22,6,23,Ticks_Phase_5,61,9999,9999,9999,635469892
22,6,23,Ticks_Phase_5,62,9999,9999,9999,635969640
22,6,23,Ticks_Phase_5,63,9999,9999,9999,636469324
22,6,23,Ticks_Phase_5,64,9999,9999,9999,636989556
22,6,23,Ticks_Phase_5,65,9999,9999,9999,637489236
22,6,23,Ticks_Phase_5,66,9999,9999,9999,637989988
22,6,23,Ticks_Phase_5,67,9999,9999,9999,638489668
22,6,23,Ticks_Phase_5,68,9999,9999,9999,638989428
22,6,23,Ticks_Phase_5,69,9999,9999,9999,639489116
22,6,23,Ticks_Phase_5,70,9999,9999,9999,639989864
22,6,23,Ticks_Phase_5,71,9999,9999,9999,640489588
22,6,23,Ticks_Phase_5,72,9999,9999,9999,640989280
22,6,23,Ticks_Phase_5,73,9999,9999,9999,641490020
22,6,23,Ticks_Phase_5,74,9999,9999,9999,641989712
22,6,23,Ticks_Phase_5,75,9999,9999,9999,642489468
22,6,23,Ticks_Phase_5,76,9999,9999,9999,642989148
22,6,23,Ticks_Phase_5,77,9999,9999,9999,643489888
22,6,23,Ticks_Phase_5,78,9999,9999,9999,643989568
22,6,23,Ticks_Phase_5,79,9999,9999,9999,644489328
22,6,23,Ticks_Phase_5,80,9999,9999,9999,644990008
22,6,23,Ticks_Phase_5,81,9999,9999,9999,645469292
22,6,23,Ticks_Phase_5,82,9999,9999,9999,645970044
22,6,23,Ticks_Phase_5,83,9999,9999,9999,646469720
22,6,23,Ticks_Phase_5,84,9999,9999,9999,646969408
22,6,23,Ticks_Phase_5,85,9999,9999,9999,647469160
22,6,23,Ticks_Phase_5,86,9999,9999,9999,647969916
22,6,23,Ticks_Phase_5,87,9999,9999,9999,648469600
22,6,23,Ticks_Phase_5,88,9999,9999,9999,648969280
22,6,23,Ticks_Phase_5,89,9999,9999,9999,649470020
22,6,23,Ticks_Phase_5,90,9999,9999,9999,649969780
22,6,23,Ticks_Phase_5,91,9999,9999,9999,650469448
22,6,23,Ticks_Phase_5,92,9999,9999,9999,650969172
22,6,23,Ticks_Phase_5,93,9999,9999,9999,651469928
22,6,23,Ticks_Phase_5,94,9999,9999,9999,651969604
22,6,23,Ticks_Phase_5,95,9999,9999,9999,652469368
22,6,23,Ticks_Phase_5,96,9999,9999,9999,652970112
22,6,23,Ticks_Phase_5,97,9999,9999,9999,653419608
22,6,23,Ticks_Phase_5,98,9999,9999,9999,653919360
22,6,23,Ticks_Phase_5,99,9999,9999,9999,654420032
22,6,23,Ticks_Phase_5,100,9999,9999,9999,654919788
22,6,23,Ticks_Phase_5,101,9999,9999,9999,655419472
22,6,23,Ticks_Phase_5,102,9999,9999,9999,655919228
22,6,23,Ticks_Phase_5,103,9999,9999,9999,656419900
22,6,23,Ticks_Phase_5,104,9999,9999,9999,656919668
22,6,23,Ticks_Phase_5,105,9999,9999,9999,657419348
22,6,23,Ticks_Phase_5,106,9999,9999,9999,657920084
22,6,23,Ticks_Phase_5,107,9999,9999,9999,658430076
22,6,23,Ticks_Phase_5,108,9999,9999,9999,658929760
22,6,23,Ticks_Phase_5,109,9999,9999,9999,659429492
22,6,23,Ticks_Phase_5,110,9999,9999,9999,659929172
22,6,23,Ticks_Phase_5,111,9999,9999,9999,660429924
22,6,23,Ticks_Phase_5,112,9999,9999,9999,660929608
22,6,23,Ticks_Phase_5,113,9999,9999,9999,661429364
22,6,23,Ticks_Phase_5,114,9999,9999,9999,661979244
22,6,23,Ticks_Phase_5,115,9999,9999,9999,662480000
22,6,23,Ticks_Phase_5,116,9999,9999,9999,662979680
22,6,23,Ticks_Phase_5,117,9999,9999,9999,663479364
22,6,23,Ticks_Phase_5,118,9999,9999,9999,663979120
22,6,23,Ticks_Phase_5,119,9999,9999,9999,664479868
22,6,23,Ticks_Phase_5,120,9999,9999,9999,664979544
22,6,23,Ticks_Phase_5,121,9999,9999,9999,665479224
22,6,23,Ticks_Phase_5,122,9999,9999,9999,665979980
22,6,23,Ticks_Phase_5,123,9999,9999,9999,666479740
22,6,23,Ticks_Phase_5,124,9999,9999,9999,666979420
22,6,23,Ticks_Phase_5,125,9999,9999,9999,667479096
22,6,23,Ticks_Phase_5,126,9999,9999,9999,667979844
22,6,23,Ticks_Phase_5,127,9999,9999,9999,668479608
22,6,23,Ticks_Phase_5,128,9999,9999,9999,668979292
22,6,23,Ticks_Phase_5,129,9999,9999,9999,669480040
22,6,23,Ticks_Phase_5,130,9999,9999,9999,669979724
22,6,23,Ticks_Phase_5,131,9999,9999,9999,670579768
22,6,23,Ticks_Phase_5,132,9999,9999,9999,671079548
22,6,23,Ticks_Phase_5,133,9999,9999,9999,671579232
22,6,23,Ticks_Phase_5,134,9999,9999,9999,672079980
22,6,23,Ticks_Phase_5,135,9999,9999,9999,672579660
22,6,23,Ticks_Phase_5,136,9999,9999,9999,673079420
22,6,23,Ticks_Phase_5,137,9999,9999,9999,673579092
22,6,23,Ticks_Phase_5,138,9999,9999,9999,674079844
22,6,23,Ticks_Phase_5,139,9999,9999,9999,674579532
22,6,23,Ticks_Phase_5,140,9999,9999,9999,675079288
22,6,23,Ticks_Phase_5,141,9999,9999,9999,675579964
22,6,23,Ticks_Phase_5,142,9999,9999,9999,676079724
22,6,23,Ticks_Phase_5,143,9999,9999,9999,676579448
22,6,23,Ticks_Phase_5,144,9999,9999,9999,677079136
22,6,23,Ticks_Phase_5,145,9999,9999,9999,677579860
22,6,23,Ticks_Phase_5,146,9999,9999,9999,678079616
22,6,23,Ticks_Phase_5,147,9999,9999,9999,678579292
22,6,23,Ticks_Phase_5,148,9999,9999,9999,679080040
22,6,23,Ticks_Phase_5,149,9999,9999,9999,679579724
22,6,23,Ticks_Phase_5,150,9999,9999,9999,679979104
22,6,23,Ticks_Phase_5,151,9999,9999,9999,680479844
22,6,23,Ticks_Phase_5,152,9999,9999,9999,680979508
22,6,23,Ticks_Phase_5,153,9999,9999,9999,681479284
22,6,23,Ticks_Phase_5,154,9999,9999,9999,681979956
22,6,23,Ticks_Phase_5,155,9999,9999,9999,682479716
22,6,23,Ticks_Phase_5,156,9999,9999,9999,682979452
22,6,23,Ticks_Phase_5,157,9999,9999,9999,683479128
22,6,23,Ticks_Phase_5,158,9999,9999,9999,683979876
22,6,23,Ticks_Phase_5,159,9999,9999,9999,684479560
22,6,23,Ticks_Phase_5,160,9999,9999,9999,684979316
22,6,23,Ticks_Phase_5,161,9999,9999,9999,685479992
22,6,23,Ticks_Phase_5,162,9999,9999,9999,685979748
22,6,23,Ticks_Phase_5,163,9999,9999,9999,686479432
22,6,23,Ticks_Phase_5,164,9999,9999,9999,686979188
22,6,23,Ticks_Phase_5,165,9999,9999,9999,687479868
22,6,23,Ticks_Phase_5,166,9999,9999,9999,687979628
22,6,23,Ticks_Phase_5,167,9999,9999,9999,688479300
22,6,23,Ticks_Phase_5,168,9999,9999,9999,688980052
22,6,23,Ticks_Phase_5,169,9999,9999,9999,689479808
22,7,20,Ticks_Linear_8,0,5,42,127,706673116
22,7,20,Ticks_Linear_8,1,5,42,127,707493200
22,7,20,Ticks_Linear_8,2,1,48,51,708280224
22,7,20,Ticks_Linear_8,3,5,42,127,708312512
22,7,20,Ticks_Linear_8,4,1,48,60,709084476
22,7,20,Ticks_Linear_8,5,5,42,127,709132820
22,7,20,Ticks_Linear_8,6,1,48,55,709936188
22,7,20,Ticks_Linear_8,7,5,42,127,709953036
22,7,20,Ticks_Linear_8,8,1,48,55,710750528
22,7,20,Ticks_Linear_8,9,5,42,127,710763008
22,7,20,Ticks_Linear_8,10,5,42,127,711573216
22,7,20,Ticks_Linear_8,11,1,48,51,711611932
22,7,20,Ticks_Linear_8,12,5,42,127,712382812
22,7,20,Ticks_Linear_8,13,1,48,52,712391120
22,7,20,Ticks_Linear_8,14,1,48,55,713187008
22,7,20,Ticks_Linear_8,15,5,42,127,713192956
22,7,20,Ticks_Linear_8,16,5,42,127,714003016
22,7,20,Ticks_Linear_8,17,1,48,53,714017120
22,7,20,Ticks_Linear_8,18,5,42,127,714802524
22,7,20,Ticks_Linear_8,19,1,48,55,714808068
22,7,20,Ticks_Linear_8,20,1,48,56,715602100
22,7,20,Ticks_Linear_8,21,5,42,127,715603928
22,7,20,Ticks_Linear_8,22,1,48,51,716383768
22,7,20,Ticks_Linear_8,23,5,42,127,716402980
22,7,20,Ticks_Linear_8,24,5,42,127,717202804
22,7,20,Ticks_Linear_8,25,1,48,54,717214772
22,7,20,Ticks_Linear_8,26,5,42,127,718002616
22,7,20,Ticks_Linear_8,27,1,48,49,718005264
22,7,20,Ticks_Linear_8,28,5,42,127,718793032
22,7,20,Ticks_Linear_8,29,1,48,51,718808964
22,7,20,Ticks_Linear_8,30,5,42,127,719582684
22,7,20,Ticks_Linear_8,31,1,48,57,719606360
22,7,20,Ticks_Linear_8,32,1,48,48,720362616
22,7,20,Ticks_Linear_8,33,5,42,127,720372964
22,7,20,Ticks_Linear_8,34,5,42,127,721162700
22,7,20,Ticks_Linear_8,35,1,48,50,721179020
22,7,20,Ticks_Linear_8,36,1,48,53,721942760
22,7,20,Ticks_Linear_8,37,5,42,127,721953336
22,7,20,Ticks_Linear_8,38,1,48,48,722711712
22,7,20,Ticks_Linear_8,39,5,42,127,722733440
22,7,20,Ticks_Linear_8,40,5,42,127,723522872
22,7,20,Ticks_Linear_8,41,1,48,48,723537968
22,7,20,Ticks_Linear_8,42,5,42,127,724303356
22,7,20,Ticks_Linear_8,43,1,48,49,724309132
22,7,20,Ticks_Linear_8,44,5,42,127,725082464
22,7,20,Ticks_Linear_8,45,1,48,49,725091536
22,7,20,Ticks_Linear_8,46,5,42,127,725862720
22,7,20,Ticks_Linear_8,47,1,48,49,725888968
22,7,20,Ticks_Linear_8,48,1,48,49,726604884
22,7,20,Ticks_Linear_8,49,5,42,127,726632728
22,7,20,Ticks_Linear_8,50,1,48,46,727382004
22,7,20,Ticks_Linear_8,51,5,42,127,727402824
22,7,20,Ticks_Linear_8,52,5,42,127,728172924
22,7,20,Ticks_Linear_8,53,1,48,48,728184584
22,7,20,Ticks_Linear_8,54,1,48,48,728915240
22,7,20,Ticks_Linear_8,55,5,42,127,728943312
22,7,20,Ticks_Linear_8,56,1,48,44,729682972
22,7,20,Ticks_Linear_8,57,5,42,127,729713104
22,7,20,Ticks_Linear_8,58,5,42,127,730472816
22,7,20,Ticks_Linear_8,59,1,48,46,730473800
22,7,20,Ticks_Linear_8,60,5,42,127,731232748
22,7,20,Ticks_Linear_8,61,1,48,51,731244640
22,7,20,Ticks_Linear_8,62,1,48,46,731992224
22,7,20,Ticks_Linear_8,63,5,42,127,731993816
22,7,20,Ticks_Linear_8,64,1,48,48,732750800
22,7,20,Ticks_Linear_8,65,5,42,127,732753292
22,7,20,Ticks_Linear_8,66,1,48,48,733499736
22,7,20,Ticks_Linear_8,67,5,42,127,733513076
22,7,20,Ticks_Linear_8,68,5,42,127,734262932
22,7,20,Ticks_Linear_8,69,1,48,40,734275816
22,7,20,Ticks_Linear_8,70,5,42,127,735013164
22,7,20,Ticks_Linear_8,71,1,48,49,735026884
22,7,20,Ticks_Linear_8,72,5,42,127,735762860
22,7,20,Ticks_Linear_8,73,1,48,46,735778488
22,7,20,Ticks_Linear_8,74,5,42,127,736513320
22,7,20,Ticks_Linear_8,75,1,48,44,736524212
22,7,20,Ticks_Linear_8,76,1,48,44,737249644
22,7,20,Ticks_Linear_8,77,5,42,127,737263084
22,7,20,Ticks_Linear_8,78,5,42,127,738003288
22,7,20,Ticks_Linear_8,79,1,48,49,738027120
22,7,20,Ticks_Linear_8,80,1,48,47,738741676
22,7,20,Ticks_Linear_8,81,5,42,127,738743504
22,7,20,Ticks_Linear_8,82,1,48,46,739462376
22,7,20,Ticks_Linear_8,83,5,42,127,739482960
22,7,20,Ticks_Linear_8,84,5,42,127,740223420
22,7,20,Ticks_Linear_8,85,1,48,41,740224404
22,7,20,Ticks_Linear_8,86,1,48,46,740962116
22,7,20,Ticks_Linear_8,87,5,42,127,740963864
22,7,20,Ticks_Linear_8,88,5,42,127,741692712
22,7,20,Ticks_Linear_8,89,1,48,41,741745932
22,7,20,Ticks_Linear_8,90,5,42,127,742422848
22,7,20,Ticks_Linear_8,91,1,48,40,742427400
22,7,20,Ticks_Linear_8,92,5,42,127,743153060
22,7,20,Ticks_Linear_8,93,1,48,43,743190784
22,7,20,Ticks_Linear_8,94,1,48,39,743881628
22,7,20,Ticks_Linear_8,95,5,42,127,743883240
22,7,20,Ticks_Linear_8,96,5,42,127,744613312
22,7,20,Ticks_Linear_8,97,1,48,37,744638496
22,7,20,Ticks_Linear_8,98,5,42,127,745333136
22,7,20,Ticks_Linear_8,99,1,48,33,745351220
22,7,20,Ticks_Linear_8,100,1,48,42,746041460
22,7,20,Ticks_Linear_8,101,5,42,127,746053328
22,7,20,Ticks_Linear_8,102,1,48,36,746767308
22,7,20,Ticks_Linear_8,103,5,42,127,746772776
22,7,20,Ticks_Linear_8,104,1,48,47,747491264
22,7,20,Ticks_Linear_8,105,5,42,127,747493128
22,7,20,Ticks_Linear_8,106,1,48,48,748197156
22,7,20,Ticks_Linear_8,107,5,42,127,748212552
22,7,20,Ticks_Linear_8,108,5,42,127,748923516
22,7,20,Ticks_Linear_8,109,1,48,44,748925264
22,7,20,Ticks_Linear_8,110,5,42,127,749632800
22,7,20,Ticks_Linear_8,111,1,48,41,749636508
22,7,20,Ticks_Linear_8,112,1,48,40,750342388
22,7,20,Ticks_Linear_8,113,5,42,127,750344288
22,7,20,Ticks_Linear_8,114,5,42,127,751053092
22,7,20,Ticks_Linear_8,115,1,48,36,751070868
22,7,20,Ticks_Linear_8,116,5,42,127,751762756
22,7,20,Ticks_Linear_8,117,1,48,50,751764120
22,7,20,Ticks_Linear_8,118,1,48,48,752434168
22,7,20,Ticks_Linear_8,119,5,42,127,752463392
22,7,20,Ticks_Linear_8,120,1,48,44,753144824
22,7,20,Ticks_Linear_8,121,5,42,127,753162516
22,7,20,Ticks_Linear_8,122,1,48,43,753848352
22,7,20,Ticks_Linear_8,123,5,42,127,753862984
22,7,20,Ticks_Linear_8,124,5,42,127,754562340
22,7,20,Ticks_Linear_8,125,1,48,45,754565140
22,7,20,Ticks_Linear_8,126,5,42,127,755263064
22,7,20,Ticks_Linear_8,127,1,48,40,755275712
22,7,20,Ticks_Linear_8,128,1,48,38,755950512
22,7,20,Ticks_Linear_8,129,5,42,127,755953080
22,7,20,Ticks_Linear_8,130,1,48,42,756623492
22,7,20,Ticks_Linear_8,131,5,42,127,756643160
22,7,20,Ticks_Linear_8,132,1,48,37,757309920
22,7,20,Ticks_Linear_8,133,5,42,127,757333344
22,7,20,Ticks_Linear_8,134,1,48,43,758004920
22,7,20,Ticks_Linear_8,135,5,42,127,758022608
22,7,20,Ticks_Linear_8,136,1,48,42,758694540
22,7,20,Ticks_Linear_8,137,5,42,127,758712916
22,7,20,Ticks_Linear_8,138,1,48,38,759367148
22,7,20,Ticks_Linear_8,139,5,42,127,759392780
22,7,20,Ticks_Linear_8,140,5,42,127,760072656
22,7,20,Ticks_Linear_8,141,1,48,38,760112136
22,7,20,Ticks_Linear_8,142,5,42,127,760752652
22,7,20,Ticks_Linear_8,143,1,48,41,760757204
22,7,20,Ticks_Linear_8,144,1,48,43,761415280
22,7,20,Ticks_Linear_8,145,5,42,127,761432432
22,7,20,Ticks_Linear_8,146,1,48,43,762100716
22,7,20,Ticks_Linear_8,147,5,42,127,762113596
22,7,20,Ticks_Linear_8,148,5,42,127,762783212
22,7,20,Ticks_Linear_8,149,1,48,50,762802820
22,7,20,Ticks_Linear_8,150,5,42,127,763452688
22,7,20,Ticks_Linear_8,151,1,48,42,763475652
22,7,20,Ticks_Linear_8,152,1,48,46,764113764
22,7,20,Ticks_Linear_8,153,5,42,127,764122588
22,7,20,Ticks_Linear_8,154,5,42,127,764793220
22,7,20,Ticks_Linear_8,155,1,48,44,764808544
22,7,20,Ticks_Linear_8,156,5,42,127,765462776
22,7,20,Ticks_Linear_8,157,1,48,31,765488104
22,7,20,Ticks_Linear_8,158,5,42,127,766123592
22,7,20,Ticks_Linear_8,159,1,48,41,766141292
22,7,20,Ticks_Linear_8,160,1,48,47,766772628
22,7,20,Ticks_Linear_8,161,5,42,127,766782824
22,7,20,Ticks_Linear_8,162,1,48,45,767418308
22,7,20,Ticks_Linear_8,163,5,42,127,767443488
22,7,20,Ticks_Linear_8,164,5,42,127,768102736
22,7,20,Ticks_Linear_8,165,1,48,45,768105840
22,7,20,Ticks_Linear_8,166,1,48,41,768746184
22,7,20,Ticks_Linear_8,167,5,42,127,768763340
22,7,20,Ticks_Linear_8,168,1,48,43,769404564
22,7,20,Ticks_Linear_8,169,5,42,127,769412624
22,7,20,Ticks_Linear_8,170,1,48,43,770056156
22,7,20,Ticks_Linear_8,171,5,42,127,770062620
22,7,20,Ticks_Linear_8,172,1,48,33,770691772
22,7,20,Ticks_Linear_8,173,5,42,127,770712896
22,7,20,Ticks_Linear_8,174,5,42,127,771363276
22,7,20,Ticks_Linear_8,175,1,48,42,771369204
22,7,20,Ticks_Linear_8,176,5,42,127,772013400
22,7,20,Ticks_Linear_8,177,1,48,36,772033388
22,7,20,Ticks_Linear_8,178,5,42,127,772653384
22,7,20,Ticks_Linear_8,179,1,48,38,772664820
22,7,20,Ticks_Linear_8,180,5,42,127,773293348
22,7,20,Ticks_Linear_8,181,1,48,41,773325784
22,7,20,Ticks_Linear_8,182,5,42,127,773933488
22,7,20,Ticks_Linear_8,183,1,48,46,773945072
22,7,20,Ticks_Linear_8,184,1,48,41,774571288
22,7,20,Ticks_Linear_8,185,5,42,127,774573288
22,7,20,Ticks_Linear_8,186,5,42,127,775213360
22,7,20,Ticks_Linear_8,187,1,48,44,775230684
22,7,20,Ticks_Linear_8,188,1,48,37,775846548
22,7,20,Ticks_Linear_8,189,5,42,127,775853468
22,7,20,Ticks_Linear_8,190,1,48,37,776490428
22,7,20,Ticks_Linear_8,191,5,42,127,776493528
22,7,20,Ticks_Linear_8,192,5,42,127,777133424
22,7,20,Ticks_Linear_8,193,1,48,40,777138208
22,7,20,Ticks_Linear_8,194,5,42,127,777773488
22,7,20,Ticks_Linear_8,195,1,48,44,777778728
22,7,20,Ticks_Linear_8,196,5,42,127,778413372
22,7,20,Ticks_Linear_8,197,1,48,43,778415936
22,7,20,Ticks_Linear_8,198,5,42,127,779043120
22,7,20,Ticks_Linear_8,199,1,48,47,779052644
22,7,20,Ticks_Linear_8,200,5,42,127,779663064
22,7,20,Ticks_Linear_8,201,1,48,38,779667924
22,7,20,Ticks_Linear_8,202,1,48,44,780254160
22,7,20,Ticks_Linear_8,203,5,42,127,780283104
22,7,20,Ticks_Linear_8,204,1,48,41,780899796
22,7,20,Ticks_Linear_8,205,5,42,127,780902972
22,7,20,Ticks_Linear_8,206,5,42,127,781523384
22,7,20,Ticks_Linear_8,207,1,48,49,781550268
22,7,20,Ticks_Linear_8,208,1,48,46,782087916
22,7,20,Ticks_Linear_8,209,5,42,127,782132804
22,7,20,Ticks_Linear_8,210,5,42,127,782742980
22,7,20,Ticks_Linear_8,211,1,48,45,782768240
22,7,20,Ticks_Linear_8,212,5,42,127,783353324
22,7,20,Ticks_Linear_8,213,1,48,44,783378200
22,7,20,Ticks_Linear_8,214,5,42,127,783962420
22,7,20,Ticks_Linear_8,215,1,48,48,783967432
22,7,20,Ticks_Linear_8,216,5,42,127,784572740
22,7,20,Ticks_Linear_8,217,1,48,39,784595780
22,7,20,Ticks_Linear_8,218,5,42,127,785172772
22,7,20,Ticks_Linear_8,219,1,48,42,785184892
22,7,20,Ticks_Linear_8,220,1,48,43,785754852
22,7,20,Ticks_Linear_8,221,5,42,127,785773000
22,7,20,Ticks_Linear_8,222,5,42,127,786373088
22,7,20,Ticks_Linear_8,223,1,48,45,786400020
22,7,20,Ticks_Linear_8,224,1,48,47,786955576
22,7,20,Ticks_Linear_8,225,5,42,127,786972956
22,7,20,Ticks_Linear_8,226,1,48,33,787560632
22,7,20,Ticks_Linear_8,227,5,42,127,787573040
22,7,20,Ticks_Linear_8,228,5,42,127,788163044
22,7,20,Ticks_Linear_8,229,1,48,41,788205672
22,7,20,Ticks_Linear_8,230,1,48,49,788748964
22,7,20,Ticks_Linear_8,231,5,42,127,788752828
22,7,20,Ticks_Linear_8,232,5,42,127,789342756
22,7,20,Ticks_Linear_8,233,1,48,44,789347540
22,7,20,Ticks_Linear_8,234,5,42,127,789933364
22,7,20,Ticks_Linear_8,235,1,48,42,789935264
22,7,20,Ticks_Linear_8,236,5,42,127,790532480
22,7,20,Ticks_Linear_8,237,1,48,46,790537872
22,7,20,Ticks_Linear_8,238,5,42,127,791113004
22,7,20,Ticks_Linear_8,239,1,48,44,791120228
22,7,20,Ticks_Linear_8,240,5,42,127,791692764
22,7,20,Ticks_Linear_8,241,1,48,45,791703280
22,7,20,Ticks_Linear_8,242,5,42,127,792273360
22,7,20,Ticks_Linear_8,243,1,48,46,792276008
22,7,20,Ticks_Linear_8,244,1,48,40,792843856
22,7,20,Ticks_Linear_8,245,5,42,127,792852832
22,7,20,Ticks_Linear_8,246,5,42,127,793432524
22,7,20,Ticks_Linear_8,247,1,48,41,793440524
22,7,20,Ticks_Linear_8,248,5,42,127,794002884
22,7,20,Ticks_Linear_8,249,1,48,41,794017748
22,7,20,Ticks_Linear_8,250,5,42,127,794573400
22,7,20,Ticks_Linear_8,251,1,48,45,794606632
22,7,20,Ticks_Linear_8,252,1,48,44,795124560
22,7,20,Ticks_Linear_8,253,5,42,127,795142480
22,7,20,Ticks_Linear_8,254,5,42,127,795712852
22,7,20,Ticks_Linear_8,255,1,48,35,795737800
22,7,20,Ticks_Linear_8,256,1,48,43,796275448
22,7,20,Ticks_Linear_8,257,5,42,127,796283284
22,7,20,Ticks_Linear_8,258,5,42,127,796843488
22,7,20,Ticks_Linear_8,259,1,48,41,796866228
22,7,20,Ticks_Linear_8,260,1,48,43,797390116
22,7,20,Ticks_Linear_8,261,5,42,127,797402536
22,7,20,Ticks_Linear_8,262,1,48,43,797942480
22,7,20,Ticks_Linear_8,263,5,42,127,797962688
22,7,20,Ticks_Linear_8,264,5,42,127,798522668
22,7,20,Ticks_Linear_8,265,1,48,38,798569388
22,7,20,Ticks_Linear_8,266,5,42,127,799082868
22,7,20,Ticks_Linear_8,267,1,48,40,799088032
22,7,20,Ticks_Linear_8,268,5,42,127,799632680
22,7,20,Ticks_Linear_8,269,1,48,42,799667028
22,7,20,Ticks_Linear_8,270,1,48,45,800156084
22,7,20,Ticks_Linear_8,271,5,42,127,800182788
22,7,20,Ticks_Linear_8,272,1,48,34,800703912
22,7,20,Ticks_Linear_8,273,5,42,127,800732448
22,7,20,Ticks_Linear_8,274,1,48,42,801270472
22,7,20,Ticks_Linear_8,275,5,42,127,801282360
22,7,20,Ticks_Linear_8,276,1,48,40,801824716
22,7,20,Ticks_Linear_8,277,5,42,127,801833240
22,7,20,Ticks_Linear_8,278,1,48,35,802348552
22,7,20,Ticks_Linear_8,279,5,42,127,802373040
22,7,20,Ticks_Linear_8,280,1,48,43,802862692
22,7,20,Ticks_Linear_8,281,5,42,127,802912768
22,7,20,Ticks_Linear_8,282,1,48,42,803449932
22,7,20,Ticks_Linear_8,283,5,42,127,803453184
22,7,20,Ticks_Linear_8,284,5,42,127,803992916
22,7,20,Ticks_Linear_8,285,1,48,41,804004964
22,7,20,Ticks_Linear_8,286,1,48,45,804499356
22,7,20,Ticks_Linear_8,287,5,42,127,804532560
22,7,20,Ticks_Linear_8,288,1,48,38,805033968
22,7,20,Ticks_Linear_8,289,5,42,127,805062964
22,7,20,Ticks_Linear_8,290,1,48,39,805589280
22,7,20,Ticks_Linear_8,291,5,42,127,805592452
22,7,20,Ticks_Linear_8,292,5,42,127,806122892
22,7,20,Ticks_Linear_8,293,1,48,32,806159380
22,7,20,Ticks_Linear_8,294,1,48,47,806643624
22,7,20,Ticks_Linear_8,295,5,42,127,806653288
22,7,20,Ticks_Linear_8,296,1,48,40,807138500
22,7,20,Ticks_Linear_8,297,5,42,127,807183084
22,7,20,Ticks_Linear_8,298,1,48,50,807694660
22,7,20,Ticks_Linear_8,299,5,42,127,807703024
22,7,20,Ticks_Linear_8,300,1,48,49,808220884
22,7,20,Ticks_Linear_8,301,5,42,127,808223040
22,7,20,Ticks_Linear_8,302,1,48,45,808717424
22,7,20,Ticks_Linear_8,303,5,42,127,808743208
22,7,20,Ticks_Linear_8,304,1,48,43,809246988
22,7,20,Ticks_Linear_8,305,5,42,127,809262612
22,7,20,Ticks_Linear_8,306,5,42,127,809782712
22,7,20,Ticks_Linear_8,307,1,48,41,809791168
22,7,20,Ticks_Linear_8,308,1,48,49,810292720
22,7,20,Ticks_Linear_8,309,5,42,127,810294468
22,7,20,Ticks_Linear_8,310,1,48,46,810796028
22,7,20,Ticks_Linear_8,311,5,42,127,810802488
22,7,20,Ticks_Linear_8,312,1,48,47,811282360
22,7,20,Ticks_Linear_8,313,5,42,127,811312500
22,7,20,Ticks_Linear_8,314,1,48,38,811801004
22,7,20,Ticks_Linear_8,315,5,42,127,811822580
22,7,20,Ticks_Linear_8,316,1,48,43,812319024
22,7,20,Ticks_Linear_8,317,5,42,127,812333580
22,7,20,Ticks_Linear_8,318,1,48,44,812822088
22,7,20,Ticks_Linear_8,319,5,42,127,812843436
22,7,20,Ticks_Linear_8,320,5,42,127,813343064
22,7,20,Ticks_Linear_8,321,1,48,38,813359304
22,7,20,Ticks_Linear_8,322,5,42,127,813842908
22,7,20,Ticks_Linear_8,323,1,48,46,813848612
22,7,20,Ticks_Linear_8,324,5,42,127,814342452
22,7,20,Ticks_Linear_8,325,1,48,42,814343360
22,7,20,Ticks_Linear_8,326,5,42,127,814843440
22,7,20,Ticks_Linear_8,327,1,48,50,814855636
22,7,20,Ticks_Linear_8,328,1,48,47,815322820
22,7,20,Ticks_Linear_8,329,5,42,127,815332588
22,7,20,Ticks_Linear_8,330,1,48,43,815787744
22,7,20,Ticks_Linear_8,331,5,42,127,815823464
22,7,20,Ticks_Linear_8,332,1,48,40,816297528
22,7,20,Ticks_Linear_8,333,5,42,127,816312772
22,7,20,Ticks_Linear_8,334,1,48,44,816773540
22,7,20,Ticks_Linear_8,335,5,42,127,816803292
22,7,20,Ticks_Linear_8,336,1,48,40,817269024
22,7,20,Ticks_Linear_8,337,5,42,127,817292600
22,7,20,Ticks_Linear_8,0,9999,9999,9999,706670700
22,7,20,Ticks_Linear_8,1,9999,9999,9999,707490936
22,7,20,Ticks_Linear_8,2,9999,9999,9999,708310096
22,7,20,Ticks_Linear_8,3,9999,9999,9999,709130328
22,7,20,Ticks_Linear_8,4,9999,9999,9999,709950540
22,7,20,Ticks_Linear_8,5,9999,9999,9999,710760516
22,7,20,Ticks_Linear_8,6,9999,9999,9999,711570500
22,7,20,Ticks_Linear_8,7,9999,9999,9999,712380472
22,7,20,Ticks_Linear_8,8,9999,9999,9999,713190540
22,7,20,Ticks_Linear_8,9,9999,9999,9999,714000444
22,7,20,Ticks_Linear_8,10,9999,9999,9999,714800184
22,7,20,Ticks_Linear_8,11,9999,9999,9999,715600988
22,7,20,Ticks_Linear_8,12,9999,9999,9999,716400716
22,7,20,Ticks_Linear_8,13,9999,9999,9999,717200464
22,7,20,Ticks_Linear_8,14,9999,9999,9999,718000196
22,7,20,Ticks_Linear_8,15,9999,9999,9999,718790764
22,7,20,Ticks_Linear_8,16,9999,9999,9999,719580264
22,7,20,Ticks_Linear_8,17,9999,9999,9999,720370776
22,7,20,Ticks_Linear_8,18,9999,9999,9999,721160284
22,7,20,Ticks_Linear_8,19,9999,9999,9999,721950844
22,7,20,Ticks_Linear_8,20,9999,9999,9999,722731100
22,7,20,Ticks_Linear_8,21,9999,9999,9999,723520608
22,7,20,Ticks_Linear_8,22,9999,9999,9999,724300860
22,7,20,Ticks_Linear_8,23,9999,9999,9999,725080124
22,7,20,Ticks_Linear_8,24,9999,9999,9999,725860456
22,7,20,Ticks_Linear_8,25,9999,9999,9999,726630464
22,7,20,Ticks_Linear_8,26,9999,9999,9999,727400560
22,7,20,Ticks_Linear_8,27,9999,9999,9999,728170584
22,7,20,Ticks_Linear_8,28,9999,9999,9999,728940672
22,7,20,Ticks_Linear_8,29,9999,9999,9999,729710688
22,7,20,Ticks_Linear_8,30,9999,9999,9999,730470476
22,7,20,Ticks_Linear_8,31,9999,9999,9999,731230332
22,7,20,Ticks_Linear_8,32,9999,9999,9999,731990112
22,7,20,Ticks_Linear_8,33,9999,9999,9999,732750952
22,7,20,Ticks_Linear_8,34,9999,9999,9999,733510732
22,7,20,Ticks_Linear_8,35,9999,9999,9999,734260288
22,7,20,Ticks_Linear_8,36,9999,9999,9999,735010896
22,7,20,Ticks_Linear_8,37,9999,9999,9999,735760440
22,7,20,Ticks_Linear_8,38,9999,9999,9999,736511052
22,7,20,Ticks_Linear_8,39,9999,9999,9999,737260664
22,7,20,Ticks_Linear_8,40,9999,9999,9999,738001020
22,7,20,Ticks_Linear_8,41,9999,9999,9999,738740332
22,7,20,Ticks_Linear_8,42,9999,9999,9999,739480696
22,7,20,Ticks_Linear_8,43,9999,9999,9999,740221004
22,7,20,Ticks_Linear_8,44,9999,9999,9999,740960312
22,7,20,Ticks_Linear_8,45,9999,9999,9999,741690448
22,7,20,Ticks_Linear_8,46,9999,9999,9999,742420584
22,7,20,Ticks_Linear_8,47,9999,9999,9999,743150720
22,7,20,Ticks_Linear_8,48,9999,9999,9999,743880756
22,7,20,Ticks_Linear_8,49,9999,9999,9999,744610892
22,7,20,Ticks_Linear_8,50,9999,9999,9999,745330792
22,7,20,Ticks_Linear_8,51,9999,9999,9999,746050684
22,7,20,Ticks_Linear_8,52,9999,9999,9999,746770508
22,7,20,Ticks_Linear_8,53,9999,9999,9999,747490392
22,7,20,Ticks_Linear_8,54,9999,9999,9999,748210284
22,7,20,Ticks_Linear_8,55,9999,9999,9999,748920948
22,7,20,Ticks_Linear_8,56,9999,9999,9999,749630536
22,7,20,Ticks_Linear_8,57,9999,9999,9999,750340200
22,7,20,Ticks_Linear_8,58,9999,9999,9999,751050828
22,7,20,Ticks_Linear_8,59,9999,9999,9999,751760492
22,7,20,Ticks_Linear_8,60,9999,9999,9999,752460900
22,7,20,Ticks_Linear_8,61,9999,9999,9999,753160252
22,7,20,Ticks_Linear_8,62,9999,9999,9999,753860720
22,7,20,Ticks_Linear_8,63,9999,9999,9999,754560076
22,7,20,Ticks_Linear_8,64,9999,9999,9999,755260492
22,7,20,Ticks_Linear_8,65,9999,9999,9999,755950664
22,7,20,Ticks_Linear_8,66,9999,9999,9999,756640896
22,7,20,Ticks_Linear_8,67,9999,9999,9999,757331000
22,7,20,Ticks_Linear_8,68,9999,9999,9999,758020192
22,7,20,Ticks_Linear_8,69,9999,9999,9999,758710348
22,7,20,Ticks_Linear_8,70,9999,9999,9999,759390288
22,7,20,Ticks_Linear_8,71,9999,9999,9999,760070240
22,7,20,Ticks_Linear_8,72,9999,9999,9999,760750160
22,7,20,Ticks_Linear_8,73,9999,9999,9999,761430092
22,7,20,Ticks_Linear_8,74,9999,9999,9999,762111104
22,7,20,Ticks_Linear_8,75,9999,9999,9999,762780796
22,7,20,Ticks_Linear_8,76,9999,9999,9999,763450424
22,7,20,Ticks_Linear_8,77,9999,9999,9999,764120172
22,7,20,Ticks_Linear_8,78,9999,9999,9999,764790880
22,7,20,Ticks_Linear_8,79,9999,9999,9999,765460584
22,7,20,Ticks_Linear_8,80,9999,9999,9999,766121020
22,7,20,Ticks_Linear_8,81,9999,9999,9999,766780484
22,7,20,Ticks_Linear_8,82,9999,9999,9999,767440996
22,7,20,Ticks_Linear_8,83,9999,9999,9999,768100472
22,7,20,Ticks_Linear_8,84,9999,9999,9999,768760924
22,7,20,Ticks_Linear_8,85,9999,9999,9999,769410132
22,7,20,Ticks_Linear_8,86,9999,9999,9999,770060356
22,7,20,Ticks_Linear_8,87,9999,9999,9999,770710628
22,7,20,Ticks_Linear_8,88,9999,9999,9999,771360860
22,7,20,Ticks_Linear_8,89,9999,9999,9999,772011132
22,7,20,Ticks_Linear_8,90,9999,9999,9999,772651120
22,7,20,Ticks_Linear_8,91,9999,9999,9999,773291084
22,7,20,Ticks_Linear_8,92,9999,9999,9999,773931072
22,7,20,Ticks_Linear_8,93,9999,9999,9999,774571064
22,7,20,Ticks_Linear_8,94,9999,9999,9999,775211096
22,7,20,Ticks_Linear_8,95,9999,9999,9999,775851124
22,7,20,Ticks_Linear_8,96,9999,9999,9999,776491112
22,7,20,Ticks_Linear_8,97,9999,9999,9999,777131084
22,7,20,Ticks_Linear_8,98,9999,9999,9999,777771072
22,7,20,Ticks_Linear_8,99,9999,9999,9999,778411108
22,7,20,Ticks_Linear_8,100,9999,9999,9999,779040856
22,7,20,Ticks_Linear_8,101,9999,9999,9999,779660344
22,7,20,Ticks_Linear_8,102,9999,9999,9999,780280916
22,7,20,Ticks_Linear_8,103,9999,9999,9999,780900480
22,7,20,Ticks_Linear_8,104,9999,9999,9999,781520964
22,7,20,Ticks_Linear_8,105,9999,9999,9999,782130236
22,7,20,Ticks_Linear_8,106,9999,9999,9999,782740564
22,7,20,Ticks_Linear_8,107,9999,9999,9999,783350908
22,7,20,Ticks_Linear_8,108,9999,9999,9999,783960156
22,7,20,Ticks_Linear_8,109,9999,9999,9999,784570472
22,7,20,Ticks_Linear_8,110,9999,9999,9999,785170508
22,7,20,Ticks_Linear_8,111,9999,9999,9999,785770584
22,7,20,Ticks_Linear_8,112,9999,9999,9999,786370672
22,7,20,Ticks_Linear_8,113,9999,9999,9999,786970692
22,7,20,Ticks_Linear_8,114,9999,9999,9999,787570772
22,7,20,Ticks_Linear_8,115,9999,9999,9999,788160628
22,7,20,Ticks_Linear_8,116,9999,9999,9999,788750412
22,7,20,Ticks_Linear_8,117,9999,9999,9999,789340264
22,7,20,Ticks_Linear_8,118,9999,9999,9999,789931100
22,7,20,Ticks_Linear_8,119,9999,9999,9999,790530140
22,7,20,Ticks_Linear_8,120,9999,9999,9999,791110736
22,7,20,Ticks_Linear_8,121,9999,9999,9999,791690344
22,7,20,Ticks_Linear_8,122,9999,9999,9999,792270944
22,7,20,Ticks_Linear_8,123,9999,9999,9999,792850492
22,7,20,Ticks_Linear_8,124,9999,9999,9999,793430108
22,7,20,Ticks_Linear_8,125,9999,9999,9999,794000468
22,7,20,Ticks_Linear_8,126,9999,9999,9999,794570828
22,7,20,Ticks_Linear_8,127,9999,9999,9999,795140216
22,7,20,Ticks_Linear_8,128,9999,9999,9999,795710588
22,7,20,Ticks_Linear_8,129,9999,9999,9999,796280940
22,7,20,Ticks_Linear_8,130,9999,9999,9999,796841072
22,7,20,Ticks_Linear_8,131,9999,9999,9999,797400120
22,7,20,Ticks_Linear_8,132,9999,9999,9999,797960272
22,7,20,Ticks_Linear_8,133,9999,9999,9999,798520404
22,7,20,Ticks_Linear_8,134,9999,9999,9999,799080528
22,7,20,Ticks_Linear_8,135,9999,9999,9999,799630416
22,7,20,Ticks_Linear_8,136,9999,9999,9999,800180296
22,7,20,Ticks_Linear_8,137,9999,9999,9999,800730184
22,7,20,Ticks_Linear_8,138,9999,9999,9999,801280096
22,7,20,Ticks_Linear_8,139,9999,9999,9999,801830976
22,7,20,Ticks_Linear_8,140,9999,9999,9999,802370624
22,7,20,Ticks_Linear_8,141,9999,9999,9999,802910276
22,7,20,Ticks_Linear_8,142,9999,9999,9999,803450992
22,7,20,Ticks_Linear_8,143,9999,9999,9999,803990652
22,7,20,Ticks_Linear_8,144,9999,9999,9999,804530296
22,7,20,Ticks_Linear_8,145,9999,9999,9999,805060700
22,7,20,Ticks_Linear_8,146,9999,9999,9999,805590112
22,7,20,Ticks_Linear_8,147,9999,9999,9999,806120552
22,7,20,Ticks_Linear_8,148,9999,9999,9999,806650948
22,7,20,Ticks_Linear_8,149,9999,9999,9999,807180360
22,7,20,Ticks_Linear_8,150,9999,9999,9999,807700608
22,7,20,Ticks_Linear_8,151,9999,9999,9999,808220740
22,7,20,Ticks_Linear_8,152,9999,9999,9999,808740944
22,7,20,Ticks_Linear_8,153,9999,9999,9999,809260120
22,7,20,Ticks_Linear_8,154,9999,9999,9999,809780296
22,7,20,Ticks_Linear_8,155,9999,9999,9999,810290304
22,7,20,Ticks_Linear_8,156,9999,9999,9999,810800224
22,7,20,Ticks_Linear_8,157,9999,9999,9999,811310156
22,7,20,Ticks_Linear_8,158,9999,9999,9999,811820088
22,7,20,Ticks_Linear_8,159,9999,9999,9999,812331088
22,7,20,Ticks_Linear_8,160,9999,9999,9999,812841020
22,7,20,Ticks_Linear_8,161,9999,9999,9999,813340796
22,7,20,Ticks_Linear_8,162,9999,9999,9999,813840492
22,7,20,Ticks_Linear_8,163,9999,9999,9999,814340184
22,7,20,Ticks_Linear_8,164,9999,9999,9999,814840948
22,7,20,Ticks_Linear_8,165,9999,9999,9999,815330396
22,7,20,Ticks_Linear_8,166,9999,9999,9999,815820896
22,7,20,Ticks_Linear_8,167,9999,9999,9999,816310356
22,7,20,Ticks_Linear_8,168,9999,9999,9999,816800876
22,7,20,Ticks_Linear_8,169,9999,9999,9999,817290332
22,8,21,Ticks_Linear_5,0,5,42,127,842536356
22,8,21,Ticks_Linear_5,1,5,42,127,843015448
22,8,21,Ticks_Linear_5,2,5,42,127,843495760
22,8,21,Ticks_Linear_5,3,1,48,38,843944828
22,8,21,Ticks_Linear_5,4,5,42,127,843976188
22,8,21,Ticks_Linear_5,5,1,48,61,844440240
22,8,21,Ticks_Linear_5,6,5,42,127,844456248
22,8,21,Ticks_Linear_5,7,1,48,62,844915492
22,8,21,Ticks_Linear_5,8,5,42,127,844946008
22,8,21,Ticks_Linear_5,9,1,48,57,845404568
22,8,21,Ticks_Linear_5,10,5,42,127,845436380
22,8,21,Ticks_Linear_5,11,1,48,53,845878360
22,8,21,Ticks_Linear_5,12,5,42,127,845925988
22,8,21,Ticks_Linear_5,13,1,48,55,846378580
22,8,21,Ticks_Linear_5,14,5,42,127,846416284
22,8,21,Ticks_Linear_5,15,1,48,52,846871240
22,8,21,Ticks_Linear_5,16,5,42,127,846905740
22,8,21,Ticks_Linear_5,17,1,48,48,847341140
22,8,21,Ticks_Linear_5,18,5,42,127,847405360
22,8,21,Ticks_Linear_5,19,1,48,48,847864296
22,8,21,Ticks_Linear_5,20,5,42,127,847906196
22,8,21,Ticks_Linear_5,21,1,48,49,848383156
22,8,21,Ticks_Linear_5,22,5,42,127,848405964
22,8,21,Ticks_Linear_5,23,1,48,41,848904436
22,8,21,Ticks_Linear_5,24,5,42,127,848906272
22,8,21,Ticks_Linear_5,25,1,48,48,849390408
22,8,21,Ticks_Linear_5,26,5,42,127,849406340
22,8,21,Ticks_Linear_5,27,1,48,47,849884048
22,8,21,Ticks_Linear_5,28,5,42,127,849916248
22,8,21,Ticks_Linear_5,29,1,48,45,850412992
22,8,21,Ticks_Linear_5,30,5,42,127,850426104
22,8,21,Ticks_Linear_5,31,1,48,45,850908496
22,8,21,Ticks_Linear_5,32,5,42,127,850936260
22,8,21,Ticks_Linear_5,33,1,48,45,851417484
22,8,21,Ticks_Linear_5,34,5,42,127,851446268
22,8,21,Ticks_Linear_5,35,1,48,49,851939660
22,8,21,Ticks_Linear_5,36,5,42,127,851956048
22,8,21,Ticks_Linear_5,37,1,48,47,852433060
22,8,21,Ticks_Linear_5,38,5,42,127,852476212
22,8,21,Ticks_Linear_5,39,1,48,47,852982892
22,8,21,Ticks_Linear_5,40,5,42,127,852995616
22,8,21,Ticks_Linear_5,41,1,48,42,853511768
22,8,21,Ticks_Linear_5,42,5,42,127,853515556
22,8,21,Ticks_Linear_5,43,1,48,42,854014828
22,8,21,Ticks_Linear_5,44,5,42,127,854035800
22,8,21,Ticks_Linear_5,45,1,48,48,854554040
22,8,21,Ticks_Linear_5,46,5,42,127,854556044
22,8,21,Ticks_Linear_5,47,1,48,45,855062108
22,8,21,Ticks_Linear_5,48,5,42,127,855085684
22,8,21,Ticks_Linear_5,49,1,48,45,855588848
22,8,21,Ticks_Linear_5,50,5,42,127,855615860
22,8,21,Ticks_Linear_5,51,1,48,44,856122388
22,8,21,Ticks_Linear_5,52,5,42,127,856146568
22,8,21,Ticks_Linear_5,53,1,48,45,856664028
22,8,21,Ticks_Linear_5,54,5,42,127,856675752
22,8,21,Ticks_Linear_5,55,1,48,46,857184280
22,8,21,Ticks_Linear_5,56,5,42,127,857206232
22,8,21,Ticks_Linear_5,57,1,48,48,857730108
22,8,21,Ticks_Linear_5,58,5,42,127,857745732
22,8,21,Ticks_Linear_5,59,1,48,45,858256468
22,8,21,Ticks_Linear_5,60,5,42,127,858285304
22,8,21,Ticks_Linear_5,61,1,48,48,858797720
22,8,21,Ticks_Linear_5,62,5,42,127,858826024
22,8,21,Ticks_Linear_5,63,1,48,42,859336988
22,8,21,Ticks_Linear_5,64,5,42,127,859365700
22,8,21,Ticks_Linear_5,65,1,48,43,859896908
22,8,21,Ticks_Linear_5,66,5,42,127,859906420
22,8,21,Ticks_Linear_5,67,1,48,43,860430056
22,8,21,Ticks_Linear_5,68,5,42,127,860465548
22,8,21,Ticks_Linear_5,69,1,48,42,861005392
22,8,21,Ticks_Linear_5,70,5,42,127,861016352
22,8,21,Ticks_Linear_5,71,1,48,36,861557876
22,8,21,Ticks_Linear_5,72,5,42,127,861575560
22,8,21,Ticks_Linear_5,73,1,48,47,862116240
22,8,21,Ticks_Linear_5,74,5,42,127,862125296
22,8,21,Ticks_Linear_5,75,1,48,46,862668496
22,8,21,Ticks_Linear_5,76,5,42,127,862676324
22,8,21,Ticks_Linear_5,77,1,48,47,863214360
22,8,21,Ticks_Linear_5,78,5,42,127,863235408
22,8,21,Ticks_Linear_5,79,5,42,127,863795540
22,8,21,Ticks_Linear_5,80,1,48,32,863799788
22,8,21,Ticks_Linear_5,81,1,48,32,864333452
22,8,21,Ticks_Linear_5,82,5,42,127,864355656
22,8,21,Ticks_Linear_5,83,1,48,38,864903128
22,8,21,Ticks_Linear_5,84,5,42,127,864916008
22,8,21,Ticks_Linear_5,85,1,48,38,865442548
22,8,21,Ticks_Linear_5,86,5,42,127,865476056
22,8,21,Ticks_Linear_5,87,1,48,36,866044212
22,8,21,Ticks_Linear_5,88,5,42,127,866046216
22,8,21,Ticks_Linear_5,89,5,42,127,866615744
22,8,21,Ticks_Linear_5,90,1,48,40,866616804
22,8,21,Ticks_Linear_5,91,1,48,36,867183224
22,8,21,Ticks_Linear_5,92,5,42,127,867185944
22,8,21,Ticks_Linear_5,93,1,48,33,867748324
22,8,21,Ticks_Linear_5,94,5,42,127,867756308
22,8,21,Ticks_Linear_5,95,1,48,35,868296224
22,8,21,Ticks_Linear_5,96,5,42,127,868326156
22,8,21,Ticks_Linear_5,97,1,48,38,868866612
22,8,21,Ticks_Linear_5,98,5,42,127,868906300
22,8,21,Ticks_Linear_5,99,5,42,127,869485988
22,8,21,Ticks_Linear_5,100,1,48,36,869500172
22,8,21,Ticks_Linear_5,101,5,42,127,870065520
22,8,21,Ticks_Linear_5,102,1,48,35,870089248
22,8,21,Ticks_Linear_5,103,1,48,45,870620652
22,8,21,Ticks_Linear_5,104,5,42,127,870646284
22,8,21,Ticks_Linear_5,105,5,42,127,871225976
22,8,21,Ticks_Linear_5,106,1,48,37,871230688
22,8,21,Ticks_Linear_5,107,1,48,39,871787664
22,8,21,Ticks_Linear_5,108,5,42,127,871815888
22,8,21,Ticks_Linear_5,109,1,48,35,872374148
22,8,21,Ticks_Linear_5,110,5,42,127,872406348
22,8,21,Ticks_Linear_5,111,1,48,41,872965696
22,8,21,Ticks_Linear_5,112,5,42,127,872996212
22,8,21,Ticks_Linear_5,113,1,48,36,873567456
22,8,21,Ticks_Linear_5,114,5,42,127,873585980
22,8,21,Ticks_Linear_5,115,1,48,36,874158676
22,8,21,Ticks_Linear_5,116,5,42,127,874175828
22,8,21,Ticks_Linear_5,117,1,48,39,874763676
22,8,21,Ticks_Linear_5,118,5,42,127,874776008
22,8,21,Ticks_Linear_5,119,1,48,30,875315396
22,8,21,Ticks_Linear_5,120,5,42,127,875376088
22,8,21,Ticks_Linear_5,121,5,42,127,875976100
22,8,21,Ticks_Linear_5,122,1,48,40,876009328
22,8,21,Ticks_Linear_5,123,1,48,40,876568828
22,8,21,Ticks_Linear_5,124,5,42,127,876576120
22,8,21,Ticks_Linear_5,125,5,42,127,877176136
22,8,21,Ticks_Linear_5,126,1,48,39,877179320
22,8,21,Ticks_Linear_5,127,1,48,35,877785616
22,8,21,Ticks_Linear_5,128,5,42,127,877787440
22,8,21,Ticks_Linear_5,129,1,48,44,878379840
22,8,21,Ticks_Linear_5,130,5,42,127,878395848
22,8,21,Ticks_Linear_5,131,1,48,39,878997344
22,8,21,Ticks_Linear_5,132,5,42,127,879006016
22,8,21,Ticks_Linear_5,133,1,48,38,879610972
22,8,21,Ticks_Linear_5,134,5,42,127,879616360
22,8,21,Ticks_Linear_5,135,5,42,127,880225692
22,8,21,Ticks_Linear_5,136,1,48,35,880249424
22,8,21,Ticks_Linear_5,137,1,48,42,880840316
22,8,21,Ticks_Linear_5,138,5,42,127,880846468
22,8,21,Ticks_Linear_5,139,1,48,38,881436916
22,8,21,Ticks_Linear_5,140,5,42,127,881465752
22,8,21,Ticks_Linear_5,141,1,48,37,882075884
22,8,21,Ticks_Linear_5,142,5,42,127,882086456
22,8,21,Ticks_Linear_5,143,1,48,43,882681784
22,8,21,Ticks_Linear_5,144,5,42,127,882705896
22,8,21,Ticks_Linear_5,145,1,48,42,883302264
22,8,21,Ticks_Linear_5,146,5,42,127,883326376
22,8,21,Ticks_Linear_5,147,1,48,38,883905644
22,8,21,Ticks_Linear_5,148,5,42,127,883956352
22,8,21,Ticks_Linear_5,149,1,48,40,884534932
22,8,21,Ticks_Linear_5,150,5,42,127,884585848
22,8,21,Ticks_Linear_5,151,5,42,127,885215604
22,8,21,Ticks_Linear_5,152,1,48,31,885221072
22,8,21,Ticks_Linear_5,153,5,42,127,885846400
22,8,21,Ticks_Linear_5,154,1,48,32,885870508
22,8,21,Ticks_Linear_5,155,1,48,34,886427792
22,8,21,Ticks_Linear_5,156,5,42,127,886476188
22,8,21,Ticks_Linear_5,157,1,48,33,887085124
22,8,21,Ticks_Linear_5,158,5,42,127,887116172
22,8,21,Ticks_Linear_5,159,1,48,38,887716524
22,8,21,Ticks_Linear_5,160,5,42,127,887756212
22,8,21,Ticks_Linear_5,161,5,42,127,888396132
22,8,21,Ticks_Linear_5,162,1,48,35,888403812
22,8,21,Ticks_Linear_5,163,1,48,31,889016496
22,8,21,Ticks_Linear_5,164,5,42,127,889036236
22,8,21,Ticks_Linear_5,165,5,42,127,889676080
22,8,21,Ticks_Linear_5,166,1,48,33,889709668
22,8,21,Ticks_Linear_5,167,1,48,34,890309040
22,8,21,Ticks_Linear_5,168,5,42,127,890326272
22,8,21,Ticks_Linear_5,169,1,48,36,890926496
22,8,21,Ticks_Linear_5,170,5,42,127,890975652
22,8,21,Ticks_Linear_5,171,1,48,29,891574936
22,8,21,Ticks_Linear_5,172,5,42,127,891625952
22,8,21,Ticks_Linear_5,173,1,48,30,892195060
22,8,21,Ticks_Linear_5,174,5,42,127,892276000
22,8,21,Ticks_Linear_5,175,5,42,127,892926228
22,8,21,Ticks_Linear_5,176,1,48,31,892957220
22,8,21,Ticks_Linear_5,177,5,42,127,893585748
22,8,21,Ticks_Linear_5,178,1,48,34,893602444
22,8,21,Ticks_Linear_5,179,1,48,32,894220344
22,8,21,Ticks_Linear_5,180,5,42,127,894246276
22,8,21,Ticks_Linear_5,181,5,42,127,894905804
22,8,21,Ticks_Linear_5,182,1,48,27,894926180
22,8,21,Ticks_Linear_5,183,1,48,37,895546204
22,8,21,Ticks_Linear_5,184,5,42,127,895566028
22,8,21,Ticks_Linear_5,185,1,48,32,896202736
22,8,21,Ticks_Linear_5,186,5,42,127,896225880
22,8,21,Ticks_Linear_5,187,1,48,26,896881768
22,8,21,Ticks_Linear_5,188,5,42,127,896896328
22,8,21,Ticks_Linear_5,189,1,48,35,897549028
22,8,21,Ticks_Linear_5,190,5,42,127,897566032
22,8,21,Ticks_Linear_5,191,1,48,42,898183348
22,8,21,Ticks_Linear_5,192,5,42,127,898235712
22,8,21,Ticks_Linear_5,193,5,42,127,898905424
22,8,21,Ticks_Linear_5,194,1,48,36,898922584
22,8,21,Ticks_Linear_5,195,1,48,39,899529672
22,8,21,Ticks_Linear_5,196,5,42,127,899576112
22,8,21,Ticks_Linear_5,197,1,48,33,900204428
22,8,21,Ticks_Linear_5,198,5,42,127,900256108
22,8,21,Ticks_Linear_5,199,1,48,33,900887272
22,8,21,Ticks_Linear_5,200,5,42,127,900936204
22,8,21,Ticks_Linear_5,201,1,48,35,901592344
22,8,21,Ticks_Linear_5,202,5,42,127,901615992
22,8,21,Ticks_Linear_5,203,1,48,35,902278608
22,8,21,Ticks_Linear_5,204,5,42,127,902295912
22,8,21,Ticks_Linear_5,205,1,48,35,902963448
22,8,21,Ticks_Linear_5,206,5,42,127,902975856
22,8,21,Ticks_Linear_5,207,1,48,44,903628156
22,8,21,Ticks_Linear_5,208,5,42,127,903665960
22,8,21,Ticks_Linear_5,209,1,48,44,904330404
22,8,21,Ticks_Linear_5,210,5,42,127,904356188
22,8,21,Ticks_Linear_5,211,1,48,37,905028840
22,8,21,Ticks_Linear_5,212,5,42,127,905046448
22,8,21,Ticks_Linear_5,213,1,48,38,905717800
22,8,21,Ticks_Linear_5,214,5,42,127,905735484
22,8,21,Ticks_Linear_5,215,1,48,36,906384192
22,8,21,Ticks_Linear_5,216,5,42,127,906425636
22,8,21,Ticks_Linear_5,217,1,48,34,907070316
22,8,21,Ticks_Linear_5,218,5,42,127,907126204
22,8,21,Ticks_Linear_5,219,1,48,28,907779752
22,8,21,Ticks_Linear_5,220,5,42,127,907825556
22,8,21,Ticks_Linear_5,221,5,42,127,908526132
22,8,21,Ticks_Linear_5,222,1,48,32,908529616
22,8,21,Ticks_Linear_5,223,1,48,34,909209980
22,8,21,Ticks_Linear_5,224,5,42,127,909226364
22,8,21,Ticks_Linear_5,225,1,48,39,909924256
22,8,21,Ticks_Linear_5,226,5,42,127,909926020
22,8,21,Ticks_Linear_5,227,5,42,127,910636380
22,8,21,Ticks_Linear_5,228,1,48,35,910653852
22,8,21,Ticks_Linear_5,229,5,42,127,911346116
22,8,21,Ticks_Linear_5,230,1,48,36,911374972
22,8,21,Ticks_Linear_5,231,1,48,38,912038592
22,8,21,Ticks_Linear_5,232,5,42,127,912055896
22,8,21,Ticks_Linear_5,233,1,48,40,912721664
22,8,21,Ticks_Linear_5,234,5,42,127,912766324
22,8,21,Ticks_Linear_5,235,1,48,37,913470364
22,8,21,Ticks_Linear_5,236,5,42,127,913475908
22,8,21,Ticks_Linear_5,237,1,48,39,914160856
22,8,21,Ticks_Linear_5,238,5,42,127,914195960
22,8,21,Ticks_Linear_5,239,5,42,127,914916020
22,8,21,Ticks_Linear_5,240,1,48,38,914923552
22,8,21,Ticks_Linear_5,241,5,42,127,915635592
22,8,21,Ticks_Linear_5,242,1,48,32,915655964
22,8,21,Ticks_Linear_5,243,1,48,37,916345060
22,8,21,Ticks_Linear_5,244,5,42,127,916355328
22,8,21,Ticks_Linear_5,245,1,48,33,917060592
22,8,21,Ticks_Linear_5,246,5,42,127,917076220
22,8,21,Ticks_Linear_5,247,1,48,36,917789208
22,8,21,Ticks_Linear_5,248,5,42,127,917805368
22,8,21,Ticks_Linear_5,249,1,48,37,918484868
22,8,21,Ticks_Linear_5,250,5,42,127,918535656
22,8,21,Ticks_Linear_5,251,1,48,29,919246864
22,8,21,Ticks_Linear_5,252,5,42,127,919265640
22,8,21,Ticks_Linear_5,253,1,48,32,919959804
22,8,21,Ticks_Linear_5,254,5,42,127,919995676
22,8,21,Ticks_Linear_5,255,1,48,35,920693448
22,8,21,Ticks_Linear_5,256,5,42,127,920725888
22,8,21,Ticks_Linear_5,257,1,48,37,921425968
22,8,21,Ticks_Linear_5,258,5,42,127,921466340
22,8,21,Ticks_Linear_5,259,1,48,39,922175356
22,8,21,Ticks_Linear_5,260,5,42,127,922205648
22,8,21,Ticks_Linear_5,261,1,48,37,922937432
22,8,21,Ticks_Linear_5,262,5,42,127,922945944
22,8,21,Ticks_Linear_5,263,1,48,40,923683908
22,8,21,Ticks_Linear_5,264,5,42,127,923686396
22,8,21,Ticks_Linear_5,265,1,48,38,924407632
22,8,21,Ticks_Linear_5,266,5,42,127,924425776
22,8,21,Ticks_Linear_5,267,5,42,127,925176396
22,8,21,Ticks_Linear_5,268,1,48,35,925181940
22,8,21,Ticks_Linear_5,269,1,48,38,925912292
22,8,21,Ticks_Linear_5,270,5,42,127,925925780
22,8,21,Ticks_Linear_5,271,1,48,40,926637368
22,8,21,Ticks_Linear_5,272,5,42,127,926676440
22,8,21,Ticks_Linear_5,273,1,48,35,927416016
22,8,21,Ticks_Linear_5,274,5,42,127,927425832
22,8,21,Ticks_Linear_5,275,1,48,37,928139352
22,8,21,Ticks_Linear_5,276,5,42,127,928175452
22,8,21,Ticks_Linear_5,277,5,42,127,928936308
22,8,21,Ticks_Linear_5,278,1,48,33,928939868
22,8,21,Ticks_Linear_5,279,1,48,38,929696468
22,8,21,Ticks_Linear_5,280,5,42,127,929698068
22,8,21,Ticks_Linear_5,281,1,48,36,930429312
22,8,21,Ticks_Linear_5,282,5,42,127,930456088
22,8,21,Ticks_Linear_5,283,5,42,127,931215648
22,8,21,Ticks_Linear_5,284,1,48,34,931225552
22,8,21,Ticks_Linear_5,285,5,42,127,931975428
22,8,21,Ticks_Linear_5,286,1,48,34,932007260
22,8,21,Ticks_Linear_5,287,1,48,37,932691456
22,8,21,Ticks_Linear_5,288,5,42,127,932745516
22,8,21,Ticks_Linear_5,289,5,42,127,933515540
22,8,21,Ticks_Linear_5,290,1,48,33,933564104
22,8,21,Ticks_Linear_5,291,1,48,39,934281760
22,8,21,Ticks_Linear_5,292,5,42,127,934285776
22,8,21,Ticks_Linear_5,293,1,48,42,935031380
22,8,21,Ticks_Linear_5,294,5,42,127,935055720
22,8,21,Ticks_Linear_5,295,5,42,127,935826048
22,8,21,Ticks_Linear_5,296,1,48,37,935829916
22,8,21,Ticks_Linear_5,297,1,48,38,936594880
22,8,21,Ticks_Linear_5,298,5,42,127,936606144
22,8,21,Ticks_Linear_5,299,1,48,35,937339756
22,8,21,Ticks_Linear_5,300,5,42,127,937386400
22,8,21,Ticks_Linear_5,301,1,48,40,938160960
22,8,21,Ticks_Linear_5,302,5,42,127,938165892
22,8,21,Ticks_Linear_5,303,1,48,38,938945156
22,8,21,Ticks_Linear_5,304,5,42,127,938946912
22,8,21,Ticks_Linear_5,305,1,48,42,939681740
22,8,21,Ticks_Linear_5,306,5,42,127,939726096
22,8,21,Ticks_Linear_5,307,1,48,41,940465292
22,8,21,Ticks_Linear_5,308,5,42,127,940515772
22,8,21,Ticks_Linear_5,309,1,48,40,941257996
22,8,21,Ticks_Linear_5,310,5,42,127,941306112
22,8,21,Ticks_Linear_5,311,1,48,35,942067768
22,8,21,Ticks_Linear_5,312,5,42,127,942095688
22,8,21,Ticks_Linear_5,313,1,48,29,942862608
22,8,21,Ticks_Linear_5,314,5,42,127,942886332
22,8,21,Ticks_Linear_5,315,1,48,36,943628732
22,8,21,Ticks_Linear_5,316,5,42,127,943675680
22,8,21,Ticks_Linear_5,317,1,48,37,944407692
22,8,21,Ticks_Linear_5,318,5,42,127,944475420
22,8,21,Ticks_Linear_5,319,1,48,35,945240352
22,8,21,Ticks_Linear_5,320,5,42,127,945276448
22,8,21,Ticks_Linear_5,321,1,48,40,946042300
22,8,21,Ticks_Linear_5,322,5,42,127,946076108
22,8,21,Ticks_Linear_5,323,1,48,39,946826308
22,8,21,Ticks_Linear_5,324,5,42,127,946875696
22,8,21,Ticks_Linear_5,325,1,48,33,947626648
22,8,21,Ticks_Linear_5,326,5,42,127,947675532
22,8,21,Ticks_Linear_5,327,1,48,35,948411252
22,8,21,Ticks_Linear_5,328,5,42,127,948485504
22,8,21,Ticks_Linear_5,329,1,48,37,949173796
22,8,21,Ticks_Linear_5,330,5,42,127,949295388
22,8,21,Ticks_Linear_5,331,5,42,127,950105384
22,8,21,Ticks_Linear_5,332,1,48,38,950129648
22,8,21,Ticks_Linear_5,333,1,48,38,950887888
22,8,21,Ticks_Linear_5,334,5,42,127,950915352
22,8,21,Ticks_Linear_5,335,1,48,30,951717876
22,8,21,Ticks_Linear_5,336,5,42,127,951725404
22,8,21,Ticks_Linear_5,0,9999,9999,9999,842534016
22,8,21,Ticks_Linear_5,1,9999,9999,9999,843013184
22,8,21,Ticks_Linear_5,2,9999,9999,9999,843493496
22,8,21,Ticks_Linear_5,3,9999,9999,9999,843973696
22,8,21,Ticks_Linear_5,4,9999,9999,9999,844453984
22,8,21,Ticks_Linear_5,5,9999,9999,9999,844943440
22,8,21,Ticks_Linear_5,6,9999,9999,9999,845433964
22,8,21,Ticks_Linear_5,7,9999,9999,9999,845923420
22,8,21,Ticks_Linear_5,8,9999,9999,9999,846413944
22,8,21,Ticks_Linear_5,9,9999,9999,9999,846903400
22,8,21,Ticks_Linear_5,10,9999,9999,9999,847403092
22,8,21,Ticks_Linear_5,11,9999,9999,9999,847903856
22,8,21,Ticks_Linear_5,12,9999,9999,9999,848403548
22,8,21,Ticks_Linear_5,13,9999,9999,9999,848903248
22,8,21,Ticks_Linear_5,14,9999,9999,9999,849404000
22,8,21,Ticks_Linear_5,15,9999,9999,9999,849913984
22,8,21,Ticks_Linear_5,16,9999,9999,9999,850423912
22,8,21,Ticks_Linear_5,17,9999,9999,9999,850933844
22,8,21,Ticks_Linear_5,18,9999,9999,9999,851443776
22,8,21,Ticks_Linear_5,19,9999,9999,9999,851953780
22,8,21,Ticks_Linear_5,20,9999,9999,9999,852473948
22,8,21,Ticks_Linear_5,21,9999,9999,9999,852993124
22,8,21,Ticks_Linear_5,22,9999,9999,9999,853513292
22,8,21,Ticks_Linear_5,23,9999,9999,9999,854033536
22,8,21,Ticks_Linear_5,24,9999,9999,9999,854553740
22,8,21,Ticks_Linear_5,25,9999,9999,9999,855083116
22,8,21,Ticks_Linear_5,26,9999,9999,9999,855613520
22,8,21,Ticks_Linear_5,27,9999,9999,9999,856144000
22,8,21,Ticks_Linear_5,28,9999,9999,9999,856673336
22,8,21,Ticks_Linear_5,29,9999,9999,9999,857203816
22,8,21,Ticks_Linear_5,30,9999,9999,9999,857743468
22,8,21,Ticks_Linear_5,31,9999,9999,9999,858283116
22,8,21,Ticks_Linear_5,32,9999,9999,9999,858823760
22,8,21,Ticks_Linear_5,33,9999,9999,9999,859363432
22,8,21,Ticks_Linear_5,34,9999,9999,9999,859904076
22,8,21,Ticks_Linear_5,35,9999,9999,9999,860463208
22,8,21,Ticks_Linear_5,36,9999,9999,9999,861014088
22,8,21,Ticks_Linear_5,37,9999,9999,9999,861573216
22,8,21,Ticks_Linear_5,38,9999,9999,9999,862123104
22,8,21,Ticks_Linear_5,39,9999,9999,9999,862673984
22,8,21,Ticks_Linear_5,40,9999,9999,9999,863233144
22,8,21,Ticks_Linear_5,41,9999,9999,9999,863793272
22,8,21,Ticks_Linear_5,42,9999,9999,9999,864353392
22,8,21,Ticks_Linear_5,43,9999,9999,9999,864913516
22,8,21,Ticks_Linear_5,44,9999,9999,9999,865473640
22,8,21,Ticks_Linear_5,45,9999,9999,9999,866043988
22,8,21,Ticks_Linear_5,46,9999,9999,9999,866613328
22,8,21,Ticks_Linear_5,47,9999,9999,9999,867183680
22,8,21,Ticks_Linear_5,48,9999,9999,9999,867754040
22,8,21,Ticks_Linear_5,49,9999,9999,9999,868323436
22,8,21,Ticks_Linear_5,50,9999,9999,9999,868904036
22,8,21,Ticks_Linear_5,51,9999,9999,9999,869483648
22,8,21,Ticks_Linear_5,52,9999,9999,9999,870063180
22,8,21,Ticks_Linear_5,53,9999,9999,9999,870643792
22,8,21,Ticks_Linear_5,54,9999,9999,9999,871223408
22,8,21,Ticks_Linear_5,55,9999,9999,9999,871813244
22,8,21,Ticks_Linear_5,56,9999,9999,9999,872404080
22,8,21,Ticks_Linear_5,57,9999,9999,9999,872993872
22,8,21,Ticks_Linear_5,58,9999,9999,9999,873583716
22,8,21,Ticks_Linear_5,59,9999,9999,9999,874173564
22,8,21,Ticks_Linear_5,60,9999,9999,9999,874773592
22,8,21,Ticks_Linear_5,61,9999,9999,9999,875373672
22,8,21,Ticks_Linear_5,62,9999,9999,9999,875973760
22,8,21,Ticks_Linear_5,63,9999,9999,9999,876573780
22,8,21,Ticks_Linear_5,64,9999,9999,9999,877173872
22,8,21,Ticks_Linear_5,65,9999,9999,9999,877783124
22,8,21,Ticks_Linear_5,66,9999,9999,9999,878393432
22,8,21,Ticks_Linear_5,67,9999,9999,9999,879003752
22,8,21,Ticks_Linear_5,68,9999,9999,9999,879614016
22,8,21,Ticks_Linear_5,69,9999,9999,9999,880223352
22,8,21,Ticks_Linear_5,70,9999,9999,9999,880843896
22,8,21,Ticks_Linear_5,71,9999,9999,9999,881463412
22,8,21,Ticks_Linear_5,72,9999,9999,9999,882083964
22,8,21,Ticks_Linear_5,73,9999,9999,9999,882703480
22,8,21,Ticks_Linear_5,74,9999,9999,9999,883323960
22,8,21,Ticks_Linear_5,75,9999,9999,9999,883953784
22,8,21,Ticks_Linear_5,76,9999,9999,9999,884583508
22,8,21,Ticks_Linear_5,77,9999,9999,9999,885213264
22,8,21,Ticks_Linear_5,78,9999,9999,9999,885844056
22,8,21,Ticks_Linear_5,79,9999,9999,9999,886473848
22,8,21,Ticks_Linear_5,80,9999,9999,9999,887113832
22,8,21,Ticks_Linear_5,81,9999,9999,9999,887753796
22,8,21,Ticks_Linear_5,82,9999,9999,9999,888393792
22,8,21,Ticks_Linear_5,83,9999,9999,9999,889033820
22,8,21,Ticks_Linear_5,84,9999,9999,9999,889673816
22,8,21,Ticks_Linear_5,85,9999,9999,9999,890324080
22,8,21,Ticks_Linear_5,86,9999,9999,9999,890973236
22,8,21,Ticks_Linear_5,87,9999,9999,9999,891623536
22,8,21,Ticks_Linear_5,88,9999,9999,9999,892273732
22,8,21,Ticks_Linear_5,89,9999,9999,9999,892923964
22,8,21,Ticks_Linear_5,90,9999,9999,9999,893583484
22,8,21,Ticks_Linear_5,91,9999,9999,9999,894243936
22,8,21,Ticks_Linear_5,92,9999,9999,9999,894903388
22,8,21,Ticks_Linear_5,93,9999,9999,9999,895563840
22,8,21,Ticks_Linear_5,94,9999,9999,9999,896223308
22,8,21,Ticks_Linear_5,95,9999,9999,9999,896894060
22,8,21,Ticks_Linear_5,96,9999,9999,9999,897563764
22,8,21,Ticks_Linear_5,97,9999,9999,9999,898233448
22,8,21,Ticks_Linear_5,98,9999,9999,9999,898903160
22,8,21,Ticks_Linear_5,99,9999,9999,9999,899573848
22,8,21,Ticks_Linear_5,100,9999,9999,9999,900253768
22,8,21,Ticks_Linear_5,101,9999,9999,9999,900933712
22,8,21,Ticks_Linear_5,102,9999,9999,9999,901613652
22,8,21,Ticks_Linear_5,103,9999,9999,9999,902293572
22,8,21,Ticks_Linear_5,104,9999,9999,9999,902973512
22,8,21,Ticks_Linear_5,105,9999,9999,9999,903663696
22,8,21,Ticks_Linear_5,106,9999,9999,9999,904353848
22,8,21,Ticks_Linear_5,107,9999,9999,9999,905044032
22,8,21,Ticks_Linear_5,108,9999,9999,9999,905733220
22,8,21,Ticks_Linear_5,109,9999,9999,9999,906423372
22,8,21,Ticks_Linear_5,110,9999,9999,9999,907123792
22,8,21,Ticks_Linear_5,111,9999,9999,9999,907823216
22,8,21,Ticks_Linear_5,112,9999,9999,9999,908523640
22,8,21,Ticks_Linear_5,113,9999,9999,9999,909224024
22,8,21,Ticks_Linear_5,114,9999,9999,9999,909923384
22,8,21,Ticks_Linear_5,115,9999,9999,9999,910634112
22,8,21,Ticks_Linear_5,116,9999,9999,9999,911343700
22,8,21,Ticks_Linear_5,117,9999,9999,9999,912053328
22,8,21,Ticks_Linear_5,118,9999,9999,9999,912763980
22,8,21,Ticks_Linear_5,119,9999,9999,9999,913473644
22,8,21,Ticks_Linear_5,120,9999,9999,9999,914193468
22,8,21,Ticks_Linear_5,121,9999,9999,9999,914913376
22,8,21,Ticks_Linear_5,122,9999,9999,9999,915633252
22,8,21,Ticks_Linear_5,123,9999,9999,9999,916353140
22,8,21,Ticks_Linear_5,124,9999,9999,9999,917074032
22,8,21,Ticks_Linear_5,125,9999,9999,9999,917803104
22,8,21,Ticks_Linear_5,126,9999,9999,9999,918533240
22,8,21,Ticks_Linear_5,127,9999,9999,9999,919263300
22,8,21,Ticks_Linear_5,128,9999,9999,9999,919993412
22,8,21,Ticks_Linear_5,129,9999,9999,9999,920723548
22,8,21,Ticks_Linear_5,130,9999,9999,9999,921463920
22,8,21,Ticks_Linear_5,131,9999,9999,9999,922203232
22,8,21,Ticks_Linear_5,132,9999,9999,9999,922943604
22,8,21,Ticks_Linear_5,133,9999,9999,9999,923683980
22,8,21,Ticks_Linear_5,134,9999,9999,9999,924423284
22,8,21,Ticks_Linear_5,135,9999,9999,9999,925173828
22,8,21,Ticks_Linear_5,136,9999,9999,9999,925923440
22,8,21,Ticks_Linear_5,137,9999,9999,9999,926674024
22,8,21,Ticks_Linear_5,138,9999,9999,9999,927423568
22,8,21,Ticks_Linear_5,139,9999,9999,9999,928173112
22,8,21,Ticks_Linear_5,140,9999,9999,9999,928933968
22,8,21,Ticks_Linear_5,141,9999,9999,9999,929693824
22,8,21,Ticks_Linear_5,142,9999,9999,9999,930453596
22,8,21,Ticks_Linear_5,143,9999,9999,9999,931213384
22,8,21,Ticks_Linear_5,144,9999,9999,9999,931973240
22,8,21,Ticks_Linear_5,145,9999,9999,9999,932743248
22,8,21,Ticks_Linear_5,146,9999,9999,9999,933513276
22,8,21,Ticks_Linear_5,147,9999,9999,9999,934283360
22,8,21,Ticks_Linear_5,148,9999,9999,9999,935053376
22,8,21,Ticks_Linear_5,149,9999,9999,9999,935823480
22,8,21,Ticks_Linear_5,150,9999,9999,9999,936603728
22,8,21,Ticks_Linear_5,151,9999,9999,9999,937384060
22,8,21,Ticks_Linear_5,152,9999,9999,9999,938163320
22,8,21,Ticks_Linear_5,153,9999,9999,9999,938943584
22,8,21,Ticks_Linear_5,154,9999,9999,9999,939723832
22,8,21,Ticks_Linear_5,155,9999,9999,9999,940513356
22,8,21,Ticks_Linear_5,156,9999,9999,9999,941303924
22,8,21,Ticks_Linear_5,157,9999,9999,9999,942093424
22,8,21,Ticks_Linear_5,158,9999,9999,9999,942883916
22,8,21,Ticks_Linear_5,159,9999,9999,9999,943673416
22,8,21,Ticks_Linear_5,160,9999,9999,9999,944473152
22,8,21,Ticks_Linear_5,161,9999,9999,9999,945273960
22,8,21,Ticks_Linear_5,162,9999,9999,9999,946073692
22,8,21,Ticks_Linear_5,163,9999,9999,9999,946873432
22,8,21,Ticks_Linear_5,164,9999,9999,9999,947673192
22,8,21,Ticks_Linear_5,165,9999,9999,9999,948483164
22,8,21,Ticks_Linear_5,166,9999,9999,9999,949293124
22,8,21,Ticks_Linear_5,167,9999,9999,9999,950103120
22,8,21,Ticks_Linear_5,168,9999,9999,9999,950913088
22,8,21,Ticks_Linear_5,169,9999,9999,9999,951723064
22,9,9,Ticks_ISO_T2_8,0,5,42,127,968600872
22,9,9,Ticks_ISO_T2_8,1,5,42,127,969400664
22,9,9,Ticks_ISO_T2_8,2,1,48,50,970183396
22,9,9,Ticks_ISO_T2_8,3,5,42,127,970200320
22,9,9,Ticks_ISO_T2_8,4,5,42,127,971001312
22,9,9,Ticks_ISO_T2_8,5,1,48,55,971016628
22,9,9,Ticks_ISO_T2_8,6,5,42,127,971801080
22,9,9,Ticks_ISO_T2_8,7,1,48,48,971807312
22,9,9,Ticks_ISO_T2_8,8,1,48,48,972593712
22,9,9,Ticks_ISO_T2_8,9,5,42,127,972600684
22,9,9,Ticks_ISO_T2_8,10,5,42,127,973400384
22,9,9,Ticks_ISO_T2_8,11,1,48,48,973414168
22,9,9,Ticks_ISO_T2_8,12,1,48,46,974195988
22,9,9,Ticks_ISO_T2_8,13,5,42,127,974201284
22,9,9,Ticks_ISO_T2_8,14,5,42,127,975000980
22,9,9,Ticks_ISO_T2_8,15,1,48,51,975054672
22,9,9,Ticks_ISO_T2_8,16,1,48,42,975788804
22,9,9,Ticks_ISO_T2_8,17,5,42,127,975800740
22,9,9,Ticks_ISO_T2_8,18,1,48,47,976574220
22,9,9,Ticks_ISO_T2_8,19,5,42,127,976600376
22,9,9,Ticks_ISO_T2_8,20,1,48,46,977397288
22,9,9,Ticks_ISO_T2_8,21,5,42,127,977401132
22,9,9,Ticks_ISO_T2_8,22,1,48,45,978194764
22,9,9,Ticks_ISO_T2_8,23,5,42,127,978200900
22,9,9,Ticks_ISO_T2_8,24,5,42,127,979000672
22,9,9,Ticks_ISO_T2_8,25,1,48,46,979007208
22,9,9,Ticks_ISO_T2_8,26,5,42,127,979800516
22,9,9,Ticks_ISO_T2_8,27,1,48,48,979809344
22,9,9,Ticks_ISO_T2_8,28,5,42,127,980601196
22,9,9,Ticks_ISO_T2_8,29,1,48,46,980602104
22,9,9,Ticks_ISO_T2_8,30,1,48,46,981387036
22,9,9,Ticks_ISO_T2_8,31,5,42,127,981400880
22,9,9,Ticks_ISO_T2_8,32,5,42,127,982200656
22,9,9,Ticks_ISO_T2_8,33,1,48,45,982224132
22,9,9,Ticks_ISO_T2_8,34,5,42,127,983000444
22,9,9,Ticks_ISO_T2_8,35,1,48,42,983002344
22,9,9,Ticks_ISO_T2_8,36,1,48,47,983800816
22,9,9,Ticks_ISO_T2_8,37,5,42,127,983802564
22,9,9,Ticks_ISO_T2_8,38,5,42,127,984601044
22,9,9,Ticks_ISO_T2_8,39,1,48,42,984610556
22,9,9,Ticks_ISO_T2_8,40,5,42,127,985400584
22,9,9,Ticks_ISO_T2_8,41,1,48,45,985410324
22,9,9,Ticks_ISO_T2_8,42,1,48,46,986195500
22,9,9,Ticks_ISO_T2_8,43,5,42,127,986200644
22,9,9,Ticks_ISO_T2_8,44,1,48,44,986993972
22,9,9,Ticks_ISO_T2_8,45,5,42,127,987001096
22,9,9,Ticks_ISO_T2_8,46,5,42,127,987800948
22,9,9,Ticks_ISO_T2_8,47,1,48,38,987823512
22,9,9,Ticks_ISO_T2_8,48,1,48,42,988598708
22,9,9,Ticks_ISO_T2_8,49,5,42,127,988600552
22,9,9,Ticks_ISO_T2_8,50,1,48,41,989390140
22,9,9,Ticks_ISO_T2_8,51,5,42,127,989400420
22,9,9,Ticks_ISO_T2_8,52,1,48,41,990184132
22,9,9,Ticks_ISO_T2_8,53,5,42,127,990201256
22,9,9,Ticks_ISO_T2_8,54,1,48,43,990983212
22,9,9,Ticks_ISO_T2_8,55,5,42,127,991001020
22,9,9,Ticks_ISO_T2_8,56,5,42,127,991800720
22,9,9,Ticks_ISO_T2_8,57,1,48,38,991825568
22,9,9,Ticks_ISO_T2_8,58,1,48,41,992595712
22,9,9,Ticks_ISO_T2_8,59,5,42,127,992600400
22,9,9,Ticks_ISO_T2_8,60,1,48,43,993365036
22,9,9,Ticks_ISO_T2_8,61,5,42,127,993401308
22,9,9,Ticks_ISO_T2_8,62,5,42,127,994201008
22,9,9,Ticks_ISO_T2_8,63,1,48,42,994205944
22,9,9,Ticks_ISO_T2_8,64,5,42,127,995000624
22,9,9,Ticks_ISO_T2_8,65,1,48,37,995028248
22,9,9,Ticks_ISO_T2_8,66,5,42,127,995800340
22,9,9,Ticks_ISO_T2_8,67,1,48,37,995812448
22,9,9,Ticks_ISO_T2_8,68,1,48,43,996582440
22,9,9,Ticks_ISO_T2_8,69,5,42,127,996601164
22,9,9,Ticks_ISO_T2_8,70,5,42,127,997400940
22,9,9,Ticks_ISO_T2_8,71,1,48,38,997418240
22,9,9,Ticks_ISO_T2_8,72,5,42,127,998200632
22,9,9,Ticks_ISO_T2_8,73,1,48,35,998213196
22,9,9,Ticks_ISO_T2_8,74,5,42,127,999000320
22,9,9,Ticks_ISO_T2_8,75,1,48,37,999024408
22,9,9,Ticks_ISO_T2_8,76,1,48,43,999777540
22,9,9,Ticks_ISO_T2_8,77,5,42,127,999801300
22,9,9,Ticks_ISO_T2_8,78,5,42,127,1000600996
22,9,9,Ticks_ISO_T2_8,79,1,48,43,1000613788
22,9,9,Ticks_ISO_T2_8,80,5,42,127,1001400612
22,9,9,Ticks_ISO_T2_8,81,1,48,40,1001427012
22,9,9,Ticks_ISO_T2_8,82,5,42,127,1002200480
22,9,9,Ticks_ISO_T2_8,83,1,48,40,1002220140
22,9,9,Ticks_ISO_T2_8,84,1,48,39,1002995700
22,9,9,Ticks_ISO_T2_8,85,5,42,127,1003001152
22,9,9,Ticks_ISO_T2_8,86,5,42,127,1003800928
22,9,9,Ticks_ISO_T2_8,87,1,48,40,1003839516
22,9,9,Ticks_ISO_T2_8,88,5,42,127,1004600844
22,9,9,Ticks_ISO_T2_8,89,1,48,39,1004602132
22,9,9,Ticks_ISO_T2_8,90,5,42,127,1005400384
22,9,9,Ticks_ISO_T2_8,91,1,48,40,1005411348
22,9,9,Ticks_ISO_T2_8,92,5,42,127,1006201216
22,9,9,Ticks_ISO_T2_8,93,1,48,36,1006211420
22,9,9,Ticks_ISO_T2_8,94,5,42,127,1007000832
22,9,9,Ticks_ISO_T2_8,95,1,48,39,1007024232
22,9,9,Ticks_ISO_T2_8,96,5,42,127,1007800748
22,9,9,Ticks_ISO_T2_8,97,1,48,47,1007806368
22,9,9,Ticks_ISO_T2_8,98,1,48,41,1008597600
22,9,9,Ticks_ISO_T2_8,99,5,42,127,1008600608
22,9,9,Ticks_ISO_T2_8,100,1,48,38,1009400068
22,9,9,Ticks_ISO_T2_8,101,5,42,127,1009401820
22,9,9,Ticks_ISO_T2_8,102,5,42,127,1010200912
22,9,9,Ticks_ISO_T2_8,103,1,48,39,1010205160
22,9,9,Ticks_ISO_T2_8,104,1,48,40,1010987968
22,9,9,Ticks_ISO_T2_8,105,5,42,127,1011000668
22,9,9,Ticks_ISO_T2_8,106,5,42,127,1011800672
22,9,9,Ticks_ISO_T2_8,107,1,48,45,1011828120
22,9,9,Ticks_ISO_T2_8,108,1,48,44,1012598108
22,9,9,Ticks_ISO_T2_8,109,5,42,127,1012601420
22,9,9,Ticks_ISO_T2_8,110,5,42,127,1013400888
22,9,9,Ticks_ISO_T2_8,111,1,48,37,1013428488
22,9,9,Ticks_ISO_T2_8,112,1,48,47,1014187872
22,9,9,Ticks_ISO_T2_8,113,5,42,127,1014200572
22,9,9,Ticks_ISO_T2_8,114,5,42,127,1015000372
22,9,9,Ticks_ISO_T2_8,115,1,48,32,1015006528
22,9,9,Ticks_ISO_T2_8,116,1,48,41,1015795668
22,9,9,Ticks_ISO_T2_8,117,5,42,127,1015801348
22,9,9,Ticks_ISO_T2_8,118,5,42,127,1016601044
22,9,9,Ticks_ISO_T2_8,119,1,48,45,1016606900
22,9,9,Ticks_ISO_T2_8,120,5,42,127,1017400584
22,9,9,Ticks_ISO_T2_8,121,1,48,39,1017410248
22,9,9,Ticks_ISO_T2_8,122,5,42,127,1018200352
22,9,9,Ticks_ISO_T2_8,123,1,48,45,1018249924
22,9,9,Ticks_ISO_T2_8,124,5,42,127,1019001108
22,9,9,Ticks_ISO_T2_8,125,1,48,42,1019007568
22,9,9,Ticks_ISO_T2_8,126,5,42,127,1019801180
22,9,9,Ticks_ISO_T2_8,127,1,48,44,1019834428
22,9,9,Ticks_ISO_T2_8,128,5,42,127,1020600792
22,9,9,Ticks_ISO_T2_8,129,1,48,41,1020611984
22,9,9,Ticks_ISO_T2_8,130,5,42,127,1021400356
22,9,9,Ticks_ISO_T2_8,131,1,48,40,1021410172
22,9,9,Ticks_ISO_T2_8,132,5,42,127,1022201116
22,9,9,Ticks_ISO_T2_8,133,1,48,42,1022207876
22,9,9,Ticks_ISO_T2_8,134,1,48,42,1022977112
22,9,9,Ticks_ISO_T2_8,135,5,42,127,1023001100
22,9,9,Ticks_ISO_T2_8,136,1,48,39,1023788324
22,9,9,Ticks_ISO_T2_8,137,5,42,127,1023800788
22,9,9,Ticks_ISO_T2_8,138,5,42,127,1024600336
22,9,9,Ticks_ISO_T2_8,139,1,48,40,1024623048
22,9,9,Ticks_ISO_T2_8,140,1,48,36,1025385152
22,9,9,Ticks_ISO_T2_8,141,5,42,127,1025401212
22,9,9,Ticks_ISO_T2_8,142,1,48,34,1026194156
22,9,9,Ticks_ISO_T2_8,143,5,42,127,1026200976
22,9,9,Ticks_ISO_T2_8,144,5,42,127,1027000600
22,9,9,Ticks_ISO_T2_8,145,1,48,38,1027005840
22,9,9,Ticks_ISO_T2_8,146,5,42,127,1027800392
22,9,9,Ticks_ISO_T2_8,147,1,48,43,1027808684
22,9,9,Ticks_ISO_T2_8,148,5,42,127,1028601300
22,9,9,Ticks_ISO_T2_8,149,1,48,41,1028624552
22,9,9,Ticks_ISO_T2_8,150,5,42,127,1029400840
22,9,9,Ticks_ISO_T2_8,151,1,48,39,1029416532
22,9,9,Ticks_ISO_T2_8,152,5,42,127,1030200756
22,9,9,Ticks_ISO_T2_8,153,1,48,39,1030213320
22,9,9,Ticks_ISO_T2_8,154,1,48,44,1030999140
22,9,9,Ticks_ISO_T2_8,155,5,42,127,1031000892
22,9,9,Ticks_ISO_T2_8,156,5,42,127,1031801128
22,9,9,Ticks_ISO_T2_8,157,1,48,38,1031808124
22,9,9,Ticks_ISO_T2_8,158,5,42,127,1032601044
22,9,9,Ticks_ISO_T2_8,159,1,48,42,1032622612
22,9,9,Ticks_ISO_T2_8,160,5,42,127,1033400584
22,9,9,Ticks_ISO_T2_8,161,1,48,36,1033416428
22,9,9,Ticks_ISO_T2_8,162,1,48,36,1034193848
22,9,9,Ticks_ISO_T2_8,163,5,42,127,1034200368
22,9,9,Ticks_ISO_T2_8,164,5,42,127,1035001284
22,9,9,Ticks_ISO_T2_8,165,1,48,30,1035025528
22,9,9,Ticks_ISO_T2_8,166,5,42,127,1035800900
22,9,9,Ticks_ISO_T2_8,167,1,48,33,1035817660
22,9,9,Ticks_ISO_T2_8,168,1,48,39,1036601120
22,9,9,Ticks_ISO_T2_8,169,5,42,127,1036602488
22,9,9,Ticks_ISO_T2_8,170,5,42,127,1037400508
22,9,9,Ticks_ISO_T2_8,171,1,48,42,1037451380
22,9,9,Ticks_ISO_T2_8,172,5,42,127,1038201340
22,9,9,Ticks_ISO_T2_8,173,1,48,39,1038224204
22,9,9,Ticks_ISO_T2_8,174,5,42,127,1039000804
22,9,9,Ticks_ISO_T2_8,175,1,48,38,1039012600
22,9,9,Ticks_ISO_T2_8,176,5,42,127,1039800720
22,9,9,Ticks_ISO_T2_8,177,1,48,37,1039820228
22,9,9,Ticks_ISO_T2_8,178,5,42,127,1040600408
22,9,9,Ticks_ISO_T2_8,179,1,48,43,1040624264
22,9,9,Ticks_ISO_T2_8,180,5,42,127,1041401244
22,9,9,Ticks_ISO_T2_8,181,1,48,39,1041420140
22,9,9,Ticks_ISO_T2_8,182,5,42,127,1042201008
22,9,9,Ticks_ISO_T2_8,183,1,48,31,1042233184
22,9,9,Ticks_ISO_T2_8,184,5,42,127,1043000624
22,9,9,Ticks_ISO_T2_8,185,1,48,42,1043011052
22,9,9,Ticks_ISO_T2_8,186,5,42,127,1043800464
22,9,9,Ticks_ISO_T2_8,187,1,48,46,1043817452
22,9,9,Ticks_ISO_T2_8,188,5,42,127,1044601148
22,9,9,Ticks_ISO_T2_8,189,1,48,40,1044631260
22,9,9,Ticks_ISO_T2_8,190,5,42,127,1045400912
22,9,9,Ticks_ISO_T2_8,191,1,48,41,1045416680
22,9,9,Ticks_ISO_T2_8,192,5,42,127,1046200604
22,9,9,Ticks_ISO_T2_8,193,1,48,38,1046249896
22,9,9,Ticks_ISO_T2_8,194,5,42,127,1047000392
22,9,9,Ticks_ISO_T2_8,195,1,48,35,1047007844
22,9,9,Ticks_ISO_T2_8,196,1,48,39,1047798216
22,9,9,Ticks_ISO_T2_8,197,5,42,127,1047801220
22,9,9,Ticks_ISO_T2_8,198,5,42,127,1048600992
22,9,9,Ticks_ISO_T2_8,199,1,48,32,1048602280
22,9,9,Ticks_ISO_T2_8,200,5,42,127,1049400760
22,9,9,Ticks_ISO_T2_8,201,1,48,40,1049416760
22,9,9,Ticks_ISO_T2_8,202,1,48,44,1050183620
22,9,9,Ticks_ISO_T2_8,203,5,42,127,1050200368
22,9,9,Ticks_ISO_T2_8,204,5,42,127,1051001136
22,9,9,Ticks_ISO_T2_8,205,1,48,40,1051004768
22,9,9,Ticks_ISO_T2_8,206,1,48,30,1051797736
22,9,9,Ticks_ISO_T2_8,207,5,42,127,1051800892
22,9,9,Ticks_ISO_T2_8,208,1,48,38,1052585292
22,9,9,Ticks_ISO_T2_8,209,5,42,127,1052600660
22,9,9,Ticks_ISO_T2_8,210,1,48,38,1053370864
22,9,9,Ticks_ISO_T2_8,211,5,42,127,1053400752
22,9,9,Ticks_ISO_T2_8,212,5,42,127,1054201292
22,9,9,Ticks_ISO_T2_8,213,1,48,32,1054239344
22,9,9,Ticks_ISO_T2_8,214,5,42,127,1055000980
22,9,9,Ticks_ISO_T2_8,215,1,48,41,1055022624
22,9,9,Ticks_ISO_T2_8,216,1,48,35,1055782620
22,9,9,Ticks_ISO_T2_8,217,5,42,127,1055800664
22,9,9,Ticks_ISO_T2_8,218,1,48,40,1056553544
22,9,9,Ticks_ISO_T2_8,219,5,42,127,1056600428
22,9,9,Ticks_ISO_T2_8,220,1,48,40,1057382004
22,9,9,Ticks_ISO_T2_8,221,5,42,127,1057401264
22,9,9,Ticks_ISO_T2_8,222,1,48,36,1058178792
22,9,9,Ticks_ISO_T2_8,223,5,42,127,1058201408
22,9,9,Ticks_ISO_T2_8,224,5,42,127,1059000576
22,9,9,Ticks_ISO_T2_8,225,1,48,48,1059030564
22,9,9,Ticks_ISO_T2_8,226,5,42,127,1059800444
22,9,9,Ticks_ISO_T2_8,227,1,48,41,1059852688
22,9,9,Ticks_ISO_T2_8,228,5,42,127,1060601276
22,9,9,Ticks_ISO_T2_8,229,1,48,37,1060627044
22,9,9,Ticks_ISO_T2_8,230,1,48,38,1061399892
22,9,9,Ticks_ISO_T2_8,231,5,42,127,1061401724
22,9,9,Ticks_ISO_T2_8,232,1,48,40,1062193448
22,9,9,Ticks_ISO_T2_8,233,5,42,127,1062200576
22,9,9,Ticks_ISO_T2_8,234,1,48,37,1062986884
22,9,9,Ticks_ISO_T2_8,235,5,42,127,1063000344
22,9,9,Ticks_ISO_T2_8,236,5,42,127,1063801260
22,9,9,Ticks_ISO_T2_8,237,1,48,38,1063806652
22,9,9,Ticks_ISO_T2_8,0,9999,9999,9999,968598620
22,9,9,Ticks_ISO_T2_8,1,9999,9999,9999,969398336
22,9,9,Ticks_ISO_T2_8,2,9999,9999,9999,970198068
22,9,9,Ticks_ISO_T2_8,3,9999,9999,9999,970998832
22,9,9,Ticks_ISO_T2_8,4,9999,9999,9999,971798596
22,9,9,Ticks_ISO_T2_8,5,9999,9999,9999,972598356
22,9,9,Ticks_ISO_T2_8,6,9999,9999,9999,973398128
22,9,9,Ticks_ISO_T2_8,7,9999,9999,9999,974198880
22,9,9,Ticks_ISO_T2_8,8,9999,9999,9999,974998576
22,9,9,Ticks_ISO_T2_8,9,9999,9999,9999,975798332
22,9,9,Ticks_ISO_T2_8,10,9999,9999,9999,976598124
22,9,9,Ticks_ISO_T2_8,11,9999,9999,9999,977398880
22,9,9,Ticks_ISO_T2_8,12,9999,9999,9999,978198648
22,9,9,Ticks_ISO_T2_8,13,9999,9999,9999,978998344
22,9,9,Ticks_ISO_T2_8,14,9999,9999,9999,979798112
22,9,9,Ticks_ISO_T2_8,15,9999,9999,9999,980598868
22,9,9,Ticks_ISO_T2_8,16,9999,9999,9999,981398624
22,9,9,Ticks_ISO_T2_8,17,9999,9999,9999,982198324
22,9,9,Ticks_ISO_T2_8,18,9999,9999,9999,982998116
22,9,9,Ticks_ISO_T2_8,19,9999,9999,9999,983798872
22,9,9,Ticks_ISO_T2_8,20,9999,9999,9999,984598636
22,9,9,Ticks_ISO_T2_8,21,9999,9999,9999,985398328
22,9,9,Ticks_ISO_T2_8,22,9999,9999,9999,986198088
22,9,9,Ticks_ISO_T2_8,23,9999,9999,9999,986998844
22,9,9,Ticks_ISO_T2_8,24,9999,9999,9999,987798620
22,9,9,Ticks_ISO_T2_8,25,9999,9999,9999,988598332
22,9,9,Ticks_ISO_T2_8,26,9999,9999,9999,989398092
22,9,9,Ticks_ISO_T2_8,27,9999,9999,9999,990198848
22,9,9,Ticks_ISO_T2_8,28,9999,9999,9999,990998616
22,9,9,Ticks_ISO_T2_8,29,9999,9999,9999,991798388
22,9,9,Ticks_ISO_T2_8,30,9999,9999,9999,992598072
22,9,9,Ticks_ISO_T2_8,31,9999,9999,9999,993398904
22,9,9,Ticks_ISO_T2_8,32,9999,9999,9999,994198604
22,9,9,Ticks_ISO_T2_8,33,9999,9999,9999,994998368
22,9,9,Ticks_ISO_T2_8,34,9999,9999,9999,995798084
22,9,9,Ticks_ISO_T2_8,35,9999,9999,9999,996598836
22,9,9,Ticks_ISO_T2_8,36,9999,9999,9999,997398608
22,9,9,Ticks_ISO_T2_8,37,9999,9999,9999,998198376
22,9,9,Ticks_ISO_T2_8,38,9999,9999,9999,998998068
22,9,9,Ticks_ISO_T2_8,39,9999,9999,9999,999798892
22,9,9,Ticks_ISO_T2_8,40,9999,9999,9999,1000598592
22,9,9,Ticks_ISO_T2_8,41,9999,9999,9999,1001398356
22,9,9,Ticks_ISO_T2_8,42,9999,9999,9999,1002198072
22,9,9,Ticks_ISO_T2_8,43,9999,9999,9999,1002998900
22,9,9,Ticks_ISO_T2_8,44,9999,9999,9999,1003798596
22,9,9,Ticks_ISO_T2_8,45,9999,9999,9999,1004598360
22,9,9,Ticks_ISO_T2_8,46,9999,9999,9999,1005398128
22,9,9,Ticks_ISO_T2_8,47,9999,9999,9999,1006198888
22,9,9,Ticks_ISO_T2_8,48,9999,9999,9999,1006998576
22,9,9,Ticks_ISO_T2_8,49,9999,9999,9999,1007798344
22,9,9,Ticks_ISO_T2_8,50,9999,9999,9999,1008598124
22,9,9,Ticks_ISO_T2_8,51,9999,9999,9999,1009398892
22,9,9,Ticks_ISO_T2_8,52,9999,9999,9999,1010198580
22,9,9,Ticks_ISO_T2_8,53,9999,9999,9999,1010998340
22,9,9,Ticks_ISO_T2_8,54,9999,9999,9999,1011798112
22,9,9,Ticks_ISO_T2_8,55,9999,9999,9999,1012598860
22,9,9,Ticks_ISO_T2_8,56,9999,9999,9999,1013398636
22,9,9,Ticks_ISO_T2_8,57,9999,9999,9999,1014198316
22,9,9,Ticks_ISO_T2_8,58,9999,9999,9999,1014998116
22,9,9,Ticks_ISO_T2_8,59,9999,9999,9999,1015798868
22,9,9,Ticks_ISO_T2_8,60,9999,9999,9999,1016598640
22,9,9,Ticks_ISO_T2_8,61,9999,9999,9999,1017398332
22,9,9,Ticks_ISO_T2_8,62,9999,9999,9999,1018198096
22,9,9,Ticks_ISO_T2_8,63,9999,9999,9999,1018998852
22,9,9,Ticks_ISO_T2_8,64,9999,9999,9999,1019798620
22,9,9,Ticks_ISO_T2_8,65,9999,9999,9999,1020598384
22,9,9,Ticks_ISO_T2_8,66,9999,9999,9999,1021398100
22,9,9,Ticks_ISO_T2_8,67,9999,9999,9999,1022198860
22,9,9,Ticks_ISO_T2_8,68,9999,9999,9999,1022998616
22,9,9,Ticks_ISO_T2_8,69,9999,9999,9999,1023798384
22,9,9,Ticks_ISO_T2_8,70,9999,9999,9999,1024598080
22,9,9,Ticks_ISO_T2_8,71,9999,9999,9999,1025398880
22,9,9,Ticks_ISO_T2_8,72,9999,9999,9999,1026198648
22,9,9,Ticks_ISO_T2_8,73,9999,9999,9999,1026998344
22,9,9,Ticks_ISO_T2_8,74,9999,9999,9999,1027798136
22,9,9,Ticks_ISO_T2_8,75,9999,9999,9999,1028598892
22,9,9,Ticks_ISO_T2_8,76,9999,9999,9999,1029398584
22,9,9,Ticks_ISO_T2_8,77,9999,9999,9999,1030198352
22,9,9,Ticks_ISO_T2_8,78,9999,9999,9999,1030998116
22,9,9,Ticks_ISO_T2_8,79,9999,9999,9999,1031798872
22,9,9,Ticks_ISO_T2_8,80,9999,9999,9999,1032598640
22,9,9,Ticks_ISO_T2_8,81,9999,9999,9999,1033398328
22,9,9,Ticks_ISO_T2_8,82,9999,9999,9999,1034198112
22,9,9,Ticks_ISO_T2_8,83,9999,9999,9999,1034998880
22,9,9,Ticks_ISO_T2_8,84,9999,9999,9999,1035798644
22,9,9,Ticks_ISO_T2_8,85,9999,9999,9999,1036598336
22,9,9,Ticks_ISO_T2_8,86,9999,9999,9999,1037398100
22,9,9,Ticks_ISO_T2_8,87,9999,9999,9999,1038198860
22,9,9,Ticks_ISO_T2_8,88,9999,9999,9999,1038998624
22,9,9,Ticks_ISO_T2_8,89,9999,9999,9999,1039798388
22,9,9,Ticks_ISO_T2_8,90,9999,9999,9999,1040598080
22,9,9,Ticks_ISO_T2_8,91,9999,9999,9999,1041398836
22,9,9,Ticks_ISO_T2_8,92,9999,9999,9999,1042198604
22,9,9,Ticks_ISO_T2_8,93,9999,9999,9999,1042998368
22,9,9,Ticks_ISO_T2_8,94,9999,9999,9999,1043798136
22,9,9,Ticks_ISO_T2_8,95,9999,9999,9999,1044598892
22,9,9,Ticks_ISO_T2_8,96,9999,9999,9999,1045398584
22,9,9,Ticks_ISO_T2_8,97,9999,9999,9999,1046198348
22,9,9,Ticks_ISO_T2_8,98,9999,9999,9999,1046998064
22,9,9,Ticks_ISO_T2_8,99,9999,9999,9999,1047798888
22,9,9,Ticks_ISO_T2_8,100,9999,9999,9999,1048598588
22,9,9,Ticks_ISO_T2_8,101,9999,9999,9999,1049398356
22,9,9,Ticks_ISO_T2_8,102,9999,9999,9999,1050198116
22,9,9,Ticks_ISO_T2_8,103,9999,9999,9999,1050998880
22,9,9,Ticks_ISO_T2_8,104,9999,9999,9999,1051798640
22,9,9,Ticks_ISO_T2_8,105,9999,9999,9999,1052598328
22,9,9,Ticks_ISO_T2_8,106,9999,9999,9999,1053398120
22,9,9,Ticks_ISO_T2_8,107,9999,9999,9999,1054198884
22,9,9,Ticks_ISO_T2_8,108,9999,9999,9999,1054998576
22,9,9,Ticks_ISO_T2_8,109,9999,9999,9999,1055798332
22,9,9,Ticks_ISO_T2_8,110,9999,9999,9999,1056598100
22,9,9,Ticks_ISO_T2_8,111,9999,9999,9999,1057398856
22,9,9,Ticks_ISO_T2_8,112,9999,9999,9999,1058198624
22,9,9,Ticks_ISO_T2_8,113,9999,9999,9999,1058998320
22,9,9,Ticks_ISO_T2_8,114,9999,9999,9999,1059798116
22,9,9,Ticks_ISO_T2_8,115,9999,9999,9999,1060598872
22,9,9,Ticks_ISO_T2_8,116,9999,9999,9999,1061398640
22,9,9,Ticks_ISO_T2_8,117,9999,9999,9999,1062198324
22,9,9,Ticks_ISO_T2_8,118,9999,9999,9999,1062998088
22,9,9,Ticks_ISO_T2_8,119,9999,9999,9999,1063798856
22,10,10,Ticks_ISO_T2_5,0,5,42,127,1075718728
22,10,10,Ticks_ISO_T2_5,1,5,42,127,1076219292
22,10,10,Ticks_ISO_T2_5,2,1,48,26,1076316940
22,10,10,Ticks_ISO_T2_5,3,1,48,38,1076706900
22,10,10,Ticks_ISO_T2_5,4,5,42,127,1076718908
22,10,10,Ticks_ISO_T2_5,5,1,48,45,1077215600
22,10,10,Ticks_ISO_T2_5,6,5,42,127,1077218684
22,10,10,Ticks_ISO_T2_5,7,5,42,127,1077719536
22,10,10,Ticks_ISO_T2_5,8,1,48,44,1077724472
22,10,10,Ticks_ISO_T2_5,9,5,42,127,1078219236
22,10,10,Ticks_ISO_T2_5,10,1,48,48,1078227528
22,10,10,Ticks_ISO_T2_5,11,1,48,46,1078706664
22,10,10,Ticks_ISO_T2_5,12,5,42,127,1078718752
22,10,10,Ticks_ISO_T2_5,13,1,48,43,1079210180
22,10,10,Ticks_ISO_T2_5,14,5,42,127,1079218452
22,10,10,Ticks_ISO_T2_5,15,1,48,40,1079702016
22,10,10,Ticks_ISO_T2_5,16,5,42,127,1079719372
22,10,10,Ticks_ISO_T2_5,17,5,42,127,1080218928
22,10,10,Ticks_ISO_T2_5,18,1,48,38,1080220140
22,10,10,Ticks_ISO_T2_5,19,5,42,127,1080718628
22,10,10,Ticks_ISO_T2_5,20,1,48,43,1080728828
22,10,10,Ticks_ISO_T2_5,21,1,48,38,1081206456
22,10,10,Ticks_ISO_T2_5,22,5,42,127,1081218472
22,10,10,Ticks_ISO_T2_5,23,1,48,46,1081704024
22,10,10,Ticks_ISO_T2_5,24,5,42,127,1081719540
22,10,10,Ticks_ISO_T2_5,25,5,42,127,1082218796
22,10,10,Ticks_ISO_T2_5,26,1,48,39,1082224876
22,10,10,Ticks_ISO_T2_5,27,1,48,40,1082712124
22,10,10,Ticks_ISO_T2_5,28,5,42,127,1082718412
22,10,10,Ticks_ISO_T2_5,29,1,48,38,1083216400
22,10,10,Ticks_ISO_T2_5,30,5,42,127,1083219484
22,10,10,Ticks_ISO_T2_5,31,5,42,127,1083719116
22,10,10,Ticks_ISO_T2_5,32,1,48,38,1083733284
22,10,10,Ticks_ISO_T2_5,33,5,42,127,1084218892
22,10,10,Ticks_ISO_T2_5,34,1,48,37,1084219876
22,10,10,Ticks_ISO_T2_5,35,1,48,40,1084712524
22,10,10,Ticks_ISO_T2_5,36,5,42,127,1084718432
22,10,10,Ticks_ISO_T2_5,37,1,48,38,1085199636
22,10,10,Ticks_ISO_T2_5,38,5,42,127,1085219276
22,10,10,Ticks_ISO_T2_5,39,1,48,36,1085689564
22,10,10,Ticks_ISO_T2_5,40,5,42,127,1085719052
22,10,10,Ticks_ISO_T2_5,41,5,42,127,1086218760
22,10,10,Ticks_ISO_T2_5,42,1,48,39,1086219744
22,10,10,Ticks_ISO_T2_5,43,5,42,127,1086719452
22,10,10,Ticks_ISO_T2_5,44,1,48,33,1086723624
22,10,10,Ticks_ISO_T2_5,45,5,42,127,1087219076
22,10,10,Ticks_ISO_T2_5,46,1,48,33,1087249652
22,10,10,Ticks_ISO_T2_5,47,5,42,127,1087719004
22,10,10,Ticks_ISO_T2_5,48,1,48,39,1087727832
22,10,10,Ticks_ISO_T2_5,49,1,48,41,1088197504
22,10,10,Ticks_ISO_T2_5,50,5,42,127,1088218468
22,10,10,Ticks_ISO_T2_5,51,1,48,39,1088708344
22,10,10,Ticks_ISO_T2_5,52,5,42,127,1088719160
22,10,10,Ticks_ISO_T2_5,53,5,42,127,1089219224
22,10,10,Ticks_ISO_T2_5,54,1,48,34,1089221872
22,10,10,Ticks_ISO_T2_5,55,5,42,127,1089718772
22,10,10,Ticks_ISO_T2_5,56,1,48,43,1089742428
22,10,10,Ticks_ISO_T2_5,57,5,42,127,1090219388
22,10,10,Ticks_ISO_T2_5,58,1,48,31,1090255944
22,10,10,Ticks_ISO_T2_5,59,1,48,36,1090707072
22,10,10,Ticks_ISO_T2_5,60,5,42,127,1090719004
22,10,10,Ticks_ISO_T2_5,61,1,48,39,1091218252
22,10,10,Ticks_ISO_T2_5,62,5,42,127,1091220000
22,10,10,Ticks_ISO_T2_5,63,5,42,127,1091718412
22,10,10,Ticks_ISO_T2_5,64,1,48,33,1091721972
22,10,10,Ticks_ISO_T2_5,65,5,42,127,1092219180
22,10,10,Ticks_ISO_T2_5,66,1,48,41,1092221980
22,10,10,Ticks_ISO_T2_5,67,5,42,127,1092719032
22,10,10,Ticks_ISO_T2_5,68,1,48,33,1092723356
22,10,10,Ticks_ISO_T2_5,69,1,48,34,1093182600
22,10,10,Ticks_ISO_T2_5,70,5,42,127,1093218800
22,10,10,Ticks_ISO_T2_5,71,1,48,37,1093703208
22,10,10,Ticks_ISO_T2_5,72,5,42,127,1093719340
22,10,10,Ticks_ISO_T2_5,73,1,48,39,1094213900
22,10,10,Ticks_ISO_T2_5,74,5,42,127,1094219268
22,10,10,Ticks_ISO_T2_5,75,1,48,37,1094704364
22,10,10,Ticks_ISO_T2_5,76,5,42,127,1094718816
22,10,10,Ticks_ISO_T2_5,77,5,42,127,1095218676
22,10,10,Ticks_ISO_T2_5,78,1,48,35,1095229796
22,10,10,Ticks_ISO_T2_5,79,5,42,127,1095719292
22,10,10,Ticks_ISO_T2_5,80,1,48,36,1095742540
22,10,10,Ticks_ISO_T2_5,81,5,42,127,1096219068
22,10,10,Ticks_ISO_T2_5,82,1,48,43,1096225224
22,10,10,Ticks_ISO_T2_5,83,1,48,43,1096696908
22,10,10,Ticks_ISO_T2_5,84,5,42,127,1096718760
22,10,10,Ticks_ISO_T2_5,85,5,42,127,1097218468
22,10,10,Ticks_ISO_T2_5,86,1,48,34,1097231568
22,10,10,Ticks_ISO_T2_5,87,5,42,127,1097719084
22,10,10,Ticks_ISO_T2_5,88,1,48,32,1097720828
22,10,10,Ticks_ISO_T2_5,89,5,42,127,1098218788
22,10,10,Ticks_ISO_T2_5,90,1,48,37,1098222268
22,10,10,Ticks_ISO_T2_5,91,1,48,41,1098715620
22,10,10,Ticks_ISO_T2_5,92,5,42,127,1098718780
22,10,10,Ticks_ISO_T2_5,93,1,48,40,1099195536
22,10,10,Ticks_ISO_T2_5,94,5,42,127,1099219548
22,10,10,Ticks_ISO_T2_5,95,5,42,127,1099718928
22,10,10,Ticks_ISO_T2_5,96,1,48,46,1099726176
22,10,10,Ticks_ISO_T2_5,97,5,42,127,1100218628
22,10,10,Ticks_ISO_T2_5,98,1,48,38,1100227452
22,10,10,Ticks_ISO_T2_5,99,1,48,40,1100699060
22,10,10,Ticks_ISO_T2_5,100,5,42,127,1100718396
22,10,10,Ticks_ISO_T2_5,101,1,48,46,1101201808
22,10,10,Ticks_ISO_T2_5,102,5,42,127,1101219088
22,10,10,Ticks_ISO_T2_5,103,1,48,33,1101714636
22,10,10,Ticks_ISO_T2_5,104,5,42,127,1101718788
22,10,10,Ticks_ISO_T2_5,105,1,48,38,1102193652
22,10,10,Ticks_ISO_T2_5,106,5,42,127,1102218716
22,10,10,Ticks_ISO_T2_5,107,1,48,21,1102719716
22,10,10,Ticks_ISO_T2_5,108,5,42,127,1102721164
22,10,10,Ticks_ISO_T2_5,109,5,42,127,1103218964
22,10,10,Ticks_ISO_T2_5,110,1,48,38,1103226640
22,10,10,Ticks_ISO_T2_5,111,1,48,41,1103701984
22,10,10,Ticks_ISO_T2_5,112,5,42,127,1103718732
22,10,10,Ticks_ISO_T2_5,113,1,48,33,1104186428
22,10,10,Ticks_ISO_T2_5,114,5,42,127,1104218432
22,10,10,Ticks_ISO_T2_5,115,1,48,31,1104707340
22,10,10,Ticks_ISO_T2_5,116,5,42,127,1104719352
22,10,10,Ticks_ISO_T2_5,117,1,48,27,1105195364
22,10,10,Ticks_ISO_T2_5,118,5,42,127,1105218824
22,10,10,Ticks_ISO_T2_5,119,1,48,40,1105715592
22,10,10,Ticks_ISO_T2_5,120,5,42,127,1105718676
22,10,10,Ticks_ISO_T2_5,121,1,48,33,1106213460
22,10,10,Ticks_ISO_T2_5,122,5,42,127,1106219368
22,10,10,Ticks_ISO_T2_5,123,5,42,127,1106719300
22,10,10,Ticks_ISO_T2_5,124,1,48,40,1106727216
22,10,10,Ticks_ISO_T2_5,125,5,42,127,1107218700
22,10,10,Ticks_ISO_T2_5,126,1,48,35,1107238284
22,10,10,Ticks_ISO_T2_5,127,5,42,127,1107718628
22,10,10,Ticks_ISO_T2_5,128,1,48,40,1107733864
22,10,10,Ticks_ISO_T2_5,129,5,42,127,1108219244
22,10,10,Ticks_ISO_T2_5,130,1,48,38,1108220152
22,10,10,Ticks_ISO_T2_5,131,1,48,40,1108715240
22,10,10,Ticks_ISO_T2_5,132,5,42,127,1108719088
22,10,10,Ticks_ISO_T2_5,133,1,48,40,1109201280
22,10,10,Ticks_ISO_T2_5,134,5,42,127,1109218636
22,10,10,Ticks_ISO_T2_5,135,1,48,40,1109718488
22,10,10,Ticks_ISO_T2_5,136,5,42,127,1109720244
22,10,10,Ticks_ISO_T2_5,137,5,42,127,1110219188
22,10,10,Ticks_ISO_T2_5,138,1,48,32,1110225040
22,10,10,Ticks_ISO_T2_5,139,1,48,37,1110681964
22,10,10,Ticks_ISO_T2_5,140,5,42,127,1110718852
22,10,10,Ticks_ISO_T2_5,141,1,48,29,1111212568
22,10,10,Ticks_ISO_T2_5,142,5,42,127,1111218552
22,10,10,Ticks_ISO_T2_5,143,1,48,38,1111712804
22,10,10,Ticks_ISO_T2_5,144,5,42,127,1111719244
22,10,10,Ticks_ISO_T2_5,145,1,48,37,1112204948
22,10,10,Ticks_ISO_T2_5,146,5,42,127,1112218944
22,10,10,Ticks_ISO_T2_5,147,1,48,30,1112679312
22,10,10,Ticks_ISO_T2_5,148,5,42,127,1112719024
22,10,10,Ticks_ISO_T2_5,149,5,42,127,1113218656
22,10,10,Ticks_ISO_T2_5,150,1,48,39,1113219640
22,10,10,Ticks_ISO_T2_5,151,5,42,127,1113719044
22,10,10,Ticks_ISO_T2_5,152,1,48,38,1113724208
22,10,10,Ticks_ISO_T2_5,153,1,48,37,1114199628
22,10,10,Ticks_ISO_T2_5,154,5,42,127,1114219040
22,10,10,Ticks_ISO_T2_5,155,1,48,37,1114711460
22,10,10,Ticks_ISO_T2_5,156,5,42,127,1114718512
22,10,10,Ticks_ISO_T2_5,157,5,42,127,1115219288
22,10,10,Ticks_ISO_T2_5,158,1,48,38,1115222004
22,10,10,Ticks_ISO_T2_5,159,1,48,40,1115696668
22,10,10,Ticks_ISO_T2_5,160,5,42,127,1115719056
22,10,10,Ticks_ISO_T2_5,161,1,48,36,1116203000
22,10,10,Ticks_ISO_T2_5,162,5,42,127,1116218680
22,10,10,Ticks_ISO_T2_5,163,1,48,31,1116715828
22,10,10,Ticks_ISO_T2_5,164,5,42,127,1116718460
22,10,10,Ticks_ISO_T2_5,165,5,42,127,1117219308
22,10,10,Ticks_ISO_T2_5,166,1,48,35,1117222184
22,10,10,Ticks_ISO_T2_5,167,1,48,39,1117712788
22,10,10,Ticks_ISO_T2_5,168,5,42,127,1117718924
22,10,10,Ticks_ISO_T2_5,169,1,48,40,1118214172
22,10,10,Ticks_ISO_T2_5,170,5,42,127,1118218776
22,10,10,Ticks_ISO_T2_5,171,5,42,127,1118719400
22,10,10,Ticks_ISO_T2_5,172,1,48,31,1118721816
22,10,10,Ticks_ISO_T2_5,173,5,42,127,1119218948
22,10,10,Ticks_ISO_T2_5,174,1,48,28,1119232504
22,10,10,Ticks_ISO_T2_5,175,1,48,40,1119707620
22,10,10,Ticks_ISO_T2_5,176,5,42,127,1119718868
22,10,10,Ticks_ISO_T2_5,177,1,48,38,1120215024
22,10,10,Ticks_ISO_T2_5,178,5,42,127,1120218720
22,10,10,Ticks_ISO_T2_5,179,1,48,38,1120696468
22,10,10,Ticks_ISO_T2_5,180,5,42,127,1120719184
22,10,10,Ticks_ISO_T2_5,181,1,48,38,1121216932
22,10,10,Ticks_ISO_T2_5,182,5,42,127,1121218936
22,10,10,Ticks_ISO_T2_5,183,5,42,127,1121718568
22,10,10,Ticks_ISO_T2_5,184,1,48,40,1121736960
22,10,10,Ticks_ISO_T2_5,185,1,48,38,1122198848
22,10,10,Ticks_ISO_T2_5,186,5,42,127,1122219632
22,10,10,Ticks_ISO_T2_5,187,1,48,23,1122664516
22,10,10,Ticks_ISO_T2_5,188,5,42,127,1122719104
22,10,10,Ticks_ISO_T2_5,189,1,48,33,1123208320
22,10,10,Ticks_ISO_T2_5,190,5,42,127,1123218652
22,10,10,Ticks_ISO_T2_5,191,1,48,32,1123694432
22,10,10,Ticks_ISO_T2_5,192,5,42,127,1123718580
22,10,10,Ticks_ISO_T2_5,193,1,48,34,1124216112
22,10,10,Ticks_ISO_T2_5,194,5,42,127,1124219348
22,10,10,Ticks_ISO_T2_5,195,1,48,36,1124673232
22,10,10,Ticks_ISO_T2_5,196,5,42,127,1124718976
22,10,10,Ticks_ISO_T2_5,197,5,42,127,1125218604
22,10,10,Ticks_ISO_T2_5,198,1,48,26,1125222776
22,10,10,Ticks_ISO_T2_5,199,1,48,30,1125719528
22,10,10,Ticks_ISO_T2_5,200,5,42,127,1125721272
22,10,10,Ticks_ISO_T2_5,201,5,42,127,1126219304
22,10,10,Ticks_ISO_T2_5,202,1,48,33,1126224540
22,10,10,Ticks_ISO_T2_5,203,1,48,31,1126706300
22,10,10,Ticks_ISO_T2_5,204,5,42,127,1126718768
22,10,10,Ticks_ISO_T2_5,205,5,42,127,1127218476
22,10,10,Ticks_ISO_T2_5,206,1,48,31,1127225848
22,10,10,Ticks_ISO_T2_5,207,5,42,127,1127719396
22,10,10,Ticks_ISO_T2_5,208,1,48,33,1127722876
22,10,10,Ticks_ISO_T2_5,209,1,48,32,1128209748
22,10,10,Ticks_ISO_T2_5,210,5,42,127,1128219240
22,10,10,Ticks_ISO_T2_5,211,5,42,127,1128718644
22,10,10,Ticks_ISO_T2_5,212,1,48,28,1128725332
22,10,10,Ticks_ISO_T2_5,213,5,42,127,1129218344
22,10,10,Ticks_ISO_T2_5,214,1,48,33,1129225948
22,10,10,Ticks_ISO_T2_5,215,1,48,36,1129716248
22,10,10,Ticks_ISO_T2_5,216,5,42,127,1129719104
22,10,10,Ticks_ISO_T2_5,217,1,48,28,1130193588
22,10,10,Ticks_ISO_T2_5,218,5,42,127,1130218804
22,10,10,Ticks_ISO_T2_5,219,5,42,127,1130718512
22,10,10,Ticks_ISO_T2_5,220,1,48,29,1130731076
22,10,10,Ticks_ISO_T2_5,221,1,48,34,1131202424
22,10,10,Ticks_ISO_T2_5,222,5,42,127,1131219272
22,10,10,Ticks_ISO_T2_5,223,5,42,127,1131719208
22,10,10,Ticks_ISO_T2_5,224,1,48,32,1131753440
22,10,10,Ticks_ISO_T2_5,225,1,48,30,1132214876
22,10,10,Ticks_ISO_T2_5,226,5,42,127,1132218800
22,10,10,Ticks_ISO_T2_5,227,1,48,33,1132671084
22,10,10,Ticks_ISO_T2_5,228,5,42,127,1132718424
22,10,10,Ticks_ISO_T2_5,229,1,48,31,1133214048
22,10,10,Ticks_ISO_T2_5,230,5,42,127,1133219192
22,10,10,Ticks_ISO_T2_5,231,1,48,36,1133669104
22,10,10,Ticks_ISO_T2_5,232,5,42,127,1133718892
22,10,10,Ticks_ISO_T2_5,233,5,42,127,1134218524
22,10,10,Ticks_ISO_T2_5,234,1,48,33,1134219964
22,10,10,Ticks_ISO_T2_5,235,1,48,35,1134713828
22,10,10,Ticks_ISO_T2_5,236,5,42,127,1134719284
22,10,10,Ticks_ISO_T2_5,237,1,48,33,1135213840
22,10,10,Ticks_ISO_T2_5,238,5,42,127,1135219136
22,10,10,Ticks_ISO_T2_5,239,1,48,28,1135712700
22,10,10,Ticks_ISO_T2_5,240,5,42,127,1135718912
22,10,10,Ticks_ISO_T2_5,241,1,48,37,1136203932
22,10,10,Ticks_ISO_T2_5,242,5,42,127,1136218460
22,10,10,Ticks_ISO_T2_5,243,1,48,31,1136700732
22,10,10,Ticks_ISO_T2_5,244,5,42,127,1136719152
22,10,10,Ticks_ISO_T2_5,245,1,48,30,1137206224
22,10,10,Ticks_ISO_T2_5,246,5,42,127,1137219004
22,10,10,Ticks_ISO_T2_5,247,5,42,127,1137719016
22,10,10,Ticks_ISO_T2_5,248,1,48,32,1137722192
22,10,10,Ticks_ISO_T2_5,249,5,42,127,1138219252
22,10,10,Ticks_ISO_T2_5,250,1,48,29,1138233340
22,10,10,Ticks_ISO_T2_5,251,1,48,39,1138650844
22,10,10,Ticks_ISO_T2_5,252,5,42,127,1138719172
22,10,10,Ticks_ISO_T2_5,253,1,48,27,1139207164
22,10,10,Ticks_ISO_T2_5,254,5,42,127,1139218948
22,10,10,Ticks_ISO_T2_5,255,5,42,127,1139718656
22,10,10,Ticks_ISO_T2_5,256,1,48,27,1139733816
22,10,10,Ticks_ISO_T2_5,257,1,48,24,1140198404
22,10,10,Ticks_ISO_T2_5,258,5,42,127,1140219188
22,10,10,Ticks_ISO_T2_5,0,9999,9999,9999,1075716172
22,10,10,Ticks_ISO_T2_5,1,9999,9999,9999,1076216888
22,10,10,Ticks_ISO_T2_5,2,9999,9999,9999,1076716656
22,10,10,Ticks_ISO_T2_5,3,9999,9999,9999,1077216356
22,10,10,Ticks_ISO_T2_5,4,9999,9999,9999,1077717056
22,10,10,Ticks_ISO_T2_5,5,9999,9999,9999,1078216808
22,10,10,Ticks_ISO_T2_5,6,9999,9999,9999,1078716500
22,10,10,Ticks_ISO_T2_5,7,9999,9999,9999,1079216200
22,10,10,Ticks_ISO_T2_5,8,9999,9999,9999,1079716968
22,10,10,Ticks_ISO_T2_5,9,9999,9999,9999,1080216676
22,10,10,Ticks_ISO_T2_5,10,9999,9999,9999,1080716376
22,10,10,Ticks_ISO_T2_5,11,9999,9999,9999,1081216068
22,10,10,Ticks_ISO_T2_5,12,9999,9999,9999,1081716836
22,10,10,Ticks_ISO_T2_5,13,9999,9999,9999,1082216544
22,10,10,Ticks_ISO_T2_5,14,9999,9999,9999,1082716236
22,10,10,Ticks_ISO_T2_5,15,9999,9999,9999,1083217004
22,10,10,Ticks_ISO_T2_5,16,9999,9999,9999,1083716712
22,10,10,Ticks_ISO_T2_5,17,9999,9999,9999,1084216412
22,10,10,Ticks_ISO_T2_5,18,9999,9999,9999,1084716104
22,10,10,Ticks_ISO_T2_5,19,9999,9999,9999,1085216872
22,10,10,Ticks_ISO_T2_5,20,9999,9999,9999,1085716572
22,10,10,Ticks_ISO_T2_5,21,9999,9999,9999,1086216280
22,10,10,Ticks_ISO_T2_5,22,9999,9999,9999,1086717048
22,10,10,Ticks_ISO_T2_5,23,9999,9999,9999,1087216748
22,10,10,Ticks_ISO_T2_5,24,9999,9999,9999,1087716448
22,10,10,Ticks_ISO_T2_5,25,9999,9999,9999,1088216140
22,10,10,Ticks_ISO_T2_5,26,9999,9999,9999,1088716908
22,10,10,Ticks_ISO_T2_5,27,9999,9999,9999,1089216592
22,10,10,Ticks_ISO_T2_5,28,9999,9999,9999,1089716292
22,10,10,Ticks_ISO_T2_5,29,9999,9999,9999,1090217060
22,10,10,Ticks_ISO_T2_5,30,9999,9999,9999,1090716752
22,10,10,Ticks_ISO_T2_5,31,9999,9999,9999,1091216460
22,10,10,Ticks_ISO_T2_5,32,9999,9999,9999,1091716160
22,10,10,Ticks_ISO_T2_5,33,9999,9999,9999,1092216928
22,10,10,Ticks_ISO_T2_5,34,9999,9999,9999,1092716628
22,10,10,Ticks_ISO_T2_5,35,9999,9999,9999,1093216320
22,10,10,Ticks_ISO_T2_5,36,9999,9999,9999,1093717088
22,10,10,Ticks_ISO_T2_5,37,9999,9999,9999,1094216788
22,10,10,Ticks_ISO_T2_5,38,9999,9999,9999,1094716488
22,10,10,Ticks_ISO_T2_5,39,9999,9999,9999,1095216196
22,10,10,Ticks_ISO_T2_5,40,9999,9999,9999,1095716964
22,10,10,Ticks_ISO_T2_5,41,9999,9999,9999,1096216664
22,10,10,Ticks_ISO_T2_5,42,9999,9999,9999,1096716356
22,10,10,Ticks_ISO_T2_5,43,9999,9999,9999,1097216064
22,10,10,Ticks_ISO_T2_5,44,9999,9999,9999,1097716832
22,10,10,Ticks_ISO_T2_5,45,9999,9999,9999,1098216532
22,10,10,Ticks_ISO_T2_5,46,9999,9999,9999,1098716224
22,10,10,Ticks_ISO_T2_5,47,9999,9999,9999,1099216996
22,10,10,Ticks_ISO_T2_5,48,9999,9999,9999,1099716676
22,10,10,Ticks_ISO_T2_5,49,9999,9999,9999,1100216376
22,10,10,Ticks_ISO_T2_5,50,9999,9999,9999,1100716144
22,10,10,Ticks_ISO_T2_5,51,9999,9999,9999,1101216832
22,10,10,Ticks_ISO_T2_5,52,9999,9999,9999,1101716536
22,10,10,Ticks_ISO_T2_5,53,9999,9999,9999,1102216312
22,10,10,Ticks_ISO_T2_5,54,9999,9999,9999,1102717008
22,10,10,Ticks_ISO_T2_5,55,9999,9999,9999,1103216708
22,10,10,Ticks_ISO_T2_5,56,9999,9999,9999,1103716404
22,10,10,Ticks_ISO_T2_5,57,9999,9999,9999,1104216180
22,10,10,Ticks_ISO_T2_5,58,9999,9999,9999,1104716872
22,10,10,Ticks_ISO_T2_5,59,9999,9999,9999,1105216572
22,10,10,Ticks_ISO_T2_5,60,9999,9999,9999,1105716348
22,10,10,Ticks_ISO_T2_5,61,9999,9999,9999,1106217040
22,10,10,Ticks_ISO_T2_5,62,9999,9999,9999,1106716744
22,10,10,Ticks_ISO_T2_5,63,9999,9999,9999,1107216448
22,10,10,Ticks_ISO_T2_5,64,9999,9999,9999,1107716144
22,10,10,Ticks_ISO_T2_5,65,9999,9999,9999,1108216916
22,10,10,Ticks_ISO_T2_5,66,9999,9999,9999,1108716608
22,10,10,Ticks_ISO_T2_5,67,9999,9999,9999,1109216308
22,10,10,Ticks_ISO_T2_5,68,9999,9999,9999,1109717080
22,10,10,Ticks_ISO_T2_5,69,9999,9999,9999,1110216784
22,10,10,Ticks_ISO_T2_5,70,9999,9999,9999,1110716524
22,10,10,Ticks_ISO_T2_5,71,9999,9999,9999,1111216224
22,10,10,Ticks_ISO_T2_5,72,9999,9999,9999,1111716916
22,10,10,Ticks_ISO_T2_5,73,9999,9999,9999,1112216692
22,10,10,Ticks_ISO_T2_5,74,9999,9999,9999,1112716392
22,10,10,Ticks_ISO_T2_5,75,9999,9999,9999,1113216100
22,10,10,Ticks_ISO_T2_5,76,9999,9999,9999,1113716792
22,10,10,Ticks_ISO_T2_5,77,9999,9999,9999,1114216560
22,10,10,Ticks_ISO_T2_5,78,9999,9999,9999,1114716260
22,10,10,Ticks_ISO_T2_5,79,9999,9999,9999,1115216960
22,10,10,Ticks_ISO_T2_5,80,9999,9999,9999,1115716728
22,10,10,Ticks_ISO_T2_5,81,9999,9999,9999,1116216428
22,10,10,Ticks_ISO_T2_5,82,9999,9999,9999,1116716132
22,10,10,Ticks_ISO_T2_5,83,9999,9999,9999,1117216828
22,10,10,Ticks_ISO_T2_5,84,9999,9999,9999,1117716596
22,10,10,Ticks_ISO_T2_5,85,9999,9999,9999,1118216300
22,10,10,Ticks_ISO_T2_5,86,9999,9999,9999,1118716996
22,10,10,Ticks_ISO_T2_5,87,9999,9999,9999,1119216696
22,10,10,Ticks_ISO_T2_5,88,9999,9999,9999,1119716464
22,10,10,Ticks_ISO_T2_5,89,9999,9999,9999,1120216164
22,10,10,Ticks_ISO_T2_5,90,9999,9999,9999,1120716856
22,10,10,Ticks_ISO_T2_5,91,9999,9999,9999,1121216640
22,10,10,Ticks_ISO_T2_5,92,9999,9999,9999,1121716316
22,10,10,Ticks_ISO_T2_5,93,9999,9999,9999,1122217076
22,10,10,Ticks_ISO_T2_5,94,9999,9999,9999,1122716776
22,10,10,Ticks_ISO_T2_5,95,9999,9999,9999,1123216476
22,10,10,Ticks_ISO_T2_5,96,9999,9999,9999,1123716176
22,10,10,Ticks_ISO_T2_5,97,9999,9999,9999,1124216944
22,10,10,Ticks_ISO_T2_5,98,9999,9999,9999,1124716644
22,10,10,Ticks_ISO_T2_5,99,9999,9999,9999,1125216352
22,10,10,Ticks_ISO_T2_5,100,9999,9999,9999,1125717044
22,10,10,Ticks_ISO_T2_5,101,9999,9999,9999,1126216820
22,10,10,Ticks_ISO_T2_5,102,9999,9999,9999,1126716516
22,10,10,Ticks_ISO_T2_5,103,9999,9999,9999,1127216224
22,10,10,Ticks_ISO_T2_5,104,9999,9999,9999,1127716916
22,10,10,Ticks_ISO_T2_5,105,9999,9999,9999,1128216684
22,10,10,Ticks_ISO_T2_5,106,9999,9999,9999,1128716392
22,10,10,Ticks_ISO_T2_5,107,9999,9999,9999,1129216092
22,10,10,Ticks_ISO_T2_5,108,9999,9999,9999,1129716852
22,10,10,Ticks_ISO_T2_5,109,9999,9999,9999,1130216552
22,10,10,Ticks_ISO_T2_5,110,9999,9999,9999,1130716260
22,10,10,Ticks_ISO_T2_5,111,9999,9999,9999,1131217020
22,10,10,Ticks_ISO_T2_5,112,9999,9999,9999,1131716704
22,10,10,Ticks_ISO_T2_5,113,9999,9999,9999,1132216396
22,10,10,Ticks_ISO_T2_5,114,9999,9999,9999,1132716096
22,10,10,Ticks_ISO_T2_5,115,9999,9999,9999,1133216864
22,10,10,Ticks_ISO_T2_5,116,9999,9999,9999,1133716564
22,10,10,Ticks_ISO_T2_5,117,9999,9999,9999,1134216272
22,10,10,Ticks_ISO_T2_5,118,9999,9999,9999,1134717032
22,10,10,Ticks_ISO_T2_5,119,9999,9999,9999,1135216732
22,10,10,Ticks_ISO_T2_5,120,9999,9999,9999,1135716432
22,10,10,Ticks_ISO_T2_5,121,9999,9999,9999,1136216132
22,10,10,Ticks_ISO_T2_5,122,9999,9999,9999,1136716900
22,10,10,Ticks_ISO_T2_5,123,9999,9999,9999,1137216600
22,10,10,Ticks_ISO_T2_5,124,9999,9999,9999,1137716308
22,10,10,Ticks_ISO_T2_5,125,9999,9999,9999,1138217076
22,10,10,Ticks_ISO_T2_5,126,9999,9999,9999,1138716768
22,10,10,Ticks_ISO_T2_5,127,9999,9999,9999,1139216468
22,10,10,Ticks_ISO_T2_5,128,9999,9999,9999,1139716176
22,10,10,Ticks_ISO_T2_5,129,9999,9999,9999,1140216936
22,11,24,Jits_Pract_8,0,5,56,103,1212221756
22,11,24,Jits_Pract_8,1,5,63,98,1212224836
22,11,24,Jits_Pract_8,2,5,80,127,1212228096
22,11,24,Jits_Pract_8,0,5,56,103,1213021480
22,11,24,Jits_Pract_8,1,5,63,98,1213024640
22,11,24,Jits_Pract_8,2,5,80,127,1213027672
22,11,24,Jits_Pract_8,0,5,80,127,1213761848
22,11,24,Jits_Pract_8,1,5,63,98,1213852340
22,11,24,Jits_Pract_8,2,5,56,103,1213862432
22,11,24,Jits_Pract_8,0,5,56,103,1214582228
22,11,24,Jits_Pract_8,1,5,63,98,1214592396
22,11,24,Jits_Pract_8,2,5,80,127,1214681540
22,11,24,Jits_Pract_8,0,5,63,98,1215352092
22,11,24,Jits_Pract_8,1,5,80,127,1215381828
22,11,24,Jits_Pract_8,2,1,48,44,1215403884
22,11,24,Jits_Pract_8,3,5,56,103,1215411552
22,11,24,Jits_Pract_8,0,1,48,53,1216131352
22,11,24,Jits_Pract_8,1,5,56,103,1216152080
22,11,24,Jits_Pract_8,2,5,80,127,1216252220
22,11,24,Jits_Pract_8,3,5,63,98,1216301444
22,11,24,Jits_Pract_8,0,5,56,103,1216951788
22,11,24,Jits_Pract_8,1,5,80,127,1217002184
22,11,24,Jits_Pract_8,2,5,63,98,1217041780
22,11,24,Jits_Pract_8,3,1,48,50,1217071484
22,11,24,Jits_Pract_8,0,5,80,127,1217782096
22,11,24,Jits_Pract_8,1,5,63,98,1217811908
22,11,24,Jits_Pract_8,2,1,48,46,1217840472
22,11,24,Jits_Pract_8,3,5,56,103,1217881452
22,11,24,Jits_Pract_8,0,5,63,98,1218611620
22,11,24,Jits_Pract_8,1,5,56,103,1218642192
22,11,24,Jits_Pract_8,2,1,48,49,1218651268
22,11,24,Jits_Pract_8,3,5,80,127,1218701800
22,11,24,Jits_Pract_8,0,5,56,103,1219352004
22,11,24,Jits_Pract_8,1,5,80,127,1219355052
22,11,24,Jits_Pract_8,2,1,48,51,1219432456
22,11,24,Jits_Pract_8,3,5,63,98,1219471984
22,11,24,Jits_Pract_8,0,1,48,51,1220178720
22,11,24,Jits_Pract_8,1,5,56,103,1220231496
22,11,24,Jits_Pract_8,2,5,80,127,1220271472
22,11,24,Jits_Pract_8,3,5,63,98,1220281928
22,11,24,Jits_Pract_8,0,5,56,103,1220992376
22,11,24,Jits_Pract_8,1,5,80,127,1221011944
22,11,24,Jits_Pract_8,2,1,48,50,1221028340
22,11,24,Jits_Pract_8,3,5,63,98,1221091980
22,11,24,Jits_Pract_8,0,5,80,127,1221781996
22,11,24,Jits_Pract_8,1,1,48,51,1221849172
22,11,24,Jits_Pract_8,2,5,56,103,1221882144
22,11,24,Jits_Pract_8,3,5,63,98,1221891620
22,11,24,Jits_Pract_8,0,5,63,98,1222551980
22,11,24,Jits_Pract_8,1,5,80,127,1222612312
22,11,24,Jits_Pract_8,2,5,56,103,1222621792
22,11,24,Jits_Pract_8,3,1,48,47,1222678844
22,11,24,Jits_Pract_8,0,5,56,103,1223351904
22,11,24,Jits_Pract_8,1,1,48,52,1223398284
22,11,24,Jits_Pract_8,2,5,63,98,1223422232
22,11,24,Jits_Pract_8,3,5,80,127,1223425816
22,11,24,Jits_Pract_8,0,9999,9999,9999,1212619864
22,11,24,Jits_Pract_8,1,9999,9999,9999,1213419596
22,11,24,Jits_Pract_8,2,9999,9999,9999,1214219348
22,11,24,Jits_Pract_8,3,9999,9999,9999,1215019092
22,11,24,Jits_Pract_8,4,9999,9999,9999,1215819880
22,11,24,Jits_Pract_8,5,9999,9999,9999,1216619580
22,11,24,Jits_Pract_8,6,9999,9999,9999,1217419352
22,11,24,Jits_Pract_8,7,9999,9999,9999,1218219064
22,11,24,Jits_Pract_8,8,9999,9999,9999,1219019876
22,11,24,Jits_Pract_8,9,9999,9999,9999,1219819636
22,11,24,Jits_Pract_8,10,9999,9999,9999,1220619352
22,11,24,Jits_Pract_8,11,9999,9999,9999,1221419124
22,11,24,Jits_Pract_8,12,9999,9999,9999,1222219832
22,11,24,Jits_Pract_8,13,9999,9999,9999,1223019616
22,11,24,Jits_Pract_8,14,9999,9999,9999,1223819380
22,12,25,Jits_Pract_5,0,5,56,103,1235981576
22,12,25,Jits_Pract_5,1,5,63,98,1235984820
22,12,25,Jits_Pract_5,2,5,80,127,1235987996
22,12,25,Jits_Pract_5,0,5,56,103,1236482448
22,12,25,Jits_Pract_5,1,5,63,98,1236485300
22,12,25,Jits_Pract_5,2,5,80,127,1236488560
22,12,25,Jits_Pract_5,0,5,56,103,1236982268
22,12,25,Jits_Pract_5,1,5,80,127,1236992436
22,12,25,Jits_Pract_5,2,5,63,98,1237012080
22,12,25,Jits_Pract_5,0,5,63,98,1237431772
22,12,25,Jits_Pract_5,1,5,80,127,1237462296
22,12,25,Jits_Pract_5,2,5,56,103,1237471700
22,12,25,Jits_Pract_5,0,1,48,42,1237908144
22,12,25,Jits_Pract_5,1,5,80,127,1237991972
22,12,25,Jits_Pract_5,2,5,56,103,1238001988
22,12,25,Jits_Pract_5,3,5,63,98,1238031856
22,12,25,Jits_Pract_5,0,5,63,98,1238491676
22,12,25,Jits_Pract_5,1,1,48,53,1238513656
22,12,25,Jits_Pract_5,2,5,56,103,1238522320
22,12,25,Jits_Pract_5,3,5,80,127,1238531420
22,12,25,Jits_Pract_5,0,5,56,103,1238942120
22,12,25,Jits_Pract_5,1,5,63,98,1238992288
22,12,25,Jits_Pract_5,2,1,48,51,1239003800
22,12,25,Jits_Pract_5,3,5,80,127,1239011772
22,12,25,Jits_Pract_5,0,5,80,127,1239441976
22,12,25,Jits_Pract_5,1,1,48,51,1239455248
22,12,25,Jits_Pract_5,2,5,63,98,1239492136
22,12,25,Jits_Pract_5,3,5,56,103,1239532108
22,12,25,Jits_Pract_5,0,5,56,103,1239941608
22,12,25,Jits_Pract_5,1,5,63,98,1239972104
22,12,25,Jits_Pract_5,2,1,48,43,1239991648
22,12,25,Jits_Pract_5,3,5,80,127,1240041980
22,12,25,Jits_Pract_5,0,5,56,103,1240442224
22,12,25,Jits_Pract_5,1,1,48,48,1240469796
22,12,25,Jits_Pract_5,2,5,80,127,1240501608
22,12,25,Jits_Pract_5,3,5,63,98,1240532360
22,12,25,Jits_Pract_5,0,5,56,103,1240952100
22,12,25,Jits_Pract_5,1,5,63,98,1240962344
22,12,25,Jits_Pract_5,2,1,48,45,1240973856
22,12,25,Jits_Pract_5,3,5,80,127,1241002308
22,12,25,Jits_Pract_5,0,1,48,46,1241439476
22,12,25,Jits_Pract_5,1,5,63,98,1241441932
22,12,25,Jits_Pract_5,2,5,80,127,1241521580
22,12,25,Jits_Pract_5,3,5,56,103,1241531956
22,12,25,Jits_Pract_5,0,1,48,43,1241979480
22,12,25,Jits_Pract_5,1,5,63,98,1241991440
22,12,25,Jits_Pract_5,2,5,56,103,1242031640
22,12,25,Jits_Pract_5,3,5,80,127,1242034840
22,12,25,Jits_Pract_5,0,5,56,103,1242461552
22,12,25,Jits_Pract_5,1,1,48,42,1242467248
22,12,25,Jits_Pract_5,2,5,63,98,1242472092
22,12,25,Jits_Pract_5,3,5,80,127,1242511912
22,12,25,Jits_Pract_5,0,1,48,44,1242939348
22,12,25,Jits_Pract_5,1,5,56,103,1242952068
22,12,25,Jits_Pract_5,2,5,63,98,1242955120
22,12,25,Jits_Pract_5,3,5,80,127,1242971560
22,12,25,Jits_Pract_5,0,9999,9999,9999,1236229192
22,12,25,Jits_Pract_5,1,9999,9999,9999,1236729908
22,12,25,Jits_Pract_5,2,9999,9999,9999,1237229652
22,12,25,Jits_Pract_5,3,9999,9999,9999,1237729392
22,12,25,Jits_Pract_5,4,9999,9999,9999,1238230092
22,12,25,Jits_Pract_5,5,9999,9999,9999,1238740028
22,12,25,Jits_Pract_5,6,9999,9999,9999,1239239792
22,12,25,Jits_Pract_5,7,9999,9999,9999,1239739472
22,12,25,Jits_Pract_5,8,9999,9999,9999,1240239176
22,12,25,Jits_Pract_5,9,9999,9999,9999,1240739952
22,12,25,Jits_Pract_5,10,9999,9999,9999,1241239656
22,12,25,Jits_Pract_5,11,9999,9999,9999,1241739336
22,12,25,Jits_Pract_5,12,9999,9999,9999,1242240092
22,12,25,Jits_Pract_5,13,9999,9999,9999,1242750024
22,12,25,Jits_Pract_5,14,9999,9999,9999,1243249716
22,13,15,Jits_Phase_8,0,5,56,103,1274721556
22,13,15,Jits_Phase_8,1,5,63,98,1274724800
22,13,15,Jits_Phase_8,2,5,80,127,1274727976
22,13,15,Jits_Phase_8,0,5,56,103,1275522588
22,13,15,Jits_Phase_8,1,5,63,98,1275525748
22,13,15,Jits_Phase_8,2,5,80,127,1275528852
22,13,15,Jits_Phase_8,0,5,80,127,1276261656
22,13,15,Jits_Phase_8,1,1,48,55,1276350324
22,13,15,Jits_Phase_8,2,5,63,98,1276352088
22,13,15,Jits_Phase_8,3,5,56,103,1276362104
22,13,15,Jits_Phase_8,0,5,56,103,1277081928
22,13,15,Jits_Phase_8,1,5,63,98,1277092400
22,13,15,Jits_Phase_8,2,1,48,52,1277101700
22,13,15,Jits_Phase_8,3,5,80,127,1277182376
22,13,15,Jits_Phase_8,0,5,63,98,1277852212
22,13,15,Jits_Phase_8,1,1,48,53,1277874732
22,13,15,Jits_Phase_8,2,5,80,127,1277881888
22,13,15,Jits_Phase_8,3,5,56,103,1277912384
22,13,15,Jits_Phase_8,0,5,56,103,1278651856
22,13,15,Jits_Phase_8,1,1,48,56,1278662912
22,13,15,Jits_Phase_8,2,5,80,127,1278752432
22,13,15,Jits_Phase_8,3,5,63,98,1278802328
22,13,15,Jits_Phase_8,0,5,56,103,1279451500
22,13,15,Jits_Phase_8,1,5,80,127,1279501716
22,13,15,Jits_Phase_8,2,5,63,98,1279541540
22,13,15,Jits_Phase_8,3,1,48,53,1279554040
22,13,15,Jits_Phase_8,0,5,80,127,1280282156
22,13,15,Jits_Phase_8,1,5,63,98,1280311664
22,13,15,Jits_Phase_8,2,1,48,54,1280317592
22,13,15,Jits_Phase_8,3,5,56,103,1280382428
22,13,15,Jits_Phase_8,0,5,63,98,1281112444
22,13,15,Jits_Phase_8,1,1,48,54,1281139940
22,13,15,Jits_Phase_8,2,5,56,103,1281142020
22,13,15,Jits_Phase_8,3,5,80,127,1281201636
22,13,15,Jits_Phase_8,0,5,56,103,1281851912
22,13,15,Jits_Phase_8,1,5,80,127,1281854960
22,13,15,Jits_Phase_8,2,1,48,56,1281926244
22,13,15,Jits_Phase_8,3,5,63,98,1281971664
22,13,15,Jits_Phase_8,0,1,48,55,1282707832
22,13,15,Jits_Phase_8,1,5,56,103,1282732324
22,13,15,Jits_Phase_8,2,5,80,127,1282772400
22,13,15,Jits_Phase_8,3,5,63,98,1282781500
22,13,15,Jits_Phase_8,0,5,56,103,1283492212
22,13,15,Jits_Phase_8,1,5,80,127,1283512008
22,13,15,Jits_Phase_8,2,1,48,54,1283515976
22,13,15,Jits_Phase_8,3,5,63,98,1283591588
22,13,15,Jits_Phase_8,0,5,80,127,1284281632
22,13,15,Jits_Phase_8,1,1,48,55,1284316908
22,13,15,Jits_Phase_8,2,5,56,103,1284382132
22,13,15,Jits_Phase_8,3,5,63,98,1284392300
22,13,15,Jits_Phase_8,0,5,63,98,1285051996
22,13,15,Jits_Phase_8,1,5,80,127,1285112148
22,13,15,Jits_Phase_8,2,5,56,103,1285122620
22,13,15,Jits_Phase_8,3,1,48,47,1285167980
22,13,15,Jits_Phase_8,0,5,56,103,1285851464
22,13,15,Jits_Phase_8,1,1,48,53,1285877108
22,13,15,Jits_Phase_8,2,5,63,98,1285922068
22,13,15,Jits_Phase_8,3,5,80,127,1285925352
22,13,15,Jits_Phase_8,0,1,48,54,1286658148
22,13,15,Jits_Phase_8,1,5,63,98,1286682024
22,13,15,Jits_Phase_8,2,5,56,103,1286732316
22,13,15,Jits_Phase_8,3,5,80,127,1286735288
22,13,15,Jits_Phase_8,0,5,56,103,1287441820
22,13,15,Jits_Phase_8,1,5,80,127,1287444792
22,13,15,Jits_Phase_8,2,1,48,51,1287489944
22,13,15,Jits_Phase_8,3,5,63,98,1287532068
22,13,15,Jits_Phase_8,0,5,63,98,1288281724
22,13,15,Jits_Phase_8,1,1,48,51,1288285668
22,13,15,Jits_Phase_8,2,5,56,103,1288371600
22,13,15,Jits_Phase_8,3,5,80,127,1288402336
22,13,15,Jits_Phase_8,0,5,56,103,1289072096
22,13,15,Jits_Phase_8,1,1,48,52,1289136724
22,13,15,Jits_Phase_8,2,5,63,98,1289172392
22,13,15,Jits_Phase_8,3,5,80,127,1289202052
22,13,15,Jits_Phase_8,0,5,63,98,1289892148
22,13,15,Jits_Phase_8,1,5,56,103,1289901324
22,13,15,Jits_Phase_8,2,1,48,56,1289911768
22,13,15,Jits_Phase_8,3,5,80,127,1289991680
22,13,15,Jits_Phase_8,0,1,48,49,1290706812
22,13,15,Jits_Phase_8,1,5,63,98,1290712572
22,13,15,Jits_Phase_8,2,5,56,103,1290792368
22,13,15,Jits_Phase_8,3,5,80,127,1290795420
22,13,15,Jits_Phase_8,0,5,80,127,1291472152
22,13,15,Jits_Phase_8,1,5,63,98,1291491648
22,13,15,Jits_Phase_8,2,1,48,54,1291542900
22,13,15,Jits_Phase_8,3,5,56,103,1291552168
22,13,15,Jits_Phase_8,0,1,48,53,1292299736
22,13,15,Jits_Phase_8,1,5,56,103,1292311832
22,13,15,Jits_Phase_8,2,5,63,98,1292332464
22,13,15,Jits_Phase_8,3,5,80,127,1292335588
22,13,15,Jits_Phase_8,0,5,63,98,1293052660
22,13,15,Jits_Phase_8,1,1,48,54,1293118280
22,13,15,Jits_Phase_8,2,5,80,127,1293132072
22,13,15,Jits_Phase_8,3,5,56,103,1293142620
22,13,15,Jits_Phase_8,0,1,48,56,1293858824
22,13,15,Jits_Phase_8,1,5,63,98,1293871616
22,13,15,Jits_Phase_8,2,5,56,103,1293891952
22,13,15,Jits_Phase_8,3,5,80,127,1293942240
22,13,15,Jits_Phase_8,0,1,48,52,1294672616
22,13,15,Jits_Phase_8,1,5,80,127,1294674060
22,13,15,Jits_Phase_8,2,5,63,98,1294712280
22,13,15,Jits_Phase_8,3,5,56,103,1294731548
22,13,15,Jits_Phase_8,0,1,48,53,1295492160
22,13,15,Jits_Phase_8,1,5,56,103,1295511824
22,13,15,Jits_Phase_8,2,5,63,98,1295522068
22,13,15,Jits_Phase_8,3,5,80,127,1295541636
22,13,15,Jits_Phase_8,0,5,56,103,1296242124
22,13,15,Jits_Phase_8,1,1,48,49,1296276640
22,13,15,Jits_Phase_8,2,5,63,98,1296332256
22,13,15,Jits_Phase_8,3,5,80,127,1296391476
22,13,15,Jits_Phase_8,0,1,48,56,1297068092
22,13,15,Jits_Phase_8,1,5,80,127,1297071564
22,13,15,Jits_Phase_8,2,5,56,103,1297081832
22,13,15,Jits_Phase_8,3,5,63,98,1297152528
22,13,15,Jits_Phase_8,0,5,63,98,1297901944
22,13,15,Jits_Phase_8,1,1,48,54,1297911472
22,13,15,Jits_Phase_8,2,5,80,127,1297992128
22,13,15,Jits_Phase_8,3,5,56,103,1298002296
22,13,15,Jits_Phase_8,0,5,63,98,1298631944
22,13,15,Jits_Phase_8,1,5,80,127,1298682236
22,13,15,Jits_Phase_8,2,1,48,54,1298728060
22,13,15,Jits_Phase_8,3,5,56,103,1298741692
22,13,15,Jits_Phase_8,0,5,56,103,1299452428
22,13,15,Jits_Phase_8,1,5,80,127,1299501352
22,13,15,Jits_Phase_8,2,1,48,58,1299519900
22,13,15,Jits_Phase_8,3,5,63,98,1299521828
22,13,15,Jits_Phase_8,0,5,56,103,1300222412
22,13,15,Jits_Phase_8,1,5,80,127,1300281728
22,13,15,Jits_Phase_8,2,1,48,56,1300298500
22,13,15,Jits_Phase_8,3,5,63,98,1300352264
22,13,15,Jits_Phase_8,0,5,56,103,1301022276
22,13,15,Jits_Phase_8,1,5,80,127,1301051784
22,13,15,Jits_Phase_8,2,5,63,98,1301081440
22,13,15,Jits_Phase_8,3,1,48,50,1301107312
22,13,15,Jits_Phase_8,0,5,56,103,1301861732
22,13,15,Jits_Phase_8,1,5,80,127,1301882368
22,13,15,Jits_Phase_8,2,1,48,44,1301895560
22,13,15,Jits_Phase_8,3,5,63,98,1301941596
22,13,15,Jits_Phase_8,0,1,48,49,1302707420
22,13,15,Jits_Phase_8,1,5,80,127,1302742328
22,13,15,Jits_Phase_8,2,5,56,103,1302751580
22,13,15,Jits_Phase_8,3,5,63,98,1302761976
22,13,15,Jits_Phase_8,0,5,56,103,1303502144
22,13,15,Jits_Phase_8,1,1,48,55,1303534140
22,13,15,Jits_Phase_8,2,5,80,127,1303542264
22,13,15,Jits_Phase_8,3,5,63,98,1303571768
22,13,15,Jits_Phase_8,0,5,56,103,1304272360
22,13,15,Jits_Phase_8,1,5,63,98,1304302020
22,13,15,Jits_Phase_8,2,1,48,56,1304324612
22,13,15,Jits_Phase_8,3,5,80,127,1304341984
22,13,15,Jits_Phase_8,0,5,80,127,1305022008
22,13,15,Jits_Phase_8,1,5,63,98,1305072224
22,13,15,Jits_Phase_8,2,1,48,50,1305085264
22,13,15,Jits_Phase_8,3,5,56,103,1305091404
22,13,15,Jits_Phase_8,0,1,48,52,1305852364
22,13,15,Jits_Phase_8,1,5,56,103,1305853960
22,13,15,Jits_Phase_8,2,5,80,127,1305921912
22,13,15,Jits_Phase_8,3,5,63,98,1305982504
22,13,15,Jits_Phase_8,0,5,80,127,1306652064
22,13,15,Jits_Phase_8,1,1,48,53,1306668232
22,13,15,Jits_Phase_8,2,5,63,98,1306742020
22,13,15,Jits_Phase_8,3,5,56,103,1306761740
22,13,15,Jits_Phase_8,0,5,63,98,1307472188
22,13,15,Jits_Phase_8,1,5,56,103,1307491608
22,13,15,Jits_Phase_8,2,1,48,55,1307521388
22,13,15,Jits_Phase_8,3,5,80,127,1307531648
22,13,15,Jits_Phase_8,0,5,80,127,1308232140
22,13,15,Jits_Phase_8,1,1,48,51,1308251408
22,13,15,Jits_Phase_8,2,5,63,98,1308252996
22,13,15,Jits_Phase_8,3,5,56,103,1308332336
22,13,15,Jits_Phase_8,0,5,63,98,1309021532
22,13,15,Jits_Phase_8,1,1,48,54,1309057800
22,13,15,Jits_Phase_8,2,5,56,103,1309132064
22,13,15,Jits_Phase_8,3,5,80,127,1309135116
22,13,15,Jits_Phase_8,0,5,63,98,1309842012
22,13,15,Jits_Phase_8,1,5,56,103,1309851944
22,13,15,Jits_Phase_8,2,5,80,127,1309855072
22,13,15,Jits_Phase_8,3,1,48,53,1309858864
22,13,15,Jits_Phase_8,0,5,56,103,1310622124
22,13,15,Jits_Phase_8,1,1,48,49,1310651856
22,13,15,Jits_Phase_8,2,5,80,127,1310742064
22,13,15,Jits_Phase_8,3,5,63,98,1310781948
22,13,15,Jits_Phase_8,0,5,56,103,1311442352
22,13,15,Jits_Phase_8,1,1,48,51,1311480244
22,13,15,Jits_Phase_8,2,5,80,127,1311522068
22,13,15,Jits_Phase_8,3,5,63,98,1311541712
22,13,15,Jits_Phase_8,0,5,56,103,1312241988
22,13,15,Jits_Phase_8,1,1,48,53,1312281636
22,13,15,Jits_Phase_8,2,5,63,98,1312351812
22,13,15,Jits_Phase_8,3,5,80,127,1312355164
22,13,15,Jits_Phase_8,0,5,56,103,1313081824
22,13,15,Jits_Phase_8,1,1,48,54,1313111784
22,13,15,Jits_Phase_8,2,5,80,127,1313113608
22,13,15,Jits_Phase_8,3,5,63,98,1313131880
22,13,15,Jits_Phase_8,0,5,63,98,1313872208
22,13,15,Jits_Phase_8,1,5,56,103,1313881688
22,13,15,Jits_Phase_8,2,5,80,127,1313891780
22,13,15,Jits_Phase_8,3,1,48,62,1313923316
22,13,15,Jits_Phase_8,0,5,80,127,1314661808
22,13,15,Jits_Phase_8,1,5,56,103,1314712100
22,13,15,Jits_Phase_8,2,1,48,54,1314722016
22,13,15,Jits_Phase_8,3,5,63,98,1314751864
22,13,15,Jits_Phase_8,0,5,80,127,1315481928
22,13,15,Jits_Phase_8,1,5,63,98,1315501724
22,13,15,Jits_Phase_8,2,1,48,54,1315540172
22,13,15,Jits_Phase_8,3,5,56,103,1315551652
22,13,15,Jits_Phase_8,0,5,80,127,1316292056
22,13,15,Jits_Phase_8,1,1,48,55,1316308828
22,13,15,Jits_Phase_8,2,5,56,103,1316321552
22,13,15,Jits_Phase_8,3,5,63,98,1316392476
22,13,15,Jits_Phase_8,0,1,48,55,1317130036
22,13,15,Jits_Phase_8,1,5,56,103,1317141824
22,13,15,Jits_Phase_8,2,5,80,127,1317152068
22,13,15,Jits_Phase_8,3,5,63,98,1317192116
22,13,15,Jits_Phase_8,0,5,56,103,1317851420
22,13,15,Jits_Phase_8,1,5,63,98,1317872136
22,13,15,Jits_Phase_8,2,1,48,57,1317939524
22,13,15,Jits_Phase_8,3,5,80,127,1317941528
22,13,15,Jits_Phase_8,0,5,63,98,1318671684
22,13,15,Jits_Phase_8,1,1,48,54,1318679360
22,13,15,Jits_Phase_8,2,5,80,127,1318732136
22,13,15,Jits_Phase_8,3,5,56,103,1318751704
22,13,15,Jits_Phase_8,0,5,80,127,1319462360
22,13,15,Jits_Phase_8,1,1,48,54,1319463268
22,13,15,Jits_Phase_8,2,5,56,103,1319491860
22,13,15,Jits_Phase_8,3,5,63,98,1319521744
22,13,15,Jits_Phase_8,0,5,56,103,1320261920
22,13,15,Jits_Phase_8,1,1,48,48,1320280168
22,13,15,Jits_Phase_8,2,5,63,98,1320322520
22,13,15,Jits_Phase_8,3,5,80,127,1320381764
22,13,15,Jits_Phase_8,0,1,48,53,1321082796
22,13,15,Jits_Phase_8,1,5,80,127,1321084244
22,13,15,Jits_Phase_8,2,5,56,103,1321101600
22,13,15,Jits_Phase_8,3,5,63,98,1321172244
22,13,15,Jits_Phase_8,0,5,80,127,1321882044
22,13,15,Jits_Phase_8,1,5,63,98,1321901384
22,13,15,Jits_Phase_8,2,1,48,50,1321920184
22,13,15,Jits_Phase_8,3,5,56,103,1321932352
22,13,15,Jits_Phase_8,0,5,80,127,1322671432
22,13,15,Jits_Phase_8,1,5,63,98,1322692020
22,13,15,Jits_Phase_8,2,1,48,44,1322731968
22,13,15,Jits_Phase_8,3,5,56,103,1322752316
22,13,15,Jits_Phase_8,0,5,80,127,1323472312
22,13,15,Jits_Phase_8,1,1,48,56,1323544744
22,13,15,Jits_Phase_8,2,5,56,103,1323571592
22,13,15,Jits_Phase_8,3,5,63,98,1323602244
22,13,15,Jits_Phase_8,0,5,63,98,1324261792
22,13,15,Jits_Phase_8,1,5,80,127,1324312084
22,13,15,Jits_Phase_8,2,5,56,103,1324332492
22,13,15,Jits_Phase_8,3,1,48,49,1324376252
22,13,15,Jits_Phase_8,0,5,80,127,1325101376
22,13,15,Jits_Phase_8,1,5,56,103,1325132252
22,13,15,Jits_Phase_8,2,5,63,98,1325135376
22,13,15,Jits_Phase_8,3,1,48,48,1325145744
22,13,15,Jits_Phase_8,0,1,48,54,1325912136
22,13,15,Jits_Phase_8,1,5,63,98,1325952284
22,13,15,Jits_Phase_8,2,5,56,103,1325992260
22,13,15,Jits_Phase_8,3,5,80,127,1326011836
22,13,15,Jits_Phase_8,0,5,80,127,1326712092
22,13,15,Jits_Phase_8,1,1,48,49,1326734764
22,13,15,Jits_Phase_8,2,5,63,98,1326791984
22,13,15,Jits_Phase_8,3,5,56,103,1326831940
22,13,15,Jits_Phase_8,0,5,63,98,1327532444
22,13,15,Jits_Phase_8,1,1,48,49,1327583272
22,13,15,Jits_Phase_8,2,5,80,127,1327612412
22,13,15,Jits_Phase_8,3,5,56,103,1327631676
22,13,15,Jits_Phase_8,0,1,48,51,1328371612
22,13,15,Jits_Phase_8,1,5,56,103,1328373284
22,13,15,Jits_Phase_8,2,5,63,98,1328382236
22,13,15,Jits_Phase_8,3,5,80,127,1328422284
22,13,15,Jits_Phase_8,0,5,56,103,1329092128
22,13,15,Jits_Phase_8,1,5,80,127,1329095028
22,13,15,Jits_Phase_8,2,1,48,52,1329198704
22,13,15,Jits_Phase_8,3,5,63,98,1329232136
22,13,15,Jits_Phase_8,0,5,56,103,1329881364
22,13,15,Jits_Phase_8,1,1,48,51,1329965408
22,13,15,Jits_Phase_8,2,5,63,98,1329971472
22,13,15,Jits_Phase_8,3,5,80,127,1330042244
22,13,15,Jits_Phase_8,0,1,48,51,1330725376
22,13,15,Jits_Phase_8,1,5,63,98,1330762088
22,13,15,Jits_Phase_8,2,5,80,127,1330765516
22,13,15,Jits_Phase_8,3,5,56,103,1330821472
22,13,15,Jits_Phase_8,0,1,48,49,1331586824
22,13,15,Jits_Phase_8,1,5,80,127,1331601984
22,13,15,Jits_Phase_8,2,5,56,103,1331622244
22,13,15,Jits_Phase_8,3,5,63,98,1331631420
22,13,15,Jits_Phase_8,0,5,56,103,1332312348
22,13,15,Jits_Phase_8,1,5,63,98,1332321904
22,13,15,Jits_Phase_8,2,5,80,127,1332392220
22,13,15,Jits_Phase_8,3,1,48,49,1332422632
22,13,15,Jits_Phase_8,0,5,80,127,1333112132
22,13,15,Jits_Phase_8,1,5,56,103,1333162504
22,13,15,Jits_Phase_8,2,1,48,52,1333190864
22,13,15,Jits_Phase_8,3,5,63,98,1333211744
22,13,15,Jits_Phase_8,0,1,48,51,1333960920
22,13,15,Jits_Phase_8,1,5,56,103,1333991740
22,13,15,Jits_Phase_8,2,5,63,98,1334002136
22,13,15,Jits_Phase_8,3,5,80,127,1334041884
22,13,15,Jits_Phase_8,0,5,56,103,1334732064
22,13,15,Jits_Phase_8,1,5,63,98,1334772116
22,13,15,Jits_Phase_8,2,1,48,46,1334802816
22,13,15,Jits_Phase_8,3,5,80,127,1334822400
22,13,15,Jits_Phase_8,0,5,80,127,1335491880
22,13,15,Jits_Phase_8,1,5,56,103,1335542096
22,13,15,Jits_Phase_8,2,1,48,55,1335555744
22,13,15,Jits_Phase_8,3,5,63,98,1335561660
22,13,15,Jits_Phase_8,0,5,80,127,1336301832
22,13,15,Jits_Phase_8,1,1,48,48,1336330472
22,13,15,Jits_Phase_8,2,5,63,98,1336362284
22,13,15,Jits_Phase_8,3,5,56,103,1336442212
22,13,15,Jits_Phase_8,0,5,80,127,1337082132
22,13,15,Jits_Phase_8,1,5,56,103,1337122184
22,13,15,Jits_Phase_8,2,5,63,98,1337141524
22,13,15,Jits_Phase_8,3,1,48,48,1337171380
22,13,15,Jits_Phase_8,0,5,56,103,1337932132
22,13,15,Jits_Phase_8,1,5,80,127,1337942604
22,13,15,Jits_Phase_8,2,5,63,98,1337982500
22,13,15,Jits_Phase_8,3,1,48,58,1337991800
22,13,15,Jits_Phase_8,0,1,48,53,1338780352
22,13,15,Jits_Phase_8,1,5,56,103,1338801468
22,13,15,Jits_Phase_8,2,5,63,98,1338841384
22,13,15,Jits_Phase_8,3,5,80,127,1338844820
22,13,15,Jits_Phase_8,0,5,63,98,1339472308
22,13,15,Jits_Phase_8,1,5,80,127,1339512284
22,13,15,Jits_Phase_8,2,5,56,103,1339581860
22,13,15,Jits_Phase_8,3,1,48,59,1339619744
22,13,15,Jits_Phase_8,0,5,63,98,1340242504
22,13,15,Jits_Phase_8,1,5,56,103,1340322224
22,13,15,Jits_Phase_8,2,5,80,127,1340381484
22,13,15,Jits_Phase_8,3,1,48,51,1340418816
22,13,15,Jits_Phase_8,0,5,80,127,1341052364
22,13,15,Jits_Phase_8,1,5,63,98,1341101592
22,13,15,Jits_Phase_8,2,1,48,61,1341127564
22,13,15,Jits_Phase_8,3,5,56,103,1341132256
22,13,15,Jits_Phase_8,0,5,56,103,1341841832
22,13,15,Jits_Phase_8,1,5,63,98,1341891848
22,13,15,Jits_Phase_8,2,5,80,127,1341902396
22,13,15,Jits_Phase_8,3,1,48,47,1341934924
22,13,15,Jits_Phase_8,0,5,56,103,1342651808
22,13,15,Jits_Phase_8,1,1,48,50,1342666600
22,13,15,Jits_Phase_8,2,5,63,98,1342762536
22,13,15,Jits_Phase_8,3,5,80,127,1342781724
22,13,15,Jits_Phase_8,0,5,63,98,1343451448
22,13,15,Jits_Phase_8,1,1,48,49,1343497276
22,13,15,Jits_Phase_8,2,5,80,127,1343501584
22,13,15,Jits_Phase_8,3,5,56,103,1343591768
22,13,15,Jits_Phase_8,0,5,63,98,1344242200
22,13,15,Jits_Phase_8,1,5,80,127,1344271704
22,13,15,Jits_Phase_8,2,1,48,44,1344288708
22,13,15,Jits_Phase_8,3,5,56,103,1344361808
22,13,15,Jits_Phase_8,0,5,63,98,1345041816
22,13,15,Jits_Phase_8,1,5,56,103,1345052288
22,13,15,Jits_Phase_8,2,1,48,51,1345122116
22,13,15,Jits_Phase_8,3,5,80,127,1345152328
22,13,15,Jits_Phase_8,0,1,48,55,1345889156
22,13,15,Jits_Phase_8,1,5,63,98,1345942008
22,13,15,Jits_Phase_8,2,5,80,127,1345971520
22,13,15,Jits_Phase_8,3,5,56,103,1346002380
22,13,15,Jits_Phase_8,0,1,48,46,1346718120
22,13,15,Jits_Phase_8,1,5,80,127,1346762124
22,13,15,Jits_Phase_8,2,5,63,98,1346772368
22,13,15,Jits_Phase_8,3,5,56,103,1346802180
22,13,15,Jits_Phase_8,0,5,80,127,1347461380
22,13,15,Jits_Phase_8,1,5,63,98,1347482244
22,13,15,Jits_Phase_8,2,5,56,103,1347532260
22,13,15,Jits_Phase_8,3,1,48,52,1347554472
22,13,15,Jits_Phase_8,0,5,63,98,1348292068
22,13,15,Jits_Phase_8,1,1,48,54,1348342948
22,13,15,Jits_Phase_8,2,5,80,127,1348352292
22,13,15,Jits_Phase_8,3,5,56,103,1348371936
22,13,15,Jits_Phase_8,0,5,63,98,1349052096
22,13,15,Jits_Phase_8,1,5,56,103,1349102160
22,13,15,Jits_Phase_8,2,5,80,127,1349112176
22,13,15,Jits_Phase_8,3,1,48,48,1349129352
22,13,15,Jits_Phase_8,0,5,56,103,1349882212
22,13,15,Jits_Phase_8,1,1,48,54,1349885392
22,13,15,Jits_Phase_8,2,5,80,127,1349891456
22,13,15,Jits_Phase_8,3,5,63,98,1349991864
22,13,15,Jits_Phase_8,0,5,80,127,1350642096
22,13,15,Jits_Phase_8,1,5,63,98,1350652188
22,13,15,Jits_Phase_8,2,1,48,53,1350697396
22,13,15,Jits_Phase_8,3,5,56,103,1350801812
22,13,15,Jits_Phase_8,0,5,63,98,1351451972
22,13,15,Jits_Phase_8,1,1,48,54,1351485260
22,13,15,Jits_Phase_8,2,5,80,127,1351491864
22,13,15,Jits_Phase_8,3,5,56,103,1351572036
22,13,15,Jits_Phase_8,0,5,56,103,1352201604
22,13,15,Jits_Phase_8,1,1,48,47,1352283436
22,13,15,Jits_Phase_8,2,5,80,127,1352302256
22,13,15,Jits_Phase_8,3,5,63,98,1352322436
22,13,15,Jits_Phase_8,0,5,80,127,1353021880
22,13,15,Jits_Phase_8,1,5,56,103,1353032124
22,13,15,Jits_Phase_8,2,1,48,51,1353097512
22,13,15,Jits_Phase_8,3,5,63,98,1353122148
22,13,15,Jits_Phase_8,0,5,56,103,1353821820
22,13,15,Jits_Phase_8,1,5,63,98,1353841928
22,13,15,Jits_Phase_8,2,1,48,49,1353895620
22,13,15,Jits_Phase_8,3,5,80,127,1353921812
22,13,15,Jits_Phase_8,0,5,63,98,1354582324
22,13,15,Jits_Phase_8,1,5,56,103,1354671364
22,13,15,Jits_Phase_8,2,5,80,127,1354674492
22,13,15,Jits_Phase_8,3,1,48,59,1354677008
22,13,15,Jits_Phase_8,0,5,56,103,1355411896
22,13,15,Jits_Phase_8,1,1,48,51,1355440916
22,13,15,Jits_Phase_8,2,5,80,127,1355472144
22,13,15,Jits_Phase_8,3,5,63,98,1355481548
22,13,15,Jits_Phase_8,0,5,80,127,1356261856
22,13,15,Jits_Phase_8,1,1,48,55,1356270780
22,13,15,Jits_Phase_8,2,5,56,103,1356272712
22,13,15,Jits_Phase_8,3,5,63,98,1356275668
22,13,15,Jits_Phase_8,0,5,56,103,1357021816
22,13,15,Jits_Phase_8,1,5,80,127,1357031756
22,13,15,Jits_Phase_8,2,5,63,98,1357052164
22,13,15,Jits_Phase_8,3,1,48,51,1357084232
22,13,15,Jits_Phase_8,0,5,63,98,1357791716
22,13,15,Jits_Phase_8,1,5,80,127,1357851948
22,13,15,Jits_Phase_8,2,1,48,57,1357868496
22,13,15,Jits_Phase_8,3,5,56,103,1357902304
22,13,15,Jits_Phase_8,0,5,63,98,1358672276
22,13,15,Jits_Phase_8,1,5,56,103,1358681528
22,13,15,Jits_Phase_8,2,1,48,53,1358686004
22,13,15,Jits_Phase_8,3,5,80,127,1358731584
22,13,15,Jits_Phase_8,0,5,63,98,1359371624
22,13,15,Jits_Phase_8,1,5,80,127,1359392036
22,13,15,Jits_Phase_8,2,5,56,103,1359402504
22,13,15,Jits_Phase_8,3,1,48,53,1359472560
22,13,15,Jits_Phase_8,0,5,63,98,1360172456
22,13,15,Jits_Phase_8,1,5,80,127,1360175808
22,13,15,Jits_Phase_8,2,5,56,103,1360212576
22,13,15,Jits_Phase_8,3,1,48,46,1360243964
22,13,15,Jits_Phase_8,0,1,48,54,1361004056
22,13,15,Jits_Phase_8,1,5,63,98,1361041684
22,13,15,Jits_Phase_8,2,5,80,127,1361071724
22,13,15,Jits_Phase_8,3,5,56,103,1361081688
22,13,15,Jits_Phase_8,0,5,56,103,1361792624
22,13,15,Jits_Phase_8,1,5,80,127,1361822056
22,13,15,Jits_Phase_8,2,1,48,48,1361836848
22,13,15,Jits_Phase_8,3,5,63,98,1361851656
22,13,15,Jits_Phase_8,0,1,48,47,1362639780
22,13,15,Jits_Phase_8,1,5,63,98,1362691640
22,13,15,Jits_Phase_8,2,5,56,103,1362732608
22,13,15,Jits_Phase_8,3,5,80,127,1362736480
22,13,15,Jits_Phase_8,0,5,80,127,1363391832
22,13,15,Jits_Phase_8,1,1,48,50,1363458140
22,13,15,Jits_Phase_8,2,5,56,103,1363471696
22,13,15,Jits_Phase_8,3,5,63,98,1363521836
22,13,15,Jits_Phase_8,0,5,80,127,1364172128
22,13,15,Jits_Phase_8,1,5,56,103,1364191700
22,13,15,Jits_Phase_8,2,1,48,51,1364273604
22,13,15,Jits_Phase_8,3,5,63,98,1364281804
22,13,15,Jits_Phase_8,0,5,80,127,1365011732
22,13,15,Jits_Phase_8,1,5,63,98,1365051784
22,13,15,Jits_Phase_8,2,1,48,52,1365085380
22,13,15,Jits_Phase_8,3,5,56,103,1365091596
22,13,15,Jits_Phase_8,0,5,63,98,1365821840
22,13,15,Jits_Phase_8,1,5,80,127,1365882372
22,13,15,Jits_Phase_8,2,1,48,53,1365883508
22,13,15,Jits_Phase_8,3,5,56,103,1365912024
22,13,15,Jits_Phase_8,0,1,48,51,1366657640
22,13,15,Jits_Phase_8,1,5,56,103,1366661420
22,13,15,Jits_Phase_8,2,5,80,127,1366692220
22,13,15,Jits_Phase_8,3,5,63,98,1366782416
22,13,15,Jits_Phase_8,0,5,56,103,1367471440
22,13,15,Jits_Phase_8,1,1,48,52,1367517516
22,13,15,Jits_Phase_8,2,5,80,127,1367582204
22,13,15,Jits_Phase_8,3,5,63,98,1367611712
22,13,15,Jits_Phase_8,0,5,56,103,1368322316
22,13,15,Jits_Phase_8,1,1,48,51,1368368292
22,13,15,Jits_Phase_8,2,5,63,98,1368381928
22,13,15,Jits_Phase_8,3,5,80,127,1368411432
22,13,15,Jits_Phase_8,0,5,56,103,1369091612
22,13,15,Jits_Phase_8,1,5,63,98,1369162084
22,13,15,Jits_Phase_8,2,5,80,127,1369181500
22,13,15,Jits_Phase_8,3,1,48,52,1369188952
22,13,15,Jits_Phase_8,0,5,80,127,1369861516
22,13,15,Jits_Phase_8,1,5,63,98,1369882080
22,13,15,Jits_Phase_8,2,5,56,103,1369932216
22,13,15,Jits_Phase_8,3,1,48,47,1370001588
22,13,15,Jits_Phase_8,0,5,63,98,1370681632
22,13,15,Jits_Phase_8,1,5,80,127,1370692252
22,13,15,Jits_Phase_8,2,5,56,103,1370742092
22,13,15,Jits_Phase_8,3,1,48,48,1370767348
22,13,15,Jits_Phase_8,0,5,63,98,1371481476
22,13,15,Jits_Phase_8,1,1,48,56,1371547248
22,13,15,Jits_Phase_8,2,5,80,127,1371552244
22,13,15,Jits_Phase_8,3,5,56,103,1371571536
22,13,15,Jits_Phase_8,0,5,63,98,1372311976
22,13,15,Jits_Phase_8,1,5,80,127,1372315328
22,13,15,Jits_Phase_8,2,1,48,53,1372330048
22,13,15,Jits_Phase_8,3,5,56,103,1372381692
22,13,15,Jits_Phase_8,0,5,80,127,1373061604
22,13,15,Jits_Phase_8,1,5,56,103,1373081936
22,13,15,Jits_Phase_8,2,5,63,98,1373092180
22,13,15,Jits_Phase_8,3,1,48,55,1373132760
22,13,15,Jits_Phase_8,0,5,56,103,1373881892
22,13,15,Jits_Phase_8,1,1,48,54,1373914880
22,13,15,Jits_Phase_8,2,5,63,98,1373971844
22,13,15,Jits_Phase_8,3,5,80,127,1373975120
22,13,15,Jits_Phase_8,0,5,80,127,1374651864
22,13,15,Jits_Phase_8,1,5,56,103,1374662184
22,13,15,Jits_Phase_8,2,5,63,98,1374681372
22,13,15,Jits_Phase_8,3,1,48,51,1374762964
22,13,15,Jits_Phase_8,0,5,63,98,1375451492
22,13,15,Jits_Phase_8,1,5,80,127,1375511876
22,13,15,Jits_Phase_8,2,5,56,103,1375522196
22,13,15,Jits_Phase_8,3,1,48,54,1375551900
22,13,15,Jits_Phase_8,0,1,48,54,1376312840
22,13,15,Jits_Phase_8,1,5,63,98,1376321956
22,13,15,Jits_Phase_8,2,5,80,127,1376351920
22,13,15,Jits_Phase_8,3,5,56,103,1376391436
22,13,15,Jits_Phase_8,0,5,56,103,1377112340
22,13,15,Jits_Phase_8,1,5,80,127,1377121816
22,13,15,Jits_Phase_8,2,5,63,98,1377161716
22,13,15,Jits_Phase_8,3,1,48,47,1377168248
22,13,15,Jits_Phase_8,0,5,80,127,1377872380
22,13,15,Jits_Phase_8,1,5,56,103,1377952100
22,13,15,Jits_Phase_8,2,5,63,98,1377962268
22,13,15,Jits_Phase_8,3,1,48,55,1377972048
22,13,15,Jits_Phase_8,0,5,80,127,1378722080
22,13,15,Jits_Phase_8,1,1,48,54,1378795984
22,13,15,Jits_Phase_8,2,5,56,103,1378801972
22,13,15,Jits_Phase_8,3,5,63,98,1378812292
22,13,15,Jits_Phase_8,0,5,80,127,1379561800
22,13,15,Jits_Phase_8,1,5,56,103,1379611940
22,13,15,Jits_Phase_8,2,1,48,57,1379630868
22,13,15,Jits_Phase_8,3,5,63,98,1379662072
22,13,15,Jits_Phase_8,0,1,48,57,1380435076
22,13,15,Jits_Phase_8,1,5,56,103,1380501976
22,13,15,Jits_Phase_8,2,5,63,98,1380505176
22,13,15,Jits_Phase_8,3,5,80,127,1380551968
22,13,15,Jits_Phase_8,0,5,56,103,1381322112
22,13,15,Jits_Phase_8,1,1,48,48,1381325292
22,13,15,Jits_Phase_8,2,5,63,98,1381351688
22,13,15,Jits_Phase_8,3,5,80,127,1381361932
22,13,15,Jits_Phase_8,0,5,63,98,1382031772
22,13,15,Jits_Phase_8,1,5,56,103,1382102648
22,13,15,Jits_Phase_8,2,1,48,51,1382131748
22,13,15,Jits_Phase_8,3,5,80,127,1382151560
22,13,15,Jits_Phase_8,0,5,63,98,1382862220
22,13,15,Jits_Phase_8,1,5,56,103,1382872460
22,13,15,Jits_Phase_8,2,5,80,127,1382875588
22,13,15,Jits_Phase_8,3,1,48,55,1382879220
22,13,15,Jits_Phase_8,0,5,80,127,1383611840
22,13,15,Jits_Phase_8,1,5,56,103,1383672072
22,13,15,Jits_Phase_8,2,1,48,55,1383674048
22,13,15,Jits_Phase_8,3,5,63,98,1383762404
22,13,15,Jits_Phase_8,0,5,80,127,1384411628
22,13,15,Jits_Phase_8,1,5,56,103,1384511756
22,13,15,Jits_Phase_8,2,1,48,51,1384530456
22,13,15,Jits_Phase_8,3,5,63,98,1384551724
22,13,15,Jits_Phase_8,0,5,56,103,1385261484
22,13,15,Jits_Phase_8,1,5,63,98,1385281816
22,13,15,Jits_Phase_8,2,5,80,127,1385321792
22,13,15,Jits_Phase_8,3,1,48,47,1385340492
22,13,15,Jits_Phase_8,0,5,63,98,1386031612
22,13,15,Jits_Phase_8,1,5,56,103,1386051872
22,13,15,Jits_Phase_8,2,1,48,53,1386090364
22,13,15,Jits_Phase_8,3,5,80,127,1386152288
22,13,15,Jits_Phase_8,0,1,48,51,1386802768
22,13,15,Jits_Phase_8,1,5,63,98,1386821900
22,13,15,Jits_Phase_8,2,5,80,127,1386931592
22,13,15,Jits_Phase_8,3,5,56,103,1386962316
22,13,15,Jits_Phase_8,0,1,48,52,1387616452
22,13,15,Jits_Phase_8,1,5,56,103,1387642388
22,13,15,Jits_Phase_8,2,5,63,98,1387671820
22,13,15,Jits_Phase_8,3,5,80,127,1387722044
22,13,15,Jits_Phase_8,0,5,63,98,1388412512
22,13,15,Jits_Phase_8,1,5,56,103,1388441868
22,13,15,Jits_Phase_8,2,1,48,53,1388473508
22,13,15,Jits_Phase_8,3,5,80,127,1388492252
22,13,15,Jits_Phase_8,0,1,48,47,1389192988
22,13,15,Jits_Phase_8,1,5,56,103,1389241728
22,13,15,Jits_Phase_8,2,5,63,98,1389262140
22,13,15,Jits_Phase_8,3,5,80,127,1389342296
22,13,15,Jits_Phase_8,0,5,63,98,1390011776
22,13,15,Jits_Phase_8,1,1,48,56,1390020160
22,13,15,Jits_Phase_8,2,5,56,103,1390072228
22,13,15,Jits_Phase_8,3,5,80,127,1390101884
22,13,15,Jits_Phase_8,0,1,48,57,1390848808
22,13,15,Jits_Phase_8,1,5,56,103,1390851364
22,13,15,Jits_Phase_8,2,5,80,127,1390912204
22,13,15,Jits_Phase_8,3,5,63,98,1390952160
22,13,15,Jits_Phase_8,0,5,63,98,1391631656
22,13,15,Jits_Phase_8,1,1,48,56,1391643320
22,13,15,Jits_Phase_8,2,5,56,103,1391692184
22,13,15,Jits_Phase_8,3,5,80,127,1391761796
22,13,15,Jits_Phase_8,0,1,48,51,1392484980
22,13,15,Jits_Phase_8,1,5,56,103,1392512444
22,13,15,Jits_Phase_8,2,5,63,98,1392521616
22,13,15,Jits_Phase_8,3,5,80,127,1392525196
22,13,15,Jits_Phase_8,0,5,63,98,1393251840
22,13,15,Jits_Phase_8,1,5,56,103,1393312144
22,13,15,Jits_Phase_8,2,5,80,127,1393315192
22,13,15,Jits_Phase_8,3,1,48,49,1393317608
22,13,15,Jits_Phase_8,0,5,63,98,1394032340
22,13,15,Jits_Phase_8,1,5,80,127,1394061696
22,13,15,Jits_Phase_8,2,1,48,46,1394078092
22,13,15,Jits_Phase_8,3,5,56,103,1394082324
22,13,15,Jits_Phase_8,0,5,56,103,1394762176
22,13,15,Jits_Phase_8,1,5,63,98,1394812168
22,13,15,Jits_Phase_8,2,1,48,51,1394858672
22,13,15,Jits_Phase_8,3,5,80,127,1394892052
22,13,15,Jits_Phase_8,0,5,80,127,1395461468
22,13,15,Jits_Phase_8,1,5,63,98,1395501524
22,13,15,Jits_Phase_8,2,5,56,103,1395522080
22,13,15,Jits_Phase_8,3,1,48,50,1395530540
22,13,15,Jits_Phase_8,0,1,48,52,1396304100
22,13,15,Jits_Phase_8,1,5,56,103,1396332096
22,13,15,Jits_Phase_8,2,5,80,127,1396342116
22,13,15,Jits_Phase_8,3,5,63,98,1396361532
22,13,15,Jits_Phase_8,0,5,56,103,1397112160
22,13,15,Jits_Phase_8,1,1,48,50,1397115872
22,13,15,Jits_Phase_8,2,5,63,98,1397162296
22,13,15,Jits_Phase_8,3,5,80,127,1397192056
22,13,15,Jits_Phase_8,0,5,56,103,1397862044
22,13,15,Jits_Phase_8,1,5,63,98,1397871984
22,13,15,Jits_Phase_8,2,5,80,127,1397922276
22,13,15,Jits_Phase_8,3,1,48,50,1397937552
22,13,15,Jits_Phase_8,0,1,48,48,1398649552
22,13,15,Jits_Phase_8,1,5,56,103,1398652260
22,13,15,Jits_Phase_8,2,5,80,127,1398655384
22,13,15,Jits_Phase_8,3,5,63,98,1398812076
22,13,15,Jits_Phase_8,0,1,48,52,1399443520
22,13,15,Jits_Phase_8,1,5,63,98,1399471444
22,13,15,Jits_Phase_8,2,5,56,103,1399542048
22,13,15,Jits_Phase_8,3,5,80,127,1399582024
22,13,15,Jits_Phase_8,0,1,48,57,1400253916
22,13,15,Jits_Phase_8,1,5,63,98,1400312184
22,13,15,Jits_Phase_8,2,5,56,103,1400402280
22,13,15,Jits_Phase_8,3,5,80,127,1400405328
22,13,15,Jits_Phase_8,0,5,56,103,1401091632
22,13,15,Jits_Phase_8,1,1,48,48,1401111636
22,13,15,Jits_Phase_8,2,5,63,98,1401181740
22,13,15,Jits_Phase_8,3,5,80,127,1401191908
22,13,15,Jits_Phase_8,0,5,56,103,1401861388
22,13,15,Jits_Phase_8,1,5,63,98,1401911836
22,13,15,Jits_Phase_8,2,1,48,59,1401923732
22,13,15,Jits_Phase_8,3,5,80,127,1401942324
22,13,15,Jits_Phase_8,0,1,48,57,1402667704
22,13,15,Jits_Phase_8,1,5,63,98,1402742032
22,13,15,Jits_Phase_8,2,5,80,127,1402752428
22,13,15,Jits_Phase_8,3,5,56,103,1402811824
22,13,15,Jits_Phase_8,0,5,63,98,1403461948
22,13,15,Jits_Phase_8,1,1,48,51,1403520784
22,13,15,Jits_Phase_8,2,5,80,127,1403522548
22,13,15,Jits_Phase_8,3,5,56,103,1403562296
22,13,15,Jits_Phase_8,0,1,48,49,1404259560
22,13,15,Jits_Phase_8,1,5,56,103,1404362080
22,13,15,Jits_Phase_8,2,5,80,127,1404381648
22,13,15,Jits_Phase_8,3,5,63,98,1404402132
22,13,15,Jits_Phase_8,0,5,63,98,1405081984
22,13,15,Jits_Phase_8,1,5,56,103,1405101708
22,13,15,Jits_Phase_8,2,1,48,55,1405102616
22,13,15,Jits_Phase_8,3,5,80,127,1405142464
22,13,15,Jits_Phase_8,0,1,48,55,1405890556
22,13,15,Jits_Phase_8,1,5,63,98,1405892548
22,13,15,Jits_Phase_8,2,5,80,127,1405921600
22,13,15,Jits_Phase_8,3,5,56,103,1405942084
22,13,15,Jits_Phase_8,0,5,80,127,1406661992
22,13,15,Jits_Phase_8,1,1,48,55,1406665172
22,13,15,Jits_Phase_8,2,5,56,103,1406712352
22,13,15,Jits_Phase_8,3,5,63,98,1406771572
22,13,15,Jits_Phase_8,0,5,63,98,1407451464
22,13,15,Jits_Phase_8,1,1,48,52,1407538936
22,13,15,Jits_Phase_8,2,5,56,103,1407572296
22,13,15,Jits_Phase_8,3,5,80,127,1407601956
22,13,15,Jits_Phase_8,0,5,80,127,1408292364
22,13,15,Jits_Phase_8,1,1,48,54,1408294188
22,13,15,Jits_Phase_8,2,5,63,98,1408311620
22,13,15,Jits_Phase_8,3,5,56,103,1408382544
22,13,15,Jits_Phase_8,0,1,48,53,1409100608
22,13,15,Jits_Phase_8,1,5,63,98,1409112400
22,13,15,Jits_Phase_8,2,5,56,103,1409121728
22,13,15,Jits_Phase_8,3,5,80,127,1409201604
22,13,15,Jits_Phase_8,0,1,48,50,1409912844
22,13,15,Jits_Phase_8,1,5,56,103,1409971516
22,13,15,Jits_Phase_8,2,5,80,127,1410002544
22,13,15,Jits_Phase_8,3,5,63,98,1410011476
22,13,15,Jits_Phase_8,0,9999,9999,9999,1275119676
22,13,15,Jits_Phase_8,1,9999,9999,9999,1275919484
22,13,15,Jits_Phase_8,2,9999,9999,9999,1276719208
22,13,15,Jits_Phase_8,3,9999,9999,9999,1277519992
22,13,15,Jits_Phase_8,4,9999,9999,9999,1278319700
22,13,15,Jits_Phase_8,5,9999,9999,9999,1279119480
22,13,15,Jits_Phase_8,6,9999,9999,9999,1279919192
22,13,15,Jits_Phase_8,7,9999,9999,9999,1280719996
22,13,15,Jits_Phase_8,8,9999,9999,9999,1281519712
22,13,15,Jits_Phase_8,9,9999,9999,9999,1282319472
22,13,15,Jits_Phase_8,10,9999,9999,9999,1283119188
22,13,15,Jits_Phase_8,11,9999,9999,9999,1283919956
22,13,15,Jits_Phase_8,12,9999,9999,9999,1284719676
22,13,15,Jits_Phase_8,13,9999,9999,9999,1285519456
22,13,15,Jits_Phase_8,14,9999,9999,9999,1286319220
22,13,15,Jits_Phase_8,15,9999,9999,9999,1287119936
22,13,15,Jits_Phase_8,16,9999,9999,9999,1287919692
22,13,15,Jits_Phase_8,17,9999,9999,9999,1288719484
22,13,15,Jits_Phase_8,18,9999,9999,9999,1289519188
22,13,15,Jits_Phase_8,19,9999,9999,9999,1290319968
22,13,15,Jits_Phase_8,20,9999,9999,9999,1291119740
22,13,15,Jits_Phase_8,21,9999,9999,9999,1291919440
22,13,15,Jits_Phase_8,22,9999,9999,9999,1292719220
22,13,15,Jits_Phase_8,23,9999,9999,9999,1293520000
22,13,15,Jits_Phase_8,24,9999,9999,9999,1294319700
22,13,15,Jits_Phase_8,25,9999,9999,9999,1295119472
22,13,15,Jits_Phase_8,26,9999,9999,9999,1295919168
22,13,15,Jits_Phase_8,27,9999,9999,9999,1296719936
22,13,15,Jits_Phase_8,28,9999,9999,9999,1297519720
22,13,15,Jits_Phase_8,29,9999,9999,9999,1298319428
22,13,15,Jits_Phase_8,30,9999,9999,9999,1299099712
22,13,15,Jits_Phase_8,31,9999,9999,9999,1299899516
22,13,15,Jits_Phase_8,32,9999,9999,9999,1300699228
22,13,15,Jits_Phase_8,33,9999,9999,9999,1301500004
22,13,15,Jits_Phase_8,34,9999,9999,9999,1302299716
22,13,15,Jits_Phase_8,35,9999,9999,9999,1303099512
22,13,15,Jits_Phase_8,36,9999,9999,9999,1303899220
22,13,15,Jits_Phase_8,37,9999,9999,9999,1304700004
22,13,15,Jits_Phase_8,38,9999,9999,9999,1305499708
22,13,15,Jits_Phase_8,39,9999,9999,9999,1306299452
22,13,15,Jits_Phase_8,40,9999,9999,9999,1307099228
22,13,15,Jits_Phase_8,41,9999,9999,9999,1307900008
22,13,15,Jits_Phase_8,42,9999,9999,9999,1308699704
22,13,15,Jits_Phase_8,43,9999,9999,9999,1309499484
22,13,15,Jits_Phase_8,44,9999,9999,9999,1310299244
22,13,15,Jits_Phase_8,45,9999,9999,9999,1311100012
22,13,15,Jits_Phase_8,46,9999,9999,9999,1311899732
22,13,15,Jits_Phase_8,47,9999,9999,9999,1312699460
22,13,15,Jits_Phase_8,48,9999,9999,9999,1313519732
22,13,15,Jits_Phase_8,49,9999,9999,9999,1314319440
22,13,15,Jits_Phase_8,50,9999,9999,9999,1315119208
22,13,15,Jits_Phase_8,51,9999,9999,9999,1315919988
22,13,15,Jits_Phase_8,52,9999,9999,9999,1316719700
22,13,15,Jits_Phase_8,53,9999,9999,9999,1317519416
22,13,15,Jits_Phase_8,54,9999,9999,9999,1318319188
22,13,15,Jits_Phase_8,55,9999,9999,9999,1319119988
22,13,15,Jits_Phase_8,56,9999,9999,9999,1319919684
22,13,15,Jits_Phase_8,57,9999,9999,9999,1320719472
22,13,15,Jits_Phase_8,58,9999,9999,9999,1321519184
22,13,15,Jits_Phase_8,59,9999,9999,9999,1322319952
22,13,15,Jits_Phase_8,60,9999,9999,9999,1323119736
22,13,15,Jits_Phase_8,61,9999,9999,9999,1323919452
22,13,15,Jits_Phase_8,62,9999,9999,9999,1324719164
22,13,15,Jits_Phase_8,63,9999,9999,9999,1325519936
22,13,15,Jits_Phase_8,64,9999,9999,9999,1326359632
22,13,15,Jits_Phase_8,65,9999,9999,9999,1327159408
22,13,15,Jits_Phase_8,66,9999,9999,9999,1327959128
22,13,15,Jits_Phase_8,67,9999,9999,9999,1328759900
22,13,15,Jits_Phase_8,68,9999,9999,9999,1329559664
22,13,15,Jits_Phase_8,69,9999,9999,9999,1330359404
22,13,15,Jits_Phase_8,70,9999,9999,9999,1331159112
22,13,15,Jits_Phase_8,71,9999,9999,9999,1331959888
22,13,15,Jits_Phase_8,72,9999,9999,9999,1332759660
22,13,15,Jits_Phase_8,73,9999,9999,9999,1333559372
22,13,15,Jits_Phase_8,74,9999,9999,9999,1334359168
22,13,15,Jits_Phase_8,75,9999,9999,9999,1335159864
22,13,15,Jits_Phase_8,76,9999,9999,9999,1335959648
22,13,15,Jits_Phase_8,77,9999,9999,9999,1336759388
22,13,15,Jits_Phase_8,78,9999,9999,9999,1337559096
22,13,15,Jits_Phase_8,79,9999,9999,9999,1338359876
22,13,15,Jits_Phase_8,80,9999,9999,9999,1339159668
22,13,15,Jits_Phase_8,81,9999,9999,9999,1339919468
22,13,15,Jits_Phase_8,82,9999,9999,9999,1340719168
22,13,15,Jits_Phase_8,83,9999,9999,9999,1341519932
22,13,15,Jits_Phase_8,84,9999,9999,9999,1342319712
22,13,15,Jits_Phase_8,85,9999,9999,9999,1343119432
22,13,15,Jits_Phase_8,86,9999,9999,9999,1343919220
22,13,15,Jits_Phase_8,87,9999,9999,9999,1344719928
22,13,15,Jits_Phase_8,88,9999,9999,9999,1345519696
22,13,15,Jits_Phase_8,89,9999,9999,9999,1346319456
22,13,15,Jits_Phase_8,90,9999,9999,9999,1347119160
22,13,15,Jits_Phase_8,91,9999,9999,9999,1347920000
22,13,15,Jits_Phase_8,92,9999,9999,9999,1348719716
22,13,15,Jits_Phase_8,93,9999,9999,9999,1349519480
22,13,15,Jits_Phase_8,94,9999,9999,9999,1350319180
22,13,15,Jits_Phase_8,95,9999,9999,9999,1351119976
22,13,15,Jits_Phase_8,96,9999,9999,9999,1351919688
22,13,15,Jits_Phase_8,97,9999,9999,9999,1352639596
22,13,15,Jits_Phase_8,98,9999,9999,9999,1353439308
22,13,15,Jits_Phase_8,99,9999,9999,9999,1354240092
22,13,15,Jits_Phase_8,100,9999,9999,9999,1355050108
22,13,15,Jits_Phase_8,101,9999,9999,9999,1355849808
22,13,15,Jits_Phase_8,102,9999,9999,9999,1356649592
22,13,15,Jits_Phase_8,103,9999,9999,9999,1357449304
22,13,15,Jits_Phase_8,104,9999,9999,9999,1358250084
22,13,15,Jits_Phase_8,105,9999,9999,9999,1359049812
22,13,15,Jits_Phase_8,106,9999,9999,9999,1359849580
22,13,15,Jits_Phase_8,107,9999,9999,9999,1360649332
22,13,15,Jits_Phase_8,108,9999,9999,9999,1361450100
22,13,15,Jits_Phase_8,109,9999,9999,9999,1362249796
22,13,15,Jits_Phase_8,110,9999,9999,9999,1363049588
22,13,15,Jits_Phase_8,111,9999,9999,9999,1363849288
22,13,15,Jits_Phase_8,112,9999,9999,9999,1364650060
22,13,15,Jits_Phase_8,113,9999,9999,9999,1365449792
22,13,15,Jits_Phase_8,114,9999,9999,9999,1366329452
22,13,15,Jits_Phase_8,115,9999,9999,9999,1367129144
22,13,15,Jits_Phase_8,116,9999,9999,9999,1367929916
22,13,15,Jits_Phase_8,117,9999,9999,9999,1368729712
22,13,15,Jits_Phase_8,118,9999,9999,9999,1369529448
22,13,15,Jits_Phase_8,119,9999,9999,9999,1370329156
22,13,15,Jits_Phase_8,120,9999,9999,9999,1371129932
22,13,15,Jits_Phase_8,121,9999,9999,9999,1371929708
22,13,15,Jits_Phase_8,122,9999,9999,9999,1372729472
22,13,15,Jits_Phase_8,123,9999,9999,9999,1373529164
22,13,15,Jits_Phase_8,124,9999,9999,9999,1374329940
22,13,15,Jits_Phase_8,125,9999,9999,9999,1375129716
22,13,15,Jits_Phase_8,126,9999,9999,9999,1375929452
22,13,15,Jits_Phase_8,127,9999,9999,9999,1376729152
22,13,15,Jits_Phase_8,128,9999,9999,9999,1377529916
22,13,15,Jits_Phase_8,129,9999,9999,9999,1378329704
22,13,15,Jits_Phase_8,130,9999,9999,9999,1379129424
22,13,15,Jits_Phase_8,131,9999,9999,9999,1380089968
22,13,15,Jits_Phase_8,132,9999,9999,9999,1380889676
22,13,15,Jits_Phase_8,133,9999,9999,9999,1381689460
22,13,15,Jits_Phase_8,134,9999,9999,9999,1382489172
22,13,15,Jits_Phase_8,135,9999,9999,9999,1383289928
22,13,15,Jits_Phase_8,136,9999,9999,9999,1384089700
22,13,15,Jits_Phase_8,137,9999,9999,9999,1384889440
22,13,15,Jits_Phase_8,138,9999,9999,9999,1385689152
22,13,15,Jits_Phase_8,139,9999,9999,9999,1386489928
22,13,15,Jits_Phase_8,140,9999,9999,9999,1387289708
22,13,15,Jits_Phase_8,141,9999,9999,9999,1388089404
22,13,15,Jits_Phase_8,142,9999,9999,9999,1388889172
22,13,15,Jits_Phase_8,143,9999,9999,9999,1389689940
22,13,15,Jits_Phase_8,144,9999,9999,9999,1390489712
22,13,15,Jits_Phase_8,145,9999,9999,9999,1391289436
22,13,15,Jits_Phase_8,146,9999,9999,9999,1392089212
22,13,15,Jits_Phase_8,147,9999,9999,9999,1392889976
22,13,15,Jits_Phase_8,148,9999,9999,9999,1393689664
22,13,15,Jits_Phase_8,149,9999,9999,9999,1394489436
22,13,15,Jits_Phase_8,150,9999,9999,9999,1395129400
22,13,15,Jits_Phase_8,151,9999,9999,9999,1395929184
22,13,15,Jits_Phase_8,152,9999,9999,9999,1396729968
22,13,15,Jits_Phase_8,153,9999,9999,9999,1397529668
22,13,15,Jits_Phase_8,154,9999,9999,9999,1398329452
22,13,15,Jits_Phase_8,155,9999,9999,9999,1399129152
22,13,15,Jits_Phase_8,156,9999,9999,9999,1399929972
22,13,15,Jits_Phase_8,157,9999,9999,9999,1400729668
22,13,15,Jits_Phase_8,158,9999,9999,9999,1401529472
22,13,15,Jits_Phase_8,159,9999,9999,9999,1402329180
22,13,15,Jits_Phase_8,160,9999,9999,9999,1403129968
22,13,15,Jits_Phase_8,161,9999,9999,9999,1403929668
22,13,15,Jits_Phase_8,162,9999,9999,9999,1404729448
22,13,15,Jits_Phase_8,163,9999,9999,9999,1405529144
22,13,15,Jits_Phase_8,164,9999,9999,9999,1406329912
22,13,15,Jits_Phase_8,165,9999,9999,9999,1407129688
22,13,15,Jits_Phase_8,166,9999,9999,9999,1407929432
22,13,15,Jits_Phase_8,167,9999,9999,9999,1408729208
22,13,15,Jits_Phase_8,168,9999,9999,9999,1409529912
22,13,15,Jits_Phase_8,169,9999,9999,9999,1410329696
22,14,17,Jits_Phase_5,0,5,56,103,1421161864
22,14,17,Jits_Phase_5,1,5,63,98,1421165024
22,14,17,Jits_Phase_5,2,5,80,127,1421168200
22,14,17,Jits_Phase_5,0,5,56,103,1421661572
22,14,17,Jits_Phase_5,1,5,63,98,1421664956
22,14,17,Jits_Phase_5,2,5,80,127,1421667908
22,14,17,Jits_Phase_5,0,5,56,103,1422171612
22,14,17,Jits_Phase_5,1,5,80,127,1422181856
22,14,17,Jits_Phase_5,2,5,63,98,1422202264
22,14,17,Jits_Phase_5,0,5,63,98,1422621964
22,14,17,Jits_Phase_5,1,5,80,127,1422651848
22,14,17,Jits_Phase_5,2,5,56,103,1422662092
22,14,17,Jits_Phase_5,0,1,48,52,1423159712
22,14,17,Jits_Phase_5,1,5,80,127,1423182348
22,14,17,Jits_Phase_5,2,5,56,103,1423192440
22,14,17,Jits_Phase_5,3,5,63,98,1423222172
22,14,17,Jits_Phase_5,0,5,63,98,1423671792
22,14,17,Jits_Phase_5,1,5,56,103,1423702292
22,14,17,Jits_Phase_5,2,5,80,127,1423711848
22,14,17,Jits_Phase_5,3,1,48,53,1423721224
22,14,17,Jits_Phase_5,0,5,56,103,1424122248
22,14,17,Jits_Phase_5,1,5,63,98,1424172312
22,14,17,Jits_Phase_5,2,1,48,57,1424192260
22,14,17,Jits_Phase_5,3,5,80,127,1424193628
22,14,17,Jits_Phase_5,0,5,80,127,1424621936
22,14,17,Jits_Phase_5,1,1,48,58,1424637796
22,14,17,Jits_Phase_5,2,5,63,98,1424672220
22,14,17,Jits_Phase_5,3,5,56,103,1424712040
22,14,17,Jits_Phase_5,0,5,56,103,1425121776
22,14,17,Jits_Phase_5,1,5,63,98,1425152428
22,14,17,Jits_Phase_5,2,1,48,51,1425170060
22,14,17,Jits_Phase_5,3,5,80,127,1425221972
22,14,17,Jits_Phase_5,0,5,56,103,1425622456
22,14,17,Jits_Phase_5,1,1,48,49,1425650868
22,14,17,Jits_Phase_5,2,5,80,127,1425681760
22,14,17,Jits_Phase_5,3,5,63,98,1425711796
22,14,17,Jits_Phase_5,0,5,56,103,1426141712
22,14,17,Jits_Phase_5,1,5,63,98,1426151880
22,14,17,Jits_Phase_5,2,1,48,52,1426164460
22,14,17,Jits_Phase_5,3,5,80,127,1426191844
22,14,17,Jits_Phase_5,0,5,63,98,1426632072
22,14,17,Jits_Phase_5,1,1,48,59,1426652756
22,14,17,Jits_Phase_5,2,5,80,127,1426711936
22,14,17,Jits_Phase_5,3,5,56,103,1426722408
22,14,17,Jits_Phase_5,0,1,48,55,1427137596
22,14,17,Jits_Phase_5,1,5,63,98,1427181956
22,14,17,Jits_Phase_5,2,5,56,103,1427221852
22,14,17,Jits_Phase_5,3,5,80,127,1427224904
22,14,17,Jits_Phase_5,0,5,56,103,1427641732
22,14,17,Jits_Phase_5,1,5,63,98,1427651976
22,14,17,Jits_Phase_5,2,1,48,51,1427680464
22,14,17,Jits_Phase_5,3,5,80,127,1427691868
22,14,17,Jits_Phase_5,0,5,56,103,1428132136
22,14,17,Jits_Phase_5,1,5,63,98,1428135116
22,14,17,Jits_Phase_5,2,5,80,127,1428151732
22,14,17,Jits_Phase_5,3,1,48,51,1428170732
22,14,17,Jits_Phase_5,0,5,80,127,1428642136
22,14,17,Jits_Phase_5,1,1,48,53,1428643192
22,14,17,Jits_Phase_5,2,5,56,103,1428652596
22,14,17,Jits_Phase_5,3,5,63,98,1428721948
22,14,17,Jits_Phase_5,0,5,63,98,1429131732
22,14,17,Jits_Phase_5,1,5,56,103,1429152216
22,14,17,Jits_Phase_5,2,1,48,50,1429164720
22,14,17,Jits_Phase_5,3,5,80,127,1429232076
22,14,17,Jits_Phase_5,0,1,48,52,1429626988
22,14,17,Jits_Phase_5,1,5,56,103,1429641612
22,14,17,Jits_Phase_5,2,5,80,127,1429681536
22,14,17,Jits_Phase_5,3,5,63,98,1429691704
22,14,17,Jits_Phase_5,0,5,80,127,1430132264
22,14,17,Jits_Phase_5,1,1,48,51,1430155772
22,14,17,Jits_Phase_5,2,5,63,98,1430161688
22,14,17,Jits_Phase_5,3,5,56,103,1430201684
22,14,17,Jits_Phase_5,0,5,56,103,1430652356
22,14,17,Jits_Phase_5,1,1,48,46,1430679776
22,14,17,Jits_Phase_5,2,5,63,98,1430681856
22,14,17,Jits_Phase_5,3,5,80,127,1430732092
22,14,17,Jits_Phase_5,0,5,80,127,1431152272
22,14,17,Jits_Phase_5,1,1,48,52,1431170216
22,14,17,Jits_Phase_5,2,5,56,103,1431192012
22,14,17,Jits_Phase_5,3,5,63,98,1431202104
22,14,17,Jits_Phase_5,0,5,80,127,1431632396
22,14,17,Jits_Phase_5,1,1,48,46,1431662404
22,14,17,Jits_Phase_5,2,5,63,98,1431672364
22,14,17,Jits_Phase_5,3,5,56,103,1431731624
22,14,17,Jits_Phase_5,0,5,56,103,1432132008
22,14,17,Jits_Phase_5,1,5,80,127,1432142404
22,14,17,Jits_Phase_5,2,1,48,46,1432216660
22,14,17,Jits_Phase_5,3,5,63,98,1432222040
22,14,17,Jits_Phase_5,0,5,80,127,1432631772
22,14,17,Jits_Phase_5,1,1,48,48,1432662396
22,14,17,Jits_Phase_5,2,5,63,98,1432691996
22,14,17,Jits_Phase_5,3,5,56,103,1432721728
22,14,17,Jits_Phase_5,0,5,56,103,1433132528
22,14,17,Jits_Phase_5,1,1,48,47,1433161624
22,14,17,Jits_Phase_5,2,5,80,127,1433191760
22,14,17,Jits_Phase_5,3,5,63,98,1433231656
22,14,17,Jits_Phase_5,0,1,48,47,1433634868
22,14,17,Jits_Phase_5,1,5,56,103,1433691452
22,14,17,Jits_Phase_5,2,5,63,98,1433701684
22,14,17,Jits_Phase_5,3,5,80,127,1433705348
22,14,17,Jits_Phase_5,0,1,48,51,1434138876
22,14,17,Jits_Phase_5,1,5,80,127,1434142192
22,14,17,Jits_Phase_5,2,5,63,98,1434232216
22,14,17,Jits_Phase_5,3,5,56,103,1434242384
22,14,17,Jits_Phase_5,0,5,56,103,1434641932
22,14,17,Jits_Phase_5,1,5,63,98,1434645092
22,14,17,Jits_Phase_5,2,5,80,127,1434648268
22,14,17,Jits_Phase_5,3,1,48,46,1434695788
22,14,17,Jits_Phase_5,0,1,48,42,1435156940
22,14,17,Jits_Phase_5,1,5,80,127,1435161936
22,14,17,Jits_Phase_5,2,5,63,98,1435212304
22,14,17,Jits_Phase_5,3,5,56,103,1435241732
22,14,17,Jits_Phase_5,0,5,56,103,1435642356
22,14,17,Jits_Phase_5,1,1,48,45,1435650152
22,14,17,Jits_Phase_5,2,5,80,127,1435651752
22,14,17,Jits_Phase_5,3,5,63,98,1435722144
22,14,17,Jits_Phase_5,0,5,56,103,1436152132
22,14,17,Jits_Phase_5,1,5,63,98,1436171628
22,14,17,Jits_Phase_5,2,1,48,45,1436202704
22,14,17,Jits_Phase_5,3,5,80,127,1436232300
22,14,17,Jits_Phase_5,0,5,80,127,1436632484
22,14,17,Jits_Phase_5,1,1,48,48,1436657980
22,14,17,Jits_Phase_5,2,5,63,98,1436702032
22,14,17,Jits_Phase_5,3,5,56,103,1436721524
22,14,17,Jits_Phase_5,0,5,80,127,1437151512
22,14,17,Jits_Phase_5,1,1,48,48,1437152420
22,14,17,Jits_Phase_5,2,5,56,103,1437162052
22,14,17,Jits_Phase_5,3,5,63,98,1437172520
22,14,17,Jits_Phase_5,0,5,80,127,1437642176
22,14,17,Jits_Phase_5,1,1,48,48,1437645736
22,14,17,Jits_Phase_5,2,5,56,103,1437661508
22,14,17,Jits_Phase_5,3,5,63,98,1437732280
22,14,17,Jits_Phase_5,0,1,48,49,1438145728
22,14,17,Jits_Phase_5,1,5,56,103,1438152324
22,14,17,Jits_Phase_5,2,5,80,127,1438181680
22,14,17,Jits_Phase_5,3,5,63,98,1438202240
22,14,17,Jits_Phase_5,0,5,63,98,1438641916
22,14,17,Jits_Phase_5,1,1,48,49,1438644640
22,14,17,Jits_Phase_5,2,5,56,103,1438702136
22,14,17,Jits_Phase_5,3,5,80,127,1438731568
22,14,17,Jits_Phase_5,0,5,63,98,1439132164
22,14,17,Jits_Phase_5,1,5,80,127,1439135364
22,14,17,Jits_Phase_5,2,1,48,45,1439147868
22,14,17,Jits_Phase_5,3,5,56,103,1439222056
22,14,17,Jits_Phase_5,0,1,48,51,1439606800
22,14,17,Jits_Phase_5,1,5,56,103,1439652148
22,14,17,Jits_Phase_5,2,5,63,98,1439682212
22,14,17,Jits_Phase_5,3,5,80,127,1439722092
22,14,17,Jits_Phase_5,0,1,48,50,1440121156
22,14,17,Jits_Phase_5,1,5,63,98,1440151976
22,14,17,Jits_Phase_5,2,5,56,103,1440191900
22,14,17,Jits_Phase_5,3,5,80,127,1440212232
22,14,17,Jits_Phase_5,0,1,48,48,1440645888
22,14,17,Jits_Phase_5,1,5,63,98,1440662120
22,14,17,Jits_Phase_5,2,5,56,103,1440702044
22,14,17,Jits_Phase_5,3,5,80,127,1440712060
22,14,17,Jits_Phase_5,0,5,80,127,1441142228
22,14,17,Jits_Phase_5,1,1,48,44,1441157936
22,14,17,Jits_Phase_5,2,5,63,98,1441211876
22,14,17,Jits_Phase_5,3,5,56,103,1441232208
22,14,17,Jits_Phase_5,0,5,56,103,1441631980
22,14,17,Jits_Phase_5,1,5,80,127,1441652088
22,14,17,Jits_Phase_5,2,1,48,46,1441666876
22,14,17,Jits_Phase_5,3,5,63,98,1441692128
22,14,17,Jits_Phase_5,0,1,48,47,1442121396
22,14,17,Jits_Phase_5,1,5,63,98,1442141520
22,14,17,Jits_Phase_5,2,5,80,127,1442162156
22,14,17,Jits_Phase_5,3,5,56,103,1442202056
22,14,17,Jits_Phase_5,0,1,48,43,1442605316
22,14,17,Jits_Phase_5,1,5,63,98,1442642184
22,14,17,Jits_Phase_5,2,5,56,103,1442661828
22,14,17,Jits_Phase_5,3,5,80,127,1442672068
22,14,17,Jits_Phase_5,0,1,48,43,1443107424
22,14,17,Jits_Phase_5,1,5,80,127,1443141928
22,14,17,Jits_Phase_5,2,5,56,103,1443161496
22,14,17,Jits_Phase_5,3,5,63,98,1443192068
22,14,17,Jits_Phase_5,0,1,48,43,1443645008
22,14,17,Jits_Phase_5,1,5,56,103,1443712444
22,14,17,Jits_Phase_5,2,5,80,127,1443715416
22,14,17,Jits_Phase_5,3,5,63,98,1443731784
22,14,17,Jits_Phase_5,0,5,63,98,1444132176
22,14,17,Jits_Phase_5,1,1,48,41,1444156908
22,14,17,Jits_Phase_5,2,5,56,103,1444161904
22,14,17,Jits_Phase_5,3,5,80,127,1444222432
22,14,17,Jits_Phase_5,0,1,48,46,1444599244
22,14,17,Jits_Phase_5,1,5,63,98,1444712000
22,14,17,Jits_Phase_5,2,5,56,103,1444722016
22,14,17,Jits_Phase_5,3,5,80,127,1444732184
22,14,17,Jits_Phase_5,0,1,48,44,1445136764
22,14,17,Jits_Phase_5,1,5,56,103,1445171644
22,14,17,Jits_Phase_5,2,5,80,127,1445202220
22,14,17,Jits_Phase_5,3,5,63,98,1445211620
22,14,17,Jits_Phase_5,0,1,48,46,1445668684
22,14,17,Jits_Phase_5,1,5,63,98,1445712208
22,14,17,Jits_Phase_5,2,5,56,103,1445721384
22,14,17,Jits_Phase_5,3,5,80,127,1445742020
22,14,17,Jits_Phase_5,0,5,56,103,1446142416
22,14,17,Jits_Phase_5,1,1,48,43,1446170368
22,14,17,Jits_Phase_5,2,5,63,98,1446201720
22,14,17,Jits_Phase_5,3,5,80,127,1446204920
22,14,17,Jits_Phase_5,0,1,48,43,1446652840
22,14,17,Jits_Phase_5,1,5,80,127,1446661656
22,14,17,Jits_Phase_5,2,5,56,103,1446671824
22,14,17,Jits_Phase_5,3,5,63,98,1446742292
22,14,17,Jits_Phase_5,0,1,48,46,1447149924
22,14,17,Jits_Phase_5,1,5,80,127,1447151928
22,14,17,Jits_Phase_5,2,5,56,103,1447221860
22,14,17,Jits_Phase_5,3,5,63,98,1447231952
22,14,17,Jits_Phase_5,0,1,48,50,1447672904
22,14,17,Jits_Phase_5,1,5,63,98,1447691576
22,14,17,Jits_Phase_5,2,5,56,103,1447701968
22,14,17,Jits_Phase_5,3,5,80,127,1447722304
22,14,17,Jits_Phase_5,0,5,80,127,1448142260
22,14,17,Jits_Phase_5,1,1,48,44,1448163864
22,14,17,Jits_Phase_5,2,5,63,98,1448201720
22,14,17,Jits_Phase_5,3,5,56,103,1448241844
22,14,17,Jits_Phase_5,0,1,48,38,1448668888
22,14,17,Jits_Phase_5,1,5,56,103,1448681764
22,14,17,Jits_Phase_5,2,5,63,98,1448692160
22,14,17,Jits_Phase_5,3,5,80,127,1448732132
22,14,17,Jits_Phase_5,0,5,56,103,1449141776
22,14,17,Jits_Phase_5,1,5,80,127,1449172500
22,14,17,Jits_Phase_5,2,1,48,47,1449195092
22,14,17,Jits_Phase_5,3,5,63,98,1449221640
22,14,17,Jits_Phase_5,0,1,48,48,1449680112
22,14,17,Jits_Phase_5,1,5,56,103,1449682264
22,14,17,Jits_Phase_5,2,5,63,98,1449722388
22,14,17,Jits_Phase_5,3,5,80,127,1449725668
22,14,17,Jits_Phase_5,0,1,48,46,1450170600
22,14,17,Jits_Phase_5,1,5,56,103,1450182004
22,14,17,Jits_Phase_5,2,5,63,98,1450192628
22,14,17,Jits_Phase_5,3,5,80,127,1450211664
22,14,17,Jits_Phase_5,0,5,56,103,1450641760
22,14,17,Jits_Phase_5,1,5,80,127,1450644732
22,14,17,Jits_Phase_5,2,5,63,98,1450681604
22,14,17,Jits_Phase_5,3,1,48,48,1450684784
22,14,17,Jits_Phase_5,0,1,48,43,1451177552
22,14,17,Jits_Phase_5,1,5,63,98,1451181428
22,14,17,Jits_Phase_5,2,5,56,103,1451212080
22,14,17,Jits_Phase_5,3,5,80,127,1451231648
22,14,17,Jits_Phase_5,0,5,80,127,1451651660
22,14,17,Jits_Phase_5,1,5,56,103,1451661828
22,14,17,Jits_Phase_5,2,5,63,98,1451671920
22,14,17,Jits_Phase_5,3,1,48,42,1451676088
22,14,17,Jits_Phase_5,0,1,48,46,1452149840
22,14,17,Jits_Phase_5,1,5,56,103,1452152468
22,14,17,Jits_Phase_5,2,5,80,127,1452192216
22,14,17,Jits_Phase_5,3,5,63,98,1452221752
22,14,17,Jits_Phase_5,0,1,48,44,1452657012
22,14,17,Jits_Phase_5,1,5,63,98,1452662312
22,14,17,Jits_Phase_5,2,5,80,127,1452672480
22,14,17,Jits_Phase_5,3,5,56,103,1452681580
22,14,17,Jits_Phase_5,0,5,56,103,1453151596
22,14,17,Jits_Phase_5,1,1,48,43,1453161200
22,14,17,Jits_Phase_5,2,5,63,98,1453222440
22,14,17,Jits_Phase_5,3,5,80,127,1453231640
22,14,17,Jits_Phase_5,0,1,48,40,1453650268
22,14,17,Jits_Phase_5,1,5,80,127,1453661524
22,14,17,Jits_Phase_5,2,5,56,103,1453671840
22,14,17,Jits_Phase_5,3,5,63,98,1453722284
22,14,17,Jits_Phase_5,0,5,80,127,1454171592
22,14,17,Jits_Phase_5,1,1,48,40,1454179672
22,14,17,Jits_Phase_5,2,5,56,103,1454231816
22,14,17,Jits_Phase_5,3,5,63,98,1454261572
22,14,17,Jits_Phase_5,0,1,48,38,1454657328
22,14,17,Jits_Phase_5,1,5,56,103,1454672644
22,14,17,Jits_Phase_5,2,5,80,127,1454675612
22,14,17,Jits_Phase_5,3,5,63,98,1454712308
22,14,17,Jits_Phase_5,0,1,48,40,1455131544
22,14,17,Jits_Phase_5,1,5,56,103,1455201656
22,14,17,Jits_Phase_5,2,5,63,98,1455232520
22,14,17,Jits_Phase_5,3,5,80,127,1455241620
22,14,17,Jits_Phase_5,0,1,48,38,1455635800
22,14,17,Jits_Phase_5,1,5,63,98,1455711496
22,14,17,Jits_Phase_5,2,5,80,127,1455721820
22,14,17,Jits_Phase_5,3,5,56,103,1455732272
22,14,17,Jits_Phase_5,0,1,48,40,1456151920
22,14,17,Jits_Phase_5,1,5,80,127,1456162332
22,14,17,Jits_Phase_5,2,5,56,103,1456212468
22,14,17,Jits_Phase_5,3,5,63,98,1456215364
22,14,17,Jits_Phase_5,0,1,48,44,1456634916
22,14,17,Jits_Phase_5,1,5,56,103,1456691576
22,14,17,Jits_Phase_5,2,5,80,127,1456712060
22,14,17,Jits_Phase_5,3,5,63,98,1456722228
22,14,17,Jits_Phase_5,0,1,48,42,1457123584
22,14,17,Jits_Phase_5,1,5,63,98,1457171832
22,14,17,Jits_Phase_5,2,5,56,103,1457201568
22,14,17,Jits_Phase_5,3,5,80,127,1457222412
22,14,17,Jits_Phase_5,0,1,48,43,1457634944
22,14,17,Jits_Phase_5,1,5,56,103,1457681672
22,14,17,Jits_Phase_5,2,5,80,127,1457692216
22,14,17,Jits_Phase_5,3,5,63,98,1457761680
22,14,17,Jits_Phase_5,0,1,48,42,1458146232
22,14,17,Jits_Phase_5,1,5,63,98,1458172172
22,14,17,Jits_Phase_5,2,5,80,127,1458212224
22,14,17,Jits_Phase_5,3,5,56,103,1458252180
22,14,17,Jits_Phase_5,0,1,48,42,1458657452
22,14,17,Jits_Phase_5,1,5,56,103,1458682240
22,14,17,Jits_Phase_5,2,5,63,98,1458691420
22,14,17,Jits_Phase_5,3,5,80,127,1458711824
22,14,17,Jits_Phase_5,0,1,48,38,1459137708
22,14,17,Jits_Phase_5,1,5,63,98,1459221968
22,14,17,Jits_Phase_5,2,5,80,127,1459242360
22,14,17,Jits_Phase_5,3,5,56,103,1459261928
22,14,17,Jits_Phase_5,0,5,56,103,1459662340
22,14,17,Jits_Phase_5,1,1,48,39,1459695552
22,14,17,Jits_Phase_5,2,5,80,127,1459742128
22,14,17,Jits_Phase_5,3,5,63,98,1459752368
22,14,17,Jits_Phase_5,0,1,48,42,1460190592
22,14,17,Jits_Phase_5,1,5,80,127,1460201844
22,14,17,Jits_Phase_5,2,5,63,98,1460212088
22,14,17,Jits_Phase_5,3,5,56,103,1460241668
22,14,17,Jits_Phase_5,0,5,63,98,1460661552
22,14,17,Jits_Phase_5,1,1,48,40,1460688264
22,14,17,Jits_Phase_5,2,5,80,127,1460701520
22,14,17,Jits_Phase_5,3,5,56,103,1460762128
22,14,17,Jits_Phase_5,0,1,48,43,1461150932
22,14,17,Jits_Phase_5,1,5,63,98,1461171612
22,14,17,Jits_Phase_5,2,5,56,103,1461222056
22,14,17,Jits_Phase_5,3,5,80,127,1461251316
22,14,17,Jits_Phase_5,0,5,80,127,1461672264
22,14,17,Jits_Phase_5,1,1,48,40,1461680072
22,14,17,Jits_Phase_5,2,5,63,98,1461681908
22,14,17,Jits_Phase_5,3,5,56,103,1461752076
22,14,17,Jits_Phase_5,0,1,48,39,1462160232
22,14,17,Jits_Phase_5,1,5,80,127,1462232504
22,14,17,Jits_Phase_5,2,5,56,103,1462241676
22,14,17,Jits_Phase_5,3,5,63,98,1462244956
22,14,17,Jits_Phase_5,0,5,56,103,1462671844
22,14,17,Jits_Phase_5,1,1,48,39,1462689536
22,14,17,Jits_Phase_5,2,5,80,127,1462692172
22,14,17,Jits_Phase_5,3,5,63,98,1462701372
22,14,17,Jits_Phase_5,0,1,48,36,1463178216
22,14,17,Jits_Phase_5,1,5,63,98,1463181844
22,14,17,Jits_Phase_5,2,5,56,103,1463221544
22,14,17,Jits_Phase_5,3,5,80,127,1463242180
22,14,17,Jits_Phase_5,0,1,48,45,1463656272
22,14,17,Jits_Phase_5,1,5,63,98,1463682516
22,14,17,Jits_Phase_5,2,5,56,103,1463742084
22,14,17,Jits_Phase_5,3,5,80,127,1463745128
22,14,17,Jits_Phase_5,0,5,56,103,1464142296
22,14,17,Jits_Phase_5,1,5,80,127,1464161560
22,14,17,Jits_Phase_5,2,1,48,41,1464162544
22,14,17,Jits_Phase_5,3,5,63,98,1464201600
22,14,17,Jits_Phase_5,0,1,48,38,1464633928
22,14,17,Jits_Phase_5,1,5,56,103,1464671860
22,14,17,Jits_Phase_5,2,5,63,98,1464692040
22,14,17,Jits_Phase_5,3,5,80,127,1464702360
22,14,17,Jits_Phase_5,0,5,80,127,1465141732
22,14,17,Jits_Phase_5,1,1,48,38,1465144296
22,14,17,Jits_Phase_5,2,5,56,103,1465172372
22,14,17,Jits_Phase_5,3,5,63,98,1465212268
22,14,17,Jits_Phase_5,0,1,48,40,1465633208
22,14,17,Jits_Phase_5,1,5,80,127,1465651800
22,14,17,Jits_Phase_5,2,5,56,103,1465671984
22,14,17,Jits_Phase_5,3,5,63,98,1465731432
22,14,17,Jits_Phase_5,0,1,48,45,1466141900
22,14,17,Jits_Phase_5,1,5,56,103,1466161564
22,14,17,Jits_Phase_5,2,5,80,127,1466181972
22,14,17,Jits_Phase_5,3,5,63,98,1466242412
22,14,17,Jits_Phase_5,0,5,80,127,1466642212
22,14,17,Jits_Phase_5,1,5,56,103,1466651924
22,14,17,Jits_Phase_5,2,1,48,38,1466669404
22,14,17,Jits_Phase_5,3,5,63,98,1466691888
22,14,17,Jits_Phase_5,0,1,48,43,1467107160
22,14,17,Jits_Phase_5,1,5,63,98,1467141432
22,14,17,Jits_Phase_5,2,5,56,103,1467181324
22,14,17,Jits_Phase_5,3,5,80,127,1467184684
22,14,17,Jits_Phase_5,0,1,48,46,1467608428
22,14,17,Jits_Phase_5,1,5,63,98,1467661656
22,14,17,Jits_Phase_5,2,5,80,127,1467701708
22,14,17,Jits_Phase_5,3,5,56,103,1467732492
22,14,17,Jits_Phase_5,0,1,48,44,1468134860
22,14,17,Jits_Phase_5,1,5,56,103,1468152160
22,14,17,Jits_Phase_5,2,5,63,98,1468162556
22,14,17,Jits_Phase_5,3,5,80,127,1468192212
22,14,17,Jits_Phase_5,0,1,48,43,1468584136
22,14,17,Jits_Phase_5,1,5,80,127,1468641740
22,14,17,Jits_Phase_5,2,5,63,98,1468712268
22,14,17,Jits_Phase_5,3,5,56,103,1468721596
22,14,17,Jits_Phase_5,0,1,48,42,1469121976
22,14,17,Jits_Phase_5,1,5,63,98,1469142328
22,14,17,Jits_Phase_5,2,5,56,103,1469211956
22,14,17,Jits_Phase_5,3,5,80,127,1469222184
22,14,17,Jits_Phase_5,0,5,63,98,1469621756
22,14,17,Jits_Phase_5,1,1,48,45,1469639756
22,14,17,Jits_Phase_5,2,5,56,103,1469642080
22,14,17,Jits_Phase_5,3,5,80,127,1469682052
22,14,17,Jits_Phase_5,0,1,48,42,1470111076
22,14,17,Jits_Phase_5,1,5,56,103,1470112836
22,14,17,Jits_Phase_5,2,5,63,98,1470122492
22,14,17,Jits_Phase_5,3,5,80,127,1470202208
22,14,17,Jits_Phase_5,0,5,63,98,1470601664
22,14,17,Jits_Phase_5,1,1,48,39,1470610584
22,14,17,Jits_Phase_5,2,5,56,103,1470632304
22,14,17,Jits_Phase_5,3,5,80,127,1470672300
22,14,17,Jits_Phase_5,0,1,48,40,1471097776
22,14,17,Jits_Phase_5,1,5,56,103,1471102396
22,14,17,Jits_Phase_5,2,5,63,98,1471142368
22,14,17,Jits_Phase_5,3,5,80,127,1471182216
22,14,17,Jits_Phase_5,0,1,48,40,1471599832
22,14,17,Jits_Phase_5,1,5,80,127,1471601908
22,14,17,Jits_Phase_5,2,5,56,103,1471681804
22,14,17,Jits_Phase_5,3,5,63,98,1471692124
22,14,17,Jits_Phase_5,0,1,48,44,1472089648
22,14,17,Jits_Phase_5,1,5,56,103,1472141708
22,14,17,Jits_Phase_5,2,5,63,98,1472144760
22,14,17,Jits_Phase_5,3,5,80,127,1472152100
22,14,17,Jits_Phase_5,0,1,48,39,1472593652
22,14,17,Jits_Phase_5,1,5,56,103,1472661784
22,14,17,Jits_Phase_5,2,5,63,98,1472682596
22,14,17,Jits_Phase_5,3,5,80,127,1472691604
22,14,17,Jits_Phase_5,0,1,48,41,1473081260
22,14,17,Jits_Phase_5,1,5,63,98,1473121712
22,14,17,Jits_Phase_5,2,5,80,127,1473131880
22,14,17,Jits_Phase_5,3,5,56,103,1473152440
22,14,17,Jits_Phase_5,0,1,48,43,1473575496
22,14,17,Jits_Phase_5,1,5,63,98,1473622528
22,14,17,Jits_Phase_5,2,5,56,103,1473702228
22,14,17,Jits_Phase_5,3,5,80,127,1473705124
22,14,17,Jits_Phase_5,0,1,48,40,1474086172
22,14,17,Jits_Phase_5,1,5,63,98,1474122044
22,14,17,Jits_Phase_5,2,5,56,103,1474141612
22,14,17,Jits_Phase_5,3,5,80,127,1474172336
22,14,17,Jits_Phase_5,0,1,48,39,1474562384
22,14,17,Jits_Phase_5,1,5,56,103,1474621792
22,14,17,Jits_Phase_5,2,5,63,98,1474642504
22,14,17,Jits_Phase_5,3,5,80,127,1474651528
22,14,17,Jits_Phase_5,0,1,48,40,1475094224
22,14,17,Jits_Phase_5,1,5,56,103,1475152336
22,14,17,Jits_Phase_5,2,5,63,98,1475181832
22,14,17,Jits_Phase_5,3,5,80,127,1475185344
22,14,17,Jits_Phase_5,0,1,48,41,1475589240
22,14,17,Jits_Phase_5,1,5,56,103,1475601708
22,14,17,Jits_Phase_5,2,5,63,98,1475641608
22,14,17,Jits_Phase_5,3,5,80,127,1475702120
22,14,17,Jits_Phase_5,0,1,48,40,1476080804
22,14,17,Jits_Phase_5,1,5,56,103,1476121864
22,14,17,Jits_Phase_5,2,5,63,98,1476132716
22,14,17,Jits_Phase_5,3,5,80,127,1476191704
22,14,17,Jits_Phase_5,0,1,48,39,1476553256
22,14,17,Jits_Phase_5,1,5,56,103,1476621612
22,14,17,Jits_Phase_5,2,5,80,127,1476642324
22,14,17,Jits_Phase_5,3,5,63,98,1476671812
22,14,17,Jits_Phase_5,0,1,48,41,1477023552
22,14,17,Jits_Phase_5,1,5,80,127,1477122488
22,14,17,Jits_Phase_5,2,5,56,103,1477131588
22,14,17,Jits_Phase_5,3,5,63,98,1477152448
22,14,17,Jits_Phase_5,0,1,48,43,1477520708
22,14,17,Jits_Phase_5,1,5,63,98,1477611856
22,14,17,Jits_Phase_5,2,5,80,127,1477691864
22,14,17,Jits_Phase_5,3,5,56,103,1477702108
22,14,17,Jits_Phase_5,0,1,48,45,1478021376
22,14,17,Jits_Phase_5,1,5,80,127,1478201632
22,14,17,Jits_Phase_5,2,5,56,103,1478222264
22,14,17,Jits_Phase_5,3,5,63,98,1478225312
22,14,17,Jits_Phase_5,0,1,48,42,1478505436
22,14,17,Jits_Phase_5,1,5,63,98,1478692500
22,14,17,Jits_Phase_5,2,5,80,127,1478695696
22,14,17,Jits_Phase_5,3,5,56,103,1478751576
22,14,17,Jits_Phase_5,0,1,48,39,1479154788
22,14,17,Jits_Phase_5,1,5,56,103,1479171396
22,14,17,Jits_Phase_5,2,5,80,127,1479181640
22,14,17,Jits_Phase_5,3,5,63,98,1479221612
22,14,17,Jits_Phase_5,0,5,56,103,1479651812
22,14,17,Jits_Phase_5,1,5,63,98,1479712348
22,14,17,Jits_Phase_5,2,5,80,127,1479722288
22,14,17,Jits_Phase_5,3,1,48,32,1479793104
22,14,17,Jits_Phase_5,0,5,63,98,1480161744
22,14,17,Jits_Phase_5,1,5,80,127,1480201568
22,14,17,Jits_Phase_5,2,1,48,36,1480210640
22,14,17,Jits_Phase_5,3,5,56,103,1480241532
22,14,17,Jits_Phase_5,0,5,56,103,1480662332
22,14,17,Jits_Phase_5,1,1,48,38,1480690660
22,14,17,Jits_Phase_5,2,5,63,98,1480742344
22,14,17,Jits_Phase_5,3,5,80,127,1480745620
22,14,17,Jits_Phase_5,0,1,48,40,1481200740
22,14,17,Jits_Phase_5,1,5,80,127,1481221472
22,14,17,Jits_Phase_5,2,5,56,103,1481252344
22,14,17,Jits_Phase_5,3,5,63,98,1481255468
22,14,17,Jits_Phase_5,0,5,56,103,1481682392
22,14,17,Jits_Phase_5,1,5,80,127,1481701580
22,14,17,Jits_Phase_5,2,1,48,38,1481728068
22,14,17,Jits_Phase_5,3,5,63,98,1481741624
22,14,17,Jits_Phase_5,0,5,80,127,1482161444
22,14,17,Jits_Phase_5,1,5,63,98,1482182156
22,14,17,Jits_Phase_5,2,5,56,103,1482242388
22,14,17,Jits_Phase_5,3,1,48,39,1482247624
22,14,17,Jits_Phase_5,0,5,63,98,1482671372
22,14,17,Jits_Phase_5,1,5,56,103,1482681616
22,14,17,Jits_Phase_5,2,1,48,40,1482691524
22,14,17,Jits_Phase_5,3,5,80,127,1482732128
22,14,17,Jits_Phase_5,0,1,48,42,1483159992
22,14,17,Jits_Phase_5,1,5,56,103,1483162140
22,14,17,Jits_Phase_5,2,5,63,98,1483181356
22,14,17,Jits_Phase_5,3,5,80,127,1483191600
22,14,17,Jits_Phase_5,0,1,48,38,1483627084
22,14,17,Jits_Phase_5,1,5,56,103,1483651336
22,14,17,Jits_Phase_5,2,5,63,98,1483654468
22,14,17,Jits_Phase_5,3,5,80,127,1483671976
22,14,17,Jits_Phase_5,0,1,48,47,1484110552
22,14,17,Jits_Phase_5,1,5,63,98,1484192048
22,14,17,Jits_Phase_5,2,5,56,103,1484221944
22,14,17,Jits_Phase_5,3,5,80,127,1484251448
22,14,17,Jits_Phase_5,0,1,48,39,1484646060
22,14,17,Jits_Phase_5,1,5,80,127,1484652276
22,14,17,Jits_Phase_5,2,5,56,103,1484742552
22,14,17,Jits_Phase_5,3,5,63,98,1484745444
22,14,17,Jits_Phase_5,0,5,56,103,1485151568
22,14,17,Jits_Phase_5,1,5,80,127,1485154616
22,14,17,Jits_Phase_5,2,1,48,38,1485164220
22,14,17,Jits_Phase_5,3,5,63,98,1485231376
22,14,17,Jits_Phase_5,0,5,80,127,1485652392
22,14,17,Jits_Phase_5,1,1,48,29,1485655420
22,14,17,Jits_Phase_5,2,5,63,98,1485711772
22,14,17,Jits_Phase_5,3,5,56,103,1485741456
22,14,17,Jits_Phase_5,0,1,48,28,1486150224
22,14,17,Jits_Phase_5,1,5,63,98,1486151920
22,14,17,Jits_Phase_5,2,5,80,127,1486162240
22,14,17,Jits_Phase_5,3,5,56,103,1486232096
22,14,17,Jits_Phase_5,0,1,48,28,1486670828
22,14,17,Jits_Phase_5,1,5,56,103,1486712200
22,14,17,Jits_Phase_5,2,5,80,127,1486741784
22,14,17,Jits_Phase_5,3,5,63,98,1486792004
22,14,17,Jits_Phase_5,0,1,48,38,1487210320
22,14,17,Jits_Phase_5,1,5,63,98,1487301932
22,14,17,Jits_Phase_5,2,5,56,103,1487331872
22,14,17,Jits_Phase_5,3,5,80,127,1487334848
22,14,17,Jits_Phase_5,0,1,48,35,1487723820
22,14,17,Jits_Phase_5,1,5,63,98,1487801980
22,14,17,Jits_Phase_5,2,5,80,127,1487822296
22,14,17,Jits_Phase_5,3,5,56,103,1487832464
22,14,17,Jits_Phase_5,0,1,48,38,1488232744
22,14,17,Jits_Phase_5,1,5,56,103,1488311740
22,14,17,Jits_Phase_5,2,5,63,98,1488314712
22,14,17,Jits_Phase_5,3,5,80,127,1488332052
22,14,17,Jits_Phase_5,0,1,48,33,1488721472
22,14,17,Jits_Phase_5,1,5,56,103,1488762152
22,14,17,Jits_Phase_5,2,5,63,98,1488771784
22,14,17,Jits_Phase_5,3,5,80,127,1488802056
22,14,17,Jits_Phase_5,0,1,48,32,1489200120
22,14,17,Jits_Phase_5,1,5,63,98,1489282384
22,14,17,Jits_Phase_5,2,5,80,127,1489301860
22,14,17,Jits_Phase_5,3,5,56,103,1489341780
22,14,17,Jits_Phase_5,0,1,48,37,1489719596
22,14,17,Jits_Phase_5,1,5,56,103,1489811788
22,14,17,Jits_Phase_5,2,5,63,98,1489851772
22,14,17,Jits_Phase_5,3,5,80,127,1489855200
22,14,17,Jits_Phase_5,0,5,80,127,1490252156
22,14,17,Jits_Phase_5,1,1,48,38,1490287664
22,14,17,Jits_Phase_5,2,5,56,103,1490292120
22,14,17,Jits_Phase_5,3,5,63,98,1490342184
22,14,17,Jits_Phase_5,0,1,48,37,1490790848
22,14,17,Jits_Phase_5,1,5,56,103,1490812340
22,14,17,Jits_Phase_5,2,5,80,127,1490821440
22,14,17,Jits_Phase_5,3,5,63,98,1490852164
22,14,17,Jits_Phase_5,0,5,56,103,1491261888
22,14,17,Jits_Phase_5,1,1,48,37,1491266900
22,14,17,Jits_Phase_5,2,5,80,127,1491301856
22,14,17,Jits_Phase_5,3,5,63,98,1491351840
22,14,17,Jits_Phase_5,0,5,56,103,1491761652
22,14,17,Jits_Phase_5,1,1,48,36,1491789128
22,14,17,Jits_Phase_5,2,5,80,127,1491801620
22,14,17,Jits_Phase_5,3,5,63,98,1491851756
22,14,17,Jits_Phase_5,0,5,80,127,1492252016
22,14,17,Jits_Phase_5,1,1,48,38,1492288744
22,14,17,Jits_Phase_5,2,5,63,98,1492331956
22,14,17,Jits_Phase_5,3,5,56,103,1492342124
22,14,17,Jits_Phase_5,0,1,48,38,1492781488
22,14,17,Jits_Phase_5,1,5,80,127,1492801988
22,14,17,Jits_Phase_5,2,5,56,103,1492812080
22,14,17,Jits_Phase_5,3,5,63,98,1492831800
22,14,17,Jits_Phase_5,0,1,48,37,1493262664
22,14,17,Jits_Phase_5,1,5,63,98,1493271856
22,14,17,Jits_Phase_5,2,5,56,103,1493341556
22,14,17,Jits_Phase_5,3,5,80,127,1493344684
22,14,17,Jits_Phase_5,0,1,48,30,1493759336
22,14,17,Jits_Phase_5,1,5,80,127,1493762500
22,14,17,Jits_Phase_5,2,5,63,98,1493811876
22,14,17,Jits_Phase_5,3,5,56,103,1493852448
22,14,17,Jits_Phase_5,0,1,48,36,1494294868
22,14,17,Jits_Phase_5,1,5,63,98,1494302232
22,14,17,Jits_Phase_5,2,5,56,103,1494341900
22,14,17,Jits_Phase_5,3,5,80,127,1494352448
22,14,17,Jits_Phase_5,0,1,48,32,1494786820
22,14,17,Jits_Phase_5,1,5,63,98,1494791744
22,14,17,Jits_Phase_5,2,5,56,103,1494812076
22,14,17,Jits_Phase_5,3,5,80,127,1494831644
22,14,17,Jits_Phase_5,0,5,80,127,1495252596
22,14,17,Jits_Phase_5,1,5,56,103,1495261544
22,14,17,Jits_Phase_5,2,1,48,39,1495267472
22,14,17,Jits_Phase_5,3,5,63,98,1495281944
22,14,17,Jits_Phase_5,0,1,48,39,1495766460
22,14,17,Jits_Phase_5,1,5,63,98,1495781776
22,14,17,Jits_Phase_5,2,5,56,103,1495821752
22,14,17,Jits_Phase_5,3,5,80,127,1495852628
22,14,17,Jits_Phase_5,0,5,56,103,1496241564
22,14,17,Jits_Phase_5,1,1,48,43,1496267208
22,14,17,Jits_Phase_5,2,5,63,98,1496272356
22,14,17,Jits_Phase_5,3,5,80,127,1496301936
22,14,17,Jits_Phase_5,0,5,80,127,1496662432
22,14,17,Jits_Phase_5,1,5,56,103,1496731904
22,14,17,Jits_Phase_5,2,5,63,98,1496735036
22,14,17,Jits_Phase_5,3,1,48,38,1496740976
22,14,17,Jits_Phase_5,0,5,56,103,1497172504
22,14,17,Jits_Phase_5,1,5,63,98,1497221580
22,14,17,Jits_Phase_5,2,1,48,32,1497227356
22,14,17,Jits_Phase_5,3,5,80,127,1497252372
22,14,17,Jits_Phase_5,0,5,63,98,1497651476
22,14,17,Jits_Phase_5,1,5,80,127,1497654684
22,14,17,Jits_Phase_5,2,1,48,32,1497671476
22,14,17,Jits_Phase_5,3,5,56,103,1497712000
22,14,17,Jits_Phase_5,0,1,48,36,1498137956
22,14,17,Jits_Phase_5,1,5,56,103,1498181936
22,14,17,Jits_Phase_5,2,5,80,127,1498192484
22,14,17,Jits_Phase_5,3,5,63,98,1498242456
22,14,17,Jits_Phase_5,0,5,63,98,1498651964
22,14,17,Jits_Phase_5,1,5,56,103,1498662508
22,14,17,Jits_Phase_5,2,5,80,127,1498691864
22,14,17,Jits_Phase_5,3,1,48,40,1498702608
22,14,17,Jits_Phase_5,0,1,48,30,1499171096
22,14,17,Jits_Phase_5,1,5,63,98,1499181504
22,14,17,Jits_Phase_5,2,5,80,127,1499184856
22,14,17,Jits_Phase_5,3,5,56,103,1499212224
22,14,17,Jits_Phase_5,0,1,48,37,1499637572
22,14,17,Jits_Phase_5,1,5,63,98,1499701656
22,14,17,Jits_Phase_5,2,5,56,103,1499722136
22,14,17,Jits_Phase_5,3,5,80,127,1499725488
22,14,17,Jits_Phase_5,0,1,48,34,1500155812
22,14,17,Jits_Phase_5,1,5,63,98,1500162340
22,14,17,Jits_Phase_5,2,5,56,103,1500232272
22,14,17,Jits_Phase_5,3,5,80,127,1500251464
22,14,17,Jits_Phase_5,0,5,56,103,1500651784
22,14,17,Jits_Phase_5,1,5,63,98,1500662256
22,14,17,Jits_Phase_5,2,1,48,33,1500669100
22,14,17,Jits_Phase_5,3,5,80,127,1500752280
22,14,17,Jits_Phase_5,0,1,48,32,1501135008
22,14,17,Jits_Phase_5,1,5,56,103,1501172328
22,14,17,Jits_Phase_5,2,5,80,127,1501212376
22,14,17,Jits_Phase_5,3,5,63,98,1501222472
22,14,17,Jits_Phase_5,0,1,48,37,1501632008
22,14,17,Jits_Phase_5,1,5,56,103,1501692256
22,14,17,Jits_Phase_5,2,5,63,98,1501722068
22,14,17,Jits_Phase_5,3,5,80,127,1501751556
22,14,17,Jits_Phase_5,0,1,48,40,1502103372
22,14,17,Jits_Phase_5,1,5,80,127,1502152260
22,14,17,Jits_Phase_5,2,5,63,98,1502192312
22,14,17,Jits_Phase_5,3,5,56,103,1502211332
22,14,17,Jits_Phase_5,0,1,48,40,1502614588
22,14,17,Jits_Phase_5,1,5,56,103,1502691680
22,14,17,Jits_Phase_5,2,5,80,127,1502712448
22,14,17,Jits_Phase_5,3,5,63,98,1502731564
22,14,17,Jits_Phase_5,0,1,48,34,1503148064
22,14,17,Jits_Phase_5,1,5,63,98,1503161624
22,14,17,Jits_Phase_5,2,5,56,103,1503172020
22,14,17,Jits_Phase_5,3,5,80,127,1503232400
22,14,17,Jits_Phase_5,0,1,48,40,1503649312
22,14,17,Jits_Phase_5,1,5,56,103,1503661372
22,14,17,Jits_Phase_5,2,5,63,98,1503732300
22,14,17,Jits_Phase_5,3,5,80,127,1503751472
22,14,17,Jits_Phase_5,0,1,48,40,1504137376
22,14,17,Jits_Phase_5,1,5,56,103,1504162092
22,14,17,Jits_Phase_5,2,5,63,98,1504191852
22,14,17,Jits_Phase_5,3,5,80,127,1504231976
22,14,17,Jits_Phase_5,0,1,48,28,1504610996
22,14,17,Jits_Phase_5,1,5,63,98,1504651524
22,14,17,Jits_Phase_5,2,5,56,103,1504702068
22,14,17,Jits_Phase_5,3,5,80,127,1504712296
22,14,17,Jits_Phase_5,0,1,48,35,1505133360
22,14,17,Jits_Phase_5,1,5,56,103,1505192340
22,14,17,Jits_Phase_5,2,5,63,98,1505241396
22,14,17,Jits_Phase_5,3,5,80,127,1505251640
22,14,17,Jits_Phase_5,0,1,48,18,1505581228
22,14,17,Jits_Phase_5,1,5,56,103,1505662264
22,14,17,Jits_Phase_5,2,5,63,98,1505671440
22,14,17,Jits_Phase_5,3,5,80,127,1505752384
22,14,17,Jits_Phase_5,0,9999,9999,9999,1421409392
22,14,17,Jits_Phase_5,1,9999,9999,9999,1421910088
22,14,17,Jits_Phase_5,2,9999,9999,9999,1422420056
22,14,17,Jits_Phase_5,3,9999,9999,9999,1422919776
22,14,17,Jits_Phase_5,4,9999,9999,9999,1423419468
22,14,17,Jits_Phase_5,5,9999,9999,9999,1423919224
22,14,17,Jits_Phase_5,6,9999,9999,9999,1424419964
22,14,17,Jits_Phase_5,7,9999,9999,9999,1424919652
22,14,17,Jits_Phase_5,8,9999,9999,9999,1425419344
22,14,17,Jits_Phase_5,9,9999,9999,9999,1425920100
22,14,17,Jits_Phase_5,10,9999,9999,9999,1426430028
22,14,17,Jits_Phase_5,11,9999,9999,9999,1426929792
22,14,17,Jits_Phase_5,12,9999,9999,9999,1427429460
22,14,17,Jits_Phase_5,13,9999,9999,9999,1427929208
22,14,17,Jits_Phase_5,14,9999,9999,9999,1428429948
22,14,17,Jits_Phase_5,15,9999,9999,9999,1428929632
22,14,17,Jits_Phase_5,16,9999,9999,9999,1429429372
22,14,17,Jits_Phase_5,17,9999,9999,9999,1429930084
22,14,17,Jits_Phase_5,18,9999,9999,9999,1430429752
22,14,17,Jits_Phase_5,19,9999,9999,9999,1430929516
22,14,17,Jits_Phase_5,20,9999,9999,9999,1431429204
22,14,17,Jits_Phase_5,21,9999,9999,9999,1431929960
22,14,17,Jits_Phase_5,22,9999,9999,9999,1432429652
22,14,17,Jits_Phase_5,23,9999,9999,9999,1432929340
22,14,17,Jits_Phase_5,24,9999,9999,9999,1433430096
22,14,17,Jits_Phase_5,25,9999,9999,9999,1433940096
22,14,17,Jits_Phase_5,26,9999,9999,9999,1434439768
22,14,17,Jits_Phase_5,27,9999,9999,9999,1434939492
22,14,17,Jits_Phase_5,28,9999,9999,9999,1435439180
22,14,17,Jits_Phase_5,29,9999,9999,9999,1435939920
22,14,17,Jits_Phase_5,30,9999,9999,9999,1436429368
22,14,17,Jits_Phase_5,31,9999,9999,9999,1436929136
22,14,17,Jits_Phase_5,32,9999,9999,9999,1437429888
22,14,17,Jits_Phase_5,33,9999,9999,9999,1437929576
22,14,17,Jits_Phase_5,34,9999,9999,9999,1438429264
22,14,17,Jits_Phase_5,35,9999,9999,9999,1438930004
22,14,17,Jits_Phase_5,36,9999,9999,9999,1439429744
22,14,17,Jits_Phase_5,37,9999,9999,9999,1439929420
22,14,17,Jits_Phase_5,38,9999,9999,9999,1440429168
22,14,17,Jits_Phase_5,39,9999,9999,9999,1440929888
22,14,17,Jits_Phase_5,40,9999,9999,9999,1441429632
22,14,17,Jits_Phase_5,41,9999,9999,9999,1441929316
22,14,17,Jits_Phase_5,42,9999,9999,9999,1442430072
22,14,17,Jits_Phase_5,43,9999,9999,9999,1442929740
22,14,17,Jits_Phase_5,44,9999,9999,9999,1443429484
22,14,17,Jits_Phase_5,45,9999,9999,9999,1443929156
22,14,17,Jits_Phase_5,46,9999,9999,9999,1444429892
22,14,17,Jits_Phase_5,47,9999,9999,9999,1444929648
22,14,17,Jits_Phase_5,48,9999,9999,9999,1445439564
22,14,17,Jits_Phase_5,49,9999,9999,9999,1445939316
22,14,17,Jits_Phase_5,50,9999,9999,9999,1446440048
22,14,17,Jits_Phase_5,51,9999,9999,9999,1446939736
22,14,17,Jits_Phase_5,52,9999,9999,9999,1447439488
22,14,17,Jits_Phase_5,53,9999,9999,9999,1447939164
22,14,17,Jits_Phase_5,54,9999,9999,9999,1448439904
22,14,17,Jits_Phase_5,55,9999,9999,9999,1448939592
22,14,17,Jits_Phase_5,56,9999,9999,9999,1449439340
22,14,17,Jits_Phase_5,57,9999,9999,9999,1449940084
22,14,17,Jits_Phase_5,58,9999,9999,9999,1450439756
22,14,17,Jits_Phase_5,59,9999,9999,9999,1450939492
22,14,17,Jits_Phase_5,60,9999,9999,9999,1451439184
22,14,17,Jits_Phase_5,61,9999,9999,9999,1451939896
22,14,17,Jits_Phase_5,62,9999,9999,9999,1452439652
22,14,17,Jits_Phase_5,63,9999,9999,9999,1452939324
22,14,17,Jits_Phase_5,64,9999,9999,9999,1453459556
22,14,17,Jits_Phase_5,65,9999,9999,9999,1453959244
22,14,17,Jits_Phase_5,66,9999,9999,9999,1454459984
22,14,17,Jits_Phase_5,67,9999,9999,9999,1454959736
22,14,17,Jits_Phase_5,68,9999,9999,9999,1455459408
22,14,17,Jits_Phase_5,69,9999,9999,9999,1455959164
22,14,17,Jits_Phase_5,70,9999,9999,9999,1456459892
22,14,17,Jits_Phase_5,71,9999,9999,9999,1456959568
22,14,17,Jits_Phase_5,72,9999,9999,9999,1457459316
22,14,17,Jits_Phase_5,73,9999,9999,9999,1457960060
22,14,17,Jits_Phase_5,74,9999,9999,9999,1458459732
22,14,17,Jits_Phase_5,75,9999,9999,9999,1458959484
22,14,17,Jits_Phase_5,76,9999,9999,9999,1459459164
22,14,17,Jits_Phase_5,77,9999,9999,9999,1459959908
22,14,17,Jits_Phase_5,78,9999,9999,9999,1460459596
22,14,17,Jits_Phase_5,79,9999,9999,9999,1460959344
22,14,17,Jits_Phase_5,80,9999,9999,9999,1461460088
22,14,17,Jits_Phase_5,81,9999,9999,9999,1461939280
22,14,17,Jits_Phase_5,82,9999,9999,9999,1462440012
22,14,17,Jits_Phase_5,83,9999,9999,9999,1462939756
22,14,17,Jits_Phase_5,84,9999,9999,9999,1463439448
22,14,17,Jits_Phase_5,85,9999,9999,9999,1463939196
22,14,17,Jits_Phase_5,86,9999,9999,9999,1464439936
22,14,17,Jits_Phase_5,87,9999,9999,9999,1464939624
22,14,17,Jits_Phase_5,88,9999,9999,9999,1465439296
22,14,17,Jits_Phase_5,89,9999,9999,9999,1465940048
22,14,17,Jits_Phase_5,90,9999,9999,9999,1466439800
22,14,17,Jits_Phase_5,91,9999,9999,9999,1466939468
22,14,17,Jits_Phase_5,92,9999,9999,9999,1467439224
22,14,17,Jits_Phase_5,93,9999,9999,9999,1467939968
22,14,17,Jits_Phase_5,94,9999,9999,9999,1468439640
22,14,17,Jits_Phase_5,95,9999,9999,9999,1468939388
22,14,17,Jits_Phase_5,96,9999,9999,9999,1469440128
22,14,17,Jits_Phase_5,97,9999,9999,9999,1469899904
22,14,17,Jits_Phase_5,98,9999,9999,9999,1470399580
22,14,17,Jits_Phase_5,99,9999,9999,9999,1470899328
22,14,17,Jits_Phase_5,100,9999,9999,9999,1471400044
22,14,17,Jits_Phase_5,101,9999,9999,9999,1471899712
22,14,17,Jits_Phase_5,102,9999,9999,9999,1472399456
22,14,17,Jits_Phase_5,103,9999,9999,9999,1472899132
22,14,17,Jits_Phase_5,104,9999,9999,9999,1473399868
22,14,17,Jits_Phase_5,105,9999,9999,9999,1473899612
22,14,17,Jits_Phase_5,106,9999,9999,9999,1474399360
22,14,17,Jits_Phase_5,107,9999,9999,9999,1474900024
22,14,17,Jits_Phase_5,108,9999,9999,9999,1475399764
22,14,17,Jits_Phase_5,109,9999,9999,9999,1475899512
22,14,17,Jits_Phase_5,110,9999,9999,9999,1476399184
22,14,17,Jits_Phase_5,111,9999,9999,9999,1476899920
22,14,17,Jits_Phase_5,112,9999,9999,9999,1477399668
22,14,17,Jits_Phase_5,113,9999,9999,9999,1477899344
22,14,17,Jits_Phase_5,114,9999,9999,9999,1478449224
22,14,17,Jits_Phase_5,115,9999,9999,9999,1478949956
22,14,17,Jits_Phase_5,116,9999,9999,9999,1479449704
22,14,17,Jits_Phase_5,117,9999,9999,9999,1479949380
22,14,17,Jits_Phase_5,118,9999,9999,9999,1480449144
22,14,17,Jits_Phase_5,119,9999,9999,9999,1480949876
22,14,17,Jits_Phase_5,120,9999,9999,9999,1481449560
22,14,17,Jits_Phase_5,121,9999,9999,9999,1481949308
22,14,17,Jits_Phase_5,122,9999,9999,9999,1482449988
22,14,17,Jits_Phase_5,123,9999,9999,9999,1482949748
22,14,17,Jits_Phase_5,124,9999,9999,9999,1483449420
22,14,17,Jits_Phase_5,125,9999,9999,9999,1483949156
22,14,17,Jits_Phase_5,126,9999,9999,9999,1484449876
22,14,17,Jits_Phase_5,127,9999,9999,9999,1484949616
22,14,17,Jits_Phase_5,128,9999,9999,9999,1485449276
22,14,17,Jits_Phase_5,129,9999,9999,9999,1485950032
22,14,17,Jits_Phase_5,130,9999,9999,9999,1486449792
22,14,17,Jits_Phase_5,131,9999,9999,9999,1487049840
22,14,17,Jits_Phase_5,132,9999,9999,9999,1487549512
22,14,17,Jits_Phase_5,133,9999,9999,9999,1488049264
22,14,17,Jits_Phase_5,134,9999,9999,9999,1488549968
22,14,17,Jits_Phase_5,135,9999,9999,9999,1489049708
22,14,17,Jits_Phase_5,136,9999,9999,9999,1489549384
22,14,17,Jits_Phase_5,137,9999,9999,9999,1490049132
22,14,17,Jits_Phase_5,138,9999,9999,9999,1490549844
22,14,17,Jits_Phase_5,139,9999,9999,9999,1491049540
22,14,17,Jits_Phase_5,140,9999,9999,9999,1491549288
22,14,17,Jits_Phase_5,141,9999,9999,9999,1492050044
22,14,17,Jits_Phase_5,142,9999,9999,9999,1492549732
22,14,17,Jits_Phase_5,143,9999,9999,9999,1493049424
22,14,17,Jits_Phase_5,144,9999,9999,9999,1493549168
22,14,17,Jits_Phase_5,145,9999,9999,9999,1494049908
22,14,17,Jits_Phase_5,146,9999,9999,9999,1494549592
22,14,17,Jits_Phase_5,147,9999,9999,9999,1495049344
22,14,17,Jits_Phase_5,148,9999,9999,9999,1495550080
22,14,17,Jits_Phase_5,149,9999,9999,9999,1496049768
22,14,17,Jits_Phase_5,150,9999,9999,9999,1496449148
22,14,17,Jits_Phase_5,151,9999,9999,9999,1496949824
22,14,17,Jits_Phase_5,152,9999,9999,9999,1497449592
22,14,17,Jits_Phase_5,153,9999,9999,9999,1497949264
22,14,17,Jits_Phase_5,154,9999,9999,9999,1498450008
22,14,17,Jits_Phase_5,155,9999,9999,9999,1498949748
22,14,17,Jits_Phase_5,156,9999,9999,9999,1499449412
22,14,17,Jits_Phase_5,157,9999,9999,9999,1499949156
22,14,17,Jits_Phase_5,158,9999,9999,9999,1500449900
22,14,17,Jits_Phase_5,159,9999,9999,9999,1500949576
22,14,17,Jits_Phase_5,160,9999,9999,9999,1501449344
22,14,17,Jits_Phase_5,161,9999,9999,9999,1501950012
22,14,17,Jits_Phase_5,162,9999,9999,9999,1502449756
22,14,17,Jits_Phase_5,163,9999,9999,9999,1502949432
22,14,17,Jits_Phase_5,164,9999,9999,9999,1503449180
22,14,17,Jits_Phase_5,165,9999,9999,9999,1503949928
22,14,17,Jits_Phase_5,166,9999,9999,9999,1504449600
22,14,17,Jits_Phase_5,167,9999,9999,9999,1504949348
22,14,17,Jits_Phase_5,168,9999,9999,9999,1505450096
22,14,17,Jits_Phase_5,169,9999,9999,9999,1505949824
22,15,18,Jits_Linear_8,0,5,56,103,1517268216
22,15,18,Jits_Linear_8,1,5,63,98,1517271152
22,15,18,Jits_Linear_8,2,5,80,127,1517274716
22,15,18,Jits_Linear_8,0,5,56,103,1518087584
22,15,18,Jits_Linear_8,1,5,63,98,1518090744
22,15,18,Jits_Linear_8,2,5,80,127,1518093696
22,15,18,Jits_Linear_8,0,5,80,127,1518848404
22,15,18,Jits_Linear_8,1,1,48,52,1518907920
22,15,18,Jits_Linear_8,2,5,63,98,1518937672
22,15,18,Jits_Linear_8,3,5,56,103,1518947764
22,15,18,Jits_Linear_8,0,1,48,48,1519686924
22,15,18,Jits_Linear_8,1,5,56,103,1519688760
22,15,18,Jits_Linear_8,2,5,63,98,1519698544
22,15,18,Jits_Linear_8,3,5,80,127,1519788588
22,15,18,Jits_Linear_8,0,5,63,98,1520477600
22,15,18,Jits_Linear_8,1,1,48,54,1520486448
22,15,18,Jits_Linear_8,2,5,80,127,1520508396
22,15,18,Jits_Linear_8,3,5,56,103,1520537900
22,15,18,Jits_Linear_8,0,5,56,103,1521297688
22,15,18,Jits_Linear_8,1,1,48,53,1521315608
22,15,18,Jits_Linear_8,2,5,80,127,1521398292
22,15,18,Jits_Linear_8,3,5,63,98,1521448264
22,15,18,Jits_Linear_8,0,5,56,103,1522107660
22,15,18,Jits_Linear_8,1,5,80,127,1522157952
22,15,18,Jits_Linear_8,2,1,48,52,1522159316
22,15,18,Jits_Linear_8,3,5,63,98,1522197920
22,15,18,Jits_Linear_8,0,5,80,127,1522947332
22,15,18,Jits_Linear_8,1,1,48,56,1522957324
22,15,18,Jits_Linear_8,2,5,63,98,1522978128
22,15,18,Jits_Linear_8,3,5,56,103,1523047684
22,15,18,Jits_Linear_8,0,5,63,98,1523788384
22,15,18,Jits_Linear_8,1,1,48,54,1523809384
22,15,18,Jits_Linear_8,2,5,56,103,1523817660
22,15,18,Jits_Linear_8,3,5,80,127,1523878292
22,15,18,Jits_Linear_8,0,5,56,103,1524537780
22,15,18,Jits_Linear_8,1,5,80,127,1524540752
22,15,18,Jits_Linear_8,2,1,48,53,1524643980
22,15,18,Jits_Linear_8,3,5,63,98,1524657636
22,15,18,Jits_Linear_8,0,1,48,57,1525384212
22,15,18,Jits_Linear_8,1,5,56,103,1525418280
22,15,18,Jits_Linear_8,2,5,80,127,1525458256
22,15,18,Jits_Linear_8,3,5,63,98,1525467508
22,15,18,Jits_Linear_8,0,5,56,103,1526178208
22,15,18,Jits_Linear_8,1,5,80,127,1526197652
22,15,18,Jits_Linear_8,2,1,48,54,1526210844
22,15,18,Jits_Linear_8,3,5,63,98,1526277440
22,15,18,Jits_Linear_8,0,5,80,127,1526967616
22,15,18,Jits_Linear_8,1,1,48,57,1526997100
22,15,18,Jits_Linear_8,2,5,56,103,1527068196
22,15,18,Jits_Linear_8,3,5,63,98,1527078364
22,15,18,Jits_Linear_8,0,5,63,98,1527737672
22,15,18,Jits_Linear_8,1,5,80,127,1527798056
22,15,18,Jits_Linear_8,2,5,56,103,1527808452
22,15,18,Jits_Linear_8,3,1,48,52,1527842352
22,15,18,Jits_Linear_8,0,1,48,51,1528528000
22,15,18,Jits_Linear_8,1,5,56,103,1528537348
22,15,18,Jits_Linear_8,2,5,63,98,1528608040
22,15,18,Jits_Linear_8,3,5,80,127,1528611624
22,15,18,Jits_Linear_8,0,1,48,51,1529313828
22,15,18,Jits_Linear_8,1,5,63,98,1529367824
22,15,18,Jits_Linear_8,2,5,56,103,1529418252
22,15,18,Jits_Linear_8,3,5,80,127,1529421224
22,15,18,Jits_Linear_8,0,5,56,103,1530117592
22,15,18,Jits_Linear_8,1,5,80,127,1530120492
22,15,18,Jits_Linear_8,2,1,48,45,1530152712
22,15,18,Jits_Linear_8,3,5,63,98,1530207544
22,15,18,Jits_Linear_8,0,1,48,47,1530911440
22,15,18,Jits_Linear_8,1,5,63,98,1530948080
22,15,18,Jits_Linear_8,2,5,56,103,1531038184
22,15,18,Jits_Linear_8,3,5,80,127,1531067940
22,15,18,Jits_Linear_8,0,1,48,54,1531717412
22,15,18,Jits_Linear_8,1,5,56,103,1531728132
22,15,18,Jits_Linear_8,2,5,63,98,1531827660
22,15,18,Jits_Linear_8,3,5,80,127,1531858236
22,15,18,Jits_Linear_8,0,1,48,50,1532513120
22,15,18,Jits_Linear_8,1,5,63,98,1532538148
22,15,18,Jits_Linear_8,2,5,56,103,1532547476
22,15,18,Jits_Linear_8,3,5,80,127,1532637596
22,15,18,Jits_Linear_8,0,1,48,48,1533310372
22,15,18,Jits_Linear_8,1,5,63,98,1533337912
22,15,18,Jits_Linear_8,2,5,56,103,1533417872
22,15,18,Jits_Linear_8,3,5,80,127,1533420920
22,15,18,Jits_Linear_8,0,5,80,127,1534078216
22,15,18,Jits_Linear_8,1,5,63,98,1534097788
22,15,18,Jits_Linear_8,2,1,48,53,1534127820
22,15,18,Jits_Linear_8,3,5,56,103,1534158108
22,15,18,Jits_Linear_8,0,1,48,54,1534856796
22,15,18,Jits_Linear_8,1,5,56,103,1534897580
22,15,18,Jits_Linear_8,2,5,63,98,1534917984
22,15,18,Jits_Linear_8,3,5,80,127,1534921412
22,15,18,Jits_Linear_8,0,5,63,98,1535618736
22,15,18,Jits_Linear_8,1,1,48,45,1535627356
22,15,18,Jits_Linear_8,2,5,80,127,1535698248
22,15,18,Jits_Linear_8,3,5,56,103,1535707576
22,15,18,Jits_Linear_8,0,5,63,98,1536418124
22,15,18,Jits_Linear_8,1,1,48,49,1536421556
22,15,18,Jits_Linear_8,2,5,56,103,1536437860
22,15,18,Jits_Linear_8,3,5,80,127,1536487700
22,15,18,Jits_Linear_8,0,5,80,127,1537197348
22,15,18,Jits_Linear_8,1,1,48,49,1537204112
22,15,18,Jits_Linear_8,2,5,63,98,1537238464
22,15,18,Jits_Linear_8,3,5,56,103,1537257804
22,15,18,Jits_Linear_8,0,5,56,103,1538008512
22,15,18,Jits_Linear_8,1,1,48,39,1538017228
22,15,18,Jits_Linear_8,2,5,63,98,1538018976
22,15,18,Jits_Linear_8,3,5,80,127,1538038092
22,15,18,Jits_Linear_8,0,5,56,103,1538707756
22,15,18,Jits_Linear_8,1,1,48,49,1538796432
22,15,18,Jits_Linear_8,2,5,63,98,1538798120
22,15,18,Jits_Linear_8,3,5,80,127,1538858276
22,15,18,Jits_Linear_8,0,1,48,50,1539485556
22,15,18,Jits_Linear_8,1,5,80,127,1539507784
22,15,18,Jits_Linear_8,2,5,56,103,1539517800
22,15,18,Jits_Linear_8,3,5,63,98,1539587644
22,15,18,Jits_Linear_8,0,1,48,47,1540291016
22,15,18,Jits_Linear_8,1,5,63,98,1540308540
22,15,18,Jits_Linear_8,2,5,80,127,1540397500
22,15,18,Jits_Linear_8,3,5,56,103,1540407592
22,15,18,Jits_Linear_8,0,5,63,98,1541007636
22,15,18,Jits_Linear_8,1,5,80,127,1541058028
22,15,18,Jits_Linear_8,2,5,56,103,1541118412
22,15,18,Jits_Linear_8,3,1,48,46,1541148956
22,15,18,Jits_Linear_8,0,5,56,103,1541798324
22,15,18,Jits_Linear_8,1,5,80,127,1541848620
22,15,18,Jits_Linear_8,2,1,48,48,1541853556
22,15,18,Jits_Linear_8,3,5,63,98,1541867800
22,15,18,Jits_Linear_8,0,5,56,103,1542528520
22,15,18,Jits_Linear_8,1,5,80,127,1542587784
22,15,18,Jits_Linear_8,2,1,48,43,1542589300
22,15,18,Jits_Linear_8,3,5,63,98,1542658548
22,15,18,Jits_Linear_8,0,5,56,103,1543288168
22,15,18,Jits_Linear_8,1,5,80,127,1543317828
22,15,18,Jits_Linear_8,2,5,63,98,1543347512
22,15,18,Jits_Linear_8,3,1,48,47,1543401820
22,15,18,Jits_Linear_8,0,5,56,103,1544087792
22,15,18,Jits_Linear_8,1,5,80,127,1544108604
22,15,18,Jits_Linear_8,2,1,48,46,1544133872
22,15,18,Jits_Linear_8,3,5,63,98,1544167760
22,15,18,Jits_Linear_8,0,1,48,49,1544879004
22,15,18,Jits_Linear_8,1,5,80,127,1544927568
22,15,18,Jits_Linear_8,2,5,56,103,1544937736
22,15,18,Jits_Linear_8,3,5,63,98,1544948208
22,15,18,Jits_Linear_8,0,5,56,103,1545638452
22,15,18,Jits_Linear_8,1,5,80,127,1545678428
22,15,18,Jits_Linear_8,2,1,48,40,1545701408
22,15,18,Jits_Linear_8,3,5,63,98,1545707852
22,15,18,Jits_Linear_8,0,5,56,103,1546358188
22,15,18,Jits_Linear_8,1,5,63,98,1546387772
22,15,18,Jits_Linear_8,2,5,80,127,1546427696
22,15,18,Jits_Linear_8,3,1,48,46,1546465028
22,15,18,Jits_Linear_8,0,5,80,127,1547057456
22,15,18,Jits_Linear_8,1,5,63,98,1547107676
22,15,18,Jits_Linear_8,2,5,56,103,1547128312
22,15,18,Jits_Linear_8,3,1,48,47,1547147324
22,15,18,Jits_Linear_8,0,5,56,103,1547837820
22,15,18,Jits_Linear_8,1,1,48,44,1547862168
22,15,18,Jits_Linear_8,2,5,80,127,1547907444
22,15,18,Jits_Linear_8,3,5,63,98,1547967760
22,15,18,Jits_Linear_8,0,5,80,127,1548578060
22,15,18,Jits_Linear_8,1,1,48,46,1548654000
22,15,18,Jits_Linear_8,2,5,63,98,1548668244
22,15,18,Jits_Linear_8,3,5,56,103,1548687660
22,15,18,Jits_Linear_8,0,5,63,98,1549338020
22,15,18,Jits_Linear_8,1,5,56,103,1549357516
22,15,18,Jits_Linear_8,2,5,80,127,1549398332
22,15,18,Jits_Linear_8,3,1,48,44,1549405496
22,15,18,Jits_Linear_8,0,5,80,127,1550038340
22,15,18,Jits_Linear_8,1,5,63,98,1550058060
22,15,18,Jits_Linear_8,2,1,48,40,1550114356
22,15,18,Jits_Linear_8,3,5,56,103,1550137620
22,15,18,Jits_Linear_8,0,5,63,98,1550767420
22,15,18,Jits_Linear_8,1,1,48,37,1550797356
22,15,18,Jits_Linear_8,2,5,56,103,1550878000
22,15,18,Jits_Linear_8,3,5,80,127,1550881056
22,15,18,Jits_Linear_8,0,5,63,98,1551528268
22,15,18,Jits_Linear_8,1,5,56,103,1551537436
22,15,18,Jits_Linear_8,2,5,80,127,1551540492
22,15,18,Jits_Linear_8,3,1,48,42,1551567912
22,15,18,Jits_Linear_8,0,5,56,103,1552248200
22,15,18,Jits_Linear_8,1,1,48,41,1552280120
22,15,18,Jits_Linear_8,2,5,80,127,1552367912
22,15,18,Jits_Linear_8,3,5,63,98,1552407948
22,15,18,Jits_Linear_8,0,5,56,103,1552997916
22,15,18,Jits_Linear_8,1,1,48,43,1553041760
22,15,18,Jits_Linear_8,2,5,80,127,1553077580
22,15,18,Jits_Linear_8,3,5,63,98,1553098068
22,15,18,Jits_Linear_8,0,5,56,103,1553727992
22,15,18,Jits_Linear_8,1,1,48,46,1553806472
22,15,18,Jits_Linear_8,2,5,63,98,1553837616
22,15,18,Jits_Linear_8,3,5,80,127,1553840968
22,15,18,Jits_Linear_8,0,5,56,103,1554487568
22,15,18,Jits_Linear_8,1,5,80,127,1554518296
22,15,18,Jits_Linear_8,2,5,63,98,1554538016
22,15,18,Jits_Linear_8,3,1,48,51,1554559008
22,15,18,Jits_Linear_8,0,5,63,98,1555198224
22,15,18,Jits_Linear_8,1,5,56,103,1555207476
22,15,18,Jits_Linear_8,2,5,80,127,1555217872
22,15,18,Jits_Linear_8,3,1,48,44,1555307340
22,15,18,Jits_Linear_8,0,5,80,127,1555907952
22,15,18,Jits_Linear_8,1,5,56,103,1555958168
22,15,18,Jits_Linear_8,2,1,48,42,1555987648
22,15,18,Jits_Linear_8,3,5,63,98,1555998136
22,15,18,Jits_Linear_8,0,5,80,127,1556648340
22,15,18,Jits_Linear_8,1,5,63,98,1556667912
22,15,18,Jits_Linear_8,2,5,56,103,1556718128
22,15,18,Jits_Linear_8,3,1,48,41,1556723520
22,15,18,Jits_Linear_8,0,5,80,127,1557378384
22,15,18,Jits_Linear_8,1,5,56,103,1557408048
22,15,18,Jits_Linear_8,2,1,48,40,1557434784
22,15,18,Jits_Linear_8,3,5,63,98,1557477696
22,15,18,Jits_Linear_8,0,5,56,103,1558147368
22,15,18,Jits_Linear_8,1,5,80,127,1558157764
22,15,18,Jits_Linear_8,2,1,48,43,1558161172
22,15,18,Jits_Linear_8,3,5,63,98,1558197680
22,15,18,Jits_Linear_8,0,5,56,103,1558787556
22,15,18,Jits_Linear_8,1,5,63,98,1558807968
22,15,18,Jits_Linear_8,2,5,80,127,1558877824
22,15,18,Jits_Linear_8,3,1,48,48,1558919376
22,15,18,Jits_Linear_8,0,5,63,98,1559527792
22,15,18,Jits_Linear_8,1,1,48,49,1559574072
22,15,18,Jits_Linear_8,2,5,80,127,1559588244
22,15,18,Jits_Linear_8,3,5,56,103,1559607736
22,15,18,Jits_Linear_8,0,5,80,127,1560228196
22,15,18,Jits_Linear_8,1,1,48,47,1560254532
22,15,18,Jits_Linear_8,2,5,56,103,1560257848
22,15,18,Jits_Linear_8,3,5,63,98,1560287732
22,15,18,Jits_Linear_8,0,5,56,103,1560937756
22,15,18,Jits_Linear_8,1,1,48,45,1560966700
22,15,18,Jits_Linear_8,2,5,63,98,1560998308
22,15,18,Jits_Linear_8,3,5,80,127,1561058828
22,15,18,Jits_Linear_8,0,5,80,127,1561668060
22,15,18,Jits_Linear_8,1,5,56,103,1561688548
22,15,18,Jits_Linear_8,2,1,48,45,1561706868
22,15,18,Jits_Linear_8,3,5,63,98,1561758172
22,15,18,Jits_Linear_8,0,5,80,127,1562377728
22,15,18,Jits_Linear_8,1,5,63,98,1562398212
22,15,18,Jits_Linear_8,2,5,56,103,1562427872
22,15,18,Jits_Linear_8,3,1,48,47,1562456432
22,15,18,Jits_Linear_8,0,5,80,127,1563067748
22,15,18,Jits_Linear_8,1,5,63,98,1563088236
22,15,18,Jits_Linear_8,2,1,48,40,1563110600
22,15,18,Jits_Linear_8,3,5,56,103,1563147616
22,15,18,Jits_Linear_8,0,5,80,127,1563768364
22,15,18,Jits_Linear_8,1,1,48,39,1563776900
22,15,18,Jits_Linear_8,2,5,56,103,1563867520
22,15,18,Jits_Linear_8,3,5,63,98,1563898228
22,15,18,Jits_Linear_8,0,5,63,98,1564458392
22,15,18,Jits_Linear_8,1,5,80,127,1564507616
22,15,18,Jits_Linear_8,2,5,56,103,1564527948
22,15,18,Jits_Linear_8,3,1,48,42,1564542132
22,15,18,Jits_Linear_8,0,1,48,44,1565122676
22,15,18,Jits_Linear_8,1,5,80,127,1565197612
22,15,18,Jits_Linear_8,2,5,56,103,1565228316
22,15,18,Jits_Linear_8,3,5,63,98,1565231448
22,15,18,Jits_Linear_8,0,1,48,53,1565815776
22,15,18,Jits_Linear_8,1,5,63,98,1565927800
22,15,18,Jits_Linear_8,2,5,56,103,1565967624
22,15,18,Jits_Linear_8,3,5,80,127,1565988488
22,15,18,Jits_Linear_8,0,1,48,47,1566515824
22,15,18,Jits_Linear_8,1,5,80,127,1566567744
22,15,18,Jits_Linear_8,2,5,63,98,1566647628
22,15,18,Jits_Linear_8,3,5,56,103,1566687524
22,15,18,Jits_Linear_8,0,1,48,45,1567269880
22,15,18,Jits_Linear_8,1,5,63,98,1567277476
22,15,18,Jits_Linear_8,2,5,80,127,1567358344
22,15,18,Jits_Linear_8,3,5,56,103,1567377820
22,15,18,Jits_Linear_8,0,1,48,44,1567992756
22,15,18,Jits_Linear_8,1,5,56,103,1568007540
22,15,18,Jits_Linear_8,2,5,63,98,1568017708
22,15,18,Jits_Linear_8,3,5,80,127,1568057684
22,15,18,Jits_Linear_8,0,5,56,103,1568617812
22,15,18,Jits_Linear_8,1,5,80,127,1568620784
22,15,18,Jits_Linear_8,2,1,48,43,1568718160
22,15,18,Jits_Linear_8,3,5,63,98,1568758380
22,15,18,Jits_Linear_8,0,5,56,103,1569297812
22,15,18,Jits_Linear_8,1,5,63,98,1569388308
22,15,18,Jits_Linear_8,2,1,48,49,1569407092
22,15,18,Jits_Linear_8,3,5,80,127,1569457424
22,15,18,Jits_Linear_8,0,5,63,98,1570057696
22,15,18,Jits_Linear_8,1,5,80,127,1570061124
22,15,18,Jits_Linear_8,2,1,48,48,1570077160
22,15,18,Jits_Linear_8,3,5,56,103,1570118064
22,15,18,Jits_Linear_8,0,5,80,127,1570777364
22,15,18,Jits_Linear_8,1,1,48,44,1570788340
22,15,18,Jits_Linear_8,2,5,56,103,1570797992
22,15,18,Jits_Linear_8,3,5,63,98,1570808236
22,15,18,Jits_Linear_8,0,5,56,103,1571368384
22,15,18,Jits_Linear_8,1,5,63,98,1571377636
22,15,18,Jits_Linear_8,2,5,80,127,1571448108
22,15,18,Jits_Linear_8,3,1,48,41,1571502212
22,15,18,Jits_Linear_8,0,5,80,127,1572048240
22,15,18,Jits_Linear_8,1,5,56,103,1572098384
22,15,18,Jits_Linear_8,2,1,48,41,1572145988
22,15,18,Jits_Linear_8,3,5,63,98,1572147676
22,15,18,Jits_Linear_8,0,1,48,43,1572773688
22,15,18,Jits_Linear_8,1,5,56,103,1572808120
22,15,18,Jits_Linear_8,2,5,63,98,1572818364
22,15,18,Jits_Linear_8,3,5,80,127,1572858336
22,15,18,Jits_Linear_8,0,5,56,103,1573427500
22,15,18,Jits_Linear_8,1,5,63,98,1573467400
22,15,18,Jits_Linear_8,2,1,48,46,1573480820
22,15,18,Jits_Linear_8,3,5,80,127,1573517836
22,15,18,Jits_Linear_8,0,5,80,127,1574058352
22,15,18,Jits_Linear_8,1,5,56,103,1574107580
22,15,18,Jits_Linear_8,2,1,48,44,1574110228
22,15,18,Jits_Linear_8,3,5,63,98,1574128208
22,15,18,Jits_Linear_8,0,5,80,127,1574738260
22,15,18,Jits_Linear_8,1,1,48,45,1574750464
22,15,18,Jits_Linear_8,2,5,63,98,1574798100
22,15,18,Jits_Linear_8,3,5,56,103,1574877524
22,15,18,Jits_Linear_8,0,5,80,127,1575387468
22,15,18,Jits_Linear_8,1,5,56,103,1575427372
22,15,18,Jits_Linear_8,2,5,63,98,1575448160
22,15,18,Jits_Linear_8,3,1,48,45,1575561924
22,15,18,Jits_Linear_8,0,1,48,43,1576112460
22,15,18,Jits_Linear_8,1,5,56,103,1576117760
22,15,18,Jits_Linear_8,2,5,80,127,1576127928
22,15,18,Jits_Linear_8,3,5,63,98,1576167828
22,15,18,Jits_Linear_8,0,1,48,42,1576786328
22,15,18,Jits_Linear_8,1,5,56,103,1576847800
22,15,18,Jits_Linear_8,2,5,63,98,1576887704
22,15,18,Jits_Linear_8,3,5,80,127,1576890984
22,15,18,Jits_Linear_8,0,5,63,98,1577397560
22,15,18,Jits_Linear_8,1,5,80,127,1577437460
22,15,18,Jits_Linear_8,2,5,56,103,1577508236
22,15,18,Jits_Linear_8,3,1,48,38,1577547036
22,15,18,Jits_Linear_8,0,5,63,98,1578047868
22,15,18,Jits_Linear_8,1,5,56,103,1578127820
22,15,18,Jits_Linear_8,2,1,48,41,1578131840
22,15,18,Jits_Linear_8,3,5,80,127,1578188216
22,15,18,Jits_Linear_8,0,1,48,46,1578692132
22,15,18,Jits_Linear_8,1,5,80,127,1578717540
22,15,18,Jits_Linear_8,2,5,63,98,1578767756
22,15,18,Jits_Linear_8,3,5,56,103,1578797324
22,15,18,Jits_Linear_8,0,5,56,103,1579367856
22,15,18,Jits_Linear_8,1,5,63,98,1579418076
22,15,18,Jits_Linear_8,2,1,48,47,1579425628
22,15,18,Jits_Linear_8,3,5,80,127,1579428184
22,15,18,Jits_Linear_8,0,5,56,103,1580037624
22,15,18,Jits_Linear_8,1,1,48,47,1580072292
22,15,18,Jits_Linear_8,2,5,63,98,1580147912
22,15,18,Jits_Linear_8,3,5,80,127,1580167784
22,15,18,Jits_Linear_8,0,5,63,98,1580697892
22,15,18,Jits_Linear_8,1,1,48,39,1580736876
22,15,18,Jits_Linear_8,2,5,80,127,1580748128
22,15,18,Jits_Linear_8,3,5,56,103,1580838148
22,15,18,Jits_Linear_8,0,5,63,98,1581337988
22,15,18,Jits_Linear_8,1,5,80,127,1581367800
22,15,18,Jits_Linear_8,2,1,48,47,1581424932
22,15,18,Jits_Linear_8,3,5,56,103,1581457752
22,15,18,Jits_Linear_8,0,5,63,98,1581988400
22,15,18,Jits_Linear_8,1,5,56,103,1581997348
22,15,18,Jits_Linear_8,2,1,48,47,1582039660
22,15,18,Jits_Linear_8,3,5,80,127,1582097692
22,15,18,Jits_Linear_8,0,1,48,46,1582683392
22,15,18,Jits_Linear_8,1,5,63,98,1582737692
22,15,18,Jits_Linear_8,2,5,80,127,1582767452
22,15,18,Jits_Linear_8,3,5,56,103,1582798164
22,15,18,Jits_Linear_8,0,5,80,127,1583398292
22,15,18,Jits_Linear_8,1,5,63,98,1583407624
22,15,18,Jits_Linear_8,2,5,56,103,1583438348
22,15,18,Jits_Linear_8,3,1,48,43,1583469272
22,15,18,Jits_Linear_8,0,5,80,127,1583937880
22,15,18,Jits_Linear_8,1,5,63,98,1583958444
22,15,18,Jits_Linear_8,2,5,56,103,1584007664
22,15,18,Jits_Linear_8,3,1,48,42,1584167396
22,15,18,Jits_Linear_8,0,5,63,98,1584607496
22,15,18,Jits_Linear_8,1,5,80,127,1584667956
22,15,18,Jits_Linear_8,2,1,48,38,1584679012
22,15,18,Jits_Linear_8,3,5,56,103,1584687516
22,15,18,Jits_Linear_8,0,5,63,98,1585207748
22,15,18,Jits_Linear_8,1,5,56,103,1585257816
22,15,18,Jits_Linear_8,2,5,80,127,1585267984
22,15,18,Jits_Linear_8,3,1,48,45,1585312352
22,15,18,Jits_Linear_8,0,5,56,103,1585878620
22,15,18,Jits_Linear_8,1,5,80,127,1585887644
22,15,18,Jits_Linear_8,2,1,48,42,1585923604
22,15,18,Jits_Linear_8,3,5,63,98,1585987912
22,15,18,Jits_Linear_8,0,5,80,127,1586477664
22,15,18,Jits_Linear_8,1,5,63,98,1586487680
22,15,18,Jits_Linear_8,2,1,48,40,1586553752
22,15,18,Jits_Linear_8,3,5,56,103,1586638264
22,15,18,Jits_Linear_8,0,5,63,98,1587117548
22,15,18,Jits_Linear_8,1,5,80,127,1587158592
22,15,18,Jits_Linear_8,2,1,48,44,1587206420
22,15,18,Jits_Linear_8,3,5,56,103,1587238532
22,15,18,Jits_Linear_8,0,5,56,103,1587737904
22,15,18,Jits_Linear_8,1,5,80,127,1587838568
22,15,18,Jits_Linear_8,2,5,63,98,1587857756
22,15,18,Jits_Linear_8,3,1,48,41,1587877248
22,15,18,Jits_Linear_8,0,5,80,127,1588428608
22,15,18,Jits_Linear_8,1,5,56,103,1588438776
22,15,18,Jits_Linear_8,2,1,48,42,1588457940
22,15,18,Jits_Linear_8,3,5,63,98,1588527432
22,15,18,Jits_Linear_8,0,5,56,103,1589058004
22,15,18,Jits_Linear_8,1,5,63,98,1589078568
22,15,18,Jits_Linear_8,2,1,48,43,1589132188
22,15,18,Jits_Linear_8,3,5,80,127,1589158228
22,15,18,Jits_Linear_8,0,5,63,98,1589628388
22,15,18,Jits_Linear_8,1,5,56,103,1589718528
22,15,18,Jits_Linear_8,2,5,80,127,1589721500
22,15,18,Jits_Linear_8,3,1,48,45,1589725692
22,15,18,Jits_Linear_8,0,5,56,103,1590277428
22,15,18,Jits_Linear_8,1,5,80,127,1590337888
22,15,18,Jits_Linear_8,2,5,63,98,1590348436
22,15,18,Jits_Linear_8,3,1,48,41,1590364300
22,15,18,Jits_Linear_8,0,5,80,127,1590948572
22,15,18,Jits_Linear_8,1,1,48,49,1590950832
22,15,18,Jits_Linear_8,2,5,56,103,1590957352
22,15,18,Jits_Linear_8,3,5,63,98,1590960484
22,15,18,Jits_Linear_8,0,5,56,103,1591527812
22,15,18,Jits_Linear_8,1,5,80,127,1591538360
22,15,18,Jits_Linear_8,2,5,63,98,1591557400
22,15,18,Jits_Linear_8,3,1,48,48,1591595208
22,15,18,Jits_Linear_8,0,5,63,98,1592117680
22,15,18,Jits_Linear_8,1,1,48,43,1592149904
22,15,18,Jits_Linear_8,2,5,80,127,1592178284
22,15,18,Jits_Linear_8,3,5,56,103,1592228376
22,15,18,Jits_Linear_8,0,5,63,98,1592818396
22,15,18,Jits_Linear_8,1,5,56,103,1592828336
22,15,18,Jits_Linear_8,2,1,48,40,1592837560
22,15,18,Jits_Linear_8,3,5,80,127,1592877324
22,15,18,Jits_Linear_8,0,5,63,98,1593328232
22,15,18,Jits_Linear_8,1,5,80,127,1593347272
22,15,18,Jits_Linear_8,2,5,56,103,1593357592
22,15,18,Jits_Linear_8,3,1,48,43,1593516252
22,15,18,Jits_Linear_8,0,5,63,98,1593938176
22,15,18,Jits_Linear_8,1,5,80,127,1593941460
22,15,18,Jits_Linear_8,2,5,56,103,1593978232
22,15,18,Jits_Linear_8,3,1,48,47,1594004868
22,15,18,Jits_Linear_8,0,1,48,47,1594617092
22,15,18,Jits_Linear_8,1,5,63,98,1594618844
22,15,18,Jits_Linear_8,2,5,80,127,1594648048
22,15,18,Jits_Linear_8,3,5,56,103,1594658292
22,15,18,Jits_Linear_8,0,5,56,103,1595178444
22,15,18,Jits_Linear_8,1,5,80,127,1595208104
22,15,18,Jits_Linear_8,2,5,63,98,1595237916
22,15,18,Jits_Linear_8,3,1,48,38,1595305844
22,15,18,Jits_Linear_8,0,1,48,39,1595856828
22,15,18,Jits_Linear_8,1,5,63,98,1595877944
22,15,18,Jits_Linear_8,2,5,56,103,1595917920
22,15,18,Jits_Linear_8,3,5,80,127,1595920740
22,15,18,Jits_Linear_8,0,5,80,127,1596377540
22,15,18,Jits_Linear_8,1,5,56,103,1596458256
22,15,18,Jits_Linear_8,2,1,48,39,1596487124
22,15,18,Jits_Linear_8,3,5,63,98,1596507548
22,15,18,Jits_Linear_8,0,5,80,127,1596958168
22,15,18,Jits_Linear_8,1,5,56,103,1596977508
22,15,18,Jits_Linear_8,2,5,63,98,1597067772
22,15,18,Jits_Linear_8,3,1,48,38,1597112704
22,15,18,Jits_Linear_8,0,5,80,127,1597598172
22,15,18,Jits_Linear_8,1,1,48,38,1597624812
22,15,18,Jits_Linear_8,2,5,63,98,1597638144
22,15,18,Jits_Linear_8,3,5,56,103,1597678116
22,15,18,Jits_Linear_8,0,5,63,98,1598168324
22,15,18,Jits_Linear_8,1,5,80,127,1598228024
22,15,18,Jits_Linear_8,2,1,48,39,1598243964
22,15,18,Jits_Linear_8,3,5,56,103,1598257596
22,15,18,Jits_Linear_8,0,5,56,103,1598767432
22,15,18,Jits_Linear_8,1,5,80,127,1598798160
22,15,18,Jits_Linear_8,2,1,48,39,1598821972
22,15,18,Jits_Linear_8,3,5,63,98,1598888288
22,15,18,Jits_Linear_8,0,5,56,103,1599367540
22,15,18,Jits_Linear_8,1,1,48,41,1599388076
22,15,18,Jits_Linear_8,2,5,80,127,1599478080
22,15,18,Jits_Linear_8,3,5,63,98,1599508028
22,15,18,Jits_Linear_8,0,5,56,103,1600007660
22,15,18,Jits_Linear_8,1,1,48,32,1600016964
22,15,18,Jits_Linear_8,2,5,63,98,1600068036
22,15,18,Jits_Linear_8,3,5,80,127,1600097924
22,15,18,Jits_Linear_8,0,5,56,103,1600567728
22,15,18,Jits_Linear_8,1,5,63,98,1600638432
22,15,18,Jits_Linear_8,2,1,48,33,1600648572
22,15,18,Jits_Linear_8,3,5,80,127,1600657840
22,15,18,Jits_Linear_8,0,5,80,127,1601127868
22,15,18,Jits_Linear_8,1,5,63,98,1601148204
22,15,18,Jits_Linear_8,2,5,56,103,1601197376
22,15,18,Jits_Linear_8,3,1,48,32,1601215924
22,15,18,Jits_Linear_8,0,5,63,98,1601738020
22,15,18,Jits_Linear_8,1,5,80,127,1601748264
22,15,18,Jits_Linear_8,2,1,48,36,1601760540
22,15,18,Jits_Linear_8,3,5,56,103,1601797404
22,15,18,Jits_Linear_8,0,5,63,98,1602318012
22,15,18,Jits_Linear_8,1,1,48,32,1602338772
22,15,18,Jits_Linear_8,2,5,80,127,1602388248
22,15,18,Jits_Linear_8,3,5,56,103,1602407968
22,15,18,Jits_Linear_8,0,1,48,38,1602926728
22,15,18,Jits_Linear_8,1,5,63,98,1602928580
22,15,18,Jits_Linear_8,2,5,80,127,1602931692
22,15,18,Jits_Linear_8,3,5,56,103,1602997764
22,15,18,Jits_Linear_8,0,5,80,127,1603458504
22,15,18,Jits_Linear_8,1,5,56,103,1603477772
22,15,18,Jits_Linear_8,2,5,63,98,1603488120
22,15,18,Jits_Linear_8,3,1,48,43,1603564204
22,15,18,Jits_Linear_8,0,5,56,103,1604057648
22,15,18,Jits_Linear_8,1,1,48,35,1604119148
22,15,18,Jits_Linear_8,2,5,63,98,1604147912
22,15,18,Jits_Linear_8,3,5,80,127,1604151108
22,15,18,Jits_Linear_8,0,5,80,127,1604608452
22,15,18,Jits_Linear_8,1,5,56,103,1604617628
22,15,18,Jits_Linear_8,2,5,63,98,1604638112
22,15,18,Jits_Linear_8,3,1,48,40,1604645340
22,15,18,Jits_Linear_8,0,5,63,98,1605177752
22,15,18,Jits_Linear_8,1,1,48,39,1605193536
22,15,18,Jits_Linear_8,2,5,80,127,1605238208
22,15,18,Jits_Linear_8,3,5,56,103,1605248828
22,15,18,Jits_Linear_8,0,1,48,36,1605794652
22,15,18,Jits_Linear_8,1,5,63,98,1605817768
22,15,18,Jits_Linear_8,2,5,80,127,1605848648
22,15,18,Jits_Linear_8,3,5,56,103,1605888608
22,15,18,Jits_Linear_8,0,5,56,103,1606377904
22,15,18,Jits_Linear_8,1,5,80,127,1606387996
22,15,18,Jits_Linear_8,2,1,48,37,1606409600
22,15,18,Jits_Linear_8,3,5,63,98,1606428040
22,15,18,Jits_Linear_8,0,5,80,127,1606908312
22,15,18,Jits_Linear_8,1,5,56,103,1606988264
22,15,18,Jits_Linear_8,2,5,63,98,1606998356
22,15,18,Jits_Linear_8,3,1,48,36,1607010404
22,15,18,Jits_Linear_8,0,5,80,127,1607517452
22,15,18,Jits_Linear_8,1,1,48,35,1607584928
22,15,18,Jits_Linear_8,2,5,56,103,1607597720
22,15,18,Jits_Linear_8,3,5,63,98,1607607740
22,15,18,Jits_Linear_8,0,5,80,127,1608037700
22,15,18,Jits_Linear_8,1,5,56,103,1608087916
22,15,18,Jits_Linear_8,2,5,63,98,1608138004
22,15,18,Jits_Linear_8,3,1,48,37,1608183368
22,15,18,Jits_Linear_8,0,5,56,103,1608658472
22,15,18,Jits_Linear_8,1,5,63,98,1608661444
22,15,18,Jits_Linear_8,2,5,80,127,1608707540
22,15,18,Jits_Linear_8,3,1,48,33,1608710496
22,15,18,Jits_Linear_8,0,5,56,103,1609237952
22,15,18,Jits_Linear_8,1,1,48,33,1609259328
22,15,18,Jits_Linear_8,2,5,63,98,1609267680
22,15,18,Jits_Linear_8,3,5,80,127,1609278000
22,15,18,Jits_Linear_8,0,5,63,98,1609708056
22,15,18,Jits_Linear_8,1,5,56,103,1609777616
22,15,18,Jits_Linear_8,2,1,48,35,1609827528
22,15,18,Jits_Linear_8,3,5,80,127,1609829432
22,15,18,Jits_Linear_8,0,5,63,98,1610297620
22,15,18,Jits_Linear_8,1,5,56,103,1610308012
22,15,18,Jits_Linear_8,2,5,80,127,1610310908
22,15,18,Jits_Linear_8,3,1,48,34,1610342288
22,15,18,Jits_Linear_8,0,5,80,127,1610797652
22,15,18,Jits_Linear_8,1,5,56,103,1610857732
22,15,18,Jits_Linear_8,2,1,48,36,1610877728
22,15,18,Jits_Linear_8,3,5,63,98,1610947860
22,15,18,Jits_Linear_8,0,5,80,127,1611348312
22,15,18,Jits_Linear_8,1,5,56,103,1611447780
22,15,18,Jits_Linear_8,2,5,63,98,1611487604
22,15,18,Jits_Linear_8,3,1,48,34,1611508288
22,15,18,Jits_Linear_8,0,5,56,103,1611948308
22,15,18,Jits_Linear_8,1,5,63,98,1611967804
22,15,18,Jits_Linear_8,2,5,80,127,1612007776
22,15,18,Jits_Linear_8,3,1,48,32,1612054896
22,15,18,Jits_Linear_8,0,5,63,98,1612467484
22,15,18,Jits_Linear_8,1,5,56,103,1612488272
22,15,18,Jits_Linear_8,2,1,48,32,1612509724
22,15,18,Jits_Linear_8,3,5,80,127,1612588312
22,15,18,Jits_Linear_8,0,5,63,98,1613008268
22,15,18,Jits_Linear_8,1,1,48,33,1613073124
22,15,18,Jits_Linear_8,2,5,80,127,1613117868
22,15,18,Jits_Linear_8,3,5,56,103,1613147528
22,15,18,Jits_Linear_8,0,5,56,103,1613568320
22,15,18,Jits_Linear_8,1,5,63,98,1613597980
22,15,18,Jits_Linear_8,2,5,80,127,1613648348
22,15,18,Jits_Linear_8,3,1,48,38,1613650912
22,15,18,Jits_Linear_8,0,5,63,98,1614078540
22,15,18,Jits_Linear_8,1,5,56,103,1614108352
22,15,18,Jits_Linear_8,2,1,48,29,1614158036
22,15,18,Jits_Linear_8,3,5,80,127,1614159704
22,15,18,Jits_Linear_8,0,5,56,103,1614647612
22,15,18,Jits_Linear_8,1,1,48,36,1614662556
22,15,18,Jits_Linear_8,2,5,63,98,1614668392
22,15,18,Jits_Linear_8,3,5,80,127,1614748264
22,15,18,Jits_Linear_8,0,5,63,98,1615157764
22,15,18,Jits_Linear_8,1,5,56,103,1615218224
22,15,18,Jits_Linear_8,2,1,48,37,1615223460
22,15,18,Jits_Linear_8,3,5,80,127,1615247644
22,15,18,Jits_Linear_8,0,5,56,103,1615738216
22,15,18,Jits_Linear_8,1,1,48,37,1615754156
22,15,18,Jits_Linear_8,2,5,80,127,1615797552
22,15,18,Jits_Linear_8,3,5,63,98,1615837604
22,15,18,Jits_Linear_8,0,5,63,98,1616248452
22,15,18,Jits_Linear_8,1,1,48,46,1616291940
22,15,18,Jits_Linear_8,2,5,56,103,1616307632
22,15,18,Jits_Linear_8,3,5,80,127,1616378180
22,15,18,Jits_Linear_8,0,1,48,45,1616845184
22,15,18,Jits_Linear_8,1,5,56,103,1616857368
22,15,18,Jits_Linear_8,2,5,63,98,1616867604
22,15,18,Jits_Linear_8,3,5,80,127,1616871268
22,15,18,Jits_Linear_8,0,5,63,98,1617327384
22,15,18,Jits_Linear_8,1,5,56,103,1617387992
22,15,18,Jits_Linear_8,2,5,80,127,1617391040
22,15,18,Jits_Linear_8,3,1,48,45,1617395440
22,15,18,Jits_Linear_8,0,5,63,98,1617837360
22,15,18,Jits_Linear_8,1,5,80,127,1617868164
22,15,18,Jits_Linear_8,2,5,56,103,1617887580
22,15,18,Jits_Linear_8,3,1,48,46,1617934852
22,15,18,Jits_Linear_8,0,5,56,103,1618367980
22,15,18,Jits_Linear_8,1,5,63,98,1618418124
22,15,18,Jits_Linear_8,2,1,48,40,1618450196
22,15,18,Jits_Linear_8,3,5,80,127,1618498140
22,15,18,Jits_Linear_8,0,5,80,127,1618867668
22,15,18,Jits_Linear_8,1,5,63,98,1618907416
22,15,18,Jits_Linear_8,2,1,48,42,1618918548
22,15,18,Jits_Linear_8,3,5,56,103,1618928124
22,15,18,Jits_Linear_8,0,1,48,39,1619432892
22,15,18,Jits_Linear_8,1,5,56,103,1619458448
22,15,18,Jits_Linear_8,2,5,80,127,1619467552
22,15,18,Jits_Linear_8,3,5,63,98,1619488188
22,15,18,Jits_Linear_8,0,5,56,103,1619958204
22,15,18,Jits_Linear_8,1,1,48,48,1619966040
22,15,18,Jits_Linear_8,2,5,63,98,1620008492
22,15,18,Jits_Linear_8,3,5,80,127,1620038224
22,15,18,Jits_Linear_8,0,5,56,103,1620428236
22,15,18,Jits_Linear_8,1,5,63,98,1620438404
22,15,18,Jits_Linear_8,2,5,80,127,1620487704
22,15,18,Jits_Linear_8,3,1,48,49,1620497152
22,15,18,Jits_Linear_8,0,5,56,103,1620937992
22,15,18,Jits_Linear_8,1,5,80,127,1620941048
22,15,18,Jits_Linear_8,2,1,48,37,1621012712
22,15,18,Jits_Linear_8,3,5,63,98,1621097880
22,15,18,Jits_Linear_8,0,5,63,98,1621467560
22,15,18,Jits_Linear_8,1,1,48,41,1621519048
22,15,18,Jits_Linear_8,2,5,56,103,1621538256
22,15,18,Jits_Linear_8,3,5,80,127,1621578152
22,15,18,Jits_Linear_8,0,1,48,44,1621995796
22,15,18,Jits_Linear_8,1,5,63,98,1622018432
22,15,18,Jits_Linear_8,2,5,56,103,1622107536
22,15,18,Jits_Linear_8,3,5,80,127,1622110512
22,15,18,Jits_Linear_8,0,1,48,45,1622473744
22,15,18,Jits_Linear_8,1,5,56,103,1622507936
22,15,18,Jits_Linear_8,2,5,63,98,1622598036
22,15,18,Jits_Linear_8,3,5,80,127,1622608204
22,15,18,Jits_Linear_8,0,5,56,103,1622988052
22,15,18,Jits_Linear_8,1,5,63,98,1623038344
22,15,18,Jits_Linear_8,2,1,48,46,1623055904
22,15,18,Jits_Linear_8,3,5,80,127,1623067996
22,15,18,Jits_Linear_8,0,1,48,40,1623562984
22,15,18,Jits_Linear_8,1,5,63,98,1623568056
22,15,18,Jits_Linear_8,2,5,80,127,1623578000
22,15,18,Jits_Linear_8,3,5,56,103,1623638304
22,15,18,Jits_Linear_8,0,5,63,98,1623987564
22,15,18,Jits_Linear_8,1,5,80,127,1624048024
22,15,18,Jits_Linear_8,2,5,56,103,1624087996
22,15,18,Jits_Linear_8,3,1,48,42,1624102560
22,15,18,Jits_Linear_8,0,1,48,43,1624483216
22,15,18,Jits_Linear_8,1,5,56,103,1624587716
22,15,18,Jits_Linear_8,2,5,80,127,1624608052
22,15,18,Jits_Linear_8,3,5,63,98,1624627468
22,15,18,Jits_Linear_8,0,5,63,98,1625007620
22,15,18,Jits_Linear_8,1,1,48,39,1625008528
22,15,18,Jits_Linear_8,2,5,56,103,1625027868
22,15,18,Jits_Linear_8,3,5,80,127,1625067920
22,15,18,Jits_Linear_8,0,1,48,37,1625515752
22,15,18,Jits_Linear_8,1,5,63,98,1625517444
22,15,18,Jits_Linear_8,2,5,80,127,1625548096
22,15,18,Jits_Linear_8,3,5,56,103,1625567740
22,15,18,Jits_Linear_8,0,1,48,42,1625920904
22,15,18,Jits_Linear_8,1,5,80,127,1625987352
22,15,18,Jits_Linear_8,2,5,56,103,1626037884
22,15,18,Jits_Linear_8,3,5,63,98,1626098112
22,15,18,Jits_Linear_8,0,5,63,98,1626467616
22,15,18,Jits_Linear_8,1,1,48,38,1626525360
22,15,18,Jits_Linear_8,2,5,56,103,1626587608
22,15,18,Jits_Linear_8,3,5,80,127,1626618184
22,15,18,Jits_Linear_8,0,1,48,28,1626859764
22,15,18,Jits_Linear_8,1,5,80,127,1626998040
22,15,18,Jits_Linear_8,2,5,63,98,1627017840
22,15,18,Jits_Linear_8,3,5,56,103,1627088260
22,15,18,Jits_Linear_8,0,5,63,98,1627508056
22,15,18,Jits_Linear_8,1,5,56,103,1627518224
22,15,18,Jits_Linear_8,2,5,80,127,1627598196
22,15,18,Jits_Linear_8,3,1,48,40,1627599948
22,15,18,Jits_Linear_8,0,1,48,34,1627989888
22,15,18,Jits_Linear_8,1,5,56,103,1628057868
22,15,18,Jits_Linear_8,2,5,80,127,1628087688
22,15,18,Jits_Linear_8,3,5,63,98,1628097856
22,15,18,Jits_Linear_8,0,9999,9999,9999,1517675644
22,15,18,Jits_Linear_8,1,9999,9999,9999,1518495848
22,15,18,Jits_Linear_8,2,9999,9999,9999,1519316060
22,15,18,Jits_Linear_8,3,9999,9999,9999,1520135252
22,15,18,Jits_Linear_8,4,9999,9999,9999,1520955492
22,15,18,Jits_Linear_8,5,9999,9999,9999,1521765500
22,15,18,Jits_Linear_8,6,9999,9999,9999,1522575440
22,15,18,Jits_Linear_8,7,9999,9999,9999,1523385408
22,15,18,Jits_Linear_8,8,9999,9999,9999,1524195432
22,15,18,Jits_Linear_8,9,9999,9999,9999,1525005424
22,15,18,Jits_Linear_8,10,9999,9999,9999,1525805132
22,15,18,Jits_Linear_8,11,9999,9999,9999,1526605888
22,15,18,Jits_Linear_8,12,9999,9999,9999,1527405672
22,15,18,Jits_Linear_8,13,9999,9999,9999,1528205372
22,15,18,Jits_Linear_8,14,9999,9999,9999,1529005148
22,15,18,Jits_Linear_8,15,9999,9999,9999,1529795656
22,15,18,Jits_Linear_8,16,9999,9999,9999,1530585160
22,15,18,Jits_Linear_8,17,9999,9999,9999,1531375700
22,15,18,Jits_Linear_8,18,9999,9999,9999,1532165228
22,15,18,Jits_Linear_8,19,9999,9999,9999,1532955744
22,15,18,Jits_Linear_8,20,9999,9999,9999,1533736016
22,15,18,Jits_Linear_8,21,9999,9999,9999,1534515296
22,15,18,Jits_Linear_8,22,9999,9999,9999,1535295576
22,15,18,Jits_Linear_8,23,9999,9999,9999,1536075848
22,15,18,Jits_Linear_8,24,9999,9999,9999,1536855128
22,15,18,Jits_Linear_8,25,9999,9999,9999,1537625156
22,15,18,Jits_Linear_8,26,9999,9999,9999,1538395204
22,15,18,Jits_Linear_8,27,9999,9999,9999,1539165252
22,15,18,Jits_Linear_8,28,9999,9999,9999,1539935296
22,15,18,Jits_Linear_8,29,9999,9999,9999,1540705336
22,15,18,Jits_Linear_8,30,9999,9999,9999,1541465200
22,15,18,Jits_Linear_8,31,9999,9999,9999,1542225980
22,15,18,Jits_Linear_8,32,9999,9999,9999,1542985856
22,15,18,Jits_Linear_8,33,9999,9999,9999,1543745652
22,15,18,Jits_Linear_8,34,9999,9999,9999,1544505456
22,15,18,Jits_Linear_8,35,9999,9999,9999,1545256024
22,15,18,Jits_Linear_8,36,9999,9999,9999,1546005580
22,15,18,Jits_Linear_8,37,9999,9999,9999,1546755144
22,15,18,Jits_Linear_8,38,9999,9999,9999,1547505772
22,15,18,Jits_Linear_8,39,9999,9999,9999,1548255340
22,15,18,Jits_Linear_8,40,9999,9999,9999,1548995656
22,15,18,Jits_Linear_8,41,9999,9999,9999,1549736044
22,15,18,Jits_Linear_8,42,9999,9999,9999,1550475324
22,15,18,Jits_Linear_8,43,9999,9999,9999,1551215704
22,15,18,Jits_Linear_8,44,9999,9999,9999,1551956064
22,15,18,Jits_Linear_8,45,9999,9999,9999,1552685136
22,15,18,Jits_Linear_8,46,9999,9999,9999,1553415284
22,15,18,Jits_Linear_8,47,9999,9999,9999,1554145352
22,15,18,Jits_Linear_8,48,9999,9999,9999,1554875504
22,15,18,Jits_Linear_8,49,9999,9999,9999,1555605624
22,15,18,Jits_Linear_8,50,9999,9999,9999,1556325444
22,15,18,Jits_Linear_8,51,9999,9999,9999,1557045348
22,15,18,Jits_Linear_8,52,9999,9999,9999,1557765180
22,15,18,Jits_Linear_8,53,9999,9999,9999,1558486084
22,15,18,Jits_Linear_8,54,9999,9999,9999,1559215160
22,15,18,Jits_Linear_8,55,9999,9999,9999,1559925872
22,15,18,Jits_Linear_8,56,9999,9999,9999,1560635444
22,15,18,Jits_Linear_8,57,9999,9999,9999,1561345112
22,15,18,Jits_Linear_8,58,9999,9999,9999,1562055772
22,15,18,Jits_Linear_8,59,9999,9999,9999,1562765408
22,15,18,Jits_Linear_8,60,9999,9999,9999,1563465824
22,15,18,Jits_Linear_8,61,9999,9999,9999,1564165176
22,15,18,Jits_Linear_8,62,9999,9999,9999,1564865588
22,15,18,Jits_Linear_8,63,9999,9999,9999,1565566036
22,15,18,Jits_Linear_8,64,9999,9999,9999,1566265452
22,15,18,Jits_Linear_8,65,9999,9999,9999,1566955616
22,15,18,Jits_Linear_8,66,9999,9999,9999,1567645760
22,15,18,Jits_Linear_8,67,9999,9999,9999,1568336000
22,15,18,Jits_Linear_8,68,9999,9999,9999,1569025084
22,15,18,Jits_Linear_8,69,9999,9999,9999,1569715260
22,15,18,Jits_Linear_8,70,9999,9999,9999,1570395240
22,15,18,Jits_Linear_8,71,9999,9999,9999,1571075168
22,15,18,Jits_Linear_8,72,9999,9999,9999,1571755100
22,15,18,Jits_Linear_8,73,9999,9999,9999,1572436080
22,15,18,Jits_Linear_8,74,9999,9999,9999,1573116020
22,15,18,Jits_Linear_8,75,9999,9999,9999,1573785684
22,15,18,Jits_Linear_8,76,9999,9999,9999,1574455364
22,15,18,Jits_Linear_8,77,9999,9999,9999,1575126128
22,15,18,Jits_Linear_8,78,9999,9999,9999,1575806028
22,15,18,Jits_Linear_8,79,9999,9999,9999,1576475720
22,15,18,Jits_Linear_8,80,9999,9999,9999,1577135160
22,15,18,Jits_Linear_8,81,9999,9999,9999,1577795640
22,15,18,Jits_Linear_8,82,9999,9999,9999,1578455148
22,15,18,Jits_Linear_8,83,9999,9999,9999,1579115624
22,15,18,Jits_Linear_8,84,9999,9999,9999,1579776124
22,15,18,Jits_Linear_8,85,9999,9999,9999,1580435556
22,15,18,Jits_Linear_8,86,9999,9999,9999,1581085756
22,15,18,Jits_Linear_8,87,9999,9999,9999,1581736016
22,15,18,Jits_Linear_8,88,9999,9999,9999,1582385260
22,15,18,Jits_Linear_8,89,9999,9999,9999,1583035456
22,15,18,Jits_Linear_8,90,9999,9999,9999,1583675464
22,15,18,Jits_Linear_8,91,9999,9999,9999,1584315500
22,15,18,Jits_Linear_8,92,9999,9999,9999,1584955516
22,15,18,Jits_Linear_8,93,9999,9999,9999,1585595508
22,15,18,Jits_Linear_8,94,9999,9999,9999,1586235508
22,15,18,Jits_Linear_8,95,9999,9999,9999,1586865224
22,15,18,Jits_Linear_8,96,9999,9999,9999,1587496064
22,15,18,Jits_Linear_8,97,9999,9999,9999,1588125824
22,15,18,Jits_Linear_8,98,9999,9999,9999,1588755540
22,15,18,Jits_Linear_8,99,9999,9999,9999,1589385316
22,15,18,Jits_Linear_8,100,9999,9999,9999,1590005852
22,15,18,Jits_Linear_8,101,9999,9999,9999,1590625372
22,15,18,Jits_Linear_8,102,9999,9999,9999,1591245912
22,15,18,Jits_Linear_8,103,9999,9999,9999,1591865436
22,15,18,Jits_Linear_8,104,9999,9999,9999,1592485980
22,15,18,Jits_Linear_8,105,9999,9999,9999,1593095260
22,15,18,Jits_Linear_8,106,9999,9999,9999,1593705596
22,15,18,Jits_Linear_8,107,9999,9999,9999,1594315872
22,15,18,Jits_Linear_8,108,9999,9999,9999,1594925144
22,15,18,Jits_Linear_8,109,9999,9999,9999,1595535484
22,15,18,Jits_Linear_8,110,9999,9999,9999,1596135552
22,15,18,Jits_Linear_8,111,9999,9999,9999,1596735580
22,15,18,Jits_Linear_8,112,9999,9999,9999,1597335612
22,15,18,Jits_Linear_8,113,9999,9999,9999,1597935724
22,15,18,Jits_Linear_8,114,9999,9999,9999,1598535760
22,15,18,Jits_Linear_8,115,9999,9999,9999,1599125616
22,15,18,Jits_Linear_8,116,9999,9999,9999,1599715436
22,15,18,Jits_Linear_8,117,9999,9999,9999,1600305244
22,15,18,Jits_Linear_8,118,9999,9999,9999,1600896112
22,15,18,Jits_Linear_8,119,9999,9999,9999,1601495100
22,15,18,Jits_Linear_8,120,9999,9999,9999,1602075716
22,15,18,Jits_Linear_8,121,9999,9999,9999,1602655336
22,15,18,Jits_Linear_8,122,9999,9999,9999,1603235960
22,15,18,Jits_Linear_8,123,9999,9999,9999,1603815496
22,15,18,Jits_Linear_8,124,9999,9999,9999,1604395116
22,15,18,Jits_Linear_8,125,9999,9999,9999,1604965488
22,15,18,Jits_Linear_8,126,9999,9999,9999,1605535812
22,15,18,Jits_Linear_8,127,9999,9999,9999,1606105192
22,15,18,Jits_Linear_8,128,9999,9999,9999,1606675556
22,15,18,Jits_Linear_8,129,9999,9999,9999,1607245940
22,15,18,Jits_Linear_8,130,9999,9999,9999,1607806016
22,15,18,Jits_Linear_8,131,9999,9999,9999,1608365112
22,15,18,Jits_Linear_8,132,9999,9999,9999,1608925248
22,15,18,Jits_Linear_8,133,9999,9999,9999,1609485396
22,15,18,Jits_Linear_8,134,9999,9999,9999,1610045536
22,15,18,Jits_Linear_8,135,9999,9999,9999,1610595412
22,15,18,Jits_Linear_8,136,9999,9999,9999,1611145292
22,15,18,Jits_Linear_8,137,9999,9999,9999,1611695220
22,15,18,Jits_Linear_8,138,9999,9999,9999,1612246112
22,15,18,Jits_Linear_8,139,9999,9999,9999,1612805188
22,15,18,Jits_Linear_8,140,9999,9999,9999,1613345900
22,15,18,Jits_Linear_8,141,9999,9999,9999,1613885540
22,15,18,Jits_Linear_8,142,9999,9999,9999,1614425188
22,15,18,Jits_Linear_8,143,9999,9999,9999,1614965824
22,15,18,Jits_Linear_8,144,9999,9999,9999,1615505476
22,15,18,Jits_Linear_8,145,9999,9999,9999,1616035904
22,15,18,Jits_Linear_8,146,9999,9999,9999,1616565320
22,15,18,Jits_Linear_8,147,9999,9999,9999,1617095788
22,15,18,Jits_Linear_8,148,9999,9999,9999,1617625180
22,15,18,Jits_Linear_8,149,9999,9999,9999,1618155648
22,15,18,Jits_Linear_8,150,9999,9999,9999,1618675804
22,15,18,Jits_Linear_8,151,9999,9999,9999,1619195972
22,15,18,Jits_Linear_8,152,9999,9999,9999,1619715148
22,15,18,Jits_Linear_8,153,9999,9999,9999,1620235380
22,15,18,Jits_Linear_8,154,9999,9999,9999,1620755544
22,15,18,Jits_Linear_8,155,9999,9999,9999,1621265532
22,15,18,Jits_Linear_8,156,9999,9999,9999,1621775460
22,15,18,Jits_Linear_8,157,9999,9999,9999,1622285372
22,15,18,Jits_Linear_8,158,9999,9999,9999,1622795364
22,15,18,Jits_Linear_8,159,9999,9999,9999,1623305272
22,15,18,Jits_Linear_8,160,9999,9999,9999,1623806032
22,15,18,Jits_Linear_8,161,9999,9999,9999,1624305776
22,15,18,Jits_Linear_8,162,9999,9999,9999,1624805456
22,15,18,Jits_Linear_8,163,9999,9999,9999,1625305196
22,15,18,Jits_Linear_8,164,9999,9999,9999,1625805932
22,15,18,Jits_Linear_8,165,9999,9999,9999,1626295364
22,15,18,Jits_Linear_8,166,9999,9999,9999,1626785912
22,15,18,Jits_Linear_8,167,9999,9999,9999,1627275316
22,15,18,Jits_Linear_8,168,9999,9999,9999,1627765820
22,15,18,Jits_Linear_8,169,9999,9999,9999,1628255336
22,16,19,Jits_Linear_5,0,5,56,103,1638664448
22,16,19,Jits_Linear_5,1,5,63,98,1638667688
22,16,19,Jits_Linear_5,2,5,80,127,1638670868
22,16,19,Jits_Linear_5,0,5,56,103,1639144896
22,16,19,Jits_Linear_5,1,5,63,98,1639148204
22,16,19,Jits_Linear_5,2,5,80,127,1639151232
22,16,19,Jits_Linear_5,0,5,56,103,1639625208
22,16,19,Jits_Linear_5,1,5,80,127,1639635300
22,16,19,Jits_Linear_5,2,5,63,98,1639654868
22,16,19,Jits_Linear_5,0,5,63,98,1640055200
22,16,19,Jits_Linear_5,1,5,80,127,1640084936
22,16,19,Jits_Linear_5,2,5,56,103,1640095204
22,16,19,Jits_Linear_5,0,1,48,45,1640502900
22,16,19,Jits_Linear_5,1,5,80,127,1640595024
22,16,19,Jits_Linear_5,2,5,56,103,1640605428
22,16,19,Jits_Linear_5,3,5,63,98,1640635012
22,16,19,Jits_Linear_5,0,1,48,47,1641068004
22,16,19,Jits_Linear_5,1,5,63,98,1641075064
22,16,19,Jits_Linear_5,2,5,56,103,1641104648
22,16,19,Jits_Linear_5,3,5,80,127,1641115120
22,16,19,Jits_Linear_5,0,5,56,103,1641515360
22,16,19,Jits_Linear_5,1,1,48,48,1641549716
22,16,19,Jits_Linear_5,2,5,63,98,1641564428
22,16,19,Jits_Linear_5,3,5,80,127,1641585216
22,16,19,Jits_Linear_5,0,1,48,53,1641999876
22,16,19,Jits_Linear_5,1,5,80,127,1642004952
22,16,19,Jits_Linear_5,2,5,63,98,1642055096
22,16,19,Jits_Linear_5,3,5,56,103,1642095896
22,16,19,Jits_Linear_5,0,5,56,103,1642495312
22,16,19,Jits_Linear_5,1,5,63,98,1642525124
22,16,19,Jits_Linear_5,2,1,48,49,1642548172
22,16,19,Jits_Linear_5,3,5,80,127,1642594748
22,16,19,Jits_Linear_5,0,1,48,47,1642985296
22,16,19,Jits_Linear_5,1,5,56,103,1642986816
22,16,19,Jits_Linear_5,2,5,80,127,1643045372
22,16,19,Jits_Linear_5,3,5,63,98,1643075184
22,16,19,Jits_Linear_5,0,5,56,103,1643484524
22,16,19,Jits_Linear_5,1,5,63,98,1643495148
22,16,19,Jits_Linear_5,2,1,48,48,1643498324
22,16,19,Jits_Linear_5,3,5,80,127,1643534888
22,16,19,Jits_Linear_5,0,5,63,98,1643974964
22,16,19,Jits_Linear_5,1,1,48,43,1643978372
22,16,19,Jits_Linear_5,2,5,80,127,1644055136
22,16,19,Jits_Linear_5,3,5,56,103,1644065076
22,16,19,Jits_Linear_5,0,1,48,51,1644469488
22,16,19,Jits_Linear_5,1,5,63,98,1644524932
22,16,19,Jits_Linear_5,2,5,56,103,1644564968
22,16,19,Jits_Linear_5,3,5,80,127,1644567864
22,16,19,Jits_Linear_5,0,5,56,103,1644984940
22,16,19,Jits_Linear_5,1,1,48,42,1644991096
22,16,19,Jits_Linear_5,2,5,63,98,1644995028
22,16,19,Jits_Linear_5,3,5,80,127,1645035004
22,16,19,Jits_Linear_5,0,1,48,49,1645466996
22,16,19,Jits_Linear_5,1,5,56,103,1645475220
22,16,19,Jits_Linear_5,2,5,63,98,1645478116
22,16,19,Jits_Linear_5,3,5,80,127,1645494708
22,16,19,Jits_Linear_5,0,1,48,43,1645940052
22,16,19,Jits_Linear_5,1,5,80,127,1645995368
22,16,19,Jits_Linear_5,2,5,56,103,1646004924
22,16,19,Jits_Linear_5,3,5,63,98,1646075304
22,16,19,Jits_Linear_5,0,5,63,98,1646495056
22,16,19,Jits_Linear_5,1,1,48,45,1646507104
22,16,19,Jits_Linear_5,2,5,56,103,1646514616
22,16,19,Jits_Linear_5,3,5,80,127,1646594416
22,16,19,Jits_Linear_5,0,1,48,44,1647009448
22,16,19,Jits_Linear_5,1,5,56,103,1647015360
22,16,19,Jits_Linear_5,2,5,80,127,1647055188
22,16,19,Jits_Linear_5,3,5,63,98,1647064364
22,16,19,Jits_Linear_5,0,1,48,41,1647510088
22,16,19,Jits_Linear_5,1,5,80,127,1647514936
22,16,19,Jits_Linear_5,2,5,63,98,1647544924
22,16,19,Jits_Linear_5,3,5,56,103,1647584824
22,16,19,Jits_Linear_5,0,1,48,42,1648028140
22,16,19,Jits_Linear_5,1,5,56,103,1648045364
22,16,19,Jits_Linear_5,2,5,63,98,1648075100
22,16,19,Jits_Linear_5,3,5,80,127,1648125316
22,16,19,Jits_Linear_5,0,1,48,41,1648517324
22,16,19,Jits_Linear_5,1,5,80,127,1648555288
22,16,19,Jits_Linear_5,2,5,56,103,1648595264
22,16,19,Jits_Linear_5,3,5,63,98,1648604592
22,16,19,Jits_Linear_5,0,5,80,127,1649055200
22,16,19,Jits_Linear_5,1,1,48,46,1649062648
22,16,19,Jits_Linear_5,2,5,63,98,1649094940
22,16,19,Jits_Linear_5,3,5,56,103,1649154484
22,16,19,Jits_Linear_5,0,5,56,103,1649575296
22,16,19,Jits_Linear_5,1,5,80,127,1649584548
22,16,19,Jits_Linear_5,2,1,48,46,1649624120
22,16,19,Jits_Linear_5,3,5,63,98,1649665328
22,16,19,Jits_Linear_5,0,1,48,43,1650093712
22,16,19,Jits_Linear_5,1,5,80,127,1650095540
22,16,19,Jits_Linear_5,2,5,63,98,1650154932
22,16,19,Jits_Linear_5,3,5,56,103,1650184592
22,16,19,Jits_Linear_5,0,5,56,103,1650614640
22,16,19,Jits_Linear_5,1,1,48,47,1650617056
22,16,19,Jits_Linear_5,2,5,80,127,1650675020
22,16,19,Jits_Linear_5,3,5,63,98,1650715056
22,16,19,Jits_Linear_5,0,1,48,44,1651171548
22,16,19,Jits_Linear_5,1,5,56,103,1651195200
22,16,19,Jits_Linear_5,2,5,63,98,1651204676
22,16,19,Jits_Linear_5,3,5,80,127,1651207876
22,16,19,Jits_Linear_5,0,1,48,42,1651574052
22,16,19,Jits_Linear_5,1,5,80,127,1651674748
22,16,19,Jits_Linear_5,2,5,63,98,1651764640
22,16,19,Jits_Linear_5,3,5,56,103,1651774808
22,16,19,Jits_Linear_5,0,5,56,103,1652204932
22,16,19,Jits_Linear_5,1,5,63,98,1652208316
22,16,19,Jits_Linear_5,2,5,80,127,1652211268
22,16,19,Jits_Linear_5,3,1,48,42,1652296012
22,16,19,Jits_Linear_5,0,5,80,127,1652754988
22,16,19,Jits_Linear_5,1,5,63,98,1652804904
22,16,19,Jits_Linear_5,2,5,56,103,1652834640
22,16,19,Jits_Linear_5,3,1,48,37,1652840792
22,16,19,Jits_Linear_5,0,5,56,103,1653264772
22,16,19,Jits_Linear_5,1,5,80,127,1653274940
22,16,19,Jits_Linear_5,2,5,63,98,1653344572
22,16,19,Jits_Linear_5,3,1,48,41,1653385048
22,16,19,Jits_Linear_5,0,5,56,103,1653805508
22,16,19,Jits_Linear_5,1,5,63,98,1653824928
22,16,19,Jits_Linear_5,2,5,80,127,1653885384
22,16,19,Jits_Linear_5,3,1,48,38,1653895600
22,16,19,Jits_Linear_5,0,1,48,39,1654315564
22,16,19,Jits_Linear_5,1,5,80,127,1654334924
22,16,19,Jits_Linear_5,2,5,63,98,1654404560
22,16,19,Jits_Linear_5,3,5,56,103,1654424876
22,16,19,Jits_Linear_5,0,5,80,127,1654894920
22,16,19,Jits_Linear_5,1,1,48,39,1654897560
22,16,19,Jits_Linear_5,2,5,56,103,1654905688
22,16,19,Jits_Linear_5,3,5,63,98,1654914560
22,16,19,Jits_Linear_5,0,5,80,127,1655425404
22,16,19,Jits_Linear_5,1,5,56,103,1655444900
22,16,19,Jits_Linear_5,2,1,48,42,1655450516
22,16,19,Jits_Linear_5,3,5,63,98,1655514472
22,16,19,Jits_Linear_5,0,5,56,103,1655975340
22,16,19,Jits_Linear_5,1,5,80,127,1656005228
22,16,19,Jits_Linear_5,2,1,48,37,1656010316
22,16,19,Jits_Linear_5,3,5,63,98,1656024488
22,16,19,Jits_Linear_5,0,5,63,98,1656514856
22,16,19,Jits_Linear_5,1,1,48,39,1656518416
22,16,19,Jits_Linear_5,2,5,56,103,1656575388
22,16,19,Jits_Linear_5,3,5,80,127,1656605048
22,16,19,Jits_Linear_5,0,1,48,41,1657049580
22,16,19,Jits_Linear_5,1,5,63,98,1657054576
22,16,19,Jits_Linear_5,2,5,80,127,1657058004
22,16,19,Jits_Linear_5,3,5,56,103,1657144688
22,16,19,Jits_Linear_5,0,1,48,42,1657593208
22,16,19,Jits_Linear_5,1,5,56,103,1657624872
22,16,19,Jits_Linear_5,2,5,63,98,1657654684
22,16,19,Jits_Linear_5,3,5,80,127,1657694720
22,16,19,Jits_Linear_5,0,1,48,41,1658148748
22,16,19,Jits_Linear_5,1,5,63,98,1658174844
22,16,19,Jits_Linear_5,2,5,56,103,1658214748
22,16,19,Jits_Linear_5,3,5,80,127,1658235312
22,16,19,Jits_Linear_5,0,1,48,38,1658689396
22,16,19,Jits_Linear_5,1,5,63,98,1658735216
22,16,19,Jits_Linear_5,2,5,56,103,1658774964
22,16,19,Jits_Linear_5,3,5,80,127,1658785216
22,16,19,Jits_Linear_5,0,5,80,127,1659265476
22,16,19,Jits_Linear_5,1,1,48,40,1659277372
22,16,19,Jits_Linear_5,2,5,63,98,1659335356
22,16,19,Jits_Linear_5,3,5,56,103,1659354396
22,16,19,Jits_Linear_5,0,5,56,103,1659815336
22,16,19,Jits_Linear_5,1,5,80,127,1659834752
22,16,19,Jits_Linear_5,2,1,48,38,1659858716
22,16,19,Jits_Linear_5,3,5,63,98,1659874644
22,16,19,Jits_Linear_5,0,1,48,37,1660364832
22,16,19,Jits_Linear_5,1,5,63,98,1660384724
22,16,19,Jits_Linear_5,2,5,80,127,1660405136
22,16,19,Jits_Linear_5,3,5,56,103,1660445112
22,16,19,Jits_Linear_5,0,1,48,43,1660909132
22,16,19,Jits_Linear_5,1,5,63,98,1660944936
22,16,19,Jits_Linear_5,2,5,56,103,1660965116
22,16,19,Jits_Linear_5,3,5,80,127,1660974368
22,16,19,Jits_Linear_5,0,1,48,38,1661456432
22,16,19,Jits_Linear_5,1,5,80,127,1661505144
22,16,19,Jits_Linear_5,2,5,56,103,1661525324
22,16,19,Jits_Linear_5,3,5,63,98,1661555196
22,16,19,Jits_Linear_5,0,1,48,41,1662050572
22,16,19,Jits_Linear_5,1,5,56,103,1662145180
22,16,19,Jits_Linear_5,2,5,80,127,1662148148
22,16,19,Jits_Linear_5,3,5,63,98,1662165336
22,16,19,Jits_Linear_5,0,5,63,98,1662635380
22,16,19,Jits_Linear_5,1,5,56,103,1662665116
22,16,19,Jits_Linear_5,2,1,48,41,1662666480
22,16,19,Jits_Linear_5,3,5,80,127,1662724424
22,16,19,Jits_Linear_5,0,1,48,41,1663163772
22,16,19,Jits_Linear_5,1,5,63,98,1663284700
22,16,19,Jits_Linear_5,2,5,56,103,1663294944
22,16,19,Jits_Linear_5,3,5,80,127,1663305036
22,16,19,Jits_Linear_5,0,1,48,42,1663701124
22,16,19,Jits_Linear_5,1,5,56,103,1663804712
22,16,19,Jits_Linear_5,2,5,80,127,1663834452
22,16,19,Jits_Linear_5,3,5,63,98,1663844768
22,16,19,Jits_Linear_5,0,1,48,41,1664287484
22,16,19,Jits_Linear_5,1,5,63,98,1664415172
22,16,19,Jits_Linear_5,2,5,56,103,1664425416
22,16,19,Jits_Linear_5,3,5,80,127,1664444680
22,16,19,Jits_Linear_5,0,5,56,103,1664914928
22,16,19,Jits_Linear_5,1,1,48,46,1664919096
22,16,19,Jits_Linear_5,2,5,63,98,1664975248
22,16,19,Jits_Linear_5,3,5,80,127,1664978600
22,16,19,Jits_Linear_5,0,1,48,43,1665505024
22,16,19,Jits_Linear_5,1,5,80,127,1665514984
22,16,19,Jits_Linear_5,2,5,56,103,1665525000
22,16,19,Jits_Linear_5,3,5,63,98,1665595012
22,16,19,Jits_Linear_5,0,1,48,43,1666070732
22,16,19,Jits_Linear_5,1,5,80,127,1666085208
22,16,19,Jits_Linear_5,2,5,56,103,1666154992
22,16,19,Jits_Linear_5,3,5,63,98,1666165236
22,16,19,Jits_Linear_5,0,1,48,45,1666641184
22,16,19,Jits_Linear_5,1,5,63,98,1666704888
22,16,19,Jits_Linear_5,2,5,56,103,1666715008
22,16,19,Jits_Linear_5,3,5,80,127,1666734352
22,16,19,Jits_Linear_5,0,1,48,39,1667215932
22,16,19,Jits_Linear_5,1,5,80,127,1667235168
22,16,19,Jits_Linear_5,2,5,63,98,1667294636
22,16,19,Jits_Linear_5,3,5,56,103,1667334444
22,16,19,Jits_Linear_5,0,1,48,40,1667845884
22,16,19,Jits_Linear_5,1,5,56,103,1667865092
22,16,19,Jits_Linear_5,2,5,63,98,1667875336
22,16,19,Jits_Linear_5,3,5,80,127,1667915236
22,16,19,Jits_Linear_5,0,1,48,40,1668400208
22,16,19,Jits_Linear_5,1,5,56,103,1668414984
22,16,19,Jits_Linear_5,2,5,80,127,1668444496
22,16,19,Jits_Linear_5,3,5,63,98,1668494924
22,16,19,Jits_Linear_5,0,1,48,32,1668980968
22,16,19,Jits_Linear_5,1,5,56,103,1669044848
22,16,19,Jits_Linear_5,2,5,63,98,1669084504
22,16,19,Jits_Linear_5,3,5,80,127,1669087932
22,16,19,Jits_Linear_5,0,1,48,39,1669581404
22,16,19,Jits_Linear_5,1,5,56,103,1669634332
22,16,19,Jits_Linear_5,2,5,63,98,1669644956
22,16,19,Jits_Linear_5,3,5,80,127,1669665064
22,16,19,Jits_Linear_5,0,1,48,42,1670173812
22,16,19,Jits_Linear_5,1,5,56,103,1670185284
22,16,19,Jits_Linear_5,2,5,80,127,1670188340
22,16,19,Jits_Linear_5,3,5,63,98,1670225188
22,16,19,Jits_Linear_5,0,1,48,46,1670740420
22,16,19,Jits_Linear_5,1,5,63,98,1670815000
22,16,19,Jits_Linear_5,2,5,56,103,1670844872
22,16,19,Jits_Linear_5,3,5,80,127,1670865284
22,16,19,Jits_Linear_5,0,1,48,43,1671360052
22,16,19,Jits_Linear_5,1,5,80,127,1671384540
22,16,19,Jits_Linear_5,2,5,56,103,1671394784
22,16,19,Jits_Linear_5,3,5,63,98,1671404952
22,16,19,Jits_Linear_5,0,1,48,39,1671939520
22,16,19,Jits_Linear_5,1,5,56,103,1671994812
22,16,19,Jits_Linear_5,2,5,80,127,1672034772
22,16,19,Jits_Linear_5,3,5,63,98,1672065348
22,16,19,Jits_Linear_5,0,5,63,98,1672604972
22,16,19,Jits_Linear_5,1,1,48,39,1672614140
22,16,19,Jits_Linear_5,2,5,80,127,1672615892
22,16,19,Jits_Linear_5,3,5,56,103,1672624536
22,16,19,Jits_Linear_5,0,5,56,103,1673184744
22,16,19,Jits_Linear_5,1,1,48,44,1673188688
22,16,19,Jits_Linear_5,2,5,63,98,1673255212
22,16,19,Jits_Linear_5,3,5,80,127,1673264540
22,16,19,Jits_Linear_5,0,1,48,45,1673743420
22,16,19,Jits_Linear_5,1,5,80,127,1673794880
22,16,19,Jits_Linear_5,2,5,56,103,1673805352
22,16,19,Jits_Linear_5,3,5,63,98,1673855324
22,16,19,Jits_Linear_5,0,1,48,36,1674335728
22,16,19,Jits_Linear_5,1,5,80,127,1674414580
22,16,19,Jits_Linear_5,2,5,56,103,1674474948
22,16,19,Jits_Linear_5,3,5,63,98,1674504608
22,16,19,Jits_Linear_5,0,1,48,34,1674968272
22,16,19,Jits_Linear_5,1,5,56,103,1675024784
22,16,19,Jits_Linear_5,2,5,80,127,1675027908
22,16,19,Jits_Linear_5,3,5,63,98,1675064756
22,16,19,Jits_Linear_5,0,1,48,35,1675505388
22,16,19,Jits_Linear_5,1,5,56,103,1675664692
22,16,19,Jits_Linear_5,2,5,63,98,1675694680
22,16,19,Jits_Linear_5,3,5,80,127,1675704620
22,16,19,Jits_Linear_5,0,1,48,29,1676116132
22,16,19,Jits_Linear_5,1,5,63,98,1676285316
22,16,19,Jits_Linear_5,2,5,80,127,1676294644
22,16,19,Jits_Linear_5,3,5,56,103,1676304740
22,16,19,Jits_Linear_5,0,1,48,30,1676686584
22,16,19,Jits_Linear_5,1,5,80,127,1676845376
22,16,19,Jits_Linear_5,2,5,56,103,1676894520
22,16,19,Jits_Linear_5,3,5,63,98,1676897648
22,16,19,Jits_Linear_5,0,1,48,36,1677302588
22,16,19,Jits_Linear_5,1,5,56,103,1677494496
22,16,19,Jits_Linear_5,2,5,80,127,1677515360
22,16,19,Jits_Linear_5,3,5,63,98,1677525456
22,16,19,Jits_Linear_5,0,1,48,36,1677934588
22,16,19,Jits_Linear_5,1,5,63,98,1678094680
22,16,19,Jits_Linear_5,2,5,56,103,1678125332
22,16,19,Jits_Linear_5,3,5,80,127,1678144980
22,16,19,Jits_Linear_5,0,1,48,19,1678600980
22,16,19,Jits_Linear_5,1,5,56,103,1678724372
22,16,19,Jits_Linear_5,2,5,80,127,1678734920
22,16,19,Jits_Linear_5,3,5,63,98,1678805416
22,16,19,Jits_Linear_5,0,5,63,98,1679334772
22,16,19,Jits_Linear_5,1,1,48,30,1679346744
22,16,19,Jits_Linear_5,2,5,80,127,1679374664
22,16,19,Jits_Linear_5,3,5,56,103,1679414564
22,16,19,Jits_Linear_5,0,1,48,39,1679972540
22,16,19,Jits_Linear_5,1,5,56,103,1679974696
22,16,19,Jits_Linear_5,2,5,63,98,1679985092
22,16,19,Jits_Linear_5,3,5,80,127,1680004436
22,16,19,Jits_Linear_5,0,1,48,37,1680595824
22,16,19,Jits_Linear_5,1,5,63,98,1680644464
22,16,19,Jits_Linear_5,2,5,80,127,1680664952
22,16,19,Jits_Linear_5,3,5,56,103,1680685364
22,16,19,Jits_Linear_5,0,5,56,103,1681214852
22,16,19,Jits_Linear_5,1,1,48,46,1681246924
22,16,19,Jits_Linear_5,2,5,80,127,1681294720
22,16,19,Jits_Linear_5,3,5,63,98,1681305040
22,16,19,Jits_Linear_5,0,5,80,127,1681884684
22,16,19,Jits_Linear_5,1,5,63,98,1681894704
22,16,19,Jits_Linear_5,2,1,48,42,1681922660
22,16,19,Jits_Linear_5,3,5,56,103,1681924428
22,16,19,Jits_Linear_5,0,5,63,98,1682475408
22,16,19,Jits_Linear_5,1,5,80,127,1682515232
22,16,19,Jits_Linear_5,2,1,48,43,1682520852
22,16,19,Jits_Linear_5,3,5,56,103,1682574616
22,16,19,Jits_Linear_5,0,1,48,44,1683088852
22,16,19,Jits_Linear_5,1,5,63,98,1683115276
22,16,19,Jits_Linear_5,2,5,56,103,1683164580
22,16,19,Jits_Linear_5,3,5,80,127,1683195212
22,16,19,Jits_Linear_5,0,1,48,38,1683734552
22,16,19,Jits_Linear_5,1,5,80,127,1683764532
22,16,19,Jits_Linear_5,2,5,63,98,1683774852
22,16,19,Jits_Linear_5,3,5,56,103,1683844548
22,16,19,Jits_Linear_5,0,1,48,37,1684440152
22,16,19,Jits_Linear_5,1,5,80,127,1684475264
22,16,19,Jits_Linear_5,2,5,56,103,1684484436
22,16,19,Jits_Linear_5,3,5,63,98,1684487560
22,16,19,Jits_Linear_5,0,5,56,103,1685054740
22,16,19,Jits_Linear_5,1,5,80,127,1685075376
22,16,19,Jits_Linear_5,2,5,63,98,1685084476
22,16,19,Jits_Linear_5,3,1,48,40,1685118528
22,16,19,Jits_Linear_5,0,5,63,98,1685705096
22,16,19,Jits_Linear_5,1,1,48,36,1685717752
22,16,19,Jits_Linear_5,2,5,56,103,1685745068
22,16,19,Jits_Linear_5,3,5,80,127,1685764636
22,16,19,Jits_Linear_5,0,1,48,35,1686328340
22,16,19,Jits_Linear_5,1,5,63,98,1686355272
22,16,19,Jits_Linear_5,2,5,56,103,1686414656
22,16,19,Jits_Linear_5,3,5,80,127,1686417784
22,16,19,Jits_Linear_5,0,5,56,103,1686964732
22,16,19,Jits_Linear_5,1,5,80,127,1686984992
22,16,19,Jits_Linear_5,2,5,63,98,1687025044
22,16,19,Jits_Linear_5,3,1,48,30,1687036252
22,16,19,Jits_Linear_5,0,1,48,43,1687604648
22,16,19,Jits_Linear_5,1,5,56,103,1687644568
22,16,19,Jits_Linear_5,2,5,63,98,1687664980
22,16,19,Jits_Linear_5,3,5,80,127,1687675148
22,16,19,Jits_Linear_5,0,1,48,41,1688256040
22,16,19,Jits_Linear_5,1,5,80,127,1688265084
22,16,19,Jits_Linear_5,2,5,56,103,1688294744
22,16,19,Jits_Linear_5,3,5,63,98,1688334644
22,16,19,Jits_Linear_5,0,1,48,40,1688845900
22,16,19,Jits_Linear_5,1,5,80,127,1688924428
22,16,19,Jits_Linear_5,2,5,56,103,1688945048
22,16,19,Jits_Linear_5,3,5,63,98,1689005380
22,16,19,Jits_Linear_5,0,1,48,37,1689579796
22,16,19,Jits_Linear_5,1,5,56,103,1689585020
22,16,19,Jits_Linear_5,2,5,80,127,1689604516
22,16,19,Jits_Linear_5,3,5,63,98,1689665048
22,16,19,Jits_Linear_5,0,1,48,45,1690213312
22,16,19,Jits_Linear_5,1,5,80,127,1690225028
22,16,19,Jits_Linear_5,2,5,56,103,1690235348
22,16,19,Jits_Linear_5,3,5,63,98,1690275124
22,16,19,Jits_Linear_5,0,1,48,42,1690840188
22,16,19,Jits_Linear_5,1,5,63,98,1690884396
22,16,19,Jits_Linear_5,2,5,56,103,1690925356
22,16,19,Jits_Linear_5,3,5,80,127,1690928412
22,16,19,Jits_Linear_5,0,1,48,41,1691471080
22,16,19,Jits_Linear_5,1,5,63,98,1691565592
22,16,19,Jits_Linear_5,2,5,80,127,1691605572
22,16,19,Jits_Linear_5,3,5,56,103,1691635000
22,16,19,Jits_Linear_5,0,1,48,40,1692145136
22,16,19,Jits_Linear_5,1,5,56,103,1692214868
22,16,19,Jits_Linear_5,2,5,63,98,1692225116
22,16,19,Jits_Linear_5,3,5,80,127,1692254908
22,16,19,Jits_Linear_5,0,1,48,46,1692799200
22,16,19,Jits_Linear_5,1,5,80,127,1692875080
22,16,19,Jits_Linear_5,2,5,63,98,1692944700
22,16,19,Jits_Linear_5,3,5,56,103,1692955172
22,16,19,Jits_Linear_5,0,1,48,43,1693499996
22,16,19,Jits_Linear_5,1,5,63,98,1693544744
22,16,19,Jits_Linear_5,2,5,56,103,1693614464
22,16,19,Jits_Linear_5,3,5,80,127,1693624632
22,16,19,Jits_Linear_5,0,1,48,42,1694186740
22,16,19,Jits_Linear_5,1,5,63,98,1694214588
22,16,19,Jits_Linear_5,2,5,56,103,1694235000
22,16,19,Jits_Linear_5,3,5,80,127,1694274900
22,16,19,Jits_Linear_5,0,1,48,48,1694855720
22,16,19,Jits_Linear_5,1,5,56,103,1694894520
22,16,19,Jits_Linear_5,2,5,63,98,1694904612
22,16,19,Jits_Linear_5,3,5,80,127,1694984696
22,16,19,Jits_Linear_5,0,1,48,48,1695495596
22,16,19,Jits_Linear_5,1,5,63,98,1695555008
22,16,19,Jits_Linear_5,2,5,56,103,1695584668
22,16,19,Jits_Linear_5,3,5,80,127,1695624856
22,16,19,Jits_Linear_5,0,1,48,38,1696206028
22,16,19,Jits_Linear_5,1,5,56,103,1696224700
22,16,19,Jits_Linear_5,2,5,63,98,1696264752
22,16,19,Jits_Linear_5,3,5,80,127,1696304712
22,16,19,Jits_Linear_5,0,1,48,41,1696878740
22,16,19,Jits_Linear_5,1,5,80,127,1696904680
22,16,19,Jits_Linear_5,2,5,56,103,1696984564
22,16,19,Jits_Linear_5,3,5,63,98,1696994660
22,16,19,Jits_Linear_5,0,1,48,36,1697594760
22,16,19,Jits_Linear_5,1,5,56,103,1697624512
22,16,19,Jits_Linear_5,2,5,63,98,1697627784
22,16,19,Jits_Linear_5,3,5,80,127,1697634600
22,16,19,Jits_Linear_5,0,1,48,46,1698296308
22,16,19,Jits_Linear_5,1,5,56,103,1698324768
22,16,19,Jits_Linear_5,2,5,63,98,1698345556
22,16,19,Jits_Linear_5,3,5,80,127,1698354508
22,16,19,Jits_Linear_5,0,5,63,98,1698964864
22,16,19,Jits_Linear_5,1,5,80,127,1698975056
22,16,19,Jits_Linear_5,2,1,48,40,1698980672
22,16,19,Jits_Linear_5,3,5,56,103,1698994464
22,16,19,Jits_Linear_5,0,1,48,51,1699606696
22,16,19,Jits_Linear_5,1,5,63,98,1699655024
22,16,19,Jits_Linear_5,2,5,56,103,1699734884
22,16,19,Jits_Linear_5,3,5,80,127,1699737956
22,16,19,Jits_Linear_5,0,1,48,51,1700308324
22,16,19,Jits_Linear_5,1,5,63,98,1700345268
22,16,19,Jits_Linear_5,2,5,56,103,1700364688
22,16,19,Jits_Linear_5,3,5,80,127,1700395488
22,16,19,Jits_Linear_5,0,1,48,48,1701016232
22,16,19,Jits_Linear_5,1,5,56,103,1701035364
22,16,19,Jits_Linear_5,2,5,63,98,1701054784
22,16,19,Jits_Linear_5,3,5,80,127,1701065028
22,16,19,Jits_Linear_5,0,1,48,48,1701663276
22,16,19,Jits_Linear_5,1,5,56,103,1701756072
22,16,19,Jits_Linear_5,2,5,63,98,1701784916
22,16,19,Jits_Linear_5,3,5,80,127,1701788496
22,16,19,Jits_Linear_5,0,5,56,103,1702395436
22,16,19,Jits_Linear_5,1,5,63,98,1702435412
22,16,19,Jits_Linear_5,2,1,48,46,1702444024
22,16,19,Jits_Linear_5,3,5,80,127,1702494492
22,16,19,Jits_Linear_5,0,5,56,103,1703104892
22,16,19,Jits_Linear_5,1,1,48,47,1703109592
22,16,19,Jits_Linear_5,2,5,63,98,1703115280
22,16,19,Jits_Linear_5,3,5,80,127,1703174444
22,16,19,Jits_Linear_5,0,5,56,103,1703805296
22,16,19,Jits_Linear_5,1,1,48,49,1703807936
22,16,19,Jits_Linear_5,2,5,80,127,1703824784
22,16,19,Jits_Linear_5,3,5,63,98,1703854544
22,16,19,Jits_Linear_5,0,5,80,127,1704504732
22,16,19,Jits_Linear_5,1,5,56,103,1704514824
22,16,19,Jits_Linear_5,2,1,48,50,1704525268
22,16,19,Jits_Linear_5,3,5,63,98,1704535304
22,16,19,Jits_Linear_5,0,5,63,98,1705194916
22,16,19,Jits_Linear_5,1,1,48,46,1705204752
22,16,19,Jits_Linear_5,2,5,80,127,1705274708
22,16,19,Jits_Linear_5,3,5,56,103,1705285256
22,16,19,Jits_Linear_5,0,1,48,40,1705936500
22,16,19,Jits_Linear_5,1,5,80,127,1705954720
22,16,19,Jits_Linear_5,2,5,56,103,1705975276
22,16,19,Jits_Linear_5,3,5,63,98,1705978324
22,16,19,Jits_Linear_5,0,5,63,98,1706634700
22,16,19,Jits_Linear_5,1,1,48,49,1706636236
22,16,19,Jits_Linear_5,2,5,80,127,1706639420
22,16,19,Jits_Linear_5,3,5,56,103,1706695096
22,16,19,Jits_Linear_5,0,5,56,103,1707335108
22,16,19,Jits_Linear_5,1,5,80,127,1707345200
22,16,19,Jits_Linear_5,2,1,48,46,1707348832
22,16,19,Jits_Linear_5,3,5,63,98,1707385320
22,16,19,Jits_Linear_5,0,5,56,103,1708025216
22,16,19,Jits_Linear_5,1,1,48,43,1708037872
22,16,19,Jits_Linear_5,2,5,63,98,1708084680
22,16,19,Jits_Linear_5,3,5,80,127,1708095076
22,16,19,Jits_Linear_5,0,5,63,98,1708745292
22,16,19,Jits_Linear_5,1,1,48,47,1708781868
22,16,19,Jits_Linear_5,2,5,80,127,1708785112
22,16,19,Jits_Linear_5,3,5,56,103,1708825008
22,16,19,Jits_Linear_5,0,5,56,103,1709454632
22,16,19,Jits_Linear_5,1,1,48,41,1709461240
22,16,19,Jits_Linear_5,2,5,63,98,1709534596
22,16,19,Jits_Linear_5,3,5,80,127,1709537948
22,16,19,Jits_Linear_5,0,1,48,44,1710188112
22,16,19,Jits_Linear_5,1,5,80,127,1710224984
22,16,19,Jits_Linear_5,2,5,56,103,1710254516
22,16,19,Jits_Linear_5,3,5,63,98,1710257564
22,16,19,Jits_Linear_5,0,5,56,103,1710904992
22,16,19,Jits_Linear_5,1,1,48,42,1710909928
22,16,19,Jits_Linear_5,2,5,80,127,1710925320
22,16,19,Jits_Linear_5,3,5,63,98,1710965292
22,16,19,Jits_Linear_5,0,1,48,46,1711605268
22,16,19,Jits_Linear_5,1,5,80,127,1711606940
22,16,19,Jits_Linear_5,2,5,63,98,1711624752
22,16,19,Jits_Linear_5,3,5,56,103,1711684908
22,16,19,Jits_Linear_5,0,1,48,49,1712312920
22,16,19,Jits_Linear_5,1,5,63,98,1712335180
22,16,19,Jits_Linear_5,2,5,56,103,1712344432
22,16,19,Jits_Linear_5,3,5,80,127,1712394724
22,16,19,Jits_Linear_5,0,1,48,48,1712997092
22,16,19,Jits_Linear_5,1,5,56,103,1713044892
22,16,19,Jits_Linear_5,2,5,63,98,1713065228
22,16,19,Jits_Linear_5,3,5,80,127,1713074784
22,16,19,Jits_Linear_5,0,1,48,40,1713696260
22,16,19,Jits_Linear_5,1,5,56,103,1713764920
22,16,19,Jits_Linear_5,2,5,63,98,1713767968
22,16,19,Jits_Linear_5,3,5,80,127,1713785176
22,16,19,Jits_Linear_5,0,1,48,43,1714437324
22,16,19,Jits_Linear_5,1,5,63,98,1714534788
22,16,19,Jits_Linear_5,2,5,56,103,1714564448
22,16,19,Jits_Linear_5,3,5,80,127,1714595200
22,16,19,Jits_Linear_5,0,5,80,127,1715224988
22,16,19,Jits_Linear_5,1,1,48,47,1715232916
22,16,19,Jits_Linear_5,2,5,56,103,1715315092
22,16,19,Jits_Linear_5,3,5,63,98,1715318140
22,16,19,Jits_Linear_5,0,5,56,103,1715954980
22,16,19,Jits_Linear_5,1,5,80,127,1715958184
22,16,19,Jits_Linear_5,2,5,63,98,1716034932
22,16,19,Jits_Linear_5,3,1,48,50,1716066772
22,16,19,Jits_Linear_5,0,5,80,127,1716685140
22,16,19,Jits_Linear_5,1,1,48,40,1716690988
22,16,19,Jits_Linear_5,2,5,63,98,1716744676
22,16,19,Jits_Linear_5,3,5,56,103,1716775176
22,16,19,Jits_Linear_5,0,1,48,42,1717409760
22,16,19,Jits_Linear_5,1,5,63,98,1717415296
22,16,19,Jits_Linear_5,2,5,80,127,1717424472
22,16,19,Jits_Linear_5,3,5,56,103,1717495248
22,16,19,Jits_Linear_5,0,5,56,103,1718164764
22,16,19,Jits_Linear_5,1,1,48,43,1718189364
22,16,19,Jits_Linear_5,2,5,80,127,1718194744
22,16,19,Jits_Linear_5,3,5,63,98,1718244660
22,16,19,Jits_Linear_5,0,1,48,47,1718922252
22,16,19,Jits_Linear_5,1,5,63,98,1718945160
22,16,19,Jits_Linear_5,2,5,56,103,1718974816
22,16,19,Jits_Linear_5,3,5,80,127,1718977940
22,16,19,Jits_Linear_5,0,1,48,46,1719682680
22,16,19,Jits_Linear_5,1,5,63,98,1719684604
22,16,19,Jits_Linear_5,2,5,80,127,1719704960
22,16,19,Jits_Linear_5,3,5,56,103,1719715132
22,16,19,Jits_Linear_5,0,1,48,43,1720421292
22,16,19,Jits_Linear_5,1,5,56,103,1720435080
22,16,19,Jits_Linear_5,2,5,63,98,1720438432
22,16,19,Jits_Linear_5,3,5,80,127,1720454648
22,16,19,Jits_Linear_5,0,5,56,103,1721134504
22,16,19,Jits_Linear_5,1,5,63,98,1721144600
22,16,19,Jits_Linear_5,2,1,48,42,1721172912
22,16,19,Jits_Linear_5,3,5,80,127,1721175544
22,16,19,Jits_Linear_5,0,1,48,44,1721900096
22,16,19,Jits_Linear_5,1,5,63,98,1721904632
22,16,19,Jits_Linear_5,2,5,80,127,1721924816
22,16,19,Jits_Linear_5,3,5,56,103,1721964868
22,16,19,Jits_Linear_5,0,1,48,47,1722677256
22,16,19,Jits_Linear_5,1,5,56,103,1722684848
22,16,19,Jits_Linear_5,2,5,63,98,1722724664
22,16,19,Jits_Linear_5,3,5,80,127,1722727872
22,16,19,Jits_Linear_5,0,5,80,127,1723375096
22,16,19,Jits_Linear_5,1,5,56,103,1723414848
22,16,19,Jits_Linear_5,2,5,63,98,1723464988
22,16,19,Jits_Linear_5,3,1,48,41,1723488572
22,16,19,Jits_Linear_5,0,1,48,38,1724160176
22,16,19,Jits_Linear_5,1,5,56,103,1724184892
22,16,19,Jits_Linear_5,2,5,80,127,1724195364
22,16,19,Jits_Linear_5,3,5,63,98,1724224800
22,16,19,Jits_Linear_5,0,5,56,103,1724885544
22,16,19,Jits_Linear_5,1,1,48,42,1724923516
22,16,19,Jits_Linear_5,2,5,80,127,1724925440
22,16,19,Jits_Linear_5,3,5,63,98,1724974360
22,16,19,Jits_Linear_5,0,5,56,103,1725645212
22,16,19,Jits_Linear_5,1,1,48,48,1725658328
22,16,19,Jits_Linear_5,2,5,80,127,1725685256
22,16,19,Jits_Linear_5,3,5,63,98,1725735324
22,16,19,Jits_Linear_5,0,1,48,50,1726393092
22,16,19,Jits_Linear_5,1,5,80,127,1726394780
22,16,19,Jits_Linear_5,2,5,63,98,1726474504
22,16,19,Jits_Linear_5,3,5,56,103,1726484748
22,16,19,Jits_Linear_5,0,1,48,37,1727148292
22,16,19,Jits_Linear_5,1,5,80,127,1727204728
22,16,19,Jits_Linear_5,2,5,56,103,1727215124
22,16,19,Jits_Linear_5,3,5,63,98,1727234316
22,16,19,Jits_Linear_5,0,1,48,38,1727926600
22,16,19,Jits_Linear_5,1,5,63,98,1727934956
22,16,19,Jits_Linear_5,2,5,56,103,1728004436
22,16,19,Jits_Linear_5,3,5,80,127,1728007636
22,16,19,Jits_Linear_5,0,5,80,127,1728694688
22,16,19,Jits_Linear_5,1,1,48,42,1728737460
22,16,19,Jits_Linear_5,2,5,63,98,1728744976
22,16,19,Jits_Linear_5,3,5,56,103,1728784952
22,16,19,Jits_Linear_5,0,1,48,31,1729473668
22,16,19,Jits_Linear_5,1,5,63,98,1729504644
22,16,19,Jits_Linear_5,2,5,56,103,1729544468
22,16,19,Jits_Linear_5,3,5,80,127,1729554712
22,16,19,Jits_Linear_5,0,5,63,98,1730264384
22,16,19,Jits_Linear_5,1,1,48,28,1730282940
22,16,19,Jits_Linear_5,2,5,56,103,1730285088
22,16,19,Jits_Linear_5,3,5,80,127,1730305424
22,16,19,Jits_Linear_5,0,5,80,127,1730994452
22,16,19,Jits_Linear_5,1,5,56,103,1731004924
22,16,19,Jits_Linear_5,2,5,63,98,1731025332
22,16,19,Jits_Linear_5,3,1,48,45,1731045180
22,16,19,Jits_Linear_5,0,1,48,51,1731755228
22,16,19,Jits_Linear_5,1,5,63,98,1731795376
22,16,19,Jits_Linear_5,2,5,56,103,1731835280
22,16,19,Jits_Linear_5,3,5,80,127,1731865152
22,16,19,Jits_Linear_5,0,1,48,46,1732529012
22,16,19,Jits_Linear_5,1,5,56,103,1732574524
22,16,19,Jits_Linear_5,2,5,63,98,1732605332
22,16,19,Jits_Linear_5,3,5,80,127,1732634972
22,16,19,Jits_Linear_5,0,1,48,40,1733320460
22,16,19,Jits_Linear_5,1,5,80,127,1733325232
22,16,19,Jits_Linear_5,2,5,56,103,1733395016
22,16,19,Jits_Linear_5,3,5,63,98,1733398064
22,16,19,Jits_Linear_5,0,5,56,103,1734114844
22,16,19,Jits_Linear_5,1,1,48,42,1734118484
22,16,19,Jits_Linear_5,2,5,63,98,1734164828
22,16,19,Jits_Linear_5,3,5,80,127,1734194716
22,16,19,Jits_Linear_5,0,5,63,98,1734874428
22,16,19,Jits_Linear_5,1,5,80,127,1734877788
22,16,19,Jits_Linear_5,2,1,48,49,1734895420
22,16,19,Jits_Linear_5,3,5,56,103,1734935036
22,16,19,Jits_Linear_5,0,1,48,46,1735683444
22,16,19,Jits_Linear_5,1,5,56,103,1735685116
22,16,19,Jits_Linear_5,2,5,80,127,1735694676
22,16,19,Jits_Linear_5,3,5,63,98,1735744896
22,16,19,Jits_Linear_5,0,5,63,98,1736445388
22,16,19,Jits_Linear_5,1,5,56,103,1736454488
22,16,19,Jits_Linear_5,2,1,48,51,1736474260
22,16,19,Jits_Linear_5,3,5,80,127,1736485284
22,16,19,Jits_Linear_5,0,1,48,48,1737221808
22,16,19,Jits_Linear_5,1,5,63,98,1737264648
22,16,19,Jits_Linear_5,2,5,80,127,1737267996
22,16,19,Jits_Linear_5,3,5,56,103,1737295140
22,16,19,Jits_Linear_5,0,1,48,38,1738044452
22,16,19,Jits_Linear_5,1,5,63,98,1738074736
22,16,19,Jits_Linear_5,2,5,56,103,1738095068
22,16,19,Jits_Linear_5,3,5,80,127,1738098192
22,16,19,Jits_Linear_5,0,5,63,98,1738825060
22,16,19,Jits_Linear_5,1,1,48,40,1738838708
22,16,19,Jits_Linear_5,2,5,56,103,1738894764
22,16,19,Jits_Linear_5,3,5,80,127,1738915120
22,16,19,Jits_Linear_5,0,5,56,103,1739605424
22,16,19,Jits_Linear_5,1,5,63,98,1739614680
22,16,19,Jits_Linear_5,2,1,48,40,1739633764
22,16,19,Jits_Linear_5,3,5,80,127,1739704808
22,16,19,Jits_Linear_5,0,1,48,47,1740394036
22,16,19,Jits_Linear_5,1,5,56,103,1740415380
22,16,19,Jits_Linear_5,2,5,80,127,1740455304
22,16,19,Jits_Linear_5,3,5,63,98,1740464480
22,16,19,Jits_Linear_5,0,1,48,42,1741209116
22,16,19,Jits_Linear_5,1,5,56,103,1741244768
22,16,19,Jits_Linear_5,2,5,63,98,1741274656
22,16,19,Jits_Linear_5,3,5,80,127,1741305136
22,16,19,Jits_Linear_5,0,5,80,127,1742004580
22,16,19,Jits_Linear_5,1,1,48,41,1742017696
22,16,19,Jits_Linear_5,2,5,63,98,1742044624
22,16,19,Jits_Linear_5,3,5,56,103,1742064956
22,16,19,Jits_Linear_5,0,1,48,41,1742807316
22,16,19,Jits_Linear_5,1,5,56,103,1742845404
22,16,19,Jits_Linear_5,2,5,80,127,1742864824
22,16,19,Jits_Linear_5,3,5,63,98,1742885232
22,16,19,Jits_Linear_5,0,1,48,44,1743598148
22,16,19,Jits_Linear_5,1,5,63,98,1743615600
22,16,19,Jits_Linear_5,2,5,56,103,1743624552
22,16,19,Jits_Linear_5,3,5,80,127,1743684932
22,16,19,Jits_Linear_5,0,1,48,41,1744392968
22,16,19,Jits_Linear_5,1,5,56,103,1744425320
22,16,19,Jits_Linear_5,2,5,63,98,1744494864
22,16,19,Jits_Linear_5,3,5,80,127,1744514356
22,16,19,Jits_Linear_5,0,1,48,46,1745190896
22,16,19,Jits_Linear_5,1,5,56,103,1745235492
22,16,19,Jits_Linear_5,2,5,63,98,1745264928
22,16,19,Jits_Linear_5,3,5,80,127,1745304912
22,16,19,Jits_Linear_5,0,1,48,45,1746007500
22,16,19,Jits_Linear_5,1,5,63,98,1746034964
22,16,19,Jits_Linear_5,2,5,56,103,1746085512
22,16,19,Jits_Linear_5,3,5,80,127,1746094388
22,16,19,Jits_Linear_5,0,1,48,46,1746864256
22,16,19,Jits_Linear_5,1,5,56,103,1746885060
22,16,19,Jits_Linear_5,2,5,63,98,1746935204
22,16,19,Jits_Linear_5,3,5,80,127,1746945296
22,16,19,Jits_Linear_5,0,5,56,103,1747665436
22,16,19,Jits_Linear_5,1,5,63,98,1747674536
22,16,19,Jits_Linear_5,2,1,48,40,1747680152
22,16,19,Jits_Linear_5,3,5,80,127,1747755544
22,16,19,Jits_Linear_5,0,9999,9999,9999,1638902900
22,16,19,Jits_Linear_5,1,9999,9999,9999,1639382124
22,16,19,Jits_Linear_5,2,9999,9999,9999,1639862360
22,16,19,Jits_Linear_5,3,9999,9999,9999,1640342644
22,16,19,Jits_Linear_5,4,9999,9999,9999,1640822836
22,16,19,Jits_Linear_5,5,9999,9999,9999,1641312352
22,16,19,Jits_Linear_5,6,9999,9999,9999,1641802852
22,16,19,Jits_Linear_5,7,9999,9999,9999,1642292304
22,16,19,Jits_Linear_5,8,9999,9999,9999,1642782808
22,16,19,Jits_Linear_5,9,9999,9999,9999,1643272264
22,16,19,Jits_Linear_5,10,9999,9999,9999,1643773008
22,16,19,Jits_Linear_5,11,9999,9999,9999,1644272704
22,16,19,Jits_Linear_5,12,9999,9999,9999,1644772456
22,16,19,Jits_Linear_5,13,9999,9999,9999,1645272132
22,16,19,Jits_Linear_5,14,9999,9999,9999,1645772876
22,16,19,Jits_Linear_5,15,9999,9999,9999,1646282872
22,16,19,Jits_Linear_5,16,9999,9999,9999,1646792792
22,16,19,Jits_Linear_5,17,9999,9999,9999,1647302712
22,16,19,Jits_Linear_5,18,9999,9999,9999,1647812704
22,16,19,Jits_Linear_5,19,9999,9999,9999,1648322628
22,16,19,Jits_Linear_5,20,9999,9999,9999,1648842864
22,16,19,Jits_Linear_5,21,9999,9999,9999,1649363024
22,16,19,Jits_Linear_5,22,9999,9999,9999,1649882204
22,16,19,Jits_Linear_5,23,9999,9999,9999,1650402384
22,16,19,Jits_Linear_5,24,9999,9999,9999,1650922620
22,16,19,Jits_Linear_5,25,9999,9999,9999,1651453032
22,16,19,Jits_Linear_5,26,9999,9999,9999,1651982452
22,16,19,Jits_Linear_5,27,9999,9999,9999,1652512828
22,16,19,Jits_Linear_5,28,9999,9999,9999,1653042256
22,16,19,Jits_Linear_5,29,9999,9999,9999,1653572672
22,16,19,Jits_Linear_5,30,9999,9999,9999,1654112340
22,16,19,Jits_Linear_5,31,9999,9999,9999,1654653000
22,16,19,Jits_Linear_5,32,9999,9999,9999,1655192652
22,16,19,Jits_Linear_5,33,9999,9999,9999,1655732340
22,16,19,Jits_Linear_5,34,9999,9999,9999,1656273000
22,16,19,Jits_Linear_5,35,9999,9999,9999,1656822912
22,16,19,Jits_Linear_5,36,9999,9999,9999,1657372796
22,16,19,Jits_Linear_5,37,9999,9999,9999,1657922616
22,16,19,Jits_Linear_5,38,9999,9999,9999,1658472516
22,16,19,Jits_Linear_5,39,9999,9999,9999,1659022412
22,16,19,Jits_Linear_5,40,9999,9999,9999,1659582576
22,16,19,Jits_Linear_5,41,9999,9999,9999,1660142648
22,16,19,Jits_Linear_5,42,9999,9999,9999,1660702796
22,16,19,Jits_Linear_5,43,9999,9999,9999,1661262928
22,16,19,Jits_Linear_5,44,9999,9999,9999,1661823064
22,16,19,Jits_Linear_5,45,9999,9999,9999,1662392396
22,16,19,Jits_Linear_5,46,9999,9999,9999,1662962772
22,16,19,Jits_Linear_5,47,9999,9999,9999,1663532088
22,16,19,Jits_Linear_5,48,9999,9999,9999,1664102472
22,16,19,Jits_Linear_5,49,9999,9999,9999,1664672880
22,16,19,Jits_Linear_5,50,9999,9999,9999,1665252420
22,16,19,Jits_Linear_5,51,9999,9999,9999,1665833056
22,16,19,Jits_Linear_5,52,9999,9999,9999,1666412608
22,16,19,Jits_Linear_5,53,9999,9999,9999,1666992188
22,16,19,Jits_Linear_5,54,9999,9999,9999,1667572808
22,16,19,Jits_Linear_5,55,9999,9999,9999,1668162680
22,16,19,Jits_Linear_5,56,9999,9999,9999,1668752476
22,16,19,Jits_Linear_5,57,9999,9999,9999,1669342280
22,16,19,Jits_Linear_5,58,9999,9999,9999,1669932148
22,16,19,Jits_Linear_5,59,9999,9999,9999,1670522996
22,16,19,Jits_Linear_5,60,9999,9999,9999,1671123060
22,16,19,Jits_Linear_5,61,9999,9999,9999,1671723092
22,16,19,Jits_Linear_5,62,9999,9999,9999,1672332376
22,16,19,Jits_Linear_5,63,9999,9999,9999,1672932432
22,16,19,Jits_Linear_5,64,9999,9999,9999,1673532468
22,16,19,Jits_Linear_5,65,9999,9999,9999,1674142780
22,16,19,Jits_Linear_5,66,9999,9999,9999,1674752072
22,16,19,Jits_Linear_5,67,9999,9999,9999,1675362412
22,16,19,Jits_Linear_5,68,9999,9999,9999,1675972716
22,16,19,Jits_Linear_5,69,9999,9999,9999,1676582996
22,16,19,Jits_Linear_5,70,9999,9999,9999,1677202512
22,16,19,Jits_Linear_5,71,9999,9999,9999,1677823052
22,16,19,Jits_Linear_5,72,9999,9999,9999,1678442576
22,16,19,Jits_Linear_5,73,9999,9999,9999,1679062128
22,16,19,Jits_Linear_5,74,9999,9999,9999,1679682640
22,16,19,Jits_Linear_5,75,9999,9999,9999,1680312432
22,16,19,Jits_Linear_5,76,9999,9999,9999,1680942208
22,16,19,Jits_Linear_5,77,9999,9999,9999,1681572968
22,16,19,Jits_Linear_5,78,9999,9999,9999,1682202748
22,16,19,Jits_Linear_5,79,9999,9999,9999,1682832452
22,16,19,Jits_Linear_5,80,9999,9999,9999,1683472480
22,16,19,Jits_Linear_5,81,9999,9999,9999,1684112488
22,16,19,Jits_Linear_5,82,9999,9999,9999,1684752436
22,16,19,Jits_Linear_5,83,9999,9999,9999,1685392444
22,16,19,Jits_Linear_5,84,9999,9999,9999,1686032488
22,16,19,Jits_Linear_5,85,9999,9999,9999,1686682684
22,16,19,Jits_Linear_5,86,9999,9999,9999,1687332936
22,16,19,Jits_Linear_5,87,9999,9999,9999,1687982208
22,16,19,Jits_Linear_5,88,9999,9999,9999,1688632376
22,16,19,Jits_Linear_5,89,9999,9999,9999,1689282648
22,16,19,Jits_Linear_5,90,9999,9999,9999,1689942072
22,16,19,Jits_Linear_5,91,9999,9999,9999,1690602584
22,16,19,Jits_Linear_5,92,9999,9999,9999,1691263064
22,16,19,Jits_Linear_5,93,9999,9999,9999,1691922512
22,16,19,Jits_Linear_5,94,9999,9999,9999,1692583024
22,16,19,Jits_Linear_5,95,9999,9999,9999,1693252692
22,16,19,Jits_Linear_5,96,9999,9999,9999,1693922384
22,16,19,Jits_Linear_5,97,9999,9999,9999,1694592124
22,16,19,Jits_Linear_5,98,9999,9999,9999,1695262804
22,16,19,Jits_Linear_5,99,9999,9999,9999,1695932492
22,16,19,Jits_Linear_5,100,9999,9999,9999,1696612476
22,16,19,Jits_Linear_5,101,9999,9999,9999,1697292408
22,16,19,Jits_Linear_5,102,9999,9999,9999,1697972328
22,16,19,Jits_Linear_5,103,9999,9999,9999,1698652240
22,16,19,Jits_Linear_5,104,9999,9999,9999,1699332168
22,16,19,Jits_Linear_5,105,9999,9999,9999,1700022336
22,16,19,Jits_Linear_5,106,9999,9999,9999,1700712560
22,16,19,Jits_Linear_5,107,9999,9999,9999,1701402736
22,16,19,Jits_Linear_5,108,9999,9999,9999,1702092900
22,16,19,Jits_Linear_5,109,9999,9999,9999,1702783052
22,16,19,Jits_Linear_5,110,9999,9999,9999,1703482492
22,16,19,Jits_Linear_5,111,9999,9999,9999,1704182844
22,16,19,Jits_Linear_5,112,9999,9999,9999,1704882280
22,16,19,Jits_Linear_5,113,9999,9999,9999,1705582688
22,16,19,Jits_Linear_5,114,9999,9999,9999,1706283100
22,16,19,Jits_Linear_5,115,9999,9999,9999,1707002992
22,16,19,Jits_Linear_5,116,9999,9999,9999,1707712580
22,16,19,Jits_Linear_5,117,9999,9999,9999,1708422232
22,16,19,Jits_Linear_5,118,9999,9999,9999,1709132908
22,16,19,Jits_Linear_5,119,9999,9999,9999,1709842492
22,16,19,Jits_Linear_5,120,9999,9999,9999,1710562408
22,16,19,Jits_Linear_5,121,9999,9999,9999,1711282240
22,16,19,Jits_Linear_5,122,9999,9999,9999,1712002132
22,16,19,Jits_Linear_5,123,9999,9999,9999,1712723028
22,16,19,Jits_Linear_5,124,9999,9999,9999,1713442908
22,16,19,Jits_Linear_5,125,9999,9999,9999,1714173040
22,16,19,Jits_Linear_5,126,9999,9999,9999,1714902120
22,16,19,Jits_Linear_5,127,9999,9999,9999,1715632184
22,16,19,Jits_Linear_5,128,9999,9999,9999,1716362308
22,16,19,Jits_Linear_5,129,9999,9999,9999,1717092472
22,16,19,Jits_Linear_5,130,9999,9999,9999,1717832800
22,16,19,Jits_Linear_5,131,9999,9999,9999,1718572120
22,16,19,Jits_Linear_5,132,9999,9999,9999,1719312444
22,16,19,Jits_Linear_5,133,9999,9999,9999,1720052836
22,16,19,Jits_Linear_5,134,9999,9999,9999,1720792148
22,16,19,Jits_Linear_5,135,9999,9999,9999,1721542776
22,16,19,Jits_Linear_5,136,9999,9999,9999,1722292280
22,16,19,Jits_Linear_5,137,9999,9999,9999,1723042908
22,16,19,Jits_Linear_5,138,9999,9999,9999,1723792444
22,16,19,Jits_Linear_5,139,9999,9999,9999,1724543088
22,16,19,Jits_Linear_5,140,9999,9999,9999,1725302892
22,16,19,Jits_Linear_5,141,9999,9999,9999,1726062712
22,16,19,Jits_Linear_5,142,9999,9999,9999,1726822452
22,16,19,Jits_Linear_5,143,9999,9999,9999,1727582336
22,16,19,Jits_Linear_5,144,9999,9999,9999,1728342136
22,16,19,Jits_Linear_5,145,9999,9999,9999,1729112188
22,16,19,Jits_Linear_5,146,9999,9999,9999,1729882176
22,16,19,Jits_Linear_5,147,9999,9999,9999,1730652224
22,16,19,Jits_Linear_5,148,9999,9999,9999,1731422264
22,16,19,Jits_Linear_5,149,9999,9999,9999,1732192324
22,16,19,Jits_Linear_5,150,9999,9999,9999,1732972616
22,16,19,Jits_Linear_5,151,9999,9999,9999,1733752896
22,16,19,Jits_Linear_5,152,9999,9999,9999,1734532192
22,16,19,Jits_Linear_5,153,9999,9999,9999,1735312484
22,16,19,Jits_Linear_5,154,9999,9999,9999,1736092788
22,16,19,Jits_Linear_5,155,9999,9999,9999,1736882248
22,16,19,Jits_Linear_5,156,9999,9999,9999,1737672768
22,16,19,Jits_Linear_5,157,9999,9999,9999,1738462296
22,16,19,Jits_Linear_5,158,9999,9999,9999,1739252828
22,16,19,Jits_Linear_5,159,9999,9999,9999,1740042364
22,16,19,Jits_Linear_5,160,9999,9999,9999,1740843076
22,16,19,Jits_Linear_5,161,9999,9999,9999,1741653100
22,16,19,Jits_Linear_5,162,9999,9999,9999,1742452796
22,16,19,Jits_Linear_5,163,9999,9999,9999,1743252540
22,16,19,Jits_Linear_5,164,9999,9999,9999,1744052320
22,16,19,Jits_Linear_5,165,9999,9999,9999,1744862268
22,16,19,Jits_Linear_5,166,9999,9999,9999,1745672284
22,16,19,Jits_Linear_5,167,9999,9999,9999,1746482304
22,16,19,Jits_Linear_5,168,9999,9999,9999,1747292252
22,16,19,Jits_Linear_5,169,9999,9999,9999,1748102268
22,17,7,Jits_ISO_8,0,5,56,103,1764068852
22,17,7,Jits_ISO_8,1,5,63,98,1764072008
22,17,7,Jits_ISO_8,2,5,80,127,1764075040
22,17,7,Jits_ISO_8,0,5,56,103,1764868736
22,17,7,Jits_ISO_8,1,5,63,98,1764871736
22,17,7,Jits_ISO_8,2,5,80,127,1764874768
22,17,7,Jits_ISO_8,0,5,80,127,1765608784
22,17,7,Jits_ISO_8,1,5,63,98,1765698824
22,17,7,Jits_ISO_8,2,5,56,103,1765709068
22,17,7,Jits_ISO_8,3,1,48,53,1765720428
22,17,7,Jits_ISO_8,0,5,56,103,1766429028
22,17,7,Jits_ISO_8,1,5,63,98,1766439272
22,17,7,Jits_ISO_8,2,1,48,57,1766495644
22,17,7,Jits_ISO_8,3,5,80,127,1766529452
22,17,7,Jits_ISO_8,0,5,63,98,1767199356
22,17,7,Jits_ISO_8,1,1,48,60,1767218596
22,17,7,Jits_ISO_8,2,5,80,127,1767228704
22,17,7,Jits_ISO_8,3,5,56,103,1767258516
22,17,7,Jits_ISO_8,0,1,48,60,1767978964
22,17,7,Jits_ISO_8,1,5,56,103,1767998860
22,17,7,Jits_ISO_8,2,5,80,127,1768099152
22,17,7,Jits_ISO_8,3,5,63,98,1768149520
22,17,7,Jits_ISO_8,0,5,56,103,1768798540
22,17,7,Jits_ISO_8,1,1,48,50,1768846904
22,17,7,Jits_ISO_8,2,5,80,127,1768848676
22,17,7,Jits_ISO_8,3,5,63,98,1768888752
22,17,7,Jits_ISO_8,0,1,48,53,1769625724
22,17,7,Jits_ISO_8,1,5,80,127,1769629268
22,17,7,Jits_ISO_8,2,5,63,98,1769658852
22,17,7,Jits_ISO_8,3,5,56,103,1769729460
22,17,7,Jits_ISO_8,0,5,63,98,1770458452
22,17,7,Jits_ISO_8,1,1,48,48,1770460120
22,17,7,Jits_ISO_8,2,5,56,103,1770489172
22,17,7,Jits_ISO_8,3,5,80,127,1770548484
22,17,7,Jits_ISO_8,0,5,56,103,1771198724
22,17,7,Jits_ISO_8,1,5,80,127,1771201700
22,17,7,Jits_ISO_8,2,1,48,46,1771301720
22,17,7,Jits_ISO_8,3,5,63,98,1771318564
22,17,7,Jits_ISO_8,0,1,48,50,1772058916
22,17,7,Jits_ISO_8,1,5,56,103,1772078504
22,17,7,Jits_ISO_8,2,5,80,127,1772119472
22,17,7,Jits_ISO_8,3,5,63,98,1772128724
22,17,7,Jits_ISO_8,0,5,56,103,1772839204
22,17,7,Jits_ISO_8,1,5,80,127,1772858772
22,17,7,Jits_ISO_8,2,1,48,53,1772877700
22,17,7,Jits_ISO_8,3,5,63,98,1772938560
22,17,7,Jits_ISO_8,0,5,80,127,1773628872
22,17,7,Jits_ISO_8,1,1,48,53,1773674852
22,17,7,Jits_ISO_8,2,5,56,103,1773729172
22,17,7,Jits_ISO_8,3,5,63,98,1773739340
22,17,7,Jits_ISO_8,0,5,63,98,1774398752
22,17,7,Jits_ISO_8,1,5,80,127,1774459440
22,17,7,Jits_ISO_8,2,5,56,103,1774468464
22,17,7,Jits_ISO_8,3,1,48,51,1774512932
22,17,7,Jits_ISO_8,0,5,56,103,1775198644
22,17,7,Jits_ISO_8,1,1,48,53,1775257120
22,17,7,Jits_ISO_8,2,5,63,98,1775269208
22,17,7,Jits_ISO_8,3,5,80,127,1775272484
22,17,7,Jits_ISO_8,0,1,48,47,1776014028
22,17,7,Jits_ISO_8,1,5,63,98,1776029288
22,17,7,Jits_ISO_8,2,5,56,103,1776079352
22,17,7,Jits_ISO_8,3,5,80,127,1776082176
22,17,7,Jits_ISO_8,0,5,56,103,1776788980
22,17,7,Jits_ISO_8,1,5,80,127,1776792104
22,17,7,Jits_ISO_8,2,1,48,50,1776855132
22,17,7,Jits_ISO_8,3,5,63,98,1776879080
22,17,7,Jits_ISO_8,0,5,63,98,1777628552
22,17,7,Jits_ISO_8,1,1,48,49,1777637548
22,17,7,Jits_ISO_8,2,5,56,103,1777718812
22,17,7,Jits_ISO_8,3,5,80,127,1777749296
22,17,7,Jits_ISO_8,0,5,56,103,1778418980
22,17,7,Jits_ISO_8,1,1,48,48,1778469700
22,17,7,Jits_ISO_8,2,5,63,98,1778519404
22,17,7,Jits_ISO_8,3,5,80,127,1778549140
22,17,7,Jits_ISO_8,0,5,63,98,1779239228
22,17,7,Jits_ISO_8,1,5,56,103,1779248480
22,17,7,Jits_ISO_8,2,1,48,51,1779275272
22,17,7,Jits_ISO_8,3,5,80,127,1779338736
22,17,7,Jits_ISO_8,0,1,48,52,1780053080
22,17,7,Jits_ISO_8,1,5,63,98,1780058384
22,17,7,Jits_ISO_8,2,5,56,103,1780139348
22,17,7,Jits_ISO_8,3,5,80,127,1780142472
22,17,7,Jits_ISO_8,0,5,80,127,1780819380
22,17,7,Jits_ISO_8,1,5,63,98,1780838872
22,17,7,Jits_ISO_8,2,1,48,50,1780879812
22,17,7,Jits_ISO_8,3,5,56,103,1780899196
22,17,7,Jits_ISO_8,0,1,48,44,1781658836
22,17,7,Jits_ISO_8,1,5,56,103,1781660424
22,17,7,Jits_ISO_8,2,5,63,98,1781678468
22,17,7,Jits_ISO_8,3,5,80,127,1781682048
22,17,7,Jits_ISO_8,0,5,63,98,1782399460
22,17,7,Jits_ISO_8,1,1,48,48,1782473824
22,17,7,Jits_ISO_8,2,5,80,127,1782479200
22,17,7,Jits_ISO_8,3,5,56,103,1782488528
22,17,7,Jits_ISO_8,0,5,63,98,1783218648
22,17,7,Jits_ISO_8,1,1,48,47,1783231076
22,17,7,Jits_ISO_8,2,5,56,103,1783238972
22,17,7,Jits_ISO_8,3,5,80,127,1783289192
22,17,7,Jits_ISO_8,0,5,80,127,1784019384
22,17,7,Jits_ISO_8,1,1,48,48,1784024092
22,17,7,Jits_ISO_8,2,5,63,98,1784059200
22,17,7,Jits_ISO_8,3,5,56,103,1784078772
22,17,7,Jits_ISO_8,0,5,56,103,1784858964
22,17,7,Jits_ISO_8,1,5,63,98,1784869132
22,17,7,Jits_ISO_8,2,1,48,47,1784873304
22,17,7,Jits_ISO_8,3,5,80,127,1784888772
22,17,7,Jits_ISO_8,0,5,56,103,1785589016
22,17,7,Jits_ISO_8,1,5,63,98,1785679208
22,17,7,Jits_ISO_8,2,1,48,42,1785705696
22,17,7,Jits_ISO_8,3,5,80,127,1785738592
22,17,7,Jits_ISO_8,0,5,80,127,1786418740
22,17,7,Jits_ISO_8,1,5,56,103,1786428832
22,17,7,Jits_ISO_8,2,1,48,44,1786495444
22,17,7,Jits_ISO_8,3,5,63,98,1786498684
22,17,7,Jits_ISO_8,0,5,63,98,1787249000
22,17,7,Jits_ISO_8,1,1,48,44,1787292788
22,17,7,Jits_ISO_8,2,5,80,127,1787339132
22,17,7,Jits_ISO_8,3,5,56,103,1787349452
22,17,7,Jits_ISO_8,0,5,63,98,1787989508
22,17,7,Jits_ISO_8,1,5,80,127,1788038584
22,17,7,Jits_ISO_8,2,1,48,47,1788087040
22,17,7,Jits_ISO_8,3,5,56,103,1788098908
22,17,7,Jits_ISO_8,0,5,56,103,1788818784
22,17,7,Jits_ISO_8,1,5,80,127,1788869004
22,17,7,Jits_ISO_8,2,1,48,46,1788872184
22,17,7,Jits_ISO_8,3,5,63,98,1788888488
22,17,7,Jits_ISO_8,0,5,56,103,1789588888
22,17,7,Jits_ISO_8,1,5,80,127,1789649348
22,17,7,Jits_ISO_8,2,1,48,42,1789669192
22,17,7,Jits_ISO_8,3,5,63,98,1789718968
22,17,7,Jits_ISO_8,0,5,56,103,1790388496
22,17,7,Jits_ISO_8,1,5,80,127,1790419372
22,17,7,Jits_ISO_8,2,1,48,40,1790447876
22,17,7,Jits_ISO_8,3,5,63,98,1790449552
22,17,7,Jits_ISO_8,0,5,56,103,1791229444
22,17,7,Jits_ISO_8,1,1,48,42,1791236136
22,17,7,Jits_ISO_8,2,5,80,127,1791248780
22,17,7,Jits_ISO_8,3,5,63,98,1791309388
22,17,7,Jits_ISO_8,0,1,48,44,1792107776
22,17,7,Jits_ISO_8,1,5,80,127,1792109528
22,17,7,Jits_ISO_8,2,5,56,103,1792119240
22,17,7,Jits_ISO_8,3,5,63,98,1792129564
22,17,7,Jits_ISO_8,0,5,56,103,1792868632
22,17,7,Jits_ISO_8,1,5,80,127,1792908684
22,17,7,Jits_ISO_8,2,1,48,46,1792912956
22,17,7,Jits_ISO_8,3,5,63,98,1792939428
22,17,7,Jits_ISO_8,0,5,56,103,1793638740
22,17,7,Jits_ISO_8,1,5,63,98,1793668400
22,17,7,Jits_ISO_8,2,1,48,46,1793690024
22,17,7,Jits_ISO_8,3,5,80,127,1793709536
22,17,7,Jits_ISO_8,0,5,80,127,1794389352
22,17,7,Jits_ISO_8,1,5,63,98,1794438504
22,17,7,Jits_ISO_8,2,5,56,103,1794459240
22,17,7,Jits_ISO_8,3,1,48,40,1794475028
22,17,7,Jits_ISO_8,0,5,56,103,1795218792
22,17,7,Jits_ISO_8,1,1,48,51,1795231832
22,17,7,Jits_ISO_8,2,5,80,127,1795288340
22,17,7,Jits_ISO_8,3,5,63,98,1795348780
22,17,7,Jits_ISO_8,0,5,80,127,1796018628
22,17,7,Jits_ISO_8,1,5,63,98,1796108592
22,17,7,Jits_ISO_8,2,1,48,40,1796127068
22,17,7,Jits_ISO_8,3,5,56,103,1796128996
22,17,7,Jits_ISO_8,0,5,63,98,1796838952
22,17,7,Jits_ISO_8,1,5,56,103,1796859212
22,17,7,Jits_ISO_8,2,5,80,127,1796899184
22,17,7,Jits_ISO_8,3,1,48,46,1796906256
22,17,7,Jits_ISO_8,0,5,80,127,1797598496
22,17,7,Jits_ISO_8,1,5,63,98,1797619208
22,17,7,Jits_ISO_8,2,1,48,41,1797681008
22,17,7,Jits_ISO_8,3,5,56,103,1797698996
22,17,7,Jits_ISO_8,0,5,63,98,1798389000
22,17,7,Jits_ISO_8,1,1,48,43,1798433752
22,17,7,Jits_ISO_8,2,5,56,103,1798498748
22,17,7,Jits_ISO_8,3,5,80,127,1798501948
22,17,7,Jits_ISO_8,0,5,63,98,1799209220
22,17,7,Jits_ISO_8,1,5,56,103,1799218464
22,17,7,Jits_ISO_8,2,5,80,127,1799221900
22,17,7,Jits_ISO_8,3,1,48,51,1799233648
22,17,7,Jits_ISO_8,0,5,56,103,1799988768
22,17,7,Jits_ISO_8,1,1,48,48,1800008772
22,17,7,Jits_ISO_8,2,5,80,127,1800109532
22,17,7,Jits_ISO_8,3,5,63,98,1800149432
22,17,7,Jits_ISO_8,0,5,56,103,1800808864
22,17,7,Jits_ISO_8,1,1,48,47,1800877124
22,17,7,Jits_ISO_8,2,5,80,127,1800888756
22,17,7,Jits_ISO_8,3,5,63,98,1800909088
22,17,7,Jits_ISO_8,0,5,56,103,1801608624
22,17,7,Jits_ISO_8,1,1,48,43,1801698048
22,17,7,Jits_ISO_8,2,5,63,98,1801719236
22,17,7,Jits_ISO_8,3,5,80,127,1801722588
22,17,7,Jits_ISO_8,0,5,56,103,1802439052
22,17,7,Jits_ISO_8,1,5,80,127,1802468860
22,17,7,Jits_ISO_8,2,1,48,41,1802485108
22,17,7,Jits_ISO_8,3,5,63,98,1802489340
22,17,7,Jits_ISO_8,0,5,63,98,1803219244
22,17,7,Jits_ISO_8,1,5,56,103,1803228572
22,17,7,Jits_ISO_8,2,5,80,127,1803238968
22,17,7,Jits_ISO_8,3,1,48,44,1803300384
22,17,7,Jits_ISO_8,0,5,80,127,1804008892
22,17,7,Jits_ISO_8,1,1,48,43,1804053112
22,17,7,Jits_ISO_8,2,5,56,103,1804059024
22,17,7,Jits_ISO_8,3,5,63,98,1804098848
22,17,7,Jits_ISO_8,0,5,80,127,1804828984
22,17,7,Jits_ISO_8,1,5,63,98,1804848704
22,17,7,Jits_ISO_8,2,1,48,41,1804899148
22,17,7,Jits_ISO_8,3,5,56,103,1804900668
22,17,7,Jits_ISO_8,0,5,80,127,1805638980
22,17,7,Jits_ISO_8,1,5,56,103,1805668640
22,17,7,Jits_ISO_8,2,1,48,40,1805701400
22,17,7,Jits_ISO_8,3,5,63,98,1805739280
22,17,7,Jits_ISO_8,0,5,56,103,1806488760
22,17,7,Jits_ISO_8,1,1,48,39,1806493312
22,17,7,Jits_ISO_8,2,5,80,127,1806499300
22,17,7,Jits_ISO_8,3,5,63,98,1806539124
22,17,7,Jits_ISO_8,0,5,56,103,1807198608
22,17,7,Jits_ISO_8,1,5,63,98,1807219020
22,17,7,Jits_ISO_8,2,5,80,127,1807288600
22,17,7,Jits_ISO_8,3,1,48,39,1807327556
22,17,7,Jits_ISO_8,0,5,63,98,1808018800
22,17,7,Jits_ISO_8,1,5,80,127,1808079108
22,17,7,Jits_ISO_8,2,1,48,41,1808093448
22,17,7,Jits_ISO_8,3,5,56,103,1808098748
22,17,7,Jits_ISO_8,0,5,80,127,1808809372
22,17,7,Jits_ISO_8,1,5,56,103,1808839032
22,17,7,Jits_ISO_8,2,1,48,36,1808858576
22,17,7,Jits_ISO_8,3,5,63,98,1808868836
22,17,7,Jits_ISO_8,0,5,56,103,1809609128
22,17,7,Jits_ISO_8,1,1,48,32,1809660612
22,17,7,Jits_ISO_8,2,5,63,98,1809668512
22,17,7,Jits_ISO_8,3,5,80,127,1809728968
22,17,7,Jits_ISO_8,0,1,48,52,1810426728
22,17,7,Jits_ISO_8,1,5,80,127,1810429364
22,17,7,Jits_ISO_8,2,5,56,103,1810448708
22,17,7,Jits_ISO_8,3,5,63,98,1810519556
22,17,7,Jits_ISO_8,0,5,80,127,1811229044
22,17,7,Jits_ISO_8,1,5,63,98,1811248540
22,17,7,Jits_ISO_8,2,1,48,48,1811256216
22,17,7,Jits_ISO_8,3,5,56,103,1811279484
22,17,7,Jits_ISO_8,0,5,80,127,1812018560
22,17,7,Jits_ISO_8,1,5,63,98,1812038968
22,17,7,Jits_ISO_8,2,1,48,51,1812075620
22,17,7,Jits_ISO_8,3,5,56,103,1812098580
22,17,7,Jits_ISO_8,0,5,80,127,1812819540
22,17,7,Jits_ISO_8,1,1,48,41,1812876540
22,17,7,Jits_ISO_8,2,5,56,103,1812918544
22,17,7,Jits_ISO_8,3,5,63,98,1812949420
22,17,7,Jits_ISO_8,0,5,63,98,1813608756
22,17,7,Jits_ISO_8,1,5,80,127,1813659228
22,17,7,Jits_ISO_8,2,5,56,103,1813678568
22,17,7,Jits_ISO_8,3,1,48,50,1813728908
22,17,7,Jits_ISO_8,0,5,80,127,1814448424
22,17,7,Jits_ISO_8,1,5,56,103,1814479224
22,17,7,Jits_ISO_8,2,5,63,98,1814482424
22,17,7,Jits_ISO_8,3,1,48,45,1814492336
22,17,7,Jits_ISO_8,0,5,63,98,1815278900
22,17,7,Jits_ISO_8,1,1,48,43,1815302336
22,17,7,Jits_ISO_8,2,5,56,103,1815318792
22,17,7,Jits_ISO_8,3,5,80,127,1815339504
22,17,7,Jits_ISO_8,0,5,80,127,1816019336
22,17,7,Jits_ISO_8,1,5,63,98,1816099288
22,17,7,Jits_ISO_8,2,1,48,47,1816117532
22,17,7,Jits_ISO_8,3,5,56,103,1816139256
22,17,7,Jits_ISO_8,0,5,63,98,1816838440
22,17,7,Jits_ISO_8,1,1,48,48,1816919156
22,17,7,Jits_ISO_8,2,5,80,127,1816920744
22,17,7,Jits_ISO_8,3,5,56,103,1816938792
22,17,7,Jits_ISO_8,0,5,56,103,1817679232
22,17,7,Jits_ISO_8,1,5,63,98,1817688408
22,17,7,Jits_ISO_8,2,1,48,46,1817709396
22,17,7,Jits_ISO_8,3,5,80,127,1817729444
22,17,7,Jits_ISO_8,0,5,56,103,1818399116
22,17,7,Jits_ISO_8,1,5,80,127,1818402316
22,17,7,Jits_ISO_8,2,1,48,51,1818496692
22,17,7,Jits_ISO_8,3,5,63,98,1818539380
22,17,7,Jits_ISO_8,0,5,56,103,1819188624
22,17,7,Jits_ISO_8,1,5,63,98,1819278616
22,17,7,Jits_ISO_8,2,1,48,46,1819326040
22,17,7,Jits_ISO_8,3,5,80,127,1819349308
22,17,7,Jits_ISO_8,0,5,63,98,1820069276
22,17,7,Jits_ISO_8,1,5,80,127,1820072476
22,17,7,Jits_ISO_8,2,1,48,49,1820096920
22,17,7,Jits_ISO_8,3,5,56,103,1820128580
22,17,7,Jits_ISO_8,0,1,48,44,1820900560
22,17,7,Jits_ISO_8,1,5,80,127,1820908988
22,17,7,Jits_ISO_8,2,5,56,103,1820929476
22,17,7,Jits_ISO_8,3,5,63,98,1820938500
22,17,7,Jits_ISO_8,0,5,56,103,1821618556
22,17,7,Jits_ISO_8,1,5,63,98,1821629028
22,17,7,Jits_ISO_8,2,5,80,127,1821698428
22,17,7,Jits_ISO_8,3,1,48,47,1821754260
22,17,7,Jits_ISO_8,0,5,80,127,1822419232
22,17,7,Jits_ISO_8,1,5,56,103,1822468380
22,17,7,Jits_ISO_8,2,1,48,46,1822507016
22,17,7,Jits_ISO_8,3,5,63,98,1822518816
22,17,7,Jits_ISO_8,0,5,56,103,1823298944
22,17,7,Jits_ISO_8,1,5,63,98,1823309264
22,17,7,Jits_ISO_8,2,1,48,45,1823312288
22,17,7,Jits_ISO_8,3,5,80,127,1823349156
22,17,7,Jits_ISO_8,0,5,56,103,1824039316
22,17,7,Jits_ISO_8,1,5,63,98,1824079144
22,17,7,Jits_ISO_8,2,5,80,127,1824129508
22,17,7,Jits_ISO_8,3,1,48,49,1824214716
22,17,7,Jits_ISO_8,0,5,80,127,1824799028
22,17,7,Jits_ISO_8,1,5,56,103,1824849324
22,17,7,Jits_ISO_8,2,5,63,98,1824868892
22,17,7,Jits_ISO_8,3,1,48,44,1824959988
22,17,7,Jits_ISO_8,0,5,80,127,1825609100
22,17,7,Jits_ISO_8,1,5,63,98,1825668644
22,17,7,Jits_ISO_8,2,1,48,37,1825672208
22,17,7,Jits_ISO_8,3,5,56,103,1825749452
22,17,7,Jits_ISO_8,0,5,80,127,1826389372
22,17,7,Jits_ISO_8,1,5,56,103,1826429348
22,17,7,Jits_ISO_8,2,5,63,98,1826448716
22,17,7,Jits_ISO_8,3,1,48,43,1826482388
22,17,7,Jits_ISO_8,0,5,56,103,1827239372
22,17,7,Jits_ISO_8,1,5,80,127,1827248700
22,17,7,Jits_ISO_8,2,1,48,38,1827264792
22,17,7,Jits_ISO_8,3,5,63,98,1827288440
22,17,7,Jits_ISO_8,0,5,56,103,1828108612
22,17,7,Jits_ISO_8,1,1,48,44,1828148812
22,17,7,Jits_ISO_8,2,5,63,98,1828150280
22,17,7,Jits_ISO_8,3,5,80,127,1828153460
22,17,7,Jits_ISO_8,0,5,63,98,1828798764
22,17,7,Jits_ISO_8,1,5,80,127,1828838816
22,17,7,Jits_ISO_8,2,5,56,103,1828909516
22,17,7,Jits_ISO_8,3,1,48,43,1829005164
22,17,7,Jits_ISO_8,0,5,63,98,1829589460
22,17,7,Jits_ISO_8,1,5,56,103,1829669260
22,17,7,Jits_ISO_8,2,5,80,127,1829728572
22,17,7,Jits_ISO_8,3,1,48,44,1829731600
22,17,7,Jits_ISO_8,0,5,80,127,1830399448
22,17,7,Jits_ISO_8,1,1,48,46,1830447984
22,17,7,Jits_ISO_8,2,5,63,98,1830449732
22,17,7,Jits_ISO_8,3,5,56,103,1830479164
22,17,7,Jits_ISO_8,0,5,56,103,1831188964
22,17,7,Jits_ISO_8,1,5,63,98,1831239032
22,17,7,Jits_ISO_8,2,5,80,127,1831249276
22,17,7,Jits_ISO_8,3,1,48,48,1831272248
22,17,7,Jits_ISO_8,0,5,56,103,1831998884
22,17,7,Jits_ISO_8,1,1,48,46,1832103208
22,17,7,Jits_ISO_8,2,5,63,98,1832109652
22,17,7,Jits_ISO_8,3,5,80,127,1832128844
22,17,7,Jits_ISO_8,0,5,63,98,1832798648
22,17,7,Jits_ISO_8,1,5,80,127,1832848668
22,17,7,Jits_ISO_8,2,1,48,43,1832937312
22,17,7,Jits_ISO_8,3,5,56,103,1832939000
22,17,7,Jits_ISO_8,0,5,63,98,1833588996
22,17,7,Jits_ISO_8,1,5,80,127,1833618908
22,17,7,Jits_ISO_8,2,1,48,41,1833686148
22,17,7,Jits_ISO_8,3,5,56,103,1833708936
22,17,7,Jits_ISO_8,0,5,63,98,1834388840
22,17,7,Jits_ISO_8,1,5,56,103,1834399084
22,17,7,Jits_ISO_8,2,1,48,40,1834465920
22,17,7,Jits_ISO_8,3,5,80,127,1834498436
22,17,7,Jits_ISO_8,0,1,48,40,1835210944
22,17,7,Jits_ISO_8,1,5,63,98,1835289012
22,17,7,Jits_ISO_8,2,5,80,127,1835318576
22,17,7,Jits_ISO_8,3,5,56,103,1835349532
22,17,7,Jits_ISO_8,0,5,80,127,1836109256
22,17,7,Jits_ISO_8,1,5,63,98,1836119348
22,17,7,Jits_ISO_8,2,1,48,36,1836126588
22,17,7,Jits_ISO_8,3,5,56,103,1836148996
22,17,7,Jits_ISO_8,0,5,80,127,1836808664
22,17,7,Jits_ISO_8,1,5,63,98,1836829224
22,17,7,Jits_ISO_8,2,5,56,103,1836879520
22,17,7,Jits_ISO_8,3,1,48,41,1837002100
22,17,7,Jits_ISO_8,0,5,63,98,1837638992
22,17,7,Jits_ISO_8,1,1,48,30,1837643620
22,17,7,Jits_ISO_8,2,5,80,127,1837698452
22,17,7,Jits_ISO_8,3,5,56,103,1837718812
22,17,7,Jits_ISO_8,0,5,63,98,1838398764
22,17,7,Jits_ISO_8,1,5,56,103,1838449136
22,17,7,Jits_ISO_8,2,5,80,127,1838459380
22,17,7,Jits_ISO_8,3,1,48,29,1838476960
22,17,7,Jits_ISO_8,0,1,48,34,1839188316
22,17,7,Jits_ISO_8,1,5,56,103,1839229380
22,17,7,Jits_ISO_8,2,5,80,127,1839238480
22,17,7,Jits_ISO_8,3,5,63,98,1839338764
22,17,7,Jits_ISO_8,0,5,80,127,1839989308
22,17,7,Jits_ISO_8,1,5,63,98,1839999476
22,17,7,Jits_ISO_8,2,1,48,37,1840072768
22,17,7,Jits_ISO_8,3,5,56,103,1840148916
22,17,7,Jits_ISO_8,0,1,48,28,1840774436
22,17,7,Jits_ISO_8,1,5,63,98,1840799100
22,17,7,Jits_ISO_8,2,5,80,127,1840839076
22,17,7,Jits_ISO_8,3,5,56,103,1840919084
22,17,7,Jits_ISO_8,0,1,48,37,1841570612
22,17,7,Jits_ISO_8,1,5,56,103,1841588524
22,17,7,Jits_ISO_8,2,5,80,127,1841689092
22,17,7,Jits_ISO_8,3,5,63,98,1841709504
22,17,7,Jits_ISO_8,0,1,48,35,1842429444
22,17,7,Jits_ISO_8,1,5,80,127,1842448804
22,17,7,Jits_ISO_8,2,5,56,103,1842459124
22,17,7,Jits_ISO_8,3,5,63,98,1842549300
22,17,7,Jits_ISO_8,0,5,56,103,1843248564
22,17,7,Jits_ISO_8,1,1,48,42,1843265880
22,17,7,Jits_ISO_8,2,5,63,98,1843269044
22,17,7,Jits_ISO_8,3,5,80,127,1843348940
22,17,7,Jits_ISO_8,0,5,63,98,1843999100
22,17,7,Jits_ISO_8,1,5,56,103,1844089132
22,17,7,Jits_ISO_8,2,5,80,127,1844092112
22,17,7,Jits_ISO_8,3,1,48,39,1844130628
22,17,7,Jits_ISO_8,0,1,48,46,1844803080
22,17,7,Jits_ISO_8,1,5,56,103,1844828640
22,17,7,Jits_ISO_8,2,5,80,127,1844888896
22,17,7,Jits_ISO_8,3,5,63,98,1844899048
22,17,7,Jits_ISO_8,0,1,48,41,1845619040
22,17,7,Jits_ISO_8,1,5,80,127,1845678400
22,17,7,Jits_ISO_8,2,5,56,103,1845689024
22,17,7,Jits_ISO_8,3,5,63,98,1845691916
22,17,7,Jits_ISO_8,0,5,56,103,1846439312
22,17,7,Jits_ISO_8,1,5,80,127,1846448564
22,17,7,Jits_ISO_8,2,5,63,98,1846468976
22,17,7,Jits_ISO_8,3,1,48,36,1846515788
22,17,7,Jits_ISO_8,0,5,63,98,1847209336
22,17,7,Jits_ISO_8,1,5,80,127,1847268956
22,17,7,Jits_ISO_8,2,1,48,39,1847317792
22,17,7,Jits_ISO_8,3,5,56,103,1847319624
22,17,7,Jits_ISO_8,0,1,48,47,1848052612
22,17,7,Jits_ISO_8,1,5,63,98,1848088948
22,17,7,Jits_ISO_8,2,5,56,103,1848099272
22,17,7,Jits_ISO_8,3,5,80,127,1848149320
22,17,7,Jits_ISO_8,0,5,63,98,1848789344
22,17,7,Jits_ISO_8,1,5,80,127,1848808912
22,17,7,Jits_ISO_8,2,5,56,103,1848819156
22,17,7,Jits_ISO_8,3,1,48,36,1848893104
22,17,7,Jits_ISO_8,0,5,63,98,1849588992
22,17,7,Jits_ISO_8,1,5,80,127,1849592348
22,17,7,Jits_ISO_8,2,1,48,36,1849626640
22,17,7,Jits_ISO_8,3,5,56,103,1849629112
22,17,7,Jits_ISO_8,0,1,48,45,1850415060
22,17,7,Jits_ISO_8,1,5,63,98,1850458736
22,17,7,Jits_ISO_8,2,5,80,127,1850489464
22,17,7,Jits_ISO_8,3,5,56,103,1850498640
22,17,7,Jits_ISO_8,0,5,56,103,1851209040
22,17,7,Jits_ISO_8,1,5,80,127,1851238700
22,17,7,Jits_ISO_8,2,1,48,44,1851249068
22,17,7,Jits_ISO_8,3,5,63,98,1851268576
22,17,7,Jits_ISO_8,0,1,48,46,1852039568
22,17,7,Jits_ISO_8,1,5,63,98,1852109248
22,17,7,Jits_ISO_8,2,5,56,103,1852149204
22,17,7,Jits_ISO_8,3,5,80,127,1852152252
22,17,7,Jits_ISO_8,0,5,80,127,1852808616
22,17,7,Jits_ISO_8,1,5,56,103,1852888440
22,17,7,Jits_ISO_8,2,1,48,44,1852896600
22,17,7,Jits_ISO_8,3,5,63,98,1852938800
22,17,7,Jits_ISO_8,0,5,80,127,1853588760
22,17,7,Jits_ISO_8,1,5,56,103,1853609396
22,17,7,Jits_ISO_8,2,5,63,98,1853698592
22,17,7,Jits_ISO_8,3,1,48,45,1853745100
22,17,7,Jits_ISO_8,0,5,80,127,1854428564
22,17,7,Jits_ISO_8,1,5,63,98,1854468464
22,17,7,Jits_ISO_8,2,5,56,103,1854509584
22,17,7,Jits_ISO_8,3,1,48,39,1854528668
22,17,7,Jits_ISO_8,0,5,63,98,1855198740
22,17,7,Jits_ISO_8,1,5,80,127,1855258900
22,17,7,Jits_ISO_8,2,1,48,44,1855286468
22,17,7,Jits_ISO_8,3,5,56,103,1855288700
22,17,7,Jits_ISO_8,0,5,56,103,1855999400
22,17,7,Jits_ISO_8,1,1,48,47,1856012972
22,17,7,Jits_ISO_8,2,5,80,127,1856028976
22,17,7,Jits_ISO_8,3,5,63,98,1856119224
22,17,7,Jits_ISO_8,0,5,56,103,1856809556
22,17,7,Jits_ISO_8,1,1,48,46,1856909532
22,17,7,Jits_ISO_8,2,5,80,127,1856918800
22,17,7,Jits_ISO_8,3,5,63,98,1856948608
22,17,7,Jits_ISO_8,0,5,56,103,1857659308
22,17,7,Jits_ISO_8,1,5,63,98,1857718724
22,17,7,Jits_ISO_8,2,5,80,127,1857749452
22,17,7,Jits_ISO_8,3,1,48,46,1857763324
22,17,7,Jits_ISO_8,0,5,56,103,1858429488
22,17,7,Jits_ISO_8,1,5,63,98,1858498844
22,17,7,Jits_ISO_8,2,5,80,127,1858519404
22,17,7,Jits_ISO_8,3,1,48,43,1858554224
22,17,7,Jits_ISO_8,0,5,80,127,1859199368
22,17,7,Jits_ISO_8,1,5,63,98,1859218736
22,17,7,Jits_ISO_8,2,5,56,103,1859268876
22,17,7,Jits_ISO_8,3,1,48,44,1859340308
22,17,7,Jits_ISO_8,0,9999,9999,9999,1764466792
22,17,7,Jits_ISO_8,1,9999,9999,9999,1765266548
22,17,7,Jits_ISO_8,2,9999,9999,9999,1766066268
22,17,7,Jits_ISO_8,3,9999,9999,9999,1766867020
22,17,7,Jits_ISO_8,4,9999,9999,9999,1767666772
22,17,7,Jits_ISO_8,5,9999,9999,9999,1768466524
22,17,7,Jits_ISO_8,6,9999,9999,9999,1769266264
22,17,7,Jits_ISO_8,7,9999,9999,9999,1770067016
22,17,7,Jits_ISO_8,8,9999,9999,9999,1770866768
22,17,7,Jits_ISO_8,9,9999,9999,9999,1771666524
22,17,7,Jits_ISO_8,10,9999,9999,9999,1772466292
22,17,7,Jits_ISO_8,11,9999,9999,9999,1773267032
22,17,7,Jits_ISO_8,12,9999,9999,9999,1774066796
22,17,7,Jits_ISO_8,13,9999,9999,9999,1774866552
22,17,7,Jits_ISO_8,14,9999,9999,9999,1775666284
22,17,7,Jits_ISO_8,15,9999,9999,9999,1776467028
22,17,7,Jits_ISO_8,16,9999,9999,9999,1777266760
22,17,7,Jits_ISO_8,17,9999,9999,9999,1778066552
22,17,7,Jits_ISO_8,18,9999,9999,9999,1778866224
22,17,7,Jits_ISO_8,19,9999,9999,9999,1779667056
22,17,7,Jits_ISO_8,20,9999,9999,9999,1780466800
22,17,7,Jits_ISO_8,21,9999,9999,9999,1781266544
22,17,7,Jits_ISO_8,22,9999,9999,9999,1782066296
22,17,7,Jits_ISO_8,23,9999,9999,9999,1782867032
22,17,7,Jits_ISO_8,24,9999,9999,9999,1783666780
22,17,7,Jits_ISO_8,25,9999,9999,9999,1784466548
22,17,7,Jits_ISO_8,26,9999,9999,9999,1785266236
22,17,7,Jits_ISO_8,27,9999,9999,9999,1786067060
22,17,7,Jits_ISO_8,28,9999,9999,9999,1786866744
22,17,7,Jits_ISO_8,29,9999,9999,9999,1787666512
22,17,7,Jits_ISO_8,30,9999,9999,9999,1788466256
22,17,7,Jits_ISO_8,31,9999,9999,9999,1789266996
22,17,7,Jits_ISO_8,32,9999,9999,9999,1790066752
22,17,7,Jits_ISO_8,33,9999,9999,9999,1790866532
22,17,7,Jits_ISO_8,34,9999,9999,9999,1791666292
22,17,7,Jits_ISO_8,35,9999,9999,9999,1792467056
22,17,7,Jits_ISO_8,36,9999,9999,9999,1793266808
22,17,7,Jits_ISO_8,37,9999,9999,9999,1794066496
22,17,7,Jits_ISO_8,38,9999,9999,9999,1794866248
22,17,7,Jits_ISO_8,39,9999,9999,9999,1795667000
22,17,7,Jits_ISO_8,40,9999,9999,9999,1796466768
22,17,7,Jits_ISO_8,41,9999,9999,9999,1797266552
22,17,7,Jits_ISO_8,42,9999,9999,9999,1798066292
22,17,7,Jits_ISO_8,43,9999,9999,9999,1798867036
22,17,7,Jits_ISO_8,44,9999,9999,9999,1799666764
22,17,7,Jits_ISO_8,45,9999,9999,9999,1800466512
22,17,7,Jits_ISO_8,46,9999,9999,9999,1801266272
22,17,7,Jits_ISO_8,47,9999,9999,9999,1802067016
22,17,7,Jits_ISO_8,48,9999,9999,9999,1802866776
22,17,7,Jits_ISO_8,49,9999,9999,9999,1803666556
22,17,7,Jits_ISO_8,50,9999,9999,9999,1804466300
22,17,7,Jits_ISO_8,51,9999,9999,9999,1805267048
22,17,7,Jits_ISO_8,52,9999,9999,9999,1806066812
22,17,7,Jits_ISO_8,53,9999,9999,9999,1806866500
22,17,7,Jits_ISO_8,54,9999,9999,9999,1807666256
22,17,7,Jits_ISO_8,55,9999,9999,9999,1808467012
22,17,7,Jits_ISO_8,56,9999,9999,9999,1809266756
22,17,7,Jits_ISO_8,57,9999,9999,9999,1810066536
22,17,7,Jits_ISO_8,58,9999,9999,9999,1810866300
22,17,7,Jits_ISO_8,59,9999,9999,9999,1811667036
22,17,7,Jits_ISO_8,60,9999,9999,9999,1812466792
22,17,7,Jits_ISO_8,61,9999,9999,9999,1813266484
22,17,7,Jits_ISO_8,62,9999,9999,9999,1814066236
22,17,7,Jits_ISO_8,63,9999,9999,9999,1814867040
22,17,7,Jits_ISO_8,64,9999,9999,9999,1815666808
22,17,7,Jits_ISO_8,65,9999,9999,9999,1816466508
22,17,7,Jits_ISO_8,66,9999,9999,9999,1817266272
22,17,7,Jits_ISO_8,67,9999,9999,9999,1818067012
22,17,7,Jits_ISO_8,68,9999,9999,9999,1818866760
22,17,7,Jits_ISO_8,69,9999,9999,9999,1819666520
22,17,7,Jits_ISO_8,70,9999,9999,9999,1820466276
22,17,7,Jits_ISO_8,71,9999,9999,9999,1821267020
22,17,7,Jits_ISO_8,72,9999,9999,9999,1822066764
22,17,7,Jits_ISO_8,73,9999,9999,9999,1822866548
22,17,7,Jits_ISO_8,74,9999,9999,9999,1823666240
22,17,7,Jits_ISO_8,75,9999,9999,9999,1824466996
22,17,7,Jits_ISO_8,76,9999,9999,9999,1825266752
22,17,7,Jits_ISO_8,77,9999,9999,9999,1826066512
22,17,7,Jits_ISO_8,78,9999,9999,9999,1826866268
22,17,7,Jits_ISO_8,79,9999,9999,9999,1827667020
22,17,7,Jits_ISO_8,80,9999,9999,9999,1828466780
22,17,7,Jits_ISO_8,81,9999,9999,9999,1829266540
22,17,7,Jits_ISO_8,82,9999,9999,9999,1830066284
22,17,7,Jits_ISO_8,83,9999,9999,9999,1830867020
22,17,7,Jits_ISO_8,84,9999,9999,9999,1831666776
22,17,7,Jits_ISO_8,85,9999,9999,9999,1832466540
22,17,7,Jits_ISO_8,86,9999,9999,9999,1833266224
22,17,7,Jits_ISO_8,87,9999,9999,9999,1834067036
22,17,7,Jits_ISO_8,88,9999,9999,9999,1834866776
22,17,7,Jits_ISO_8,89,9999,9999,9999,1835666480
22,17,7,Jits_ISO_8,90,9999,9999,9999,1836466236
22,17,7,Jits_ISO_8,91,9999,9999,9999,1837267060
22,17,7,Jits_ISO_8,92,9999,9999,9999,1838066748
22,17,7,Jits_ISO_8,93,9999,9999,9999,1838866488
22,17,7,Jits_ISO_8,94,9999,9999,9999,1839666236
22,17,7,Jits_ISO_8,95,9999,9999,9999,1840467048
22,17,7,Jits_ISO_8,96,9999,9999,9999,1841266808
22,17,7,Jits_ISO_8,97,9999,9999,9999,1842066500
22,17,7,Jits_ISO_8,98,9999,9999,9999,1842866252
22,17,7,Jits_ISO_8,99,9999,9999,9999,1843667068
22,17,7,Jits_ISO_8,100,9999,9999,9999,1844466740
22,17,7,Jits_ISO_8,101,9999,9999,9999,1845266488
22,17,7,Jits_ISO_8,102,9999,9999,9999,1846066228
22,17,7,Jits_ISO_8,103,9999,9999,9999,1846867036
22,17,7,Jits_ISO_8,104,9999,9999,9999,1847666796
22,17,7,Jits_ISO_8,105,9999,9999,9999,1848466500
22,17,7,Jits_ISO_8,106,9999,9999,9999,1849266236
22,17,7,Jits_ISO_8,107,9999,9999,9999,1850067028
22,17,7,Jits_ISO_8,108,9999,9999,9999,1850866780
22,17,7,Jits_ISO_8,109,9999,9999,9999,1851666520
22,17,7,Jits_ISO_8,110,9999,9999,9999,1852466280
22,17,7,Jits_ISO_8,111,9999,9999,9999,1853267020
22,17,7,Jits_ISO_8,112,9999,9999,9999,1854066772
22,17,7,Jits_ISO_8,113,9999,9999,9999,1854866556
22,17,7,Jits_ISO_8,114,9999,9999,9999,1855666236
22,17,7,Jits_ISO_8,115,9999,9999,9999,1856467048
22,17,7,Jits_ISO_8,116,9999,9999,9999,1857266740
22,17,7,Jits_ISO_8,117,9999,9999,9999,1858066504
22,17,7,Jits_ISO_8,118,9999,9999,9999,1858866268
22,17,7,Jits_ISO_8,119,9999,9999,9999,1859667016
22,18,16,Jits_ISO_5,0,5,56,103,1873823160
22,18,16,Jits_ISO_5,1,5,63,98,1873826396
22,18,16,Jits_ISO_5,2,5,80,127,1873829572
22,18,16,Jits_ISO_5,0,5,56,103,1874322888
22,18,16,Jits_ISO_5,1,5,63,98,1874325972
22,18,16,Jits_ISO_5,2,5,80,127,1874329000
22,18,16,Jits_ISO_5,3,1,48,46,1874460108
22,18,16,Jits_ISO_5,0,5,56,103,1874822700
22,18,16,Jits_ISO_5,1,5,80,127,1874832668
22,18,16,Jits_ISO_5,2,5,63,98,1874853228
22,18,16,Jits_ISO_5,3,1,48,52,1874873760
22,18,16,Jits_ISO_5,0,5,63,98,1875273092
22,18,16,Jits_ISO_5,1,5,80,127,1875302672
22,18,16,Jits_ISO_5,2,5,56,103,1875313068
22,18,16,Jits_ISO_5,3,1,48,53,1875370144
22,18,16,Jits_ISO_5,0,1,48,48,1875817128
22,18,16,Jits_ISO_5,1,5,80,127,1875833128
22,18,16,Jits_ISO_5,2,5,56,103,1875842532
22,18,16,Jits_ISO_5,3,5,63,98,1875873056
22,18,16,Jits_ISO_5,0,5,63,98,1876322724
22,18,16,Jits_ISO_5,1,1,48,46,1876330176
22,18,16,Jits_ISO_5,2,5,56,103,1876353596
22,18,16,Jits_ISO_5,3,5,80,127,1876362720
22,18,16,Jits_ISO_5,0,5,56,103,1876773252
22,18,16,Jits_ISO_5,1,5,63,98,1876823472
22,18,16,Jits_ISO_5,2,1,48,47,1876831928
22,18,16,Jits_ISO_5,3,5,80,127,1876842952
22,18,16,Jits_ISO_5,0,5,80,127,1877272864
22,18,16,Jits_ISO_5,1,1,48,46,1877297288
22,18,16,Jits_ISO_5,2,5,63,98,1877323148
22,18,16,Jits_ISO_5,3,5,56,103,1877362968
22,18,16,Jits_ISO_5,0,5,56,103,1877772548
22,18,16,Jits_ISO_5,1,5,63,98,1877803352
22,18,16,Jits_ISO_5,2,1,48,48,1877833896
22,18,16,Jits_ISO_5,3,5,80,127,1877873044
22,18,16,Jits_ISO_5,0,5,56,103,1878273604
22,18,16,Jits_ISO_5,1,1,48,48,1878303236
22,18,16,Jits_ISO_5,2,5,80,127,1878332756
22,18,16,Jits_ISO_5,3,5,63,98,1878362412
22,18,16,Jits_ISO_5,0,5,56,103,1878792552
22,18,16,Jits_ISO_5,1,5,63,98,1878802796
22,18,16,Jits_ISO_5,2,1,48,45,1878818728
22,18,16,Jits_ISO_5,3,5,80,127,1878842684
22,18,16,Jits_ISO_5,0,5,63,98,1879283440
22,18,16,Jits_ISO_5,1,1,48,47,1879287156
22,18,16,Jits_ISO_5,2,5,80,127,1879363076
22,18,16,Jits_ISO_5,3,5,56,103,1879373320
22,18,16,Jits_ISO_5,0,1,48,46,1879790560
22,18,16,Jits_ISO_5,1,5,63,98,1879832944
22,18,16,Jits_ISO_5,2,5,56,103,1879872916
22,18,16,Jits_ISO_5,3,5,80,127,1879875964
22,18,16,Jits_ISO_5,0,5,56,103,1880292720
22,18,16,Jits_ISO_5,1,5,63,98,1880302888
22,18,16,Jits_ISO_5,2,1,48,41,1880315468
22,18,16,Jits_ISO_5,3,5,80,127,1880342928
22,18,16,Jits_ISO_5,0,5,56,103,1880783612
22,18,16,Jits_ISO_5,1,5,63,98,1880786504
22,18,16,Jits_ISO_5,2,5,80,127,1880802716
22,18,16,Jits_ISO_5,3,1,48,43,1880814228
22,18,16,Jits_ISO_5,0,5,80,127,1881293220
22,18,16,Jits_ISO_5,1,5,56,103,1881303312
22,18,16,Jits_ISO_5,2,1,48,43,1881306340
22,18,16,Jits_ISO_5,3,5,63,98,1881373156
22,18,16,Jits_ISO_5,0,5,63,98,1881782736
22,18,16,Jits_ISO_5,1,5,56,103,1881803372
22,18,16,Jits_ISO_5,2,1,48,45,1881832928
22,18,16,Jits_ISO_5,3,5,80,127,1881883080
22,18,16,Jits_ISO_5,0,5,56,103,1882292648
22,18,16,Jits_ISO_5,1,1,48,41,1882303244
22,18,16,Jits_ISO_5,2,5,80,127,1882332464
22,18,16,Jits_ISO_5,3,5,63,98,1882342860
22,18,16,Jits_ISO_5,0,5,80,127,1882783160
22,18,16,Jits_ISO_5,1,1,48,47,1882806972
22,18,16,Jits_ISO_5,2,5,63,98,1882812732
22,18,16,Jits_ISO_5,3,5,56,103,1882852708
22,18,16,Jits_ISO_5,0,5,56,103,1883303632
22,18,16,Jits_ISO_5,1,1,48,42,1883319036
22,18,16,Jits_ISO_5,2,5,63,98,1883332900
22,18,16,Jits_ISO_5,3,5,80,127,1883383416
22,18,16,Jits_ISO_5,0,1,48,46,1883799456
22,18,16,Jits_ISO_5,1,5,80,127,1883803160
22,18,16,Jits_ISO_5,2,5,56,103,1883842832
22,18,16,Jits_ISO_5,3,5,63,98,1883853152
22,18,16,Jits_ISO_5,0,5,80,127,1884283400
22,18,16,Jits_ISO_5,1,1,48,39,1884312680
22,18,16,Jits_ISO_5,2,5,63,98,1884323392
22,18,16,Jits_ISO_5,3,5,56,103,1884382476
22,18,16,Jits_ISO_5,0,5,56,103,1884783084
22,18,16,Jits_ISO_5,1,5,80,127,1884793176
22,18,16,Jits_ISO_5,2,1,48,39,1884864560
22,18,16,Jits_ISO_5,3,5,63,98,1884873364
22,18,16,Jits_ISO_5,0,5,80,127,1885282616
22,18,16,Jits_ISO_5,1,1,48,39,1885330292
22,18,16,Jits_ISO_5,2,5,63,98,1885343092
22,18,16,Jits_ISO_5,3,5,56,103,1885372900
22,18,16,Jits_ISO_5,0,5,56,103,1885783372
22,18,16,Jits_ISO_5,1,1,48,45,1885814452
22,18,16,Jits_ISO_5,2,5,80,127,1885842700
22,18,16,Jits_ISO_5,3,5,63,98,1885882752
22,18,16,Jits_ISO_5,0,5,56,103,1886333116
22,18,16,Jits_ISO_5,1,5,63,98,1886342436
22,18,16,Jits_ISO_5,2,5,80,127,1886345944
22,18,16,Jits_ISO_5,3,1,48,45,1886347540
22,18,16,Jits_ISO_5,0,5,80,127,1886783312
22,18,16,Jits_ISO_5,1,1,48,47,1886845960
22,18,16,Jits_ISO_5,2,5,63,98,1886873136
22,18,16,Jits_ISO_5,3,5,56,103,1886883152
22,18,16,Jits_ISO_5,0,5,56,103,1887282448
22,18,16,Jits_ISO_5,1,5,63,98,1887285688
22,18,16,Jits_ISO_5,2,5,80,127,1887288792
22,18,16,Jits_ISO_5,3,1,48,47,1887382952
22,18,16,Jits_ISO_5,0,5,80,127,1887802696
22,18,16,Jits_ISO_5,1,5,63,98,1887852912
22,18,16,Jits_ISO_5,2,1,48,41,1887879012
22,18,16,Jits_ISO_5,3,5,56,103,1887882584
22,18,16,Jits_ISO_5,0,5,56,103,1888283044
22,18,16,Jits_ISO_5,1,5,80,127,1888293364
22,18,16,Jits_ISO_5,2,1,48,41,1888359436
22,18,16,Jits_ISO_5,3,5,63,98,1888363132
22,18,16,Jits_ISO_5,0,5,56,103,1888793120
22,18,16,Jits_ISO_5,1,5,63,98,1888813300
22,18,16,Jits_ISO_5,2,1,48,42,1888841700
22,18,16,Jits_ISO_5,3,5,80,127,1888872980
22,18,16,Jits_ISO_5,0,5,80,127,1889282412
22,18,16,Jits_ISO_5,1,1,48,35,1889333592
22,18,16,Jits_ISO_5,2,5,63,98,1889353100
22,18,16,Jits_ISO_5,3,5,56,103,1889372516
22,18,16,Jits_ISO_5,0,5,80,127,1889802576
22,18,16,Jits_ISO_5,1,5,56,103,1889812744
22,18,16,Jits_ISO_5,2,5,63,98,1889822988
22,18,16,Jits_ISO_5,3,1,48,48,1889860164
22,18,16,Jits_ISO_5,0,5,80,127,1890293008
22,18,16,Jits_ISO_5,1,5,56,103,1890312580
22,18,16,Jits_ISO_5,2,1,48,42,1890324164
22,18,16,Jits_ISO_5,3,5,63,98,1890383264
22,18,16,Jits_ISO_5,0,5,56,103,1890803012
22,18,16,Jits_ISO_5,1,5,80,127,1890832896
22,18,16,Jits_ISO_5,2,5,63,98,1890853152
22,18,16,Jits_ISO_5,3,1,48,47,1890862376
22,18,16,Jits_ISO_5,0,5,63,98,1891292532
22,18,16,Jits_ISO_5,1,5,56,103,1891352836
22,18,16,Jits_ISO_5,2,1,48,42,1891371992
22,18,16,Jits_ISO_5,3,5,80,127,1891382636
22,18,16,Jits_ISO_5,0,1,48,47,1891779244
22,18,16,Jits_ISO_5,1,5,63,98,1891783096
22,18,16,Jits_ISO_5,2,5,80,127,1891786372
22,18,16,Jits_ISO_5,3,5,56,103,1891873032
22,18,16,Jits_ISO_5,0,1,48,45,1892292592
22,18,16,Jits_ISO_5,1,5,56,103,1892303240
22,18,16,Jits_ISO_5,2,5,63,98,1892332896
22,18,16,Jits_ISO_5,3,5,80,127,1892372944
22,18,16,Jits_ISO_5,0,1,48,43,1892790668
22,18,16,Jits_ISO_5,1,5,63,98,1892802992
22,18,16,Jits_ISO_5,2,5,56,103,1892842888
22,18,16,Jits_ISO_5,3,5,80,127,1892863296
22,18,16,Jits_ISO_5,0,5,63,98,1893312988
22,18,16,Jits_ISO_5,1,1,48,40,1893317236
22,18,16,Jits_ISO_5,2,5,56,103,1893353032
22,18,16,Jits_ISO_5,3,5,80,127,1893363120
22,18,16,Jits_ISO_5,0,5,80,127,1893793172
22,18,16,Jits_ISO_5,1,1,48,44,1893826008
22,18,16,Jits_ISO_5,2,5,63,98,1893862792
22,18,16,Jits_ISO_5,3,5,56,103,1893883200
22,18,16,Jits_ISO_5,0,5,56,103,1894282696
22,18,16,Jits_ISO_5,1,5,80,127,1894303180
22,18,16,Jits_ISO_5,2,5,63,98,1894342924
22,18,16,Jits_ISO_5,3,1,48,49,1894363988
22,18,16,Jits_ISO_5,0,5,63,98,1894792772
22,18,16,Jits_ISO_5,1,5,80,127,1894812952
22,18,16,Jits_ISO_5,2,1,48,48,1894826220
22,18,16,Jits_ISO_5,3,5,56,103,1894852920
22,18,16,Jits_ISO_5,0,5,63,98,1895293256
22,18,16,Jits_ISO_5,1,1,48,43,1895312548
22,18,16,Jits_ISO_5,2,5,56,103,1895314216
22,18,16,Jits_ISO_5,3,5,80,127,1895322936
22,18,16,Jits_ISO_5,0,1,48,53,1895782656
22,18,16,Jits_ISO_5,1,5,80,127,1895793144
22,18,16,Jits_ISO_5,2,5,56,103,1895812640
22,18,16,Jits_ISO_5,3,5,63,98,1895843084
22,18,16,Jits_ISO_5,0,1,48,47,1896303648
22,18,16,Jits_ISO_5,1,5,56,103,1896363380
22,18,16,Jits_ISO_5,2,5,80,127,1896366504
22,18,16,Jits_ISO_5,3,5,63,98,1896382868
22,18,16,Jits_ISO_5,0,5,63,98,1896783232
22,18,16,Jits_ISO_5,1,5,56,103,1896812892
22,18,16,Jits_ISO_5,2,1,48,43,1896859040
22,18,16,Jits_ISO_5,3,5,80,127,1896873288
22,18,16,Jits_ISO_5,0,1,48,44,1897314596
22,18,16,Jits_ISO_5,1,5,63,98,1897362868
22,18,16,Jits_ISO_5,2,5,56,103,1897372960
22,18,16,Jits_ISO_5,3,5,80,127,1897383204
22,18,16,Jits_ISO_5,0,5,56,103,1897813460
22,18,16,Jits_ISO_5,1,1,48,42,1897817856
22,18,16,Jits_ISO_5,2,5,80,127,1897842956
22,18,16,Jits_ISO_5,3,5,63,98,1897853352
22,18,16,Jits_ISO_5,0,1,48,44,1898317852
22,18,16,Jits_ISO_5,1,5,63,98,1898352960
22,18,16,Jits_ISO_5,2,5,56,103,1898363204
22,18,16,Jits_ISO_5,3,5,80,127,1898382796
22,18,16,Jits_ISO_5,0,5,56,103,1898783088
22,18,16,Jits_ISO_5,1,1,48,39,1898816456
22,18,16,Jits_ISO_5,2,5,63,98,1898842544
22,18,16,Jits_ISO_5,3,5,80,127,1898845972
22,18,16,Jits_ISO_5,0,1,48,37,1899301084
22,18,16,Jits_ISO_5,1,5,80,127,1899303392
22,18,16,Jits_ISO_5,2,5,56,103,1899312568
22,18,16,Jits_ISO_5,3,5,63,98,1899383336
22,18,16,Jits_ISO_5,0,5,80,127,1899792680
22,18,16,Jits_ISO_5,1,1,48,40,1899816492
22,18,16,Jits_ISO_5,2,5,56,103,1899863676
22,18,16,Jits_ISO_5,3,5,63,98,1899872620
22,18,16,Jits_ISO_5,0,1,48,41,1900324740
22,18,16,Jits_ISO_5,1,5,63,98,1900333480
22,18,16,Jits_ISO_5,2,5,56,103,1900342728
22,18,16,Jits_ISO_5,3,5,80,127,1900363212
22,18,16,Jits_ISO_5,0,5,80,127,1900782944
22,18,16,Jits_ISO_5,1,1,48,37,1900824800
22,18,16,Jits_ISO_5,2,5,63,98,1900843396
22,18,16,Jits_ISO_5,3,5,56,103,1900883364
22,18,16,Jits_ISO_5,0,5,56,103,1901322528
22,18,16,Jits_ISO_5,1,5,63,98,1901332924
22,18,16,Jits_ISO_5,2,1,48,36,1901364152
22,18,16,Jits_ISO_5,3,5,80,127,1901372736
22,18,16,Jits_ISO_5,0,5,56,103,1901783540
22,18,16,Jits_ISO_5,1,5,80,127,1901813272
22,18,16,Jits_ISO_5,2,1,48,46,1901820040
22,18,16,Jits_ISO_5,3,5,63,98,1901863400
22,18,16,Jits_ISO_5,0,1,48,46,1902304820
22,18,16,Jits_ISO_5,1,5,56,103,1902323036
22,18,16,Jits_ISO_5,2,5,63,98,1902363084
22,18,16,Jits_ISO_5,3,5,80,127,1902366512
22,18,16,Jits_ISO_5,0,1,48,49,1902796380
22,18,16,Jits_ISO_5,1,5,56,103,1902822856
22,18,16,Jits_ISO_5,2,5,63,98,1902832948
22,18,16,Jits_ISO_5,3,5,80,127,1902852592
22,18,16,Jits_ISO_5,0,5,56,103,1903282636
22,18,16,Jits_ISO_5,1,5,80,127,1903285836
22,18,16,Jits_ISO_5,2,1,48,46,1903308504
22,18,16,Jits_ISO_5,3,5,63,98,1903322444
22,18,16,Jits_ISO_5,0,1,48,42,1903759108
22,18,16,Jits_ISO_5,1,5,63,98,1903823344
22,18,16,Jits_ISO_5,2,5,56,103,1903852852
22,18,16,Jits_ISO_5,3,5,80,127,1903873548
22,18,16,Jits_ISO_5,0,5,80,127,1904293448
22,18,16,Jits_ISO_5,1,5,56,103,1904302548
22,18,16,Jits_ISO_5,2,5,63,98,1904312716
22,18,16,Jits_ISO_5,3,1,48,38,1904316348
22,18,16,Jits_ISO_5,0,5,56,103,1904793208
22,18,16,Jits_ISO_5,1,1,48,40,1904806096
22,18,16,Jits_ISO_5,2,5,80,127,1904833248
22,18,16,Jits_ISO_5,3,5,63,98,1904862676
22,18,16,Jits_ISO_5,0,1,48,39,1905287096
22,18,16,Jits_ISO_5,1,5,63,98,1905302796
22,18,16,Jits_ISO_5,2,5,80,127,1905313268
22,18,16,Jits_ISO_5,3,5,56,103,1905323360
22,18,16,Jits_ISO_5,0,1,48,42,1905780240
22,18,16,Jits_ISO_5,1,5,56,103,1905783404
22,18,16,Jits_ISO_5,2,5,63,98,1905852908
22,18,16,Jits_ISO_5,3,5,80,127,1905863380
22,18,16,Jits_ISO_5,0,5,80,127,1906282860
22,18,16,Jits_ISO_5,1,5,56,103,1906293256
22,18,16,Jits_ISO_5,2,1,48,46,1906311676
22,18,16,Jits_ISO_5,3,5,63,98,1906343332
22,18,16,Jits_ISO_5,0,5,80,127,1906792932
22,18,16,Jits_ISO_5,1,1,48,38,1906827548
22,18,16,Jits_ISO_5,2,5,56,103,1906853256
22,18,16,Jits_ISO_5,3,5,63,98,1906882988
22,18,16,Jits_ISO_5,0,5,56,103,1907292464
22,18,16,Jits_ISO_5,1,5,80,127,1907295592
22,18,16,Jits_ISO_5,2,5,63,98,1907332360
22,18,16,Jits_ISO_5,3,1,48,34,1907368116
22,18,16,Jits_ISO_5,0,5,56,103,1907823020
22,18,16,Jits_ISO_5,1,1,48,36,1907824920
22,18,16,Jits_ISO_5,2,5,63,98,1907852620
22,18,16,Jits_ISO_5,3,5,80,127,1907863088
22,18,16,Jits_ISO_5,0,1,48,39,1908306620
22,18,16,Jits_ISO_5,1,5,63,98,1908333244
22,18,16,Jits_ISO_5,2,5,80,127,1908343336
22,18,16,Jits_ISO_5,3,5,56,103,1908353356
22,18,16,Jits_ISO_5,0,5,80,127,1908782408
22,18,16,Jits_ISO_5,1,1,48,43,1908826016
22,18,16,Jits_ISO_5,2,5,56,103,1908832532
22,18,16,Jits_ISO_5,3,5,63,98,1908835664
22,18,16,Jits_ISO_5,0,5,56,103,1909313112
22,18,16,Jits_ISO_5,1,1,48,46,1909320104
22,18,16,Jits_ISO_5,2,5,80,127,1909333284
22,18,16,Jits_ISO_5,3,5,63,98,1909342760
22,18,16,Jits_ISO_5,0,5,63,98,1909793152
22,18,16,Jits_ISO_5,1,1,48,46,1909799384
22,18,16,Jits_ISO_5,2,5,56,103,1909822956
22,18,16,Jits_ISO_5,3,5,80,127,1909843212
22,18,16,Jits_ISO_5,0,1,48,46,1910281024
22,18,16,Jits_ISO_5,1,5,56,103,1910302984
22,18,16,Jits_ISO_5,2,5,80,127,1910313228
22,18,16,Jits_ISO_5,3,5,63,98,1910382912
22,18,16,Jits_ISO_5,0,5,63,98,1910792496
22,18,16,Jits_ISO_5,1,1,48,43,1910830928
22,18,16,Jits_ISO_5,2,5,80,127,1910832616
22,18,16,Jits_ISO_5,3,5,56,103,1910872512
22,18,16,Jits_ISO_5,0,1,48,44,1911292064
22,18,16,Jits_ISO_5,1,5,56,103,1911302552
22,18,16,Jits_ISO_5,2,5,63,98,1911312720
22,18,16,Jits_ISO_5,3,5,80,127,1911333280
22,18,16,Jits_ISO_5,0,1,48,35,1911799516
22,18,16,Jits_ISO_5,1,5,63,98,1911843116
22,18,16,Jits_ISO_5,2,5,80,127,1911862988
22,18,16,Jits_ISO_5,3,5,56,103,1911883016
22,18,16,Jits_ISO_5,0,5,56,103,1912282420
22,18,16,Jits_ISO_5,1,1,48,40,1912330144
22,18,16,Jits_ISO_5,2,5,80,127,1912363200
22,18,16,Jits_ISO_5,3,5,63,98,1912372528
22,18,16,Jits_ISO_5,0,1,48,39,1912786884
22,18,16,Jits_ISO_5,1,5,80,127,1912823140
22,18,16,Jits_ISO_5,2,5,63,98,1912833388
22,18,16,Jits_ISO_5,3,5,56,103,1912863044
22,18,16,Jits_ISO_5,0,1,48,39,1913274492
22,18,16,Jits_ISO_5,1,5,63,98,1913282996
22,18,16,Jits_ISO_5,2,5,80,127,1913323120
22,18,16,Jits_ISO_5,3,5,56,103,1913383256
22,18,16,Jits_ISO_5,0,1,48,35,1913781732
22,18,16,Jits_ISO_5,1,5,63,98,1913792912
22,18,16,Jits_ISO_5,2,5,56,103,1913842976
22,18,16,Jits_ISO_5,3,5,80,127,1913872860
22,18,16,Jits_ISO_5,0,5,80,127,1914302988
22,18,16,Jits_ISO_5,1,1,48,33,1914311068
22,18,16,Jits_ISO_5,2,5,63,98,1914313148
22,18,16,Jits_ISO_5,3,5,56,103,1914382924
22,18,16,Jits_ISO_5,0,1,48,42,1914826184
22,18,16,Jits_ISO_5,1,5,80,127,1914873140
22,18,16,Jits_ISO_5,2,5,56,103,1914882388
22,18,16,Jits_ISO_5,3,5,63,98,1914885512
22,18,16,Jits_ISO_5,0,5,56,103,1915312440
22,18,16,Jits_ISO_5,1,5,80,127,1915333000
22,18,16,Jits_ISO_5,2,5,63,98,1915343168
22,18,16,Jits_ISO_5,3,1,48,40,1915355292
22,18,16,Jits_ISO_5,0,1,48,39,1915814688
22,18,16,Jits_ISO_5,1,5,63,98,1915822360
22,18,16,Jits_ISO_5,2,5,56,103,1915863404
22,18,16,Jits_ISO_5,3,5,80,127,1915882892
22,18,16,Jits_ISO_5,0,1,48,43,1916292484
22,18,16,Jits_ISO_5,1,5,63,98,1916323176
22,18,16,Jits_ISO_5,2,5,56,103,1916382564
22,18,16,Jits_ISO_5,3,5,80,127,1916386280
22,18,16,Jits_ISO_5,0,5,56,103,1916782928
22,18,16,Jits_ISO_5,1,5,80,127,1916802424
22,18,16,Jits_ISO_5,2,1,48,37,1916824124
22,18,16,Jits_ISO_5,3,5,63,98,1916843480
22,18,16,Jits_ISO_5,0,5,56,103,1917313796
22,18,16,Jits_ISO_5,1,1,48,36,1917316140
22,18,16,Jits_ISO_5,2,5,63,98,1917332772
22,18,16,Jits_ISO_5,3,5,80,127,1917343168
22,18,16,Jits_ISO_5,0,5,80,127,1917783596
22,18,16,Jits_ISO_5,1,1,48,41,1917810772
22,18,16,Jits_ISO_5,2,5,56,103,1917813096
22,18,16,Jits_ISO_5,3,5,63,98,1917853016
22,18,16,Jits_ISO_5,0,1,48,40,1918283788
22,18,16,Jits_ISO_5,1,5,80,127,1918293284
22,18,16,Jits_ISO_5,2,5,56,103,1918312776
22,18,16,Jits_ISO_5,3,5,63,98,1918373176
22,18,16,Jits_ISO_5,0,1,48,38,1918771232
22,18,16,Jits_ISO_5,1,5,56,103,1918803348
22,18,16,Jits_ISO_5,2,5,80,127,1918822840
22,18,16,Jits_ISO_5,3,5,63,98,1918883148
22,18,16,Jits_ISO_5,0,5,80,127,1919282544
22,18,16,Jits_ISO_5,1,5,56,103,1919292940
22,18,16,Jits_ISO_5,2,1,48,45,1919324932
22,18,16,Jits_ISO_5,3,5,63,98,1919332676
22,18,16,Jits_ISO_5,0,5,63,98,1919783296
22,18,16,Jits_ISO_5,1,1,48,39,1919812700
22,18,16,Jits_ISO_5,2,5,56,103,1919823100
22,18,16,Jits_ISO_5,3,5,80,127,1919826156
22,18,16,Jits_ISO_5,0,1,48,43,1920298512
22,18,16,Jits_ISO_5,1,5,63,98,1920302668
22,18,16,Jits_ISO_5,2,5,80,127,1920343408
22,18,16,Jits_ISO_5,3,5,56,103,1920373140
22,18,16,Jits_ISO_5,0,5,56,103,1920792948
22,18,16,Jits_ISO_5,1,5,63,98,1920803268
22,18,16,Jits_ISO_5,2,5,80,127,1920832772
22,18,16,Jits_ISO_5,3,1,48,45,1920840524
22,18,16,Jits_ISO_5,0,5,80,127,1921282616
22,18,16,Jits_ISO_5,1,1,48,36,1921327372
22,18,16,Jits_ISO_5,2,5,63,98,1921353152
22,18,16,Jits_ISO_5,3,5,56,103,1921363472
22,18,16,Jits_ISO_5,0,5,63,98,1921783216
22,18,16,Jits_ISO_5,1,5,56,103,1921852768
22,18,16,Jits_ISO_5,2,5,80,127,1921863088
22,18,16,Jits_ISO_5,3,1,48,39,1921878340
22,18,16,Jits_ISO_5,0,5,63,98,1922282888
22,18,16,Jits_ISO_5,1,5,56,103,1922303524
22,18,16,Jits_ISO_5,2,5,80,127,1922343496
22,18,16,Jits_ISO_5,3,1,48,35,1922370760
22,18,16,Jits_ISO_5,0,5,56,103,1922792868
22,18,16,Jits_ISO_5,1,1,48,41,1922799176
22,18,16,Jits_ISO_5,2,5,63,98,1922802952
22,18,16,Jits_ISO_5,3,5,80,127,1922882820
22,18,16,Jits_ISO_5,0,5,63,98,1923283536
22,18,16,Jits_ISO_5,1,1,48,42,1923309408
22,18,16,Jits_ISO_5,2,5,56,103,1923313032
22,18,16,Jits_ISO_5,3,5,80,127,1923352932
22,18,16,Jits_ISO_5,0,5,56,103,1923783052
22,18,16,Jits_ISO_5,1,1,48,37,1923808008
22,18,16,Jits_ISO_5,2,5,63,98,1923823020
22,18,16,Jits_ISO_5,3,5,80,127,1923862840
22,18,16,Jits_ISO_5,0,5,80,127,1924282660
22,18,16,Jits_ISO_5,1,1,48,30,1924290488
22,18,16,Jits_ISO_5,2,5,56,103,1924362676
22,18,16,Jits_ISO_5,3,5,63,98,1924372840
22,18,16,Jits_ISO_5,0,1,48,39,1924815636
22,18,16,Jits_ISO_5,1,5,56,103,1924823532
22,18,16,Jits_ISO_5,2,5,63,98,1924826656
22,18,16,Jits_ISO_5,3,5,80,127,1924832628
22,18,16,Jits_ISO_5,0,1,48,44,1925297564
22,18,16,Jits_ISO_5,1,5,56,103,1925342532
22,18,16,Jits_ISO_5,2,5,63,98,1925363244
22,18,16,Jits_ISO_5,3,5,80,127,1925373336
22,18,16,Jits_ISO_5,0,5,63,98,1925803464
22,18,16,Jits_ISO_5,1,5,80,127,1925812636
22,18,16,Jits_ISO_5,2,5,56,103,1925832968
22,18,16,Jits_ISO_5,3,1,48,36,1925866408
22,18,16,Jits_ISO_5,0,5,63,98,1926303284
22,18,16,Jits_ISO_5,1,1,48,38,1926332224
22,18,16,Jits_ISO_5,2,5,56,103,1926382908
22,18,16,Jits_ISO_5,3,5,80,127,1926386344
22,18,16,Jits_ISO_5,0,5,63,98,1926802720
22,18,16,Jits_ISO_5,1,1,48,34,1926820564
22,18,16,Jits_ISO_5,2,5,56,103,1926823348
22,18,16,Jits_ISO_5,3,5,80,127,1926853160
22,18,16,Jits_ISO_5,0,5,56,103,1927302468
22,18,16,Jits_ISO_5,1,5,63,98,1927323028
22,18,16,Jits_ISO_5,2,1,48,38,1927330632
22,18,16,Jits_ISO_5,3,5,80,127,1927333416
22,18,16,Jits_ISO_5,0,1,48,38,1927828560
22,18,16,Jits_ISO_5,1,5,56,103,1927832868
22,18,16,Jits_ISO_5,2,5,63,98,1927862752
22,18,16,Jits_ISO_5,3,5,80,127,1927866180
22,18,16,Jits_ISO_5,0,5,56,103,1928282452
22,18,16,Jits_ISO_5,1,5,63,98,1928322428
22,18,16,Jits_ISO_5,2,1,48,37,1928343976
22,18,16,Jits_ISO_5,3,5,80,127,1928382972
22,18,16,Jits_ISO_5,0,1,48,40,1928797920
22,18,16,Jits_ISO_5,1,5,56,103,1928802764
22,18,16,Jits_ISO_5,2,5,63,98,1928813160
22,18,16,Jits_ISO_5,3,5,80,127,1928873260
22,18,16,Jits_ISO_5,0,5,56,103,1929303436
22,18,16,Jits_ISO_5,1,5,80,127,1929322852
22,18,16,Jits_ISO_5,2,1,48,31,1929329612
22,18,16,Jits_ISO_5,3,5,63,98,1929352600
22,18,16,Jits_ISO_5,0,5,80,127,1929803196
22,18,16,Jits_ISO_5,1,1,48,34,1929813364
22,18,16,Jits_ISO_5,2,5,56,103,1929815032
22,18,16,Jits_ISO_5,3,5,63,98,1929832924
22,18,16,Jits_ISO_5,0,1,48,42,1930287636
22,18,16,Jits_ISO_5,1,5,63,98,1930292632
22,18,16,Jits_ISO_5,2,5,80,127,1930372656
22,18,16,Jits_ISO_5,3,5,56,103,1930382748
22,18,16,Jits_ISO_5,0,1,48,37,1930826572
22,18,16,Jits_ISO_5,1,5,80,127,1930852892
22,18,16,Jits_ISO_5,2,5,56,103,1930873220
22,18,16,Jits_ISO_5,3,5,63,98,1930876344
22,18,16,Jits_ISO_5,0,5,63,98,1931322980
22,18,16,Jits_ISO_5,1,5,80,127,1931326256
22,18,16,Jits_ISO_5,2,1,48,38,1931339912
22,18,16,Jits_ISO_5,3,5,56,103,1931383120
22,18,16,Jits_ISO_5,0,5,56,103,1931803232
22,18,16,Jits_ISO_5,1,5,80,127,1931813324
22,18,16,Jits_ISO_5,2,1,48,34,1931828192
22,18,16,Jits_ISO_5,3,5,63,98,1931853140
22,18,16,Jits_ISO_5,0,5,56,103,1932283200
22,18,16,Jits_ISO_5,1,5,63,98,1932342588
22,18,16,Jits_ISO_5,2,1,48,35,1932343500
22,18,16,Jits_ISO_5,3,5,80,127,1932353280
22,18,16,Jits_ISO_5,0,1,48,35,1932792664
22,18,16,Jits_ISO_5,1,5,63,98,1932794416
22,18,16,Jits_ISO_5,2,5,80,127,1932833096
22,18,16,Jits_ISO_5,3,5,56,103,1932873068
22,18,16,Jits_ISO_5,0,5,56,103,1933293180
22,18,16,Jits_ISO_5,1,1,48,33,1933343828
22,18,16,Jits_ISO_5,2,5,63,98,1933373120
22,18,16,Jits_ISO_5,3,5,80,127,1933376392
22,18,16,Jits_ISO_5,0,9999,9999,9999,1874070604
22,18,16,Jits_ISO_5,1,9999,9999,9999,1874570308
22,18,16,Jits_ISO_5,2,9999,9999,9999,1875071040
22,18,16,Jits_ISO_5,3,9999,9999,9999,1875570796
22,18,16,Jits_ISO_5,4,9999,9999,9999,1876070476
22,18,16,Jits_ISO_5,5,9999,9999,9999,1876570224
22,18,16,Jits_ISO_5,6,9999,9999,9999,1877070964
22,18,16,Jits_ISO_5,7,9999,9999,9999,1877570652
22,18,16,Jits_ISO_5,8,9999,9999,9999,1878070332
22,18,16,Jits_ISO_5,9,9999,9999,9999,1878571088
22,18,16,Jits_ISO_5,10,9999,9999,9999,1879081012
22,18,16,Jits_ISO_5,11,9999,9999,9999,1879580776
22,18,16,Jits_ISO_5,12,9999,9999,9999,1880080444
22,18,16,Jits_ISO_5,13,9999,9999,9999,1880580188
22,18,16,Jits_ISO_5,14,9999,9999,9999,1881080928
22,18,16,Jits_ISO_5,15,9999,9999,9999,1881580612
22,18,16,Jits_ISO_5,16,9999,9999,9999,1882080372
22,18,16,Jits_ISO_5,17,9999,9999,9999,1882581108
22,18,16,Jits_ISO_5,18,9999,9999,9999,1883080792
22,18,16,Jits_ISO_5,19,9999,9999,9999,1883580480
22,18,16,Jits_ISO_5,20,9999,9999,9999,1884080244
22,18,16,Jits_ISO_5,21,9999,9999,9999,1884580984
22,18,16,Jits_ISO_5,22,9999,9999,9999,1885080668
22,18,16,Jits_ISO_5,23,9999,9999,9999,1885580356
22,18,16,Jits_ISO_5,24,9999,9999,9999,1886080092
22,18,16,Jits_ISO_5,25,9999,9999,9999,1886580808
22,18,16,Jits_ISO_5,26,9999,9999,9999,1887080572
22,18,16,Jits_ISO_5,27,9999,9999,9999,1887580236
22,18,16,Jits_ISO_5,28,9999,9999,9999,1888080992
22,18,16,Jits_ISO_5,29,9999,9999,9999,1888580676
22,18,16,Jits_ISO_5,30,9999,9999,9999,1889080436
22,18,16,Jits_ISO_5,31,9999,9999,9999,1889580124
22,18,16,Jits_ISO_5,32,9999,9999,9999,1890080868
22,18,16,Jits_ISO_5,33,9999,9999,9999,1890580552
22,18,16,Jits_ISO_5,34,9999,9999,9999,1891080316
22,18,16,Jits_ISO_5,35,9999,9999,9999,1891580996
22,18,16,Jits_ISO_5,36,9999,9999,9999,1892080732
22,18,16,Jits_ISO_5,37,9999,9999,9999,1892580476
22,18,16,Jits_ISO_5,38,9999,9999,9999,1893080152
22,18,16,Jits_ISO_5,39,9999,9999,9999,1893580892
22,18,16,Jits_ISO_5,40,9999,9999,9999,1894080568
22,18,16,Jits_ISO_5,41,9999,9999,9999,1894580328
22,18,16,Jits_ISO_5,42,9999,9999,9999,1895081080
22,18,16,Jits_ISO_5,43,9999,9999,9999,1895580748
22,18,16,Jits_ISO_5,44,9999,9999,9999,1896080496
22,18,16,Jits_ISO_5,45,9999,9999,9999,1896580212
22,18,16,Jits_ISO_5,46,9999,9999,9999,1897080944
22,18,16,Jits_ISO_5,47,9999,9999,9999,1897580624
22,18,16,Jits_ISO_5,48,9999,9999,9999,1898080368
22,18,16,Jits_ISO_5,49,9999,9999,9999,1898581056
22,18,16,Jits_ISO_5,50,9999,9999,9999,1899080792
22,18,16,Jits_ISO_5,51,9999,9999,9999,1899580476
22,18,16,Jits_ISO_5,52,9999,9999,9999,1900080228
22,18,16,Jits_ISO_5,53,9999,9999,9999,1900580984
22,18,16,Jits_ISO_5,54,9999,9999,9999,1901080656
22,18,16,Jits_ISO_5,55,9999,9999,9999,1901580344
22,18,16,Jits_ISO_5,56,9999,9999,9999,1902080104
22,18,16,Jits_ISO_5,57,9999,9999,9999,1902580852
22,18,16,Jits_ISO_5,58,9999,9999,9999,1903080524
22,18,16,Jits_ISO_5,59,9999,9999,9999,1903580260
22,18,16,Jits_ISO_5,60,9999,9999,9999,1904081016
22,18,16,Jits_ISO_5,61,9999,9999,9999,1904580684
22,18,16,Jits_ISO_5,62,9999,9999,9999,1905080372
22,18,16,Jits_ISO_5,63,9999,9999,9999,1905580108
22,18,16,Jits_ISO_5,64,9999,9999,9999,1906080848
22,18,16,Jits_ISO_5,65,9999,9999,9999,1906580592
22,18,16,Jits_ISO_5,66,9999,9999,9999,1907080280
22,18,16,Jits_ISO_5,67,9999,9999,9999,1907580996
22,18,16,Jits_ISO_5,68,9999,9999,9999,1908080760
22,18,16,Jits_ISO_5,69,9999,9999,9999,1908580448
22,18,16,Jits_ISO_5,70,9999,9999,9999,1909080184
22,18,16,Jits_ISO_5,71,9999,9999,9999,1909580860
22,18,16,Jits_ISO_5,72,9999,9999,9999,1910080620
22,18,16,Jits_ISO_5,73,9999,9999,9999,1910580296
22,18,16,Jits_ISO_5,74,9999,9999,9999,1911081036
22,18,16,Jits_ISO_5,75,9999,9999,9999,1911580780
22,18,16,Jits_ISO_5,76,9999,9999,9999,1912080456
22,18,16,Jits_ISO_5,77,9999,9999,9999,1912580208
22,18,16,Jits_ISO_5,78,9999,9999,9999,1913080892
22,18,16,Jits_ISO_5,79,9999,9999,9999,1913580640
22,18,16,Jits_ISO_5,80,9999,9999,9999,1914080312
22,18,16,Jits_ISO_5,81,9999,9999,9999,1914581056
22,18,16,Jits_ISO_5,82,9999,9999,9999,1915080820
22,18,16,Jits_ISO_5,83,9999,9999,9999,1915580492
22,18,16,Jits_ISO_5,84,9999,9999,9999,1916080184
22,18,16,Jits_ISO_5,85,9999,9999,9999,1916580916
22,18,16,Jits_ISO_5,86,9999,9999,9999,1917080664
22,18,16,Jits_ISO_5,87,9999,9999,9999,1917580352
22,18,16,Jits_ISO_5,88,9999,9999,9999,1918080084
22,18,16,Jits_ISO_5,89,9999,9999,9999,1918580836
22,18,16,Jits_ISO_5,90,9999,9999,9999,1919080508
22,18,16,Jits_ISO_5,91,9999,9999,9999,1919580252
22,18,16,Jits_ISO_5,92,9999,9999,9999,1920080996
22,18,16,Jits_ISO_5,93,9999,9999,9999,1920580672
22,18,16,Jits_ISO_5,94,9999,9999,9999,1921080412
22,18,16,Jits_ISO_5,95,9999,9999,9999,1921580100
22,18,16,Jits_ISO_5,96,9999,9999,9999,1922080852
22,18,16,Jits_ISO_5,97,9999,9999,9999,1922580592
22,18,16,Jits_ISO_5,98,9999,9999,9999,1923080264
22,18,16,Jits_ISO_5,99,9999,9999,9999,1923581016
22,18,16,Jits_ISO_5,100,9999,9999,9999,1924080760
22,18,16,Jits_ISO_5,101,9999,9999,9999,1924580448
22,18,16,Jits_ISO_5,102,9999,9999,9999,1925080124
22,18,16,Jits_ISO_5,103,9999,9999,9999,1925580868
22,18,16,Jits_ISO_5,104,9999,9999,9999,1926080612
22,18,16,Jits_ISO_5,105,9999,9999,9999,1926580280
22,18,16,Jits_ISO_5,106,9999,9999,9999,1927081020
22,18,16,Jits_ISO_5,107,9999,9999,9999,1927580764
22,18,16,Jits_ISO_5,108,9999,9999,9999,1928080444
22,18,16,Jits_ISO_5,109,9999,9999,9999,1928580164
22,18,16,Jits_ISO_5,110,9999,9999,9999,1929080916
22,18,16,Jits_ISO_5,111,9999,9999,9999,1929580664
22,18,16,Jits_ISO_5,112,9999,9999,9999,1930080348
22,18,16,Jits_ISO_5,113,9999,9999,9999,1930581080
22,18,16,Jits_ISO_5,114,9999,9999,9999,1931080824
22,18,16,Jits_ISO_5,115,9999,9999,9999,1931580484
22,18,16,Jits_ISO_5,116,9999,9999,9999,1932080232
22,18,16,Jits_ISO_5,117,9999,9999,9999,1932580984
22,18,16,Jits_ISO_5,118,9999,9999,9999,1933080672
22,18,16,Jits_ISO_5,119,9999,9999,9999,1933580340
22,19,3,ISIP_8,0,5,42,127,1994618220
22,19,3,ISIP_8,1,5,42,127,1995418188
22,19,3,ISIP_8,2,5,42,127,1996217676
22,19,3,ISIP_8,3,1,48,41,1996270452
22,19,3,ISIP_8,4,1,48,55,1997017668
22,19,3,ISIP_8,5,5,42,127,1997019264
22,19,3,ISIP_8,6,1,48,54,1997811140
22,19,3,ISIP_8,7,5,42,127,1997818268
22,19,3,ISIP_8,8,5,42,127,1998618192
22,19,3,ISIP_8,9,1,48,60,1998641292
22,19,3,ISIP_8,10,5,42,127,1999417656
22,19,3,ISIP_8,11,1,48,56,1999440292
22,19,3,ISIP_8,12,1,48,51,2000209292
22,19,3,ISIP_8,13,5,42,127,2000217640
22,19,3,ISIP_8,14,1,48,53,2001016552
22,19,3,ISIP_8,15,5,42,127,2001018248
22,19,3,ISIP_8,16,5,42,127,2001817968
22,19,3,ISIP_8,17,1,48,58,2001858536
22,19,3,ISIP_8,18,5,42,127,2002617736
22,19,3,ISIP_8,19,1,48,57,2002618644
22,19,3,ISIP_8,20,5,42,127,2003417424
22,19,3,ISIP_8,21,1,48,61,2003424804
22,19,3,ISIP_8,22,5,42,127,2004218184
22,19,3,ISIP_8,23,1,48,56,2004227168
22,19,3,ISIP_8,24,1,48,59,2005005092
22,19,3,ISIP_8,25,5,42,127,2005017864
22,19,3,ISIP_8,26,5,42,127,2005817792
22,19,3,ISIP_8,27,1,48,56,2005820592
22,19,3,ISIP_8,28,5,42,127,2006617632
22,19,3,ISIP_8,29,1,48,59,2006634628
22,19,3,ISIP_8,30,1,48,56,2007405916
22,19,3,ISIP_8,31,5,42,127,2007418152
22,19,3,ISIP_8,32,1,48,55,2008202192
22,19,3,ISIP_8,33,5,42,127,2008218020
22,19,3,ISIP_8,34,1,48,57,2009006236
22,19,3,ISIP_8,35,5,42,127,2009017708
22,19,3,ISIP_8,36,5,42,127,2009817560
22,19,3,ISIP_8,37,1,48,52,2009825476
22,19,3,ISIP_8,38,1,48,48,2010608356
22,19,3,ISIP_8,39,5,42,127,2010618232
22,19,3,ISIP_8,40,1,48,51,2011389884
22,19,3,ISIP_8,41,5,42,127,2011417924
22,19,3,ISIP_8,42,1,48,50,2012213004
22,19,3,ISIP_8,43,5,42,127,2012217768
22,19,3,ISIP_8,44,1,48,48,2013002696
22,19,3,ISIP_8,45,5,42,127,2013017380
22,19,3,ISIP_8,46,1,48,47,2013808952
22,19,3,ISIP_8,47,5,42,127,2013818368
22,19,3,ISIP_8,48,5,42,127,2014617864
22,19,3,ISIP_8,49,1,48,52,2014619840
22,19,3,ISIP_8,50,5,42,127,2015417628
22,19,3,ISIP_8,51,1,48,52,2015418612
22,19,3,ISIP_8,52,1,48,57,2016210636
22,19,3,ISIP_8,53,5,42,127,2016217388
22,19,3,ISIP_8,54,1,48,51,2016611728
22,19,3,ISIP_8,55,5,42,127,2017018356
22,19,3,ISIP_8,56,1,48,57,2017410680
22,19,3,ISIP_8,57,5,42,127,2017818048
22,19,3,ISIP_8,58,1,48,49,2018165396
22,19,3,ISIP_8,59,1,48,46,2019034176
22,19,3,ISIP_8,60,1,48,55,2019838364
22,19,3,ISIP_8,61,1,48,59,2020626836
22,19,3,ISIP_8,62,1,48,54,2021453160
22,19,3,ISIP_8,63,1,48,48,2022267800
22,19,3,ISIP_8,64,1,48,47,2023078124
22,19,3,ISIP_8,65,1,48,50,2023864304
22,19,3,ISIP_8,66,1,48,53,2024651792
22,19,3,ISIP_8,67,1,48,61,2025455220
22,19,3,ISIP_8,68,1,48,55,2026256356
22,19,3,ISIP_8,69,1,48,53,2027041624
22,19,3,ISIP_8,70,1,48,55,2027864592
22,19,3,ISIP_8,71,1,48,52,2028655048
22,19,3,ISIP_8,72,1,48,61,2029443852
22,19,3,ISIP_8,73,1,48,57,2030250028
22,19,3,ISIP_8,74,1,48,56,2031032624
22,19,3,ISIP_8,75,1,48,55,2031846660
22,19,3,ISIP_8,76,1,48,49,2032644520
22,19,3,ISIP_8,77,1,48,56,2033403920
22,19,3,ISIP_8,78,1,48,60,2034212460
22,19,3,ISIP_8,79,1,48,57,2035008568
22,19,3,ISIP_8,80,1,48,55,2035820236
22,19,3,ISIP_8,81,1,48,50,2036634372
22,19,3,ISIP_8,82,1,48,57,2037427504
22,19,3,ISIP_8,83,1,48,60,2038223756
22,19,3,ISIP_8,84,1,48,55,2039049160
22,19,3,ISIP_8,85,1,48,54,2039893568
22,19,3,ISIP_8,86,1,48,57,2040717324
22,19,3,ISIP_8,87,1,48,56,2041546312
22,19,3,ISIP_8,88,1,48,54,2042369204
22,19,3,ISIP_8,89,1,48,53,2043187968
22,19,3,ISIP_8,90,1,48,54,2044011160
22,19,3,ISIP_8,91,1,48,45,2044842088
22,19,3,ISIP_8,92,1,48,53,2045677256
22,19,3,ISIP_8,93,1,48,59,2046496332
22,19,3,ISIP_8,94,1,48,62,2047322556
22,19,3,ISIP_8,95,1,48,46,2048139892
22,19,3,ISIP_8,96,1,48,46,2048918908
22,19,3,ISIP_8,97,1,48,46,2049723636
22,19,3,ISIP_8,98,1,48,46,2050562396
22,19,3,ISIP_8,99,1,48,54,2051385128
22,19,3,ISIP_8,100,1,48,51,2052206032
22,19,3,ISIP_8,101,1,48,57,2053001396
22,19,3,ISIP_8,102,1,48,49,2053830860
22,19,3,ISIP_8,103,1,48,54,2054630472
22,19,3,ISIP_8,104,1,48,53,2055452904
22,19,3,ISIP_8,105,1,48,51,2056248392
22,19,3,ISIP_8,106,1,48,53,2057081272
22,19,3,ISIP_8,107,1,48,63,2057904416
22,19,3,ISIP_8,108,1,48,58,2058712036
22,19,3,ISIP_8,109,1,48,55,2059515240
22,19,3,ISIP_8,110,1,48,54,2060338124
22,19,3,ISIP_8,111,1,48,59,2061159868
22,19,3,ISIP_8,112,1,48,58,2061981408
22,19,3,ISIP_8,113,1,48,59,2062795520
22,19,3,ISIP_8,114,1,48,49,2063608792
22,19,3,ISIP_8,115,1,48,59,2064440688
22,19,3,ISIP_8,116,1,48,61,2065255408
22,19,3,ISIP_8,117,1,48,60,2066086636
22,19,3,ISIP_8,118,1,48,59,2066895184
22,19,3,ISIP_8,119,1,48,51,2067698992
22,19,3,ISIP_8,120,1,48,51,2068557588
22,19,3,ISIP_8,121,1,48,55,2069374704
22,19,3,ISIP_8,122,1,48,57,2070181032
22,19,3,ISIP_8,123,1,48,61,2070992852
22,19,3,ISIP_8,124,1,48,54,2071862900
22,19,3,ISIP_8,125,1,48,54,2072693720
22,19,3,ISIP_8,126,1,48,57,2073513508
22,19,3,ISIP_8,127,1,48,59,2074336928
22,19,3,ISIP_8,128,1,48,55,2075147912
22,19,3,ISIP_8,129,1,48,60,2075943944
22,19,3,ISIP_8,130,1,48,56,2076742636
22,19,3,ISIP_8,131,1,48,52,2077586536
22,19,3,ISIP_8,132,1,48,52,2078411944
22,19,3,ISIP_8,133,1,48,53,2079254288
22,19,3,ISIP_8,134,1,48,56,2080083584
22,19,3,ISIP_8,135,1,48,55,2080915044
22,19,3,ISIP_8,136,1,48,54,2081755712
22,19,3,ISIP_8,137,1,48,54,2082587296
22,19,3,ISIP_8,138,1,48,48,2083417980
22,19,3,ISIP_8,139,1,48,59,2084259284
22,19,3,ISIP_8,140,1,48,66,2085069652
22,19,3,ISIP_8,141,1,48,57,2085905596
22,19,3,ISIP_8,142,1,48,65,2086738932
22,19,3,ISIP_8,143,1,48,54,2087549864
22,19,3,ISIP_8,144,1,48,55,2088365508
22,19,3,ISIP_8,145,1,48,69,2089223800
22,19,3,ISIP_8,146,1,48,59,2090073396
22,19,3,ISIP_8,147,1,48,56,2090907908
22,19,3,ISIP_8,148,1,48,56,2091750940
22,19,3,ISIP_8,149,1,48,61,2092583440
22,19,3,ISIP_8,150,1,48,59,2093415716
22,19,3,ISIP_8,151,1,48,49,2094232828
22,19,3,ISIP_8,152,1,48,53,2095076776
22,19,3,ISIP_8,153,1,48,56,2095896616
22,19,3,ISIP_8,154,1,48,59,2096707212
22,19,3,ISIP_8,155,1,48,55,2097568052
22,19,3,ISIP_8,156,1,48,62,2098429168
22,19,3,ISIP_8,157,1,48,52,2099267928
22,19,3,ISIP_8,158,1,48,56,2100149748
22,19,3,ISIP_8,159,1,48,56,2101000340
22,19,3,ISIP_8,160,1,48,49,2101832696
22,19,3,ISIP_8,161,1,48,54,2102681864
22,19,3,ISIP_8,162,1,48,58,2103527408
22,19,3,ISIP_8,163,1,48,67,2104380288
22,19,3,ISIP_8,164,1,48,49,2105235176
22,19,3,ISIP_8,165,1,48,51,2106096520
22,19,3,ISIP_8,166,1,48,61,2106924448
22,19,3,ISIP_8,167,1,48,53,2107759236
22,19,3,ISIP_8,168,1,48,56,2108611224
22,19,3,ISIP_8,169,1,48,25,2109064760
22,19,3,ISIP_8,170,1,48,61,2109559180
22,19,3,ISIP_8,171,1,48,67,2110423656
22,19,3,ISIP_8,172,1,48,64,2111250968
22,19,3,ISIP_8,173,1,48,43,2112068056
22,19,3,ISIP_8,174,1,48,55,2112967964
22,19,3,ISIP_8,175,1,48,58,2113828180
22,19,3,ISIP_8,0,9999,9999,9999,1994615888
22,19,3,ISIP_8,1,9999,9999,9999,1995415632
22,19,3,ISIP_8,2,9999,9999,9999,1996215344
22,19,3,ISIP_8,3,9999,9999,9999,1997015112
22,19,3,ISIP_8,4,9999,9999,9999,1997815860
22,19,3,ISIP_8,5,9999,9999,9999,1998615632
22,19,3,ISIP_8,6,9999,9999,9999,1999415400
22,19,3,ISIP_8,7,9999,9999,9999,2000215156
22,19,3,ISIP_8,8,9999,9999,9999,2001015928
22,19,3,ISIP_8,9,9999,9999,9999,2001815640
22,19,3,ISIP_8,10,9999,9999,9999,2002615404
22,19,3,ISIP_8,11,9999,9999,9999,2003415096
22,19,3,ISIP_8,12,9999,9999,9999,2004215928
22,19,3,ISIP_8,13,9999,9999,9999,2005015612
22,19,3,ISIP_8,14,9999,9999,9999,2005815388
22,19,3,ISIP_8,15,9999,9999,9999,2006615152
22,19,3,ISIP_8,16,9999,9999,9999,2007415900
22,19,3,ISIP_8,17,9999,9999,9999,2008215616
22,19,3,ISIP_8,18,9999,9999,9999,2009015380
22,19,3,ISIP_8,19,9999,9999,9999,2009815156
22,19,3,ISIP_8,20,9999,9999,9999,2010615904
22,19,3,ISIP_8,21,9999,9999,9999,2011415672
22,19,3,ISIP_8,22,9999,9999,9999,2012215360
22,19,3,ISIP_8,23,9999,9999,9999,2013015128
22,19,3,ISIP_8,24,9999,9999,9999,2013815884
22,19,3,ISIP_8,25,9999,9999,9999,2014615608
22,19,3,ISIP_8,26,9999,9999,9999,2015415376
22,19,3,ISIP_8,27,9999,9999,9999,2016215132
22,19,3,ISIP_8,28,9999,9999,9999,2017015876
22,19,3,ISIP_8,29,9999,9999,9999,2017815640
22,19,3,ISIP_8,30,9999,9999,9999,2018615404
22,19,3,ISIP_8,31,9999,9999,9999,2019415096
22,19,3,ISIP_8,32,9999,9999,9999,2020215928
22,19,3,ISIP_8,33,9999,9999,9999,2021015644
22,19,3,ISIP_8,34,9999,9999,9999,2021815412
22,19,3,ISIP_8,35,9999,9999,9999,2022615100
22,19,3,ISIP_8,36,9999,9999,9999,2023415860
22,19,3,ISIP_8,37,9999,9999,9999,2024215624
22,19,3,ISIP_8,38,9999,9999,9999,2025015392
22,19,3,ISIP_8,39,9999,9999,9999,2025815160
22,19,3,ISIP_8,40,9999,9999,9999,2026615920
22,19,3,ISIP_8,41,9999,9999,9999,2027415632
22,19,3,ISIP_8,42,9999,9999,9999,2028215400
22,19,3,ISIP_8,43,9999,9999,9999,2029015088
22,19,3,ISIP_8,44,9999,9999,9999,2029815924
22,19,3,ISIP_8,45,9999,9999,9999,2030615612
22,19,3,ISIP_8,46,9999,9999,9999,2031415380
22,19,3,ISIP_8,47,9999,9999,9999,2032215144
22,19,3,ISIP_8,48,9999,9999,9999,2033015904
22,19,3,ISIP_8,49,9999,9999,9999,2033815620
22,19,3,ISIP_8,50,9999,9999,9999,2034615388
22,19,3,ISIP_8,51,9999,9999,9999,2035415156
22,19,3,ISIP_8,52,9999,9999,9999,2036215912
22,19,3,ISIP_8,53,9999,9999,9999,2037015604
22,19,3,ISIP_8,54,9999,9999,9999,2037815372
22,19,3,ISIP_8,55,9999,9999,9999,2038615136
22,19,3,ISIP_8,56,9999,9999,9999,2039415896
22,19,3,ISIP_8,57,9999,9999,9999,2040215608
22,19,3,ISIP_8,58,9999,9999,9999,2041015376
22,19,3,ISIP_8,59,9999,9999,9999,2041815144
22,19,3,ISIP_8,60,9999,9999,9999,2042615900
22,19,3,ISIP_8,61,9999,9999,9999,2043415668
22,19,3,ISIP_8,62,9999,9999,9999,2044215356
22,19,3,ISIP_8,63,9999,9999,9999,2045015124
22,19,3,ISIP_8,64,9999,9999,9999,2045815884
22,19,3,ISIP_8,65,9999,9999,9999,2046615652
22,19,3,ISIP_8,66,9999,9999,9999,2047415356
22,19,3,ISIP_8,67,9999,9999,9999,2048215124
22,19,3,ISIP_8,68,9999,9999,9999,2049015868
22,19,3,ISIP_8,69,9999,9999,9999,2049815632
22,19,3,ISIP_8,70,9999,9999,9999,2050615416
22,19,3,ISIP_8,71,9999,9999,9999,2051415108
22,19,3,ISIP_8,72,9999,9999,9999,2052215864
22,19,3,ISIP_8,73,9999,9999,9999,2053015656
22,19,3,ISIP_8,74,9999,9999,9999,2053815352
22,19,3,ISIP_8,75,9999,9999,9999,2054615120
22,19,3,ISIP_8,76,9999,9999,9999,2055415876
22,19,3,ISIP_8,77,9999,9999,9999,2056215636
22,19,3,ISIP_8,78,9999,9999,9999,2057015404
22,19,3,ISIP_8,79,9999,9999,9999,2057815092
22,19,3,ISIP_8,80,9999,9999,9999,2058615928
22,19,3,ISIP_8,81,9999,9999,9999,2059415644
22,19,3,ISIP_8,82,9999,9999,9999,2060215408
22,19,3,ISIP_8,83,9999,9999,9999,2061015100
22,19,3,ISIP_8,84,9999,9999,9999,2061815856
22,19,3,ISIP_8,85,9999,9999,9999,2062615624
22,19,3,ISIP_8,86,9999,9999,9999,2063415392
22,19,3,ISIP_8,87,9999,9999,9999,2064215156
22,19,3,ISIP_8,88,9999,9999,9999,2065015916
22,19,3,ISIP_8,89,9999,9999,9999,2065815632
22,19,3,ISIP_8,90,9999,9999,9999,2066615396
22,19,3,ISIP_8,91,9999,9999,9999,2067415088
22,19,3,ISIP_8,92,9999,9999,9999,2068215920
22,19,3,ISIP_8,93,9999,9999,9999,2069015612
22,19,3,ISIP_8,94,9999,9999,9999,2069815376
22,19,3,ISIP_8,95,9999,9999,9999,2070615144
22,19,3,ISIP_8,96,9999,9999,9999,2071415900
22,19,3,ISIP_8,97,9999,9999,9999,2072215616
22,19,3,ISIP_8,98,9999,9999,9999,2073015380
22,19,3,ISIP_8,99,9999,9999,9999,2073815148
22,19,3,ISIP_8,100,9999,9999,9999,2074615908
22,19,3,ISIP_8,101,9999,9999,9999,2075415596
22,19,3,ISIP_8,102,9999,9999,9999,2076215364
22,19,3,ISIP_8,103,9999,9999,9999,2077015128
22,19,3,ISIP_8,104,9999,9999,9999,2077815888
22,19,3,ISIP_8,105,9999,9999,9999,2078615604
22,19,3,ISIP_8,106,9999,9999,9999,2079415368
22,19,3,ISIP_8,107,9999,9999,9999,2080215136
22,19,3,ISIP_8,108,9999,9999,9999,2081015896
22,19,3,ISIP_8,109,9999,9999,9999,2081815604
22,19,3,ISIP_8,110,9999,9999,9999,2082615368
22,19,3,ISIP_8,111,9999,9999,9999,2083415144
22,19,3,ISIP_8,112,9999,9999,9999,2084215900
22,19,3,ISIP_8,113,9999,9999,9999,2085015616
22,19,3,ISIP_8,114,9999,9999,9999,2085815380
22,19,3,ISIP_8,115,9999,9999,9999,2086615148
22,19,3,ISIP_8,116,9999,9999,9999,2087415908
22,19,3,ISIP_8,117,9999,9999,9999,2088215672
22,19,3,ISIP_8,118,9999,9999,9999,2089015364
22,19,3,ISIP_8,119,9999,9999,9999,2089815128
22,19,3,ISIP_8,120,9999,9999,9999,2090615912
22,19,3,ISIP_8,121,9999,9999,9999,2091415604
22,19,3,ISIP_8,122,9999,9999,9999,2092215368
22,19,3,ISIP_8,123,9999,9999,9999,2093015136
22,19,3,ISIP_8,124,9999,9999,9999,2093815892
22,19,3,ISIP_8,125,9999,9999,9999,2094615660
22,19,3,ISIP_8,126,9999,9999,9999,2095415352
22,19,3,ISIP_8,127,9999,9999,9999,2096215116
22,19,3,ISIP_8,128,9999,9999,9999,2097015900
22,19,3,ISIP_8,129,9999,9999,9999,2097815664
22,19,3,ISIP_8,130,9999,9999,9999,2098615356
22,19,3,ISIP_8,131,9999,9999,9999,2099415124
22,19,3,ISIP_8,132,9999,9999,9999,2100215896
22,19,3,ISIP_8,133,9999,9999,9999,2101015664
22,19,3,ISIP_8,134,9999,9999,9999,2101815364
22,19,3,ISIP_8,135,9999,9999,9999,2102615128
22,19,3,ISIP_8,136,9999,9999,9999,2103415912
22,19,3,ISIP_8,137,9999,9999,9999,2104215600
22,19,3,ISIP_8,138,9999,9999,9999,2105015368
22,19,3,ISIP_8,139,9999,9999,9999,2105815136
22,19,3,ISIP_8,140,9999,9999,9999,2106615896
22,19,3,ISIP_8,141,9999,9999,9999,2107415660
22,19,3,ISIP_8,142,9999,9999,9999,2108215348
22,19,3,ISIP_8,143,9999,9999,9999,2109015120
22,19,3,ISIP_8,144,9999,9999,9999,2109815876
22,19,3,ISIP_8,145,9999,9999,9999,2110615644
22,19,3,ISIP_8,146,9999,9999,9999,2111415408
22,19,3,ISIP_8,147,9999,9999,9999,2112215100
22,19,3,ISIP_8,148,9999,9999,9999,2113015876
22,19,3,ISIP_8,149,9999,9999,9999,2113815648
22,20,5,ISIP_5,0,5,42,127,2143810008
22,20,5,ISIP_5,1,5,42,127,2144309584
22,20,5,ISIP_5,2,5,42,127,2144810452
22,20,5,ISIP_5,3,1,48,51,2144814320
22,20,5,ISIP_5,4,5,42,127,2145310000
22,20,5,ISIP_5,5,1,48,46,2145366064
22,20,5,ISIP_5,6,5,42,127,2145809700
22,20,5,ISIP_5,7,1,48,62,2145833180
22,20,5,ISIP_5,8,5,42,127,2146309324
22,20,5,ISIP_5,9,1,48,63,2146310764
22,20,5,ISIP_5,10,1,48,64,2146780976
22,20,5,ISIP_5,11,5,42,127,2146810460
22,20,5,ISIP_5,12,1,48,59,2147299680
22,20,5,ISIP_5,13,5,42,127,2147309856
22,20,5,ISIP_5,14,1,48,55,2147801136
22,20,5,ISIP_5,15,5,42,127,2147809560
22,20,5,ISIP_5,16,5,42,127,2148310488
22,20,5,ISIP_5,17,1,48,60,2148318780
22,20,5,ISIP_5,18,1,48,58,2148791608
22,20,5,ISIP_5,19,5,42,127,2148810180
22,20,5,ISIP_5,20,1,48,58,2149268948
22,20,5,ISIP_5,21,5,42,127,2149309728
22,20,5,ISIP_5,22,1,48,59,2149793068
22,20,5,ISIP_5,23,5,42,127,2149809428
22,20,5,ISIP_5,24,1,48,55,2150286664
22,20,5,ISIP_5,25,5,42,127,2150310500
22,20,5,ISIP_5,26,5,42,127,2150810132
22,20,5,ISIP_5,27,1,48,55,2150811496
22,20,5,ISIP_5,28,1,48,57,2151289492
22,20,5,ISIP_5,29,5,42,127,2151309596
22,20,5,ISIP_5,30,1,48,60,2151801176
22,20,5,ISIP_5,31,5,42,127,2151810440
22,20,5,ISIP_5,32,5,42,127,2152310072
22,20,5,ISIP_5,33,1,48,51,2152322488
22,20,5,ISIP_5,34,5,42,127,2152809976
22,20,5,ISIP_5,35,1,48,51,2152829584
22,20,5,ISIP_5,36,5,42,127,2153309524
22,20,5,ISIP_5,37,1,48,51,2153311424
22,20,5,ISIP_5,38,1,48,53,2153798044
22,20,5,ISIP_5,39,5,42,127,2153810208
22,20,5,ISIP_5,40,1,48,46,2154293852
22,20,5,ISIP_5,41,5,42,127,2154310136
22,20,5,ISIP_5,42,1,48,55,2154792180
22,20,5,ISIP_5,43,5,42,127,2154809608
22,20,5,ISIP_5,44,1,48,59,2155303024
22,20,5,ISIP_5,45,5,42,127,2155309460
22,20,5,ISIP_5,46,5,42,127,2155810084
22,20,5,ISIP_5,47,1,48,50,2155815708
22,20,5,ISIP_5,48,1,48,55,2156304408
22,20,5,ISIP_5,49,5,42,127,2156310004
22,20,5,ISIP_5,50,1,48,52,2156808564
22,20,5,ISIP_5,51,5,42,127,2156810316
22,20,5,ISIP_5,52,1,48,59,2157289992
22,20,5,ISIP_5,53,5,42,127,2157310244
22,20,5,ISIP_5,54,5,42,127,2157810104
22,20,5,ISIP_5,55,1,48,55,2157823816
22,20,5,ISIP_5,56,5,42,127,2158309804
22,20,5,ISIP_5,57,1,48,54,2158310868
22,20,5,ISIP_5,58,1,48,55,2158786808
22,20,5,ISIP_5,59,5,42,127,2158809420
22,20,5,ISIP_5,60,1,48,52,2159303364
22,20,5,ISIP_5,61,5,42,127,2159310112
22,20,5,ISIP_5,62,1,48,52,2159790096
22,20,5,ISIP_5,63,5,42,127,2159809964
22,20,5,ISIP_5,64,1,48,64,2160294908
22,20,5,ISIP_5,65,5,42,127,2160309740
22,20,5,ISIP_5,66,5,42,127,2160810364
22,20,5,ISIP_5,67,1,48,51,2160817744
22,20,5,ISIP_5,68,5,42,127,2161309992
22,20,5,ISIP_5,69,1,48,56,2161325308
22,20,5,ISIP_5,70,1,48,51,2161800876
22,20,5,ISIP_5,71,5,42,127,2161809684
22,20,5,ISIP_5,72,1,48,49,2162288956
22,20,5,ISIP_5,73,5,42,127,2162310140
22,20,5,ISIP_5,74,1,48,50,2162796820
22,20,5,ISIP_5,75,5,42,127,2162810152
22,20,5,ISIP_5,76,5,42,127,2163310060
22,20,5,ISIP_5,77,1,48,47,2163330664
22,20,5,ISIP_5,78,1,48,49,2163821948
22,20,5,ISIP_5,79,1,48,54,2164350592
22,20,5,ISIP_5,80,1,48,51,2164832104
22,20,5,ISIP_5,81,1,48,56,2165315324
22,20,5,ISIP_5,82,1,48,51,2165813956
22,20,5,ISIP_5,83,1,48,50,2166290824
22,20,5,ISIP_5,84,1,48,50,2166779308
22,20,5,ISIP_5,85,1,48,48,2167275804
22,20,5,ISIP_5,86,1,48,46,2167761388
22,20,5,ISIP_5,87,1,48,48,2168244456
22,20,5,ISIP_5,88,1,48,48,2168708516
22,20,5,ISIP_5,89,1,48,46,2169211960
22,20,5,ISIP_5,90,1,48,49,2169691184
22,20,5,ISIP_5,91,1,48,50,2170188284
22,20,5,ISIP_5,92,1,48,45,2170671732
22,20,5,ISIP_5,93,1,48,50,2171117792
22,20,5,ISIP_5,94,1,48,45,2171628020
22,20,5,ISIP_5,95,1,48,46,2172113752
22,20,5,ISIP_5,96,1,48,47,2172613532
22,20,5,ISIP_5,97,1,48,45,2173126432
22,20,5,ISIP_5,98,1,48,49,2173602864
22,20,5,ISIP_5,99,1,48,49,2174082492
22,20,5,ISIP_5,100,1,48,49,2174561792
22,20,5,ISIP_5,101,1,48,43,2175053944
22,20,5,ISIP_5,102,1,48,48,2175547536
22,20,5,ISIP_5,103,1,48,49,2176051204
22,20,5,ISIP_5,104,1,48,48,2176508096
22,20,5,ISIP_5,105,1,48,47,2176977348
22,20,5,ISIP_5,106,1,48,45,2177467204
22,20,5,ISIP_5,107,1,48,47,2177964540
22,20,5,ISIP_5,108,1,48,48,2178461952
22,20,5,ISIP_5,109,1,48,48,2178931740
22,20,5,ISIP_5,110,1,48,42,2179419124
22,20,5,ISIP_5,111,1,48,41,2179896316
22,20,5,ISIP_5,112,1,48,44,2180395636
22,20,5,ISIP_5,113,1,48,49,2180896176
22,20,5,ISIP_5,114,1,48,46,2181377560
22,20,5,ISIP_5,115,1,48,47,2181859248
22,20,5,ISIP_5,116,1,48,46,2182351852
22,20,5,ISIP_5,117,1,48,44,2182843012
22,20,5,ISIP_5,118,1,48,36,2183338816
22,20,5,ISIP_5,119,1,48,52,2183850044
22,20,5,ISIP_5,120,1,48,51,2184319148
22,20,5,ISIP_5,121,1,48,42,2184778060
22,20,5,ISIP_5,122,1,48,47,2185256316
22,20,5,ISIP_5,123,1,48,49,2185746708
22,20,5,ISIP_5,124,1,48,44,2186234580
22,20,5,ISIP_5,125,1,48,42,2186712532
22,20,5,ISIP_5,126,1,48,49,2187196360
22,20,5,ISIP_5,127,1,48,50,2187708728
22,20,5,ISIP_5,128,1,48,48,2188190644
22,20,5,ISIP_5,129,1,48,53,2188669364
22,20,5,ISIP_5,130,1,48,49,2189164620
22,20,5,ISIP_5,131,1,48,45,2189653176
22,20,5,ISIP_5,132,1,48,45,2190130440
22,20,5,ISIP_5,133,1,48,45,2190626096
22,20,5,ISIP_5,134,1,48,48,2191122972
22,20,5,ISIP_5,135,1,48,44,2191597036
22,20,5,ISIP_5,136,1,48,52,2192086888
22,20,5,ISIP_5,137,1,48,54,2192584916
22,20,5,ISIP_5,138,1,48,42,2193064544
22,20,5,ISIP_5,139,1,48,42,2193532652
22,20,5,ISIP_5,140,1,48,41,2194030116
22,20,5,ISIP_5,141,1,48,47,2194509060
22,20,5,ISIP_5,142,1,48,45,2195027076
22,20,5,ISIP_5,143,1,48,44,2195531276
22,20,5,ISIP_5,144,1,48,45,2195970996
22,20,5,ISIP_5,145,1,48,38,2196487104
22,20,5,ISIP_5,146,1,48,43,2196977880
22,20,5,ISIP_5,147,1,48,43,2197447360
22,20,5,ISIP_5,148,1,48,40,2197946220
22,20,5,ISIP_5,149,1,48,49,2198444472
22,20,5,ISIP_5,150,1,48,50,2198906704
22,20,5,ISIP_5,151,1,48,53,2199384632
22,20,5,ISIP_5,152,1,48,42,2199875864
22,20,5,ISIP_5,153,1,48,40,2200376172
22,20,5,ISIP_5,154,1,48,50,2200855420
22,20,5,ISIP_5,155,1,48,46,2201369388
22,20,5,ISIP_5,156,1,48,46,2201861464
22,20,5,ISIP_5,157,1,48,54,2202362532
22,20,5,ISIP_5,158,1,48,41,2202866204
22,20,5,ISIP_5,159,1,48,46,2203349116
22,20,5,ISIP_5,160,1,48,46,2203844468
22,20,5,ISIP_5,161,1,48,46,2204355620
22,20,5,ISIP_5,162,1,48,48,2204858976
22,20,5,ISIP_5,163,1,48,46,2205373484
22,20,5,ISIP_5,164,1,48,34,2205889668
22,20,5,ISIP_5,165,1,48,49,2206409660
22,20,5,ISIP_5,166,1,48,53,2206902800
22,20,5,ISIP_5,167,1,48,42,2207391356
22,20,5,ISIP_5,168,1,48,50,2207893808
22,20,5,ISIP_5,169,1,48,46,2208379544
22,20,5,ISIP_5,170,1,48,52,2208885348
22,20,5,ISIP_5,171,1,48,50,2209395736
22,20,5,ISIP_5,172,1,48,44,2209887476
22,20,5,ISIP_5,173,1,48,44,2210370692
22,20,5,ISIP_5,174,1,48,58,2210891452
22,20,5,ISIP_5,175,1,48,51,2211423200
22,20,5,ISIP_5,176,1,48,49,2211882988
22,20,5,ISIP_5,177,1,48,44,2212377272
22,20,5,ISIP_5,178,1,48,55,2212845688
22,20,5,ISIP_5,179,1,48,51,2213357752
22,20,5,ISIP_5,180,1,48,50,2213846992
22,20,5,ISIP_5,181,1,48,54,2214356312
22,20,5,ISIP_5,182,1,48,57,2214857156
22,20,5,ISIP_5,183,1,48,49,2215354720
22,20,5,ISIP_5,184,1,48,49,2215842824
22,20,5,ISIP_5,185,1,48,50,2216357024
22,20,5,ISIP_5,186,1,48,60,2216826276
22,20,5,ISIP_5,187,1,48,54,2217310308
22,20,5,ISIP_5,188,1,48,57,2217789468
22,20,5,ISIP_5,189,1,48,48,2218307636
22,20,5,ISIP_5,190,1,48,54,2218830844
22,20,5,ISIP_5,191,1,48,52,2219310708
22,20,5,ISIP_5,192,1,48,50,2219814076
22,20,5,ISIP_5,193,1,48,52,2220305136
22,20,5,ISIP_5,194,1,48,57,2220796440
22,20,5,ISIP_5,195,1,48,49,2221281492
22,20,5,ISIP_5,196,1,48,56,2221774864
22,20,5,ISIP_5,197,1,48,51,2222283184
22,20,5,ISIP_5,198,1,48,48,2222781204
22,20,5,ISIP_5,199,1,48,53,2223269992
22,20,5,ISIP_5,200,1,48,47,2223752296
22,20,5,ISIP_5,0,9999,9999,9999,2143807604
22,20,5,ISIP_5,1,9999,9999,9999,2144307252
22,20,5,ISIP_5,2,9999,9999,9999,2144808044
22,20,5,ISIP_5,3,9999,9999,9999,2145307748
22,20,5,ISIP_5,4,9999,9999,9999,2145807444
22,20,5,ISIP_5,5,9999,9999,9999,2146307144
22,20,5,ISIP_5,6,9999,9999,9999,2146807904
22,20,5,ISIP_5,7,9999,9999,9999,2147307604
22,20,5,ISIP_5,8,9999,9999,9999,2147807304
22,20,5,ISIP_5,9,9999,9999,9999,2148308084
22,20,5,ISIP_5,10,9999,9999,9999,2148807772
22,20,5,ISIP_5,11,9999,9999,9999,2149307476
22,20,5,ISIP_5,12,9999,9999,9999,2149807172
22,20,5,ISIP_5,13,9999,9999,9999,2150307944
22,20,5,ISIP_5,14,9999,9999,9999,2150807652
22,20,5,ISIP_5,15,9999,9999,9999,2151307344
22,20,5,ISIP_5,16,9999,9999,9999,2151808112
22,20,5,ISIP_5,17,9999,9999,9999,2152307820
22,20,5,ISIP_5,18,9999,9999,9999,2152807496
22,20,5,ISIP_5,19,9999,9999,9999,2153307196
22,20,5,ISIP_5,20,9999,9999,9999,2153807956
22,20,5,ISIP_5,21,9999,9999,9999,2154307656
22,20,5,ISIP_5,22,9999,9999,9999,2154807356
22,20,5,ISIP_5,23,9999,9999,9999,2155307132
22,20,5,ISIP_5,24,9999,9999,9999,2155807832
22,20,5,ISIP_5,25,9999,9999,9999,2156307524
22,20,5,ISIP_5,26,9999,9999,9999,2156807232
22,20,5,ISIP_5,27,9999,9999,9999,2157307992
22,20,5,ISIP_5,28,9999,9999,9999,2157807700
22,20,5,ISIP_5,29,9999,9999,9999,2158307400
22,20,5,ISIP_5,30,9999,9999,9999,2158807092
22,20,5,ISIP_5,31,9999,9999,9999,2159307860
22,20,5,ISIP_5,32,9999,9999,9999,2159807560
22,20,5,ISIP_5,33,9999,9999,9999,2160307264
22,20,5,ISIP_5,34,9999,9999,9999,2160808036
22,20,5,ISIP_5,35,9999,9999,9999,2161307740
22,20,5,ISIP_5,36,9999,9999,9999,2161807432
22,20,5,ISIP_5,37,9999,9999,9999,2162307132
22,20,5,ISIP_5,38,9999,9999,9999,2162807900
22,20,5,ISIP_5,39,9999,9999,9999,2163307580
22,20,5,ISIP_5,40,9999,9999,9999,2163807280
22,20,5,ISIP_5,41,9999,9999,9999,2164308048
22,20,5,ISIP_5,42,9999,9999,9999,2164807748
22,20,5,ISIP_5,43,9999,9999,9999,2165307448
22,20,5,ISIP_5,44,9999,9999,9999,2165807224
22,20,5,ISIP_5,45,9999,9999,9999,2166307908
22,20,5,ISIP_5,46,9999,9999,9999,2166807608
22,20,5,ISIP_5,47,9999,9999,9999,2167307384
22,20,5,ISIP_5,48,9999,9999,9999,2167808076
22,20,5,ISIP_5,49,9999,9999,9999,2168307780
22,20,5,ISIP_5,50,9999,9999,9999,2168807536
22,20,5,ISIP_5,51,9999,9999,9999,2169307236
22,20,5,ISIP_5,52,9999,9999,9999,2169807928
22,20,5,ISIP_5,53,9999,9999,9999,2170307704
22,20,5,ISIP_5,54,9999,9999,9999,2170807408
22,20,5,ISIP_5,55,9999,9999,9999,2171307108
22,20,5,ISIP_5,56,9999,9999,9999,2171807800
22,20,5,ISIP_5,57,9999,9999,9999,2172307576
22,20,5,ISIP_5,58,9999,9999,9999,2172807276
22,20,5,ISIP_5,59,9999,9999,9999,2173307968
22,20,5,ISIP_5,60,9999,9999,9999,2173807720
22,20,5,ISIP_5,61,9999,9999,9999,2174307420
22,20,5,ISIP_5,62,9999,9999,9999,2174807120
22,20,5,ISIP_5,63,9999,9999,9999,2175307888
22,20,5,ISIP_5,64,9999,9999,9999,2175807588
22,20,5,ISIP_5,65,9999,9999,9999,2176307288
22,20,5,ISIP_5,66,9999,9999,9999,2176808056
22,20,5,ISIP_5,67,9999,9999,9999,2177307760
22,20,5,ISIP_5,68,9999,9999,9999,2177807460
22,20,5,ISIP_5,69,9999,9999,9999,2178307160
22,20,5,ISIP_5,70,9999,9999,9999,2178807928
22,20,5,ISIP_5,71,9999,9999,9999,2179307628
22,20,5,ISIP_5,72,9999,9999,9999,2179807328
22,20,5,ISIP_5,73,9999,9999,9999,2180308020
22,20,5,ISIP_5,74,9999,9999,9999,2180807796
22,20,5,ISIP_5,75,9999,9999,9999,2181307496
22,20,5,ISIP_5,76,9999,9999,9999,2181807196
22,20,5,ISIP_5,77,9999,9999,9999,2182307888
22,20,5,ISIP_5,78,9999,9999,9999,2182807664
22,20,5,ISIP_5,79,9999,9999,9999,2183307364
22,20,5,ISIP_5,80,9999,9999,9999,2183808060
22,20,5,ISIP_5,81,9999,9999,9999,2184307760
22,20,5,ISIP_5,82,9999,9999,9999,2184807504
22,20,5,ISIP_5,83,9999,9999,9999,2185307204
22,20,5,ISIP_5,84,9999,9999,9999,2185807972
22,20,5,ISIP_5,85,9999,9999,9999,2186307672
22,20,5,ISIP_5,86,9999,9999,9999,2186807356
22,20,5,ISIP_5,87,9999,9999,9999,2187307056
22,20,5,ISIP_5,88,9999,9999,9999,2187807828
22,20,5,ISIP_5,89,9999,9999,9999,2188307528
22,20,5,ISIP_5,90,9999,9999,9999,2188807228
22,20,5,ISIP_5,91,9999,9999,9999,2189307996
22,20,5,ISIP_5,92,9999,9999,9999,2189807696
22,20,5,ISIP_5,93,9999,9999,9999,2190307396
22,20,5,ISIP_5,94,9999,9999,9999,2190807096
22,20,5,ISIP_5,95,9999,9999,9999,2191307864
22,20,5,ISIP_5,96,9999,9999,9999,2191807564
22,20,5,ISIP_5,97,9999,9999,9999,2192307268
22,20,5,ISIP_5,98,9999,9999,9999,2192808032
22,20,5,ISIP_5,99,9999,9999,9999,2193307736
22,20,5,ISIP_5,100,9999,9999,9999,2193807436
22,20,5,ISIP_5,101,9999,9999,9999,2194307136
22,20,5,ISIP_5,102,9999,9999,9999,2194807904
22,20,5,ISIP_5,103,9999,9999,9999,2195307576
22,20,5,ISIP_5,104,9999,9999,9999,2195807356
22,20,5,ISIP_5,105,9999,9999,9999,2196308048
22,20,5,ISIP_5,106,9999,9999,9999,2196807748
22,20,5,ISIP_5,107,9999,9999,9999,2197307448
22,20,5,ISIP_5,108,9999,9999,9999,2197807224
22,20,5,ISIP_5,109,9999,9999,9999,2198307916
22,20,5,ISIP_5,110,9999,9999,9999,2198807620
22,20,5,ISIP_5,111,9999,9999,9999,2199307320
22,20,5,ISIP_5,112,9999,9999,9999,2199808088
22,20,5,ISIP_5,113,9999,9999,9999,2200307788
22,20,5,ISIP_5,114,9999,9999,9999,2200807488
22,20,5,ISIP_5,115,9999,9999,9999,2201307188
22,20,5,ISIP_5,116,9999,9999,9999,2201807956
22,20,5,ISIP_5,117,9999,9999,9999,2202307656
22,20,5,ISIP_5,118,9999,9999,9999,2202807356
22,20,5,ISIP_5,119,9999,9999,9999,2203307056
22,20,5,ISIP_5,120,9999,9999,9999,2203807824
22,20,5,ISIP_5,121,9999,9999,9999,2204307528
22,20,5,ISIP_5,122,9999,9999,9999,2204807228
22,20,5,ISIP_5,123,9999,9999,9999,2205307996
22,20,5,ISIP_5,124,9999,9999,9999,2205807696
22,20,5,ISIP_5,125,9999,9999,9999,2206307448
22,20,5,ISIP_5,126,9999,9999,9999,2206807148
22,20,5,ISIP_5,127,9999,9999,9999,2207307840
22,20,5,ISIP_5,128,9999,9999,9999,2207807540
22,20,5,ISIP_5,129,9999,9999,9999,2208307316
22,20,5,ISIP_5,130,9999,9999,9999,2208808008
22,20,5,ISIP_5,131,9999,9999,9999,2209307712
22,20,5,ISIP_5,132,9999,9999,9999,2209807408
22,20,5,ISIP_5,133,9999,9999,9999,2210307188
22,20,5,ISIP_5,134,9999,9999,9999,2210807880
22,20,5,ISIP_5,135,9999,9999,9999,2211307580
22,20,5,ISIP_5,136,9999,9999,9999,2211807280
22,20,5,ISIP_5,137,9999,9999,9999,2212308048
22,20,5,ISIP_5,138,9999,9999,9999,2212807748
22,20,5,ISIP_5,139,9999,9999,9999,2213307448
22,20,5,ISIP_5,140,9999,9999,9999,2213807224
22,20,5,ISIP_5,141,9999,9999,9999,2214307916
22,20,5,ISIP_5,142,9999,9999,9999,2214807616
22,20,5,ISIP_5,143,9999,9999,9999,2215307320
22,20,5,ISIP_5,144,9999,9999,9999,2215808088
22,20,5,ISIP_5,145,9999,9999,9999,2216307788
22,20,5,ISIP_5,146,9999,9999,9999,2216807536
22,20,5,ISIP_5,147,9999,9999,9999,2217307240
22,20,5,ISIP_5,148,9999,9999,9999,2217807924
22,20,5,ISIP_5,149,9999,9999,9999,2218307700
22,20,5,ISIP_5,150,9999,9999,9999,2218807408
22,20,5,ISIP_5,151,9999,9999,9999,2219307108
22,20,5,ISIP_5,152,9999,9999,9999,2219807800
22,20,5,ISIP_5,153,9999,9999,9999,2220307568
22,20,5,ISIP_5,154,9999,9999,9999,2220807268
22,20,5,ISIP_5,155,9999,9999,9999,2221307960
22,20,5,ISIP_5,156,9999,9999,9999,2221807740
22,20,5,ISIP_5,157,9999,9999,9999,2222307440
22,20,5,ISIP_5,158,9999,9999,9999,2222807140
22,20,5,ISIP_5,159,9999,9999,9999,2223307832
22,21,11,Pattern_Practice,0,5,42,127,2321000828
22,21,11,Pattern_Practice,1,5,42,127,2321500452
22,21,11,Pattern_Practice,2,5,42,127,2322001396
22,21,11,Pattern_Practice,3,5,42,127,2322500892
22,21,11,Pattern_Practice,4,5,42,127,2323000696
22,21,11,Pattern_Practice,5,1,38,20,2323022796
22,21,11,Pattern_Practice,6,5,42,127,2323501388
22,21,11,Pattern_Practice,7,1,38,16,2323509376
22,21,11,Pattern_Practice,8,5,42,127,2324001388
22,21,11,Pattern_Practice,9,1,38,46,2324018384
22,21,11,Pattern_Practice,10,5,42,127,2324500864
22,21,11,Pattern_Practice,11,1,38,47,2324534568
22,21,11,Pattern_Practice,12,1,38,53,2324975492
22,21,11,Pattern_Practice,13,5,42,127,2325000556
22,21,11,Pattern_Practice,14,1,38,55,2325487556
22,21,11,Pattern_Practice,15,5,42,127,2325501324
22,21,11,Pattern_Practice,16,1,38,48,2325978332
22,21,11,Pattern_Practice,17,5,42,127,2326001328
22,21,11,Pattern_Practice,18,1,38,43,2326486728
22,21,11,Pattern_Practice,19,5,42,127,2326500724
22,21,11,Pattern_Practice,20,1,38,50,2326982768
22,21,11,Pattern_Practice,21,5,42,127,2327000424
22,21,11,Pattern_Practice,22,1,38,47,2327493992
22,21,11,Pattern_Practice,23,5,42,127,2327501420
22,21,11,Pattern_Practice,24,1,38,51,2327971712
22,21,11,Pattern_Practice,25,5,42,127,2328000968
22,21,11,Pattern_Practice,26,1,38,43,2328482400
22,21,11,Pattern_Practice,27,5,42,127,2328500672
22,21,11,Pattern_Practice,28,1,38,46,2328986448
22,21,11,Pattern_Practice,29,5,42,127,2329001360
22,21,11,Pattern_Practice,30,1,48,39,2329233244
22,21,11,Pattern_Practice,31,1,48,55,2329487428
22,21,11,Pattern_Practice,32,5,42,127,2329501188
22,21,11,Pattern_Practice,33,1,38,32,2329710252
22,21,11,Pattern_Practice,34,1,48,13,2329722444
22,21,11,Pattern_Practice,35,1,38,39,2329865244
22,21,11,Pattern_Practice,36,1,48,16,2329873768
22,21,11,Pattern_Practice,37,5,42,127,2330000988
22,21,11,Pattern_Practice,38,1,38,40,2330030192
22,21,11,Pattern_Practice,39,1,48,53,2330256060
22,21,11,Pattern_Practice,40,5,42,127,2330500360
22,21,11,Pattern_Practice,41,1,48,48,2330529784
22,21,11,Pattern_Practice,42,1,38,54,2330767412
22,21,11,Pattern_Practice,43,1,38,51,2330922064
22,21,11,Pattern_Practice,44,5,42,127,2331001324
22,21,11,Pattern_Practice,45,1,48,53,2331183504
22,21,11,Pattern_Practice,46,1,38,57,2331287280
22,21,11,Pattern_Practice,47,5,42,127,2331500980
22,21,11,Pattern_Practice,48,1,48,48,2331565360
22,21,11,Pattern_Practice,49,1,48,54,2331820532
22,21,11,Pattern_Practice,50,5,42,127,2332000632
22,21,11,Pattern_Practice,51,1,38,62,2332066104
22,21,11,Pattern_Practice,52,1,38,54,2332307308
22,21,11,Pattern_Practice,53,5,42,127,2332501528
22,21,11,Pattern_Practice,54,1,38,57,2332567456
22,21,11,Pattern_Practice,55,5,42,127,2333001148
22,21,11,Pattern_Practice,56,1,38,50,2333079672
22,21,11,Pattern_Practice,57,5,42,127,2333501080
22,21,11,Pattern_Practice,58,1,38,52,2333588068
22,21,11,Pattern_Practice,59,5,42,127,2334000400
22,21,11,Pattern_Practice,60,1,38,57,2334048372
22,21,11,Pattern_Practice,61,1,48,55,2334271496
22,21,11,Pattern_Practice,62,1,48,47,2334500220
22,21,11,Pattern_Practice,63,5,42,127,2334502048
22,21,11,Pattern_Practice,64,1,38,29,2334728512
22,21,11,Pattern_Practice,65,1,48,49,2334955756
22,21,11,Pattern_Practice,66,5,42,127,2335000884
22,21,11,Pattern_Practice,67,1,38,33,2335235052
22,21,11,Pattern_Practice,68,1,38,41,2335429792
22,21,11,Pattern_Practice,69,5,42,127,2335500560
22,21,11,Pattern_Practice,70,1,38,51,2335785552
22,21,11,Pattern_Practice,71,5,42,127,2336001464
22,21,11,Pattern_Practice,72,1,38,59,2336357008
22,21,11,Pattern_Practice,73,5,42,127,2336501164
22,21,11,Pattern_Practice,74,5,42,127,2337000964
22,21,11,Pattern_Practice,75,1,38,57,2337007348
22,21,11,Pattern_Practice,76,5,42,127,2337500440
22,21,11,Pattern_Practice,77,1,38,61,2337576716
22,21,11,Pattern_Practice,78,5,42,127,2338001204
22,21,11,Pattern_Practice,79,1,38,52,2338082368
22,21,11,Pattern_Practice,80,1,48,35,2338127524
22,21,11,Pattern_Practice,81,5,42,127,2338501232
22,21,11,Pattern_Practice,82,1,48,52,2338601628
22,21,11,Pattern_Practice,83,5,42,127,2339000784
22,21,11,Pattern_Practice,84,1,48,51,2339154744
22,21,11,Pattern_Practice,85,5,42,127,2339501552
22,21,11,Pattern_Practice,86,1,48,46,2339645596
22,21,11,Pattern_Practice,87,5,42,127,2340001024
22,21,11,Pattern_Practice,88,1,48,51,2340127512
22,21,11,Pattern_Practice,89,1,38,39,2340173048
22,21,11,Pattern_Practice,90,5,42,127,2340500748
22,21,11,Pattern_Practice,91,1,38,44,2340653944
22,21,11,Pattern_Practice,92,1,48,45,2340671708
22,21,11,Pattern_Practice,93,5,42,127,2341000548
22,21,11,Pattern_Practice,94,1,48,45,2341126432
22,21,11,Pattern_Practice,95,1,38,42,2341160744
22,21,11,Pattern_Practice,96,5,42,127,2341501268
22,21,11,Pattern_Practice,97,1,48,46,2341648056
22,21,11,Pattern_Practice,98,1,38,57,2341678784
22,21,11,Pattern_Practice,99,5,42,127,2342000992
22,21,11,Pattern_Practice,100,1,38,49,2342148244
22,21,11,Pattern_Practice,101,1,48,29,2342157832
22,21,11,Pattern_Practice,102,5,42,127,2342500656
22,21,11,Pattern_Practice,103,1,48,53,2342654392
22,21,11,Pattern_Practice,104,1,38,41,2342675812
22,21,11,Pattern_Practice,105,5,42,127,2343000596
22,21,11,Pattern_Practice,106,1,38,32,2343184804
22,21,11,Pattern_Practice,107,1,48,46,2343189132
22,21,11,Pattern_Practice,108,1,38,25,2343434816
22,21,11,Pattern_Practice,109,1,48,36,2343451736
22,21,11,Pattern_Practice,110,5,42,127,2343501212
22,21,11,Pattern_Practice,111,1,48,89,2343718788
22,21,11,Pattern_Practice,112,1,38,28,2343965340
22,21,11,Pattern_Practice,113,5,42,127,2344000780
22,21,11,Pattern_Practice,114,1,38,26,2344118120
22,21,11,Pattern_Practice,115,1,48,51,2344157476
22,21,11,Pattern_Practice,116,1,38,30,2344455508
22,21,11,Pattern_Practice,117,1,48,28,2344470132
22,21,11,Pattern_Practice,118,5,42,127,2344500536
22,21,11,Pattern_Practice,119,1,38,57,2344788008
22,21,11,Pattern_Practice,120,1,48,56,2344824268
22,21,11,Pattern_Practice,121,5,42,127,2345001512
22,21,11,Pattern_Practice,122,1,48,60,2345340040
22,21,11,Pattern_Practice,123,5,42,127,2345500984
22,21,11,Pattern_Practice,124,1,48,59,2345587288
22,21,11,Pattern_Practice,125,1,38,45,2345862456
22,21,11,Pattern_Practice,126,1,48,16,2345874412
22,21,11,Pattern_Practice,127,5,42,127,2346000916
22,21,11,Pattern_Practice,128,1,38,41,2346107364
22,21,11,Pattern_Practice,129,1,38,53,2346234848
22,21,11,Pattern_Practice,130,1,48,36,2346420812
22,21,11,Pattern_Practice,131,5,42,127,2346500508
22,21,11,Pattern_Practice,132,1,38,61,2346523972
22,21,11,Pattern_Practice,133,1,48,62,2346658800
22,21,11,Pattern_Practice,134,1,48,71,2346933740
22,21,11,Pattern_Practice,135,5,42,127,2347001376
22,21,11,Pattern_Practice,136,1,48,51,2347473196
22,21,11,Pattern_Practice,137,5,42,127,2347500924
22,21,11,Pattern_Practice,138,1,48,59,2347742576
22,21,11,Pattern_Practice,139,5,42,127,2348000532
22,21,11,Pattern_Practice,140,1,38,54,2348017980
22,21,11,Pattern_Practice,141,1,38,51,2348251020
22,21,11,Pattern_Practice,142,1,38,56,2348391812
22,21,11,Pattern_Practice,143,5,42,127,2348501324
22,21,11,Pattern_Practice,144,1,38,55,2348641328
22,21,11,Pattern_Practice,145,1,38,45,2348777536
22,21,11,Pattern_Practice,146,5,42,127,2349001000
22,21,11,Pattern_Practice,147,1,48,54,2349017076
22,21,11,Pattern_Practice,148,1,48,31,2349314980
22,21,11,Pattern_Practice,149,5,42,127,2349500752
22,21,11,Pattern_Practice,150,1,48,66,2349582380
22,21,11,Pattern_Practice,151,1,48,47,2349837776
22,21,11,Pattern_Practice,152,5,42,127,2350000428
22,21,11,Pattern_Practice,153,1,38,49,2350115244
22,21,11,Pattern_Practice,154,1,48,14,2350126744
22,21,11,Pattern_Practice,155,1,38,47,2350410120
22,21,11,Pattern_Practice,156,5,42,127,2350501800
22,21,11,Pattern_Practice,157,1,38,32,2350552448
22,21,11,Pattern_Practice,158,1,38,43,2350830896
22,21,11,Pattern_Practice,159,1,38,44,2350966720
22,21,11,Pattern_Practice,160,5,42,127,2351000936
22,21,11,Pattern_Practice,161,1,48,43,2351230604
22,21,11,Pattern_Practice,162,5,42,127,2351500544
22,21,11,Pattern_Practice,163,1,48,45,2351730992
22,21,11,Pattern_Practice,164,5,42,127,2352001388
22,21,11,Pattern_Practice,165,1,48,45,2352304712
22,21,11,Pattern_Practice,166,5,42,127,2352501316
22,21,11,Pattern_Practice,167,1,48,39,2352828600
22,21,11,Pattern_Practice,168,1,38,14,2352841396
22,21,11,Pattern_Practice,169,5,42,127,2353000892
22,21,11,Pattern_Practice,170,1,48,42,2353378152
22,21,11,Pattern_Practice,171,5,42,127,2353500416
22,21,11,Pattern_Practice,172,1,48,48,2353934632
22,21,11,Pattern_Practice,173,5,42,127,2354001276
22,21,11,Pattern_Practice,174,5,42,127,2354500984
22,21,11,Pattern_Practice,175,1,48,50,2354561116
22,21,11,Pattern_Practice,176,5,42,127,2355000684
22,21,11,Pattern_Practice,177,1,48,48,2355114840
22,21,11,Pattern_Practice,178,5,42,127,2355501452
22,21,11,Pattern_Practice,179,1,38,48,2355587528
22,21,11,Pattern_Practice,180,1,38,47,2355836292
22,21,11,Pattern_Practice,181,5,42,127,2356001052
22,21,11,Pattern_Practice,182,1,38,54,2356092164
22,21,11,Pattern_Practice,183,1,48,35,2356334588
22,21,11,Pattern_Practice,184,1,38,48,2356427664
22,21,11,Pattern_Practice,185,5,42,127,2356500936
22,21,11,Pattern_Practice,186,1,48,44,2356722512
22,21,11,Pattern_Practice,187,1,48,28,2356858192
22,21,11,Pattern_Practice,188,5,42,127,2357000668
22,21,11,Pattern_Practice,189,1,48,51,2357114824
22,21,11,Pattern_Practice,190,1,48,45,2357378164
22,21,11,Pattern_Practice,191,5,42,127,2357501184
22,21,11,Pattern_Practice,192,1,48,51,2357639304
22,21,11,Pattern_Practice,193,1,38,49,2357883788
22,21,11,Pattern_Practice,194,5,42,127,2358000936
22,21,11,Pattern_Practice,195,1,38,52,2358157748
22,21,11,Pattern_Practice,196,1,38,32,2358457864
22,21,11,Pattern_Practice,197,5,42,127,2358500932
22,21,11,Pattern_Practice,198,1,38,45,2358586964
22,21,11,Pattern_Practice,199,1,38,48,2358848468
22,21,11,Pattern_Practice,200,1,38,20,2358961256
22,21,11,Pattern_Practice,201,5,42,127,2359000432
22,21,11,Pattern_Practice,202,1,48,49,2359225976
22,21,11,Pattern_Practice,203,5,42,127,2359501184
22,21,11,Pattern_Practice,204,1,48,49,2359512452
22,21,11,Pattern_Practice,205,1,48,53,2359781892
22,21,11,Pattern_Practice,206,5,42,127,2360000856
22,21,11,Pattern_Practice,207,1,48,47,2360043872
22,21,11,Pattern_Practice,208,1,48,51,2360309268
22,21,11,Pattern_Practice,209,5,42,127,2360500688
22,21,11,Pattern_Practice,210,1,38,34,2360572312
22,21,11,Pattern_Practice,211,1,38,35,2360740188
22,21,11,Pattern_Practice,0,9999,9999,9999,2320998496
22,21,11,Pattern_Practice,1,9999,9999,9999,2321498196
22,21,11,Pattern_Practice,2,9999,9999,9999,2321998916
22,21,11,Pattern_Practice,3,9999,9999,9999,2322498640
22,21,11,Pattern_Practice,4,9999,9999,9999,2322998364
22,21,11,Pattern_Practice,5,9999,9999,9999,2323499056
22,21,11,Pattern_Practice,6,9999,9999,9999,2323998832
22,21,11,Pattern_Practice,7,9999,9999,9999,2324498532
22,21,11,Pattern_Practice,8,9999,9999,9999,2324998228
22,21,11,Pattern_Practice,9,9999,9999,9999,2325498996
22,21,11,Pattern_Practice,10,9999,9999,9999,2325998696
22,21,11,Pattern_Practice,11,9999,9999,9999,2326498396
22,21,11,Pattern_Practice,12,9999,9999,9999,2326998096
22,21,11,Pattern_Practice,13,9999,9999,9999,2327498864
22,21,11,Pattern_Practice,14,9999,9999,9999,2327998564
22,21,11,Pattern_Practice,15,9999,9999,9999,2328498264
22,21,11,Pattern_Practice,16,9999,9999,9999,2328999032
22,21,11,Pattern_Practice,17,9999,9999,9999,2329498708
22,21,11,Pattern_Practice,18,9999,9999,9999,2329998432
22,21,11,Pattern_Practice,19,9999,9999,9999,2330498108
22,21,11,Pattern_Practice,20,9999,9999,9999,2330998840
22,21,11,Pattern_Practice,21,9999,9999,9999,2331498576
22,21,11,Pattern_Practice,22,9999,9999,9999,2331998300
22,21,11,Pattern_Practice,23,9999,9999,9999,2332499044
22,21,11,Pattern_Practice,24,9999,9999,9999,2332998744
22,21,11,Pattern_Practice,25,9999,9999,9999,2333498444
22,21,11,Pattern_Practice,26,9999,9999,9999,2333998148
22,21,11,Pattern_Practice,27,9999,9999,9999,2334498888
22,21,11,Pattern_Practice,28,9999,9999,9999,2334998628
22,21,11,Pattern_Practice,29,9999,9999,9999,2335498308
22,21,11,Pattern_Practice,30,9999,9999,9999,2335999060
22,21,11,Pattern_Practice,31,9999,9999,9999,2336498760
22,21,11,Pattern_Practice,32,9999,9999,9999,2336998484
22,21,11,Pattern_Practice,33,9999,9999,9999,2337498184
22,21,11,Pattern_Practice,34,9999,9999,9999,2337998952
22,21,11,Pattern_Practice,35,9999,9999,9999,2338498676
22,21,11,Pattern_Practice,36,9999,9999,9999,2338998376
22,21,11,Pattern_Practice,37,9999,9999,9999,2339499068
22,21,11,Pattern_Practice,38,9999,9999,9999,2339998768
22,21,11,Pattern_Practice,39,9999,9999,9999,2340498492
22,21,11,Pattern_Practice,40,9999,9999,9999,2340998220
22,21,11,Pattern_Practice,41,9999,9999,9999,2341498936
22,21,11,Pattern_Practice,42,9999,9999,9999,2341998664
22,21,11,Pattern_Practice,43,9999,9999,9999,2342498376
22,21,11,Pattern_Practice,44,9999,9999,9999,2342998116
22,21,11,Pattern_Practice,45,9999,9999,9999,2343498804
22,21,11,Pattern_Practice,46,9999,9999,9999,2343998524
22,21,11,Pattern_Practice,47,9999,9999,9999,2344498284
22,21,11,Pattern_Practice,48,9999,9999,9999,2344999032
22,21,11,Pattern_Practice,49,9999,9999,9999,2345498732
22,21,11,Pattern_Practice,50,9999,9999,9999,2345998432
22,21,11,Pattern_Practice,51,9999,9999,9999,2346498100
22,21,11,Pattern_Practice,52,9999,9999,9999,2346998896
22,21,11,Pattern_Practice,53,9999,9999,9999,2347498596
22,21,11,Pattern_Practice,54,9999,9999,9999,2347998276
22,21,11,Pattern_Practice,55,9999,9999,9999,2348498996
22,21,11,Pattern_Practice,56,9999,9999,9999,2348998744
22,21,11,Pattern_Practice,57,9999,9999,9999,2349498424
22,21,11,Pattern_Practice,58,9999,9999,9999,2349998172
22,21,11,Pattern_Practice,59,9999,9999,9999,2350498880
22,21,11,Pattern_Practice,60,9999,9999,9999,2350998608
22,21,11,Pattern_Practice,61,9999,9999,9999,2351498292
22,21,11,Pattern_Practice,62,9999,9999,9999,2351999060
22,21,11,Pattern_Practice,63,9999,9999,9999,2352498760
22,21,11,Pattern_Practice,64,9999,9999,9999,2352998484
22,21,11,Pattern_Practice,65,9999,9999,9999,2353498160
22,21,11,Pattern_Practice,66,9999,9999,9999,2353998948
22,21,11,Pattern_Practice,67,9999,9999,9999,2354498652
22,21,11,Pattern_Practice,68,9999,9999,9999,2354998356
22,21,11,Pattern_Practice,69,9999,9999,9999,2355499124
22,21,11,Pattern_Practice,70,9999,9999,9999,2355998796
22,21,11,Pattern_Practice,71,9999,9999,9999,2356498528
22,21,11,Pattern_Practice,72,9999,9999,9999,2356998264
22,21,11,Pattern_Practice,73,9999,9999,9999,2357498932
22,21,11,Pattern_Practice,74,9999,9999,9999,2357998684
22,21,11,Pattern_Practice,75,9999,9999,9999,2358498376
22,21,11,Pattern_Practice,76,9999,9999,9999,2358998100
22,21,11,Pattern_Practice,77,9999,9999,9999,2359498852
22,21,11,Pattern_Practice,78,9999,9999,9999,2359998528
22,21,11,Pattern_Practice,79,9999,9999,9999,2360498280
22,22,13,Improv_Metronome,0,5,42,127,2401004012
22,22,13,Improv_Metronome,1,5,42,127,2401503740
22,22,13,Improv_Metronome,2,5,42,127,2402004304
22,22,13,Improv_Metronome,3,5,42,127,2402504180
22,22,13,Improv_Metronome,4,1,38,27,2402992572
22,22,13,Improv_Metronome,5,5,42,127,2403003668
22,22,13,Improv_Metronome,6,5,42,127,2403503528
22,22,13,Improv_Metronome,7,1,38,34,2403528608
22,22,13,Improv_Metronome,8,1,48,18,2403540492
22,22,13,Improv_Metronome,9,5,42,127,2404004172
22,22,13,Improv_Metronome,10,1,38,40,2404029556
22,22,13,Improv_Metronome,11,1,48,21,2404041588
22,22,13,Improv_Metronome,12,1,38,16,2404335044
22,22,13,Improv_Metronome,13,5,42,127,2404504024
22,22,13,Improv_Metronome,14,1,38,25,2404538720
22,22,13,Improv_Metronome,15,1,48,16,2404550680
22,22,13,Improv_Metronome,16,5,42,127,2405003752
22,22,13,Improv_Metronome,17,1,38,45,2405033336
22,22,13,Improv_Metronome,18,1,48,19,2405044760
22,22,13,Improv_Metronome,19,5,42,127,2405504320
22,22,13,Improv_Metronome,20,1,38,41,2405536492
22,22,13,Improv_Metronome,21,1,48,18,2405548452
22,22,13,Improv_Metronome,22,5,42,127,2406003968
22,22,13,Improv_Metronome,23,1,38,32,2406017448
22,22,13,Improv_Metronome,24,1,38,32,2406498516
22,22,13,Improv_Metronome,25,5,42,127,2406503736
22,22,13,Improv_Metronome,26,1,38,67,2407003952
22,22,13,Improv_Metronome,27,5,42,127,2407006464
22,22,13,Improv_Metronome,28,5,42,127,2407504164
22,22,13,Improv_Metronome,29,1,38,62,2407522240
22,22,13,Improv_Metronome,30,1,38,62,2408003784
22,22,13,Improv_Metronome,31,5,42,127,2408006596
22,22,13,Improv_Metronome,32,5,42,127,2408503636
22,22,13,Improv_Metronome,33,1,38,65,2408535128
22,22,13,Improv_Metronome,34,5,42,127,2409004632
22,22,13,Improv_Metronome,35,1,38,58,2409017044
22,22,13,Improv_Metronome,36,1,48,53,2409052360
22,22,13,Improv_Metronome,37,1,38,20,2409229280
22,22,13,Improv_Metronome,38,1,48,52,2409268176
22,22,13,Improv_Metronome,39,5,42,127,2409504132
22,22,13,Improv_Metronome,40,1,48,61,2409514256
22,22,13,Improv_Metronome,41,1,38,23,2409675800
22,22,13,Improv_Metronome,42,1,38,36,2409848256
22,22,13,Improv_Metronome,43,1,48,18,2409860216
22,22,13,Improv_Metronome,44,5,42,127,2410003812
22,22,13,Improv_Metronome,45,1,38,25,2410213272
22,22,13,Improv_Metronome,46,1,48,15,2410225232
22,22,13,Improv_Metronome,47,5,42,127,2410503688
22,22,13,Improv_Metronome,48,1,38,31,2410512128
22,22,13,Improv_Metronome,49,1,48,14,2410523632
22,22,13,Improv_Metronome,50,5,42,127,2411004252
22,22,13,Improv_Metronome,51,1,48,55,2411029940
22,22,13,Improv_Metronome,52,1,48,52,2411278400
22,22,13,Improv_Metronome,53,5,42,127,2411504004
22,22,13,Improv_Metronome,54,1,38,35,2411566704
22,22,13,Improv_Metronome,55,1,48,20,2411579192
22,22,13,Improv_Metronome,56,5,42,127,2412003728
22,22,13,Improv_Metronome,57,1,48,54,2412048340
22,22,13,Improv_Metronome,58,1,48,54,2412285968
22,22,13,Improv_Metronome,59,5,42,127,2412504548
22,22,13,Improv_Metronome,60,1,38,29,2412562900
22,22,13,Improv_Metronome,61,5,42,127,2413004324
22,22,13,Improv_Metronome,62,1,38,26,2413042300
22,22,13,Improv_Metronome,63,1,48,16,2413053724
22,22,13,Improv_Metronome,64,1,38,21,2413260256
22,22,13,Improv_Metronome,65,5,42,127,2413503872
22,22,13,Improv_Metronome,66,1,38,26,2413515520
22,22,13,Improv_Metronome,67,1,48,14,2413527632
22,22,13,Improv_Metronome,68,1,48,51,2413565228
22,22,13,Improv_Metronome,69,5,42,127,2414003576
22,22,13,Improv_Metronome,70,1,48,46,2414017432
22,22,13,Improv_Metronome,71,1,48,54,2414267340
22,22,13,Improv_Metronome,72,5,42,127,2414504164
22,22,13,Improv_Metronome,73,1,38,27,2414528476
22,22,13,Improv_Metronome,74,1,48,17,2414540436
22,22,13,Improv_Metronome,75,5,42,127,2415004268
22,22,13,Improv_Metronome,76,1,48,53,2415024772
22,22,13,Improv_Metronome,77,1,48,48,2415262164
22,22,13,Improv_Metronome,78,5,42,127,2415503796
22,22,13,Improv_Metronome,79,1,38,29,2415540548
22,22,13,Improv_Metronome,80,1,48,18,2415552504
22,22,13,Improv_Metronome,81,5,42,127,2416003444
22,22,13,Improv_Metronome,82,1,48,51,2416031344
22,22,13,Improv_Metronome,83,1,48,46,2416257144
22,22,13,Improv_Metronome,84,5,42,127,2416504188
22,22,13,Improv_Metronome,85,1,38,35,2416531172
22,22,13,Improv_Metronome,86,1,48,20,2416543132
22,22,13,Improv_Metronome,87,5,42,127,2417003836
22,22,13,Improv_Metronome,88,1,48,44,2417045780
22,22,13,Improv_Metronome,89,1,48,29,2417275160
22,22,13,Improv_Metronome,90,5,42,127,2417503512
22,22,13,Improv_Metronome,91,1,38,34,2417533700
22,22,13,Improv_Metronome,92,1,48,13,2417540700
22,22,13,Improv_Metronome,93,5,42,127,2418004204
22,22,13,Improv_Metronome,94,1,48,32,2418035564
22,22,13,Improv_Metronome,95,1,48,37,2418254464
22,22,13,Improv_Metronome,96,5,42,127,2418504256
22,22,13,Improv_Metronome,97,1,38,32,2418528448
22,22,13,Improv_Metronome,98,1,48,14,2418535828
22,22,13,Improv_Metronome,99,5,42,127,2419003680
22,22,13,Improv_Metronome,100,1,48,35,2419026924
22,22,13,Improv_Metronome,101,1,48,40,2419249820
22,22,13,Improv_Metronome,102,5,42,127,2419503432
22,22,13,Improv_Metronome,103,1,38,33,2419534084
22,22,13,Improv_Metronome,104,1,48,16,2419545508
22,22,13,Improv_Metronome,105,5,42,127,2420004148
22,22,13,Improv_Metronome,106,1,48,52,2420015264
22,22,13,Improv_Metronome,107,1,48,49,2420235716
22,22,13,Improv_Metronome,108,5,42,127,2420503976
22,22,13,Improv_Metronome,109,1,38,33,2420517604
22,22,13,Improv_Metronome,110,5,42,127,2421003520
22,22,13,Improv_Metronome,111,1,48,40,2421032944
22,22,13,Improv_Metronome,112,1,48,48,2421259884
22,22,13,Improv_Metronome,113,5,42,127,2421504416
22,22,13,Improv_Metronome,114,1,38,35,2421520492
22,22,13,Improv_Metronome,115,1,48,18,2421532448
22,22,13,Improv_Metronome,116,5,42,127,2422004064
22,22,13,Improv_Metronome,117,1,48,46,2422006556
22,22,13,Improv_Metronome,118,1,48,52,2422252880
22,22,13,Improv_Metronome,119,5,42,127,2422503968
22,22,13,Improv_Metronome,120,1,38,40,2422517832
22,22,13,Improv_Metronome,121,1,48,18,2422529788
22,22,13,Improv_Metronome,122,1,48,43,2423003016
22,22,13,Improv_Metronome,123,5,42,127,2423004840
22,22,13,Improv_Metronome,124,1,48,60,2423219628
22,22,13,Improv_Metronome,125,1,38,34,2423501280
22,22,13,Improv_Metronome,126,5,42,127,2423504212
22,22,13,Improv_Metronome,127,1,48,15,2423513348
22,22,13,Improv_Metronome,128,1,48,35,2423979880
22,22,13,Improv_Metronome,129,5,42,127,2424003876
22,22,13,Improv_Metronome,130,1,48,40,2424236824
22,22,13,Improv_Metronome,131,5,42,127,2424503940
22,22,13,Improv_Metronome,132,1,38,34,2424509940
22,22,13,Improv_Metronome,133,5,42,127,2425004404
22,22,13,Improv_Metronome,134,1,48,49,2425012316
22,22,13,Improv_Metronome,135,1,48,53,2425255052
22,22,13,Improv_Metronome,136,5,42,127,2425504080
22,22,13,Improv_Metronome,137,1,38,35,2425509772
22,22,13,Improv_Metronome,138,1,48,15,2425521280
22,22,13,Improv_Metronome,139,5,42,127,2426003884
22,22,13,Improv_Metronome,140,1,48,29,2426036056
22,22,13,Improv_Metronome,141,1,48,48,2426237888
22,22,13,Improv_Metronome,142,5,42,127,2426503712
22,22,13,Improv_Metronome,143,1,38,61,2426511012
22,22,13,Improv_Metronome,144,5,42,127,2427004176
22,22,13,Improv_Metronome,145,1,48,48,2427009188
22,22,13,Improv_Metronome,146,1,48,52,2427245356
22,22,13,Improv_Metronome,147,5,42,127,2427503852
22,22,13,Improv_Metronome,148,1,38,58,2427511228
22,22,13,Improv_Metronome,149,5,42,127,2428003780
22,22,13,Improv_Metronome,150,1,48,47,2428033588
22,22,13,Improv_Metronome,151,1,48,54,2428244632
22,22,13,Improv_Metronome,152,5,42,127,2428504348
22,22,13,Improv_Metronome,153,1,38,58,2428521284
22,22,13,Improv_Metronome,154,1,48,51,2428999424
22,22,13,Improv_Metronome,155,5,42,127,2429004112
22,22,13,Improv_Metronome,156,1,48,55,2429249116
22,22,13,Improv_Metronome,157,1,38,43,2429504100
22,22,13,Improv_Metronome,158,5,42,127,2429506152
22,22,13,Improv_Metronome,159,1,48,17,2429516504
22,22,13,Improv_Metronome,160,5,42,127,2430003536
22,22,13,Improv_Metronome,161,1,48,54,2430007404
22,22,13,Improv_Metronome,162,1,48,55,2430238992
22,22,13,Improv_Metronome,163,5,42,127,2430504200
22,22,13,Improv_Metronome,164,1,38,44,2430505108
22,22,13,Improv_Metronome,165,1,48,13,2430516528
22,22,13,Improv_Metronome,166,1,48,49,2430990084
22,22,13,Improv_Metronome,167,5,42,127,2431004084
22,22,13,Improv_Metronome,168,1,48,57,2431240924
22,22,13,Improv_Metronome,169,5,42,127,2431503692
22,22,13,Improv_Metronome,170,1,38,33,2431517472
22,22,13,Improv_Metronome,171,1,48,15,2431528896
22,22,13,Improv_Metronome,172,1,48,52,2431980328
22,22,13,Improv_Metronome,173,5,42,127,2432003788
22,22,13,Improv_Metronome,174,1,48,52,2432221400
22,22,13,Improv_Metronome,175,1,38,58,2432489008
22,22,13,Improv_Metronome,176,5,42,127,2432504224
22,22,13,Improv_Metronome,177,5,42,127,2433003856
22,22,13,Improv_Metronome,178,1,48,51,2433008632
22,22,13,Improv_Metronome,179,1,48,56,2433248012
22,22,13,Improv_Metronome,180,5,42,127,2433503684
22,22,13,Improv_Metronome,181,1,38,54,2433516860
22,22,13,Improv_Metronome,182,1,48,54,2434001360
22,22,13,Improv_Metronome,183,5,42,127,2434004596
22,22,13,Improv_Metronome,184,1,48,54,2434232892
22,22,13,Improv_Metronome,185,5,42,127,2434503976
22,22,13,Improv_Metronome,186,1,38,59,2434517000
22,22,13,Improv_Metronome,187,5,42,127,2435003828
22,22,13,Improv_Metronome,188,1,48,52,2435020208
22,22,13,Improv_Metronome,189,1,48,51,2435278128
22,22,13,Improv_Metronome,190,5,42,127,2435503504
22,22,13,Improv_Metronome,191,1,38,49,2435541248
22,22,13,Improv_Metronome,192,1,48,52,2435982636
22,22,13,Improv_Metronome,193,5,42,127,2436004264
22,22,13,Improv_Metronome,194,1,48,48,2436268120
22,22,13,Improv_Metronome,195,5,42,127,2436503948
22,22,13,Improv_Metronome,196,1,38,42,2436545356
22,22,13,Improv_Metronome,197,5,42,127,2437003572
22,22,13,Improv_Metronome,198,1,48,51,2437009648
22,22,13,Improv_Metronome,199,1,48,51,2437256204
22,22,13,Improv_Metronome,200,5,42,127,2437504392
22,22,13,Improv_Metronome,201,1,38,57,2437507032
22,22,13,Improv_Metronome,202,5,42,127,2438004092
22,22,13,Improv_Metronome,203,1,48,49,2438023980
22,22,13,Improv_Metronome,204,1,48,49,2438268012
22,22,13,Improv_Metronome,205,5,42,127,2438503688
22,22,13,Improv_Metronome,206,1,38,53,2438508316
22,22,13,Improv_Metronome,207,5,42,127,2439003440
22,22,13,Improv_Metronome,208,1,48,54,2439032660
22,22,13,Improv_Metronome,209,1,48,55,2439250192
22,22,13,Improv_Metronome,210,5,42,127,2439504184
22,22,13,Improv_Metronome,211,1,38,49,2439512552
22,22,13,Improv_Metronome,212,1,48,47,2439999260
22,22,13,Improv_Metronome,213,5,42,127,2440004176
22,22,13,Improv_Metronome,214,1,48,50,2440239872
22,22,13,Improv_Metronome,215,1,38,55,2440500156
22,22,13,Improv_Metronome,216,5,42,127,2440503852
22,22,13,Improv_Metronome,217,5,42,127,2441004476
22,22,13,Improv_Metronome,218,1,48,47,2441019712
22,22,13,Improv_Metronome,219,1,48,51,2441258552
22,22,13,Improv_Metronome,220,1,38,52,2441495184
22,22,13,Improv_Metronome,221,5,42,127,2441504068
22,22,13,Improv_Metronome,222,1,48,43,2441997556
22,22,13,Improv_Metronome,223,5,42,127,2442004000
22,22,13,Improv_Metronome,224,1,48,46,2442232824
22,22,13,Improv_Metronome,225,1,38,58,2442495856
22,22,13,Improv_Metronome,226,5,42,127,2442503520
22,22,13,Improv_Metronome,227,5,42,127,2443004372
22,22,13,Improv_Metronome,228,1,48,54,2443032048
22,22,13,Improv_Metronome,229,1,48,59,2443251124
22,22,13,Improv_Metronome,230,5,42,127,2443504200
22,22,13,Improv_Metronome,231,1,38,29,2443517832
22,22,13,Improv_Metronome,232,5,42,127,2444003596
22,22,13,Improv_Metronome,233,1,48,52,2444018984
22,22,13,Improv_Metronome,234,1,48,44,2444235088
22,22,13,Improv_Metronome,235,1,38,58,2444504264
22,22,13,Improv_Metronome,236,5,42,127,2444506996
22,22,13,Improv_Metronome,237,5,42,127,2445004040
22,22,13,Improv_Metronome,238,1,48,46,2445021028
22,22,13,Improv_Metronome,239,1,48,50,2445234844
22,22,13,Improv_Metronome,240,5,42,127,2445503868
22,22,13,Improv_Metronome,241,1,38,57,2445528336
22,22,13,Improv_Metronome,242,5,42,127,2446003492
22,22,13,Improv_Metronome,243,1,48,57,2446034984
22,22,13,Improv_Metronome,244,1,48,64,2446232008
22,22,13,Improv_Metronome,245,5,42,127,2446504312
22,22,13,Improv_Metronome,246,1,38,67,2446507036
22,22,13,Improv_Metronome,247,5,42,127,2447004012
22,22,13,Improv_Metronome,248,1,48,68,2447026800
22,22,13,Improv_Metronome,249,1,48,70,2447246720
22,22,13,Improv_Metronome,250,5,42,127,2447503840
22,22,13,Improv_Metronome,251,1,38,59,2447510608
22,22,13,Improv_Metronome,252,5,42,127,2448003540
22,22,13,Improv_Metronome,253,1,48,63,2448048156
22,22,13,Improv_Metronome,254,1,48,60,2448258684
22,22,13,Improv_Metronome,255,5,42,127,2448504132
22,22,13,Improv_Metronome,256,1,38,62,2448506848
22,22,13,Improv_Metronome,257,5,42,127,2449003828
22,22,13,Improv_Metronome,258,1,48,60,2449036844
22,22,13,Improv_Metronome,259,1,48,65,2449268132
22,22,13,Improv_Metronome,260,5,42,127,2449503888
22,22,13,Improv_Metronome,261,1,38,62,2449517368
22,22,13,Improv_Metronome,262,5,42,127,2450004480
22,22,13,Improv_Metronome,263,1,48,55,2450042940
22,22,13,Improv_Metronome,264,1,48,59,2450248252
22,22,13,Improv_Metronome,265,5,42,127,2450504076
22,22,13,Improv_Metronome,266,1,38,65,2450510456
22,22,13,Improv_Metronome,267,5,42,127,2451003776
22,22,13,Improv_Metronome,268,1,48,62,2451044676
22,22,13,Improv_Metronome,269,1,48,68,2451239160
22,22,13,Improv_Metronome,270,5,42,127,2451503528
22,22,13,Improv_Metronome,271,1,38,57,2451511968
22,22,13,Improv_Metronome,272,5,42,127,2452004220
22,22,13,Improv_Metronome,273,1,48,52,2452031356
22,22,13,Improv_Metronome,274,1,48,50,2452252040
22,22,13,Improv_Metronome,275,1,38,51,2452500956
22,22,13,Improv_Metronome,276,5,42,127,2452503812
22,22,13,Improv_Metronome,277,1,48,54,2452997752
22,22,13,Improv_Metronome,278,5,42,127,2453003736
22,22,13,Improv_Metronome,279,1,48,59,2453231728
22,22,13,Improv_Metronome,280,1,38,56,2453488960
22,22,13,Improv_Metronome,281,5,42,127,2453504480
22,22,13,Improv_Metronome,282,1,48,61,2454002024
22,22,13,Improv_Metronome,283,5,42,127,2454003956
22,22,13,Improv_Metronome,284,1,48,57,2454249872
22,22,13,Improv_Metronome,285,5,42,127,2454503712
22,22,13,Improv_Metronome,286,1,38,54,2454504772
22,22,13,Improv_Metronome,287,5,42,127,2455003416
22,22,13,Improv_Metronome,288,1,48,56,2455039404
22,22,13,Improv_Metronome,289,1,48,58,2455244140
22,22,13,Improv_Metronome,290,5,42,127,2455504156
22,22,13,Improv_Metronome,291,1,38,53,2455505140
22,22,13,Improv_Metronome,292,5,42,127,2456003932
22,22,13,Improv_Metronome,293,1,48,54,2456025580
22,22,13,Improv_Metronome,294,1,48,54,2456248628
22,22,13,Improv_Metronome,295,5,42,127,2456503612
22,22,13,Improv_Metronome,296,1,38,51,2456510988
22,22,13,Improv_Metronome,297,5,42,127,2457004380
22,22,13,Improv_Metronome,298,1,48,54,2457029840
22,22,13,Improv_Metronome,299,1,48,60,2457241136
22,22,13,Improv_Metronome,300,1,38,57,2457497372
22,22,13,Improv_Metronome,301,5,42,127,2457504576
22,22,13,Improv_Metronome,302,5,42,127,2458003756
22,22,13,Improv_Metronome,303,1,48,59,2458034484
22,22,13,Improv_Metronome,304,1,48,51,2458390224
22,22,13,Improv_Metronome,305,5,42,127,2458503504
22,22,13,Improv_Metronome,306,1,38,48,2458734948
22,22,13,Improv_Metronome,307,1,38,45,2458964304
22,22,13,Improv_Metronome,308,5,42,127,2459004416
22,22,13,Improv_Metronome,309,1,48,43,2459442784
22,22,13,Improv_Metronome,310,5,42,127,2459503888
22,22,13,Improv_Metronome,311,1,48,45,2459961252
22,22,13,Improv_Metronome,312,5,42,127,2460003664
22,22,13,Improv_Metronome,313,1,48,45,2460363436
22,22,13,Improv_Metronome,314,5,42,127,2460504540
22,22,13,Improv_Metronome,315,1,48,38,2460714740
22,22,13,Improv_Metronome,316,1,38,44,2460806180
22,22,13,Improv_Metronome,317,5,42,127,2461004408
22,22,13,Improv_Metronome,318,1,38,46,2461025160
22,22,13,Improv_Metronome,319,1,38,57,2461476596
22,22,13,Improv_Metronome,320,5,42,127,2461503948
22,22,13,Improv_Metronome,321,5,42,127,2462003504
22,22,13,Improv_Metronome,322,1,48,49,2462004412
22,22,13,Improv_Metronome,323,1,48,54,2462422656
22,22,13,Improv_Metronome,324,5,42,127,2462504264
22,22,13,Improv_Metronome,325,1,38,53,2462804288
22,22,13,Improv_Metronome,326,5,42,127,2463004172
22,22,13,Improv_Metronome,327,1,38,54,2463047336
22,22,13,Improv_Metronome,328,5,42,127,2463503796
22,22,13,Improv_Metronome,329,1,38,59,2463530248
22,22,13,Improv_Metronome,330,5,42,127,2464003496
22,22,13,Improv_Metronome,331,1,48,48,2464030632
22,22,13,Improv_Metronome,332,1,48,53,2464425932
22,22,13,Improv_Metronome,333,5,42,127,2464504256
22,22,13,Improv_Metronome,334,1,38,35,2464757048
22,22,13,Improv_Metronome,335,5,42,127,2465004092
22,22,13,Improv_Metronome,336,1,38,55,2465007884
22,22,13,Improv_Metronome,337,5,42,127,2465503564
22,22,13,Improv_Metronome,338,1,38,61,2465515136
22,22,13,Improv_Metronome,339,1,48,45,2465996356
22,22,13,Improv_Metronome,340,5,42,127,2466004248
22,22,13,Improv_Metronome,341,1,48,48,2466381112
22,22,13,Improv_Metronome,342,5,42,127,2466504008
22,22,13,Improv_Metronome,343,1,38,27,2466696228
22,22,13,Improv_Metronome,344,1,48,16,2466708256
22,22,13,Improv_Metronome,345,1,38,58,2466953024
22,22,13,Improv_Metronome,346,5,42,127,2467003800
22,22,13,Improv_Metronome,347,1,38,79,2467447004
22,22,13,Improv_Metronome,348,5,42,127,2467503500
22,22,13,Improv_Metronome,349,1,48,61,2467983788
22,22,13,Improv_Metronome,350,5,42,127,2468004268
22,22,13,Improv_Metronome,351,1,48,70,2468367016
22,22,13,Improv_Metronome,352,5,42,127,2468504028
22,22,13,Improv_Metronome,353,1,38,46,2468728980
22,22,13,Improv_Metronome,354,1,38,60,2468984920
22,22,13,Improv_Metronome,355,5,42,127,2469003796
22,22,13,Improv_Metronome,356,1,38,70,2469492700
22,22,13,Improv_Metronome,357,5,42,127,2469504412
22,22,13,Improv_Metronome,358,5,42,127,2470004044
22,22,13,Improv_Metronome,359,1,48,60,2470024624
22,22,13,Improv_Metronome,360,1,48,67,2470405324
22,22,13,Improv_Metronome,361,5,42,127,2470503796
22,22,13,Improv_Metronome,362,1,38,66,2470747596
22,22,13,Improv_Metronome,0,9999,9999,9999,2401001532
22,22,13,Improv_Metronome,1,9999,9999,9999,2401501256
22,22,13,Improv_Metronome,2,9999,9999,9999,2402001972
22,22,13,Improv_Metronome,3,9999,9999,9999,2402501696
22,22,13,Improv_Metronome,4,9999,9999,9999,2403001416
22,22,13,Improv_Metronome,5,9999,9999,9999,2403501124
22,22,13,Improv_Metronome,6,9999,9999,9999,2404001840
22,22,13,Improv_Metronome,7,9999,9999,9999,2404501620
22,22,13,Improv_Metronome,8,9999,9999,9999,2405001268
22,22,13,Improv_Metronome,9,9999,9999,9999,2405502064
22,22,13,Improv_Metronome,10,9999,9999,9999,2406001712
22,22,13,Improv_Metronome,11,9999,9999,9999,2406501480
22,22,13,Improv_Metronome,12,9999,9999,9999,2407001164
22,22,13,Improv_Metronome,13,9999,9999,9999,2407501908
22,22,13,Improv_Metronome,14,9999,9999,9999,2408001608
22,22,13,Improv_Metronome,15,9999,9999,9999,2408501308
22,22,13,Improv_Metronome,16,9999,9999,9999,2409002076
22,22,13,Improv_Metronome,17,9999,9999,9999,2409501800
22,22,13,Improv_Metronome,18,9999,9999,9999,2410001480
22,22,13,Improv_Metronome,19,9999,9999,9999,2410501204
22,22,13,Improv_Metronome,20,9999,9999,9999,2411001924
22,22,13,Improv_Metronome,21,9999,9999,9999,2411501676
22,22,13,Improv_Metronome,22,9999,9999,9999,2412001400
22,22,13,Improv_Metronome,23,9999,9999,9999,2412502068
22,22,13,Improv_Metronome,24,9999,9999,9999,2413001840
22,22,13,Improv_Metronome,25,9999,9999,9999,2413501540
22,22,13,Improv_Metronome,26,9999,9999,9999,2414001244
22,22,13,Improv_Metronome,27,9999,9999,9999,2414501984
22,22,13,Improv_Metronome,28,9999,9999,9999,2415001712
22,22,13,Improv_Metronome,29,9999,9999,9999,2415501388
22,22,13,Improv_Metronome,30,9999,9999,9999,2416001112
22,22,13,Improv_Metronome,31,9999,9999,9999,2416501856
22,22,13,Improv_Metronome,32,9999,9999,9999,2417001580
22,22,13,Improv_Metronome,33,9999,9999,9999,2417501232
22,22,13,Improv_Metronome,34,9999,9999,9999,2418002024
22,22,13,Improv_Metronome,35,9999,9999,9999,2418501700
22,22,13,Improv_Metronome,36,9999,9999,9999,2419001424
22,22,13,Improv_Metronome,37,9999,9999,9999,2419501176
22,22,13,Improv_Metronome,38,9999,9999,9999,2420001892
22,22,13,Improv_Metronome,39,9999,9999,9999,2420501568
22,22,13,Improv_Metronome,40,9999,9999,9999,2421001268
22,22,13,Improv_Metronome,41,9999,9999,9999,2421502008
22,22,13,Improv_Metronome,42,9999,9999,9999,2422001736
22,22,13,Improv_Metronome,43,9999,9999,9999,2422501484
22,22,13,Improv_Metronome,44,9999,9999,9999,2423001148
22,22,13,Improv_Metronome,45,9999,9999,9999,2423501884
22,22,13,Improv_Metronome,46,9999,9999,9999,2424001620
22,22,13,Improv_Metronome,47,9999,9999,9999,2424501304
22,22,13,Improv_Metronome,48,9999,9999,9999,2425002072
22,22,13,Improv_Metronome,49,9999,9999,9999,2425501748
22,22,13,Improv_Metronome,50,9999,9999,9999,2426001476
22,22,13,Improv_Metronome,51,9999,9999,9999,2426501228
22,22,13,Improv_Metronome,52,9999,9999,9999,2427001920
22,22,13,Improv_Metronome,53,9999,9999,9999,2427501672
22,22,13,Improv_Metronome,54,9999,9999,9999,2428001372
22,22,13,Improv_Metronome,55,9999,9999,9999,2428502092
22,22,13,Improv_Metronome,56,9999,9999,9999,2429001784
22,22,13,Improv_Metronome,57,9999,9999,9999,2429501540
22,22,13,Improv_Metronome,58,9999,9999,9999,2430001204
22,22,13,Improv_Metronome,59,9999,9999,9999,2430501948
22,22,13,Improv_Metronome,60,9999,9999,9999,2431001676
22,22,13,Improv_Metronome,61,9999,9999,9999,2431501360
22,22,13,Improv_Metronome,62,9999,9999,9999,2432001076
22,22,13,Improv_Metronome,63,9999,9999,9999,2432501820
22,22,13,Improv_Metronome,64,9999,9999,9999,2433001524
22,22,13,Improv_Metronome,65,9999,9999,9999,2433501276
22,22,13,Improv_Metronome,66,9999,9999,9999,2434002036
22,22,13,Improv_Metronome,67,9999,9999,9999,2434501720
22,22,13,Improv_Metronome,68,9999,9999,9999,2435001420
22,22,13,Improv_Metronome,69,9999,9999,9999,2435501172
22,22,13,Improv_Metronome,70,9999,9999,9999,2436001856
22,22,13,Improv_Metronome,71,9999,9999,9999,2436501616
22,22,13,Improv_Metronome,72,9999,9999,9999,2437001316
22,22,13,Improv_Metronome,73,9999,9999,9999,2437502060
22,22,13,Improv_Metronome,74,9999,9999,9999,2438001760
22,22,13,Improv_Metronome,75,9999,9999,9999,2438501436
22,22,13,Improv_Metronome,76,9999,9999,9999,2439001188
22,22,13,Improv_Metronome,77,9999,9999,9999,2439501928
22,22,13,Improv_Metronome,78,9999,9999,9999,2440001620
22,22,13,Improv_Metronome,79,9999,9999,9999,2440501372
22,22,13,Improv_Metronome,80,9999,9999,9999,2441002068
22,22,13,Improv_Metronome,81,9999,9999,9999,2441501812
22,22,13,Improv_Metronome,82,9999,9999,9999,2442001516
22,22,13,Improv_Metronome,83,9999,9999,9999,2442501192
22,22,13,Improv_Metronome,84,9999,9999,9999,2443001968
22,22,13,Improv_Metronome,85,9999,9999,9999,2443501640
22,22,13,Improv_Metronome,86,9999,9999,9999,2444001340
22,22,13,Improv_Metronome,87,9999,9999,9999,2444502088
22,22,13,Improv_Metronome,88,9999,9999,9999,2445001784
22,22,13,Improv_Metronome,89,9999,9999,9999,2445501536
22,22,13,Improv_Metronome,90,9999,9999,9999,2446001236
22,22,13,Improv_Metronome,91,9999,9999,9999,2446501980
22,22,13,Improv_Metronome,92,9999,9999,9999,2447001680
22,22,13,Improv_Metronome,93,9999,9999,9999,2447501432
22,22,13,Improv_Metronome,94,9999,9999,9999,2448001132
22,22,13,Improv_Metronome,95,9999,9999,9999,2448501876
22,22,13,Improv_Metronome,96,9999,9999,9999,2449001576
22,22,13,Improv_Metronome,97,9999,9999,9999,2449501252
22,22,13,Improv_Metronome,98,9999,9999,9999,2450001996
22,22,13,Improv_Metronome,99,9999,9999,9999,2450501744
22,22,13,Improv_Metronome,100,9999,9999,9999,2451001444
22,22,13,Improv_Metronome,101,9999,9999,9999,2451501120
22,22,13,Improv_Metronome,102,9999,9999,9999,2452001888
22,22,13,Improv_Metronome,103,9999,9999,9999,2452501556
22,22,13,Improv_Metronome,104,9999,9999,9999,2453001332
22,22,13,Improv_Metronome,105,9999,9999,9999,2453502076
22,22,13,Improv_Metronome,106,9999,9999,9999,2454001740
22,22,13,Improv_Metronome,107,9999,9999,9999,2454501460
22,22,13,Improv_Metronome,108,9999,9999,9999,2455001160
22,22,13,Improv_Metronome,109,9999,9999,9999,2455501900
22,22,13,Improv_Metronome,110,9999,9999,9999,2456001600
22,22,13,Improv_Metronome,111,9999,9999,9999,2456501356
22,22,13,Improv_Metronome,112,9999,9999,9999,2457002048
22,22,13,Improv_Metronome,113,9999,9999,9999,2457501792
22,22,13,Improv_Metronome,114,9999,9999,9999,2458001500
22,22,13,Improv_Metronome,115,9999,9999,9999,2458501176
22,22,13,Improv_Metronome,116,9999,9999,9999,2459001936
22,22,13,Improv_Metronome,117,9999,9999,9999,2459501636
22,22,13,Improv_Metronome,118,9999,9999,9999,2460001332
22,22,13,Improv_Metronome,119,9999,9999,9999,2460502136
22,22,13,Improv_Metronome,120,9999,9999,9999,2461001848
22,22,13,Improv_Metronome,121,9999,9999,9999,2461501540
22,22,13,Improv_Metronome,122,9999,9999,9999,2462001248
22,22,13,Improv_Metronome,123,9999,9999,9999,2462502008
22,22,13,Improv_Metronome,124,9999,9999,9999,2463001692
22,22,13,Improv_Metronome,125,9999,9999,9999,2463501392
22,22,13,Improv_Metronome,126,9999,9999,9999,2464001092
22,22,13,Improv_Metronome,127,9999,9999,9999,2464501848
22,22,13,Improv_Metronome,128,9999,9999,9999,2465001532
22,22,13,Improv_Metronome,129,9999,9999,9999,2465501232
22,22,13,Improv_Metronome,130,9999,9999,9999,2466001992
22,22,13,Improv_Metronome,131,9999,9999,9999,2466501752
22,22,13,Improv_Metronome,132,9999,9999,9999,2467001396
22,22,13,Improv_Metronome,133,9999,9999,9999,2467501172
22,22,13,Improv_Metronome,134,9999,9999,9999,2468001860
22,22,13,Improv_Metronome,135,9999,9999,9999,2468501620
22,22,13,Improv_Metronome,136,9999,9999,9999,2469001312
22,22,13,Improv_Metronome,137,9999,9999,9999,2469502004
22,22,13,Improv_Metronome,138,9999,9999,9999,2470001716
22,22,13,Improv_Metronome,139,9999,9999,9999,2470501480
22,23,14,Improv_Melody,0,2,48,80,2512194064
22,23,14,Improv_Melody,1,2,72,80,2512196256
22,23,14,Improv_Melody,2,5,42,127,2512198768
22,23,14,Improv_Melody,3,5,42,110,2512691708
22,23,14,Improv_Melody,4,5,42,110,2513192280
22,23,14,Improv_Melody,5,5,42,110,2513692008
22,23,14,Improv_Melody,6,5,42,127,2514191888
22,23,14,Improv_Melody,7,5,42,110,2514691544
22,23,14,Improv_Melody,8,5,42,110,2515192192
22,23,14,Improv_Melody,9,5,42,110,2515691920
22,23,14,Improv_Melody,10,2,43,80,2516194360
22,23,14,Improv_Melody,11,2,67,80,2516196400
22,23,14,Improv_Melody,12,5,42,127,2516198980
22,23,14,Improv_Melody,13,5,42,110,2516692380
22,23,14,Improv_Melody,14,5,42,110,2517192032
22,23,14,Improv_Melody,15,5,42,110,2517691840
22,23,14,Improv_Melody,16,5,42,127,2518191568
22,23,14,Improv_Melody,17,5,42,110,2518692140
22,23,14,Improv_Melody,18,5,42,110,2519191868
22,23,14,Improv_Melody,19,5,42,110,2519691524
22,23,14,Improv_Melody,20,2,45,80,2520194948
22,23,14,Improv_Melody,21,2,69,80,2520197144
22,23,14,Improv_Melody,22,5,42,127,2520199648
22,23,14,Improv_Melody,23,5,42,110,2520691980
22,23,14,Improv_Melody,24,5,42,110,2521191788
22,23,14,Improv_Melody,25,5,42,110,2521691516
22,23,14,Improv_Melody,26,5,42,127,2522192440
22,23,14,Improv_Melody,27,5,42,110,2522691944
22,23,14,Improv_Melody,28,5,42,110,2523191672
22,23,14,Improv_Melody,29,5,42,110,2523692320
22,23,14,Improv_Melody,30,2,41,80,2524194596
22,23,14,Improv_Melody,31,2,65,80,2524196640
22,23,14,Improv_Melody,32,5,42,127,2524199304
22,23,14,Improv_Melody,33,5,42,110,2524691784
22,23,14,Improv_Melody,34,5,42,110,2525191516
22,23,14,Improv_Melody,35,5,42,110,2525692388
22,23,14,Improv_Melody,36,5,42,127,2526191892
22,23,14,Improv_Melody,37,5,42,110,2526691624
22,23,14,Improv_Melody,38,5,42,110,2527192344
22,23,14,Improv_Melody,39,5,42,110,2527692076
22,23,14,Improv_Melody,40,2,48,80,2528194508
22,23,14,Improv_Melody,41,2,72,80,2528196780
22,23,14,Improv_Melody,42,5,42,127,2528199288
22,23,14,Improv_Melody,43,5,42,110,2528691616
22,23,14,Improv_Melody,44,5,42,110,2529192340
22,23,14,Improv_Melody,45,5,42,110,2529692144
22,23,14,Improv_Melody,46,5,42,127,2530191724
22,23,14,Improv_Melody,47,5,42,110,2530691528
22,23,14,Improv_Melody,48,5,42,110,2531192100
22,23,14,Improv_Melody,49,5,42,110,2531692056
22,23,14,Improv_Melody,50,2,43,80,2532194188
22,23,14,Improv_Melody,51,2,67,80,2532196384
22,23,14,Improv_Melody,52,5,42,127,2532199040
22,23,14,Improv_Melody,53,1,38,60,2532203516
22,23,14,Improv_Melody,54,1,38,42,2532479752
22,23,14,Improv_Melody,55,5,42,110,2532692364
22,23,14,Improv_Melody,56,1,38,46,2532722940
22,23,14,Improv_Melody,57,1,38,16,2532933444
22,23,14,Improv_Melody,58,1,38,19,2533042188
22,23,14,Improv_Melody,59,5,42,110,2533191996
22,23,14,Improv_Melody,60,1,38,32,2533313020
22,23,14,Improv_Melody,61,1,48,16,2533324904
22,23,14,Improv_Melody,62,5,42,110,2533691880
22,23,14,Improv_Melody,63,1,48,52,2533699328
22,23,14,Improv_Melody,64,1,48,68,2533940616
22,23,14,Improv_Melody,65,5,42,127,2534191408
22,23,14,Improv_Melody,66,1,38,25,2534202828
22,23,14,Improv_Melody,67,1,38,56,2534442052
22,23,14,Improv_Melody,68,1,38,56,2534673800
22,23,14,Improv_Melody,69,5,42,110,2534692296
22,23,14,Improv_Melody,70,1,38,40,2534928372
22,23,14,Improv_Melody,71,1,38,24,2535050924
22,23,14,Improv_Melody,72,5,42,110,2535191960
22,23,14,Improv_Melody,73,1,38,36,2535292912
22,23,14,Improv_Melody,74,1,38,33,2535405216
22,23,14,Improv_Melody,75,1,48,15,2535417480
22,23,14,Improv_Melody,76,1,38,18,2535581672
22,23,14,Improv_Melody,77,1,48,61,2535660560
22,23,14,Improv_Melody,78,5,42,110,2535691860
22,23,14,Improv_Melody,79,1,48,74,2535901076
22,23,14,Improv_Melody,80,1,38,68,2536171056
22,23,14,Improv_Melody,81,2,45,80,2536195008
22,23,14,Improv_Melody,82,2,69,80,2536197432
22,23,14,Improv_Melody,83,5,42,127,2536199864
22,23,14,Improv_Melody,84,1,38,51,2536424576
22,23,14,Improv_Melody,85,5,42,110,2536692152
22,23,14,Improv_Melody,86,1,38,67,2536702200
22,23,14,Improv_Melody,87,1,38,51,2536952104
22,23,14,Improv_Melody,88,1,38,46,2537101744
22,23,14,Improv_Melody,89,5,42,110,2537191976
22,23,14,Improv_Melody,90,1,38,56,2537327864
22,23,14,Improv_Melody,91,1,38,68,2537462444
22,23,14,Improv_Melody,92,5,42,110,2537691412
22,23,14,Improv_Melody,93,1,48,57,2537720152
22,23,14,Improv_Melody,94,1,48,66,2537969684
22,23,14,Improv_Melody,95,5,42,127,2538192164
22,23,14,Improv_Melody,96,1,38,59,2538230744
22,23,14,Improv_Melody,97,1,38,67,2538458524
22,23,14,Improv_Melody,98,5,42,110,2538691844
22,23,14,Improv_Melody,99,1,38,60,2538715852
22,23,14,Improv_Melody,100,1,38,51,2538969880
22,23,14,Improv_Melody,101,1,38,50,2539104032
22,23,14,Improv_Melody,102,5,42,110,2539191820
22,23,14,Improv_Melody,103,1,38,54,2539354032
22,23,14,Improv_Melody,104,1,38,54,2539489984
22,23,14,Improv_Melody,105,5,42,110,2539692628
22,23,14,Improv_Melody,106,1,48,57,2539736256
22,23,14,Improv_Melody,107,1,48,83,2539976240
22,23,14,Improv_Melody,108,2,41,80,2540194784
22,23,14,Improv_Melody,109,2,65,80,2540196824
22,23,14,Improv_Melody,110,5,42,127,2540199488
22,23,14,Improv_Melody,111,1,38,60,2540228308
22,23,14,Improv_Melody,112,1,38,51,2540480736
22,23,14,Improv_Melody,113,5,42,110,2540691920
22,23,14,Improv_Melody,114,1,38,49,2540725624
22,23,14,Improv_Melody,115,1,38,57,2540983620
22,23,14,Improv_Melody,116,1,38,53,2541115148
22,23,14,Improv_Melody,117,5,42,110,2541191516
22,23,14,Improv_Melody,118,1,38,50,2541376752
22,23,14,Improv_Melody,119,1,38,59,2541500288
22,23,14,Improv_Melody,120,5,42,110,2541692172
22,23,14,Improv_Melody,121,1,48,61,2541760056
22,23,14,Improv_Melody,122,1,48,78,2541995772
22,23,14,Improv_Melody,123,5,42,127,2542192004
22,23,14,Improv_Melody,124,1,38,55,2542259740
22,23,14,Improv_Melody,125,1,38,50,2542494536
22,23,14,Improv_Melody,126,5,42,110,2542691836
22,23,14,Improv_Melody,127,1,38,58,2542739348
22,23,14,Improv_Melody,128,1,38,45,2542998184
22,23,14,Improv_Melody,129,1,38,48,2543136968
22,23,14,Improv_Melody,130,5,42,110,2543192352
22,23,14,Improv_Melody,131,1,38,51,2543405964
22,23,14,Improv_Melody,132,1,38,52,2543523100
22,23,14,Improv_Melody,133,5,42,110,2543692520
22,23,14,Improv_Melody,134,1,48,59,2543768904
22,23,14,Improv_Melody,135,1,48,75,2544012632
22,23,14,Improv_Melody,136,2,48,80,2544194608
22,23,14,Improv_Melody,137,2,72,80,2544196564
22,23,14,Improv_Melody,138,5,42,127,2544199228
22,23,14,Improv_Melody,139,1,38,65,2544277524
22,23,14,Improv_Melody,140,1,38,54,2544498888
22,23,14,Improv_Melody,141,5,42,110,2544691660
22,23,14,Improv_Melody,142,1,38,62,2544768124
22,23,14,Improv_Melody,143,1,38,54,2545008560
22,23,14,Improv_Melody,144,1,38,46,2545136740
22,23,14,Improv_Melody,145,5,42,110,2545192248
22,23,14,Improv_Melody,146,1,38,67,2545410140
22,23,14,Improv_Melody,147,1,48,15,2545425380
22,23,14,Improv_Melody,148,1,38,65,2545544316
22,23,14,Improv_Melody,149,5,42,110,2545692140
22,23,14,Improv_Melody,150,1,48,55,2545788364
22,23,14,Improv_Melody,151,1,48,63,2546041780
22,23,14,Improv_Melody,152,5,42,127,2546191668
22,23,14,Improv_Melody,153,1,38,56,2546310632
22,23,14,Improv_Melody,154,1,38,54,2546539860
22,23,14,Improv_Melody,155,5,42,110,2546691428
22,23,14,Improv_Melody,156,1,38,58,2546806420
22,23,14,Improv_Melody,157,1,38,38,2547071664
22,23,14,Improv_Melody,158,1,38,55,2547192248
22,23,14,Improv_Melody,159,5,42,110,2547194760
22,23,14,Improv_Melody,160,1,38,66,2547445416
22,23,14,Improv_Melody,161,1,38,64,2547589864
22,23,14,Improv_Melody,162,5,42,110,2547692060
22,23,14,Improv_Melody,163,1,48,75,2547842764
22,23,14,Improv_Melody,164,1,48,77,2548078552
22,23,14,Improv_Melody,165,2,43,80,2548194216
22,23,14,Improv_Melody,166,2,67,80,2548196252
22,23,14,Improv_Melody,167,5,42,127,2548198840
22,23,14,Improv_Melody,168,1,38,62,2548353140
22,23,14,Improv_Melody,169,1,38,61,2548581524
22,23,14,Improv_Melody,170,5,42,110,2548692492
22,23,14,Improv_Melody,171,1,38,62,2548847704
22,23,14,Improv_Melody,172,1,38,53,2549081204
22,23,14,Improv_Melody,173,5,42,110,2549192096
22,23,14,Improv_Melody,174,1,38,51,2549214432
22,23,14,Improv_Melody,175,1,38,67,2549483108
22,23,14,Improv_Melody,176,1,38,53,2549599168
22,23,14,Improv_Melody,177,5,42,110,2549691844
22,23,14,Improv_Melody,178,1,48,65,2549829080
22,23,14,Improv_Melody,179,1,48,65,2550089288
22,23,14,Improv_Melody,180,5,42,127,2550191508
22,23,14,Improv_Melody,181,1,38,52,2550353028
22,23,14,Improv_Melody,182,1,38,62,2550583400
22,23,14,Improv_Melody,183,5,42,110,2550692256
22,23,14,Improv_Melody,184,1,38,69,2550822336
22,23,14,Improv_Melody,185,1,38,64,2551088952
22,23,14,Improv_Melody,186,5,42,110,2551192012
22,23,14,Improv_Melody,187,1,38,31,2551232504
22,23,14,Improv_Melody,188,1,48,18,2551244088
22,23,14,Improv_Melody,189,1,38,55,2551482056
22,23,14,Improv_Melody,190,1,38,76,2551614048
22,23,14,Improv_Melody,191,5,42,110,2551691712
22,23,14,Improv_Melody,192,1,48,78,2551876560
22,23,14,Improv_Melody,193,1,48,84,2552131732
22,23,14,Improv_Melody,194,2,45,80,2552195008
22,23,14,Improv_Melody,195,2,69,80,2552197048
22,23,14,Improv_Melody,196,5,42,127,2552199712
22,23,14,Improv_Melody,197,1,38,67,2552366784
22,23,14,Improv_Melody,198,1,38,63,2552603032
22,23,14,Improv_Melody,199,5,42,110,2552692144
22,23,14,Improv_Melody,200,1,38,74,2552865168
22,23,14,Improv_Melody,201,1,38,59,2553098056
22,23,14,Improv_Melody,202,5,42,110,2553192052
22,23,14,Improv_Melody,203,1,38,57,2553238024
22,23,14,Improv_Melody,204,1,38,70,2553481296
22,23,14,Improv_Melody,205,1,38,43,2553592448
22,23,14,Improv_Melody,206,5,42,110,2553691464
22,23,14,Improv_Melody,207,1,48,70,2553806972
22,23,14,Improv_Melody,208,1,48,78,2554085108
22,23,14,Improv_Melody,209,5,42,127,2554192188
22,23,14,Improv_Melody,210,1,38,73,2554354188
22,23,14,Improv_Melody,211,1,38,71,2554590052
22,23,14,Improv_Melody,212,5,42,110,2554692020
22,23,14,Improv_Melody,213,1,38,63,2554858984
22,23,14,Improv_Melody,214,1,38,60,2555121864
22,23,14,Improv_Melody,215,5,42,110,2555191796
22,23,14,Improv_Melody,216,1,38,65,2555288768
22,23,14,Improv_Melody,217,1,38,58,2555538900
22,23,14,Improv_Melody,218,1,38,56,2555662876
22,23,14,Improv_Melody,219,5,42,110,2555692368
22,23,14,Improv_Melody,220,1,48,71,2555924860
22,23,14,Improv_Melody,221,1,48,81,2556150496
22,23,14,Improv_Melody,222,2,41,80,2556194592
22,23,14,Improv_Melody,223,2,65,80,2556196636
22,23,14,Improv_Melody,224,5,42,127,2556199148
22,23,14,Improv_Melody,225,1,38,72,2556414396
22,23,14,Improv_Melody,226,1,38,59,2556663312
22,23,14,Improv_Melody,227,5,42,110,2556691884
22,23,14,Improv_Melody,228,1,38,51,2556918500
22,23,14,Improv_Melody,229,1,38,50,2557160704
22,23,14,Improv_Melody,230,5,42,110,2557191716
22,23,14,Improv_Melody,231,1,38,35,2557280980
22,23,14,Improv_Melody,232,1,38,59,2557517584
22,23,14,Improv_Melody,233,1,38,60,2557653184
22,23,14,Improv_Melody,234,5,42,110,2557692744
22,23,14,Improv_Melody,235,1,48,69,2557916236
22,23,14,Improv_Melody,236,1,48,72,2558156372
22,23,14,Improv_Melody,237,5,42,127,2558191892
22,23,14,Improv_Melody,238,1,38,29,2558408432
22,23,14,Improv_Melody,239,1,48,18,2558420924
22,23,14,Improv_Melody,240,1,38,62,2558669812
22,23,14,Improv_Melody,241,5,42,110,2558691752
22,23,14,Improv_Melody,242,1,38,63,2558922796
22,23,14,Improv_Melody,243,1,38,62,2559168424
22,23,14,Improv_Melody,244,5,42,110,2559192500
22,23,14,Improv_Melody,245,1,38,57,2559309284
22,23,14,Improv_Melody,246,1,38,58,2559595924
22,23,14,Improv_Melody,247,5,42,110,2559692164
22,23,14,Improv_Melody,248,1,38,67,2559722352
22,23,14,Improv_Melody,249,1,48,64,2559984168
22,23,14,Improv_Melody,250,2,48,80,2560194316
22,23,14,Improv_Melody,251,2,72,80,2560196436
22,23,14,Improv_Melody,252,5,42,127,2560199176
22,23,14,Improv_Melody,253,1,48,66,2560220748
22,23,14,Improv_Melody,254,1,38,69,2560480272
22,23,14,Improv_Melody,255,5,42,110,2560691684
22,23,14,Improv_Melody,256,1,38,57,2560727448
22,23,14,Improv_Melody,257,1,38,66,2560959420
22,23,14,Improv_Melody,258,5,42,110,2561192508
22,23,14,Improv_Melody,259,1,38,45,2561206220
22,23,14,Improv_Melody,260,1,38,54,2561329812
22,23,14,Improv_Melody,261,1,38,65,2561569492
22,23,14,Improv_Melody,262,1,38,47,2561688304
22,23,14,Improv_Melody,263,5,42,110,2561691928
22,23,14,Improv_Melody,264,1,48,59,2561959064
22,23,14,Improv_Melody,265,5,42,127,2562191692
22,23,14,Improv_Melody,266,1,48,78,2562200976
22,23,14,Improv_Melody,267,1,38,63,2562455232
22,23,14,Improv_Melody,268,1,38,68,2562688732
22,23,14,Improv_Melody,269,5,42,110,2562691516
22,23,14,Improv_Melody,270,1,38,60,2562943012
22,23,14,Improv_Melody,271,5,42,110,2563192348
22,23,14,Improv_Melody,272,1,38,51,2563195376
22,23,14,Improv_Melody,273,1,38,66,2563322856
22,23,14,Improv_Melody,274,1,38,63,2563603136
22,23,14,Improv_Melody,275,5,42,110,2563691944
22,23,14,Improv_Melody,276,1,38,81,2563754628
22,23,14,Improv_Melody,277,1,48,60,2563995072
22,23,14,Improv_Melody,278,2,43,80,2564194004
22,23,14,Improv_Melody,279,2,67,80,2564196272
22,23,14,Improv_Melody,280,5,42,127,2564198788
22,23,14,Improv_Melody,281,1,48,66,2564254464
22,23,14,Improv_Melody,282,1,38,59,2564491404
22,23,14,Improv_Melody,283,5,42,110,2564692588
22,23,14,Improv_Melody,284,1,38,65,2564733164
22,23,14,Improv_Melody,285,1,38,68,2564968876
22,23,14,Improv_Melody,286,5,42,110,2565191940
22,23,14,Improv_Melody,287,1,38,46,2565224528
22,23,14,Improv_Melody,288,1,38,56,2565347356
22,23,14,Improv_Melody,289,1,38,72,2565614052
22,23,14,Improv_Melody,290,5,42,110,2565691616
22,23,14,Improv_Melody,291,1,38,62,2565747836
22,23,14,Improv_Melody,292,1,48,62,2565999268
22,23,14,Improv_Melody,293,5,42,127,2566191432
22,23,14,Improv_Melody,294,1,48,57,2566211320
22,23,14,Improv_Melody,295,1,38,68,2566481448
22,23,14,Improv_Melody,296,5,42,110,2566692304
22,23,14,Improv_Melody,297,1,38,72,2566724480
22,23,14,Improv_Melody,298,1,38,70,2566976756
22,23,14,Improv_Melody,299,5,42,110,2567191832
22,23,14,Improv_Melody,300,1,38,66,2567201804
22,23,14,Improv_Melody,301,1,38,64,2567355412
22,23,14,Improv_Melody,302,1,38,55,2567587612
22,23,14,Improv_Melody,303,5,42,110,2567691564
22,23,14,Improv_Melody,304,1,38,64,2567715648
22,23,14,Improv_Melody,305,1,48,64,2567960676
22,23,14,Improv_Melody,306,2,45,80,2568194780
22,23,14,Improv_Melody,307,2,69,80,2568197052
22,23,14,Improv_Melody,308,5,42,127,2568199564
22,23,14,Improv_Melody,309,1,48,62,2568203048
22,23,14,Improv_Melody,310,1,38,70,2568456160
22,23,14,Improv_Melody,311,5,42,110,2568692300
22,23,14,Improv_Melody,312,1,38,63,2568704564
22,23,14,Improv_Melody,313,1,38,58,2568951564
22,23,14,Improv_Melody,314,5,42,110,2569191752
22,23,14,Improv_Melody,315,1,38,61,2569201340
22,23,14,Improv_Melody,316,1,38,55,2569326484
22,23,14,Improv_Melody,317,1,38,68,2569574028
22,23,14,Improv_Melody,318,5,42,110,2569691408
22,23,14,Improv_Melody,319,1,38,57,2569709312
22,23,14,Improv_Melody,320,1,48,63,2569900668
22,23,14,Improv_Melody,321,1,48,68,2570169580
22,23,14,Improv_Melody,322,5,42,127,2570192352
22,23,14,Improv_Melody,323,1,38,72,2570415536
22,23,14,Improv_Melody,324,1,38,68,2570651020
22,23,14,Improv_Melody,325,5,42,110,2570692032
22,23,14,Improv_Melody,326,1,38,63,2570909724
22,23,14,Improv_Melody,327,1,38,55,2571152224
22,23,14,Improv_Melody,328,5,42,110,2571191488
22,23,14,Improv_Melody,329,1,38,61,2571306136
22,23,14,Improv_Melody,330,1,38,67,2571546424
22,23,14,Improv_Melody,331,1,38,62,2571679812
22,23,14,Improv_Melody,332,5,42,110,2571692440
22,23,14,Improv_Melody,333,1,48,74,2571925460
22,23,14,Improv_Melody,334,1,48,70,2572179408
22,23,14,Improv_Melody,335,2,41,80,2572194900
22,23,14,Improv_Melody,336,2,65,80,2572197016
22,23,14,Improv_Melody,337,5,42,127,2572199524
22,23,14,Improv_Melody,338,1,38,70,2572409968
22,23,14,Improv_Melody,339,1,38,50,2572660176
22,23,14,Improv_Melody,340,5,42,110,2572691880
22,23,14,Improv_Melody,341,1,38,63,2572907128
22,23,14,Improv_Melody,342,1,38,62,2573160084
22,23,14,Improv_Melody,343,5,42,110,2573191712
22,23,14,Improv_Melody,344,1,38,54,2573297820
22,23,14,Improv_Melody,345,1,38,61,2573552376
22,23,14,Improv_Melody,346,5,42,110,2573692292
22,23,14,Improv_Melody,347,1,38,55,2573698072
22,23,14,Improv_Melody,348,1,48,70,2573943776
22,23,14,Improv_Melody,349,5,42,127,2574191900
22,23,14,Improv_Melody,350,1,48,78,2574200268
22,23,14,Improv_Melody,351,1,38,66,2574453684
22,23,14,Improv_Melody,352,5,42,110,2574691884
22,23,14,Improv_Melody,353,1,38,63,2574692868
22,23,14,Improv_Melody,354,1,38,60,2574906868
22,23,14,Improv_Melody,355,1,38,55,2575173032
22,23,14,Improv_Melody,356,5,42,110,2575192472
22,23,14,Improv_Melody,357,1,38,43,2575311468
22,23,14,Improv_Melody,358,1,38,49,2575595868
22,23,14,Improv_Melody,359,5,42,110,2575693104
22,23,14,Improv_Melody,360,1,38,51,2575709508
22,23,14,Improv_Melody,361,1,48,63,2575996424
22,23,14,Improv_Melody,362,2,48,80,2576194340
22,23,14,Improv_Melody,363,2,72,80,2576196616
22,23,14,Improv_Melody,364,5,42,127,2576199048
22,23,14,Improv_Melody,365,1,48,61,2576258944
22,23,14,Improv_Melody,366,1,38,42,2576474140
22,23,14,Improv_Melody,367,5,42,110,2576691632
22,23,14,Improv_Melody,368,1,38,52,2576726960
22,23,14,Improv_Melody,369,1,38,54,2576992588
22,23,14,Improv_Melody,370,5,42,110,2577192304
22,23,14,Improv_Melody,371,1,38,54,2577233284
22,23,14,Improv_Melody,372,1,38,46,2577380836
22,23,14,Improv_Melody,373,1,38,63,2577627460
22,23,14,Improv_Melody,374,5,42,110,2577691976
22,23,14,Improv_Melody,375,1,38,37,2577734896
22,23,14,Improv_Melody,376,1,48,65,2577990368
22,23,14,Improv_Melody,377,5,42,127,2578191868
22,23,14,Improv_Melody,378,1,48,62,2578252428
22,23,14,Improv_Melody,379,1,38,57,2578501492
22,23,14,Improv_Melody,380,5,42,110,2578691472
22,23,14,Improv_Melody,381,1,38,64,2578749668
22,23,14,Improv_Melody,382,1,38,68,2578994464
22,23,14,Improv_Melody,383,5,42,110,2579192216
22,23,14,Improv_Melody,384,1,38,43,2579230268
22,23,14,Improv_Melody,385,1,38,45,2579358008
22,23,14,Improv_Melody,386,1,38,55,2579609672
22,23,14,Improv_Melody,387,5,42,110,2579691964
22,23,14,Improv_Melody,388,1,38,61,2579740916
22,23,14,Improv_Melody,389,1,48,51,2580031796
22,23,14,Improv_Melody,390,2,43,80,2580194100
22,23,14,Improv_Melody,391,2,67,80,2580196376
22,23,14,Improv_Melody,392,5,42,127,2580199036
22,23,14,Improv_Melody,393,1,48,66,2580297144
22,23,14,Improv_Melody,394,1,38,66,2580540256
22,23,14,Improv_Melody,395,5,42,110,2580692232
22,23,14,Improv_Melody,396,1,38,55,2580785912
22,23,14,Improv_Melody,397,1,38,60,2581041240
22,23,14,Improv_Melody,398,5,42,110,2581192064
22,23,14,Improv_Melody,399,1,38,49,2581288492
22,23,14,Improv_Melody,400,1,38,48,2581427828
22,23,14,Improv_Melody,401,1,38,59,2581679112
22,23,14,Improv_Melody,402,5,42,110,2581691736
22,23,14,Improv_Melody,403,1,38,55,2581820880
22,23,14,Improv_Melody,404,1,48,43,2582086428
22,23,14,Improv_Melody,405,5,42,127,2582191628
22,23,14,Improv_Melody,406,1,48,66,2582341928
22,23,14,Improv_Melody,407,1,38,62,2582614600
22,23,14,Improv_Melody,408,5,42,110,2582692240
22,23,14,Improv_Melody,409,1,38,53,2582844740
22,23,14,Improv_Melody,410,1,38,62,2583105560
22,23,14,Improv_Melody,411,5,42,110,2583191844
22,23,14,Improv_Melody,412,1,38,53,2583370356
22,23,14,Improv_Melody,413,1,38,61,2583503288
22,23,14,Improv_Melody,414,5,42,110,2583691508
22,23,14,Improv_Melody,415,1,38,68,2583770536
22,23,14,Improv_Melody,416,1,38,65,2583888728
22,23,14,Improv_Melody,417,1,48,67,2584151456
22,23,14,Improv_Melody,418,2,45,80,2584194944
22,23,14,Improv_Melody,419,2,69,80,2584197216
22,23,14,Improv_Melody,420,5,42,127,2584199724
22,23,14,Improv_Melody,421,1,48,78,2584400692
22,23,14,Improv_Melody,422,1,38,66,2584680056
22,23,14,Improv_Melody,423,5,42,110,2584692072
22,23,14,Improv_Melody,424,1,38,53,2584911868
22,23,14,Improv_Melody,425,1,38,62,2585189572
22,23,14,Improv_Melody,426,5,42,110,2585192644
22,23,14,Improv_Melody,427,1,38,51,2585448180
22,23,14,Improv_Melody,428,1,38,74,2585590012
22,23,14,Improv_Melody,429,5,42,110,2585691544
22,23,14,Improv_Melody,430,1,38,59,2585840316
22,23,14,Improv_Melody,431,1,38,66,2585993624
22,23,14,Improv_Melody,432,5,42,127,2586192596
22,23,14,Improv_Melody,433,1,48,64,2586256900
22,23,14,Improv_Melody,434,1,38,18,2586268936
22,23,14,Improv_Melody,435,1,48,77,2586505236
22,23,14,Improv_Melody,436,5,42,110,2586691824
22,23,14,Improv_Melody,437,1,38,64,2586752640
22,23,14,Improv_Melody,438,1,38,61,2587003384
22,23,14,Improv_Melody,439,5,42,110,2587191656
22,23,14,Improv_Melody,440,1,38,65,2587274376
22,23,14,Improv_Melody,441,1,38,53,2587506348
22,23,14,Improv_Melody,442,1,38,58,2587638184
22,23,14,Improv_Melody,443,5,42,110,2587692320
22,23,14,Improv_Melody,444,1,38,54,2587906728
22,23,14,Improv_Melody,445,1,38,51,2588048508
22,23,14,Improv_Melody,446,2,41,80,2588194688
22,23,14,Improv_Melody,447,2,65,80,2588196960
22,23,14,Improv_Melody,448,5,42,127,2588199464
22,23,14,Improv_Melody,449,1,48,54,2588322700
22,23,14,Improv_Melody,450,1,48,36,2588598332
22,23,14,Improv_Melody,451,1,38,14,2588605484
22,23,14,Improv_Melody,452,5,42,110,2588691804
22,23,14,Improv_Melody,453,1,38,62,2588838904
22,23,14,Improv_Melody,454,1,38,54,2589094764
22,23,14,Improv_Melody,455,5,42,110,2589192384
22,23,14,Improv_Melody,456,1,38,63,2589355680
22,23,14,Improv_Melody,457,1,38,60,2589618100
22,23,14,Improv_Melody,458,5,42,110,2589692460
22,23,14,Improv_Melody,459,1,38,57,2589753156
22,23,14,Improv_Melody,460,1,38,59,2590028936
22,23,14,Improv_Melody,461,1,38,66,2590137672
22,23,14,Improv_Melody,462,5,42,127,2590192040
22,23,14,Improv_Melody,463,1,48,55,2590400336
22,23,14,Improv_Melody,464,1,48,72,2590652844
22,23,14,Improv_Melody,465,5,42,110,2590691720
22,23,14,Improv_Melody,466,1,38,48,2590943136
22,23,14,Improv_Melody,467,1,38,60,2591189532
22,23,14,Improv_Melody,468,5,42,110,2591192392
22,23,14,Improv_Melody,469,1,38,70,2591434196
22,23,14,Improv_Melody,470,1,38,52,2591688676
22,23,14,Improv_Melody,471,5,42,110,2591692224
22,23,14,Improv_Melody,472,1,38,34,2591807404
22,23,14,Improv_Melody,473,1,38,65,2592072420
22,23,14,Improv_Melody,474,2,48,80,2592194356
22,23,14,Improv_Melody,475,1,38,60,2592195884
22,23,14,Improv_Melody,476,2,72,80,2592199532
22,23,14,Improv_Melody,477,5,42,127,2592202044
22,23,14,Improv_Melody,478,1,48,49,2592460632
22,23,14,Improv_Melody,479,5,42,110,2592691508
22,23,14,Improv_Melody,480,1,48,57,2592720704
22,23,14,Improv_Melody,481,1,38,64,2592978400
22,23,14,Improv_Melody,0,9999,9999,9999,2512189512
22,23,14,Improv_Melody,1,9999,9999,9999,2512689220
22,23,14,Improv_Melody,2,9999,9999,9999,2513189944
22,23,14,Improv_Melody,3,9999,9999,9999,2513689672
22,23,14,Improv_Melody,4,9999,9999,9999,2514189404
22,23,14,Improv_Melody,5,9999,9999,9999,2514689132
22,23,14,Improv_Melody,6,9999,9999,9999,2515189856
22,23,14,Improv_Melody,7,9999,9999,9999,2515689584
22,23,14,Improv_Melody,8,9999,9999,9999,2516189240
22,23,14,Improv_Melody,9,9999,9999,9999,2516689968
22,23,14,Improv_Melody,10,9999,9999,9999,2517189700
22,23,14,Improv_Melody,11,9999,9999,9999,2517689428
22,23,14,Improv_Melody,12,9999,9999,9999,2518189156
22,23,14,Improv_Melody,13,9999,9999,9999,2518689880
22,23,14,Improv_Melody,14,9999,9999,9999,2519189608
22,23,14,Improv_Melody,15,9999,9999,9999,2519689264
22,23,14,Improv_Melody,16,9999,9999,9999,2520190060
22,23,14,Improv_Melody,17,9999,9999,9999,2520689720
22,23,14,Improv_Melody,18,9999,9999,9999,2521189452
22,23,14,Improv_Melody,19,9999,9999,9999,2521689180
22,23,14,Improv_Melody,20,9999,9999,9999,2522189880
22,23,14,Improv_Melody,21,9999,9999,9999,2522689608
22,23,14,Improv_Melody,22,9999,9999,9999,2523189336
22,23,14,Improv_Melody,23,9999,9999,9999,2523690060
22,23,14,Improv_Melody,24,9999,9999,9999,2524189788
22,23,14,Improv_Melody,25,9999,9999,9999,2524689524
22,23,14,Improv_Melody,26,9999,9999,9999,2525189180
22,23,14,Improv_Melody,27,9999,9999,9999,2525689980
22,23,14,Improv_Melody,28,9999,9999,9999,2526189632
22,23,14,Improv_Melody,29,9999,9999,9999,2526689364
22,23,14,Improv_Melody,30,9999,9999,9999,2527190088
22,23,14,Improv_Melody,31,9999,9999,9999,2527689816
22,23,14,Improv_Melody,32,9999,9999,9999,2528189544
22,23,14,Improv_Melody,33,9999,9999,9999,2528689204
22,23,14,Improv_Melody,34,9999,9999,9999,2529190004
22,23,14,Improv_Melody,35,9999,9999,9999,2529689660
22,23,14,Improv_Melody,36,9999,9999,9999,2530189388
22,23,14,Improv_Melody,37,9999,9999,9999,2530689120
22,23,14,Improv_Melody,38,9999,9999,9999,2531189840
22,23,14,Improv_Melody,39,9999,9999,9999,2531689572
22,23,14,Improv_Melody,40,9999,9999,9999,2532189300
22,23,14,Improv_Melody,41,9999,9999,9999,2532690028
22,23,14,Improv_Melody,42,9999,9999,9999,2533189736
22,23,14,Improv_Melody,43,9999,9999,9999,2533689392
22,23,14,Improv_Melody,44,9999,9999,9999,2534189148
22,23,14,Improv_Melody,45,9999,9999,9999,2534689888
22,23,14,Improv_Melody,46,9999,9999,9999,2535189624
22,23,14,Improv_Melody,47,9999,9999,9999,2535689300
22,23,14,Improv_Melody,48,9999,9999,9999,2536190048
22,23,14,Improv_Melody,49,9999,9999,9999,2536689740
22,23,14,Improv_Melody,50,9999,9999,9999,2537189488
22,23,14,Improv_Melody,51,9999,9999,9999,2537689152
22,23,14,Improv_Melody,52,9999,9999,9999,2538189904
22,23,14,Improv_Melody,53,9999,9999,9999,2538689584
22,23,14,Improv_Melody,54,9999,9999,9999,2539189332
22,23,14,Improv_Melody,55,9999,9999,9999,2539690064
22,23,14,Improv_Melody,56,9999,9999,9999,2540189748
22,23,14,Improv_Melody,57,9999,9999,9999,2540689508
22,23,14,Improv_Melody,58,9999,9999,9999,2541189180
22,23,14,Improv_Melody,59,9999,9999,9999,2541689912
22,23,14,Improv_Melody,60,9999,9999,9999,2542189668
22,23,14,Improv_Melody,61,9999,9999,9999,2542689348
22,23,14,Improv_Melody,62,9999,9999,9999,2543190092
22,23,14,Improv_Melody,63,9999,9999,9999,2543689804
22,23,14,Improv_Melody,64,9999,9999,9999,2544189560
22,23,14,Improv_Melody,65,9999,9999,9999,2544689248
22,23,14,Improv_Melody,66,9999,9999,9999,2545189988
22,23,14,Improv_Melody,67,9999,9999,9999,2545689652
22,23,14,Improv_Melody,68,9999,9999,9999,2546189412
22,23,14,Improv_Melody,69,9999,9999,9999,2546689092
22,23,14,Improv_Melody,70,9999,9999,9999,2547189840
22,23,14,Improv_Melody,71,9999,9999,9999,2547689572
22,23,14,Improv_Melody,72,9999,9999,9999,2548189252
22,23,14,Improv_Melody,73,9999,9999,9999,2548690004
22,23,14,Improv_Melody,74,9999,9999,9999,2549189684
22,23,14,Improv_Melody,75,9999,9999,9999,2549689436
22,23,14,Improv_Melody,76,9999,9999,9999,2550189172
22,23,14,Improv_Melody,77,9999,9999,9999,2550689844
22,23,14,Improv_Melody,78,9999,9999,9999,2551189600
22,23,14,Improv_Melody,79,9999,9999,9999,2551689300
22,23,14,Improv_Melody,80,9999,9999,9999,2552190044
22,23,14,Improv_Melody,81,9999,9999,9999,2552689732
22,23,14,Improv_Melody,82,9999,9999,9999,2553189488
22,23,14,Improv_Melody,83,9999,9999,9999,2553689204
22,23,14,Improv_Melody,84,9999,9999,9999,2554189928
22,23,14,Improv_Melody,85,9999,9999,9999,2554689612
22,23,14,Improv_Melody,86,9999,9999,9999,2555189308
22,23,14,Improv_Melody,87,9999,9999,9999,2555690108
22,23,14,Improv_Melody,88,9999,9999,9999,2556189788
22,23,14,Improv_Melody,89,9999,9999,9999,2556689476
22,23,14,Improv_Melody,90,9999,9999,9999,2557189232
22,23,14,Improv_Melody,91,9999,9999,9999,2557689952
22,23,14,Improv_Melody,92,9999,9999,9999,2558189632
22,23,14,Improv_Melody,93,9999,9999,9999,2558689340
22,23,14,Improv_Melody,94,9999,9999,9999,2559190092
22,23,14,Improv_Melody,95,9999,9999,9999,2559689828
22,23,14,Improv_Melody,96,9999,9999,9999,2560189508
22,23,14,Improv_Melody,97,9999,9999,9999,2560689276
22,23,14,Improv_Melody,98,9999,9999,9999,2561189948
22,23,14,Improv_Melody,99,9999,9999,9999,2561689668
22,23,14,Improv_Melody,100,9999,9999,9999,2562189436
22,23,14,Improv_Melody,101,9999,9999,9999,2562689108
22,23,14,Improv_Melody,102,9999,9999,9999,2563189860
22,23,14,Improv_Melody,103,9999,9999,9999,2563689532
22,23,14,Improv_Melody,104,9999,9999,9999,2564189272
22,23,14,Improv_Melody,105,9999,9999,9999,2564690028
22,23,14,Improv_Melody,106,9999,9999,9999,2565189684
22,23,14,Improv_Melody,107,9999,9999,9999,2565689432
22,23,14,Improv_Melody,108,9999,9999,9999,2566189172
22,23,14,Improv_Melody,109,9999,9999,9999,2566689892
22,23,14,Improv_Melody,110,9999,9999,9999,2567189572
22,23,14,Improv_Melody,111,9999,9999,9999,2567689304
22,23,14,Improv_Melody,112,9999,9999,9999,2568190048
22,23,14,Improv_Melody,113,9999,9999,9999,2568689736
22,23,14,Improv_Melody,114,9999,9999,9999,2569189492
22,23,14,Improv_Melody,115,9999,9999,9999,2569689148
22,23,14,Improv_Melody,116,9999,9999,9999,2570189940
22,23,14,Improv_Melody,117,9999,9999,9999,2570689624
22,23,14,Improv_Melody,118,9999,9999,9999,2571189304
22,23,14,Improv_Melody,119,9999,9999,9999,2571690104
22,23,14,Improv_Melody,120,9999,9999,9999,2572189780
22,23,14,Improv_Melody,121,9999,9999,9999,2572689468
22,23,14,Improv_Melody,122,9999,9999,9999,2573189228
22,23,14,Improv_Melody,123,9999,9999,9999,2573689956
22,23,14,Improv_Melody,124,9999,9999,9999,2574189640
22,23,14,Improv_Melody,125,9999,9999,9999,2574689400
22,23,14,Improv_Melody,126,9999,9999,9999,2575190140
22,23,14,Improv_Melody,127,9999,9999,9999,2575689792
22,23,14,Improv_Melody,128,9999,9999,9999,2576189532
22,23,14,Improv_Melody,129,9999,9999,9999,2576689220
22,23,14,Improv_Melody,130,9999,9999,9999,2577189968
22,23,14,Improv_Melody,131,9999,9999,9999,2577689716
22,23,14,Improv_Melody,132,9999,9999,9999,2578189380
22,23,14,Improv_Melody,133,9999,9999,9999,2578689136
22,23,14,Improv_Melody,134,9999,9999,9999,2579189880
22,23,14,Improv_Melody,135,9999,9999,9999,2579689556
22,23,14,Improv_Melody,136,9999,9999,9999,2580189292
22,23,14,Improv_Melody,137,9999,9999,9999,2580689972
22,23,14,Improv_Melody,138,9999,9999,9999,2581189728
22,23,14,Improv_Melody,139,9999,9999,9999,2581689400
22,23,14,Improv_Melody,140,9999,9999,9999,2582189140
22,23,14,Improv_Melody,141,9999,9999,9999,2582689904
22,23,14,Improv_Melody,142,9999,9999,9999,2583189584
22,23,14,Improv_Melody,143,9999,9999,9999,2583689324
22,23,14,Improv_Melody,144,9999,9999,9999,2584190056
22,23,14,Improv_Melody,145,9999,9999,9999,2584689736
22,23,14,Improv_Melody,146,9999,9999,9999,2585189432
22,23,14,Improv_Melody,147,9999,9999,9999,2585689208
22,23,14,Improv_Melody,148,9999,9999,9999,2586189932
22,23,14,Improv_Melody,149,9999,9999,9999,2586689640
22,23,14,Improv_Melody,150,9999,9999,9999,2587189320
22,23,14,Improv_Melody,151,9999,9999,9999,2587690060
22,23,14,Improv_Melody,152,9999,9999,9999,2588189800
22,23,14,Improv_Melody,153,9999,9999,9999,2588689484
22,23,14,Improv_Melody,154,9999,9999,9999,2589189224
22,23,14,Improv_Melody,155,9999,9999,9999,2589689972
22,23,14,Improv_Melody,156,9999,9999,9999,2590189628
22,23,14,Improv_Melody,157,9999,9999,9999,2590689384
22,23,14,Improv_Melody,158,9999,9999,9999,2591190136
22,23,14,Improv_Melody,159,9999,9999,9999,2591689816
22,23,14,Improv_Melody,160,9999,9999,9999,2592189552
22,23,14,Improv_Melody,161,9999,9999,9999,2592689252
