pid,taskRunCount,taskID,taskName,i,channel,pitch,velocity,microseconds
35,1,1,Ticks_Pract_5,0,5,42,127,525992508
35,1,1,Ticks_Pract_5,1,5,42,127,526492000
35,1,1,Ticks_Pract_5,2,5,42,127,526991716
35,1,1,Ticks_Pract_5,3,5,42,127,527491360
35,1,1,Ticks_Pract_5,4,1,48,44,527964380
35,1,1,Ticks_Pract_5,5,5,42,127,527992264
35,1,1,Ticks_Pract_5,6,1,48,37,528408128
35,1,1,Ticks_Pract_5,7,5,42,127,528491784
35,1,1,Ticks_Pract_5,8,1,48,36,528970724
35,1,1,Ticks_Pract_5,9,5,42,127,528991556
35,1,1,Ticks_Pract_5,10,1,48,41,529438408
35,1,1,Ticks_Pract_5,11,5,42,127,529492220
35,1,1,Ticks_Pract_5,12,1,48,38,529913716
35,1,1,Ticks_Pract_5,13,5,42,127,529991916
35,1,1,Ticks_Pract_5,14,1,48,43,530417976
35,1,1,Ticks_Pract_5,15,5,42,127,530491684
35,1,1,Ticks_Pract_5,16,1,48,38,530931884
35,1,1,Ticks_Pract_5,17,5,42,127,530991528
35,1,1,Ticks_Pract_5,18,1,48,41,531414448
35,1,1,Ticks_Pract_5,19,5,42,127,531492344
35,1,1,Ticks_Pract_5,20,1,48,37,531922368
35,1,1,Ticks_Pract_5,21,5,42,127,531991816
35,1,1,Ticks_Pract_5,22,1,48,43,532377788
35,1,1,Ticks_Pract_5,23,5,42,127,532491572
35,1,1,Ticks_Pract_5,24,1,48,39,532912188
35,1,1,Ticks_Pract_5,25,5,42,127,532992328
35,1,1,Ticks_Pract_5,26,1,48,41,533454512
35,1,1,Ticks_Pract_5,27,5,42,127,533492320
35,1,1,Ticks_Pract_5,28,1,48,36,533986072
35,1,1,Ticks_Pract_5,29,5,42,127,533991720
35,1,1,Ticks_Pract_5,30,5,42,127,534491420
35,1,1,Ticks_Pract_5,31,1,48,42,534498876
35,1,1,Ticks_Pract_5,32,1,48,38,534988012
35,1,1,Ticks_Pract_5,33,5,42,127,534992600
35,1,1,Ticks_Pract_5,34,5,42,127,535492156
35,1,1,Ticks_Pract_5,35,1,48,47,535502008
35,1,1,Ticks_Pract_5,36,1,48,32,535944388
35,1,1,Ticks_Pract_5,37,5,42,127,535991692
35,1,1,Ticks_Pract_5,38,5,42,127,536492292
35,1,1,Ticks_Pract_5,39,1,48,46,536506560
35,1,1,Ticks_Pract_5,40,1,48,41,536976464
35,1,1,Ticks_Pract_5,41,5,42,127,536992132
35,1,1,Ticks_Pract_5,42,5,42,127,537491832
35,1,1,Ticks_Pract_5,43,1,48,51,537527936
35,1,1,Ticks_Pract_5,44,5,42,127,537991748
35,1,1,Ticks_Pract_5,45,1,48,43,538014988
35,1,1,Ticks_Pract_5,46,5,42,127,538492192
35,1,1,Ticks_Pract_5,47,1,48,43,538503316
35,1,1,Ticks_Pract_5,48,1,48,35,538969680
35,1,1,Ticks_Pract_5,49,5,42,127,538992176
35,1,1,Ticks_Pract_5,50,5,42,127,539491628
35,1,1,Ticks_Pract_5,51,1,48,44,539494372
35,1,1,Ticks_Pract_5,52,5,42,127,539992296
35,1,1,Ticks_Pract_5,53,1,48,44,539997436
35,1,1,Ticks_Pract_5,54,1,48,39,540490784
35,1,1,Ticks_Pract_5,55,5,42,127,540492428
35,1,1,Ticks_Pract_5,56,1,48,42,540979600
35,1,1,Ticks_Pract_5,57,5,42,127,540992048
35,1,1,Ticks_Pract_5,58,1,48,27,541444140
35,1,1,Ticks_Pract_5,59,5,42,127,541491592
35,1,1,Ticks_Pract_5,60,1,48,40,541966652
35,1,1,Ticks_Pract_5,61,5,42,127,541992264
35,1,1,Ticks_Pract_5,62,1,48,42,542481300
35,1,1,Ticks_Pract_5,63,5,42,127,542492032
35,1,1,Ticks_Pract_5,64,1,48,42,542973144
35,1,1,Ticks_Pract_5,65,5,42,127,542991876
35,1,1,Ticks_Pract_5,66,1,48,43,543488544
35,1,1,Ticks_Pract_5,67,5,42,127,543491420
35,1,1,Ticks_Pract_5,68,1,48,46,543979412
35,1,1,Ticks_Pract_5,69,5,42,127,543992164
35,1,1,Ticks_Pract_5,70,1,48,40,544408348
35,1,1,Ticks_Pract_5,71,5,42,127,544492080
35,1,1,Ticks_Pract_5,72,5,42,127,544991560
35,1,1,Ticks_Pract_5,73,1,48,45,545430576
35,1,1,Ticks_Pract_5,74,5,42,127,545492240
35,1,1,Ticks_Pract_5,75,1,48,45,545951660
35,1,1,Ticks_Pract_5,0,9999,9999,9999,525990000
35,1,1,Ticks_Pract_5,1,9999,9999,9999,526489712
35,1,1,Ticks_Pract_5,2,9999,9999,9999,526989428
35,1,1,Ticks_Pract_5,3,9999,9999,9999,527489072
35,1,1,Ticks_Pract_5,4,9999,9999,9999,527989828
35,1,1,Ticks_Pract_5,5,9999,9999,9999,528489572
35,1,1,Ticks_Pract_5,6,9999,9999,9999,528989268
35,1,1,Ticks_Pract_5,7,9999,9999,9999,529490008
35,1,1,Ticks_Pract_5,8,9999,9999,9999,529989704
35,1,1,Ticks_Pract_5,9,9999,9999,9999,530489400
35,1,1,Ticks_Pract_5,10,9999,9999,9999,530989168
35,1,1,Ticks_Pract_5,11,9999,9999,9999,531489912
35,1,1,Ticks_Pract_5,12,9999,9999,9999,531989604
35,1,1,Ticks_Pract_5,13,9999,9999,9999,532489284
35,1,1,Ticks_Pract_5,14,9999,9999,9999,532990044
35,1,1,Ticks_Pract_5,15,9999,9999,9999,533489736
35,1,1,Ticks_Pract_5,16,9999,9999,9999,533989432
35,1,1,Ticks_Pract_5,17,9999,9999,9999,534489208
35,1,1,Ticks_Pract_5,18,9999,9999,9999,534989944
35,1,1,Ticks_Pract_5,19,9999,9999,9999,535489644
35,1,1,Ticks_Pract_5,20,9999,9999,9999,535989332
35,1,1,Ticks_Pract_5,21,9999,9999,9999,536490080
35,1,1,Ticks_Pract_5,22,9999,9999,9999,536989768
35,1,1,Ticks_Pract_5,23,9999,9999,9999,537489468
35,1,1,Ticks_Pract_5,24,9999,9999,9999,537989240
35,1,1,Ticks_Pract_5,25,9999,9999,9999,538489904
35,1,1,Ticks_Pract_5,26,9999,9999,9999,538989644
35,1,1,Ticks_Pract_5,27,9999,9999,9999,539489344
35,1,1,Ticks_Pract_5,28,9999,9999,9999,539990084
35,1,1,Ticks_Pract_5,29,9999,9999,9999,540489776
35,1,1,Ticks_Pract_5,30,9999,9999,9999,540989540
35,1,1,Ticks_Pract_5,31,9999,9999,9999,541489232
35,1,1,Ticks_Pract_5,32,9999,9999,9999,541989976
35,1,1,Ticks_Pract_5,33,9999,9999,9999,542489672
35,1,1,Ticks_Pract_5,34,9999,9999,9999,542989364
35,1,1,Ticks_Pract_5,35,9999,9999,9999,543489136
35,1,1,Ticks_Pract_5,36,9999,9999,9999,543989876
35,1,1,Ticks_Pract_5,37,9999,9999,9999,544489572
35,1,1,Ticks_Pract_5,38,9999,9999,9999,544989272
35,1,1,Ticks_Pract_5,39,9999,9999,9999,545490032
35,2,0,Ticks_Pract_8,0,5,42,127,570464520
35,2,0,Ticks_Pract_8,1,5,42,127,571265348
35,2,0,Ticks_Pract_8,2,5,42,127,572065324
35,2,0,Ticks_Pract_8,3,5,42,127,572864932
35,2,0,Ticks_Pract_8,4,5,42,127,573664612
35,2,0,Ticks_Pract_8,5,1,48,50,573712912
35,2,0,Ticks_Pract_8,6,5,42,127,574465244
35,2,0,Ticks_Pract_8,7,1,48,50,574496040
35,2,0,Ticks_Pract_8,8,5,42,127,575265200
35,2,0,Ticks_Pract_8,9,1,48,52,575290464
35,2,0,Ticks_Pract_8,10,1,48,53,576027496
35,2,0,Ticks_Pract_8,11,5,42,127,576064928
35,2,0,Ticks_Pract_8,12,5,42,127,576864596
35,2,0,Ticks_Pract_8,13,1,48,48,576876768
35,2,0,Ticks_Pract_8,14,1,48,52,577617616
35,2,0,Ticks_Pract_8,15,5,42,127,577665320
35,2,0,Ticks_Pract_8,16,1,48,46,578425372
35,2,0,Ticks_Pract_8,17,5,42,127,578465052
35,2,0,Ticks_Pract_8,18,1,48,47,579160536
35,2,0,Ticks_Pract_8,19,5,42,127,579265068
35,2,0,Ticks_Pract_8,20,1,48,44,580013020
35,2,0,Ticks_Pract_8,21,5,42,127,580064520
35,2,0,Ticks_Pract_8,22,1,48,54,580774608
35,2,0,Ticks_Pract_8,23,5,42,127,580865448
35,2,0,Ticks_Pract_8,24,1,48,50,581579064
35,2,0,Ticks_Pract_8,25,5,42,127,581665108
35,2,0,Ticks_Pract_8,26,1,48,47,582414316
35,2,0,Ticks_Pract_8,27,5,42,127,582464992
35,2,0,Ticks_Pract_8,28,5,42,127,583264804
35,2,0,Ticks_Pract_8,29,1,48,48,583268528
35,2,0,Ticks_Pract_8,30,1,48,46,584046200
35,2,0,Ticks_Pract_8,31,5,42,127,584065308
35,2,0,Ticks_Pract_8,32,1,48,47,584836956
35,2,0,Ticks_Pract_8,33,5,42,127,584865112
35,2,0,Ticks_Pract_8,34,5,42,127,585665004
35,2,0,Ticks_Pract_8,35,1,48,53,585690860
35,2,0,Ticks_Pract_8,36,1,48,43,586399100
35,2,0,Ticks_Pract_8,37,5,42,127,586464804
35,2,0,Ticks_Pract_8,38,1,48,46,587264768
35,2,0,Ticks_Pract_8,39,5,42,127,587266560
35,2,0,Ticks_Pract_8,40,5,42,127,588065028
35,2,0,Ticks_Pract_8,41,1,48,44,588081908
35,2,0,Ticks_Pract_8,42,1,48,42,588845272
35,2,0,Ticks_Pract_8,43,5,42,127,588864752
35,2,0,Ticks_Pract_8,44,5,42,127,589664792
35,2,0,Ticks_Pract_8,45,1,48,44,589685964
35,2,0,Ticks_Pract_8,46,1,48,46,590425592
35,2,0,Ticks_Pract_8,47,5,42,127,590465588
35,2,0,Ticks_Pract_8,48,1,48,50,591242480
35,2,0,Ticks_Pract_8,49,5,42,127,591265248
35,2,0,Ticks_Pract_8,50,5,42,127,592064840
35,2,0,Ticks_Pract_8,51,1,48,43,592144104
35,2,0,Ticks_Pract_8,52,5,42,127,592864724
35,2,0,Ticks_Pract_8,53,1,48,54,592901504
35,2,0,Ticks_Pract_8,54,5,42,127,593665580
35,2,0,Ticks_Pract_8,55,1,48,48,593666548
35,2,0,Ticks_Pract_8,0,9999,9999,9999,570462308
35,2,0,Ticks_Pract_8,1,9999,9999,9999,571263060
35,2,0,Ticks_Pract_8,2,9999,9999,9999,572062816
35,2,0,Ticks_Pract_8,3,9999,9999,9999,572862568
35,2,0,Ticks_Pract_8,4,9999,9999,9999,573662324
35,2,0,Ticks_Pract_8,5,9999,9999,9999,574463028
35,2,0,Ticks_Pract_8,6,9999,9999,9999,575262840
35,2,0,Ticks_Pract_8,7,9999,9999,9999,576062568
35,2,0,Ticks_Pract_8,8,9999,9999,9999,576862308
35,2,0,Ticks_Pract_8,9,9999,9999,9999,577663028
35,2,0,Ticks_Pract_8,10,9999,9999,9999,578462836
35,2,0,Ticks_Pract_8,11,9999,9999,9999,579262556
35,2,0,Ticks_Pract_8,12,9999,9999,9999,580062304
35,2,0,Ticks_Pract_8,13,9999,9999,9999,580863084
35,2,0,Ticks_Pract_8,14,9999,9999,9999,581662820
35,2,0,Ticks_Pract_8,15,9999,9999,9999,582462556
35,2,0,Ticks_Pract_8,16,9999,9999,9999,583262296
35,2,0,Ticks_Pract_8,17,9999,9999,9999,584063092
35,2,0,Ticks_Pract_8,18,9999,9999,9999,584862828
35,2,0,Ticks_Pract_8,19,9999,9999,9999,585662568
35,2,0,Ticks_Pract_8,20,9999,9999,9999,586462292
35,2,0,Ticks_Pract_8,21,9999,9999,9999,587263080
35,2,0,Ticks_Pract_8,22,9999,9999,9999,588062812
35,2,0,Ticks_Pract_8,23,9999,9999,9999,588862540
35,2,0,Ticks_Pract_8,24,9999,9999,9999,589662280
35,2,0,Ticks_Pract_8,25,9999,9999,9999,590463080
35,2,0,Ticks_Pract_8,26,9999,9999,9999,591262812
35,2,0,Ticks_Pract_8,27,9999,9999,9999,592062552
35,2,0,Ticks_Pract_8,28,9999,9999,9999,592862288
35,2,0,Ticks_Pract_8,29,9999,9999,9999,593663068
35,3,4,T1_SMS_5,0,5,42,127,675498344
35,3,4,T1_SMS_5,1,5,42,127,675998060
35,3,4,T1_SMS_5,2,5,42,127,676497704
35,3,4,T1_SMS_5,3,5,42,127,676997348
35,3,4,T1_SMS_5,4,5,42,127,677498256
35,3,4,T1_SMS_5,5,5,42,127,677998124
35,3,4,T1_SMS_5,6,1,48,50,678479376
35,3,4,T1_SMS_5,7,5,42,127,678497588
35,3,4,T1_SMS_5,8,1,48,51,678914740
35,3,4,T1_SMS_5,9,5,42,127,678998328
35,3,4,T1_SMS_5,10,1,48,51,679475172
35,3,4,T1_SMS_5,11,5,42,127,679498024
35,3,4,T1_SMS_5,12,1,48,51,679927668
35,3,4,T1_SMS_5,13,5,42,127,679997940
35,3,4,T1_SMS_5,14,1,48,48,680429912
35,3,4,T1_SMS_5,15,5,42,127,680497564
35,3,4,T1_SMS_5,16,1,48,45,680926084
35,3,4,T1_SMS_5,17,5,42,127,680998380
35,3,4,T1_SMS_5,18,1,48,47,681420176
35,3,4,T1_SMS_5,19,5,42,127,681498220
35,3,4,T1_SMS_5,20,1,48,46,681950908
35,3,4,T1_SMS_5,21,5,42,127,681997544
35,3,4,T1_SMS_5,22,1,48,51,682430560
35,3,4,T1_SMS_5,23,5,42,127,682498360
35,3,4,T1_SMS_5,24,1,48,47,682941320
35,3,4,T1_SMS_5,25,5,42,127,682998056
35,3,4,T1_SMS_5,26,1,48,44,683443856
35,3,4,T1_SMS_5,27,5,42,127,683497972
35,3,4,T1_SMS_5,28,1,48,48,683904880
35,3,4,T1_SMS_5,29,5,42,127,683997520
35,3,4,T1_SMS_5,30,1,48,48,684430536
35,3,4,T1_SMS_5,31,5,42,127,684498260
35,3,4,T1_SMS_5,32,1,48,54,684928880
35,3,4,T1_SMS_5,33,5,42,127,684998180
35,3,4,T1_SMS_5,34,1,48,52,685431344
35,3,4,T1_SMS_5,35,5,42,127,685497800
35,3,4,T1_SMS_5,36,1,48,50,685947420
35,3,4,T1_SMS_5,37,5,42,127,685997344
35,3,4,T1_SMS_5,38,1,48,52,686420684
35,3,4,T1_SMS_5,39,5,42,127,686498088
35,3,4,T1_SMS_5,40,1,48,51,686934440
35,3,4,T1_SMS_5,41,5,42,127,686998004
35,3,4,T1_SMS_5,42,1,48,49,687404144
35,3,4,T1_SMS_5,43,5,42,127,687498732
35,3,4,T1_SMS_5,44,1,48,45,687922984
35,3,4,T1_SMS_5,45,5,42,127,687998364
35,3,4,T1_SMS_5,46,1,48,52,688415948
35,3,4,T1_SMS_5,47,5,42,127,688497988
35,3,4,T1_SMS_5,48,1,48,46,688938308
35,3,4,T1_SMS_5,49,5,42,127,688997880
35,3,4,T1_SMS_5,50,1,48,43,689416588
35,3,4,T1_SMS_5,51,5,42,127,689497404
35,3,4,T1_SMS_5,52,1,48,52,689908724
35,3,4,T1_SMS_5,53,5,42,127,689998292
35,3,4,T1_SMS_5,54,1,48,39,690410140
35,3,4,T1_SMS_5,55,5,42,127,690497840
35,3,4,T1_SMS_5,56,1,48,48,690914844
35,3,4,T1_SMS_5,57,5,42,127,690997832
35,3,4,T1_SMS_5,58,1,48,51,691377444
35,3,4,T1_SMS_5,59,5,42,127,691498484
35,3,4,T1_SMS_5,60,1,48,44,691917232
35,3,4,T1_SMS_5,61,5,42,127,691998120
35,3,4,T1_SMS_5,62,1,48,50,692422308
35,3,4,T1_SMS_5,63,5,42,127,692497888
35,3,4,T1_SMS_5,64,1,48,53,692890068
35,3,4,T1_SMS_5,65,5,42,127,692997348
35,3,4,T1_SMS_5,66,1,48,48,693443912
35,3,4,T1_SMS_5,67,5,42,127,693498176
35,3,4,T1_SMS_5,68,1,48,46,693938968
35,3,4,T1_SMS_5,69,5,42,127,693997948
35,3,4,T1_SMS_5,70,1,48,48,694425724
35,3,4,T1_SMS_5,71,5,42,127,694497788
35,3,4,T1_SMS_5,72,1,48,47,694954884
35,3,4,T1_SMS_5,73,5,42,127,694998456
35,3,4,T1_SMS_5,74,1,48,44,695426908
35,3,4,T1_SMS_5,75,5,42,127,695498076
35,3,4,T1_SMS_5,76,1,48,46,695926672
35,3,4,T1_SMS_5,77,5,42,127,695997848
35,3,4,T1_SMS_5,78,1,48,46,696434752
35,3,4,T1_SMS_5,79,5,42,127,696497688
35,3,4,T1_SMS_5,80,1,48,43,696919092
35,3,4,T1_SMS_5,81,5,42,127,696998132
35,3,4,T1_SMS_5,82,1,48,47,697399932
35,3,4,T1_SMS_5,83,5,42,127,697497828
35,3,4,T1_SMS_5,84,1,48,47,697926624
35,3,4,T1_SMS_5,85,5,42,127,697997600
35,3,4,T1_SMS_5,86,1,48,41,698452800
35,3,4,T1_SMS_5,87,5,42,127,698498564
35,3,4,T1_SMS_5,88,1,48,43,698937988
35,3,4,T1_SMS_5,89,5,42,127,698998184
35,3,4,T1_SMS_5,90,1,48,48,699413000
35,3,4,T1_SMS_5,91,5,42,127,699497804
35,3,4,T1_SMS_5,92,1,48,45,699945452
35,3,4,T1_SMS_5,93,5,42,127,699997548
35,3,4,T1_SMS_5,94,1,48,47,700435648
35,3,4,T1_SMS_5,95,5,42,127,700498440
35,3,4,T1_SMS_5,96,1,48,33,700941556
35,3,4,T1_SMS_5,97,5,42,127,700998060
35,3,4,T1_SMS_5,98,1,48,32,701452468
35,3,4,T1_SMS_5,99,5,42,127,701497680
35,3,4,T1_SMS_5,100,1,48,50,701949916
35,3,4,T1_SMS_5,101,5,42,127,701997676
35,3,4,T1_SMS_5,102,1,48,50,702476768
35,3,4,T1_SMS_5,103,5,42,127,702498044
35,3,4,T1_SMS_5,104,1,48,50,702970700
35,3,4,T1_SMS_5,105,5,42,127,702997740
35,3,4,T1_SMS_5,106,1,48,48,703452140
35,3,4,T1_SMS_5,107,5,42,127,703497508
35,3,4,T1_SMS_5,108,1,48,46,703953556
35,3,4,T1_SMS_5,109,5,42,127,703998472
35,3,4,T1_SMS_5,110,1,48,53,704464100
35,3,4,T1_SMS_5,111,5,42,127,704498016
35,3,4,T1_SMS_5,112,1,48,45,704957064
35,3,4,T1_SMS_5,113,5,42,127,704997788
35,3,4,T1_SMS_5,114,1,48,51,705464160
35,3,4,T1_SMS_5,115,5,42,127,705497632
35,3,4,T1_SMS_5,116,1,48,48,705981960
35,3,4,T1_SMS_5,117,5,42,127,705998376
35,3,4,T1_SMS_5,118,1,48,47,706458616
35,3,4,T1_SMS_5,119,5,42,127,706497772
35,3,4,T1_SMS_5,120,1,48,48,706961080
35,3,4,T1_SMS_5,121,5,42,127,706997544
35,3,4,T1_SMS_5,122,1,48,45,707440132
35,3,4,T1_SMS_5,123,5,42,127,707498508
35,3,4,T1_SMS_5,124,1,48,48,707943568
35,3,4,T1_SMS_5,125,5,42,127,707998276
35,3,4,T1_SMS_5,126,1,48,50,708459264
35,3,4,T1_SMS_5,127,5,42,127,708497896
35,3,4,T1_SMS_5,128,1,48,47,708991424
35,3,4,T1_SMS_5,129,5,42,127,708997368
35,3,4,T1_SMS_5,130,1,48,45,709470376
35,3,4,T1_SMS_5,131,5,42,127,709498332
35,3,4,T1_SMS_5,132,1,48,46,709930800
35,3,4,T1_SMS_5,133,5,42,127,709997880
35,3,4,T1_SMS_5,134,1,48,38,710443360
35,3,4,T1_SMS_5,135,5,42,127,710497548
35,3,4,T1_SMS_5,136,1,48,45,710946712
35,3,4,T1_SMS_5,137,5,42,127,710998364
35,3,4,T1_SMS_5,138,1,48,44,711424348
35,3,4,T1_SMS_5,139,5,42,127,711498284
35,3,4,T1_SMS_5,140,1,48,48,711941324
35,3,4,T1_SMS_5,141,5,42,127,711997752
35,3,4,T1_SMS_5,142,1,48,47,712457772
35,3,4,T1_SMS_5,143,5,42,127,712497524
35,3,4,T1_SMS_5,144,1,48,49,712946924
35,3,4,T1_SMS_5,145,5,42,127,712998268
35,3,4,T1_SMS_5,146,1,48,48,713441308
35,3,4,T1_SMS_5,147,5,42,127,713498260
35,3,4,T1_SMS_5,148,1,48,50,713942644
35,3,4,T1_SMS_5,149,5,42,127,713997804
35,3,4,T1_SMS_5,150,5,42,127,714498332
35,3,4,T1_SMS_5,151,1,48,43,714514236
35,3,4,T1_SMS_5,152,1,48,49,714980856
35,3,4,T1_SMS_5,153,5,42,127,714998392
35,3,4,T1_SMS_5,154,1,48,53,715472248
35,3,4,T1_SMS_5,155,5,42,127,715497788
35,3,4,T1_SMS_5,156,1,48,47,715943368
35,3,4,T1_SMS_5,157,5,42,127,715997632
35,3,4,T1_SMS_5,158,1,48,46,716472536
35,3,4,T1_SMS_5,159,5,42,127,716498228
35,3,4,T1_SMS_5,160,1,48,55,716974772
35,3,4,T1_SMS_5,161,5,42,127,716997996
35,3,4,T1_SMS_5,162,1,48,44,717473872
35,3,4,T1_SMS_5,163,5,42,127,717497620
35,3,4,T1_SMS_5,164,1,48,47,717946116
35,3,4,T1_SMS_5,165,5,42,127,717997464
35,3,4,T1_SMS_5,166,1,48,25,718043648
35,3,4,T1_SMS_5,167,1,48,38,718476684
35,3,4,T1_SMS_5,168,5,42,127,718498260
35,3,4,T1_SMS_5,169,1,48,44,718964036
35,3,4,T1_SMS_5,170,5,42,127,718997880
35,3,4,T1_SMS_5,171,1,48,41,719453756
35,3,4,T1_SMS_5,172,5,42,127,719497500
35,3,4,T1_SMS_5,173,1,48,38,719963620
35,3,4,T1_SMS_5,174,5,42,127,719998464
35,3,4,T1_SMS_5,175,1,48,44,720447764
35,3,4,T1_SMS_5,176,5,42,127,720498012
35,3,4,T1_SMS_5,177,1,48,48,720923516
35,3,4,T1_SMS_5,178,5,42,127,720997928
35,3,4,T1_SMS_5,179,1,48,41,721488140
35,3,4,T1_SMS_5,180,5,42,127,721497448
35,3,4,T1_SMS_5,181,1,48,45,721967268
35,3,4,T1_SMS_5,182,5,42,127,721998192
35,3,4,T1_SMS_5,183,5,42,127,722497892
35,3,4,T1_SMS_5,184,1,48,48,722500484
35,3,4,T1_SMS_5,185,1,48,41,722989616
35,3,4,T1_SMS_5,186,5,42,127,722997728
35,3,4,T1_SMS_5,187,1,48,43,723487968
35,3,4,T1_SMS_5,188,5,42,127,723498320
35,3,4,T1_SMS_5,189,5,42,127,723998096
35,3,4,T1_SMS_5,190,1,48,40,724032252
35,3,4,T1_SMS_5,191,5,42,127,724497940
35,3,4,T1_SMS_5,192,1,48,44,724514296
35,3,4,T1_SMS_5,193,1,48,47,724974856
35,3,4,T1_SMS_5,194,5,42,127,724997404
35,3,4,T1_SMS_5,195,5,42,127,725498152
35,3,4,T1_SMS_5,196,1,48,41,725534476
35,3,4,T1_SMS_5,197,5,42,127,725997920
35,3,4,T1_SMS_5,198,1,48,45,726005376
35,3,4,T1_SMS_5,199,5,42,127,726497768
35,3,4,T1_SMS_5,200,1,48,46,726499480
35,3,4,T1_SMS_5,201,5,42,127,726998284
35,3,4,T1_SMS_5,202,1,48,39,727000148
35,3,4,T1_SMS_5,203,1,48,46,727490012
35,3,4,T1_SMS_5,204,5,42,127,727498124
35,3,4,T1_SMS_5,205,1,48,39,727985216
35,3,4,T1_SMS_5,206,5,42,127,727997744
35,3,4,T1_SMS_5,207,5,42,127,728497744
35,3,4,T1_SMS_5,208,1,48,45,728507448
35,3,4,T1_SMS_5,209,1,48,42,728982436
35,3,4,T1_SMS_5,210,5,42,127,728998108
35,3,4,T1_SMS_5,211,5,42,127,729497956
35,3,4,T1_SMS_5,212,1,48,47,729504292
35,3,4,T1_SMS_5,213,1,48,43,729992228
35,3,4,T1_SMS_5,214,5,42,127,729997724
35,3,4,T1_SMS_5,215,1,48,43,730452252
35,3,4,T1_SMS_5,216,5,42,127,730498464
35,3,4,T1_SMS_5,217,1,48,44,730987500
35,3,4,T1_SMS_5,218,5,42,127,730998160
35,3,4,T1_SMS_5,219,1,48,40,731469668
35,3,4,T1_SMS_5,220,5,42,127,731497856
35,3,4,T1_SMS_5,221,1,48,45,731938100
35,3,4,T1_SMS_5,222,5,42,127,731997824
35,3,4,T1_SMS_5,223,1,48,40,732453648
35,3,4,T1_SMS_5,224,5,42,127,732498340
35,3,4,T1_SMS_5,225,1,48,46,732956632
35,3,4,T1_SMS_5,226,5,42,127,732998036
35,3,4,T1_SMS_5,227,1,48,41,733469724
35,3,4,T1_SMS_5,228,5,42,127,733497656
35,3,4,T1_SMS_5,229,1,48,42,733972036
35,3,4,T1_SMS_5,230,5,42,127,733997280
35,3,4,T1_SMS_5,231,1,48,38,734471804
35,3,4,T1_SMS_5,232,5,42,127,734498020
35,3,4,T1_SMS_5,233,1,48,38,734968580
35,3,4,T1_SMS_5,234,5,42,127,734997936
35,3,4,T1_SMS_5,235,1,48,37,735456312
35,3,4,T1_SMS_5,236,5,42,127,735497708
35,3,4,T1_SMS_5,237,1,48,37,735956004
35,3,4,T1_SMS_5,238,5,42,127,735998524
35,3,4,T1_SMS_5,239,1,48,43,736457492
35,3,4,T1_SMS_5,240,5,42,127,736497996
35,3,4,T1_SMS_5,241,1,48,34,736974168
35,3,4,T1_SMS_5,242,5,42,127,736997688
35,3,4,T1_SMS_5,243,1,48,35,737469600
35,3,4,T1_SMS_5,244,5,42,127,737497532
35,3,4,T1_SMS_5,245,1,48,39,737954408
35,3,4,T1_SMS_5,246,5,42,127,737998200
35,3,4,T1_SMS_5,247,1,48,43,738483352
35,3,4,T1_SMS_5,248,5,42,127,738497896
35,3,4,T1_SMS_5,249,1,48,38,738973020
35,3,4,T1_SMS_5,250,5,42,127,738997588
35,3,4,T1_SMS_5,251,1,48,39,739476376
35,3,4,T1_SMS_5,252,5,42,127,739498556
35,3,4,T1_SMS_5,253,1,48,38,739966872
35,3,4,T1_SMS_5,254,5,42,127,739998028
35,3,4,T1_SMS_5,255,1,48,38,740476968
35,3,4,T1_SMS_5,0,9999,9999,9999,675496052
35,3,4,T1_SMS_5,1,9999,9999,9999,675995768
35,3,4,T1_SMS_5,2,9999,9999,9999,676495412
35,3,4,T1_SMS_5,3,9999,9999,9999,676995132
35,3,4,T1_SMS_5,4,9999,9999,9999,677495892
35,3,4,T1_SMS_5,5,9999,9999,9999,677995612
35,3,4,T1_SMS_5,6,9999,9999,9999,678495296
35,3,4,T1_SMS_5,7,9999,9999,9999,678996040
35,3,4,T1_SMS_5,8,9999,9999,9999,679495732
35,3,4,T1_SMS_5,9,9999,9999,9999,679995500
35,3,4,T1_SMS_5,10,9999,9999,9999,680495196
35,3,4,T1_SMS_5,11,9999,9999,9999,680995940
35,3,4,T1_SMS_5,12,9999,9999,9999,681495632
35,3,4,T1_SMS_5,13,9999,9999,9999,681995328
35,3,4,T1_SMS_5,14,9999,9999,9999,682496076
35,3,4,T1_SMS_5,15,9999,9999,9999,682995764
35,3,4,T1_SMS_5,16,9999,9999,9999,683495536
35,3,4,T1_SMS_5,17,9999,9999,9999,683995228
35,3,4,T1_SMS_5,18,9999,9999,9999,684495968
35,3,4,T1_SMS_5,19,9999,9999,9999,684995664
35,3,4,T1_SMS_5,20,9999,9999,9999,685495360
35,3,4,T1_SMS_5,21,9999,9999,9999,685995056
35,3,4,T1_SMS_5,22,9999,9999,9999,686495796
35,3,4,T1_SMS_5,23,9999,9999,9999,686995564
35,3,4,T1_SMS_5,24,9999,9999,9999,687495260
35,3,4,T1_SMS_5,25,9999,9999,9999,687996000
35,3,4,T1_SMS_5,26,9999,9999,9999,688495696
35,3,4,T1_SMS_5,27,9999,9999,9999,688995444
35,3,4,T1_SMS_5,28,9999,9999,9999,689495112
35,3,4,T1_SMS_5,29,9999,9999,9999,689995852
35,3,4,T1_SMS_5,30,9999,9999,9999,690495548
35,3,4,T1_SMS_5,31,9999,9999,9999,690995320
35,3,4,T1_SMS_5,32,9999,9999,9999,691496044
35,3,4,T1_SMS_5,33,9999,9999,9999,691995756
35,3,4,T1_SMS_5,34,9999,9999,9999,692495448
35,3,4,T1_SMS_5,35,9999,9999,9999,692995132
35,3,4,T1_SMS_5,36,9999,9999,9999,693495888
35,3,4,T1_SMS_5,37,9999,9999,9999,693995580
35,3,4,T1_SMS_5,38,9999,9999,9999,694495352
35,3,4,T1_SMS_5,39,9999,9999,9999,694996016
35,3,4,T1_SMS_5,40,9999,9999,9999,695495788
35,3,4,T1_SMS_5,41,9999,9999,9999,695995480
35,3,4,T1_SMS_5,42,9999,9999,9999,696495176
35,3,4,T1_SMS_5,43,9999,9999,9999,696995916
35,3,4,T1_SMS_5,44,9999,9999,9999,697495612
35,3,4,T1_SMS_5,45,9999,9999,9999,697995384
35,3,4,T1_SMS_5,46,9999,9999,9999,698496056
35,3,4,T1_SMS_5,47,9999,9999,9999,698995820
35,3,4,T1_SMS_5,48,9999,9999,9999,699495516
35,3,4,T1_SMS_5,49,9999,9999,9999,699995184
35,3,4,T1_SMS_5,50,9999,9999,9999,700495924
35,3,4,T1_SMS_5,51,9999,9999,9999,700995696
35,3,4,T1_SMS_5,52,9999,9999,9999,701495392
35,3,4,T1_SMS_5,53,9999,9999,9999,701995088
35,3,4,T1_SMS_5,54,9999,9999,9999,702495828
35,3,4,T1_SMS_5,55,9999,9999,9999,702995524
35,3,4,T1_SMS_5,56,9999,9999,9999,703495216
35,3,4,T1_SMS_5,57,9999,9999,9999,703995960
35,3,4,T1_SMS_5,58,9999,9999,9999,704495728
35,3,4,T1_SMS_5,59,9999,9999,9999,704995424
35,3,4,T1_SMS_5,60,9999,9999,9999,705495116
35,3,4,T1_SMS_5,61,9999,9999,9999,705995860
35,3,4,T1_SMS_5,62,9999,9999,9999,706495556
35,3,4,T1_SMS_5,63,9999,9999,9999,706995252
35,3,4,T1_SMS_5,64,9999,9999,9999,707495996
35,3,4,T1_SMS_5,65,9999,9999,9999,707995764
35,3,4,T1_SMS_5,66,9999,9999,9999,708495456
35,3,4,T1_SMS_5,67,9999,9999,9999,708995152
35,3,4,T1_SMS_5,68,9999,9999,9999,709495896
35,3,4,T1_SMS_5,69,9999,9999,9999,709995588
35,3,4,T1_SMS_5,70,9999,9999,9999,710495332
35,3,4,T1_SMS_5,71,9999,9999,9999,710996076
35,3,4,T1_SMS_5,72,9999,9999,9999,711495768
35,3,4,T1_SMS_5,73,9999,9999,9999,711995464
35,3,4,T1_SMS_5,74,9999,9999,9999,712495160
35,3,4,T1_SMS_5,75,9999,9999,9999,712995904
35,3,4,T1_SMS_5,76,9999,9999,9999,713495672
35,3,4,T1_SMS_5,77,9999,9999,9999,713995368
35,3,4,T1_SMS_5,78,9999,9999,9999,714496120
35,3,4,T1_SMS_5,79,9999,9999,9999,714995804
35,3,4,T1_SMS_5,80,9999,9999,9999,715495500
35,3,4,T1_SMS_5,81,9999,9999,9999,715995192
35,3,4,T1_SMS_5,82,9999,9999,9999,716495936
35,3,4,T1_SMS_5,83,9999,9999,9999,716995632
35,3,4,T1_SMS_5,84,9999,9999,9999,717495404
35,3,4,T1_SMS_5,85,9999,9999,9999,717995100
35,3,4,T1_SMS_5,86,9999,9999,9999,718495820
35,3,4,T1_SMS_5,87,9999,9999,9999,718995516
35,3,4,T1_SMS_5,88,9999,9999,9999,719495284
35,3,4,T1_SMS_5,89,9999,9999,9999,719996024
35,3,4,T1_SMS_5,90,9999,9999,9999,720495720
35,3,4,T1_SMS_5,91,9999,9999,9999,720995392
35,3,4,T1_SMS_5,92,9999,9999,9999,721495160
35,3,4,T1_SMS_5,93,9999,9999,9999,721995824
35,3,4,T1_SMS_5,94,9999,9999,9999,722495604
35,3,4,T1_SMS_5,95,9999,9999,9999,722995288
35,3,4,T1_SMS_5,96,9999,9999,9999,723496032
35,3,4,T1_SMS_5,97,9999,9999,9999,723995732
35,3,4,T1_SMS_5,98,9999,9999,9999,724495428
35,3,4,T1_SMS_5,99,9999,9999,9999,724995188
35,3,4,T1_SMS_5,100,9999,9999,9999,725495860
35,3,4,T1_SMS_5,101,9999,9999,9999,725995632
35,3,4,T1_SMS_5,102,9999,9999,9999,726495328
35,3,4,T1_SMS_5,103,9999,9999,9999,726996068
35,3,4,T1_SMS_5,104,9999,9999,9999,727495760
35,3,4,T1_SMS_5,105,9999,9999,9999,727995452
35,3,4,T1_SMS_5,106,9999,9999,9999,728495156
35,3,4,T1_SMS_5,107,9999,9999,9999,728995892
35,3,4,T1_SMS_5,108,9999,9999,9999,729495668
35,3,4,T1_SMS_5,109,9999,9999,9999,729995360
35,3,4,T1_SMS_5,110,9999,9999,9999,730496104
35,3,4,T1_SMS_5,111,9999,9999,9999,730995796
35,3,4,T1_SMS_5,112,9999,9999,9999,731495492
35,3,4,T1_SMS_5,113,9999,9999,9999,731995236
35,3,4,T1_SMS_5,114,9999,9999,9999,732495976
35,3,4,T1_SMS_5,115,9999,9999,9999,732995672
35,3,4,T1_SMS_5,116,9999,9999,9999,733495368
35,3,4,T1_SMS_5,117,9999,9999,9999,733995064
35,3,4,T1_SMS_5,118,9999,9999,9999,734495804
35,3,4,T1_SMS_5,119,9999,9999,9999,734995572
35,3,4,T1_SMS_5,120,9999,9999,9999,735495268
35,3,4,T1_SMS_5,121,9999,9999,9999,735996008
35,3,4,T1_SMS_5,122,9999,9999,9999,736495704
35,3,4,T1_SMS_5,123,9999,9999,9999,736995400
35,3,4,T1_SMS_5,124,9999,9999,9999,737495096
35,3,4,T1_SMS_5,125,9999,9999,9999,737995836
35,3,4,T1_SMS_5,126,9999,9999,9999,738495604
35,3,4,T1_SMS_5,127,9999,9999,9999,738995300
35,3,4,T1_SMS_5,128,9999,9999,9999,739496040
35,3,4,T1_SMS_5,129,9999,9999,9999,739995736
35,4,2,T1_SMS_8,0,5,42,127,804312584
35,4,2,T1_SMS_8,1,5,42,127,805113088
35,4,2,T1_SMS_8,2,5,42,127,805913064
35,4,2,T1_SMS_8,3,1,48,49,806080464
35,4,2,T1_SMS_8,4,5,42,127,806712724
35,4,2,T1_SMS_8,5,1,48,41,806741424
35,4,2,T1_SMS_8,6,5,42,127,807512680
35,4,2,T1_SMS_8,7,1,48,41,807526368
35,4,2,T1_SMS_8,8,1,48,47,808289512
35,4,2,T1_SMS_8,9,5,42,127,808313476
35,4,2,T1_SMS_8,10,1,48,36,809066352
35,4,2,T1_SMS_8,11,5,42,127,809112916
35,4,2,T1_SMS_8,12,1,48,40,809846268
35,4,2,T1_SMS_8,13,5,42,127,809912796
35,4,2,T1_SMS_8,14,1,48,42,810671212
35,4,2,T1_SMS_8,15,5,42,127,810712604
35,4,2,T1_SMS_8,16,1,48,42,811426136
35,4,2,T1_SMS_8,17,5,42,127,811513460
35,4,2,T1_SMS_8,18,1,48,43,812250484
35,4,2,T1_SMS_8,19,5,42,127,812312896
35,4,2,T1_SMS_8,20,1,48,43,813021196
35,4,2,T1_SMS_8,21,5,42,127,813112704
35,4,2,T1_SMS_8,22,1,48,46,813867376
35,4,2,T1_SMS_8,23,5,42,127,813912584
35,4,2,T1_SMS_8,24,1,48,35,814638316
35,4,2,T1_SMS_8,25,5,42,127,814713168
35,4,2,T1_SMS_8,26,1,48,41,815482644
35,4,2,T1_SMS_8,27,5,42,127,815512900
35,4,2,T1_SMS_8,28,1,48,46,816271688
35,4,2,T1_SMS_8,29,5,42,127,816312636
35,4,2,T1_SMS_8,30,1,48,44,817021232
35,4,2,T1_SMS_8,31,5,42,127,817113548
35,4,2,T1_SMS_8,32,1,48,44,817827996
35,4,2,T1_SMS_8,33,5,42,127,817913148
35,4,2,T1_SMS_8,34,1,48,44,818632288
35,4,2,T1_SMS_8,35,5,42,127,818712880
35,4,2,T1_SMS_8,36,1,48,44,819465384
35,4,2,T1_SMS_8,37,5,42,127,819512616
35,4,2,T1_SMS_8,38,1,48,40,820228916
35,4,2,T1_SMS_8,39,5,42,127,820312496
35,4,2,T1_SMS_8,40,1,48,44,821086944
35,4,2,T1_SMS_8,41,5,42,127,821113304
35,4,2,T1_SMS_8,42,1,48,46,821872988
35,4,2,T1_SMS_8,43,5,42,127,821913260
35,4,2,T1_SMS_8,44,1,48,46,822670100
35,4,2,T1_SMS_8,45,5,42,127,822712696
35,4,2,T1_SMS_8,46,1,48,45,823463180
35,4,2,T1_SMS_8,47,5,42,127,823512280
35,4,2,T1_SMS_8,48,1,48,36,824283028
35,4,2,T1_SMS_8,49,5,42,127,824313136
35,4,2,T1_SMS_8,50,1,48,47,825033100
35,4,2,T1_SMS_8,51,5,42,127,825112868
35,4,2,T1_SMS_8,52,1,48,37,825842184
35,4,2,T1_SMS_8,53,5,42,127,825912676
35,4,2,T1_SMS_8,54,1,48,47,826621648
35,4,2,T1_SMS_8,55,5,42,127,826712412
35,4,2,T1_SMS_8,56,1,48,42,827453244
35,4,2,T1_SMS_8,57,5,42,127,827513144
35,4,2,T1_SMS_8,58,1,48,41,828225680
35,4,2,T1_SMS_8,59,5,42,127,828313024
35,4,2,T1_SMS_8,60,1,48,49,829029404
35,4,2,T1_SMS_8,61,5,42,127,829112908
35,4,2,T1_SMS_8,62,1,48,22,829145928
35,4,2,T1_SMS_8,63,1,48,46,829808540
35,4,2,T1_SMS_8,64,5,42,127,829912528
35,4,2,T1_SMS_8,65,1,48,38,830660788
35,4,2,T1_SMS_8,66,5,42,127,830713100
35,4,2,T1_SMS_8,67,1,48,42,831453108
35,4,2,T1_SMS_8,68,5,42,127,831512984
35,4,2,T1_SMS_8,69,1,48,27,832256060
35,4,2,T1_SMS_8,70,5,42,127,832312940
35,4,2,T1_SMS_8,71,1,48,38,833064248
35,4,2,T1_SMS_8,72,5,42,127,833112376
35,4,2,T1_SMS_8,73,1,48,38,833848500
35,4,2,T1_SMS_8,74,5,42,127,833913180
35,4,2,T1_SMS_8,75,1,48,40,834649280
35,4,2,T1_SMS_8,76,5,42,127,834712988
35,4,2,T1_SMS_8,77,1,48,40,835424724
35,4,2,T1_SMS_8,78,5,42,127,835512796
35,4,2,T1_SMS_8,79,1,48,40,836231788
35,4,2,T1_SMS_8,80,5,42,127,836312824
35,4,2,T1_SMS_8,81,1,48,42,837075204
35,4,2,T1_SMS_8,82,5,42,127,837113084
35,4,2,T1_SMS_8,83,1,48,39,837833420
35,4,2,T1_SMS_8,84,5,42,127,837912892
35,4,2,T1_SMS_8,85,1,48,37,838691876
35,4,2,T1_SMS_8,86,5,42,127,838712700
35,4,2,T1_SMS_8,87,5,42,127,839512664
35,4,2,T1_SMS_8,88,1,48,41,839519552
35,4,2,T1_SMS_8,89,5,42,127,840313616
35,4,2,T1_SMS_8,90,1,48,38,840324964
35,4,2,T1_SMS_8,91,1,48,28,841094168
35,4,2,T1_SMS_8,92,5,42,127,841112900
35,4,2,T1_SMS_8,93,1,48,41,841880736
35,4,2,T1_SMS_8,94,5,42,127,841912708
35,4,2,T1_SMS_8,95,5,42,127,842712596
35,4,2,T1_SMS_8,96,1,48,32,842735608
35,4,2,T1_SMS_8,97,1,48,29,843509672
35,4,2,T1_SMS_8,98,5,42,127,843513220
35,4,2,T1_SMS_8,99,5,42,127,844312960
35,4,2,T1_SMS_8,100,1,48,40,844319896
35,4,2,T1_SMS_8,101,1,48,46,845079968
35,4,2,T1_SMS_8,102,5,42,127,845112612
35,4,2,T1_SMS_8,103,1,48,43,845909096
35,4,2,T1_SMS_8,104,5,42,127,845912344
35,4,2,T1_SMS_8,105,5,42,127,846713084
35,4,2,T1_SMS_8,106,1,48,35,846735196
35,4,2,T1_SMS_8,107,1,48,42,847445504
35,4,2,T1_SMS_8,108,5,42,127,847512884
35,4,2,T1_SMS_8,109,5,42,127,848312700
35,4,2,T1_SMS_8,110,1,48,35,848325388
35,4,2,T1_SMS_8,111,1,48,40,849083600
35,4,2,T1_SMS_8,112,5,42,127,849112428
35,4,2,T1_SMS_8,113,1,48,41,849848848
35,4,2,T1_SMS_8,114,5,42,127,849913280
35,4,2,T1_SMS_8,115,5,42,127,850712948
35,4,2,T1_SMS_8,116,1,48,33,850738732
35,4,2,T1_SMS_8,117,1,48,43,851466188
35,4,2,T1_SMS_8,118,5,42,127,851512676
35,4,2,T1_SMS_8,119,1,48,38,852238924
35,4,2,T1_SMS_8,120,5,42,127,852312484
35,4,2,T1_SMS_8,121,1,48,41,853045764
35,4,2,T1_SMS_8,122,5,42,127,853113436
35,4,2,T1_SMS_8,123,1,48,42,853867064
35,4,2,T1_SMS_8,124,5,42,127,853913024
35,4,2,T1_SMS_8,125,1,48,43,854695892
35,4,2,T1_SMS_8,126,5,42,127,854712536
35,4,2,T1_SMS_8,127,1,48,44,855507300
35,4,2,T1_SMS_8,128,5,42,127,855512416
35,4,2,T1_SMS_8,129,1,48,42,856284292
35,4,2,T1_SMS_8,130,5,42,127,856313344
35,4,2,T1_SMS_8,131,5,42,127,857112860
35,4,2,T1_SMS_8,132,1,48,44,857125776
35,4,2,T1_SMS_8,133,1,48,24,857191456
35,4,2,T1_SMS_8,134,5,42,127,857912648
35,4,2,T1_SMS_8,135,1,48,37,857917412
35,4,2,T1_SMS_8,136,1,48,33,858678684
35,4,2,T1_SMS_8,137,5,42,127,858712376
35,4,2,T1_SMS_8,138,5,42,127,859513188
35,4,2,T1_SMS_8,139,1,48,29,859529476
35,4,2,T1_SMS_8,140,1,48,33,860268376
35,4,2,T1_SMS_8,141,5,42,127,860313064
35,4,2,T1_SMS_8,142,5,42,127,861112656
35,4,2,T1_SMS_8,143,1,48,27,861125872
35,4,2,T1_SMS_8,144,1,48,43,861880560
35,4,2,T1_SMS_8,145,5,42,127,861912308
35,4,2,T1_SMS_8,146,1,48,36,862669972
35,4,2,T1_SMS_8,147,5,42,127,862713160
35,4,2,T1_SMS_8,148,5,42,127,863513124
35,4,2,T1_SMS_8,149,1,48,37,863554316
35,4,2,T1_SMS_8,150,1,48,44,864295684
35,4,2,T1_SMS_8,151,5,42,127,864312628
35,4,2,T1_SMS_8,152,1,48,42,865042016
35,4,2,T1_SMS_8,153,5,42,127,865112360
35,4,2,T1_SMS_8,154,1,48,32,865847208
35,4,2,T1_SMS_8,155,5,42,127,865913316
35,4,2,T1_SMS_8,156,1,48,37,866668888
35,4,2,T1_SMS_8,157,5,42,127,866713048
35,4,2,T1_SMS_8,158,1,48,20,866742032
35,4,2,T1_SMS_8,159,1,48,32,867504048
35,4,2,T1_SMS_8,160,5,42,127,867512612
35,4,2,T1_SMS_8,161,5,42,127,868312500
35,4,2,T1_SMS_8,162,1,48,38,868335512
35,4,2,T1_SMS_8,163,5,42,127,869113056
35,4,2,T1_SMS_8,164,1,48,23,869228024
35,4,2,T1_SMS_8,165,1,48,42,869855224
35,4,2,T1_SMS_8,166,5,42,127,869913004
35,4,2,T1_SMS_8,167,1,48,37,870676584
35,4,2,T1_SMS_8,168,5,42,127,870712812
35,4,2,T1_SMS_8,169,1,48,42,871437044
35,4,2,T1_SMS_8,170,5,42,127,871512400
35,4,2,T1_SMS_8,171,1,48,33,872221044
35,4,2,T1_SMS_8,172,5,42,127,872313252
35,4,2,T1_SMS_8,173,1,48,36,873060072
35,4,2,T1_SMS_8,174,5,42,127,873113060
35,4,2,T1_SMS_8,175,1,48,39,873810784
35,4,2,T1_SMS_8,176,5,42,127,873912852
35,4,2,T1_SMS_8,177,1,48,39,874643756
35,4,2,T1_SMS_8,178,5,42,127,874712380
35,4,2,T1_SMS_8,179,1,48,37,875468848
35,4,2,T1_SMS_8,180,5,42,127,875513084
35,4,2,T1_SMS_8,181,1,48,36,876286900
35,4,2,T1_SMS_8,182,5,42,127,876312892
35,4,2,T1_SMS_8,183,1,48,43,877104664
35,4,2,T1_SMS_8,184,5,42,127,877112848
35,4,2,T1_SMS_8,185,1,48,18,877193396
35,4,2,T1_SMS_8,186,1,48,41,877909684
35,4,2,T1_SMS_8,187,5,42,127,877912636
35,4,2,T1_SMS_8,188,1,48,27,878661224
35,4,2,T1_SMS_8,189,5,42,127,878713120
35,4,2,T1_SMS_8,190,5,42,127,879512932
35,4,2,T1_SMS_8,191,1,48,42,879523604
35,4,2,T1_SMS_8,192,1,48,33,880282708
35,4,2,T1_SMS_8,193,5,42,127,880312584
35,4,2,T1_SMS_8,194,5,42,127,881112548
35,4,2,T1_SMS_8,195,1,48,37,881115220
35,4,2,T1_SMS_8,196,5,42,127,881913180
35,4,2,T1_SMS_8,197,1,48,37,881931636
35,4,2,T1_SMS_8,198,5,42,127,882712988
35,4,2,T1_SMS_8,199,1,48,30,882715736
35,4,2,T1_SMS_8,200,1,48,36,883482836
35,4,2,T1_SMS_8,201,5,42,127,883512568
35,4,2,T1_SMS_8,202,1,48,42,884255944
35,4,2,T1_SMS_8,203,5,42,127,884312596
35,4,2,T1_SMS_8,204,5,42,127,885113480
35,4,2,T1_SMS_8,205,1,48,32,885130216
35,4,2,T1_SMS_8,206,1,48,38,885883628
35,4,2,T1_SMS_8,207,5,42,127,885912912
35,4,2,T1_SMS_8,208,1,48,35,886689648
35,4,2,T1_SMS_8,209,5,42,127,886712720
35,4,2,T1_SMS_8,210,1,48,33,887485412
35,4,2,T1_SMS_8,211,5,42,127,887512452
35,4,2,T1_SMS_8,212,1,48,36,888290984
35,4,2,T1_SMS_8,213,5,42,127,888313380
35,4,2,T1_SMS_8,214,1,48,38,889059532
35,4,2,T1_SMS_8,215,5,42,127,889113188
35,4,2,T1_SMS_8,216,1,48,18,889157284
35,4,2,T1_SMS_8,217,5,42,127,889912684
35,4,2,T1_SMS_8,218,1,48,40,889913724
35,4,2,T1_SMS_8,219,1,48,27,890711212
35,4,2,T1_SMS_8,220,5,42,127,890713008
35,4,2,T1_SMS_8,221,1,48,39,891511308
35,4,2,T1_SMS_8,222,5,42,127,891513268
35,4,2,T1_SMS_8,223,5,42,127,892313380
35,4,2,T1_SMS_8,224,1,48,40,892324504
35,4,2,T1_SMS_8,225,5,42,127,893112596
35,4,2,T1_SMS_8,226,1,48,24,893145336
35,4,2,T1_SMS_8,227,5,42,127,893912328
35,4,2,T1_SMS_8,228,1,48,35,893932496
35,4,2,T1_SMS_8,229,5,42,127,894713332
35,4,2,T1_SMS_8,230,1,48,32,894728644
35,4,2,T1_SMS_8,231,5,42,127,895513140
35,4,2,T1_SMS_8,232,1,48,34,895542212
35,4,2,T1_SMS_8,233,1,48,38,896284184
35,4,2,T1_SMS_8,234,5,42,127,896312568
35,4,2,T1_SMS_8,235,5,42,127,897112308
35,4,2,T1_SMS_8,236,1,48,31,897192268
35,4,2,T1_SMS_8,237,5,42,127,897913184
35,4,2,T1_SMS_8,238,1,48,40,897914076
35,4,2,T1_SMS_8,239,1,48,39,898699864
35,4,2,T1_SMS_8,240,5,42,127,898713136
35,4,2,T1_SMS_8,241,1,48,38,899503488
35,4,2,T1_SMS_8,242,5,42,127,899512572
35,4,2,T1_SMS_8,0,9999,9999,9999,804310072
35,4,2,T1_SMS_8,1,9999,9999,9999,805110872
35,4,2,T1_SMS_8,2,9999,9999,9999,805910628
35,4,2,T1_SMS_8,3,9999,9999,9999,806710360
35,4,2,T1_SMS_8,4,9999,9999,9999,807510092
35,4,2,T1_SMS_8,5,9999,9999,9999,808310892
35,4,2,T1_SMS_8,6,9999,9999,9999,809110628
35,4,2,T1_SMS_8,7,9999,9999,9999,809910360
35,4,2,T1_SMS_8,8,9999,9999,9999,810710096
35,4,2,T1_SMS_8,9,9999,9999,9999,811510876
35,4,2,T1_SMS_8,10,9999,9999,9999,812310608
35,4,2,T1_SMS_8,11,9999,9999,9999,813110340
35,4,2,T1_SMS_8,12,9999,9999,9999,813910076
35,4,2,T1_SMS_8,13,9999,9999,9999,814710880
35,4,2,T1_SMS_8,14,9999,9999,9999,815510612
35,4,2,T1_SMS_8,15,9999,9999,9999,816310344
35,4,2,T1_SMS_8,16,9999,9999,9999,817110080
35,4,2,T1_SMS_8,17,9999,9999,9999,817910860
35,4,2,T1_SMS_8,18,9999,9999,9999,818710592
35,4,2,T1_SMS_8,19,9999,9999,9999,819510328
35,4,2,T1_SMS_8,20,9999,9999,9999,820310136
35,4,2,T1_SMS_8,21,9999,9999,9999,821110868
35,4,2,T1_SMS_8,22,9999,9999,9999,821910600
35,4,2,T1_SMS_8,23,9999,9999,9999,822710332
35,4,2,T1_SMS_8,24,9999,9999,9999,823510068
35,4,2,T1_SMS_8,25,9999,9999,9999,824310848
35,4,2,T1_SMS_8,26,9999,9999,9999,825110580
35,4,2,T1_SMS_8,27,9999,9999,9999,825910388
35,4,2,T1_SMS_8,28,9999,9999,9999,826710124
35,4,2,T1_SMS_8,29,9999,9999,9999,827510856
35,4,2,T1_SMS_8,30,9999,9999,9999,828310588
35,4,2,T1_SMS_8,31,9999,9999,9999,829110320
35,4,2,T1_SMS_8,32,9999,9999,9999,829910092
35,4,2,T1_SMS_8,33,9999,9999,9999,830710888
35,4,2,T1_SMS_8,34,9999,9999,9999,831510620
35,4,2,T1_SMS_8,35,9999,9999,9999,832310352
35,4,2,T1_SMS_8,36,9999,9999,9999,833110088
35,4,2,T1_SMS_8,37,9999,9999,9999,833910892
35,4,2,T1_SMS_8,38,9999,9999,9999,834710624
35,4,2,T1_SMS_8,39,9999,9999,9999,835510356
35,4,2,T1_SMS_8,40,9999,9999,9999,836310092
35,4,2,T1_SMS_8,41,9999,9999,9999,837110872
35,4,2,T1_SMS_8,42,9999,9999,9999,837910604
35,4,2,T1_SMS_8,43,9999,9999,9999,838710336
35,4,2,T1_SMS_8,44,9999,9999,9999,839510076
35,4,2,T1_SMS_8,45,9999,9999,9999,840310884
35,4,2,T1_SMS_8,46,9999,9999,9999,841110612
35,4,2,T1_SMS_8,47,9999,9999,9999,841910344
35,4,2,T1_SMS_8,48,9999,9999,9999,842710084
35,4,2,T1_SMS_8,49,9999,9999,9999,843510860
35,4,2,T1_SMS_8,50,9999,9999,9999,844310596
35,4,2,T1_SMS_8,51,9999,9999,9999,845110324
35,4,2,T1_SMS_8,52,9999,9999,9999,845910132
35,4,2,T1_SMS_8,53,9999,9999,9999,846710868
35,4,2,T1_SMS_8,54,9999,9999,9999,847510596
35,4,2,T1_SMS_8,55,9999,9999,9999,848310336
35,4,2,T1_SMS_8,56,9999,9999,9999,849110064
35,4,2,T1_SMS_8,57,9999,9999,9999,849910844
35,4,2,T1_SMS_8,58,9999,9999,9999,850710584
35,4,2,T1_SMS_8,59,9999,9999,9999,851510388
35,4,2,T1_SMS_8,60,9999,9999,9999,852310120
35,4,2,T1_SMS_8,61,9999,9999,9999,853110852
35,4,2,T1_SMS_8,62,9999,9999,9999,853910584
35,4,2,T1_SMS_8,63,9999,9999,9999,854710320
35,4,2,T1_SMS_8,64,9999,9999,9999,855510128
35,4,2,T1_SMS_8,65,9999,9999,9999,856310832
35,4,2,T1_SMS_8,66,9999,9999,9999,857110572
35,4,2,T1_SMS_8,67,9999,9999,9999,857910360
35,4,2,T1_SMS_8,68,9999,9999,9999,858710088
35,4,2,T1_SMS_8,69,9999,9999,9999,859510900
35,4,2,T1_SMS_8,70,9999,9999,9999,860310628
35,4,2,T1_SMS_8,71,9999,9999,9999,861110368
35,4,2,T1_SMS_8,72,9999,9999,9999,861910092
35,4,2,T1_SMS_8,73,9999,9999,9999,862710872
35,4,2,T1_SMS_8,74,9999,9999,9999,863510612
35,4,2,T1_SMS_8,75,9999,9999,9999,864310340
35,4,2,T1_SMS_8,76,9999,9999,9999,865110072
35,4,2,T1_SMS_8,77,9999,9999,9999,865910876
35,4,2,T1_SMS_8,78,9999,9999,9999,866710612
35,4,2,T1_SMS_8,79,9999,9999,9999,867510324
35,4,2,T1_SMS_8,80,9999,9999,9999,868310064
35,4,2,T1_SMS_8,81,9999,9999,9999,869110844
35,4,2,T1_SMS_8,82,9999,9999,9999,869910644
35,4,2,T1_SMS_8,83,9999,9999,9999,870710376
35,4,2,T1_SMS_8,84,9999,9999,9999,871510112
35,4,2,T1_SMS_8,85,9999,9999,9999,872310892
35,4,2,T1_SMS_8,86,9999,9999,9999,873110624
35,4,2,T1_SMS_8,87,9999,9999,9999,873910344
35,4,2,T1_SMS_8,88,9999,9999,9999,874710092
35,4,2,T1_SMS_8,89,9999,9999,9999,875510872
35,4,2,T1_SMS_8,90,9999,9999,9999,876310604
35,4,2,T1_SMS_8,91,9999,9999,9999,877110340
35,4,2,T1_SMS_8,92,9999,9999,9999,877910124
35,4,2,T1_SMS_8,93,9999,9999,9999,878710832
35,4,2,T1_SMS_8,94,9999,9999,9999,879510644
35,4,2,T1_SMS_8,95,9999,9999,9999,880310372
35,4,2,T1_SMS_8,96,9999,9999,9999,881110112
35,4,2,T1_SMS_8,97,9999,9999,9999,881910892
35,4,2,T1_SMS_8,98,9999,9999,9999,882710624
35,4,2,T1_SMS_8,99,9999,9999,9999,883510352
35,4,2,T1_SMS_8,100,9999,9999,9999,884310084
35,4,2,T1_SMS_8,101,9999,9999,9999,885110896
35,4,2,T1_SMS_8,102,9999,9999,9999,885910624
35,4,2,T1_SMS_8,103,9999,9999,9999,886710356
35,4,2,T1_SMS_8,104,9999,9999,9999,887510092
35,4,2,T1_SMS_8,105,9999,9999,9999,888310872
35,4,2,T1_SMS_8,106,9999,9999,9999,889110604
35,4,2,T1_SMS_8,107,9999,9999,9999,889910320
35,4,2,T1_SMS_8,108,9999,9999,9999,890710132
35,4,2,T1_SMS_8,109,9999,9999,9999,891510856
35,4,2,T1_SMS_8,110,9999,9999,9999,892310648
35,4,2,T1_SMS_8,111,9999,9999,9999,893110380
35,4,2,T1_SMS_8,112,9999,9999,9999,893910116
35,4,2,T1_SMS_8,113,9999,9999,9999,894710896
35,4,2,T1_SMS_8,114,9999,9999,9999,895510628
35,4,2,T1_SMS_8,115,9999,9999,9999,896310352
35,4,2,T1_SMS_8,116,9999,9999,9999,897110092
35,4,2,T1_SMS_8,117,9999,9999,9999,897910896
35,4,2,T1_SMS_8,118,9999,9999,9999,898710624
35,4,2,T1_SMS_8,119,9999,9999,9999,899510360
35,5,23,Ticks_Phase_5,0,5,42,127,912244172
35,5,23,Ticks_Phase_5,1,5,42,127,912743732
35,5,23,Ticks_Phase_5,2,5,42,127,913243740
35,5,23,Ticks_Phase_5,3,5,42,127,913744100
35,5,23,Ticks_Phase_5,4,1,48,44,914233664
35,5,23,Ticks_Phase_5,5,5,42,127,914243876
35,5,23,Ticks_Phase_5,6,1,48,48,914723540
35,5,23,Ticks_Phase_5,7,5,42,127,914743640
35,5,23,Ticks_Phase_5,8,5,42,127,915244604
35,5,23,Ticks_Phase_5,9,1,48,43,915248920
35,5,23,Ticks_Phase_5,10,1,48,45,915718044
35,5,23,Ticks_Phase_5,11,5,42,127,915743988
35,5,23,Ticks_Phase_5,12,1,48,47,916215560
35,5,23,Ticks_Phase_5,13,5,42,127,916243676
35,5,23,Ticks_Phase_5,14,1,48,46,916727984
35,5,23,Ticks_Phase_5,15,5,42,127,916743664
35,5,23,Ticks_Phase_5,16,1,48,41,917236504
35,5,23,Ticks_Phase_5,17,5,42,127,917244324
35,5,23,Ticks_Phase_5,18,1,48,47,917716796
35,5,23,Ticks_Phase_5,19,5,42,127,917743940
35,5,23,Ticks_Phase_5,20,5,42,127,918243560
35,5,23,Ticks_Phase_5,21,1,48,44,918264652
35,5,23,Ticks_Phase_5,22,1,48,37,918735500
35,5,23,Ticks_Phase_5,23,5,42,127,918744516
35,5,23,Ticks_Phase_5,24,1,48,36,919220952
35,5,23,Ticks_Phase_5,25,5,42,127,919254388
35,5,23,Ticks_Phase_5,26,1,48,42,919718924
35,5,23,Ticks_Phase_5,27,5,42,127,919754224
35,5,23,Ticks_Phase_5,28,5,42,127,920253844
35,5,23,Ticks_Phase_5,29,1,48,40,920263708
35,5,23,Ticks_Phase_5,30,1,48,37,920719264
35,5,23,Ticks_Phase_5,31,5,42,127,920753452
35,5,23,Ticks_Phase_5,32,1,48,45,921243376
35,5,23,Ticks_Phase_5,33,5,42,127,921254484
35,5,23,Ticks_Phase_5,34,1,48,35,921712580
35,5,23,Ticks_Phase_5,35,5,42,127,921753948
35,5,23,Ticks_Phase_5,36,1,48,46,922251200
35,5,23,Ticks_Phase_5,37,5,42,127,922253860
35,5,23,Ticks_Phase_5,38,1,48,40,922722448
35,5,23,Ticks_Phase_5,39,5,42,127,922754372
35,5,23,Ticks_Phase_5,40,1,48,45,923222628
35,5,23,Ticks_Phase_5,41,5,42,127,923264464
35,5,23,Ticks_Phase_5,42,1,48,37,923735740
35,5,23,Ticks_Phase_5,43,5,42,127,923764228
35,5,23,Ticks_Phase_5,44,1,48,39,924218252
35,5,23,Ticks_Phase_5,45,5,42,127,924263692
35,5,23,Ticks_Phase_5,46,1,48,44,924747148
35,5,23,Ticks_Phase_5,47,5,42,127,924763456
35,5,23,Ticks_Phase_5,48,1,48,36,925248708
35,5,23,Ticks_Phase_5,49,5,42,127,925264312
35,5,23,Ticks_Phase_5,50,1,48,40,925696428
35,5,23,Ticks_Phase_5,51,5,42,127,925764076
35,5,23,Ticks_Phase_5,52,1,48,39,926263096
35,5,23,Ticks_Phase_5,53,5,42,127,926264812
35,5,23,Ticks_Phase_5,54,1,48,38,926731064
35,5,23,Ticks_Phase_5,55,5,42,127,926764352
35,5,23,Ticks_Phase_5,56,5,42,127,927253788
35,5,23,Ticks_Phase_5,57,1,48,42,927261616
35,5,23,Ticks_Phase_5,58,1,48,36,927748196
35,5,23,Ticks_Phase_5,59,5,42,127,927753468
35,5,23,Ticks_Phase_5,60,1,48,36,928225792
35,5,23,Ticks_Phase_5,61,5,42,127,928254352
35,5,23,Ticks_Phase_5,62,1,48,43,928741348
35,5,23,Ticks_Phase_5,63,5,42,127,928754116
35,5,23,Ticks_Phase_5,64,1,48,33,929223900
35,5,23,Ticks_Phase_5,65,5,42,127,929253728
35,5,23,Ticks_Phase_5,66,1,48,41,929709128
35,5,23,Ticks_Phase_5,67,5,42,127,929753416
35,5,23,Ticks_Phase_5,68,1,48,42,930212116
35,5,23,Ticks_Phase_5,69,5,42,127,930254152
35,5,23,Ticks_Phase_5,70,1,48,37,930716068
35,5,23,Ticks_Phase_5,71,5,42,127,930754136
35,5,23,Ticks_Phase_5,72,1,48,41,931178456
35,5,23,Ticks_Phase_5,73,5,42,127,931253828
35,5,23,Ticks_Phase_5,74,1,48,43,931731160
35,5,23,Ticks_Phase_5,75,5,42,127,931754412
35,5,23,Ticks_Phase_5,76,1,48,43,932224492
35,5,23,Ticks_Phase_5,77,5,42,127,932254172
35,5,23,Ticks_Phase_5,78,1,48,43,932725152
35,5,23,Ticks_Phase_5,79,5,42,127,932753792
35,5,23,Ticks_Phase_5,80,1,48,32,933220792
35,5,23,Ticks_Phase_5,81,5,42,127,933253480
35,5,23,Ticks_Phase_5,82,1,48,47,933708252
35,5,23,Ticks_Phase_5,83,5,42,127,933754212
35,5,23,Ticks_Phase_5,84,1,48,40,934238596
35,5,23,Ticks_Phase_5,85,5,42,127,934254052
35,5,23,Ticks_Phase_5,86,1,48,43,934705536
35,5,23,Ticks_Phase_5,87,5,42,127,934753592
35,5,23,Ticks_Phase_5,88,1,48,39,935233380
35,5,23,Ticks_Phase_5,89,5,42,127,935254300
35,5,23,Ticks_Phase_5,90,1,48,36,935722932
35,5,23,Ticks_Phase_5,91,5,42,127,935754264
35,5,23,Ticks_Phase_5,92,5,42,127,936263996
35,5,23,Ticks_Phase_5,93,1,48,46,936272508
35,5,23,Ticks_Phase_5,94,1,48,41,936709352
35,5,23,Ticks_Phase_5,95,5,42,127,936763972
35,5,23,Ticks_Phase_5,96,5,42,127,937263372
35,5,23,Ticks_Phase_5,97,1,48,35,937279820
35,5,23,Ticks_Phase_5,98,1,48,40,937746392
35,5,23,Ticks_Phase_5,99,5,42,127,937764172
35,5,23,Ticks_Phase_5,100,5,42,127,938264092
35,5,23,Ticks_Phase_5,101,1,48,46,938274932
35,5,23,Ticks_Phase_5,102,1,48,42,938755056
35,5,23,Ticks_Phase_5,103,5,42,127,938763628
35,5,23,Ticks_Phase_5,104,5,42,127,939264368
35,5,23,Ticks_Phase_5,105,1,48,35,939278720
35,5,23,Ticks_Phase_5,106,1,48,38,939739076
35,5,23,Ticks_Phase_5,107,5,42,127,939764048
35,5,23,Ticks_Phase_5,108,1,48,37,940236824
35,5,23,Ticks_Phase_5,109,5,42,127,940263736
35,5,23,Ticks_Phase_5,110,1,48,37,940706856
35,5,23,Ticks_Phase_5,111,5,42,127,940763500
35,5,23,Ticks_Phase_5,112,1,48,44,941260532
35,5,23,Ticks_Phase_5,113,5,42,127,941264236
35,5,23,Ticks_Phase_5,114,1,48,40,941752816
35,5,23,Ticks_Phase_5,115,5,42,127,941763924
35,5,23,Ticks_Phase_5,116,1,48,45,942229804
35,5,23,Ticks_Phase_5,117,5,42,127,942263688
35,5,23,Ticks_Phase_5,118,1,48,38,942750160
35,5,23,Ticks_Phase_5,119,5,42,127,942764348
35,5,23,Ticks_Phase_5,120,1,48,37,943229256
35,5,23,Ticks_Phase_5,121,5,42,127,943264108
35,5,23,Ticks_Phase_5,122,5,42,127,943763880
35,5,23,Ticks_Phase_5,123,1,48,32,943772776
35,5,23,Ticks_Phase_5,124,1,48,40,944231100
35,5,23,Ticks_Phase_5,125,5,42,127,944284080
35,5,23,Ticks_Phase_5,126,1,48,40,944725304
35,5,23,Ticks_Phase_5,127,5,42,127,944783696
35,5,23,Ticks_Phase_5,128,1,48,37,945272124
35,5,23,Ticks_Phase_5,129,5,42,127,945283532
35,5,23,Ticks_Phase_5,130,1,48,37,945755632
35,5,23,Ticks_Phase_5,131,5,42,127,945784044
35,5,23,Ticks_Phase_5,132,1,48,36,946272700
35,5,23,Ticks_Phase_5,133,5,42,127,946284028
35,5,23,Ticks_Phase_5,134,1,48,24,946774928
35,5,23,Ticks_Phase_5,135,5,42,127,946783868
35,5,23,Ticks_Phase_5,136,1,48,37,947255496
35,5,23,Ticks_Phase_5,137,5,42,127,947284352
35,5,23,Ticks_Phase_5,138,1,48,38,947761328
35,5,23,Ticks_Phase_5,139,5,42,127,947784040
35,5,23,Ticks_Phase_5,140,1,48,36,948248200
35,5,23,Ticks_Phase_5,141,5,42,127,948283656
35,5,23,Ticks_Phase_5,142,1,48,36,948745644
35,5,23,Ticks_Phase_5,143,5,42,127,948783568
35,5,23,Ticks_Phase_5,144,1,48,35,949245408
35,5,23,Ticks_Phase_5,145,5,42,127,949284228
35,5,23,Ticks_Phase_5,146,1,48,35,949768536
35,5,23,Ticks_Phase_5,147,5,42,127,949783916
35,5,23,Ticks_Phase_5,148,1,48,39,950239164
35,5,23,Ticks_Phase_5,149,5,42,127,950283756
35,5,23,Ticks_Phase_5,150,1,48,36,950732568
35,5,23,Ticks_Phase_5,151,5,42,127,950784488
35,5,23,Ticks_Phase_5,152,1,48,33,951233604
35,5,23,Ticks_Phase_5,153,5,42,127,951284104
35,5,23,Ticks_Phase_5,154,1,48,35,951715392
35,5,23,Ticks_Phase_5,155,5,42,127,951783720
35,5,23,Ticks_Phase_5,156,1,48,37,952209608
35,5,23,Ticks_Phase_5,157,5,42,127,952283408
35,5,23,Ticks_Phase_5,158,1,48,38,952714692
35,5,23,Ticks_Phase_5,159,5,42,127,952763848
35,5,23,Ticks_Phase_5,160,1,48,42,953216924
35,5,23,Ticks_Phase_5,161,5,42,127,953263464
35,5,23,Ticks_Phase_5,162,1,48,38,953720880
35,5,23,Ticks_Phase_5,163,5,42,127,953764272
35,5,23,Ticks_Phase_5,164,1,48,38,954249172
35,5,23,Ticks_Phase_5,165,5,42,127,954263812
35,5,23,Ticks_Phase_5,166,1,48,28,954729692
35,5,23,Ticks_Phase_5,167,5,42,127,954763648
35,5,23,Ticks_Phase_5,168,5,42,127,955264392
35,5,23,Ticks_Phase_5,169,1,48,34,955278520
35,5,23,Ticks_Phase_5,170,1,48,36,955733716
35,5,23,Ticks_Phase_5,171,5,42,127,955764520
35,5,23,Ticks_Phase_5,172,5,42,127,956263840
35,5,23,Ticks_Phase_5,173,1,48,32,956274900
35,5,23,Ticks_Phase_5,174,1,48,35,956729692
35,5,23,Ticks_Phase_5,175,5,42,127,956763376
35,5,23,Ticks_Phase_5,176,1,48,35,957213960
35,5,23,Ticks_Phase_5,177,5,42,127,957264456
35,5,23,Ticks_Phase_5,178,1,48,27,957730632
35,5,23,Ticks_Phase_5,179,5,42,127,957763844
35,5,23,Ticks_Phase_5,180,1,48,34,958196552
35,5,23,Ticks_Phase_5,181,5,42,127,958263684
35,5,23,Ticks_Phase_5,182,1,48,35,958694820
35,5,23,Ticks_Phase_5,183,5,42,127,958764420
35,5,23,Ticks_Phase_5,184,1,48,37,959233228
35,5,23,Ticks_Phase_5,185,5,42,127,959264256
35,5,23,Ticks_Phase_5,186,1,48,38,959718460
35,5,23,Ticks_Phase_5,187,5,42,127,959763792
35,5,23,Ticks_Phase_5,188,1,48,38,960237016
35,5,23,Ticks_Phase_5,189,5,42,127,960263556
35,5,23,Ticks_Phase_5,190,5,42,127,960714348
35,5,23,Ticks_Phase_5,191,1,48,25,960741744
35,5,23,Ticks_Phase_5,192,1,48,36,961180524
35,5,23,Ticks_Phase_5,193,5,42,127,961213736
35,5,23,Ticks_Phase_5,194,5,42,127,961713432
35,5,23,Ticks_Phase_5,195,1,48,35,961726664
35,5,23,Ticks_Phase_5,196,1,48,31,962202080
35,5,23,Ticks_Phase_5,197,5,42,127,962214236
35,5,23,Ticks_Phase_5,198,1,48,38,962677200
35,5,23,Ticks_Phase_5,199,5,42,127,962714296
35,5,23,Ticks_Phase_5,200,1,48,32,963178536
35,5,23,Ticks_Phase_5,201,5,42,127,963213688
35,5,23,Ticks_Phase_5,202,1,48,40,963637084
35,5,23,Ticks_Phase_5,203,5,42,127,963714276
35,5,23,Ticks_Phase_5,204,5,42,127,964224524
35,5,23,Ticks_Phase_5,205,1,48,36,964228172
35,5,23,Ticks_Phase_5,206,1,48,34,964705156
35,5,23,Ticks_Phase_5,207,5,42,127,964724280
35,5,23,Ticks_Phase_5,208,1,48,33,965191712
35,5,23,Ticks_Phase_5,209,5,42,127,965224268
35,5,23,Ticks_Phase_5,210,1,48,34,965719508
35,5,23,Ticks_Phase_5,211,5,42,127,965723436
35,5,23,Ticks_Phase_5,212,1,48,40,966221784
35,5,23,Ticks_Phase_5,213,5,42,127,966224368
35,5,23,Ticks_Phase_5,214,1,48,38,966706360
35,5,23,Ticks_Phase_5,215,5,42,127,966724208
35,5,23,Ticks_Phase_5,216,5,42,127,967223604
35,5,23,Ticks_Phase_5,217,1,48,33,967227244
35,5,23,Ticks_Phase_5,218,1,48,27,967701156
35,5,23,Ticks_Phase_5,219,5,42,127,967724408
35,5,23,Ticks_Phase_5,220,5,42,127,968224100
35,5,23,Ticks_Phase_5,221,1,48,28,968278764
35,5,23,Ticks_Phase_5,222,1,48,31,968704880
35,5,23,Ticks_Phase_5,223,5,42,127,968723932
35,5,23,Ticks_Phase_5,224,1,48,33,969246808
35,5,23,Ticks_Phase_5,225,5,42,127,969273648
35,5,23,Ticks_Phase_5,226,1,48,35,969726276
35,5,23,Ticks_Phase_5,227,5,42,127,969773408
35,5,23,Ticks_Phase_5,228,1,48,36,970263332
35,5,23,Ticks_Phase_5,229,5,42,127,970274144
35,5,23,Ticks_Phase_5,230,1,48,30,970722280
35,5,23,Ticks_Phase_5,231,5,42,127,970774056
35,5,23,Ticks_Phase_5,232,1,48,35,971217028
35,5,23,Ticks_Phase_5,233,5,42,127,971273520
35,5,23,Ticks_Phase_5,234,1,48,36,971720452
35,5,23,Ticks_Phase_5,235,5,42,127,971774256
35,5,23,Ticks_Phase_5,236,1,48,33,972254144
35,5,23,Ticks_Phase_5,237,5,42,127,972274092
35,5,23,Ticks_Phase_5,238,1,48,32,972735560
35,5,23,Ticks_Phase_5,239,5,42,127,972774004
35,5,23,Ticks_Phase_5,240,1,48,42,973252400
35,5,23,Ticks_Phase_5,241,5,42,127,973273396
35,5,23,Ticks_Phase_5,242,1,48,30,973764068
35,5,23,Ticks_Phase_5,243,5,42,127,973774128
35,5,23,Ticks_Phase_5,244,1,48,40,974245036
35,5,23,Ticks_Phase_5,245,5,42,127,974274040
35,5,23,Ticks_Phase_5,246,1,48,20,974751916
35,5,23,Ticks_Phase_5,247,5,42,127,974773580
35,5,23,Ticks_Phase_5,248,1,48,40,975265744
35,5,23,Ticks_Phase_5,249,5,42,127,975274388
35,5,23,Ticks_Phase_5,250,1,48,33,975765212
35,5,23,Ticks_Phase_5,251,5,42,127,975774004
35,5,23,Ticks_Phase_5,252,1,48,29,976269616
35,5,23,Ticks_Phase_5,253,5,42,127,976273988
35,5,23,Ticks_Phase_5,254,1,48,32,976768928
35,5,23,Ticks_Phase_5,255,5,42,127,976773676
35,5,23,Ticks_Phase_5,256,1,48,30,977255964
35,5,23,Ticks_Phase_5,257,5,42,127,977274192
35,5,23,Ticks_Phase_5,258,1,48,36,977738696
35,5,23,Ticks_Phase_5,259,5,42,127,977874436
35,5,23,Ticks_Phase_5,260,1,48,40,978326712
35,5,23,Ticks_Phase_5,261,5,42,127,978374068
35,5,23,Ticks_Phase_5,262,1,48,40,978809544
35,5,23,Ticks_Phase_5,263,5,42,127,978873828
35,5,23,Ticks_Phase_5,264,1,48,32,979317248
35,5,23,Ticks_Phase_5,265,5,42,127,979373368
35,5,23,Ticks_Phase_5,266,1,48,38,979804880
35,5,23,Ticks_Phase_5,267,5,42,127,979874180
35,5,23,Ticks_Phase_5,268,1,48,41,980314604
35,5,23,Ticks_Phase_5,269,5,42,127,980373868
35,5,23,Ticks_Phase_5,270,1,48,43,980825896
35,5,23,Ticks_Phase_5,271,5,42,127,980873856
35,5,23,Ticks_Phase_5,272,1,48,41,981335104
35,5,23,Ticks_Phase_5,273,5,42,127,981374368
35,5,23,Ticks_Phase_5,274,1,48,39,981841048
35,5,23,Ticks_Phase_5,275,5,42,127,981874132
35,5,23,Ticks_Phase_5,276,1,48,38,982331220
35,5,23,Ticks_Phase_5,277,5,42,127,982373672
35,5,23,Ticks_Phase_5,278,1,48,42,982825672
35,5,23,Ticks_Phase_5,279,5,42,127,982873732
35,5,23,Ticks_Phase_5,280,1,48,36,983333604
35,5,23,Ticks_Phase_5,281,5,42,127,983374144
35,5,23,Ticks_Phase_5,282,1,48,37,983830664
35,5,23,Ticks_Phase_5,283,5,42,127,983873832
35,5,23,Ticks_Phase_5,284,1,48,38,984337696
35,5,23,Ticks_Phase_5,285,5,42,127,984373672
35,5,23,Ticks_Phase_5,286,1,48,32,984835660
35,5,23,Ticks_Phase_5,287,5,42,127,984874552
35,5,23,Ticks_Phase_5,288,1,48,45,985358412
35,5,23,Ticks_Phase_5,289,5,42,127,985373944
35,5,23,Ticks_Phase_5,290,1,48,32,985828288
35,5,23,Ticks_Phase_5,291,5,42,127,985873708
35,5,23,Ticks_Phase_5,292,1,48,35,986315104
35,5,23,Ticks_Phase_5,293,5,42,127,986373468
35,5,23,Ticks_Phase_5,294,1,48,43,986826320
35,5,23,Ticks_Phase_5,295,5,42,127,986874428
35,5,23,Ticks_Phase_5,296,5,42,127,987273628
35,5,23,Ticks_Phase_5,297,1,48,39,987325420
35,5,23,Ticks_Phase_5,298,5,42,127,987774436
35,5,23,Ticks_Phase_5,299,1,48,43,987776376
35,5,23,Ticks_Phase_5,300,5,42,127,988273976
35,5,23,Ticks_Phase_5,301,1,48,36,988280912
35,5,23,Ticks_Phase_5,302,1,48,42,988736836
35,5,23,Ticks_Phase_5,303,5,42,127,988773808
35,5,23,Ticks_Phase_5,304,1,48,37,989221016
35,5,23,Ticks_Phase_5,305,5,42,127,989273420
35,5,23,Ticks_Phase_5,306,5,42,127,989774136
35,5,23,Ticks_Phase_5,307,1,48,42,989790384
35,5,23,Ticks_Phase_5,308,1,48,37,990257684
35,5,23,Ticks_Phase_5,309,5,42,127,990273892
35,5,23,Ticks_Phase_5,310,1,48,41,990731992
35,5,23,Ticks_Phase_5,311,5,42,127,990773656
35,5,23,Ticks_Phase_5,312,1,48,40,991261396
35,5,23,Ticks_Phase_5,313,5,42,127,991274464
35,5,23,Ticks_Phase_5,314,1,48,42,991758476
35,5,23,Ticks_Phase_5,315,5,42,127,991774008
35,5,23,Ticks_Phase_5,316,1,48,42,992222072
35,5,23,Ticks_Phase_5,317,5,42,127,992273772
35,5,23,Ticks_Phase_5,318,1,48,37,992717340
35,5,23,Ticks_Phase_5,319,5,42,127,992773388
35,5,23,Ticks_Phase_5,320,1,48,38,993241820
35,5,23,Ticks_Phase_5,321,5,42,127,993274344
35,5,23,Ticks_Phase_5,322,1,48,38,993734536
35,5,23,Ticks_Phase_5,323,5,42,127,993774032
35,5,23,Ticks_Phase_5,324,1,48,41,994233180
35,5,23,Ticks_Phase_5,325,5,42,127,994273648
35,5,23,Ticks_Phase_5,326,1,48,38,994711904
35,5,23,Ticks_Phase_5,327,5,42,127,994774308
35,5,23,Ticks_Phase_5,328,1,48,40,995205668
35,5,23,Ticks_Phase_5,329,5,42,127,995274444
35,5,23,Ticks_Phase_5,330,1,48,41,995703564
35,5,23,Ticks_Phase_5,331,5,42,127,995773760
35,5,23,Ticks_Phase_5,332,1,48,37,996220912
35,5,23,Ticks_Phase_5,333,5,42,127,996273372
35,5,23,Ticks_Phase_5,334,1,48,39,996748016
35,5,23,Ticks_Phase_5,335,5,42,127,996774404
35,5,23,Ticks_Phase_5,0,9999,9999,9999,912241736
35,5,23,Ticks_Phase_5,1,9999,9999,9999,912741444
35,5,23,Ticks_Phase_5,2,9999,9999,9999,913241156
35,5,23,Ticks_Phase_5,3,9999,9999,9999,913741884
35,5,23,Ticks_Phase_5,4,9999,9999,9999,914241588
35,5,23,Ticks_Phase_5,5,9999,9999,9999,914741352
35,5,23,Ticks_Phase_5,6,9999,9999,9999,915242092
35,5,23,Ticks_Phase_5,7,9999,9999,9999,915741776
35,5,23,Ticks_Phase_5,8,9999,9999,9999,916241464
35,5,23,Ticks_Phase_5,9,9999,9999,9999,916741228
35,5,23,Ticks_Phase_5,10,9999,9999,9999,917241964
35,5,23,Ticks_Phase_5,11,9999,9999,9999,917741652
35,5,23,Ticks_Phase_5,12,9999,9999,9999,918241348
35,5,23,Ticks_Phase_5,13,9999,9999,9999,918742080
35,5,23,Ticks_Phase_5,14,9999,9999,9999,919252024
35,5,23,Ticks_Phase_5,15,9999,9999,9999,919751788
35,5,23,Ticks_Phase_5,16,9999,9999,9999,920251484
35,5,23,Ticks_Phase_5,17,9999,9999,9999,920751164
35,5,23,Ticks_Phase_5,18,9999,9999,9999,921251900
35,5,23,Ticks_Phase_5,19,9999,9999,9999,921751660
35,5,23,Ticks_Phase_5,20,9999,9999,9999,922251348
35,5,23,Ticks_Phase_5,21,9999,9999,9999,922752084
35,5,23,Ticks_Phase_5,22,9999,9999,9999,923262028
35,5,23,Ticks_Phase_5,23,9999,9999,9999,923761720
35,5,23,Ticks_Phase_5,24,9999,9999,9999,924261480
35,5,23,Ticks_Phase_5,25,9999,9999,9999,924761168
35,5,23,Ticks_Phase_5,26,9999,9999,9999,925261880
35,5,23,Ticks_Phase_5,27,9999,9999,9999,925761640
35,5,23,Ticks_Phase_5,28,9999,9999,9999,926261336
35,5,23,Ticks_Phase_5,29,9999,9999,9999,926762064
35,5,23,Ticks_Phase_5,30,9999,9999,9999,927251572
35,5,23,Ticks_Phase_5,31,9999,9999,9999,927751256
35,5,23,Ticks_Phase_5,32,9999,9999,9999,928251992
35,5,23,Ticks_Phase_5,33,9999,9999,9999,928751680
35,5,23,Ticks_Phase_5,34,9999,9999,9999,929251444
35,5,23,Ticks_Phase_5,35,9999,9999,9999,929751132
35,5,23,Ticks_Phase_5,36,9999,9999,9999,930251864
35,5,23,Ticks_Phase_5,37,9999,9999,9999,930751552
35,5,23,Ticks_Phase_5,38,9999,9999,9999,931251316
35,5,23,Ticks_Phase_5,39,9999,9999,9999,931752052
35,5,23,Ticks_Phase_5,40,9999,9999,9999,932251740
35,5,23,Ticks_Phase_5,41,9999,9999,9999,932751428
35,5,23,Ticks_Phase_5,42,9999,9999,9999,933251192
35,5,23,Ticks_Phase_5,43,9999,9999,9999,933751928
35,5,23,Ticks_Phase_5,44,9999,9999,9999,934251616
35,5,23,Ticks_Phase_5,45,9999,9999,9999,934751304
35,5,23,Ticks_Phase_5,46,9999,9999,9999,935252088
35,5,23,Ticks_Phase_5,47,9999,9999,9999,935751752
35,5,23,Ticks_Phase_5,48,9999,9999,9999,936261708
35,5,23,Ticks_Phase_5,49,9999,9999,9999,936761464
35,5,23,Ticks_Phase_5,50,9999,9999,9999,937261160
35,5,23,Ticks_Phase_5,51,9999,9999,9999,937761888
35,5,23,Ticks_Phase_5,52,9999,9999,9999,938261584
35,5,23,Ticks_Phase_5,53,9999,9999,9999,938761340
35,5,23,Ticks_Phase_5,54,9999,9999,9999,939262008
35,5,23,Ticks_Phase_5,55,9999,9999,9999,939761764
35,5,23,Ticks_Phase_5,56,9999,9999,9999,940261452
35,5,23,Ticks_Phase_5,57,9999,9999,9999,940761212
35,5,23,Ticks_Phase_5,58,9999,9999,9999,941261948
35,5,23,Ticks_Phase_5,59,9999,9999,9999,941761636
35,5,23,Ticks_Phase_5,60,9999,9999,9999,942261328
35,5,23,Ticks_Phase_5,61,9999,9999,9999,942762060
35,5,23,Ticks_Phase_5,62,9999,9999,9999,943261824
35,5,23,Ticks_Phase_5,63,9999,9999,9999,943761520
35,5,23,Ticks_Phase_5,64,9999,9999,9999,944281720
35,5,23,Ticks_Phase_5,65,9999,9999,9999,944781408
35,5,23,Ticks_Phase_5,66,9999,9999,9999,945281096
35,5,23,Ticks_Phase_5,67,9999,9999,9999,945781832
35,5,23,Ticks_Phase_5,68,9999,9999,9999,946281596
35,5,23,Ticks_Phase_5,69,9999,9999,9999,946781284
35,5,23,Ticks_Phase_5,70,9999,9999,9999,947281992
35,5,23,Ticks_Phase_5,71,9999,9999,9999,947781756
35,5,23,Ticks_Phase_5,72,9999,9999,9999,948281444
35,5,23,Ticks_Phase_5,73,9999,9999,9999,948781132
35,5,23,Ticks_Phase_5,74,9999,9999,9999,949281868
35,5,23,Ticks_Phase_5,75,9999,9999,9999,949781632
35,5,23,Ticks_Phase_5,76,9999,9999,9999,950281320
35,5,23,Ticks_Phase_5,77,9999,9999,9999,950782056
35,5,23,Ticks_Phase_5,78,9999,9999,9999,951281744
35,5,23,Ticks_Phase_5,79,9999,9999,9999,951781432
35,5,23,Ticks_Phase_5,80,9999,9999,9999,952281192
35,5,23,Ticks_Phase_5,81,9999,9999,9999,952761412
35,5,23,Ticks_Phase_5,82,9999,9999,9999,953261176
35,5,23,Ticks_Phase_5,83,9999,9999,9999,953761912
35,5,23,Ticks_Phase_5,84,9999,9999,9999,954261600
35,5,23,Ticks_Phase_5,85,9999,9999,9999,954761288
35,5,23,Ticks_Phase_5,86,9999,9999,9999,955262028
35,5,23,Ticks_Phase_5,87,9999,9999,9999,955761784
35,5,23,Ticks_Phase_5,88,9999,9999,9999,956261480
35,5,23,Ticks_Phase_5,89,9999,9999,9999,956761164
35,5,23,Ticks_Phase_5,90,9999,9999,9999,957261948
35,5,23,Ticks_Phase_5,91,9999,9999,9999,957761632
35,5,23,Ticks_Phase_5,92,9999,9999,9999,958261324
35,5,23,Ticks_Phase_5,93,9999,9999,9999,958762056
35,5,23,Ticks_Phase_5,94,9999,9999,9999,959261820
35,5,23,Ticks_Phase_5,95,9999,9999,9999,959761508
35,5,23,Ticks_Phase_5,96,9999,9999,9999,960261196
35,5,23,Ticks_Phase_5,97,9999,9999,9999,960711764
35,5,23,Ticks_Phase_5,98,9999,9999,9999,961211452
35,5,23,Ticks_Phase_5,99,9999,9999,9999,961711220
35,5,23,Ticks_Phase_5,100,9999,9999,9999,962211948
35,5,23,Ticks_Phase_5,101,9999,9999,9999,962711636
35,5,23,Ticks_Phase_5,102,9999,9999,9999,963211328
35,5,23,Ticks_Phase_5,103,9999,9999,9999,963712064
35,5,23,Ticks_Phase_5,104,9999,9999,9999,964222016
35,5,23,Ticks_Phase_5,105,9999,9999,9999,964721772
35,5,23,Ticks_Phase_5,106,9999,9999,9999,965221460
35,5,23,Ticks_Phase_5,107,9999,9999,9999,965721148
35,5,23,Ticks_Phase_5,108,9999,9999,9999,966221936
35,5,23,Ticks_Phase_5,109,9999,9999,9999,966721624
35,5,23,Ticks_Phase_5,110,9999,9999,9999,967221316
35,5,23,Ticks_Phase_5,111,9999,9999,9999,967722044
35,5,23,Ticks_Phase_5,112,9999,9999,9999,968221812
35,5,23,Ticks_Phase_5,113,9999,9999,9999,968721496
35,5,23,Ticks_Phase_5,114,9999,9999,9999,969271360
35,5,23,Ticks_Phase_5,115,9999,9999,9999,969771124
35,5,23,Ticks_Phase_5,116,9999,9999,9999,970271856
35,5,23,Ticks_Phase_5,117,9999,9999,9999,970771544
35,5,23,Ticks_Phase_5,118,9999,9999,9999,971271236
35,5,23,Ticks_Phase_5,119,9999,9999,9999,971771968
35,5,23,Ticks_Phase_5,120,9999,9999,9999,972271732
35,5,23,Ticks_Phase_5,121,9999,9999,9999,972771420
35,5,23,Ticks_Phase_5,122,9999,9999,9999,973271108
35,5,23,Ticks_Phase_5,123,9999,9999,9999,973771844
35,5,23,Ticks_Phase_5,124,9999,9999,9999,974271604
35,5,23,Ticks_Phase_5,125,9999,9999,9999,974771296
35,5,23,Ticks_Phase_5,126,9999,9999,9999,975272028
35,5,23,Ticks_Phase_5,127,9999,9999,9999,975771716
35,5,23,Ticks_Phase_5,128,9999,9999,9999,976271480
35,5,23,Ticks_Phase_5,129,9999,9999,9999,976771168
35,5,23,Ticks_Phase_5,130,9999,9999,9999,977271904
35,5,23,Ticks_Phase_5,131,9999,9999,9999,977872000
35,5,23,Ticks_Phase_5,132,9999,9999,9999,978371704
35,5,23,Ticks_Phase_5,133,9999,9999,9999,978871396
35,5,23,Ticks_Phase_5,134,9999,9999,9999,979371084
35,5,23,Ticks_Phase_5,135,9999,9999,9999,979871820
35,5,23,Ticks_Phase_5,136,9999,9999,9999,980371580
35,5,23,Ticks_Phase_5,137,9999,9999,9999,980871272
35,5,23,Ticks_Phase_5,138,9999,9999,9999,981372008
35,5,23,Ticks_Phase_5,139,9999,9999,9999,981871696
35,5,23,Ticks_Phase_5,140,9999,9999,9999,982371384
35,5,23,Ticks_Phase_5,141,9999,9999,9999,982871148
35,5,23,Ticks_Phase_5,142,9999,9999,9999,983371856
35,5,23,Ticks_Phase_5,143,9999,9999,9999,983871548
35,5,23,Ticks_Phase_5,144,9999,9999,9999,984371308
35,5,23,Ticks_Phase_5,145,9999,9999,9999,984872044
35,5,23,Ticks_Phase_5,146,9999,9999,9999,985371732
35,5,23,Ticks_Phase_5,147,9999,9999,9999,985871420
35,5,23,Ticks_Phase_5,148,9999,9999,9999,986371184
35,5,23,Ticks_Phase_5,149,9999,9999,9999,986871916
35,5,23,Ticks_Phase_5,150,9999,9999,9999,987271264
35,5,23,Ticks_Phase_5,151,9999,9999,9999,987772000
35,5,23,Ticks_Phase_5,152,9999,9999,9999,988271688
35,5,23,Ticks_Phase_5,153,9999,9999,9999,988771444
35,5,23,Ticks_Phase_5,154,9999,9999,9999,989271132
35,5,23,Ticks_Phase_5,155,9999,9999,9999,989771848
35,5,23,Ticks_Phase_5,156,9999,9999,9999,990271604
35,5,23,Ticks_Phase_5,157,9999,9999,9999,990771296
35,5,23,Ticks_Phase_5,158,9999,9999,9999,991272028
35,5,23,Ticks_Phase_5,159,9999,9999,9999,991771720
35,5,23,Ticks_Phase_5,160,9999,9999,9999,992271484
35,5,23,Ticks_Phase_5,161,9999,9999,9999,992771176
35,5,23,Ticks_Phase_5,162,9999,9999,9999,993271908
35,5,23,Ticks_Phase_5,163,9999,9999,9999,993771596
35,5,23,Ticks_Phase_5,164,9999,9999,9999,994271288
35,5,23,Ticks_Phase_5,165,9999,9999,9999,994772024
35,5,23,Ticks_Phase_5,166,9999,9999,9999,995271784
35,5,23,Ticks_Phase_5,167,9999,9999,9999,995771472
35,5,23,Ticks_Phase_5,168,9999,9999,9999,996271160
35,5,23,Ticks_Phase_5,169,9999,9999,9999,996771896
35,6,22,Ticks_Phase_8,0,5,42,127,1010055524
35,6,22,Ticks_Phase_8,1,5,42,127,1010856232
35,6,22,Ticks_Phase_8,2,5,42,127,1011655964
35,6,22,Ticks_Phase_8,3,1,48,46,1011715628
35,6,22,Ticks_Phase_8,4,1,48,49,1012422684
35,6,22,Ticks_Phase_8,5,5,42,127,1012455968
35,6,22,Ticks_Phase_8,6,1,48,41,1013199856
35,6,22,Ticks_Phase_8,7,5,42,127,1013255680
35,6,22,Ticks_Phase_8,8,1,48,35,1014008864
35,6,22,Ticks_Phase_8,9,5,42,127,1014056292
35,6,22,Ticks_Phase_8,10,1,48,36,1014790964
35,6,22,Ticks_Phase_8,11,5,42,127,1014855928
35,6,22,Ticks_Phase_8,12,1,48,38,1015578776
35,6,22,Ticks_Phase_8,13,5,42,127,1015655888
35,6,22,Ticks_Phase_8,14,1,48,37,1016354080
35,6,22,Ticks_Phase_8,15,5,42,127,1016455584
35,6,22,Ticks_Phase_8,16,1,48,40,1017217984
35,6,22,Ticks_Phase_8,17,5,42,127,1017256356
35,6,22,Ticks_Phase_8,18,1,48,41,1018018448
35,6,22,Ticks_Phase_8,19,5,42,127,1018055992
35,6,22,Ticks_Phase_8,20,1,48,37,1018790744
35,6,22,Ticks_Phase_8,21,5,42,127,1018855928
35,6,22,Ticks_Phase_8,22,1,48,32,1019589556
35,6,22,Ticks_Phase_8,23,5,42,127,1019655492
35,6,22,Ticks_Phase_8,24,1,48,38,1020424624
35,6,22,Ticks_Phase_8,25,5,42,127,1020456696
35,6,22,Ticks_Phase_8,26,1,48,35,1021219460
35,6,22,Ticks_Phase_8,27,5,42,127,1021256036
35,6,22,Ticks_Phase_8,28,1,48,36,1021968176
35,6,22,Ticks_Phase_8,29,5,42,127,1022055848
35,6,22,Ticks_Phase_8,30,1,48,32,1022798220
35,6,22,Ticks_Phase_8,31,5,42,127,1022855560
35,6,22,Ticks_Phase_8,32,1,48,32,1023607916
35,6,22,Ticks_Phase_8,33,5,42,127,1023656468
35,6,22,Ticks_Phase_8,34,1,48,36,1024395940
35,6,22,Ticks_Phase_8,35,5,42,127,1024455952
35,6,22,Ticks_Phase_8,36,1,48,40,1025161944
35,6,22,Ticks_Phase_8,37,5,42,127,1025255740
35,6,22,Ticks_Phase_8,38,1,48,33,1025957472
35,6,22,Ticks_Phase_8,39,5,42,127,1026055512
35,6,22,Ticks_Phase_8,40,1,48,34,1026781664
35,6,22,Ticks_Phase_8,41,5,42,127,1026856508
35,6,22,Ticks_Phase_8,42,1,48,35,1027539592
35,6,22,Ticks_Phase_8,43,5,42,127,1027655980
35,6,22,Ticks_Phase_8,44,1,48,38,1028429688
35,6,22,Ticks_Phase_8,45,5,42,127,1028455808
35,6,22,Ticks_Phase_8,46,1,48,34,1029201640
35,6,22,Ticks_Phase_8,47,5,42,127,1029255596
35,6,22,Ticks_Phase_8,48,1,48,35,1030014768
35,6,22,Ticks_Phase_8,49,5,42,127,1030056280
35,6,22,Ticks_Phase_8,50,1,48,35,1030775016
35,6,22,Ticks_Phase_8,51,5,42,127,1030856288
35,6,22,Ticks_Phase_8,52,1,48,34,1031563252
35,6,22,Ticks_Phase_8,53,5,42,127,1031655764
35,6,22,Ticks_Phase_8,54,1,48,43,1032349272
35,6,22,Ticks_Phase_8,55,5,42,127,1032455476
35,6,22,Ticks_Phase_8,56,1,48,35,1033166284
35,6,22,Ticks_Phase_8,57,5,42,127,1033256252
35,6,22,Ticks_Phase_8,58,1,48,39,1033967192
35,6,22,Ticks_Phase_8,59,5,42,127,1034035444
35,6,22,Ticks_Phase_8,60,1,48,30,1034792360
35,6,22,Ticks_Phase_8,61,5,42,127,1034836228
35,6,22,Ticks_Phase_8,62,1,48,37,1035621080
35,6,22,Ticks_Phase_8,63,5,42,127,1035636236
35,6,22,Ticks_Phase_8,64,1,48,35,1036384028
35,6,22,Ticks_Phase_8,65,5,42,127,1036435948
35,6,22,Ticks_Phase_8,66,5,42,127,1037235592
35,6,22,Ticks_Phase_8,67,1,48,33,1037292476
35,6,22,Ticks_Phase_8,68,1,48,37,1038015656
35,6,22,Ticks_Phase_8,69,5,42,127,1038036272
35,6,22,Ticks_Phase_8,70,1,48,42,1038751700
35,6,22,Ticks_Phase_8,71,5,42,127,1038836056
35,6,22,Ticks_Phase_8,72,1,48,32,1039583848
35,6,22,Ticks_Phase_8,73,5,42,127,1039635844
35,6,22,Ticks_Phase_8,74,1,48,42,1040359592
35,6,22,Ticks_Phase_8,75,5,42,127,1040435704
35,6,22,Ticks_Phase_8,76,1,48,38,1041109872
35,6,22,Ticks_Phase_8,77,5,42,127,1041236548
35,6,22,Ticks_Phase_8,78,1,48,35,1041927636
35,6,22,Ticks_Phase_8,79,5,42,127,1042036036
35,6,22,Ticks_Phase_8,80,1,48,41,1042791096
35,6,22,Ticks_Phase_8,81,5,42,127,1042836060
35,6,22,Ticks_Phase_8,82,1,48,27,1043618220
35,6,22,Ticks_Phase_8,83,5,42,127,1043635472
35,6,22,Ticks_Phase_8,84,1,48,40,1044410812
35,6,22,Ticks_Phase_8,85,5,42,127,1044436232
35,6,22,Ticks_Phase_8,86,1,48,23,1045198396
35,6,22,Ticks_Phase_8,87,5,42,127,1045236016
35,6,22,Ticks_Phase_8,88,1,48,36,1046002368
35,6,22,Ticks_Phase_8,89,5,42,127,1046036100
35,6,22,Ticks_Phase_8,90,1,48,35,1046753028
35,6,22,Ticks_Phase_8,91,5,42,127,1046835740
35,6,22,Ticks_Phase_8,92,1,48,38,1047516876
35,6,22,Ticks_Phase_8,93,5,42,127,1047636284
35,6,22,Ticks_Phase_8,94,1,48,36,1048390052
35,6,22,Ticks_Phase_8,95,5,42,127,1048455484
35,6,22,Ticks_Phase_8,96,1,48,25,1049164908
35,6,22,Ticks_Phase_8,97,5,42,127,1049256392
35,6,22,Ticks_Phase_8,98,1,48,31,1049997444
35,6,22,Ticks_Phase_8,99,5,42,127,1050056028
35,6,22,Ticks_Phase_8,100,1,48,34,1050855296
35,6,22,Ticks_Phase_8,101,5,42,127,1050857088
35,6,22,Ticks_Phase_8,102,1,48,36,1051616932
35,6,22,Ticks_Phase_8,103,5,42,127,1051655824
35,6,22,Ticks_Phase_8,104,1,48,31,1052417244
35,6,22,Ticks_Phase_8,105,5,42,127,1052456284
35,6,22,Ticks_Phase_8,106,1,48,33,1053207368
35,6,22,Ticks_Phase_8,107,5,42,127,1053255996
35,6,22,Ticks_Phase_8,108,1,48,28,1053990224
35,6,22,Ticks_Phase_8,109,5,42,127,1054055808
35,6,22,Ticks_Phase_8,110,1,48,29,1054794064
35,6,22,Ticks_Phase_8,111,5,42,127,1054855740
35,6,22,Ticks_Phase_8,112,5,42,127,1055656432
35,6,22,Ticks_Phase_8,113,1,48,41,1056418464
35,6,22,Ticks_Phase_8,114,5,42,127,1056456012
35,6,22,Ticks_Phase_8,115,1,48,37,1057202296
35,6,22,Ticks_Phase_8,116,5,42,127,1057255724
35,6,22,Ticks_Phase_8,117,1,48,38,1057988756
35,6,22,Ticks_Phase_8,118,5,42,127,1058055508
35,6,22,Ticks_Phase_8,119,1,48,35,1058807192
35,6,22,Ticks_Phase_8,120,5,42,127,1058856268
35,6,22,Ticks_Phase_8,121,1,48,36,1059561888
35,6,22,Ticks_Phase_8,122,5,42,127,1059657164
35,6,22,Ticks_Phase_8,123,1,48,29,1060348572
35,6,22,Ticks_Phase_8,124,5,42,127,1060455924
35,6,22,Ticks_Phase_8,125,1,48,34,1061169328
35,6,22,Ticks_Phase_8,126,5,42,127,1061295404
35,6,22,Ticks_Phase_8,127,1,48,37,1061942676
35,6,22,Ticks_Phase_8,128,5,42,127,1062096460
35,6,22,Ticks_Phase_8,129,1,48,31,1062756724
35,6,22,Ticks_Phase_8,130,5,42,127,1062895948
35,6,22,Ticks_Phase_8,131,1,48,27,1063626524
35,6,22,Ticks_Phase_8,132,5,42,127,1063695676
35,6,22,Ticks_Phase_8,133,1,48,27,1064470044
35,6,22,Ticks_Phase_8,134,5,42,127,1064495464
35,6,22,Ticks_Phase_8,135,5,42,127,1065296400
35,6,22,Ticks_Phase_8,136,1,48,17,1065310460
35,6,22,Ticks_Phase_8,137,1,48,38,1066039368
35,6,22,Ticks_Phase_8,138,5,42,127,1066096108
35,6,22,Ticks_Phase_8,139,1,48,28,1066825824
35,6,22,Ticks_Phase_8,140,5,42,127,1066895820
35,6,22,Ticks_Phase_8,141,1,48,41,1067604964
35,6,22,Ticks_Phase_8,142,5,42,127,1067695456
35,6,22,Ticks_Phase_8,143,1,48,27,1068305272
35,6,22,Ticks_Phase_8,144,5,42,127,1068496424
35,6,22,Ticks_Phase_8,145,1,48,33,1069252684
35,6,22,Ticks_Phase_8,146,5,42,127,1069296076
35,6,22,Ticks_Phase_8,147,1,48,27,1070023556
35,6,22,Ticks_Phase_8,148,5,42,127,1070095788
35,6,22,Ticks_Phase_8,149,1,48,27,1070819156
35,6,22,Ticks_Phase_8,150,5,42,127,1070895424
35,6,22,Ticks_Phase_8,151,1,48,38,1071637524
35,6,22,Ticks_Phase_8,152,5,42,127,1071696208
35,6,22,Ticks_Phase_8,153,1,48,33,1072395068
35,6,22,Ticks_Phase_8,154,5,42,127,1072496056
35,6,22,Ticks_Phase_8,155,1,48,31,1073239212
35,6,22,Ticks_Phase_8,156,5,42,127,1073295856
35,6,22,Ticks_Phase_8,157,1,48,32,1074038548
35,6,22,Ticks_Phase_8,158,5,42,127,1074095568
35,6,22,Ticks_Phase_8,159,1,48,28,1074775804
35,6,22,Ticks_Phase_8,160,5,42,127,1074856412
35,6,22,Ticks_Phase_8,161,5,42,127,1075656204
35,6,22,Ticks_Phase_8,162,1,48,26,1075657172
35,6,22,Ticks_Phase_8,163,1,48,27,1076442992
35,6,22,Ticks_Phase_8,164,5,42,127,1076455908
35,6,22,Ticks_Phase_8,165,1,48,28,1077189392
35,6,22,Ticks_Phase_8,166,5,42,127,1077255548
35,6,22,Ticks_Phase_8,167,1,48,31,1078001084
35,6,22,Ticks_Phase_8,168,5,42,127,1078056380
35,6,22,Ticks_Phase_8,169,1,48,31,1078781324
35,6,22,Ticks_Phase_8,170,5,42,127,1078856020
35,6,22,Ticks_Phase_8,171,1,48,25,1079592196
35,6,22,Ticks_Phase_8,172,5,42,127,1079655904
35,6,22,Ticks_Phase_8,173,5,42,127,1080455624
35,6,22,Ticks_Phase_8,174,1,48,30,1081210164
35,6,22,Ticks_Phase_8,175,5,42,127,1081256252
35,6,22,Ticks_Phase_8,176,1,48,37,1082012192
35,6,22,Ticks_Phase_8,177,5,42,127,1082056036
35,6,22,Ticks_Phase_8,178,1,48,35,1082788024
35,6,22,Ticks_Phase_8,179,5,42,127,1082855748
35,6,22,Ticks_Phase_8,180,1,48,23,1083557704
35,6,22,Ticks_Phase_8,181,5,42,127,1083655520
35,6,22,Ticks_Phase_8,182,1,48,34,1084365280
35,6,22,Ticks_Phase_8,183,5,42,127,1084456292
35,6,22,Ticks_Phase_8,184,1,48,35,1085173820
35,6,22,Ticks_Phase_8,185,5,42,127,1085256152
35,6,22,Ticks_Phase_8,186,1,48,34,1085986192
35,6,22,Ticks_Phase_8,187,5,42,127,1086055664
35,6,22,Ticks_Phase_8,188,1,48,40,1086823900
35,6,22,Ticks_Phase_8,189,5,42,127,1086855676
35,6,22,Ticks_Phase_8,190,5,42,127,1087576760
35,6,22,Ticks_Phase_8,191,1,48,35,1087611184
35,6,22,Ticks_Phase_8,192,1,48,32,1088312900
35,6,22,Ticks_Phase_8,193,5,42,127,1088386576
35,6,22,Ticks_Phase_8,194,5,42,127,1089196480
35,6,22,Ticks_Phase_8,195,1,48,16,1089203872
35,6,22,Ticks_Phase_8,196,1,48,34,1089909284
35,6,22,Ticks_Phase_8,197,5,42,127,1089996184
35,6,22,Ticks_Phase_8,198,1,48,38,1090694772
35,6,22,Ticks_Phase_8,199,5,42,127,1090795808
35,6,22,Ticks_Phase_8,200,1,48,27,1091493276
35,6,22,Ticks_Phase_8,201,5,42,127,1091595668
35,6,22,Ticks_Phase_8,202,1,48,32,1092257424
35,6,22,Ticks_Phase_8,203,5,42,127,1092396576
35,6,22,Ticks_Phase_8,204,1,48,35,1093038712
35,6,22,Ticks_Phase_8,205,5,42,127,1093196288
35,6,22,Ticks_Phase_8,206,1,48,29,1093827540
35,6,22,Ticks_Phase_8,207,5,42,127,1093995776
35,6,22,Ticks_Phase_8,208,1,48,38,1094696076
35,6,22,Ticks_Phase_8,209,5,42,127,1094795636
35,6,22,Ticks_Phase_8,210,1,48,41,1095508760
35,6,22,Ticks_Phase_8,211,5,42,127,1095596488
35,6,22,Ticks_Phase_8,212,1,48,31,1096296416
35,6,22,Ticks_Phase_8,213,5,42,127,1096396476
35,6,22,Ticks_Phase_8,214,1,48,41,1097088640
35,6,22,Ticks_Phase_8,215,5,42,127,1097195820
35,6,22,Ticks_Phase_8,216,1,48,30,1097878240
35,6,22,Ticks_Phase_8,217,5,42,127,1097995608
35,6,22,Ticks_Phase_8,218,1,48,32,1098682816
35,6,22,Ticks_Phase_8,219,5,42,127,1098796440
35,6,22,Ticks_Phase_8,220,1,48,40,1099516684
35,6,22,Ticks_Phase_8,221,5,42,127,1099596556
35,6,22,Ticks_Phase_8,222,1,48,23,1100352780
35,6,22,Ticks_Phase_8,223,5,42,127,1100395896
35,6,22,Ticks_Phase_8,224,1,48,24,1101212348
35,6,22,Ticks_Phase_8,225,5,42,127,1101275440
35,6,22,Ticks_Phase_8,226,1,48,40,1101962860
35,6,22,Ticks_Phase_8,227,5,42,127,1102076480
35,6,22,Ticks_Phase_8,228,1,48,36,1102778604
35,6,22,Ticks_Phase_8,229,5,42,127,1102876192
35,6,22,Ticks_Phase_8,230,1,48,28,1103605352
35,6,22,Ticks_Phase_8,231,5,42,127,1103675844
35,6,22,Ticks_Phase_8,232,1,48,29,1104406184
35,6,22,Ticks_Phase_8,233,5,42,127,1104475432
35,6,22,Ticks_Phase_8,234,5,42,127,1105276272
35,6,22,Ticks_Phase_8,235,1,48,21,1105278940
35,6,22,Ticks_Phase_8,236,5,42,127,1106076356
35,6,22,Ticks_Phase_8,237,1,48,35,1106077548
35,6,22,Ticks_Phase_8,238,1,48,31,1106806020
35,6,22,Ticks_Phase_8,239,5,42,127,1106875688
35,6,22,Ticks_Phase_8,240,1,48,33,1107602948
35,6,22,Ticks_Phase_8,241,5,42,127,1107675548
35,6,22,Ticks_Phase_8,242,1,48,33,1108413520
35,6,22,Ticks_Phase_8,243,5,42,127,1108476308
35,6,22,Ticks_Phase_8,244,1,48,28,1109245888
35,6,22,Ticks_Phase_8,245,5,42,127,1109276244
35,6,22,Ticks_Phase_8,246,1,48,37,1110025532
35,6,22,Ticks_Phase_8,247,5,42,127,1110075732
35,6,22,Ticks_Phase_8,248,1,48,36,1110802920
35,6,22,Ticks_Phase_8,249,5,42,127,1110875468
35,6,22,Ticks_Phase_8,250,1,48,39,1111587888
35,6,22,Ticks_Phase_8,251,5,42,127,1111676300
35,6,22,Ticks_Phase_8,252,1,48,19,1112429400
35,6,22,Ticks_Phase_8,253,5,42,127,1112476012
35,6,22,Ticks_Phase_8,254,5,42,127,1113275732
35,6,22,Ticks_Phase_8,255,1,48,35,1113930048
35,6,22,Ticks_Phase_8,256,5,42,127,1114075372
35,6,22,Ticks_Phase_8,257,1,48,39,1114819272
35,6,22,Ticks_Phase_8,258,5,42,127,1115036112
35,6,22,Ticks_Phase_8,259,5,42,127,1115835996
35,6,22,Ticks_Phase_8,260,1,48,39,1115958112
35,6,22,Ticks_Phase_8,261,1,48,32,1116570820
35,6,22,Ticks_Phase_8,262,5,42,127,1116635476
35,6,22,Ticks_Phase_8,263,1,48,31,1117418232
35,6,22,Ticks_Phase_8,264,5,42,127,1117436232
35,6,22,Ticks_Phase_8,265,1,48,36,1118171216
35,6,22,Ticks_Phase_8,266,5,42,127,1118235872
35,6,22,Ticks_Phase_8,267,1,48,31,1118989424
35,6,22,Ticks_Phase_8,268,5,42,127,1119035956
35,6,22,Ticks_Phase_8,269,1,48,33,1119767868
35,6,22,Ticks_Phase_8,270,5,42,127,1119835620
35,6,22,Ticks_Phase_8,271,1,48,29,1120529380
35,6,22,Ticks_Phase_8,272,5,42,127,1120636140
35,6,22,Ticks_Phase_8,273,1,48,30,1121357800
35,6,22,Ticks_Phase_8,274,5,42,127,1121436088
35,6,22,Ticks_Phase_8,275,1,48,34,1122148828
35,6,22,Ticks_Phase_8,276,5,42,127,1122235876
35,6,22,Ticks_Phase_8,277,1,48,32,1122992196
35,6,22,Ticks_Phase_8,278,5,42,127,1123035588
35,6,22,Ticks_Phase_8,279,1,48,24,1123750716
35,6,22,Ticks_Phase_8,280,5,42,127,1123836196
35,6,22,Ticks_Phase_8,281,1,48,32,1124597092
35,6,22,Ticks_Phase_8,282,5,42,127,1124635984
35,6,22,Ticks_Phase_8,283,1,48,41,1125382564
35,6,22,Ticks_Phase_8,284,5,42,127,1125435844
35,6,22,Ticks_Phase_8,285,1,48,24,1126155996
35,6,22,Ticks_Phase_8,286,5,42,127,1126235652
35,6,22,Ticks_Phase_8,287,1,48,18,1126996172
35,6,22,Ticks_Phase_8,288,5,42,127,1127036264
35,6,22,Ticks_Phase_8,289,1,48,33,1127800740
35,6,22,Ticks_Phase_8,290,5,42,127,1127835972
35,6,22,Ticks_Phase_8,291,1,48,40,1128559048
35,6,22,Ticks_Phase_8,292,5,42,127,1128635688
35,6,22,Ticks_Phase_8,293,1,48,39,1129369692
35,6,22,Ticks_Phase_8,294,5,42,127,1129435696
35,6,22,Ticks_Phase_8,295,5,42,127,1130075680
35,6,22,Ticks_Phase_8,296,1,48,42,1130130848
35,6,22,Ticks_Phase_8,297,1,48,35,1130787712
35,6,22,Ticks_Phase_8,298,5,42,127,1130876432
35,6,22,Ticks_Phase_8,299,1,48,39,1131622716
35,6,22,Ticks_Phase_8,300,5,42,127,1131675996
35,6,22,Ticks_Phase_8,301,1,48,36,1132389484
35,6,22,Ticks_Phase_8,302,5,42,127,1132475632
35,6,22,Ticks_Phase_8,303,1,48,40,1133163816
35,6,22,Ticks_Phase_8,304,5,42,127,1133275552
35,6,22,Ticks_Phase_8,305,1,48,40,1133997148
35,6,22,Ticks_Phase_8,306,5,42,127,1134076400
35,6,22,Ticks_Phase_8,307,1,48,43,1134770788
35,6,22,Ticks_Phase_8,308,5,42,127,1134875948
35,6,22,Ticks_Phase_8,309,1,48,38,1135543776
35,6,22,Ticks_Phase_8,310,5,42,127,1135675736
35,6,22,Ticks_Phase_8,311,1,48,37,1136361676
35,6,22,Ticks_Phase_8,312,5,42,127,1136475620
35,6,22,Ticks_Phase_8,313,1,48,29,1137198008
35,6,22,Ticks_Phase_8,314,5,42,127,1137276244
35,6,22,Ticks_Phase_8,315,1,48,43,1137978400
35,6,22,Ticks_Phase_8,316,5,42,127,1138076240
35,6,22,Ticks_Phase_8,317,1,48,37,1138795812
35,6,22,Ticks_Phase_8,318,5,42,127,1138875816
35,6,22,Ticks_Phase_8,319,1,48,34,1139550436
35,6,22,Ticks_Phase_8,320,5,42,127,1139675364
35,6,22,Ticks_Phase_8,321,1,48,37,1140403696
35,6,22,Ticks_Phase_8,322,5,42,127,1140476136
35,6,22,Ticks_Phase_8,323,1,48,40,1141210960
35,6,22,Ticks_Phase_8,324,5,42,127,1141276144
35,6,22,Ticks_Phase_8,325,1,48,35,1142063172
35,6,22,Ticks_Phase_8,326,5,42,127,1142075636
35,6,22,Ticks_Phase_8,327,1,48,27,1142857820
35,6,22,Ticks_Phase_8,328,5,42,127,1142875372
35,6,22,Ticks_Phase_8,329,1,48,39,1143623888
35,6,22,Ticks_Phase_8,330,5,42,127,1143676280
35,6,22,Ticks_Phase_8,331,1,48,32,1144421216
35,6,22,Ticks_Phase_8,332,5,42,127,1144476068
35,6,22,Ticks_Phase_8,333,1,48,33,1145229840
35,6,22,Ticks_Phase_8,334,5,42,127,1145275628
35,6,22,Ticks_Phase_8,0,9999,9999,9999,1010053236
35,6,22,Ticks_Phase_8,1,9999,9999,9999,1010853944
35,6,22,Ticks_Phase_8,2,9999,9999,9999,1011653752
35,6,22,Ticks_Phase_8,3,9999,9999,9999,1012453456
35,6,22,Ticks_Phase_8,4,9999,9999,9999,1013253244
35,6,22,Ticks_Phase_8,5,9999,9999,9999,1014054004
35,6,22,Ticks_Phase_8,6,9999,9999,9999,1014853716
35,6,22,Ticks_Phase_8,7,9999,9999,9999,1015653452
35,6,22,Ticks_Phase_8,8,9999,9999,9999,1016453220
35,6,22,Ticks_Phase_8,9,9999,9999,9999,1017253996
35,6,22,Ticks_Phase_8,10,9999,9999,9999,1018053708
35,6,22,Ticks_Phase_8,11,9999,9999,9999,1018853492
35,6,22,Ticks_Phase_8,12,9999,9999,9999,1019653204
35,6,22,Ticks_Phase_8,13,9999,9999,9999,1020453964
35,6,22,Ticks_Phase_8,14,9999,9999,9999,1021253752
35,6,22,Ticks_Phase_8,15,9999,9999,9999,1022053488
35,6,22,Ticks_Phase_8,16,9999,9999,9999,1022853200
35,6,22,Ticks_Phase_8,17,9999,9999,9999,1023653956
35,6,22,Ticks_Phase_8,18,9999,9999,9999,1024453740
35,6,22,Ticks_Phase_8,19,9999,9999,9999,1025253452
35,6,22,Ticks_Phase_8,20,9999,9999,9999,1026053224
35,6,22,Ticks_Phase_8,21,9999,9999,9999,1026853996
35,6,22,Ticks_Phase_8,22,9999,9999,9999,1027653692
35,6,22,Ticks_Phase_8,23,9999,9999,9999,1028453444
35,6,22,Ticks_Phase_8,24,9999,9999,9999,1029253232
35,6,22,Ticks_Phase_8,25,9999,9999,9999,1030053996
35,6,22,Ticks_Phase_8,26,9999,9999,9999,1030853704
35,6,22,Ticks_Phase_8,27,9999,9999,9999,1031653492
35,6,22,Ticks_Phase_8,28,9999,9999,9999,1032453188
35,6,22,Ticks_Phase_8,29,9999,9999,9999,1033253964
35,6,22,Ticks_Phase_8,30,9999,9999,9999,1034033232
35,6,22,Ticks_Phase_8,31,9999,9999,9999,1034834016
35,6,22,Ticks_Phase_8,32,9999,9999,9999,1035633728
35,6,22,Ticks_Phase_8,33,9999,9999,9999,1036433512
35,6,22,Ticks_Phase_8,34,9999,9999,9999,1037233232
35,6,22,Ticks_Phase_8,35,9999,9999,9999,1038033984
35,6,22,Ticks_Phase_8,36,9999,9999,9999,1038833772
35,6,22,Ticks_Phase_8,37,9999,9999,9999,1039633484
35,6,22,Ticks_Phase_8,38,9999,9999,9999,1040433268
35,6,22,Ticks_Phase_8,39,9999,9999,9999,1041234036
35,6,22,Ticks_Phase_8,40,9999,9999,9999,1042033748
35,6,22,Ticks_Phase_8,41,9999,9999,9999,1042833476
35,6,22,Ticks_Phase_8,42,9999,9999,9999,1043633260
35,6,22,Ticks_Phase_8,43,9999,9999,9999,1044434020
35,6,22,Ticks_Phase_8,44,9999,9999,9999,1045233732
35,6,22,Ticks_Phase_8,45,9999,9999,9999,1046033516
35,6,22,Ticks_Phase_8,46,9999,9999,9999,1046833228
35,6,22,Ticks_Phase_8,47,9999,9999,9999,1047634000
35,6,22,Ticks_Phase_8,48,9999,9999,9999,1048453196
35,6,22,Ticks_Phase_8,49,9999,9999,9999,1049253956
35,6,22,Ticks_Phase_8,50,9999,9999,9999,1050053744
35,6,22,Ticks_Phase_8,51,9999,9999,9999,1050853460
35,6,22,Ticks_Phase_8,52,9999,9999,9999,1051653240
35,6,22,Ticks_Phase_8,53,9999,9999,9999,1052454000
35,6,22,Ticks_Phase_8,54,9999,9999,9999,1053253712
35,6,22,Ticks_Phase_8,55,9999,9999,9999,1054053448
35,6,22,Ticks_Phase_8,56,9999,9999,9999,1054853232
35,6,22,Ticks_Phase_8,57,9999,9999,9999,1055653996
35,6,22,Ticks_Phase_8,58,9999,9999,9999,1056453724
35,6,22,Ticks_Phase_8,59,9999,9999,9999,1057253436
35,6,22,Ticks_Phase_8,60,9999,9999,9999,1058053224
35,6,22,Ticks_Phase_8,61,9999,9999,9999,1058853980
35,6,22,Ticks_Phase_8,62,9999,9999,9999,1059653696
35,6,22,Ticks_Phase_8,63,9999,9999,9999,1060453488
35,6,22,Ticks_Phase_8,64,9999,9999,9999,1061293116
35,6,22,Ticks_Phase_8,65,9999,9999,9999,1062093952
35,6,22,Ticks_Phase_8,66,9999,9999,9999,1062893660
35,6,22,Ticks_Phase_8,67,9999,9999,9999,1063693392
35,6,22,Ticks_Phase_8,68,9999,9999,9999,1064493176
35,6,22,Ticks_Phase_8,69,9999,9999,9999,1065293892
35,6,22,Ticks_Phase_8,70,9999,9999,9999,1066093672
35,6,22,Ticks_Phase_8,71,9999,9999,9999,1066893384
35,6,22,Ticks_Phase_8,72,9999,9999,9999,1067693168
35,6,22,Ticks_Phase_8,73,9999,9999,9999,1068493912
35,6,22,Ticks_Phase_8,74,9999,9999,9999,1069293640
35,6,22,Ticks_Phase_8,75,9999,9999,9999,1070093428
35,6,22,Ticks_Phase_8,76,9999,9999,9999,1070893140
35,6,22,Ticks_Phase_8,77,9999,9999,9999,1071693920
35,6,22,Ticks_Phase_8,78,9999,9999,9999,1072493632
35,6,22,Ticks_Phase_8,79,9999,9999,9999,1073293420
35,6,22,Ticks_Phase_8,80,9999,9999,9999,1074093132
35,6,22,Ticks_Phase_8,81,9999,9999,9999,1074853976
35,6,22,Ticks_Phase_8,82,9999,9999,9999,1075653696
35,6,22,Ticks_Phase_8,83,9999,9999,9999,1076453476
35,6,22,Ticks_Phase_8,84,9999,9999,9999,1077253188
35,6,22,Ticks_Phase_8,85,9999,9999,9999,1078053948
35,6,22,Ticks_Phase_8,86,9999,9999,9999,1078853732
35,6,22,Ticks_Phase_8,87,9999,9999,9999,1079653468
35,6,22,Ticks_Phase_8,88,9999,9999,9999,1080453188
35,6,22,Ticks_Phase_8,89,9999,9999,9999,1081253964
35,6,22,Ticks_Phase_8,90,9999,9999,9999,1082053752
35,6,22,Ticks_Phase_8,91,9999,9999,9999,1082853460
35,6,22,Ticks_Phase_8,92,9999,9999,9999,1083653232
35,6,22,Ticks_Phase_8,93,9999,9999,9999,1084454004
35,6,22,Ticks_Phase_8,94,9999,9999,9999,1085253716
35,6,22,Ticks_Phase_8,95,9999,9999,9999,1086053452
35,6,22,Ticks_Phase_8,96,9999,9999,9999,1086853240
35,6,22,Ticks_Phase_8,97,9999,9999,9999,1087574100
35,6,22,Ticks_Phase_8,98,9999,9999,9999,1088384064
35,6,22,Ticks_Phase_8,99,9999,9999,9999,1089194040
35,6,22,Ticks_Phase_8,100,9999,9999,9999,1089993824
35,6,22,Ticks_Phase_8,101,9999,9999,9999,1090793536
35,6,22,Ticks_Phase_8,102,9999,9999,9999,1091593308
35,6,22,Ticks_Phase_8,103,9999,9999,9999,1092394064
35,6,22,Ticks_Phase_8,104,9999,9999,9999,1093193852
35,6,22,Ticks_Phase_8,105,9999,9999,9999,1093993564
35,6,22,Ticks_Phase_8,106,9999,9999,9999,1094793324
35,6,22,Ticks_Phase_8,107,9999,9999,9999,1095594048
35,6,22,Ticks_Phase_8,108,9999,9999,9999,1096393820
35,6,22,Ticks_Phase_8,109,9999,9999,9999,1097193532
35,6,22,Ticks_Phase_8,110,9999,9999,9999,1097993316
35,6,22,Ticks_Phase_8,111,9999,9999,9999,1098794076
35,6,22,Ticks_Phase_8,112,9999,9999,9999,1099593808
35,6,22,Ticks_Phase_8,113,9999,9999,9999,1100393536
35,6,22,Ticks_Phase_8,114,9999,9999,9999,1101273152
35,6,22,Ticks_Phase_8,115,9999,9999,9999,1102073972
35,6,22,Ticks_Phase_8,116,9999,9999,9999,1102873684
35,6,22,Ticks_Phase_8,117,9999,9999,9999,1103673412
35,6,22,Ticks_Phase_8,118,9999,9999,9999,1104473148
35,6,22,Ticks_Phase_8,119,9999,9999,9999,1105273912
35,6,22,Ticks_Phase_8,120,9999,9999,9999,1106073700
35,6,22,Ticks_Phase_8,121,9999,9999,9999,1106873404
35,6,22,Ticks_Phase_8,122,9999,9999,9999,1107673188
35,6,22,Ticks_Phase_8,123,9999,9999,9999,1108473948
35,6,22,Ticks_Phase_8,124,9999,9999,9999,1109273660
35,6,22,Ticks_Phase_8,125,9999,9999,9999,1110073448
35,6,22,Ticks_Phase_8,126,9999,9999,9999,1110873184
35,6,22,Ticks_Phase_8,127,9999,9999,9999,1111673940
35,6,22,Ticks_Phase_8,128,9999,9999,9999,1112473724
35,6,22,Ticks_Phase_8,129,9999,9999,9999,1113273444
35,6,22,Ticks_Phase_8,130,9999,9999,9999,1114073156
35,6,22,Ticks_Phase_8,131,9999,9999,9999,1115033676
35,6,22,Ticks_Phase_8,132,9999,9999,9999,1115833412
35,6,22,Ticks_Phase_8,133,9999,9999,9999,1116633192
35,6,22,Ticks_Phase_8,134,9999,9999,9999,1117433948
35,6,22,Ticks_Phase_8,135,9999,9999,9999,1118233660
35,6,22,Ticks_Phase_8,136,9999,9999,9999,1119033448
35,6,22,Ticks_Phase_8,137,9999,9999,9999,1119833184
35,6,22,Ticks_Phase_8,138,9999,9999,9999,1120633928
35,6,22,Ticks_Phase_8,139,9999,9999,9999,1121433728
35,6,22,Ticks_Phase_8,140,9999,9999,9999,1122233440
35,6,22,Ticks_Phase_8,141,9999,9999,9999,1123033152
35,6,22,Ticks_Phase_8,142,9999,9999,9999,1123833908
35,6,22,Ticks_Phase_8,143,9999,9999,9999,1124633696
35,6,22,Ticks_Phase_8,144,9999,9999,9999,1125433408
35,6,22,Ticks_Phase_8,145,9999,9999,9999,1126233144
35,6,22,Ticks_Phase_8,146,9999,9999,9999,1127033976
35,6,22,Ticks_Phase_8,147,9999,9999,9999,1127833688
35,6,22,Ticks_Phase_8,148,9999,9999,9999,1128633400
35,6,22,Ticks_Phase_8,149,9999,9999,9999,1129433184
35,6,22,Ticks_Phase_8,150,9999,9999,9999,1130073172
35,6,22,Ticks_Phase_8,151,9999,9999,9999,1130873924
35,6,22,Ticks_Phase_8,152,9999,9999,9999,1131673708
35,6,22,Ticks_Phase_8,153,9999,9999,9999,1132473420
35,6,22,Ticks_Phase_8,154,9999,9999,9999,1133273192
35,6,22,Ticks_Phase_8,155,9999,9999,9999,1134073968
35,6,22,Ticks_Phase_8,156,9999,9999,9999,1134873660
35,6,22,Ticks_Phase_8,157,9999,9999,9999,1135673448
35,6,22,Ticks_Phase_8,158,9999,9999,9999,1136473184
35,6,22,Ticks_Phase_8,159,9999,9999,9999,1137273956
35,6,22,Ticks_Phase_8,160,9999,9999,9999,1138073656
35,6,22,Ticks_Phase_8,161,9999,9999,9999,1138873456
35,6,22,Ticks_Phase_8,162,9999,9999,9999,1139673152
35,6,22,Ticks_Phase_8,163,9999,9999,9999,1140473924
35,6,22,Ticks_Phase_8,164,9999,9999,9999,1141273712
35,6,22,Ticks_Phase_8,165,9999,9999,9999,1142073424
35,6,22,Ticks_Phase_8,166,9999,9999,9999,1142873160
35,6,22,Ticks_Phase_8,167,9999,9999,9999,1143673920
35,6,22,Ticks_Phase_8,168,9999,9999,9999,1144473704
35,6,22,Ticks_Phase_8,169,9999,9999,9999,1145273416
35,7,10,Ticks_ISO_T2_5,0,5,42,127,1157440800
35,7,10,Ticks_ISO_T2_5,1,5,42,127,1157940740
35,7,10,Ticks_ISO_T2_5,2,5,42,127,1158441280
35,7,10,Ticks_ISO_T2_5,3,5,42,127,1158940996
35,7,10,Ticks_ISO_T2_5,4,1,48,40,1159008396
35,7,10,Ticks_ISO_T2_5,5,5,42,127,1159440764
35,7,10,Ticks_ISO_T2_5,6,1,48,43,1159479640
35,7,10,Ticks_ISO_T2_5,7,5,42,127,1159940536
35,7,10,Ticks_ISO_T2_5,8,1,48,47,1159974840
35,7,10,Ticks_ISO_T2_5,9,5,42,127,1160441052
35,7,10,Ticks_ISO_T2_5,10,1,48,40,1160446784
35,7,10,Ticks_ISO_T2_5,11,1,48,37,1160929256
35,7,10,Ticks_ISO_T2_5,12,5,42,127,1160940964
35,7,10,Ticks_ISO_T2_5,13,1,48,41,1161425144
35,7,10,Ticks_ISO_T2_5,14,5,42,127,1161440584
35,7,10,Ticks_ISO_T2_5,15,1,48,35,1161908236
35,7,10,Ticks_ISO_T2_5,16,5,42,127,1161941400
35,7,10,Ticks_ISO_T2_5,17,1,48,36,1162394088
35,7,10,Ticks_ISO_T2_5,18,5,42,127,1162440944
35,7,10,Ticks_ISO_T2_5,19,1,48,30,1162914952
35,7,10,Ticks_ISO_T2_5,20,5,42,127,1162940716
35,7,10,Ticks_ISO_T2_5,21,1,48,34,1163381284
35,7,10,Ticks_ISO_T2_5,22,5,42,127,1163440484
35,7,10,Ticks_ISO_T2_5,23,1,48,38,1163911868
35,7,10,Ticks_ISO_T2_5,24,5,42,127,1163941376
35,7,10,Ticks_ISO_T2_5,25,1,48,36,1164417848
35,7,10,Ticks_ISO_T2_5,26,5,42,127,1164440920
35,7,10,Ticks_ISO_T2_5,27,5,42,127,1164940696
35,7,10,Ticks_ISO_T2_5,28,1,48,37,1164950772
35,7,10,Ticks_ISO_T2_5,29,1,48,39,1165429652
35,7,10,Ticks_ISO_T2_5,30,5,42,127,1165441504
35,7,10,Ticks_ISO_T2_5,31,1,48,39,1165927032
35,7,10,Ticks_ISO_T2_5,32,5,42,127,1165941052
35,7,10,Ticks_ISO_T2_5,33,1,48,34,1166412212
35,7,10,Ticks_ISO_T2_5,34,5,42,127,1166440968
35,7,10,Ticks_ISO_T2_5,35,1,48,19,1166497776
35,7,10,Ticks_ISO_T2_5,36,5,42,127,1166940424
35,7,10,Ticks_ISO_T2_5,37,1,48,39,1166947736
35,7,10,Ticks_ISO_T2_5,38,1,48,46,1167411180
35,7,10,Ticks_ISO_T2_5,39,5,42,127,1167441532
35,7,10,Ticks_ISO_T2_5,40,1,48,40,1167874152
35,7,10,Ticks_ISO_T2_5,41,5,42,127,1167940828
35,7,10,Ticks_ISO_T2_5,42,5,42,127,1168440604
35,7,10,Ticks_ISO_T2_5,43,1,48,29,1168449932
35,7,10,Ticks_ISO_T2_5,44,5,42,127,1168941344
35,7,10,Ticks_ISO_T2_5,45,1,48,33,1168956128
35,7,10,Ticks_ISO_T2_5,46,1,48,43,1169427312
35,7,10,Ticks_ISO_T2_5,47,5,42,127,1169441256
35,7,10,Ticks_ISO_T2_5,48,1,48,39,1169932616
35,7,10,Ticks_ISO_T2_5,49,5,42,127,1169940804
35,7,10,Ticks_ISO_T2_5,50,1,48,42,1170403512
35,7,10,Ticks_ISO_T2_5,51,5,42,127,1170440572
35,7,10,Ticks_ISO_T2_5,52,1,48,29,1170939124
35,7,10,Ticks_ISO_T2_5,53,5,42,127,1170941536
35,7,10,Ticks_ISO_T2_5,54,1,48,39,1171411056
35,7,10,Ticks_ISO_T2_5,55,5,42,127,1171440856
35,7,10,Ticks_ISO_T2_5,56,5,42,127,1171940636
35,7,10,Ticks_ISO_T2_5,57,1,48,43,1171941972
35,7,10,Ticks_ISO_T2_5,58,1,48,39,1172426672
35,7,10,Ticks_ISO_T2_5,59,5,42,127,1172440472
35,7,10,Ticks_ISO_T2_5,60,5,42,127,1172941292
35,7,10,Ticks_ISO_T2_5,61,1,48,37,1172953392
35,7,10,Ticks_ISO_T2_5,62,1,48,37,1173422696
35,7,10,Ticks_ISO_T2_5,63,5,42,127,1173440832
35,7,10,Ticks_ISO_T2_5,64,1,48,37,1173900480
35,7,10,Ticks_ISO_T2_5,65,5,42,127,1173940528
35,7,10,Ticks_ISO_T2_5,66,5,42,127,1174441424
35,7,10,Ticks_ISO_T2_5,67,1,48,39,1174495180
35,7,10,Ticks_ISO_T2_5,68,5,42,127,1174941120
35,7,10,Ticks_ISO_T2_5,69,1,48,33,1174944460
35,7,10,Ticks_ISO_T2_5,70,1,48,39,1175417732
35,7,10,Ticks_ISO_T2_5,71,5,42,127,1175440732
35,7,10,Ticks_ISO_T2_5,72,1,48,39,1175888260
35,7,10,Ticks_ISO_T2_5,73,5,42,127,1175940428
35,7,10,Ticks_ISO_T2_5,74,5,42,127,1176441252
35,7,10,Ticks_ISO_T2_5,75,1,48,41,1176447664
35,7,10,Ticks_ISO_T2_5,76,1,48,34,1176909564
35,7,10,Ticks_ISO_T2_5,77,5,42,127,1176940792
35,7,10,Ticks_ISO_T2_5,78,1,48,31,1177418532
35,7,10,Ticks_ISO_T2_5,79,5,42,127,1177440560
35,7,10,Ticks_ISO_T2_5,80,5,42,127,1177941380
35,7,10,Ticks_ISO_T2_5,81,1,48,38,1177946152
35,7,10,Ticks_ISO_T2_5,82,1,48,36,1178420368
35,7,10,Ticks_ISO_T2_5,83,5,42,127,1178441292
35,7,10,Ticks_ISO_T2_5,84,1,48,38,1178887600
35,7,10,Ticks_ISO_T2_5,85,5,42,127,1178940664
35,7,10,Ticks_ISO_T2_5,86,1,48,39,1179404500
35,7,10,Ticks_ISO_T2_5,87,5,42,127,1179440360
35,7,10,Ticks_ISO_T2_5,88,1,48,42,1179912044
35,7,10,Ticks_ISO_T2_5,89,5,42,127,1179941104
35,7,10,Ticks_ISO_T2_5,90,1,48,40,1180403288
35,7,10,Ticks_ISO_T2_5,91,5,42,127,1180441172
35,7,10,Ticks_ISO_T2_5,92,1,48,40,1180914804
35,7,10,Ticks_ISO_T2_5,93,5,42,127,1180940568
35,7,10,Ticks_ISO_T2_5,94,1,48,40,1181368352
35,7,10,Ticks_ISO_T2_5,95,5,42,127,1181441532
35,7,10,Ticks_ISO_T2_5,96,1,48,38,1181902900
35,7,10,Ticks_ISO_T2_5,97,5,42,127,1181941228
35,7,10,Ticks_ISO_T2_5,98,1,48,34,1182394136
35,7,10,Ticks_ISO_T2_5,99,5,42,127,1182440848
35,7,10,Ticks_ISO_T2_5,100,1,48,29,1182915000
35,7,10,Ticks_ISO_T2_5,101,5,42,127,1182940468
35,7,10,Ticks_ISO_T2_5,102,1,48,32,1183428308
35,7,10,Ticks_ISO_T2_5,103,5,42,127,1183441208
35,7,10,Ticks_ISO_T2_5,104,1,48,35,1183918356
35,7,10,Ticks_ISO_T2_5,105,5,42,127,1183940976
35,7,10,Ticks_ISO_T2_5,106,1,48,40,1184395832
35,7,10,Ticks_ISO_T2_5,107,5,42,127,1184440972
35,7,10,Ticks_ISO_T2_5,108,1,48,37,1184874432
35,7,10,Ticks_ISO_T2_5,109,5,42,127,1184941564
35,7,10,Ticks_ISO_T2_5,110,1,48,41,1185359472
35,7,10,Ticks_ISO_T2_5,111,5,42,127,1185441108
35,7,10,Ticks_ISO_T2_5,112,1,48,33,1185871060
35,7,10,Ticks_ISO_T2_5,113,5,42,127,1185940804
35,7,10,Ticks_ISO_T2_5,114,1,48,39,1186379652
35,7,10,Ticks_ISO_T2_5,115,5,42,127,1186440500
35,7,10,Ticks_ISO_T2_5,116,1,48,41,1186872520
35,7,10,Ticks_ISO_T2_5,117,5,42,127,1186941316
35,7,10,Ticks_ISO_T2_5,118,1,48,40,1187372656
35,7,10,Ticks_ISO_T2_5,119,5,42,127,1187441080
35,7,10,Ticks_ISO_T2_5,120,1,48,38,1187855896
35,7,10,Ticks_ISO_T2_5,121,5,42,127,1187941000
35,7,10,Ticks_ISO_T2_5,122,1,48,34,1188365164
35,7,10,Ticks_ISO_T2_5,123,5,42,127,1188440396
35,7,10,Ticks_ISO_T2_5,124,1,48,39,1188886400
35,7,10,Ticks_ISO_T2_5,125,5,42,127,1188941288
35,7,10,Ticks_ISO_T2_5,126,1,48,41,1189416908
35,7,10,Ticks_ISO_T2_5,127,5,42,127,1189440808
35,7,10,Ticks_ISO_T2_5,128,1,48,43,1189889384
35,7,10,Ticks_ISO_T2_5,129,5,42,127,1189940728
35,7,10,Ticks_ISO_T2_5,130,1,48,33,1190421912
35,7,10,Ticks_ISO_T2_5,131,5,42,127,1190441320
35,7,10,Ticks_ISO_T2_5,132,1,48,38,1190873960
35,7,10,Ticks_ISO_T2_5,133,5,42,127,1190941016
35,7,10,Ticks_ISO_T2_5,134,1,48,39,1191413148
35,7,10,Ticks_ISO_T2_5,135,5,42,127,1191440932
35,7,10,Ticks_ISO_T2_5,136,1,48,40,1191897736
35,7,10,Ticks_ISO_T2_5,137,5,42,127,1191940332
35,7,10,Ticks_ISO_T2_5,138,1,48,48,1192387784
35,7,10,Ticks_ISO_T2_5,139,5,42,127,1192441368
35,7,10,Ticks_ISO_T2_5,140,1,48,36,1192900192
35,7,10,Ticks_ISO_T2_5,141,5,42,127,1192940840
35,7,10,Ticks_ISO_T2_5,142,1,48,31,1193405724
35,7,10,Ticks_ISO_T2_5,143,5,42,127,1193440612
35,7,10,Ticks_ISO_T2_5,144,1,48,30,1193883728
35,7,10,Ticks_ISO_T2_5,145,5,42,127,1193941428
35,7,10,Ticks_ISO_T2_5,146,1,48,31,1194394716
35,7,10,Ticks_ISO_T2_5,147,5,42,127,1194441120
35,7,10,Ticks_ISO_T2_5,148,1,48,34,1194889696
35,7,10,Ticks_ISO_T2_5,149,5,42,127,1194940744
35,7,10,Ticks_ISO_T2_5,150,1,48,44,1195339804
35,7,10,Ticks_ISO_T2_5,151,5,42,127,1195440572
35,7,10,Ticks_ISO_T2_5,152,1,48,36,1195880708
35,7,10,Ticks_ISO_T2_5,153,5,42,127,1195941176
35,7,10,Ticks_ISO_T2_5,154,1,48,35,1196395064
35,7,10,Ticks_ISO_T2_5,155,5,42,127,1196440948
35,7,10,Ticks_ISO_T2_5,156,1,48,34,1196876728
35,7,10,Ticks_ISO_T2_5,157,5,42,127,1196940788
35,7,10,Ticks_ISO_T2_5,158,1,48,30,1197370716
35,7,10,Ticks_ISO_T2_5,159,5,42,127,1197441532
35,7,10,Ticks_ISO_T2_5,160,1,48,30,1197871900
35,7,10,Ticks_ISO_T2_5,161,5,42,127,1197941076
35,7,10,Ticks_ISO_T2_5,162,1,48,45,1198369504
35,7,10,Ticks_ISO_T2_5,163,5,42,127,1198440772
35,7,10,Ticks_ISO_T2_5,164,1,48,40,1198867256
35,7,10,Ticks_ISO_T2_5,165,5,42,127,1198940616
35,7,10,Ticks_ISO_T2_5,166,1,48,37,1199365380
35,7,10,Ticks_ISO_T2_5,167,5,42,127,1199441504
35,7,10,Ticks_ISO_T2_5,168,1,48,32,1199891628
35,7,10,Ticks_ISO_T2_5,169,5,42,127,1199940880
35,7,10,Ticks_ISO_T2_5,170,1,48,46,1200405684
35,7,10,Ticks_ISO_T2_5,171,5,42,127,1200440648
35,7,10,Ticks_ISO_T2_5,172,1,48,40,1200889444
35,7,10,Ticks_ISO_T2_5,173,5,42,127,1200941612
35,7,10,Ticks_ISO_T2_5,174,1,48,38,1201400136
35,7,10,Ticks_ISO_T2_5,175,5,42,127,1201441160
35,7,10,Ticks_ISO_T2_5,176,1,48,35,1201933344
35,7,10,Ticks_ISO_T2_5,177,5,42,127,1201940928
35,7,10,Ticks_ISO_T2_5,178,1,48,37,1202424432
35,7,10,Ticks_ISO_T2_5,179,5,42,127,1202440552
35,7,10,Ticks_ISO_T2_5,180,1,48,40,1202916800
35,7,10,Ticks_ISO_T2_5,181,5,42,127,1202941368
35,7,10,Ticks_ISO_T2_5,182,1,48,39,1203391812
35,7,10,Ticks_ISO_T2_5,183,5,42,127,1203441132
35,7,10,Ticks_ISO_T2_5,184,1,48,36,1203902124
35,7,10,Ticks_ISO_T2_5,185,5,42,127,1203940608
35,7,10,Ticks_ISO_T2_5,186,1,48,41,1204397412
35,7,10,Ticks_ISO_T2_5,187,5,42,127,1204440376
35,7,10,Ticks_ISO_T2_5,188,5,42,127,1204941348
35,7,10,Ticks_ISO_T2_5,189,1,48,41,1204944992
35,7,10,Ticks_ISO_T2_5,190,1,48,37,1205349148
35,7,10,Ticks_ISO_T2_5,191,5,42,127,1205440812
35,7,10,Ticks_ISO_T2_5,192,1,48,43,1205924540
35,7,10,Ticks_ISO_T2_5,193,5,42,127,1205940580
35,7,10,Ticks_ISO_T2_5,194,5,42,127,1206441252
35,7,10,Ticks_ISO_T2_5,195,1,48,40,1206466064
35,7,10,Ticks_ISO_T2_5,196,1,48,39,1206907400
35,7,10,Ticks_ISO_T2_5,197,5,42,127,1206941240
35,7,10,Ticks_ISO_T2_5,198,1,48,42,1207361216
35,7,10,Ticks_ISO_T2_5,199,5,42,127,1207440860
35,7,10,Ticks_ISO_T2_5,200,1,48,38,1207930952
35,7,10,Ticks_ISO_T2_5,201,5,42,127,1207940408
35,7,10,Ticks_ISO_T2_5,202,5,42,127,1208441228
35,7,10,Ticks_ISO_T2_5,203,1,48,33,1208458788
35,7,10,Ticks_ISO_T2_5,204,1,48,34,1208913212
35,7,10,Ticks_ISO_T2_5,205,5,42,127,1208940920
35,7,10,Ticks_ISO_T2_5,206,1,48,37,1209358656
35,7,10,Ticks_ISO_T2_5,207,5,42,127,1209440764
35,7,10,Ticks_ISO_T2_5,208,5,42,127,1209941216
35,7,10,Ticks_ISO_T2_5,209,1,48,33,1209980908
35,7,10,Ticks_ISO_T2_5,210,1,48,34,1210439240
35,7,10,Ticks_ISO_T2_5,211,5,42,127,1210441200
35,7,10,Ticks_ISO_T2_5,212,1,48,33,1210919224
35,7,10,Ticks_ISO_T2_5,213,5,42,127,1210940872
35,7,10,Ticks_ISO_T2_5,214,1,48,30,1211391760
35,7,10,Ticks_ISO_T2_5,215,5,42,127,1211440416
35,7,10,Ticks_ISO_T2_5,216,1,48,34,1211887492
35,7,10,Ticks_ISO_T2_5,217,5,42,127,1211941156
35,7,10,Ticks_ISO_T2_5,218,1,48,33,1212397288
35,7,10,Ticks_ISO_T2_5,219,5,42,127,1212441076
35,7,10,Ticks_ISO_T2_5,220,1,48,33,1212860708
35,7,10,Ticks_ISO_T2_5,221,5,42,127,1212940696
35,7,10,Ticks_ISO_T2_5,222,1,48,29,1213359132
35,7,10,Ticks_ISO_T2_5,223,5,42,127,1213441288
35,7,10,Ticks_ISO_T2_5,224,1,48,31,1213870120
35,7,10,Ticks_ISO_T2_5,225,5,42,127,1213941208
35,7,10,Ticks_ISO_T2_5,226,1,48,33,1214350064
35,7,10,Ticks_ISO_T2_5,227,5,42,127,1214440976
35,7,10,Ticks_ISO_T2_5,228,1,48,31,1214882224
35,7,10,Ticks_ISO_T2_5,229,5,42,127,1214940600
35,7,10,Ticks_ISO_T2_5,230,1,48,31,1215386400
35,7,10,Ticks_ISO_T2_5,231,5,42,127,1215441188
35,7,10,Ticks_ISO_T2_5,232,1,48,30,1215892904
35,7,10,Ticks_ISO_T2_5,233,5,42,127,1215940884
35,7,10,Ticks_ISO_T2_5,234,1,48,28,1216391404
35,7,10,Ticks_ISO_T2_5,235,5,42,127,1216440804
35,7,10,Ticks_ISO_T2_5,236,1,48,28,1216873368
35,7,10,Ticks_ISO_T2_5,237,5,42,127,1216941320
35,7,10,Ticks_ISO_T2_5,238,1,48,25,1217365512
35,7,10,Ticks_ISO_T2_5,239,5,42,127,1217441016
35,7,10,Ticks_ISO_T2_5,240,1,48,34,1217918760
35,7,10,Ticks_ISO_T2_5,241,5,42,127,1217941084
35,7,10,Ticks_ISO_T2_5,242,1,48,26,1218389956
35,7,10,Ticks_ISO_T2_5,243,5,42,127,1218440556
35,7,10,Ticks_ISO_T2_5,244,1,48,31,1218872048
35,7,10,Ticks_ISO_T2_5,245,5,42,127,1218941220
35,7,10,Ticks_ISO_T2_5,246,1,48,25,1219361348
35,7,10,Ticks_ISO_T2_5,247,5,42,127,1219440916
35,7,10,Ticks_ISO_T2_5,248,1,48,27,1219867928
35,7,10,Ticks_ISO_T2_5,249,5,42,127,1219940908
35,7,10,Ticks_ISO_T2_5,250,1,48,34,1220353856
35,7,10,Ticks_ISO_T2_5,251,5,42,127,1220440380
35,7,10,Ticks_ISO_T2_5,252,1,48,31,1220875164
35,7,10,Ticks_ISO_T2_5,253,5,42,127,1220941196
35,7,10,Ticks_ISO_T2_5,254,1,48,29,1221386828
35,7,10,Ticks_ISO_T2_5,255,5,42,127,1221441016
35,7,10,Ticks_ISO_T2_5,256,1,48,34,1221865580
35,7,10,Ticks_ISO_T2_5,257,5,42,127,1221940712
35,7,10,Ticks_ISO_T2_5,258,1,48,29,1222360264
35,7,10,Ticks_ISO_T2_5,0,9999,9999,9999,1157438516
35,7,10,Ticks_ISO_T2_5,1,9999,9999,9999,1157938232
35,7,10,Ticks_ISO_T2_5,2,9999,9999,9999,1158438992
35,7,10,Ticks_ISO_T2_5,3,9999,9999,9999,1158938712
35,7,10,Ticks_ISO_T2_5,4,9999,9999,9999,1159438404
35,7,10,Ticks_ISO_T2_5,5,9999,9999,9999,1159938100
35,7,10,Ticks_ISO_T2_5,6,9999,9999,9999,1160438840
35,7,10,Ticks_ISO_T2_5,7,9999,9999,9999,1160938600
35,7,10,Ticks_ISO_T2_5,8,9999,9999,9999,1161438296
35,7,10,Ticks_ISO_T2_5,9,9999,9999,9999,1161939040
35,7,10,Ticks_ISO_T2_5,10,9999,9999,9999,1162438732
35,7,10,Ticks_ISO_T2_5,11,9999,9999,9999,1162938428
35,7,10,Ticks_ISO_T2_5,12,9999,9999,9999,1163438196
35,7,10,Ticks_ISO_T2_5,13,9999,9999,9999,1163938864
35,7,10,Ticks_ISO_T2_5,14,9999,9999,9999,1164438636
35,7,10,Ticks_ISO_T2_5,15,9999,9999,9999,1164938336
35,7,10,Ticks_ISO_T2_5,16,9999,9999,9999,1165439072
35,7,10,Ticks_ISO_T2_5,17,9999,9999,9999,1165938764
35,7,10,Ticks_ISO_T2_5,18,9999,9999,9999,1166438460
35,7,10,Ticks_ISO_T2_5,19,9999,9999,9999,1166938212
35,7,10,Ticks_ISO_T2_5,20,9999,9999,9999,1167438948
35,7,10,Ticks_ISO_T2_5,21,9999,9999,9999,1167938616
35,7,10,Ticks_ISO_T2_5,22,9999,9999,9999,1168438392
35,7,10,Ticks_ISO_T2_5,23,9999,9999,9999,1168939060
35,7,10,Ticks_ISO_T2_5,24,9999,9999,9999,1169438820
35,7,10,Ticks_ISO_T2_5,25,9999,9999,9999,1169938516
35,7,10,Ticks_ISO_T2_5,26,9999,9999,9999,1170438212
35,7,10,Ticks_ISO_T2_5,27,9999,9999,9999,1170938988
35,7,10,Ticks_ISO_T2_5,28,9999,9999,9999,1171438644
35,7,10,Ticks_ISO_T2_5,29,9999,9999,9999,1171938420
35,7,10,Ticks_ISO_T2_5,30,9999,9999,9999,1172438112
35,7,10,Ticks_ISO_T2_5,31,9999,9999,9999,1172938856
35,7,10,Ticks_ISO_T2_5,32,9999,9999,9999,1173438548
35,7,10,Ticks_ISO_T2_5,33,9999,9999,9999,1173938244
35,7,10,Ticks_ISO_T2_5,34,9999,9999,9999,1174438988
35,7,10,Ticks_ISO_T2_5,35,9999,9999,9999,1174938684
35,7,10,Ticks_ISO_T2_5,36,9999,9999,9999,1175438444
35,7,10,Ticks_ISO_T2_5,37,9999,9999,9999,1175938144
35,7,10,Ticks_ISO_T2_5,38,9999,9999,9999,1176438892
35,7,10,Ticks_ISO_T2_5,39,9999,9999,9999,1176938580
35,7,10,Ticks_ISO_T2_5,40,9999,9999,9999,1177438272
35,7,10,Ticks_ISO_T2_5,41,9999,9999,9999,1177939020
35,7,10,Ticks_ISO_T2_5,42,9999,9999,9999,1178438708
35,7,10,Ticks_ISO_T2_5,43,9999,9999,9999,1178938452
35,7,10,Ticks_ISO_T2_5,44,9999,9999,9999,1179438148
35,7,10,Ticks_ISO_T2_5,45,9999,9999,9999,1179938892
35,7,10,Ticks_ISO_T2_5,46,9999,9999,9999,1180438584
35,7,10,Ticks_ISO_T2_5,47,9999,9999,9999,1180938356
35,7,10,Ticks_ISO_T2_5,48,9999,9999,9999,1181439096
35,7,10,Ticks_ISO_T2_5,49,9999,9999,9999,1181938792
35,7,10,Ticks_ISO_T2_5,50,9999,9999,9999,1182438488
35,7,10,Ticks_ISO_T2_5,51,9999,9999,9999,1182938180
35,7,10,Ticks_ISO_T2_5,52,9999,9999,9999,1183438920
35,7,10,Ticks_ISO_T2_5,53,9999,9999,9999,1183938616
35,7,10,Ticks_ISO_T2_5,54,9999,9999,9999,1184438388
35,7,10,Ticks_ISO_T2_5,55,9999,9999,9999,1184939128
35,7,10,Ticks_ISO_T2_5,56,9999,9999,9999,1185438824
35,7,10,Ticks_ISO_T2_5,57,9999,9999,9999,1185938516
35,7,10,Ticks_ISO_T2_5,58,9999,9999,9999,1186438212
35,7,10,Ticks_ISO_T2_5,59,9999,9999,9999,1186938956
35,7,10,Ticks_ISO_T2_5,60,9999,9999,9999,1187438648
35,7,10,Ticks_ISO_T2_5,61,9999,9999,9999,1187938416
35,7,10,Ticks_ISO_T2_5,62,9999,9999,9999,1188438112
35,7,10,Ticks_ISO_T2_5,63,9999,9999,9999,1188938852
35,7,10,Ticks_ISO_T2_5,64,9999,9999,9999,1189438524
35,7,10,Ticks_ISO_T2_5,65,9999,9999,9999,1189938292
35,7,10,Ticks_ISO_T2_5,66,9999,9999,9999,1190439032
35,7,10,Ticks_ISO_T2_5,67,9999,9999,9999,1190938728
35,7,10,Ticks_ISO_T2_5,68,9999,9999,9999,1191438424
35,7,10,Ticks_ISO_T2_5,69,9999,9999,9999,1191938120
35,7,10,Ticks_ISO_T2_5,70,9999,9999,9999,1192438860
35,7,10,Ticks_ISO_T2_5,71,9999,9999,9999,1192938556
35,7,10,Ticks_ISO_T2_5,72,9999,9999,9999,1193438324
35,7,10,Ticks_ISO_T2_5,73,9999,9999,9999,1193938992
35,7,10,Ticks_ISO_T2_5,74,9999,9999,9999,1194438760
35,7,10,Ticks_ISO_T2_5,75,9999,9999,9999,1194938456
35,7,10,Ticks_ISO_T2_5,76,9999,9999,9999,1195438136
35,7,10,Ticks_ISO_T2_5,77,9999,9999,9999,1195938892
35,7,10,Ticks_ISO_T2_5,78,9999,9999,9999,1196438588
35,7,10,Ticks_ISO_T2_5,79,9999,9999,9999,1196938356
35,7,10,Ticks_ISO_T2_5,80,9999,9999,9999,1197439096
35,7,10,Ticks_ISO_T2_5,81,9999,9999,9999,1197938792
35,7,10,Ticks_ISO_T2_5,82,9999,9999,9999,1198438484
35,7,10,Ticks_ISO_T2_5,83,9999,9999,9999,1198938180
35,7,10,Ticks_ISO_T2_5,84,9999,9999,9999,1199438920
35,7,10,Ticks_ISO_T2_5,85,9999,9999,9999,1199938668
35,7,10,Ticks_ISO_T2_5,86,9999,9999,9999,1200438360
35,7,10,Ticks_ISO_T2_5,87,9999,9999,9999,1200939104
35,7,10,Ticks_ISO_T2_5,88,9999,9999,9999,1201438800
35,7,10,Ticks_ISO_T2_5,89,9999,9999,9999,1201938492
35,7,10,Ticks_ISO_T2_5,90,9999,9999,9999,1202438264
35,7,10,Ticks_ISO_T2_5,91,9999,9999,9999,1202938932
35,7,10,Ticks_ISO_T2_5,92,9999,9999,9999,1203438700
35,7,10,Ticks_ISO_T2_5,93,9999,9999,9999,1203938396
35,7,10,Ticks_ISO_T2_5,94,9999,9999,9999,1204438092
35,7,10,Ticks_ISO_T2_5,95,9999,9999,9999,1204938836
35,7,10,Ticks_ISO_T2_5,96,9999,9999,9999,1205438524
35,7,10,Ticks_ISO_T2_5,97,9999,9999,9999,1205938296
35,7,10,Ticks_ISO_T2_5,98,9999,9999,9999,1206438968
35,7,10,Ticks_ISO_T2_5,99,9999,9999,9999,1206938732
35,7,10,Ticks_ISO_T2_5,100,9999,9999,9999,1207438424
35,7,10,Ticks_ISO_T2_5,101,9999,9999,9999,1207938120
35,7,10,Ticks_ISO_T2_5,102,9999,9999,9999,1208438868
35,7,10,Ticks_ISO_T2_5,103,9999,9999,9999,1208938560
35,7,10,Ticks_ISO_T2_5,104,9999,9999,9999,1209438328
35,7,10,Ticks_ISO_T2_5,105,9999,9999,9999,1209939004
35,7,10,Ticks_ISO_T2_5,106,9999,9999,9999,1210438716
35,7,10,Ticks_ISO_T2_5,107,9999,9999,9999,1210938436
35,7,10,Ticks_ISO_T2_5,108,9999,9999,9999,1211438132
35,7,10,Ticks_ISO_T2_5,109,9999,9999,9999,1211938872
35,7,10,Ticks_ISO_T2_5,110,9999,9999,9999,1212438644
35,7,10,Ticks_ISO_T2_5,111,9999,9999,9999,1212938336
35,7,10,Ticks_ISO_T2_5,112,9999,9999,9999,1213439076
35,7,10,Ticks_ISO_T2_5,113,9999,9999,9999,1213938772
35,7,10,Ticks_ISO_T2_5,114,9999,9999,9999,1214438468
35,7,10,Ticks_ISO_T2_5,115,9999,9999,9999,1214938164
35,7,10,Ticks_ISO_T2_5,116,9999,9999,9999,1215438904
35,7,10,Ticks_ISO_T2_5,117,9999,9999,9999,1215938672
35,7,10,Ticks_ISO_T2_5,118,9999,9999,9999,1216438368
35,7,10,Ticks_ISO_T2_5,119,9999,9999,9999,1216939108
35,7,10,Ticks_ISO_T2_5,120,9999,9999,9999,1217438804
35,7,10,Ticks_ISO_T2_5,121,9999,9999,9999,1217938500
35,7,10,Ticks_ISO_T2_5,122,9999,9999,9999,1218438192
35,7,10,Ticks_ISO_T2_5,123,9999,9999,9999,1218938936
35,7,10,Ticks_ISO_T2_5,124,9999,9999,9999,1219438704
35,7,10,Ticks_ISO_T2_5,125,9999,9999,9999,1219938400
35,7,10,Ticks_ISO_T2_5,126,9999,9999,9999,1220438096
35,7,10,Ticks_ISO_T2_5,127,9999,9999,9999,1220938836
35,7,10,Ticks_ISO_T2_5,128,9999,9999,9999,1221438580
35,7,10,Ticks_ISO_T2_5,129,9999,9999,9999,1221938276
35,8,9,Ticks_ISO_T2_8,0,5,42,127,1301228760
35,8,9,Ticks_ISO_T2_8,1,5,42,127,1302028664
35,8,9,Ticks_ISO_T2_8,2,5,42,127,1302829392
35,8,9,Ticks_ISO_T2_8,3,5,42,127,1303629320
35,8,9,Ticks_ISO_T2_8,4,1,48,42,1304328780
35,8,9,Ticks_ISO_T2_8,5,5,42,127,1304429200
35,8,9,Ticks_ISO_T2_8,6,1,48,47,1305122832
35,8,9,Ticks_ISO_T2_8,7,5,42,127,1305228636
35,8,9,Ticks_ISO_T2_8,8,1,48,39,1305865268
35,8,9,Ticks_ISO_T2_8,9,5,42,127,1306029416
35,8,9,Ticks_ISO_T2_8,10,1,48,34,1306761664
35,8,9,Ticks_ISO_T2_8,11,5,42,127,1306829240
35,8,9,Ticks_ISO_T2_8,12,1,48,39,1307553244
35,8,9,Ticks_ISO_T2_8,13,5,42,127,1307629344
35,8,9,Ticks_ISO_T2_8,14,1,48,35,1308347216
35,8,9,Ticks_ISO_T2_8,15,5,42,127,1308428628
35,8,9,Ticks_ISO_T2_8,16,1,48,37,1309191004
35,8,9,Ticks_ISO_T2_8,17,5,42,127,1309229412
35,8,9,Ticks_ISO_T2_8,18,1,48,35,1309935460
35,8,9,Ticks_ISO_T2_8,19,5,42,127,1310029228
35,8,9,Ticks_ISO_T2_8,20,1,48,28,1310826248
35,8,9,Ticks_ISO_T2_8,21,5,42,127,1310828976
35,8,9,Ticks_ISO_T2_8,22,1,48,27,1311557848
35,8,9,Ticks_ISO_T2_8,23,5,42,127,1311628712
35,8,9,Ticks_ISO_T2_8,24,1,48,32,1312389964
35,8,9,Ticks_ISO_T2_8,25,5,42,127,1312429492
35,8,9,Ticks_ISO_T2_8,26,1,48,39,1313160000
35,8,9,Ticks_ISO_T2_8,27,5,42,127,1313229224
35,8,9,Ticks_ISO_T2_8,28,1,48,34,1313942536
35,8,9,Ticks_ISO_T2_8,29,5,42,127,1314028960
35,8,9,Ticks_ISO_T2_8,30,1,48,31,1314743688
35,8,9,Ticks_ISO_T2_8,31,5,42,127,1314828620
35,8,9,Ticks_ISO_T2_8,32,1,48,33,1315506328
35,8,9,Ticks_ISO_T2_8,33,5,42,127,1315629460
35,8,9,Ticks_ISO_T2_8,34,1,48,29,1316325200
35,8,9,Ticks_ISO_T2_8,35,5,42,127,1316429140
35,8,9,Ticks_ISO_T2_8,36,1,48,30,1317144160
35,8,9,Ticks_ISO_T2_8,37,5,42,127,1317228816
35,8,9,Ticks_ISO_T2_8,38,1,48,33,1317994328
35,8,9,Ticks_ISO_T2_8,39,5,42,127,1318028992
35,8,9,Ticks_ISO_T2_8,40,1,48,29,1318775212
35,8,9,Ticks_ISO_T2_8,41,5,42,127,1318829476
35,8,9,Ticks_ISO_T2_8,42,1,48,31,1319551908
35,8,9,Ticks_ISO_T2_8,43,5,42,127,1319629136
35,8,9,Ticks_ISO_T2_8,44,1,48,30,1320369744
35,8,9,Ticks_ISO_T2_8,45,5,42,127,1320429016
35,8,9,Ticks_ISO_T2_8,46,1,48,28,1321181744
35,8,9,Ticks_ISO_T2_8,47,5,42,127,1321228752
35,8,9,Ticks_ISO_T2_8,48,1,48,28,1322000028
35,8,9,Ticks_ISO_T2_8,49,5,42,127,1322029604
35,8,9,Ticks_ISO_T2_8,50,1,48,33,1322721896
35,8,9,Ticks_ISO_T2_8,51,5,42,127,1322829272
35,8,9,Ticks_ISO_T2_8,52,1,48,30,1323553944
35,8,9,Ticks_ISO_T2_8,53,5,42,127,1323628872
35,8,9,Ticks_ISO_T2_8,54,1,48,32,1324394540
35,8,9,Ticks_ISO_T2_8,55,5,42,127,1324428756
35,8,9,Ticks_ISO_T2_8,56,1,48,29,1325171836
35,8,9,Ticks_ISO_T2_8,57,5,42,127,1325229612
35,8,9,Ticks_ISO_T2_8,58,1,48,31,1325921824
35,8,9,Ticks_ISO_T2_8,59,5,42,127,1326029032
35,8,9,Ticks_ISO_T2_8,60,1,48,32,1326723280
35,8,9,Ticks_ISO_T2_8,61,5,42,127,1326828840
35,8,9,Ticks_ISO_T2_8,62,1,48,23,1327522636
35,8,9,Ticks_ISO_T2_8,63,5,42,127,1327628648
35,8,9,Ticks_ISO_T2_8,64,1,48,27,1328324988
35,8,9,Ticks_ISO_T2_8,65,5,42,127,1328429500
35,8,9,Ticks_ISO_T2_8,66,1,48,40,1329161672
35,8,9,Ticks_ISO_T2_8,67,5,42,127,1329229052
35,8,9,Ticks_ISO_T2_8,68,1,48,40,1329896180
35,8,9,Ticks_ISO_T2_8,69,5,42,127,1330028916
35,8,9,Ticks_ISO_T2_8,70,1,48,26,1330819952
35,8,9,Ticks_ISO_T2_8,71,5,42,127,1330828592
35,8,9,Ticks_ISO_T2_8,72,1,48,35,1331562464
35,8,9,Ticks_ISO_T2_8,73,5,42,127,1331629596
35,8,9,Ticks_ISO_T2_8,74,1,48,30,1332409096
35,8,9,Ticks_ISO_T2_8,75,5,42,127,1332429252
35,8,9,Ticks_ISO_T2_8,76,1,48,38,1333165968
35,8,9,Ticks_ISO_T2_8,77,5,42,127,1333228836
35,8,9,Ticks_ISO_T2_8,78,1,48,28,1334000636
35,8,9,Ticks_ISO_T2_8,79,5,42,127,1334028648
35,8,9,Ticks_ISO_T2_8,80,1,48,36,1334763196
35,8,9,Ticks_ISO_T2_8,81,5,42,127,1334829500
35,8,9,Ticks_ISO_T2_8,82,1,48,26,1335591428
35,8,9,Ticks_ISO_T2_8,83,5,42,127,1335629260
35,8,9,Ticks_ISO_T2_8,84,1,48,38,1336365208
35,8,9,Ticks_ISO_T2_8,85,5,42,127,1336428768
35,8,9,Ticks_ISO_T2_8,86,1,48,29,1337126944
35,8,9,Ticks_ISO_T2_8,87,5,42,127,1337228636
35,8,9,Ticks_ISO_T2_8,88,1,48,27,1337919068
35,8,9,Ticks_ISO_T2_8,89,5,42,127,1338029340
35,8,9,Ticks_ISO_T2_8,90,1,48,31,1338761440
35,8,9,Ticks_ISO_T2_8,91,5,42,127,1338829388
35,8,9,Ticks_ISO_T2_8,92,1,48,32,1339527064
35,8,9,Ticks_ISO_T2_8,93,5,42,127,1339629032
35,8,9,Ticks_ISO_T2_8,94,1,48,29,1340359332
35,8,9,Ticks_ISO_T2_8,95,5,42,127,1340428628
35,8,9,Ticks_ISO_T2_8,96,1,48,29,1341127056
35,8,9,Ticks_ISO_T2_8,97,5,42,127,1341229468
35,8,9,Ticks_ISO_T2_8,98,1,48,36,1341891708
35,8,9,Ticks_ISO_T2_8,99,5,42,127,1342029156
35,8,9,Ticks_ISO_T2_8,100,1,48,31,1342712384
35,8,9,Ticks_ISO_T2_8,101,5,42,127,1342829036
35,8,9,Ticks_ISO_T2_8,102,1,48,26,1343530964
35,8,9,Ticks_ISO_T2_8,103,5,42,127,1343628636
35,8,9,Ticks_ISO_T2_8,104,1,48,38,1344328480
35,8,9,Ticks_ISO_T2_8,105,5,42,127,1344429328
35,8,9,Ticks_ISO_T2_8,106,1,48,30,1345145044
35,8,9,Ticks_ISO_T2_8,107,5,42,127,1345229224
35,8,9,Ticks_ISO_T2_8,108,1,48,30,1345949116
35,8,9,Ticks_ISO_T2_8,109,5,42,127,1346028960
35,8,9,Ticks_ISO_T2_8,110,1,48,29,1346733296
35,8,9,Ticks_ISO_T2_8,111,5,42,127,1346828752
35,8,9,Ticks_ISO_T2_8,112,1,48,32,1347501240
35,8,9,Ticks_ISO_T2_8,113,5,42,127,1347629536
35,8,9,Ticks_ISO_T2_8,114,1,48,36,1348318332
35,8,9,Ticks_ISO_T2_8,115,5,42,127,1348429296
35,8,9,Ticks_ISO_T2_8,116,1,48,36,1349185476
35,8,9,Ticks_ISO_T2_8,117,5,42,127,1349229116
35,8,9,Ticks_ISO_T2_8,118,1,48,27,1349960228
35,8,9,Ticks_ISO_T2_8,119,5,42,127,1350028852
35,8,9,Ticks_ISO_T2_8,120,1,48,31,1350767440
35,8,9,Ticks_ISO_T2_8,121,5,42,127,1350829408
35,8,9,Ticks_ISO_T2_8,122,1,48,31,1351602776
35,8,9,Ticks_ISO_T2_8,123,5,42,127,1351629144
35,8,9,Ticks_ISO_T2_8,124,1,48,33,1352367804
35,8,9,Ticks_ISO_T2_8,125,5,42,127,1352428948
35,8,9,Ticks_ISO_T2_8,126,1,48,28,1353182796
35,8,9,Ticks_ISO_T2_8,127,5,42,127,1353228756
35,8,9,Ticks_ISO_T2_8,128,1,48,19,1353992556
35,8,9,Ticks_ISO_T2_8,129,5,42,127,1354029388
35,8,9,Ticks_ISO_T2_8,130,1,48,35,1354801784
35,8,9,Ticks_ISO_T2_8,131,5,42,127,1354829072
35,8,9,Ticks_ISO_T2_8,132,1,48,35,1355503984
35,8,9,Ticks_ISO_T2_8,133,5,42,127,1355628864
35,8,9,Ticks_ISO_T2_8,134,1,48,24,1356402320
35,8,9,Ticks_ISO_T2_8,135,5,42,127,1356428612
35,8,9,Ticks_ISO_T2_8,136,1,48,34,1357132868
35,8,9,Ticks_ISO_T2_8,137,5,42,127,1357229612
35,8,9,Ticks_ISO_T2_8,138,1,48,34,1357911432
35,8,9,Ticks_ISO_T2_8,139,5,42,127,1358029108
35,8,9,Ticks_ISO_T2_8,140,1,48,28,1358654696
35,8,9,Ticks_ISO_T2_8,141,5,42,127,1358828844
35,8,9,Ticks_ISO_T2_8,142,1,48,40,1359472232
35,8,9,Ticks_ISO_T2_8,143,5,42,127,1359628728
35,8,9,Ticks_ISO_T2_8,144,1,48,38,1360370620
35,8,9,Ticks_ISO_T2_8,145,5,42,127,1360429596
35,8,9,Ticks_ISO_T2_8,146,1,48,37,1361178208
35,8,9,Ticks_ISO_T2_8,147,5,42,127,1361229204
35,8,9,Ticks_ISO_T2_8,148,1,48,35,1361952732
35,8,9,Ticks_ISO_T2_8,149,5,42,127,1362028864
35,8,9,Ticks_ISO_T2_8,150,1,48,35,1362784432
35,8,9,Ticks_ISO_T2_8,151,5,42,127,1362828596
35,8,9,Ticks_ISO_T2_8,152,1,48,37,1363590376
35,8,9,Ticks_ISO_T2_8,153,5,42,127,1363629676
35,8,9,Ticks_ISO_T2_8,154,1,48,36,1364386736
35,8,9,Ticks_ISO_T2_8,155,5,42,127,1364429336
35,8,9,Ticks_ISO_T2_8,156,1,48,36,1365145860
35,8,9,Ticks_ISO_T2_8,157,5,42,127,1365228844
35,8,9,Ticks_ISO_T2_8,158,1,48,39,1365989124
35,8,9,Ticks_ISO_T2_8,159,5,42,127,1366028728
35,8,9,Ticks_ISO_T2_8,160,1,48,34,1366770384
35,8,9,Ticks_ISO_T2_8,161,5,42,127,1366829284
35,8,9,Ticks_ISO_T2_8,162,1,48,31,1367598692
35,8,9,Ticks_ISO_T2_8,163,5,42,127,1367629416
35,8,9,Ticks_ISO_T2_8,164,1,48,44,1368377632
35,8,9,Ticks_ISO_T2_8,165,5,42,127,1368428852
35,8,9,Ticks_ISO_T2_8,166,1,48,31,1369142360
35,8,9,Ticks_ISO_T2_8,167,5,42,127,1369228732
35,8,9,Ticks_ISO_T2_8,168,5,42,127,1370029448
35,8,9,Ticks_ISO_T2_8,169,1,48,28,1370036828
35,8,9,Ticks_ISO_T2_8,170,1,48,36,1370750228
35,8,9,Ticks_ISO_T2_8,171,5,42,127,1370829320
35,8,9,Ticks_ISO_T2_8,172,1,48,43,1371524904
35,8,9,Ticks_ISO_T2_8,173,5,42,127,1371629116
35,8,9,Ticks_ISO_T2_8,174,1,48,38,1372289260
35,8,9,Ticks_ISO_T2_8,175,5,42,127,1372428772
35,8,9,Ticks_ISO_T2_8,176,1,48,35,1373129456
35,8,9,Ticks_ISO_T2_8,177,5,42,127,1373229556
35,8,9,Ticks_ISO_T2_8,178,1,48,42,1373982296
35,8,9,Ticks_ISO_T2_8,179,5,42,127,1374029256
35,8,9,Ticks_ISO_T2_8,180,1,48,36,1374741640
35,8,9,Ticks_ISO_T2_8,181,5,42,127,1374829060
35,8,9,Ticks_ISO_T2_8,182,1,48,36,1375579020
35,8,9,Ticks_ISO_T2_8,183,5,42,127,1375628644
35,8,9,Ticks_ISO_T2_8,184,1,48,31,1376380400
35,8,9,Ticks_ISO_T2_8,185,5,42,127,1376429352
35,8,9,Ticks_ISO_T2_8,186,1,48,37,1377204516
35,8,9,Ticks_ISO_T2_8,187,5,42,127,1377229160
35,8,9,Ticks_ISO_T2_8,188,1,48,42,1377944040
35,8,9,Ticks_ISO_T2_8,189,5,42,127,1378029116
35,8,9,Ticks_ISO_T2_8,190,1,48,35,1378803308
35,8,9,Ticks_ISO_T2_8,191,5,42,127,1378828552
35,8,9,Ticks_ISO_T2_8,192,1,48,37,1379572524
35,8,9,Ticks_ISO_T2_8,193,5,42,127,1379629408
35,8,9,Ticks_ISO_T2_8,194,1,48,37,1380396048
35,8,9,Ticks_ISO_T2_8,195,5,42,127,1380429088
35,8,9,Ticks_ISO_T2_8,196,1,48,37,1381202460
35,8,9,Ticks_ISO_T2_8,197,5,42,127,1381229120
35,8,9,Ticks_ISO_T2_8,198,1,48,32,1381987984
35,8,9,Ticks_ISO_T2_8,199,5,42,127,1382028632
35,8,9,Ticks_ISO_T2_8,200,1,48,33,1382810156
35,8,9,Ticks_ISO_T2_8,201,5,42,127,1382829412
35,8,9,Ticks_ISO_T2_8,202,1,48,32,1383571520
35,8,9,Ticks_ISO_T2_8,203,5,42,127,1383629220
35,8,9,Ticks_ISO_T2_8,204,5,42,127,1384428884
35,8,9,Ticks_ISO_T2_8,205,1,48,20,1384431632
35,8,9,Ticks_ISO_T2_8,206,1,48,26,1385215856
35,8,9,Ticks_ISO_T2_8,207,5,42,127,1385228760
35,8,9,Ticks_ISO_T2_8,208,1,48,27,1385981412
35,8,9,Ticks_ISO_T2_8,209,5,42,127,1386029392
35,8,9,Ticks_ISO_T2_8,210,1,48,34,1386795280
35,8,9,Ticks_ISO_T2_8,211,5,42,127,1386829072
35,8,9,Ticks_ISO_T2_8,212,1,48,38,1387563152
35,8,9,Ticks_ISO_T2_8,213,5,42,127,1387628880
35,8,9,Ticks_ISO_T2_8,214,1,48,31,1388336852
35,8,9,Ticks_ISO_T2_8,215,5,42,127,1388429720
35,8,9,Ticks_ISO_T2_8,216,1,48,41,1389131828
35,8,9,Ticks_ISO_T2_8,217,5,42,127,1389229616
35,8,9,Ticks_ISO_T2_8,218,1,48,36,1389947416
35,8,9,Ticks_ISO_T2_8,219,5,42,127,1390029128
35,8,9,Ticks_ISO_T2_8,220,1,48,29,1390706456
35,8,9,Ticks_ISO_T2_8,221,5,42,127,1390828848
35,8,9,Ticks_ISO_T2_8,222,1,48,38,1391487496
35,8,9,Ticks_ISO_T2_8,223,5,42,127,1391628804
35,8,9,Ticks_ISO_T2_8,224,1,48,43,1392335100
35,8,9,Ticks_ISO_T2_8,225,5,42,127,1392429732
35,8,9,Ticks_ISO_T2_8,226,1,48,37,1393141788
35,8,9,Ticks_ISO_T2_8,227,5,42,127,1393229208
35,8,9,Ticks_ISO_T2_8,228,1,48,34,1393959324
35,8,9,Ticks_ISO_T2_8,229,5,42,127,1394028868
35,8,9,Ticks_ISO_T2_8,230,1,48,34,1394775008
35,8,9,Ticks_ISO_T2_8,231,5,42,127,1394828676
35,8,9,Ticks_ISO_T2_8,232,1,48,34,1395548716
35,8,9,Ticks_ISO_T2_8,233,5,42,127,1395629380
35,8,9,Ticks_ISO_T2_8,234,1,48,30,1396350020
35,8,9,Ticks_ISO_T2_8,235,5,42,127,1396429188
35,8,9,Ticks_ISO_T2_8,236,1,48,35,1397189844
35,8,9,Ticks_ISO_T2_8,0,9999,9999,9999,1301226548
35,8,9,Ticks_ISO_T2_8,1,9999,9999,9999,1302026304
35,8,9,Ticks_ISO_T2_8,2,9999,9999,9999,1302827104
35,8,9,Ticks_ISO_T2_8,3,9999,9999,9999,1303626808
35,8,9,Ticks_ISO_T2_8,4,9999,9999,9999,1304426616
35,8,9,Ticks_ISO_T2_8,5,9999,9999,9999,1305226348
35,8,9,Ticks_ISO_T2_8,6,9999,9999,9999,1306027128
35,8,9,Ticks_ISO_T2_8,7,9999,9999,9999,1306826804
35,8,9,Ticks_ISO_T2_8,8,9999,9999,9999,1307626608
35,8,9,Ticks_ISO_T2_8,9,9999,9999,9999,1308426344
35,8,9,Ticks_ISO_T2_8,10,9999,9999,9999,1309227124
35,8,9,Ticks_ISO_T2_8,11,9999,9999,9999,1310026868
35,8,9,Ticks_ISO_T2_8,12,9999,9999,9999,1310826616
35,8,9,Ticks_ISO_T2_8,13,9999,9999,9999,1311626348
35,8,9,Ticks_ISO_T2_8,14,9999,9999,9999,1312427128
35,8,9,Ticks_ISO_T2_8,15,9999,9999,9999,1313226864
35,8,9,Ticks_ISO_T2_8,16,9999,9999,9999,1314026596
35,8,9,Ticks_ISO_T2_8,17,9999,9999,9999,1314826332
35,8,9,Ticks_ISO_T2_8,18,9999,9999,9999,1315627096
35,8,9,Ticks_ISO_T2_8,19,9999,9999,9999,1316426852
35,8,9,Ticks_ISO_T2_8,20,9999,9999,9999,1317226600
35,8,9,Ticks_ISO_T2_8,21,9999,9999,9999,1318026336
35,8,9,Ticks_ISO_T2_8,22,9999,9999,9999,1318827112
35,8,9,Ticks_ISO_T2_8,23,9999,9999,9999,1319626848
35,8,9,Ticks_ISO_T2_8,24,9999,9999,9999,1320426580
35,8,9,Ticks_ISO_T2_8,25,9999,9999,9999,1321226316
35,8,9,Ticks_ISO_T2_8,26,9999,9999,9999,1322027096
35,8,9,Ticks_ISO_T2_8,27,9999,9999,9999,1322826836
35,8,9,Ticks_ISO_T2_8,28,9999,9999,9999,1323626584
35,8,9,Ticks_ISO_T2_8,29,9999,9999,9999,1324426320
35,8,9,Ticks_ISO_T2_8,30,9999,9999,9999,1325227100
35,8,9,Ticks_ISO_T2_8,31,9999,9999,9999,1326026816
35,8,9,Ticks_ISO_T2_8,32,9999,9999,9999,1326826552
35,8,9,Ticks_ISO_T2_8,33,9999,9999,9999,1327626360
35,8,9,Ticks_ISO_T2_8,34,9999,9999,9999,1328427064
35,8,9,Ticks_ISO_T2_8,35,9999,9999,9999,1329226836
35,8,9,Ticks_ISO_T2_8,36,9999,9999,9999,1330026556
35,8,9,Ticks_ISO_T2_8,37,9999,9999,9999,1330826304
35,8,9,Ticks_ISO_T2_8,38,9999,9999,9999,1331627084
35,8,9,Ticks_ISO_T2_8,39,9999,9999,9999,1332426816
35,8,9,Ticks_ISO_T2_8,40,9999,9999,9999,1333226548
35,8,9,Ticks_ISO_T2_8,41,9999,9999,9999,1334026360
35,8,9,Ticks_ISO_T2_8,42,9999,9999,9999,1334827064
35,8,9,Ticks_ISO_T2_8,43,9999,9999,9999,1335626824
35,8,9,Ticks_ISO_T2_8,44,9999,9999,9999,1336426556
35,8,9,Ticks_ISO_T2_8,45,9999,9999,9999,1337226348
35,8,9,Ticks_ISO_T2_8,46,9999,9999,9999,1338027128
35,8,9,Ticks_ISO_T2_8,47,9999,9999,9999,1338826800
35,8,9,Ticks_ISO_T2_8,48,9999,9999,9999,1339626592
35,8,9,Ticks_ISO_T2_8,49,9999,9999,9999,1340426340
35,8,9,Ticks_ISO_T2_8,50,9999,9999,9999,1341227108
35,8,9,Ticks_ISO_T2_8,51,9999,9999,9999,1342026868
35,8,9,Ticks_ISO_T2_8,52,9999,9999,9999,1342826600
35,8,9,Ticks_ISO_T2_8,53,9999,9999,9999,1343626348
35,8,9,Ticks_ISO_T2_8,54,9999,9999,9999,1344427112
35,8,9,Ticks_ISO_T2_8,55,9999,9999,9999,1345226864
35,8,9,Ticks_ISO_T2_8,56,9999,9999,9999,1346026596
35,8,9,Ticks_ISO_T2_8,57,9999,9999,9999,1346826332
35,8,9,Ticks_ISO_T2_8,58,9999,9999,9999,1347627100
35,8,9,Ticks_ISO_T2_8,59,9999,9999,9999,1348426856
35,8,9,Ticks_ISO_T2_8,60,9999,9999,9999,1349226608
35,8,9,Ticks_ISO_T2_8,61,9999,9999,9999,1350026340
35,8,9,Ticks_ISO_T2_8,62,9999,9999,9999,1350827120
35,8,9,Ticks_ISO_T2_8,63,9999,9999,9999,1351626856
35,8,9,Ticks_ISO_T2_8,64,9999,9999,9999,1352426588
35,8,9,Ticks_ISO_T2_8,65,9999,9999,9999,1353226320
35,8,9,Ticks_ISO_T2_8,66,9999,9999,9999,1354027100
35,8,9,Ticks_ISO_T2_8,67,9999,9999,9999,1354826856
35,8,9,Ticks_ISO_T2_8,68,9999,9999,9999,1355626576
35,8,9,Ticks_ISO_T2_8,69,9999,9999,9999,1356426324
35,8,9,Ticks_ISO_T2_8,70,9999,9999,9999,1357227104
35,8,9,Ticks_ISO_T2_8,71,9999,9999,9999,1358026820
35,8,9,Ticks_ISO_T2_8,72,9999,9999,9999,1358826556
35,8,9,Ticks_ISO_T2_8,73,9999,9999,9999,1359626288
35,8,9,Ticks_ISO_T2_8,74,9999,9999,9999,1360427084
35,8,9,Ticks_ISO_T2_8,75,9999,9999,9999,1361226844
35,8,9,Ticks_ISO_T2_8,76,9999,9999,9999,1362026576
35,8,9,Ticks_ISO_T2_8,77,9999,9999,9999,1362826308
35,8,9,Ticks_ISO_T2_8,78,9999,9999,9999,1363627088
35,8,9,Ticks_ISO_T2_8,79,9999,9999,9999,1364426824
35,8,9,Ticks_ISO_T2_8,80,9999,9999,9999,1365226560
35,8,9,Ticks_ISO_T2_8,81,9999,9999,9999,1366026292
35,8,9,Ticks_ISO_T2_8,82,9999,9999,9999,1366827072
35,8,9,Ticks_ISO_T2_8,83,9999,9999,9999,1367626828
35,8,9,Ticks_ISO_T2_8,84,9999,9999,9999,1368426564
35,8,9,Ticks_ISO_T2_8,85,9999,9999,9999,1369226296
35,8,9,Ticks_ISO_T2_8,86,9999,9999,9999,1370027084
35,8,9,Ticks_ISO_T2_8,87,9999,9999,9999,1370826812
35,8,9,Ticks_ISO_T2_8,88,9999,9999,9999,1371626604
35,8,9,Ticks_ISO_T2_8,89,9999,9999,9999,1372426336
35,8,9,Ticks_ISO_T2_8,90,9999,9999,9999,1373227116
35,8,9,Ticks_ISO_T2_8,91,9999,9999,9999,1374026820
35,8,9,Ticks_ISO_T2_8,92,9999,9999,9999,1374826552
35,8,9,Ticks_ISO_T2_8,93,9999,9999,9999,1375626356
35,8,9,Ticks_ISO_T2_8,94,9999,9999,9999,1376427064
35,8,9,Ticks_ISO_T2_8,95,9999,9999,9999,1377226872
35,8,9,Ticks_ISO_T2_8,96,9999,9999,9999,1378026604
35,8,9,Ticks_ISO_T2_8,97,9999,9999,9999,1378826340
35,8,9,Ticks_ISO_T2_8,98,9999,9999,9999,1379627120
35,8,9,Ticks_ISO_T2_8,99,9999,9999,9999,1380426800
35,8,9,Ticks_ISO_T2_8,100,9999,9999,9999,1381226612
35,8,9,Ticks_ISO_T2_8,101,9999,9999,9999,1382026344
35,8,9,Ticks_ISO_T2_8,102,9999,9999,9999,1382827124
35,8,9,Ticks_ISO_T2_8,103,9999,9999,9999,1383626856
35,8,9,Ticks_ISO_T2_8,104,9999,9999,9999,1384426596
35,8,9,Ticks_ISO_T2_8,105,9999,9999,9999,1385226324
35,8,9,Ticks_ISO_T2_8,106,9999,9999,9999,1386027104
35,8,9,Ticks_ISO_T2_8,107,9999,9999,9999,1386826860
35,8,9,Ticks_ISO_T2_8,108,9999,9999,9999,1387626592
35,8,9,Ticks_ISO_T2_8,109,9999,9999,9999,1388426328
35,8,9,Ticks_ISO_T2_8,110,9999,9999,9999,1389227108
35,8,9,Ticks_ISO_T2_8,111,9999,9999,9999,1390026840
35,8,9,Ticks_ISO_T2_8,112,9999,9999,9999,1390826560
35,8,9,Ticks_ISO_T2_8,113,9999,9999,9999,1391626292
35,8,9,Ticks_ISO_T2_8,114,9999,9999,9999,1392427120
35,8,9,Ticks_ISO_T2_8,115,9999,9999,9999,1393226848
35,8,9,Ticks_ISO_T2_8,116,9999,9999,9999,1394026580
35,8,9,Ticks_ISO_T2_8,117,9999,9999,9999,1394826312
35,8,9,Ticks_ISO_T2_8,118,9999,9999,9999,1395627092
35,8,9,Ticks_ISO_T2_8,119,9999,9999,9999,1396426824
35,9,21,Ticks_Linear_5,0,5,42,127,1433012468
35,9,21,Ticks_Linear_5,1,5,42,127,1433492796
35,9,21,Ticks_Linear_5,2,5,42,127,1433973340
35,9,21,Ticks_Linear_5,3,5,42,127,1434453368
35,9,21,Ticks_Linear_5,4,5,42,127,1434932620
35,9,21,Ticks_Linear_5,5,1,48,47,1434977628
35,9,21,Ticks_Linear_5,6,1,48,41,1435405460
35,9,21,Ticks_Linear_5,7,5,42,127,1435423024
35,9,21,Ticks_Linear_5,8,1,48,37,1435870260
35,9,21,Ticks_Linear_5,9,5,42,127,1435912616
35,9,21,Ticks_Linear_5,10,1,48,42,1436366736
35,9,21,Ticks_Linear_5,11,5,42,127,1436403176
35,9,21,Ticks_Linear_5,12,1,48,37,1436851020
35,9,21,Ticks_Linear_5,13,5,42,127,1436892472
35,9,21,Ticks_Linear_5,14,1,48,32,1437289376
35,9,21,Ticks_Linear_5,15,5,42,127,1437383184
35,9,21,Ticks_Linear_5,16,1,48,33,1437807428
35,9,21,Ticks_Linear_5,17,5,42,127,1437882660
35,9,21,Ticks_Linear_5,18,1,48,37,1438292008
35,9,21,Ticks_Linear_5,19,5,42,127,1438382360
35,9,21,Ticks_Linear_5,20,1,48,36,1438817160
35,9,21,Ticks_Linear_5,21,5,42,127,1438883180
35,9,21,Ticks_Linear_5,22,1,48,33,1439310712
35,9,21,Ticks_Linear_5,23,5,42,127,1439383028
35,9,21,Ticks_Linear_5,24,1,48,35,1439796988
35,9,21,Ticks_Linear_5,25,5,42,127,1439882504
35,9,21,Ticks_Linear_5,26,1,48,33,1440323680
35,9,21,Ticks_Linear_5,27,5,42,127,1440392688
35,9,21,Ticks_Linear_5,28,1,48,36,1440861496
35,9,21,Ticks_Linear_5,29,5,42,127,1440902644
35,9,21,Ticks_Linear_5,30,1,48,32,1441329188
35,9,21,Ticks_Linear_5,31,5,42,127,1441412528
35,9,21,Ticks_Linear_5,32,1,48,35,1441821404
35,9,21,Ticks_Linear_5,33,5,42,127,1441922324
35,9,21,Ticks_Linear_5,34,1,48,39,1442346556
35,9,21,Ticks_Linear_5,35,5,42,127,1442433420
35,9,21,Ticks_Linear_5,36,1,48,38,1442888968
35,9,21,Ticks_Linear_5,37,5,42,127,1442952520
35,9,21,Ticks_Linear_5,38,1,48,38,1443375388
35,9,21,Ticks_Linear_5,39,5,42,127,1443472868
35,9,21,Ticks_Linear_5,40,1,48,40,1443911588
35,9,21,Ticks_Linear_5,41,5,42,127,1443993104
35,9,21,Ticks_Linear_5,42,1,48,37,1444438692
35,9,21,Ticks_Linear_5,43,5,42,127,1444513024
35,9,21,Ticks_Linear_5,44,1,48,38,1444924388
35,9,21,Ticks_Linear_5,45,5,42,127,1445033376
35,9,21,Ticks_Linear_5,46,1,48,39,1445490656
35,9,21,Ticks_Linear_5,47,5,42,127,1445562972
35,9,21,Ticks_Linear_5,48,1,48,36,1446014476
35,9,21,Ticks_Linear_5,49,5,42,127,1446093148
35,9,21,Ticks_Linear_5,50,1,48,34,1446540544
35,9,21,Ticks_Linear_5,51,5,42,127,1446622728
35,9,21,Ticks_Linear_5,52,1,48,38,1447083076
35,9,21,Ticks_Linear_5,53,5,42,127,1447153132
35,9,21,Ticks_Linear_5,54,1,48,35,1447661932
35,9,21,Ticks_Linear_5,55,5,42,127,1447682416
35,9,21,Ticks_Linear_5,56,1,48,32,1448141264
35,9,21,Ticks_Linear_5,57,5,42,127,1448223076
35,9,21,Ticks_Linear_5,58,1,48,38,1448678248
35,9,21,Ticks_Linear_5,59,5,42,127,1448763012
35,9,21,Ticks_Linear_5,60,1,48,40,1449226628
35,9,21,Ticks_Linear_5,61,5,42,127,1449303452
35,9,21,Ticks_Linear_5,62,1,48,39,1449734712
35,9,21,Ticks_Linear_5,63,5,42,127,1449843276
35,9,21,Ticks_Linear_5,64,1,48,33,1450322656
35,9,21,Ticks_Linear_5,65,5,42,127,1450382904
35,9,21,Ticks_Linear_5,66,1,48,32,1450870724
35,9,21,Ticks_Linear_5,67,5,42,127,1450932856
35,9,21,Ticks_Linear_5,68,1,48,40,1451448688
35,9,21,Ticks_Linear_5,69,5,42,127,1451482356
35,9,21,Ticks_Linear_5,70,1,48,39,1451952956
35,9,21,Ticks_Linear_5,71,5,42,127,1452033276
35,9,21,Ticks_Linear_5,72,1,48,39,1452486204
35,9,21,Ticks_Linear_5,73,5,42,127,1452583284
35,9,21,Ticks_Linear_5,74,1,48,39,1453006948
35,9,21,Ticks_Linear_5,75,5,42,127,1453133036
35,9,21,Ticks_Linear_5,76,1,48,40,1453598528
35,9,21,Ticks_Linear_5,77,5,42,127,1453693316
35,9,21,Ticks_Linear_5,78,1,48,38,1454135924
35,9,21,Ticks_Linear_5,79,5,42,127,1454253600
35,9,21,Ticks_Linear_5,80,1,48,36,1454709308
35,9,21,Ticks_Linear_5,81,5,42,127,1454822648
35,9,21,Ticks_Linear_5,82,1,48,41,1455255292
35,9,21,Ticks_Linear_5,83,5,42,127,1455382928
35,9,21,Ticks_Linear_5,84,1,48,40,1455789960
35,9,21,Ticks_Linear_5,85,5,42,127,1455943016
35,9,21,Ticks_Linear_5,86,1,48,33,1456365004
35,9,21,Ticks_Linear_5,87,5,42,127,1456513480
35,9,21,Ticks_Linear_5,88,1,48,37,1456984548
35,9,21,Ticks_Linear_5,89,5,42,127,1457082676
35,9,21,Ticks_Linear_5,90,1,48,30,1457593364
35,9,21,Ticks_Linear_5,91,5,42,127,1457653156
35,9,21,Ticks_Linear_5,92,1,48,36,1458183672
35,9,21,Ticks_Linear_5,93,5,42,127,1458222728
35,9,21,Ticks_Linear_5,94,1,48,32,1458721788
35,9,21,Ticks_Linear_5,95,5,42,127,1458792920
35,9,21,Ticks_Linear_5,96,1,48,38,1459289052
35,9,21,Ticks_Linear_5,97,5,42,127,1459373648
35,9,21,Ticks_Linear_5,98,1,48,41,1459846424
35,9,21,Ticks_Linear_5,99,5,42,127,1459963496
35,9,21,Ticks_Linear_5,100,1,48,32,1460438232
35,9,21,Ticks_Linear_5,101,5,42,127,1460542976
35,9,21,Ticks_Linear_5,102,1,48,36,1461031916
35,9,21,Ticks_Linear_5,103,5,42,127,1461122520
35,9,21,Ticks_Linear_5,104,1,48,31,1461590508
35,9,21,Ticks_Linear_5,105,5,42,127,1461703008
35,9,21,Ticks_Linear_5,106,1,48,38,1462208748
35,9,21,Ticks_Linear_5,107,5,42,127,1462292888
35,9,21,Ticks_Linear_5,108,1,48,32,1462801836
35,9,21,Ticks_Linear_5,109,5,42,127,1462882628
35,9,21,Ticks_Linear_5,110,1,48,30,1463383632
35,9,21,Ticks_Linear_5,111,5,42,127,1463472492
35,9,21,Ticks_Linear_5,112,1,48,32,1463902804
35,9,21,Ticks_Linear_5,113,5,42,127,1464063532
35,9,21,Ticks_Linear_5,114,1,48,34,1464605444
35,9,21,Ticks_Linear_5,115,5,42,127,1464653364
35,9,21,Ticks_Linear_5,116,1,48,30,1465215552
35,9,21,Ticks_Linear_5,117,5,42,127,1465253484
35,9,21,Ticks_Linear_5,118,1,48,34,1465798296
35,9,21,Ticks_Linear_5,119,5,42,127,1465853532
35,9,21,Ticks_Linear_5,120,1,48,37,1466361584
35,9,21,Ticks_Linear_5,121,5,42,127,1466453236
35,9,21,Ticks_Linear_5,122,1,48,24,1467015944
35,9,21,Ticks_Linear_5,123,5,42,127,1467053356
35,9,21,Ticks_Linear_5,124,1,48,34,1467579292
35,9,21,Ticks_Linear_5,125,5,42,127,1467662620
35,9,21,Ticks_Linear_5,126,1,48,39,1468199860
35,9,21,Ticks_Linear_5,127,5,42,127,1468272876
35,9,21,Ticks_Linear_5,128,1,48,32,1468795372
35,9,21,Ticks_Linear_5,129,5,42,127,1468883184
35,9,21,Ticks_Linear_5,130,1,48,32,1469380668
35,9,21,Ticks_Linear_5,131,5,42,127,1469492532
35,9,21,Ticks_Linear_5,132,1,48,38,1470037284
35,9,21,Ticks_Linear_5,133,5,42,127,1470102852
35,9,21,Ticks_Linear_5,134,1,48,31,1470609392
35,9,21,Ticks_Linear_5,135,5,42,127,1470713144
35,9,21,Ticks_Linear_5,136,1,48,40,1471187652
35,9,21,Ticks_Linear_5,137,5,42,127,1471332616
35,9,21,Ticks_Linear_5,138,1,48,32,1471821804
35,9,21,Ticks_Linear_5,139,5,42,127,1471953256
35,9,21,Ticks_Linear_5,140,1,48,31,1472502284
35,9,21,Ticks_Linear_5,141,5,42,127,1472572744
35,9,21,Ticks_Linear_5,142,1,48,31,1473142948
35,9,21,Ticks_Linear_5,143,5,42,127,1473193308
35,9,21,Ticks_Linear_5,144,1,48,28,1473771608
35,9,21,Ticks_Linear_5,145,5,42,127,1473813052
35,9,21,Ticks_Linear_5,146,1,48,33,1474347084
35,9,21,Ticks_Linear_5,147,5,42,127,1474442544
35,9,21,Ticks_Linear_5,148,1,48,27,1474992472
35,9,21,Ticks_Linear_5,149,5,42,127,1475073460
35,9,21,Ticks_Linear_5,150,1,48,31,1475598952
35,9,21,Ticks_Linear_5,151,5,42,127,1475703100
35,9,21,Ticks_Linear_5,152,1,48,28,1476234752
35,9,21,Ticks_Linear_5,153,5,42,127,1476333104
35,9,21,Ticks_Linear_5,154,1,48,29,1476880100
35,9,21,Ticks_Linear_5,155,5,42,127,1476962552
35,9,21,Ticks_Linear_5,156,1,48,23,1477539484
35,9,21,Ticks_Linear_5,157,5,42,127,1477602884
35,9,21,Ticks_Linear_5,158,1,48,24,1478177956
35,9,21,Ticks_Linear_5,159,5,42,127,1478242724
35,9,21,Ticks_Linear_5,160,1,48,27,1478822292
35,9,21,Ticks_Linear_5,161,5,42,127,1478882764
35,9,21,Ticks_Linear_5,162,1,48,30,1479467044
35,9,21,Ticks_Linear_5,163,5,42,127,1479522752
35,9,21,Ticks_Linear_5,164,1,48,28,1480123660
35,9,21,Ticks_Linear_5,165,5,42,127,1480162640
35,9,21,Ticks_Linear_5,166,1,48,32,1480769184
35,9,21,Ticks_Linear_5,167,5,42,127,1480812816
35,9,21,Ticks_Linear_5,168,1,48,32,1481404956
35,9,21,Ticks_Linear_5,169,5,42,127,1481463188
35,9,21,Ticks_Linear_5,170,1,48,19,1482039404
35,9,21,Ticks_Linear_5,171,5,42,127,1482113508
35,9,21,Ticks_Linear_5,172,1,48,43,1482675844
35,9,21,Ticks_Linear_5,173,5,42,127,1482762608
35,9,21,Ticks_Linear_5,174,1,48,40,1483313492
35,9,21,Ticks_Linear_5,175,5,42,127,1483412768
35,9,21,Ticks_Linear_5,176,1,48,29,1484001184
35,9,21,Ticks_Linear_5,177,5,42,127,1484073336
35,9,21,Ticks_Linear_5,178,1,48,29,1484638548
35,9,21,Ticks_Linear_5,179,5,42,127,1484732856
35,9,21,Ticks_Linear_5,180,1,48,40,1485263684
35,9,21,Ticks_Linear_5,181,5,42,127,1485393364
35,9,21,Ticks_Linear_5,182,1,48,33,1485959532
35,9,21,Ticks_Linear_5,183,5,42,127,1486054144
35,9,21,Ticks_Linear_5,184,1,48,36,1486642564
35,9,21,Ticks_Linear_5,185,5,42,127,1486713148
35,9,21,Ticks_Linear_5,186,1,48,33,1487295704
35,9,21,Ticks_Linear_5,187,5,42,127,1487382840
35,9,21,Ticks_Linear_5,188,1,48,36,1487958680
35,9,21,Ticks_Linear_5,189,5,42,127,1488052784
35,9,21,Ticks_Linear_5,190,1,48,33,1488601724
35,9,21,Ticks_Linear_5,191,5,42,127,1488723756
35,9,21,Ticks_Linear_5,192,1,48,32,1489309548
35,9,21,Ticks_Linear_5,193,5,42,127,1489393096
35,9,21,Ticks_Linear_5,194,1,48,38,1489980556
35,9,21,Ticks_Linear_5,195,5,42,127,1490062664
35,9,21,Ticks_Linear_5,196,1,48,35,1490647988
35,9,21,Ticks_Linear_5,197,5,42,127,1490742644
35,9,21,Ticks_Linear_5,198,1,48,30,1491338532
35,9,21,Ticks_Linear_5,199,5,42,127,1491422748
35,9,21,Ticks_Linear_5,200,1,48,29,1492000136
35,9,21,Ticks_Linear_5,201,5,42,127,1492102416
35,9,21,Ticks_Linear_5,202,1,48,35,1492679512
35,9,21,Ticks_Linear_5,203,5,42,127,1492782440
35,9,21,Ticks_Linear_5,204,1,48,31,1493349904
35,9,21,Ticks_Linear_5,205,5,42,127,1493463688
35,9,21,Ticks_Linear_5,206,1,48,37,1494034884
35,9,21,Ticks_Linear_5,207,5,42,127,1494152432
35,9,21,Ticks_Linear_5,208,1,48,29,1494688644
35,9,21,Ticks_Linear_5,209,5,42,127,1494842744
35,9,21,Ticks_Linear_5,210,1,48,35,1495373272
35,9,21,Ticks_Linear_5,211,5,42,127,1495532808
35,9,21,Ticks_Linear_5,212,1,48,36,1496150236
35,9,21,Ticks_Linear_5,213,5,42,127,1496223136
35,9,21,Ticks_Linear_5,214,1,48,33,1496852052
35,9,21,Ticks_Linear_5,215,5,42,127,1496913520
35,9,21,Ticks_Linear_5,216,1,48,34,1497573892
35,9,21,Ticks_Linear_5,217,5,42,127,1497612724
35,9,21,Ticks_Linear_5,218,1,48,38,1498253572
35,9,21,Ticks_Linear_5,219,5,42,127,1498313220
35,9,21,Ticks_Linear_5,220,1,48,31,1498922368
35,9,21,Ticks_Linear_5,221,5,42,127,1499012448
35,9,21,Ticks_Linear_5,222,1,48,34,1499670036
35,9,21,Ticks_Linear_5,223,5,42,127,1499712868
35,9,21,Ticks_Linear_5,224,1,48,27,1500331972
35,9,21,Ticks_Linear_5,225,5,42,127,1500413416
35,9,21,Ticks_Linear_5,226,1,48,28,1501071868
35,9,21,Ticks_Linear_5,227,5,42,127,1501123052
35,9,21,Ticks_Linear_5,228,1,48,28,1501705236
35,9,21,Ticks_Linear_5,229,5,42,127,1501832668
35,9,21,Ticks_Linear_5,230,1,48,35,1502420700
35,9,21,Ticks_Linear_5,231,5,42,127,1502543348
35,9,21,Ticks_Linear_5,232,1,48,31,1503148316
35,9,21,Ticks_Linear_5,233,5,42,127,1503252884
35,9,21,Ticks_Linear_5,234,1,48,31,1503855548
35,9,21,Ticks_Linear_5,235,5,42,127,1503962444
35,9,21,Ticks_Linear_5,236,1,48,28,1504596784
35,9,21,Ticks_Linear_5,237,5,42,127,1504683324
35,9,21,Ticks_Linear_5,238,1,48,27,1505296736
35,9,21,Ticks_Linear_5,239,5,42,127,1505403204
35,9,21,Ticks_Linear_5,240,1,48,32,1506038944
35,9,21,Ticks_Linear_5,241,5,42,127,1506123112
35,9,21,Ticks_Linear_5,242,1,48,31,1506750684
35,9,21,Ticks_Linear_5,243,5,42,127,1506842980
35,9,21,Ticks_Linear_5,244,1,48,26,1507502624
35,9,21,Ticks_Linear_5,245,5,42,127,1507563096
35,9,21,Ticks_Linear_5,246,1,48,32,1508183424
35,9,21,Ticks_Linear_5,247,5,42,127,1508293084
35,9,21,Ticks_Linear_5,248,1,48,31,1508930120
35,9,21,Ticks_Linear_5,249,5,42,127,1509022952
35,9,21,Ticks_Linear_5,250,1,48,26,1509616216
35,9,21,Ticks_Linear_5,251,5,42,127,1509753236
35,9,21,Ticks_Linear_5,252,1,48,34,1510350036
35,9,21,Ticks_Linear_5,253,5,42,127,1510483392
35,9,21,Ticks_Linear_5,254,1,48,30,1511042528
35,9,21,Ticks_Linear_5,255,5,42,127,1511213296
35,9,21,Ticks_Linear_5,256,1,48,34,1511735312
35,9,21,Ticks_Linear_5,257,5,42,127,1511963144
35,9,21,Ticks_Linear_5,258,1,48,30,1512618900
35,9,21,Ticks_Linear_5,259,5,42,127,1512703348
35,9,21,Ticks_Linear_5,260,1,48,27,1513332216
35,9,21,Ticks_Linear_5,261,5,42,127,1513442696
35,9,21,Ticks_Linear_5,262,1,48,29,1514077492
35,9,21,Ticks_Linear_5,263,5,42,127,1514183032
35,9,21,Ticks_Linear_5,264,1,48,27,1514917724
35,9,21,Ticks_Linear_5,265,5,42,127,1514923384
35,9,21,Ticks_Linear_5,266,1,48,27,1515664280
35,9,21,Ticks_Linear_5,267,5,42,127,1515672860
35,9,21,Ticks_Linear_5,268,1,48,24,1516406864
35,9,21,Ticks_Linear_5,269,5,42,127,1516422704
35,9,21,Ticks_Linear_5,270,1,48,29,1517099916
35,9,21,Ticks_Linear_5,271,5,42,127,1517173004
35,9,21,Ticks_Linear_5,272,1,48,26,1517906332
35,9,21,Ticks_Linear_5,273,5,42,127,1517922776
35,9,21,Ticks_Linear_5,274,1,48,28,1518592656
35,9,21,Ticks_Linear_5,275,5,42,127,1518673300
35,9,21,Ticks_Linear_5,276,1,48,29,1519362056
35,9,21,Ticks_Linear_5,277,5,42,127,1519433032
35,9,21,Ticks_Linear_5,278,1,48,13,1519468036
35,9,21,Ticks_Linear_5,279,1,48,26,1520043800
35,9,21,Ticks_Linear_5,280,5,42,127,1520193028
35,9,21,Ticks_Linear_5,281,1,48,28,1520933168
35,9,21,Ticks_Linear_5,282,5,42,127,1520952556
35,9,21,Ticks_Linear_5,283,1,48,29,1521639124
35,9,21,Ticks_Linear_5,284,5,42,127,1521712808
35,9,21,Ticks_Linear_5,285,1,48,28,1522433832
35,9,21,Ticks_Linear_5,286,5,42,127,1522473268
35,9,21,Ticks_Linear_5,287,1,48,30,1523136352
35,9,21,Ticks_Linear_5,288,5,42,127,1523243396
35,9,21,Ticks_Linear_5,289,1,48,33,1523870096
35,9,21,Ticks_Linear_5,290,5,42,127,1524013536
35,9,21,Ticks_Linear_5,291,1,48,35,1524647432
35,9,21,Ticks_Linear_5,292,5,42,127,1524792768
35,9,21,Ticks_Linear_5,293,1,48,30,1525486320
35,9,21,Ticks_Linear_5,294,5,42,127,1525562700
35,9,21,Ticks_Linear_5,295,1,48,19,1525576740
35,9,21,Ticks_Linear_5,296,1,48,34,1526306920
35,9,21,Ticks_Linear_5,297,5,42,127,1526332672
35,9,21,Ticks_Linear_5,298,1,48,35,1527058712
35,9,21,Ticks_Linear_5,299,5,42,127,1527113296
35,9,21,Ticks_Linear_5,300,1,48,34,1527828556
35,9,21,Ticks_Linear_5,301,5,42,127,1527893620
35,9,21,Ticks_Linear_5,302,1,48,34,1528573240
35,9,21,Ticks_Linear_5,303,5,42,127,1528672592
35,9,21,Ticks_Linear_5,304,1,48,31,1529379692
35,9,21,Ticks_Linear_5,305,5,42,127,1529452860
35,9,21,Ticks_Linear_5,306,1,48,26,1530192856
35,9,21,Ticks_Linear_5,307,5,42,127,1530233332
35,9,21,Ticks_Linear_5,308,1,48,32,1531021452
35,9,21,Ticks_Linear_5,309,5,42,127,1531023244
35,9,21,Ticks_Linear_5,310,1,48,28,1531733444
35,9,21,Ticks_Linear_5,311,5,42,127,1531813460
35,9,21,Ticks_Linear_5,312,1,48,29,1532475800
35,9,21,Ticks_Linear_5,313,1,48,15,1532571716
35,9,21,Ticks_Linear_5,314,5,42,127,1532602680
35,9,21,Ticks_Linear_5,315,1,48,25,1533302840
35,9,21,Ticks_Linear_5,316,5,42,127,1533393336
35,9,21,Ticks_Linear_5,317,1,48,32,1534124204
35,9,21,Ticks_Linear_5,318,5,42,127,1534182732
35,9,21,Ticks_Linear_5,319,1,48,31,1534937256
35,9,21,Ticks_Linear_5,320,5,42,127,1534982456
35,9,21,Ticks_Linear_5,321,1,48,26,1535736524
35,9,21,Ticks_Linear_5,322,5,42,127,1535783448
35,9,21,Ticks_Linear_5,323,1,48,20,1536564288
35,9,21,Ticks_Linear_5,324,5,42,127,1536583124
35,9,21,Ticks_Linear_5,325,1,48,26,1537333008
35,9,21,Ticks_Linear_5,326,5,42,127,1537382696
35,9,21,Ticks_Linear_5,327,1,48,34,1538127708
35,9,21,Ticks_Linear_5,328,5,42,127,1538182496
35,9,21,Ticks_Linear_5,329,1,48,30,1538927060
35,9,21,Ticks_Linear_5,330,5,42,127,1538992556
35,9,21,Ticks_Linear_5,331,1,48,29,1539755464
35,9,21,Ticks_Linear_5,332,5,42,127,1539802536
35,9,21,Ticks_Linear_5,333,1,48,27,1540562012
35,9,21,Ticks_Linear_5,334,5,42,127,1540612668
35,9,21,Ticks_Linear_5,335,1,48,22,1541364572
35,9,21,Ticks_Linear_5,336,5,42,127,1541422504
35,9,21,Ticks_Linear_5,337,1,48,28,1542181600
35,9,21,Ticks_Linear_5,338,5,42,127,1542232584
35,9,21,Ticks_Linear_5,0,9999,9999,9999,1433010244
35,9,21,Ticks_Linear_5,1,9999,9999,9999,1433490496
35,9,21,Ticks_Linear_5,2,9999,9999,9999,1433970744
35,9,21,Ticks_Linear_5,3,9999,9999,9999,1434451072
35,9,21,Ticks_Linear_5,4,9999,9999,9999,1434930248
35,9,21,Ticks_Linear_5,5,9999,9999,9999,1435420728
35,9,21,Ticks_Linear_5,6,9999,9999,9999,1435910244
35,9,21,Ticks_Linear_5,7,9999,9999,9999,1436400732
35,9,21,Ticks_Linear_5,8,9999,9999,9999,1436890172
35,9,21,Ticks_Linear_5,9,9999,9999,9999,1437380660
35,9,21,Ticks_Linear_5,10,9999,9999,9999,1437880436
35,9,21,Ticks_Linear_5,11,9999,9999,9999,1438380136
35,9,21,Ticks_Linear_5,12,9999,9999,9999,1438880880
35,9,21,Ticks_Linear_5,13,9999,9999,9999,1439380580
35,9,21,Ticks_Linear_5,14,9999,9999,9999,1439880280
35,9,21,Ticks_Linear_5,15,9999,9999,9999,1440390240
35,9,21,Ticks_Linear_5,16,9999,9999,9999,1440900200
35,9,21,Ticks_Linear_5,17,9999,9999,9999,1441410156
35,9,21,Ticks_Linear_5,18,9999,9999,9999,1441920100
35,9,21,Ticks_Linear_5,19,9999,9999,9999,1442431048
35,9,21,Ticks_Linear_5,20,9999,9999,9999,1442950220
35,9,21,Ticks_Linear_5,21,9999,9999,9999,1443470420
35,9,21,Ticks_Linear_5,22,9999,9999,9999,1443990584
35,9,21,Ticks_Linear_5,23,9999,9999,9999,1444510804
35,9,21,Ticks_Linear_5,24,9999,9999,9999,1445031004
35,9,21,Ticks_Linear_5,25,9999,9999,9999,1445560376
35,9,21,Ticks_Linear_5,26,9999,9999,9999,1446090852
35,9,21,Ticks_Linear_5,27,9999,9999,9999,1446620280
35,9,21,Ticks_Linear_5,28,9999,9999,9999,1447150684
35,9,21,Ticks_Linear_5,29,9999,9999,9999,1447680116
35,9,21,Ticks_Linear_5,30,9999,9999,9999,1448220780
35,9,21,Ticks_Linear_5,31,9999,9999,9999,1448760416
35,9,21,Ticks_Linear_5,32,9999,9999,9999,1449301080
35,9,21,Ticks_Linear_5,33,9999,9999,9999,1449840752
35,9,21,Ticks_Linear_5,34,9999,9999,9999,1450380384
35,9,21,Ticks_Linear_5,35,9999,9999,9999,1450930260
35,9,21,Ticks_Linear_5,36,9999,9999,9999,1451480132
35,9,21,Ticks_Linear_5,37,9999,9999,9999,1452031052
35,9,21,Ticks_Linear_5,38,9999,9999,9999,1452580988
35,9,21,Ticks_Linear_5,39,9999,9999,9999,1453130812
35,9,21,Ticks_Linear_5,40,9999,9999,9999,1453690960
35,9,21,Ticks_Linear_5,41,9999,9999,9999,1454251080
35,9,21,Ticks_Linear_5,42,9999,9999,9999,1454820424
35,9,21,Ticks_Linear_5,43,9999,9999,9999,1455380556
35,9,21,Ticks_Linear_5,44,9999,9999,9999,1455940716
35,9,21,Ticks_Linear_5,45,9999,9999,9999,1456511036
35,9,21,Ticks_Linear_5,46,9999,9999,9999,1457080380
35,9,21,Ticks_Linear_5,47,9999,9999,9999,1457650784
35,9,21,Ticks_Linear_5,48,9999,9999,9999,1458220132
35,9,21,Ticks_Linear_5,49,9999,9999,9999,1458790472
35,9,21,Ticks_Linear_5,50,9999,9999,9999,1459371124
35,9,21,Ticks_Linear_5,51,9999,9999,9999,1459960900
35,9,21,Ticks_Linear_5,52,9999,9999,9999,1460540528
35,9,21,Ticks_Linear_5,53,9999,9999,9999,1461120072
35,9,21,Ticks_Linear_5,54,9999,9999,9999,1461700712
35,9,21,Ticks_Linear_5,55,9999,9999,9999,1462290516
35,9,21,Ticks_Linear_5,56,9999,9999,9999,1462880328
35,9,21,Ticks_Linear_5,57,9999,9999,9999,1463470192
35,9,21,Ticks_Linear_5,58,9999,9999,9999,1464061012
35,9,21,Ticks_Linear_5,59,9999,9999,9999,1464650840
35,9,21,Ticks_Linear_5,60,9999,9999,9999,1465250892
35,9,21,Ticks_Linear_5,61,9999,9999,9999,1465850936
35,9,21,Ticks_Linear_5,62,9999,9999,9999,1466451012
35,9,21,Ticks_Linear_5,63,9999,9999,9999,1467051132
35,9,21,Ticks_Linear_5,64,9999,9999,9999,1467660396
35,9,21,Ticks_Linear_5,65,9999,9999,9999,1468270652
35,9,21,Ticks_Linear_5,66,9999,9999,9999,1468880960
35,9,21,Ticks_Linear_5,67,9999,9999,9999,1469490284
35,9,21,Ticks_Linear_5,68,9999,9999,9999,1470100556
35,9,21,Ticks_Linear_5,69,9999,9999,9999,1470710844
35,9,21,Ticks_Linear_5,70,9999,9999,9999,1471330392
35,9,21,Ticks_Linear_5,71,9999,9999,9999,1471950960
35,9,21,Ticks_Linear_5,72,9999,9999,9999,1472570444
35,9,21,Ticks_Linear_5,73,9999,9999,9999,1473191008
35,9,21,Ticks_Linear_5,74,9999,9999,9999,1473810532
35,9,21,Ticks_Linear_5,75,9999,9999,9999,1474440248
35,9,21,Ticks_Linear_5,76,9999,9999,9999,1475071088
35,9,21,Ticks_Linear_5,77,9999,9999,9999,1475700804
35,9,21,Ticks_Linear_5,78,9999,9999,9999,1476330596
35,9,21,Ticks_Linear_5,79,9999,9999,9999,1476960328
35,9,21,Ticks_Linear_5,80,9999,9999,9999,1477600364
35,9,21,Ticks_Linear_5,81,9999,9999,9999,1478240352
35,9,21,Ticks_Linear_5,82,9999,9999,9999,1478880316
35,9,21,Ticks_Linear_5,83,9999,9999,9999,1479520380
35,9,21,Ticks_Linear_5,84,9999,9999,9999,1480160340
35,9,21,Ticks_Linear_5,85,9999,9999,9999,1480810592
35,9,21,Ticks_Linear_5,86,9999,9999,9999,1481460816
35,9,21,Ticks_Linear_5,87,9999,9999,9999,1482111060
35,9,21,Ticks_Linear_5,88,9999,9999,9999,1482760308
35,9,21,Ticks_Linear_5,89,9999,9999,9999,1483410540
35,9,21,Ticks_Linear_5,90,9999,9999,9999,1484070964
35,9,21,Ticks_Linear_5,91,9999,9999,9999,1484730484
35,9,21,Ticks_Linear_5,92,9999,9999,9999,1485390916
35,9,21,Ticks_Linear_5,93,9999,9999,9999,1486050368
35,9,21,Ticks_Linear_5,94,9999,9999,9999,1486710848
35,9,21,Ticks_Linear_5,95,9999,9999,9999,1487380544
35,9,21,Ticks_Linear_5,96,9999,9999,9999,1488050264
35,9,21,Ticks_Linear_5,97,9999,9999,9999,1488721012
35,9,21,Ticks_Linear_5,98,9999,9999,9999,1489390648
35,9,21,Ticks_Linear_5,99,9999,9999,9999,1490060368
35,9,21,Ticks_Linear_5,100,9999,9999,9999,1490740344
35,9,21,Ticks_Linear_5,101,9999,9999,9999,1491420224
35,9,21,Ticks_Linear_5,102,9999,9999,9999,1492100192
35,9,21,Ticks_Linear_5,103,9999,9999,9999,1492780144
35,9,21,Ticks_Linear_5,104,9999,9999,9999,1493461092
35,9,21,Ticks_Linear_5,105,9999,9999,9999,1494150208
35,9,21,Ticks_Linear_5,106,9999,9999,9999,1494840448
35,9,21,Ticks_Linear_5,107,9999,9999,9999,1495530584
35,9,21,Ticks_Linear_5,108,9999,9999,9999,1496220764
35,9,21,Ticks_Linear_5,109,9999,9999,9999,1496910924
35,9,21,Ticks_Linear_5,110,9999,9999,9999,1497610352
35,9,21,Ticks_Linear_5,111,9999,9999,9999,1498310772
35,9,21,Ticks_Linear_5,112,9999,9999,9999,1499010148
35,9,21,Ticks_Linear_5,113,9999,9999,9999,1499710572
35,9,21,Ticks_Linear_5,114,9999,9999,9999,1500410968
35,9,21,Ticks_Linear_5,115,9999,9999,9999,1501120604
35,9,21,Ticks_Linear_5,116,9999,9999,9999,1501830220
35,9,21,Ticks_Linear_5,117,9999,9999,9999,1502540904
35,9,21,Ticks_Linear_5,118,9999,9999,9999,1503250512
35,9,21,Ticks_Linear_5,119,9999,9999,9999,1503960148
35,9,21,Ticks_Linear_5,120,9999,9999,9999,1504681028
35,9,21,Ticks_Linear_5,121,9999,9999,9999,1505400904
35,9,21,Ticks_Linear_5,122,9999,9999,9999,1506120812
35,9,21,Ticks_Linear_5,123,9999,9999,9999,1506840680
35,9,21,Ticks_Linear_5,124,9999,9999,9999,1507560572
35,9,21,Ticks_Linear_5,125,9999,9999,9999,1508290636
35,9,21,Ticks_Linear_5,126,9999,9999,9999,1509020728
35,9,21,Ticks_Linear_5,127,9999,9999,9999,1509750864
35,9,21,Ticks_Linear_5,128,9999,9999,9999,1510481016
35,9,21,Ticks_Linear_5,129,9999,9999,9999,1511211072
35,9,21,Ticks_Linear_5,130,9999,9999,9999,1511960696
35,9,21,Ticks_Linear_5,131,9999,9999,9999,1512701048
35,9,21,Ticks_Linear_5,132,9999,9999,9999,1513440324
35,9,21,Ticks_Linear_5,133,9999,9999,9999,1514180736
35,9,21,Ticks_Linear_5,134,9999,9999,9999,1514921088
35,9,21,Ticks_Linear_5,135,9999,9999,9999,1515670636
35,9,21,Ticks_Linear_5,136,9999,9999,9999,1516420184
35,9,21,Ticks_Linear_5,137,9999,9999,9999,1517170780
35,9,21,Ticks_Linear_5,138,9999,9999,9999,1517920328
35,9,21,Ticks_Linear_5,139,9999,9999,9999,1518670924
35,9,21,Ticks_Linear_5,140,9999,9999,9999,1519430732
35,9,21,Ticks_Linear_5,141,9999,9999,9999,1520190580
35,9,21,Ticks_Linear_5,142,9999,9999,9999,1520950332
35,9,21,Ticks_Linear_5,143,9999,9999,9999,1521710188
35,9,21,Ticks_Linear_5,144,9999,9999,9999,1522470968
35,9,21,Ticks_Linear_5,145,9999,9999,9999,1523241024
35,9,21,Ticks_Linear_5,146,9999,9999,9999,1524011092
35,9,21,Ticks_Linear_5,147,9999,9999,9999,1524790392
35,9,21,Ticks_Linear_5,148,9999,9999,9999,1525560404
35,9,21,Ticks_Linear_5,149,9999,9999,9999,1526330448
35,9,21,Ticks_Linear_5,150,9999,9999,9999,1527110776
35,9,21,Ticks_Linear_5,151,9999,9999,9999,1527891028
35,9,21,Ticks_Linear_5,152,9999,9999,9999,1528670292
35,9,21,Ticks_Linear_5,153,9999,9999,9999,1529450560
35,9,21,Ticks_Linear_5,154,9999,9999,9999,1530230888
35,9,21,Ticks_Linear_5,155,9999,9999,9999,1531020360
35,9,21,Ticks_Linear_5,156,9999,9999,9999,1531810936
35,9,21,Ticks_Linear_5,157,9999,9999,9999,1532600380
35,9,21,Ticks_Linear_5,158,9999,9999,9999,1533390964
35,9,21,Ticks_Linear_5,159,9999,9999,9999,1534180432
35,9,21,Ticks_Linear_5,160,9999,9999,9999,1534980156
35,9,21,Ticks_Linear_5,161,9999,9999,9999,1535780928
35,9,21,Ticks_Linear_5,162,9999,9999,9999,1536580676
35,9,21,Ticks_Linear_5,163,9999,9999,9999,1537380476
35,9,21,Ticks_Linear_5,164,9999,9999,9999,1538180196
35,9,21,Ticks_Linear_5,165,9999,9999,9999,1538990184
35,9,21,Ticks_Linear_5,166,9999,9999,9999,1539800164
35,9,21,Ticks_Linear_5,167,9999,9999,9999,1540610148
35,9,21,Ticks_Linear_5,168,9999,9999,9999,1541420128
35,9,21,Ticks_Linear_5,169,9999,9999,9999,1542230136
35,10,20,Ticks_Linear_8,0,5,42,127,1556776568
35,10,20,Ticks_Linear_8,1,5,42,127,1557595584
35,10,20,Ticks_Linear_8,2,5,42,127,1558415772
35,10,20,Ticks_Linear_8,3,5,42,127,1559235888
35,10,20,Ticks_Linear_8,4,1,48,50,1559997320
35,10,20,Ticks_Linear_8,5,5,42,127,1560056296
35,10,20,Ticks_Linear_8,6,1,48,43,1560845796
35,10,20,Ticks_Linear_8,7,5,42,127,1560866352
35,10,20,Ticks_Linear_8,8,1,48,38,1561638552
35,10,20,Ticks_Linear_8,9,5,42,127,1561676136
35,10,20,Ticks_Linear_8,10,1,48,38,1562441820
35,10,20,Ticks_Linear_8,11,5,42,127,1562486120
35,10,20,Ticks_Linear_8,12,1,48,38,1563240268
35,10,20,Ticks_Linear_8,13,5,42,127,1563296324
35,10,20,Ticks_Linear_8,14,1,48,36,1564038424
35,10,20,Ticks_Linear_8,15,5,42,127,1564106236
35,10,20,Ticks_Linear_8,16,1,48,39,1564821292
35,10,20,Ticks_Linear_8,17,5,42,127,1564905960
35,10,20,Ticks_Linear_8,18,1,48,34,1565658764
35,10,20,Ticks_Linear_8,19,5,42,127,1565705612
35,10,20,Ticks_Linear_8,20,1,48,33,1566451968
35,10,20,Ticks_Linear_8,21,5,42,127,1566506308
35,10,20,Ticks_Linear_8,22,1,48,34,1567240536
35,10,20,Ticks_Linear_8,23,5,42,127,1567306276
35,10,20,Ticks_Linear_8,24,1,48,33,1568007760
35,10,20,Ticks_Linear_8,25,5,42,127,1568105840
35,10,20,Ticks_Linear_8,26,1,48,30,1568824588
35,10,20,Ticks_Linear_8,27,5,42,127,1568896444
35,10,20,Ticks_Linear_8,28,1,48,29,1569608208
35,10,20,Ticks_Linear_8,29,5,42,127,1569686056
35,10,20,Ticks_Linear_8,30,1,48,26,1570360376
35,10,20,Ticks_Linear_8,31,5,42,127,1570476480
35,10,20,Ticks_Linear_8,32,1,48,24,1571260220
35,10,20,Ticks_Linear_8,33,5,42,127,1571266104
35,10,20,Ticks_Linear_8,34,1,48,38,1571985212
35,10,20,Ticks_Linear_8,35,5,42,127,1572056400
35,10,20,Ticks_Linear_8,36,1,48,30,1572830984
35,10,20,Ticks_Linear_8,37,5,42,127,1572846232
35,10,20,Ticks_Linear_8,38,1,48,26,1573599340
35,10,20,Ticks_Linear_8,39,5,42,127,1573626264
35,10,20,Ticks_Linear_8,40,1,48,32,1574373140
35,10,20,Ticks_Linear_8,41,5,42,127,1574405392
35,10,20,Ticks_Linear_8,42,1,48,25,1575120976
35,10,20,Ticks_Linear_8,43,5,42,127,1575185796
35,10,20,Ticks_Linear_8,44,1,48,35,1575907968
35,10,20,Ticks_Linear_8,45,5,42,127,1575966124
35,10,20,Ticks_Linear_8,46,1,48,35,1576685608
35,10,20,Ticks_Linear_8,47,5,42,127,1576736116
35,10,20,Ticks_Linear_8,48,1,48,33,1577481800
35,10,20,Ticks_Linear_8,49,5,42,127,1577506036
35,10,20,Ticks_Linear_8,50,1,48,36,1578249772
35,10,20,Ticks_Linear_8,51,5,42,127,1578276252
35,10,20,Ticks_Linear_8,52,5,42,127,1579046400
35,10,20,Ticks_Linear_8,53,1,48,24,1579047888
35,10,20,Ticks_Linear_8,54,1,48,32,1579787592
35,10,20,Ticks_Linear_8,55,5,42,127,1579816388
35,10,20,Ticks_Linear_8,56,5,42,127,1580576128
35,10,20,Ticks_Linear_8,57,1,48,30,1580613804
35,10,20,Ticks_Linear_8,58,1,48,27,1581303992
35,10,20,Ticks_Linear_8,59,5,42,127,1581336076
35,10,20,Ticks_Linear_8,60,1,48,41,1582078176
35,10,20,Ticks_Linear_8,61,5,42,127,1582095812
35,10,20,Ticks_Linear_8,62,1,48,26,1582834464
35,10,20,Ticks_Linear_8,63,5,42,127,1582855844
35,10,20,Ticks_Linear_8,64,5,42,127,1583616264
35,10,20,Ticks_Linear_8,65,1,48,29,1583620724
35,10,20,Ticks_Linear_8,66,1,48,29,1584360140
35,10,20,Ticks_Linear_8,67,5,42,127,1584365876
35,10,20,Ticks_Linear_8,68,1,48,27,1585103172
35,10,20,Ticks_Linear_8,69,5,42,127,1585115800
35,10,20,Ticks_Linear_8,70,1,48,35,1585842984
35,10,20,Ticks_Linear_8,71,5,42,127,1585866096
35,10,20,Ticks_Linear_8,72,1,48,25,1586579284
35,10,20,Ticks_Linear_8,73,5,42,127,1586615800
35,10,20,Ticks_Linear_8,74,1,48,29,1587333412
35,10,20,Ticks_Linear_8,75,5,42,127,1587366172
35,10,20,Ticks_Linear_8,76,1,48,35,1588055920
35,10,20,Ticks_Linear_8,77,5,42,127,1588105612
35,10,20,Ticks_Linear_8,78,5,42,127,1588845808
35,10,20,Ticks_Linear_8,79,1,48,29,1588866676
35,10,20,Ticks_Linear_8,80,5,42,127,1589586740
35,10,20,Ticks_Linear_8,81,1,48,31,1589629476
35,10,20,Ticks_Linear_8,82,5,42,127,1590325508
35,10,20,Ticks_Linear_8,83,1,48,36,1590339716
35,10,20,Ticks_Linear_8,84,1,48,29,1591050572
35,10,20,Ticks_Linear_8,85,5,42,127,1591066116
35,10,20,Ticks_Linear_8,86,1,48,32,1591796272
35,10,20,Ticks_Linear_8,87,5,42,127,1591797844
35,10,20,Ticks_Linear_8,88,1,48,39,1592496952
35,10,20,Ticks_Linear_8,89,5,42,127,1592526272
35,10,20,Ticks_Linear_8,90,5,42,127,1593256280
35,10,20,Ticks_Linear_8,91,1,48,32,1593294600
35,10,20,Ticks_Linear_8,92,5,42,127,1593986512
35,10,20,Ticks_Linear_8,93,1,48,30,1593992248
35,10,20,Ticks_Linear_8,94,5,42,127,1594725648
35,10,20,Ticks_Linear_8,95,1,48,28,1594740900
35,10,20,Ticks_Linear_8,96,5,42,127,1595445620
35,10,20,Ticks_Linear_8,97,1,48,39,1595448816
35,10,20,Ticks_Linear_8,98,5,42,127,1596165488
35,10,20,Ticks_Linear_8,99,1,48,24,1596208176
35,10,20,Ticks_Linear_8,100,5,42,127,1596886580
35,10,20,Ticks_Linear_8,101,1,48,27,1596912608
35,10,20,Ticks_Linear_8,102,5,42,127,1597606324
35,10,20,Ticks_Linear_8,103,1,48,35,1597608996
35,10,20,Ticks_Linear_8,104,5,42,127,1598326216
35,10,20,Ticks_Linear_8,105,1,48,26,1598378020
35,10,20,Ticks_Linear_8,106,5,42,127,1599035704
35,10,20,Ticks_Linear_8,107,1,48,34,1599082476
35,10,20,Ticks_Linear_8,108,5,42,127,1599746288
35,10,20,Ticks_Linear_8,109,1,48,29,1599801324
35,10,20,Ticks_Linear_8,110,5,42,127,1600466256
35,10,20,Ticks_Linear_8,111,1,48,28,1600511384
35,10,20,Ticks_Linear_8,112,5,42,127,1601176036
35,10,20,Ticks_Linear_8,113,1,48,32,1601194884
35,10,20,Ticks_Linear_8,114,5,42,127,1601885672
35,10,20,Ticks_Linear_8,115,1,48,31,1601895084
35,10,20,Ticks_Linear_8,116,1,48,36,1602568428
35,10,20,Ticks_Linear_8,117,5,42,127,1602586212
35,10,20,Ticks_Linear_8,118,1,48,35,1603282544
35,10,20,Ticks_Linear_8,119,5,42,127,1603286488
35,10,20,Ticks_Linear_8,120,1,48,39,1603976392
35,10,20,Ticks_Linear_8,121,5,42,127,1603985788
35,10,20,Ticks_Linear_8,122,1,48,36,1604676964
35,10,20,Ticks_Linear_8,123,5,42,127,1604686060
35,10,20,Ticks_Linear_8,124,1,48,38,1605371960
35,10,20,Ticks_Linear_8,125,5,42,127,1605385488
35,10,20,Ticks_Linear_8,126,1,48,38,1606042952
35,10,20,Ticks_Linear_8,127,5,42,127,1606075800
35,10,20,Ticks_Linear_8,128,1,48,28,1606757160
35,10,20,Ticks_Linear_8,129,5,42,127,1606765884
35,10,20,Ticks_Linear_8,130,1,48,33,1607428352
35,10,20,Ticks_Linear_8,131,5,42,127,1607456100
35,10,20,Ticks_Linear_8,132,1,48,30,1608133108
35,10,20,Ticks_Linear_8,133,5,42,127,1608146264
35,10,20,Ticks_Linear_8,134,5,42,127,1608835384
35,10,20,Ticks_Linear_8,135,1,48,32,1608877228
35,10,20,Ticks_Linear_8,136,1,48,37,1609500160
35,10,20,Ticks_Linear_8,137,5,42,127,1609516332
35,10,20,Ticks_Linear_8,138,1,48,33,1610163376
35,10,20,Ticks_Linear_8,139,5,42,127,1610196284
35,10,20,Ticks_Linear_8,140,1,48,41,1610836308
35,10,20,Ticks_Linear_8,141,5,42,127,1610876188
35,10,20,Ticks_Linear_8,142,5,42,127,1611556072
35,10,20,Ticks_Linear_8,143,1,48,26,1611579360
35,10,20,Ticks_Linear_8,144,5,42,127,1612236052
35,10,20,Ticks_Linear_8,145,1,48,38,1612243880
35,10,20,Ticks_Linear_8,146,1,48,34,1612904712
35,10,20,Ticks_Linear_8,147,5,42,127,1612906512
35,10,20,Ticks_Linear_8,148,5,42,127,1613575764
35,10,20,Ticks_Linear_8,149,1,48,36,1613594240
35,10,20,Ticks_Linear_8,150,1,48,35,1614226040
35,10,20,Ticks_Linear_8,151,5,42,127,1614246224
35,10,20,Ticks_Linear_8,152,5,42,127,1614915952
35,10,20,Ticks_Linear_8,153,1,48,29,1614916848
35,10,20,Ticks_Linear_8,154,1,48,33,1615585272
35,10,20,Ticks_Linear_8,155,5,42,127,1615586988
35,10,20,Ticks_Linear_8,156,5,42,127,1616246084
35,10,20,Ticks_Linear_8,157,1,48,32,1616273084
35,10,20,Ticks_Linear_8,158,5,42,127,1616905740
35,10,20,Ticks_Linear_8,159,1,48,27,1616969544
35,10,20,Ticks_Linear_8,160,1,48,29,1617534676
35,10,20,Ticks_Linear_8,161,5,42,127,1617566168
35,10,20,Ticks_Linear_8,162,1,48,29,1618211328
35,10,20,Ticks_Linear_8,163,5,42,127,1618225776
35,10,20,Ticks_Linear_8,164,1,48,36,1618850568
35,10,20,Ticks_Linear_8,165,5,42,127,1618885888
35,10,20,Ticks_Linear_8,166,1,48,28,1619523204
35,10,20,Ticks_Linear_8,167,5,42,127,1619536136
35,10,20,Ticks_Linear_8,168,5,42,127,1620185836
35,10,20,Ticks_Linear_8,169,1,48,25,1620197724
35,10,20,Ticks_Linear_8,170,1,48,34,1620830720
35,10,20,Ticks_Linear_8,171,5,42,127,1620835780
35,10,20,Ticks_Linear_8,172,1,48,32,1621469416
35,10,20,Ticks_Linear_8,173,5,42,127,1621485932
35,10,20,Ticks_Linear_8,174,1,48,24,1622064024
35,10,20,Ticks_Linear_8,175,5,42,127,1622136180
35,10,20,Ticks_Linear_8,176,1,48,32,1622773024
35,10,20,Ticks_Linear_8,177,5,42,127,1622776588
35,10,20,Ticks_Linear_8,178,5,42,127,1623416064
35,10,20,Ticks_Linear_8,179,1,48,28,1623420232
35,10,20,Ticks_Linear_8,180,1,48,31,1624025728
35,10,20,Ticks_Linear_8,181,5,42,127,1624056544
35,10,20,Ticks_Linear_8,182,1,48,29,1624687136
35,10,20,Ticks_Linear_8,183,5,42,127,1624696456
35,10,20,Ticks_Linear_8,184,1,48,32,1625301556
35,10,20,Ticks_Linear_8,185,5,42,127,1625336348
35,10,20,Ticks_Linear_8,186,1,48,32,1625939228
35,10,20,Ticks_Linear_8,187,5,42,127,1625965928
35,10,20,Ticks_Linear_8,188,1,48,19,1626543256
35,10,20,Ticks_Linear_8,189,5,42,127,1626595636
35,10,20,Ticks_Linear_8,190,1,48,32,1627142840
35,10,20,Ticks_Linear_8,191,5,42,127,1627225364
35,10,20,Ticks_Linear_8,192,1,48,27,1627797360
35,10,20,Ticks_Linear_8,193,5,42,127,1627856412
35,10,20,Ticks_Linear_8,194,1,48,26,1628428344
35,10,20,Ticks_Linear_8,195,5,42,127,1628486220
35,10,20,Ticks_Linear_8,196,1,48,25,1629082028
35,10,20,Ticks_Linear_8,197,5,42,127,1629105516
35,10,20,Ticks_Linear_8,198,1,48,24,1629648608
35,10,20,Ticks_Linear_8,199,5,42,127,1629725932
35,10,20,Ticks_Linear_8,200,1,48,24,1630333596
35,10,20,Ticks_Linear_8,201,5,42,127,1630345476
35,10,20,Ticks_Linear_8,202,1,48,29,1630912152
35,10,20,Ticks_Linear_8,203,5,42,127,1630966416
35,10,20,Ticks_Linear_8,204,1,48,31,1631560456
35,10,20,Ticks_Linear_8,205,5,42,127,1631585736
35,10,20,Ticks_Linear_8,206,1,48,31,1632153312
35,10,20,Ticks_Linear_8,207,5,42,127,1632196048
35,10,20,Ticks_Linear_8,208,1,48,28,1632755992
35,10,20,Ticks_Linear_8,209,5,42,127,1632806204
35,10,20,Ticks_Linear_8,210,1,48,29,1633393728
35,10,20,Ticks_Linear_8,211,5,42,127,1633415568
35,10,20,Ticks_Linear_8,212,1,48,30,1633979028
35,10,20,Ticks_Linear_8,213,5,42,127,1634025948
35,10,20,Ticks_Linear_8,214,1,48,25,1634632340
35,10,20,Ticks_Linear_8,215,5,42,127,1634636132
35,10,20,Ticks_Linear_8,216,5,42,127,1635236116
35,10,20,Ticks_Linear_8,217,1,48,18,1635265224
35,10,20,Ticks_Linear_8,218,5,42,127,1635836164
35,10,20,Ticks_Linear_8,219,1,48,26,1635838104
35,10,20,Ticks_Linear_8,220,1,48,27,1636394932
35,10,20,Ticks_Linear_8,221,5,42,127,1636436384
35,10,20,Ticks_Linear_8,222,1,48,34,1636995804
35,10,20,Ticks_Linear_8,223,5,42,127,1637036360
35,10,20,Ticks_Linear_8,224,5,42,127,1637635444
35,10,20,Ticks_Linear_8,225,5,42,127,1638226400
35,10,20,Ticks_Linear_8,226,1,48,33,1638241200
35,10,20,Ticks_Linear_8,227,1,48,30,1638775932
35,10,20,Ticks_Linear_8,228,5,42,127,1638816032
35,10,20,Ticks_Linear_8,229,5,42,127,1639405904
35,10,20,Ticks_Linear_8,230,1,48,26,1639430740
35,10,20,Ticks_Linear_8,231,5,42,127,1639995796
35,10,20,Ticks_Linear_8,232,1,48,33,1640030368
35,10,20,Ticks_Linear_8,233,5,42,127,1640585584
35,10,20,Ticks_Linear_8,234,1,48,25,1640599864
35,10,20,Ticks_Linear_8,235,1,48,30,1641146796
35,10,20,Ticks_Linear_8,236,5,42,127,1641166156
35,10,20,Ticks_Linear_8,237,1,48,27,1641722948
35,10,20,Ticks_Linear_8,238,5,42,127,1641746060
35,10,20,Ticks_Linear_8,239,1,48,24,1642269680
35,10,20,Ticks_Linear_8,240,5,42,127,1642326368
35,10,20,Ticks_Linear_8,241,1,48,24,1642880020
35,10,20,Ticks_Linear_8,242,5,42,127,1642906044
35,10,20,Ticks_Linear_8,243,1,48,29,1643452128
35,10,20,Ticks_Linear_8,244,5,42,127,1643485648
35,10,20,Ticks_Linear_8,245,5,42,127,1644056048
35,10,20,Ticks_Linear_8,246,1,48,25,1644073492
35,10,20,Ticks_Linear_8,247,1,48,34,1644604636
35,10,20,Ticks_Linear_8,248,5,42,127,1644626388
35,10,20,Ticks_Linear_8,249,5,42,127,1645195888
35,10,20,Ticks_Linear_8,250,1,48,28,1645210764
35,10,20,Ticks_Linear_8,251,5,42,127,1645765984
35,10,20,Ticks_Linear_8,252,1,48,24,1645772096
35,10,20,Ticks_Linear_8,253,1,48,31,1646330608
35,10,20,Ticks_Linear_8,254,5,42,127,1646336348
35,10,20,Ticks_Linear_8,255,5,42,127,1646895464
35,10,20,Ticks_Linear_8,256,1,48,27,1646934236
35,10,20,Ticks_Linear_8,257,1,48,21,1647448660
35,10,20,Ticks_Linear_8,258,5,42,127,1647455740
35,10,20,Ticks_Linear_8,259,5,42,127,1648015880
35,10,20,Ticks_Linear_8,260,1,48,27,1648021620
35,10,20,Ticks_Linear_8,261,5,42,127,1648576012
35,10,20,Ticks_Linear_8,262,1,48,33,1648576980
35,10,20,Ticks_Linear_8,263,5,42,127,1649135996
35,10,20,Ticks_Linear_8,264,1,48,29,1649157916
35,10,20,Ticks_Linear_8,265,1,48,31,1649677064
35,10,20,Ticks_Linear_8,266,5,42,127,1649685864
35,10,20,Ticks_Linear_8,267,1,48,29,1650218872
35,10,20,Ticks_Linear_8,268,5,42,127,1650235764
35,10,20,Ticks_Linear_8,269,1,48,26,1650753312
35,10,20,Ticks_Linear_8,270,5,42,127,1650785640
35,10,20,Ticks_Linear_8,271,1,48,26,1651322888
35,10,20,Ticks_Linear_8,272,5,42,127,1651335664
35,10,20,Ticks_Linear_8,273,1,48,31,1651874272
35,10,20,Ticks_Linear_8,274,5,42,127,1651885540
35,10,20,Ticks_Linear_8,275,5,42,127,1652425984
35,10,20,Ticks_Linear_8,276,1,48,24,1652447756
35,10,20,Ticks_Linear_8,277,1,48,32,1652963376
35,10,20,Ticks_Linear_8,278,5,42,127,1652965820
35,10,20,Ticks_Linear_8,279,1,48,32,1653502468
35,10,20,Ticks_Linear_8,280,5,42,127,1653506708
35,10,20,Ticks_Linear_8,281,1,48,29,1654027340
35,10,20,Ticks_Linear_8,282,5,42,127,1654056308
35,10,20,Ticks_Linear_8,283,5,42,127,1654595928
35,10,20,Ticks_Linear_8,284,1,48,32,1654615528
35,10,20,Ticks_Linear_8,285,1,48,27,1655099552
35,10,20,Ticks_Linear_8,286,5,42,127,1655126476
35,10,20,Ticks_Linear_8,287,1,48,29,1655644784
35,10,20,Ticks_Linear_8,288,5,42,127,1655655756
35,10,20,Ticks_Linear_8,289,5,42,127,1656186164
35,10,20,Ticks_Linear_8,290,1,48,27,1656191752
35,10,20,Ticks_Linear_8,291,1,48,27,1656707612
35,10,20,Ticks_Linear_8,292,5,42,127,1656715664
35,10,20,Ticks_Linear_8,293,1,48,20,1657243700
35,10,20,Ticks_Linear_8,294,5,42,127,1657246068
35,10,20,Ticks_Linear_8,295,1,48,29,1657731344
35,10,20,Ticks_Linear_8,296,5,42,127,1657766360
35,10,20,Ticks_Linear_8,297,5,42,127,1658285464
35,10,20,Ticks_Linear_8,298,1,48,24,1658292328
35,10,20,Ticks_Linear_8,299,1,48,24,1658793496
35,10,20,Ticks_Linear_8,300,5,42,127,1658805604
35,10,20,Ticks_Linear_8,301,1,48,31,1659302264
35,10,20,Ticks_Linear_8,302,5,42,127,1659325748
35,10,20,Ticks_Linear_8,303,1,48,32,1659813640
35,10,20,Ticks_Linear_8,304,5,42,127,1659845892
35,10,20,Ticks_Linear_8,305,1,48,30,1660352736
35,10,20,Ticks_Linear_8,306,5,42,127,1660355928
35,10,20,Ticks_Linear_8,307,1,48,30,1660840528
35,10,20,Ticks_Linear_8,308,5,42,127,1660865960
35,10,20,Ticks_Linear_8,309,1,48,30,1661360824
35,10,20,Ticks_Linear_8,310,5,42,127,1661375920
35,10,20,Ticks_Linear_8,311,1,48,32,1661839856
35,10,20,Ticks_Linear_8,312,5,42,127,1661885880
35,10,20,Ticks_Linear_8,313,1,48,30,1662377676
35,10,20,Ticks_Linear_8,314,5,42,127,1662395764
35,10,20,Ticks_Linear_8,315,1,48,29,1662857608
35,10,20,Ticks_Linear_8,316,5,42,127,1662895464
35,10,20,Ticks_Linear_8,317,1,48,28,1663384644
35,10,20,Ticks_Linear_8,318,5,42,127,1663396360
35,10,20,Ticks_Linear_8,319,1,48,31,1663869140
35,10,20,Ticks_Linear_8,320,5,42,127,1663895912
35,10,20,Ticks_Linear_8,321,1,48,27,1664365696
35,10,20,Ticks_Linear_8,322,5,42,127,1664395536
35,10,20,Ticks_Linear_8,323,1,48,31,1664864120
35,10,20,Ticks_Linear_8,324,5,42,127,1664896288
35,10,20,Ticks_Linear_8,325,1,48,32,1665345472
35,10,20,Ticks_Linear_8,326,5,42,127,1665385728
35,10,20,Ticks_Linear_8,327,5,42,127,1665876296
35,10,20,Ticks_Linear_8,328,1,48,27,1665879344
35,10,20,Ticks_Linear_8,329,1,48,36,1666357004
35,10,20,Ticks_Linear_8,330,5,42,127,1666365956
35,10,20,Ticks_Linear_8,331,5,42,127,1666856228
35,10,20,Ticks_Linear_8,332,1,48,21,1666882184
35,10,20,Ticks_Linear_8,333,5,42,127,1667345644
35,10,20,Ticks_Linear_8,334,1,48,38,1667348388
35,10,20,Ticks_Linear_8,0,9999,9999,9999,1556773972
35,10,20,Ticks_Linear_8,1,9999,9999,9999,1557593212
35,10,20,Ticks_Linear_8,2,9999,9999,9999,1558413400
35,10,20,Ticks_Linear_8,3,9999,9999,9999,1559233592
35,10,20,Ticks_Linear_8,4,9999,9999,9999,1560053848
35,10,20,Ticks_Linear_8,5,9999,9999,9999,1560863832
35,10,20,Ticks_Linear_8,6,9999,9999,9999,1561673840
35,10,20,Ticks_Linear_8,7,9999,9999,9999,1562483820
35,10,20,Ticks_Linear_8,8,9999,9999,9999,1563293804
35,10,20,Ticks_Linear_8,9,9999,9999,9999,1564103788
35,10,20,Ticks_Linear_8,10,9999,9999,9999,1564903512
35,10,20,Ticks_Linear_8,11,9999,9999,9999,1565703236
35,10,20,Ticks_Linear_8,12,9999,9999,9999,1566504008
35,10,20,Ticks_Linear_8,13,9999,9999,9999,1567303756
35,10,20,Ticks_Linear_8,14,9999,9999,9999,1568103540
35,10,20,Ticks_Linear_8,15,9999,9999,9999,1568894068
35,10,20,Ticks_Linear_8,16,9999,9999,9999,1569683532
35,10,20,Ticks_Linear_8,17,9999,9999,9999,1570474104
35,10,20,Ticks_Linear_8,18,9999,9999,9999,1571263584
35,10,20,Ticks_Linear_8,19,9999,9999,9999,1572054096
35,10,20,Ticks_Linear_8,20,9999,9999,9999,1572843636
35,10,20,Ticks_Linear_8,21,9999,9999,9999,1573623888
35,10,20,Ticks_Linear_8,22,9999,9999,9999,1574403168
35,10,20,Ticks_Linear_8,23,9999,9999,9999,1575183424
35,10,20,Ticks_Linear_8,24,9999,9999,9999,1575963748
35,10,20,Ticks_Linear_8,25,9999,9999,9999,1576733816
35,10,20,Ticks_Linear_8,26,9999,9999,9999,1577503812
35,10,20,Ticks_Linear_8,27,9999,9999,9999,1578273880
35,10,20,Ticks_Linear_8,28,9999,9999,9999,1579043952
35,10,20,Ticks_Linear_8,29,9999,9999,9999,1579814012
35,10,20,Ticks_Linear_8,30,9999,9999,9999,1580573756
35,10,20,Ticks_Linear_8,31,9999,9999,9999,1581333632
35,10,20,Ticks_Linear_8,32,9999,9999,9999,1582093440
35,10,20,Ticks_Linear_8,33,9999,9999,9999,1582853176
35,10,20,Ticks_Linear_8,34,9999,9999,9999,1583614036
35,10,20,Ticks_Linear_8,35,9999,9999,9999,1584363580
35,10,20,Ticks_Linear_8,36,9999,9999,9999,1585113204
35,10,20,Ticks_Linear_8,37,9999,9999,9999,1585863800
35,10,20,Ticks_Linear_8,38,9999,9999,9999,1586613352
35,10,20,Ticks_Linear_8,39,9999,9999,9999,1587363948
35,10,20,Ticks_Linear_8,40,9999,9999,9999,1588103240
35,10,20,Ticks_Linear_8,41,9999,9999,9999,1588843584
35,10,20,Ticks_Linear_8,42,9999,9999,9999,1589583992
35,10,20,Ticks_Linear_8,43,9999,9999,9999,1590323284
35,10,20,Ticks_Linear_8,44,9999,9999,9999,1591063668
35,10,20,Ticks_Linear_8,45,9999,9999,9999,1591793752
35,10,20,Ticks_Linear_8,46,9999,9999,9999,1592523900
35,10,20,Ticks_Linear_8,47,9999,9999,9999,1593253984
35,10,20,Ticks_Linear_8,48,9999,9999,9999,1593984060
35,10,20,Ticks_Linear_8,49,9999,9999,9999,1594723424
35,10,20,Ticks_Linear_8,50,9999,9999,9999,1595443320
35,10,20,Ticks_Linear_8,51,9999,9999,9999,1596163188
35,10,20,Ticks_Linear_8,52,9999,9999,9999,1596884056
35,10,20,Ticks_Linear_8,53,9999,9999,9999,1597603948
35,10,20,Ticks_Linear_8,54,9999,9999,9999,1598323768
35,10,20,Ticks_Linear_8,55,9999,9999,9999,1599033408
35,10,20,Ticks_Linear_8,56,9999,9999,9999,1599744064
35,10,20,Ticks_Linear_8,57,9999,9999,9999,1600463956
35,10,20,Ticks_Linear_8,58,9999,9999,9999,1601173588
35,10,20,Ticks_Linear_8,59,9999,9999,9999,1601883224
35,10,20,Ticks_Linear_8,60,9999,9999,9999,1602583616
35,10,20,Ticks_Linear_8,61,9999,9999,9999,1603284040
35,10,20,Ticks_Linear_8,62,9999,9999,9999,1603983416
35,10,20,Ticks_Linear_8,63,9999,9999,9999,1604683836
35,10,20,Ticks_Linear_8,64,9999,9999,9999,1605383260
35,10,20,Ticks_Linear_8,65,9999,9999,9999,1606073428
35,10,20,Ticks_Linear_8,66,9999,9999,9999,1606763588
35,10,20,Ticks_Linear_8,67,9999,9999,9999,1607453800
35,10,20,Ticks_Linear_8,68,9999,9999,9999,1608143964
35,10,20,Ticks_Linear_8,69,9999,9999,9999,1608833088
35,10,20,Ticks_Linear_8,70,9999,9999,9999,1609514104
35,10,20,Ticks_Linear_8,71,9999,9999,9999,1610193984
35,10,20,Ticks_Linear_8,72,9999,9999,9999,1610873964
35,10,20,Ticks_Linear_8,73,9999,9999,9999,1611553848
35,10,20,Ticks_Linear_8,74,9999,9999,9999,1612233824
35,10,20,Ticks_Linear_8,75,9999,9999,9999,1612903544
35,10,20,Ticks_Linear_8,76,9999,9999,9999,1613573240
35,10,20,Ticks_Linear_8,77,9999,9999,9999,1614243928
35,10,20,Ticks_Linear_8,78,9999,9999,9999,1614913652
35,10,20,Ticks_Linear_8,79,9999,9999,9999,1615583348
35,10,20,Ticks_Linear_8,80,9999,9999,9999,1616243784
35,10,20,Ticks_Linear_8,81,9999,9999,9999,1616903292
35,10,20,Ticks_Linear_8,82,9999,9999,9999,1617563720
35,10,20,Ticks_Linear_8,83,9999,9999,9999,1618223180
35,10,20,Ticks_Linear_8,84,9999,9999,9999,1618883660
35,10,20,Ticks_Linear_8,85,9999,9999,9999,1619533912
35,10,20,Ticks_Linear_8,86,9999,9999,9999,1620183168
35,10,20,Ticks_Linear_8,87,9999,9999,9999,1620833336
35,10,20,Ticks_Linear_8,88,9999,9999,9999,1621483632
35,10,20,Ticks_Linear_8,89,9999,9999,9999,1622133880
35,10,20,Ticks_Linear_8,90,9999,9999,9999,1622773844
35,10,20,Ticks_Linear_8,91,9999,9999,9999,1623413840
35,10,20,Ticks_Linear_8,92,9999,9999,9999,1624053872
35,10,20,Ticks_Linear_8,93,9999,9999,9999,1624693860
35,10,20,Ticks_Linear_8,94,9999,9999,9999,1625333824
35,10,20,Ticks_Linear_8,95,9999,9999,9999,1625963632
35,10,20,Ticks_Linear_8,96,9999,9999,9999,1626593336
35,10,20,Ticks_Linear_8,97,9999,9999,9999,1627223140
35,10,20,Ticks_Linear_8,98,9999,9999,9999,1627853892
35,10,20,Ticks_Linear_8,99,9999,9999,9999,1628483696
35,10,20,Ticks_Linear_8,100,9999,9999,9999,1629103216
35,10,20,Ticks_Linear_8,101,9999,9999,9999,1629723708
35,10,20,Ticks_Linear_8,102,9999,9999,9999,1630343252
35,10,20,Ticks_Linear_8,103,9999,9999,9999,1630963820
35,10,20,Ticks_Linear_8,104,9999,9999,9999,1631583292
35,10,20,Ticks_Linear_8,105,9999,9999,9999,1632193600
35,10,20,Ticks_Linear_8,106,9999,9999,9999,1632803908
35,10,20,Ticks_Linear_8,107,9999,9999,9999,1633413192
35,10,20,Ticks_Linear_8,108,9999,9999,9999,1634023500
35,10,20,Ticks_Linear_8,109,9999,9999,9999,1634633832
35,10,20,Ticks_Linear_8,110,9999,9999,9999,1635233888
35,10,20,Ticks_Linear_8,111,9999,9999,9999,1635833940
35,10,20,Ticks_Linear_8,112,9999,9999,9999,1636434012
35,10,20,Ticks_Linear_8,113,9999,9999,9999,1637034060
35,10,20,Ticks_Linear_8,114,9999,9999,9999,1637633144
35,10,20,Ticks_Linear_8,115,9999,9999,9999,1638223952
35,10,20,Ticks_Linear_8,116,9999,9999,9999,1638813808
35,10,20,Ticks_Linear_8,117,9999,9999,9999,1639403608
35,10,20,Ticks_Linear_8,118,9999,9999,9999,1639993420
35,10,20,Ticks_Linear_8,119,9999,9999,9999,1640583284
35,10,20,Ticks_Linear_8,120,9999,9999,9999,1641163856
35,10,20,Ticks_Linear_8,121,9999,9999,9999,1641743460
35,10,20,Ticks_Linear_8,122,9999,9999,9999,1642324064
35,10,20,Ticks_Linear_8,123,9999,9999,9999,1642903672
35,10,20,Ticks_Linear_8,124,9999,9999,9999,1643483204
35,10,20,Ticks_Linear_8,125,9999,9999,9999,1644053600
35,10,20,Ticks_Linear_8,126,9999,9999,9999,1644623940
35,10,20,Ticks_Linear_8,127,9999,9999,9999,1645193292
35,10,20,Ticks_Linear_8,128,9999,9999,9999,1645763684
35,10,20,Ticks_Linear_8,129,9999,9999,9999,1646334044
35,10,20,Ticks_Linear_8,130,9999,9999,9999,1646893164
35,10,20,Ticks_Linear_8,131,9999,9999,9999,1647453292
35,10,20,Ticks_Linear_8,132,9999,9999,9999,1648013432
35,10,20,Ticks_Linear_8,133,9999,9999,9999,1648573564
35,10,20,Ticks_Linear_8,134,9999,9999,9999,1649133624
35,10,20,Ticks_Linear_8,135,9999,9999,9999,1649683568
35,10,20,Ticks_Linear_8,136,9999,9999,9999,1650233468
35,10,20,Ticks_Linear_8,137,9999,9999,9999,1650783340
35,10,20,Ticks_Linear_8,138,9999,9999,9999,1651333216
35,10,20,Ticks_Linear_8,139,9999,9999,9999,1651883092
35,10,20,Ticks_Linear_8,140,9999,9999,9999,1652423760
35,10,20,Ticks_Linear_8,141,9999,9999,9999,1652963444
35,10,20,Ticks_Linear_8,142,9999,9999,9999,1653504108
35,10,20,Ticks_Linear_8,143,9999,9999,9999,1654053984
35,10,20,Ticks_Linear_8,144,9999,9999,9999,1654593628
35,10,20,Ticks_Linear_8,145,9999,9999,9999,1655124028
35,10,20,Ticks_Linear_8,146,9999,9999,9999,1655653456
35,10,20,Ticks_Linear_8,147,9999,9999,9999,1656183864
35,10,20,Ticks_Linear_8,148,9999,9999,9999,1656713292
35,10,20,Ticks_Linear_8,149,9999,9999,9999,1657243768
35,10,20,Ticks_Linear_8,150,9999,9999,9999,1657763912
35,10,20,Ticks_Linear_8,151,9999,9999,9999,1658283092
35,10,20,Ticks_Linear_8,152,9999,9999,9999,1658803304
35,10,20,Ticks_Linear_8,153,9999,9999,9999,1659323448
35,10,20,Ticks_Linear_8,154,9999,9999,9999,1659843668
35,10,20,Ticks_Linear_8,155,9999,9999,9999,1660353628
35,10,20,Ticks_Linear_8,156,9999,9999,9999,1660863588
35,10,20,Ticks_Linear_8,157,9999,9999,9999,1661373548
35,10,20,Ticks_Linear_8,158,9999,9999,9999,1661883504
35,10,20,Ticks_Linear_8,159,9999,9999,9999,1662393468
35,10,20,Ticks_Linear_8,160,9999,9999,9999,1662893168
35,10,20,Ticks_Linear_8,161,9999,9999,9999,1663393912
35,10,20,Ticks_Linear_8,162,9999,9999,9999,1663893616
35,10,20,Ticks_Linear_8,163,9999,9999,9999,1664393312
35,10,20,Ticks_Linear_8,164,9999,9999,9999,1664894060
35,10,20,Ticks_Linear_8,165,9999,9999,9999,1665383504
35,10,20,Ticks_Linear_8,166,9999,9999,9999,1665874000
35,10,20,Ticks_Linear_8,167,9999,9999,9999,1666363508
35,10,20,Ticks_Linear_8,168,9999,9999,9999,1666853976
35,10,20,Ticks_Linear_8,169,9999,9999,9999,1667343420
35,11,25,Jits_Pract_5,0,5,56,103,1720051020
35,11,25,Jits_Pract_5,1,5,63,98,1720054116
35,11,25,Jits_Pract_5,2,5,80,127,1720057388
35,11,25,Jits_Pract_5,0,5,56,103,1720550892
35,11,25,Jits_Pract_5,1,5,63,98,1720553768
35,11,25,Jits_Pract_5,2,5,80,127,1720557112
35,11,25,Jits_Pract_5,0,5,56,103,1721050556
35,11,25,Jits_Pract_5,1,5,80,127,1721060828
35,11,25,Jits_Pract_5,2,5,63,98,1721081288
35,11,25,Jits_Pract_5,0,5,63,98,1721501004
35,11,25,Jits_Pract_5,1,5,80,127,1721530828
35,11,25,Jits_Pract_5,2,5,56,103,1721541100
35,11,25,Jits_Pract_5,0,5,80,127,1722061416
35,11,25,Jits_Pract_5,1,5,56,103,1722071464
35,11,25,Jits_Pract_5,2,5,63,98,1722101360
35,11,25,Jits_Pract_5,0,5,63,98,1722550672
35,11,25,Jits_Pract_5,1,5,56,103,1722581320
35,11,25,Jits_Pract_5,2,5,80,127,1722590472
35,11,25,Jits_Pract_5,0,5,56,103,1723001476
35,11,25,Jits_Pract_5,1,5,63,98,1723051456
35,11,25,Jits_Pract_5,2,5,80,127,1723070720
35,11,25,Jits_Pract_5,0,5,80,127,1723500848
35,11,25,Jits_Pract_5,1,5,63,98,1723551200
35,11,25,Jits_Pract_5,2,5,56,103,1723591136
35,11,25,Jits_Pract_5,0,5,56,103,1724000592
35,11,25,Jits_Pract_5,1,5,63,98,1724031388
35,11,25,Jits_Pract_5,2,5,80,127,1724101068
35,11,25,Jits_Pract_5,0,5,56,103,1724501380
35,11,25,Jits_Pract_5,1,5,80,127,1724560724
35,11,25,Jits_Pract_5,2,5,63,98,1724590548
35,11,25,Jits_Pract_5,0,5,56,103,1725011388
35,11,25,Jits_Pract_5,1,5,63,98,1725020460
35,11,25,Jits_Pract_5,2,5,80,127,1725060324
35,11,25,Jits_Pract_5,0,5,63,98,1725500712
35,11,25,Jits_Pract_5,1,5,80,127,1725580512
35,11,25,Jits_Pract_5,2,5,56,103,1725591152
35,11,25,Jits_Pract_5,0,5,63,98,1726050644
35,11,25,Jits_Pract_5,1,5,56,103,1726090656
35,11,25,Jits_Pract_5,2,5,80,127,1726093572
35,11,25,Jits_Pract_5,0,5,56,103,1726510360
35,11,25,Jits_Pract_5,1,5,63,98,1726520556
35,11,25,Jits_Pract_5,2,5,80,127,1726560644
35,11,25,Jits_Pract_5,0,5,56,103,1727001080
35,11,25,Jits_Pract_5,1,5,63,98,1727004148
35,11,25,Jits_Pract_5,2,5,80,127,1727021340
35,11,25,Jits_Pract_5,0,9999,9999,9999,1720298604
35,11,25,Jits_Pract_5,1,9999,9999,9999,1720798328
35,11,25,Jits_Pract_5,2,9999,9999,9999,1721299048
35,11,25,Jits_Pract_5,3,9999,9999,9999,1721798712
35,11,25,Jits_Pract_5,4,9999,9999,9999,1722298444
35,11,25,Jits_Pract_5,5,9999,9999,9999,1722798188
35,11,25,Jits_Pract_5,6,9999,9999,9999,1723298888
35,11,25,Jits_Pract_5,7,9999,9999,9999,1723798632
35,11,25,Jits_Pract_5,8,9999,9999,9999,1724298300
35,11,25,Jits_Pract_5,9,9999,9999,9999,1724799092
35,11,25,Jits_Pract_5,10,9999,9999,9999,1725298756
35,11,25,Jits_Pract_5,11,9999,9999,9999,1725798500
35,11,25,Jits_Pract_5,12,9999,9999,9999,1726298224
35,11,25,Jits_Pract_5,13,9999,9999,9999,1726798924
35,11,25,Jits_Pract_5,14,9999,9999,9999,1727298652
35,12,25,Jits_Pract_5,0,5,56,103,1760664924
35,12,25,Jits_Pract_5,1,5,63,98,1760668096
35,12,25,Jits_Pract_5,2,5,80,127,1760671292
35,12,25,Jits_Pract_5,0,5,56,103,1761164576
35,12,25,Jits_Pract_5,1,5,63,98,1761168048
35,12,25,Jits_Pract_5,2,5,80,127,1761171016
35,12,25,Jits_Pract_5,0,5,56,103,1761665292
35,12,25,Jits_Pract_5,1,5,80,127,1761674664
35,12,25,Jits_Pract_5,2,5,63,98,1761694972
35,12,25,Jits_Pract_5,0,5,63,98,1762115136
35,12,25,Jits_Pract_5,1,1,48,37,1762143908
35,12,25,Jits_Pract_5,2,5,80,127,1762145628
35,12,25,Jits_Pract_5,3,5,56,103,1762155076
35,12,25,Jits_Pract_5,0,1,48,34,1762646336
35,12,25,Jits_Pract_5,1,5,80,127,1762675128
35,12,25,Jits_Pract_5,2,5,56,103,1762685248
35,12,25,Jits_Pract_5,3,5,63,98,1762715072
35,12,25,Jits_Pract_5,0,5,63,98,1763164496
35,12,25,Jits_Pract_5,1,1,48,32,1763180720
35,12,25,Jits_Pract_5,2,5,56,103,1763195360
35,12,25,Jits_Pract_5,3,5,80,127,1763204432
35,12,25,Jits_Pract_5,0,5,56,103,1763615012
35,12,25,Jits_Pract_5,1,5,63,98,1763665316
35,12,25,Jits_Pract_5,2,5,80,127,1763684952
35,12,25,Jits_Pract_5,3,1,48,33,1763693996
35,12,25,Jits_Pract_5,0,5,80,127,1764115016
35,12,25,Jits_Pract_5,1,1,48,30,1764132912
35,12,25,Jits_Pract_5,2,5,63,98,1764165012
35,12,25,Jits_Pract_5,3,5,56,103,1764204876
35,12,25,Jits_Pract_5,0,5,56,103,1764614648
35,12,25,Jits_Pract_5,1,5,63,98,1764645172
35,12,25,Jits_Pract_5,2,1,48,38,1764682820
35,12,25,Jits_Pract_5,3,5,80,127,1764714844
35,12,25,Jits_Pract_5,0,5,56,103,1765115172
35,12,25,Jits_Pract_5,1,1,48,22,1765129380
35,12,25,Jits_Pract_5,2,5,80,127,1765174608
35,12,25,Jits_Pract_5,3,5,63,98,1765205480
35,12,25,Jits_Pract_5,0,5,56,103,1765625068
35,12,25,Jits_Pract_5,1,5,63,98,1765634444
35,12,25,Jits_Pract_5,2,5,80,127,1765675376
35,12,25,Jits_Pract_5,3,1,48,40,1765677012
35,12,25,Jits_Pract_5,0,5,63,98,1766114728
35,12,25,Jits_Pract_5,1,1,48,34,1766127360
35,12,25,Jits_Pract_5,2,5,80,127,1766194840
35,12,25,Jits_Pract_5,3,5,56,103,1766204960
35,12,25,Jits_Pract_5,0,1,48,41,1766650044
35,12,25,Jits_Pract_5,1,5,63,98,1766664684
35,12,25,Jits_Pract_5,2,5,56,103,1766704344
35,12,25,Jits_Pract_5,3,5,80,127,1766707564
35,12,25,Jits_Pract_5,0,5,56,103,1767125264
35,12,25,Jits_Pract_5,1,5,63,98,1767134860
35,12,25,Jits_Pract_5,2,1,48,36,1767138656
35,12,25,Jits_Pract_5,3,5,80,127,1767174716
35,12,25,Jits_Pract_5,0,1,48,38,1767613780
35,12,25,Jits_Pract_5,1,5,56,103,1767615680
35,12,25,Jits_Pract_5,2,5,63,98,1767618432
35,12,25,Jits_Pract_5,3,5,80,127,1767635304
35,12,25,Jits_Pract_5,0,9999,9999,9999,1760912436
35,12,25,Jits_Pract_5,1,9999,9999,9999,1761412160
35,12,25,Jits_Pract_5,2,9999,9999,9999,1761912956
35,12,25,Jits_Pract_5,3,9999,9999,9999,1762412596
35,12,25,Jits_Pract_5,4,9999,9999,9999,1762912364
35,12,25,Jits_Pract_5,5,9999,9999,9999,1763413108
35,12,25,Jits_Pract_5,6,9999,9999,9999,1763912800
35,12,25,Jits_Pract_5,7,9999,9999,9999,1764412504
35,12,25,Jits_Pract_5,8,9999,9999,9999,1764912208
35,12,25,Jits_Pract_5,9,9999,9999,9999,1765412960
35,12,25,Jits_Pract_5,10,9999,9999,9999,1765912640
35,12,25,Jits_Pract_5,11,9999,9999,9999,1766412340
35,12,25,Jits_Pract_5,12,9999,9999,9999,1766912100
35,12,25,Jits_Pract_5,13,9999,9999,9999,1767412836
35,12,25,Jits_Pract_5,14,9999,9999,9999,1767912524
35,13,24,Jits_Pract_8,0,5,56,103,1773279572
35,13,24,Jits_Pract_8,1,5,63,98,1773282592
35,13,24,Jits_Pract_8,2,5,80,127,1773285940
35,13,24,Jits_Pract_8,0,5,56,103,1774080484
35,13,24,Jits_Pract_8,1,5,63,98,1774083588
35,13,24,Jits_Pract_8,2,5,80,127,1774086704
35,13,24,Jits_Pract_8,0,5,80,127,1774819604
35,13,24,Jits_Pract_8,1,5,63,98,1774909688
35,13,24,Jits_Pract_8,2,5,56,103,1774920256
35,13,24,Jits_Pract_8,3,1,48,38,1774976780
35,13,24,Jits_Pract_8,0,5,56,103,1775639904
35,13,24,Jits_Pract_8,1,5,63,98,1775650196
35,13,24,Jits_Pract_8,2,1,48,35,1775725228
35,13,24,Jits_Pract_8,3,5,80,127,1775740468
35,13,24,Jits_Pract_8,0,5,63,98,1776409852
35,13,24,Jits_Pract_8,1,1,48,31,1776422880
35,13,24,Jits_Pract_8,2,5,80,127,1776439548
35,13,24,Jits_Pract_8,3,5,56,103,1776470640
35,13,24,Jits_Pract_8,0,1,48,38,1777194304
35,13,24,Jits_Pract_8,1,5,56,103,1777209844
35,13,24,Jits_Pract_8,2,5,80,127,1777310152
35,13,24,Jits_Pract_8,3,5,63,98,1777360428
35,13,24,Jits_Pract_8,0,5,56,103,1778009388
35,13,24,Jits_Pract_8,1,5,80,127,1778059664
35,13,24,Jits_Pract_8,2,1,48,38,1778096268
35,13,24,Jits_Pract_8,3,5,63,98,1778099524
35,13,24,Jits_Pract_8,0,1,48,35,1778754196
35,13,24,Jits_Pract_8,1,5,80,127,1778839868
35,13,24,Jits_Pract_8,2,5,63,98,1778869600
35,13,24,Jits_Pract_8,3,5,56,103,1778940476
35,13,24,Jits_Pract_8,0,1,48,36,1779614416
35,13,24,Jits_Pract_8,1,5,63,98,1779670340
35,13,24,Jits_Pract_8,2,5,56,103,1779700092
35,13,24,Jits_Pract_8,3,5,80,127,1779759444
35,13,24,Jits_Pract_8,0,1,48,32,1780401596
35,13,24,Jits_Pract_8,1,5,56,103,1780409636
35,13,24,Jits_Pract_8,2,5,80,127,1780412628
35,13,24,Jits_Pract_8,3,5,63,98,1780529372
35,13,24,Jits_Pract_8,0,1,48,35,1781185824
35,13,24,Jits_Pract_8,1,5,56,103,1781290456
35,13,24,Jits_Pract_8,2,5,80,127,1781330396
35,13,24,Jits_Pract_8,3,5,63,98,1781339472
35,13,24,Jits_Pract_8,0,1,48,35,1781967528
35,13,24,Jits_Pract_8,1,5,56,103,1782050452
35,13,24,Jits_Pract_8,2,5,80,127,1782069552
35,13,24,Jits_Pract_8,3,5,63,98,1782149344
35,13,24,Jits_Pract_8,0,1,48,32,1782718528
35,13,24,Jits_Pract_8,1,5,80,127,1782839532
35,13,24,Jits_Pract_8,2,5,56,103,1782940228
35,13,24,Jits_Pract_8,3,5,63,98,1782950128
35,13,24,Jits_Pract_8,0,1,48,38,1783573020
35,13,24,Jits_Pract_8,1,5,63,98,1783609784
35,13,24,Jits_Pract_8,2,5,80,127,1783670384
35,13,24,Jits_Pract_8,3,5,56,103,1783680284
35,13,24,Jits_Pract_8,0,1,48,35,1784398204
35,13,24,Jits_Pract_8,1,5,56,103,1784409388
35,13,24,Jits_Pract_8,2,5,63,98,1784480192
35,13,24,Jits_Pract_8,3,5,80,127,1784483480
35,13,24,Jits_Pract_8,0,9999,9999,9999,1773677680
35,13,24,Jits_Pract_8,1,9999,9999,9999,1774477396
35,13,24,Jits_Pract_8,2,9999,9999,9999,1775277180
35,13,24,Jits_Pract_8,3,9999,9999,9999,1776077920
35,13,24,Jits_Pract_8,4,9999,9999,9999,1776877684
35,13,24,Jits_Pract_8,5,9999,9999,9999,1777677368
35,13,24,Jits_Pract_8,6,9999,9999,9999,1778477148
35,13,24,Jits_Pract_8,7,9999,9999,9999,1779277892
35,13,24,Jits_Pract_8,8,9999,9999,9999,1780077656
35,13,24,Jits_Pract_8,9,9999,9999,9999,1780877396
35,13,24,Jits_Pract_8,10,9999,9999,9999,1781677160
35,13,24,Jits_Pract_8,11,9999,9999,9999,1782477892
35,13,24,Jits_Pract_8,12,9999,9999,9999,1783277628
35,13,24,Jits_Pract_8,13,9999,9999,9999,1784077380
35,13,24,Jits_Pract_8,14,9999,9999,9999,1784877148
35,14,17,Jits_Phase_5,0,5,56,103,1812140468
35,14,17,Jits_Phase_5,1,5,63,98,1812143488
35,14,17,Jits_Phase_5,2,5,80,127,1812146536
35,14,17,Jits_Phase_5,0,5,56,103,1812640176
35,14,17,Jits_Phase_5,1,5,63,98,1812643276
35,14,17,Jits_Phase_5,2,5,80,127,1812646248
35,14,17,Jits_Phase_5,0,5,56,103,1813139748
35,14,17,Jits_Phase_5,1,5,80,127,1813150168
35,14,17,Jits_Phase_5,2,5,63,98,1813169508
35,14,17,Jits_Phase_5,0,5,63,98,1813590332
35,14,17,Jits_Phase_5,1,5,80,127,1813620156
35,14,17,Jits_Phase_5,2,5,56,103,1813630348
35,14,17,Jits_Phase_5,0,1,48,48,1814066772
35,14,17,Jits_Phase_5,1,5,80,127,1814159712
35,14,17,Jits_Phase_5,2,5,56,103,1814170040
35,14,17,Jits_Phase_5,3,5,63,98,1814199716
35,14,17,Jits_Phase_5,0,1,48,46,1814620556
35,14,17,Jits_Phase_5,1,5,63,98,1814650324
35,14,17,Jits_Phase_5,2,5,56,103,1814679848
35,14,17,Jits_Phase_5,3,5,80,127,1814690340
35,14,17,Jits_Phase_5,0,5,56,103,1815099664
35,14,17,Jits_Phase_5,1,1,48,40,1815112368
35,14,17,Jits_Phase_5,2,5,63,98,1815150080
35,14,17,Jits_Phase_5,3,5,80,127,1815170536
35,14,17,Jits_Phase_5,0,5,80,127,1815599500
35,14,17,Jits_Phase_5,1,1,48,36,1815614752
35,14,17,Jits_Phase_5,2,5,63,98,1815649548
35,14,17,Jits_Phase_5,3,5,56,103,1815689484
35,14,17,Jits_Phase_5,0,5,56,103,1816100092
35,14,17,Jits_Phase_5,1,5,63,98,1816129840
35,14,17,Jits_Phase_5,2,1,48,35,1816163600
35,14,17,Jits_Phase_5,3,5,80,127,1816199512
35,14,17,Jits_Phase_5,0,1,48,32,1816598544
35,14,17,Jits_Phase_5,1,5,56,103,1816600344
35,14,17,Jits_Phase_5,2,5,80,127,1816660460
35,14,17,Jits_Phase_5,3,5,63,98,1816690044
35,14,17,Jits_Phase_5,0,1,48,38,1817107796
35,14,17,Jits_Phase_5,1,5,56,103,1817109760
35,14,17,Jits_Phase_5,2,5,63,98,1817120280
35,14,17,Jits_Phase_5,3,5,80,127,1817160288
35,14,17,Jits_Phase_5,0,1,48,40,1817575540
35,14,17,Jits_Phase_5,1,5,63,98,1817600296
35,14,17,Jits_Phase_5,2,5,80,127,1817680172
35,14,17,Jits_Phase_5,3,5,56,103,1817689396
35,14,17,Jits_Phase_5,0,1,48,36,1818082184
35,14,17,Jits_Phase_5,1,5,63,98,1818150192
35,14,17,Jits_Phase_5,2,5,56,103,1818190188
35,14,17,Jits_Phase_5,3,5,80,127,1818193328
35,14,17,Jits_Phase_5,0,1,48,38,1818594888
35,14,17,Jits_Phase_5,1,5,56,103,1818610128
35,14,17,Jits_Phase_5,2,5,63,98,1818620248
35,14,17,Jits_Phase_5,3,5,80,127,1818660208
35,14,17,Jits_Phase_5,0,1,48,42,1819079736
35,14,17,Jits_Phase_5,1,5,56,103,1819099460
35,14,17,Jits_Phase_5,2,5,63,98,1819102452
35,14,17,Jits_Phase_5,3,5,80,127,1819120216
35,14,17,Jits_Phase_5,0,1,48,40,1819561260
35,14,17,Jits_Phase_5,1,5,80,127,1819609312
35,14,17,Jits_Phase_5,2,5,56,103,1819619656
35,14,17,Jits_Phase_5,3,5,63,98,1819690316
35,14,17,Jits_Phase_5,0,1,48,39,1820074340
35,14,17,Jits_Phase_5,1,5,63,98,1820100068
35,14,17,Jits_Phase_5,2,5,56,103,1820120304
35,14,17,Jits_Phase_5,3,5,80,127,1820200252
35,14,17,Jits_Phase_5,0,1,48,36,1820542624
35,14,17,Jits_Phase_5,1,5,56,103,1820610080
35,14,17,Jits_Phase_5,2,5,80,127,1820650080
35,14,17,Jits_Phase_5,3,5,63,98,1820660052
35,14,17,Jits_Phase_5,0,1,48,42,1821027008
35,14,17,Jits_Phase_5,1,5,80,127,1821100392
35,14,17,Jits_Phase_5,2,5,63,98,1821130048
35,14,17,Jits_Phase_5,3,5,56,103,1821169984
35,14,17,Jits_Phase_5,0,1,48,43,1821537712
35,14,17,Jits_Phase_5,1,5,56,103,1821630840
35,14,17,Jits_Phase_5,2,5,63,98,1821659616
35,14,17,Jits_Phase_5,3,5,80,127,1821709964
35,14,17,Jits_Phase_5,0,1,48,40,1822059484
35,14,17,Jits_Phase_5,1,5,80,127,1822129484
35,14,17,Jits_Phase_5,2,5,56,103,1822169408
35,14,17,Jits_Phase_5,3,5,63,98,1822180048
35,14,17,Jits_Phase_5,0,1,48,46,1822563428
35,14,17,Jits_Phase_5,1,5,80,127,1822609828
35,14,17,Jits_Phase_5,2,5,63,98,1822649840
35,14,17,Jits_Phase_5,3,5,56,103,1822710064
35,14,17,Jits_Phase_5,0,1,48,41,1823083780
35,14,17,Jits_Phase_5,1,5,56,103,1823109580
35,14,17,Jits_Phase_5,2,5,80,127,1823120148
35,14,17,Jits_Phase_5,3,5,63,98,1823199920
35,14,17,Jits_Phase_5,0,1,48,38,1823601284
35,14,17,Jits_Phase_5,1,5,80,127,1823610148
35,14,17,Jits_Phase_5,2,5,63,98,1823669792
35,14,17,Jits_Phase_5,3,5,56,103,1823700348
35,14,17,Jits_Phase_5,0,5,56,103,1824110056
35,14,17,Jits_Phase_5,1,1,48,43,1824111020
35,14,17,Jits_Phase_5,2,5,80,127,1824170364
35,14,17,Jits_Phase_5,3,5,63,98,1824210360
35,14,17,Jits_Phase_5,0,1,48,36,1824621852
35,14,17,Jits_Phase_5,1,5,56,103,1824659864
35,14,17,Jits_Phase_5,2,5,63,98,1824670132
35,14,17,Jits_Phase_5,3,5,80,127,1824673344
35,14,17,Jits_Phase_5,0,1,48,35,1825093192
35,14,17,Jits_Phase_5,1,5,80,127,1825110380
35,14,17,Jits_Phase_5,2,5,63,98,1825199452
35,14,17,Jits_Phase_5,3,5,56,103,1825209792
35,14,17,Jits_Phase_5,0,5,56,103,1825620312
35,14,17,Jits_Phase_5,1,5,63,98,1825623408
35,14,17,Jits_Phase_5,2,5,80,127,1825626456
35,14,17,Jits_Phase_5,3,1,48,42,1825630344
35,14,17,Jits_Phase_5,0,1,48,39,1826086684
35,14,17,Jits_Phase_5,1,5,80,127,1826139464
35,14,17,Jits_Phase_5,2,5,63,98,1826189724
35,14,17,Jits_Phase_5,3,5,56,103,1826220372
35,14,17,Jits_Phase_5,0,1,48,34,1826614536
35,14,17,Jits_Phase_5,1,5,56,103,1826619956
35,14,17,Jits_Phase_5,2,5,80,127,1826629928
35,14,17,Jits_Phase_5,3,5,63,98,1826699756
35,14,17,Jits_Phase_5,0,1,48,37,1827099656
35,14,17,Jits_Phase_5,1,5,56,103,1827129872
35,14,17,Jits_Phase_5,2,5,63,98,1827150108
35,14,17,Jits_Phase_5,3,5,80,127,1827209804
35,14,17,Jits_Phase_5,0,5,80,127,1827609824
35,14,17,Jits_Phase_5,1,1,48,32,1827610792
35,14,17,Jits_Phase_5,2,5,63,98,1827679672
35,14,17,Jits_Phase_5,3,5,56,103,1827700056
35,14,17,Jits_Phase_5,0,5,80,127,1828130068
35,14,17,Jits_Phase_5,1,5,56,103,1828140336
35,14,17,Jits_Phase_5,2,1,48,42,1828145328
35,14,17,Jits_Phase_5,3,5,63,98,1828149924
35,14,17,Jits_Phase_5,0,5,80,127,1828619764
35,14,17,Jits_Phase_5,1,1,48,36,1828631424
35,14,17,Jits_Phase_5,2,5,56,103,1828640016
35,14,17,Jits_Phase_5,3,5,63,98,1828709768
35,14,17,Jits_Phase_5,0,1,48,45,1829110056
35,14,17,Jits_Phase_5,1,5,56,103,1829129856
35,14,17,Jits_Phase_5,2,5,80,127,1829160304
35,14,17,Jits_Phase_5,3,5,63,98,1829179792
35,14,17,Jits_Phase_5,0,1,48,37,1829594144
35,14,17,Jits_Phase_5,1,5,63,98,1829620020
35,14,17,Jits_Phase_5,2,5,56,103,1829679536
35,14,17,Jits_Phase_5,3,5,80,127,1829710240
35,14,17,Jits_Phase_5,0,5,63,98,1830109728
35,14,17,Jits_Phase_5,1,5,80,127,1830112944
35,14,17,Jits_Phase_5,2,1,48,38,1830115316
35,14,17,Jits_Phase_5,3,5,56,103,1830199724
35,14,17,Jits_Phase_5,0,1,48,36,1830596016
35,14,17,Jits_Phase_5,1,5,56,103,1830629692
35,14,17,Jits_Phase_5,2,5,63,98,1830659664
35,14,17,Jits_Phase_5,3,5,80,127,1830700360
35,14,17,Jits_Phase_5,0,1,48,37,1831075540
35,14,17,Jits_Phase_5,1,5,63,98,1831129516
35,14,17,Jits_Phase_5,2,5,56,103,1831171608
35,14,17,Jits_Phase_5,3,5,80,127,1831189972
35,14,17,Jits_Phase_5,0,1,48,33,1831576040
35,14,17,Jits_Phase_5,1,5,63,98,1831640652
35,14,17,Jits_Phase_5,2,5,56,103,1831680576
35,14,17,Jits_Phase_5,3,5,80,127,1831689800
35,14,17,Jits_Phase_5,0,1,48,38,1832101124
35,14,17,Jits_Phase_5,1,5,80,127,1832119728
35,14,17,Jits_Phase_5,2,5,63,98,1832190308
35,14,17,Jits_Phase_5,3,5,56,103,1832209704
35,14,17,Jits_Phase_5,0,1,48,36,1832601396
35,14,17,Jits_Phase_5,1,5,56,103,1832610192
35,14,17,Jits_Phase_5,2,5,80,127,1832629752
35,14,17,Jits_Phase_5,3,5,63,98,1832669688
35,14,17,Jits_Phase_5,0,1,48,39,1833081516
35,14,17,Jits_Phase_5,1,5,63,98,1833119980
35,14,17,Jits_Phase_5,2,5,80,127,1833139688
35,14,17,Jits_Phase_5,3,5,56,103,1833179756
35,14,17,Jits_Phase_5,0,1,48,37,1833590184
35,14,17,Jits_Phase_5,1,5,63,98,1833619876
35,14,17,Jits_Phase_5,2,5,56,103,1833640336
35,14,17,Jits_Phase_5,3,5,80,127,1833649632
35,14,17,Jits_Phase_5,0,1,48,35,1834068284
35,14,17,Jits_Phase_5,1,5,80,127,1834119624
35,14,17,Jits_Phase_5,2,5,56,103,1834140012
35,14,17,Jits_Phase_5,3,5,63,98,1834169668
35,14,17,Jits_Phase_5,0,1,48,39,1834598000
35,14,17,Jits_Phase_5,1,5,56,103,1834689848
35,14,17,Jits_Phase_5,2,5,80,127,1834692848
35,14,17,Jits_Phase_5,3,5,63,98,1834710536
35,14,17,Jits_Phase_5,0,1,48,35,1835079464
35,14,17,Jits_Phase_5,1,5,63,98,1835109680
35,14,17,Jits_Phase_5,2,5,56,103,1835139652
35,14,17,Jits_Phase_5,3,5,80,127,1835199800
35,14,17,Jits_Phase_5,0,1,48,35,1835588576
35,14,17,Jits_Phase_5,1,5,63,98,1835690624
35,14,17,Jits_Phase_5,2,5,56,103,1835699624
35,14,17,Jits_Phase_5,3,5,80,127,1835709892
35,14,17,Jits_Phase_5,0,1,48,38,1836083532
35,14,17,Jits_Phase_5,1,5,56,103,1836150236
35,14,17,Jits_Phase_5,2,5,80,127,1836179764
35,14,17,Jits_Phase_5,3,5,63,98,1836189944
35,14,17,Jits_Phase_5,0,1,48,35,1836585524
35,14,17,Jits_Phase_5,1,5,63,98,1836689832
35,14,17,Jits_Phase_5,2,5,56,103,1836699952
35,14,17,Jits_Phase_5,3,5,80,127,1836719584
35,14,17,Jits_Phase_5,0,1,48,35,1837091428
35,14,17,Jits_Phase_5,1,5,56,103,1837119776
35,14,17,Jits_Phase_5,2,5,63,98,1837180532
35,14,17,Jits_Phase_5,3,5,80,127,1837184708
35,14,17,Jits_Phase_5,0,1,48,34,1837606736
35,14,17,Jits_Phase_5,1,5,80,127,1837640040
35,14,17,Jits_Phase_5,2,5,56,103,1837650456
35,14,17,Jits_Phase_5,3,5,63,98,1837719972
35,14,17,Jits_Phase_5,0,1,48,37,1838122828
35,14,17,Jits_Phase_5,1,5,80,127,1838129528
35,14,17,Jits_Phase_5,2,5,56,103,1838200252
35,14,17,Jits_Phase_5,3,5,63,98,1838210376
35,14,17,Jits_Phase_5,0,1,48,36,1838615732
35,14,17,Jits_Phase_5,1,5,63,98,1838670404
35,14,17,Jits_Phase_5,2,5,56,103,1838680524
35,14,17,Jits_Phase_5,3,5,80,127,1838699936
35,14,17,Jits_Phase_5,0,5,80,127,1839119644
35,14,17,Jits_Phase_5,1,1,48,38,1839131400
35,14,17,Jits_Phase_5,2,5,63,98,1839180272
35,14,17,Jits_Phase_5,3,5,56,103,1839220060
35,14,17,Jits_Phase_5,0,1,48,31,1839627772
35,14,17,Jits_Phase_5,1,5,56,103,1839660552
35,14,17,Jits_Phase_5,2,5,63,98,1839669480
35,14,17,Jits_Phase_5,3,5,80,127,1839709488
35,14,17,Jits_Phase_5,0,5,56,103,1840120352
35,14,17,Jits_Phase_5,1,1,48,36,1840130892
35,14,17,Jits_Phase_5,2,5,80,127,1840149800
35,14,17,Jits_Phase_5,3,5,63,98,1840199948
35,14,17,Jits_Phase_5,0,1,48,33,1840618592
35,14,17,Jits_Phase_5,1,5,56,103,1840659744
35,14,17,Jits_Phase_5,2,5,63,98,1840699704
35,14,17,Jits_Phase_5,3,5,80,127,1840702992
35,14,17,Jits_Phase_5,0,1,48,29,1841121468
35,14,17,Jits_Phase_5,1,5,56,103,1841159628
35,14,17,Jits_Phase_5,2,5,63,98,1841169752
35,14,17,Jits_Phase_5,3,5,80,127,1841190456
35,14,17,Jits_Phase_5,0,1,48,37,1841604660
35,14,17,Jits_Phase_5,1,5,56,103,1841620416
35,14,17,Jits_Phase_5,2,5,80,127,1841623560
35,14,17,Jits_Phase_5,3,5,63,98,1841660428
35,14,17,Jits_Phase_5,0,1,48,32,1842121624
35,14,17,Jits_Phase_5,1,5,63,98,1842159940
35,14,17,Jits_Phase_5,2,5,56,103,1842189688
35,14,17,Jits_Phase_5,3,5,80,127,1842210320
35,14,17,Jits_Phase_5,0,1,48,30,1842610740
35,14,17,Jits_Phase_5,1,5,80,127,1842630096
35,14,17,Jits_Phase_5,2,5,56,103,1842640292
35,14,17,Jits_Phase_5,3,5,63,98,1842649512
35,14,17,Jits_Phase_5,0,1,48,35,1843074816
35,14,17,Jits_Phase_5,1,5,56,103,1843129840
35,14,17,Jits_Phase_5,2,5,80,127,1843169616
35,14,17,Jits_Phase_5,3,5,63,98,1843200412
35,14,17,Jits_Phase_5,0,1,48,36,1843607848
35,14,17,Jits_Phase_5,1,5,63,98,1843639632
35,14,17,Jits_Phase_5,2,5,80,127,1843649832
35,14,17,Jits_Phase_5,3,5,56,103,1843660324
35,14,17,Jits_Phase_5,0,1,48,41,1844097332
35,14,17,Jits_Phase_5,1,5,56,103,1844130388
35,14,17,Jits_Phase_5,2,5,63,98,1844199756
35,14,17,Jits_Phase_5,3,5,80,127,1844210248
35,14,17,Jits_Phase_5,0,1,48,37,1844600740
35,14,17,Jits_Phase_5,1,5,80,127,1844650512
35,14,17,Jits_Phase_5,2,5,56,103,1844659588
35,14,17,Jits_Phase_5,3,5,63,98,1844709696
35,14,17,Jits_Phase_5,0,1,48,38,1845114712
35,14,17,Jits_Phase_5,1,5,80,127,1845160372
35,14,17,Jits_Phase_5,2,5,56,103,1845219624
35,14,17,Jits_Phase_5,3,5,63,98,1845250496
35,14,17,Jits_Phase_5,0,5,56,103,1845660276
35,14,17,Jits_Phase_5,1,5,80,127,1845663268
35,14,17,Jits_Phase_5,2,1,48,32,1845681004
35,14,17,Jits_Phase_5,3,5,63,98,1845700208
35,14,17,Jits_Phase_5,0,1,48,35,1846132572
35,14,17,Jits_Phase_5,1,5,56,103,1846189396
35,14,17,Jits_Phase_5,2,5,63,98,1846220340
35,14,17,Jits_Phase_5,3,5,80,127,1846230372
35,14,17,Jits_Phase_5,0,1,48,33,1846602504
35,14,17,Jits_Phase_5,1,5,63,98,1846700512
35,14,17,Jits_Phase_5,2,5,80,127,1846709588
35,14,17,Jits_Phase_5,3,5,56,103,1846719784
35,14,17,Jits_Phase_5,0,1,48,41,1847107044
35,14,17,Jits_Phase_5,1,5,80,127,1847150084
35,14,17,Jits_Phase_5,2,5,56,103,1847200356
35,14,17,Jits_Phase_5,3,5,63,98,1847203348
35,14,17,Jits_Phase_5,0,1,48,40,1847640656
35,14,17,Jits_Phase_5,1,5,56,103,1847680388
35,14,17,Jits_Phase_5,2,5,80,127,1847699800
35,14,17,Jits_Phase_5,3,5,63,98,1847710220
35,14,17,Jits_Phase_5,0,1,48,32,1848118756
35,14,17,Jits_Phase_5,1,5,63,98,1848159536
35,14,17,Jits_Phase_5,2,5,56,103,1848190256
35,14,17,Jits_Phase_5,3,5,80,127,1848210040
35,14,17,Jits_Phase_5,0,1,48,36,1848608016
35,14,17,Jits_Phase_5,1,5,56,103,1848679736
35,14,17,Jits_Phase_5,2,5,80,127,1848690228
35,14,17,Jits_Phase_5,3,5,63,98,1848759592
35,14,17,Jits_Phase_5,0,1,48,31,1849156144
35,14,17,Jits_Phase_5,1,5,63,98,1849170412
35,14,17,Jits_Phase_5,2,5,80,127,1849210200
35,14,17,Jits_Phase_5,3,5,56,103,1849251244
35,14,17,Jits_Phase_5,0,1,48,35,1849641220
35,14,17,Jits_Phase_5,1,5,56,103,1849680204
35,14,17,Jits_Phase_5,2,5,63,98,1849689428
35,14,17,Jits_Phase_5,3,5,80,127,1849710256
35,14,17,Jits_Phase_5,0,1,48,35,1850144628
35,14,17,Jits_Phase_5,1,5,63,98,1850219880
35,14,17,Jits_Phase_5,2,5,80,127,1850240340
35,14,17,Jits_Phase_5,3,5,56,103,1850259960
35,14,17,Jits_Phase_5,0,1,48,38,1850626748
35,14,17,Jits_Phase_5,1,5,56,103,1850660148
35,14,17,Jits_Phase_5,2,5,80,127,1850740224
35,14,17,Jits_Phase_5,3,5,63,98,1850750272
35,14,17,Jits_Phase_5,0,1,48,38,1851126048
35,14,17,Jits_Phase_5,1,5,80,127,1851199976
35,14,17,Jits_Phase_5,2,5,63,98,1851210024
35,14,17,Jits_Phase_5,3,5,56,103,1851239908
35,14,17,Jits_Phase_5,0,1,48,38,1851615536
35,14,17,Jits_Phase_5,1,5,63,98,1851659772
35,14,17,Jits_Phase_5,2,5,80,127,1851699436
35,14,17,Jits_Phase_5,3,5,56,103,1851759884
35,14,17,Jits_Phase_5,0,1,48,38,1852149232
35,14,17,Jits_Phase_5,1,5,63,98,1852169560
35,14,17,Jits_Phase_5,2,5,56,103,1852220080
35,14,17,Jits_Phase_5,3,5,80,127,1852249516
35,14,17,Jits_Phase_5,0,1,48,34,1852652576
35,14,17,Jits_Phase_5,1,5,80,127,1852670284
35,14,17,Jits_Phase_5,2,5,63,98,1852679432
35,14,17,Jits_Phase_5,3,5,56,103,1852750092
35,14,17,Jits_Phase_5,0,1,48,37,1853137332
35,14,17,Jits_Phase_5,1,5,80,127,1853230132
35,14,17,Jits_Phase_5,2,5,56,103,1853239948
35,14,17,Jits_Phase_5,3,5,63,98,1853242940
35,14,17,Jits_Phase_5,0,1,48,35,1853661136
35,14,17,Jits_Phase_5,1,5,56,103,1853669856
35,14,17,Jits_Phase_5,2,5,80,127,1853690164
35,14,17,Jits_Phase_5,3,5,63,98,1853699388
35,14,17,Jits_Phase_5,0,1,48,32,1854145296
35,14,17,Jits_Phase_5,1,5,63,98,1854179644
35,14,17,Jits_Phase_5,2,5,56,103,1854219508
35,14,17,Jits_Phase_5,3,5,80,127,1854240140
35,14,17,Jits_Phase_5,0,1,48,35,1854626320
35,14,17,Jits_Phase_5,1,5,63,98,1854680296
35,14,17,Jits_Phase_5,2,5,56,103,1854740148
35,14,17,Jits_Phase_5,3,5,80,127,1854743208
35,14,17,Jits_Phase_5,0,1,48,30,1855126964
35,14,17,Jits_Phase_5,1,5,56,103,1855140184
35,14,17,Jits_Phase_5,2,5,80,127,1855159744
35,14,17,Jits_Phase_5,3,5,63,98,1855199532
35,14,17,Jits_Phase_5,0,1,48,36,1855625136
35,14,17,Jits_Phase_5,1,5,56,103,1855669600
35,14,17,Jits_Phase_5,2,5,63,98,1855689984
35,14,17,Jits_Phase_5,3,5,80,127,1855700328
35,14,17,Jits_Phase_5,0,1,48,35,1856121224
35,14,17,Jits_Phase_5,1,5,80,127,1856139752
35,14,17,Jits_Phase_5,2,5,56,103,1856170400
35,14,17,Jits_Phase_5,3,5,63,98,1856210340
35,14,17,Jits_Phase_5,0,1,48,33,1856613404
35,14,17,Jits_Phase_5,1,5,80,127,1856649764
35,14,17,Jits_Phase_5,2,5,56,103,1856670000
35,14,17,Jits_Phase_5,3,5,63,98,1856729400
35,14,17,Jits_Phase_5,0,1,48,34,1857137812
35,14,17,Jits_Phase_5,1,5,56,103,1857159480
35,14,17,Jits_Phase_5,2,5,80,127,1857180016
35,14,17,Jits_Phase_5,3,5,63,98,1857240388
35,14,17,Jits_Phase_5,0,5,80,127,1857640056
35,14,17,Jits_Phase_5,1,5,56,103,1857649952
35,14,17,Jits_Phase_5,2,1,48,33,1857655016
35,14,17,Jits_Phase_5,3,5,63,98,1857689956
35,14,17,Jits_Phase_5,0,1,48,36,1858129004
35,14,17,Jits_Phase_5,1,5,63,98,1858139364
35,14,17,Jits_Phase_5,2,5,56,103,1858179292
35,14,17,Jits_Phase_5,3,5,80,127,1858182364
35,14,17,Jits_Phase_5,0,1,48,32,1858642064
35,14,17,Jits_Phase_5,1,5,63,98,1858659772
35,14,17,Jits_Phase_5,2,5,80,127,1858699712
35,14,17,Jits_Phase_5,3,5,56,103,1858730208
35,14,17,Jits_Phase_5,0,1,48,30,1859120240
35,14,17,Jits_Phase_5,1,5,56,103,1859150156
35,14,17,Jits_Phase_5,2,5,63,98,1859160424
35,14,17,Jits_Phase_5,3,5,80,127,1859190100
35,14,17,Jits_Phase_5,0,1,48,29,1859599584
35,14,17,Jits_Phase_5,1,5,80,127,1859639640
35,14,17,Jits_Phase_5,2,5,63,98,1859710200
35,14,17,Jits_Phase_5,3,5,56,103,1859719648
35,14,17,Jits_Phase_5,0,1,48,35,1860135900
35,14,17,Jits_Phase_5,1,5,63,98,1860140284
35,14,17,Jits_Phase_5,2,5,56,103,1860209964
35,14,17,Jits_Phase_5,3,5,80,127,1860220384
35,14,17,Jits_Phase_5,0,1,48,35,1860607756
35,14,17,Jits_Phase_5,1,5,63,98,1860619708
35,14,17,Jits_Phase_5,2,5,56,103,1860640040
35,14,17,Jits_Phase_5,3,5,80,127,1860679976
35,14,17,Jits_Phase_5,0,1,48,34,1861106384
35,14,17,Jits_Phase_5,1,5,56,103,1861110092
35,14,17,Jits_Phase_5,2,5,63,98,1861120512
35,14,17,Jits_Phase_5,3,5,80,127,1861200608
35,14,17,Jits_Phase_5,0,5,63,98,1861599656
35,14,17,Jits_Phase_5,1,1,48,21,1861611692
35,14,17,Jits_Phase_5,2,5,56,103,1861630296
35,14,17,Jits_Phase_5,3,5,80,127,1861670260
35,14,17,Jits_Phase_5,0,1,48,37,1862073148
35,14,17,Jits_Phase_5,1,5,56,103,1862100448
35,14,17,Jits_Phase_5,2,5,63,98,1862140388
35,14,17,Jits_Phase_5,3,5,80,127,1862180112
35,14,17,Jits_Phase_5,0,1,48,37,1862561816
35,14,17,Jits_Phase_5,1,5,80,127,1862600048
35,14,17,Jits_Phase_5,2,5,56,103,1862680124
35,14,17,Jits_Phase_5,3,5,63,98,1862690048
35,14,17,Jits_Phase_5,0,1,48,39,1863066724
35,14,17,Jits_Phase_5,1,5,56,103,1863139656
35,14,17,Jits_Phase_5,2,5,63,98,1863142720
35,14,17,Jits_Phase_5,3,5,80,127,1863149924
35,14,17,Jits_Phase_5,0,1,48,36,1863568124
35,14,17,Jits_Phase_5,1,5,56,103,1863659848
35,14,17,Jits_Phase_5,2,5,63,98,1863680664
35,14,17,Jits_Phase_5,3,5,80,127,1863689516
35,14,17,Jits_Phase_5,0,1,48,35,1864072960
35,14,17,Jits_Phase_5,1,5,63,98,1864119744
35,14,17,Jits_Phase_5,2,5,80,127,1864129868
35,14,17,Jits_Phase_5,3,5,56,103,1864150252
35,14,17,Jits_Phase_5,0,1,48,35,1864566188
35,14,17,Jits_Phase_5,1,5,63,98,1864620688
35,14,17,Jits_Phase_5,2,5,56,103,1864700316
35,14,17,Jits_Phase_5,3,5,80,127,1864703528
35,14,17,Jits_Phase_5,0,1,48,30,1865072008
35,14,17,Jits_Phase_5,1,5,63,98,1865119984
35,14,17,Jits_Phase_5,2,5,56,103,1865139692
35,14,17,Jits_Phase_5,3,5,80,127,1865170176
35,14,17,Jits_Phase_5,0,1,48,30,1865563140
35,14,17,Jits_Phase_5,1,5,56,103,1865619736
35,14,17,Jits_Phase_5,2,5,63,98,1865640268
35,14,17,Jits_Phase_5,3,5,80,127,1865649492
35,14,17,Jits_Phase_5,0,1,48,27,1866094500
35,14,17,Jits_Phase_5,1,5,56,103,1866150124
35,14,17,Jits_Phase_5,2,5,63,98,1866179948
35,14,17,Jits_Phase_5,3,5,80,127,1866183384
35,14,17,Jits_Phase_5,0,1,48,32,1866595816
35,14,17,Jits_Phase_5,1,5,56,103,1866599748
35,14,17,Jits_Phase_5,2,5,63,98,1866639684
35,14,17,Jits_Phase_5,3,5,80,127,1866700056
35,14,17,Jits_Phase_5,0,1,48,32,1867086648
35,14,17,Jits_Phase_5,1,5,56,103,1867119952
35,14,17,Jits_Phase_5,2,5,63,98,1867130520
35,14,17,Jits_Phase_5,3,5,80,127,1867189696
35,14,17,Jits_Phase_5,0,1,48,26,1867558696
35,14,17,Jits_Phase_5,1,5,56,103,1867619628
35,14,17,Jits_Phase_5,2,5,80,127,1867640164
35,14,17,Jits_Phase_5,3,5,63,98,1867669896
35,14,17,Jits_Phase_5,0,1,48,28,1868083684
35,14,17,Jits_Phase_5,1,5,80,127,1868120648
35,14,17,Jits_Phase_5,2,5,56,103,1868129576
35,14,17,Jits_Phase_5,3,5,63,98,1868150108
35,14,17,Jits_Phase_5,0,1,48,31,1868558312
35,14,17,Jits_Phase_5,1,5,63,98,1868609756
35,14,17,Jits_Phase_5,2,5,80,127,1868689760
35,14,17,Jits_Phase_5,3,5,56,103,1868699880
35,14,17,Jits_Phase_5,0,1,48,37,1869028100
35,14,17,Jits_Phase_5,1,5,80,127,1869199624
35,14,17,Jits_Phase_5,2,5,56,103,1869220304
35,14,17,Jits_Phase_5,3,5,63,98,1869223368
35,14,17,Jits_Phase_5,0,1,48,36,1869563944
35,14,17,Jits_Phase_5,1,5,63,98,1869690516
35,14,17,Jits_Phase_5,2,5,80,127,1869693732
35,14,17,Jits_Phase_5,3,5,56,103,1869749484
35,14,17,Jits_Phase_5,0,1,48,38,1870072452
35,14,17,Jits_Phase_5,1,5,56,103,1870169584
35,14,17,Jits_Phase_5,2,5,80,127,1870179780
35,14,17,Jits_Phase_5,3,5,63,98,1870219644
35,14,17,Jits_Phase_5,0,1,48,46,1870585452
35,14,17,Jits_Phase_5,1,5,56,103,1870649572
35,14,17,Jits_Phase_5,2,5,63,98,1870710092
35,14,17,Jits_Phase_5,3,5,80,127,1870720288
35,14,17,Jits_Phase_5,0,1,48,41,1871095540
35,14,17,Jits_Phase_5,1,5,63,98,1871159732
35,14,17,Jits_Phase_5,2,5,80,127,1871199580
35,14,17,Jits_Phase_5,3,5,56,103,1871239516
35,14,17,Jits_Phase_5,0,1,48,35,1871594844
35,14,17,Jits_Phase_5,1,5,56,103,1871660528
35,14,17,Jits_Phase_5,2,5,63,98,1871740452
35,14,17,Jits_Phase_5,3,5,80,127,1871743740
35,14,17,Jits_Phase_5,0,1,48,43,1872107240
35,14,17,Jits_Phase_5,1,5,80,127,1872219368
35,14,17,Jits_Phase_5,2,5,56,103,1872250688
35,14,17,Jits_Phase_5,3,5,63,98,1872253676
35,14,17,Jits_Phase_5,0,1,48,47,1872630824
35,14,17,Jits_Phase_5,1,5,56,103,1872680244
35,14,17,Jits_Phase_5,2,5,80,127,1872699732
35,14,17,Jits_Phase_5,3,5,63,98,1872739576
35,14,17,Jits_Phase_5,0,1,48,47,1873158392
35,14,17,Jits_Phase_5,1,5,80,127,1873159964
35,14,17,Jits_Phase_5,2,5,63,98,1873180296
35,14,17,Jits_Phase_5,3,5,56,103,1873240536
35,14,17,Jits_Phase_5,0,1,48,42,1873629352
35,14,17,Jits_Phase_5,1,5,63,98,1873669456
35,14,17,Jits_Phase_5,2,5,56,103,1873679724
35,14,17,Jits_Phase_5,3,5,80,127,1873730008
35,14,17,Jits_Phase_5,0,1,48,38,1874112308
35,14,17,Jits_Phase_5,1,5,56,103,1874159988
35,14,17,Jits_Phase_5,2,5,63,98,1874179328
35,14,17,Jits_Phase_5,3,5,80,127,1874189672
35,14,17,Jits_Phase_5,0,1,48,45,1874615344
35,14,17,Jits_Phase_5,1,5,56,103,1874649388
35,14,17,Jits_Phase_5,2,5,63,98,1874652528
35,14,17,Jits_Phase_5,3,5,80,127,1874669924
35,14,17,Jits_Phase_5,0,1,48,48,1875095148
35,14,17,Jits_Phase_5,1,5,63,98,1875190240
35,14,17,Jits_Phase_5,2,5,56,103,1875219692
35,14,17,Jits_Phase_5,3,5,80,127,1875249468
35,14,17,Jits_Phase_5,0,1,48,44,1875608400
35,14,17,Jits_Phase_5,1,5,80,127,1875649780
35,14,17,Jits_Phase_5,2,5,56,103,1875740292
35,14,17,Jits_Phase_5,3,5,63,98,1875743280
35,14,17,Jits_Phase_5,0,1,48,46,1876147696
35,14,17,Jits_Phase_5,1,5,56,103,1876149512
35,14,17,Jits_Phase_5,2,5,80,127,1876152360
35,14,17,Jits_Phase_5,3,5,63,98,1876229604
35,14,17,Jits_Phase_5,0,1,48,40,1876626292
35,14,17,Jits_Phase_5,1,5,80,127,1876650380
35,14,17,Jits_Phase_5,2,5,63,98,1876709868
35,14,17,Jits_Phase_5,3,5,56,103,1876739380
35,14,17,Jits_Phase_5,0,1,48,39,1877138496
35,14,17,Jits_Phase_5,1,5,63,98,1877150200
35,14,17,Jits_Phase_5,2,5,80,127,1877160324
35,14,17,Jits_Phase_5,3,5,56,103,1877230224
35,14,17,Jits_Phase_5,0,1,48,40,1877638544
35,14,17,Jits_Phase_5,1,5,56,103,1877710184
35,14,17,Jits_Phase_5,2,5,80,127,1877739992
35,14,17,Jits_Phase_5,3,5,63,98,1877790140
35,14,17,Jits_Phase_5,0,1,48,34,1878155876
35,14,17,Jits_Phase_5,1,5,63,98,1878299992
35,14,17,Jits_Phase_5,2,5,56,103,1878329664
35,14,17,Jits_Phase_5,3,5,80,127,1878332732
35,14,17,Jits_Phase_5,0,1,48,35,1878690536
35,14,17,Jits_Phase_5,1,5,63,98,1878799704
35,14,17,Jits_Phase_5,2,5,80,127,1878820336
35,14,17,Jits_Phase_5,3,5,56,103,1878829560
35,14,17,Jits_Phase_5,0,1,48,36,1879182268
35,14,17,Jits_Phase_5,1,5,56,103,1879309644
35,14,17,Jits_Phase_5,2,5,63,98,1879312712
35,14,17,Jits_Phase_5,3,5,80,127,1879330052
35,14,17,Jits_Phase_5,0,1,48,37,1879694296
35,14,17,Jits_Phase_5,1,5,56,103,1879760184
35,14,17,Jits_Phase_5,2,5,63,98,1879769332
35,14,17,Jits_Phase_5,3,5,80,127,1879800260
35,14,17,Jits_Phase_5,0,1,48,42,1880190232
35,14,17,Jits_Phase_5,1,5,63,98,1880280384
35,14,17,Jits_Phase_5,2,5,80,127,1880300004
35,14,17,Jits_Phase_5,3,5,56,103,1880339936
35,14,17,Jits_Phase_5,0,1,48,43,1880709168
35,14,17,Jits_Phase_5,1,5,56,103,1880809864
35,14,17,Jits_Phase_5,2,5,63,98,1880849872
35,14,17,Jits_Phase_5,3,5,80,127,1880853308
35,14,17,Jits_Phase_5,0,5,80,127,1881250068
35,14,17,Jits_Phase_5,1,1,48,34,1881264276
35,14,17,Jits_Phase_5,2,5,56,103,1881290000
35,14,17,Jits_Phase_5,3,5,63,98,1881340200
35,14,17,Jits_Phase_5,0,1,48,48,1881723124
35,14,17,Jits_Phase_5,1,5,56,103,1881810432
35,14,17,Jits_Phase_5,2,5,80,127,1881819508
35,14,17,Jits_Phase_5,3,5,63,98,1881850436
35,14,17,Jits_Phase_5,0,1,48,38,1882243852
35,14,17,Jits_Phase_5,1,5,56,103,1882259992
35,14,17,Jits_Phase_5,2,5,80,127,1882300004
35,14,17,Jits_Phase_5,3,5,63,98,1882350188
35,14,17,Jits_Phase_5,0,1,48,33,1882748260
35,14,17,Jits_Phase_5,1,5,56,103,1882759520
35,14,17,Jits_Phase_5,2,5,80,127,1882799604
35,14,17,Jits_Phase_5,3,5,63,98,1882849716
35,14,17,Jits_Phase_5,0,5,80,127,1883250132
35,14,17,Jits_Phase_5,1,1,48,26,1883288320
35,14,17,Jits_Phase_5,2,5,63,98,1883329996
35,14,17,Jits_Phase_5,3,5,56,103,1883340116
35,14,17,Jits_Phase_5,0,1,48,43,1883767608
35,14,17,Jits_Phase_5,1,5,80,127,1883800012
35,14,17,Jits_Phase_5,2,5,56,103,1883810208
35,14,17,Jits_Phase_5,3,5,63,98,1883829472
35,14,17,Jits_Phase_5,0,1,48,37,1884248048
35,14,17,Jits_Phase_5,1,5,63,98,1884270024
35,14,17,Jits_Phase_5,2,5,56,103,1884339552
35,14,17,Jits_Phase_5,3,5,80,127,1884342692
35,14,17,Jits_Phase_5,0,5,80,127,1884760408
35,14,17,Jits_Phase_5,1,1,48,43,1884779644
35,14,17,Jits_Phase_5,2,5,63,98,1884809780
35,14,17,Jits_Phase_5,3,5,56,103,1884849492
35,14,17,Jits_Phase_5,0,1,48,34,1885257980
35,14,17,Jits_Phase_5,1,5,63,98,1885300028
35,14,17,Jits_Phase_5,2,5,56,103,1885339968
35,14,17,Jits_Phase_5,3,5,80,127,1885350816
35,14,17,Jits_Phase_5,0,1,48,43,1885767848
35,14,17,Jits_Phase_5,1,5,63,98,1885789520
35,14,17,Jits_Phase_5,2,5,56,103,1885810128
35,14,17,Jits_Phase_5,3,5,80,127,1885829536
35,14,17,Jits_Phase_5,0,1,48,33,1886222912
35,14,17,Jits_Phase_5,1,5,80,127,1886250312
35,14,17,Jits_Phase_5,2,5,56,103,1886259684
35,14,17,Jits_Phase_5,3,5,63,98,1886279992
35,14,17,Jits_Phase_5,0,1,48,40,1886678908
35,14,17,Jits_Phase_5,1,5,63,98,1886780004
35,14,17,Jits_Phase_5,2,5,56,103,1886819796
35,14,17,Jits_Phase_5,3,5,80,127,1886850440
35,14,17,Jits_Phase_5,0,5,56,103,1887239752
35,14,17,Jits_Phase_5,1,1,48,37,1887252084
35,14,17,Jits_Phase_5,2,5,63,98,1887270192
35,14,17,Jits_Phase_5,3,5,80,127,1887300016
35,14,17,Jits_Phase_5,0,5,80,127,1887660340
35,14,17,Jits_Phase_5,1,5,56,103,1887730092
35,14,17,Jits_Phase_5,2,5,63,98,1887733232
35,14,17,Jits_Phase_5,3,1,48,41,1887755976
35,14,17,Jits_Phase_5,0,5,56,103,1888170284
35,14,17,Jits_Phase_5,1,5,63,98,1888219364
35,14,17,Jits_Phase_5,2,5,80,127,1888250084
35,14,17,Jits_Phase_5,3,1,48,34,1888251048
35,14,17,Jits_Phase_5,0,5,63,98,1888649744
35,14,17,Jits_Phase_5,1,5,80,127,1888653104
35,14,17,Jits_Phase_5,2,5,56,103,1888709980
35,14,17,Jits_Phase_5,0,1,48,46,1889131276
35,14,17,Jits_Phase_5,1,5,56,103,1889180004
35,14,17,Jits_Phase_5,2,5,80,127,1889190348
35,14,17,Jits_Phase_5,3,5,63,98,1889240532
35,14,17,Jits_Phase_5,0,5,63,98,1889650016
35,14,17,Jits_Phase_5,1,5,56,103,1889660212
35,14,17,Jits_Phase_5,2,1,48,41,1889664676
35,14,17,Jits_Phase_5,3,5,80,127,1889689880
35,14,17,Jits_Phase_5,0,1,48,46,1890106864
35,14,17,Jits_Phase_5,1,5,63,98,1890179420
35,14,17,Jits_Phase_5,2,5,80,127,1890182932
35,14,17,Jits_Phase_5,3,5,56,103,1890210272
35,14,17,Jits_Phase_5,0,1,48,40,1890647896
35,14,17,Jits_Phase_5,1,5,63,98,1890699760
35,14,17,Jits_Phase_5,2,5,56,103,1890720068
35,14,17,Jits_Phase_5,3,5,80,127,1890723284
35,14,17,Jits_Phase_5,0,5,63,98,1891160552
35,14,17,Jits_Phase_5,1,1,48,35,1891175508
35,14,17,Jits_Phase_5,2,5,56,103,1891229928
35,14,17,Jits_Phase_5,3,5,80,127,1891249636
35,14,17,Jits_Phase_5,0,1,48,45,1891597300
35,14,17,Jits_Phase_5,1,5,56,103,1891649884
35,14,17,Jits_Phase_5,2,5,63,98,1891660228
35,14,17,Jits_Phase_5,3,5,80,127,1891750192
35,14,17,Jits_Phase_5,0,1,48,41,1892101928
35,14,17,Jits_Phase_5,1,5,56,103,1892170008
35,14,17,Jits_Phase_5,2,5,80,127,1892210156
35,14,17,Jits_Phase_5,3,5,63,98,1892220352
35,14,17,Jits_Phase_5,0,1,48,43,1892632120
35,14,17,Jits_Phase_5,1,5,56,103,1892690288
35,14,17,Jits_Phase_5,2,5,63,98,1892719960
35,14,17,Jits_Phase_5,3,5,80,127,1892749916
35,14,17,Jits_Phase_5,0,1,48,37,1893128708
35,14,17,Jits_Phase_5,1,5,80,127,1893150180
35,14,17,Jits_Phase_5,2,5,63,98,1893190120
35,14,17,Jits_Phase_5,3,5,56,103,1893209604
35,14,17,Jits_Phase_5,0,1,48,41,1893633540
35,14,17,Jits_Phase_5,1,5,56,103,1893689784
35,14,17,Jits_Phase_5,2,5,80,127,1893710244
35,14,17,Jits_Phase_5,3,5,63,98,1893729640
35,14,17,Jits_Phase_5,0,1,48,33,1894137108
35,14,17,Jits_Phase_5,1,5,63,98,1894159692
35,14,17,Jits_Phase_5,2,5,56,103,1894169840
35,14,17,Jits_Phase_5,3,5,80,127,1894230580
35,14,17,Jits_Phase_5,0,1,48,33,1894599932
35,14,17,Jits_Phase_5,1,5,56,103,1894659368
35,14,17,Jits_Phase_5,2,5,63,98,1894730176
35,14,17,Jits_Phase_5,3,5,80,127,1894749588
35,14,17,Jits_Phase_5,0,1,48,36,1895117200
35,14,17,Jits_Phase_5,1,5,56,103,1895160088
35,14,17,Jits_Phase_5,2,5,63,98,1895189912
35,14,17,Jits_Phase_5,3,5,80,127,1895229784
35,14,17,Jits_Phase_5,0,5,63,98,1895649728
35,14,17,Jits_Phase_5,1,1,48,33,1895653820
35,14,17,Jits_Phase_5,2,5,56,103,1895699700
35,14,17,Jits_Phase_5,3,5,80,127,1895709920
35,14,17,Jits_Phase_5,0,1,48,40,1896100972
35,14,17,Jits_Phase_5,1,5,56,103,1896190448
35,14,17,Jits_Phase_5,2,5,63,98,1896239612
35,14,17,Jits_Phase_5,3,5,80,127,1896249656
35,14,17,Jits_Phase_5,0,1,48,34,1896625292
35,14,17,Jits_Phase_5,1,5,56,103,1896669524
35,14,17,Jits_Phase_5,2,5,63,98,1896679720
35,14,17,Jits_Phase_5,3,5,80,127,1896759744
35,14,17,Jits_Phase_5,0,9999,9999,9999,1812387900
35,14,17,Jits_Phase_5,1,9999,9999,9999,1812887608
35,14,17,Jits_Phase_5,2,9999,9999,9999,1813387336
35,14,17,Jits_Phase_5,3,9999,9999,9999,1813888104
35,14,17,Jits_Phase_5,4,9999,9999,9999,1814398068
35,14,17,Jits_Phase_5,5,9999,9999,9999,1814897744
35,14,17,Jits_Phase_5,6,9999,9999,9999,1815397492
35,14,17,Jits_Phase_5,7,9999,9999,9999,1815897184
35,14,17,Jits_Phase_5,8,9999,9999,9999,1816397920
35,14,17,Jits_Phase_5,9,9999,9999,9999,1816897612
35,14,17,Jits_Phase_5,10,9999,9999,9999,1817397360
35,14,17,Jits_Phase_5,11,9999,9999,9999,1817898084
35,14,17,Jits_Phase_5,12,9999,9999,9999,1818397756
35,14,17,Jits_Phase_5,13,9999,9999,9999,1818897476
35,14,17,Jits_Phase_5,14,9999,9999,9999,1819397212
35,14,17,Jits_Phase_5,15,9999,9999,9999,1819897932
35,14,17,Jits_Phase_5,16,9999,9999,9999,1820397680
35,14,17,Jits_Phase_5,17,9999,9999,9999,1820897356
35,14,17,Jits_Phase_5,18,9999,9999,9999,1821398076
35,14,17,Jits_Phase_5,19,9999,9999,9999,1821908092
35,14,17,Jits_Phase_5,20,9999,9999,9999,1822407768
35,14,17,Jits_Phase_5,21,9999,9999,9999,1822907520
35,14,17,Jits_Phase_5,22,9999,9999,9999,1823407192
35,14,17,Jits_Phase_5,23,9999,9999,9999,1823907916
35,14,17,Jits_Phase_5,24,9999,9999,9999,1824407664
35,14,17,Jits_Phase_5,25,9999,9999,9999,1824907348
35,14,17,Jits_Phase_5,26,9999,9999,9999,1825408072
35,14,17,Jits_Phase_5,27,9999,9999,9999,1825918060
35,14,17,Jits_Phase_5,28,9999,9999,9999,1826417752
35,14,17,Jits_Phase_5,29,9999,9999,9999,1826917496
35,14,17,Jits_Phase_5,30,9999,9999,9999,1827407928
35,14,17,Jits_Phase_5,31,9999,9999,9999,1827907680
35,14,17,Jits_Phase_5,32,9999,9999,9999,1828407368
35,14,17,Jits_Phase_5,33,9999,9999,9999,1828907132
35,14,17,Jits_Phase_5,34,9999,9999,9999,1829407868
35,14,17,Jits_Phase_5,35,9999,9999,9999,1829907520
35,14,17,Jits_Phase_5,36,9999,9999,9999,1830407252
35,14,17,Jits_Phase_5,37,9999,9999,9999,1830907976
35,14,17,Jits_Phase_5,38,9999,9999,9999,1831407724
35,14,17,Jits_Phase_5,39,9999,9999,9999,1831907404
35,14,17,Jits_Phase_5,40,9999,9999,9999,1832407156
35,14,17,Jits_Phase_5,41,9999,9999,9999,1832907876
35,14,17,Jits_Phase_5,42,9999,9999,9999,1833407552
35,14,17,Jits_Phase_5,43,9999,9999,9999,1833907296
35,14,17,Jits_Phase_5,44,9999,9999,9999,1834408020
35,14,17,Jits_Phase_5,45,9999,9999,9999,1834907768
35,14,17,Jits_Phase_5,46,9999,9999,9999,1835407444
35,14,17,Jits_Phase_5,47,9999,9999,9999,1835907196
35,14,17,Jits_Phase_5,48,9999,9999,9999,1836417136
35,14,17,Jits_Phase_5,49,9999,9999,9999,1836917864
35,14,17,Jits_Phase_5,50,9999,9999,9999,1837417528
35,14,17,Jits_Phase_5,51,9999,9999,9999,1837917276
35,14,17,Jits_Phase_5,52,9999,9999,9999,1838418000
35,14,17,Jits_Phase_5,53,9999,9999,9999,1838917752
35,14,17,Jits_Phase_5,54,9999,9999,9999,1839417424
35,14,17,Jits_Phase_5,55,9999,9999,9999,1839917116
35,14,17,Jits_Phase_5,56,9999,9999,9999,1840417908
35,14,17,Jits_Phase_5,57,9999,9999,9999,1840917568
35,14,17,Jits_Phase_5,58,9999,9999,9999,1841417312
35,14,17,Jits_Phase_5,59,9999,9999,9999,1841918020
35,14,17,Jits_Phase_5,60,9999,9999,9999,1842417772
35,14,17,Jits_Phase_5,61,9999,9999,9999,1842917444
35,14,17,Jits_Phase_5,62,9999,9999,9999,1843417192
35,14,17,Jits_Phase_5,63,9999,9999,9999,1843917916
35,14,17,Jits_Phase_5,64,9999,9999,9999,1844438116
35,14,17,Jits_Phase_5,65,9999,9999,9999,1844948048
35,14,17,Jits_Phase_5,66,9999,9999,9999,1845447800
35,14,17,Jits_Phase_5,67,9999,9999,9999,1845947464
35,14,17,Jits_Phase_5,68,9999,9999,9999,1846447228
35,14,17,Jits_Phase_5,69,9999,9999,9999,1846947952
35,14,17,Jits_Phase_5,70,9999,9999,9999,1847447612
35,14,17,Jits_Phase_5,71,9999,9999,9999,1847947364
35,14,17,Jits_Phase_5,72,9999,9999,9999,1848448084
35,14,17,Jits_Phase_5,73,9999,9999,9999,1848958020
35,14,17,Jits_Phase_5,74,9999,9999,9999,1849457768
35,14,17,Jits_Phase_5,75,9999,9999,9999,1849957440
35,14,17,Jits_Phase_5,76,9999,9999,9999,1850457188
35,14,17,Jits_Phase_5,77,9999,9999,9999,1850957912
35,14,17,Jits_Phase_5,78,9999,9999,9999,1851457660
35,14,17,Jits_Phase_5,79,9999,9999,9999,1851957336
35,14,17,Jits_Phase_5,80,9999,9999,9999,1852458060
35,14,17,Jits_Phase_5,81,9999,9999,9999,1852937332
35,14,17,Jits_Phase_5,82,9999,9999,9999,1853438052
35,14,17,Jits_Phase_5,83,9999,9999,9999,1853937724
35,14,17,Jits_Phase_5,84,9999,9999,9999,1854437480
35,14,17,Jits_Phase_5,85,9999,9999,9999,1854937152
35,14,17,Jits_Phase_5,86,9999,9999,9999,1855437944
35,14,17,Jits_Phase_5,87,9999,9999,9999,1855937620
35,14,17,Jits_Phase_5,88,9999,9999,9999,1856437368
35,14,17,Jits_Phase_5,89,9999,9999,9999,1856938088
35,14,17,Jits_Phase_5,90,9999,9999,9999,1857437764
35,14,17,Jits_Phase_5,91,9999,9999,9999,1857937508
35,14,17,Jits_Phase_5,92,9999,9999,9999,1858437184
35,14,17,Jits_Phase_5,93,9999,9999,9999,1858937984
35,14,17,Jits_Phase_5,94,9999,9999,9999,1859437652
35,14,17,Jits_Phase_5,95,9999,9999,9999,1859937400
35,14,17,Jits_Phase_5,96,9999,9999,9999,1860438124
35,14,17,Jits_Phase_5,97,9999,9999,9999,1860897864
35,14,17,Jits_Phase_5,98,9999,9999,9999,1861397592
35,14,17,Jits_Phase_5,99,9999,9999,9999,1861897340
35,14,17,Jits_Phase_5,100,9999,9999,9999,1862398064
35,14,17,Jits_Phase_5,101,9999,9999,9999,1862897740
35,14,17,Jits_Phase_5,102,9999,9999,9999,1863397476
35,14,17,Jits_Phase_5,103,9999,9999,9999,1863897156
35,14,17,Jits_Phase_5,104,9999,9999,9999,1864397952
35,14,17,Jits_Phase_5,105,9999,9999,9999,1864897620
35,14,17,Jits_Phase_5,106,9999,9999,9999,1865397368
35,14,17,Jits_Phase_5,107,9999,9999,9999,1865898088
35,14,17,Jits_Phase_5,108,9999,9999,9999,1866397760
35,14,17,Jits_Phase_5,109,9999,9999,9999,1866897512
35,14,17,Jits_Phase_5,110,9999,9999,9999,1867397188
35,14,17,Jits_Phase_5,111,9999,9999,9999,1867897912
35,14,17,Jits_Phase_5,112,9999,9999,9999,1868397660
35,14,17,Jits_Phase_5,113,9999,9999,9999,1868897408
35,14,17,Jits_Phase_5,114,9999,9999,9999,1869447272
35,14,17,Jits_Phase_5,115,9999,9999,9999,1869947988
35,14,17,Jits_Phase_5,116,9999,9999,9999,1870447736
35,14,17,Jits_Phase_5,117,9999,9999,9999,1870947408
35,14,17,Jits_Phase_5,118,9999,9999,9999,1871447156
35,14,17,Jits_Phase_5,119,9999,9999,9999,1871947872
35,14,17,Jits_Phase_5,120,9999,9999,9999,1872447544
35,14,17,Jits_Phase_5,121,9999,9999,9999,1872947292
35,14,17,Jits_Phase_5,122,9999,9999,9999,1873448016
35,14,17,Jits_Phase_5,123,9999,9999,9999,1873947764
35,14,17,Jits_Phase_5,124,9999,9999,9999,1874447488
35,14,17,Jits_Phase_5,125,9999,9999,9999,1874947144
35,14,17,Jits_Phase_5,126,9999,9999,9999,1875447868
35,14,17,Jits_Phase_5,127,9999,9999,9999,1875947608
35,14,17,Jits_Phase_5,128,9999,9999,9999,1876447348
35,14,17,Jits_Phase_5,129,9999,9999,9999,1876948068
35,14,17,Jits_Phase_5,130,9999,9999,9999,1877447740
35,14,17,Jits_Phase_5,131,9999,9999,9999,1878047824
35,14,17,Jits_Phase_5,132,9999,9999,9999,1878547544
35,14,17,Jits_Phase_5,133,9999,9999,9999,1879047292
35,14,17,Jits_Phase_5,134,9999,9999,9999,1879548008
35,14,17,Jits_Phase_5,135,9999,9999,9999,1880047680
35,14,17,Jits_Phase_5,136,9999,9999,9999,1880547432
35,14,17,Jits_Phase_5,137,9999,9999,9999,1881047104
35,14,17,Jits_Phase_5,138,9999,9999,9999,1881547900
35,14,17,Jits_Phase_5,139,9999,9999,9999,1882047596
35,14,17,Jits_Phase_5,140,9999,9999,9999,1882547272
35,14,17,Jits_Phase_5,141,9999,9999,9999,1883047992
35,14,17,Jits_Phase_5,142,9999,9999,9999,1883547740
35,14,17,Jits_Phase_5,143,9999,9999,9999,1884047436
35,14,17,Jits_Phase_5,144,9999,9999,9999,1884547180
35,14,17,Jits_Phase_5,145,9999,9999,9999,1885047904
35,14,17,Jits_Phase_5,146,9999,9999,9999,1885547600
35,14,17,Jits_Phase_5,147,9999,9999,9999,1886047356
35,14,17,Jits_Phase_5,148,9999,9999,9999,1886548072
35,14,17,Jits_Phase_5,149,9999,9999,9999,1887047748
35,14,17,Jits_Phase_5,150,9999,9999,9999,1887447168
35,14,17,Jits_Phase_5,151,9999,9999,9999,1887947900
35,14,17,Jits_Phase_5,152,9999,9999,9999,1888447592
35,14,17,Jits_Phase_5,153,9999,9999,9999,1888947288
35,14,17,Jits_Phase_5,154,9999,9999,9999,1889448024
35,14,17,Jits_Phase_5,155,9999,9999,9999,1889947768
35,14,17,Jits_Phase_5,156,9999,9999,9999,1890447432
35,14,17,Jits_Phase_5,157,9999,9999,9999,1890947176
35,14,17,Jits_Phase_5,158,9999,9999,9999,1891447896
35,14,17,Jits_Phase_5,159,9999,9999,9999,1891947648
35,14,17,Jits_Phase_5,160,9999,9999,9999,1892447324
35,14,17,Jits_Phase_5,161,9999,9999,9999,1892948044
35,14,17,Jits_Phase_5,162,9999,9999,9999,1893447792
35,14,17,Jits_Phase_5,163,9999,9999,9999,1893947468
35,14,17,Jits_Phase_5,164,9999,9999,9999,1894447216
35,14,17,Jits_Phase_5,165,9999,9999,9999,1894947940
35,14,17,Jits_Phase_5,166,9999,9999,9999,1895447612
35,14,17,Jits_Phase_5,167,9999,9999,9999,1895947336
35,14,17,Jits_Phase_5,168,9999,9999,9999,1896448060
35,14,17,Jits_Phase_5,169,9999,9999,9999,1896958068
35,15,15,Jits_Phase_8,0,5,56,103,1918321200
35,15,15,Jits_Phase_8,1,5,63,98,1918324228
35,15,15,Jits_Phase_8,2,5,80,127,1918327496
35,15,15,Jits_Phase_8,0,5,56,103,1919120996
35,15,15,Jits_Phase_8,1,5,63,98,1919124172
35,15,15,Jits_Phase_8,2,5,80,127,1919127144
35,15,15,Jits_Phase_8,0,5,80,127,1919861168
35,15,15,Jits_Phase_8,1,5,63,98,1919951156
35,15,15,Jits_Phase_8,2,5,56,103,1919960452
35,15,15,Jits_Phase_8,0,5,56,103,1920681288
35,15,15,Jits_Phase_8,1,5,63,98,1920690732
35,15,15,Jits_Phase_8,2,5,80,127,1920780864
35,15,15,Jits_Phase_8,0,1,48,51,1921379920
35,15,15,Jits_Phase_8,1,5,63,98,1921451420
35,15,15,Jits_Phase_8,2,5,80,127,1921481004
35,15,15,Jits_Phase_8,3,5,56,103,1921510756
35,15,15,Jits_Phase_8,0,1,48,51,1922167000
35,15,15,Jits_Phase_8,1,5,56,103,1922251168
35,15,15,Jits_Phase_8,2,5,80,127,1922350532
35,15,15,Jits_Phase_8,3,5,63,98,1922400804
35,15,15,Jits_Phase_8,0,1,48,48,1922965568
35,15,15,Jits_Phase_8,1,5,56,103,1923050856
35,15,15,Jits_Phase_8,2,5,80,127,1923100996
35,15,15,Jits_Phase_8,3,5,63,98,1923140856
35,15,15,Jits_Phase_8,0,1,48,48,1923754084
35,15,15,Jits_Phase_8,1,5,80,127,1923881412
35,15,15,Jits_Phase_8,2,5,63,98,1923911088
35,15,15,Jits_Phase_8,3,5,56,103,1923980620
35,15,15,Jits_Phase_8,0,1,48,47,1924526564
35,15,15,Jits_Phase_8,1,5,63,98,1924710696
35,15,15,Jits_Phase_8,2,5,56,103,1924740744
35,15,15,Jits_Phase_8,3,5,80,127,1924800832
35,15,15,Jits_Phase_8,0,1,48,46,1925266240
35,15,15,Jits_Phase_8,1,5,56,103,1925451116
35,15,15,Jits_Phase_8,2,5,80,127,1925454108
35,15,15,Jits_Phase_8,3,5,63,98,1925571060
35,15,15,Jits_Phase_8,0,1,48,46,1925997348
35,15,15,Jits_Phase_8,1,5,56,103,1926330728
35,15,15,Jits_Phase_8,2,5,80,127,1926370740
35,15,15,Jits_Phase_8,3,5,63,98,1926380936
35,15,15,Jits_Phase_8,0,1,48,47,1926785580
35,15,15,Jits_Phase_8,1,5,56,103,1927090632
35,15,15,Jits_Phase_8,2,5,80,127,1927111096
35,15,15,Jits_Phase_8,3,5,63,98,1927190836
35,15,15,Jits_Phase_8,4,1,48,45,1927514824
35,15,15,Jits_Phase_8,0,5,80,127,1927881004
35,15,15,Jits_Phase_8,1,5,56,103,1927981504
35,15,15,Jits_Phase_8,2,5,63,98,1927990724
35,15,15,Jits_Phase_8,3,1,48,37,1928283700
35,15,15,Jits_Phase_8,0,5,63,98,1928651260
35,15,15,Jits_Phase_8,1,5,80,127,1928710532
35,15,15,Jits_Phase_8,2,5,56,103,1928720728
35,15,15,Jits_Phase_8,3,1,48,47,1929085416
35,15,15,Jits_Phase_8,0,5,56,103,1929450868
35,15,15,Jits_Phase_8,1,5,63,98,1929520648
35,15,15,Jits_Phase_8,2,5,80,127,1929524012
35,15,15,Jits_Phase_8,0,1,48,42,1929992868
35,15,15,Jits_Phase_8,1,5,63,98,1930281532
35,15,15,Jits_Phase_8,2,5,56,103,1930330612
35,15,15,Jits_Phase_8,3,5,80,127,1930333604
35,15,15,Jits_Phase_8,0,1,48,37,1930838652
35,15,15,Jits_Phase_8,1,5,56,103,1931041272
35,15,15,Jits_Phase_8,2,5,80,127,1931044264
35,15,15,Jits_Phase_8,3,5,63,98,1931131324
35,15,15,Jits_Phase_8,0,1,48,43,1931751748
35,15,15,Jits_Phase_8,1,5,63,98,1931880800
35,15,15,Jits_Phase_8,2,5,56,103,1931971008
35,15,15,Jits_Phase_8,3,5,80,127,1932000760
35,15,15,Jits_Phase_8,0,1,48,45,1932592068
35,15,15,Jits_Phase_8,1,5,56,103,1932671436
35,15,15,Jits_Phase_8,2,5,63,98,1932770624
35,15,15,Jits_Phase_8,3,5,80,127,1932801492
35,15,15,Jits_Phase_8,0,5,63,98,1933490540
35,15,15,Jits_Phase_8,1,1,48,48,1933500960
35,15,15,Jits_Phase_8,2,5,56,103,1933502524
35,15,15,Jits_Phase_8,3,5,80,127,1933590884
35,15,15,Jits_Phase_8,0,1,48,47,1934273328
35,15,15,Jits_Phase_8,1,5,63,98,1934310896
35,15,15,Jits_Phase_8,2,5,56,103,1934390700
35,15,15,Jits_Phase_8,3,5,80,127,1934393692
35,15,15,Jits_Phase_8,0,1,48,44,1935070352
35,15,15,Jits_Phase_8,1,5,80,127,1935071840
35,15,15,Jits_Phase_8,2,5,63,98,1935091176
35,15,15,Jits_Phase_8,3,5,56,103,1935150544
35,15,15,Jits_Phase_8,0,1,48,36,1935869184
35,15,15,Jits_Phase_8,1,5,56,103,1935911480
35,15,15,Jits_Phase_8,2,5,63,98,1935930588
35,15,15,Jits_Phase_8,3,5,80,127,1935934180
35,15,15,Jits_Phase_8,0,5,63,98,1936650752
35,15,15,Jits_Phase_8,1,1,48,43,1936658136
35,15,15,Jits_Phase_8,2,5,80,127,1936730420
35,15,15,Jits_Phase_8,3,5,56,103,1936740688
35,15,15,Jits_Phase_8,0,1,48,40,1937406560
35,15,15,Jits_Phase_8,1,5,63,98,1937470904
35,15,15,Jits_Phase_8,2,5,56,103,1937491440
35,15,15,Jits_Phase_8,3,5,80,127,1937540356
35,15,15,Jits_Phase_8,0,1,48,39,1938208912
35,15,15,Jits_Phase_8,1,5,80,127,1938270664
35,15,15,Jits_Phase_8,2,5,63,98,1938310512
35,15,15,Jits_Phase_8,3,5,56,103,1938330972
35,15,15,Jits_Phase_8,0,1,48,37,1939030392
35,15,15,Jits_Phase_8,1,5,56,103,1939111400
35,15,15,Jits_Phase_8,2,5,63,98,1939120476
35,15,15,Jits_Phase_8,3,5,80,127,1939141068
35,15,15,Jits_Phase_8,0,1,48,35,1939834860
35,15,15,Jits_Phase_8,1,5,56,103,1939841260
35,15,15,Jits_Phase_8,2,5,63,98,1939930332
35,15,15,Jits_Phase_8,3,5,80,127,1939991192
35,15,15,Jits_Phase_8,0,1,48,38,1940607424
35,15,15,Jits_Phase_8,1,5,80,127,1940671140
35,15,15,Jits_Phase_8,2,5,56,103,1940681264
35,15,15,Jits_Phase_8,3,5,63,98,1940750628
35,15,15,Jits_Phase_8,0,1,48,47,1941449752
35,15,15,Jits_Phase_8,1,5,63,98,1941501168
35,15,15,Jits_Phase_8,2,5,80,127,1941591388
35,15,15,Jits_Phase_8,3,5,56,103,1941600608
35,15,15,Jits_Phase_8,0,5,63,98,1942231412
35,15,15,Jits_Phase_8,1,1,48,40,1942253112
35,15,15,Jits_Phase_8,2,5,80,127,1942280560
35,15,15,Jits_Phase_8,3,5,56,103,1942341048
35,15,15,Jits_Phase_8,0,1,48,44,1943030692
35,15,15,Jits_Phase_8,1,5,56,103,1943061008
35,15,15,Jits_Phase_8,2,5,80,127,1943111284
35,15,15,Jits_Phase_8,3,5,63,98,1943130460
35,15,15,Jits_Phase_8,0,1,48,43,1943792240
35,15,15,Jits_Phase_8,1,5,56,103,1943831172
35,15,15,Jits_Phase_8,2,5,80,127,1943891252
35,15,15,Jits_Phase_8,3,5,63,98,1943961152
35,15,15,Jits_Phase_8,0,1,48,13,1944629736
35,15,15,Jits_Phase_8,1,5,56,103,1944631532
35,15,15,Jits_Phase_8,2,1,38,11,1944642144
35,15,15,Jits_Phase_8,3,5,80,127,1944661348
35,15,15,Jits_Phase_8,4,5,63,98,1944691172
35,15,15,Jits_Phase_8,0,1,48,43,1945404824
35,15,15,Jits_Phase_8,1,5,56,103,1945471384
35,15,15,Jits_Phase_8,2,5,80,127,1945490944
35,15,15,Jits_Phase_8,3,5,63,98,1945551320
35,15,15,Jits_Phase_8,0,1,48,43,1946200396
35,15,15,Jits_Phase_8,1,5,80,127,1946351068
35,15,15,Jits_Phase_8,2,5,56,103,1946361264
35,15,15,Jits_Phase_8,3,5,63,98,1946370340
35,15,15,Jits_Phase_8,0,1,48,38,1947004872
35,15,15,Jits_Phase_8,1,5,56,103,1947110904
35,15,15,Jits_Phase_8,2,5,80,127,1947150916
35,15,15,Jits_Phase_8,3,5,63,98,1947181440
35,15,15,Jits_Phase_8,0,1,48,35,1947820976
35,15,15,Jits_Phase_8,1,5,56,103,1947881012
35,15,15,Jits_Phase_8,2,5,63,98,1947910612
35,15,15,Jits_Phase_8,3,5,80,127,1947950636
35,15,15,Jits_Phase_8,0,1,48,40,1948624252
35,15,15,Jits_Phase_8,1,5,80,127,1948631400
35,15,15,Jits_Phase_8,2,5,63,98,1948680556
35,15,15,Jits_Phase_8,3,5,56,103,1948701116
35,15,15,Jits_Phase_8,0,1,48,33,1949419744
35,15,15,Jits_Phase_8,1,5,56,103,1949461072
35,15,15,Jits_Phase_8,2,5,80,127,1949530440
35,15,15,Jits_Phase_8,3,5,63,98,1949590828
35,15,15,Jits_Phase_8,0,1,48,41,1950236900
35,15,15,Jits_Phase_8,1,5,80,127,1950260684
35,15,15,Jits_Phase_8,2,5,63,98,1950351028
35,15,15,Jits_Phase_8,3,5,56,103,1950371116
35,15,15,Jits_Phase_8,0,1,48,41,1951025428
35,15,15,Jits_Phase_8,1,5,63,98,1951080900
35,15,15,Jits_Phase_8,2,5,56,103,1951101360
35,15,15,Jits_Phase_8,3,5,80,127,1951141208
35,15,15,Jits_Phase_8,0,1,48,40,1951823240
35,15,15,Jits_Phase_8,1,5,80,127,1951840724
35,15,15,Jits_Phase_8,2,5,63,98,1951860960
35,15,15,Jits_Phase_8,3,5,56,103,1951941040
35,15,15,Jits_Phase_8,0,1,48,39,1952619860
35,15,15,Jits_Phase_8,1,5,63,98,1952631116
35,15,15,Jits_Phase_8,2,5,56,103,1952740716
35,15,15,Jits_Phase_8,3,5,80,127,1952743784
35,15,15,Jits_Phase_8,0,5,63,98,1953451328
35,15,15,Jits_Phase_8,1,5,56,103,1953460624
35,15,15,Jits_Phase_8,2,5,80,127,1953463544
35,15,15,Jits_Phase_8,3,1,48,33,1953468548
35,15,15,Jits_Phase_8,0,5,56,103,1954230988
35,15,15,Jits_Phase_8,1,1,48,44,1954280716
35,15,15,Jits_Phase_8,2,5,80,127,1954350732
35,15,15,Jits_Phase_8,3,5,63,98,1954391404
35,15,15,Jits_Phase_8,0,1,48,40,1955018980
35,15,15,Jits_Phase_8,1,5,56,103,1955050912
35,15,15,Jits_Phase_8,2,5,80,127,1955130868
35,15,15,Jits_Phase_8,3,5,63,98,1955151104
35,15,15,Jits_Phase_8,0,1,48,45,1955847640
35,15,15,Jits_Phase_8,1,5,56,103,1955850672
35,15,15,Jits_Phase_8,2,5,63,98,1955961344
35,15,15,Jits_Phase_8,3,5,80,127,1955964780
35,15,15,Jits_Phase_8,0,1,48,41,1956618788
35,15,15,Jits_Phase_8,1,5,56,103,1956691280
35,15,15,Jits_Phase_8,2,5,80,127,1956720940
35,15,15,Jits_Phase_8,3,5,63,98,1956740728
35,15,15,Jits_Phase_8,0,1,48,38,1957450936
35,15,15,Jits_Phase_8,1,5,63,98,1957480776
35,15,15,Jits_Phase_8,2,5,56,103,1957490972
35,15,15,Jits_Phase_8,3,5,80,127,1957501244
35,15,15,Jits_Phase_8,0,1,48,37,1958191044
35,15,15,Jits_Phase_8,1,5,80,127,1958271388
35,15,15,Jits_Phase_8,2,5,56,103,1958320752
35,15,15,Jits_Phase_8,3,5,63,98,1958360392
35,15,15,Jits_Phase_8,0,1,48,38,1959015524
35,15,15,Jits_Phase_8,1,5,80,127,1959090480
35,15,15,Jits_Phase_8,2,5,63,98,1959111088
35,15,15,Jits_Phase_8,3,5,56,103,1959161276
35,15,15,Jits_Phase_8,0,1,48,43,1959792064
35,15,15,Jits_Phase_8,1,5,80,127,1959900636
35,15,15,Jits_Phase_8,2,5,56,103,1959931208
35,15,15,Jits_Phase_8,3,5,63,98,1960000916
35,15,15,Jits_Phase_8,0,1,48,45,1960619700
35,15,15,Jits_Phase_8,1,5,56,103,1960750696
35,15,15,Jits_Phase_8,2,5,80,127,1960760672
35,15,15,Jits_Phase_8,3,5,63,98,1960800608
35,15,15,Jits_Phase_8,0,1,48,43,1961460700
35,15,15,Jits_Phase_8,1,5,56,103,1961462488
35,15,15,Jits_Phase_8,2,5,63,98,1961480556
35,15,15,Jits_Phase_8,3,5,80,127,1961551160
35,15,15,Jits_Phase_8,0,1,48,40,1962200564
35,15,15,Jits_Phase_8,1,5,63,98,1962281452
35,15,15,Jits_Phase_8,2,5,80,127,1962340780
35,15,15,Jits_Phase_8,3,5,56,103,1962361164
35,15,15,Jits_Phase_8,0,1,48,45,1962998288
35,15,15,Jits_Phase_8,1,5,80,127,1963070796
35,15,15,Jits_Phase_8,2,5,56,103,1963100384
35,15,15,Jits_Phase_8,3,5,63,98,1963131404
35,15,15,Jits_Phase_8,0,1,48,38,1963803088
35,15,15,Jits_Phase_8,1,5,56,103,1963870548
35,15,15,Jits_Phase_8,2,5,63,98,1963930924
35,15,15,Jits_Phase_8,3,5,80,127,1963991312
35,15,15,Jits_Phase_8,0,1,48,38,1964605092
35,15,15,Jits_Phase_8,1,5,80,127,1964690760
35,15,15,Jits_Phase_8,2,5,56,103,1964711428
35,15,15,Jits_Phase_8,3,5,63,98,1964780884
35,15,15,Jits_Phase_8,0,1,48,44,1965419324
35,15,15,Jits_Phase_8,1,5,80,127,1965490600
35,15,15,Jits_Phase_8,2,5,63,98,1965511132
35,15,15,Jits_Phase_8,3,5,56,103,1965540792
35,15,15,Jits_Phase_8,0,1,48,38,1966233764
35,15,15,Jits_Phase_8,1,5,80,127,1966281288
35,15,15,Jits_Phase_8,2,5,63,98,1966300404
35,15,15,Jits_Phase_8,3,5,56,103,1966360876
35,15,15,Jits_Phase_8,0,1,48,39,1967024748
35,15,15,Jits_Phase_8,1,5,80,127,1967080820
35,15,15,Jits_Phase_8,2,5,56,103,1967181452
35,15,15,Jits_Phase_8,3,5,63,98,1967210828
35,15,15,Jits_Phase_8,0,1,48,50,1967844892
35,15,15,Jits_Phase_8,1,5,63,98,1967871516
35,15,15,Jits_Phase_8,2,5,80,127,1967920548
35,15,15,Jits_Phase_8,3,5,56,103,1967941816
35,15,15,Jits_Phase_8,0,1,48,38,1968618660
35,15,15,Jits_Phase_8,1,5,80,127,1968711156
35,15,15,Jits_Phase_8,2,5,56,103,1968740668
35,15,15,Jits_Phase_8,3,5,63,98,1968743736
35,15,15,Jits_Phase_8,0,1,48,36,1969399828
35,15,15,Jits_Phase_8,1,5,63,98,1969561092
35,15,15,Jits_Phase_8,2,5,56,103,1969600808
35,15,15,Jits_Phase_8,3,5,80,127,1969621488
35,15,15,Jits_Phase_8,0,1,48,35,1970202156
35,15,15,Jits_Phase_8,1,5,80,127,1970320772
35,15,15,Jits_Phase_8,2,5,63,98,1970400716
35,15,15,Jits_Phase_8,3,5,56,103,1970440652
35,15,15,Jits_Phase_8,0,1,48,38,1970982140
35,15,15,Jits_Phase_8,1,5,63,98,1971141056
35,15,15,Jits_Phase_8,2,5,80,127,1971220732
35,15,15,Jits_Phase_8,3,5,56,103,1971241340
35,15,15,Jits_Phase_8,0,1,48,37,1971814640
35,15,15,Jits_Phase_8,1,5,56,103,1971980684
35,15,15,Jits_Phase_8,2,5,63,98,1971991276
35,15,15,Jits_Phase_8,3,5,80,127,1972030916
35,15,15,Jits_Phase_8,0,1,48,33,1972631484
35,15,15,Jits_Phase_8,1,5,56,103,1972700516
35,15,15,Jits_Phase_8,2,5,80,127,1972703584
35,15,15,Jits_Phase_8,3,5,63,98,1972841220
35,15,15,Jits_Phase_8,0,5,56,103,1973491204
35,15,15,Jits_Phase_8,1,1,48,28,1973493880
35,15,15,Jits_Phase_8,2,5,63,98,1973581136
35,15,15,Jits_Phase_8,3,5,80,127,1973650796
35,15,15,Jits_Phase_8,0,1,48,41,1974278368
35,15,15,Jits_Phase_8,1,5,63,98,1974370784
35,15,15,Jits_Phase_8,2,5,80,127,1974374076
35,15,15,Jits_Phase_8,3,5,56,103,1974431160
35,15,15,Jits_Phase_8,0,1,48,36,1975098052
35,15,15,Jits_Phase_8,1,5,80,127,1975211356
35,15,15,Jits_Phase_8,2,5,56,103,1975230844
35,15,15,Jits_Phase_8,3,5,63,98,1975241188
35,15,15,Jits_Phase_8,0,5,56,103,1975921016
35,15,15,Jits_Phase_8,1,5,63,98,1975931360
35,15,15,Jits_Phase_8,2,1,48,27,1975940028
35,15,15,Jits_Phase_8,3,5,80,127,1976001032
35,15,15,Jits_Phase_8,0,1,48,31,1976679476
35,15,15,Jits_Phase_8,1,5,80,127,1976720924
35,15,15,Jits_Phase_8,2,5,56,103,1976771260
35,15,15,Jits_Phase_8,3,5,63,98,1976821088
35,15,15,Jits_Phase_8,0,1,48,29,1977467676
35,15,15,Jits_Phase_8,1,5,56,103,1977601288
35,15,15,Jits_Phase_8,2,5,63,98,1977610732
35,15,15,Jits_Phase_8,3,5,80,127,1977650400
35,15,15,Jits_Phase_8,0,1,48,28,1978317120
35,15,15,Jits_Phase_8,1,5,56,103,1978340828
35,15,15,Jits_Phase_8,2,5,63,98,1978380768
35,15,15,Jits_Phase_8,3,5,80,127,1978430904
35,15,15,Jits_Phase_8,0,1,48,35,1979079208
35,15,15,Jits_Phase_8,1,5,80,127,1979100656
35,15,15,Jits_Phase_8,2,5,56,103,1979150860
35,15,15,Jits_Phase_8,3,5,63,98,1979171196
35,15,15,Jits_Phase_8,0,1,48,28,1979851016
35,15,15,Jits_Phase_8,1,5,80,127,1979910376
35,15,15,Jits_Phase_8,2,5,63,98,1979970928
35,15,15,Jits_Phase_8,3,5,56,103,1980050796
35,15,15,Jits_Phase_8,0,1,48,33,1980661188
35,15,15,Jits_Phase_8,1,5,80,127,1980690756
35,15,15,Jits_Phase_8,2,5,56,103,1980730992
35,15,15,Jits_Phase_8,3,5,63,98,1980751300
35,15,15,Jits_Phase_8,0,1,48,36,1981439144
35,15,15,Jits_Phase_8,1,5,56,103,1981540764
35,15,15,Jits_Phase_8,2,5,80,127,1981550888
35,15,15,Jits_Phase_8,3,5,63,98,1981590828
35,15,15,Jits_Phase_8,0,1,48,29,1982252852
35,15,15,Jits_Phase_8,1,5,56,103,1982411252
35,15,15,Jits_Phase_8,2,5,63,98,1982451116
35,15,15,Jits_Phase_8,3,5,80,127,1982454552
35,15,15,Jits_Phase_8,0,5,63,98,1983080744
35,15,15,Jits_Phase_8,1,1,48,36,1983091580
35,15,15,Jits_Phase_8,2,5,80,127,1983120828
35,15,15,Jits_Phase_8,3,5,56,103,1983191536
35,15,15,Jits_Phase_8,0,1,48,41,1983816404
35,15,15,Jits_Phase_8,1,5,63,98,1983850752
35,15,15,Jits_Phase_8,2,5,56,103,1983930908
35,15,15,Jits_Phase_8,3,5,80,127,1983991072
35,15,15,Jits_Phase_8,0,5,80,127,1984660856
35,15,15,Jits_Phase_8,1,1,48,39,1984706448
35,15,15,Jits_Phase_8,2,5,63,98,1984711052
35,15,15,Jits_Phase_8,3,5,56,103,1984740724
35,15,15,Jits_Phase_8,0,1,48,38,1985404840
35,15,15,Jits_Phase_8,1,5,56,103,1985451476
35,15,15,Jits_Phase_8,2,5,63,98,1985500764
35,15,15,Jits_Phase_8,3,5,80,127,1985510812
35,15,15,Jits_Phase_8,0,1,48,34,1986206168
35,15,15,Jits_Phase_8,1,5,56,103,1986261268
35,15,15,Jits_Phase_8,2,5,63,98,1986370816
35,15,15,Jits_Phase_8,3,5,80,127,1986391424
35,15,15,Jits_Phase_8,0,1,48,43,1987028552
35,15,15,Jits_Phase_8,1,5,63,98,1987061028
35,15,15,Jits_Phase_8,2,5,80,127,1987111332
35,15,15,Jits_Phase_8,3,5,56,103,1987201744
35,15,15,Jits_Phase_8,0,1,48,41,1987808080
35,15,15,Jits_Phase_8,1,5,63,98,1987850600
35,15,15,Jits_Phase_8,2,5,80,127,1987881196
35,15,15,Jits_Phase_8,3,5,56,103,1987970640
35,15,15,Jits_Phase_8,0,1,48,39,1988629376
35,15,15,Jits_Phase_8,1,5,63,98,1988651424
35,15,15,Jits_Phase_8,2,5,56,103,1988660800
35,15,15,Jits_Phase_8,3,5,80,127,1988760952
35,15,15,Jits_Phase_8,0,1,48,35,1989396672
35,15,15,Jits_Phase_8,1,5,63,98,1989550656
35,15,15,Jits_Phase_8,2,5,80,127,1989581080
35,15,15,Jits_Phase_8,3,5,56,103,1989610828
35,15,15,Jits_Phase_8,0,1,48,33,1990212704
35,15,15,Jits_Phase_8,1,5,80,127,1990370800
35,15,15,Jits_Phase_8,2,5,63,98,1990380848
35,15,15,Jits_Phase_8,3,5,56,103,1990410672
35,15,15,Jits_Phase_8,0,1,48,39,1991057792
35,15,15,Jits_Phase_8,1,5,80,127,1991071088
35,15,15,Jits_Phase_8,2,5,63,98,1991090428
35,15,15,Jits_Phase_8,3,5,56,103,1991140776
35,15,15,Jits_Phase_8,0,1,48,38,1991816040
35,15,15,Jits_Phase_8,1,5,63,98,1991900664
35,15,15,Jits_Phase_8,2,5,80,127,1991960920
35,15,15,Jits_Phase_8,3,5,56,103,1991981600
35,15,15,Jits_Phase_8,0,1,48,24,1992592736
35,15,15,Jits_Phase_8,1,5,63,98,1992661468
35,15,15,Jits_Phase_8,2,5,56,103,1992710608
35,15,15,Jits_Phase_8,3,5,80,127,1992720976
35,15,15,Jits_Phase_8,0,1,48,38,1993419096
35,15,15,Jits_Phase_8,1,5,56,103,1993490692
35,15,15,Jits_Phase_8,2,5,80,127,1993500960
35,15,15,Jits_Phase_8,3,5,63,98,1993601412
35,15,15,Jits_Phase_8,0,5,80,127,1994250572
35,15,15,Jits_Phase_8,1,1,48,38,1994258824
35,15,15,Jits_Phase_8,2,5,63,98,1994260788
35,15,15,Jits_Phase_8,3,5,56,103,1994411580
35,15,15,Jits_Phase_8,0,1,48,44,1995036316
35,15,15,Jits_Phase_8,1,5,63,98,1995060552
35,15,15,Jits_Phase_8,2,5,80,127,1995100488
35,15,15,Jits_Phase_8,3,5,56,103,1995181464
35,15,15,Jits_Phase_8,0,1,48,40,1995770272
35,15,15,Jits_Phase_8,1,5,56,103,1995811152
35,15,15,Jits_Phase_8,2,5,80,127,1995910488
35,15,15,Jits_Phase_8,3,5,63,98,1995931096
35,15,15,Jits_Phase_8,0,1,48,38,1996598220
35,15,15,Jits_Phase_8,1,5,80,127,1996631520
35,15,15,Jits_Phase_8,2,5,56,103,1996640520
35,15,15,Jits_Phase_8,3,5,63,98,1996730636
35,15,15,Jits_Phase_8,0,1,48,35,1997386896
35,15,15,Jits_Phase_8,1,5,56,103,1997431208
35,15,15,Jits_Phase_8,2,5,63,98,1997450548
35,15,15,Jits_Phase_8,3,5,80,127,1997530476
35,15,15,Jits_Phase_8,0,1,48,38,1998155120
35,15,15,Jits_Phase_8,1,5,63,98,1998180700
35,15,15,Jits_Phase_8,2,5,56,103,1998270816
35,15,15,Jits_Phase_8,3,5,80,127,1998274032
35,15,15,Jits_Phase_8,0,1,48,35,1998892536
35,15,15,Jits_Phase_8,1,5,56,103,1999011300
35,15,15,Jits_Phase_8,2,5,80,127,1999070720
35,15,15,Jits_Phase_8,3,5,63,98,1999080988
35,15,15,Jits_Phase_8,0,1,48,39,1999713720
35,15,15,Jits_Phase_8,1,5,80,127,1999861252
35,15,15,Jits_Phase_8,2,5,56,103,1999871300
35,15,15,Jits_Phase_8,3,5,63,98,1999874516
35,15,15,Jits_Phase_8,0,1,48,39,2000570792
35,15,15,Jits_Phase_8,1,5,56,103,2000621012
35,15,15,Jits_Phase_8,2,5,80,127,2000631284
35,15,15,Jits_Phase_8,3,5,63,98,2000650472
35,15,15,Jits_Phase_8,0,1,48,40,2001276060
35,15,15,Jits_Phase_8,1,5,63,98,2001391232
35,15,15,Jits_Phase_8,2,5,80,127,2001451352
35,15,15,Jits_Phase_8,3,5,56,103,2001500504
35,15,15,Jits_Phase_8,0,1,48,44,2002120628
35,15,15,Jits_Phase_8,1,5,63,98,2002270584
35,15,15,Jits_Phase_8,2,5,56,103,2002280708
35,15,15,Jits_Phase_8,3,5,80,127,2002331280
35,15,15,Jits_Phase_8,0,1,48,40,2002922572
35,15,15,Jits_Phase_8,1,5,63,98,2002971244
35,15,15,Jits_Phase_8,2,5,80,127,2002990360
35,15,15,Jits_Phase_8,3,5,56,103,2003000552
35,15,15,Jits_Phase_8,0,1,48,48,2003769016
35,15,15,Jits_Phase_8,1,5,63,98,2003770688
35,15,15,Jits_Phase_8,2,5,80,127,2003773980
35,15,15,Jits_Phase_8,3,5,56,103,2003810628
35,15,15,Jits_Phase_8,0,1,48,40,2004514660
35,15,15,Jits_Phase_8,1,5,63,98,2004641220
35,15,15,Jits_Phase_8,2,5,80,127,2004670896
35,15,15,Jits_Phase_8,3,5,56,103,2004680944
35,15,15,Jits_Phase_8,0,1,48,55,2005325060
35,15,15,Jits_Phase_8,1,5,56,103,2005390796
35,15,15,Jits_Phase_8,2,5,80,127,2005421296
35,15,15,Jits_Phase_8,3,5,63,98,2005451256
35,15,15,Jits_Phase_8,0,1,48,45,2006186920
35,15,15,Jits_Phase_8,1,5,63,98,2006290884
35,15,15,Jits_Phase_8,2,5,56,103,2006330672
35,15,15,Jits_Phase_8,3,5,80,127,2006333740
35,15,15,Jits_Phase_8,0,5,80,127,2006991144
35,15,15,Jits_Phase_8,1,1,48,26,2007026248
35,15,15,Jits_Phase_8,2,5,56,103,2007071108
35,15,15,Jits_Phase_8,3,5,63,98,2007121216
35,15,15,Jits_Phase_8,0,5,80,127,2007770392
35,15,15,Jits_Phase_8,1,5,56,103,2007791000
35,15,15,Jits_Phase_8,2,5,63,98,2007880932
35,15,15,Jits_Phase_8,3,1,48,33,2007909452
35,15,15,Jits_Phase_8,0,5,80,127,2008611164
35,15,15,Jits_Phase_8,1,5,63,98,2008651104
35,15,15,Jits_Phase_8,2,1,48,46,2008676692
35,15,15,Jits_Phase_8,3,5,56,103,2008691036
35,15,15,Jits_Phase_8,0,5,63,98,2009421128
35,15,15,Jits_Phase_8,1,1,48,43,2009422168
35,15,15,Jits_Phase_8,2,5,80,127,2009480616
35,15,15,Jits_Phase_8,3,5,56,103,2009511188
35,15,15,Jits_Phase_8,0,1,48,48,2010184880
35,15,15,Jits_Phase_8,1,5,56,103,2010260880
35,15,15,Jits_Phase_8,2,5,80,127,2010290468
35,15,15,Jits_Phase_8,3,5,63,98,2010380748
35,15,15,Jits_Phase_8,0,1,48,42,2011033484
35,15,15,Jits_Phase_8,1,5,56,103,2011070900
35,15,15,Jits_Phase_8,2,5,80,127,2011181424
35,15,15,Jits_Phase_8,3,5,63,98,2011211024
35,15,15,Jits_Phase_8,0,1,48,45,2011845688
35,15,15,Jits_Phase_8,1,5,56,103,2011920960
35,15,15,Jits_Phase_8,2,5,63,98,2011981116
35,15,15,Jits_Phase_8,3,5,80,127,2012010792
35,15,15,Jits_Phase_8,0,1,48,42,2012683136
35,15,15,Jits_Phase_8,1,5,56,103,2012691056
35,15,15,Jits_Phase_8,2,5,63,98,2012760516
35,15,15,Jits_Phase_8,3,5,80,127,2012780884
35,15,15,Jits_Phase_8,0,5,80,127,2013460860
35,15,15,Jits_Phase_8,1,5,63,98,2013481244
35,15,15,Jits_Phase_8,2,5,56,103,2013530472
35,15,15,Jits_Phase_8,3,1,48,34,2013533520
35,15,15,Jits_Phase_8,0,1,48,42,2014273176
35,15,15,Jits_Phase_8,1,5,63,98,2014281072
35,15,15,Jits_Phase_8,2,5,80,127,2014291192
35,15,15,Jits_Phase_8,3,5,56,103,2014340716
35,15,15,Jits_Phase_8,0,1,48,39,2015047968
35,15,15,Jits_Phase_8,1,5,63,98,2015080672
35,15,15,Jits_Phase_8,2,5,80,127,2015150412
35,15,15,Jits_Phase_8,3,5,56,103,2015170872
35,15,15,Jits_Phase_8,0,1,48,40,2015835668
35,15,15,Jits_Phase_8,1,5,63,98,2015911368
35,15,15,Jits_Phase_8,2,5,80,127,2015914656
35,15,15,Jits_Phase_8,3,5,56,103,2015980884
35,15,15,Jits_Phase_8,0,5,80,127,2016660780
35,15,15,Jits_Phase_8,1,1,48,43,2016676852
35,15,15,Jits_Phase_8,2,5,56,103,2016681456
35,15,15,Jits_Phase_8,3,5,63,98,2016690752
35,15,15,Jits_Phase_8,0,5,56,103,2017481000
35,15,15,Jits_Phase_8,1,1,48,47,2017484044
35,15,15,Jits_Phase_8,2,5,63,98,2017571224
35,15,15,Jits_Phase_8,3,5,80,127,2017574660
35,15,15,Jits_Phase_8,0,1,48,43,2018219152
35,15,15,Jits_Phase_8,1,5,80,127,2018251160
35,15,15,Jits_Phase_8,2,5,56,103,2018261356
35,15,15,Jits_Phase_8,3,5,63,98,2018280768
35,15,15,Jits_Phase_8,0,1,48,50,2018943000
35,15,15,Jits_Phase_8,1,5,63,98,2019050824
35,15,15,Jits_Phase_8,2,5,80,127,2019111460
35,15,15,Jits_Phase_8,3,5,56,103,2019120608
35,15,15,Jits_Phase_8,0,1,48,49,2019760732
35,15,15,Jits_Phase_8,1,5,63,98,2019921448
35,15,15,Jits_Phase_8,2,5,80,127,2019950900
35,15,15,Jits_Phase_8,3,5,56,103,2019990840
35,15,15,Jits_Phase_8,0,1,48,33,2020598736
35,15,15,Jits_Phase_8,1,5,56,103,2020710648
35,15,15,Jits_Phase_8,2,5,80,127,2020720992
35,15,15,Jits_Phase_8,3,5,63,98,2020760856
35,15,15,Jits_Phase_8,0,1,48,44,2021325820
35,15,15,Jits_Phase_8,1,5,80,127,2021470616
35,15,15,Jits_Phase_8,2,5,56,103,2021550636
35,15,15,Jits_Phase_8,3,5,63,98,2021560756
35,15,15,Jits_Phase_8,0,1,48,42,2022146780
35,15,15,Jits_Phase_8,1,5,80,127,2022320420
35,15,15,Jits_Phase_8,2,5,56,103,2022401488
35,15,15,Jits_Phase_8,3,5,63,98,2022410488
35,15,15,Jits_Phase_8,0,1,48,40,2022962468
35,15,15,Jits_Phase_8,1,5,80,127,2023161244
35,15,15,Jits_Phase_8,2,5,56,103,2023211544
35,15,15,Jits_Phase_8,3,5,63,98,2023260400
35,15,15,Jits_Phase_8,0,1,48,47,2023752612
35,15,15,Jits_Phase_8,1,5,56,103,2024101340
35,15,15,Jits_Phase_8,2,5,63,98,2024104480
35,15,15,Jits_Phase_8,3,5,80,127,2024151540
35,15,15,Jits_Phase_8,0,1,48,41,2024554616
35,15,15,Jits_Phase_8,1,5,56,103,2024920500
35,15,15,Jits_Phase_8,2,5,63,98,2024951148
35,15,15,Jits_Phase_8,3,5,80,127,2024961344
35,15,15,Jits_Phase_8,0,1,48,42,2025437536
35,15,15,Jits_Phase_8,1,5,63,98,2025631104
35,15,15,Jits_Phase_8,2,5,56,103,2025700788
35,15,15,Jits_Phase_8,3,5,80,127,2025750940
35,15,15,Jits_Phase_8,0,1,48,40,2026292920
35,15,15,Jits_Phase_8,1,5,63,98,2026460388
35,15,15,Jits_Phase_8,2,5,56,103,2026470732
35,15,15,Jits_Phase_8,3,5,80,127,2026473796
35,15,15,Jits_Phase_8,0,1,48,41,2027141148
35,15,15,Jits_Phase_8,1,5,80,127,2027211072
35,15,15,Jits_Phase_8,2,5,56,103,2027270400
35,15,15,Jits_Phase_8,3,5,63,98,2027360556
35,15,15,Jits_Phase_8,0,1,48,40,2027977004
35,15,15,Jits_Phase_8,1,5,80,127,2028010752
35,15,15,Jits_Phase_8,2,5,56,103,2028111308
35,15,15,Jits_Phase_8,3,5,63,98,2028151248
35,15,15,Jits_Phase_8,0,1,48,32,2028798560
35,15,15,Jits_Phase_8,1,5,56,103,2028860808
35,15,15,Jits_Phase_8,2,5,63,98,2028881416
35,15,15,Jits_Phase_8,3,5,80,127,2028921412
35,15,15,Jits_Phase_8,0,1,48,44,2029576448
35,15,15,Jits_Phase_8,1,5,63,98,2029630748
35,15,15,Jits_Phase_8,2,5,56,103,2029651284
35,15,15,Jits_Phase_8,3,5,80,127,2029750616
35,15,15,Jits_Phase_8,0,1,48,47,2030353224
35,15,15,Jits_Phase_8,1,5,63,98,2030421356
35,15,15,Jits_Phase_8,2,5,80,127,2030530884
35,15,15,Jits_Phase_8,3,5,56,103,2030560632
35,15,15,Jits_Phase_8,0,1,48,45,2031183776
35,15,15,Jits_Phase_8,1,5,56,103,2031240452
35,15,15,Jits_Phase_8,2,5,63,98,2031271324
35,15,15,Jits_Phase_8,3,5,80,127,2031320388
35,15,15,Jits_Phase_8,0,5,63,98,2032010548
35,15,15,Jits_Phase_8,1,1,48,48,2032031276
35,15,15,Jits_Phase_8,2,5,56,103,2032041488
35,15,15,Jits_Phase_8,3,5,80,127,2032090416
35,15,15,Jits_Phase_8,0,1,48,44,2032807928
35,15,15,Jits_Phase_8,1,5,56,103,2032841156
35,15,15,Jits_Phase_8,2,5,63,98,2032860420
35,15,15,Jits_Phase_8,3,5,80,127,2032941344
35,15,15,Jits_Phase_8,0,1,48,43,2033600060
35,15,15,Jits_Phase_8,1,5,63,98,2033611244
35,15,15,Jits_Phase_8,2,5,56,103,2033670440
35,15,15,Jits_Phase_8,3,5,80,127,2033701096
35,15,15,Jits_Phase_8,0,1,48,43,2034376800
35,15,15,Jits_Phase_8,1,5,56,103,2034450656
35,15,15,Jits_Phase_8,2,5,80,127,2034511180
35,15,15,Jits_Phase_8,3,5,63,98,2034551268
35,15,15,Jits_Phase_8,0,5,63,98,2035231316
35,15,15,Jits_Phase_8,1,1,48,38,2035258868
35,15,15,Jits_Phase_8,2,5,56,103,2035290356
35,15,15,Jits_Phase_8,3,5,80,127,2035361140
35,15,15,Jits_Phase_8,0,1,48,41,2035964036
35,15,15,Jits_Phase_8,1,5,56,103,2036110992
35,15,15,Jits_Phase_8,2,5,63,98,2036121188
35,15,15,Jits_Phase_8,3,5,80,127,2036124552
35,15,15,Jits_Phase_8,0,1,48,39,2036778184
35,15,15,Jits_Phase_8,1,5,63,98,2036851192
35,15,15,Jits_Phase_8,2,5,56,103,2036910372
35,15,15,Jits_Phase_8,3,5,80,127,2036913512
35,15,15,Jits_Phase_8,0,1,48,29,2037547888
35,15,15,Jits_Phase_8,1,5,63,98,2037631240
35,15,15,Jits_Phase_8,2,5,80,127,2037660976
35,15,15,Jits_Phase_8,3,5,56,103,2037680464
35,15,15,Jits_Phase_8,0,5,56,103,2038360428
35,15,15,Jits_Phase_8,1,1,48,35,2038386168
35,15,15,Jits_Phase_8,2,5,63,98,2038410548
35,15,15,Jits_Phase_8,3,5,80,127,2038490476
35,15,15,Jits_Phase_8,0,5,80,127,2039060868
35,15,15,Jits_Phase_8,1,5,63,98,2039100884
35,15,15,Jits_Phase_8,2,5,56,103,2039121268
35,15,15,Jits_Phase_8,3,1,48,28,2039152476
35,15,15,Jits_Phase_8,0,1,48,31,2039852216
35,15,15,Jits_Phase_8,1,5,56,103,2039931280
35,15,15,Jits_Phase_8,2,5,80,127,2039940356
35,15,15,Jits_Phase_8,3,5,63,98,2039961096
35,15,15,Jits_Phase_8,0,1,48,36,2040649200
35,15,15,Jits_Phase_8,1,5,56,103,2040710508
35,15,15,Jits_Phase_8,2,5,63,98,2040760772
35,15,15,Jits_Phase_8,3,5,80,127,2040791268
35,15,15,Jits_Phase_8,0,5,56,103,2041461052
35,15,15,Jits_Phase_8,1,5,63,98,2041471324
35,15,15,Jits_Phase_8,2,1,48,36,2041475936
35,15,15,Jits_Phase_8,3,5,80,127,2041520472
35,15,15,Jits_Phase_8,0,1,48,35,2042213808
35,15,15,Jits_Phase_8,1,5,56,103,2042250696
35,15,15,Jits_Phase_8,2,5,80,127,2042253836
35,15,15,Jits_Phase_8,3,5,63,98,2042411328
35,15,15,Jits_Phase_8,0,1,48,44,2043020604
35,15,15,Jits_Phase_8,1,5,63,98,2043070972
35,15,15,Jits_Phase_8,2,5,56,103,2043140416
35,15,15,Jits_Phase_8,3,5,80,127,2043181276
35,15,15,Jits_Phase_8,0,1,48,29,2043805820
35,15,15,Jits_Phase_8,1,5,63,98,2043910576
35,15,15,Jits_Phase_8,2,5,56,103,2044000884
35,15,15,Jits_Phase_8,3,5,80,127,2044003800
35,15,15,Jits_Phase_8,0,1,48,39,2044549472
35,15,15,Jits_Phase_8,1,5,56,103,2044690952
35,15,15,Jits_Phase_8,2,5,63,98,2044780788
35,15,15,Jits_Phase_8,3,5,80,127,2044791060
35,15,15,Jits_Phase_8,0,1,48,40,2045315212
35,15,15,Jits_Phase_8,1,5,56,103,2045460972
35,15,15,Jits_Phase_8,2,5,63,98,2045510952
35,15,15,Jits_Phase_8,3,5,80,127,2045540924
35,15,15,Jits_Phase_8,0,1,48,27,2046133400
35,15,15,Jits_Phase_8,1,5,63,98,2046340596
35,15,15,Jits_Phase_8,2,5,80,127,2046350716
35,15,15,Jits_Phase_8,3,5,56,103,2046411108
35,15,15,Jits_Phase_8,0,1,48,41,2046928576
35,15,15,Jits_Phase_8,1,5,63,98,2047061312
35,15,15,Jits_Phase_8,2,5,80,127,2047120880
35,15,15,Jits_Phase_8,3,5,56,103,2047160892
35,15,15,Jits_Phase_8,0,1,48,42,2047661368
35,15,15,Jits_Phase_8,1,5,56,103,2047960492
35,15,15,Jits_Phase_8,2,5,80,127,2047980952
35,15,15,Jits_Phase_8,3,5,63,98,2048001260
35,15,15,Jits_Phase_8,0,1,48,35,2048546188
35,15,15,Jits_Phase_8,1,5,63,98,2048681292
35,15,15,Jits_Phase_8,2,5,56,103,2048700780
35,15,15,Jits_Phase_8,3,5,80,127,2048740716
35,15,15,Jits_Phase_8,0,1,48,28,2049334408
35,15,15,Jits_Phase_8,1,5,63,98,2049491608
35,15,15,Jits_Phase_8,2,5,80,127,2049521060
35,15,15,Jits_Phase_8,3,5,56,103,2049540396
35,15,15,Jits_Phase_8,0,1,48,37,2050154388
35,15,15,Jits_Phase_8,1,5,80,127,2050261464
35,15,15,Jits_Phase_8,2,5,56,103,2050310696
35,15,15,Jits_Phase_8,3,5,63,98,2050370964
35,15,15,Jits_Phase_8,0,1,48,28,2050968444
35,15,15,Jits_Phase_8,1,5,63,98,2051050752
35,15,15,Jits_Phase_8,2,5,56,103,2051170564
35,15,15,Jits_Phase_8,3,5,80,127,2051201580
35,15,15,Jits_Phase_8,0,1,48,30,2051739224
35,15,15,Jits_Phase_8,1,5,80,127,2051890672
35,15,15,Jits_Phase_8,2,5,63,98,2051911060
35,15,15,Jits_Phase_8,3,5,56,103,2051980664
35,15,15,Jits_Phase_8,0,1,48,27,2052598600
35,15,15,Jits_Phase_8,1,5,63,98,2052710808
35,15,15,Jits_Phase_8,2,5,56,103,2052720928
35,15,15,Jits_Phase_8,3,5,80,127,2052800944
35,15,15,Jits_Phase_8,0,1,48,41,2053424756
35,15,15,Jits_Phase_8,1,5,56,103,2053570948
35,15,15,Jits_Phase_8,2,5,80,127,2053600476
35,15,15,Jits_Phase_8,3,5,63,98,2053610820
35,15,15,Jits_Phase_8,0,9999,9999,9999,1918719064
35,15,15,Jits_Phase_8,1,9999,9999,9999,1919518808
35,15,15,Jits_Phase_8,2,9999,9999,9999,1920318544
35,15,15,Jits_Phase_8,3,9999,9999,9999,1921118284
35,15,15,Jits_Phase_8,4,9999,9999,9999,1921919036
35,15,15,Jits_Phase_8,5,9999,9999,9999,1922718796
35,15,15,Jits_Phase_8,6,9999,9999,9999,1923518552
35,15,15,Jits_Phase_8,7,9999,9999,9999,1924318312
35,15,15,Jits_Phase_8,8,9999,9999,9999,1925119048
35,15,15,Jits_Phase_8,9,9999,9999,9999,1925918816
35,15,15,Jits_Phase_8,10,9999,9999,9999,1926718580
35,15,15,Jits_Phase_8,11,9999,9999,9999,1927518264
35,15,15,Jits_Phase_8,12,9999,9999,9999,1928319048
35,15,15,Jits_Phase_8,13,9999,9999,9999,1929118816
35,15,15,Jits_Phase_8,14,9999,9999,9999,1929918568
35,15,15,Jits_Phase_8,15,9999,9999,9999,1930718272
35,15,15,Jits_Phase_8,16,9999,9999,9999,1931519060
35,15,15,Jits_Phase_8,17,9999,9999,9999,1932318776
35,15,15,Jits_Phase_8,18,9999,9999,9999,1933118540
35,15,15,Jits_Phase_8,19,9999,9999,9999,1933918300
35,15,15,Jits_Phase_8,20,9999,9999,9999,1934719028
35,15,15,Jits_Phase_8,21,9999,9999,9999,1935518788
35,15,15,Jits_Phase_8,22,9999,9999,9999,1936318536
35,15,15,Jits_Phase_8,23,9999,9999,9999,1937118296
35,15,15,Jits_Phase_8,24,9999,9999,9999,1937919096
35,15,15,Jits_Phase_8,25,9999,9999,9999,1938718808
35,15,15,Jits_Phase_8,26,9999,9999,9999,1939518568
35,15,15,Jits_Phase_8,27,9999,9999,9999,1940318328
35,15,15,Jits_Phase_8,28,9999,9999,9999,1941119060
35,15,15,Jits_Phase_8,29,9999,9999,9999,1941918824
35,15,15,Jits_Phase_8,30,9999,9999,9999,1942699104
35,15,15,Jits_Phase_8,31,9999,9999,9999,1943509056
35,15,15,Jits_Phase_8,32,9999,9999,9999,1944308812
35,15,15,Jits_Phase_8,33,9999,9999,9999,1945108556
35,15,15,Jits_Phase_8,34,9999,9999,9999,1945908292
35,15,15,Jits_Phase_8,35,9999,9999,9999,1946709104
35,15,15,Jits_Phase_8,36,9999,9999,9999,1947508796
35,15,15,Jits_Phase_8,37,9999,9999,9999,1948308556
35,15,15,Jits_Phase_8,38,9999,9999,9999,1949108312
35,15,15,Jits_Phase_8,39,9999,9999,9999,1949909120
35,15,15,Jits_Phase_8,40,9999,9999,9999,1950708808
35,15,15,Jits_Phase_8,41,9999,9999,9999,1951508592
35,15,15,Jits_Phase_8,42,9999,9999,9999,1952308348
35,15,15,Jits_Phase_8,43,9999,9999,9999,1953109072
35,15,15,Jits_Phase_8,44,9999,9999,9999,1953908812
35,15,15,Jits_Phase_8,45,9999,9999,9999,1954708572
35,15,15,Jits_Phase_8,46,9999,9999,9999,1955508352
35,15,15,Jits_Phase_8,47,9999,9999,9999,1956309072
35,15,15,Jits_Phase_8,48,9999,9999,9999,1957128312
35,15,15,Jits_Phase_8,49,9999,9999,9999,1957929064
35,15,15,Jits_Phase_8,50,9999,9999,9999,1958728820
35,15,15,Jits_Phase_8,51,9999,9999,9999,1959528508
35,15,15,Jits_Phase_8,52,9999,9999,9999,1960328272
35,15,15,Jits_Phase_8,53,9999,9999,9999,1961129084
35,15,15,Jits_Phase_8,54,9999,9999,9999,1961928764
35,15,15,Jits_Phase_8,55,9999,9999,9999,1962728524
35,15,15,Jits_Phase_8,56,9999,9999,9999,1963528280
35,15,15,Jits_Phase_8,57,9999,9999,9999,1964329028
35,15,15,Jits_Phase_8,58,9999,9999,9999,1965128792
35,15,15,Jits_Phase_8,59,9999,9999,9999,1965928552
35,15,15,Jits_Phase_8,60,9999,9999,9999,1966728312
35,15,15,Jits_Phase_8,61,9999,9999,9999,1967529048
35,15,15,Jits_Phase_8,62,9999,9999,9999,1968328800
35,15,15,Jits_Phase_8,63,9999,9999,9999,1969128552
35,15,15,Jits_Phase_8,64,9999,9999,9999,1969968200
35,15,15,Jits_Phase_8,65,9999,9999,9999,1970769008
35,15,15,Jits_Phase_8,66,9999,9999,9999,1971568696
35,15,15,Jits_Phase_8,67,9999,9999,9999,1972368460
35,15,15,Jits_Phase_8,68,9999,9999,9999,1973168208
35,15,15,Jits_Phase_8,69,9999,9999,9999,1973969012
35,15,15,Jits_Phase_8,70,9999,9999,9999,1974768704
35,15,15,Jits_Phase_8,71,9999,9999,9999,1975568472
35,15,15,Jits_Phase_8,72,9999,9999,9999,1976368252
35,15,15,Jits_Phase_8,73,9999,9999,9999,1977168996
35,15,15,Jits_Phase_8,74,9999,9999,9999,1977968764
35,15,15,Jits_Phase_8,75,9999,9999,9999,1978768448
35,15,15,Jits_Phase_8,76,9999,9999,9999,1979568204
35,15,15,Jits_Phase_8,77,9999,9999,9999,1980369008
35,15,15,Jits_Phase_8,78,9999,9999,9999,1981168760
35,15,15,Jits_Phase_8,79,9999,9999,9999,1981968448
35,15,15,Jits_Phase_8,80,9999,9999,9999,1982768232
35,15,15,Jits_Phase_8,81,9999,9999,9999,1983529032
35,15,15,Jits_Phase_8,82,9999,9999,9999,1984328788
35,15,15,Jits_Phase_8,83,9999,9999,9999,1985128544
35,15,15,Jits_Phase_8,84,9999,9999,9999,1985928312
35,15,15,Jits_Phase_8,85,9999,9999,9999,1986729044
35,15,15,Jits_Phase_8,86,9999,9999,9999,1987528804
35,15,15,Jits_Phase_8,87,9999,9999,9999,1988328560
35,15,15,Jits_Phase_8,88,9999,9999,9999,1989128312
35,15,15,Jits_Phase_8,89,9999,9999,9999,1989929068
35,15,15,Jits_Phase_8,90,9999,9999,9999,1990728764
35,15,15,Jits_Phase_8,91,9999,9999,9999,1991528520
35,15,15,Jits_Phase_8,92,9999,9999,9999,1992328284
35,15,15,Jits_Phase_8,93,9999,9999,9999,1993129088
35,15,15,Jits_Phase_8,94,9999,9999,9999,1993928768
35,15,15,Jits_Phase_8,95,9999,9999,9999,1994728528
35,15,15,Jits_Phase_8,96,9999,9999,9999,1995528300
35,15,15,Jits_Phase_8,97,9999,9999,9999,1996248192
35,15,15,Jits_Phase_8,98,9999,9999,9999,1997048924
35,15,15,Jits_Phase_8,99,9999,9999,9999,1997848640
35,15,15,Jits_Phase_8,100,9999,9999,9999,1998648388
35,15,15,Jits_Phase_8,101,9999,9999,9999,1999448148
35,15,15,Jits_Phase_8,102,9999,9999,9999,2000248944
35,15,15,Jits_Phase_8,103,9999,9999,9999,2001048700
35,15,15,Jits_Phase_8,104,9999,9999,9999,2001848384
35,15,15,Jits_Phase_8,105,9999,9999,9999,2002648152
35,15,15,Jits_Phase_8,106,9999,9999,9999,2003448948
35,15,15,Jits_Phase_8,107,9999,9999,9999,2004248640
35,15,15,Jits_Phase_8,108,9999,9999,9999,2005048400
35,15,15,Jits_Phase_8,109,9999,9999,9999,2005848156
35,15,15,Jits_Phase_8,110,9999,9999,9999,2006648888
35,15,15,Jits_Phase_8,111,9999,9999,9999,2007448648
35,15,15,Jits_Phase_8,112,9999,9999,9999,2008248416
35,15,15,Jits_Phase_8,113,9999,9999,9999,2009048116
35,15,15,Jits_Phase_8,114,9999,9999,9999,2009928820
35,15,15,Jits_Phase_8,115,9999,9999,9999,2010728504
35,15,15,Jits_Phase_8,116,9999,9999,9999,2011528268
35,15,15,Jits_Phase_8,117,9999,9999,9999,2012329080
35,15,15,Jits_Phase_8,118,9999,9999,9999,2013128764
35,15,15,Jits_Phase_8,119,9999,9999,9999,2013928520
35,15,15,Jits_Phase_8,120,9999,9999,9999,2014728288
35,15,15,Jits_Phase_8,121,9999,9999,9999,2015529040
35,15,15,Jits_Phase_8,122,9999,9999,9999,2016328788
35,15,15,Jits_Phase_8,123,9999,9999,9999,2017128540
35,15,15,Jits_Phase_8,124,9999,9999,9999,2017928304
35,15,15,Jits_Phase_8,125,9999,9999,9999,2018729040
35,15,15,Jits_Phase_8,126,9999,9999,9999,2019528796
35,15,15,Jits_Phase_8,127,9999,9999,9999,2020328532
35,15,15,Jits_Phase_8,128,9999,9999,9999,2021128288
35,15,15,Jits_Phase_8,129,9999,9999,9999,2021929036
35,15,15,Jits_Phase_8,130,9999,9999,9999,2022728804
35,15,15,Jits_Phase_8,131,9999,9999,9999,2023688288
35,15,15,Jits_Phase_8,132,9999,9999,9999,2024489036
35,15,15,Jits_Phase_8,133,9999,9999,9999,2025288800
35,15,15,Jits_Phase_8,134,9999,9999,9999,2026088560
35,15,15,Jits_Phase_8,135,9999,9999,9999,2026888304
35,15,15,Jits_Phase_8,136,9999,9999,9999,2027689032
35,15,15,Jits_Phase_8,137,9999,9999,9999,2028488792
35,15,15,Jits_Phase_8,138,9999,9999,9999,2029288548
35,15,15,Jits_Phase_8,139,9999,9999,9999,2030088308
35,15,15,Jits_Phase_8,140,9999,9999,9999,2030889060
35,15,15,Jits_Phase_8,141,9999,9999,9999,2031688820
35,15,15,Jits_Phase_8,142,9999,9999,9999,2032488572
35,15,15,Jits_Phase_8,143,9999,9999,9999,2033288256
35,15,15,Jits_Phase_8,144,9999,9999,9999,2034089056
35,15,15,Jits_Phase_8,145,9999,9999,9999,2034888812
35,15,15,Jits_Phase_8,146,9999,9999,9999,2035688572
35,15,15,Jits_Phase_8,147,9999,9999,9999,2036488252
35,15,15,Jits_Phase_8,148,9999,9999,9999,2037289064
35,15,15,Jits_Phase_8,149,9999,9999,9999,2038088824
35,15,15,Jits_Phase_8,150,9999,9999,9999,2038728764
35,15,15,Jits_Phase_8,151,9999,9999,9999,2039528532
35,15,15,Jits_Phase_8,152,9999,9999,9999,2040328308
35,15,15,Jits_Phase_8,153,9999,9999,9999,2041129060
35,15,15,Jits_Phase_8,154,9999,9999,9999,2041928812
35,15,15,Jits_Phase_8,155,9999,9999,9999,2042728572
35,15,15,Jits_Phase_8,156,9999,9999,9999,2043528260
35,15,15,Jits_Phase_8,157,9999,9999,9999,2044329064
35,15,15,Jits_Phase_8,158,9999,9999,9999,2045128828
35,15,15,Jits_Phase_8,159,9999,9999,9999,2045928508
35,15,15,Jits_Phase_8,160,9999,9999,9999,2046728276
35,15,15,Jits_Phase_8,161,9999,9999,9999,2047529024
35,15,15,Jits_Phase_8,162,9999,9999,9999,2048328788
35,15,15,Jits_Phase_8,163,9999,9999,9999,2049128552
35,15,15,Jits_Phase_8,164,9999,9999,9999,2049928304
35,15,15,Jits_Phase_8,165,9999,9999,9999,2050729032
35,15,15,Jits_Phase_8,166,9999,9999,9999,2051528788
35,15,15,Jits_Phase_8,167,9999,9999,9999,2052328544
35,15,15,Jits_Phase_8,168,9999,9999,9999,2053128304
35,15,15,Jits_Phase_8,169,9999,9999,9999,2053929060
35,16,16,Jits_ISO_5,0,5,56,103,2065034588
35,16,16,Jits_ISO_5,1,5,63,98,2065037684
35,16,16,Jits_ISO_5,2,5,80,127,2065040732
35,16,16,Jits_ISO_5,0,5,56,103,2065535280
35,16,16,Jits_ISO_5,1,5,63,98,2065538528
35,16,16,Jits_ISO_5,2,5,80,127,2065541500
35,16,16,Jits_ISO_5,0,5,56,103,2066035240
35,16,16,Jits_ISO_5,1,5,80,127,2066045288
35,16,16,Jits_ISO_5,2,5,63,98,2066064700
35,16,16,Jits_ISO_5,0,5,63,98,2066484560
35,16,16,Jits_ISO_5,1,5,80,127,2066515356
35,16,16,Jits_ISO_5,2,5,56,103,2066524504
35,16,16,Jits_ISO_5,3,1,48,51,2066551360
35,16,16,Jits_ISO_5,0,1,48,54,2067003516
35,16,16,Jits_ISO_5,1,5,80,127,2067044740
35,16,16,Jits_ISO_5,2,5,56,103,2067055232
35,16,16,Jits_ISO_5,3,5,63,98,2067084756
35,16,16,Jits_ISO_5,0,5,63,98,2067535120
35,16,16,Jits_ISO_5,1,1,48,47,2067538088
35,16,16,Jits_ISO_5,2,5,56,103,2067564864
35,16,16,Jits_ISO_5,3,5,80,127,2067575132
35,16,16,Jits_ISO_5,0,5,56,103,2067984960
35,16,16,Jits_ISO_5,1,1,48,50,2068024644
35,16,16,Jits_ISO_5,2,5,63,98,2068034856
35,16,16,Jits_ISO_5,3,5,80,127,2068055464
35,16,16,Jits_ISO_5,0,1,48,49,2068481420
35,16,16,Jits_ISO_5,1,5,80,127,2068484600
35,16,16,Jits_ISO_5,2,5,63,98,2068534600
35,16,16,Jits_ISO_5,3,5,56,103,2068574524
35,16,16,Jits_ISO_5,0,5,56,103,2068985232
35,16,16,Jits_ISO_5,1,1,48,51,2068996892
35,16,16,Jits_ISO_5,2,5,63,98,2069014924
35,16,16,Jits_ISO_5,3,5,80,127,2069084380
35,16,16,Jits_ISO_5,0,1,48,47,2069481792
35,16,16,Jits_ISO_5,1,5,56,103,2069485044
35,16,16,Jits_ISO_5,2,5,80,127,2069545384
35,16,16,Jits_ISO_5,3,5,63,98,2069575120
35,16,16,Jits_ISO_5,0,5,56,103,2069995048
35,16,16,Jits_ISO_5,1,5,63,98,2070005096
35,16,16,Jits_ISO_5,2,1,48,44,2070020276
35,16,16,Jits_ISO_5,3,5,80,127,2070044976
35,16,16,Jits_ISO_5,0,1,48,42,2070482020
35,16,16,Jits_ISO_5,1,5,63,98,2070485572
35,16,16,Jits_ISO_5,2,5,80,127,2070565168
35,16,16,Jits_ISO_5,3,5,56,103,2070574392
35,16,16,Jits_ISO_5,0,1,48,44,2071035140
35,16,16,Jits_ISO_5,1,5,63,98,2071036848
35,16,16,Jits_ISO_5,2,5,56,103,2071075168
35,16,16,Jits_ISO_5,3,5,80,127,2071078308
35,16,16,Jits_ISO_5,0,5,56,103,2071494936
35,16,16,Jits_ISO_5,1,5,63,98,2071505208
35,16,16,Jits_ISO_5,2,5,80,127,2071545144
35,16,16,Jits_ISO_5,3,1,48,44,2071552168
35,16,16,Jits_ISO_5,0,5,56,103,2071984492
35,16,16,Jits_ISO_5,1,5,63,98,2071987484
35,16,16,Jits_ISO_5,2,5,80,127,2072005096
35,16,16,Jits_ISO_5,3,1,48,48,2072049560
35,16,16,Jits_ISO_5,0,5,80,127,2072494564
35,16,16,Jits_ISO_5,1,5,56,103,2072504832
35,16,16,Jits_ISO_5,2,1,48,49,2072527652
35,16,16,Jits_ISO_5,3,5,63,98,2072575400
35,16,16,Jits_ISO_5,0,1,48,49,2072973904
35,16,16,Jits_ISO_5,1,5,63,98,2072985088
35,16,16,Jits_ISO_5,2,5,56,103,2073005324
35,16,16,Jits_ISO_5,3,5,80,127,2073085320
35,16,16,Jits_ISO_5,0,1,48,50,2073485696
35,16,16,Jits_ISO_5,1,5,56,103,2073494860
35,16,16,Jits_ISO_5,2,5,80,127,2073534872
35,16,16,Jits_ISO_5,3,5,63,98,2073545144
35,16,16,Jits_ISO_5,0,5,80,127,2073985384
35,16,16,Jits_ISO_5,1,1,48,53,2074003116
35,16,16,Jits_ISO_5,2,5,63,98,2074015048
35,16,16,Jits_ISO_5,3,5,56,103,2074054912
35,16,16,Jits_ISO_5,0,5,56,103,2074514872
35,16,16,Jits_ISO_5,1,5,63,98,2074544768
35,16,16,Jits_ISO_5,2,1,48,35,2074565652
35,16,16,Jits_ISO_5,3,5,80,127,2074594960
35,16,16,Jits_ISO_5,0,1,48,52,2075011136
35,16,16,Jits_ISO_5,1,5,80,127,2075014540
35,16,16,Jits_ISO_5,2,5,56,103,2075054480
35,16,16,Jits_ISO_5,3,5,63,98,2075064824
35,16,16,Jits_ISO_5,0,5,80,127,2075494952
35,16,16,Jits_ISO_5,1,1,48,41,2075506608
35,16,16,Jits_ISO_5,2,5,63,98,2075534880
35,16,16,Jits_ISO_5,3,5,56,103,2075595192
35,16,16,Jits_ISO_5,0,5,56,103,2075994624
35,16,16,Jits_ISO_5,1,1,48,46,2075995588
35,16,16,Jits_ISO_5,2,5,80,127,2076004812
35,16,16,Jits_ISO_5,3,5,63,98,2076084752
35,16,16,Jits_ISO_5,0,1,48,38,2076493912
35,16,16,Jits_ISO_5,1,5,80,127,2076495708
35,16,16,Jits_ISO_5,2,5,63,98,2076554752
35,16,16,Jits_ISO_5,3,5,56,103,2076585476
35,16,16,Jits_ISO_5,0,1,48,41,2076992960
35,16,16,Jits_ISO_5,1,5,56,103,2076994848
35,16,16,Jits_ISO_5,2,5,80,127,2077055312
35,16,16,Jits_ISO_5,3,5,63,98,2077095160
35,16,16,Jits_ISO_5,0,1,48,50,2077520764
35,16,16,Jits_ISO_5,1,5,56,103,2077544780
35,16,16,Jits_ISO_5,2,5,63,98,2077555268
35,16,16,Jits_ISO_5,3,5,80,127,2077558780
35,16,16,Jits_ISO_5,0,5,80,127,2077995360
35,16,16,Jits_ISO_5,1,1,48,48,2077998404
35,16,16,Jits_ISO_5,2,5,63,98,2078084660
35,16,16,Jits_ISO_5,3,5,56,103,2078094844
35,16,16,Jits_ISO_5,0,5,56,103,2078495020
35,16,16,Jits_ISO_5,1,5,63,98,2078498040
35,16,16,Jits_ISO_5,2,5,80,127,2078501312
35,16,16,Jits_ISO_5,3,1,48,45,2078531928
35,16,16,Jits_ISO_5,0,1,48,47,2078981656
35,16,16,Jits_ISO_5,1,5,80,127,2079015352
35,16,16,Jits_ISO_5,2,5,63,98,2079064508
35,16,16,Jits_ISO_5,3,5,56,103,2079095140
35,16,16,Jits_ISO_5,0,5,56,103,2079494620
35,16,16,Jits_ISO_5,1,5,80,127,2079504764
35,16,16,Jits_ISO_5,2,1,48,53,2079528628
35,16,16,Jits_ISO_5,3,5,63,98,2079575628
35,16,16,Jits_ISO_5,0,1,48,38,2079980236
35,16,16,Jits_ISO_5,1,5,56,103,2080004396
35,16,16,Jits_ISO_5,2,5,63,98,2080024952
35,16,16,Jits_ISO_5,3,5,80,127,2080085624
35,16,16,Jits_ISO_5,0,1,48,48,2080465520
35,16,16,Jits_ISO_5,1,5,80,127,2080494916
35,16,16,Jits_ISO_5,2,5,63,98,2080564752
35,16,16,Jits_ISO_5,3,5,56,103,2080585064
35,16,16,Jits_ISO_5,0,5,80,127,2081015180
35,16,16,Jits_ISO_5,1,5,56,103,2081025676
35,16,16,Jits_ISO_5,2,1,48,43,2081035144
35,16,16,Jits_ISO_5,3,5,63,98,2081036564
35,16,16,Jits_ISO_5,0,5,80,127,2081504664
35,16,16,Jits_ISO_5,1,1,48,43,2081507180
35,16,16,Jits_ISO_5,2,5,56,103,2081525040
35,16,16,Jits_ISO_5,3,5,63,98,2081594596
35,16,16,Jits_ISO_5,0,5,56,103,2082014452
35,16,16,Jits_ISO_5,1,1,48,51,2082021304
35,16,16,Jits_ISO_5,2,5,80,127,2082045240
35,16,16,Jits_ISO_5,3,5,63,98,2082064752
35,16,16,Jits_ISO_5,0,1,48,54,2082484944
35,16,16,Jits_ISO_5,1,5,63,98,2082505048
35,16,16,Jits_ISO_5,2,5,56,103,2082564464
35,16,16,Jits_ISO_5,3,5,80,127,2082595120
35,16,16,Jits_ISO_5,0,1,48,51,2082956436
35,16,16,Jits_ISO_5,1,5,63,98,2082994668
35,16,16,Jits_ISO_5,2,5,80,127,2082997880
35,16,16,Jits_ISO_5,3,5,56,103,2083084656
35,16,16,Jits_ISO_5,0,1,48,46,2083486644
35,16,16,Jits_ISO_5,1,5,56,103,2083514692
35,16,16,Jits_ISO_5,2,5,63,98,2083544592
35,16,16,Jits_ISO_5,3,5,80,127,2083585780
35,16,16,Jits_ISO_5,0,1,48,46,2083952352
35,16,16,Jits_ISO_5,1,5,63,98,2084014652
35,16,16,Jits_ISO_5,2,5,56,103,2084055472
35,16,16,Jits_ISO_5,3,5,80,127,2084074808
35,16,16,Jits_ISO_5,0,1,48,44,2084485964
35,16,16,Jits_ISO_5,1,5,63,98,2084525620
35,16,16,Jits_ISO_5,2,5,56,103,2084565484
35,16,16,Jits_ISO_5,3,5,80,127,2084574632
35,16,16,Jits_ISO_5,0,1,48,47,2084969736
35,16,16,Jits_ISO_5,1,5,80,127,2085004608
35,16,16,Jits_ISO_5,2,5,63,98,2085075540
35,16,16,Jits_ISO_5,3,5,56,103,2085094652
35,16,16,Jits_ISO_5,0,1,48,41,2085486932
35,16,16,Jits_ISO_5,1,5,56,103,2085495272
35,16,16,Jits_ISO_5,2,5,80,127,2085514608
35,16,16,Jits_ISO_5,3,5,63,98,2085554544
35,16,16,Jits_ISO_5,0,1,48,51,2085959232
35,16,16,Jits_ISO_5,1,5,63,98,2086005116
35,16,16,Jits_ISO_5,2,5,80,127,2086024452
35,16,16,Jits_ISO_5,3,5,56,103,2086064448
35,16,16,Jits_ISO_5,0,1,48,37,2086455452
35,16,16,Jits_ISO_5,1,5,63,98,2086504848
35,16,16,Jits_ISO_5,2,5,56,103,2086525232
35,16,16,Jits_ISO_5,3,5,80,127,2086534452
35,16,16,Jits_ISO_5,0,1,48,50,2086965520
35,16,16,Jits_ISO_5,1,5,80,127,2087004504
35,16,16,Jits_ISO_5,2,5,56,103,2087025112
35,16,16,Jits_ISO_5,3,5,63,98,2087054636
35,16,16,Jits_ISO_5,0,1,48,49,2087425444
35,16,16,Jits_ISO_5,1,5,56,103,2087574868
35,16,16,Jits_ISO_5,2,5,80,127,2087578156
35,16,16,Jits_ISO_5,3,5,63,98,2087595548
35,16,16,Jits_ISO_5,0,1,48,48,2087933116
35,16,16,Jits_ISO_5,1,5,63,98,2087994748
35,16,16,Jits_ISO_5,2,5,56,103,2088025452
35,16,16,Jits_ISO_5,3,5,80,127,2088084720
35,16,16,Jits_ISO_5,0,1,48,53,2088477824
35,16,16,Jits_ISO_5,1,5,63,98,2088576500
35,16,16,Jits_ISO_5,2,5,56,103,2088584528
35,16,16,Jits_ISO_5,3,5,80,127,2088594724
35,16,16,Jits_ISO_5,0,1,48,49,2089013156
35,16,16,Jits_ISO_5,1,5,56,103,2089024792
35,16,16,Jits_ISO_5,2,5,80,127,2089054616
35,16,16,Jits_ISO_5,3,5,63,98,2089064736
35,16,16,Jits_ISO_5,0,1,48,50,2089500440
35,16,16,Jits_ISO_5,1,5,63,98,2089564532
35,16,16,Jits_ISO_5,2,5,56,103,2089574728
35,16,16,Jits_ISO_5,3,5,80,127,2089595336
35,16,16,Jits_ISO_5,0,5,56,103,2089994528
35,16,16,Jits_ISO_5,1,1,48,51,2089999212
35,16,16,Jits_ISO_5,2,5,63,98,2090055132
35,16,16,Jits_ISO_5,3,5,80,127,2090058344
35,16,16,Jits_ISO_5,0,1,48,47,2090468428
35,16,16,Jits_ISO_5,1,5,80,127,2090514856
35,16,16,Jits_ISO_5,2,5,56,103,2090525128
35,16,16,Jits_ISO_5,3,5,63,98,2090594788
35,16,16,Jits_ISO_5,0,1,48,48,2090996408
35,16,16,Jits_ISO_5,1,5,80,127,2091005200
35,16,16,Jits_ISO_5,2,5,56,103,2091075128
35,16,16,Jits_ISO_5,3,5,63,98,2091085396
35,16,16,Jits_ISO_5,0,1,48,46,2091521680
35,16,16,Jits_ISO_5,1,5,63,98,2091545040
35,16,16,Jits_ISO_5,2,5,56,103,2091555164
35,16,16,Jits_ISO_5,3,5,80,127,2091574576
35,16,16,Jits_ISO_5,0,1,48,55,2091985616
35,16,16,Jits_ISO_5,1,5,80,127,2091994408
35,16,16,Jits_ISO_5,2,5,63,98,2092054748
35,16,16,Jits_ISO_5,3,5,56,103,2092094816
35,16,16,Jits_ISO_5,0,1,48,48,2092494936
35,16,16,Jits_ISO_5,1,5,56,103,2092535264
35,16,16,Jits_ISO_5,2,5,63,98,2092545384
35,16,16,Jits_ISO_5,3,5,80,127,2092585348
35,16,16,Jits_ISO_5,0,5,56,103,2092995296
35,16,16,Jits_ISO_5,1,1,48,50,2093000740
35,16,16,Jits_ISO_5,2,5,80,127,2093024592
35,16,16,Jits_ISO_5,3,5,63,98,2093074744
35,16,16,Jits_ISO_5,0,1,48,49,2093456952
35,16,16,Jits_ISO_5,1,5,56,103,2093534524
35,16,16,Jits_ISO_5,2,5,63,98,2093574444
35,16,16,Jits_ISO_5,3,5,80,127,2093578132
35,16,16,Jits_ISO_5,0,1,48,42,2093963432
35,16,16,Jits_ISO_5,1,5,56,103,2094035224
35,16,16,Jits_ISO_5,2,5,63,98,2094044448
35,16,16,Jits_ISO_5,3,5,80,127,2094065112
35,16,16,Jits_ISO_5,0,1,48,46,2094483240
35,16,16,Jits_ISO_5,1,5,56,103,2094495248
35,16,16,Jits_ISO_5,2,5,80,127,2094498164
35,16,16,Jits_ISO_5,3,5,63,98,2094535184
35,16,16,Jits_ISO_5,0,1,48,43,2094971036
35,16,16,Jits_ISO_5,1,5,63,98,2095034828
35,16,16,Jits_ISO_5,2,5,56,103,2095064352
35,16,16,Jits_ISO_5,3,5,80,127,2095084944
35,16,16,Jits_ISO_5,0,1,48,49,2095466208
35,16,16,Jits_ISO_5,1,5,80,127,2095505044
35,16,16,Jits_ISO_5,2,5,56,103,2095515164
35,16,16,Jits_ISO_5,3,5,63,98,2095525212
35,16,16,Jits_ISO_5,0,1,48,48,2095952296
35,16,16,Jits_ISO_5,1,5,56,103,2096004476
35,16,16,Jits_ISO_5,2,5,80,127,2096045388
35,16,16,Jits_ISO_5,3,5,63,98,2096075268
35,16,16,Jits_ISO_5,0,1,48,51,2096490544
35,16,16,Jits_ISO_5,1,5,63,98,2096514324
35,16,16,Jits_ISO_5,2,5,80,127,2096524596
35,16,16,Jits_ISO_5,3,5,56,103,2096535012
35,16,16,Jits_ISO_5,0,1,48,47,2096986008
35,16,16,Jits_ISO_5,1,5,56,103,2096994728
35,16,16,Jits_ISO_5,2,5,63,98,2097065304
35,16,16,Jits_ISO_5,3,5,80,127,2097074528
35,16,16,Jits_ISO_5,0,5,80,127,2097495368
35,16,16,Jits_ISO_5,1,1,48,48,2097501404
35,16,16,Jits_ISO_5,2,5,56,103,2097504584
35,16,16,Jits_ISO_5,3,5,63,98,2097554932
35,16,16,Jits_ISO_5,0,1,48,46,2097966080
35,16,16,Jits_ISO_5,1,5,80,127,2098005292
35,16,16,Jits_ISO_5,2,5,56,103,2098064692
35,16,16,Jits_ISO_5,3,5,63,98,2098094368
35,16,16,Jits_ISO_5,0,1,48,49,2098487012
35,16,16,Jits_ISO_5,1,5,56,103,2098504940
35,16,16,Jits_ISO_5,2,5,80,127,2098508088
35,16,16,Jits_ISO_5,3,5,63,98,2098545036
35,16,16,Jits_ISO_5,0,1,48,44,2099009280
35,16,16,Jits_ISO_5,1,5,56,103,2099034488
35,16,16,Jits_ISO_5,2,5,63,98,2099065060
35,16,16,Jits_ISO_5,3,5,80,127,2099074432
35,16,16,Jits_ISO_5,0,1,48,43,2099492004
35,16,16,Jits_ISO_5,1,5,63,98,2099544560
35,16,16,Jits_ISO_5,2,5,80,127,2099554608
35,16,16,Jits_ISO_5,3,5,56,103,2099565172
35,16,16,Jits_ISO_5,0,1,48,43,2099949908
35,16,16,Jits_ISO_5,1,5,80,127,2099995140
35,16,16,Jits_ISO_5,2,5,56,103,2100045100
35,16,16,Jits_ISO_5,3,5,63,98,2100048092
35,16,16,Jits_ISO_5,0,1,48,45,2100514244
35,16,16,Jits_ISO_5,1,5,56,103,2100525352
35,16,16,Jits_ISO_5,2,5,80,127,2100545064
35,16,16,Jits_ISO_5,3,5,63,98,2100555184
35,16,16,Jits_ISO_5,0,5,63,98,2101004860
35,16,16,Jits_ISO_5,1,1,48,45,2101011344
35,16,16,Jits_ISO_5,2,5,56,103,2101035276
35,16,16,Jits_ISO_5,3,5,80,127,2101054984
35,16,16,Jits_ISO_5,0,5,56,103,2101514776
35,16,16,Jits_ISO_5,1,1,48,50,2101515816
35,16,16,Jits_ISO_5,2,5,80,127,2101525116
35,16,16,Jits_ISO_5,3,5,63,98,2101594420
35,16,16,Jits_ISO_5,0,1,48,28,2101988468
35,16,16,Jits_ISO_5,1,5,63,98,2102005052
35,16,16,Jits_ISO_5,2,5,80,127,2102045092
35,16,16,Jits_ISO_5,3,5,56,103,2102086208
35,16,16,Jits_ISO_5,0,1,48,51,2102498908
35,16,16,Jits_ISO_5,1,5,56,103,2102515196
35,16,16,Jits_ISO_5,2,5,63,98,2102525244
35,16,16,Jits_ISO_5,3,5,80,127,2102544828
35,16,16,Jits_ISO_5,0,1,48,53,2102985912
35,16,16,Jits_ISO_5,1,5,63,98,2103054884
35,16,16,Jits_ISO_5,2,5,80,127,2103075268
35,16,16,Jits_ISO_5,3,5,56,103,2103094812
35,16,16,Jits_ISO_5,0,5,56,103,2103494892
35,16,16,Jits_ISO_5,1,1,48,45,2103511036
35,16,16,Jits_ISO_5,2,5,80,127,2103574928
35,16,16,Jits_ISO_5,3,5,63,98,2103585048
35,16,16,Jits_ISO_5,0,1,48,48,2104030560
35,16,16,Jits_ISO_5,1,5,80,127,2104034936
35,16,16,Jits_ISO_5,2,5,63,98,2104044984
35,16,16,Jits_ISO_5,3,5,56,103,2104074760
35,16,16,Jits_ISO_5,0,1,48,46,2104485652
35,16,16,Jits_ISO_5,1,5,63,98,2104494592
35,16,16,Jits_ISO_5,2,5,80,127,2104535500
35,16,16,Jits_ISO_5,3,5,56,103,2104594924
35,16,16,Jits_ISO_5,0,1,48,52,2104981700
35,16,16,Jits_ISO_5,1,5,63,98,2105005632
35,16,16,Jits_ISO_5,2,5,56,103,2105054564
35,16,16,Jits_ISO_5,3,5,80,127,2105085192
35,16,16,Jits_ISO_5,0,1,48,43,2105463168
35,16,16,Jits_ISO_5,1,5,80,127,2105515480
35,16,16,Jits_ISO_5,2,5,63,98,2105524852
35,16,16,Jits_ISO_5,3,5,56,103,2105595188
35,16,16,Jits_ISO_5,0,1,48,43,2105942520
35,16,16,Jits_ISO_5,1,5,80,127,2106084648
35,16,16,Jits_ISO_5,2,5,56,103,2106095064
35,16,16,Jits_ISO_5,3,5,63,98,2106097908
35,16,16,Jits_ISO_5,0,1,48,48,2106468084
35,16,16,Jits_ISO_5,1,5,56,103,2106525132
35,16,16,Jits_ISO_5,2,5,80,127,2106544840
35,16,16,Jits_ISO_5,3,5,63,98,2106554964
35,16,16,Jits_ISO_5,0,1,48,42,2106984760
35,16,16,Jits_ISO_5,1,5,63,98,2107034980
35,16,16,Jits_ISO_5,2,5,56,103,2107074844
35,16,16,Jits_ISO_5,3,5,80,127,2107095284
35,16,16,Jits_ISO_5,0,1,48,48,2107480588
35,16,16,Jits_ISO_5,1,5,63,98,2107534712
35,16,16,Jits_ISO_5,2,5,56,103,2107595084
35,16,16,Jits_ISO_5,3,5,80,127,2107598224
35,16,16,Jits_ISO_5,0,5,56,103,2107994592
35,16,16,Jits_ISO_5,1,1,48,43,2108012852
35,16,16,Jits_ISO_5,2,5,80,127,2108014892
35,16,16,Jits_ISO_5,3,5,63,98,2108054828
35,16,16,Jits_ISO_5,0,1,48,54,2108482524
35,16,16,Jits_ISO_5,1,5,56,103,2108524968
35,16,16,Jits_ISO_5,2,5,63,98,2108545352
35,16,16,Jits_ISO_5,3,5,80,127,2108554576
35,16,16,Jits_ISO_5,0,5,80,127,2108994888
35,16,16,Jits_ISO_5,1,1,48,50,2108998600
35,16,16,Jits_ISO_5,2,5,56,103,2109024780
35,16,16,Jits_ISO_5,3,5,63,98,2109064788
35,16,16,Jits_ISO_5,0,1,48,45,2109483812
35,16,16,Jits_ISO_5,1,5,80,127,2109504816
35,16,16,Jits_ISO_5,2,5,56,103,2109525644
35,16,16,Jits_ISO_5,3,5,63,98,2109584744
35,16,16,Jits_ISO_5,0,5,56,103,2110014812
35,16,16,Jits_ISO_5,1,1,48,54,2110026620
35,16,16,Jits_ISO_5,2,5,80,127,2110035340
35,16,16,Jits_ISO_5,3,5,63,98,2110094608
35,16,16,Jits_ISO_5,0,5,80,127,2110495084
35,16,16,Jits_ISO_5,1,5,56,103,2110505500
35,16,16,Jits_ISO_5,2,1,48,50,2110518132
35,16,16,Jits_ISO_5,3,5,63,98,2110545132
35,16,16,Jits_ISO_5,0,5,63,98,2110994752
35,16,16,Jits_ISO_5,1,1,48,44,2110996764
35,16,16,Jits_ISO_5,2,5,56,103,2111034756
35,16,16,Jits_ISO_5,3,5,80,127,2111037972
35,16,16,Jits_ISO_5,0,1,48,52,2111464456
35,16,16,Jits_ISO_5,1,5,63,98,2111514920
35,16,16,Jits_ISO_5,2,5,80,127,2111554856
35,16,16,Jits_ISO_5,3,5,56,103,2111584812
35,16,16,Jits_ISO_5,0,1,48,47,2111944856
35,16,16,Jits_ISO_5,1,5,56,103,2112004664
35,16,16,Jits_ISO_5,2,5,63,98,2112014736
35,16,16,Jits_ISO_5,3,5,80,127,2112045588
35,16,16,Jits_ISO_5,0,1,48,51,2112416784
35,16,16,Jits_ISO_5,1,5,80,127,2112494952
35,16,16,Jits_ISO_5,2,5,63,98,2112564568
35,16,16,Jits_ISO_5,3,5,56,103,2112574840
35,16,16,Jits_ISO_5,0,1,48,50,2112926700
35,16,16,Jits_ISO_5,1,5,63,98,2112994608
35,16,16,Jits_ISO_5,2,5,56,103,2113065272
35,16,16,Jits_ISO_5,3,5,80,127,2113074720
35,16,16,Jits_ISO_5,0,1,48,46,2113439996
35,16,16,Jits_ISO_5,1,5,63,98,2113495540
35,16,16,Jits_ISO_5,2,5,56,103,2113514804
35,16,16,Jits_ISO_5,3,5,80,127,2113554748
35,16,16,Jits_ISO_5,0,1,48,52,2113923620
35,16,16,Jits_ISO_5,1,5,56,103,2114005452
35,16,16,Jits_ISO_5,2,5,63,98,2114014676
35,16,16,Jits_ISO_5,3,5,80,127,2114094700
35,16,16,Jits_ISO_5,0,1,48,47,2114430528
35,16,16,Jits_ISO_5,1,5,63,98,2114494772
35,16,16,Jits_ISO_5,2,5,56,103,2114524504
35,16,16,Jits_ISO_5,3,5,80,127,2114564592
35,16,16,Jits_ISO_5,0,1,48,47,2114920672
35,16,16,Jits_ISO_5,1,5,56,103,2114994652
35,16,16,Jits_ISO_5,2,5,63,98,2115034576
35,16,16,Jits_ISO_5,3,5,80,127,2115074660
35,16,16,Jits_ISO_5,0,1,48,38,2115445732
35,16,16,Jits_ISO_5,1,5,80,127,2115495504
35,16,16,Jits_ISO_5,2,5,56,103,2115575208
35,16,16,Jits_ISO_5,3,5,63,98,2115585552
35,16,16,Jits_ISO_5,0,1,48,35,2115994392
35,16,16,Jits_ISO_5,1,5,56,103,2116034944
35,16,16,Jits_ISO_5,2,5,63,98,2116038308
35,16,16,Jits_ISO_5,3,5,80,127,2116045440
35,16,16,Jits_ISO_5,0,1,48,38,2116493744
35,16,16,Jits_ISO_5,1,5,56,103,2116555048
35,16,16,Jits_ISO_5,2,5,63,98,2116574684
35,16,16,Jits_ISO_5,3,5,80,127,2116584952
35,16,16,Jits_ISO_5,0,1,48,39,2116969944
35,16,16,Jits_ISO_5,1,5,63,98,2117014924
35,16,16,Jits_ISO_5,2,5,80,127,2117025496
35,16,16,Jits_ISO_5,3,5,56,103,2117044460
35,16,16,Jits_ISO_5,0,1,48,44,2117470796
35,16,16,Jits_ISO_5,1,5,63,98,2117514732
35,16,16,Jits_ISO_5,2,5,56,103,2117594508
35,16,16,Jits_ISO_5,3,5,80,127,2117597576
35,16,16,Jits_ISO_5,0,1,48,38,2117992244
35,16,16,Jits_ISO_5,1,5,63,98,2118015504
35,16,16,Jits_ISO_5,2,5,56,103,2118034772
35,16,16,Jits_ISO_5,3,5,80,127,2118064520
35,16,16,Jits_ISO_5,0,1,48,44,2118459992
35,16,16,Jits_ISO_5,1,5,56,103,2118515016
35,16,16,Jits_ISO_5,2,5,63,98,2118534500
35,16,16,Jits_ISO_5,3,5,80,127,2118544696
35,16,16,Jits_ISO_5,0,1,48,28,2118938748
35,16,16,Jits_ISO_5,1,5,56,103,2119044400
35,16,16,Jits_ISO_5,2,5,63,98,2119075268
35,16,16,Jits_ISO_5,3,5,80,127,2119078556
35,16,16,Jits_ISO_5,0,1,48,39,2119458252
35,16,16,Jits_ISO_5,1,5,56,103,2119494916
35,16,16,Jits_ISO_5,2,5,63,98,2119534932
35,16,16,Jits_ISO_5,3,5,80,127,2119595452
35,16,16,Jits_ISO_5,0,1,48,36,2119976196
35,16,16,Jits_ISO_5,1,5,56,103,2120015328
35,16,16,Jits_ISO_5,2,5,63,98,2120024476
35,16,16,Jits_ISO_5,3,5,80,127,2120084700
35,16,16,Jits_ISO_5,0,1,48,34,2120468056
35,16,16,Jits_ISO_5,1,5,56,103,2120515060
35,16,16,Jits_ISO_5,2,5,80,127,2120535520
35,16,16,Jits_ISO_5,3,5,63,98,2120565268
35,16,16,Jits_ISO_5,0,1,48,33,2120971308
35,16,16,Jits_ISO_5,1,5,80,127,2121014568
35,16,16,Jits_ISO_5,2,5,56,103,2121024840
35,16,16,Jits_ISO_5,3,5,63,98,2121045224
35,16,16,Jits_ISO_5,0,1,48,39,2121477388
35,16,16,Jits_ISO_5,1,5,63,98,2121505380
35,16,16,Jits_ISO_5,2,5,80,127,2121585084
35,16,16,Jits_ISO_5,3,5,56,103,2121595284
35,16,16,Jits_ISO_5,0,1,48,44,2121966712
35,16,16,Jits_ISO_5,1,5,80,127,2122065416
35,16,16,Jits_ISO_5,2,5,56,103,2122084676
35,16,16,Jits_ISO_5,3,5,63,98,2122087668
35,16,16,Jits_ISO_5,0,1,48,34,2122506020
35,16,16,Jits_ISO_5,1,5,63,98,2122535340
35,16,16,Jits_ISO_5,2,5,80,127,2122538700
35,16,16,Jits_ISO_5,3,5,56,103,2122594528
35,16,16,Jits_ISO_5,0,1,48,47,2122991928
35,16,16,Jits_ISO_5,1,5,56,103,2123014664
35,16,16,Jits_ISO_5,2,5,80,127,2123024736
35,16,16,Jits_ISO_5,3,5,63,98,2123064672
35,16,16,Jits_ISO_5,0,1,48,40,2123487168
35,16,16,Jits_ISO_5,1,5,56,103,2123494840
35,16,16,Jits_ISO_5,2,5,63,98,2123555108
35,16,16,Jits_ISO_5,3,5,80,127,2123565376
35,16,16,Jits_ISO_5,0,1,48,46,2123994100
35,16,16,Jits_ISO_5,1,5,63,98,2124004616
35,16,16,Jits_ISO_5,2,5,80,127,2124044580
35,16,16,Jits_ISO_5,3,5,56,103,2124084664
35,16,16,Jits_ISO_5,0,5,56,103,2124504500
35,16,16,Jits_ISO_5,1,1,48,29,2124548448
35,16,16,Jits_ISO_5,2,5,63,98,2124585204
35,16,16,Jits_ISO_5,3,5,80,127,2124588648
35,16,16,Jits_ISO_5,0,9999,9999,9999,2065282164
35,16,16,Jits_ISO_5,1,9999,9999,9999,2065782852
35,16,16,Jits_ISO_5,2,9999,9999,9999,2066282596
35,16,16,Jits_ISO_5,3,9999,9999,9999,2066782304
35,16,16,Jits_ISO_5,4,9999,9999,9999,2067283012
35,16,16,Jits_ISO_5,5,9999,9999,9999,2067782756
35,16,16,Jits_ISO_5,6,9999,9999,9999,2068282484
35,16,16,Jits_ISO_5,7,9999,9999,9999,2068782160
35,16,16,Jits_ISO_5,8,9999,9999,9999,2069282932
35,16,16,Jits_ISO_5,9,9999,9999,9999,2069782608
35,16,16,Jits_ISO_5,10,9999,9999,9999,2070282312
35,16,16,Jits_ISO_5,11,9999,9999,9999,2070783036
35,16,16,Jits_ISO_5,12,9999,9999,9999,2071282764
35,16,16,Jits_ISO_5,13,9999,9999,9999,2071782496
35,16,16,Jits_ISO_5,14,9999,9999,9999,2072282228
35,16,16,Jits_ISO_5,15,9999,9999,9999,2072782948
35,16,16,Jits_ISO_5,16,9999,9999,9999,2073282624
35,16,16,Jits_ISO_5,17,9999,9999,9999,2073782352
35,16,16,Jits_ISO_5,18,9999,9999,9999,2074283132
35,16,16,Jits_ISO_5,19,9999,9999,9999,2074793068
35,16,16,Jits_ISO_5,20,9999,9999,9999,2075292744
35,16,16,Jits_ISO_5,21,9999,9999,9999,2075792480
35,16,16,Jits_ISO_5,22,9999,9999,9999,2076292148
35,16,16,Jits_ISO_5,23,9999,9999,9999,2076792948
35,16,16,Jits_ISO_5,24,9999,9999,9999,2077292608
35,16,16,Jits_ISO_5,25,9999,9999,9999,2077792332
35,16,16,Jits_ISO_5,26,9999,9999,9999,2078293116
35,16,16,Jits_ISO_5,27,9999,9999,9999,2078792760
35,16,16,Jits_ISO_5,28,9999,9999,9999,2079292512
35,16,16,Jits_ISO_5,29,9999,9999,9999,2079792244
35,16,16,Jits_ISO_5,30,9999,9999,9999,2080292960
35,16,16,Jits_ISO_5,31,9999,9999,9999,2080792700
35,16,16,Jits_ISO_5,32,9999,9999,9999,2081292356
35,16,16,Jits_ISO_5,33,9999,9999,9999,2081792076
35,16,16,Jits_ISO_5,34,9999,9999,9999,2082292796
35,16,16,Jits_ISO_5,35,9999,9999,9999,2082792544
35,16,16,Jits_ISO_5,36,9999,9999,9999,2083292264
35,16,16,Jits_ISO_5,37,9999,9999,9999,2083792972
35,16,16,Jits_ISO_5,38,9999,9999,9999,2084292708
35,16,16,Jits_ISO_5,39,9999,9999,9999,2084792440
35,16,16,Jits_ISO_5,40,9999,9999,9999,2085292104
35,16,16,Jits_ISO_5,41,9999,9999,9999,2085792876
35,16,16,Jits_ISO_5,42,9999,9999,9999,2086292532
35,16,16,Jits_ISO_5,43,9999,9999,9999,2086792264
35,16,16,Jits_ISO_5,44,9999,9999,9999,2087293044
35,16,16,Jits_ISO_5,45,9999,9999,9999,2087792700
35,16,16,Jits_ISO_5,46,9999,9999,9999,2088292428
35,16,16,Jits_ISO_5,47,9999,9999,9999,2088792176
35,16,16,Jits_ISO_5,48,9999,9999,9999,2089292884
35,16,16,Jits_ISO_5,49,9999,9999,9999,2089792620
35,16,16,Jits_ISO_5,50,9999,9999,9999,2090292340
35,16,16,Jits_ISO_5,51,9999,9999,9999,2090793060
35,16,16,Jits_ISO_5,52,9999,9999,9999,2091292796
35,16,16,Jits_ISO_5,53,9999,9999,9999,2091792460
35,16,16,Jits_ISO_5,54,9999,9999,9999,2092292164
35,16,16,Jits_ISO_5,55,9999,9999,9999,2092792944
35,16,16,Jits_ISO_5,56,9999,9999,9999,2093292600
35,16,16,Jits_ISO_5,57,9999,9999,9999,2093792344
35,16,16,Jits_ISO_5,58,9999,9999,9999,2094293052
35,16,16,Jits_ISO_5,59,9999,9999,9999,2094792768
35,16,16,Jits_ISO_5,60,9999,9999,9999,2095292504
35,16,16,Jits_ISO_5,61,9999,9999,9999,2095792236
35,16,16,Jits_ISO_5,62,9999,9999,9999,2096292944
35,16,16,Jits_ISO_5,63,9999,9999,9999,2096792676
35,16,16,Jits_ISO_5,64,9999,9999,9999,2097292336
35,16,16,Jits_ISO_5,65,9999,9999,9999,2097792068
35,16,16,Jits_ISO_5,66,9999,9999,9999,2098292788
35,16,16,Jits_ISO_5,67,9999,9999,9999,2098792508
35,16,16,Jits_ISO_5,68,9999,9999,9999,2099292240
35,16,16,Jits_ISO_5,69,9999,9999,9999,2099792948
35,16,16,Jits_ISO_5,70,9999,9999,9999,2100292664
35,16,16,Jits_ISO_5,71,9999,9999,9999,2100792396
35,16,16,Jits_ISO_5,72,9999,9999,9999,2101292124
35,16,16,Jits_ISO_5,73,9999,9999,9999,2101792824
35,16,16,Jits_ISO_5,74,9999,9999,9999,2102292572
35,16,16,Jits_ISO_5,75,9999,9999,9999,2102792276
35,16,16,Jits_ISO_5,76,9999,9999,9999,2103292988
35,16,16,Jits_ISO_5,77,9999,9999,9999,2103792720
35,16,16,Jits_ISO_5,78,9999,9999,9999,2104292468
35,16,16,Jits_ISO_5,79,9999,9999,9999,2104792124
35,16,16,Jits_ISO_5,80,9999,9999,9999,2105292904
35,16,16,Jits_ISO_5,81,9999,9999,9999,2105792636
35,16,16,Jits_ISO_5,82,9999,9999,9999,2106292292
35,16,16,Jits_ISO_5,83,9999,9999,9999,2106793072
35,16,16,Jits_ISO_5,84,9999,9999,9999,2107292732
35,16,16,Jits_ISO_5,85,9999,9999,9999,2107792460
35,16,16,Jits_ISO_5,86,9999,9999,9999,2108292188
35,16,16,Jits_ISO_5,87,9999,9999,9999,2108792908
35,16,16,Jits_ISO_5,88,9999,9999,9999,2109292640
35,16,16,Jits_ISO_5,89,9999,9999,9999,2109792308
35,16,16,Jits_ISO_5,90,9999,9999,9999,2110293088
35,16,16,Jits_ISO_5,91,9999,9999,9999,2110792756
35,16,16,Jits_ISO_5,92,9999,9999,9999,2111292492
35,16,16,Jits_ISO_5,93,9999,9999,9999,2111792228
35,16,16,Jits_ISO_5,94,9999,9999,9999,2112292928
35,16,16,Jits_ISO_5,95,9999,9999,9999,2112792660
35,16,16,Jits_ISO_5,96,9999,9999,9999,2113292392
35,16,16,Jits_ISO_5,97,9999,9999,9999,2113792100
35,16,16,Jits_ISO_5,98,9999,9999,9999,2114292800
35,16,16,Jits_ISO_5,99,9999,9999,9999,2114792528
35,16,16,Jits_ISO_5,100,9999,9999,9999,2115292260
35,16,16,Jits_ISO_5,101,9999,9999,9999,2115792968
35,16,16,Jits_ISO_5,102,9999,9999,9999,2116292688
35,16,16,Jits_ISO_5,103,9999,9999,9999,2116792424
35,16,16,Jits_ISO_5,104,9999,9999,9999,2117292084
35,16,16,Jits_ISO_5,105,9999,9999,9999,2117792856
35,16,16,Jits_ISO_5,106,9999,9999,9999,2118292588
35,16,16,Jits_ISO_5,107,9999,9999,9999,2118792244
35,16,16,Jits_ISO_5,108,9999,9999,9999,2119293016
35,16,16,Jits_ISO_5,109,9999,9999,9999,2119792752
35,16,16,Jits_ISO_5,110,9999,9999,9999,2120292408
35,16,16,Jits_ISO_5,111,9999,9999,9999,2120792144
35,16,16,Jits_ISO_5,112,9999,9999,9999,2121292920
35,16,16,Jits_ISO_5,113,9999,9999,9999,2121792584
35,16,16,Jits_ISO_5,114,9999,9999,9999,2122292312
35,16,16,Jits_ISO_5,115,9999,9999,9999,2122793084
35,16,16,Jits_ISO_5,116,9999,9999,9999,2123292740
35,16,16,Jits_ISO_5,117,9999,9999,9999,2123792476
35,16,16,Jits_ISO_5,118,9999,9999,9999,2124292184
35,16,16,Jits_ISO_5,119,9999,9999,9999,2124792952
35,17,7,Jits_ISO_8,0,5,56,103,2138861936
35,17,7,Jits_ISO_8,1,5,63,98,2138864808
35,17,7,Jits_ISO_8,2,5,80,127,2138868228
35,17,7,Jits_ISO_8,0,5,56,103,2139661740
35,17,7,Jits_ISO_8,1,5,63,98,2139664840
35,17,7,Jits_ISO_8,2,5,80,127,2139667960
35,17,7,Jits_ISO_8,0,5,80,127,2140402012
35,17,7,Jits_ISO_8,1,5,63,98,2140492028
35,17,7,Jits_ISO_8,2,5,56,103,2140502520
35,17,7,Jits_ISO_8,3,1,48,37,2140517772
35,17,7,Jits_ISO_8,0,5,56,103,2141222140
35,17,7,Jits_ISO_8,1,5,63,98,2141231812
35,17,7,Jits_ISO_8,2,1,48,38,2141298156
35,17,7,Jits_ISO_8,3,5,80,127,2141321712
35,17,7,Jits_ISO_8,0,1,48,52,2141960996
35,17,7,Jits_ISO_8,1,5,63,98,2141992556
35,17,7,Jits_ISO_8,2,5,80,127,2142022012
35,17,7,Jits_ISO_8,3,5,56,103,2142051688
35,17,7,Jits_ISO_8,0,1,48,37,2142757240
35,17,7,Jits_ISO_8,1,5,56,103,2142792036
35,17,7,Jits_ISO_8,2,5,80,127,2142892648
35,17,7,Jits_ISO_8,3,5,63,98,2142941580
35,17,7,Jits_ISO_8,0,1,48,45,2143513656
35,17,7,Jits_ISO_8,1,5,56,103,2143591824
35,17,7,Jits_ISO_8,2,5,80,127,2143642164
35,17,7,Jits_ISO_8,3,5,63,98,2143682028
35,17,7,Jits_ISO_8,0,1,48,43,2144290288
35,17,7,Jits_ISO_8,1,5,80,127,2144422308
35,17,7,Jits_ISO_8,2,5,63,98,2144452060
35,17,7,Jits_ISO_8,3,5,56,103,2144521540
35,17,7,Jits_ISO_8,0,1,48,41,2145032748
35,17,7,Jits_ISO_8,1,5,63,98,2145251612
35,17,7,Jits_ISO_8,2,5,56,103,2145282412
35,17,7,Jits_ISO_8,3,5,80,127,2145341928
35,17,7,Jits_ISO_8,0,1,48,29,2145884532
35,17,7,Jits_ISO_8,1,1,38,11,2145896120
35,17,7,Jits_ISO_8,2,5,56,103,2145992692
35,17,7,Jits_ISO_8,3,5,80,127,2145995672
35,17,7,Jits_ISO_8,4,5,63,98,2146111760
35,17,7,Jits_ISO_8,0,1,48,44,2146644560
35,17,7,Jits_ISO_8,1,5,56,103,2146871624
35,17,7,Jits_ISO_8,2,5,80,127,2146911564
35,17,7,Jits_ISO_8,3,5,63,98,2146921908
35,17,7,Jits_ISO_8,0,1,48,21,2147457608
35,17,7,Jits_ISO_8,1,1,38,12,2147469596
35,17,7,Jits_ISO_8,2,5,56,103,2147631508
35,17,7,Jits_ISO_8,3,5,80,127,2147651892
35,17,7,Jits_ISO_8,4,5,63,98,2147731764
35,17,7,Jits_ISO_8,0,1,48,43,2148302700
35,17,7,Jits_ISO_8,1,5,80,127,2148422092
35,17,7,Jits_ISO_8,2,5,56,103,2148522272
35,17,7,Jits_ISO_8,3,5,63,98,2148531496
35,17,7,Jits_ISO_8,0,1,48,54,2149144924
35,17,7,Jits_ISO_8,1,5,63,98,2149192152
35,17,7,Jits_ISO_8,2,5,80,127,2149251484
35,17,7,Jits_ISO_8,3,5,56,103,2149261680
35,17,7,Jits_ISO_8,0,1,48,47,2149908280
35,17,7,Jits_ISO_8,1,5,56,103,2149991860
35,17,7,Jits_ISO_8,2,5,63,98,2150061528
35,17,7,Jits_ISO_8,3,5,80,127,2150064744
35,17,7,Jits_ISO_8,0,1,48,46,2150707308
35,17,7,Jits_ISO_8,1,5,63,98,2150822480
35,17,7,Jits_ISO_8,2,5,56,103,2150872388
35,17,7,Jits_ISO_8,3,5,80,127,2150875604
35,17,7,Jits_ISO_8,0,1,48,44,2151495244
35,17,7,Jits_ISO_8,1,5,56,103,2151582180
35,17,7,Jits_ISO_8,2,5,80,127,2151585324
35,17,7,Jits_ISO_8,3,5,63,98,2151672300
35,17,7,Jits_ISO_8,0,1,48,46,2152271636
35,17,7,Jits_ISO_8,1,5,63,98,2152421644
35,17,7,Jits_ISO_8,2,5,56,103,2152511736
35,17,7,Jits_ISO_8,3,5,80,127,2152541560
35,17,7,Jits_ISO_8,0,1,48,37,2153093976
35,17,7,Jits_ISO_8,1,5,56,103,2153212144
35,17,7,Jits_ISO_8,2,5,63,98,2153311596
35,17,7,Jits_ISO_8,3,5,80,127,2153342396
35,17,7,Jits_ISO_8,0,1,48,48,2153898548
35,17,7,Jits_ISO_8,1,5,63,98,2154031440
35,17,7,Jits_ISO_8,2,5,56,103,2154041932
35,17,7,Jits_ISO_8,3,5,80,127,2154131768
35,17,7,Jits_ISO_8,0,1,48,42,2154679548
35,17,7,Jits_ISO_8,1,5,63,98,2154851604
35,17,7,Jits_ISO_8,2,5,56,103,2154931548
35,17,7,Jits_ISO_8,3,5,80,127,2154934764
35,17,7,Jits_ISO_8,0,1,48,36,2155517516
35,17,7,Jits_ISO_8,1,5,80,127,2155611460
35,17,7,Jits_ISO_8,2,5,63,98,2155632128
35,17,7,Jits_ISO_8,3,5,56,103,2155692292
35,17,7,Jits_ISO_8,0,1,48,41,2156361916
35,17,7,Jits_ISO_8,1,5,56,103,2156452300
35,17,7,Jits_ISO_8,2,5,63,98,2156471540
35,17,7,Jits_ISO_8,3,5,80,127,2156475132
35,17,7,Jits_ISO_8,0,5,63,98,2157191468
35,17,7,Jits_ISO_8,1,1,48,46,2157197876
35,17,7,Jits_ISO_8,2,5,80,127,2157272384
35,17,7,Jits_ISO_8,3,5,56,103,2157281604
35,17,7,Jits_ISO_8,0,1,48,47,2157986268
35,17,7,Jits_ISO_8,1,5,63,98,2158011700
35,17,7,Jits_ISO_8,2,5,56,103,2158032236
35,17,7,Jits_ISO_8,3,5,80,127,2158082420
35,17,7,Jits_ISO_8,0,1,48,47,2158770700
35,17,7,Jits_ISO_8,1,5,80,127,2158811480
35,17,7,Jits_ISO_8,2,5,63,98,2158851496
35,17,7,Jits_ISO_8,3,5,56,103,2158872036
35,17,7,Jits_ISO_8,0,1,48,42,2159621900
35,17,7,Jits_ISO_8,1,5,56,103,2159652120
35,17,7,Jits_ISO_8,2,5,63,98,2159661568
35,17,7,Jits_ISO_8,3,5,80,127,2159682100
35,17,7,Jits_ISO_8,0,5,56,103,2160382276
35,17,7,Jits_ISO_8,1,1,48,40,2160431136
35,17,7,Jits_ISO_8,2,5,63,98,2160472436
35,17,7,Jits_ISO_8,3,5,80,127,2160532060
35,17,7,Jits_ISO_8,0,1,48,47,2161186336
35,17,7,Jits_ISO_8,1,5,80,127,2161211916
35,17,7,Jits_ISO_8,2,5,56,103,2161222112
35,17,7,Jits_ISO_8,3,5,63,98,2161291484
35,17,7,Jits_ISO_8,0,1,48,43,2161966188
35,17,7,Jits_ISO_8,1,5,63,98,2162042116
35,17,7,Jits_ISO_8,2,5,80,127,2162132312
35,17,7,Jits_ISO_8,3,5,56,103,2162141684
35,17,7,Jits_ISO_8,0,5,63,98,2162781596
35,17,7,Jits_ISO_8,1,1,48,44,2162815208
35,17,7,Jits_ISO_8,2,5,80,127,2162832092
35,17,7,Jits_ISO_8,3,5,56,103,2162892112
35,17,7,Jits_ISO_8,0,1,48,49,2163608380
35,17,7,Jits_ISO_8,1,5,56,103,2163612012
35,17,7,Jits_ISO_8,2,5,80,127,2163662220
35,17,7,Jits_ISO_8,3,5,63,98,2163681928
35,17,7,Jits_ISO_8,0,5,56,103,2164382280
35,17,7,Jits_ISO_8,1,1,48,48,2164423988
35,17,7,Jits_ISO_8,2,5,80,127,2164441400
35,17,7,Jits_ISO_8,3,5,63,98,2164512224
35,17,7,Jits_ISO_8,0,5,56,103,2165181776
35,17,7,Jits_ISO_8,1,5,80,127,2165211456
35,17,7,Jits_ISO_8,2,1,48,44,2165214048
35,17,7,Jits_ISO_8,3,5,63,98,2165242320
35,17,7,Jits_ISO_8,0,1,48,45,2165958076
35,17,7,Jits_ISO_8,1,5,56,103,2166021596
35,17,7,Jits_ISO_8,2,5,80,127,2166041836
35,17,7,Jits_ISO_8,3,5,63,98,2166102508
35,17,7,Jits_ISO_8,0,1,48,46,2166727744
35,17,7,Jits_ISO_8,1,5,80,127,2166902136
35,17,7,Jits_ISO_8,2,5,56,103,2166912556
35,17,7,Jits_ISO_8,3,5,63,98,2166921780
35,17,7,Jits_ISO_8,0,1,48,45,2167620780
35,17,7,Jits_ISO_8,1,5,56,103,2167661932
35,17,7,Jits_ISO_8,2,5,80,127,2167701800
35,17,7,Jits_ISO_8,3,5,63,98,2167731756
35,17,7,Jits_ISO_8,0,5,56,103,2168432052
35,17,7,Jits_ISO_8,1,1,48,52,2168433692
35,17,7,Jits_ISO_8,2,5,63,98,2168461872
35,17,7,Jits_ISO_8,3,5,80,127,2168501812
35,17,7,Jits_ISO_8,0,1,48,48,2169153600
35,17,7,Jits_ISO_8,1,5,80,127,2169181644
35,17,7,Jits_ISO_8,2,5,63,98,2169231700
35,17,7,Jits_ISO_8,3,5,56,103,2169252236
35,17,7,Jits_ISO_8,0,1,48,44,2169916280
35,17,7,Jits_ISO_8,1,5,56,103,2170011996
35,17,7,Jits_ISO_8,2,5,80,127,2170081816
35,17,7,Jits_ISO_8,3,5,63,98,2170142156
35,17,7,Jits_ISO_8,0,1,48,48,2170723500
35,17,7,Jits_ISO_8,1,5,80,127,2170811632
35,17,7,Jits_ISO_8,2,5,63,98,2170901928
35,17,7,Jits_ISO_8,3,5,56,103,2170922464
35,17,7,Jits_ISO_8,0,1,48,46,2171498024
35,17,7,Jits_ISO_8,1,5,63,98,2171632008
35,17,7,Jits_ISO_8,2,5,56,103,2171651720
35,17,7,Jits_ISO_8,3,5,80,127,2171692580
35,17,7,Jits_ISO_8,0,1,48,51,2172265596
35,17,7,Jits_ISO_8,1,5,80,127,2172391704
35,17,7,Jits_ISO_8,2,5,63,98,2172412388
35,17,7,Jits_ISO_8,3,5,56,103,2172492060
35,17,7,Jits_ISO_8,0,1,48,47,2173074520
35,17,7,Jits_ISO_8,1,5,63,98,2173182416
35,17,7,Jits_ISO_8,2,5,56,103,2173291836
35,17,7,Jits_ISO_8,3,5,80,127,2173295052
35,17,7,Jits_ISO_8,0,1,48,52,2173902240
35,17,7,Jits_ISO_8,1,5,63,98,2174001624
35,17,7,Jits_ISO_8,2,5,56,103,2174011892
35,17,7,Jits_ISO_8,3,5,80,127,2174014960
35,17,7,Jits_ISO_8,0,1,48,43,2174696824
35,17,7,Jits_ISO_8,1,5,56,103,2174781696
35,17,7,Jits_ISO_8,2,5,80,127,2174901560
35,17,7,Jits_ISO_8,3,5,63,98,2174941576
35,17,7,Jits_ISO_8,0,1,48,55,2175494320
35,17,7,Jits_ISO_8,1,5,56,103,2175601996
35,17,7,Jits_ISO_8,2,5,80,127,2175681944
35,17,7,Jits_ISO_8,3,5,63,98,2175702476
35,17,7,Jits_ISO_8,0,1,48,47,2176288248
35,17,7,Jits_ISO_8,1,5,56,103,2176401632
35,17,7,Jits_ISO_8,2,5,63,98,2176512444
35,17,7,Jits_ISO_8,3,5,80,127,2176515808
35,17,7,Jits_ISO_8,0,1,48,52,2177064552
35,17,7,Jits_ISO_8,1,5,56,103,2177232320
35,17,7,Jits_ISO_8,2,5,80,127,2177261848
35,17,7,Jits_ISO_8,3,5,63,98,2177282308
35,17,7,Jits_ISO_8,0,1,48,52,2177875644
35,17,7,Jits_ISO_8,1,5,63,98,2178011648
35,17,7,Jits_ISO_8,2,5,56,103,2178021920
35,17,7,Jits_ISO_8,3,5,80,127,2178031968
35,17,7,Jits_ISO_8,0,1,48,47,2178702480
35,17,7,Jits_ISO_8,1,5,80,127,2178801912
35,17,7,Jits_ISO_8,2,5,56,103,2178852216
35,17,7,Jits_ISO_8,3,5,63,98,2178892228
35,17,7,Jits_ISO_8,0,1,48,49,2179523912
35,17,7,Jits_ISO_8,1,5,80,127,2179622544
35,17,7,Jits_ISO_8,2,5,63,98,2179641736
35,17,7,Jits_ISO_8,3,5,56,103,2179691864
35,17,7,Jits_ISO_8,0,1,48,53,2180316644
35,17,7,Jits_ISO_8,1,5,80,127,2180432368
35,17,7,Jits_ISO_8,2,5,56,103,2180462048
35,17,7,Jits_ISO_8,3,5,63,98,2180531504
35,17,7,Jits_ISO_8,0,1,48,48,2181174672
35,17,7,Jits_ISO_8,1,5,56,103,2181282276
35,17,7,Jits_ISO_8,2,5,80,127,2181292472
35,17,7,Jits_ISO_8,3,5,63,98,2181332336
35,17,7,Jits_ISO_8,0,1,48,49,2181985992
35,17,7,Jits_ISO_8,1,5,56,103,2181991868
35,17,7,Jits_ISO_8,2,5,63,98,2182012328
35,17,7,Jits_ISO_8,3,5,80,127,2182081772
35,17,7,Jits_ISO_8,0,1,48,38,2182781064
35,17,7,Jits_ISO_8,1,5,63,98,2182811880
35,17,7,Jits_ISO_8,2,5,80,127,2182873456
35,17,7,Jits_ISO_8,3,5,56,103,2182891968
35,17,7,Jits_ISO_8,0,1,48,46,2183561812
35,17,7,Jits_ISO_8,1,5,80,127,2183601396
35,17,7,Jits_ISO_8,2,5,56,103,2183632344
35,17,7,Jits_ISO_8,3,5,63,98,2183661932
35,17,7,Jits_ISO_8,0,1,48,43,2184305612
35,17,7,Jits_ISO_8,1,5,56,103,2184402356
35,17,7,Jits_ISO_8,2,5,63,98,2184461656
35,17,7,Jits_ISO_8,3,5,80,127,2184522120
35,17,7,Jits_ISO_8,0,1,48,43,2185105100
35,17,7,Jits_ISO_8,1,5,80,127,2185221500
35,17,7,Jits_ISO_8,2,5,56,103,2185242184
35,17,7,Jits_ISO_8,3,5,63,98,2185311640
35,17,7,Jits_ISO_8,0,1,48,21,2185920028
35,17,7,Jits_ISO_8,1,5,80,127,2186022108
35,17,7,Jits_ISO_8,2,5,63,98,2186041748
35,17,7,Jits_ISO_8,3,5,56,103,2186072320
35,17,7,Jits_ISO_8,0,1,48,51,2186780076
35,17,7,Jits_ISO_8,1,5,80,127,2186811860
35,17,7,Jits_ISO_8,2,5,63,98,2186832324
35,17,7,Jits_ISO_8,3,5,56,103,2186891576
35,17,7,Jits_ISO_8,0,5,80,127,2187611568
35,17,7,Jits_ISO_8,1,1,48,52,2187629684
35,17,7,Jits_ISO_8,2,5,56,103,2187711816
35,17,7,Jits_ISO_8,3,5,63,98,2187741624
35,17,7,Jits_ISO_8,0,5,63,98,2188402228
35,17,7,Jits_ISO_8,1,1,48,46,2188435992
35,17,7,Jits_ISO_8,2,5,80,127,2188452204
35,17,7,Jits_ISO_8,3,5,56,103,2188471616
35,17,7,Jits_ISO_8,0,1,48,32,2189171412
35,17,7,Jits_ISO_8,1,5,80,127,2189241792
35,17,7,Jits_ISO_8,2,5,56,103,2189272340
35,17,7,Jits_ISO_8,3,5,63,98,2189275416
35,17,7,Jits_ISO_8,0,1,48,30,2190002128
35,17,7,Jits_ISO_8,1,5,63,98,2190072280
35,17,7,Jits_ISO_8,2,5,56,103,2190112008
35,17,7,Jits_ISO_8,3,5,80,127,2190131568
35,17,7,Jits_ISO_8,0,5,80,127,2190811392
35,17,7,Jits_ISO_8,1,1,48,38,2190852748
35,17,7,Jits_ISO_8,2,5,63,98,2190892256
35,17,7,Jits_ISO_8,3,5,56,103,2190932192
35,17,7,Jits_ISO_8,0,5,63,98,2191631820
35,17,7,Jits_ISO_8,1,1,48,38,2191634644
35,17,7,Jits_ISO_8,2,5,80,127,2191711836
35,17,7,Jits_ISO_8,3,5,56,103,2191733028
35,17,7,Jits_ISO_8,0,1,48,27,2192424232
35,17,7,Jits_ISO_8,1,5,56,103,2192472360
35,17,7,Jits_ISO_8,2,5,63,98,2192481512
35,17,7,Jits_ISO_8,3,5,80,127,2192521452
35,17,7,Jits_ISO_8,0,5,56,103,2193192284
35,17,7,Jits_ISO_8,1,5,80,127,2193195348
35,17,7,Jits_ISO_8,2,1,48,45,2193219292
35,17,7,Jits_ISO_8,3,5,63,98,2193331616
35,17,7,Jits_ISO_8,0,5,56,103,2193981804
35,17,7,Jits_ISO_8,1,1,48,48,2194035120
35,17,7,Jits_ISO_8,2,5,63,98,2194072008
35,17,7,Jits_ISO_8,3,5,80,127,2194141524
35,17,7,Jits_ISO_8,0,1,48,46,2194763812
35,17,7,Jits_ISO_8,1,5,63,98,2194861372
35,17,7,Jits_ISO_8,2,5,80,127,2194864736
35,17,7,Jits_ISO_8,3,5,56,103,2194921912
35,17,7,Jits_ISO_8,0,1,48,44,2195556092
35,17,7,Jits_ISO_8,1,5,80,127,2195702064
35,17,7,Jits_ISO_8,2,5,56,103,2195721800
35,17,7,Jits_ISO_8,3,5,63,98,2195731772
35,17,7,Jits_ISO_8,0,1,48,49,2196390360
35,17,7,Jits_ISO_8,1,5,56,103,2196411884
35,17,7,Jits_ISO_8,2,5,63,98,2196422004
35,17,7,Jits_ISO_8,3,5,80,127,2196491748
35,17,7,Jits_ISO_8,0,1,48,49,2197127248
35,17,7,Jits_ISO_8,1,5,80,127,2197211792
35,17,7,Jits_ISO_8,2,5,56,103,2197261860
35,17,7,Jits_ISO_8,3,5,63,98,2197311912
35,17,7,Jits_ISO_8,0,1,48,45,2197938268
35,17,7,Jits_ISO_8,1,5,56,103,2198092280
35,17,7,Jits_ISO_8,2,5,63,98,2198102404
35,17,7,Jits_ISO_8,3,5,80,127,2198142268
35,17,7,Jits_ISO_8,0,1,48,47,2198761372
35,17,7,Jits_ISO_8,1,5,56,103,2198831404
35,17,7,Jits_ISO_8,2,5,63,98,2198872376
35,17,7,Jits_ISO_8,3,5,80,127,2198921676
35,17,7,Jits_ISO_8,0,5,80,127,2199592156
35,17,7,Jits_ISO_8,1,1,48,49,2199595796
35,17,7,Jits_ISO_8,2,5,56,103,2199641532
35,17,7,Jits_ISO_8,3,5,63,98,2199661844
35,17,7,Jits_ISO_8,0,1,48,51,2200380080
35,17,7,Jits_ISO_8,1,5,80,127,2200402500
35,17,7,Jits_ISO_8,2,5,63,98,2200461776
35,17,7,Jits_ISO_8,3,5,56,103,2200541628
35,17,7,Jits_ISO_8,0,5,80,127,2201181692
35,17,7,Jits_ISO_8,1,5,56,103,2201221556
35,17,7,Jits_ISO_8,2,5,63,98,2201242016
35,17,7,Jits_ISO_8,3,1,48,51,2201265956
35,17,7,Jits_ISO_8,0,5,56,103,2202031608
35,17,7,Jits_ISO_8,1,5,80,127,2202041808
35,17,7,Jits_ISO_8,2,1,48,48,2202064480
35,17,7,Jits_ISO_8,3,5,63,98,2202081736
35,17,7,Jits_ISO_8,0,1,48,40,2202857888
35,17,7,Jits_ISO_8,1,5,56,103,2202902076
35,17,7,Jits_ISO_8,2,5,63,98,2202941864
35,17,7,Jits_ISO_8,3,5,80,127,2202945156
35,17,7,Jits_ISO_8,0,5,63,98,2203592076
35,17,7,Jits_ISO_8,1,5,80,127,2203632016
35,17,7,Jits_ISO_8,2,1,48,32,2203683484
35,17,7,Jits_ISO_8,3,5,56,103,2203701644
35,17,7,Jits_ISO_8,0,5,63,98,2204381520
35,17,7,Jits_ISO_8,1,1,48,44,2204394004
35,17,7,Jits_ISO_8,2,5,56,103,2204461708
35,17,7,Jits_ISO_8,3,5,80,127,2204521712
35,17,7,Jits_ISO_8,0,1,48,44,2205113540
35,17,7,Jits_ISO_8,1,5,80,127,2205191508
35,17,7,Jits_ISO_8,2,5,63,98,2205241700
35,17,7,Jits_ISO_8,3,5,56,103,2205272644
35,17,7,Jits_ISO_8,0,1,48,51,2205940596
35,17,7,Jits_ISO_8,1,5,56,103,2205981924
35,17,7,Jits_ISO_8,2,5,63,98,2206032204
35,17,7,Jits_ISO_8,3,5,80,127,2206041712
35,17,7,Jits_ISO_8,0,1,48,44,2206693084
35,17,7,Jits_ISO_8,1,5,56,103,2206792096
35,17,7,Jits_ISO_8,2,5,63,98,2206901564
35,17,7,Jits_ISO_8,3,5,80,127,2206922248
35,17,7,Jits_ISO_8,0,1,48,53,2207529672
35,17,7,Jits_ISO_8,1,5,63,98,2207591824
35,17,7,Jits_ISO_8,2,5,80,127,2207642164
35,17,7,Jits_ISO_8,3,5,56,103,2207732444
35,17,7,Jits_ISO_8,0,1,48,43,2208261520
35,17,7,Jits_ISO_8,1,5,63,98,2208382524
35,17,7,Jits_ISO_8,2,5,80,127,2208411980
35,17,7,Jits_ISO_8,3,5,56,103,2208502264
35,17,7,Jits_ISO_8,0,1,48,45,2209112916
35,17,7,Jits_ISO_8,1,5,63,98,2209182172
35,17,7,Jits_ISO_8,2,5,56,103,2209192440
35,17,7,Jits_ISO_8,3,5,80,127,2209291576
35,17,7,Jits_ISO_8,0,1,48,42,2209900864
35,17,7,Jits_ISO_8,1,5,63,98,2210082284
35,17,7,Jits_ISO_8,2,5,80,127,2210111740
35,17,7,Jits_ISO_8,3,5,56,103,2210141488
35,17,7,Jits_ISO_8,0,1,48,47,2210701248
35,17,7,Jits_ISO_8,1,5,80,127,2210902452
35,17,7,Jits_ISO_8,2,5,63,98,2210911676
35,17,7,Jits_ISO_8,3,5,56,103,2210942400
35,17,7,Jits_ISO_8,0,1,48,49,2211577380
35,17,7,Jits_ISO_8,1,5,80,127,2211601712
35,17,7,Jits_ISO_8,2,5,63,98,2211622396
35,17,7,Jits_ISO_8,3,5,56,103,2211672524
35,17,7,Jits_ISO_8,0,1,48,43,2212370304
35,17,7,Jits_ISO_8,1,5,63,98,2212432436
35,17,7,Jits_ISO_8,2,5,80,127,2212491620
35,17,7,Jits_ISO_8,3,5,56,103,2212512376
35,17,7,Jits_ISO_8,0,1,48,48,2213159728
35,17,7,Jits_ISO_8,1,5,63,98,2213192136
35,17,7,Jits_ISO_8,2,5,56,103,2213242192
35,17,7,Jits_ISO_8,3,5,80,127,2213251564
35,17,7,Jits_ISO_8,0,1,48,52,2213982376
35,17,7,Jits_ISO_8,1,5,56,103,2214021436
35,17,7,Jits_ISO_8,2,5,80,127,2214031708
35,17,7,Jits_ISO_8,3,5,63,98,2214132236
35,17,7,Jits_ISO_8,0,1,48,51,2214772492
35,17,7,Jits_ISO_8,1,5,80,127,2214782408
35,17,7,Jits_ISO_8,2,5,63,98,2214791484
35,17,7,Jits_ISO_8,3,5,56,103,2214942232
35,17,7,Jits_ISO_8,0,1,48,50,2215564408
35,17,7,Jits_ISO_8,1,5,63,98,2215592304
35,17,7,Jits_ISO_8,2,5,80,127,2215632244
35,17,7,Jits_ISO_8,3,5,56,103,2215712200
35,17,7,Jits_ISO_8,0,1,48,49,2216346424
35,17,7,Jits_ISO_8,1,5,56,103,2216381896
35,17,7,Jits_ISO_8,2,5,80,127,2216482084
35,17,7,Jits_ISO_8,3,5,63,98,2216501644
35,17,7,Jits_ISO_8,0,1,48,41,2217060584
35,17,7,Jits_ISO_8,1,5,80,127,2217242152
35,17,7,Jits_ISO_8,2,5,56,103,2217252200
35,17,7,Jits_ISO_8,3,5,63,98,2217342260
35,17,7,Jits_ISO_8,0,1,48,40,2217818248
35,17,7,Jits_ISO_8,1,5,56,103,2218041644
35,17,7,Jits_ISO_8,2,5,63,98,2218062180
35,17,7,Jits_ISO_8,3,5,80,127,2218142196
35,17,7,Jits_ISO_8,0,1,48,51,2218596232
35,17,7,Jits_ISO_8,1,5,63,98,2218792352
35,17,7,Jits_ISO_8,2,5,56,103,2218882340
35,17,7,Jits_ISO_8,3,5,80,127,2218885704
35,17,7,Jits_ISO_8,0,1,48,47,2219329164
35,17,7,Jits_ISO_8,1,5,56,103,2219621868
35,17,7,Jits_ISO_8,2,5,80,127,2219682112
35,17,7,Jits_ISO_8,3,5,63,98,2219692384
35,17,7,Jits_ISO_8,0,1,48,39,2220189812
35,17,7,Jits_ISO_8,1,5,80,127,2220471780
35,17,7,Jits_ISO_8,2,5,56,103,2220482048
35,17,7,Jits_ISO_8,3,5,63,98,2220485188
35,17,7,Jits_ISO_8,0,1,48,42,2221064148
35,17,7,Jits_ISO_8,1,5,56,103,2221231472
35,17,7,Jits_ISO_8,2,5,80,127,2221241964
35,17,7,Jits_ISO_8,3,5,63,98,2221262052
35,17,7,Jits_ISO_8,0,1,48,35,2221762764
35,17,7,Jits_ISO_8,1,5,63,98,2222001432
35,17,7,Jits_ISO_8,2,5,80,127,2222061824
35,17,7,Jits_ISO_8,3,5,56,103,2222112052
35,17,7,Jits_ISO_8,0,1,48,44,2222619352
35,17,7,Jits_ISO_8,1,5,63,98,2222882156
35,17,7,Jits_ISO_8,2,5,56,103,2222892280
35,17,7,Jits_ISO_8,3,5,80,127,2222941436
35,17,7,Jits_ISO_8,0,1,48,40,2223474592
35,17,7,Jits_ISO_8,1,5,63,98,2223581748
35,17,7,Jits_ISO_8,2,5,80,127,2223601984
35,17,7,Jits_ISO_8,3,5,56,103,2223612404
35,17,7,Jits_ISO_8,0,1,48,44,2224249864
35,17,7,Jits_ISO_8,1,5,63,98,2224382192
35,17,7,Jits_ISO_8,2,5,80,127,2224385856
35,17,7,Jits_ISO_8,3,5,56,103,2224422284
35,17,7,Jits_ISO_8,0,1,48,50,2225095012
35,17,7,Jits_ISO_8,1,5,63,98,2225251868
35,17,7,Jits_ISO_8,2,5,80,127,2225282368
35,17,7,Jits_ISO_8,3,5,56,103,2225291592
35,17,7,Jits_ISO_8,0,1,48,46,2225874188
35,17,7,Jits_ISO_8,1,5,56,103,2226002272
35,17,7,Jits_ISO_8,2,5,80,127,2226031948
35,17,7,Jits_ISO_8,3,5,63,98,2226061848
35,17,7,Jits_ISO_8,0,1,48,42,2226668416
35,17,7,Jits_ISO_8,1,5,63,98,2226902524
35,17,7,Jits_ISO_8,2,5,56,103,2226942464
35,17,7,Jits_ISO_8,3,5,80,127,2226945604
35,17,7,Jits_ISO_8,0,1,48,46,2227547180
35,17,7,Jits_ISO_8,1,5,80,127,2227601976
35,17,7,Jits_ISO_8,2,5,56,103,2227681688
35,17,7,Jits_ISO_8,3,5,63,98,2227731840
35,17,7,Jits_ISO_8,0,5,80,127,2228382140
35,17,7,Jits_ISO_8,1,5,56,103,2228401628
35,17,7,Jits_ISO_8,2,1,48,45,2228405872
35,17,7,Jits_ISO_8,3,5,63,98,2228491784
35,17,7,Jits_ISO_8,0,1,48,43,2229140852
35,17,7,Jits_ISO_8,1,5,80,127,2229221936
35,17,7,Jits_ISO_8,2,5,63,98,2229261664
35,17,7,Jits_ISO_8,3,5,56,103,2229301828
35,17,7,Jits_ISO_8,0,1,48,51,2229914928
35,17,7,Jits_ISO_8,1,5,63,98,2229991752
35,17,7,Jits_ISO_8,2,5,80,127,2230052232
35,17,7,Jits_ISO_8,3,5,56,103,2230081832
35,17,7,Jits_ISO_8,0,1,48,55,2230661144
35,17,7,Jits_ISO_8,1,5,56,103,2230791764
35,17,7,Jits_ISO_8,2,5,80,127,2230822116
35,17,7,Jits_ISO_8,3,5,63,98,2230912324
35,17,7,Jits_ISO_8,0,1,48,56,2231438880
35,17,7,Jits_ISO_8,1,5,56,103,2231601588
35,17,7,Jits_ISO_8,2,5,80,127,2231712176
35,17,7,Jits_ISO_8,3,5,63,98,2231741852
35,17,7,Jits_ISO_8,0,1,48,47,2232229224
35,17,7,Jits_ISO_8,1,5,56,103,2232451572
35,17,7,Jits_ISO_8,2,5,63,98,2232511740
35,17,7,Jits_ISO_8,3,5,80,127,2232541564
35,17,7,Jits_ISO_8,0,1,48,41,2233022580
35,17,7,Jits_ISO_8,1,5,56,103,2233221688
35,17,7,Jits_ISO_8,2,5,63,98,2233292124
35,17,7,Jits_ISO_8,3,5,80,127,2233311836
35,17,7,Jits_ISO_8,0,1,48,39,2233775536
35,17,7,Jits_ISO_8,1,5,80,127,2233991656
35,17,7,Jits_ISO_8,2,5,63,98,2234011896
35,17,7,Jits_ISO_8,3,5,56,103,2234062096
35,17,7,Jits_ISO_8,0,9999,9999,9999,2139259976
35,17,7,Jits_ISO_8,1,9999,9999,9999,2140059756
35,17,7,Jits_ISO_8,2,9999,9999,9999,2140859452
35,17,7,Jits_ISO_8,3,9999,9999,9999,2141659248
35,17,7,Jits_ISO_8,4,9999,9999,9999,2142460016
35,17,7,Jits_ISO_8,5,9999,9999,9999,2143259748
35,17,7,Jits_ISO_8,6,9999,9999,9999,2144059456
35,17,7,Jits_ISO_8,7,9999,9999,9999,2144859240
35,17,7,Jits_ISO_8,8,9999,9999,9999,2145660000
35,17,7,Jits_ISO_8,9,9999,9999,9999,2146459720
35,17,7,Jits_ISO_8,10,9999,9999,9999,2147259460
35,17,7,Jits_ISO_8,11,9999,9999,9999,2148059200
35,17,7,Jits_ISO_8,12,9999,9999,9999,2148859976
35,17,7,Jits_ISO_8,13,9999,9999,9999,2149659708
35,17,7,Jits_ISO_8,14,9999,9999,9999,2150459480
35,17,7,Jits_ISO_8,15,9999,9999,9999,2151259256
35,17,7,Jits_ISO_8,16,9999,9999,9999,2152059992
35,17,7,Jits_ISO_8,17,9999,9999,9999,2152859704
35,17,7,Jits_ISO_8,18,9999,9999,9999,2153659496
35,17,7,Jits_ISO_8,19,9999,9999,9999,2154459204
35,17,7,Jits_ISO_8,20,9999,9999,9999,2155259956
35,17,7,Jits_ISO_8,21,9999,9999,9999,2156059756
35,17,7,Jits_ISO_8,22,9999,9999,9999,2156859460
35,17,7,Jits_ISO_8,23,9999,9999,9999,2157659244
35,17,7,Jits_ISO_8,24,9999,9999,9999,2158460000
35,17,7,Jits_ISO_8,25,9999,9999,9999,2159259704
35,17,7,Jits_ISO_8,26,9999,9999,9999,2160059488
35,17,7,Jits_ISO_8,27,9999,9999,9999,2160859196
35,17,7,Jits_ISO_8,28,9999,9999,9999,2161659968
35,17,7,Jits_ISO_8,29,9999,9999,9999,2162459704
35,17,7,Jits_ISO_8,30,9999,9999,9999,2163259484
35,17,7,Jits_ISO_8,31,9999,9999,9999,2164059192
35,17,7,Jits_ISO_8,32,9999,9999,9999,2164860020
35,17,7,Jits_ISO_8,33,9999,9999,9999,2165659736
35,17,7,Jits_ISO_8,34,9999,9999,9999,2166459464
35,17,7,Jits_ISO_8,35,9999,9999,9999,2167259252
35,17,7,Jits_ISO_8,36,9999,9999,9999,2168060016
35,17,7,Jits_ISO_8,37,9999,9999,9999,2168859744
35,17,7,Jits_ISO_8,38,9999,9999,9999,2169659464
35,17,7,Jits_ISO_8,39,9999,9999,9999,2170459256
35,17,7,Jits_ISO_8,40,9999,9999,9999,2171260012
35,17,7,Jits_ISO_8,41,9999,9999,9999,2172059724
35,17,7,Jits_ISO_8,42,9999,9999,9999,2172859500
35,17,7,Jits_ISO_8,43,9999,9999,9999,2173659200
35,17,7,Jits_ISO_8,44,9999,9999,9999,2174460016
35,17,7,Jits_ISO_8,45,9999,9999,9999,2175259744
35,17,7,Jits_ISO_8,46,9999,9999,9999,2176059456
35,17,7,Jits_ISO_8,47,9999,9999,9999,2176859208
35,17,7,Jits_ISO_8,48,9999,9999,9999,2177659960
35,17,7,Jits_ISO_8,49,9999,9999,9999,2178459740
35,17,7,Jits_ISO_8,50,9999,9999,9999,2179259448
35,17,7,Jits_ISO_8,51,9999,9999,9999,2180059228
35,17,7,Jits_ISO_8,52,9999,9999,9999,2180859988
35,17,7,Jits_ISO_8,53,9999,9999,9999,2181659720
35,17,7,Jits_ISO_8,54,9999,9999,9999,2182459500
35,17,7,Jits_ISO_8,55,9999,9999,9999,2183259208
35,17,7,Jits_ISO_8,56,9999,9999,9999,2184059960
35,17,7,Jits_ISO_8,57,9999,9999,9999,2184859744
35,17,7,Jits_ISO_8,58,9999,9999,9999,2185659452
35,17,7,Jits_ISO_8,59,9999,9999,9999,2186459236
35,17,7,Jits_ISO_8,60,9999,9999,9999,2187259988
35,17,7,Jits_ISO_8,61,9999,9999,9999,2188059720
35,17,7,Jits_ISO_8,62,9999,9999,9999,2188859516
35,17,7,Jits_ISO_8,63,9999,9999,9999,2189659216
35,17,7,Jits_ISO_8,64,9999,9999,9999,2190459980
35,17,7,Jits_ISO_8,65,9999,9999,9999,2191259764
35,17,7,Jits_ISO_8,66,9999,9999,9999,2192059492
35,17,7,Jits_ISO_8,67,9999,9999,9999,2192859208
35,17,7,Jits_ISO_8,68,9999,9999,9999,2193660024
35,17,7,Jits_ISO_8,69,9999,9999,9999,2194459768
35,17,7,Jits_ISO_8,70,9999,9999,9999,2195259488
35,17,7,Jits_ISO_8,71,9999,9999,9999,2196059208
35,17,7,Jits_ISO_8,72,9999,9999,9999,2196860012
35,17,7,Jits_ISO_8,73,9999,9999,9999,2197659724
35,17,7,Jits_ISO_8,74,9999,9999,9999,2198459444
35,17,7,Jits_ISO_8,75,9999,9999,9999,2199259228
35,17,7,Jits_ISO_8,76,9999,9999,9999,2200059980
35,17,7,Jits_ISO_8,77,9999,9999,9999,2200859724
35,17,7,Jits_ISO_8,78,9999,9999,9999,2201659500
35,17,7,Jits_ISO_8,79,9999,9999,9999,2202459228
35,17,7,Jits_ISO_8,80,9999,9999,9999,2203259996
35,17,7,Jits_ISO_8,81,9999,9999,9999,2204059700
35,17,7,Jits_ISO_8,82,9999,9999,9999,2204859484
35,17,7,Jits_ISO_8,83,9999,9999,9999,2205659192
35,17,7,Jits_ISO_8,84,9999,9999,9999,2206460016
35,17,7,Jits_ISO_8,85,9999,9999,9999,2207259748
35,17,7,Jits_ISO_8,86,9999,9999,9999,2208059460
35,17,7,Jits_ISO_8,87,9999,9999,9999,2208859240
35,17,7,Jits_ISO_8,88,9999,9999,9999,2209659988
35,17,7,Jits_ISO_8,89,9999,9999,9999,2210459708
35,17,7,Jits_ISO_8,90,9999,9999,9999,2211259500
35,17,7,Jits_ISO_8,91,9999,9999,9999,2212059204
35,17,7,Jits_ISO_8,92,9999,9999,9999,2212859964
35,17,7,Jits_ISO_8,93,9999,9999,9999,2213659764
35,17,7,Jits_ISO_8,94,9999,9999,9999,2214459472
35,17,7,Jits_ISO_8,95,9999,9999,9999,2215259256
35,17,7,Jits_ISO_8,96,9999,9999,9999,2216060012
35,17,7,Jits_ISO_8,97,9999,9999,9999,2216859720
35,17,7,Jits_ISO_8,98,9999,9999,9999,2217659508
35,17,7,Jits_ISO_8,99,9999,9999,9999,2218459220
35,17,7,Jits_ISO_8,100,9999,9999,9999,2219259968
35,17,7,Jits_ISO_8,101,9999,9999,9999,2220059700
35,17,7,Jits_ISO_8,102,9999,9999,9999,2220859476
35,17,7,Jits_ISO_8,103,9999,9999,9999,2221659256
35,17,7,Jits_ISO_8,104,9999,9999,9999,2222460012
35,17,7,Jits_ISO_8,105,9999,9999,9999,2223259728
35,17,7,Jits_ISO_8,106,9999,9999,9999,2224059504
35,17,7,Jits_ISO_8,107,9999,9999,9999,2224859244
35,17,7,Jits_ISO_8,108,9999,9999,9999,2225660004
35,17,7,Jits_ISO_8,109,9999,9999,9999,2226459728
35,17,7,Jits_ISO_8,110,9999,9999,9999,2227259488
35,17,7,Jits_ISO_8,111,9999,9999,9999,2228059200
35,17,7,Jits_ISO_8,112,9999,9999,9999,2228859956
35,17,7,Jits_ISO_8,113,9999,9999,9999,2229659752
35,17,7,Jits_ISO_8,114,9999,9999,9999,2230459460
35,17,7,Jits_ISO_8,115,9999,9999,9999,2231259236
35,17,7,Jits_ISO_8,116,9999,9999,9999,2232060000
35,17,7,Jits_ISO_8,117,9999,9999,9999,2232859732
35,17,7,Jits_ISO_8,118,9999,9999,9999,2233659448
35,17,7,Jits_ISO_8,119,9999,9999,9999,2234459228
35,18,19,Jits_Linear_5,0,5,56,103,2246109480
35,18,19,Jits_Linear_5,1,5,63,98,2246112648
35,18,19,Jits_Linear_5,2,5,80,127,2246115920
35,18,19,Jits_Linear_5,0,5,56,103,2246589940
35,18,19,Jits_Linear_5,1,5,63,98,2246592960
35,18,19,Jits_Linear_5,2,5,80,127,2246596084
35,18,19,Jits_Linear_5,0,5,56,103,2247070192
35,18,19,Jits_Linear_5,1,5,80,127,2247080240
35,18,19,Jits_Linear_5,2,5,63,98,2247099876
35,18,19,Jits_Linear_5,0,5,63,98,2247500104
35,18,19,Jits_Linear_5,1,5,80,127,2247529928
35,18,19,Jits_Linear_5,2,5,56,103,2247540048
35,18,19,Jits_Linear_5,0,1,48,52,2247979712
35,18,19,Jits_Linear_5,1,5,80,127,2248039752
35,18,19,Jits_Linear_5,2,5,56,103,2248049948
35,18,19,Jits_Linear_5,3,5,63,98,2248079832
35,18,19,Jits_Linear_5,0,1,48,42,2248507420
35,18,19,Jits_Linear_5,1,5,63,98,2248520192
35,18,19,Jits_Linear_5,2,5,56,103,2248549868
35,18,19,Jits_Linear_5,3,5,80,127,2248560288
35,18,19,Jits_Linear_5,0,5,56,103,2248960252
35,18,19,Jits_Linear_5,1,1,48,47,2249003228
35,18,19,Jits_Linear_5,2,5,63,98,2249009624
35,18,19,Jits_Linear_5,3,5,80,127,2249030084
35,18,19,Jits_Linear_5,0,5,80,127,2249449960
35,18,19,Jits_Linear_5,1,1,48,41,2249476252
35,18,19,Jits_Linear_5,2,5,63,98,2249500108
35,18,19,Jits_Linear_5,3,5,56,103,2249540120
35,18,19,Jits_Linear_5,0,5,56,103,2249940296
35,18,19,Jits_Linear_5,1,1,48,40,2249955172
35,18,19,Jits_Linear_5,2,5,63,98,2249969964
35,18,19,Jits_Linear_5,3,5,80,127,2250039824
35,18,19,Jits_Linear_5,0,5,56,103,2250430104
35,18,19,Jits_Linear_5,1,1,48,48,2250441024
35,18,19,Jits_Linear_5,2,5,80,127,2250490196
35,18,19,Jits_Linear_5,3,5,63,98,2250520268
35,18,19,Jits_Linear_5,0,5,56,103,2250929512
35,18,19,Jits_Linear_5,1,5,63,98,2250939860
35,18,19,Jits_Linear_5,2,1,48,44,2250951372
35,18,19,Jits_Linear_5,3,5,80,127,2250979792
35,18,19,Jits_Linear_5,0,5,63,98,2251420000
35,18,19,Jits_Linear_5,1,1,48,46,2251427008
35,18,19,Jits_Linear_5,2,5,80,127,2251499944
35,18,19,Jits_Linear_5,3,5,56,103,2251509992
35,18,19,Jits_Linear_5,0,1,48,47,2251904812
35,18,19,Jits_Linear_5,1,5,63,98,2251969960
35,18,19,Jits_Linear_5,2,5,56,103,2252010104
35,18,19,Jits_Linear_5,3,5,80,127,2252013096
35,18,19,Jits_Linear_5,0,1,48,48,2252410052
35,18,19,Jits_Linear_5,1,5,56,103,2252429632
35,18,19,Jits_Linear_5,2,5,63,98,2252440052
35,18,19,Jits_Linear_5,3,5,80,127,2252479992
35,18,19,Jits_Linear_5,0,1,48,51,2252891004
35,18,19,Jits_Linear_5,1,5,56,103,2252920176
35,18,19,Jits_Linear_5,2,5,63,98,2252923316
35,18,19,Jits_Linear_5,3,5,80,127,2252939812
35,18,19,Jits_Linear_5,0,1,48,48,2253384828
35,18,19,Jits_Linear_5,1,5,80,127,2253440380
35,18,19,Jits_Linear_5,2,5,56,103,2253449456
35,18,19,Jits_Linear_5,3,5,63,98,2253520168
35,18,19,Jits_Linear_5,0,1,48,50,2253916576
35,18,19,Jits_Linear_5,1,5,63,98,2253939992
35,18,19,Jits_Linear_5,2,5,56,103,2253959480
35,18,19,Jits_Linear_5,3,5,80,127,2254040380
35,18,19,Jits_Linear_5,0,1,48,49,2254379784
35,18,19,Jits_Linear_5,1,5,56,103,2254460280
35,18,19,Jits_Linear_5,2,5,80,127,2254500132
35,18,19,Jits_Linear_5,3,5,63,98,2254509580
35,18,19,Jits_Linear_5,0,1,48,51,2254842432
35,18,19,Jits_Linear_5,1,5,80,127,2254960028
35,18,19,Jits_Linear_5,2,5,63,98,2254989780
35,18,19,Jits_Linear_5,3,5,56,103,2255029720
35,18,19,Jits_Linear_5,0,1,48,52,2255377424
35,18,19,Jits_Linear_5,1,5,56,103,2255490284
35,18,19,Jits_Linear_5,2,5,63,98,2255520184
35,18,19,Jits_Linear_5,3,5,80,127,2255570384
35,18,19,Jits_Linear_5,0,1,48,43,2255889336
35,18,19,Jits_Linear_5,1,5,80,127,2256000460
35,18,19,Jits_Linear_5,2,5,56,103,2256040180
35,18,19,Jits_Linear_5,3,5,63,98,2256049624
35,18,19,Jits_Linear_5,0,1,48,50,2256380528
35,18,19,Jits_Linear_5,1,5,80,127,2256500072
35,18,19,Jits_Linear_5,2,5,63,98,2256540088
35,18,19,Jits_Linear_5,3,5,56,103,2256600552
35,18,19,Jits_Linear_5,0,1,48,41,2256925412
35,18,19,Jits_Linear_5,1,5,56,103,2257020300
35,18,19,Jits_Linear_5,2,5,80,127,2257029808
35,18,19,Jits_Linear_5,3,5,63,98,2257110504
35,18,19,Jits_Linear_5,0,1,48,41,2257488568
35,18,19,Jits_Linear_5,1,5,80,127,2257539468
35,18,19,Jits_Linear_5,2,5,63,98,2257599924
35,18,19,Jits_Linear_5,3,5,56,103,2257629672
35,18,19,Jits_Linear_5,0,1,48,43,2258009164
35,18,19,Jits_Linear_5,1,5,56,103,2258059832
35,18,19,Jits_Linear_5,2,5,80,127,2258120064
35,18,19,Jits_Linear_5,3,5,63,98,2258159852
35,18,19,Jits_Linear_5,0,1,48,45,2258518588
35,18,19,Jits_Linear_5,1,5,56,103,2258640128
35,18,19,Jits_Linear_5,2,5,63,98,2258649720
35,18,19,Jits_Linear_5,3,5,80,127,2258652936
35,18,19,Jits_Linear_5,0,1,48,39,2259051232
35,18,19,Jits_Linear_5,1,5,80,127,2259119592
35,18,19,Jits_Linear_5,2,5,63,98,2259209812
35,18,19,Jits_Linear_5,3,5,56,103,2259220008
35,18,19,Jits_Linear_5,0,1,48,43,2259576836
35,18,19,Jits_Linear_5,1,5,56,103,2259649908
35,18,19,Jits_Linear_5,2,5,63,98,2259653004
35,18,19,Jits_Linear_5,3,5,80,127,2259656128
35,18,19,Jits_Linear_5,0,1,48,35,2260128428
35,18,19,Jits_Linear_5,1,5,80,127,2260199780
35,18,19,Jits_Linear_5,2,5,63,98,2260249968
35,18,19,Jits_Linear_5,3,5,56,103,2260279792
35,18,19,Jits_Linear_5,0,1,48,38,2260647556
35,18,19,Jits_Linear_5,1,5,56,103,2260709636
35,18,19,Jits_Linear_5,2,5,80,127,2260719980
35,18,19,Jits_Linear_5,3,5,63,98,2260789748
35,18,19,Jits_Linear_5,0,1,48,39,2261142380
35,18,19,Jits_Linear_5,1,5,56,103,2261250612
35,18,19,Jits_Linear_5,2,5,63,98,2261269876
35,18,19,Jits_Linear_5,3,5,80,127,2261330196
35,18,19,Jits_Linear_5,0,1,48,40,2261643492
35,18,19,Jits_Linear_5,1,5,80,127,2261779892
35,18,19,Jits_Linear_5,2,5,63,98,2261849728
35,18,19,Jits_Linear_5,3,5,56,103,2261869816
35,18,19,Jits_Linear_5,0,1,48,38,2262191880
35,18,19,Jits_Linear_5,1,5,80,127,2262339972
35,18,19,Jits_Linear_5,2,5,56,103,2262350168
35,18,19,Jits_Linear_5,3,5,63,98,2262360512
35,18,19,Jits_Linear_5,0,1,48,39,2262712912
35,18,19,Jits_Linear_5,1,5,80,127,2262870672
35,18,19,Jits_Linear_5,2,5,56,103,2262889936
35,18,19,Jits_Linear_5,3,5,63,98,2262959616
35,18,19,Jits_Linear_5,0,1,48,44,2263292768
35,18,19,Jits_Linear_5,1,5,56,103,2263420256
35,18,19,Jits_Linear_5,2,5,80,127,2263449936
35,18,19,Jits_Linear_5,3,5,63,98,2263469644
35,18,19,Jits_Linear_5,0,1,48,38,2263790740
35,18,19,Jits_Linear_5,1,5,63,98,2263959880
35,18,19,Jits_Linear_5,2,5,56,103,2264020500
35,18,19,Jits_Linear_5,3,5,80,127,2264049952
35,18,19,Jits_Linear_5,0,1,48,41,2264357124
35,18,19,Jits_Linear_5,1,5,63,98,2264499652
35,18,19,Jits_Linear_5,2,5,80,127,2264502940
35,18,19,Jits_Linear_5,3,5,56,103,2264589664
35,18,19,Jits_Linear_5,0,1,48,45,2264877344
35,18,19,Jits_Linear_5,1,5,56,103,2265069980
35,18,19,Jits_Linear_5,2,5,63,98,2265099608
35,18,19,Jits_Linear_5,3,5,80,127,2265139624
35,18,19,Jits_Linear_5,0,1,48,41,2265421304
35,18,19,Jits_Linear_5,1,5,63,98,2265619892
35,18,19,Jits_Linear_5,2,5,56,103,2265659684
35,18,19,Jits_Linear_5,3,5,80,127,2265680740
35,18,19,Jits_Linear_5,0,1,48,48,2265969464
35,18,19,Jits_Linear_5,1,5,63,98,2266179820
35,18,19,Jits_Linear_5,2,5,56,103,2266219836
35,18,19,Jits_Linear_5,3,5,80,127,2266230104
35,18,19,Jits_Linear_5,0,1,48,41,2266505560
35,18,19,Jits_Linear_5,1,5,80,127,2266710596
35,18,19,Jits_Linear_5,2,5,63,98,2266779908
35,18,19,Jits_Linear_5,3,5,56,103,2266799620
35,18,19,Jits_Linear_5,0,1,48,43,2267059724
35,18,19,Jits_Linear_5,1,5,56,103,2267260556
35,18,19,Jits_Linear_5,2,5,80,127,2267279600
35,18,19,Jits_Linear_5,3,5,63,98,2267319612
35,18,19,Jits_Linear_5,4,1,48,39,2267582636
35,18,19,Jits_Linear_5,0,5,63,98,2267829692
35,18,19,Jits_Linear_5,1,5,80,127,2267850224
35,18,19,Jits_Linear_5,2,5,56,103,2267890164
35,18,19,Jits_Linear_5,3,1,48,38,2268138212
35,18,19,Jits_Linear_5,0,5,63,98,2268389608
35,18,19,Jits_Linear_5,1,5,56,103,2268410364
35,18,19,Jits_Linear_5,2,5,80,127,2268419536
35,18,19,Jits_Linear_5,3,1,48,40,2268640064
35,18,19,Jits_Linear_5,0,5,80,127,2268950000
35,18,19,Jits_Linear_5,1,5,56,103,2268970384
35,18,19,Jits_Linear_5,2,5,63,98,2269000136
35,18,19,Jits_Linear_5,3,1,48,34,2269146336
35,18,19,Jits_Linear_5,0,5,56,103,2269589804
35,18,19,Jits_Linear_5,1,5,80,127,2269592872
35,18,19,Jits_Linear_5,2,5,63,98,2269610264
35,18,19,Jits_Linear_5,3,1,48,43,2269663948
35,18,19,Jits_Linear_5,0,5,63,98,2270080584
35,18,19,Jits_Linear_5,1,5,56,103,2270110260
35,18,19,Jits_Linear_5,2,1,48,41,2270141400
35,18,19,Jits_Linear_5,3,5,80,127,2270169376
35,18,19,Jits_Linear_5,0,1,48,38,2270602340
35,18,19,Jits_Linear_5,1,5,63,98,2270729524
35,18,19,Jits_Linear_5,2,5,56,103,2270739868
35,18,19,Jits_Linear_5,3,5,80,127,2270750288
35,18,19,Jits_Linear_5,0,1,48,41,2271166376
35,18,19,Jits_Linear_5,1,5,56,103,2271249760
35,18,19,Jits_Linear_5,2,5,80,127,2271279568
35,18,19,Jits_Linear_5,3,5,63,98,2271289616
35,18,19,Jits_Linear_5,0,1,48,37,2271684052
35,18,19,Jits_Linear_5,1,5,63,98,2271860168
35,18,19,Jits_Linear_5,2,5,56,103,2271870364
35,18,19,Jits_Linear_5,3,5,80,127,2271889700
35,18,19,Jits_Linear_5,0,1,48,41,2272191012
35,18,19,Jits_Linear_5,1,5,56,103,2272359708
35,18,19,Jits_Linear_5,2,5,63,98,2272420320
35,18,19,Jits_Linear_5,3,5,80,127,2272423684
35,18,19,Jits_Linear_5,0,1,48,40,2272710828
35,18,19,Jits_Linear_5,1,5,80,127,2272960228
35,18,19,Jits_Linear_5,2,5,56,103,2272970352
35,18,19,Jits_Linear_5,3,5,63,98,2273039688
35,18,19,Jits_Linear_5,4,1,48,37,2273216152
35,18,19,Jits_Linear_5,0,5,80,127,2273530412
35,18,19,Jits_Linear_5,1,5,56,103,2273599900
35,18,19,Jits_Linear_5,2,5,63,98,2273610468
35,18,19,Jits_Linear_5,3,1,48,36,2273731884
35,18,19,Jits_Linear_5,0,5,63,98,2274149800
35,18,19,Jits_Linear_5,1,5,56,103,2274160144
35,18,19,Jits_Linear_5,2,5,80,127,2274179408
35,18,19,Jits_Linear_5,3,1,48,30,2274292720
35,18,19,Jits_Linear_5,0,5,80,127,2274680052
35,18,19,Jits_Linear_5,1,5,63,98,2274739472
35,18,19,Jits_Linear_5,2,5,56,103,2274779560
35,18,19,Jits_Linear_5,3,1,48,29,2274818592
35,18,19,Jits_Linear_5,0,5,56,103,2275310120
35,18,19,Jits_Linear_5,1,1,48,27,2275311084
35,18,19,Jits_Linear_5,2,5,63,98,2275320160
35,18,19,Jits_Linear_5,3,5,80,127,2275360124
35,18,19,Jits_Linear_5,0,1,48,28,2275832116
35,18,19,Jits_Linear_5,1,5,56,103,2275859964
35,18,19,Jits_Linear_5,2,5,80,127,2275889492
35,18,19,Jits_Linear_5,3,5,63,98,2275939684
35,18,19,Jits_Linear_5,0,1,48,24,2276373928
35,18,19,Jits_Linear_5,1,5,56,103,2276489632
35,18,19,Jits_Linear_5,2,5,63,98,2276529496
35,18,19,Jits_Linear_5,3,5,80,127,2276532784
35,18,19,Jits_Linear_5,0,1,48,35,2276924400
35,18,19,Jits_Linear_5,1,5,56,103,2277080488
35,18,19,Jits_Linear_5,2,5,63,98,2277089712
35,18,19,Jits_Linear_5,3,5,80,127,2277110248
35,18,19,Jits_Linear_5,0,1,48,40,2277442148
35,18,19,Jits_Linear_5,1,5,56,103,2277630320
35,18,19,Jits_Linear_5,2,5,80,127,2277633464
35,18,19,Jits_Linear_5,3,5,63,98,2277670412
35,18,19,Jits_Linear_5,0,1,48,41,2277997472
35,18,19,Jits_Linear_5,1,5,63,98,2278260216
35,18,19,Jits_Linear_5,2,5,56,103,2278289816
35,18,19,Jits_Linear_5,3,5,80,127,2278310200
35,18,19,Jits_Linear_5,0,1,48,40,2278657768
35,18,19,Jits_Linear_5,1,5,80,127,2278829284
35,18,19,Jits_Linear_5,2,5,56,103,2278839928
35,18,19,Jits_Linear_5,3,5,63,98,2278850124
35,18,19,Jits_Linear_5,0,1,48,42,2279182996
35,18,19,Jits_Linear_5,1,5,56,103,2279439872
35,18,19,Jits_Linear_5,2,5,80,127,2279479588
35,18,19,Jits_Linear_5,3,5,63,98,2279510312
35,18,19,Jits_Linear_5,0,1,48,43,2279788028
35,18,19,Jits_Linear_5,1,5,63,98,2280049900
35,18,19,Jits_Linear_5,2,5,80,127,2280060248
35,18,19,Jits_Linear_5,3,5,56,103,2280069472
35,18,19,Jits_Linear_5,4,1,48,47,2280353020
35,18,19,Jits_Linear_5,0,5,56,103,2280629820
35,18,19,Jits_Linear_5,1,5,63,98,2280700252
35,18,19,Jits_Linear_5,2,5,80,127,2280709352
35,18,19,Jits_Linear_5,3,1,48,38,2280918028
35,18,19,Jits_Linear_5,0,5,80,127,2281239980
35,18,19,Jits_Linear_5,1,5,56,103,2281250104
35,18,19,Jits_Linear_5,2,5,63,98,2281300232
35,18,19,Jits_Linear_5,3,1,48,43,2281470440
35,18,19,Jits_Linear_5,0,5,80,127,2281859556
35,18,19,Jits_Linear_5,1,5,56,103,2281919876
35,18,19,Jits_Linear_5,2,5,63,98,2281949408
35,18,19,Jits_Linear_5,3,1,48,43,2282021924
35,18,19,Jits_Linear_5,0,5,56,103,2282470000
35,18,19,Jits_Linear_5,1,5,80,127,2282473060
35,18,19,Jits_Linear_5,2,5,63,98,2282509808
35,18,19,Jits_Linear_5,3,1,48,41,2282592936
35,18,19,Jits_Linear_5,0,1,48,50,2283090380
35,18,19,Jits_Linear_5,1,5,56,103,2283120000
35,18,19,Jits_Linear_5,2,5,63,98,2283149824
35,18,19,Jits_Linear_5,3,5,80,127,2283159872
35,18,19,Jits_Linear_5,0,1,48,47,2283656588
35,18,19,Jits_Linear_5,1,5,63,98,2283739640
35,18,19,Jits_Linear_5,2,5,80,127,2283749836
35,18,19,Jits_Linear_5,3,5,56,103,2283760092
35,18,19,Jits_Linear_5,0,1,48,45,2284274280
35,18,19,Jits_Linear_5,1,5,80,127,2284299884
35,18,19,Jits_Linear_5,2,5,56,103,2284350088
35,18,19,Jits_Linear_5,3,5,63,98,2284353004
35,18,19,Jits_Linear_5,0,1,48,47,2284869212
35,18,19,Jits_Linear_5,1,5,56,103,2284950004
35,18,19,Jits_Linear_5,2,5,80,127,2284970376
35,18,19,Jits_Linear_5,3,5,63,98,2284979600
35,18,19,Jits_Linear_5,0,1,48,49,2285436016
35,18,19,Jits_Linear_5,1,5,63,98,2285549920
35,18,19,Jits_Linear_5,2,5,56,103,2285579996
35,18,19,Jits_Linear_5,3,5,80,127,2285600156
35,18,19,Jits_Linear_5,0,1,48,41,2286083404
35,18,19,Jits_Linear_5,1,5,56,103,2286180216
35,18,19,Jits_Linear_5,2,5,80,127,2286189896
35,18,19,Jits_Linear_5,3,5,63,98,2286259652
35,18,19,Jits_Linear_5,0,1,48,40,2286676880
35,18,19,Jits_Linear_5,1,5,63,98,2286789968
35,18,19,Jits_Linear_5,2,5,80,127,2286829908
35,18,19,Jits_Linear_5,3,5,56,103,2286869948
35,18,19,Jits_Linear_5,0,1,48,43,2287199356
35,18,19,Jits_Linear_5,1,5,56,103,2287430080
35,18,19,Jits_Linear_5,2,5,63,98,2287440204
35,18,19,Jits_Linear_5,3,5,80,127,2287459988
35,18,19,Jits_Linear_5,0,1,48,38,2287903372
35,18,19,Jits_Linear_5,1,5,63,98,2288099920
35,18,19,Jits_Linear_5,2,5,80,127,2288120156
35,18,19,Jits_Linear_5,3,5,56,103,2288139816
35,18,19,Jits_Linear_5,0,1,48,29,2288485924
35,18,19,Jits_Linear_5,1,5,56,103,2288670132
35,18,19,Jits_Linear_5,2,5,80,127,2288749932
35,18,19,Jits_Linear_5,3,5,63,98,2288760132
35,18,19,Jits_Linear_5,0,1,48,36,2289087964
35,18,19,Jits_Linear_5,1,5,80,127,2289339900
35,18,19,Jits_Linear_5,2,5,63,98,2289350020
35,18,19,Jits_Linear_5,3,5,56,103,2289379844
35,18,19,Jits_Linear_5,0,1,48,41,2289716452
35,18,19,Jits_Linear_5,1,5,63,98,2289929736
35,18,19,Jits_Linear_5,2,5,80,127,2289969676
35,18,19,Jits_Linear_5,3,5,56,103,2290029848
35,18,19,Jits_Linear_5,0,1,48,40,2290345380
35,18,19,Jits_Linear_5,1,5,63,98,2290569752
35,18,19,Jits_Linear_5,2,5,56,103,2290619732
35,18,19,Jits_Linear_5,3,5,80,127,2290649708
35,18,19,Jits_Linear_5,0,1,48,38,2290966988
35,18,19,Jits_Linear_5,1,5,80,127,2291219760
35,18,19,Jits_Linear_5,2,5,63,98,2291230104
35,18,19,Jits_Linear_5,3,5,56,103,2291299712
35,18,19,Jits_Linear_5,0,1,48,38,2291590004
35,18,19,Jits_Linear_5,1,5,80,127,2291929604
35,18,19,Jits_Linear_5,2,5,56,103,2291939804
35,18,19,Jits_Linear_5,3,5,63,98,2291942940
35,18,19,Jits_Linear_5,0,1,48,30,2292223360
35,18,19,Jits_Linear_5,1,5,56,103,2292510004
35,18,19,Jits_Linear_5,2,5,80,127,2292529716
35,18,19,Jits_Linear_5,3,5,63,98,2292539764
35,18,19,Jits_Linear_5,0,1,48,33,2292924900
35,18,19,Jits_Linear_5,1,5,63,98,2293160508
35,18,19,Jits_Linear_5,2,5,56,103,2293200520
35,18,19,Jits_Linear_5,3,5,80,127,2293219564
35,18,19,Jits_Linear_5,0,1,48,24,2293685576
35,18,19,Jits_Linear_5,1,5,63,98,2293809772
35,18,19,Jits_Linear_5,2,5,56,103,2293869784
35,18,19,Jits_Linear_5,3,5,80,127,2293873080
35,18,19,Jits_Linear_5,0,1,48,36,2294403244
35,18,19,Jits_Linear_5,1,5,56,103,2294419828
35,18,19,Jits_Linear_5,2,5,80,127,2294440440
35,18,19,Jits_Linear_5,3,5,63,98,2294480228
35,18,19,Jits_Linear_5,0,1,48,40,2295022272
35,18,19,Jits_Linear_5,1,5,56,103,2295099652
35,18,19,Jits_Linear_5,2,5,63,98,2295120544
35,18,19,Jits_Linear_5,3,5,80,127,2295129544
35,18,19,Jits_Linear_5,0,1,48,40,2295705916
35,18,19,Jits_Linear_5,1,5,80,127,2295720484
35,18,19,Jits_Linear_5,2,5,56,103,2295750088
35,18,19,Jits_Linear_5,3,5,63,98,2295789876
35,18,19,Jits_Linear_5,0,5,80,127,2296379712
35,18,19,Jits_Linear_5,1,1,48,35,2296389732
35,18,19,Jits_Linear_5,2,5,56,103,2296400464
35,18,19,Jits_Linear_5,3,5,63,98,2296459736
35,18,19,Jits_Linear_5,0,5,56,103,2297040420
35,18,19,Jits_Linear_5,1,5,80,127,2297059684
35,18,19,Jits_Linear_5,2,1,48,40,2297079512
35,18,19,Jits_Linear_5,3,5,63,98,2297120168
35,18,19,Jits_Linear_5,0,1,48,40,2297665144
35,18,19,Jits_Linear_5,1,5,80,127,2297680684
35,18,19,Jits_Linear_5,2,5,56,103,2297689316
35,18,19,Jits_Linear_5,3,5,63,98,2297730376
35,18,19,Jits_Linear_5,0,1,48,40,2298293020
35,18,19,Jits_Linear_5,1,5,63,98,2298339732
35,18,19,Jits_Linear_5,2,5,56,103,2298379620
35,18,19,Jits_Linear_5,3,5,80,127,2298382684
35,18,19,Jits_Linear_5,0,1,48,43,2298972684
35,18,19,Jits_Linear_5,1,5,63,98,2299019616
35,18,19,Jits_Linear_5,2,5,80,127,2299059556
35,18,19,Jits_Linear_5,3,5,56,103,2299090416
35,18,19,Jits_Linear_5,0,1,48,37,2299642808
35,18,19,Jits_Linear_5,1,5,56,103,2299669988
35,18,19,Jits_Linear_5,2,5,63,98,2299680108
35,18,19,Jits_Linear_5,3,5,80,127,2299709932
35,18,19,Jits_Linear_5,0,1,48,37,2300279180
35,18,19,Jits_Linear_5,1,5,80,127,2300330304
35,18,19,Jits_Linear_5,2,5,63,98,2300400120
35,18,19,Jits_Linear_5,3,5,56,103,2300410392
35,18,19,Jits_Linear_5,0,1,48,38,2300979908
35,18,19,Jits_Linear_5,1,5,63,98,2301000016
35,18,19,Jits_Linear_5,2,5,56,103,2301069776
35,18,19,Jits_Linear_5,3,5,80,127,2301079884
35,18,19,Jits_Linear_5,0,1,48,42,2301616016
35,18,19,Jits_Linear_5,1,5,63,98,2301669700
35,18,19,Jits_Linear_5,2,5,56,103,2301690456
35,18,19,Jits_Linear_5,3,5,80,127,2301730404
35,18,19,Jits_Linear_5,0,1,48,38,2302261004
35,18,19,Jits_Linear_5,1,5,56,103,2302349668
35,18,19,Jits_Linear_5,2,5,63,98,2302359852
35,18,19,Jits_Linear_5,3,5,80,127,2302439648
35,18,19,Jits_Linear_5,0,1,48,41,2302935252
35,18,19,Jits_Linear_5,1,5,63,98,2303010384
35,18,19,Jits_Linear_5,2,5,56,103,2303039748
35,18,19,Jits_Linear_5,3,5,80,127,2303079684
35,18,19,Jits_Linear_5,0,1,48,40,2303621300
35,18,19,Jits_Linear_5,1,5,56,103,2303679992
35,18,19,Jits_Linear_5,2,5,63,98,2303719696
35,18,19,Jits_Linear_5,3,5,80,127,2303759732
35,18,19,Jits_Linear_5,0,1,48,44,2304351544
35,18,19,Jits_Linear_5,1,5,80,127,2304359888
35,18,19,Jits_Linear_5,2,5,56,103,2304439616
35,18,19,Jits_Linear_5,3,5,63,98,2304450392
35,18,19,Jits_Linear_5,0,1,48,39,2305003544
35,18,19,Jits_Linear_5,1,5,56,103,2305079644
35,18,19,Jits_Linear_5,2,5,63,98,2305082936
35,18,19,Jits_Linear_5,3,5,80,127,2305089992
35,18,19,Jits_Linear_5,0,1,48,35,2305694140
35,18,19,Jits_Linear_5,1,5,56,103,2305780260
35,18,19,Jits_Linear_5,2,5,63,98,2305799536
35,18,19,Jits_Linear_5,3,5,80,127,2305809732
35,18,19,Jits_Linear_5,0,1,48,36,2306403184
35,18,19,Jits_Linear_5,1,5,63,98,2306420300
35,18,19,Jits_Linear_5,2,5,80,127,2306430272
35,18,19,Jits_Linear_5,3,5,56,103,2306449688
35,18,19,Jits_Linear_5,0,1,48,39,2307059316
35,18,19,Jits_Linear_5,1,5,63,98,2307110388
35,18,19,Jits_Linear_5,2,5,56,103,2307190096
35,18,19,Jits_Linear_5,3,5,80,127,2307193308
35,18,19,Jits_Linear_5,0,1,48,42,2307766164
35,18,19,Jits_Linear_5,1,5,63,98,2307800368
35,18,19,Jits_Linear_5,2,5,56,103,2307820004
35,18,19,Jits_Linear_5,3,5,80,127,2307849556
35,18,19,Jits_Linear_5,0,5,56,103,2308489564
35,18,19,Jits_Linear_5,1,1,48,29,2308500628
35,18,19,Jits_Linear_5,2,5,63,98,2308509944
35,18,19,Jits_Linear_5,3,5,80,127,2308520360
35,18,19,Jits_Linear_5,0,1,48,44,2309174900
35,18,19,Jits_Linear_5,1,5,56,103,2309209548
35,18,19,Jits_Linear_5,2,5,63,98,2309240124
35,18,19,Jits_Linear_5,3,5,80,127,2309243336
35,18,19,Jits_Linear_5,0,1,48,35,2309811612
35,18,19,Jits_Linear_5,1,5,56,103,2309849400
35,18,19,Jits_Linear_5,2,5,63,98,2309890416
35,18,19,Jits_Linear_5,3,5,80,127,2309950040
35,18,19,Jits_Linear_5,0,1,48,37,2310529944
35,18,19,Jits_Linear_5,1,5,56,103,2310560092
35,18,19,Jits_Linear_5,2,5,63,98,2310570288
35,18,19,Jits_Linear_5,3,5,80,127,2310629692
35,18,19,Jits_Linear_5,0,1,48,37,2311183536
35,18,19,Jits_Linear_5,1,5,56,103,2311259616
35,18,19,Jits_Linear_5,2,5,80,127,2311279988
35,18,19,Jits_Linear_5,3,5,63,98,2311309812
35,18,19,Jits_Linear_5,0,1,48,43,2311830892
35,18,19,Jits_Linear_5,1,5,80,127,2311970288
35,18,19,Jits_Linear_5,2,5,56,103,2311980484
35,18,19,Jits_Linear_5,3,5,63,98,2311999820
35,18,19,Jits_Linear_5,0,1,48,50,2312499328
35,18,19,Jits_Linear_5,1,5,63,98,2312660348
35,18,19,Jits_Linear_5,2,5,80,127,2312740248
35,18,19,Jits_Linear_5,3,5,56,103,2312749396
35,18,19,Jits_Linear_5,0,1,48,54,2313147336
35,18,19,Jits_Linear_5,1,5,80,127,2313420116
35,18,19,Jits_Linear_5,2,5,56,103,2313439528
35,18,19,Jits_Linear_5,3,5,63,98,2313442520
35,18,19,Jits_Linear_5,0,1,48,53,2313899696
35,18,19,Jits_Linear_5,1,5,63,98,2314100156
35,18,19,Jits_Linear_5,2,5,80,127,2314103596
35,18,19,Jits_Linear_5,3,5,56,103,2314159576
35,18,19,Jits_Linear_5,0,1,48,47,2314586840
35,18,19,Jits_Linear_5,1,5,56,103,2314790308
35,18,19,Jits_Linear_5,2,5,80,127,2314799608
35,18,19,Jits_Linear_5,3,5,63,98,2314840520
35,18,19,Jits_Linear_5,0,1,48,38,2315310504
35,18,19,Jits_Linear_5,1,5,56,103,2315480740
35,18,19,Jits_Linear_5,2,5,63,98,2315539816
35,18,19,Jits_Linear_5,3,5,80,127,2315550160
35,18,19,Jits_Linear_5,0,1,48,54,2316035196
35,18,19,Jits_Linear_5,1,5,63,98,2316200276
35,18,19,Jits_Linear_5,2,5,80,127,2316240364
35,18,19,Jits_Linear_5,3,5,56,103,2316280080
35,18,19,Jits_Linear_5,0,1,48,51,2316778916
35,18,19,Jits_Linear_5,1,5,56,103,2316909992
35,18,19,Jits_Linear_5,2,5,63,98,2316989792
35,18,19,Jits_Linear_5,3,5,80,127,2316993152
35,18,19,Jits_Linear_5,0,1,48,51,2317473696
35,18,19,Jits_Linear_5,1,5,80,127,2317679864
35,18,19,Jits_Linear_5,2,5,56,103,2317709688
35,18,19,Jits_Linear_5,3,5,63,98,2317712752
35,18,19,Jits_Linear_5,0,1,48,53,2318156732
35,18,19,Jits_Linear_5,1,5,56,103,2318359904
35,18,19,Jits_Linear_5,2,5,80,127,2318380292
35,18,19,Jits_Linear_5,3,5,63,98,2318420304
35,18,19,Jits_Linear_5,0,1,48,42,2318848188
35,18,19,Jits_Linear_5,1,5,80,127,2319060456
35,18,19,Jits_Linear_5,2,5,63,98,2319079872
35,18,19,Jits_Linear_5,3,5,56,103,2319140136
35,18,19,Jits_Linear_5,0,1,48,40,2319599680
35,18,19,Jits_Linear_5,1,5,63,98,2319789352
35,18,19,Jits_Linear_5,2,5,56,103,2319799772
35,18,19,Jits_Linear_5,3,5,80,127,2319849900
35,18,19,Jits_Linear_5,0,1,48,53,2320259792
35,18,19,Jits_Linear_5,1,5,56,103,2320499968
35,18,19,Jits_Linear_5,2,5,63,98,2320519680
35,18,19,Jits_Linear_5,3,5,80,127,2320529724
35,18,19,Jits_Linear_5,0,1,48,50,2320936228
35,18,19,Jits_Linear_5,1,5,56,103,2321219940
35,18,19,Jits_Linear_5,2,5,63,98,2321223008
35,18,19,Jits_Linear_5,3,5,80,127,2321240552
35,18,19,Jits_Linear_5,0,1,48,48,2321637908
35,18,19,Jits_Linear_5,1,5,63,98,2321989940
35,18,19,Jits_Linear_5,2,5,56,103,2322019768
35,18,19,Jits_Linear_5,3,5,80,127,2322050640
35,18,19,Jits_Linear_5,0,1,48,41,2322479940
35,18,19,Jits_Linear_5,1,5,80,127,2322680152
35,18,19,Jits_Linear_5,2,5,56,103,2322770212
35,18,19,Jits_Linear_5,3,5,63,98,2322773500
35,18,19,Jits_Linear_5,0,1,48,43,2323298192
35,18,19,Jits_Linear_5,1,5,56,103,2323410284
35,18,19,Jits_Linear_5,2,5,80,127,2323413648
35,18,19,Jits_Linear_5,3,5,63,98,2323490108
35,18,19,Jits_Linear_5,0,1,48,38,2324064076
35,18,19,Jits_Linear_5,1,5,80,127,2324140532
35,18,19,Jits_Linear_5,2,5,63,98,2324199788
35,18,19,Jits_Linear_5,3,5,56,103,2324229640
35,18,19,Jits_Linear_5,0,1,48,39,2324791484
35,18,19,Jits_Linear_5,1,5,63,98,2324869656
35,18,19,Jits_Linear_5,2,5,80,127,2324879628
35,18,19,Jits_Linear_5,3,5,56,103,2324950344
35,18,19,Jits_Linear_5,0,1,48,27,2325566068
35,18,19,Jits_Linear_5,1,5,56,103,2325620052
35,18,19,Jits_Linear_5,2,5,80,127,2325649876
35,18,19,Jits_Linear_5,3,5,63,98,2325699916
35,18,19,Jits_Linear_5,0,1,48,39,2326248724
35,18,19,Jits_Linear_5,1,5,63,98,2326400628
35,18,19,Jits_Linear_5,2,5,56,103,2326430080
35,18,19,Jits_Linear_5,3,5,80,127,2326433220
35,18,19,Jits_Linear_5,0,1,48,30,2327029304
35,18,19,Jits_Linear_5,1,5,63,98,2327139776
35,18,19,Jits_Linear_5,2,5,80,127,2327160312
35,18,19,Jits_Linear_5,3,5,56,103,2327170432
35,18,19,Jits_Linear_5,0,1,48,36,2327818544
35,18,19,Jits_Linear_5,1,5,56,103,2327890488
35,18,19,Jits_Linear_5,2,5,63,98,2327893480
35,18,19,Jits_Linear_5,3,5,80,127,2327909604
35,18,19,Jits_Linear_5,0,1,48,36,2328563736
35,18,19,Jits_Linear_5,1,5,56,103,2328589564
35,18,19,Jits_Linear_5,2,5,63,98,2328599984
35,18,19,Jits_Linear_5,3,5,80,127,2328629584
35,18,19,Jits_Linear_5,0,1,48,35,2329280716
35,18,19,Jits_Linear_5,1,5,63,98,2329359736
35,18,19,Jits_Linear_5,2,5,80,127,2329380328
35,18,19,Jits_Linear_5,3,5,56,103,2329420192
35,18,19,Jits_Linear_5,0,1,48,40,2330017016
35,18,19,Jits_Linear_5,1,5,56,103,2330140160
35,18,19,Jits_Linear_5,2,5,63,98,2330179876
35,18,19,Jits_Linear_5,3,5,80,127,2330183388
35,18,19,Jits_Linear_5,0,5,80,127,2330830388
35,18,19,Jits_Linear_5,1,1,48,44,2330863548
35,18,19,Jits_Linear_5,2,5,56,103,2330870320
35,18,19,Jits_Linear_5,3,5,63,98,2330920324
35,18,19,Jits_Linear_5,0,1,48,40,2331543900
35,18,19,Jits_Linear_5,1,5,56,103,2331640344
35,18,19,Jits_Linear_5,2,5,80,127,2331650344
35,18,19,Jits_Linear_5,3,5,63,98,2331680244
35,18,19,Jits_Linear_5,0,1,48,41,2332307880
35,18,19,Jits_Linear_5,1,5,56,103,2332339592
35,18,19,Jits_Linear_5,2,5,80,127,2332379532
35,18,19,Jits_Linear_5,3,5,63,98,2332429672
35,18,19,Jits_Linear_5,0,1,48,45,2333106884
35,18,19,Jits_Linear_5,1,5,56,103,2333109472
35,18,19,Jits_Linear_5,2,5,80,127,2333149488
35,18,19,Jits_Linear_5,3,5,63,98,2333199640
35,18,19,Jits_Linear_5,0,1,48,54,2333782592
35,18,19,Jits_Linear_5,1,5,80,127,2333860244
35,18,19,Jits_Linear_5,2,5,63,98,2333940176
35,18,19,Jits_Linear_5,3,5,56,103,2333950324
35,18,19,Jits_Linear_5,0,1,48,48,2334506680
35,18,19,Jits_Linear_5,1,5,80,127,2334670340
35,18,19,Jits_Linear_5,2,5,56,103,2334680388
35,18,19,Jits_Linear_5,3,5,63,98,2334699876
35,18,19,Jits_Linear_5,0,1,48,43,2335249604
35,18,19,Jits_Linear_5,1,5,63,98,2335400212
35,18,19,Jits_Linear_5,2,5,56,103,2335470044
35,18,19,Jits_Linear_5,3,5,80,127,2335473108
35,18,19,Jits_Linear_5,0,1,48,42,2336018124
35,18,19,Jits_Linear_5,1,5,80,127,2336160264
35,18,19,Jits_Linear_5,2,5,63,98,2336210396
35,18,19,Jits_Linear_5,3,5,56,103,2336250360
35,18,19,Jits_Linear_5,0,1,48,40,2336778488
35,18,19,Jits_Linear_5,1,5,63,98,2336970152
35,18,19,Jits_Linear_5,2,5,56,103,2337010168
35,18,19,Jits_Linear_5,3,5,80,127,2337020316
35,18,19,Jits_Linear_5,0,1,48,44,2337475424
35,18,19,Jits_Linear_5,1,5,63,98,2337730140
35,18,19,Jits_Linear_5,2,5,56,103,2337750304
35,18,19,Jits_Linear_5,3,5,80,127,2337770088
35,18,19,Jits_Linear_5,0,1,48,51,2338214140
35,18,19,Jits_Linear_5,1,5,80,127,2338460236
35,18,19,Jits_Linear_5,2,5,56,103,2338470212
35,18,19,Jits_Linear_5,3,5,63,98,2338489848
35,18,19,Jits_Linear_5,0,1,48,40,2338906312
35,18,19,Jits_Linear_5,1,5,63,98,2339259860
35,18,19,Jits_Linear_5,2,5,56,103,2339299576
35,18,19,Jits_Linear_5,3,5,80,127,2339330324
35,18,19,Jits_Linear_5,4,1,48,34,2339629984
35,18,19,Jits_Linear_5,0,5,56,103,2340040148
35,18,19,Jits_Linear_5,1,5,63,98,2340069604
35,18,19,Jits_Linear_5,2,5,80,127,2340099304
35,18,19,Jits_Linear_5,3,1,48,43,2340347408
35,18,19,Jits_Linear_5,0,5,80,127,2340800004
35,18,19,Jits_Linear_5,1,5,56,103,2340869412
35,18,19,Jits_Linear_5,2,5,63,98,2340872408
35,18,19,Jits_Linear_5,3,1,48,35,2341094728
35,18,19,Jits_Linear_5,0,5,56,103,2341590340
35,18,19,Jits_Linear_5,1,5,63,98,2341639672
35,18,19,Jits_Linear_5,2,5,80,127,2341670324
35,18,19,Jits_Linear_5,3,1,48,31,2341848896
35,18,19,Jits_Linear_5,0,5,63,98,2342350196
35,18,19,Jits_Linear_5,1,5,80,127,2342353556
35,18,19,Jits_Linear_5,2,5,56,103,2342409564
35,18,19,Jits_Linear_5,3,1,48,29,2342563336
35,18,19,Jits_Linear_5,0,1,48,36,2343129176
35,18,19,Jits_Linear_5,1,5,56,103,2343160288
35,18,19,Jits_Linear_5,2,5,80,127,2343170336
35,18,19,Jits_Linear_5,3,5,63,98,2343219564
35,18,19,Jits_Linear_5,0,1,48,28,2343867932
35,18,19,Jits_Linear_5,1,5,63,98,2343919952
35,18,19,Jits_Linear_5,2,5,56,103,2343930248
35,18,19,Jits_Linear_5,3,5,80,127,2343959852
35,18,19,Jits_Linear_5,0,1,48,41,2344561448
35,18,19,Jits_Linear_5,1,5,63,98,2344740256
35,18,19,Jits_Linear_5,2,5,80,127,2344743544
35,18,19,Jits_Linear_5,3,5,56,103,2344770004
35,18,19,Jits_Linear_5,0,1,48,42,2345300964
35,18,19,Jits_Linear_5,1,5,63,98,2345550208
35,18,19,Jits_Linear_5,2,5,56,103,2345569696
35,18,19,Jits_Linear_5,3,5,80,127,2345572760
35,18,19,Jits_Linear_5,0,1,48,39,2346100360
35,18,19,Jits_Linear_5,1,5,63,98,2346299996
35,18,19,Jits_Linear_5,2,5,56,103,2346370428
35,18,19,Jits_Linear_5,3,5,80,127,2346389840
35,18,19,Jits_Linear_5,0,1,48,38,2346881700
35,18,19,Jits_Linear_5,1,5,56,103,2347079992
35,18,19,Jits_Linear_5,2,5,63,98,2347090192
35,18,19,Jits_Linear_5,3,5,80,127,2347180472
35,18,19,Jits_Linear_5,0,1,48,30,2347578900
35,18,19,Jits_Linear_5,1,5,56,103,2347890024
35,18,19,Jits_Linear_5,2,5,80,127,2347930044
35,18,19,Jits_Linear_5,3,5,63,98,2347940092
35,18,19,Jits_Linear_5,0,1,48,23,2348378448
35,18,19,Jits_Linear_5,1,5,56,103,2348710252
35,18,19,Jits_Linear_5,2,5,63,98,2348740080
35,18,19,Jits_Linear_5,3,5,80,127,2348769904
35,18,19,Jits_Linear_5,4,1,48,40,2349111764
35,18,19,Jits_Linear_5,0,5,80,127,2349470088
35,18,19,Jits_Linear_5,1,5,63,98,2349509952
35,18,19,Jits_Linear_5,2,5,56,103,2349529588
35,18,19,Jits_Linear_5,3,1,48,27,2349887936
35,18,19,Jits_Linear_5,0,5,56,103,2350309876
35,18,19,Jits_Linear_5,1,5,80,127,2350330136
35,18,19,Jits_Linear_5,2,5,63,98,2350349924
35,18,19,Jits_Linear_5,3,1,48,25,2350638948
35,18,19,Jits_Linear_5,0,5,63,98,2351079844
35,18,19,Jits_Linear_5,1,5,56,103,2351089968
35,18,19,Jits_Linear_5,2,5,80,127,2351149560
35,18,19,Jits_Linear_5,3,1,48,32,2351287460
35,18,19,Jits_Linear_5,0,5,56,103,2351889756
35,18,19,Jits_Linear_5,1,5,63,98,2351960416
35,18,19,Jits_Linear_5,2,5,80,127,2351979828
35,18,19,Jits_Linear_5,3,1,48,21,2352033436
35,18,19,Jits_Linear_5,0,5,56,103,2352699736
35,18,19,Jits_Linear_5,1,5,63,98,2352729484
35,18,19,Jits_Linear_5,2,1,48,27,2352738680
35,18,19,Jits_Linear_5,3,5,80,127,2352770612
35,18,19,Jits_Linear_5,0,1,48,28,2353450408
35,18,19,Jits_Linear_5,1,5,63,98,2353499656
35,18,19,Jits_Linear_5,2,5,56,103,2353549772
35,18,19,Jits_Linear_5,3,5,80,127,2353559892
35,18,19,Jits_Linear_5,0,1,48,43,2354259760
35,18,19,Jits_Linear_5,1,5,56,103,2354349620
35,18,19,Jits_Linear_5,2,5,63,98,2354399588
35,18,19,Jits_Linear_5,3,5,80,127,2354409784
35,18,19,Jits_Linear_5,0,1,48,42,2354985056
35,18,19,Jits_Linear_5,1,5,56,103,2355129680
35,18,19,Jits_Linear_5,2,5,63,98,2355139952
35,18,19,Jits_Linear_5,3,5,80,127,2355219772
35,18,19,Jits_Linear_5,0,9999,9999,9999,2246347860
35,18,19,Jits_Linear_5,1,9999,9999,9999,2246827124
35,18,19,Jits_Linear_5,2,9999,9999,9999,2247307384
35,18,19,Jits_Linear_5,3,9999,9999,9999,2247787636
35,18,19,Jits_Linear_5,4,9999,9999,9999,2248267860
35,18,19,Jits_Linear_5,5,9999,9999,9999,2248757368
35,18,19,Jits_Linear_5,6,9999,9999,9999,2249247836
35,18,19,Jits_Linear_5,7,9999,9999,9999,2249737276
35,18,19,Jits_Linear_5,8,9999,9999,9999,2250227808
35,18,19,Jits_Linear_5,9,9999,9999,9999,2250717248
35,18,19,Jits_Linear_5,10,9999,9999,9999,2251218000
35,18,19,Jits_Linear_5,11,9999,9999,9999,2251717708
35,18,19,Jits_Linear_5,12,9999,9999,9999,2252217464
35,18,19,Jits_Linear_5,13,9999,9999,9999,2252717152
35,18,19,Jits_Linear_5,14,9999,9999,9999,2253217872
35,18,19,Jits_Linear_5,15,9999,9999,9999,2253727824
35,18,19,Jits_Linear_5,16,9999,9999,9999,2254237772
35,18,19,Jits_Linear_5,17,9999,9999,9999,2254747724
35,18,19,Jits_Linear_5,18,9999,9999,9999,2255257676
35,18,19,Jits_Linear_5,19,9999,9999,9999,2255767632
35,18,19,Jits_Linear_5,20,9999,9999,9999,2256287844
35,18,19,Jits_Linear_5,21,9999,9999,9999,2256808060
35,18,19,Jits_Linear_5,22,9999,9999,9999,2257327228
35,18,19,Jits_Linear_5,23,9999,9999,9999,2257847364
35,18,19,Jits_Linear_5,24,9999,9999,9999,2258367584
35,18,19,Jits_Linear_5,25,9999,9999,9999,2258897980
35,18,19,Jits_Linear_5,26,9999,9999,9999,2259427416
35,18,19,Jits_Linear_5,27,9999,9999,9999,2259957872
35,18,19,Jits_Linear_5,28,9999,9999,9999,2260487228
35,18,19,Jits_Linear_5,29,9999,9999,9999,2261017704
35,18,19,Jits_Linear_5,30,9999,9999,9999,2261557328
35,18,19,Jits_Linear_5,31,9999,9999,9999,2262098000
35,18,19,Jits_Linear_5,32,9999,9999,9999,2262637688
35,18,19,Jits_Linear_5,33,9999,9999,9999,2263177312
35,18,19,Jits_Linear_5,34,9999,9999,9999,2263717980
35,18,19,Jits_Linear_5,35,9999,9999,9999,2264267868
35,18,19,Jits_Linear_5,36,9999,9999,9999,2264817744
35,18,19,Jits_Linear_5,37,9999,9999,9999,2265367656
35,18,19,Jits_Linear_5,38,9999,9999,9999,2265917540
35,18,19,Jits_Linear_5,39,9999,9999,9999,2266467428
35,18,19,Jits_Linear_5,40,9999,9999,9999,2267027576
35,18,19,Jits_Linear_5,41,9999,9999,9999,2267587644
35,18,19,Jits_Linear_5,42,9999,9999,9999,2268147784
35,18,19,Jits_Linear_5,43,9999,9999,9999,2268707944
35,18,19,Jits_Linear_5,44,9999,9999,9999,2269268076
35,18,19,Jits_Linear_5,45,9999,9999,9999,2269837376
35,18,19,Jits_Linear_5,46,9999,9999,9999,2270407804
35,18,19,Jits_Linear_5,47,9999,9999,9999,2270977128
35,18,19,Jits_Linear_5,48,9999,9999,9999,2271547464
35,18,19,Jits_Linear_5,49,9999,9999,9999,2272117884
35,18,19,Jits_Linear_5,50,9999,9999,9999,2272697428
35,18,19,Jits_Linear_5,51,9999,9999,9999,2273278052
35,18,19,Jits_Linear_5,52,9999,9999,9999,2273857660
35,18,19,Jits_Linear_5,53,9999,9999,9999,2274437232
35,18,19,Jits_Linear_5,54,9999,9999,9999,2275017836
35,18,19,Jits_Linear_5,55,9999,9999,9999,2275607620
35,18,19,Jits_Linear_5,56,9999,9999,9999,2276197456
35,18,19,Jits_Linear_5,57,9999,9999,9999,2276787268
35,18,19,Jits_Linear_5,58,9999,9999,9999,2277377112
35,18,19,Jits_Linear_5,59,9999,9999,9999,2277967964
35,18,19,Jits_Linear_5,60,9999,9999,9999,2278568048
35,18,19,Jits_Linear_5,61,9999,9999,9999,2279168080
35,18,19,Jits_Linear_5,62,9999,9999,9999,2279777376
35,18,19,Jits_Linear_5,63,9999,9999,9999,2280377428
35,18,19,Jits_Linear_5,64,9999,9999,9999,2280977532
35,18,19,Jits_Linear_5,65,9999,9999,9999,2281587800
35,18,19,Jits_Linear_5,66,9999,9999,9999,2282198092
35,18,19,Jits_Linear_5,67,9999,9999,9999,2282817604
35,18,19,Jits_Linear_5,68,9999,9999,9999,2283427968
35,18,19,Jits_Linear_5,69,9999,9999,9999,2284037220
35,18,19,Jits_Linear_5,70,9999,9999,9999,2284657740
35,18,19,Jits_Linear_5,71,9999,9999,9999,2285277304
35,18,19,Jits_Linear_5,72,9999,9999,9999,2285897784
35,18,19,Jits_Linear_5,73,9999,9999,9999,2286517352
35,18,19,Jits_Linear_5,74,9999,9999,9999,2287137908
35,18,19,Jits_Linear_5,75,9999,9999,9999,2287767656
35,18,19,Jits_Linear_5,76,9999,9999,9999,2288397364
35,18,19,Jits_Linear_5,77,9999,9999,9999,2289027196
35,18,19,Jits_Linear_5,78,9999,9999,9999,2289657920
35,18,19,Jits_Linear_5,79,9999,9999,9999,2290287692
35,18,19,Jits_Linear_5,80,9999,9999,9999,2290927708
35,18,19,Jits_Linear_5,81,9999,9999,9999,2291567676
35,18,19,Jits_Linear_5,82,9999,9999,9999,2292207688
35,18,19,Jits_Linear_5,83,9999,9999,9999,2292847728
35,18,19,Jits_Linear_5,84,9999,9999,9999,2293487676
35,18,19,Jits_Linear_5,85,9999,9999,9999,2294137976
35,18,19,Jits_Linear_5,86,9999,9999,9999,2294787160
35,18,19,Jits_Linear_5,87,9999,9999,9999,2295437436
35,18,19,Jits_Linear_5,88,9999,9999,9999,2296087664
35,18,19,Jits_Linear_5,89,9999,9999,9999,2296737868
35,18,19,Jits_Linear_5,90,9999,9999,9999,2297397328
35,18,19,Jits_Linear_5,91,9999,9999,9999,2298057808
35,18,19,Jits_Linear_5,92,9999,9999,9999,2298717312
35,18,19,Jits_Linear_5,93,9999,9999,9999,2299377780
35,18,19,Jits_Linear_5,94,9999,9999,9999,2300037216
35,18,19,Jits_Linear_5,95,9999,9999,9999,2300707896
35,18,19,Jits_Linear_5,96,9999,9999,9999,2301377660
35,18,19,Jits_Linear_5,97,9999,9999,9999,2302047292
35,18,19,Jits_Linear_5,98,9999,9999,9999,2302718044
35,18,19,Jits_Linear_5,99,9999,9999,9999,2303387724
35,18,19,Jits_Linear_5,100,9999,9999,9999,2304067700
35,18,19,Jits_Linear_5,101,9999,9999,9999,2304747572
35,18,19,Jits_Linear_5,102,9999,9999,9999,2305427532
35,18,19,Jits_Linear_5,103,9999,9999,9999,2306107508
35,18,19,Jits_Linear_5,104,9999,9999,9999,2306787452
35,18,19,Jits_Linear_5,105,9999,9999,9999,2307477608
35,18,19,Jits_Linear_5,106,9999,9999,9999,2308167768
35,18,19,Jits_Linear_5,107,9999,9999,9999,2308857976
35,18,19,Jits_Linear_5,108,9999,9999,9999,2309547100
35,18,19,Jits_Linear_5,109,9999,9999,9999,2310237260
35,18,19,Jits_Linear_5,110,9999,9999,9999,2310937684
35,18,19,Jits_Linear_5,111,9999,9999,9999,2311638080
35,18,19,Jits_Linear_5,112,9999,9999,9999,2312347716
35,18,19,Jits_Linear_5,113,9999,9999,9999,2313047100
35,18,19,Jits_Linear_5,114,9999,9999,9999,2313747520
35,18,19,Jits_Linear_5,115,9999,9999,9999,2314457204
35,18,19,Jits_Linear_5,116,9999,9999,9999,2315167816
35,18,19,Jits_Linear_5,117,9999,9999,9999,2315877456
35,18,19,Jits_Linear_5,118,9999,9999,9999,2316587100
35,18,19,Jits_Linear_5,119,9999,9999,9999,2317297756
35,18,19,Jits_Linear_5,120,9999,9999,9999,2318017652
35,18,19,Jits_Linear_5,121,9999,9999,9999,2318737488
35,18,19,Jits_Linear_5,122,9999,9999,9999,2319457396
35,18,19,Jits_Linear_5,123,9999,9999,9999,2320177220
35,18,19,Jits_Linear_5,124,9999,9999,9999,2320897124
35,18,19,Jits_Linear_5,125,9999,9999,9999,2321627256
35,18,19,Jits_Linear_5,126,9999,9999,9999,2322357336
35,18,19,Jits_Linear_5,127,9999,9999,9999,2323087472
35,18,19,Jits_Linear_5,128,9999,9999,9999,2323817552
35,18,19,Jits_Linear_5,129,9999,9999,9999,2324547648
35,18,19,Jits_Linear_5,130,9999,9999,9999,2325288000
35,18,19,Jits_Linear_5,131,9999,9999,9999,2326027388
35,18,19,Jits_Linear_5,132,9999,9999,9999,2326767712
35,18,19,Jits_Linear_5,133,9999,9999,9999,2327508064
35,18,19,Jits_Linear_5,134,9999,9999,9999,2328247372
35,18,19,Jits_Linear_5,135,9999,9999,9999,2328997988
35,18,19,Jits_Linear_5,136,9999,9999,9999,2329747564
35,18,19,Jits_Linear_5,137,9999,9999,9999,2330497136
35,18,19,Jits_Linear_5,138,9999,9999,9999,2331247680
35,18,19,Jits_Linear_5,139,9999,9999,9999,2331997276
35,18,19,Jits_Linear_5,140,9999,9999,9999,2332758088
35,18,19,Jits_Linear_5,141,9999,9999,9999,2333527148
35,18,19,Jits_Linear_5,142,9999,9999,9999,2334287956
35,18,19,Jits_Linear_5,143,9999,9999,9999,2335047796
35,18,19,Jits_Linear_5,144,9999,9999,9999,2335807552
35,18,19,Jits_Linear_5,145,9999,9999,9999,2336577656
35,18,19,Jits_Linear_5,146,9999,9999,9999,2337347684
35,18,19,Jits_Linear_5,147,9999,9999,9999,2338117712
35,18,19,Jits_Linear_5,148,9999,9999,9999,2338887736
35,18,19,Jits_Linear_5,149,9999,9999,9999,2339657836
35,18,19,Jits_Linear_5,150,9999,9999,9999,2340438092
35,18,19,Jits_Linear_5,151,9999,9999,9999,2341227628
35,18,19,Jits_Linear_5,152,9999,9999,9999,2342007932
35,18,19,Jits_Linear_5,153,9999,9999,9999,2342787180
35,18,19,Jits_Linear_5,154,9999,9999,9999,2343567444
35,18,19,Jits_Linear_5,155,9999,9999,9999,2344357996
35,18,19,Jits_Linear_5,156,9999,9999,9999,2345147492
35,18,19,Jits_Linear_5,157,9999,9999,9999,2345938040
35,18,19,Jits_Linear_5,158,9999,9999,9999,2346727548
35,18,19,Jits_Linear_5,159,9999,9999,9999,2347518056
35,18,19,Jits_Linear_5,160,9999,9999,9999,2348317752
35,18,19,Jits_Linear_5,161,9999,9999,9999,2349117520
35,18,19,Jits_Linear_5,162,9999,9999,9999,2349917284
35,18,19,Jits_Linear_5,163,9999,9999,9999,2350718040
35,18,19,Jits_Linear_5,164,9999,9999,9999,2351517808
35,18,19,Jits_Linear_5,165,9999,9999,9999,2352327772
35,18,19,Jits_Linear_5,166,9999,9999,9999,2353137752
35,18,19,Jits_Linear_5,167,9999,9999,9999,2353947744
35,18,19,Jits_Linear_5,168,9999,9999,9999,2354757708
35,18,19,Jits_Linear_5,169,9999,9999,9999,2355567740
35,19,18,Jits_Linear_8,0,5,56,103,2366976356
35,19,18,Jits_Linear_8,1,5,63,98,2366979380
35,19,18,Jits_Linear_8,2,5,80,127,2366982500
35,19,18,Jits_Linear_8,0,5,56,103,2367795544
35,19,18,Jits_Linear_8,1,5,63,98,2367798640
35,19,18,Jits_Linear_8,2,5,80,127,2367802060
35,19,18,Jits_Linear_8,0,5,80,127,2368556456
35,19,18,Jits_Linear_8,1,1,48,52,2368587824
35,19,18,Jits_Linear_8,2,5,63,98,2368645612
35,19,18,Jits_Linear_8,3,5,56,103,2368655588
35,19,18,Jits_Linear_8,0,5,56,103,2369406272
35,19,18,Jits_Linear_8,1,5,63,98,2369415496
35,19,18,Jits_Linear_8,2,1,48,48,2369444024
35,19,18,Jits_Linear_8,3,5,80,127,2369496332
35,19,18,Jits_Linear_8,0,5,63,98,2370196072
35,19,18,Jits_Linear_8,1,1,48,44,2370225000
35,19,18,Jits_Linear_8,2,5,80,127,2370226788
35,19,18,Jits_Linear_8,3,5,56,103,2370256240
35,19,18,Jits_Linear_8,0,1,48,48,2370997364
35,19,18,Jits_Linear_8,1,5,56,103,2371015972
35,19,18,Jits_Linear_8,2,5,80,127,2371116380
35,19,18,Jits_Linear_8,3,5,63,98,2371165536
35,19,18,Jits_Linear_8,0,1,48,59,2371803572
35,19,18,Jits_Linear_8,1,5,56,103,2371825992
35,19,18,Jits_Linear_8,2,5,80,127,2371876220
35,19,18,Jits_Linear_8,3,5,63,98,2371916144
35,19,18,Jits_Linear_8,0,1,48,55,2372601232
35,19,18,Jits_Linear_8,1,5,80,127,2372666000
35,19,18,Jits_Linear_8,2,5,63,98,2372696648
35,19,18,Jits_Linear_8,3,5,56,103,2372766016
35,19,18,Jits_Linear_8,0,1,48,55,2373419048
35,19,18,Jits_Linear_8,1,5,63,98,2373506436
35,19,18,Jits_Linear_8,2,5,56,103,2373536172
35,19,18,Jits_Linear_8,3,5,80,127,2373595440
35,19,18,Jits_Linear_8,0,1,48,47,2374239180
35,19,18,Jits_Linear_8,1,5,56,103,2374255920
35,19,18,Jits_Linear_8,2,5,80,127,2374258984
35,19,18,Jits_Linear_8,3,5,63,98,2374375852
35,19,18,Jits_Linear_8,0,1,48,54,2375022888
35,19,18,Jits_Linear_8,1,5,56,103,2375135744
35,19,18,Jits_Linear_8,2,5,80,127,2375175632
35,19,18,Jits_Linear_8,3,5,63,98,2375186128
35,19,18,Jits_Linear_8,0,1,48,49,2375853068
35,19,18,Jits_Linear_8,1,5,56,103,2375896332
35,19,18,Jits_Linear_8,2,5,80,127,2375916044
35,19,18,Jits_Linear_8,3,5,63,98,2375995924
35,19,18,Jits_Linear_8,0,1,48,43,2376674344
35,19,18,Jits_Linear_8,1,5,80,127,2376685900
35,19,18,Jits_Linear_8,2,5,56,103,2376786236
35,19,18,Jits_Linear_8,3,5,63,98,2376795760
35,19,18,Jits_Linear_8,0,5,63,98,2377455996
35,19,18,Jits_Linear_8,1,1,48,45,2377502964
35,19,18,Jits_Linear_8,2,5,80,127,2377516484
35,19,18,Jits_Linear_8,3,5,56,103,2377525556
35,19,18,Jits_Linear_8,0,1,48,51,2378221168
35,19,18,Jits_Linear_8,1,5,56,103,2378255840
35,19,18,Jits_Linear_8,2,5,63,98,2378326404
35,19,18,Jits_Linear_8,3,5,80,127,2378329844
35,19,18,Jits_Linear_8,0,1,48,40,2378972580
35,19,18,Jits_Linear_8,1,5,63,98,2379086060
35,19,18,Jits_Linear_8,2,5,56,103,2379136340
35,19,18,Jits_Linear_8,3,5,80,127,2379139256
35,19,18,Jits_Linear_8,0,1,48,44,2379799400
35,19,18,Jits_Linear_8,1,5,56,103,2379835696
35,19,18,Jits_Linear_8,2,5,80,127,2379838688
35,19,18,Jits_Linear_8,3,5,63,98,2379925888
35,19,18,Jits_Linear_8,0,1,48,40,2380633988
35,19,18,Jits_Linear_8,1,5,63,98,2380666304
35,19,18,Jits_Linear_8,2,5,56,103,2380756276
35,19,18,Jits_Linear_8,3,5,80,127,2380786024
35,19,18,Jits_Linear_8,0,5,56,103,2381445692
35,19,18,Jits_Linear_8,1,1,48,36,2381458480
35,19,18,Jits_Linear_8,2,5,63,98,2381545788
35,19,18,Jits_Linear_8,3,5,80,127,2381575620
35,19,18,Jits_Linear_8,0,5,63,98,2382255580
35,19,18,Jits_Linear_8,1,5,56,103,2382265700
35,19,18,Jits_Linear_8,2,1,48,51,2382275944
35,19,18,Jits_Linear_8,3,5,80,127,2382355776
35,19,18,Jits_Linear_8,0,1,48,38,2383055104
35,19,18,Jits_Linear_8,1,5,63,98,2383056824
35,19,18,Jits_Linear_8,2,5,56,103,2383136124
35,19,18,Jits_Linear_8,3,5,80,127,2383139188
35,19,18,Jits_Linear_8,0,1,48,53,2383745592
35,19,18,Jits_Linear_8,1,5,80,127,2383795516
35,19,18,Jits_Linear_8,2,5,63,98,2383815904
35,19,18,Jits_Linear_8,3,5,56,103,2383875552
35,19,18,Jits_Linear_8,0,1,48,40,2384552532
35,19,18,Jits_Linear_8,1,5,56,103,2384615728
35,19,18,Jits_Linear_8,2,5,63,98,2384636212
35,19,18,Jits_Linear_8,3,5,80,127,2384639500
35,19,18,Jits_Linear_8,0,1,48,40,2385275716
35,19,18,Jits_Linear_8,1,5,63,98,2385335608
35,19,18,Jits_Linear_8,2,5,80,127,2385415640
35,19,18,Jits_Linear_8,3,5,56,103,2385425836
35,19,18,Jits_Linear_8,0,1,48,46,2386125748
35,19,18,Jits_Linear_8,1,5,63,98,2386136484
35,19,18,Jits_Linear_8,2,5,56,103,2386155900
35,19,18,Jits_Linear_8,3,5,80,127,2386206124
35,19,18,Jits_Linear_8,0,1,48,53,2386884296
35,19,18,Jits_Linear_8,1,5,80,127,2386915636
35,19,18,Jits_Linear_8,2,5,63,98,2386955528
35,19,18,Jits_Linear_8,3,5,56,103,2386976212
35,19,18,Jits_Linear_8,0,1,48,55,2387611664
35,19,18,Jits_Linear_8,1,5,56,103,2387725664
35,19,18,Jits_Linear_8,2,5,63,98,2387735864
35,19,18,Jits_Linear_8,3,5,80,127,2387756396
35,19,18,Jits_Linear_8,0,5,56,103,2388426216
35,19,18,Jits_Linear_8,1,1,48,51,2388511248
35,19,18,Jits_Linear_8,2,5,63,98,2388516376
35,19,18,Jits_Linear_8,3,5,80,127,2388575496
35,19,18,Jits_Linear_8,0,1,48,49,2389127132
35,19,18,Jits_Linear_8,1,5,80,127,2389226416
35,19,18,Jits_Linear_8,2,5,56,103,2389236392
35,19,18,Jits_Linear_8,3,5,63,98,2389305800
35,19,18,Jits_Linear_8,0,1,48,52,2389993564
35,19,18,Jits_Linear_8,1,5,63,98,2390025544
35,19,18,Jits_Linear_8,2,5,80,127,2390115740
35,19,18,Jits_Linear_8,3,5,56,103,2390126008
35,19,18,Jits_Linear_8,0,5,63,98,2390726240
35,19,18,Jits_Linear_8,1,1,48,51,2390766748
35,19,18,Jits_Linear_8,2,5,80,127,2390776532
35,19,18,Jits_Linear_8,3,5,56,103,2390835508
35,19,18,Jits_Linear_8,0,1,48,54,2391463240
35,19,18,Jits_Linear_8,1,5,56,103,2391515572
35,19,18,Jits_Linear_8,2,5,80,127,2391565640
35,19,18,Jits_Linear_8,3,5,63,98,2391586100
35,19,18,Jits_Linear_8,0,1,48,52,2392208980
35,19,18,Jits_Linear_8,1,5,56,103,2392245576
35,19,18,Jits_Linear_8,2,5,80,127,2392306252
35,19,18,Jits_Linear_8,3,5,63,98,2392375584
35,19,18,Jits_Linear_8,0,5,56,103,2393015592
35,19,18,Jits_Linear_8,1,1,48,44,2393038336
35,19,18,Jits_Linear_8,2,5,80,127,2393046532
35,19,18,Jits_Linear_8,3,5,63,98,2393076204
35,19,18,Jits_Linear_8,0,1,48,50,2393715376
35,19,18,Jits_Linear_8,1,5,56,103,2393816528
35,19,18,Jits_Linear_8,2,5,80,127,2393835868
35,19,18,Jits_Linear_8,3,5,63,98,2393896432
35,19,18,Jits_Linear_8,0,1,48,56,2394510028
35,19,18,Jits_Linear_8,1,5,80,127,2394656172
35,19,18,Jits_Linear_8,2,5,56,103,2394666292
35,19,18,Jits_Linear_8,3,5,63,98,2394675516
35,19,18,Jits_Linear_8,0,1,48,46,2395256752
35,19,18,Jits_Linear_8,1,5,56,103,2395365708
35,19,18,Jits_Linear_8,2,5,80,127,2395405672
35,19,18,Jits_Linear_8,3,5,63,98,2395436468
35,19,18,Jits_Linear_8,0,1,48,49,2395999280
35,19,18,Jits_Linear_8,1,5,56,103,2396085620
35,19,18,Jits_Linear_8,2,5,63,98,2396116256
35,19,18,Jits_Linear_8,3,5,80,127,2396156292
35,19,18,Jits_Linear_8,0,1,48,57,2396748536
35,19,18,Jits_Linear_8,1,5,80,127,2396796220
35,19,18,Jits_Linear_8,2,5,63,98,2396845360
35,19,18,Jits_Linear_8,3,5,56,103,2396866044
35,19,18,Jits_Linear_8,0,1,48,52,2397496224
35,19,18,Jits_Linear_8,1,5,56,103,2397575520
35,19,18,Jits_Linear_8,2,5,80,127,2397646308
35,19,18,Jits_Linear_8,3,5,63,98,2397705456
35,19,18,Jits_Linear_8,0,5,80,127,2398316172
35,19,18,Jits_Linear_8,1,1,48,51,2398370460
35,19,18,Jits_Linear_8,2,5,63,98,2398406152
35,19,18,Jits_Linear_8,3,5,56,103,2398425340
35,19,18,Jits_Linear_8,0,5,63,98,2399075864
35,19,18,Jits_Linear_8,1,5,56,103,2399096104
35,19,18,Jits_Linear_8,2,1,48,48,2399124924
35,19,18,Jits_Linear_8,3,5,80,127,2399136032
35,19,18,Jits_Linear_8,0,5,80,127,2399776044
35,19,18,Jits_Linear_8,1,5,63,98,2399795680
35,19,18,Jits_Linear_8,2,1,48,46,2399810404
35,19,18,Jits_Linear_8,3,5,56,103,2399875540
35,19,18,Jits_Linear_8,0,5,63,98,2400515352
35,19,18,Jits_Linear_8,1,1,48,37,2400535256
35,19,18,Jits_Linear_8,2,5,56,103,2400626008
35,19,18,Jits_Linear_8,3,5,80,127,2400629224
35,19,18,Jits_Linear_8,0,1,48,39,2401260188
35,19,18,Jits_Linear_8,1,5,63,98,2401276132
35,19,18,Jits_Linear_8,2,5,56,103,2401285428
35,19,18,Jits_Linear_8,3,5,80,127,2401288416
35,19,18,Jits_Linear_8,0,1,48,39,2401962004
35,19,18,Jits_Linear_8,1,5,56,103,2401996200
35,19,18,Jits_Linear_8,2,5,80,127,2402116092
35,19,18,Jits_Linear_8,3,5,63,98,2402156028
35,19,18,Jits_Linear_8,0,5,56,103,2402746064
35,19,18,Jits_Linear_8,1,1,48,47,2402772628
35,19,18,Jits_Linear_8,2,5,80,127,2402825512
35,19,18,Jits_Linear_8,3,5,63,98,2402846044
35,19,18,Jits_Linear_8,0,1,48,44,2403447804
35,19,18,Jits_Linear_8,1,5,56,103,2403475932
35,19,18,Jits_Linear_8,2,5,63,98,2403586604
35,19,18,Jits_Linear_8,3,5,80,127,2403590040
35,19,18,Jits_Linear_8,0,1,48,50,2404199080
35,19,18,Jits_Linear_8,1,5,56,103,2404235748
35,19,18,Jits_Linear_8,2,5,80,127,2404266400
35,19,18,Jits_Linear_8,3,5,63,98,2404285960
35,19,18,Jits_Linear_8,0,1,48,55,2404929232
35,19,18,Jits_Linear_8,1,5,63,98,2404946272
35,19,18,Jits_Linear_8,2,5,56,103,2404955496
35,19,18,Jits_Linear_8,3,5,80,127,2404965992
35,19,18,Jits_Linear_8,0,1,48,51,2405613892
35,19,18,Jits_Linear_8,1,5,80,127,2405656040
35,19,18,Jits_Linear_8,2,5,56,103,2405706168
35,19,18,Jits_Linear_8,3,5,63,98,2405746092
35,19,18,Jits_Linear_8,0,1,48,47,2406329948
35,19,18,Jits_Linear_8,1,5,80,127,2406396308
35,19,18,Jits_Linear_8,2,5,63,98,2406415724
35,19,18,Jits_Linear_8,3,5,56,103,2406465836
35,19,18,Jits_Linear_8,0,1,48,49,2407058460
35,19,18,Jits_Linear_8,1,5,80,127,2407126368
35,19,18,Jits_Linear_8,2,5,56,103,2407156104
35,19,18,Jits_Linear_8,3,5,63,98,2407225636
35,19,18,Jits_Linear_8,0,1,48,49,2407749252
35,19,18,Jits_Linear_8,1,5,56,103,2407896716
35,19,18,Jits_Linear_8,2,5,80,127,2407905640
35,19,18,Jits_Linear_8,3,5,63,98,2407945680
35,19,18,Jits_Linear_8,0,1,48,51,2408482180
35,19,18,Jits_Linear_8,1,5,56,103,2408526196
35,19,18,Jits_Linear_8,2,5,63,98,2408545612
35,19,18,Jits_Linear_8,3,5,80,127,2408616248
35,19,18,Jits_Linear_8,0,1,48,50,2409157096
35,19,18,Jits_Linear_8,1,5,63,98,2409265624
35,19,18,Jits_Linear_8,2,5,80,127,2409326016
35,19,18,Jits_Linear_8,3,5,56,103,2409346548
35,19,18,Jits_Linear_8,0,1,48,50,2409894672
35,19,18,Jits_Linear_8,1,5,80,127,2409965876
35,19,18,Jits_Linear_8,2,5,56,103,2409995860
35,19,18,Jits_Linear_8,3,5,63,98,2410026284
35,19,18,Jits_Linear_8,0,1,48,53,2410606392
35,19,18,Jits_Linear_8,1,5,56,103,2410675576
35,19,18,Jits_Linear_8,2,5,63,98,2410735952
35,19,18,Jits_Linear_8,3,5,80,127,2410796668
35,19,18,Jits_Linear_8,0,1,48,48,2411352356
35,19,18,Jits_Linear_8,1,5,80,127,2411405584
35,19,18,Jits_Linear_8,2,5,56,103,2411426196
35,19,18,Jits_Linear_8,3,5,63,98,2411495788
35,19,18,Jits_Linear_8,0,1,48,49,2412106800
35,19,18,Jits_Linear_8,1,5,80,127,2412116264
35,19,18,Jits_Linear_8,2,5,63,98,2412135828
35,19,18,Jits_Linear_8,3,5,56,103,2412165724
35,19,18,Jits_Linear_8,0,1,48,43,2412802628
35,19,18,Jits_Linear_8,1,5,80,127,2412805736
35,19,18,Jits_Linear_8,2,5,63,98,2412825900
35,19,18,Jits_Linear_8,3,5,56,103,2412886660
35,19,18,Jits_Linear_8,0,1,48,52,2413486320
35,19,18,Jits_Linear_8,1,5,80,127,2413505824
35,19,18,Jits_Linear_8,2,5,56,103,2413606528
35,19,18,Jits_Linear_8,3,5,63,98,2413635908
35,19,18,Jits_Linear_8,0,1,48,53,2414172188
35,19,18,Jits_Linear_8,1,5,63,98,2414196124
35,19,18,Jits_Linear_8,2,5,80,127,2414246548
35,19,18,Jits_Linear_8,3,5,56,103,2414265664
35,19,18,Jits_Linear_8,0,1,48,55,2414817884
35,19,18,Jits_Linear_8,1,5,80,127,2414936376
35,19,18,Jits_Linear_8,2,5,56,103,2414966052
35,19,18,Jits_Linear_8,3,5,63,98,2414969268
35,19,18,Jits_Linear_8,0,1,48,45,2415574560
35,19,18,Jits_Linear_8,1,5,63,98,2415665568
35,19,18,Jits_Linear_8,2,5,56,103,2415705564
35,19,18,Jits_Linear_8,3,5,80,127,2415725800
35,19,18,Jits_Linear_8,0,1,48,47,2416297156
35,19,18,Jits_Linear_8,1,5,80,127,2416305496
35,19,18,Jits_Linear_8,2,5,63,98,2416386592
35,19,18,Jits_Linear_8,3,5,56,103,2416426588
35,19,18,Jits_Linear_8,0,1,48,55,2416936952
35,19,18,Jits_Linear_8,1,5,63,98,2417016104
35,19,18,Jits_Linear_8,2,5,80,127,2417096484
35,19,18,Jits_Linear_8,3,5,56,103,2417115372
35,19,18,Jits_Linear_8,0,1,48,47,2417663584
35,19,18,Jits_Linear_8,1,5,56,103,2417746412
35,19,18,Jits_Linear_8,2,5,63,98,2417755564
35,19,18,Jits_Linear_8,3,5,80,127,2417795560
35,19,18,Jits_Linear_8,0,5,56,103,2418355476
35,19,18,Jits_Linear_8,1,5,80,127,2418358548
35,19,18,Jits_Linear_8,2,1,48,54,2418394644
35,19,18,Jits_Linear_8,3,5,63,98,2418495740
35,19,18,Jits_Linear_8,0,5,56,103,2419035448
35,19,18,Jits_Linear_8,1,1,48,49,2419066588
35,19,18,Jits_Linear_8,2,5,63,98,2419125504
35,19,18,Jits_Linear_8,3,5,80,127,2419196460
35,19,18,Jits_Linear_8,0,1,48,45,2419795268
35,19,18,Jits_Linear_8,1,5,63,98,2419797092
35,19,18,Jits_Linear_8,2,5,80,127,2419800296
35,19,18,Jits_Linear_8,3,5,56,103,2419855748
35,19,18,Jits_Linear_8,0,1,48,46,2420464108
35,19,18,Jits_Linear_8,1,5,80,127,2420516444
35,19,18,Jits_Linear_8,2,5,56,103,2420535636
35,19,18,Jits_Linear_8,3,5,63,98,2420545908
35,19,18,Jits_Linear_8,0,5,56,103,2421106260
35,19,18,Jits_Linear_8,1,5,63,98,2421116456
35,19,18,Jits_Linear_8,2,5,80,127,2421185764
35,19,18,Jits_Linear_8,3,1,48,50,2421202140
35,19,18,Jits_Linear_8,0,1,48,52,2421758772
35,19,18,Jits_Linear_8,1,5,80,127,2421785928
35,19,18,Jits_Linear_8,2,5,56,103,2421836280
35,19,18,Jits_Linear_8,3,5,63,98,2421886464
35,19,18,Jits_Linear_8,0,1,48,47,2422416912
35,19,18,Jits_Linear_8,1,5,56,103,2422545744
35,19,18,Jits_Linear_8,2,5,63,98,2422556164
35,19,18,Jits_Linear_8,3,5,80,127,2422595880
35,19,18,Jits_Linear_8,0,5,56,103,2423166288
35,19,18,Jits_Linear_8,1,1,48,39,2423191204
35,19,18,Jits_Linear_8,2,5,63,98,2423206224
35,19,18,Jits_Linear_8,3,5,80,127,2423256424
35,19,18,Jits_Linear_8,0,5,80,127,2423796144
35,19,18,Jits_Linear_8,1,5,56,103,2423846200
35,19,18,Jits_Linear_8,2,5,63,98,2423865612
35,19,18,Jits_Linear_8,3,1,48,52,2423878616
35,19,18,Jits_Linear_8,0,1,48,44,2424458900
35,19,18,Jits_Linear_8,1,5,80,127,2424476236
35,19,18,Jits_Linear_8,2,5,63,98,2424536404
35,19,18,Jits_Linear_8,3,5,56,103,2424616284
35,19,18,Jits_Linear_8,0,1,48,49,2425108816
35,19,18,Jits_Linear_8,1,5,80,127,2425126228
35,19,18,Jits_Linear_8,2,5,56,103,2425166168
35,19,18,Jits_Linear_8,3,5,63,98,2425185580
35,19,18,Jits_Linear_8,0,1,48,36,2425801472
35,19,18,Jits_Linear_8,1,5,56,103,2425846264
35,19,18,Jits_Linear_8,2,5,80,127,2425856312
35,19,18,Jits_Linear_8,3,5,63,98,2425896828
35,19,18,Jits_Linear_8,0,1,48,40,2426469900
35,19,18,Jits_Linear_8,1,5,56,103,2426576308
35,19,18,Jits_Linear_8,2,5,63,98,2426616124
35,19,18,Jits_Linear_8,3,5,80,127,2426619560
35,19,18,Jits_Linear_8,0,1,48,39,2427104516
35,19,18,Jits_Linear_8,1,5,63,98,2427126136
35,19,18,Jits_Linear_8,2,5,80,127,2427166224
35,19,18,Jits_Linear_8,3,5,56,103,2427235592
35,19,18,Jits_Linear_8,0,5,63,98,2427776332
35,19,18,Jits_Linear_8,1,1,48,37,2427805524
35,19,18,Jits_Linear_8,2,5,56,103,2427856120
35,19,18,Jits_Linear_8,3,5,80,127,2427915772
35,19,18,Jits_Linear_8,0,1,48,49,2428429508
35,19,18,Jits_Linear_8,1,5,80,127,2428445944
35,19,18,Jits_Linear_8,2,5,63,98,2428496300
35,19,18,Jits_Linear_8,3,5,56,103,2428526032
35,19,18,Jits_Linear_8,0,1,48,46,2429052940
35,19,18,Jits_Linear_8,1,5,56,103,2429096356
35,19,18,Jits_Linear_8,2,5,63,98,2429145512
35,19,18,Jits_Linear_8,3,5,80,127,2429155844
35,19,18,Jits_Linear_8,0,1,48,54,2429709072
35,19,18,Jits_Linear_8,1,5,56,103,2429765972
35,19,18,Jits_Linear_8,2,5,63,98,2429875500
35,19,18,Jits_Linear_8,3,5,80,127,2429896108
35,19,18,Jits_Linear_8,0,1,48,48,2430374416
35,19,18,Jits_Linear_8,1,5,63,98,2430416168
35,19,18,Jits_Linear_8,2,5,80,127,2430466604
35,19,18,Jits_Linear_8,3,5,56,103,2430555988
35,19,18,Jits_Linear_8,0,1,48,53,2430979968
35,19,18,Jits_Linear_8,1,5,63,98,2431056196
35,19,18,Jits_Linear_8,2,5,80,127,2431086080
35,19,18,Jits_Linear_8,3,5,56,103,2431176140
35,19,18,Jits_Linear_8,0,1,48,38,2431622508
35,19,18,Jits_Linear_8,1,5,63,98,2431705560
35,19,18,Jits_Linear_8,2,5,56,103,2431715760
35,19,18,Jits_Linear_8,3,5,80,127,2431816016
35,19,18,Jits_Linear_8,0,1,48,46,2432296112
35,19,18,Jits_Linear_8,1,5,63,98,2432456084
35,19,18,Jits_Linear_8,2,5,80,127,2432485980
35,19,18,Jits_Linear_8,3,5,56,103,2432515388
35,19,18,Jits_Linear_8,0,1,48,39,2432930564
35,19,18,Jits_Linear_8,1,5,80,127,2433115596
35,19,18,Jits_Linear_8,2,5,63,98,2433126164
35,19,18,Jits_Linear_8,3,5,56,103,2433155544
35,19,18,Jits_Linear_8,0,1,48,27,2433523096
35,19,18,Jits_Linear_8,1,5,80,127,2433656256
35,19,18,Jits_Linear_8,2,5,63,98,2433675816
35,19,18,Jits_Linear_8,3,5,56,103,2433725944
35,19,18,Jits_Linear_8,0,1,48,40,2434191340
35,19,18,Jits_Linear_8,1,5,63,98,2434326024
35,19,18,Jits_Linear_8,2,5,80,127,2434386268
35,19,18,Jits_Linear_8,3,5,56,103,2434405980
35,19,18,Jits_Linear_8,0,1,48,38,2434868164
35,19,18,Jits_Linear_8,1,5,63,98,2434926036
35,19,18,Jits_Linear_8,2,5,56,103,2434976224
35,19,18,Jits_Linear_8,3,5,80,127,2434986272
35,19,18,Jits_Linear_8,0,1,48,46,2435475652
35,19,18,Jits_Linear_8,1,5,56,103,2435595784
35,19,18,Jits_Linear_8,2,5,80,127,2435605832
35,19,18,Jits_Linear_8,3,5,63,98,2435706304
35,19,18,Jits_Linear_8,0,1,48,50,2436165128
35,19,18,Jits_Linear_8,1,5,80,127,2436195940
35,19,18,Jits_Linear_8,2,5,63,98,2436205988
35,19,18,Jits_Linear_8,3,5,56,103,2436355540
35,19,18,Jits_Linear_8,0,1,48,41,2436779416
35,19,18,Jits_Linear_8,1,5,63,98,2436835860
35,19,18,Jits_Linear_8,2,5,80,127,2436875960
35,19,18,Jits_Linear_8,3,5,56,103,2436955680
35,19,18,Jits_Linear_8,0,5,56,103,2437456116
35,19,18,Jits_Linear_8,1,1,48,54,2437457676
35,19,18,Jits_Linear_8,2,5,80,127,2437555820
35,19,18,Jits_Linear_8,3,5,63,98,2437576128
35,19,18,Jits_Linear_8,0,1,48,57,2438105992
35,19,18,Jits_Linear_8,1,5,80,127,2438146572
35,19,18,Jits_Linear_8,2,5,56,103,2438155796
35,19,18,Jits_Linear_8,3,5,63,98,2438245840
35,19,18,Jits_Linear_8,0,1,48,56,2438713116
35,19,18,Jits_Linear_8,1,5,56,103,2438776312
35,19,18,Jits_Linear_8,2,5,63,98,2438795800
35,19,18,Jits_Linear_8,3,5,80,127,2438875580
35,19,18,Jits_Linear_8,0,5,63,98,2439345896
35,19,18,Jits_Linear_8,1,1,48,50,2439390144
35,19,18,Jits_Linear_8,2,5,56,103,2439435828
35,19,18,Jits_Linear_8,3,5,80,127,2439438896
35,19,18,Jits_Linear_8,0,1,48,50,2439961904
35,19,18,Jits_Linear_8,1,5,56,103,2439995804
35,19,18,Jits_Linear_8,2,5,80,127,2440056120
35,19,18,Jits_Linear_8,3,5,63,98,2440066676
35,19,18,Jits_Linear_8,0,1,48,56,2440596076
35,19,18,Jits_Linear_8,1,5,80,127,2440665704
35,19,18,Jits_Linear_8,2,5,56,103,2440675672
35,19,18,Jits_Linear_8,3,5,63,98,2440678812
35,19,18,Jits_Linear_8,0,1,48,56,2441187664
35,19,18,Jits_Linear_8,1,5,56,103,2441246008
35,19,18,Jits_Linear_8,2,5,80,127,2441256504
35,19,18,Jits_Linear_8,3,5,63,98,2441275692
35,19,18,Jits_Linear_8,0,5,63,98,2441835968
35,19,18,Jits_Linear_8,1,1,48,48,2441838864
35,19,18,Jits_Linear_8,2,5,80,127,2441896352
35,19,18,Jits_Linear_8,3,5,56,103,2441945716
35,19,18,Jits_Linear_8,0,1,48,46,2442488624
35,19,18,Jits_Linear_8,1,5,63,98,2442536304
35,19,18,Jits_Linear_8,2,5,56,103,2442545752
35,19,18,Jits_Linear_8,3,5,80,127,2442595640
35,19,18,Jits_Linear_8,0,1,48,50,2443036632
35,19,18,Jits_Linear_8,1,5,63,98,2443046396
35,19,18,Jits_Linear_8,2,5,80,127,2443065812
35,19,18,Jits_Linear_8,3,5,56,103,2443076008
35,19,18,Jits_Linear_8,0,1,48,48,2443579900
35,19,18,Jits_Linear_8,1,5,63,98,2443655528
35,19,18,Jits_Linear_8,2,5,80,127,2443658740
35,19,18,Jits_Linear_8,3,5,56,103,2443695524
35,19,18,Jits_Linear_8,0,1,48,42,2444237348
35,19,18,Jits_Linear_8,1,5,63,98,2444335476
35,19,18,Jits_Linear_8,2,5,80,127,2444366332
35,19,18,Jits_Linear_8,3,5,56,103,2444376604
35,19,18,Jits_Linear_8,0,1,48,44,2444852868
35,19,18,Jits_Linear_8,1,5,56,103,2444895464
35,19,18,Jits_Linear_8,2,5,80,127,2444926560
35,19,18,Jits_Linear_8,3,5,63,98,2444955924
35,19,18,Jits_Linear_8,0,1,48,43,2445434896
35,19,18,Jits_Linear_8,1,5,63,98,2445596160
35,19,18,Jits_Linear_8,2,5,56,103,2445635872
35,19,18,Jits_Linear_8,3,5,80,127,2445639164
35,19,18,Jits_Linear_8,0,5,80,127,2446095708
35,19,18,Jits_Linear_8,1,1,48,51,2446114716
35,19,18,Jits_Linear_8,2,5,56,103,2446175500
35,19,18,Jits_Linear_8,3,5,63,98,2446225760
35,19,18,Jits_Linear_8,0,5,80,127,2446676236
35,19,18,Jits_Linear_8,1,1,48,50,2446686628
35,19,18,Jits_Linear_8,2,5,56,103,2446695868
35,19,18,Jits_Linear_8,3,5,63,98,2446785836
35,19,18,Jits_Linear_8,0,1,48,50,2447312608
35,19,18,Jits_Linear_8,1,5,80,127,2447316392
35,19,18,Jits_Linear_8,2,5,63,98,2447356504
35,19,18,Jits_Linear_8,3,5,56,103,2447396444
35,19,18,Jits_Linear_8,0,5,63,98,2447885704
35,19,18,Jits_Linear_8,1,1,48,51,2447914380
35,19,18,Jits_Linear_8,2,5,80,127,2447946312
35,19,18,Jits_Linear_8,3,5,56,103,2447975768
35,19,18,Jits_Linear_8,0,1,48,51,2448464244
35,19,18,Jits_Linear_8,1,5,56,103,2448485768
35,19,18,Jits_Linear_8,2,5,80,127,2448515520
35,19,18,Jits_Linear_8,3,5,63,98,2448605488
35,19,18,Jits_Linear_8,0,1,48,33,2449028636
35,19,18,Jits_Linear_8,1,5,56,103,2449085760
35,19,18,Jits_Linear_8,2,5,80,127,2449196356
35,19,18,Jits_Linear_8,3,5,63,98,2449226180
35,19,18,Jits_Linear_8,0,1,48,51,2449684864
35,19,18,Jits_Linear_8,1,5,56,103,2449725792
35,19,18,Jits_Linear_8,2,5,63,98,2449786396
35,19,18,Jits_Linear_8,3,5,80,127,2449815848
35,19,18,Jits_Linear_8,0,1,48,50,2450257140
35,19,18,Jits_Linear_8,1,5,56,103,2450285936
35,19,18,Jits_Linear_8,2,5,63,98,2450355532
35,19,18,Jits_Linear_8,3,5,80,127,2450376140
35,19,18,Jits_Linear_8,0,5,80,127,2450846304
35,19,18,Jits_Linear_8,1,5,63,98,2450865496
35,19,18,Jits_Linear_8,2,1,48,51,2450884952
35,19,18,Jits_Linear_8,3,5,56,103,2450915616
35,19,18,Jits_Linear_8,0,1,48,38,2451434300
35,19,18,Jits_Linear_8,1,5,63,98,2451446332
35,19,18,Jits_Linear_8,2,5,80,127,2451456304
35,19,18,Jits_Linear_8,3,5,56,103,2451505608
35,19,18,Jits_Linear_8,0,1,48,45,2451991520
35,19,18,Jits_Linear_8,1,5,63,98,2452025800
35,19,18,Jits_Linear_8,2,5,80,127,2452096368
35,19,18,Jits_Linear_8,3,5,56,103,2452115928
35,19,18,Jits_Linear_8,0,1,48,47,2452572416
35,19,18,Jits_Linear_8,1,5,63,98,2452636132
35,19,18,Jits_Linear_8,2,5,80,127,2452639348
35,19,18,Jits_Linear_8,3,5,56,103,2452705576
35,19,18,Jits_Linear_8,0,5,80,127,2453165404
35,19,18,Jits_Linear_8,1,5,56,103,2453186088
35,19,18,Jits_Linear_8,2,5,63,98,2453196132
35,19,18,Jits_Linear_8,3,1,48,29,2453262428
35,19,18,Jits_Linear_8,0,1,48,43,2453726644
35,19,18,Jits_Linear_8,1,5,56,103,2453765428
35,19,18,Jits_Linear_8,2,5,63,98,2453855548
35,19,18,Jits_Linear_8,3,5,80,127,2453858984
35,19,18,Jits_Linear_8,0,5,80,127,2454316276
35,19,18,Jits_Linear_8,1,5,56,103,2454325572
35,19,18,Jits_Linear_8,2,5,63,98,2454346256
35,19,18,Jits_Linear_8,3,1,48,43,2454353488
35,19,18,Jits_Linear_8,0,5,63,98,2454885864
35,19,18,Jits_Linear_8,1,1,48,45,2454889508
35,19,18,Jits_Linear_8,2,5,80,127,2454946324
35,19,18,Jits_Linear_8,3,5,56,103,2454956592
35,19,18,Jits_Linear_8,0,1,48,53,2455402872
35,19,18,Jits_Linear_8,1,5,63,98,2455525624
35,19,18,Jits_Linear_8,2,5,80,127,2455555400
35,19,18,Jits_Linear_8,3,5,56,103,2455596608
35,19,18,Jits_Linear_8,0,1,48,44,2456071316
35,19,18,Jits_Linear_8,1,5,56,103,2456085956
35,19,18,Jits_Linear_8,2,5,80,127,2456096076
35,19,18,Jits_Linear_8,3,5,63,98,2456136092
35,19,18,Jits_Linear_8,0,5,80,127,2456616208
35,19,18,Jits_Linear_8,1,1,48,42,2456667504
35,19,18,Jits_Linear_8,2,5,56,103,2456696076
35,19,18,Jits_Linear_8,3,5,63,98,2456706496
35,19,18,Jits_Linear_8,0,5,80,127,2457225588
35,19,18,Jits_Linear_8,1,1,48,51,2457245796
35,19,18,Jits_Linear_8,2,5,56,103,2457305380
35,19,18,Jits_Linear_8,3,5,63,98,2457315576
35,19,18,Jits_Linear_8,0,5,80,127,2457746040
35,19,18,Jits_Linear_8,1,5,56,103,2457796092
35,19,18,Jits_Linear_8,2,1,48,46,2457817496
35,19,18,Jits_Linear_8,3,5,63,98,2457846092
35,19,18,Jits_Linear_8,0,1,48,49,2458354292
35,19,18,Jits_Linear_8,1,5,56,103,2458366296
35,19,18,Jits_Linear_8,2,5,63,98,2458369364
35,19,18,Jits_Linear_8,3,5,80,127,2458415676
35,19,18,Jits_Linear_8,0,1,48,44,2458894720
35,19,18,Jits_Linear_8,1,5,56,103,2458945988
35,19,18,Jits_Linear_8,2,5,63,98,2458975664
35,19,18,Jits_Linear_8,3,5,80,127,2458985936
35,19,18,Jits_Linear_8,0,5,63,98,2459416152
35,19,18,Jits_Linear_8,1,1,48,50,2459424376
35,19,18,Jits_Linear_8,2,5,56,103,2459485684
35,19,18,Jits_Linear_8,3,5,80,127,2459536016
35,19,18,Jits_Linear_8,0,1,48,50,2459979476
35,19,18,Jits_Linear_8,1,5,63,98,2460006032
35,19,18,Jits_Linear_8,2,5,56,103,2460016076
35,19,18,Jits_Linear_8,3,5,80,127,2460019144
35,19,18,Jits_Linear_8,0,5,80,127,2460505408
35,19,18,Jits_Linear_8,1,1,48,46,2460562384
35,19,18,Jits_Linear_8,2,5,56,103,2460565940
35,19,18,Jits_Linear_8,3,5,63,98,2460656000
35,19,18,Jits_Linear_8,0,5,80,127,2461056464
35,19,18,Jits_Linear_8,1,1,48,44,2461108660
35,19,18,Jits_Linear_8,2,5,56,103,2461155736
35,19,18,Jits_Linear_8,3,5,63,98,2461195776
35,19,18,Jits_Linear_8,0,5,56,103,2461656404
35,19,18,Jits_Linear_8,1,5,63,98,2461675820
35,19,18,Jits_Linear_8,2,1,48,46,2461685112
35,19,18,Jits_Linear_8,3,5,80,127,2461715776
35,19,18,Jits_Linear_8,0,1,48,46,2462156964
35,19,18,Jits_Linear_8,1,5,63,98,2462175868
35,19,18,Jits_Linear_8,2,5,56,103,2462196204
35,19,18,Jits_Linear_8,3,5,80,127,2462296364
35,19,18,Jits_Linear_8,0,1,48,53,2462647572
35,19,18,Jits_Linear_8,1,5,63,98,2462705912
35,19,18,Jits_Linear_8,2,5,80,127,2462815888
35,19,18,Jits_Linear_8,3,5,56,103,2462846388
35,19,18,Jits_Linear_8,0,1,48,46,2463261524
35,19,18,Jits_Linear_8,1,5,56,103,2463266356
35,19,18,Jits_Linear_8,2,5,63,98,2463295956
35,19,18,Jits_Linear_8,3,5,80,127,2463346008
35,19,18,Jits_Linear_8,0,5,63,98,2463776080
35,19,18,Jits_Linear_8,1,5,56,103,2463805980
35,19,18,Jits_Linear_8,2,1,48,47,2463853836
35,19,18,Jits_Linear_8,3,5,80,127,2463855876
35,19,18,Jits_Linear_8,0,1,48,45,2464284484
35,19,18,Jits_Linear_8,1,5,56,103,2464345496
35,19,18,Jits_Linear_8,2,5,63,98,2464365884
35,19,18,Jits_Linear_8,3,5,80,127,2464445888
35,19,18,Jits_Linear_8,0,1,48,42,2464839592
35,19,18,Jits_Linear_8,1,5,63,98,2464856480
35,19,18,Jits_Linear_8,2,5,56,103,2464915752
35,19,18,Jits_Linear_8,3,5,80,127,2464945636
35,19,18,Jits_Linear_8,0,1,48,41,2465405960
35,19,18,Jits_Linear_8,1,5,56,103,2465435876
35,19,18,Jits_Linear_8,2,5,80,127,2465496640
35,19,18,Jits_Linear_8,3,5,63,98,2465536368
35,19,18,Jits_Linear_8,0,1,48,48,2465928708
35,19,18,Jits_Linear_8,1,5,63,98,2465945820
35,19,18,Jits_Linear_8,2,5,56,103,2466006512
35,19,18,Jits_Linear_8,3,5,80,127,2466075980
35,19,18,Jits_Linear_8,0,1,48,38,2466481052
35,19,18,Jits_Linear_8,1,5,56,103,2466556184
35,19,18,Jits_Linear_8,2,5,63,98,2466565704
35,19,18,Jits_Linear_8,3,5,80,127,2466569068
35,19,18,Jits_Linear_8,0,1,48,42,2467012332
35,19,18,Jits_Linear_8,1,5,63,98,2467026380
35,19,18,Jits_Linear_8,2,5,56,103,2467085824
35,19,18,Jits_Linear_8,3,5,80,127,2467088816
35,19,18,Jits_Linear_8,0,5,63,98,2467536320
35,19,18,Jits_Linear_8,1,1,48,38,2467556824
35,19,18,Jits_Linear_8,2,5,80,127,2467565988
35,19,18,Jits_Linear_8,3,5,56,103,2467586596
35,19,18,Jits_Linear_8,0,1,48,27,2468041544
35,19,18,Jits_Linear_8,1,5,56,103,2468065632
35,19,18,Jits_Linear_8,2,5,63,98,2468115712
35,19,18,Jits_Linear_8,3,5,80,127,2468195788
35,19,18,Jits_Linear_8,0,5,80,127,2468566512
35,19,18,Jits_Linear_8,1,5,63,98,2468606328
35,19,18,Jits_Linear_8,2,5,56,103,2468625668
35,19,18,Jits_Linear_8,3,1,48,34,2468630808
35,19,18,Jits_Linear_8,0,1,48,37,2469113164
35,19,18,Jits_Linear_8,1,5,56,103,2469156132
35,19,18,Jits_Linear_8,2,5,80,127,2469165580
35,19,18,Jits_Linear_8,3,5,63,98,2469185888
35,19,18,Jits_Linear_8,0,1,48,40,2469615080
35,19,18,Jits_Linear_8,1,5,56,103,2469655812
35,19,18,Jits_Linear_8,2,5,63,98,2469706092
35,19,18,Jits_Linear_8,3,5,80,127,2469735752
35,19,18,Jits_Linear_8,0,5,56,103,2470125880
35,19,18,Jits_Linear_8,1,5,63,98,2470136448
35,19,18,Jits_Linear_8,2,5,80,127,2470186500
35,19,18,Jits_Linear_8,3,1,48,33,2470230372
35,19,18,Jits_Linear_8,0,1,48,43,2470629776
35,19,18,Jits_Linear_8,1,5,56,103,2470635872
35,19,18,Jits_Linear_8,2,5,80,127,2470639084
35,19,18,Jits_Linear_8,3,5,63,98,2470795536
35,19,18,Jits_Linear_8,0,5,63,98,2471166588
35,19,18,Jits_Linear_8,1,1,48,38,2471197956
35,19,18,Jits_Linear_8,2,5,56,103,2471235892
35,19,18,Jits_Linear_8,3,5,80,127,2471275828
35,19,18,Jits_Linear_8,0,1,48,35,2471685572
35,19,18,Jits_Linear_8,1,5,63,98,2471716236
35,19,18,Jits_Linear_8,2,5,56,103,2471806504
35,19,18,Jits_Linear_8,3,5,80,127,2471809568
35,19,18,Jits_Linear_8,0,5,56,103,2472205728
35,19,18,Jits_Linear_8,1,1,48,39,2472269380
35,19,18,Jits_Linear_8,2,5,63,98,2472295784
35,19,18,Jits_Linear_8,3,5,80,127,2472305980
35,19,18,Jits_Linear_8,0,5,56,103,2472685920
35,19,18,Jits_Linear_8,1,5,63,98,2472736052
35,19,18,Jits_Linear_8,2,1,48,41,2472751304
35,19,18,Jits_Linear_8,3,5,80,127,2472765720
35,19,18,Jits_Linear_8,0,1,48,39,2473221084
35,19,18,Jits_Linear_8,1,5,63,98,2473265628
35,19,18,Jits_Linear_8,2,5,80,127,2473275748
35,19,18,Jits_Linear_8,3,5,56,103,2473336568
35,19,18,Jits_Linear_8,0,5,63,98,2473686544
35,19,18,Jits_Linear_8,1,5,80,127,2473745768
35,19,18,Jits_Linear_8,2,5,56,103,2473785704
35,19,18,Jits_Linear_8,3,1,48,35,2473811888
35,19,18,Jits_Linear_8,0,1,48,51,2474242400
35,19,18,Jits_Linear_8,1,5,56,103,2474285368
35,19,18,Jits_Linear_8,2,5,80,127,2474305904
35,19,18,Jits_Linear_8,3,5,63,98,2474326660
35,19,18,Jits_Linear_8,0,5,63,98,2474706360
35,19,18,Jits_Linear_8,1,1,48,44,2474718020
35,19,18,Jits_Linear_8,2,5,56,103,2474725692
35,19,18,Jits_Linear_8,3,5,80,127,2474765656
35,19,18,Jits_Linear_8,0,1,48,44,2475174240
35,19,18,Jits_Linear_8,1,5,63,98,2475216588
35,19,18,Jits_Linear_8,2,5,80,127,2475245896
35,19,18,Jits_Linear_8,3,5,56,103,2475266676
35,19,18,Jits_Linear_8,0,5,80,127,2475686380
35,19,18,Jits_Linear_8,1,1,48,40,2475716548
35,19,18,Jits_Linear_8,2,5,56,103,2475736428
35,19,18,Jits_Linear_8,3,5,63,98,2475795796
35,19,18,Jits_Linear_8,0,5,63,98,2476165400
35,19,18,Jits_Linear_8,1,1,48,52,2476285372
35,19,18,Jits_Linear_8,2,5,56,103,2476287240
35,19,18,Jits_Linear_8,3,5,80,127,2476316168
35,19,18,Jits_Linear_8,0,5,80,127,2476695872
35,19,18,Jits_Linear_8,1,5,63,98,2476716332
35,19,18,Jits_Linear_8,2,1,48,51,2476777816
35,19,18,Jits_Linear_8,3,5,56,103,2476786328
35,19,18,Jits_Linear_8,0,5,63,98,2477205760
35,19,18,Jits_Linear_8,1,5,56,103,2477216252
35,19,18,Jits_Linear_8,2,1,48,46,2477234812
35,19,18,Jits_Linear_8,3,5,80,127,2477295916
35,19,18,Jits_Linear_8,0,1,48,47,2477692584
35,19,18,Jits_Linear_8,1,5,56,103,2477755632
35,19,18,Jits_Linear_8,2,5,80,127,2477785456
35,19,18,Jits_Linear_8,3,5,63,98,2477795712
35,19,18,Jits_Linear_8,0,9999,9999,9999,2367383664
35,19,18,Jits_Linear_8,1,9999,9999,9999,2368203900
35,19,18,Jits_Linear_8,2,9999,9999,9999,2369024084
35,19,18,Jits_Linear_8,3,9999,9999,9999,2369853520
35,19,18,Jits_Linear_8,4,9999,9999,9999,2370673736
35,19,18,Jits_Linear_8,5,9999,9999,9999,2371483756
35,19,18,Jits_Linear_8,6,9999,9999,9999,2372293700
35,19,18,Jits_Linear_8,7,9999,9999,9999,2373103720
35,19,18,Jits_Linear_8,8,9999,9999,9999,2373913688
35,19,18,Jits_Linear_8,9,9999,9999,9999,2374723692
35,19,18,Jits_Linear_8,10,9999,9999,9999,2375523384
35,19,18,Jits_Linear_8,11,9999,9999,9999,2376323140
35,19,18,Jits_Linear_8,12,9999,9999,9999,2377123948
35,19,18,Jits_Linear_8,13,9999,9999,9999,2377923696
35,19,18,Jits_Linear_8,14,9999,9999,9999,2378723440
35,19,18,Jits_Linear_8,15,9999,9999,9999,2379513920
35,19,18,Jits_Linear_8,16,9999,9999,9999,2380303468
35,19,18,Jits_Linear_8,17,9999,9999,9999,2381094012
35,19,18,Jits_Linear_8,18,9999,9999,9999,2381883504
35,19,18,Jits_Linear_8,19,9999,9999,9999,2382673984
35,19,18,Jits_Linear_8,20,9999,9999,9999,2383453284
35,19,18,Jits_Linear_8,21,9999,9999,9999,2384233556
35,19,18,Jits_Linear_8,22,9999,9999,9999,2385013828
35,19,18,Jits_Linear_8,23,9999,9999,9999,2385793132
35,19,18,Jits_Linear_8,24,9999,9999,9999,2386573404
35,19,18,Jits_Linear_8,25,9999,9999,9999,2387343416
35,19,18,Jits_Linear_8,26,9999,9999,9999,2388113504
35,19,18,Jits_Linear_8,27,9999,9999,9999,2388883516
35,19,18,Jits_Linear_8,28,9999,9999,9999,2389653616
35,19,18,Jits_Linear_8,29,9999,9999,9999,2390423632
35,19,18,Jits_Linear_8,30,9999,9999,9999,2391183456
35,19,18,Jits_Linear_8,31,9999,9999,9999,2391943280
35,19,18,Jits_Linear_8,32,9999,9999,9999,2392704072
35,19,18,Jits_Linear_8,33,9999,9999,9999,2393473100
35,19,18,Jits_Linear_8,34,9999,9999,9999,2394233912
35,19,18,Jits_Linear_8,35,9999,9999,9999,2394983480
35,19,18,Jits_Linear_8,36,9999,9999,9999,2395734096
35,19,18,Jits_Linear_8,37,9999,9999,9999,2396493924
35,19,18,Jits_Linear_8,38,9999,9999,9999,2397243476
35,19,18,Jits_Linear_8,39,9999,9999,9999,2397994088
35,19,18,Jits_Linear_8,40,9999,9999,9999,2398733388
35,19,18,Jits_Linear_8,41,9999,9999,9999,2399473720
35,19,18,Jits_Linear_8,42,9999,9999,9999,2400214128
35,19,18,Jits_Linear_8,43,9999,9999,9999,2400963696
35,19,18,Jits_Linear_8,44,9999,9999,9999,2401704016
35,19,18,Jits_Linear_8,45,9999,9999,9999,2402433128
35,19,18,Jits_Linear_8,46,9999,9999,9999,2403163208
35,19,18,Jits_Linear_8,47,9999,9999,9999,2403893368
35,19,18,Jits_Linear_8,48,9999,9999,9999,2404623448
35,19,18,Jits_Linear_8,49,9999,9999,9999,2405353572
35,19,18,Jits_Linear_8,50,9999,9999,9999,2406073460
35,19,18,Jits_Linear_8,51,9999,9999,9999,2406793276
35,19,18,Jits_Linear_8,52,9999,9999,9999,2407513148
35,19,18,Jits_Linear_8,53,9999,9999,9999,2408234088
35,19,18,Jits_Linear_8,54,9999,9999,9999,2408953976
35,19,18,Jits_Linear_8,55,9999,9999,9999,2409663576
35,19,18,Jits_Linear_8,56,9999,9999,9999,2410373204
35,19,18,Jits_Linear_8,57,9999,9999,9999,2411083880
35,19,18,Jits_Linear_8,58,9999,9999,9999,2411793512
35,19,18,Jits_Linear_8,59,9999,9999,9999,2412503116
35,19,18,Jits_Linear_8,60,9999,9999,9999,2413203528
35,19,18,Jits_Linear_8,61,9999,9999,9999,2413903940
35,19,18,Jits_Linear_8,62,9999,9999,9999,2414603376
35,19,18,Jits_Linear_8,63,9999,9999,9999,2415303752
35,19,18,Jits_Linear_8,64,9999,9999,9999,2416003200
35,19,18,Jits_Linear_8,65,9999,9999,9999,2416693352
35,19,18,Jits_Linear_8,66,9999,9999,9999,2417383480
35,19,18,Jits_Linear_8,67,9999,9999,9999,2418073708
35,19,18,Jits_Linear_8,68,9999,9999,9999,2418763844
35,19,18,Jits_Linear_8,69,9999,9999,9999,2419454008
35,19,18,Jits_Linear_8,70,9999,9999,9999,2420133956
35,19,18,Jits_Linear_8,71,9999,9999,9999,2420813924
35,19,18,Jits_Linear_8,72,9999,9999,9999,2421493880
35,19,18,Jits_Linear_8,73,9999,9999,9999,2422173756
35,19,18,Jits_Linear_8,74,9999,9999,9999,2422853724
35,19,18,Jits_Linear_8,75,9999,9999,9999,2423523396
35,19,18,Jits_Linear_8,76,9999,9999,9999,2424193104
35,19,18,Jits_Linear_8,77,9999,9999,9999,2424863864
35,19,18,Jits_Linear_8,78,9999,9999,9999,2425533528
35,19,18,Jits_Linear_8,79,9999,9999,9999,2426203224
35,19,18,Jits_Linear_8,80,9999,9999,9999,2426863680
35,19,18,Jits_Linear_8,81,9999,9999,9999,2427523180
35,19,18,Jits_Linear_8,82,9999,9999,9999,2428183656
35,19,18,Jits_Linear_8,83,9999,9999,9999,2428843136
35,19,18,Jits_Linear_8,84,9999,9999,9999,2429503612
35,19,18,Jits_Linear_8,85,9999,9999,9999,2430153804
35,19,18,Jits_Linear_8,86,9999,9999,9999,2430804096
35,19,18,Jits_Linear_8,87,9999,9999,9999,2431453240
35,19,18,Jits_Linear_8,88,9999,9999,9999,2432103524
35,19,18,Jits_Linear_8,89,9999,9999,9999,2432753724
35,19,18,Jits_Linear_8,90,9999,9999,9999,2433393760
35,19,18,Jits_Linear_8,91,9999,9999,9999,2434033784
35,19,18,Jits_Linear_8,92,9999,9999,9999,2434673788
35,19,18,Jits_Linear_8,93,9999,9999,9999,2435313736
35,19,18,Jits_Linear_8,94,9999,9999,9999,2435953736
35,19,18,Jits_Linear_8,95,9999,9999,9999,2436583548
35,19,18,Jits_Linear_8,96,9999,9999,9999,2437213300
35,19,18,Jits_Linear_8,97,9999,9999,9999,2437844088
35,19,18,Jits_Linear_8,98,9999,9999,9999,2438473796
35,19,18,Jits_Linear_8,99,9999,9999,9999,2439103608
35,19,18,Jits_Linear_8,100,9999,9999,9999,2439723100
35,19,18,Jits_Linear_8,101,9999,9999,9999,2440343624
35,19,18,Jits_Linear_8,102,9999,9999,9999,2440963192
35,19,18,Jits_Linear_8,103,9999,9999,9999,2441583712
35,19,18,Jits_Linear_8,104,9999,9999,9999,2442203264
35,19,18,Jits_Linear_8,105,9999,9999,9999,2442813556
35,19,18,Jits_Linear_8,106,9999,9999,9999,2443423808
35,19,18,Jits_Linear_8,107,9999,9999,9999,2444033104
35,19,18,Jits_Linear_8,108,9999,9999,9999,2444643440
35,19,18,Jits_Linear_8,109,9999,9999,9999,2445253696
35,19,18,Jits_Linear_8,110,9999,9999,9999,2445853792
35,19,18,Jits_Linear_8,111,9999,9999,9999,2446453864
35,19,18,Jits_Linear_8,112,9999,9999,9999,2447053944
35,19,18,Jits_Linear_8,113,9999,9999,9999,2447653976
35,19,18,Jits_Linear_8,114,9999,9999,9999,2448254044
35,19,18,Jits_Linear_8,115,9999,9999,9999,2448843852
35,19,18,Jits_Linear_8,116,9999,9999,9999,2449433684
35,19,18,Jits_Linear_8,117,9999,9999,9999,2450023500
35,19,18,Jits_Linear_8,118,9999,9999,9999,2450613308
35,19,18,Jits_Linear_8,119,9999,9999,9999,2451203136
35,19,18,Jits_Linear_8,120,9999,9999,9999,2451783740
35,19,18,Jits_Linear_8,121,9999,9999,9999,2452363360
35,19,18,Jits_Linear_8,122,9999,9999,9999,2452943944
35,19,18,Jits_Linear_8,123,9999,9999,9999,2453523580
35,19,18,Jits_Linear_8,124,9999,9999,9999,2454103132
35,19,18,Jits_Linear_8,125,9999,9999,9999,2454673524
35,19,18,Jits_Linear_8,126,9999,9999,9999,2455243868
35,19,18,Jits_Linear_8,127,9999,9999,9999,2455813180
35,19,18,Jits_Linear_8,128,9999,9999,9999,2456383584
35,19,18,Jits_Linear_8,129,9999,9999,9999,2456953912
35,19,18,Jits_Linear_8,130,9999,9999,9999,2457514072
35,19,18,Jits_Linear_8,131,9999,9999,9999,2458073184
35,19,18,Jits_Linear_8,132,9999,9999,9999,2458633280
35,19,18,Jits_Linear_8,133,9999,9999,9999,2459193424
35,19,18,Jits_Linear_8,134,9999,9999,9999,2459753560
35,19,18,Jits_Linear_8,135,9999,9999,9999,2460303424
35,19,18,Jits_Linear_8,136,9999,9999,9999,2460853348
35,19,18,Jits_Linear_8,137,9999,9999,9999,2461403240
35,19,18,Jits_Linear_8,138,9999,9999,9999,2461953080
35,19,18,Jits_Linear_8,139,9999,9999,9999,2462504016
35,19,18,Jits_Linear_8,140,9999,9999,9999,2463043704
35,19,18,Jits_Linear_8,141,9999,9999,9999,2463583316
35,19,18,Jits_Linear_8,142,9999,9999,9999,2464123968
35,19,18,Jits_Linear_8,143,9999,9999,9999,2464663656
35,19,18,Jits_Linear_8,144,9999,9999,9999,2465203256
35,19,18,Jits_Linear_8,145,9999,9999,9999,2465733732
35,19,18,Jits_Linear_8,146,9999,9999,9999,2466263156
35,19,18,Jits_Linear_8,147,9999,9999,9999,2466793544
35,19,18,Jits_Linear_8,148,9999,9999,9999,2467324024
35,19,18,Jits_Linear_8,149,9999,9999,9999,2467853420
35,19,18,Jits_Linear_8,150,9999,9999,9999,2468373624
35,19,18,Jits_Linear_8,151,9999,9999,9999,2468893756
35,19,18,Jits_Linear_8,152,9999,9999,9999,2469413976
35,19,18,Jits_Linear_8,153,9999,9999,9999,2469933140
35,19,18,Jits_Linear_8,154,9999,9999,9999,2470453316
35,19,18,Jits_Linear_8,155,9999,9999,9999,2470963264
35,19,18,Jits_Linear_8,156,9999,9999,9999,2471473280
35,19,18,Jits_Linear_8,157,9999,9999,9999,2471983220
35,19,18,Jits_Linear_8,158,9999,9999,9999,2472493168
35,19,18,Jits_Linear_8,159,9999,9999,9999,2473003100
35,19,18,Jits_Linear_8,160,9999,9999,9999,2473503848
35,19,18,Jits_Linear_8,161,9999,9999,9999,2474003524
35,19,18,Jits_Linear_8,162,9999,9999,9999,2474503288
35,19,18,Jits_Linear_8,163,9999,9999,9999,2475004008
35,19,18,Jits_Linear_8,164,9999,9999,9999,2475503680
35,19,18,Jits_Linear_8,165,9999,9999,9999,2475993148
35,19,18,Jits_Linear_8,166,9999,9999,9999,2476483704
35,19,18,Jits_Linear_8,167,9999,9999,9999,2476973120
35,19,18,Jits_Linear_8,168,9999,9999,9999,2477463676
35,19,18,Jits_Linear_8,169,9999,9999,9999,2477953100
35,20,5,ISIP_5,0,5,42,127,2533167500
35,20,5,ISIP_5,1,5,42,127,2533668412
35,20,5,ISIP_5,2,5,42,127,2534167832
35,20,5,ISIP_5,3,1,48,50,2534172896
35,20,5,ISIP_5,4,5,42,127,2534667528
35,20,5,ISIP_5,5,1,48,48,2534691140
35,20,5,ISIP_5,6,5,42,127,2535168344
35,20,5,ISIP_5,7,1,48,46,2535183804
35,20,5,ISIP_5,8,1,48,44,2535668112
35,20,5,ISIP_5,9,5,42,127,2535669672
35,20,5,ISIP_5,10,1,48,47,2536141940
35,20,5,ISIP_5,11,5,42,127,2536167776
35,20,5,ISIP_5,12,5,42,127,2536667404
35,20,5,ISIP_5,13,1,48,43,2536676732
35,20,5,ISIP_5,14,1,48,40,2537154488
35,20,5,ISIP_5,15,5,42,127,2537168288
35,20,5,ISIP_5,16,1,48,41,2537637136
35,20,5,ISIP_5,17,5,42,127,2537668056
35,20,5,ISIP_5,18,1,48,39,2538140568
35,20,5,ISIP_5,19,5,42,127,2538167604
35,20,5,ISIP_5,20,1,48,34,2538625976
35,20,5,ISIP_5,21,5,42,127,2538668344
35,20,5,ISIP_5,22,1,48,49,2539130384
35,20,5,ISIP_5,23,5,42,127,2539168116
35,20,5,ISIP_5,24,1,48,33,2539622220
35,20,5,ISIP_5,25,5,42,127,2539668108
35,20,5,ISIP_5,26,1,48,38,2540120496
35,20,5,ISIP_5,27,5,42,127,2540167580
35,20,5,ISIP_5,28,1,48,40,2540653856
35,20,5,ISIP_5,29,5,42,127,2540668248
35,20,5,ISIP_5,30,1,48,43,2541153844
35,20,5,ISIP_5,31,5,42,127,2541168236
35,20,5,ISIP_5,32,5,42,127,2541667568
35,20,5,ISIP_5,33,1,48,44,2541674200
35,20,5,ISIP_5,34,1,48,43,2542149568
35,20,5,ISIP_5,35,5,42,127,2542168304
35,20,5,ISIP_5,36,1,48,44,2542662804
35,20,5,ISIP_5,37,5,42,127,2542668076
35,20,5,ISIP_5,38,1,48,42,2543151208
35,20,5,ISIP_5,39,5,42,127,2543168068
35,20,5,ISIP_5,40,1,48,41,2543625396
35,20,5,ISIP_5,41,5,42,127,2543667540
35,20,5,ISIP_5,42,1,48,44,2544117908
35,20,5,ISIP_5,43,5,42,127,2544168204
35,20,5,ISIP_5,44,1,48,43,2544646696
35,20,5,ISIP_5,45,5,42,127,2544668048
35,20,5,ISIP_5,46,1,48,47,2545115180
35,20,5,ISIP_5,47,5,42,127,2545167816
35,20,5,ISIP_5,48,1,48,42,2545606044
35,20,5,ISIP_5,49,5,42,127,2545667364
35,20,5,ISIP_5,50,1,48,45,2546116812
35,20,5,ISIP_5,51,5,42,127,2546168028
35,20,5,ISIP_5,52,1,48,43,2546619868
35,20,5,ISIP_5,53,5,42,127,2546668020
35,20,5,ISIP_5,54,1,48,46,2547108640
35,20,5,ISIP_5,55,5,42,127,2547167544
35,20,5,ISIP_5,56,1,48,46,2547610884
35,20,5,ISIP_5,57,5,42,127,2547668360
35,20,5,ISIP_5,58,1,48,39,2548112968
35,20,5,ISIP_5,59,5,42,127,2548168128
35,20,5,ISIP_5,60,1,48,45,2548596732
35,20,5,ISIP_5,61,5,42,127,2548667752
35,20,5,ISIP_5,62,1,48,43,2549118196
35,20,5,ISIP_5,63,5,42,127,2549167444
35,20,5,ISIP_5,64,1,48,41,2549608836
35,20,5,ISIP_5,65,5,42,127,2549668184
35,20,5,ISIP_5,66,1,48,37,2550101652
35,20,5,ISIP_5,67,5,42,127,2550168032
35,20,5,ISIP_5,68,1,48,31,2550625132
35,20,5,ISIP_5,69,5,42,127,2550667800
35,20,5,ISIP_5,70,1,48,38,2551111288
35,20,5,ISIP_5,71,5,42,127,2551168468
35,20,5,ISIP_5,72,1,48,45,2551588172
35,20,5,ISIP_5,73,5,42,127,2551668164
35,20,5,ISIP_5,74,1,48,46,2552085924
35,20,5,ISIP_5,75,5,42,127,2552167860
35,20,5,ISIP_5,76,1,48,43,2552591076
35,20,5,ISIP_5,77,5,42,127,2552667852
35,20,5,ISIP_5,78,1,48,46,2553081052
35,20,5,ISIP_5,79,1,48,46,2553598168
35,20,5,ISIP_5,80,1,48,43,2554122692
35,20,5,ISIP_5,81,1,48,41,2554592060
35,20,5,ISIP_5,82,1,48,39,2555092132
35,20,5,ISIP_5,83,1,48,43,2555603264
35,20,5,ISIP_5,84,1,48,36,2556107892
35,20,5,ISIP_5,85,1,48,43,2556604140
35,20,5,ISIP_5,86,1,48,42,2557109964
35,20,5,ISIP_5,87,1,48,38,2557620648
35,20,5,ISIP_5,88,1,48,41,2558129088
35,20,5,ISIP_5,89,1,48,40,2558622644
35,20,5,ISIP_5,90,1,48,44,2559131692
35,20,5,ISIP_5,91,1,48,41,2559599816
35,20,5,ISIP_5,92,1,48,38,2560108632
35,20,5,ISIP_5,93,1,48,46,2560615728
35,20,5,ISIP_5,94,1,48,41,2561134340
35,20,5,ISIP_5,95,1,48,41,2561622808
35,20,5,ISIP_5,96,1,48,40,2562133644
35,20,5,ISIP_5,97,1,48,41,2562617484
35,20,5,ISIP_5,98,1,48,40,2563147612
35,20,5,ISIP_5,99,1,48,42,2563629432
35,20,5,ISIP_5,100,1,48,38,2564139292
35,20,5,ISIP_5,101,1,48,37,2564642792
35,20,5,ISIP_5,102,1,48,31,2565125136
35,20,5,ISIP_5,103,1,48,39,2565621384
35,20,5,ISIP_5,104,1,48,44,2566109384
35,20,5,ISIP_5,105,1,48,41,2566597624
35,20,5,ISIP_5,106,1,48,40,2567127684
35,20,5,ISIP_5,107,1,48,39,2567614960
35,20,5,ISIP_5,108,1,48,37,2568147116
35,20,5,ISIP_5,109,1,48,38,2568612840
35,20,5,ISIP_5,110,1,48,33,2569109316
35,20,5,ISIP_5,111,1,48,37,2569599508
35,20,5,ISIP_5,112,1,48,38,2570084240
35,20,5,ISIP_5,113,1,48,38,2570580788
35,20,5,ISIP_5,114,1,48,40,2571088556
35,20,5,ISIP_5,115,1,48,42,2571541652
35,20,5,ISIP_5,116,1,48,40,2572084052
35,20,5,ISIP_5,117,1,48,37,2572596008
35,20,5,ISIP_5,118,1,48,37,2573062416
35,20,5,ISIP_5,119,1,48,29,2573582076
35,20,5,ISIP_5,120,1,48,40,2574061648
35,20,5,ISIP_5,121,1,48,38,2574566624
35,20,5,ISIP_5,122,1,48,37,2575078952
35,20,5,ISIP_5,123,1,48,40,2575599608
35,20,5,ISIP_5,124,1,48,37,2576065172
35,20,5,ISIP_5,125,1,48,39,2576564564
35,20,5,ISIP_5,126,1,48,35,2577100156
35,20,5,ISIP_5,127,1,48,38,2577582120
35,20,5,ISIP_5,128,1,48,39,2578115096
35,20,5,ISIP_5,129,1,48,32,2578631464
35,20,5,ISIP_5,130,1,48,30,2579132052
35,20,5,ISIP_5,131,1,48,34,2579645132
35,20,5,ISIP_5,132,1,48,34,2580136444
35,20,5,ISIP_5,133,1,48,31,2580682444
35,20,5,ISIP_5,134,1,48,31,2581166504
35,20,5,ISIP_5,135,1,48,32,2581682648
35,20,5,ISIP_5,136,1,48,35,2582195804
35,20,5,ISIP_5,137,1,48,32,2582674704
35,20,5,ISIP_5,138,1,48,31,2583192340
35,20,5,ISIP_5,139,1,48,33,2583682756
35,20,5,ISIP_5,140,1,48,32,2584162688
35,20,5,ISIP_5,141,1,48,30,2584718188
35,20,5,ISIP_5,142,1,48,32,2585216536
35,20,5,ISIP_5,143,1,48,33,2585716976
35,20,5,ISIP_5,144,1,48,32,2586205820
35,20,5,ISIP_5,145,1,48,32,2586722340
35,20,5,ISIP_5,146,1,48,34,2587216868
35,20,5,ISIP_5,147,1,48,33,2587726360
35,20,5,ISIP_5,148,1,48,34,2588223880
35,20,5,ISIP_5,149,1,48,35,2588726640
35,20,5,ISIP_5,150,1,48,32,2589176288
35,20,5,ISIP_5,151,1,48,32,2589716440
35,20,5,ISIP_5,152,1,48,35,2590240296
35,20,5,ISIP_5,153,1,48,40,2590731608
35,20,5,ISIP_5,154,1,48,34,2591225020
35,20,5,ISIP_5,155,1,48,37,2591713540
35,20,5,ISIP_5,156,1,48,33,2592241224
35,20,5,ISIP_5,157,1,48,33,2592724364
35,20,5,ISIP_5,158,1,48,26,2593231232
35,20,5,ISIP_5,159,1,48,32,2593744088
35,20,5,ISIP_5,160,1,48,39,2594256788
35,20,5,ISIP_5,161,1,48,33,2594780196
35,20,5,ISIP_5,162,1,48,34,2595303844
35,20,5,ISIP_5,163,1,48,34,2595802164
35,20,5,ISIP_5,164,1,48,35,2596315016
35,20,5,ISIP_5,165,1,48,35,2596819124
35,20,5,ISIP_5,166,1,48,37,2597323224
35,20,5,ISIP_5,167,1,48,33,2597849168
35,20,5,ISIP_5,168,1,48,32,2598343928
35,20,5,ISIP_5,169,1,48,35,2598849600
35,20,5,ISIP_5,170,1,48,37,2599375992
35,20,5,ISIP_5,171,1,48,33,2599871340
35,20,5,ISIP_5,172,1,48,36,2600414344
35,20,5,ISIP_5,173,1,48,30,2600939112
35,20,5,ISIP_5,174,1,48,33,2601442520
35,20,5,ISIP_5,175,1,48,34,2601964000
35,20,5,ISIP_5,176,1,48,35,2602479924
35,20,5,ISIP_5,177,1,48,42,2602978764
35,20,5,ISIP_5,178,1,48,40,2603505332
35,20,5,ISIP_5,179,1,48,26,2604029704
35,20,5,ISIP_5,180,1,48,40,2604537772
35,20,5,ISIP_5,181,1,48,36,2605054076
35,20,5,ISIP_5,182,1,48,35,2605551516
35,20,5,ISIP_5,183,1,48,31,2606063472
35,20,5,ISIP_5,184,1,48,34,2606604004
35,20,5,ISIP_5,185,1,48,39,2607088740
35,20,5,ISIP_5,186,1,48,36,2607618124
35,20,5,ISIP_5,187,1,48,35,2608139504
35,20,5,ISIP_5,188,1,48,35,2608651388
35,20,5,ISIP_5,189,1,48,26,2609169940
35,20,5,ISIP_5,190,1,48,37,2609645160
35,20,5,ISIP_5,191,1,48,37,2610162200
35,20,5,ISIP_5,192,1,48,41,2610666548
35,20,5,ISIP_5,193,1,48,38,2611154080
35,20,5,ISIP_5,194,1,48,38,2611652344
35,20,5,ISIP_5,195,1,48,41,2612168732
35,20,5,ISIP_5,196,1,48,41,2612695352
35,20,5,ISIP_5,197,1,48,35,2613165028
35,20,5,ISIP_5,0,9999,9999,9999,2533165136
35,20,5,ISIP_5,1,9999,9999,9999,2533665904
35,20,5,ISIP_5,2,9999,9999,9999,2534165620
35,20,5,ISIP_5,3,9999,9999,9999,2534665312
35,20,5,ISIP_5,4,9999,9999,9999,2535166056
35,20,5,ISIP_5,5,9999,9999,9999,2535665752
35,20,5,ISIP_5,6,9999,9999,9999,2536165488
35,20,5,ISIP_5,7,9999,9999,9999,2536665192
35,20,5,ISIP_5,8,9999,9999,9999,2537165928
35,20,5,ISIP_5,9,9999,9999,9999,2537665624
35,20,5,ISIP_5,10,9999,9999,9999,2538165320
35,20,5,ISIP_5,11,9999,9999,9999,2538666060
35,20,5,ISIP_5,12,9999,9999,9999,2539165756
35,20,5,ISIP_5,13,9999,9999,9999,2539665524
35,20,5,ISIP_5,14,9999,9999,9999,2540165216
35,20,5,ISIP_5,15,9999,9999,9999,2540665960
35,20,5,ISIP_5,16,9999,9999,9999,2541165652
35,20,5,ISIP_5,17,9999,9999,9999,2541665356
35,20,5,ISIP_5,18,9999,9999,9999,2542166092
35,20,5,ISIP_5,19,9999,9999,9999,2542665788
35,20,5,ISIP_5,20,9999,9999,9999,2543165556
35,20,5,ISIP_5,21,9999,9999,9999,2543665252
35,20,5,ISIP_5,22,9999,9999,9999,2544165992
35,20,5,ISIP_5,23,9999,9999,9999,2544665688
35,20,5,ISIP_5,24,9999,9999,9999,2545165380
35,20,5,ISIP_5,25,9999,9999,9999,2545665076
35,20,5,ISIP_5,26,9999,9999,9999,2546165816
35,20,5,ISIP_5,27,9999,9999,9999,2546665560
35,20,5,ISIP_5,28,9999,9999,9999,2547165256
35,20,5,ISIP_5,29,9999,9999,9999,2547666000
35,20,5,ISIP_5,30,9999,9999,9999,2548165696
35,20,5,ISIP_5,31,9999,9999,9999,2548665464
35,20,5,ISIP_5,32,9999,9999,9999,2549165160
35,20,5,ISIP_5,33,9999,9999,9999,2549665900
35,20,5,ISIP_5,34,9999,9999,9999,2550165596
35,20,5,ISIP_5,35,9999,9999,9999,2550665292
35,20,5,ISIP_5,36,9999,9999,9999,2551166032
35,20,5,ISIP_5,37,9999,9999,9999,2551665728
35,20,5,ISIP_5,38,9999,9999,9999,2552165424
35,20,5,ISIP_5,39,9999,9999,9999,2552665196
35,20,5,ISIP_5,40,9999,9999,9999,2553165936
35,20,5,ISIP_5,41,9999,9999,9999,2553665628
35,20,5,ISIP_5,42,9999,9999,9999,2554165320
35,20,5,ISIP_5,43,9999,9999,9999,2554666056
35,20,5,ISIP_5,44,9999,9999,9999,2555165748
35,20,5,ISIP_5,45,9999,9999,9999,2555665512
35,20,5,ISIP_5,46,9999,9999,9999,2556165200
35,20,5,ISIP_5,47,9999,9999,9999,2556665940
35,20,5,ISIP_5,48,9999,9999,9999,2557165628
35,20,5,ISIP_5,49,9999,9999,9999,2557665368
35,20,5,ISIP_5,50,9999,9999,9999,2558166108
35,20,5,ISIP_5,51,9999,9999,9999,2558665800
35,20,5,ISIP_5,52,9999,9999,9999,2559165488
35,20,5,ISIP_5,53,9999,9999,9999,2559665256
35,20,5,ISIP_5,54,9999,9999,9999,2560165992
35,20,5,ISIP_5,55,9999,9999,9999,2560665684
35,20,5,ISIP_5,56,9999,9999,9999,2561165372
35,20,5,ISIP_5,57,9999,9999,9999,2561665140
35,20,5,ISIP_5,58,9999,9999,9999,2562165876
35,20,5,ISIP_5,59,9999,9999,9999,2562665568
35,20,5,ISIP_5,60,9999,9999,9999,2563165260
35,20,5,ISIP_5,61,9999,9999,9999,2563665996
35,20,5,ISIP_5,62,9999,9999,9999,2564165688
35,20,5,ISIP_5,63,9999,9999,9999,2564665452
35,20,5,ISIP_5,64,9999,9999,9999,2565165144
35,20,5,ISIP_5,65,9999,9999,9999,2565665880
35,20,5,ISIP_5,66,9999,9999,9999,2566165572
35,20,5,ISIP_5,67,9999,9999,9999,2566665336
35,20,5,ISIP_5,68,9999,9999,9999,2567166000
35,20,5,ISIP_5,69,9999,9999,9999,2567665764
35,20,5,ISIP_5,70,9999,9999,9999,2568165432
35,20,5,ISIP_5,71,9999,9999,9999,2568665196
35,20,5,ISIP_5,72,9999,9999,9999,2569165932
35,20,5,ISIP_5,73,9999,9999,9999,2569665620
35,20,5,ISIP_5,74,9999,9999,9999,2570165312
35,20,5,ISIP_5,75,9999,9999,9999,2570666052
35,20,5,ISIP_5,76,9999,9999,9999,2571165816
35,20,5,ISIP_5,77,9999,9999,9999,2571665496
35,20,5,ISIP_5,78,9999,9999,9999,2572165200
35,20,5,ISIP_5,79,9999,9999,9999,2572665936
35,20,5,ISIP_5,80,9999,9999,9999,2573165688
35,20,5,ISIP_5,81,9999,9999,9999,2573665392
35,20,5,ISIP_5,82,9999,9999,9999,2574166116
35,20,5,ISIP_5,83,9999,9999,9999,2574665804
35,20,5,ISIP_5,84,9999,9999,9999,2575165512
35,20,5,ISIP_5,85,9999,9999,9999,2575665204
35,20,5,ISIP_5,86,9999,9999,9999,2576166000
35,20,5,ISIP_5,87,9999,9999,9999,2576665692
35,20,5,ISIP_5,88,9999,9999,9999,2577165396
35,20,5,ISIP_5,89,9999,9999,9999,2577665084
35,20,5,ISIP_5,90,9999,9999,9999,2578165824
35,20,5,ISIP_5,91,9999,9999,9999,2578665588
35,20,5,ISIP_5,92,9999,9999,9999,2579165256
35,20,5,ISIP_5,93,9999,9999,9999,2579665992
35,20,5,ISIP_5,94,9999,9999,9999,2580165680
35,20,5,ISIP_5,95,9999,9999,9999,2580665452
35,20,5,ISIP_5,96,9999,9999,9999,2581165144
35,20,5,ISIP_5,97,9999,9999,9999,2581665880
35,20,5,ISIP_5,98,9999,9999,9999,2582165572
35,20,5,ISIP_5,99,9999,9999,9999,2582665336
35,20,5,ISIP_5,100,9999,9999,9999,2583166072
35,20,5,ISIP_5,101,9999,9999,9999,2583665764
35,20,5,ISIP_5,102,9999,9999,9999,2584165448
35,20,5,ISIP_5,103,9999,9999,9999,2584665144
35,20,5,ISIP_5,104,9999,9999,9999,2585165880
35,20,5,ISIP_5,105,9999,9999,9999,2585665648
35,20,5,ISIP_5,106,9999,9999,9999,2586165340
35,20,5,ISIP_5,107,9999,9999,9999,2586666076
35,20,5,ISIP_5,108,9999,9999,9999,2587165768
35,20,5,ISIP_5,109,9999,9999,9999,2587665456
35,20,5,ISIP_5,110,9999,9999,9999,2588165224
35,20,5,ISIP_5,111,9999,9999,9999,2588665960
35,20,5,ISIP_5,112,9999,9999,9999,2589165652
35,20,5,ISIP_5,113,9999,9999,9999,2589665392
35,20,5,ISIP_5,114,9999,9999,9999,2590166128
35,20,5,ISIP_5,115,9999,9999,9999,2590665820
35,20,5,ISIP_5,116,9999,9999,9999,2591165512
35,20,5,ISIP_5,117,9999,9999,9999,2591665204
35,20,5,ISIP_5,118,9999,9999,9999,2592165940
35,20,5,ISIP_5,119,9999,9999,9999,2592665704
35,20,5,ISIP_5,120,9999,9999,9999,2593165396
35,20,5,ISIP_5,121,9999,9999,9999,2593665084
35,20,5,ISIP_5,122,9999,9999,9999,2594165820
35,20,5,ISIP_5,123,9999,9999,9999,2594665588
35,20,5,ISIP_5,124,9999,9999,9999,2595165276
35,20,5,ISIP_5,125,9999,9999,9999,2595666016
35,20,5,ISIP_5,126,9999,9999,9999,2596165704
35,20,5,ISIP_5,127,9999,9999,9999,2596665396
35,20,5,ISIP_5,128,9999,9999,9999,2597165160
35,20,5,ISIP_5,129,9999,9999,9999,2597665896
35,20,5,ISIP_5,130,9999,9999,9999,2598165592
35,20,5,ISIP_5,131,9999,9999,9999,2598665280
35,20,5,ISIP_5,132,9999,9999,9999,2599166016
35,20,5,ISIP_5,133,9999,9999,9999,2599665784
35,20,5,ISIP_5,134,9999,9999,9999,2600165448
35,20,5,ISIP_5,135,9999,9999,9999,2600665140
35,20,5,ISIP_5,136,9999,9999,9999,2601165876
35,20,5,ISIP_5,137,9999,9999,9999,2601665640
35,20,5,ISIP_5,138,9999,9999,9999,2602165332
35,20,5,ISIP_5,139,9999,9999,9999,2602666068
35,20,5,ISIP_5,140,9999,9999,9999,2603165764
35,20,5,ISIP_5,141,9999,9999,9999,2603665528
35,20,5,ISIP_5,142,9999,9999,9999,2604165216
35,20,5,ISIP_5,143,9999,9999,9999,2604665956
35,20,5,ISIP_5,144,9999,9999,9999,2605165644
35,20,5,ISIP_5,145,9999,9999,9999,2605665336
35,20,5,ISIP_5,146,9999,9999,9999,2606166076
35,20,5,ISIP_5,147,9999,9999,9999,2606665780
35,20,5,ISIP_5,148,9999,9999,9999,2607165544
35,20,5,ISIP_5,149,9999,9999,9999,2607665236
35,20,5,ISIP_5,150,9999,9999,9999,2608165972
35,20,5,ISIP_5,151,9999,9999,9999,2608665664
35,20,5,ISIP_5,152,9999,9999,9999,2609165360
35,20,5,ISIP_5,153,9999,9999,9999,2609665120
35,20,5,ISIP_5,154,9999,9999,9999,2610165860
35,20,5,ISIP_5,155,9999,9999,9999,2610665556
35,20,5,ISIP_5,156,9999,9999,9999,2611165288
35,20,5,ISIP_5,157,9999,9999,9999,2611666028
35,20,5,ISIP_5,158,9999,9999,9999,2612165724
35,20,5,ISIP_5,159,9999,9999,9999,2612665416
35,21,3,ISIP_8,0,5,42,127,2637332968
35,21,3,ISIP_8,1,5,42,127,2638132644
35,21,3,ISIP_8,2,5,42,127,2638933300
35,21,3,ISIP_8,3,5,42,127,2639733056
35,21,3,ISIP_8,4,1,48,45,2640425360
35,21,3,ISIP_8,5,5,42,127,2640532712
35,21,3,ISIP_8,6,1,48,45,2641231452
35,21,3,ISIP_8,7,5,42,127,2641332596
35,21,3,ISIP_8,8,1,48,43,2642040012
35,21,3,ISIP_8,9,5,42,127,2642133388
35,21,3,ISIP_8,10,1,48,46,2642891956
35,21,3,ISIP_8,11,5,42,127,2642933148
35,21,3,ISIP_8,12,1,48,43,2643635664
35,21,3,ISIP_8,13,5,42,127,2643734064
35,21,3,ISIP_8,14,1,48,43,2644424252
35,21,3,ISIP_8,15,5,42,127,2644532528
35,21,3,ISIP_8,16,1,48,48,2645265452
35,21,3,ISIP_8,17,5,42,127,2645333400
35,21,3,ISIP_8,18,1,48,47,2646061220
35,21,3,ISIP_8,19,5,42,127,2646133056
35,21,3,ISIP_8,20,1,48,46,2646879280
35,21,3,ISIP_8,21,5,42,127,2646932940
35,21,3,ISIP_8,22,1,48,38,2647710280
35,21,3,ISIP_8,23,5,42,127,2647732676
35,21,3,ISIP_8,24,1,48,38,2648454064
35,21,3,ISIP_8,25,5,42,127,2648533456
35,21,3,ISIP_8,26,1,48,41,2649296208
35,21,3,ISIP_8,27,5,42,127,2649333140
35,21,3,ISIP_8,28,1,48,43,2650066544
35,21,3,ISIP_8,29,5,42,127,2650132944
35,21,3,ISIP_8,30,1,48,43,2650851420
35,21,3,ISIP_8,31,5,42,127,2650932532
35,21,3,ISIP_8,32,1,48,40,2651701864
35,21,3,ISIP_8,33,5,42,127,2651733388
35,21,3,ISIP_8,34,1,48,43,2652450804
35,21,3,ISIP_8,35,5,42,127,2652533192
35,21,3,ISIP_8,36,1,48,44,2653239020
35,21,3,ISIP_8,37,5,42,127,2653332776
35,21,3,ISIP_8,38,1,48,45,2654073608
35,21,3,ISIP_8,39,5,42,127,2654132512
35,21,3,ISIP_8,40,1,48,26,2654813508
35,21,3,ISIP_8,41,5,42,127,2654933500
35,21,3,ISIP_8,42,1,48,56,2655628720
35,21,3,ISIP_8,43,5,42,127,2655732960
35,21,3,ISIP_8,44,1,48,57,2656370484
35,21,3,ISIP_8,45,5,42,127,2656532916
35,21,3,ISIP_8,46,5,42,127,2657332892
35,21,3,ISIP_8,47,1,48,53,2657599100
35,21,3,ISIP_8,48,1,48,57,2658118752
35,21,3,ISIP_8,49,5,42,127,2658133292
35,21,3,ISIP_8,50,1,48,53,2658841968
35,21,3,ISIP_8,51,5,42,127,2658933100
35,21,3,ISIP_8,52,1,48,57,2659626440
35,21,3,ISIP_8,53,5,42,127,2659732820
35,21,3,ISIP_8,54,1,48,47,2660391840
35,21,3,ISIP_8,55,5,42,127,2660532852
35,21,3,ISIP_8,56,1,48,49,2661134356
35,21,3,ISIP_8,57,1,48,51,2661907304
35,21,3,ISIP_8,58,1,48,47,2662691028
35,21,3,ISIP_8,59,1,48,45,2663437124
35,21,3,ISIP_8,60,1,48,44,2664207536
35,21,3,ISIP_8,61,1,48,42,2665024392
35,21,3,ISIP_8,62,1,48,41,2665800408
35,21,3,ISIP_8,63,1,48,44,2666479336
35,21,3,ISIP_8,64,1,48,38,2667383412
35,21,3,ISIP_8,65,1,48,41,2668153444
35,21,3,ISIP_8,66,1,48,44,2668922508
35,21,3,ISIP_8,67,1,48,43,2669721488
35,21,3,ISIP_8,68,1,48,43,2670510448
35,21,3,ISIP_8,69,1,48,36,2671325660
35,21,3,ISIP_8,70,1,48,43,2672075424
35,21,3,ISIP_8,71,1,48,39,2672855928
35,21,3,ISIP_8,72,1,48,39,2673600456
35,21,3,ISIP_8,73,1,48,38,2674417416
35,21,3,ISIP_8,74,1,48,39,2675184532
35,21,3,ISIP_8,75,1,48,36,2675953368
35,21,3,ISIP_8,76,1,48,38,2676701012
35,21,3,ISIP_8,77,1,48,38,2677549092
35,21,3,ISIP_8,78,1,48,40,2678298780
35,21,3,ISIP_8,79,1,48,33,2679101048
35,21,3,ISIP_8,80,1,48,43,2679850368
35,21,3,ISIP_8,81,1,48,38,2680635356
35,21,3,ISIP_8,82,1,48,41,2681386544
35,21,3,ISIP_8,83,1,48,39,2682161664
35,21,3,ISIP_8,84,1,48,43,2682994528
35,21,3,ISIP_8,85,1,48,43,2683711072
35,21,3,ISIP_8,86,1,48,40,2684517908
35,21,3,ISIP_8,87,1,48,38,2685269020
35,21,3,ISIP_8,88,1,48,38,2686049824
35,21,3,ISIP_8,89,1,48,46,2686760840
35,21,3,ISIP_8,90,1,48,43,2687544864
35,21,3,ISIP_8,91,1,48,33,2688374660
35,21,3,ISIP_8,92,1,48,40,2689134900
35,21,3,ISIP_8,93,1,48,47,2689869928
35,21,3,ISIP_8,94,1,48,45,2690674820
35,21,3,ISIP_8,95,1,48,49,2691500500
35,21,3,ISIP_8,96,1,48,41,2692277268
35,21,3,ISIP_8,97,1,48,48,2693087692
35,21,3,ISIP_8,98,1,48,45,2693847232
35,21,3,ISIP_8,99,1,48,39,2694592204
35,21,3,ISIP_8,100,1,48,45,2695327680
35,21,3,ISIP_8,101,1,48,41,2696088516
35,21,3,ISIP_8,102,1,48,48,2696916520
35,21,3,ISIP_8,103,1,48,44,2697635920
35,21,3,ISIP_8,104,1,48,47,2698408568
35,21,3,ISIP_8,105,1,48,44,2699187504
35,21,3,ISIP_8,106,1,48,46,2699991644
35,21,3,ISIP_8,107,1,48,47,2700739312
35,21,3,ISIP_8,108,1,48,43,2701505836
35,21,3,ISIP_8,109,1,48,50,2702261284
35,21,3,ISIP_8,110,1,48,43,2703012992
35,21,3,ISIP_8,111,1,48,44,2703790284
35,21,3,ISIP_8,112,1,48,44,2704559864
35,21,3,ISIP_8,113,1,48,49,2705340220
35,21,3,ISIP_8,114,1,48,46,2706071724
35,21,3,ISIP_8,115,1,48,45,2706916656
35,21,3,ISIP_8,116,1,48,49,2707633104
35,21,3,ISIP_8,117,1,48,47,2708415564
35,21,3,ISIP_8,118,1,48,42,2709160760
35,21,3,ISIP_8,119,1,48,46,2709894448
35,21,3,ISIP_8,120,1,48,46,2710712428
35,21,3,ISIP_8,121,1,48,50,2711467944
35,21,3,ISIP_8,122,1,48,44,2712217040
35,21,3,ISIP_8,123,1,48,43,2713013924
35,21,3,ISIP_8,124,1,48,42,2713802360
35,21,3,ISIP_8,125,1,48,49,2714611460
35,21,3,ISIP_8,126,1,48,52,2715358832
35,21,3,ISIP_8,127,1,48,45,2716148240
35,21,3,ISIP_8,128,1,48,46,2716939744
35,21,3,ISIP_8,129,1,48,46,2717720772
35,21,3,ISIP_8,130,1,48,41,2718530896
35,21,3,ISIP_8,131,1,48,42,2719282756
35,21,3,ISIP_8,132,1,48,46,2720070516
35,21,3,ISIP_8,133,1,48,48,2720819832
35,21,3,ISIP_8,134,1,48,45,2721594728
35,21,3,ISIP_8,135,1,48,39,2722408892
35,21,3,ISIP_8,136,1,48,35,2723137568
35,21,3,ISIP_8,137,1,48,35,2723955996
35,21,3,ISIP_8,138,1,48,48,2724749140
35,21,3,ISIP_8,139,1,48,49,2726257292
35,21,3,ISIP_8,140,1,48,47,2727058820
35,21,3,ISIP_8,141,1,48,46,2727833720
35,21,3,ISIP_8,142,1,48,51,2728643460
35,21,3,ISIP_8,143,1,48,48,2729371016
35,21,3,ISIP_8,144,1,48,45,2730152492
35,21,3,ISIP_8,145,1,48,42,2730881448
35,21,3,ISIP_8,146,1,48,44,2731680428
35,21,3,ISIP_8,147,1,48,47,2732469984
35,21,3,ISIP_8,148,1,48,50,2733279764
35,21,3,ISIP_8,149,1,48,48,2734043192
35,21,3,ISIP_8,150,1,48,40,2734871216
35,21,3,ISIP_8,151,1,48,54,2735643944
35,21,3,ISIP_8,152,1,48,46,2736494688
35,21,3,ISIP_8,153,1,48,49,2737247140
35,21,3,ISIP_8,154,1,48,43,2737989200
35,21,3,ISIP_8,155,1,48,41,2738782944
35,21,3,ISIP_8,156,1,48,43,2739511396
35,21,3,ISIP_8,157,1,48,52,2740311944
35,21,3,ISIP_8,158,1,48,40,2741136584
35,21,3,ISIP_8,159,1,48,40,2741880660
35,21,3,ISIP_8,160,1,48,16,2741994880
35,21,3,ISIP_8,161,1,48,52,2742697496
35,21,3,ISIP_8,162,1,48,48,2743479872
35,21,3,ISIP_8,163,1,48,50,2744272348
35,21,3,ISIP_8,164,1,48,32,2745067688
35,21,3,ISIP_8,165,1,48,39,2745881928
35,21,3,ISIP_8,166,1,48,41,2746634984
35,21,3,ISIP_8,167,1,48,43,2747455208
35,21,3,ISIP_8,168,1,48,49,2748245884
35,21,3,ISIP_8,169,1,48,38,2749022652
35,21,3,ISIP_8,170,1,48,43,2749804660
35,21,3,ISIP_8,171,1,48,34,2750552996
35,21,3,ISIP_8,172,1,48,43,2751339792
35,21,3,ISIP_8,173,1,48,39,2752105712
35,21,3,ISIP_8,174,1,48,38,2752858088
35,21,3,ISIP_8,175,1,48,36,2753658048
35,21,3,ISIP_8,176,1,48,37,2754449848
35,21,3,ISIP_8,177,1,48,50,2755201260
35,21,3,ISIP_8,178,1,48,36,2755973008
35,21,3,ISIP_8,179,1,48,17,2756799140
35,21,3,ISIP_8,0,9999,9999,9999,2637330528
35,21,3,ISIP_8,1,9999,9999,9999,2638130284
35,21,3,ISIP_8,2,9999,9999,9999,2638931012
35,21,3,ISIP_8,3,9999,9999,9999,2639730768
35,21,3,ISIP_8,4,9999,9999,9999,2640530500
35,21,3,ISIP_8,5,9999,9999,9999,2641330232
35,21,3,ISIP_8,6,9999,9999,9999,2642131028
35,21,3,ISIP_8,7,9999,9999,9999,2642930788
35,21,3,ISIP_8,8,9999,9999,9999,2643730520
35,21,3,ISIP_8,9,9999,9999,9999,2644530236
35,21,3,ISIP_8,10,9999,9999,9999,2645331036
35,21,3,ISIP_8,11,9999,9999,9999,2646130772
35,21,3,ISIP_8,12,9999,9999,9999,2646930504
35,21,3,ISIP_8,13,9999,9999,9999,2647730240
35,21,3,ISIP_8,14,9999,9999,9999,2648531020
35,21,3,ISIP_8,15,9999,9999,9999,2649330776
35,21,3,ISIP_8,16,9999,9999,9999,2650130508
35,21,3,ISIP_8,17,9999,9999,9999,2650930244
35,21,3,ISIP_8,18,9999,9999,9999,2651731024
35,21,3,ISIP_8,19,9999,9999,9999,2652530756
35,21,3,ISIP_8,20,9999,9999,9999,2653330492
35,21,3,ISIP_8,21,9999,9999,9999,2654130224
35,21,3,ISIP_8,22,9999,9999,9999,2654931060
35,21,3,ISIP_8,23,9999,9999,9999,2655730744
35,21,3,ISIP_8,24,9999,9999,9999,2656530476
35,21,3,ISIP_8,25,9999,9999,9999,2657330232
35,21,3,ISIP_8,26,9999,9999,9999,2658131008
35,21,3,ISIP_8,27,9999,9999,9999,2658930740
35,21,3,ISIP_8,28,9999,9999,9999,2659730532
35,21,3,ISIP_8,29,9999,9999,9999,2660530264
35,21,3,ISIP_8,30,9999,9999,9999,2661331044
35,21,3,ISIP_8,31,9999,9999,9999,2662130800
35,21,3,ISIP_8,32,9999,9999,9999,2662930528
35,21,3,ISIP_8,33,9999,9999,9999,2663730256
35,21,3,ISIP_8,34,9999,9999,9999,2664531032
35,21,3,ISIP_8,35,9999,9999,9999,2665330764
35,21,3,ISIP_8,36,9999,9999,9999,2666130492
35,21,3,ISIP_8,37,9999,9999,9999,2666930296
35,21,3,ISIP_8,38,9999,9999,9999,2667730996
35,21,3,ISIP_8,39,9999,9999,9999,2668530752
35,21,3,ISIP_8,40,9999,9999,9999,2669330480
35,21,3,ISIP_8,41,9999,9999,9999,2670130284
35,21,3,ISIP_8,42,9999,9999,9999,2670931060
35,21,3,ISIP_8,43,9999,9999,9999,2671730788
35,21,3,ISIP_8,44,9999,9999,9999,2672530516
35,21,3,ISIP_8,45,9999,9999,9999,2673330248
35,21,3,ISIP_8,46,9999,9999,9999,2674131020
35,21,3,ISIP_8,47,9999,9999,9999,2674930776
35,21,3,ISIP_8,48,9999,9999,9999,2675730504
35,21,3,ISIP_8,49,9999,9999,9999,2676530236
35,21,3,ISIP_8,50,9999,9999,9999,2677331008
35,21,3,ISIP_8,51,9999,9999,9999,2678130740
35,21,3,ISIP_8,52,9999,9999,9999,2678930544
35,21,3,ISIP_8,53,9999,9999,9999,2679730272
35,21,3,ISIP_8,54,9999,9999,9999,2680531048
35,21,3,ISIP_8,55,9999,9999,9999,2681330804
35,21,3,ISIP_8,56,9999,9999,9999,2682130532
35,21,3,ISIP_8,57,9999,9999,9999,2682930260
35,21,3,ISIP_8,58,9999,9999,9999,2683731032
35,21,3,ISIP_8,59,9999,9999,9999,2684530760
35,21,3,ISIP_8,60,9999,9999,9999,2685330492
35,21,3,ISIP_8,61,9999,9999,9999,2686130292
35,21,3,ISIP_8,62,9999,9999,9999,2686931056
35,21,3,ISIP_8,63,9999,9999,9999,2687730736
35,21,3,ISIP_8,64,9999,9999,9999,2688530536
35,21,3,ISIP_8,65,9999,9999,9999,2689330268
35,21,3,ISIP_8,66,9999,9999,9999,2690131044
35,21,3,ISIP_8,67,9999,9999,9999,2690930772
35,21,3,ISIP_8,68,9999,9999,9999,2691730500
35,21,3,ISIP_8,69,9999,9999,9999,2692530232
35,21,3,ISIP_8,70,9999,9999,9999,2693331056
35,21,3,ISIP_8,71,9999,9999,9999,2694130736
35,21,3,ISIP_8,72,9999,9999,9999,2694930540
35,21,3,ISIP_8,73,9999,9999,9999,2695730268
35,21,3,ISIP_8,74,9999,9999,9999,2696531044
35,21,3,ISIP_8,75,9999,9999,9999,2697330776
35,21,3,ISIP_8,76,9999,9999,9999,2698130504
35,21,3,ISIP_8,77,9999,9999,9999,2698930232
35,21,3,ISIP_8,78,9999,9999,9999,2699731008
35,21,3,ISIP_8,79,9999,9999,9999,2700530760
35,21,3,ISIP_8,80,9999,9999,9999,2701330492
35,21,3,ISIP_8,81,9999,9999,9999,2702130292
35,21,3,ISIP_8,82,9999,9999,9999,2702930992
35,21,3,ISIP_8,83,9999,9999,9999,2703730800
35,21,3,ISIP_8,84,9999,9999,9999,2704530528
35,21,3,ISIP_8,85,9999,9999,9999,2705330256
35,21,3,ISIP_8,86,9999,9999,9999,2706131024
35,21,3,ISIP_8,87,9999,9999,9999,2706930780
35,21,3,ISIP_8,88,9999,9999,9999,2707730496
35,21,3,ISIP_8,89,9999,9999,9999,2708530224
35,21,3,ISIP_8,90,9999,9999,9999,2709331000
35,21,3,ISIP_8,91,9999,9999,9999,2710130804
35,21,3,ISIP_8,92,9999,9999,9999,2710930532
35,21,3,ISIP_8,93,9999,9999,9999,2711730264
35,21,3,ISIP_8,94,9999,9999,9999,2712531036
35,21,3,ISIP_8,95,9999,9999,9999,2713330792
35,21,3,ISIP_8,96,9999,9999,9999,2714130520
35,21,3,ISIP_8,97,9999,9999,9999,2714930248
35,21,3,ISIP_8,98,9999,9999,9999,2715731024
35,21,3,ISIP_8,99,9999,9999,9999,2716530752
35,21,3,ISIP_8,100,9999,9999,9999,2717330484
35,21,3,ISIP_8,101,9999,9999,9999,2718130288
35,21,3,ISIP_8,102,9999,9999,9999,2718931064
35,21,3,ISIP_8,103,9999,9999,9999,2719730744
35,21,3,ISIP_8,104,9999,9999,9999,2720530548
35,21,3,ISIP_8,105,9999,9999,9999,2721330276
35,21,3,ISIP_8,106,9999,9999,9999,2722131052
35,21,3,ISIP_8,107,9999,9999,9999,2722930780
35,21,3,ISIP_8,108,9999,9999,9999,2723730512
35,21,3,ISIP_8,109,9999,9999,9999,2724530240
35,21,3,ISIP_8,110,9999,9999,9999,2725331016
35,21,3,ISIP_8,111,9999,9999,9999,2726130792
35,21,3,ISIP_8,112,9999,9999,9999,2726930524
35,21,3,ISIP_8,113,9999,9999,9999,2727730252
35,21,3,ISIP_8,114,9999,9999,9999,2728531028
35,21,3,ISIP_8,115,9999,9999,9999,2729330756
35,21,3,ISIP_8,116,9999,9999,9999,2730130484
35,21,3,ISIP_8,117,9999,9999,9999,2730930280
35,21,3,ISIP_8,118,9999,9999,9999,2731731056
35,21,3,ISIP_8,119,9999,9999,9999,2732530736
35,21,3,ISIP_8,120,9999,9999,9999,2733330540
35,21,3,ISIP_8,121,9999,9999,9999,2734130268
35,21,3,ISIP_8,122,9999,9999,9999,2734931044
35,21,3,ISIP_8,123,9999,9999,9999,2735730772
35,21,3,ISIP_8,124,9999,9999,9999,2736530504
35,21,3,ISIP_8,125,9999,9999,9999,2737330232
35,21,3,ISIP_8,126,9999,9999,9999,2738130992
35,21,3,ISIP_8,127,9999,9999,9999,2738930744
35,21,3,ISIP_8,128,9999,9999,9999,2739730552
35,21,3,ISIP_8,129,9999,9999,9999,2740530280
35,21,3,ISIP_8,130,9999,9999,9999,2741331056
35,21,3,ISIP_8,131,9999,9999,9999,2742130760
35,21,3,ISIP_8,132,9999,9999,9999,2742930488
35,21,3,ISIP_8,133,9999,9999,9999,2743730296
35,21,3,ISIP_8,134,9999,9999,9999,2744530996
35,21,3,ISIP_8,135,9999,9999,9999,2745330748
35,21,3,ISIP_8,136,9999,9999,9999,2746130480
35,21,3,ISIP_8,137,9999,9999,9999,2746930284
35,21,3,ISIP_8,138,9999,9999,9999,2747731060
35,21,3,ISIP_8,139,9999,9999,9999,2748530788
35,21,3,ISIP_8,140,9999,9999,9999,2749330516
35,21,3,ISIP_8,141,9999,9999,9999,2750130248
35,21,3,ISIP_8,142,9999,9999,9999,2750931024
35,21,3,ISIP_8,143,9999,9999,9999,2751730780
35,21,3,ISIP_8,144,9999,9999,9999,2752530508
35,21,3,ISIP_8,145,9999,9999,9999,2753330240
35,21,3,ISIP_8,146,9999,9999,9999,2754131016
35,21,3,ISIP_8,147,9999,9999,9999,2754930744
35,21,3,ISIP_8,148,9999,9999,9999,2755730548
35,21,3,ISIP_8,149,9999,9999,9999,2756530276
35,22,11,Pattern_Practice,0,5,42,127,2871299432
35,22,11,Pattern_Practice,1,5,42,127,2871800268
35,22,11,Pattern_Practice,2,5,42,127,2872299760
35,22,11,Pattern_Practice,3,5,42,127,2872799476
35,22,11,Pattern_Practice,4,1,48,54,2873268908
35,22,11,Pattern_Practice,5,5,42,127,2873300232
35,22,11,Pattern_Practice,6,1,48,48,2873437524
35,22,11,Pattern_Practice,7,1,48,49,2873738664
35,22,11,Pattern_Practice,8,5,42,127,2873800252
35,22,11,Pattern_Practice,9,1,48,51,2874244196
35,22,11,Pattern_Practice,10,5,42,127,2874299952
35,22,11,Pattern_Practice,11,1,48,42,2874401584
35,22,11,Pattern_Practice,12,1,48,51,2874778420
35,22,11,Pattern_Practice,13,5,42,127,2874799472
35,22,11,Pattern_Practice,14,1,48,51,2875289332
35,22,11,Pattern_Practice,15,5,42,127,2875300288
35,22,11,Pattern_Practice,16,1,48,42,2875466328
35,22,11,Pattern_Practice,17,1,48,54,2875796568
35,22,11,Pattern_Practice,18,5,42,127,2875799888
35,22,11,Pattern_Practice,19,1,48,65,2876289972
35,22,11,Pattern_Practice,20,5,42,127,2876299584
35,22,11,Pattern_Practice,21,1,38,51,2876536676
35,22,11,Pattern_Practice,22,5,42,127,2876800312
35,22,11,Pattern_Practice,23,1,48,64,2876840008
35,22,11,Pattern_Practice,24,5,42,127,2877300076
35,22,11,Pattern_Practice,25,1,48,62,2877303792
35,22,11,Pattern_Practice,26,1,38,43,2877495804
35,22,11,Pattern_Practice,27,5,42,127,2877799976
35,22,11,Pattern_Practice,28,1,48,59,2877828156
35,22,11,Pattern_Practice,29,5,42,127,2878299372
35,22,11,Pattern_Practice,30,1,48,65,2878318420
35,22,11,Pattern_Practice,31,1,38,39,2878525764
35,22,11,Pattern_Practice,32,5,42,127,2878800092
35,22,11,Pattern_Practice,33,1,48,61,2878820112
35,22,11,Pattern_Practice,34,5,42,127,2879300008
35,22,11,Pattern_Practice,35,1,48,56,2879304852
35,22,11,Pattern_Practice,36,1,48,41,2879543080
35,22,11,Pattern_Practice,37,5,42,127,2879799832
35,22,11,Pattern_Practice,38,1,48,59,2879844312
35,22,11,Pattern_Practice,39,5,42,127,2880300352
35,22,11,Pattern_Practice,40,1,48,54,2880309528
35,22,11,Pattern_Practice,41,1,48,44,2880506768
35,22,11,Pattern_Practice,42,5,42,127,2880800096
35,22,11,Pattern_Practice,43,1,48,55,2880820568
35,22,11,Pattern_Practice,44,1,48,51,2881292192
35,22,11,Pattern_Practice,45,5,42,127,2881300008
35,22,11,Pattern_Practice,46,1,48,35,2881516012
35,22,11,Pattern_Practice,47,5,42,127,2881799688
35,22,11,Pattern_Practice,48,1,48,56,2881815072
35,22,11,Pattern_Practice,49,1,48,56,2882291112
35,22,11,Pattern_Practice,50,5,42,127,2882300124
35,22,11,Pattern_Practice,51,1,38,28,2882562796
35,22,11,Pattern_Practice,52,5,42,127,2882799952
35,22,11,Pattern_Practice,53,1,48,59,2882813540
35,22,11,Pattern_Practice,54,1,48,63,2883292500
35,22,11,Pattern_Practice,55,5,42,127,2883299788
35,22,11,Pattern_Practice,56,1,38,54,2883545936
35,22,11,Pattern_Practice,57,5,42,127,2883800368
35,22,11,Pattern_Practice,58,1,48,62,2883809324
35,22,11,Pattern_Practice,59,1,48,61,2884293940
35,22,11,Pattern_Practice,60,5,42,127,2884300104
35,22,11,Pattern_Practice,61,1,38,36,2884518204
35,22,11,Pattern_Practice,62,5,42,127,2884799784
35,22,11,Pattern_Practice,63,1,48,62,2884820504
35,22,11,Pattern_Practice,64,1,48,56,2885267800
35,22,11,Pattern_Practice,65,5,42,127,2885299548
35,22,11,Pattern_Practice,66,1,38,51,2885506500
35,22,11,Pattern_Practice,67,5,42,127,2885800276
35,22,11,Pattern_Practice,68,1,48,60,2885817228
35,22,11,Pattern_Practice,69,1,48,47,2886240316
35,22,11,Pattern_Practice,70,5,42,127,2886299964
35,22,11,Pattern_Practice,71,1,48,56,2886477816
35,22,11,Pattern_Practice,72,5,42,127,2886799716
35,22,11,Pattern_Practice,73,1,48,59,2886935852
35,22,11,Pattern_Practice,74,5,42,127,2887299708
35,22,11,Pattern_Practice,75,1,48,58,2887469724
35,22,11,Pattern_Practice,76,1,48,40,2887709756
35,22,11,Pattern_Practice,77,5,42,127,2887800292
35,22,11,Pattern_Practice,78,1,48,57,2887961172
35,22,11,Pattern_Practice,79,5,42,127,2888299824
35,22,11,Pattern_Practice,80,1,48,57,2888443584
35,22,11,Pattern_Practice,81,5,42,127,2888799744
35,22,11,Pattern_Practice,82,1,48,32,2888997736
35,22,11,Pattern_Practice,83,5,42,127,2889300484
35,22,11,Pattern_Practice,84,1,48,59,2889502144
35,22,11,Pattern_Practice,85,5,42,127,2889799960
35,22,11,Pattern_Practice,86,1,48,49,2889829632
35,22,11,Pattern_Practice,87,1,48,56,2890014680
35,22,11,Pattern_Practice,88,5,42,127,2890299708
35,22,11,Pattern_Practice,89,1,48,53,2890443900
35,22,11,Pattern_Practice,90,1,48,39,2890781860
35,22,11,Pattern_Practice,91,5,42,127,2890799620
35,22,11,Pattern_Practice,92,1,48,51,2891044048
35,22,11,Pattern_Practice,93,5,42,127,2891300348
35,22,11,Pattern_Practice,94,1,48,57,2891542020
35,22,11,Pattern_Practice,95,1,48,39,2891729664
35,22,11,Pattern_Practice,96,5,42,127,2891799788
35,22,11,Pattern_Practice,97,1,48,59,2892044284
35,22,11,Pattern_Practice,98,5,42,127,2892299616
35,22,11,Pattern_Practice,99,1,48,57,2892535456
35,22,11,Pattern_Practice,100,1,48,31,2892736484
35,22,11,Pattern_Practice,101,5,42,127,2892800648
35,22,11,Pattern_Practice,102,1,48,59,2893044624
35,22,11,Pattern_Practice,103,5,42,127,2893299956
35,22,11,Pattern_Practice,104,1,48,54,2893551652
35,22,11,Pattern_Practice,105,1,48,44,2893779636
35,22,11,Pattern_Practice,106,5,42,127,2893799792
35,22,11,Pattern_Practice,107,1,48,58,2894062992
35,22,11,Pattern_Practice,108,5,42,127,2894299544
35,22,11,Pattern_Practice,109,1,48,51,2894605844
35,22,11,Pattern_Practice,110,5,42,127,2894800336
35,22,11,Pattern_Practice,111,1,48,58,2894819108
35,22,11,Pattern_Practice,112,1,48,51,2895106268
35,22,11,Pattern_Practice,113,5,42,127,2895299936
35,22,11,Pattern_Practice,114,1,48,69,2895640668
35,22,11,Pattern_Practice,115,5,42,127,2895799704
35,22,11,Pattern_Practice,116,1,38,43,2895858876
35,22,11,Pattern_Practice,117,1,48,57,2896162180
35,22,11,Pattern_Practice,118,5,42,127,2896300500
35,22,11,Pattern_Practice,119,1,48,60,2896731808
35,22,11,Pattern_Practice,120,5,42,127,2896800208
35,22,11,Pattern_Practice,121,1,38,48,2896964976
35,22,11,Pattern_Practice,122,1,48,62,2897284368
35,22,11,Pattern_Practice,123,5,42,127,2897299884
35,22,11,Pattern_Practice,124,1,48,58,2897786156
35,22,11,Pattern_Practice,125,5,42,127,2897799504
35,22,11,Pattern_Practice,126,1,38,56,2898045796
35,22,11,Pattern_Practice,127,5,42,127,2898300156
35,22,11,Pattern_Practice,128,1,48,57,2898347628
35,22,11,Pattern_Practice,129,5,42,127,2898799924
35,22,11,Pattern_Practice,130,1,48,59,2898823688
35,22,11,Pattern_Practice,131,1,38,59,2899037908
35,22,11,Pattern_Practice,132,5,42,127,2899299596
35,22,11,Pattern_Practice,133,1,48,59,2899341612
35,22,11,Pattern_Practice,134,5,42,127,2899800340
35,22,11,Pattern_Practice,135,1,48,60,2899943952
35,22,11,Pattern_Practice,136,1,38,61,2900145212
35,22,11,Pattern_Practice,137,5,42,127,2900300380
35,22,11,Pattern_Practice,138,1,48,59,2900433524
35,22,11,Pattern_Practice,139,5,42,127,2900800004
35,22,11,Pattern_Practice,140,1,48,62,2900901704
35,22,11,Pattern_Practice,141,1,38,56,2901124084
35,22,11,Pattern_Practice,142,5,42,127,2901299452
35,22,11,Pattern_Practice,143,1,48,64,2901388212
35,22,11,Pattern_Practice,144,5,42,127,2901800420
35,22,11,Pattern_Practice,145,1,48,56,2901912668
35,22,11,Pattern_Practice,146,1,48,49,2902119036
35,22,11,Pattern_Practice,147,5,42,127,2902300316
35,22,11,Pattern_Practice,148,1,48,60,2902436056
35,22,11,Pattern_Practice,149,5,42,127,2902799712
35,22,11,Pattern_Practice,150,1,48,62,2902929016
35,22,11,Pattern_Practice,151,1,48,41,2903199488
35,22,11,Pattern_Practice,152,5,42,127,2903299316
35,22,11,Pattern_Practice,153,1,48,62,2903411336
35,22,11,Pattern_Practice,154,5,42,127,2903800204
35,22,11,Pattern_Practice,155,1,48,57,2903929960
35,22,11,Pattern_Practice,156,1,48,56,2904181500
35,22,11,Pattern_Practice,157,5,42,127,2904300100
35,22,11,Pattern_Practice,158,1,48,56,2904417808
35,22,11,Pattern_Practice,159,5,42,127,2904799796
35,22,11,Pattern_Practice,160,1,48,54,2904919524
35,22,11,Pattern_Practice,161,1,48,55,2905174884
35,22,11,Pattern_Practice,162,5,42,127,2905300292
35,22,11,Pattern_Practice,163,1,48,55,2905422636
35,22,11,Pattern_Practice,164,5,42,127,2905800112
35,22,11,Pattern_Practice,165,1,48,51,2905990096
35,22,11,Pattern_Practice,166,1,48,40,2906238284
35,22,11,Pattern_Practice,167,5,42,127,2906300172
35,22,11,Pattern_Practice,168,1,48,57,2906479004
35,22,11,Pattern_Practice,169,5,42,127,2906799552
35,22,11,Pattern_Practice,170,1,48,50,2906997996
35,22,11,Pattern_Practice,171,1,48,52,2907240412
35,22,11,Pattern_Practice,172,5,42,127,2907300288
35,22,11,Pattern_Practice,173,1,48,50,2907466476
35,22,11,Pattern_Practice,174,5,42,127,2907799892
35,22,11,Pattern_Practice,175,1,38,47,2908066028
35,22,11,Pattern_Practice,176,5,42,127,2908299588
35,22,11,Pattern_Practice,177,1,38,59,2908322004
35,22,11,Pattern_Practice,178,1,38,48,2908574672
35,22,11,Pattern_Practice,179,5,42,127,2908800380
35,22,11,Pattern_Practice,180,1,38,58,2909109896
35,22,11,Pattern_Practice,181,5,42,127,2909300072
35,22,11,Pattern_Practice,182,1,38,46,2909357792
35,22,11,Pattern_Practice,183,1,38,54,2909594532
35,22,11,Pattern_Practice,184,5,42,127,2909799968
35,22,11,Pattern_Practice,185,1,38,58,2910137388
35,22,11,Pattern_Practice,186,5,42,127,2910299592
35,22,11,Pattern_Practice,187,1,38,31,2910399500
35,22,11,Pattern_Practice,188,1,38,54,2910662412
35,22,11,Pattern_Practice,189,5,42,127,2910800232
35,22,11,Pattern_Practice,190,1,48,58,2911235732
35,22,11,Pattern_Practice,0,9999,9999,9999,2871297140
35,22,11,Pattern_Practice,1,9999,9999,9999,2871797832
35,22,11,Pattern_Practice,2,9999,9999,9999,2872297548
35,22,11,Pattern_Practice,3,9999,9999,9999,2872797264
35,22,11,Pattern_Practice,4,9999,9999,9999,2873297996
35,22,11,Pattern_Practice,5,9999,9999,9999,2873797744
35,22,11,Pattern_Practice,6,9999,9999,9999,2874297440
35,22,11,Pattern_Practice,7,9999,9999,9999,2874797112
35,22,11,Pattern_Practice,8,9999,9999,9999,2875297852
35,22,11,Pattern_Practice,9,9999,9999,9999,2875797600
35,22,11,Pattern_Practice,10,9999,9999,9999,2876297296
35,22,11,Pattern_Practice,11,9999,9999,9999,2876798020
35,22,11,Pattern_Practice,12,9999,9999,9999,2877297716
35,22,11,Pattern_Practice,13,9999,9999,9999,2877797464
35,22,11,Pattern_Practice,14,9999,9999,9999,2878297160
35,22,11,Pattern_Practice,15,9999,9999,9999,2878797876
35,22,11,Pattern_Practice,16,9999,9999,9999,2879297648
35,22,11,Pattern_Practice,17,9999,9999,9999,2879797320
35,22,11,Pattern_Practice,18,9999,9999,9999,2880298060
35,22,11,Pattern_Practice,19,9999,9999,9999,2880797808
35,22,11,Pattern_Practice,20,9999,9999,9999,2881297496
35,22,11,Pattern_Practice,21,9999,9999,9999,2881797176
35,22,11,Pattern_Practice,22,9999,9999,9999,2882297912
35,22,11,Pattern_Practice,23,9999,9999,9999,2882797664
35,22,11,Pattern_Practice,24,9999,9999,9999,2883297352
35,22,11,Pattern_Practice,25,9999,9999,9999,2883798080
35,22,11,Pattern_Practice,26,9999,9999,9999,2884297816
35,22,11,Pattern_Practice,27,9999,9999,9999,2884797496
35,22,11,Pattern_Practice,28,9999,9999,9999,2885297260
35,22,11,Pattern_Practice,29,9999,9999,9999,2885797988
35,22,11,Pattern_Practice,30,9999,9999,9999,2886297676
35,22,11,Pattern_Practice,31,9999,9999,9999,2886797428
35,22,11,Pattern_Practice,32,9999,9999,9999,2887297124
35,22,11,Pattern_Practice,33,9999,9999,9999,2887797856
35,22,11,Pattern_Practice,34,9999,9999,9999,2888297536
35,22,11,Pattern_Practice,35,9999,9999,9999,2888797232
35,22,11,Pattern_Practice,36,9999,9999,9999,2889297976
35,22,11,Pattern_Practice,37,9999,9999,9999,2889797748
35,22,11,Pattern_Practice,38,9999,9999,9999,2890297420
35,22,11,Pattern_Practice,39,9999,9999,9999,2890797108
35,22,11,Pattern_Practice,40,9999,9999,9999,2891297908
35,22,11,Pattern_Practice,41,9999,9999,9999,2891797576
35,22,11,Pattern_Practice,42,9999,9999,9999,2892297328
35,22,11,Pattern_Practice,43,9999,9999,9999,2892798064
35,22,11,Pattern_Practice,44,9999,9999,9999,2893297740
35,22,11,Pattern_Practice,45,9999,9999,9999,2893797428
35,22,11,Pattern_Practice,46,9999,9999,9999,2894297184
35,22,11,Pattern_Practice,47,9999,9999,9999,2894797900
35,22,11,Pattern_Practice,48,9999,9999,9999,2895297648
35,22,11,Pattern_Practice,49,9999,9999,9999,2895797344
35,22,11,Pattern_Practice,50,9999,9999,9999,2896298060
35,22,11,Pattern_Practice,51,9999,9999,9999,2896797772
35,22,11,Pattern_Practice,52,9999,9999,9999,2897297520
35,22,11,Pattern_Practice,53,9999,9999,9999,2897797216
35,22,11,Pattern_Practice,54,9999,9999,9999,2898297944
35,22,11,Pattern_Practice,55,9999,9999,9999,2898797636
35,22,11,Pattern_Practice,56,9999,9999,9999,2899297384
35,22,11,Pattern_Practice,57,9999,9999,9999,2899798124
35,22,11,Pattern_Practice,58,9999,9999,9999,2900297796
35,22,11,Pattern_Practice,59,9999,9999,9999,2900797492
35,22,11,Pattern_Practice,60,9999,9999,9999,2901297240
35,22,11,Pattern_Practice,61,9999,9999,9999,2901797980
35,22,11,Pattern_Practice,62,9999,9999,9999,2902297656
35,22,11,Pattern_Practice,63,9999,9999,9999,2902797424
35,22,11,Pattern_Practice,64,9999,9999,9999,2903297100
35,22,11,Pattern_Practice,65,9999,9999,9999,2903797844
35,22,11,Pattern_Practice,66,9999,9999,9999,2904297588
35,22,11,Pattern_Practice,67,9999,9999,9999,2904797284
35,22,11,Pattern_Practice,68,9999,9999,9999,2905298004
35,22,11,Pattern_Practice,69,9999,9999,9999,2905797748
35,22,11,Pattern_Practice,70,9999,9999,9999,2906297436
35,22,11,Pattern_Practice,71,9999,9999,9999,2906797116
35,22,11,Pattern_Practice,72,9999,9999,9999,2907297852
35,22,11,Pattern_Practice,73,9999,9999,9999,2907797604
35,22,11,Pattern_Practice,74,9999,9999,9999,2908297300
35,22,11,Pattern_Practice,75,9999,9999,9999,2908798020
35,22,11,Pattern_Practice,76,9999,9999,9999,2909297784
35,22,11,Pattern_Practice,77,9999,9999,9999,2909797460
35,22,11,Pattern_Practice,78,9999,9999,9999,2910297152
35,22,11,Pattern_Practice,79,9999,9999,9999,2910797944
35,23,13,Improv_Metronome,0,5,42,127,2945698400
35,23,13,Improv_Metronome,1,5,42,127,2946197968
35,23,13,Improv_Metronome,2,5,42,127,2946697684
35,23,13,Improv_Metronome,3,1,48,49,2946766428
35,23,13,Improv_Metronome,4,5,42,127,2947198504
35,23,13,Improv_Metronome,5,1,48,43,2947268716
35,23,13,Improv_Metronome,6,5,42,127,2947697900
35,23,13,Improv_Metronome,7,1,48,48,2947706180
35,23,13,Improv_Metronome,8,5,42,127,2948197592
35,23,13,Improv_Metronome,9,1,48,56,2948202880
35,23,13,Improv_Metronome,10,1,48,47,2948663592
35,23,13,Improv_Metronome,11,5,42,127,2948697580
35,23,13,Improv_Metronome,12,1,48,53,2948917548
35,23,13,Improv_Metronome,13,5,42,127,2949198376
35,23,13,Improv_Metronome,14,1,48,51,2949210548
35,23,13,Improv_Metronome,15,1,48,56,2949670880
35,23,13,Improv_Metronome,16,5,42,127,2949697844
35,23,13,Improv_Metronome,17,1,48,43,2949914444
35,23,13,Improv_Metronome,18,5,42,127,2950197748
35,23,13,Improv_Metronome,19,1,48,54,2950226596
35,23,13,Improv_Metronome,20,1,48,49,2950675564
35,23,13,Improv_Metronome,21,5,42,127,2950698556
35,23,13,Improv_Metronome,22,1,48,33,2950887708
35,23,13,Improv_Metronome,23,5,42,127,2951198160
35,23,13,Improv_Metronome,24,1,48,56,2951200680
35,23,13,Improv_Metronome,25,1,48,57,2951669092
35,23,13,Improv_Metronome,26,5,42,127,2951697848
35,23,13,Improv_Metronome,27,1,48,41,2951914304
35,23,13,Improv_Metronome,28,5,42,127,2952197456
35,23,13,Improv_Metronome,29,1,48,56,2952201172
35,23,13,Improv_Metronome,30,1,48,66,2952690676
35,23,13,Improv_Metronome,31,5,42,127,2952698416
35,23,13,Improv_Metronome,32,1,48,63,2953198340
35,23,13,Improv_Metronome,33,5,42,127,2953199684
35,23,13,Improv_Metronome,34,1,48,61,2953675160
35,23,13,Improv_Metronome,35,5,42,127,2953697584
35,23,13,Improv_Metronome,36,1,48,68,2954125260
35,23,13,Improv_Metronome,37,5,42,127,2954198324
35,23,13,Improv_Metronome,38,1,38,46,2954377428
35,23,13,Improv_Metronome,39,1,48,65,2954667048
35,23,13,Improv_Metronome,40,5,42,127,2954698196
35,23,13,Improv_Metronome,41,1,48,69,2955127768
35,23,13,Improv_Metronome,42,5,42,127,2955197740
35,23,13,Improv_Metronome,43,1,38,51,2955392500
35,23,13,Improv_Metronome,44,1,48,61,2955682120
35,23,13,Improv_Metronome,45,5,42,127,2955697564
35,23,13,Improv_Metronome,46,1,48,66,2956126244
35,23,13,Improv_Metronome,47,5,42,127,2956198232
35,23,13,Improv_Metronome,48,1,38,54,2956378332
35,23,13,Improv_Metronome,49,5,42,127,2956698356
35,23,13,Improv_Metronome,50,1,48,69,2956716960
35,23,13,Improv_Metronome,51,5,42,127,2957197680
35,23,13,Improv_Metronome,52,1,48,59,2957205136
35,23,13,Improv_Metronome,53,1,48,56,2957684316
35,23,13,Improv_Metronome,54,5,42,127,2957698264
35,23,13,Improv_Metronome,55,1,48,71,2958191264
35,23,13,Improv_Metronome,56,5,42,127,2958198108
35,23,13,Improv_Metronome,57,1,38,51,2958654160
35,23,13,Improv_Metronome,58,5,42,127,2958697952
35,23,13,Improv_Metronome,59,1,38,50,2958905504
35,23,13,Improv_Metronome,60,5,42,127,2959197632
35,23,13,Improv_Metronome,61,1,38,46,2959278316
35,23,13,Improv_Metronome,62,5,42,127,2959698296
35,23,13,Improv_Metronome,63,1,38,56,2959718548
35,23,13,Improv_Metronome,64,1,38,43,2959967100
35,23,13,Improv_Metronome,65,1,38,66,2960194044
35,23,13,Improv_Metronome,66,5,42,127,2960198260
35,23,13,Improv_Metronome,67,5,42,127,2960697592
35,23,13,Improv_Metronome,68,1,38,60,2960701156
35,23,13,Improv_Metronome,69,1,38,58,2961010376
35,23,13,Improv_Metronome,70,5,42,127,2961197412
35,23,13,Improv_Metronome,71,1,38,59,2961243840
35,23,13,Improv_Metronome,72,1,38,63,2961654136
35,23,13,Improv_Metronome,73,5,42,127,2961698148
35,23,13,Improv_Metronome,74,1,38,57,2961973160
35,23,13,Improv_Metronome,75,5,42,127,2962197904
35,23,13,Improv_Metronome,76,1,38,45,2962225856
35,23,13,Improv_Metronome,77,1,38,50,2962658660
35,23,13,Improv_Metronome,78,5,42,127,2962697516
35,23,13,Improv_Metronome,79,1,38,65,2962851860
35,23,13,Improv_Metronome,80,5,42,127,2963198316
35,23,13,Improv_Metronome,81,1,38,66,2963207420
35,23,13,Improv_Metronome,82,1,38,62,2963685104
35,23,13,Improv_Metronome,83,5,42,127,2963698004
35,23,13,Improv_Metronome,84,1,38,53,2963993216
35,23,13,Improv_Metronome,85,5,42,127,2964197756
35,23,13,Improv_Metronome,86,1,38,61,2964261236
35,23,13,Improv_Metronome,87,5,42,127,2964697452
35,23,13,Improv_Metronome,88,1,48,69,2964766916
35,23,13,Improv_Metronome,89,1,38,39,2964994528
35,23,13,Improv_Metronome,90,5,42,127,2965198172
35,23,13,Improv_Metronome,91,1,48,68,2965240036
35,23,13,Improv_Metronome,92,5,42,127,2965697768
35,23,13,Improv_Metronome,93,1,48,60,2965749980
35,23,13,Improv_Metronome,94,1,48,66,2966037652
35,23,13,Improv_Metronome,95,5,42,127,2966197812
35,23,13,Improv_Metronome,96,1,38,22,2966322724
35,23,13,Improv_Metronome,97,5,42,127,2966698476
35,23,13,Improv_Metronome,98,1,48,57,2966712292
35,23,13,Improv_Metronome,99,1,48,64,2966998052
35,23,13,Improv_Metronome,100,5,42,127,2967198152
35,23,13,Improv_Metronome,101,1,38,46,2967250884
35,23,13,Improv_Metronome,102,1,48,61,2967667364
35,23,13,Improv_Metronome,103,5,42,127,2967697764
35,23,13,Improv_Metronome,104,1,48,55,2967936732
35,23,13,Improv_Metronome,105,5,42,127,2968197592
35,23,13,Improv_Metronome,106,1,38,39,2968269928
35,23,13,Improv_Metronome,107,5,42,127,2968698184
35,23,13,Improv_Metronome,108,1,48,58,2968708484
35,23,13,Improv_Metronome,109,1,48,57,2968963696
35,23,13,Improv_Metronome,110,5,42,127,2969198004
35,23,13,Improv_Metronome,111,1,48,58,2969210100
35,23,13,Improv_Metronome,112,5,42,127,2969697848
35,23,13,Improv_Metronome,113,1,48,64,2969772700
35,23,13,Improv_Metronome,114,1,48,61,2970025740
35,23,13,Improv_Metronome,115,5,42,127,2970198492
35,23,13,Improv_Metronome,116,1,48,62,2970285092
35,23,13,Improv_Metronome,117,5,42,127,2970697964
35,23,13,Improv_Metronome,118,1,48,57,2970820160
35,23,13,Improv_Metronome,119,1,48,52,2971081580
35,23,13,Improv_Metronome,120,5,42,127,2971197784
35,23,13,Improv_Metronome,121,1,48,58,2971358976
35,23,13,Improv_Metronome,122,5,42,127,2971697556
35,23,13,Improv_Metronome,123,1,48,59,2971885152
35,23,13,Improv_Metronome,124,1,38,45,2972114036
35,23,13,Improv_Metronome,125,1,38,32,2972175868
35,23,13,Improv_Metronome,126,5,42,127,2972198416
35,23,13,Improv_Metronome,127,1,48,61,2972375600
35,23,13,Improv_Metronome,128,5,42,127,2972698024
35,23,13,Improv_Metronome,129,1,48,57,2972865024
35,23,13,Improv_Metronome,130,1,48,58,2973172688
35,23,13,Improv_Metronome,131,5,42,127,2973197560
35,23,13,Improv_Metronome,132,1,38,64,2973440788
35,23,13,Improv_Metronome,133,5,42,127,2973698588
35,23,13,Improv_Metronome,134,1,48,48,2973867904
35,23,13,Improv_Metronome,135,1,48,49,2974181336
35,23,13,Improv_Metronome,136,5,42,127,2974198128
35,23,13,Improv_Metronome,137,1,38,63,2974470528
35,23,13,Improv_Metronome,138,5,42,127,2974697880
35,23,13,Improv_Metronome,139,1,48,54,2974951600
35,23,13,Improv_Metronome,140,5,42,127,2975197576
35,23,13,Improv_Metronome,141,1,48,52,2975243780
35,23,13,Improv_Metronome,142,1,38,62,2975533252
35,23,13,Improv_Metronome,143,5,42,127,2975698368
35,23,13,Improv_Metronome,144,1,48,50,2976021576
35,23,13,Improv_Metronome,145,5,42,127,2976197964
35,23,13,Improv_Metronome,146,1,48,48,2976301188
35,23,13,Improv_Metronome,147,1,38,59,2976581832
35,23,13,Improv_Metronome,148,1,38,36,2976650328
35,23,13,Improv_Metronome,149,5,42,127,2976697632
35,23,13,Improv_Metronome,150,1,48,60,2977072528
35,23,13,Improv_Metronome,151,5,42,127,2977197756
35,23,13,Improv_Metronome,152,1,48,53,2977289316
35,23,13,Improv_Metronome,153,1,48,60,2977613564
35,23,13,Improv_Metronome,154,5,42,127,2977698120
35,23,13,Improv_Metronome,155,1,48,56,2978107428
35,23,13,Improv_Metronome,156,5,42,127,2978197740
35,23,13,Improv_Metronome,157,1,48,46,2978356452
35,23,13,Improv_Metronome,158,1,48,51,2978666712
35,23,13,Improv_Metronome,159,5,42,127,2978697564
35,23,13,Improv_Metronome,160,5,42,127,2979198608
35,23,13,Improv_Metronome,161,1,48,48,2979211228
35,23,13,Improv_Metronome,162,1,48,40,2979400848
35,23,13,Improv_Metronome,163,5,42,127,2979698060
35,23,13,Improv_Metronome,164,1,48,50,2979736408
35,23,13,Improv_Metronome,165,5,42,127,2980197604
35,23,13,Improv_Metronome,166,1,48,52,2980259436
35,23,13,Improv_Metronome,167,1,48,46,2980494304
35,23,13,Improv_Metronome,168,5,42,127,2980697500
35,23,13,Improv_Metronome,169,1,48,54,2980777808
35,23,13,Improv_Metronome,170,5,42,127,2981198168
35,23,13,Improv_Metronome,171,1,48,56,2981290148
35,23,13,Improv_Metronome,172,1,48,47,2981499356
35,23,13,Improv_Metronome,173,5,42,127,2981697840
35,23,13,Improv_Metronome,174,1,48,65,2981798268
35,23,13,Improv_Metronome,175,5,42,127,2982197536
35,23,13,Improv_Metronome,176,1,48,65,2982344412
35,23,13,Improv_Metronome,177,1,38,53,2982555944
35,23,13,Improv_Metronome,178,5,42,127,2982698476
35,23,13,Improv_Metronome,179,1,48,57,2982862436
35,23,13,Improv_Metronome,180,5,42,127,2983198172
35,23,13,Improv_Metronome,181,1,48,59,2983396312
35,23,13,Improv_Metronome,182,1,38,53,2983620384
35,23,13,Improv_Metronome,183,1,38,27,2983682396
35,23,13,Improv_Metronome,184,5,42,127,2983697912
35,23,13,Improv_Metronome,185,1,48,63,2983944212
35,23,13,Improv_Metronome,186,5,42,127,2984197444
35,23,13,Improv_Metronome,187,1,48,62,2984455276
35,23,13,Improv_Metronome,188,1,38,57,2984692460
35,23,13,Improv_Metronome,189,5,42,127,2984698252
35,23,13,Improv_Metronome,190,1,48,58,2985003044
35,23,13,Improv_Metronome,191,5,42,127,2985198156
35,23,13,Improv_Metronome,192,1,48,59,2985506252
35,23,13,Improv_Metronome,193,5,42,127,2985697776
35,23,13,Improv_Metronome,194,1,38,60,2985730816
35,23,13,Improv_Metronome,195,1,38,32,2985798560
35,23,13,Improv_Metronome,196,1,48,60,2986027148
35,23,13,Improv_Metronome,197,5,42,127,2986198328
35,23,13,Improv_Metronome,198,1,48,59,2986532152
35,23,13,Improv_Metronome,199,5,42,127,2986698072
35,23,13,Improv_Metronome,200,1,38,70,2986724928
35,23,13,Improv_Metronome,201,1,38,62,2987046860
35,23,13,Improv_Metronome,202,5,42,127,2987197672
35,23,13,Improv_Metronome,203,1,38,62,2987578268
35,23,13,Improv_Metronome,204,5,42,127,2987697440
35,23,13,Improv_Metronome,205,1,38,46,2987825872
35,23,13,Improv_Metronome,206,1,38,60,2988070164
35,23,13,Improv_Metronome,207,5,42,127,2988198236
35,23,13,Improv_Metronome,208,1,38,59,2988601424
35,23,13,Improv_Metronome,209,5,42,127,2988698168
35,23,13,Improv_Metronome,210,1,38,54,2988876772
35,23,13,Improv_Metronome,211,1,38,57,2989153828
35,23,13,Improv_Metronome,212,5,42,127,2989197692
35,23,13,Improv_Metronome,213,5,42,127,2989698516
35,23,13,Improv_Metronome,214,1,38,57,2989741428
35,23,13,Improv_Metronome,215,5,42,127,2990198136
35,23,13,Improv_Metronome,216,1,38,59,2990207688
35,23,13,Improv_Metronome,217,5,42,127,2990697832
35,23,13,Improv_Metronome,218,1,38,58,2990720176
35,23,13,Improv_Metronome,219,5,42,127,2991197452
35,23,13,Improv_Metronome,220,1,38,65,2991209020
35,23,13,Improv_Metronome,221,1,38,57,2991667032
35,23,13,Improv_Metronome,222,5,42,127,2991698184
35,23,13,Improv_Metronome,223,1,38,54,2991972152
35,23,13,Improv_Metronome,224,5,42,127,2992198088
35,23,13,Improv_Metronome,225,1,48,70,2992236740
35,23,13,Improv_Metronome,226,5,42,127,2992697932
35,23,13,Improv_Metronome,227,1,48,72,2992711752
35,23,13,Improv_Metronome,228,1,38,57,2992943252
35,23,13,Improv_Metronome,229,5,42,127,2993197380
35,23,13,Improv_Metronome,230,1,48,70,2993263548
35,23,13,Improv_Metronome,231,1,48,64,2993676988
35,23,13,Improv_Metronome,232,5,42,127,2993698040
35,23,13,Improv_Metronome,233,1,38,57,2993923172
35,23,13,Improv_Metronome,234,5,42,127,2994197944
35,23,13,Improv_Metronome,235,1,48,68,2994251624
35,23,13,Improv_Metronome,236,1,48,62,2994691540
35,23,13,Improv_Metronome,237,5,42,127,2994698004
35,23,13,Improv_Metronome,238,1,38,56,2994904584
35,23,13,Improv_Metronome,239,1,48,65,2995197832
35,23,13,Improv_Metronome,240,5,42,127,2995199396
35,23,13,Improv_Metronome,241,1,48,68,2995687764
35,23,13,Improv_Metronome,242,5,42,127,2995697972
35,23,13,Improv_Metronome,243,1,48,65,2996065212
35,23,13,Improv_Metronome,244,5,42,127,2996197948
35,23,13,Improv_Metronome,245,1,48,61,2996630428
35,23,13,Improv_Metronome,246,5,42,127,2996697436
35,23,13,Improv_Metronome,247,1,48,64,2997181360
35,23,13,Improv_Metronome,248,5,42,127,2997198176
35,23,13,Improv_Metronome,249,1,38,66,2997668488
35,23,13,Improv_Metronome,250,5,42,127,2997697772
35,23,13,Improv_Metronome,251,1,38,44,2997892232
35,23,13,Improv_Metronome,252,1,38,62,2998190528
35,23,13,Improv_Metronome,253,5,42,127,2998197740
35,23,13,Improv_Metronome,254,1,38,58,2998692392
35,23,13,Improv_Metronome,255,5,42,127,2998698484
35,23,13,Improv_Metronome,256,1,38,54,2998927200
35,23,13,Improv_Metronome,257,5,42,127,2999198012
35,23,13,Improv_Metronome,258,1,38,59,2999217736
35,23,13,Improv_Metronome,259,5,42,127,2999697928
35,23,13,Improv_Metronome,260,1,38,61,2999713920
35,23,13,Improv_Metronome,261,1,38,48,2999942948
35,23,13,Improv_Metronome,262,1,38,27,2999993416
35,23,13,Improv_Metronome,263,5,42,127,3000197656
35,23,13,Improv_Metronome,264,1,48,66,3000247528
35,23,13,Improv_Metronome,265,5,42,127,3000698100
35,23,13,Improv_Metronome,266,1,48,62,3000712812
35,23,13,Improv_Metronome,267,1,48,53,3001186980
35,23,13,Improv_Metronome,268,5,42,127,3001197788
35,23,13,Improv_Metronome,269,1,48,61,3001673288
35,23,13,Improv_Metronome,270,5,42,127,3001697632
35,23,13,Improv_Metronome,271,1,48,62,3002119504
35,23,13,Improv_Metronome,272,5,42,127,3002198600
35,23,13,Improv_Metronome,273,1,38,57,3002295876
35,23,13,Improv_Metronome,274,1,48,65,3002665776
35,23,13,Improv_Metronome,275,5,42,127,3002698124
35,23,13,Improv_Metronome,276,1,48,61,3003155972
35,23,13,Improv_Metronome,277,5,42,127,3003197892
35,23,13,Improv_Metronome,278,1,38,48,3003419280
35,23,13,Improv_Metronome,279,1,48,62,3003697944
35,23,13,Improv_Metronome,280,5,42,127,3003699436
35,23,13,Improv_Metronome,281,5,42,127,3004198536
35,23,13,Improv_Metronome,282,1,48,57,3004201508
35,23,13,Improv_Metronome,283,1,38,55,3004472276
35,23,13,Improv_Metronome,284,5,42,127,3004697988
35,23,13,Improv_Metronome,285,1,48,65,3004764240
35,23,13,Improv_Metronome,286,5,42,127,3005197680
35,23,13,Improv_Metronome,287,1,48,58,3005234464
35,23,13,Improv_Metronome,288,1,38,52,3005467308
35,23,13,Improv_Metronome,289,5,42,127,3005698476
35,23,13,Improv_Metronome,290,1,48,65,3005786788
35,23,13,Improv_Metronome,291,5,42,127,3006198096
35,23,13,Improv_Metronome,292,1,38,47,3006244228
35,23,13,Improv_Metronome,293,1,38,55,3006471612
35,23,13,Improv_Metronome,294,5,42,127,3006697916
35,23,13,Improv_Metronome,295,1,38,53,3006829988
35,23,13,Improv_Metronome,296,5,42,127,3007197540
35,23,13,Improv_Metronome,297,1,38,56,3007348156
35,23,13,Improv_Metronome,298,1,38,56,3007598356
35,23,13,Improv_Metronome,299,5,42,127,3007698552
35,23,13,Improv_Metronome,300,1,38,58,3007874088
35,23,13,Improv_Metronome,301,5,42,127,3008197852
35,23,13,Improv_Metronome,302,1,38,53,3008405568
35,23,13,Improv_Metronome,303,1,38,48,3008646568
35,23,13,Improv_Metronome,304,5,42,127,3008697688
35,23,13,Improv_Metronome,305,1,38,63,3008965152
35,23,13,Improv_Metronome,306,5,42,127,3009197592
35,23,13,Improv_Metronome,307,1,38,59,3009483876
35,23,13,Improv_Metronome,308,5,42,127,3009698108
35,23,13,Improv_Metronome,309,1,38,55,3009712896
35,23,13,Improv_Metronome,310,1,48,57,3010003512
35,23,13,Improv_Metronome,311,5,42,127,3010197856
35,23,13,Improv_Metronome,312,1,48,65,3010558036
35,23,13,Improv_Metronome,313,5,42,127,3010697476
35,23,13,Improv_Metronome,314,1,38,34,3010801220
35,23,13,Improv_Metronome,315,1,48,68,3011114332
35,23,13,Improv_Metronome,316,5,42,127,3011198508
35,23,13,Improv_Metronome,317,1,48,67,3011626960
35,23,13,Improv_Metronome,318,5,42,127,3011698204
35,23,13,Improv_Metronome,319,1,38,35,3011814436
35,23,13,Improv_Metronome,320,1,48,67,3012168596
35,23,13,Improv_Metronome,321,5,42,127,3012197880
35,23,13,Improv_Metronome,322,1,48,61,3012667248
35,23,13,Improv_Metronome,323,5,42,127,3012697352
35,23,13,Improv_Metronome,324,1,38,43,3012880216
35,23,13,Improv_Metronome,325,1,48,65,3013176044
35,23,13,Improv_Metronome,326,5,42,127,3013198220
35,23,13,Improv_Metronome,327,1,48,69,3013696332
35,23,13,Improv_Metronome,328,5,42,127,3013698140
35,23,13,Improv_Metronome,329,1,38,58,3013977348
35,23,13,Improv_Metronome,330,5,42,127,3014197520
35,23,13,Improv_Metronome,331,1,48,64,3014237964
35,23,13,Improv_Metronome,332,5,42,127,3014698336
35,23,13,Improv_Metronome,333,1,48,58,3014728008
35,23,13,Improv_Metronome,334,1,48,59,3014948292
35,23,13,Improv_Metronome,335,1,48,63,3015190040
35,23,13,Improv_Metronome,336,5,42,127,3015198152
35,23,13,Improv_Metronome,0,9999,9999,9999,2945695816
35,23,13,Improv_Metronome,1,9999,9999,9999,2946195532
35,23,13,Improv_Metronome,2,9999,9999,9999,2946695248
35,23,13,Improv_Metronome,3,9999,9999,9999,2947195992
35,23,13,Improv_Metronome,4,9999,9999,9999,2947695688
35,23,13,Improv_Metronome,5,9999,9999,9999,2948195380
35,23,13,Improv_Metronome,6,9999,9999,9999,2948695144
35,23,13,Improv_Metronome,7,9999,9999,9999,2949195868
35,23,13,Improv_Metronome,8,9999,9999,9999,2949695556
35,23,13,Improv_Metronome,9,9999,9999,9999,2950195312
35,23,13,Improv_Metronome,10,9999,9999,9999,2950696048
35,23,13,Improv_Metronome,11,9999,9999,9999,2951195724
35,23,13,Improv_Metronome,12,9999,9999,9999,2951695412
35,23,13,Improv_Metronome,13,9999,9999,9999,2952195172
35,23,13,Improv_Metronome,14,9999,9999,9999,2952695904
35,23,13,Improv_Metronome,15,9999,9999,9999,2953195604
35,23,13,Improv_Metronome,16,9999,9999,9999,2953695296
35,23,13,Improv_Metronome,17,9999,9999,9999,2954196036
35,23,13,Improv_Metronome,18,9999,9999,9999,2954695760
35,23,13,Improv_Metronome,19,9999,9999,9999,2955195456
35,23,13,Improv_Metronome,20,9999,9999,9999,2955695200
35,23,13,Improv_Metronome,21,9999,9999,9999,2956195944
35,23,13,Improv_Metronome,22,9999,9999,9999,2956695624
35,23,13,Improv_Metronome,23,9999,9999,9999,2957195316
35,23,13,Improv_Metronome,24,9999,9999,9999,2957696052
35,23,13,Improv_Metronome,25,9999,9999,9999,2958195820
35,23,13,Improv_Metronome,26,9999,9999,9999,2958695516
35,23,13,Improv_Metronome,27,9999,9999,9999,2959195196
35,23,13,Improv_Metronome,28,9999,9999,9999,2959695936
35,23,13,Improv_Metronome,29,9999,9999,9999,2960195680
35,23,13,Improv_Metronome,30,9999,9999,9999,2960695380
35,23,13,Improv_Metronome,31,9999,9999,9999,2961195128
35,23,13,Improv_Metronome,32,9999,9999,9999,2961695860
35,23,13,Improv_Metronome,33,9999,9999,9999,2962195540
35,23,13,Improv_Metronome,34,9999,9999,9999,2962695228
35,23,13,Improv_Metronome,35,9999,9999,9999,2963195956
35,23,13,Improv_Metronome,36,9999,9999,9999,2963695716
35,23,13,Improv_Metronome,37,9999,9999,9999,2964195396
35,23,13,Improv_Metronome,38,9999,9999,9999,2964695092
35,23,13,Improv_Metronome,39,9999,9999,9999,2965195860
35,23,13,Improv_Metronome,40,9999,9999,9999,2965695556
35,23,13,Improv_Metronome,41,9999,9999,9999,2966195304
35,23,13,Improv_Metronome,42,9999,9999,9999,2966696044
35,23,13,Improv_Metronome,43,9999,9999,9999,2967195716
35,23,13,Improv_Metronome,44,9999,9999,9999,2967695480
35,23,13,Improv_Metronome,45,9999,9999,9999,2968195156
35,23,13,Improv_Metronome,46,9999,9999,9999,2968695900
35,23,13,Improv_Metronome,47,9999,9999,9999,2969195568
35,23,13,Improv_Metronome,48,9999,9999,9999,2969695340
35,23,13,Improv_Metronome,49,9999,9999,9999,2970196060
35,23,13,Improv_Metronome,50,9999,9999,9999,2970695752
35,23,13,Improv_Metronome,51,9999,9999,9999,2971195500
35,23,13,Improv_Metronome,52,9999,9999,9999,2971695192
35,23,13,Improv_Metronome,53,9999,9999,9999,2972195908
35,23,13,Improv_Metronome,54,9999,9999,9999,2972695660
35,23,13,Improv_Metronome,55,9999,9999,9999,2973195348
35,23,13,Improv_Metronome,56,9999,9999,9999,2973696076
35,23,13,Improv_Metronome,57,9999,9999,9999,2974195768
35,23,13,Improv_Metronome,58,9999,9999,9999,2974695520
35,23,13,Improv_Metronome,59,9999,9999,9999,2975195216
35,23,13,Improv_Metronome,60,9999,9999,9999,2975695932
35,23,13,Improv_Metronome,61,9999,9999,9999,2976195680
35,23,13,Improv_Metronome,62,9999,9999,9999,2976695344
35,23,13,Improv_Metronome,63,9999,9999,9999,2977195100
35,23,13,Improv_Metronome,64,9999,9999,9999,2977695836
35,23,13,Improv_Metronome,65,9999,9999,9999,2978195528
35,23,13,Improv_Metronome,66,9999,9999,9999,2978695276
35,23,13,Improv_Metronome,67,9999,9999,9999,2979196024
35,23,13,Improv_Metronome,68,9999,9999,9999,2979695700
35,23,13,Improv_Metronome,69,9999,9999,9999,2980195392
35,23,13,Improv_Metronome,70,9999,9999,9999,2980695140
35,23,13,Improv_Metronome,71,9999,9999,9999,2981195880
35,23,13,Improv_Metronome,72,9999,9999,9999,2981695552
35,23,13,Improv_Metronome,73,9999,9999,9999,2982195248
35,23,13,Improv_Metronome,74,9999,9999,9999,2982696040
35,23,13,Improv_Metronome,75,9999,9999,9999,2983195736
35,23,13,Improv_Metronome,76,9999,9999,9999,2983695476
35,23,13,Improv_Metronome,77,9999,9999,9999,2984195156
35,23,13,Improv_Metronome,78,9999,9999,9999,2984695892
35,23,13,Improv_Metronome,79,9999,9999,9999,2985195572
35,23,13,Improv_Metronome,80,9999,9999,9999,2985695340
35,23,13,Improv_Metronome,81,9999,9999,9999,2986196044
35,23,13,Improv_Metronome,82,9999,9999,9999,2986695784
35,23,13,Improv_Metronome,83,9999,9999,9999,2987195460
35,23,13,Improv_Metronome,84,9999,9999,9999,2987695156
35,23,13,Improv_Metronome,85,9999,9999,9999,2988195948
35,23,13,Improv_Metronome,86,9999,9999,9999,2988695660
35,23,13,Improv_Metronome,87,9999,9999,9999,2989195332
35,23,13,Improv_Metronome,88,9999,9999,9999,2989696080
35,23,13,Improv_Metronome,89,9999,9999,9999,2990195776
35,23,13,Improv_Metronome,90,9999,9999,9999,2990695544
35,23,13,Improv_Metronome,91,9999,9999,9999,2991195240
35,23,13,Improv_Metronome,92,9999,9999,9999,2991695972
35,23,13,Improv_Metronome,93,9999,9999,9999,2992195652
35,23,13,Improv_Metronome,94,9999,9999,9999,2992695348
35,23,13,Improv_Metronome,95,9999,9999,9999,2993195096
35,23,13,Improv_Metronome,96,9999,9999,9999,2993695828
35,23,13,Improv_Metronome,97,9999,9999,9999,2994195508
35,23,13,Improv_Metronome,98,9999,9999,9999,2994695272
35,23,13,Improv_Metronome,99,9999,9999,9999,2995195996
35,23,13,Improv_Metronome,100,9999,9999,9999,2995695684
35,23,13,Improv_Metronome,101,9999,9999,9999,2996195440
35,23,13,Improv_Metronome,102,9999,9999,9999,2996695148
35,23,13,Improv_Metronome,103,9999,9999,9999,2997195888
35,23,13,Improv_Metronome,104,9999,9999,9999,2997695560
35,23,13,Improv_Metronome,105,9999,9999,9999,2998195308
35,23,13,Improv_Metronome,106,9999,9999,9999,2998696048
35,23,13,Improv_Metronome,107,9999,9999,9999,2999195728
35,23,13,Improv_Metronome,108,9999,9999,9999,2999695420
35,23,13,Improv_Metronome,109,9999,9999,9999,3000195148
35,23,13,Improv_Metronome,110,9999,9999,9999,3000695888
35,23,13,Improv_Metronome,111,9999,9999,9999,3001195576
35,23,13,Improv_Metronome,112,9999,9999,9999,3001695348
35,23,13,Improv_Metronome,113,9999,9999,9999,3002196088
35,23,13,Improv_Metronome,114,9999,9999,9999,3002695764
35,23,13,Improv_Metronome,115,9999,9999,9999,3003195456
35,23,13,Improv_Metronome,116,9999,9999,9999,3003695212
35,23,13,Improv_Metronome,117,9999,9999,9999,3004195952
35,23,13,Improv_Metronome,118,9999,9999,9999,3004695624
35,23,13,Improv_Metronome,119,9999,9999,9999,3005195320
35,23,13,Improv_Metronome,120,9999,9999,9999,3005696116
35,23,13,Improv_Metronome,121,9999,9999,9999,3006195812
35,23,13,Improv_Metronome,122,9999,9999,9999,3006695484
35,23,13,Improv_Metronome,123,9999,9999,9999,3007195252
35,23,13,Improv_Metronome,124,9999,9999,9999,3007695968
35,23,13,Improv_Metronome,125,9999,9999,9999,3008195640
35,23,13,Improv_Metronome,126,9999,9999,9999,3008695404
35,23,13,Improv_Metronome,127,9999,9999,9999,3009195080
35,23,13,Improv_Metronome,128,9999,9999,9999,3009695824
35,23,13,Improv_Metronome,129,9999,9999,9999,3010195572
35,23,13,Improv_Metronome,130,9999,9999,9999,3010695264
35,23,13,Improv_Metronome,131,9999,9999,9999,3011196000
35,23,13,Improv_Metronome,132,9999,9999,9999,3011695696
35,23,13,Improv_Metronome,133,9999,9999,9999,3012195444
35,23,13,Improv_Metronome,134,9999,9999,9999,3012695140
35,23,13,Improv_Metronome,135,9999,9999,9999,3013195860
35,23,13,Improv_Metronome,136,9999,9999,9999,3013695560
35,23,13,Improv_Metronome,137,9999,9999,9999,3014195308
35,23,13,Improv_Metronome,138,9999,9999,9999,3014696052
35,23,13,Improv_Metronome,139,9999,9999,9999,3015195716
35,24,14,Improv_Melody,0,2,48,80,3068122592
35,24,14,Improv_Melody,1,2,72,80,3068124824
35,24,14,Improv_Melody,2,5,42,127,3068127288
35,24,14,Improv_Melody,3,5,42,110,3068620056
35,24,14,Improv_Melody,4,5,42,110,3069119972
35,24,14,Improv_Melody,5,5,42,110,3069619548
35,24,14,Improv_Melody,6,5,42,127,3070120388
35,24,14,Improv_Melody,7,5,42,110,3070620184
35,24,14,Improv_Melody,8,5,42,110,3071119832
35,24,14,Improv_Melody,9,5,42,110,3071619480
35,24,14,Improv_Melody,10,2,43,80,3072122908
35,24,14,Improv_Melody,11,2,67,80,3072124984
35,24,14,Improv_Melody,12,5,42,127,3072127440
35,24,14,Improv_Melody,13,5,42,110,3072619984
35,24,14,Improv_Melody,14,5,42,110,3073119632
35,24,14,Improv_Melody,15,5,42,110,3073620252
35,24,14,Improv_Melody,16,5,42,127,3074119972
35,24,14,Improv_Melody,17,5,42,110,3074619992
35,24,14,Improv_Melody,18,5,42,110,3075119416
35,24,14,Improv_Melody,19,5,42,110,3075620180
35,24,14,Improv_Melody,20,2,45,80,3076122712
35,24,14,Improv_Melody,21,2,69,80,3076124788
35,24,14,Improv_Melody,22,5,42,127,3076127320
35,24,14,Improv_Melody,23,5,42,110,3076619788
35,24,14,Improv_Melody,24,5,42,110,3077120480
35,24,14,Improv_Melody,25,5,42,110,3077620056
35,24,14,Improv_Melody,26,5,42,127,3078120000
35,24,14,Improv_Melody,27,5,42,110,3078619572
35,24,14,Improv_Melody,28,5,42,110,3079120340
35,24,14,Improv_Melody,29,5,42,110,3079619812
35,24,14,Improv_Melody,30,2,41,80,3080122240
35,24,14,Improv_Melody,31,2,65,80,3080124388
35,24,14,Improv_Melody,32,5,42,127,3080126928
35,24,14,Improv_Melody,33,5,42,110,3080620516
35,24,14,Improv_Melody,34,5,42,110,3081120164
35,24,14,Improv_Melody,35,5,42,110,3081619740
35,24,14,Improv_Melody,36,5,42,127,3082119756
35,24,14,Improv_Melody,37,5,42,110,3082620300
35,24,14,Improv_Melody,38,5,42,110,3083120100
35,24,14,Improv_Melody,39,5,42,110,3083619672
35,24,14,Improv_Melody,40,2,48,80,3084122864
35,24,14,Improv_Melody,41,2,72,80,3084125096
35,24,14,Improv_Melody,42,5,42,127,3084127560
35,24,14,Improv_Melody,43,5,42,110,3084620100
35,24,14,Improv_Melody,44,5,42,110,3085120044
35,24,14,Improv_Melody,45,5,42,110,3085619468
35,24,14,Improv_Melody,46,5,42,127,3086120532
35,24,14,Improv_Melody,47,5,42,110,3086619956
35,24,14,Improv_Melody,48,5,42,110,3087119680
35,24,14,Improv_Melody,49,5,42,110,3087619624
35,24,14,Improv_Melody,50,2,43,80,3088122824
35,24,14,Improv_Melody,51,2,67,80,3088124900
35,24,14,Improv_Melody,52,5,42,127,3088127588
35,24,14,Improv_Melody,53,5,42,110,3088619832
35,24,14,Improv_Melody,54,5,42,110,3089119552
35,24,14,Improv_Melody,55,1,48,54,3089591752
35,24,14,Improv_Melody,56,5,42,110,3089620684
35,24,14,Improv_Melody,57,1,48,48,3089749676
35,24,14,Improv_Melody,58,1,48,61,3090076320
35,24,14,Improv_Melody,59,5,42,127,3090120216
35,24,14,Improv_Melody,60,1,48,49,3090575944
35,24,14,Improv_Melody,61,5,42,110,3090619892
35,24,14,Improv_Melody,62,1,48,21,3090997408
35,24,14,Improv_Melody,63,1,38,13,3091009500
35,24,14,Improv_Melody,64,5,42,110,3091119456
35,24,14,Improv_Melody,65,5,42,110,3091620148
35,24,14,Improv_Melody,66,1,48,58,3091671832
35,24,14,Improv_Melody,67,2,45,80,3092122348
35,24,14,Improv_Melody,68,2,69,80,3092124652
35,24,14,Improv_Melody,69,5,42,127,3092127264
35,24,14,Improv_Melody,70,1,48,59,3092132848
35,24,14,Improv_Melody,71,5,42,110,3092619488
35,24,14,Improv_Melody,72,1,48,58,3092663448
35,24,14,Improv_Melody,73,5,42,110,3093120456
35,24,14,Improv_Melody,74,1,48,54,3093203704
35,24,14,Improv_Melody,75,5,42,110,3093620156
35,24,14,Improv_Melody,76,1,48,46,3093647280
35,24,14,Improv_Melody,77,5,42,127,3094119928
35,24,14,Improv_Melody,78,1,48,57,3094153420
35,24,14,Improv_Melody,79,5,42,110,3094619404
35,24,14,Improv_Melody,80,1,48,60,3094624092
35,24,14,Improv_Melody,81,1,38,53,3094913488
35,24,14,Improv_Melody,82,5,42,110,3095120204
35,24,14,Improv_Melody,83,1,38,38,3095432856
35,24,14,Improv_Melody,84,5,42,110,3095620272
35,24,14,Improv_Melody,85,1,38,37,3095961576
35,24,14,Improv_Melody,86,2,41,80,3096122328
35,24,14,Improv_Melody,87,2,65,80,3096124332
35,24,14,Improv_Melody,88,5,42,127,3096126796
35,24,14,Improv_Melody,89,1,38,48,3096473108
35,24,14,Improv_Melody,90,5,42,110,3096620360
35,24,14,Improv_Melody,91,1,38,40,3097034848
35,24,14,Improv_Melody,92,5,42,110,3097120300
35,24,14,Improv_Melody,93,1,38,46,3097583012
35,24,14,Improv_Melody,94,5,42,110,3097619928
35,24,14,Improv_Melody,95,1,38,39,3097797708
35,24,14,Improv_Melody,96,1,38,43,3098119908
35,24,14,Improv_Melody,97,5,42,127,3098121920
35,24,14,Improv_Melody,98,1,38,46,3098594508
35,24,14,Improv_Melody,99,5,42,110,3098620200
35,24,14,Improv_Melody,100,1,38,44,3098869412
35,24,14,Improv_Melody,101,1,38,44,3099116248
35,24,14,Improv_Melody,102,5,42,110,3099119952
35,24,14,Improv_Melody,103,1,38,43,3099614976
35,24,14,Improv_Melody,104,5,42,110,3099619948
35,24,14,Improv_Melody,105,1,38,40,3099896688
35,24,14,Improv_Melody,106,2,48,80,3100123112
35,24,14,Improv_Melody,107,2,72,80,3100125116
35,24,14,Improv_Melody,108,5,42,127,3100127652
35,24,14,Improv_Melody,109,1,38,46,3100157104
35,24,14,Improv_Melody,110,1,38,44,3100593024
35,24,14,Improv_Melody,111,5,42,110,3100620092
35,24,14,Improv_Melody,112,1,38,36,3100905060
35,24,14,Improv_Melody,113,5,42,110,3101119976
35,24,14,Improv_Melody,114,1,38,44,3101175404
35,24,14,Improv_Melody,115,5,42,110,3101619452
35,24,14,Improv_Melody,116,1,38,46,3101628928
35,24,14,Improv_Melody,117,1,38,45,3101980356
35,24,14,Improv_Melody,118,5,42,127,3102120252
35,24,14,Improv_Melody,119,1,38,43,3102538620
35,24,14,Improv_Melody,120,5,42,110,3102619968
35,24,14,Improv_Melody,121,1,38,46,3102891396
35,24,14,Improv_Melody,122,5,42,110,3103119800
35,24,14,Improv_Melody,123,1,38,41,3103123820
35,24,14,Improv_Melody,124,1,38,43,3103528276
35,24,14,Improv_Melody,125,5,42,110,3103619420
35,24,14,Improv_Melody,126,1,38,48,3103912908
35,24,14,Improv_Melody,127,1,38,46,3104087492
35,24,14,Improv_Melody,128,2,43,80,3104123028
35,24,14,Improv_Melody,129,2,67,80,3104124956
35,24,14,Improv_Melody,130,5,42,127,3104127412
35,24,14,Improv_Melody,131,1,38,42,3104480096
35,24,14,Improv_Melody,132,5,42,110,3104619844
35,24,14,Improv_Melody,133,1,38,48,3104873560
35,24,14,Improv_Melody,134,5,42,110,3105119544
35,24,14,Improv_Melody,135,1,38,48,3105198876
35,24,14,Improv_Melody,136,5,42,110,3105620288
35,24,14,Improv_Melody,137,1,38,40,3105678308
35,24,14,Improv_Melody,138,1,38,49,3106028312
35,24,14,Improv_Melody,139,5,42,127,3106120132
35,24,14,Improv_Melody,140,1,38,38,3106216952
35,24,14,Improv_Melody,141,1,38,44,3106553200
35,24,14,Improv_Melody,142,5,42,110,3106619884
35,24,14,Improv_Melody,143,1,38,41,3106962816
35,24,14,Improv_Melody,144,5,42,110,3107119420
35,24,14,Improv_Melody,145,1,38,48,3107187912
35,24,14,Improv_Melody,146,5,42,110,3107620092
35,24,14,Improv_Melody,147,1,38,43,3107671824
35,24,14,Improv_Melody,148,1,48,13,3107687140
35,24,14,Improv_Melody,149,1,38,44,3107959616
35,24,14,Improv_Melody,150,2,45,80,3108122536
35,24,14,Improv_Melody,151,2,69,80,3108124612
35,24,14,Improv_Melody,152,5,42,127,3108127076
35,24,14,Improv_Melody,153,1,38,43,3108146428
35,24,14,Improv_Melody,154,5,42,110,3108619596
35,24,14,Improv_Melody,155,1,38,46,3108652780
35,24,14,Improv_Melody,156,1,38,35,3108954596
35,24,14,Improv_Melody,157,5,42,110,3109120472
35,24,14,Improv_Melody,158,1,38,44,3109141916
35,24,14,Improv_Melody,159,5,42,110,3109620024
35,24,14,Improv_Melody,160,1,38,45,3109626060
35,24,14,Improv_Melody,161,1,38,49,3110025704
35,24,14,Improv_Melody,162,5,42,127,3110119936
35,24,14,Improv_Melody,163,1,38,40,3110181608
35,24,14,Improv_Melody,164,5,42,110,3110619696
35,24,14,Improv_Melody,165,1,38,46,3110631044
35,24,14,Improv_Melody,166,1,38,52,3111078856
35,24,14,Improv_Melody,167,5,42,110,3111120140
35,24,14,Improv_Melody,168,1,38,41,3111234092
35,24,14,Improv_Melody,169,5,42,110,3111619972
35,24,14,Improv_Melody,170,1,38,44,3111645232
35,24,14,Improv_Melody,171,1,38,49,3112058944
35,24,14,Improv_Melody,172,2,41,80,3112122068
35,24,14,Improv_Melody,173,2,65,80,3112124296
35,24,14,Improv_Melody,174,5,42,127,3112126836
35,24,14,Improv_Melody,175,1,38,35,3112239016
35,24,14,Improv_Melody,176,5,42,110,3112620388
35,24,14,Improv_Melody,177,1,38,44,3112647916
35,24,14,Improv_Melody,178,1,38,49,3113072616
35,24,14,Improv_Melody,179,5,42,110,3113120080
35,24,14,Improv_Melody,180,1,38,45,3113236676
35,24,14,Improv_Melody,181,5,42,110,3113619764
35,24,14,Improv_Melody,182,1,38,49,3113652428
35,24,14,Improv_Melody,183,1,38,44,3114065412
35,24,14,Improv_Melody,184,5,42,127,3114119532
35,24,14,Improv_Melody,185,1,38,43,3114237848
35,24,14,Improv_Melody,186,5,42,110,3114620484
35,24,14,Improv_Melody,187,1,38,45,3114650012
35,24,14,Improv_Melody,188,1,38,48,3115105780
35,24,14,Improv_Melody,189,5,42,110,3115119956
35,24,14,Improv_Melody,190,1,38,52,3115247848
35,24,14,Improv_Melody,191,5,42,110,3115619564
35,24,14,Improv_Melody,192,1,48,52,3115687088
35,24,14,Improv_Melody,193,2,48,80,3116122812
35,24,14,Improv_Melody,194,2,72,80,3116124968
35,24,14,Improv_Melody,195,5,42,127,3116127656
35,24,14,Improv_Melody,196,1,48,48,3116170792
35,24,14,Improv_Melody,197,5,42,110,3116620248
35,24,14,Improv_Melody,198,1,48,47,3116685528
35,24,14,Improv_Melody,199,5,42,110,3117119800
35,24,14,Improv_Melody,200,1,48,44,3117148048
35,24,14,Improv_Melody,201,1,48,49,3117606364
35,24,14,Improv_Melody,202,5,42,110,3117619568
35,24,14,Improv_Melody,203,1,48,54,3118111752
35,24,14,Improv_Melody,204,5,42,127,3118120464
35,24,14,Improv_Melody,205,1,38,51,3118577264
35,24,14,Improv_Melody,206,5,42,110,3118620164
35,24,14,Improv_Melody,207,1,38,35,3118752440
35,24,14,Improv_Melody,208,1,38,46,3119093544
35,24,14,Improv_Melody,209,5,42,110,3119119692
35,24,14,Improv_Melody,210,1,38,37,3119564228
35,24,14,Improv_Melody,211,5,42,110,3119619468
35,24,14,Improv_Melody,212,1,38,58,3119740676
35,24,14,Improv_Melody,213,1,38,51,3120105268
35,24,14,Improv_Melody,214,2,43,80,3120122696
35,24,14,Improv_Melody,215,2,67,80,3120124848
35,24,14,Improv_Melody,216,5,42,127,3120127536
35,24,14,Improv_Melody,217,1,38,51,3120591072
35,24,14,Improv_Melody,218,5,42,110,3120619904
35,24,14,Improv_Melody,219,1,38,55,3120806940
35,24,14,Improv_Melody,220,1,38,56,3121100172
35,24,14,Improv_Melody,221,5,42,110,3121119732
35,24,14,Improv_Melody,222,1,38,48,3121591092
35,24,14,Improv_Melody,223,5,42,110,3121620328
35,24,14,Improv_Melody,224,1,38,49,3121838104
35,24,14,Improv_Melody,225,1,38,45,3122086804
35,24,14,Improv_Melody,226,5,42,127,3122120228
35,24,14,Improv_Melody,227,1,38,50,3122587256
35,24,14,Improv_Melody,228,5,42,110,3122619756
35,24,14,Improv_Melody,229,1,38,54,3122838828
35,24,14,Improv_Melody,230,5,42,110,3123119444
35,24,14,Improv_Melody,231,1,38,50,3123136776
35,24,14,Improv_Melody,232,1,38,46,3123559008
35,24,14,Improv_Melody,233,5,42,110,3123620308
35,24,14,Improv_Melody,234,1,38,45,3123794952
35,24,14,Improv_Melody,235,1,38,27,3123843324
35,24,14,Improv_Melody,236,1,38,46,3124105268
35,24,14,Improv_Melody,237,2,45,80,3124122468
35,24,14,Improv_Melody,238,2,69,80,3124124700
35,24,14,Improv_Melody,239,5,42,127,3124127380
35,24,14,Improv_Melody,240,1,38,47,3124592788
35,24,14,Improv_Melody,241,5,42,110,3124619600
35,24,14,Improv_Melody,242,1,38,50,3124797304
35,24,14,Improv_Melody,243,1,38,47,3125113628
35,24,14,Improv_Melody,244,5,42,110,3125120252
35,24,14,Improv_Melody,245,1,38,44,3125578104
35,24,14,Improv_Melody,246,5,42,110,3125620104
35,24,14,Improv_Melody,247,1,38,43,3125769156
35,24,14,Improv_Melody,248,5,42,127,3126119936
35,24,14,Improv_Melody,249,1,38,47,3126150360
35,24,14,Improv_Melody,250,5,42,110,3126619488
35,24,14,Improv_Melody,251,1,48,52,3126661276
35,24,14,Improv_Melody,252,1,48,47,3127114428
35,24,14,Improv_Melody,253,5,42,110,3127120300
35,24,14,Improv_Melody,254,1,48,51,3127611656
35,24,14,Improv_Melody,255,5,42,110,3127620000
35,24,14,Improv_Melody,256,2,41,80,3128122440
35,24,14,Improv_Melody,257,2,65,80,3128124664
35,24,14,Improv_Melody,258,5,42,127,3128127196
35,24,14,Improv_Melody,259,1,48,47,3128137876
35,24,14,Improv_Melody,260,5,42,110,3128620392
35,24,14,Improv_Melody,261,1,38,49,3128645952
35,24,14,Improv_Melody,262,1,38,44,3128954720
35,24,14,Improv_Melody,263,5,42,110,3129120072
35,24,14,Improv_Melody,264,1,38,53,3129207864
35,24,14,Improv_Melody,265,5,42,110,3129619848
35,24,14,Improv_Melody,266,1,38,49,3129698060
35,24,14,Improv_Melody,267,1,38,35,3129997104
35,24,14,Improv_Melody,268,5,42,127,3130119748
35,24,14,Improv_Melody,269,1,38,49,3130230952
35,24,14,Improv_Melody,270,5,42,110,3130620344
35,24,14,Improv_Melody,271,1,38,48,3130730652
35,24,14,Improv_Melody,272,1,38,46,3131000900
35,24,14,Improv_Melody,273,5,42,110,3131119948
35,24,14,Improv_Melody,274,1,38,48,3131292108
35,24,14,Improv_Melody,275,5,42,110,3131619872
35,24,14,Improv_Melody,276,1,38,44,3131758372
35,24,14,Improv_Melody,277,1,38,46,3131992344
35,24,14,Improv_Melody,278,2,48,80,3132122952
35,24,14,Improv_Melody,279,2,72,80,3132125028
35,24,14,Improv_Melody,280,5,42,127,3132127640
35,24,14,Improv_Melody,281,1,38,48,3132247740
35,24,14,Improv_Melody,282,5,42,110,3132620236
35,24,14,Improv_Melody,283,1,48,45,3132815280
35,24,14,Improv_Melody,284,5,42,110,3133119908
35,24,14,Improv_Melody,285,1,48,43,3133279900
35,24,14,Improv_Melody,286,5,42,110,3133619608
35,24,14,Improv_Melody,287,1,48,48,3133820588
35,24,14,Improv_Melody,288,5,42,127,3134120204
35,24,14,Improv_Melody,289,1,48,51,3134320588
35,24,14,Improv_Melody,290,5,42,110,3134619980
35,24,14,Improv_Melody,291,1,38,54,3134814152
35,24,14,Improv_Melody,292,5,42,110,3135119828
35,24,14,Improv_Melody,293,1,38,42,3135132824
35,24,14,Improv_Melody,294,1,38,61,3135397908
35,24,14,Improv_Melody,295,5,42,110,3135619504
35,24,14,Improv_Melody,296,1,38,46,3135901944
35,24,14,Improv_Melody,297,2,43,80,3136122912
35,24,14,Improv_Melody,298,2,67,80,3136124908
35,24,14,Improv_Melody,299,5,42,127,3136127820
35,24,14,Improv_Melody,300,1,38,40,3136199628
35,24,14,Improv_Melody,301,1,38,48,3136458356
35,24,14,Improv_Melody,302,5,42,110,3136619872
35,24,14,Improv_Melody,303,1,38,48,3136966664
35,24,14,Improv_Melody,304,5,42,110,3137119644
35,24,14,Improv_Melody,305,1,38,30,3137261012
35,24,14,Improv_Melody,306,1,38,46,3137554224
35,24,14,Improv_Melody,307,5,42,110,3137620312
35,24,14,Improv_Melody,308,1,38,50,3138029988
35,24,14,Improv_Melody,309,5,42,127,3138119936
35,24,14,Improv_Melody,310,1,38,43,3138296744
35,24,14,Improv_Melody,311,1,38,50,3138610228
35,24,14,Improv_Melody,312,5,42,110,3138619616
35,24,14,Improv_Melody,313,5,42,110,3139119620
35,24,14,Improv_Melody,314,1,48,56,3139141360
35,24,14,Improv_Melody,315,5,42,110,3139620288
35,24,14,Improv_Melody,316,1,48,53,3139653780
35,24,14,Improv_Melody,317,1,48,50,3140090176
35,24,14,Improv_Melody,318,2,45,80,3140122640
35,24,14,Improv_Melody,319,2,69,80,3140124716
35,24,14,Improv_Melody,320,5,42,127,3140127176
35,24,14,Improv_Melody,321,1,48,54,3140599384
35,24,14,Improv_Melody,322,5,42,110,3140619696
35,24,14,Improv_Melody,323,5,42,110,3141120448
35,24,14,Improv_Melody,324,1,38,54,3141134716
35,24,14,Improv_Melody,325,1,38,46,3141424708
35,24,14,Improv_Melody,326,5,42,110,3141619980
35,24,14,Improv_Melody,327,1,38,50,3141693932
35,24,14,Improv_Melody,328,5,42,127,3142119828
35,24,14,Improv_Melody,329,1,38,52,3142165208
35,24,14,Improv_Melody,330,1,38,38,3142447868
35,24,14,Improv_Melody,331,5,42,110,3142619656
35,24,14,Improv_Melody,332,1,38,49,3142722548
35,24,14,Improv_Melody,333,5,42,110,3143120400
35,24,14,Improv_Melody,334,1,38,49,3143222704
35,24,14,Improv_Melody,335,1,38,52,3143475596
35,24,14,Improv_Melody,336,5,42,110,3143620080
35,24,14,Improv_Melody,337,1,38,53,3143794788
35,24,14,Improv_Melody,338,2,41,80,3144122184
35,24,14,Improv_Melody,339,2,65,80,3144124260
35,24,14,Improv_Melody,340,5,42,127,3144126724
35,24,14,Improv_Melody,341,1,38,51,3144258968
35,24,14,Improv_Melody,342,1,38,47,3144526744
35,24,14,Improv_Melody,343,5,42,110,3144621616
35,24,14,Improv_Melody,344,1,38,52,3144833072
35,24,14,Improv_Melody,345,5,42,110,3145120044
35,24,14,Improv_Melody,346,1,48,54,3145415148
35,24,14,Improv_Melody,347,5,42,110,3145620116
35,24,14,Improv_Melody,348,1,48,42,3145917140
35,24,14,Improv_Melody,349,5,42,127,3146119668
35,24,14,Improv_Melody,350,1,48,44,3146448804
35,24,14,Improv_Melody,351,5,42,110,3146620264
35,24,14,Improv_Melody,352,1,48,49,3146983356
35,24,14,Improv_Melody,353,5,42,110,3147120188
35,24,14,Improv_Melody,354,1,48,53,3147514772
35,24,14,Improv_Melody,355,5,42,110,3147619592
35,24,14,Improv_Melody,356,1,48,48,3147798660
35,24,14,Improv_Melody,357,1,48,24,3147861316
35,24,14,Improv_Melody,358,1,48,43,3148118104
35,24,14,Improv_Melody,359,2,48,80,3148123036
35,24,14,Improv_Melody,360,2,72,80,3148125192
35,24,14,Improv_Melody,361,5,42,127,3148127652
35,24,14,Improv_Melody,362,5,42,110,3148620180
35,24,14,Improv_Melody,363,1,48,48,3148642672
35,24,14,Improv_Melody,364,1,48,42,3148963404
35,24,14,Improv_Melody,0,9999,9999,9999,3068118132
35,24,14,Improv_Melody,1,9999,9999,9999,3068617836
35,24,14,Improv_Melody,2,9999,9999,9999,3069117532
35,24,14,Improv_Melody,3,9999,9999,9999,3069617256
35,24,14,Improv_Melody,4,9999,9999,9999,3070117948
35,24,14,Improv_Melody,5,9999,9999,9999,3070617668
35,24,14,Improv_Melody,6,9999,9999,9999,3071117392
35,24,14,Improv_Melody,7,9999,9999,9999,3071617112
35,24,14,Improv_Melody,8,9999,9999,9999,3072117880
35,24,14,Improv_Melody,9,9999,9999,9999,3072617540
35,24,14,Improv_Melody,10,9999,9999,9999,3073117264
35,24,14,Improv_Melody,11,9999,9999,9999,3073618032
35,24,14,Improv_Melody,12,9999,9999,9999,3074117752
35,24,14,Improv_Melody,13,9999,9999,9999,3074617400
35,24,14,Improv_Melody,14,9999,9999,9999,3075117120
35,24,14,Improv_Melody,15,9999,9999,9999,3075617888
35,24,14,Improv_Melody,16,9999,9999,9999,3076117612
35,24,14,Improv_Melody,17,9999,9999,9999,3076617272
35,24,14,Improv_Melody,18,9999,9999,9999,3077118040
35,24,14,Improv_Melody,19,9999,9999,9999,3077617760
35,24,14,Improv_Melody,20,9999,9999,9999,3078117484
35,24,14,Improv_Melody,21,9999,9999,9999,3078617204
35,24,14,Improv_Melody,22,9999,9999,9999,3079117900
35,24,14,Improv_Melody,23,9999,9999,9999,3079617596
35,24,14,Improv_Melody,24,9999,9999,9999,3080117364
35,24,14,Improv_Melody,25,9999,9999,9999,3080618076
35,24,14,Improv_Melody,26,9999,9999,9999,3081117796
35,24,14,Improv_Melody,27,9999,9999,9999,3081617520
35,24,14,Improv_Melody,28,9999,9999,9999,3082117240
35,24,14,Improv_Melody,29,9999,9999,9999,3082617936
35,24,14,Improv_Melody,30,9999,9999,9999,3083117656
35,24,14,Improv_Melody,31,9999,9999,9999,3083617376
35,24,14,Improv_Melody,32,9999,9999,9999,3084118072
35,24,14,Improv_Melody,33,9999,9999,9999,3084617808
35,24,14,Improv_Melody,34,9999,9999,9999,3085117528
35,24,14,Improv_Melody,35,9999,9999,9999,3085617252
35,24,14,Improv_Melody,36,9999,9999,9999,3086117944
35,24,14,Improv_Melody,37,9999,9999,9999,3086617664
35,24,14,Improv_Melody,38,9999,9999,9999,3087117388
35,24,14,Improv_Melody,39,9999,9999,9999,3087617108
35,24,14,Improv_Melody,40,9999,9999,9999,3088117876
35,24,14,Improv_Melody,41,9999,9999,9999,3088617540
35,24,14,Improv_Melody,42,9999,9999,9999,3089117260
35,24,14,Improv_Melody,43,9999,9999,9999,3089618020
35,24,14,Improv_Melody,44,9999,9999,9999,3090117700
35,24,14,Improv_Melody,45,9999,9999,9999,3090617448
35,24,14,Improv_Melody,46,9999,9999,9999,3091117160
35,24,14,Improv_Melody,47,9999,9999,9999,3091617856
35,24,14,Improv_Melody,48,9999,9999,9999,3092117556
35,24,14,Improv_Melody,49,9999,9999,9999,3092617268
35,24,14,Improv_Melody,50,9999,9999,9999,3093118012
35,24,14,Improv_Melody,51,9999,9999,9999,3093617712
35,24,14,Improv_Melody,52,9999,9999,9999,3094117484
35,24,14,Improv_Melody,53,9999,9999,9999,3094617184
35,24,14,Improv_Melody,54,9999,9999,9999,3095117912
35,24,14,Improv_Melody,55,9999,9999,9999,3095617608
35,24,14,Improv_Melody,56,9999,9999,9999,3096117308
35,24,14,Improv_Melody,57,9999,9999,9999,3096618068
35,24,14,Improv_Melody,58,9999,9999,9999,3097117784
35,24,14,Improv_Melody,59,9999,9999,9999,3097617484
35,24,14,Improv_Melody,60,9999,9999,9999,3098117168
35,24,14,Improv_Melody,61,9999,9999,9999,3098617908
35,24,14,Improv_Melody,62,9999,9999,9999,3099117660
35,24,14,Improv_Melody,63,9999,9999,9999,3099617360
35,24,14,Improv_Melody,64,9999,9999,9999,3100118092
35,24,14,Improv_Melody,65,9999,9999,9999,3100617800
35,24,14,Improv_Melody,66,9999,9999,9999,3101117532
35,24,14,Improv_Melody,67,9999,9999,9999,3101617236
35,24,14,Improv_Melody,68,9999,9999,9999,3102117960
35,24,14,Improv_Melody,69,9999,9999,9999,3102617676
35,24,14,Improv_Melody,70,9999,9999,9999,3103117360
35,24,14,Improv_Melody,71,9999,9999,9999,3103617124
35,24,14,Improv_Melody,72,9999,9999,9999,3104117852
35,24,14,Improv_Melody,73,9999,9999,9999,3104617552
35,24,14,Improv_Melody,74,9999,9999,9999,3105117248
35,24,14,Improv_Melody,75,9999,9999,9999,3105617996
35,24,14,Improv_Melody,76,9999,9999,9999,3106117688
35,24,14,Improv_Melody,77,9999,9999,9999,3106617440
35,24,14,Improv_Melody,78,9999,9999,9999,3107117124
35,24,14,Improv_Melody,79,9999,9999,9999,3107617872
35,24,14,Improv_Melody,80,9999,9999,9999,3108117588
35,24,14,Improv_Melody,81,9999,9999,9999,3108617304
35,24,14,Improv_Melody,82,9999,9999,9999,3109118028
35,24,14,Improv_Melody,83,9999,9999,9999,3109617728
35,24,14,Improv_Melody,84,9999,9999,9999,3110117496
35,24,14,Improv_Melody,85,9999,9999,9999,3110617180
35,24,14,Improv_Melody,86,9999,9999,9999,3111117920
35,24,14,Improv_Melody,87,9999,9999,9999,3111617604
35,24,14,Improv_Melody,88,9999,9999,9999,3112117348
35,24,14,Improv_Melody,89,9999,9999,9999,3112618096
35,24,14,Improv_Melody,90,9999,9999,9999,3113117788
35,24,14,Improv_Melody,91,9999,9999,9999,3113617472
35,24,14,Improv_Melody,92,9999,9999,9999,3114117240
35,24,14,Improv_Melody,93,9999,9999,9999,3114617968
35,24,14,Improv_Melody,94,9999,9999,9999,3115117664
35,24,14,Improv_Melody,95,9999,9999,9999,3115617348
35,24,14,Improv_Melody,96,9999,9999,9999,3116118092
35,24,14,Improv_Melody,97,9999,9999,9999,3116617808
35,24,14,Improv_Melody,98,9999,9999,9999,3117117508
35,24,14,Improv_Melody,99,9999,9999,9999,3117617200
35,24,14,Improv_Melody,100,9999,9999,9999,3118117948
35,24,14,Improv_Melody,101,9999,9999,9999,3118617720
35,24,14,Improv_Melody,102,9999,9999,9999,3119117400
35,24,14,Improv_Melody,103,9999,9999,9999,3119617100
35,24,14,Improv_Melody,104,9999,9999,9999,3120117824
35,24,14,Improv_Melody,105,9999,9999,9999,3120617540
35,24,14,Improv_Melody,106,9999,9999,9999,3121117292
35,24,14,Improv_Melody,107,9999,9999,9999,3121618036
35,24,14,Improv_Melody,108,9999,9999,9999,3122117712
35,24,14,Improv_Melody,109,9999,9999,9999,3122617464
35,24,14,Improv_Melody,110,9999,9999,9999,3123117152
35,24,14,Improv_Melody,111,9999,9999,9999,3123617864
35,24,14,Improv_Melody,112,9999,9999,9999,3124117596
35,24,14,Improv_Melody,113,9999,9999,9999,3124617308
35,24,14,Improv_Melody,114,9999,9999,9999,3125118036
35,24,14,Improv_Melody,115,9999,9999,9999,3125617736
35,24,14,Improv_Melody,116,9999,9999,9999,3126117492
35,24,14,Improv_Melody,117,9999,9999,9999,3126617192
35,24,14,Improv_Melody,118,9999,9999,9999,3127117932
35,24,14,Improv_Melody,119,9999,9999,9999,3127617632
35,24,14,Improv_Melody,120,9999,9999,9999,3128117340
35,24,14,Improv_Melody,121,9999,9999,9999,3128618100
35,24,14,Improv_Melody,122,9999,9999,9999,3129117780
35,24,14,Improv_Melody,123,9999,9999,9999,3129617480
35,24,14,Improv_Melody,124,9999,9999,9999,3130117232
35,24,14,Improv_Melody,125,9999,9999,9999,3130617976
35,24,14,Improv_Melody,126,9999,9999,9999,3131117656
35,24,14,Improv_Melody,127,9999,9999,9999,3131617356
35,24,14,Improv_Melody,128,9999,9999,9999,3132118080
35,24,14,Improv_Melody,129,9999,9999,9999,3132617792
35,24,14,Improv_Melody,130,9999,9999,9999,3133117540
35,24,14,Improv_Melody,131,9999,9999,9999,3133617240
35,24,14,Improv_Melody,132,9999,9999,9999,3134117984
35,24,14,Improv_Melody,133,9999,9999,9999,3134617684
35,24,14,Improv_Melody,134,9999,9999,9999,3135117388
35,24,14,Improv_Melody,135,9999,9999,9999,3135617140
35,24,14,Improv_Melody,136,9999,9999,9999,3136117812
35,24,14,Improv_Melody,137,9999,9999,9999,3136617580
35,24,14,Improv_Melody,138,9999,9999,9999,3137117276
35,24,14,Improv_Melody,139,9999,9999,9999,3137618016
35,24,14,Improv_Melody,140,9999,9999,9999,3138117716
35,24,14,Improv_Melody,141,9999,9999,9999,3138617396
35,24,14,Improv_Melody,142,9999,9999,9999,3139117176
35,24,14,Improv_Melody,143,9999,9999,9999,3139617848
35,24,14,Improv_Melody,144,9999,9999,9999,3140117616
35,24,14,Improv_Melody,145,9999,9999,9999,3140617328
35,24,14,Improv_Melody,146,9999,9999,9999,3141118008
35,24,14,Improv_Melody,147,9999,9999,9999,3141617760
35,24,14,Improv_Melody,148,9999,9999,9999,3142117460
35,24,14,Improv_Melody,149,9999,9999,9999,3142617140
35,24,14,Improv_Melody,150,9999,9999,9999,3143117884
35,24,14,Improv_Melody,151,9999,9999,9999,3143617640
35,24,14,Improv_Melody,152,9999,9999,9999,3144117312
35,24,14,Improv_Melody,153,9999,9999,9999,3144618068
35,24,14,Improv_Melody,154,9999,9999,9999,3145117752
35,24,14,Improv_Melody,155,9999,9999,9999,3145617528
35,24,14,Improv_Melody,156,9999,9999,9999,3146117228
35,24,14,Improv_Melody,157,9999,9999,9999,3146617972
35,24,14,Improv_Melody,158,9999,9999,9999,3147117672
35,24,14,Improv_Melody,159,9999,9999,9999,3147617372
35,24,14,Improv_Melody,160,9999,9999,9999,3148118164
35,24,14,Improv_Melody,161,9999,9999,9999,3148617812
