pid,taskRunCount,taskID,taskName,i,channel,pitch,velocity,microseconds
1,0,Ticks_Pract_8,0,5,42,127,385712576
321,0,Ticks_Pract_8,1,5,42,127,386513228
321,0,Ticks_Pract_8,2,5,42,127,387313132
321,0,Ticks_Pract_8,3,1,48,64,387327324
321,0,Ticks_Pract_8,4,1,48,43,387371432
321,0,Ticks_Pract_8,5,5,42,127,388112696
321,0,Ticks_Pract_8,6,1,48,63,388145508
321,0,Ticks_Pract_8,7,5,42,127,388912428
321,0,Ticks_Pract_8,8,5,42,127,389713528
321,0,Ticks_Pract_8,9,1,48,73,390494020
321,0,Ticks_Pract_8,10,5,42,127,390512980
321,0,Ticks_Pract_8,11,1,48,45,390529276
321,0,Ticks_Pract_8,12,1,48,80,391300196
321,0,Ticks_Pract_8,13,5,42,127,391312716
321,0,Ticks_Pract_8,14,5,42,127,392112384
321,0,Ticks_Pract_8,15,1,48,99,392128068
321,0,Ticks_Pract_8,16,5,42,127,392913384
321,0,Ticks_Pract_8,17,1,48,94,392914352
321,0,Ticks_Pract_8,18,1,48,90,393709640
321,0,Ticks_Pract_8,19,5,42,127,393713184
321,0,Ticks_Pract_8,20,1,48,127,394508176
321,0,Ticks_Pract_8,21,5,42,127,394512624
321,0,Ticks_Pract_8,22,1,48,88,395310316
321,0,Ticks_Pract_8,23,5,42,127,395312432
321,0,Ticks_Pract_8,24,1,48,98,396085576
321,0,Ticks_Pract_8,25,1,38,21,396095732
321,0,Ticks_Pract_8,26,5,42,127,396113192
321,0,Ticks_Pract_8,27,1,48,70,396896104
321,0,Ticks_Pract_8,28,5,42,127,396913044
321,0,Ticks_Pract_8,29,1,48,100,397673852
321,0,Ticks_Pract_8,30,5,42,127,397712876
321,0,Ticks_Pract_8,31,1,48,127,398475252
321,0,Ticks_Pract_8,32,5,42,127,398512612
321,0,Ticks_Pract_8,33,1,48,127,399268480
321,0,Ticks_Pract_8,34,5,42,127,399313168
321,0,Ticks_Pract_8,35,1,48,120,400082952
321,0,Ticks_Pract_8,36,5,42,127,400113052
321,0,Ticks_Pract_8,37,1,48,111,400872960
321,0,Ticks_Pract_8,38,5,42,127,400912860
321,0,Ticks_Pract_8,39,1,48,96,401706424
321,0,Ticks_Pract_8,40,5,42,127,401712444
321,0,Ticks_Pract_8,41,1,48,125,402509152
321,0,Ticks_Pract_8,42,5,42,127,402513224
321,0,Ticks_Pract_8,43,1,48,119,403310528
321,0,Ticks_Pract_8,44,5,42,127,403313032
321,0,Ticks_Pract_8,45,1,48,90,404077804
321,0,Ticks_Pract_8,46,5,42,127,404112716
321,0,Ticks_Pract_8,47,1,48,104,404882944
321,0,Ticks_Pract_8,48,5,42,127,404912672
321,0,Ticks_Pract_8,49,1,48,109,405675496
321,0,Ticks_Pract_8,50,5,42,127,405713376
321,0,Ticks_Pract_8,51,1,48,88,406470896
321,0,Ticks_Pract_8,52,1,38,20,406480744
321,0,Ticks_Pract_8,53,5,42,127,406512944
321,0,Ticks_Pract_8,54,1,48,79,407273796
321,0,Ticks_Pract_8,55,1,38,19,407283200
321,0,Ticks_Pract_8,56,5,42,127,407312628
321,0,Ticks_Pract_8,57,1,48,105,408052384
321,0,Ticks_Pract_8,58,5,42,127,408112556
321,0,Ticks_Pract_8,59,1,48,127,408906948
321,0,Ticks_Pract_8,60,5,42,127,408913260
321,0,Ticks_Pract_8,61,1,48,127,409702040
321,0,Ticks_Pract_8,0,9999,9999,9999,385710140
321,0,Ticks_Pract_8,1,9999,9999,9999,386510940
321,0,Ticks_Pract_8,2,9999,9999,9999,387310696
321,0,Ticks_Pract_8,3,9999,9999,9999,388110408
321,0,Ticks_Pract_8,4,9999,9999,9999,388910140
321,0,Ticks_Pract_8,5,9999,9999,9999,389710940
321,0,Ticks_Pract_8,6,9999,9999,9999,390510692
321,0,Ticks_Pract_8,7,9999,9999,9999,391310428
321,0,Ticks_Pract_8,8,9999,9999,9999,392110168
321,0,Ticks_Pract_8,9,9999,9999,9999,392910948
321,0,Ticks_Pract_8,10,9999,9999,9999,393710676
321,0,Ticks_Pract_8,11,9999,9999,9999,394510408
321,0,Ticks_Pract_8,12,9999,9999,9999,395310180
321,0,Ticks_Pract_8,13,9999,9999,9999,396110904
321,0,Ticks_Pract_8,14,9999,9999,9999,396910684
321,0,Ticks_Pract_8,15,9999,9999,9999,397710440
321,0,Ticks_Pract_8,16,9999,9999,9999,398510176
321,0,Ticks_Pract_8,17,9999,9999,9999,399310956
321,0,Ticks_Pract_8,18,9999,9999,9999,400110688
321,0,Ticks_Pract_8,19,9999,9999,9999,400910420
321,0,Ticks_Pract_8,20,9999,9999,9999,401710156
321,0,Ticks_Pract_8,21,9999,9999,9999,402510936
321,0,Ticks_Pract_8,22,9999,9999,9999,403310672
321,0,Ticks_Pract_8,23,9999,9999,9999,404110428
321,0,Ticks_Pract_8,24,9999,9999,9999,404910160
321,0,Ticks_Pract_8,25,9999,9999,9999,405710940
321,0,Ticks_Pract_8,26,9999,9999,9999,406510656
321,0,Ticks_Pract_8,27,9999,9999,9999,407310416
321,0,Ticks_Pract_8,28,9999,9999,9999,408110196
321,0,Ticks_Pract_8,29,9999,9999,9999,408910900
322,1,Ticks_Pract_5,0,5,42,127,423109992
322,1,Ticks_Pract_5,1,5,42,127,423609632
322,1,Ticks_Pract_5,2,5,42,127,424109424
322,1,Ticks_Pract_5,3,5,42,127,424610040
322,1,Ticks_Pract_5,4,5,42,127,425109904
322,1,Ticks_Pract_5,5,1,48,68,425117740
322,1,Ticks_Pract_5,6,1,48,50,425143216
322,1,Ticks_Pract_5,7,1,48,62,425604300
322,1,Ticks_Pract_5,8,5,42,127,425609720
322,1,Ticks_Pract_5,9,1,48,67,426101952
322,1,Ticks_Pract_5,10,5,42,127,426110164
322,1,Ticks_Pract_5,11,5,42,127,426610064
322,1,Ticks_Pract_5,12,1,48,68,426615796
322,1,Ticks_Pract_5,13,5,42,127,427109760
322,1,Ticks_Pract_5,14,1,48,75,427128212
322,1,Ticks_Pract_5,15,1,48,74,427606272
322,1,Ticks_Pract_5,16,5,42,127,427609892
322,1,Ticks_Pract_5,17,1,48,75,428097668
322,1,Ticks_Pract_5,18,5,42,127,428110112
322,1,Ticks_Pract_5,19,1,48,75,428601096
322,1,Ticks_Pract_5,20,5,42,127,428609884
322,1,Ticks_Pract_5,21,5,42,127,429109588
322,1,Ticks_Pract_5,22,1,48,83,429112104
322,1,Ticks_Pract_5,23,5,42,127,429610624
322,1,Ticks_Pract_5,24,1,48,79,429621900
322,1,Ticks_Pract_5,25,1,48,83,430099284
322,1,Ticks_Pract_5,26,5,42,127,430109944
322,1,Ticks_Pract_5,27,1,48,89,430603620
322,1,Ticks_Pract_5,28,5,42,127,430609636
322,1,Ticks_Pract_5,29,1,48,79,431105628
322,1,Ticks_Pract_5,30,5,42,127,431109628
322,1,Ticks_Pract_5,31,1,48,83,431601508
322,1,Ticks_Pract_5,32,5,42,127,431610220
322,1,Ticks_Pract_5,33,1,48,98,432104644
322,1,Ticks_Pract_5,34,5,42,127,432109988
322,1,Ticks_Pract_5,35,1,48,90,432599852
322,1,Ticks_Pract_5,36,5,42,127,432609760
322,1,Ticks_Pract_5,37,1,48,94,433103508
322,1,Ticks_Pract_5,38,5,42,127,433110576
322,1,Ticks_Pract_5,39,1,48,85,433602608
322,1,Ticks_Pract_5,40,5,42,127,433610192
322,1,Ticks_Pract_5,41,5,42,127,434109672
322,1,Ticks_Pract_5,42,1,48,78,434113088
322,1,Ticks_Pract_5,43,5,42,127,434609516
322,1,Ticks_Pract_5,44,1,48,85,434611076
322,1,Ticks_Pract_5,45,1,48,90,435110180
322,1,Ticks_Pract_5,46,5,42,127,435111740
322,1,Ticks_Pract_5,47,5,42,127,435609952
322,1,Ticks_Pract_5,48,1,48,94,435616208
322,1,Ticks_Pract_5,49,5,42,127,436109644
322,1,Ticks_Pract_5,50,1,48,95,436112312
322,1,Ticks_Pract_5,51,1,48,92,436601740
322,1,Ticks_Pract_5,52,5,42,127,436610380
322,1,Ticks_Pract_5,53,1,48,84,437109604
322,1,Ticks_Pract_5,54,5,42,127,437111320
322,1,Ticks_Pract_5,55,5,42,127,437609876
322,1,Ticks_Pract_5,56,1,48,90,437616208
322,1,Ticks_Pract_5,57,5,42,127,438109644
322,1,Ticks_Pract_5,58,1,48,81,438110608
322,1,Ticks_Pract_5,59,1,48,80,438610532
322,1,Ticks_Pract_5,60,5,42,127,438612100
322,1,Ticks_Pract_5,61,5,42,127,439110228
322,1,Ticks_Pract_5,62,1,48,86,439112016
322,1,Ticks_Pract_5,63,1,48,86,439598368
322,1,Ticks_Pract_5,64,5,42,127,439609692
322,1,Ticks_Pract_5,65,1,48,84,440091400
322,1,Ticks_Pract_5,66,5,42,127,440109460
322,1,Ticks_Pract_5,67,1,48,89,440601416
322,1,Ticks_Pract_5,68,5,42,127,440610276
322,1,Ticks_Pract_5,69,1,48,84,441094976
322,1,Ticks_Pract_5,70,5,42,127,441109748
322,1,Ticks_Pract_5,71,1,48,88,441598416
322,1,Ticks_Pract_5,72,5,42,127,441609592
322,1,Ticks_Pract_5,73,1,48,89,442102592
322,1,Ticks_Pract_5,74,5,42,127,442110260
322,1,Ticks_Pract_5,75,1,48,85,442595108
322,1,Ticks_Pract_5,76,5,42,127,442610328
322,1,Ticks_Pract_5,0,9999,9999,9999,423107704
322,1,Ticks_Pract_5,1,9999,9999,9999,423607348
322,1,Ticks_Pract_5,2,9999,9999,9999,424107064
322,1,Ticks_Pract_5,3,9999,9999,9999,424607828
322,1,Ticks_Pract_5,4,9999,9999,9999,425107544
322,1,Ticks_Pract_5,5,9999,9999,9999,425607284
322,1,Ticks_Pract_5,6,9999,9999,9999,426107952
322,1,Ticks_Pract_5,7,9999,9999,9999,426607704
322,1,Ticks_Pract_5,8,9999,9999,9999,427107396
322,1,Ticks_Pract_5,9,9999,9999,9999,427607160
322,1,Ticks_Pract_5,10,9999,9999,9999,428107828
322,1,Ticks_Pract_5,11,9999,9999,9999,428607596
322,1,Ticks_Pract_5,12,9999,9999,9999,429107300
322,1,Ticks_Pract_5,13,9999,9999,9999,429608040
322,1,Ticks_Pract_5,14,9999,9999,9999,430107732
322,1,Ticks_Pract_5,15,9999,9999,9999,430607424
322,1,Ticks_Pract_5,16,9999,9999,9999,431107192
322,1,Ticks_Pract_5,17,9999,9999,9999,431607860
322,1,Ticks_Pract_5,18,9999,9999,9999,432107628
322,1,Ticks_Pract_5,19,9999,9999,9999,432607324
322,1,Ticks_Pract_5,20,9999,9999,9999,433108064
322,1,Ticks_Pract_5,21,9999,9999,9999,433607760
322,1,Ticks_Pract_5,22,9999,9999,9999,434107460
322,1,Ticks_Pract_5,23,9999,9999,9999,434607156
322,1,Ticks_Pract_5,24,9999,9999,9999,435107896
322,1,Ticks_Pract_5,25,9999,9999,9999,435607664
322,1,Ticks_Pract_5,26,9999,9999,9999,436107360
322,1,Ticks_Pract_5,27,9999,9999,9999,436608092
322,1,Ticks_Pract_5,28,9999,9999,9999,437107772
322,1,Ticks_Pract_5,29,9999,9999,9999,437607512
322,1,Ticks_Pract_5,30,9999,9999,9999,438107208
322,1,Ticks_Pract_5,31,9999,9999,9999,438607952
322,1,Ticks_Pract_5,32,9999,9999,9999,439107644
322,1,Ticks_Pract_5,33,9999,9999,9999,439607408
322,1,Ticks_Pract_5,34,9999,9999,9999,440107100
322,1,Ticks_Pract_5,35,9999,9999,9999,440607844
322,1,Ticks_Pract_5,36,9999,9999,9999,441107536
322,1,Ticks_Pract_5,37,9999,9999,9999,441607232
322,1,Ticks_Pract_5,38,9999,9999,9999,442107976
322,1,Ticks_Pract_5,39,9999,9999,9999,442607668
323,2,T1_SMS_8,0,5,42,127,530863416
323,2,T1_SMS_8,1,5,42,127,531664364
323,2,T1_SMS_8,2,5,42,127,532463896
323,2,T1_SMS_8,3,5,42,127,533263576
323,2,T1_SMS_8,4,1,48,59,534063404
323,2,T1_SMS_8,5,5,42,127,534065040
323,2,T1_SMS_8,6,1,48,60,534843128
323,2,T1_SMS_8,7,5,42,127,534864180
323,2,T1_SMS_8,8,1,48,49,534871400
323,2,T1_SMS_8,9,1,48,65,535661928
323,2,T1_SMS_8,10,5,42,127,535663896
323,2,T1_SMS_8,11,1,48,67,536439680
323,2,T1_SMS_8,12,5,42,127,536463872
323,2,T1_SMS_8,13,1,48,83,537254820
323,2,T1_SMS_8,14,5,42,127,537263532
323,2,T1_SMS_8,15,5,42,127,538064244
323,2,T1_SMS_8,16,1,48,89,538083820
323,2,T1_SMS_8,17,1,48,65,538103616
323,2,T1_SMS_8,18,5,42,127,538864032
323,2,T1_SMS_8,19,1,48,89,538867080
323,2,T1_SMS_8,20,1,48,84,539651760
323,2,T1_SMS_8,21,5,42,127,539663908
323,2,T1_SMS_8,22,1,48,78,540439372
323,2,T1_SMS_8,23,5,42,127,540463640
323,2,T1_SMS_8,24,1,48,84,541233648
323,2,T1_SMS_8,25,5,42,127,541264348
323,2,T1_SMS_8,26,1,48,90,542054920
323,2,T1_SMS_8,27,5,42,127,542063856
323,2,T1_SMS_8,28,1,48,88,542846648
323,2,T1_SMS_8,29,5,42,127,542863588
323,2,T1_SMS_8,30,1,48,94,543609888
323,2,T1_SMS_8,31,5,42,127,543663548
323,2,T1_SMS_8,32,1,48,85,544442456
323,2,T1_SMS_8,33,5,42,127,544464476
323,2,T1_SMS_8,34,1,48,85,545218104
323,2,T1_SMS_8,35,5,42,127,545263988
323,2,T1_SMS_8,36,1,48,85,546018364
323,2,T1_SMS_8,37,5,42,127,546063644
323,2,T1_SMS_8,38,1,48,92,546855416
323,2,T1_SMS_8,39,5,42,127,546863604
323,2,T1_SMS_8,40,5,42,127,547664388
323,2,T1_SMS_8,41,1,48,95,547679556
323,2,T1_SMS_8,42,5,42,127,548464216
323,2,T1_SMS_8,43,1,48,83,548466508
323,2,T1_SMS_8,44,1,48,75,549225888
323,2,T1_SMS_8,45,5,42,127,549263792
323,2,T1_SMS_8,46,1,48,73,550004252
323,2,T1_SMS_8,47,5,42,127,550063676
323,2,T1_SMS_8,48,1,48,70,550842956
323,2,T1_SMS_8,49,5,42,127,550864156
323,2,T1_SMS_8,50,1,48,76,551644412
323,2,T1_SMS_8,51,5,42,127,551663964
323,2,T1_SMS_8,52,1,48,74,552425140
323,2,T1_SMS_8,53,5,42,127,552463848
323,2,T1_SMS_8,54,1,48,74,553230416
323,2,T1_SMS_8,55,5,42,127,553263436
323,2,T1_SMS_8,56,1,48,80,554022072
323,2,T1_SMS_8,57,5,42,127,554064140
323,2,T1_SMS_8,58,1,48,81,554834372
323,2,T1_SMS_8,59,5,42,127,554864196
323,2,T1_SMS_8,60,1,48,78,555635324
323,2,T1_SMS_8,61,5,42,127,555663856
323,2,T1_SMS_8,62,5,42,127,556463372
323,2,T1_SMS_8,63,1,48,76,556472700
323,2,T1_SMS_8,64,5,42,127,557264228
323,2,T1_SMS_8,65,1,48,76,557270044
323,2,T1_SMS_8,66,1,48,81,558050904
323,2,T1_SMS_8,67,5,42,127,558064028
323,2,T1_SMS_8,68,1,48,83,558840168
323,2,T1_SMS_8,69,5,42,127,558863688
323,2,T1_SMS_8,70,1,48,82,559645888
323,2,T1_SMS_8,71,5,42,127,559663348
323,2,T1_SMS_8,72,5,42,127,560464136
323,2,T1_SMS_8,73,1,48,83,560468752
323,2,T1_SMS_8,74,1,48,81,561241688
323,2,T1_SMS_8,75,5,42,127,561263888
323,2,T1_SMS_8,76,1,48,80,562054164
323,2,T1_SMS_8,77,5,42,127,562063620
323,2,T1_SMS_8,78,1,48,85,562795900
323,2,T1_SMS_8,79,1,48,62,562814604
323,2,T1_SMS_8,80,5,42,127,562863480
323,2,T1_SMS_8,81,5,42,127,563664268
323,2,T1_SMS_8,82,1,48,67,563707256
323,2,T1_SMS_8,83,1,48,79,564455204
323,2,T1_SMS_8,84,5,42,127,564463920
323,2,T1_SMS_8,85,1,48,54,564480488
323,2,T1_SMS_8,86,5,42,127,565263784
323,2,T1_SMS_8,87,1,48,78,565264824
323,2,T1_SMS_8,88,1,48,57,565288352
323,2,T1_SMS_8,89,5,42,127,566063568
323,2,T1_SMS_8,90,1,48,77,566066320
323,2,T1_SMS_8,91,1,48,59,566086112
323,2,T1_SMS_8,92,1,48,73,566845212
323,2,T1_SMS_8,93,5,42,127,566864320
323,2,T1_SMS_8,94,1,48,71,567630512
323,2,T1_SMS_8,95,5,42,127,567663856
323,2,T1_SMS_8,96,1,48,74,568412820
323,2,T1_SMS_8,97,5,42,127,568463812
323,2,T1_SMS_8,98,1,48,80,569258876
323,2,T1_SMS_8,99,5,42,127,569263400
323,2,T1_SMS_8,100,1,48,81,570058312
323,2,T1_SMS_8,101,5,42,127,570064328
323,2,T1_SMS_8,102,1,48,79,570855724
323,2,T1_SMS_8,103,5,42,127,570863988
323,2,T1_SMS_8,104,1,48,79,571647904
323,2,T1_SMS_8,105,5,42,127,571663648
323,2,T1_SMS_8,106,1,48,81,572461264
323,2,T1_SMS_8,107,5,42,127,572463380
323,2,T1_SMS_8,108,1,48,84,573264388
323,2,T1_SMS_8,109,5,42,127,573266180
323,2,T1_SMS_8,110,1,48,76,574023916
323,2,T1_SMS_8,111,5,42,127,574063916
323,2,T1_SMS_8,112,1,48,65,574806896
323,2,T1_SMS_8,113,5,42,127,574863724
323,2,T1_SMS_8,114,1,48,72,575640536
323,2,T1_SMS_8,115,5,42,127,575663384
323,2,T1_SMS_8,116,1,48,76,576451940
323,2,T1_SMS_8,117,5,42,127,576464164
323,2,T1_SMS_8,118,1,48,81,577260196
323,2,T1_SMS_8,119,5,42,127,577263972
323,2,T1_SMS_8,120,5,42,127,578063712
323,2,T1_SMS_8,121,1,48,80,578069072
323,2,T1_SMS_8,122,1,48,86,578844032
323,2,T1_SMS_8,123,5,42,127,578863512
323,2,T1_SMS_8,124,1,48,88,579651768
323,2,T1_SMS_8,125,5,42,127,579664364
323,2,T1_SMS_8,126,1,48,76,580433028
323,2,T1_SMS_8,127,5,42,127,580464124
323,2,T1_SMS_8,128,1,48,81,581218172
323,2,T1_SMS_8,129,5,42,127,581263856
323,2,T1_SMS_8,130,1,48,78,582053680
323,2,T1_SMS_8,131,5,42,127,582063440
323,2,T1_SMS_8,132,1,48,79,582850200
323,2,T1_SMS_8,133,5,42,127,582864224
323,2,T1_SMS_8,134,1,48,81,583655172
323,2,T1_SMS_8,135,5,42,127,583663884
323,2,T1_SMS_8,136,5,42,127,584463772
323,2,T1_SMS_8,137,1,48,79,584469136
323,2,T1_SMS_8,138,1,48,81,585243796
323,2,T1_SMS_8,139,5,42,127,585263424
323,2,T1_SMS_8,140,5,42,127,586064284
323,2,T1_SMS_8,141,1,48,80,586071148
323,2,T1_SMS_8,142,5,42,127,586864044
323,2,T1_SMS_8,143,1,48,74,586873668
323,2,T1_SMS_8,144,1,48,80,587626916
323,2,T1_SMS_8,145,5,42,127,587663696
323,2,T1_SMS_8,146,1,48,82,588440588
323,2,T1_SMS_8,147,5,42,127,588463428
323,2,T1_SMS_8,148,1,48,76,589256096
323,2,T1_SMS_8,149,5,42,127,589264432
323,2,T1_SMS_8,150,1,48,79,590016036
323,2,T1_SMS_8,151,5,42,127,590063868
323,2,T1_SMS_8,152,1,48,85,590812332
323,2,T1_SMS_8,153,5,42,127,590863748
323,2,T1_SMS_8,154,1,48,83,591637576
323,2,T1_SMS_8,155,5,42,127,591663408
323,2,T1_SMS_8,156,1,48,77,592445532
323,2,T1_SMS_8,157,5,42,127,592464188
323,2,T1_SMS_8,158,1,48,78,593244964
323,2,T1_SMS_8,159,5,42,127,593264096
323,2,T1_SMS_8,160,1,48,74,594037620
323,2,T1_SMS_8,161,5,42,127,594063832
323,2,T1_SMS_8,162,1,48,83,594820896
323,2,T1_SMS_8,163,5,42,127,594863340
323,2,T1_SMS_8,164,1,48,87,595636788
323,2,T1_SMS_8,165,5,42,127,595664268
323,2,T1_SMS_8,166,1,48,80,596444672
323,2,T1_SMS_8,167,5,42,127,596463852
323,2,T1_SMS_8,168,5,42,127,597263668
323,2,T1_SMS_8,169,1,48,85,597270904
323,2,T1_SMS_8,170,1,48,76,598044812
323,2,T1_SMS_8,171,5,42,127,598063468
323,2,T1_SMS_8,172,1,48,78,598831752
323,2,T1_SMS_8,173,5,42,127,598864176
323,2,T1_SMS_8,174,1,48,81,599611144
323,2,T1_SMS_8,175,5,42,127,599664156
323,2,T1_SMS_8,176,1,48,81,600428328
323,2,T1_SMS_8,177,5,42,127,600463668
323,2,T1_SMS_8,178,1,48,82,601244440
323,2,T1_SMS_8,179,5,42,127,601263476
323,2,T1_SMS_8,180,5,42,127,602064188
323,2,T1_SMS_8,181,1,48,76,602072764
323,2,T1_SMS_8,182,1,48,77,602859544
323,2,T1_SMS_8,183,5,42,127,602863912
323,2,T1_SMS_8,184,5,42,127,603663876
323,2,T1_SMS_8,185,1,48,79,603666392
323,2,T1_SMS_8,186,5,42,127,604463384
323,2,T1_SMS_8,187,1,48,77,604471212
323,2,T1_SMS_8,188,1,48,73,605252156
323,2,T1_SMS_8,189,5,42,127,605264156
323,2,T1_SMS_8,190,1,48,76,606056528
323,2,T1_SMS_8,191,5,42,127,606063840
323,2,T1_SMS_8,192,1,48,81,606863880
323,2,T1_SMS_8,193,5,42,127,606865520
323,2,T1_SMS_8,194,5,42,127,607663540
323,2,T1_SMS_8,195,1,48,70,607664804
323,2,T1_SMS_8,196,1,48,71,608448952
323,2,T1_SMS_8,197,5,42,127,608464240
323,2,T1_SMS_8,198,1,48,76,609253316
323,2,T1_SMS_8,199,5,42,127,609263900
323,2,T1_SMS_8,200,5,42,127,610063716
323,2,T1_SMS_8,201,1,48,74,610069752
323,2,T1_SMS_8,202,5,42,127,610863672
323,2,T1_SMS_8,203,1,48,76,610865160
323,2,T1_SMS_8,204,5,42,127,611664228
323,2,T1_SMS_8,205,1,48,78,611696316
323,2,T1_SMS_8,206,5,42,127,612463912
323,2,T1_SMS_8,207,1,48,75,612474732
323,2,T1_SMS_8,208,5,42,127,613263648
323,2,T1_SMS_8,209,1,48,74,613282620
323,2,T1_SMS_8,210,1,48,75,614058924
323,2,T1_SMS_8,211,5,42,127,614063744
323,2,T1_SMS_8,212,5,42,127,614864160
323,2,T1_SMS_8,213,1,48,62,614873564
323,2,T1_SMS_8,214,1,48,74,615663672
323,2,T1_SMS_8,215,5,42,127,615665380
323,2,T1_SMS_8,216,5,42,127,616463848
323,2,T1_SMS_8,217,1,48,89,616478340
323,2,T1_SMS_8,218,1,48,54,616505916
323,2,T1_SMS_8,219,1,48,78,617241308
323,2,T1_SMS_8,220,5,42,127,617263404
323,2,T1_SMS_8,221,1,48,73,618026304
323,2,T1_SMS_8,222,5,42,127,618064332
323,2,T1_SMS_8,223,1,48,78,618823640
323,2,T1_SMS_8,224,5,42,127,618864312
323,2,T1_SMS_8,225,1,48,87,619639556
323,2,T1_SMS_8,226,5,42,127,619663604
323,2,T1_SMS_8,227,1,48,79,620454324
323,2,T1_SMS_8,228,5,42,127,620463484
323,2,T1_SMS_8,229,1,48,67,621257052
323,2,T1_SMS_8,230,5,42,127,621264188
323,2,T1_SMS_8,231,1,48,68,622054236
323,2,T1_SMS_8,232,5,42,127,622064144
323,2,T1_SMS_8,233,1,48,82,622819496
323,2,T1_SMS_8,234,5,42,127,622863732
323,2,T1_SMS_8,235,1,48,76,623648248
323,2,T1_SMS_8,236,5,42,127,623663540
323,2,T1_SMS_8,237,1,48,81,624441320
323,2,T1_SMS_8,238,5,42,127,624464244
323,2,T1_SMS_8,239,1,48,86,625262572
323,2,T1_SMS_8,240,5,42,127,625264228
323,2,T1_SMS_8,241,1,48,51,625293212
323,2,T1_SMS_8,242,1,48,80,626016312
323,2,T1_SMS_8,243,5,42,127,626063864
323,2,T1_SMS_8,244,1,48,78,626853616
323,2,T1_SMS_8,0,9999,9999,9999,530861128
323,2,T1_SMS_8,1,9999,9999,9999,531661928
323,2,T1_SMS_8,2,9999,9999,9999,532461684
323,2,T1_SMS_8,3,9999,9999,9999,533261364
323,2,T1_SMS_8,4,9999,9999,9999,534061116
323,2,T1_SMS_8,5,9999,9999,9999,534861892
323,2,T1_SMS_8,6,9999,9999,9999,535661644
323,2,T1_SMS_8,7,9999,9999,9999,536461364
323,2,T1_SMS_8,8,9999,9999,9999,537261172
323,2,T1_SMS_8,9,9999,9999,9999,538061884
323,2,T1_SMS_8,10,9999,9999,9999,538861672
323,2,T1_SMS_8,11,9999,9999,9999,539661396
323,2,T1_SMS_8,12,9999,9999,9999,540461128
323,2,T1_SMS_8,13,9999,9999,9999,541261912
323,2,T1_SMS_8,14,9999,9999,9999,542061644
323,2,T1_SMS_8,15,9999,9999,9999,542861376
323,2,T1_SMS_8,16,9999,9999,9999,543661112
323,2,T1_SMS_8,17,9999,9999,9999,544461888
323,2,T1_SMS_8,18,9999,9999,9999,545261624
323,2,T1_SMS_8,19,9999,9999,9999,546061356
323,2,T1_SMS_8,20,9999,9999,9999,546861164
323,2,T1_SMS_8,21,9999,9999,9999,547661880
323,2,T1_SMS_8,22,9999,9999,9999,548461684
323,2,T1_SMS_8,23,9999,9999,9999,549261432
323,2,T1_SMS_8,24,9999,9999,9999,550061164
323,2,T1_SMS_8,25,9999,9999,9999,550861944
323,2,T1_SMS_8,26,9999,9999,9999,551661676
323,2,T1_SMS_8,27,9999,9999,9999,552461408
323,2,T1_SMS_8,28,9999,9999,9999,553261144
323,2,T1_SMS_8,29,9999,9999,9999,554061928
323,2,T1_SMS_8,30,9999,9999,9999,554861664
323,2,T1_SMS_8,31,9999,9999,9999,555661420
323,2,T1_SMS_8,32,9999,9999,9999,556461160
323,2,T1_SMS_8,33,9999,9999,9999,557261940
323,2,T1_SMS_8,34,9999,9999,9999,558061664
323,2,T1_SMS_8,35,9999,9999,9999,558861400
323,2,T1_SMS_8,36,9999,9999,9999,559661136
323,2,T1_SMS_8,37,9999,9999,9999,560461920
323,2,T1_SMS_8,38,9999,9999,9999,561261648
323,2,T1_SMS_8,39,9999,9999,9999,562061408
323,2,T1_SMS_8,40,9999,9999,9999,562861116
323,2,T1_SMS_8,41,9999,9999,9999,563661904
323,2,T1_SMS_8,42,9999,9999,9999,564461632
323,2,T1_SMS_8,43,9999,9999,9999,565261424
323,2,T1_SMS_8,44,9999,9999,9999,566061132
323,2,T1_SMS_8,45,9999,9999,9999,566861884
323,2,T1_SMS_8,46,9999,9999,9999,567661620
323,2,T1_SMS_8,47,9999,9999,9999,568461376
323,2,T1_SMS_8,48,9999,9999,9999,569261112
323,2,T1_SMS_8,49,9999,9999,9999,570061892
323,2,T1_SMS_8,50,9999,9999,9999,570861624
323,2,T1_SMS_8,51,9999,9999,9999,571661360
323,2,T1_SMS_8,52,9999,9999,9999,572461128
323,2,T1_SMS_8,53,9999,9999,9999,573261876
323,2,T1_SMS_8,54,9999,9999,9999,574061628
323,2,T1_SMS_8,55,9999,9999,9999,574861360
323,2,T1_SMS_8,56,9999,9999,9999,575661172
323,2,T1_SMS_8,57,9999,9999,9999,576461876
323,2,T1_SMS_8,58,9999,9999,9999,577261684
323,2,T1_SMS_8,59,9999,9999,9999,578061424
323,2,T1_SMS_8,60,9999,9999,9999,578861148
323,2,T1_SMS_8,61,9999,9999,9999,579661928
323,2,T1_SMS_8,62,9999,9999,9999,580461684
323,2,T1_SMS_8,63,9999,9999,9999,581261420
323,2,T1_SMS_8,64,9999,9999,9999,582061152
323,2,T1_SMS_8,65,9999,9999,9999,582861936
323,2,T1_SMS_8,66,9999,9999,9999,583661672
323,2,T1_SMS_8,67,9999,9999,9999,584461408
323,2,T1_SMS_8,68,9999,9999,9999,585261136
323,2,T1_SMS_8,69,9999,9999,9999,586061920
323,2,T1_SMS_8,70,9999,9999,9999,586861680
323,2,T1_SMS_8,71,9999,9999,9999,587661408
323,2,T1_SMS_8,72,9999,9999,9999,588461140
323,2,T1_SMS_8,73,9999,9999,9999,589261920
323,2,T1_SMS_8,74,9999,9999,9999,590061652
323,2,T1_SMS_8,75,9999,9999,9999,590861388
323,2,T1_SMS_8,76,9999,9999,9999,591661120
323,2,T1_SMS_8,77,9999,9999,9999,592461900
323,2,T1_SMS_8,78,9999,9999,9999,593261660
323,2,T1_SMS_8,79,9999,9999,9999,594061392
323,2,T1_SMS_8,80,9999,9999,9999,594861128
323,2,T1_SMS_8,81,9999,9999,9999,595661908
323,2,T1_SMS_8,82,9999,9999,9999,596461640
323,2,T1_SMS_8,83,9999,9999,9999,597261380
323,2,T1_SMS_8,84,9999,9999,9999,598061108
323,2,T1_SMS_8,85,9999,9999,9999,598861888
323,2,T1_SMS_8,86,9999,9999,9999,599661648
323,2,T1_SMS_8,87,9999,9999,9999,600461380
323,2,T1_SMS_8,88,9999,9999,9999,601261112
323,2,T1_SMS_8,89,9999,9999,9999,602061900
323,2,T1_SMS_8,90,9999,9999,9999,602861624
323,2,T1_SMS_8,91,9999,9999,9999,603661364
323,2,T1_SMS_8,92,9999,9999,9999,604461172
323,2,T1_SMS_8,93,9999,9999,9999,605261872
323,2,T1_SMS_8,94,9999,9999,9999,606061628
323,2,T1_SMS_8,95,9999,9999,9999,606861368
323,2,T1_SMS_8,96,9999,9999,9999,607661104
323,2,T1_SMS_8,97,9999,9999,9999,608461876
323,2,T1_SMS_8,98,9999,9999,9999,609261684
323,2,T1_SMS_8,99,9999,9999,9999,610061424
323,2,T1_SMS_8,100,9999,9999,9999,610861160
323,2,T1_SMS_8,101,9999,9999,9999,611661940
323,2,T1_SMS_8,102,9999,9999,9999,612461624
323,2,T1_SMS_8,103,9999,9999,9999,613261360
323,2,T1_SMS_8,104,9999,9999,9999,614061160
323,2,T1_SMS_8,105,9999,9999,9999,614861872
323,2,T1_SMS_8,106,9999,9999,9999,615661680
323,2,T1_SMS_8,107,9999,9999,9999,616461412
323,2,T1_SMS_8,108,9999,9999,9999,617261120
323,2,T1_SMS_8,109,9999,9999,9999,618061896
323,2,T1_SMS_8,110,9999,9999,9999,618861656
323,2,T1_SMS_8,111,9999,9999,9999,619661388
323,2,T1_SMS_8,112,9999,9999,9999,620461120
323,2,T1_SMS_8,113,9999,9999,9999,621261900
323,2,T1_SMS_8,114,9999,9999,9999,622061632
323,2,T1_SMS_8,115,9999,9999,9999,622861368
323,2,T1_SMS_8,116,9999,9999,9999,623661104
323,2,T1_SMS_8,117,9999,9999,9999,624461884
323,2,T1_SMS_8,118,9999,9999,9999,625261648
323,2,T1_SMS_8,119,9999,9999,9999,626061428
324,4,T1_SMS_5,0,5,42,127,682298720
324,4,T1_SMS_5,1,5,42,127,682798512
324,4,T1_SMS_5,2,5,42,127,683299200
324,4,T1_SMS_5,3,5,42,127,683798916
324,4,T1_SMS_5,4,1,48,57,684298560
324,4,T1_SMS_5,5,5,42,127,684300424
324,4,T1_SMS_5,6,1,48,57,684786168
324,4,T1_SMS_5,7,5,42,127,684799444
324,4,T1_SMS_5,8,5,42,127,685298996
324,4,T1_SMS_5,9,1,48,59,685299964
324,4,T1_SMS_5,10,5,42,127,685798692
324,4,T1_SMS_5,11,1,48,61,685832176
324,4,T1_SMS_5,12,5,42,127,686298464
324,4,T1_SMS_5,13,1,48,67,686325288
324,4,T1_SMS_5,14,5,42,127,686799204
324,4,T1_SMS_5,15,1,48,71,686800392
324,4,T1_SMS_5,16,5,42,127,687298824
324,4,T1_SMS_5,17,1,48,70,687321540
324,4,T1_SMS_5,18,5,42,127,687798596
324,4,T1_SMS_5,19,1,48,65,687817196
324,4,T1_SMS_5,20,5,42,127,688299412
324,4,T1_SMS_5,21,1,48,62,688304176
324,4,T1_SMS_5,22,5,42,127,688799108
324,4,T1_SMS_5,23,1,48,56,688806188
324,4,T1_SMS_5,24,5,42,127,689298876
324,4,T1_SMS_5,25,1,48,57,689318228
324,4,T1_SMS_5,26,5,42,127,689798496
324,4,T1_SMS_5,27,1,48,56,689799760
324,4,T1_SMS_5,28,1,48,64,690295160
324,4,T1_SMS_5,29,5,42,127,690299456
324,4,T1_SMS_5,30,5,42,127,690799156
324,4,T1_SMS_5,31,1,48,62,690801828
324,4,T1_SMS_5,32,1,48,63,691298828
324,4,T1_SMS_5,33,5,42,127,691300240
324,4,T1_SMS_5,34,5,42,127,691799320
324,4,T1_SMS_5,35,1,48,70,691802060
324,4,T1_SMS_5,36,5,42,127,692299088
324,4,T1_SMS_5,37,1,48,74,692306024
324,4,T1_SMS_5,38,5,42,127,692798932
324,4,T1_SMS_5,39,1,48,68,692815892
324,4,T1_SMS_5,40,5,42,127,693298480
324,4,T1_SMS_5,41,1,48,66,693313936
324,4,T1_SMS_5,42,1,48,61,693789156
324,4,T1_SMS_5,43,5,42,127,693799136
324,4,T1_SMS_5,44,1,48,61,694295732
324,4,T1_SMS_5,45,5,42,127,694298984
324,4,T1_SMS_5,46,1,48,58,694788248
324,4,T1_SMS_5,47,5,42,127,694798824
324,4,T1_SMS_5,48,1,48,62,695282032
324,4,T1_SMS_5,49,5,42,127,695298448
324,4,T1_SMS_5,50,1,48,60,695784868
324,4,T1_SMS_5,51,5,42,127,695799116
324,4,T1_SMS_5,52,5,42,127,696298816
324,4,T1_SMS_5,53,1,48,59,696309412
324,4,T1_SMS_5,54,5,42,127,696798884
324,4,T1_SMS_5,55,1,48,64,696804244
324,4,T1_SMS_5,56,1,48,60,697286420
324,4,T1_SMS_5,57,5,42,127,697299172
324,4,T1_SMS_5,58,1,48,61,697790532
324,4,T1_SMS_5,59,5,42,127,697799016
324,4,T1_SMS_5,60,5,42,127,698298940
324,4,T1_SMS_5,61,1,48,61,698305420
324,4,T1_SMS_5,62,5,42,127,698798412
324,4,T1_SMS_5,63,1,48,62,698804968
324,4,T1_SMS_5,64,1,48,59,699286920
324,4,T1_SMS_5,65,5,42,127,699299148
324,4,T1_SMS_5,66,1,48,59,699793720
324,4,T1_SMS_5,67,5,42,127,699798916
324,4,T1_SMS_5,68,5,42,127,700298692
324,4,T1_SMS_5,69,1,48,58,700306072
324,4,T1_SMS_5,70,5,42,127,700799212
324,4,T1_SMS_5,71,1,48,62,700801076
324,4,T1_SMS_5,72,5,42,127,701299056
324,4,T1_SMS_5,73,1,48,61,701310180
324,4,T1_SMS_5,74,5,42,127,701798900
324,4,T1_SMS_5,75,1,48,62,701804184
324,4,T1_SMS_5,76,1,48,62,702293884
324,4,T1_SMS_5,77,5,42,127,702298560
324,4,T1_SMS_5,78,1,48,57,702784084
324,4,T1_SMS_5,79,5,42,127,702799452
324,4,T1_SMS_5,80,5,42,127,703298780
324,4,T1_SMS_5,81,1,48,59,703305484
324,4,T1_SMS_5,82,5,42,127,703798624
324,4,T1_SMS_5,83,1,48,57,703803836
324,4,T1_SMS_5,84,1,48,57,704291996
324,4,T1_SMS_5,85,5,42,127,704299508
324,4,T1_SMS_5,86,5,42,127,704799060
324,4,T1_SMS_5,87,1,48,58,704811304
324,4,T1_SMS_5,88,1,48,57,705283604
324,4,T1_SMS_5,89,5,42,127,705298748
324,4,T1_SMS_5,90,1,48,59,705772904
324,4,T1_SMS_5,91,5,42,127,705798592
324,4,T1_SMS_5,92,1,48,60,706278436
324,4,T1_SMS_5,93,5,42,127,706299484
324,4,T1_SMS_5,94,1,48,63,706783436
324,4,T1_SMS_5,95,5,42,127,706798880
324,4,T1_SMS_5,96,1,48,62,707275724
324,4,T1_SMS_5,97,5,42,127,707298576
324,4,T1_SMS_5,98,1,48,63,707795688
324,4,T1_SMS_5,99,5,42,127,707799392
324,4,T1_SMS_5,100,5,42,127,708299240
324,4,T1_SMS_5,101,1,48,61,708306696
324,4,T1_SMS_5,102,1,48,62,708797508
324,4,T1_SMS_5,103,5,42,127,708799376
324,4,T1_SMS_5,104,1,48,65,709289468
324,4,T1_SMS_5,105,5,42,127,709298628
324,4,T1_SMS_5,106,5,42,127,709799448
324,4,T1_SMS_5,107,1,48,65,709802196
324,4,T1_SMS_5,108,1,48,66,710295888
324,4,T1_SMS_5,109,5,42,127,710299064
324,4,T1_SMS_5,110,1,48,63,710788624
324,4,T1_SMS_5,111,5,42,127,710798904
324,4,T1_SMS_5,112,1,48,62,711287572
324,4,T1_SMS_5,113,5,42,127,711298524
324,4,T1_SMS_5,114,5,42,127,711799124
324,4,T1_SMS_5,115,1,48,68,711812192
324,4,T1_SMS_5,116,5,42,127,712298744
324,4,T1_SMS_5,117,1,48,66,712301412
324,4,T1_SMS_5,118,1,48,67,712792012
324,4,T1_SMS_5,119,5,42,127,712798632
324,4,T1_SMS_5,120,5,42,127,713299232
324,4,T1_SMS_5,121,1,48,66,713304520
324,4,T1_SMS_5,122,5,42,127,713799076
324,4,T1_SMS_5,123,1,48,69,713802344
324,4,T1_SMS_5,124,1,48,64,714297108
324,4,T1_SMS_5,125,5,42,127,714298836
324,4,T1_SMS_5,126,5,42,127,714798464
324,4,T1_SMS_5,127,1,48,67,714800476
324,4,T1_SMS_5,128,1,48,59,715299432
324,4,T1_SMS_5,129,5,42,127,715300996
324,4,T1_SMS_5,130,5,42,127,715799052
324,4,T1_SMS_5,131,1,48,62,715811592
324,4,T1_SMS_5,132,5,42,127,716298744
324,4,T1_SMS_5,133,1,48,62,716301188
324,4,T1_SMS_5,134,1,48,65,716797448
324,4,T1_SMS_5,135,5,42,127,716799256
324,4,T1_SMS_5,136,1,48,62,717295776
324,4,T1_SMS_5,137,5,42,127,717299028
324,4,T1_SMS_5,138,5,42,127,717798876
324,4,T1_SMS_5,139,1,48,62,717806404
324,4,T1_SMS_5,140,5,42,127,718298500
324,4,T1_SMS_5,141,1,48,59,718307680
324,4,T1_SMS_5,142,1,48,57,718777588
324,4,T1_SMS_5,143,5,42,127,718799160
324,4,T1_SMS_5,144,1,48,61,719295156
324,4,T1_SMS_5,145,5,42,127,719299084
324,4,T1_SMS_5,146,1,48,66,719793284
324,4,T1_SMS_5,147,5,42,127,719798776
324,4,T1_SMS_5,148,1,48,62,720288792
324,4,T1_SMS_5,149,5,42,127,720299368
324,4,T1_SMS_5,150,1,48,62,720796556
324,4,T1_SMS_5,151,5,42,127,720799064
324,4,T1_SMS_5,152,1,48,64,721275236
324,4,T1_SMS_5,153,5,42,127,721298760
324,4,T1_SMS_5,154,1,48,63,721790044
324,4,T1_SMS_5,155,5,42,127,721798452
324,4,T1_SMS_5,156,1,48,66,722277472
324,4,T1_SMS_5,157,5,42,127,722299344
324,4,T1_SMS_5,158,1,48,65,722775788
324,4,T1_SMS_5,159,5,42,127,722798816
324,4,T1_SMS_5,160,1,48,59,723280424
324,4,T1_SMS_5,161,5,42,127,723298808
324,4,T1_SMS_5,162,1,48,61,723789540
324,4,T1_SMS_5,163,5,42,127,723799376
324,4,T1_SMS_5,164,1,48,60,724279588
324,4,T1_SMS_5,165,5,42,127,724299068
324,4,T1_SMS_5,166,1,48,59,724775992
324,4,T1_SMS_5,167,5,42,127,724798764
324,4,T1_SMS_5,168,1,48,62,725289076
324,4,T1_SMS_5,169,5,42,127,725298608
324,4,T1_SMS_5,170,1,48,61,725789068
324,4,T1_SMS_5,171,5,42,127,725799276
324,4,T1_SMS_5,172,1,48,61,726285400
324,4,T1_SMS_5,173,5,42,127,726299044
324,4,T1_SMS_5,174,5,42,127,726798748
324,4,T1_SMS_5,175,1,48,59,726814732
324,4,T1_SMS_5,176,5,42,127,727298516
324,4,T1_SMS_5,177,1,48,62,727300528
324,4,T1_SMS_5,178,5,42,127,727799184
324,4,T1_SMS_5,179,1,48,66,727806568
324,4,T1_SMS_5,180,5,42,127,728298884
324,4,T1_SMS_5,181,1,48,64,728311500
324,4,T1_SMS_5,182,5,42,127,728798504
324,4,T1_SMS_5,183,1,48,65,728815304
324,4,T1_SMS_5,184,1,48,59,729298492
324,4,T1_SMS_5,185,5,42,127,729300432
324,4,T1_SMS_5,186,5,42,127,729799088
324,4,T1_SMS_5,187,1,48,61,729804448
324,4,T1_SMS_5,188,5,42,127,730298708
324,4,T1_SMS_5,189,1,48,60,730318432
324,4,T1_SMS_5,190,1,48,61,730792228
324,4,T1_SMS_5,191,5,42,127,730798320
324,4,T1_SMS_5,192,5,42,127,731299592
324,4,T1_SMS_5,193,1,48,57,731302784
324,4,T1_SMS_5,194,5,42,127,731798764
324,4,T1_SMS_5,195,1,48,57,731809140
324,4,T1_SMS_5,196,1,48,59,732291164
324,4,T1_SMS_5,197,5,42,127,732298604
324,4,T1_SMS_5,198,1,48,56,732799352
324,4,T1_SMS_5,199,5,42,127,732800836
324,4,T1_SMS_5,200,1,48,55,733291224
324,4,T1_SMS_5,201,5,42,127,733299188
324,4,T1_SMS_5,202,1,48,55,733778776
324,4,T1_SMS_5,203,5,42,127,733798736
324,4,T1_SMS_5,204,5,42,127,734298412
324,4,T1_SMS_5,205,1,48,56,734299452
324,4,T1_SMS_5,206,5,42,127,734799300
324,4,T1_SMS_5,207,1,48,59,734801672
324,4,T1_SMS_5,208,1,48,57,735296484
324,4,T1_SMS_5,209,5,42,127,735299064
324,4,T1_SMS_5,210,1,48,51,735775608
324,4,T1_SMS_5,211,5,42,127,735798760
324,4,T1_SMS_5,212,1,48,57,736297312
324,4,T1_SMS_5,213,5,42,127,736299280
324,4,T1_SMS_5,214,5,42,127,736799056
324,4,T1_SMS_5,215,1,48,60,736805240
324,4,T1_SMS_5,216,1,48,56,737296860
324,4,T1_SMS_5,217,5,42,127,737298744
324,4,T1_SMS_5,218,5,42,127,737798444
324,4,T1_SMS_5,219,1,48,57,737810540
324,4,T1_SMS_5,220,1,48,55,738297064
324,4,T1_SMS_5,221,5,42,127,738299180
324,4,T1_SMS_5,222,5,42,127,738798956
324,4,T1_SMS_5,223,1,48,58,738800440
324,4,T1_SMS_5,224,1,48,56,739297676
324,4,T1_SMS_5,225,5,42,127,739299312
324,4,T1_SMS_5,226,1,48,57,739794340
324,4,T1_SMS_5,227,5,42,127,739799460
324,4,T1_SMS_5,228,1,48,57,740296728
324,4,T1_SMS_5,229,5,42,127,740299080
324,4,T1_SMS_5,230,5,42,127,740799080
324,4,T1_SMS_5,231,1,48,60,740804744
324,4,T1_SMS_5,232,5,42,127,741298480
324,4,T1_SMS_5,233,1,48,62,741302344
324,4,T1_SMS_5,234,1,48,64,741792072
324,4,T1_SMS_5,235,5,42,127,741799136
324,4,T1_SMS_5,236,5,42,127,742298912
324,4,T1_SMS_5,237,1,48,60,742304052
324,4,T1_SMS_5,238,1,48,62,742791608
324,4,T1_SMS_5,239,5,42,127,742798748
324,4,T1_SMS_5,240,1,48,60,743298228
324,4,T1_SMS_5,241,5,42,127,743299864
324,4,T1_SMS_5,242,1,48,60,743791224
324,4,T1_SMS_5,243,5,42,127,743799336
324,4,T1_SMS_5,244,5,42,127,744298812
324,4,T1_SMS_5,245,1,48,59,744299780
324,4,T1_SMS_5,246,1,48,59,744788196
324,4,T1_SMS_5,247,5,42,127,744798628
324,4,T1_SMS_5,248,5,42,127,745299572
324,4,T1_SMS_5,249,1,48,67,745304116
324,4,T1_SMS_5,250,5,42,127,745799044
324,4,T1_SMS_5,251,1,48,63,745809492
324,4,T1_SMS_5,252,5,42,127,746298812
324,4,T1_SMS_5,253,1,48,65,746303656
324,4,T1_SMS_5,254,1,48,60,746796920
324,4,T1_SMS_5,255,5,42,127,746798728
324,4,T1_SMS_5,256,1,48,62,747294200
324,4,T1_SMS_5,0,9999,9999,9999,682296436
324,4,T1_SMS_5,1,9999,9999,9999,682796152
324,4,T1_SMS_5,2,9999,9999,9999,683296840
324,4,T1_SMS_5,3,9999,9999,9999,683796556
324,4,T1_SMS_5,4,9999,9999,9999,684296272
324,4,T1_SMS_5,5,9999,9999,9999,684797008
324,4,T1_SMS_5,6,9999,9999,9999,685296712
324,4,T1_SMS_5,7,9999,9999,9999,685796404
324,4,T1_SMS_5,8,9999,9999,9999,686296176
324,4,T1_SMS_5,9,9999,9999,9999,686796916
324,4,T1_SMS_5,10,9999,9999,9999,687296612
324,4,T1_SMS_5,11,9999,9999,9999,687796308
324,4,T1_SMS_5,12,9999,9999,9999,688297048
324,4,T1_SMS_5,13,9999,9999,9999,688796748
324,4,T1_SMS_5,14,9999,9999,9999,689296440
324,4,T1_SMS_5,15,9999,9999,9999,689796212
324,4,T1_SMS_5,16,9999,9999,9999,690296948
324,4,T1_SMS_5,17,9999,9999,9999,690796648
324,4,T1_SMS_5,18,9999,9999,9999,691296316
324,4,T1_SMS_5,19,9999,9999,9999,691797108
324,4,T1_SMS_5,20,9999,9999,9999,692296800
324,4,T1_SMS_5,21,9999,9999,9999,692796496
324,4,T1_SMS_5,22,9999,9999,9999,693296192
324,4,T1_SMS_5,23,9999,9999,9999,693796928
324,4,T1_SMS_5,24,9999,9999,9999,694296696
324,4,T1_SMS_5,25,9999,9999,9999,694796392
324,4,T1_SMS_5,26,9999,9999,9999,695296088
324,4,T1_SMS_5,27,9999,9999,9999,695796828
324,4,T1_SMS_5,28,9999,9999,9999,696296532
324,4,T1_SMS_5,29,9999,9999,9999,696796224
324,4,T1_SMS_5,30,9999,9999,9999,697296960
324,4,T1_SMS_5,31,9999,9999,9999,697796728
324,4,T1_SMS_5,32,9999,9999,9999,698296432
324,4,T1_SMS_5,33,9999,9999,9999,698796124
324,4,T1_SMS_5,34,9999,9999,9999,699296860
324,4,T1_SMS_5,35,9999,9999,9999,699796556
324,4,T1_SMS_5,36,9999,9999,9999,700296256
324,4,T1_SMS_5,37,9999,9999,9999,700797000
324,4,T1_SMS_5,38,9999,9999,9999,701296696
324,4,T1_SMS_5,39,9999,9999,9999,701796464
324,4,T1_SMS_5,40,9999,9999,9999,702296128
324,4,T1_SMS_5,41,9999,9999,9999,702796868
324,4,T1_SMS_5,42,9999,9999,9999,703296568
324,4,T1_SMS_5,43,9999,9999,9999,703796340
324,4,T1_SMS_5,44,9999,9999,9999,704297072
324,4,T1_SMS_5,45,9999,9999,9999,704796776
324,4,T1_SMS_5,46,9999,9999,9999,705296464
324,4,T1_SMS_5,47,9999,9999,9999,705796156
324,4,T1_SMS_5,48,9999,9999,9999,706296900
324,4,T1_SMS_5,49,9999,9999,9999,706796668
324,4,T1_SMS_5,50,9999,9999,9999,707296364
324,4,T1_SMS_5,51,9999,9999,9999,707797104
324,4,T1_SMS_5,52,9999,9999,9999,708296808
324,4,T1_SMS_5,53,9999,9999,9999,708796500
324,4,T1_SMS_5,54,9999,9999,9999,709296192
324,4,T1_SMS_5,55,9999,9999,9999,709796940
324,4,T1_SMS_5,56,9999,9999,9999,710296628
324,4,T1_SMS_5,57,9999,9999,9999,710796396
324,4,T1_SMS_5,58,9999,9999,9999,711296092
324,4,T1_SMS_5,59,9999,9999,9999,711796840
324,4,T1_SMS_5,60,9999,9999,9999,712296532
324,4,T1_SMS_5,61,9999,9999,9999,712796272
324,4,T1_SMS_5,62,9999,9999,9999,713297020
324,4,T1_SMS_5,63,9999,9999,9999,713796712
324,4,T1_SMS_5,64,9999,9999,9999,714296416
324,4,T1_SMS_5,65,9999,9999,9999,714796104
324,4,T1_SMS_5,66,9999,9999,9999,715296848
324,4,T1_SMS_5,67,9999,9999,9999,715796540
324,4,T1_SMS_5,68,9999,9999,9999,716296312
324,4,T1_SMS_5,69,9999,9999,9999,716796996
324,4,T1_SMS_5,70,9999,9999,9999,717296740
324,4,T1_SMS_5,71,9999,9999,9999,717796440
324,4,T1_SMS_5,72,9999,9999,9999,718296140
324,4,T1_SMS_5,73,9999,9999,9999,718796876
324,4,T1_SMS_5,74,9999,9999,9999,719296572
324,4,T1_SMS_5,75,9999,9999,9999,719796344
324,4,T1_SMS_5,76,9999,9999,9999,720297084
324,4,T1_SMS_5,77,9999,9999,9999,720796780
324,4,T1_SMS_5,78,9999,9999,9999,721296472
324,4,T1_SMS_5,79,9999,9999,9999,721796168
324,4,T1_SMS_5,80,9999,9999,9999,722296908
324,4,T1_SMS_5,81,9999,9999,9999,722796604
324,4,T1_SMS_5,82,9999,9999,9999,723296348
324,4,T1_SMS_5,83,9999,9999,9999,723797088
324,4,T1_SMS_5,84,9999,9999,9999,724296784
324,4,T1_SMS_5,85,9999,9999,9999,724796480
324,4,T1_SMS_5,86,9999,9999,9999,725296248
324,4,T1_SMS_5,87,9999,9999,9999,725796988
324,4,T1_SMS_5,88,9999,9999,9999,726296684
324,4,T1_SMS_5,89,9999,9999,9999,726796388
324,4,T1_SMS_5,90,9999,9999,9999,727296084
324,4,T1_SMS_5,91,9999,9999,9999,727796824
324,4,T1_SMS_5,92,9999,9999,9999,728296520
324,4,T1_SMS_5,93,9999,9999,9999,728796216
324,4,T1_SMS_5,94,9999,9999,9999,729296960
324,4,T1_SMS_5,95,9999,9999,9999,729796728
324,4,T1_SMS_5,96,9999,9999,9999,730296420
324,4,T1_SMS_5,97,9999,9999,9999,730796108
324,4,T1_SMS_5,98,9999,9999,9999,731296856
324,4,T1_SMS_5,99,9999,9999,9999,731796552
324,4,T1_SMS_5,100,9999,9999,9999,732296316
324,4,T1_SMS_5,101,9999,9999,9999,732796992
324,4,T1_SMS_5,102,9999,9999,9999,733296756
324,4,T1_SMS_5,103,9999,9999,9999,733796448
324,4,T1_SMS_5,104,9999,9999,9999,734296124
324,4,T1_SMS_5,105,9999,9999,9999,734796868
324,4,T1_SMS_5,106,9999,9999,9999,735296632
324,4,T1_SMS_5,107,9999,9999,9999,735796324
324,4,T1_SMS_5,108,9999,9999,9999,736297028
324,4,T1_SMS_5,109,9999,9999,9999,736796768
324,4,T1_SMS_5,110,9999,9999,9999,737296480
324,4,T1_SMS_5,111,9999,9999,9999,737796156
324,4,T1_SMS_5,112,9999,9999,9999,738296932
324,4,T1_SMS_5,113,9999,9999,9999,738796668
324,4,T1_SMS_5,114,9999,9999,9999,739296364
324,4,T1_SMS_5,115,9999,9999,9999,739797100
324,4,T1_SMS_5,116,9999,9999,9999,740296796
324,4,T1_SMS_5,117,9999,9999,9999,740796496
324,4,T1_SMS_5,118,9999,9999,9999,741296192
324,4,T1_SMS_5,119,9999,9999,9999,741796924
324,4,T1_SMS_5,120,9999,9999,9999,742296700
324,4,T1_SMS_5,121,9999,9999,9999,742796388
324,4,T1_SMS_5,122,9999,9999,9999,743296092
324,4,T1_SMS_5,123,9999,9999,9999,743796824
324,4,T1_SMS_5,124,9999,9999,9999,744296528
324,4,T1_SMS_5,125,9999,9999,9999,744796268
324,4,T1_SMS_5,126,9999,9999,9999,745296988
324,4,T1_SMS_5,127,9999,9999,9999,745796684
324,4,T1_SMS_5,128,9999,9999,9999,746296380
324,4,T1_SMS_5,129,9999,9999,9999,746796148
325,9,Ticks_ISO_T2_8,0,5,42,127,763922792
325,9,Ticks_ISO_T2_8,1,5,42,127,764722472
325,9,Ticks_ISO_T2_8,2,5,42,127,765523196
325,9,Ticks_ISO_T2_8,3,5,42,127,766322980
325,9,Ticks_ISO_T2_8,4,5,42,127,767122732
325,9,Ticks_ISO_T2_8,5,1,48,60,767135572
325,9,Ticks_ISO_T2_8,6,1,48,69,767906788
325,9,Ticks_ISO_T2_8,7,5,42,127,767922756
325,9,Ticks_ISO_T2_8,8,5,42,127,768723172
325,9,Ticks_ISO_T2_8,9,1,48,71,768737208
325,9,Ticks_ISO_T2_8,10,5,42,127,769522980
325,9,Ticks_ISO_T2_8,11,1,48,68,769530888
325,9,Ticks_ISO_T2_8,12,1,48,65,770320592
325,9,Ticks_ISO_T2_8,13,5,42,127,770322704
325,9,Ticks_ISO_T2_8,14,5,42,127,771122592
325,9,Ticks_ISO_T2_8,15,1,48,63,771132368
325,9,Ticks_ISO_T2_8,16,1,48,63,771914060
325,9,Ticks_ISO_T2_8,17,5,42,127,771923440
325,9,Ticks_ISO_T2_8,18,5,42,127,772722908
325,9,Ticks_ISO_T2_8,19,1,48,67,772726028
325,9,Ticks_ISO_T2_8,20,5,42,127,773522716
325,9,Ticks_ISO_T2_8,21,1,48,77,773540568
325,9,Ticks_ISO_T2_8,22,5,42,127,774322524
325,9,Ticks_ISO_T2_8,23,1,48,67,774325864
325,9,Ticks_ISO_T2_8,24,1,48,68,775104264
325,9,Ticks_ISO_T2_8,25,5,42,127,775123372
325,9,Ticks_ISO_T2_8,26,1,48,58,775894280
325,9,Ticks_ISO_T2_8,27,5,42,127,775923032
325,9,Ticks_ISO_T2_8,28,1,48,62,776721104
325,9,Ticks_ISO_T2_8,29,5,42,127,776722692
325,9,Ticks_ISO_T2_8,30,5,42,127,777522656
325,9,Ticks_ISO_T2_8,31,1,48,65,777535724
325,9,Ticks_ISO_T2_8,32,1,48,62,778250692
325,9,Ticks_ISO_T2_8,33,5,42,127,778323356
325,9,Ticks_ISO_T2_8,34,1,48,59,779106700
325,9,Ticks_ISO_T2_8,35,5,42,127,779123260
325,9,Ticks_ISO_T2_8,36,1,48,63,779902692
325,9,Ticks_ISO_T2_8,37,5,42,127,779922696
325,9,Ticks_ISO_T2_8,38,1,48,59,780700856
325,9,Ticks_ISO_T2_8,39,5,42,127,780722504
325,9,Ticks_ISO_T2_8,40,1,48,57,781513304
325,9,Ticks_ISO_T2_8,41,5,42,127,781523284
325,9,Ticks_ISO_T2_8,42,5,42,127,782323100
325,9,Ticks_ISO_T2_8,43,1,48,56,782326220
325,9,Ticks_ISO_T2_8,44,1,48,57,783115464
325,9,Ticks_ISO_T2_8,45,5,42,127,783122752
325,9,Ticks_ISO_T2_8,46,1,48,53,783919908
325,9,Ticks_ISO_T2_8,47,5,42,127,783922484
325,9,Ticks_ISO_T2_8,48,1,48,55,784716124
325,9,Ticks_ISO_T2_8,49,5,42,127,784723264
325,9,Ticks_ISO_T2_8,50,1,48,55,785520372
325,9,Ticks_ISO_T2_8,51,5,42,127,785523024
325,9,Ticks_ISO_T2_8,52,5,42,127,786323064
325,9,Ticks_ISO_T2_8,53,1,48,57,786330076
325,9,Ticks_ISO_T2_8,54,1,48,61,787101292
325,9,Ticks_ISO_T2_8,55,5,42,127,787122492
325,9,Ticks_ISO_T2_8,56,1,48,62,787918824
325,9,Ticks_ISO_T2_8,57,5,42,127,787923424
325,9,Ticks_ISO_T2_8,58,5,42,127,788722940
325,9,Ticks_ISO_T2_8,59,1,48,64,788723904
325,9,Ticks_ISO_T2_8,60,5,42,127,789522748
325,9,Ticks_ISO_T2_8,61,1,48,64,789564688
325,9,Ticks_ISO_T2_8,62,1,48,63,790310472
325,9,Ticks_ISO_T2_8,63,5,42,127,790322696
325,9,Ticks_ISO_T2_8,64,1,48,62,791098612
325,9,Ticks_ISO_T2_8,65,5,42,127,791123328
325,9,Ticks_ISO_T2_8,66,1,48,63,791888924
325,9,Ticks_ISO_T2_8,67,5,42,127,791923012
325,9,Ticks_ISO_T2_8,68,1,48,62,792688828
325,9,Ticks_ISO_T2_8,69,5,42,127,792722816
325,9,Ticks_ISO_T2_8,70,1,48,59,793520740
325,9,Ticks_ISO_T2_8,71,5,42,127,793522624
325,9,Ticks_ISO_T2_8,72,1,48,59,794323412
325,9,Ticks_ISO_T2_8,73,5,42,127,794324972
325,9,Ticks_ISO_T2_8,74,1,48,58,795115176
325,9,Ticks_ISO_T2_8,75,5,42,127,795122916
325,9,Ticks_ISO_T2_8,76,1,48,59,795906460
325,9,Ticks_ISO_T2_8,77,5,42,127,795922724
325,9,Ticks_ISO_T2_8,78,5,42,127,796722764
325,9,Ticks_ISO_T2_8,79,1,48,56,796733512
325,9,Ticks_ISO_T2_8,80,1,48,54,797499500
325,9,Ticks_ISO_T2_8,81,5,42,127,797523240
325,9,Ticks_ISO_T2_8,82,1,48,60,798287336
325,9,Ticks_ISO_T2_8,83,5,42,127,798322996
325,9,Ticks_ISO_T2_8,84,1,48,60,799073928
325,9,Ticks_ISO_T2_8,85,5,42,127,799122656
325,9,Ticks_ISO_T2_8,86,1,48,56,799892360
325,9,Ticks_ISO_T2_8,87,5,42,127,799922536
325,9,Ticks_ISO_T2_8,88,1,48,56,800709520
325,9,Ticks_ISO_T2_8,89,5,42,127,800723392
325,9,Ticks_ISO_T2_8,90,5,42,127,801523356
325,9,Ticks_ISO_T2_8,91,1,48,57,801537548
325,9,Ticks_ISO_T2_8,92,5,42,127,802322716
325,9,Ticks_ISO_T2_8,93,1,48,59,802326284
325,9,Ticks_ISO_T2_8,94,5,42,127,803122524
325,9,Ticks_ISO_T2_8,95,1,48,64,803135592
325,9,Ticks_ISO_T2_8,96,5,42,127,803923304
325,9,Ticks_ISO_T2_8,97,1,48,61,803935572
325,9,Ticks_ISO_T2_8,98,5,42,127,804723208
325,9,Ticks_ISO_T2_8,99,1,48,63,804739940
325,9,Ticks_ISO_T2_8,100,5,42,127,805522648
325,9,Ticks_ISO_T2_8,101,1,48,62,805542148
325,9,Ticks_ISO_T2_8,102,5,42,127,806322456
325,9,Ticks_ISO_T2_8,103,1,48,64,806346216
325,9,Ticks_ISO_T2_8,104,1,48,65,807107640
325,9,Ticks_ISO_T2_8,105,5,42,127,807123376
325,9,Ticks_ISO_T2_8,106,1,48,64,807906168
325,9,Ticks_ISO_T2_8,107,5,42,127,807923108
325,9,Ticks_ISO_T2_8,108,5,42,127,808723148
325,9,Ticks_ISO_T2_8,109,1,48,65,808736660
325,9,Ticks_ISO_T2_8,110,1,48,56,809520764
325,9,Ticks_ISO_T2_8,111,5,42,127,809522504
325,9,Ticks_ISO_T2_8,112,1,48,61,810317564
325,9,Ticks_ISO_T2_8,113,5,42,127,810323208
325,9,Ticks_ISO_T2_8,114,1,48,63,811090744
325,9,Ticks_ISO_T2_8,115,5,42,127,811123116
325,9,Ticks_ISO_T2_8,116,1,48,60,811871728
325,9,Ticks_ISO_T2_8,117,5,42,127,811922996
325,9,Ticks_ISO_T2_8,118,1,48,62,812683356
325,9,Ticks_ISO_T2_8,119,5,42,127,812722728
325,9,Ticks_ISO_T2_8,120,1,48,65,813470748
325,9,Ticks_ISO_T2_8,121,5,42,127,813523288
325,9,Ticks_ISO_T2_8,122,1,48,62,814278256
325,9,Ticks_ISO_T2_8,123,5,42,127,814322944
325,9,Ticks_ISO_T2_8,124,1,48,62,815099608
325,9,Ticks_ISO_T2_8,125,5,42,127,815122904
325,9,Ticks_ISO_T2_8,126,1,48,57,815919168
325,9,Ticks_ISO_T2_8,127,5,42,127,815922784
325,9,Ticks_ISO_T2_8,128,1,48,57,816693316
325,9,Ticks_ISO_T2_8,129,5,42,127,816723340
325,9,Ticks_ISO_T2_8,130,1,48,57,817495588
325,9,Ticks_ISO_T2_8,131,5,42,127,817523024
325,9,Ticks_ISO_T2_8,132,5,42,127,818322692
325,9,Ticks_ISO_T2_8,133,1,48,56,818326328
325,9,Ticks_ISO_T2_8,134,5,42,127,819122648
325,9,Ticks_ISO_T2_8,135,1,48,55,819126816
325,9,Ticks_ISO_T2_8,136,1,48,54,819869384
325,9,Ticks_ISO_T2_8,137,5,42,127,819923492
325,9,Ticks_ISO_T2_8,138,1,48,53,820670160
325,9,Ticks_ISO_T2_8,139,5,42,127,820723004
325,9,Ticks_ISO_T2_8,140,1,48,55,821502060
325,9,Ticks_ISO_T2_8,141,5,42,127,821522664
325,9,Ticks_ISO_T2_8,142,1,48,59,822316904
325,9,Ticks_ISO_T2_8,143,5,42,127,822322472
325,9,Ticks_ISO_T2_8,144,1,48,51,823114168
325,9,Ticks_ISO_T2_8,145,5,42,127,823123400
325,9,Ticks_ISO_T2_8,146,1,48,60,823900392
325,9,Ticks_ISO_T2_8,147,5,42,127,823923160
325,9,Ticks_ISO_T2_8,148,1,48,64,824703412
325,9,Ticks_ISO_T2_8,149,5,42,127,824722892
325,9,Ticks_ISO_T2_8,150,1,48,65,825486992
325,9,Ticks_ISO_T2_8,151,5,42,127,825522404
325,9,Ticks_ISO_T2_8,152,1,48,67,826298020
325,9,Ticks_ISO_T2_8,153,5,42,127,826323260
325,9,Ticks_ISO_T2_8,154,1,48,62,827115928
325,9,Ticks_ISO_T2_8,155,5,42,127,827123288
325,9,Ticks_ISO_T2_8,156,1,48,62,827920076
325,9,Ticks_ISO_T2_8,157,5,42,127,827922652
325,9,Ticks_ISO_T2_8,158,1,48,60,828697144
325,9,Ticks_ISO_T2_8,159,5,42,127,828722532
325,9,Ticks_ISO_T2_8,160,5,42,127,829523396
325,9,Ticks_ISO_T2_8,161,1,48,70,829526740
325,9,Ticks_ISO_T2_8,162,5,42,127,830323152
325,9,Ticks_ISO_T2_8,163,1,48,61,830352376
325,9,Ticks_ISO_T2_8,164,5,42,127,831122740
325,9,Ticks_ISO_T2_8,165,1,48,58,831132660
325,9,Ticks_ISO_T2_8,166,1,48,63,831910908
325,9,Ticks_ISO_T2_8,167,5,42,127,831922464
325,9,Ticks_ISO_T2_8,168,1,48,59,832690528
325,9,Ticks_ISO_T2_8,169,5,42,127,832723320
325,9,Ticks_ISO_T2_8,170,1,48,63,833502304
325,9,Ticks_ISO_T2_8,171,5,42,127,833523128
325,9,Ticks_ISO_T2_8,172,1,48,61,834310936
325,9,Ticks_ISO_T2_8,173,5,42,127,834322940
325,9,Ticks_ISO_T2_8,174,1,48,65,835092720
325,9,Ticks_ISO_T2_8,175,5,42,127,835122596
325,9,Ticks_ISO_T2_8,176,1,48,62,835893280
325,9,Ticks_ISO_T2_8,177,5,42,127,835923528
325,9,Ticks_ISO_T2_8,178,1,48,62,836689420
325,9,Ticks_ISO_T2_8,179,5,42,127,836722912
325,9,Ticks_ISO_T2_8,180,1,48,60,837499576
325,9,Ticks_ISO_T2_8,181,5,42,127,837522868
325,9,Ticks_ISO_T2_8,182,5,42,127,838322832
325,9,Ticks_ISO_T2_8,183,1,48,62,838325580
325,9,Ticks_ISO_T2_8,184,1,48,56,839108540
325,9,Ticks_ISO_T2_8,185,5,42,127,839123384
325,9,Ticks_ISO_T2_8,186,5,42,127,839922976
325,9,Ticks_ISO_T2_8,187,1,48,66,839933868
325,9,Ticks_ISO_T2_8,188,5,42,127,840722784
325,9,Ticks_ISO_T2_8,189,1,48,59,840742356
325,9,Ticks_ISO_T2_8,190,1,48,56,841498696
325,9,Ticks_ISO_T2_8,191,5,42,127,841522512
325,9,Ticks_ISO_T2_8,192,1,48,58,842274412
325,9,Ticks_ISO_T2_8,193,5,42,127,842323516
325,9,Ticks_ISO_T2_8,194,1,48,60,843097960
325,9,Ticks_ISO_T2_8,195,5,42,127,843122976
325,9,Ticks_ISO_T2_8,196,1,48,54,843899344
325,9,Ticks_ISO_T2_8,197,5,42,127,843922784
325,9,Ticks_ISO_T2_8,198,1,48,58,844688376
325,9,Ticks_ISO_T2_8,199,5,42,127,844722592
325,9,Ticks_ISO_T2_8,200,1,48,54,845515112
325,9,Ticks_ISO_T2_8,201,5,42,127,845523520
325,9,Ticks_ISO_T2_8,202,5,42,127,846323112
325,9,Ticks_ISO_T2_8,203,1,48,51,846344184
325,9,Ticks_ISO_T2_8,204,1,48,56,847123292
325,9,Ticks_ISO_T2_8,205,5,42,127,847124712
325,9,Ticks_ISO_T2_8,206,1,48,58,847918504
325,9,Ticks_ISO_T2_8,207,5,42,127,847922648
325,9,Ticks_ISO_T2_8,208,1,48,59,848713000
325,9,Ticks_ISO_T2_8,209,5,42,127,848723428
325,9,Ticks_ISO_T2_8,210,5,42,127,849523196
325,9,Ticks_ISO_T2_8,211,1,48,58,849526760
325,9,Ticks_ISO_T2_8,212,5,42,127,850322704
325,9,Ticks_ISO_T2_8,213,1,48,57,850327996
325,9,Ticks_ISO_T2_8,214,1,48,58,851123032
325,9,Ticks_ISO_T2_8,215,5,42,127,851124220
325,9,Ticks_ISO_T2_8,216,5,42,127,851923292
325,9,Ticks_ISO_T2_8,217,1,48,56,851929480
325,9,Ticks_ISO_T2_8,218,1,48,59,852707052
325,9,Ticks_ISO_T2_8,219,5,42,127,852722944
325,9,Ticks_ISO_T2_8,220,1,48,60,853501180
325,9,Ticks_ISO_T2_8,221,5,42,127,853522976
325,9,Ticks_ISO_T2_8,222,5,42,127,854322568
325,9,Ticks_ISO_T2_8,223,1,48,61,854330480
325,9,Ticks_ISO_T2_8,224,1,48,59,855118524
325,9,Ticks_ISO_T2_8,225,5,42,127,855123416
325,9,Ticks_ISO_T2_8,226,1,48,62,855874800
325,9,Ticks_ISO_T2_8,227,5,42,127,855923028
325,9,Ticks_ISO_T2_8,228,1,48,60,856720108
325,9,Ticks_ISO_T2_8,229,5,42,127,856722908
325,9,Ticks_ISO_T2_8,230,5,42,127,857522800
325,9,Ticks_ISO_T2_8,231,1,48,59,857541704
325,9,Ticks_ISO_T2_8,232,5,42,127,858323432
325,9,Ticks_ISO_T2_8,233,1,48,62,858336196
325,9,Ticks_ISO_T2_8,234,5,42,127,859123088
325,9,Ticks_ISO_T2_8,235,1,48,57,859128380
325,9,Ticks_ISO_T2_8,0,9999,9999,9999,763920504
325,9,Ticks_ISO_T2_8,1,9999,9999,9999,764720184
325,9,Ticks_ISO_T2_8,2,9999,9999,9999,765520984
325,9,Ticks_ISO_T2_8,3,9999,9999,9999,766320692
325,9,Ticks_ISO_T2_8,4,9999,9999,9999,767120444
325,9,Ticks_ISO_T2_8,5,9999,9999,9999,767920248
325,9,Ticks_ISO_T2_8,6,9999,9999,9999,768720956
325,9,Ticks_ISO_T2_8,7,9999,9999,9999,769520692
325,9,Ticks_ISO_T2_8,8,9999,9999,9999,770320456
325,9,Ticks_ISO_T2_8,9,9999,9999,9999,771120232
325,9,Ticks_ISO_T2_8,10,9999,9999,9999,771921004
325,9,Ticks_ISO_T2_8,11,9999,9999,9999,772720696
325,9,Ticks_ISO_T2_8,12,9999,9999,9999,773520504
325,9,Ticks_ISO_T2_8,13,9999,9999,9999,774320236
325,9,Ticks_ISO_T2_8,14,9999,9999,9999,775121008
325,9,Ticks_ISO_T2_8,15,9999,9999,9999,775920744
325,9,Ticks_ISO_T2_8,16,9999,9999,9999,776720504
325,9,Ticks_ISO_T2_8,17,9999,9999,9999,777520216
325,9,Ticks_ISO_T2_8,18,9999,9999,9999,778320992
325,9,Ticks_ISO_T2_8,19,9999,9999,9999,779120748
325,9,Ticks_ISO_T2_8,20,9999,9999,9999,779920484
325,9,Ticks_ISO_T2_8,21,9999,9999,9999,780720216
325,9,Ticks_ISO_T2_8,22,9999,9999,9999,781520996
325,9,Ticks_ISO_T2_8,23,9999,9999,9999,782320736
325,9,Ticks_ISO_T2_8,24,9999,9999,9999,783120464
325,9,Ticks_ISO_T2_8,25,9999,9999,9999,783920196
325,9,Ticks_ISO_T2_8,26,9999,9999,9999,784720976
325,9,Ticks_ISO_T2_8,27,9999,9999,9999,785520736
325,9,Ticks_ISO_T2_8,28,9999,9999,9999,786320480
325,9,Ticks_ISO_T2_8,29,9999,9999,9999,787120204
325,9,Ticks_ISO_T2_8,30,9999,9999,9999,787920984
325,9,Ticks_ISO_T2_8,31,9999,9999,9999,788720724
325,9,Ticks_ISO_T2_8,32,9999,9999,9999,789520460
325,9,Ticks_ISO_T2_8,33,9999,9999,9999,790320184
325,9,Ticks_ISO_T2_8,34,9999,9999,9999,791120964
325,9,Ticks_ISO_T2_8,35,9999,9999,9999,791920724
325,9,Ticks_ISO_T2_8,36,9999,9999,9999,792720456
325,9,Ticks_ISO_T2_8,37,9999,9999,9999,793520212
325,9,Ticks_ISO_T2_8,38,9999,9999,9999,794320976
325,9,Ticks_ISO_T2_8,39,9999,9999,9999,795120704
325,9,Ticks_ISO_T2_8,40,9999,9999,9999,795920436
325,9,Ticks_ISO_T2_8,41,9999,9999,9999,796720176
325,9,Ticks_ISO_T2_8,42,9999,9999,9999,797520952
325,9,Ticks_ISO_T2_8,43,9999,9999,9999,798320712
325,9,Ticks_ISO_T2_8,44,9999,9999,9999,799120444
325,9,Ticks_ISO_T2_8,45,9999,9999,9999,799920176
325,9,Ticks_ISO_T2_8,46,9999,9999,9999,800720956
325,9,Ticks_ISO_T2_8,47,9999,9999,9999,801520696
325,9,Ticks_ISO_T2_8,48,9999,9999,9999,802320504
325,9,Ticks_ISO_T2_8,49,9999,9999,9999,803120236
325,9,Ticks_ISO_T2_8,50,9999,9999,9999,803920940
325,9,Ticks_ISO_T2_8,51,9999,9999,9999,804720700
325,9,Ticks_ISO_T2_8,52,9999,9999,9999,805520432
325,9,Ticks_ISO_T2_8,53,9999,9999,9999,806320240
325,9,Ticks_ISO_T2_8,54,9999,9999,9999,807121012
325,9,Ticks_ISO_T2_8,55,9999,9999,9999,807920748
325,9,Ticks_ISO_T2_8,56,9999,9999,9999,808720488
325,9,Ticks_ISO_T2_8,57,9999,9999,9999,809520240
325,9,Ticks_ISO_T2_8,58,9999,9999,9999,810320996
325,9,Ticks_ISO_T2_8,59,9999,9999,9999,811120752
325,9,Ticks_ISO_T2_8,60,9999,9999,9999,811920488
325,9,Ticks_ISO_T2_8,61,9999,9999,9999,812720220
325,9,Ticks_ISO_T2_8,62,9999,9999,9999,813521000
325,9,Ticks_ISO_T2_8,63,9999,9999,9999,814320732
325,9,Ticks_ISO_T2_8,64,9999,9999,9999,815120468
325,9,Ticks_ISO_T2_8,65,9999,9999,9999,815920200
325,9,Ticks_ISO_T2_8,66,9999,9999,9999,816720980
325,9,Ticks_ISO_T2_8,67,9999,9999,9999,817520736
325,9,Ticks_ISO_T2_8,68,9999,9999,9999,818320476
325,9,Ticks_ISO_T2_8,69,9999,9999,9999,819120208
325,9,Ticks_ISO_T2_8,70,9999,9999,9999,819920984
325,9,Ticks_ISO_T2_8,71,9999,9999,9999,820720716
325,9,Ticks_ISO_T2_8,72,9999,9999,9999,821520448
325,9,Ticks_ISO_T2_8,73,9999,9999,9999,822320184
325,9,Ticks_ISO_T2_8,74,9999,9999,9999,823120964
325,9,Ticks_ISO_T2_8,75,9999,9999,9999,823920724
325,9,Ticks_ISO_T2_8,76,9999,9999,9999,824720456
325,9,Ticks_ISO_T2_8,77,9999,9999,9999,825520188
325,9,Ticks_ISO_T2_8,78,9999,9999,9999,826320972
325,9,Ticks_ISO_T2_8,79,9999,9999,9999,827120704
325,9,Ticks_ISO_T2_8,80,9999,9999,9999,827920440
325,9,Ticks_ISO_T2_8,81,9999,9999,9999,828720244
325,9,Ticks_ISO_T2_8,82,9999,9999,9999,829520960
325,9,Ticks_ISO_T2_8,83,9999,9999,9999,830320716
325,9,Ticks_ISO_T2_8,84,9999,9999,9999,831120452
325,9,Ticks_ISO_T2_8,85,9999,9999,9999,831920176
325,9,Ticks_ISO_T2_8,86,9999,9999,9999,832720956
325,9,Ticks_ISO_T2_8,87,9999,9999,9999,833520692
325,9,Ticks_ISO_T2_8,88,9999,9999,9999,834320504
325,9,Ticks_ISO_T2_8,89,9999,9999,9999,835120236
325,9,Ticks_ISO_T2_8,90,9999,9999,9999,835921016
325,9,Ticks_ISO_T2_8,91,9999,9999,9999,836720700
325,9,Ticks_ISO_T2_8,92,9999,9999,9999,837520432
325,9,Ticks_ISO_T2_8,93,9999,9999,9999,838320248
325,9,Ticks_ISO_T2_8,94,9999,9999,9999,839120948
325,9,Ticks_ISO_T2_8,95,9999,9999,9999,839920688
325,9,Ticks_ISO_T2_8,96,9999,9999,9999,840720492
325,9,Ticks_ISO_T2_8,97,9999,9999,9999,841520224
325,9,Ticks_ISO_T2_8,98,9999,9999,9999,842321004
325,9,Ticks_ISO_T2_8,99,9999,9999,9999,843120688
325,9,Ticks_ISO_T2_8,100,9999,9999,9999,843920500
325,9,Ticks_ISO_T2_8,101,9999,9999,9999,844720232
325,9,Ticks_ISO_T2_8,102,9999,9999,9999,845521012
325,9,Ticks_ISO_T2_8,103,9999,9999,9999,846320752
325,9,Ticks_ISO_T2_8,104,9999,9999,9999,847120484
325,9,Ticks_ISO_T2_8,105,9999,9999,9999,847920212
325,9,Ticks_ISO_T2_8,106,9999,9999,9999,848720992
325,9,Ticks_ISO_T2_8,107,9999,9999,9999,849520756
325,9,Ticks_ISO_T2_8,108,9999,9999,9999,850320492
325,9,Ticks_ISO_T2_8,109,9999,9999,9999,851120224
325,9,Ticks_ISO_T2_8,110,9999,9999,9999,851921004
325,9,Ticks_ISO_T2_8,111,9999,9999,9999,852720728
325,9,Ticks_ISO_T2_8,112,9999,9999,9999,853520464
325,9,Ticks_ISO_T2_8,113,9999,9999,9999,854320204
325,9,Ticks_ISO_T2_8,114,9999,9999,9999,855120980
325,9,Ticks_ISO_T2_8,115,9999,9999,9999,855920740
325,9,Ticks_ISO_T2_8,116,9999,9999,9999,856720472
325,9,Ticks_ISO_T2_8,117,9999,9999,9999,857520212
325,9,Ticks_ISO_T2_8,118,9999,9999,9999,858320992
325,9,Ticks_ISO_T2_8,119,9999,9999,9999,859120728
326,10,Ticks_ISO_T2_5,0,5,42,127,874223028
326,10,Ticks_ISO_T2_5,1,5,42,127,874722596
326,10,Ticks_ISO_T2_5,2,5,42,127,875223360
326,10,Ticks_ISO_T2_5,3,5,42,127,875723076
326,10,Ticks_ISO_T2_5,4,1,48,69,876208764
326,10,Ticks_ISO_T2_5,5,5,42,127,876223008
326,10,Ticks_ISO_T2_5,6,1,48,38,876251544
326,10,Ticks_ISO_T2_5,7,1,48,64,876717636
326,10,Ticks_ISO_T2_5,8,5,42,127,876722460
326,10,Ticks_ISO_T2_5,9,1,48,67,877216960
326,10,Ticks_ISO_T2_5,10,5,42,127,877223272
326,10,Ticks_ISO_T2_5,11,1,48,46,877249568
326,10,Ticks_ISO_T2_5,12,1,48,67,877712888
326,10,Ticks_ISO_T2_5,13,5,42,127,877722944
326,10,Ticks_ISO_T2_5,14,1,48,49,877737868
326,10,Ticks_ISO_T2_5,15,1,48,66,878219448
326,10,Ticks_ISO_T2_5,16,5,42,127,878222916
326,10,Ticks_ISO_T2_5,17,1,48,67,878720040
326,10,Ticks_ISO_T2_5,18,5,42,127,878722388
326,10,Ticks_ISO_T2_5,19,5,42,127,879223212
326,10,Ticks_ISO_T2_5,20,1,48,66,879234116
326,10,Ticks_ISO_T2_5,21,5,42,127,879722984
326,10,Ticks_ISO_T2_5,22,1,48,71,879728048
326,10,Ticks_ISO_T2_5,23,5,42,127,880222680
326,10,Ticks_ISO_T2_5,24,1,48,63,880243672
326,10,Ticks_ISO_T2_5,25,1,48,69,880716848
326,10,Ticks_ISO_T2_5,26,5,42,127,880723240
326,10,Ticks_ISO_T2_5,27,1,48,67,881220552
326,10,Ticks_ISO_T2_5,28,5,42,127,881223132
326,10,Ticks_ISO_T2_5,29,1,48,68,881719876
326,10,Ticks_ISO_T2_5,30,5,42,127,881722828
326,10,Ticks_ISO_T2_5,31,5,42,127,882222676
326,10,Ticks_ISO_T2_5,32,1,48,75,882235668
326,10,Ticks_ISO_T2_5,33,5,42,127,882723044
326,10,Ticks_ISO_T2_5,34,1,48,71,882741424
326,10,Ticks_ISO_T2_5,35,5,42,127,883222888
326,10,Ticks_ISO_T2_5,36,1,48,72,883244928
326,10,Ticks_ISO_T2_5,37,1,48,67,883716632
326,10,Ticks_ISO_T2_5,38,5,42,127,883722648
326,10,Ticks_ISO_T2_5,39,5,42,127,884223696
326,10,Ticks_ISO_T2_5,40,1,48,67,884226816
326,10,Ticks_ISO_T2_5,41,1,48,65,884720136
326,10,Ticks_ISO_T2_5,42,5,42,127,884723088
326,10,Ticks_ISO_T2_5,43,1,48,65,885215492
326,10,Ticks_ISO_T2_5,44,5,42,127,885222704
326,10,Ticks_ISO_T2_5,45,5,42,127,885722704
326,10,Ticks_ISO_T2_5,46,1,48,64,885723744
326,10,Ticks_ISO_T2_5,47,5,42,127,886223148
326,10,Ticks_ISO_T2_5,48,1,48,68,886226712
326,10,Ticks_ISO_T2_5,49,5,42,127,886722916
326,10,Ticks_ISO_T2_5,50,1,48,70,886727308
326,10,Ticks_ISO_T2_5,51,1,48,63,887221252
326,10,Ticks_ISO_T2_5,52,5,42,127,887222828
326,10,Ticks_ISO_T2_5,53,1,48,65,887712096
326,10,Ticks_ISO_T2_5,54,5,42,127,887723644
326,10,Ticks_ISO_T2_5,55,1,48,69,888198996
326,10,Ticks_ISO_T2_5,56,5,42,127,888223044
326,10,Ticks_ISO_T2_5,57,1,48,72,888710512
326,10,Ticks_ISO_T2_5,58,5,42,127,888722888
326,10,Ticks_ISO_T2_5,59,5,42,127,889222512
326,10,Ticks_ISO_T2_5,60,1,48,73,889232588
326,10,Ticks_ISO_T2_5,61,1,48,67,889722204
326,10,Ticks_ISO_T2_5,62,5,42,127,889723996
326,10,Ticks_ISO_T2_5,63,5,42,127,890222952
326,10,Ticks_ISO_T2_5,64,1,48,64,890229816
326,10,Ticks_ISO_T2_5,65,5,42,127,890722572
326,10,Ticks_ISO_T2_5,66,1,48,63,890741776
326,10,Ticks_ISO_T2_5,67,5,42,127,891223540
326,10,Ticks_ISO_T2_5,68,1,48,67,891232420
326,10,Ticks_ISO_T2_5,69,1,48,63,891719500
326,10,Ticks_ISO_T2_5,70,5,42,127,891723200
326,10,Ticks_ISO_T2_5,71,1,48,65,892219872
326,10,Ticks_ISO_T2_5,72,5,42,127,892222820
326,10,Ticks_ISO_T2_5,73,1,48,67,892721164
326,10,Ticks_ISO_T2_5,74,5,42,127,892722812
326,10,Ticks_ISO_T2_5,75,5,42,127,893223264
326,10,Ticks_ISO_T2_5,76,1,48,67,893242236
326,10,Ticks_ISO_T2_5,77,5,42,127,893723180
326,10,Ticks_ISO_T2_5,78,1,48,69,893735952
326,10,Ticks_ISO_T2_5,79,5,42,127,894222652
326,10,Ticks_ISO_T2_5,80,1,48,64,894226596
326,10,Ticks_ISO_T2_5,81,5,42,127,894722272
326,10,Ticks_ISO_T2_5,82,1,48,66,894735036
326,10,Ticks_ISO_T2_5,83,5,42,127,895223312
326,10,Ticks_ISO_T2_5,84,1,48,70,895233240
326,10,Ticks_ISO_T2_5,85,5,42,127,895722856
326,10,Ticks_ISO_T2_5,86,1,48,66,895724720
326,10,Ticks_ISO_T2_5,87,1,48,66,896210244
326,10,Ticks_ISO_T2_5,88,5,42,127,896222468
326,10,Ticks_ISO_T2_5,89,1,48,67,896718240
326,10,Ticks_ISO_T2_5,90,5,42,127,896723432
326,10,Ticks_ISO_T2_5,91,5,42,127,897223136
326,10,Ticks_ISO_T2_5,92,1,48,68,897236948
326,10,Ticks_ISO_T2_5,93,1,48,70,897707608
326,10,Ticks_ISO_T2_5,94,5,42,127,897722676
326,10,Ticks_ISO_T2_5,95,1,48,69,898220860
326,10,Ticks_ISO_T2_5,96,5,42,127,898222592
326,10,Ticks_ISO_T2_5,97,1,48,67,898712608
326,10,Ticks_ISO_T2_5,98,5,42,127,898723112
326,10,Ticks_ISO_T2_5,99,1,48,61,899210204
326,10,Ticks_ISO_T2_5,100,5,42,127,899223032
326,10,Ticks_ISO_T2_5,101,1,48,65,899718876
326,10,Ticks_ISO_T2_5,102,5,42,127,899722576
326,10,Ticks_ISO_T2_5,103,1,48,63,900220888
326,10,Ticks_ISO_T2_5,104,5,42,127,900223392
326,10,Ticks_ISO_T2_5,105,1,48,62,900721128
326,10,Ticks_ISO_T2_5,106,5,42,127,900723016
326,10,Ticks_ISO_T2_5,107,5,42,127,901222936
326,10,Ticks_ISO_T2_5,108,1,48,67,901230396
326,10,Ticks_ISO_T2_5,109,5,42,127,901722412
326,10,Ticks_ISO_T2_5,110,1,48,65,901737800
326,10,Ticks_ISO_T2_5,111,1,48,69,902211120
326,10,Ticks_ISO_T2_5,112,5,42,127,902223192
326,10,Ticks_ISO_T2_5,113,1,48,61,902718068
326,10,Ticks_ISO_T2_5,114,5,42,127,902722888
326,10,Ticks_ISO_T2_5,115,1,48,64,903217764
326,10,Ticks_ISO_T2_5,116,5,42,127,903222584
326,10,Ticks_ISO_T2_5,117,5,42,127,903723332
326,10,Ticks_ISO_T2_5,118,1,48,65,903747096
326,10,Ticks_ISO_T2_5,119,5,42,127,904222952
326,10,Ticks_ISO_T2_5,120,1,48,66,904225996
326,10,Ticks_ISO_T2_5,121,1,48,67,904695080
326,10,Ticks_ISO_T2_5,122,5,42,127,904722788
326,10,Ticks_ISO_T2_5,123,1,48,64,905188792
326,10,Ticks_ISO_T2_5,124,5,42,127,905222632
326,10,Ticks_ISO_T2_5,125,1,48,69,905700080
326,10,Ticks_ISO_T2_5,126,5,42,127,905723372
326,10,Ticks_ISO_T2_5,127,1,48,67,906210092
326,10,Ticks_ISO_T2_5,128,5,42,127,906222920
326,10,Ticks_ISO_T2_5,129,1,48,66,906706348
326,10,Ticks_ISO_T2_5,130,5,42,127,906722688
326,10,Ticks_ISO_T2_5,131,1,48,70,907208888
326,10,Ticks_ISO_T2_5,132,5,42,127,907223280
326,10,Ticks_ISO_T2_5,133,5,42,127,907723056
326,10,Ticks_ISO_T2_5,134,1,48,67,907723948
326,10,Ticks_ISO_T2_5,135,5,42,127,908222976
326,10,Ticks_ISO_T2_5,136,1,48,72,908223868
326,10,Ticks_ISO_T2_5,137,5,42,127,908722452
326,10,Ticks_ISO_T2_5,138,1,48,67,908725940
326,10,Ticks_ISO_T2_5,139,1,48,64,909220752
326,10,Ticks_ISO_T2_5,140,5,42,127,909223852
326,10,Ticks_ISO_T2_5,141,1,48,65,909721520
326,10,Ticks_ISO_T2_5,142,5,42,127,909723104
326,10,Ticks_ISO_T2_5,143,5,42,127,910222804
326,10,Ticks_ISO_T2_5,144,1,48,70,910224140
326,10,Ticks_ISO_T2_5,145,5,42,127,910722572
326,10,Ticks_ISO_T2_5,146,1,48,70,910732576
326,10,Ticks_ISO_T2_5,147,5,42,127,911223164
326,10,Ticks_ISO_T2_5,148,1,48,70,911233320
326,10,Ticks_ISO_T2_5,149,5,42,127,911722860
326,10,Ticks_ISO_T2_5,150,1,48,67,911726732
326,10,Ticks_ISO_T2_5,151,1,48,66,912218628
326,10,Ticks_ISO_T2_5,152,5,42,127,912222548
326,10,Ticks_ISO_T2_5,153,5,42,127,912723520
326,10,Ticks_ISO_T2_5,154,1,48,65,912733672
326,10,Ticks_ISO_T2_5,155,1,48,65,913193232
326,10,Ticks_ISO_T2_5,156,5,42,127,913222888
326,10,Ticks_ISO_T2_5,157,1,48,69,913720544
326,10,Ticks_ISO_T2_5,158,5,42,127,913722656
326,10,Ticks_ISO_T2_5,159,5,42,127,914222432
326,10,Ticks_ISO_T2_5,160,1,48,64,914239388
326,10,Ticks_ISO_T2_5,161,5,42,127,914723320
326,10,Ticks_ISO_T2_5,162,1,48,67,914744396
326,10,Ticks_ISO_T2_5,163,5,42,127,915222868
326,10,Ticks_ISO_T2_5,164,1,48,71,915226580
326,10,Ticks_ISO_T2_5,165,5,42,127,915722564
326,10,Ticks_ISO_T2_5,166,1,48,68,915727480
326,10,Ticks_ISO_T2_5,167,5,42,127,916223528
326,10,Ticks_ISO_T2_5,168,1,48,69,916248416
326,10,Ticks_ISO_T2_5,169,5,42,127,916723148
326,10,Ticks_ISO_T2_5,170,1,48,69,916732104
326,10,Ticks_ISO_T2_5,171,1,48,65,917212480
326,10,Ticks_ISO_T2_5,172,5,42,127,917222612
326,10,Ticks_ISO_T2_5,173,1,48,62,917713892
326,10,Ticks_ISO_T2_5,174,5,42,127,917722456
326,10,Ticks_ISO_T2_5,175,1,48,62,918221996
326,10,Ticks_ISO_T2_5,176,5,42,127,918223716
326,10,Ticks_ISO_T2_5,177,1,48,68,918717396
326,10,Ticks_ISO_T2_5,178,5,42,127,918723040
326,10,Ticks_ISO_T2_5,179,1,48,66,919215300
326,10,Ticks_ISO_T2_5,180,5,42,127,919222512
326,10,Ticks_ISO_T2_5,181,1,48,74,919717988
326,10,Ticks_ISO_T2_5,182,5,42,127,919723476
326,10,Ticks_ISO_T2_5,183,1,48,74,920221056
326,10,Ticks_ISO_T2_5,184,5,42,127,920223096
326,10,Ticks_ISO_T2_5,185,5,42,127,920722800
326,10,Ticks_ISO_T2_5,186,1,48,69,920739232
326,10,Ticks_ISO_T2_5,187,1,48,65,921217516
326,10,Ticks_ISO_T2_5,188,5,42,127,921222488
326,10,Ticks_ISO_T2_5,189,1,48,64,921713920
326,10,Ticks_ISO_T2_5,190,5,42,127,921723156
326,10,Ticks_ISO_T2_5,191,1,48,64,922202988
326,10,Ticks_ISO_T2_5,192,5,42,127,922222924
326,10,Ticks_ISO_T2_5,193,5,42,127,922722700
326,10,Ticks_ISO_T2_5,194,1,48,67,922745636
326,10,Ticks_ISO_T2_5,195,5,42,127,923223440
326,10,Ticks_ISO_T2_5,196,1,48,67,923245708
326,10,Ticks_ISO_T2_5,197,1,48,67,923723036
326,10,Ticks_ISO_T2_5,198,5,42,127,923724900
326,10,Ticks_ISO_T2_5,199,5,42,127,924222952
326,10,Ticks_ISO_T2_5,200,1,48,67,924227724
326,10,Ticks_ISO_T2_5,201,5,42,127,924722428
326,10,Ticks_ISO_T2_5,202,1,48,64,924726064
326,10,Ticks_ISO_T2_5,203,1,48,61,925204876
326,10,Ticks_ISO_T2_5,204,5,42,127,925223232
326,10,Ticks_ISO_T2_5,205,1,48,64,925704868
326,10,Ticks_ISO_T2_5,206,5,42,127,925722856
326,10,Ticks_ISO_T2_5,207,1,48,62,926209724
326,10,Ticks_ISO_T2_5,208,5,42,127,926222848
326,10,Ticks_ISO_T2_5,209,1,48,64,926694536
326,10,Ticks_ISO_T2_5,210,5,42,127,926722468
326,10,Ticks_ISO_T2_5,211,1,48,67,927208964
326,10,Ticks_ISO_T2_5,212,5,42,127,927223136
326,10,Ticks_ISO_T2_5,213,1,48,66,927718760
326,10,Ticks_ISO_T2_5,214,5,42,127,927722904
326,10,Ticks_ISO_T2_5,215,1,48,63,928216212
326,10,Ticks_ISO_T2_5,216,5,42,127,928222672
326,10,Ticks_ISO_T2_5,217,5,42,127,928723200
326,10,Ticks_ISO_T2_5,218,1,48,66,928735520
326,10,Ticks_ISO_T2_5,219,5,42,127,929222972
326,10,Ticks_ISO_T2_5,220,1,48,69,929227584
326,10,Ticks_ISO_T2_5,221,1,48,65,929721536
326,10,Ticks_ISO_T2_5,222,5,42,127,929723484
326,10,Ticks_ISO_T2_5,223,5,42,127,930222584
326,10,Ticks_ISO_T2_5,224,1,48,71,930230936
326,10,Ticks_ISO_T2_5,225,5,42,127,930723176
326,10,Ticks_ISO_T2_5,226,1,48,64,930741176
326,10,Ticks_ISO_T2_5,227,5,42,127,931222872
326,10,Ticks_ISO_T2_5,228,1,48,59,931235708
326,10,Ticks_ISO_T2_5,229,5,42,127,931722492
326,10,Ticks_ISO_T2_5,230,1,48,64,931741316
326,10,Ticks_ISO_T2_5,231,5,42,127,932223456
326,10,Ticks_ISO_T2_5,232,1,48,64,932249464
326,10,Ticks_ISO_T2_5,233,5,42,127,932722928
326,10,Ticks_ISO_T2_5,234,1,48,62,932731804
326,10,Ticks_ISO_T2_5,235,1,48,63,933210912
326,10,Ticks_ISO_T2_5,236,5,42,127,933222692
326,10,Ticks_ISO_T2_5,237,5,42,127,933722616
326,10,Ticks_ISO_T2_5,238,1,48,61,933732768
326,10,Ticks_ISO_T2_5,239,1,48,63,934218580
326,10,Ticks_ISO_T2_5,240,5,42,127,934223472
326,10,Ticks_ISO_T2_5,241,1,48,64,934699624
326,10,Ticks_ISO_T2_5,242,5,42,127,934722772
326,10,Ticks_ISO_T2_5,243,5,42,127,935222772
326,10,Ticks_ISO_T2_5,244,1,48,67,935223736
326,10,Ticks_ISO_T2_5,245,1,48,59,935716144
326,10,Ticks_ISO_T2_5,246,5,42,127,935723284
326,10,Ticks_ISO_T2_5,247,1,48,59,936221168
326,10,Ticks_ISO_T2_5,248,5,42,127,936223204
326,10,Ticks_ISO_T2_5,249,1,48,55,936722004
326,10,Ticks_ISO_T2_5,250,5,42,127,936723724
326,10,Ticks_ISO_T2_5,251,1,48,57,937221012
326,10,Ticks_ISO_T2_5,252,5,42,127,937222668
326,10,Ticks_ISO_T2_5,253,5,42,127,937723488
326,10,Ticks_ISO_T2_5,254,1,48,56,937729976
326,10,Ticks_ISO_T2_5,255,1,48,56,938207060
326,10,Ticks_ISO_T2_5,256,5,42,127,938222880
326,10,Ticks_ISO_T2_5,257,1,48,56,938718724
326,10,Ticks_ISO_T2_5,258,5,42,127,938722796
326,10,Ticks_ISO_T2_5,0,9999,9999,9999,874220592
326,10,Ticks_ISO_T2_5,1,9999,9999,9999,874720308
326,10,Ticks_ISO_T2_5,2,9999,9999,9999,875221072
326,10,Ticks_ISO_T2_5,3,9999,9999,9999,875720788
326,10,Ticks_ISO_T2_5,4,9999,9999,9999,876220500
326,10,Ticks_ISO_T2_5,5,9999,9999,9999,876720248
326,10,Ticks_ISO_T2_5,6,9999,9999,9999,877220912
326,10,Ticks_ISO_T2_5,7,9999,9999,9999,877720660
326,10,Ticks_ISO_T2_5,8,9999,9999,9999,878220408
326,10,Ticks_ISO_T2_5,9,9999,9999,9999,878720104
326,10,Ticks_ISO_T2_5,10,9999,9999,9999,879220852
326,10,Ticks_ISO_T2_5,11,9999,9999,9999,879720548
326,10,Ticks_ISO_T2_5,12,9999,9999,9999,880220244
326,10,Ticks_ISO_T2_5,13,9999,9999,9999,880720952
326,10,Ticks_ISO_T2_5,14,9999,9999,9999,881220696
326,10,Ticks_ISO_T2_5,15,9999,9999,9999,881720392
326,10,Ticks_ISO_T2_5,16,9999,9999,9999,882220092
326,10,Ticks_ISO_T2_5,17,9999,9999,9999,882720832
326,10,Ticks_ISO_T2_5,18,9999,9999,9999,883220600
326,10,Ticks_ISO_T2_5,19,9999,9999,9999,883720288
326,10,Ticks_ISO_T2_5,20,9999,9999,9999,884221036
326,10,Ticks_ISO_T2_5,21,9999,9999,9999,884720728
326,10,Ticks_ISO_T2_5,22,9999,9999,9999,885220420
326,10,Ticks_ISO_T2_5,23,9999,9999,9999,885720120
326,10,Ticks_ISO_T2_5,24,9999,9999,9999,886220860
326,10,Ticks_ISO_T2_5,25,9999,9999,9999,886720632
326,10,Ticks_ISO_T2_5,26,9999,9999,9999,887220328
326,10,Ticks_ISO_T2_5,27,9999,9999,9999,887721060
326,10,Ticks_ISO_T2_5,28,9999,9999,9999,888220756
326,10,Ticks_ISO_T2_5,29,9999,9999,9999,888720452
326,10,Ticks_ISO_T2_5,30,9999,9999,9999,889220152
326,10,Ticks_ISO_T2_5,31,9999,9999,9999,889720892
326,10,Ticks_ISO_T2_5,32,9999,9999,9999,890220664
326,10,Ticks_ISO_T2_5,33,9999,9999,9999,890720360
326,10,Ticks_ISO_T2_5,34,9999,9999,9999,891221100
326,10,Ticks_ISO_T2_5,35,9999,9999,9999,891720764
326,10,Ticks_ISO_T2_5,36,9999,9999,9999,892220536
326,10,Ticks_ISO_T2_5,37,9999,9999,9999,892720236
326,10,Ticks_ISO_T2_5,38,9999,9999,9999,893220976
326,10,Ticks_ISO_T2_5,39,9999,9999,9999,893720672
326,10,Ticks_ISO_T2_5,40,9999,9999,9999,894220364
326,10,Ticks_ISO_T2_5,41,9999,9999,9999,894720060
326,10,Ticks_ISO_T2_5,42,9999,9999,9999,895220800
326,10,Ticks_ISO_T2_5,43,9999,9999,9999,895720568
326,10,Ticks_ISO_T2_5,44,9999,9999,9999,896220256
326,10,Ticks_ISO_T2_5,45,9999,9999,9999,896721000
326,10,Ticks_ISO_T2_5,46,9999,9999,9999,897220700
326,10,Ticks_ISO_T2_5,47,9999,9999,9999,897720388
326,10,Ticks_ISO_T2_5,48,9999,9999,9999,898220088
326,10,Ticks_ISO_T2_5,49,9999,9999,9999,898720828
326,10,Ticks_ISO_T2_5,50,9999,9999,9999,899220596
326,10,Ticks_ISO_T2_5,51,9999,9999,9999,899720288
326,10,Ticks_ISO_T2_5,52,9999,9999,9999,900221032
326,10,Ticks_ISO_T2_5,53,9999,9999,9999,900720752
326,10,Ticks_ISO_T2_5,54,9999,9999,9999,901220428
326,10,Ticks_ISO_T2_5,55,9999,9999,9999,901720124
326,10,Ticks_ISO_T2_5,56,9999,9999,9999,902220908
326,10,Ticks_ISO_T2_5,57,9999,9999,9999,902720604
326,10,Ticks_ISO_T2_5,58,9999,9999,9999,903220300
326,10,Ticks_ISO_T2_5,59,9999,9999,9999,903721044
326,10,Ticks_ISO_T2_5,60,9999,9999,9999,904220740
326,10,Ticks_ISO_T2_5,61,9999,9999,9999,904720504
326,10,Ticks_ISO_T2_5,62,9999,9999,9999,905220196
326,10,Ticks_ISO_T2_5,63,9999,9999,9999,905720940
326,10,Ticks_ISO_T2_5,64,9999,9999,9999,906220632
326,10,Ticks_ISO_T2_5,65,9999,9999,9999,906720328
326,10,Ticks_ISO_T2_5,66,9999,9999,9999,907221068
326,10,Ticks_ISO_T2_5,67,9999,9999,9999,907720768
326,10,Ticks_ISO_T2_5,68,9999,9999,9999,908220468
326,10,Ticks_ISO_T2_5,69,9999,9999,9999,908720240
326,10,Ticks_ISO_T2_5,70,9999,9999,9999,909220972
326,10,Ticks_ISO_T2_5,71,9999,9999,9999,909720672
326,10,Ticks_ISO_T2_5,72,9999,9999,9999,910220368
326,10,Ticks_ISO_T2_5,73,9999,9999,9999,910720064
326,10,Ticks_ISO_T2_5,74,9999,9999,9999,911220804
326,10,Ticks_ISO_T2_5,75,9999,9999,9999,911720500
326,10,Ticks_ISO_T2_5,76,9999,9999,9999,912220264
326,10,Ticks_ISO_T2_5,77,9999,9999,9999,912720988
326,10,Ticks_ISO_T2_5,78,9999,9999,9999,913220676
326,10,Ticks_ISO_T2_5,79,9999,9999,9999,913720412
326,10,Ticks_ISO_T2_5,80,9999,9999,9999,914220144
326,10,Ticks_ISO_T2_5,81,9999,9999,9999,914720888
326,10,Ticks_ISO_T2_5,82,9999,9999,9999,915220580
326,10,Ticks_ISO_T2_5,83,9999,9999,9999,915720276
326,10,Ticks_ISO_T2_5,84,9999,9999,9999,916221016
326,10,Ticks_ISO_T2_5,85,9999,9999,9999,916720712
326,10,Ticks_ISO_T2_5,86,9999,9999,9999,917220400
326,10,Ticks_ISO_T2_5,87,9999,9999,9999,917720172
326,10,Ticks_ISO_T2_5,88,9999,9999,9999,918220916
326,10,Ticks_ISO_T2_5,89,9999,9999,9999,918720608
326,10,Ticks_ISO_T2_5,90,9999,9999,9999,919220300
326,10,Ticks_ISO_T2_5,91,9999,9999,9999,919721040
326,10,Ticks_ISO_T2_5,92,9999,9999,9999,920220776
326,10,Ticks_ISO_T2_5,93,9999,9999,9999,920720440
326,10,Ticks_ISO_T2_5,94,9999,9999,9999,921220200
326,10,Ticks_ISO_T2_5,95,9999,9999,9999,921720944
326,10,Ticks_ISO_T2_5,96,9999,9999,9999,922220636
326,10,Ticks_ISO_T2_5,97,9999,9999,9999,922720340
326,10,Ticks_ISO_T2_5,98,9999,9999,9999,923221080
326,10,Ticks_ISO_T2_5,99,9999,9999,9999,923720824
326,10,Ticks_ISO_T2_5,100,9999,9999,9999,924220516
326,10,Ticks_ISO_T2_5,101,9999,9999,9999,924720216
326,10,Ticks_ISO_T2_5,102,9999,9999,9999,925220948
326,10,Ticks_ISO_T2_5,103,9999,9999,9999,925720644
326,10,Ticks_ISO_T2_5,104,9999,9999,9999,926220340
326,10,Ticks_ISO_T2_5,105,9999,9999,9999,926720108
326,10,Ticks_ISO_T2_5,106,9999,9999,9999,927220848
326,10,Ticks_ISO_T2_5,107,9999,9999,9999,927720544
326,10,Ticks_ISO_T2_5,108,9999,9999,9999,928220240
326,10,Ticks_ISO_T2_5,109,9999,9999,9999,928720988
326,10,Ticks_ISO_T2_5,110,9999,9999,9999,929220684
326,10,Ticks_ISO_T2_5,111,9999,9999,9999,929720380
326,10,Ticks_ISO_T2_5,112,9999,9999,9999,930220148
326,10,Ticks_ISO_T2_5,113,9999,9999,9999,930720888
326,10,Ticks_ISO_T2_5,114,9999,9999,9999,931220584
326,10,Ticks_ISO_T2_5,115,9999,9999,9999,931720280
326,10,Ticks_ISO_T2_5,116,9999,9999,9999,932221020
326,10,Ticks_ISO_T2_5,117,9999,9999,9999,932720716
326,10,Ticks_ISO_T2_5,118,9999,9999,9999,933220404
326,10,Ticks_ISO_T2_5,119,9999,9999,9999,933720180
326,10,Ticks_ISO_T2_5,120,9999,9999,9999,934220892
326,10,Ticks_ISO_T2_5,121,9999,9999,9999,934720560
326,10,Ticks_ISO_T2_5,122,9999,9999,9999,935220336
326,10,Ticks_ISO_T2_5,123,9999,9999,9999,935721072
326,10,Ticks_ISO_T2_5,124,9999,9999,9999,936220800
326,10,Ticks_ISO_T2_5,125,9999,9999,9999,936720468
326,10,Ticks_ISO_T2_5,126,9999,9999,9999,937220164
326,10,Ticks_ISO_T2_5,127,9999,9999,9999,937720904
326,10,Ticks_ISO_T2_5,128,9999,9999,9999,938220592
326,10,Ticks_ISO_T2_5,129,9999,9999,9999,938720360
327,22,Ticks_Phase_8,0,5,42,127,953802116
327,22,Ticks_Phase_8,1,5,42,127,954601776
327,22,Ticks_Phase_8,2,5,42,127,955401508
327,22,Ticks_Phase_8,3,5,42,127,956202436
327,22,Ticks_Phase_8,4,1,48,67,956964540
327,22,Ticks_Phase_8,5,1,48,52,956989004
327,22,Ticks_Phase_8,6,5,42,127,957002220
327,22,Ticks_Phase_8,7,1,48,69,957791220
327,22,Ticks_Phase_8,8,5,42,127,957801808
327,22,Ticks_Phase_8,9,1,48,66,958596472
327,22,Ticks_Phase_8,10,5,42,127,958601448
327,22,Ticks_Phase_8,11,1,48,67,959388464
327,22,Ticks_Phase_8,12,5,42,127,959402504
327,22,Ticks_Phase_8,13,1,48,68,960187804
327,22,Ticks_Phase_8,14,5,42,127,960202288
327,22,Ticks_Phase_8,15,1,48,61,960994560
327,22,Ticks_Phase_8,16,5,42,127,961001780
327,22,Ticks_Phase_8,17,1,48,70,961796964
327,22,Ticks_Phase_8,18,5,42,127,961801716
327,22,Ticks_Phase_8,19,5,42,127,962602332
327,22,Ticks_Phase_8,20,1,48,67,962625220
327,22,Ticks_Phase_8,21,1,48,67,963380372
327,22,Ticks_Phase_8,22,5,42,127,963402188
327,22,Ticks_Phase_8,23,1,48,63,964176872
327,22,Ticks_Phase_8,24,5,42,127,964201776
327,22,Ticks_Phase_8,25,1,48,60,964979972
327,22,Ticks_Phase_8,26,5,42,127,965001560
327,22,Ticks_Phase_8,27,1,48,66,965755260
327,22,Ticks_Phase_8,28,5,42,127,965802468
327,22,Ticks_Phase_8,29,1,48,62,966578704
327,22,Ticks_Phase_8,30,5,42,127,966602104
327,22,Ticks_Phase_8,31,1,48,69,967388824
327,22,Ticks_Phase_8,32,5,42,127,967402040
327,22,Ticks_Phase_8,33,1,48,65,968160392
327,22,Ticks_Phase_8,34,5,42,127,968201456
327,22,Ticks_Phase_8,35,1,48,65,969002444
327,22,Ticks_Phase_8,36,5,42,127,969004004
327,22,Ticks_Phase_8,37,5,42,127,969802080
327,22,Ticks_Phase_8,38,1,48,63,969812344
327,22,Ticks_Phase_8,39,1,48,60,970596612
327,22,Ticks_Phase_8,40,5,42,127,970601960
327,22,Ticks_Phase_8,41,5,42,127,971401680
327,22,Ticks_Phase_8,42,1,48,63,971402644
327,22,Ticks_Phase_8,43,1,48,65,972199176
327,22,Ticks_Phase_8,44,5,42,127,972202280
327,22,Ticks_Phase_8,45,1,48,65,972975900
327,22,Ticks_Phase_8,46,5,42,127,973001996
327,22,Ticks_Phase_8,47,1,48,64,973782804
327,22,Ticks_Phase_8,48,5,42,127,973801780
327,22,Ticks_Phase_8,49,1,48,68,974554952
327,22,Ticks_Phase_8,50,5,42,127,974601864
327,22,Ticks_Phase_8,51,1,48,63,975397200
327,22,Ticks_Phase_8,52,5,42,127,975402548
327,22,Ticks_Phase_8,53,5,42,127,976201968
327,22,Ticks_Phase_8,54,1,48,70,976224808
327,22,Ticks_Phase_8,55,1,48,62,976987660
327,22,Ticks_Phase_8,56,5,42,127,977001772
327,22,Ticks_Phase_8,57,1,48,58,977759524
327,22,Ticks_Phase_8,58,5,42,127,977782312
327,22,Ticks_Phase_8,59,1,48,66,978554288
327,22,Ticks_Phase_8,60,5,42,127,978581804
327,22,Ticks_Phase_8,61,1,48,65,979364484
327,22,Ticks_Phase_8,62,5,42,127,979381516
327,22,Ticks_Phase_8,63,1,48,67,980170796
327,22,Ticks_Phase_8,64,5,42,127,980182424
327,22,Ticks_Phase_8,65,5,42,127,980982292
327,22,Ticks_Phase_8,66,1,48,66,980983776
327,22,Ticks_Phase_8,67,1,48,60,981761828
327,22,Ticks_Phase_8,68,5,42,127,981781924
327,22,Ticks_Phase_8,69,1,48,64,982574640
327,22,Ticks_Phase_8,70,5,42,127,982581636
327,22,Ticks_Phase_8,71,1,48,68,983376616
327,22,Ticks_Phase_8,72,5,42,127,983382492
327,22,Ticks_Phase_8,73,1,48,67,984171468
327,22,Ticks_Phase_8,74,5,42,127,984182352
327,22,Ticks_Phase_8,75,5,42,127,984981848
327,22,Ticks_Phase_8,76,1,48,62,985007580
327,22,Ticks_Phase_8,77,1,48,60,985759276
327,22,Ticks_Phase_8,78,5,42,127,985781552
327,22,Ticks_Phase_8,79,1,48,61,986545884
327,22,Ticks_Phase_8,80,5,42,127,986582388
327,22,Ticks_Phase_8,81,1,48,64,987360132
327,22,Ticks_Phase_8,82,5,42,127,987382176
327,22,Ticks_Phase_8,83,1,48,61,988165304
327,22,Ticks_Phase_8,84,5,42,127,988182032
327,22,Ticks_Phase_8,85,5,42,127,988981752
327,22,Ticks_Phase_8,86,1,48,66,989002472
327,22,Ticks_Phase_8,87,5,42,127,989782240
327,22,Ticks_Phase_8,88,1,48,62,989783208
327,22,Ticks_Phase_8,89,5,42,127,990582100
327,22,Ticks_Phase_8,90,1,48,65,990593828
327,22,Ticks_Phase_8,91,1,48,62,991373612
327,22,Ticks_Phase_8,92,5,42,127,991382104
327,22,Ticks_Phase_8,93,1,48,47,991400416
327,22,Ticks_Phase_8,94,1,48,61,992122824
327,22,Ticks_Phase_8,95,5,42,127,992202088
327,22,Ticks_Phase_8,96,1,48,65,992966416
327,22,Ticks_Phase_8,97,1,48,44,992996804
327,22,Ticks_Phase_8,98,5,42,127,993002076
327,22,Ticks_Phase_8,99,5,42,127,993801720
327,22,Ticks_Phase_8,100,1,48,66,993809176
327,22,Ticks_Phase_8,101,1,48,45,993838216
327,22,Ticks_Phase_8,102,1,48,65,994594556
327,22,Ticks_Phase_8,103,5,42,127,994602300
327,22,Ticks_Phase_8,104,1,48,65,995397408
327,22,Ticks_Phase_8,105,5,42,127,995402160
327,22,Ticks_Phase_8,106,1,48,63,996196452
327,22,Ticks_Phase_8,107,5,42,127,996201800
327,22,Ticks_Phase_8,108,1,48,60,996989716
327,22,Ticks_Phase_8,109,5,42,127,997001808
327,22,Ticks_Phase_8,110,1,48,65,997769288
327,22,Ticks_Phase_8,111,5,42,127,997802420
327,22,Ticks_Phase_8,112,1,48,61,998585848
327,22,Ticks_Phase_8,113,5,42,127,998602132
327,22,Ticks_Phase_8,114,1,48,60,999392076
327,22,Ticks_Phase_8,115,5,42,127,999401768
327,22,Ticks_Phase_8,116,5,42,127,1000201708
327,22,Ticks_Phase_8,117,1,48,58,1000207448
327,22,Ticks_Phase_8,118,5,42,127,1001002540
327,22,Ticks_Phase_8,119,1,48,61,1001005660
327,22,Ticks_Phase_8,120,1,48,60,1001759988
327,22,Ticks_Phase_8,121,5,42,127,1001801948
327,22,Ticks_Phase_8,122,1,48,58,1002566176
327,22,Ticks_Phase_8,123,5,42,127,1002601884
327,22,Ticks_Phase_8,124,1,48,61,1003385460
327,22,Ticks_Phase_8,125,5,42,127,1003401520
327,22,Ticks_Phase_8,126,1,48,61,1004170800
327,22,Ticks_Phase_8,127,5,42,127,1004202356
327,22,Ticks_Phase_8,128,1,48,55,1004993728
327,22,Ticks_Phase_8,129,5,42,127,1005041908
327,22,Ticks_Phase_8,130,5,42,127,1005841700
327,22,Ticks_Phase_8,131,1,48,55,1005853432
327,22,Ticks_Phase_8,132,1,48,57,1006632316
327,22,Ticks_Phase_8,133,5,42,127,1006641480
327,22,Ticks_Phase_8,134,5,42,127,1007442268
327,22,Ticks_Phase_8,135,1,48,59,1007463440
327,22,Ticks_Phase_8,136,1,48,66,1008224796
327,22,Ticks_Phase_8,137,5,42,127,1008242196
327,22,Ticks_Phase_8,138,5,42,127,1009041768
327,22,Ticks_Phase_8,139,1,48,63,1009046980
327,22,Ticks_Phase_8,140,1,48,60,1009826012
327,22,Ticks_Phase_8,141,5,42,127,1009841396
327,22,Ticks_Phase_8,142,1,48,63,1010617412
327,22,Ticks_Phase_8,143,5,42,127,1010642228
327,22,Ticks_Phase_8,144,1,48,62,1011428580
327,22,Ticks_Phase_8,145,5,42,127,1011442016
327,22,Ticks_Phase_8,146,1,48,59,1012228140
327,22,Ticks_Phase_8,147,5,42,127,1012241876
327,22,Ticks_Phase_8,148,5,42,127,1013041448
327,22,Ticks_Phase_8,149,1,48,60,1013052352
327,22,Ticks_Phase_8,150,5,42,127,1013842228
327,22,Ticks_Phase_8,151,1,48,60,1013884140
327,22,Ticks_Phase_8,152,1,48,63,1014615616
327,22,Ticks_Phase_8,153,5,42,127,1014642008
327,22,Ticks_Phase_8,154,1,48,64,1015423568
327,22,Ticks_Phase_8,155,5,42,127,1015442092
327,22,Ticks_Phase_8,156,1,48,65,1016207996
327,22,Ticks_Phase_8,157,5,42,127,1016241508
327,22,Ticks_Phase_8,158,1,48,67,1017009296
327,22,Ticks_Phase_8,159,5,42,127,1017042268
327,22,Ticks_Phase_8,160,5,42,127,1017842136
327,22,Ticks_Phase_8,161,1,48,66,1017844148
327,22,Ticks_Phase_8,162,5,42,127,1018601932
327,22,Ticks_Phase_8,163,1,48,67,1018634032
327,22,Ticks_Phase_8,164,1,48,66,1019380196
327,22,Ticks_Phase_8,165,5,42,127,1019401712
327,22,Ticks_Phase_8,166,1,48,67,1020172564
327,22,Ticks_Phase_8,167,5,42,127,1020202320
327,22,Ticks_Phase_8,168,1,48,63,1020946428
327,22,Ticks_Phase_8,169,5,42,127,1021002180
327,22,Ticks_Phase_8,170,1,48,66,1021789048
327,22,Ticks_Phase_8,171,5,42,127,1021801744
327,22,Ticks_Phase_8,172,1,48,66,1022570656
327,22,Ticks_Phase_8,173,5,42,127,1022601532
327,22,Ticks_Phase_8,174,1,48,65,1023377316
327,22,Ticks_Phase_8,175,5,42,127,1023402512
327,22,Ticks_Phase_8,176,1,48,62,1024176508
327,22,Ticks_Phase_8,177,5,42,127,1024202224
327,22,Ticks_Phase_8,178,1,48,63,1024983484
327,22,Ticks_Phase_8,179,5,42,127,1025001860
327,22,Ticks_Phase_8,180,1,48,58,1025776152
327,22,Ticks_Phase_8,181,5,42,127,1025801572
327,22,Ticks_Phase_8,182,1,48,59,1026585300
327,22,Ticks_Phase_8,183,5,42,127,1026602552
327,22,Ticks_Phase_8,184,1,48,58,1027394896
327,22,Ticks_Phase_8,185,5,42,127,1027402364
327,22,Ticks_Phase_8,186,1,48,63,1028174264
327,22,Ticks_Phase_8,187,5,42,127,1028201780
327,22,Ticks_Phase_8,188,1,48,66,1028979064
327,22,Ticks_Phase_8,189,5,42,127,1029001568
327,22,Ticks_Phase_8,190,5,42,127,1029802480
327,22,Ticks_Phase_8,191,1,48,66,1029825748
327,22,Ticks_Phase_8,192,1,48,62,1030590632
327,22,Ticks_Phase_8,193,5,42,127,1030602188
327,22,Ticks_Phase_8,194,5,42,127,1031322300
327,22,Ticks_Phase_8,195,1,48,63,1031383312
327,22,Ticks_Phase_8,196,1,48,63,1032101760
327,22,Ticks_Phase_8,197,5,42,127,1032121708
327,22,Ticks_Phase_8,198,1,48,64,1032876456
327,22,Ticks_Phase_8,199,5,42,127,1032921420
327,22,Ticks_Phase_8,200,1,48,64,1033694440
327,22,Ticks_Phase_8,201,5,42,127,1033722104
327,22,Ticks_Phase_8,202,1,48,59,1034500968
327,22,Ticks_Phase_8,203,5,42,127,1034522188
327,22,Ticks_Phase_8,204,1,48,67,1035272824
327,22,Ticks_Phase_8,205,5,42,127,1035321828
327,22,Ticks_Phase_8,206,1,48,62,1036069604
327,22,Ticks_Phase_8,207,5,42,127,1036121488
327,22,Ticks_Phase_8,208,1,48,58,1036860264
327,22,Ticks_Phase_8,209,5,42,127,1036922248
327,22,Ticks_Phase_8,210,1,48,57,1037702536
327,22,Ticks_Phase_8,211,5,42,127,1037722032
327,22,Ticks_Phase_8,212,1,48,55,1038485168
327,22,Ticks_Phase_8,213,5,42,127,1038522040
327,22,Ticks_Phase_8,214,1,48,66,1039301136
327,22,Ticks_Phase_8,215,5,42,127,1039321532
327,22,Ticks_Phase_8,216,1,48,64,1040081976
327,22,Ticks_Phase_8,217,5,42,127,1040122212
327,22,Ticks_Phase_8,218,1,48,65,1040917848
327,22,Ticks_Phase_8,219,5,42,127,1040922148
327,22,Ticks_Phase_8,220,1,48,46,1040947120
327,22,Ticks_Phase_8,221,1,48,62,1041718960
327,22,Ticks_Phase_8,222,5,42,127,1041721840
327,22,Ticks_Phase_8,223,1,48,62,1042512712
327,22,Ticks_Phase_8,224,5,42,127,1042521576
327,22,Ticks_Phase_8,225,1,48,62,1043308972
327,22,Ticks_Phase_8,226,5,42,127,1043322336
327,22,Ticks_Phase_8,227,1,48,65,1044117748
327,22,Ticks_Phase_8,228,5,42,127,1044122048
327,22,Ticks_Phase_8,229,1,48,62,1044890284
327,22,Ticks_Phase_8,230,5,42,127,1045001652
327,22,Ticks_Phase_8,231,5,42,127,1045802432
327,22,Ticks_Phase_8,232,1,48,59,1045813716
327,22,Ticks_Phase_8,233,1,48,64,1046591472
327,22,Ticks_Phase_8,234,5,42,127,1046602012
327,22,Ticks_Phase_8,235,1,48,62,1047382000
327,22,Ticks_Phase_8,236,5,42,127,1047401724
327,22,Ticks_Phase_8,237,1,48,63,1048188592
327,22,Ticks_Phase_8,238,5,42,127,1048201512
327,22,Ticks_Phase_8,239,1,48,59,1048994376
327,22,Ticks_Phase_8,240,5,42,127,1049002492
327,22,Ticks_Phase_8,241,1,48,64,1049798204
327,22,Ticks_Phase_8,242,5,42,127,1049801984
327,22,Ticks_Phase_8,243,5,42,127,1050601848
327,22,Ticks_Phase_8,244,1,48,64,1050630364
327,22,Ticks_Phase_8,245,1,48,62,1051381384
327,22,Ticks_Phase_8,246,5,42,127,1051401480
327,22,Ticks_Phase_8,247,1,48,59,1052184308
327,22,Ticks_Phase_8,248,5,42,127,1052202460
327,22,Ticks_Phase_8,249,1,48,68,1052984320
327,22,Ticks_Phase_8,250,5,42,127,1053002272
327,22,Ticks_Phase_8,251,1,48,64,1053791700
327,22,Ticks_Phase_8,252,5,42,127,1053801764
327,22,Ticks_Phase_8,253,1,48,66,1054598220
327,22,Ticks_Phase_8,254,5,42,127,1054601696
327,22,Ticks_Phase_8,255,1,48,60,1055400648
327,22,Ticks_Phase_8,256,5,42,127,1055402308
327,22,Ticks_Phase_8,257,1,48,62,1056199288
327,22,Ticks_Phase_8,258,5,42,127,1056202020
327,22,Ticks_Phase_8,259,5,42,127,1057002036
327,22,Ticks_Phase_8,260,1,48,66,1057003000
327,22,Ticks_Phase_8,261,5,42,127,1057801676
327,22,Ticks_Phase_8,262,1,48,62,1057809132
327,22,Ticks_Phase_8,263,1,48,62,1058616848
327,22,Ticks_Phase_8,264,5,42,127,1058762100
327,22,Ticks_Phase_8,265,5,42,127,1059561980
327,22,Ticks_Phase_8,266,1,48,55,1059587860
327,22,Ticks_Phase_8,267,1,48,60,1060348320
327,22,Ticks_Phase_8,268,5,42,127,1060361536
327,22,Ticks_Phase_8,269,1,48,59,1061106392
327,22,Ticks_Phase_8,270,5,42,127,1061162296
327,22,Ticks_Phase_8,271,1,48,70,1061929024
327,22,Ticks_Phase_8,272,5,42,127,1061962032
327,22,Ticks_Phase_8,273,1,48,61,1062710472
327,22,Ticks_Phase_8,274,5,42,127,1062761816
327,22,Ticks_Phase_8,275,1,48,66,1063545248
327,22,Ticks_Phase_8,276,5,42,127,1063561752
327,22,Ticks_Phase_8,277,1,48,65,1064307584
327,22,Ticks_Phase_8,278,5,42,127,1064362364
327,22,Ticks_Phase_8,279,1,48,67,1065157776
327,22,Ticks_Phase_8,280,5,42,127,1065162072
327,22,Ticks_Phase_8,281,1,48,71,1065956060
327,22,Ticks_Phase_8,282,5,42,127,1065961784
327,22,Ticks_Phase_8,283,5,42,127,1066761728
327,22,Ticks_Phase_8,284,1,48,70,1066766496
327,22,Ticks_Phase_8,285,5,42,127,1067562484
327,22,Ticks_Phase_8,286,1,48,73,1067588968
327,22,Ticks_Phase_8,287,1,48,65,1068360868
327,22,Ticks_Phase_8,288,5,42,127,1068362736
327,22,Ticks_Phase_8,289,5,42,127,1069161788
327,22,Ticks_Phase_8,290,1,48,75,1069174264
327,22,Ticks_Phase_8,291,5,42,127,1069961576
327,22,Ticks_Phase_8,292,1,48,72,1069980348
327,22,Ticks_Phase_8,293,1,48,68,1070758324
327,22,Ticks_Phase_8,294,5,42,127,1070762476
327,22,Ticks_Phase_8,295,1,48,62,1071550032
327,22,Ticks_Phase_8,296,5,42,127,1071562260
327,22,Ticks_Phase_8,297,1,48,64,1072334984
327,22,Ticks_Phase_8,298,5,42,127,1072361824
327,22,Ticks_Phase_8,299,5,42,127,1073161692
327,22,Ticks_Phase_8,300,1,48,62,1073162656
327,22,Ticks_Phase_8,301,5,42,127,1073801448
327,22,Ticks_Phase_8,302,1,48,64,1073961384
327,22,Ticks_Phase_8,303,5,42,127,1074602352
327,22,Ticks_Phase_8,304,1,48,59,1074774372
327,22,Ticks_Phase_8,305,1,48,63,1075366828
327,22,Ticks_Phase_8,306,5,42,127,1075402432
327,22,Ticks_Phase_8,307,1,48,74,1076170368
327,22,Ticks_Phase_8,308,5,42,127,1076201772
327,22,Ticks_Phase_8,309,5,42,127,1077001712
327,22,Ticks_Phase_8,310,1,48,75,1077016064
327,22,Ticks_Phase_8,311,1,48,70,1077784240
327,22,Ticks_Phase_8,312,5,42,127,1077802392
327,22,Ticks_Phase_8,313,5,42,127,1078602208
327,22,Ticks_Phase_8,314,1,48,75,1078606300
327,22,Ticks_Phase_8,315,1,48,73,1079387428
327,22,Ticks_Phase_8,316,5,42,127,1079401764
327,22,Ticks_Phase_8,317,1,48,62,1080196500
327,22,Ticks_Phase_8,318,5,42,127,1080201700
327,22,Ticks_Phase_8,319,1,48,48,1080221656
327,22,Ticks_Phase_8,320,1,48,70,1080950516
327,22,Ticks_Phase_8,321,5,42,127,1081002436
327,22,Ticks_Phase_8,322,1,48,77,1081759968
327,22,Ticks_Phase_8,323,5,42,127,1081802000
327,22,Ticks_Phase_8,324,1,48,90,1082578016
327,22,Ticks_Phase_8,325,1,48,63,1082596792
327,22,Ticks_Phase_8,326,5,42,127,1082602064
327,22,Ticks_Phase_8,327,5,42,127,1083401560
327,22,Ticks_Phase_8,328,1,48,104,1083418080
327,22,Ticks_Phase_8,329,5,42,127,1084202464
327,22,Ticks_Phase_8,330,1,48,102,1084208124
327,22,Ticks_Phase_8,331,1,48,119,1084997120
327,22,Ticks_Phase_8,332,5,42,127,1085002096
327,22,Ticks_Phase_8,333,1,48,78,1085012396
327,22,Ticks_Phase_8,334,5,42,127,1085801944
327,22,Ticks_Phase_8,335,1,48,111,1085810764
327,22,Ticks_Phase_8,336,5,42,127,1086601728
327,22,Ticks_Phase_8,337,1,48,127,1086628580
327,22,Ticks_Phase_8,338,1,48,81,1086644812
327,22,Ticks_Phase_8,339,5,42,127,1087402316
327,22,Ticks_Phase_8,340,1,48,125,1087416444
327,22,Ticks_Phase_8,341,1,48,86,1087429836
327,22,Ticks_Phase_8,342,5,42,127,1088202080
327,22,Ticks_Phase_8,343,1,48,122,1088219584
327,22,Ticks_Phase_8,344,1,48,81,1088234684
327,22,Ticks_Phase_8,345,5,42,127,1089001844
327,22,Ticks_Phase_8,346,1,48,126,1089002808
327,22,Ticks_Phase_8,0,9999,9999,9999,953799756
327,22,Ticks_Phase_8,1,9999,9999,9999,954599488
327,22,Ticks_Phase_8,2,9999,9999,9999,955399224
327,22,Ticks_Phase_8,3,9999,9999,9999,956200004
327,22,Ticks_Phase_8,4,9999,9999,9999,956999784
327,22,Ticks_Phase_8,5,9999,9999,9999,957799520
327,22,Ticks_Phase_8,6,9999,9999,9999,958599236
327,22,Ticks_Phase_8,7,9999,9999,9999,959399996
327,22,Ticks_Phase_8,8,9999,9999,9999,960199780
327,22,Ticks_Phase_8,9,9999,9999,9999,960999492
327,22,Ticks_Phase_8,10,9999,9999,9999,961799280
327,22,Ticks_Phase_8,11,9999,9999,9999,962600044
327,22,Ticks_Phase_8,12,9999,9999,9999,963399752
327,22,Ticks_Phase_8,13,9999,9999,9999,964199488
327,22,Ticks_Phase_8,14,9999,9999,9999,964999276
327,22,Ticks_Phase_8,15,9999,9999,9999,965800032
327,22,Ticks_Phase_8,16,9999,9999,9999,966599744
327,22,Ticks_Phase_8,17,9999,9999,9999,967399532
327,22,Ticks_Phase_8,18,9999,9999,9999,968199240
327,22,Ticks_Phase_8,19,9999,9999,9999,969000008
327,22,Ticks_Phase_8,20,9999,9999,9999,969799796
327,22,Ticks_Phase_8,21,9999,9999,9999,970599524
327,22,Ticks_Phase_8,22,9999,9999,9999,971399244
327,22,Ticks_Phase_8,23,9999,9999,9999,972199996
327,22,Ticks_Phase_8,24,9999,9999,9999,972999780
327,22,Ticks_Phase_8,25,9999,9999,9999,973799496
327,22,Ticks_Phase_8,26,9999,9999,9999,974599280
327,22,Ticks_Phase_8,27,9999,9999,9999,975400040
327,22,Ticks_Phase_8,28,9999,9999,9999,976199756
327,22,Ticks_Phase_8,29,9999,9999,9999,976999488
327,22,Ticks_Phase_8,30,9999,9999,9999,977779800
327,22,Ticks_Phase_8,31,9999,9999,9999,978579516
327,22,Ticks_Phase_8,32,9999,9999,9999,979379304
327,22,Ticks_Phase_8,33,9999,9999,9999,980180064
327,22,Ticks_Phase_8,34,9999,9999,9999,980979780
327,22,Ticks_Phase_8,35,9999,9999,9999,981779564
327,22,Ticks_Phase_8,36,9999,9999,9999,982579272
327,22,Ticks_Phase_8,37,9999,9999,9999,983380056
327,22,Ticks_Phase_8,38,9999,9999,9999,984179768
327,22,Ticks_Phase_8,39,9999,9999,9999,984979560
327,22,Ticks_Phase_8,40,9999,9999,9999,985779268
327,22,Ticks_Phase_8,41,9999,9999,9999,986580024
327,22,Ticks_Phase_8,42,9999,9999,9999,987379812
327,22,Ticks_Phase_8,43,9999,9999,9999,988179524
327,22,Ticks_Phase_8,44,9999,9999,9999,988979316
327,22,Ticks_Phase_8,45,9999,9999,9999,989780028
327,22,Ticks_Phase_8,46,9999,9999,9999,990579812
327,22,Ticks_Phase_8,47,9999,9999,9999,991379520
327,22,Ticks_Phase_8,48,9999,9999,9999,992199800
327,22,Ticks_Phase_8,49,9999,9999,9999,992999492
327,22,Ticks_Phase_8,50,9999,9999,9999,993799284
327,22,Ticks_Phase_8,51,9999,9999,9999,994600012
327,22,Ticks_Phase_8,52,9999,9999,9999,995399800
327,22,Ticks_Phase_8,53,9999,9999,9999,996199512
327,22,Ticks_Phase_8,54,9999,9999,9999,996999224
327,22,Ticks_Phase_8,55,9999,9999,9999,997800060
327,22,Ticks_Phase_8,56,9999,9999,9999,998599768
327,22,Ticks_Phase_8,57,9999,9999,9999,999399480
327,22,Ticks_Phase_8,58,9999,9999,9999,1000199272
327,22,Ticks_Phase_8,59,9999,9999,9999,1001000032
327,22,Ticks_Phase_8,60,9999,9999,9999,1001799736
327,22,Ticks_Phase_8,61,9999,9999,9999,1002599520
327,22,Ticks_Phase_8,62,9999,9999,9999,1003399236
327,22,Ticks_Phase_8,63,9999,9999,9999,1004199992
327,22,Ticks_Phase_8,64,9999,9999,9999,1005039696
327,22,Ticks_Phase_8,65,9999,9999,9999,1005839416
327,22,Ticks_Phase_8,66,9999,9999,9999,1006639192
327,22,Ticks_Phase_8,67,9999,9999,9999,1007439984
327,22,Ticks_Phase_8,68,9999,9999,9999,1008239688
327,22,Ticks_Phase_8,69,9999,9999,9999,1009039480
327,22,Ticks_Phase_8,70,9999,9999,9999,1009839184
327,22,Ticks_Phase_8,71,9999,9999,9999,1010639944
327,22,Ticks_Phase_8,72,9999,9999,9999,1011439728
327,22,Ticks_Phase_8,73,9999,9999,9999,1012239440
327,22,Ticks_Phase_8,74,9999,9999,9999,1013039160
327,22,Ticks_Phase_8,75,9999,9999,9999,1013839944
327,22,Ticks_Phase_8,76,9999,9999,9999,1014639720
327,22,Ticks_Phase_8,77,9999,9999,9999,1015439436
327,22,Ticks_Phase_8,78,9999,9999,9999,1016239220
327,22,Ticks_Phase_8,79,9999,9999,9999,1017039980
327,22,Ticks_Phase_8,80,9999,9999,9999,1017839700
327,22,Ticks_Phase_8,81,9999,9999,9999,1018599496
327,22,Ticks_Phase_8,82,9999,9999,9999,1019399276
327,22,Ticks_Phase_8,83,9999,9999,9999,1020200032
327,22,Ticks_Phase_8,84,9999,9999,9999,1020999744
327,22,Ticks_Phase_8,85,9999,9999,9999,1021799532
327,22,Ticks_Phase_8,86,9999,9999,9999,1022599244
327,22,Ticks_Phase_8,87,9999,9999,9999,1023400004
327,22,Ticks_Phase_8,88,9999,9999,9999,1024199788
327,22,Ticks_Phase_8,89,9999,9999,9999,1024999500
327,22,Ticks_Phase_8,90,9999,9999,9999,1025799288
327,22,Ticks_Phase_8,91,9999,9999,9999,1026600044
327,22,Ticks_Phase_8,92,9999,9999,9999,1027399756
327,22,Ticks_Phase_8,93,9999,9999,9999,1028199492
327,22,Ticks_Phase_8,94,9999,9999,9999,1028999280
327,22,Ticks_Phase_8,95,9999,9999,9999,1029800048
327,22,Ticks_Phase_8,96,9999,9999,9999,1030599752
327,22,Ticks_Phase_8,97,9999,9999,9999,1031319640
327,22,Ticks_Phase_8,98,9999,9999,9999,1032119420
327,22,Ticks_Phase_8,99,9999,9999,9999,1032919132
327,22,Ticks_Phase_8,100,9999,9999,9999,1033719892
327,22,Ticks_Phase_8,101,9999,9999,9999,1034519680
327,22,Ticks_Phase_8,102,9999,9999,9999,1035319392
327,22,Ticks_Phase_8,103,9999,9999,9999,1036119128
327,22,Ticks_Phase_8,104,9999,9999,9999,1036919884
327,22,Ticks_Phase_8,105,9999,9999,9999,1037719672
327,22,Ticks_Phase_8,106,9999,9999,9999,1038519384
327,22,Ticks_Phase_8,107,9999,9999,9999,1039319096
327,22,Ticks_Phase_8,108,9999,9999,9999,1040119928
327,22,Ticks_Phase_8,109,9999,9999,9999,1040919640
327,22,Ticks_Phase_8,110,9999,9999,9999,1041719404
327,22,Ticks_Phase_8,111,9999,9999,9999,1042519140
327,22,Ticks_Phase_8,112,9999,9999,9999,1043319900
327,22,Ticks_Phase_8,113,9999,9999,9999,1044119612
327,22,Ticks_Phase_8,114,9999,9999,9999,1044999288
327,22,Ticks_Phase_8,115,9999,9999,9999,1045799996
327,22,Ticks_Phase_8,116,9999,9999,9999,1046599776
327,22,Ticks_Phase_8,117,9999,9999,9999,1047399512
327,22,Ticks_Phase_8,118,9999,9999,9999,1048199224
327,22,Ticks_Phase_8,119,9999,9999,9999,1049000060
327,22,Ticks_Phase_8,120,9999,9999,9999,1049799772
327,22,Ticks_Phase_8,121,9999,9999,9999,1050599488
327,22,Ticks_Phase_8,122,9999,9999,9999,1051399268
327,22,Ticks_Phase_8,123,9999,9999,9999,1052200028
327,22,Ticks_Phase_8,124,9999,9999,9999,1052999764
327,22,Ticks_Phase_8,125,9999,9999,9999,1053799552
327,22,Ticks_Phase_8,126,9999,9999,9999,1054599260
327,22,Ticks_Phase_8,127,9999,9999,9999,1055400048
327,22,Ticks_Phase_8,128,9999,9999,9999,1056199732
327,22,Ticks_Phase_8,129,9999,9999,9999,1056999524
327,22,Ticks_Phase_8,130,9999,9999,9999,1057799240
327,22,Ticks_Phase_8,131,9999,9999,9999,1058759736
327,22,Ticks_Phase_8,132,9999,9999,9999,1059559544
327,22,Ticks_Phase_8,133,9999,9999,9999,1060359248
327,22,Ticks_Phase_8,134,9999,9999,9999,1061160008
327,22,Ticks_Phase_8,135,9999,9999,9999,1061959744
327,22,Ticks_Phase_8,136,9999,9999,9999,1062759532
327,22,Ticks_Phase_8,137,9999,9999,9999,1063559244
327,22,Ticks_Phase_8,138,9999,9999,9999,1064360000
327,22,Ticks_Phase_8,139,9999,9999,9999,1065159788
327,22,Ticks_Phase_8,140,9999,9999,9999,1065959500
327,22,Ticks_Phase_8,141,9999,9999,9999,1066759292
327,22,Ticks_Phase_8,142,9999,9999,9999,1067560052
327,22,Ticks_Phase_8,143,9999,9999,9999,1068359788
327,22,Ticks_Phase_8,144,9999,9999,9999,1069159500
327,22,Ticks_Phase_8,145,9999,9999,9999,1069959284
327,22,Ticks_Phase_8,146,9999,9999,9999,1070760040
327,22,Ticks_Phase_8,147,9999,9999,9999,1071559748
327,22,Ticks_Phase_8,148,9999,9999,9999,1072359536
327,22,Ticks_Phase_8,149,9999,9999,9999,1073159256
327,22,Ticks_Phase_8,150,9999,9999,9999,1073799232
327,22,Ticks_Phase_8,151,9999,9999,9999,1074599992
327,22,Ticks_Phase_8,152,9999,9999,9999,1075399776
327,22,Ticks_Phase_8,153,9999,9999,9999,1076199484
327,22,Ticks_Phase_8,154,9999,9999,9999,1076999280
327,22,Ticks_Phase_8,155,9999,9999,9999,1077800032
327,22,Ticks_Phase_8,156,9999,9999,9999,1078599772
327,22,Ticks_Phase_8,157,9999,9999,9999,1079399480
327,22,Ticks_Phase_8,158,9999,9999,9999,1080199264
327,22,Ticks_Phase_8,159,9999,9999,9999,1081000004
327,22,Ticks_Phase_8,160,9999,9999,9999,1081799788
327,22,Ticks_Phase_8,161,9999,9999,9999,1082599480
327,22,Ticks_Phase_8,162,9999,9999,9999,1083399272
327,22,Ticks_Phase_8,163,9999,9999,9999,1084200028
327,22,Ticks_Phase_8,164,9999,9999,9999,1084999736
327,22,Ticks_Phase_8,165,9999,9999,9999,1085799508
327,22,Ticks_Phase_8,166,9999,9999,9999,1086599292
327,22,Ticks_Phase_8,167,9999,9999,9999,1087400028
327,22,Ticks_Phase_8,168,9999,9999,9999,1088199792
327,22,Ticks_Phase_8,169,9999,9999,9999,1088999480
328,23,Ticks_Phase_5,0,5,42,127,1102588180
328,23,Ticks_Phase_5,1,5,42,127,1103088112
328,23,Ticks_Phase_5,2,5,42,127,1103587600
328,23,Ticks_Phase_5,3,5,42,127,1104088432
328,23,Ticks_Phase_5,4,5,42,127,1104598476
328,23,Ticks_Phase_5,5,1,48,105,1104600992
328,23,Ticks_Phase_5,6,1,48,62,1104627484
328,23,Ticks_Phase_5,7,5,42,127,1105098140
328,23,Ticks_Phase_5,8,1,48,111,1105108748
328,23,Ticks_Phase_5,9,1,48,78,1105126928
328,23,Ticks_Phase_5,10,5,42,127,1105598104
328,23,Ticks_Phase_5,11,1,48,118,1105599892
328,23,Ticks_Phase_5,12,5,42,127,1106097420
328,23,Ticks_Phase_5,13,1,48,108,1106100012
328,23,Ticks_Phase_5,14,1,48,103,1106596640
328,23,Ticks_Phase_5,15,5,42,127,1106598224
328,23,Ticks_Phase_5,16,1,48,79,1106612780
328,23,Ticks_Phase_5,17,5,42,127,1107098044
328,23,Ticks_Phase_5,18,1,48,107,1107103256
328,23,Ticks_Phase_5,19,1,48,77,1107119716
328,23,Ticks_Phase_5,20,5,42,127,1107597788
328,23,Ticks_Phase_5,21,1,48,116,1107599276
328,23,Ticks_Phase_5,22,1,48,119,1108096560
328,23,Ticks_Phase_5,23,5,42,127,1108098368
328,23,Ticks_Phase_5,24,1,48,81,1108112928
328,23,Ticks_Phase_5,25,5,42,127,1108608524
328,23,Ticks_Phase_5,26,1,48,116,1108611120
328,23,Ticks_Phase_5,27,5,42,127,1109108212
328,23,Ticks_Phase_5,28,1,48,113,1109109176
328,23,Ticks_Phase_5,29,1,48,79,1109124784
328,23,Ticks_Phase_5,30,1,48,108,1109595568
328,23,Ticks_Phase_5,31,5,42,127,1109607948
328,23,Ticks_Phase_5,32,5,42,127,1110107492
328,23,Ticks_Phase_5,33,1,48,116,1110108460
328,23,Ticks_Phase_5,34,5,42,127,1110608228
328,23,Ticks_Phase_5,35,1,48,124,1110618012
328,23,Ticks_Phase_5,36,1,48,86,1110634308
328,23,Ticks_Phase_5,37,1,48,114,1111088512
328,23,Ticks_Phase_5,38,1,48,84,1111104584
328,23,Ticks_Phase_5,39,5,42,127,1111107864
328,23,Ticks_Phase_5,40,5,42,127,1111607684
328,23,Ticks_Phase_5,41,1,48,123,1111613120
328,23,Ticks_Phase_5,42,1,48,120,1112102092
328,23,Ticks_Phase_5,43,5,42,127,1112108340
328,23,Ticks_Phase_5,44,1,48,83,1112117588
328,23,Ticks_Phase_5,45,1,48,103,1112604520
328,23,Ticks_Phase_5,46,5,42,127,1112608152
328,23,Ticks_Phase_5,47,1,48,76,1112620616
328,23,Ticks_Phase_5,48,1,48,124,1113095660
328,23,Ticks_Phase_5,49,5,42,127,1113107820
328,23,Ticks_Phase_5,50,1,48,81,1113113388
328,23,Ticks_Phase_5,51,1,48,110,1113605672
328,23,Ticks_Phase_5,52,5,42,127,1113607484
328,23,Ticks_Phase_5,53,1,48,78,1113622792
328,23,Ticks_Phase_5,54,1,48,117,1114102692
328,23,Ticks_Phase_5,55,5,42,127,1114108272
328,23,Ticks_Phase_5,56,5,42,127,1114607968
328,23,Ticks_Phase_5,57,1,48,115,1114611160
328,23,Ticks_Phase_5,58,1,48,79,1114631952
328,23,Ticks_Phase_5,59,5,42,127,1115107780
328,23,Ticks_Phase_5,60,1,48,115,1115109044
328,23,Ticks_Phase_5,61,1,48,81,1115126460
328,23,Ticks_Phase_5,62,1,48,105,1115603884
328,23,Ticks_Phase_5,63,5,42,127,1115608564
328,23,Ticks_Phase_5,64,1,48,113,1116112116
328,23,Ticks_Phase_5,65,5,42,127,1116118884
328,23,Ticks_Phase_5,66,1,48,118,1116615536
328,23,Ticks_Phase_5,67,5,42,127,1116618124
328,23,Ticks_Phase_5,68,5,42,127,1117117672
328,23,Ticks_Phase_5,69,1,48,124,1117129252
328,23,Ticks_Phase_5,70,5,42,127,1117608668
328,23,Ticks_Phase_5,71,1,48,122,1117620176
328,23,Ticks_Phase_5,72,5,42,127,1118107988
328,23,Ticks_Phase_5,73,1,48,127,1118122856
328,23,Ticks_Phase_5,74,5,42,127,1118607676
328,23,Ticks_Phase_5,75,1,48,124,1118616188
328,23,Ticks_Phase_5,76,1,48,110,1119101036
328,23,Ticks_Phase_5,77,5,42,127,1119107356
328,23,Ticks_Phase_5,78,5,42,127,1119608320
328,23,Ticks_Phase_5,79,1,48,114,1119617884
328,23,Ticks_Phase_5,80,1,48,127,1120092620
328,23,Ticks_Phase_5,81,5,42,127,1120107856
328,23,Ticks_Phase_5,82,5,42,127,1120607624
328,23,Ticks_Phase_5,83,1,48,105,1120618684
328,23,Ticks_Phase_5,84,1,48,75,1120635572
328,23,Ticks_Phase_5,85,1,48,116,1121104624
328,23,Ticks_Phase_5,86,5,42,127,1121108552
328,23,Ticks_Phase_5,87,1,48,123,1121589616
328,23,Ticks_Phase_5,88,5,42,127,1121608168
328,23,Ticks_Phase_5,89,1,48,113,1122079564
328,23,Ticks_Phase_5,90,5,42,127,1122107976
328,23,Ticks_Phase_5,91,1,48,112,1122602244
328,23,Ticks_Phase_5,92,5,42,127,1122607592
328,23,Ticks_Phase_5,93,1,48,108,1123095108
328,23,Ticks_Phase_5,94,5,42,127,1123108176
328,23,Ticks_Phase_5,95,1,48,111,1123605500
328,23,Ticks_Phase_5,96,5,42,127,1123608088
328,23,Ticks_Phase_5,97,5,42,127,1124107560
328,23,Ticks_Phase_5,98,1,48,114,1124116072
328,23,Ticks_Phase_5,99,1,48,115,1124601364
328,23,Ticks_Phase_5,100,5,42,127,1124608288
328,23,Ticks_Phase_5,101,5,42,127,1125108204
328,23,Ticks_Phase_5,102,1,48,103,1125111696
328,23,Ticks_Phase_5,103,5,42,127,1125607896
328,23,Ticks_Phase_5,104,1,48,109,1125612584
328,23,Ticks_Phase_5,105,5,42,127,1126107432
328,23,Ticks_Phase_5,106,1,48,109,1126115872
328,23,Ticks_Phase_5,107,5,42,127,1126617532
328,23,Ticks_Phase_5,108,1,48,108,1126628592
328,23,Ticks_Phase_5,109,5,42,127,1127118192
328,23,Ticks_Phase_5,110,1,48,120,1127130820
328,23,Ticks_Phase_5,111,1,48,108,1127605940
328,23,Ticks_Phase_5,112,5,42,127,1127618024
328,23,Ticks_Phase_5,113,5,42,127,1128117792
328,23,Ticks_Phase_5,114,1,48,121,1128122256
328,23,Ticks_Phase_5,115,5,42,127,1128618376
328,23,Ticks_Phase_5,116,1,48,124,1128633100
328,23,Ticks_Phase_5,117,5,42,127,1129117992
328,23,Ticks_Phase_5,118,1,48,110,1129122752
328,23,Ticks_Phase_5,119,5,42,127,1129617980
328,23,Ticks_Phase_5,120,1,48,126,1129627992
328,23,Ticks_Phase_5,121,1,48,97,1130108792
328,23,Ticks_Phase_5,122,5,42,127,1130117436
328,23,Ticks_Phase_5,123,5,42,127,1130618252
328,23,Ticks_Phase_5,124,1,48,92,1130630512
328,23,Ticks_Phase_5,125,5,42,127,1131117868
328,23,Ticks_Phase_5,126,1,48,85,1131133188
328,23,Ticks_Phase_5,127,5,42,127,1131617704
328,23,Ticks_Phase_5,128,1,48,84,1131623288
328,23,Ticks_Phase_5,129,5,42,127,1132118364
328,23,Ticks_Phase_5,130,1,48,82,1132130472
328,23,Ticks_Phase_5,131,5,42,127,1132618128
328,23,Ticks_Phase_5,132,1,48,81,1132646492
328,23,Ticks_Phase_5,133,5,42,127,1133117868
328,23,Ticks_Phase_5,134,1,48,84,1133127232
328,23,Ticks_Phase_5,135,1,48,81,1133614368
328,23,Ticks_Phase_5,136,5,42,127,1133617624
328,23,Ticks_Phase_5,137,1,48,84,1134111064
328,23,Ticks_Phase_5,138,5,42,127,1134118212
328,23,Ticks_Phase_5,139,1,48,77,1134634708
328,23,Ticks_Phase_5,140,5,42,127,1134637744
328,23,Ticks_Phase_5,141,1,48,78,1135117260
328,23,Ticks_Phase_5,142,5,42,127,1135138108
328,23,Ticks_Phase_5,143,1,48,75,1135635680
328,23,Ticks_Phase_5,144,5,42,127,1135637796
328,23,Ticks_Phase_5,145,5,42,127,1136137492
328,23,Ticks_Phase_5,146,1,48,81,1136143148
328,23,Ticks_Phase_5,147,5,42,127,1136638524
328,23,Ticks_Phase_5,148,1,48,77,1136652124
328,23,Ticks_Phase_5,149,1,48,79,1137137460
328,23,Ticks_Phase_5,150,5,42,127,1137139176
328,23,Ticks_Phase_5,151,1,48,79,1137636308
328,23,Ticks_Phase_5,152,5,42,127,1137638116
328,23,Ticks_Phase_5,153,5,42,127,1138137660
328,23,Ticks_Phase_5,154,1,48,75,1138148572
328,23,Ticks_Phase_5,155,5,42,127,1138638468
328,23,Ticks_Phase_5,156,1,48,78,1138650504
328,23,Ticks_Phase_5,157,1,48,81,1139133324
328,23,Ticks_Phase_5,158,5,42,127,1139137932
328,23,Ticks_Phase_5,159,1,48,81,1139613992
328,23,Ticks_Phase_5,160,5,42,127,1139637544
328,23,Ticks_Phase_5,161,1,48,81,1140130312
328,23,Ticks_Phase_5,162,5,42,127,1140138576
328,23,Ticks_Phase_5,163,5,42,127,1140638048
328,23,Ticks_Phase_5,164,1,48,89,1140649628
328,23,Ticks_Phase_5,165,5,42,127,1141137808
328,23,Ticks_Phase_5,166,1,48,77,1141161520
328,23,Ticks_Phase_5,167,5,42,127,1141637648
328,23,Ticks_Phase_5,168,1,48,79,1141640088
328,23,Ticks_Phase_5,169,1,48,86,1142138012
328,23,Ticks_Phase_5,170,5,42,127,1142139572
328,23,Ticks_Phase_5,171,1,48,85,1142629796
328,23,Ticks_Phase_5,172,5,42,127,1142638064
328,23,Ticks_Phase_5,173,5,42,127,1143118364
328,23,Ticks_Phase_5,174,1,48,78,1143121260
328,23,Ticks_Phase_5,175,1,48,84,1143609756
328,23,Ticks_Phase_5,176,5,42,127,1143617896
328,23,Ticks_Phase_5,177,1,48,81,1144117640
328,23,Ticks_Phase_5,178,5,42,127,1144119128
328,23,Ticks_Phase_5,179,5,42,127,1144618228
328,23,Ticks_Phase_5,180,1,48,89,1144622392
328,23,Ticks_Phase_5,181,1,48,82,1145098484
328,23,Ticks_Phase_5,182,5,42,127,1145118356
328,23,Ticks_Phase_5,183,5,42,127,1145617900
328,23,Ticks_Phase_5,184,1,48,95,1145641464
328,23,Ticks_Phase_5,185,5,42,127,1146117440
328,23,Ticks_Phase_5,186,1,48,90,1146122652
328,23,Ticks_Phase_5,187,5,42,127,1146618100
328,23,Ticks_Phase_5,188,1,48,89,1146623312
328,23,Ticks_Phase_5,189,5,42,127,1147118088
328,23,Ticks_Phase_5,190,1,48,83,1147119052
328,23,Ticks_Phase_5,191,1,48,85,1147609652
328,23,Ticks_Phase_5,192,5,42,127,1147617916
328,23,Ticks_Phase_5,193,1,48,86,1148117080
328,23,Ticks_Phase_5,194,5,42,127,1148118652
328,23,Ticks_Phase_5,195,5,42,127,1148618196
328,23,Ticks_Phase_5,196,1,48,75,1148624456
328,23,Ticks_Phase_5,197,1,48,75,1149113272
328,23,Ticks_Phase_5,198,5,42,127,1149118028
328,23,Ticks_Phase_5,199,1,48,84,1149612888
328,23,Ticks_Phase_5,200,5,42,127,1149617644
328,23,Ticks_Phase_5,201,5,42,127,1150118236
328,23,Ticks_Phase_5,202,1,48,79,1150132584
328,23,Ticks_Phase_5,203,1,48,75,1150607032
328,23,Ticks_Phase_5,204,5,42,127,1150617916
328,23,Ticks_Phase_5,205,5,42,127,1151067440
328,23,Ticks_Phase_5,206,1,48,80,1151104476
328,23,Ticks_Phase_5,207,1,48,77,1151563868
328,23,Ticks_Phase_5,208,5,42,127,1151568320
328,23,Ticks_Phase_5,209,5,42,127,1152068088
328,23,Ticks_Phase_5,210,1,48,78,1152070532
328,23,Ticks_Phase_5,211,1,48,84,1152553928
328,23,Ticks_Phase_5,212,5,42,127,1152567596
328,23,Ticks_Phase_5,213,1,48,83,1153040964
328,23,Ticks_Phase_5,214,5,42,127,1153068332
328,23,Ticks_Phase_5,215,1,48,80,1153548896
328,23,Ticks_Phase_5,216,5,42,127,1153568020
328,23,Ticks_Phase_5,217,1,48,77,1154044528
328,23,Ticks_Phase_5,218,5,42,127,1154067932
328,23,Ticks_Phase_5,219,1,48,76,1154552984
328,23,Ticks_Phase_5,220,5,42,127,1154567472
328,23,Ticks_Phase_5,221,1,48,81,1155057392
328,23,Ticks_Phase_5,222,5,42,127,1155068204
328,23,Ticks_Phase_5,223,1,48,84,1155548396
328,23,Ticks_Phase_5,224,5,42,127,1155568044
328,23,Ticks_Phase_5,225,1,48,79,1156047264
328,23,Ticks_Phase_5,226,5,42,127,1156067808
328,23,Ticks_Phase_5,227,1,48,81,1156539832
328,23,Ticks_Phase_5,228,5,42,127,1156568540
328,23,Ticks_Phase_5,229,1,48,80,1157066180
328,23,Ticks_Phase_5,230,5,42,127,1157078412
328,23,Ticks_Phase_5,231,1,48,81,1157550960
328,23,Ticks_Phase_5,232,5,42,127,1157577952
328,23,Ticks_Phase_5,233,1,48,82,1158057020
328,23,Ticks_Phase_5,234,5,42,127,1158077716
328,23,Ticks_Phase_5,235,1,48,81,1158548244
328,23,Ticks_Phase_5,236,5,42,127,1158577480
328,23,Ticks_Phase_5,237,1,48,85,1159035712
328,23,Ticks_Phase_5,238,5,42,127,1159078288
328,23,Ticks_Phase_5,239,1,48,81,1159577424
328,23,Ticks_Phase_5,240,5,42,127,1159628076
328,23,Ticks_Phase_5,241,1,48,83,1160120472
328,23,Ticks_Phase_5,242,5,42,127,1160127916
328,23,Ticks_Phase_5,243,5,42,127,1160627684
328,23,Ticks_Phase_5,244,1,48,77,1160646684
328,23,Ticks_Phase_5,245,5,42,127,1161128420
328,23,Ticks_Phase_5,246,1,48,83,1161133704
328,23,Ticks_Phase_5,247,5,42,127,1161627884
328,23,Ticks_Phase_5,248,1,48,82,1161639612
328,23,Ticks_Phase_5,249,5,42,127,1162127648
328,23,Ticks_Phase_5,250,1,48,86,1162134352
328,23,Ticks_Phase_5,251,1,48,87,1162627632
328,23,Ticks_Phase_5,252,5,42,127,1162629276
328,23,Ticks_Phase_5,253,5,42,127,1163128072
328,23,Ticks_Phase_5,254,1,48,80,1163134256
328,23,Ticks_Phase_5,255,5,42,127,1163627908
328,23,Ticks_Phase_5,256,1,48,86,1163632520
328,23,Ticks_Phase_5,257,5,42,127,1164127596
328,23,Ticks_Phase_5,258,1,48,87,1164129232
328,23,Ticks_Phase_5,259,1,48,85,1164624020
328,23,Ticks_Phase_5,260,5,42,127,1164628400
328,23,Ticks_Phase_5,261,1,48,91,1165124232
328,23,Ticks_Phase_5,262,5,42,127,1165127940
328,23,Ticks_Phase_5,263,5,42,127,1165627760
328,23,Ticks_Phase_5,264,1,48,85,1165633744
328,23,Ticks_Phase_5,265,5,42,127,1166127372
328,23,Ticks_Phase_5,266,1,48,86,1166138352
328,23,Ticks_Phase_5,267,5,42,127,1166628332
328,23,Ticks_Phase_5,268,1,48,92,1166643280
328,23,Ticks_Phase_5,269,5,42,127,1167127796
328,23,Ticks_Phase_5,270,1,48,81,1167136680
328,23,Ticks_Phase_5,271,5,42,127,1167627560
328,23,Ticks_Phase_5,272,1,48,89,1167633216
328,23,Ticks_Phase_5,273,1,48,90,1168128188
328,23,Ticks_Phase_5,274,5,42,127,1168227748
328,23,Ticks_Phase_5,275,5,42,127,1168728356
328,23,Ticks_Phase_5,276,1,48,74,1168790936
328,23,Ticks_Phase_5,277,1,48,78,1169236936
328,23,Ticks_Phase_5,278,5,42,127,1169238668
328,23,Ticks_Phase_5,279,1,48,92,1169719508
328,23,Ticks_Phase_5,280,5,42,127,1169738284
328,23,Ticks_Phase_5,281,1,48,89,1170223608
328,23,Ticks_Phase_5,282,5,42,127,1170237724
328,23,Ticks_Phase_5,283,1,48,88,1170733776
328,23,Ticks_Phase_5,284,5,42,127,1170737484
328,23,Ticks_Phase_5,285,1,48,84,1171227560
328,23,Ticks_Phase_5,286,5,42,127,1171238220
328,23,Ticks_Phase_5,287,1,48,83,1171714284
328,23,Ticks_Phase_5,288,5,42,127,1171738208
328,23,Ticks_Phase_5,289,5,42,127,1172237604
328,23,Ticks_Phase_5,290,1,48,88,1172241320
328,23,Ticks_Phase_5,291,1,48,85,1172738340
328,23,Ticks_Phase_5,292,5,42,127,1172739900
328,23,Ticks_Phase_5,293,1,48,97,1173236948
328,23,Ticks_Phase_5,294,5,42,127,1173248356
328,23,Ticks_Phase_5,295,1,48,92,1173733480
328,23,Ticks_Phase_5,296,5,42,127,1173748116
328,23,Ticks_Phase_5,297,5,42,127,1174247960
328,23,Ticks_Phase_5,298,1,48,90,1174248924
328,23,Ticks_Phase_5,299,5,42,127,1174747500
328,23,Ticks_Phase_5,300,1,48,87,1174770988
328,23,Ticks_Phase_5,301,5,42,127,1175248308
328,23,Ticks_Phase_5,302,1,48,80,1175261464
328,23,Ticks_Phase_5,303,5,42,127,1175748068
328,23,Ticks_Phase_5,304,1,48,83,1175752160
328,23,Ticks_Phase_5,305,5,42,127,1176247760
328,23,Ticks_Phase_5,306,1,48,84,1176251024
328,23,Ticks_Phase_5,307,1,48,79,1176741192
328,23,Ticks_Phase_5,308,5,42,127,1176748336
328,23,Ticks_Phase_5,309,1,48,79,1177234428
328,23,Ticks_Phase_5,310,5,42,127,1177248100
328,23,Ticks_Phase_5,311,5,42,127,1177647648
328,23,Ticks_Phase_5,312,1,48,86,1177736840
328,23,Ticks_Phase_5,313,5,42,127,1178148084
328,23,Ticks_Phase_5,314,1,48,64,1178195552
328,23,Ticks_Phase_5,315,5,42,127,1178647996
328,23,Ticks_Phase_5,316,1,48,73,1178654928
328,23,Ticks_Phase_5,317,1,48,80,1179134236
328,23,Ticks_Phase_5,318,5,42,127,1179147824
328,23,Ticks_Phase_5,319,5,42,127,1179648416
328,23,Ticks_Phase_5,320,1,48,87,1179654304
328,23,Ticks_Phase_5,321,1,48,81,1180131288
328,23,Ticks_Phase_5,322,5,42,127,1180148172
328,23,Ticks_Phase_5,323,5,42,127,1180647940
328,23,Ticks_Phase_5,324,1,48,89,1180654348
328,23,Ticks_Phase_5,325,1,48,91,1181143988
328,23,Ticks_Phase_5,326,5,42,127,1181147696
328,23,Ticks_Phase_5,327,5,42,127,1181648216
328,23,Ticks_Phase_5,328,1,48,80,1181654400
328,23,Ticks_Phase_5,329,1,48,79,1182147148
328,23,Ticks_Phase_5,330,5,42,127,1182148868
328,23,Ticks_Phase_5,331,5,42,127,1182647740
328,23,Ticks_Phase_5,332,1,48,86,1182656252
328,23,Ticks_Phase_5,333,5,42,127,1183148548
328,23,Ticks_Phase_5,334,1,48,88,1183163944
328,23,Ticks_Phase_5,335,5,42,127,1183648088
328,23,Ticks_Phase_5,336,1,48,91,1183655244
328,23,Ticks_Phase_5,337,5,42,127,1184147776
328,23,Ticks_Phase_5,338,1,48,91,1184161600
328,23,Ticks_Phase_5,339,1,48,82,1184647464
328,23,Ticks_Phase_5,340,5,42,127,1184649172
328,23,Ticks_Phase_5,341,1,48,86,1185142844
328,23,Ticks_Phase_5,342,5,42,127,1185148564
328,23,Ticks_Phase_5,343,1,48,86,1185644996
328,23,Ticks_Phase_5,344,5,42,127,1185648032
328,23,Ticks_Phase_5,345,1,48,85,1186145676
328,23,Ticks_Phase_5,346,5,42,127,1186147644
328,23,Ticks_Phase_5,347,1,48,73,1186643476
328,23,Ticks_Phase_5,348,5,42,127,1186648528
328,23,Ticks_Phase_5,349,5,42,127,1187158336
328,23,Ticks_Phase_5,0,9999,9999,9999,1102585964
328,23,Ticks_Phase_5,1,9999,9999,9999,1103085672
328,23,Ticks_Phase_5,2,9999,9999,9999,1103585384
328,23,Ticks_Phase_5,3,9999,9999,9999,1104086144
328,23,Ticks_Phase_5,4,9999,9999,9999,1104596036
328,23,Ticks_Phase_5,5,9999,9999,9999,1105095776
328,23,Ticks_Phase_5,6,9999,9999,9999,1105595516
328,23,Ticks_Phase_5,7,9999,9999,9999,1106095204
328,23,Ticks_Phase_5,8,9999,9999,9999,1106595948
328,23,Ticks_Phase_5,9,9999,9999,9999,1107095608
328,23,Ticks_Phase_5,10,9999,9999,9999,1107595348
328,23,Ticks_Phase_5,11,9999,9999,9999,1108096108
328,23,Ticks_Phase_5,12,9999,9999,9999,1108606012
328,23,Ticks_Phase_5,13,9999,9999,9999,1109105776
328,23,Ticks_Phase_5,14,9999,9999,9999,1109605436
328,23,Ticks_Phase_5,15,9999,9999,9999,1110105204
328,23,Ticks_Phase_5,16,9999,9999,9999,1110605940
328,23,Ticks_Phase_5,17,9999,9999,9999,1111105628
328,23,Ticks_Phase_5,18,9999,9999,9999,1111605320
328,23,Ticks_Phase_5,19,9999,9999,9999,1112106052
328,23,Ticks_Phase_5,20,9999,9999,9999,1112605788
328,23,Ticks_Phase_5,21,9999,9999,9999,1113105528
328,23,Ticks_Phase_5,22,9999,9999,9999,1113605220
328,23,Ticks_Phase_5,23,9999,9999,9999,1114105984
328,23,Ticks_Phase_5,24,9999,9999,9999,1114605676
328,23,Ticks_Phase_5,25,9999,9999,9999,1115105344
328,23,Ticks_Phase_5,26,9999,9999,9999,1115606128
328,23,Ticks_Phase_5,27,9999,9999,9999,1116116072
328,23,Ticks_Phase_5,28,9999,9999,9999,1116615760
328,23,Ticks_Phase_5,29,9999,9999,9999,1117115456
328,23,Ticks_Phase_5,30,9999,9999,9999,1117606008
328,23,Ticks_Phase_5,31,9999,9999,9999,1118105696
328,23,Ticks_Phase_5,32,9999,9999,9999,1118605388
328,23,Ticks_Phase_5,33,9999,9999,9999,1119105144
328,23,Ticks_Phase_5,34,9999,9999,9999,1119605884
328,23,Ticks_Phase_5,35,9999,9999,9999,1120105564
328,23,Ticks_Phase_5,36,9999,9999,9999,1120605260
328,23,Ticks_Phase_5,37,9999,9999,9999,1121106040
328,23,Ticks_Phase_5,38,9999,9999,9999,1121605728
328,23,Ticks_Phase_5,39,9999,9999,9999,1122105464
328,23,Ticks_Phase_5,40,9999,9999,9999,1122605156
328,23,Ticks_Phase_5,41,9999,9999,9999,1123105888
328,23,Ticks_Phase_5,42,9999,9999,9999,1123605576
328,23,Ticks_Phase_5,43,9999,9999,9999,1124105272
328,23,Ticks_Phase_5,44,9999,9999,9999,1124606072
328,23,Ticks_Phase_5,45,9999,9999,9999,1125105768
328,23,Ticks_Phase_5,46,9999,9999,9999,1125605456
328,23,Ticks_Phase_5,47,9999,9999,9999,1126105144
328,23,Ticks_Phase_5,48,9999,9999,9999,1126615092
328,23,Ticks_Phase_5,49,9999,9999,9999,1127115900
328,23,Ticks_Phase_5,50,9999,9999,9999,1127615584
328,23,Ticks_Phase_5,51,9999,9999,9999,1128115280
328,23,Ticks_Phase_5,52,9999,9999,9999,1128616016
328,23,Ticks_Phase_5,53,9999,9999,9999,1129115704
328,23,Ticks_Phase_5,54,9999,9999,9999,1129615468
328,23,Ticks_Phase_5,55,9999,9999,9999,1130115148
328,23,Ticks_Phase_5,56,9999,9999,9999,1130615888
328,23,Ticks_Phase_5,57,9999,9999,9999,1131115576
328,23,Ticks_Phase_5,58,9999,9999,9999,1131615340
328,23,Ticks_Phase_5,59,9999,9999,9999,1132116076
328,23,Ticks_Phase_5,60,9999,9999,9999,1132615764
328,23,Ticks_Phase_5,61,9999,9999,9999,1133115504
328,23,Ticks_Phase_5,62,9999,9999,9999,1133615188
328,23,Ticks_Phase_5,63,9999,9999,9999,1134115920
328,23,Ticks_Phase_5,64,9999,9999,9999,1134635084
328,23,Ticks_Phase_5,65,9999,9999,9999,1135135820
328,23,Ticks_Phase_5,66,9999,9999,9999,1135635544
328,23,Ticks_Phase_5,67,9999,9999,9999,1136135276
328,23,Ticks_Phase_5,68,9999,9999,9999,1136636008
328,23,Ticks_Phase_5,69,9999,9999,9999,1137135696
328,23,Ticks_Phase_5,70,9999,9999,9999,1137635384
328,23,Ticks_Phase_5,71,9999,9999,9999,1138135148
328,23,Ticks_Phase_5,72,9999,9999,9999,1138635884
328,23,Ticks_Phase_5,73,9999,9999,9999,1139135568
328,23,Ticks_Phase_5,74,9999,9999,9999,1139635256
328,23,Ticks_Phase_5,75,9999,9999,9999,1140135988
328,23,Ticks_Phase_5,76,9999,9999,9999,1140635756
328,23,Ticks_Phase_5,77,9999,9999,9999,1141135444
328,23,Ticks_Phase_5,78,9999,9999,9999,1141635136
328,23,Ticks_Phase_5,79,9999,9999,9999,1142135868
328,23,Ticks_Phase_5,80,9999,9999,9999,1142635624
328,23,Ticks_Phase_5,81,9999,9999,9999,1143115848
328,23,Ticks_Phase_5,82,9999,9999,9999,1143615584
328,23,Ticks_Phase_5,83,9999,9999,9999,1144115276
328,23,Ticks_Phase_5,84,9999,9999,9999,1144616012
328,23,Ticks_Phase_5,85,9999,9999,9999,1145115768
328,23,Ticks_Phase_5,86,9999,9999,9999,1145615464
328,23,Ticks_Phase_5,87,9999,9999,9999,1146115148
328,23,Ticks_Phase_5,88,9999,9999,9999,1146615888
328,23,Ticks_Phase_5,89,9999,9999,9999,1147115576
328,23,Ticks_Phase_5,90,9999,9999,9999,1147615332
328,23,Ticks_Phase_5,91,9999,9999,9999,1148116072
328,23,Ticks_Phase_5,92,9999,9999,9999,1148615760
328,23,Ticks_Phase_5,93,9999,9999,9999,1149115516
328,23,Ticks_Phase_5,94,9999,9999,9999,1149615204
328,23,Ticks_Phase_5,95,9999,9999,9999,1150115944
328,23,Ticks_Phase_5,96,9999,9999,9999,1150615628
328,23,Ticks_Phase_5,97,9999,9999,9999,1151065148
328,23,Ticks_Phase_5,98,9999,9999,9999,1151565880
328,23,Ticks_Phase_5,99,9999,9999,9999,1152065652
328,23,Ticks_Phase_5,100,9999,9999,9999,1152565308
328,23,Ticks_Phase_5,101,9999,9999,9999,1153066040
328,23,Ticks_Phase_5,102,9999,9999,9999,1153565804
328,23,Ticks_Phase_5,103,9999,9999,9999,1154065492
328,23,Ticks_Phase_5,104,9999,9999,9999,1154565184
328,23,Ticks_Phase_5,105,9999,9999,9999,1155065916
328,23,Ticks_Phase_5,106,9999,9999,9999,1155565680
328,23,Ticks_Phase_5,107,9999,9999,9999,1156065368
328,23,Ticks_Phase_5,108,9999,9999,9999,1156566104
328,23,Ticks_Phase_5,109,9999,9999,9999,1157076052
328,23,Ticks_Phase_5,110,9999,9999,9999,1157575740
328,23,Ticks_Phase_5,111,9999,9999,9999,1158075500
328,23,Ticks_Phase_5,112,9999,9999,9999,1158575188
328,23,Ticks_Phase_5,113,9999,9999,9999,1159075924
328,23,Ticks_Phase_5,114,9999,9999,9999,1159625788
328,23,Ticks_Phase_5,115,9999,9999,9999,1160125552
328,23,Ticks_Phase_5,116,9999,9999,9999,1160625244
328,23,Ticks_Phase_5,117,9999,9999,9999,1161125980
328,23,Ticks_Phase_5,118,9999,9999,9999,1161625668
328,23,Ticks_Phase_5,119,9999,9999,9999,1162125432
328,23,Ticks_Phase_5,120,9999,9999,9999,1162625120
328,23,Ticks_Phase_5,121,9999,9999,9999,1163125856
328,23,Ticks_Phase_5,122,9999,9999,9999,1163625544
328,23,Ticks_Phase_5,123,9999,9999,9999,1164125308
328,23,Ticks_Phase_5,124,9999,9999,9999,1164626036
328,23,Ticks_Phase_5,125,9999,9999,9999,1165125724
328,23,Ticks_Phase_5,126,9999,9999,9999,1165625468
328,23,Ticks_Phase_5,127,9999,9999,9999,1166125160
328,23,Ticks_Phase_5,128,9999,9999,9999,1166625892
328,23,Ticks_Phase_5,129,9999,9999,9999,1167125580
328,23,Ticks_Phase_5,130,9999,9999,9999,1167625344
328,23,Ticks_Phase_5,131,9999,9999,9999,1168225384
328,23,Ticks_Phase_5,132,9999,9999,9999,1168726144
328,23,Ticks_Phase_5,133,9999,9999,9999,1169236088
328,23,Ticks_Phase_5,134,9999,9999,9999,1169735772
328,23,Ticks_Phase_5,135,9999,9999,9999,1170235508
328,23,Ticks_Phase_5,136,9999,9999,9999,1170735196
328,23,Ticks_Phase_5,137,9999,9999,9999,1171235932
328,23,Ticks_Phase_5,138,9999,9999,9999,1171735620
328,23,Ticks_Phase_5,139,9999,9999,9999,1172235388
328,23,Ticks_Phase_5,140,9999,9999,9999,1172736128
328,23,Ticks_Phase_5,141,9999,9999,9999,1173246064
328,23,Ticks_Phase_5,142,9999,9999,9999,1173745752
328,23,Ticks_Phase_5,143,9999,9999,9999,1174245448
328,23,Ticks_Phase_5,144,9999,9999,9999,1174745212
328,23,Ticks_Phase_5,145,9999,9999,9999,1175245944
328,23,Ticks_Phase_5,146,9999,9999,9999,1175745632
328,23,Ticks_Phase_5,147,9999,9999,9999,1176245320
328,23,Ticks_Phase_5,148,9999,9999,9999,1176746048
328,23,Ticks_Phase_5,149,9999,9999,9999,1177245812
328,23,Ticks_Phase_5,150,9999,9999,9999,1177645132
328,23,Ticks_Phase_5,151,9999,9999,9999,1178145868
328,23,Ticks_Phase_5,152,9999,9999,9999,1178645632
328,23,Ticks_Phase_5,153,9999,9999,9999,1179145312
328,23,Ticks_Phase_5,154,9999,9999,9999,1179646052
328,23,Ticks_Phase_5,155,9999,9999,9999,1180145736
328,23,Ticks_Phase_5,156,9999,9999,9999,1180645504
328,23,Ticks_Phase_5,157,9999,9999,9999,1181145184
328,23,Ticks_Phase_5,158,9999,9999,9999,1181645924
328,23,Ticks_Phase_5,159,9999,9999,9999,1182145612
328,23,Ticks_Phase_5,160,9999,9999,9999,1182645376
328,23,Ticks_Phase_5,161,9999,9999,9999,1183146112
328,23,Ticks_Phase_5,162,9999,9999,9999,1183645800
328,23,Ticks_Phase_5,163,9999,9999,9999,1184145488
328,23,Ticks_Phase_5,164,9999,9999,9999,1184645176
328,23,Ticks_Phase_5,165,9999,9999,9999,1185145976
328,23,Ticks_Phase_5,166,9999,9999,9999,1185645668
328,23,Ticks_Phase_5,167,9999,9999,9999,1186145392
328,23,Ticks_Phase_5,168,9999,9999,9999,1186646092
328,23,Ticks_Phase_5,169,9999,9999,9999,1187156044
329,20,Ticks_Linear_8,0,5,42,127,1201788252
329,20,Ticks_Linear_8,1,5,42,127,1202607692
329,20,Ticks_Linear_8,2,5,42,127,1203427808
329,20,Ticks_Linear_8,3,5,42,127,1204247848
329,20,Ticks_Linear_8,4,1,48,66,1205056636
329,20,Ticks_Linear_8,5,5,42,127,1205068280
329,20,Ticks_Linear_8,6,5,42,127,1205878120
329,20,Ticks_Linear_8,7,1,48,67,1205884452
329,20,Ticks_Linear_8,8,5,42,127,1206688104
329,20,Ticks_Linear_8,9,1,48,73,1206729120
329,20,Ticks_Linear_8,10,1,48,66,1207493240
329,20,Ticks_Linear_8,11,5,42,127,1207498080
329,20,Ticks_Linear_8,12,1,48,64,1208307392
329,20,Ticks_Linear_8,13,5,42,127,1208309036
329,20,Ticks_Linear_8,14,1,48,68,1209081984
329,20,Ticks_Linear_8,15,5,42,127,1209118420
329,20,Ticks_Linear_8,16,5,42,127,1209917804
329,20,Ticks_Linear_8,17,1,48,65,1209938448
329,20,Ticks_Linear_8,18,1,48,70,1210716396
329,20,Ticks_Linear_8,19,5,42,127,1210718268
329,20,Ticks_Linear_8,20,5,42,127,1211518224
329,20,Ticks_Linear_8,21,1,48,62,1211537600
329,20,Ticks_Linear_8,22,1,48,63,1212312656
329,20,Ticks_Linear_8,23,5,42,127,1212318164
329,20,Ticks_Linear_8,24,1,48,62,1213094472
329,20,Ticks_Linear_8,25,5,42,127,1213117888
329,20,Ticks_Linear_8,26,5,42,127,1213908336
329,20,Ticks_Linear_8,27,1,48,66,1213917748
329,20,Ticks_Linear_8,28,1,48,63,1214689736
329,20,Ticks_Linear_8,29,5,42,127,1214697940
329,20,Ticks_Linear_8,30,5,42,127,1215488236
329,20,Ticks_Linear_8,31,1,48,62,1215489200
329,20,Ticks_Linear_8,32,1,48,62,1216275244
329,20,Ticks_Linear_8,33,5,42,127,1216278068
329,20,Ticks_Linear_8,34,1,48,64,1217056484
329,20,Ticks_Linear_8,35,5,42,127,1217068428
329,20,Ticks_Linear_8,36,5,42,127,1217847568
329,20,Ticks_Linear_8,37,1,48,67,1217850308
329,20,Ticks_Linear_8,38,5,42,127,1218628220
329,20,Ticks_Linear_8,39,1,48,61,1218661068
329,20,Ticks_Linear_8,40,5,42,127,1219408172
329,20,Ticks_Linear_8,41,1,48,64,1219420128
329,20,Ticks_Linear_8,42,1,48,68,1220174068
329,20,Ticks_Linear_8,43,5,42,127,1220187448
329,20,Ticks_Linear_8,44,1,48,67,1220962260
329,20,Ticks_Linear_8,45,5,42,127,1220967776
329,20,Ticks_Linear_8,46,1,48,63,1221726948
329,20,Ticks_Linear_8,47,5,42,127,1221737992
329,20,Ticks_Linear_8,48,1,48,65,1222494608
329,20,Ticks_Linear_8,49,5,42,127,1222507836
329,20,Ticks_Linear_8,50,1,48,62,1223264676
329,20,Ticks_Linear_8,51,5,42,127,1223278056
329,20,Ticks_Linear_8,52,1,48,66,1224040668
329,20,Ticks_Linear_8,53,5,42,127,1224047900
329,20,Ticks_Linear_8,54,1,48,60,1224798680
329,20,Ticks_Linear_8,55,5,42,127,1224818044
329,20,Ticks_Linear_8,56,5,42,127,1225577932
329,20,Ticks_Linear_8,57,1,48,67,1225583292
329,20,Ticks_Linear_8,58,5,42,127,1226337744
329,20,Ticks_Linear_8,59,1,48,69,1226358840
329,20,Ticks_Linear_8,60,5,42,127,1227097624
329,20,Ticks_Linear_8,61,1,48,65,1227119168
329,20,Ticks_Linear_8,62,5,42,127,1227858332
329,20,Ticks_Linear_8,63,1,48,65,1227865872
329,20,Ticks_Linear_8,64,1,48,66,1228601064
329,20,Ticks_Linear_8,65,5,42,127,1228617984
329,20,Ticks_Linear_8,66,1,48,67,1229367664
329,20,Ticks_Linear_8,67,5,42,127,1229369380
329,20,Ticks_Linear_8,68,1,48,64,1230100764
329,20,Ticks_Linear_8,69,5,42,127,1230118180
329,20,Ticks_Linear_8,70,5,42,127,1230867884
329,20,Ticks_Linear_8,71,1,48,76,1230886360
329,20,Ticks_Linear_8,72,1,48,66,1231611764
329,20,Ticks_Linear_8,73,5,42,127,1231618624
329,20,Ticks_Linear_8,74,5,42,127,1232378368
329,20,Ticks_Linear_8,75,1,48,66,1232388308
329,20,Ticks_Linear_8,76,5,42,127,1233117508
329,20,Ticks_Linear_8,77,1,48,64,1233144356
329,20,Ticks_Linear_8,78,1,48,65,1233853368
329,20,Ticks_Linear_8,79,5,42,127,1233858060
329,20,Ticks_Linear_8,80,1,48,64,1234588028
329,20,Ticks_Linear_8,81,5,42,127,1234598248
329,20,Ticks_Linear_8,82,1,48,68,1235331728
329,20,Ticks_Linear_8,83,5,42,127,1235337616
329,20,Ticks_Linear_8,84,1,48,62,1236068100
329,20,Ticks_Linear_8,85,5,42,127,1236077952
329,20,Ticks_Linear_8,86,1,48,66,1236768128
329,20,Ticks_Linear_8,87,5,42,127,1236808180
329,20,Ticks_Linear_8,88,1,48,65,1237528380
329,20,Ticks_Linear_8,89,5,42,127,1237538156
329,20,Ticks_Linear_8,90,1,48,67,1238255680
329,20,Ticks_Linear_8,91,5,42,127,1238268308
329,20,Ticks_Linear_8,92,5,42,127,1238998320
329,20,Ticks_Linear_8,93,1,48,60,1239011024
329,20,Ticks_Linear_8,94,1,48,64,1239712992
329,20,Ticks_Linear_8,95,5,42,127,1239727348
329,20,Ticks_Linear_8,96,5,42,127,1240448368
329,20,Ticks_Linear_8,97,1,48,58,1240455228
329,20,Ticks_Linear_8,98,1,48,65,1241165208
329,20,Ticks_Linear_8,99,5,42,127,1241168180
329,20,Ticks_Linear_8,100,5,42,127,1241887980
329,20,Ticks_Linear_8,101,1,48,62,1241891024
329,20,Ticks_Linear_8,102,5,42,127,1242607876
329,20,Ticks_Linear_8,103,1,48,65,1242619984
329,20,Ticks_Linear_8,104,5,42,127,1243328068
329,20,Ticks_Linear_8,105,1,48,63,1243340396
329,20,Ticks_Linear_8,106,5,42,127,1244037404
329,20,Ticks_Linear_8,107,1,48,65,1244043060
329,20,Ticks_Linear_8,108,5,42,127,1244748160
329,20,Ticks_Linear_8,109,1,48,61,1244767160
329,20,Ticks_Linear_8,110,1,48,64,1245440868
329,20,Ticks_Linear_8,111,5,42,127,1245457764
329,20,Ticks_Linear_8,112,5,42,127,1246168376
329,20,Ticks_Linear_8,113,1,48,59,1246197036
329,20,Ticks_Linear_8,114,5,42,127,1246888272
329,20,Ticks_Linear_8,115,1,48,63,1246900900
329,20,Ticks_Linear_8,116,5,42,127,1247587720
329,20,Ticks_Linear_8,117,1,48,62,1247619300
329,20,Ticks_Linear_8,118,5,42,127,1248288044
329,20,Ticks_Linear_8,119,1,48,64,1248320316
329,20,Ticks_Linear_8,120,5,42,127,1248987720
329,20,Ticks_Linear_8,121,1,48,64,1248989288
329,20,Ticks_Linear_8,122,1,48,68,1249683144
329,20,Ticks_Linear_8,123,5,42,127,1249687912
329,20,Ticks_Linear_8,124,1,48,60,1250369872
329,20,Ticks_Linear_8,125,5,42,127,1250388632
329,20,Ticks_Linear_8,126,5,42,127,1251077580
329,20,Ticks_Linear_8,127,1,48,64,1251082792
329,20,Ticks_Linear_8,128,1,48,66,1251762076
329,20,Ticks_Linear_8,129,5,42,127,1251767664
329,20,Ticks_Linear_8,130,1,48,64,1252440708
329,20,Ticks_Linear_8,131,5,42,127,1252457828
329,20,Ticks_Linear_8,132,1,48,67,1253139160
329,20,Ticks_Linear_8,133,5,42,127,1253147964
329,20,Ticks_Linear_8,134,1,48,67,1253832612
329,20,Ticks_Linear_8,135,5,42,127,1253838204
329,20,Ticks_Linear_8,136,5,42,127,1254518336
329,20,Ticks_Linear_8,137,1,48,65,1254525644
329,20,Ticks_Linear_8,138,1,48,67,1255196100
329,20,Ticks_Linear_8,139,5,42,127,1255197912
329,20,Ticks_Linear_8,140,1,48,69,1255843764
329,20,Ticks_Linear_8,141,5,42,127,1255878040
329,20,Ticks_Linear_8,142,1,48,66,1256545996
329,20,Ticks_Linear_8,143,5,42,127,1256558020
329,20,Ticks_Linear_8,144,1,48,65,1257236548
329,20,Ticks_Linear_8,145,5,42,127,1257238420
329,20,Ticks_Linear_8,146,5,42,127,1257907628
329,20,Ticks_Linear_8,147,1,48,67,1257934552
329,20,Ticks_Linear_8,148,5,42,127,1258578392
329,20,Ticks_Linear_8,149,1,48,64,1258615352
329,20,Ticks_Linear_8,150,5,42,127,1259247940
329,20,Ticks_Linear_8,151,1,48,64,1259284376
329,20,Ticks_Linear_8,152,5,42,127,1259917660
329,20,Ticks_Linear_8,153,1,48,67,1259943688
329,20,Ticks_Linear_8,154,1,48,67,1260587268
329,20,Ticks_Linear_8,155,5,42,127,1260589292
329,20,Ticks_Linear_8,156,5,42,127,1261247860
329,20,Ticks_Linear_8,157,1,48,66,1261269256
329,20,Ticks_Linear_8,158,5,42,127,1261908220
329,20,Ticks_Linear_8,159,1,48,65,1261929236
329,20,Ticks_Linear_8,160,5,42,127,1262567804
329,20,Ticks_Linear_8,161,1,48,67,1262582744
329,20,Ticks_Linear_8,162,5,42,127,1263228384
329,20,Ticks_Linear_8,163,1,48,70,1263266480
329,20,Ticks_Linear_8,164,5,42,127,1263887672
329,20,Ticks_Linear_8,165,1,48,73,1263921940
329,20,Ticks_Linear_8,166,5,42,127,1264538140
329,20,Ticks_Linear_8,167,1,48,67,1264553016
329,20,Ticks_Linear_8,168,1,48,69,1265166000
329,20,Ticks_Linear_8,169,5,42,127,1265188208
329,20,Ticks_Linear_8,170,5,42,127,1265837340
329,20,Ticks_Linear_8,171,1,48,64,1265849672
329,20,Ticks_Linear_8,172,5,42,127,1266487888
329,20,Ticks_Linear_8,173,1,48,67,1266495116
329,20,Ticks_Linear_8,174,1,48,69,1267131096
329,20,Ticks_Linear_8,175,5,42,127,1267137808
329,20,Ticks_Linear_8,176,5,42,127,1267777952
329,20,Ticks_Linear_8,177,1,48,66,1267785480
329,20,Ticks_Linear_8,178,5,42,127,1268417840
329,20,Ticks_Linear_8,179,1,48,64,1268427624
329,20,Ticks_Linear_8,180,1,48,70,1269052008
329,20,Ticks_Linear_8,181,5,42,127,1269058044
329,20,Ticks_Linear_8,182,1,48,68,1269696348
329,20,Ticks_Linear_8,183,5,42,127,1269698008
329,20,Ticks_Linear_8,184,5,42,127,1270337856
329,20,Ticks_Linear_8,185,1,48,65,1270350560
329,20,Ticks_Linear_8,186,5,42,127,1270967784
329,20,Ticks_Linear_8,187,1,48,67,1270978920
329,20,Ticks_Linear_8,188,5,42,127,1271597564
329,20,Ticks_Linear_8,189,1,48,71,1271604272
329,20,Ticks_Linear_8,190,5,42,127,1272228192
329,20,Ticks_Linear_8,191,1,48,64,1272250560
329,20,Ticks_Linear_8,192,1,48,71,1272850132
329,20,Ticks_Linear_8,193,5,42,127,1272858112
329,20,Ticks_Linear_8,194,1,48,61,1273464724
329,20,Ticks_Linear_8,195,5,42,127,1273487768
329,20,Ticks_Linear_8,196,1,48,71,1274090168
329,20,Ticks_Linear_8,197,5,42,127,1274108188
329,20,Ticks_Linear_8,198,1,48,68,1274713156
329,20,Ticks_Linear_8,199,5,42,127,1274727732
329,20,Ticks_Linear_8,200,1,48,64,1275336276
329,20,Ticks_Linear_8,201,5,42,127,1275348672
329,20,Ticks_Linear_8,202,1,48,64,1275958668
329,20,Ticks_Linear_8,203,5,42,127,1275967772
329,20,Ticks_Linear_8,204,1,48,73,1276579680
329,20,Ticks_Linear_8,205,5,42,127,1276588636
329,20,Ticks_Linear_8,206,5,42,127,1277197752
329,20,Ticks_Linear_8,207,1,48,73,1277208816
329,20,Ticks_Linear_8,208,5,42,127,1277807940
329,20,Ticks_Linear_8,209,1,48,68,1277828436
329,20,Ticks_Linear_8,210,5,42,127,1278418396
329,20,Ticks_Linear_8,211,1,48,76,1278421512
329,20,Ticks_Linear_8,212,5,42,127,1279027508
329,20,Ticks_Linear_8,213,1,48,72,1279030576
329,20,Ticks_Linear_8,214,5,42,127,1279637916
329,20,Ticks_Linear_8,215,1,48,78,1279654284
329,20,Ticks_Linear_8,216,5,42,127,1280238040
329,20,Ticks_Linear_8,217,1,48,77,1280266024
329,20,Ticks_Linear_8,218,1,48,75,1280835580
329,20,Ticks_Linear_8,219,5,42,127,1280837960
329,20,Ticks_Linear_8,220,1,48,68,1281425760
329,20,Ticks_Linear_8,221,5,42,127,1281438152
329,20,Ticks_Linear_8,222,1,48,72,1282035008
329,20,Ticks_Linear_8,223,5,42,127,1282038352
329,20,Ticks_Linear_8,224,1,48,71,1282634408
329,20,Ticks_Linear_8,225,5,42,127,1282638352
329,20,Ticks_Linear_8,226,5,42,127,1283228296
329,20,Ticks_Linear_8,227,1,48,71,1283239208
329,20,Ticks_Linear_8,228,5,42,127,1283817716
329,20,Ticks_Linear_8,229,1,48,69,1283826004
329,20,Ticks_Linear_8,230,1,48,70,1284397496
329,20,Ticks_Linear_8,231,5,42,127,1284407672
329,20,Ticks_Linear_8,232,1,48,67,1284994120
329,20,Ticks_Linear_8,233,5,42,127,1284997388
329,20,Ticks_Linear_8,234,1,48,74,1285585928
329,20,Ticks_Linear_8,235,5,42,127,1285588376
329,20,Ticks_Linear_8,236,1,48,70,1286166856
329,20,Ticks_Linear_8,237,5,42,127,1286168500
329,20,Ticks_Linear_8,238,5,42,127,1286747396
329,20,Ticks_Linear_8,239,1,48,66,1286748360
329,20,Ticks_Linear_8,240,5,42,127,1287328120
329,20,Ticks_Linear_8,241,5,42,127,1287907744
329,20,Ticks_Linear_8,242,5,42,127,1288488272
329,20,Ticks_Linear_8,243,1,48,67,1288498804
329,20,Ticks_Linear_8,244,5,42,127,1289057792
329,20,Ticks_Linear_8,245,1,48,70,1289093480
329,20,Ticks_Linear_8,246,5,42,127,1289628032
329,20,Ticks_Linear_8,247,1,48,73,1289663048
329,20,Ticks_Linear_8,248,5,42,127,1290198276
329,20,Ticks_Linear_8,249,1,48,74,1290203412
329,20,Ticks_Linear_8,250,1,48,70,1290741064
329,20,Ticks_Linear_8,251,5,42,127,1290767912
329,20,Ticks_Linear_8,252,1,48,68,1291325400
329,20,Ticks_Linear_8,253,5,42,127,1291338036
329,20,Ticks_Linear_8,254,1,48,69,1291897648
329,20,Ticks_Linear_8,255,5,42,127,1291899288
329,20,Ticks_Linear_8,256,5,42,127,1292458380
329,20,Ticks_Linear_8,257,1,48,67,1292472508
329,20,Ticks_Linear_8,258,5,42,127,1293017396
329,20,Ticks_Linear_8,259,1,48,66,1293045816
329,20,Ticks_Linear_8,260,5,42,127,1293577528
329,20,Ticks_Linear_8,261,1,48,63,1293596596
329,20,Ticks_Linear_8,262,5,42,127,1294137908
329,20,Ticks_Linear_8,263,1,48,48,1294151584
329,20,Ticks_Linear_8,264,5,42,127,1294687712
329,20,Ticks_Linear_8,265,1,48,68,1294702736
329,20,Ticks_Linear_8,266,5,42,127,1295237660
329,20,Ticks_Linear_8,267,1,48,79,1295238628
329,20,Ticks_Linear_8,268,5,42,127,1295788360
329,20,Ticks_Linear_8,269,1,48,73,1295790296
329,20,Ticks_Linear_8,270,5,42,127,1296338308
329,20,Ticks_Linear_8,271,1,48,77,1296345256
329,20,Ticks_Linear_8,272,1,48,87,1296887052
329,20,Ticks_Linear_8,273,5,42,127,1296888928
329,20,Ticks_Linear_8,274,5,42,127,1297427800
329,20,Ticks_Linear_8,275,1,48,84,1297438860
329,20,Ticks_Linear_8,276,5,42,127,1297967488
329,20,Ticks_Linear_8,277,1,48,88,1297982688
329,20,Ticks_Linear_8,278,5,42,127,1298508028
329,20,Ticks_Linear_8,279,1,48,85,1298533684
329,20,Ticks_Linear_8,280,5,42,127,1299047788
329,20,Ticks_Linear_8,281,1,48,83,1299058852
329,20,Ticks_Linear_8,282,1,48,87,1299586956
329,20,Ticks_Linear_8,283,5,42,127,1299588744
329,20,Ticks_Linear_8,284,5,42,127,1300117884
329,20,Ticks_Linear_8,285,1,48,80,1300131560
329,20,Ticks_Linear_8,286,5,42,127,1300648508
329,20,Ticks_Linear_8,287,1,48,79,1300653944
329,20,Ticks_Linear_8,288,5,42,127,1301177716
329,20,Ticks_Linear_8,289,1,48,78,1301182928
329,20,Ticks_Linear_8,290,1,48,78,1301704544
329,20,Ticks_Linear_8,291,5,42,127,1301708412
329,20,Ticks_Linear_8,292,5,42,127,1302237480
329,20,Ticks_Linear_8,293,1,48,76,1302245384
329,20,Ticks_Linear_8,294,5,42,127,1302757624
329,20,Ticks_Linear_8,295,1,48,80,1302791444
329,20,Ticks_Linear_8,296,5,42,127,1303278064
329,20,Ticks_Linear_8,297,1,48,83,1303297440
329,20,Ticks_Linear_8,298,5,42,127,1303798356
329,20,Ticks_Linear_8,299,1,48,81,1303805064
329,20,Ticks_Linear_8,300,5,42,127,1304318200
329,20,Ticks_Linear_8,301,1,48,81,1304335556
329,20,Ticks_Linear_8,302,5,42,127,1304837448
329,20,Ticks_Linear_8,303,1,48,82,1304843784
329,20,Ticks_Linear_8,304,5,42,127,1305347408
329,20,Ticks_Linear_8,305,1,48,82,1305356968
329,20,Ticks_Linear_8,306,1,48,80,1305857284
329,20,Ticks_Linear_8,307,5,42,127,1305858856
329,20,Ticks_Linear_8,308,5,42,127,1306377588
329,20,Ticks_Linear_8,309,1,48,75,1306398232
329,20,Ticks_Linear_8,310,5,42,127,1306887544
329,20,Ticks_Linear_8,311,1,48,72,1306895220
329,20,Ticks_Linear_8,312,5,42,127,1307397432
329,20,Ticks_Linear_8,313,1,48,76,1307405572
329,20,Ticks_Linear_8,314,5,42,127,1307898324
329,20,Ticks_Linear_8,315,1,48,73,1307914544
329,20,Ticks_Linear_8,316,5,42,127,1308397952
329,20,Ticks_Linear_8,317,1,48,55,1308483916
329,20,Ticks_Linear_8,318,5,42,127,1308897652
329,20,Ticks_Linear_8,319,1,48,57,1308920688
329,20,Ticks_Linear_8,320,5,42,127,1309398396
329,20,Ticks_Linear_8,321,1,48,64,1309430720
329,20,Ticks_Linear_8,322,5,42,127,1309898248
329,20,Ticks_Linear_8,323,1,48,73,1309915216
329,20,Ticks_Linear_8,324,5,42,127,1310387540
329,20,Ticks_Linear_8,325,1,48,66,1310428332
329,20,Ticks_Linear_8,326,5,42,127,1310877952
329,20,Ticks_Linear_8,327,1,48,67,1310919116
329,20,Ticks_Linear_8,328,5,42,127,1311367468
329,20,Ticks_Linear_8,329,1,48,73,1311393800
329,20,Ticks_Linear_8,330,5,42,127,1311858104
329,20,Ticks_Linear_8,331,1,48,77,1311865556
329,20,Ticks_Linear_8,332,1,48,73,1312343820
329,20,Ticks_Linear_8,333,5,42,127,1312347692
329,20,Ticks_Linear_8,0,9999,9999,9999,1201785952
329,20,Ticks_Linear_8,1,9999,9999,9999,1202605168
329,20,Ticks_Linear_8,2,9999,9999,9999,1203425356
329,20,Ticks_Linear_8,3,9999,9999,9999,1204245620
329,20,Ticks_Linear_8,4,9999,9999,9999,1205065828
329,20,Ticks_Linear_8,5,9999,9999,9999,1205875820
329,20,Ticks_Linear_8,6,9999,9999,9999,1206685800
329,20,Ticks_Linear_8,7,9999,9999,9999,1207495780
329,20,Ticks_Linear_8,8,9999,9999,9999,1208305768
329,20,Ticks_Linear_8,9,9999,9999,9999,1209115748
329,20,Ticks_Linear_8,10,9999,9999,9999,1209915504
329,20,Ticks_Linear_8,11,9999,9999,9999,1210715224
329,20,Ticks_Linear_8,12,9999,9999,9999,1211515996
329,20,Ticks_Linear_8,13,9999,9999,9999,1212315716
329,20,Ticks_Linear_8,14,9999,9999,9999,1213115512
329,20,Ticks_Linear_8,15,9999,9999,9999,1213906032
329,20,Ticks_Linear_8,16,9999,9999,9999,1214695488
329,20,Ticks_Linear_8,17,9999,9999,9999,1215486008
329,20,Ticks_Linear_8,18,9999,9999,9999,1216275544
329,20,Ticks_Linear_8,19,9999,9999,9999,1217066052
329,20,Ticks_Linear_8,20,9999,9999,9999,1217845340
329,20,Ticks_Linear_8,21,9999,9999,9999,1218625620
329,20,Ticks_Linear_8,22,9999,9999,9999,1219405948
329,20,Ticks_Linear_8,23,9999,9999,9999,1220185148
329,20,Ticks_Linear_8,24,9999,9999,9999,1220965476
329,20,Ticks_Linear_8,25,9999,9999,9999,1221735544
329,20,Ticks_Linear_8,26,9999,9999,9999,1222505536
329,20,Ticks_Linear_8,27,9999,9999,9999,1223275604
329,20,Ticks_Linear_8,28,9999,9999,9999,1224045672
329,20,Ticks_Linear_8,29,9999,9999,9999,1224815740
329,20,Ticks_Linear_8,30,9999,9999,9999,1225575484
329,20,Ticks_Linear_8,31,9999,9999,9999,1226335292
329,20,Ticks_Linear_8,32,9999,9999,9999,1227095100
329,20,Ticks_Linear_8,33,9999,9999,9999,1227855956
329,20,Ticks_Linear_8,34,9999,9999,9999,1228615756
329,20,Ticks_Linear_8,35,9999,9999,9999,1229365364
329,20,Ticks_Linear_8,36,9999,9999,9999,1230115952
329,20,Ticks_Linear_8,37,9999,9999,9999,1230865508
329,20,Ticks_Linear_8,38,9999,9999,9999,1231616104
329,20,Ticks_Linear_8,39,9999,9999,9999,1232375916
329,20,Ticks_Linear_8,40,9999,9999,9999,1233115204
329,20,Ticks_Linear_8,41,9999,9999,9999,1233855612
329,20,Ticks_Linear_8,42,9999,9999,9999,1234595948
329,20,Ticks_Linear_8,43,9999,9999,9999,1235335240
329,20,Ticks_Linear_8,44,9999,9999,9999,1236075576
329,20,Ticks_Linear_8,45,9999,9999,9999,1236805728
329,20,Ticks_Linear_8,46,9999,9999,9999,1237535856
329,20,Ticks_Linear_8,47,9999,9999,9999,1238265936
329,20,Ticks_Linear_8,48,9999,9999,9999,1238996092
329,20,Ticks_Linear_8,49,9999,9999,9999,1239725120
329,20,Ticks_Linear_8,50,9999,9999,9999,1240446064
329,20,Ticks_Linear_8,51,9999,9999,9999,1241165880
329,20,Ticks_Linear_8,52,9999,9999,9999,1241885756
329,20,Ticks_Linear_8,53,9999,9999,9999,1242605648
329,20,Ticks_Linear_8,54,9999,9999,9999,1243325544
329,20,Ticks_Linear_8,55,9999,9999,9999,1244035176
329,20,Ticks_Linear_8,56,9999,9999,9999,1244745784
329,20,Ticks_Linear_8,57,9999,9999,9999,1245455464
329,20,Ticks_Linear_8,58,9999,9999,9999,1246166076
329,20,Ticks_Linear_8,59,9999,9999,9999,1246885968
329,20,Ticks_Linear_8,60,9999,9999,9999,1247585344
329,20,Ticks_Linear_8,61,9999,9999,9999,1248285820
329,20,Ticks_Linear_8,62,9999,9999,9999,1248985196
329,20,Ticks_Linear_8,63,9999,9999,9999,1249685612
329,20,Ticks_Linear_8,64,9999,9999,9999,1250386032
329,20,Ticks_Linear_8,65,9999,9999,9999,1251075132
329,20,Ticks_Linear_8,66,9999,9999,9999,1251765364
329,20,Ticks_Linear_8,67,9999,9999,9999,1252455524
329,20,Ticks_Linear_8,68,9999,9999,9999,1253145664
329,20,Ticks_Linear_8,69,9999,9999,9999,1253835900
329,20,Ticks_Linear_8,70,9999,9999,9999,1254515812
329,20,Ticks_Linear_8,71,9999,9999,9999,1255195712
329,20,Ticks_Linear_8,72,9999,9999,9999,1255875664
329,20,Ticks_Linear_8,73,9999,9999,9999,1256555644
329,20,Ticks_Linear_8,74,9999,9999,9999,1257235532
329,20,Ticks_Linear_8,75,9999,9999,9999,1257905252
329,20,Ticks_Linear_8,76,9999,9999,9999,1258575944
329,20,Ticks_Linear_8,77,9999,9999,9999,1259245636
329,20,Ticks_Linear_8,78,9999,9999,9999,1259915356
329,20,Ticks_Linear_8,79,9999,9999,9999,1260586100
329,20,Ticks_Linear_8,80,9999,9999,9999,1261245560
329,20,Ticks_Linear_8,81,9999,9999,9999,1261905992
329,20,Ticks_Linear_8,82,9999,9999,9999,1262565500
329,20,Ticks_Linear_8,83,9999,9999,9999,1263225932
329,20,Ticks_Linear_8,84,9999,9999,9999,1263885368
329,20,Ticks_Linear_8,85,9999,9999,9999,1264535616
329,20,Ticks_Linear_8,86,9999,9999,9999,1265185904
329,20,Ticks_Linear_8,87,9999,9999,9999,1265835116
329,20,Ticks_Linear_8,88,9999,9999,9999,1266485336
329,20,Ticks_Linear_8,89,9999,9999,9999,1267135580
329,20,Ticks_Linear_8,90,9999,9999,9999,1267775576
329,20,Ticks_Linear_8,91,9999,9999,9999,1268415612
329,20,Ticks_Linear_8,92,9999,9999,9999,1269055596
329,20,Ticks_Linear_8,93,9999,9999,9999,1269695564
329,20,Ticks_Linear_8,94,9999,9999,9999,1270335556
329,20,Ticks_Linear_8,95,9999,9999,9999,1270965332
329,20,Ticks_Linear_8,96,9999,9999,9999,1271595112
329,20,Ticks_Linear_8,97,9999,9999,9999,1272225892
329,20,Ticks_Linear_8,98,9999,9999,9999,1272855664
329,20,Ticks_Linear_8,99,9999,9999,9999,1273485392
329,20,Ticks_Linear_8,100,9999,9999,9999,1274105960
329,20,Ticks_Linear_8,101,9999,9999,9999,1274725432
329,20,Ticks_Linear_8,102,9999,9999,9999,1275345996
329,20,Ticks_Linear_8,103,9999,9999,9999,1275965544
329,20,Ticks_Linear_8,104,9999,9999,9999,1276586108
329,20,Ticks_Linear_8,105,9999,9999,9999,1277195376
329,20,Ticks_Linear_8,106,9999,9999,9999,1277805640
329,20,Ticks_Linear_8,107,9999,9999,9999,1278415944
329,20,Ticks_Linear_8,108,9999,9999,9999,1279025204
329,20,Ticks_Linear_8,109,9999,9999,9999,1279635540
329,20,Ticks_Linear_8,110,9999,9999,9999,1280235588
329,20,Ticks_Linear_8,111,9999,9999,9999,1280835656
329,20,Ticks_Linear_8,112,9999,9999,9999,1281435704
329,20,Ticks_Linear_8,113,9999,9999,9999,1282035828
329,20,Ticks_Linear_8,114,9999,9999,9999,1282635900
329,20,Ticks_Linear_8,115,9999,9999,9999,1283225700
329,20,Ticks_Linear_8,116,9999,9999,9999,1283815488
329,20,Ticks_Linear_8,117,9999,9999,9999,1284405368
329,20,Ticks_Linear_8,118,9999,9999,9999,1284995160
329,20,Ticks_Linear_8,119,9999,9999,9999,1285586000
329,20,Ticks_Linear_8,120,9999,9999,9999,1286165612
329,20,Ticks_Linear_8,121,9999,9999,9999,1286745168
329,20,Ticks_Linear_8,122,9999,9999,9999,1287325820
329,20,Ticks_Linear_8,123,9999,9999,9999,1287905372
329,20,Ticks_Linear_8,124,9999,9999,9999,1288485968
329,20,Ticks_Linear_8,125,9999,9999,9999,1289055340
329,20,Ticks_Linear_8,126,9999,9999,9999,1289625656
329,20,Ticks_Linear_8,127,9999,9999,9999,1290196048
329,20,Ticks_Linear_8,128,9999,9999,9999,1290765388
329,20,Ticks_Linear_8,129,9999,9999,9999,1291335732
329,20,Ticks_Linear_8,130,9999,9999,9999,1291895872
329,20,Ticks_Linear_8,131,9999,9999,9999,1292456008
329,20,Ticks_Linear_8,132,9999,9999,9999,1293015092
329,20,Ticks_Linear_8,133,9999,9999,9999,1293575228
329,20,Ticks_Linear_8,134,9999,9999,9999,1294135384
329,20,Ticks_Linear_8,135,9999,9999,9999,1294685260
329,20,Ticks_Linear_8,136,9999,9999,9999,1295235136
329,20,Ticks_Linear_8,137,9999,9999,9999,1295786056
329,20,Ticks_Linear_8,138,9999,9999,9999,1296335932
329,20,Ticks_Linear_8,139,9999,9999,9999,1296885880
329,20,Ticks_Linear_8,140,9999,9999,9999,1297425496
329,20,Ticks_Linear_8,141,9999,9999,9999,1297965112
329,20,Ticks_Linear_8,142,9999,9999,9999,1298505800
329,20,Ticks_Linear_8,143,9999,9999,9999,1299045488
329,20,Ticks_Linear_8,144,9999,9999,9999,1299585104
329,20,Ticks_Linear_8,145,9999,9999,9999,1300115584
329,20,Ticks_Linear_8,146,9999,9999,9999,1300645984
329,20,Ticks_Linear_8,147,9999,9999,9999,1301175416
329,20,Ticks_Linear_8,148,9999,9999,9999,1301705812
329,20,Ticks_Linear_8,149,9999,9999,9999,1302235252
329,20,Ticks_Linear_8,150,9999,9999,9999,1302755396
329,20,Ticks_Linear_8,151,9999,9999,9999,1303275612
329,20,Ticks_Linear_8,152,9999,9999,9999,1303795832
329,20,Ticks_Linear_8,153,9999,9999,9999,1304315976
329,20,Ticks_Linear_8,154,9999,9999,9999,1304835148
329,20,Ticks_Linear_8,155,9999,9999,9999,1305345108
329,20,Ticks_Linear_8,156,9999,9999,9999,1305856116
329,20,Ticks_Linear_8,157,9999,9999,9999,1306375284
329,20,Ticks_Linear_8,158,9999,9999,9999,1306885244
329,20,Ticks_Linear_8,159,9999,9999,9999,1307395128
329,20,Ticks_Linear_8,160,9999,9999,9999,1307895876
329,20,Ticks_Linear_8,161,9999,9999,9999,1308395576
329,20,Ticks_Linear_8,162,9999,9999,9999,1308895348
329,20,Ticks_Linear_8,163,9999,9999,9999,1309396096
329,20,Ticks_Linear_8,164,9999,9999,9999,1309895796
329,20,Ticks_Linear_8,165,9999,9999,9999,1310385240
329,20,Ticks_Linear_8,166,9999,9999,9999,1310875728
329,20,Ticks_Linear_8,167,9999,9999,9999,1311365244
329,20,Ticks_Linear_8,168,9999,9999,9999,1311855728
329,20,Ticks_Linear_8,169,9999,9999,9999,1312345164
3210,21,Ticks_Linear_5,0,5,42,127,1373902244
3210,21,Ticks_Linear_5,1,5,42,127,1374381300
3210,21,Ticks_Linear_5,2,5,42,127,1374861624
3210,21,Ticks_Linear_5,3,5,42,127,1375342096
3210,21,Ticks_Linear_5,4,5,42,127,1375822348
3210,21,Ticks_Linear_5,5,1,48,61,1375824944
3210,21,Ticks_Linear_5,6,1,48,61,1376289464
3210,21,Ticks_Linear_5,7,5,42,127,1376311632
3210,21,Ticks_Linear_5,8,1,48,60,1376756588
3210,21,Ticks_Linear_5,9,5,42,127,1376802168
3210,21,Ticks_Linear_5,10,1,48,59,1377241324
3210,21,Ticks_Linear_5,11,5,42,127,1377291680
3210,21,Ticks_Linear_5,12,1,48,63,1377758536
3210,21,Ticks_Linear_5,13,5,42,127,1377782244
3210,21,Ticks_Linear_5,14,1,48,60,1378247672
3210,21,Ticks_Linear_5,15,5,42,127,1378271536
3210,21,Ticks_Linear_5,16,1,48,60,1378744080
3210,21,Ticks_Linear_5,17,5,42,127,1378772208
3210,21,Ticks_Linear_5,18,1,48,60,1379249632
3210,21,Ticks_Linear_5,19,5,42,127,1379271980
3210,21,Ticks_Linear_5,20,1,48,60,1379738604
3210,21,Ticks_Linear_5,21,5,42,127,1379771904
3210,21,Ticks_Linear_5,22,1,48,59,1380238156
3210,21,Ticks_Linear_5,23,5,42,127,1380271604
3210,21,Ticks_Linear_5,24,1,48,59,1380741688
3210,21,Ticks_Linear_5,25,5,42,127,1380772204
3210,21,Ticks_Linear_5,26,1,48,63,1381248272
3210,21,Ticks_Linear_5,27,5,42,127,1381282088
3210,21,Ticks_Linear_5,28,1,48,62,1381758380
3210,21,Ticks_Linear_5,29,5,42,127,1381792048
3210,21,Ticks_Linear_5,30,1,48,61,1382283168
3210,21,Ticks_Linear_5,31,5,42,127,1382302008
3210,21,Ticks_Linear_5,32,1,48,61,1382803840
3210,21,Ticks_Linear_5,33,5,42,127,1382812040
3210,21,Ticks_Linear_5,34,1,48,61,1383313124
3210,21,Ticks_Linear_5,35,5,42,127,1383321852
3210,21,Ticks_Linear_5,36,1,48,65,1383825252
3210,21,Ticks_Linear_5,37,5,42,127,1383842148
3210,21,Ticks_Linear_5,38,1,48,64,1384323980
3210,21,Ticks_Linear_5,39,5,42,127,1384362216
3210,21,Ticks_Linear_5,40,1,48,59,1384863824
3210,21,Ticks_Linear_5,41,5,42,127,1384881460
3210,21,Ticks_Linear_5,42,1,48,56,1385397212
3210,21,Ticks_Linear_5,43,5,42,127,1385401900
3210,21,Ticks_Linear_5,44,1,48,58,1385910328
3210,21,Ticks_Linear_5,45,5,42,127,1385921896
3210,21,Ticks_Linear_5,46,1,48,57,1386429724
3210,21,Ticks_Linear_5,47,5,42,127,1386452596
3210,21,Ticks_Linear_5,48,1,48,55,1386967532
3210,21,Ticks_Linear_5,49,5,42,127,1386981728
3210,21,Ticks_Linear_5,50,1,48,54,1387486552
3210,21,Ticks_Linear_5,51,5,42,127,1387512056
3210,21,Ticks_Linear_5,52,1,48,54,1388034628
3210,21,Ticks_Linear_5,53,5,42,127,1388041564
3210,21,Ticks_Linear_5,54,5,42,127,1388571896
3210,21,Ticks_Linear_5,55,1,48,61,1388597652
3210,21,Ticks_Linear_5,56,1,48,58,1389094088
3210,21,Ticks_Linear_5,57,5,42,127,1389111752
3210,21,Ticks_Linear_5,58,1,48,62,1389617252
3210,21,Ticks_Linear_5,59,5,42,127,1389652640
3210,21,Ticks_Linear_5,60,1,48,61,1390163904
3210,21,Ticks_Linear_5,61,5,42,127,1390191880
3210,21,Ticks_Linear_5,62,1,48,57,1390718864
3210,21,Ticks_Linear_5,63,5,42,127,1390731572
3210,21,Ticks_Linear_5,64,1,48,54,1391261484
3210,21,Ticks_Linear_5,65,5,42,127,1391272456
3210,21,Ticks_Linear_5,66,1,48,58,1391805960
3210,21,Ticks_Linear_5,67,5,42,127,1391822404
3210,21,Ticks_Linear_5,68,1,48,58,1392352400
3210,21,Ticks_Linear_5,69,5,42,127,1392372204
3210,21,Ticks_Linear_5,70,1,48,58,1392893960
3210,21,Ticks_Linear_5,71,5,42,127,1392921856
3210,21,Ticks_Linear_5,72,1,48,57,1393449364
3210,21,Ticks_Linear_5,73,5,42,127,1393471828
3210,21,Ticks_Linear_5,74,1,48,60,1393994624
3210,21,Ticks_Linear_5,75,5,42,127,1394021704
3210,21,Ticks_Linear_5,76,1,48,59,1394549584
3210,21,Ticks_Linear_5,77,5,42,127,1394581912
3210,21,Ticks_Linear_5,78,1,48,56,1395139932
3210,21,Ticks_Linear_5,79,5,42,127,1395141972
3210,21,Ticks_Linear_5,80,5,42,127,1395702112
3210,21,Ticks_Linear_5,81,1,48,55,1395708972
3210,21,Ticks_Linear_5,82,5,42,127,1396262392
3210,21,Ticks_Linear_5,83,1,48,57,1396270636
3210,21,Ticks_Linear_5,84,5,42,127,1396822404
3210,21,Ticks_Linear_5,85,1,48,56,1396823368
3210,21,Ticks_Linear_5,86,1,48,56,1397388476
3210,21,Ticks_Linear_5,87,5,42,127,1397391668
3210,21,Ticks_Linear_5,88,1,48,58,1397949204
3210,21,Ticks_Linear_5,89,5,42,127,1397962208
3210,21,Ticks_Linear_5,90,1,48,54,1398524696
3210,21,Ticks_Linear_5,91,5,42,127,1398531332
3210,21,Ticks_Linear_5,92,1,48,51,1399084928
3210,21,Ticks_Linear_5,93,5,42,127,1399101824
3210,21,Ticks_Linear_5,94,1,48,62,1399664532
3210,21,Ticks_Linear_5,95,5,42,127,1399672216
3210,21,Ticks_Linear_5,96,5,42,127,1400251756
3210,21,Ticks_Linear_5,97,1,48,59,1400255548
3210,21,Ticks_Linear_5,98,1,48,58,1400823448
3210,21,Ticks_Linear_5,99,5,42,127,1400832252
3210,21,Ticks_Linear_5,100,1,48,53,1401385080
3210,21,Ticks_Linear_5,101,5,42,127,1401412104
3210,21,Ticks_Linear_5,102,1,48,56,1401982012
3210,21,Ticks_Linear_5,103,5,42,127,1401991408
3210,21,Ticks_Linear_5,104,5,42,127,1402572144
3210,21,Ticks_Linear_5,105,1,48,54,1402598920
3210,21,Ticks_Linear_5,106,1,48,55,1403153120
3210,21,Ticks_Linear_5,107,5,42,127,1403162072
3210,21,Ticks_Linear_5,108,1,48,55,1403715520
3210,21,Ticks_Linear_5,109,5,42,127,1403752036
3210,21,Ticks_Linear_5,110,1,48,55,1404321568
3210,21,Ticks_Linear_5,111,5,42,127,1404341828
3210,21,Ticks_Linear_5,112,1,48,55,1404901096
3210,21,Ticks_Linear_5,113,5,42,127,1404931316
3210,21,Ticks_Linear_5,114,5,42,127,1405522260
3210,21,Ticks_Linear_5,115,1,48,58,1405525900
3210,21,Ticks_Linear_5,116,5,42,127,1406122456
3210,21,Ticks_Linear_5,117,1,48,55,1406125204
3210,21,Ticks_Linear_5,118,5,42,127,1406722432
3210,21,Ticks_Linear_5,119,1,48,56,1406726820
3210,21,Ticks_Linear_5,120,1,48,53,1407312352
3210,21,Ticks_Linear_5,121,5,42,127,1407331784
3210,21,Ticks_Linear_5,122,5,42,127,1407931768
3210,21,Ticks_Linear_5,123,1,48,51,1407934588
3210,21,Ticks_Linear_5,124,1,48,53,1408517160
3210,21,Ticks_Linear_5,125,5,42,127,1408531880
3210,21,Ticks_Linear_5,126,5,42,127,1409142072
3210,21,Ticks_Linear_5,127,1,48,51,1409145188
3210,21,Ticks_Linear_5,128,1,48,52,1409739000
3210,21,Ticks_Linear_5,129,5,42,127,1409752300
3210,21,Ticks_Linear_5,130,1,48,51,1410336500
3210,21,Ticks_Linear_5,131,5,42,127,1410371992
3210,21,Ticks_Linear_5,132,1,48,50,1410975736
3210,21,Ticks_Linear_5,133,5,42,127,1410982448
3210,21,Ticks_Linear_5,134,5,42,127,1411591716
3210,21,Ticks_Linear_5,135,1,48,51,1411608760
3210,21,Ticks_Linear_5,136,1,48,50,1412183356
3210,21,Ticks_Linear_5,137,5,42,127,1412212152
3210,21,Ticks_Linear_5,138,1,48,51,1412817400
3210,21,Ticks_Linear_5,139,5,42,127,1412831596
3210,21,Ticks_Linear_5,140,1,48,54,1413440316
3210,21,Ticks_Linear_5,141,5,42,127,1413452040
3210,21,Ticks_Linear_5,142,5,42,127,1414071564
3210,21,Ticks_Linear_5,143,1,48,57,1414076704
3210,21,Ticks_Linear_5,144,5,42,127,1414692204
3210,21,Ticks_Linear_5,145,1,48,50,1414697420
3210,21,Ticks_Linear_5,146,1,48,51,1415292236
3210,21,Ticks_Linear_5,147,5,42,127,1415322004
3210,21,Ticks_Linear_5,148,1,48,52,1415922840
3210,21,Ticks_Linear_5,149,5,42,127,1415951636
3210,21,Ticks_Linear_5,150,1,48,51,1416568804
3210,21,Ticks_Linear_5,151,5,42,127,1416581364
3210,21,Ticks_Linear_5,152,5,42,127,1417212344
3210,21,Ticks_Linear_5,153,1,48,52,1417219740
3210,21,Ticks_Linear_5,154,5,42,127,1417842076
3210,21,Ticks_Linear_5,155,1,48,50,1417860628
3210,21,Ticks_Linear_5,156,1,48,48,1418462300
3210,21,Ticks_Linear_5,157,5,42,127,1418482180
3210,21,Ticks_Linear_5,158,1,48,47,1419072108
3210,21,Ticks_Linear_5,159,5,42,127,1419122172
3210,21,Ticks_Linear_5,160,1,48,48,1419726896
3210,21,Ticks_Linear_5,161,5,42,127,1419762212
3210,21,Ticks_Linear_5,162,5,42,127,1420402208
3210,21,Ticks_Linear_5,163,1,48,53,1420403172
3210,21,Ticks_Linear_5,164,5,42,127,1421042172
3210,21,Ticks_Linear_5,165,1,48,52,1421055548
3210,21,Ticks_Linear_5,166,5,42,127,1421692344
3210,21,Ticks_Linear_5,167,1,48,52,1421707068
3210,21,Ticks_Linear_5,168,5,42,127,1422341444
3210,21,Ticks_Linear_5,169,1,48,51,1422349812
3210,21,Ticks_Linear_5,170,1,48,50,1422982508
3210,21,Ticks_Linear_5,171,5,42,127,1422991608
3210,21,Ticks_Linear_5,172,1,48,53,1423614528
3210,21,Ticks_Linear_5,173,5,42,127,1423642056
3210,21,Ticks_Linear_5,174,5,42,127,1424292164
3210,21,Ticks_Linear_5,175,1,48,54,1424302996
3210,21,Ticks_Linear_5,176,5,42,127,1424951624
3210,21,Ticks_Linear_5,177,1,48,48,1424954964
3210,21,Ticks_Linear_5,178,1,48,48,1425595876
3210,21,Ticks_Linear_5,179,5,42,127,1425612096
3210,21,Ticks_Linear_5,180,1,48,47,1426250028
3210,21,Ticks_Linear_5,181,5,42,127,1426271480
3210,21,Ticks_Linear_5,182,1,48,51,1426930912
3210,21,Ticks_Linear_5,183,5,42,127,1426932560
3210,21,Ticks_Linear_5,184,5,42,127,1427591432
3210,21,Ticks_Linear_5,185,1,48,53,1427607728
3210,21,Ticks_Linear_5,186,5,42,127,1428262172
3210,21,Ticks_Linear_5,187,1,48,51,1428263508
3210,21,Ticks_Linear_5,188,1,48,54,1428921208
3210,21,Ticks_Linear_5,189,5,42,127,1428931956
3210,21,Ticks_Linear_5,190,1,48,54,1429567256
3210,21,Ticks_Linear_5,191,5,42,127,1429601676
3210,21,Ticks_Linear_5,192,1,48,49,1430268328
3210,21,Ticks_Linear_5,193,5,42,127,1430272344
3210,21,Ticks_Linear_5,194,5,42,127,1430942068
3210,21,Ticks_Linear_5,195,1,48,50,1430956272
3210,21,Ticks_Linear_5,196,1,48,48,1431618172
3210,21,Ticks_Linear_5,197,5,42,127,1431621964
3210,21,Ticks_Linear_5,198,5,42,127,1432301924
3210,21,Ticks_Linear_5,199,1,48,44,1432303336
3210,21,Ticks_Linear_5,200,5,42,127,1432981828
3210,21,Ticks_Linear_5,201,1,48,47,1432990048
3210,21,Ticks_Linear_5,202,1,48,48,1433658756
3210,21,Ticks_Linear_5,203,5,42,127,1433661800
3210,21,Ticks_Linear_5,204,1,48,44,1434313328
3210,21,Ticks_Linear_5,205,5,42,127,1434341680
3210,21,Ticks_Linear_5,206,1,48,42,1434996596
3210,21,Ticks_Linear_5,207,5,42,127,1435031988
3210,21,Ticks_Linear_5,208,1,48,45,1435701448
3210,21,Ticks_Linear_5,209,5,42,127,1435722156
3210,21,Ticks_Linear_5,210,1,48,50,1436412744
3210,21,Ticks_Linear_5,211,5,42,127,1436414088
3210,21,Ticks_Linear_5,212,5,42,127,1437101340
3210,21,Ticks_Linear_5,213,1,48,48,1437102304
3210,21,Ticks_Linear_5,214,5,42,127,1437791656
3210,21,Ticks_Linear_5,215,1,48,46,1437802716
3210,21,Ticks_Linear_5,216,1,48,46,1438457104
3210,21,Ticks_Linear_5,217,5,42,127,1438491968
3210,21,Ticks_Linear_5,218,1,48,46,1439190956
3210,21,Ticks_Linear_5,219,5,42,127,1439192760
3210,21,Ticks_Linear_5,220,5,42,127,1439902032
3210,21,Ticks_Linear_5,221,1,48,40,1439917728
3210,21,Ticks_Linear_5,222,5,42,127,1440601404
3210,21,Ticks_Linear_5,223,1,48,41,1440635748
3210,21,Ticks_Linear_5,224,1,48,43,1441271204
3210,21,Ticks_Linear_5,225,5,42,127,1441301872
3210,21,Ticks_Linear_5,226,1,48,43,1441988696
3210,21,Ticks_Linear_5,227,5,42,127,1442011656
3210,21,Ticks_Linear_5,228,1,48,42,1442709036
3210,21,Ticks_Linear_5,229,5,42,127,1442722412
3210,21,Ticks_Linear_5,230,1,48,44,1443426464
3210,21,Ticks_Linear_5,231,5,42,127,1443431748
3210,21,Ticks_Linear_5,232,5,42,127,1444141312
3210,21,Ticks_Linear_5,233,1,48,43,1444148544
3210,21,Ticks_Linear_5,234,5,42,127,1444852196
3210,21,Ticks_Linear_5,235,1,48,45,1444867148
3210,21,Ticks_Linear_5,236,1,48,47,1445569336
3210,21,Ticks_Linear_5,237,5,42,127,1445572228
3210,21,Ticks_Linear_5,238,1,48,45,1446279732
3210,21,Ticks_Linear_5,239,5,42,127,1446292048
3210,21,Ticks_Linear_5,240,5,42,127,1447011872
3210,21,Ticks_Linear_5,241,1,48,50,1447035064
3210,21,Ticks_Linear_5,242,5,42,127,1447731620
3210,21,Ticks_Linear_5,243,1,48,46,1447740060
3210,21,Ticks_Linear_5,244,1,48,48,1448425376
3210,21,Ticks_Linear_5,245,5,42,127,1448451408
3210,21,Ticks_Linear_5,246,1,48,48,1449161524
3210,21,Ticks_Linear_5,247,5,42,127,1449181708
3210,21,Ticks_Linear_5,248,1,48,54,1449898412
3210,21,Ticks_Linear_5,249,5,42,127,1449911860
3210,21,Ticks_Linear_5,250,1,48,51,1450630520
3210,21,Ticks_Linear_5,251,5,42,127,1450641936
3210,21,Ticks_Linear_5,252,1,48,47,1451335732
3210,21,Ticks_Linear_5,253,5,42,127,1451372016
3210,21,Ticks_Linear_5,254,1,48,48,1452093892
3210,21,Ticks_Linear_5,255,5,42,127,1452101872
3210,21,Ticks_Linear_5,256,5,42,127,1452842364
3210,21,Ticks_Linear_5,257,1,48,49,1452847052
3210,21,Ticks_Linear_5,258,5,42,127,1453581632
3210,21,Ticks_Linear_5,259,1,48,49,1453598596
3210,21,Ticks_Linear_5,260,5,42,127,1454322116
3210,21,Ticks_Linear_5,261,1,48,51,1454326808
3210,21,Ticks_Linear_5,262,5,42,127,1455062528
3210,21,Ticks_Linear_5,263,1,48,49,1455073664
3210,21,Ticks_Linear_5,264,1,48,48,1455799140
3210,21,Ticks_Linear_5,265,5,42,127,1455801812
3210,21,Ticks_Linear_5,266,1,48,50,1456542112
3210,21,Ticks_Linear_5,267,5,42,127,1456552480
3210,21,Ticks_Linear_5,268,1,48,51,1457248516
3210,21,Ticks_Linear_5,269,5,42,127,1457301884
3210,21,Ticks_Linear_5,270,1,48,49,1458029292
3210,21,Ticks_Linear_5,271,5,42,127,1458051656
3210,21,Ticks_Linear_5,272,5,42,127,1458802036
3210,21,Ticks_Linear_5,273,1,48,48,1458803752
3210,21,Ticks_Linear_5,274,1,48,47,1459545544
3210,21,Ticks_Linear_5,275,5,42,127,1459551580
3210,21,Ticks_Linear_5,276,1,48,45,1460304984
3210,21,Ticks_Linear_5,277,5,42,127,1460312364
3210,21,Ticks_Linear_5,278,1,48,48,1461078936
3210,21,Ticks_Linear_5,279,5,42,127,1461081684
3210,21,Ticks_Linear_5,280,5,42,127,1461842544
3210,21,Ticks_Linear_5,281,1,48,50,1461845144
3210,21,Ticks_Linear_5,282,5,42,127,1462602056
3210,21,Ticks_Linear_5,283,1,48,50,1462607492
3210,21,Ticks_Linear_5,284,5,42,127,1463361868
3210,21,Ticks_Linear_5,285,1,48,47,1463380420
3210,21,Ticks_Linear_5,286,1,48,52,1464113316
3210,21,Ticks_Linear_5,287,5,42,127,1464132076
3210,21,Ticks_Linear_5,288,1,48,54,1464874100
3210,21,Ticks_Linear_5,289,5,42,127,1464902292
3210,21,Ticks_Linear_5,290,1,48,54,1465654648
3210,21,Ticks_Linear_5,291,5,42,127,1465672212
3210,21,Ticks_Linear_5,292,1,48,52,1466433400
3210,21,Ticks_Linear_5,293,5,42,127,1466442132
3210,21,Ticks_Linear_5,294,1,48,56,1467204216
3210,21,Ticks_Linear_5,295,5,42,127,1467212572
3210,21,Ticks_Linear_5,296,5,42,127,1467992384
3210,21,Ticks_Linear_5,297,1,48,51,1467996020
3210,21,Ticks_Linear_5,298,5,42,127,1468782144
3210,21,Ticks_Linear_5,299,1,48,48,1468790288
3210,21,Ticks_Linear_5,300,1,48,52,1469551120
3210,21,Ticks_Linear_5,301,5,42,127,1469562092
3210,21,Ticks_Linear_5,302,1,48,50,1470328816
3210,21,Ticks_Linear_5,303,5,42,127,1470341376
3210,21,Ticks_Linear_5,304,5,42,127,1471121928
3210,21,Ticks_Linear_5,305,1,48,54,1471135908
3210,21,Ticks_Linear_5,306,1,48,53,1471901312
3210,21,Ticks_Linear_5,307,5,42,127,1471912212
3210,21,Ticks_Linear_5,308,1,48,53,1472655724
3210,21,Ticks_Linear_5,309,5,42,127,1472701748
3210,21,Ticks_Linear_5,310,1,48,54,1473468848
3210,21,Ticks_Linear_5,311,5,42,127,1473492408
3210,21,Ticks_Linear_5,312,1,48,53,1474275164
3210,21,Ticks_Linear_5,313,5,42,127,1474281800
3210,21,Ticks_Linear_5,314,5,42,127,1475072316
3210,21,Ticks_Linear_5,315,1,48,52,1475074908
3210,21,Ticks_Linear_5,316,1,48,45,1475870756
3210,21,Ticks_Linear_5,317,5,42,127,1475872404
3210,21,Ticks_Linear_5,318,5,42,127,1476671936
3210,21,Ticks_Linear_5,319,1,48,50,1476689356
3210,21,Ticks_Linear_5,320,5,42,127,1477471588
3210,21,Ticks_Linear_5,321,1,48,50,1477474104
3210,21,Ticks_Linear_5,322,5,42,127,1478272580
3210,21,Ticks_Linear_5,323,1,48,50,1478298764
3210,21,Ticks_Linear_5,324,1,48,48,1479070716
3210,21,Ticks_Linear_5,325,5,42,127,1479072596
3210,21,Ticks_Linear_5,326,1,48,51,1479862548
3210,21,Ticks_Linear_5,327,5,42,127,1479881984
3210,21,Ticks_Linear_5,328,1,48,45,1480692268
3210,21,Ticks_Linear_5,329,5,42,127,1480693756
3210,21,Ticks_Linear_5,330,5,42,127,1481502104
3210,21,Ticks_Linear_5,331,1,48,46,1481509856
3210,21,Ticks_Linear_5,332,1,48,44,1482311940
3210,21,Ticks_Linear_5,333,5,42,127,1482313500
3210,21,Ticks_Linear_5,334,5,42,127,1483121996
3210,21,Ticks_Linear_5,335,1,48,46,1483128404
3210,21,Ticks_Linear_5,0,9999,9999,9999,1373899872
3210,21,Ticks_Linear_5,1,9999,9999,9999,1374379076
3210,21,Ticks_Linear_5,2,9999,9999,9999,1374859324
3210,21,Ticks_Linear_5,3,9999,9999,9999,1375339576
3210,21,Ticks_Linear_5,4,9999,9999,9999,1375819896
3210,21,Ticks_Linear_5,5,9999,9999,9999,1376309332
3210,21,Ticks_Linear_5,6,9999,9999,9999,1376799872
3210,21,Ticks_Linear_5,7,9999,9999,9999,1377289308
3210,21,Ticks_Linear_5,8,9999,9999,9999,1377779796
3210,21,Ticks_Linear_5,9,9999,9999,9999,1378269312
3210,21,Ticks_Linear_5,10,9999,9999,9999,1378769984
3210,21,Ticks_Linear_5,11,9999,9999,9999,1379269756
3210,21,Ticks_Linear_5,12,9999,9999,9999,1379769456
3210,21,Ticks_Linear_5,13,9999,9999,9999,1380269160
3210,21,Ticks_Linear_5,14,9999,9999,9999,1380769904
3210,21,Ticks_Linear_5,15,9999,9999,9999,1381279864
3210,21,Ticks_Linear_5,16,9999,9999,9999,1381789752
3210,21,Ticks_Linear_5,17,9999,9999,9999,1382299708
3210,21,Ticks_Linear_5,18,9999,9999,9999,1382809668
3210,21,Ticks_Linear_5,19,9999,9999,9999,1383319628
3210,21,Ticks_Linear_5,20,9999,9999,9999,1383839848
3210,21,Ticks_Linear_5,21,9999,9999,9999,1384359992
3210,21,Ticks_Linear_5,22,9999,9999,9999,1384879164
3210,21,Ticks_Linear_5,23,9999,9999,9999,1385399380
3210,21,Ticks_Linear_5,24,9999,9999,9999,1385919596
3210,21,Ticks_Linear_5,25,9999,9999,9999,1386450000
3210,21,Ticks_Linear_5,26,9999,9999,9999,1386979432
3210,21,Ticks_Linear_5,27,9999,9999,9999,1387509832
3210,21,Ticks_Linear_5,28,9999,9999,9999,1388039264
3210,21,Ticks_Linear_5,29,9999,9999,9999,1388569672
3210,21,Ticks_Linear_5,30,9999,9999,9999,1389109308
3210,21,Ticks_Linear_5,31,9999,9999,9999,1389650044
3210,21,Ticks_Linear_5,32,9999,9999,9999,1390189656
3210,21,Ticks_Linear_5,33,9999,9999,9999,1390729276
3210,21,Ticks_Linear_5,34,9999,9999,9999,1391270008
3210,21,Ticks_Linear_5,35,9999,9999,9999,1391819884
3210,21,Ticks_Linear_5,36,9999,9999,9999,1392369760
3210,21,Ticks_Linear_5,37,9999,9999,9999,1392919632
3210,21,Ticks_Linear_5,38,9999,9999,9999,1393469532
3210,21,Ticks_Linear_5,39,9999,9999,9999,1394019404
3210,21,Ticks_Linear_5,40,9999,9999,9999,1394579540
3210,21,Ticks_Linear_5,41,9999,9999,9999,1395139712
3210,21,Ticks_Linear_5,42,9999,9999,9999,1395699812
3210,21,Ticks_Linear_5,43,9999,9999,9999,1396259948
3210,21,Ticks_Linear_5,44,9999,9999,9999,1396820028
3210,21,Ticks_Linear_5,45,9999,9999,9999,1397389368
3210,21,Ticks_Linear_5,46,9999,9999,9999,1397959760
3210,21,Ticks_Linear_5,47,9999,9999,9999,1398529108
3210,21,Ticks_Linear_5,48,9999,9999,9999,1399099452
3210,21,Ticks_Linear_5,49,9999,9999,9999,1399669844
3210,21,Ticks_Linear_5,50,9999,9999,9999,1400249456
3210,21,Ticks_Linear_5,51,9999,9999,9999,1400830028
3210,21,Ticks_Linear_5,52,9999,9999,9999,1401409656
3210,21,Ticks_Linear_5,53,9999,9999,9999,1401989184
3210,21,Ticks_Linear_5,54,9999,9999,9999,1402569844
3210,21,Ticks_Linear_5,55,9999,9999,9999,1403159628
3210,21,Ticks_Linear_5,56,9999,9999,9999,1403749440
3210,21,Ticks_Linear_5,57,9999,9999,9999,1404339304
3210,21,Ticks_Linear_5,58,9999,9999,9999,1404929096
3210,21,Ticks_Linear_5,59,9999,9999,9999,1405519960
3210,21,Ticks_Linear_5,60,9999,9999,9999,1406120008
3210,21,Ticks_Linear_5,61,9999,9999,9999,1406720060
3210,21,Ticks_Linear_5,62,9999,9999,9999,1407329340
3210,21,Ticks_Linear_5,63,9999,9999,9999,1407929468
3210,21,Ticks_Linear_5,64,9999,9999,9999,1408529508
3210,21,Ticks_Linear_5,65,9999,9999,9999,1409139772
3210,21,Ticks_Linear_5,66,9999,9999,9999,1409750076
3210,21,Ticks_Linear_5,67,9999,9999,9999,1410369620
3210,21,Ticks_Linear_5,68,9999,9999,9999,1410979924
3210,21,Ticks_Linear_5,69,9999,9999,9999,1411589192
3210,21,Ticks_Linear_5,70,9999,9999,9999,1412209780
3210,21,Ticks_Linear_5,71,9999,9999,9999,1412829300
3210,21,Ticks_Linear_5,72,9999,9999,9999,1413449816
3210,21,Ticks_Linear_5,73,9999,9999,9999,1414069340
3210,21,Ticks_Linear_5,74,9999,9999,9999,1414689908
3210,21,Ticks_Linear_5,75,9999,9999,9999,1415319632
3210,21,Ticks_Linear_5,76,9999,9999,9999,1415949412
3210,21,Ticks_Linear_5,77,9999,9999,9999,1416579140
3210,21,Ticks_Linear_5,78,9999,9999,9999,1417209972
3210,21,Ticks_Linear_5,79,9999,9999,9999,1417839704
3210,21,Ticks_Linear_5,80,9999,9999,9999,1418479736
3210,21,Ticks_Linear_5,81,9999,9999,9999,1419119724
3210,21,Ticks_Linear_5,82,9999,9999,9999,1419759688
3210,21,Ticks_Linear_5,83,9999,9999,9999,1420399684
3210,21,Ticks_Linear_5,84,9999,9999,9999,1421039724
3210,21,Ticks_Linear_5,85,9999,9999,9999,1421689968
3210,21,Ticks_Linear_5,86,9999,9999,9999,1422339148
3210,21,Ticks_Linear_5,87,9999,9999,9999,1422989384
3210,21,Ticks_Linear_5,88,9999,9999,9999,1423639608
3210,21,Ticks_Linear_5,89,9999,9999,9999,1424289864
3210,21,Ticks_Linear_5,90,9999,9999,9999,1424949324
3210,21,Ticks_Linear_5,91,9999,9999,9999,1425609800
3210,21,Ticks_Linear_5,92,9999,9999,9999,1426269260
3210,21,Ticks_Linear_5,93,9999,9999,9999,1426929744
3210,21,Ticks_Linear_5,94,9999,9999,9999,1427589204
3210,21,Ticks_Linear_5,95,9999,9999,9999,1428259948
3210,21,Ticks_Linear_5,96,9999,9999,9999,1428929660
3210,21,Ticks_Linear_5,97,9999,9999,9999,1429599304
3210,21,Ticks_Linear_5,98,9999,9999,9999,1430270044
3210,21,Ticks_Linear_5,99,9999,9999,9999,1430939768
3210,21,Ticks_Linear_5,100,9999,9999,9999,1431619668
3210,21,Ticks_Linear_5,101,9999,9999,9999,1432299628
3210,21,Ticks_Linear_5,102,9999,9999,9999,1432979528
3210,21,Ticks_Linear_5,103,9999,9999,9999,1433659500
3210,21,Ticks_Linear_5,104,9999,9999,9999,1434339456
3210,21,Ticks_Linear_5,105,9999,9999,9999,1435029616
3210,21,Ticks_Linear_5,106,9999,9999,9999,1435719780
3210,21,Ticks_Linear_5,107,9999,9999,9999,1436409924
3210,21,Ticks_Linear_5,108,9999,9999,9999,1437099116
3210,21,Ticks_Linear_5,109,9999,9999,9999,1437789280
3210,21,Ticks_Linear_5,110,9999,9999,9999,1438489672
3210,21,Ticks_Linear_5,111,9999,9999,9999,1439190100
3210,21,Ticks_Linear_5,112,9999,9999,9999,1439899732
3210,21,Ticks_Linear_5,113,9999,9999,9999,1440599108
3210,21,Ticks_Linear_5,114,9999,9999,9999,1441299572
3210,21,Ticks_Linear_5,115,9999,9999,9999,1442009208
3210,21,Ticks_Linear_5,116,9999,9999,9999,1442719816
3210,21,Ticks_Linear_5,117,9999,9999,9999,1443429448
3210,21,Ticks_Linear_5,118,9999,9999,9999,1444139088
3210,21,Ticks_Linear_5,119,9999,9999,9999,1444849748
3210,21,Ticks_Linear_5,120,9999,9999,9999,1445569632
3210,21,Ticks_Linear_5,121,9999,9999,9999,1446289528
3210,21,Ticks_Linear_5,122,9999,9999,9999,1447009352
3210,21,Ticks_Linear_5,123,9999,9999,9999,1447729244
3210,21,Ticks_Linear_5,124,9999,9999,9999,1448449108
3210,21,Ticks_Linear_5,125,9999,9999,9999,1449179260
3210,21,Ticks_Linear_5,126,9999,9999,9999,1449909340
3210,21,Ticks_Linear_5,127,9999,9999,9999,1450639416
3210,21,Ticks_Linear_5,128,9999,9999,9999,1451369572
3210,21,Ticks_Linear_5,129,9999,9999,9999,1452099648
3210,21,Ticks_Linear_5,130,9999,9999,9999,1452839992
3210,21,Ticks_Linear_5,131,9999,9999,9999,1453579332
3210,21,Ticks_Linear_5,132,9999,9999,9999,1454319744
3210,21,Ticks_Linear_5,133,9999,9999,9999,1455060080
3210,21,Ticks_Linear_5,134,9999,9999,9999,1455799364
3210,21,Ticks_Linear_5,135,9999,9999,9999,1456549960
3210,21,Ticks_Linear_5,136,9999,9999,9999,1457299508
3210,21,Ticks_Linear_5,137,9999,9999,9999,1458049132
3210,21,Ticks_Linear_5,138,9999,9999,9999,1458799736
3210,21,Ticks_Linear_5,139,9999,9999,9999,1459549280
3210,21,Ticks_Linear_5,140,9999,9999,9999,1460310140
3210,21,Ticks_Linear_5,141,9999,9999,9999,1461079160
3210,21,Ticks_Linear_5,142,9999,9999,9999,1461839948
3210,21,Ticks_Linear_5,143,9999,9999,9999,1462599760
3210,21,Ticks_Linear_5,144,9999,9999,9999,1463359568
3210,21,Ticks_Linear_5,145,9999,9999,9999,1464129632
3210,21,Ticks_Linear_5,146,9999,9999,9999,1464899700
3210,21,Ticks_Linear_5,147,9999,9999,9999,1465669692
3210,21,Ticks_Linear_5,148,9999,9999,9999,1466439760
3210,21,Ticks_Linear_5,149,9999,9999,9999,1467209824
3210,21,Ticks_Linear_5,150,9999,9999,9999,1467990084
3210,21,Ticks_Linear_5,151,9999,9999,9999,1468779624
3210,21,Ticks_Linear_5,152,9999,9999,9999,1469559868
3210,21,Ticks_Linear_5,153,9999,9999,9999,1470339152
3210,21,Ticks_Linear_5,154,9999,9999,9999,1471119480
3210,21,Ticks_Linear_5,155,9999,9999,9999,1471909988
3210,21,Ticks_Linear_5,156,9999,9999,9999,1472699452
3210,21,Ticks_Linear_5,157,9999,9999,9999,1473490036
3210,21,Ticks_Linear_5,158,9999,9999,9999,1474279500
3210,21,Ticks_Linear_5,159,9999,9999,9999,1475070020
3210,21,Ticks_Linear_5,160,9999,9999,9999,1475869816
3210,21,Ticks_Linear_5,161,9999,9999,9999,1476669564
3210,21,Ticks_Linear_5,162,9999,9999,9999,1477469288
3210,21,Ticks_Linear_5,163,9999,9999,9999,1478270060
3210,21,Ticks_Linear_5,164,9999,9999,9999,1479069784
3210,21,Ticks_Linear_5,165,9999,9999,9999,1479879760
3210,21,Ticks_Linear_5,166,9999,9999,9999,1480689748
3210,21,Ticks_Linear_5,167,9999,9999,9999,1481499732
3210,21,Ticks_Linear_5,168,9999,9999,9999,1482309716
3210,21,Ticks_Linear_5,169,9999,9999,9999,1483119696
3211,24,Jits_Pract_8,0,5,56,103,1581338092
3211,24,Jits_Pract_8,1,5,63,98,1581341116
3211,24,Jits_Pract_8,2,5,80,127,1581344188
3211,24,Jits_Pract_8,0,5,56,103,1582137904
3211,24,Jits_Pract_8,1,5,63,98,1582140780
3211,24,Jits_Pract_8,2,5,80,127,1582143828
3211,24,Jits_Pract_8,0,5,80,127,1582878224
3211,24,Jits_Pract_8,1,5,63,98,1582968136
3211,24,Jits_Pract_8,2,5,56,103,1582978556
3211,24,Jits_Pract_8,0,5,56,103,1583698412
3211,24,Jits_Pract_8,1,5,63,98,1583707488
3211,24,Jits_Pract_8,2,5,80,127,1583797988
3211,24,Jits_Pract_8,0,5,63,98,1584468252
3211,24,Jits_Pract_8,1,5,80,127,1584498004
3211,24,Jits_Pract_8,2,5,56,103,1584527828
3211,24,Jits_Pract_8,0,5,56,103,1585268044
3211,24,Jits_Pract_8,1,5,80,127,1585368440
3211,24,Jits_Pract_8,2,5,63,98,1585417816
3211,24,Jits_Pract_8,0,5,56,103,1586068000
3211,24,Jits_Pract_8,1,5,80,127,1586117980
3211,24,Jits_Pract_8,2,5,63,98,1586157992
3211,24,Jits_Pract_8,0,5,80,127,1586898152
3211,24,Jits_Pract_8,1,5,63,98,1586927976
3211,24,Jits_Pract_8,2,5,56,103,1586997828
3211,24,Jits_Pract_8,0,5,63,98,1587727632
3211,24,Jits_Pract_8,1,5,56,103,1587757628
3211,24,Jits_Pract_8,2,5,80,127,1587817792
3211,24,Jits_Pract_8,0,5,56,103,1588468084
3211,24,Jits_Pract_8,1,5,80,127,1588471224
3211,24,Jits_Pract_8,2,5,63,98,1588587832
3211,24,Jits_Pract_8,0,5,56,103,1589347628
3211,24,Jits_Pract_8,1,5,80,127,1589387716
3211,24,Jits_Pract_8,2,5,63,98,1589397760
3211,24,Jits_Pract_8,0,5,56,103,1590107804
3211,24,Jits_Pract_8,1,5,80,127,1590127964
3211,24,Jits_Pract_8,2,5,63,98,1590207908
3211,24,Jits_Pract_8,0,5,80,127,1590898028
3211,24,Jits_Pract_8,1,5,56,103,1590998496
3211,24,Jits_Pract_8,2,5,63,98,1591007720
3211,24,Jits_Pract_8,0,5,63,98,1591667944
3211,24,Jits_Pract_8,1,5,80,127,1591727736
3211,24,Jits_Pract_8,2,5,56,103,1591737708
3211,24,Jits_Pract_8,0,5,56,103,1592467736
3211,24,Jits_Pract_8,1,5,63,98,1592537416
3211,24,Jits_Pract_8,2,5,80,127,1592540856
3211,24,Jits_Pract_8,0,9999,9999,9999,1581736048
3211,24,Jits_Pract_8,1,9999,9999,9999,1582535764
3211,24,Jits_Pract_8,2,9999,9999,9999,1583335500
3211,24,Jits_Pract_8,3,9999,9999,9999,1584135232
3211,24,Jits_Pract_8,4,9999,9999,9999,1584936032
3211,24,Jits_Pract_8,5,9999,9999,9999,1585735756
3211,24,Jits_Pract_8,6,9999,9999,9999,1586535484
3211,24,Jits_Pract_8,7,9999,9999,9999,1587335220
3211,24,Jits_Pract_8,8,9999,9999,9999,1588136004
3211,24,Jits_Pract_8,9,9999,9999,9999,1588935784
3211,24,Jits_Pract_8,10,9999,9999,9999,1589735528
3211,24,Jits_Pract_8,11,9999,9999,9999,1590535260
3211,24,Jits_Pract_8,12,9999,9999,9999,1591335996
3211,24,Jits_Pract_8,13,9999,9999,9999,1592135800
3211,24,Jits_Pract_8,14,9999,9999,9999,1592935512
3212,25,Jits_Pract_5,0,5,56,103,1599260248
3212,25,Jits_Pract_5,1,5,63,98,1599263348
3212,25,Jits_Pract_5,2,5,80,127,1599266464
3212,25,Jits_Pract_5,0,5,56,103,1599759648
3212,25,Jits_Pract_5,1,5,63,98,1599762820
3212,25,Jits_Pract_5,2,5,80,127,1599766092
3212,25,Jits_Pract_5,0,5,56,103,1600259320
3212,25,Jits_Pract_5,1,5,80,127,1600269664
3212,25,Jits_Pract_5,2,5,63,98,1600290296
3212,25,Jits_Pract_5,0,5,63,98,1600710132
3212,25,Jits_Pract_5,1,5,80,127,1600739664
3212,25,Jits_Pract_5,2,5,56,103,1600750080
3212,25,Jits_Pract_5,0,5,80,127,1601270248
3212,25,Jits_Pract_5,1,5,56,103,1601280296
3212,25,Jits_Pract_5,2,5,63,98,1601310144
3212,25,Jits_Pract_5,0,5,63,98,1601759584
3212,25,Jits_Pract_5,1,5,56,103,1601790304
3212,25,Jits_Pract_5,2,5,80,127,1601799604
3212,25,Jits_Pract_5,0,5,56,103,1602210236
3212,25,Jits_Pract_5,1,5,63,98,1602260440
3212,25,Jits_Pract_5,2,5,80,127,1602279928
3212,25,Jits_Pract_5,0,5,80,127,1602709980
3212,25,Jits_Pract_5,1,5,63,98,1602760184
3212,25,Jits_Pract_5,2,5,56,103,1602800196
3212,25,Jits_Pract_5,0,5,56,103,1603209500
3212,25,Jits_Pract_5,1,5,63,98,1603240300
3212,25,Jits_Pract_5,2,5,80,127,1603309904
3212,25,Jits_Pract_5,0,5,56,103,1603710288
3212,25,Jits_Pract_5,1,5,80,127,1603770004
3212,25,Jits_Pract_5,2,5,63,98,1603800432
3212,25,Jits_Pract_5,0,5,56,103,1604220148
3212,25,Jits_Pract_5,1,5,63,98,1604229448
3212,25,Jits_Pract_5,2,5,80,127,1604269308
3212,25,Jits_Pract_5,0,5,63,98,1604709996
3212,25,Jits_Pract_5,1,5,80,127,1604789496
3212,25,Jits_Pract_5,2,5,56,103,1604799840
3212,25,Jits_Pract_5,0,5,63,98,1605259928
3212,25,Jits_Pract_5,1,5,56,103,1605299492
3212,25,Jits_Pract_5,2,5,80,127,1605302560
3212,25,Jits_Pract_5,0,5,56,103,1605720316
3212,25,Jits_Pract_5,1,5,63,98,1605729764
3212,25,Jits_Pract_5,2,5,80,127,1605769776
3212,25,Jits_Pract_5,0,5,56,103,1606210012
3212,25,Jits_Pract_5,1,5,63,98,1606213076
3212,25,Jits_Pract_5,2,5,80,127,1606230324
3212,25,Jits_Pract_5,0,9999,9999,9999,1599507508
3212,25,Jits_Pract_5,1,9999,9999,9999,1600007236
3212,25,Jits_Pract_5,2,9999,9999,9999,1600508028
3212,25,Jits_Pract_5,3,9999,9999,9999,1601007692
3212,25,Jits_Pract_5,4,9999,9999,9999,1601507424
3212,25,Jits_Pract_5,5,9999,9999,9999,1602007100
3212,25,Jits_Pract_5,6,9999,9999,9999,1602507872
3212,25,Jits_Pract_5,7,9999,9999,9999,1603007544
3212,25,Jits_Pract_5,8,9999,9999,9999,1603507284
3212,25,Jits_Pract_5,9,9999,9999,9999,1604008000
3212,25,Jits_Pract_5,10,9999,9999,9999,1604507740
3212,25,Jits_Pract_5,11,9999,9999,9999,1605007408
3212,25,Jits_Pract_5,12,9999,9999,9999,1605507136
3212,25,Jits_Pract_5,13,9999,9999,9999,1606007908
3212,25,Jits_Pract_5,14,9999,9999,9999,1606507636
3213,24,Jits_Pract_8,0,5,56,103,1660347624
3213,24,Jits_Pract_8,1,5,63,98,1660350724
3213,24,Jits_Pract_8,2,5,80,127,1660353772
3213,24,Jits_Pract_8,0,5,56,103,1661147492
3213,24,Jits_Pract_8,1,5,63,98,1661150740
3213,24,Jits_Pract_8,2,5,80,127,1661153712
3213,24,Jits_Pract_8,0,5,80,127,1661887960
3213,24,Jits_Pract_8,1,1,48,53,1661951612
3213,24,Jits_Pract_8,2,5,63,98,1661978112
3213,24,Jits_Pract_8,3,5,56,103,1661988308
3213,24,Jits_Pract_8,0,5,56,103,1662708336
3213,24,Jits_Pract_8,1,5,63,98,1662718308
3213,24,Jits_Pract_8,2,1,48,57,1662720324
3213,24,Jits_Pract_8,3,5,80,127,1662808456
3213,24,Jits_Pract_8,0,5,63,98,1663478212
3213,24,Jits_Pract_8,1,1,48,60,1663508260
3213,24,Jits_Pract_8,2,5,80,127,1663509604
3213,24,Jits_Pract_8,3,5,56,103,1663537408
3213,24,Jits_Pract_8,0,1,48,62,1664256636
3213,24,Jits_Pract_8,1,5,56,103,1664277860
3213,24,Jits_Pract_8,2,5,80,127,1664378340
3213,24,Jits_Pract_8,3,5,63,98,1664428392
3213,24,Jits_Pract_8,0,5,56,103,1665077572
3213,24,Jits_Pract_8,1,1,48,62,1665111928
3213,24,Jits_Pract_8,2,5,80,127,1665127768
3213,24,Jits_Pract_8,3,5,63,98,1665167632
3213,24,Jits_Pract_8,0,5,80,127,1665908208
3213,24,Jits_Pract_8,1,1,48,57,1665919864
3213,24,Jits_Pract_8,2,5,63,98,1665937728
3213,24,Jits_Pract_8,3,5,56,103,1666008452
3213,24,Jits_Pract_8,0,1,48,55,1666719860
3213,24,Jits_Pract_8,1,5,63,98,1666737492
3213,24,Jits_Pract_8,2,5,56,103,1666768364
3213,24,Jits_Pract_8,3,5,80,127,1666827540
3213,24,Jits_Pract_8,0,5,56,103,1667478148
3213,24,Jits_Pract_8,1,5,80,127,1667481060
3213,24,Jits_Pract_8,2,1,48,57,1667530632
3213,24,Jits_Pract_8,3,5,63,98,1667597636
3213,24,Jits_Pract_8,0,1,48,61,1668327476
3213,24,Jits_Pract_8,1,5,56,103,1668357540
3213,24,Jits_Pract_8,2,5,80,127,1668397432
3213,24,Jits_Pract_8,3,5,63,98,1668408072
3213,24,Jits_Pract_8,0,5,56,103,1669118348
3213,24,Jits_Pract_8,1,5,80,127,1669137980
3213,24,Jits_Pract_8,2,1,48,59,1669149072
3213,24,Jits_Pract_8,3,5,63,98,1669217792
3213,24,Jits_Pract_8,0,5,80,127,1669908012
3213,24,Jits_Pract_8,1,1,48,65,1669999788
3213,24,Jits_Pract_8,2,5,56,103,1670008352
3213,24,Jits_Pract_8,3,5,63,98,1670018476
3213,24,Jits_Pract_8,0,5,63,98,1670678044
3213,24,Jits_Pract_8,1,5,80,127,1670738384
3213,24,Jits_Pract_8,2,5,56,103,1670747460
3213,24,Jits_Pract_8,3,1,48,69,1670806464
3213,24,Jits_Pract_8,0,5,56,103,1671477820
3213,24,Jits_Pract_8,1,5,63,98,1671548168
3213,24,Jits_Pract_8,2,5,80,127,1671551540
3213,24,Jits_Pract_8,3,1,48,66,1671558712
3213,24,Jits_Pract_8,0,9999,9999,9999,1660745808
3213,24,Jits_Pract_8,1,9999,9999,9999,1661545524
3213,24,Jits_Pract_8,2,9999,9999,9999,1662345312
3213,24,Jits_Pract_8,3,9999,9999,9999,1663146056
3213,24,Jits_Pract_8,4,9999,9999,9999,1663945796
3213,24,Jits_Pract_8,5,9999,9999,9999,1664745556
3213,24,Jits_Pract_8,6,9999,9999,9999,1665545312
3213,24,Jits_Pract_8,7,9999,9999,9999,1666346076
3213,24,Jits_Pract_8,8,9999,9999,9999,1667145852
3213,24,Jits_Pract_8,9,9999,9999,9999,1667945524
3213,24,Jits_Pract_8,10,9999,9999,9999,1668745300
3213,24,Jits_Pract_8,11,9999,9999,9999,1669546104
3213,24,Jits_Pract_8,12,9999,9999,9999,1670345812
3213,24,Jits_Pract_8,13,9999,9999,9999,1671145580
3213,24,Jits_Pract_8,14,9999,9999,9999,1671945324
3214,7,Jits_ISO_8,0,5,56,103,1699528988
3214,7,Jits_ISO_8,1,5,63,98,1699532008
3214,7,Jits_ISO_8,2,5,80,127,1699535132
3214,7,Jits_ISO_8,0,5,56,103,1700328760
3214,7,Jits_ISO_8,1,5,63,98,1700331856
3214,7,Jits_ISO_8,2,5,80,127,1700335128
3214,7,Jits_ISO_8,0,5,80,127,1701069208
3214,7,Jits_ISO_8,1,5,63,98,1701159224
3214,7,Jits_ISO_8,2,5,56,103,1701168596
3214,7,Jits_ISO_8,0,5,56,103,1701889604
3214,7,Jits_ISO_8,1,5,63,98,1701898680
3214,7,Jits_ISO_8,2,5,80,127,1701988764
3214,7,Jits_ISO_8,0,5,63,98,1702658604
3214,7,Jits_ISO_8,1,5,80,127,1702689128
3214,7,Jits_ISO_8,2,5,56,103,1702718732
3214,7,Jits_ISO_8,3,1,48,57,1702731292
3214,7,Jits_ISO_8,0,1,48,65,1703454320
3214,7,Jits_ISO_8,1,5,56,103,1703459520
3214,7,Jits_ISO_8,2,5,80,127,1703558488
3214,7,Jits_ISO_8,3,5,63,98,1703608612
3214,7,Jits_ISO_8,0,5,56,103,1704258868
3214,7,Jits_ISO_8,1,5,80,127,1704309220
3214,7,Jits_ISO_8,2,1,48,72,1704321336
3214,7,Jits_ISO_8,3,5,63,98,1704349304
3214,7,Jits_ISO_8,4,1,48,49,1704353156
3214,7,Jits_ISO_8,0,5,80,127,1705089308
3214,7,Jits_ISO_8,1,1,48,76,1705110932
3214,7,Jits_ISO_8,2,5,63,98,1705119272
3214,7,Jits_ISO_8,3,1,48,52,1705136696
3214,7,Jits_ISO_8,4,5,56,103,1705188856
3214,7,Jits_ISO_8,0,1,48,70,1705915280
3214,7,Jits_ISO_8,1,5,63,98,1705918912
3214,7,Jits_ISO_8,2,5,56,103,1705948516
3214,7,Jits_ISO_8,3,5,80,127,1706008916
3214,7,Jits_ISO_8,0,5,56,103,1706659364
3214,7,Jits_ISO_8,1,5,80,127,1706662284
3214,7,Jits_ISO_8,2,1,48,66,1706727296
3214,7,Jits_ISO_8,3,5,63,98,1706779108
3214,7,Jits_ISO_8,0,1,48,62,1707518612
3214,7,Jits_ISO_8,1,5,56,103,1707538716
3214,7,Jits_ISO_8,2,5,80,127,1707578604
3214,7,Jits_ISO_8,3,5,63,98,1707589248
3214,7,Jits_ISO_8,0,5,56,103,1708298580
3214,7,Jits_ISO_8,1,5,80,127,1708319212
3214,7,Jits_ISO_8,2,1,48,66,1708333940
3214,7,Jits_ISO_8,3,1,48,44,1708367644
3214,7,Jits_ISO_8,4,5,63,98,1708398980
3214,7,Jits_ISO_8,0,5,80,127,1709089260
3214,7,Jits_ISO_8,1,1,48,73,1709138164
3214,7,Jits_ISO_8,2,5,56,103,1709188460
3214,7,Jits_ISO_8,3,5,63,98,1709198580
3214,7,Jits_ISO_8,0,5,63,98,1709859168
3214,7,Jits_ISO_8,1,5,80,127,1709918440
3214,7,Jits_ISO_8,2,5,56,103,1709928712
3214,7,Jits_ISO_8,3,1,48,83,1709961868
3214,7,Jits_ISO_8,4,1,48,59,1709981548
3214,7,Jits_ISO_8,0,5,56,103,1710659320
3214,7,Jits_ISO_8,1,1,48,82,1710723944
3214,7,Jits_ISO_8,2,5,63,98,1710728624
3214,7,Jits_ISO_8,3,5,80,127,1710732136
3214,7,Jits_ISO_8,0,5,63,98,1711489452
3214,7,Jits_ISO_8,1,1,48,81,1711503204
3214,7,Jits_ISO_8,2,5,56,103,1711538524
3214,7,Jits_ISO_8,3,5,80,127,1711541812
3214,7,Jits_ISO_8,0,5,56,103,1712249136
3214,7,Jits_ISO_8,1,5,80,127,1712252352
3214,7,Jits_ISO_8,2,1,48,73,1712272932
3214,7,Jits_ISO_8,3,5,63,98,1712339336
3214,7,Jits_ISO_8,0,1,48,74,1713078260
3214,7,Jits_ISO_8,1,5,63,98,1713088848
3214,7,Jits_ISO_8,2,5,56,103,1713179144
3214,7,Jits_ISO_8,3,5,80,127,1713209040
3214,7,Jits_ISO_8,0,1,48,72,1713859540
3214,7,Jits_ISO_8,1,5,56,103,1713879348
3214,7,Jits_ISO_8,2,5,63,98,1713978860
3214,7,Jits_ISO_8,3,5,80,127,1714008388
3214,7,Jits_ISO_8,0,1,48,76,1714659928
3214,7,Jits_ISO_8,1,5,63,98,1714698540
3214,7,Jits_ISO_8,2,5,56,103,1714709060
3214,7,Jits_ISO_8,3,5,80,127,1714799032
3214,7,Jits_ISO_8,0,1,48,81,1715484684
3214,7,Jits_ISO_8,1,5,63,98,1715518956
3214,7,Jits_ISO_8,2,5,56,103,1715598812
3214,7,Jits_ISO_8,3,5,80,127,1715601880
3214,7,Jits_ISO_8,0,5,80,127,1716278736
3214,7,Jits_ISO_8,1,5,63,98,1716299048
3214,7,Jits_ISO_8,2,1,48,80,1716330408
3214,7,Jits_ISO_8,3,5,56,103,1716358384
3214,7,Jits_ISO_8,0,5,56,103,1717119288
3214,7,Jits_ISO_8,1,1,48,82,1717122556
3214,7,Jits_ISO_8,2,5,63,98,1717138768
3214,7,Jits_ISO_8,3,5,80,127,1717142132
3214,7,Jits_ISO_8,0,5,63,98,1717858764
3214,7,Jits_ISO_8,1,1,48,82,1717924364
3214,7,Jits_ISO_8,2,5,80,127,1717938708
3214,7,Jits_ISO_8,3,5,56,103,1717948976
3214,7,Jits_ISO_8,0,5,63,98,1718678852
3214,7,Jits_ISO_8,1,1,48,85,1718698632
3214,7,Jits_ISO_8,2,5,56,103,1718700428
3214,7,Jits_ISO_8,3,5,80,127,1718748608
3214,7,Jits_ISO_8,0,1,48,79,1719465704
3214,7,Jits_ISO_8,1,5,80,127,1719478852
3214,7,Jits_ISO_8,2,5,63,98,1719518792
3214,7,Jits_ISO_8,3,5,56,103,1719539024
3214,7,Jits_ISO_8,0,1,48,69,1720314636
3214,7,Jits_ISO_8,1,5,56,103,1720319540
3214,7,Jits_ISO_8,2,5,63,98,1720328544
3214,7,Jits_ISO_8,3,5,80,127,1720349024
3214,7,Jits_ISO_8,0,5,56,103,1721048608
3214,7,Jits_ISO_8,1,1,48,86,1721138248
3214,7,Jits_ISO_8,2,5,63,98,1721139956
3214,7,Jits_ISO_8,3,5,80,127,1721198928
3214,7,Jits_ISO_8,0,5,80,127,1721878848
3214,7,Jits_ISO_8,1,5,56,103,1721889120
3214,7,Jits_ISO_8,2,1,48,81,1721939216
3214,7,Jits_ISO_8,3,5,63,98,1721958644
3214,7,Jits_ISO_8,0,1,48,89,1722696576
3214,7,Jits_ISO_8,1,5,63,98,1722709500
3214,7,Jits_ISO_8,2,5,80,127,1722798504
3214,7,Jits_ISO_8,3,5,56,103,1722808624
3214,7,Jits_ISO_8,0,5,63,98,1723448760
3214,7,Jits_ISO_8,1,5,80,127,1723498964
3214,7,Jits_ISO_8,2,1,48,91,1723504104
3214,7,Jits_ISO_8,3,5,56,103,1723559348
3214,7,Jits_ISO_8,0,5,56,103,1724279036
3214,7,Jits_ISO_8,1,1,48,87,1724283648
3214,7,Jits_ISO_8,2,5,80,127,1724329756
3214,7,Jits_ISO_8,3,5,63,98,1724348648
3214,7,Jits_ISO_8,0,5,56,103,1725049164
3214,7,Jits_ISO_8,1,5,80,127,1725108512
3214,7,Jits_ISO_8,2,1,48,90,1725109476
3214,7,Jits_ISO_8,3,5,63,98,1725179380
3214,7,Jits_ISO_8,0,5,56,103,1725848960
3214,7,Jits_ISO_8,1,1,48,86,1725878564
3214,7,Jits_ISO_8,2,5,80,127,1725880276
3214,7,Jits_ISO_8,3,5,63,98,1725909576
3214,7,Jits_ISO_8,0,1,48,95,1726671496
3214,7,Jits_ISO_8,1,5,56,103,1726688756
3214,7,Jits_ISO_8,2,5,80,127,1726708992
3214,7,Jits_ISO_8,3,5,63,98,1726768644
3214,7,Jits_ISO_8,0,1,48,78,1727486328
3214,7,Jits_ISO_8,1,5,80,127,1727569480
3214,7,Jits_ISO_8,2,5,56,103,1727578628
3214,7,Jits_ISO_8,3,5,63,98,1727588736
3214,7,Jits_ISO_8,0,5,56,103,1728329196
3214,7,Jits_ISO_8,1,1,48,85,1728346784
3214,7,Jits_ISO_8,2,5,80,127,1728369128
3214,7,Jits_ISO_8,3,5,63,98,1728398656
3214,7,Jits_ISO_8,0,5,56,103,1729099480
3214,7,Jits_ISO_8,1,5,63,98,1729128784
3214,7,Jits_ISO_8,2,5,80,127,1729168648
3214,7,Jits_ISO_8,3,1,48,90,1729169984
3214,7,Jits_ISO_8,0,5,80,127,1729848784
3214,7,Jits_ISO_8,1,5,63,98,1729899060
3214,7,Jits_ISO_8,2,1,48,82,1729901880
3214,7,Jits_ISO_8,3,5,56,103,1729919288
3214,7,Jits_ISO_8,0,1,48,81,1730658060
3214,7,Jits_ISO_8,1,5,56,103,1730679356
3214,7,Jits_ISO_8,2,5,80,127,1730748820
3214,7,Jits_ISO_8,3,5,63,98,1730809344
3214,7,Jits_ISO_8,0,1,48,88,1731464504
3214,7,Jits_ISO_8,1,5,80,127,1731478996
3214,7,Jits_ISO_8,2,5,63,98,1731569264
3214,7,Jits_ISO_8,3,5,56,103,1731588456
3214,7,Jits_ISO_8,0,5,63,98,1732299316
3214,7,Jits_ISO_8,1,1,48,92,1732301252
3214,7,Jits_ISO_8,2,5,56,103,1732318572
3214,7,Jits_ISO_8,3,5,80,127,1732358436
3214,7,Jits_ISO_8,0,5,80,127,1733059016
3214,7,Jits_ISO_8,1,5,63,98,1733079476
3214,7,Jits_ISO_8,2,1,48,95,1733095476
3214,7,Jits_ISO_8,3,5,56,103,1733159212
3214,7,Jits_ISO_8,0,5,63,98,1733848548
3214,7,Jits_ISO_8,1,1,48,84,1733864396
3214,7,Jits_ISO_8,2,5,56,103,1733958988
3214,7,Jits_ISO_8,3,5,80,127,1733962056
3214,7,Jits_ISO_8,0,1,48,82,1734641168
3214,7,Jits_ISO_8,1,5,63,98,1734668692
3214,7,Jits_ISO_8,2,5,56,103,1734678912
3214,7,Jits_ISO_8,3,5,80,127,1734682052
3214,7,Jits_ISO_8,0,1,48,89,1735431348
3214,7,Jits_ISO_8,1,5,56,103,1735449152
3214,7,Jits_ISO_8,2,5,80,127,1735568720
3214,7,Jits_ISO_8,3,5,63,98,1735608584
3214,7,Jits_ISO_8,0,1,48,94,1736263068
3214,7,Jits_ISO_8,1,5,56,103,1736269316
3214,7,Jits_ISO_8,2,5,80,127,1736349188
3214,7,Jits_ISO_8,3,5,63,98,1736368436
3214,7,Jits_ISO_8,0,5,56,103,1737069032
3214,7,Jits_ISO_8,1,1,48,90,1737119132
3214,7,Jits_ISO_8,2,5,63,98,1737178416
3214,7,Jits_ISO_8,3,5,80,127,1737181780
3214,7,Jits_ISO_8,0,5,56,103,1737899316
3214,7,Jits_ISO_8,1,1,48,84,1737919824
3214,7,Jits_ISO_8,2,5,80,127,1737929060
3214,7,Jits_ISO_8,3,5,63,98,1737948476
3214,7,Jits_ISO_8,0,5,63,98,1738678736
3214,7,Jits_ISO_8,1,5,56,103,1738688860
3214,7,Jits_ISO_8,2,5,80,127,1738699204
3214,7,Jits_ISO_8,3,1,48,83,1738707872
3214,7,Jits_ISO_8,0,1,48,93,1739458708
3214,7,Jits_ISO_8,1,5,80,127,1739469216
3214,7,Jits_ISO_8,2,5,56,103,1739519344
3214,7,Jits_ISO_8,3,5,63,98,1739559292
3214,7,Jits_ISO_8,0,5,80,127,1740289384
3214,7,Jits_ISO_8,1,1,48,96,1740292576
3214,7,Jits_ISO_8,2,5,63,98,1740308812
3214,7,Jits_ISO_8,3,5,56,103,1740359016
3214,7,Jits_ISO_8,0,1,48,88,1741084896
3214,7,Jits_ISO_8,1,5,80,127,1741099240
3214,7,Jits_ISO_8,2,5,56,103,1741129140
3214,7,Jits_ISO_8,3,5,63,98,1741198880
3214,7,Jits_ISO_8,0,1,48,100,1741916984
3214,7,Jits_ISO_8,1,5,56,103,1741949296
3214,7,Jits_ISO_8,2,5,80,127,1741958520
3214,7,Jits_ISO_8,3,5,63,98,1741998308
3214,7,Jits_ISO_8,0,5,56,103,1742658908
3214,7,Jits_ISO_8,1,5,63,98,1742679368
3214,7,Jits_ISO_8,2,5,80,127,1742748976
3214,7,Jits_ISO_8,3,1,48,97,1742764600
3214,7,Jits_ISO_8,0,5,63,98,1743479080
3214,7,Jits_ISO_8,1,1,48,83,1743498084
3214,7,Jits_ISO_8,2,5,80,127,1743538940
3214,7,Jits_ISO_8,3,5,56,103,1743558952
3214,7,Jits_ISO_8,0,1,48,80,1744252080
3214,7,Jits_ISO_8,1,5,80,127,1744268816
3214,7,Jits_ISO_8,2,5,56,103,1744299316
3214,7,Jits_ISO_8,3,5,63,98,1744328992
3214,7,Jits_ISO_8,0,1,48,95,1745066684
3214,7,Jits_ISO_8,1,5,56,103,1745069420
3214,7,Jits_ISO_8,2,5,63,98,1745128764
3214,7,Jits_ISO_8,3,5,80,127,1745189088
3214,7,Jits_ISO_8,0,5,80,127,1745888612
3214,7,Jits_ISO_8,1,1,48,97,1745893900
3214,7,Jits_ISO_8,2,5,56,103,1745908992
3214,7,Jits_ISO_8,3,5,63,98,1745978696
3214,7,Jits_ISO_8,0,5,80,127,1746689532
3214,7,Jits_ISO_8,1,5,63,98,1746708820
3214,7,Jits_ISO_8,2,1,48,92,1746718536
3214,7,Jits_ISO_8,3,5,56,103,1746738712
3214,7,Jits_ISO_8,0,5,80,127,1747478864
3214,7,Jits_ISO_8,1,1,48,90,1747497884
3214,7,Jits_ISO_8,2,5,63,98,1747499616
3214,7,Jits_ISO_8,3,5,56,103,1747558664
3214,7,Jits_ISO_8,0,5,80,127,1748278736
3214,7,Jits_ISO_8,1,1,48,95,1748311156
3214,7,Jits_ISO_8,2,5,56,103,1748379204
3214,7,Jits_ISO_8,3,5,63,98,1748408656
3214,7,Jits_ISO_8,0,5,63,98,1749069024
3214,7,Jits_ISO_8,1,5,80,127,1749119600
3214,7,Jits_ISO_8,2,5,56,103,1749138788
3214,7,Jits_ISO_8,3,1,48,102,1749158244
3214,7,Jits_ISO_8,0,1,48,108,1749908676
3214,7,Jits_ISO_8,1,5,80,127,1749910312
3214,7,Jits_ISO_8,2,5,56,103,1749938492
3214,7,Jits_ISO_8,3,5,63,98,1749941636
3214,7,Jits_ISO_8,0,1,48,103,1750673368
3214,7,Jits_ISO_8,1,5,63,98,1750739336
3214,7,Jits_ISO_8,2,5,56,103,1750779336
3214,7,Jits_ISO_8,3,5,80,127,1750798748
3214,7,Jits_ISO_8,0,1,48,106,1751476952
3214,7,Jits_ISO_8,1,5,80,127,1751478616
3214,7,Jits_ISO_8,2,5,63,98,1751558412
3214,7,Jits_ISO_8,3,5,56,103,1751598512
3214,7,Jits_ISO_8,0,5,63,98,1752298812
3214,7,Jits_ISO_8,1,1,48,84,1752316828
3214,7,Jits_ISO_8,2,1,48,49,1752351232
3214,7,Jits_ISO_8,3,5,80,127,1752378832
3214,7,Jits_ISO_8,4,5,56,103,1752399216
3214,7,Jits_ISO_8,0,5,56,103,1753138484
3214,7,Jits_ISO_8,1,1,48,79,1753148152
3214,7,Jits_ISO_8,2,5,63,98,1753150020
3214,7,Jits_ISO_8,3,5,80,127,1753188684
3214,7,Jits_ISO_8,0,5,56,103,1753858464
3214,7,Jits_ISO_8,1,5,80,127,1753861456
3214,7,Jits_ISO_8,2,1,48,95,1753957808
3214,7,Jits_ISO_8,3,5,63,98,1753998584
3214,7,Jits_ISO_8,0,5,56,103,1754649056
3214,7,Jits_ISO_8,1,5,63,98,1754739344
3214,7,Jits_ISO_8,2,1,48,113,1754785088
3214,7,Jits_ISO_8,3,5,80,127,1754808796
3214,7,Jits_ISO_8,0,5,63,98,1755528436
3214,7,Jits_ISO_8,1,5,80,127,1755531880
3214,7,Jits_ISO_8,2,5,56,103,1755589056
3214,7,Jits_ISO_8,3,1,48,127,1755591728
3214,7,Jits_ISO_8,4,1,48,57,1755626848
3214,7,Jits_ISO_8,0,5,80,127,1756369212
3214,7,Jits_ISO_8,1,5,56,103,1756388700
3214,7,Jits_ISO_8,2,5,63,98,1756398896
3214,7,Jits_ISO_8,3,1,48,94,1756407116
3214,7,Jits_ISO_8,0,5,56,103,1757079108
3214,7,Jits_ISO_8,1,5,63,98,1757089228
3214,7,Jits_ISO_8,2,5,80,127,1757158760
3214,7,Jits_ISO_8,3,1,48,117,1757213144
3214,7,Jits_ISO_8,0,5,80,127,1757878616
3214,7,Jits_ISO_8,1,5,56,103,1757928968
3214,7,Jits_ISO_8,2,5,63,98,1757979120
3214,7,Jits_ISO_8,3,1,48,127,1757995048
3214,7,Jits_ISO_8,0,5,56,103,1758759220
3214,7,Jits_ISO_8,1,5,63,98,1758768592
3214,7,Jits_ISO_8,2,1,48,112,1758795452
3214,7,Jits_ISO_8,3,5,80,127,1758808376
3214,7,Jits_ISO_8,0,5,56,103,1759498548
3214,7,Jits_ISO_8,1,5,63,98,1759538588
3214,7,Jits_ISO_8,2,5,80,127,1759588864
3214,7,Jits_ISO_8,3,1,48,83,1759603664
3214,7,Jits_ISO_8,4,1,38,19,1759613016
3214,7,Jits_ISO_8,0,5,80,127,1760258388
3214,7,Jits_ISO_8,1,5,56,103,1760308544
3214,7,Jits_ISO_8,2,5,63,98,1760329076
3214,7,Jits_ISO_8,3,1,48,107,1760383656
3214,7,Jits_ISO_8,0,5,80,127,1761069304
3214,7,Jits_ISO_8,1,5,63,98,1761129020
3214,7,Jits_ISO_8,2,1,48,126,1761154464
3214,7,Jits_ISO_8,3,1,48,51,1761190036
3214,7,Jits_ISO_8,4,5,56,103,1761208712
3214,7,Jits_ISO_8,0,5,80,127,1761848884
3214,7,Jits_ISO_8,1,5,56,103,1761888752
3214,7,Jits_ISO_8,2,5,63,98,1761909136
3214,7,Jits_ISO_8,3,1,48,120,1761972108
3214,7,Jits_ISO_8,0,1,48,122,1762697984
3214,7,Jits_ISO_8,1,5,56,103,1762699776
3214,7,Jits_ISO_8,2,5,80,127,1762708852
3214,7,Jits_ISO_8,3,5,63,98,1762748864
3214,7,Jits_ISO_8,0,1,48,127,1763521136
3214,7,Jits_ISO_8,1,5,56,103,1763568964
3214,7,Jits_ISO_8,2,5,63,98,1763608928
3214,7,Jits_ISO_8,3,5,80,127,1763612144
3214,7,Jits_ISO_8,0,5,63,98,1764259168
3214,7,Jits_ISO_8,1,5,80,127,1764299180
3214,7,Jits_ISO_8,2,1,48,114,1764339612
3214,7,Jits_ISO_8,3,5,56,103,1764368804
3214,7,Jits_ISO_8,0,5,63,98,1765048696
3214,7,Jits_ISO_8,1,1,48,104,1765103956
3214,7,Jits_ISO_8,2,5,56,103,1765128708
3214,7,Jits_ISO_8,3,5,80,127,1765188976
3214,7,Jits_ISO_8,0,5,80,127,1765858752
3214,7,Jits_ISO_8,1,1,48,114,1765869744
3214,7,Jits_ISO_8,2,5,63,98,1765908824
3214,7,Jits_ISO_8,3,5,56,103,1765938724
3214,7,Jits_ISO_8,0,5,56,103,1766649336
3214,7,Jits_ISO_8,1,1,48,127,1766666924
3214,7,Jits_ISO_8,2,5,63,98,1766699484
3214,7,Jits_ISO_8,3,5,80,127,1766709004
3214,7,Jits_ISO_8,0,5,56,103,1767459208
3214,7,Jits_ISO_8,1,1,48,93,1767466812
3214,7,Jits_ISO_8,2,5,63,98,1767568728
3214,7,Jits_ISO_8,3,5,80,127,1767589184
3214,7,Jits_ISO_8,0,5,63,98,1768258932
3214,7,Jits_ISO_8,1,1,48,125,1768299668
3214,7,Jits_ISO_8,2,5,80,127,1768309204
3214,7,Jits_ISO_8,3,5,56,103,1768399544
3214,7,Jits_ISO_8,0,5,63,98,1769048608
3214,7,Jits_ISO_8,1,5,80,127,1769079036
3214,7,Jits_ISO_8,2,1,48,101,1769110028
3214,7,Jits_ISO_8,3,1,48,62,1769145128
3214,7,Jits_ISO_8,4,5,56,103,1769169140
3214,7,Jits_ISO_8,0,5,63,98,1769849224
3214,7,Jits_ISO_8,1,5,56,103,1769858596
3214,7,Jits_ISO_8,2,1,48,111,1769888392
3214,7,Jits_ISO_8,3,1,48,52,1769936524
3214,7,Jits_ISO_8,4,5,80,127,1769958740
3214,7,Jits_ISO_8,0,1,48,102,1770655556
3214,7,Jits_ISO_8,1,1,48,44,1770708968
3214,7,Jits_ISO_8,2,5,63,98,1770749452
3214,7,Jits_ISO_8,3,5,80,127,1770778856
3214,7,Jits_ISO_8,4,5,56,103,1770808740
3214,7,Jits_ISO_8,0,1,48,92,1771475380
3214,7,Jits_ISO_8,1,5,80,127,1771568424
3214,7,Jits_ISO_8,2,5,63,98,1771578752
3214,7,Jits_ISO_8,3,5,56,103,1771608428
3214,7,Jits_ISO_8,0,5,80,127,1772268776
3214,7,Jits_ISO_8,1,5,63,98,1772289460
3214,7,Jits_ISO_8,2,1,48,100,1772311560
3214,7,Jits_ISO_8,3,5,56,103,1772338632
3214,7,Jits_ISO_8,4,1,48,43,1772357776
3214,7,Jits_ISO_8,0,1,48,104,1773095308
3214,7,Jits_ISO_8,1,5,63,98,1773099612
3214,7,Jits_ISO_8,2,5,80,127,1773158808
3214,7,Jits_ISO_8,3,5,56,103,1773179416
3214,7,Jits_ISO_8,0,5,63,98,1773859272
3214,7,Jits_ISO_8,1,1,48,126,1773909404
3214,7,Jits_ISO_8,2,5,56,103,1773910964
3214,7,Jits_ISO_8,3,5,80,127,1773918548
3214,7,Jits_ISO_8,0,1,48,127,1774680008
3214,7,Jits_ISO_8,1,5,56,103,1774688504
3214,7,Jits_ISO_8,2,5,80,127,1774698848
3214,7,Jits_ISO_8,3,5,63,98,1774799304
3214,7,Jits_ISO_8,0,5,80,127,1775448536
3214,7,Jits_ISO_8,1,5,63,98,1775458804
3214,7,Jits_ISO_8,2,1,48,127,1775539092
3214,7,Jits_ISO_8,3,1,48,46,1775581396
3214,7,Jits_ISO_8,4,5,56,103,1775609364
3214,7,Jits_ISO_8,0,5,63,98,1776258380
3214,7,Jits_ISO_8,1,5,80,127,1776299368
3214,7,Jits_ISO_8,2,1,48,122,1776317252
3214,7,Jits_ISO_8,3,1,48,45,1776365616
3214,7,Jits_ISO_8,4,5,56,103,1776379356
3214,7,Jits_ISO_8,0,5,56,103,1777049028
3214,7,Jits_ISO_8,1,1,48,114,1777083684
3214,7,Jits_ISO_8,2,5,80,127,1777149196
3214,7,Jits_ISO_8,3,5,63,98,1777168856
3214,7,Jits_ISO_8,0,5,80,127,1777909372
3214,7,Jits_ISO_8,1,5,56,103,1777919200
3214,7,Jits_ISO_8,2,1,48,117,1777923736
3214,7,Jits_ISO_8,3,5,63,98,1778008524
3214,7,Jits_ISO_8,0,5,56,103,1778708836
3214,7,Jits_ISO_8,1,1,48,127,1778720128
3214,7,Jits_ISO_8,2,5,63,98,1778729368
3214,7,Jits_ISO_8,3,1,48,55,1778752172
3214,7,Jits_ISO_8,4,5,80,127,1778809288
3214,7,Jits_ISO_8,0,5,63,98,1779458352
3214,7,Jits_ISO_8,1,1,48,127,1779512368
3214,7,Jits_ISO_8,2,5,56,103,1779548504
3214,7,Jits_ISO_8,3,5,80,127,1779551496
3214,7,Jits_ISO_8,4,1,48,45,1779562092
3214,7,Jits_ISO_8,0,1,48,127,1780286512
3214,7,Jits_ISO_8,1,5,56,103,1780289092
3214,7,Jits_ISO_8,2,5,80,127,1780349412
3214,7,Jits_ISO_8,3,5,63,98,1780358412
3214,7,Jits_ISO_8,0,1,48,125,1781120424
3214,7,Jits_ISO_8,1,5,80,127,1781138732
3214,7,Jits_ISO_8,2,5,56,103,1781149000
3214,7,Jits_ISO_8,3,5,63,98,1781152140
3214,7,Jits_ISO_8,0,5,56,103,1781898604
3214,7,Jits_ISO_8,1,5,80,127,1781909096
3214,7,Jits_ISO_8,2,1,48,106,1781912892
3214,7,Jits_ISO_8,3,1,38,23,1781922840
3214,7,Jits_ISO_8,4,5,63,98,1781929456
3214,7,Jits_ISO_8,0,5,63,98,1782668640
3214,7,Jits_ISO_8,1,1,48,107,1782698880
3214,7,Jits_ISO_8,2,5,80,127,1782729100
3214,7,Jits_ISO_8,3,1,48,45,1782744116
3214,7,Jits_ISO_8,4,5,56,103,1782779280
3214,7,Jits_ISO_8,0,1,48,114,1783513128
3214,7,Jits_ISO_8,1,5,63,98,1783549268
3214,7,Jits_ISO_8,2,5,56,103,1783558492
3214,7,Jits_ISO_8,3,5,80,127,1783608704
3214,7,Jits_ISO_8,0,5,63,98,1784248768
3214,7,Jits_ISO_8,1,5,80,127,1784269300
3214,7,Jits_ISO_8,2,5,56,103,1784279352
3214,7,Jits_ISO_8,3,1,48,115,1784344892
3214,7,Jits_ISO_8,0,5,63,98,1785048404
3214,7,Jits_ISO_8,1,5,80,127,1785051916
3214,7,Jits_ISO_8,2,5,56,103,1785089536
3214,7,Jits_ISO_8,3,1,48,127,1785141152
3214,7,Jits_ISO_8,0,1,48,127,1785903908
3214,7,Jits_ISO_8,1,5,63,98,1785918776
3214,7,Jits_ISO_8,2,5,80,127,1785948676
3214,7,Jits_ISO_8,3,5,56,103,1785958796
3214,7,Jits_ISO_8,0,5,56,103,1786669292
3214,7,Jits_ISO_8,1,5,80,127,1786699116
3214,7,Jits_ISO_8,2,1,48,127,1786716240
3214,7,Jits_ISO_8,3,5,63,98,1786729008
3214,7,Jits_ISO_8,4,1,48,50,1786760212
3214,7,Jits_ISO_8,0,1,48,127,1787482096
3214,7,Jits_ISO_8,1,5,63,98,1787568364
3214,7,Jits_ISO_8,2,5,56,103,1787608364
3214,7,Jits_ISO_8,3,5,80,127,1787611580
3214,7,Jits_ISO_8,0,5,80,127,1788268908
3214,7,Jits_ISO_8,1,1,48,127,1788316148
3214,7,Jits_ISO_8,2,5,56,103,1788348700
3214,7,Jits_ISO_8,3,5,63,98,1788398976
3214,7,Jits_ISO_8,0,5,80,127,1789049160
3214,7,Jits_ISO_8,1,5,56,103,1789068724
3214,7,Jits_ISO_8,2,1,48,127,1789139568
3214,7,Jits_ISO_8,3,5,63,98,1789158924
3214,7,Jits_ISO_8,0,5,80,127,1789888828
3214,7,Jits_ISO_8,1,1,48,127,1789889796
3214,7,Jits_ISO_8,2,5,63,98,1789928836
3214,7,Jits_ISO_8,3,5,56,103,1789968724
3214,7,Jits_ISO_8,0,5,63,98,1790658892
3214,7,Jits_ISO_8,1,1,48,105,1790702768
3214,7,Jits_ISO_8,2,5,80,127,1790719204
3214,7,Jits_ISO_8,3,5,56,103,1790748980
3214,7,Jits_ISO_8,0,5,56,103,1791458612
3214,7,Jits_ISO_8,1,1,48,127,1791469828
3214,7,Jits_ISO_8,2,5,80,127,1791489328
3214,7,Jits_ISO_8,3,5,63,98,1791578644
3214,7,Jits_ISO_8,0,5,56,103,1792268536
3214,7,Jits_ISO_8,1,1,48,127,1792294272
3214,7,Jits_ISO_8,2,5,80,127,1792379192
3214,7,Jits_ISO_8,3,5,63,98,1792408852
3214,7,Jits_ISO_8,0,5,56,103,1793118620
3214,7,Jits_ISO_8,1,1,48,127,1793165560
3214,7,Jits_ISO_8,2,5,63,98,1793179008
3214,7,Jits_ISO_8,3,5,80,127,1793208756
3214,7,Jits_ISO_8,0,5,56,103,1793888912
3214,7,Jits_ISO_8,1,1,48,127,1793959420
3214,7,Jits_ISO_8,2,5,63,98,1793960908
3214,7,Jits_ISO_8,3,5,80,127,1793978828
3214,7,Jits_ISO_8,0,5,80,127,1794658532
3214,7,Jits_ISO_8,1,5,63,98,1794679364
3214,7,Jits_ISO_8,2,1,48,114,1794720616
3214,7,Jits_ISO_8,3,5,56,103,1794729484
3214,7,Jits_ISO_8,0,9999,9999,9999,1699926132
3214,7,Jits_ISO_8,1,9999,9999,9999,1700726880
3214,7,Jits_ISO_8,2,9999,9999,9999,1701526596
3214,7,Jits_ISO_8,3,9999,9999,9999,1702326388
3214,7,Jits_ISO_8,4,9999,9999,9999,1703126080
3214,7,Jits_ISO_8,5,9999,9999,9999,1703926836
3214,7,Jits_ISO_8,6,9999,9999,9999,1704726624
3214,7,Jits_ISO_8,7,9999,9999,9999,1705526344
3214,7,Jits_ISO_8,8,9999,9999,9999,1706326092
3214,7,Jits_ISO_8,9,9999,9999,9999,1707126908
3214,7,Jits_ISO_8,10,9999,9999,9999,1707926636
3214,7,Jits_ISO_8,11,9999,9999,9999,1708726328
3214,7,Jits_ISO_8,12,9999,9999,9999,1709526076
3214,7,Jits_ISO_8,13,9999,9999,9999,1710326896
3214,7,Jits_ISO_8,14,9999,9999,9999,1711126636
3214,7,Jits_ISO_8,15,9999,9999,9999,1711926352
3214,7,Jits_ISO_8,16,9999,9999,9999,1712726116
3214,7,Jits_ISO_8,17,9999,9999,9999,1713526892
3214,7,Jits_ISO_8,18,9999,9999,9999,1714326608
3214,7,Jits_ISO_8,19,9999,9999,9999,1715126392
3214,7,Jits_ISO_8,20,9999,9999,9999,1715926100
3214,7,Jits_ISO_8,21,9999,9999,9999,1716726856
3214,7,Jits_ISO_8,22,9999,9999,9999,1717526596
3214,7,Jits_ISO_8,23,9999,9999,9999,1718326392
3214,7,Jits_ISO_8,24,9999,9999,9999,1719126096
3214,7,Jits_ISO_8,25,9999,9999,9999,1719926852
3214,7,Jits_ISO_8,26,9999,9999,9999,1720726640
3214,7,Jits_ISO_8,27,9999,9999,9999,1721526348
3214,7,Jits_ISO_8,28,9999,9999,9999,1722326072
3214,7,Jits_ISO_8,29,9999,9999,9999,1723126844
3214,7,Jits_ISO_8,30,9999,9999,9999,1723926652
3214,7,Jits_ISO_8,31,9999,9999,9999,1724726360
3214,7,Jits_ISO_8,32,9999,9999,9999,1725526084
3214,7,Jits_ISO_8,33,9999,9999,9999,1726326848
3214,7,Jits_ISO_8,34,9999,9999,9999,1727126644
3214,7,Jits_ISO_8,35,9999,9999,9999,1727926360
3214,7,Jits_ISO_8,36,9999,9999,9999,1728726080
3214,7,Jits_ISO_8,37,9999,9999,9999,1729526848
3214,7,Jits_ISO_8,38,9999,9999,9999,1730326592
3214,7,Jits_ISO_8,39,9999,9999,9999,1731126396
3214,7,Jits_ISO_8,40,9999,9999,9999,1731926104
3214,7,Jits_ISO_8,41,9999,9999,9999,1732726860
3214,7,Jits_ISO_8,42,9999,9999,9999,1733526640
3214,7,Jits_ISO_8,43,9999,9999,9999,1734326356
3214,7,Jits_ISO_8,44,9999,9999,9999,1735126120
3214,7,Jits_ISO_8,45,9999,9999,9999,1735926880
3214,7,Jits_ISO_8,46,9999,9999,9999,1736726612
3214,7,Jits_ISO_8,47,9999,9999,9999,1737526388
3214,7,Jits_ISO_8,48,9999,9999,9999,1738326112
3214,7,Jits_ISO_8,49,9999,9999,9999,1739126876
3214,7,Jits_ISO_8,50,9999,9999,9999,1739926584
3214,7,Jits_ISO_8,51,9999,9999,9999,1740726368
3214,7,Jits_ISO_8,52,9999,9999,9999,1741526092
3214,7,Jits_ISO_8,53,9999,9999,9999,1742326852
3214,7,Jits_ISO_8,54,9999,9999,9999,1743126604
3214,7,Jits_ISO_8,55,9999,9999,9999,1743926328
3214,7,Jits_ISO_8,56,9999,9999,9999,1744726108
3214,7,Jits_ISO_8,57,9999,9999,9999,1745526864
3214,7,Jits_ISO_8,58,9999,9999,9999,1746326644
3214,7,Jits_ISO_8,59,9999,9999,9999,1747126364
3214,7,Jits_ISO_8,60,9999,9999,9999,1747926088
3214,7,Jits_ISO_8,61,9999,9999,9999,1748726864
3214,7,Jits_ISO_8,62,9999,9999,9999,1749526608
3214,7,Jits_ISO_8,63,9999,9999,9999,1750326392
3214,7,Jits_ISO_8,64,9999,9999,9999,1751126132
3214,7,Jits_ISO_8,65,9999,9999,9999,1751926848
3214,7,Jits_ISO_8,66,9999,9999,9999,1752726636
3214,7,Jits_ISO_8,67,9999,9999,9999,1753526368
3214,7,Jits_ISO_8,68,9999,9999,9999,1754326080
3214,7,Jits_ISO_8,69,9999,9999,9999,1755126856
3214,7,Jits_ISO_8,70,9999,9999,9999,1755926588
3214,7,Jits_ISO_8,71,9999,9999,9999,1756726336
3214,7,Jits_ISO_8,72,9999,9999,9999,1757526132
3214,7,Jits_ISO_8,73,9999,9999,9999,1758326840
3214,7,Jits_ISO_8,74,9999,9999,9999,1759126580
3214,7,Jits_ISO_8,75,9999,9999,9999,1759926344
3214,7,Jits_ISO_8,76,9999,9999,9999,1760726088
3214,7,Jits_ISO_8,77,9999,9999,9999,1761526848
3214,7,Jits_ISO_8,78,9999,9999,9999,1762326624
3214,7,Jits_ISO_8,79,9999,9999,9999,1763126352
3214,7,Jits_ISO_8,80,9999,9999,9999,1763926088
3214,7,Jits_ISO_8,81,9999,9999,9999,1764726868
3214,7,Jits_ISO_8,82,9999,9999,9999,1765526584
3214,7,Jits_ISO_8,83,9999,9999,9999,1766326376
3214,7,Jits_ISO_8,84,9999,9999,9999,1767126104
3214,7,Jits_ISO_8,85,9999,9999,9999,1767926884
3214,7,Jits_ISO_8,86,9999,9999,9999,1768726632
3214,7,Jits_ISO_8,87,9999,9999,9999,1769526328
3214,7,Jits_ISO_8,88,9999,9999,9999,1770326116
3214,7,Jits_ISO_8,89,9999,9999,9999,1771126884
3214,7,Jits_ISO_8,90,9999,9999,9999,1771926652
3214,7,Jits_ISO_8,91,9999,9999,9999,1772726336
3214,7,Jits_ISO_8,92,9999,9999,9999,1773526092
3214,7,Jits_ISO_8,93,9999,9999,9999,1774326872
3214,7,Jits_ISO_8,94,9999,9999,9999,1775126616
3214,7,Jits_ISO_8,95,9999,9999,9999,1775926328
3214,7,Jits_ISO_8,96,9999,9999,9999,1776726132
3214,7,Jits_ISO_8,97,9999,9999,9999,1777526844
3214,7,Jits_ISO_8,98,9999,9999,9999,1778326580
3214,7,Jits_ISO_8,99,9999,9999,9999,1779126372
3214,7,Jits_ISO_8,100,9999,9999,9999,1779926096
3214,7,Jits_ISO_8,101,9999,9999,9999,1780726884
3214,7,Jits_ISO_8,102,9999,9999,9999,1781526636
3214,7,Jits_ISO_8,103,9999,9999,9999,1782326396
3214,7,Jits_ISO_8,104,9999,9999,9999,1783126132
3214,7,Jits_ISO_8,105,9999,9999,9999,1783926848
3214,7,Jits_ISO_8,106,9999,9999,9999,1784726652
3214,7,Jits_ISO_8,107,9999,9999,9999,1785526352
3214,7,Jits_ISO_8,108,9999,9999,9999,1786326076
3214,7,Jits_ISO_8,109,9999,9999,9999,1787126900
3214,7,Jits_ISO_8,110,9999,9999,9999,1787926612
3214,7,Jits_ISO_8,111,9999,9999,9999,1788726348
3214,7,Jits_ISO_8,112,9999,9999,9999,1789526076
3214,7,Jits_ISO_8,113,9999,9999,9999,1790326860
3214,7,Jits_ISO_8,114,9999,9999,9999,1791126592
3214,7,Jits_ISO_8,115,9999,9999,9999,1791926384
3214,7,Jits_ISO_8,116,9999,9999,9999,1792726100
3214,7,Jits_ISO_8,117,9999,9999,9999,1793526888
3214,7,Jits_ISO_8,118,9999,9999,9999,1794326648
3214,7,Jits_ISO_8,119,9999,9999,9999,1795126376
3215,16,Jits_ISO_5,0,5,56,103,1817918724
3215,16,Jits_ISO_5,1,5,63,98,1817921900
3215,16,Jits_ISO_5,2,5,80,127,1817925024
3215,16,Jits_ISO_5,0,5,56,103,1818418600
3215,16,Jits_ISO_5,1,5,63,98,1818421548
3215,16,Jits_ISO_5,2,5,80,127,1818424748
3215,16,Jits_ISO_5,0,5,56,103,1818928604
3215,16,Jits_ISO_5,1,5,80,127,1818938800
3215,16,Jits_ISO_5,2,5,63,98,1818959332
3215,16,Jits_ISO_5,0,5,63,98,1819378948
3215,16,Jits_ISO_5,1,5,80,127,1819408796
3215,16,Jits_ISO_5,2,5,56,103,1819418920
3215,16,Jits_ISO_5,0,1,48,80,1819920168
3215,16,Jits_ISO_5,1,5,80,127,1819939444
3215,16,Jits_ISO_5,2,5,56,103,1819949568
3215,16,Jits_ISO_5,3,5,63,98,1819979316
3215,16,Jits_ISO_5,0,5,63,98,1820428704
3215,16,Jits_ISO_5,1,5,56,103,1820459352
3215,16,Jits_ISO_5,2,5,80,127,1820468572
3215,16,Jits_ISO_5,3,1,48,98,1820484420
3215,16,Jits_ISO_5,4,1,48,52,1820521564
3215,16,Jits_ISO_5,0,5,56,103,1820879424
3215,16,Jits_ISO_5,1,5,63,98,1820929404
3215,16,Jits_ISO_5,2,5,80,127,1820948840
3215,16,Jits_ISO_5,3,1,48,92,1820968368
3215,16,Jits_ISO_5,4,1,48,57,1820997116
3215,16,Jits_ISO_5,0,5,80,127,1821378816
3215,16,Jits_ISO_5,1,5,63,98,1821429088
3215,16,Jits_ISO_5,2,1,48,110,1821439628
3215,16,Jits_ISO_5,3,5,56,103,1821468968
3215,16,Jits_ISO_5,4,1,48,65,1821470820
3215,16,Jits_ISO_5,0,5,56,103,1821878592
3215,16,Jits_ISO_5,1,5,63,98,1821909384
3215,16,Jits_ISO_5,2,1,48,107,1821955048
3215,16,Jits_ISO_5,3,5,80,127,1821978932
3215,16,Jits_ISO_5,0,5,56,103,1822379324
3215,16,Jits_ISO_5,1,1,48,124,1822431288
3215,16,Jits_ISO_5,2,5,80,127,1822438880
3215,16,Jits_ISO_5,3,5,63,98,1822468332
3215,16,Jits_ISO_5,0,5,56,103,1822889420
3215,16,Jits_ISO_5,1,5,63,98,1822898492
3215,16,Jits_ISO_5,2,5,80,127,1822938428
3215,16,Jits_ISO_5,3,1,48,107,1822942744
3215,16,Jits_ISO_5,4,1,38,21,1822952612
3215,16,Jits_ISO_5,0,5,63,98,1823378972
3215,16,Jits_ISO_5,1,1,48,104,1823430044
3215,16,Jits_ISO_5,2,5,80,127,1823458760
3215,16,Jits_ISO_5,3,5,56,103,1823468880
3215,16,Jits_ISO_5,0,1,48,116,1823928312
3215,16,Jits_ISO_5,1,5,63,98,1823930104
3215,16,Jits_ISO_5,2,5,56,103,1823968620
3215,16,Jits_ISO_5,3,5,80,127,1823971688
3215,16,Jits_ISO_5,0,5,56,103,1824388440
3215,16,Jits_ISO_5,1,5,63,98,1824398560
3215,16,Jits_ISO_5,2,5,80,127,1824438644
3215,16,Jits_ISO_5,3,1,48,111,1824474196
3215,16,Jits_ISO_5,0,5,56,103,1824878976
3215,16,Jits_ISO_5,1,5,63,98,1824881968
3215,16,Jits_ISO_5,2,5,80,127,1824898460
3215,16,Jits_ISO_5,3,1,48,127,1824951696
3215,16,Jits_ISO_5,0,5,80,127,1825389132
3215,16,Jits_ISO_5,1,5,56,103,1825399252
3215,16,Jits_ISO_5,2,1,48,127,1825420876
3215,16,Jits_ISO_5,3,5,63,98,1825468700
3215,16,Jits_ISO_5,0,5,63,98,1825879376
3215,16,Jits_ISO_5,1,5,56,103,1825899084
3215,16,Jits_ISO_5,2,1,48,127,1825946168
3215,16,Jits_ISO_5,3,5,80,127,1825979088
3215,16,Jits_ISO_5,0,5,56,103,1826389232
3215,16,Jits_ISO_5,1,1,48,116,1826421420
3215,16,Jits_ISO_5,2,5,80,127,1826429236
3215,16,Jits_ISO_5,3,1,38,25,1826432060
3215,16,Jits_ISO_5,4,5,63,98,1826438456
3215,16,Jits_ISO_5,0,5,80,127,1826879028
3215,16,Jits_ISO_5,1,5,63,98,1826908628
3215,16,Jits_ISO_5,2,1,48,127,1826912424
3215,16,Jits_ISO_5,3,1,38,26,1826922436
3215,16,Jits_ISO_5,4,5,56,103,1826948388
3215,16,Jits_ISO_5,0,5,56,103,1827398932
3215,16,Jits_ISO_5,1,1,48,127,1827410816
3215,16,Jits_ISO_5,2,5,63,98,1827428824
3215,16,Jits_ISO_5,3,5,80,127,1827479096
3215,16,Jits_ISO_5,0,5,80,127,1827898692
3215,16,Jits_ISO_5,1,1,48,122,1827914988
3215,16,Jits_ISO_5,2,1,38,25,1827924708
3215,16,Jits_ISO_5,3,5,56,103,1827938604
3215,16,Jits_ISO_5,4,5,63,98,1827948872
3215,16,Jits_ISO_5,0,5,80,127,1828378956
3215,16,Jits_ISO_5,1,5,63,98,1828418896
3215,16,Jits_ISO_5,2,1,48,103,1828428912
3215,16,Jits_ISO_5,3,1,38,24,1828438856
3215,16,Jits_ISO_5,4,5,56,103,1828479256
3215,16,Jits_ISO_5,0,5,56,103,1828878636
3215,16,Jits_ISO_5,1,5,80,127,1828888904
3215,16,Jits_ISO_5,2,1,48,93,1828932252
3215,16,Jits_ISO_5,3,1,38,21,1828942120
3215,16,Jits_ISO_5,4,5,63,98,1828968892
3215,16,Jits_ISO_5,0,5,80,127,1829378344
3215,16,Jits_ISO_5,1,1,48,124,1829417380
3215,16,Jits_ISO_5,2,5,63,98,1829439048
3215,16,Jits_ISO_5,3,5,56,103,1829468424
3215,16,Jits_ISO_5,0,5,56,103,1829879076
3215,16,Jits_ISO_5,1,1,48,127,1829929568
3215,16,Jits_ISO_5,2,5,80,127,1829938512
3215,16,Jits_ISO_5,3,1,38,25,1829939996
3215,16,Jits_ISO_5,4,5,63,98,1829978440
3215,16,Jits_ISO_5,0,5,56,103,1830429136
3215,16,Jits_ISO_5,1,1,48,111,1830435540
3215,16,Jits_ISO_5,2,5,63,98,1830439468
3215,16,Jits_ISO_5,3,5,80,127,1830442760
3215,16,Jits_ISO_5,4,1,38,24,1830445284
3215,16,Jits_ISO_5,0,5,80,127,1830878516
3215,16,Jits_ISO_5,1,1,48,127,1830933648
3215,16,Jits_ISO_5,2,5,63,98,1830969036
3215,16,Jits_ISO_5,3,5,56,103,1830979008
3215,16,Jits_ISO_5,0,5,56,103,1831379384
3215,16,Jits_ISO_5,1,5,63,98,1831382636
3215,16,Jits_ISO_5,2,5,80,127,1831385680
3215,16,Jits_ISO_5,3,1,48,127,1831468916
3215,16,Jits_ISO_5,4,1,38,25,1831478712
3215,16,Jits_ISO_5,0,5,80,127,1831898600
3215,16,Jits_ISO_5,1,1,48,127,1831931460
3215,16,Jits_ISO_5,2,5,63,98,1831948892
3215,16,Jits_ISO_5,3,5,56,103,1831979316
3215,16,Jits_ISO_5,0,5,56,103,1832378732
3215,16,Jits_ISO_5,1,5,80,127,1832388852
3215,16,Jits_ISO_5,2,1,48,127,1832430856
3215,16,Jits_ISO_5,3,1,38,27,1832441024
3215,16,Jits_ISO_5,4,1,48,67,1832458184
3215,16,Jits_ISO_5,5,5,63,98,1832459828
3215,16,Jits_ISO_5,0,5,56,103,1832888884
3215,16,Jits_ISO_5,1,5,63,98,1832909268
3215,16,Jits_ISO_5,2,1,48,127,1832921972
3215,16,Jits_ISO_5,3,5,80,127,1832968524
3215,16,Jits_ISO_5,0,5,80,127,1833379124
3215,16,Jits_ISO_5,1,1,48,127,1833401352
3215,16,Jits_ISO_5,2,1,38,28,1833411816
3215,16,Jits_ISO_5,3,5,63,98,1833448776
3215,16,Jits_ISO_5,4,5,56,103,1833469308
3215,16,Jits_ISO_5,0,5,80,127,1833899328
3215,16,Jits_ISO_5,1,5,56,103,1833908772
3215,16,Jits_ISO_5,2,5,63,98,1833918744
3215,16,Jits_ISO_5,3,1,48,127,1833924404
3215,16,Jits_ISO_5,4,1,38,27,1833934348
3215,16,Jits_ISO_5,0,5,80,127,1834388736
3215,16,Jits_ISO_5,1,1,48,127,1834405408
3215,16,Jits_ISO_5,2,5,56,103,1834409188
3215,16,Jits_ISO_5,3,1,38,26,1834415744
3215,16,Jits_ISO_5,4,5,63,98,1834479004
3215,16,Jits_ISO_5,0,5,56,103,1834898700
3215,16,Jits_ISO_5,1,1,48,127,1834924440
3215,16,Jits_ISO_5,2,5,80,127,1834928664
3215,16,Jits_ISO_5,3,5,63,98,1834948976
3215,16,Jits_ISO_5,0,5,63,98,1835389468
3215,16,Jits_ISO_5,1,1,48,127,1835416724
3215,16,Jits_ISO_5,2,1,48,77,1835442908
3215,16,Jits_ISO_5,3,5,56,103,1835448856
3215,16,Jits_ISO_5,4,5,80,127,1835479580
3215,16,Jits_ISO_5,0,5,63,98,1835878744
3215,16,Jits_ISO_5,1,5,80,127,1835882108
3215,16,Jits_ISO_5,2,1,48,127,1835893244
3215,16,Jits_ISO_5,3,5,56,103,1835968788
3215,16,Jits_ISO_5,0,5,56,103,1836398928
3215,16,Jits_ISO_5,1,1,48,127,1836407520
3215,16,Jits_ISO_5,2,5,63,98,1836428820
3215,16,Jits_ISO_5,3,5,80,127,1836468680
3215,16,Jits_ISO_5,0,1,48,127,1836886604
3215,16,Jits_ISO_5,1,5,63,98,1836898536
3215,16,Jits_ISO_5,2,5,56,103,1836938696
3215,16,Jits_ISO_5,3,5,80,127,1836959080
3215,16,Jits_ISO_5,0,1,48,127,1837384848
3215,16,Jits_ISO_5,1,5,63,98,1837408560
3215,16,Jits_ISO_5,2,5,56,103,1837448644
3215,16,Jits_ISO_5,3,5,80,127,1837458916
3215,16,Jits_ISO_5,0,5,80,127,1837888772
3215,16,Jits_ISO_5,1,1,48,127,1837900732
3215,16,Jits_ISO_5,2,5,63,98,1837958744
3215,16,Jits_ISO_5,3,5,56,103,1837978904
3215,16,Jits_ISO_5,0,5,56,103,1838379540
3215,16,Jits_ISO_5,1,5,80,127,1838398804
3215,16,Jits_ISO_5,2,1,48,127,1838426188
3215,16,Jits_ISO_5,3,5,63,98,1838438808
3215,16,Jits_ISO_5,4,1,48,37,1838481088
3215,16,Jits_ISO_5,0,5,63,98,1838889276
3215,16,Jits_ISO_5,1,5,80,127,1838908912
3215,16,Jits_ISO_5,2,1,48,127,1838923640
3215,16,Jits_ISO_5,3,5,56,103,1838948844
3215,16,Jits_ISO_5,4,1,48,51,1838966248
3215,16,Jits_ISO_5,0,5,63,98,1839389040
3215,16,Jits_ISO_5,1,1,48,127,1839405636
3215,16,Jits_ISO_5,2,5,56,103,1839408444
3215,16,Jits_ISO_5,3,5,80,127,1839418712
3215,16,Jits_ISO_5,0,5,80,127,1839888780
3215,16,Jits_ISO_5,1,1,48,127,1839897828
3215,16,Jits_ISO_5,2,1,38,29,1839908016
3215,16,Jits_ISO_5,3,5,56,103,1839910632
3215,16,Jits_ISO_5,4,1,48,57,1839937668
3215,16,Jits_ISO_5,5,5,63,98,1839938868
3215,16,Jits_ISO_5,0,1,48,127,1840398480
3215,16,Jits_ISO_5,1,1,38,29,1840408568
3215,16,Jits_ISO_5,2,5,56,103,1840459088
3215,16,Jits_ISO_5,3,5,80,127,1840462380
3215,16,Jits_ISO_5,4,5,63,98,1840478724
3215,16,Jits_ISO_5,0,5,63,98,1840878896
3215,16,Jits_ISO_5,1,5,56,103,1840908524
3215,16,Jits_ISO_5,2,1,48,127,1840930148
3215,16,Jits_ISO_5,3,1,38,25,1840940244
3215,16,Jits_ISO_5,4,5,80,127,1840968960
3215,16,Jits_ISO_5,5,1,48,45,1840974452
3215,16,Jits_ISO_5,0,1,48,127,1841407836
3215,16,Jits_ISO_5,1,1,38,27,1841418344
3215,16,Jits_ISO_5,2,5,63,98,1841458524
3215,16,Jits_ISO_5,3,5,56,103,1841468720
3215,16,Jits_ISO_5,4,5,80,127,1841478916
3215,16,Jits_ISO_5,0,1,48,98,1841907468
3215,16,Jits_ISO_5,1,5,56,103,1841909348
3215,16,Jits_ISO_5,2,1,38,22,1841917796
3215,16,Jits_ISO_5,3,5,80,127,1841938744
3215,16,Jits_ISO_5,4,5,63,98,1841949164
3215,16,Jits_ISO_5,0,1,48,127,1842441896
3215,16,Jits_ISO_5,1,5,63,98,1842448892
3215,16,Jits_ISO_5,2,1,38,28,1842452384
3215,16,Jits_ISO_5,3,5,56,103,1842458856
3215,16,Jits_ISO_5,4,5,80,127,1842478416
3215,16,Jits_ISO_5,0,5,56,103,1842878888
3215,16,Jits_ISO_5,1,5,63,98,1842939280
3215,16,Jits_ISO_5,2,5,80,127,1842942420
3215,16,Jits_ISO_5,3,1,48,108,1842947500
3215,16,Jits_ISO_5,0,5,80,127,1843399244
3215,16,Jits_ISO_5,1,5,56,103,1843409440
3215,16,Jits_ISO_5,2,1,48,127,1843429868
3215,16,Jits_ISO_5,3,5,63,98,1843478760
3215,16,Jits_ISO_5,0,5,80,127,1843888440
3215,16,Jits_ISO_5,1,1,48,127,1843929016
3215,16,Jits_ISO_5,2,5,56,103,1843959160
3215,16,Jits_ISO_5,3,5,63,98,1843969504
3215,16,Jits_ISO_5,4,1,48,54,1843982672
3215,16,Jits_ISO_5,0,5,63,98,1844429416
3215,16,Jits_ISO_5,1,1,48,127,1844432088
3215,16,Jits_ISO_5,2,5,56,103,1844439308
3215,16,Jits_ISO_5,3,5,80,127,1844458792
3215,16,Jits_ISO_5,0,5,80,127,1844878596
3215,16,Jits_ISO_5,1,1,48,92,1844929064
3215,16,Jits_ISO_5,2,5,63,98,1844939200
3215,16,Jits_ISO_5,3,5,56,103,1844978988
3215,16,Jits_ISO_5,0,5,56,103,1845419320
3215,16,Jits_ISO_5,1,5,63,98,1845428544
3215,16,Jits_ISO_5,2,1,48,127,1845455256
3215,16,Jits_ISO_5,3,5,80,127,1845468624
3215,16,Jits_ISO_5,0,5,56,103,1845879300
3215,16,Jits_ISO_5,1,5,80,127,1845908900
3215,16,Jits_ISO_5,2,1,48,127,1845941084
3215,16,Jits_ISO_5,3,5,63,98,1845959312
3215,16,Jits_ISO_5,4,1,48,43,1845995524
3215,16,Jits_ISO_5,0,5,56,103,1846418780
3215,16,Jits_ISO_5,1,1,48,127,1846447528
3215,16,Jits_ISO_5,2,5,63,98,1846458784
3215,16,Jits_ISO_5,3,5,80,127,1846462220
3215,16,Jits_ISO_5,0,5,56,103,1846918456
3215,16,Jits_ISO_5,1,1,48,127,1846919868
3215,16,Jits_ISO_5,2,5,63,98,1846928644
3215,16,Jits_ISO_5,3,5,80,127,1846949400
3215,16,Jits_ISO_5,0,5,56,103,1847379252
3215,16,Jits_ISO_5,1,5,80,127,1847382316
3215,16,Jits_ISO_5,2,1,48,127,1847412556
3215,16,Jits_ISO_5,3,5,63,98,1847419180
3215,16,Jits_ISO_5,0,1,48,127,1847898592
3215,16,Jits_ISO_5,1,5,63,98,1847918920
3215,16,Jits_ISO_5,2,5,56,103,1847948520
3215,16,Jits_ISO_5,3,5,80,127,1847969200
3215,16,Jits_ISO_5,0,5,80,127,1848389016
3215,16,Jits_ISO_5,1,1,48,118,1848394156
3215,16,Jits_ISO_5,2,5,56,103,1848399356
3215,16,Jits_ISO_5,3,5,63,98,1848408432
3215,16,Jits_ISO_5,0,1,48,127,1848870680
3215,16,Jits_ISO_5,1,5,56,103,1848888764
3215,16,Jits_ISO_5,2,5,80,127,1848928480
3215,16,Jits_ISO_5,3,5,63,98,1848959272
3215,16,Jits_ISO_5,0,1,48,127,1849383916
3215,16,Jits_ISO_5,1,5,63,98,1849398636
3215,16,Jits_ISO_5,2,5,80,127,1849409052
3215,16,Jits_ISO_5,3,5,56,103,1849419324
3215,16,Jits_ISO_5,0,1,48,127,1849878544
3215,16,Jits_ISO_5,1,5,56,103,1849880256
3215,16,Jits_ISO_5,2,5,63,98,1849948516
3215,16,Jits_ISO_5,3,5,80,127,1849958784
3215,16,Jits_ISO_5,0,5,80,127,1850378600
3215,16,Jits_ISO_5,1,5,56,103,1850389092
3215,16,Jits_ISO_5,2,1,48,127,1850403224
3215,16,Jits_ISO_5,3,1,38,27,1850413168
3215,16,Jits_ISO_5,4,5,63,98,1850438968
3215,16,Jits_ISO_5,5,1,48,44,1850446556
3215,16,Jits_ISO_5,0,1,48,127,1850888844
3215,16,Jits_ISO_5,1,5,80,127,1850890264
3215,16,Jits_ISO_5,2,5,56,103,1850949152
3215,16,Jits_ISO_5,3,5,63,98,1850978604
3215,16,Jits_ISO_5,0,5,56,103,1851389252
3215,16,Jits_ISO_5,1,5,80,127,1851392468
3215,16,Jits_ISO_5,2,1,48,127,1851395512
3215,16,Jits_ISO_5,3,5,63,98,1851429132
3215,16,Jits_ISO_5,4,1,48,38,1851451112
3215,16,Jits_ISO_5,0,1,48,127,1851882616
3215,16,Jits_ISO_5,1,5,56,103,1851918924
3215,16,Jits_ISO_5,2,5,63,98,1851949428
3215,16,Jits_ISO_5,3,5,80,127,1851958576
3215,16,Jits_ISO_5,0,1,48,106,1852379236
3215,16,Jits_ISO_5,1,1,38,24,1852389176
3215,16,Jits_ISO_5,2,5,63,98,1852428632
3215,16,Jits_ISO_5,3,5,80,127,1852439052
3215,16,Jits_ISO_5,4,5,56,103,1852449100
3215,16,Jits_ISO_5,0,5,80,127,1852879156
3215,16,Jits_ISO_5,1,1,48,109,1852880120
3215,16,Jits_ISO_5,2,5,56,103,1852929424
3215,16,Jits_ISO_5,3,5,63,98,1852932488
3215,16,Jits_ISO_5,0,1,48,127,1853372576
3215,16,Jits_ISO_5,1,5,56,103,1853408716
3215,16,Jits_ISO_5,2,1,48,48,1853413984
3215,16,Jits_ISO_5,3,5,80,127,1853429000
3215,16,Jits_ISO_5,4,5,63,98,1853439420
3215,16,Jits_ISO_5,0,1,48,127,1853862160
3215,16,Jits_ISO_5,1,5,63,98,1853888860
3215,16,Jits_ISO_5,2,5,56,103,1853918460
3215,16,Jits_ISO_5,3,5,80,127,1853939068
3215,16,Jits_ISO_5,0,1,48,120,1854364884
3215,16,Jits_ISO_5,1,1,38,24,1854375052
3215,16,Jits_ISO_5,2,5,56,103,1854398984
3215,16,Jits_ISO_5,3,5,80,127,1854409028
3215,16,Jits_ISO_5,4,5,63,98,1854478912
3215,16,Jits_ISO_5,0,5,63,98,1854889316
3215,16,Jits_ISO_5,1,1,48,127,1854897168
3215,16,Jits_ISO_5,2,5,80,127,1854929396
3215,16,Jits_ISO_5,3,5,56,103,1854969332
3215,16,Jits_ISO_5,0,5,56,103,1855399176
3215,16,Jits_ISO_5,1,1,48,127,1855406428
3215,16,Jits_ISO_5,2,5,63,98,1855408392
3215,16,Jits_ISO_5,3,5,80,127,1855428924
3215,16,Jits_ISO_5,0,1,48,124,1855898452
3215,16,Jits_ISO_5,1,1,38,25,1855908024
3215,16,Jits_ISO_5,2,5,63,98,1855939064
3215,16,Jits_ISO_5,3,5,80,127,1855959376
3215,16,Jits_ISO_5,4,5,56,103,1855979008
3215,16,Jits_ISO_5,0,5,56,103,1856379208
3215,16,Jits_ISO_5,1,1,48,127,1856419560
3215,16,Jits_ISO_5,2,5,80,127,1856459144
3215,16,Jits_ISO_5,3,5,63,98,1856469336
3215,16,Jits_ISO_5,0,1,48,127,1856918144
3215,16,Jits_ISO_5,1,5,80,127,1856919936
3215,16,Jits_ISO_5,2,5,63,98,1856929084
3215,16,Jits_ISO_5,3,5,56,103,1856958980
3215,16,Jits_ISO_5,0,5,63,98,1857378648
3215,16,Jits_ISO_5,1,1,48,127,1857406852
3215,16,Jits_ISO_5,2,5,80,127,1857418580
3215,16,Jits_ISO_5,3,5,56,103,1857479116
3215,16,Jits_ISO_5,0,5,63,98,1857888804
3215,16,Jits_ISO_5,1,1,48,120,1857912152
3215,16,Jits_ISO_5,2,5,56,103,1857938776
3215,16,Jits_ISO_5,3,5,80,127,1857968748
3215,16,Jits_ISO_5,0,1,48,127,1858398292
3215,16,Jits_ISO_5,1,5,80,127,1858400004
3215,16,Jits_ISO_5,2,5,63,98,1858408704
3215,16,Jits_ISO_5,3,5,56,103,1858478528
3215,16,Jits_ISO_5,0,1,48,127,1858915236
3215,16,Jits_ISO_5,1,5,80,127,1858968844
3215,16,Jits_ISO_5,2,5,56,103,1858979112
3215,16,Jits_ISO_5,3,5,63,98,1858982548
3215,16,Jits_ISO_5,0,5,56,103,1859409192
3215,16,Jits_ISO_5,1,1,48,127,1859423252
3215,16,Jits_ISO_5,2,5,80,127,1859428820
3215,16,Jits_ISO_5,3,5,63,98,1859438868
3215,16,Jits_ISO_5,4,1,48,48,1859467220
3215,16,Jits_ISO_5,0,1,48,127,1859914544
3215,16,Jits_ISO_5,1,5,63,98,1859919152
3215,16,Jits_ISO_5,2,1,48,53,1859952672
3215,16,Jits_ISO_5,3,5,56,103,1859959068
3215,16,Jits_ISO_5,4,5,80,127,1859978628
3215,16,Jits_ISO_5,0,5,63,98,1860419008
3215,16,Jits_ISO_5,1,1,48,127,1860421832
3215,16,Jits_ISO_5,2,1,48,47,1860474020
3215,16,Jits_ISO_5,3,5,56,103,1860479440
3215,16,Jits_ISO_5,4,5,80,127,1860482508
3215,16,Jits_ISO_5,0,5,56,103,1860878756
3215,16,Jits_ISO_5,1,5,80,127,1860899140
3215,16,Jits_ISO_5,2,1,48,122,1860920092
3215,16,Jits_ISO_5,3,1,38,25,1860930636
3215,16,Jits_ISO_5,4,5,63,98,1860939348
3215,16,Jits_ISO_5,5,1,48,51,1860955632
3215,16,Jits_ISO_5,0,1,48,127,1861409528
3215,16,Jits_ISO_5,1,5,56,103,1861410792
3215,16,Jits_ISO_5,2,5,63,98,1861428784
3215,16,Jits_ISO_5,3,5,80,127,1861438760
3215,16,Jits_ISO_5,0,5,80,127,1861879220
3215,16,Jits_ISO_5,1,1,48,127,1861904464
3215,16,Jits_ISO_5,2,5,56,103,1861908768
3215,16,Jits_ISO_5,3,1,48,58,1861941464
3215,16,Jits_ISO_5,4,5,63,98,1861948756
3215,16,Jits_ISO_5,0,5,80,127,1862389108
3215,16,Jits_ISO_5,1,1,48,127,1862400324
3215,16,Jits_ISO_5,2,5,56,103,1862408536
3215,16,Jits_ISO_5,3,5,63,98,1862468924
3215,16,Jits_ISO_5,4,1,48,37,1862473520
3215,16,Jits_ISO_5,0,1,48,127,1862896708
3215,16,Jits_ISO_5,1,5,56,103,1862899212
3215,16,Jits_ISO_5,2,5,80,127,1862918700
3215,16,Jits_ISO_5,3,5,63,98,1862978812
3215,16,Jits_ISO_5,0,5,80,127,1863379572
3215,16,Jits_ISO_5,1,5,56,103,1863388424
3215,16,Jits_ISO_5,2,1,48,127,1863415804
3215,16,Jits_ISO_5,3,5,63,98,1863428428
3215,16,Jits_ISO_5,0,5,63,98,1863878880
3215,16,Jits_ISO_5,1,1,48,127,1863907852
3215,16,Jits_ISO_5,2,5,56,103,1863918876
3215,16,Jits_ISO_5,3,5,80,127,1863922100
3215,16,Jits_ISO_5,0,5,63,98,1864399432
3215,16,Jits_ISO_5,1,1,48,127,1864408776
3215,16,Jits_ISO_5,2,5,80,127,1864439292
3215,16,Jits_ISO_5,3,1,48,50,1864460332
3215,16,Jits_ISO_5,4,5,56,103,1864468744
3215,16,Jits_ISO_5,0,5,56,103,1864888636
3215,16,Jits_ISO_5,1,5,63,98,1864898980
3215,16,Jits_ISO_5,2,1,48,127,1864920004
3215,16,Jits_ISO_5,3,5,80,127,1864928500
3215,16,Jits_ISO_5,4,1,38,28,1864930436
3215,16,Jits_ISO_5,0,5,80,127,1865379324
3215,16,Jits_ISO_5,1,1,48,127,1865413832
3215,16,Jits_ISO_5,2,5,63,98,1865448700
3215,16,Jits_ISO_5,3,5,56,103,1865459192
3215,16,Jits_ISO_5,0,5,63,98,1865879084
3215,16,Jits_ISO_5,1,1,48,127,1865917724
3215,16,Jits_ISO_5,2,1,38,27,1865927660
3215,16,Jits_ISO_5,3,5,56,103,1865948512
3215,16,Jits_ISO_5,4,5,80,127,1865958784
3215,16,Jits_ISO_5,5,1,48,40,1865979640
3215,16,Jits_ISO_5,0,5,63,98,1866378536
3215,16,Jits_ISO_5,1,5,56,103,1866399220
3215,16,Jits_ISO_5,2,1,48,127,1866419944
3215,16,Jits_ISO_5,3,5,80,127,1866439148
3215,16,Jits_ISO_5,0,5,56,103,1866888540
3215,16,Jits_ISO_5,1,1,48,127,1866895024
3215,16,Jits_ISO_5,2,5,63,98,1866898732
3215,16,Jits_ISO_5,3,1,48,41,1866954868
3215,16,Jits_ISO_5,4,5,80,127,1866978796
3215,16,Jits_ISO_5,0,5,63,98,1867379244
3215,16,Jits_ISO_5,1,5,56,103,1867408624
3215,16,Jits_ISO_5,2,1,48,127,1867414808
3215,16,Jits_ISO_5,3,5,80,127,1867448628
3215,16,Jits_ISO_5,0,5,56,103,1867878836
3215,16,Jits_ISO_5,1,1,48,127,1867917032
3215,16,Jits_ISO_5,2,5,63,98,1867918620
3215,16,Jits_ISO_5,3,5,80,127,1867958632
3215,16,Jits_ISO_5,0,5,80,127,1868378444
3215,16,Jits_ISO_5,1,1,48,127,1868402536
3215,16,Jits_ISO_5,2,5,56,103,1868459428
3215,16,Jits_ISO_5,3,5,63,98,1868468576
3215,16,Jits_ISO_5,0,1,48,127,1868911356
3215,16,Jits_ISO_5,1,5,56,103,1868919248
3215,16,Jits_ISO_5,2,5,63,98,1868922240
3215,16,Jits_ISO_5,3,5,80,127,1868929372
3215,16,Jits_ISO_5,4,1,48,33,1868970008
3215,16,Jits_ISO_5,0,1,48,127,1869408252
3215,16,Jits_ISO_5,1,5,56,103,1869439292
3215,16,Jits_ISO_5,2,5,63,98,1869458928
3215,16,Jits_ISO_5,3,5,80,127,1869469124
3215,16,Jits_ISO_5,0,5,63,98,1869899128
3215,16,Jits_ISO_5,1,5,80,127,1869909472
3215,16,Jits_ISO_5,2,1,48,127,1869917992
3215,16,Jits_ISO_5,3,5,56,103,1869928804
3215,16,Jits_ISO_5,0,1,48,127,1870387236
3215,16,Jits_ISO_5,1,5,63,98,1870399012
3215,16,Jits_ISO_5,2,5,56,103,1870478804
3215,16,Jits_ISO_5,3,5,80,127,1870481800
3215,16,Jits_ISO_5,0,5,63,98,1870898476
3215,16,Jits_ISO_5,1,1,48,127,1870912080
3215,16,Jits_ISO_5,2,5,56,103,1870919224
3215,16,Jits_ISO_5,3,5,80,127,1870948748
3215,16,Jits_ISO_5,0,5,56,103,1871399264
3215,16,Jits_ISO_5,1,5,63,98,1871418676
3215,16,Jits_ISO_5,2,1,48,127,1871424112
3215,16,Jits_ISO_5,3,5,80,127,1871429016
3215,16,Jits_ISO_5,0,1,48,106,1871907012
3215,16,Jits_ISO_5,1,1,38,22,1871916880
3215,16,Jits_ISO_5,2,5,56,103,1871928816
3215,16,Jits_ISO_5,3,1,48,53,1871957084
3215,16,Jits_ISO_5,4,5,63,98,1871959440
3215,16,Jits_ISO_5,5,5,80,127,1871962800
3215,16,Jits_ISO_5,0,5,56,103,1872379128
3215,16,Jits_ISO_5,1,1,48,91,1872405112
3215,16,Jits_ISO_5,2,1,38,23,1872414912
3215,16,Jits_ISO_5,3,5,63,98,1872419136
3215,16,Jits_ISO_5,4,5,80,127,1872478552
3215,16,Jits_ISO_5,0,1,48,127,1872893880
3215,16,Jits_ISO_5,1,5,56,103,1872898340
3215,16,Jits_ISO_5,2,5,63,98,1872908780
3215,16,Jits_ISO_5,3,5,80,127,1872969020
3215,16,Jits_ISO_5,0,5,56,103,1873399076
3215,16,Jits_ISO_5,1,1,48,127,1873400044
3215,16,Jits_ISO_5,2,5,80,127,1873418504
3215,16,Jits_ISO_5,3,5,63,98,1873449376
3215,16,Jits_ISO_5,0,5,80,127,1873898984
3215,16,Jits_ISO_5,1,5,56,103,1873909180
3215,16,Jits_ISO_5,2,1,48,98,1873921440
3215,16,Jits_ISO_5,3,5,63,98,1873928608
3215,16,Jits_ISO_5,4,1,38,24,1873931504
3215,16,Jits_ISO_5,0,5,63,98,1874389288
3215,16,Jits_ISO_5,1,1,48,127,1874430468
3215,16,Jits_ISO_5,2,1,48,50,1874469088
3215,16,Jits_ISO_5,3,5,80,127,1874470500
3215,16,Jits_ISO_5,4,5,56,103,1874478376
3215,16,Jits_ISO_5,0,1,48,127,1874927528
3215,16,Jits_ISO_5,1,5,80,127,1874948528
3215,16,Jits_ISO_5,2,5,56,103,1874968988
3215,16,Jits_ISO_5,3,5,63,98,1874971904
3215,16,Jits_ISO_5,4,1,48,39,1874980704
3215,16,Jits_ISO_5,0,5,63,98,1875418464
3215,16,Jits_ISO_5,1,5,80,127,1875422052
3215,16,Jits_ISO_5,2,1,48,113,1875446444
3215,16,Jits_ISO_5,3,1,38,24,1875456556
3215,16,Jits_ISO_5,4,5,56,103,1875478996
3215,16,Jits_ISO_5,5,1,48,54,1875484640
3215,16,Jits_ISO_5,0,5,56,103,1875898800
3215,16,Jits_ISO_5,1,5,80,127,1875908920
3215,16,Jits_ISO_5,2,1,48,127,1875945292
3215,16,Jits_ISO_5,3,5,63,98,1875949072
3215,16,Jits_ISO_5,4,1,48,54,1875981192
3215,16,Jits_ISO_5,0,5,56,103,1876379092
3215,16,Jits_ISO_5,1,1,48,127,1876436964
3215,16,Jits_ISO_5,2,5,63,98,1876439624
3215,16,Jits_ISO_5,3,1,38,27,1876447344
3215,16,Jits_ISO_5,4,5,80,127,1876449964
3215,16,Jits_ISO_5,5,1,48,57,1876468808
3215,16,Jits_ISO_5,0,5,63,98,1876889060
3215,16,Jits_ISO_5,1,5,80,127,1876928996
3215,16,Jits_ISO_5,2,1,48,127,1876939016
3215,16,Jits_ISO_5,3,5,56,103,1876969000
3215,16,Jits_ISO_5,4,1,48,55,1876975096
3215,16,Jits_ISO_5,0,5,56,103,1877388596
3215,16,Jits_ISO_5,1,1,48,119,1877418168
3215,16,Jits_ISO_5,2,1,38,25,1877428484
3215,16,Jits_ISO_5,3,1,48,50,1877453100
3215,16,Jits_ISO_5,4,5,63,98,1877468488
3215,16,Jits_ISO_5,5,5,80,127,1877471924
3215,16,Jits_ISO_5,0,9999,9999,9999,1818166380
3215,16,Jits_ISO_5,1,9999,9999,9999,1818667076
3215,16,Jits_ISO_5,2,9999,9999,9999,1819177084
3215,16,Jits_ISO_5,3,9999,9999,9999,1819676744
3215,16,Jits_ISO_5,4,9999,9999,9999,1820176452
3215,16,Jits_ISO_5,5,9999,9999,9999,1820676216
3215,16,Jits_ISO_5,6,9999,9999,9999,1821176932
3215,16,Jits_ISO_5,7,9999,9999,9999,1821676620
3215,16,Jits_ISO_5,8,9999,9999,9999,1822176340
3215,16,Jits_ISO_5,9,9999,9999,9999,1822677072
3215,16,Jits_ISO_5,10,9999,9999,9999,1823176784
3215,16,Jits_ISO_5,11,9999,9999,9999,1823676504
3215,16,Jits_ISO_5,12,9999,9999,9999,1824176244
3215,16,Jits_ISO_5,13,9999,9999,9999,1824676972
3215,16,Jits_ISO_5,14,9999,9999,9999,1825176640
3215,16,Jits_ISO_5,15,9999,9999,9999,1825676396
3215,16,Jits_ISO_5,16,9999,9999,9999,1826176080
3215,16,Jits_ISO_5,17,9999,9999,9999,1826676836
3215,16,Jits_ISO_5,18,9999,9999,9999,1827176508
3215,16,Jits_ISO_5,19,9999,9999,9999,1827676232
3215,16,Jits_ISO_5,20,9999,9999,9999,1828176988
3215,16,Jits_ISO_5,21,9999,9999,9999,1828676664
3215,16,Jits_ISO_5,22,9999,9999,9999,1829176412
3215,16,Jits_ISO_5,23,9999,9999,9999,1829676124
3215,16,Jits_ISO_5,24,9999,9999,9999,1830176892
3215,16,Jits_ISO_5,25,9999,9999,9999,1830676572
3215,16,Jits_ISO_5,26,9999,9999,9999,1831176272
3215,16,Jits_ISO_5,27,9999,9999,9999,1831677008
3215,16,Jits_ISO_5,28,9999,9999,9999,1832176724
3215,16,Jits_ISO_5,29,9999,9999,9999,1832676464
3215,16,Jits_ISO_5,30,9999,9999,9999,1833176148
3215,16,Jits_ISO_5,31,9999,9999,9999,1833676904
3215,16,Jits_ISO_5,32,9999,9999,9999,1834176576
3215,16,Jits_ISO_5,33,9999,9999,9999,1834676276
3215,16,Jits_ISO_5,34,9999,9999,9999,1835177048
3215,16,Jits_ISO_5,35,9999,9999,9999,1835676788
3215,16,Jits_ISO_5,36,9999,9999,9999,1836176488
3215,16,Jits_ISO_5,37,9999,9999,9999,1836676156
3215,16,Jits_ISO_5,38,9999,9999,9999,1837176888
3215,16,Jits_ISO_5,39,9999,9999,9999,1837676652
3215,16,Jits_ISO_5,40,9999,9999,9999,1838176340
3215,16,Jits_ISO_5,41,9999,9999,9999,1838677044
3215,16,Jits_ISO_5,42,9999,9999,9999,1839176820
3215,16,Jits_ISO_5,43,9999,9999,9999,1839676524
3215,16,Jits_ISO_5,44,9999,9999,9999,1840176200
3215,16,Jits_ISO_5,45,9999,9999,9999,1840676956
3215,16,Jits_ISO_5,46,9999,9999,9999,1841176680
3215,16,Jits_ISO_5,47,9999,9999,9999,1841676396
3215,16,Jits_ISO_5,48,9999,9999,9999,1842176064
3215,16,Jits_ISO_5,49,9999,9999,9999,1842676844
3215,16,Jits_ISO_5,50,9999,9999,9999,1843176560
3215,16,Jits_ISO_5,51,9999,9999,9999,1843676244
3215,16,Jits_ISO_5,52,9999,9999,9999,1844176956
3215,16,Jits_ISO_5,53,9999,9999,9999,1844676676
3215,16,Jits_ISO_5,54,9999,9999,9999,1845176420
3215,16,Jits_ISO_5,55,9999,9999,9999,1845676096
3215,16,Jits_ISO_5,56,9999,9999,9999,1846176876
3215,16,Jits_ISO_5,57,9999,9999,9999,1846676592
3215,16,Jits_ISO_5,58,9999,9999,9999,1847176276
3215,16,Jits_ISO_5,59,9999,9999,9999,1847676988
3215,16,Jits_ISO_5,60,9999,9999,9999,1848176748
3215,16,Jits_ISO_5,61,9999,9999,9999,1848676428
3215,16,Jits_ISO_5,62,9999,9999,9999,1849176184
3215,16,Jits_ISO_5,63,9999,9999,9999,1849676912
3215,16,Jits_ISO_5,64,9999,9999,9999,1850176592
3215,16,Jits_ISO_5,65,9999,9999,9999,1850676276
3215,16,Jits_ISO_5,66,9999,9999,9999,1851177012
3215,16,Jits_ISO_5,67,9999,9999,9999,1851676732
3215,16,Jits_ISO_5,68,9999,9999,9999,1852176460
3215,16,Jits_ISO_5,69,9999,9999,9999,1852676220
3215,16,Jits_ISO_5,70,9999,9999,9999,1853176896
3215,16,Jits_ISO_5,71,9999,9999,9999,1853676636
3215,16,Jits_ISO_5,72,9999,9999,9999,1854176328
3215,16,Jits_ISO_5,73,9999,9999,9999,1854677084
3215,16,Jits_ISO_5,74,9999,9999,9999,1855176808
3215,16,Jits_ISO_5,75,9999,9999,9999,1855676472
3215,16,Jits_ISO_5,76,9999,9999,9999,1856176192
3215,16,Jits_ISO_5,77,9999,9999,9999,1856676960
3215,16,Jits_ISO_5,78,9999,9999,9999,1857176644
3215,16,Jits_ISO_5,79,9999,9999,9999,1857676404
3215,16,Jits_ISO_5,80,9999,9999,9999,1858176072
3215,16,Jits_ISO_5,81,9999,9999,9999,1858676788
3215,16,Jits_ISO_5,82,9999,9999,9999,1859176544
3215,16,Jits_ISO_5,83,9999,9999,9999,1859676284
3215,16,Jits_ISO_5,84,9999,9999,9999,1860176960
3215,16,Jits_ISO_5,85,9999,9999,9999,1860676728
3215,16,Jits_ISO_5,86,9999,9999,9999,1861176436
3215,16,Jits_ISO_5,87,9999,9999,9999,1861676120
3215,16,Jits_ISO_5,88,9999,9999,9999,1862176824
3215,16,Jits_ISO_5,89,9999,9999,9999,1862676600
3215,16,Jits_ISO_5,90,9999,9999,9999,1863176248
3215,16,Jits_ISO_5,91,9999,9999,9999,1863677024
3215,16,Jits_ISO_5,92,9999,9999,9999,1864176692
3215,16,Jits_ISO_5,93,9999,9999,9999,1864676416
3215,16,Jits_ISO_5,94,9999,9999,9999,1865176160
3215,16,Jits_ISO_5,95,9999,9999,9999,1865676856
3215,16,Jits_ISO_5,96,9999,9999,9999,1866176616
3215,16,Jits_ISO_5,97,9999,9999,9999,1866676284
3215,16,Jits_ISO_5,98,9999,9999,9999,1867177056
3215,16,Jits_ISO_5,99,9999,9999,9999,1867676772
3215,16,Jits_ISO_5,100,9999,9999,9999,1868176440
3215,16,Jits_ISO_5,101,9999,9999,9999,1868676200
3215,16,Jits_ISO_5,102,9999,9999,9999,1869176944
3215,16,Jits_ISO_5,103,9999,9999,9999,1869676596
3215,16,Jits_ISO_5,104,9999,9999,9999,1870176352
3215,16,Jits_ISO_5,105,9999,9999,9999,1870677064
3215,16,Jits_ISO_5,106,9999,9999,9999,1871176820
3215,16,Jits_ISO_5,107,9999,9999,9999,1871676488
3215,16,Jits_ISO_5,108,9999,9999,9999,1872176248
3215,16,Jits_ISO_5,109,9999,9999,9999,1872676932
3215,16,Jits_ISO_5,110,9999,9999,9999,1873176640
3215,16,Jits_ISO_5,111,9999,9999,9999,1873676400
3215,16,Jits_ISO_5,112,9999,9999,9999,1874176100
3215,16,Jits_ISO_5,113,9999,9999,9999,1874676832
3215,16,Jits_ISO_5,114,9999,9999,9999,1875176564
3215,16,Jits_ISO_5,115,9999,9999,9999,1875676280
3215,16,Jits_ISO_5,116,9999,9999,9999,1876176976
3215,16,Jits_ISO_5,117,9999,9999,9999,1876676716
3215,16,Jits_ISO_5,118,9999,9999,9999,1877176376
3215,16,Jits_ISO_5,119,9999,9999,9999,1877676156
3216,15,Jits_Phase_8,0,5,56,103,1888305436
3216,15,Jits_Phase_8,1,5,63,98,1888308612
3216,15,Jits_Phase_8,2,5,80,127,1888311736
3216,15,Jits_Phase_8,0,5,56,103,1889106428
3216,15,Jits_Phase_8,1,5,63,98,1889109452
3216,15,Jits_Phase_8,2,5,80,127,1889112648
3216,15,Jits_Phase_8,0,5,80,127,1889845548
3216,15,Jits_Phase_8,1,5,63,98,1889935608
3216,15,Jits_Phase_8,2,5,56,103,1889945952
3216,15,Jits_Phase_8,0,5,56,103,1890676292
3216,15,Jits_Phase_8,1,5,63,98,1890686268
3216,15,Jits_Phase_8,2,5,80,127,1890776324
3216,15,Jits_Phase_8,0,5,63,98,1891446360
3216,15,Jits_Phase_8,1,5,80,127,1891475740
3216,15,Jits_Phase_8,2,5,56,103,1891505564
3216,15,Jits_Phase_8,3,1,48,107,1891540592
3216,15,Jits_Phase_8,4,1,38,21,1891550760
3216,15,Jits_Phase_8,0,1,48,102,1892243712
3216,15,Jits_Phase_8,1,5,56,103,1892245900
3216,15,Jits_Phase_8,2,5,80,127,1892346208
3216,15,Jits_Phase_8,3,5,63,98,1892396360
3216,15,Jits_Phase_8,0,5,56,103,1893045544
3216,15,Jits_Phase_8,1,5,80,127,1893095668
3216,15,Jits_Phase_8,2,1,48,97,1893099308
3216,15,Jits_Phase_8,3,5,63,98,1893135700
3216,15,Jits_Phase_8,0,5,80,127,1893876176
3216,15,Jits_Phase_8,1,1,48,116,1893883484
3216,15,Jits_Phase_8,2,5,63,98,1893905724
3216,15,Jits_Phase_8,3,1,48,43,1893926880
3216,15,Jits_Phase_8,4,5,56,103,1893976428
3216,15,Jits_Phase_8,0,1,48,127,1894703344
3216,15,Jits_Phase_8,1,5,63,98,1894705460
3216,15,Jits_Phase_8,2,5,56,103,1894736180
3216,15,Jits_Phase_8,3,5,80,127,1894795596
3216,15,Jits_Phase_8,0,5,56,103,1895445984
3216,15,Jits_Phase_8,1,5,80,127,1895449052
3216,15,Jits_Phase_8,2,1,48,127,1895505000
3216,15,Jits_Phase_8,3,5,63,98,1895566072
3216,15,Jits_Phase_8,0,1,48,127,1896283496
3216,15,Jits_Phase_8,1,5,56,103,1896325620
3216,15,Jits_Phase_8,2,5,80,127,1896365484
3216,15,Jits_Phase_8,3,5,63,98,1896375604
3216,15,Jits_Phase_8,0,5,56,103,1897086304
3216,15,Jits_Phase_8,1,5,80,127,1897105716
3216,15,Jits_Phase_8,2,1,48,127,1897125620
3216,15,Jits_Phase_8,3,5,63,98,1897185724
3216,15,Jits_Phase_8,0,5,80,127,1897875976
3216,15,Jits_Phase_8,1,1,48,119,1897929744
3216,15,Jits_Phase_8,2,5,56,103,1897976068
3216,15,Jits_Phase_8,3,5,63,98,1897986416
3216,15,Jits_Phase_8,0,5,63,98,1898645996
3216,15,Jits_Phase_8,1,5,80,127,1898706312
3216,15,Jits_Phase_8,2,5,56,103,1898715536
3216,15,Jits_Phase_8,3,1,48,127,1898729216
3216,15,Jits_Phase_8,0,5,56,103,1899445612
3216,15,Jits_Phase_8,1,1,48,127,1899476532
3216,15,Jits_Phase_8,2,5,63,98,1899516408
3216,15,Jits_Phase_8,3,5,80,127,1899519996
3216,15,Jits_Phase_8,0,1,48,112,1900265512
3216,15,Jits_Phase_8,1,1,38,23,1900275704
3216,15,Jits_Phase_8,2,5,63,98,1900278172
3216,15,Jits_Phase_8,3,5,56,103,1900326228
3216,15,Jits_Phase_8,4,5,80,127,1900329368
3216,15,Jits_Phase_8,0,5,56,103,1901035872
3216,15,Jits_Phase_8,1,5,80,127,1901039088
3216,15,Jits_Phase_8,2,1,48,59,1901055624
3216,15,Jits_Phase_8,3,5,63,98,1901125944
3216,15,Jits_Phase_8,0,1,48,127,1901853144
3216,15,Jits_Phase_8,1,5,63,98,1901875952
3216,15,Jits_Phase_8,2,5,56,103,1901965628
3216,15,Jits_Phase_8,3,5,80,127,1901996424
3216,15,Jits_Phase_8,0,5,56,103,1902666160
3216,15,Jits_Phase_8,1,1,48,127,1902694908
3216,15,Jits_Phase_8,2,5,63,98,1902765284
3216,15,Jits_Phase_8,3,5,80,127,1902796140
3216,15,Jits_Phase_8,0,5,63,98,1903486256
3216,15,Jits_Phase_8,1,5,56,103,1903495700
3216,15,Jits_Phase_8,2,1,48,127,1903518076
3216,15,Jits_Phase_8,3,1,48,55,1903551760
3216,15,Jits_Phase_8,4,5,80,127,1903585580
3216,15,Jits_Phase_8,0,5,63,98,1904305612
3216,15,Jits_Phase_8,1,1,48,127,1904320044
3216,15,Jits_Phase_8,2,1,48,68,1904349988
3216,15,Jits_Phase_8,3,5,56,103,1904386500
3216,15,Jits_Phase_8,4,5,80,127,1904389512
3216,15,Jits_Phase_8,0,5,80,127,1905066220
3216,15,Jits_Phase_8,1,5,63,98,1905085780
3216,15,Jits_Phase_8,2,1,48,127,1905126884
3216,15,Jits_Phase_8,3,5,56,103,1905146088
3216,15,Jits_Phase_8,4,1,48,72,1905155936
3216,15,Jits_Phase_8,0,5,56,103,1905906164
3216,15,Jits_Phase_8,1,1,48,127,1905908760
3216,15,Jits_Phase_8,2,5,63,98,1905925664
3216,15,Jits_Phase_8,3,5,80,127,1905928956
3216,15,Jits_Phase_8,4,1,48,71,1905935968
3216,15,Jits_Phase_8,0,5,63,98,1906646556
3216,15,Jits_Phase_8,1,1,48,127,1906692700
3216,15,Jits_Phase_8,2,5,80,127,1906726596
3216,15,Jits_Phase_8,3,1,48,48,1906730300
3216,15,Jits_Phase_8,4,5,56,103,1906735572
3216,15,Jits_Phase_8,0,1,48,127,1907459952
3216,15,Jits_Phase_8,1,5,63,98,1907465532
3216,15,Jits_Phase_8,2,5,56,103,1907485916
3216,15,Jits_Phase_8,3,1,48,76,1907487840
3216,15,Jits_Phase_8,4,5,80,127,1907536168
3216,15,Jits_Phase_8,0,1,48,116,1908240960
3216,15,Jits_Phase_8,1,1,48,71,1908264932
3216,15,Jits_Phase_8,2,5,80,127,1908266440
3216,15,Jits_Phase_8,3,5,63,98,1908306604
3216,15,Jits_Phase_8,4,5,56,103,1908325792
3216,15,Jits_Phase_8,0,1,48,127,1909066324
3216,15,Jits_Phase_8,1,5,56,103,1909105908
3216,15,Jits_Phase_8,2,5,63,98,1909116476
3216,15,Jits_Phase_8,3,5,80,127,1909135668
3216,15,Jits_Phase_8,0,5,56,103,1909836320
3216,15,Jits_Phase_8,1,1,48,127,1909898776
3216,15,Jits_Phase_8,2,5,63,98,1909926448
3216,15,Jits_Phase_8,3,1,48,44,1909944840
3216,15,Jits_Phase_8,4,5,80,127,1909985616
3216,15,Jits_Phase_8,0,5,80,127,1910665652
3216,15,Jits_Phase_8,1,5,56,103,1910675924
3216,15,Jits_Phase_8,2,1,48,127,1910683604
3216,15,Jits_Phase_8,3,1,48,51,1910718656
3216,15,Jits_Phase_8,4,5,63,98,1910745576
3216,15,Jits_Phase_8,0,1,48,102,1911489404
3216,15,Jits_Phase_8,1,5,63,98,1911496324
3216,15,Jits_Phase_8,2,1,38,22,1911499824
3216,15,Jits_Phase_8,3,1,48,54,1911520248
3216,15,Jits_Phase_8,4,5,80,127,1911586160
3216,15,Jits_Phase_8,5,5,56,103,1911597008
3216,15,Jits_Phase_8,0,5,63,98,1912226292
3216,15,Jits_Phase_8,1,5,80,127,1912276272
3216,15,Jits_Phase_8,2,1,48,127,1912299844
3216,15,Jits_Phase_8,3,5,56,103,1912335632
3216,15,Jits_Phase_8,0,5,56,103,1913046440
3216,15,Jits_Phase_8,1,1,48,127,1913073752
3216,15,Jits_Phase_8,2,5,80,127,1913095612
3216,15,Jits_Phase_8,3,5,63,98,1913115996
3216,15,Jits_Phase_8,0,5,56,103,1913816404
3216,15,Jits_Phase_8,1,1,48,127,1913852108
3216,15,Jits_Phase_8,2,5,80,127,1913875764
3216,15,Jits_Phase_8,3,1,48,65,1913881408
3216,15,Jits_Phase_8,4,5,63,98,1913945420
3216,15,Jits_Phase_8,0,5,56,103,1914616360
3216,15,Jits_Phase_8,1,5,80,127,1914645988
3216,15,Jits_Phase_8,2,5,63,98,1914675664
3216,15,Jits_Phase_8,3,1,48,127,1914687628
3216,15,Jits_Phase_8,0,1,48,95,1915445288
3216,15,Jits_Phase_8,1,1,38,21,1915455080
3216,15,Jits_Phase_8,2,5,56,103,1915466264
3216,15,Jits_Phase_8,3,1,48,68,1915469892
3216,15,Jits_Phase_8,4,5,80,127,1915485432
3216,15,Jits_Phase_8,5,1,48,46,1915498800
3216,15,Jits_Phase_8,6,5,63,98,1915546168
3216,15,Jits_Phase_8,0,1,48,122,1916267736
3216,15,Jits_Phase_8,1,5,80,127,1916356164
3216,15,Jits_Phase_8,2,5,56,103,1916367320
3216,15,Jits_Phase_8,3,5,63,98,1916376544
3216,15,Jits_Phase_8,0,5,56,103,1917115732
3216,15,Jits_Phase_8,1,1,48,122,1917140132
3216,15,Jits_Phase_8,2,5,80,127,1917155668
3216,15,Jits_Phase_8,3,5,63,98,1917186464
3216,15,Jits_Phase_8,0,5,56,103,1917885708
3216,15,Jits_Phase_8,1,5,63,98,1917915456
3216,15,Jits_Phase_8,2,5,80,127,1917955496
3216,15,Jits_Phase_8,3,1,48,127,1917956460
3216,15,Jits_Phase_8,4,1,48,65,1917979412
3216,15,Jits_Phase_8,0,5,80,127,1918636448
3216,15,Jits_Phase_8,1,5,63,98,1918685676
3216,15,Jits_Phase_8,2,5,56,103,1918706284
3216,15,Jits_Phase_8,3,1,48,127,1918722136
3216,15,Jits_Phase_8,4,1,48,67,1918750160
3216,15,Jits_Phase_8,0,5,56,103,1919465928
3216,15,Jits_Phase_8,1,1,48,126,1919523676
3216,15,Jits_Phase_8,2,5,80,127,1919535404
3216,15,Jits_Phase_8,3,1,48,56,1919554996
3216,15,Jits_Phase_8,4,5,63,98,1919596068
3216,15,Jits_Phase_8,0,5,80,127,1920265696
3216,15,Jits_Phase_8,1,1,48,88,1920328080
3216,15,Jits_Phase_8,2,1,38,21,1920338324
3216,15,Jits_Phase_8,3,1,48,61,1920354740
3216,15,Jits_Phase_8,4,5,63,98,1920356228
3216,15,Jits_Phase_8,5,5,56,103,1920376092
3216,15,Jits_Phase_8,0,5,63,98,1921085892
3216,15,Jits_Phase_8,1,5,56,103,1921106276
3216,15,Jits_Phase_8,2,1,48,127,1921130744
3216,15,Jits_Phase_8,3,1,38,24,1921140916
3216,15,Jits_Phase_8,4,5,80,127,1921146188
3216,15,Jits_Phase_8,0,5,80,127,1921845584
3216,15,Jits_Phase_8,1,1,48,127,1921865744
3216,15,Jits_Phase_8,2,5,63,98,1921867380
3216,15,Jits_Phase_8,3,1,48,72,1921891984
3216,15,Jits_Phase_8,4,5,56,103,1921945956
3216,15,Jits_Phase_8,0,5,63,98,1922636100
3216,15,Jits_Phase_8,1,1,48,127,1922664176
3216,15,Jits_Phase_8,2,5,56,103,1922746004
3216,15,Jits_Phase_8,3,5,80,127,1922748920
3216,15,Jits_Phase_8,0,5,63,98,1923456316
3216,15,Jits_Phase_8,1,5,56,103,1923465760
3216,15,Jits_Phase_8,2,1,48,127,1923468900
3216,15,Jits_Phase_8,3,5,80,127,1923470312
3216,15,Jits_Phase_8,4,1,48,56,1923505868
3216,15,Jits_Phase_8,0,5,56,103,1924235568
3216,15,Jits_Phase_8,1,1,48,127,1924260040
3216,15,Jits_Phase_8,2,1,48,69,1924287064
3216,15,Jits_Phase_8,3,5,80,127,1924355440
3216,15,Jits_Phase_8,4,5,63,98,1924396264
3216,15,Jits_Phase_8,0,5,56,103,1925055912
3216,15,Jits_Phase_8,1,1,48,127,1925075964
3216,15,Jits_Phase_8,2,1,48,88,1925097292
3216,15,Jits_Phase_8,3,5,80,127,1925135852
3216,15,Jits_Phase_8,4,5,63,98,1925156160
3216,15,Jits_Phase_8,0,5,56,103,1925855728
3216,15,Jits_Phase_8,1,1,48,105,1925877880
3216,15,Jits_Phase_8,2,1,48,70,1925899228
3216,15,Jits_Phase_8,3,5,63,98,1925966160
3216,15,Jits_Phase_8,4,5,80,127,1925969672
3216,15,Jits_Phase_8,0,5,56,103,1926696316
3216,15,Jits_Phase_8,1,1,48,125,1926721088
3216,15,Jits_Phase_8,2,5,80,127,1926726060
3216,15,Jits_Phase_8,3,5,63,98,1926745624
3216,15,Jits_Phase_8,4,1,48,60,1926749628
3216,15,Jits_Phase_8,0,5,63,98,1927485868
3216,15,Jits_Phase_8,1,5,56,103,1927495992
3216,15,Jits_Phase_8,2,5,80,127,1927506260
3216,15,Jits_Phase_8,3,1,48,126,1927543756
3216,15,Jits_Phase_8,4,1,48,60,1927570184
3216,15,Jits_Phase_8,0,5,80,127,1928276364
3216,15,Jits_Phase_8,1,1,48,127,1928317472
3216,15,Jits_Phase_8,2,5,56,103,1928325664
3216,15,Jits_Phase_8,3,1,48,72,1928338356
3216,15,Jits_Phase_8,4,5,63,98,1928365360
3216,15,Jits_Phase_8,0,5,80,127,1929095808
3216,15,Jits_Phase_8,1,5,63,98,1929116048
3216,15,Jits_Phase_8,2,1,48,127,1929117088
3216,15,Jits_Phase_8,3,1,48,79,1929139068
3216,15,Jits_Phase_8,4,5,56,103,1929166068
3216,15,Jits_Phase_8,0,5,80,127,1929905664
3216,15,Jits_Phase_8,1,5,56,103,1929936240
3216,15,Jits_Phase_8,2,1,48,127,1929938904
3216,15,Jits_Phase_8,3,5,63,98,1930006156
3216,15,Jits_Phase_8,0,5,56,103,1930755596
3216,15,Jits_Phase_8,1,5,80,127,1930765868
3216,15,Jits_Phase_8,2,1,48,127,1930768540
3216,15,Jits_Phase_8,3,1,48,60,1930792856
3216,15,Jits_Phase_8,4,5,63,98,1930805628
3216,15,Jits_Phase_8,0,5,56,103,1931466232
3216,15,Jits_Phase_8,1,5,63,98,1931485572
3216,15,Jits_Phase_8,2,5,80,127,1931556172
3216,15,Jits_Phase_8,3,1,48,127,1931557884
3216,15,Jits_Phase_8,4,1,48,65,1931581592
3216,15,Jits_Phase_8,0,5,63,98,1932286424
3216,15,Jits_Phase_8,1,1,48,127,1932321628
3216,15,Jits_Phase_8,2,1,48,82,1932339520
3216,15,Jits_Phase_8,3,5,80,127,1932345840
3216,15,Jits_Phase_8,4,5,56,103,1932366076
3216,15,Jits_Phase_8,0,5,80,127,1933075836
3216,15,Jits_Phase_8,1,5,56,103,1933105440
3216,15,Jits_Phase_8,2,5,63,98,1933136236
3216,15,Jits_Phase_8,3,1,48,127,1933137648
3216,15,Jits_Phase_8,4,1,48,69,1933163000
3216,15,Jits_Phase_8,0,5,56,103,1933875576
3216,15,Jits_Phase_8,1,1,48,127,1933906940
3216,15,Jits_Phase_8,2,1,48,59,1933937068
3216,15,Jits_Phase_8,3,5,63,98,1933938404
3216,15,Jits_Phase_8,4,5,80,127,1933996552
3216,15,Jits_Phase_8,0,5,80,127,1934695760
3216,15,Jits_Phase_8,1,5,56,103,1934716368
3216,15,Jits_Phase_8,2,1,48,127,1934722112
3216,15,Jits_Phase_8,3,5,63,98,1934785820
3216,15,Jits_Phase_8,0,5,80,127,1935495548
3216,15,Jits_Phase_8,1,5,63,98,1935515932
3216,15,Jits_Phase_8,2,1,48,127,1935530140
3216,15,Jits_Phase_8,3,5,56,103,1935545676
3216,15,Jits_Phase_8,4,1,48,79,1935549300
3216,15,Jits_Phase_8,0,5,80,127,1936285992
3216,15,Jits_Phase_8,1,5,63,98,1936305556
3216,15,Jits_Phase_8,2,1,48,127,1936330848
3216,15,Jits_Phase_8,3,1,48,76,1936352548
3216,15,Jits_Phase_8,4,5,56,103,1936365912
3216,15,Jits_Phase_8,0,5,80,127,1937085804
3216,15,Jits_Phase_8,1,1,48,127,1937137324
3216,15,Jits_Phase_8,2,1,48,76,1937158452
3216,15,Jits_Phase_8,3,5,56,103,1937186272
3216,15,Jits_Phase_8,4,5,63,98,1937215800
3216,15,Jits_Phase_8,0,5,63,98,1937876256
3216,15,Jits_Phase_8,1,5,80,127,1937925436
3216,15,Jits_Phase_8,2,5,56,103,1937945896
3216,15,Jits_Phase_8,3,1,48,127,1937962792
3216,15,Jits_Phase_8,0,5,80,127,1938716204
3216,15,Jits_Phase_8,1,1,48,127,1938735220
3216,15,Jits_Phase_8,2,1,38,25,1938745328
3216,15,Jits_Phase_8,3,5,56,103,1938747824
3216,15,Jits_Phase_8,4,5,63,98,1938750496
3216,15,Jits_Phase_8,0,1,48,114,1939545108
3216,15,Jits_Phase_8,1,1,38,24,1939555052
3216,15,Jits_Phase_8,2,5,63,98,1939566160
3216,15,Jits_Phase_8,3,5,56,103,1939606100
3216,15,Jits_Phase_8,4,5,80,127,1939626260
3216,15,Jits_Phase_8,0,5,80,127,1940325676
3216,15,Jits_Phase_8,1,1,48,119,1940372840
3216,15,Jits_Phase_8,2,5,63,98,1940405540
3216,15,Jits_Phase_8,3,5,56,103,1940445476
3216,15,Jits_Phase_8,0,5,63,98,1941146212
3216,15,Jits_Phase_8,1,1,48,121,1941177880
3216,15,Jits_Phase_8,2,5,80,127,1941225708
3216,15,Jits_Phase_8,3,5,56,103,1941246312
3216,15,Jits_Phase_8,0,1,48,127,1941979220
3216,15,Jits_Phase_8,1,5,56,103,1941985768
3216,15,Jits_Phase_8,2,1,38,24,1941989488
3216,15,Jits_Phase_8,3,5,63,98,1941996032
3216,15,Jits_Phase_8,4,5,80,127,1942035768
3216,15,Jits_Phase_8,0,5,56,103,1942705484
3216,15,Jits_Phase_8,1,5,80,127,1942708476
3216,15,Jits_Phase_8,2,1,48,127,1942753636
3216,15,Jits_Phase_8,3,1,48,41,1942806752
3216,15,Jits_Phase_8,4,5,63,98,1942845808
3216,15,Jits_Phase_8,0,5,56,103,1943496148
3216,15,Jits_Phase_8,1,1,48,124,1943569116
3216,15,Jits_Phase_8,2,1,38,24,1943579212
3216,15,Jits_Phase_8,3,5,63,98,1943586208
3216,15,Jits_Phase_8,4,5,80,127,1943655960
3216,15,Jits_Phase_8,0,1,48,127,1944357072
3216,15,Jits_Phase_8,1,5,63,98,1944375676
3216,15,Jits_Phase_8,2,5,80,127,1944379112
3216,15,Jits_Phase_8,3,5,56,103,1944435988
3216,15,Jits_Phase_8,0,1,48,127,1945184872
3216,15,Jits_Phase_8,1,5,80,127,1945216288
3216,15,Jits_Phase_8,2,5,56,103,1945236072
3216,15,Jits_Phase_8,3,5,63,98,1945246120
3216,15,Jits_Phase_8,0,5,56,103,1945925956
3216,15,Jits_Phase_8,1,5,63,98,1945936228
3216,15,Jits_Phase_8,2,5,80,127,1946005832
3216,15,Jits_Phase_8,3,1,48,127,1946024760
3216,15,Jits_Phase_8,4,1,48,42,1946087212
3216,15,Jits_Phase_8,0,5,80,127,1946725840
3216,15,Jits_Phase_8,1,5,56,103,1946775896
3216,15,Jits_Phase_8,2,1,48,127,1946796324
3216,15,Jits_Phase_8,3,5,63,98,1946826088
3216,15,Jits_Phase_8,4,1,48,56,1946828012
3216,15,Jits_Phase_8,0,1,48,98,1947567876
3216,15,Jits_Phase_8,1,5,56,103,1947606268
3216,15,Jits_Phase_8,2,1,48,49,1947615476
3216,15,Jits_Phase_8,3,5,63,98,1947616960
3216,15,Jits_Phase_8,4,5,80,127,1947655428
3216,15,Jits_Phase_8,0,5,56,103,1948345832
3216,15,Jits_Phase_8,1,1,48,127,1948377796
3216,15,Jits_Phase_8,2,5,63,98,1948385988
3216,15,Jits_Phase_8,3,5,80,127,1948435988
3216,15,Jits_Phase_8,0,5,80,127,1949105756
3216,15,Jits_Phase_8,1,5,56,103,1949155884
3216,15,Jits_Phase_8,2,5,63,98,1949176120
3216,15,Jits_Phase_8,3,1,48,105,1949195148
3216,15,Jits_Phase_8,4,1,38,26,1949205020
3216,15,Jits_Phase_8,0,5,80,127,1949915584
3216,15,Jits_Phase_8,1,1,48,127,1949973960
3216,15,Jits_Phase_8,2,5,63,98,1949975844
3216,15,Jits_Phase_8,3,5,56,103,1950055860
3216,15,Jits_Phase_8,0,5,80,127,1950695812
3216,15,Jits_Phase_8,1,5,56,103,1950735704
3216,15,Jits_Phase_8,2,5,63,98,1950756312
3216,15,Jits_Phase_8,3,1,48,127,1950783712
3216,15,Jits_Phase_8,4,1,38,27,1950793792
3216,15,Jits_Phase_8,0,5,56,103,1951545744
3216,15,Jits_Phase_8,1,5,80,127,1951556088
3216,15,Jits_Phase_8,2,1,48,127,1951584764
3216,15,Jits_Phase_8,3,5,63,98,1951596020
3216,15,Jits_Phase_8,0,1,48,127,1952380852
3216,15,Jits_Phase_8,1,1,38,27,1952390872
3216,15,Jits_Phase_8,2,5,56,103,1952416152
3216,15,Jits_Phase_8,3,5,63,98,1952456164
3216,15,Jits_Phase_8,4,5,80,127,1952459604
3216,15,Jits_Phase_8,0,5,63,98,1953085832
3216,15,Jits_Phase_8,1,5,80,127,1953125696
3216,15,Jits_Phase_8,2,5,56,103,1953196572
3216,15,Jits_Phase_8,3,1,48,125,1953250928
3216,15,Jits_Phase_8,4,1,38,24,1953260948
3216,15,Jits_Phase_8,0,5,63,98,1953855784
3216,15,Jits_Phase_8,1,5,56,103,1953935728
3216,15,Jits_Phase_8,2,5,80,127,1953996116
3216,15,Jits_Phase_8,3,1,48,127,1954048700
3216,15,Jits_Phase_8,0,5,80,127,1954665960
3216,15,Jits_Phase_8,1,5,63,98,1954715940
3216,15,Jits_Phase_8,2,5,56,103,1954745764
3216,15,Jits_Phase_8,3,1,48,127,1954773448
3216,15,Jits_Phase_8,0,5,56,103,1955456600
3216,15,Jits_Phase_8,1,5,63,98,1955505532
3216,15,Jits_Phase_8,2,5,80,127,1955515876
3216,15,Jits_Phase_8,3,1,48,119,1955570760
3216,15,Jits_Phase_8,4,1,38,25,1955580844
3216,15,Jits_Phase_8,0,5,56,103,1956266496
3216,15,Jits_Phase_8,1,1,48,127,1956339584
3216,15,Jits_Phase_8,2,1,38,26,1956349680
3216,15,Jits_Phase_8,3,5,63,98,1956375884
3216,15,Jits_Phase_8,4,1,48,43,1956397152
3216,15,Jits_Phase_8,5,5,80,127,1956398564
3216,15,Jits_Phase_8,0,5,63,98,1957065948
3216,15,Jits_Phase_8,1,5,80,127,1957116448
3216,15,Jits_Phase_8,2,1,48,127,1957147840
3216,15,Jits_Phase_8,3,5,56,103,1957206372
3216,15,Jits_Phase_8,0,5,63,98,1957855532
3216,15,Jits_Phase_8,1,5,80,127,1957886328
3216,15,Jits_Phase_8,2,1,48,122,1957939368
3216,15,Jits_Phase_8,3,1,38,26,1957949232
3216,15,Jits_Phase_8,4,5,56,103,1957976528
3216,15,Jits_Phase_8,0,5,63,98,1958656596
3216,15,Jits_Phase_8,1,5,56,103,1958665520
3216,15,Jits_Phase_8,2,1,48,127,1958735392
3216,15,Jits_Phase_8,3,1,38,28,1958745564
3216,15,Jits_Phase_8,4,5,80,127,1958766036
3216,15,Jits_Phase_8,0,1,48,127,1959516276
3216,15,Jits_Phase_8,1,5,63,98,1959555408
3216,15,Jits_Phase_8,2,5,80,127,1959586500
3216,15,Jits_Phase_8,3,5,56,103,1959615788
3216,15,Jits_Phase_8,0,1,48,127,1960354348
3216,15,Jits_Phase_8,1,1,38,27,1960363992
3216,15,Jits_Phase_8,2,5,80,127,1960375704
3216,15,Jits_Phase_8,3,5,63,98,1960386048
3216,15,Jits_Phase_8,4,5,56,103,1960415572
3216,15,Jits_Phase_8,0,5,80,127,1961076176
3216,15,Jits_Phase_8,1,5,63,98,1961095440
3216,15,Jits_Phase_8,2,5,56,103,1961145640
3216,15,Jits_Phase_8,3,1,48,108,1961171228
3216,15,Jits_Phase_8,4,1,38,23,1961181324
3216,15,Jits_Phase_8,0,5,63,98,1961905632
3216,15,Jits_Phase_8,1,1,48,127,1961942164
3216,15,Jits_Phase_8,2,1,38,27,1961952252
3216,15,Jits_Phase_8,3,5,80,127,1961965924
3216,15,Jits_Phase_8,4,5,56,103,1961986408
3216,15,Jits_Phase_8,0,5,63,98,1962666300
3216,15,Jits_Phase_8,1,5,56,103,1962715456
3216,15,Jits_Phase_8,2,1,48,127,1962725272
3216,15,Jits_Phase_8,3,5,80,127,1962727064
3216,15,Jits_Phase_8,4,1,38,27,1962734988
3216,15,Jits_Phase_8,5,1,48,51,1962770716
3216,15,Jits_Phase_8,0,5,56,103,1963495936
3216,15,Jits_Phase_8,1,5,80,127,1963506132
3216,15,Jits_Phase_8,2,1,48,123,1963512244
3216,15,Jits_Phase_8,3,1,38,26,1963522676
3216,15,Jits_Phase_8,4,5,63,98,1963606316
3216,15,Jits_Phase_8,0,5,80,127,1964255660
3216,15,Jits_Phase_8,1,5,63,98,1964266152
3216,15,Jits_Phase_8,2,1,48,127,1964361288
3216,15,Jits_Phase_8,3,1,38,26,1964371308
3216,15,Jits_Phase_8,4,5,56,103,1964416364
3216,15,Jits_Phase_8,0,5,63,98,1965065436
3216,15,Jits_Phase_8,1,5,80,127,1965105452
3216,15,Jits_Phase_8,2,5,56,103,1965186292
3216,15,Jits_Phase_8,3,1,48,127,1965193068
3216,15,Jits_Phase_8,0,5,56,103,1965816180
3216,15,Jits_Phase_8,1,5,80,127,1965915480
3216,15,Jits_Phase_8,2,1,48,127,1965934956
3216,15,Jits_Phase_8,3,5,63,98,1965936832
3216,15,Jits_Phase_8,4,1,38,27,1965945424
3216,15,Jits_Phase_8,0,5,80,127,1966636396
3216,15,Jits_Phase_8,1,5,56,103,1966645544
3216,15,Jits_Phase_8,2,1,48,124,1966718704
3216,15,Jits_Phase_8,3,1,38,25,1966728800
3216,15,Jits_Phase_8,4,5,63,98,1966735872
3216,15,Jits_Phase_8,0,5,56,103,1967436036
3216,15,Jits_Phase_8,1,5,63,98,1967455672
3216,15,Jits_Phase_8,2,1,48,127,1967502160
3216,15,Jits_Phase_8,3,5,80,127,1967535384
3216,15,Jits_Phase_8,0,5,63,98,1968185700
3216,15,Jits_Phase_8,1,1,48,125,1968263128
3216,15,Jits_Phase_8,2,1,38,27,1968273296
3216,15,Jits_Phase_8,3,5,56,103,1968275952
3216,15,Jits_Phase_8,4,5,80,127,1968278944
3216,15,Jits_Phase_8,0,5,56,103,1969016176
3216,15,Jits_Phase_8,1,1,48,105,1969039452
3216,15,Jits_Phase_8,2,1,38,24,1969049468
3216,15,Jits_Phase_8,3,5,80,127,1969075792
3216,15,Jits_Phase_8,4,5,63,98,1969085916
3216,15,Jits_Phase_8,0,1,48,124,1969839532
3216,15,Jits_Phase_8,1,1,38,25,1969849704
3216,15,Jits_Phase_8,2,5,80,127,1969866140
3216,15,Jits_Phase_8,3,5,56,103,1969876480
3216,15,Jits_Phase_8,4,5,63,98,1969879548
3216,15,Jits_Phase_8,0,5,56,103,1970626012
3216,15,Jits_Phase_8,1,5,80,127,1970636208
3216,15,Jits_Phase_8,2,1,48,127,1970649668
3216,15,Jits_Phase_8,3,5,63,98,1970655540
3216,15,Jits_Phase_8,4,1,38,28,1970660080
3216,15,Jits_Phase_8,0,5,63,98,1971395844
3216,15,Jits_Phase_8,1,1,48,108,1971408328
3216,15,Jits_Phase_8,2,1,38,26,1971418276
3216,15,Jits_Phase_8,3,5,80,127,1971456384
3216,15,Jits_Phase_8,4,5,56,103,1971505460
3216,15,Jits_Phase_8,0,1,48,127,1972217172
3216,15,Jits_Phase_8,1,1,38,27,1972227680
3216,15,Jits_Phase_8,2,5,63,98,1972275508
3216,15,Jits_Phase_8,3,5,56,103,1972285776
3216,15,Jits_Phase_8,4,5,80,127,1972336008
3216,15,Jits_Phase_8,0,5,63,98,1972975956
3216,15,Jits_Phase_8,1,5,80,127,1972995616
3216,15,Jits_Phase_8,2,5,56,103,1973005664
3216,15,Jits_Phase_8,3,1,48,111,1973075984
3216,15,Jits_Phase_8,4,1,38,25,1973086000
3216,15,Jits_Phase_8,0,5,63,98,1973775820
3216,15,Jits_Phase_8,1,5,80,127,1973779036
3216,15,Jits_Phase_8,2,5,56,103,1973815828
3216,15,Jits_Phase_8,3,1,48,115,1973826220
3216,15,Jits_Phase_8,4,1,38,26,1973836388
3216,15,Jits_Phase_8,0,1,48,124,1974583420
3216,15,Jits_Phase_8,1,1,38,27,1974593884
3216,15,Jits_Phase_8,2,5,63,98,1974646200
3216,15,Jits_Phase_8,3,5,80,127,1974675784
3216,15,Jits_Phase_8,4,5,56,103,1974686128
3216,15,Jits_Phase_8,0,5,56,103,1975395684
3216,15,Jits_Phase_8,1,1,48,127,1975415888
3216,15,Jits_Phase_8,2,1,38,27,1975426088
3216,15,Jits_Phase_8,3,5,80,127,1975428548
3216,15,Jits_Phase_8,4,5,63,98,1975456052
3216,15,Jits_Phase_8,0,1,48,127,1976190556
3216,15,Jits_Phase_8,1,1,38,27,1976200728
3216,15,Jits_Phase_8,2,5,63,98,1976295820
3216,15,Jits_Phase_8,3,5,56,103,1976335768
3216,15,Jits_Phase_8,4,5,80,127,1976338832
3216,15,Jits_Phase_8,0,5,80,127,1976996092
3216,15,Jits_Phase_8,1,1,48,127,1977044616
3216,15,Jits_Phase_8,2,5,56,103,1977075956
3216,15,Jits_Phase_8,3,5,63,98,1977126180
3216,15,Jits_Phase_8,0,5,80,127,1977775496
3216,15,Jits_Phase_8,1,5,56,103,1977795884
3216,15,Jits_Phase_8,2,1,48,100,1977840952
3216,15,Jits_Phase_8,3,1,38,22,1977850972
3216,15,Jits_Phase_8,4,5,63,98,1977886012
3216,15,Jits_Phase_8,0,5,80,127,1978616112
3216,15,Jits_Phase_8,1,5,63,98,1978656076
3216,15,Jits_Phase_8,2,1,48,78,1978660616
3216,15,Jits_Phase_8,3,1,38,20,1978670488
3216,15,Jits_Phase_8,4,5,56,103,1978696064
3216,15,Jits_Phase_8,0,5,63,98,1979426032
3216,15,Jits_Phase_8,1,1,48,125,1979462932
3216,15,Jits_Phase_8,2,1,38,25,1979473028
3216,15,Jits_Phase_8,3,5,80,127,1979485720
3216,15,Jits_Phase_8,4,5,56,103,1979516444
3216,15,Jits_Phase_8,0,5,56,103,1980265956
3216,15,Jits_Phase_8,1,1,48,127,1980293968
3216,15,Jits_Phase_8,2,5,80,127,1980295772
3216,15,Jits_Phase_8,3,1,38,25,1980304448
3216,15,Jits_Phase_8,4,5,63,98,1980385596
3216,15,Jits_Phase_8,0,5,56,103,1981075732
3216,15,Jits_Phase_8,1,1,48,124,1981134300
3216,15,Jits_Phase_8,2,1,38,27,1981144468
3216,15,Jits_Phase_8,3,5,80,127,1981186540
3216,15,Jits_Phase_8,4,5,63,98,1981216140
3216,15,Jits_Phase_8,0,1,48,127,1981919544
3216,15,Jits_Phase_8,1,5,56,103,1981925716
3216,15,Jits_Phase_8,2,1,38,26,1981930476
3216,15,Jits_Phase_8,3,5,63,98,1981986272
3216,15,Jits_Phase_8,4,5,80,127,1982015724
3216,15,Jits_Phase_8,0,5,56,103,1982695784
3216,15,Jits_Phase_8,1,5,63,98,1982765420
3216,15,Jits_Phase_8,2,1,48,95,1982771604
3216,15,Jits_Phase_8,3,5,80,127,1982785872
3216,15,Jits_Phase_8,0,5,80,127,1983465816
3216,15,Jits_Phase_8,1,5,63,98,1983486376
3216,15,Jits_Phase_8,2,5,56,103,1983535528
3216,15,Jits_Phase_8,3,1,48,127,1983539248
3216,15,Jits_Phase_8,0,5,63,98,1984286296
3216,15,Jits_Phase_8,1,5,80,127,1984296420
3216,15,Jits_Phase_8,2,1,48,119,1984344292
3216,15,Jits_Phase_8,3,5,56,103,1984346316
3216,15,Jits_Phase_8,4,1,38,24,1984354760
3216,15,Jits_Phase_8,0,5,63,98,1985085856
3216,15,Jits_Phase_8,1,1,48,127,1985125916
3216,15,Jits_Phase_8,2,5,80,127,1985155384
3216,15,Jits_Phase_8,3,5,56,103,1985176216
3216,15,Jits_Phase_8,0,5,63,98,1985916344
3216,15,Jits_Phase_8,1,5,80,127,1985919560
3216,15,Jits_Phase_8,2,1,48,127,1985940064
3216,15,Jits_Phase_8,3,5,56,103,1985986016
3216,15,Jits_Phase_8,0,5,80,127,1986665980
3216,15,Jits_Phase_8,1,5,56,103,1986686368
3216,15,Jits_Phase_8,2,5,63,98,1986695664
3216,15,Jits_Phase_8,3,1,48,127,1986748900
3216,15,Jits_Phase_8,0,5,56,103,1987486208
3216,15,Jits_Phase_8,1,1,48,127,1987545820
3216,15,Jits_Phase_8,2,5,63,98,1987576112
3216,15,Jits_Phase_8,3,5,80,127,1987579476
3216,15,Jits_Phase_8,0,5,80,127,1988256092
3216,15,Jits_Phase_8,1,5,56,103,1988266288
3216,15,Jits_Phase_8,2,5,63,98,1988286000
3216,15,Jits_Phase_8,3,1,48,123,1988323516
3216,15,Jits_Phase_8,4,1,38,26,1988333684
3216,15,Jits_Phase_8,0,5,63,98,1989056096
3216,15,Jits_Phase_8,1,1,48,114,1989101536
3216,15,Jits_Phase_8,2,1,38,25,1989111484
3216,15,Jits_Phase_8,3,5,80,127,1989116384
3216,15,Jits_Phase_8,4,5,56,103,1989125484
3216,15,Jits_Phase_8,0,1,48,126,1989858528
3216,15,Jits_Phase_8,1,1,38,26,1989868700
3216,15,Jits_Phase_8,2,5,63,98,1989926288
3216,15,Jits_Phase_8,3,5,80,127,1989956112
3216,15,Jits_Phase_8,4,5,56,103,1989996168
3216,15,Jits_Phase_8,0,1,48,106,1990680756
3216,15,Jits_Phase_8,1,1,38,23,1990690852
3216,15,Jits_Phase_8,2,5,56,103,1990715904
3216,15,Jits_Phase_8,3,5,80,127,1990726100
3216,15,Jits_Phase_8,4,5,63,98,1990765964
3216,15,Jits_Phase_8,0,5,80,127,1991475488
3216,15,Jits_Phase_8,1,1,48,103,1991498764
3216,15,Jits_Phase_8,2,1,38,23,1991509232
3216,15,Jits_Phase_8,3,5,56,103,1991555484
3216,15,Jits_Phase_8,4,5,63,98,1991565756
3216,15,Jits_Phase_8,0,1,48,115,1992306264
3216,15,Jits_Phase_8,1,1,38,24,1992316432
3216,15,Jits_Phase_8,2,5,80,127,1992325452
3216,15,Jits_Phase_8,3,5,56,103,1992406352
3216,15,Jits_Phase_8,4,5,63,98,1992415560
3216,15,Jits_Phase_8,0,1,48,99,1993151916
3216,15,Jits_Phase_8,1,1,38,25,1993161708
3216,15,Jits_Phase_8,2,5,80,127,1993166164
3216,15,Jits_Phase_8,3,5,56,103,1993216392
3216,15,Jits_Phase_8,4,5,63,98,1993265576
3216,15,Jits_Phase_8,0,1,48,99,1994017184
3216,15,Jits_Phase_8,1,1,38,23,1994026828
3216,15,Jits_Phase_8,2,5,56,103,1994106344
3216,15,Jits_Phase_8,3,5,63,98,1994109336
3216,15,Jits_Phase_8,4,5,80,127,1994156280
3216,15,Jits_Phase_8,0,1,48,120,1994909392
3216,15,Jits_Phase_8,1,1,38,24,1994919560
3216,15,Jits_Phase_8,2,5,56,103,1994925436
3216,15,Jits_Phase_8,3,5,63,98,1994956084
3216,15,Jits_Phase_8,4,5,80,127,1994966504
3216,15,Jits_Phase_8,0,5,63,98,1995636176
3216,15,Jits_Phase_8,1,5,56,103,1995705708
3216,15,Jits_Phase_8,2,5,80,127,1995755760
3216,15,Jits_Phase_8,3,1,48,127,1995786776
3216,15,Jits_Phase_8,4,1,38,26,1995796868
3216,15,Jits_Phase_8,0,5,63,98,1996465472
3216,15,Jits_Phase_8,1,5,56,103,1996475816
3216,15,Jits_Phase_8,2,5,80,127,1996478808
3216,15,Jits_Phase_8,3,1,48,109,1996567208
3216,15,Jits_Phase_8,4,1,38,25,1996577300
3216,15,Jits_Phase_8,0,5,80,127,1997216156
3216,15,Jits_Phase_8,1,5,56,103,1997275504
3216,15,Jits_Phase_8,2,1,48,108,1997285216
3216,15,Jits_Phase_8,3,1,38,24,1997295388
3216,15,Jits_Phase_8,4,5,63,98,1997365704
3216,15,Jits_Phase_8,0,5,80,127,1998015796
3216,15,Jits_Phase_8,1,1,48,90,1998106592
3216,15,Jits_Phase_8,2,5,56,103,1998116136
3216,15,Jits_Phase_8,3,1,38,22,1998117100
3216,15,Jits_Phase_8,4,5,63,98,1998156288
3216,15,Jits_Phase_8,0,5,56,103,1998865736
3216,15,Jits_Phase_8,1,5,63,98,1998886344
3216,15,Jits_Phase_8,2,1,48,86,1998905052
3216,15,Jits_Phase_8,3,1,38,21,1998915520
3216,15,Jits_Phase_8,4,5,80,127,1998926108
3216,15,Jits_Phase_8,0,5,63,98,1999635696
3216,15,Jits_Phase_8,1,5,56,103,1999656452
3216,15,Jits_Phase_8,2,1,48,100,1999707148
3216,15,Jits_Phase_8,3,5,80,127,1999755864
3216,15,Jits_Phase_8,0,5,63,98,2000426616
3216,15,Jits_Phase_8,1,1,48,91,2000484884
3216,15,Jits_Phase_8,2,1,38,22,2000495276
3216,15,Jits_Phase_8,3,5,80,127,2000535908
3216,15,Jits_Phase_8,4,5,56,103,2000565656
3216,15,Jits_Phase_8,0,5,56,103,2001245716
3216,15,Jits_Phase_8,1,5,63,98,2001276364
3216,15,Jits_Phase_8,2,1,48,109,2001299336
3216,15,Jits_Phase_8,3,1,38,23,2001309428
3216,15,Jits_Phase_8,4,5,80,127,2001325640
3216,15,Jits_Phase_8,0,5,63,98,2002015612
3216,15,Jits_Phase_8,1,5,56,103,2002046556
3216,15,Jits_Phase_8,2,1,48,104,2002091328
3216,15,Jits_Phase_8,3,5,80,127,2002095628
3216,15,Jits_Phase_8,4,1,38,23,2002101296
3216,15,Jits_Phase_8,0,5,56,103,2002846108
3216,15,Jits_Phase_8,1,5,63,98,2002865596
3216,15,Jits_Phase_8,2,1,48,110,2002868568
3216,15,Jits_Phase_8,3,5,80,127,2002946528
3216,15,Jits_Phase_8,0,5,63,98,2003616072
3216,15,Jits_Phase_8,1,1,48,98,2003635752
3216,15,Jits_Phase_8,2,1,38,21,2003645848
3216,15,Jits_Phase_8,3,5,56,103,2003675540
3216,15,Jits_Phase_8,4,5,80,127,2003706184
3216,15,Jits_Phase_8,0,5,56,103,2004455664
3216,15,Jits_Phase_8,1,1,48,109,2004458708
3216,15,Jits_Phase_8,2,1,38,22,2004468804
3216,15,Jits_Phase_8,3,5,80,127,2004516424
3216,15,Jits_Phase_8,4,5,63,98,2004556424
3216,15,Jits_Phase_8,0,5,63,98,2005236288
3216,15,Jits_Phase_8,1,1,48,115,2005271720
3216,15,Jits_Phase_8,2,1,38,24,2005281892
3216,15,Jits_Phase_8,3,5,56,103,2005295408
3216,15,Jits_Phase_8,4,5,80,127,2005366132
3216,15,Jits_Phase_8,0,1,48,107,2006102356
3216,15,Jits_Phase_8,1,1,38,24,2006112452
3216,15,Jits_Phase_8,2,5,56,103,2006115632
3216,15,Jits_Phase_8,3,5,63,98,2006125972
3216,15,Jits_Phase_8,4,5,80,127,2006129412
3216,15,Jits_Phase_8,0,5,63,98,2006856028
3216,15,Jits_Phase_8,1,5,56,103,2006915372
3216,15,Jits_Phase_8,2,5,80,127,2006918364
3216,15,Jits_Phase_8,3,1,48,90,2006943500
3216,15,Jits_Phase_8,4,1,38,20,2006953296
3216,15,Jits_Phase_8,0,5,63,98,2007636392
3216,15,Jits_Phase_8,1,5,80,127,2007666288
3216,15,Jits_Phase_8,2,5,56,103,2007685628
3216,15,Jits_Phase_8,3,1,48,107,2007759536
3216,15,Jits_Phase_8,4,1,38,24,2007769632
3216,15,Jits_Phase_8,0,5,56,103,2008365360
3216,15,Jits_Phase_8,1,5,63,98,2008415636
3216,15,Jits_Phase_8,2,5,80,127,2008495432
3216,15,Jits_Phase_8,3,1,48,102,2008514136
3216,15,Jits_Phase_8,4,1,38,23,2008524232
3216,15,Jits_Phase_8,0,5,80,127,2009065788
3216,15,Jits_Phase_8,1,5,63,98,2009105752
3216,15,Jits_Phase_8,2,5,56,103,2009126136
3216,15,Jits_Phase_8,3,1,48,118,2009253976
3216,15,Jits_Phase_8,4,1,38,25,2009264608
3216,15,Jits_Phase_8,0,5,56,103,2009936320
3216,15,Jits_Phase_8,1,5,80,127,2009945396
3216,15,Jits_Phase_8,2,5,63,98,2009966152
3216,15,Jits_Phase_8,3,1,48,90,2010006960
3216,15,Jits_Phase_8,4,1,38,22,2010016828
3216,15,Jits_Phase_8,0,5,56,103,2010715512
3216,15,Jits_Phase_8,1,5,63,98,2010765564
3216,15,Jits_Phase_8,2,1,48,111,2010775428
3216,15,Jits_Phase_8,3,1,38,24,2010785596
3216,15,Jits_Phase_8,4,5,80,127,2010796412
3216,15,Jits_Phase_8,0,5,56,103,2011466316
3216,15,Jits_Phase_8,1,5,63,98,2011476292
3216,15,Jits_Phase_8,2,5,80,127,2011525444
3216,15,Jits_Phase_8,3,1,48,84,2011589164
3216,15,Jits_Phase_8,4,1,38,20,2011599260
3216,15,Jits_Phase_8,0,5,56,103,2012255824
3216,15,Jits_Phase_8,1,5,80,127,2012258888
3216,15,Jits_Phase_8,2,1,48,108,2012306672
3216,15,Jits_Phase_8,3,1,38,23,2012317284
3216,15,Jits_Phase_8,4,5,63,98,2012417168
3216,15,Jits_Phase_8,0,5,63,98,2013076068
3216,15,Jits_Phase_8,1,5,56,103,2013145452
3216,15,Jits_Phase_8,2,1,48,106,2013173904
3216,15,Jits_Phase_8,3,1,38,23,2013184940
3216,15,Jits_Phase_8,4,5,80,127,2013187196
3216,15,Jits_Phase_8,0,5,63,98,2013915420
3216,15,Jits_Phase_8,1,1,48,90,2013947084
3216,15,Jits_Phase_8,2,1,38,21,2013957340
3216,15,Jits_Phase_8,3,5,56,103,2014005988
3216,15,Jits_Phase_8,4,5,80,127,2014008976
3216,15,Jits_Phase_8,0,5,56,103,2014695984
3216,15,Jits_Phase_8,1,1,48,105,2014759144
3216,15,Jits_Phase_8,2,1,38,22,2014769240
3216,15,Jits_Phase_8,3,5,63,98,2014785896
3216,15,Jits_Phase_8,4,5,80,127,2014796020
3216,15,Jits_Phase_8,0,5,56,103,2015465812
3216,15,Jits_Phase_8,1,5,63,98,2015515892
3216,15,Jits_Phase_8,2,5,80,127,2015545936
3216,15,Jits_Phase_8,3,1,48,127,2015554684
3216,15,Jits_Phase_8,4,1,38,25,2015564700
3216,15,Jits_Phase_8,0,1,48,127,2016324640
3216,15,Jits_Phase_8,1,5,63,98,2016345488
3216,15,Jits_Phase_8,2,5,80,127,2016355756
3216,15,Jits_Phase_8,3,5,56,103,2016415980
3216,15,Jits_Phase_8,0,5,63,98,2017066236
3216,15,Jits_Phase_8,1,5,80,127,2017125952
3216,15,Jits_Phase_8,2,5,56,103,2017165888
3216,15,Jits_Phase_8,3,1,48,127,2017166856
3216,15,Jits_Phase_8,0,1,48,127,2017926956
3216,15,Jits_Phase_8,1,1,48,57,2017960720
3216,15,Jits_Phase_8,2,5,56,103,2017965472
3216,15,Jits_Phase_8,3,5,80,127,2017985856
3216,15,Jits_Phase_8,4,5,63,98,2018006464
3216,15,Jits_Phase_8,0,5,63,98,2018686276
3216,15,Jits_Phase_8,1,5,56,103,2018705912
3216,15,Jits_Phase_8,2,5,80,127,2018746000
3216,15,Jits_Phase_8,3,1,48,127,2018769272
3216,15,Jits_Phase_8,4,1,48,73,2018798168
3216,15,Jits_Phase_8,0,5,63,98,2019496412
3216,15,Jits_Phase_8,1,5,80,127,2019526088
3216,15,Jits_Phase_8,2,1,48,127,2019542984
3216,15,Jits_Phase_8,3,5,56,103,2019545568
3216,15,Jits_Phase_8,4,1,48,44,2019582924
3216,15,Jits_Phase_8,0,5,80,127,2020266316
3216,15,Jits_Phase_8,1,5,56,103,2020315768
3216,15,Jits_Phase_8,2,1,48,127,2020329152
3216,15,Jits_Phase_8,3,5,63,98,2020375952
3216,15,Jits_Phase_8,0,5,63,98,2021055756
3216,15,Jits_Phase_8,1,1,48,127,2021146712
3216,15,Jits_Phase_8,2,5,56,103,2021175652
3216,15,Jits_Phase_8,3,5,80,127,2021206448
3216,15,Jits_Phase_8,0,5,80,127,2021895712
3216,15,Jits_Phase_8,1,5,63,98,2021915876
3216,15,Jits_Phase_8,2,1,48,127,2021930008
3216,15,Jits_Phase_8,3,1,48,54,2021964080
3216,15,Jits_Phase_8,4,5,56,103,2021985528
3216,15,Jits_Phase_8,0,1,48,127,2022713564
3216,15,Jits_Phase_8,1,5,63,98,2022715676
3216,15,Jits_Phase_8,2,5,56,103,2022725948
3216,15,Jits_Phase_8,3,5,80,127,2022805816
3216,15,Jits_Phase_8,0,1,48,127,2023532140
3216,15,Jits_Phase_8,1,5,56,103,2023575780
3216,15,Jits_Phase_8,2,5,80,127,2023605528
3216,15,Jits_Phase_8,3,5,63,98,2023615800
3216,15,Jits_Phase_8,0,9999,9999,9999,1888703596
3216,15,Jits_Phase_8,1,9999,9999,9999,1889503316
3216,15,Jits_Phase_8,2,9999,9999,9999,1890304096
3216,15,Jits_Phase_8,3,9999,9999,9999,1891114040
3216,15,Jits_Phase_8,4,9999,9999,9999,1891913852
3216,15,Jits_Phase_8,5,9999,9999,9999,1892713524
3216,15,Jits_Phase_8,6,9999,9999,9999,1893513308
3216,15,Jits_Phase_8,7,9999,9999,9999,1894314104
3216,15,Jits_Phase_8,8,9999,9999,9999,1895113796
3216,15,Jits_Phase_8,9,9999,9999,9999,1895913568
3216,15,Jits_Phase_8,10,9999,9999,9999,1896713308
3216,15,Jits_Phase_8,11,9999,9999,9999,1897514064
3216,15,Jits_Phase_8,12,9999,9999,9999,1898313832
3216,15,Jits_Phase_8,13,9999,9999,9999,1899113536
3216,15,Jits_Phase_8,14,9999,9999,9999,1899913292
3216,15,Jits_Phase_8,15,9999,9999,9999,1900714068
3216,15,Jits_Phase_8,16,9999,9999,9999,1901513812
3216,15,Jits_Phase_8,17,9999,9999,9999,1902313592
3216,15,Jits_Phase_8,18,9999,9999,9999,1903113332
3216,15,Jits_Phase_8,19,9999,9999,9999,1903914068
3216,15,Jits_Phase_8,20,9999,9999,9999,1904713784
3216,15,Jits_Phase_8,21,9999,9999,9999,1905513560
3216,15,Jits_Phase_8,22,9999,9999,9999,1906313292
3216,15,Jits_Phase_8,23,9999,9999,9999,1907114076
3216,15,Jits_Phase_8,24,9999,9999,9999,1907913848
3216,15,Jits_Phase_8,25,9999,9999,9999,1908713584
3216,15,Jits_Phase_8,26,9999,9999,9999,1909513296
3216,15,Jits_Phase_8,27,9999,9999,9999,1910314104
3216,15,Jits_Phase_8,28,9999,9999,9999,1911113844
3216,15,Jits_Phase_8,29,9999,9999,9999,1911913568
3216,15,Jits_Phase_8,30,9999,9999,9999,1912693832
3216,15,Jits_Phase_8,31,9999,9999,9999,1913493604
3216,15,Jits_Phase_8,32,9999,9999,9999,1914293364
3216,15,Jits_Phase_8,33,9999,9999,9999,1915094088
3216,15,Jits_Phase_8,34,9999,9999,9999,1915904124
3216,15,Jits_Phase_8,35,9999,9999,9999,1916714036
3216,15,Jits_Phase_8,36,9999,9999,9999,1917513828
3216,15,Jits_Phase_8,37,9999,9999,9999,1918313592
3216,15,Jits_Phase_8,38,9999,9999,9999,1919113328
3216,15,Jits_Phase_8,39,9999,9999,9999,1919914044
3216,15,Jits_Phase_8,40,9999,9999,9999,1920713816
3216,15,Jits_Phase_8,41,9999,9999,9999,1921513580
3216,15,Jits_Phase_8,42,9999,9999,9999,1922313324
3216,15,Jits_Phase_8,43,9999,9999,9999,1923114048
3216,15,Jits_Phase_8,44,9999,9999,9999,1923913852
3216,15,Jits_Phase_8,45,9999,9999,9999,1924713576
3216,15,Jits_Phase_8,46,9999,9999,9999,1925513316
3216,15,Jits_Phase_8,47,9999,9999,9999,1926314100
3216,15,Jits_Phase_8,48,9999,9999,9999,1927133248
3216,15,Jits_Phase_8,49,9999,9999,9999,1927934032
3216,15,Jits_Phase_8,50,9999,9999,9999,1928733776
3216,15,Jits_Phase_8,51,9999,9999,9999,1929533512
3216,15,Jits_Phase_8,52,9999,9999,9999,1930333276
3216,15,Jits_Phase_8,53,9999,9999,9999,1931134016
3216,15,Jits_Phase_8,54,9999,9999,9999,1931933752
3216,15,Jits_Phase_8,55,9999,9999,9999,1932733496
3216,15,Jits_Phase_8,56,9999,9999,9999,1933533292
3216,15,Jits_Phase_8,57,9999,9999,9999,1934334008
3216,15,Jits_Phase_8,58,9999,9999,9999,1935133788
3216,15,Jits_Phase_8,59,9999,9999,9999,1935933548
3216,15,Jits_Phase_8,60,9999,9999,9999,1936733284
3216,15,Jits_Phase_8,61,9999,9999,9999,1937534076
3216,15,Jits_Phase_8,62,9999,9999,9999,1938333760
3216,15,Jits_Phase_8,63,9999,9999,9999,1939133548
3216,15,Jits_Phase_8,64,9999,9999,9999,1939973228
3216,15,Jits_Phase_8,65,9999,9999,9999,1940773968
3216,15,Jits_Phase_8,66,9999,9999,9999,1941573756
3216,15,Jits_Phase_8,67,9999,9999,9999,1942373496
3216,15,Jits_Phase_8,68,9999,9999,9999,1943173224
3216,15,Jits_Phase_8,69,9999,9999,9999,1943973984
3216,15,Jits_Phase_8,70,9999,9999,9999,1944773744
3216,15,Jits_Phase_8,71,9999,9999,9999,1945573460
3216,15,Jits_Phase_8,72,9999,9999,9999,1946373172
3216,15,Jits_Phase_8,73,9999,9999,9999,1947173960
3216,15,Jits_Phase_8,74,9999,9999,9999,1947973704
3216,15,Jits_Phase_8,75,9999,9999,9999,1948773448
3216,15,Jits_Phase_8,76,9999,9999,9999,1949573176
3216,15,Jits_Phase_8,77,9999,9999,9999,1950373988
3216,15,Jits_Phase_8,78,9999,9999,9999,1951173716
3216,15,Jits_Phase_8,79,9999,9999,9999,1951973480
3216,15,Jits_Phase_8,80,9999,9999,9999,1952773244
3216,15,Jits_Phase_8,81,9999,9999,9999,1953534048
3216,15,Jits_Phase_8,82,9999,9999,9999,1954333812
3216,15,Jits_Phase_8,83,9999,9999,9999,1955133504
3216,15,Jits_Phase_8,84,9999,9999,9999,1955933308
3216,15,Jits_Phase_8,85,9999,9999,9999,1956734048
3216,15,Jits_Phase_8,86,9999,9999,9999,1957533792
3216,15,Jits_Phase_8,87,9999,9999,9999,1958333508
3216,15,Jits_Phase_8,88,9999,9999,9999,1959133280
3216,15,Jits_Phase_8,89,9999,9999,9999,1959934004
3216,15,Jits_Phase_8,90,9999,9999,9999,1960733772
3216,15,Jits_Phase_8,91,9999,9999,9999,1961533556
3216,15,Jits_Phase_8,92,9999,9999,9999,1962333272
3216,15,Jits_Phase_8,93,9999,9999,9999,1963134004
3216,15,Jits_Phase_8,94,9999,9999,9999,1963933776
3216,15,Jits_Phase_8,95,9999,9999,9999,1964733564
3216,15,Jits_Phase_8,96,9999,9999,9999,1965533252
3216,15,Jits_Phase_8,97,9999,9999,9999,1966253128
3216,15,Jits_Phase_8,98,9999,9999,9999,1967053896
3216,15,Jits_Phase_8,99,9999,9999,9999,1967853656
3216,15,Jits_Phase_8,100,9999,9999,9999,1968653408
3216,15,Jits_Phase_8,101,9999,9999,9999,1969453180
3216,15,Jits_Phase_8,102,9999,9999,9999,1970253936
3216,15,Jits_Phase_8,103,9999,9999,9999,1971053660
3216,15,Jits_Phase_8,104,9999,9999,9999,1971853384
3216,15,Jits_Phase_8,105,9999,9999,9999,1972653176
3216,15,Jits_Phase_8,106,9999,9999,9999,1973453932
3216,15,Jits_Phase_8,107,9999,9999,9999,1974253684
3216,15,Jits_Phase_8,108,9999,9999,9999,1975053424
3216,15,Jits_Phase_8,109,9999,9999,9999,1975853132
3216,15,Jits_Phase_8,110,9999,9999,9999,1976653908
3216,15,Jits_Phase_8,111,9999,9999,9999,1977453672
3216,15,Jits_Phase_8,112,9999,9999,9999,1978253404
3216,15,Jits_Phase_8,113,9999,9999,9999,1979053116
3216,15,Jits_Phase_8,114,9999,9999,9999,1979933752
3216,15,Jits_Phase_8,115,9999,9999,9999,1980733548
3216,15,Jits_Phase_8,116,9999,9999,9999,1981533268
3216,15,Jits_Phase_8,117,9999,9999,9999,1982334048
3216,15,Jits_Phase_8,118,9999,9999,9999,1983133812
3216,15,Jits_Phase_8,119,9999,9999,9999,1983933504
3216,15,Jits_Phase_8,120,9999,9999,9999,1984733252
3216,15,Jits_Phase_8,121,9999,9999,9999,1985534072
3216,15,Jits_Phase_8,122,9999,9999,9999,1986333756
3216,15,Jits_Phase_8,123,9999,9999,9999,1987133520
3216,15,Jits_Phase_8,124,9999,9999,9999,1987933296
3216,15,Jits_Phase_8,125,9999,9999,9999,1988734068
3216,15,Jits_Phase_8,126,9999,9999,9999,1989533776
3216,15,Jits_Phase_8,127,9999,9999,9999,1990333564
3216,15,Jits_Phase_8,128,9999,9999,9999,1991133280
3216,15,Jits_Phase_8,129,9999,9999,9999,1991934068
3216,15,Jits_Phase_8,130,9999,9999,9999,1992733804
3216,15,Jits_Phase_8,131,9999,9999,9999,1993693240
3216,15,Jits_Phase_8,132,9999,9999,9999,1994494072
3216,15,Jits_Phase_8,133,9999,9999,9999,1995293768
3216,15,Jits_Phase_8,134,9999,9999,9999,1996093560
3216,15,Jits_Phase_8,135,9999,9999,9999,1996893248
3216,15,Jits_Phase_8,136,9999,9999,9999,1997694068
3216,15,Jits_Phase_8,137,9999,9999,9999,1998493792
3216,15,Jits_Phase_8,138,9999,9999,9999,1999293500
3216,15,Jits_Phase_8,139,9999,9999,9999,2000093248
3216,15,Jits_Phase_8,140,9999,9999,9999,2000894044
3216,15,Jits_Phase_8,141,9999,9999,9999,2001693804
3216,15,Jits_Phase_8,142,9999,9999,9999,2002493528
3216,15,Jits_Phase_8,143,9999,9999,9999,2003293276
3216,15,Jits_Phase_8,144,9999,9999,9999,2004094028
3216,15,Jits_Phase_8,145,9999,9999,9999,2004893804
3216,15,Jits_Phase_8,146,9999,9999,9999,2005693520
3216,15,Jits_Phase_8,147,9999,9999,9999,2006493292
3216,15,Jits_Phase_8,148,9999,9999,9999,2007294012
3216,15,Jits_Phase_8,149,9999,9999,9999,2008093768
3216,15,Jits_Phase_8,150,9999,9999,9999,2008733796
3216,15,Jits_Phase_8,151,9999,9999,9999,2009533504
3216,15,Jits_Phase_8,152,9999,9999,9999,2010333308
3216,15,Jits_Phase_8,153,9999,9999,9999,2011134024
3216,15,Jits_Phase_8,154,9999,9999,9999,2011933808
3216,15,Jits_Phase_8,155,9999,9999,9999,2012733512
3216,15,Jits_Phase_8,156,9999,9999,9999,2013533240
3216,15,Jits_Phase_8,157,9999,9999,9999,2014334048
3216,15,Jits_Phase_8,158,9999,9999,9999,2015133816
3216,15,Jits_Phase_8,159,9999,9999,9999,2015933532
3216,15,Jits_Phase_8,160,9999,9999,9999,2016733300
3216,15,Jits_Phase_8,161,9999,9999,9999,2017534076
3216,15,Jits_Phase_8,162,9999,9999,9999,2018333756
3216,15,Jits_Phase_8,163,9999,9999,9999,2019133492
3216,15,Jits_Phase_8,164,9999,9999,9999,2019933292
3216,15,Jits_Phase_8,165,9999,9999,9999,2020734008
3216,15,Jits_Phase_8,166,9999,9999,9999,2021533792
3216,15,Jits_Phase_8,167,9999,9999,9999,2022333544
3216,15,Jits_Phase_8,168,9999,9999,9999,2023133308
3216,15,Jits_Phase_8,169,9999,9999,9999,2023934024
3217,17,Jits_Phase_5,0,5,56,103,2038054288
3217,17,Jits_Phase_5,1,5,63,98,2038057384
3217,17,Jits_Phase_5,2,5,80,127,2038060360
3217,17,Jits_Phase_5,0,5,56,103,2038553920
3217,17,Jits_Phase_5,1,5,63,98,2038557096
3217,17,Jits_Phase_5,2,5,80,127,2038560224
3217,17,Jits_Phase_5,0,5,56,103,2039054024
3217,17,Jits_Phase_5,1,5,80,127,2039064068
3217,17,Jits_Phase_5,2,5,63,98,2039084304
3217,17,Jits_Phase_5,0,5,63,98,2039504208
3217,17,Jits_Phase_5,1,5,80,127,2039533808
3217,17,Jits_Phase_5,2,5,56,103,2039544300
3217,17,Jits_Phase_5,0,1,48,86,2040050252
3217,17,Jits_Phase_5,1,1,38,20,2040060680
3217,17,Jits_Phase_5,2,5,80,127,2040064312
3217,17,Jits_Phase_5,3,5,56,103,2040073908
3217,17,Jits_Phase_5,4,5,63,98,2040104260
3217,17,Jits_Phase_5,0,5,63,98,2040553804
3217,17,Jits_Phase_5,1,1,48,87,2040579868
3217,17,Jits_Phase_5,2,5,56,103,2040583648
3217,17,Jits_Phase_5,3,1,38,21,2040589832
3217,17,Jits_Phase_5,4,5,80,127,2040593760
3217,17,Jits_Phase_5,0,5,56,103,2041004352
3217,17,Jits_Phase_5,1,5,63,98,2041053584
3217,17,Jits_Phase_5,2,1,48,82,2041068088
3217,17,Jits_Phase_5,3,5,80,127,2041073960
3217,17,Jits_Phase_5,4,1,38,20,2041078876
3217,17,Jits_Phase_5,0,5,80,127,2041514396
3217,17,Jits_Phase_5,1,1,48,75,2041551992
3217,17,Jits_Phase_5,2,1,38,19,2041562180
3217,17,Jits_Phase_5,3,5,63,98,2041564724
3217,17,Jits_Phase_5,4,5,56,103,2041603712
3217,17,Jits_Phase_5,0,5,56,103,2042014020
3217,17,Jits_Phase_5,1,5,63,98,2042043696
3217,17,Jits_Phase_5,2,1,48,72,2042059688
3217,17,Jits_Phase_5,3,1,38,18,2042070088
3217,17,Jits_Phase_5,4,5,80,127,2042114788
3217,17,Jits_Phase_5,0,5,56,103,2042513864
3217,17,Jits_Phase_5,1,1,48,79,2042568972
3217,17,Jits_Phase_5,2,5,80,127,2042574096
3217,17,Jits_Phase_5,3,5,63,98,2042603992
3217,17,Jits_Phase_5,0,5,56,103,2043023744
3217,17,Jits_Phase_5,1,5,63,98,2043033940
3217,17,Jits_Phase_5,2,5,80,127,2043073800
3217,17,Jits_Phase_5,3,1,48,69,2043074768
3217,17,Jits_Phase_5,0,5,63,98,2043514144
3217,17,Jits_Phase_5,1,1,48,75,2043555248
3217,17,Jits_Phase_5,2,5,80,127,2043594152
3217,17,Jits_Phase_5,3,5,56,103,2043604272
3217,17,Jits_Phase_5,0,5,63,98,2044064016
3217,17,Jits_Phase_5,1,1,48,85,2044065056
3217,17,Jits_Phase_5,2,5,56,103,2044104020
3217,17,Jits_Phase_5,3,5,80,127,2044107164
3217,17,Jits_Phase_5,0,5,56,103,2044523828
3217,17,Jits_Phase_5,1,5,63,98,2044534172
3217,17,Jits_Phase_5,2,5,80,127,2044574036
3217,17,Jits_Phase_5,3,1,48,73,2044590484
3217,17,Jits_Phase_5,0,5,56,103,2045014448
3217,17,Jits_Phase_5,1,5,63,98,2045017588
3217,17,Jits_Phase_5,2,5,80,127,2045033784
3217,17,Jits_Phase_5,3,1,48,82,2045086564
3217,17,Jits_Phase_5,4,1,38,19,2045096436
3217,17,Jits_Phase_5,0,5,80,127,2045533536
3217,17,Jits_Phase_5,1,5,56,103,2045543728
3217,17,Jits_Phase_5,2,1,48,90,2045557484
3217,17,Jits_Phase_5,3,1,38,19,2045567652
3217,17,Jits_Phase_5,4,5,63,98,2045613528
3217,17,Jits_Phase_5,0,5,63,98,2046024160
3217,17,Jits_Phase_5,1,5,56,103,2046043644
3217,17,Jits_Phase_5,2,1,48,85,2046066768
3217,17,Jits_Phase_5,3,5,80,127,2046124700
3217,17,Jits_Phase_5,0,5,56,103,2046533876
3217,17,Jits_Phase_5,1,1,48,84,2046566060
3217,17,Jits_Phase_5,2,5,80,127,2046573956
3217,17,Jits_Phase_5,3,1,38,19,2046576704
3217,17,Jits_Phase_5,4,5,63,98,2046584144
3217,17,Jits_Phase_5,0,5,80,127,2047023616
3217,17,Jits_Phase_5,1,1,48,92,2047054192
3217,17,Jits_Phase_5,2,5,63,98,2047055752
3217,17,Jits_Phase_5,3,1,38,20,2047064200
3217,17,Jits_Phase_5,4,1,48,57,2047078324
3217,17,Jits_Phase_5,5,5,56,103,2047094240
3217,17,Jits_Phase_5,0,5,56,103,2047543664
3217,17,Jits_Phase_5,1,1,48,89,2047550000
3217,17,Jits_Phase_5,2,1,38,20,2047560168
3217,17,Jits_Phase_5,3,5,63,98,2047574508
3217,17,Jits_Phase_5,4,5,80,127,2047623588
3217,17,Jits_Phase_5,0,5,80,127,2048044708
3217,17,Jits_Phase_5,1,1,48,96,2048073912
3217,17,Jits_Phase_5,2,1,38,21,2048084184
3217,17,Jits_Phase_5,3,5,56,103,2048086492
3217,17,Jits_Phase_5,4,5,63,98,2048093548
3217,17,Jits_Phase_5,0,5,80,127,2048523504
3217,17,Jits_Phase_5,1,5,63,98,2048563592
3217,17,Jits_Phase_5,2,1,48,82,2048581012
3217,17,Jits_Phase_5,3,5,56,103,2048623896
3217,17,Jits_Phase_5,0,5,56,103,2049024760
3217,17,Jits_Phase_5,1,5,80,127,2049033460
3217,17,Jits_Phase_5,2,1,48,104,2049082584
3217,17,Jits_Phase_5,3,1,38,21,2049092752
3217,17,Jits_Phase_5,4,5,63,98,2049113448
3217,17,Jits_Phase_5,0,5,80,127,2049524212
3217,17,Jits_Phase_5,1,5,63,98,2049583504
3217,17,Jits_Phase_5,2,1,48,108,2049603556
3217,17,Jits_Phase_5,3,5,56,103,2049614368
3217,17,Jits_Phase_5,0,5,56,103,2050023760
3217,17,Jits_Phase_5,1,5,80,127,2050084324
3217,17,Jits_Phase_5,2,1,48,109,2050086040
3217,17,Jits_Phase_5,3,1,38,23,2050096504
3217,17,Jits_Phase_5,4,5,63,98,2050124248
3217,17,Jits_Phase_5,0,5,56,103,2050573624
3217,17,Jits_Phase_5,1,5,63,98,2050583892
3217,17,Jits_Phase_5,2,5,80,127,2050587404
3217,17,Jits_Phase_5,3,1,48,98,2050601536
3217,17,Jits_Phase_5,4,1,38,21,2050611424
3217,17,Jits_Phase_5,0,5,80,127,2051024208
3217,17,Jits_Phase_5,1,1,48,109,2051100536
3217,17,Jits_Phase_5,2,1,38,22,2051110632
3217,17,Jits_Phase_5,3,5,63,98,2051114336
3217,17,Jits_Phase_5,4,5,56,103,2051123564
3217,17,Jits_Phase_5,0,5,56,103,2051524048
3217,17,Jits_Phase_5,1,5,63,98,2051526996
3217,17,Jits_Phase_5,2,5,80,127,2051530268
3217,17,Jits_Phase_5,3,1,48,99,2051629228
3217,17,Jits_Phase_5,0,5,80,127,2052044324
3217,17,Jits_Phase_5,1,5,63,98,2052094476
3217,17,Jits_Phase_5,2,1,48,99,2052119844
3217,17,Jits_Phase_5,3,5,56,103,2052124516
3217,17,Jits_Phase_5,4,1,38,22,2052129884
3217,17,Jits_Phase_5,5,1,48,63,2052142384
3217,17,Jits_Phase_5,0,5,56,103,2052524516
3217,17,Jits_Phase_5,1,5,80,127,2052533592
3217,17,Jits_Phase_5,2,5,63,98,2052604192
3217,17,Jits_Phase_5,3,1,48,103,2052612116
3217,17,Jits_Phase_5,4,1,38,21,2052622360
3217,17,Jits_Phase_5,5,1,48,42,2052655660
3217,17,Jits_Phase_5,0,5,56,103,2053034448
3217,17,Jits_Phase_5,1,5,63,98,2053053784
3217,17,Jits_Phase_5,2,1,48,108,2053106724
3217,17,Jits_Phase_5,3,5,80,127,2053114336
3217,17,Jits_Phase_5,4,1,48,53,2053137816
3217,17,Jits_Phase_5,0,5,80,127,2053523988
3217,17,Jits_Phase_5,1,1,48,94,2053590408
3217,17,Jits_Phase_5,2,5,63,98,2053593436
3217,17,Jits_Phase_5,3,1,38,20,2053600892
3217,17,Jits_Phase_5,4,5,56,103,2053614036
3217,17,Jits_Phase_5,0,5,80,127,2054044296
3217,17,Jits_Phase_5,1,5,56,103,2054054344
3217,17,Jits_Phase_5,2,5,63,98,2054063344
3217,17,Jits_Phase_5,3,1,48,106,2054117924
3217,17,Jits_Phase_5,4,1,38,22,2054128092
3217,17,Jits_Phase_5,5,1,48,52,2054147720
3217,17,Jits_Phase_5,0,5,80,127,2054533476
3217,17,Jits_Phase_5,1,5,56,103,2054553936
3217,17,Jits_Phase_5,2,1,48,105,2054613172
3217,17,Jits_Phase_5,3,5,63,98,2054623456
3217,17,Jits_Phase_5,4,1,38,22,2054624420
3217,17,Jits_Phase_5,5,1,48,56,2054639432
3217,17,Jits_Phase_5,0,5,56,103,2055043420
3217,17,Jits_Phase_5,1,5,80,127,2055074140
3217,17,Jits_Phase_5,2,5,63,98,2055093476
3217,17,Jits_Phase_5,3,1,48,97,2055106404
3217,17,Jits_Phase_5,4,1,38,21,2055116572
3217,17,Jits_Phase_5,0,5,63,98,2055533896
3217,17,Jits_Phase_5,1,1,48,106,2055578440
3217,17,Jits_Phase_5,2,1,38,23,2055588460
3217,17,Jits_Phase_5,3,5,56,103,2055594332
3217,17,Jits_Phase_5,4,5,80,127,2055624304
3217,17,Jits_Phase_5,0,5,63,98,2056024304
3217,17,Jits_Phase_5,1,5,80,127,2056027900
3217,17,Jits_Phase_5,2,1,48,106,2056088180
3217,17,Jits_Phase_5,3,1,38,23,2056098276
3217,17,Jits_Phase_5,4,1,48,71,2056107988
3217,17,Jits_Phase_5,5,5,56,103,2056113492
3217,17,Jits_Phase_5,0,5,56,103,2056543728
3217,17,Jits_Phase_5,1,5,63,98,2056574304
3217,17,Jits_Phase_5,2,1,48,111,2056585212
3217,17,Jits_Phase_5,3,1,38,23,2056595232
3217,17,Jits_Phase_5,4,1,48,69,2056605472
3217,17,Jits_Phase_5,5,5,80,127,2056614192
3217,17,Jits_Phase_5,0,5,63,98,2057044308
3217,17,Jits_Phase_5,1,1,48,100,2057069524
3217,17,Jits_Phase_5,2,1,38,22,2057079692
3217,17,Jits_Phase_5,3,5,56,103,2057084220
3217,17,Jits_Phase_5,4,5,80,127,2057103932
3217,17,Jits_Phase_5,0,5,63,98,2057554412
3217,17,Jits_Phase_5,1,1,48,103,2057574320
3217,17,Jits_Phase_5,2,1,38,22,2057584488
3217,17,Jits_Phase_5,3,5,56,103,2057594180
3217,17,Jits_Phase_5,4,1,48,67,2057596028
3217,17,Jits_Phase_5,5,5,80,127,2057603308
3217,17,Jits_Phase_5,0,5,80,127,2058033544
3217,17,Jits_Phase_5,1,1,48,108,2058069100
3217,17,Jits_Phase_5,2,1,38,23,2058079188
3217,17,Jits_Phase_5,3,1,48,70,2058088760
3217,17,Jits_Phase_5,4,5,63,98,2058104300
3217,17,Jits_Phase_5,5,5,56,103,2058123712
3217,17,Jits_Phase_5,0,5,56,103,2058524000
3217,17,Jits_Phase_5,1,5,80,127,2058543412
3217,17,Jits_Phase_5,2,1,48,113,2058579116
3217,17,Jits_Phase_5,3,5,63,98,2058584464
3217,17,Jits_Phase_5,0,5,63,98,2059034108
3217,17,Jits_Phase_5,1,5,80,127,2059053372
3217,17,Jits_Phase_5,2,1,48,114,2059072376
3217,17,Jits_Phase_5,3,1,38,24,2059081948
3217,17,Jits_Phase_5,4,5,56,103,2059094400
3217,17,Jits_Phase_5,0,5,63,98,2059533796
3217,17,Jits_Phase_5,1,5,56,103,2059554104
3217,17,Jits_Phase_5,2,5,80,127,2059564376
3217,17,Jits_Phase_5,3,1,48,110,2059571476
3217,17,Jits_Phase_5,4,1,38,22,2059581572
3217,17,Jits_Phase_5,0,5,80,127,2060034308
3217,17,Jits_Phase_5,1,5,56,103,2060054092
3217,17,Jits_Phase_5,2,1,48,99,2060063508
3217,17,Jits_Phase_5,3,1,38,22,2060073008
3217,17,Jits_Phase_5,4,5,63,98,2060083516
3217,17,Jits_Phase_5,0,1,48,108,2060567376
3217,17,Jits_Phase_5,1,1,38,23,2060577468
3217,17,Jits_Phase_5,2,5,56,103,2060604096
3217,17,Jits_Phase_5,3,5,80,127,2060607084
3217,17,Jits_Phase_5,4,5,63,98,2060624180
3217,17,Jits_Phase_5,0,5,63,98,2061023560
3217,17,Jits_Phase_5,1,5,56,103,2061054232
3217,17,Jits_Phase_5,2,1,48,110,2061074208
3217,17,Jits_Phase_5,3,1,38,23,2061084304
3217,17,Jits_Phase_5,4,5,80,127,2061113844
3217,17,Jits_Phase_5,0,1,48,86,2061577780
3217,17,Jits_Phase_5,1,5,63,98,2061604328
3217,17,Jits_Phase_5,2,5,56,103,2061613404
3217,17,Jits_Phase_5,3,5,80,127,2061623896
3217,17,Jits_Phase_5,0,5,56,103,2062063912
3217,17,Jits_Phase_5,1,5,80,127,2062093760
3217,17,Jits_Phase_5,2,5,63,98,2062103880
3217,17,Jits_Phase_5,3,1,48,117,2062115916
3217,17,Jits_Phase_5,0,1,48,100,2062597840
3217,17,Jits_Phase_5,1,5,63,98,2062603716
3217,17,Jits_Phase_5,2,1,38,22,2062608256
3217,17,Jits_Phase_5,3,5,56,103,2062613908
3217,17,Jits_Phase_5,4,5,80,127,2062634292
3217,17,Jits_Phase_5,0,5,56,103,2063033812
3217,17,Jits_Phase_5,1,5,63,98,2063094052
3217,17,Jits_Phase_5,2,5,80,127,2063097516
3217,17,Jits_Phase_5,3,1,48,72,2063110748
3217,17,Jits_Phase_5,0,5,80,127,2063554020
3217,17,Jits_Phase_5,1,5,56,103,2063564216
3217,17,Jits_Phase_5,2,1,48,104,2063583672
3217,17,Jits_Phase_5,3,1,38,22,2063593768
3217,17,Jits_Phase_5,4,5,63,98,2063633740
3217,17,Jits_Phase_5,0,5,80,127,2064044436
3217,17,Jits_Phase_5,1,1,48,94,2064090552
3217,17,Jits_Phase_5,2,1,38,21,2064100648
3217,17,Jits_Phase_5,3,5,56,103,2064114164
3217,17,Jits_Phase_5,4,5,63,98,2064124236
3217,17,Jits_Phase_5,0,1,48,95,2064582320
3217,17,Jits_Phase_5,1,5,63,98,2064583984
3217,17,Jits_Phase_5,2,5,56,103,2064594252
3217,17,Jits_Phase_5,3,1,48,64,2064602164
3217,17,Jits_Phase_5,4,5,80,127,2064613864
3217,17,Jits_Phase_5,0,5,80,127,2065033872
3217,17,Jits_Phase_5,1,1,48,92,2065084720
3217,17,Jits_Phase_5,2,5,63,98,2065093960
3217,17,Jits_Phase_5,3,1,38,21,2065095072
3217,17,Jits_Phase_5,4,5,56,103,2065133888
3217,17,Jits_Phase_5,0,5,56,103,2065574188
3217,17,Jits_Phase_5,1,5,63,98,2065583560
3217,17,Jits_Phase_5,2,1,48,100,2065598064
3217,17,Jits_Phase_5,3,1,38,21,2065608232
3217,17,Jits_Phase_5,4,5,80,127,2065624516
3217,17,Jits_Phase_5,0,5,56,103,2066034036
3217,17,Jits_Phase_5,1,5,80,127,2066063864
3217,17,Jits_Phase_5,2,1,48,102,2066098816
3217,17,Jits_Phase_5,3,1,38,22,2066109056
3217,17,Jits_Phase_5,4,5,63,98,2066114032
3217,17,Jits_Phase_5,5,1,48,69,2066116032
3217,17,Jits_Phase_5,0,5,56,103,2066573784
3217,17,Jits_Phase_5,1,1,48,95,2066596908
3217,17,Jits_Phase_5,2,1,38,21,2066606996
3217,17,Jits_Phase_5,3,5,63,98,2066613768
3217,17,Jits_Phase_5,4,5,80,127,2066617208
3217,17,Jits_Phase_5,0,5,56,103,2067074592
3217,17,Jits_Phase_5,1,5,63,98,2067083744
3217,17,Jits_Phase_5,2,5,80,127,2067104128
3217,17,Jits_Phase_5,3,1,48,98,2067110988
3217,17,Jits_Phase_5,4,1,38,21,2067121160
3217,17,Jits_Phase_5,0,5,56,103,2067534132
3217,17,Jits_Phase_5,1,5,80,127,2067537424
3217,17,Jits_Phase_5,2,5,63,98,2067573996
3217,17,Jits_Phase_5,3,1,48,100,2067610440
3217,17,Jits_Phase_5,4,1,38,22,2067620988
3217,17,Jits_Phase_5,0,5,63,98,2068073980
3217,17,Jits_Phase_5,1,1,48,97,2068082204
3217,17,Jits_Phase_5,2,1,38,21,2068092372
3217,17,Jits_Phase_5,3,5,56,103,2068103632
3217,17,Jits_Phase_5,4,5,80,127,2068124016
3217,17,Jits_Phase_5,0,5,80,127,2068543772
3217,17,Jits_Phase_5,1,5,56,103,2068554040
3217,17,Jits_Phase_5,2,5,63,98,2068564536
3217,17,Jits_Phase_5,3,1,48,102,2068582424
3217,17,Jits_Phase_5,4,1,38,22,2068592436
3217,17,Jits_Phase_5,0,5,56,103,2069043472
3217,17,Jits_Phase_5,1,1,48,96,2069059848
3217,17,Jits_Phase_5,2,1,38,21,2069069944
3217,17,Jits_Phase_5,3,5,80,127,2069083536
3217,17,Jits_Phase_5,4,5,63,98,2069114180
3217,17,Jits_Phase_5,0,5,63,98,2069553656
3217,17,Jits_Phase_5,1,1,48,99,2069557300
3217,17,Jits_Phase_5,2,5,80,127,2069563696
3217,17,Jits_Phase_5,3,1,38,22,2069567864
3217,17,Jits_Phase_5,4,5,56,103,2069574184
3217,17,Jits_Phase_5,0,5,56,103,2070043904
3217,17,Jits_Phase_5,1,1,48,95,2070054972
3217,17,Jits_Phase_5,2,1,38,22,2070065136
3217,17,Jits_Phase_5,3,5,63,98,2070113636
3217,17,Jits_Phase_5,4,5,80,127,2070123980
3217,17,Jits_Phase_5,0,5,80,127,2070553940
3217,17,Jits_Phase_5,1,5,56,103,2070564208
3217,17,Jits_Phase_5,2,1,48,96,2070573476
3217,17,Jits_Phase_5,3,1,38,21,2070583044
3217,17,Jits_Phase_5,4,5,63,98,2070614380
3217,17,Jits_Phase_5,0,1,48,98,2071060704
3217,17,Jits_Phase_5,1,5,80,127,2071063960
3217,17,Jits_Phase_5,2,1,38,22,2071070968
3217,17,Jits_Phase_5,3,5,56,103,2071124568
3217,17,Jits_Phase_5,4,5,63,98,2071155196
3217,17,Jits_Phase_5,0,5,56,103,2071563516
3217,17,Jits_Phase_5,1,5,80,127,2071566664
3217,17,Jits_Phase_5,2,1,48,92,2071588888
3217,17,Jits_Phase_5,3,1,38,22,2071598976
3217,17,Jits_Phase_5,4,5,63,98,2071603508
3217,17,Jits_Phase_5,0,1,48,97,2072091036
3217,17,Jits_Phase_5,1,5,56,103,2072094144
3217,17,Jits_Phase_5,2,1,38,21,2072101524
3217,17,Jits_Phase_5,3,1,48,65,2072112904
3217,17,Jits_Phase_5,4,5,63,98,2072123640
3217,17,Jits_Phase_5,5,5,80,127,2072133912
3217,17,Jits_Phase_5,0,1,48,104,2072602480
3217,17,Jits_Phase_5,1,5,63,98,2072604212
3217,17,Jits_Phase_5,2,1,38,22,2072612904
3217,17,Jits_Phase_5,3,5,80,127,2072615372
3217,17,Jits_Phase_5,4,5,56,103,2072623548
3217,17,Jits_Phase_5,0,5,80,127,2073053492
3217,17,Jits_Phase_5,1,1,48,109,2073088472
3217,17,Jits_Phase_5,2,1,38,23,2073098420
3217,17,Jits_Phase_5,3,5,56,103,2073103840
3217,17,Jits_Phase_5,4,5,63,98,2073106756
3217,17,Jits_Phase_5,0,1,48,101,2073551788
3217,17,Jits_Phase_5,1,1,38,21,2073561904
3217,17,Jits_Phase_5,2,5,56,103,2073583948
3217,17,Jits_Phase_5,3,5,80,127,2073603460
3217,17,Jits_Phase_5,4,5,63,98,2073613808
3217,17,Jits_Phase_5,0,5,63,98,2074064352
3217,17,Jits_Phase_5,1,1,48,112,2074067172
3217,17,Jits_Phase_5,2,1,38,23,2074077196
3217,17,Jits_Phase_5,3,5,56,103,2074093928
3217,17,Jits_Phase_5,4,5,80,127,2074114560
3217,17,Jits_Phase_5,0,1,48,101,2074564904
3217,17,Jits_Phase_5,1,5,56,103,2074574368
3217,17,Jits_Phase_5,2,1,38,22,2074575408
3217,17,Jits_Phase_5,3,5,80,127,2074584408
3217,17,Jits_Phase_5,4,5,63,98,2074654260
3217,17,Jits_Phase_5,0,5,63,98,2075063532
3217,17,Jits_Phase_5,1,1,48,106,2075089568
3217,17,Jits_Phase_5,2,1,38,23,2075100036
3217,17,Jits_Phase_5,3,5,80,127,2075103592
3217,17,Jits_Phase_5,4,1,48,66,2075109764
3217,17,Jits_Phase_5,5,5,56,103,2075143460
3217,17,Jits_Phase_5,0,5,56,103,2075573820
3217,17,Jits_Phase_5,1,5,63,98,2075583944
3217,17,Jits_Phase_5,2,1,48,98,2075588480
3217,17,Jits_Phase_5,3,1,38,21,2075598724
3217,17,Jits_Phase_5,4,1,48,68,2075605704
3217,17,Jits_Phase_5,5,5,80,127,2075606596
3217,17,Jits_Phase_5,0,1,48,90,2076074572
3217,17,Jits_Phase_5,1,1,38,20,2076084216
3217,17,Jits_Phase_5,2,5,63,98,2076114284
3217,17,Jits_Phase_5,3,5,80,127,2076133844
3217,17,Jits_Phase_5,4,5,56,103,2076154400
3217,17,Jits_Phase_5,0,5,56,103,2076553536
3217,17,Jits_Phase_5,1,1,48,100,2076595464
3217,17,Jits_Phase_5,2,1,38,21,2076605856
3217,17,Jits_Phase_5,3,5,80,127,2076633524
3217,17,Jits_Phase_5,4,5,63,98,2076643724
3217,17,Jits_Phase_5,0,5,80,127,2077094372
3217,17,Jits_Phase_5,1,5,63,98,2077103524
3217,17,Jits_Phase_5,2,1,48,107,2077107164
3217,17,Jits_Phase_5,3,1,38,24,2077117332
3217,17,Jits_Phase_5,4,5,56,103,2077134292
3217,17,Jits_Phase_5,0,5,63,98,2077554224
3217,17,Jits_Phase_5,1,5,80,127,2077594160
3217,17,Jits_Phase_5,2,1,48,98,2077600496
3217,17,Jits_Phase_5,3,1,38,22,2077610664
3217,17,Jits_Phase_5,4,5,56,103,2077654372
3217,17,Jits_Phase_5,0,5,63,98,2078064240
3217,17,Jits_Phase_5,1,1,48,95,2078108116
3217,17,Jits_Phase_5,2,5,56,103,2078114360
3217,17,Jits_Phase_5,3,1,38,21,2078118528
3217,17,Jits_Phase_5,4,5,80,127,2078143804
3217,17,Jits_Phase_5,0,5,80,127,2078563640
3217,17,Jits_Phase_5,1,5,63,98,2078574136
3217,17,Jits_Phase_5,2,1,48,97,2078595240
3217,17,Jits_Phase_5,3,1,38,22,2078605408
3217,17,Jits_Phase_5,4,5,56,103,2078643636
3217,17,Jits_Phase_5,0,1,48,109,2079080456
3217,17,Jits_Phase_5,1,1,38,24,2079090548
3217,17,Jits_Phase_5,2,5,80,127,2079123772
3217,17,Jits_Phase_5,3,5,56,103,2079134192
3217,17,Jits_Phase_5,4,5,63,98,2079137256
3217,17,Jits_Phase_5,0,5,56,103,2079564088
3217,17,Jits_Phase_5,1,5,80,127,2079583652
3217,17,Jits_Phase_5,2,5,63,98,2079593996
3217,17,Jits_Phase_5,3,1,48,100,2079608124
3217,17,Jits_Phase_5,4,1,38,22,2079618220
3217,17,Jits_Phase_5,0,5,63,98,2080074208
3217,17,Jits_Phase_5,1,1,48,96,2080097628
3217,17,Jits_Phase_5,2,1,38,21,2080107272
3217,17,Jits_Phase_5,3,5,56,103,2080114120
3217,17,Jits_Phase_5,4,1,48,62,2080118944
3217,17,Jits_Phase_5,5,5,80,127,2080133360
3217,17,Jits_Phase_5,0,5,63,98,2080574000
3217,17,Jits_Phase_5,1,1,48,104,2080587384
3217,17,Jits_Phase_5,2,1,38,22,2080597628
3217,17,Jits_Phase_5,3,5,56,103,2080634212
3217,17,Jits_Phase_5,4,5,80,127,2080637280
3217,17,Jits_Phase_5,0,5,56,103,2081033532
3217,17,Jits_Phase_5,1,5,80,127,2081054140
3217,17,Jits_Phase_5,2,1,48,89,2081056888
3217,17,Jits_Phase_5,3,5,63,98,2081094068
3217,17,Jits_Phase_5,0,1,48,95,2081546068
3217,17,Jits_Phase_5,1,1,38,21,2081556460
3217,17,Jits_Phase_5,2,5,56,103,2081564132
3217,17,Jits_Phase_5,3,5,63,98,2081583396
3217,17,Jits_Phase_5,4,5,80,127,2081593960
3217,17,Jits_Phase_5,0,5,80,127,2082033992
3217,17,Jits_Phase_5,1,1,48,104,2082037188
3217,17,Jits_Phase_5,2,1,38,21,2082047688
3217,17,Jits_Phase_5,3,5,56,103,2082063680
3217,17,Jits_Phase_5,4,5,63,98,2082103764
3217,17,Jits_Phase_5,0,1,48,86,2082530220
3217,17,Jits_Phase_5,1,1,38,19,2082540092
3217,17,Jits_Phase_5,2,5,80,127,2082544096
3217,17,Jits_Phase_5,3,5,56,103,2082563384
3217,17,Jits_Phase_5,4,5,63,98,2082623920
3217,17,Jits_Phase_5,0,1,48,80,2083046464
3217,17,Jits_Phase_5,1,5,56,103,2083053908
3217,17,Jits_Phase_5,2,5,80,127,2083074392
3217,17,Jits_Phase_5,3,5,63,98,2083133956
3217,17,Jits_Phase_5,0,5,80,127,2083534184
3217,17,Jits_Phase_5,1,5,56,103,2083544304
3217,17,Jits_Phase_5,2,1,48,111,2083568776
3217,17,Jits_Phase_5,3,5,63,98,2083584260
3217,17,Jits_Phase_5,0,5,63,98,2084034104
3217,17,Jits_Phase_5,1,1,48,118,2084072976
3217,17,Jits_Phase_5,2,5,56,103,2084074800
3217,17,Jits_Phase_5,3,5,80,127,2084077472
3217,17,Jits_Phase_5,0,5,63,98,2084554220
3217,17,Jits_Phase_5,1,1,48,106,2084559804
3217,17,Jits_Phase_5,2,1,38,21,2084569604
3217,17,Jits_Phase_5,3,5,80,127,2084593984
3217,17,Jits_Phase_5,4,5,56,103,2084623832
3217,17,Jits_Phase_5,0,5,56,103,2085043652
3217,17,Jits_Phase_5,1,1,48,113,2085044692
3217,17,Jits_Phase_5,2,5,63,98,2085053988
3217,17,Jits_Phase_5,3,1,48,60,2085067728
3217,17,Jits_Phase_5,4,5,80,127,2085083788
3217,17,Jits_Phase_5,0,1,48,102,2085532808
3217,17,Jits_Phase_5,1,5,80,127,2085534676
3217,17,Jits_Phase_5,2,5,63,98,2085603908
3217,17,Jits_Phase_5,3,5,56,103,2085613956
3217,17,Jits_Phase_5,0,5,63,98,2086033784
3217,17,Jits_Phase_5,1,1,48,114,2086056984
3217,17,Jits_Phase_5,2,5,56,103,2086104356
3217,17,Jits_Phase_5,3,5,80,127,2086113656
3217,17,Jits_Phase_5,0,5,63,98,2086513992
3217,17,Jits_Phase_5,1,5,56,103,2086533480
3217,17,Jits_Phase_5,2,1,48,106,2086547612
3217,17,Jits_Phase_5,3,1,48,58,2086573692
3217,17,Jits_Phase_5,4,5,80,127,2086575028
3217,17,Jits_Phase_5,0,5,56,103,2086994232
3217,17,Jits_Phase_5,1,5,63,98,2087003452
3217,17,Jits_Phase_5,2,1,48,99,2087019680
3217,17,Jits_Phase_5,3,1,38,21,2087029772
3217,17,Jits_Phase_5,4,5,80,127,2087084264
3217,17,Jits_Phase_5,0,5,63,98,2087483956
3217,17,Jits_Phase_5,1,1,48,103,2087512352
3217,17,Jits_Phase_5,2,5,56,103,2087514072
3217,17,Jits_Phase_5,3,1,38,21,2087522744
3217,17,Jits_Phase_5,4,5,80,127,2087554304
3217,17,Jits_Phase_5,0,5,56,103,2087983440
3217,17,Jits_Phase_5,1,1,48,103,2088012188
3217,17,Jits_Phase_5,2,5,63,98,2088024416
3217,17,Jits_Phase_5,3,1,48,64,2088034716
3217,17,Jits_Phase_5,4,5,80,127,2088064332
3217,17,Jits_Phase_5,0,5,80,127,2088484140
3217,17,Jits_Phase_5,1,1,48,116,2088517752
3217,17,Jits_Phase_5,2,5,56,103,2088564224
3217,17,Jits_Phase_5,3,5,63,98,2088574272
3217,17,Jits_Phase_5,0,5,56,103,2089023768
3217,17,Jits_Phase_5,1,5,63,98,2089026840
3217,17,Jits_Phase_5,2,1,48,114,2089029580
3217,17,Jits_Phase_5,3,5,80,127,2089034184
3217,17,Jits_Phase_5,4,1,48,74,2089049124
3217,17,Jits_Phase_5,0,1,48,109,2089505700
3217,17,Jits_Phase_5,1,1,38,21,2089515796
3217,17,Jits_Phase_5,2,1,48,62,2089528512
3217,17,Jits_Phase_5,3,5,56,103,2089543900
3217,17,Jits_Phase_5,4,5,63,98,2089563612
3217,17,Jits_Phase_5,5,5,80,127,2089573732
3217,17,Jits_Phase_5,0,5,63,98,2090003912
3217,17,Jits_Phase_5,1,5,80,127,2090014256
3217,17,Jits_Phase_5,2,1,48,102,2090015148
3217,17,Jits_Phase_5,3,1,38,22,2090024788
3217,17,Jits_Phase_5,4,5,56,103,2090033728
3217,17,Jits_Phase_5,0,1,48,97,2090501792
3217,17,Jits_Phase_5,1,5,63,98,2090503456
3217,17,Jits_Phase_5,2,1,38,21,2090512052
3217,17,Jits_Phase_5,3,1,48,57,2090526108
3217,17,Jits_Phase_5,4,5,56,103,2090584636
3217,17,Jits_Phase_5,5,5,80,127,2090587852
3217,17,Jits_Phase_5,0,5,63,98,2091004308
3217,17,Jits_Phase_5,1,1,48,109,2091017912
3217,17,Jits_Phase_5,2,5,56,103,2091023788
3217,17,Jits_Phase_5,3,1,48,71,2091039544
3217,17,Jits_Phase_5,4,5,80,127,2091053660
3217,17,Jits_Phase_5,0,5,56,103,2091503924
3217,17,Jits_Phase_5,1,1,48,109,2091505632
3217,17,Jits_Phase_5,2,5,63,98,2091523504
3217,17,Jits_Phase_5,3,1,48,65,2091526476
3217,17,Jits_Phase_5,4,5,80,127,2091533532
3217,17,Jits_Phase_5,0,1,48,120,2091997776
3217,17,Jits_Phase_5,1,1,48,72,2092020452
3217,17,Jits_Phase_5,2,5,56,103,2092034668
3217,17,Jits_Phase_5,3,5,63,98,2092064044
3217,17,Jits_Phase_5,4,5,80,127,2092067560
3217,17,Jits_Phase_5,0,5,56,103,2092483908
3217,17,Jits_Phase_5,1,1,48,113,2092498036
3217,17,Jits_Phase_5,2,1,48,72,2092518388
3217,17,Jits_Phase_5,3,5,63,98,2092523740
3217,17,Jits_Phase_5,4,5,80,127,2092584300
3217,17,Jits_Phase_5,0,1,48,108,2092995060
3217,17,Jits_Phase_5,1,5,56,103,2093004224
3217,17,Jits_Phase_5,2,5,63,98,2093014796
3217,17,Jits_Phase_5,3,5,80,127,2093073788
3217,17,Jits_Phase_5,0,5,56,103,2093503784
3217,17,Jits_Phase_5,1,1,48,127,2093506604
3217,17,Jits_Phase_5,2,5,80,127,2093524312
3217,17,Jits_Phase_5,3,1,48,74,2093529136
3217,17,Jits_Phase_5,4,5,63,98,2093553964
3217,17,Jits_Phase_5,0,5,80,127,2094013780
3217,17,Jits_Phase_5,1,1,48,108,2094022156
3217,17,Jits_Phase_5,2,5,56,103,2094023968
3217,17,Jits_Phase_5,3,1,38,21,2094032940
3217,17,Jits_Phase_5,4,5,63,98,2094043596
3217,17,Jits_Phase_5,0,1,48,117,2094495036
3217,17,Jits_Phase_5,1,5,63,98,2094504424
3217,17,Jits_Phase_5,2,1,38,22,2094505760
3217,17,Jits_Phase_5,3,5,80,127,2094584384
3217,17,Jits_Phase_5,4,5,56,103,2094594636
3217,17,Jits_Phase_5,0,1,48,123,2095031488
3217,17,Jits_Phase_5,1,1,48,77,2095048680
3217,17,Jits_Phase_5,2,5,80,127,2095094064
3217,17,Jits_Phase_5,3,5,56,103,2095113700
3217,17,Jits_Phase_5,4,5,63,98,2095116616
3217,17,Jits_Phase_5,0,1,48,124,2095565288
3217,17,Jits_Phase_5,1,1,48,78,2095582736
3217,17,Jits_Phase_5,2,5,63,98,2095584096
3217,17,Jits_Phase_5,3,5,80,127,2095587460
3217,17,Jits_Phase_5,4,5,56,103,2095643908
3217,17,Jits_Phase_5,0,5,56,103,2096063844
3217,17,Jits_Phase_5,1,5,80,127,2096074040
3217,17,Jits_Phase_5,2,1,48,109,2096092896
3217,17,Jits_Phase_5,3,1,48,71,2096112824
3217,17,Jits_Phase_5,4,5,63,98,2096114024
3217,17,Jits_Phase_5,0,5,56,103,2096554432
3217,17,Jits_Phase_5,1,1,48,103,2096579876
3217,17,Jits_Phase_5,2,1,48,72,2096601296
3217,17,Jits_Phase_5,3,5,63,98,2096613600
3217,17,Jits_Phase_5,4,5,80,127,2096623868
3217,17,Jits_Phase_5,0,5,63,98,2097064504
3217,17,Jits_Phase_5,1,1,48,109,2097067324
3217,17,Jits_Phase_5,2,1,48,73,2097086328
3217,17,Jits_Phase_5,3,5,80,127,2097104412
3217,17,Jits_Phase_5,4,5,56,103,2097144372
3217,17,Jits_Phase_5,0,5,56,103,2097564000
3217,17,Jits_Phase_5,1,1,48,118,2097574840
3217,17,Jits_Phase_5,2,1,48,76,2097596092
3217,17,Jits_Phase_5,3,5,63,98,2097643840
3217,17,Jits_Phase_5,4,5,80,127,2097647128
3217,17,Jits_Phase_5,0,1,48,119,2098093880
3217,17,Jits_Phase_5,1,1,48,76,2098111304
3217,17,Jits_Phase_5,2,5,80,127,2098124376
3217,17,Jits_Phase_5,3,5,56,103,2098153748
3217,17,Jits_Phase_5,4,5,63,98,2098156892
3217,17,Jits_Phase_5,0,5,56,103,2098584124
3217,17,Jits_Phase_5,1,5,80,127,2098604360
3217,17,Jits_Phase_5,2,1,48,115,2098625836
3217,17,Jits_Phase_5,3,5,63,98,2098644436
3217,17,Jits_Phase_5,0,5,80,127,2099064492
3217,17,Jits_Phase_5,1,5,63,98,2099083608
3217,17,Jits_Phase_5,2,1,48,101,2099113920
3217,17,Jits_Phase_5,3,1,48,71,2099133756
3217,17,Jits_Phase_5,4,5,56,103,2099144264
3217,17,Jits_Phase_5,0,5,63,98,2099574260
3217,17,Jits_Phase_5,1,5,56,103,2099584308
3217,17,Jits_Phase_5,2,1,48,110,2099608776
3217,17,Jits_Phase_5,3,5,80,127,2099633528
3217,17,Jits_Phase_5,0,5,56,103,2100063608
3217,17,Jits_Phase_5,1,5,63,98,2100084140
3217,17,Jits_Phase_5,2,5,80,127,2100094264
3217,17,Jits_Phase_5,3,1,48,118,2100110036
3217,17,Jits_Phase_5,4,1,48,66,2100130316
3217,17,Jits_Phase_5,0,5,56,103,2100564304
3217,17,Jits_Phase_5,1,5,63,98,2100567296
3217,17,Jits_Phase_5,2,5,80,127,2100583936
3217,17,Jits_Phase_5,3,1,48,120,2100597172
3217,17,Jits_Phase_5,0,1,48,119,2101068220
3217,17,Jits_Phase_5,1,1,48,81,2101083344
3217,17,Jits_Phase_5,2,5,63,98,2101104040
3217,17,Jits_Phase_5,3,5,56,103,2101133716
3217,17,Jits_Phase_5,4,5,80,127,2101164364
3217,17,Jits_Phase_5,0,5,80,127,2101563720
3217,17,Jits_Phase_5,1,1,48,111,2101607520
3217,17,Jits_Phase_5,2,1,48,69,2101627572
3217,17,Jits_Phase_5,3,5,56,103,2101653972
3217,17,Jits_Phase_5,4,5,63,98,2101656888
3217,17,Jits_Phase_5,0,5,56,103,2102063512
3217,17,Jits_Phase_5,1,5,80,127,2102066508
3217,17,Jits_Phase_5,2,1,48,110,2102125816
3217,17,Jits_Phase_5,3,5,63,98,2102144496
3217,17,Jits_Phase_5,4,1,48,73,2102147464
3217,17,Jits_Phase_5,0,5,80,127,2102564208
3217,17,Jits_Phase_5,1,1,48,107,2102610844
3217,17,Jits_Phase_5,2,5,63,98,2102623620
3217,17,Jits_Phase_5,3,1,48,68,2102635568
3217,17,Jits_Phase_5,4,5,56,103,2102654168
3217,17,Jits_Phase_5,0,5,63,98,2103064232
3217,17,Jits_Phase_5,1,5,80,127,2103074280
3217,17,Jits_Phase_5,2,1,48,108,2103120396
3217,17,Jits_Phase_5,3,1,48,60,2103144308
3217,17,Jits_Phase_5,4,5,56,103,2103145652
3217,17,Jits_Phase_5,0,1,48,119,2103606092
3217,17,Jits_Phase_5,1,5,56,103,2103624028
3217,17,Jits_Phase_5,2,1,48,76,2103625952
3217,17,Jits_Phase_5,3,5,80,127,2103653756
3217,17,Jits_Phase_5,4,5,63,98,2103704180
3217,17,Jits_Phase_5,0,1,48,119,2104140796
3217,17,Jits_Phase_5,1,1,48,72,2104162964
3217,17,Jits_Phase_5,2,5,63,98,2104214008
3217,17,Jits_Phase_5,3,5,56,103,2104243608
3217,17,Jits_Phase_5,4,5,80,127,2104246600
3217,17,Jits_Phase_5,0,1,48,112,2104668696
3217,17,Jits_Phase_5,1,1,48,73,2104688680
3217,17,Jits_Phase_5,2,5,63,98,2104713508
3217,17,Jits_Phase_5,3,5,80,127,2104734044
3217,17,Jits_Phase_5,4,5,56,103,2104744164
3217,17,Jits_Phase_5,0,1,48,119,2105215708
3217,17,Jits_Phase_5,1,5,56,103,2105223600
3217,17,Jits_Phase_5,2,5,63,98,2105226592
3217,17,Jits_Phase_5,3,1,48,66,2105238384
3217,17,Jits_Phase_5,4,5,80,127,2105243960
3217,17,Jits_Phase_5,0,5,56,103,2105674108
3217,17,Jits_Phase_5,1,5,63,98,2105684456
3217,17,Jits_Phase_5,2,5,80,127,2105713980
3217,17,Jits_Phase_5,3,1,48,115,2105726684
3217,17,Jits_Phase_5,4,1,48,71,2105747116
3217,17,Jits_Phase_5,0,5,63,98,2106194288
3217,17,Jits_Phase_5,1,5,80,127,2106213996
3217,17,Jits_Phase_5,2,1,48,108,2106237048
3217,17,Jits_Phase_5,3,5,56,103,2106254000
3217,17,Jits_Phase_5,4,1,48,66,2106257632
3217,17,Jits_Phase_5,0,5,56,103,2106723896
3217,17,Jits_Phase_5,1,1,48,107,2106742908
3217,17,Jits_Phase_5,2,5,63,98,2106763828
3217,17,Jits_Phase_5,3,5,80,127,2106766968
3217,17,Jits_Phase_5,0,5,80,127,2107164032
3217,17,Jits_Phase_5,1,5,56,103,2107204044
3217,17,Jits_Phase_5,2,5,63,98,2107254168
3217,17,Jits_Phase_5,3,1,48,99,2107262688
3217,17,Jits_Phase_5,4,1,38,20,2107272780
3217,17,Jits_Phase_5,0,5,56,103,2107724260
3217,17,Jits_Phase_5,1,5,80,127,2107734308
3217,17,Jits_Phase_5,2,1,48,110,2107745892
3217,17,Jits_Phase_5,3,5,63,98,2107764196
3217,17,Jits_Phase_5,4,1,48,68,2107766492
3217,17,Jits_Phase_5,0,5,56,103,2108173944
3217,17,Jits_Phase_5,1,5,80,127,2108213732
3217,17,Jits_Phase_5,2,1,48,108,2108233940
3217,17,Jits_Phase_5,3,1,48,74,2108250764
3217,17,Jits_Phase_5,4,5,63,98,2108263904
3217,17,Jits_Phase_5,0,5,56,103,2108674352
3217,17,Jits_Phase_5,1,5,80,127,2108714288
3217,17,Jits_Phase_5,2,1,48,95,2108746548
3217,17,Jits_Phase_5,3,5,63,98,2108763360
3217,17,Jits_Phase_5,0,5,80,127,2109163752
3217,17,Jits_Phase_5,1,1,48,117,2109233652
3217,17,Jits_Phase_5,2,5,63,98,2109243860
3217,17,Jits_Phase_5,3,5,56,103,2109253984
3217,17,Jits_Phase_5,0,5,80,127,2109713896
3217,17,Jits_Phase_5,1,5,56,103,2109724092
3217,17,Jits_Phase_5,2,5,63,98,2109743728
3217,17,Jits_Phase_5,3,1,48,116,2109748272
3217,17,Jits_Phase_5,4,1,48,67,2109769220
3217,17,Jits_Phase_5,0,5,63,98,2110183856
3217,17,Jits_Phase_5,1,1,48,97,2110244168
3217,17,Jits_Phase_5,2,5,56,103,2110253556
3217,17,Jits_Phase_5,3,1,38,21,2110254612
3217,17,Jits_Phase_5,4,5,80,127,2110258412
3217,17,Jits_Phase_5,0,5,80,127,2110674324
3217,17,Jits_Phase_5,1,1,48,94,2110709528
3217,17,Jits_Phase_5,2,5,63,98,2110723428
3217,17,Jits_Phase_5,3,1,48,60,2110731016
3217,17,Jits_Phase_5,4,5,56,103,2110764684
3217,17,Jits_Phase_5,0,5,63,98,2111213900
3217,17,Jits_Phase_5,1,1,48,115,2111217020
3217,17,Jits_Phase_5,2,5,56,103,2111253856
3217,17,Jits_Phase_5,3,5,80,127,2111264052
3217,17,Jits_Phase_5,0,5,63,98,2111704372
3217,17,Jits_Phase_5,1,5,56,103,2111723788
3217,17,Jits_Phase_5,2,1,48,114,2111726832
3217,17,Jits_Phase_5,3,5,80,127,2111744636
3217,17,Jits_Phase_5,0,5,80,127,2112164204
3217,17,Jits_Phase_5,1,5,56,103,2112173648
3217,17,Jits_Phase_5,2,5,63,98,2112193884
3217,17,Jits_Phase_5,3,1,48,89,2112218352
3217,17,Jits_Phase_5,4,1,48,51,2112246972
3217,17,Jits_Phase_5,0,5,63,98,2112693580
3217,17,Jits_Phase_5,1,1,48,105,2112701656
3217,17,Jits_Phase_5,2,5,56,103,2112733664
3217,17,Jits_Phase_5,3,5,80,127,2112764188
3217,17,Jits_Phase_5,0,5,56,103,2113154536
3217,17,Jits_Phase_5,1,5,63,98,2113184060
3217,17,Jits_Phase_5,2,1,48,114,2113205760
3217,17,Jits_Phase_5,3,5,80,127,2113213948
3217,17,Jits_Phase_5,4,1,48,56,2113235112
3217,17,Jits_Phase_5,0,5,80,127,2113574188
3217,17,Jits_Phase_5,1,5,56,103,2113643864
3217,17,Jits_Phase_5,2,5,63,98,2113647008
3217,17,Jits_Phase_5,3,1,48,108,2113696876
3217,17,Jits_Phase_5,4,1,48,45,2113733116
3217,17,Jits_Phase_5,0,5,56,103,2114084096
3217,17,Jits_Phase_5,1,5,63,98,2114134448
3217,17,Jits_Phase_5,2,5,80,127,2114164120
3217,17,Jits_Phase_5,3,1,48,111,2114176900
3217,17,Jits_Phase_5,0,5,63,98,2114563568
3217,17,Jits_Phase_5,1,5,80,127,2114566856
3217,17,Jits_Phase_5,2,5,56,103,2114623728
3217,17,Jits_Phase_5,3,1,48,106,2114655688
3217,17,Jits_Phase_5,0,5,56,103,2115093804
3217,17,Jits_Phase_5,1,5,80,127,2115104220
3217,17,Jits_Phase_5,2,1,48,94,2115118352
3217,17,Jits_Phase_5,3,1,38,21,2115127924
3217,17,Jits_Phase_5,4,5,63,98,2115154248
3217,17,Jits_Phase_5,0,5,63,98,2115563952
3217,17,Jits_Phase_5,1,5,56,103,2115574544
3217,17,Jits_Phase_5,2,5,80,127,2115603920
3217,17,Jits_Phase_5,3,1,48,111,2115604960
3217,17,Jits_Phase_5,0,1,48,117,2116091856
3217,17,Jits_Phase_5,1,5,63,98,2116094588
3217,17,Jits_Phase_5,2,5,80,127,2116097804
3217,17,Jits_Phase_5,3,1,48,53,2116124920
3217,17,Jits_Phase_5,4,5,56,103,2116126108
3217,17,Jits_Phase_5,0,1,48,118,2116592612
3217,17,Jits_Phase_5,1,5,63,98,2116613640
3217,17,Jits_Phase_5,2,5,56,103,2116633948
3217,17,Jits_Phase_5,3,5,80,127,2116637016
3217,17,Jits_Phase_5,0,5,63,98,2117074652
3217,17,Jits_Phase_5,1,1,48,122,2117112344
3217,17,Jits_Phase_5,2,1,48,55,2117143664
3217,17,Jits_Phase_5,3,5,56,103,2117145224
3217,17,Jits_Phase_5,4,5,80,127,2117164412
3217,17,Jits_Phase_5,0,5,56,103,2117563884
3217,17,Jits_Phase_5,1,5,63,98,2117573932
3217,17,Jits_Phase_5,2,1,48,119,2117595628
3217,17,Jits_Phase_5,3,1,48,48,2117630536
3217,17,Jits_Phase_5,4,5,80,127,2117664128
3217,17,Jits_Phase_5,0,1,48,100,2118070156
3217,17,Jits_Phase_5,1,5,56,103,2118083828
3217,17,Jits_Phase_5,2,5,80,127,2118123916
3217,17,Jits_Phase_5,3,5,63,98,2118134136
3217,17,Jits_Phase_5,0,1,48,95,2118561688
3217,17,Jits_Phase_5,1,1,38,21,2118571040
3217,17,Jits_Phase_5,2,5,56,103,2118604484
3217,17,Jits_Phase_5,3,5,63,98,2118633936
3217,17,Jits_Phase_5,4,5,80,127,2118663472
3217,17,Jits_Phase_5,0,1,48,97,2119060864
3217,17,Jits_Phase_5,1,5,80,127,2119063892
3217,17,Jits_Phase_5,2,1,38,20,2119071128
3217,17,Jits_Phase_5,3,5,63,98,2119103824
3217,17,Jits_Phase_5,4,5,56,103,2119124284
3217,17,Jits_Phase_5,0,1,48,94,2119580180
3217,17,Jits_Phase_5,1,1,38,20,2119589824
3217,17,Jits_Phase_5,2,5,56,103,2119603420
3217,17,Jits_Phase_5,3,5,80,127,2119624028
3217,17,Jits_Phase_5,4,5,63,98,2119643588
3217,17,Jits_Phase_5,0,5,63,98,2120073460
3217,17,Jits_Phase_5,1,5,56,103,2120083880
3217,17,Jits_Phase_5,2,1,48,102,2120110888
3217,17,Jits_Phase_5,3,1,38,21,2120121056
3217,17,Jits_Phase_5,4,5,80,127,2120144312
3217,17,Jits_Phase_5,0,5,56,103,2120574416
3217,17,Jits_Phase_5,1,1,48,93,2120582344
3217,17,Jits_Phase_5,2,1,38,21,2120592284
3217,17,Jits_Phase_5,3,5,63,98,2120643924
3217,17,Jits_Phase_5,4,5,80,127,2120664380
3217,17,Jits_Phase_5,0,5,56,103,2121074128
3217,17,Jits_Phase_5,1,5,63,98,2121103656
3217,17,Jits_Phase_5,2,1,48,103,2121109092
3217,17,Jits_Phase_5,3,5,80,127,2121143660
3217,17,Jits_Phase_5,0,5,63,98,2121563416
3217,17,Jits_Phase_5,1,1,48,104,2121593584
3217,17,Jits_Phase_5,2,5,56,103,2121613760
3217,17,Jits_Phase_5,3,5,80,127,2121624028
3217,17,Jits_Phase_5,0,1,48,111,2122073484
3217,17,Jits_Phase_5,1,5,56,103,2122104372
3217,17,Jits_Phase_5,2,5,63,98,2122154348
3217,17,Jits_Phase_5,3,5,80,127,2122163496
3217,17,Jits_Phase_5,0,5,56,103,2122574116
3217,17,Jits_Phase_5,1,1,48,117,2122579700
3217,17,Jits_Phase_5,2,5,63,98,2122584304
3217,17,Jits_Phase_5,3,5,80,127,2122664244
3217,17,Jits_Phase_5,0,9999,9999,9999,2038301796
3217,17,Jits_Phase_5,1,9999,9999,9999,2038801508
3217,17,Jits_Phase_5,2,9999,9999,9999,2039301236
3217,17,Jits_Phase_5,3,9999,9999,9999,2039801932
3217,17,Jits_Phase_5,4,9999,9999,9999,2040301644
3217,17,Jits_Phase_5,5,9999,9999,9999,2040801336
3217,17,Jits_Phase_5,6,9999,9999,9999,2041302076
3217,17,Jits_Phase_5,7,9999,9999,9999,2041812036
3217,17,Jits_Phase_5,8,9999,9999,9999,2042311804
3217,17,Jits_Phase_5,9,9999,9999,9999,2042811472
3217,17,Jits_Phase_5,10,9999,9999,9999,2043311160
3217,17,Jits_Phase_5,11,9999,9999,9999,2043811900
3217,17,Jits_Phase_5,12,9999,9999,9999,2044311648
3217,17,Jits_Phase_5,13,9999,9999,9999,2044811320
3217,17,Jits_Phase_5,14,9999,9999,9999,2045312068
3217,17,Jits_Phase_5,15,9999,9999,9999,2045822024
3217,17,Jits_Phase_5,16,9999,9999,9999,2046321768
3217,17,Jits_Phase_5,17,9999,9999,9999,2046821484
3217,17,Jits_Phase_5,18,9999,9999,9999,2047321168
3217,17,Jits_Phase_5,19,9999,9999,9999,2047821896
3217,17,Jits_Phase_5,20,9999,9999,9999,2048321596
3217,17,Jits_Phase_5,21,9999,9999,9999,2048821336
3217,17,Jits_Phase_5,22,9999,9999,9999,2049322096
3217,17,Jits_Phase_5,23,9999,9999,9999,2049821772
3217,17,Jits_Phase_5,24,9999,9999,9999,2050321512
3217,17,Jits_Phase_5,25,9999,9999,9999,2050821204
3217,17,Jits_Phase_5,26,9999,9999,9999,2051321944
3217,17,Jits_Phase_5,27,9999,9999,9999,2051821644
3217,17,Jits_Phase_5,28,9999,9999,9999,2052321352
3217,17,Jits_Phase_5,29,9999,9999,9999,2052822128
3217,17,Jits_Phase_5,30,9999,9999,9999,2053321844
3217,17,Jits_Phase_5,31,9999,9999,9999,2053821560
3217,17,Jits_Phase_5,32,9999,9999,9999,2054321236
3217,17,Jits_Phase_5,33,9999,9999,9999,2054821960
3217,17,Jits_Phase_5,34,9999,9999,9999,2055321724
3217,17,Jits_Phase_5,35,9999,9999,9999,2055821432
3217,17,Jits_Phase_5,36,9999,9999,9999,2056321092
3217,17,Jits_Phase_5,37,9999,9999,9999,2056821880
3217,17,Jits_Phase_5,38,9999,9999,9999,2057321568
3217,17,Jits_Phase_5,39,9999,9999,9999,2057821244
3217,17,Jits_Phase_5,40,9999,9999,9999,2058322020
3217,17,Jits_Phase_5,41,9999,9999,9999,2058821752
3217,17,Jits_Phase_5,42,9999,9999,9999,2059321404
3217,17,Jits_Phase_5,43,9999,9999,9999,2059821168
3217,17,Jits_Phase_5,44,9999,9999,9999,2060321900
3217,17,Jits_Phase_5,45,9999,9999,9999,2060821592
3217,17,Jits_Phase_5,46,9999,9999,9999,2061321292
3217,17,Jits_Phase_5,47,9999,9999,9999,2061822012
3217,17,Jits_Phase_5,48,9999,9999,9999,2062332028
3217,17,Jits_Phase_5,49,9999,9999,9999,2062831676
3217,17,Jits_Phase_5,50,9999,9999,9999,2063331412
3217,17,Jits_Phase_5,51,9999,9999,9999,2063831128
3217,17,Jits_Phase_5,52,9999,9999,9999,2064331884
3217,17,Jits_Phase_5,53,9999,9999,9999,2064831608
3217,17,Jits_Phase_5,54,9999,9999,9999,2065331300
3217,17,Jits_Phase_5,55,9999,9999,9999,2065832044
3217,17,Jits_Phase_5,56,9999,9999,9999,2066331724
3217,17,Jits_Phase_5,57,9999,9999,9999,2066831480
3217,17,Jits_Phase_5,58,9999,9999,9999,2067331180
3217,17,Jits_Phase_5,59,9999,9999,9999,2067831904
3217,17,Jits_Phase_5,60,9999,9999,9999,2068331612
3217,17,Jits_Phase_5,61,9999,9999,9999,2068831288
3217,17,Jits_Phase_5,62,9999,9999,9999,2069332044
3217,17,Jits_Phase_5,63,9999,9999,9999,2069831748
3217,17,Jits_Phase_5,64,9999,9999,9999,2070351956
3217,17,Jits_Phase_5,65,9999,9999,9999,2070851644
3217,17,Jits_Phase_5,66,9999,9999,9999,2071351368
3217,17,Jits_Phase_5,67,9999,9999,9999,2071851108
3217,17,Jits_Phase_5,68,9999,9999,9999,2072351848
3217,17,Jits_Phase_5,69,9999,9999,9999,2072851524
3217,17,Jits_Phase_5,70,9999,9999,9999,2073351288
3217,17,Jits_Phase_5,71,9999,9999,9999,2073851968
3217,17,Jits_Phase_5,72,9999,9999,9999,2074351724
3217,17,Jits_Phase_5,73,9999,9999,9999,2074851424
3217,17,Jits_Phase_5,74,9999,9999,9999,2075351108
3217,17,Jits_Phase_5,75,9999,9999,9999,2075851880
3217,17,Jits_Phase_5,76,9999,9999,9999,2076351564
3217,17,Jits_Phase_5,77,9999,9999,9999,2076851324
3217,17,Jits_Phase_5,78,9999,9999,9999,2077352004
3217,17,Jits_Phase_5,79,9999,9999,9999,2077851712
3217,17,Jits_Phase_5,80,9999,9999,9999,2078351480
3217,17,Jits_Phase_5,81,9999,9999,9999,2078831684
3217,17,Jits_Phase_5,82,9999,9999,9999,2079331452
3217,17,Jits_Phase_5,83,9999,9999,9999,2079831156
3217,17,Jits_Phase_5,84,9999,9999,9999,2080331892
3217,17,Jits_Phase_5,85,9999,9999,9999,2080831552
3217,17,Jits_Phase_5,86,9999,9999,9999,2081331284
3217,17,Jits_Phase_5,87,9999,9999,9999,2081832048
3217,17,Jits_Phase_5,88,9999,9999,9999,2082331740
3217,17,Jits_Phase_5,89,9999,9999,9999,2082831444
3217,17,Jits_Phase_5,90,9999,9999,9999,2083331172
3217,17,Jits_Phase_5,91,9999,9999,9999,2083831888
3217,17,Jits_Phase_5,92,9999,9999,9999,2084331624
3217,17,Jits_Phase_5,93,9999,9999,9999,2084831332
3217,17,Jits_Phase_5,94,9999,9999,9999,2085332092
3217,17,Jits_Phase_5,95,9999,9999,9999,2085831768
3217,17,Jits_Phase_5,96,9999,9999,9999,2086331468
3217,17,Jits_Phase_5,97,9999,9999,9999,2086782060
3217,17,Jits_Phase_5,98,9999,9999,9999,2087281752
3217,17,Jits_Phase_5,99,9999,9999,9999,2087781456
3217,17,Jits_Phase_5,100,9999,9999,9999,2088281176
3217,17,Jits_Phase_5,101,9999,9999,9999,2088781900
3217,17,Jits_Phase_5,102,9999,9999,9999,2089281644
3217,17,Jits_Phase_5,103,9999,9999,9999,2089781332
3217,17,Jits_Phase_5,104,9999,9999,9999,2090282076
3217,17,Jits_Phase_5,105,9999,9999,9999,2090781752
3217,17,Jits_Phase_5,106,9999,9999,9999,2091281516
3217,17,Jits_Phase_5,107,9999,9999,9999,2091781232
3217,17,Jits_Phase_5,108,9999,9999,9999,2092281936
3217,17,Jits_Phase_5,109,9999,9999,9999,2092781644
3217,17,Jits_Phase_5,110,9999,9999,9999,2093281388
3217,17,Jits_Phase_5,111,9999,9999,9999,2093782112
3217,17,Jits_Phase_5,112,9999,9999,9999,2094292096
3217,17,Jits_Phase_5,113,9999,9999,9999,2094791756
3217,17,Jits_Phase_5,114,9999,9999,9999,2095341676
3217,17,Jits_Phase_5,115,9999,9999,9999,2095841396
3217,17,Jits_Phase_5,116,9999,9999,9999,2096342100
3217,17,Jits_Phase_5,117,9999,9999,9999,2096852096
3217,17,Jits_Phase_5,118,9999,9999,9999,2097351752
3217,17,Jits_Phase_5,119,9999,9999,9999,2097851468
3217,17,Jits_Phase_5,120,9999,9999,9999,2098351192
3217,17,Jits_Phase_5,121,9999,9999,9999,2098851916
3217,17,Jits_Phase_5,122,9999,9999,9999,2099351668
3217,17,Jits_Phase_5,123,9999,9999,9999,2099851344
3217,17,Jits_Phase_5,124,9999,9999,9999,2100352124
3217,17,Jits_Phase_5,125,9999,9999,9999,2100862048
3217,17,Jits_Phase_5,126,9999,9999,9999,2101361728
3217,17,Jits_Phase_5,127,9999,9999,9999,2101861448
3217,17,Jits_Phase_5,128,9999,9999,9999,2102361168
3217,17,Jits_Phase_5,129,9999,9999,9999,2102861944
3217,17,Jits_Phase_5,130,9999,9999,9999,2103361596
3217,17,Jits_Phase_5,131,9999,9999,9999,2103961696
3217,17,Jits_Phase_5,132,9999,9999,9999,2104461420
3217,17,Jits_Phase_5,133,9999,9999,9999,2104961080
3217,17,Jits_Phase_5,134,9999,9999,9999,2105461848
3217,17,Jits_Phase_5,135,9999,9999,9999,2105961580
3217,17,Jits_Phase_5,136,9999,9999,9999,2106461308
3217,17,Jits_Phase_5,137,9999,9999,9999,2106962012
3217,17,Jits_Phase_5,138,9999,9999,9999,2107461740
3217,17,Jits_Phase_5,139,9999,9999,9999,2107961464
3217,17,Jits_Phase_5,140,9999,9999,9999,2108461120
3217,17,Jits_Phase_5,141,9999,9999,9999,2108961844
3217,17,Jits_Phase_5,142,9999,9999,9999,2109461608
3217,17,Jits_Phase_5,143,9999,9999,9999,2109961288
3217,17,Jits_Phase_5,144,9999,9999,9999,2110462044
3217,17,Jits_Phase_5,145,9999,9999,9999,2110961728
3217,17,Jits_Phase_5,146,9999,9999,9999,2111461464
3217,17,Jits_Phase_5,147,9999,9999,9999,2111961152
3217,17,Jits_Phase_5,148,9999,9999,9999,2112461932
3217,17,Jits_Phase_5,149,9999,9999,9999,2112961600
3217,17,Jits_Phase_5,150,9999,9999,9999,2113362004
3217,17,Jits_Phase_5,151,9999,9999,9999,2113861728
3217,17,Jits_Phase_5,152,9999,9999,9999,2114361404
3217,17,Jits_Phase_5,153,9999,9999,9999,2114861164
3217,17,Jits_Phase_5,154,9999,9999,9999,2115361844
3217,17,Jits_Phase_5,155,9999,9999,9999,2115861580
3217,17,Jits_Phase_5,156,9999,9999,9999,2116361308
3217,17,Jits_Phase_5,157,9999,9999,9999,2116862024
3217,17,Jits_Phase_5,158,9999,9999,9999,2117361752
3217,17,Jits_Phase_5,159,9999,9999,9999,2117861468
3217,17,Jits_Phase_5,160,9999,9999,9999,2118361140
3217,17,Jits_Phase_5,161,9999,9999,9999,2118861932
3217,17,Jits_Phase_5,162,9999,9999,9999,2119361620
3217,17,Jits_Phase_5,163,9999,9999,9999,2119861300
3217,17,Jits_Phase_5,164,9999,9999,9999,2120362100
3217,17,Jits_Phase_5,165,9999,9999,9999,2120861808
3217,17,Jits_Phase_5,166,9999,9999,9999,2121361472
3217,17,Jits_Phase_5,167,9999,9999,9999,2121861244
3217,17,Jits_Phase_5,168,9999,9999,9999,2122361908
3217,17,Jits_Phase_5,169,9999,9999,9999,2122861680
3218,18,Jits_Linear_8,0,5,56,103,2136831472
3218,18,Jits_Linear_8,1,5,63,98,2136834572
3218,18,Jits_Linear_8,2,5,80,127,2136837764
3218,18,Jits_Linear_8,0,5,56,103,2137650512
3218,18,Jits_Linear_8,1,5,63,98,2137653536
3218,18,Jits_Linear_8,2,5,80,127,2137656808
3218,18,Jits_Linear_8,0,5,80,127,2138411500
3218,18,Jits_Linear_8,1,5,63,98,2138500588
3218,18,Jits_Linear_8,2,5,56,103,2138510560
3218,18,Jits_Linear_8,0,5,56,103,2139250940
3218,18,Jits_Linear_8,1,5,63,98,2139261656
3218,18,Jits_Linear_8,2,5,80,127,2139351340
3218,18,Jits_Linear_8,0,5,63,98,2140040548
3218,18,Jits_Linear_8,1,5,80,127,2140071344
3218,18,Jits_Linear_8,2,1,48,75,2140099276
3218,18,Jits_Linear_8,3,5,56,103,2140100864
3218,18,Jits_Linear_8,0,1,48,83,2140823248
3218,18,Jits_Linear_8,1,5,56,103,2140860816
3218,18,Jits_Linear_8,2,5,80,127,2140961004
3218,18,Jits_Linear_8,3,5,63,98,2141011428
3218,18,Jits_Linear_8,0,5,56,103,2141670840
3218,18,Jits_Linear_8,1,1,48,86,2141709436
3218,18,Jits_Linear_8,2,1,38,19,2141719536
3218,18,Jits_Linear_8,3,5,80,127,2141722168
3218,18,Jits_Linear_8,4,5,63,98,2141760912
3218,18,Jits_Linear_8,0,1,48,74,2142482084
3218,18,Jits_Linear_8,1,1,38,18,2142492032
3218,18,Jits_Linear_8,2,5,80,127,2142510416
3218,18,Jits_Linear_8,3,5,63,98,2142541140
3218,18,Jits_Linear_8,4,5,56,103,2142610704
3218,18,Jits_Linear_8,0,1,48,75,2143306272
3218,18,Jits_Linear_8,1,5,63,98,2143351336
3218,18,Jits_Linear_8,2,5,56,103,2143380788
3218,18,Jits_Linear_8,3,5,80,127,2143441312
3218,18,Jits_Linear_8,0,5,56,103,2144100676
3218,18,Jits_Linear_8,1,5,80,127,2144103740
3218,18,Jits_Linear_8,2,1,48,74,2144156904
3218,18,Jits_Linear_8,3,5,63,98,2144220620
3218,18,Jits_Linear_8,0,1,48,78,2144957108
3218,18,Jits_Linear_8,1,5,56,103,2144981492
3218,18,Jits_Linear_8,2,5,80,127,2145021232
3218,18,Jits_Linear_8,3,5,63,98,2145030456
3218,18,Jits_Linear_8,0,5,56,103,2145741100
3218,18,Jits_Linear_8,1,5,80,127,2145760664
3218,18,Jits_Linear_8,2,1,48,78,2145789212
3218,18,Jits_Linear_8,3,5,63,98,2145840476
3218,18,Jits_Linear_8,0,5,80,127,2146530684
3218,18,Jits_Linear_8,1,1,48,103,2146558540
3218,18,Jits_Linear_8,2,1,48,52,2146591420
3218,18,Jits_Linear_8,3,5,56,103,2146631152
3218,18,Jits_Linear_8,4,5,63,98,2146641276
3218,18,Jits_Linear_8,0,5,63,98,2147300620
3218,18,Jits_Linear_8,1,5,80,127,2147361260
3218,18,Jits_Linear_8,2,1,48,106,2147366176
3218,18,Jits_Linear_8,3,5,56,103,2147371304
3218,18,Jits_Linear_8,0,1,48,93,2148067668
3218,18,Jits_Linear_8,1,5,56,103,2148100472
3218,18,Jits_Linear_8,2,5,63,98,2148171260
3218,18,Jits_Linear_8,3,5,80,127,2148174548
3218,18,Jits_Linear_8,0,1,48,104,2148850068
3218,18,Jits_Linear_8,1,5,63,98,2148931156
3218,18,Jits_Linear_8,2,5,56,103,2148981268
3218,18,Jits_Linear_8,3,5,80,127,2148984336
3218,18,Jits_Linear_8,0,5,56,103,2149680432
3218,18,Jits_Linear_8,1,5,80,127,2149683420
3218,18,Jits_Linear_8,2,1,48,88,2149685940
3218,18,Jits_Linear_8,3,5,63,98,2149770556
3218,18,Jits_Linear_8,0,1,48,97,2150502176
3218,18,Jits_Linear_8,1,5,63,98,2150511192
3218,18,Jits_Linear_8,2,5,56,103,2150601092
3218,18,Jits_Linear_8,3,5,80,127,2150630840
3218,18,Jits_Linear_8,0,5,56,103,2151291328
3218,18,Jits_Linear_8,1,1,48,107,2151331916
3218,18,Jits_Linear_8,2,5,63,98,2151390528
3218,18,Jits_Linear_8,3,5,80,127,2151421420
3218,18,Jits_Linear_8,0,5,63,98,2152101228
3218,18,Jits_Linear_8,1,5,56,103,2152110376
3218,18,Jits_Linear_8,2,1,48,112,2152173656
3218,18,Jits_Linear_8,3,5,80,127,2152200528
3218,18,Jits_Linear_8,0,5,63,98,2152900920
3218,18,Jits_Linear_8,1,1,48,106,2152917372
3218,18,Jits_Linear_8,2,5,56,103,2152980812
3218,18,Jits_Linear_8,3,5,80,127,2152983952
3218,18,Jits_Linear_8,0,5,80,127,2153641268
3218,18,Jits_Linear_8,1,5,63,98,2153661052
3218,18,Jits_Linear_8,2,5,56,103,2153721168
3218,18,Jits_Linear_8,3,1,48,127,2153724808
3218,18,Jits_Linear_8,4,1,48,59,2153750720
3218,18,Jits_Linear_8,0,5,56,103,2154460572
3218,18,Jits_Linear_8,1,5,63,98,2154480900
3218,18,Jits_Linear_8,2,5,80,127,2154484196
3218,18,Jits_Linear_8,3,1,48,120,2154494588
3218,18,Jits_Linear_8,0,5,63,98,2155181376
3218,18,Jits_Linear_8,1,5,80,127,2155261276
3218,18,Jits_Linear_8,2,1,48,104,2155264168
3218,18,Jits_Linear_8,3,5,56,103,2155270788
3218,18,Jits_Linear_8,0,5,63,98,2155981216
3218,18,Jits_Linear_8,1,1,48,86,2155990188
3218,18,Jits_Linear_8,2,5,56,103,2156000772
3218,18,Jits_Linear_8,3,5,80,127,2156050700
3218,18,Jits_Linear_8,0,5,80,127,2156760516
3218,18,Jits_Linear_8,1,1,48,81,2156775092
3218,18,Jits_Linear_8,2,1,38,19,2156785296
3218,18,Jits_Linear_8,3,5,63,98,2156801288
3218,18,Jits_Linear_8,4,5,56,103,2156820776
3218,18,Jits_Linear_8,0,1,48,82,2157538168
3218,18,Jits_Linear_8,1,1,38,19,2157548660
3218,18,Jits_Linear_8,2,5,56,103,2157570356
3218,18,Jits_Linear_8,3,5,63,98,2157580700
3218,18,Jits_Linear_8,4,5,80,127,2157601008
3218,18,Jits_Linear_8,0,5,56,103,2158270712
3218,18,Jits_Linear_8,1,1,48,87,2158313540
3218,18,Jits_Linear_8,2,1,38,20,2158323748
3218,18,Jits_Linear_8,3,5,63,98,2158360860
3218,18,Jits_Linear_8,4,5,80,127,2158421504
3218,18,Jits_Linear_8,0,1,48,80,2159057732
3218,18,Jits_Linear_8,1,1,38,19,2159067680
3218,18,Jits_Linear_8,2,5,80,127,2159070788
3218,18,Jits_Linear_8,3,5,56,103,2159080836
3218,18,Jits_Linear_8,4,5,63,98,2159150540
3218,18,Jits_Linear_8,0,1,48,85,2159824548
3218,18,Jits_Linear_8,1,5,63,98,2159871432
3218,18,Jits_Linear_8,2,5,80,127,2159960580
3218,18,Jits_Linear_8,3,5,56,103,2159970776
3218,18,Jits_Linear_8,0,5,63,98,2160570852
3218,18,Jits_Linear_8,1,5,80,127,2160620908
3218,18,Jits_Linear_8,2,1,48,83,2160634612
3218,18,Jits_Linear_8,3,1,38,19,2160644928
3218,18,Jits_Linear_8,4,5,56,103,2160681448
3218,18,Jits_Linear_8,0,5,56,103,2161361192
3218,18,Jits_Linear_8,1,1,48,95,2161382068
3218,18,Jits_Linear_8,2,1,38,20,2161392496
3218,18,Jits_Linear_8,3,5,80,127,2161410508
3218,18,Jits_Linear_8,4,1,48,50,2161412432
3218,18,Jits_Linear_8,5,5,63,98,2161430872
3218,18,Jits_Linear_8,0,5,56,103,2162091504
3218,18,Jits_Linear_8,1,1,48,82,2162140856
3218,18,Jits_Linear_8,2,5,80,127,2162150700
3218,18,Jits_Linear_8,3,1,48,40,2162186932
3218,18,Jits_Linear_8,4,5,63,98,2162221428
3218,18,Jits_Linear_8,0,5,56,103,2162851168
3218,18,Jits_Linear_8,1,5,80,127,2162880920
3218,18,Jits_Linear_8,2,1,48,89,2162897216
3218,18,Jits_Linear_8,3,1,38,21,2162906788
3218,18,Jits_Linear_8,4,5,63,98,2162910644
3218,18,Jits_Linear_8,0,1,48,90,2163616744
3218,18,Jits_Linear_8,1,1,38,20,2163627068
3218,18,Jits_Linear_8,2,5,56,103,2163651000
3218,18,Jits_Linear_8,3,5,80,127,2163671388
3218,18,Jits_Linear_8,4,5,63,98,2163730788
3218,18,Jits_Linear_8,0,1,48,85,2164436156
3218,18,Jits_Linear_8,1,5,80,127,2164490608
3218,18,Jits_Linear_8,2,5,56,103,2164500804
3218,18,Jits_Linear_8,3,5,63,98,2164511076
3218,18,Jits_Linear_8,0,5,56,103,2165201416
3218,18,Jits_Linear_8,1,1,48,96,2165233036
3218,18,Jits_Linear_8,2,5,80,127,2165241376
3218,18,Jits_Linear_8,3,1,38,21,2165243820
3218,18,Jits_Linear_8,4,1,48,65,2165255336
3218,18,Jits_Linear_8,5,5,63,98,2165270800
3218,18,Jits_Linear_8,0,5,56,103,2165921256
3218,18,Jits_Linear_8,1,5,63,98,2165950708
3218,18,Jits_Linear_8,2,1,48,81,2165982820
3218,18,Jits_Linear_8,3,5,80,127,2165990712
3218,18,Jits_Linear_8,4,1,38,19,2165993380
3218,18,Jits_Linear_8,0,5,80,127,2166620664
3218,18,Jits_Linear_8,1,5,63,98,2166670648
3218,18,Jits_Linear_8,2,5,56,103,2166691404
3218,18,Jits_Linear_8,3,1,48,105,2166707176
3218,18,Jits_Linear_8,4,1,38,22,2166717268
3218,18,Jits_Linear_8,0,5,56,103,2167401356
3218,18,Jits_Linear_8,1,1,48,105,2167440744
3218,18,Jits_Linear_8,2,1,38,22,2167450916
3218,18,Jits_Linear_8,3,5,80,127,2167470420
3218,18,Jits_Linear_8,4,5,63,98,2167530808
3218,18,Jits_Linear_8,0,5,80,127,2168141168
3218,18,Jits_Linear_8,1,1,48,102,2168218148
3218,18,Jits_Linear_8,2,5,63,98,2168231224
3218,18,Jits_Linear_8,3,1,48,67,2168237768
3218,18,Jits_Linear_8,4,5,56,103,2168250836
3218,18,Jits_Linear_8,0,5,63,98,2168901216
3218,18,Jits_Linear_8,1,5,56,103,2168920332
3218,18,Jits_Linear_8,2,1,48,102,2168940984
3218,18,Jits_Linear_8,3,5,80,127,2168961384
3218,18,Jits_Linear_8,4,1,48,60,2168964128
3218,18,Jits_Linear_8,0,5,80,127,2169601380
3218,18,Jits_Linear_8,1,5,63,98,2169620868
3218,18,Jits_Linear_8,2,1,48,92,2169679584
3218,18,Jits_Linear_8,3,5,56,103,2169700732
3218,18,Jits_Linear_8,0,5,63,98,2170330400
3218,18,Jits_Linear_8,1,1,48,104,2170409592
3218,18,Jits_Linear_8,2,1,48,50,2170441900
3218,18,Jits_Linear_8,3,5,56,103,2170443244
3218,18,Jits_Linear_8,4,5,80,127,2170445844
3218,18,Jits_Linear_8,0,5,63,98,2171091240
3218,18,Jits_Linear_8,1,5,56,103,2171100464
3218,18,Jits_Linear_8,2,1,48,99,2171102572
3218,18,Jits_Linear_8,3,5,80,127,2171105164
3218,18,Jits_Linear_8,4,1,38,21,2171113088
3218,18,Jits_Linear_8,5,1,48,48,2171135116
3218,18,Jits_Linear_8,0,5,56,103,2171811264
3218,18,Jits_Linear_8,1,1,48,79,2171836324
3218,18,Jits_Linear_8,2,5,80,127,2171931088
3218,18,Jits_Linear_8,3,5,63,98,2171971008
3218,18,Jits_Linear_8,0,5,56,103,2172560764
3218,18,Jits_Linear_8,1,1,48,85,2172626512
3218,18,Jits_Linear_8,2,5,80,127,2172640704
3218,18,Jits_Linear_8,3,5,63,98,2172661116
3218,18,Jits_Linear_8,0,5,56,103,2173291156
3218,18,Jits_Linear_8,1,1,48,85,2173353992
3218,18,Jits_Linear_8,2,1,38,19,2173364008
3218,18,Jits_Linear_8,3,5,63,98,2173400292
3218,18,Jits_Linear_8,4,5,80,127,2173403588
3218,18,Jits_Linear_8,0,5,56,103,2174050788
3218,18,Jits_Linear_8,1,5,80,127,2174081364
3218,18,Jits_Linear_8,2,1,48,87,2174091384
3218,18,Jits_Linear_8,3,5,63,98,2174100844
3218,18,Jits_Linear_8,4,1,38,19,2174101808
3218,18,Jits_Linear_8,0,5,63,98,2174761372
3218,18,Jits_Linear_8,1,5,56,103,2174770520
3218,18,Jits_Linear_8,2,5,80,127,2174780864
3218,18,Jits_Linear_8,3,1,48,78,2174808636
3218,18,Jits_Linear_8,4,1,38,18,2174818508
3218,18,Jits_Linear_8,0,5,80,127,2175471240
3218,18,Jits_Linear_8,1,1,48,88,2175504176
3218,18,Jits_Linear_8,2,1,38,20,2175514268
3218,18,Jits_Linear_8,3,5,56,103,2175521044
3218,18,Jits_Linear_8,4,5,63,98,2175561056
3218,18,Jits_Linear_8,0,5,80,127,2176211372
3218,18,Jits_Linear_8,1,5,63,98,2176230932
3218,18,Jits_Linear_8,2,1,48,85,2176233680
3218,18,Jits_Linear_8,3,5,56,103,2176281004
3218,18,Jits_Linear_8,0,5,80,127,2176941460
3218,18,Jits_Linear_8,1,5,56,103,2176971064
3218,18,Jits_Linear_8,2,1,48,79,2176972548
3218,18,Jits_Linear_8,3,1,38,18,2176983244
3218,18,Jits_Linear_8,4,5,63,98,2177040832
3218,18,Jits_Linear_8,0,1,48,88,2177707812
3218,18,Jits_Linear_8,1,5,56,103,2177710548
3218,18,Jits_Linear_8,2,1,38,20,2177718228
3218,18,Jits_Linear_8,3,5,80,127,2177721112
3218,18,Jits_Linear_8,4,5,63,98,2177761048
3218,18,Jits_Linear_8,0,5,56,103,2178341104
3218,18,Jits_Linear_8,1,5,63,98,2178360964
3218,18,Jits_Linear_8,2,5,80,127,2178431320
3218,18,Jits_Linear_8,3,1,48,74,2178472124
3218,18,Jits_Linear_8,0,5,63,98,2179080632
3218,18,Jits_Linear_8,1,5,80,127,2179141100
3218,18,Jits_Linear_8,2,1,48,78,2179147960
3218,18,Jits_Linear_8,3,5,56,103,2179160508
3218,18,Jits_Linear_8,0,5,80,127,2179780944
3218,18,Jits_Linear_8,1,5,56,103,2179810620
3218,18,Jits_Linear_8,2,1,48,73,2179827244
3218,18,Jits_Linear_8,3,5,63,98,2179841508
3218,18,Jits_Linear_8,0,5,56,103,2180490580
3218,18,Jits_Linear_8,1,5,63,98,2180550900
3218,18,Jits_Linear_8,2,1,48,69,2180584584
3218,18,Jits_Linear_8,3,5,80,127,2180610408
3218,18,Jits_Linear_8,0,5,80,127,2181220900
3218,18,Jits_Linear_8,1,5,56,103,2181241136
3218,18,Jits_Linear_8,2,1,48,83,2181261264
3218,18,Jits_Linear_8,3,1,38,19,2181271356
3218,18,Jits_Linear_8,4,1,48,46,2181294556
3218,18,Jits_Linear_8,5,5,63,98,2181310844
3218,18,Jits_Linear_8,0,5,80,127,2181931644
3218,18,Jits_Linear_8,1,5,63,98,2181950760
3218,18,Jits_Linear_8,2,5,56,103,2181980660
3218,18,Jits_Linear_8,3,1,48,76,2181996432
3218,18,Jits_Linear_8,4,1,38,19,2182006376
3218,18,Jits_Linear_8,0,5,80,127,2182620532
3218,18,Jits_Linear_8,1,5,63,98,2182640868
3218,18,Jits_Linear_8,2,1,48,77,2182672980
3218,18,Jits_Linear_8,3,1,38,19,2182682704
3218,18,Jits_Linear_8,4,1,48,48,2182702560
3218,18,Jits_Linear_8,5,5,56,103,2182703752
3218,18,Jits_Linear_8,0,5,80,127,2183320944
3218,18,Jits_Linear_8,1,1,48,79,2183387216
3218,18,Jits_Linear_8,2,5,56,103,2183421212
3218,18,Jits_Linear_8,3,5,63,98,2183450964
3218,18,Jits_Linear_8,0,5,63,98,2184011108
3218,18,Jits_Linear_8,1,5,80,127,2184061236
3218,18,Jits_Linear_8,2,5,56,103,2184080872
3218,18,Jits_Linear_8,3,1,48,77,2184114104
3218,18,Jits_Linear_8,4,1,38,19,2184124272
3218,18,Jits_Linear_8,0,5,80,127,2184750568
3218,18,Jits_Linear_8,1,5,56,103,2184781144
3218,18,Jits_Linear_8,2,5,63,98,2184784504
3218,18,Jits_Linear_8,3,1,48,80,2184809436
3218,18,Jits_Linear_8,0,5,63,98,2185480580
3218,18,Jits_Linear_8,1,1,48,80,2185499512
3218,18,Jits_Linear_8,2,5,56,103,2185520588
3218,18,Jits_Linear_8,3,5,80,127,2185540900
3218,18,Jits_Linear_8,0,5,80,127,2186120436
3218,18,Jits_Linear_8,1,5,63,98,2186200604
3218,18,Jits_Linear_8,2,1,48,74,2186208828
3218,18,Jits_Linear_8,3,1,38,18,2186218996
3218,18,Jits_Linear_8,4,5,56,103,2186241516
3218,18,Jits_Linear_8,0,5,63,98,2186831300
3218,18,Jits_Linear_8,1,1,48,79,2186900660
3218,18,Jits_Linear_8,2,5,80,127,2186910944
3218,18,Jits_Linear_8,3,5,56,103,2186930656
3218,18,Jits_Linear_8,0,5,56,103,2187561464
3218,18,Jits_Linear_8,1,5,63,98,2187570540
3218,18,Jits_Linear_8,2,5,80,127,2187610628
3218,18,Jits_Linear_8,3,1,48,83,2187618384
3218,18,Jits_Linear_8,0,5,56,103,2188170688
3218,18,Jits_Linear_8,1,5,80,127,2188173604
3218,18,Jits_Linear_8,2,5,63,98,2188310964
3218,18,Jits_Linear_8,3,1,48,84,2188312080
3218,18,Jits_Linear_8,4,1,48,41,2188349804
3218,18,Jits_Linear_8,0,5,56,103,2188850476
3218,18,Jits_Linear_8,1,5,63,98,2188940536
3218,18,Jits_Linear_8,2,5,80,127,2189011412
3218,18,Jits_Linear_8,3,1,48,82,2189055160
3218,18,Jits_Linear_8,0,5,63,98,2189611364
3218,18,Jits_Linear_8,1,5,80,127,2189614800
3218,18,Jits_Linear_8,2,5,56,103,2189670632
3218,18,Jits_Linear_8,3,1,48,86,2189743496
3218,18,Jits_Linear_8,0,5,80,127,2190331252
3218,18,Jits_Linear_8,1,5,56,103,2190350740
3218,18,Jits_Linear_8,2,5,63,98,2190361236
3218,18,Jits_Linear_8,3,1,48,90,2190424284
3218,18,Jits_Linear_8,4,1,38,21,2190434456
3218,18,Jits_Linear_8,5,1,48,47,2190456900
3218,18,Jits_Linear_8,0,5,56,103,2190921212
3218,18,Jits_Linear_8,1,5,63,98,2190931260
3218,18,Jits_Linear_8,2,5,80,127,2191000940
3218,18,Jits_Linear_8,3,1,48,83,2191126940
3218,18,Jits_Linear_8,4,1,38,21,2191137032
3218,18,Jits_Linear_8,5,1,48,46,2191158748
3218,18,Jits_Linear_8,0,5,80,127,2191601096
3218,18,Jits_Linear_8,1,5,56,103,2191651152
3218,18,Jits_Linear_8,2,5,63,98,2191701428
3218,18,Jits_Linear_8,3,1,48,83,2191807848
3218,18,Jits_Linear_8,4,1,38,19,2191817712
3218,18,Jits_Linear_8,0,5,56,103,2192361232
3218,18,Jits_Linear_8,1,5,63,98,2192371232
3218,18,Jits_Linear_8,2,5,80,127,2192411244
3218,18,Jits_Linear_8,3,1,48,96,2192502316
3218,18,Jits_Linear_8,4,1,38,21,2192512780
3218,18,Jits_Linear_8,0,5,56,103,2192981224
3218,18,Jits_Linear_8,1,5,63,98,2193021388
3218,18,Jits_Linear_8,2,5,80,127,2193070544
3218,18,Jits_Linear_8,3,1,48,96,2193140588
3218,18,Jits_Linear_8,4,1,38,22,2193150680
3218,18,Jits_Linear_8,0,5,80,127,2193611220
3218,18,Jits_Linear_8,1,5,56,103,2193661304
3218,18,Jits_Linear_8,2,5,63,98,2193680640
3218,18,Jits_Linear_8,3,1,48,105,2193750960
3218,18,Jits_Linear_8,4,1,38,24,2193761052
3218,18,Jits_Linear_8,5,1,48,65,2193770468
3218,18,Jits_Linear_8,0,5,80,127,2194291264
3218,18,Jits_Linear_8,1,1,48,93,2194339948
3218,18,Jits_Linear_8,2,1,38,23,2194350068
3218,18,Jits_Linear_8,3,5,63,98,2194352384
3218,18,Jits_Linear_8,4,5,56,103,2194431380
3218,18,Jits_Linear_8,0,5,80,127,2194941368
3218,18,Jits_Linear_8,1,5,56,103,2194981084
3218,18,Jits_Linear_8,2,5,63,98,2195000796
3218,18,Jits_Linear_8,3,1,48,91,2195056496
3218,18,Jits_Linear_8,4,1,38,21,2195066664
3218,18,Jits_Linear_8,0,5,56,103,2195661048
3218,18,Jits_Linear_8,1,5,80,127,2195671544
3218,18,Jits_Linear_8,2,5,63,98,2195711432
3218,18,Jits_Linear_8,3,1,48,103,2195717016
3218,18,Jits_Linear_8,4,1,38,22,2195727036
3218,18,Jits_Linear_8,0,1,48,110,2196354428
3218,18,Jits_Linear_8,1,1,38,24,2196364524
3218,18,Jits_Linear_8,2,5,56,103,2196391228
3218,18,Jits_Linear_8,3,5,63,98,2196431164
3218,18,Jits_Linear_8,4,5,80,127,2196434528
3218,18,Jits_Linear_8,0,5,63,98,2196941168
3218,18,Jits_Linear_8,1,5,80,127,2196981056
3218,18,Jits_Linear_8,2,1,48,94,2197044412
3218,18,Jits_Linear_8,3,5,56,103,2197051028
3218,18,Jits_Linear_8,4,1,38,21,2197054896
3218,18,Jits_Linear_8,0,5,63,98,2197591264
3218,18,Jits_Linear_8,1,5,56,103,2197671212
3218,18,Jits_Linear_8,2,1,48,105,2197681824
3218,18,Jits_Linear_8,3,1,38,23,2197691920
3218,18,Jits_Linear_8,4,5,80,127,2197730604
3218,18,Jits_Linear_8,0,5,80,127,2198260992
3218,18,Jits_Linear_8,1,5,63,98,2198311268
3218,18,Jits_Linear_8,2,1,48,108,2198333120
3218,18,Jits_Linear_8,3,5,56,103,2198341088
3218,18,Jits_Linear_8,4,1,38,23,2198343100
3218,18,Jits_Linear_8,5,1,48,45,2198371388
3218,18,Jits_Linear_8,0,5,56,103,2198911280
3218,18,Jits_Linear_8,1,5,63,98,2198960436
3218,18,Jits_Linear_8,2,5,80,127,2198970932
3218,18,Jits_Linear_8,3,1,48,121,2198995024
3218,18,Jits_Linear_8,4,1,38,24,2199005112
3218,18,Jits_Linear_8,0,5,56,103,2199581020
3218,18,Jits_Linear_8,1,1,48,111,2199622348
3218,18,Jits_Linear_8,2,1,38,23,2199632520
3218,18,Jits_Linear_8,3,5,63,98,2199690684
3218,18,Jits_Linear_8,4,5,80,127,2199711072
3218,18,Jits_Linear_8,0,5,63,98,2200231188
3218,18,Jits_Linear_8,1,5,80,127,2200280492
3218,18,Jits_Linear_8,2,1,48,114,2200292680
3218,18,Jits_Linear_8,3,1,38,23,2200302432
3218,18,Jits_Linear_8,4,5,56,103,2200370712
3218,18,Jits_Linear_8,0,5,63,98,2200871336
3218,18,Jits_Linear_8,1,5,80,127,2200900864
3218,18,Jits_Linear_8,2,1,48,117,2200972080
3218,18,Jits_Linear_8,3,5,56,103,2200991060
3218,18,Jits_Linear_8,0,5,63,98,2201530896
3218,18,Jits_Linear_8,1,5,56,103,2201540944
3218,18,Jits_Linear_8,2,5,80,127,2201641288
3218,18,Jits_Linear_8,3,1,48,127,2201647548
3218,18,Jits_Linear_8,0,5,63,98,2202281292
3218,18,Jits_Linear_8,1,1,48,127,2202289740
3218,18,Jits_Linear_8,2,5,80,127,2202311036
3218,18,Jits_Linear_8,3,5,56,103,2202340864
3218,18,Jits_Linear_8,0,5,80,127,2202940744
3218,18,Jits_Linear_8,1,5,63,98,2202951236
3218,18,Jits_Linear_8,2,1,48,119,2202967612
3218,18,Jits_Linear_8,3,5,56,103,2202980608
3218,18,Jits_Linear_8,0,5,80,127,2203480380
3218,18,Jits_Linear_8,1,5,63,98,2203500916
3218,18,Jits_Linear_8,2,5,56,103,2203551264
3218,18,Jits_Linear_8,3,1,48,89,2203604648
3218,18,Jits_Linear_8,4,1,38,21,2203614144
3218,18,Jits_Linear_8,0,5,63,98,2204151084
3218,18,Jits_Linear_8,1,5,80,127,2204210652
3218,18,Jits_Linear_8,2,5,56,103,2204230964
3218,18,Jits_Linear_8,3,1,48,107,2204243744
3218,18,Jits_Linear_8,4,1,38,22,2204253540
3218,18,Jits_Linear_8,0,5,63,98,2204751264
3218,18,Jits_Linear_8,1,5,56,103,2204801540
3218,18,Jits_Linear_8,2,5,80,127,2204810540
3218,18,Jits_Linear_8,3,1,48,101,2204903928
3218,18,Jits_Linear_8,4,1,38,22,2204913688
3218,18,Jits_Linear_8,5,1,48,50,2204936132
3218,18,Jits_Linear_8,0,5,56,103,2205420968
3218,18,Jits_Linear_8,1,5,80,127,2205431088
3218,18,Jits_Linear_8,2,5,63,98,2205530664
3218,18,Jits_Linear_8,3,1,48,105,2205585840
3218,18,Jits_Linear_8,4,1,38,23,2205595712
3218,18,Jits_Linear_8,5,1,48,52,2205614272
3218,18,Jits_Linear_8,0,5,80,127,2206020972
3218,18,Jits_Linear_8,1,5,63,98,2206031244
3218,18,Jits_Linear_8,2,5,56,103,2206180860
3218,18,Jits_Linear_8,3,1,48,124,2206242440
3218,18,Jits_Linear_8,4,1,38,24,2206252608
3218,18,Jits_Linear_8,0,5,63,98,2206661020
3218,18,Jits_Linear_8,1,5,80,127,2206700836
3218,18,Jits_Linear_8,2,5,56,103,2206780856
3218,18,Jits_Linear_8,3,1,48,109,2206895668
3218,18,Jits_Linear_8,4,1,38,23,2206905688
3218,18,Jits_Linear_8,0,5,56,103,2207280552
3218,18,Jits_Linear_8,1,5,80,127,2207380728
3218,18,Jits_Linear_8,2,5,63,98,2207401484
3218,18,Jits_Linear_8,3,1,48,119,2207547712
3218,18,Jits_Linear_8,0,5,80,127,2207970556
3218,18,Jits_Linear_8,1,5,56,103,2207981076
3218,18,Jits_Linear_8,2,5,63,98,2208070908
3218,18,Jits_Linear_8,3,1,48,106,2208171344
3218,18,Jits_Linear_8,4,1,38,23,2208181364
3218,18,Jits_Linear_8,5,1,48,59,2208196768
3218,18,Jits_Linear_8,0,5,56,103,2208600412
3218,18,Jits_Linear_8,1,5,63,98,2208620944
3218,18,Jits_Linear_8,2,5,80,127,2208700740
3218,18,Jits_Linear_8,3,1,48,116,2208835500
3218,18,Jits_Linear_8,4,1,38,24,2208845372
3218,18,Jits_Linear_8,0,5,63,98,2209191520
3218,18,Jits_Linear_8,1,5,56,103,2209281460
3218,18,Jits_Linear_8,2,5,80,127,2209284596
3218,18,Jits_Linear_8,3,1,48,94,2209489472
3218,18,Jits_Linear_8,4,1,38,21,2209499568
3218,18,Jits_Linear_8,0,5,56,103,2209840404
3218,18,Jits_Linear_8,1,5,80,127,2209900872
3218,18,Jits_Linear_8,2,5,63,98,2209911144
3218,18,Jits_Linear_8,3,1,48,104,2210147340
3218,18,Jits_Linear_8,4,1,48,64,2210170100
3218,18,Jits_Linear_8,0,5,80,127,2210511644
3218,18,Jits_Linear_8,1,5,56,103,2210520340
3218,18,Jits_Linear_8,2,5,63,98,2210523488
3218,18,Jits_Linear_8,0,1,48,107,2210821692
3218,18,Jits_Linear_8,1,1,48,59,2210849248
3218,18,Jits_Linear_8,2,5,56,103,2211090836
3218,18,Jits_Linear_8,3,5,80,127,2211101328
3218,18,Jits_Linear_8,4,5,63,98,2211120444
3218,18,Jits_Linear_8,5,1,48,90,2211151508
3218,18,Jits_Linear_8,0,1,48,100,2211497388
3218,18,Jits_Linear_8,1,5,63,98,2211680624
3218,18,Jits_Linear_8,2,5,80,127,2211741164
3218,18,Jits_Linear_8,3,5,56,103,2211791368
3218,18,Jits_Linear_8,0,1,48,114,2212113848
3218,18,Jits_Linear_8,1,5,63,98,2212380920
3218,18,Jits_Linear_8,2,5,56,103,2212391488
3218,18,Jits_Linear_8,3,5,80,127,2212440568
3218,18,Jits_Linear_8,0,1,48,127,2212811728
3218,18,Jits_Linear_8,1,1,48,83,2212829164
3218,18,Jits_Linear_8,2,5,63,98,2212891028
3218,18,Jits_Linear_8,3,5,80,127,2212910440
3218,18,Jits_Linear_8,4,5,56,103,2212920708
3218,18,Jits_Linear_8,0,1,48,109,2213440356
3218,18,Jits_Linear_8,1,5,63,98,2213501212
3218,18,Jits_Linear_8,2,5,80,127,2213504508
3218,18,Jits_Linear_8,3,5,56,103,2213541440
3218,18,Jits_Linear_8,0,1,48,127,2214108616
3218,18,Jits_Linear_8,1,1,48,92,2214123196
3218,18,Jits_Linear_8,2,5,63,98,2214181388
3218,18,Jits_Linear_8,3,5,80,127,2214211140
3218,18,Jits_Linear_8,4,5,56,103,2214221320
3218,18,Jits_Linear_8,0,5,56,103,2214741332
3218,18,Jits_Linear_8,1,5,80,127,2214771232
3218,18,Jits_Linear_8,2,1,48,124,2214793756
3218,18,Jits_Linear_8,3,5,63,98,2214800752
3218,18,Jits_Linear_8,4,1,48,75,2214812848
3218,18,Jits_Linear_8,0,5,63,98,2215440700
3218,18,Jits_Linear_8,1,1,48,127,2215451988
3218,18,Jits_Linear_8,2,5,56,103,2215480632
3218,18,Jits_Linear_8,3,5,80,127,2215483772
3218,18,Jits_Linear_8,4,1,48,56,2215489432
3218,18,Jits_Linear_8,0,5,80,127,2215940432
3218,18,Jits_Linear_8,1,5,56,103,2216021424
3218,18,Jits_Linear_8,2,5,63,98,2216070728
3218,18,Jits_Linear_8,3,1,48,115,2216114000
3218,18,Jits_Linear_8,4,1,48,64,2216139752
3218,18,Jits_Linear_8,0,5,80,127,2216521092
3218,18,Jits_Linear_8,1,5,56,103,2216540580
3218,18,Jits_Linear_8,2,5,63,98,2216630712
3218,18,Jits_Linear_8,3,1,48,127,2216705840
3218,18,Jits_Linear_8,0,5,80,127,2217161188
3218,18,Jits_Linear_8,1,5,63,98,2217201156
3218,18,Jits_Linear_8,2,5,56,103,2217241020
3218,18,Jits_Linear_8,3,1,48,127,2217292912
3218,18,Jits_Linear_8,4,1,48,63,2217319716
3218,18,Jits_Linear_8,0,5,63,98,2217730420
3218,18,Jits_Linear_8,1,5,80,127,2217790960
3218,18,Jits_Linear_8,2,5,56,103,2217820560
3218,18,Jits_Linear_8,3,1,48,127,2217861736
3218,18,Jits_Linear_8,4,1,48,78,2217881192
3218,18,Jits_Linear_8,0,5,56,103,2218330544
3218,18,Jits_Linear_8,1,5,80,127,2218361268
3218,18,Jits_Linear_8,2,1,48,118,2218413684
3218,18,Jits_Linear_8,3,5,63,98,2218451320
3218,18,Jits_Linear_8,0,5,56,103,2218930416
3218,18,Jits_Linear_8,1,1,48,91,2219009460
3218,18,Jits_Linear_8,2,1,38,20,2219019408
3218,18,Jits_Linear_8,3,5,80,127,2219041004
3218,18,Jits_Linear_8,4,5,63,98,2219070976
3218,18,Jits_Linear_8,0,5,56,103,2219570488
3218,18,Jits_Linear_8,1,1,48,124,2219598840
3218,18,Jits_Linear_8,2,1,48,65,2219622356
3218,18,Jits_Linear_8,3,5,63,98,2219631224
3218,18,Jits_Linear_8,4,5,80,127,2219660600
3218,18,Jits_Linear_8,0,5,56,103,2220130776
3218,18,Jits_Linear_8,1,1,48,95,2220200004
3218,18,Jits_Linear_8,2,5,63,98,2220201872
3218,18,Jits_Linear_8,3,1,38,21,2220210324
3218,18,Jits_Linear_8,4,5,80,127,2220220984
3218,18,Jits_Linear_8,0,5,80,127,2220690964
3218,18,Jits_Linear_8,1,5,63,98,2220711204
3218,18,Jits_Linear_8,2,5,56,103,2220760360
3218,18,Jits_Linear_8,3,1,48,103,2220776956
3218,18,Jits_Linear_8,4,1,38,22,2220787160
3218,18,Jits_Linear_8,0,5,63,98,2221301084
3218,18,Jits_Linear_8,1,5,80,127,2221311208
3218,18,Jits_Linear_8,2,1,48,118,2221325484
3218,18,Jits_Linear_8,3,1,38,22,2221335352
3218,18,Jits_Linear_8,4,5,56,103,2221360632
3218,18,Jits_Linear_8,0,1,48,103,2221879144
3218,18,Jits_Linear_8,1,5,63,98,2221880800
3218,18,Jits_Linear_8,2,1,48,55,2221906300
3218,18,Jits_Linear_8,3,5,80,127,2221951284
3218,18,Jits_Linear_8,4,5,56,103,2221970848
3218,18,Jits_Linear_8,0,1,48,127,2222470436
3218,18,Jits_Linear_8,1,1,38,24,2222480904
3218,18,Jits_Linear_8,2,5,63,98,2222490964
3218,18,Jits_Linear_8,3,5,80,127,2222494328
3218,18,Jits_Linear_8,4,5,56,103,2222560720
3218,18,Jits_Linear_8,0,5,80,127,2223021508
3218,18,Jits_Linear_8,1,5,56,103,2223041068
3218,18,Jits_Linear_8,2,5,63,98,2223051116
3218,18,Jits_Linear_8,3,1,48,111,2223080012
3218,18,Jits_Linear_8,4,1,38,21,2223090440
3218,18,Jits_Linear_8,0,5,56,103,2223620532
3218,18,Jits_Linear_8,1,1,48,127,2223635784
3218,18,Jits_Linear_8,2,5,63,98,2223710660
3218,18,Jits_Linear_8,3,5,80,127,2223714024
3218,18,Jits_Linear_8,0,5,80,127,2224171396
3218,18,Jits_Linear_8,1,5,56,103,2224180620
3218,18,Jits_Linear_8,2,5,63,98,2224201008
3218,18,Jits_Linear_8,3,1,48,127,2224224652
3218,18,Jits_Linear_8,0,5,63,98,2224740844
3218,18,Jits_Linear_8,1,1,48,101,2224793112
3218,18,Jits_Linear_8,2,5,80,127,2224801080
3218,18,Jits_Linear_8,3,1,38,22,2224803820
3218,18,Jits_Linear_8,4,5,56,103,2224811344
3218,18,Jits_Linear_8,0,1,48,127,2225364668
3218,18,Jits_Linear_8,1,5,63,98,2225380808
3218,18,Jits_Linear_8,2,1,48,62,2225390012
3218,18,Jits_Linear_8,3,5,80,127,2225410636
3218,18,Jits_Linear_8,4,5,56,103,2225451252
3218,18,Jits_Linear_8,0,5,56,103,2225940832
3218,18,Jits_Linear_8,1,5,80,127,2225951028
3218,18,Jits_Linear_8,2,1,48,117,2225967252
3218,18,Jits_Linear_8,3,1,38,22,2225977868
3218,18,Jits_Linear_8,4,1,48,74,2225987436
3218,18,Jits_Linear_8,5,5,63,98,2225991068
3218,18,Jits_Linear_8,0,5,80,127,2226471312
3218,18,Jits_Linear_8,1,1,48,107,2226525228
3218,18,Jits_Linear_8,2,1,38,21,2226535392
3218,18,Jits_Linear_8,3,5,56,103,2226551012
3218,18,Jits_Linear_8,4,5,63,98,2226561356
3218,18,Jits_Linear_8,0,5,80,127,2227080652
3218,18,Jits_Linear_8,1,1,48,103,2227115832
3218,18,Jits_Linear_8,2,1,38,21,2227125856
3218,18,Jits_Linear_8,3,5,56,103,2227160652
3218,18,Jits_Linear_8,4,5,63,98,2227170848
3218,18,Jits_Linear_8,0,5,80,127,2227600764
3218,18,Jits_Linear_8,1,5,56,103,2227650892
3218,18,Jits_Linear_8,2,5,63,98,2227701044
3218,18,Jits_Linear_8,3,1,48,98,2227717640
3218,18,Jits_Linear_8,0,5,56,103,2228221328
3218,18,Jits_Linear_8,1,5,63,98,2228224244
3218,18,Jits_Linear_8,2,5,80,127,2228270556
3218,18,Jits_Linear_8,3,1,48,101,2228273380
3218,18,Jits_Linear_8,0,5,56,103,2228800824
3218,18,Jits_Linear_8,1,1,48,96,2228810540
3218,18,Jits_Linear_8,2,1,38,20,2228820708
3218,18,Jits_Linear_8,3,5,63,98,2228830548
3218,18,Jits_Linear_8,4,5,80,127,2228840672
3218,18,Jits_Linear_8,0,5,63,98,2229270944
3218,18,Jits_Linear_8,1,5,56,103,2229340776
3218,18,Jits_Linear_8,2,1,48,123,2229349144
3218,18,Jits_Linear_8,3,5,80,127,2229390744
3218,18,Jits_Linear_8,0,5,63,98,2229860836
3218,18,Jits_Linear_8,1,5,56,103,2229870956
3218,18,Jits_Linear_8,2,5,80,127,2229873948
3218,18,Jits_Linear_8,3,1,48,103,2229891164
3218,18,Jits_Linear_8,0,5,80,127,2230360512
3218,18,Jits_Linear_8,1,5,56,103,2230420832
3218,18,Jits_Linear_8,2,1,48,101,2230442680
3218,18,Jits_Linear_8,3,1,38,21,2230453148
3218,18,Jits_Linear_8,4,5,63,98,2230510888
3218,18,Jits_Linear_8,0,5,80,127,2230911332
3218,18,Jits_Linear_8,1,1,48,99,2230971024
3218,18,Jits_Linear_8,2,1,38,21,2230981340
3218,18,Jits_Linear_8,3,5,56,103,2231010660
3218,18,Jits_Linear_8,4,5,63,98,2231050552
3218,18,Jits_Linear_8,0,5,56,103,2231511596
3218,18,Jits_Linear_8,1,5,63,98,2231530812
3218,18,Jits_Linear_8,2,1,48,79,2231562024
3218,18,Jits_Linear_8,3,5,80,127,2231570744
3218,18,Jits_Linear_8,0,5,63,98,2232030548
3218,18,Jits_Linear_8,1,5,56,103,2232051032
3218,18,Jits_Linear_8,2,1,48,103,2232062172
3218,18,Jits_Linear_8,3,1,38,23,2232072340
3218,18,Jits_Linear_8,4,5,80,127,2232151400
3218,18,Jits_Linear_8,0,5,63,98,2232560996
3218,18,Jits_Linear_8,1,1,48,117,2232591240
3218,18,Jits_Linear_8,2,5,80,127,2232670532
3218,18,Jits_Linear_8,3,5,56,103,2232701388
3218,18,Jits_Linear_8,0,5,56,103,2233121000
3218,18,Jits_Linear_8,1,1,48,87,2233146136
3218,18,Jits_Linear_8,2,5,63,98,2233150968
3218,18,Jits_Linear_8,3,1,38,20,2233156400
3218,18,Jits_Linear_8,4,5,80,127,2233201460
3218,18,Jits_Linear_8,0,5,63,98,2233631212
3218,18,Jits_Linear_8,1,5,56,103,2233660812
3218,18,Jits_Linear_8,2,1,48,98,2233678232
3218,18,Jits_Linear_8,3,5,80,127,2233710932
3218,18,Jits_Linear_8,0,5,56,103,2234200560
3218,18,Jits_Linear_8,1,1,48,99,2234211552
3218,18,Jits_Linear_8,2,5,63,98,2234220940
3218,18,Jits_Linear_8,3,1,38,22,2234222052
3218,18,Jits_Linear_8,4,5,80,127,2234300728
3218,18,Jits_Linear_8,0,5,63,98,2234711448
3218,18,Jits_Linear_8,1,1,48,82,2234750016
3218,18,Jits_Linear_8,2,5,56,103,2234770936
3218,18,Jits_Linear_8,3,5,80,127,2234800540
3218,18,Jits_Linear_8,0,5,56,103,2235290920
3218,18,Jits_Linear_8,1,1,48,78,2235297476
3218,18,Jits_Linear_8,2,1,38,19,2235307276
3218,18,Jits_Linear_8,3,5,80,127,2235351360
3218,18,Jits_Linear_8,4,5,63,98,2235391324
3218,18,Jits_Linear_8,0,5,63,98,2235800912
3218,18,Jits_Linear_8,1,5,56,103,2235861228
3218,18,Jits_Linear_8,2,1,48,100,2235880760
3218,18,Jits_Linear_8,3,5,80,127,2235931076
3218,18,Jits_Linear_8,0,5,56,103,2236411512
3218,18,Jits_Linear_8,1,5,63,98,2236420436
3218,18,Jits_Linear_8,2,5,80,127,2236423728
3218,18,Jits_Linear_8,3,1,48,99,2236451056
3218,18,Jits_Linear_8,4,1,38,21,2236461152
3218,18,Jits_Linear_8,0,5,63,98,2236881384
3218,18,Jits_Linear_8,1,5,56,103,2236940604
3218,18,Jits_Linear_8,2,5,80,127,2236943668
3218,18,Jits_Linear_8,3,1,48,103,2236991820
3218,18,Jits_Linear_8,4,1,38,23,2237001840
3218,18,Jits_Linear_8,0,5,63,98,2237391424
3218,18,Jits_Linear_8,1,5,80,127,2237420828
3218,18,Jits_Linear_8,2,5,56,103,2237441508
3218,18,Jits_Linear_8,3,1,48,100,2237512728
3218,18,Jits_Linear_8,4,1,38,22,2237522744
3218,18,Jits_Linear_8,0,5,56,103,2237920652
3218,18,Jits_Linear_8,1,5,63,98,2237970732
3218,18,Jits_Linear_8,2,1,48,89,2238023444
3218,18,Jits_Linear_8,3,1,38,21,2238033244
3218,18,Jits_Linear_8,4,5,80,127,2238050652
3218,18,Jits_Linear_8,0,5,80,127,2238421344
3218,18,Jits_Linear_8,1,5,63,98,2238461160
3218,18,Jits_Linear_8,2,5,56,103,2238480724
3218,18,Jits_Linear_8,3,1,48,95,2238568260
3218,18,Jits_Linear_8,4,1,38,22,2238578352
3218,18,Jits_Linear_8,0,5,56,103,2239011288
3218,18,Jits_Linear_8,1,5,80,127,2239021484
3218,18,Jits_Linear_8,2,1,48,87,2239038380
3218,18,Jits_Linear_8,3,5,63,98,2239041112
3218,18,Jits_Linear_8,4,1,38,21,2239048888
3218,18,Jits_Linear_8,0,5,56,103,2239511168
3218,18,Jits_Linear_8,1,5,63,98,2239561296
3218,18,Jits_Linear_8,2,1,48,90,2239566884
3218,18,Jits_Linear_8,3,1,38,20,2239577352
3218,18,Jits_Linear_8,4,5,80,127,2239590724
3218,18,Jits_Linear_8,0,5,56,103,2239981068
3218,18,Jits_Linear_8,1,5,63,98,2239991264
3218,18,Jits_Linear_8,2,5,80,127,2240041320
3218,18,Jits_Linear_8,3,1,48,111,2240102724
3218,18,Jits_Linear_8,0,5,56,103,2240491332
3218,18,Jits_Linear_8,1,5,80,127,2240494244
3218,18,Jits_Linear_8,2,1,48,88,2240609976
3218,18,Jits_Linear_8,3,1,38,22,2240620072
3218,18,Jits_Linear_8,4,5,63,98,2240650736
3218,18,Jits_Linear_8,0,5,63,98,2241021232
3218,18,Jits_Linear_8,1,5,56,103,2241091136
3218,18,Jits_Linear_8,2,5,80,127,2241131148
3218,18,Jits_Linear_8,3,1,48,112,2241140420
3218,18,Jits_Linear_8,4,1,38,24,2241150588
3218,18,Jits_Linear_8,0,5,63,98,2241571144
3218,18,Jits_Linear_8,1,5,56,103,2241661352
3218,18,Jits_Linear_8,2,5,80,127,2241664344
3218,18,Jits_Linear_8,3,1,48,127,2241671892
3218,18,Jits_Linear_8,0,5,56,103,2242060788
3218,18,Jits_Linear_8,1,5,63,98,2242150928
3218,18,Jits_Linear_8,2,5,80,127,2242160976
3218,18,Jits_Linear_8,3,1,48,127,2242235184
3218,18,Jits_Linear_8,0,5,56,103,2242540872
3218,18,Jits_Linear_8,1,5,63,98,2242591000
3218,18,Jits_Linear_8,2,5,80,127,2242620896
3218,18,Jits_Linear_8,3,1,48,124,2242771300
3218,18,Jits_Linear_8,0,5,63,98,2243130836
3218,18,Jits_Linear_8,1,5,80,127,2243141108
3218,18,Jits_Linear_8,2,5,56,103,2243201348
3218,18,Jits_Linear_8,3,1,48,105,2243338672
3218,18,Jits_Linear_8,4,1,38,23,2243348768
3218,18,Jits_Linear_8,0,5,63,98,2243550736
3218,18,Jits_Linear_8,1,5,80,127,2243611152
3218,18,Jits_Linear_8,2,5,56,103,2243651092
3218,18,Jits_Linear_8,3,1,48,66,2243830512
3218,18,Jits_Linear_8,4,1,38,17,2243840308
3218,18,Jits_Linear_8,0,5,56,103,2244150560
3218,18,Jits_Linear_8,1,5,80,127,2244171168
3218,18,Jits_Linear_8,2,5,63,98,2244190432
3218,18,Jits_Linear_8,3,1,48,70,2244327036
3218,18,Jits_Linear_8,4,1,38,18,2244337920
3218,18,Jits_Linear_8,5,1,48,57,2244347112
3218,18,Jits_Linear_8,0,5,63,98,2244570516
3218,18,Jits_Linear_8,1,5,56,103,2244591072
3218,18,Jits_Linear_8,2,5,80,127,2244631084
3218,18,Jits_Linear_8,3,1,48,90,2244767772
3218,18,Jits_Linear_8,4,1,38,21,2244778240
3218,18,Jits_Linear_8,0,5,63,98,2245080392
3218,18,Jits_Linear_8,1,5,80,127,2245111140
3218,18,Jits_Linear_8,2,5,56,103,2245130628
3218,18,Jits_Linear_8,3,1,48,84,2245221696
3218,18,Jits_Linear_8,4,1,38,20,2245232016
3218,18,Jits_Linear_8,0,5,80,127,2245550496
3218,18,Jits_Linear_8,1,5,56,103,2245600996
3218,18,Jits_Linear_8,2,5,63,98,2245661112
3218,18,Jits_Linear_8,3,1,48,81,2245681616
3218,18,Jits_Linear_8,4,1,38,19,2245691636
3218,18,Jits_Linear_8,5,1,48,58,2245705388
3218,18,Jits_Linear_8,0,5,63,98,2246030836
3218,18,Jits_Linear_8,1,5,56,103,2246150816
3218,18,Jits_Linear_8,2,1,48,90,2246160612
3218,18,Jits_Linear_8,3,1,38,21,2246171004
3218,18,Jits_Linear_8,4,5,80,127,2246181216
3218,18,Jits_Linear_8,5,1,48,57,2246185512
3218,18,Jits_Linear_8,0,5,80,127,2246561152
3218,18,Jits_Linear_8,1,5,63,98,2246580788
3218,18,Jits_Linear_8,2,1,48,93,2246645960
3218,18,Jits_Linear_8,3,5,56,103,2246651312
3218,18,Jits_Linear_8,4,1,38,22,2246656448
3218,18,Jits_Linear_8,0,5,63,98,2247070996
3218,18,Jits_Linear_8,1,5,56,103,2247081268
3218,18,Jits_Linear_8,2,1,48,76,2247092028
3218,18,Jits_Linear_8,3,1,38,20,2247102576
3218,18,Jits_Linear_8,4,1,48,60,2247111696
3218,18,Jits_Linear_8,5,5,80,127,2247161112
3218,18,Jits_Linear_8,0,1,48,90,2247565832
3218,18,Jits_Linear_8,1,1,38,20,2247575704
3218,18,Jits_Linear_8,2,5,56,103,2247620916
3218,18,Jits_Linear_8,3,5,80,127,2247650740
3218,18,Jits_Linear_8,4,5,63,98,2247660872
3218,18,Jits_Linear_8,0,9999,9999,9999,2137238632
3218,18,Jits_Linear_8,1,9999,9999,9999,2138058868
3218,18,Jits_Linear_8,2,9999,9999,9999,2138879076
3218,18,Jits_Linear_8,3,9999,9999,9999,2139698284
3218,18,Jits_Linear_8,4,9999,9999,9999,2140518508
3218,18,Jits_Linear_8,5,9999,9999,9999,2141328456
3218,18,Jits_Linear_8,6,9999,9999,9999,2142138420
3218,18,Jits_Linear_8,7,9999,9999,9999,2142948476
3218,18,Jits_Linear_8,8,9999,9999,9999,2143758440
3218,18,Jits_Linear_8,9,9999,9999,9999,2144568440
3218,18,Jits_Linear_8,10,9999,9999,9999,2145368144
3218,18,Jits_Linear_8,11,9999,9999,9999,2146168944
3218,18,Jits_Linear_8,12,9999,9999,9999,2146968696
3218,18,Jits_Linear_8,13,9999,9999,9999,2147768396
3218,18,Jits_Linear_8,14,9999,9999,9999,2148568144
3218,18,Jits_Linear_8,15,9999,9999,9999,2149358676
3218,18,Jits_Linear_8,16,9999,9999,9999,2150148196
3218,18,Jits_Linear_8,17,9999,9999,9999,2150938752
3218,18,Jits_Linear_8,18,9999,9999,9999,2151728244
3218,18,Jits_Linear_8,19,9999,9999,9999,2152518736
3218,18,Jits_Linear_8,20,9999,9999,9999,2153299016
3218,18,Jits_Linear_8,21,9999,9999,9999,2154078304
3218,18,Jits_Linear_8,22,9999,9999,9999,2154858592
3218,18,Jits_Linear_8,23,9999,9999,9999,2155638888
3218,18,Jits_Linear_8,24,9999,9999,9999,2156418124
3218,18,Jits_Linear_8,25,9999,9999,9999,2157188172
3218,18,Jits_Linear_8,26,9999,9999,9999,2157958220
3218,18,Jits_Linear_8,27,9999,9999,9999,2158728268
3218,18,Jits_Linear_8,28,9999,9999,9999,2159498312
3218,18,Jits_Linear_8,29,9999,9999,9999,2160268400
3218,18,Jits_Linear_8,30,9999,9999,9999,2161028176
3218,18,Jits_Linear_8,31,9999,9999,9999,2161789056
3218,18,Jits_Linear_8,32,9999,9999,9999,2162548852
3218,18,Jits_Linear_8,33,9999,9999,9999,2163308632
3218,18,Jits_Linear_8,34,9999,9999,9999,2164068412
3218,18,Jits_Linear_8,35,9999,9999,9999,2164819020
3218,18,Jits_Linear_8,36,9999,9999,9999,2165568604
3218,18,Jits_Linear_8,37,9999,9999,9999,2166318200
3218,18,Jits_Linear_8,38,9999,9999,9999,2167068764
3218,18,Jits_Linear_8,39,9999,9999,9999,2167818312
3218,18,Jits_Linear_8,40,9999,9999,9999,2168558708
3218,18,Jits_Linear_8,41,9999,9999,9999,2169299048
3218,18,Jits_Linear_8,42,9999,9999,9999,2170038344
3218,18,Jits_Linear_8,43,9999,9999,9999,2170778740
3218,18,Jits_Linear_8,44,9999,9999,9999,2171519092
3218,18,Jits_Linear_8,45,9999,9999,9999,2172248184
3218,18,Jits_Linear_8,46,9999,9999,9999,2172978276
3218,18,Jits_Linear_8,47,9999,9999,9999,2173708392
3218,18,Jits_Linear_8,48,9999,9999,9999,2174438508
3218,18,Jits_Linear_8,49,9999,9999,9999,2175168616
3218,18,Jits_Linear_8,50,9999,9999,9999,2175888452
3218,18,Jits_Linear_8,51,9999,9999,9999,2176608352
3218,18,Jits_Linear_8,52,9999,9999,9999,2177328224
3218,18,Jits_Linear_8,53,9999,9999,9999,2178048092
3218,18,Jits_Linear_8,54,9999,9999,9999,2178768996
3218,18,Jits_Linear_8,55,9999,9999,9999,2179478640
3218,18,Jits_Linear_8,56,9999,9999,9999,2180188264
3218,18,Jits_Linear_8,57,9999,9999,9999,2180898876
3218,18,Jits_Linear_8,58,9999,9999,9999,2181608576
3218,18,Jits_Linear_8,59,9999,9999,9999,2182318144
3218,18,Jits_Linear_8,60,9999,9999,9999,2183018568
3218,18,Jits_Linear_8,61,9999,9999,9999,2183718976
3218,18,Jits_Linear_8,62,9999,9999,9999,2184418356
3218,18,Jits_Linear_8,63,9999,9999,9999,2185118820
3218,18,Jits_Linear_8,64,9999,9999,9999,2185818208
3218,18,Jits_Linear_8,65,9999,9999,9999,2186508384
3218,18,Jits_Linear_8,66,9999,9999,9999,2187198520
3218,18,Jits_Linear_8,67,9999,9999,9999,2187888748
3218,18,Jits_Linear_8,68,9999,9999,9999,2188578876
3218,18,Jits_Linear_8,69,9999,9999,9999,2189269084
3218,18,Jits_Linear_8,70,9999,9999,9999,2189949052
3218,18,Jits_Linear_8,71,9999,9999,9999,2190628952
3218,18,Jits_Linear_8,72,9999,9999,9999,2191308884
3218,18,Jits_Linear_8,73,9999,9999,9999,2191988792
3218,18,Jits_Linear_8,74,9999,9999,9999,2192668792
3218,18,Jits_Linear_8,75,9999,9999,9999,2193338432
3218,18,Jits_Linear_8,76,9999,9999,9999,2194008136
3218,18,Jits_Linear_8,77,9999,9999,9999,2194678840
3218,18,Jits_Linear_8,78,9999,9999,9999,2195348544
3218,18,Jits_Linear_8,79,9999,9999,9999,2196018276
3218,18,Jits_Linear_8,80,9999,9999,9999,2196678776
3218,18,Jits_Linear_8,81,9999,9999,9999,2197338192
3218,18,Jits_Linear_8,82,9999,9999,9999,2197998692
3218,18,Jits_Linear_8,83,9999,9999,9999,2198658120
3218,18,Jits_Linear_8,84,9999,9999,9999,2199318628
3218,18,Jits_Linear_8,85,9999,9999,9999,2199968872
3218,18,Jits_Linear_8,86,9999,9999,9999,2200619072
3218,18,Jits_Linear_8,87,9999,9999,9999,2201278556
3218,18,Jits_Linear_8,88,9999,9999,9999,2201928776
3218,18,Jits_Linear_8,89,9999,9999,9999,2202579064
3218,18,Jits_Linear_8,90,9999,9999,9999,2203219032
3218,18,Jits_Linear_8,91,9999,9999,9999,2203859008
3218,18,Jits_Linear_8,92,9999,9999,9999,2204499000
3218,18,Jits_Linear_8,93,9999,9999,9999,2205139020
3218,18,Jits_Linear_8,94,9999,9999,9999,2205779048
3218,18,Jits_Linear_8,95,9999,9999,9999,2206408820
3218,18,Jits_Linear_8,96,9999,9999,9999,2207038556
3218,18,Jits_Linear_8,97,9999,9999,9999,2207668300
3218,18,Jits_Linear_8,98,9999,9999,9999,2208299072
3218,18,Jits_Linear_8,99,9999,9999,9999,2208939064
3218,18,Jits_Linear_8,100,9999,9999,9999,2209568868
3218,18,Jits_Linear_8,101,9999,9999,9999,2210188360
3218,18,Jits_Linear_8,102,9999,9999,9999,2210808928
3218,18,Jits_Linear_8,103,9999,9999,9999,2211428456
3218,18,Jits_Linear_8,104,9999,9999,9999,2212048988
3218,18,Jits_Linear_8,105,9999,9999,9999,2212658256
3218,18,Jits_Linear_8,106,9999,9999,9999,2213268584
3218,18,Jits_Linear_8,107,9999,9999,9999,2213878868
3218,18,Jits_Linear_8,108,9999,9999,9999,2214488160
3218,18,Jits_Linear_8,109,9999,9999,9999,2215098488
3218,18,Jits_Linear_8,110,9999,9999,9999,2215698508
3218,18,Jits_Linear_8,111,9999,9999,9999,2216298564
3218,18,Jits_Linear_8,112,9999,9999,9999,2216898648
3218,18,Jits_Linear_8,113,9999,9999,9999,2217498744
3218,18,Jits_Linear_8,114,9999,9999,9999,2218098808
3218,18,Jits_Linear_8,115,9999,9999,9999,2218688620
3218,18,Jits_Linear_8,116,9999,9999,9999,2219278440
3218,18,Jits_Linear_8,117,9999,9999,9999,2219868236
3218,18,Jits_Linear_8,118,9999,9999,9999,2220459080
3218,18,Jits_Linear_8,119,9999,9999,9999,2221058172
3218,18,Jits_Linear_8,120,9999,9999,9999,2221638736
3218,18,Jits_Linear_8,121,9999,9999,9999,2222218336
3218,18,Jits_Linear_8,122,9999,9999,9999,2222798904
3218,18,Jits_Linear_8,123,9999,9999,9999,2223378524
3218,18,Jits_Linear_8,124,9999,9999,9999,2223958080
3218,18,Jits_Linear_8,125,9999,9999,9999,2224528496
3218,18,Jits_Linear_8,126,9999,9999,9999,2225098808
3218,18,Jits_Linear_8,127,9999,9999,9999,2225668176
3218,18,Jits_Linear_8,128,9999,9999,9999,2226238532
3218,18,Jits_Linear_8,129,9999,9999,9999,2226808896
3218,18,Jits_Linear_8,130,9999,9999,9999,2227369016
3218,18,Jits_Linear_8,131,9999,9999,9999,2227928128
3218,18,Jits_Linear_8,132,9999,9999,9999,2228488300
3218,18,Jits_Linear_8,133,9999,9999,9999,2229048428
3218,18,Jits_Linear_8,134,9999,9999,9999,2229608572
3218,18,Jits_Linear_8,135,9999,9999,9999,2230158444
3218,18,Jits_Linear_8,136,9999,9999,9999,2230708284
3218,18,Jits_Linear_8,137,9999,9999,9999,2231258208
3218,18,Jits_Linear_8,138,9999,9999,9999,2231808120
3218,18,Jits_Linear_8,139,9999,9999,9999,2232359008
3218,18,Jits_Linear_8,140,9999,9999,9999,2232898628
3218,18,Jits_Linear_8,141,9999,9999,9999,2233438288
3218,18,Jits_Linear_8,142,9999,9999,9999,2233978952
3218,18,Jits_Linear_8,143,9999,9999,9999,2234518600
3218,18,Jits_Linear_8,144,9999,9999,9999,2235058292
3218,18,Jits_Linear_8,145,9999,9999,9999,2235588732
3218,18,Jits_Linear_8,146,9999,9999,9999,2236118088
3218,18,Jits_Linear_8,147,9999,9999,9999,2236648520
3218,18,Jits_Linear_8,148,9999,9999,9999,2237178972
3218,18,Jits_Linear_8,149,9999,9999,9999,2237708352
3218,18,Jits_Linear_8,150,9999,9999,9999,2238228596
3218,18,Jits_Linear_8,151,9999,9999,9999,2238748760
3218,18,Jits_Linear_8,152,9999,9999,9999,2239268944
3218,18,Jits_Linear_8,153,9999,9999,9999,2239788144
3218,18,Jits_Linear_8,154,9999,9999,9999,2240308280
3218,18,Jits_Linear_8,155,9999,9999,9999,2240818268
3218,18,Jits_Linear_8,156,9999,9999,9999,2241328248
3218,18,Jits_Linear_8,157,9999,9999,9999,2241838196
3218,18,Jits_Linear_8,158,9999,9999,9999,2242348156
3218,18,Jits_Linear_8,159,9999,9999,9999,2242859108
3218,18,Jits_Linear_8,160,9999,9999,9999,2243369044
3218,18,Jits_Linear_8,161,9999,9999,9999,2243868756
3218,18,Jits_Linear_8,162,9999,9999,9999,2244368456
3218,18,Jits_Linear_8,163,9999,9999,9999,2244868216
3218,18,Jits_Linear_8,164,9999,9999,9999,2245368920
3218,18,Jits_Linear_8,165,9999,9999,9999,2245858388
3218,18,Jits_Linear_8,166,9999,9999,9999,2246348924
3218,18,Jits_Linear_8,167,9999,9999,9999,2246838364
3218,18,Jits_Linear_8,168,9999,9999,9999,2247328844
3218,18,Jits_Linear_8,169,9999,9999,9999,2247818368
3219,19,Jits_Linear_5,0,5,56,103,2260721084
3219,19,Jits_Linear_5,1,5,63,98,2260724108
3219,19,Jits_Linear_5,2,5,80,127,2260727156
3219,19,Jits_Linear_5,0,5,56,103,2261201224
3219,19,Jits_Linear_5,1,5,63,98,2261204472
3219,19,Jits_Linear_5,2,5,80,127,2261207440
3219,19,Jits_Linear_5,0,5,56,103,2261680576
3219,19,Jits_Linear_5,1,5,80,127,2261690772
3219,19,Jits_Linear_5,2,5,63,98,2261711380
3219,19,Jits_Linear_5,0,5,63,98,2262110636
3219,19,Jits_Linear_5,1,5,80,127,2262141360
3219,19,Jits_Linear_5,2,5,56,103,2262150508
3219,19,Jits_Linear_5,0,1,48,92,2262614216
3219,19,Jits_Linear_5,1,1,38,21,2262624312
3219,19,Jits_Linear_5,2,5,80,127,2262651236
3219,19,Jits_Linear_5,3,5,56,103,2262660464
3219,19,Jits_Linear_5,4,5,63,98,2262691260
3219,19,Jits_Linear_5,0,1,48,108,2263109072
3219,19,Jits_Linear_5,1,1,38,23,2263119168
3219,19,Jits_Linear_5,2,5,63,98,2263130504
3219,19,Jits_Linear_5,3,5,56,103,2263161228
3219,19,Jits_Linear_5,4,5,80,127,2263170376
3219,19,Jits_Linear_5,0,5,56,103,2263570928
3219,19,Jits_Linear_5,1,1,48,97,2263596444
3219,19,Jits_Linear_5,2,1,38,21,2263606464
3219,19,Jits_Linear_5,3,5,63,98,2263621252
3219,19,Jits_Linear_5,4,5,80,127,2263640368
3219,19,Jits_Linear_5,0,1,48,92,2264035748
3219,19,Jits_Linear_5,1,1,38,22,2264046176
3219,19,Jits_Linear_5,2,5,80,127,2264061272
3219,19,Jits_Linear_5,3,5,63,98,2264110504
3219,19,Jits_Linear_5,4,5,56,103,2264151448
3219,19,Jits_Linear_5,0,5,56,103,2264551020
3219,19,Jits_Linear_5,1,1,48,113,2264554912
3219,19,Jits_Linear_5,2,1,38,23,2264564784
3219,19,Jits_Linear_5,3,5,63,98,2264580472
3219,19,Jits_Linear_5,4,5,80,127,2264651260
3219,19,Jits_Linear_5,0,5,56,103,2265041180
3219,19,Jits_Linear_5,1,1,48,114,2265064176
3219,19,Jits_Linear_5,2,1,38,22,2265073828
3219,19,Jits_Linear_5,3,5,80,127,2265100676
3219,19,Jits_Linear_5,4,5,63,98,2265131252
3219,19,Jits_Linear_5,0,5,56,103,2265541216
3219,19,Jits_Linear_5,1,5,63,98,2265551120
3219,19,Jits_Linear_5,2,1,48,127,2265555880
3219,19,Jits_Linear_5,3,1,48,59,2265585552
3219,19,Jits_Linear_5,4,5,80,127,2265591280
3219,19,Jits_Linear_5,0,5,63,98,2266030340
3219,19,Jits_Linear_5,1,1,48,113,2266046712
3219,19,Jits_Linear_5,2,1,38,23,2266056808
3219,19,Jits_Linear_5,3,5,80,127,2266111332
3219,19,Jits_Linear_5,4,5,56,103,2266120480
3219,19,Jits_Linear_5,0,1,48,120,2266535860
3219,19,Jits_Linear_5,1,5,63,98,2266581300
3219,19,Jits_Linear_5,2,5,56,103,2266621264
3219,19,Jits_Linear_5,3,5,80,127,2266624256
3219,19,Jits_Linear_5,0,1,48,114,2267038560
3219,19,Jits_Linear_5,1,5,56,103,2267041148
3219,19,Jits_Linear_5,2,5,63,98,2267051420
3219,19,Jits_Linear_5,3,5,80,127,2267091284
3219,19,Jits_Linear_5,0,1,48,118,2267523892
3219,19,Jits_Linear_5,1,5,56,103,2267530816
3219,19,Jits_Linear_5,2,5,63,98,2267533884
3219,19,Jits_Linear_5,3,5,80,127,2267551128
3219,19,Jits_Linear_5,4,1,48,48,2267560680
3219,19,Jits_Linear_5,0,1,48,127,2268018936
3219,19,Jits_Linear_5,1,5,80,127,2268051092
3219,19,Jits_Linear_5,2,5,56,103,2268060992
3219,19,Jits_Linear_5,3,5,63,98,2268130808
3219,19,Jits_Linear_5,0,5,63,98,2268550440
3219,19,Jits_Linear_5,1,1,48,108,2268560460
3219,19,Jits_Linear_5,2,5,56,103,2268571116
3219,19,Jits_Linear_5,3,5,80,127,2268651088
3219,19,Jits_Linear_5,0,1,48,105,2269060524
3219,19,Jits_Linear_5,1,5,56,103,2269070812
3219,19,Jits_Linear_5,2,1,48,53,2269090180
3219,19,Jits_Linear_5,3,5,80,127,2269110804
3219,19,Jits_Linear_5,4,5,63,98,2269120852
3219,19,Jits_Linear_5,0,1,48,88,2269566568
3219,19,Jits_Linear_5,1,5,80,127,2269570428
3219,19,Jits_Linear_5,2,1,38,20,2269576984
3219,19,Jits_Linear_5,3,5,63,98,2269600996
3219,19,Jits_Linear_5,4,5,56,103,2269641008
3219,19,Jits_Linear_5,0,1,48,87,2270083000
3219,19,Jits_Linear_5,1,5,56,103,2270100864
3219,19,Jits_Linear_5,2,1,48,58,2270107784
3219,19,Jits_Linear_5,3,5,63,98,2270130668
3219,19,Jits_Linear_5,4,5,80,127,2270180944
3219,19,Jits_Linear_5,0,1,48,102,2270592560
3219,19,Jits_Linear_5,1,1,48,57,2270618920
3219,19,Jits_Linear_5,2,5,80,127,2270621036
3219,19,Jits_Linear_5,3,5,56,103,2270660976
3219,19,Jits_Linear_5,4,5,63,98,2270671244
3219,19,Jits_Linear_5,0,5,80,127,2271120972
3219,19,Jits_Linear_5,1,1,48,99,2271128656
3219,19,Jits_Linear_5,2,1,38,22,2271138744
3219,19,Jits_Linear_5,3,1,48,61,2271156108
3219,19,Jits_Linear_5,4,5,63,98,2271160940
3219,19,Jits_Linear_5,5,5,56,103,2271221132
3219,19,Jits_Linear_5,0,5,56,103,2271640968
3219,19,Jits_Linear_5,1,5,80,127,2271651312
3219,19,Jits_Linear_5,2,1,48,94,2271660656
3219,19,Jits_Linear_5,3,1,38,21,2271670676
3219,19,Jits_Linear_5,4,1,48,50,2271690284
3219,19,Jits_Linear_5,5,5,63,98,2271731012
3219,19,Jits_Linear_5,0,5,80,127,2272161036
3219,19,Jits_Linear_5,1,1,48,105,2272174120
3219,19,Jits_Linear_5,2,1,48,59,2272198216
3219,19,Jits_Linear_5,3,5,63,98,2272220656
3219,19,Jits_Linear_5,4,5,56,103,2272251252
3219,19,Jits_Linear_5,0,5,56,103,2272681252
3219,19,Jits_Linear_5,1,1,48,98,2272709100
3219,19,Jits_Linear_5,2,5,80,127,2272740816
3219,19,Jits_Linear_5,3,5,63,98,2272780780
3219,19,Jits_Linear_5,0,1,48,103,2273221448
3219,19,Jits_Linear_5,1,1,48,62,2273244652
3219,19,Jits_Linear_5,2,5,56,103,2273260964
3219,19,Jits_Linear_5,3,5,63,98,2273271236
3219,19,Jits_Linear_5,4,5,80,127,2273274744
3219,19,Jits_Linear_5,0,5,80,127,2273741312
3219,19,Jits_Linear_5,1,1,48,105,2273751184
3219,19,Jits_Linear_5,2,5,63,98,2273831396
3219,19,Jits_Linear_5,3,5,56,103,2273840620
3219,19,Jits_Linear_5,0,5,56,103,2274270756
3219,19,Jits_Linear_5,1,5,63,98,2274273780
3219,19,Jits_Linear_5,2,5,80,127,2274276828
3219,19,Jits_Linear_5,3,1,48,95,2274280408
3219,19,Jits_Linear_5,4,1,48,44,2274320020
3219,19,Jits_Linear_5,0,1,48,98,2274816908
3219,19,Jits_Linear_5,1,5,80,127,2274820616
3219,19,Jits_Linear_5,2,5,63,98,2274870524
3219,19,Jits_Linear_5,3,5,56,103,2274901392
3219,19,Jits_Linear_5,0,1,48,101,2275319680
3219,19,Jits_Linear_5,1,5,56,103,2275330716
3219,19,Jits_Linear_5,2,5,80,127,2275340616
3219,19,Jits_Linear_5,3,5,63,98,2275411256
3219,19,Jits_Linear_5,0,1,48,105,2275858112
3219,19,Jits_Linear_5,1,5,56,103,2275871260
3219,19,Jits_Linear_5,2,5,63,98,2275890748
3219,19,Jits_Linear_5,3,5,80,127,2275950992
3219,19,Jits_Linear_5,0,1,48,94,2276370652
3219,19,Jits_Linear_5,1,1,38,20,2276380668
3219,19,Jits_Linear_5,2,5,80,127,2276400624
3219,19,Jits_Linear_5,3,5,63,98,2276471116
3219,19,Jits_Linear_5,4,5,56,103,2276490588
3219,19,Jits_Linear_5,0,1,48,106,2276923712
3219,19,Jits_Linear_5,1,5,80,127,2276960532
3219,19,Jits_Linear_5,2,5,56,103,2276970800
3219,19,Jits_Linear_5,3,5,63,98,2276981072
3219,19,Jits_Linear_5,0,1,48,104,2277450248
3219,19,Jits_Linear_5,1,5,80,127,2277491108
3219,19,Jits_Linear_5,2,5,56,103,2277510668
3219,19,Jits_Linear_5,3,5,63,98,2277581088
3219,19,Jits_Linear_5,0,1,48,100,2277972360
3219,19,Jits_Linear_5,1,5,56,103,2278040940
3219,19,Jits_Linear_5,2,5,80,127,2278070752
3219,19,Jits_Linear_5,3,5,63,98,2278091064
3219,19,Jits_Linear_5,0,1,48,105,2278525336
3219,19,Jits_Linear_5,1,5,63,98,2278580592
3219,19,Jits_Linear_5,2,5,56,103,2278641144
3219,19,Jits_Linear_5,3,5,80,127,2278670668
3219,19,Jits_Linear_5,0,1,48,122,2279053296
3219,19,Jits_Linear_5,1,5,63,98,2279121432
3219,19,Jits_Linear_5,2,5,80,127,2279124720
3219,19,Jits_Linear_5,3,5,56,103,2279211576
3219,19,Jits_Linear_5,0,1,48,101,2279621480
3219,19,Jits_Linear_5,1,1,38,21,2279630828
3219,19,Jits_Linear_5,2,5,56,103,2279690668
3219,19,Jits_Linear_5,3,5,63,98,2279721380
3219,19,Jits_Linear_5,4,5,80,127,2279761528
3219,19,Jits_Linear_5,0,1,48,119,2280137404
3219,19,Jits_Linear_5,1,5,63,98,2280240400
3219,19,Jits_Linear_5,2,5,56,103,2280280564
3219,19,Jits_Linear_5,3,5,80,127,2280301024
3219,19,Jits_Linear_5,0,1,48,127,2280740776
3219,19,Jits_Linear_5,1,5,63,98,2280800520
3219,19,Jits_Linear_5,2,5,56,103,2280840444
3219,19,Jits_Linear_5,3,5,80,127,2280850940
3219,19,Jits_Linear_5,0,5,80,127,2281330956
3219,19,Jits_Linear_5,1,1,48,105,2281335048
3219,19,Jits_Linear_5,2,1,48,41,2281384176
3219,19,Jits_Linear_5,3,5,63,98,2281400688
3219,19,Jits_Linear_5,4,5,56,103,2281421368
3219,19,Jits_Linear_5,0,5,56,103,2281880840
3219,19,Jits_Linear_5,1,5,80,127,2281901376
3219,19,Jits_Linear_5,2,5,63,98,2281941316
3219,19,Jits_Linear_5,3,1,48,105,2281950808
3219,19,Jits_Linear_5,0,5,63,98,2282451344
3219,19,Jits_Linear_5,1,5,80,127,2282470784
3219,19,Jits_Linear_5,2,1,48,107,2282478088
3219,19,Jits_Linear_5,3,1,38,22,2282488112
3219,19,Jits_Linear_5,4,5,56,103,2282510696
3219,19,Jits_Linear_5,0,5,63,98,2283010280
3219,19,Jits_Linear_5,1,1,48,127,2283025680
3219,19,Jits_Linear_5,2,5,56,103,2283030880
3219,19,Jits_Linear_5,3,5,80,127,2283041300
3219,19,Jits_Linear_5,0,1,48,127,2283570656
3219,19,Jits_Linear_5,1,5,80,127,2283572296
3219,19,Jits_Linear_5,2,5,56,103,2283591260
3219,19,Jits_Linear_5,3,5,63,98,2283620712
3219,19,Jits_Linear_5,0,1,48,82,2284113560
3219,19,Jits_Linear_5,1,5,56,103,2284210528
3219,19,Jits_Linear_5,2,5,80,127,2284213740
3219,19,Jits_Linear_5,3,5,63,98,2284231212
3219,19,Jits_Linear_5,0,5,63,98,2284701164
3219,19,Jits_Linear_5,1,5,56,103,2284730696
3219,19,Jits_Linear_5,2,1,48,127,2284743780
3219,19,Jits_Linear_5,3,5,80,127,2284791328
3219,19,Jits_Linear_5,0,1,48,127,2285281820
3219,19,Jits_Linear_5,1,5,63,98,2285360396
3219,19,Jits_Linear_5,2,5,56,103,2285370592
3219,19,Jits_Linear_5,3,5,80,127,2285381072
3219,19,Jits_Linear_5,0,1,48,110,2285849148
3219,19,Jits_Linear_5,1,5,56,103,2285880716
3219,19,Jits_Linear_5,2,5,80,127,2285911292
3219,19,Jits_Linear_5,3,5,63,98,2285920512
3219,19,Jits_Linear_5,0,1,48,118,2286403400
3219,19,Jits_Linear_5,1,1,38,24,2286413568
3219,19,Jits_Linear_5,2,5,63,98,2286491000
3219,19,Jits_Linear_5,3,5,56,103,2286501180
3219,19,Jits_Linear_5,4,5,80,127,2286520576
3219,19,Jits_Linear_5,0,5,56,103,2286990700
3219,19,Jits_Linear_5,1,1,48,84,2286996812
3219,19,Jits_Linear_5,2,1,38,23,2287006228
3219,19,Jits_Linear_5,3,5,63,98,2287051216
3219,19,Jits_Linear_5,4,5,80,127,2287054504
3219,19,Jits_Linear_5,0,1,48,95,2287553684
3219,19,Jits_Linear_5,1,5,80,127,2287590676
3219,19,Jits_Linear_5,2,5,56,103,2287601168
3219,19,Jits_Linear_5,3,5,63,98,2287670688
3219,19,Jits_Linear_5,0,1,48,127,2288111164
3219,19,Jits_Linear_5,1,5,80,127,2288161164
3219,19,Jits_Linear_5,2,5,56,103,2288230908
3219,19,Jits_Linear_5,3,5,63,98,2288241104
3219,19,Jits_Linear_5,0,1,48,120,2288693588
3219,19,Jits_Linear_5,1,5,63,98,2288780532
3219,19,Jits_Linear_5,2,5,56,103,2288791012
3219,19,Jits_Linear_5,3,5,80,127,2288811324
3219,19,Jits_Linear_5,0,1,48,105,2289282240
3219,19,Jits_Linear_5,1,1,38,22,2289292336
3219,19,Jits_Linear_5,2,5,80,127,2289311164
3219,19,Jits_Linear_5,3,5,63,98,2289370588
3219,19,Jits_Linear_5,4,5,56,103,2289410372
3219,19,Jits_Linear_5,0,1,48,126,2289881032
3219,19,Jits_Linear_5,1,5,56,103,2289941096
3219,19,Jits_Linear_5,2,5,63,98,2289951220
3219,19,Jits_Linear_5,3,5,80,127,2289990996
3219,19,Jits_Linear_5,0,5,56,103,2290491012
3219,19,Jits_Linear_5,1,1,48,127,2290509648
3219,19,Jits_Linear_5,2,1,38,26,2290519848
3219,19,Jits_Linear_5,3,5,80,127,2290522240
3219,19,Jits_Linear_5,4,5,63,98,2290570496
3219,19,Jits_Linear_5,0,1,48,84,2291107064
3219,19,Jits_Linear_5,1,1,38,20,2291117004
3219,19,Jits_Linear_5,2,5,56,103,2291120492
3219,19,Jits_Linear_5,3,5,63,98,2291160432
3219,19,Jits_Linear_5,4,5,80,127,2291163940
3219,19,Jits_Linear_5,0,5,56,103,2291711344
3219,19,Jits_Linear_5,1,1,48,104,2291720792
3219,19,Jits_Linear_5,2,5,63,98,2291722360
3219,19,Jits_Linear_5,3,1,38,23,2291731324
3219,19,Jits_Linear_5,4,5,80,127,2291741016
3219,19,Jits_Linear_5,0,5,56,103,2292261216
3219,19,Jits_Linear_5,1,5,80,127,2292264132
3219,19,Jits_Linear_5,2,5,63,98,2292301080
3219,19,Jits_Linear_5,3,1,48,112,2292315952
3219,19,Jits_Linear_5,4,1,38,24,2292325604
3219,19,Jits_Linear_5,0,1,48,99,2292888560
3219,19,Jits_Linear_5,1,5,63,98,2292890852
3219,19,Jits_Linear_5,2,1,38,23,2292898304
3219,19,Jits_Linear_5,3,5,56,103,2292920744
3219,19,Jits_Linear_5,4,5,80,127,2292941128
3219,19,Jits_Linear_5,0,5,80,127,2293461304
3219,19,Jits_Linear_5,1,1,48,97,2293467040
3219,19,Jits_Linear_5,2,5,56,103,2293470672
3219,19,Jits_Linear_5,3,1,38,22,2293476932
3219,19,Jits_Linear_5,4,5,63,98,2293480736
3219,19,Jits_Linear_5,5,1,48,45,2293512832
3219,19,Jits_Linear_5,0,1,48,127,2294038996
3219,19,Jits_Linear_5,1,1,38,27,2294049164
3219,19,Jits_Linear_5,2,5,56,103,2294061548
3219,19,Jits_Linear_5,3,5,80,127,2294101636
3219,19,Jits_Linear_5,4,5,63,98,2294132120
3219,19,Jits_Linear_5,0,1,48,115,2294665724
3219,19,Jits_Linear_5,1,5,63,98,2294671072
3219,19,Jits_Linear_5,2,1,38,23,2294676136
3219,19,Jits_Linear_5,3,5,80,127,2294680816
3219,19,Jits_Linear_5,4,5,56,103,2294691160
3219,19,Jits_Linear_5,5,1,48,47,2294714264
3219,19,Jits_Linear_5,0,5,56,103,2295251476
3219,19,Jits_Linear_5,1,1,48,115,2295278664
3219,19,Jits_Linear_5,2,5,63,98,2295320956
3219,19,Jits_Linear_5,3,5,80,127,2295331076
3219,19,Jits_Linear_5,0,5,80,127,2295860748
3219,19,Jits_Linear_5,1,5,56,103,2295870796
3219,19,Jits_Linear_5,2,1,48,93,2295874360
3219,19,Jits_Linear_5,3,1,38,21,2295884832
3219,19,Jits_Linear_5,4,1,48,42,2295921404
3219,19,Jits_Linear_5,5,5,63,98,2295922748
3219,19,Jits_Linear_5,0,5,80,127,2296481132
3219,19,Jits_Linear_5,1,1,48,100,2296492124
3219,19,Jits_Linear_5,2,5,56,103,2296540696
3219,19,Jits_Linear_5,3,5,63,98,2296571220
3219,19,Jits_Linear_5,0,5,56,103,2297090704
3219,19,Jits_Linear_5,1,5,80,127,2297093692
3219,19,Jits_Linear_5,2,1,48,98,2297102592
3219,19,Jits_Linear_5,3,5,63,98,2297131312
3219,19,Jits_Linear_5,0,1,48,127,2297679076
3219,19,Jits_Linear_5,1,5,56,103,2297730568
3219,19,Jits_Linear_5,2,5,63,98,2297761072
3219,19,Jits_Linear_5,3,5,80,127,2297771492
3219,19,Jits_Linear_5,0,1,48,95,2298282772
3219,19,Jits_Linear_5,1,5,63,98,2298350936
3219,19,Jits_Linear_5,2,5,80,127,2298361280
3219,19,Jits_Linear_5,3,5,56,103,2298370652
3219,19,Jits_Linear_5,0,5,80,127,2298911016
3219,19,Jits_Linear_5,1,1,48,119,2298915328
3219,19,Jits_Linear_5,2,5,56,103,2298961436
3219,19,Jits_Linear_5,3,5,63,98,2298964500
3219,19,Jits_Linear_5,0,1,48,125,2299535424
3219,19,Jits_Linear_5,1,5,56,103,2299561452
3219,19,Jits_Linear_5,2,5,80,127,2299580644
3219,19,Jits_Linear_5,3,1,48,41,2299590372
3219,19,Jits_Linear_5,4,5,63,98,2299591864
3219,19,Jits_Linear_5,0,5,63,98,2300161488
3219,19,Jits_Linear_5,1,1,48,106,2300164308
3219,19,Jits_Linear_5,2,5,56,103,2300191160
3219,19,Jits_Linear_5,3,5,80,127,2300210496
3219,19,Jits_Linear_5,0,1,48,61,2300787836
3219,19,Jits_Linear_5,1,5,56,103,2300791016
3219,19,Jits_Linear_5,2,5,80,127,2300801512
3219,19,Jits_Linear_5,3,1,48,49,2300815552
3219,19,Jits_Linear_5,4,5,63,98,2300871024
3219,19,Jits_Linear_5,0,5,63,98,2301400516
3219,19,Jits_Linear_5,1,1,48,92,2301427628
3219,19,Jits_Linear_5,2,5,80,127,2301441376
3219,19,Jits_Linear_5,3,1,48,52,2301459548
3219,19,Jits_Linear_5,4,5,56,103,2301481292
3219,19,Jits_Linear_5,0,5,56,103,2302040460
3219,19,Jits_Linear_5,1,1,48,127,2302046192
3219,19,Jits_Linear_5,2,5,63,98,2302050648
3219,19,Jits_Linear_5,3,5,80,127,2302071332
3219,19,Jits_Linear_5,4,1,48,39,2302102608
3219,19,Jits_Linear_5,0,1,48,127,2302660812
3219,19,Jits_Linear_5,1,5,63,98,2302711284
3219,19,Jits_Linear_5,2,5,80,127,2302730552
3219,19,Jits_Linear_5,3,5,56,103,2302751084
3219,19,Jits_Linear_5,0,1,48,116,2303284988
3219,19,Jits_Linear_5,1,5,56,103,2303290644
3219,19,Jits_Linear_5,2,1,38,24,2303295404
3219,19,Jits_Linear_5,3,5,80,127,2303370584
3219,19,Jits_Linear_5,4,5,63,98,2303380856
3219,19,Jits_Linear_5,0,1,48,127,2303956396
3219,19,Jits_Linear_5,1,5,80,127,2303970592
3219,19,Jits_Linear_5,2,5,63,98,2303980864
3219,19,Jits_Linear_5,3,5,56,103,2304010612
3219,19,Jits_Linear_5,0,5,63,98,2304570704
3219,19,Jits_Linear_5,1,1,48,90,2304598332
3219,19,Jits_Linear_5,2,5,80,127,2304610640
3219,19,Jits_Linear_5,3,5,56,103,2304671252
3219,19,Jits_Linear_5,0,1,48,92,2305208448
3219,19,Jits_Linear_5,1,1,38,21,2305217776
3219,19,Jits_Linear_5,2,5,63,98,2305231296
3219,19,Jits_Linear_5,3,1,48,39,2305269052
3219,19,Jits_Linear_5,4,5,56,103,2305281284
3219,19,Jits_Linear_5,5,5,80,127,2305311104
3219,19,Jits_Linear_5,0,1,48,111,2305857152
3219,19,Jits_Linear_5,1,1,38,22,2305867768
3219,19,Jits_Linear_5,2,5,80,127,2305880320
3219,19,Jits_Linear_5,3,5,63,98,2305890668
3219,19,Jits_Linear_5,4,5,56,103,2305961452
3219,19,Jits_Linear_5,0,1,48,127,2306525628
3219,19,Jits_Linear_5,1,5,80,127,2306591168
3219,19,Jits_Linear_5,2,5,56,103,2306601208
3219,19,Jits_Linear_5,3,5,63,98,2306604280
3219,19,Jits_Linear_5,0,5,56,103,2307170604
3219,19,Jits_Linear_5,1,5,80,127,2307191136
3219,19,Jits_Linear_5,2,5,63,98,2307201332
3219,19,Jits_Linear_5,3,1,48,100,2307214716
3219,19,Jits_Linear_5,0,5,63,98,2307821080
3219,19,Jits_Linear_5,1,1,48,111,2307832296
3219,19,Jits_Linear_5,2,1,38,23,2307842464
3219,19,Jits_Linear_5,3,5,56,103,2307860772
3219,19,Jits_Linear_5,4,5,80,127,2307881380
3219,19,Jits_Linear_5,0,5,63,98,2308461060
3219,19,Jits_Linear_5,1,1,48,115,2308467244
3219,19,Jits_Linear_5,2,1,38,25,2308477412
3219,19,Jits_Linear_5,3,5,56,103,2308521348
3219,19,Jits_Linear_5,4,5,80,127,2308524488
3219,19,Jits_Linear_5,0,5,56,103,2309080496
3219,19,Jits_Linear_5,1,5,80,127,2309101056
3219,19,Jits_Linear_5,2,1,48,122,2309113168
3219,19,Jits_Linear_5,3,1,38,25,2309123260
3219,19,Jits_Linear_5,4,5,63,98,2309141040
3219,19,Jits_Linear_5,0,1,48,122,2309734252
3219,19,Jits_Linear_5,1,1,38,22,2309745696
3219,19,Jits_Linear_5,2,5,56,103,2309761312
3219,19,Jits_Linear_5,3,5,63,98,2309780800
3219,19,Jits_Linear_5,4,5,80,127,2309790996
3219,19,Jits_Linear_5,0,1,48,125,2310381416
3219,19,Jits_Linear_5,1,5,80,127,2310382760
3219,19,Jits_Linear_5,2,5,56,103,2310410716
3219,19,Jits_Linear_5,3,1,48,29,2310451464
3219,19,Jits_Linear_5,4,5,63,98,2310452652
3219,19,Jits_Linear_5,0,1,48,127,2311032412
3219,19,Jits_Linear_5,1,5,80,127,2311041504
3219,19,Jits_Linear_5,2,5,56,103,2311061064
3219,19,Jits_Linear_5,3,5,63,98,2311121384
3219,19,Jits_Linear_5,0,1,48,119,2311697568
3219,19,Jits_Linear_5,1,5,56,103,2311701124
3219,19,Jits_Linear_5,2,1,38,25,2311708132
3219,19,Jits_Linear_5,3,5,80,127,2311721280
3219,19,Jits_Linear_5,4,1,48,53,2311742144
3219,19,Jits_Linear_5,5,5,63,98,2311780680
3219,19,Jits_Linear_5,0,5,80,127,2312341096
3219,19,Jits_Linear_5,1,5,56,103,2312351220
3219,19,Jits_Linear_5,2,1,48,127,2312357476
3219,19,Jits_Linear_5,3,5,63,98,2312391224
3219,19,Jits_Linear_5,4,1,48,56,2312405712
3219,19,Jits_Linear_5,0,5,63,98,2313001284
3219,19,Jits_Linear_5,1,1,48,122,2313015564
3219,19,Jits_Linear_5,2,1,38,25,2313025584
3219,19,Jits_Linear_5,3,5,56,103,2313041196
3219,19,Jits_Linear_5,4,5,80,127,2313044336
3219,19,Jits_Linear_5,0,1,48,103,2313648260
3219,19,Jits_Linear_5,1,1,38,23,2313658804
3219,19,Jits_Linear_5,2,5,63,98,2313681300
3219,19,Jits_Linear_5,3,5,80,127,2313721192
3219,19,Jits_Linear_5,4,5,56,103,2313751076
3219,19,Jits_Linear_5,0,1,48,119,2314319152
3219,19,Jits_Linear_5,1,5,56,103,2314330488
3219,19,Jits_Linear_5,2,5,63,98,2314340684
3219,19,Jits_Linear_5,3,5,80,127,2314370360
3219,19,Jits_Linear_5,0,1,48,126,2314969824
3219,19,Jits_Linear_5,1,5,80,127,2314990852
3219,19,Jits_Linear_5,2,5,63,98,2315060536
3219,19,Jits_Linear_5,3,5,56,103,2315070792
3219,19,Jits_Linear_5,0,1,48,104,2315630264
3219,19,Jits_Linear_5,1,5,63,98,2315660784
3219,19,Jits_Linear_5,2,5,56,103,2315731204
3219,19,Jits_Linear_5,3,5,80,127,2315740652
3219,19,Jits_Linear_5,0,1,48,127,2316294820
3219,19,Jits_Linear_5,1,1,38,27,2316304992
3219,19,Jits_Linear_5,2,5,63,98,2316331324
3219,19,Jits_Linear_5,3,5,56,103,2316350808
3219,19,Jits_Linear_5,4,5,80,127,2316390956
3219,19,Jits_Linear_5,0,1,48,117,2317001060
3219,19,Jits_Linear_5,1,1,38,24,2317011332
3219,19,Jits_Linear_5,2,5,56,103,2317013640
3219,19,Jits_Linear_5,3,5,63,98,2317020624
3219,19,Jits_Linear_5,4,5,80,127,2317101476
3219,19,Jits_Linear_5,0,5,63,98,2317670856
3219,19,Jits_Linear_5,1,1,48,127,2317695992
3219,19,Jits_Linear_5,2,5,56,103,2317700452
3219,19,Jits_Linear_5,3,5,80,127,2317741368
3219,19,Jits_Linear_5,0,5,56,103,2318340868
3219,19,Jits_Linear_5,1,1,48,96,2318372684
3219,19,Jits_Linear_5,2,5,63,98,2318381476
3219,19,Jits_Linear_5,3,1,38,21,2318382964
3219,19,Jits_Linear_5,4,5,80,127,2318421408
3219,19,Jits_Linear_5,0,5,80,127,2319021608
3219,19,Jits_Linear_5,1,1,48,92,2319027196
3219,19,Jits_Linear_5,2,5,56,103,2319101504
3219,19,Jits_Linear_5,3,5,63,98,2319110652
3219,19,Jits_Linear_5,0,1,48,127,2319714528
3219,19,Jits_Linear_5,1,5,56,103,2319741304
3219,19,Jits_Linear_5,2,5,63,98,2319744592
3219,19,Jits_Linear_5,3,5,80,127,2319750600
3219,19,Jits_Linear_5,0,1,48,126,2320415340
3219,19,Jits_Linear_5,1,5,56,103,2320440552
3219,19,Jits_Linear_5,2,5,63,98,2320461236
3219,19,Jits_Linear_5,3,5,80,127,2320471284
3219,19,Jits_Linear_5,0,5,63,98,2321080824
3219,19,Jits_Linear_5,1,5,80,127,2321090944
3219,19,Jits_Linear_5,2,1,48,92,2321105744
3219,19,Jits_Linear_5,3,5,56,103,2321111396
3219,19,Jits_Linear_5,4,1,38,21,2321116008
3219,19,Jits_Linear_5,0,1,48,126,2321764836
3219,19,Jits_Linear_5,1,5,63,98,2321770936
3219,19,Jits_Linear_5,2,1,38,24,2321775324
3219,19,Jits_Linear_5,3,5,56,103,2321850728
3219,19,Jits_Linear_5,4,5,80,127,2321853868
3219,19,Jits_Linear_5,0,5,63,98,2322460928
3219,19,Jits_Linear_5,1,1,48,127,2322464420
3219,19,Jits_Linear_5,2,5,56,103,2322480708
3219,19,Jits_Linear_5,3,5,80,127,2322511356
3219,19,Jits_Linear_5,0,1,48,117,2323140632
3219,19,Jits_Linear_5,1,1,38,24,2323150908
3219,19,Jits_Linear_5,2,5,56,103,2323153068
3219,19,Jits_Linear_5,3,5,63,98,2323170612
3219,19,Jits_Linear_5,4,5,80,127,2323180908
3219,19,Jits_Linear_5,0,1,48,96,2323828132
3219,19,Jits_Linear_5,1,1,38,22,2323838152
3219,19,Jits_Linear_5,2,5,56,103,2323871004
3219,19,Jits_Linear_5,3,5,63,98,2323900676
3219,19,Jits_Linear_5,4,5,80,127,2323904044
3219,19,Jits_Linear_5,0,1,48,105,2324498456
3219,19,Jits_Linear_5,1,1,38,23,2324508544
3219,19,Jits_Linear_5,2,5,56,103,2324510984
3219,19,Jits_Linear_5,3,5,63,98,2324551000
3219,19,Jits_Linear_5,4,5,80,127,2324610672
3219,19,Jits_Linear_5,0,1,48,94,2325216440
3219,19,Jits_Linear_5,1,5,56,103,2325220840
3219,19,Jits_Linear_5,2,1,38,20,2325226656
3219,19,Jits_Linear_5,3,5,63,98,2325230956
3219,19,Jits_Linear_5,4,5,80,127,2325291348
3219,19,Jits_Linear_5,0,1,48,122,2325868960
3219,19,Jits_Linear_5,1,1,38,24,2325878904
3219,19,Jits_Linear_5,2,5,56,103,2325921108
3219,19,Jits_Linear_5,3,5,80,127,2325940744
3219,19,Jits_Linear_5,4,5,63,98,2325971644
3219,19,Jits_Linear_5,0,1,48,127,2326571224
3219,19,Jits_Linear_5,1,5,80,127,2326620476
3219,19,Jits_Linear_5,2,5,56,103,2326630892
3219,19,Jits_Linear_5,3,5,63,98,2326651428
3219,19,Jits_Linear_5,0,5,63,98,2327310664
3219,19,Jits_Linear_5,1,1,48,96,2327321352
3219,19,Jits_Linear_5,2,1,38,22,2327331372
3219,19,Jits_Linear_5,3,5,80,127,2327390512
3219,19,Jits_Linear_5,4,5,56,103,2327400932
3219,19,Jits_Linear_5,0,1,48,109,2328043668
3219,19,Jits_Linear_5,1,5,80,127,2328070448
3219,19,Jits_Linear_5,2,5,56,103,2328090980
3219,19,Jits_Linear_5,3,5,63,98,2328094120
3219,19,Jits_Linear_5,0,5,63,98,2328750496
3219,19,Jits_Linear_5,1,5,80,127,2328753784
3219,19,Jits_Linear_5,2,1,48,111,2328791824
3219,19,Jits_Linear_5,3,5,56,103,2328810976
3219,19,Jits_Linear_5,4,1,48,56,2328824044
3219,19,Jits_Linear_5,0,5,56,103,2329440480
3219,19,Jits_Linear_5,1,5,80,127,2329450828
3219,19,Jits_Linear_5,2,1,48,125,2329454620
3219,19,Jits_Linear_5,3,1,38,24,2329464864
3219,19,Jits_Linear_5,4,5,63,98,2329490664
3219,19,Jits_Linear_5,0,5,56,103,2330130756
3219,19,Jits_Linear_5,1,1,48,100,2330142940
3219,19,Jits_Linear_5,2,1,38,22,2330152732
3219,19,Jits_Linear_5,3,5,63,98,2330191344
3219,19,Jits_Linear_5,4,5,80,127,2330200420
3219,19,Jits_Linear_5,0,1,48,86,2330817148
3219,19,Jits_Linear_5,1,1,38,20,2330826948
3219,19,Jits_Linear_5,2,5,63,98,2330850900
3219,19,Jits_Linear_5,3,5,80,127,2330890544
3219,19,Jits_Linear_5,4,5,56,103,2330930440
3219,19,Jits_Linear_5,0,1,48,108,2331512652
3219,19,Jits_Linear_5,1,1,38,23,2331522820
3219,19,Jits_Linear_5,2,1,48,39,2331560288
3219,19,Jits_Linear_5,3,5,56,103,2331561636
3219,19,Jits_Linear_5,4,5,63,98,2331641148
3219,19,Jits_Linear_5,5,5,80,127,2331644512
3219,19,Jits_Linear_5,0,1,48,127,2332258348
3219,19,Jits_Linear_5,1,5,80,127,2332331508
3219,19,Jits_Linear_5,2,5,56,103,2332361244
3219,19,Jits_Linear_5,3,5,63,98,2332364232
3219,19,Jits_Linear_5,0,5,56,103,2333011432
3219,19,Jits_Linear_5,1,5,80,127,2333030624
3219,19,Jits_Linear_5,2,1,48,127,2333055464
3219,19,Jits_Linear_5,3,5,63,98,2333070632
3219,19,Jits_Linear_5,0,5,80,127,2333710688
3219,19,Jits_Linear_5,1,5,63,98,2333731076
3219,19,Jits_Linear_5,2,1,48,127,2333737188
3219,19,Jits_Linear_5,3,1,38,27,2333746828
3219,19,Jits_Linear_5,4,5,56,103,2333790544
3219,19,Jits_Linear_5,0,1,48,126,2334421740
3219,19,Jits_Linear_5,1,1,38,26,2334431912
3219,19,Jits_Linear_5,2,5,63,98,2334440880
3219,19,Jits_Linear_5,3,5,56,103,2334451000
3219,19,Jits_Linear_5,4,5,80,127,2334501204
3219,19,Jits_Linear_5,0,1,48,127,2335094036
3219,19,Jits_Linear_5,1,1,38,27,2335104132
3219,19,Jits_Linear_5,2,1,48,47,2335142476
3219,19,Jits_Linear_5,3,5,56,103,2335150444
3219,19,Jits_Linear_5,4,5,63,98,2335171128
3219,19,Jits_Linear_5,5,5,80,127,2335181176
3219,19,Jits_Linear_5,0,1,48,123,2335785416
3219,19,Jits_Linear_5,1,1,38,25,2335795584
3219,19,Jits_Linear_5,2,1,48,48,2335836096
3219,19,Jits_Linear_5,3,5,56,103,2335871344
3219,19,Jits_Linear_5,4,5,63,98,2335874260
3219,19,Jits_Linear_5,5,5,80,127,2335890904
3219,19,Jits_Linear_5,0,1,48,127,2336503312
3219,19,Jits_Linear_5,1,1,38,27,2336513484
3219,19,Jits_Linear_5,2,1,48,53,2336552944
3219,19,Jits_Linear_5,3,5,63,98,2336641296
3219,19,Jits_Linear_5,4,5,56,103,2336671032
3219,19,Jits_Linear_5,5,5,80,127,2336701004
3219,19,Jits_Linear_5,0,1,48,112,2337233784
3219,19,Jits_Linear_5,1,1,38,25,2337243880
3219,19,Jits_Linear_5,2,5,80,127,2337330536
3219,19,Jits_Linear_5,3,5,56,103,2337420804
3219,19,Jits_Linear_5,4,5,63,98,2337423944
3219,19,Jits_Linear_5,0,1,48,104,2338044952
3219,19,Jits_Linear_5,1,1,38,23,2338055040
3219,19,Jits_Linear_5,2,5,56,103,2338061072
3219,19,Jits_Linear_5,3,5,80,127,2338064056
3219,19,Jits_Linear_5,4,5,63,98,2338140624
3219,19,Jits_Linear_5,0,5,80,127,2338790788
3219,19,Jits_Linear_5,1,1,48,109,2338803872
3219,19,Jits_Linear_5,2,1,38,24,2338813968
3219,19,Jits_Linear_5,3,5,63,98,2338851232
3219,19,Jits_Linear_5,4,5,56,103,2338880832
3219,19,Jits_Linear_5,0,1,48,114,2339463028
3219,19,Jits_Linear_5,1,1,38,24,2339473196
3219,19,Jits_Linear_5,2,1,48,41,2339515128
3219,19,Jits_Linear_5,3,5,63,98,2339520860
3219,19,Jits_Linear_5,4,5,80,127,2339531056
3219,19,Jits_Linear_5,5,5,56,103,2339601044
3219,19,Jits_Linear_5,0,1,48,97,2340163852
3219,19,Jits_Linear_5,1,1,38,22,2340174244
3219,19,Jits_Linear_5,2,1,48,34,2340222032
3219,19,Jits_Linear_5,3,5,56,103,2340270460
3219,19,Jits_Linear_5,4,5,80,127,2340301168
3219,19,Jits_Linear_5,5,5,63,98,2340351308
3219,19,Jits_Linear_5,0,1,48,115,2340933356
3219,19,Jits_Linear_5,1,1,38,25,2340943524
3219,19,Jits_Linear_5,2,5,63,98,2341050732
3219,19,Jits_Linear_5,3,5,56,103,2341080556
3219,19,Jits_Linear_5,4,5,80,127,2341083696
3219,19,Jits_Linear_5,0,1,48,127,2341732800
3219,19,Jits_Linear_5,1,1,38,27,2341742896
3219,19,Jits_Linear_5,2,5,63,98,2341801216
3219,19,Jits_Linear_5,3,5,80,127,2341820928
3219,19,Jits_Linear_5,4,5,56,103,2341830960
3219,19,Jits_Linear_5,0,5,56,103,2342550876
3219,19,Jits_Linear_5,1,5,63,98,2342554016
3219,19,Jits_Linear_5,2,1,48,127,2342563508
3219,19,Jits_Linear_5,3,5,80,127,2342571256
3219,19,Jits_Linear_5,4,1,48,52,2342602080
3219,19,Jits_Linear_5,0,5,56,103,2343251444
3219,19,Jits_Linear_5,1,5,63,98,2343260592
3219,19,Jits_Linear_5,2,5,80,127,2343291240
3219,19,Jits_Linear_5,3,1,48,127,2343318792
3219,19,Jits_Linear_5,4,1,38,27,2343328888
3219,19,Jits_Linear_5,0,5,63,98,2344021440
3219,19,Jits_Linear_5,1,5,80,127,2344040856
3219,19,Jits_Linear_5,2,1,48,127,2344056700
3219,19,Jits_Linear_5,3,1,38,26,2344066796
3219,19,Jits_Linear_5,4,5,56,103,2344080692
3219,19,Jits_Linear_5,0,1,48,127,2344761124
3219,19,Jits_Linear_5,1,1,38,27,2344771144
3219,19,Jits_Linear_5,2,1,48,73,2344786772
3219,19,Jits_Linear_5,3,5,56,103,2344800596
3219,19,Jits_Linear_5,4,5,63,98,2344840608
3219,19,Jits_Linear_5,5,5,80,127,2344843896
3219,19,Jits_Linear_5,0,5,80,127,2345490736
3219,19,Jits_Linear_5,1,5,56,103,2345530676
3219,19,Jits_Linear_5,2,5,63,98,2345580952
3219,19,Jits_Linear_5,3,1,48,125,2345589396
3219,19,Jits_Linear_5,4,1,38,27,2345599120
3219,19,Jits_Linear_5,0,5,56,103,2346300748
3219,19,Jits_Linear_5,1,5,80,127,2346311016
3219,19,Jits_Linear_5,2,5,63,98,2346340620
3219,19,Jits_Linear_5,3,1,48,127,2346345760
3219,19,Jits_Linear_5,0,5,56,103,2347001420
3219,19,Jits_Linear_5,1,5,80,127,2347041288
3219,19,Jits_Linear_5,2,1,48,127,2347087852
3219,19,Jits_Linear_5,3,5,63,98,2347091408
3219,19,Jits_Linear_5,4,1,38,26,2347098508
3219,19,Jits_Linear_5,0,5,56,103,2347760876
3219,19,Jits_Linear_5,1,5,80,127,2347800968
3219,19,Jits_Linear_5,2,1,48,127,2347824388
3219,19,Jits_Linear_5,3,5,63,98,2347851236
3219,19,Jits_Linear_5,0,5,80,127,2348510600
3219,19,Jits_Linear_5,1,1,48,118,2348551508
3219,19,Jits_Linear_5,2,1,38,24,2348561456
3219,19,Jits_Linear_5,3,5,63,98,2348590396
3219,19,Jits_Linear_5,4,5,56,103,2348600668
3219,19,Jits_Linear_5,0,1,48,127,2349289740
3219,19,Jits_Linear_5,1,5,80,127,2349320556
3219,19,Jits_Linear_5,2,5,56,103,2349330752
3219,19,Jits_Linear_5,3,5,63,98,2349351288
3219,19,Jits_Linear_5,0,5,63,98,2350050608
3219,19,Jits_Linear_5,1,1,48,118,2350052092
3219,19,Jits_Linear_5,2,1,38,25,2350062484
3219,19,Jits_Linear_5,3,5,56,103,2350121472
3219,19,Jits_Linear_5,4,5,80,127,2350124612
3219,19,Jits_Linear_5,0,5,80,127,2350810460
3219,19,Jits_Linear_5,1,1,48,109,2350825356
3219,19,Jits_Linear_5,2,1,38,24,2350835452
3219,19,Jits_Linear_5,3,5,63,98,2350860588
3219,19,Jits_Linear_5,4,1,48,38,2350882720
3219,19,Jits_Linear_5,5,5,56,103,2350900652
3219,19,Jits_Linear_5,0,1,48,127,2351567568
3219,19,Jits_Linear_5,1,1,38,27,2351577664
3219,19,Jits_Linear_5,2,5,63,98,2351620580
3219,19,Jits_Linear_5,3,5,56,103,2351661496
3219,19,Jits_Linear_5,4,5,80,127,2351670704
3219,19,Jits_Linear_5,0,1,48,127,2352340820
3219,19,Jits_Linear_5,1,1,38,25,2352351064
3219,19,Jits_Linear_5,2,5,63,98,2352381384
3219,19,Jits_Linear_5,3,5,56,103,2352400724
3219,19,Jits_Linear_5,4,5,80,127,2352421180
3219,19,Jits_Linear_5,0,1,48,114,2353105416
3219,19,Jits_Linear_5,1,5,80,127,2353111440
3219,19,Jits_Linear_5,2,1,38,24,2353115828
3219,19,Jits_Linear_5,3,5,56,103,2353120584
3219,19,Jits_Linear_5,4,5,63,98,2353141192
3219,19,Jits_Linear_5,0,1,48,127,2353844680
3219,19,Jits_Linear_5,1,5,63,98,2353911420
3219,19,Jits_Linear_5,2,5,56,103,2353951344
3219,19,Jits_Linear_5,3,5,80,127,2353980724
3219,19,Jits_Linear_5,0,1,48,127,2354646280
3219,19,Jits_Linear_5,1,5,56,103,2354690544
3219,19,Jits_Linear_5,2,5,63,98,2354721120
3219,19,Jits_Linear_5,3,5,80,127,2354750780
3219,19,Jits_Linear_5,0,5,80,127,2355441272
3219,19,Jits_Linear_5,1,1,48,127,2355448208
3219,19,Jits_Linear_5,2,5,56,103,2355510652
3219,19,Jits_Linear_5,3,5,63,98,2355513568
3219,19,Jits_Linear_5,0,5,56,103,2356230648
3219,19,Jits_Linear_5,1,1,48,127,2356262688
3219,19,Jits_Linear_5,2,1,38,25,2356272708
3219,19,Jits_Linear_5,3,5,63,98,2356280752
3219,19,Jits_Linear_5,4,5,80,127,2356311548
3219,19,Jits_Linear_5,0,5,63,98,2356991276
3219,19,Jits_Linear_5,1,5,80,127,2356994640
3219,19,Jits_Linear_5,2,1,48,122,2357008248
3219,19,Jits_Linear_5,3,1,38,26,2357017592
3219,19,Jits_Linear_5,4,5,56,103,2357050672
3219,19,Jits_Linear_5,0,1,48,127,2357770212
3219,19,Jits_Linear_5,1,5,56,103,2357801180
3219,19,Jits_Linear_5,2,5,80,127,2357810628
3219,19,Jits_Linear_5,3,5,63,98,2357861416
3219,19,Jits_Linear_5,0,5,63,98,2358561200
3219,19,Jits_Linear_5,1,5,56,103,2358571248
3219,19,Jits_Linear_5,2,1,48,127,2358590252
3219,19,Jits_Linear_5,3,5,80,127,2358601140
3219,19,Jits_Linear_5,0,1,48,121,2359323172
3219,19,Jits_Linear_5,1,1,38,24,2359333268
3219,19,Jits_Linear_5,2,5,63,98,2359381396
3219,19,Jits_Linear_5,3,5,80,127,2359384832
3219,19,Jits_Linear_5,4,5,56,103,2359411072
3219,19,Jits_Linear_5,0,1,48,108,2360120588
3219,19,Jits_Linear_5,1,5,63,98,2360191412
3219,19,Jits_Linear_5,2,5,56,103,2360210972
3219,19,Jits_Linear_5,3,5,80,127,2360213964
3219,19,Jits_Linear_5,0,5,63,98,2360940860
3219,19,Jits_Linear_5,1,1,48,97,2360947044
3219,19,Jits_Linear_5,2,5,56,103,2361010540
3219,19,Jits_Linear_5,3,5,80,127,2361030924
3219,19,Jits_Linear_5,0,5,56,103,2361721076
3219,19,Jits_Linear_5,1,5,63,98,2361730524
3219,19,Jits_Linear_5,2,1,48,105,2361758900
3219,19,Jits_Linear_5,3,1,38,21,2361768824
3219,19,Jits_Linear_5,4,5,80,127,2361820484
3219,19,Jits_Linear_5,0,5,56,103,2362531156
3219,19,Jits_Linear_5,1,1,48,121,2362543268
3219,19,Jits_Linear_5,2,5,80,127,2362571092
3219,19,Jits_Linear_5,3,5,63,98,2362581212
3219,19,Jits_Linear_5,0,1,48,114,2363326264
3219,19,Jits_Linear_5,1,1,38,23,2363336212
3219,19,Jits_Linear_5,2,5,56,103,2363351308
3219,19,Jits_Linear_5,3,5,63,98,2363381084
3219,19,Jits_Linear_5,4,5,80,127,2363410832
3219,19,Jits_Linear_5,0,5,80,127,2364111220
3219,19,Jits_Linear_5,1,1,48,96,2364126168
3219,19,Jits_Linear_5,2,1,38,21,2364136608
3219,19,Jits_Linear_5,3,5,63,98,2364151024
3219,19,Jits_Linear_5,4,5,56,103,2364170584
3219,19,Jits_Linear_5,0,1,48,108,2364911328
3219,19,Jits_Linear_5,1,1,38,24,2364920904
3219,19,Jits_Linear_5,2,5,56,103,2364950896
3219,19,Jits_Linear_5,3,5,80,127,2364971508
3219,19,Jits_Linear_5,4,5,63,98,2364990772
3219,19,Jits_Linear_5,0,1,48,110,2365706116
3219,19,Jits_Linear_5,1,1,38,25,2365715692
3219,19,Jits_Linear_5,2,5,63,98,2365720824
3219,19,Jits_Linear_5,3,5,56,103,2365731244
3219,19,Jits_Linear_5,4,5,80,127,2365790736
3219,19,Jits_Linear_5,0,1,48,116,2366513060
3219,19,Jits_Linear_5,1,5,56,103,2366530924
3219,19,Jits_Linear_5,2,5,63,98,2366600684
3219,19,Jits_Linear_5,3,5,80,127,2366621052
3219,19,Jits_Linear_5,0,5,56,103,2367340992
3219,19,Jits_Linear_5,1,1,48,117,2367343584
3219,19,Jits_Linear_5,2,5,63,98,2367370588
3219,19,Jits_Linear_5,3,5,80,127,2367410676
3219,19,Jits_Linear_5,0,1,48,127,2368135800
3219,19,Jits_Linear_5,1,5,63,98,2368140704
3219,19,Jits_Linear_5,2,5,56,103,2368190688
3219,19,Jits_Linear_5,3,5,80,127,2368201032
3219,19,Jits_Linear_5,0,1,48,127,2368947800
3219,19,Jits_Linear_5,1,1,38,25,2368957896
3219,19,Jits_Linear_5,2,5,56,103,2368990752
3219,19,Jits_Linear_5,3,5,63,98,2369040680
3219,19,Jits_Linear_5,4,5,80,127,2369050864
3219,19,Jits_Linear_5,0,5,56,103,2369770932
3219,19,Jits_Linear_5,1,5,63,98,2369781500
3219,19,Jits_Linear_5,2,1,48,125,2369807988
3219,19,Jits_Linear_5,3,1,38,23,2369818156
3219,19,Jits_Linear_5,4,5,80,127,2369860896
3219,19,Jits_Linear_5,0,9999,9999,9999,2260958320
3219,19,Jits_Linear_5,1,9999,9999,9999,2261438556
3219,19,Jits_Linear_5,2,9999,9999,9999,2261918816
3219,19,Jits_Linear_5,3,9999,9999,9999,2262399068
3219,19,Jits_Linear_5,4,9999,9999,9999,2262878272
3219,19,Jits_Linear_5,5,9999,9999,9999,2263368772
3219,19,Jits_Linear_5,6,9999,9999,9999,2263858244
3219,19,Jits_Linear_5,7,9999,9999,9999,2264348768
3219,19,Jits_Linear_5,8,9999,9999,9999,2264838228
3219,19,Jits_Linear_5,9,9999,9999,9999,2265328748
3219,19,Jits_Linear_5,10,9999,9999,9999,2265828416
3219,19,Jits_Linear_5,11,9999,9999,9999,2266328144
3219,19,Jits_Linear_5,12,9999,9999,9999,2266828880
3219,19,Jits_Linear_5,13,9999,9999,9999,2267328592
3219,19,Jits_Linear_5,14,9999,9999,9999,2267828344
3219,19,Jits_Linear_5,15,9999,9999,9999,2268338240
3219,19,Jits_Linear_5,16,9999,9999,9999,2268848220
3219,19,Jits_Linear_5,17,9999,9999,9999,2269358160
3219,19,Jits_Linear_5,18,9999,9999,9999,2269868100
3219,19,Jits_Linear_5,19,9999,9999,9999,2270379076
3219,19,Jits_Linear_5,20,9999,9999,9999,2270908480
3219,19,Jits_Linear_5,21,9999,9999,9999,2271428720
3219,19,Jits_Linear_5,22,9999,9999,9999,2271948864
3219,19,Jits_Linear_5,23,9999,9999,9999,2272469056
3219,19,Jits_Linear_5,24,9999,9999,9999,2272988244
3219,19,Jits_Linear_5,25,9999,9999,9999,2273518656
3219,19,Jits_Linear_5,26,9999,9999,9999,2274048108
3219,19,Jits_Linear_5,27,9999,9999,9999,2274578544
3219,19,Jits_Linear_5,28,9999,9999,9999,2275108956
3219,19,Jits_Linear_5,29,9999,9999,9999,2275638388
3219,19,Jits_Linear_5,30,9999,9999,9999,2276179008
3219,19,Jits_Linear_5,31,9999,9999,9999,2276718692
3219,19,Jits_Linear_5,32,9999,9999,9999,2277258308
3219,19,Jits_Linear_5,33,9999,9999,9999,2277799004
3219,19,Jits_Linear_5,34,9999,9999,9999,2278338648
3219,19,Jits_Linear_5,35,9999,9999,9999,2278888512
3219,19,Jits_Linear_5,36,9999,9999,9999,2279438412
3219,19,Jits_Linear_5,37,9999,9999,9999,2279988292
3219,19,Jits_Linear_5,38,9999,9999,9999,2280538196
3219,19,Jits_Linear_5,39,9999,9999,9999,2281088112
3219,19,Jits_Linear_5,40,9999,9999,9999,2281648192
3219,19,Jits_Linear_5,41,9999,9999,9999,2282208356
3219,19,Jits_Linear_5,42,9999,9999,9999,2282768500
3219,19,Jits_Linear_5,43,9999,9999,9999,2283328576
3219,19,Jits_Linear_5,44,9999,9999,9999,2283888732
3219,19,Jits_Linear_5,45,9999,9999,9999,2284459096
3219,19,Jits_Linear_5,46,9999,9999,9999,2285038672
3219,19,Jits_Linear_5,47,9999,9999,9999,2285609028
3219,19,Jits_Linear_5,48,9999,9999,9999,2286178420
3219,19,Jits_Linear_5,49,9999,9999,9999,2286748760
3219,19,Jits_Linear_5,50,9999,9999,9999,2287328352
3219,19,Jits_Linear_5,51,9999,9999,9999,2287908984
3219,19,Jits_Linear_5,52,9999,9999,9999,2288488540
3219,19,Jits_Linear_5,53,9999,9999,9999,2289068124
3219,19,Jits_Linear_5,54,9999,9999,9999,2289648740
3219,19,Jits_Linear_5,55,9999,9999,9999,2290238580
3219,19,Jits_Linear_5,56,9999,9999,9999,2290828376
3219,19,Jits_Linear_5,57,9999,9999,9999,2291418236
3219,19,Jits_Linear_5,58,9999,9999,9999,2292009084
3219,19,Jits_Linear_5,59,9999,9999,9999,2292598864
3219,19,Jits_Linear_5,60,9999,9999,9999,2293198932
3219,19,Jits_Linear_5,61,9999,9999,9999,2293798976
3219,19,Jits_Linear_5,62,9999,9999,9999,2294399096
3219,19,Jits_Linear_5,63,9999,9999,9999,2294998092
3219,19,Jits_Linear_5,64,9999,9999,9999,2295598200
3219,19,Jits_Linear_5,65,9999,9999,9999,2296208496
3219,19,Jits_Linear_5,66,9999,9999,9999,2296818792
3219,19,Jits_Linear_5,67,9999,9999,9999,2297429072
3219,19,Jits_Linear_5,68,9999,9999,9999,2298038388
3219,19,Jits_Linear_5,69,9999,9999,9999,2298648640
3219,19,Jits_Linear_5,70,9999,9999,9999,2299268192
3219,19,Jits_Linear_5,71,9999,9999,9999,2299888752
3219,19,Jits_Linear_5,72,9999,9999,9999,2300508260
3219,19,Jits_Linear_5,73,9999,9999,9999,2301128780
3219,19,Jits_Linear_5,74,9999,9999,9999,2301748344
3219,19,Jits_Linear_5,75,9999,9999,9999,2302379116
3219,19,Jits_Linear_5,76,9999,9999,9999,2303019104
3219,19,Jits_Linear_5,77,9999,9999,9999,2303659124
3219,19,Jits_Linear_5,78,9999,9999,9999,2304299084
3219,19,Jits_Linear_5,79,9999,9999,9999,2304939128
3219,19,Jits_Linear_5,80,9999,9999,9999,2305579100
3219,19,Jits_Linear_5,81,9999,9999,9999,2306219064
3219,19,Jits_Linear_5,82,9999,9999,9999,2306859124
3219,19,Jits_Linear_5,83,9999,9999,9999,2307499092
3219,19,Jits_Linear_5,84,9999,9999,9999,2308139112
3219,19,Jits_Linear_5,85,9999,9999,9999,2308798560
3219,19,Jits_Linear_5,86,9999,9999,9999,2309448816
3219,19,Jits_Linear_5,87,9999,9999,9999,2310099064
3219,19,Jits_Linear_5,88,9999,9999,9999,2310748248
3219,19,Jits_Linear_5,89,9999,9999,9999,2311398496
3219,19,Jits_Linear_5,90,9999,9999,9999,2312058932
3219,19,Jits_Linear_5,91,9999,9999,9999,2312718432
3219,19,Jits_Linear_5,92,9999,9999,9999,2313378936
3219,19,Jits_Linear_5,93,9999,9999,9999,2314038352
3219,19,Jits_Linear_5,94,9999,9999,9999,2314698832
3219,19,Jits_Linear_5,95,9999,9999,9999,2315368572
3219,19,Jits_Linear_5,96,9999,9999,9999,2316038228
3219,19,Jits_Linear_5,97,9999,9999,9999,2316708948
3219,19,Jits_Linear_5,98,9999,9999,9999,2317378640
3219,19,Jits_Linear_5,99,9999,9999,9999,2318048344
3219,19,Jits_Linear_5,100,9999,9999,9999,2318728284
3219,19,Jits_Linear_5,101,9999,9999,9999,2319408192
3219,19,Jits_Linear_5,102,9999,9999,9999,2320088144
3219,19,Jits_Linear_5,103,9999,9999,9999,2320768076
3219,19,Jits_Linear_5,104,9999,9999,9999,2321449080
3219,19,Jits_Linear_5,105,9999,9999,9999,2322138200
3219,19,Jits_Linear_5,106,9999,9999,9999,2322828376
3219,19,Jits_Linear_5,107,9999,9999,9999,2323518572
3219,19,Jits_Linear_5,108,9999,9999,9999,2324208704
3219,19,Jits_Linear_5,109,9999,9999,9999,2324898936
3219,19,Jits_Linear_5,110,9999,9999,9999,2325598296
3219,19,Jits_Linear_5,111,9999,9999,9999,2326298744
3219,19,Jits_Linear_5,112,9999,9999,9999,2326998112
3219,19,Jits_Linear_5,113,9999,9999,9999,2327698516
3219,19,Jits_Linear_5,114,9999,9999,9999,2328398932
3219,19,Jits_Linear_5,115,9999,9999,9999,2329108568
3219,19,Jits_Linear_5,116,9999,9999,9999,2329818216
3219,19,Jits_Linear_5,117,9999,9999,9999,2330528872
3219,19,Jits_Linear_5,118,9999,9999,9999,2331238480
3219,19,Jits_Linear_5,119,9999,9999,9999,2331948128
3219,19,Jits_Linear_5,120,9999,9999,9999,2332669008
3219,19,Jits_Linear_5,121,9999,9999,9999,2333388920
3219,19,Jits_Linear_5,122,9999,9999,9999,2334108728
3219,19,Jits_Linear_5,123,9999,9999,9999,2334828604
3219,19,Jits_Linear_5,124,9999,9999,9999,2335548468
3219,19,Jits_Linear_5,125,9999,9999,9999,2336278652
3219,19,Jits_Linear_5,126,9999,9999,9999,2337008700
3219,19,Jits_Linear_5,127,9999,9999,9999,2337738812
3219,19,Jits_Linear_5,128,9999,9999,9999,2338468952
3219,19,Jits_Linear_5,129,9999,9999,9999,2339199092
3219,19,Jits_Linear_5,130,9999,9999,9999,2339938368
3219,19,Jits_Linear_5,131,9999,9999,9999,2340678748
3219,19,Jits_Linear_5,132,9999,9999,9999,2341419112
3219,19,Jits_Linear_5,133,9999,9999,9999,2342168676
3219,19,Jits_Linear_5,134,9999,9999,9999,2342909024
3219,19,Jits_Linear_5,135,9999,9999,9999,2343658572
3219,19,Jits_Linear_5,136,9999,9999,9999,2344408168
3219,19,Jits_Linear_5,137,9999,9999,9999,2345158716
3219,19,Jits_Linear_5,138,9999,9999,9999,2345908328
3219,19,Jits_Linear_5,139,9999,9999,9999,2346658900
3219,19,Jits_Linear_5,140,9999,9999,9999,2347418732
3219,19,Jits_Linear_5,141,9999,9999,9999,2348178516
3219,19,Jits_Linear_5,142,9999,9999,9999,2348938332
3219,19,Jits_Linear_5,143,9999,9999,9999,2349698120
3219,19,Jits_Linear_5,144,9999,9999,9999,2350458988
3219,19,Jits_Linear_5,145,9999,9999,9999,2351229028
3219,19,Jits_Linear_5,146,9999,9999,9999,2351999032
3219,19,Jits_Linear_5,147,9999,9999,9999,2352768064
3219,19,Jits_Linear_5,148,9999,9999,9999,2353538116
3219,19,Jits_Linear_5,149,9999,9999,9999,2354308168
3219,19,Jits_Linear_5,150,9999,9999,9999,2355088488
3219,19,Jits_Linear_5,151,9999,9999,9999,2355868796
3219,19,Jits_Linear_5,152,9999,9999,9999,2356649064
3219,19,Jits_Linear_5,153,9999,9999,9999,2357428340
3219,19,Jits_Linear_5,154,9999,9999,9999,2358208636
3219,19,Jits_Linear_5,155,9999,9999,9999,2358998088
3219,19,Jits_Linear_5,156,9999,9999,9999,2359788616
3219,19,Jits_Linear_5,157,9999,9999,9999,2360578132
3219,19,Jits_Linear_5,158,9999,9999,9999,2361368640
3219,19,Jits_Linear_5,159,9999,9999,9999,2362158172
3219,19,Jits_Linear_5,160,9999,9999,9999,2362958932
3219,19,Jits_Linear_5,161,9999,9999,9999,2363758688
3219,19,Jits_Linear_5,162,9999,9999,9999,2364558440
3219,19,Jits_Linear_5,163,9999,9999,9999,2365358176
3219,19,Jits_Linear_5,164,9999,9999,9999,2366158964
3219,19,Jits_Linear_5,165,9999,9999,9999,2366968900
3219,19,Jits_Linear_5,166,9999,9999,9999,2367778884
3219,19,Jits_Linear_5,167,9999,9999,9999,2368588864
3219,19,Jits_Linear_5,168,9999,9999,9999,2369398892
3219,19,Jits_Linear_5,169,9999,9999,9999,2370208824
3220,3,ISIP_8,0,5,42,127,2433847772
3220,3,ISIP_8,1,5,42,127,2434648724
3220,3,ISIP_8,2,5,42,127,2435448180
3220,3,ISIP_8,3,5,42,127,2436248012
3220,3,ISIP_8,4,1,48,70,2437011224
3220,3,ISIP_8,5,5,42,127,2437047612
3220,3,ISIP_8,6,1,48,95,2437811108
3220,3,ISIP_8,7,1,48,58,2437833676
3220,3,ISIP_8,8,5,42,127,2437848596
3220,3,ISIP_8,9,1,48,70,2438629988
3220,3,ISIP_8,10,5,42,127,2438648272
3220,3,ISIP_8,11,1,48,84,2439383620
3220,3,ISIP_8,12,5,42,127,2439447856
3220,3,ISIP_8,13,1,48,107,2440237904
3220,3,ISIP_8,14,5,42,127,2440247516
3220,3,ISIP_8,15,1,48,105,2441036144
3220,3,ISIP_8,16,5,42,127,2441048372
3220,3,ISIP_8,17,1,48,94,2441812172
3220,3,ISIP_8,18,5,42,127,2441848404
3220,3,ISIP_8,19,1,48,71,2442632476
3220,3,ISIP_8,20,5,42,127,2442647988
3220,3,ISIP_8,21,1,48,93,2443420692
3220,3,ISIP_8,22,5,42,127,2443447796
3220,3,ISIP_8,23,1,48,101,2444231268
3220,3,ISIP_8,24,5,42,127,2444248356
3220,3,ISIP_8,25,1,48,61,2444256192
3220,3,ISIP_8,26,5,42,127,2445048320
3220,3,ISIP_8,27,1,48,97,2445052412
3220,3,ISIP_8,28,1,48,59,2445076100
3220,3,ISIP_8,29,5,42,127,2445848032
3220,3,ISIP_8,30,1,48,72,2445877032
3220,3,ISIP_8,31,1,38,18,2445886284
3220,3,ISIP_8,32,1,48,105,2446626508
3220,3,ISIP_8,33,5,42,127,2446647788
3220,3,ISIP_8,34,1,48,109,2447435072
3220,3,ISIP_8,35,5,42,127,2447448344
3220,3,ISIP_8,36,1,48,98,2448219020
3220,3,ISIP_8,37,5,42,127,2448248228
3220,3,ISIP_8,38,1,48,108,2449017560
3220,3,ISIP_8,39,5,42,127,2449048036
3220,3,ISIP_8,40,1,48,107,2449801960
3220,3,ISIP_8,41,5,42,127,2449847844
3220,3,ISIP_8,42,1,48,102,2450602816
3220,3,ISIP_8,43,5,42,127,2450648476
3220,3,ISIP_8,44,1,48,107,2451398888
3220,3,ISIP_8,45,5,42,127,2451448084
3220,3,ISIP_8,46,1,48,100,2452206268
3220,3,ISIP_8,47,5,42,127,2452248040
3220,3,ISIP_8,48,1,48,96,2452999796
3220,3,ISIP_8,49,5,42,127,2453047772
3220,3,ISIP_8,50,1,48,92,2453801920
3220,3,ISIP_8,51,1,48,65,2453821504
3220,3,ISIP_8,52,5,42,127,2453848312
3220,3,ISIP_8,53,1,48,92,2454578300
3220,3,ISIP_8,54,5,42,127,2454648044
3220,3,ISIP_8,55,1,48,93,2455420368
3220,3,ISIP_8,56,5,42,127,2455448000
3220,3,ISIP_8,57,1,48,91,2456214864
3220,3,ISIP_8,58,1,48,67,2456231744
3220,3,ISIP_8,59,5,42,127,2456247560
3220,3,ISIP_8,60,1,48,93,2457014724
3220,3,ISIP_8,61,5,42,127,2457048960
3220,3,ISIP_8,62,1,48,95,2457830040
3220,3,ISIP_8,63,1,48,104,2458660524
3220,3,ISIP_8,64,1,48,106,2459469676
3220,3,ISIP_8,65,1,48,103,2460279652
3220,3,ISIP_8,66,1,48,103,2461083272
3220,3,ISIP_8,67,1,48,97,2461878812
3220,3,ISIP_8,68,1,48,73,2461895468
3220,3,ISIP_8,69,1,48,116,2462701504
3220,3,ISIP_8,70,1,48,117,2463508568
3220,3,ISIP_8,71,1,48,115,2464321232
3220,3,ISIP_8,72,1,48,103,2465147512
3220,3,ISIP_8,73,1,48,96,2465950532
3220,3,ISIP_8,74,1,48,115,2466762832
3220,3,ISIP_8,75,1,48,110,2467563404
3220,3,ISIP_8,76,1,48,119,2468366728
3220,3,ISIP_8,77,1,48,110,2469128080
3220,3,ISIP_8,78,1,48,108,2469954140
3220,3,ISIP_8,79,1,48,99,2470732624
3220,3,ISIP_8,80,1,48,99,2471540656
3220,3,ISIP_8,81,1,48,117,2472333508
3220,3,ISIP_8,82,1,48,111,2473144900
3220,3,ISIP_8,83,1,48,116,2473944952
3220,3,ISIP_8,84,1,48,117,2474743940
3220,3,ISIP_8,85,1,48,127,2475532744
3220,3,ISIP_8,86,1,48,120,2476317888
3220,3,ISIP_8,87,1,48,78,2476334176
3220,3,ISIP_8,88,1,48,122,2477147588
3220,3,ISIP_8,89,1,48,119,2477964072
3220,3,ISIP_8,90,1,48,79,2477979384
3220,3,ISIP_8,91,1,48,121,2478769016
3220,3,ISIP_8,92,1,48,78,2478785900
3220,3,ISIP_8,93,1,48,127,2479577352
3220,3,ISIP_8,94,1,48,122,2480379324
3220,3,ISIP_8,95,1,48,114,2481163796
3220,3,ISIP_8,96,1,48,122,2481945796
3220,3,ISIP_8,97,1,48,112,2482756748
3220,3,ISIP_8,98,1,48,121,2483546304
3220,3,ISIP_8,99,1,48,122,2484364956
3220,3,ISIP_8,100,1,48,108,2485149424
3220,3,ISIP_8,101,1,48,112,2485948932
3220,3,ISIP_8,102,1,48,127,2486732428
3220,3,ISIP_8,103,1,48,89,2487517372
3220,3,ISIP_8,104,1,38,20,2487527224
3220,3,ISIP_8,105,1,48,111,2488315932
3220,3,ISIP_8,106,1,48,121,2489093520
3220,3,ISIP_8,107,1,48,81,2489108232
3220,3,ISIP_8,108,1,48,124,2489906324
3220,3,ISIP_8,109,1,48,120,2490683908
3220,3,ISIP_8,110,1,48,117,2491498672
3220,3,ISIP_8,111,1,48,103,2492267808
3220,3,ISIP_8,112,1,48,127,2493062528
3220,3,ISIP_8,113,1,48,127,2493851112
3220,3,ISIP_8,114,1,48,124,2494616044
3220,3,ISIP_8,115,1,48,123,2495417940
3220,3,ISIP_8,116,1,48,127,2496214180
3220,3,ISIP_8,117,1,48,127,2497021464
3220,3,ISIP_8,118,1,48,127,2497803912
3220,3,ISIP_8,119,1,48,89,2497818104
3220,3,ISIP_8,120,1,48,119,2498592780
3220,3,ISIP_8,121,1,48,70,2498611900
3220,3,ISIP_8,122,1,48,127,2499367796
3220,3,ISIP_8,123,1,48,80,2499383860
3220,3,ISIP_8,124,1,48,127,2500172220
3220,3,ISIP_8,125,1,48,112,2500961100
3220,3,ISIP_8,126,1,48,127,2501756272
3220,3,ISIP_8,127,1,48,73,2501775844
3220,3,ISIP_8,128,1,48,119,2502551864
3220,3,ISIP_8,129,1,48,74,2502569644
3220,3,ISIP_8,130,1,48,112,2503348876
3220,3,ISIP_8,131,1,48,127,2504140528
3220,3,ISIP_8,132,1,48,127,2504933700
3220,3,ISIP_8,133,1,48,116,2505728124
3220,3,ISIP_8,134,1,48,127,2506503540
3220,3,ISIP_8,135,1,48,127,2507336400
3220,3,ISIP_8,136,1,48,127,2508118408
3220,3,ISIP_8,137,1,48,118,2508888592
3220,3,ISIP_8,138,1,48,116,2509684428
3220,3,ISIP_8,139,1,48,127,2510447736
3220,3,ISIP_8,140,1,48,117,2511256212
3220,3,ISIP_8,141,1,48,113,2512022956
3220,3,ISIP_8,142,1,48,82,2512791044
3220,3,ISIP_8,143,1,48,119,2513579184
3220,3,ISIP_8,144,1,48,124,2514377788
3220,3,ISIP_8,145,1,48,108,2515163328
3220,3,ISIP_8,146,1,48,124,2515923164
3220,3,ISIP_8,147,1,48,115,2516722992
3220,3,ISIP_8,148,1,48,127,2517511052
3220,3,ISIP_8,149,1,48,126,2518305096
3220,3,ISIP_8,150,1,48,115,2519119188
3220,3,ISIP_8,151,1,48,127,2519901112
3220,3,ISIP_8,152,1,48,117,2520689620
3220,3,ISIP_8,153,1,48,125,2521496528
3220,3,ISIP_8,154,1,48,118,2522295812
3220,3,ISIP_8,155,1,48,127,2523112396
3220,3,ISIP_8,156,1,48,107,2523931572
3220,3,ISIP_8,157,1,48,127,2524741472
3220,3,ISIP_8,158,1,48,127,2525534768
3220,3,ISIP_8,159,1,48,115,2526331136
3220,3,ISIP_8,160,1,48,126,2527136320
3220,3,ISIP_8,161,1,48,125,2527906056
3220,3,ISIP_8,162,1,48,125,2528696660
3220,3,ISIP_8,163,1,48,119,2529489960
3220,3,ISIP_8,164,1,48,127,2530296440
3220,3,ISIP_8,165,1,48,127,2531093776
3220,3,ISIP_8,166,1,48,103,2531877124
3220,3,ISIP_8,167,1,38,22,2531887048
3220,3,ISIP_8,168,1,48,114,2532662220
3220,3,ISIP_8,169,1,38,22,2532672000
3220,3,ISIP_8,170,1,48,110,2533458908
3220,3,ISIP_8,171,1,48,124,2534223188
3220,3,ISIP_8,172,1,48,112,2535004812
3220,3,ISIP_8,173,1,38,21,2535014892
3220,3,ISIP_8,174,1,48,74,2535021756
3220,3,ISIP_8,175,1,48,127,2535790864
3220,3,ISIP_8,176,1,48,86,2535807148
3220,3,ISIP_8,177,1,48,127,2536569180
3220,3,ISIP_8,178,1,48,127,2537347516
3220,3,ISIP_8,179,1,48,84,2537362300
3220,3,ISIP_8,180,1,48,90,2538138772
3220,3,ISIP_8,181,1,48,127,2538904464
3220,3,ISIP_8,182,1,38,24,2538914688
3220,3,ISIP_8,183,1,48,124,2539714168
3220,3,ISIP_8,184,1,48,127,2540483608
3220,3,ISIP_8,185,1,48,127,2541287624
3220,3,ISIP_8,186,1,38,23,2541297776
3220,3,ISIP_8,187,1,48,103,2542052600
3220,3,ISIP_8,188,1,48,110,2542833704
3220,3,ISIP_8,189,1,48,127,2543582344
3220,3,ISIP_8,190,1,48,127,2544360904
3220,3,ISIP_8,191,1,48,115,2545141560
3220,3,ISIP_8,192,1,48,127,2545936728
3220,3,ISIP_8,193,1,38,22,2545947400
3220,3,ISIP_8,194,1,48,115,2546697812
3220,3,ISIP_8,195,1,48,101,2547478696
3220,3,ISIP_8,196,1,38,21,2547488848
3220,3,ISIP_8,197,1,48,103,2548271272
3220,3,ISIP_8,198,1,38,22,2548280900
3220,3,ISIP_8,199,1,48,103,2549062424
3220,3,ISIP_8,200,1,38,22,2549072500
3220,3,ISIP_8,201,1,48,99,2549825440
3220,3,ISIP_8,202,1,48,121,2550633920
3220,3,ISIP_8,203,1,38,24,2550644076
3220,3,ISIP_8,204,1,48,127,2551418136
3220,3,ISIP_8,205,1,48,127,2552221080
3220,3,ISIP_8,206,1,48,126,2553002928
3220,3,ISIP_8,207,1,48,125,2553808048
3220,3,ISIP_8,208,1,48,79,2553824952
3220,3,ISIP_8,0,9999,9999,9999,2433845332
3220,3,ISIP_8,1,9999,9999,9999,2434646136
3220,3,ISIP_8,2,9999,9999,9999,2435445816
3220,3,ISIP_8,3,9999,9999,9999,2436245572
3220,3,ISIP_8,4,9999,9999,9999,2437045320
3220,3,ISIP_8,5,9999,9999,9999,2437846084
3220,3,ISIP_8,6,9999,9999,9999,2438645832
3220,3,ISIP_8,7,9999,9999,9999,2439445568
3220,3,ISIP_8,8,9999,9999,9999,2440245300
3220,3,ISIP_8,9,9999,9999,9999,2441046084
3220,3,ISIP_8,10,9999,9999,9999,2441845816
3220,3,ISIP_8,11,9999,9999,9999,2442645552
3220,3,ISIP_8,12,9999,9999,9999,2443445360
3220,3,ISIP_8,13,9999,9999,9999,2444246064
3220,3,ISIP_8,14,9999,9999,9999,2445045808
3220,3,ISIP_8,15,9999,9999,9999,2445845592
3220,3,ISIP_8,16,9999,9999,9999,2446645348
3220,3,ISIP_8,17,9999,9999,9999,2447446132
3220,3,ISIP_8,18,9999,9999,9999,2448245864
3220,3,ISIP_8,19,9999,9999,9999,2449045596
3220,3,ISIP_8,20,9999,9999,9999,2449845332
3220,3,ISIP_8,21,9999,9999,9999,2450646112
3220,3,ISIP_8,22,9999,9999,9999,2451445868
3220,3,ISIP_8,23,9999,9999,9999,2452245604
3220,3,ISIP_8,24,9999,9999,9999,2453045336
3220,3,ISIP_8,25,9999,9999,9999,2453846096
3220,3,ISIP_8,26,9999,9999,9999,2454645828
3220,3,ISIP_8,27,9999,9999,9999,2455445560
3220,3,ISIP_8,28,9999,9999,9999,2456245348
3220,3,ISIP_8,29,9999,9999,9999,2457046128
3220,3,ISIP_8,30,9999,9999,9999,2457845812
3220,3,ISIP_8,31,9999,9999,9999,2458645620
3220,3,ISIP_8,32,9999,9999,9999,2459445348
3220,3,ISIP_8,33,9999,9999,9999,2460246128
3220,3,ISIP_8,34,9999,9999,9999,2461045852
3220,3,ISIP_8,35,9999,9999,9999,2461845584
3220,3,ISIP_8,36,9999,9999,9999,2462645364
3220,3,ISIP_8,37,9999,9999,9999,2463446068
3220,3,ISIP_8,38,9999,9999,9999,2464245820
3220,3,ISIP_8,39,9999,9999,9999,2465045620
3220,3,ISIP_8,40,9999,9999,9999,2465845352
3220,3,ISIP_8,41,9999,9999,9999,2466646128
3220,3,ISIP_8,42,9999,9999,9999,2467445856
3220,3,ISIP_8,43,9999,9999,9999,2468245584
3220,3,ISIP_8,44,9999,9999,9999,2469045312
3220,3,ISIP_8,45,9999,9999,9999,2469846092
3220,3,ISIP_8,46,9999,9999,9999,2470645844
3220,3,ISIP_8,47,9999,9999,9999,2471445572
3220,3,ISIP_8,48,9999,9999,9999,2472245300
3220,3,ISIP_8,49,9999,9999,9999,2473046076
3220,3,ISIP_8,50,9999,9999,9999,2473845880
3220,3,ISIP_8,51,9999,9999,9999,2474645608
3220,3,ISIP_8,52,9999,9999,9999,2475445336
3220,3,ISIP_8,53,9999,9999,9999,2476246116
3220,3,ISIP_8,54,9999,9999,9999,2477045844
3220,3,ISIP_8,55,9999,9999,9999,2477845576
3220,3,ISIP_8,56,9999,9999,9999,2478645356
3220,3,ISIP_8,57,9999,9999,9999,2479446112
3220,3,ISIP_8,58,9999,9999,9999,2480245844
3220,3,ISIP_8,59,9999,9999,9999,2481045572
3220,3,ISIP_8,60,9999,9999,9999,2481845300
3220,3,ISIP_8,61,9999,9999,9999,2482646100
3220,3,ISIP_8,62,9999,9999,9999,2483445828
3220,3,ISIP_8,63,9999,9999,9999,2484245560
3220,3,ISIP_8,64,9999,9999,9999,2485045364
3220,3,ISIP_8,65,9999,9999,9999,2485846068
3220,3,ISIP_8,66,9999,9999,9999,2486645868
3220,3,ISIP_8,67,9999,9999,9999,2487445596
3220,3,ISIP_8,68,9999,9999,9999,2488245352
3220,3,ISIP_8,69,9999,9999,9999,2489046080
3220,3,ISIP_8,70,9999,9999,9999,2489845864
3220,3,ISIP_8,71,9999,9999,9999,2490645592
3220,3,ISIP_8,72,9999,9999,9999,2491445320
3220,3,ISIP_8,73,9999,9999,9999,2492246100
3220,3,ISIP_8,74,9999,9999,9999,2493045828
3220,3,ISIP_8,75,9999,9999,9999,2493845556
3220,3,ISIP_8,76,9999,9999,9999,2494645352
3220,3,ISIP_8,77,9999,9999,9999,2495446080
3220,3,ISIP_8,78,9999,9999,9999,2496245808
3220,3,ISIP_8,79,9999,9999,9999,2497045612
3220,3,ISIP_8,80,9999,9999,9999,2497845320
3220,3,ISIP_8,81,9999,9999,9999,2498646072
3220,3,ISIP_8,82,9999,9999,9999,2499445852
3220,3,ISIP_8,83,9999,9999,9999,2500245584
3220,3,ISIP_8,84,9999,9999,9999,2501045312
3220,3,ISIP_8,85,9999,9999,9999,2501846096
3220,3,ISIP_8,86,9999,9999,9999,2502645876
3220,3,ISIP_8,87,9999,9999,9999,2503445604
3220,3,ISIP_8,88,9999,9999,9999,2504245316
3220,3,ISIP_8,89,9999,9999,9999,2505046096
3220,3,ISIP_8,90,9999,9999,9999,2505845824
3220,3,ISIP_8,91,9999,9999,9999,2506645552
3220,3,ISIP_8,92,9999,9999,9999,2507445356
3220,3,ISIP_8,93,9999,9999,9999,2508246088
3220,3,ISIP_8,94,9999,9999,9999,2509045812
3220,3,ISIP_8,95,9999,9999,9999,2509845616
3220,3,ISIP_8,96,9999,9999,9999,2510645344
3220,3,ISIP_8,97,9999,9999,9999,2511446120
3220,3,ISIP_8,98,9999,9999,9999,2512245848
3220,3,ISIP_8,99,9999,9999,9999,2513045576
3220,3,ISIP_8,100,9999,9999,9999,2513845308
3220,3,ISIP_8,101,9999,9999,9999,2514646108
3220,3,ISIP_8,102,9999,9999,9999,2515445836
3220,3,ISIP_8,103,9999,9999,9999,2516245564
3220,3,ISIP_8,104,9999,9999,9999,2517045368
3220,3,ISIP_8,105,9999,9999,9999,2517846072
3220,3,ISIP_8,106,9999,9999,9999,2518645872
3220,3,ISIP_8,107,9999,9999,9999,2519445604
3220,3,ISIP_8,108,9999,9999,9999,2520245332
3220,3,ISIP_8,109,9999,9999,9999,2521046132
3220,3,ISIP_8,110,9999,9999,9999,2521845860
3220,3,ISIP_8,111,9999,9999,9999,2522645588
3220,3,ISIP_8,112,9999,9999,9999,2523445320
3220,3,ISIP_8,113,9999,9999,9999,2524246096
3220,3,ISIP_8,114,9999,9999,9999,2525045824
3220,3,ISIP_8,115,9999,9999,9999,2525845552
3220,3,ISIP_8,116,9999,9999,9999,2526645356
3220,3,ISIP_8,117,9999,9999,9999,2527446084
3220,3,ISIP_8,118,9999,9999,9999,2528245812
3220,3,ISIP_8,119,9999,9999,9999,2529045612
3220,3,ISIP_8,120,9999,9999,9999,2529845340
3220,3,ISIP_8,121,9999,9999,9999,2530646120
3220,3,ISIP_8,122,9999,9999,9999,2531445848
3220,3,ISIP_8,123,9999,9999,9999,2532245604
3220,3,ISIP_8,124,9999,9999,9999,2533045360
3220,3,ISIP_8,125,9999,9999,9999,2533846088
3220,3,ISIP_8,126,9999,9999,9999,2534645816
3220,3,ISIP_8,127,9999,9999,9999,2535445552
3220,3,ISIP_8,128,9999,9999,9999,2536245336
3220,3,ISIP_8,129,9999,9999,9999,2537046112
3220,3,ISIP_8,130,9999,9999,9999,2537845816
3220,3,ISIP_8,131,9999,9999,9999,2538645620
3220,3,ISIP_8,132,9999,9999,9999,2539445304
3220,3,ISIP_8,133,9999,9999,9999,2540246104
3220,3,ISIP_8,134,9999,9999,9999,2541045832
3220,3,ISIP_8,135,9999,9999,9999,2541845588
3220,3,ISIP_8,136,9999,9999,9999,2542645316
3220,3,ISIP_8,137,9999,9999,9999,2543446092
3220,3,ISIP_8,138,9999,9999,9999,2544245820
3220,3,ISIP_8,139,9999,9999,9999,2545045552
3220,3,ISIP_8,140,9999,9999,9999,2545845356
3220,3,ISIP_8,141,9999,9999,9999,2546646112
3220,3,ISIP_8,142,9999,9999,9999,2547445840
3220,3,ISIP_8,143,9999,9999,9999,2548245596
3220,3,ISIP_8,144,9999,9999,9999,2549045352
3220,3,ISIP_8,145,9999,9999,9999,2549846076
3220,3,ISIP_8,146,9999,9999,9999,2550645856
3220,3,ISIP_8,147,9999,9999,9999,2551445572
3220,3,ISIP_8,148,9999,9999,9999,2552245304
3220,3,ISIP_8,149,9999,9999,9999,2553046104
3221,5,ISIP_5,0,1,48,26,2577500252
3221,5,ISIP_5,1,5,42,127,2578002532
3221,5,ISIP_5,2,5,42,127,2578502176
3221,5,ISIP_5,3,5,42,127,2579001596
3221,5,ISIP_5,4,5,42,127,2579501312
3221,5,ISIP_5,5,5,42,127,2580002296
3221,5,ISIP_5,6,1,48,79,2580004896
3221,5,ISIP_5,7,5,42,127,2580501992
3221,5,ISIP_5,8,1,48,100,2580510876
3221,5,ISIP_5,9,1,38,21,2580521028
3221,5,ISIP_5,10,1,48,61,2580535812
3221,5,ISIP_5,11,5,42,127,2581001544
3221,5,ISIP_5,12,1,48,105,2581006756
3221,5,ISIP_5,13,1,38,22,2581016908
3221,5,ISIP_5,14,1,48,66,2581029156
3221,5,ISIP_5,15,1,48,109,2581497916
3221,5,ISIP_5,16,5,42,127,2581502284
3221,5,ISIP_5,17,5,42,127,2582002136
3221,5,ISIP_5,18,1,48,94,2582005180
3221,5,ISIP_5,19,1,48,94,2582495436
3221,5,ISIP_5,20,5,42,127,2582501676
3221,5,ISIP_5,21,1,38,21,2582505916
3221,5,ISIP_5,22,1,48,98,2583000212
3221,5,ISIP_5,23,5,42,127,2583002080
3221,5,ISIP_5,24,1,38,21,2583010592
3221,5,ISIP_5,25,5,42,127,2583502176
3221,5,ISIP_5,26,1,48,98,2583518460
3221,5,ISIP_5,27,5,42,127,2584002068
3221,5,ISIP_5,28,1,48,106,2584016652
3221,5,ISIP_5,29,1,48,121,2584499028
3221,5,ISIP_5,30,5,42,127,2584501608
3221,5,ISIP_5,31,1,48,65,2584525428
3221,5,ISIP_5,32,5,42,127,2585002260
3221,5,ISIP_5,33,1,48,108,2585015920
3221,5,ISIP_5,34,1,48,52,2585048616
3221,5,ISIP_5,35,5,42,127,2585502156
3221,5,ISIP_5,36,1,48,107,2585512456
3221,5,ISIP_5,37,5,42,127,2586001628
3221,5,ISIP_5,38,1,48,105,2586010356
3221,5,ISIP_5,39,1,48,42,2586053720
3221,5,ISIP_5,40,5,42,127,2586501448
3221,5,ISIP_5,41,1,48,97,2586520728
3221,5,ISIP_5,42,5,42,127,2587002192
3221,5,ISIP_5,43,1,48,106,2587004936
3221,5,ISIP_5,44,1,48,51,2587036400
3221,5,ISIP_5,45,5,42,127,2587502012
3221,5,ISIP_5,46,1,48,88,2587534076
3221,5,ISIP_5,47,1,48,94,2587998676
3221,5,ISIP_5,48,5,42,127,2588001924
3221,5,ISIP_5,49,5,42,127,2588502300
3221,5,ISIP_5,50,1,48,100,2588506320
3221,5,ISIP_5,51,1,48,92,2588992608
3221,5,ISIP_5,52,5,42,127,2589002212
3221,5,ISIP_5,53,1,48,93,2589495888
3221,5,ISIP_5,54,5,42,127,2589501980
3221,5,ISIP_5,55,5,42,127,2590001384
3221,5,ISIP_5,56,1,48,91,2590006600
3221,5,ISIP_5,57,1,38,20,2590016752
3221,5,ISIP_5,58,1,48,100,2590495376
3221,5,ISIP_5,59,5,42,127,2590502368
3221,5,ISIP_5,60,1,48,58,2590523348
3221,5,ISIP_5,61,1,48,103,2590992884
3221,5,ISIP_5,62,5,42,127,2591001896
3221,5,ISIP_5,63,1,38,22,2591003380
3221,5,ISIP_5,64,1,48,62,2591017556
3221,5,ISIP_5,65,1,48,98,2591500936
3221,5,ISIP_5,66,5,42,127,2591502728
3221,5,ISIP_5,67,1,48,93,2592002656
3221,5,ISIP_5,68,5,42,127,2592004148
3221,5,ISIP_5,69,5,42,127,2592502052
3221,5,ISIP_5,70,1,48,106,2592515564
3221,5,ISIP_5,71,5,42,127,2593001748
3221,5,ISIP_5,72,1,48,91,2593033288
3221,5,ISIP_5,73,1,38,21,2593042916
3221,5,ISIP_5,74,5,42,127,2593501692
3221,5,ISIP_5,75,1,48,95,2593533384
3221,5,ISIP_5,76,1,38,20,2593544584
3221,5,ISIP_5,77,5,42,127,2594002240
3221,5,ISIP_5,78,1,48,100,2594007824
3221,5,ISIP_5,79,1,38,21,2594018272
3221,5,ISIP_5,80,1,48,57,2594036280
3221,5,ISIP_5,81,5,42,127,2594501912
3221,5,ISIP_5,82,1,48,103,2594502880
3221,5,ISIP_5,83,1,38,22,2594513276
3221,5,ISIP_5,84,1,48,57,2594528888
3221,5,ISIP_5,85,5,42,127,2595001848
3221,5,ISIP_5,86,1,48,92,2595002816
3221,5,ISIP_5,87,1,38,20,2595013264
3221,5,ISIP_5,88,5,42,127,2595501584
3221,5,ISIP_5,89,1,48,97,2595507168
3221,5,ISIP_5,90,1,38,20,2595517324
3221,5,ISIP_5,91,1,48,50,2595536400
3221,5,ISIP_5,92,1,48,94,2595984260
3221,5,ISIP_5,93,5,42,127,2596002176
3221,5,ISIP_5,94,5,42,127,2596501952
3221,5,ISIP_5,95,1,48,79,2596504544
3221,5,ISIP_5,96,1,38,19,2596514852
3221,5,ISIP_5,97,1,48,53,2596529640
3221,5,ISIP_5,98,1,48,89,2597000060
3221,5,ISIP_5,99,5,42,127,2597001568
3221,5,ISIP_5,100,5,42,127,2597502316
3221,5,ISIP_5,101,1,48,95,2597508280
3221,5,ISIP_5,102,1,38,21,2597518436
3221,5,ISIP_5,103,1,48,113,2597990408
3221,5,ISIP_5,104,1,48,99,2598508504
3221,5,ISIP_5,105,1,38,21,2598518964
3221,5,ISIP_5,106,1,48,97,2598979116
3221,5,ISIP_5,107,1,38,21,2598988972
3221,5,ISIP_5,108,1,48,102,2599496788
3221,5,ISIP_5,109,1,38,21,2599507328
3221,5,ISIP_5,110,1,48,104,2600004592
3221,5,ISIP_5,111,1,48,90,2600531960
3221,5,ISIP_5,112,1,48,101,2600997232
3221,5,ISIP_5,113,1,48,125,2601494080
3221,5,ISIP_5,114,1,48,121,2602013456
3221,5,ISIP_5,115,1,48,117,2602510004
3221,5,ISIP_5,116,1,48,106,2603019348
3221,5,ISIP_5,117,1,48,127,2603535940
3221,5,ISIP_5,118,1,48,73,2603555968
3221,5,ISIP_5,119,1,48,127,2604053564
3221,5,ISIP_5,120,1,48,66,2604079420
3221,5,ISIP_5,121,1,48,121,2604557420
3221,5,ISIP_5,122,1,48,123,2605064664
3221,5,ISIP_5,123,1,48,57,2605094860
3221,5,ISIP_5,124,1,48,105,2605565156
3221,5,ISIP_5,125,1,38,21,2605575236
3221,5,ISIP_5,126,1,48,121,2606068844
3221,5,ISIP_5,127,1,48,102,2606576084
3221,5,ISIP_5,128,1,48,127,2607077192
3221,5,ISIP_5,129,1,48,127,2607582120
3221,5,ISIP_5,130,1,48,99,2608098568
3221,5,ISIP_5,131,1,38,21,2608108648
3221,5,ISIP_5,132,1,48,120,2608585320
3221,5,ISIP_5,133,1,48,126,2609088376
3221,5,ISIP_5,134,1,48,95,2609569820
3221,5,ISIP_5,135,1,38,21,2609579748
3221,5,ISIP_5,136,1,48,112,2610074024
3221,5,ISIP_5,137,1,48,101,2610592116
3221,5,ISIP_5,138,1,48,126,2611096068
3221,5,ISIP_5,139,1,48,118,2611582592
3221,5,ISIP_5,140,1,48,123,2612097912
3221,5,ISIP_5,141,1,48,109,2612609352
3221,5,ISIP_5,142,1,38,23,2612619204
3221,5,ISIP_5,143,1,48,127,2613108096
3221,5,ISIP_5,144,1,48,127,2613619600
3221,5,ISIP_5,145,1,48,108,2614121988
3221,5,ISIP_5,146,1,38,22,2614132064
3221,5,ISIP_5,147,1,48,107,2614635300
3221,5,ISIP_5,148,1,48,127,2615135592
3221,5,ISIP_5,149,1,48,101,2615644932
3221,5,ISIP_5,150,1,38,21,2615654336
3221,5,ISIP_5,151,1,48,121,2616130364
3221,5,ISIP_5,152,1,48,127,2616644940
3221,5,ISIP_5,153,1,48,127,2617129148
3221,5,ISIP_5,154,1,48,127,2617630408
3221,5,ISIP_5,155,1,48,123,2618150516
3221,5,ISIP_5,156,1,48,126,2618662624
3221,5,ISIP_5,157,1,48,118,2619164260
3221,5,ISIP_5,158,1,48,107,2619679136
3221,5,ISIP_5,159,1,38,23,2619689288
3221,5,ISIP_5,160,1,48,127,2620182516
3221,5,ISIP_5,161,1,48,83,2620682956
3221,5,ISIP_5,162,1,48,101,2621166644
3221,5,ISIP_5,163,1,38,21,2621176792
3221,5,ISIP_5,164,1,48,113,2621670552
3221,5,ISIP_5,165,1,48,110,2622168968
3221,5,ISIP_5,166,1,38,23,2622179196
3221,5,ISIP_5,167,1,48,98,2622688208
3221,5,ISIP_5,168,1,38,21,2622698432
3221,5,ISIP_5,169,1,48,124,2623185308
3221,5,ISIP_5,170,1,48,117,2623706840
3221,5,ISIP_5,171,1,48,113,2624219996
3221,5,ISIP_5,172,1,38,23,2624230148
3221,5,ISIP_5,173,1,48,127,2624714832
3221,5,ISIP_5,174,1,48,120,2625231572
3221,5,ISIP_5,175,1,48,127,2625727576
3221,5,ISIP_5,176,1,48,46,2625766244
3221,5,ISIP_5,177,1,48,119,2626234272
3221,5,ISIP_5,178,1,48,127,2626728800
3221,5,ISIP_5,179,1,48,117,2627249368
3221,5,ISIP_5,180,1,48,118,2627748528
3221,5,ISIP_5,181,1,48,60,2627784560
3221,5,ISIP_5,182,1,48,98,2628261516
3221,5,ISIP_5,183,1,38,22,2628271444
3221,5,ISIP_5,184,1,48,123,2628750236
3221,5,ISIP_5,185,1,38,24,2628760316
3221,5,ISIP_5,186,1,48,127,2629250404
3221,5,ISIP_5,187,1,48,109,2629757128
3221,5,ISIP_5,188,1,38,23,2629767280
3221,5,ISIP_5,189,1,48,127,2630259384
3221,5,ISIP_5,190,1,48,127,2630748236
3221,5,ISIP_5,191,1,48,127,2631253088
3221,5,ISIP_5,192,1,48,127,2631771252
3221,5,ISIP_5,193,1,48,127,2632269668
3221,5,ISIP_5,194,1,48,124,2632766364
3221,5,ISIP_5,195,1,48,105,2633273540
3221,5,ISIP_5,196,1,48,124,2633763956
3221,5,ISIP_5,197,1,48,127,2634273068
3221,5,ISIP_5,198,1,48,114,2634762060
3221,5,ISIP_5,199,1,48,105,2635261900
3221,5,ISIP_5,200,1,38,22,2635271980
3221,5,ISIP_5,201,1,48,127,2635774784
3221,5,ISIP_5,202,1,48,127,2636278292
3221,5,ISIP_5,203,1,48,127,2636775592
3221,5,ISIP_5,204,1,48,127,2637273340
3221,5,ISIP_5,205,1,48,127,2637765072
3221,5,ISIP_5,206,1,48,127,2638278756
3221,5,ISIP_5,207,1,48,70,2638305156
3221,5,ISIP_5,208,1,48,127,2638784108
3221,5,ISIP_5,209,1,48,127,2639289560
3221,5,ISIP_5,210,1,48,124,2639790148
3221,5,ISIP_5,211,1,48,58,2639817496
3221,5,ISIP_5,212,1,48,127,2640319736
3221,5,ISIP_5,213,1,48,60,2640349128
3221,5,ISIP_5,214,1,48,127,2640813864
3221,5,ISIP_5,215,1,48,127,2641332176
3221,5,ISIP_5,216,1,48,113,2641823344
3221,5,ISIP_5,217,1,48,127,2642336124
3221,5,ISIP_5,218,1,48,88,2642851520
3221,5,ISIP_5,219,1,48,107,2643354876
3221,5,ISIP_5,220,1,38,22,2643364280
3221,5,ISIP_5,221,1,48,119,2643861324
3221,5,ISIP_5,222,1,38,24,2643871476
3221,5,ISIP_5,223,1,48,106,2644357452
3221,5,ISIP_5,224,1,38,23,2644367828
3221,5,ISIP_5,225,1,48,127,2644859784
3221,5,ISIP_5,226,1,48,127,2645365836
3221,5,ISIP_5,227,1,38,25,2645376064
3221,5,ISIP_5,228,1,48,127,2645872812
3221,5,ISIP_5,229,1,48,48,2645908240
3221,5,ISIP_5,230,1,48,123,2646379356
3221,5,ISIP_5,231,1,48,125,2646895880
3221,5,ISIP_5,232,1,48,99,2647387340
3221,5,ISIP_5,233,1,38,22,2647397420
3221,5,ISIP_5,234,1,48,127,2647899476
3221,5,ISIP_5,235,1,48,125,2648405224
3221,5,ISIP_5,236,1,48,117,2648904388
3221,5,ISIP_5,237,1,38,23,2648914540
3221,5,ISIP_5,238,1,48,113,2649421460
3221,5,ISIP_5,239,1,38,23,2649431316
3221,5,ISIP_5,240,1,48,122,2649907864
3221,5,ISIP_5,241,1,38,24,2649918020
3221,5,ISIP_5,242,1,48,127,2650420896
3221,5,ISIP_5,243,1,48,106,2650925824
3221,5,ISIP_5,244,1,38,24,2650935900
3221,5,ISIP_5,245,1,48,48,2650962212
3221,5,ISIP_5,246,1,48,123,2651441900
3221,5,ISIP_5,247,1,48,119,2651936956
3221,5,ISIP_5,248,1,48,119,2652447564
3221,5,ISIP_5,249,1,48,119,2652960200
3221,5,ISIP_5,250,1,38,25,2652970352
3221,5,ISIP_5,251,1,48,116,2653487068
3221,5,ISIP_5,252,1,38,24,2653497148
3221,5,ISIP_5,253,1,48,114,2653974296
3221,5,ISIP_5,254,1,38,23,2653984376
3221,5,ISIP_5,255,1,48,99,2654492268
3221,5,ISIP_5,256,1,38,22,2654502360
3221,5,ISIP_5,257,1,48,70,2655011448
3221,5,ISIP_5,258,1,48,124,2655504180
3221,5,ISIP_5,259,1,38,24,2655514184
3221,5,ISIP_5,260,1,48,117,2656021852
3221,5,ISIP_5,261,1,38,25,2656031928
3221,5,ISIP_5,262,1,48,127,2656526360
3221,5,ISIP_5,263,1,48,127,2657044148
3221,5,ISIP_5,264,1,48,99,2657544736
3221,5,ISIP_5,265,1,38,22,2657554816
3221,5,ISIP_5,0,9999,9999,9999,2577999948
3221,5,ISIP_5,1,9999,9999,9999,2578499664
3221,5,ISIP_5,2,9999,9999,9999,2578999380
3221,5,ISIP_5,3,9999,9999,9999,2579499100
3221,5,ISIP_5,4,9999,9999,9999,2579999860
3221,5,ISIP_5,5,9999,9999,9999,2580499556
3221,5,ISIP_5,6,9999,9999,9999,2580999256
3221,5,ISIP_5,7,9999,9999,9999,2581500000
3221,5,ISIP_5,8,9999,9999,9999,2581999704
3221,5,ISIP_5,9,9999,9999,9999,2582499392
3221,5,ISIP_5,10,9999,9999,9999,2582999132
3221,5,ISIP_5,11,9999,9999,9999,2583499888
3221,5,ISIP_5,12,9999,9999,9999,2583999560
3221,5,ISIP_5,13,9999,9999,9999,2584499324
3221,5,ISIP_5,14,9999,9999,9999,2585000048
3221,5,ISIP_5,15,9999,9999,9999,2585499720
3221,5,ISIP_5,16,9999,9999,9999,2585999416
3221,5,ISIP_5,17,9999,9999,9999,2586499164
3221,5,ISIP_5,18,9999,9999,9999,2586999904
3221,5,ISIP_5,19,9999,9999,9999,2587499576
3221,5,ISIP_5,20,9999,9999,9999,2587999340
3221,5,ISIP_5,21,9999,9999,9999,2588500088
3221,5,ISIP_5,22,9999,9999,9999,2588999776
3221,5,ISIP_5,23,9999,9999,9999,2589499472
3221,5,ISIP_5,24,9999,9999,9999,2589999172
3221,5,ISIP_5,25,9999,9999,9999,2590499936
3221,5,ISIP_5,26,9999,9999,9999,2590999608
3221,5,ISIP_5,27,9999,9999,9999,2591499328
3221,5,ISIP_5,28,9999,9999,9999,2592000072
3221,5,ISIP_5,29,9999,9999,9999,2592499764
3221,5,ISIP_5,30,9999,9999,9999,2592999532
3221,5,ISIP_5,31,9999,9999,9999,2593499256
3221,5,ISIP_5,32,9999,9999,9999,2593999952
3221,5,ISIP_5,33,9999,9999,9999,2594499700
3221,5,ISIP_5,34,9999,9999,9999,2594999412
3221,5,ISIP_5,35,9999,9999,9999,2595499076
3221,5,ISIP_5,36,9999,9999,9999,2595999816
3221,5,ISIP_5,37,9999,9999,9999,2596499516
3221,5,ISIP_5,38,9999,9999,9999,2596999288
3221,5,ISIP_5,39,9999,9999,9999,2597499956
3221,5,ISIP_5,40,9999,9999,9999,2597999672
3221,5,ISIP_5,41,9999,9999,9999,2598499444
3221,5,ISIP_5,42,9999,9999,9999,2598999136
3221,5,ISIP_5,43,9999,9999,9999,2599499844
3221,5,ISIP_5,44,9999,9999,9999,2599999568
3221,5,ISIP_5,45,9999,9999,9999,2600499260
3221,5,ISIP_5,46,9999,9999,9999,2600999992
3221,5,ISIP_5,47,9999,9999,9999,2601499756
3221,5,ISIP_5,48,9999,9999,9999,2601999456
3221,5,ISIP_5,49,9999,9999,9999,2602499144
3221,5,ISIP_5,50,9999,9999,9999,2602999884
3221,5,ISIP_5,51,9999,9999,9999,2603499576
3221,5,ISIP_5,52,9999,9999,9999,2603999320
3221,5,ISIP_5,53,9999,9999,9999,2604500032
3221,5,ISIP_5,54,9999,9999,9999,2604999772
3221,5,ISIP_5,55,9999,9999,9999,2605499444
3221,5,ISIP_5,56,9999,9999,9999,2605999164
3221,5,ISIP_5,57,9999,9999,9999,2606499900
3221,5,ISIP_5,58,9999,9999,9999,2606999664
3221,5,ISIP_5,59,9999,9999,9999,2607499356
3221,5,ISIP_5,60,9999,9999,9999,2608000092
3221,5,ISIP_5,61,9999,9999,9999,2608499812
3221,5,ISIP_5,62,9999,9999,9999,2608999504
3221,5,ISIP_5,63,9999,9999,9999,2609499192
3221,5,ISIP_5,64,9999,9999,9999,2609999960
3221,5,ISIP_5,65,9999,9999,9999,2610499648
3221,5,ISIP_5,66,9999,9999,9999,2610999416
3221,5,ISIP_5,67,9999,9999,9999,2611499104
3221,5,ISIP_5,68,9999,9999,9999,2611999840
3221,5,ISIP_5,69,9999,9999,9999,2612499532
3221,5,ISIP_5,70,9999,9999,9999,2612999248
3221,5,ISIP_5,71,9999,9999,9999,2613499988
3221,5,ISIP_5,72,9999,9999,9999,2613999676
3221,5,ISIP_5,73,9999,9999,9999,2614499380
3221,5,ISIP_5,74,9999,9999,9999,2614999148
3221,5,ISIP_5,75,9999,9999,9999,2615499884
3221,5,ISIP_5,76,9999,9999,9999,2615999576
3221,5,ISIP_5,77,9999,9999,9999,2616499268
3221,5,ISIP_5,78,9999,9999,9999,2617000004
3221,5,ISIP_5,79,9999,9999,9999,2617499772
3221,5,ISIP_5,80,9999,9999,9999,2617999460
3221,5,ISIP_5,81,9999,9999,9999,2618499152
3221,5,ISIP_5,82,9999,9999,9999,2618999888
3221,5,ISIP_5,83,9999,9999,9999,2619499580
3221,5,ISIP_5,84,9999,9999,9999,2619999300
3221,5,ISIP_5,85,9999,9999,9999,2620500036
3221,5,ISIP_5,86,9999,9999,9999,2620999800
3221,5,ISIP_5,87,9999,9999,9999,2621499448
3221,5,ISIP_5,88,9999,9999,9999,2621999212
3221,5,ISIP_5,89,9999,9999,9999,2622499904
3221,5,ISIP_5,90,9999,9999,9999,2622999620
3221,5,ISIP_5,91,9999,9999,9999,2623499312
3221,5,ISIP_5,92,9999,9999,9999,2624000052
3221,5,ISIP_5,93,9999,9999,9999,2624499772
3221,5,ISIP_5,94,9999,9999,9999,2624999512
3221,5,ISIP_5,95,9999,9999,9999,2625499204
3221,5,ISIP_5,96,9999,9999,9999,2625999992
3221,5,ISIP_5,97,9999,9999,9999,2626499656
3221,5,ISIP_5,98,9999,9999,9999,2626999348
3221,5,ISIP_5,99,9999,9999,9999,2627499116
3221,5,ISIP_5,100,9999,9999,9999,2627999832
3221,5,ISIP_5,101,9999,9999,9999,2628499552
3221,5,ISIP_5,102,9999,9999,9999,2628999268
3221,5,ISIP_5,103,9999,9999,9999,2629500004
3221,5,ISIP_5,104,9999,9999,9999,2629999724
3221,5,ISIP_5,105,9999,9999,9999,2630499412
3221,5,ISIP_5,106,9999,9999,9999,2630999104
3221,5,ISIP_5,107,9999,9999,9999,2631499844
3221,5,ISIP_5,108,9999,9999,9999,2631999608
3221,5,ISIP_5,109,9999,9999,9999,2632499300
3221,5,ISIP_5,110,9999,9999,9999,2633000036
3221,5,ISIP_5,111,9999,9999,9999,2633499728
3221,5,ISIP_5,112,9999,9999,9999,2633999420
3221,5,ISIP_5,113,9999,9999,9999,2634499184
3221,5,ISIP_5,114,9999,9999,9999,2634999920
3221,5,ISIP_5,115,9999,9999,9999,2635499640
3221,5,ISIP_5,116,9999,9999,9999,2635999332
3221,5,ISIP_5,117,9999,9999,9999,2636500068
3221,5,ISIP_5,118,9999,9999,9999,2636999736
3221,5,ISIP_5,119,9999,9999,9999,2637499504
3221,5,ISIP_5,120,9999,9999,9999,2637999192
3221,5,ISIP_5,121,9999,9999,9999,2638499908
3221,5,ISIP_5,122,9999,9999,9999,2638999600
3221,5,ISIP_5,123,9999,9999,9999,2639499364
3221,5,ISIP_5,124,9999,9999,9999,2640000080
3221,5,ISIP_5,125,9999,9999,9999,2640499824
3221,5,ISIP_5,126,9999,9999,9999,2640999512
3221,5,ISIP_5,127,9999,9999,9999,2641499204
3221,5,ISIP_5,128,9999,9999,9999,2641999944
3221,5,ISIP_5,129,9999,9999,9999,2642499632
3221,5,ISIP_5,130,9999,9999,9999,2642999400
3221,5,ISIP_5,131,9999,9999,9999,2643499116
3221,5,ISIP_5,132,9999,9999,9999,2643999804
3221,5,ISIP_5,133,9999,9999,9999,2644499524
3221,5,ISIP_5,134,9999,9999,9999,2644999288
3221,5,ISIP_5,135,9999,9999,9999,2645499976
3221,5,ISIP_5,136,9999,9999,9999,2645999720
3221,5,ISIP_5,137,9999,9999,9999,2646499408
3221,5,ISIP_5,138,9999,9999,9999,2646999100
3221,5,ISIP_5,139,9999,9999,9999,2647499864
3221,5,ISIP_5,140,9999,9999,9999,2647999604
3221,5,ISIP_5,141,9999,9999,9999,2648499312
3221,5,ISIP_5,142,9999,9999,9999,2649000012
3221,5,ISIP_5,143,9999,9999,9999,2649499748
3221,5,ISIP_5,144,9999,9999,9999,2649999452
3221,5,ISIP_5,145,9999,9999,9999,2650499128
3221,5,ISIP_5,146,9999,9999,9999,2650999900
3221,5,ISIP_5,147,9999,9999,9999,2651499636
3221,5,ISIP_5,148,9999,9999,9999,2651999328
3221,5,ISIP_5,149,9999,9999,9999,2652500068
3221,5,ISIP_5,150,9999,9999,9999,2652999740
3221,5,ISIP_5,151,9999,9999,9999,2653499460
3221,5,ISIP_5,152,9999,9999,9999,2653999180
3221,5,ISIP_5,153,9999,9999,9999,2654499888
3221,5,ISIP_5,154,9999,9999,9999,2654999612
3221,5,ISIP_5,155,9999,9999,9999,2655499380
3221,5,ISIP_5,156,9999,9999,9999,2656000068
3221,5,ISIP_5,157,9999,9999,9999,2656499788
3221,5,ISIP_5,158,9999,9999,9999,2656999480
3221,5,ISIP_5,159,9999,9999,9999,2657499244
3222,11,Pattern_Practice,0,1,48,19,2743424936
3222,11,Pattern_Practice,1,1,48,13,2743425796
3222,11,Pattern_Practice,2,1,48,15,2743426460
3222,11,Pattern_Practice,3,5,42,127,2743927204
3222,11,Pattern_Practice,4,5,42,127,2744426996
3222,11,Pattern_Practice,5,5,42,127,2744926564
3222,11,Pattern_Practice,6,5,42,127,2745427252
3222,11,Pattern_Practice,7,5,42,127,2745926896
3222,11,Pattern_Practice,8,1,48,77,2745928232
3222,11,Pattern_Practice,9,1,48,27,2745991924
3222,11,Pattern_Practice,10,1,48,104,2746407676
3222,11,Pattern_Practice,11,5,42,127,2746426932
3222,11,Pattern_Practice,12,1,48,103,2746918440
3222,11,Pattern_Practice,13,5,42,127,2746926628
3222,11,Pattern_Practice,14,1,48,95,2747414020
3222,11,Pattern_Practice,15,5,42,127,2747427144
3222,11,Pattern_Practice,16,1,48,57,2747439824
3222,11,Pattern_Practice,17,1,48,92,2747923720
3222,11,Pattern_Practice,18,5,42,127,2747926820
3222,11,Pattern_Practice,19,1,48,34,2748135040
3222,11,Pattern_Practice,20,1,48,78,2748293520
3222,11,Pattern_Practice,21,5,42,127,2748426700
3222,11,Pattern_Practice,22,1,48,60,2748461008
3222,11,Pattern_Practice,23,1,48,87,2748611356
3222,11,Pattern_Practice,24,1,38,20,2748620840
3222,11,Pattern_Practice,25,1,48,48,2748641612
3222,11,Pattern_Practice,26,1,48,50,2748773876
3222,11,Pattern_Practice,27,1,48,97,2748915320
3222,11,Pattern_Practice,28,1,38,21,2748925260
3222,11,Pattern_Practice,29,5,42,127,2748927824
3222,11,Pattern_Practice,30,1,48,51,2748949108
3222,11,Pattern_Practice,31,1,48,110,2749390264
3222,11,Pattern_Practice,32,5,42,127,2749427024
3222,11,Pattern_Practice,33,1,48,77,2749897140
3222,11,Pattern_Practice,34,1,38,72,2749905348
3222,11,Pattern_Practice,35,5,42,127,2749926776
3222,11,Pattern_Practice,36,1,48,95,2750394144
3222,11,Pattern_Practice,37,1,38,73,2750398016
3222,11,Pattern_Practice,38,5,42,127,2750426572
3222,11,Pattern_Practice,39,1,48,66,2750874492
3222,11,Pattern_Practice,40,1,38,76,2750883820
3222,11,Pattern_Practice,41,5,42,127,2750927116
3222,11,Pattern_Practice,42,1,38,68,2751381096
3222,11,Pattern_Practice,43,1,38,62,2751399920
3222,11,Pattern_Practice,44,5,42,127,2751426984
3222,11,Pattern_Practice,45,1,38,27,2751464344
3222,11,Pattern_Practice,46,1,48,90,2751889200
3222,11,Pattern_Practice,47,5,42,127,2751926560
3222,11,Pattern_Practice,48,1,38,76,2752370724
3222,11,Pattern_Practice,49,1,38,63,2752390892
3222,11,Pattern_Practice,50,5,42,127,2752427428
3222,11,Pattern_Practice,51,1,48,83,2752881384
3222,11,Pattern_Practice,52,1,48,77,2752910984
3222,11,Pattern_Practice,53,5,42,127,2752927024
3222,11,Pattern_Practice,54,1,38,84,2753357124
3222,11,Pattern_Practice,55,1,48,20,2753404152
3222,11,Pattern_Practice,56,1,38,38,2753416324
3222,11,Pattern_Practice,57,5,42,127,2753426752
3222,11,Pattern_Practice,58,1,48,92,2753894600
3222,11,Pattern_Practice,59,1,38,18,2753920980
3222,11,Pattern_Practice,60,5,42,127,2753926476
3222,11,Pattern_Practice,61,1,48,34,2753975580
3222,11,Pattern_Practice,62,1,48,101,2754405516
3222,11,Pattern_Practice,63,5,42,127,2754427464
3222,11,Pattern_Practice,64,5,42,127,2754927092
3222,11,Pattern_Practice,65,5,42,127,2755426732
3222,11,Pattern_Practice,66,5,42,127,2755927496
3222,11,Pattern_Practice,67,1,48,117,2756165576
3222,11,Pattern_Practice,68,5,42,127,2756427044
3222,11,Pattern_Practice,69,1,48,127,2756659816
3222,11,Pattern_Practice,70,5,42,127,2756926812
3222,11,Pattern_Practice,71,1,48,127,2757156220
3222,11,Pattern_Practice,72,5,42,127,2757426508
3222,11,Pattern_Practice,73,1,48,127,2757671696
3222,11,Pattern_Practice,74,5,42,127,2757927472
3222,11,Pattern_Practice,75,1,48,127,2758149700
3222,11,Pattern_Practice,76,1,48,74,2758172944
3222,11,Pattern_Practice,77,1,38,89,2758415064
3222,11,Pattern_Practice,78,5,42,127,2758426916
3222,11,Pattern_Practice,79,1,38,43,2758457696
3222,11,Pattern_Practice,80,1,48,116,2758671024
3222,11,Pattern_Practice,81,1,38,80,2758907832
3222,11,Pattern_Practice,82,5,42,127,2758926644
3222,11,Pattern_Practice,83,1,48,127,2759099836
3222,11,Pattern_Practice,84,1,38,76,2759374368
3222,11,Pattern_Practice,85,5,42,127,2759426388
3222,11,Pattern_Practice,86,1,48,127,2759604668
3222,11,Pattern_Practice,87,1,38,68,2759913908
3222,11,Pattern_Practice,88,5,42,127,2759927184
3222,11,Pattern_Practice,89,1,48,89,2760155976
3222,11,Pattern_Practice,90,1,38,86,2760408128
3222,11,Pattern_Practice,91,5,42,127,2760426784
3222,11,Pattern_Practice,92,1,38,42,2760456292
3222,11,Pattern_Practice,93,1,48,107,2760660936
3222,11,Pattern_Practice,94,1,38,78,2760902912
3222,11,Pattern_Practice,95,5,42,127,2760926508
3222,11,Pattern_Practice,96,1,48,117,2761147272
3222,11,Pattern_Practice,97,1,48,51,2761186696
3222,11,Pattern_Practice,98,1,38,61,2761362748
3222,11,Pattern_Practice,99,5,42,127,2761427352
3222,11,Pattern_Practice,100,1,48,90,2761640192
3222,11,Pattern_Practice,101,5,42,127,2761927180
3222,11,Pattern_Practice,102,1,48,121,2762189876
3222,11,Pattern_Practice,103,1,38,24,2762199208
3222,11,Pattern_Practice,104,5,42,127,2762426876
3222,11,Pattern_Practice,105,1,48,127,2762694232
3222,11,Pattern_Practice,106,1,48,71,2762718072
3222,11,Pattern_Practice,107,5,42,127,2762926404
3222,11,Pattern_Practice,108,1,48,127,2763199268
3222,11,Pattern_Practice,109,1,38,26,2763209680
3222,11,Pattern_Practice,110,1,48,54,2763232248
3222,11,Pattern_Practice,111,5,42,127,2763427240
3222,11,Pattern_Practice,112,1,48,61,2763709376
3222,11,Pattern_Practice,113,5,42,127,2763927156
3222,11,Pattern_Practice,114,1,48,96,2763947108
3222,11,Pattern_Practice,115,1,48,27,2764038132
3222,11,Pattern_Practice,116,5,42,127,2764426532
3222,11,Pattern_Practice,117,1,48,106,2764432420
3222,11,Pattern_Practice,118,1,48,86,2764448696
3222,11,Pattern_Practice,119,1,48,42,2764496200
3222,11,Pattern_Practice,120,1,38,110,2764913272
3222,11,Pattern_Practice,121,5,42,127,2764927296
3222,11,Pattern_Practice,122,1,38,81,2764932200
3222,11,Pattern_Practice,123,1,38,40,2764988872
3222,11,Pattern_Practice,124,1,48,115,2765422348
3222,11,Pattern_Practice,125,5,42,127,2765427320
3222,11,Pattern_Practice,126,1,38,24,2765432460
3222,11,Pattern_Practice,127,1,48,40,2765478660
3222,11,Pattern_Practice,128,1,48,70,2765669144
3222,11,Pattern_Practice,129,1,48,53,2765709140
3222,11,Pattern_Practice,130,1,48,118,2765903320
3222,11,Pattern_Practice,131,5,42,127,2765926616
3222,11,Pattern_Practice,132,1,48,60,2766146060
3222,11,Pattern_Practice,133,1,48,38,2766194428
3222,11,Pattern_Practice,134,1,48,127,2766376712
3222,11,Pattern_Practice,135,5,42,127,2766426416
3222,11,Pattern_Practice,136,1,38,127,2766873868
3222,11,Pattern_Practice,137,5,42,127,2766927232
3222,11,Pattern_Practice,138,1,38,33,2766940436
3222,11,Pattern_Practice,139,1,48,127,2767383788
3222,11,Pattern_Practice,140,5,42,127,2767426904
3222,11,Pattern_Practice,141,1,38,103,2767638120
3222,11,Pattern_Practice,142,5,42,127,2767926736
3222,11,Pattern_Practice,143,1,38,90,2768151880
3222,11,Pattern_Practice,144,1,48,127,2768377172
3222,11,Pattern_Practice,145,5,42,127,2768427468
3222,11,Pattern_Practice,146,1,38,122,2768635616
3222,11,Pattern_Practice,147,1,48,127,2768886944
3222,11,Pattern_Practice,148,5,42,127,2768926992
3222,11,Pattern_Practice,149,1,48,127,2769377808
3222,11,Pattern_Practice,150,1,38,26,2769387740
3222,11,Pattern_Practice,151,5,42,127,2769426892
3222,11,Pattern_Practice,152,1,48,127,2769887332
3222,11,Pattern_Practice,153,5,42,127,2769926784
3222,11,Pattern_Practice,154,1,48,80,2770363136
3222,11,Pattern_Practice,155,5,42,127,2770427372
3222,11,Pattern_Practice,156,1,48,127,2770861488
3222,11,Pattern_Practice,157,1,48,66,2770899488
3222,11,Pattern_Practice,158,5,42,127,2770926900
3222,11,Pattern_Practice,159,1,48,72,2771129864
3222,11,Pattern_Practice,160,1,48,106,2771373256
3222,11,Pattern_Practice,161,1,38,27,2771382736
3222,11,Pattern_Practice,162,1,48,51,2771406000
3222,11,Pattern_Practice,163,5,42,127,2771426900
3222,11,Pattern_Practice,164,1,48,109,2771626024
3222,11,Pattern_Practice,165,1,48,45,2771685264
3222,11,Pattern_Practice,166,1,48,127,2771857128
3222,11,Pattern_Practice,167,1,48,96,2771872664
3222,11,Pattern_Practice,168,5,42,127,2771927476
3222,11,Pattern_Practice,169,1,38,106,2772371164
3222,11,Pattern_Practice,170,1,38,120,2772395896
3222,11,Pattern_Practice,171,5,42,127,2772427148
3222,11,Pattern_Practice,172,1,48,122,2772869112
3222,11,Pattern_Practice,173,1,38,27,2772878744
3222,11,Pattern_Practice,174,1,48,44,2772916496
3222,11,Pattern_Practice,175,5,42,127,2772926776
3222,11,Pattern_Practice,176,1,48,103,2773156588
3222,11,Pattern_Practice,177,1,48,40,2773204684
3222,11,Pattern_Practice,178,5,42,127,2773426556
3222,11,Pattern_Practice,179,1,38,108,2773900504
3222,11,Pattern_Practice,180,1,48,22,2773910356
3222,11,Pattern_Practice,181,5,42,127,2773927220
3222,11,Pattern_Practice,182,1,38,78,2773933764
3222,11,Pattern_Practice,183,5,42,127,2774427092
3222,11,Pattern_Practice,184,1,48,121,2774734836
3222,11,Pattern_Practice,185,1,38,29,2774744544
3222,11,Pattern_Practice,186,1,48,91,2774753048
3222,11,Pattern_Practice,187,5,42,127,2774926720
3222,11,Pattern_Practice,188,1,38,127,2775402308
3222,11,Pattern_Practice,189,1,48,26,2775412164
3222,11,Pattern_Practice,190,1,38,117,2775421788
3222,11,Pattern_Practice,191,5,42,127,2775426536
3222,11,Pattern_Practice,192,5,42,127,2775927108
3222,11,Pattern_Practice,193,1,48,127,2776102360
3222,11,Pattern_Practice,194,1,38,30,2776111616
3222,11,Pattern_Practice,195,1,48,127,2776129772
3222,11,Pattern_Practice,196,5,42,127,2776426808
3222,11,Pattern_Practice,197,1,38,127,2776856024
3222,11,Pattern_Practice,198,1,48,26,2776865880
3222,11,Pattern_Practice,199,1,38,64,2776883956
3222,11,Pattern_Practice,200,1,38,127,2776890140
3222,11,Pattern_Practice,201,5,42,127,2776926676
3222,11,Pattern_Practice,202,1,48,127,2777384348
3222,11,Pattern_Practice,203,1,38,29,2777393828
3222,11,Pattern_Practice,204,1,48,114,2777399716
3222,11,Pattern_Practice,205,5,42,127,2777427424
3222,11,Pattern_Practice,206,1,38,127,2777855176
3222,11,Pattern_Practice,207,1,48,26,2777865100
3222,11,Pattern_Practice,208,1,38,127,2777877948
3222,11,Pattern_Practice,209,5,42,127,2777926976
3222,11,Pattern_Practice,210,1,38,35,2777939652
3222,11,Pattern_Practice,211,5,42,127,2778426776
3222,11,Pattern_Practice,212,1,48,127,2778608912
3222,11,Pattern_Practice,213,1,38,28,2778618464
3222,11,Pattern_Practice,214,1,48,127,2778626968
3222,11,Pattern_Practice,215,5,42,127,2778926400
3222,11,Pattern_Practice,216,1,38,127,2779378056
3222,11,Pattern_Practice,217,1,38,96,2779410872
3222,11,Pattern_Practice,218,5,42,127,2779427360
3222,11,Pattern_Practice,219,5,42,127,2779926764
3222,11,Pattern_Practice,220,1,48,99,2780118620
3222,11,Pattern_Practice,221,1,38,29,2780128244
3222,11,Pattern_Practice,222,1,48,127,2780133468
3222,11,Pattern_Practice,223,5,42,127,2780426540
3222,11,Pattern_Practice,224,1,38,101,2780880512
3222,11,Pattern_Practice,225,5,42,127,2780927296
3222,11,Pattern_Practice,226,1,38,62,2781145016
3222,11,Pattern_Practice,227,1,38,101,2781367892
3222,11,Pattern_Practice,228,5,42,127,2781427192
3222,11,Pattern_Practice,229,1,38,45,2781618108
3222,11,Pattern_Practice,230,1,48,22,2781625424
3222,11,Pattern_Practice,231,1,48,100,2781862804
3222,11,Pattern_Practice,232,1,38,22,2781872808
3222,11,Pattern_Practice,233,5,42,127,2781926648
3222,11,Pattern_Practice,234,1,48,89,2782369860
3222,11,Pattern_Practice,235,1,48,49,2782413688
3222,11,Pattern_Practice,236,5,42,127,2782426440
3222,11,Pattern_Practice,237,1,48,127,2782895336
3222,11,Pattern_Practice,238,5,42,127,2782927332
3222,11,Pattern_Practice,239,1,48,57,2783120724
3222,11,Pattern_Practice,240,1,48,98,2783366660
3222,11,Pattern_Practice,241,1,38,23,2783376664
3222,11,Pattern_Practice,242,5,42,127,2783427060
3222,11,Pattern_Practice,243,1,48,82,2783624984
3222,11,Pattern_Practice,244,1,38,92,2783870772
3222,11,Pattern_Practice,245,1,48,20,2783880628
3222,11,Pattern_Practice,0,9999,9999,9999,2743924844
3222,11,Pattern_Practice,1,9999,9999,9999,2744424560
3222,11,Pattern_Practice,2,9999,9999,9999,2744924276
3222,11,Pattern_Practice,3,9999,9999,9999,2745424964
3222,11,Pattern_Practice,4,9999,9999,9999,2745924680
3222,11,Pattern_Practice,5,9999,9999,9999,2746424424
3222,11,Pattern_Practice,6,9999,9999,9999,2746924116
3222,11,Pattern_Practice,7,9999,9999,9999,2747424860
3222,11,Pattern_Practice,8,9999,9999,9999,2747924532
3222,11,Pattern_Practice,9,9999,9999,9999,2748424264
3222,11,Pattern_Practice,10,9999,9999,9999,2748924980
3222,11,Pattern_Practice,11,9999,9999,9999,2749424736
3222,11,Pattern_Practice,12,9999,9999,9999,2749924412
3222,11,Pattern_Practice,13,9999,9999,9999,2750424136
3222,11,Pattern_Practice,14,9999,9999,9999,2750924904
3222,11,Pattern_Practice,15,9999,9999,9999,2751424624
3222,11,Pattern_Practice,16,9999,9999,9999,2751924272
3222,11,Pattern_Practice,17,9999,9999,9999,2752425064
3222,11,Pattern_Practice,18,9999,9999,9999,2752924736
3222,11,Pattern_Practice,19,9999,9999,9999,2753424468
3222,11,Pattern_Practice,20,9999,9999,9999,2753924188
3222,11,Pattern_Practice,21,9999,9999,9999,2754424952
3222,11,Pattern_Practice,22,9999,9999,9999,2754924656
3222,11,Pattern_Practice,23,9999,9999,9999,2755424372
3222,11,Pattern_Practice,24,9999,9999,9999,2755925060
3222,11,Pattern_Practice,25,9999,9999,9999,2756424756
3222,11,Pattern_Practice,26,9999,9999,9999,2756924524
3222,11,Pattern_Practice,27,9999,9999,9999,2757424220
3222,11,Pattern_Practice,28,9999,9999,9999,2757924960
3222,11,Pattern_Practice,29,9999,9999,9999,2758424628
3222,11,Pattern_Practice,30,9999,9999,9999,2758924356
3222,11,Pattern_Practice,31,9999,9999,9999,2759424100
3222,11,Pattern_Practice,32,9999,9999,9999,2759924820
3222,11,Pattern_Practice,33,9999,9999,9999,2760424496
3222,11,Pattern_Practice,34,9999,9999,9999,2760924220
3222,11,Pattern_Practice,35,9999,9999,9999,2761424992
3222,11,Pattern_Practice,36,9999,9999,9999,2761924672
3222,11,Pattern_Practice,37,9999,9999,9999,2762424440
3222,11,Pattern_Practice,38,9999,9999,9999,2762924116
3222,11,Pattern_Practice,39,9999,9999,9999,2763424876
3222,11,Pattern_Practice,40,9999,9999,9999,2763924572
3222,11,Pattern_Practice,41,9999,9999,9999,2764424244
3222,11,Pattern_Practice,42,9999,9999,9999,2764925008
3222,11,Pattern_Practice,43,9999,9999,9999,2765424736
3222,11,Pattern_Practice,44,9999,9999,9999,2765924404
3222,11,Pattern_Practice,45,9999,9999,9999,2766424128
3222,11,Pattern_Practice,46,9999,9999,9999,2766924872
3222,11,Pattern_Practice,47,9999,9999,9999,2767424620
3222,11,Pattern_Practice,48,9999,9999,9999,2767924300
3222,11,Pattern_Practice,49,9999,9999,9999,2768425032
3222,11,Pattern_Practice,50,9999,9999,9999,2768924780
3222,11,Pattern_Practice,51,9999,9999,9999,2769424456
3222,11,Pattern_Practice,52,9999,9999,9999,2769924196
3222,11,Pattern_Practice,53,9999,9999,9999,2770424936
3222,11,Pattern_Practice,54,9999,9999,9999,2770924612
3222,11,Pattern_Practice,55,9999,9999,9999,2771424316
3222,11,Pattern_Practice,56,9999,9999,9999,2771925040
3222,11,Pattern_Practice,57,9999,9999,9999,2772424788
3222,11,Pattern_Practice,58,9999,9999,9999,2772924488
3222,11,Pattern_Practice,59,9999,9999,9999,2773424192
3222,11,Pattern_Practice,60,9999,9999,9999,2773924932
3222,11,Pattern_Practice,61,9999,9999,9999,2774424656
3222,11,Pattern_Practice,62,9999,9999,9999,2774924356
3222,11,Pattern_Practice,63,9999,9999,9999,2775424100
3222,11,Pattern_Practice,64,9999,9999,9999,2775924820
3222,11,Pattern_Practice,65,9999,9999,9999,2776424520
3222,11,Pattern_Practice,66,9999,9999,9999,2776924240
3222,11,Pattern_Practice,67,9999,9999,9999,2777424988
3222,11,Pattern_Practice,68,9999,9999,9999,2777924688
3222,11,Pattern_Practice,69,9999,9999,9999,2778424412
3222,11,Pattern_Practice,70,9999,9999,9999,2778924112
3222,11,Pattern_Practice,71,9999,9999,9999,2779424848
3222,11,Pattern_Practice,72,9999,9999,9999,2779924548
3222,11,Pattern_Practice,73,9999,9999,9999,2780424252
3222,11,Pattern_Practice,74,9999,9999,9999,2780925008
3222,11,Pattern_Practice,75,9999,9999,9999,2781424756
3222,11,Pattern_Practice,76,9999,9999,9999,2781924432
3222,11,Pattern_Practice,77,9999,9999,9999,2782424152
3222,11,Pattern_Practice,78,9999,9999,9999,2782924896
3222,11,Pattern_Practice,79,9999,9999,9999,2783424624
3223,13,Improv_Metronome,0,5,42,127,2829163736
3223,13,Improv_Metronome,1,5,42,127,2829663604
3223,13,Improv_Metronome,2,5,42,127,2830164292
3223,13,Improv_Metronome,3,5,42,127,2830664156
3223,13,Improv_Metronome,4,5,42,127,2831163872
3223,13,Improv_Metronome,5,1,48,68,2831166392
3223,13,Improv_Metronome,6,5,42,127,2831663420
3223,13,Improv_Metronome,7,1,48,69,2831918260
3223,13,Improv_Metronome,8,5,42,127,2832164236
3223,13,Improv_Metronome,9,1,38,74,2832171768
3223,13,Improv_Metronome,10,1,48,108,2832632852
3223,13,Improv_Metronome,11,5,42,127,2832664000
3223,13,Improv_Metronome,12,1,38,11,2832683128
3223,13,Improv_Metronome,13,5,42,127,2833163520
3223,13,Improv_Metronome,14,1,48,119,2833371684
3223,13,Improv_Metronome,15,1,48,127,2833601088
3223,13,Improv_Metronome,16,5,42,127,2833664328
3223,13,Improv_Metronome,17,1,38,65,2834112828
3223,13,Improv_Metronome,18,1,48,23,2834125296
3223,13,Improv_Metronome,19,5,42,127,2834164076
3223,13,Improv_Metronome,20,1,38,35,2834166072
3223,13,Improv_Metronome,21,5,42,127,2834663952
3223,13,Improv_Metronome,22,1,48,105,2835132060
3223,13,Improv_Metronome,23,5,42,127,2835163512
3223,13,Improv_Metronome,24,5,42,127,2835664184
3223,13,Improv_Metronome,25,1,48,127,2835883544
3223,13,Improv_Metronome,26,1,38,26,2835895264
3223,13,Improv_Metronome,27,1,38,87,2836106092
3223,13,Improv_Metronome,28,1,48,19,2836119092
3223,13,Improv_Metronome,29,5,42,127,2836163880
3223,13,Improv_Metronome,30,1,48,127,2836599912
3223,13,Improv_Metronome,31,1,38,26,2836609836
3223,13,Improv_Metronome,32,1,48,57,2836632704
3223,13,Improv_Metronome,33,5,42,127,2836663924
3223,13,Improv_Metronome,34,5,42,127,2837164276
3223,13,Improv_Metronome,35,1,48,127,2837425844
3223,13,Improv_Metronome,36,1,48,127,2837647024
3223,13,Improv_Metronome,37,5,42,127,2837663964
3223,13,Improv_Metronome,38,1,48,83,2837666936
3223,13,Improv_Metronome,39,1,38,127,2838116180
3223,13,Improv_Metronome,40,5,42,127,2838163860
3223,13,Improv_Metronome,41,1,38,111,2838588580
3223,13,Improv_Metronome,42,1,48,22,2838598352
3223,13,Improv_Metronome,43,5,42,127,2838663612
3223,13,Improv_Metronome,44,1,48,127,2839097872
3223,13,Improv_Metronome,45,5,42,127,2839164252
3223,13,Improv_Metronome,46,5,42,127,2839663880
3223,13,Improv_Metronome,47,1,48,116,2839869580
3223,13,Improv_Metronome,48,1,38,25,2839880780
3223,13,Improv_Metronome,49,1,38,122,2840118228
3223,13,Improv_Metronome,50,1,48,23,2840127864
3223,13,Improv_Metronome,51,1,38,57,2840160604
3223,13,Improv_Metronome,52,5,42,127,2840163776
3223,13,Improv_Metronome,53,1,48,127,2840616672
3223,13,Improv_Metronome,54,1,48,60,2840652704
3223,13,Improv_Metronome,55,5,42,127,2840664556
3223,13,Improv_Metronome,56,5,42,127,2841164036
3223,13,Improv_Metronome,57,1,48,127,2841366964
3223,13,Improv_Metronome,58,1,48,59,2841399704
3223,13,Improv_Metronome,59,1,48,127,2841618864
3223,13,Improv_Metronome,60,5,42,127,2841663776
3223,13,Improv_Metronome,61,1,38,126,2842112872
3223,13,Improv_Metronome,62,1,48,26,2842124524
3223,13,Improv_Metronome,63,5,42,127,2842163672
3223,13,Improv_Metronome,64,5,42,127,2842664396
3223,13,Improv_Metronome,65,5,42,127,2843164108
3223,13,Improv_Metronome,66,1,48,127,2843169768
3223,13,Improv_Metronome,67,1,38,27,2843180000
3223,13,Improv_Metronome,68,5,42,127,2843663608
3223,13,Improv_Metronome,69,1,48,127,2843931688
3223,13,Improv_Metronome,70,5,42,127,2844163600
3223,13,Improv_Metronome,71,1,38,127,2844184672
3223,13,Improv_Metronome,72,1,38,48,2844221528
3223,13,Improv_Metronome,73,1,48,127,2844649920
3223,13,Improv_Metronome,74,5,42,127,2844664536
3223,13,Improv_Metronome,75,5,42,127,2845163940
3223,13,Improv_Metronome,76,1,48,127,2845380260
3223,13,Improv_Metronome,77,1,38,28,2845390264
3223,13,Improv_Metronome,78,1,48,127,2845629668
3223,13,Improv_Metronome,79,1,48,68,2845656124
3223,13,Improv_Metronome,80,5,42,127,2845663560
3223,13,Improv_Metronome,81,1,38,127,2846089896
3223,13,Improv_Metronome,82,1,48,26,2846099752
3223,13,Improv_Metronome,83,5,42,127,2846164580
3223,13,Improv_Metronome,84,1,48,127,2846597396
3223,13,Improv_Metronome,85,5,42,127,2846664024
3223,13,Improv_Metronome,86,1,48,127,2847084296
3223,13,Improv_Metronome,87,1,48,79,2847110460
3223,13,Improv_Metronome,88,5,42,127,2847163844
3223,13,Improv_Metronome,89,5,42,127,2847663448
3223,13,Improv_Metronome,90,1,48,127,2847910580
3223,13,Improv_Metronome,91,5,42,127,2848164484
3223,13,Improv_Metronome,92,1,48,127,2848650404
3223,13,Improv_Metronome,93,5,42,127,2848663972
3223,13,Improv_Metronome,94,5,42,127,2849163600
3223,13,Improv_Metronome,95,1,48,127,2849386196
3223,13,Improv_Metronome,96,5,42,127,2849664340
3223,13,Improv_Metronome,97,1,48,127,2850128264
3223,13,Improv_Metronome,98,1,38,30,2850138344
3223,13,Improv_Metronome,99,5,42,127,2850164032
3223,13,Improv_Metronome,100,1,38,127,2850601520
3223,13,Improv_Metronome,101,1,38,95,2850626632
3223,13,Improv_Metronome,102,5,42,127,2850663768
3223,13,Improv_Metronome,103,1,48,127,2851090504
3223,13,Improv_Metronome,104,5,42,127,2851163388
3223,13,Improv_Metronome,105,5,42,127,2851664212
3223,13,Improv_Metronome,106,1,48,127,2851910520
3223,13,Improv_Metronome,107,5,42,127,2852164204
3223,13,Improv_Metronome,108,1,48,127,2852653408
3223,13,Improv_Metronome,109,5,42,127,2852663616
3223,13,Improv_Metronome,110,5,42,127,2853164364
3223,13,Improv_Metronome,111,1,48,127,2853339320
3223,13,Improv_Metronome,112,1,48,125,2853614424
3223,13,Improv_Metronome,113,1,38,26,2853624356
3223,13,Improv_Metronome,114,5,42,127,2853663956
3223,13,Improv_Metronome,115,1,48,127,2854087444
3223,13,Improv_Metronome,116,5,42,127,2854163776
3223,13,Improv_Metronome,117,1,38,127,2854572900
3223,13,Improv_Metronome,118,5,42,127,2854663468
3223,13,Improv_Metronome,119,1,48,127,2855079556
3223,13,Improv_Metronome,120,5,42,127,2855164212
3223,13,Improv_Metronome,121,5,42,127,2855664136
3223,13,Improv_Metronome,122,1,48,127,2855913520
3223,13,Improv_Metronome,123,1,38,27,2855923368
3223,13,Improv_Metronome,124,5,42,127,2856163784
3223,13,Improv_Metronome,125,1,48,127,2856660172
3223,13,Improv_Metronome,126,5,42,127,2856664540
3223,13,Improv_Metronome,127,1,48,68,2856687612
3223,13,Improv_Metronome,128,5,42,127,2857164220
3223,13,Improv_Metronome,129,1,48,127,2857363908
3223,13,Improv_Metronome,130,1,38,31,2857373988
3223,13,Improv_Metronome,131,1,48,127,2857636424
3223,13,Improv_Metronome,132,1,38,26,2857646952
3223,13,Improv_Metronome,133,1,48,72,2857660872
3223,13,Improv_Metronome,134,5,42,127,2857663896
3223,13,Improv_Metronome,135,1,48,43,2857693480
3223,13,Improv_Metronome,136,1,48,127,2858135428
3223,13,Improv_Metronome,137,5,42,127,2858163592
3223,13,Improv_Metronome,138,1,48,65,2858170236
3223,13,Improv_Metronome,139,1,38,119,2858635704
3223,13,Improv_Metronome,140,5,42,127,2858664164
3223,13,Improv_Metronome,141,1,38,42,2858702224
3223,13,Improv_Metronome,142,1,48,127,2859124528
3223,13,Improv_Metronome,143,1,48,76,2859151212
3223,13,Improv_Metronome,144,5,42,127,2859164184
3223,13,Improv_Metronome,145,5,42,127,2859663812
3223,13,Improv_Metronome,146,1,48,127,2859891800
3223,13,Improv_Metronome,147,1,38,29,2859902028
3223,13,Improv_Metronome,148,1,48,68,2859915168
3223,13,Improv_Metronome,149,5,42,127,2860163364
3223,13,Improv_Metronome,150,1,48,127,2860651296
3223,13,Improv_Metronome,151,5,42,127,2860664048
3223,13,Improv_Metronome,152,5,42,127,2861163824
3223,13,Improv_Metronome,153,1,48,127,2861368096
3223,13,Improv_Metronome,154,1,48,61,2861401144
3223,13,Improv_Metronome,155,1,48,127,2861640796
3223,13,Improv_Metronome,156,1,38,23,2861651320
3223,13,Improv_Metronome,157,5,42,127,2861663844
3223,13,Improv_Metronome,158,1,48,127,2862128548
3223,13,Improv_Metronome,159,5,42,127,2862164260
3223,13,Improv_Metronome,160,1,38,120,2862622784
3223,13,Improv_Metronome,161,1,38,116,2862643556
3223,13,Improv_Metronome,162,5,42,127,2862664084
3223,13,Improv_Metronome,163,1,38,49,2862698604
3223,13,Improv_Metronome,164,1,38,127,2863125272
3223,13,Improv_Metronome,165,1,48,24,2863135128
3223,13,Improv_Metronome,166,1,38,62,2863157472
3223,13,Improv_Metronome,167,5,42,127,2863163864
3223,13,Improv_Metronome,168,1,38,127,2863631860
3223,13,Improv_Metronome,169,1,38,93,2863648144
3223,13,Improv_Metronome,170,5,42,127,2863663584
3223,13,Improv_Metronome,171,1,38,127,2864158008
3223,13,Improv_Metronome,172,5,42,127,2864164104
3223,13,Improv_Metronome,173,1,38,104,2864174832
3223,13,Improv_Metronome,174,5,42,127,2864663856
3223,13,Improv_Metronome,175,1,38,127,2864673556
3223,13,Improv_Metronome,176,5,42,127,2865163776
3223,13,Improv_Metronome,177,1,38,127,2865177668
3223,13,Improv_Metronome,178,1,48,25,2865187220
3223,13,Improv_Metronome,179,1,38,78,2865194232
3223,13,Improv_Metronome,180,5,42,127,2865664296
3223,13,Improv_Metronome,181,1,38,127,2865665264
3223,13,Improv_Metronome,182,5,42,127,2866164068
3223,13,Improv_Metronome,183,1,38,127,2866169728
3223,13,Improv_Metronome,184,1,38,98,2866185788
3223,13,Improv_Metronome,185,1,38,82,2866416992
3223,13,Improv_Metronome,186,1,38,42,2866464240
3223,13,Improv_Metronome,187,1,38,127,2866656996
3223,13,Improv_Metronome,188,5,42,127,2866663912
3223,13,Improv_Metronome,189,1,38,114,2866919036
3223,13,Improv_Metronome,190,1,38,56,2866961504
3223,13,Improv_Metronome,191,5,42,127,2867163348
3223,13,Improv_Metronome,192,1,48,127,2867175444
3223,13,Improv_Metronome,193,5,42,127,2867664164
3223,13,Improv_Metronome,194,1,48,127,2867895568
3223,13,Improv_Metronome,195,5,42,127,2868163832
3223,13,Improv_Metronome,196,1,48,127,2868605216
3223,13,Improv_Metronome,197,5,42,127,2868663592
3223,13,Improv_Metronome,198,5,42,127,2869164316
3223,13,Improv_Metronome,199,1,48,127,2869288556
3223,13,Improv_Metronome,200,1,48,127,2869594928
3223,13,Improv_Metronome,201,1,38,29,2869605084
3223,13,Improv_Metronome,202,5,42,127,2869664060
3223,13,Improv_Metronome,203,1,38,114,2870070428
3223,13,Improv_Metronome,204,1,38,90,2870088652
3223,13,Improv_Metronome,205,5,42,127,2870163788
3223,13,Improv_Metronome,206,1,38,22,2870179084
3223,13,Improv_Metronome,207,1,48,119,2870525348
3223,13,Improv_Metronome,208,1,48,80,2870541932
3223,13,Improv_Metronome,209,5,42,127,2870663496
3223,13,Improv_Metronome,210,1,48,127,2871052172
3223,13,Improv_Metronome,211,1,48,54,2871088576
3223,13,Improv_Metronome,212,5,42,127,2871164304
3223,13,Improv_Metronome,213,5,42,127,2871664080
3223,13,Improv_Metronome,214,1,48,127,2871928716
3223,13,Improv_Metronome,215,1,38,30,2871938868
3223,13,Improv_Metronome,216,1,48,83,2871947896
3223,13,Improv_Metronome,217,5,42,127,2872163632
3223,13,Improv_Metronome,218,1,48,127,2872628000
3223,13,Improv_Metronome,219,1,38,29,2872637932
3223,13,Improv_Metronome,220,5,42,127,2872664368
3223,13,Improv_Metronome,221,5,42,127,2873164340
3223,13,Improv_Metronome,222,1,48,127,2873319776
3223,13,Improv_Metronome,223,1,48,127,2873587548
3223,13,Improv_Metronome,224,1,48,91,2873612960
3223,13,Improv_Metronome,225,5,42,127,2873663784
3223,13,Improv_Metronome,226,1,38,127,2874051100
3223,13,Improv_Metronome,227,1,38,50,2874091168
3223,13,Improv_Metronome,228,5,42,127,2874163456
3223,13,Improv_Metronome,229,1,38,125,2874541176
3223,13,Improv_Metronome,230,5,42,127,2874664256
3223,13,Improv_Metronome,231,1,38,124,2875066696
3223,13,Improv_Metronome,232,1,48,24,2875076624
3223,13,Improv_Metronome,233,1,38,81,2875089392
3223,13,Improv_Metronome,234,5,42,127,2875164148
3223,13,Improv_Metronome,235,5,42,127,2875663600
3223,13,Improv_Metronome,236,1,38,127,2875858376
3223,13,Improv_Metronome,237,1,48,25,2875868232
3223,13,Improv_Metronome,238,1,38,81,2875883168
3223,13,Improv_Metronome,239,5,42,127,2876163376
3223,13,Improv_Metronome,240,1,38,125,2876619820
3223,13,Improv_Metronome,241,1,48,23,2876629748
3223,13,Improv_Metronome,242,1,38,85,2876645056
3223,13,Improv_Metronome,243,5,42,127,2876664164
3223,13,Improv_Metronome,244,5,42,127,2877164288
3223,13,Improv_Metronome,245,1,38,127,2877327552
3223,13,Improv_Metronome,246,1,38,64,2877354008
3223,13,Improv_Metronome,247,5,42,127,2877663736
3223,13,Improv_Metronome,248,1,48,127,2878116560
3223,13,Improv_Metronome,249,5,42,127,2878164268
3223,13,Improv_Metronome,250,1,38,119,2878578712
3223,13,Improv_Metronome,251,1,48,23,2878588636
3223,13,Improv_Metronome,252,5,42,127,2878664020
3223,13,Improv_Metronome,253,1,38,127,2879057192
3223,13,Improv_Metronome,254,1,48,25,2879067196
3223,13,Improv_Metronome,255,5,42,127,2879163996
3223,13,Improv_Metronome,256,5,42,127,2879663392
3223,13,Improv_Metronome,257,1,48,127,2879844176
3223,13,Improv_Metronome,258,1,38,27,2879854328
3223,13,Improv_Metronome,259,5,42,127,2880164160
3223,13,Improv_Metronome,260,1,38,127,2880596812
3223,13,Improv_Metronome,261,5,42,127,2880664016
3223,13,Improv_Metronome,262,1,38,127,2880841128
3223,13,Improv_Metronome,263,1,48,120,2881075620
3223,13,Improv_Metronome,264,1,38,25,2881085476
3223,13,Improv_Metronome,265,1,48,64,2881098768
3223,13,Improv_Metronome,266,5,42,127,2881163872
3223,13,Improv_Metronome,267,1,38,127,2881316716
3223,13,Improv_Metronome,268,1,38,56,2881350208
3223,13,Improv_Metronome,269,1,48,117,2881552308
3223,13,Improv_Metronome,270,1,38,24,2881562240
3223,13,Improv_Metronome,271,5,42,127,2881664256
3223,13,Improv_Metronome,272,1,48,127,2881828888
3223,13,Improv_Metronome,273,1,48,127,2882088736
3223,13,Improv_Metronome,274,5,42,127,2882163944
3223,13,Improv_Metronome,275,1,48,127,2882565172
3223,13,Improv_Metronome,276,5,42,127,2882663924
3223,13,Improv_Metronome,277,1,48,127,2883088952
3223,13,Improv_Metronome,278,1,38,118,2883102996
3223,13,Improv_Metronome,279,5,42,127,2883163536
3223,13,Improv_Metronome,280,5,42,127,2883664108
3223,13,Improv_Metronome,281,1,48,127,2883877584
3223,13,Improv_Metronome,282,5,42,127,2884164028
3223,13,Improv_Metronome,283,1,48,123,2884646572
3223,13,Improv_Metronome,284,1,38,25,2884656432
3223,13,Improv_Metronome,285,5,42,127,2884663792
3223,13,Improv_Metronome,286,5,42,127,2885164292
3223,13,Improv_Metronome,287,1,48,127,2885339620
3223,13,Improv_Metronome,288,1,48,127,2885625720
3223,13,Improv_Metronome,289,1,38,23,2885636176
3223,13,Improv_Metronome,290,5,42,127,2885663960
3223,13,Improv_Metronome,291,1,48,127,2886115796
3223,13,Improv_Metronome,292,5,42,127,2886163704
3223,13,Improv_Metronome,293,1,38,127,2886609284
3223,13,Improv_Metronome,294,5,42,127,2886663696
3223,13,Improv_Metronome,295,1,48,127,2887094692
3223,13,Improv_Metronome,296,5,42,127,2887164288
3223,13,Improv_Metronome,297,5,42,127,2887663916
3223,13,Improv_Metronome,298,1,48,127,2887866476
3223,13,Improv_Metronome,299,1,48,54,2887900784
3223,13,Improv_Metronome,300,5,42,127,2888163588
3223,13,Improv_Metronome,301,1,48,127,2888619560
3223,13,Improv_Metronome,302,5,42,127,2888664644
3223,13,Improv_Metronome,303,5,42,127,2889164048
3223,13,Improv_Metronome,304,1,48,127,2889359476
3223,13,Improv_Metronome,305,1,48,127,2889617676
3223,13,Improv_Metronome,306,1,38,26,2889627600
3223,13,Improv_Metronome,307,1,48,74,2889642988
3223,13,Improv_Metronome,308,5,42,127,2889663768
3223,13,Improv_Metronome,309,1,48,127,2890109224
3223,13,Improv_Metronome,310,1,48,96,2890128120
3223,13,Improv_Metronome,311,5,42,127,2890163612
3223,13,Improv_Metronome,312,1,38,127,2890623108
3223,13,Improv_Metronome,313,1,38,107,2890643580
3223,13,Improv_Metronome,314,5,42,127,2890664332
3223,13,Improv_Metronome,315,1,48,127,2891116720
3223,13,Improv_Metronome,316,1,38,26,2891127320
3223,13,Improv_Metronome,317,5,42,127,2891164004
3223,13,Improv_Metronome,318,5,42,127,2891663680
3223,13,Improv_Metronome,319,1,48,127,2891916120
3223,13,Improv_Metronome,320,5,42,127,2892163300
3223,13,Improv_Metronome,321,1,48,127,2892640540
3223,13,Improv_Metronome,322,5,42,127,2892664280
3223,13,Improv_Metronome,323,5,42,127,2893163760
3223,13,Improv_Metronome,324,1,48,127,2893379324
3223,13,Improv_Metronome,325,1,48,127,2893640152
3223,13,Improv_Metronome,326,5,42,127,2893663520
3223,13,Improv_Metronome,327,1,48,127,2894114412
3223,13,Improv_Metronome,328,5,42,127,2894164264
3223,13,Improv_Metronome,329,1,38,127,2894609244
3223,13,Improv_Metronome,330,1,38,89,2894627028
3223,13,Improv_Metronome,331,5,42,127,2894664308
3223,13,Improv_Metronome,332,1,38,40,2894683868
3223,13,Improv_Metronome,333,1,48,127,2895112784
3223,13,Improv_Metronome,334,1,48,65,2895143508
3223,13,Improv_Metronome,335,5,42,127,2895163812
3223,13,Improv_Metronome,336,1,48,127,2895382132
3223,13,Improv_Metronome,337,1,38,127,2895637724
3223,13,Improv_Metronome,338,5,42,127,2895663336
3223,13,Improv_Metronome,339,1,48,127,2895873280
3223,13,Improv_Metronome,340,5,42,127,2896164284
3223,13,Improv_Metronome,341,1,48,127,2896406404
3223,13,Improv_Metronome,342,1,38,127,2896664276
3223,13,Improv_Metronome,343,5,42,127,2896666364
3223,13,Improv_Metronome,344,5,42,127,2897163604
3223,13,Improv_Metronome,345,1,48,127,2897184000
3223,13,Improv_Metronome,346,1,48,73,2897216288
3223,13,Improv_Metronome,347,1,48,120,2897418844
3223,13,Improv_Metronome,348,1,38,25,2897428848
3223,13,Improv_Metronome,349,5,42,127,2897664328
3223,13,Improv_Metronome,350,1,38,127,2897666192
3223,13,Improv_Metronome,351,1,48,127,2897880996
3223,13,Improv_Metronome,352,5,42,127,2898164224
3223,13,Improv_Metronome,353,1,48,127,2898407916
3223,13,Improv_Metronome,354,1,38,28,2898418368
3223,13,Improv_Metronome,355,1,48,99,2898427028
3223,13,Improv_Metronome,356,1,38,119,2898625512
3223,13,Improv_Metronome,357,5,42,127,2898663848
3223,13,Improv_Metronome,358,1,48,127,2899145108
3223,13,Improv_Metronome,359,1,38,28,2899155184
3223,13,Improv_Metronome,0,9999,9999,9999,2829161524
3223,13,Improv_Metronome,1,9999,9999,9999,2829661240
3223,13,Improv_Metronome,2,9999,9999,9999,2830162004
3223,13,Improv_Metronome,3,9999,9999,9999,2830661724
3223,13,Improv_Metronome,4,9999,9999,9999,2831161440
3223,13,Improv_Metronome,5,9999,9999,9999,2831661132
3223,13,Improv_Metronome,6,9999,9999,9999,2832161876
3223,13,Improv_Metronome,7,9999,9999,9999,2832661564
3223,13,Improv_Metronome,8,9999,9999,9999,2833161308
3223,13,Improv_Metronome,9,9999,9999,9999,2833662040
3223,13,Improv_Metronome,10,9999,9999,9999,2834161716
3223,13,Improv_Metronome,11,9999,9999,9999,2834661440
3223,13,Improv_Metronome,12,9999,9999,9999,2835161152
3223,13,Improv_Metronome,13,9999,9999,9999,2835661900
3223,13,Improv_Metronome,14,9999,9999,9999,2836161592
3223,13,Improv_Metronome,15,9999,9999,9999,2836661344
3223,13,Improv_Metronome,16,9999,9999,9999,2837162064
3223,13,Improv_Metronome,17,9999,9999,9999,2837661752
3223,13,Improv_Metronome,18,9999,9999,9999,2838161500
3223,13,Improv_Metronome,19,9999,9999,9999,2838661180
3223,13,Improv_Metronome,20,9999,9999,9999,2839161964
3223,13,Improv_Metronome,21,9999,9999,9999,2839661668
3223,13,Improv_Metronome,22,9999,9999,9999,2840161344
3223,13,Improv_Metronome,23,9999,9999,9999,2840662120
3223,13,Improv_Metronome,24,9999,9999,9999,2841161824
3223,13,Improv_Metronome,25,9999,9999,9999,2841661488
3223,13,Improv_Metronome,26,9999,9999,9999,2842161240
3223,13,Improv_Metronome,27,9999,9999,9999,2842661960
3223,13,Improv_Metronome,28,9999,9999,9999,2843161676
3223,13,Improv_Metronome,29,9999,9999,9999,2843661396
3223,13,Improv_Metronome,30,9999,9999,9999,2844161092
3223,13,Improv_Metronome,31,9999,9999,9999,2844661880
3223,13,Improv_Metronome,32,9999,9999,9999,2845161580
3223,13,Improv_Metronome,33,9999,9999,9999,2845661276
3223,13,Improv_Metronome,34,9999,9999,9999,2846161996
3223,13,Improv_Metronome,35,9999,9999,9999,2846661736
3223,13,Improv_Metronome,36,9999,9999,9999,2847161412
3223,13,Improv_Metronome,37,9999,9999,9999,2847661160
3223,13,Improv_Metronome,38,9999,9999,9999,2848161900
3223,13,Improv_Metronome,39,9999,9999,9999,2848661612
3223,13,Improv_Metronome,40,9999,9999,9999,2849161312
3223,13,Improv_Metronome,41,9999,9999,9999,2849662056
3223,13,Improv_Metronome,42,9999,9999,9999,2850161748
3223,13,Improv_Metronome,43,9999,9999,9999,2850661480
3223,13,Improv_Metronome,44,9999,9999,9999,2851161176
3223,13,Improv_Metronome,45,9999,9999,9999,2851661924
3223,13,Improv_Metronome,46,9999,9999,9999,2852161616
3223,13,Improv_Metronome,47,9999,9999,9999,2852661328
3223,13,Improv_Metronome,48,9999,9999,9999,2853162076
3223,13,Improv_Metronome,49,9999,9999,9999,2853661744
3223,13,Improv_Metronome,50,9999,9999,9999,2854161488
3223,13,Improv_Metronome,51,9999,9999,9999,2854661184
3223,13,Improv_Metronome,52,9999,9999,9999,2855161924
3223,13,Improv_Metronome,53,9999,9999,9999,2855661628
3223,13,Improv_Metronome,54,9999,9999,9999,2856161348
3223,13,Improv_Metronome,55,9999,9999,9999,2856662108
3223,13,Improv_Metronome,56,9999,9999,9999,2857161788
3223,13,Improv_Metronome,57,9999,9999,9999,2857661536
3223,13,Improv_Metronome,58,9999,9999,9999,2858161228
3223,13,Improv_Metronome,59,9999,9999,9999,2858661952
3223,13,Improv_Metronome,60,9999,9999,9999,2859161676
3223,13,Improv_Metronome,61,9999,9999,9999,2859661376
3223,13,Improv_Metronome,62,9999,9999,9999,2860161076
3223,13,Improv_Metronome,63,9999,9999,9999,2860661836
3223,13,Improv_Metronome,64,9999,9999,9999,2861161536
3223,13,Improv_Metronome,65,9999,9999,9999,2861661260
3223,13,Improv_Metronome,66,9999,9999,9999,2862161972
3223,13,Improv_Metronome,67,9999,9999,9999,2862661724
3223,13,Improv_Metronome,68,9999,9999,9999,2863161428
3223,13,Improv_Metronome,69,9999,9999,9999,2863661152
3223,13,Improv_Metronome,70,9999,9999,9999,2864161892
3223,13,Improv_Metronome,71,9999,9999,9999,2864661568
3223,13,Improv_Metronome,72,9999,9999,9999,2865161264
3223,13,Improv_Metronome,73,9999,9999,9999,2865662012
3223,13,Improv_Metronome,74,9999,9999,9999,2866161780
3223,13,Improv_Metronome,75,9999,9999,9999,2866661480
3223,13,Improv_Metronome,76,9999,9999,9999,2867161136
3223,13,Improv_Metronome,77,9999,9999,9999,2867661876
3223,13,Improv_Metronome,78,9999,9999,9999,2868161620
3223,13,Improv_Metronome,79,9999,9999,9999,2868661308
3223,13,Improv_Metronome,80,9999,9999,9999,2869162104
3223,13,Improv_Metronome,81,9999,9999,9999,2869661772
3223,13,Improv_Metronome,82,9999,9999,9999,2870161500
3223,13,Improv_Metronome,83,9999,9999,9999,2870661212
3223,13,Improv_Metronome,84,9999,9999,9999,2871161944
3223,13,Improv_Metronome,85,9999,9999,9999,2871661644
3223,13,Improv_Metronome,86,9999,9999,9999,2872161344
3223,13,Improv_Metronome,87,9999,9999,9999,2872662084
3223,13,Improv_Metronome,88,9999,9999,9999,2873161832
3223,13,Improv_Metronome,89,9999,9999,9999,2873661496
3223,13,Improv_Metronome,90,9999,9999,9999,2874161244
3223,13,Improv_Metronome,91,9999,9999,9999,2874661972
3223,13,Improv_Metronome,92,9999,9999,9999,2875161712
3223,13,Improv_Metronome,93,9999,9999,9999,2875661388
3223,13,Improv_Metronome,94,9999,9999,9999,2876161088
3223,13,Improv_Metronome,95,9999,9999,9999,2876661880
3223,13,Improv_Metronome,96,9999,9999,9999,2877161556
3223,13,Improv_Metronome,97,9999,9999,9999,2877661300
3223,13,Improv_Metronome,98,9999,9999,9999,2878161984
3223,13,Improv_Metronome,99,9999,9999,9999,2878661732
3223,13,Improv_Metronome,100,9999,9999,9999,2879161412
3223,13,Improv_Metronome,101,9999,9999,9999,2879661104
3223,13,Improv_Metronome,102,9999,9999,9999,2880161872
3223,13,Improv_Metronome,103,9999,9999,9999,2880661584
3223,13,Improv_Metronome,104,9999,9999,9999,2881161288
3223,13,Improv_Metronome,105,9999,9999,9999,2881662044
3223,13,Improv_Metronome,106,9999,9999,9999,2882161732
3223,13,Improv_Metronome,107,9999,9999,9999,2882661488
3223,13,Improv_Metronome,108,9999,9999,9999,2883161176
3223,13,Improv_Metronome,109,9999,9999,9999,2883661896
3223,13,Improv_Metronome,110,9999,9999,9999,2884161592
3223,13,Improv_Metronome,111,9999,9999,9999,2884661360
3223,13,Improv_Metronome,112,9999,9999,9999,2885162080
3223,13,Improv_Metronome,113,9999,9999,9999,2885661748
3223,13,Improv_Metronome,114,9999,9999,9999,2886161492
3223,13,Improv_Metronome,115,9999,9999,9999,2886661188
3223,13,Improv_Metronome,116,9999,9999,9999,2887161928
3223,13,Improv_Metronome,117,9999,9999,9999,2887661632
3223,13,Improv_Metronome,118,9999,9999,9999,2888161376
3223,13,Improv_Metronome,119,9999,9999,9999,2888662136
3223,13,Improv_Metronome,120,9999,9999,9999,2889161836
3223,13,Improv_Metronome,121,9999,9999,9999,2889661556
3223,13,Improv_Metronome,122,9999,9999,9999,2890161252
3223,13,Improv_Metronome,123,9999,9999,9999,2890661972
3223,13,Improv_Metronome,124,9999,9999,9999,2891161720
3223,13,Improv_Metronome,125,9999,9999,9999,2891661392
3223,13,Improv_Metronome,126,9999,9999,9999,2892161088
3223,13,Improv_Metronome,127,9999,9999,9999,2892661844
3223,13,Improv_Metronome,128,9999,9999,9999,2893161544
3223,13,Improv_Metronome,129,9999,9999,9999,2893661236
3223,13,Improv_Metronome,130,9999,9999,9999,2894161976
3223,13,Improv_Metronome,131,9999,9999,9999,2894661724
3223,13,Improv_Metronome,132,9999,9999,9999,2895161452
3223,13,Improv_Metronome,133,9999,9999,9999,2895661124
3223,13,Improv_Metronome,134,9999,9999,9999,2896161848
3223,13,Improv_Metronome,135,9999,9999,9999,2896661620
3223,13,Improv_Metronome,136,9999,9999,9999,2897161316
3223,13,Improv_Metronome,137,9999,9999,9999,2897662040
3223,13,Improv_Metronome,138,9999,9999,9999,2898161716
3223,13,Improv_Metronome,139,9999,9999,9999,2898661488
3224,14,Improv_Melody,0,2,48,80,2944971064
3224,14,Improv_Melody,1,2,72,80,2944973732
3224,14,Improv_Melody,2,5,42,127,2944975224
3224,14,Improv_Melody,3,5,42,110,2945467988
3224,14,Improv_Melody,4,5,42,110,2945967464
3224,14,Improv_Melody,5,5,42,110,2946468204
3224,14,Improv_Melody,6,5,42,127,2946967852
3224,14,Improv_Melody,7,5,42,110,2947467576
3224,14,Improv_Melody,8,5,42,110,2947968344
3224,14,Improv_Melody,9,5,42,110,2948468064
3224,14,Improv_Melody,10,2,43,80,2948970216
3224,14,Improv_Melody,11,2,67,80,2948972672
3224,14,Improv_Melody,12,5,42,127,2948974904
3224,14,Improv_Melody,13,5,42,110,2949467596
3224,14,Improv_Melody,14,5,42,110,2949968216
3224,14,Improv_Melody,15,5,42,110,2950467936
3224,14,Improv_Melody,16,5,42,127,2950967732
3224,14,Improv_Melody,17,5,42,110,2951468356
3224,14,Improv_Melody,18,5,42,110,2951968072
3224,14,Improv_Melody,19,5,42,110,2952467796
3224,14,Improv_Melody,20,2,45,80,2952970172
3224,14,Improv_Melody,21,2,69,80,2952972476
3224,14,Improv_Melody,22,5,42,127,2952974932
3224,14,Improv_Melody,23,5,42,110,2953468520
3224,14,Improv_Melody,24,5,42,110,2953967948
3224,14,Improv_Melody,25,5,42,110,2954467668
3224,14,Improv_Melody,26,5,42,127,2954968512
3224,14,Improv_Melody,27,5,42,110,2955468160
3224,14,Improv_Melody,28,5,42,110,2955967880
3224,14,Improv_Melody,29,5,42,110,2956467528
3224,14,Improv_Melody,30,2,41,80,2956970772
3224,14,Improv_Melody,31,2,65,80,2956973080
3224,14,Improv_Melody,32,5,42,127,2956975464
3224,14,Improv_Melody,33,5,42,110,2957468156
3224,14,Improv_Melody,34,5,42,110,2957967652
3224,14,Improv_Melody,35,5,42,110,2958467524
3224,14,Improv_Melody,36,5,42,127,2958968220
3224,14,Improv_Melody,37,5,42,110,2959468312
3224,14,Improv_Melody,38,5,42,110,2959967736
3224,14,Improv_Melody,39,5,42,110,2960468428
3224,14,Improv_Melody,40,2,48,80,2960970504
3224,14,Improv_Melody,41,2,72,80,2960972508
3224,14,Improv_Melody,42,5,42,127,2960975196
3224,14,Improv_Melody,43,1,48,127,2961033516
3224,14,Improv_Melody,44,5,42,110,2961467864
3224,14,Improv_Melody,45,1,48,127,2961724124
3224,14,Improv_Melody,46,5,42,110,2961967340
3224,14,Improv_Melody,47,1,38,127,2961982728
3224,14,Improv_Melody,48,1,48,127,2962449268
3224,14,Improv_Melody,49,5,42,110,2962468080
3224,14,Improv_Melody,50,5,42,127,2962968088
3224,14,Improv_Melody,51,1,48,127,2963140876
3224,14,Improv_Melody,52,1,48,127,2963424132
3224,14,Improv_Melody,53,5,42,110,2963467484
3224,14,Improv_Melody,54,1,38,127,2963940288
3224,14,Improv_Melody,55,1,48,25,2963952012
3224,14,Improv_Melody,56,5,42,110,2963968284
3224,14,Improv_Melody,57,5,42,110,2964468184
3224,14,Improv_Melody,58,1,48,127,2964925000
3224,14,Improv_Melody,59,2,43,80,2964970252
3224,14,Improv_Melody,60,2,67,80,2964972480
3224,14,Improv_Melody,61,5,42,127,2964975020
3224,14,Improv_Melody,62,5,42,110,2965467548
3224,14,Improv_Melody,63,1,48,127,2965702116
3224,14,Improv_Melody,64,1,38,111,2965957476
3224,14,Improv_Melody,65,1,48,23,2965966916
3224,14,Improv_Melody,66,5,42,110,2965969016
3224,14,Improv_Melody,67,1,48,127,2966463636
3224,14,Improv_Melody,68,5,42,110,2966468160
3224,14,Improv_Melody,69,1,48,104,2966484432
3224,14,Improv_Melody,70,5,42,127,2966967624
3224,14,Improv_Melody,71,1,48,127,2967176960
3224,14,Improv_Melody,72,1,48,73,2967205212
3224,14,Improv_Melody,73,1,48,127,2967441948
3224,14,Improv_Melody,74,1,38,28,2967452176
3224,14,Improv_Melody,75,1,48,68,2967464868
3224,14,Improv_Melody,76,5,42,110,2967468424
3224,14,Improv_Melody,77,1,38,127,2967938588
3224,14,Improv_Melody,78,5,42,110,2967968168
3224,14,Improv_Melody,79,5,42,110,2968467804
3224,14,Improv_Melody,80,1,48,127,2968918488
3224,14,Improv_Melody,81,2,45,80,2968970020
3224,14,Improv_Melody,82,2,69,80,2968972476
3224,14,Improv_Melody,83,5,42,127,2968974936
3224,14,Improv_Melody,84,5,42,110,2969468140
3224,14,Improv_Melody,85,1,48,127,2969693952
3224,14,Improv_Melody,86,1,38,127,2969963904
3224,14,Improv_Melody,87,5,42,110,2969967980
3224,14,Improv_Melody,88,1,48,127,2970454848
3224,14,Improv_Melody,89,5,42,110,2970467904
3224,14,Improv_Melody,90,5,42,127,2970968732
3224,14,Improv_Melody,91,1,48,127,2971234264
3224,14,Improv_Melody,92,5,42,110,2971468132
3224,14,Improv_Melody,93,1,48,127,2971477088
3224,14,Improv_Melody,94,1,38,28,2971487088
3224,14,Improv_Melody,95,1,48,80,2971498432
3224,14,Improv_Melody,96,1,38,127,2971948792
3224,14,Improv_Melody,97,5,42,110,2971967756
3224,14,Improv_Melody,98,5,42,110,2972467612
3224,14,Improv_Melody,99,1,48,127,2972970660
3224,14,Improv_Melody,100,2,41,80,2972972528
3224,14,Improv_Melody,101,2,65,80,2972974600
3224,14,Improv_Melody,102,5,42,127,2972976912
3224,14,Improv_Melody,103,5,42,110,2973468020
3224,14,Improv_Melody,104,1,48,127,2973714104
3224,14,Improv_Melody,105,1,38,127,2973966204
3224,14,Improv_Melody,106,5,42,110,2973968540
3224,14,Improv_Melody,107,1,48,127,2974458472
3224,14,Improv_Melody,108,5,42,110,2974467412
3224,14,Improv_Melody,109,5,42,127,2974968240
3224,14,Improv_Melody,110,1,48,127,2975235044
3224,14,Improv_Melody,111,5,42,110,2975468016
3224,14,Improv_Melody,112,1,48,127,2975472260
3224,14,Improv_Melody,113,1,48,92,2975491164
3224,14,Improv_Melody,114,1,38,127,2975951420
3224,14,Improv_Melody,115,5,42,110,2975967688
3224,14,Improv_Melody,116,1,48,127,2976432496
3224,14,Improv_Melody,117,5,42,110,2976468508
3224,14,Improv_Melody,118,1,48,127,2976949244
3224,14,Improv_Melody,119,2,48,80,2976970568
3224,14,Improv_Melody,120,2,72,80,2976972716
3224,14,Improv_Melody,121,5,42,127,2976975404
3224,14,Improv_Melody,122,1,48,53,2976998780
3224,14,Improv_Melody,123,5,42,110,2977467612
3224,14,Improv_Melody,124,1,48,127,2977676572
3224,14,Improv_Melody,125,1,38,127,2977954596
3224,14,Improv_Melody,126,5,42,110,2977967452
3224,14,Improv_Melody,127,1,48,127,2978437168
3224,14,Improv_Melody,128,1,48,94,2978457188
3224,14,Improv_Melody,129,5,42,110,2978468372
3224,14,Improv_Melody,130,5,42,127,2978967856
3224,14,Improv_Melody,131,1,48,127,2979191132
3224,14,Improv_Melody,132,1,48,68,2979224620
3224,14,Improv_Melody,133,1,48,127,2979437492
3224,14,Improv_Melody,134,5,42,110,2979467528
3224,14,Improv_Melody,135,5,42,110,2979968356
3224,14,Improv_Melody,136,1,38,127,2979974692
3224,14,Improv_Melody,137,1,38,127,2980459480
3224,14,Improv_Melody,138,5,42,110,2980468200
3224,14,Improv_Melody,139,2,43,80,2980970036
3224,14,Improv_Melody,140,2,67,80,2980972264
3224,14,Improv_Melody,141,5,42,127,2980974728
3224,14,Improv_Melody,142,1,48,127,2980981360
3224,14,Improv_Melody,143,5,42,110,2981467544
3224,14,Improv_Melody,144,1,48,127,2981697700
3224,14,Improv_Melody,145,1,48,127,2981717276
3224,14,Improv_Melody,146,5,42,110,2981968492
3224,14,Improv_Melody,147,1,38,127,2981979768
3224,14,Improv_Melody,148,1,38,44,2982033072
3224,14,Improv_Melody,149,1,48,127,2982449124
3224,14,Improv_Melody,150,5,42,110,2982468012
3224,14,Improv_Melody,151,5,42,127,2982967720
3224,14,Improv_Melody,152,1,48,127,2983158308
3224,14,Improv_Melody,153,1,48,127,2983419284
3224,14,Improv_Melody,154,5,42,110,2983468464
3224,14,Improv_Melody,155,1,38,127,2983930204
3224,14,Improv_Melody,156,5,42,110,2983968088
3224,14,Improv_Melody,157,1,38,127,2984415912
3224,14,Improv_Melody,158,5,42,110,2984468160
3224,14,Improv_Melody,159,1,48,127,2984925932
3224,14,Improv_Melody,160,2,45,80,2984970216
3224,14,Improv_Melody,161,2,69,80,2984972216
3224,14,Improv_Melody,162,5,42,127,2984974828
3224,14,Improv_Melody,163,5,42,110,2985468256
3224,14,Improv_Melody,164,1,48,127,2985656452
3224,14,Improv_Melody,165,1,38,116,2985952952
3224,14,Improv_Melody,166,5,42,110,2985967948
3224,14,Improv_Melody,167,1,38,41,2986005536
3224,14,Improv_Melody,168,1,48,127,2986450236
3224,14,Improv_Melody,169,5,42,110,2986467628
3224,14,Improv_Melody,170,1,48,112,2986470072
3224,14,Improv_Melody,171,5,42,127,2986968360
3224,14,Improv_Melody,172,1,48,127,2987197692
3224,14,Improv_Melody,173,1,48,127,2987446172
3224,14,Improv_Melody,174,5,42,110,2987468128
3224,14,Improv_Melody,175,1,38,127,2987939944
3224,14,Improv_Melody,176,5,42,110,2987968052
3224,14,Improv_Melody,177,1,38,127,2988437696
3224,14,Improv_Melody,178,5,42,110,2988467676
3224,14,Improv_Melody,179,1,48,127,2988946968
3224,14,Improv_Melody,180,2,41,80,2988970980
3224,14,Improv_Melody,181,2,65,80,2988972904
3224,14,Improv_Melody,182,5,42,127,2988975468
3224,14,Improv_Melody,183,5,42,110,2989467972
3224,14,Improv_Melody,184,1,48,127,2989678604
3224,14,Improv_Melody,185,1,38,127,2989953784
3224,14,Improv_Melody,186,5,42,110,2989967736
3224,14,Improv_Melody,187,1,48,127,2990436956
3224,14,Improv_Melody,188,5,42,110,2990467436
3224,14,Improv_Melody,189,5,42,127,2990968116
3224,14,Improv_Melody,190,1,48,127,2991196024
3224,14,Improv_Melody,191,1,48,127,2991449148
3224,14,Improv_Melody,192,5,42,110,2991467884
3224,14,Improv_Melody,193,1,38,127,2991919824
3224,14,Improv_Melody,194,5,42,110,2991967808
3224,14,Improv_Melody,195,1,38,60,2992421324
3224,14,Improv_Melody,196,1,48,31,2992429384
3224,14,Improv_Melody,197,5,42,110,2992468316
3224,14,Improv_Melody,198,2,48,80,2992970648
3224,14,Improv_Melody,199,2,72,80,2992972720
3224,14,Improv_Melody,200,5,42,127,2992975408
3224,14,Improv_Melody,201,5,42,110,2993467728
3224,14,Improv_Melody,202,1,38,127,2993938380
3224,14,Improv_Melody,203,5,42,110,2993967668
3224,14,Improv_Melody,204,5,42,110,2994468268
3224,14,Improv_Melody,205,1,38,52,2994639780
3224,14,Improv_Melody,206,1,38,81,2994644252
3224,14,Improv_Melody,207,5,42,127,2994967872
3224,14,Improv_Melody,208,1,38,93,2995184716
3224,14,Improv_Melody,209,1,38,103,2995431024
3224,14,Improv_Melody,210,1,48,21,2995441104
3224,14,Improv_Melody,211,5,42,110,2995467772
3224,14,Improv_Melody,212,1,38,116,2995901280
3224,14,Improv_Melody,213,1,48,25,2995910988
3224,14,Improv_Melody,214,5,42,110,2995968544
3224,14,Improv_Melody,215,1,48,116,2996371436
3224,14,Improv_Melody,216,1,38,25,2996380848
3224,14,Improv_Melody,217,1,48,80,2996391072
3224,14,Improv_Melody,218,5,42,110,2996468100
3224,14,Improv_Melody,219,1,38,112,2996897620
3224,14,Improv_Melody,220,1,48,22,2996907628
3224,14,Improv_Melody,221,1,38,58,2996923184
3224,14,Improv_Melody,222,2,43,80,2996970236
3224,14,Improv_Melody,223,2,67,80,2996972312
3224,14,Improv_Melody,224,5,42,127,2996974924
3224,14,Improv_Melody,225,5,42,110,2997467648
3224,14,Improv_Melody,226,1,38,127,2997906936
3224,14,Improv_Melody,227,5,42,110,2997968260
3224,14,Improv_Melody,228,5,42,110,2998467968
3224,14,Improv_Melody,229,1,38,127,2998638784
3224,14,Improv_Melody,230,5,42,127,2998967592
3224,14,Improv_Melody,231,1,38,95,2999179772
3224,14,Improv_Melody,232,1,48,20,2999189628
3224,14,Improv_Melody,233,1,38,58,2999203068
3224,14,Improv_Melody,234,1,38,90,2999444860
3224,14,Improv_Melody,235,5,42,110,2999468684
3224,14,Improv_Melody,236,1,38,127,2999957700
3224,14,Improv_Melody,237,5,42,110,2999968060
3224,14,Improv_Melody,238,1,48,127,3000445876
3224,14,Improv_Melody,239,5,42,110,3000467760
3224,14,Improv_Melody,240,1,48,86,3000472812
3224,14,Improv_Melody,241,1,48,127,3000968380
3224,14,Improv_Melody,242,2,45,80,3000971752
3224,14,Improv_Melody,243,2,69,80,3000973900
3224,14,Improv_Melody,244,5,42,127,3000976516
3224,14,Improv_Melody,245,1,48,83,3000991212
3224,14,Improv_Melody,246,5,42,110,3001468420
3224,14,Improv_Melody,247,1,48,127,3001713456
3224,14,Improv_Melody,248,1,48,127,3001730940
3224,14,Improv_Melody,249,5,42,110,3001967876
3224,14,Improv_Melody,250,1,38,127,3001983260
3224,14,Improv_Melody,251,1,48,127,3002437380
3224,14,Improv_Melody,252,1,48,116,3002456436
3224,14,Improv_Melody,253,5,42,110,3002467692
3224,14,Improv_Melody,254,5,42,127,3002968300
3224,14,Improv_Melody,255,1,48,127,3003172496
3224,14,Improv_Melody,256,1,38,29,3003182652
3224,14,Improv_Melody,257,1,48,104,3003195940
3224,14,Improv_Melody,258,1,48,127,3003422928
3224,14,Improv_Melody,259,1,38,27,3003432928
3224,14,Improv_Melody,260,5,42,110,3003468348
3224,14,Improv_Melody,261,1,38,127,3003930212
3224,14,Improv_Melody,262,5,42,110,3003967796
3224,14,Improv_Melody,263,5,42,110,3004467580
3224,14,Improv_Melody,264,1,48,127,3004927092
3224,14,Improv_Melody,265,2,41,80,3004970848
3224,14,Improv_Melody,266,2,65,80,3004972996
3224,14,Improv_Melody,267,5,42,127,3004975536
3224,14,Improv_Melody,268,5,42,110,3005468212
3224,14,Improv_Melody,269,1,48,127,3005655952
3224,14,Improv_Melody,270,1,48,100,3005676352
3224,14,Improv_Melody,271,1,38,127,3005935008
3224,14,Improv_Melody,272,5,42,110,3005967808
3224,14,Improv_Melody,273,1,48,127,3006416084
3224,14,Improv_Melody,274,1,38,27,3006426240
3224,14,Improv_Melody,275,1,48,126,3006432576
3224,14,Improv_Melody,276,5,42,110,3006467392
3224,14,Improv_Melody,277,5,42,127,3006968416
3224,14,Improv_Melody,278,1,48,127,3007163648
3224,14,Improv_Melody,279,1,48,108,3007185092
3224,14,Improv_Melody,280,1,48,127,3007417188
3224,14,Improv_Melody,281,1,48,127,3007433396
3224,14,Improv_Melody,282,5,42,110,3007468144
3224,14,Improv_Melody,283,1,38,127,3007957704
3224,14,Improv_Melody,284,5,42,110,3007967620
3224,14,Improv_Melody,285,5,42,110,3008468444
3224,14,Improv_Melody,286,1,48,127,3008915436
3224,14,Improv_Melody,287,2,48,80,3008970592
3224,14,Improv_Melody,288,2,72,80,3008972824
3224,14,Improv_Melody,289,5,42,127,3008975356
3224,14,Improv_Melody,290,5,42,110,3009468032
3224,14,Improv_Melody,291,1,48,127,3009668392
3224,14,Improv_Melody,292,1,38,28,3009678620
3224,14,Improv_Melody,293,1,48,110,3009687052
3224,14,Improv_Melody,294,5,42,110,3009967440
3224,14,Improv_Melody,295,1,48,127,3010415928
3224,14,Improv_Melody,296,1,38,29,3010426080
3224,14,Improv_Melody,297,1,48,127,3010432564
3224,14,Improv_Melody,298,5,42,110,3010468280
3224,14,Improv_Melody,299,5,42,127,3010967812
3224,14,Improv_Melody,300,1,48,127,3011142768
3224,14,Improv_Melody,301,1,38,25,3011152996
3224,14,Improv_Melody,302,1,48,111,3011158284
3224,14,Improv_Melody,303,5,42,110,3011467740
3224,14,Improv_Melody,304,1,48,127,3011911992
3224,14,Improv_Melody,305,1,48,86,3011926776
3224,14,Improv_Melody,306,5,42,110,3011968256
3224,14,Improv_Melody,307,1,38,127,3012438968
3224,14,Improv_Melody,308,5,42,110,3012468032
3224,14,Improv_Melody,309,1,48,127,3012945252
3224,14,Improv_Melody,310,1,38,26,3012955408
3224,14,Improv_Melody,311,1,48,125,3012962936
3224,14,Improv_Melody,312,2,43,80,3012970796
3224,14,Improv_Melody,313,2,67,80,3012972872
3224,14,Improv_Melody,314,5,42,127,3012975180
3224,14,Improv_Melody,315,5,42,110,3013467384
3224,14,Improv_Melody,316,1,48,127,3013731720
3224,14,Improv_Melody,317,1,48,109,3013748976
3224,14,Improv_Melody,318,5,42,110,3013968180
3224,14,Improv_Melody,319,1,48,127,3014458660
3224,14,Improv_Melody,320,5,42,110,3014467896
3224,14,Improv_Melody,321,1,48,121,3014476084
3224,14,Improv_Melody,322,5,42,127,3014967804
3224,14,Improv_Melody,323,1,48,127,3015199528
3224,14,Improv_Melody,324,1,48,122,3015217008
3224,14,Improv_Melody,325,5,42,110,3015468604
3224,14,Improv_Melody,326,1,48,127,3015955864
3224,14,Improv_Melody,327,5,42,110,3015968244
3224,14,Improv_Melody,328,1,48,127,3015973368
3224,14,Improv_Melody,329,1,38,114,3016445372
3224,14,Improv_Melody,330,5,42,110,3016467924
3224,14,Improv_Melody,331,1,48,127,3016962872
3224,14,Improv_Melody,332,2,45,80,3016970128
3224,14,Improv_Melody,333,2,69,80,3016972276
3224,14,Improv_Melody,334,5,42,127,3016974816
3224,14,Improv_Melody,335,1,48,113,3016981436
3224,14,Improv_Melody,336,5,42,110,3017468516
3224,14,Improv_Melody,337,1,48,127,3017744148
3224,14,Improv_Melody,338,1,38,27,3017754376
3224,14,Improv_Melody,339,1,48,114,3017763480
3224,14,Improv_Melody,340,5,42,110,3017968000
3224,14,Improv_Melody,341,5,42,110,3018467572
3224,14,Improv_Melody,342,1,48,127,3018484976
3224,14,Improv_Melody,343,1,38,26,3018495132
3224,14,Improv_Melody,344,1,48,108,3018501088
3224,14,Improv_Melody,345,5,42,127,3018968548
3224,14,Improv_Melody,346,1,48,127,3019193768
3224,14,Improv_Melody,347,1,38,28,3019203772
3224,14,Improv_Melody,348,1,48,114,3019212348
3224,14,Improv_Melody,349,5,42,110,3019468104
3224,14,Improv_Melody,350,1,48,127,3019932224
3224,14,Improv_Melody,351,1,48,99,3019950184
3224,14,Improv_Melody,352,5,42,110,3019967796
3224,14,Improv_Melody,353,1,38,105,3020416644
3224,14,Improv_Melody,354,5,42,110,3020467796
3224,14,Improv_Melody,355,1,48,127,3020921284
3224,14,Improv_Melody,356,1,38,25,3020931288
3224,14,Improv_Melody,357,1,48,103,3020940912
3224,14,Improv_Melody,358,2,41,80,3020970984
3224,14,Improv_Melody,359,2,65,80,3020973524
3224,14,Improv_Melody,360,5,42,127,3020975608
3224,14,Improv_Melody,361,5,42,110,3021467936
3224,14,Improv_Melody,362,1,48,127,3021645280
3224,14,Improv_Melody,363,1,48,116,3021661940
3224,14,Improv_Melody,364,1,38,127,3021960612
3224,14,Improv_Melody,365,5,42,110,3021967680
3224,14,Improv_Melody,366,1,48,26,3021970800
3224,14,Improv_Melody,367,1,38,51,3022010144
3224,14,Improv_Melody,368,1,48,127,3022432504
3224,14,Improv_Melody,369,1,48,107,3022452448
3224,14,Improv_Melody,370,5,42,110,3022467596
3224,14,Improv_Melody,371,5,42,127,3022968276
3224,14,Improv_Melody,372,1,48,127,3023165448
3224,14,Improv_Melody,373,1,48,53,3023208132
3224,14,Improv_Melody,374,1,48,127,3023438964
3224,14,Improv_Melody,375,1,38,27,3023449040
3224,14,Improv_Melody,376,1,48,97,3023463608
3224,14,Improv_Melody,377,5,42,110,3023467832
3224,14,Improv_Melody,378,1,38,127,3023939868
3224,14,Improv_Melody,379,5,42,110,3023967652
3224,14,Improv_Melody,380,1,48,127,3024441284
3224,14,Improv_Melody,381,5,42,110,3024468324
3224,14,Improv_Melody,382,1,48,68,3024473524
3224,14,Improv_Melody,383,2,48,80,3024970588
3224,14,Improv_Melody,384,2,72,80,3024972736
3224,14,Improv_Melody,385,5,42,127,3024975276
3224,14,Improv_Melody,386,1,48,127,3024979664
3224,14,Improv_Melody,387,1,38,30,3024989896
3224,14,Improv_Melody,388,1,48,54,3025040212
3224,14,Improv_Melody,389,5,42,110,3025467728
3224,14,Improv_Melody,390,1,48,127,3025734084
3224,14,Improv_Melody,391,1,38,27,3025744160
3224,14,Improv_Melody,0,9999,9999,9999,2944965712
3224,14,Improv_Melody,1,9999,9999,9999,2945465400
3224,14,Improv_Melody,2,9999,9999,9999,2945965168
3224,14,Improv_Melody,3,9999,9999,9999,2946465912
3224,14,Improv_Melody,4,9999,9999,9999,2946965560
3224,14,Improv_Melody,5,9999,9999,9999,2947465280
3224,14,Improv_Melody,6,9999,9999,9999,2947966048
3224,14,Improv_Melody,7,9999,9999,9999,2948465772
3224,14,Improv_Melody,8,9999,9999,9999,2948965492
3224,14,Improv_Melody,9,9999,9999,9999,2949465156
3224,14,Improv_Melody,10,9999,9999,9999,2949965924
3224,14,Improv_Melody,11,9999,9999,9999,2950465644
3224,14,Improv_Melody,12,9999,9999,9999,2950965364
3224,14,Improv_Melody,13,9999,9999,9999,2951466060
3224,14,Improv_Melody,14,9999,9999,9999,2951965780
3224,14,Improv_Melody,15,9999,9999,9999,2952465504
3224,14,Improv_Melody,16,9999,9999,9999,2952965224
3224,14,Improv_Melody,17,9999,9999,9999,2953465932
3224,14,Improv_Melody,18,9999,9999,9999,2953965652
3224,14,Improv_Melody,19,9999,9999,9999,2954465372
3224,14,Improv_Melody,20,9999,9999,9999,2954966068
3224,14,Improv_Melody,21,9999,9999,9999,2955465792
3224,14,Improv_Melody,22,9999,9999,9999,2955965512
3224,14,Improv_Melody,23,9999,9999,9999,2956465236
3224,14,Improv_Melody,24,9999,9999,9999,2956965976
3224,14,Improv_Melody,25,9999,9999,9999,2957465712
3224,14,Improv_Melody,26,9999,9999,9999,2957965360
3224,14,Improv_Melody,27,9999,9999,9999,2958465084
3224,14,Improv_Melody,28,9999,9999,9999,2958965852
3224,14,Improv_Melody,29,9999,9999,9999,2959465572
3224,14,Improv_Melody,30,9999,9999,9999,2959965296
3224,14,Improv_Melody,31,9999,9999,9999,2960465988
3224,14,Improv_Melody,32,9999,9999,9999,2960965708
3224,14,Improv_Melody,33,9999,9999,9999,2961465424
3224,14,Improv_Melody,34,9999,9999,9999,2961965124
3224,14,Improv_Melody,35,9999,9999,9999,2962465864
3224,14,Improv_Melody,36,9999,9999,9999,2962965572
3224,14,Improv_Melody,37,9999,9999,9999,2963465264
3224,14,Improv_Melody,38,9999,9999,9999,2963966064
3224,14,Improv_Melody,39,9999,9999,9999,2964465744
3224,14,Improv_Melody,40,9999,9999,9999,2964965460
3224,14,Improv_Melody,41,9999,9999,9999,2965465180
3224,14,Improv_Melody,42,9999,9999,9999,2965965920
3224,14,Improv_Melody,43,9999,9999,9999,2966465644
3224,14,Improv_Melody,44,9999,9999,9999,2966965332
3224,14,Improv_Melody,45,9999,9999,9999,2967466056
3224,14,Improv_Melody,46,9999,9999,9999,2967965804
3224,14,Improv_Melody,47,9999,9999,9999,2968465512
3224,14,Improv_Melody,48,9999,9999,9999,2968965228
3224,14,Improv_Melody,49,9999,9999,9999,2969465920
3224,14,Improv_Melody,50,9999,9999,9999,2969965688
3224,14,Improv_Melody,51,9999,9999,9999,2970465388
3224,14,Improv_Melody,52,9999,9999,9999,2970966068
3224,14,Improv_Melody,53,9999,9999,9999,2971465840
3224,14,Improv_Melody,54,9999,9999,9999,2971965540
3224,14,Improv_Melody,55,9999,9999,9999,2972465244
3224,14,Improv_Melody,56,9999,9999,9999,2972965936
3224,14,Improv_Melody,57,9999,9999,9999,2973465652
3224,14,Improv_Melody,58,9999,9999,9999,2973965428
3224,14,Improv_Melody,59,9999,9999,9999,2974465120
3224,14,Improv_Melody,60,9999,9999,9999,2974965876
3224,14,Improv_Melody,61,9999,9999,9999,2975465576
3224,14,Improv_Melody,62,9999,9999,9999,2975965248
3224,14,Improv_Melody,63,9999,9999,9999,2976465992
3224,14,Improv_Melody,64,9999,9999,9999,2976965692
3224,14,Improv_Melody,65,9999,9999,9999,2977465392
3224,14,Improv_Melody,66,9999,9999,9999,2977965136
3224,14,Improv_Melody,67,9999,9999,9999,2978465856
3224,14,Improv_Melody,68,9999,9999,9999,2978965564
3224,14,Improv_Melody,69,9999,9999,9999,2979465312
3224,14,Improv_Melody,70,9999,9999,9999,2979966064
3224,14,Improv_Melody,71,9999,9999,9999,2980465756
3224,14,Improv_Melody,72,9999,9999,9999,2980965464
3224,14,Improv_Melody,73,9999,9999,9999,2981465176
3224,14,Improv_Melody,74,9999,9999,9999,2981965900
3224,14,Improv_Melody,75,9999,9999,9999,2982465648
3224,14,Improv_Melody,76,9999,9999,9999,2982965356
3224,14,Improv_Melody,77,9999,9999,9999,2983466096
3224,14,Improv_Melody,78,9999,9999,9999,2983965796
3224,14,Improv_Melody,79,9999,9999,9999,2984465496
3224,14,Improv_Melody,80,9999,9999,9999,2984965196
3224,14,Improv_Melody,81,9999,9999,9999,2985465964
3224,14,Improv_Melody,82,9999,9999,9999,2985965656
3224,14,Improv_Melody,83,9999,9999,9999,2986465332
3224,14,Improv_Melody,84,9999,9999,9999,2986966068
3224,14,Improv_Melody,85,9999,9999,9999,2987465836
3224,14,Improv_Melody,86,9999,9999,9999,2987965536
3224,14,Improv_Melody,87,9999,9999,9999,2988465236
3224,14,Improv_Melody,88,9999,9999,9999,2988965956
3224,14,Improv_Melody,89,9999,9999,9999,2989465676
3224,14,Improv_Melody,90,9999,9999,9999,2989965372
3224,14,Improv_Melody,91,9999,9999,9999,2990465144
3224,14,Improv_Melody,92,9999,9999,9999,2990965824
3224,14,Improv_Melody,93,9999,9999,9999,2991465592
3224,14,Improv_Melody,94,9999,9999,9999,2991965292
3224,14,Improv_Melody,95,9999,9999,9999,2992466020
3224,14,Improv_Melody,96,9999,9999,9999,2992965700
3224,14,Improv_Melody,97,9999,9999,9999,2993465436
3224,14,Improv_Melody,98,9999,9999,9999,2993965152
3224,14,Improv_Melody,99,9999,9999,9999,2994465904
3224,14,Improv_Melody,100,9999,9999,9999,2994965580
3224,14,Improv_Melody,101,9999,9999,9999,2995465328
3224,14,Improv_Melody,102,9999,9999,9999,2995966028
3224,14,Improv_Melody,103,9999,9999,9999,2996465732
3224,14,Improv_Melody,104,9999,9999,9999,2996965440
3224,14,Improv_Melody,105,9999,9999,9999,2997465204
3224,14,Improv_Melody,106,9999,9999,9999,2997965892
3224,14,Improv_Melody,107,9999,9999,9999,2998465600
3224,14,Improv_Melody,108,9999,9999,9999,2998965300
3224,14,Improv_Melody,109,9999,9999,9999,2999466092
3224,14,Improv_Melody,110,9999,9999,9999,2999965768
3224,14,Improv_Melody,111,9999,9999,9999,3000465468
3224,14,Improv_Melody,112,9999,9999,9999,3000965224
3224,14,Improv_Melody,113,9999,9999,9999,3001465976
3224,14,Improv_Melody,114,9999,9999,9999,3001965656
3224,14,Improv_Melody,115,9999,9999,9999,3002465400
3224,14,Improv_Melody,116,9999,9999,9999,3002966080
3224,14,Improv_Melody,117,9999,9999,9999,3003465832
3224,14,Improv_Melody,118,9999,9999,9999,3003965504
3224,14,Improv_Melody,119,9999,9999,9999,3004465212
3224,14,Improv_Melody,120,9999,9999,9999,3004965976
3224,14,Improv_Melody,121,9999,9999,9999,3005465696
3224,14,Improv_Melody,122,9999,9999,9999,3005965368
3224,14,Improv_Melody,123,9999,9999,9999,3006465100
3224,14,Improv_Melody,124,9999,9999,9999,3006965828
3224,14,Improv_Melody,125,9999,9999,9999,3007465552
3224,14,Improv_Melody,126,9999,9999,9999,3007965252
3224,14,Improv_Melody,127,9999,9999,9999,3008466004
3224,14,Improv_Melody,128,9999,9999,9999,3008965720
3224,14,Improv_Melody,129,9999,9999,9999,3009465440
3224,14,Improv_Melody,130,9999,9999,9999,3009965144
3224,14,Improv_Melody,131,9999,9999,9999,3010465840
3224,14,Improv_Melody,132,9999,9999,9999,3010965592
3224,14,Improv_Melody,133,9999,9999,9999,3011465300
3224,14,Improv_Melody,134,9999,9999,9999,3011966036
3224,14,Improv_Melody,135,9999,9999,9999,3012465740
3224,14,Improv_Melody,136,9999,9999,9999,3012965472
3224,14,Improv_Melody,137,9999,9999,9999,3013465164
3224,14,Improv_Melody,138,9999,9999,9999,3013965888
3224,14,Improv_Melody,139,9999,9999,9999,3014465604
3224,14,Improv_Melody,140,9999,9999,9999,3014965360
3224,14,Improv_Melody,141,9999,9999,9999,3015466088
3224,14,Improv_Melody,142,9999,9999,9999,3015965804
3224,14,Improv_Melody,143,9999,9999,9999,3016465484
3224,14,Improv_Melody,144,9999,9999,9999,3016965180
3224,14,Improv_Melody,145,9999,9999,9999,3017465928
3224,14,Improv_Melody,146,9999,9999,9999,3017965632
3224,14,Improv_Melody,147,9999,9999,9999,3018465352
3224,14,Improv_Melody,148,9999,9999,9999,3018966108
3224,14,Improv_Melody,149,9999,9999,9999,3019465812
3224,14,Improv_Melody,150,9999,9999,9999,3019965504
3224,14,Improv_Melody,151,9999,9999,9999,3020465204
3224,14,Improv_Melody,152,9999,9999,9999,3020965960
3224,14,Improv_Melody,153,9999,9999,9999,3021465716
3224,14,Improv_Melody,154,9999,9999,9999,3021965388
3224,14,Improv_Melody,155,9999,9999,9999,3022465080
3224,14,Improv_Melody,156,9999,9999,9999,3022965836
3224,14,Improv_Melody,157,9999,9999,9999,3023465540
3224,14,Improv_Melody,158,9999,9999,9999,3023965284
3224,14,Improv_Melody,159,9999,9999,9999,3024466032
3224,14,Improv_Melody,160,9999,9999,9999,3024965716
3224,14,Improv_Melody,161,9999,9999,9999,3025465432
32