taskRunCount,taskID,taskName,i,channel,pitch,velocity,microseconds
1,1,Ticks_Pract_5,0,5,42,127,351060216
1,1,Ticks_Pract_5,1,5,42,127,351560008
1,1,Ticks_Pract_5,2,5,42,127,352059948
1,1,Ticks_Pract_5,3,5,42,127,352559440
1,1,Ticks_Pract_5,4,5,42,127,353060128
1,1,Ticks_Pract_5,5,5,42,127,353559848
1,1,Ticks_Pract_5,6,5,42,127,354059712
1,1,Ticks_Pract_5,7,5,42,127,354560476
1,1,Ticks_Pract_5,8,5,42,127,355060044
1,1,Ticks_Pract_5,9,5,42,127,355559832
1,1,Ticks_Pract_5,10,5,42,127,356059624
1,1,Ticks_Pract_5,11,5,42,127,356560240
1,1,Ticks_Pract_5,12,5,42,127,357059880
1,1,Ticks_Pract_5,13,5,42,127,357559600
1,1,Ticks_Pract_5,14,5,42,127,358060512
1,1,Ticks_Pract_5,15,5,42,127,358560228
1,1,Ticks_Pract_5,16,5,42,127,359059720
1,1,Ticks_Pract_5,17,5,42,127,359559560
1,1,Ticks_Pract_5,18,5,42,127,360060544
1,1,Ticks_Pract_5,19,5,42,127,360559964
1,1,Ticks_Pract_5,20,5,42,127,361059756
1,1,Ticks_Pract_5,21,5,42,127,361560372
1,1,Ticks_Pract_5,22,5,42,127,362060236
1,1,Ticks_Pract_5,23,5,42,127,362559728
1,1,Ticks_Pract_5,24,5,42,127,363059520
1,1,Ticks_Pract_5,25,5,42,127,363560504
1,1,Ticks_Pract_5,26,5,42,127,364059924
1,1,Ticks_Pract_5,27,5,42,127,364559716
1,1,Ticks_Pract_5,28,5,42,127,365059360
1,1,Ticks_Pract_5,29,5,42,127,365560196
1,1,Ticks_Pract_5,30,5,42,127,366059988
1,1,Ticks_Pract_5,31,5,42,127,366559556
1,1,Ticks_Pract_5,32,5,42,127,367060316
1,1,Ticks_Pract_5,33,5,42,127,367560180
1,1,Ticks_Pract_5,34,5,42,127,368059748
1,1,Ticks_Pract_5,35,5,42,127,368559392
1,1,Ticks_Pract_5,36,5,42,127,369060080
1,1,Ticks_Pract_5,37,5,42,127,369560092
1,1,Ticks_Pract_5,38,5,42,127,370059560
1,1,Ticks_Pract_5,39,5,42,127,370560472
1,1,Ticks_Pract_5,0,9999,9999,9999,9999,351058008
1,1,Ticks_Pract_5,1,9999,9999,9999,9999,351557720
1,1,Ticks_Pract_5,2,9999,9999,9999,9999,352057440
1,1,Ticks_Pract_5,3,9999,9999,9999,9999,352557156
1,1,Ticks_Pract_5,4,9999,9999,9999,9999,353057844
1,1,Ticks_Pract_5,5,9999,9999,9999,9999,353557560
1,1,Ticks_Pract_5,6,9999,9999,9999,9999,354057276
1,1,Ticks_Pract_5,7,9999,9999,9999,9999,354558040
1,1,Ticks_Pract_5,8,9999,9999,9999,9999,355057756
1,1,Ticks_Pract_5,9,9999,9999,9999,9999,355557472
1,1,Ticks_Pract_5,10,9999,9999,9999,9999,356057188
1,1,Ticks_Pract_5,11,9999,9999,9999,9999,356557876
1,1,Ticks_Pract_5,12,9999,9999,9999,9999,357057596
1,1,Ticks_Pract_5,13,9999,9999,9999,9999,357557312
1,1,Ticks_Pract_5,14,9999,9999,9999,9999,358058076
1,1,Ticks_Pract_5,15,9999,9999,9999,9999,358557792
1,1,Ticks_Pract_5,16,9999,9999,9999,9999,359057508
1,1,Ticks_Pract_5,17,9999,9999,9999,9999,359557200
1,1,Ticks_Pract_5,18,9999,9999,9999,9999,360057960
1,1,Ticks_Pract_5,19,9999,9999,9999,9999,360557680
1,1,Ticks_Pract_5,20,9999,9999,9999,9999,361057396
1,1,Ticks_Pract_5,21,9999,9999,9999,9999,361558084
1,1,Ticks_Pract_5,22,9999,9999,9999,9999,362057800
1,1,Ticks_Pract_5,23,9999,9999,9999,9999,362557516
1,1,Ticks_Pract_5,24,9999,9999,9999,9999,363057232
1,1,Ticks_Pract_5,25,9999,9999,9999,9999,363557996
1,1,Ticks_Pract_5,26,9999,9999,9999,9999,364057712
1,1,Ticks_Pract_5,27,9999,9999,9999,9999,364557428
1,1,Ticks_Pract_5,28,9999,9999,9999,9999,365057072
1,1,Ticks_Pract_5,29,9999,9999,9999,9999,365557836
1,1,Ticks_Pract_5,30,9999,9999,9999,9999,366057552
1,1,Ticks_Pract_5,31,9999,9999,9999,9999,366557268
1,1,Ticks_Pract_5,32,9999,9999,9999,9999,367058028
1,1,Ticks_Pract_5,33,9999,9999,9999,9999,367557748
1,1,Ticks_Pract_5,34,9999,9999,9999,9999,368057460
1,1,Ticks_Pract_5,35,9999,9999,9999,9999,368557104
1,1,Ticks_Pract_5,36,9999,9999,9999,9999,369057868
1,1,Ticks_Pract_5,37,9999,9999,9999,9999,369557584
1,1,Ticks_Pract_5,38,9999,9999,9999,9999,370057276
1,1,Ticks_Pract_5,39,9999,9999,9999,9999,370558036
2,1,Ticks_Pract_5,0,5,42,127,381656508
2,1,Ticks_Pract_5,1,5,42,127,382156000
2,1,Ticks_Pract_5,2,5,42,127,382655716
2,1,Ticks_Pract_5,3,5,42,127,383155728
2,1,Ticks_Pract_5,4,5,42,127,383656716
2,1,Ticks_Pract_5,5,5,42,127,384155988
2,1,Ticks_Pract_5,6,5,42,127,384655628
2,1,Ticks_Pract_5,7,5,42,127,385155468
2,1,Ticks_Pract_5,8,5,42,127,385656156
2,1,Ticks_Pract_5,9,5,42,127,386155800
2,1,Ticks_Pract_5,10,5,42,127,386655588
2,1,Ticks_Pract_5,11,5,42,127,387156424
2,1,Ticks_Pract_5,12,5,42,127,387656068
2,1,Ticks_Pract_5,13,5,42,127,388155712
2,1,Ticks_Pract_5,14,5,42,127,388655352
2,1,Ticks_Pract_5,15,5,42,127,389156188
2,1,Ticks_Pract_5,16,5,42,127,389656276
2,1,Ticks_Pract_5,17,5,42,127,390155620
2,1,Ticks_Pract_5,18,5,42,127,390656316
2,1,Ticks_Pract_5,19,5,42,127,391156324
2,1,Ticks_Pract_5,20,5,42,127,391655892
2,1,Ticks_Pract_5,21,5,42,127,392155384
2,1,Ticks_Pract_5,22,5,42,127,392656220
2,1,Ticks_Pract_5,23,5,42,127,393156160
2,1,Ticks_Pract_5,24,5,42,127,393655652
2,1,Ticks_Pract_5,25,5,42,127,394156348
2,1,Ticks_Pract_5,26,5,42,127,394656280
2,1,Ticks_Pract_5,27,5,42,127,395155700
2,1,Ticks_Pract_5,28,5,42,127,395655540
2,1,Ticks_Pract_5,29,5,42,127,396156232
2,1,Ticks_Pract_5,30,5,42,127,396656096
2,1,Ticks_Pract_5,31,5,42,127,397155664
2,1,Ticks_Pract_5,32,5,42,127,397656356
2,1,Ticks_Pract_5,33,5,42,127,398156140
2,1,Ticks_Pract_5,34,5,42,127,398655932
2,1,Ticks_Pract_5,35,5,42,127,399155500
2,1,Ticks_Pract_5,36,5,42,127,399656264
2,1,Ticks_Pract_5,37,5,42,127,400156052
2,1,Ticks_Pract_5,38,5,42,127,400655916
2,1,Ticks_Pract_5,39,5,42,127,401155560
2,1,Ticks_Pract_5,0,9999,9999,9999,9999,381654072
2,1,Ticks_Pract_5,1,9999,9999,9999,9999,382153788
2,1,Ticks_Pract_5,2,9999,9999,9999,9999,382653504
2,1,Ticks_Pract_5,3,9999,9999,9999,9999,383153220
2,1,Ticks_Pract_5,4,9999,9999,9999,9999,383653984
2,1,Ticks_Pract_5,5,9999,9999,9999,9999,384153700
2,1,Ticks_Pract_5,6,9999,9999,9999,9999,384653416
2,1,Ticks_Pract_5,7,9999,9999,9999,9999,385153108
2,1,Ticks_Pract_5,8,9999,9999,9999,9999,385653868
2,1,Ticks_Pract_5,9,9999,9999,9999,9999,386153588
2,1,Ticks_Pract_5,10,9999,9999,9999,9999,386653304
2,1,Ticks_Pract_5,11,9999,9999,9999,9999,387153992
2,1,Ticks_Pract_5,12,9999,9999,9999,9999,387653708
2,1,Ticks_Pract_5,13,9999,9999,9999,9999,388153424
2,1,Ticks_Pract_5,14,9999,9999,9999,9999,388653140
2,1,Ticks_Pract_5,15,9999,9999,9999,9999,389153904
2,1,Ticks_Pract_5,16,9999,9999,9999,9999,389653620
2,1,Ticks_Pract_5,17,9999,9999,9999,9999,390153336
2,1,Ticks_Pract_5,18,9999,9999,9999,9999,390654024
2,1,Ticks_Pract_5,19,9999,9999,9999,9999,391153740
2,1,Ticks_Pract_5,20,9999,9999,9999,9999,391653456
2,1,Ticks_Pract_5,21,9999,9999,9999,9999,392153172
2,1,Ticks_Pract_5,22,9999,9999,9999,9999,392653936
2,1,Ticks_Pract_5,23,9999,9999,9999,9999,393153652
2,1,Ticks_Pract_5,24,9999,9999,9999,9999,393653368
2,1,Ticks_Pract_5,25,9999,9999,9999,9999,394154056
2,1,Ticks_Pract_5,26,9999,9999,9999,9999,394653772
2,1,Ticks_Pract_5,27,9999,9999,9999,9999,395153488
2,1,Ticks_Pract_5,28,9999,9999,9999,9999,395653180
2,1,Ticks_Pract_5,29,9999,9999,9999,9999,396153944
2,1,Ticks_Pract_5,30,9999,9999,9999,9999,396653660
2,1,Ticks_Pract_5,31,9999,9999,9999,9999,397153376
2,1,Ticks_Pract_5,32,9999,9999,9999,9999,397654064
2,1,Ticks_Pract_5,33,9999,9999,9999,9999,398153780
2,1,Ticks_Pract_5,34,9999,9999,9999,9999,398653496
2,1,Ticks_Pract_5,35,9999,9999,9999,9999,399153212
2,1,Ticks_Pract_5,36,9999,9999,9999,9999,399653976
2,1,Ticks_Pract_5,37,9999,9999,9999,9999,400153692
2,1,Ticks_Pract_5,38,9999,9999,9999,9999,400653408
2,1,Ticks_Pract_5,39,9999,9999,9999,9999,401153124
3,0,Ticks_Pract_8,0,5,42,127,1682983152
3,0,Ticks_Pract_8,1,5,42,127,1683783228
3,0,Ticks_Pract_8,2,1,48,19,1684562152
3,0,Ticks_Pract_8,3,1,38,14,1684574168
3,0,Ticks_Pract_8,4,5,42,127,1684582880
3,0,Ticks_Pract_8,5,1,48,21,1685284320
3,0,Ticks_Pract_8,6,1,38,17,1685296608
3,0,Ticks_Pract_8,7,5,42,127,1685382492
3,0,Ticks_Pract_8,8,1,48,21,1686115844
3,0,Ticks_Pract_8,9,1,38,14,1686127872
3,0,Ticks_Pract_8,10,5,42,127,1686183252
3,0,Ticks_Pract_8,11,1,48,20,1686958016
3,0,Ticks_Pract_8,12,5,42,127,1686983180
3,0,Ticks_Pract_8,13,1,48,29,1687748924
3,0,Ticks_Pract_8,14,1,38,13,1687760348
3,0,Ticks_Pract_8,15,5,42,127,1687782896
3,0,Ticks_Pract_8,16,1,48,21,1688520948
3,0,Ticks_Pract_8,17,5,42,127,1688582388
3,0,Ticks_Pract_8,18,1,48,20,1689342148
3,0,Ticks_Pract_8,19,5,42,127,1689383244
3,0,Ticks_Pract_8,20,1,48,21,1690170484
3,0,Ticks_Pract_8,21,5,42,127,1690183004
3,0,Ticks_Pract_8,22,1,48,32,1690947848
3,0,Ticks_Pract_8,23,1,38,16,1690959420
3,0,Ticks_Pract_8,24,5,42,127,1690982864
3,0,Ticks_Pract_8,25,1,48,17,1691766156
3,0,Ticks_Pract_8,26,5,42,127,1691782424
3,0,Ticks_Pract_8,27,1,48,26,1692573968
3,0,Ticks_Pract_8,28,5,42,127,1692583128
3,0,Ticks_Pract_8,29,1,38,16,1692586248
3,0,Ticks_Pract_8,30,1,48,21,1693331784
3,0,Ticks_Pract_8,31,1,38,15,1693343808
3,0,Ticks_Pract_8,32,5,42,127,1693382956
3,0,Ticks_Pract_8,33,1,48,16,1694094216
3,0,Ticks_Pract_8,34,5,42,127,1694182960
3,0,Ticks_Pract_8,35,1,48,42,1694959100
3,0,Ticks_Pract_8,36,5,42,127,1694982696
3,0,Ticks_Pract_8,37,1,48,59,1695730116
3,0,Ticks_Pract_8,38,5,42,127,1695783400
3,0,Ticks_Pract_8,39,1,48,67,1696511148
3,0,Ticks_Pract_8,40,5,42,127,1696583008
3,0,Ticks_Pract_8,41,1,48,76,1697291056
3,0,Ticks_Pract_8,42,5,42,127,1697382728
3,0,Ticks_Pract_8,43,1,48,82,1698077928
3,0,Ticks_Pract_8,44,5,42,127,1698182540
3,0,Ticks_Pract_8,45,1,48,60,1698853276
3,0,Ticks_Pract_8,46,1,38,16,1698865412
3,0,Ticks_Pract_8,47,5,42,127,1698983208
3,0,Ticks_Pract_8,48,1,48,92,1699707084
3,0,Ticks_Pract_8,49,5,42,127,1699782960
3,0,Ticks_Pract_8,50,1,48,31,1700465520
3,0,Ticks_Pract_8,51,1,38,16,1700477696
3,0,Ticks_Pract_8,52,5,42,127,1700582704
3,0,Ticks_Pract_8,53,1,48,51,1701230808
3,0,Ticks_Pract_8,54,1,38,17,1701242824
3,0,Ticks_Pract_8,55,5,42,127,1701382464
3,0,Ticks_Pract_8,56,1,48,61,1702050160
3,0,Ticks_Pract_8,57,1,38,16,1702061660
3,0,Ticks_Pract_8,58,5,42,127,1702183492
3,0,Ticks_Pract_8,59,1,48,29,1702899964
3,0,Ticks_Pract_8,60,1,38,17,1702912060
3,0,Ticks_Pract_8,61,5,42,127,1702982952
3,0,Ticks_Pract_8,62,1,48,27,1703691572
3,0,Ticks_Pract_8,63,1,38,17,1703703596
3,0,Ticks_Pract_8,64,5,42,127,1703782860
3,0,Ticks_Pract_8,65,1,48,22,1704494420
3,0,Ticks_Pract_8,66,1,38,15,1704506596
3,0,Ticks_Pract_8,67,5,42,127,1704582544
3,0,Ticks_Pract_8,68,1,48,25,1705270920
3,0,Ticks_Pract_8,69,1,38,17,1705283168
3,0,Ticks_Pract_8,70,5,42,127,1705383460
3,0,Ticks_Pract_8,71,1,48,35,1706051380
3,0,Ticks_Pract_8,72,1,38,15,1706062804
3,0,Ticks_Pract_8,73,5,42,127,1706182924
3,0,Ticks_Pract_8,74,1,48,28,1706861244
3,0,Ticks_Pract_8,75,1,38,18,1706873192
3,0,Ticks_Pract_8,0,9999,9999,9999,9999,1682980936
3,0,Ticks_Pract_8,1,9999,9999,9999,9999,1683780716
3,0,Ticks_Pract_8,2,9999,9999,9999,9999,1684580444
3,0,Ticks_Pract_8,3,9999,9999,9999,9999,1685380204
3,0,Ticks_Pract_8,4,9999,9999,9999,9999,1686180964
3,0,Ticks_Pract_8,5,9999,9999,9999,9999,1686980668
3,0,Ticks_Pract_8,6,9999,9999,9999,9999,1687780460
3,0,Ticks_Pract_8,7,9999,9999,9999,9999,1688580176
3,0,Ticks_Pract_8,8,9999,9999,9999,9999,1689380956
3,0,Ticks_Pract_8,9,9999,9999,9999,9999,1690180716
3,0,Ticks_Pract_8,10,9999,9999,9999,9999,1690980428
3,0,Ticks_Pract_8,11,9999,9999,9999,9999,1691780208
3,0,Ticks_Pract_8,12,9999,9999,9999,9999,1692580912
3,0,Ticks_Pract_8,13,9999,9999,9999,9999,1693380668
3,0,Ticks_Pract_8,14,9999,9999,9999,9999,1694180452
3,0,Ticks_Pract_8,15,9999,9999,9999,9999,1694980184
3,0,Ticks_Pract_8,16,9999,9999,9999,9999,1695780964
3,0,Ticks_Pract_8,17,9999,9999,9999,9999,1696580720
3,0,Ticks_Pract_8,18,9999,9999,9999,9999,1697380456
3,0,Ticks_Pract_8,19,9999,9999,9999,9999,1698180176
3,0,Ticks_Pract_8,20,9999,9999,9999,9999,1698980920
3,0,Ticks_Pract_8,21,9999,9999,9999,9999,1699780668
3,0,Ticks_Pract_8,22,9999,9999,9999,9999,1700580416
3,0,Ticks_Pract_8,23,9999,9999,9999,9999,1701380176
3,0,Ticks_Pract_8,24,9999,9999,9999,9999,1702180984
3,0,Ticks_Pract_8,25,9999,9999,9999,9999,1702980660
3,0,Ticks_Pract_8,26,9999,9999,9999,9999,1703780424
3,0,Ticks_Pract_8,27,9999,9999,9999,9999,1704580184
3,0,Ticks_Pract_8,28,9999,9999,9999,9999,1705380948
3,0,Ticks_Pract_8,29,9999,9999,9999,9999,1706180708
4,1,Ticks_Pract_5,0,5,42,127,1745133880
4,1,Ticks_Pract_5,1,5,42,127,1745633896
4,1,Ticks_Pract_5,2,5,42,127,1746134360
4,1,Ticks_Pract_5,3,1,48,76,1746586164
4,1,Ticks_Pract_5,4,1,48,48,1746617112
4,1,Ticks_Pract_5,5,5,42,127,1746634048
4,1,Ticks_Pract_5,6,1,48,87,1747084496
4,1,Ticks_Pract_5,7,1,48,53,1747118136
4,1,Ticks_Pract_5,8,5,42,127,1747133796
4,1,Ticks_Pract_5,9,1,48,85,1747567116
4,1,Ticks_Pract_5,10,5,42,127,1747633568
4,1,Ticks_Pract_5,11,1,48,72,1748079824
4,1,Ticks_Pract_5,12,5,42,127,1748134384
4,1,Ticks_Pract_5,13,1,48,72,1748584228
4,1,Ticks_Pract_5,14,5,42,127,1748634080
4,1,Ticks_Pract_5,15,1,48,74,1749091480
4,1,Ticks_Pract_5,16,5,42,127,1749133920
4,1,Ticks_Pract_5,17,1,48,70,1749572176
4,1,Ticks_Pract_5,18,5,42,127,1749634512
4,1,Ticks_Pract_5,19,1,48,73,1750061696
4,1,Ticks_Pract_5,20,5,42,127,1750134060
4,1,Ticks_Pract_5,21,1,48,73,1750560616
4,1,Ticks_Pract_5,22,5,42,127,1750633828
4,1,Ticks_Pract_5,23,1,48,77,1751049840
4,1,Ticks_Pract_5,24,5,42,127,1751133744
4,1,Ticks_Pract_5,25,1,48,71,1751562624
4,1,Ticks_Pract_5,26,5,42,127,1751634412
4,1,Ticks_Pract_5,27,1,48,75,1752036440
4,1,Ticks_Pract_5,28,5,42,127,1752133868
4,1,Ticks_Pract_5,29,1,48,70,1752546532
4,1,Ticks_Pract_5,30,5,42,127,1752633652
4,1,Ticks_Pract_5,31,1,48,66,1753043084
4,1,Ticks_Pract_5,32,5,42,127,1753134528
4,1,Ticks_Pract_5,33,1,48,63,1753548164
4,1,Ticks_Pract_5,34,5,42,127,1753634064
4,1,Ticks_Pract_5,35,1,48,63,1754053540
4,1,Ticks_Pract_5,36,5,42,127,1754133980
4,1,Ticks_Pract_5,37,1,48,62,1754540520
4,1,Ticks_Pract_5,38,5,42,127,1754633528
4,1,Ticks_Pract_5,39,1,48,64,1755045524
4,1,Ticks_Pract_5,40,5,42,127,1755134268
4,1,Ticks_Pract_5,41,1,48,60,1755540284
4,1,Ticks_Pract_5,42,5,42,127,1755633964
4,1,Ticks_Pract_5,43,1,48,71,1756024944
4,1,Ticks_Pract_5,44,5,42,127,1756133644
4,1,Ticks_Pract_5,45,1,48,68,1756506316
4,1,Ticks_Pract_5,46,5,42,127,1756633564
4,1,Ticks_Pract_5,47,1,48,72,1756988204
4,1,Ticks_Pract_5,48,5,42,127,1757134524
4,1,Ticks_Pract_5,49,1,48,67,1757494560
4,1,Ticks_Pract_5,50,5,42,127,1757633924
4,1,Ticks_Pract_5,51,1,48,69,1757983380
4,1,Ticks_Pract_5,52,5,42,127,1758133468
4,1,Ticks_Pract_5,53,1,48,65,1758501700
4,1,Ticks_Pract_5,54,5,42,127,1758634508
4,1,Ticks_Pract_5,55,1,48,70,1758978136
4,1,Ticks_Pract_5,56,5,42,127,1759134200
4,1,Ticks_Pract_5,57,1,48,66,1759485232
4,1,Ticks_Pract_5,58,5,42,127,1759633748
4,1,Ticks_Pract_5,59,1,48,60,1759980664
4,1,Ticks_Pract_5,60,5,42,127,1760133440
4,1,Ticks_Pract_5,61,1,48,63,1760478560
4,1,Ticks_Pract_5,62,5,42,127,1760634180
4,1,Ticks_Pract_5,63,1,48,69,1760990596
4,1,Ticks_Pract_5,64,5,42,127,1761133948
4,1,Ticks_Pract_5,65,1,48,66,1761521032
4,1,Ticks_Pract_5,66,5,42,127,1761633496
4,1,Ticks_Pract_5,67,1,48,68,1762013468
4,1,Ticks_Pract_5,68,5,42,127,1762134308
4,1,Ticks_Pract_5,69,1,48,67,1762537552
4,1,Ticks_Pract_5,70,5,42,127,1762635272
4,1,Ticks_Pract_5,71,1,48,73,1763031260
4,1,Ticks_Pract_5,72,5,42,127,1763134216
4,1,Ticks_Pract_5,73,1,48,68,1763547856
4,1,Ticks_Pract_5,74,5,42,127,1763633404
4,1,Ticks_Pract_5,75,1,48,72,1764048972
4,1,Ticks_Pract_5,76,5,42,127,1764134196
4,1,Ticks_Pract_5,77,1,48,67,1764562176
4,1,Ticks_Pract_5,78,5,42,127,1764634240
4,1,Ticks_Pract_5,79,1,48,72,1765055432
4,1,Ticks_Pract_5,0,9999,9999,9999,9999,1745131596
4,1,Ticks_Pract_5,1,9999,9999,9999,9999,1745631312
4,1,Ticks_Pract_5,2,9999,9999,9999,9999,1746132076
4,1,Ticks_Pract_5,3,9999,9999,9999,9999,1746631764
4,1,Ticks_Pract_5,4,9999,9999,9999,9999,1747131512
4,1,Ticks_Pract_5,5,9999,9999,9999,9999,1747631208
4,1,Ticks_Pract_5,6,9999,9999,9999,9999,1748131948
4,1,Ticks_Pract_5,7,9999,9999,9999,9999,1748631644
4,1,Ticks_Pract_5,8,9999,9999,9999,9999,1749131336
4,1,Ticks_Pract_5,9,9999,9999,9999,9999,1749632080
4,1,Ticks_Pract_5,10,9999,9999,9999,9999,1750131772
4,1,Ticks_Pract_5,11,9999,9999,9999,9999,1750631544
4,1,Ticks_Pract_5,12,9999,9999,9999,9999,1751131236
4,1,Ticks_Pract_5,13,9999,9999,9999,9999,1751631976
4,1,Ticks_Pract_5,14,9999,9999,9999,9999,1752131656
4,1,Ticks_Pract_5,15,9999,9999,9999,9999,1752631368
4,1,Ticks_Pract_5,16,9999,9999,9999,9999,1753131060
4,1,Ticks_Pract_5,17,9999,9999,9999,9999,1753631852
4,1,Ticks_Pract_5,18,9999,9999,9999,9999,1754131548
4,1,Ticks_Pract_5,19,9999,9999,9999,9999,1754631244
4,1,Ticks_Pract_5,20,9999,9999,9999,9999,1755131984
4,1,Ticks_Pract_5,21,9999,9999,9999,9999,1755631680
4,1,Ticks_Pract_5,22,9999,9999,9999,9999,1756131432
4,1,Ticks_Pract_5,23,9999,9999,9999,9999,1756631128
4,1,Ticks_Pract_5,24,9999,9999,9999,9999,1757131868
4,1,Ticks_Pract_5,25,9999,9999,9999,9999,1757631564
4,1,Ticks_Pract_5,26,9999,9999,9999,9999,1758131256
4,1,Ticks_Pract_5,27,9999,9999,9999,9999,1758631996
4,1,Ticks_Pract_5,28,9999,9999,9999,9999,1759131768
4,1,Ticks_Pract_5,29,9999,9999,9999,9999,1759631460
4,1,Ticks_Pract_5,30,9999,9999,9999,9999,1760131156
4,1,Ticks_Pract_5,31,9999,9999,9999,9999,1760631896
4,1,Ticks_Pract_5,32,9999,9999,9999,9999,1761131588
4,1,Ticks_Pract_5,33,9999,9999,9999,9999,1761631284
4,1,Ticks_Pract_5,34,9999,9999,9999,9999,1762132024
4,1,Ticks_Pract_5,35,9999,9999,9999,9999,1762631732
4,1,Ticks_Pract_5,36,9999,9999,9999,9999,1763131484
4,1,Ticks_Pract_5,37,9999,9999,9999,9999,1763631196
4,1,Ticks_Pract_5,38,9999,9999,9999,9999,1764131912
4,1,Ticks_Pract_5,39,9999,9999,9999,9999,1764631656
5,2,T1_SMS_8,0,5,42,127,1805039988
5,2,T1_SMS_8,1,5,42,127,1805839820
5,2,T1_SMS_8,2,1,48,64,1806045136
5,2,T1_SMS_8,3,1,48,69,1806635420
5,2,T1_SMS_8,4,5,42,127,1806639568
5,2,T1_SMS_8,5,1,48,76,1807394808
5,2,T1_SMS_8,6,5,42,127,1807440272
5,2,T1_SMS_8,7,1,48,70,1808191956
5,2,T1_SMS_8,8,5,42,127,1808239860
5,2,T1_SMS_8,9,1,48,71,1809009716
5,2,T1_SMS_8,10,5,42,127,1809039668
5,2,T1_SMS_8,11,1,48,60,1809839480
5,2,T1_SMS_8,12,5,42,127,1809840892
5,2,T1_SMS_8,13,5,42,127,1810640336
5,2,T1_SMS_8,14,1,48,60,1810642780
5,2,T1_SMS_8,15,1,48,59,1811440068
5,2,T1_SMS_8,16,5,42,127,1811441708
5,2,T1_SMS_8,17,5,42,127,1812239580
5,2,T1_SMS_8,18,1,48,56,1812272416
5,2,T1_SMS_8,19,1,48,60,1813036752
5,2,T1_SMS_8,20,5,42,127,1813039328
5,2,T1_SMS_8,21,1,48,60,1813782380
5,2,T1_SMS_8,22,5,42,127,1813840332
5,2,T1_SMS_8,23,1,48,58,1814576236
5,2,T1_SMS_8,24,5,42,127,1814639844
5,2,T1_SMS_8,25,1,48,62,1815360476
5,2,T1_SMS_8,26,5,42,127,1815439800
5,2,T1_SMS_8,27,1,48,51,1816170012
5,2,T1_SMS_8,28,5,42,127,1816239532
5,2,T1_SMS_8,29,1,48,54,1816968920
5,2,T1_SMS_8,30,5,42,127,1817040164
5,2,T1_SMS_8,31,1,48,50,1817798648
5,2,T1_SMS_8,32,5,42,127,1817840120
5,2,T1_SMS_8,33,1,48,51,1818630920
5,2,T1_SMS_8,34,5,42,127,1818639632
5,2,T1_SMS_8,35,1,48,53,1819435020
5,2,T1_SMS_8,36,5,42,127,1819439388
5,2,T1_SMS_8,37,1,48,51,1820232428
5,2,T1_SMS_8,38,5,42,127,1820240244
5,2,T1_SMS_8,39,1,48,53,1821038396
5,2,T1_SMS_8,40,5,42,127,1821040128
5,2,T1_SMS_8,41,5,42,127,1821839868
5,2,T1_SMS_8,42,1,48,48,1821866248
5,2,T1_SMS_8,43,5,42,127,1822639452
5,2,T1_SMS_8,44,1,48,54,1822651768
5,2,T1_SMS_8,45,1,48,52,1823435548
5,2,T1_SMS_8,46,5,42,127,1823440372
5,2,T1_SMS_8,47,1,48,60,1824211128
5,2,T1_SMS_8,48,5,42,127,1824240108
5,2,T1_SMS_8,49,1,48,63,1825033376
5,2,T1_SMS_8,50,5,42,127,1825039840
5,2,T1_SMS_8,51,1,48,65,1825779108
5,2,T1_SMS_8,52,5,42,127,1825839452
5,2,T1_SMS_8,53,1,48,60,1826583772
5,2,T1_SMS_8,54,5,42,127,1826640156
5,2,T1_SMS_8,55,1,48,59,1827408140
5,2,T1_SMS_8,56,5,42,127,1827440036
5,2,T1_SMS_8,57,1,48,62,1828187752
5,2,T1_SMS_8,58,5,42,127,1828239844
5,2,T1_SMS_8,59,1,48,61,1829013812
5,2,T1_SMS_8,60,5,42,127,1829039728
5,2,T1_SMS_8,61,1,48,62,1829815640
5,2,T1_SMS_8,62,5,42,127,1829840208
5,2,T1_SMS_8,63,1,48,62,1830601836
5,2,T1_SMS_8,64,5,42,127,1830640016
5,2,T1_SMS_8,65,1,48,55,1831439532
5,2,T1_SMS_8,66,5,42,127,1831441168
5,2,T1_SMS_8,67,5,42,127,1832239664
5,2,T1_SMS_8,68,1,48,59,1832248988
5,2,T1_SMS_8,69,1,48,55,1833036660
5,2,T1_SMS_8,70,5,42,127,1833040360
5,2,T1_SMS_8,71,1,48,62,1833806032
5,2,T1_SMS_8,72,5,42,127,1833840096
5,2,T1_SMS_8,73,1,48,58,1834622960
5,2,T1_SMS_8,74,5,42,127,1834639608
5,2,T1_SMS_8,75,1,48,57,1835436988
5,2,T1_SMS_8,76,5,42,127,1835439492
5,2,T1_SMS_8,77,1,48,64,1836238532
5,2,T1_SMS_8,78,5,42,127,1836240420
5,2,T1_SMS_8,79,5,42,127,1837039936
5,2,T1_SMS_8,80,1,48,56,1837096556
5,2,T1_SMS_8,81,5,42,127,1837839668
5,2,T1_SMS_8,82,1,48,54,1837878492
5,2,T1_SMS_8,83,5,42,127,1838639428
5,2,T1_SMS_8,84,1,48,58,1838673884
5,2,T1_SMS_8,85,5,42,127,1839440432
5,2,T1_SMS_8,86,1,48,59,1839470476
5,2,T1_SMS_8,87,5,42,127,1840240016
5,2,T1_SMS_8,88,1,48,61,1840259064
5,2,T1_SMS_8,89,1,48,63,1841021532
5,2,T1_SMS_8,90,5,42,127,1841039592
5,2,T1_SMS_8,91,1,48,65,1841833532
5,2,T1_SMS_8,92,5,42,127,1841839548
5,2,T1_SMS_8,93,5,42,127,1842640336
5,2,T1_SMS_8,94,1,48,27,1842942224
5,2,T1_SMS_8,95,5,42,127,1843440068
5,2,T1_SMS_8,96,1,48,57,1843591832
5,2,T1_SMS_8,97,5,42,127,1844239800
5,2,T1_SMS_8,98,1,48,57,1844348856
5,2,T1_SMS_8,99,5,42,127,1845039408
5,2,T1_SMS_8,100,1,48,58,1845093312
5,2,T1_SMS_8,101,1,48,54,1845834092
5,2,T1_SMS_8,102,5,42,127,1845840184
5,2,T1_SMS_8,103,1,48,52,1846603752
5,2,T1_SMS_8,104,5,42,127,1846639916
5,2,T1_SMS_8,105,1,48,58,1847409848
5,2,T1_SMS_8,106,5,42,127,1847439576
5,2,T1_SMS_8,107,1,48,59,1848211152
5,2,T1_SMS_8,108,5,42,127,1848239384
5,2,T1_SMS_8,109,1,48,56,1849003480
5,2,T1_SMS_8,110,5,42,127,1849040092
5,2,T1_SMS_8,111,1,48,58,1849825652
5,2,T1_SMS_8,112,5,42,127,1849840048
5,2,T1_SMS_8,113,1,48,54,1850621276
5,2,T1_SMS_8,114,5,42,127,1850639856
5,2,T1_SMS_8,115,1,48,56,1851409640
5,2,T1_SMS_8,116,5,42,127,1851439320
5,2,T1_SMS_8,117,1,48,58,1852207456
5,2,T1_SMS_8,118,5,42,127,1852240172
5,2,T1_SMS_8,119,1,48,55,1853003220
5,2,T1_SMS_8,120,5,42,127,1853040056
5,2,T1_SMS_8,121,1,48,61,1853787996
5,2,T1_SMS_8,122,5,42,127,1853839864
5,2,T1_SMS_8,123,1,48,55,1854594760
5,2,T1_SMS_8,124,5,42,127,1854639752
5,2,T1_SMS_8,125,1,48,60,1855367500
5,2,T1_SMS_8,126,5,42,127,1855440232
5,2,T1_SMS_8,127,1,48,62,1856177480
5,2,T1_SMS_8,128,5,42,127,1856239968
5,2,T1_SMS_8,129,1,48,60,1856981996
5,2,T1_SMS_8,130,5,42,127,1857039776
5,2,T1_SMS_8,131,1,48,67,1857783600
5,2,T1_SMS_8,132,5,42,127,1857839536
5,2,T1_SMS_8,133,1,48,62,1858560596
5,2,T1_SMS_8,134,5,42,127,1858640316
5,2,T1_SMS_8,135,1,48,64,1859323980
5,2,T1_SMS_8,136,5,42,127,1859439960
5,2,T1_SMS_8,137,1,48,56,1860174152
5,2,T1_SMS_8,138,5,42,127,1860239784
5,2,T1_SMS_8,139,1,48,51,1860939772
5,2,T1_SMS_8,140,5,42,127,1861039664
5,2,T1_SMS_8,141,1,48,59,1861743776
5,2,T1_SMS_8,142,5,42,127,1861840296
5,2,T1_SMS_8,143,1,48,60,1862616056
5,2,T1_SMS_8,144,5,42,127,1862640028
5,2,T1_SMS_8,145,5,42,127,1863439768
5,2,T1_SMS_8,146,1,48,59,1863464600
5,2,T1_SMS_8,147,1,48,56,1864226768
5,2,T1_SMS_8,148,5,42,127,1864239372
5,2,T1_SMS_8,149,1,48,57,1865020596
5,2,T1_SMS_8,150,5,42,127,1865040300
5,2,T1_SMS_8,151,1,48,51,1865816444
5,2,T1_SMS_8,152,5,42,127,1865839960
5,2,T1_SMS_8,153,1,48,54,1866567108
5,2,T1_SMS_8,154,5,42,127,1866639620
5,2,T1_SMS_8,155,1,48,65,1867362352
5,2,T1_SMS_8,156,5,42,127,1867439500
5,2,T1_SMS_8,157,1,48,58,1868196860
5,2,T1_SMS_8,158,5,42,127,1868240432
5,2,T1_SMS_8,159,1,48,70,1869005272
5,2,T1_SMS_8,160,5,42,127,1869039940
5,2,T1_SMS_8,161,1,48,59,1869806732
5,2,T1_SMS_8,162,5,42,127,1869839820
5,2,T1_SMS_8,163,1,48,64,1870599356
5,2,T1_SMS_8,164,5,42,127,1870639356
5,2,T1_SMS_8,165,1,48,59,1871419608
5,2,T1_SMS_8,166,5,42,127,1871440288
5,2,T1_SMS_8,167,1,48,60,1872213804
5,2,T1_SMS_8,168,5,42,127,1872239944
5,2,T1_SMS_8,169,1,48,57,1873024756
5,2,T1_SMS_8,170,5,42,127,1873039604
5,2,T1_SMS_8,171,1,48,57,1873766604
5,2,T1_SMS_8,172,5,42,127,1873839484
5,2,T1_SMS_8,173,1,48,57,1874555484
5,2,T1_SMS_8,174,5,42,127,1874640340
5,2,T1_SMS_8,175,1,48,57,1875353652
5,2,T1_SMS_8,176,5,42,127,1875440000
5,2,T1_SMS_8,177,1,48,56,1876151960
5,2,T1_SMS_8,178,5,42,127,1876239808
5,2,T1_SMS_8,179,1,48,55,1876969944
5,2,T1_SMS_8,180,5,42,127,1877039488
5,2,T1_SMS_8,181,1,48,54,1877762044
5,2,T1_SMS_8,182,5,42,127,1877840196
5,2,T1_SMS_8,183,1,48,55,1878552204
5,2,T1_SMS_8,184,5,42,127,1878639928
5,2,T1_SMS_8,185,1,48,56,1879360044
5,2,T1_SMS_8,186,5,42,127,1879439884
5,2,T1_SMS_8,187,1,48,56,1880145044
5,2,T1_SMS_8,188,5,42,127,1880239396
5,2,T1_SMS_8,189,1,48,59,1881005360
5,2,T1_SMS_8,190,5,42,127,1881040100
5,2,T1_SMS_8,191,1,48,59,1881814592
5,2,T1_SMS_8,192,5,42,127,1881839984
5,2,T1_SMS_8,193,1,48,51,1882602284
5,2,T1_SMS_8,194,5,42,127,1882639720
5,2,T1_SMS_8,195,1,48,54,1883426572
5,2,T1_SMS_8,196,5,42,127,1883439328
5,2,T1_SMS_8,197,1,48,59,1884238824
5,2,T1_SMS_8,198,5,42,127,1884240628
5,2,T1_SMS_8,199,1,48,59,1885018788
5,2,T1_SMS_8,200,5,42,127,1885040064
5,2,T1_SMS_8,201,1,48,60,1885808424
5,2,T1_SMS_8,202,5,42,127,1885839724
5,2,T1_SMS_8,203,1,48,60,1886598660
5,2,T1_SMS_8,204,5,42,127,1886639680
5,2,T1_SMS_8,205,1,48,56,1887370940
5,2,T1_SMS_8,206,5,42,127,1887440088
5,2,T1_SMS_8,207,1,48,49,1888139184
5,2,T1_SMS_8,208,5,42,127,1888240032
5,2,T1_SMS_8,209,1,48,48,1888962476
5,2,T1_SMS_8,210,5,42,127,1889039780
5,2,T1_SMS_8,211,1,48,51,1889810908
5,2,T1_SMS_8,212,5,42,127,1889839540
5,2,T1_SMS_8,213,1,48,58,1890570552
5,2,T1_SMS_8,214,5,42,127,1890640396
5,2,T1_SMS_8,215,1,48,59,1891366492
5,2,T1_SMS_8,216,5,42,127,1891439832
5,2,T1_SMS_8,217,1,48,66,1892195476
5,2,T1_SMS_8,218,5,42,127,1892239792
5,2,T1_SMS_8,219,5,42,127,1893039456
5,2,T1_SMS_8,220,1,48,67,1893043768
5,2,T1_SMS_8,221,5,42,127,1893840384
5,2,T1_SMS_8,222,1,48,61,1893847172
5,2,T1_SMS_8,223,1,48,65,1894616516
5,2,T1_SMS_8,224,5,42,127,1894639888
5,2,T1_SMS_8,225,1,48,62,1895427320
5,2,T1_SMS_8,226,5,42,127,1895439620
5,2,T1_SMS_8,227,5,42,127,1896239460
5,2,T1_SMS_8,228,1,48,56,1896242204
5,2,T1_SMS_8,229,5,42,127,1897040460
5,2,T1_SMS_8,230,1,48,54,1897050612
5,2,T1_SMS_8,231,1,48,55,1897797444
5,2,T1_SMS_8,232,5,42,127,1897840188
5,2,T1_SMS_8,233,1,48,57,1898597408
5,2,T1_SMS_8,234,5,42,127,1898639924
5,2,T1_SMS_8,235,1,48,62,1899395712
5,2,T1_SMS_8,236,5,42,127,1899439432
5,2,T1_SMS_8,237,1,48,55,1900167476
5,2,T1_SMS_8,238,5,42,127,1900240136
5,2,T1_SMS_8,239,1,48,62,1901005056
5,2,T1_SMS_8,0,9999,9999,9999,9999,1805037624
5,2,T1_SMS_8,1,9999,9999,9999,9999,1805837380
5,2,T1_SMS_8,2,9999,9999,9999,9999,1806637132
5,2,T1_SMS_8,3,9999,9999,9999,9999,1807437912
5,2,T1_SMS_8,4,9999,9999,9999,9999,1808237648
5,2,T1_SMS_8,5,9999,9999,9999,9999,1809037380
5,2,T1_SMS_8,6,9999,9999,9999,9999,1809837120
5,2,T1_SMS_8,7,9999,9999,9999,9999,1810637900
5,2,T1_SMS_8,8,9999,9999,9999,9999,1811437632
5,2,T1_SMS_8,9,9999,9999,9999,9999,1812237364
5,2,T1_SMS_8,10,9999,9999,9999,9999,1813037116
5,2,T1_SMS_8,11,9999,9999,9999,9999,1813837896
5,2,T1_SMS_8,12,9999,9999,9999,9999,1814637632
5,2,T1_SMS_8,13,9999,9999,9999,9999,1815437364
5,2,T1_SMS_8,14,9999,9999,9999,9999,1816237172
5,2,T1_SMS_8,15,9999,9999,9999,9999,1817037876
5,2,T1_SMS_8,16,9999,9999,9999,9999,1817837684
5,2,T1_SMS_8,17,9999,9999,9999,9999,1818637420
5,2,T1_SMS_8,18,9999,9999,9999,9999,1819437104
5,2,T1_SMS_8,19,9999,9999,9999,9999,1820237880
5,2,T1_SMS_8,20,9999,9999,9999,9999,1821037624
5,2,T1_SMS_8,21,9999,9999,9999,9999,1821837428
5,2,T1_SMS_8,22,9999,9999,9999,9999,1822637164
5,2,T1_SMS_8,23,9999,9999,9999,9999,1823437936
5,2,T1_SMS_8,24,9999,9999,9999,9999,1824237668
5,2,T1_SMS_8,25,9999,9999,9999,9999,1825037404
5,2,T1_SMS_8,26,9999,9999,9999,9999,1825837164
5,2,T1_SMS_8,27,9999,9999,9999,9999,1826637944
5,2,T1_SMS_8,28,9999,9999,9999,9999,1827437676
5,2,T1_SMS_8,29,9999,9999,9999,9999,1828237408
5,2,T1_SMS_8,30,9999,9999,9999,9999,1829037140
5,2,T1_SMS_8,31,9999,9999,9999,9999,1829837920
5,2,T1_SMS_8,32,9999,9999,9999,9999,1830637656
5,2,T1_SMS_8,33,9999,9999,9999,9999,1831437392
5,2,T1_SMS_8,34,9999,9999,9999,9999,1832237152
5,2,T1_SMS_8,35,9999,9999,9999,9999,1833037924
5,2,T1_SMS_8,36,9999,9999,9999,9999,1833837660
5,2,T1_SMS_8,37,9999,9999,9999,9999,1834637392
5,2,T1_SMS_8,38,9999,9999,9999,9999,1835437128
5,2,T1_SMS_8,39,9999,9999,9999,9999,1836237932
5,2,T1_SMS_8,40,9999,9999,9999,9999,1837037648
5,2,T1_SMS_8,41,9999,9999,9999,9999,1837837380
5,2,T1_SMS_8,42,9999,9999,9999,9999,1838637140
5,2,T1_SMS_8,43,9999,9999,9999,9999,1839437920
5,2,T1_SMS_8,44,9999,9999,9999,9999,1840237652
5,2,T1_SMS_8,45,9999,9999,9999,9999,1841037380
5,2,T1_SMS_8,46,9999,9999,9999,9999,1841837112
5,2,T1_SMS_8,47,9999,9999,9999,9999,1842637900
5,2,T1_SMS_8,48,9999,9999,9999,9999,1843437632
5,2,T1_SMS_8,49,9999,9999,9999,9999,1844237364
5,2,T1_SMS_8,50,9999,9999,9999,9999,1845037120
5,2,T1_SMS_8,51,9999,9999,9999,9999,1845837896
5,2,T1_SMS_8,52,9999,9999,9999,9999,1846637628
5,2,T1_SMS_8,53,9999,9999,9999,9999,1847437364
5,2,T1_SMS_8,54,9999,9999,9999,9999,1848237172
5,2,T1_SMS_8,55,9999,9999,9999,9999,1849037880
5,2,T1_SMS_8,56,9999,9999,9999,9999,1849837688
5,2,T1_SMS_8,57,9999,9999,9999,9999,1850637420
5,2,T1_SMS_8,58,9999,9999,9999,9999,1851437104
5,2,T1_SMS_8,59,9999,9999,9999,9999,1852237888
5,2,T1_SMS_8,60,9999,9999,9999,9999,1853037620
5,2,T1_SMS_8,61,9999,9999,9999,9999,1853837428
5,2,T1_SMS_8,62,9999,9999,9999,9999,1854637164
5,2,T1_SMS_8,63,9999,9999,9999,9999,1855437872
5,2,T1_SMS_8,64,9999,9999,9999,9999,1856237680
5,2,T1_SMS_8,65,9999,9999,9999,9999,1857037412
5,2,T1_SMS_8,66,9999,9999,9999,9999,1857837172
5,2,T1_SMS_8,67,9999,9999,9999,9999,1858637880
5,2,T1_SMS_8,68,9999,9999,9999,9999,1859437672
5,2,T1_SMS_8,69,9999,9999,9999,9999,1860237420
5,2,T1_SMS_8,70,9999,9999,9999,9999,1861037152
5,2,T1_SMS_8,71,9999,9999,9999,9999,1861837932
5,2,T1_SMS_8,72,9999,9999,9999,9999,1862637668
5,2,T1_SMS_8,73,9999,9999,9999,9999,1863437408
5,2,T1_SMS_8,74,9999,9999,9999,9999,1864237160
5,2,T1_SMS_8,75,9999,9999,9999,9999,1865037940
5,2,T1_SMS_8,76,9999,9999,9999,9999,1865837672
5,2,T1_SMS_8,77,9999,9999,9999,9999,1866637408
5,2,T1_SMS_8,78,9999,9999,9999,9999,1867437140
5,2,T1_SMS_8,79,9999,9999,9999,9999,1868237920
5,2,T1_SMS_8,80,9999,9999,9999,9999,1869037652
5,2,T1_SMS_8,81,9999,9999,9999,9999,1869837384
5,2,T1_SMS_8,82,9999,9999,9999,9999,1870637144
5,2,T1_SMS_8,83,9999,9999,9999,9999,1871437924
5,2,T1_SMS_8,84,9999,9999,9999,9999,1872237656
5,2,T1_SMS_8,85,9999,9999,9999,9999,1873037388
5,2,T1_SMS_8,86,9999,9999,9999,9999,1873837124
5,2,T1_SMS_8,87,9999,9999,9999,9999,1874637904
5,2,T1_SMS_8,88,9999,9999,9999,9999,1875437636
5,2,T1_SMS_8,89,9999,9999,9999,9999,1876237372
5,2,T1_SMS_8,90,9999,9999,9999,9999,1877037128
5,2,T1_SMS_8,91,9999,9999,9999,9999,1877837908
5,2,T1_SMS_8,92,9999,9999,9999,9999,1878637640
5,2,T1_SMS_8,93,9999,9999,9999,9999,1879437376
5,2,T1_SMS_8,94,9999,9999,9999,9999,1880237108
5,2,T1_SMS_8,95,9999,9999,9999,9999,1881037888
5,2,T1_SMS_8,96,9999,9999,9999,9999,1881837620
5,2,T1_SMS_8,97,9999,9999,9999,9999,1882637432
5,2,T1_SMS_8,98,9999,9999,9999,9999,1883437116
5,2,T1_SMS_8,99,9999,9999,9999,9999,1884237904
5,2,T1_SMS_8,100,9999,9999,9999,9999,1885037628
5,2,T1_SMS_8,101,9999,9999,9999,9999,1885837360
5,2,T1_SMS_8,102,9999,9999,9999,9999,1886637172
5,2,T1_SMS_8,103,9999,9999,9999,9999,1887437876
5,2,T1_SMS_8,104,9999,9999,9999,9999,1888237668
5,2,T1_SMS_8,105,9999,9999,9999,9999,1889037416
5,2,T1_SMS_8,106,9999,9999,9999,9999,1889837104
5,2,T1_SMS_8,107,9999,9999,9999,9999,1890637884
5,2,T1_SMS_8,108,9999,9999,9999,9999,1891437616
5,2,T1_SMS_8,109,9999,9999,9999,9999,1892237428
5,2,T1_SMS_8,110,9999,9999,9999,9999,1893037168
5,2,T1_SMS_8,111,9999,9999,9999,9999,1893837872
5,2,T1_SMS_8,112,9999,9999,9999,9999,1894637672
5,2,T1_SMS_8,113,9999,9999,9999,9999,1895437404
5,2,T1_SMS_8,114,9999,9999,9999,9999,1896237172
5,2,T1_SMS_8,115,9999,9999,9999,9999,1897037876
5,2,T1_SMS_8,116,9999,9999,9999,9999,1897837676
5,2,T1_SMS_8,117,9999,9999,9999,9999,1898637412
5,2,T1_SMS_8,118,9999,9999,9999,9999,1899437144
5,2,T1_SMS_8,119,9999,9999,9999,9999,1900237924
6,4,T1_SMS_5,0,5,42,127,2019501356
6,4,T1_SMS_5,1,5,42,127,2020001072
6,4,T1_SMS_5,2,5,42,127,2020500788
6,4,T1_SMS_5,3,5,42,127,2021000652
6,4,T1_SMS_5,4,1,48,64,2021037212
6,4,T1_SMS_5,5,5,42,127,2021501172
6,4,T1_SMS_5,6,1,48,64,2021521340
6,4,T1_SMS_5,7,5,42,127,2022000944
6,4,T1_SMS_5,8,1,48,70,2022014828
6,4,T1_SMS_5,9,5,42,127,2022500712
6,4,T1_SMS_5,10,1,48,70,2022507048
6,4,T1_SMS_5,11,1,48,76,2022989896
6,4,T1_SMS_5,12,5,42,127,2023000548
6,4,T1_SMS_5,13,1,48,79,2023495272
6,4,T1_SMS_5,14,5,42,127,2023501140
6,4,T1_SMS_5,15,1,48,79,2023992724
6,4,T1_SMS_5,16,5,42,127,2024000908
6,4,T1_SMS_5,17,1,48,74,2024496080
6,4,T1_SMS_5,18,5,42,127,2024500532
6,4,T1_SMS_5,19,1,48,75,2025001576
6,4,T1_SMS_5,20,5,42,127,2025002988
6,4,T1_SMS_5,21,5,42,127,2025501048
6,4,T1_SMS_5,22,1,48,76,2025523612
6,4,T1_SMS_5,23,5,42,127,2026000716
6,4,T1_SMS_5,24,1,48,71,2026007524
6,4,T1_SMS_5,25,1,48,69,2026499960
6,4,T1_SMS_5,26,5,42,127,2026501748
6,4,T1_SMS_5,27,5,42,127,2027001452
6,4,T1_SMS_5,28,1,48,64,2027006144
6,4,T1_SMS_5,29,1,48,59,2027498804
6,4,T1_SMS_5,30,5,42,127,2027500840
6,4,T1_SMS_5,31,1,48,62,2027979408
6,4,T1_SMS_5,32,5,42,127,2028000684
6,4,T1_SMS_5,33,1,48,56,2028491296
6,4,T1_SMS_5,34,5,42,127,2028501576
6,4,T1_SMS_5,35,1,48,63,2028992188
6,4,T1_SMS_5,36,5,42,127,2029000976
6,4,T1_SMS_5,37,5,42,127,2029500900
6,4,T1_SMS_5,38,1,48,64,2029522196
6,4,T1_SMS_5,39,1,48,63,2029995168
6,4,T1_SMS_5,40,5,42,127,2030000440
6,4,T1_SMS_5,41,1,48,66,2030477588
6,4,T1_SMS_5,42,5,42,127,2030501404
6,4,T1_SMS_5,43,1,48,67,2030984080
6,4,T1_SMS_5,44,5,42,127,2031000948
6,4,T1_SMS_5,45,1,48,69,2031462836
6,4,T1_SMS_5,46,5,42,127,2031500568
6,4,T1_SMS_5,47,1,48,64,2031978236
6,4,T1_SMS_5,48,5,42,127,2032001460
6,4,T1_SMS_5,49,1,48,65,2032479952
6,4,T1_SMS_5,50,5,42,127,2032501228
6,4,T1_SMS_5,51,1,48,60,2032981220
6,4,T1_SMS_5,52,5,42,127,2033000848
6,4,T1_SMS_5,53,1,48,61,2033480464
6,4,T1_SMS_5,54,5,42,127,2033500620
6,4,T1_SMS_5,55,1,48,64,2033968716
6,4,T1_SMS_5,56,5,42,127,2034001136
6,4,T1_SMS_5,57,1,48,68,2034470132
6,4,T1_SMS_5,58,5,42,127,2034501276
6,4,T1_SMS_5,59,1,48,64,2034982992
6,4,T1_SMS_5,60,5,42,127,2035000900
6,4,T1_SMS_5,61,1,48,67,2035487396
6,4,T1_SMS_5,62,5,42,127,2035501344
6,4,T1_SMS_5,63,1,48,59,2035982428
6,4,T1_SMS_5,64,5,42,127,2036001112
6,4,T1_SMS_5,65,1,48,55,2036479728
6,4,T1_SMS_5,66,5,42,127,2036500880
6,4,T1_SMS_5,67,1,48,55,2036979800
6,4,T1_SMS_5,68,5,42,127,2037000624
6,4,T1_SMS_5,69,1,48,59,2037467304
6,4,T1_SMS_5,70,5,42,127,2037501292
6,4,T1_SMS_5,71,1,48,60,2037946052
6,4,T1_SMS_5,72,5,42,127,2038001140
6,4,T1_SMS_5,73,1,48,60,2038455844
6,4,T1_SMS_5,74,5,42,127,2038500832
6,4,T1_SMS_5,75,1,48,67,2038947464
6,4,T1_SMS_5,76,5,42,127,2039000456
6,4,T1_SMS_5,77,1,48,55,2039464140
6,4,T1_SMS_5,78,5,42,127,2039501052
6,4,T1_SMS_5,79,1,48,59,2039961292
6,4,T1_SMS_5,80,5,42,127,2040000896
6,4,T1_SMS_5,81,1,48,56,2040457700
6,4,T1_SMS_5,82,5,42,127,2040500440
6,4,T1_SMS_5,83,1,48,53,2040976916
6,4,T1_SMS_5,84,5,42,127,2041001184
6,4,T1_SMS_5,85,1,48,54,2041473836
6,4,T1_SMS_5,86,5,42,127,2041501100
6,4,T1_SMS_5,87,1,48,59,2041954464
6,4,T1_SMS_5,88,5,42,127,2042000868
6,4,T1_SMS_5,89,1,48,61,2042450860
6,4,T1_SMS_5,90,5,42,127,2042500340
6,4,T1_SMS_5,91,1,48,52,2042962452
6,4,T1_SMS_5,92,5,42,127,2043001156
6,4,T1_SMS_5,93,1,48,57,2043459380
6,4,T1_SMS_5,94,5,42,127,2043501000
6,4,T1_SMS_5,95,1,48,59,2043956684
6,4,T1_SMS_5,96,5,42,127,2044000844
6,4,T1_SMS_5,97,1,48,62,2044445080
6,4,T1_SMS_5,98,5,42,127,2044501436
6,4,T1_SMS_5,99,1,48,59,2044963848
6,4,T1_SMS_5,100,5,42,127,2045000984
6,4,T1_SMS_5,101,1,48,61,2045438464
6,4,T1_SMS_5,102,5,42,127,2045500680
6,4,T1_SMS_5,103,1,48,59,2045935912
6,4,T1_SMS_5,104,5,42,127,2046000448
6,4,T1_SMS_5,105,1,48,59,2046458716
6,4,T1_SMS_5,106,5,42,127,2046501188
6,4,T1_SMS_5,107,1,48,56,2046960956
6,4,T1_SMS_5,108,5,42,127,2047000956
6,4,T1_SMS_5,109,1,48,58,2047435736
6,4,T1_SMS_5,110,5,42,127,2047500852
6,4,T1_SMS_5,111,1,48,64,2047958328
6,4,T1_SMS_5,112,5,42,127,2048001520
6,4,T1_SMS_5,113,1,48,55,2048456904
6,4,T1_SMS_5,114,5,42,127,2048501064
6,4,T1_SMS_5,115,1,48,66,2048957416
6,4,T1_SMS_5,116,5,42,127,2049000760
6,4,T1_SMS_5,117,1,48,62,2049472292
6,4,T1_SMS_5,118,5,42,127,2049500604
6,4,T1_SMS_5,119,1,48,58,2049954336
6,4,T1_SMS_5,120,5,42,127,2050001196
6,4,T1_SMS_5,121,1,48,54,2050485072
6,4,T1_SMS_5,122,5,42,127,2050500968
6,4,T1_SMS_5,123,1,48,56,2050966440
6,4,T1_SMS_5,124,5,42,127,2051000588
6,4,T1_SMS_5,125,1,48,57,2051468912
6,4,T1_SMS_5,126,5,42,127,2051501628
6,4,T1_SMS_5,127,1,48,59,2051979604
6,4,T1_SMS_5,128,5,42,127,2052001104
6,4,T1_SMS_5,129,1,48,55,2052484160
6,4,T1_SMS_5,130,5,42,127,2052500800
6,4,T1_SMS_5,131,1,48,61,2052980940
6,4,T1_SMS_5,132,5,42,127,2053000568
6,4,T1_SMS_5,133,1,48,61,2053478616
6,4,T1_SMS_5,134,5,42,127,2053501532
6,4,T1_SMS_5,135,1,48,58,2053994016
6,4,T1_SMS_5,136,5,42,127,2054001008
6,4,T1_SMS_5,137,1,48,56,2054491764
6,4,T1_SMS_5,138,5,42,127,2054500776
6,4,T1_SMS_5,139,1,48,58,2054975752
6,4,T1_SMS_5,140,5,42,127,2055000620
6,4,T1_SMS_5,141,1,48,56,2055474476
6,4,T1_SMS_5,142,5,42,127,2055501436
6,4,T1_SMS_5,143,1,48,59,2055979260
6,4,T1_SMS_5,144,5,42,127,2056000908
6,4,T1_SMS_5,145,1,48,64,2056484856
6,4,T1_SMS_5,146,5,42,127,2056500528
6,4,T1_SMS_5,147,1,48,63,2056957676
6,4,T1_SMS_5,148,5,42,127,2057001492
6,4,T1_SMS_5,149,1,48,61,2057484072
6,4,T1_SMS_5,150,5,42,127,2057500888
6,4,T1_SMS_5,151,1,48,68,2057963496
6,4,T1_SMS_5,152,5,42,127,2058000636
6,4,T1_SMS_5,153,1,48,53,2058484732
6,4,T1_SMS_5,154,5,42,127,2058500404
6,4,T1_SMS_5,155,1,48,65,2058966184
6,4,T1_SMS_5,156,5,42,127,2059001296
6,4,T1_SMS_5,157,1,48,57,2059495192
6,4,T1_SMS_5,158,5,42,127,2059500768
6,4,T1_SMS_5,159,1,48,66,2059979784
6,4,T1_SMS_5,160,5,42,127,2060000608
6,4,T1_SMS_5,161,1,48,63,2060484716
6,4,T1_SMS_5,162,5,42,127,2060501280
6,4,T1_SMS_5,163,1,48,59,2060970868
6,4,T1_SMS_5,164,5,42,127,2061001120
6,4,T1_SMS_5,165,1,48,59,2061466224
6,4,T1_SMS_5,166,5,42,127,2061500668
6,4,T1_SMS_5,167,1,48,61,2061947152
6,4,T1_SMS_5,168,5,42,127,2062000364
6,4,T1_SMS_5,169,1,48,57,2062474516
6,4,T1_SMS_5,170,5,42,127,2062501328
6,4,T1_SMS_5,171,1,48,61,2062984460
6,4,T1_SMS_5,172,5,42,127,2063001096
6,4,T1_SMS_5,173,1,48,57,2063483108
6,4,T1_SMS_5,174,5,42,127,2063500644
6,4,T1_SMS_5,175,1,48,61,2063981156
6,4,T1_SMS_5,176,5,42,127,2064001312
6,4,T1_SMS_5,177,1,48,54,2064482268
6,4,T1_SMS_5,178,5,42,127,2064501008
6,4,T1_SMS_5,179,1,48,59,2064978976
6,4,T1_SMS_5,180,5,42,127,2065000776
6,4,T1_SMS_5,181,1,48,63,2065475756
6,4,T1_SMS_5,182,5,42,127,2065500696
6,4,T1_SMS_5,183,1,48,57,2065998116
6,4,T1_SMS_5,184,5,42,127,2066001216
6,4,T1_SMS_5,185,1,48,57,2066499400
6,4,T1_SMS_5,186,5,42,127,2066501280
6,4,T1_SMS_5,187,1,48,61,2066990844
6,4,T1_SMS_5,188,5,42,127,2067000900
6,4,T1_SMS_5,189,5,42,127,2067501352
6,4,T1_SMS_5,190,1,48,51,2067518984
6,4,T1_SMS_5,191,1,48,55,2067988436
6,4,T1_SMS_5,192,5,42,127,2068001116
6,4,T1_SMS_5,193,1,48,56,2068490356
6,4,T1_SMS_5,194,5,42,127,2068500884
6,4,T1_SMS_5,195,1,48,59,2068981896
6,4,T1_SMS_5,196,5,42,127,2069000480
6,4,T1_SMS_5,197,1,48,53,2069494004
6,4,T1_SMS_5,198,5,42,127,2069501148
6,4,T1_SMS_5,199,5,42,127,2070001072
6,4,T1_SMS_5,200,1,48,55,2070007036
6,4,T1_SMS_5,201,1,48,54,2070485316
6,4,T1_SMS_5,202,5,42,127,2070500832
6,4,T1_SMS_5,203,1,48,52,2070998796
6,4,T1_SMS_5,204,5,42,127,2071000604
6,4,T1_SMS_5,205,1,48,54,2071496828
6,4,T1_SMS_5,206,5,42,127,2071501120
6,4,T1_SMS_5,207,1,48,61,2071989636
6,4,T1_SMS_5,208,5,42,127,2072000816
6,4,T1_SMS_5,209,1,48,53,2072493072
6,4,T1_SMS_5,210,5,42,127,2072500808
6,4,T1_SMS_5,211,1,48,58,2072990372
6,4,T1_SMS_5,212,5,42,127,2073001256
6,4,T1_SMS_5,213,1,48,56,2073459928
6,4,T1_SMS_5,214,5,42,127,2073501024
6,4,T1_SMS_5,215,1,48,59,2073982732
6,4,T1_SMS_5,216,5,42,127,2074000868
6,4,T1_SMS_5,217,1,48,60,2074456176
6,4,T1_SMS_5,218,5,42,127,2074500488
6,4,T1_SMS_5,219,1,48,59,2074971872
6,4,T1_SMS_5,220,5,42,127,2075001228
6,4,T1_SMS_5,221,1,48,56,2075473288
6,4,T1_SMS_5,222,5,42,127,2075500776
6,4,T1_SMS_5,223,1,48,58,2075979872
6,4,T1_SMS_5,224,5,42,127,2076000696
6,4,T1_SMS_5,225,1,48,62,2076484124
6,4,T1_SMS_5,226,5,42,127,2076501360
6,4,T1_SMS_5,227,1,48,58,2076966240
6,4,T1_SMS_5,228,5,42,127,2077001204
6,4,T1_SMS_5,229,1,48,56,2077477156
6,4,T1_SMS_5,230,5,42,127,2077500752
6,4,T1_SMS_5,231,1,48,62,2077979096
6,4,T1_SMS_5,232,5,42,127,2078000444
6,4,T1_SMS_5,233,1,48,55,2078486336
6,4,T1_SMS_5,234,5,42,127,2078501336
6,4,T1_SMS_5,235,1,48,50,2078973148
6,4,T1_SMS_5,236,5,42,127,2079000956
6,4,T1_SMS_5,237,1,48,57,2079486380
6,4,T1_SMS_5,238,5,42,127,2079500552
6,4,T1_SMS_5,239,1,48,56,2079977700
6,4,T1_SMS_5,240,5,42,127,2080001440
6,4,T1_SMS_5,241,1,48,51,2080474696
6,4,T1_SMS_5,242,5,42,127,2080501136
6,4,T1_SMS_5,243,1,48,54,2080956968
6,4,T1_SMS_5,244,5,42,127,2081000756
6,4,T1_SMS_5,245,1,48,54,2081478128
6,4,T1_SMS_5,246,5,42,127,2081500380
6,4,T1_SMS_5,247,1,48,57,2081963760
6,4,T1_SMS_5,248,5,42,127,2082001416
6,4,T1_SMS_5,249,1,48,51,2082456876
6,4,T1_SMS_5,250,5,42,127,2082501040
6,4,T1_SMS_5,251,1,48,46,2082979236
6,4,T1_SMS_5,252,5,42,127,2083000732
6,4,T1_SMS_5,253,1,48,51,2083442052
6,4,T1_SMS_5,254,5,42,127,2083501328
6,4,T1_SMS_5,255,1,48,56,2083958724
6,4,T1_SMS_5,256,5,42,127,2084001096
6,4,T1_SMS_5,257,1,48,46,2084456248
6,4,T1_SMS_5,0,9999,9999,9999,9999,2019499068
6,4,T1_SMS_5,1,9999,9999,9999,9999,2019998784
6,4,T1_SMS_5,2,9999,9999,9999,9999,2020498500
6,4,T1_SMS_5,3,9999,9999,9999,9999,2020998216
6,4,T1_SMS_5,4,9999,9999,9999,9999,2021498960
6,4,T1_SMS_5,5,9999,9999,9999,9999,2021998656
6,4,T1_SMS_5,6,9999,9999,9999,9999,2022498424
6,4,T1_SMS_5,7,9999,9999,9999,9999,2022998112
6,4,T1_SMS_5,8,9999,9999,9999,9999,2023498856
6,4,T1_SMS_5,9,9999,9999,9999,9999,2023998548
6,4,T1_SMS_5,10,9999,9999,9999,9999,2024498244
6,4,T1_SMS_5,11,9999,9999,9999,9999,2024998992
6,4,T1_SMS_5,12,9999,9999,9999,9999,2025498688
6,4,T1_SMS_5,13,9999,9999,9999,9999,2025998432
6,4,T1_SMS_5,14,9999,9999,9999,9999,2026498124
6,4,T1_SMS_5,15,9999,9999,9999,9999,2026998868
6,4,T1_SMS_5,16,9999,9999,9999,9999,2027498592
6,4,T1_SMS_5,17,9999,9999,9999,9999,2027998324
6,4,T1_SMS_5,18,9999,9999,9999,9999,2028498992
6,4,T1_SMS_5,19,9999,9999,9999,9999,2028998764
6,4,T1_SMS_5,20,9999,9999,9999,9999,2029498464
6,4,T1_SMS_5,21,9999,9999,9999,9999,2029998152
6,4,T1_SMS_5,22,9999,9999,9999,9999,2030498892
6,4,T1_SMS_5,23,9999,9999,9999,9999,2030998588
6,4,T1_SMS_5,24,9999,9999,9999,9999,2031498356
6,4,T1_SMS_5,25,9999,9999,9999,9999,2031999024
6,4,T1_SMS_5,26,9999,9999,9999,9999,2032498792
6,4,T1_SMS_5,27,9999,9999,9999,9999,2032998488
6,4,T1_SMS_5,28,9999,9999,9999,9999,2033498184
6,4,T1_SMS_5,29,9999,9999,9999,9999,2033998924
6,4,T1_SMS_5,30,9999,9999,9999,9999,2034498620
6,4,T1_SMS_5,31,9999,9999,9999,9999,2034998388
6,4,T1_SMS_5,32,9999,9999,9999,9999,2035499056
6,4,T1_SMS_5,33,9999,9999,9999,9999,2035998824
6,4,T1_SMS_5,34,9999,9999,9999,9999,2036498520
6,4,T1_SMS_5,35,9999,9999,9999,9999,2036998264
6,4,T1_SMS_5,36,9999,9999,9999,9999,2037498932
6,4,T1_SMS_5,37,9999,9999,9999,9999,2037998704
6,4,T1_SMS_5,38,9999,9999,9999,9999,2038498400
6,4,T1_SMS_5,39,9999,9999,9999,9999,2038998096
6,4,T1_SMS_5,40,9999,9999,9999,9999,2039498840
6,4,T1_SMS_5,41,9999,9999,9999,9999,2039998532
6,4,T1_SMS_5,42,9999,9999,9999,9999,2040498228
6,4,T1_SMS_5,43,9999,9999,9999,9999,2040998972
6,4,T1_SMS_5,44,9999,9999,9999,9999,2041498740
6,4,T1_SMS_5,45,9999,9999,9999,9999,2041998436
6,4,T1_SMS_5,46,9999,9999,9999,9999,2042498128
6,4,T1_SMS_5,47,9999,9999,9999,9999,2042998872
6,4,T1_SMS_5,48,9999,9999,9999,9999,2043498568
6,4,T1_SMS_5,49,9999,9999,9999,9999,2043998260
6,4,T1_SMS_5,50,9999,9999,9999,9999,2044499004
6,4,T1_SMS_5,51,9999,9999,9999,9999,2044998772
6,4,T1_SMS_5,52,9999,9999,9999,9999,2045498468
6,4,T1_SMS_5,53,9999,9999,9999,9999,2045998160
6,4,T1_SMS_5,54,9999,9999,9999,9999,2046498900
6,4,T1_SMS_5,55,9999,9999,9999,9999,2046998596
6,4,T1_SMS_5,56,9999,9999,9999,9999,2047498340
6,4,T1_SMS_5,57,9999,9999,9999,9999,2047999084
6,4,T1_SMS_5,58,9999,9999,9999,9999,2048498780
6,4,T1_SMS_5,59,9999,9999,9999,9999,2048998472
6,4,T1_SMS_5,60,9999,9999,9999,9999,2049498168
6,4,T1_SMS_5,61,9999,9999,9999,9999,2049998912
6,4,T1_SMS_5,62,9999,9999,9999,9999,2050498680
6,4,T1_SMS_5,63,9999,9999,9999,9999,2050998376
6,4,T1_SMS_5,64,9999,9999,9999,9999,2051499120
6,4,T1_SMS_5,65,9999,9999,9999,9999,2051998816
6,4,T1_SMS_5,66,9999,9999,9999,9999,2052498512
6,4,T1_SMS_5,67,9999,9999,9999,9999,2052998208
6,4,T1_SMS_5,68,9999,9999,9999,9999,2053498948
6,4,T1_SMS_5,69,9999,9999,9999,9999,2053998648
6,4,T1_SMS_5,70,9999,9999,9999,9999,2054498416
6,4,T1_SMS_5,71,9999,9999,9999,9999,2054998112
6,4,T1_SMS_5,72,9999,9999,9999,9999,2055498852
6,4,T1_SMS_5,73,9999,9999,9999,9999,2055998548
6,4,T1_SMS_5,74,9999,9999,9999,9999,2056498244
6,4,T1_SMS_5,75,9999,9999,9999,9999,2056998984
6,4,T1_SMS_5,76,9999,9999,9999,9999,2057498676
6,4,T1_SMS_5,77,9999,9999,9999,9999,2057998424
6,4,T1_SMS_5,78,9999,9999,9999,9999,2058498116
6,4,T1_SMS_5,79,9999,9999,9999,9999,2058998860
6,4,T1_SMS_5,80,9999,9999,9999,9999,2059498556
6,4,T1_SMS_5,81,9999,9999,9999,9999,2059998324
6,4,T1_SMS_5,82,9999,9999,9999,9999,2060498992
6,4,T1_SMS_5,83,9999,9999,9999,9999,2060998760
6,4,T1_SMS_5,84,9999,9999,9999,9999,2061498456
6,4,T1_SMS_5,85,9999,9999,9999,9999,2061998152
6,4,T1_SMS_5,86,9999,9999,9999,9999,2062498892
6,4,T1_SMS_5,87,9999,9999,9999,9999,2062998588
6,4,T1_SMS_5,88,9999,9999,9999,9999,2063498360
6,4,T1_SMS_5,89,9999,9999,9999,9999,2063999024
6,4,T1_SMS_5,90,9999,9999,9999,9999,2064498796
6,4,T1_SMS_5,91,9999,9999,9999,9999,2064998488
6,4,T1_SMS_5,92,9999,9999,9999,9999,2065498184
6,4,T1_SMS_5,93,9999,9999,9999,9999,2065998928
6,4,T1_SMS_5,94,9999,9999,9999,9999,2066498628
6,4,T1_SMS_5,95,9999,9999,9999,9999,2066998392
6,4,T1_SMS_5,96,9999,9999,9999,9999,2067499068
6,4,T1_SMS_5,97,9999,9999,9999,9999,2067998828
6,4,T1_SMS_5,98,9999,9999,9999,9999,2068498524
6,4,T1_SMS_5,99,9999,9999,9999,9999,2068998192
6,4,T1_SMS_5,100,9999,9999,9999,9999,2069498936
6,4,T1_SMS_5,101,9999,9999,9999,9999,2069998712
6,4,T1_SMS_5,102,9999,9999,9999,9999,2070498396
6,4,T1_SMS_5,103,9999,9999,9999,9999,2070998104
6,4,T1_SMS_5,104,9999,9999,9999,9999,2071498836
6,4,T1_SMS_5,105,9999,9999,9999,9999,2071998528
6,4,T1_SMS_5,106,9999,9999,9999,9999,2072498224
6,4,T1_SMS_5,107,9999,9999,9999,9999,2072998968
6,4,T1_SMS_5,108,9999,9999,9999,9999,2073498740
6,4,T1_SMS_5,109,9999,9999,9999,9999,2073998432
6,4,T1_SMS_5,110,9999,9999,9999,9999,2074498128
6,4,T1_SMS_5,111,9999,9999,9999,9999,2074998868
6,4,T1_SMS_5,112,9999,9999,9999,9999,2075498564
6,4,T1_SMS_5,113,9999,9999,9999,9999,2075998260
6,4,T1_SMS_5,114,9999,9999,9999,9999,2076499000
6,4,T1_SMS_5,115,9999,9999,9999,9999,2076998768
6,4,T1_SMS_5,116,9999,9999,9999,9999,2077498464
6,4,T1_SMS_5,117,9999,9999,9999,9999,2077998160
6,4,T1_SMS_5,118,9999,9999,9999,9999,2078498900
6,4,T1_SMS_5,119,9999,9999,9999,9999,2078998596
6,4,T1_SMS_5,120,9999,9999,9999,9999,2079498340
6,4,T1_SMS_5,121,9999,9999,9999,9999,2079999080
6,4,T1_SMS_5,122,9999,9999,9999,9999,2080498776
6,4,T1_SMS_5,123,9999,9999,9999,9999,2080998472
6,4,T1_SMS_5,124,9999,9999,9999,9999,2081498168
6,4,T1_SMS_5,125,9999,9999,9999,9999,2081998908
6,4,T1_SMS_5,126,9999,9999,9999,9999,2082498680
6,4,T1_SMS_5,127,9999,9999,9999,9999,2082998372
6,4,T1_SMS_5,128,9999,9999,9999,9999,2083499116
6,4,T1_SMS_5,129,9999,9999,9999,9999,2083998808
7,9,Ticks_ISO_T2_8,0,5,42,127,2097648156
7,9,Ticks_ISO_T2_8,1,5,42,127,2098447936
7,9,Ticks_ISO_T2_8,2,5,42,127,2099247468
7,9,Ticks_ISO_T2_8,3,1,48,70,2099282748
7,9,Ticks_ISO_T2_8,4,1,48,74,2100024196
7,9,Ticks_ISO_T2_8,5,5,42,127,2100048168
7,9,Ticks_ISO_T2_8,6,1,48,68,2100812116
7,9,Ticks_ISO_T2_8,7,5,42,127,2100848056
7,9,Ticks_ISO_T2_8,8,1,48,65,2101588516
7,9,Ticks_ISO_T2_8,9,5,42,127,2101647716
7,9,Ticks_ISO_T2_8,10,1,48,67,2102405600
7,9,Ticks_ISO_T2_8,11,5,42,127,2102447896
7,9,Ticks_ISO_T2_8,12,1,48,62,2103207656
7,9,Ticks_ISO_T2_8,13,5,42,127,2103248380
7,9,Ticks_ISO_T2_8,14,1,48,62,2104016216
7,9,Ticks_ISO_T2_8,15,5,42,127,2104047968
7,9,Ticks_ISO_T2_8,16,1,48,62,2104828444
7,9,Ticks_ISO_T2_8,17,5,42,127,2104847872
7,9,Ticks_ISO_T2_8,18,1,48,60,2105645268
7,9,Ticks_ISO_T2_8,19,5,42,127,2105647684
7,9,Ticks_ISO_T2_8,20,1,48,49,2106419180
7,9,Ticks_ISO_T2_8,21,5,42,127,2106448092
7,9,Ticks_ISO_T2_8,22,1,48,57,2107233952
7,9,Ticks_ISO_T2_8,23,5,42,127,2107247976
7,9,Ticks_ISO_T2_8,24,5,42,127,2108047792
7,9,Ticks_ISO_T2_8,25,1,48,57,2108087936
7,9,Ticks_ISO_T2_8,26,5,42,127,2108847452
7,9,Ticks_ISO_T2_8,27,1,48,55,2108848712
7,9,Ticks_ISO_T2_8,28,1,48,50,2109635848
7,9,Ticks_ISO_T2_8,29,5,42,127,2109648448
7,9,Ticks_ISO_T2_8,30,1,48,57,2110426680
7,9,Ticks_ISO_T2_8,31,5,42,127,2110447880
7,9,Ticks_ISO_T2_8,32,1,48,57,2111237412
7,9,Ticks_ISO_T2_8,33,5,42,127,2111247864
7,9,Ticks_ISO_T2_8,34,1,48,54,2112034924
7,9,Ticks_ISO_T2_8,35,5,42,127,2112047376
7,9,Ticks_ISO_T2_8,36,1,48,54,2112839592
7,9,Ticks_ISO_T2_8,37,5,42,127,2112848304
7,9,Ticks_ISO_T2_8,38,1,48,57,2113632144
7,9,Ticks_ISO_T2_8,39,5,42,127,2113648036
7,9,Ticks_ISO_T2_8,40,1,48,57,2114436144
7,9,Ticks_ISO_T2_8,41,5,42,127,2114447844
7,9,Ticks_ISO_T2_8,42,1,48,63,2115247584
7,9,Ticks_ISO_T2_8,43,5,42,127,2115249224
7,9,Ticks_ISO_T2_8,44,5,42,127,2116048364
7,9,Ticks_ISO_T2_8,45,1,48,57,2116051408
7,9,Ticks_ISO_T2_8,46,1,48,56,2116829212
7,9,Ticks_ISO_T2_8,47,5,42,127,2116847940
7,9,Ticks_ISO_T2_8,48,1,48,56,2117583240
7,9,Ticks_ISO_T2_8,49,5,42,127,2117647624
7,9,Ticks_ISO_T2_8,50,1,48,59,2118396960
7,9,Ticks_ISO_T2_8,51,5,42,127,2118447360
7,9,Ticks_ISO_T2_8,52,1,48,56,2119189312
7,9,Ticks_ISO_T2_8,53,5,42,127,2119248212
7,9,Ticks_ISO_T2_8,54,1,48,55,2120017768
7,9,Ticks_ISO_T2_8,55,5,42,127,2120048096
7,9,Ticks_ISO_T2_8,56,1,48,57,2120800600
7,9,Ticks_ISO_T2_8,57,5,42,127,2120847756
7,9,Ticks_ISO_T2_8,58,1,48,59,2121605788
7,9,Ticks_ISO_T2_8,59,5,42,127,2121647564
7,9,Ticks_ISO_T2_8,60,1,48,65,2122406272
7,9,Ticks_ISO_T2_8,61,5,42,127,2122448192
7,9,Ticks_ISO_T2_8,62,1,48,60,2123202412
7,9,Ticks_ISO_T2_8,63,5,42,127,2123248076
7,9,Ticks_ISO_T2_8,64,1,48,54,2123992128
7,9,Ticks_ISO_T2_8,65,5,42,127,2124047984
7,9,Ticks_ISO_T2_8,66,1,48,58,2124788044
7,9,Ticks_ISO_T2_8,67,5,42,127,2124847492
7,9,Ticks_ISO_T2_8,68,1,48,54,2125625796
7,9,Ticks_ISO_T2_8,69,5,42,127,2125648344
7,9,Ticks_ISO_T2_8,70,1,48,51,2126442736
7,9,Ticks_ISO_T2_8,71,5,42,127,2126448004
7,9,Ticks_ISO_T2_8,72,5,42,127,2127247820
7,9,Ticks_ISO_T2_8,73,1,48,49,2127250860
7,9,Ticks_ISO_T2_8,74,1,48,51,2128000092
7,9,Ticks_ISO_T2_8,75,5,42,127,2128047320
7,9,Ticks_ISO_T2_8,76,1,48,49,2128808648
7,9,Ticks_ISO_T2_8,77,5,42,127,2128848324
7,9,Ticks_ISO_T2_8,78,1,48,53,2129615856
7,9,Ticks_ISO_T2_8,79,5,42,127,2129648208
7,9,Ticks_ISO_T2_8,80,1,48,50,2130406092
7,9,Ticks_ISO_T2_8,81,5,42,127,2130447816
7,9,Ticks_ISO_T2_8,82,1,48,50,2131197528
7,9,Ticks_ISO_T2_8,83,5,42,127,2131247772
7,9,Ticks_ISO_T2_8,84,1,48,49,2131996012
7,9,Ticks_ISO_T2_8,85,5,42,127,2132048108
7,9,Ticks_ISO_T2_8,86,1,48,49,2132773232
7,9,Ticks_ISO_T2_8,87,5,42,127,2132848064
7,9,Ticks_ISO_T2_8,88,1,48,48,2133617172
7,9,Ticks_ISO_T2_8,89,5,42,127,2133647648
7,9,Ticks_ISO_T2_8,90,1,48,51,2134431940
7,9,Ticks_ISO_T2_8,91,5,42,127,2134447752
7,9,Ticks_ISO_T2_8,92,1,48,47,2135220600
7,9,Ticks_ISO_T2_8,93,5,42,127,2135248384
7,9,Ticks_ISO_T2_8,94,5,42,127,2136048052
7,9,Ticks_ISO_T2_8,95,1,48,54,2136092108
7,9,Ticks_ISO_T2_8,96,1,48,50,2136824480
7,9,Ticks_ISO_T2_8,97,5,42,127,2136847580
7,9,Ticks_ISO_T2_8,98,1,48,56,2137577092
7,9,Ticks_ISO_T2_8,99,5,42,127,2137647460
7,9,Ticks_ISO_T2_8,100,1,48,58,2138345108
7,9,Ticks_ISO_T2_8,101,5,42,127,2138448372
7,9,Ticks_ISO_T2_8,102,1,48,54,2139166704
7,9,Ticks_ISO_T2_8,103,5,42,127,2139247972
7,9,Ticks_ISO_T2_8,104,1,48,54,2139989108
7,9,Ticks_ISO_T2_8,105,5,42,127,2140047708
7,9,Ticks_ISO_T2_8,106,1,48,53,2140800508
7,9,Ticks_ISO_T2_8,107,5,42,127,2140847516
7,9,Ticks_ISO_T2_8,108,1,48,51,2141584380
7,9,Ticks_ISO_T2_8,109,5,42,127,2141648444
7,9,Ticks_ISO_T2_8,110,1,48,50,2142431160
7,9,Ticks_ISO_T2_8,111,5,42,127,2142447880
7,9,Ticks_ISO_T2_8,112,1,48,50,2143192380
7,9,Ticks_ISO_T2_8,113,5,42,127,2143247788
7,9,Ticks_ISO_T2_8,114,1,48,54,2143976852
7,9,Ticks_ISO_T2_8,115,5,42,127,2144047448
7,9,Ticks_ISO_T2_8,116,1,48,54,2144775984
7,9,Ticks_ISO_T2_8,117,5,42,127,2144848152
7,9,Ticks_ISO_T2_8,118,1,48,51,2145586372
7,9,Ticks_ISO_T2_8,119,5,42,127,2145648184
7,9,Ticks_ISO_T2_8,120,5,42,127,2146447848
7,9,Ticks_ISO_T2_8,121,1,48,48,2146458296
7,9,Ticks_ISO_T2_8,122,1,48,54,2147224204
7,9,Ticks_ISO_T2_8,123,5,42,127,2147247428
7,9,Ticks_ISO_T2_8,124,1,48,59,2148035904
7,9,Ticks_ISO_T2_8,125,5,42,127,2148048208
7,9,Ticks_ISO_T2_8,126,1,48,50,2148829656
7,9,Ticks_ISO_T2_8,127,5,42,127,2148848088
7,9,Ticks_ISO_T2_8,128,1,48,51,2149621236
7,9,Ticks_ISO_T2_8,129,5,42,127,2149647696
7,9,Ticks_ISO_T2_8,130,1,48,52,2150436620
7,9,Ticks_ISO_T2_8,131,5,42,127,2150447432
7,9,Ticks_ISO_T2_8,132,1,48,56,2151224468
7,9,Ticks_ISO_T2_8,133,5,42,127,2151248140
7,9,Ticks_ISO_T2_8,134,1,48,56,2152040512
7,9,Ticks_ISO_T2_8,135,5,42,127,2152047872
7,9,Ticks_ISO_T2_8,136,1,48,55,2152828124
7,9,Ticks_ISO_T2_8,137,5,42,127,2152847680
7,9,Ticks_ISO_T2_8,138,1,48,60,2153626208
7,9,Ticks_ISO_T2_8,139,5,42,127,2153647340
7,9,Ticks_ISO_T2_8,140,1,48,52,2154415092
7,9,Ticks_ISO_T2_8,141,5,42,127,2154448192
7,9,Ticks_ISO_T2_8,142,1,48,53,2155225452
7,9,Ticks_ISO_T2_8,143,5,42,127,2155248000
7,9,Ticks_ISO_T2_8,144,1,48,49,2155983896
7,9,Ticks_ISO_T2_8,145,5,42,127,2156047908
7,9,Ticks_ISO_T2_8,146,1,48,52,2156812676
7,9,Ticks_ISO_T2_8,147,5,42,127,2156847416
7,9,Ticks_ISO_T2_8,148,1,48,52,2157595656
7,9,Ticks_ISO_T2_8,149,5,42,127,2157648196
7,9,Ticks_ISO_T2_8,150,1,48,44,2158423360
7,9,Ticks_ISO_T2_8,151,5,42,127,2158448004
7,9,Ticks_ISO_T2_8,152,1,48,53,2159191528
7,9,Ticks_ISO_T2_8,153,5,42,127,2159247588
7,9,Ticks_ISO_T2_8,154,1,48,54,2160003452
7,9,Ticks_ISO_T2_8,155,5,42,127,2160047396
7,9,Ticks_ISO_T2_8,156,1,48,58,2160813060
7,9,Ticks_ISO_T2_8,157,5,42,127,2160848324
7,9,Ticks_ISO_T2_8,158,5,42,127,2161647916
7,9,Ticks_ISO_T2_8,159,1,48,52,2161659708
7,9,Ticks_ISO_T2_8,160,5,42,127,2162447672
7,9,Ticks_ISO_T2_8,161,1,48,48,2162448788
7,9,Ticks_ISO_T2_8,162,1,48,54,2163234720
7,9,Ticks_ISO_T2_8,163,5,42,127,2163247548
7,9,Ticks_ISO_T2_8,164,1,48,53,2164040512
7,9,Ticks_ISO_T2_8,165,5,42,127,2164048404
7,9,Ticks_ISO_T2_8,166,5,42,127,2164847844
7,9,Ticks_ISO_T2_8,167,1,48,47,2164880508
7,9,Ticks_ISO_T2_8,168,1,48,57,2165616416
7,9,Ticks_ISO_T2_8,169,5,42,127,2165647720
7,9,Ticks_ISO_T2_8,170,1,48,58,2166446176
7,9,Ticks_ISO_T2_8,171,5,42,127,2166447752
7,9,Ticks_ISO_T2_8,172,5,42,127,2167248388
7,9,Ticks_ISO_T2_8,173,1,48,52,2167256520
7,9,Ticks_ISO_T2_8,174,1,48,55,2168037464
7,9,Ticks_ISO_T2_8,175,5,42,127,2168047968
7,9,Ticks_ISO_T2_8,176,5,42,127,2168847732
7,9,Ticks_ISO_T2_8,177,1,48,53,2168856304
7,9,Ticks_ISO_T2_8,178,5,42,127,2169647392
7,9,Ticks_ISO_T2_8,179,1,48,51,2169671224
7,9,Ticks_ISO_T2_8,180,1,48,63,2170436764
7,9,Ticks_ISO_T2_8,181,5,42,127,2170448384
7,9,Ticks_ISO_T2_8,182,5,42,127,2171247904
7,9,Ticks_ISO_T2_8,183,1,48,49,2171255208
7,9,Ticks_ISO_T2_8,184,1,48,50,2172047336
7,9,Ticks_ISO_T2_8,185,5,42,127,2172049124
7,9,Ticks_ISO_T2_8,186,5,42,127,2172847444
7,9,Ticks_ISO_T2_8,187,1,48,55,2172857668
7,9,Ticks_ISO_T2_8,188,1,48,56,2173643244
7,9,Ticks_ISO_T2_8,189,5,42,127,2173648516
7,9,Ticks_ISO_T2_8,190,1,48,51,2174443128
7,9,Ticks_ISO_T2_8,191,5,42,127,2174448172
7,9,Ticks_ISO_T2_8,192,1,48,59,2175209656
7,9,Ticks_ISO_T2_8,193,5,42,127,2175247708
7,9,Ticks_ISO_T2_8,194,1,48,52,2176039928
7,9,Ticks_ISO_T2_8,195,5,42,127,2176047368
7,9,Ticks_ISO_T2_8,196,1,48,47,2176809072
7,9,Ticks_ISO_T2_8,197,5,42,127,2176848224
7,9,Ticks_ISO_T2_8,198,5,42,127,2177647964
7,9,Ticks_ISO_T2_8,199,1,48,47,2177651456
7,9,Ticks_ISO_T2_8,200,1,48,54,2178418560
7,9,Ticks_ISO_T2_8,201,5,42,127,2178447616
7,9,Ticks_ISO_T2_8,202,1,48,54,2179235196
7,9,Ticks_ISO_T2_8,203,5,42,127,2179247576
7,9,Ticks_ISO_T2_8,204,1,48,52,2180033740
7,9,Ticks_ISO_T2_8,205,5,42,127,2180048284
7,9,Ticks_ISO_T2_8,206,1,48,50,2180834968
7,9,Ticks_ISO_T2_8,207,5,42,127,2180847944
7,9,Ticks_ISO_T2_8,208,5,42,127,2181647860
7,9,Ticks_ISO_T2_8,209,1,48,53,2181654040
7,9,Ticks_ISO_T2_8,210,5,42,127,2182447516
7,9,Ticks_ISO_T2_8,211,1,48,59,2182458188
7,9,Ticks_ISO_T2_8,212,1,48,59,2183218860
7,9,Ticks_ISO_T2_8,213,5,42,127,2183248216
7,9,Ticks_ISO_T2_8,214,5,42,127,2184048032
7,9,Ticks_ISO_T2_8,215,1,48,54,2184063416
7,9,Ticks_ISO_T2_8,216,1,48,55,2184828872
7,9,Ticks_ISO_T2_8,217,5,42,127,2184847756
7,9,Ticks_ISO_T2_8,218,1,48,47,2185625840
7,9,Ticks_ISO_T2_8,219,5,42,127,2185647344
7,9,Ticks_ISO_T2_8,220,1,48,46,2186420712
7,9,Ticks_ISO_T2_8,221,5,42,127,2186448120
7,9,Ticks_ISO_T2_8,222,1,48,56,2187242960
7,9,Ticks_ISO_T2_8,223,5,42,127,2187248080
7,9,Ticks_ISO_T2_8,224,1,48,55,2188008812
7,9,Ticks_ISO_T2_8,225,5,42,127,2188047836
7,9,Ticks_ISO_T2_8,226,5,42,127,2188847724
7,9,Ticks_ISO_T2_8,227,1,48,55,2188863184
7,9,Ticks_ISO_T2_8,228,5,42,127,2189648136
7,9,Ticks_ISO_T2_8,229,1,48,51,2189685728
7,9,Ticks_ISO_T2_8,230,5,42,127,2190447868
7,9,Ticks_ISO_T2_8,231,1,48,50,2190466172
7,9,Ticks_ISO_T2_8,232,5,42,127,2191247676
7,9,Ticks_ISO_T2_8,233,1,48,50,2191268000
7,9,Ticks_ISO_T2_8,234,5,42,127,2192047560
7,9,Ticks_ISO_T2_8,235,1,48,56,2192088376
7,9,Ticks_ISO_T2_8,236,5,42,127,2192848188
7,9,Ticks_ISO_T2_8,237,1,48,51,2192874792
7,9,Ticks_ISO_T2_8,0,9999,9999,9999,9999,2097645640
7,9,Ticks_ISO_T2_8,1,9999,9999,9999,9999,2098445396
7,9,Ticks_ISO_T2_8,2,9999,9999,9999,9999,2099245104
7,9,Ticks_ISO_T2_8,3,9999,9999,9999,9999,2100045880
7,9,Ticks_ISO_T2_8,4,9999,9999,9999,9999,2100845612
7,9,Ticks_ISO_T2_8,5,9999,9999,9999,9999,2101645424
7,9,Ticks_ISO_T2_8,6,9999,9999,9999,9999,2102445156
7,9,Ticks_ISO_T2_8,7,9999,9999,9999,9999,2103245940
7,9,Ticks_ISO_T2_8,8,9999,9999,9999,9999,2104045676
7,9,Ticks_ISO_T2_8,9,9999,9999,9999,9999,2104845408
7,9,Ticks_ISO_T2_8,10,9999,9999,9999,9999,2105645132
7,9,Ticks_ISO_T2_8,11,9999,9999,9999,9999,2106445876
7,9,Ticks_ISO_T2_8,12,9999,9999,9999,9999,2107245684
7,9,Ticks_ISO_T2_8,13,9999,9999,9999,9999,2108045424
7,9,Ticks_ISO_T2_8,14,9999,9999,9999,9999,2108845160
7,9,Ticks_ISO_T2_8,15,9999,9999,9999,9999,2109645932
7,9,Ticks_ISO_T2_8,16,9999,9999,9999,9999,2110445664
7,9,Ticks_ISO_T2_8,17,9999,9999,9999,9999,2111245424
7,9,Ticks_ISO_T2_8,18,9999,9999,9999,9999,2112045156
7,9,Ticks_ISO_T2_8,19,9999,9999,9999,9999,2112845936
7,9,Ticks_ISO_T2_8,20,9999,9999,9999,9999,2113645672
7,9,Ticks_ISO_T2_8,21,9999,9999,9999,9999,2114445404
7,9,Ticks_ISO_T2_8,22,9999,9999,9999,9999,2115245144
7,9,Ticks_ISO_T2_8,23,9999,9999,9999,9999,2116045924
7,9,Ticks_ISO_T2_8,24,9999,9999,9999,9999,2116845652
7,9,Ticks_ISO_T2_8,25,9999,9999,9999,9999,2117645408
7,9,Ticks_ISO_T2_8,26,9999,9999,9999,9999,2118445144
7,9,Ticks_ISO_T2_8,27,9999,9999,9999,9999,2119245924
7,9,Ticks_ISO_T2_8,28,9999,9999,9999,9999,2120045656
7,9,Ticks_ISO_T2_8,29,9999,9999,9999,9999,2120845388
7,9,Ticks_ISO_T2_8,30,9999,9999,9999,9999,2121645124
7,9,Ticks_ISO_T2_8,31,9999,9999,9999,9999,2122445900
7,9,Ticks_ISO_T2_8,32,9999,9999,9999,9999,2123245636
7,9,Ticks_ISO_T2_8,33,9999,9999,9999,9999,2124045392
7,9,Ticks_ISO_T2_8,34,9999,9999,9999,9999,2124845124
7,9,Ticks_ISO_T2_8,35,9999,9999,9999,9999,2125645904
7,9,Ticks_ISO_T2_8,36,9999,9999,9999,9999,2126445636
7,9,Ticks_ISO_T2_8,37,9999,9999,9999,9999,2127245376
7,9,Ticks_ISO_T2_8,38,9999,9999,9999,9999,2128045104
7,9,Ticks_ISO_T2_8,39,9999,9999,9999,9999,2128845884
7,9,Ticks_ISO_T2_8,40,9999,9999,9999,9999,2129645620
7,9,Ticks_ISO_T2_8,41,9999,9999,9999,9999,2130445376
7,9,Ticks_ISO_T2_8,42,9999,9999,9999,9999,2131245108
7,9,Ticks_ISO_T2_8,43,9999,9999,9999,9999,2132045892
7,9,Ticks_ISO_T2_8,44,9999,9999,9999,9999,2132845624
7,9,Ticks_ISO_T2_8,45,9999,9999,9999,9999,2133645356
7,9,Ticks_ISO_T2_8,46,9999,9999,9999,9999,2134445164
7,9,Ticks_ISO_T2_8,47,9999,9999,9999,9999,2135245868
7,9,Ticks_ISO_T2_8,48,9999,9999,9999,9999,2136045684
7,9,Ticks_ISO_T2_8,49,9999,9999,9999,9999,2136845360
7,9,Ticks_ISO_T2_8,50,9999,9999,9999,9999,2137645172
7,9,Ticks_ISO_T2_8,51,9999,9999,9999,9999,2138445932
7,9,Ticks_ISO_T2_8,52,9999,9999,9999,9999,2139245684
7,9,Ticks_ISO_T2_8,53,9999,9999,9999,9999,2140045416
7,9,Ticks_ISO_T2_8,54,9999,9999,9999,9999,2140845148
7,9,Ticks_ISO_T2_8,55,9999,9999,9999,9999,2141645928
7,9,Ticks_ISO_T2_8,56,9999,9999,9999,9999,2142445664
7,9,Ticks_ISO_T2_8,57,9999,9999,9999,9999,2143245420
7,9,Ticks_ISO_T2_8,58,9999,9999,9999,9999,2144045156
7,9,Ticks_ISO_T2_8,59,9999,9999,9999,9999,2144845936
7,9,Ticks_ISO_T2_8,60,9999,9999,9999,9999,2145645668
7,9,Ticks_ISO_T2_8,61,9999,9999,9999,9999,2146445408
7,9,Ticks_ISO_T2_8,62,9999,9999,9999,9999,2147245136
7,9,Ticks_ISO_T2_8,63,9999,9999,9999,9999,2148045916
7,9,Ticks_ISO_T2_8,64,9999,9999,9999,9999,2148845648
7,9,Ticks_ISO_T2_8,65,9999,9999,9999,9999,2149645408
7,9,Ticks_ISO_T2_8,66,9999,9999,9999,9999,2150445140
7,9,Ticks_ISO_T2_8,67,9999,9999,9999,9999,2151245924
7,9,Ticks_ISO_T2_8,68,9999,9999,9999,9999,2152045656
7,9,Ticks_ISO_T2_8,69,9999,9999,9999,9999,2152845388
7,9,Ticks_ISO_T2_8,70,9999,9999,9999,9999,2153645124
7,9,Ticks_ISO_T2_8,71,9999,9999,9999,9999,2154445900
7,9,Ticks_ISO_T2_8,72,9999,9999,9999,9999,2155245636
7,9,Ticks_ISO_T2_8,73,9999,9999,9999,9999,2156045392
7,9,Ticks_ISO_T2_8,74,9999,9999,9999,9999,2156845124
7,9,Ticks_ISO_T2_8,75,9999,9999,9999,9999,2157645904
7,9,Ticks_ISO_T2_8,76,9999,9999,9999,9999,2158445636
7,9,Ticks_ISO_T2_8,77,9999,9999,9999,9999,2159245372
7,9,Ticks_ISO_T2_8,78,9999,9999,9999,9999,2160045104
7,9,Ticks_ISO_T2_8,79,9999,9999,9999,9999,2160845884
7,9,Ticks_ISO_T2_8,80,9999,9999,9999,9999,2161645624
7,9,Ticks_ISO_T2_8,81,9999,9999,9999,9999,2162445380
7,9,Ticks_ISO_T2_8,82,9999,9999,9999,9999,2163245108
7,9,Ticks_ISO_T2_8,83,9999,9999,9999,9999,2164045888
7,9,Ticks_ISO_T2_8,84,9999,9999,9999,9999,2164845628
7,9,Ticks_ISO_T2_8,85,9999,9999,9999,9999,2165645428
7,9,Ticks_ISO_T2_8,86,9999,9999,9999,9999,2166445168
7,9,Ticks_ISO_T2_8,87,9999,9999,9999,9999,2167245876
7,9,Ticks_ISO_T2_8,88,9999,9999,9999,9999,2168045676
7,9,Ticks_ISO_T2_8,89,9999,9999,9999,9999,2168845364
7,9,Ticks_ISO_T2_8,90,9999,9999,9999,9999,2169645172
7,9,Ticks_ISO_T2_8,91,9999,9999,9999,9999,2170445872
7,9,Ticks_ISO_T2_8,92,9999,9999,9999,9999,2171245688
7,9,Ticks_ISO_T2_8,93,9999,9999,9999,9999,2172045420
7,9,Ticks_ISO_T2_8,94,9999,9999,9999,9999,2172845152
7,9,Ticks_ISO_T2_8,95,9999,9999,9999,9999,2173645924
7,9,Ticks_ISO_T2_8,96,9999,9999,9999,9999,2174445656
7,9,Ticks_ISO_T2_8,97,9999,9999,9999,9999,2175245416
7,9,Ticks_ISO_T2_8,98,9999,9999,9999,9999,2176045152
7,9,Ticks_ISO_T2_8,99,9999,9999,9999,9999,2176845932
7,9,Ticks_ISO_T2_8,100,9999,9999,9999,9999,2177645672
7,9,Ticks_ISO_T2_8,101,9999,9999,9999,9999,2178445400
7,9,Ticks_ISO_T2_8,102,9999,9999,9999,9999,2179245136
7,9,Ticks_ISO_T2_8,103,9999,9999,9999,9999,2180045920
7,9,Ticks_ISO_T2_8,104,9999,9999,9999,9999,2180845652
7,9,Ticks_ISO_T2_8,105,9999,9999,9999,9999,2181645416
7,9,Ticks_ISO_T2_8,106,9999,9999,9999,9999,2182445148
7,9,Ticks_ISO_T2_8,107,9999,9999,9999,9999,2183245924
7,9,Ticks_ISO_T2_8,108,9999,9999,9999,9999,2184045668
7,9,Ticks_ISO_T2_8,109,9999,9999,9999,9999,2184845392
7,9,Ticks_ISO_T2_8,110,9999,9999,9999,9999,2185645124
7,9,Ticks_ISO_T2_8,111,9999,9999,9999,9999,2186445904
7,9,Ticks_ISO_T2_8,112,9999,9999,9999,9999,2187245640
7,9,Ticks_ISO_T2_8,113,9999,9999,9999,9999,2188045396
7,9,Ticks_ISO_T2_8,114,9999,9999,9999,9999,2188845136
7,9,Ticks_ISO_T2_8,115,9999,9999,9999,9999,2189645916
7,9,Ticks_ISO_T2_8,116,9999,9999,9999,9999,2190445652
7,9,Ticks_ISO_T2_8,117,9999,9999,9999,9999,2191245384
7,9,Ticks_ISO_T2_8,118,9999,9999,9999,9999,2192045120
7,9,Ticks_ISO_T2_8,119,9999,9999,9999,9999,2192845896
8,10,Ticks_ISO_T2_5,0,5,42,127,2206255496
8,10,Ticks_ISO_T2_5,1,5,42,127,2206756184
8,10,Ticks_ISO_T2_5,2,1,48,58,2206958268
8,10,Ticks_ISO_T2_5,3,5,42,127,2207256176
8,10,Ticks_ISO_T2_5,4,1,48,59,2207370148
8,10,Ticks_ISO_T2_5,5,5,42,127,2207755572
8,10,Ticks_ISO_T2_5,6,1,48,66,2207833788
8,10,Ticks_ISO_T2_5,7,5,42,127,2208256368
8,10,Ticks_ISO_T2_5,8,1,48,68,2208350464
8,10,Ticks_ISO_T2_5,9,5,42,127,2208755984
8,10,Ticks_ISO_T2_5,10,1,48,63,2208898852
8,10,Ticks_ISO_T2_5,11,5,42,127,2209255900
8,10,Ticks_ISO_T2_5,12,1,48,62,2209434000
8,10,Ticks_ISO_T2_5,13,5,42,127,2209755372
8,10,Ticks_ISO_T2_5,14,1,48,60,2209903776
8,10,Ticks_ISO_T2_5,15,5,42,127,2210256116
8,10,Ticks_ISO_T2_5,16,1,48,64,2210383792
8,10,Ticks_ISO_T2_5,17,5,42,127,2210756108
8,10,Ticks_ISO_T2_5,18,1,48,60,2210863300
8,10,Ticks_ISO_T2_5,19,5,42,127,2211255800
8,10,Ticks_ISO_T2_5,20,1,48,62,2211361492
8,10,Ticks_ISO_T2_5,21,5,42,127,2211756324
8,10,Ticks_ISO_T2_5,22,1,48,59,2211862384
8,10,Ticks_ISO_T2_5,23,5,42,127,2212256236
8,10,Ticks_ISO_T2_5,24,1,48,59,2212344552
8,10,Ticks_ISO_T2_5,25,5,42,127,2212755860
8,10,Ticks_ISO_T2_5,26,1,48,57,2212800044
8,10,Ticks_ISO_T2_5,27,5,42,127,2213255404
8,10,Ticks_ISO_T2_5,28,1,48,52,2213277752
8,10,Ticks_ISO_T2_5,29,5,42,127,2213756296
8,10,Ticks_ISO_T2_5,30,1,48,57,2213765772
8,10,Ticks_ISO_T2_5,31,5,42,127,2214255988
8,10,Ticks_ISO_T2_5,32,1,48,56,2214266588
8,10,Ticks_ISO_T2_5,33,5,42,127,2214755684
8,10,Ticks_ISO_T2_5,34,1,48,56,2214760824
8,10,Ticks_ISO_T2_5,35,5,42,127,2215256432
8,10,Ticks_ISO_T2_5,36,1,48,53,2215278624
8,10,Ticks_ISO_T2_5,37,5,42,127,2215756268
8,10,Ticks_ISO_T2_5,38,1,48,54,2215757164
8,10,Ticks_ISO_T2_5,39,5,42,127,2216255740
8,10,Ticks_ISO_T2_5,40,1,48,54,2216262004
8,10,Ticks_ISO_T2_5,41,5,42,127,2216755732
8,10,Ticks_ISO_T2_5,42,1,48,58,2216770000
8,10,Ticks_ISO_T2_5,43,5,42,127,2217256180
8,10,Ticks_ISO_T2_5,44,1,48,59,2217276052
8,10,Ticks_ISO_T2_5,45,5,42,127,2217755948
8,10,Ticks_ISO_T2_5,46,1,48,57,2217795340
8,10,Ticks_ISO_T2_5,47,1,48,54,2218227528
8,10,Ticks_ISO_T2_5,48,5,42,127,2218255784
8,10,Ticks_ISO_T2_5,49,1,48,55,2218749364
8,10,Ticks_ISO_T2_5,50,5,42,127,2218755528
8,10,Ticks_ISO_T2_5,51,5,42,127,2219256056
8,10,Ticks_ISO_T2_5,52,1,48,59,2219260668
8,10,Ticks_ISO_T2_5,53,5,42,127,2219755748
8,10,Ticks_ISO_T2_5,54,1,48,57,2219801080
8,10,Ticks_ISO_T2_5,55,5,42,127,2220255740
8,10,Ticks_ISO_T2_5,56,1,48,59,2220288484
8,10,Ticks_ISO_T2_5,57,1,48,57,2220750756
8,10,Ticks_ISO_T2_5,58,5,42,127,2220756476
8,10,Ticks_ISO_T2_5,59,5,42,127,2221255956
8,10,Ticks_ISO_T2_5,60,1,48,56,2221295728
8,10,Ticks_ISO_T2_5,61,5,42,127,2221755724
8,10,Ticks_ISO_T2_5,62,1,48,51,2221761544
8,10,Ticks_ISO_T2_5,63,1,48,53,2222248276
8,10,Ticks_ISO_T2_5,64,5,42,127,2222255412
8,10,Ticks_ISO_T2_5,65,5,42,127,2222756140
8,10,Ticks_ISO_T2_5,66,1,48,57,2222768012
8,10,Ticks_ISO_T2_5,67,5,42,127,2223255984
8,10,Ticks_ISO_T2_5,68,1,48,54,2223257100
8,10,Ticks_ISO_T2_5,69,5,42,127,2223755604
8,10,Ticks_ISO_T2_5,70,1,48,56,2223756572
8,10,Ticks_ISO_T2_5,71,5,42,127,2224256496
8,10,Ticks_ISO_T2_5,72,1,48,58,2224272484
8,10,Ticks_ISO_T2_5,73,5,42,127,2224756040
8,10,Ticks_ISO_T2_5,74,1,48,60,2224759160
8,10,Ticks_ISO_T2_5,75,5,42,127,2225255732
8,10,Ticks_ISO_T2_5,76,1,48,55,2225268652
8,10,Ticks_ISO_T2_5,77,5,42,127,2225755504
8,10,Ticks_ISO_T2_5,78,1,48,57,2225776348
8,10,Ticks_ISO_T2_5,79,5,42,127,2226256392
8,10,Ticks_ISO_T2_5,80,1,48,56,2226271780
8,10,Ticks_ISO_T2_5,81,1,48,55,2226724260
8,10,Ticks_ISO_T2_5,82,5,42,127,2226755932
8,10,Ticks_ISO_T2_5,83,5,42,127,2227255560
8,10,Ticks_ISO_T2_5,84,1,48,56,2227276180
8,10,Ticks_ISO_T2_5,85,5,42,127,2227756380
8,10,Ticks_ISO_T2_5,86,1,48,57,2227767352
8,10,Ticks_ISO_T2_5,87,5,42,127,2228256292
8,10,Ticks_ISO_T2_5,88,1,48,57,2228309456
8,10,Ticks_ISO_T2_5,89,5,42,127,2228755916
8,10,Ticks_ISO_T2_5,90,1,48,52,2228760756
8,10,Ticks_ISO_T2_5,91,1,48,54,2229225628
8,10,Ticks_ISO_T2_5,92,5,42,127,2229255380
8,10,Ticks_ISO_T2_5,93,5,42,127,2229756400
8,10,Ticks_ISO_T2_5,94,1,48,55,2229762216
8,10,Ticks_ISO_T2_5,95,1,48,56,2230241168
8,10,Ticks_ISO_T2_5,96,5,42,127,2230256088
8,10,Ticks_ISO_T2_5,97,1,48,55,2230743484
8,10,Ticks_ISO_T2_5,98,5,42,127,2230755632
8,10,Ticks_ISO_T2_5,99,1,48,58,2231247968
8,10,Ticks_ISO_T2_5,100,5,42,127,2231256304
8,10,Ticks_ISO_T2_5,101,1,48,57,2231738536
8,10,Ticks_ISO_T2_5,102,5,42,127,2231756068
8,10,Ticks_ISO_T2_5,103,5,42,127,2232255772
8,10,Ticks_ISO_T2_5,104,1,48,60,2232262484
8,10,Ticks_ISO_T2_5,105,1,48,60,2232753728
8,10,Ticks_ISO_T2_5,106,5,42,127,2232755464
8,10,Ticks_ISO_T2_5,107,5,42,127,2233256212
8,10,Ticks_ISO_T2_5,108,1,48,58,2233257180
8,10,Ticks_ISO_T2_5,109,5,42,127,2233756056
8,10,Ticks_ISO_T2_5,110,1,48,59,2233757024
8,10,Ticks_ISO_T2_5,111,5,42,127,2234255824
8,10,Ticks_ISO_T2_5,112,1,48,60,2234265376
8,10,Ticks_ISO_T2_5,113,1,48,59,2234753400
8,10,Ticks_ISO_T2_5,114,5,42,127,2234755364
8,10,Ticks_ISO_T2_5,115,1,48,59,2235241408
8,10,Ticks_ISO_T2_5,116,5,42,127,2235256180
8,10,Ticks_ISO_T2_5,117,5,42,127,2235756176
8,10,Ticks_ISO_T2_5,118,1,48,55,2235788096
8,10,Ticks_ISO_T2_5,119,1,48,53,2236233692
8,10,Ticks_ISO_T2_5,120,5,42,127,2236255568
8,10,Ticks_ISO_T2_5,121,1,48,58,2236722392
8,10,Ticks_ISO_T2_5,122,5,42,127,2236756308
8,10,Ticks_ISO_T2_5,123,1,48,62,2237241012
8,10,Ticks_ISO_T2_5,124,5,42,127,2237256004
8,10,Ticks_ISO_T2_5,125,5,42,127,2237755928
8,10,Ticks_ISO_T2_5,126,1,48,57,2237757344
8,10,Ticks_ISO_T2_5,127,1,48,64,2238239352
8,10,Ticks_ISO_T2_5,128,5,42,127,2238255320
8,10,Ticks_ISO_T2_5,129,1,48,57,2238729328
8,10,Ticks_ISO_T2_5,130,5,42,127,2238756212
8,10,Ticks_ISO_T2_5,131,1,48,59,2239237020
8,10,Ticks_ISO_T2_5,132,5,42,127,2239256052
8,10,Ticks_ISO_T2_5,133,5,42,127,2239755756
8,10,Ticks_ISO_T2_5,134,1,48,42,2239775032
8,10,Ticks_ISO_T2_5,135,1,48,53,2240214992
8,10,Ticks_ISO_T2_5,136,5,42,127,2240256468
8,10,Ticks_ISO_T2_5,137,5,42,127,2240756016
8,10,Ticks_ISO_T2_5,138,1,48,56,2240760332
8,10,Ticks_ISO_T2_5,139,5,42,127,2241255860
8,10,Ticks_ISO_T2_5,140,1,48,58,2241258384
8,10,Ticks_ISO_T2_5,141,1,48,58,2241748860
8,10,Ticks_ISO_T2_5,142,5,42,127,2241755400
8,10,Ticks_ISO_T2_5,143,1,48,55,2242247884
8,10,Ticks_ISO_T2_5,144,5,42,127,2242256140
8,10,Ticks_ISO_T2_5,145,1,48,62,2242741816
8,10,Ticks_ISO_T2_5,146,5,42,127,2242756060
8,10,Ticks_ISO_T2_5,147,1,48,57,2243237620
8,10,Ticks_ISO_T2_5,148,5,42,127,2243255828
8,10,Ticks_ISO_T2_5,149,1,48,54,2243749208
8,10,Ticks_ISO_T2_5,150,5,42,127,2243756348
8,10,Ticks_ISO_T2_5,151,1,48,60,2244237908
8,10,Ticks_ISO_T2_5,152,5,42,127,2244255968
8,10,Ticks_ISO_T2_5,153,5,42,127,2244755892
8,10,Ticks_ISO_T2_5,154,1,48,54,2244758412
8,10,Ticks_ISO_T2_5,155,1,48,57,2245247176
8,10,Ticks_ISO_T2_5,156,5,42,127,2245256028
8,10,Ticks_ISO_T2_5,157,5,42,127,2245756180
8,10,Ticks_ISO_T2_5,158,1,48,51,2245763936
8,10,Ticks_ISO_T2_5,159,1,48,56,2246252316
8,10,Ticks_ISO_T2_5,160,5,42,127,2246256092
8,10,Ticks_ISO_T2_5,161,1,48,54,2246733840
8,10,Ticks_ISO_T2_5,162,5,42,127,2246755788
8,10,Ticks_ISO_T2_5,163,1,48,59,2247246844
8,10,Ticks_ISO_T2_5,164,5,42,127,2247256608
8,10,Ticks_ISO_T2_5,165,1,48,57,2247711384
8,10,Ticks_ISO_T2_5,166,5,42,127,2247756148
8,10,Ticks_ISO_T2_5,167,1,48,54,2248250432
8,10,Ticks_ISO_T2_5,168,5,42,127,2248255772
8,10,Ticks_ISO_T2_5,169,5,42,127,2248755544
8,10,Ticks_ISO_T2_5,170,1,48,53,2248769360
8,10,Ticks_ISO_T2_5,171,5,42,127,2249256436
8,10,Ticks_ISO_T2_5,172,1,48,51,2249264196
8,10,Ticks_ISO_T2_5,173,5,42,127,2249756132
8,10,Ticks_ISO_T2_5,174,1,48,54,2249772416
8,10,Ticks_ISO_T2_5,175,5,42,127,2250255752
8,10,Ticks_ISO_T2_5,176,1,48,53,2250270388
8,10,Ticks_ISO_T2_5,177,5,42,127,2250755420
8,10,Ticks_ISO_T2_5,178,1,48,51,2250761008
8,10,Ticks_ISO_T2_5,179,5,42,127,2251256064
8,10,Ticks_ISO_T2_5,180,1,48,59,2251266960
8,10,Ticks_ISO_T2_5,181,1,48,58,2251751828
8,10,Ticks_ISO_T2_5,182,5,42,127,2251755972
8,10,Ticks_ISO_T2_5,183,5,42,127,2252255452
8,10,Ticks_ISO_T2_5,184,1,48,58,2252287740
8,10,Ticks_ISO_T2_5,185,1,48,53,2252726756
8,10,Ticks_ISO_T2_5,186,5,42,127,2252756408
8,10,Ticks_ISO_T2_5,187,1,48,52,2253233028
8,10,Ticks_ISO_T2_5,188,5,42,127,2253256100
8,10,Ticks_ISO_T2_5,189,1,48,53,2253723152
8,10,Ticks_ISO_T2_5,190,5,42,127,2253755648
8,10,Ticks_ISO_T2_5,191,1,48,54,2254192328
8,10,Ticks_ISO_T2_5,192,5,42,127,2254255568
8,10,Ticks_ISO_T2_5,193,1,48,54,2254741992
8,10,Ticks_ISO_T2_5,194,5,42,127,2254756384
8,10,Ticks_ISO_T2_5,195,1,48,56,2255246096
8,10,Ticks_ISO_T2_5,196,5,42,127,2255255780
8,10,Ticks_ISO_T2_5,197,1,48,52,2255746248
8,10,Ticks_ISO_T2_5,198,5,42,127,2255755700
8,10,Ticks_ISO_T2_5,199,1,48,51,2256220880
8,10,Ticks_ISO_T2_5,200,5,42,127,2256256300
8,10,Ticks_ISO_T2_5,201,5,42,127,2256756068
8,10,Ticks_ISO_T2_5,202,1,48,46,2256757040
8,10,Ticks_ISO_T2_5,203,1,48,55,2257227156
8,10,Ticks_ISO_T2_5,204,5,42,127,2257255760
8,10,Ticks_ISO_T2_5,205,5,42,127,2257755384
8,10,Ticks_ISO_T2_5,206,1,48,52,2257759404
8,10,Ticks_ISO_T2_5,207,1,48,47,2258231776
8,10,Ticks_ISO_T2_5,208,5,42,127,2258256420
8,10,Ticks_ISO_T2_5,209,1,48,50,2258730428
8,10,Ticks_ISO_T2_5,210,5,42,127,2258755964
8,10,Ticks_ISO_T2_5,211,1,48,45,2259236028
8,10,Ticks_ISO_T2_5,212,5,42,127,2259255584
8,10,Ticks_ISO_T2_5,213,1,48,50,2259744472
8,10,Ticks_ISO_T2_5,214,5,42,127,2259756328
8,10,Ticks_ISO_T2_5,215,1,48,55,2260246112
8,10,Ticks_ISO_T2_5,216,5,42,127,2260256096
8,10,Ticks_ISO_T2_5,217,1,48,54,2260729624
8,10,Ticks_ISO_T2_5,218,5,42,127,2260755788
8,10,Ticks_ISO_T2_5,219,1,48,55,2261221016
8,10,Ticks_ISO_T2_5,220,5,42,127,2261255484
8,10,Ticks_ISO_T2_5,221,5,42,127,2261756280
8,10,Ticks_ISO_T2_5,222,1,48,51,2261777376
8,10,Ticks_ISO_T2_5,223,1,48,53,2262246516
8,10,Ticks_ISO_T2_5,224,5,42,127,2262256044
8,10,Ticks_ISO_T2_5,225,5,42,127,2262755672
8,10,Ticks_ISO_T2_5,226,1,48,57,2262766800
8,10,Ticks_ISO_T2_5,227,1,48,58,2263256344
8,10,Ticks_ISO_T2_5,228,5,42,127,2263258052
8,10,Ticks_ISO_T2_5,229,5,42,127,2263756032
8,10,Ticks_ISO_T2_5,230,1,48,53,2263774108
8,10,Ticks_ISO_T2_5,231,1,48,51,2264234740
8,10,Ticks_ISO_T2_5,232,5,42,127,2264256092
8,10,Ticks_ISO_T2_5,233,1,48,50,2264718736
8,10,Ticks_ISO_T2_5,234,5,42,127,2264755640
8,10,Ticks_ISO_T2_5,235,1,48,54,2265247300
8,10,Ticks_ISO_T2_5,236,5,42,127,2265256308
8,10,Ticks_ISO_T2_5,237,1,48,58,2265741908
8,10,Ticks_ISO_T2_5,238,5,42,127,2265756076
8,10,Ticks_ISO_T2_5,239,1,48,51,2266247664
8,10,Ticks_ISO_T2_5,240,5,42,127,2266255844
8,10,Ticks_ISO_T2_5,241,1,48,49,2266735088
8,10,Ticks_ISO_T2_5,242,5,42,127,2266755468
8,10,Ticks_ISO_T2_5,243,1,48,49,2267232616
8,10,Ticks_ISO_T2_5,244,5,42,127,2267256060
8,10,Ticks_ISO_T2_5,245,1,48,49,2267748396
8,10,Ticks_ISO_T2_5,246,5,42,127,2267756052
8,10,Ticks_ISO_T2_5,247,1,48,50,2268221984
8,10,Ticks_ISO_T2_5,248,5,42,127,2268255524
8,10,Ticks_ISO_T2_5,249,1,48,46,2268723092
8,10,Ticks_ISO_T2_5,250,5,42,127,2268756192
8,10,Ticks_ISO_T2_5,251,1,48,48,2269228404
8,10,Ticks_ISO_T2_5,252,5,42,127,2269256036
8,10,Ticks_ISO_T2_5,253,1,48,45,2269751736
8,10,Ticks_ISO_T2_5,254,5,42,127,2269755880
8,10,Ticks_ISO_T2_5,255,1,48,45,2270237364
8,10,Ticks_ISO_T2_5,256,5,42,127,2270255500
8,10,Ticks_ISO_T2_5,257,1,48,53,2270731224
8,10,Ticks_ISO_T2_5,258,5,42,127,2270756092
8,10,Ticks_ISO_T2_5,259,1,48,57,2271234956
8,10,Ticks_ISO_T2_5,0,9999,9999,9999,9999,2206253136
8,10,Ticks_ISO_T2_5,1,9999,9999,9999,9999,2206753900
8,10,Ticks_ISO_T2_5,2,9999,9999,9999,9999,2207253592
8,10,Ticks_ISO_T2_5,3,9999,9999,9999,9999,2207753288
8,10,Ticks_ISO_T2_5,4,9999,9999,9999,9999,2208254004
8,10,Ticks_ISO_T2_5,5,9999,9999,9999,9999,2208753772
8,10,Ticks_ISO_T2_5,6,9999,9999,9999,9999,2209253468
8,10,Ticks_ISO_T2_5,7,9999,9999,9999,9999,2209753160
8,10,Ticks_ISO_T2_5,8,9999,9999,9999,9999,2210253904
8,10,Ticks_ISO_T2_5,9,9999,9999,9999,9999,2210753596
8,10,Ticks_ISO_T2_5,10,9999,9999,9999,9999,2211253368
8,10,Ticks_ISO_T2_5,11,9999,9999,9999,9999,2211754032
8,10,Ticks_ISO_T2_5,12,9999,9999,9999,9999,2212253804
8,10,Ticks_ISO_T2_5,13,9999,9999,9999,9999,2212753496
8,10,Ticks_ISO_T2_5,14,9999,9999,9999,9999,2213253192
8,10,Ticks_ISO_T2_5,15,9999,9999,9999,9999,2213753932
8,10,Ticks_ISO_T2_5,16,9999,9999,9999,9999,2214253628
8,10,Ticks_ISO_T2_5,17,9999,9999,9999,9999,2214753400
8,10,Ticks_ISO_T2_5,18,9999,9999,9999,9999,2215254064
8,10,Ticks_ISO_T2_5,19,9999,9999,9999,9999,2215753832
8,10,Ticks_ISO_T2_5,20,9999,9999,9999,9999,2216253528
8,10,Ticks_ISO_T2_5,21,9999,9999,9999,9999,2216753224
8,10,Ticks_ISO_T2_5,22,9999,9999,9999,9999,2217253968
8,10,Ticks_ISO_T2_5,23,9999,9999,9999,9999,2217753660
8,10,Ticks_ISO_T2_5,24,9999,9999,9999,9999,2218253424
8,10,Ticks_ISO_T2_5,25,9999,9999,9999,9999,2218753092
8,10,Ticks_ISO_T2_5,26,9999,9999,9999,9999,2219253844
8,10,Ticks_ISO_T2_5,27,9999,9999,9999,9999,2219753536
8,10,Ticks_ISO_T2_5,28,9999,9999,9999,9999,2220253304
8,10,Ticks_ISO_T2_5,29,9999,9999,9999,9999,2220754040
8,10,Ticks_ISO_T2_5,30,9999,9999,9999,9999,2221253744
8,10,Ticks_ISO_T2_5,31,9999,9999,9999,9999,2221753440
8,10,Ticks_ISO_T2_5,32,9999,9999,9999,9999,2222253128
8,10,Ticks_ISO_T2_5,33,9999,9999,9999,9999,2222753852
8,10,Ticks_ISO_T2_5,34,9999,9999,9999,9999,2223253624
8,10,Ticks_ISO_T2_5,35,9999,9999,9999,9999,2223753316
8,10,Ticks_ISO_T2_5,36,9999,9999,9999,9999,2224254056
8,10,Ticks_ISO_T2_5,37,9999,9999,9999,9999,2224753752
8,10,Ticks_ISO_T2_5,38,9999,9999,9999,9999,2225253448
8,10,Ticks_ISO_T2_5,39,9999,9999,9999,9999,2225753144
8,10,Ticks_ISO_T2_5,40,9999,9999,9999,9999,2226253884
8,10,Ticks_ISO_T2_5,41,9999,9999,9999,9999,2226753644
8,10,Ticks_ISO_T2_5,42,9999,9999,9999,9999,2227253348
8,10,Ticks_ISO_T2_5,43,9999,9999,9999,9999,2227754088
8,10,Ticks_ISO_T2_5,44,9999,9999,9999,9999,2228253784
8,10,Ticks_ISO_T2_5,45,9999,9999,9999,9999,2228753480
8,10,Ticks_ISO_T2_5,46,9999,9999,9999,9999,2229253168
8,10,Ticks_ISO_T2_5,47,9999,9999,9999,9999,2229753964
8,10,Ticks_ISO_T2_5,48,9999,9999,9999,9999,2230253652
8,10,Ticks_ISO_T2_5,49,9999,9999,9999,9999,2230753348
8,10,Ticks_ISO_T2_5,50,9999,9999,9999,9999,2231254088
8,10,Ticks_ISO_T2_5,51,9999,9999,9999,9999,2231753784
8,10,Ticks_ISO_T2_5,52,9999,9999,9999,9999,2232253560
8,10,Ticks_ISO_T2_5,53,9999,9999,9999,9999,2232753200
8,10,Ticks_ISO_T2_5,54,9999,9999,9999,9999,2233254000
8,10,Ticks_ISO_T2_5,55,9999,9999,9999,9999,2233753696
8,10,Ticks_ISO_T2_5,56,9999,9999,9999,9999,2234253388
8,10,Ticks_ISO_T2_5,57,9999,9999,9999,9999,2234753116
8,10,Ticks_ISO_T2_5,58,9999,9999,9999,9999,2235253820
8,10,Ticks_ISO_T2_5,59,9999,9999,9999,9999,2235753592
8,10,Ticks_ISO_T2_5,60,9999,9999,9999,9999,2236253280
8,10,Ticks_ISO_T2_5,61,9999,9999,9999,9999,2236754020
8,10,Ticks_ISO_T2_5,62,9999,9999,9999,9999,2237253716
8,10,Ticks_ISO_T2_5,63,9999,9999,9999,9999,2237753420
8,10,Ticks_ISO_T2_5,64,9999,9999,9999,9999,2238253108
8,10,Ticks_ISO_T2_5,65,9999,9999,9999,9999,2238753848
8,10,Ticks_ISO_T2_5,66,9999,9999,9999,9999,2239253620
8,10,Ticks_ISO_T2_5,67,9999,9999,9999,9999,2239753320
8,10,Ticks_ISO_T2_5,68,9999,9999,9999,9999,2240254032
8,10,Ticks_ISO_T2_5,69,9999,9999,9999,9999,2240753732
8,10,Ticks_ISO_T2_5,70,9999,9999,9999,9999,2241253424
8,10,Ticks_ISO_T2_5,71,9999,9999,9999,9999,2241753188
8,10,Ticks_ISO_T2_5,72,9999,9999,9999,9999,2242253928
8,10,Ticks_ISO_T2_5,73,9999,9999,9999,9999,2242753624
8,10,Ticks_ISO_T2_5,74,9999,9999,9999,9999,2243253320
8,10,Ticks_ISO_T2_5,75,9999,9999,9999,9999,2243754060
8,10,Ticks_ISO_T2_5,76,9999,9999,9999,9999,2244253756
8,10,Ticks_ISO_T2_5,77,9999,9999,9999,9999,2244753456
8,10,Ticks_ISO_T2_5,78,9999,9999,9999,9999,2245253220
8,10,Ticks_ISO_T2_5,79,9999,9999,9999,9999,2245753968
8,10,Ticks_ISO_T2_5,80,9999,9999,9999,9999,2246253656
8,10,Ticks_ISO_T2_5,81,9999,9999,9999,9999,2246753352
8,10,Ticks_ISO_T2_5,82,9999,9999,9999,9999,2247254092
8,10,Ticks_ISO_T2_5,83,9999,9999,9999,9999,2247753788
8,10,Ticks_ISO_T2_5,84,9999,9999,9999,9999,2248253560
8,10,Ticks_ISO_T2_5,85,9999,9999,9999,9999,2248753260
8,10,Ticks_ISO_T2_5,86,9999,9999,9999,9999,2249254000
8,10,Ticks_ISO_T2_5,87,9999,9999,9999,9999,2249753696
8,10,Ticks_ISO_T2_5,88,9999,9999,9999,9999,2250253388
8,10,Ticks_ISO_T2_5,89,9999,9999,9999,9999,2250753136
8,10,Ticks_ISO_T2_5,90,9999,9999,9999,9999,2251253852
8,10,Ticks_ISO_T2_5,91,9999,9999,9999,9999,2251753536
8,10,Ticks_ISO_T2_5,92,9999,9999,9999,9999,2252253240
8,10,Ticks_ISO_T2_5,93,9999,9999,9999,9999,2252753972
8,10,Ticks_ISO_T2_5,94,9999,9999,9999,9999,2253253740
8,10,Ticks_ISO_T2_5,95,9999,9999,9999,9999,2253753436
8,10,Ticks_ISO_T2_5,96,9999,9999,9999,9999,2254253132
8,10,Ticks_ISO_T2_5,97,9999,9999,9999,9999,2254753876
8,10,Ticks_ISO_T2_5,98,9999,9999,9999,9999,2255253572
8,10,Ticks_ISO_T2_5,99,9999,9999,9999,9999,2255753264
8,10,Ticks_ISO_T2_5,100,9999,9999,9999,9999,2256254008
8,10,Ticks_ISO_T2_5,101,9999,9999,9999,9999,2256753784
8,10,Ticks_ISO_T2_5,102,9999,9999,9999,9999,2257253472
8,10,Ticks_ISO_T2_5,103,9999,9999,9999,9999,2257753172
8,10,Ticks_ISO_T2_5,104,9999,9999,9999,9999,2258253908
8,10,Ticks_ISO_T2_5,105,9999,9999,9999,9999,2258753604
8,10,Ticks_ISO_T2_5,106,9999,9999,9999,9999,2259253300
8,10,Ticks_ISO_T2_5,107,9999,9999,9999,9999,2259754040
8,10,Ticks_ISO_T2_5,108,9999,9999,9999,9999,2260253808
8,10,Ticks_ISO_T2_5,109,9999,9999,9999,9999,2260753500
8,10,Ticks_ISO_T2_5,110,9999,9999,9999,9999,2261253196
8,10,Ticks_ISO_T2_5,111,9999,9999,9999,9999,2261753920
8,10,Ticks_ISO_T2_5,112,9999,9999,9999,9999,2262253680
8,10,Ticks_ISO_T2_5,113,9999,9999,9999,9999,2262753384
8,10,Ticks_ISO_T2_5,114,9999,9999,9999,9999,2263254128
8,10,Ticks_ISO_T2_5,115,9999,9999,9999,9999,2263753820
8,10,Ticks_ISO_T2_5,116,9999,9999,9999,9999,2264253508
8,10,Ticks_ISO_T2_5,117,9999,9999,9999,9999,2264753204
8,10,Ticks_ISO_T2_5,118,9999,9999,9999,9999,2265253948
8,10,Ticks_ISO_T2_5,119,9999,9999,9999,9999,2265753716
8,10,Ticks_ISO_T2_5,120,9999,9999,9999,9999,2266253412
8,10,Ticks_ISO_T2_5,121,9999,9999,9999,9999,2266753108
8,10,Ticks_ISO_T2_5,122,9999,9999,9999,9999,2267253848
8,10,Ticks_ISO_T2_5,123,9999,9999,9999,9999,2267753544
8,10,Ticks_ISO_T2_5,124,9999,9999,9999,9999,2268253240
8,10,Ticks_ISO_T2_5,125,9999,9999,9999,9999,2268753980
8,10,Ticks_ISO_T2_5,126,9999,9999,9999,9999,2269253748
8,10,Ticks_ISO_T2_5,127,9999,9999,9999,9999,2269753444
8,10,Ticks_ISO_T2_5,128,9999,9999,9999,9999,2270253140
8,10,Ticks_ISO_T2_5,129,9999,9999,9999,9999,2270753880
9,22,Ticks_Phase_8,0,5,42,127,2285241756
9,22,Ticks_Phase_8,1,1,48,59,2285591284
9,22,Ticks_Phase_8,2,5,42,127,2286041396
9,22,Ticks_Phase_8,3,1,48,52,2286221272
9,22,Ticks_Phase_8,4,5,42,127,2286842376
9,22,Ticks_Phase_8,5,1,48,57,2286875248
9,22,Ticks_Phase_8,6,5,42,127,2287642112
9,22,Ticks_Phase_8,7,1,48,56,2287666944
9,22,Ticks_Phase_8,8,1,48,57,2288433404
9,22,Ticks_Phase_8,9,5,42,127,2288441668
9,22,Ticks_Phase_8,10,5,42,127,2289241384
9,22,Ticks_Phase_8,11,1,48,50,2289246144
9,22,Ticks_Phase_8,12,1,48,49,2289996952
9,22,Ticks_Phase_8,13,5,42,127,2290042288
9,22,Ticks_Phase_8,14,1,48,51,2290771580
9,22,Ticks_Phase_8,15,5,42,127,2290842148
9,22,Ticks_Phase_8,16,1,48,49,2291592412
9,22,Ticks_Phase_8,17,5,42,127,2291641636
9,22,Ticks_Phase_8,18,1,48,51,2292402152
9,22,Ticks_Phase_8,19,5,42,127,2292441424
9,22,Ticks_Phase_8,20,1,48,49,2293231072
9,22,Ticks_Phase_8,21,5,42,127,2293242184
9,22,Ticks_Phase_8,22,1,48,55,2293989136
9,22,Ticks_Phase_8,23,5,42,127,2294042068
9,22,Ticks_Phase_8,24,1,48,52,2294795692
9,22,Ticks_Phase_8,25,5,42,127,2294841856
9,22,Ticks_Phase_8,26,1,48,53,2295620200
9,22,Ticks_Phase_8,27,5,42,127,2295641344
9,22,Ticks_Phase_8,28,1,48,49,2296425896
9,22,Ticks_Phase_8,29,5,42,127,2296442176
9,22,Ticks_Phase_8,30,5,42,127,2297241968
9,22,Ticks_Phase_8,31,1,48,51,2297256244
9,22,Ticks_Phase_8,32,5,42,127,2298041828
9,22,Ticks_Phase_8,33,1,48,49,2298045620
9,22,Ticks_Phase_8,34,1,48,51,2298802716
9,22,Ticks_Phase_8,35,5,42,127,2298841536
9,22,Ticks_Phase_8,36,1,48,51,2299635972
9,22,Ticks_Phase_8,37,5,42,127,2299642216
9,22,Ticks_Phase_8,38,5,42,127,2300441964
9,22,Ticks_Phase_8,39,1,48,47,2300446804
9,22,Ticks_Phase_8,40,5,42,127,2301241752
9,22,Ticks_Phase_8,41,1,48,47,2301265988
9,22,Ticks_Phase_8,42,1,48,44,2302026668
9,22,Ticks_Phase_8,43,5,42,127,2302041384
9,22,Ticks_Phase_8,44,1,48,45,2302799864
9,22,Ticks_Phase_8,45,5,42,127,2302842140
9,22,Ticks_Phase_8,46,1,48,55,2303628260
9,22,Ticks_Phase_8,47,5,42,127,2303641928
9,22,Ticks_Phase_8,48,5,42,127,2304441648
9,22,Ticks_Phase_8,49,1,48,51,2304449864
9,22,Ticks_Phase_8,50,5,42,127,2305241656
9,22,Ticks_Phase_8,51,1,48,54,2305298412
9,22,Ticks_Phase_8,52,5,42,127,2306042340
9,22,Ticks_Phase_8,53,1,48,52,2306086520
9,22,Ticks_Phase_8,54,1,48,51,2306817772
9,22,Ticks_Phase_8,55,5,42,127,2306841996
9,22,Ticks_Phase_8,56,1,48,53,2307631720
9,22,Ticks_Phase_8,57,5,42,127,2307641708
9,22,Ticks_Phase_8,58,5,42,127,2308441352
9,22,Ticks_Phase_8,59,1,48,56,2308450692
9,22,Ticks_Phase_8,60,5,42,127,2309221892
9,22,Ticks_Phase_8,61,1,48,53,2309231380
9,22,Ticks_Phase_8,62,1,48,58,2309972592
9,22,Ticks_Phase_8,63,5,42,127,2310021448
9,22,Ticks_Phase_8,64,1,48,58,2310802784
9,22,Ticks_Phase_8,65,5,42,127,2310822356
9,22,Ticks_Phase_8,66,5,42,127,2311622148
9,22,Ticks_Phase_8,67,1,48,54,2311667424
9,22,Ticks_Phase_8,68,5,42,127,2312421636
9,22,Ticks_Phase_8,69,1,48,58,2312458096
9,22,Ticks_Phase_8,70,5,42,127,2313221596
9,22,Ticks_Phase_8,71,1,48,54,2313228456
9,22,Ticks_Phase_8,72,1,48,53,2314008308
9,22,Ticks_Phase_8,73,5,42,127,2314022572
9,22,Ticks_Phase_8,74,5,42,127,2314822140
9,22,Ticks_Phase_8,75,1,48,59,2314835296
9,22,Ticks_Phase_8,76,5,42,127,2315621852
9,22,Ticks_Phase_8,77,1,48,55,2315627512
9,22,Ticks_Phase_8,78,5,42,127,2316421344
9,22,Ticks_Phase_8,79,1,48,49,2316430156
9,22,Ticks_Phase_8,80,5,42,127,2317222248
9,22,Ticks_Phase_8,81,1,48,45,2317227164
9,22,Ticks_Phase_8,82,1,48,48,2317996832
9,22,Ticks_Phase_8,83,5,42,127,2318021952
9,22,Ticks_Phase_8,84,5,42,127,2318821820
9,22,Ticks_Phase_8,85,1,48,47,2318859108
9,22,Ticks_Phase_8,86,5,42,127,2319621408
9,22,Ticks_Phase_8,87,1,48,53,2319666464
9,22,Ticks_Phase_8,88,1,48,49,2320416284
9,22,Ticks_Phase_8,89,5,42,127,2320422236
9,22,Ticks_Phase_8,90,1,48,57,2321186044
9,22,Ticks_Phase_8,91,5,42,127,2321222020
9,22,Ticks_Phase_8,92,1,48,48,2322006944
9,22,Ticks_Phase_8,93,5,42,127,2322021884
9,22,Ticks_Phase_8,94,1,48,62,2322819560
9,22,Ticks_Phase_8,95,5,42,127,2322821524
9,22,Ticks_Phase_8,96,5,42,127,2323641836
9,22,Ticks_Phase_8,97,1,48,54,2323662856
9,22,Ticks_Phase_8,98,5,42,127,2324441400
9,22,Ticks_Phase_8,99,1,48,47,2324471180
9,22,Ticks_Phase_8,100,1,48,51,2325232012
9,22,Ticks_Phase_8,101,5,42,127,2325242076
9,22,Ticks_Phase_8,102,1,48,49,2326039228
9,22,Ticks_Phase_8,103,5,42,127,2326041960
9,22,Ticks_Phase_8,104,1,48,49,2326832808
9,22,Ticks_Phase_8,105,5,42,127,2326841672
9,22,Ticks_Phase_8,106,5,42,127,2327641468
9,22,Ticks_Phase_8,107,1,48,39,2327654620
9,22,Ticks_Phase_8,108,1,48,52,2328423844
9,22,Ticks_Phase_8,109,5,42,127,2328442292
9,22,Ticks_Phase_8,110,5,42,127,2329242012
9,22,Ticks_Phase_8,111,1,48,51,2329248348
9,22,Ticks_Phase_8,112,5,42,127,2330041796
9,22,Ticks_Phase_8,113,1,48,49,2330052256
9,22,Ticks_Phase_8,114,1,48,49,2330827240
9,22,Ticks_Phase_8,115,5,42,127,2330841576
9,22,Ticks_Phase_8,116,1,48,51,2331636840
9,22,Ticks_Phase_8,117,5,42,127,2331642184
9,22,Ticks_Phase_8,118,5,42,127,2332441856
9,22,Ticks_Phase_8,119,1,48,51,2332445948
9,22,Ticks_Phase_8,120,1,48,51,2333230076
9,22,Ticks_Phase_8,121,5,42,127,2333241712
9,22,Ticks_Phase_8,122,5,42,127,2334041576
9,22,Ticks_Phase_8,123,1,48,46,2334067680
9,22,Ticks_Phase_8,124,1,48,49,2334826344
9,22,Ticks_Phase_8,125,5,42,127,2334842180
9,22,Ticks_Phase_8,126,5,42,127,2335641900
9,22,Ticks_Phase_8,127,1,48,47,2335699980
9,22,Ticks_Phase_8,128,1,48,49,2336453180
9,22,Ticks_Phase_8,129,5,42,127,2336481744
9,22,Ticks_Phase_8,130,5,42,127,2337282384
9,22,Ticks_Phase_8,131,1,48,50,2337297708
9,22,Ticks_Phase_8,132,5,42,127,2338092504
9,22,Ticks_Phase_8,133,1,48,48,2338119968
9,22,Ticks_Phase_8,134,5,42,127,2338892288
9,22,Ticks_Phase_8,135,1,48,47,2338900212
9,22,Ticks_Phase_8,136,1,48,45,2339690484
9,22,Ticks_Phase_8,137,5,42,127,2339692068
9,22,Ticks_Phase_8,138,5,42,127,2340491492
9,22,Ticks_Phase_8,139,1,48,45,2340543812
9,22,Ticks_Phase_8,140,1,48,49,2341288464
9,22,Ticks_Phase_8,141,5,42,127,2341292616
9,22,Ticks_Phase_8,142,1,48,49,2342089220
9,22,Ticks_Phase_8,143,5,42,127,2342092252
9,22,Ticks_Phase_8,144,1,48,49,2342887360
9,22,Ticks_Phase_8,145,5,42,127,2342891816
9,22,Ticks_Phase_8,146,5,42,127,2343691632
9,22,Ticks_Phase_8,147,1,48,44,2343712500
9,22,Ticks_Phase_8,148,5,42,127,2344492468
9,22,Ticks_Phase_8,149,1,48,38,2344500908
9,22,Ticks_Phase_8,150,1,48,45,2345281812
9,22,Ticks_Phase_8,151,5,42,127,2345292096
9,22,Ticks_Phase_8,152,1,48,44,2346077472
9,22,Ticks_Phase_8,153,5,42,127,2346091956
9,22,Ticks_Phase_8,154,5,42,127,2346891676
9,22,Ticks_Phase_8,155,1,48,41,2346920484
9,22,Ticks_Phase_8,156,1,48,45,2347692656
9,22,Ticks_Phase_8,157,5,42,127,2347694220
9,22,Ticks_Phase_8,158,5,42,127,2348492220
9,22,Ticks_Phase_8,159,1,48,45,2348545092
9,22,Ticks_Phase_8,160,1,48,43,2349279920
9,22,Ticks_Phase_8,161,5,42,127,2349292076
9,22,Ticks_Phase_8,162,5,42,127,2350051656
9,22,Ticks_Phase_8,163,1,48,44,2350058740
9,22,Ticks_Phase_8,164,1,48,43,2350802656
9,22,Ticks_Phase_8,165,5,42,127,2350851312
9,22,Ticks_Phase_8,166,1,48,44,2351629808
9,22,Ticks_Phase_8,167,5,42,127,2351652144
9,22,Ticks_Phase_8,168,1,48,42,2352421652
9,22,Ticks_Phase_8,169,5,42,127,2352451860
9,22,Ticks_Phase_8,170,1,48,50,2353234316
9,22,Ticks_Phase_8,171,5,42,127,2353251944
9,22,Ticks_Phase_8,172,5,42,127,2354051364
9,22,Ticks_Phase_8,173,1,48,49,2354058376
9,22,Ticks_Phase_8,174,5,42,127,2354852196
9,22,Ticks_Phase_8,175,1,48,44,2354879576
9,22,Ticks_Phase_8,176,1,48,41,2355648272
9,22,Ticks_Phase_8,177,5,42,127,2355651900
9,22,Ticks_Phase_8,178,1,48,50,2356421860
9,22,Ticks_Phase_8,179,5,42,127,2356451912
9,22,Ticks_Phase_8,180,1,48,57,2357246076
9,22,Ticks_Phase_8,181,5,42,127,2357251424
9,22,Ticks_Phase_8,182,1,48,48,2358027588
9,22,Ticks_Phase_8,183,5,42,127,2358052184
9,22,Ticks_Phase_8,184,1,48,31,2358825056
9,22,Ticks_Phase_8,185,5,42,127,2358851900
9,22,Ticks_Phase_8,186,1,48,47,2359544840
9,22,Ticks_Phase_8,187,5,42,127,2359651592
9,22,Ticks_Phase_8,188,1,48,38,2360416988
9,22,Ticks_Phase_8,189,5,42,127,2360451616
9,22,Ticks_Phase_8,190,1,48,46,2361216920
9,22,Ticks_Phase_8,191,5,42,127,2361252152
9,22,Ticks_Phase_8,192,1,48,40,2362023676
9,22,Ticks_Phase_8,193,5,42,127,2362052088
9,22,Ticks_Phase_8,194,5,42,127,2362771756
9,22,Ticks_Phase_8,195,1,48,47,2362865408
9,22,Ticks_Phase_8,196,1,48,51,2363558616
9,22,Ticks_Phase_8,197,5,42,127,2363571608
9,22,Ticks_Phase_8,198,1,48,51,2364289372
9,22,Ticks_Phase_8,199,5,42,127,2364372812
9,22,Ticks_Phase_8,200,1,48,43,2365153700
9,22,Ticks_Phase_8,201,5,42,127,2365172004
9,22,Ticks_Phase_8,202,5,42,127,2365971896
9,22,Ticks_Phase_8,203,1,48,39,2365976588
9,22,Ticks_Phase_8,204,1,48,40,2366758164
9,22,Ticks_Phase_8,205,5,42,127,2366771528
9,22,Ticks_Phase_8,206,1,48,49,2367519600
9,22,Ticks_Phase_8,207,5,42,127,2367572584
9,22,Ticks_Phase_8,208,1,48,44,2368317972
9,22,Ticks_Phase_8,209,5,42,127,2368372148
9,22,Ticks_Phase_8,210,1,48,42,2369172240
9,22,Ticks_Phase_8,211,5,42,127,2369173656
9,22,Ticks_Phase_8,212,1,48,48,2369943532
9,22,Ticks_Phase_8,213,5,42,127,2369971500
9,22,Ticks_Phase_8,214,1,48,40,2370771208
9,22,Ticks_Phase_8,215,5,42,127,2370772852
9,22,Ticks_Phase_8,216,5,42,127,2371572272
9,22,Ticks_Phase_8,217,1,48,43,2371603424
9,22,Ticks_Phase_8,218,1,48,45,2372328516
9,22,Ticks_Phase_8,219,5,42,127,2372371780
9,22,Ticks_Phase_8,220,1,48,46,2373133572
9,22,Ticks_Phase_8,221,5,42,127,2373171568
9,22,Ticks_Phase_8,222,1,48,51,2373958212
9,22,Ticks_Phase_8,223,5,42,127,2373972324
9,22,Ticks_Phase_8,224,1,48,48,2374714044
9,22,Ticks_Phase_8,225,5,42,127,2374772260
9,22,Ticks_Phase_8,226,5,42,127,2375571980
9,22,Ticks_Phase_8,227,1,48,48,2375632168
9,22,Ticks_Phase_8,228,1,48,43,2376344168
9,22,Ticks_Phase_8,229,5,42,127,2376451524
9,22,Ticks_Phase_8,230,1,48,44,2377146576
9,22,Ticks_Phase_8,231,5,42,127,2377252280
9,22,Ticks_Phase_8,232,1,48,42,2377993044
9,22,Ticks_Phase_8,233,5,42,127,2378051936
9,22,Ticks_Phase_8,234,1,48,42,2378844352
9,22,Ticks_Phase_8,235,5,42,127,2378851872
9,22,Ticks_Phase_8,236,5,42,127,2379651364
9,22,Ticks_Phase_8,237,1,48,43,2379667884
9,22,Ticks_Phase_8,238,1,48,51,2380444224
9,22,Ticks_Phase_8,239,5,42,127,2380452192
9,22,Ticks_Phase_8,240,1,48,43,2381221000
9,22,Ticks_Phase_8,241,5,42,127,2381251876
9,22,Ticks_Phase_8,242,1,48,39,2382051816
9,22,Ticks_Phase_8,243,5,42,127,2382053384
9,22,Ticks_Phase_8,244,5,42,127,2382851332
9,22,Ticks_Phase_8,245,1,48,38,2382874968
9,22,Ticks_Phase_8,246,5,42,127,2383652088
9,22,Ticks_Phase_8,247,1,48,44,2383658720
9,22,Ticks_Phase_8,248,5,42,127,2384451952
9,22,Ticks_Phase_8,249,1,48,40,2384488840
9,22,Ticks_Phase_8,250,1,48,43,2385246976
9,22,Ticks_Phase_8,251,5,42,127,2385251804
9,22,Ticks_Phase_8,252,5,42,127,2386051372
9,22,Ticks_Phase_8,253,1,48,44,2386116564
9,22,Ticks_Phase_8,254,5,42,127,2386852204
9,22,Ticks_Phase_8,255,1,48,44,2386890524
9,22,Ticks_Phase_8,256,1,48,46,2387622300
9,22,Ticks_Phase_8,257,5,42,127,2387651908
9,22,Ticks_Phase_8,258,1,48,44,2388390784
9,22,Ticks_Phase_8,259,5,42,127,2388451696
9,22,Ticks_Phase_8,260,1,48,41,2389145480
9,22,Ticks_Phase_8,261,5,42,127,2389251640
9,22,Ticks_Phase_8,262,1,48,47,2389970440
9,22,Ticks_Phase_8,263,5,42,127,2390211912
9,22,Ticks_Phase_8,264,5,42,127,2391011720
9,22,Ticks_Phase_8,265,1,48,40,2391298116
9,22,Ticks_Phase_8,266,5,42,127,2391811680
9,22,Ticks_Phase_8,267,1,48,43,2391994228
9,22,Ticks_Phase_8,268,5,42,127,2392612144
9,22,Ticks_Phase_8,269,1,48,48,2392755228
9,22,Ticks_Phase_8,270,5,42,127,2393411856
9,22,Ticks_Phase_8,271,1,48,51,2393463428
9,22,Ticks_Phase_8,272,1,48,49,2394159416
9,22,Ticks_Phase_8,273,5,42,127,2394211784
9,22,Ticks_Phase_8,274,5,42,127,2395011576
9,22,Ticks_Phase_8,275,1,48,46,2395053860
9,22,Ticks_Phase_8,276,5,42,127,2395812336
9,22,Ticks_Phase_8,277,1,48,48,2395831256
9,22,Ticks_Phase_8,278,1,48,37,2396583776
9,22,Ticks_Phase_8,279,5,42,127,2396611888
9,22,Ticks_Phase_8,280,1,48,46,2397386780
9,22,Ticks_Phase_8,281,5,42,127,2397411676
9,22,Ticks_Phase_8,282,1,48,47,2398176076
9,22,Ticks_Phase_8,283,5,42,127,2398211336
9,22,Ticks_Phase_8,284,1,48,43,2398948156
9,22,Ticks_Phase_8,285,5,42,127,2399012316
9,22,Ticks_Phase_8,286,5,42,127,2399812036
9,22,Ticks_Phase_8,287,1,48,49,2399815232
9,22,Ticks_Phase_8,288,1,48,44,2400594784
9,22,Ticks_Phase_8,289,5,42,127,2400611592
9,22,Ticks_Phase_8,290,1,48,49,2401409568
9,22,Ticks_Phase_8,291,5,42,127,2401411308
9,22,Ticks_Phase_8,292,1,48,43,2402183728
9,22,Ticks_Phase_8,293,5,42,127,2402212140
9,22,Ticks_Phase_8,294,1,48,47,2402961500
9,22,Ticks_Phase_8,295,5,42,127,2403012148
9,22,Ticks_Phase_8,296,1,48,48,2403765244
9,22,Ticks_Phase_8,297,5,42,127,2403811636
9,22,Ticks_Phase_8,298,5,42,127,2404611380
9,22,Ticks_Phase_8,299,1,48,39,2404626628
9,22,Ticks_Phase_8,300,5,42,127,2405251556
9,22,Ticks_Phase_8,301,1,48,51,2405411220
9,22,Ticks_Phase_8,302,5,42,127,2406052092
9,22,Ticks_Phase_8,303,1,48,32,2406081124
9,22,Ticks_Phase_8,304,1,48,46,2406798144
9,22,Ticks_Phase_8,305,5,42,127,2406851948
9,22,Ticks_Phase_8,306,1,48,42,2407633284
9,22,Ticks_Phase_8,307,5,42,127,2407651956
9,22,Ticks_Phase_8,308,5,42,127,2408451476
9,22,Ticks_Phase_8,309,1,48,43,2408461864
9,22,Ticks_Phase_8,310,1,48,31,2409235948
9,22,Ticks_Phase_8,311,5,42,127,2409252156
9,22,Ticks_Phase_8,312,1,48,38,2410045020
9,22,Ticks_Phase_8,313,5,42,127,2410052092
9,22,Ticks_Phase_8,314,1,48,40,2410804448
9,22,Ticks_Phase_8,315,5,42,127,2410851952
9,22,Ticks_Phase_8,316,1,48,40,2411634112
9,22,Ticks_Phase_8,317,5,42,127,2411651292
9,22,Ticks_Phase_8,318,1,48,45,2412426856
9,22,Ticks_Phase_8,319,5,42,127,2412452124
9,22,Ticks_Phase_8,320,1,48,43,2413235556
9,22,Ticks_Phase_8,321,5,42,127,2413251988
9,22,Ticks_Phase_8,322,1,48,43,2414015420
9,22,Ticks_Phase_8,323,5,42,127,2414051772
9,22,Ticks_Phase_8,324,1,48,42,2414825844
9,22,Ticks_Phase_8,325,5,42,127,2414851660
9,22,Ticks_Phase_8,326,1,48,44,2415634116
9,22,Ticks_Phase_8,327,5,42,127,2415652268
9,22,Ticks_Phase_8,328,1,48,48,2416440948
9,22,Ticks_Phase_8,329,5,42,127,2416451904
9,22,Ticks_Phase_8,330,5,42,127,2417251624
9,22,Ticks_Phase_8,331,1,48,40,2417262612
9,22,Ticks_Phase_8,332,5,42,127,2418051708
9,22,Ticks_Phase_8,333,1,48,48,2418053572
9,22,Ticks_Phase_8,334,5,42,127,2418852168
9,22,Ticks_Phase_8,335,1,48,42,2419139656
9,22,Ticks_Phase_8,336,5,42,127,2419652028
9,22,Ticks_Phase_8,337,1,48,46,2419863508
9,22,Ticks_Phase_8,338,5,42,127,2420451668
9,22,Ticks_Phase_8,0,9999,9999,9999,9999,2285239396
9,22,Ticks_Phase_8,1,9999,9999,9999,9999,2286039108
9,22,Ticks_Phase_8,2,9999,9999,9999,9999,2286839868
9,22,Ticks_Phase_8,3,9999,9999,9999,9999,2287639676
9,22,Ticks_Phase_8,4,9999,9999,9999,9999,2288439380
9,22,Ticks_Phase_8,5,9999,9999,9999,9999,2289239100
9,22,Ticks_Phase_8,6,9999,9999,9999,9999,2290039928
9,22,Ticks_Phase_8,7,9999,9999,9999,9999,2290839640
9,22,Ticks_Phase_8,8,9999,9999,9999,9999,2291639352
9,22,Ticks_Phase_8,9,9999,9999,9999,9999,2292439136
9,22,Ticks_Phase_8,10,9999,9999,9999,9999,2293239896
9,22,Ticks_Phase_8,11,9999,9999,9999,9999,2294039632
9,22,Ticks_Phase_8,12,9999,9999,9999,9999,2294839420
9,22,Ticks_Phase_8,13,9999,9999,9999,9999,2295639132
9,22,Ticks_Phase_8,14,9999,9999,9999,9999,2296439892
9,22,Ticks_Phase_8,15,9999,9999,9999,9999,2297239608
9,22,Ticks_Phase_8,16,9999,9999,9999,9999,2298039392
9,22,Ticks_Phase_8,17,9999,9999,9999,9999,2298839100
9,22,Ticks_Phase_8,18,9999,9999,9999,9999,2299639932
9,22,Ticks_Phase_8,19,9999,9999,9999,9999,2300439676
9,22,Ticks_Phase_8,20,9999,9999,9999,9999,2301239388
9,22,Ticks_Phase_8,21,9999,9999,9999,9999,2302039096
9,22,Ticks_Phase_8,22,9999,9999,9999,9999,2302839928
9,22,Ticks_Phase_8,23,9999,9999,9999,9999,2303639640
9,22,Ticks_Phase_8,24,9999,9999,9999,9999,2304439360
9,22,Ticks_Phase_8,25,9999,9999,9999,9999,2305239144
9,22,Ticks_Phase_8,26,9999,9999,9999,9999,2306039904
9,22,Ticks_Phase_8,27,9999,9999,9999,9999,2306839636
9,22,Ticks_Phase_8,28,9999,9999,9999,9999,2307639420
9,22,Ticks_Phase_8,29,9999,9999,9999,9999,2308439140
9,22,Ticks_Phase_8,30,9999,9999,9999,9999,2309219452
9,22,Ticks_Phase_8,31,9999,9999,9999,9999,2310019160
9,22,Ticks_Phase_8,32,9999,9999,9999,9999,2310819920
9,22,Ticks_Phase_8,33,9999,9999,9999,9999,2311619712
9,22,Ticks_Phase_8,34,9999,9999,9999,9999,2312419424
9,22,Ticks_Phase_8,35,9999,9999,9999,9999,2313219160
9,22,Ticks_Phase_8,36,9999,9999,9999,9999,2314019912
9,22,Ticks_Phase_8,37,9999,9999,9999,9999,2314819708
9,22,Ticks_Phase_8,38,9999,9999,9999,9999,2315619416
9,22,Ticks_Phase_8,39,9999,9999,9999,9999,2316419132
9,22,Ticks_Phase_8,40,9999,9999,9999,9999,2317219960
9,22,Ticks_Phase_8,41,9999,9999,9999,9999,2318019668
9,22,Ticks_Phase_8,42,9999,9999,9999,9999,2318819384
9,22,Ticks_Phase_8,43,9999,9999,9999,9999,2319619196
9,22,Ticks_Phase_8,44,9999,9999,9999,9999,2320419948
9,22,Ticks_Phase_8,45,9999,9999,9999,9999,2321219660
9,22,Ticks_Phase_8,46,9999,9999,9999,9999,2322019448
9,22,Ticks_Phase_8,47,9999,9999,9999,9999,2322819188
9,22,Ticks_Phase_8,48,9999,9999,9999,9999,2323639400
9,22,Ticks_Phase_8,49,9999,9999,9999,9999,2324439112
9,22,Ticks_Phase_8,50,9999,9999,9999,9999,2325239864
9,22,Ticks_Phase_8,51,9999,9999,9999,9999,2326039676
9,22,Ticks_Phase_8,52,9999,9999,9999,9999,2326839388
9,22,Ticks_Phase_8,53,9999,9999,9999,9999,2327639104
9,22,Ticks_Phase_8,54,9999,9999,9999,9999,2328439932
9,22,Ticks_Phase_8,55,9999,9999,9999,9999,2329239652
9,22,Ticks_Phase_8,56,9999,9999,9999,9999,2330039364
9,22,Ticks_Phase_8,57,9999,9999,9999,9999,2330839144
9,22,Ticks_Phase_8,58,9999,9999,9999,9999,2331639900
9,22,Ticks_Phase_8,59,9999,9999,9999,9999,2332439644
9,22,Ticks_Phase_8,60,9999,9999,9999,9999,2333239348
9,22,Ticks_Phase_8,61,9999,9999,9999,9999,2334039144
9,22,Ticks_Phase_8,62,9999,9999,9999,9999,2334839896
9,22,Ticks_Phase_8,63,9999,9999,9999,9999,2335639612
9,22,Ticks_Phase_8,64,9999,9999,9999,9999,2336479308
9,22,Ticks_Phase_8,65,9999,9999,9999,9999,2337280100
9,22,Ticks_Phase_8,66,9999,9999,9999,9999,2338090068
9,22,Ticks_Phase_8,67,9999,9999,9999,9999,2338889856
9,22,Ticks_Phase_8,68,9999,9999,9999,9999,2339689564
9,22,Ticks_Phase_8,69,9999,9999,9999,9999,2340489280
9,22,Ticks_Phase_8,70,9999,9999,9999,9999,2341290104
9,22,Ticks_Phase_8,71,9999,9999,9999,9999,2342089816
9,22,Ticks_Phase_8,72,9999,9999,9999,9999,2342889528
9,22,Ticks_Phase_8,73,9999,9999,9999,9999,2343689268
9,22,Ticks_Phase_8,74,9999,9999,9999,9999,2344490104
9,22,Ticks_Phase_8,75,9999,9999,9999,9999,2345289812
9,22,Ticks_Phase_8,76,9999,9999,9999,9999,2346089596
9,22,Ticks_Phase_8,77,9999,9999,9999,9999,2346889312
9,22,Ticks_Phase_8,78,9999,9999,9999,9999,2347690072
9,22,Ticks_Phase_8,79,9999,9999,9999,9999,2348489784
9,22,Ticks_Phase_8,80,9999,9999,9999,9999,2349289564
9,22,Ticks_Phase_8,81,9999,9999,9999,9999,2350049368
9,22,Ticks_Phase_8,82,9999,9999,9999,9999,2350849100
9,22,Ticks_Phase_8,83,9999,9999,9999,9999,2351649860
9,22,Ticks_Phase_8,84,9999,9999,9999,9999,2352449648
9,22,Ticks_Phase_8,85,9999,9999,9999,9999,2353249360
9,22,Ticks_Phase_8,86,9999,9999,9999,9999,2354049080
9,22,Ticks_Phase_8,87,9999,9999,9999,9999,2354849912
9,22,Ticks_Phase_8,88,9999,9999,9999,9999,2355649616
9,22,Ticks_Phase_8,89,9999,9999,9999,9999,2356449404
9,22,Ticks_Phase_8,90,9999,9999,9999,9999,2357249140
9,22,Ticks_Phase_8,91,9999,9999,9999,9999,2358049896
9,22,Ticks_Phase_8,92,9999,9999,9999,9999,2358849612
9,22,Ticks_Phase_8,93,9999,9999,9999,9999,2359649380
9,22,Ticks_Phase_8,94,9999,9999,9999,9999,2360449108
9,22,Ticks_Phase_8,95,9999,9999,9999,9999,2361249864
9,22,Ticks_Phase_8,96,9999,9999,9999,9999,2362049652
9,22,Ticks_Phase_8,97,9999,9999,9999,9999,2362769468
9,22,Ticks_Phase_8,98,9999,9999,9999,9999,2363569248
9,22,Ticks_Phase_8,99,9999,9999,9999,9999,2364370008
9,22,Ticks_Phase_8,100,9999,9999,9999,9999,2365169716
9,22,Ticks_Phase_8,101,9999,9999,9999,9999,2365969536
9,22,Ticks_Phase_8,102,9999,9999,9999,9999,2366769240
9,22,Ticks_Phase_8,103,9999,9999,9999,9999,2367570000
9,22,Ticks_Phase_8,104,9999,9999,9999,9999,2368369788
9,22,Ticks_Phase_8,105,9999,9999,9999,9999,2369169508
9,22,Ticks_Phase_8,106,9999,9999,9999,9999,2369969212
9,22,Ticks_Phase_8,107,9999,9999,9999,9999,2370769976
9,22,Ticks_Phase_8,108,9999,9999,9999,9999,2371569764
9,22,Ticks_Phase_8,109,9999,9999,9999,9999,2372369496
9,22,Ticks_Phase_8,110,9999,9999,9999,9999,2373169208
9,22,Ticks_Phase_8,111,9999,9999,9999,9999,2373970040
9,22,Ticks_Phase_8,112,9999,9999,9999,9999,2374769752
9,22,Ticks_Phase_8,113,9999,9999,9999,9999,2375569468
9,22,Ticks_Phase_8,114,9999,9999,9999,9999,2376449088
9,22,Ticks_Phase_8,115,9999,9999,9999,9999,2377249844
9,22,Ticks_Phase_8,116,9999,9999,9999,9999,2378049648
9,22,Ticks_Phase_8,117,9999,9999,9999,9999,2378849360
9,22,Ticks_Phase_8,118,9999,9999,9999,9999,2379649076
9,22,Ticks_Phase_8,119,9999,9999,9999,9999,2380449904
9,22,Ticks_Phase_8,120,9999,9999,9999,9999,2381249588
9,22,Ticks_Phase_8,121,9999,9999,9999,9999,2382049384
9,22,Ticks_Phase_8,122,9999,9999,9999,9999,2382849120
9,22,Ticks_Phase_8,123,9999,9999,9999,9999,2383649876
9,22,Ticks_Phase_8,124,9999,9999,9999,9999,2384449588
9,22,Ticks_Phase_8,125,9999,9999,9999,9999,2385249368
9,22,Ticks_Phase_8,126,9999,9999,9999,9999,2386049084
9,22,Ticks_Phase_8,127,9999,9999,9999,9999,2386849920
9,22,Ticks_Phase_8,128,9999,9999,9999,9999,2387649624
9,22,Ticks_Phase_8,129,9999,9999,9999,9999,2388449336
9,22,Ticks_Phase_8,130,9999,9999,9999,9999,2389249128
9,22,Ticks_Phase_8,131,9999,9999,9999,9999,2390209624
9,22,Ticks_Phase_8,132,9999,9999,9999,9999,2391009360
9,22,Ticks_Phase_8,133,9999,9999,9999,9999,2391809096
9,22,Ticks_Phase_8,134,9999,9999,9999,9999,2392609856
9,22,Ticks_Phase_8,135,9999,9999,9999,9999,2393409644
9,22,Ticks_Phase_8,136,9999,9999,9999,9999,2394209348
9,22,Ticks_Phase_8,137,9999,9999,9999,9999,2395009140
9,22,Ticks_Phase_8,138,9999,9999,9999,9999,2395809900
9,22,Ticks_Phase_8,139,9999,9999,9999,9999,2396609604
9,22,Ticks_Phase_8,140,9999,9999,9999,9999,2397409388
9,22,Ticks_Phase_8,141,9999,9999,9999,9999,2398209124
9,22,Ticks_Phase_8,142,9999,9999,9999,9999,2399009884
9,22,Ticks_Phase_8,143,9999,9999,9999,9999,2399809600
9,22,Ticks_Phase_8,144,9999,9999,9999,9999,2400609384
9,22,Ticks_Phase_8,145,9999,9999,9999,9999,2401409120
9,22,Ticks_Phase_8,146,9999,9999,9999,9999,2402209852
9,22,Ticks_Phase_8,147,9999,9999,9999,9999,2403009640
9,22,Ticks_Phase_8,148,9999,9999,9999,9999,2403809348
9,22,Ticks_Phase_8,149,9999,9999,9999,9999,2404609092
9,22,Ticks_Phase_8,150,9999,9999,9999,9999,2405249120
9,22,Ticks_Phase_8,151,9999,9999,9999,9999,2406049880
9,22,Ticks_Phase_8,152,9999,9999,9999,9999,2406849660
9,22,Ticks_Phase_8,153,9999,9999,9999,9999,2407649372
9,22,Ticks_Phase_8,154,9999,9999,9999,9999,2408449116
9,22,Ticks_Phase_8,155,9999,9999,9999,9999,2409249868
9,22,Ticks_Phase_8,156,9999,9999,9999,9999,2410049656
9,22,Ticks_Phase_8,157,9999,9999,9999,9999,2410849368
9,22,Ticks_Phase_8,158,9999,9999,9999,9999,2411649080
9,22,Ticks_Phase_8,159,9999,9999,9999,9999,2412449912
9,22,Ticks_Phase_8,160,9999,9999,9999,9999,2413249628
9,22,Ticks_Phase_8,161,9999,9999,9999,9999,2414049340
9,22,Ticks_Phase_8,162,9999,9999,9999,9999,2414849152
9,22,Ticks_Phase_8,163,9999,9999,9999,9999,2415649908
9,22,Ticks_Phase_8,164,9999,9999,9999,9999,2416449620
9,22,Ticks_Phase_8,165,9999,9999,9999,9999,2417249336
9,22,Ticks_Phase_8,166,9999,9999,9999,9999,2418049124
9,22,Ticks_Phase_8,167,9999,9999,9999,9999,2418849884
9,22,Ticks_Phase_8,168,9999,9999,9999,9999,2419649592
9,22,Ticks_Phase_8,169,9999,9999,9999,9999,2420449380
10,23,Ticks_Phase_5,0,5,42,127,2433210780
10,23,Ticks_Phase_5,1,1,48,51,2433455432
10,23,Ticks_Phase_5,2,5,42,127,2433710468
10,23,Ticks_Phase_5,3,1,48,43,2433948304
10,23,Ticks_Phase_5,4,5,42,127,2434211276
10,23,Ticks_Phase_5,5,1,48,48,2434429208
10,23,Ticks_Phase_5,6,5,42,127,2434711112
10,23,Ticks_Phase_5,7,1,48,42,2434828844
10,23,Ticks_Phase_5,8,5,42,127,2435210728
10,23,Ticks_Phase_5,9,1,48,46,2435293004
10,23,Ticks_Phase_5,10,5,42,127,2435711388
10,23,Ticks_Phase_5,11,1,48,46,2435757492
10,23,Ticks_Phase_5,12,5,42,127,2436211000
10,23,Ticks_Phase_5,13,1,48,43,2436236056
10,23,Ticks_Phase_5,14,5,42,127,2436711060
10,23,Ticks_Phase_5,15,1,48,41,2436712480
10,23,Ticks_Phase_5,16,1,48,43,2437197980
10,23,Ticks_Phase_5,17,5,42,127,2437210372
10,23,Ticks_Phase_5,18,5,42,127,2437711188
10,23,Ticks_Phase_5,19,1,48,46,2437717072
10,23,Ticks_Phase_5,20,5,42,127,2438211024
10,23,Ticks_Phase_5,21,1,48,49,2438226344
10,23,Ticks_Phase_5,22,5,42,127,2438710784
10,23,Ticks_Phase_5,23,1,48,51,2438741840
10,23,Ticks_Phase_5,24,5,42,127,2439211520
10,23,Ticks_Phase_5,25,1,48,53,2439213964
10,23,Ticks_Phase_5,26,5,42,127,2439711060
10,23,Ticks_Phase_5,27,1,48,51,2439724884
10,23,Ticks_Phase_5,28,5,42,127,2440210752
10,23,Ticks_Phase_5,29,1,48,50,2440230052
10,23,Ticks_Phase_5,30,5,42,127,2440710588
10,23,Ticks_Phase_5,31,1,48,43,2440722392
10,23,Ticks_Phase_5,32,5,42,127,2441211176
10,23,Ticks_Phase_5,33,1,48,49,2441248288
10,23,Ticks_Phase_5,34,5,42,127,2441710916
10,23,Ticks_Phase_5,35,1,48,44,2441713884
10,23,Ticks_Phase_5,36,5,42,127,2442210600
10,23,Ticks_Phase_5,37,1,48,47,2442223228
10,23,Ticks_Phase_5,38,1,48,47,2442711188
10,23,Ticks_Phase_5,39,5,42,127,2442712824
10,23,Ticks_Phase_5,40,5,42,127,2443211024
10,23,Ticks_Phase_5,41,1,48,55,2443220436
10,23,Ticks_Phase_5,42,5,42,127,2443710784
10,23,Ticks_Phase_5,43,1,48,51,2443731132
10,23,Ticks_Phase_5,44,5,42,127,2444210696
10,23,Ticks_Phase_5,45,1,48,53,2444251192
10,23,Ticks_Phase_5,46,1,48,49,2444706372
10,23,Ticks_Phase_5,47,5,42,127,2444711276
10,23,Ticks_Phase_5,48,5,42,127,2445210896
10,23,Ticks_Phase_5,49,1,48,43,2445248008
10,23,Ticks_Phase_5,50,1,48,42,2445707772
10,23,Ticks_Phase_5,51,5,42,127,2445710652
10,23,Ticks_Phase_5,52,1,48,43,2446208604
10,23,Ticks_Phase_5,53,5,42,127,2446210412
10,23,Ticks_Phase_5,54,5,42,127,2446711080
10,23,Ticks_Phase_5,55,1,48,33,2446719672
10,23,Ticks_Phase_5,56,1,48,44,2447206460
10,23,Ticks_Phase_5,57,5,42,127,2447210760
10,23,Ticks_Phase_5,58,1,48,44,2447679796
10,23,Ticks_Phase_5,59,5,42,127,2447710672
10,23,Ticks_Phase_5,60,1,48,52,2448199496
10,23,Ticks_Phase_5,61,5,42,127,2448201300
10,23,Ticks_Phase_5,62,1,48,47,2448689728
10,23,Ticks_Phase_5,63,5,42,127,2448700764
10,23,Ticks_Phase_5,64,5,42,127,2449200608
10,23,Ticks_Phase_5,65,1,48,50,2449214432
10,23,Ticks_Phase_5,66,1,48,51,2449664688
10,23,Ticks_Phase_5,67,5,42,127,2449701412
10,23,Ticks_Phase_5,68,1,48,49,2450176508
10,23,Ticks_Phase_5,69,5,42,127,2450200880
10,23,Ticks_Phase_5,70,1,48,55,2450659480
10,23,Ticks_Phase_5,71,5,42,127,2450700716
10,23,Ticks_Phase_5,72,1,48,55,2451180880
10,23,Ticks_Phase_5,73,5,42,127,2451201524
10,23,Ticks_Phase_5,74,1,48,56,2451672924
10,23,Ticks_Phase_5,75,5,42,127,2451701112
10,23,Ticks_Phase_5,76,1,48,51,2452195428
10,23,Ticks_Phase_5,77,5,42,127,2452200780
10,23,Ticks_Phase_5,78,1,48,45,2452696388
10,23,Ticks_Phase_5,79,5,42,127,2452700616
10,23,Ticks_Phase_5,80,5,42,127,2453201580
10,23,Ticks_Phase_5,81,1,48,48,2453214436
10,23,Ticks_Phase_5,82,1,48,49,2453683860
10,23,Ticks_Phase_5,83,5,42,127,2453700892
10,23,Ticks_Phase_5,84,1,48,52,2454189320
10,23,Ticks_Phase_5,85,5,42,127,2454200652
10,23,Ticks_Phase_5,86,1,48,52,2454645636
10,23,Ticks_Phase_5,87,5,42,127,2454701460
10,23,Ticks_Phase_5,88,1,48,49,2455192504
10,23,Ticks_Phase_5,89,5,42,127,2455211260
10,23,Ticks_Phase_5,90,1,48,46,2455684480
10,23,Ticks_Phase_5,91,5,42,127,2455711244
10,23,Ticks_Phase_5,92,1,48,47,2456170992
10,23,Ticks_Phase_5,93,5,42,127,2456210932
10,23,Ticks_Phase_5,94,1,48,47,2456690300
10,23,Ticks_Phase_5,95,5,42,127,2456710476
10,23,Ticks_Phase_5,96,1,48,45,2457193584
10,23,Ticks_Phase_5,97,5,42,127,2457220348
10,23,Ticks_Phase_5,98,1,48,39,2457703152
10,23,Ticks_Phase_5,99,5,42,127,2457721232
10,23,Ticks_Phase_5,100,1,48,50,2458214824
10,23,Ticks_Phase_5,101,5,42,127,2458220772
10,23,Ticks_Phase_5,102,1,48,47,2458700512
10,23,Ticks_Phase_5,103,5,42,127,2458720684
10,23,Ticks_Phase_5,104,1,48,44,2459208576
10,23,Ticks_Phase_5,105,5,42,127,2459221496
10,23,Ticks_Phase_5,106,1,48,48,2459674196
10,23,Ticks_Phase_5,107,5,42,127,2459721332
10,23,Ticks_Phase_5,108,5,42,127,2460220804
10,23,Ticks_Phase_5,109,1,48,49,2460225644
10,23,Ticks_Phase_5,110,1,48,45,2460698896
10,23,Ticks_Phase_5,111,5,42,127,2460720412
10,23,Ticks_Phase_5,112,1,48,46,2461205088
10,23,Ticks_Phase_5,113,5,42,127,2461221296
10,23,Ticks_Phase_5,114,1,48,42,2461717132
10,23,Ticks_Phase_5,115,5,42,127,2461721136
10,23,Ticks_Phase_5,116,1,48,40,2462184972
10,23,Ticks_Phase_5,117,5,42,127,2462220752
10,23,Ticks_Phase_5,118,1,48,48,2462703760
10,23,Ticks_Phase_5,119,5,42,127,2462721336
10,23,Ticks_Phase_5,120,1,48,45,2463219564
10,23,Ticks_Phase_5,121,5,42,127,2463221320
10,23,Ticks_Phase_5,122,1,48,38,2463714288
10,23,Ticks_Phase_5,123,5,42,127,2463720912
10,23,Ticks_Phase_5,124,1,48,44,2464220156
10,23,Ticks_Phase_5,125,5,42,127,2464221944
10,23,Ticks_Phase_5,126,5,42,127,2464721192
10,23,Ticks_Phase_5,127,1,48,44,2464766492
10,23,Ticks_Phase_5,128,1,48,41,2465217696
10,23,Ticks_Phase_5,129,5,42,127,2465240348
10,23,Ticks_Phase_5,130,1,48,43,2465722556
10,23,Ticks_Phase_5,131,5,42,127,2465741232
10,23,Ticks_Phase_5,132,5,42,127,2466240852
10,23,Ticks_Phase_5,133,1,48,44,2466247260
10,23,Ticks_Phase_5,134,1,48,50,2466733008
10,23,Ticks_Phase_5,135,5,42,127,2466740756
10,23,Ticks_Phase_5,136,1,48,44,2467205884
10,23,Ticks_Phase_5,137,5,42,127,2467241192
10,23,Ticks_Phase_5,138,1,48,48,2467737100
10,23,Ticks_Phase_5,139,5,42,127,2467740952
10,23,Ticks_Phase_5,140,1,48,45,2468212232
10,23,Ticks_Phase_5,141,5,42,127,2468240940
10,23,Ticks_Phase_5,142,1,48,43,2468711844
10,23,Ticks_Phase_5,143,5,42,127,2468740332
10,23,Ticks_Phase_5,144,1,48,44,2469223136
10,23,Ticks_Phase_5,145,5,42,127,2469241064
10,23,Ticks_Phase_5,146,5,42,127,2469740764
10,23,Ticks_Phase_5,147,1,48,36,2469747096
10,23,Ticks_Phase_5,148,5,42,127,2470240748
10,23,Ticks_Phase_5,149,1,48,37,2470250012
10,23,Ticks_Phase_5,150,5,42,127,2470741260
10,23,Ticks_Phase_5,151,1,48,41,2470745872
10,23,Ticks_Phase_5,152,5,42,127,2471240948
10,23,Ticks_Phase_5,153,1,48,42,2471244888
10,23,Ticks_Phase_5,154,5,42,127,2471740860
10,23,Ticks_Phase_5,155,1,48,35,2471749900
10,23,Ticks_Phase_5,156,5,42,127,2472240620
10,23,Ticks_Phase_5,157,1,48,34,2472257892
10,23,Ticks_Phase_5,158,5,42,127,2472741208
10,23,Ticks_Phase_5,159,1,48,36,2472770392
10,23,Ticks_Phase_5,160,5,42,127,2473240896
10,23,Ticks_Phase_5,161,1,48,42,2473252032
10,23,Ticks_Phase_5,162,5,42,127,2473721340
10,23,Ticks_Phase_5,163,1,48,38,2473746172
10,23,Ticks_Phase_5,164,5,42,127,2474220780
10,23,Ticks_Phase_5,165,1,48,46,2474226664
10,23,Ticks_Phase_5,166,5,42,127,2474720692
10,23,Ticks_Phase_5,167,1,48,45,2474724860
10,23,Ticks_Phase_5,168,5,42,127,2475221576
10,23,Ticks_Phase_5,169,1,48,46,2475231516
10,23,Ticks_Phase_5,170,1,48,45,2475709704
10,23,Ticks_Phase_5,171,5,42,127,2475721036
10,23,Ticks_Phase_5,172,5,42,127,2476220732
10,23,Ticks_Phase_5,173,1,48,40,2476248420
10,23,Ticks_Phase_5,174,5,42,127,2476720496
10,23,Ticks_Phase_5,175,1,48,44,2476722936
10,23,Ticks_Phase_5,176,1,48,42,2477195948
10,23,Ticks_Phase_5,177,5,42,127,2477221224
10,23,Ticks_Phase_5,178,1,48,40,2477713544
10,23,Ticks_Phase_5,179,5,42,127,2477721136
10,23,Ticks_Phase_5,180,1,48,39,2478182052
10,23,Ticks_Phase_5,181,5,42,127,2478220648
10,23,Ticks_Phase_5,182,1,48,33,2478707496
10,23,Ticks_Phase_5,183,5,42,127,2478721460
10,23,Ticks_Phase_5,184,1,48,37,2479216540
10,23,Ticks_Phase_5,185,5,42,127,2479221220
10,23,Ticks_Phase_5,186,1,48,42,2479701040
10,23,Ticks_Phase_5,187,5,42,127,2479720760
10,23,Ticks_Phase_5,188,1,48,38,2480191592
10,23,Ticks_Phase_5,189,5,42,127,2480220524
10,23,Ticks_Phase_5,190,1,48,44,2480708116
10,23,Ticks_Phase_5,191,5,42,127,2480721480
10,23,Ticks_Phase_5,192,1,48,43,2481205184
10,23,Ticks_Phase_5,193,5,42,127,2481220948
10,23,Ticks_Phase_5,194,5,42,127,2481670396
10,23,Ticks_Phase_5,195,1,48,40,2481715820
10,23,Ticks_Phase_5,196,1,48,40,2482165472
10,23,Ticks_Phase_5,197,5,42,127,2482171348
10,23,Ticks_Phase_5,198,1,48,38,2482662220
10,23,Ticks_Phase_5,199,5,42,127,2482671088
10,23,Ticks_Phase_5,200,1,48,37,2483155688
10,23,Ticks_Phase_5,201,5,42,127,2483170776
10,23,Ticks_Phase_5,202,1,48,41,2483660028
10,23,Ticks_Phase_5,203,5,42,127,2483671360
10,23,Ticks_Phase_5,204,1,48,38,2484132676
10,23,Ticks_Phase_5,205,5,42,127,2484171348
10,23,Ticks_Phase_5,206,1,48,37,2484635732
10,23,Ticks_Phase_5,207,5,42,127,2484671032
10,23,Ticks_Phase_5,208,1,48,39,2485098572
10,23,Ticks_Phase_5,209,5,42,127,2485170572
10,23,Ticks_Phase_5,210,1,48,28,2485618776
10,23,Ticks_Phase_5,211,5,42,127,2485671384
10,23,Ticks_Phase_5,212,1,48,36,2486119076
10,23,Ticks_Phase_5,213,5,42,127,2486171072
10,23,Ticks_Phase_5,214,1,48,43,2486627740
10,23,Ticks_Phase_5,215,5,42,127,2486670908
10,23,Ticks_Phase_5,216,1,48,43,2487105712
10,23,Ticks_Phase_5,217,5,42,127,2487170372
10,23,Ticks_Phase_5,218,1,48,44,2487598968
10,23,Ticks_Phase_5,219,5,42,127,2487671184
10,23,Ticks_Phase_5,220,1,48,44,2488098956
10,23,Ticks_Phase_5,221,5,42,127,2488170724
10,23,Ticks_Phase_5,222,1,48,37,2488606640
10,23,Ticks_Phase_5,223,5,42,127,2488670632
10,23,Ticks_Phase_5,224,1,48,42,2489092780
10,23,Ticks_Phase_5,225,5,42,127,2489171292
10,23,Ticks_Phase_5,226,1,48,42,2489594412
10,23,Ticks_Phase_5,227,5,42,127,2489671132
10,23,Ticks_Phase_5,228,1,48,39,2490138284
10,23,Ticks_Phase_5,229,5,42,127,2490221072
10,23,Ticks_Phase_5,230,1,48,25,2490677888
10,23,Ticks_Phase_5,231,5,42,127,2490720536
10,23,Ticks_Phase_5,232,1,48,38,2491194952
10,23,Ticks_Phase_5,233,5,42,127,2491221272
10,23,Ticks_Phase_5,234,1,48,36,2491694492
10,23,Ticks_Phase_5,235,5,42,127,2491721184
10,23,Ticks_Phase_5,236,1,48,30,2492168040
10,23,Ticks_Phase_5,237,5,42,127,2492220872
10,23,Ticks_Phase_5,238,1,48,34,2492656996
10,23,Ticks_Phase_5,239,5,42,127,2492720484
10,23,Ticks_Phase_5,240,1,48,33,2493167392
10,23,Ticks_Phase_5,241,5,42,127,2493221296
10,23,Ticks_Phase_5,242,1,48,40,2493662668
10,23,Ticks_Phase_5,243,5,42,127,2493720908
10,23,Ticks_Phase_5,244,1,48,41,2494165568
10,23,Ticks_Phase_5,245,5,42,127,2494220816
10,23,Ticks_Phase_5,246,1,48,37,2494662412
10,23,Ticks_Phase_5,247,5,42,127,2494721328
10,23,Ticks_Phase_5,248,1,48,41,2495179552
10,23,Ticks_Phase_5,249,5,42,127,2495221092
10,23,Ticks_Phase_5,250,1,48,42,2495672352
10,23,Ticks_Phase_5,251,5,42,127,2495720904
10,23,Ticks_Phase_5,252,1,48,36,2496162904
10,23,Ticks_Phase_5,253,5,42,127,2496220668
10,23,Ticks_Phase_5,254,1,48,41,2496658236
10,23,Ticks_Phase_5,255,5,42,127,2496721256
10,23,Ticks_Phase_5,256,1,48,40,2497153588
10,23,Ticks_Phase_5,257,5,42,127,2497220868
10,23,Ticks_Phase_5,258,1,48,37,2497656044
10,23,Ticks_Phase_5,259,5,42,127,2497720928
10,23,Ticks_Phase_5,260,1,48,41,2498151472
10,23,Ticks_Phase_5,261,5,42,127,2498221516
10,23,Ticks_Phase_5,262,1,48,36,2498633332
10,23,Ticks_Phase_5,263,5,42,127,2498830700
10,23,Ticks_Phase_5,264,1,48,40,2499134816
10,23,Ticks_Phase_5,265,5,42,127,2499330464
10,23,Ticks_Phase_5,266,1,48,36,2499760620
10,23,Ticks_Phase_5,267,5,42,127,2499831140
10,23,Ticks_Phase_5,268,1,48,38,2500293704
10,23,Ticks_Phase_5,269,5,42,127,2500330952
10,23,Ticks_Phase_5,270,1,48,38,2500813532
10,23,Ticks_Phase_5,271,5,42,127,2500830788
10,23,Ticks_Phase_5,272,1,48,40,2501320940
10,23,Ticks_Phase_5,273,5,42,127,2501331224
10,23,Ticks_Phase_5,274,1,48,37,2501805344
10,23,Ticks_Phase_5,275,5,42,127,2501830988
10,23,Ticks_Phase_5,276,1,48,37,2502310428
10,23,Ticks_Phase_5,277,5,42,127,2502330748
10,23,Ticks_Phase_5,278,1,48,30,2502801276
10,23,Ticks_Phase_5,279,5,42,127,2502830660
10,23,Ticks_Phase_5,280,1,48,34,2503327020
10,23,Ticks_Phase_5,281,5,42,127,2503331172
10,23,Ticks_Phase_5,282,1,48,35,2503829588
10,23,Ticks_Phase_5,283,5,42,127,2503831528
10,23,Ticks_Phase_5,284,1,48,41,2504316508
10,23,Ticks_Phase_5,285,5,42,127,2504330696
10,23,Ticks_Phase_5,286,1,48,38,2504802648
10,23,Ticks_Phase_5,287,5,42,127,2504831508
10,23,Ticks_Phase_5,288,1,48,31,2505306524
10,23,Ticks_Phase_5,289,5,42,127,2505331120
10,23,Ticks_Phase_5,290,1,48,35,2505820452
10,23,Ticks_Phase_5,291,5,42,127,2505830740
10,23,Ticks_Phase_5,292,1,48,38,2506308984
10,23,Ticks_Phase_5,293,5,42,127,2506330424
10,23,Ticks_Phase_5,294,1,48,40,2506787540
10,23,Ticks_Phase_5,295,5,42,127,2506831160
10,23,Ticks_Phase_5,296,1,48,37,2507322056
10,23,Ticks_Phase_5,297,5,42,127,2507330924
10,23,Ticks_Phase_5,298,1,48,31,2507821300
10,23,Ticks_Phase_5,299,5,42,127,2507830612
10,23,Ticks_Phase_5,300,5,42,127,2508230984
10,23,Ticks_Phase_5,301,1,48,33,2508293736
10,23,Ticks_Phase_5,302,5,42,127,2508730668
10,23,Ticks_Phase_5,303,1,48,32,2508768916
10,23,Ticks_Phase_5,304,5,42,127,2509230432
10,23,Ticks_Phase_5,305,1,48,35,2509236692
10,23,Ticks_Phase_5,306,5,42,127,2509731316
10,23,Ticks_Phase_5,307,1,48,32,2509741628
10,23,Ticks_Phase_5,308,1,48,29,2510204900
10,23,Ticks_Phase_5,309,5,42,127,2510230772
10,23,Ticks_Phase_5,310,1,48,37,2510711708
10,23,Ticks_Phase_5,311,5,42,127,2510730536
10,23,Ticks_Phase_5,312,5,42,127,2511231276
10,23,Ticks_Phase_5,313,1,48,36,2511233292
10,23,Ticks_Phase_5,314,5,42,127,2511731340
10,23,Ticks_Phase_5,315,1,48,28,2511734608
10,23,Ticks_Phase_5,316,1,48,31,2512229292
10,23,Ticks_Phase_5,317,5,42,127,2512231172
10,23,Ticks_Phase_5,318,1,48,39,2512725808
10,23,Ticks_Phase_5,319,5,42,127,2512730488
10,23,Ticks_Phase_5,320,1,48,28,2513228340
10,23,Ticks_Phase_5,321,5,42,127,2513231444
10,23,Ticks_Phase_5,322,5,42,127,2513731140
10,23,Ticks_Phase_5,323,1,48,36,2513749084
10,23,Ticks_Phase_5,324,5,42,127,2514230604
10,23,Ticks_Phase_5,325,1,48,36,2514234844
10,23,Ticks_Phase_5,326,1,48,34,2514707860
10,23,Ticks_Phase_5,327,5,42,127,2514731336
10,23,Ticks_Phase_5,328,5,42,127,2515231252
10,23,Ticks_Phase_5,329,1,48,41,2515236240
10,23,Ticks_Phase_5,330,5,42,127,2515730716
10,23,Ticks_Phase_5,331,1,48,36,2515745436
10,23,Ticks_Phase_5,332,5,42,127,2516230480
10,23,Ticks_Phase_5,333,1,48,31,2516241912
10,23,Ticks_Phase_5,334,1,48,32,2516729324
10,23,Ticks_Phase_5,335,5,42,127,2516731208
10,23,Ticks_Phase_5,336,5,42,127,2517231028
10,23,Ticks_Phase_5,337,1,48,36,2517248384
10,23,Ticks_Phase_5,338,1,48,30,2517706764
10,23,Ticks_Phase_5,339,5,42,127,2517730612
10,23,Ticks_Phase_5,0,9999,9999,9999,9999,2433208420
10,23,Ticks_Phase_5,1,9999,9999,9999,9999,2433708108
10,23,Ticks_Phase_5,2,9999,9999,9999,9999,2434208840
10,23,Ticks_Phase_5,3,9999,9999,9999,9999,2434708604
10,23,Ticks_Phase_5,4,9999,9999,9999,9999,2435208292
10,23,Ticks_Phase_5,5,9999,9999,9999,9999,2435709028
10,23,Ticks_Phase_5,6,9999,9999,9999,9999,2436208716
10,23,Ticks_Phase_5,7,9999,9999,9999,9999,2436708476
10,23,Ticks_Phase_5,8,9999,9999,9999,9999,2437208160
10,23,Ticks_Phase_5,9,9999,9999,9999,9999,2437708900
10,23,Ticks_Phase_5,10,9999,9999,9999,9999,2438208588
10,23,Ticks_Phase_5,11,9999,9999,9999,9999,2438708352
10,23,Ticks_Phase_5,12,9999,9999,9999,9999,2439209084
10,23,Ticks_Phase_5,13,9999,9999,9999,9999,2439708772
10,23,Ticks_Phase_5,14,9999,9999,9999,9999,2440208464
10,23,Ticks_Phase_5,15,9999,9999,9999,9999,2440708152
10,23,Ticks_Phase_5,16,9999,9999,9999,9999,2441208888
10,23,Ticks_Phase_5,17,9999,9999,9999,9999,2441708628
10,23,Ticks_Phase_5,18,9999,9999,9999,9999,2442208316
10,23,Ticks_Phase_5,19,9999,9999,9999,9999,2442709048
10,23,Ticks_Phase_5,20,9999,9999,9999,9999,2443208812
10,23,Ticks_Phase_5,21,9999,9999,9999,9999,2443708500
10,23,Ticks_Phase_5,22,9999,9999,9999,9999,2444208188
10,23,Ticks_Phase_5,23,9999,9999,9999,9999,2444708988
10,23,Ticks_Phase_5,24,9999,9999,9999,9999,2445208684
10,23,Ticks_Phase_5,25,9999,9999,9999,9999,2445708364
10,23,Ticks_Phase_5,26,9999,9999,9999,9999,2446208076
10,23,Ticks_Phase_5,27,9999,9999,9999,9999,2446708796
10,23,Ticks_Phase_5,28,9999,9999,9999,9999,2447208548
10,23,Ticks_Phase_5,29,9999,9999,9999,9999,2447708236
10,23,Ticks_Phase_5,30,9999,9999,9999,9999,2448198720
10,23,Ticks_Phase_5,31,9999,9999,9999,9999,2448698476
10,23,Ticks_Phase_5,32,9999,9999,9999,9999,2449198172
10,23,Ticks_Phase_5,33,9999,9999,9999,9999,2449698904
10,23,Ticks_Phase_5,34,9999,9999,9999,9999,2450198592
10,23,Ticks_Phase_5,35,9999,9999,9999,9999,2450698356
10,23,Ticks_Phase_5,36,9999,9999,9999,9999,2451199088
10,23,Ticks_Phase_5,37,9999,9999,9999,9999,2451698752
10,23,Ticks_Phase_5,38,9999,9999,9999,9999,2452198492
10,23,Ticks_Phase_5,39,9999,9999,9999,9999,2452698180
10,23,Ticks_Phase_5,40,9999,9999,9999,9999,2453198920
10,23,Ticks_Phase_5,41,9999,9999,9999,9999,2453698680
10,23,Ticks_Phase_5,42,9999,9999,9999,9999,2454198364
10,23,Ticks_Phase_5,43,9999,9999,9999,9999,2454699100
10,23,Ticks_Phase_5,44,9999,9999,9999,9999,2455209048
10,23,Ticks_Phase_5,45,9999,9999,9999,9999,2455708736
10,23,Ticks_Phase_5,46,9999,9999,9999,9999,2456208500
10,23,Ticks_Phase_5,47,9999,9999,9999,9999,2456708184
10,23,Ticks_Phase_5,48,9999,9999,9999,9999,2457218136
10,23,Ticks_Phase_5,49,9999,9999,9999,9999,2457718872
10,23,Ticks_Phase_5,50,9999,9999,9999,9999,2458218560
10,23,Ticks_Phase_5,51,9999,9999,9999,9999,2458718324
10,23,Ticks_Phase_5,52,9999,9999,9999,9999,2459219060
10,23,Ticks_Phase_5,53,9999,9999,9999,9999,2459718748
10,23,Ticks_Phase_5,54,9999,9999,9999,9999,2460218444
10,23,Ticks_Phase_5,55,9999,9999,9999,9999,2460718200
10,23,Ticks_Phase_5,56,9999,9999,9999,9999,2461218936
10,23,Ticks_Phase_5,57,9999,9999,9999,9999,2461718628
10,23,Ticks_Phase_5,58,9999,9999,9999,9999,2462218316
10,23,Ticks_Phase_5,59,9999,9999,9999,9999,2462719052
10,23,Ticks_Phase_5,60,9999,9999,9999,9999,2463218792
10,23,Ticks_Phase_5,61,9999,9999,9999,9999,2463718476
10,23,Ticks_Phase_5,62,9999,9999,9999,9999,2464218172
10,23,Ticks_Phase_5,63,9999,9999,9999,9999,2464718904
10,23,Ticks_Phase_5,64,9999,9999,9999,9999,2465238132
10,23,Ticks_Phase_5,65,9999,9999,9999,9999,2465738872
10,23,Ticks_Phase_5,66,9999,9999,9999,9999,2466238564
10,23,Ticks_Phase_5,67,9999,9999,9999,9999,2466738244
10,23,Ticks_Phase_5,68,9999,9999,9999,9999,2467238980
10,23,Ticks_Phase_5,69,9999,9999,9999,9999,2467738740
10,23,Ticks_Phase_5,70,9999,9999,9999,9999,2468238432
10,23,Ticks_Phase_5,71,9999,9999,9999,9999,2468738120
10,23,Ticks_Phase_5,72,9999,9999,9999,9999,2469238852
10,23,Ticks_Phase_5,73,9999,9999,9999,9999,2469738548
10,23,Ticks_Phase_5,74,9999,9999,9999,9999,2470238312
10,23,Ticks_Phase_5,75,9999,9999,9999,9999,2470739048
10,23,Ticks_Phase_5,76,9999,9999,9999,9999,2471238736
10,23,Ticks_Phase_5,77,9999,9999,9999,9999,2471738424
10,23,Ticks_Phase_5,78,9999,9999,9999,9999,2472238188
10,23,Ticks_Phase_5,79,9999,9999,9999,9999,2472738920
10,23,Ticks_Phase_5,80,9999,9999,9999,9999,2473238608
10,23,Ticks_Phase_5,81,9999,9999,9999,9999,2473718904
10,23,Ticks_Phase_5,82,9999,9999,9999,9999,2474218568
10,23,Ticks_Phase_5,83,9999,9999,9999,9999,2474718332
10,23,Ticks_Phase_5,84,9999,9999,9999,9999,2475219068
10,23,Ticks_Phase_5,85,9999,9999,9999,9999,2475718748
10,23,Ticks_Phase_5,86,9999,9999,9999,9999,2476218444
10,23,Ticks_Phase_5,87,9999,9999,9999,9999,2476718208
10,23,Ticks_Phase_5,88,9999,9999,9999,9999,2477218936
10,23,Ticks_Phase_5,89,9999,9999,9999,9999,2477718624
10,23,Ticks_Phase_5,90,9999,9999,9999,9999,2478218360
10,23,Ticks_Phase_5,91,9999,9999,9999,9999,2478719096
10,23,Ticks_Phase_5,92,9999,9999,9999,9999,2479218784
10,23,Ticks_Phase_5,93,9999,9999,9999,9999,2479718476
10,23,Ticks_Phase_5,94,9999,9999,9999,9999,2480218236
10,23,Ticks_Phase_5,95,9999,9999,9999,9999,2480718972
10,23,Ticks_Phase_5,96,9999,9999,9999,9999,2481218660
10,23,Ticks_Phase_5,97,9999,9999,9999,9999,2481668184
10,23,Ticks_Phase_5,98,9999,9999,9999,9999,2482168912
10,23,Ticks_Phase_5,99,9999,9999,9999,9999,2482668652
10,23,Ticks_Phase_5,100,9999,9999,9999,9999,2483168340
10,23,Ticks_Phase_5,101,9999,9999,9999,9999,2483669076
10,23,Ticks_Phase_5,102,9999,9999,9999,9999,2484168764
10,23,Ticks_Phase_5,103,9999,9999,9999,9999,2484668524
10,23,Ticks_Phase_5,104,9999,9999,9999,9999,2485168212
10,23,Ticks_Phase_5,105,9999,9999,9999,9999,2485668948
10,23,Ticks_Phase_5,106,9999,9999,9999,9999,2486168636
10,23,Ticks_Phase_5,107,9999,9999,9999,9999,2486668400
10,23,Ticks_Phase_5,108,9999,9999,9999,9999,2487168088
10,23,Ticks_Phase_5,109,9999,9999,9999,9999,2487668820
10,23,Ticks_Phase_5,110,9999,9999,9999,9999,2488168512
10,23,Ticks_Phase_5,111,9999,9999,9999,9999,2488668272
10,23,Ticks_Phase_5,112,9999,9999,9999,9999,2489169008
10,23,Ticks_Phase_5,113,9999,9999,9999,9999,2489668696
10,23,Ticks_Phase_5,114,9999,9999,9999,9999,2490218560
10,23,Ticks_Phase_5,115,9999,9999,9999,9999,2490718324
10,23,Ticks_Phase_5,116,9999,9999,9999,9999,2491219060
10,23,Ticks_Phase_5,117,9999,9999,9999,9999,2491718748
10,23,Ticks_Phase_5,118,9999,9999,9999,9999,2492218436
10,23,Ticks_Phase_5,119,9999,9999,9999,9999,2492718200
10,23,Ticks_Phase_5,120,9999,9999,9999,9999,2493218932
10,23,Ticks_Phase_5,121,9999,9999,9999,9999,2493718620
10,23,Ticks_Phase_5,122,9999,9999,9999,9999,2494218308
10,23,Ticks_Phase_5,123,9999,9999,9999,9999,2494719044
10,23,Ticks_Phase_5,124,9999,9999,9999,9999,2495218804
10,23,Ticks_Phase_5,125,9999,9999,9999,9999,2495718468
10,23,Ticks_Phase_5,126,9999,9999,9999,9999,2496218232
10,23,Ticks_Phase_5,127,9999,9999,9999,9999,2496718968
10,23,Ticks_Phase_5,128,9999,9999,9999,9999,2497218656
10,23,Ticks_Phase_5,129,9999,9999,9999,9999,2497718344
10,23,Ticks_Phase_5,130,9999,9999,9999,9999,2498219080
10,23,Ticks_Phase_5,131,9999,9999,9999,9999,2498828412
10,23,Ticks_Phase_5,132,9999,9999,9999,9999,2499328104
10,23,Ticks_Phase_5,133,9999,9999,9999,9999,2499828852
10,23,Ticks_Phase_5,134,9999,9999,9999,9999,2500328516
10,23,Ticks_Phase_5,135,9999,9999,9999,9999,2500828280
10,23,Ticks_Phase_5,136,9999,9999,9999,9999,2501329012
10,23,Ticks_Phase_5,137,9999,9999,9999,9999,2501828700
10,23,Ticks_Phase_5,138,9999,9999,9999,9999,2502328388
10,23,Ticks_Phase_5,139,9999,9999,9999,9999,2502828152
10,23,Ticks_Phase_5,140,9999,9999,9999,9999,2503328888
10,23,Ticks_Phase_5,141,9999,9999,9999,9999,2503828580
10,23,Ticks_Phase_5,142,9999,9999,9999,9999,2504328264
10,23,Ticks_Phase_5,143,9999,9999,9999,9999,2504828996
10,23,Ticks_Phase_5,144,9999,9999,9999,9999,2505328760
10,23,Ticks_Phase_5,145,9999,9999,9999,9999,2505828452
10,23,Ticks_Phase_5,146,9999,9999,9999,9999,2506328140
10,23,Ticks_Phase_5,147,9999,9999,9999,9999,2506828876
10,23,Ticks_Phase_5,148,9999,9999,9999,9999,2507328636
10,23,Ticks_Phase_5,149,9999,9999,9999,9999,2507828324
10,23,Ticks_Phase_5,150,9999,9999,9999,9999,2508228692
10,23,Ticks_Phase_5,151,9999,9999,9999,9999,2508728384
10,23,Ticks_Phase_5,152,9999,9999,9999,9999,2509228144
10,23,Ticks_Phase_5,153,9999,9999,9999,9999,2509728880
10,23,Ticks_Phase_5,154,9999,9999,9999,9999,2510228560
10,23,Ticks_Phase_5,155,9999,9999,9999,9999,2510728252
10,23,Ticks_Phase_5,156,9999,9999,9999,9999,2511228992
10,23,Ticks_Phase_5,157,9999,9999,9999,9999,2511728756
10,23,Ticks_Phase_5,158,9999,9999,9999,9999,2512228444
10,23,Ticks_Phase_5,159,9999,9999,9999,9999,2512728128
10,23,Ticks_Phase_5,160,9999,9999,9999,9999,2513228860
10,23,Ticks_Phase_5,161,9999,9999,9999,9999,2513728632
10,23,Ticks_Phase_5,162,9999,9999,9999,9999,2514228320
10,23,Ticks_Phase_5,163,9999,9999,9999,9999,2514729048
10,23,Ticks_Phase_5,164,9999,9999,9999,9999,2515228740
10,23,Ticks_Phase_5,165,9999,9999,9999,9999,2515728504
10,23,Ticks_Phase_5,166,9999,9999,9999,9999,2516228192
10,23,Ticks_Phase_5,167,9999,9999,9999,9999,2516728944
10,23,Ticks_Phase_5,168,9999,9999,9999,9999,2517228668
10,23,Ticks_Phase_5,169,9999,9999,9999,9999,2517728324
11,20,Ticks_Linear_8,0,5,42,127,2530046260
11,20,Ticks_Linear_8,1,5,42,127,2530865700
11,20,Ticks_Linear_8,2,1,48,46,2531048852
11,20,Ticks_Linear_8,3,5,42,127,2531685644
11,20,Ticks_Linear_8,4,1,48,46,2531705688
11,20,Ticks_Linear_8,5,1,48,47,2532450348
11,20,Ticks_Linear_8,6,5,42,127,2532505880
11,20,Ticks_Linear_8,7,1,48,45,2533249320
11,20,Ticks_Linear_8,8,5,42,127,2533326200
11,20,Ticks_Linear_8,9,1,48,47,2534077808
11,20,Ticks_Linear_8,10,5,42,127,2534136204
11,20,Ticks_Linear_8,11,1,48,47,2534876556
11,20,Ticks_Linear_8,12,5,42,127,2534946112
11,20,Ticks_Linear_8,13,1,48,48,2535709776
11,20,Ticks_Linear_8,14,5,42,127,2535756172
11,20,Ticks_Linear_8,15,1,48,45,2536489352
11,20,Ticks_Linear_8,16,5,42,127,2536566004
11,20,Ticks_Linear_8,17,1,48,46,2537319032
11,20,Ticks_Linear_8,18,5,42,127,2537376064
11,20,Ticks_Linear_8,19,1,48,50,2538154780
11,20,Ticks_Linear_8,20,5,42,127,2538175860
11,20,Ticks_Linear_8,21,1,48,47,2538949332
11,20,Ticks_Linear_8,22,5,42,127,2538975660
11,20,Ticks_Linear_8,23,1,48,45,2539768856
11,20,Ticks_Linear_8,24,5,42,127,2539776236
11,20,Ticks_Linear_8,25,1,48,46,2540552248
11,20,Ticks_Linear_8,26,5,42,127,2540576104
11,20,Ticks_Linear_8,27,5,42,127,2541375764
11,20,Ticks_Linear_8,28,1,48,40,2541389812
11,20,Ticks_Linear_8,29,1,48,38,2542164680
11,20,Ticks_Linear_8,30,5,42,127,2542166344
11,20,Ticks_Linear_8,31,1,48,40,2542932620
11,20,Ticks_Linear_8,32,5,42,127,2542955880
11,20,Ticks_Linear_8,33,1,48,36,2543706516
11,20,Ticks_Linear_8,34,5,42,127,2543746320
11,20,Ticks_Linear_8,35,5,42,127,2544546272
11,20,Ticks_Linear_8,36,1,48,39,2544566324
11,20,Ticks_Linear_8,37,5,42,127,2545335664
11,20,Ticks_Linear_8,38,1,48,40,2545356308
11,20,Ticks_Linear_8,39,1,48,35,2546105760
11,20,Ticks_Linear_8,40,5,42,127,2546116132
11,20,Ticks_Linear_8,41,1,48,40,2546894656
11,20,Ticks_Linear_8,42,5,42,127,2546896236
11,20,Ticks_Linear_8,43,5,42,127,2547675448
11,20,Ticks_Linear_8,44,1,48,36,2547699112
11,20,Ticks_Linear_8,45,1,48,38,2548454800
11,20,Ticks_Linear_8,46,5,42,127,2548456520
11,20,Ticks_Linear_8,47,5,42,127,2549236204
11,20,Ticks_Linear_8,48,1,48,40,2549243216
11,20,Ticks_Linear_8,49,1,48,40,2550005672
11,20,Ticks_Linear_8,50,5,42,127,2550007388
11,20,Ticks_Linear_8,51,1,48,35,2550754412
11,20,Ticks_Linear_8,52,5,42,127,2550776112
11,20,Ticks_Linear_8,53,1,48,37,2551472644
11,20,Ticks_Linear_8,54,5,42,127,2551546252
11,20,Ticks_Linear_8,55,1,48,42,2552285104
11,20,Ticks_Linear_8,56,5,42,127,2552316172
11,20,Ticks_Linear_8,57,1,48,45,2553040416
11,20,Ticks_Linear_8,58,5,42,127,2553086392
11,20,Ticks_Linear_8,59,1,48,47,2553818132
11,20,Ticks_Linear_8,60,5,42,127,2553846052
11,20,Ticks_Linear_8,61,1,48,46,2554561452
11,20,Ticks_Linear_8,62,5,42,127,2554605984
11,20,Ticks_Linear_8,63,1,48,49,2555333760
11,20,Ticks_Linear_8,64,5,42,127,2555365768
11,20,Ticks_Linear_8,65,1,48,46,2556096636
11,20,Ticks_Linear_8,66,5,42,127,2556125500
11,20,Ticks_Linear_8,67,1,48,50,2556862272
11,20,Ticks_Linear_8,68,5,42,127,2556886436
11,20,Ticks_Linear_8,69,5,42,127,2557635988
11,20,Ticks_Linear_8,70,1,48,37,2557653780
11,20,Ticks_Linear_8,71,1,48,46,2558342796
11,20,Ticks_Linear_8,72,5,42,127,2558385680
11,20,Ticks_Linear_8,73,1,48,48,2559129124
11,20,Ticks_Linear_8,74,5,42,127,2559136056
11,20,Ticks_Linear_8,75,1,48,43,2559874784
11,20,Ticks_Linear_8,76,5,42,127,2559885680
11,20,Ticks_Linear_8,77,1,48,37,2560627776
11,20,Ticks_Linear_8,78,5,42,127,2560636424
11,20,Ticks_Linear_8,79,1,48,45,2561374820
11,20,Ticks_Linear_8,80,5,42,127,2561376616
11,20,Ticks_Linear_8,81,1,48,40,2562106508
11,20,Ticks_Linear_8,82,5,42,127,2562116052
11,20,Ticks_Linear_8,83,5,42,127,2562856396
11,20,Ticks_Linear_8,84,1,48,46,2562874124
11,20,Ticks_Linear_8,85,1,48,46,2563581036
11,20,Ticks_Linear_8,86,5,42,127,2563595608
11,20,Ticks_Linear_8,87,5,42,127,2564336028
11,20,Ticks_Linear_8,88,1,48,43,2564346192
11,20,Ticks_Linear_8,89,1,48,43,2565037728
11,20,Ticks_Linear_8,90,5,42,127,2565066004
11,20,Ticks_Linear_8,91,1,48,42,2565790796
11,20,Ticks_Linear_8,92,5,42,127,2565796452
11,20,Ticks_Linear_8,93,5,42,127,2566526388
11,20,Ticks_Linear_8,94,1,48,46,2566540516
11,20,Ticks_Linear_8,95,1,48,42,2567209312
11,20,Ticks_Linear_8,96,5,42,127,2567256316
11,20,Ticks_Linear_8,97,1,48,40,2567961856
11,20,Ticks_Linear_8,98,5,42,127,2567995676
11,20,Ticks_Linear_8,99,1,48,43,2568694412
11,20,Ticks_Linear_8,100,5,42,127,2568715496
11,20,Ticks_Linear_8,101,5,42,127,2569435444
11,20,Ticks_Linear_8,102,1,48,41,2569465104
11,20,Ticks_Linear_8,103,1,48,40,2570125036
11,20,Ticks_Linear_8,104,5,42,127,2570156528
11,20,Ticks_Linear_8,105,1,48,41,2570851516
11,20,Ticks_Linear_8,106,5,42,127,2570876420
11,20,Ticks_Linear_8,107,1,48,35,2571521088
11,20,Ticks_Linear_8,108,5,42,127,2571596316
11,20,Ticks_Linear_8,109,1,48,35,2572251888
11,20,Ticks_Linear_8,110,5,42,127,2572305656
11,20,Ticks_Linear_8,111,5,42,127,2573016320
11,20,Ticks_Linear_8,112,1,48,35,2573053456
11,20,Ticks_Linear_8,113,1,48,41,2573734392
11,20,Ticks_Linear_8,114,5,42,127,2573736280
11,20,Ticks_Linear_8,115,1,48,41,2574404988
11,20,Ticks_Linear_8,116,5,42,127,2574446064
11,20,Ticks_Linear_8,117,5,42,127,2575155556
11,20,Ticks_Linear_8,118,1,48,39,2575217384
11,20,Ticks_Linear_8,119,5,42,127,2575856272
11,20,Ticks_Linear_8,120,1,48,34,2575884112
11,20,Ticks_Linear_8,121,1,48,29,2576506232
11,20,Ticks_Linear_8,122,5,42,127,2576556372
11,20,Ticks_Linear_8,123,1,48,36,2577191000
11,20,Ticks_Linear_8,124,5,42,127,2577255896
11,20,Ticks_Linear_8,125,1,48,31,2577923408
11,20,Ticks_Linear_8,126,5,42,127,2577956092
11,20,Ticks_Linear_8,127,5,42,127,2578655672
11,20,Ticks_Linear_8,128,1,48,33,2578681280
11,20,Ticks_Linear_8,129,1,48,34,2579337104
11,20,Ticks_Linear_8,130,5,42,127,2579345980
11,20,Ticks_Linear_8,131,5,42,127,2580036076
11,20,Ticks_Linear_8,132,1,48,33,2580046016
11,20,Ticks_Linear_8,133,1,48,35,2580704752
11,20,Ticks_Linear_8,134,5,42,127,2580726084
11,20,Ticks_Linear_8,135,5,42,127,2581416376
11,20,Ticks_Linear_8,136,1,48,32,2581469972
11,20,Ticks_Linear_8,137,5,42,127,2582105420
11,20,Ticks_Linear_8,138,1,48,31,2582114236
11,20,Ticks_Linear_8,139,1,48,24,2582740836
11,20,Ticks_Linear_8,140,5,42,127,2582786516
11,20,Ticks_Linear_8,141,1,48,31,2583434904
11,20,Ticks_Linear_8,142,5,42,127,2583475456
11,20,Ticks_Linear_8,143,1,48,35,2584119892
11,20,Ticks_Linear_8,144,5,42,127,2584155732
11,20,Ticks_Linear_8,145,5,42,127,2584835420
11,20,Ticks_Linear_8,146,1,48,36,2584847828
11,20,Ticks_Linear_8,147,1,48,35,2585476760
11,20,Ticks_Linear_8,148,5,42,127,2585516268
11,20,Ticks_Linear_8,149,5,42,127,2586185992
11,20,Ticks_Linear_8,150,1,48,36,2586198548
11,20,Ticks_Linear_8,151,1,48,35,2586802464
11,20,Ticks_Linear_8,152,5,42,127,2586855904
11,20,Ticks_Linear_8,153,1,48,38,2587510676
11,20,Ticks_Linear_8,154,5,42,127,2587525696
11,20,Ticks_Linear_8,155,1,48,43,2588175160
11,20,Ticks_Linear_8,156,5,42,127,2588196168
11,20,Ticks_Linear_8,157,5,42,127,2588865872
11,20,Ticks_Linear_8,158,1,48,31,2588892872
11,20,Ticks_Linear_8,159,5,42,127,2589526600
11,20,Ticks_Linear_8,160,1,48,31,2589534372
11,20,Ticks_Linear_8,161,5,42,127,2590185884
11,20,Ticks_Linear_8,162,1,48,37,2590199864
11,20,Ticks_Linear_8,163,5,42,127,2590846592
11,20,Ticks_Linear_8,164,1,48,35,2590860644
11,20,Ticks_Linear_8,165,1,48,41,2591480168
11,20,Ticks_Linear_8,166,5,42,127,2591505892
11,20,Ticks_Linear_8,167,1,48,32,2592140944
11,20,Ticks_Linear_8,168,5,42,127,2592166156
11,20,Ticks_Linear_8,169,1,48,38,2592792916
11,20,Ticks_Linear_8,170,5,42,127,2592815652
11,20,Ticks_Linear_8,171,1,48,47,2593442164
11,20,Ticks_Linear_8,172,5,42,127,2593465800
11,20,Ticks_Linear_8,173,1,48,46,2594078488
11,20,Ticks_Linear_8,174,5,42,127,2594115900
11,20,Ticks_Linear_8,175,1,48,39,2594723916
11,20,Ticks_Linear_8,176,5,42,127,2594766200
11,20,Ticks_Linear_8,177,1,48,39,2595379932
11,20,Ticks_Linear_8,178,5,42,127,2595416300
11,20,Ticks_Linear_8,179,1,48,37,2595997436
11,20,Ticks_Linear_8,180,5,42,127,2596056416
11,20,Ticks_Linear_8,181,1,48,42,2596651496
11,20,Ticks_Linear_8,182,5,42,127,2596696404
11,20,Ticks_Linear_8,183,1,48,30,2597299852
11,20,Ticks_Linear_8,184,5,42,127,2597336368
11,20,Ticks_Linear_8,185,1,48,40,2597918128
11,20,Ticks_Linear_8,186,5,42,127,2597976356
11,20,Ticks_Linear_8,187,1,48,39,2598566772
11,20,Ticks_Linear_8,188,5,42,127,2598616396
11,20,Ticks_Linear_8,189,1,48,39,2599215752
11,20,Ticks_Linear_8,190,5,42,127,2599256384
11,20,Ticks_Linear_8,191,5,42,127,2599896428
11,20,Ticks_Linear_8,192,1,48,42,2599906140
11,20,Ticks_Linear_8,193,1,48,39,2600514808
11,20,Ticks_Linear_8,194,5,42,127,2600536340
11,20,Ticks_Linear_8,195,1,48,46,2601143304
11,20,Ticks_Linear_8,196,5,42,127,2601176524
11,20,Ticks_Linear_8,197,1,48,39,2601777460
11,20,Ticks_Linear_8,198,5,42,127,2601816440
11,20,Ticks_Linear_8,199,1,48,38,2602446672
11,20,Ticks_Linear_8,200,5,42,127,2602448168
11,20,Ticks_Linear_8,201,5,42,127,2603065772
11,20,Ticks_Linear_8,202,1,48,34,2603074212
11,20,Ticks_Linear_8,203,1,48,46,2603614332
11,20,Ticks_Linear_8,204,5,42,127,2603686256
11,20,Ticks_Linear_8,205,1,48,37,2604252784
11,20,Ticks_Linear_8,206,5,42,127,2604305656
11,20,Ticks_Linear_8,207,1,48,38,2604918992
11,20,Ticks_Linear_8,208,5,42,127,2604926372
11,20,Ticks_Linear_8,209,5,42,127,2605535488
11,20,Ticks_Linear_8,210,1,48,43,2605551884
11,20,Ticks_Linear_8,211,1,48,46,2606134696
11,20,Ticks_Linear_8,212,5,42,127,2606146040
11,20,Ticks_Linear_8,213,5,42,127,2606756132
11,20,Ticks_Linear_8,214,1,48,46,2606760892
11,20,Ticks_Linear_8,215,5,42,127,2607365492
11,20,Ticks_Linear_8,216,1,48,47,2607427400
11,20,Ticks_Linear_8,217,1,48,50,2607926776
11,20,Ticks_Linear_8,218,5,42,127,2607975868
11,20,Ticks_Linear_8,219,1,48,50,2608524584
11,20,Ticks_Linear_8,220,5,42,127,2608575988
11,20,Ticks_Linear_8,221,1,48,47,2609098536
11,20,Ticks_Linear_8,222,5,42,127,2609175888
11,20,Ticks_Linear_8,223,1,48,47,2609743536
11,20,Ticks_Linear_8,224,5,42,127,2609776088
11,20,Ticks_Linear_8,225,1,48,44,2610348908
11,20,Ticks_Linear_8,226,5,42,127,2610375984
11,20,Ticks_Linear_8,227,1,48,47,2610954308
11,20,Ticks_Linear_8,228,5,42,127,2610976208
11,20,Ticks_Linear_8,229,1,48,41,2611539448
11,20,Ticks_Linear_8,230,5,42,127,2611566072
11,20,Ticks_Linear_8,231,1,48,44,2612117332
11,20,Ticks_Linear_8,232,5,42,127,2612155936
11,20,Ticks_Linear_8,233,1,48,50,2612699184
11,20,Ticks_Linear_8,234,5,42,127,2612745676
11,20,Ticks_Linear_8,235,1,48,46,2613314912
11,20,Ticks_Linear_8,236,5,42,127,2613336516
11,20,Ticks_Linear_8,237,1,48,46,2613908140
11,20,Ticks_Linear_8,238,5,42,127,2613935592
11,20,Ticks_Linear_8,239,1,48,46,2614516200
11,20,Ticks_Linear_8,240,5,42,127,2614517692
11,20,Ticks_Linear_8,241,1,48,49,2615073360
11,20,Ticks_Linear_8,242,5,42,127,2615095872
11,20,Ticks_Linear_8,243,1,48,47,2615669668
11,20,Ticks_Linear_8,244,5,42,127,2615676228
11,20,Ticks_Linear_8,245,1,48,51,2616202092
11,20,Ticks_Linear_8,246,5,42,127,2616255984
11,20,Ticks_Linear_8,247,5,42,127,2616835396
11,20,Ticks_Linear_8,248,1,48,47,2616840388
11,20,Ticks_Linear_8,249,1,48,48,2617376164
11,20,Ticks_Linear_8,250,5,42,127,2617405708
11,20,Ticks_Linear_8,251,1,48,47,2617952840
11,20,Ticks_Linear_8,252,5,42,127,2617976324
11,20,Ticks_Linear_8,253,1,48,47,2618532220
11,20,Ticks_Linear_8,254,5,42,127,2618545820
11,20,Ticks_Linear_8,255,1,48,46,2619112196
11,20,Ticks_Linear_8,256,5,42,127,2619115940
11,20,Ticks_Linear_8,257,5,42,127,2619686412
11,20,Ticks_Linear_8,258,1,48,42,2619701212
11,20,Ticks_Linear_8,259,5,42,127,2620246624
11,20,Ticks_Linear_8,260,1,48,46,2620288612
11,20,Ticks_Linear_8,261,1,48,49,2620799224
11,20,Ticks_Linear_8,262,5,42,127,2620805628
11,20,Ticks_Linear_8,263,1,48,51,2621346032
11,20,Ticks_Linear_8,264,5,42,127,2621365688
11,20,Ticks_Linear_8,265,1,48,46,2621913040
11,20,Ticks_Linear_8,266,5,42,127,2621925672
11,20,Ticks_Linear_8,267,1,48,49,2622437988
11,20,Ticks_Linear_8,268,5,42,127,2622485760
11,20,Ticks_Linear_8,269,1,48,44,2623013340
11,20,Ticks_Linear_8,270,5,42,127,2623035856
11,20,Ticks_Linear_8,271,5,42,127,2623585588
11,20,Ticks_Linear_8,272,1,48,43,2623595604
11,20,Ticks_Linear_8,273,5,42,127,2624135536
11,20,Ticks_Linear_8,274,1,48,40,2624357436
11,20,Ticks_Linear_8,275,5,42,127,2624685336
11,20,Ticks_Linear_8,276,1,48,43,2624908128
11,20,Ticks_Linear_8,277,5,42,127,2625236484
11,20,Ticks_Linear_8,278,1,48,41,2625408724
11,20,Ticks_Linear_8,279,5,42,127,2625775900
11,20,Ticks_Linear_8,280,1,48,46,2625930064
11,20,Ticks_Linear_8,281,5,42,127,2626315588
11,20,Ticks_Linear_8,282,1,48,42,2626426544
11,20,Ticks_Linear_8,283,5,42,127,2626856472
11,20,Ticks_Linear_8,284,1,48,41,2626940844
11,20,Ticks_Linear_8,285,5,42,127,2627395868
11,20,Ticks_Linear_8,286,1,48,38,2627441744
11,20,Ticks_Linear_8,287,1,48,40,2627921572
11,20,Ticks_Linear_8,288,5,42,127,2627935548
11,20,Ticks_Linear_8,289,1,48,40,2628453784
11,20,Ticks_Linear_8,290,5,42,127,2628466324
11,20,Ticks_Linear_8,291,5,42,127,2628995464
11,20,Ticks_Linear_8,292,1,48,42,2629001948
11,20,Ticks_Linear_8,293,5,42,127,2629525868
11,20,Ticks_Linear_8,294,1,48,39,2629544048
11,20,Ticks_Linear_8,295,5,42,127,2630056496
11,20,Ticks_Linear_8,296,1,48,42,2630061264
11,20,Ticks_Linear_8,297,1,48,39,2630575768
11,20,Ticks_Linear_8,298,5,42,127,2630585620
11,20,Ticks_Linear_8,299,5,42,127,2631105844
11,20,Ticks_Linear_8,300,1,48,37,2631121020
11,20,Ticks_Linear_8,301,5,42,127,2631626284
11,20,Ticks_Linear_8,302,1,48,33,2631659160
11,20,Ticks_Linear_8,303,1,48,37,2632117480
11,20,Ticks_Linear_8,304,5,42,127,2632146276
11,20,Ticks_Linear_8,305,5,42,127,2632665380
11,20,Ticks_Linear_8,306,1,48,38,2632671564
11,20,Ticks_Linear_8,307,5,42,127,2633185524
11,20,Ticks_Linear_8,308,1,48,36,2633191184
11,20,Ticks_Linear_8,309,5,42,127,2633695556
11,20,Ticks_Linear_8,310,1,48,40,2633710528
11,20,Ticks_Linear_8,311,5,42,127,2634205444
11,20,Ticks_Linear_8,312,1,48,39,2634242136
11,20,Ticks_Linear_8,313,1,48,37,2634712652
11,20,Ticks_Linear_8,314,5,42,127,2634715472
11,20,Ticks_Linear_8,315,1,48,40,2635197156
11,20,Ticks_Linear_8,316,5,42,127,2635225580
11,20,Ticks_Linear_8,317,1,48,35,2635722388
11,20,Ticks_Linear_8,318,5,42,127,2635736364
11,20,Ticks_Linear_8,319,1,48,32,2636215280
11,20,Ticks_Linear_8,320,5,42,127,2636246252
11,20,Ticks_Linear_8,321,1,48,37,2636721936
11,20,Ticks_Linear_8,322,5,42,127,2636746096
11,20,Ticks_Linear_8,323,1,48,36,2637217980
11,20,Ticks_Linear_8,324,5,42,127,2637246096
11,20,Ticks_Linear_8,325,1,48,32,2637734008
11,20,Ticks_Linear_8,326,5,42,127,2637745428
11,20,Ticks_Linear_8,327,1,48,34,2638222236
11,20,Ticks_Linear_8,328,5,42,127,2638246248
11,20,Ticks_Linear_8,329,5,42,127,2638735920
11,20,Ticks_Linear_8,330,1,48,35,2638740616
11,20,Ticks_Linear_8,331,5,42,127,2639226184
11,20,Ticks_Linear_8,332,1,48,35,2639247880
11,20,Ticks_Linear_8,333,5,42,127,2639715996
11,20,Ticks_Linear_8,334,1,48,37,2639739784
11,20,Ticks_Linear_8,335,5,42,127,2640206336
11,20,Ticks_Linear_8,336,1,48,35,2640214260
11,20,Ticks_Linear_8,337,1,48,35,2640653872
11,20,Ticks_Linear_8,338,5,42,127,2640695920
11,20,Ticks_Linear_8,0,9999,9999,9999,9999,2530043960
11,20,Ticks_Linear_8,1,9999,9999,9999,9999,2530863176
11,20,Ticks_Linear_8,2,9999,9999,9999,9999,2531683420
11,20,Ticks_Linear_8,3,9999,9999,9999,9999,2532503656
11,20,Ticks_Linear_8,4,9999,9999,9999,9999,2533323900
11,20,Ticks_Linear_8,5,9999,9999,9999,9999,2534133832
11,20,Ticks_Linear_8,6,9999,9999,9999,9999,2534943816
11,20,Ticks_Linear_8,7,9999,9999,9999,9999,2535753800
11,20,Ticks_Linear_8,8,9999,9999,9999,9999,2536563780
11,20,Ticks_Linear_8,9,9999,9999,9999,9999,2537373764
11,20,Ticks_Linear_8,10,9999,9999,9999,9999,2538173564
11,20,Ticks_Linear_8,11,9999,9999,9999,9999,2538973288
11,20,Ticks_Linear_8,12,9999,9999,9999,9999,2539774008
11,20,Ticks_Linear_8,13,9999,9999,9999,9999,2540573808
11,20,Ticks_Linear_8,14,9999,9999,9999,9999,2541373536
11,20,Ticks_Linear_8,15,9999,9999,9999,9999,2542164056
11,20,Ticks_Linear_8,16,9999,9999,9999,9999,2542953584
11,20,Ticks_Linear_8,17,9999,9999,9999,9999,2543744092
11,20,Ticks_Linear_8,18,9999,9999,9999,9999,2544543824
11,20,Ticks_Linear_8,19,9999,9999,9999,9999,2545333364
11,20,Ticks_Linear_8,20,9999,9999,9999,9999,2546113608
11,20,Ticks_Linear_8,21,9999,9999,9999,9999,2546893944
11,20,Ticks_Linear_8,22,9999,9999,9999,9999,2547673148
11,20,Ticks_Linear_8,23,9999,9999,9999,9999,2548453480
11,20,Ticks_Linear_8,24,9999,9999,9999,9999,2549233756
11,20,Ticks_Linear_8,25,9999,9999,9999,9999,2550003824
11,20,Ticks_Linear_8,26,9999,9999,9999,9999,2550773812
11,20,Ticks_Linear_8,27,9999,9999,9999,9999,2551543880
11,20,Ticks_Linear_8,28,9999,9999,9999,9999,2552313948
11,20,Ticks_Linear_8,29,9999,9999,9999,9999,2553084016
11,20,Ticks_Linear_8,30,9999,9999,9999,9999,2553843828
11,20,Ticks_Linear_8,31,9999,9999,9999,9999,2554603612
11,20,Ticks_Linear_8,32,9999,9999,9999,9999,2555363396
11,20,Ticks_Linear_8,33,9999,9999,9999,9999,2556123204
11,20,Ticks_Linear_8,34,9999,9999,9999,9999,2556884060
11,20,Ticks_Linear_8,35,9999,9999,9999,9999,2557633616
11,20,Ticks_Linear_8,36,9999,9999,9999,9999,2558383160
11,20,Ticks_Linear_8,37,9999,9999,9999,9999,2559133756
11,20,Ticks_Linear_8,38,9999,9999,9999,9999,2559883380
11,20,Ticks_Linear_8,39,9999,9999,9999,9999,2560633976
11,20,Ticks_Linear_8,40,9999,9999,9999,9999,2561373276
11,20,Ticks_Linear_8,41,9999,9999,9999,9999,2562113604
11,20,Ticks_Linear_8,42,9999,9999,9999,9999,2562853952
11,20,Ticks_Linear_8,43,9999,9999,9999,9999,2563593312
11,20,Ticks_Linear_8,44,9999,9999,9999,9999,2564333652
11,20,Ticks_Linear_8,45,9999,9999,9999,9999,2565063780
11,20,Ticks_Linear_8,46,9999,9999,9999,9999,2565793856
11,20,Ticks_Linear_8,47,9999,9999,9999,9999,2566524016
11,20,Ticks_Linear_8,48,9999,9999,9999,9999,2567254088
11,20,Ticks_Linear_8,49,9999,9999,9999,9999,2567993452
11,20,Ticks_Linear_8,50,9999,9999,9999,9999,2568713268
11,20,Ticks_Linear_8,51,9999,9999,9999,9999,2569433144
11,20,Ticks_Linear_8,52,9999,9999,9999,9999,2570154080
11,20,Ticks_Linear_8,53,9999,9999,9999,9999,2570873972
11,20,Ticks_Linear_8,54,9999,9999,9999,9999,2571593792
11,20,Ticks_Linear_8,55,9999,9999,9999,9999,2572303432
11,20,Ticks_Linear_8,56,9999,9999,9999,9999,2573014092
11,20,Ticks_Linear_8,57,9999,9999,9999,9999,2573734004
11,20,Ticks_Linear_8,58,9999,9999,9999,9999,2574443616
11,20,Ticks_Linear_8,59,9999,9999,9999,9999,2575153256
11,20,Ticks_Linear_8,60,9999,9999,9999,9999,2575853676
11,20,Ticks_Linear_8,61,9999,9999,9999,9999,2576554072
11,20,Ticks_Linear_8,62,9999,9999,9999,9999,2577253448
11,20,Ticks_Linear_8,63,9999,9999,9999,9999,2577953868
11,20,Ticks_Linear_8,64,9999,9999,9999,9999,2578653300
11,20,Ticks_Linear_8,65,9999,9999,9999,9999,2579343460
11,20,Ticks_Linear_8,66,9999,9999,9999,9999,2580033628
11,20,Ticks_Linear_8,67,9999,9999,9999,9999,2580723784
11,20,Ticks_Linear_8,68,9999,9999,9999,9999,2581414004
11,20,Ticks_Linear_8,69,9999,9999,9999,9999,2582103120
11,20,Ticks_Linear_8,70,9999,9999,9999,9999,2582784068
11,20,Ticks_Linear_8,71,9999,9999,9999,9999,2583473232
11,20,Ticks_Linear_8,72,9999,9999,9999,9999,2584153212
11,20,Ticks_Linear_8,73,9999,9999,9999,9999,2584833124
11,20,Ticks_Linear_8,74,9999,9999,9999,9999,2585514040
11,20,Ticks_Linear_8,75,9999,9999,9999,9999,2586183768
11,20,Ticks_Linear_8,76,9999,9999,9999,9999,2586853456
11,20,Ticks_Linear_8,77,9999,9999,9999,9999,2587523176
11,20,Ticks_Linear_8,78,9999,9999,9999,9999,2588193868
11,20,Ticks_Linear_8,79,9999,9999,9999,9999,2588863568
11,20,Ticks_Linear_8,80,9999,9999,9999,9999,2589524076
11,20,Ticks_Linear_8,81,9999,9999,9999,9999,2590183512
11,20,Ticks_Linear_8,82,9999,9999,9999,9999,2590843996
11,20,Ticks_Linear_8,83,9999,9999,9999,9999,2591503448
11,20,Ticks_Linear_8,84,9999,9999,9999,9999,2592163928
11,20,Ticks_Linear_8,85,9999,9999,9999,9999,2592813132
11,20,Ticks_Linear_8,86,9999,9999,9999,9999,2593463352
11,20,Ticks_Linear_8,87,9999,9999,9999,9999,2594113604
11,20,Ticks_Linear_8,88,9999,9999,9999,9999,2594763900
11,20,Ticks_Linear_8,89,9999,9999,9999,9999,2595414076
11,20,Ticks_Linear_8,90,9999,9999,9999,9999,2596054116
11,20,Ticks_Linear_8,91,9999,9999,9999,9999,2596694100
11,20,Ticks_Linear_8,92,9999,9999,9999,9999,2597334140
11,20,Ticks_Linear_8,93,9999,9999,9999,9999,2597974128
11,20,Ticks_Linear_8,94,9999,9999,9999,9999,2598614092
11,20,Ticks_Linear_8,95,9999,9999,9999,9999,2599254084
11,20,Ticks_Linear_8,96,9999,9999,9999,9999,2599894128
11,20,Ticks_Linear_8,97,9999,9999,9999,9999,2600534112
11,20,Ticks_Linear_8,98,9999,9999,9999,9999,2601174076
11,20,Ticks_Linear_8,99,9999,9999,9999,9999,2601814140
11,20,Ticks_Linear_8,100,9999,9999,9999,9999,2602443852
11,20,Ticks_Linear_8,101,9999,9999,9999,9999,2603063396
11,20,Ticks_Linear_8,102,9999,9999,9999,9999,2603683956
11,20,Ticks_Linear_8,103,9999,9999,9999,9999,2604303432
11,20,Ticks_Linear_8,104,9999,9999,9999,9999,2604923996
11,20,Ticks_Linear_8,105,9999,9999,9999,9999,2605533264
11,20,Ticks_Linear_8,106,9999,9999,9999,9999,2606143592
11,20,Ticks_Linear_8,107,9999,9999,9999,9999,2606753904
11,20,Ticks_Linear_8,108,9999,9999,9999,9999,2607363192
11,20,Ticks_Linear_8,109,9999,9999,9999,9999,2607973492
11,20,Ticks_Linear_8,110,9999,9999,9999,9999,2608573544
11,20,Ticks_Linear_8,111,9999,9999,9999,9999,2609173592
11,20,Ticks_Linear_8,112,9999,9999,9999,9999,2609773640
11,20,Ticks_Linear_8,113,9999,9999,9999,9999,2610373688
11,20,Ticks_Linear_8,114,9999,9999,9999,9999,2610973760
11,20,Ticks_Linear_8,115,9999,9999,9999,9999,2611563624
11,20,Ticks_Linear_8,116,9999,9999,9999,9999,2612153416
11,20,Ticks_Linear_8,117,9999,9999,9999,9999,2612743228
11,20,Ticks_Linear_8,118,9999,9999,9999,9999,2613334140
11,20,Ticks_Linear_8,119,9999,9999,9999,9999,2613933144
11,20,Ticks_Linear_8,120,9999,9999,9999,9999,2614513752
11,20,Ticks_Linear_8,121,9999,9999,9999,9999,2615093352
11,20,Ticks_Linear_8,122,9999,9999,9999,9999,2615673928
11,20,Ticks_Linear_8,123,9999,9999,9999,9999,2616253536
11,20,Ticks_Linear_8,124,9999,9999,9999,9999,2616833096
11,20,Ticks_Linear_8,125,9999,9999,9999,9999,2617403484
11,20,Ticks_Linear_8,126,9999,9999,9999,9999,2617973876
11,20,Ticks_Linear_8,127,9999,9999,9999,9999,2618543224
11,20,Ticks_Linear_8,128,9999,9999,9999,9999,2619113564
11,20,Ticks_Linear_8,129,9999,9999,9999,9999,2619683964
11,20,Ticks_Linear_8,130,9999,9999,9999,9999,2620244024
11,20,Ticks_Linear_8,131,9999,9999,9999,9999,2620803180
11,20,Ticks_Linear_8,132,9999,9999,9999,9999,2621363316
11,20,Ticks_Linear_8,133,9999,9999,9999,9999,2621923448
11,20,Ticks_Linear_8,134,9999,9999,9999,9999,2622483536
11,20,Ticks_Linear_8,135,9999,9999,9999,9999,2623033408
11,20,Ticks_Linear_8,136,9999,9999,9999,9999,2623583288
11,20,Ticks_Linear_8,137,9999,9999,9999,9999,2624133240
11,20,Ticks_Linear_8,138,9999,9999,9999,9999,2624683112
11,20,Ticks_Linear_8,139,9999,9999,9999,9999,2625234032
11,20,Ticks_Linear_8,140,9999,9999,9999,9999,2625773676
11,20,Ticks_Linear_8,141,9999,9999,9999,9999,2626313288
11,20,Ticks_Linear_8,142,9999,9999,9999,9999,2626853952
11,20,Ticks_Linear_8,143,9999,9999,9999,9999,2627393640
11,20,Ticks_Linear_8,144,9999,9999,9999,9999,2627933252
11,20,Ticks_Linear_8,145,9999,9999,9999,9999,2628463728
11,20,Ticks_Linear_8,146,9999,9999,9999,9999,2628993092
11,20,Ticks_Linear_8,147,9999,9999,9999,9999,2629523568
11,20,Ticks_Linear_8,148,9999,9999,9999,9999,2630053972
11,20,Ticks_Linear_8,149,9999,9999,9999,9999,2630583396
11,20,Ticks_Linear_8,150,9999,9999,9999,9999,2631103548
11,20,Ticks_Linear_8,151,9999,9999,9999,9999,2631623764
11,20,Ticks_Linear_8,152,9999,9999,9999,9999,2632143976
11,20,Ticks_Linear_8,153,9999,9999,9999,9999,2632663152
11,20,Ticks_Linear_8,154,9999,9999,9999,9999,2633183296
11,20,Ticks_Linear_8,155,9999,9999,9999,9999,2633693256
11,20,Ticks_Linear_8,156,9999,9999,9999,9999,2634203220
11,20,Ticks_Linear_8,157,9999,9999,9999,9999,2634713172
11,20,Ticks_Linear_8,158,9999,9999,9999,9999,2635223132
11,20,Ticks_Linear_8,159,9999,9999,9999,9999,2635734140
11,20,Ticks_Linear_8,160,9999,9999,9999,9999,2636244024
11,20,Ticks_Linear_8,161,9999,9999,9999,9999,2636743800
11,20,Ticks_Linear_8,162,9999,9999,9999,9999,2637243500
11,20,Ticks_Linear_8,163,9999,9999,9999,9999,2637743204
11,20,Ticks_Linear_8,164,9999,9999,9999,9999,2638243948
11,20,Ticks_Linear_8,165,9999,9999,9999,9999,2638733400
11,20,Ticks_Linear_8,166,9999,9999,9999,9999,2639223884
11,20,Ticks_Linear_8,167,9999,9999,9999,9999,2639713400
11,20,Ticks_Linear_8,168,9999,9999,9999,9999,2640203888
11,20,Ticks_Linear_8,169,9999,9999,9999,9999,2640693324
12,21,Ticks_Linear_5,0,5,42,127,2651028840
12,21,Ticks_Linear_5,1,5,42,127,2651509240
12,21,Ticks_Linear_5,2,1,48,41,2651729112
12,21,Ticks_Linear_5,3,5,42,127,2651989468
12,21,Ticks_Linear_5,4,1,48,45,2652118256
12,21,Ticks_Linear_5,5,5,42,127,2652468724
12,21,Ticks_Linear_5,6,1,48,51,2652531080
12,21,Ticks_Linear_5,7,5,42,127,2652948804
12,21,Ticks_Linear_5,8,1,48,52,2652960384
12,21,Ticks_Linear_5,9,1,48,51,2653408668
12,21,Ticks_Linear_5,10,5,42,127,2653439580
12,21,Ticks_Linear_5,11,1,48,52,2653926100
12,21,Ticks_Linear_5,12,5,42,127,2653928724
12,21,Ticks_Linear_5,13,5,42,127,2654419416
12,21,Ticks_Linear_5,14,1,48,51,2654420304
12,21,Ticks_Linear_5,15,5,42,127,2654908708
12,21,Ticks_Linear_5,16,1,48,48,2654915788
12,21,Ticks_Linear_5,17,1,48,49,2655394348
12,21,Ticks_Linear_5,18,5,42,127,2655399412
12,21,Ticks_Linear_5,19,1,48,47,2655894796
12,21,Ticks_Linear_5,20,5,42,127,2655899184
12,21,Ticks_Linear_5,21,1,48,46,2656390308
12,21,Ticks_Linear_5,22,5,42,127,2656398660
12,21,Ticks_Linear_5,23,1,48,44,2656878476
12,21,Ticks_Linear_5,24,5,42,127,2656898360
12,21,Ticks_Linear_5,25,1,48,40,2657380940
12,21,Ticks_Linear_5,26,5,42,127,2657399256
12,21,Ticks_Linear_5,27,5,42,127,2657898740
12,21,Ticks_Linear_5,28,1,48,40,2657900752
12,21,Ticks_Linear_5,29,5,42,127,2658408924
12,21,Ticks_Linear_5,30,1,48,43,2658409888
12,21,Ticks_Linear_5,31,1,48,45,2658902432
12,21,Ticks_Linear_5,32,5,42,127,2658918652
12,21,Ticks_Linear_5,33,1,48,46,2659388656
12,21,Ticks_Linear_5,34,5,42,127,2659428684
12,21,Ticks_Linear_5,35,1,48,43,2659931412
12,21,Ticks_Linear_5,36,5,42,127,2659938864
12,21,Ticks_Linear_5,37,1,48,39,2660441444
12,21,Ticks_Linear_5,38,5,42,127,2660448676
12,21,Ticks_Linear_5,39,1,48,39,2660925564
12,21,Ticks_Linear_5,40,5,42,127,2660968968
12,21,Ticks_Linear_5,41,1,48,47,2661445180
12,21,Ticks_Linear_5,42,5,42,127,2661489112
12,21,Ticks_Linear_5,43,1,48,48,2661963308
12,21,Ticks_Linear_5,44,5,42,127,2662009260
12,21,Ticks_Linear_5,45,1,48,47,2662470572
12,21,Ticks_Linear_5,46,5,42,127,2662529552
12,21,Ticks_Linear_5,47,1,48,48,2663010344
12,21,Ticks_Linear_5,48,5,42,127,2663048500
12,21,Ticks_Linear_5,49,1,48,50,2663542988
12,21,Ticks_Linear_5,50,5,42,127,2663579200
12,21,Ticks_Linear_5,51,1,48,49,2664061856
12,21,Ticks_Linear_5,52,5,42,127,2664109308
12,21,Ticks_Linear_5,53,1,48,48,2664583572
12,21,Ticks_Linear_5,54,5,42,127,2664649144
12,21,Ticks_Linear_5,55,1,48,48,2665124160
12,21,Ticks_Linear_5,56,5,42,127,2665178352
12,21,Ticks_Linear_5,57,1,48,45,2665649404
12,21,Ticks_Linear_5,58,5,42,127,2665709076
12,21,Ticks_Linear_5,59,1,48,40,2666192156
12,21,Ticks_Linear_5,60,5,42,127,2666248688
12,21,Ticks_Linear_5,61,1,48,45,2666733892
12,21,Ticks_Linear_5,62,5,42,127,2666789128
12,21,Ticks_Linear_5,63,1,48,39,2667297328
12,21,Ticks_Linear_5,64,5,42,127,2667329192
12,21,Ticks_Linear_5,65,1,48,37,2667843300
12,21,Ticks_Linear_5,66,5,42,127,2667868508
12,21,Ticks_Linear_5,67,1,48,35,2668387492
12,21,Ticks_Linear_5,68,5,42,127,2668409172
12,21,Ticks_Linear_5,69,1,48,37,2668919388
12,21,Ticks_Linear_5,70,5,42,127,2668958972
12,21,Ticks_Linear_5,71,1,48,39,2669464384
12,21,Ticks_Linear_5,72,5,42,127,2669508992
12,21,Ticks_Linear_5,73,1,48,35,2670002732
12,21,Ticks_Linear_5,74,5,42,127,2670058744
12,21,Ticks_Linear_5,75,1,48,34,2670562116
12,21,Ticks_Linear_5,76,5,42,127,2670608692
12,21,Ticks_Linear_5,77,1,48,37,2671132084
12,21,Ticks_Linear_5,78,5,42,127,2671158864
12,21,Ticks_Linear_5,79,1,48,41,2671717732
12,21,Ticks_Linear_5,80,5,42,127,2671719600
12,21,Ticks_Linear_5,81,5,42,127,2672278768
12,21,Ticks_Linear_5,82,1,48,38,2672283524
12,21,Ticks_Linear_5,83,5,42,127,2672839048
12,21,Ticks_Linear_5,84,1,48,39,2672842164
12,21,Ticks_Linear_5,85,1,48,46,2673376600
12,21,Ticks_Linear_5,86,5,42,127,2673399124
12,21,Ticks_Linear_5,87,1,48,42,2673947016
12,21,Ticks_Linear_5,88,5,42,127,2673959408
12,21,Ticks_Linear_5,89,1,48,42,2674497640
12,21,Ticks_Linear_5,90,5,42,127,2674528680
12,21,Ticks_Linear_5,91,1,48,42,2675060988
12,21,Ticks_Linear_5,92,5,42,127,2675098924
12,21,Ticks_Linear_5,93,1,48,40,2675637528
12,21,Ticks_Linear_5,94,5,42,127,2675669316
12,21,Ticks_Linear_5,95,1,48,39,2676174660
12,21,Ticks_Linear_5,96,5,42,127,2676238688
12,21,Ticks_Linear_5,97,1,48,42,2676736256
12,21,Ticks_Linear_5,98,5,42,127,2676809004
12,21,Ticks_Linear_5,99,1,48,42,2677351648
12,21,Ticks_Linear_5,100,5,42,127,2677388684
12,21,Ticks_Linear_5,101,1,48,38,2677926156
12,21,Ticks_Linear_5,102,5,42,127,2677969484
12,21,Ticks_Linear_5,103,1,48,39,2678523460
12,21,Ticks_Linear_5,104,5,42,127,2678548744
12,21,Ticks_Linear_5,105,1,48,35,2679109136
12,21,Ticks_Linear_5,106,5,42,127,2679128496
12,21,Ticks_Linear_5,107,5,42,127,2679709152
12,21,Ticks_Linear_5,108,1,48,38,2679716532
12,21,Ticks_Linear_5,109,1,48,44,2680277784
12,21,Ticks_Linear_5,110,5,42,127,2680298740
12,21,Ticks_Linear_5,111,1,48,39,2680863544
12,21,Ticks_Linear_5,112,5,42,127,2680888676
12,21,Ticks_Linear_5,113,1,48,37,2681419412
12,21,Ticks_Linear_5,114,5,42,127,2681478464
12,21,Ticks_Linear_5,115,1,48,39,2682037440
12,21,Ticks_Linear_5,116,5,42,127,2682069448
12,21,Ticks_Linear_5,117,1,48,34,2682628672
12,21,Ticks_Linear_5,118,5,42,127,2682659636
12,21,Ticks_Linear_5,119,1,48,32,2683207980
12,21,Ticks_Linear_5,120,5,42,127,2683259464
12,21,Ticks_Linear_5,121,1,48,30,2683748340
12,21,Ticks_Linear_5,122,5,42,127,2683859496
12,21,Ticks_Linear_5,123,1,48,35,2684400088
12,21,Ticks_Linear_5,124,5,42,127,2684459584
12,21,Ticks_Linear_5,125,5,42,127,2685058444
12,21,Ticks_Linear_5,126,1,48,38,2685061192
12,21,Ticks_Linear_5,127,1,48,38,2685644656
12,21,Ticks_Linear_5,128,5,42,127,2685658636
12,21,Ticks_Linear_5,129,1,48,41,2686266148
12,21,Ticks_Linear_5,130,5,42,127,2686268748
12,21,Ticks_Linear_5,131,5,42,127,2686879060
12,21,Ticks_Linear_5,132,1,48,37,2686880100
12,21,Ticks_Linear_5,133,5,42,127,2687489392
12,21,Ticks_Linear_5,134,1,48,36,2687505912
12,21,Ticks_Linear_5,135,5,42,127,2688098804
12,21,Ticks_Linear_5,136,1,48,31,2688114424
12,21,Ticks_Linear_5,137,1,48,31,2688681504
12,21,Ticks_Linear_5,138,5,42,127,2688709028
12,21,Ticks_Linear_5,139,5,42,127,2689328436
12,21,Ticks_Linear_5,140,1,48,36,2689359860
12,21,Ticks_Linear_5,141,1,48,35,2689929932
12,21,Ticks_Linear_5,142,5,42,127,2689949140
12,21,Ticks_Linear_5,143,1,48,40,2690530356
12,21,Ticks_Linear_5,144,5,42,127,2690568540
12,21,Ticks_Linear_5,145,1,48,43,2691119044
12,21,Ticks_Linear_5,146,5,42,127,2691189180
12,21,Ticks_Linear_5,147,1,48,43,2691764092
12,21,Ticks_Linear_5,148,5,42,127,2691808628
12,21,Ticks_Linear_5,149,1,48,39,2692439560
12,21,Ticks_Linear_5,150,5,42,127,2692441200
12,21,Ticks_Linear_5,151,5,42,127,2693069264
12,21,Ticks_Linear_5,152,1,48,35,2693093072
12,21,Ticks_Linear_5,153,1,48,44,2693614016
12,21,Ticks_Linear_5,154,5,42,127,2693698988
12,21,Ticks_Linear_5,155,1,48,35,2694248972
12,21,Ticks_Linear_5,156,5,42,127,2694328840
12,21,Ticks_Linear_5,157,1,48,40,2694930524
12,21,Ticks_Linear_5,158,5,42,127,2694958348
12,21,Ticks_Linear_5,159,1,48,34,2695552064
12,21,Ticks_Linear_5,160,5,42,127,2695598312
12,21,Ticks_Linear_5,161,1,48,30,2696191524
12,21,Ticks_Linear_5,162,5,42,127,2696238448
12,21,Ticks_Linear_5,163,1,48,36,2696793372
12,21,Ticks_Linear_5,164,5,42,127,2696878416
12,21,Ticks_Linear_5,165,1,48,40,2697456492
12,21,Ticks_Linear_5,166,5,42,127,2697518552
12,21,Ticks_Linear_5,167,1,48,38,2698149264
12,21,Ticks_Linear_5,168,5,42,127,2698158440
12,21,Ticks_Linear_5,169,1,48,35,2698799812
12,21,Ticks_Linear_5,170,5,42,127,2698808764
12,21,Ticks_Linear_5,171,5,42,127,2699458992
12,21,Ticks_Linear_5,172,1,48,29,2699464132
12,21,Ticks_Linear_5,173,1,48,31,2700072048
12,21,Ticks_Linear_5,174,5,42,127,2700109160
12,21,Ticks_Linear_5,175,1,48,34,2700692984
12,21,Ticks_Linear_5,176,5,42,127,2700759456
12,21,Ticks_Linear_5,177,1,48,33,2701342484
12,21,Ticks_Linear_5,178,5,42,127,2701408732
12,21,Ticks_Linear_5,179,1,48,30,2702018924
12,21,Ticks_Linear_5,180,5,42,127,2702069088
12,21,Ticks_Linear_5,181,1,48,27,2702650896
12,21,Ticks_Linear_5,182,5,42,127,2702728748
12,21,Ticks_Linear_5,183,1,48,36,2703352588
12,21,Ticks_Linear_5,184,5,42,127,2703388956
12,21,Ticks_Linear_5,185,1,48,26,2704004832
12,21,Ticks_Linear_5,186,5,42,127,2704048764
12,21,Ticks_Linear_5,187,1,48,33,2704664440
12,21,Ticks_Linear_5,188,5,42,127,2704709120
12,21,Ticks_Linear_5,189,1,48,27,2705318196
12,21,Ticks_Linear_5,190,5,42,127,2705378816
12,21,Ticks_Linear_5,191,1,48,33,2705990832
12,21,Ticks_Linear_5,192,5,42,127,2706049580
12,21,Ticks_Linear_5,193,1,48,33,2706648472
12,21,Ticks_Linear_5,194,5,42,127,2706719152
12,21,Ticks_Linear_5,195,1,48,38,2707311896
12,21,Ticks_Linear_5,196,5,42,127,2707388700
12,21,Ticks_Linear_5,197,1,48,41,2707976216
12,21,Ticks_Linear_5,198,5,42,127,2708058640
12,21,Ticks_Linear_5,199,1,48,38,2708669132
12,21,Ticks_Linear_5,200,5,42,127,2708738692
12,21,Ticks_Linear_5,201,1,48,35,2709360340
12,21,Ticks_Linear_5,202,5,42,127,2709419468
12,21,Ticks_Linear_5,203,1,48,35,2710065256
12,21,Ticks_Linear_5,204,5,42,127,2710099596
12,21,Ticks_Linear_5,205,1,48,37,2710719152
12,21,Ticks_Linear_5,206,5,42,127,2710779428
12,21,Ticks_Linear_5,207,1,48,38,2711394780
12,21,Ticks_Linear_5,208,5,42,127,2711459232
12,21,Ticks_Linear_5,209,1,48,39,2712065696
12,21,Ticks_Linear_5,210,5,42,127,2712149320
12,21,Ticks_Linear_5,211,1,48,40,2712770748
12,21,Ticks_Linear_5,212,5,42,127,2712838584
12,21,Ticks_Linear_5,213,1,48,37,2713463900
12,21,Ticks_Linear_5,214,5,42,127,2713528572
12,21,Ticks_Linear_5,215,1,48,37,2714161556
12,21,Ticks_Linear_5,216,5,42,127,2714218888
12,21,Ticks_Linear_5,217,1,48,39,2714819872
12,21,Ticks_Linear_5,218,5,42,127,2714909348
12,21,Ticks_Linear_5,219,1,48,36,2715531968
12,21,Ticks_Linear_5,220,5,42,127,2715608324
12,21,Ticks_Linear_5,221,1,48,35,2716279952
12,21,Ticks_Linear_5,222,5,42,127,2716308820
12,21,Ticks_Linear_5,223,1,48,41,2716984336
12,21,Ticks_Linear_5,224,5,42,127,2717009392
12,21,Ticks_Linear_5,225,1,48,41,2717691276
12,21,Ticks_Linear_5,226,5,42,127,2717708616
12,21,Ticks_Linear_5,227,5,42,127,2718409244
12,21,Ticks_Linear_5,228,1,48,31,2718418284
12,21,Ticks_Linear_5,229,1,48,27,2719090076
12,21,Ticks_Linear_5,230,5,42,127,2719118572
12,21,Ticks_Linear_5,231,1,48,29,2719765028
12,21,Ticks_Linear_5,232,5,42,127,2719829404
12,21,Ticks_Linear_5,233,1,48,38,2720446644
12,21,Ticks_Linear_5,234,5,42,127,2720539184
12,21,Ticks_Linear_5,235,1,48,36,2721183372
12,21,Ticks_Linear_5,236,5,42,127,2721248496
12,21,Ticks_Linear_5,237,1,48,38,2721861012
12,21,Ticks_Linear_5,238,5,42,127,2721959216
12,21,Ticks_Linear_5,239,1,48,36,2722588996
12,21,Ticks_Linear_5,240,5,42,127,2722679124
12,21,Ticks_Linear_5,241,1,48,38,2723323936
12,21,Ticks_Linear_5,242,5,42,127,2723399092
12,21,Ticks_Linear_5,243,1,48,35,2724066260
12,21,Ticks_Linear_5,244,5,42,127,2724118884
12,21,Ticks_Linear_5,245,1,48,36,2724771312
12,21,Ticks_Linear_5,246,5,42,127,2724838924
12,21,Ticks_Linear_5,247,1,48,39,2725466724
12,21,Ticks_Linear_5,248,5,42,127,2725559092
12,21,Ticks_Linear_5,249,1,48,31,2726224200
12,21,Ticks_Linear_5,250,5,42,127,2726288872
12,21,Ticks_Linear_5,251,1,48,27,2726902604
12,21,Ticks_Linear_5,252,5,42,127,2727018860
12,21,Ticks_Linear_5,253,1,48,33,2727673948
12,21,Ticks_Linear_5,254,5,42,127,2727749028
12,21,Ticks_Linear_5,255,1,48,29,2728359300
12,21,Ticks_Linear_5,256,5,42,127,2728479092
12,21,Ticks_Linear_5,257,1,48,35,2729108848
12,21,Ticks_Linear_5,258,5,42,127,2729209168
12,21,Ticks_Linear_5,259,1,48,32,2729827240
12,21,Ticks_Linear_5,260,5,42,127,2729948880
12,21,Ticks_Linear_5,261,1,48,35,2730646048
12,21,Ticks_Linear_5,262,5,42,127,2730688784
12,21,Ticks_Linear_5,263,5,42,127,2731429204
12,21,Ticks_Linear_5,264,1,48,41,2732072160
12,21,Ticks_Linear_5,265,5,42,127,2732170060
12,21,Ticks_Linear_5,266,1,48,40,2732854656
12,21,Ticks_Linear_5,267,5,42,127,2732908848
12,21,Ticks_Linear_5,268,1,48,31,2733565112
12,21,Ticks_Linear_5,269,5,42,127,2733658620
12,21,Ticks_Linear_5,270,1,48,35,2734343496
12,21,Ticks_Linear_5,271,5,42,127,2734409068
12,21,Ticks_Linear_5,272,1,48,40,2735105176
12,21,Ticks_Linear_5,273,5,42,127,2735158616
12,21,Ticks_Linear_5,274,1,48,44,2735822424
12,21,Ticks_Linear_5,275,5,42,127,2735909360
12,21,Ticks_Linear_5,276,1,48,36,2736613108
12,21,Ticks_Linear_5,277,5,42,127,2736658908
12,21,Ticks_Linear_5,278,1,48,37,2737339576
12,21,Ticks_Linear_5,279,5,42,127,2737418644
12,21,Ticks_Linear_5,280,1,48,41,2738166196
12,21,Ticks_Linear_5,281,5,42,127,2738178600
12,21,Ticks_Linear_5,282,1,48,38,2738860832
12,21,Ticks_Linear_5,283,5,42,127,2738939532
12,21,Ticks_Linear_5,284,1,48,35,2739665492
12,21,Ticks_Linear_5,285,5,42,127,2739699188
12,21,Ticks_Linear_5,286,1,48,32,2740440288
12,21,Ticks_Linear_5,287,5,42,127,2740458848
12,21,Ticks_Linear_5,288,1,48,31,2741132768
12,21,Ticks_Linear_5,289,5,42,127,2741230100
12,21,Ticks_Linear_5,290,5,42,127,2741998844
12,21,Ticks_Linear_5,291,1,48,33,2742006744
12,21,Ticks_Linear_5,292,1,48,34,2742740008
12,21,Ticks_Linear_5,293,5,42,127,2742769052
12,21,Ticks_Linear_5,294,1,48,30,2743507984
12,21,Ticks_Linear_5,295,5,42,127,2743539044
12,21,Ticks_Linear_5,296,1,48,32,2744288832
12,21,Ticks_Linear_5,297,5,42,127,2744309312
12,21,Ticks_Linear_5,298,1,48,35,2745072000
12,21,Ticks_Linear_5,299,5,42,127,2745089268
12,21,Ticks_Linear_5,300,5,42,127,2745868628
12,21,Ticks_Linear_5,301,1,48,32,2745940496
12,21,Ticks_Linear_5,302,5,42,127,2746649104
12,21,Ticks_Linear_5,303,1,48,34,2746650068
12,21,Ticks_Linear_5,304,1,48,30,2747396516
12,21,Ticks_Linear_5,305,5,42,127,2747429424
12,21,Ticks_Linear_5,306,1,48,31,2748164772
12,21,Ticks_Linear_5,307,5,42,127,2748208484
12,21,Ticks_Linear_5,308,1,48,30,2748943384
12,21,Ticks_Linear_5,309,5,42,127,2748999216
12,21,Ticks_Linear_5,310,1,48,27,2749714648
12,21,Ticks_Linear_5,311,5,42,127,2749788536
12,21,Ticks_Linear_5,312,1,48,25,2750505604
12,21,Ticks_Linear_5,313,5,42,127,2750579120
12,21,Ticks_Linear_5,314,1,48,21,2751345468
12,21,Ticks_Linear_5,315,5,42,127,2751368436
12,21,Ticks_Linear_5,316,1,48,22,2752116360
12,21,Ticks_Linear_5,317,5,42,127,2752159020
12,21,Ticks_Linear_5,318,1,48,30,2752892128
12,21,Ticks_Linear_5,319,5,42,127,2752958896
12,21,Ticks_Linear_5,320,1,48,26,2753668640
12,21,Ticks_Linear_5,321,5,42,127,2753758468
12,21,Ticks_Linear_5,322,1,48,28,2754522624
12,21,Ticks_Linear_5,323,5,42,127,2754559388
12,21,Ticks_Linear_5,324,1,48,31,2755293516
12,21,Ticks_Linear_5,325,5,42,127,2755359036
12,21,Ticks_Linear_5,326,1,48,28,2756022240
12,21,Ticks_Linear_5,327,5,42,127,2756158896
12,21,Ticks_Linear_5,328,1,48,25,2756906240
12,21,Ticks_Linear_5,329,5,42,127,2756968892
12,21,Ticks_Linear_5,330,1,48,27,2757673464
12,21,Ticks_Linear_5,331,5,42,127,2757778936
12,21,Ticks_Linear_5,332,1,48,32,2758463528
12,21,Ticks_Linear_5,333,5,42,127,2758588692
12,21,Ticks_Linear_5,334,1,48,28,2759318076
12,21,Ticks_Linear_5,335,5,42,127,2759398864
12,21,Ticks_Linear_5,336,1,48,27,2760135760
12,21,Ticks_Linear_5,337,5,42,127,2760208696
12,21,Ticks_Linear_5,0,9999,9999,9999,9999,2651026540
12,21,Ticks_Linear_5,1,9999,9999,9999,9999,2651506792
12,21,Ticks_Linear_5,2,9999,9999,9999,9999,2651987020
12,21,Ticks_Linear_5,3,9999,9999,9999,9999,2652466276
12,21,Ticks_Linear_5,4,9999,9999,9999,9999,2652946504
12,21,Ticks_Linear_5,5,9999,9999,9999,9999,2653436984
12,21,Ticks_Linear_5,6,9999,9999,9999,9999,2653926476
12,21,Ticks_Linear_5,7,9999,9999,9999,9999,2654416968
12,21,Ticks_Linear_5,8,9999,9999,9999,9999,2654906484
12,21,Ticks_Linear_5,9,9999,9999,9999,9999,2655396964
12,21,Ticks_Linear_5,10,9999,9999,9999,9999,2655896664
12,21,Ticks_Linear_5,11,9999,9999,9999,9999,2656396364
12,21,Ticks_Linear_5,12,9999,9999,9999,9999,2656896064
12,21,Ticks_Linear_5,13,9999,9999,9999,9999,2657396808
12,21,Ticks_Linear_5,14,9999,9999,9999,9999,2657896516
12,21,Ticks_Linear_5,15,9999,9999,9999,9999,2658406476
12,21,Ticks_Linear_5,16,9999,9999,9999,9999,2658916428
12,21,Ticks_Linear_5,17,9999,9999,9999,9999,2659426388
12,21,Ticks_Linear_5,18,9999,9999,9999,9999,2659936344
12,21,Ticks_Linear_5,19,9999,9999,9999,9999,2660446304
12,21,Ticks_Linear_5,20,9999,9999,9999,9999,2660966524
12,21,Ticks_Linear_5,21,9999,9999,9999,9999,2661486668
12,21,Ticks_Linear_5,22,9999,9999,9999,9999,2662006884
12,21,Ticks_Linear_5,23,9999,9999,9999,9999,2662527104
12,21,Ticks_Linear_5,24,9999,9999,9999,9999,2663046200
12,21,Ticks_Linear_5,25,9999,9999,9999,9999,2663576680
12,21,Ticks_Linear_5,26,9999,9999,9999,9999,2664107084
12,21,Ticks_Linear_5,27,9999,9999,9999,9999,2664646772
12,21,Ticks_Linear_5,28,9999,9999,9999,9999,2665176128
12,21,Ticks_Linear_5,29,9999,9999,9999,9999,2665706552
12,21,Ticks_Linear_5,30,9999,9999,9999,9999,2666246244
12,21,Ticks_Linear_5,31,9999,9999,9999,9999,2666786904
12,21,Ticks_Linear_5,32,9999,9999,9999,9999,2667326520
12,21,Ticks_Linear_5,33,9999,9999,9999,9999,2667866208
12,21,Ticks_Linear_5,34,9999,9999,9999,9999,2668406872
12,21,Ticks_Linear_5,35,9999,9999,9999,9999,2668956748
12,21,Ticks_Linear_5,36,9999,9999,9999,9999,2669506620
12,21,Ticks_Linear_5,37,9999,9999,9999,9999,2670056520
12,21,Ticks_Linear_5,38,9999,9999,9999,9999,2670606396
12,21,Ticks_Linear_5,39,9999,9999,9999,9999,2671156340
12,21,Ticks_Linear_5,40,9999,9999,9999,9999,2671716408
12,21,Ticks_Linear_5,41,9999,9999,9999,9999,2672276544
12,21,Ticks_Linear_5,42,9999,9999,9999,9999,2672836672
12,21,Ticks_Linear_5,43,9999,9999,9999,9999,2673396824
12,21,Ticks_Linear_5,44,9999,9999,9999,9999,2673956960
12,21,Ticks_Linear_5,45,9999,9999,9999,9999,2674526308
12,21,Ticks_Linear_5,46,9999,9999,9999,9999,2675096700
12,21,Ticks_Linear_5,47,9999,9999,9999,9999,2675667020
12,21,Ticks_Linear_5,48,9999,9999,9999,9999,2676236388
12,21,Ticks_Linear_5,49,9999,9999,9999,9999,2676806780
12,21,Ticks_Linear_5,50,9999,9999,9999,9999,2677386312
12,21,Ticks_Linear_5,51,9999,9999,9999,9999,2677966964
12,21,Ticks_Linear_5,52,9999,9999,9999,9999,2678546520
12,21,Ticks_Linear_5,53,9999,9999,9999,9999,2679126124
12,21,Ticks_Linear_5,54,9999,9999,9999,9999,2679706708
12,21,Ticks_Linear_5,55,9999,9999,9999,9999,2680296516
12,21,Ticks_Linear_5,56,9999,9999,9999,9999,2680886380
12,21,Ticks_Linear_5,57,9999,9999,9999,9999,2681476168
12,21,Ticks_Linear_5,58,9999,9999,9999,9999,2682067004
12,21,Ticks_Linear_5,59,9999,9999,9999,9999,2682656892
12,21,Ticks_Linear_5,60,9999,9999,9999,9999,2683256944
12,21,Ticks_Linear_5,61,9999,9999,9999,9999,2683856972
12,21,Ticks_Linear_5,62,9999,9999,9999,9999,2684457064
12,21,Ticks_Linear_5,63,9999,9999,9999,9999,2685056072
12,21,Ticks_Linear_5,64,9999,9999,9999,9999,2685656192
12,21,Ticks_Linear_5,65,9999,9999,9999,9999,2686266448
12,21,Ticks_Linear_5,66,9999,9999,9999,9999,2686876764
12,21,Ticks_Linear_5,67,9999,9999,9999,9999,2687487096
12,21,Ticks_Linear_5,68,9999,9999,9999,9999,2688096356
12,21,Ticks_Linear_5,69,9999,9999,9999,9999,2688706656
12,21,Ticks_Linear_5,70,9999,9999,9999,9999,2689326136
12,21,Ticks_Linear_5,71,9999,9999,9999,9999,2689946696
12,21,Ticks_Linear_5,72,9999,9999,9999,9999,2690566240
12,21,Ticks_Linear_5,73,9999,9999,9999,9999,2691186808
12,21,Ticks_Linear_5,74,9999,9999,9999,9999,2691806328
12,21,Ticks_Linear_5,75,9999,9999,9999,9999,2692437112
12,21,Ticks_Linear_5,76,9999,9999,9999,9999,2693066816
12,21,Ticks_Linear_5,77,9999,9999,9999,9999,2693696612
12,21,Ticks_Linear_5,78,9999,9999,9999,9999,2694326392
12,21,Ticks_Linear_5,79,9999,9999,9999,9999,2694956124
12,21,Ticks_Linear_5,80,9999,9999,9999,9999,2695596088
12,21,Ticks_Linear_5,81,9999,9999,9999,9999,2696236152
12,21,Ticks_Linear_5,82,9999,9999,9999,9999,2696876116
12,21,Ticks_Linear_5,83,9999,9999,9999,9999,2697516108
12,21,Ticks_Linear_5,84,9999,9999,9999,9999,2698156144
12,21,Ticks_Linear_5,85,9999,9999,9999,9999,2698806392
12,21,Ticks_Linear_5,86,9999,9999,9999,9999,2699456620
12,21,Ticks_Linear_5,87,9999,9999,9999,9999,2700106860
12,21,Ticks_Linear_5,88,9999,9999,9999,9999,2700757084
12,21,Ticks_Linear_5,89,9999,9999,9999,9999,2701406284
12,21,Ticks_Linear_5,90,9999,9999,9999,9999,2702066788
12,21,Ticks_Linear_5,91,9999,9999,9999,9999,2702726224
12,21,Ticks_Linear_5,92,9999,9999,9999,9999,2703386732
12,21,Ticks_Linear_5,93,9999,9999,9999,9999,2704046168
12,21,Ticks_Linear_5,94,9999,9999,9999,9999,2704706672
12,21,Ticks_Linear_5,95,9999,9999,9999,9999,2705376368
12,21,Ticks_Linear_5,96,9999,9999,9999,9999,2706047060
12,21,Ticks_Linear_5,97,9999,9999,9999,9999,2706716776
12,21,Ticks_Linear_5,98,9999,9999,9999,9999,2707386476
12,21,Ticks_Linear_5,99,9999,9999,9999,9999,2708056192
12,21,Ticks_Linear_5,100,9999,9999,9999,9999,2708736096
12,21,Ticks_Linear_5,101,9999,9999,9999,9999,2709417020
12,21,Ticks_Linear_5,102,9999,9999,9999,9999,2710097000
12,21,Ticks_Linear_5,103,9999,9999,9999,9999,2710776904
12,21,Ticks_Linear_5,104,9999,9999,9999,9999,2711456856
12,21,Ticks_Linear_5,105,9999,9999,9999,9999,2712147020
12,21,Ticks_Linear_5,106,9999,9999,9999,9999,2712836212
12,21,Ticks_Linear_5,107,9999,9999,9999,9999,2713526348
12,21,Ticks_Linear_5,108,9999,9999,9999,9999,2714216512
12,21,Ticks_Linear_5,109,9999,9999,9999,9999,2714906752
12,21,Ticks_Linear_5,110,9999,9999,9999,9999,2715606100
12,21,Ticks_Linear_5,111,9999,9999,9999,9999,2716306524
12,21,Ticks_Linear_5,112,9999,9999,9999,9999,2717006944
12,21,Ticks_Linear_5,113,9999,9999,9999,9999,2717706320
12,21,Ticks_Linear_5,114,9999,9999,9999,9999,2718406720
12,21,Ticks_Linear_5,115,9999,9999,9999,9999,2719116348
12,21,Ticks_Linear_5,116,9999,9999,9999,9999,2719827028
12,21,Ticks_Linear_5,117,9999,9999,9999,9999,2720536664
12,21,Ticks_Linear_5,118,9999,9999,9999,9999,2721246276
12,21,Ticks_Linear_5,119,9999,9999,9999,9999,2721956992
12,21,Ticks_Linear_5,120,9999,9999,9999,9999,2722676824
12,21,Ticks_Linear_5,121,9999,9999,9999,9999,2723396720
12,21,Ticks_Linear_5,122,9999,9999,9999,9999,2724116584
12,21,Ticks_Linear_5,123,9999,9999,9999,9999,2724836480
12,21,Ticks_Linear_5,124,9999,9999,9999,9999,2725556348
12,21,Ticks_Linear_5,125,9999,9999,9999,9999,2726286428
12,21,Ticks_Linear_5,126,9999,9999,9999,9999,2727016564
12,21,Ticks_Linear_5,127,9999,9999,9999,9999,2727746656
12,21,Ticks_Linear_5,128,9999,9999,9999,9999,2728476792
12,21,Ticks_Linear_5,129,9999,9999,9999,9999,2729206868
12,21,Ticks_Linear_5,130,9999,9999,9999,9999,2729946208
12,21,Ticks_Linear_5,131,9999,9999,9999,9999,2730686564
12,21,Ticks_Linear_5,132,9999,9999,9999,9999,2731426904
12,21,Ticks_Linear_5,133,9999,9999,9999,9999,2732166212
12,21,Ticks_Linear_5,134,9999,9999,9999,9999,2732906624
12,21,Ticks_Linear_5,135,9999,9999,9999,9999,2733656172
12,21,Ticks_Linear_5,136,9999,9999,9999,9999,2734406768
12,21,Ticks_Linear_5,137,9999,9999,9999,9999,2735156316
12,21,Ticks_Linear_5,138,9999,9999,9999,9999,2735906912
12,21,Ticks_Linear_5,139,9999,9999,9999,9999,2736656460
12,21,Ticks_Linear_5,140,9999,9999,9999,9999,2737416272
12,21,Ticks_Linear_5,141,9999,9999,9999,9999,2738176080
12,21,Ticks_Linear_5,142,9999,9999,9999,9999,2738936936
12,21,Ticks_Linear_5,143,9999,9999,9999,9999,2739696744
12,21,Ticks_Linear_5,144,9999,9999,9999,9999,2740456552
12,21,Ticks_Linear_5,145,9999,9999,9999,9999,2741226616
12,21,Ticks_Linear_5,146,9999,9999,9999,9999,2741996620
12,21,Ticks_Linear_5,147,9999,9999,9999,9999,2742766680
12,21,Ticks_Linear_5,148,9999,9999,9999,9999,2743536748
12,21,Ticks_Linear_5,149,9999,9999,9999,9999,2744306792
12,21,Ticks_Linear_5,150,9999,9999,9999,9999,2745087044
12,21,Ticks_Linear_5,151,9999,9999,9999,9999,2745866328
12,21,Ticks_Linear_5,152,9999,9999,9999,9999,2746646656
12,21,Ticks_Linear_5,153,9999,9999,9999,9999,2747426904
12,21,Ticks_Linear_5,154,9999,9999,9999,9999,2748206184
12,21,Ticks_Linear_5,155,9999,9999,9999,9999,2748996696
12,21,Ticks_Linear_5,156,9999,9999,9999,9999,2749786236
12,21,Ticks_Linear_5,157,9999,9999,9999,9999,2750576748
12,21,Ticks_Linear_5,158,9999,9999,9999,9999,2751366212
12,21,Ticks_Linear_5,159,9999,9999,9999,9999,2752156796
12,21,Ticks_Linear_5,160,9999,9999,9999,9999,2752956524
12,21,Ticks_Linear_5,161,9999,9999,9999,9999,2753756248
12,21,Ticks_Linear_5,162,9999,9999,9999,9999,2754557016
12,21,Ticks_Linear_5,163,9999,9999,9999,9999,2755356740
12,21,Ticks_Linear_5,164,9999,9999,9999,9999,2756156520
12,21,Ticks_Linear_5,165,9999,9999,9999,9999,2756966520
12,21,Ticks_Linear_5,166,9999,9999,9999,9999,2757776488
12,21,Ticks_Linear_5,167,9999,9999,9999,9999,2758586468
12,21,Ticks_Linear_5,168,9999,9999,9999,9999,2759396420
12,21,Ticks_Linear_5,169,9999,9999,9999,9999,2760206400
13,25,Jits_Pract_5,0,5,56,103,2820166972
13,25,Jits_Pract_5,1,5,63,98,2820169996
13,25,Jits_Pract_5,2,5,80,127,2820173044
13,25,Jits_Pract_5,0,5,56,103,2820666616
13,25,Jits_Pract_5,1,5,63,98,2820669792
13,25,Jits_Pract_5,2,5,80,127,2820673064
13,25,Jits_Pract_5,0,5,56,103,2821166588
13,25,Jits_Pract_5,1,5,80,127,2821176564
13,25,Jits_Pract_5,2,5,63,98,2821197172
13,25,Jits_Pract_5,0,5,63,98,2821617036
13,25,Jits_Pract_5,1,5,80,127,2821646564
13,25,Jits_Pract_5,2,5,56,103,2821656908
13,25,Jits_Pract_5,0,5,80,127,2822177372
13,25,Jits_Pract_5,1,5,56,103,2822187568
13,25,Jits_Pract_5,2,5,63,98,2822217016
13,25,Jits_Pract_5,0,5,63,98,2822666704
13,25,Jits_Pract_5,1,5,56,103,2822697576
13,25,Jits_Pract_5,2,5,80,127,2822706652
13,25,Jits_Pract_5,0,5,56,103,2823117112
13,25,Jits_Pract_5,1,5,63,98,2823167488
13,25,Jits_Pract_5,2,5,80,127,2823186748
13,25,Jits_Pract_5,0,5,80,127,2823616780
13,25,Jits_Pract_5,1,5,63,98,2823667008
13,25,Jits_Pract_5,2,5,56,103,2823706944
13,25,Jits_Pract_5,0,5,56,103,2824116448
13,25,Jits_Pract_5,1,5,63,98,2824147544
13,25,Jits_Pract_5,2,5,80,127,2824217024
13,25,Jits_Pract_5,0,5,56,103,2824617312
13,25,Jits_Pract_5,1,5,80,127,2824676756
13,25,Jits_Pract_5,2,5,63,98,2824706360
13,25,Jits_Pract_5,0,5,56,103,2825127396
13,25,Jits_Pract_5,1,5,63,98,2825136396
13,25,Jits_Pract_5,2,5,80,127,2825176484
13,25,Jits_Pract_5,0,5,63,98,2825616796
13,25,Jits_Pract_5,1,5,80,127,2825696696
13,25,Jits_Pract_5,2,5,56,103,2825706892
13,25,Jits_Pract_5,0,5,63,98,2826166508
13,25,Jits_Pract_5,1,5,56,103,2826206464
13,25,Jits_Pract_5,2,5,80,127,2826209608
13,25,Jits_Pract_5,0,5,56,103,2826626372
13,25,Jits_Pract_5,1,5,63,98,2826636792
13,25,Jits_Pract_5,2,5,80,127,2826676656
13,25,Jits_Pract_5,0,5,56,103,2827117044
13,25,Jits_Pract_5,1,5,63,98,2827120184
13,25,Jits_Pract_5,2,5,80,127,2827137352
13,25,Jits_Pract_5,0,9999,9999,9999,9999,2820414556
13,25,Jits_Pract_5,1,9999,9999,9999,9999,2820914280
13,25,Jits_Pract_5,2,9999,9999,9999,9999,2821415000
13,25,Jits_Pract_5,3,9999,9999,9999,9999,2821914740
13,25,Jits_Pract_5,4,9999,9999,9999,9999,2822414400
13,25,Jits_Pract_5,5,9999,9999,9999,9999,2822914144
13,25,Jits_Pract_5,6,9999,9999,9999,9999,2823414844
13,25,Jits_Pract_5,7,9999,9999,9999,9999,2823914588
13,25,Jits_Pract_5,8,9999,9999,9999,9999,2824414332
13,25,Jits_Pract_5,9,9999,9999,9999,9999,2824915024
13,25,Jits_Pract_5,10,9999,9999,9999,9999,2825414764
13,25,Jits_Pract_5,11,9999,9999,9999,9999,2825914436
13,25,Jits_Pract_5,12,9999,9999,9999,9999,2826414160
13,25,Jits_Pract_5,13,9999,9999,9999,9999,2826914936
13,25,Jits_Pract_5,14,9999,9999,9999,9999,2827414592
14,24,Jits_Pract_8,0,1,48,16,2883513776
14,24,Jits_Pract_8,1,5,56,103,2883916072
14,24,Jits_Pract_8,2,5,63,98,2883919168
14,24,Jits_Pract_8,3,5,80,127,2883922364
14,24,Jits_Pract_8,0,5,56,103,2884716208
14,24,Jits_Pract_8,1,5,63,98,2884719232
14,24,Jits_Pract_8,2,5,80,127,2884722276
14,24,Jits_Pract_8,0,5,80,127,2885456148
14,24,Jits_Pract_8,1,5,63,98,2885546356
14,24,Jits_Pract_8,2,5,56,103,2885555504
14,24,Jits_Pract_8,3,1,48,43,2885599996
14,24,Jits_Pract_8,0,5,56,103,2886275400
14,24,Jits_Pract_8,1,5,63,98,2886285672
14,24,Jits_Pract_8,2,1,48,44,2886302048
14,24,Jits_Pract_8,3,5,80,127,2886375968
14,24,Jits_Pract_8,0,5,63,98,2887045424
14,24,Jits_Pract_8,1,5,80,127,2887076148
14,24,Jits_Pract_8,2,1,48,42,2887094632
14,24,Jits_Pract_8,3,5,56,103,2887105964
14,24,Jits_Pract_8,0,1,48,51,2887800332
14,24,Jits_Pract_8,1,5,56,103,2887846212
14,24,Jits_Pract_8,2,5,80,127,2887945576
14,24,Jits_Pract_8,3,5,63,98,2887995700
14,24,Jits_Pract_8,0,5,56,103,2888645976
14,24,Jits_Pract_8,1,1,48,49,2888676848
14,24,Jits_Pract_8,2,5,80,127,2888696048
14,24,Jits_Pract_8,3,5,63,98,2888736060
14,24,Jits_Pract_8,0,1,48,51,2889454884
14,24,Jits_Pract_8,1,5,80,127,2889475432
14,24,Jits_Pract_8,2,5,63,98,2889506080
14,24,Jits_Pract_8,3,5,56,103,2889575744
14,24,Jits_Pract_8,0,1,48,50,2890227584
14,24,Jits_Pract_8,1,5,63,98,2890306128
14,24,Jits_Pract_8,2,5,56,103,2890335864
14,24,Jits_Pract_8,3,5,80,127,2890396104
14,24,Jits_Pract_8,0,5,56,103,2891046104
14,24,Jits_Pract_8,1,5,80,127,2891049252
14,24,Jits_Pract_8,2,1,48,47,2891064668
14,24,Jits_Pract_8,3,5,63,98,2891166180
14,24,Jits_Pract_8,0,1,48,50,2891855356
14,24,Jits_Pract_8,1,5,56,103,2891926104
14,24,Jits_Pract_8,2,5,80,127,2891966100
14,24,Jits_Pract_8,3,5,63,98,2891976000
14,24,Jits_Pract_8,0,1,48,53,2892660956
14,24,Jits_Pract_8,1,5,56,103,2892685784
14,24,Jits_Pract_8,2,5,80,127,2892706168
14,24,Jits_Pract_8,3,5,63,98,2892785972
14,24,Jits_Pract_8,0,1,48,49,2893456148
14,24,Jits_Pract_8,1,5,80,127,2893476252
14,24,Jits_Pract_8,2,5,56,103,2893575760
14,24,Jits_Pract_8,3,5,63,98,2893585884
14,24,Jits_Pract_8,0,5,63,98,2894246124
14,24,Jits_Pract_8,1,1,48,50,2894302756
14,24,Jits_Pract_8,2,5,80,127,2894305860
14,24,Jits_Pract_8,3,5,56,103,2894315832
14,24,Jits_Pract_8,0,1,48,48,2895022904
14,24,Jits_Pract_8,1,5,56,103,2895045944
14,24,Jits_Pract_8,2,5,63,98,2895117076
14,24,Jits_Pract_8,3,5,80,127,2895119824
14,24,Jits_Pract_8,0,9999,9999,9999,9999,2884313204
14,24,Jits_Pract_8,1,9999,9999,9999,9999,2885113936
14,24,Jits_Pract_8,2,9999,9999,9999,9999,2885913648
14,24,Jits_Pract_8,3,9999,9999,9999,9999,2886713420
14,24,Jits_Pract_8,4,9999,9999,9999,9999,2887513184
14,24,Jits_Pract_8,5,9999,9999,9999,9999,2888313912
14,24,Jits_Pract_8,6,9999,9999,9999,9999,2889113664
14,24,Jits_Pract_8,7,9999,9999,9999,9999,2889913436
14,24,Jits_Pract_8,8,9999,9999,9999,9999,2890713144
14,24,Jits_Pract_8,9,9999,9999,9999,9999,2891513936
14,24,Jits_Pract_8,10,9999,9999,9999,9999,2892313716
14,24,Jits_Pract_8,11,9999,9999,9999,9999,2893113400
14,24,Jits_Pract_8,12,9999,9999,9999,9999,2893913164
14,24,Jits_Pract_8,13,9999,9999,9999,9999,2894713960
14,24,Jits_Pract_8,14,9999,9999,9999,9999,2895513704
15,25,Jits_Pract_5,0,5,56,103,2903255628
15,25,Jits_Pract_5,1,5,63,98,2903258576
15,25,Jits_Pract_5,2,5,80,127,2903261700
15,25,Jits_Pract_5,0,5,56,103,2903755320
15,25,Jits_Pract_5,1,5,63,98,2903758348
15,25,Jits_Pract_5,2,5,80,127,2903761612
15,25,Jits_Pract_5,3,1,48,39,2903974604
15,25,Jits_Pract_5,0,5,56,103,2904254804
15,25,Jits_Pract_5,1,5,80,127,2904265000
15,25,Jits_Pract_5,2,5,63,98,2904284584
15,25,Jits_Pract_5,3,1,48,44,2904377896
15,25,Jits_Pract_5,0,5,63,98,2904705360
15,25,Jits_Pract_5,1,5,80,127,2904735184
15,25,Jits_Pract_5,2,5,56,103,2904745452
15,25,Jits_Pract_5,3,1,48,52,2904807032
15,25,Jits_Pract_5,0,1,48,49,2905235736
15,25,Jits_Pract_5,1,5,80,127,2905274796
15,25,Jits_Pract_5,2,5,56,103,2905284916
15,25,Jits_Pract_5,3,5,63,98,2905314764
15,25,Jits_Pract_5,0,5,63,98,2905765504
15,25,Jits_Pract_5,1,1,48,49,2905782720
15,25,Jits_Pract_5,2,5,56,103,2905794952
15,25,Jits_Pract_5,3,5,80,127,2905805592
15,25,Jits_Pract_5,0,5,56,103,2906214704
15,25,Jits_Pract_5,1,5,63,98,2906264832
15,25,Jits_Pract_5,2,5,80,127,2906285440
15,25,Jits_Pract_5,3,1,48,51,2906295456
15,25,Jits_Pract_5,0,5,80,127,2906714332
15,25,Jits_Pract_5,1,1,48,51,2906738276
15,25,Jits_Pract_5,2,5,63,98,2906764528
15,25,Jits_Pract_5,3,5,56,103,2906804540
15,25,Jits_Pract_5,0,5,56,103,2907215384
15,25,Jits_Pract_5,1,1,48,56,2907240224
15,25,Jits_Pract_5,2,5,63,98,2907244976
15,25,Jits_Pract_5,3,5,80,127,2907314512
15,25,Jits_Pract_5,0,1,48,51,2907709356
15,25,Jits_Pract_5,1,5,56,103,2907714784
15,25,Jits_Pract_5,2,5,80,127,2907775400
15,25,Jits_Pract_5,3,5,63,98,2907805136
15,25,Jits_Pract_5,0,5,56,103,2908224824
15,25,Jits_Pract_5,1,5,63,98,2908235168
15,25,Jits_Pract_5,2,1,48,47,2908238068
15,25,Jits_Pract_5,3,5,80,127,2908275324
15,25,Jits_Pract_5,0,5,63,98,2908715232
15,25,Jits_Pract_5,1,1,48,51,2908729440
15,25,Jits_Pract_5,2,5,80,127,2908795248
15,25,Jits_Pract_5,3,5,56,103,2908804396
15,25,Jits_Pract_5,0,1,48,47,2909263760
15,25,Jits_Pract_5,1,5,63,98,2909265416
15,25,Jits_Pract_5,2,5,56,103,2909305280
15,25,Jits_Pract_5,3,5,80,127,2909308348
15,25,Jits_Pract_5,0,5,56,103,2909725028
15,25,Jits_Pract_5,1,5,63,98,2909735224
15,25,Jits_Pract_5,2,1,48,45,2909743520
15,25,Jits_Pract_5,3,5,80,127,2909775156
15,25,Jits_Pract_5,0,1,48,48,2910196156
15,25,Jits_Pract_5,1,5,56,103,2910214608
15,25,Jits_Pract_5,2,5,63,98,2910217528
15,25,Jits_Pract_5,3,5,80,127,2910235140
15,25,Jits_Pract_5,0,9999,9999,9999,9999,2903502964
15,25,Jits_Pract_5,1,9999,9999,9999,9999,2904002676
15,25,Jits_Pract_5,2,9999,9999,9999,9999,2904502372
15,25,Jits_Pract_5,3,9999,9999,9999,9999,2905003120
15,25,Jits_Pract_5,4,9999,9999,9999,9999,2905513080
15,25,Jits_Pract_5,5,9999,9999,9999,9999,2906012776
15,25,Jits_Pract_5,6,9999,9999,9999,9999,2906512468
15,25,Jits_Pract_5,7,9999,9999,9999,9999,2907012172
15,25,Jits_Pract_5,8,9999,9999,9999,9999,2907512924
15,25,Jits_Pract_5,9,9999,9999,9999,9999,2908012632
15,25,Jits_Pract_5,10,9999,9999,9999,9999,2908512324
15,25,Jits_Pract_5,11,9999,9999,9999,9999,2909013072
15,25,Jits_Pract_5,12,9999,9999,9999,9999,2909512760
15,25,Jits_Pract_5,13,9999,9999,9999,9999,2910012528
15,25,Jits_Pract_5,14,9999,9999,9999,9999,2910512220
16,7,Jits_ISO_8,0,5,56,103,2939723240
16,7,Jits_ISO_8,1,5,63,98,2939726416
16,7,Jits_ISO_8,2,5,80,127,2939729464
16,7,Jits_ISO_8,0,1,48,37,2940338056
16,7,Jits_ISO_8,1,5,56,103,2940522996
16,7,Jits_ISO_8,2,5,63,98,2940526168
16,7,Jits_ISO_8,3,5,80,127,2940529216
16,7,Jits_ISO_8,0,5,80,127,2941263160
16,7,Jits_ISO_8,1,1,48,41,2941317972
16,7,Jits_ISO_8,2,5,63,98,2941353292
16,7,Jits_ISO_8,3,5,56,103,2941362592
16,7,Jits_ISO_8,0,5,56,103,2942082372
16,7,Jits_ISO_8,1,5,63,98,2942092792
16,7,Jits_ISO_8,2,1,48,45,2942113820
16,7,Jits_ISO_8,3,5,80,127,2942182716
16,7,Jits_ISO_8,0,5,63,98,2942852428
16,7,Jits_ISO_8,1,1,48,40,2942875544
16,7,Jits_ISO_8,2,5,80,127,2942883144
16,7,Jits_ISO_8,3,5,56,103,2942912964
16,7,Jits_ISO_8,0,1,48,38,2943610056
16,7,Jits_ISO_8,1,5,56,103,2943653244
16,7,Jits_ISO_8,2,5,80,127,2943752532
16,7,Jits_ISO_8,3,5,63,98,2943802956
16,7,Jits_ISO_8,0,5,56,103,2944453188
16,7,Jits_ISO_8,1,1,48,48,2944461040
16,7,Jits_ISO_8,2,5,80,127,2944503184
16,7,Jits_ISO_8,3,5,63,98,2944543124
16,7,Jits_ISO_8,0,1,48,48,2945229944
16,7,Jits_ISO_8,1,5,80,127,2945282376
16,7,Jits_ISO_8,2,5,63,98,2945313172
16,7,Jits_ISO_8,3,5,56,103,2945382988
16,7,Jits_ISO_8,0,1,48,46,2946070060
16,7,Jits_ISO_8,1,5,63,98,2946112876
16,7,Jits_ISO_8,2,5,56,103,2946142704
16,7,Jits_ISO_8,3,5,80,127,2946202928
16,7,Jits_ISO_8,0,5,56,103,2946853180
16,7,Jits_ISO_8,1,5,80,127,2946856172
16,7,Jits_ISO_8,2,1,48,49,2946909932
16,7,Jits_ISO_8,3,5,63,98,2946972976
16,7,Jits_ISO_8,0,1,48,49,2947654884
16,7,Jits_ISO_8,1,5,56,103,2947732756
16,7,Jits_ISO_8,2,5,80,127,2947772756
16,7,Jits_ISO_8,3,5,63,98,2947782880
16,7,Jits_ISO_8,0,1,48,48,2948463892
16,7,Jits_ISO_8,1,5,56,103,2948492984
16,7,Jits_ISO_8,2,5,80,127,2948513072
16,7,Jits_ISO_8,3,5,63,98,2948592956
16,7,Jits_ISO_8,0,1,48,50,2949247420
16,7,Jits_ISO_8,1,5,80,127,2949283112
16,7,Jits_ISO_8,2,5,56,103,2949382624
16,7,Jits_ISO_8,3,5,63,98,2949392896
16,7,Jits_ISO_8,0,5,63,98,2950053236
16,7,Jits_ISO_8,1,1,48,48,2950076436
16,7,Jits_ISO_8,2,5,80,127,2950112896
16,7,Jits_ISO_8,3,5,56,103,2950122872
16,7,Jits_ISO_8,0,1,48,44,2950808024
16,7,Jits_ISO_8,1,5,56,103,2950852936
16,7,Jits_ISO_8,2,5,63,98,2950922628
16,7,Jits_ISO_8,3,5,80,127,2950925916
16,7,Jits_ISO_8,0,1,48,46,2951592520
16,7,Jits_ISO_8,1,5,63,98,2951682700
16,7,Jits_ISO_8,2,5,56,103,2951732664
16,7,Jits_ISO_8,3,5,80,127,2951735804
16,7,Jits_ISO_8,0,1,48,52,2952432780
16,7,Jits_ISO_8,1,5,56,103,2952443360
16,7,Jits_ISO_8,2,5,80,127,2952446204
16,7,Jits_ISO_8,3,5,63,98,2952533476
16,7,Jits_ISO_8,0,1,48,51,2953197624
16,7,Jits_ISO_8,1,5,63,98,2953282840
16,7,Jits_ISO_8,2,5,56,103,2953373184
16,7,Jits_ISO_8,3,5,80,127,2953402712
16,7,Jits_ISO_8,0,1,48,54,2954042524
16,7,Jits_ISO_8,1,5,56,103,2954072440
16,7,Jits_ISO_8,2,5,63,98,2954172752
16,7,Jits_ISO_8,3,5,80,127,2954202672
16,7,Jits_ISO_8,0,1,48,47,2954868448
16,7,Jits_ISO_8,1,5,63,98,2954892680
16,7,Jits_ISO_8,2,5,56,103,2954902952
16,7,Jits_ISO_8,3,5,80,127,2954992944
16,7,Jits_ISO_8,0,1,48,43,2955657968
16,7,Jits_ISO_8,1,5,63,98,2955712844
16,7,Jits_ISO_8,2,5,56,103,2955792728
16,7,Jits_ISO_8,3,5,80,127,2955795720
16,7,Jits_ISO_8,0,1,48,58,2956472628
16,7,Jits_ISO_8,1,5,80,127,2956474260
16,7,Jits_ISO_8,2,5,63,98,2956493452
16,7,Jits_ISO_8,3,5,56,103,2956552448
16,7,Jits_ISO_8,0,1,48,53,2957283568
16,7,Jits_ISO_8,1,5,56,103,2957313560
16,7,Jits_ISO_8,2,5,63,98,2957332744
16,7,Jits_ISO_8,3,5,80,127,2957336036
16,7,Jits_ISO_8,0,5,63,98,2958052656
16,7,Jits_ISO_8,1,1,48,46,2958077720
16,7,Jits_ISO_8,2,5,80,127,2958132596
16,7,Jits_ISO_8,3,5,56,103,2958142864
16,7,Jits_ISO_8,0,1,48,46,2958827976
16,7,Jits_ISO_8,1,5,63,98,2958872884
16,7,Jits_ISO_8,2,5,56,103,2958893344
16,7,Jits_ISO_8,3,5,80,127,2958942560
16,7,Jits_ISO_8,0,1,48,57,2959602968
16,7,Jits_ISO_8,1,5,80,127,2959672668
16,7,Jits_ISO_8,2,5,63,98,2959712596
16,7,Jits_ISO_8,3,5,56,103,2959733276
16,7,Jits_ISO_8,0,1,48,52,2960454592
16,7,Jits_ISO_8,1,5,56,103,2960513360
16,7,Jits_ISO_8,2,5,63,98,2960522584
16,7,Jits_ISO_8,3,5,80,127,2960543192
16,7,Jits_ISO_8,0,1,48,53,2961230464
16,7,Jits_ISO_8,1,5,56,103,2961242492
16,7,Jits_ISO_8,2,5,63,98,2961332612
16,7,Jits_ISO_8,3,5,80,127,2961392952
16,7,Jits_ISO_8,0,1,48,54,2962033336
16,7,Jits_ISO_8,1,5,80,127,2962073068
16,7,Jits_ISO_8,2,5,56,103,2962083192
16,7,Jits_ISO_8,3,5,63,98,2962152956
16,7,Jits_ISO_8,0,1,48,53,2962820316
16,7,Jits_ISO_8,1,5,63,98,2962903372
16,7,Jits_ISO_8,2,5,80,127,2962992444
16,7,Jits_ISO_8,3,5,56,103,2963002788
16,7,Jits_ISO_8,0,1,48,52,2963619260
16,7,Jits_ISO_8,1,5,63,98,2963642600
16,7,Jits_ISO_8,2,5,80,127,2963693124
16,7,Jits_ISO_8,3,5,56,103,2963753424
16,7,Jits_ISO_8,0,1,48,50,2964402420
16,7,Jits_ISO_8,1,5,56,103,2964473196
16,7,Jits_ISO_8,2,5,80,127,2964523384
16,7,Jits_ISO_8,3,5,63,98,2964542720
16,7,Jits_ISO_8,0,1,48,50,2965242264
16,7,Jits_ISO_8,1,5,56,103,2965244056
16,7,Jits_ISO_8,2,5,80,127,2965302580
16,7,Jits_ISO_8,3,5,63,98,2965373292
16,7,Jits_ISO_8,0,5,56,103,2966043096
16,7,Jits_ISO_8,1,1,48,52,2966066220
16,7,Jits_ISO_8,2,5,80,127,2966072616
16,7,Jits_ISO_8,3,5,63,98,2966103340
16,7,Jits_ISO_8,0,1,48,49,2966857312
16,7,Jits_ISO_8,1,5,56,103,2966882740
16,7,Jits_ISO_8,2,5,80,127,2966903348
16,7,Jits_ISO_8,3,5,63,98,2966962680
16,7,Jits_ISO_8,0,1,48,52,2967667736
16,7,Jits_ISO_8,1,5,80,127,2967763172
16,7,Jits_ISO_8,2,5,56,103,2967772528
16,7,Jits_ISO_8,3,5,63,98,2967782872
16,7,Jits_ISO_8,0,1,48,51,2968520492
16,7,Jits_ISO_8,1,5,56,103,2968523300
16,7,Jits_ISO_8,2,5,80,127,2968562968
16,7,Jits_ISO_8,3,5,63,98,2968592940
16,7,Jits_ISO_8,0,5,56,103,2969293132
16,7,Jits_ISO_8,1,1,48,50,2969323276
16,7,Jits_ISO_8,2,5,63,98,2969324620
16,7,Jits_ISO_8,3,5,80,127,2969362764
16,7,Jits_ISO_8,0,5,80,127,2970043028
16,7,Jits_ISO_8,1,1,48,58,2970086180
16,7,Jits_ISO_8,2,5,63,98,2970093100
16,7,Jits_ISO_8,3,5,56,103,2970113484
16,7,Jits_ISO_8,0,1,48,56,2970852636
16,7,Jits_ISO_8,1,5,56,103,2970873184
16,7,Jits_ISO_8,2,5,80,127,2970943092
16,7,Jits_ISO_8,3,5,63,98,2971003316
16,7,Jits_ISO_8,0,5,80,127,2971673200
16,7,Jits_ISO_8,1,1,48,53,2971732296
16,7,Jits_ISO_8,2,5,63,98,2971763184
16,7,Jits_ISO_8,3,5,56,103,2971782448
16,7,Jits_ISO_8,0,1,48,49,2972487500
16,7,Jits_ISO_8,1,5,63,98,2972493300
16,7,Jits_ISO_8,2,5,56,103,2972512640
16,7,Jits_ISO_8,3,5,80,127,2972552504
16,7,Jits_ISO_8,0,1,48,59,2973252404
16,7,Jits_ISO_8,1,5,80,127,2973254124
16,7,Jits_ISO_8,2,5,63,98,2973272416
16,7,Jits_ISO_8,3,5,56,103,2973353388
16,7,Jits_ISO_8,0,5,63,98,2974042600
16,7,Jits_ISO_8,1,1,48,55,2974046244
16,7,Jits_ISO_8,2,5,56,103,2974153016
16,7,Jits_ISO_8,3,5,80,127,2974156156
16,7,Jits_ISO_8,0,1,48,54,2974850960
16,7,Jits_ISO_8,1,5,63,98,2974862672
16,7,Jits_ISO_8,2,5,56,103,2974872860
16,7,Jits_ISO_8,3,5,80,127,2974876080
16,7,Jits_ISO_8,0,1,48,50,2975584640
16,7,Jits_ISO_8,1,5,56,103,2975643032
16,7,Jits_ISO_8,2,5,80,127,2975763072
16,7,Jits_ISO_8,3,5,63,98,2975802860
16,7,Jits_ISO_8,0,1,48,51,2976458740
16,7,Jits_ISO_8,1,5,56,103,2976463196
16,7,Jits_ISO_8,2,5,80,127,2976542944
16,7,Jits_ISO_8,3,5,63,98,2976562640
16,7,Jits_ISO_8,0,5,56,103,2977263088
16,7,Jits_ISO_8,1,1,48,52,2977291764
16,7,Jits_ISO_8,2,5,63,98,2977372472
16,7,Jits_ISO_8,3,5,80,127,2977375912
16,7,Jits_ISO_8,0,5,56,103,2978093448
16,7,Jits_ISO_8,1,1,48,46,2978104588
16,7,Jits_ISO_8,2,5,80,127,2978123044
16,7,Jits_ISO_8,3,5,63,98,2978142532
16,7,Jits_ISO_8,0,1,48,45,2978860632
16,7,Jits_ISO_8,1,5,63,98,2978872936
16,7,Jits_ISO_8,2,5,56,103,2978882912
16,7,Jits_ISO_8,3,5,80,127,2978893032
16,7,Jits_ISO_8,0,1,48,40,2979613876
16,7,Jits_ISO_8,1,5,80,127,2979663200
16,7,Jits_ISO_8,2,5,56,103,2979713464
16,7,Jits_ISO_8,3,5,63,98,2979753328
16,7,Jits_ISO_8,0,1,48,48,2980414108
16,7,Jits_ISO_8,1,5,80,127,2980482392
16,7,Jits_ISO_8,2,5,63,98,2980503076
16,7,Jits_ISO_8,3,5,56,103,2980553184
16,7,Jits_ISO_8,0,1,48,46,2981198300
16,7,Jits_ISO_8,1,5,80,127,2981293560
16,7,Jits_ISO_8,2,5,56,103,2981323148
16,7,Jits_ISO_8,3,5,63,98,2981392928
16,7,Jits_ISO_8,0,1,48,45,2982055780
16,7,Jits_ISO_8,1,5,56,103,2982143572
16,7,Jits_ISO_8,2,5,80,127,2982152632
16,7,Jits_ISO_8,3,5,63,98,2982192572
16,7,Jits_ISO_8,0,5,56,103,2982853060
16,7,Jits_ISO_8,1,5,63,98,2982872576
16,7,Jits_ISO_8,2,1,48,51,2982911288
16,7,Jits_ISO_8,3,5,80,127,2982942996
16,7,Jits_ISO_8,0,1,48,48,2983649916
16,7,Jits_ISO_8,1,5,63,98,2983673180
16,7,Jits_ISO_8,2,5,80,127,2983732452
16,7,Jits_ISO_8,3,5,56,103,2983753120
16,7,Jits_ISO_8,0,1,48,48,2984410148
16,7,Jits_ISO_8,1,5,80,127,2984462704
16,7,Jits_ISO_8,2,5,56,103,2984493352
16,7,Jits_ISO_8,3,5,63,98,2984523164
16,7,Jits_ISO_8,0,1,48,45,2985244852
16,7,Jits_ISO_8,1,5,56,103,2985262560
16,7,Jits_ISO_8,2,5,63,98,2985322804
16,7,Jits_ISO_8,3,5,80,127,2985383400
16,7,Jits_ISO_8,0,1,48,46,2986050784
16,7,Jits_ISO_8,1,5,80,127,2986082796
16,7,Jits_ISO_8,2,5,56,103,2986103032
16,7,Jits_ISO_8,3,5,63,98,2986172696
16,7,Jits_ISO_8,0,1,48,43,2986868840
16,7,Jits_ISO_8,1,5,80,127,2986882356
16,7,Jits_ISO_8,2,5,63,98,2986903040
16,7,Jits_ISO_8,3,5,56,103,2986932564
16,7,Jits_ISO_8,0,1,48,41,2987648612
16,7,Jits_ISO_8,1,5,80,127,2987672848
16,7,Jits_ISO_8,2,5,63,98,2987693384
16,7,Jits_ISO_8,3,5,56,103,2987752808
16,7,Jits_ISO_8,0,5,80,127,2988472636
16,7,Jits_ISO_8,1,1,48,48,2988501560
16,7,Jits_ISO_8,2,5,56,103,2988573204
16,7,Jits_ISO_8,3,5,63,98,2988602640
16,7,Jits_ISO_8,0,5,63,98,2989263300
16,7,Jits_ISO_8,1,5,80,127,2989313504
16,7,Jits_ISO_8,2,5,56,103,2989332916
16,7,Jits_ISO_8,3,1,48,45,2989338804
16,7,Jits_ISO_8,0,1,48,52,2990035104
16,7,Jits_ISO_8,1,5,80,127,2990102860
16,7,Jits_ISO_8,2,5,56,103,2990132612
16,7,Jits_ISO_8,3,5,63,98,2990136488
16,7,Jits_ISO_8,0,1,48,48,2990816376
16,7,Jits_ISO_8,1,5,63,98,2990933568
16,7,Jits_ISO_8,2,5,56,103,2990973508
16,7,Jits_ISO_8,3,5,80,127,2990992768
16,7,Jits_ISO_8,0,1,48,51,2991630316
16,7,Jits_ISO_8,1,5,80,127,2991672612
16,7,Jits_ISO_8,2,5,63,98,2991752544
16,7,Jits_ISO_8,3,5,56,103,2991792484
16,7,Jits_ISO_8,0,1,48,50,2992476344
16,7,Jits_ISO_8,1,5,63,98,2992492856
16,7,Jits_ISO_8,2,5,80,127,2992572712
16,7,Jits_ISO_8,3,5,56,103,2992593420
16,7,Jits_ISO_8,0,1,48,57,2993275232
16,7,Jits_ISO_8,1,5,56,103,2993332576
16,7,Jits_ISO_8,2,5,63,98,2993342772
16,7,Jits_ISO_8,3,5,80,127,2993382796
16,7,Jits_ISO_8,0,5,56,103,2994052428
16,7,Jits_ISO_8,1,5,80,127,2994055420
16,7,Jits_ISO_8,2,1,48,55,2994085512
16,7,Jits_ISO_8,3,5,63,98,2994192608
16,7,Jits_ISO_8,0,5,56,103,2994843148
16,7,Jits_ISO_8,1,1,48,56,2994883356
16,7,Jits_ISO_8,2,5,63,98,2994933156
16,7,Jits_ISO_8,3,5,80,127,2995002972
16,7,Jits_ISO_8,0,1,48,55,2995665196
16,7,Jits_ISO_8,1,5,63,98,2995722540
16,7,Jits_ISO_8,2,5,80,127,2995725752
16,7,Jits_ISO_8,3,5,56,103,2995783064
16,7,Jits_ISO_8,0,1,48,56,2996487972
16,7,Jits_ISO_8,1,5,80,127,2996563304
16,7,Jits_ISO_8,2,5,56,103,2996582848
16,7,Jits_ISO_8,3,5,63,98,2996593268
16,7,Jits_ISO_8,0,1,48,62,2997269932
16,7,Jits_ISO_8,1,5,56,103,2997273188
16,7,Jits_ISO_8,2,5,63,98,2997283308
16,7,Jits_ISO_8,3,5,80,127,2997352916
16,7,Jits_ISO_8,0,1,48,57,2998031288
16,7,Jits_ISO_8,1,5,80,127,2998072896
16,7,Jits_ISO_8,2,5,56,103,2998123008
16,7,Jits_ISO_8,3,5,63,98,2998173208
16,7,Jits_ISO_8,0,1,48,57,2998850020
16,7,Jits_ISO_8,1,5,56,103,2998953284
16,7,Jits_ISO_8,2,5,63,98,2998962508
16,7,Jits_ISO_8,3,5,80,127,2999002620
16,7,Jits_ISO_8,0,5,56,103,2999692636
16,7,Jits_ISO_8,1,1,48,55,2999695532
16,7,Jits_ISO_8,2,5,63,98,2999732568
16,7,Jits_ISO_8,3,5,80,127,2999782944
16,7,Jits_ISO_8,0,5,80,127,3000452432
16,7,Jits_ISO_8,1,1,48,57,3000461996
16,7,Jits_ISO_8,2,5,56,103,3000502700
16,7,Jits_ISO_8,3,5,63,98,3000523088
16,7,Jits_ISO_8,0,1,48,54,3001254368
16,7,Jits_ISO_8,1,5,80,127,3001262560
16,7,Jits_ISO_8,2,5,63,98,3001323052
16,7,Jits_ISO_8,3,5,56,103,3001402904
16,7,Jits_ISO_8,0,5,80,127,3002042948
16,7,Jits_ISO_8,1,1,48,47,3002082316
16,7,Jits_ISO_8,2,5,56,103,3002083952
16,7,Jits_ISO_8,3,5,63,98,3002103216
16,7,Jits_ISO_8,0,1,48,52,3002835688
16,7,Jits_ISO_8,1,5,56,103,3002892808
16,7,Jits_ISO_8,2,5,80,127,3002903152
16,7,Jits_ISO_8,3,5,63,98,3002943000
16,7,Jits_ISO_8,0,1,48,54,3003616516
16,7,Jits_ISO_8,1,5,56,103,3003763004
16,7,Jits_ISO_8,2,5,63,98,3003802864
16,7,Jits_ISO_8,3,5,80,127,3003806232
16,7,Jits_ISO_8,0,5,63,98,3004453196
16,7,Jits_ISO_8,1,1,48,58,3004473248
16,7,Jits_ISO_8,2,5,80,127,3004493204
16,7,Jits_ISO_8,3,5,56,103,3004562960
16,7,Jits_ISO_8,0,1,48,53,3005236980
16,7,Jits_ISO_8,1,5,63,98,3005242928
16,7,Jits_ISO_8,2,5,56,103,3005322728
16,7,Jits_ISO_8,3,5,80,127,3005383032
16,7,Jits_ISO_8,0,1,48,48,3006045240
16,7,Jits_ISO_8,1,5,80,127,3006052904
16,7,Jits_ISO_8,2,5,63,98,3006103036
16,7,Jits_ISO_8,3,5,56,103,3006132784
16,7,Jits_ISO_8,0,1,48,50,3006836852
16,7,Jits_ISO_8,1,5,56,103,3006843172
16,7,Jits_ISO_8,2,5,63,98,3006893376
16,7,Jits_ISO_8,3,5,80,127,3006902824
16,7,Jits_ISO_8,0,1,48,53,3007642476
16,7,Jits_ISO_8,1,5,56,103,3007653216
16,7,Jits_ISO_8,2,5,63,98,3007762992
16,7,Jits_ISO_8,3,5,80,127,3007783156
16,7,Jits_ISO_8,0,1,48,54,3008424876
16,7,Jits_ISO_8,1,5,63,98,3008452928
16,7,Jits_ISO_8,2,5,80,127,3008503008
16,7,Jits_ISO_8,3,5,56,103,3008593276
16,7,Jits_ISO_8,0,5,63,98,3009242408
16,7,Jits_ISO_8,1,1,48,55,3009256912
16,7,Jits_ISO_8,2,5,80,127,3009273200
16,7,Jits_ISO_8,3,5,56,103,3009363392
16,7,Jits_ISO_8,0,5,63,98,3010043236
16,7,Jits_ISO_8,1,5,56,103,3010052608
16,7,Jits_ISO_8,2,1,48,48,3010057528
16,7,Jits_ISO_8,3,5,80,127,3010152908
16,7,Jits_ISO_8,0,1,48,44,3010839980
16,7,Jits_ISO_8,1,5,63,98,3010943320
16,7,Jits_ISO_8,2,5,80,127,3010972924
16,7,Jits_ISO_8,3,5,56,103,3011002820
16,7,Jits_ISO_8,0,1,48,47,3011638580
16,7,Jits_ISO_8,1,5,80,127,3011762672
16,7,Jits_ISO_8,2,5,63,98,3011772720
16,7,Jits_ISO_8,3,5,56,103,3011802644
16,7,Jits_ISO_8,0,5,80,127,3012462912
16,7,Jits_ISO_8,1,5,63,98,3012482400
16,7,Jits_ISO_8,2,1,48,49,3012527916
16,7,Jits_ISO_8,3,5,56,103,3012532668
16,7,Jits_ISO_8,0,1,48,50,3013245812
16,7,Jits_ISO_8,1,5,63,98,3013293568
16,7,Jits_ISO_8,2,5,80,127,3013352776
16,7,Jits_ISO_8,3,5,56,103,3013373236
16,7,Jits_ISO_8,0,1,48,52,3014051388
16,7,Jits_ISO_8,1,5,63,98,3014053196
16,7,Jits_ISO_8,2,5,56,103,3014103648
16,7,Jits_ISO_8,3,5,80,127,3014112724
16,7,Jits_ISO_8,0,1,48,54,3014818780
16,7,Jits_ISO_8,1,5,56,103,3014882600
16,7,Jits_ISO_8,2,5,80,127,3014892796
16,7,Jits_ISO_8,3,5,63,98,3014993472
16,7,Jits_ISO_8,0,5,80,127,3015642456
16,7,Jits_ISO_8,1,5,63,98,3015652652
16,7,Jits_ISO_8,2,1,48,51,3015669852
16,7,Jits_ISO_8,3,5,56,103,3015803292
16,7,Jits_ISO_8,0,1,48,53,3016446780
16,7,Jits_ISO_8,1,5,63,98,3016452656
16,7,Jits_ISO_8,2,5,80,127,3016493420
16,7,Jits_ISO_8,3,5,56,103,3016573572
16,7,Jits_ISO_8,0,1,48,49,3017239672
16,7,Jits_ISO_8,1,5,56,103,3017242852
16,7,Jits_ISO_8,2,5,80,127,3017343460
16,7,Jits_ISO_8,3,5,63,98,3017362724
16,7,Jits_ISO_8,0,1,48,55,3018016532
16,7,Jits_ISO_8,1,5,80,127,3018103324
16,7,Jits_ISO_8,2,5,56,103,3018113372
16,7,Jits_ISO_8,3,5,63,98,3018202464
16,7,Jits_ISO_8,0,1,48,54,3018881736
16,7,Jits_ISO_8,1,5,56,103,3018902888
16,7,Jits_ISO_8,2,5,63,98,3018923420
16,7,Jits_ISO_8,3,5,80,127,3019003448
16,7,Jits_ISO_8,0,5,63,98,3019652408
16,7,Jits_ISO_8,1,1,48,54,3019689904
16,7,Jits_ISO_8,2,5,56,103,3019742560
16,7,Jits_ISO_8,3,5,80,127,3019745696
16,7,Jits_ISO_8,0,1,48,48,3020456784
16,7,Jits_ISO_8,1,5,56,103,3020482892
16,7,Jits_ISO_8,2,5,80,127,3020543384
16,7,Jits_ISO_8,3,5,63,98,3020552520
16,7,Jits_ISO_8,0,1,48,50,3021294512
16,7,Jits_ISO_8,1,5,80,127,3021332828
16,7,Jits_ISO_8,2,5,56,103,3021343320
16,7,Jits_ISO_8,3,5,63,98,3021346388
16,7,Jits_ISO_8,0,5,56,103,3022092752
16,7,Jits_ISO_8,1,5,80,127,3022103096
16,7,Jits_ISO_8,2,1,48,43,3022118200
16,7,Jits_ISO_8,3,5,63,98,3022123324
16,7,Jits_ISO_8,0,1,48,48,3022835796
16,7,Jits_ISO_8,1,5,63,98,3022862576
16,7,Jits_ISO_8,2,5,80,127,3022923412
16,7,Jits_ISO_8,3,5,56,103,3022973376
16,7,Jits_ISO_8,0,1,48,45,3023610248
16,7,Jits_ISO_8,1,5,63,98,3023743332
16,7,Jits_ISO_8,2,5,56,103,3023752412
16,7,Jits_ISO_8,3,5,80,127,3023802688
16,7,Jits_ISO_8,0,5,63,98,3024442604
16,7,Jits_ISO_8,1,5,80,127,3024463288
16,7,Jits_ISO_8,2,5,56,103,3024472360
16,7,Jits_ISO_8,3,1,48,44,3024488884
16,7,Jits_ISO_8,0,1,48,46,3025212976
16,7,Jits_ISO_8,1,5,63,98,3025242516
16,7,Jits_ISO_8,2,5,80,127,3025245732
16,7,Jits_ISO_8,3,5,56,103,3025282384
16,7,Jits_ISO_8,0,1,48,51,3025959088
16,7,Jits_ISO_8,1,5,63,98,3026113144
16,7,Jits_ISO_8,2,5,80,127,3026142624
16,7,Jits_ISO_8,3,5,56,103,3026152820
16,7,Jits_ISO_8,0,1,48,51,3026794092
16,7,Jits_ISO_8,1,5,56,103,3026862376
16,7,Jits_ISO_8,2,5,80,127,3026893260
16,7,Jits_ISO_8,3,5,63,98,3026923012
16,7,Jits_ISO_8,0,1,48,49,3027613284
16,7,Jits_ISO_8,1,5,63,98,3027762568
16,7,Jits_ISO_8,2,5,56,103,3027802504
16,7,Jits_ISO_8,3,5,80,127,3027805496
16,7,Jits_ISO_8,0,5,80,127,3028462948
16,7,Jits_ISO_8,1,1,48,52,3028470552
16,7,Jits_ISO_8,2,5,56,103,3028543036
16,7,Jits_ISO_8,3,5,63,98,3028593148
16,7,Jits_ISO_8,0,5,80,127,3029243268
16,7,Jits_ISO_8,1,5,56,103,3029262908
16,7,Jits_ISO_8,2,1,48,50,3029279652
16,7,Jits_ISO_8,3,5,63,98,3029352808
16,7,Jits_ISO_8,0,1,48,50,3030073676
16,7,Jits_ISO_8,1,5,80,127,3030082920
16,7,Jits_ISO_8,2,5,63,98,3030123156
16,7,Jits_ISO_8,3,5,56,103,3030163092
16,7,Jits_ISO_8,0,5,63,98,3030852968
16,7,Jits_ISO_8,1,1,48,45,3030883060
16,7,Jits_ISO_8,2,5,80,127,3030913428
16,7,Jits_ISO_8,3,5,56,103,3030943104
16,7,Jits_ISO_8,0,5,56,103,3031652900
16,7,Jits_ISO_8,1,1,48,48,3031682428
16,7,Jits_ISO_8,2,5,80,127,3031684060
16,7,Jits_ISO_8,3,5,63,98,3031772652
16,7,Jits_ISO_8,0,1,48,47,3032459624
16,7,Jits_ISO_8,1,5,56,103,3032462804
16,7,Jits_ISO_8,2,5,80,127,3032573256
16,7,Jits_ISO_8,3,5,63,98,3032602928
16,7,Jits_ISO_8,0,1,48,46,3033295036
16,7,Jits_ISO_8,1,5,56,103,3033312816
16,7,Jits_ISO_8,2,5,63,98,3033372988
16,7,Jits_ISO_8,3,5,80,127,3033402868
16,7,Jits_ISO_8,0,5,56,103,3034082868
16,7,Jits_ISO_8,1,1,48,51,3034096028
16,7,Jits_ISO_8,2,5,63,98,3034153220
16,7,Jits_ISO_8,3,5,80,127,3034172780
16,7,Jits_ISO_8,0,5,80,127,3034852928
16,7,Jits_ISO_8,1,5,63,98,3034873088
16,7,Jits_ISO_8,2,1,48,51,3034913000
16,7,Jits_ISO_8,3,5,56,103,3034923356
16,7,Jits_ISO_8,0,9999,9999,9999,9999,2940120164
16,7,Jits_ISO_8,1,9999,9999,9999,9999,2940920888
16,7,Jits_ISO_8,2,9999,9999,9999,9999,2941720676
16,7,Jits_ISO_8,3,9999,9999,9999,9999,2942520404
16,7,Jits_ISO_8,4,9999,9999,9999,9999,2943320120
16,7,Jits_ISO_8,5,9999,9999,9999,9999,2944120956
16,7,Jits_ISO_8,6,9999,9999,9999,9999,2944920664
16,7,Jits_ISO_8,7,9999,9999,9999,9999,2945720388
16,7,Jits_ISO_8,8,9999,9999,9999,9999,2946520128
16,7,Jits_ISO_8,9,9999,9999,9999,9999,2947320944
16,7,Jits_ISO_8,10,9999,9999,9999,9999,2948120676
16,7,Jits_ISO_8,11,9999,9999,9999,9999,2948920392
16,7,Jits_ISO_8,12,9999,9999,9999,9999,2949720184
16,7,Jits_ISO_8,13,9999,9999,9999,9999,2950520936
16,7,Jits_ISO_8,14,9999,9999,9999,9999,2951320636
16,7,Jits_ISO_8,15,9999,9999,9999,9999,2952120404
16,7,Jits_ISO_8,16,9999,9999,9999,9999,2952920124
16,7,Jits_ISO_8,17,9999,9999,9999,9999,2953720884
16,7,Jits_ISO_8,18,9999,9999,9999,9999,2954520672
16,7,Jits_ISO_8,19,9999,9999,9999,9999,2955320384
16,7,Jits_ISO_8,20,9999,9999,9999,9999,2956120164
16,7,Jits_ISO_8,21,9999,9999,9999,9999,2956920920
16,7,Jits_ISO_8,22,9999,9999,9999,9999,2957720696
16,7,Jits_ISO_8,23,9999,9999,9999,9999,2958520404
16,7,Jits_ISO_8,24,9999,9999,9999,9999,2959320140
16,7,Jits_ISO_8,25,9999,9999,9999,9999,2960120896
16,7,Jits_ISO_8,26,9999,9999,9999,9999,2960920680
16,7,Jits_ISO_8,27,9999,9999,9999,9999,2961720392
16,7,Jits_ISO_8,28,9999,9999,9999,9999,2962520172
16,7,Jits_ISO_8,29,9999,9999,9999,9999,2963320936
16,7,Jits_ISO_8,30,9999,9999,9999,9999,2964120640
16,7,Jits_ISO_8,31,9999,9999,9999,9999,2964920424
16,7,Jits_ISO_8,32,9999,9999,9999,9999,2965720156
16,7,Jits_ISO_8,33,9999,9999,9999,9999,2966520908
16,7,Jits_ISO_8,34,9999,9999,9999,9999,2967320632
16,7,Jits_ISO_8,35,9999,9999,9999,9999,2968120424
16,7,Jits_ISO_8,36,9999,9999,9999,9999,2968920140
16,7,Jits_ISO_8,37,9999,9999,9999,9999,2969720896
16,7,Jits_ISO_8,38,9999,9999,9999,9999,2970520692
16,7,Jits_ISO_8,39,9999,9999,9999,9999,2971320420
16,7,Jits_ISO_8,40,9999,9999,9999,9999,2972120156
16,7,Jits_ISO_8,41,9999,9999,9999,9999,2972920924
16,7,Jits_ISO_8,42,9999,9999,9999,9999,2973720632
16,7,Jits_ISO_8,43,9999,9999,9999,9999,2974520408
16,7,Jits_ISO_8,44,9999,9999,9999,9999,2975320176
16,7,Jits_ISO_8,45,9999,9999,9999,9999,2976120932
16,7,Jits_ISO_8,46,9999,9999,9999,9999,2976920640
16,7,Jits_ISO_8,47,9999,9999,9999,9999,2977720420
16,7,Jits_ISO_8,48,9999,9999,9999,9999,2978520172
16,7,Jits_ISO_8,49,9999,9999,9999,9999,2979320936
16,7,Jits_ISO_8,50,9999,9999,9999,9999,2980120644
16,7,Jits_ISO_8,51,9999,9999,9999,9999,2980920428
16,7,Jits_ISO_8,52,9999,9999,9999,9999,2981720140
16,7,Jits_ISO_8,53,9999,9999,9999,9999,2982520904
16,7,Jits_ISO_8,54,9999,9999,9999,9999,2983320684
16,7,Jits_ISO_8,55,9999,9999,9999,9999,2984120412
16,7,Jits_ISO_8,56,9999,9999,9999,9999,2984920144
16,7,Jits_ISO_8,57,9999,9999,9999,9999,2985720900
16,7,Jits_ISO_8,58,9999,9999,9999,9999,2986520684
16,7,Jits_ISO_8,59,9999,9999,9999,9999,2987320392
16,7,Jits_ISO_8,60,9999,9999,9999,9999,2988120176
16,7,Jits_ISO_8,61,9999,9999,9999,9999,2988920936
16,7,Jits_ISO_8,62,9999,9999,9999,9999,2989720636
16,7,Jits_ISO_8,63,9999,9999,9999,9999,2990520412
16,7,Jits_ISO_8,64,9999,9999,9999,9999,2991320160
16,7,Jits_ISO_8,65,9999,9999,9999,9999,2992120916
16,7,Jits_ISO_8,66,9999,9999,9999,9999,2992920632
16,7,Jits_ISO_8,67,9999,9999,9999,9999,2993720420
16,7,Jits_ISO_8,68,9999,9999,9999,9999,2994520120
16,7,Jits_ISO_8,69,9999,9999,9999,9999,2995320896
16,7,Jits_ISO_8,70,9999,9999,9999,9999,2996120688
16,7,Jits_ISO_8,71,9999,9999,9999,9999,2996920408
16,7,Jits_ISO_8,72,9999,9999,9999,9999,2997720144
16,7,Jits_ISO_8,73,9999,9999,9999,9999,2998520900
16,7,Jits_ISO_8,74,9999,9999,9999,9999,2999320692
16,7,Jits_ISO_8,75,9999,9999,9999,9999,3000120408
16,7,Jits_ISO_8,76,9999,9999,9999,9999,3000920132
16,7,Jits_ISO_8,77,9999,9999,9999,9999,3001720900
16,7,Jits_ISO_8,78,9999,9999,9999,9999,3002520684
16,7,Jits_ISO_8,79,9999,9999,9999,9999,3003320408
16,7,Jits_ISO_8,80,9999,9999,9999,9999,3004120140
16,7,Jits_ISO_8,81,9999,9999,9999,9999,3004920896
16,7,Jits_ISO_8,82,9999,9999,9999,9999,3005720680
16,7,Jits_ISO_8,83,9999,9999,9999,9999,3006520388
16,7,Jits_ISO_8,84,9999,9999,9999,9999,3007320168
16,7,Jits_ISO_8,85,9999,9999,9999,9999,3008120928
16,7,Jits_ISO_8,86,9999,9999,9999,9999,3008920636
16,7,Jits_ISO_8,87,9999,9999,9999,9999,3009720420
16,7,Jits_ISO_8,88,9999,9999,9999,9999,3010520152
16,7,Jits_ISO_8,89,9999,9999,9999,9999,3011320920
16,7,Jits_ISO_8,90,9999,9999,9999,9999,3012120640
16,7,Jits_ISO_8,91,9999,9999,9999,9999,3012920420
16,7,Jits_ISO_8,92,9999,9999,9999,9999,3013720148
16,7,Jits_ISO_8,93,9999,9999,9999,9999,3014520904
16,7,Jits_ISO_8,94,9999,9999,9999,9999,3015320688
16,7,Jits_ISO_8,95,9999,9999,9999,9999,3016120392
16,7,Jits_ISO_8,96,9999,9999,9999,9999,3016920144
16,7,Jits_ISO_8,97,9999,9999,9999,9999,3017720900
16,7,Jits_ISO_8,98,9999,9999,9999,9999,3018520688
16,7,Jits_ISO_8,99,9999,9999,9999,9999,3019320400
16,7,Jits_ISO_8,100,9999,9999,9999,9999,3020120172
16,7,Jits_ISO_8,101,9999,9999,9999,9999,3020920932
16,7,Jits_ISO_8,102,9999,9999,9999,9999,3021720636
16,7,Jits_ISO_8,103,9999,9999,9999,9999,3022520416
16,7,Jits_ISO_8,104,9999,9999,9999,9999,3023320168
16,7,Jits_ISO_8,105,9999,9999,9999,9999,3024120932
16,7,Jits_ISO_8,106,9999,9999,9999,9999,3024920636
16,7,Jits_ISO_8,107,9999,9999,9999,9999,3025720400
16,7,Jits_ISO_8,108,9999,9999,9999,9999,3026520184
16,7,Jits_ISO_8,109,9999,9999,9999,9999,3027320940
16,7,Jits_ISO_8,110,9999,9999,9999,9999,3028120652
16,7,Jits_ISO_8,111,9999,9999,9999,9999,3028920440
16,7,Jits_ISO_8,112,9999,9999,9999,9999,3029720184
16,7,Jits_ISO_8,113,9999,9999,9999,9999,3030520884
16,7,Jits_ISO_8,114,9999,9999,9999,9999,3031320668
16,7,Jits_ISO_8,115,9999,9999,9999,9999,3032120376
16,7,Jits_ISO_8,116,9999,9999,9999,9999,3032920180
16,7,Jits_ISO_8,117,9999,9999,9999,9999,3033720940
16,7,Jits_ISO_8,118,9999,9999,9999,9999,3034520656
16,7,Jits_ISO_8,119,9999,9999,9999,9999,3035320376
17,16,Jits_ISO_5,0,5,56,103,3057900224
17,16,Jits_ISO_5,1,5,63,98,3057903244
17,16,Jits_ISO_5,2,5,80,127,3057906288
17,16,Jits_ISO_5,0,5,56,103,3058399640
17,16,Jits_ISO_5,1,5,63,98,3058402816
17,16,Jits_ISO_5,2,5,80,127,3058406156
17,16,Jits_ISO_5,3,1,48,57,3058586364
17,16,Jits_ISO_5,0,5,56,103,3058900292
17,16,Jits_ISO_5,1,5,80,127,3058909440
17,16,Jits_ISO_5,2,5,63,98,3058930048
17,16,Jits_ISO_5,3,1,48,54,3059007784
17,16,Jits_ISO_5,0,5,63,98,3059349896
17,16,Jits_ISO_5,1,5,80,127,3059379572
17,16,Jits_ISO_5,2,5,56,103,3059389916
17,16,Jits_ISO_5,3,1,48,52,3059453584
17,16,Jits_ISO_5,0,1,48,52,3059898972
17,16,Jits_ISO_5,1,5,80,127,3059910080
17,16,Jits_ISO_5,2,5,56,103,3059920300
17,16,Jits_ISO_5,3,5,63,98,3059949976
17,16,Jits_ISO_5,0,5,63,98,3060399564
17,16,Jits_ISO_5,1,5,56,103,3060430164
17,16,Jits_ISO_5,2,5,80,127,3060440284
17,16,Jits_ISO_5,3,1,48,52,3060452840
17,16,Jits_ISO_5,0,5,56,103,3060850008
17,16,Jits_ISO_5,1,5,63,98,3060900136
17,16,Jits_ISO_5,2,5,80,127,3060919768
17,16,Jits_ISO_5,3,1,48,49,3060957136
17,16,Jits_ISO_5,0,5,80,127,3061349980
17,16,Jits_ISO_5,1,5,63,98,3061400104
17,16,Jits_ISO_5,2,1,48,54,3061412364
17,16,Jits_ISO_5,3,5,56,103,3061440036
17,16,Jits_ISO_5,0,5,56,103,3061849432
17,16,Jits_ISO_5,1,5,63,98,3061880232
17,16,Jits_ISO_5,2,1,48,52,3061918792
17,16,Jits_ISO_5,3,5,80,127,3061949824
17,16,Jits_ISO_5,0,5,56,103,3062350080
17,16,Jits_ISO_5,1,1,48,49,3062384660
17,16,Jits_ISO_5,2,5,80,127,3062409788
17,16,Jits_ISO_5,3,5,63,98,3062440284
17,16,Jits_ISO_5,0,5,56,103,3062860016
17,16,Jits_ISO_5,1,5,63,98,3062870584
17,16,Jits_ISO_5,2,5,80,127,3062910220
17,16,Jits_ISO_5,3,1,48,51,3062934984
17,16,Jits_ISO_5,0,5,63,98,3063349944
17,16,Jits_ISO_5,1,1,48,52,3063401988
17,16,Jits_ISO_5,2,5,80,127,3063429584
17,16,Jits_ISO_5,3,5,56,103,3063439704
17,16,Jits_ISO_5,0,1,48,51,3063893548
17,16,Jits_ISO_5,1,5,63,98,3063899796
17,16,Jits_ISO_5,2,5,56,103,3063939732
17,16,Jits_ISO_5,3,5,80,127,3063942724
17,16,Jits_ISO_5,0,5,56,103,3064360276
17,16,Jits_ISO_5,1,5,63,98,3064369720
17,16,Jits_ISO_5,2,1,48,48,3064405124
17,16,Jits_ISO_5,3,5,80,127,3064409576
17,16,Jits_ISO_5,0,5,56,103,3064849904
17,16,Jits_ISO_5,1,5,63,98,3064852824
17,16,Jits_ISO_5,2,1,48,46,3064868848
17,16,Jits_ISO_5,3,5,80,127,3064870728
17,16,Jits_ISO_5,0,1,48,49,3065348788
17,16,Jits_ISO_5,1,5,80,127,3065359676
17,16,Jits_ISO_5,2,5,56,103,3065369872
17,16,Jits_ISO_5,3,5,63,98,3065440432
17,16,Jits_ISO_5,0,5,63,98,3065850200
17,16,Jits_ISO_5,1,5,56,103,3065869836
17,16,Jits_ISO_5,2,1,48,49,3065891608
17,16,Jits_ISO_5,3,5,80,127,3065949544
17,16,Jits_ISO_5,0,5,56,103,3066360048
17,16,Jits_ISO_5,1,1,48,50,3066381148
17,16,Jits_ISO_5,2,5,80,127,3066399980
17,16,Jits_ISO_5,3,5,63,98,3066410400
17,16,Jits_ISO_5,0,5,80,127,3066849684
17,16,Jits_ISO_5,1,1,48,48,3066852728
17,16,Jits_ISO_5,2,5,63,98,3066880324
17,16,Jits_ISO_5,3,5,56,103,3066920408
17,16,Jits_ISO_5,0,1,48,41,3067303368
17,16,Jits_ISO_5,1,5,56,103,3067369952
17,16,Jits_ISO_5,2,5,63,98,3067399760
17,16,Jits_ISO_5,3,5,80,127,3067449884
17,16,Jits_ISO_5,0,1,48,46,3067825800
17,16,Jits_ISO_5,1,5,80,127,3067879728
17,16,Jits_ISO_5,2,5,56,103,3067919668
17,16,Jits_ISO_5,3,5,63,98,3067929920
17,16,Jits_ISO_5,0,1,48,41,3068345312
17,16,Jits_ISO_5,1,5,80,127,3068360256
17,16,Jits_ISO_5,2,5,63,98,3068400044
17,16,Jits_ISO_5,3,5,56,103,3068460640
17,16,Jits_ISO_5,0,1,48,40,3068843084
17,16,Jits_ISO_5,1,5,56,103,3068859744
17,16,Jits_ISO_5,2,5,80,127,3068870012
17,16,Jits_ISO_5,3,5,63,98,3068949964
17,16,Jits_ISO_5,0,1,48,46,3069358956
17,16,Jits_ISO_5,1,5,80,127,3069360744
17,16,Jits_ISO_5,2,5,63,98,3069419816
17,16,Jits_ISO_5,3,5,56,103,3069449564
17,16,Jits_ISO_5,0,5,56,103,3069860192
17,16,Jits_ISO_5,1,1,48,43,3069864876
17,16,Jits_ISO_5,2,5,80,127,3069919628
17,16,Jits_ISO_5,3,5,63,98,3069960596
17,16,Jits_ISO_5,0,1,48,42,3070386724
17,16,Jits_ISO_5,1,5,56,103,3070410380
17,16,Jits_ISO_5,2,5,63,98,3070420424
17,16,Jits_ISO_5,3,5,80,127,3070423936
17,16,Jits_ISO_5,0,5,80,127,3070859740
17,16,Jits_ISO_5,1,1,48,47,3070878824
17,16,Jits_ISO_5,2,5,63,98,3070949888
17,16,Jits_ISO_5,3,5,56,103,3070959860
17,16,Jits_ISO_5,0,5,56,103,3071360448
17,16,Jits_ISO_5,1,5,63,98,3071363696
17,16,Jits_ISO_5,2,5,80,127,3071366744
17,16,Jits_ISO_5,3,1,48,43,3071379240
17,16,Jits_ISO_5,0,1,48,40,3071865316
17,16,Jits_ISO_5,1,5,80,127,3071879660
17,16,Jits_ISO_5,2,5,63,98,3071929636
17,16,Jits_ISO_5,3,5,56,103,3071960680
17,16,Jits_ISO_5,0,5,56,103,3072359780
17,16,Jits_ISO_5,1,1,48,42,3072362524
17,16,Jits_ISO_5,2,5,80,127,3072369968
17,16,Jits_ISO_5,3,5,63,98,3072439792
17,16,Jits_ISO_5,0,1,48,48,3072842032
17,16,Jits_ISO_5,1,5,56,103,3072869708
17,16,Jits_ISO_5,2,5,63,98,3072890164
17,16,Jits_ISO_5,3,5,80,127,3072949564
17,16,Jits_ISO_5,0,1,48,41,3073324304
17,16,Jits_ISO_5,1,5,80,127,3073360296
17,16,Jits_ISO_5,2,5,63,98,3073429888
17,16,Jits_ISO_5,3,5,56,103,3073450568
17,16,Jits_ISO_5,0,1,48,40,3073868476
17,16,Jits_ISO_5,1,5,80,127,3073880336
17,16,Jits_ISO_5,2,5,56,103,3073889560
17,16,Jits_ISO_5,3,5,63,98,3073899756
17,16,Jits_ISO_5,0,1,48,48,3074347828
17,16,Jits_ISO_5,1,5,80,127,3074369876
17,16,Jits_ISO_5,2,5,56,103,3074390484
17,16,Jits_ISO_5,3,5,63,98,3074459996
17,16,Jits_ISO_5,0,1,48,39,3074856536
17,16,Jits_ISO_5,1,5,56,103,3074879800
17,16,Jits_ISO_5,2,5,80,127,3074909624
17,16,Jits_ISO_5,3,5,63,98,3074930084
17,16,Jits_ISO_5,0,1,48,46,3075353356
17,16,Jits_ISO_5,1,5,63,98,3075379684
17,16,Jits_ISO_5,2,5,56,103,3075439924
17,16,Jits_ISO_5,3,5,80,127,3075469732
17,16,Jits_ISO_5,0,1,48,47,3075861264
17,16,Jits_ISO_5,1,5,63,98,3075870276
17,16,Jits_ISO_5,2,5,80,127,3075873564
17,16,Jits_ISO_5,3,5,56,103,3075960460
17,16,Jits_ISO_5,0,1,48,43,3076352220
17,16,Jits_ISO_5,1,5,56,103,3076390528
17,16,Jits_ISO_5,2,5,63,98,3076419904
17,16,Jits_ISO_5,3,5,80,127,3076459824
17,16,Jits_ISO_5,0,1,48,44,3076847448
17,16,Jits_ISO_5,1,5,63,98,3076890112
17,16,Jits_ISO_5,2,5,56,103,3076929756
17,16,Jits_ISO_5,3,5,80,127,3076950492
17,16,Jits_ISO_5,0,1,48,46,3077357520
17,16,Jits_ISO_5,1,5,63,98,3077399888
17,16,Jits_ISO_5,2,5,56,103,3077439752
17,16,Jits_ISO_5,3,5,80,127,3077450024
17,16,Jits_ISO_5,0,1,48,48,3077835460
17,16,Jits_ISO_5,1,5,80,127,3077880592
17,16,Jits_ISO_5,2,5,63,98,3077949888
17,16,Jits_ISO_5,3,5,56,103,3077970420
17,16,Jits_ISO_5,0,1,48,42,3078361356
17,16,Jits_ISO_5,1,5,56,103,3078369696
17,16,Jits_ISO_5,2,5,80,127,3078390228
17,16,Jits_ISO_5,3,5,63,98,3078430164
17,16,Jits_ISO_5,0,1,48,46,3078835356
17,16,Jits_ISO_5,1,5,63,98,3078879468
17,16,Jits_ISO_5,2,5,80,127,3078900372
17,16,Jits_ISO_5,3,5,56,103,3078940144
17,16,Jits_ISO_5,0,1,48,38,3079321984
17,16,Jits_ISO_5,1,5,63,98,3079389536
17,16,Jits_ISO_5,2,5,56,103,3079410148
17,16,Jits_ISO_5,3,5,80,127,3079421228
17,16,Jits_ISO_5,0,1,48,32,3079808904
17,16,Jits_ISO_5,1,5,80,127,3079890240
17,16,Jits_ISO_5,2,5,56,103,3079909716
17,16,Jits_ISO_5,3,5,63,98,3079939388
17,16,Jits_ISO_5,0,1,48,34,3080315000
17,16,Jits_ISO_5,1,5,56,103,3080459560
17,16,Jits_ISO_5,2,5,80,127,3080462624
17,16,Jits_ISO_5,3,5,63,98,3080480316
17,16,Jits_ISO_5,0,1,48,40,3080844992
17,16,Jits_ISO_5,1,5,63,98,3080879416
17,16,Jits_ISO_5,2,5,56,103,3080910088
17,16,Jits_ISO_5,3,5,80,127,3080969636
17,16,Jits_ISO_5,0,1,48,33,3081313708
17,16,Jits_ISO_5,1,5,63,98,3081460216
17,16,Jits_ISO_5,2,5,56,103,3081470264
17,16,Jits_ISO_5,3,5,80,127,3081479412
17,16,Jits_ISO_5,0,1,48,41,3081879088
17,16,Jits_ISO_5,1,5,56,103,3081909676
17,16,Jits_ISO_5,2,5,80,127,3081940424
17,16,Jits_ISO_5,3,5,63,98,3081949500
17,16,Jits_ISO_5,0,1,48,39,3082354456
17,16,Jits_ISO_5,1,5,63,98,3082450324
17,16,Jits_ISO_5,2,5,56,103,3082459620
17,16,Jits_ISO_5,3,5,80,127,3082480004
17,16,Jits_ISO_5,0,5,56,103,3082880308
17,16,Jits_ISO_5,1,1,48,39,3082886196
17,16,Jits_ISO_5,2,5,63,98,3082939868
17,16,Jits_ISO_5,3,5,80,127,3082943304
17,16,Jits_ISO_5,0,5,80,127,3083399676
17,16,Jits_ISO_5,1,5,56,103,3083409944
17,16,Jits_ISO_5,2,1,48,26,3083423624
17,16,Jits_ISO_5,3,5,63,98,3083480388
17,16,Jits_ISO_5,0,5,80,127,3083890280
17,16,Jits_ISO_5,1,1,48,28,3083921648
17,16,Jits_ISO_5,2,5,56,103,3083959580
17,16,Jits_ISO_5,3,5,63,98,3083970224
17,16,Jits_ISO_5,0,5,63,98,3084429664
17,16,Jits_ISO_5,1,5,56,103,3084439860
17,16,Jits_ISO_5,2,1,48,31,3084440828
17,16,Jits_ISO_5,3,5,80,127,3084460460
17,16,Jits_ISO_5,0,5,80,127,3084880328
17,16,Jits_ISO_5,1,5,63,98,3084939596
17,16,Jits_ISO_5,2,1,48,33,3084944056
17,16,Jits_ISO_5,3,5,56,103,3084979600
17,16,Jits_ISO_5,0,5,56,103,3085420152
17,16,Jits_ISO_5,1,5,63,98,3085430200
17,16,Jits_ISO_5,2,1,48,38,3085433692
17,16,Jits_ISO_5,3,5,80,127,3085470204
17,16,Jits_ISO_5,0,5,56,103,3085879600
17,16,Jits_ISO_5,1,5,80,127,3085910472
17,16,Jits_ISO_5,2,1,48,32,3085931724
17,16,Jits_ISO_5,3,5,63,98,3085959544
17,16,Jits_ISO_5,0,1,48,29,3086389180
17,16,Jits_ISO_5,1,5,56,103,3086420444
17,16,Jits_ISO_5,2,5,63,98,3086460380
17,16,Jits_ISO_5,3,5,80,127,3086463596
17,16,Jits_ISO_5,0,1,48,27,3086914296
17,16,Jits_ISO_5,1,5,56,103,3086930288
17,16,Jits_ISO_5,2,5,63,98,3086939440
17,16,Jits_ISO_5,3,5,80,127,3086960120
17,16,Jits_ISO_5,0,5,56,103,3087390244
17,16,Jits_ISO_5,1,5,80,127,3087393088
17,16,Jits_ISO_5,2,1,48,41,3087408356
17,16,Jits_ISO_5,3,5,63,98,3087429948
17,16,Jits_ISO_5,0,1,48,40,3087901036
17,16,Jits_ISO_5,1,5,63,98,3087929904
17,16,Jits_ISO_5,2,5,56,103,3087960404
17,16,Jits_ISO_5,3,5,80,127,3087980036
17,16,Jits_ISO_5,0,1,48,43,3088371700
17,16,Jits_ISO_5,1,5,80,127,3088399900
17,16,Jits_ISO_5,2,5,56,103,3088410096
17,16,Jits_ISO_5,3,5,63,98,3088420216
17,16,Jits_ISO_5,0,5,56,103,3088899412
17,16,Jits_ISO_5,1,1,48,46,3088910924
17,16,Jits_ISO_5,2,5,80,127,3088940392
17,16,Jits_ISO_5,3,5,63,98,3088970064
17,16,Jits_ISO_5,0,1,48,47,3089400924
17,16,Jits_ISO_5,1,5,63,98,3089410388
17,16,Jits_ISO_5,2,5,80,127,3089419612
17,16,Jits_ISO_5,3,5,56,103,3089429956
17,16,Jits_ISO_5,0,5,56,103,3089889896
17,16,Jits_ISO_5,1,1,48,48,3089902080
17,16,Jits_ISO_5,2,5,63,98,3089960392
17,16,Jits_ISO_5,3,5,80,127,3089969392
17,16,Jits_ISO_5,0,5,80,127,3090390320
17,16,Jits_ISO_5,1,5,56,103,3090399544
17,16,Jits_ISO_5,2,1,48,49,3090402364
17,16,Jits_ISO_5,3,5,63,98,3090449956
17,16,Jits_ISO_5,0,5,80,127,3090909696
17,16,Jits_ISO_5,1,1,48,40,3090943080
17,16,Jits_ISO_5,2,5,56,103,3090969928
17,16,Jits_ISO_5,3,5,63,98,3090999752
17,16,Jits_ISO_5,0,5,56,103,3091410268
17,16,Jits_ISO_5,1,5,80,127,3091413332
17,16,Jits_ISO_5,2,1,48,43,3091424324
17,16,Jits_ISO_5,3,5,63,98,3091450196
17,16,Jits_ISO_5,0,1,48,13,3091925472
17,16,Jits_ISO_5,1,5,56,103,3091939816
17,16,Jits_ISO_5,2,5,63,98,3091970388
17,16,Jits_ISO_5,3,5,80,127,3091979760
17,16,Jits_ISO_5,0,1,48,47,3092413508
17,16,Jits_ISO_5,1,5,63,98,3092449892
17,16,Jits_ISO_5,2,5,80,127,3092459940
17,16,Jits_ISO_5,3,5,56,103,3092470212
17,16,Jits_ISO_5,0,1,48,45,3092877592
17,16,Jits_ISO_5,1,5,80,127,3092900308
17,16,Jits_ISO_5,2,5,56,103,3092950384
17,16,Jits_ISO_5,3,5,63,98,3092953300
17,16,Jits_ISO_5,0,1,48,46,3093392064
17,16,Jits_ISO_5,1,5,56,103,3093429552
17,16,Jits_ISO_5,2,5,80,127,3093450036
17,16,Jits_ISO_5,3,5,63,98,3093460308
17,16,Jits_ISO_5,0,5,63,98,3093909880
17,16,Jits_ISO_5,1,1,48,48,3093915168
17,16,Jits_ISO_5,2,5,56,103,3093939848
17,16,Jits_ISO_5,3,5,80,127,3093960080
17,16,Jits_ISO_5,0,1,48,47,3094379364
17,16,Jits_ISO_5,1,5,56,103,3094419772
17,16,Jits_ISO_5,2,5,80,127,3094430192
17,16,Jits_ISO_5,3,5,63,98,3094499728
17,16,Jits_ISO_5,0,1,48,49,3094910000
17,16,Jits_ISO_5,1,5,63,98,3094911784
17,16,Jits_ISO_5,2,5,80,127,3094950156
17,16,Jits_ISO_5,3,5,56,103,3094990188
17,16,Jits_ISO_5,0,1,48,48,3095397872
17,16,Jits_ISO_5,1,5,56,103,3095420288
17,16,Jits_ISO_5,2,5,63,98,3095429512
17,16,Jits_ISO_5,3,5,80,127,3095450044
17,16,Jits_ISO_5,0,1,48,51,3095894740
17,16,Jits_ISO_5,1,5,63,98,3095959880
17,16,Jits_ISO_5,2,5,80,127,3095980560
17,16,Jits_ISO_5,3,5,56,103,3095999732
17,16,Jits_ISO_5,0,5,56,103,3096400216
17,16,Jits_ISO_5,1,1,48,47,3096405944
17,16,Jits_ISO_5,2,5,80,127,3096480148
17,16,Jits_ISO_5,3,5,63,98,3096490492
17,16,Jits_ISO_5,0,1,48,42,3096904568
17,16,Jits_ISO_5,1,5,80,127,3096940040
17,16,Jits_ISO_5,2,5,63,98,3096950012
17,16,Jits_ISO_5,3,5,56,103,3096979908
17,16,Jits_ISO_5,0,5,63,98,3097399920
17,16,Jits_ISO_5,1,1,48,44,3097421472
17,16,Jits_ISO_5,2,5,80,127,3097440000
17,16,Jits_ISO_5,3,5,56,103,3097500016
17,16,Jits_ISO_5,0,5,63,98,3097909548
17,16,Jits_ISO_5,1,1,48,44,3097932664
17,16,Jits_ISO_5,2,5,56,103,3097959740
17,16,Jits_ISO_5,3,5,80,127,3097989416
17,16,Jits_ISO_5,0,1,48,45,3098427292
17,16,Jits_ISO_5,1,5,80,127,3098429952
17,16,Jits_ISO_5,2,5,63,98,3098440144
17,16,Jits_ISO_5,3,5,56,103,3098509824
17,16,Jits_ISO_5,0,1,48,40,3098933700
17,16,Jits_ISO_5,1,5,80,127,3099000112
17,16,Jits_ISO_5,2,5,56,103,3099010528
17,16,Jits_ISO_5,3,5,63,98,3099013740
17,16,Jits_ISO_5,0,5,56,103,3099439616
17,16,Jits_ISO_5,1,5,80,127,3099459852
17,16,Jits_ISO_5,2,1,48,46,3099468756
17,16,Jits_ISO_5,3,5,63,98,3099470636
17,16,Jits_ISO_5,0,5,63,98,3099949632
17,16,Jits_ISO_5,1,1,48,40,3099953796
17,16,Jits_ISO_5,2,5,56,103,3099990312
17,16,Jits_ISO_5,3,5,80,127,3100009796
17,16,Jits_ISO_5,0,1,48,34,3100438556
17,16,Jits_ISO_5,1,5,63,98,3100450112
17,16,Jits_ISO_5,2,5,56,103,3100509600
17,16,Jits_ISO_5,3,5,80,127,3100512592
17,16,Jits_ISO_5,0,5,56,103,3100910064
17,16,Jits_ISO_5,1,5,80,127,3100930448
17,16,Jits_ISO_5,2,1,48,42,3100941512
17,16,Jits_ISO_5,3,5,63,98,3100970528
17,16,Jits_ISO_5,0,1,48,50,3101434720
17,16,Jits_ISO_5,1,5,56,103,3101440444
17,16,Jits_ISO_5,2,5,63,98,3101459856
17,16,Jits_ISO_5,3,5,80,127,3101470052
17,16,Jits_ISO_5,0,5,80,127,3101910520
17,16,Jits_ISO_5,1,1,48,54,3101931468
17,16,Jits_ISO_5,2,5,56,103,3101940188
17,16,Jits_ISO_5,3,5,63,98,3101979976
17,16,Jits_ISO_5,0,1,48,33,3102404432
17,16,Jits_ISO_5,1,5,80,127,3102429592
17,16,Jits_ISO_5,2,5,56,103,3102449904
17,16,Jits_ISO_5,3,5,63,98,3102509676
17,16,Jits_ISO_5,0,1,48,57,3102908900
17,16,Jits_ISO_5,1,5,56,103,3102939440
17,16,Jits_ISO_5,2,5,80,127,3102959972
17,16,Jits_ISO_5,3,5,63,98,3103020420
17,16,Jits_ISO_5,0,1,48,52,3103405924
17,16,Jits_ISO_5,1,5,80,127,3103419896
17,16,Jits_ISO_5,2,5,56,103,3103430164
17,16,Jits_ISO_5,3,5,63,98,3103470052
17,16,Jits_ISO_5,0,1,48,39,3103911432
17,16,Jits_ISO_5,1,5,63,98,3103919624
17,16,Jits_ISO_5,2,5,56,103,3103960408
17,16,Jits_ISO_5,3,5,80,127,3103963700
17,16,Jits_ISO_5,0,1,48,48,3104404404
17,16,Jits_ISO_5,1,5,63,98,3104439800
17,16,Jits_ISO_5,2,5,80,127,3104479688
17,16,Jits_ISO_5,3,5,56,103,3104510468
17,16,Jits_ISO_5,0,1,48,47,3104886456
17,16,Jits_ISO_5,1,5,56,103,3104930024
17,16,Jits_ISO_5,2,5,63,98,3104940292
17,16,Jits_ISO_5,3,5,80,127,3104970216
17,16,Jits_ISO_5,0,1,48,47,3105399752
17,16,Jits_ISO_5,1,5,80,127,3105419632
17,16,Jits_ISO_5,2,5,63,98,3105490456
17,16,Jits_ISO_5,3,5,56,103,3105499592
17,16,Jits_ISO_5,0,1,48,52,3105909528
17,16,Jits_ISO_5,1,5,63,98,3105920492
17,16,Jits_ISO_5,2,5,56,103,3105990020
17,16,Jits_ISO_5,3,5,80,127,3106000316
17,16,Jits_ISO_5,0,5,63,98,3106420380
17,16,Jits_ISO_5,1,1,48,39,3106435112
17,16,Jits_ISO_5,2,5,56,103,3106439564
17,16,Jits_ISO_5,3,5,80,127,3106479428
17,16,Jits_ISO_5,0,1,48,51,3106903520
17,16,Jits_ISO_5,1,5,56,103,3106930296
17,16,Jits_ISO_5,2,5,63,98,3106940344
17,16,Jits_ISO_5,3,5,80,127,3107020512
17,16,Jits_ISO_5,0,1,48,45,3107388580
17,16,Jits_ISO_5,1,5,63,98,3107419392
17,16,Jits_ISO_5,2,5,56,103,3107450264
17,16,Jits_ISO_5,3,5,80,127,3107490184
17,16,Jits_ISO_5,0,1,48,54,3107874584
17,16,Jits_ISO_5,1,5,56,103,3107920396
17,16,Jits_ISO_5,2,5,63,98,3107960408
17,16,Jits_ISO_5,3,5,80,127,3108000328
17,16,Jits_ISO_5,0,1,48,47,3108366456
17,16,Jits_ISO_5,1,5,80,127,3108420056
17,16,Jits_ISO_5,2,5,56,103,3108499760
17,16,Jits_ISO_5,3,5,63,98,3108510176
17,16,Jits_ISO_5,0,1,48,38,3108876828
17,16,Jits_ISO_5,1,5,56,103,3108959648
17,16,Jits_ISO_5,2,5,63,98,3108962488
17,16,Jits_ISO_5,3,5,80,127,3108969840
17,16,Jits_ISO_5,0,1,48,47,3109380752
17,16,Jits_ISO_5,1,5,56,103,3109479660
17,16,Jits_ISO_5,2,5,63,98,3109500416
17,16,Jits_ISO_5,3,5,80,127,3109509492
17,16,Jits_ISO_5,0,1,48,56,3109870680
17,16,Jits_ISO_5,1,5,63,98,3109949744
17,16,Jits_ISO_5,2,5,80,127,3109960164
17,16,Jits_ISO_5,3,5,56,103,3109979484
17,16,Jits_ISO_5,0,1,48,52,3110402400
17,16,Jits_ISO_5,1,5,63,98,3110449404
17,16,Jits_ISO_5,2,5,56,103,3110530448
17,16,Jits_ISO_5,3,5,80,127,3110533368
17,16,Jits_ISO_5,0,1,48,49,3110906164
17,16,Jits_ISO_5,1,5,63,98,3110950324
17,16,Jits_ISO_5,2,5,56,103,3110969664
17,16,Jits_ISO_5,3,5,80,127,3111000440
17,16,Jits_ISO_5,0,1,48,43,3111407172
17,16,Jits_ISO_5,1,5,56,103,3111450208
17,16,Jits_ISO_5,2,5,63,98,3111469324
17,16,Jits_ISO_5,3,5,80,127,3111479520
17,16,Jits_ISO_5,0,1,48,45,3111893572
17,16,Jits_ISO_5,1,5,56,103,3111980436
17,16,Jits_ISO_5,2,5,63,98,3112010240
17,16,Jits_ISO_5,3,5,80,127,3112013604
17,16,Jits_ISO_5,0,1,48,46,3112397644
17,16,Jits_ISO_5,1,5,56,103,3112430196
17,16,Jits_ISO_5,2,5,63,98,3112469908
17,16,Jits_ISO_5,3,5,80,127,3112530204
17,16,Jits_ISO_5,0,1,48,48,3112898720
17,16,Jits_ISO_5,1,5,56,103,3112950232
17,16,Jits_ISO_5,2,5,63,98,3112960356
17,16,Jits_ISO_5,3,5,80,127,3113019752
17,16,Jits_ISO_5,0,1,48,46,3113418108
17,16,Jits_ISO_5,1,5,56,103,3113449968
17,16,Jits_ISO_5,2,5,80,127,3113470352
17,16,Jits_ISO_5,3,5,63,98,3113500100
17,16,Jits_ISO_5,0,1,48,44,3113925072
17,16,Jits_ISO_5,1,5,80,127,3113960040
17,16,Jits_ISO_5,2,5,56,103,3113970308
17,16,Jits_ISO_5,3,5,63,98,3113989424
17,16,Jits_ISO_5,0,1,48,46,3114411844
17,16,Jits_ISO_5,1,5,63,98,3114450404
17,16,Jits_ISO_5,2,5,80,127,3114530336
17,16,Jits_ISO_5,3,5,56,103,3114540384
17,16,Jits_ISO_5,0,1,48,52,3114919008
17,16,Jits_ISO_5,1,5,80,127,3115010528
17,16,Jits_ISO_5,2,5,56,103,3115029996
17,16,Jits_ISO_5,3,5,63,98,3115032912
17,16,Jits_ISO_5,0,1,48,50,3115448632
17,16,Jits_ISO_5,1,5,63,98,3115480364
17,16,Jits_ISO_5,2,5,80,127,3115483724
17,16,Jits_ISO_5,3,5,56,103,3115540432
17,16,Jits_ISO_5,0,5,56,103,3115959620
17,16,Jits_ISO_5,1,1,48,49,3115960588
17,16,Jits_ISO_5,2,5,80,127,3115970036
17,16,Jits_ISO_5,3,5,63,98,3116009996
17,16,Jits_ISO_5,0,1,48,49,3116432960
17,16,Jits_ISO_5,1,5,56,103,3116440108
17,16,Jits_ISO_5,2,5,63,98,3116500224
17,16,Jits_ISO_5,3,5,80,127,3116509672
17,16,Jits_ISO_5,0,1,48,48,3116930596
17,16,Jits_ISO_5,1,5,63,98,3116949948
17,16,Jits_ISO_5,2,5,80,127,3116989812
17,16,Jits_ISO_5,3,5,56,103,3117029832
17,16,Jits_ISO_5,0,1,48,40,3117447420
17,16,Jits_ISO_5,1,5,56,103,3117449536
17,16,Jits_ISO_5,2,5,63,98,3117529500
17,16,Jits_ISO_5,3,5,80,127,3117532940
17,16,Jits_ISO_5,0,9999,9999,9999,9999,3058147424
17,16,Jits_ISO_5,1,9999,9999,9999,9999,3058647136
17,16,Jits_ISO_5,2,9999,9999,9999,9999,3059147848
17,16,Jits_ISO_5,3,9999,9999,9999,9999,3059647572
17,16,Jits_ISO_5,4,9999,9999,9999,9999,3060147312
17,16,Jits_ISO_5,5,9999,9999,9999,9999,3060648024
17,16,Jits_ISO_5,6,9999,9999,9999,9999,3061147760
17,16,Jits_ISO_5,7,9999,9999,9999,9999,3061647436
17,16,Jits_ISO_5,8,9999,9999,9999,9999,3062147184
17,16,Jits_ISO_5,9,9999,9999,9999,9999,3062647908
17,16,Jits_ISO_5,10,9999,9999,9999,9999,3063147576
17,16,Jits_ISO_5,11,9999,9999,9999,9999,3063647328
17,16,Jits_ISO_5,12,9999,9999,9999,9999,3064148032
17,16,Jits_ISO_5,13,9999,9999,9999,9999,3064647760
17,16,Jits_ISO_5,14,9999,9999,9999,9999,3065147496
17,16,Jits_ISO_5,15,9999,9999,9999,9999,3065647172
17,16,Jits_ISO_5,16,9999,9999,9999,9999,3066147952
17,16,Jits_ISO_5,17,9999,9999,9999,9999,3066647612
17,16,Jits_ISO_5,18,9999,9999,9999,9999,3067147360
17,16,Jits_ISO_5,19,9999,9999,9999,9999,3067648084
17,16,Jits_ISO_5,20,9999,9999,9999,9999,3068158008
17,16,Jits_ISO_5,21,9999,9999,9999,9999,3068657716
17,16,Jits_ISO_5,22,9999,9999,9999,9999,3069157452
17,16,Jits_ISO_5,23,9999,9999,9999,9999,3069657188
17,16,Jits_ISO_5,24,9999,9999,9999,9999,3070157896
17,16,Jits_ISO_5,25,9999,9999,9999,9999,3070657612
17,16,Jits_ISO_5,26,9999,9999,9999,9999,3071157344
17,16,Jits_ISO_5,27,9999,9999,9999,9999,3071658040
17,16,Jits_ISO_5,28,9999,9999,9999,9999,3072157792
17,16,Jits_ISO_5,29,9999,9999,9999,9999,3072657528
17,16,Jits_ISO_5,30,9999,9999,9999,9999,3073157200
17,16,Jits_ISO_5,31,9999,9999,9999,9999,3073657908
17,16,Jits_ISO_5,32,9999,9999,9999,9999,3074157640
17,16,Jits_ISO_5,33,9999,9999,9999,9999,3074657372
17,16,Jits_ISO_5,34,9999,9999,9999,9999,3075158080
17,16,Jits_ISO_5,35,9999,9999,9999,9999,3075668080
17,16,Jits_ISO_5,36,9999,9999,9999,9999,3076167804
17,16,Jits_ISO_5,37,9999,9999,9999,9999,3076667464
17,16,Jits_ISO_5,38,9999,9999,9999,9999,3077167200
17,16,Jits_ISO_5,39,9999,9999,9999,9999,3077667908
17,16,Jits_ISO_5,40,9999,9999,9999,9999,3078167644
17,16,Jits_ISO_5,41,9999,9999,9999,9999,3078667376
17,16,Jits_ISO_5,42,9999,9999,9999,9999,3079168084
17,16,Jits_ISO_5,43,9999,9999,9999,9999,3079678004
17,16,Jits_ISO_5,44,9999,9999,9999,9999,3080177736
17,16,Jits_ISO_5,45,9999,9999,9999,9999,3080677468
17,16,Jits_ISO_5,46,9999,9999,9999,9999,3081177200
17,16,Jits_ISO_5,47,9999,9999,9999,9999,3081677912
17,16,Jits_ISO_5,48,9999,9999,9999,9999,3082177620
17,16,Jits_ISO_5,49,9999,9999,9999,9999,3082677356
17,16,Jits_ISO_5,50,9999,9999,9999,9999,3083178052
17,16,Jits_ISO_5,51,9999,9999,9999,9999,3083677800
17,16,Jits_ISO_5,52,9999,9999,9999,9999,3084177472
17,16,Jits_ISO_5,53,9999,9999,9999,9999,3084677224
17,16,Jits_ISO_5,54,9999,9999,9999,9999,3085177932
17,16,Jits_ISO_5,55,9999,9999,9999,9999,3085677680
17,16,Jits_ISO_5,56,9999,9999,9999,9999,3086177400
17,16,Jits_ISO_5,57,9999,9999,9999,9999,3086678116
17,16,Jits_ISO_5,58,9999,9999,9999,9999,3087188040
17,16,Jits_ISO_5,59,9999,9999,9999,9999,3087687760
17,16,Jits_ISO_5,60,9999,9999,9999,9999,3088187512
17,16,Jits_ISO_5,61,9999,9999,9999,9999,3088687168
17,16,Jits_ISO_5,62,9999,9999,9999,9999,3089187948
17,16,Jits_ISO_5,63,9999,9999,9999,9999,3089687616
17,16,Jits_ISO_5,64,9999,9999,9999,9999,3090187352
17,16,Jits_ISO_5,65,9999,9999,9999,9999,3090688068
17,16,Jits_ISO_5,66,9999,9999,9999,9999,3091198008
17,16,Jits_ISO_5,67,9999,9999,9999,9999,3091697744
17,16,Jits_ISO_5,68,9999,9999,9999,9999,3092197500
17,16,Jits_ISO_5,69,9999,9999,9999,9999,3092697160
17,16,Jits_ISO_5,70,9999,9999,9999,9999,3093197932
17,16,Jits_ISO_5,71,9999,9999,9999,9999,3093697644
17,16,Jits_ISO_5,72,9999,9999,9999,9999,3094197344
17,16,Jits_ISO_5,73,9999,9999,9999,9999,3094698052
17,16,Jits_ISO_5,74,9999,9999,9999,9999,3095197788
17,16,Jits_ISO_5,75,9999,9999,9999,9999,3095697520
17,16,Jits_ISO_5,76,9999,9999,9999,9999,3096197184
17,16,Jits_ISO_5,77,9999,9999,9999,9999,3096697968
17,16,Jits_ISO_5,78,9999,9999,9999,9999,3097197644
17,16,Jits_ISO_5,79,9999,9999,9999,9999,3097697376
17,16,Jits_ISO_5,80,9999,9999,9999,9999,3098198084
17,16,Jits_ISO_5,81,9999,9999,9999,9999,3098708084
17,16,Jits_ISO_5,82,9999,9999,9999,9999,3099207740
17,16,Jits_ISO_5,83,9999,9999,9999,9999,3099707476
17,16,Jits_ISO_5,84,9999,9999,9999,9999,3100207156
17,16,Jits_ISO_5,85,9999,9999,9999,9999,3100707932
17,16,Jits_ISO_5,86,9999,9999,9999,9999,3101207664
17,16,Jits_ISO_5,87,9999,9999,9999,9999,3101707340
17,16,Jits_ISO_5,88,9999,9999,9999,9999,3102208120
17,16,Jits_ISO_5,89,9999,9999,9999,9999,3102718060
17,16,Jits_ISO_5,90,9999,9999,9999,9999,3103217720
17,16,Jits_ISO_5,91,9999,9999,9999,9999,3103717452
17,16,Jits_ISO_5,92,9999,9999,9999,9999,3104217176
17,16,Jits_ISO_5,93,9999,9999,9999,9999,3104717884
17,16,Jits_ISO_5,94,9999,9999,9999,9999,3105217588
17,16,Jits_ISO_5,95,9999,9999,9999,9999,3105717320
17,16,Jits_ISO_5,96,9999,9999,9999,9999,3106218100
17,16,Jits_ISO_5,97,9999,9999,9999,9999,3106717760
17,16,Jits_ISO_5,98,9999,9999,9999,9999,3107217492
17,16,Jits_ISO_5,99,9999,9999,9999,9999,3107717224
17,16,Jits_ISO_5,100,9999,9999,9999,9999,3108217932
17,16,Jits_ISO_5,101,9999,9999,9999,9999,3108717668
17,16,Jits_ISO_5,102,9999,9999,9999,9999,3109217392
17,16,Jits_ISO_5,103,9999,9999,9999,9999,3109718100
17,16,Jits_ISO_5,104,9999,9999,9999,9999,3110228020
17,16,Jits_ISO_5,105,9999,9999,9999,9999,3110727748
17,16,Jits_ISO_5,106,9999,9999,9999,9999,3111227480
17,16,Jits_ISO_5,107,9999,9999,9999,9999,3111727216
17,16,Jits_ISO_5,108,9999,9999,9999,9999,3112227920
17,16,Jits_ISO_5,109,9999,9999,9999,9999,3112727656
17,16,Jits_ISO_5,110,9999,9999,9999,9999,3113227316
17,16,Jits_ISO_5,111,9999,9999,9999,9999,3113728096
17,16,Jits_ISO_5,112,9999,9999,9999,9999,3114238016
17,16,Jits_ISO_5,113,9999,9999,9999,9999,3114737756
17,16,Jits_ISO_5,114,9999,9999,9999,9999,3115237484
17,16,Jits_ISO_5,115,9999,9999,9999,9999,3115737136
17,16,Jits_ISO_5,116,9999,9999,9999,9999,3116237920
17,16,Jits_ISO_5,117,9999,9999,9999,9999,3116737644
17,16,Jits_ISO_5,118,9999,9999,9999,9999,3117237296
17,16,Jits_ISO_5,119,9999,9999,9999,9999,3117738072
18,15,Jits_Phase_8,0,5,56,103,3128686964
18,15,Jits_Phase_8,1,5,63,98,3128690140
18,15,Jits_Phase_8,2,5,80,127,3128693112
18,15,Jits_Phase_8,0,1,48,62,3129235584
18,15,Jits_Phase_8,1,5,56,103,3129486664
18,15,Jits_Phase_8,2,5,63,98,3129489832
18,15,Jits_Phase_8,3,5,80,127,3129493104
18,15,Jits_Phase_8,0,5,80,127,3130227028
18,15,Jits_Phase_8,1,5,63,98,3130317040
18,15,Jits_Phase_8,2,5,56,103,3130327608
18,15,Jits_Phase_8,0,5,56,103,3131047516
18,15,Jits_Phase_8,1,5,63,98,3131056444
18,15,Jits_Phase_8,2,1,48,51,3131119444
18,15,Jits_Phase_8,3,5,80,127,3131146592
18,15,Jits_Phase_8,0,1,48,44,3131767472
18,15,Jits_Phase_8,1,5,63,98,3131817468
18,15,Jits_Phase_8,2,5,80,127,3131847096
18,15,Jits_Phase_8,3,5,56,103,3131876608
18,15,Jits_Phase_8,0,1,48,50,3132491696
18,15,Jits_Phase_8,1,5,56,103,3132617532
18,15,Jits_Phase_8,2,5,80,127,3132717408
18,15,Jits_Phase_8,3,5,63,98,3132766712
18,15,Jits_Phase_8,0,5,56,103,3133416796
18,15,Jits_Phase_8,1,1,48,45,3133427484
18,15,Jits_Phase_8,2,5,80,127,3133466844
18,15,Jits_Phase_8,3,5,63,98,3133506856
18,15,Jits_Phase_8,0,1,48,44,3134165884
18,15,Jits_Phase_8,1,5,80,127,3134247420
18,15,Jits_Phase_8,2,5,63,98,3134276864
18,15,Jits_Phase_8,3,5,56,103,3134346540
18,15,Jits_Phase_8,0,1,48,43,3134928556
18,15,Jits_Phase_8,1,5,63,98,3135076764
18,15,Jits_Phase_8,2,5,56,103,3135106440
18,15,Jits_Phase_8,3,5,80,127,3135166756
18,15,Jits_Phase_8,0,1,48,45,3135746384
18,15,Jits_Phase_8,1,5,56,103,3135817204
18,15,Jits_Phase_8,2,5,80,127,3135820348
18,15,Jits_Phase_8,3,5,63,98,3135936840
18,15,Jits_Phase_8,0,1,48,47,3136560360
18,15,Jits_Phase_8,1,5,56,103,3136696808
18,15,Jits_Phase_8,2,5,80,127,3136736548
18,15,Jits_Phase_8,3,5,63,98,3136746820
18,15,Jits_Phase_8,0,1,48,41,3137426816
18,15,Jits_Phase_8,1,5,56,103,3137456432
18,15,Jits_Phase_8,2,5,80,127,3137477040
18,15,Jits_Phase_8,3,5,63,98,3137556820
18,15,Jits_Phase_8,0,1,48,39,3138229768
18,15,Jits_Phase_8,1,5,80,127,3138247276
18,15,Jits_Phase_8,2,5,56,103,3138347288
18,15,Jits_Phase_8,3,5,63,98,3138356732
18,15,Jits_Phase_8,0,5,63,98,3139017004
18,15,Jits_Phase_8,1,1,48,44,3139023188
18,15,Jits_Phase_8,2,5,80,127,3139076344
18,15,Jits_Phase_8,3,5,56,103,3139086612
18,15,Jits_Phase_8,0,1,48,44,3139745232
18,15,Jits_Phase_8,1,5,56,103,3139817052
18,15,Jits_Phase_8,2,5,63,98,3139886420
18,15,Jits_Phase_8,3,5,80,127,3139889784
18,15,Jits_Phase_8,0,1,48,39,3140549264
18,15,Jits_Phase_8,1,5,63,98,3140647200
18,15,Jits_Phase_8,2,5,56,103,3140696576
18,15,Jits_Phase_8,3,5,80,127,3140699640
18,15,Jits_Phase_8,0,1,48,38,3141368196
18,15,Jits_Phase_8,1,5,56,103,3141407176
18,15,Jits_Phase_8,2,5,80,127,3141410316
18,15,Jits_Phase_8,3,5,63,98,3141497140
18,15,Jits_Phase_8,0,1,48,46,3142182988
18,15,Jits_Phase_8,1,5,63,98,3142246856
18,15,Jits_Phase_8,2,5,56,103,3142337124
18,15,Jits_Phase_8,3,5,80,127,3142366528
18,15,Jits_Phase_8,0,1,48,47,3143029964
18,15,Jits_Phase_8,1,5,56,103,3143037328
18,15,Jits_Phase_8,2,5,63,98,3143136764
18,15,Jits_Phase_8,3,5,80,127,3143167412
18,15,Jits_Phase_8,0,5,63,98,3143856584
18,15,Jits_Phase_8,1,5,56,103,3143866856
18,15,Jits_Phase_8,2,1,48,46,3143875824
18,15,Jits_Phase_8,3,5,80,127,3143957004
18,15,Jits_Phase_8,0,1,48,52,3144610604
18,15,Jits_Phase_8,1,5,63,98,3144676816
18,15,Jits_Phase_8,2,5,56,103,3144756524
18,15,Jits_Phase_8,3,5,80,127,3144759664
18,15,Jits_Phase_8,0,5,80,127,3145436648
18,15,Jits_Phase_8,1,5,63,98,3145457032
18,15,Jits_Phase_8,2,1,48,48,3145482020
18,15,Jits_Phase_8,3,5,56,103,3145517636
18,15,Jits_Phase_8,0,5,56,103,3146277328
18,15,Jits_Phase_8,1,1,48,55,3146278220
18,15,Jits_Phase_8,2,5,63,98,3146296880
18,15,Jits_Phase_8,3,5,80,127,3146300096
18,15,Jits_Phase_8,0,5,63,98,3147016552
18,15,Jits_Phase_8,1,1,48,58,3147082072
18,15,Jits_Phase_8,2,5,80,127,3147096416
18,15,Jits_Phase_8,3,5,56,103,3147106908
18,15,Jits_Phase_8,0,5,63,98,3147836836
18,15,Jits_Phase_8,1,1,48,52,3147851044
18,15,Jits_Phase_8,2,5,56,103,3147857288
18,15,Jits_Phase_8,3,5,80,127,3147906516
18,15,Jits_Phase_8,0,1,48,48,3148615360
18,15,Jits_Phase_8,1,5,80,127,3148636808
18,15,Jits_Phase_8,2,5,63,98,3148676452
18,15,Jits_Phase_8,3,5,56,103,3148697060
18,15,Jits_Phase_8,0,1,48,51,3149411364
18,15,Jits_Phase_8,1,5,56,103,3149477324
18,15,Jits_Phase_8,2,5,63,98,3149486548
18,15,Jits_Phase_8,3,5,80,127,3149506916
18,15,Jits_Phase_8,0,5,56,103,3150207336
18,15,Jits_Phase_8,1,1,48,48,3150249712
18,15,Jits_Phase_8,2,5,63,98,3150296372
18,15,Jits_Phase_8,3,5,80,127,3150356892
18,15,Jits_Phase_8,0,1,48,49,3151018692
18,15,Jits_Phase_8,1,5,80,127,3151037000
18,15,Jits_Phase_8,2,5,56,103,3151047072
18,15,Jits_Phase_8,3,5,63,98,3151117048
18,15,Jits_Phase_8,0,5,63,98,3151867136
18,15,Jits_Phase_8,1,1,48,52,3151887644
18,15,Jits_Phase_8,2,5,80,127,3151957412
18,15,Jits_Phase_8,3,5,56,103,3151966784
18,15,Jits_Phase_8,0,5,63,98,3152597300
18,15,Jits_Phase_8,1,5,80,127,3152646604
18,15,Jits_Phase_8,2,5,56,103,3152706844
18,15,Jits_Phase_8,3,1,48,50,3152748172
18,15,Jits_Phase_8,0,1,48,48,3153407812
18,15,Jits_Phase_8,1,5,56,103,3153416756
18,15,Jits_Phase_8,2,5,80,127,3153466660
18,15,Jits_Phase_8,3,5,63,98,3153487120
18,15,Jits_Phase_8,0,5,56,103,3154186628
18,15,Jits_Phase_8,1,1,48,47,3154212516
18,15,Jits_Phase_8,2,5,80,127,3154246940
18,15,Jits_Phase_8,3,5,63,98,3154316676
18,15,Jits_Phase_8,0,5,56,103,3154987520
18,15,Jits_Phase_8,1,5,80,127,3155017196
18,15,Jits_Phase_8,2,1,48,51,3155019716
18,15,Jits_Phase_8,3,5,63,98,3155046792
18,15,Jits_Phase_8,0,1,48,50,3155753380
18,15,Jits_Phase_8,1,5,56,103,3155826992
18,15,Jits_Phase_8,2,5,80,127,3155846776
18,15,Jits_Phase_8,3,5,63,98,3155906928
18,15,Jits_Phase_8,0,1,48,46,3156568656
18,15,Jits_Phase_8,1,5,80,127,3156706700
18,15,Jits_Phase_8,2,5,56,103,3156717120
18,15,Jits_Phase_8,3,5,63,98,3156727096
18,15,Jits_Phase_8,0,1,48,52,3157430536
18,15,Jits_Phase_8,1,5,56,103,3157466624
18,15,Jits_Phase_8,2,5,80,127,3157506640
18,15,Jits_Phase_8,3,5,63,98,3157537196
18,15,Jits_Phase_8,0,5,56,103,3158236504
18,15,Jits_Phase_8,1,1,48,43,3158242464
18,15,Jits_Phase_8,2,5,63,98,3158267220
18,15,Jits_Phase_8,3,5,80,127,3158307084
18,15,Jits_Phase_8,0,5,80,127,3158987052
18,15,Jits_Phase_8,1,1,48,48,3158999760
18,15,Jits_Phase_8,2,5,63,98,3159037396
18,15,Jits_Phase_8,3,5,56,103,3159056736
18,15,Jits_Phase_8,0,1,48,49,3159727576
18,15,Jits_Phase_8,1,5,56,103,3159816560
18,15,Jits_Phase_8,2,5,80,127,3159887348
18,15,Jits_Phase_8,3,5,63,98,3159946688
18,15,Jits_Phase_8,0,1,48,46,3160564584
18,15,Jits_Phase_8,1,5,80,127,3160617440
18,15,Jits_Phase_8,2,5,63,98,3160706368
18,15,Jits_Phase_8,3,5,56,103,3160726900
18,15,Jits_Phase_8,0,1,48,52,3161399424
18,15,Jits_Phase_8,1,5,63,98,3161436540
18,15,Jits_Phase_8,2,5,56,103,3161457072
18,15,Jits_Phase_8,3,5,80,127,3161496920
18,15,Jits_Phase_8,0,1,48,50,3162183440
18,15,Jits_Phase_8,1,5,80,127,3162197336
18,15,Jits_Phase_8,2,5,63,98,3162216676
18,15,Jits_Phase_8,3,5,56,103,3162296604
18,15,Jits_Phase_8,0,1,48,40,3162952780
18,15,Jits_Phase_8,1,5,63,98,3162986828
18,15,Jits_Phase_8,2,5,56,103,3163096376
18,15,Jits_Phase_8,3,5,80,127,3163099368
18,15,Jits_Phase_8,0,5,63,98,3163807188
18,15,Jits_Phase_8,1,1,48,47,3163812400
18,15,Jits_Phase_8,2,5,56,103,3163817220
18,15,Jits_Phase_8,3,5,80,127,3163820220
18,15,Jits_Phase_8,0,1,48,42,3164582688
18,15,Jits_Phase_8,1,5,56,103,3164587520
18,15,Jits_Phase_8,2,5,80,127,3164707256
18,15,Jits_Phase_8,3,5,63,98,3164747340
18,15,Jits_Phase_8,0,5,56,103,3165406568
18,15,Jits_Phase_8,1,1,48,45,3165438756
18,15,Jits_Phase_8,2,5,80,127,3165486508
18,15,Jits_Phase_8,3,5,63,98,3165506816
18,15,Jits_Phase_8,0,5,56,103,3166207240
18,15,Jits_Phase_8,1,1,48,44,3166230960
18,15,Jits_Phase_8,2,5,63,98,3166316920
18,15,Jits_Phase_8,3,5,80,127,3166320284
18,15,Jits_Phase_8,0,1,48,51,3167011320
18,15,Jits_Phase_8,1,5,56,103,3167047236
18,15,Jits_Phase_8,2,5,80,127,3167076688
18,15,Jits_Phase_8,3,5,63,98,3167097296
18,15,Jits_Phase_8,0,5,63,98,3167836588
18,15,Jits_Phase_8,1,1,48,48,3167839488
18,15,Jits_Phase_8,2,5,56,103,3167846708
18,15,Jits_Phase_8,3,5,80,127,3167857200
18,15,Jits_Phase_8,0,5,80,127,3168627276
18,15,Jits_Phase_8,1,1,48,48,3168645168
18,15,Jits_Phase_8,2,5,56,103,3168677252
18,15,Jits_Phase_8,3,5,63,98,3168717140
18,15,Jits_Phase_8,0,1,48,53,3169442448
18,15,Jits_Phase_8,1,5,80,127,3169447424
18,15,Jits_Phase_8,2,5,63,98,3169466616
18,15,Jits_Phase_8,3,5,56,103,3169517060
18,15,Jits_Phase_8,0,1,48,52,3170252416
18,15,Jits_Phase_8,1,5,80,127,3170257472
18,15,Jits_Phase_8,2,5,56,103,3170287000
18,15,Jits_Phase_8,3,5,63,98,3170356588
18,15,Jits_Phase_8,0,1,48,43,3171077888
18,15,Jits_Phase_8,1,5,56,103,3171107208
18,15,Jits_Phase_8,2,5,80,127,3171117480
18,15,Jits_Phase_8,3,5,63,98,3171157344
18,15,Jits_Phase_8,0,5,56,103,3171817000
18,15,Jits_Phase_8,1,5,63,98,3171837236
18,15,Jits_Phase_8,2,5,80,127,3171907064
18,15,Jits_Phase_8,3,1,48,53,3171911156
18,15,Jits_Phase_8,0,1,48,47,3172606544
18,15,Jits_Phase_8,1,5,63,98,3172636988
18,15,Jits_Phase_8,2,5,80,127,3172696332
18,15,Jits_Phase_8,3,5,56,103,3172717148
18,15,Jits_Phase_8,0,1,48,48,3173377008
18,15,Jits_Phase_8,1,5,80,127,3173426484
18,15,Jits_Phase_8,2,5,56,103,3173457280
18,15,Jits_Phase_8,3,5,63,98,3173486868
18,15,Jits_Phase_8,0,1,48,48,3174213388
18,15,Jits_Phase_8,1,5,56,103,3174227208
18,15,Jits_Phase_8,2,5,63,98,3174287000
18,15,Jits_Phase_8,3,5,80,127,3174347100
18,15,Jits_Phase_8,0,1,48,59,3175021168
18,15,Jits_Phase_8,1,5,80,127,3175046676
18,15,Jits_Phase_8,2,5,56,103,3175066984
18,15,Jits_Phase_8,3,5,63,98,3175136600
18,15,Jits_Phase_8,0,5,80,127,3175847412
18,15,Jits_Phase_8,1,5,63,98,3175866976
18,15,Jits_Phase_8,2,5,56,103,3175896376
18,15,Jits_Phase_8,3,1,48,53,3175908564
18,15,Jits_Phase_8,0,5,80,127,3176636920
18,15,Jits_Phase_8,1,5,63,98,3176657256
18,15,Jits_Phase_8,2,1,48,49,3176678280
18,15,Jits_Phase_8,3,5,56,103,3176716740
18,15,Jits_Phase_8,0,5,80,127,3177436868
18,15,Jits_Phase_8,1,1,48,50,3177459244
18,15,Jits_Phase_8,2,5,56,103,3177536884
18,15,Jits_Phase_8,3,5,63,98,3177566548
18,15,Jits_Phase_8,0,5,63,98,3178226908
18,15,Jits_Phase_8,1,5,80,127,3178277260
18,15,Jits_Phase_8,2,5,56,103,3178296820
18,15,Jits_Phase_8,3,1,48,46,3178317324
18,15,Jits_Phase_8,0,5,80,127,3179066892
18,15,Jits_Phase_8,1,1,48,47,3179079452
18,15,Jits_Phase_8,2,5,56,103,3179096560
18,15,Jits_Phase_8,3,5,63,98,3179099776
18,15,Jits_Phase_8,0,1,48,50,3179853804
18,15,Jits_Phase_8,1,5,63,98,3179916852
18,15,Jits_Phase_8,2,5,56,103,3179956776
18,15,Jits_Phase_8,3,5,80,127,3179976960
18,15,Jits_Phase_8,0,1,48,48,3180650424
18,15,Jits_Phase_8,1,5,80,127,3180676456
18,15,Jits_Phase_8,2,5,63,98,3180757312
18,15,Jits_Phase_8,3,5,56,103,3180797172
18,15,Jits_Phase_8,0,5,63,98,3181496828
18,15,Jits_Phase_8,1,1,48,51,3181543792
18,15,Jits_Phase_8,2,5,80,127,3181576792
18,15,Jits_Phase_8,3,5,56,103,3181597028
18,15,Jits_Phase_8,0,1,48,47,3182314724
18,15,Jits_Phase_8,1,5,56,103,3182337664
18,15,Jits_Phase_8,2,5,63,98,3182346740
18,15,Jits_Phase_8,3,5,80,127,3182386752
18,15,Jits_Phase_8,0,5,56,103,3183057420
18,15,Jits_Phase_8,1,5,80,127,3183060488
18,15,Jits_Phase_8,2,1,48,46,3183123464
18,15,Jits_Phase_8,3,5,63,98,3183196540
18,15,Jits_Phase_8,0,5,56,103,3183846772
18,15,Jits_Phase_8,1,5,63,98,3183936908
18,15,Jits_Phase_8,2,1,48,50,3183941368
18,15,Jits_Phase_8,3,5,80,127,3184006728
18,15,Jits_Phase_8,0,5,63,98,3184727536
18,15,Jits_Phase_8,1,5,80,127,3184730748
18,15,Jits_Phase_8,2,1,48,45,3184750656
18,15,Jits_Phase_8,3,5,56,103,3184786868
18,15,Jits_Phase_8,0,1,48,47,3185548236
18,15,Jits_Phase_8,1,5,80,127,3185567068
18,15,Jits_Phase_8,2,5,56,103,3185586704
18,15,Jits_Phase_8,3,5,63,98,3185596900
18,15,Jits_Phase_8,0,5,56,103,3186276636
18,15,Jits_Phase_8,1,5,63,98,3186286836
18,15,Jits_Phase_8,2,5,80,127,3186356660
18,15,Jits_Phase_8,3,1,48,47,3186384888
18,15,Jits_Phase_8,0,5,80,127,3187076484
18,15,Jits_Phase_8,1,1,48,48,3187107476
18,15,Jits_Phase_8,2,5,56,103,3187126532
18,15,Jits_Phase_8,3,5,63,98,3187176832
18,15,Jits_Phase_8,0,1,48,51,3187893524
18,15,Jits_Phase_8,1,5,56,103,3187956968
18,15,Jits_Phase_8,2,5,63,98,3187967612
18,15,Jits_Phase_8,3,5,80,127,3188007460
18,15,Jits_Phase_8,0,5,56,103,3188696504
18,15,Jits_Phase_8,1,1,48,51,3188725104
18,15,Jits_Phase_8,2,5,63,98,3188737336
18,15,Jits_Phase_8,3,5,80,127,3188786492
18,15,Jits_Phase_8,0,5,80,127,3189457396
18,15,Jits_Phase_8,1,1,48,50,3189480068
18,15,Jits_Phase_8,2,5,56,103,3189506320
18,15,Jits_Phase_8,3,5,63,98,3189526928
18,15,Jits_Phase_8,0,5,80,127,3190267204
18,15,Jits_Phase_8,1,1,48,46,3190275500
18,15,Jits_Phase_8,2,5,63,98,3190326620
18,15,Jits_Phase_8,3,5,56,103,3190406472
18,15,Jits_Phase_8,0,5,80,127,3191046452
18,15,Jits_Phase_8,1,5,56,103,3191086320
18,15,Jits_Phase_8,2,1,48,45,3191104804
18,15,Jits_Phase_8,3,5,63,98,3191106844
18,15,Jits_Phase_8,0,1,48,48,3191855480
18,15,Jits_Phase_8,1,5,56,103,3191896560
18,15,Jits_Phase_8,2,5,80,127,3191906680
18,15,Jits_Phase_8,3,5,63,98,3191947724
18,15,Jits_Phase_8,0,1,48,48,3192679280
18,15,Jits_Phase_8,1,5,56,103,3192766820
18,15,Jits_Phase_8,2,5,63,98,3192806692
18,15,Jits_Phase_8,3,5,80,127,3192810280
18,15,Jits_Phase_8,0,5,63,98,3193436524
18,15,Jits_Phase_8,1,5,80,127,3193476316
18,15,Jits_Phase_8,2,1,48,40,3193495248
18,15,Jits_Phase_8,3,5,56,103,3193547284
18,15,Jits_Phase_8,0,5,63,98,3194206544
18,15,Jits_Phase_8,1,1,48,47,3194240972
18,15,Jits_Phase_8,2,5,56,103,3194286408
18,15,Jits_Phase_8,3,5,80,127,3194346804
18,15,Jits_Phase_8,0,1,48,39,3195006720
18,15,Jits_Phase_8,1,5,80,127,3195016484
18,15,Jits_Phase_8,2,5,63,98,3195066616
18,15,Jits_Phase_8,3,5,56,103,3195096388
18,15,Jits_Phase_8,0,1,48,37,3195779800
18,15,Jits_Phase_8,1,5,56,103,3195807248
18,15,Jits_Phase_8,2,5,63,98,3195857400
18,15,Jits_Phase_8,3,5,80,127,3195866476
18,15,Jits_Phase_8,0,1,48,45,3196574448
18,15,Jits_Phase_8,1,5,56,103,3196617064
18,15,Jits_Phase_8,2,5,63,98,3196726588
18,15,Jits_Phase_8,3,5,80,127,3196747420
18,15,Jits_Phase_8,0,1,48,45,3197414020
18,15,Jits_Phase_8,1,5,63,98,3197416752
18,15,Jits_Phase_8,2,5,80,127,3197467328
18,15,Jits_Phase_8,3,5,56,103,3197557068
18,15,Jits_Phase_8,0,5,63,98,3198207296
18,15,Jits_Phase_8,1,1,48,48,3198210120
18,15,Jits_Phase_8,2,5,80,127,3198237040
18,15,Jits_Phase_8,3,5,56,103,3198327232
18,15,Jits_Phase_8,0,5,63,98,3199007204
18,15,Jits_Phase_8,1,5,56,103,3199017324
18,15,Jits_Phase_8,2,1,48,45,3199066228
18,15,Jits_Phase_8,3,5,80,127,3199116588
18,15,Jits_Phase_8,0,1,48,44,3199807076
18,15,Jits_Phase_8,1,5,63,98,3199907256
18,15,Jits_Phase_8,2,5,80,127,3199937328
18,15,Jits_Phase_8,3,5,56,103,3199966708
18,15,Jits_Phase_8,0,1,48,46,3200626620
18,15,Jits_Phase_8,1,5,80,127,3200727280
18,15,Jits_Phase_8,2,5,63,98,3200736576
18,15,Jits_Phase_8,3,5,56,103,3200767224
18,15,Jits_Phase_8,0,5,80,127,3201426944
18,15,Jits_Phase_8,1,5,63,98,3201447256
18,15,Jits_Phase_8,2,1,48,43,3201495756
18,15,Jits_Phase_8,3,5,56,103,3201497548
18,15,Jits_Phase_8,0,5,63,98,3202257232
18,15,Jits_Phase_8,1,1,48,46,3202309048
18,15,Jits_Phase_8,2,5,80,127,3202316716
18,15,Jits_Phase_8,3,5,56,103,3202337100
18,15,Jits_Phase_8,0,5,63,98,3203017056
18,15,Jits_Phase_8,1,1,48,48,3203056364
18,15,Jits_Phase_8,2,5,56,103,3203067324
18,15,Jits_Phase_8,3,5,80,127,3203076400
18,15,Jits_Phase_8,0,1,48,44,3203818948
18,15,Jits_Phase_8,1,5,56,103,3203846472
18,15,Jits_Phase_8,2,5,80,127,3203856968
18,15,Jits_Phase_8,3,5,63,98,3203957048
18,15,Jits_Phase_8,0,5,80,127,3204607344
18,15,Jits_Phase_8,1,5,63,98,3204616492
18,15,Jits_Phase_8,2,1,48,51,3204632116
18,15,Jits_Phase_8,3,5,56,103,3204766984
18,15,Jits_Phase_8,0,5,63,98,3205417304
18,15,Jits_Phase_8,1,5,80,127,3205457244
18,15,Jits_Phase_8,2,1,48,44,3205462532
18,15,Jits_Phase_8,3,5,56,103,3205537180
18,15,Jits_Phase_8,0,5,56,103,3206166864
18,15,Jits_Phase_8,1,1,48,43,3206235244
18,15,Jits_Phase_8,2,5,80,127,3206267180
18,15,Jits_Phase_8,3,5,63,98,3206286888
18,15,Jits_Phase_8,0,5,80,127,3206987244
18,15,Jits_Phase_8,1,5,56,103,3206997364
18,15,Jits_Phase_8,2,1,48,49,3207009480
18,15,Jits_Phase_8,3,5,63,98,3207086592
18,15,Jits_Phase_8,0,5,56,103,3207786944
18,15,Jits_Phase_8,1,5,63,98,3207807328
18,15,Jits_Phase_8,2,1,48,50,3207824768
18,15,Jits_Phase_8,3,5,80,127,3207887216
18,15,Jits_Phase_8,0,5,63,98,3208536300
18,15,Jits_Phase_8,1,1,48,48,3208599500
18,15,Jits_Phase_8,2,5,56,103,3208626724
18,15,Jits_Phase_8,3,5,80,127,3208629792
18,15,Jits_Phase_8,0,1,48,43,3209269408
18,15,Jits_Phase_8,1,5,56,103,3209366820
18,15,Jits_Phase_8,2,5,80,127,3209427532
18,15,Jits_Phase_8,3,5,63,98,3209436680
18,15,Jits_Phase_8,0,1,48,47,3210046768
18,15,Jits_Phase_8,1,5,80,127,3210216872
18,15,Jits_Phase_8,2,5,56,103,3210226992
18,15,Jits_Phase_8,3,5,63,98,3210230132
18,15,Jits_Phase_8,0,1,48,51,3210891908
18,15,Jits_Phase_8,1,5,56,103,3210976852
18,15,Jits_Phase_8,2,5,80,127,3210986900
18,15,Jits_Phase_8,3,5,63,98,3211007196
18,15,Jits_Phase_8,0,1,48,49,3211704492
18,15,Jits_Phase_8,1,5,63,98,3211746644
18,15,Jits_Phase_8,2,5,80,127,3211806944
18,15,Jits_Phase_8,3,5,56,103,3211857144
18,15,Jits_Phase_8,0,1,48,48,3212525996
18,15,Jits_Phase_8,1,5,63,98,3212627744
18,15,Jits_Phase_8,2,5,56,103,3212636524
18,15,Jits_Phase_8,3,5,80,127,3212686648
18,15,Jits_Phase_8,0,1,48,46,3213321780
18,15,Jits_Phase_8,1,5,63,98,3213326684
18,15,Jits_Phase_8,2,5,80,127,3213347144
18,15,Jits_Phase_8,3,5,56,103,3213357564
18,15,Jits_Phase_8,0,1,48,40,3214045492
18,15,Jits_Phase_8,1,5,63,98,3214126652
18,15,Jits_Phase_8,2,5,80,127,3214129868
18,15,Jits_Phase_8,3,5,56,103,3214167548
18,15,Jits_Phase_8,0,1,48,46,3214877972
18,15,Jits_Phase_8,1,5,63,98,3214996884
18,15,Jits_Phase_8,2,5,80,127,3215026708
18,15,Jits_Phase_8,3,5,56,103,3215036756
18,15,Jits_Phase_8,0,5,56,103,3215746616
18,15,Jits_Phase_8,1,1,48,48,3215761424
18,15,Jits_Phase_8,2,5,80,127,3215777184
18,15,Jits_Phase_8,3,5,63,98,3215806784
18,15,Jits_Phase_8,0,1,48,43,3216588260
18,15,Jits_Phase_8,1,5,63,98,3216646576
18,15,Jits_Phase_8,2,5,56,103,3216686572
18,15,Jits_Phase_8,3,5,80,127,3216689640
18,15,Jits_Phase_8,0,5,80,127,3217346920
18,15,Jits_Phase_8,1,5,56,103,3217426716
18,15,Jits_Phase_8,2,1,48,49,3217448192
18,15,Jits_Phase_8,3,5,63,98,3217476836
18,15,Jits_Phase_8,0,5,80,127,3218127360
18,15,Jits_Phase_8,1,5,56,103,3218146552
18,15,Jits_Phase_8,2,5,63,98,3218236756
18,15,Jits_Phase_8,3,1,48,45,3218283092
18,15,Jits_Phase_8,0,5,80,127,3218966764
18,15,Jits_Phase_8,1,5,63,98,3219006704
18,15,Jits_Phase_8,2,1,48,40,3219015668
18,15,Jits_Phase_8,3,5,56,103,3219046708
18,15,Jits_Phase_8,0,5,63,98,3219776804
18,15,Jits_Phase_8,1,1,48,50,3219808324
18,15,Jits_Phase_8,2,5,80,127,3219837336
18,15,Jits_Phase_8,3,5,56,103,3219867084
18,15,Jits_Phase_8,0,5,56,103,3220616560
18,15,Jits_Phase_8,1,5,80,127,3220647284
18,15,Jits_Phase_8,2,1,48,48,3220661788
18,15,Jits_Phase_8,3,5,63,98,3220737284
18,15,Jits_Phase_8,0,5,56,103,3221426524
18,15,Jits_Phase_8,1,1,48,50,3221457092
18,15,Jits_Phase_8,2,5,80,127,3221537424
18,15,Jits_Phase_8,3,5,63,98,3221566860
18,15,Jits_Phase_8,0,5,56,103,3222276600
18,15,Jits_Phase_8,1,1,48,47,3222283904
18,15,Jits_Phase_8,2,5,63,98,3222336836
18,15,Jits_Phase_8,3,5,80,127,3222366508
18,15,Jits_Phase_8,0,5,56,103,3223046560
18,15,Jits_Phase_8,1,1,48,38,3223057172
18,15,Jits_Phase_8,2,5,63,98,3223117356
18,15,Jits_Phase_8,3,5,80,127,3223136768
18,15,Jits_Phase_8,0,5,80,127,3223816584
18,15,Jits_Phase_8,1,5,63,98,3223837044
18,15,Jits_Phase_8,2,1,48,38,3223864200
18,15,Jits_Phase_8,3,5,56,103,3223887160
18,15,Jits_Phase_8,0,1,48,34,3224589644
18,15,Jits_Phase_8,1,5,63,98,3224636724
18,15,Jits_Phase_8,2,5,80,127,3224647292
18,15,Jits_Phase_8,3,5,56,103,3224697180
18,15,Jits_Phase_8,0,1,48,37,3225374180
18,15,Jits_Phase_8,1,5,63,98,3225436476
18,15,Jits_Phase_8,2,5,80,127,3225507192
18,15,Jits_Phase_8,3,5,56,103,3225526604
18,15,Jits_Phase_8,0,1,48,37,3226212152
18,15,Jits_Phase_8,1,5,63,98,3226267176
18,15,Jits_Phase_8,2,5,80,127,3226270468
18,15,Jits_Phase_8,3,5,56,103,3226336568
18,15,Jits_Phase_8,0,5,80,127,3227016516
18,15,Jits_Phase_8,1,5,56,103,3227037048
18,15,Jits_Phase_8,2,5,63,98,3227047244
18,15,Jits_Phase_8,3,1,48,38,3227062268
18,15,Jits_Phase_8,0,1,48,36,3227767248
18,15,Jits_Phase_8,1,5,56,103,3227836800
18,15,Jits_Phase_8,2,5,63,98,3227926916
18,15,Jits_Phase_8,3,5,80,127,3227930208
18,15,Jits_Phase_8,0,1,48,38,3228526068
18,15,Jits_Phase_8,1,5,80,127,3228607176
18,15,Jits_Phase_8,2,5,56,103,3228618108
18,15,Jits_Phase_8,3,5,63,98,3228636472
18,15,Jits_Phase_8,0,1,48,42,3229319220
18,15,Jits_Phase_8,1,5,63,98,3229406628
18,15,Jits_Phase_8,2,5,80,127,3229467152
18,15,Jits_Phase_8,3,5,56,103,3229477348
18,15,Jits_Phase_8,0,1,48,39,3230081052
18,15,Jits_Phase_8,1,5,63,98,3230277160
18,15,Jits_Phase_8,2,5,80,127,3230306612
18,15,Jits_Phase_8,3,5,56,103,3230346700
18,15,Jits_Phase_8,0,1,48,42,3230893616
18,15,Jits_Phase_8,1,5,56,103,3231066432
18,15,Jits_Phase_8,2,5,80,127,3231076704
18,15,Jits_Phase_8,3,5,63,98,3231116788
18,15,Jits_Phase_8,0,1,48,44,3231728024
18,15,Jits_Phase_8,1,5,80,127,3231827232
18,15,Jits_Phase_8,2,5,56,103,3231907324
18,15,Jits_Phase_8,3,5,63,98,3231917372
18,15,Jits_Phase_8,0,1,48,44,3232588996
18,15,Jits_Phase_8,1,5,80,127,3232677204
18,15,Jits_Phase_8,2,5,56,103,3232757084
18,15,Jits_Phase_8,3,5,63,98,3232767204
18,15,Jits_Phase_8,0,1,48,50,3233424108
18,15,Jits_Phase_8,1,5,80,127,3233517000
18,15,Jits_Phase_8,2,5,56,103,3233567112
18,15,Jits_Phase_8,3,5,63,98,3233617240
18,15,Jits_Phase_8,0,1,48,47,3234310872
18,15,Jits_Phase_8,1,5,56,103,3234456988
18,15,Jits_Phase_8,2,5,63,98,3234460132
18,15,Jits_Phase_8,3,5,80,127,3234507140
18,15,Jits_Phase_8,0,1,48,45,3235223908
18,15,Jits_Phase_8,1,5,56,103,3235277164
18,15,Jits_Phase_8,2,5,63,98,3235306840
18,15,Jits_Phase_8,3,5,80,127,3235317036
18,15,Jits_Phase_8,0,5,63,98,3235987004
18,15,Jits_Phase_8,1,1,48,50,3236047096
18,15,Jits_Phase_8,2,5,56,103,3236056560
18,15,Jits_Phase_8,3,5,80,127,3236106684
18,15,Jits_Phase_8,0,1,48,51,3236815236
18,15,Jits_Phase_8,1,5,63,98,3236817204
18,15,Jits_Phase_8,2,5,56,103,3236826348
18,15,Jits_Phase_8,3,5,80,127,3236829568
18,15,Jits_Phase_8,0,5,80,127,3237567056
18,15,Jits_Phase_8,1,1,48,47,3237585244
18,15,Jits_Phase_8,2,5,56,103,3237627144
18,15,Jits_Phase_8,3,5,63,98,3237717332
18,15,Jits_Phase_8,0,5,80,127,3238366680
18,15,Jits_Phase_8,1,1,48,50,3238453028
18,15,Jits_Phase_8,2,5,56,103,3238466924
18,15,Jits_Phase_8,3,5,63,98,3238506860
18,15,Jits_Phase_8,0,5,56,103,3239216504
18,15,Jits_Phase_8,1,5,63,98,3239236964
18,15,Jits_Phase_8,2,5,80,127,3239276976
18,15,Jits_Phase_8,3,1,48,43,3239285420
18,15,Jits_Phase_8,0,5,63,98,3239986680
18,15,Jits_Phase_8,1,5,56,103,3240006992
18,15,Jits_Phase_8,2,1,48,44,3240011908
18,15,Jits_Phase_8,3,5,80,127,3240107512
18,15,Jits_Phase_8,0,1,48,47,3240770892
18,15,Jits_Phase_8,1,5,63,98,3240776992
18,15,Jits_Phase_8,2,5,80,127,3240886740
18,15,Jits_Phase_8,3,5,56,103,3240917488
18,15,Jits_Phase_8,0,5,56,103,3241597284
18,15,Jits_Phase_8,1,5,63,98,3241626960
18,15,Jits_Phase_8,2,1,48,51,3241655484
18,15,Jits_Phase_8,3,5,80,127,3241677032
18,15,Jits_Phase_8,0,5,63,98,3242367612
18,15,Jits_Phase_8,1,1,48,49,3242390736
18,15,Jits_Phase_8,2,5,56,103,3242396908
18,15,Jits_Phase_8,3,5,80,127,3242447208
18,15,Jits_Phase_8,0,1,48,51,3243159168
18,15,Jits_Phase_8,1,5,56,103,3243196656
18,15,Jits_Phase_8,2,5,63,98,3243217364
18,15,Jits_Phase_8,3,5,80,127,3243297144
18,15,Jits_Phase_8,0,1,48,51,3243963936
18,15,Jits_Phase_8,1,5,63,98,3243966920
18,15,Jits_Phase_8,2,5,56,103,3244027460
18,15,Jits_Phase_8,3,5,80,127,3244056912
18,15,Jits_Phase_8,0,1,48,51,3244793836
18,15,Jits_Phase_8,1,5,56,103,3244806688
18,15,Jits_Phase_8,2,5,80,127,3244866856
18,15,Jits_Phase_8,3,5,63,98,3244906856
18,15,Jits_Phase_8,0,5,63,98,3245586752
18,15,Jits_Phase_8,1,1,48,46,3245615280
18,15,Jits_Phase_8,2,5,56,103,3245647288
18,15,Jits_Phase_8,3,5,80,127,3245716804
18,15,Jits_Phase_8,0,1,48,41,3246398316
18,15,Jits_Phase_8,1,5,56,103,3246466524
18,15,Jits_Phase_8,2,5,63,98,3246476644
18,15,Jits_Phase_8,3,5,80,127,3246480156
18,15,Jits_Phase_8,0,5,63,98,3247206872
18,15,Jits_Phase_8,1,1,48,44,3247235840
18,15,Jits_Phase_8,2,5,56,103,3247267328
18,15,Jits_Phase_8,3,5,80,127,3247270396
18,15,Jits_Phase_8,0,5,63,98,3247986992
18,15,Jits_Phase_8,1,1,48,38,3248014148
18,15,Jits_Phase_8,2,5,80,127,3248016808
18,15,Jits_Phase_8,3,5,56,103,3248037492
18,15,Jits_Phase_8,0,5,56,103,3248717440
18,15,Jits_Phase_8,1,5,63,98,3248767424
18,15,Jits_Phase_8,2,1,48,38,3248796168
18,15,Jits_Phase_8,3,5,80,127,3248847308
18,15,Jits_Phase_8,0,5,80,127,3249416612
18,15,Jits_Phase_8,1,5,63,98,3249456476
18,15,Jits_Phase_8,2,5,56,103,3249476860
18,15,Jits_Phase_8,3,1,48,43,3249544164
18,15,Jits_Phase_8,0,1,48,39,3250287476
18,15,Jits_Phase_8,1,5,56,103,3250288820
18,15,Jits_Phase_8,2,5,80,127,3250297368
18,15,Jits_Phase_8,3,5,63,98,3250316704
18,15,Jits_Phase_8,0,1,48,39,3251041356
18,15,Jits_Phase_8,1,5,56,103,3251067304
18,15,Jits_Phase_8,2,5,63,98,3251117512
18,15,Jits_Phase_8,3,5,80,127,3251147344
18,15,Jits_Phase_8,0,1,48,40,3251786280
18,15,Jits_Phase_8,1,5,56,103,3251816800
18,15,Jits_Phase_8,2,5,63,98,3251827292
18,15,Jits_Phase_8,3,5,80,127,3251877492
18,15,Jits_Phase_8,0,1,48,38,3252551036
18,15,Jits_Phase_8,1,5,56,103,3252607404
18,15,Jits_Phase_8,2,5,80,127,3252610548
18,15,Jits_Phase_8,3,5,63,98,3252767292
18,15,Jits_Phase_8,0,1,48,45,3253390268
18,15,Jits_Phase_8,1,5,63,98,3253426488
18,15,Jits_Phase_8,2,5,56,103,3253497228
18,15,Jits_Phase_8,3,5,80,127,3253537240
18,15,Jits_Phase_8,0,1,48,43,3254172720
18,15,Jits_Phase_8,1,5,63,98,3254267236
18,15,Jits_Phase_8,2,5,56,103,3254357368
18,15,Jits_Phase_8,3,5,80,127,3254360288
18,15,Jits_Phase_8,0,1,48,46,3254935248
18,15,Jits_Phase_8,1,5,56,103,3255046612
18,15,Jits_Phase_8,2,5,63,98,3255136672
18,15,Jits_Phase_8,3,5,80,127,3255146868
18,15,Jits_Phase_8,0,1,48,52,3255723308
18,15,Jits_Phase_8,1,5,56,103,3255817756
18,15,Jits_Phase_8,2,5,63,98,3255866836
18,15,Jits_Phase_8,3,5,80,127,3255896508
18,15,Jits_Phase_8,0,1,48,56,3256481040
18,15,Jits_Phase_8,1,5,63,98,3256697156
18,15,Jits_Phase_8,2,5,80,127,3256706376
18,15,Jits_Phase_8,3,5,56,103,3256767016
18,15,Jits_Phase_8,0,1,48,50,3257276088
18,15,Jits_Phase_8,1,5,63,98,3257417052
18,15,Jits_Phase_8,2,5,80,127,3257476396
18,15,Jits_Phase_8,3,5,56,103,3257517380
18,15,Jits_Phase_8,0,1,48,46,3258067404
18,15,Jits_Phase_8,1,5,56,103,3258317156
18,15,Jits_Phase_8,2,5,80,127,3258336644
18,15,Jits_Phase_8,3,5,63,98,3258357100
18,15,Jits_Phase_8,0,1,48,48,3258868592
18,15,Jits_Phase_8,1,5,63,98,3259037252
18,15,Jits_Phase_8,2,5,56,103,3259056444
18,15,Jits_Phase_8,3,5,80,127,3259096404
18,15,Jits_Phase_8,0,1,48,45,3259732324
18,15,Jits_Phase_8,1,5,63,98,3259847004
18,15,Jits_Phase_8,2,5,80,127,3259876828
18,15,Jits_Phase_8,3,5,56,103,3259897060
18,15,Jits_Phase_8,0,1,48,46,3260528796
18,15,Jits_Phase_8,1,5,80,127,3260617104
18,15,Jits_Phase_8,2,5,56,103,3260667216
18,15,Jits_Phase_8,3,5,63,98,3260726928
18,15,Jits_Phase_8,0,1,48,49,3261331916
18,15,Jits_Phase_8,1,5,63,98,3261406524
18,15,Jits_Phase_8,2,5,56,103,3261527356
18,15,Jits_Phase_8,3,5,80,127,3261557032
18,15,Jits_Phase_8,0,1,48,46,3262108008
18,15,Jits_Phase_8,1,5,80,127,3262247324
18,15,Jits_Phase_8,2,5,63,98,3262266884
18,15,Jits_Phase_8,3,5,56,103,3262337388
18,15,Jits_Phase_8,0,1,48,46,3262948700
18,15,Jits_Phase_8,1,5,63,98,3263066488
18,15,Jits_Phase_8,2,5,56,103,3263076836
18,15,Jits_Phase_8,3,5,80,127,3263156704
18,15,Jits_Phase_8,0,1,48,49,3263738348
18,15,Jits_Phase_8,1,5,56,103,3263926788
18,15,Jits_Phase_8,2,5,80,127,3263957312
18,15,Jits_Phase_8,3,5,63,98,3263966612
18,15,Jits_Phase_8,0,9999,9999,9999,9999,3129085000
18,15,Jits_Phase_8,1,9999,9999,9999,9999,3129884772
18,15,Jits_Phase_8,2,9999,9999,9999,9999,3130684476
18,15,Jits_Phase_8,3,9999,9999,9999,9999,3131484272
18,15,Jits_Phase_8,4,9999,9999,9999,9999,3132285016
18,15,Jits_Phase_8,5,9999,9999,9999,9999,3133084776
18,15,Jits_Phase_8,6,9999,9999,9999,9999,3133884536
18,15,Jits_Phase_8,7,9999,9999,9999,9999,3134684256
18,15,Jits_Phase_8,8,9999,9999,9999,9999,3135484996
18,15,Jits_Phase_8,9,9999,9999,9999,9999,3136284744
18,15,Jits_Phase_8,10,9999,9999,9999,9999,3137084512
18,15,Jits_Phase_8,11,9999,9999,9999,9999,3137884252
18,15,Jits_Phase_8,12,9999,9999,9999,9999,3138684988
18,15,Jits_Phase_8,13,9999,9999,9999,9999,3139484744
18,15,Jits_Phase_8,14,9999,9999,9999,9999,3140284492
18,15,Jits_Phase_8,15,9999,9999,9999,9999,3141084260
18,15,Jits_Phase_8,16,9999,9999,9999,9999,3141885052
18,15,Jits_Phase_8,17,9999,9999,9999,9999,3142684740
18,15,Jits_Phase_8,18,9999,9999,9999,9999,3143484508
18,15,Jits_Phase_8,19,9999,9999,9999,9999,3144284272
18,15,Jits_Phase_8,20,9999,9999,9999,9999,3145085000
18,15,Jits_Phase_8,21,9999,9999,9999,9999,3145884756
18,15,Jits_Phase_8,22,9999,9999,9999,9999,3146684528
18,15,Jits_Phase_8,23,9999,9999,9999,9999,3147484240
18,15,Jits_Phase_8,24,9999,9999,9999,9999,3148285048
18,15,Jits_Phase_8,25,9999,9999,9999,9999,3149084728
18,15,Jits_Phase_8,26,9999,9999,9999,9999,3149884488
18,15,Jits_Phase_8,27,9999,9999,9999,9999,3150684248
18,15,Jits_Phase_8,28,9999,9999,9999,9999,3151484996
18,15,Jits_Phase_8,29,9999,9999,9999,9999,3152284764
18,15,Jits_Phase_8,30,9999,9999,9999,9999,3153065040
18,15,Jits_Phase_8,31,9999,9999,9999,9999,3153864824
18,15,Jits_Phase_8,32,9999,9999,9999,9999,3154664508
18,15,Jits_Phase_8,33,9999,9999,9999,9999,3155464276
18,15,Jits_Phase_8,34,9999,9999,9999,9999,3156265020
18,15,Jits_Phase_8,35,9999,9999,9999,9999,3157064788
18,15,Jits_Phase_8,36,9999,9999,9999,9999,3157864552
18,15,Jits_Phase_8,37,9999,9999,9999,9999,3158664312
18,15,Jits_Phase_8,38,9999,9999,9999,9999,3159465052
18,15,Jits_Phase_8,39,9999,9999,9999,9999,3160264780
18,15,Jits_Phase_8,40,9999,9999,9999,9999,3161064544
18,15,Jits_Phase_8,41,9999,9999,9999,9999,3161864304
18,15,Jits_Phase_8,42,9999,9999,9999,9999,3162665032
18,15,Jits_Phase_8,43,9999,9999,9999,9999,3163464780
18,15,Jits_Phase_8,44,9999,9999,9999,9999,3164264524
18,15,Jits_Phase_8,45,9999,9999,9999,9999,3165064288
18,15,Jits_Phase_8,46,9999,9999,9999,9999,3165865020
18,15,Jits_Phase_8,47,9999,9999,9999,9999,3166664812
18,15,Jits_Phase_8,48,9999,9999,9999,9999,3167485040
18,15,Jits_Phase_8,49,9999,9999,9999,9999,3168284796
18,15,Jits_Phase_8,50,9999,9999,9999,9999,3169084484
18,15,Jits_Phase_8,51,9999,9999,9999,9999,3169884256
18,15,Jits_Phase_8,52,9999,9999,9999,9999,3170684992
18,15,Jits_Phase_8,53,9999,9999,9999,9999,3171484760
18,15,Jits_Phase_8,54,9999,9999,9999,9999,3172284516
18,15,Jits_Phase_8,55,9999,9999,9999,9999,3173084236
18,15,Jits_Phase_8,56,9999,9999,9999,9999,3173885036
18,15,Jits_Phase_8,57,9999,9999,9999,9999,3174684792
18,15,Jits_Phase_8,58,9999,9999,9999,9999,3175484480
18,15,Jits_Phase_8,59,9999,9999,9999,9999,3176284240
18,15,Jits_Phase_8,60,9999,9999,9999,9999,3177085056
18,15,Jits_Phase_8,61,9999,9999,9999,9999,3177884760
18,15,Jits_Phase_8,62,9999,9999,9999,9999,3178684532
18,15,Jits_Phase_8,63,9999,9999,9999,9999,3179484232
18,15,Jits_Phase_8,64,9999,9999,9999,9999,3180324992
18,15,Jits_Phase_8,65,9999,9999,9999,9999,3181124680
18,15,Jits_Phase_8,66,9999,9999,9999,9999,3181924444
18,15,Jits_Phase_8,67,9999,9999,9999,9999,3182724208
18,15,Jits_Phase_8,68,9999,9999,9999,9999,3183524928
18,15,Jits_Phase_8,69,9999,9999,9999,9999,3184324728
18,15,Jits_Phase_8,70,9999,9999,9999,9999,3185124420
18,15,Jits_Phase_8,71,9999,9999,9999,9999,3185924192
18,15,Jits_Phase_8,72,9999,9999,9999,9999,3186724920
18,15,Jits_Phase_8,73,9999,9999,9999,9999,3187524696
18,15,Jits_Phase_8,74,9999,9999,9999,9999,3188324408
18,15,Jits_Phase_8,75,9999,9999,9999,9999,3189124168
18,15,Jits_Phase_8,76,9999,9999,9999,9999,3189924984
18,15,Jits_Phase_8,77,9999,9999,9999,9999,3190724708
18,15,Jits_Phase_8,78,9999,9999,9999,9999,3191524476
18,15,Jits_Phase_8,79,9999,9999,9999,9999,3192324176
18,15,Jits_Phase_8,80,9999,9999,9999,9999,3193124984
18,15,Jits_Phase_8,81,9999,9999,9999,9999,3193884736
18,15,Jits_Phase_8,82,9999,9999,9999,9999,3194684496
18,15,Jits_Phase_8,83,9999,9999,9999,9999,3195484256
18,15,Jits_Phase_8,84,9999,9999,9999,9999,3196284980
18,15,Jits_Phase_8,85,9999,9999,9999,9999,3197084744
18,15,Jits_Phase_8,86,9999,9999,9999,9999,3197884500
18,15,Jits_Phase_8,87,9999,9999,9999,9999,3198684276
18,15,Jits_Phase_8,88,9999,9999,9999,9999,3199485004
18,15,Jits_Phase_8,89,9999,9999,9999,9999,3200284772
18,15,Jits_Phase_8,90,9999,9999,9999,9999,3201084540
18,15,Jits_Phase_8,91,9999,9999,9999,9999,3201884220
18,15,Jits_Phase_8,92,9999,9999,9999,9999,3202685040
18,15,Jits_Phase_8,93,9999,9999,9999,9999,3203484792
18,15,Jits_Phase_8,94,9999,9999,9999,9999,3204284476
18,15,Jits_Phase_8,95,9999,9999,9999,9999,3205084252
18,15,Jits_Phase_8,96,9999,9999,9999,9999,3205884996
18,15,Jits_Phase_8,97,9999,9999,9999,9999,3206604892
18,15,Jits_Phase_8,98,9999,9999,9999,9999,3207404668
18,15,Jits_Phase_8,99,9999,9999,9999,9999,3208204368
18,15,Jits_Phase_8,100,9999,9999,9999,9999,3209004132
18,15,Jits_Phase_8,101,9999,9999,9999,9999,3209804864
18,15,Jits_Phase_8,102,9999,9999,9999,9999,3210604612
18,15,Jits_Phase_8,103,9999,9999,9999,9999,3211404368
18,15,Jits_Phase_8,104,9999,9999,9999,9999,3212204128
18,15,Jits_Phase_8,105,9999,9999,9999,9999,3213004888
18,15,Jits_Phase_8,106,9999,9999,9999,9999,3213804640
18,15,Jits_Phase_8,107,9999,9999,9999,9999,3214604376
18,15,Jits_Phase_8,108,9999,9999,9999,9999,3215404140
18,15,Jits_Phase_8,109,9999,9999,9999,9999,3216204864
18,15,Jits_Phase_8,110,9999,9999,9999,9999,3217004640
18,15,Jits_Phase_8,111,9999,9999,9999,9999,3217804400
18,15,Jits_Phase_8,112,9999,9999,9999,9999,3218604092
18,15,Jits_Phase_8,113,9999,9999,9999,9999,3219404864
18,15,Jits_Phase_8,114,9999,9999,9999,9999,3220284496
18,15,Jits_Phase_8,115,9999,9999,9999,9999,3221084252
18,15,Jits_Phase_8,116,9999,9999,9999,9999,3221885000
18,15,Jits_Phase_8,117,9999,9999,9999,9999,3222684784
18,15,Jits_Phase_8,118,9999,9999,9999,9999,3223484484
18,15,Jits_Phase_8,119,9999,9999,9999,9999,3224284268
18,15,Jits_Phase_8,120,9999,9999,9999,9999,3225085012
18,15,Jits_Phase_8,121,9999,9999,9999,9999,3225884772
18,15,Jits_Phase_8,122,9999,9999,9999,9999,3226684520
18,15,Jits_Phase_8,123,9999,9999,9999,9999,3227484276
18,15,Jits_Phase_8,124,9999,9999,9999,9999,3228284988
18,15,Jits_Phase_8,125,9999,9999,9999,9999,3229084732
18,15,Jits_Phase_8,126,9999,9999,9999,9999,3229884488
18,15,Jits_Phase_8,127,9999,9999,9999,9999,3230684268
18,15,Jits_Phase_8,128,9999,9999,9999,9999,3231484996
18,15,Jits_Phase_8,129,9999,9999,9999,9999,3232284756
18,15,Jits_Phase_8,130,9999,9999,9999,9999,3233084520
18,15,Jits_Phase_8,131,9999,9999,9999,9999,3234045000
18,15,Jits_Phase_8,132,9999,9999,9999,9999,3234844760
18,15,Jits_Phase_8,133,9999,9999,9999,9999,3235644524
18,15,Jits_Phase_8,134,9999,9999,9999,9999,3236444288
18,15,Jits_Phase_8,135,9999,9999,9999,9999,3237245004
18,15,Jits_Phase_8,136,9999,9999,9999,9999,3238044764
18,15,Jits_Phase_8,137,9999,9999,9999,9999,3238844540
18,15,Jits_Phase_8,138,9999,9999,9999,9999,3239644260
18,15,Jits_Phase_8,139,9999,9999,9999,9999,3240445004
18,15,Jits_Phase_8,140,9999,9999,9999,9999,3241244768
18,15,Jits_Phase_8,141,9999,9999,9999,9999,3242044524
18,15,Jits_Phase_8,142,9999,9999,9999,9999,3242844216
18,15,Jits_Phase_8,143,9999,9999,9999,9999,3243645024
18,15,Jits_Phase_8,144,9999,9999,9999,9999,3244444780
18,15,Jits_Phase_8,145,9999,9999,9999,9999,3245244472
18,15,Jits_Phase_8,146,9999,9999,9999,9999,3246044256
18,15,Jits_Phase_8,147,9999,9999,9999,9999,3246844984
18,15,Jits_Phase_8,148,9999,9999,9999,9999,3247644736
18,15,Jits_Phase_8,149,9999,9999,9999,9999,3248444492
18,15,Jits_Phase_8,150,9999,9999,9999,9999,3249084504
18,15,Jits_Phase_8,151,9999,9999,9999,9999,3249884224
18,15,Jits_Phase_8,152,9999,9999,9999,9999,3250685044
18,15,Jits_Phase_8,153,9999,9999,9999,9999,3251484740
18,15,Jits_Phase_8,154,9999,9999,9999,9999,3252284492
18,15,Jits_Phase_8,155,9999,9999,9999,9999,3253084236
18,15,Jits_Phase_8,156,9999,9999,9999,9999,3253885044
18,15,Jits_Phase_8,157,9999,9999,9999,9999,3254684724
18,15,Jits_Phase_8,158,9999,9999,9999,9999,3255484512
18,15,Jits_Phase_8,159,9999,9999,9999,9999,3256284268
18,15,Jits_Phase_8,160,9999,9999,9999,9999,3257085008
18,15,Jits_Phase_8,161,9999,9999,9999,9999,3257884764
18,15,Jits_Phase_8,162,9999,9999,9999,9999,3258684532
18,15,Jits_Phase_8,163,9999,9999,9999,9999,3259484288
18,15,Jits_Phase_8,164,9999,9999,9999,9999,3260285020
18,15,Jits_Phase_8,165,9999,9999,9999,9999,3261084776
18,15,Jits_Phase_8,166,9999,9999,9999,9999,3261884488
18,15,Jits_Phase_8,167,9999,9999,9999,9999,3262684244
18,15,Jits_Phase_8,168,9999,9999,9999,9999,3263484984
18,15,Jits_Phase_8,169,9999,9999,9999,9999,3264284752
19,17,Jits_Phase_5,0,5,56,103,3276267816
19,17,Jits_Phase_5,1,5,63,98,3276270912
19,17,Jits_Phase_5,2,5,80,127,3276274036
19,17,Jits_Phase_5,0,5,56,103,3276767600
19,17,Jits_Phase_5,1,5,63,98,3276770548
19,17,Jits_Phase_5,2,5,80,127,3276773744
19,17,Jits_Phase_5,3,1,48,49,3276950668
19,17,Jits_Phase_5,0,5,56,103,3277268488
19,17,Jits_Phase_5,1,5,80,127,3277277640
19,17,Jits_Phase_5,2,5,63,98,3277297948
19,17,Jits_Phase_5,3,1,48,51,3277355308
19,17,Jits_Phase_5,0,5,63,98,3277717808
19,17,Jits_Phase_5,1,5,80,127,3277747556
19,17,Jits_Phase_5,2,5,56,103,3277757704
19,17,Jits_Phase_5,3,1,48,53,3277814744
19,17,Jits_Phase_5,0,1,48,51,3278263284
19,17,Jits_Phase_5,1,5,80,127,3278277880
19,17,Jits_Phase_5,2,5,56,103,3278288448
19,17,Jits_Phase_5,3,5,63,98,3278317896
19,17,Jits_Phase_5,0,5,63,98,3278767644
19,17,Jits_Phase_5,1,1,48,51,3278791088
19,17,Jits_Phase_5,2,5,56,103,3278798308
19,17,Jits_Phase_5,3,5,80,127,3278808356
19,17,Jits_Phase_5,0,5,56,103,3279218316
19,17,Jits_Phase_5,1,5,63,98,3279268300
19,17,Jits_Phase_5,2,5,80,127,3279287636
19,17,Jits_Phase_5,3,1,48,46,3279292500
19,17,Jits_Phase_5,0,5,80,127,3279717708
19,17,Jits_Phase_5,1,1,48,51,3279758064
19,17,Jits_Phase_5,2,5,63,98,3279767904
19,17,Jits_Phase_5,3,5,56,103,3279807792
19,17,Jits_Phase_5,0,5,56,103,3280217400
19,17,Jits_Phase_5,1,1,48,49,3280248120
19,17,Jits_Phase_5,2,5,63,98,3280249680
19,17,Jits_Phase_5,3,5,80,127,3280317668
19,17,Jits_Phase_5,0,5,56,103,3280718432
19,17,Jits_Phase_5,1,1,48,45,3280733312
19,17,Jits_Phase_5,2,5,80,127,3280777544
19,17,Jits_Phase_5,3,5,63,98,3280808416
19,17,Jits_Phase_5,0,5,56,103,3281228236
19,17,Jits_Phase_5,1,5,63,98,3281238432
19,17,Jits_Phase_5,2,1,48,43,3281257360
19,17,Jits_Phase_5,3,5,80,127,3281278288
19,17,Jits_Phase_5,0,5,63,98,3281717732
19,17,Jits_Phase_5,1,1,48,47,3281775924
19,17,Jits_Phase_5,2,5,80,127,3281797524
19,17,Jits_Phase_5,3,5,56,103,3281807940
19,17,Jits_Phase_5,0,1,48,46,3282266088
19,17,Jits_Phase_5,1,5,63,98,3282267820
19,17,Jits_Phase_5,2,5,56,103,3282307460
19,17,Jits_Phase_5,3,5,80,127,3282310600
19,17,Jits_Phase_5,0,5,56,103,3282728164
19,17,Jits_Phase_5,1,5,63,98,3282737388
19,17,Jits_Phase_5,2,1,48,48,3282750316
19,17,Jits_Phase_5,3,5,80,127,3282777316
19,17,Jits_Phase_5,0,1,48,48,3283201140
19,17,Jits_Phase_5,1,5,56,103,3283217724
19,17,Jits_Phase_5,2,5,63,98,3283220864
19,17,Jits_Phase_5,3,5,80,127,3283238256
19,17,Jits_Phase_5,0,1,48,46,3283677504
19,17,Jits_Phase_5,1,5,80,127,3283727944
19,17,Jits_Phase_5,2,5,56,103,3283738064
19,17,Jits_Phase_5,3,5,63,98,3283807580
19,17,Jits_Phase_5,0,5,63,98,3284218256
19,17,Jits_Phase_5,1,1,48,51,3284223840
19,17,Jits_Phase_5,2,5,56,103,3284237588
19,17,Jits_Phase_5,3,5,80,127,3284317528
19,17,Jits_Phase_5,0,5,56,103,3284728116
19,17,Jits_Phase_5,1,1,48,40,3284734228
19,17,Jits_Phase_5,2,5,80,127,3284768052
19,17,Jits_Phase_5,3,5,63,98,3284778320
19,17,Jits_Phase_5,0,5,80,127,3285217692
19,17,Jits_Phase_5,1,1,48,34,3285231748
19,17,Jits_Phase_5,2,5,63,98,3285248408
19,17,Jits_Phase_5,3,5,56,103,3285288348
19,17,Jits_Phase_5,0,5,56,103,3285737980
19,17,Jits_Phase_5,1,1,48,39,3285742672
19,17,Jits_Phase_5,2,5,63,98,3285767500
19,17,Jits_Phase_5,3,5,80,127,3285817700
19,17,Jits_Phase_5,0,5,80,127,3286247712
19,17,Jits_Phase_5,1,1,48,38,3286252248
19,17,Jits_Phase_5,2,5,56,103,3286287644
19,17,Jits_Phase_5,3,5,63,98,3286298136
19,17,Jits_Phase_5,0,5,80,127,3286728140
19,17,Jits_Phase_5,1,1,48,38,3286758012
19,17,Jits_Phase_5,2,5,63,98,3286768148
19,17,Jits_Phase_5,3,5,56,103,3286828388
19,17,Jits_Phase_5,0,5,56,103,3287227904
19,17,Jits_Phase_5,1,5,80,127,3287238024
19,17,Jits_Phase_5,2,1,48,39,3287251184
19,17,Jits_Phase_5,3,5,63,98,3287318108
19,17,Jits_Phase_5,0,5,80,127,3287727340
19,17,Jits_Phase_5,1,1,48,34,3287761720
19,17,Jits_Phase_5,2,5,63,98,3287787976
19,17,Jits_Phase_5,3,5,56,103,3287817500
19,17,Jits_Phase_5,0,5,56,103,3288228228
19,17,Jits_Phase_5,1,1,48,38,3288261040
19,17,Jits_Phase_5,2,5,80,127,3288288112
19,17,Jits_Phase_5,3,5,63,98,3288327676
19,17,Jits_Phase_5,0,1,48,42,3288743384
19,17,Jits_Phase_5,1,5,56,103,3288778056
19,17,Jits_Phase_5,2,5,63,98,3288788324
19,17,Jits_Phase_5,3,5,80,127,3288791984
19,17,Jits_Phase_5,0,1,48,44,3289224244
19,17,Jits_Phase_5,1,5,80,127,3289227576
19,17,Jits_Phase_5,2,5,63,98,3289318028
19,17,Jits_Phase_5,3,5,56,103,3289328136
19,17,Jits_Phase_5,0,5,56,103,3289728280
19,17,Jits_Phase_5,1,5,63,98,3289731532
19,17,Jits_Phase_5,2,5,80,127,3289734800
19,17,Jits_Phase_5,3,1,48,41,3289757488
19,17,Jits_Phase_5,0,1,48,38,3290186124
19,17,Jits_Phase_5,1,5,80,127,3290247508
19,17,Jits_Phase_5,2,5,63,98,3290297844
19,17,Jits_Phase_5,3,5,56,103,3290328292
19,17,Jits_Phase_5,0,1,48,39,3290725264
19,17,Jits_Phase_5,1,5,56,103,3290727928
19,17,Jits_Phase_5,2,5,80,127,3290737900
19,17,Jits_Phase_5,3,5,63,98,3290807948
19,17,Jits_Phase_5,0,1,48,44,3291187916
19,17,Jits_Phase_5,1,5,56,103,3291237840
19,17,Jits_Phase_5,2,5,63,98,3291258376
19,17,Jits_Phase_5,3,5,80,127,3291317700
19,17,Jits_Phase_5,0,1,48,40,3291677108
19,17,Jits_Phase_5,1,5,80,127,3291717964
19,17,Jits_Phase_5,2,5,63,98,3291787852
19,17,Jits_Phase_5,3,5,56,103,3291808160
19,17,Jits_Phase_5,0,1,48,35,3292196192
19,17,Jits_Phase_5,1,5,80,127,3292238168
19,17,Jits_Phase_5,2,5,56,103,3292248436
19,17,Jits_Phase_5,3,5,63,98,3292257812
19,17,Jits_Phase_5,0,1,48,35,3292681468
19,17,Jits_Phase_5,1,5,80,127,3292727948
19,17,Jits_Phase_5,2,5,56,103,3292748256
19,17,Jits_Phase_5,3,5,63,98,3292817920
19,17,Jits_Phase_5,0,1,48,25,3293201892
19,17,Jits_Phase_5,1,5,56,103,3293237808
19,17,Jits_Phase_5,2,5,80,127,3293268384
19,17,Jits_Phase_5,3,5,63,98,3293287944
19,17,Jits_Phase_5,0,1,48,36,3293677372
19,17,Jits_Phase_5,1,5,63,98,3293728192
19,17,Jits_Phase_5,2,5,56,103,3293787372
19,17,Jits_Phase_5,3,5,80,127,3293818316
19,17,Jits_Phase_5,0,1,48,32,3294181540
19,17,Jits_Phase_5,1,5,63,98,3294217676
19,17,Jits_Phase_5,2,5,80,127,3294220964
19,17,Jits_Phase_5,3,5,56,103,3294307940
19,17,Jits_Phase_5,0,1,48,35,3294675348
19,17,Jits_Phase_5,1,5,56,103,3294737720
19,17,Jits_Phase_5,2,5,63,98,3294767620
19,17,Jits_Phase_5,3,5,80,127,3294808364
19,17,Jits_Phase_5,0,1,48,34,3295196320
19,17,Jits_Phase_5,1,5,63,98,3295237472
19,17,Jits_Phase_5,2,5,56,103,3295277412
19,17,Jits_Phase_5,3,5,80,127,3295297852
19,17,Jits_Phase_5,0,1,48,35,3295715772
19,17,Jits_Phase_5,1,5,63,98,3295747412
19,17,Jits_Phase_5,2,5,56,103,3295788544
19,17,Jits_Phase_5,3,5,80,127,3295797696
19,17,Jits_Phase_5,0,1,48,38,3296195428
19,17,Jits_Phase_5,1,5,80,127,3296227908
19,17,Jits_Phase_5,2,5,63,98,3296298620
19,17,Jits_Phase_5,3,5,56,103,3296317736
19,17,Jits_Phase_5,0,1,48,34,3296708980
19,17,Jits_Phase_5,1,5,56,103,3296718144
19,17,Jits_Phase_5,2,5,80,127,3296737632
19,17,Jits_Phase_5,3,5,63,98,3296777792
19,17,Jits_Phase_5,0,1,48,35,3297226720
19,17,Jits_Phase_5,1,5,63,98,3297228380
19,17,Jits_Phase_5,2,5,80,127,3297247716
19,17,Jits_Phase_5,3,5,56,103,3297287728
19,17,Jits_Phase_5,0,1,48,29,3297716168
19,17,Jits_Phase_5,1,5,63,98,3297727904
19,17,Jits_Phase_5,2,5,56,103,3297748288
19,17,Jits_Phase_5,3,5,80,127,3297757812
19,17,Jits_Phase_5,0,1,48,27,3298212532
19,17,Jits_Phase_5,1,5,80,127,3298227696
19,17,Jits_Phase_5,2,5,56,103,3298247956
19,17,Jits_Phase_5,3,5,63,98,3298277708
19,17,Jits_Phase_5,0,1,48,27,3298693176
19,17,Jits_Phase_5,1,5,56,103,3298797796
19,17,Jits_Phase_5,2,5,80,127,3298801092
19,17,Jits_Phase_5,3,5,63,98,3298818632
19,17,Jits_Phase_5,0,5,63,98,3299217904
19,17,Jits_Phase_5,1,5,56,103,3299247580
19,17,Jits_Phase_5,2,1,48,26,3299253912
19,17,Jits_Phase_5,3,5,80,127,3299307836
19,17,Jits_Phase_5,0,1,48,27,3299732824
19,17,Jits_Phase_5,1,5,63,98,3299798584
19,17,Jits_Phase_5,2,5,56,103,3299807508
19,17,Jits_Phase_5,3,5,80,127,3299817704
19,17,Jits_Phase_5,0,5,56,103,3300258160
19,17,Jits_Phase_5,1,1,48,30,3300268696
19,17,Jits_Phase_5,2,5,80,127,3300288000
19,17,Jits_Phase_5,3,5,63,98,3300298124
19,17,Jits_Phase_5,0,1,48,26,3300761636
19,17,Jits_Phase_5,1,5,63,98,3300797876
19,17,Jits_Phase_5,2,5,56,103,3300807920
19,17,Jits_Phase_5,3,5,80,127,3300827628
19,17,Jits_Phase_5,0,5,56,103,3301227784
19,17,Jits_Phase_5,1,1,48,24,3301283412
19,17,Jits_Phase_5,2,5,63,98,3301288240
19,17,Jits_Phase_5,3,5,80,127,3301291676
19,17,Jits_Phase_5,0,5,80,127,3301748216
19,17,Jits_Phase_5,1,1,48,27,3301751932
19,17,Jits_Phase_5,2,5,56,103,3301758404
19,17,Jits_Phase_5,3,5,63,98,3301827956
19,17,Jits_Phase_5,0,5,80,127,3302237640
19,17,Jits_Phase_5,1,1,48,24,3302266912
19,17,Jits_Phase_5,2,5,56,103,3302308064
19,17,Jits_Phase_5,3,5,63,98,3302317512
19,17,Jits_Phase_5,0,5,63,98,3302778312
19,17,Jits_Phase_5,1,1,48,25,3302783524
19,17,Jits_Phase_5,2,5,56,103,3302787752
19,17,Jits_Phase_5,3,5,80,127,3302807916
19,17,Jits_Phase_5,0,5,80,127,3303227720
19,17,Jits_Phase_5,1,1,48,29,3303253160
19,17,Jits_Phase_5,2,5,63,98,3303288108
19,17,Jits_Phase_5,3,5,56,103,3303327968
19,17,Jits_Phase_5,0,5,56,103,3303768540
19,17,Jits_Phase_5,1,5,63,98,3303777616
19,17,Jits_Phase_5,2,1,48,23,3303782152
19,17,Jits_Phase_5,3,5,80,127,3303817544
19,17,Jits_Phase_5,0,5,56,103,3304228444
19,17,Jits_Phase_5,1,5,80,127,3304257972
19,17,Jits_Phase_5,2,1,48,27,3304280272
19,17,Jits_Phase_5,3,5,63,98,3304308164
19,17,Jits_Phase_5,0,1,48,32,3304720008
19,17,Jits_Phase_5,1,5,56,103,3304767912
19,17,Jits_Phase_5,2,5,63,98,3304807772
19,17,Jits_Phase_5,3,5,80,127,3304811360
19,17,Jits_Phase_5,0,1,48,28,3305264472
19,17,Jits_Phase_5,1,5,56,103,3305267504
19,17,Jits_Phase_5,2,5,63,98,3305277848
19,17,Jits_Phase_5,3,5,80,127,3305298380
19,17,Jits_Phase_5,0,5,56,103,3305728596
19,17,Jits_Phase_5,1,5,80,127,3305731512
19,17,Jits_Phase_5,2,1,48,26,3305761160
19,17,Jits_Phase_5,3,5,63,98,3305768600
19,17,Jits_Phase_5,0,1,48,23,3306216400
19,17,Jits_Phase_5,1,5,63,98,3306268124
19,17,Jits_Phase_5,2,5,56,103,3306297796
19,17,Jits_Phase_5,3,5,80,127,3306318240
19,17,Jits_Phase_5,0,1,48,28,3306688884
19,17,Jits_Phase_5,1,5,80,127,3306737908
19,17,Jits_Phase_5,2,5,56,103,3306748624
19,17,Jits_Phase_5,3,5,63,98,3306757552
19,17,Jits_Phase_5,0,1,48,28,3307184396
19,17,Jits_Phase_5,1,5,56,103,3307237800
19,17,Jits_Phase_5,2,5,80,127,3307277592
19,17,Jits_Phase_5,3,5,63,98,3307308520
19,17,Jits_Phase_5,0,1,48,22,3307738048
19,17,Jits_Phase_5,1,5,63,98,3307747592
19,17,Jits_Phase_5,2,5,80,127,3307757864
19,17,Jits_Phase_5,3,5,56,103,3307768280
19,17,Jits_Phase_5,0,1,48,26,3308223852
19,17,Jits_Phase_5,1,5,56,103,3308238344
19,17,Jits_Phase_5,2,5,63,98,3308307804
19,17,Jits_Phase_5,3,5,80,127,3308318000
19,17,Jits_Phase_5,0,1,48,20,3308721932
19,17,Jits_Phase_5,1,5,80,127,3308748208
19,17,Jits_Phase_5,2,5,56,103,3308758332
19,17,Jits_Phase_5,3,5,63,98,3308807484
19,17,Jits_Phase_5,0,1,48,21,3309202944
19,17,Jits_Phase_5,1,5,80,127,3309258368
19,17,Jits_Phase_5,2,5,56,103,3309317396
19,17,Jits_Phase_5,3,5,63,98,3309348192
19,17,Jits_Phase_5,0,1,48,27,3309754336
19,17,Jits_Phase_5,1,5,56,103,3309757820
19,17,Jits_Phase_5,2,5,80,127,3309760736
19,17,Jits_Phase_5,3,5,63,98,3309797684
19,17,Jits_Phase_5,0,1,48,31,3310256836
19,17,Jits_Phase_5,1,5,56,103,3310288272
19,17,Jits_Phase_5,2,5,63,98,3310317800
19,17,Jits_Phase_5,3,5,80,127,3310328292
19,17,Jits_Phase_5,0,5,63,98,3310798368
19,17,Jits_Phase_5,1,5,80,127,3310808416
19,17,Jits_Phase_5,2,1,48,23,3310811240
19,17,Jits_Phase_5,3,5,56,103,3310817560
19,17,Jits_Phase_5,0,5,80,127,3311247680
19,17,Jits_Phase_5,1,5,56,103,3311297828
19,17,Jits_Phase_5,2,5,63,98,3311300896
19,17,Jits_Phase_5,3,1,48,25,3311333376
19,17,Jits_Phase_5,0,5,56,103,3311778372
19,17,Jits_Phase_5,1,1,48,21,3311791824
19,17,Jits_Phase_5,2,5,80,127,3311797552
19,17,Jits_Phase_5,3,5,63,98,3311807848
19,17,Jits_Phase_5,0,5,63,98,3312258432
19,17,Jits_Phase_5,1,5,56,103,3312288256
19,17,Jits_Phase_5,2,5,80,127,3312307520
19,17,Jits_Phase_5,0,5,56,103,3312768404
19,17,Jits_Phase_5,1,5,80,127,3312777556
19,17,Jits_Phase_5,2,1,48,17,3312796036
19,17,Jits_Phase_5,3,5,63,98,3312848296
19,17,Jits_Phase_5,0,5,63,98,3313257832
19,17,Jits_Phase_5,1,1,48,25,3313269944
19,17,Jits_Phase_5,2,5,80,127,3313297688
19,17,Jits_Phase_5,3,5,56,103,3313337800
19,17,Jits_Phase_5,0,1,48,25,3313756952
19,17,Jits_Phase_5,1,5,56,103,3313767768
19,17,Jits_Phase_5,2,5,63,98,3313777964
19,17,Jits_Phase_5,3,5,80,127,3313797448
19,17,Jits_Phase_5,0,1,48,27,3314226212
19,17,Jits_Phase_5,1,5,63,98,3314307296
19,17,Jits_Phase_5,2,5,80,127,3314328112
19,17,Jits_Phase_5,3,5,56,103,3314348420
19,17,Jits_Phase_5,0,5,56,103,3314747720
19,17,Jits_Phase_5,1,1,48,29,3314761472
19,17,Jits_Phase_5,2,5,80,127,3314827508
19,17,Jits_Phase_5,3,5,63,98,3314838000
19,17,Jits_Phase_5,0,1,48,32,3315222344
19,17,Jits_Phase_5,1,5,80,127,3315288532
19,17,Jits_Phase_5,2,5,63,98,3315297684
19,17,Jits_Phase_5,3,5,56,103,3315328240
19,17,Jits_Phase_5,0,5,63,98,3315748136
19,17,Jits_Phase_5,1,5,80,127,3315788076
19,17,Jits_Phase_5,2,1,48,24,3315792760
19,17,Jits_Phase_5,3,5,56,103,3315847480
19,17,Jits_Phase_5,0,5,63,98,3316258148
19,17,Jits_Phase_5,1,1,48,28,3316304188
19,17,Jits_Phase_5,2,5,56,103,3316308344
19,17,Jits_Phase_5,3,5,80,127,3316338016
19,17,Jits_Phase_5,0,1,48,27,3316751720
19,17,Jits_Phase_5,1,5,80,127,3316758116
19,17,Jits_Phase_5,2,5,63,98,3316768088
19,17,Jits_Phase_5,3,5,56,103,3316837616
19,17,Jits_Phase_5,0,1,48,30,3317239188
19,17,Jits_Phase_5,1,5,80,127,3317317956
19,17,Jits_Phase_5,2,5,56,103,3317328144
19,17,Jits_Phase_5,3,5,63,98,3317331364
19,17,Jits_Phase_5,0,5,56,103,3317758300
19,17,Jits_Phase_5,1,1,48,28,3317763512
19,17,Jits_Phase_5,2,5,80,127,3317778004
19,17,Jits_Phase_5,3,5,63,98,3317788272
19,17,Jits_Phase_5,0,5,63,98,3318268180
19,17,Jits_Phase_5,1,5,56,103,3318308268
19,17,Jits_Phase_5,2,5,80,127,3318327904
19,17,Jits_Phase_5,0,1,48,27,3318715948
19,17,Jits_Phase_5,1,5,63,98,3318768044
19,17,Jits_Phase_5,2,5,56,103,3318828260
19,17,Jits_Phase_5,3,5,80,127,3318831332
19,17,Jits_Phase_5,0,5,56,103,3319227864
19,17,Jits_Phase_5,1,1,48,24,3319231424
19,17,Jits_Phase_5,2,5,80,127,3319248316
19,17,Jits_Phase_5,3,5,63,98,3319288104
19,17,Jits_Phase_5,0,1,48,29,3319704180
19,17,Jits_Phase_5,1,5,56,103,3319758112
19,17,Jits_Phase_5,2,5,63,98,3319777524
19,17,Jits_Phase_5,3,5,80,127,3319788092
19,17,Jits_Phase_5,0,1,48,30,3320171724
19,17,Jits_Phase_5,1,5,80,127,3320228388
19,17,Jits_Phase_5,2,5,56,103,3320258092
19,17,Jits_Phase_5,3,5,63,98,3320298160
19,17,Jits_Phase_5,0,1,48,33,3320665856
19,17,Jits_Phase_5,1,5,80,127,3320738104
19,17,Jits_Phase_5,2,5,56,103,3320757520
19,17,Jits_Phase_5,3,5,63,98,3320818040
19,17,Jits_Phase_5,0,1,48,36,3321192096
19,17,Jits_Phase_5,1,5,56,103,3321248092
19,17,Jits_Phase_5,2,5,80,127,3321267432
19,17,Jits_Phase_5,3,5,63,98,3321327900
19,17,Jits_Phase_5,0,1,48,41,3321720912
19,17,Jits_Phase_5,1,5,80,127,3321728356
19,17,Jits_Phase_5,2,5,56,103,3321737656
19,17,Jits_Phase_5,3,5,63,98,3321777516
19,17,Jits_Phase_5,0,1,48,37,3322219984
19,17,Jits_Phase_5,1,5,63,98,3322227956
19,17,Jits_Phase_5,2,5,56,103,3322267964
19,17,Jits_Phase_5,3,5,80,127,3322271104
19,17,Jits_Phase_5,0,1,48,36,3322691928
19,17,Jits_Phase_5,1,5,63,98,3322748148
19,17,Jits_Phase_5,2,5,80,127,3322788148
19,17,Jits_Phase_5,3,5,56,103,3322817992
19,17,Jits_Phase_5,0,1,48,31,3323199396
19,17,Jits_Phase_5,1,5,56,103,3323237932
19,17,Jits_Phase_5,2,5,63,98,3323248056
19,17,Jits_Phase_5,3,5,80,127,3323277804
19,17,Jits_Phase_5,0,1,48,37,3323716380
19,17,Jits_Phase_5,1,5,80,127,3323728240
19,17,Jits_Phase_5,2,5,63,98,3323797848
19,17,Jits_Phase_5,3,5,56,103,3323807968
19,17,Jits_Phase_5,0,5,63,98,3324227996
19,17,Jits_Phase_5,1,1,48,28,3324229112
19,17,Jits_Phase_5,2,5,56,103,3324297820
19,17,Jits_Phase_5,3,5,80,127,3324307944
19,17,Jits_Phase_5,0,5,63,98,3324708196
19,17,Jits_Phase_5,1,1,48,38,3324722096
19,17,Jits_Phase_5,2,5,56,103,3324728048
19,17,Jits_Phase_5,3,5,80,127,3324767612
19,17,Jits_Phase_5,0,1,48,45,3325153440
19,17,Jits_Phase_5,1,5,56,103,3325187564
19,17,Jits_Phase_5,2,5,63,98,3325197684
19,17,Jits_Phase_5,3,5,80,127,3325277832
19,17,Jits_Phase_5,0,1,48,48,3325626300
19,17,Jits_Phase_5,1,5,63,98,3325677948
19,17,Jits_Phase_5,2,5,56,103,3325707772
19,17,Jits_Phase_5,3,5,80,127,3325747692
19,17,Jits_Phase_5,0,1,48,45,3326143344
19,17,Jits_Phase_5,1,5,56,103,3326177844
19,17,Jits_Phase_5,2,5,63,98,3326217856
19,17,Jits_Phase_5,3,5,80,127,3326257776
19,17,Jits_Phase_5,0,1,48,50,3326623068
19,17,Jits_Phase_5,1,5,80,127,3326678344
19,17,Jits_Phase_5,2,5,56,103,3326758196
19,17,Jits_Phase_5,3,5,63,98,3326767644
19,17,Jits_Phase_5,0,1,48,47,3327158188
19,17,Jits_Phase_5,1,5,56,103,3327228212
19,17,Jits_Phase_5,2,5,63,98,3327231352
19,17,Jits_Phase_5,3,5,80,127,3327237732
19,17,Jits_Phase_5,0,1,48,43,3327674432
19,17,Jits_Phase_5,1,5,56,103,3327747584
19,17,Jits_Phase_5,2,5,63,98,3327767956
19,17,Jits_Phase_5,3,5,80,127,3327778076
19,17,Jits_Phase_5,0,5,63,98,3328208612
19,17,Jits_Phase_5,1,1,48,43,3328215100
19,17,Jits_Phase_5,2,5,80,127,3328217608
19,17,Jits_Phase_5,3,5,56,103,3328237840
19,17,Jits_Phase_5,0,1,48,42,3328703376
19,17,Jits_Phase_5,1,5,63,98,3328707980
19,17,Jits_Phase_5,2,5,56,103,3328787996
19,17,Jits_Phase_5,3,5,80,127,3328790840
19,17,Jits_Phase_5,0,1,48,44,3329188272
19,17,Jits_Phase_5,1,5,63,98,3329208088
19,17,Jits_Phase_5,2,5,56,103,3329228104
19,17,Jits_Phase_5,3,5,80,127,3329257924
19,17,Jits_Phase_5,0,1,48,48,3329651668
19,17,Jits_Phase_5,1,5,56,103,3329708488
19,17,Jits_Phase_5,2,5,63,98,3329727852
19,17,Jits_Phase_5,3,5,80,127,3329738120
19,17,Jits_Phase_5,0,1,48,50,3330153284
19,17,Jits_Phase_5,1,5,56,103,3330237780
19,17,Jits_Phase_5,2,5,63,98,3330267440
19,17,Jits_Phase_5,3,5,80,127,3330270948
19,17,Jits_Phase_5,0,1,48,49,3330635788
19,17,Jits_Phase_5,1,5,56,103,3330688564
19,17,Jits_Phase_5,2,5,63,98,3330728576
19,17,Jits_Phase_5,3,5,80,127,3330787556
19,17,Jits_Phase_5,0,1,48,49,3331171128
19,17,Jits_Phase_5,1,5,56,103,3331207496
19,17,Jits_Phase_5,2,5,63,98,3331217692
19,17,Jits_Phase_5,3,5,80,127,3331278092
19,17,Jits_Phase_5,0,1,48,48,3331663460
19,17,Jits_Phase_5,1,5,56,103,3331708516
19,17,Jits_Phase_5,2,5,80,127,3331727708
19,17,Jits_Phase_5,3,5,63,98,3331757380
19,17,Jits_Phase_5,0,1,48,50,3332176036
19,17,Jits_Phase_5,1,5,80,127,3332207896
19,17,Jits_Phase_5,2,5,56,103,3332218316
19,17,Jits_Phase_5,3,5,63,98,3332237728
19,17,Jits_Phase_5,0,1,48,48,3332673440
19,17,Jits_Phase_5,1,5,63,98,3332697380
19,17,Jits_Phase_5,2,5,80,127,3332778428
19,17,Jits_Phase_5,3,5,56,103,3332787504
19,17,Jits_Phase_5,0,1,48,48,3333222572
19,17,Jits_Phase_5,1,5,80,127,3333288456
19,17,Jits_Phase_5,2,5,56,103,3333307816
19,17,Jits_Phase_5,3,5,63,98,3333310808
19,17,Jits_Phase_5,0,1,48,52,3333714812
19,17,Jits_Phase_5,1,5,63,98,3333777788
19,17,Jits_Phase_5,2,5,80,127,3333781148
19,17,Jits_Phase_5,3,5,56,103,3333838332
19,17,Jits_Phase_5,0,5,56,103,3334257908
19,17,Jits_Phase_5,1,1,48,46,3334265288
19,17,Jits_Phase_5,2,5,80,127,3334268768
19,17,Jits_Phase_5,3,5,63,98,3334308480
19,17,Jits_Phase_5,0,1,48,42,3334720852
19,17,Jits_Phase_5,1,5,56,103,3334738412
19,17,Jits_Phase_5,2,5,63,98,3334797828
19,17,Jits_Phase_5,3,5,80,127,3334808024
19,17,Jits_Phase_5,0,5,63,98,3335248500
19,17,Jits_Phase_5,1,1,48,52,3335261364
19,17,Jits_Phase_5,2,5,80,127,3335288288
19,17,Jits_Phase_5,3,5,56,103,3335328220
19,17,Jits_Phase_5,0,1,48,46,3335699524
19,17,Jits_Phase_5,1,5,56,103,3335747872
19,17,Jits_Phase_5,2,5,63,98,3335827800
19,17,Jits_Phase_5,3,5,80,127,3335831312
19,17,Jits_Phase_5,0,1,48,52,3336209904
19,17,Jits_Phase_5,1,5,80,127,3336308064
19,17,Jits_Phase_5,2,5,56,103,3336337808
19,17,Jits_Phase_5,3,5,63,98,3336340800
19,17,Jits_Phase_5,0,1,48,55,3336718268
19,17,Jits_Phase_5,1,5,56,103,3336767816
19,17,Jits_Phase_5,2,5,80,127,3336788424
19,17,Jits_Phase_5,3,5,63,98,3336828492
19,17,Jits_Phase_5,0,5,80,127,3337248244
19,17,Jits_Phase_5,1,1,48,55,3337258708
19,17,Jits_Phase_5,2,5,63,98,3337267500
19,17,Jits_Phase_5,3,5,56,103,3337327888
19,17,Jits_Phase_5,0,1,48,52,3337742196
19,17,Jits_Phase_5,1,5,63,98,3337758264
19,17,Jits_Phase_5,2,5,56,103,3337768384
19,17,Jits_Phase_5,3,5,80,127,3337817464
19,17,Jits_Phase_5,0,5,56,103,3338247680
19,17,Jits_Phase_5,1,5,63,98,3338268140
19,17,Jits_Phase_5,2,1,48,56,3338269628
19,17,Jits_Phase_5,3,5,80,127,3338278256
19,17,Jits_Phase_5,0,5,56,103,3338738072
19,17,Jits_Phase_5,1,5,63,98,3338741288
19,17,Jits_Phase_5,2,5,80,127,3338757484
19,17,Jits_Phase_5,3,1,48,51,3338761872
19,17,Jits_Phase_5,0,1,48,49,3339209544
19,17,Jits_Phase_5,1,5,63,98,3339277604
19,17,Jits_Phase_5,2,5,56,103,3339308460
19,17,Jits_Phase_5,3,5,80,127,3339338280
19,17,Jits_Phase_5,0,1,48,51,3339725692
19,17,Jits_Phase_5,1,5,80,127,3339737420
19,17,Jits_Phase_5,2,5,56,103,3339827536
19,17,Jits_Phase_5,3,5,63,98,3339830604
19,17,Jits_Phase_5,0,5,56,103,3340238364
19,17,Jits_Phase_5,1,1,48,47,3340240324
19,17,Jits_Phase_5,2,5,80,127,3340242764
19,17,Jits_Phase_5,3,5,63,98,3340318148
19,17,Jits_Phase_5,0,1,48,45,3340727824
19,17,Jits_Phase_5,1,5,80,127,3340737888
19,17,Jits_Phase_5,2,5,63,98,3340798352
19,17,Jits_Phase_5,3,5,56,103,3340828308
19,17,Jits_Phase_5,0,1,48,46,3341193304
19,17,Jits_Phase_5,1,5,63,98,3341237612
19,17,Jits_Phase_5,2,5,80,127,3341247832
19,17,Jits_Phase_5,3,5,56,103,3341317348
19,17,Jits_Phase_5,0,1,48,47,3341705724
19,17,Jits_Phase_5,1,5,56,103,3341797848
19,17,Jits_Phase_5,2,5,80,127,3341827432
19,17,Jits_Phase_5,3,5,63,98,3341877632
19,17,Jits_Phase_5,0,1,48,50,3342192120
19,17,Jits_Phase_5,1,5,63,98,3342387628
19,17,Jits_Phase_5,2,5,56,103,3342418348
19,17,Jits_Phase_5,3,5,80,127,3342421488
19,17,Jits_Phase_5,0,1,48,44,3342706860
19,17,Jits_Phase_5,1,5,63,98,3342888420
19,17,Jits_Phase_5,2,5,80,127,3342907760
19,17,Jits_Phase_5,3,5,56,103,3342918104
19,17,Jits_Phase_5,0,1,48,53,3343304540
19,17,Jits_Phase_5,1,5,56,103,3343398300
19,17,Jits_Phase_5,2,5,63,98,3343402100
19,17,Jits_Phase_5,3,5,80,127,3343417624
19,17,Jits_Phase_5,0,5,56,103,3343847932
19,17,Jits_Phase_5,1,5,63,98,3343858200
19,17,Jits_Phase_5,2,5,80,127,3343887876
19,17,Jits_Phase_5,3,1,48,54,3343891440
19,17,Jits_Phase_5,0,5,63,98,3344368144
19,17,Jits_Phase_5,1,5,80,127,3344387484
19,17,Jits_Phase_5,2,1,48,43,3344394936
19,17,Jits_Phase_5,3,5,56,103,3344428384
19,17,Jits_Phase_5,0,5,56,103,3344898392
19,17,Jits_Phase_5,1,1,48,51,3344905168
19,17,Jits_Phase_5,2,5,63,98,3344938468
19,17,Jits_Phase_5,3,5,80,127,3344941756
19,17,Jits_Phase_5,0,5,80,127,3345337840
19,17,Jits_Phase_5,1,5,56,103,3345377704
19,17,Jits_Phase_5,2,1,48,42,3345404116
19,17,Jits_Phase_5,3,5,63,98,3345428044
19,17,Jits_Phase_5,0,1,48,48,3345854044
19,17,Jits_Phase_5,1,5,56,103,3345898280
19,17,Jits_Phase_5,2,5,80,127,3345908104
19,17,Jits_Phase_5,3,5,63,98,3345937704
19,17,Jits_Phase_5,0,1,48,40,3346329660
19,17,Jits_Phase_5,1,5,56,103,3346348340
19,17,Jits_Phase_5,2,5,80,127,3346388376
19,17,Jits_Phase_5,3,5,63,98,3346437364
19,17,Jits_Phase_5,0,1,48,45,3346820192
19,17,Jits_Phase_5,1,5,56,103,3346848088
19,17,Jits_Phase_5,2,5,80,127,3346888124
19,17,Jits_Phase_5,3,5,63,98,3346938236
19,17,Jits_Phase_5,0,1,48,43,3347303828
19,17,Jits_Phase_5,1,5,80,127,3347337504
19,17,Jits_Phase_5,2,5,63,98,3347417680
19,17,Jits_Phase_5,3,5,56,103,3347427948
19,17,Jits_Phase_5,0,1,48,45,3347816700
19,17,Jits_Phase_5,1,5,80,127,3347887444
19,17,Jits_Phase_5,2,5,56,103,3347897888
19,17,Jits_Phase_5,3,5,63,98,3347918108
19,17,Jits_Phase_5,0,1,48,42,3348325964
19,17,Jits_Phase_5,1,5,63,98,3348357452
19,17,Jits_Phase_5,2,5,56,103,3348428188
19,17,Jits_Phase_5,3,5,80,127,3348431328
19,17,Jits_Phase_5,0,5,80,127,3348847916
19,17,Jits_Phase_5,1,1,48,51,3348866324
19,17,Jits_Phase_5,2,5,63,98,3348898032
19,17,Jits_Phase_5,3,5,56,103,3348937996
19,17,Jits_Phase_5,0,1,48,40,3349340752
19,17,Jits_Phase_5,1,5,63,98,3349387904
19,17,Jits_Phase_5,2,5,56,103,3349427768
19,17,Jits_Phase_5,3,5,80,127,3349437896
19,17,Jits_Phase_5,0,1,48,53,3349844916
19,17,Jits_Phase_5,1,5,63,98,3349878072
19,17,Jits_Phase_5,2,5,56,103,3349897556
19,17,Jits_Phase_5,3,5,80,127,3349918164
19,17,Jits_Phase_5,0,5,80,127,3350337968
19,17,Jits_Phase_5,1,1,48,54,3350341460
19,17,Jits_Phase_5,2,5,56,103,3350348012
19,17,Jits_Phase_5,3,5,63,98,3350367572
19,17,Jits_Phase_5,0,1,48,54,3350857032
19,17,Jits_Phase_5,1,5,63,98,3350868220
19,17,Jits_Phase_5,2,5,56,103,3350908232
19,17,Jits_Phase_5,3,5,80,127,3350937908
19,17,Jits_Phase_5,0,5,56,103,3351328048
19,17,Jits_Phase_5,1,1,48,58,3351344200
19,17,Jits_Phase_5,2,5,63,98,3351357944
19,17,Jits_Phase_5,3,5,80,127,3351387616
19,17,Jits_Phase_5,0,5,80,127,3351747884
19,17,Jits_Phase_5,1,1,48,48,3351815656
19,17,Jits_Phase_5,2,5,56,103,3351817632
19,17,Jits_Phase_5,3,5,63,98,3351820696
19,17,Jits_Phase_5,0,5,56,103,3352258056
19,17,Jits_Phase_5,1,1,48,59,3352275476
19,17,Jits_Phase_5,2,5,63,98,3352308252
19,17,Jits_Phase_5,3,5,80,127,3352337776
19,17,Jits_Phase_5,0,5,63,98,3352738012
19,17,Jits_Phase_5,1,5,80,127,3352741304
19,17,Jits_Phase_5,2,1,48,50,3352765348
19,17,Jits_Phase_5,3,5,56,103,3352797748
19,17,Jits_Phase_5,0,1,48,54,3353217868
19,17,Jits_Phase_5,1,5,56,103,3353267792
19,17,Jits_Phase_5,2,5,80,127,3353277716
19,17,Jits_Phase_5,3,5,63,98,3353327972
19,17,Jits_Phase_5,0,1,48,49,3353734916
19,17,Jits_Phase_5,1,5,63,98,3353737872
19,17,Jits_Phase_5,2,5,56,103,3353747772
19,17,Jits_Phase_5,3,5,80,127,3353777744
19,17,Jits_Phase_5,0,1,48,55,3354242748
19,17,Jits_Phase_5,1,5,63,98,3354267956
19,17,Jits_Phase_5,2,5,80,127,3354271244
19,17,Jits_Phase_5,3,5,56,103,3354297728
19,17,Jits_Phase_5,0,1,48,52,3354767148
19,17,Jits_Phase_5,1,5,63,98,3354788076
19,17,Jits_Phase_5,2,5,56,103,3354807660
19,17,Jits_Phase_5,3,5,80,127,3354810876
19,17,Jits_Phase_5,0,5,63,98,3355248120
19,17,Jits_Phase_5,1,1,48,52,3355256116
19,17,Jits_Phase_5,2,5,56,103,3355317792
19,17,Jits_Phase_5,3,5,80,127,3355337952
19,17,Jits_Phase_5,0,1,48,51,3355713792
19,17,Jits_Phase_5,1,5,56,103,3355737576
19,17,Jits_Phase_5,2,5,63,98,3355747624
19,17,Jits_Phase_5,3,5,80,127,3355837688
19,17,Jits_Phase_5,0,1,48,53,3356167700
19,17,Jits_Phase_5,1,5,56,103,3356257776
19,17,Jits_Phase_5,2,5,80,127,3356297772
19,17,Jits_Phase_5,3,5,63,98,3356307820
19,17,Jits_Phase_5,0,1,48,46,3356681524
19,17,Jits_Phase_5,1,5,56,103,3356779304
19,17,Jits_Phase_5,2,5,63,98,3356807560
19,17,Jits_Phase_5,3,5,80,127,3356838356
19,17,Jits_Phase_5,0,1,48,46,3357162992
19,17,Jits_Phase_5,1,5,80,127,3357237720
19,17,Jits_Phase_5,2,5,63,98,3357277716
19,17,Jits_Phase_5,3,5,56,103,3357297952
19,17,Jits_Phase_5,0,1,48,48,3357618444
19,17,Jits_Phase_5,1,5,56,103,3357778284
19,17,Jits_Phase_5,2,5,80,127,3357797772
19,17,Jits_Phase_5,3,5,63,98,3357818152
19,17,Jits_Phase_5,0,1,48,45,3358163904
19,17,Jits_Phase_5,1,5,63,98,3358248452
19,17,Jits_Phase_5,2,5,56,103,3358257604
19,17,Jits_Phase_5,3,5,80,127,3358317824
19,17,Jits_Phase_5,0,1,48,53,3358679996
19,17,Jits_Phase_5,1,5,56,103,3358747976
19,17,Jits_Phase_5,2,5,63,98,3358817644
19,17,Jits_Phase_5,3,5,80,127,3358838176
19,17,Jits_Phase_5,0,1,48,50,3359168288
19,17,Jits_Phase_5,1,5,56,103,3359247656
19,17,Jits_Phase_5,2,5,63,98,3359277544
19,17,Jits_Phase_5,3,5,80,127,3359318600
19,17,Jits_Phase_5,0,1,48,40,3359687440
19,17,Jits_Phase_5,1,5,63,98,3359738112
19,17,Jits_Phase_5,2,5,56,103,3359788524
19,17,Jits_Phase_5,3,5,80,127,3359797672
19,17,Jits_Phase_5,0,1,48,41,3360202168
19,17,Jits_Phase_5,1,5,56,103,3360278016
19,17,Jits_Phase_5,2,5,63,98,3360328056
19,17,Jits_Phase_5,3,5,80,127,3360338324
19,17,Jits_Phase_5,0,1,48,35,3360704456
19,17,Jits_Phase_5,1,5,56,103,3360747872
19,17,Jits_Phase_5,2,5,63,98,3360758072
19,17,Jits_Phase_5,3,5,80,127,3360837996
19,17,Jits_Phase_5,0,9999,9999,9999,9999,3276515392
19,17,Jits_Phase_5,1,9999,9999,9999,9999,3277015100
19,17,Jits_Phase_5,2,9999,9999,9999,9999,3277515900
19,17,Jits_Phase_5,3,9999,9999,9999,9999,3278015584
19,17,Jits_Phase_5,4,9999,9999,9999,9999,3278515308
19,17,Jits_Phase_5,5,9999,9999,9999,9999,3279016028
19,17,Jits_Phase_5,6,9999,9999,9999,9999,3279515700
19,17,Jits_Phase_5,7,9999,9999,9999,9999,3280015464
19,17,Jits_Phase_5,8,9999,9999,9999,9999,3280515152
19,17,Jits_Phase_5,9,9999,9999,9999,9999,3281015892
19,17,Jits_Phase_5,10,9999,9999,9999,9999,3281515576
19,17,Jits_Phase_5,11,9999,9999,9999,9999,3282015340
19,17,Jits_Phase_5,12,9999,9999,9999,9999,3282516056
19,17,Jits_Phase_5,13,9999,9999,9999,9999,3283015800
19,17,Jits_Phase_5,14,9999,9999,9999,9999,3283515472
19,17,Jits_Phase_5,15,9999,9999,9999,9999,3284015216
19,17,Jits_Phase_5,16,9999,9999,9999,9999,3284515936
19,17,Jits_Phase_5,17,9999,9999,9999,9999,3285015608
19,17,Jits_Phase_5,18,9999,9999,9999,9999,3285515372
19,17,Jits_Phase_5,19,9999,9999,9999,9999,3286016108
19,17,Jits_Phase_5,20,9999,9999,9999,9999,3286526060
19,17,Jits_Phase_5,21,9999,9999,9999,9999,3287025748
19,17,Jits_Phase_5,22,9999,9999,9999,9999,3287525432
19,17,Jits_Phase_5,23,9999,9999,9999,9999,3288025196
19,17,Jits_Phase_5,24,9999,9999,9999,9999,3288525932
19,17,Jits_Phase_5,25,9999,9999,9999,9999,3289025612
19,17,Jits_Phase_5,26,9999,9999,9999,9999,3289525336
19,17,Jits_Phase_5,27,9999,9999,9999,9999,3290026104
19,17,Jits_Phase_5,28,9999,9999,9999,9999,3290525792
19,17,Jits_Phase_5,29,9999,9999,9999,9999,3291025512
19,17,Jits_Phase_5,30,9999,9999,9999,9999,3291515972
19,17,Jits_Phase_5,31,9999,9999,9999,9999,3292015724
19,17,Jits_Phase_5,32,9999,9999,9999,9999,3292515400
19,17,Jits_Phase_5,33,9999,9999,9999,9999,3293015148
19,17,Jits_Phase_5,34,9999,9999,9999,9999,3293515868
19,17,Jits_Phase_5,35,9999,9999,9999,9999,3294015544
19,17,Jits_Phase_5,36,9999,9999,9999,9999,3294515280
19,17,Jits_Phase_5,37,9999,9999,9999,9999,3295016004
19,17,Jits_Phase_5,38,9999,9999,9999,9999,3295515752
19,17,Jits_Phase_5,39,9999,9999,9999,9999,3296015432
19,17,Jits_Phase_5,40,9999,9999,9999,9999,3296515188
19,17,Jits_Phase_5,41,9999,9999,9999,9999,3297015904
19,17,Jits_Phase_5,42,9999,9999,9999,9999,3297515580
19,17,Jits_Phase_5,43,9999,9999,9999,9999,3298015324
19,17,Jits_Phase_5,44,9999,9999,9999,9999,3298516044
19,17,Jits_Phase_5,45,9999,9999,9999,9999,3299015784
19,17,Jits_Phase_5,46,9999,9999,9999,9999,3299515460
19,17,Jits_Phase_5,47,9999,9999,9999,9999,3300015188
19,17,Jits_Phase_5,48,9999,9999,9999,9999,3300525124
19,17,Jits_Phase_5,49,9999,9999,9999,9999,3301025864
19,17,Jits_Phase_5,50,9999,9999,9999,9999,3301525600
19,17,Jits_Phase_5,51,9999,9999,9999,9999,3302025292
19,17,Jits_Phase_5,52,9999,9999,9999,9999,3302526032
19,17,Jits_Phase_5,53,9999,9999,9999,9999,3303025724
19,17,Jits_Phase_5,54,9999,9999,9999,9999,3303525476
19,17,Jits_Phase_5,55,9999,9999,9999,9999,3304025168
19,17,Jits_Phase_5,56,9999,9999,9999,9999,3304525900
19,17,Jits_Phase_5,57,9999,9999,9999,9999,3305025660
19,17,Jits_Phase_5,58,9999,9999,9999,9999,3305525332
19,17,Jits_Phase_5,59,9999,9999,9999,9999,3306026040
19,17,Jits_Phase_5,60,9999,9999,9999,9999,3306525804
19,17,Jits_Phase_5,61,9999,9999,9999,9999,3307025476
19,17,Jits_Phase_5,62,9999,9999,9999,9999,3307525224
19,17,Jits_Phase_5,63,9999,9999,9999,9999,3308025944
19,17,Jits_Phase_5,64,9999,9999,9999,9999,3308545100
19,17,Jits_Phase_5,65,9999,9999,9999,9999,3309045820
19,17,Jits_Phase_5,66,9999,9999,9999,9999,3309545568
19,17,Jits_Phase_5,67,9999,9999,9999,9999,3310045308
19,17,Jits_Phase_5,68,9999,9999,9999,9999,3310546028
19,17,Jits_Phase_5,69,9999,9999,9999,9999,3311045708
19,17,Jits_Phase_5,70,9999,9999,9999,9999,3311545448
19,17,Jits_Phase_5,71,9999,9999,9999,9999,3312045112
19,17,Jits_Phase_5,72,9999,9999,9999,9999,3312545868
19,17,Jits_Phase_5,73,9999,9999,9999,9999,3313045560
19,17,Jits_Phase_5,74,9999,9999,9999,9999,3313545324
19,17,Jits_Phase_5,75,9999,9999,9999,9999,3314046044
19,17,Jits_Phase_5,76,9999,9999,9999,9999,3314545724
19,17,Jits_Phase_5,77,9999,9999,9999,9999,3315045476
19,17,Jits_Phase_5,78,9999,9999,9999,9999,3315545168
19,17,Jits_Phase_5,79,9999,9999,9999,9999,3316045892
19,17,Jits_Phase_5,80,9999,9999,9999,9999,3316545640
19,17,Jits_Phase_5,81,9999,9999,9999,9999,3317025912
19,17,Jits_Phase_5,82,9999,9999,9999,9999,3317525588
19,17,Jits_Phase_5,83,9999,9999,9999,9999,3318025336
19,17,Jits_Phase_5,84,9999,9999,9999,9999,3318526032
19,17,Jits_Phase_5,85,9999,9999,9999,9999,3319025716
19,17,Jits_Phase_5,86,9999,9999,9999,9999,3319525464
19,17,Jits_Phase_5,87,9999,9999,9999,9999,3320025156
19,17,Jits_Phase_5,88,9999,9999,9999,9999,3320525876
19,17,Jits_Phase_5,89,9999,9999,9999,9999,3321025604
19,17,Jits_Phase_5,90,9999,9999,9999,9999,3321525328
19,17,Jits_Phase_5,91,9999,9999,9999,9999,3322026040
19,17,Jits_Phase_5,92,9999,9999,9999,9999,3322525780
19,17,Jits_Phase_5,93,9999,9999,9999,9999,3323025532
19,17,Jits_Phase_5,94,9999,9999,9999,9999,3323525204
19,17,Jits_Phase_5,95,9999,9999,9999,9999,3324025928
19,17,Jits_Phase_5,96,9999,9999,9999,9999,3324525680
19,17,Jits_Phase_5,97,9999,9999,9999,9999,3324975160
19,17,Jits_Phase_5,98,9999,9999,9999,9999,3325475956
19,17,Jits_Phase_5,99,9999,9999,9999,9999,3325975632
19,17,Jits_Phase_5,100,9999,9999,9999,9999,3326475380
19,17,Jits_Phase_5,101,9999,9999,9999,9999,3326976108
19,17,Jits_Phase_5,102,9999,9999,9999,9999,3327486036
19,17,Jits_Phase_5,103,9999,9999,9999,9999,3327985716
19,17,Jits_Phase_5,104,9999,9999,9999,9999,3328485468
19,17,Jits_Phase_5,105,9999,9999,9999,9999,3328985212
19,17,Jits_Phase_5,106,9999,9999,9999,9999,3329485924
19,17,Jits_Phase_5,107,9999,9999,9999,9999,3329985596
19,17,Jits_Phase_5,108,9999,9999,9999,9999,3330485316
19,17,Jits_Phase_5,109,9999,9999,9999,9999,3330986104
19,17,Jits_Phase_5,110,9999,9999,9999,9999,3331485780
19,17,Jits_Phase_5,111,9999,9999,9999,9999,3331985528
19,17,Jits_Phase_5,112,9999,9999,9999,9999,3332485204
19,17,Jits_Phase_5,113,9999,9999,9999,9999,3332985928
19,17,Jits_Phase_5,114,9999,9999,9999,9999,3333535864
19,17,Jits_Phase_5,115,9999,9999,9999,9999,3334035536
19,17,Jits_Phase_5,116,9999,9999,9999,9999,3334535288
19,17,Jits_Phase_5,117,9999,9999,9999,9999,3335036020
19,17,Jits_Phase_5,118,9999,9999,9999,9999,3335535696
19,17,Jits_Phase_5,119,9999,9999,9999,9999,3336035440
19,17,Jits_Phase_5,120,9999,9999,9999,9999,3336535112
19,17,Jits_Phase_5,121,9999,9999,9999,9999,3337035836
19,17,Jits_Phase_5,122,9999,9999,9999,9999,3337535584
19,17,Jits_Phase_5,123,9999,9999,9999,9999,3338035272
19,17,Jits_Phase_5,124,9999,9999,9999,9999,3338535996
19,17,Jits_Phase_5,125,9999,9999,9999,9999,3339035740
19,17,Jits_Phase_5,126,9999,9999,9999,9999,3339535432
19,17,Jits_Phase_5,127,9999,9999,9999,9999,3340035176
19,17,Jits_Phase_5,128,9999,9999,9999,9999,3340535884
19,17,Jits_Phase_5,129,9999,9999,9999,9999,3341035576
19,17,Jits_Phase_5,130,9999,9999,9999,9999,3341535320
19,17,Jits_Phase_5,131,9999,9999,9999,9999,3342135384
19,17,Jits_Phase_5,132,9999,9999,9999,9999,3342635128
19,17,Jits_Phase_5,133,9999,9999,9999,9999,3343135852
19,17,Jits_Phase_5,134,9999,9999,9999,9999,3343635524
19,17,Jits_Phase_5,135,9999,9999,9999,9999,3344135268
19,17,Jits_Phase_5,136,9999,9999,9999,9999,3344636008
19,17,Jits_Phase_5,137,9999,9999,9999,9999,3345135680
19,17,Jits_Phase_5,138,9999,9999,9999,9999,3345635444
19,17,Jits_Phase_5,139,9999,9999,9999,9999,3346135136
19,17,Jits_Phase_5,140,9999,9999,9999,9999,3346635864
19,17,Jits_Phase_5,141,9999,9999,9999,9999,3347135612
19,17,Jits_Phase_5,142,9999,9999,9999,9999,3347635264
19,17,Jits_Phase_5,143,9999,9999,9999,9999,3348136060
19,17,Jits_Phase_5,144,9999,9999,9999,9999,3348635728
19,17,Jits_Phase_5,145,9999,9999,9999,9999,3349135480
19,17,Jits_Phase_5,146,9999,9999,9999,9999,3349635176
19,17,Jits_Phase_5,147,9999,9999,9999,9999,3350135900
19,17,Jits_Phase_5,148,9999,9999,9999,9999,3350635648
19,17,Jits_Phase_5,149,9999,9999,9999,9999,3351135344
19,17,Jits_Phase_5,150,9999,9999,9999,9999,3351535684
19,17,Jits_Phase_5,151,9999,9999,9999,9999,3352035444
19,17,Jits_Phase_5,152,9999,9999,9999,9999,3352535136
19,17,Jits_Phase_5,153,9999,9999,9999,9999,3353035860
19,17,Jits_Phase_5,154,9999,9999,9999,9999,3353535612
19,17,Jits_Phase_5,155,9999,9999,9999,9999,3354035260
19,17,Jits_Phase_5,156,9999,9999,9999,9999,3354536040
19,17,Jits_Phase_5,157,9999,9999,9999,9999,3355035708
19,17,Jits_Phase_5,158,9999,9999,9999,9999,3355535436
19,17,Jits_Phase_5,159,9999,9999,9999,9999,3356035188
19,17,Jits_Phase_5,160,9999,9999,9999,9999,3356535908
19,17,Jits_Phase_5,161,9999,9999,9999,9999,3357035584
19,17,Jits_Phase_5,162,9999,9999,9999,9999,3357535328
19,17,Jits_Phase_5,163,9999,9999,9999,9999,3358036052
19,17,Jits_Phase_5,164,9999,9999,9999,9999,3358535800
19,17,Jits_Phase_5,165,9999,9999,9999,9999,3359035476
19,17,Jits_Phase_5,166,9999,9999,9999,9999,3359535232
19,17,Jits_Phase_5,167,9999,9999,9999,9999,3360035948
19,17,Jits_Phase_5,168,9999,9999,9999,9999,3360535624
19,17,Jits_Phase_5,169,9999,9999,9999,9999,3361035372
20,18,Jits_Linear_8,0,5,56,103,3373461940
20,18,Jits_Linear_8,1,5,63,98,3373464960
20,18,Jits_Linear_8,2,5,80,127,3373468160
20,18,Jits_Linear_8,0,5,56,103,3374282128
20,18,Jits_Linear_8,1,5,63,98,3374285076
20,18,Jits_Linear_8,2,5,80,127,3374288276
20,18,Jits_Linear_8,3,1,48,42,3374372612
20,18,Jits_Linear_8,0,5,80,127,3375041884
20,18,Jits_Linear_8,1,1,48,52,3375105008
20,18,Jits_Linear_8,2,5,63,98,3375132164
20,18,Jits_Linear_8,3,5,56,103,3375142208
20,18,Jits_Linear_8,0,1,48,50,3375871144
20,18,Jits_Linear_8,1,5,56,103,3375881504
20,18,Jits_Linear_8,2,5,63,98,3375892000
20,18,Jits_Linear_8,3,5,80,127,3375982044
20,18,Jits_Linear_8,0,1,48,45,3376611928
20,18,Jits_Linear_8,1,5,63,98,3376672040
20,18,Jits_Linear_8,2,5,80,127,3376702016
20,18,Jits_Linear_8,3,5,56,103,3376731380
20,18,Jits_Linear_8,0,1,48,42,3377397356
20,18,Jits_Linear_8,1,5,56,103,3377492316
20,18,Jits_Linear_8,2,5,80,127,3377591756
20,18,Jits_Linear_8,3,5,63,98,3377641884
20,18,Jits_Linear_8,0,5,56,103,3378302272
20,18,Jits_Linear_8,1,5,80,127,3378351428
20,18,Jits_Linear_8,2,1,48,38,3378382220
20,18,Jits_Linear_8,3,5,63,98,3378392356
20,18,Jits_Linear_8,0,1,48,34,3379102600
20,18,Jits_Linear_8,1,5,80,127,3379142064
20,18,Jits_Linear_8,2,5,63,98,3379171888
20,18,Jits_Linear_8,3,5,56,103,3379242300
20,18,Jits_Linear_8,0,1,48,37,3379914364
20,18,Jits_Linear_8,1,5,63,98,3379981976
20,18,Jits_Linear_8,2,5,56,103,3380012388
20,18,Jits_Linear_8,3,5,80,127,3380071732
20,18,Jits_Linear_8,0,1,48,32,3380680720
20,18,Jits_Linear_8,1,5,56,103,3380732284
20,18,Jits_Linear_8,2,5,80,127,3380735348
20,18,Jits_Linear_8,3,5,63,98,3380851996
20,18,Jits_Linear_8,0,1,48,34,3381440224
20,18,Jits_Linear_8,1,5,56,103,3381611956
20,18,Jits_Linear_8,2,5,80,127,3381651820
20,18,Jits_Linear_8,3,5,63,98,3381662240
20,18,Jits_Linear_8,0,1,48,35,3382315792
20,18,Jits_Linear_8,1,5,56,103,3382371720
20,18,Jits_Linear_8,2,5,80,127,3382392104
20,18,Jits_Linear_8,3,5,63,98,3382472136
20,18,Jits_Linear_8,0,1,48,29,3383087156
20,18,Jits_Linear_8,1,5,80,127,3383162184
20,18,Jits_Linear_8,2,5,56,103,3383261696
20,18,Jits_Linear_8,3,5,63,98,3383271744
20,18,Jits_Linear_8,0,5,63,98,3383932204
20,18,Jits_Linear_8,1,1,48,36,3383964096
20,18,Jits_Linear_8,2,5,80,127,3383991792
20,18,Jits_Linear_8,3,5,56,103,3384001988
20,18,Jits_Linear_8,0,1,48,36,3384650112
20,18,Jits_Linear_8,1,5,56,103,3384731872
20,18,Jits_Linear_8,2,5,63,98,3384801788
20,18,Jits_Linear_8,3,5,80,127,3384805004
20,18,Jits_Linear_8,0,1,48,29,3385409372
20,18,Jits_Linear_8,1,5,63,98,3385561744
20,18,Jits_Linear_8,2,5,56,103,3385611720
20,18,Jits_Linear_8,3,5,80,127,3385614788
20,18,Jits_Linear_8,0,1,48,24,3386261280
20,18,Jits_Linear_8,1,5,56,103,3386311896
20,18,Jits_Linear_8,2,5,80,127,3386315188
20,18,Jits_Linear_8,3,5,63,98,3386402092
20,18,Jits_Linear_8,0,1,48,33,3387088976
20,18,Jits_Linear_8,1,5,63,98,3387141756
20,18,Jits_Linear_8,2,5,56,103,3387231656
20,18,Jits_Linear_8,3,5,80,127,3387262604
20,18,Jits_Linear_8,0,1,48,35,3387862072
20,18,Jits_Linear_8,1,5,56,103,3387921732
20,18,Jits_Linear_8,2,5,63,98,3388022340
20,18,Jits_Linear_8,3,5,80,127,3388051796
20,18,Jits_Linear_8,0,1,48,40,3388665564
20,18,Jits_Linear_8,1,5,63,98,3388731904
20,18,Jits_Linear_8,2,5,56,103,3388742100
20,18,Jits_Linear_8,3,5,80,127,3388831996
20,18,Jits_Linear_8,0,1,48,32,3389441508
20,18,Jits_Linear_8,1,5,63,98,3389531588
20,18,Jits_Linear_8,2,5,56,103,3389612420
20,18,Jits_Linear_8,3,5,80,127,3389615708
20,18,Jits_Linear_8,0,1,48,38,3390224400
20,18,Jits_Linear_8,1,5,80,127,3390271852
20,18,Jits_Linear_8,2,5,63,98,3390292460
20,18,Jits_Linear_8,3,5,56,103,3390351788
20,18,Jits_Linear_8,0,1,48,40,3390954316
20,18,Jits_Linear_8,1,5,56,103,3391092340
20,18,Jits_Linear_8,2,5,63,98,3391111528
20,18,Jits_Linear_8,3,5,80,127,3391114816
20,18,Jits_Linear_8,0,1,48,41,3391721780
20,18,Jits_Linear_8,1,5,63,98,3391811936
20,18,Jits_Linear_8,2,5,80,127,3391891796
20,18,Jits_Linear_8,3,5,56,103,3391902288
20,18,Jits_Linear_8,0,1,48,30,3392473048
20,18,Jits_Linear_8,1,5,63,98,3392611676
20,18,Jits_Linear_8,2,5,56,103,3392632356
20,18,Jits_Linear_8,3,5,80,127,3392682484
20,18,Jits_Linear_8,0,5,80,127,3393391968
20,18,Jits_Linear_8,1,5,63,98,3393431908
20,18,Jits_Linear_8,2,5,56,103,3393452364
20,18,Jits_Linear_8,0,1,48,41,3394003376
20,18,Jits_Linear_8,1,5,56,103,3394202012
20,18,Jits_Linear_8,2,5,63,98,3394212432
20,18,Jits_Linear_8,3,5,80,127,3394231644
20,18,Jits_Linear_8,0,1,48,45,3394788288
20,18,Jits_Linear_8,1,5,56,103,3394902416
20,18,Jits_Linear_8,2,5,63,98,3394991432
20,18,Jits_Linear_8,3,5,80,127,3395051848
20,18,Jits_Linear_8,0,1,48,33,3395547664
20,18,Jits_Linear_8,1,5,80,127,3395702172
20,18,Jits_Linear_8,2,5,56,103,3395712296
20,18,Jits_Linear_8,3,5,63,98,3395782080
20,18,Jits_Linear_8,0,1,48,31,3396323148
20,18,Jits_Linear_8,1,5,63,98,3396501856
20,18,Jits_Linear_8,2,5,80,127,3396592092
20,18,Jits_Linear_8,3,5,56,103,3396602364
20,18,Jits_Linear_8,0,1,48,27,3397098256
20,18,Jits_Linear_8,1,5,63,98,3397202420
20,18,Jits_Linear_8,2,5,80,127,3397251428
20,18,Jits_Linear_8,3,5,56,103,3397312216
20,18,Jits_Linear_8,0,1,48,32,3397831044
20,18,Jits_Linear_8,1,5,56,103,3397991764
20,18,Jits_Linear_8,2,5,80,127,3398041892
20,18,Jits_Linear_8,3,5,63,98,3398061528
20,18,Jits_Linear_8,0,1,48,35,3398527216
20,18,Jits_Linear_8,1,5,56,103,3398721836
20,18,Jits_Linear_8,2,5,80,127,3398782380
20,18,Jits_Linear_8,3,5,63,98,3398852160
20,18,Jits_Linear_8,0,1,48,35,3399245228
20,18,Jits_Linear_8,1,5,56,103,3399481660
20,18,Jits_Linear_8,2,5,80,127,3399512384
20,18,Jits_Linear_8,3,5,63,98,3399542280
20,18,Jits_Linear_8,0,1,48,35,3399949844
20,18,Jits_Linear_8,1,5,56,103,3400281316
20,18,Jits_Linear_8,2,5,80,127,3400302072
20,18,Jits_Linear_8,3,5,63,98,3400362316
20,18,Jits_Linear_8,0,5,80,127,3401122148
20,18,Jits_Linear_8,1,5,56,103,3401132344
20,18,Jits_Linear_8,2,5,63,98,3401141520
20,18,Jits_Linear_8,3,1,48,20,3401323012
20,18,Jits_Linear_8,0,5,56,103,3401831724
20,18,Jits_Linear_8,1,5,80,127,3401871588
20,18,Jits_Linear_8,2,1,48,35,3401878820
20,18,Jits_Linear_8,3,5,63,98,3401901404
20,18,Jits_Linear_8,0,1,48,36,3402520812
20,18,Jits_Linear_8,1,5,56,103,3402551700
20,18,Jits_Linear_8,2,5,63,98,3402582424
20,18,Jits_Linear_8,3,5,80,127,3402622272
20,18,Jits_Linear_8,0,5,80,127,3403252040
20,18,Jits_Linear_8,1,1,48,35,3403261988
20,18,Jits_Linear_8,2,5,63,98,3403302240
20,18,Jits_Linear_8,3,5,56,103,3403322024
20,18,Jits_Linear_8,0,1,48,36,3403954820
20,18,Jits_Linear_8,1,5,56,103,3404032468
20,18,Jits_Linear_8,2,5,80,127,3404101992
20,18,Jits_Linear_8,3,5,63,98,3404162456
20,18,Jits_Linear_8,0,1,48,34,3404689212
20,18,Jits_Linear_8,1,5,80,127,3404771844
20,18,Jits_Linear_8,2,5,63,98,3404861744
20,18,Jits_Linear_8,3,5,56,103,3404882276
20,18,Jits_Linear_8,0,1,48,28,3405485460
20,18,Jits_Linear_8,1,5,63,98,3405531448
20,18,Jits_Linear_8,2,5,56,103,3405552056
20,18,Jits_Linear_8,3,5,80,127,3405592128
20,18,Jits_Linear_8,0,1,48,32,3406147128
20,18,Jits_Linear_8,1,5,80,127,3406231976
20,18,Jits_Linear_8,2,5,63,98,3406252496
20,18,Jits_Linear_8,3,5,56,103,3406332316
20,18,Jits_Linear_8,0,1,48,35,3406896012
20,18,Jits_Linear_8,1,5,63,98,3406962052
20,18,Jits_Linear_8,2,5,56,103,3407071528
20,18,Jits_Linear_8,3,5,80,127,3407074668
20,18,Jits_Linear_8,0,1,48,32,3407647652
20,18,Jits_Linear_8,1,5,63,98,3407721940
20,18,Jits_Linear_8,2,5,56,103,3407732208
20,18,Jits_Linear_8,3,5,80,127,3407735200
20,18,Jits_Linear_8,0,1,48,34,3408314340
20,18,Jits_Linear_8,1,5,56,103,3408441952
20,18,Jits_Linear_8,2,5,80,127,3408561684
20,18,Jits_Linear_8,3,5,63,98,3408601400
20,18,Jits_Linear_8,0,1,48,37,3409131392
20,18,Jits_Linear_8,1,5,56,103,3409192180
20,18,Jits_Linear_8,2,5,80,127,3409272116
20,18,Jits_Linear_8,3,5,63,98,3409291824
20,18,Jits_Linear_8,0,1,48,32,3409820096
20,18,Jits_Linear_8,1,5,56,103,3409922620
20,18,Jits_Linear_8,2,5,63,98,3410031936
20,18,Jits_Linear_8,3,5,80,127,3410035372
20,18,Jits_Linear_8,0,1,48,32,3410536140
20,18,Jits_Linear_8,1,5,56,103,3410682212
20,18,Jits_Linear_8,2,5,80,127,3410711888
20,18,Jits_Linear_8,3,5,63,98,3410732348
20,18,Jits_Linear_8,0,1,48,33,3411219780
20,18,Jits_Linear_8,1,5,63,98,3411391836
20,18,Jits_Linear_8,2,5,56,103,3411402032
20,18,Jits_Linear_8,3,5,80,127,3411412304
20,18,Jits_Linear_8,0,1,48,39,3411833684
20,18,Jits_Linear_8,1,5,80,127,3412101504
20,18,Jits_Linear_8,2,5,56,103,3412151880
20,18,Jits_Linear_8,3,5,63,98,3412191896
20,18,Jits_Linear_8,4,1,48,33,3412433340
20,18,Jits_Linear_8,0,5,80,127,3412841896
20,18,Jits_Linear_8,1,5,63,98,3412862360
20,18,Jits_Linear_8,2,5,56,103,3412911664
20,18,Jits_Linear_8,3,1,48,33,3413043132
20,18,Jits_Linear_8,0,5,80,127,3413572064
20,18,Jits_Linear_8,1,1,48,36,3413594660
20,18,Jits_Linear_8,2,5,56,103,3413601732
20,18,Jits_Linear_8,3,5,63,98,3413672384
20,18,Jits_Linear_8,0,1,48,36,3414302956
20,18,Jits_Linear_8,1,5,56,103,3414341864
20,18,Jits_Linear_8,2,5,80,127,3414352136
20,18,Jits_Linear_8,3,5,63,98,3414392296
20,18,Jits_Linear_8,0,5,56,103,3414971784
20,18,Jits_Linear_8,1,5,63,98,3414992096
20,18,Jits_Linear_8,2,1,48,41,3415017012
20,18,Jits_Linear_8,3,5,80,127,3415061916
20,18,Jits_Linear_8,0,1,48,38,3415619312
20,18,Jits_Linear_8,1,5,63,98,3415712108
20,18,Jits_Linear_8,2,5,80,127,3415771612
20,18,Jits_Linear_8,3,5,56,103,3415791924
20,18,Jits_Linear_8,0,1,48,39,3416311052
20,18,Jits_Linear_8,1,5,80,127,3416411680
20,18,Jits_Linear_8,2,5,56,103,3416442108
20,18,Jits_Linear_8,3,5,63,98,3416471932
20,18,Jits_Linear_8,0,1,48,37,3417051468
20,18,Jits_Linear_8,1,5,56,103,3417122072
20,18,Jits_Linear_8,2,5,63,98,3417181624
20,18,Jits_Linear_8,3,5,80,127,3417241940
20,18,Jits_Linear_8,0,1,48,32,3417777868
20,18,Jits_Linear_8,1,5,80,127,3417852448
20,18,Jits_Linear_8,2,5,56,103,3417871640
20,18,Jits_Linear_8,3,5,63,98,3417942648
20,18,Jits_Linear_8,0,1,48,33,3418451440
20,18,Jits_Linear_8,1,5,80,127,3418561912
20,18,Jits_Linear_8,2,5,63,98,3418582596
20,18,Jits_Linear_8,3,5,56,103,3418612048
20,18,Jits_Linear_8,0,1,48,30,3419115200
20,18,Jits_Linear_8,1,5,80,127,3419262592
20,18,Jits_Linear_8,2,5,63,98,3419281708
20,18,Jits_Linear_8,3,5,56,103,3419342120
20,18,Jits_Linear_8,0,1,48,35,3419801504
20,18,Jits_Linear_8,1,5,80,127,3419961652
20,18,Jits_Linear_8,2,5,56,103,3420061980
20,18,Jits_Linear_8,3,5,63,98,3420091756
20,18,Jits_Linear_8,0,1,48,37,3420554740
20,18,Jits_Linear_8,1,5,63,98,3420651956
20,18,Jits_Linear_8,2,5,80,127,3420702232
20,18,Jits_Linear_8,3,5,56,103,3420721496
20,18,Jits_Linear_8,0,1,48,35,3421301756
20,18,Jits_Linear_8,1,5,80,127,3421392536
20,18,Jits_Linear_8,2,5,56,103,3421421896
20,18,Jits_Linear_8,3,5,63,98,3421425112
20,18,Jits_Linear_8,0,1,48,32,3421994880
20,18,Jits_Linear_8,1,5,63,98,3422122492
20,18,Jits_Linear_8,2,5,56,103,3422162384
20,18,Jits_Linear_8,3,5,80,127,3422181724
20,18,Jits_Linear_8,0,1,48,32,3422746620
20,18,Jits_Linear_8,1,5,80,127,3422762316
20,18,Jits_Linear_8,2,5,63,98,3422842336
20,18,Jits_Linear_8,3,5,56,103,3422882332
20,18,Jits_Linear_8,0,1,48,33,3423435048
20,18,Jits_Linear_8,1,5,63,98,3423471940
20,18,Jits_Linear_8,2,5,80,127,3423551872
20,18,Jits_Linear_8,3,5,56,103,3423572256
20,18,Jits_Linear_8,0,1,48,30,3424197496
20,18,Jits_Linear_8,1,5,56,103,3424202176
20,18,Jits_Linear_8,2,5,63,98,3424212596
20,18,Jits_Linear_8,3,5,80,127,3424252460
20,18,Jits_Linear_8,0,5,56,103,3424812364
20,18,Jits_Linear_8,1,5,80,127,3424815356
20,18,Jits_Linear_8,2,1,48,32,3424836380
20,18,Jits_Linear_8,3,5,63,98,3424951572
20,18,Jits_Linear_8,0,1,48,30,3425446332
20,18,Jits_Linear_8,1,5,56,103,3425492468
20,18,Jits_Linear_8,2,5,63,98,3425581320
20,18,Jits_Linear_8,3,5,80,127,3425652196
20,18,Jits_Linear_8,0,1,48,28,3426100680
20,18,Jits_Linear_8,1,5,63,98,3426252280
20,18,Jits_Linear_8,2,5,80,127,3426255572
20,18,Jits_Linear_8,3,5,56,103,3426311400
20,18,Jits_Linear_8,0,1,48,27,3426800560
20,18,Jits_Linear_8,1,5,80,127,3426972220
20,18,Jits_Linear_8,2,5,56,103,3426991556
20,18,Jits_Linear_8,3,5,63,98,3427001928
20,18,Jits_Linear_8,0,1,48,29,3427501704
20,18,Jits_Linear_8,1,5,56,103,3427561920
20,18,Jits_Linear_8,2,5,63,98,3427572192
20,18,Jits_Linear_8,3,5,80,127,3427641780
20,18,Jits_Linear_8,0,5,80,127,3428241708
20,18,Jits_Linear_8,1,1,48,25,3428245576
20,18,Jits_Linear_8,2,5,56,103,3428291932
20,18,Jits_Linear_8,3,5,63,98,3428342208
20,18,Jits_Linear_8,0,1,48,31,3428939024
20,18,Jits_Linear_8,1,5,56,103,3429001544
20,18,Jits_Linear_8,2,5,63,98,3429011816
20,18,Jits_Linear_8,3,5,80,127,3429051840
20,18,Jits_Linear_8,0,5,56,103,3429622324
20,18,Jits_Linear_8,1,1,48,35,3429631372
20,18,Jits_Linear_8,2,5,63,98,3429662336
20,18,Jits_Linear_8,3,5,80,127,3429712088
20,18,Jits_Linear_8,0,5,80,127,3430252080
20,18,Jits_Linear_8,1,5,56,103,3430302212
20,18,Jits_Linear_8,2,1,48,36,3430307876
20,18,Jits_Linear_8,3,5,63,98,3430321416
20,18,Jits_Linear_8,0,1,48,34,3430906536
20,18,Jits_Linear_8,1,5,80,127,3430932120
20,18,Jits_Linear_8,2,5,63,98,3430992216
20,18,Jits_Linear_8,3,5,56,103,3431072216
20,18,Jits_Linear_8,0,5,80,127,3431582168
20,18,Jits_Linear_8,1,5,56,103,3431622132
20,18,Jits_Linear_8,2,1,48,39,3431632976
20,18,Jits_Linear_8,3,5,63,98,3431641388
20,18,Jits_Linear_8,0,1,48,33,3432226432
20,18,Jits_Linear_8,1,5,56,103,3432301916
20,18,Jits_Linear_8,2,5,80,127,3432312112
20,18,Jits_Linear_8,3,5,63,98,3432352108
20,18,Jits_Linear_8,0,1,48,36,3432892016
20,18,Jits_Linear_8,1,5,56,103,3433032132
20,18,Jits_Linear_8,2,5,63,98,3433072072
20,18,Jits_Linear_8,3,5,80,127,3433075508
20,18,Jits_Linear_8,0,5,63,98,3433581948
20,18,Jits_Linear_8,1,1,48,34,3433595624
20,18,Jits_Linear_8,2,5,80,127,3433622028
20,18,Jits_Linear_8,3,5,56,103,3433691648
20,18,Jits_Linear_8,0,1,48,36,3434220820
20,18,Jits_Linear_8,1,5,63,98,3434232152
20,18,Jits_Linear_8,2,5,56,103,3434311952
20,18,Jits_Linear_8,3,5,80,127,3434371504
20,18,Jits_Linear_8,0,1,48,32,3434854964
20,18,Jits_Linear_8,1,5,80,127,3434901824
20,18,Jits_Linear_8,2,5,63,98,3434951964
20,18,Jits_Linear_8,3,5,56,103,3434981936
20,18,Jits_Linear_8,0,1,48,28,3435501512
20,18,Jits_Linear_8,1,5,56,103,3435552108
20,18,Jits_Linear_8,2,5,63,98,3435602296
20,18,Jits_Linear_8,3,5,80,127,3435611448
20,18,Jits_Linear_8,0,1,48,30,3436183088
20,18,Jits_Linear_8,1,5,56,103,3436222024
20,18,Jits_Linear_8,2,5,63,98,3436332524
20,18,Jits_Linear_8,3,5,80,127,3436351864
20,18,Jits_Linear_8,0,1,48,27,3436863580
20,18,Jits_Linear_8,1,5,63,98,3436872144
20,18,Jits_Linear_8,2,5,80,127,3436922348
20,18,Jits_Linear_8,3,5,56,103,3437012192
20,18,Jits_Linear_8,0,5,63,98,3437512100
20,18,Jits_Linear_8,1,1,48,27,3437536568
20,18,Jits_Linear_8,2,5,80,127,3437541992
20,18,Jits_Linear_8,3,5,56,103,3437631752
20,18,Jits_Linear_8,0,1,48,29,3438135800
20,18,Jits_Linear_8,1,5,63,98,3438162280
20,18,Jits_Linear_8,2,5,56,103,3438171728
20,18,Jits_Linear_8,3,5,80,127,3438271984
20,18,Jits_Linear_8,0,1,48,24,3438797028
20,18,Jits_Linear_8,1,5,63,98,3438922164
20,18,Jits_Linear_8,2,5,80,127,3438951692
20,18,Jits_Linear_8,3,5,56,103,3438981592
20,18,Jits_Linear_8,0,1,48,24,3439517648
20,18,Jits_Linear_8,1,5,80,127,3439581696
20,18,Jits_Linear_8,2,5,63,98,3439591744
20,18,Jits_Linear_8,3,5,56,103,3439621628
20,18,Jits_Linear_8,0,5,80,127,3440122288
20,18,Jits_Linear_8,1,5,63,98,3440141628
20,18,Jits_Linear_8,2,5,56,103,3440191976
20,18,Jits_Linear_8,3,1,48,20,3440206252
20,18,Jits_Linear_8,0,5,63,98,3440791896
20,18,Jits_Linear_8,1,1,48,20,3440818412
20,18,Jits_Linear_8,2,5,80,127,3440852532
20,18,Jits_Linear_8,3,5,56,103,3440871644
20,18,Jits_Linear_8,0,5,63,98,3441391840
20,18,Jits_Linear_8,1,5,56,103,3441442116
20,18,Jits_Linear_8,2,5,80,127,3441452832
20,18,Jits_Linear_8,3,1,48,21,3441461284
20,18,Jits_Linear_8,0,5,56,103,3442061580
20,18,Jits_Linear_8,1,5,80,127,3442072000
20,18,Jits_Linear_8,2,1,48,20,3442083212
20,18,Jits_Linear_8,3,5,63,98,3442172336
20,18,Jits_Linear_8,0,5,80,127,3442661832
20,18,Jits_Linear_8,1,5,63,98,3442672032
20,18,Jits_Linear_8,2,1,48,19,3442717176
20,18,Jits_Linear_8,3,5,56,103,3442821848
20,18,Jits_Linear_8,0,5,63,98,3443301776
20,18,Jits_Linear_8,1,5,80,127,3443341640
20,18,Jits_Linear_8,2,1,48,19,3443349396
20,18,Jits_Linear_8,3,5,56,103,3443421604
20,18,Jits_Linear_8,0,5,56,103,3443922168
20,18,Jits_Linear_8,1,5,80,127,3444021668
20,18,Jits_Linear_8,2,5,63,98,3444042128
20,18,Jits_Linear_8,0,5,80,127,3444611592
20,18,Jits_Linear_8,1,5,56,103,3444621640
20,18,Jits_Linear_8,2,1,48,16,3444640644
20,18,Jits_Linear_8,3,5,63,98,3444711788
20,18,Jits_Linear_8,0,5,56,103,3445251632
20,18,Jits_Linear_8,1,1,48,20,3445257300
20,18,Jits_Linear_8,2,5,63,98,3445271864
20,18,Jits_Linear_8,3,5,80,127,3445351732
20,18,Jits_Linear_8,0,5,63,98,3445842648
20,18,Jits_Linear_8,1,5,56,103,3445932484
20,18,Jits_Linear_8,2,1,48,17,3445934520
20,18,Jits_Linear_8,3,5,80,127,3445937136
20,18,Jits_Linear_8,0,5,56,103,3446491584
20,18,Jits_Linear_8,1,5,80,127,3446551976
20,18,Jits_Linear_8,2,5,63,98,3446562100
20,18,Jits_Linear_8,0,5,80,127,3447162352
20,18,Jits_Linear_8,1,5,56,103,3447171500
20,18,Jits_Linear_8,2,5,63,98,3447174568
20,18,Jits_Linear_8,0,5,56,103,3447741664
20,18,Jits_Linear_8,1,5,80,127,3447752528
20,18,Jits_Linear_8,2,5,63,98,3447771496
20,18,Jits_Linear_8,3,1,48,21,3447783832
20,18,Jits_Linear_8,0,1,48,25,3448329664
20,18,Jits_Linear_8,1,5,63,98,3448331476
20,18,Jits_Linear_8,2,5,80,127,3448392016
20,18,Jits_Linear_8,3,5,56,103,3448442352
20,18,Jits_Linear_8,0,1,48,22,3449013360
20,18,Jits_Linear_8,1,5,63,98,3449032188
20,18,Jits_Linear_8,2,5,56,103,3449042236
20,18,Jits_Linear_8,3,5,80,127,3449091392
20,18,Jits_Linear_8,0,5,63,98,3449541988
20,18,Jits_Linear_8,1,5,80,127,3449561548
20,18,Jits_Linear_8,2,5,56,103,3449571672
20,18,Jits_Linear_8,3,1,48,31,3449668804
20,18,Jits_Linear_8,0,1,48,29,3450137964
20,18,Jits_Linear_8,1,5,63,98,3450152456
20,18,Jits_Linear_8,2,5,80,127,3450155816
20,18,Jits_Linear_8,3,5,56,103,3450192392
20,18,Jits_Linear_8,0,1,48,37,3450704904
20,18,Jits_Linear_8,1,5,63,98,3450832460
20,18,Jits_Linear_8,2,5,80,127,3450862064
20,18,Jits_Linear_8,3,5,56,103,3450872412
20,18,Jits_Linear_8,0,5,56,103,3451392252
20,18,Jits_Linear_8,1,1,48,39,3451419112
20,18,Jits_Linear_8,2,5,80,127,3451422220
20,18,Jits_Linear_8,3,5,63,98,3451451744
20,18,Jits_Linear_8,0,1,48,42,3451993044
20,18,Jits_Linear_8,1,5,63,98,3452091908
20,18,Jits_Linear_8,2,5,56,103,3452131620
20,18,Jits_Linear_8,3,5,80,127,3452134612
20,18,Jits_Linear_8,0,5,80,127,3452591452
20,18,Jits_Linear_8,1,1,48,40,3452605352
20,18,Jits_Linear_8,2,5,56,103,3452672364
20,18,Jits_Linear_8,3,5,63,98,3452721504
20,18,Jits_Linear_8,0,5,80,127,3453172280
20,18,Jits_Linear_8,1,5,56,103,3453191544
20,18,Jits_Linear_8,2,1,48,40,3453214216
20,18,Jits_Linear_8,3,5,63,98,3453281524
20,18,Jits_Linear_8,0,1,48,44,3453798844
20,18,Jits_Linear_8,1,5,80,127,3453812288
20,18,Jits_Linear_8,2,5,63,98,3453852228
20,18,Jits_Linear_8,3,5,56,103,3453892252
20,18,Jits_Linear_8,0,1,48,44,3454378680
20,18,Jits_Linear_8,1,5,63,98,3454381416
20,18,Jits_Linear_8,2,5,80,127,3454441980
20,18,Jits_Linear_8,3,5,56,103,3454471580
20,18,Jits_Linear_8,0,1,48,42,3454968212
20,18,Jits_Linear_8,1,5,56,103,3454981436
20,18,Jits_Linear_8,2,5,80,127,3455012308
20,18,Jits_Linear_8,3,5,63,98,3455102276
20,18,Jits_Linear_8,0,5,56,103,3455581512
20,18,Jits_Linear_8,1,1,48,41,3455585676
20,18,Jits_Linear_8,2,5,80,127,3455692252
20,18,Jits_Linear_8,3,5,63,98,3455722004
20,18,Jits_Linear_8,0,1,48,38,3456195152
20,18,Jits_Linear_8,1,5,56,103,3456221484
20,18,Jits_Linear_8,2,5,63,98,3456282100
20,18,Jits_Linear_8,3,5,80,127,3456311536
20,18,Jits_Linear_8,0,5,56,103,3456781780
20,18,Jits_Linear_8,1,1,48,39,3456789012
20,18,Jits_Linear_8,2,5,63,98,3456852280
20,18,Jits_Linear_8,3,5,80,127,3456872140
20,18,Jits_Linear_8,0,5,80,127,3457341932
20,18,Jits_Linear_8,1,5,63,98,3457362392
20,18,Jits_Linear_8,2,1,48,32,3457390540
20,18,Jits_Linear_8,3,5,56,103,3457411392
20,18,Jits_Linear_8,0,1,48,26,3457926320
20,18,Jits_Linear_8,1,5,63,98,3457952048
20,18,Jits_Linear_8,2,5,80,127,3457962316
20,18,Jits_Linear_8,3,5,56,103,3458011496
20,18,Jits_Linear_8,0,5,63,98,3458531840
20,18,Jits_Linear_8,1,1,48,26,3458547768
20,18,Jits_Linear_8,2,5,80,127,3458602340
20,18,Jits_Linear_8,3,5,56,103,3458621900
20,18,Jits_Linear_8,0,1,48,27,3459115468
20,18,Jits_Linear_8,1,5,63,98,3459142092
20,18,Jits_Linear_8,2,5,80,127,3459145604
20,18,Jits_Linear_8,3,5,56,103,3459211624
20,18,Jits_Linear_8,0,5,80,127,3459672412
20,18,Jits_Linear_8,1,5,56,103,3459692048
20,18,Jits_Linear_8,2,5,63,98,3459702168
20,18,Jits_Linear_8,3,1,48,23,3459715920
20,18,Jits_Linear_8,0,1,48,19,3460237388
20,18,Jits_Linear_8,1,5,56,103,3460271608
20,18,Jits_Linear_8,2,5,63,98,3460361580
20,18,Jits_Linear_8,3,5,80,127,3460365240
20,18,Jits_Linear_8,0,1,48,18,3460808028
20,18,Jits_Linear_8,1,5,80,127,3460822444
20,18,Jits_Linear_8,2,5,56,103,3460831596
20,18,Jits_Linear_8,3,5,63,98,3460852056
20,18,Jits_Linear_8,0,1,48,14,3461366808
20,18,Jits_Linear_8,1,5,63,98,3461391864
20,18,Jits_Linear_8,2,5,80,127,3461452108
20,18,Jits_Linear_8,3,5,56,103,3461462288
20,18,Jits_Linear_8,0,1,48,19,3461986876
20,18,Jits_Linear_8,1,5,63,98,3462031788
20,18,Jits_Linear_8,2,5,80,127,3462061468
20,18,Jits_Linear_8,3,5,56,103,3462102240
20,18,Jits_Linear_8,0,1,48,23,3462570780
20,18,Jits_Linear_8,1,5,56,103,3462591808
20,18,Jits_Linear_8,2,5,80,127,3462602228
20,18,Jits_Linear_8,3,5,63,98,3462642092
20,18,Jits_Linear_8,0,5,80,127,3463122352
20,18,Jits_Linear_8,1,1,48,24,3463146676
20,18,Jits_Linear_8,2,5,56,103,3463202220
20,18,Jits_Linear_8,3,5,63,98,3463212564
20,18,Jits_Linear_8,0,5,80,127,3463731512
20,18,Jits_Linear_8,1,1,48,18,3463739264
20,18,Jits_Linear_8,2,5,56,103,3463811380
20,18,Jits_Linear_8,3,5,63,98,3463821944
20,18,Jits_Linear_8,0,5,80,127,3464251884
20,18,Jits_Linear_8,1,5,56,103,3464301940
20,18,Jits_Linear_8,2,5,63,98,3464352068
20,18,Jits_Linear_8,0,5,56,103,3464872236
20,18,Jits_Linear_8,1,5,63,98,3464875300
20,18,Jits_Linear_8,2,1,48,18,3464900036
20,18,Jits_Linear_8,3,5,80,127,3464921408
20,18,Jits_Linear_8,0,5,56,103,3465451888
20,18,Jits_Linear_8,1,1,48,14,3465459420
20,18,Jits_Linear_8,2,5,63,98,3465481484
20,18,Jits_Linear_8,3,5,80,127,3465491832
20,18,Jits_Linear_8,0,5,63,98,3465921992
20,18,Jits_Linear_8,1,5,56,103,3465991528
20,18,Jits_Linear_8,2,5,80,127,3466041804
20,18,Jits_Linear_8,0,5,63,98,3466511688
20,18,Jits_Linear_8,1,5,56,103,3466522104
20,18,Jits_Linear_8,2,5,80,127,3466525024
20,18,Jits_Linear_8,3,1,48,17,3466539080
20,18,Jits_Linear_8,0,5,80,127,3467011424
20,18,Jits_Linear_8,1,1,48,18,3467065184
20,18,Jits_Linear_8,2,5,56,103,3467071812
20,18,Jits_Linear_8,3,5,63,98,3467162076
20,18,Jits_Linear_8,0,5,80,127,3467562284
20,18,Jits_Linear_8,1,1,48,21,3467589220
20,18,Jits_Linear_8,2,5,56,103,3467661780
20,18,Jits_Linear_8,3,5,63,98,3467701732
20,18,Jits_Linear_8,0,5,56,103,3468162376
20,18,Jits_Linear_8,1,5,63,98,3468182012
20,18,Jits_Linear_8,2,1,48,19,3468201616
20,18,Jits_Linear_8,3,5,80,127,3468221968
20,18,Jits_Linear_8,0,5,63,98,3468681688
20,18,Jits_Linear_8,1,5,56,103,3468702000
20,18,Jits_Linear_8,2,5,80,127,3468802420
20,18,Jits_Linear_8,0,5,63,98,3469212040
20,18,Jits_Linear_8,1,5,80,127,3469321684
20,18,Jits_Linear_8,2,5,56,103,3469352256
20,18,Jits_Linear_8,0,5,56,103,3469772092
20,18,Jits_Linear_8,1,5,63,98,3469801916
20,18,Jits_Linear_8,2,5,80,127,3469852044
20,18,Jits_Linear_8,0,5,63,98,3470282152
20,18,Jits_Linear_8,1,5,56,103,3470311904
20,18,Jits_Linear_8,2,1,48,14,3470325884
20,18,Jits_Linear_8,3,5,80,127,3470362096
20,18,Jits_Linear_8,0,1,48,21,3470846072
20,18,Jits_Linear_8,1,5,56,103,3470851572
20,18,Jits_Linear_8,2,5,63,98,3470871808
20,18,Jits_Linear_8,3,5,80,127,3470951736
20,18,Jits_Linear_8,0,5,63,98,3471362416
20,18,Jits_Linear_8,1,5,56,103,3471421688
20,18,Jits_Linear_8,2,1,48,23,3471436488
20,18,Jits_Linear_8,3,5,80,127,3471451652
20,18,Jits_Linear_8,0,5,56,103,3471941956
20,18,Jits_Linear_8,1,1,48,20,3471950928
20,18,Jits_Linear_8,2,5,80,127,3472002416
20,18,Jits_Linear_8,3,5,63,98,3472042576
20,18,Jits_Linear_8,0,5,63,98,3472452064
20,18,Jits_Linear_8,1,5,56,103,3472512308
20,18,Jits_Linear_8,2,1,48,21,3472529748
20,18,Jits_Linear_8,3,5,80,127,3472582080
20,18,Jits_Linear_8,0,1,48,16,3473051212
20,18,Jits_Linear_8,1,5,56,103,3473062544
20,18,Jits_Linear_8,2,5,63,98,3473071496
20,18,Jits_Linear_8,3,5,80,127,3473074860
20,18,Jits_Linear_8,0,5,63,98,3473532408
20,18,Jits_Linear_8,1,5,56,103,3473591700
20,18,Jits_Linear_8,2,1,48,19,3473592684
20,18,Jits_Linear_8,3,5,80,127,3473595956
20,18,Jits_Linear_8,0,5,63,98,3474042184
20,18,Jits_Linear_8,1,1,48,18,3474049436
20,18,Jits_Linear_8,2,5,80,127,3474071856
20,18,Jits_Linear_8,3,5,56,103,3474092612
20,18,Jits_Linear_8,0,1,48,19,3474504812
20,18,Jits_Linear_8,1,5,56,103,3474571672
20,18,Jits_Linear_8,2,5,63,98,3474621664
20,18,Jits_Linear_8,3,5,80,127,3474701608
20,18,Jits_Linear_8,0,1,48,25,3475058728
20,18,Jits_Linear_8,1,5,80,127,3475072396
20,18,Jits_Linear_8,2,5,63,98,3475112412
20,18,Jits_Linear_8,3,5,56,103,3475131700
20,18,Jits_Linear_8,0,1,48,17,3475647960
20,18,Jits_Linear_8,1,5,56,103,3475662080
20,18,Jits_Linear_8,2,5,80,127,3475672424
20,18,Jits_Linear_8,3,5,63,98,3475691764
20,18,Jits_Linear_8,0,5,56,103,3476161768
20,18,Jits_Linear_8,1,5,63,98,3476212048
20,18,Jits_Linear_8,2,1,48,13,3476236816
20,18,Jits_Linear_8,3,5,80,127,3476241716
20,18,Jits_Linear_8,0,5,56,103,3476631992
20,18,Jits_Linear_8,1,5,63,98,3476642336
20,18,Jits_Linear_8,2,5,80,127,3476692488
20,18,Jits_Linear_8,0,5,56,103,3477141976
20,18,Jits_Linear_8,1,5,80,127,3477144892
20,18,Jits_Linear_8,2,5,63,98,3477301584
20,18,Jits_Linear_8,0,5,63,98,3477672332
20,18,Jits_Linear_8,1,5,56,103,3477741820
20,18,Jits_Linear_8,2,5,80,127,3477781908
20,18,Jits_Linear_8,0,1,48,27,3478134852
20,18,Jits_Linear_8,1,5,63,98,3478222336
20,18,Jits_Linear_8,2,5,56,103,3478312456
20,18,Jits_Linear_8,3,5,80,127,3478315448
20,18,Jits_Linear_8,0,1,48,29,3478709488
20,18,Jits_Linear_8,1,5,56,103,3478711600
20,18,Jits_Linear_8,2,5,63,98,3478801664
20,18,Jits_Linear_8,3,5,80,127,3478811992
20,18,Jits_Linear_8,0,5,56,103,3479191784
20,18,Jits_Linear_8,1,5,63,98,3479242160
20,18,Jits_Linear_8,2,1,48,27,3479256892
20,18,Jits_Linear_8,3,5,80,127,3479271684
20,18,Jits_Linear_8,0,1,48,30,3479723732
20,18,Jits_Linear_8,1,5,63,98,3479781780
20,18,Jits_Linear_8,2,5,80,127,3479791976
20,18,Jits_Linear_8,3,5,56,103,3479852352
20,18,Jits_Linear_8,0,5,63,98,3480201576
20,18,Jits_Linear_8,1,5,80,127,3480261996
20,18,Jits_Linear_8,2,1,48,22,3480284744
20,18,Jits_Linear_8,3,5,56,103,3480301928
20,18,Jits_Linear_8,0,1,48,17,3480737476
20,18,Jits_Linear_8,1,5,56,103,3480801600
20,18,Jits_Linear_8,2,5,80,127,3480822208
20,18,Jits_Linear_8,3,5,63,98,3480841604
20,18,Jits_Linear_8,0,5,63,98,3481221472
20,18,Jits_Linear_8,1,5,56,103,3481242304
20,18,Jits_Linear_8,2,1,48,21,3481266280
20,18,Jits_Linear_8,3,5,80,127,3481282040
20,18,Jits_Linear_8,0,5,63,98,3481731416
20,18,Jits_Linear_8,1,1,48,17,3481748540
20,18,Jits_Linear_8,2,5,80,127,3481762504
20,18,Jits_Linear_8,3,5,56,103,3481781572
20,18,Jits_Linear_8,0,5,80,127,3482201412
20,18,Jits_Linear_8,1,5,56,103,3482251616
20,18,Jits_Linear_8,2,1,48,19,3482255856
20,18,Jits_Linear_8,3,5,63,98,3482312248
20,18,Jits_Linear_8,0,5,63,98,3482681624
20,18,Jits_Linear_8,1,1,48,29,3482726624
20,18,Jits_Linear_8,2,5,56,103,3482801524
20,18,Jits_Linear_8,3,5,80,127,3482832456
20,18,Jits_Linear_8,0,1,48,28,3483202628
20,18,Jits_Linear_8,1,5,80,127,3483212164
20,18,Jits_Linear_8,2,5,63,98,3483231724
20,18,Jits_Linear_8,3,5,56,103,3483302292
20,18,Jits_Linear_8,0,1,48,27,3483700512
20,18,Jits_Linear_8,1,5,63,98,3483722332
20,18,Jits_Linear_8,2,5,56,103,3483732380
20,18,Jits_Linear_8,3,5,80,127,3483812236
20,18,Jits_Linear_8,0,1,48,17,3484209340
20,18,Jits_Linear_8,1,5,56,103,3484272068
20,18,Jits_Linear_8,2,5,80,127,3484301668
20,18,Jits_Linear_8,3,5,63,98,3484311776
20,18,Jits_Linear_8,0,9999,9999,9999,9999,3373869128
20,18,Jits_Linear_8,1,9999,9999,9999,9999,3374689344
20,18,Jits_Linear_8,2,9999,9999,9999,9999,3375509564
20,18,Jits_Linear_8,3,9999,9999,9999,9999,3376329808
20,18,Jits_Linear_8,4,9999,9999,9999,9999,3377150012
20,18,Jits_Linear_8,5,9999,9999,9999,9999,3377960032
20,18,Jits_Linear_8,6,9999,9999,9999,9999,3378769972
20,18,Jits_Linear_8,7,9999,9999,9999,9999,3379580004
20,18,Jits_Linear_8,8,9999,9999,9999,9999,3380389956
20,18,Jits_Linear_8,9,9999,9999,9999,9999,3381199984
20,18,Jits_Linear_8,10,9999,9999,9999,9999,3381999672
20,18,Jits_Linear_8,11,9999,9999,9999,9999,3382799424
20,18,Jits_Linear_8,12,9999,9999,9999,9999,3383599184
20,18,Jits_Linear_8,13,9999,9999,9999,9999,3384399980
20,18,Jits_Linear_8,14,9999,9999,9999,9999,3385199720
20,18,Jits_Linear_8,15,9999,9999,9999,9999,3385989204
20,18,Jits_Linear_8,16,9999,9999,9999,9999,3386779724
20,18,Jits_Linear_8,17,9999,9999,9999,9999,3387569220
20,18,Jits_Linear_8,18,9999,9999,9999,9999,3388359780
20,18,Jits_Linear_8,19,9999,9999,9999,9999,3389149272
20,18,Jits_Linear_8,20,9999,9999,9999,9999,3389929548
20,18,Jits_Linear_8,21,9999,9999,9999,9999,3390709816
20,18,Jits_Linear_8,22,9999,9999,9999,9999,3391489112
20,18,Jits_Linear_8,23,9999,9999,9999,9999,3392269384
20,18,Jits_Linear_8,24,9999,9999,9999,9999,3393049656
20,18,Jits_Linear_8,25,9999,9999,9999,9999,3393819760
20,18,Jits_Linear_8,26,9999,9999,9999,9999,3394589800
20,18,Jits_Linear_8,27,9999,9999,9999,9999,3395359812
20,18,Jits_Linear_8,28,9999,9999,9999,9999,3396129892
20,18,Jits_Linear_8,29,9999,9999,9999,9999,3396899916
20,18,Jits_Linear_8,30,9999,9999,9999,9999,3397659736
20,18,Jits_Linear_8,31,9999,9999,9999,9999,3398419556
20,18,Jits_Linear_8,32,9999,9999,9999,9999,3399179376
20,18,Jits_Linear_8,33,9999,9999,9999,9999,3399939192
20,18,Jits_Linear_8,34,9999,9999,9999,9999,3400699964
20,18,Jits_Linear_8,35,9999,9999,9999,9999,3401449536
20,18,Jits_Linear_8,36,9999,9999,9999,9999,3402199112
20,18,Jits_Linear_8,37,9999,9999,9999,9999,3402949740
20,18,Jits_Linear_8,38,9999,9999,9999,9999,3403699292
20,18,Jits_Linear_8,39,9999,9999,9999,9999,3404449892
20,18,Jits_Linear_8,40,9999,9999,9999,9999,3405189188
20,18,Jits_Linear_8,41,9999,9999,9999,9999,3405929532
20,18,Jits_Linear_8,42,9999,9999,9999,9999,3406669944
20,18,Jits_Linear_8,43,9999,9999,9999,9999,3407409232
20,18,Jits_Linear_8,44,9999,9999,9999,9999,3408149560
20,18,Jits_Linear_8,45,9999,9999,9999,9999,3408879696
20,18,Jits_Linear_8,46,9999,9999,9999,9999,3409609848
20,18,Jits_Linear_8,47,9999,9999,9999,9999,3410339896
20,18,Jits_Linear_8,48,9999,9999,9999,9999,3411070048
20,18,Jits_Linear_8,49,9999,9999,9999,9999,3411799152
20,18,Jits_Linear_8,50,9999,9999,9999,9999,3412520000
20,18,Jits_Linear_8,51,9999,9999,9999,9999,3413239928
20,18,Jits_Linear_8,52,9999,9999,9999,9999,3413959760
20,18,Jits_Linear_8,53,9999,9999,9999,9999,3414679644
20,18,Jits_Linear_8,54,9999,9999,9999,9999,3415399532
20,18,Jits_Linear_8,55,9999,9999,9999,9999,3416109176
20,18,Jits_Linear_8,56,9999,9999,9999,9999,3416819772
20,18,Jits_Linear_8,57,9999,9999,9999,9999,3417529400
20,18,Jits_Linear_8,58,9999,9999,9999,9999,3418240124
20,18,Jits_Linear_8,59,9999,9999,9999,9999,3418959936
20,18,Jits_Linear_8,60,9999,9999,9999,9999,3419659372
20,18,Jits_Linear_8,61,9999,9999,9999,9999,3420359788
20,18,Jits_Linear_8,62,9999,9999,9999,9999,3421059200
20,18,Jits_Linear_8,63,9999,9999,9999,9999,3421759600
20,18,Jits_Linear_8,64,9999,9999,9999,9999,3422460020
20,18,Jits_Linear_8,65,9999,9999,9999,9999,3423149168
20,18,Jits_Linear_8,66,9999,9999,9999,9999,3423839316
20,18,Jits_Linear_8,67,9999,9999,9999,9999,3424529468
20,18,Jits_Linear_8,68,9999,9999,9999,9999,3425219680
20,18,Jits_Linear_8,69,9999,9999,9999,9999,3425909816
20,18,Jits_Linear_8,70,9999,9999,9999,9999,3426589772
20,18,Jits_Linear_8,71,9999,9999,9999,9999,3427269736
20,18,Jits_Linear_8,72,9999,9999,9999,9999,3427949668
20,18,Jits_Linear_8,73,9999,9999,9999,9999,3428629628
20,18,Jits_Linear_8,74,9999,9999,9999,9999,3429309536
20,18,Jits_Linear_8,75,9999,9999,9999,9999,3429979212
20,18,Jits_Linear_8,76,9999,9999,9999,9999,3430649964
20,18,Jits_Linear_8,77,9999,9999,9999,9999,3431319652
20,18,Jits_Linear_8,78,9999,9999,9999,9999,3431989340
20,18,Jits_Linear_8,79,9999,9999,9999,9999,3432660096
20,18,Jits_Linear_8,80,9999,9999,9999,9999,3433319504
20,18,Jits_Linear_8,81,9999,9999,9999,9999,3433979980
20,18,Jits_Linear_8,82,9999,9999,9999,9999,3434639464
20,18,Jits_Linear_8,83,9999,9999,9999,9999,3435299936
20,18,Jits_Linear_8,84,9999,9999,9999,9999,3435959364
20,18,Jits_Linear_8,85,9999,9999,9999,9999,3436609632
20,18,Jits_Linear_8,86,9999,9999,9999,9999,3437259848
20,18,Jits_Linear_8,87,9999,9999,9999,9999,3437910108
20,18,Jits_Linear_8,88,9999,9999,9999,9999,3438569536
20,18,Jits_Linear_8,89,9999,9999,9999,9999,3439219808
20,18,Jits_Linear_8,90,9999,9999,9999,9999,3439859768
20,18,Jits_Linear_8,91,9999,9999,9999,9999,3440499768
20,18,Jits_Linear_8,92,9999,9999,9999,9999,3441139812
20,18,Jits_Linear_8,93,9999,9999,9999,9999,3441779808
20,18,Jits_Linear_8,94,9999,9999,9999,9999,3442419828
20,18,Jits_Linear_8,95,9999,9999,9999,9999,3443049580
20,18,Jits_Linear_8,96,9999,9999,9999,9999,3443679356
20,18,Jits_Linear_8,97,9999,9999,9999,9999,3444310088
20,18,Jits_Linear_8,98,9999,9999,9999,9999,3444950140
20,18,Jits_Linear_8,99,9999,9999,9999,9999,3445590084
20,18,Jits_Linear_8,100,9999,9999,9999,9999,3446219848
20,18,Jits_Linear_8,101,9999,9999,9999,9999,3446839424
20,18,Jits_Linear_8,102,9999,9999,9999,9999,3447459912
20,18,Jits_Linear_8,103,9999,9999,9999,9999,3448079436
20,18,Jits_Linear_8,104,9999,9999,9999,9999,3448699972
20,18,Jits_Linear_8,105,9999,9999,9999,9999,3449309292
20,18,Jits_Linear_8,106,9999,9999,9999,9999,3449919540
20,18,Jits_Linear_8,107,9999,9999,9999,9999,3450529860
20,18,Jits_Linear_8,108,9999,9999,9999,9999,3451139172
20,18,Jits_Linear_8,109,9999,9999,9999,9999,3451749504
20,18,Jits_Linear_8,110,9999,9999,9999,9999,3452349536
20,18,Jits_Linear_8,111,9999,9999,9999,9999,3452949608
20,18,Jits_Linear_8,112,9999,9999,9999,9999,3453549688
20,18,Jits_Linear_8,113,9999,9999,9999,9999,3454149720
20,18,Jits_Linear_8,114,9999,9999,9999,9999,3454749788
20,18,Jits_Linear_8,115,9999,9999,9999,9999,3455339596
20,18,Jits_Linear_8,116,9999,9999,9999,9999,3455929432
20,18,Jits_Linear_8,117,9999,9999,9999,9999,3456519264
20,18,Jits_Linear_8,118,9999,9999,9999,9999,3457110116
20,18,Jits_Linear_8,119,9999,9999,9999,9999,3457709152
20,18,Jits_Linear_8,120,9999,9999,9999,9999,3458289776
20,18,Jits_Linear_8,121,9999,9999,9999,9999,3458869320
20,18,Jits_Linear_8,122,9999,9999,9999,9999,3459449976
20,18,Jits_Linear_8,123,9999,9999,9999,9999,3460029536
20,18,Jits_Linear_8,124,9999,9999,9999,9999,3460609088
20,18,Jits_Linear_8,125,9999,9999,9999,9999,3461179480
20,18,Jits_Linear_8,126,9999,9999,9999,9999,3461749872
20,18,Jits_Linear_8,127,9999,9999,9999,9999,3462319184
20,18,Jits_Linear_8,128,9999,9999,9999,9999,3462889584
20,18,Jits_Linear_8,129,9999,9999,9999,9999,3463459912
20,18,Jits_Linear_8,130,9999,9999,9999,9999,3464020072
20,18,Jits_Linear_8,131,9999,9999,9999,9999,3464579196
20,18,Jits_Linear_8,132,9999,9999,9999,9999,3465139308
20,18,Jits_Linear_8,133,9999,9999,9999,9999,3465699396
20,18,Jits_Linear_8,134,9999,9999,9999,9999,3466259572
20,18,Jits_Linear_8,135,9999,9999,9999,9999,3466809444
20,18,Jits_Linear_8,136,9999,9999,9999,9999,3467359320
20,18,Jits_Linear_8,137,9999,9999,9999,9999,3467909208
20,18,Jits_Linear_8,138,9999,9999,9999,9999,3468459100
20,18,Jits_Linear_8,139,9999,9999,9999,9999,3469010000
20,18,Jits_Linear_8,140,9999,9999,9999,9999,3469549648
20,18,Jits_Linear_8,141,9999,9999,9999,9999,3470089288
20,18,Jits_Linear_8,142,9999,9999,9999,9999,3470629968
20,18,Jits_Linear_8,143,9999,9999,9999,9999,3471169652
20,18,Jits_Linear_8,144,9999,9999,9999,9999,3471709260
20,18,Jits_Linear_8,145,9999,9999,9999,9999,3472239732
20,18,Jits_Linear_8,146,9999,9999,9999,9999,3472769096
20,18,Jits_Linear_8,147,9999,9999,9999,9999,3473299560
20,18,Jits_Linear_8,148,9999,9999,9999,9999,3473829948
20,18,Jits_Linear_8,149,9999,9999,9999,9999,3474359384
20,18,Jits_Linear_8,150,9999,9999,9999,9999,3474879592
20,18,Jits_Linear_8,151,9999,9999,9999,9999,3475399792
20,18,Jits_Linear_8,152,9999,9999,9999,9999,3475919928
20,18,Jits_Linear_8,153,9999,9999,9999,9999,3476439168
20,18,Jits_Linear_8,154,9999,9999,9999,9999,3476959328
20,18,Jits_Linear_8,155,9999,9999,9999,9999,3477469304
20,18,Jits_Linear_8,156,9999,9999,9999,9999,3477979224
20,18,Jits_Linear_8,157,9999,9999,9999,9999,3478489176
20,18,Jits_Linear_8,158,9999,9999,9999,9999,3478999120
20,18,Jits_Linear_8,159,9999,9999,9999,9999,3479510108
20,18,Jits_Linear_8,160,9999,9999,9999,9999,3480020072
20,18,Jits_Linear_8,161,9999,9999,9999,9999,3480519752
20,18,Jits_Linear_8,162,9999,9999,9999,9999,3481019516
20,18,Jits_Linear_8,163,9999,9999,9999,9999,3481519192
20,18,Jits_Linear_8,164,9999,9999,9999,9999,3482019896
20,18,Jits_Linear_8,165,9999,9999,9999,9999,3482509376
20,18,Jits_Linear_8,166,9999,9999,9999,9999,3482999928
20,18,Jits_Linear_8,167,9999,9999,9999,9999,3483489344
20,18,Jits_Linear_8,168,9999,9999,9999,9999,3483979884
20,18,Jits_Linear_8,169,9999,9999,9999,9999,3484469312
21,19,Jits_Linear_5,0,5,56,103,3495044496
21,19,Jits_Linear_5,1,5,63,98,3495047592
21,19,Jits_Linear_5,2,5,80,127,3495050716
21,19,Jits_Linear_5,0,1,48,49,3495289816
21,19,Jits_Linear_5,1,5,56,103,3495524708
21,19,Jits_Linear_5,2,5,63,98,3495527808
21,19,Jits_Linear_5,3,5,80,127,3495531004
21,19,Jits_Linear_5,4,1,48,50,3495727888
21,19,Jits_Linear_5,0,5,56,103,3496004912
21,19,Jits_Linear_5,1,5,80,127,3496015256
21,19,Jits_Linear_5,2,5,63,98,3496034892
21,19,Jits_Linear_5,3,1,48,49,3496138124
21,19,Jits_Linear_5,0,5,63,98,3496434936
21,19,Jits_Linear_5,1,5,80,127,3496464836
21,19,Jits_Linear_5,2,5,56,103,3496474956
21,19,Jits_Linear_5,3,1,48,51,3496545504
21,19,Jits_Linear_5,0,1,48,52,3496955568
21,19,Jits_Linear_5,1,5,80,127,3496974924
21,19,Jits_Linear_5,2,5,56,103,3496984896
21,19,Jits_Linear_5,3,5,63,98,3497014868
21,19,Jits_Linear_5,0,1,48,58,3497433692
21,19,Jits_Linear_5,1,5,63,98,3497454916
21,19,Jits_Linear_5,2,5,56,103,3497484740
21,19,Jits_Linear_5,3,5,80,127,3497495012
21,19,Jits_Linear_5,0,5,56,103,3497895252
21,19,Jits_Linear_5,1,1,48,53,3497930160
21,19,Jits_Linear_5,2,5,63,98,3497944724
21,19,Jits_Linear_5,3,5,80,127,3497964888
21,19,Jits_Linear_5,0,5,80,127,3498384616
21,19,Jits_Linear_5,1,1,48,57,3498389756
21,19,Jits_Linear_5,2,5,63,98,3498434840
21,19,Jits_Linear_5,3,5,56,103,3498474852
21,19,Jits_Linear_5,0,5,56,103,3498875180
21,19,Jits_Linear_5,1,1,48,56,3498887816
21,19,Jits_Linear_5,2,5,63,98,3498904928
21,19,Jits_Linear_5,3,5,80,127,3498974856
21,19,Jits_Linear_5,0,1,48,56,3499334996
21,19,Jits_Linear_5,1,5,56,103,3499364616
21,19,Jits_Linear_5,2,1,48,32,3499406904
21,19,Jits_Linear_5,3,5,80,127,3499424988
21,19,Jits_Linear_5,4,5,63,98,3499454764
21,19,Jits_Linear_5,0,1,48,54,3499841768
21,19,Jits_Linear_5,1,5,56,103,3499864580
21,19,Jits_Linear_5,2,5,63,98,3499874776
21,19,Jits_Linear_5,3,5,80,127,3499914792
21,19,Jits_Linear_5,0,1,48,45,3500327228
21,19,Jits_Linear_5,1,5,63,98,3500354828
21,19,Jits_Linear_5,2,5,80,127,3500434760
21,19,Jits_Linear_5,3,5,56,103,3500444956
21,19,Jits_Linear_5,0,1,48,39,3500851264
21,19,Jits_Linear_5,1,5,63,98,3500904716
21,19,Jits_Linear_5,2,5,56,103,3500945240
21,19,Jits_Linear_5,3,5,80,127,3500948080
21,19,Jits_Linear_5,0,1,48,40,3501364544
21,19,Jits_Linear_5,1,5,56,103,3501366028
21,19,Jits_Linear_5,2,5,63,98,3501374956
21,19,Jits_Linear_5,3,5,80,127,3501414820
21,19,Jits_Linear_5,0,1,48,39,3501839396
21,19,Jits_Linear_5,1,5,56,103,3501855000
21,19,Jits_Linear_5,2,5,63,98,3501858520
21,19,Jits_Linear_5,3,5,80,127,3501874640
21,19,Jits_Linear_5,0,1,48,35,3502308048
21,19,Jits_Linear_5,1,5,80,127,3502375432
21,19,Jits_Linear_5,2,5,56,103,3502384656
21,19,Jits_Linear_5,3,5,63,98,3502455224
21,19,Jits_Linear_5,0,1,48,34,3502840772
21,19,Jits_Linear_5,1,5,63,98,3502874900
21,19,Jits_Linear_5,2,5,56,103,3502894536
21,19,Jits_Linear_5,3,5,80,127,3502975436
21,19,Jits_Linear_5,0,1,48,26,3503323840
21,19,Jits_Linear_5,1,5,56,103,3503395264
21,19,Jits_Linear_5,2,5,80,127,3503435264
21,19,Jits_Linear_5,3,5,63,98,3503445608
21,19,Jits_Linear_5,0,1,48,35,3503872752
21,19,Jits_Linear_5,1,5,80,127,3503894804
21,19,Jits_Linear_5,2,5,63,98,3503924628
21,19,Jits_Linear_5,3,5,56,103,3503964716
21,19,Jits_Linear_5,0,1,48,38,3504384948
21,19,Jits_Linear_5,1,5,56,103,3504425504
21,19,Jits_Linear_5,2,5,63,98,3504454960
21,19,Jits_Linear_5,3,5,80,127,3504505296
21,19,Jits_Linear_5,0,1,48,40,3504898424
21,19,Jits_Linear_5,1,5,80,127,3504935388
21,19,Jits_Linear_5,2,5,56,103,3504975476
21,19,Jits_Linear_5,3,5,63,98,3504984476
21,19,Jits_Linear_5,0,1,48,37,3505394364
21,19,Jits_Linear_5,1,5,80,127,3505435000
21,19,Jits_Linear_5,2,5,63,98,3505475012
21,19,Jits_Linear_5,3,5,56,103,3505535540
21,19,Jits_Linear_5,0,1,48,39,3505927544
21,19,Jits_Linear_5,1,5,56,103,3505955440
21,19,Jits_Linear_5,2,5,80,127,3505965636
21,19,Jits_Linear_5,3,5,63,98,3506045492
21,19,Jits_Linear_5,0,1,48,37,3506460940
21,19,Jits_Linear_5,1,5,80,127,3506475432
21,19,Jits_Linear_5,2,5,63,98,3506534704
21,19,Jits_Linear_5,3,5,56,103,3506564516
21,19,Jits_Linear_5,0,5,56,103,3506994608
21,19,Jits_Linear_5,1,1,48,42,3507005220
21,19,Jits_Linear_5,2,5,80,127,3507054920
21,19,Jits_Linear_5,3,5,63,98,3507094860
21,19,Jits_Linear_5,0,1,48,32,3507518780
21,19,Jits_Linear_5,1,5,56,103,3507575372
21,19,Jits_Linear_5,2,5,63,98,3507585420
21,19,Jits_Linear_5,3,5,80,127,3507588784
21,19,Jits_Linear_5,0,1,48,34,3508053612
21,19,Jits_Linear_5,1,5,80,127,3508055276
21,19,Jits_Linear_5,2,5,63,98,3508144540
21,19,Jits_Linear_5,3,5,56,103,3508154720
21,19,Jits_Linear_5,0,1,48,36,3508577184
21,19,Jits_Linear_5,1,5,56,103,3508584760
21,19,Jits_Linear_5,2,5,63,98,3508587940
21,19,Jits_Linear_5,3,5,80,127,3508591284
21,19,Jits_Linear_5,0,1,48,33,3509073408
21,19,Jits_Linear_5,1,5,80,127,3509134792
21,19,Jits_Linear_5,2,5,63,98,3509184860
21,19,Jits_Linear_5,3,5,56,103,3509214536
21,19,Jits_Linear_5,0,1,48,43,3509611824
21,19,Jits_Linear_5,1,5,56,103,3509644524
21,19,Jits_Linear_5,2,5,80,127,3509654796
21,19,Jits_Linear_5,3,5,63,98,3509724636
21,19,Jits_Linear_5,0,1,48,38,3510131436
21,19,Jits_Linear_5,1,5,56,103,3510185492
21,19,Jits_Linear_5,2,5,63,98,3510204784
21,19,Jits_Linear_5,3,5,80,127,3510265160
21,19,Jits_Linear_5,0,1,48,42,3510602128
21,19,Jits_Linear_5,1,5,80,127,3510714784
21,19,Jits_Linear_5,2,5,63,98,3510785372
21,19,Jits_Linear_5,3,5,56,103,3510804784
21,19,Jits_Linear_5,0,1,48,34,3511182060
21,19,Jits_Linear_5,1,5,80,127,3511274880
21,19,Jits_Linear_5,2,5,56,103,3511285360
21,19,Jits_Linear_5,3,5,63,98,3511295332
21,19,Jits_Linear_5,0,1,48,46,3511715996
21,19,Jits_Linear_5,1,5,80,127,3511805280
21,19,Jits_Linear_5,2,5,56,103,3511824680
21,19,Jits_Linear_5,3,5,63,98,3511895260
21,19,Jits_Linear_5,0,1,48,44,3512283068
21,19,Jits_Linear_5,1,5,56,103,3512355240
21,19,Jits_Linear_5,2,5,80,127,3512384756
21,19,Jits_Linear_5,3,5,63,98,3512405364
21,19,Jits_Linear_5,0,1,48,41,3512843144
21,19,Jits_Linear_5,1,5,63,98,3512894868
21,19,Jits_Linear_5,2,5,56,103,3512955244
21,19,Jits_Linear_5,3,5,80,127,3512985144
21,19,Jits_Linear_5,0,1,48,39,3513419544
21,19,Jits_Linear_5,1,5,63,98,3513434560
21,19,Jits_Linear_5,2,5,80,127,3513437852
21,19,Jits_Linear_5,3,5,56,103,3513524556
21,19,Jits_Linear_5,0,1,48,41,3513953772
21,19,Jits_Linear_5,1,5,56,103,3514004816
21,19,Jits_Linear_5,2,5,63,98,3514034592
21,19,Jits_Linear_5,3,5,80,127,3514074368
21,19,Jits_Linear_5,0,1,48,35,3514493096
21,19,Jits_Linear_5,1,5,63,98,3514554656
21,19,Jits_Linear_5,2,5,56,103,3514594656
21,19,Jits_Linear_5,3,5,80,127,3514615116
21,19,Jits_Linear_5,0,1,48,41,3515026188
21,19,Jits_Linear_5,1,5,63,98,3515115176
21,19,Jits_Linear_5,2,5,56,103,3515154880
21,19,Jits_Linear_5,3,5,80,127,3515165448
21,19,Jits_Linear_5,0,1,48,38,3515621128
21,19,Jits_Linear_5,1,5,80,127,3515645288
21,19,Jits_Linear_5,2,5,63,98,3515715196
21,19,Jits_Linear_5,3,5,56,103,3515735492
21,19,Jits_Linear_5,0,5,56,103,3516195180
21,19,Jits_Linear_5,1,1,48,40,3516213004
21,19,Jits_Linear_5,2,5,80,127,3516214736
21,19,Jits_Linear_5,3,5,63,98,3516254452
21,19,Jits_Linear_5,0,1,48,43,3516704364
21,19,Jits_Linear_5,1,5,63,98,3516764480
21,19,Jits_Linear_5,2,5,80,127,3516784940
21,19,Jits_Linear_5,3,5,56,103,3516825084
21,19,Jits_Linear_5,0,1,48,37,3517269820
21,19,Jits_Linear_5,1,5,63,98,3517324624
21,19,Jits_Linear_5,2,5,56,103,3517345236
21,19,Jits_Linear_5,3,5,80,127,3517355380
21,19,Jits_Linear_5,0,1,48,41,3517804952
21,19,Jits_Linear_5,1,5,80,127,3517884948
21,19,Jits_Linear_5,2,5,56,103,3517905244
21,19,Jits_Linear_5,3,5,63,98,3517935216
21,19,Jits_Linear_5,0,1,48,37,3518378980
21,19,Jits_Linear_5,1,5,56,103,3518524948
21,19,Jits_Linear_5,2,5,80,127,3518528016
21,19,Jits_Linear_5,3,5,63,98,3518545336
21,19,Jits_Linear_5,0,1,48,51,3518936512
21,19,Jits_Linear_5,1,5,63,98,3519015136
21,19,Jits_Linear_5,2,5,56,103,3519045020
21,19,Jits_Linear_5,3,5,80,127,3519105488
21,19,Jits_Linear_5,0,1,48,46,3519519732
21,19,Jits_Linear_5,1,5,63,98,3519664456
21,19,Jits_Linear_5,2,5,56,103,3519674876
21,19,Jits_Linear_5,3,5,80,127,3519684848
21,19,Jits_Linear_5,0,1,48,42,3520119004
21,19,Jits_Linear_5,1,5,56,103,3520184916
21,19,Jits_Linear_5,2,5,80,127,3520215268
21,19,Jits_Linear_5,3,5,63,98,3520224700
21,19,Jits_Linear_5,0,1,48,38,3520738372
21,19,Jits_Linear_5,1,5,63,98,3520794968
21,19,Jits_Linear_5,2,5,56,103,3520805164
21,19,Jits_Linear_5,3,5,80,127,3520824948
21,19,Jits_Linear_5,0,5,56,103,3521294740
21,19,Jits_Linear_5,1,1,48,43,3521313676
21,19,Jits_Linear_5,2,5,63,98,3521355052
21,19,Jits_Linear_5,3,5,80,127,3521358420
21,19,Jits_Linear_5,0,1,48,45,3521845348
21,19,Jits_Linear_5,1,5,80,127,3521894896
21,19,Jits_Linear_5,2,5,56,103,3521905168
21,19,Jits_Linear_5,3,5,63,98,3521974784
21,19,Jits_Linear_5,0,1,48,43,3522413284
21,19,Jits_Linear_5,1,5,80,127,3522465228
21,19,Jits_Linear_5,2,5,56,103,3522534776
21,19,Jits_Linear_5,3,5,63,98,3522545120
21,19,Jits_Linear_5,0,1,48,32,3523024704
21,19,Jits_Linear_5,1,5,63,98,3523084744
21,19,Jits_Linear_5,2,5,56,103,3523095016
21,19,Jits_Linear_5,3,5,80,127,3523115328
21,19,Jits_Linear_5,0,1,48,33,3523600660
21,19,Jits_Linear_5,1,5,80,127,3523615148
21,19,Jits_Linear_5,2,5,63,98,3523674348
21,19,Jits_Linear_5,3,5,56,103,3523714420
21,19,Jits_Linear_5,0,1,48,30,3524195952
21,19,Jits_Linear_5,1,5,56,103,3524244904
21,19,Jits_Linear_5,2,5,63,98,3524255028
21,19,Jits_Linear_5,3,5,80,127,3524294916
21,19,Jits_Linear_5,0,1,48,31,3524779944
21,19,Jits_Linear_5,1,5,56,103,3524794736
21,19,Jits_Linear_5,2,5,80,127,3524824712
21,19,Jits_Linear_5,3,5,63,98,3524874768
21,19,Jits_Linear_5,0,1,48,29,3525326016
21,19,Jits_Linear_5,1,5,56,103,3525424628
21,19,Jits_Linear_5,2,5,63,98,3525464416
21,19,Jits_Linear_5,3,5,80,127,3525468004
21,19,Jits_Linear_5,0,1,48,29,3525936356
21,19,Jits_Linear_5,1,5,56,103,3526015276
21,19,Jits_Linear_5,2,5,63,98,3526024648
21,19,Jits_Linear_5,3,5,80,127,3526044944
21,19,Jits_Linear_5,0,1,48,27,3526555244
21,19,Jits_Linear_5,1,5,56,103,3526565232
21,19,Jits_Linear_5,2,5,80,127,3526568372
21,19,Jits_Linear_5,3,5,63,98,3526605192
21,19,Jits_Linear_5,0,1,48,26,3527172108
21,19,Jits_Linear_5,1,5,63,98,3527195068
21,19,Jits_Linear_5,2,5,56,103,3527224744
21,19,Jits_Linear_5,3,5,80,127,3527245056
21,19,Jits_Linear_5,0,1,48,26,3527737584
21,19,Jits_Linear_5,1,5,80,127,3527765556
21,19,Jits_Linear_5,2,5,56,103,3527774704
21,19,Jits_Linear_5,3,5,63,98,3527784676
21,19,Jits_Linear_5,0,1,48,35,3528296368
21,19,Jits_Linear_5,1,5,56,103,3528365576
21,19,Jits_Linear_5,2,5,80,127,3528405576
21,19,Jits_Linear_5,3,5,63,98,3528435028
21,19,Jits_Linear_5,0,1,48,28,3528924124
21,19,Jits_Linear_5,1,5,63,98,3528974800
21,19,Jits_Linear_5,2,5,80,127,3528985068
21,19,Jits_Linear_5,3,5,56,103,3528995116
21,19,Jits_Linear_5,0,1,48,37,3529540980
21,19,Jits_Linear_5,1,5,56,103,3529555248
21,19,Jits_Linear_5,2,5,63,98,3529625004
21,19,Jits_Linear_5,3,5,80,127,3529635128
21,19,Jits_Linear_5,0,1,48,28,3530150952
21,19,Jits_Linear_5,1,5,80,127,3530164496
21,19,Jits_Linear_5,2,5,56,103,3530174840
21,19,Jits_Linear_5,3,5,63,98,3530224968
21,19,Jits_Linear_5,0,5,80,127,3530785108
21,19,Jits_Linear_5,1,5,56,103,3530844680
21,19,Jits_Linear_5,2,5,63,98,3530875328
21,19,Jits_Linear_5,0,1,48,16,3531200884
21,19,Jits_Linear_5,1,5,56,103,3531394436
21,19,Jits_Linear_5,2,5,80,127,3531397504
21,19,Jits_Linear_5,3,5,63,98,3531435520
21,19,Jits_Linear_5,4,1,48,37,3531598960
21,19,Jits_Linear_5,0,5,56,103,3532034384
21,19,Jits_Linear_5,1,1,48,32,3532035348
21,19,Jits_Linear_5,2,5,63,98,3532065176
21,19,Jits_Linear_5,3,5,80,127,3532075520
21,19,Jits_Linear_5,0,1,48,42,3532556224
21,19,Jits_Linear_5,1,5,63,98,3532655064
21,19,Jits_Linear_5,2,5,80,127,3532665408
21,19,Jits_Linear_5,3,5,56,103,3532674408
21,19,Jits_Linear_5,0,1,48,44,3533185976
21,19,Jits_Linear_5,1,5,80,127,3533215076
21,19,Jits_Linear_5,2,5,56,103,3533265380
21,19,Jits_Linear_5,3,5,63,98,3533268448
21,19,Jits_Linear_5,0,1,48,40,3533849008
21,19,Jits_Linear_5,1,5,56,103,3533865520
21,19,Jits_Linear_5,2,5,80,127,3533884636
21,19,Jits_Linear_5,3,5,63,98,3533895128
21,19,Jits_Linear_5,0,5,63,98,3534465680
21,19,Jits_Linear_5,1,1,48,33,3534481156
21,19,Jits_Linear_5,2,5,56,103,3534495276
21,19,Jits_Linear_5,3,5,80,127,3534514416
21,19,Jits_Linear_5,0,1,48,35,3535089348
21,19,Jits_Linear_5,1,5,56,103,3535095592
21,19,Jits_Linear_5,2,5,80,127,3535105564
21,19,Jits_Linear_5,3,5,63,98,3535175100
21,19,Jits_Linear_5,0,1,48,31,3535687408
21,19,Jits_Linear_5,1,5,63,98,3535704296
21,19,Jits_Linear_5,2,5,80,127,3535745508
21,19,Jits_Linear_5,3,5,56,103,3535785604
21,19,Jits_Linear_5,0,1,48,30,3536277076
21,19,Jits_Linear_5,1,5,56,103,3536344336
21,19,Jits_Linear_5,2,5,63,98,3536354608
21,19,Jits_Linear_5,3,5,80,127,3536375424
21,19,Jits_Linear_5,0,1,48,32,3536855528
21,19,Jits_Linear_5,1,5,63,98,3537015424
21,19,Jits_Linear_5,2,5,80,127,3537034544
21,19,Jits_Linear_5,3,5,56,103,3537055076
21,19,Jits_Linear_5,0,1,48,34,3537477556
21,19,Jits_Linear_5,1,5,56,103,3537594708
21,19,Jits_Linear_5,2,5,80,127,3537674732
21,19,Jits_Linear_5,3,5,63,98,3537684852
21,19,Jits_Linear_5,0,1,48,43,3538137532
21,19,Jits_Linear_5,1,5,80,127,3538274808
21,19,Jits_Linear_5,2,5,63,98,3538285004
21,19,Jits_Linear_5,3,5,56,103,3538314608
21,19,Jits_Linear_5,0,1,48,47,3538761656
21,19,Jits_Linear_5,1,5,63,98,3538874764
21,19,Jits_Linear_5,2,5,80,127,3538914556
21,19,Jits_Linear_5,3,5,56,103,3538975096
21,19,Jits_Linear_5,0,1,48,32,3539387772
21,19,Jits_Linear_5,1,5,63,98,3539535384
21,19,Jits_Linear_5,2,5,56,103,3539585364
21,19,Jits_Linear_5,3,5,80,127,3539615192
21,19,Jits_Linear_5,0,1,48,18,3540032344
21,19,Jits_Linear_5,1,5,80,127,3540184492
21,19,Jits_Linear_5,2,5,63,98,3540194616
21,19,Jits_Linear_5,3,5,56,103,3540265268
21,19,Jits_Linear_5,0,1,48,41,3540692316
21,19,Jits_Linear_5,1,5,80,127,3540895236
21,19,Jits_Linear_5,2,5,56,103,3540905380
21,19,Jits_Linear_5,3,5,63,98,3540908300
21,19,Jits_Linear_5,0,1,48,45,3541311128
21,19,Jits_Linear_5,1,5,56,103,3541474584
21,19,Jits_Linear_5,2,5,80,127,3541495268
21,19,Jits_Linear_5,3,5,63,98,3541505540
21,19,Jits_Linear_5,0,1,48,48,3541913392
21,19,Jits_Linear_5,1,5,63,98,3542125012
21,19,Jits_Linear_5,2,5,56,103,3542164804
21,19,Jits_Linear_5,3,5,80,127,3542185292
21,19,Jits_Linear_5,0,1,48,49,3542547892
21,19,Jits_Linear_5,1,5,63,98,3542764988
21,19,Jits_Linear_5,2,5,56,103,3542825380
21,19,Jits_Linear_5,3,5,80,127,3542828372
21,19,Jits_Linear_5,0,1,48,51,3543212212
21,19,Jits_Linear_5,1,5,56,103,3543384468
21,19,Jits_Linear_5,2,5,80,127,3543405004
21,19,Jits_Linear_5,3,5,63,98,3543444944
21,19,Jits_Linear_5,0,1,48,49,3543850632
21,19,Jits_Linear_5,1,5,56,103,3544065264
21,19,Jits_Linear_5,2,5,63,98,3544084972
21,19,Jits_Linear_5,3,5,80,127,3544095020
21,19,Jits_Linear_5,0,1,48,48,3544446296
21,19,Jits_Linear_5,1,5,80,127,3544684968
21,19,Jits_Linear_5,2,5,56,103,3544714576
21,19,Jits_Linear_5,3,5,63,98,3544754540
21,19,Jits_Linear_5,0,1,48,44,3545114888
21,19,Jits_Linear_5,1,5,80,127,3545345316
21,19,Jits_Linear_5,2,5,56,103,3545364952
21,19,Jits_Linear_5,3,5,63,98,3545425344
21,19,Jits_Linear_5,0,1,48,42,3545758712
21,19,Jits_Linear_5,1,5,56,103,3546004960
21,19,Jits_Linear_5,2,5,80,127,3546025296
21,19,Jits_Linear_5,3,5,63,98,3546084640
21,19,Jits_Linear_5,0,1,48,44,3546450228
21,19,Jits_Linear_5,1,5,80,127,3546644924
21,19,Jits_Linear_5,2,5,56,103,3546655120
21,19,Jits_Linear_5,3,5,63,98,3546695136
21,19,Jits_Linear_5,0,1,48,46,3547058940
21,19,Jits_Linear_5,1,5,63,98,3547305340
21,19,Jits_Linear_5,2,5,56,103,3547345204
21,19,Jits_Linear_5,3,5,80,127,3547348496
21,19,Jits_Linear_5,0,1,48,43,3547693572
21,19,Jits_Linear_5,1,5,63,98,3547985264
21,19,Jits_Linear_5,2,5,80,127,3548025132
21,19,Jits_Linear_5,3,5,56,103,3548055104
21,19,Jits_Linear_5,0,1,48,37,3548355428
21,19,Jits_Linear_5,1,5,56,103,3548634448
21,19,Jits_Linear_5,2,5,63,98,3548645016
21,19,Jits_Linear_5,3,5,80,127,3548674468
21,19,Jits_Linear_5,0,1,48,33,3549019144
21,19,Jits_Linear_5,1,5,80,127,3549294984
21,19,Jits_Linear_5,2,5,63,98,3549364916
21,19,Jits_Linear_5,3,5,56,103,3549374816
21,19,Jits_Linear_5,0,5,63,98,3549964792
21,19,Jits_Linear_5,1,5,56,103,3550035300
21,19,Jits_Linear_5,2,5,80,127,3550044448
21,19,Jits_Linear_5,0,1,48,35,3550634152
21,19,Jits_Linear_5,1,5,63,98,3550636020
21,19,Jits_Linear_5,2,5,56,103,3550654764
21,19,Jits_Linear_5,3,5,80,127,3550694852
21,19,Jits_Linear_5,0,1,48,45,3551274072
21,19,Jits_Linear_5,1,5,56,103,3551315224
21,19,Jits_Linear_5,2,5,63,98,3551324744
21,19,Jits_Linear_5,3,5,80,127,3551405300
21,19,Jits_Linear_5,0,1,48,42,3551939796
21,19,Jits_Linear_5,1,5,63,98,3551974816
21,19,Jits_Linear_5,2,5,56,103,3552004420
21,19,Jits_Linear_5,3,5,80,127,3552045540
21,19,Jits_Linear_5,0,1,48,42,3552573076
21,19,Jits_Linear_5,1,5,56,103,3552644576
21,19,Jits_Linear_5,2,5,63,98,3552685352
21,19,Jits_Linear_5,3,5,80,127,3552725288
21,19,Jits_Linear_5,0,1,48,45,3553256568
21,19,Jits_Linear_5,1,5,80,127,3553325296
21,19,Jits_Linear_5,2,5,56,103,3553405156
21,19,Jits_Linear_5,3,5,63,98,3553414752
21,19,Jits_Linear_5,0,1,48,39,3553965832
21,19,Jits_Linear_5,1,5,56,103,3554045280
21,19,Jits_Linear_5,2,5,63,98,3554048348
21,19,Jits_Linear_5,3,5,80,127,3554054652
21,19,Jits_Linear_5,0,1,48,35,3554665400
21,19,Jits_Linear_5,1,5,56,103,3554744648
21,19,Jits_Linear_5,2,5,63,98,3554765096
21,19,Jits_Linear_5,3,5,80,127,3554775592
21,19,Jits_Linear_5,0,1,48,38,3555327844
21,19,Jits_Linear_5,1,5,63,98,3555384744
21,19,Jits_Linear_5,2,5,80,127,3555394940
21,19,Jits_Linear_5,3,5,56,103,3555415844
21,19,Jits_Linear_5,0,1,48,35,3556008936
21,19,Jits_Linear_5,1,5,63,98,3556074980
21,19,Jits_Linear_5,2,5,56,103,3556154760
21,19,Jits_Linear_5,3,5,80,127,3556157828
21,19,Jits_Linear_5,0,1,48,43,3556621368
21,19,Jits_Linear_5,1,5,63,98,3556765096
21,19,Jits_Linear_5,2,5,56,103,3556784684
21,19,Jits_Linear_5,3,5,80,127,3556815184
21,19,Jits_Linear_5,0,1,48,44,3557343388
21,19,Jits_Linear_5,1,5,56,103,3557455404
21,19,Jits_Linear_5,2,5,63,98,3557474668
21,19,Jits_Linear_5,3,5,80,127,3557484792
21,19,Jits_Linear_5,0,1,48,40,3558045060
21,19,Jits_Linear_5,1,5,56,103,3558174940
21,19,Jits_Linear_5,2,5,63,98,3558204764
21,19,Jits_Linear_5,3,5,80,127,3558208128
21,19,Jits_Linear_5,0,1,48,44,3558763092
21,19,Jits_Linear_5,1,5,56,103,3558815036
21,19,Jits_Linear_5,2,5,63,98,3558855004
21,19,Jits_Linear_5,3,5,80,127,3558914556
21,19,Jits_Linear_5,0,1,48,40,3559458640
21,19,Jits_Linear_5,1,5,56,103,3559524756
21,19,Jits_Linear_5,2,5,63,98,3559535028
21,19,Jits_Linear_5,3,5,80,127,3559595500
21,19,Jits_Linear_5,0,1,48,40,3560117264
21,19,Jits_Linear_5,1,5,56,103,3560225164
21,19,Jits_Linear_5,2,5,80,127,3560244652
21,19,Jits_Linear_5,3,5,63,98,3560275300
21,19,Jits_Linear_5,0,1,48,37,3560819832
21,19,Jits_Linear_5,1,5,80,127,3560924692
21,19,Jits_Linear_5,2,5,56,103,3560934888
21,19,Jits_Linear_5,3,5,63,98,3560955200
21,19,Jits_Linear_5,0,1,48,43,3561551944
21,19,Jits_Linear_5,1,5,63,98,3561614692
21,19,Jits_Linear_5,2,5,80,127,3561694428
21,19,Jits_Linear_5,3,5,56,103,3561704772
21,19,Jits_Linear_5,0,1,48,37,3562288496
21,19,Jits_Linear_5,1,5,80,127,3562374464
21,19,Jits_Linear_5,2,5,56,103,3562395128
21,19,Jits_Linear_5,3,5,63,98,3562398048
21,19,Jits_Linear_5,0,1,48,38,3563011984
21,19,Jits_Linear_5,1,5,63,98,3563054432
21,19,Jits_Linear_5,2,5,80,127,3563057648
21,19,Jits_Linear_5,3,5,56,103,3563114808
21,19,Jits_Linear_5,0,1,48,36,3563673812
21,19,Jits_Linear_5,1,5,56,103,3563744736
21,19,Jits_Linear_5,2,5,80,127,3563755084
21,19,Jits_Linear_5,3,5,63,98,3563794932
21,19,Jits_Linear_5,0,1,48,30,3564377752
21,19,Jits_Linear_5,1,5,56,103,3564434872
21,19,Jits_Linear_5,2,5,63,98,3564495500
21,19,Jits_Linear_5,3,5,80,127,3564504428
21,19,Jits_Linear_5,0,1,48,32,3564997184
21,19,Jits_Linear_5,1,5,63,98,3565154616
21,19,Jits_Linear_5,2,5,80,127,3565194632
21,19,Jits_Linear_5,3,5,56,103,3565234444
21,19,Jits_Linear_5,0,1,48,33,3565746464
21,19,Jits_Linear_5,1,5,56,103,3565865232
21,19,Jits_Linear_5,2,5,63,98,3565945400
21,19,Jits_Linear_5,3,5,80,127,3565948620
21,19,Jits_Linear_5,0,1,48,29,3566517760
21,19,Jits_Linear_5,1,5,80,127,3566635256
21,19,Jits_Linear_5,2,5,56,103,3566665228
21,19,Jits_Linear_5,3,5,63,98,3566668372
21,19,Jits_Linear_5,0,5,56,103,3567315464
21,19,Jits_Linear_5,1,1,48,32,3567327280
21,19,Jits_Linear_5,2,5,80,127,3567334648
21,19,Jits_Linear_5,3,5,63,98,3567374664
21,19,Jits_Linear_5,0,1,48,26,3567988272
21,19,Jits_Linear_5,1,5,80,127,3568014748
21,19,Jits_Linear_5,2,5,63,98,3568035136
21,19,Jits_Linear_5,3,5,56,103,3568094640
21,19,Jits_Linear_5,0,1,48,18,3568663080
21,19,Jits_Linear_5,1,5,63,98,3568744696
21,19,Jits_Linear_5,2,5,56,103,3568755192
21,19,Jits_Linear_5,3,5,80,127,3568805228
21,19,Jits_Linear_5,0,1,48,26,3569349252
21,19,Jits_Linear_5,1,5,56,103,3569454540
21,19,Jits_Linear_5,2,5,63,98,3569474924
21,19,Jits_Linear_5,3,5,80,127,3569485344
21,19,Jits_Linear_5,0,1,48,29,3570021920
21,19,Jits_Linear_5,1,5,56,103,3570175336
21,19,Jits_Linear_5,2,5,63,98,3570178552
21,19,Jits_Linear_5,3,5,80,127,3570194896
21,19,Jits_Linear_5,0,1,48,24,3570767368
21,19,Jits_Linear_5,1,5,63,98,3570945428
21,19,Jits_Linear_5,2,5,56,103,3570975180
21,19,Jits_Linear_5,3,5,80,127,3571004780
21,19,Jits_Linear_5,0,5,80,127,3571634488
21,19,Jits_Linear_5,1,5,56,103,3571724700
21,19,Jits_Linear_5,2,5,63,98,3571727988
21,19,Jits_Linear_5,0,1,48,14,3572162032
21,19,Jits_Linear_5,1,5,56,103,3572364572
21,19,Jits_Linear_5,2,5,80,127,3572367792
21,19,Jits_Linear_5,3,5,63,98,3572444472
21,19,Jits_Linear_5,0,1,48,26,3572907336
21,19,Jits_Linear_5,1,5,80,127,3573094880
21,19,Jits_Linear_5,2,5,63,98,3573155052
21,19,Jits_Linear_5,3,5,56,103,3573184976
21,19,Jits_Linear_5,0,1,48,31,3573599708
21,19,Jits_Linear_5,1,5,63,98,3573824976
21,19,Jits_Linear_5,2,5,80,127,3573835100
21,19,Jits_Linear_5,3,5,56,103,3573905004
21,19,Jits_Linear_5,0,1,48,31,3574253020
21,19,Jits_Linear_5,1,5,56,103,3574574532
21,19,Jits_Linear_5,2,5,80,127,3574605108
21,19,Jits_Linear_5,3,5,63,98,3574655384
21,19,Jits_Linear_5,4,1,48,33,3574960980
21,19,Jits_Linear_5,0,5,63,98,3575354672
21,19,Jits_Linear_5,1,5,56,103,3575384424
21,19,Jits_Linear_5,2,5,80,127,3575387564
21,19,Jits_Linear_5,3,1,48,26,3575695544
21,19,Jits_Linear_5,0,5,63,98,3576105288
21,19,Jits_Linear_5,1,5,80,127,3576125072
21,19,Jits_Linear_5,2,5,56,103,3576135120
21,19,Jits_Linear_5,3,1,48,20,3576470060
21,19,Jits_Linear_5,0,5,56,103,3576854864
21,19,Jits_Linear_5,1,5,63,98,3576858080
21,19,Jits_Linear_5,2,5,80,127,3576875324
21,19,Jits_Linear_5,0,1,48,28,3577277968
21,19,Jits_Linear_5,1,5,56,103,3577555380
21,19,Jits_Linear_5,2,5,63,98,3577564384
21,19,Jits_Linear_5,3,5,80,127,3577595256
21,19,Jits_Linear_5,0,1,48,18,3578052728
21,19,Jits_Linear_5,1,5,63,98,3578325336
21,19,Jits_Linear_5,2,5,80,127,3578345048
21,19,Jits_Linear_5,3,5,56,103,3578384988
21,19,Jits_Linear_5,0,5,56,103,3579104756
21,19,Jits_Linear_5,1,5,63,98,3579144696
21,19,Jits_Linear_5,2,5,80,127,3579147988
21,19,Jits_Linear_5,3,1,48,19,3579277720
21,19,Jits_Linear_5,0,5,80,127,3579794900
21,19,Jits_Linear_5,1,5,56,103,3579834868
21,19,Jits_Linear_5,2,1,48,30,3579843688
21,19,Jits_Linear_5,3,5,63,98,3579884988
21,19,Jits_Linear_5,0,1,48,32,3580516808
21,19,Jits_Linear_5,1,5,56,103,3580604972
21,19,Jits_Linear_5,2,5,80,127,3580615004
21,19,Jits_Linear_5,3,5,63,98,3580644756
21,19,Jits_Linear_5,0,1,48,37,3581277480
21,19,Jits_Linear_5,1,5,56,103,3581305300
21,19,Jits_Linear_5,2,5,80,127,3581345168
21,19,Jits_Linear_5,3,5,63,98,3581395308
21,19,Jits_Linear_5,0,1,48,36,3581974460
21,19,Jits_Linear_5,1,5,56,103,3582064920
21,19,Jits_Linear_5,2,5,80,127,3582105068
21,19,Jits_Linear_5,3,5,63,98,3582155148
21,19,Jits_Linear_5,0,1,48,48,3582716092
21,19,Jits_Linear_5,1,5,80,127,3582814928
21,19,Jits_Linear_5,2,5,63,98,3582894380
21,19,Jits_Linear_5,3,5,56,103,3582904728
21,19,Jits_Linear_5,0,1,48,45,3583521628
21,19,Jits_Linear_5,1,5,80,127,3583624672
21,19,Jits_Linear_5,2,5,56,103,3583634792
21,19,Jits_Linear_5,3,5,63,98,3583655204
21,19,Jits_Linear_5,0,1,48,51,3584251276
21,19,Jits_Linear_5,1,5,63,98,3584354840
21,19,Jits_Linear_5,2,5,56,103,3584425444
21,19,Jits_Linear_5,3,5,80,127,3584428664
21,19,Jits_Linear_5,0,1,48,44,3585032232
21,19,Jits_Linear_5,1,5,80,127,3585114536
21,19,Jits_Linear_5,2,5,63,98,3585164728
21,19,Jits_Linear_5,3,5,56,103,3585204692
21,19,Jits_Linear_5,0,1,48,32,3585829836
21,19,Jits_Linear_5,1,5,63,98,3585924784
21,19,Jits_Linear_5,2,5,56,103,3585965500
21,19,Jits_Linear_5,3,5,80,127,3585974872
21,19,Jits_Linear_5,0,1,48,37,3586567656
21,19,Jits_Linear_5,1,5,63,98,3586685596
21,19,Jits_Linear_5,2,5,56,103,3586704716
21,19,Jits_Linear_5,3,5,80,127,3586725172
21,19,Jits_Linear_5,0,1,48,29,3587346052
21,19,Jits_Linear_5,1,5,80,127,3587415532
21,19,Jits_Linear_5,2,5,56,103,3587424608
21,19,Jits_Linear_5,3,5,63,98,3587445052
21,19,Jits_Linear_5,0,1,48,37,3588040016
21,19,Jits_Linear_5,1,5,63,98,3588215284
21,19,Jits_Linear_5,2,5,56,103,3588255004
21,19,Jits_Linear_5,3,5,80,127,3588284704
21,19,Jits_Linear_5,0,1,48,34,3588798288
21,19,Jits_Linear_5,1,5,56,103,3588994384
21,19,Jits_Linear_5,2,5,63,98,3589025332
21,19,Jits_Linear_5,3,5,80,127,3589054736
21,19,Jits_Linear_5,0,1,48,37,3589565324
21,19,Jits_Linear_5,1,5,80,127,3589744932
21,19,Jits_Linear_5,2,5,56,103,3589814568
21,19,Jits_Linear_5,3,5,63,98,3589817784
21,19,Jits_Linear_5,0,1,48,38,3590227272
21,19,Jits_Linear_5,1,5,56,103,3590534508
21,19,Jits_Linear_5,2,5,63,98,3590584664
21,19,Jits_Linear_5,3,5,80,127,3590615536
21,19,Jits_Linear_5,4,1,48,43,3590928228
21,19,Jits_Linear_5,0,5,63,98,3591295384
21,19,Jits_Linear_5,1,5,80,127,3591298604
21,19,Jits_Linear_5,2,5,56,103,3591354608
21,19,Jits_Linear_5,3,1,48,47,3591711636
21,19,Jits_Linear_5,0,5,56,103,3592105436
21,19,Jits_Linear_5,1,5,80,127,3592114584
21,19,Jits_Linear_5,2,5,63,98,3592164640
21,19,Jits_Linear_5,3,1,48,44,3592482192
21,19,Jits_Linear_5,0,5,63,98,3592865264
21,19,Jits_Linear_5,1,5,56,103,3592875488
21,19,Jits_Linear_5,2,5,80,127,3592905160
21,19,Jits_Linear_5,3,1,48,35,3593159492
21,19,Jits_Linear_5,0,1,48,39,3593646964
21,19,Jits_Linear_5,1,5,63,98,3593685352
21,19,Jits_Linear_5,2,5,80,127,3593688868
21,19,Jits_Linear_5,3,5,56,103,3593715028
21,19,Jits_Linear_5,0,1,48,46,3594403104
21,19,Jits_Linear_5,1,5,63,98,3594495528
21,19,Jits_Linear_5,2,5,56,103,3594514852
21,19,Jits_Linear_5,3,5,80,127,3594517920
21,19,Jits_Linear_5,0,1,48,47,3595180252
21,19,Jits_Linear_5,1,5,63,98,3595245316
21,19,Jits_Linear_5,2,5,56,103,3595314540
21,19,Jits_Linear_5,3,5,80,127,3595335224
21,19,Jits_Linear_5,0,1,48,39,3596001228
21,19,Jits_Linear_5,1,5,56,103,3596025312
21,19,Jits_Linear_5,2,5,63,98,3596034464
21,19,Jits_Linear_5,3,5,80,127,3596124436
21,19,Jits_Linear_5,0,1,48,42,3596755084
21,19,Jits_Linear_5,1,5,56,103,3596835272
21,19,Jits_Linear_5,2,5,80,127,3596875200
21,19,Jits_Linear_5,3,5,63,98,3596885472
21,19,Jits_Linear_5,0,1,48,45,3597523760
21,19,Jits_Linear_5,1,5,56,103,3597655336
21,19,Jits_Linear_5,2,5,63,98,3597685312
21,19,Jits_Linear_5,3,5,80,127,3597714764
21,19,Jits_Linear_5,0,1,48,48,3598372988
21,19,Jits_Linear_5,1,5,80,127,3598415264
21,19,Jits_Linear_5,2,5,63,98,3598455132
21,19,Jits_Linear_5,3,5,56,103,3598474676
21,19,Jits_Linear_5,0,1,48,41,3599172212
21,19,Jits_Linear_5,1,5,56,103,3599255192
21,19,Jits_Linear_5,2,5,80,127,3599275516
21,19,Jits_Linear_5,3,5,63,98,3599294704
21,19,Jits_Linear_5,0,1,48,39,3599931152
21,19,Jits_Linear_5,1,5,63,98,3600025056
21,19,Jits_Linear_5,2,5,56,103,3600035252
21,19,Jits_Linear_5,3,5,80,127,3600094548
21,19,Jits_Linear_5,0,1,48,26,3600790792
21,19,Jits_Linear_5,1,5,56,103,3600835128
21,19,Jits_Linear_5,2,5,63,98,3600904504
21,19,Jits_Linear_5,3,5,80,127,3600925108
21,19,Jits_Linear_5,0,5,56,103,3601645096
21,19,Jits_Linear_5,1,5,63,98,3601674552
21,19,Jits_Linear_5,2,5,80,127,3601714492
21,19,Jits_Linear_5,0,1,48,37,3602425476
21,19,Jits_Linear_5,1,5,63,98,3602444756
21,19,Jits_Linear_5,2,5,56,103,3602495036
21,19,Jits_Linear_5,3,5,80,127,3602504936
21,19,Jits_Linear_5,0,1,48,42,3603156312
21,19,Jits_Linear_5,1,5,56,103,3603294492
21,19,Jits_Linear_5,2,5,63,98,3603344620
21,19,Jits_Linear_5,3,5,80,127,3603355188
21,19,Jits_Linear_5,0,5,56,103,3604074880
21,19,Jits_Linear_5,1,5,63,98,3604085076
21,19,Jits_Linear_5,2,1,48,29,3604147856
21,19,Jits_Linear_5,3,5,80,127,3604164964
21,19,Jits_Linear_5,0,9999,9999,9999,9999,3495282804
21,19,Jits_Linear_5,1,9999,9999,9999,9999,3495763012
21,19,Jits_Linear_5,2,9999,9999,9999,9999,3496242228
21,19,Jits_Linear_5,3,9999,9999,9999,9999,3496722520
21,19,Jits_Linear_5,4,9999,9999,9999,9999,3497202808
21,19,Jits_Linear_5,5,9999,9999,9999,9999,3497692244
21,19,Jits_Linear_5,6,9999,9999,9999,9999,3498182716
21,19,Jits_Linear_5,7,9999,9999,9999,9999,3498672232
21,19,Jits_Linear_5,8,9999,9999,9999,9999,3499162696
21,19,Jits_Linear_5,9,9999,9999,9999,9999,3499652192
21,19,Jits_Linear_5,10,9999,9999,9999,9999,3500152924
21,19,Jits_Linear_5,11,9999,9999,9999,9999,3500652612
21,19,Jits_Linear_5,12,9999,9999,9999,9999,3501152372
21,19,Jits_Linear_5,13,9999,9999,9999,9999,3501653104
21,19,Jits_Linear_5,14,9999,9999,9999,9999,3502152776
21,19,Jits_Linear_5,15,9999,9999,9999,9999,3502662728
21,19,Jits_Linear_5,16,9999,9999,9999,9999,3503172680
21,19,Jits_Linear_5,17,9999,9999,9999,9999,3503682632
21,19,Jits_Linear_5,18,9999,9999,9999,9999,3504192584
21,19,Jits_Linear_5,19,9999,9999,9999,9999,3504702540
21,19,Jits_Linear_5,20,9999,9999,9999,9999,3505222756
21,19,Jits_Linear_5,21,9999,9999,9999,9999,3505742972
21,19,Jits_Linear_5,22,9999,9999,9999,9999,3506262144
21,19,Jits_Linear_5,23,9999,9999,9999,9999,3506782284
21,19,Jits_Linear_5,24,9999,9999,9999,9999,3507302504
21,19,Jits_Linear_5,25,9999,9999,9999,9999,3507832916
21,19,Jits_Linear_5,26,9999,9999,9999,9999,3508362352
21,19,Jits_Linear_5,27,9999,9999,9999,9999,3508892732
21,19,Jits_Linear_5,28,9999,9999,9999,9999,3509422192
21,19,Jits_Linear_5,29,9999,9999,9999,9999,3509952596
21,19,Jits_Linear_5,30,9999,9999,9999,9999,3510492220
21,19,Jits_Linear_5,31,9999,9999,9999,9999,3511032892
21,19,Jits_Linear_5,32,9999,9999,9999,9999,3511572584
21,19,Jits_Linear_5,33,9999,9999,9999,9999,3512112208
21,19,Jits_Linear_5,34,9999,9999,9999,9999,3512652872
21,19,Jits_Linear_5,35,9999,9999,9999,9999,3513202764
21,19,Jits_Linear_5,36,9999,9999,9999,9999,3513752640
21,19,Jits_Linear_5,37,9999,9999,9999,9999,3514302552
21,19,Jits_Linear_5,38,9999,9999,9999,9999,3514852440
21,19,Jits_Linear_5,39,9999,9999,9999,9999,3515402328
21,19,Jits_Linear_5,40,9999,9999,9999,9999,3515962480
21,19,Jits_Linear_5,41,9999,9999,9999,9999,3516522624
21,19,Jits_Linear_5,42,9999,9999,9999,9999,3517082712
21,19,Jits_Linear_5,43,9999,9999,9999,9999,3517642808
21,19,Jits_Linear_5,44,9999,9999,9999,9999,3518202956
21,19,Jits_Linear_5,45,9999,9999,9999,9999,3518772324
21,19,Jits_Linear_5,46,9999,9999,9999,9999,3519342664
21,19,Jits_Linear_5,47,9999,9999,9999,9999,3519913080
21,19,Jits_Linear_5,48,9999,9999,9999,9999,3520482400
21,19,Jits_Linear_5,49,9999,9999,9999,9999,3521052744
21,19,Jits_Linear_5,50,9999,9999,9999,9999,3521632364
21,19,Jits_Linear_5,51,9999,9999,9999,9999,3522212980
21,19,Jits_Linear_5,52,9999,9999,9999,9999,3522792556
21,19,Jits_Linear_5,53,9999,9999,9999,9999,3523372116
21,19,Jits_Linear_5,54,9999,9999,9999,9999,3523952716
21,19,Jits_Linear_5,55,9999,9999,9999,9999,3524542560
21,19,Jits_Linear_5,56,9999,9999,9999,9999,3525132380
21,19,Jits_Linear_5,57,9999,9999,9999,9999,3525722192
21,19,Jits_Linear_5,58,9999,9999,9999,9999,3526313056
21,19,Jits_Linear_5,59,9999,9999,9999,9999,3526902884
21,19,Jits_Linear_5,60,9999,9999,9999,9999,3527502968
21,19,Jits_Linear_5,61,9999,9999,9999,9999,3528102968
21,19,Jits_Linear_5,62,9999,9999,9999,9999,3528703064
21,19,Jits_Linear_5,63,9999,9999,9999,9999,3529302100
21,19,Jits_Linear_5,64,9999,9999,9999,9999,3529902204
21,19,Jits_Linear_5,65,9999,9999,9999,9999,3530512472
21,19,Jits_Linear_5,66,9999,9999,9999,9999,3531122764
21,19,Jits_Linear_5,67,9999,9999,9999,9999,3531733052
21,19,Jits_Linear_5,68,9999,9999,9999,9999,3532342348
21,19,Jits_Linear_5,69,9999,9999,9999,9999,3532952636
21,19,Jits_Linear_5,70,9999,9999,9999,9999,3533572208
21,19,Jits_Linear_5,71,9999,9999,9999,9999,3534192744
21,19,Jits_Linear_5,72,9999,9999,9999,9999,3534812252
21,19,Jits_Linear_5,73,9999,9999,9999,9999,3535432784
21,19,Jits_Linear_5,74,9999,9999,9999,9999,3536052300
21,19,Jits_Linear_5,75,9999,9999,9999,9999,3536683092
21,19,Jits_Linear_5,76,9999,9999,9999,9999,3537323064
21,19,Jits_Linear_5,77,9999,9999,9999,9999,3537963080
21,19,Jits_Linear_5,78,9999,9999,9999,9999,3538603120
21,19,Jits_Linear_5,79,9999,9999,9999,9999,3539243132
21,19,Jits_Linear_5,80,9999,9999,9999,9999,3539883104
21,19,Jits_Linear_5,81,9999,9999,9999,9999,3540523116
21,19,Jits_Linear_5,82,9999,9999,9999,9999,3541163080
21,19,Jits_Linear_5,83,9999,9999,9999,9999,3541803096
21,19,Jits_Linear_5,84,9999,9999,9999,9999,3542443064
21,19,Jits_Linear_5,85,9999,9999,9999,9999,3543102556
21,19,Jits_Linear_5,86,9999,9999,9999,9999,3543752784
21,19,Jits_Linear_5,87,9999,9999,9999,9999,3544403060
21,19,Jits_Linear_5,88,9999,9999,9999,9999,3545052244
21,19,Jits_Linear_5,89,9999,9999,9999,9999,3545702524
21,19,Jits_Linear_5,90,9999,9999,9999,9999,3546362940
21,19,Jits_Linear_5,91,9999,9999,9999,9999,3547022432
21,19,Jits_Linear_5,92,9999,9999,9999,9999,3547682912
21,19,Jits_Linear_5,93,9999,9999,9999,9999,3548342348
21,19,Jits_Linear_5,94,9999,9999,9999,9999,3549002812
21,19,Jits_Linear_5,95,9999,9999,9999,9999,3549672520
21,19,Jits_Linear_5,96,9999,9999,9999,9999,3550342228
21,19,Jits_Linear_5,97,9999,9999,9999,9999,3551012916
21,19,Jits_Linear_5,98,9999,9999,9999,9999,3551682628
21,19,Jits_Linear_5,99,9999,9999,9999,9999,3552352308
21,19,Jits_Linear_5,100,9999,9999,9999,9999,3553032284
21,19,Jits_Linear_5,101,9999,9999,9999,9999,3553712184
21,19,Jits_Linear_5,102,9999,9999,9999,9999,3554392124
21,19,Jits_Linear_5,103,9999,9999,9999,9999,3555072096
21,19,Jits_Linear_5,104,9999,9999,9999,9999,3555753040
21,19,Jits_Linear_5,105,9999,9999,9999,9999,3556442204
21,19,Jits_Linear_5,106,9999,9999,9999,9999,3557132364
21,19,Jits_Linear_5,107,9999,9999,9999,9999,3557822524
21,19,Jits_Linear_5,108,9999,9999,9999,9999,3558512732
21,19,Jits_Linear_5,109,9999,9999,9999,9999,3559202896
21,19,Jits_Linear_5,110,9999,9999,9999,9999,3559902272
21,19,Jits_Linear_5,111,9999,9999,9999,9999,3560602748
21,19,Jits_Linear_5,112,9999,9999,9999,9999,3561302124
21,19,Jits_Linear_5,113,9999,9999,9999,9999,3562002552
21,19,Jits_Linear_5,114,9999,9999,9999,9999,3562702972
21,19,Jits_Linear_5,115,9999,9999,9999,9999,3563412588
21,19,Jits_Linear_5,116,9999,9999,9999,9999,3564122232
21,19,Jits_Linear_5,117,9999,9999,9999,9999,3564832844
21,19,Jits_Linear_5,118,9999,9999,9999,9999,3565542488
21,19,Jits_Linear_5,119,9999,9999,9999,9999,3566252124
21,19,Jits_Linear_5,120,9999,9999,9999,9999,3566973048
21,19,Jits_Linear_5,121,9999,9999,9999,9999,3567692876
21,19,Jits_Linear_5,122,9999,9999,9999,9999,3568412796
21,19,Jits_Linear_5,123,9999,9999,9999,9999,3569132620
21,19,Jits_Linear_5,124,9999,9999,9999,9999,3569852520
21,19,Jits_Linear_5,125,9999,9999,9999,9999,3570582648
21,19,Jits_Linear_5,126,9999,9999,9999,9999,3571312748
21,19,Jits_Linear_5,127,9999,9999,9999,9999,3572042852
21,19,Jits_Linear_5,128,9999,9999,9999,9999,3572772964
21,19,Jits_Linear_5,129,9999,9999,9999,9999,3573503056
21,19,Jits_Linear_5,130,9999,9999,9999,9999,3574242364
21,19,Jits_Linear_5,131,9999,9999,9999,9999,3574982776
21,19,Jits_Linear_5,132,9999,9999,9999,9999,3575723120
21,19,Jits_Linear_5,133,9999,9999,9999,9999,3576472676
21,19,Jits_Linear_5,134,9999,9999,9999,9999,3577213032
21,19,Jits_Linear_5,135,9999,9999,9999,9999,3577962556
21,19,Jits_Linear_5,136,9999,9999,9999,9999,3578712136
21,19,Jits_Linear_5,137,9999,9999,9999,9999,3579462756
21,19,Jits_Linear_5,138,9999,9999,9999,9999,3580212344
21,19,Jits_Linear_5,139,9999,9999,9999,9999,3580962912
21,19,Jits_Linear_5,140,9999,9999,9999,9999,3581722680
21,19,Jits_Linear_5,141,9999,9999,9999,9999,3582482520
21,19,Jits_Linear_5,142,9999,9999,9999,9999,3583242360
21,19,Jits_Linear_5,143,9999,9999,9999,9999,3584002128
21,19,Jits_Linear_5,144,9999,9999,9999,9999,3584763004
21,19,Jits_Linear_5,145,9999,9999,9999,9999,3585533036
21,19,Jits_Linear_5,146,9999,9999,9999,9999,3586303064
21,19,Jits_Linear_5,147,9999,9999,9999,9999,3587072096
21,19,Jits_Linear_5,148,9999,9999,9999,9999,3587842120
21,19,Jits_Linear_5,149,9999,9999,9999,9999,3588612148
21,19,Jits_Linear_5,150,9999,9999,9999,9999,3589392444
21,19,Jits_Linear_5,151,9999,9999,9999,9999,3590172728
21,19,Jits_Linear_5,152,9999,9999,9999,9999,3590953012
21,19,Jits_Linear_5,153,9999,9999,9999,9999,3591732312
21,19,Jits_Linear_5,154,9999,9999,9999,9999,3592512604
21,19,Jits_Linear_5,155,9999,9999,9999,9999,3593302108
21,19,Jits_Linear_5,156,9999,9999,9999,9999,3594092652
21,19,Jits_Linear_5,157,9999,9999,9999,9999,3594882152
21,19,Jits_Linear_5,158,9999,9999,9999,9999,3595672632
21,19,Jits_Linear_5,159,9999,9999,9999,9999,3596462168
21,19,Jits_Linear_5,160,9999,9999,9999,9999,3597262912
21,19,Jits_Linear_5,161,9999,9999,9999,9999,3598062684
21,19,Jits_Linear_5,162,9999,9999,9999,9999,3598862456
21,19,Jits_Linear_5,163,9999,9999,9999,9999,3599662152
21,19,Jits_Linear_5,164,9999,9999,9999,9999,3600462968
21,19,Jits_Linear_5,165,9999,9999,9999,9999,3601272932
21,19,Jits_Linear_5,166,9999,9999,9999,9999,3602082912
21,19,Jits_Linear_5,167,9999,9999,9999,9999,3602892920
21,19,Jits_Linear_5,168,9999,9999,9999,9999,3603702884
21,19,Jits_Linear_5,169,9999,9999,9999,9999,3604512848
22,3,ISIP_8,0,5,42,127,3664635184
22,3,ISIP_8,1,1,48,32,3665289168
22,3,ISIP_8,2,5,42,127,3665435064
22,3,ISIP_8,3,1,48,38,3666210620
22,3,ISIP_8,4,5,42,127,3666234740
22,3,ISIP_8,5,1,48,41,3667008112
22,3,ISIP_8,6,5,42,127,3667034400
22,3,ISIP_8,7,1,48,42,3667812856
22,3,ISIP_8,8,5,42,127,3667835252
22,3,ISIP_8,9,1,48,39,3668576984
22,3,ISIP_8,10,5,42,127,3668635060
22,3,ISIP_8,11,1,48,43,3669359068
22,3,ISIP_8,12,5,42,127,3669434820
22,3,ISIP_8,13,1,48,43,3670124692
22,3,ISIP_8,14,5,42,127,3670234684
22,3,ISIP_8,15,1,48,48,3670952720
22,3,ISIP_8,16,5,42,127,3671035332
22,3,ISIP_8,17,1,48,39,3671752980
22,3,ISIP_8,18,5,42,127,3671834844
22,3,ISIP_8,19,1,48,43,3672521296
22,3,ISIP_8,20,5,42,127,3672634784
22,3,ISIP_8,21,1,48,46,3673374512
22,3,ISIP_8,22,5,42,127,3673434608
22,3,ISIP_8,23,1,48,47,3674151580
22,3,ISIP_8,24,5,42,127,3674235384
22,3,ISIP_8,25,1,48,46,3674954676
22,3,ISIP_8,26,5,42,127,3675034896
22,3,ISIP_8,27,1,48,49,3675740948
22,3,ISIP_8,28,5,42,127,3675834580
22,3,ISIP_8,29,1,48,47,3676571876
22,3,ISIP_8,30,5,42,127,3676634536
22,3,ISIP_8,31,1,48,46,3677370356
22,3,ISIP_8,32,5,42,127,3677435392
22,3,ISIP_8,33,1,48,49,3678168152
22,3,ISIP_8,34,5,42,127,3678235048
22,3,ISIP_8,35,1,48,48,3678965260
22,3,ISIP_8,36,5,42,127,3679034784
22,3,ISIP_8,37,1,48,48,3679747200
22,3,ISIP_8,38,5,42,127,3679834448
22,3,ISIP_8,39,1,48,51,3680571912
22,3,ISIP_8,40,5,42,127,3680635376
22,3,ISIP_8,41,1,48,46,3681425128
22,3,ISIP_8,42,5,42,127,3681434960
22,3,ISIP_8,43,1,48,43,3682206532
22,3,ISIP_8,44,5,42,127,3682234692
22,3,ISIP_8,45,1,48,47,3682985920
22,3,ISIP_8,46,5,42,127,3683034428
22,3,ISIP_8,47,1,48,49,3683807724
22,3,ISIP_8,48,5,42,127,3683835208
22,3,ISIP_8,49,1,48,51,3684565420
22,3,ISIP_8,50,5,42,127,3684635088
22,3,ISIP_8,51,1,48,50,3685336508
22,3,ISIP_8,52,5,42,127,3685434588
22,3,ISIP_8,53,1,48,50,3686143868
22,3,ISIP_8,54,5,42,127,3686234408
22,3,ISIP_8,55,1,48,54,3686908820
22,3,ISIP_8,56,5,42,127,3687035176
22,3,ISIP_8,57,1,48,48,3687730172
22,3,ISIP_8,58,5,42,127,3687835132
22,3,ISIP_8,59,1,48,43,3688510084
22,3,ISIP_8,60,1,48,49,3689308544
22,3,ISIP_8,61,1,48,54,3690096756
22,3,ISIP_8,62,1,48,51,3690846368
22,3,ISIP_8,63,1,48,54,3691614976
22,3,ISIP_8,64,1,48,51,3692352476
22,3,ISIP_8,65,1,48,54,3693134552
22,3,ISIP_8,66,1,48,54,3693902120
22,3,ISIP_8,67,1,48,52,3694660260
22,3,ISIP_8,68,1,48,53,3695458496
22,3,ISIP_8,69,1,48,50,3696251044
22,3,ISIP_8,70,1,48,53,3697014564
22,3,ISIP_8,71,1,48,53,3697780264
22,3,ISIP_8,72,1,48,50,3698539900
22,3,ISIP_8,73,1,48,53,3699293852
22,3,ISIP_8,74,1,48,50,3700075476
22,3,ISIP_8,75,1,48,52,3700834596
22,3,ISIP_8,76,1,48,52,3701601488
22,3,ISIP_8,77,1,48,48,3702339884
22,3,ISIP_8,78,1,48,50,3703094880
22,3,ISIP_8,79,1,48,51,3703863496
22,3,ISIP_8,80,1,48,51,3704665096
22,3,ISIP_8,81,1,48,49,3705401300
22,3,ISIP_8,82,1,48,52,3706156976
22,3,ISIP_8,83,1,48,54,3706912052
22,3,ISIP_8,84,1,48,48,3707693004
22,3,ISIP_8,85,1,48,50,3708448752
22,3,ISIP_8,86,1,48,50,3709194632
22,3,ISIP_8,87,1,48,47,3709958536
22,3,ISIP_8,88,1,48,51,3710713908
22,3,ISIP_8,89,1,48,50,3711474588
22,3,ISIP_8,90,1,48,48,3712237292
22,3,ISIP_8,91,1,48,49,3712997536
22,3,ISIP_8,92,1,48,45,3713767192
22,3,ISIP_8,93,1,48,45,3714513516
22,3,ISIP_8,94,1,48,49,3715292380
22,3,ISIP_8,95,1,48,47,3716038400
22,3,ISIP_8,96,1,48,46,3716797964
22,3,ISIP_8,97,1,48,49,3717539572
22,3,ISIP_8,98,1,48,43,3718295000
22,3,ISIP_8,99,1,48,45,3719039004
22,3,ISIP_8,100,1,48,49,3719779852
22,3,ISIP_8,101,1,48,48,3720536424
22,3,ISIP_8,102,1,48,49,3721270628
22,3,ISIP_8,103,1,48,50,3722059436
22,3,ISIP_8,104,1,48,49,3722783244
22,3,ISIP_8,105,1,48,48,3723489332
22,3,ISIP_8,106,1,48,50,3724241708
22,3,ISIP_8,107,1,48,49,3724957892
22,3,ISIP_8,108,1,48,46,3725747300
22,3,ISIP_8,109,1,48,51,3726492644
22,3,ISIP_8,110,1,48,52,3727237452
22,3,ISIP_8,111,1,48,46,3728014816
22,3,ISIP_8,112,1,48,48,3728768396
22,3,ISIP_8,113,1,48,47,3729528404
22,3,ISIP_8,114,1,48,46,3730285648
22,3,ISIP_8,115,1,48,45,3731023652
22,3,ISIP_8,116,1,48,47,3731802440
22,3,ISIP_8,117,1,48,49,3732542632
22,3,ISIP_8,118,1,48,46,3733329344
22,3,ISIP_8,119,1,48,46,3734093244
22,3,ISIP_8,120,1,48,48,3734850788
22,3,ISIP_8,121,1,48,49,3735623584
22,3,ISIP_8,122,1,48,50,3736387264
22,3,ISIP_8,123,1,48,48,3737149968
22,3,ISIP_8,124,1,48,46,3737944464
22,3,ISIP_8,125,1,48,47,3738699988
22,3,ISIP_8,126,1,48,48,3739487524
22,3,ISIP_8,127,1,48,43,3740293240
22,3,ISIP_8,128,1,48,47,3741035068
22,3,ISIP_8,129,1,48,45,3741814008
22,3,ISIP_8,130,1,48,39,3742630588
22,3,ISIP_8,131,1,48,50,3743393892
22,3,ISIP_8,132,1,48,47,3744115956
22,3,ISIP_8,133,1,48,47,3744873124
22,3,ISIP_8,134,1,48,48,3745628872
22,3,ISIP_8,135,1,48,47,3746359260
22,3,ISIP_8,136,1,48,45,3747121668
22,3,ISIP_8,137,1,48,46,3747836208
22,3,ISIP_8,138,1,48,48,3748546532
22,3,ISIP_8,139,1,48,44,3749275956
22,3,ISIP_8,140,1,48,46,3750044872
22,3,ISIP_8,141,1,48,44,3750759300
22,3,ISIP_8,142,1,48,44,3751513556
22,3,ISIP_8,143,1,48,43,3752237516
22,3,ISIP_8,144,1,48,42,3753001564
22,3,ISIP_8,145,1,48,44,3753800848
22,3,ISIP_8,146,1,48,46,3754616280
22,3,ISIP_8,147,1,48,48,3755367988
22,3,ISIP_8,148,1,48,49,3756140340
22,3,ISIP_8,149,1,48,40,3756903944
22,3,ISIP_8,150,1,48,41,3757671956
22,3,ISIP_8,151,1,48,44,3758434440
22,3,ISIP_8,152,1,48,46,3759212772
22,3,ISIP_8,153,1,48,44,3759967324
22,3,ISIP_8,154,1,48,48,3760748200
22,3,ISIP_8,155,1,48,44,3761539852
22,3,ISIP_8,156,1,48,42,3762323724
22,3,ISIP_8,157,1,48,43,3763098944
22,3,ISIP_8,158,1,48,42,3763782472
22,3,ISIP_8,159,1,48,46,3764540016
22,3,ISIP_8,160,1,48,49,3765351336
22,3,ISIP_8,161,1,48,48,3766104616
22,3,ISIP_8,162,1,48,49,3766817208
22,3,ISIP_8,163,1,48,44,3767581332
22,3,ISIP_8,164,1,48,48,3768331768
22,3,ISIP_8,165,1,48,46,3769108836
22,3,ISIP_8,166,1,48,52,3769894872
22,3,ISIP_8,167,1,48,46,3770661692
22,3,ISIP_8,168,1,48,42,3771471744
22,3,ISIP_8,169,1,48,40,3772275816
22,3,ISIP_8,170,1,48,38,3773077936
22,3,ISIP_8,171,1,48,37,3773969620
22,3,ISIP_8,172,1,48,44,3774694776
22,3,ISIP_8,173,1,48,46,3775431372
22,3,ISIP_8,174,1,48,46,3776237236
22,3,ISIP_8,175,1,48,46,3777016320
22,3,ISIP_8,176,1,48,43,3777745812
22,3,ISIP_8,177,1,48,46,3778478232
22,3,ISIP_8,178,1,48,43,3779227168
22,3,ISIP_8,179,1,48,47,3780000796
22,3,ISIP_8,180,1,48,44,3780778160
22,3,ISIP_8,181,1,48,44,3781506728
22,3,ISIP_8,182,1,48,42,3782349944
22,3,ISIP_8,183,1,48,35,3783241072
22,3,ISIP_8,184,1,48,45,3784023600
22,3,ISIP_8,0,9999,9999,9999,9999,3664632896
22,3,ISIP_8,1,9999,9999,9999,9999,3665432628
22,3,ISIP_8,2,9999,9999,9999,9999,3666232376
22,3,ISIP_8,3,9999,9999,9999,9999,3667032112
22,3,ISIP_8,4,9999,9999,9999,9999,3667832892
22,3,ISIP_8,5,9999,9999,9999,9999,3668632624
22,3,ISIP_8,6,9999,9999,9999,9999,3669432384
22,3,ISIP_8,7,9999,9999,9999,9999,3670232172
22,3,ISIP_8,8,9999,9999,9999,9999,3671032896
22,3,ISIP_8,9,9999,9999,9999,9999,3671832628
22,3,ISIP_8,10,9999,9999,9999,9999,3672632420
22,3,ISIP_8,11,9999,9999,9999,9999,3673432172
22,3,ISIP_8,12,9999,9999,9999,9999,3674232948
22,3,ISIP_8,13,9999,9999,9999,9999,3675032684
22,3,ISIP_8,14,9999,9999,9999,9999,3675832368
22,3,ISIP_8,15,9999,9999,9999,9999,3676632176
22,3,ISIP_8,16,9999,9999,9999,9999,3677432880
22,3,ISIP_8,17,9999,9999,9999,9999,3678232688
22,3,ISIP_8,18,9999,9999,9999,9999,3679032420
22,3,ISIP_8,19,9999,9999,9999,9999,3679832156
22,3,ISIP_8,20,9999,9999,9999,9999,3680632940
22,3,ISIP_8,21,9999,9999,9999,9999,3681432672
22,3,ISIP_8,22,9999,9999,9999,9999,3682232408
22,3,ISIP_8,23,9999,9999,9999,9999,3683032140
22,3,ISIP_8,24,9999,9999,9999,9999,3683832920
22,3,ISIP_8,25,9999,9999,9999,9999,3684632652
22,3,ISIP_8,26,9999,9999,9999,9999,3685432372
22,3,ISIP_8,27,9999,9999,9999,9999,3686232120
22,3,ISIP_8,28,9999,9999,9999,9999,3687032884
22,3,ISIP_8,29,9999,9999,9999,9999,3687832696
22,3,ISIP_8,30,9999,9999,9999,9999,3688632380
22,3,ISIP_8,31,9999,9999,9999,9999,3689432184
22,3,ISIP_8,32,9999,9999,9999,9999,3690232884
22,3,ISIP_8,33,9999,9999,9999,9999,3691032688
22,3,ISIP_8,34,9999,9999,9999,9999,3691832416
22,3,ISIP_8,35,9999,9999,9999,9999,3692632148
22,3,ISIP_8,36,9999,9999,9999,9999,3693432920
22,3,ISIP_8,37,9999,9999,9999,9999,3694232648
22,3,ISIP_8,38,9999,9999,9999,9999,3695032404
22,3,ISIP_8,39,9999,9999,9999,9999,3695832132
22,3,ISIP_8,40,9999,9999,9999,9999,3696632908
22,3,ISIP_8,41,9999,9999,9999,9999,3697432636
22,3,ISIP_8,42,9999,9999,9999,9999,3698232440
22,3,ISIP_8,43,9999,9999,9999,9999,3699032168
22,3,ISIP_8,44,9999,9999,9999,9999,3699832944
22,3,ISIP_8,45,9999,9999,9999,9999,3700632672
22,3,ISIP_8,46,9999,9999,9999,9999,3701432428
22,3,ISIP_8,47,9999,9999,9999,9999,3702232156
22,3,ISIP_8,48,9999,9999,9999,9999,3703032928
22,3,ISIP_8,49,9999,9999,9999,9999,3703832660
22,3,ISIP_8,50,9999,9999,9999,9999,3704632388
22,3,ISIP_8,51,9999,9999,9999,9999,3705432112
22,3,ISIP_8,52,9999,9999,9999,9999,3706232888
22,3,ISIP_8,53,9999,9999,9999,9999,3707032676
22,3,ISIP_8,54,9999,9999,9999,9999,3707832432
22,3,ISIP_8,55,9999,9999,9999,9999,3708632160
22,3,ISIP_8,56,9999,9999,9999,9999,3709432936
22,3,ISIP_8,57,9999,9999,9999,9999,3710232664
22,3,ISIP_8,58,9999,9999,9999,9999,3711032396
22,3,ISIP_8,59,9999,9999,9999,9999,3711832124
22,3,ISIP_8,60,9999,9999,9999,9999,3712632900
22,3,ISIP_8,61,9999,9999,9999,9999,3713432628
22,3,ISIP_8,62,9999,9999,9999,9999,3714232384
22,3,ISIP_8,63,9999,9999,9999,9999,3715032112
22,3,ISIP_8,64,9999,9999,9999,9999,3715832888
22,3,ISIP_8,65,9999,9999,9999,9999,3716632692
22,3,ISIP_8,66,9999,9999,9999,9999,3717432420
22,3,ISIP_8,67,9999,9999,9999,9999,3718232152
22,3,ISIP_8,68,9999,9999,9999,9999,3719032928
22,3,ISIP_8,69,9999,9999,9999,9999,3719832648
22,3,ISIP_8,70,9999,9999,9999,9999,3720632400
22,3,ISIP_8,71,9999,9999,9999,9999,3721432116
22,3,ISIP_8,72,9999,9999,9999,9999,3722232892
22,3,ISIP_8,73,9999,9999,9999,9999,3723032696
22,3,ISIP_8,74,9999,9999,9999,9999,3723832424
22,3,ISIP_8,75,9999,9999,9999,9999,3724632152
22,3,ISIP_8,76,9999,9999,9999,9999,3725432928
22,3,ISIP_8,77,9999,9999,9999,9999,3726232656
22,3,ISIP_8,78,9999,9999,9999,9999,3727032412
22,3,ISIP_8,79,9999,9999,9999,9999,3727832140
22,3,ISIP_8,80,9999,9999,9999,9999,3728632916
22,3,ISIP_8,81,9999,9999,9999,9999,3729432644
22,3,ISIP_8,82,9999,9999,9999,9999,3730232372
22,3,ISIP_8,83,9999,9999,9999,9999,3731032172
22,3,ISIP_8,84,9999,9999,9999,9999,3731832948
22,3,ISIP_8,85,9999,9999,9999,9999,3732632676
22,3,ISIP_8,86,9999,9999,9999,9999,3733432416
22,3,ISIP_8,87,9999,9999,9999,9999,3734232144
22,3,ISIP_8,88,9999,9999,9999,9999,3735032916
22,3,ISIP_8,89,9999,9999,9999,9999,3735832648
22,3,ISIP_8,90,9999,9999,9999,9999,3736632376
22,3,ISIP_8,91,9999,9999,9999,9999,3737432180
22,3,ISIP_8,92,9999,9999,9999,9999,3738232880
22,3,ISIP_8,93,9999,9999,9999,9999,3739032684
22,3,ISIP_8,94,9999,9999,9999,9999,3739832440
22,3,ISIP_8,95,9999,9999,9999,9999,3740632168
22,3,ISIP_8,96,9999,9999,9999,9999,3741432944
22,3,ISIP_8,97,9999,9999,9999,9999,3742232672
22,3,ISIP_8,98,9999,9999,9999,9999,3743032400
22,3,ISIP_8,99,9999,9999,9999,9999,3743832132
22,3,ISIP_8,100,9999,9999,9999,9999,3744632904
22,3,ISIP_8,101,9999,9999,9999,9999,3745432632
22,3,ISIP_8,102,9999,9999,9999,9999,3746232388
22,3,ISIP_8,103,9999,9999,9999,9999,3747032120
22,3,ISIP_8,104,9999,9999,9999,9999,3747832896
22,3,ISIP_8,105,9999,9999,9999,9999,3748632692
22,3,ISIP_8,106,9999,9999,9999,9999,3749432408
22,3,ISIP_8,107,9999,9999,9999,9999,3750232136
22,3,ISIP_8,108,9999,9999,9999,9999,3751032912
22,3,ISIP_8,109,9999,9999,9999,9999,3751832640
22,3,ISIP_8,110,9999,9999,9999,9999,3752632396
22,3,ISIP_8,111,9999,9999,9999,9999,3753432124
22,3,ISIP_8,112,9999,9999,9999,9999,3754232900
22,3,ISIP_8,113,9999,9999,9999,9999,3755032628
22,3,ISIP_8,114,9999,9999,9999,9999,3755832432
22,3,ISIP_8,115,9999,9999,9999,9999,3756632160
22,3,ISIP_8,116,9999,9999,9999,9999,3757432936
22,3,ISIP_8,117,9999,9999,9999,9999,3758232664
22,3,ISIP_8,118,9999,9999,9999,9999,3759032416
22,3,ISIP_8,119,9999,9999,9999,9999,3759832148
22,3,ISIP_8,120,9999,9999,9999,9999,3760632920
22,3,ISIP_8,121,9999,9999,9999,9999,3761432648
22,3,ISIP_8,122,9999,9999,9999,9999,3762232376
22,3,ISIP_8,123,9999,9999,9999,9999,3763032180
22,3,ISIP_8,124,9999,9999,9999,9999,3763832952
22,3,ISIP_8,125,9999,9999,9999,9999,3764632688
22,3,ISIP_8,126,9999,9999,9999,9999,3765432432
22,3,ISIP_8,127,9999,9999,9999,9999,3766232148
22,3,ISIP_8,128,9999,9999,9999,9999,3767032924
22,3,ISIP_8,129,9999,9999,9999,9999,3767832652
22,3,ISIP_8,130,9999,9999,9999,9999,3768632380
22,3,ISIP_8,131,9999,9999,9999,9999,3769432112
22,3,ISIP_8,132,9999,9999,9999,9999,3770232884
22,3,ISIP_8,133,9999,9999,9999,9999,3771032640
22,3,ISIP_8,134,9999,9999,9999,9999,3771832372
22,3,ISIP_8,135,9999,9999,9999,9999,3772632176
22,3,ISIP_8,136,9999,9999,9999,9999,3773432952
22,3,ISIP_8,137,9999,9999,9999,9999,3774232680
22,3,ISIP_8,138,9999,9999,9999,9999,3775032412
22,3,ISIP_8,139,9999,9999,9999,9999,3775832140
22,3,ISIP_8,140,9999,9999,9999,9999,3776632916
22,3,ISIP_8,141,9999,9999,9999,9999,3777432668
22,3,ISIP_8,142,9999,9999,9999,9999,3778232396
22,3,ISIP_8,143,9999,9999,9999,9999,3779032128
22,3,ISIP_8,144,9999,9999,9999,9999,3779832904
22,3,ISIP_8,145,9999,9999,9999,9999,3780632632
22,3,ISIP_8,146,9999,9999,9999,9999,3781432440
22,3,ISIP_8,147,9999,9999,9999,9999,3782232168
22,3,ISIP_8,148,9999,9999,9999,9999,3783032944
22,3,ISIP_8,149,9999,9999,9999,9999,3783832624
23,5,ISIP_5,0,5,42,127,3808089340
23,5,ISIP_5,1,5,42,127,3808590252
23,5,ISIP_5,2,1,48,50,3808707840
23,5,ISIP_5,3,5,42,127,3809089872
23,5,ISIP_5,4,1,48,49,3809130840
23,5,ISIP_5,5,5,42,127,3809589864
23,5,ISIP_5,6,1,48,49,3809601432
23,5,ISIP_5,7,1,48,53,3810078224
23,5,ISIP_5,8,5,42,127,3810090376
23,5,ISIP_5,9,1,48,55,3810580912
23,5,ISIP_5,10,5,42,127,3810589920
23,5,ISIP_5,11,1,48,51,3811083376
23,5,ISIP_5,12,5,42,127,3811089764
23,5,ISIP_5,13,5,42,127,3811589692
23,5,ISIP_5,14,1,48,51,3811596096
23,5,ISIP_5,15,1,48,49,3812089004
23,5,ISIP_5,16,5,42,127,3812090720
23,5,ISIP_5,17,1,48,49,3812583508
23,5,ISIP_5,18,5,42,127,3812589896
23,5,ISIP_5,19,1,48,50,3813081628
23,5,ISIP_5,20,5,42,127,3813089740
23,5,ISIP_5,21,1,48,47,3813545200
23,5,ISIP_5,22,5,42,127,3813590632
23,5,ISIP_5,23,1,48,44,3814040552
23,5,ISIP_5,24,5,42,127,3814090032
23,5,ISIP_5,25,1,48,48,3814522572
23,5,ISIP_5,26,5,42,127,3814589948
23,5,ISIP_5,27,1,48,46,3815040816
23,5,ISIP_5,28,5,42,127,3815089496
23,5,ISIP_5,29,1,48,48,3815573048
23,5,ISIP_5,30,5,42,127,3815590360
23,5,ISIP_5,31,1,48,47,3816070996
23,5,ISIP_5,32,5,42,127,3816089980
23,5,ISIP_5,33,1,48,44,3816567548
23,5,ISIP_5,34,5,42,127,3816589652
23,5,ISIP_5,35,1,48,45,3817072036
23,5,ISIP_5,36,5,42,127,3817090392
23,5,ISIP_5,37,1,48,46,3817588656
23,5,ISIP_5,38,5,42,127,3817590384
23,5,ISIP_5,39,1,48,42,3818083544
23,5,ISIP_5,40,5,42,127,3818089784
23,5,ISIP_5,41,1,48,43,3818562144
23,5,ISIP_5,42,5,42,127,3818589480
23,5,ISIP_5,43,1,48,43,3819052864
23,5,ISIP_5,44,5,42,127,3819090372
23,5,ISIP_5,45,1,48,48,3819542836
23,5,ISIP_5,46,5,42,127,3819589992
23,5,ISIP_5,47,1,48,44,3820036176
23,5,ISIP_5,48,5,42,127,3820089760
23,5,ISIP_5,49,1,48,43,3820545960
23,5,ISIP_5,50,5,42,127,3820589380
23,5,ISIP_5,51,1,48,43,3821071312
23,5,ISIP_5,52,5,42,127,3821090420
23,5,ISIP_5,53,1,48,45,3821579316
23,5,ISIP_5,54,5,42,127,3821589820
23,5,ISIP_5,55,1,48,40,3822082596
23,5,ISIP_5,56,5,42,127,3822089512
23,5,ISIP_5,57,1,48,45,3822551328
23,5,ISIP_5,58,5,42,127,3822590404
23,5,ISIP_5,59,1,48,43,3823054092
23,5,ISIP_5,60,5,42,127,3823090100
23,5,ISIP_5,61,1,48,42,3823527752
23,5,ISIP_5,62,5,42,127,3823589648
23,5,ISIP_5,63,1,48,44,3824020468
23,5,ISIP_5,64,5,42,127,3824089392
23,5,ISIP_5,65,1,48,42,3824514900
23,5,ISIP_5,66,5,42,127,3824590356
23,5,ISIP_5,67,1,48,43,3825007868
23,5,ISIP_5,68,5,42,127,3825089904
23,5,ISIP_5,69,1,48,40,3825503748
23,5,ISIP_5,70,5,42,127,3825589672
23,5,ISIP_5,71,1,48,42,3826031340
23,5,ISIP_5,72,5,42,127,3826090340
23,5,ISIP_5,73,1,48,41,3826535220
23,5,ISIP_5,74,5,42,127,3826590184
23,5,ISIP_5,75,1,48,44,3827031104
23,5,ISIP_5,76,5,42,127,3827089704
23,5,ISIP_5,77,1,48,45,3827516812
23,5,ISIP_5,78,5,42,127,3827589400
23,5,ISIP_5,79,1,48,45,3828051508
23,5,ISIP_5,80,1,48,43,3828535264
23,5,ISIP_5,81,1,48,42,3829017832
23,5,ISIP_5,82,1,48,40,3829492536
23,5,ISIP_5,83,1,48,40,3829994320
23,5,ISIP_5,84,1,48,40,3830475240
23,5,ISIP_5,85,1,48,36,3831012028
23,5,ISIP_5,86,1,48,39,3831499008
23,5,ISIP_5,87,1,48,39,3831985904
23,5,ISIP_5,88,1,48,40,3832476096
23,5,ISIP_5,89,1,48,45,3832969332
23,5,ISIP_5,90,1,48,44,3833462736
23,5,ISIP_5,91,1,48,40,3833964896
23,5,ISIP_5,92,1,48,42,3834443868
23,5,ISIP_5,93,1,48,45,3834936076
23,5,ISIP_5,94,1,48,32,3835422004
23,5,ISIP_5,95,1,48,40,3835896340
23,5,ISIP_5,96,1,48,43,3836372840
23,5,ISIP_5,97,1,48,39,3836868416
23,5,ISIP_5,98,1,48,40,3837359732
23,5,ISIP_5,99,1,48,40,3837864956
23,5,ISIP_5,100,1,48,43,3838340764
23,5,ISIP_5,101,1,48,49,3838852572
23,5,ISIP_5,102,1,48,41,3839317700
23,5,ISIP_5,103,1,48,46,3839791288
23,5,ISIP_5,104,1,48,37,3840272952
23,5,ISIP_5,105,1,48,36,3840745264
23,5,ISIP_5,106,1,48,43,3841233292
23,5,ISIP_5,107,1,48,38,3841715332
23,5,ISIP_5,108,1,48,41,3842176176
23,5,ISIP_5,109,1,48,41,3842669356
23,5,ISIP_5,110,1,48,43,3843165008
23,5,ISIP_5,111,1,48,43,3843641884
23,5,ISIP_5,112,1,48,34,3844120552
23,5,ISIP_5,113,1,48,38,3844595940
23,5,ISIP_5,114,1,48,39,3845075568
23,5,ISIP_5,115,1,48,42,3845550352
23,5,ISIP_5,116,1,48,41,3846046752
23,5,ISIP_5,117,1,48,37,3846540584
23,5,ISIP_5,118,1,48,33,3847021496
23,5,ISIP_5,119,1,48,39,3847486108
23,5,ISIP_5,120,1,48,41,3847974504
23,5,ISIP_5,121,1,48,40,3848452132
23,5,ISIP_5,122,1,48,41,3848909412
23,5,ISIP_5,123,1,48,40,3849394888
23,5,ISIP_5,124,1,48,40,3849862468
23,5,ISIP_5,125,1,48,42,3850353784
23,5,ISIP_5,126,1,48,44,3850845616
23,5,ISIP_5,127,1,48,38,3851350392
23,5,ISIP_5,128,1,48,40,3851862724
23,5,ISIP_5,129,1,48,37,3852351868
23,5,ISIP_5,130,1,48,37,3852847300
23,5,ISIP_5,131,1,48,40,3853326420
23,5,ISIP_5,132,1,48,32,3853810472
23,5,ISIP_5,133,1,48,37,3854260048
23,5,ISIP_5,134,1,48,38,3854754208
23,5,ISIP_5,135,1,48,42,3855247664
23,5,ISIP_5,136,1,48,33,3855727084
23,5,ISIP_5,137,1,48,30,3856208224
23,5,ISIP_5,138,1,48,31,3856676272
23,5,ISIP_5,139,1,48,43,3857163096
23,5,ISIP_5,140,1,48,42,3857662712
23,5,ISIP_5,141,1,48,42,3858121488
23,5,ISIP_5,142,1,48,46,3858593280
23,5,ISIP_5,143,1,48,46,3859083808
23,5,ISIP_5,144,1,48,43,3859561508
23,5,ISIP_5,145,1,48,41,3860045116
23,5,ISIP_5,146,1,48,40,3860509204
23,5,ISIP_5,147,1,48,35,3860994236
23,5,ISIP_5,148,1,48,38,3861499312
23,5,ISIP_5,149,1,48,40,3861980000
23,5,ISIP_5,150,1,48,39,3862435040
23,5,ISIP_5,151,1,48,33,3862904336
23,5,ISIP_5,152,1,48,34,3863379196
23,5,ISIP_5,153,1,48,40,3863837748
23,5,ISIP_5,154,1,48,40,3864302656
23,5,ISIP_5,155,1,48,36,3864754772
23,5,ISIP_5,156,1,48,35,3865201932
23,5,ISIP_5,157,1,48,40,3865668188
23,5,ISIP_5,158,1,48,39,3866129508
23,5,ISIP_5,159,1,48,43,3866604960
23,5,ISIP_5,160,1,48,43,3867062456
23,5,ISIP_5,161,1,48,43,3867540228
23,5,ISIP_5,162,1,48,44,3868001072
23,5,ISIP_5,163,1,48,43,3868466132
23,5,ISIP_5,164,1,48,39,3868930968
23,5,ISIP_5,165,1,48,36,3869400888
23,5,ISIP_5,166,1,48,38,3869841388
23,5,ISIP_5,167,1,48,46,3870301712
23,5,ISIP_5,168,1,48,43,3870755252
23,5,ISIP_5,169,1,48,41,3871248812
23,5,ISIP_5,170,1,48,41,3871703844
23,5,ISIP_5,171,1,48,42,3872152828
23,5,ISIP_5,172,1,48,42,3872625188
23,5,ISIP_5,173,1,48,39,3873085892
23,5,ISIP_5,174,1,48,40,3873539956
23,5,ISIP_5,175,1,48,37,3874018632
23,5,ISIP_5,176,1,48,40,3874452724
23,5,ISIP_5,177,1,48,42,3874956124
23,5,ISIP_5,178,1,48,35,3875430764
23,5,ISIP_5,179,1,48,45,3875855204
23,5,ISIP_5,180,1,48,43,3876333876
23,5,ISIP_5,181,1,48,44,3876806044
23,5,ISIP_5,182,1,48,38,3877268408
23,5,ISIP_5,183,1,48,39,3877745036
23,5,ISIP_5,184,1,48,41,3878205232
23,5,ISIP_5,185,1,48,39,3878699240
23,5,ISIP_5,186,1,48,37,3879147320
23,5,ISIP_5,187,1,48,29,3879675804
23,5,ISIP_5,188,1,48,39,3880110648
23,5,ISIP_5,189,1,48,42,3880580236
23,5,ISIP_5,190,1,48,36,3881067808
23,5,ISIP_5,191,1,48,32,3881546696
23,5,ISIP_5,192,1,48,22,3881977428
23,5,ISIP_5,193,1,48,25,3882478916
23,5,ISIP_5,194,1,48,36,3882896000
23,5,ISIP_5,195,1,48,44,3883355000
23,5,ISIP_5,196,1,48,43,3883837116
23,5,ISIP_5,197,1,48,42,3884284296
23,5,ISIP_5,198,1,48,38,3884745464
23,5,ISIP_5,199,1,48,42,3885205364
23,5,ISIP_5,200,1,48,43,3885684236
23,5,ISIP_5,201,1,48,44,3886144432
23,5,ISIP_5,202,1,48,46,3886623180
23,5,ISIP_5,203,1,48,46,3887107468
23,5,ISIP_5,204,1,48,41,3887600872
23,5,ISIP_5,205,1,48,43,3888069208
23,5,ISIP_5,0,9999,9999,9999,9999,3808087128
23,5,ISIP_5,1,9999,9999,9999,9999,3808587892
23,5,ISIP_5,2,9999,9999,9999,9999,3809087584
23,5,ISIP_5,3,9999,9999,9999,9999,3809587280
23,5,ISIP_5,4,9999,9999,9999,9999,3810088016
23,5,ISIP_5,5,9999,9999,9999,9999,3810587708
23,5,ISIP_5,6,9999,9999,9999,9999,3811087480
23,5,ISIP_5,7,9999,9999,9999,9999,3811587180
23,5,ISIP_5,8,9999,9999,9999,9999,3812087920
23,5,ISIP_5,9,9999,9999,9999,9999,3812587608
23,5,ISIP_5,10,9999,9999,9999,9999,3813087308
23,5,ISIP_5,11,9999,9999,9999,9999,3813588048
23,5,ISIP_5,12,9999,9999,9999,9999,3814087744
23,5,ISIP_5,13,9999,9999,9999,9999,3814587512
23,5,ISIP_5,14,9999,9999,9999,9999,3815087212
23,5,ISIP_5,15,9999,9999,9999,9999,3815587924
23,5,ISIP_5,16,9999,9999,9999,9999,3816087620
23,5,ISIP_5,17,9999,9999,9999,9999,3816587364
23,5,ISIP_5,18,9999,9999,9999,9999,3817088108
23,5,ISIP_5,19,9999,9999,9999,9999,3817587808
23,5,ISIP_5,20,9999,9999,9999,9999,3818087496
23,5,ISIP_5,21,9999,9999,9999,9999,3818587192
23,5,ISIP_5,22,9999,9999,9999,9999,3819087936
23,5,ISIP_5,23,9999,9999,9999,9999,3819587708
23,5,ISIP_5,24,9999,9999,9999,9999,3820087400
23,5,ISIP_5,25,9999,9999,9999,9999,3820587096
23,5,ISIP_5,26,9999,9999,9999,9999,3821087836
23,5,ISIP_5,27,9999,9999,9999,9999,3821587532
23,5,ISIP_5,28,9999,9999,9999,9999,3822087228
23,5,ISIP_5,29,9999,9999,9999,9999,3822587968
23,5,ISIP_5,30,9999,9999,9999,9999,3823087668
23,5,ISIP_5,31,9999,9999,9999,9999,3823587436
23,5,ISIP_5,32,9999,9999,9999,9999,3824087108
23,5,ISIP_5,33,9999,9999,9999,9999,3824587848
23,5,ISIP_5,34,9999,9999,9999,9999,3825087544
23,5,ISIP_5,35,9999,9999,9999,9999,3825587312
23,5,ISIP_5,36,9999,9999,9999,9999,3826088052
23,5,ISIP_5,37,9999,9999,9999,9999,3826587748
23,5,ISIP_5,38,9999,9999,9999,9999,3827087420
23,5,ISIP_5,39,9999,9999,9999,9999,3827587188
23,5,ISIP_5,40,9999,9999,9999,9999,3828087928
23,5,ISIP_5,41,9999,9999,9999,9999,3828587616
23,5,ISIP_5,42,9999,9999,9999,9999,3829087308
23,5,ISIP_5,43,9999,9999,9999,9999,3829588032
23,5,ISIP_5,44,9999,9999,9999,9999,3830087796
23,5,ISIP_5,45,9999,9999,9999,9999,3830587488
23,5,ISIP_5,46,9999,9999,9999,9999,3831087196
23,5,ISIP_5,47,9999,9999,9999,9999,3831587932
23,5,ISIP_5,48,9999,9999,9999,9999,3832087608
23,5,ISIP_5,49,9999,9999,9999,9999,3832587372
23,5,ISIP_5,50,9999,9999,9999,9999,3833088108
23,5,ISIP_5,51,9999,9999,9999,9999,3833587800
23,5,ISIP_5,52,9999,9999,9999,9999,3834087492
23,5,ISIP_5,53,9999,9999,9999,9999,3834587256
23,5,ISIP_5,54,9999,9999,9999,9999,3835087992
23,5,ISIP_5,55,9999,9999,9999,9999,3835587684
23,5,ISIP_5,56,9999,9999,9999,9999,3836087376
23,5,ISIP_5,57,9999,9999,9999,9999,3836587064
23,5,ISIP_5,58,9999,9999,9999,9999,3837087800
23,5,ISIP_5,59,9999,9999,9999,9999,3837587568
23,5,ISIP_5,60,9999,9999,9999,9999,3838087232
23,5,ISIP_5,61,9999,9999,9999,9999,3838587968
23,5,ISIP_5,62,9999,9999,9999,9999,3839087736
23,5,ISIP_5,63,9999,9999,9999,9999,3839587424
23,5,ISIP_5,64,9999,9999,9999,9999,3840087116
23,5,ISIP_5,65,9999,9999,9999,9999,3840587852
23,5,ISIP_5,66,9999,9999,9999,9999,3841087544
23,5,ISIP_5,67,9999,9999,9999,9999,3841587312
23,5,ISIP_5,68,9999,9999,9999,9999,3842088048
23,5,ISIP_5,69,9999,9999,9999,9999,3842587736
23,5,ISIP_5,70,9999,9999,9999,9999,3843087428
23,5,ISIP_5,71,9999,9999,9999,9999,3843587192
23,5,ISIP_5,72,9999,9999,9999,9999,3844087928
23,5,ISIP_5,73,9999,9999,9999,9999,3844587620
23,5,ISIP_5,74,9999,9999,9999,9999,3845087304
23,5,ISIP_5,75,9999,9999,9999,9999,3845588040
23,5,ISIP_5,76,9999,9999,9999,9999,3846087732
23,5,ISIP_5,77,9999,9999,9999,9999,3846587496
23,5,ISIP_5,78,9999,9999,9999,9999,3847087188
23,5,ISIP_5,79,9999,9999,9999,9999,3847587908
23,5,ISIP_5,80,9999,9999,9999,9999,3848087600
23,5,ISIP_5,81,9999,9999,9999,9999,3848587340
23,5,ISIP_5,82,9999,9999,9999,9999,3849088080
23,5,ISIP_5,83,9999,9999,9999,9999,3849587772
23,5,ISIP_5,84,9999,9999,9999,9999,3850087536
23,5,ISIP_5,85,9999,9999,9999,9999,3850587224
23,5,ISIP_5,86,9999,9999,9999,9999,3851087964
23,5,ISIP_5,87,9999,9999,9999,9999,3851587652
23,5,ISIP_5,88,9999,9999,9999,9999,3852087416
23,5,ISIP_5,89,9999,9999,9999,9999,3852587108
23,5,ISIP_5,90,9999,9999,9999,9999,3853087848
23,5,ISIP_5,91,9999,9999,9999,9999,3853587536
23,5,ISIP_5,92,9999,9999,9999,9999,3854087228
23,5,ISIP_5,93,9999,9999,9999,9999,3854587964
23,5,ISIP_5,94,9999,9999,9999,9999,3855087732
23,5,ISIP_5,95,9999,9999,9999,9999,3855587420
23,5,ISIP_5,96,9999,9999,9999,9999,3856087112
23,5,ISIP_5,97,9999,9999,9999,9999,3856587848
23,5,ISIP_5,98,9999,9999,9999,9999,3857087540
23,5,ISIP_5,99,9999,9999,9999,9999,3857587304
23,5,ISIP_5,100,9999,9999,9999,9999,3858088040
23,5,ISIP_5,101,9999,9999,9999,9999,3858587732
23,5,ISIP_5,102,9999,9999,9999,9999,3859087464
23,5,ISIP_5,103,9999,9999,9999,9999,3859587156
23,5,ISIP_5,104,9999,9999,9999,9999,3860087892
23,5,ISIP_5,105,9999,9999,9999,9999,3860587584
23,5,ISIP_5,106,9999,9999,9999,9999,3861087348
23,5,ISIP_5,107,9999,9999,9999,9999,3861588088
23,5,ISIP_5,108,9999,9999,9999,9999,3862087760
23,5,ISIP_5,109,9999,9999,9999,9999,3862587452
23,5,ISIP_5,110,9999,9999,9999,9999,3863087220
23,5,ISIP_5,111,9999,9999,9999,9999,3863587956
23,5,ISIP_5,112,9999,9999,9999,9999,3864087644
23,5,ISIP_5,113,9999,9999,9999,9999,3864587336
23,5,ISIP_5,114,9999,9999,9999,9999,3865088072
23,5,ISIP_5,115,9999,9999,9999,9999,3865587764
23,5,ISIP_5,116,9999,9999,9999,9999,3866087528
23,5,ISIP_5,117,9999,9999,9999,9999,3866587220
23,5,ISIP_5,118,9999,9999,9999,9999,3867087952
23,5,ISIP_5,119,9999,9999,9999,9999,3867587644
23,5,ISIP_5,120,9999,9999,9999,9999,3868087408
23,5,ISIP_5,121,9999,9999,9999,9999,3868587084
23,5,ISIP_5,122,9999,9999,9999,9999,3869087820
23,5,ISIP_5,123,9999,9999,9999,9999,3869587512
23,5,ISIP_5,124,9999,9999,9999,9999,3870087228
23,5,ISIP_5,125,9999,9999,9999,9999,3870587964
23,5,ISIP_5,126,9999,9999,9999,9999,3871087732
23,5,ISIP_5,127,9999,9999,9999,9999,3871587420
23,5,ISIP_5,128,9999,9999,9999,9999,3872087112
23,5,ISIP_5,129,9999,9999,9999,9999,3872587848
23,5,ISIP_5,130,9999,9999,9999,9999,3873087608
23,5,ISIP_5,131,9999,9999,9999,9999,3873587296
23,5,ISIP_5,132,9999,9999,9999,9999,3874088032
23,5,ISIP_5,133,9999,9999,9999,9999,3874587708
23,5,ISIP_5,134,9999,9999,9999,9999,3875087476
23,5,ISIP_5,135,9999,9999,9999,9999,3875587164
23,5,ISIP_5,136,9999,9999,9999,9999,3876087900
23,5,ISIP_5,137,9999,9999,9999,9999,3876587592
23,5,ISIP_5,138,9999,9999,9999,9999,3877087284
23,5,ISIP_5,139,9999,9999,9999,9999,3877588020
23,5,ISIP_5,140,9999,9999,9999,9999,3878087784
23,5,ISIP_5,141,9999,9999,9999,9999,3878587476
23,5,ISIP_5,142,9999,9999,9999,9999,3879087168
23,5,ISIP_5,143,9999,9999,9999,9999,3879587908
23,5,ISIP_5,144,9999,9999,9999,9999,3880087672
23,5,ISIP_5,145,9999,9999,9999,9999,3880587332
23,5,ISIP_5,146,9999,9999,9999,9999,3881088068
23,5,ISIP_5,147,9999,9999,9999,9999,3881587832
23,5,ISIP_5,148,9999,9999,9999,9999,3882087508
23,5,ISIP_5,149,9999,9999,9999,9999,3882587196
23,5,ISIP_5,150,9999,9999,9999,9999,3883087936
23,5,ISIP_5,151,9999,9999,9999,9999,3883587700
23,5,ISIP_5,152,9999,9999,9999,9999,3884087388
23,5,ISIP_5,153,9999,9999,9999,9999,3884587080
23,5,ISIP_5,154,9999,9999,9999,9999,3885087816
23,5,ISIP_5,155,9999,9999,9999,9999,3885587508
23,5,ISIP_5,156,9999,9999,9999,9999,3886087272
23,5,ISIP_5,157,9999,9999,9999,9999,3886588012
23,5,ISIP_5,158,9999,9999,9999,9999,3887087704
23,5,ISIP_5,159,9999,9999,9999,9999,3887587392
24,11,Pattern_Practice,0,5,42,127,4005553476
24,11,Pattern_Practice,1,5,42,127,4006054160
24,11,Pattern_Practice,2,5,42,127,4006553880
24,11,Pattern_Practice,3,5,42,127,4007053596
24,11,Pattern_Practice,4,5,42,127,4007554556
24,11,Pattern_Practice,5,1,48,78,4007570492
24,11,Pattern_Practice,6,1,48,43,4007612276
24,11,Pattern_Practice,7,5,42,127,4008054080
24,11,Pattern_Practice,8,1,38,112,4008072180
24,11,Pattern_Practice,9,1,38,43,4008181364
24,11,Pattern_Practice,10,5,42,127,4008553828
24,11,Pattern_Practice,11,1,48,78,4008571304
24,11,Pattern_Practice,12,1,38,94,4009025656
24,11,Pattern_Practice,13,5,42,127,4009053440
24,11,Pattern_Practice,14,1,38,38,4009105488
24,11,Pattern_Practice,15,1,48,92,4009531612
24,11,Pattern_Practice,16,5,42,127,4009554456
24,11,Pattern_Practice,17,1,48,46,4009568032
24,11,Pattern_Practice,18,1,38,91,4010045192
24,11,Pattern_Practice,19,5,42,127,4010053904
24,11,Pattern_Practice,20,1,38,43,4010121508
24,11,Pattern_Practice,21,1,48,79,4010528412
24,11,Pattern_Practice,22,5,42,127,4010553652
24,11,Pattern_Practice,23,1,48,46,4010561096
24,11,Pattern_Practice,24,1,38,81,4011027936
24,11,Pattern_Practice,25,5,42,127,4011053548
24,11,Pattern_Practice,26,1,38,35,4011083504
24,11,Pattern_Practice,27,1,48,70,4011509652
24,11,Pattern_Practice,28,5,42,127,4011554268
24,11,Pattern_Practice,29,1,38,71,4012012116
24,11,Pattern_Practice,30,5,42,127,4012053740
24,11,Pattern_Practice,31,1,48,69,4012515028
24,11,Pattern_Practice,32,5,42,127,4012553508
24,11,Pattern_Practice,33,1,38,70,4013033048
24,11,Pattern_Practice,34,5,42,127,4013054472
24,11,Pattern_Practice,35,1,48,62,4013523392
24,11,Pattern_Practice,36,5,42,127,4013554168
24,11,Pattern_Practice,37,5,42,127,4014053720
24,11,Pattern_Practice,38,1,38,74,4014065064
24,11,Pattern_Practice,39,5,42,127,4014553416
24,11,Pattern_Practice,40,1,48,76,4014560944
24,11,Pattern_Practice,41,1,38,75,4015042148
24,11,Pattern_Practice,42,5,42,127,4015054224
24,11,Pattern_Practice,43,1,48,69,4015485644
24,11,Pattern_Practice,44,5,42,127,4015553920
24,11,Pattern_Practice,45,1,48,62,4015736684
24,11,Pattern_Practice,46,1,38,86,4016049140
24,11,Pattern_Practice,47,5,42,127,4016053592
24,11,Pattern_Practice,48,1,48,75,4016551752
24,11,Pattern_Practice,49,5,42,127,4016554332
24,11,Pattern_Practice,50,1,48,62,4016798308
24,11,Pattern_Practice,51,5,42,127,4017054160
24,11,Pattern_Practice,52,1,38,78,4017133200
24,11,Pattern_Practice,53,5,42,127,4017553632
24,11,Pattern_Practice,54,1,48,71,4017590184
24,11,Pattern_Practice,55,1,48,56,4017822208
24,11,Pattern_Practice,56,5,42,127,4018053508
24,11,Pattern_Practice,57,1,38,78,4018111324
24,11,Pattern_Practice,58,5,42,127,4018554100
24,11,Pattern_Practice,59,1,48,69,4018579980
24,11,Pattern_Practice,60,1,48,54,4018808612
24,11,Pattern_Practice,61,5,42,127,4019054216
24,11,Pattern_Practice,62,1,38,82,4019126700
24,11,Pattern_Practice,63,5,42,127,4019553688
24,11,Pattern_Practice,64,1,48,55,4019580220
24,11,Pattern_Practice,65,1,48,58,4019803864
24,11,Pattern_Practice,66,5,42,127,4020054260
24,11,Pattern_Practice,67,1,38,70,4020070620
24,11,Pattern_Practice,68,1,48,64,4020547104
24,11,Pattern_Practice,69,5,42,127,4020554168
24,11,Pattern_Practice,70,1,48,51,4020776084
24,11,Pattern_Practice,71,5,42,127,4021053996
24,11,Pattern_Practice,72,1,38,73,4021071032
24,11,Pattern_Practice,73,1,48,65,4021529564
24,11,Pattern_Practice,74,5,42,127,4021553388
24,11,Pattern_Practice,75,1,48,52,4021751736
24,11,Pattern_Practice,76,1,38,68,4022035600
24,11,Pattern_Practice,77,1,48,18,4022047100
24,11,Pattern_Practice,78,5,42,127,4022054236
24,11,Pattern_Practice,79,1,48,60,4022523500
24,11,Pattern_Practice,80,5,42,127,4022554200
24,11,Pattern_Practice,81,1,48,50,4022757868
24,11,Pattern_Practice,82,1,38,61,4023049356
24,11,Pattern_Practice,83,5,42,127,4023053652
24,11,Pattern_Practice,84,1,48,64,4023523768
24,11,Pattern_Practice,85,5,42,127,4023554468
24,11,Pattern_Practice,86,1,48,56,4023746012
24,11,Pattern_Practice,87,1,48,55,4023980656
24,11,Pattern_Practice,88,5,42,127,4024054068
24,11,Pattern_Practice,89,1,38,71,4024266328
24,11,Pattern_Practice,90,1,48,19,4024277676
24,11,Pattern_Practice,91,1,48,60,4024532712
24,11,Pattern_Practice,92,5,42,127,4024553764
24,11,Pattern_Practice,93,1,48,58,4024758996
24,11,Pattern_Practice,94,1,48,50,4024991848
24,11,Pattern_Practice,95,5,42,127,4025053512
24,11,Pattern_Practice,96,1,38,31,4025240268
24,11,Pattern_Practice,97,1,48,62,4025520764
24,11,Pattern_Practice,98,5,42,127,4025554160
24,11,Pattern_Practice,99,1,48,53,4025767468
24,11,Pattern_Practice,100,1,48,55,4026005400
24,11,Pattern_Practice,101,5,42,127,4026053904
24,11,Pattern_Practice,102,1,38,34,4026238320
24,11,Pattern_Practice,103,1,48,60,4026499588
24,11,Pattern_Practice,104,5,42,127,4026553876
24,11,Pattern_Practice,105,1,48,51,4026736488
24,11,Pattern_Practice,106,1,48,71,4026994700
24,11,Pattern_Practice,107,5,42,127,4027053324
24,11,Pattern_Practice,108,1,38,31,4027232800
24,11,Pattern_Practice,109,1,38,48,4027237188
24,11,Pattern_Practice,110,1,48,57,4027506312
24,11,Pattern_Practice,111,5,42,127,4027554096
24,11,Pattern_Practice,112,1,48,56,4027751972
24,11,Pattern_Practice,113,1,48,60,4027992080
24,11,Pattern_Practice,114,5,42,127,4028053768
24,11,Pattern_Practice,115,1,38,35,4028232420
24,11,Pattern_Practice,116,1,48,63,4028504240
24,11,Pattern_Practice,117,5,42,127,4028553664
24,11,Pattern_Practice,118,1,48,55,4028748252
24,11,Pattern_Practice,119,1,48,51,4028970476
24,11,Pattern_Practice,120,5,42,127,4029054356
24,11,Pattern_Practice,121,1,38,39,4029201296
24,11,Pattern_Practice,122,1,48,56,4029476556
24,11,Pattern_Practice,123,5,42,127,4029554004
24,11,Pattern_Practice,124,1,48,56,4029723260
24,11,Pattern_Practice,125,1,38,25,4029967556
24,11,Pattern_Practice,126,1,48,14,4029980024
24,11,Pattern_Practice,127,5,42,127,4030053956
24,11,Pattern_Practice,128,1,48,50,4030395240
24,11,Pattern_Practice,129,5,42,127,4030553608
24,11,Pattern_Practice,130,1,48,56,4030634392
24,11,Pattern_Practice,131,1,38,29,4030915712
24,11,Pattern_Practice,132,1,48,19,4030927804
24,11,Pattern_Practice,133,5,42,127,4031054208
24,11,Pattern_Practice,134,1,48,58,4031381396
24,11,Pattern_Practice,135,5,42,127,4031553828
24,11,Pattern_Practice,136,1,48,52,4031606756
24,11,Pattern_Practice,137,1,38,27,4031848588
24,11,Pattern_Practice,138,5,42,127,4032053724
24,11,Pattern_Practice,139,1,48,50,4032311628
24,11,Pattern_Practice,140,1,48,62,4032537820
24,11,Pattern_Practice,141,5,42,127,4032554380
24,11,Pattern_Practice,142,1,38,32,4032814664
24,11,Pattern_Practice,143,5,42,127,4033053988
24,11,Pattern_Practice,144,1,48,51,4033249736
24,11,Pattern_Practice,145,1,48,66,4033503304
24,11,Pattern_Practice,146,5,42,127,4033553824
24,11,Pattern_Practice,147,1,38,28,4033761076
24,11,Pattern_Practice,148,5,42,127,4034053652
24,11,Pattern_Practice,149,1,48,54,4034255312
24,11,Pattern_Practice,150,1,48,58,4034493320
24,11,Pattern_Practice,151,5,42,127,4034554164
24,11,Pattern_Practice,152,1,38,30,4034751092
24,11,Pattern_Practice,153,5,42,127,4035053844
24,11,Pattern_Practice,154,1,48,60,4035196532
24,11,Pattern_Practice,155,1,48,60,4035423400
24,11,Pattern_Practice,156,5,42,127,4035553592
24,11,Pattern_Practice,157,1,38,26,4035664120
24,11,Pattern_Practice,158,5,42,127,4036054484
24,11,Pattern_Practice,159,1,48,57,4036078544
24,11,Pattern_Practice,160,1,48,55,4036268312
24,11,Pattern_Practice,161,1,38,30,4036548204
24,11,Pattern_Practice,162,5,42,127,4036554072
24,11,Pattern_Practice,163,1,48,54,4036973376
24,11,Pattern_Practice,164,5,42,127,4037053768
24,11,Pattern_Practice,165,1,48,59,4037203844
24,11,Pattern_Practice,166,1,38,29,4037494140
24,11,Pattern_Practice,167,5,42,127,4037553364
24,11,Pattern_Practice,168,1,48,61,4037971916
24,11,Pattern_Practice,169,5,42,127,4038054404
24,11,Pattern_Practice,170,1,48,53,4038213460
24,11,Pattern_Practice,171,1,38,26,4038469048
24,11,Pattern_Practice,172,5,42,127,4038553928
24,11,Pattern_Practice,173,1,48,60,4038931792
24,11,Pattern_Practice,174,5,42,127,4039053760
24,11,Pattern_Practice,175,1,48,54,4039182984
24,11,Pattern_Practice,176,1,38,31,4039481128
24,11,Pattern_Practice,177,5,42,127,4039554540
24,11,Pattern_Practice,178,1,48,57,4039958460
24,11,Pattern_Practice,179,5,42,127,4040054088
24,11,Pattern_Practice,180,1,48,56,4040203300
24,11,Pattern_Practice,181,1,38,36,4040480800
24,11,Pattern_Practice,182,1,48,15,4040488260
24,11,Pattern_Practice,183,5,42,127,4040553740
24,11,Pattern_Practice,184,1,48,61,4041002372
24,11,Pattern_Practice,185,5,42,127,4041053644
24,11,Pattern_Practice,186,1,48,59,4041255660
24,11,Pattern_Practice,187,1,38,27,4041514688
24,11,Pattern_Practice,188,5,42,127,4041554516
24,11,Pattern_Practice,189,1,48,59,4042016552
24,11,Pattern_Practice,190,5,42,127,4042054136
24,11,Pattern_Practice,191,1,48,55,4042245160
24,11,Pattern_Practice,192,1,38,28,4042521988
24,11,Pattern_Practice,193,5,42,127,4042553588
24,11,Pattern_Practice,194,1,48,63,4043051544
24,11,Pattern_Practice,195,5,42,127,4043053284
24,11,Pattern_Practice,196,1,48,59,4043316408
24,11,Pattern_Practice,197,5,42,127,4043554232
24,11,Pattern_Practice,198,1,38,26,4043587564
24,11,Pattern_Practice,199,1,48,64,4044046484
24,11,Pattern_Practice,200,5,42,127,4044053768
24,11,Pattern_Practice,201,1,48,50,4044293336
24,11,Pattern_Practice,202,1,38,26,4044547428
24,11,Pattern_Practice,203,5,42,127,4044553516
24,11,Pattern_Practice,204,1,48,64,4044997680
24,11,Pattern_Practice,205,5,42,127,4045054184
24,11,Pattern_Practice,206,1,48,46,4045246400
24,11,Pattern_Practice,207,1,38,24,4045527424
24,11,Pattern_Practice,0,9999,9999,9999,9999,4005551188
24,11,Pattern_Practice,1,9999,9999,9999,9999,4006051948
24,11,Pattern_Practice,2,9999,9999,9999,9999,4006551664
24,11,Pattern_Practice,3,9999,9999,9999,9999,4007051380
24,11,Pattern_Practice,4,9999,9999,9999,9999,4007552120
24,11,Pattern_Practice,5,9999,9999,9999,9999,4008051792
24,11,Pattern_Practice,6,9999,9999,9999,9999,4008551540
24,11,Pattern_Practice,7,9999,9999,9999,9999,4009051228
24,11,Pattern_Practice,8,9999,9999,9999,9999,4009551948
24,11,Pattern_Practice,9,9999,9999,9999,9999,4010051692
24,11,Pattern_Practice,10,9999,9999,9999,9999,4010551368
24,11,Pattern_Practice,11,9999,9999,9999,9999,4011051112
24,11,Pattern_Practice,12,9999,9999,9999,9999,4011551832
24,11,Pattern_Practice,13,9999,9999,9999,9999,4012051528
24,11,Pattern_Practice,14,9999,9999,9999,9999,4012551220
24,11,Pattern_Practice,15,9999,9999,9999,9999,4013051964
24,11,Pattern_Practice,16,9999,9999,9999,9999,4013551732
24,11,Pattern_Practice,17,9999,9999,9999,9999,4014051432
24,11,Pattern_Practice,18,9999,9999,9999,9999,4014551128
24,11,Pattern_Practice,19,9999,9999,9999,9999,4015051864
24,11,Pattern_Practice,20,9999,9999,9999,9999,4015551556
24,11,Pattern_Practice,21,9999,9999,9999,9999,4016051304
24,11,Pattern_Practice,22,9999,9999,9999,9999,4016552044
24,11,Pattern_Practice,23,9999,9999,9999,9999,4017051724
24,11,Pattern_Practice,24,9999,9999,9999,9999,4017551420
24,11,Pattern_Practice,25,9999,9999,9999,9999,4018051144
24,11,Pattern_Practice,26,9999,9999,9999,9999,4018551884
24,11,Pattern_Practice,27,9999,9999,9999,9999,4019051632
24,11,Pattern_Practice,28,9999,9999,9999,9999,4019551328
24,11,Pattern_Practice,29,9999,9999,9999,9999,4020052048
24,11,Pattern_Practice,30,9999,9999,9999,9999,4020551732
24,11,Pattern_Practice,31,9999,9999,9999,9999,4021051488
24,11,Pattern_Practice,32,9999,9999,9999,9999,4021551176
24,11,Pattern_Practice,33,9999,9999,9999,9999,4022051948
24,11,Pattern_Practice,34,9999,9999,9999,9999,4022551616
24,11,Pattern_Practice,35,9999,9999,9999,9999,4023051364
24,11,Pattern_Practice,36,9999,9999,9999,9999,4023552108
24,11,Pattern_Practice,37,9999,9999,9999,9999,4024051780
24,11,Pattern_Practice,38,9999,9999,9999,9999,4024551480
24,11,Pattern_Practice,39,9999,9999,9999,9999,4025051224
24,11,Pattern_Practice,40,9999,9999,9999,9999,4025551944
24,11,Pattern_Practice,41,9999,9999,9999,9999,4026051692
24,11,Pattern_Practice,42,9999,9999,9999,9999,4026551364
24,11,Pattern_Practice,43,9999,9999,9999,9999,4027051112
24,11,Pattern_Practice,44,9999,9999,9999,9999,4027551808
24,11,Pattern_Practice,45,9999,9999,9999,9999,4028051556
24,11,Pattern_Practice,46,9999,9999,9999,9999,4028551228
24,11,Pattern_Practice,47,9999,9999,9999,9999,4029051996
24,11,Pattern_Practice,48,9999,9999,9999,9999,4029551720
24,11,Pattern_Practice,49,9999,9999,9999,9999,4030051448
24,11,Pattern_Practice,50,9999,9999,9999,9999,4030551100
24,11,Pattern_Practice,51,9999,9999,9999,9999,4031051844
24,11,Pattern_Practice,52,9999,9999,9999,9999,4031551540
24,11,Pattern_Practice,53,9999,9999,9999,9999,4032051288
24,11,Pattern_Practice,54,9999,9999,9999,9999,4032552020
24,11,Pattern_Practice,55,9999,9999,9999,9999,4033051700
24,11,Pattern_Practice,56,9999,9999,9999,9999,4033551464
24,11,Pattern_Practice,57,9999,9999,9999,9999,4034051140
24,11,Pattern_Practice,58,9999,9999,9999,9999,4034551876
24,11,Pattern_Practice,59,9999,9999,9999,9999,4035051632
24,11,Pattern_Practice,60,9999,9999,9999,9999,4035551304
24,11,Pattern_Practice,61,9999,9999,9999,9999,4036052044
24,11,Pattern_Practice,62,9999,9999,9999,9999,4036551784
24,11,Pattern_Practice,63,9999,9999,9999,9999,4037051480
24,11,Pattern_Practice,64,9999,9999,9999,9999,4037551152
24,11,Pattern_Practice,65,9999,9999,9999,9999,4038051892
24,11,Pattern_Practice,66,9999,9999,9999,9999,4038551640
24,11,Pattern_Practice,67,9999,9999,9999,9999,4039051320
24,11,Pattern_Practice,68,9999,9999,9999,9999,4039552108
24,11,Pattern_Practice,69,9999,9999,9999,9999,4040051800
24,11,Pattern_Practice,70,9999,9999,9999,9999,4040551528
24,11,Pattern_Practice,71,9999,9999,9999,9999,4041051208
24,11,Pattern_Practice,72,9999,9999,9999,9999,4041551928
24,11,Pattern_Practice,73,9999,9999,9999,9999,4042051700
24,11,Pattern_Practice,74,9999,9999,9999,9999,4042551372
24,11,Pattern_Practice,75,9999,9999,9999,9999,4043051092
24,11,Pattern_Practice,76,9999,9999,9999,9999,4043551792
24,11,Pattern_Practice,77,9999,9999,9999,9999,4044051556
24,11,Pattern_Practice,78,9999,9999,9999,9999,4044551228
24,11,Pattern_Practice,79,9999,9999,9999,9999,4045051972
25,13,Improv_Metronome,0,5,42,127,4070436288
25,13,Improv_Metronome,1,5,42,127,4070935780
25,13,Improv_Metronome,2,5,42,127,4071435720
25,13,Improv_Metronome,3,1,48,69,4071453496
25,13,Improv_Metronome,4,1,38,72,4071911664
25,13,Improv_Metronome,5,5,42,127,4071936308
25,13,Improv_Metronome,6,1,38,31,4072057588
25,13,Improv_Metronome,7,1,48,81,4072392864
25,13,Improv_Metronome,8,5,42,127,4072436276
25,13,Improv_Metronome,9,1,48,40,4072441400
25,13,Improv_Metronome,10,1,38,84,4072855732
25,13,Improv_Metronome,11,5,42,127,4072935652
25,13,Improv_Metronome,12,1,38,29,4072965384
25,13,Improv_Metronome,13,1,48,70,4073356224
25,13,Improv_Metronome,14,1,48,42,4073389936
25,13,Improv_Metronome,15,5,42,127,4073435528
25,13,Improv_Metronome,16,1,38,77,4073852212
25,13,Improv_Metronome,17,1,38,34,4073936180
25,13,Improv_Metronome,18,5,42,127,4073938340
25,13,Improv_Metronome,19,1,48,60,4074344856
25,13,Improv_Metronome,20,5,42,127,4074436092
25,13,Improv_Metronome,21,1,38,78,4074836396
25,13,Improv_Metronome,22,1,38,38,4074912844
25,13,Improv_Metronome,23,5,42,127,4074935612
25,13,Improv_Metronome,24,1,48,62,4075306968
25,13,Improv_Metronome,25,5,42,127,4075436416
25,13,Improv_Metronome,26,1,38,80,4075847808
25,13,Improv_Metronome,27,1,38,41,4075923504
25,13,Improv_Metronome,28,5,42,127,4075936248
25,13,Improv_Metronome,29,1,48,64,4076325260
25,13,Improv_Metronome,30,5,42,127,4076435856
25,13,Improv_Metronome,31,1,38,66,4076822408
25,13,Improv_Metronome,32,1,38,33,4076892552
25,13,Improv_Metronome,33,5,42,127,4076935468
25,13,Improv_Metronome,34,1,48,60,4077317820
25,13,Improv_Metronome,35,5,42,127,4077436316
25,13,Improv_Metronome,36,1,38,71,4077830232
25,13,Improv_Metronome,37,1,38,34,4077903360
25,13,Improv_Metronome,38,5,42,127,4077936304
25,13,Improv_Metronome,39,1,48,60,4078333792
25,13,Improv_Metronome,40,5,42,127,4078436056
25,13,Improv_Metronome,41,1,38,56,4078814340
25,13,Improv_Metronome,42,1,38,29,4078881484
25,13,Improv_Metronome,43,5,42,127,4078936348
25,13,Improv_Metronome,44,1,48,62,4079290148
25,13,Improv_Metronome,45,5,42,127,4079436248
25,13,Improv_Metronome,46,1,48,65,4079535804
25,13,Improv_Metronome,47,1,38,67,4079822960
25,13,Improv_Metronome,48,1,38,36,4079889732
25,13,Improv_Metronome,49,5,42,127,4079935916
25,13,Improv_Metronome,50,1,48,68,4080279100
25,13,Improv_Metronome,51,5,42,127,4080435520
25,13,Improv_Metronome,52,1,48,59,4080512168
25,13,Improv_Metronome,53,1,38,62,4080807948
25,13,Improv_Metronome,54,1,38,32,4080876432
25,13,Improv_Metronome,55,5,42,127,4080936308
25,13,Improv_Metronome,56,1,48,70,4081261668
25,13,Improv_Metronome,57,5,42,127,4081435988
25,13,Improv_Metronome,58,1,48,57,4081498648
25,13,Improv_Metronome,59,1,38,72,4081789088
25,13,Improv_Metronome,60,1,38,36,4081848484
25,13,Improv_Metronome,61,5,42,127,4081935876
25,13,Improv_Metronome,62,1,48,68,4082254056
25,13,Improv_Metronome,63,5,42,127,4082435480
25,13,Improv_Metronome,64,1,48,54,4082486096
25,13,Improv_Metronome,65,1,38,66,4082782896
25,13,Improv_Metronome,66,1,38,31,4082844528
25,13,Improv_Metronome,67,5,42,127,4082936192
25,13,Improv_Metronome,68,1,48,66,4083268736
25,13,Improv_Metronome,69,5,42,127,4083436024
25,13,Improv_Metronome,70,1,48,59,4083489704
25,13,Improv_Metronome,71,1,38,68,4083751276
25,13,Improv_Metronome,72,1,38,26,4083825152
25,13,Improv_Metronome,73,5,42,127,4083935452
25,13,Improv_Metronome,74,1,48,68,4084261272
25,13,Improv_Metronome,75,5,42,127,4084436264
25,13,Improv_Metronome,76,1,48,55,4084481348
25,13,Improv_Metronome,77,1,38,68,4084747252
25,13,Improv_Metronome,78,1,38,32,4084818664
25,13,Improv_Metronome,79,5,42,127,4084935916
25,13,Improv_Metronome,80,1,48,66,4085226132
25,13,Improv_Metronome,81,5,42,127,4085435836
25,13,Improv_Metronome,82,1,48,56,4085443668
25,13,Improv_Metronome,83,1,38,56,4085679136
25,13,Improv_Metronome,84,5,42,127,4085935432
25,13,Improv_Metronome,85,1,48,57,4086151528
25,13,Improv_Metronome,86,1,48,63,4086395792
25,13,Improv_Metronome,87,5,42,127,4086436168
25,13,Improv_Metronome,88,1,48,54,4086685084
25,13,Improv_Metronome,89,5,42,127,4086935848
25,13,Improv_Metronome,90,1,48,62,4087324800
25,13,Improv_Metronome,91,5,42,127,4087435692
25,13,Improv_Metronome,92,5,42,127,4087936356
25,13,Improv_Metronome,93,5,42,127,4088435992
25,13,Improv_Metronome,94,1,38,53,4088921232
25,13,Improv_Metronome,95,5,42,127,4088935776
25,13,Improv_Metronome,96,1,48,49,4089374472
25,13,Improv_Metronome,97,5,42,127,4089435692
25,13,Improv_Metronome,98,1,38,63,4089862048
25,13,Improv_Metronome,99,5,42,127,4089936284
25,13,Improv_Metronome,100,1,38,23,4089941928
25,13,Improv_Metronome,101,1,48,58,4090371076
25,13,Improv_Metronome,102,5,42,127,4090435956
25,13,Improv_Metronome,103,1,38,62,4090857152
25,13,Improv_Metronome,104,5,42,127,4090935576
25,13,Improv_Metronome,105,1,48,58,4091353032
25,13,Improv_Metronome,106,5,42,127,4091436692
25,13,Improv_Metronome,107,1,38,49,4091857816
25,13,Improv_Metronome,108,5,42,127,4091936016
25,13,Improv_Metronome,109,1,48,57,4092352952
25,13,Improv_Metronome,110,5,42,127,4092435784
25,13,Improv_Metronome,111,1,38,51,4092859080
25,13,Improv_Metronome,112,5,42,127,4092935704
25,13,Improv_Metronome,113,1,48,57,4093326160
25,13,Improv_Metronome,114,5,42,127,4093436432
25,13,Improv_Metronome,115,1,38,52,4093806236
25,13,Improv_Metronome,116,5,42,127,4093935904
25,13,Improv_Metronome,117,1,48,56,4094298380
25,13,Improv_Metronome,118,5,42,127,4094435672
25,13,Improv_Metronome,119,1,38,58,4094762244
25,13,Improv_Metronome,120,5,42,127,4094936564
25,13,Improv_Metronome,121,1,48,57,4095253864
25,13,Improv_Metronome,122,5,42,127,4095436260
25,13,Improv_Metronome,123,1,38,61,4095724532
25,13,Improv_Metronome,124,5,42,127,4095935732
25,13,Improv_Metronome,125,1,48,58,4096207476
25,13,Improv_Metronome,126,5,42,127,4096435652
25,13,Improv_Metronome,127,1,38,55,4096710240
25,13,Improv_Metronome,128,5,42,127,4096936396
25,13,Improv_Metronome,129,1,48,65,4097115888
25,13,Improv_Metronome,130,1,48,52,4097351952
25,13,Improv_Metronome,131,5,42,127,4097436084
25,13,Improv_Metronome,132,1,38,53,4097613168
25,13,Improv_Metronome,133,5,42,127,4097935612
25,13,Improv_Metronome,134,1,48,48,4098033128
25,13,Improv_Metronome,135,1,48,52,4098251464
25,13,Improv_Metronome,136,5,42,127,4098435436
25,13,Improv_Metronome,137,1,38,65,4098482536
25,13,Improv_Metronome,138,1,38,17,4098610420
25,13,Improv_Metronome,139,1,48,61,4098918812
25,13,Improv_Metronome,140,5,42,127,4098936272
25,13,Improv_Metronome,141,1,48,58,4099133352
25,13,Improv_Metronome,142,1,38,62,4099369788
25,13,Improv_Metronome,143,5,42,127,4099435868
25,13,Improv_Metronome,144,1,48,65,4099829616
25,13,Improv_Metronome,145,5,42,127,4099935476
25,13,Improv_Metronome,146,1,48,51,4100046180
25,13,Improv_Metronome,147,1,38,57,4100301916
25,13,Improv_Metronome,148,5,42,127,4100436272
25,13,Improv_Metronome,149,1,48,56,4100755464
25,13,Improv_Metronome,150,5,42,127,4100936336
25,13,Improv_Metronome,151,1,48,45,4100979252
25,13,Improv_Metronome,152,1,38,64,4101173948
25,13,Improv_Metronome,153,5,42,127,4101435712
25,13,Improv_Metronome,154,1,48,59,4101594808
25,13,Improv_Metronome,155,1,48,50,4101798784
25,13,Improv_Metronome,156,5,42,127,4101935384
25,13,Improv_Metronome,157,1,38,61,4102031652
25,13,Improv_Metronome,158,5,42,127,4102436276
25,13,Improv_Metronome,159,1,48,56,4102459064
25,13,Improv_Metronome,160,1,48,47,4102620928
25,13,Improv_Metronome,161,1,38,60,4102861776
25,13,Improv_Metronome,162,5,42,127,4102935940
25,13,Improv_Metronome,163,1,48,50,4103263912
25,13,Improv_Metronome,164,1,48,44,4103425256
25,13,Improv_Metronome,165,5,42,127,4103435536
25,13,Improv_Metronome,166,1,38,65,4103703520
25,13,Improv_Metronome,167,5,42,127,4103936488
25,13,Improv_Metronome,168,1,48,50,4104097156
25,13,Improv_Metronome,169,1,48,42,4104275676
25,13,Improv_Metronome,170,5,42,127,4104436308
25,13,Improv_Metronome,171,1,38,60,4104544072
25,13,Improv_Metronome,172,5,42,127,4104936004
25,13,Improv_Metronome,173,1,48,45,4104993280
25,13,Improv_Metronome,174,1,48,48,4105229844
25,13,Improv_Metronome,175,5,42,127,4105435432
25,13,Improv_Metronome,176,1,38,55,4105473408
25,13,Improv_Metronome,177,1,48,53,4105929548
25,13,Improv_Metronome,178,5,42,127,4105936164
25,13,Improv_Metronome,179,1,48,56,4106169224
25,13,Improv_Metronome,180,1,38,56,4106434252
25,13,Improv_Metronome,181,5,42,127,4106437260
25,13,Improv_Metronome,182,1,48,50,4106916724
25,13,Improv_Metronome,183,5,42,127,4106935684
25,13,Improv_Metronome,184,1,48,54,4107158872
25,13,Improv_Metronome,185,5,42,127,4107436412
25,13,Improv_Metronome,186,1,38,60,4107440652
25,13,Improv_Metronome,187,1,48,51,4107914376
25,13,Improv_Metronome,188,5,42,127,4107936100
25,13,Improv_Metronome,189,1,48,47,4108148712
25,13,Improv_Metronome,190,1,38,64,4108429384
25,13,Improv_Metronome,191,5,42,127,4108436068
25,13,Improv_Metronome,192,1,48,62,4108912292
25,13,Improv_Metronome,193,5,42,127,4108935468
25,13,Improv_Metronome,194,1,48,53,4109127656
25,13,Improv_Metronome,195,1,38,67,4109405008
25,13,Improv_Metronome,196,5,42,127,4109436160
25,13,Improv_Metronome,197,1,48,52,4109892288
25,13,Improv_Metronome,198,5,42,127,4109936080
25,13,Improv_Metronome,199,1,48,48,4110118052
25,13,Improv_Metronome,200,1,38,69,4110364508
25,13,Improv_Metronome,201,5,42,127,4110435972
25,13,Improv_Metronome,202,1,48,45,4110853360
25,13,Improv_Metronome,203,5,42,127,4110936420
25,13,Improv_Metronome,204,1,48,57,4111074708
25,13,Improv_Metronome,205,1,38,67,4111357000
25,13,Improv_Metronome,206,5,42,127,4111436092
25,13,Improv_Metronome,207,1,48,58,4111846144
25,13,Improv_Metronome,208,5,42,127,4111936008
25,13,Improv_Metronome,209,1,38,62,4112343076
25,13,Improv_Metronome,210,5,42,127,4112435764
25,13,Improv_Metronome,211,1,48,53,4112849348
25,13,Improv_Metronome,212,5,42,127,4112936372
25,13,Improv_Metronome,213,1,38,68,4113326676
25,13,Improv_Metronome,214,5,42,127,4113435976
25,13,Improv_Metronome,215,1,48,62,4113800644
25,13,Improv_Metronome,216,5,42,127,4113935672
25,13,Improv_Metronome,217,1,38,66,4114290744
25,13,Improv_Metronome,218,5,42,127,4114435368
25,13,Improv_Metronome,219,1,48,55,4114745928
25,13,Improv_Metronome,220,5,42,127,4114936180
25,13,Improv_Metronome,221,1,38,66,4115295960
25,13,Improv_Metronome,222,5,42,127,4115435876
25,13,Improv_Metronome,223,1,48,49,4115791688
25,13,Improv_Metronome,224,5,42,127,4115935720
25,13,Improv_Metronome,225,1,38,62,4116270888
25,13,Improv_Metronome,226,5,42,127,4116436236
25,13,Improv_Metronome,227,1,48,52,4116758468
25,13,Improv_Metronome,228,5,42,127,4116936008
25,13,Improv_Metronome,229,1,38,60,4117302068
25,13,Improv_Metronome,230,5,42,127,4117435628
25,13,Improv_Metronome,231,1,48,55,4117773116
25,13,Improv_Metronome,232,5,42,127,4117935692
25,13,Improv_Metronome,233,1,38,63,4118346940
25,13,Improv_Metronome,234,5,42,127,4118436228
25,13,Improv_Metronome,235,1,48,50,4118830996
25,13,Improv_Metronome,236,5,42,127,4118935904
25,13,Improv_Metronome,237,1,38,68,4119285964
25,13,Improv_Metronome,238,5,42,127,4119435600
25,13,Improv_Metronome,239,1,48,49,4119779824
25,13,Improv_Metronome,240,5,42,127,4119936568
25,13,Improv_Metronome,241,1,38,68,4120242644
25,13,Improv_Metronome,242,5,42,127,4120436088
25,13,Improv_Metronome,243,1,48,52,4120728652
25,13,Improv_Metronome,244,5,42,127,4120935708
25,13,Improv_Metronome,245,1,38,61,4121198248
25,13,Improv_Metronome,246,5,42,127,4121435624
25,13,Improv_Metronome,247,1,48,45,4121690088
25,13,Improv_Metronome,248,5,42,127,4121936220
25,13,Improv_Metronome,249,1,38,61,4122165776
25,13,Improv_Metronome,250,5,42,127,4122435988
25,13,Improv_Metronome,251,1,48,43,4122633904
25,13,Improv_Metronome,252,5,42,127,4122935680
25,13,Improv_Metronome,253,1,38,66,4123122528
25,13,Improv_Metronome,254,5,42,127,4123436576
25,13,Improv_Metronome,255,1,48,48,4123613700
25,13,Improv_Metronome,256,5,42,127,4123935972
25,13,Improv_Metronome,257,1,38,64,4124060140
25,13,Improv_Metronome,258,5,42,127,4124435816
25,13,Improv_Metronome,259,1,48,50,4124517244
25,13,Improv_Metronome,260,5,42,127,4124935508
25,13,Improv_Metronome,261,1,38,65,4124986124
25,13,Improv_Metronome,262,5,42,127,4125436324
25,13,Improv_Metronome,263,1,48,51,4125442660
25,13,Improv_Metronome,264,1,38,62,4125916608
25,13,Improv_Metronome,265,5,42,127,4125936088
25,13,Improv_Metronome,266,1,48,53,4126417200
25,13,Improv_Metronome,267,5,42,127,4126435632
25,13,Improv_Metronome,268,1,38,62,4126913228
25,13,Improv_Metronome,269,5,42,127,4126936524
25,13,Improv_Metronome,270,1,48,55,4127409632
25,13,Improv_Metronome,271,5,42,127,4127436216
25,13,Improv_Metronome,272,1,38,65,4127870408
25,13,Improv_Metronome,273,5,42,127,4127935836
25,13,Improv_Metronome,274,1,48,57,4128393084
25,13,Improv_Metronome,275,5,42,127,4128435532
25,13,Improv_Metronome,276,1,38,64,4128903480
25,13,Improv_Metronome,277,5,42,127,4128936348
25,13,Improv_Metronome,278,1,48,59,4129393124
25,13,Improv_Metronome,279,5,42,127,4129436192
25,13,Improv_Metronome,280,1,38,65,4129878608
25,13,Improv_Metronome,281,5,42,127,4129935736
25,13,Improv_Metronome,282,1,48,53,4130430440
25,13,Improv_Metronome,283,5,42,127,4130435336
25,13,Improv_Metronome,284,1,38,71,4130928988
25,13,Improv_Metronome,285,5,42,127,4130936272
25,13,Improv_Metronome,286,1,48,52,4131388444
25,13,Improv_Metronome,287,5,42,127,4131436044
25,13,Improv_Metronome,288,1,38,69,4131922244
25,13,Improv_Metronome,289,5,42,127,4131935516
25,13,Improv_Metronome,290,5,42,127,4132436336
25,13,Improv_Metronome,291,1,48,66,4132446416
25,13,Improv_Metronome,292,1,38,67,4132888048
25,13,Improv_Metronome,293,5,42,127,4132936176
25,13,Improv_Metronome,294,1,48,54,4133383028
25,13,Improv_Metronome,295,5,42,127,4133435720
25,13,Improv_Metronome,296,1,38,65,4133907256
25,13,Improv_Metronome,297,5,42,127,4133935340
25,13,Improv_Metronome,298,1,48,59,4134408448
25,13,Improv_Metronome,299,5,42,127,4134436380
25,13,Improv_Metronome,300,1,38,62,4134899240
25,13,Improv_Metronome,301,5,42,127,4134936000
25,13,Improv_Metronome,302,1,48,52,4135401704
25,13,Improv_Metronome,303,5,42,127,4135435768
25,13,Improv_Metronome,304,1,38,63,4135911872
25,13,Improv_Metronome,305,5,42,127,4135936364
25,13,Improv_Metronome,306,1,48,60,4136377156
25,13,Improv_Metronome,307,5,42,127,4136436056
25,13,Improv_Metronome,308,1,38,67,4136842520
25,13,Improv_Metronome,309,5,42,127,4136935972
25,13,Improv_Metronome,310,1,48,51,4137357624
25,13,Improv_Metronome,311,5,42,127,4137435372
25,13,Improv_Metronome,312,1,38,73,4137882596
25,13,Improv_Metronome,313,5,42,127,4137936336
25,13,Improv_Metronome,314,1,48,57,4138359980
25,13,Improv_Metronome,315,5,42,127,4138435956
25,13,Improv_Metronome,316,1,38,59,4138840972
25,13,Improv_Metronome,317,5,42,127,4138935784
25,13,Improv_Metronome,318,1,48,53,4139358092
25,13,Improv_Metronome,319,5,42,127,4139436320
25,13,Improv_Metronome,320,1,38,65,4139848892
25,13,Improv_Metronome,321,5,42,127,4139936236
25,13,Improv_Metronome,322,1,48,62,4140367804
25,13,Improv_Metronome,0,9999,9999,9999,9999,4070433852
25,13,Improv_Metronome,1,9999,9999,9999,9999,4070933568
25,13,Improv_Metronome,2,9999,9999,9999,9999,4071433284
25,13,Improv_Metronome,3,9999,9999,9999,9999,4071934020
25,13,Improv_Metronome,4,9999,9999,9999,9999,4072433764
25,13,Improv_Metronome,5,9999,9999,9999,9999,4072933440
25,13,Improv_Metronome,6,9999,9999,9999,9999,4073433164
25,13,Improv_Metronome,7,9999,9999,9999,9999,4073933908
25,13,Improv_Metronome,8,9999,9999,9999,9999,4074433656
25,13,Improv_Metronome,9,9999,9999,9999,9999,4074933328
25,13,Improv_Metronome,10,9999,9999,9999,9999,4075434052
25,13,Improv_Metronome,11,9999,9999,9999,9999,4075933816
25,13,Improv_Metronome,12,9999,9999,9999,9999,4076433492
25,13,Improv_Metronome,13,9999,9999,9999,9999,4076933180
25,13,Improv_Metronome,14,9999,9999,9999,9999,4077433956
25,13,Improv_Metronome,15,9999,9999,9999,9999,4077933644
25,13,Improv_Metronome,16,9999,9999,9999,9999,4078433400
25,13,Improv_Metronome,17,9999,9999,9999,9999,4078934132
25,13,Improv_Metronome,18,9999,9999,9999,9999,4079433812
25,13,Improv_Metronome,19,9999,9999,9999,9999,4079933556
25,13,Improv_Metronome,20,9999,9999,9999,9999,4080433232
25,13,Improv_Metronome,21,9999,9999,9999,9999,4080933948
25,13,Improv_Metronome,22,9999,9999,9999,9999,4081433700
25,13,Improv_Metronome,23,9999,9999,9999,9999,4081933368
25,13,Improv_Metronome,24,9999,9999,9999,9999,4082433120
25,13,Improv_Metronome,25,9999,9999,9999,9999,4082933832
25,13,Improv_Metronome,26,9999,9999,9999,9999,4083433588
25,13,Improv_Metronome,27,9999,9999,9999,9999,4083933240
25,13,Improv_Metronome,28,9999,9999,9999,9999,4084433980
25,13,Improv_Metronome,29,9999,9999,9999,9999,4084933704
25,13,Improv_Metronome,30,9999,9999,9999,9999,4085433400
25,13,Improv_Metronome,31,9999,9999,9999,9999,4085933148
25,13,Improv_Metronome,32,9999,9999,9999,9999,4086433884
25,13,Improv_Metronome,33,9999,9999,9999,9999,4086933560
25,13,Improv_Metronome,34,9999,9999,9999,9999,4087433332
25,13,Improv_Metronome,35,9999,9999,9999,9999,4087934068
25,13,Improv_Metronome,36,9999,9999,9999,9999,4088433780
25,13,Improv_Metronome,37,9999,9999,9999,9999,4088933488
25,13,Improv_Metronome,38,9999,9999,9999,9999,4089433184
25,13,Improv_Metronome,39,9999,9999,9999,9999,4089933924
25,13,Improv_Metronome,40,9999,9999,9999,9999,4090433596
25,13,Improv_Metronome,41,9999,9999,9999,9999,4090933364
25,13,Improv_Metronome,42,9999,9999,9999,9999,4091434032
25,13,Improv_Metronome,43,9999,9999,9999,9999,4091933804
25,13,Improv_Metronome,44,9999,9999,9999,9999,4092433500
25,13,Improv_Metronome,45,9999,9999,9999,9999,4092933196
25,13,Improv_Metronome,46,9999,9999,9999,9999,4093433924
25,13,Improv_Metronome,47,9999,9999,9999,9999,4093933616
25,13,Improv_Metronome,48,9999,9999,9999,9999,4094433388
25,13,Improv_Metronome,49,9999,9999,9999,9999,4094934128
25,13,Improv_Metronome,50,9999,9999,9999,9999,4095433824
25,13,Improv_Metronome,51,9999,9999,9999,9999,4095933520
25,13,Improv_Metronome,52,9999,9999,9999,9999,4096433216
25,13,Improv_Metronome,53,9999,9999,9999,9999,4096933960
25,13,Improv_Metronome,54,9999,9999,9999,9999,4097433648
25,13,Improv_Metronome,55,9999,9999,9999,9999,4097933400
25,13,Improv_Metronome,56,9999,9999,9999,9999,4098433076
25,13,Improv_Metronome,57,9999,9999,9999,9999,4098933836
25,13,Improv_Metronome,58,9999,9999,9999,9999,4099433584
25,13,Improv_Metronome,59,9999,9999,9999,9999,4099933264
25,13,Improv_Metronome,60,9999,9999,9999,9999,4100433984
25,13,Improv_Metronome,61,9999,9999,9999,9999,4100933752
25,13,Improv_Metronome,62,9999,9999,9999,9999,4101433424
25,13,Improv_Metronome,63,9999,9999,9999,9999,4101933172
25,13,Improv_Metronome,64,9999,9999,9999,9999,4102433912
25,13,Improv_Metronome,65,9999,9999,9999,9999,4102933580
25,13,Improv_Metronome,66,9999,9999,9999,9999,4103433324
25,13,Improv_Metronome,67,9999,9999,9999,9999,4103934052
25,13,Improv_Metronome,68,9999,9999,9999,9999,4104433724
25,13,Improv_Metronome,69,9999,9999,9999,9999,4104933496
25,13,Improv_Metronome,70,9999,9999,9999,9999,4105433144
25,13,Improv_Metronome,71,9999,9999,9999,9999,4105933880
25,13,Improv_Metronome,72,9999,9999,9999,9999,4106433640
25,13,Improv_Metronome,73,9999,9999,9999,9999,4106933324
25,13,Improv_Metronome,74,9999,9999,9999,9999,4107434048
25,13,Improv_Metronome,75,9999,9999,9999,9999,4107933812
25,13,Improv_Metronome,76,9999,9999,9999,9999,4108433484
25,13,Improv_Metronome,77,9999,9999,9999,9999,4108933180
25,13,Improv_Metronome,78,9999,9999,9999,9999,4109433948
25,13,Improv_Metronome,79,9999,9999,9999,9999,4109933644
25,13,Improv_Metronome,80,9999,9999,9999,9999,4110433392
25,13,Improv_Metronome,81,9999,9999,9999,9999,4110934132
25,13,Improv_Metronome,82,9999,9999,9999,9999,4111433804
25,13,Improv_Metronome,83,9999,9999,9999,9999,4111933500
25,13,Improv_Metronome,84,9999,9999,9999,9999,4112433268
25,13,Improv_Metronome,85,9999,9999,9999,9999,4112933936
25,13,Improv_Metronome,86,9999,9999,9999,9999,4113433688
25,13,Improv_Metronome,87,9999,9999,9999,9999,4113933384
25,13,Improv_Metronome,88,9999,9999,9999,9999,4114433080
25,13,Improv_Metronome,89,9999,9999,9999,9999,4114933820
25,13,Improv_Metronome,90,9999,9999,9999,9999,4115433592
25,13,Improv_Metronome,91,9999,9999,9999,9999,4115933284
25,13,Improv_Metronome,92,9999,9999,9999,9999,4116434024
25,13,Improv_Metronome,93,9999,9999,9999,9999,4116933720
25,13,Improv_Metronome,94,9999,9999,9999,9999,4117433416
25,13,Improv_Metronome,95,9999,9999,9999,9999,4117933112
25,13,Improv_Metronome,96,9999,9999,9999,9999,4118433868
25,13,Improv_Metronome,97,9999,9999,9999,9999,4118933620
25,13,Improv_Metronome,98,9999,9999,9999,9999,4119433316
25,13,Improv_Metronome,99,9999,9999,9999,9999,4119934032
25,13,Improv_Metronome,100,9999,9999,9999,9999,4120433724
25,13,Improv_Metronome,101,9999,9999,9999,9999,4120933496
25,13,Improv_Metronome,102,9999,9999,9999,9999,4121433192
25,13,Improv_Metronome,103,9999,9999,9999,9999,4121933932
25,13,Improv_Metronome,104,9999,9999,9999,9999,4122433628
25,13,Improv_Metronome,105,9999,9999,9999,9999,4122933320
25,13,Improv_Metronome,106,9999,9999,9999,9999,4123434064
25,13,Improv_Metronome,107,9999,9999,9999,9999,4123933760
25,13,Improv_Metronome,108,9999,9999,9999,9999,4124433528
25,13,Improv_Metronome,109,9999,9999,9999,9999,4124933224
25,13,Improv_Metronome,110,9999,9999,9999,9999,4125433964
25,13,Improv_Metronome,111,9999,9999,9999,9999,4125933652
25,13,Improv_Metronome,112,9999,9999,9999,9999,4126433348
25,13,Improv_Metronome,113,9999,9999,9999,9999,4126934088
25,13,Improv_Metronome,114,9999,9999,9999,9999,4127433780
25,13,Improv_Metronome,115,9999,9999,9999,9999,4127933552
25,13,Improv_Metronome,116,9999,9999,9999,9999,4128433244
25,13,Improv_Metronome,117,9999,9999,9999,9999,4128933988
25,13,Improv_Metronome,118,9999,9999,9999,9999,4129433684
25,13,Improv_Metronome,119,9999,9999,9999,9999,4129933376
25,13,Improv_Metronome,120,9999,9999,9999,9999,4130433124
25,13,Improv_Metronome,121,9999,9999,9999,9999,4130933840
25,13,Improv_Metronome,122,9999,9999,9999,9999,4131433536
25,13,Improv_Metronome,123,9999,9999,9999,9999,4131933304
25,13,Improv_Metronome,124,9999,9999,9999,9999,4132433976
25,13,Improv_Metronome,125,9999,9999,9999,9999,4132933740
25,13,Improv_Metronome,126,9999,9999,9999,9999,4133433436
25,13,Improv_Metronome,127,9999,9999,9999,9999,4133933128
25,13,Improv_Metronome,128,9999,9999,9999,9999,4134433868
25,13,Improv_Metronome,129,9999,9999,9999,9999,4134933564
25,13,Improv_Metronome,130,9999,9999,9999,9999,4135433336
25,13,Improv_Metronome,131,9999,9999,9999,9999,4135934000
25,13,Improv_Metronome,132,9999,9999,9999,9999,4136433768
25,13,Improv_Metronome,133,9999,9999,9999,9999,4136933464
25,13,Improv_Metronome,134,9999,9999,9999,9999,4137433160
25,13,Improv_Metronome,135,9999,9999,9999,9999,4137933900
25,13,Improv_Metronome,136,9999,9999,9999,9999,4138433596
25,13,Improv_Metronome,137,9999,9999,9999,9999,4138933348
25,13,Improv_Metronome,138,9999,9999,9999,9999,4139434104
25,13,Improv_Metronome,139,9999,9999,9999,9999,4139933800
26,14,Improv_Melody,0,2,48,80,4192140756
26,14,Improv_Melody,1,2,72,80,4192142992
26,14,Improv_Melody,2,5,42,127,4192145532
26,14,Improv_Melody,3,5,42,110,4192639344
26,14,Improv_Melody,4,5,42,110,4193139112
26,14,Improv_Melody,5,5,42,110,4193638908
26,14,Improv_Melody,6,5,42,127,4194138408
26,14,Improv_Melody,7,5,42,110,4194639176
26,14,Improv_Melody,8,1,38,18,4195053060
26,14,Improv_Melody,9,1,48,15,4195060592
26,14,Improv_Melody,10,5,42,110,4195138872
26,14,Improv_Melody,11,5,42,110,4195638772
26,14,Improv_Melody,12,2,43,80,4196141896
26,14,Improv_Melody,13,2,67,80,4196143972
26,14,Improv_Melody,14,5,42,127,4196146588
26,14,Improv_Melody,15,5,42,110,4196638980
26,14,Improv_Melody,16,5,42,110,4197139000
26,14,Improv_Melody,17,5,42,110,4197638572
26,14,Improv_Melody,18,5,42,127,4198139264
26,14,Improv_Melody,19,5,42,110,4198638988
26,14,Improv_Melody,20,5,42,110,4199138636
26,14,Improv_Melody,21,5,42,110,4199639552
26,14,Improv_Melody,22,2,45,80,4200141628
26,14,Improv_Melody,23,2,69,80,4200143632
26,14,Improv_Melody,24,5,42,127,4200146244
26,14,Improv_Melody,25,5,42,110,4200638784
26,14,Improv_Melody,26,5,42,110,4201138728
26,14,Improv_Melody,27,5,42,110,4201639720
26,14,Improv_Melody,28,5,42,127,4202138848
26,14,Improv_Melody,29,5,42,110,4202638716
26,14,Improv_Melody,30,5,42,110,4203138664
26,14,Improv_Melody,31,5,42,110,4203639108
26,14,Improv_Melody,32,2,41,80,4204141640
26,14,Improv_Melody,33,2,65,80,4204143484
26,14,Improv_Melody,34,5,42,127,4204146024
26,14,Improv_Melody,35,5,42,110,4204638640
26,14,Improv_Melody,36,5,42,110,4205139484
26,14,Improv_Melody,37,5,42,110,4205638908
26,14,Improv_Melody,38,5,42,127,4206138628
26,14,Improv_Melody,39,5,42,110,4206638572
26,14,Improv_Melody,40,5,42,110,4207139120
26,14,Improv_Melody,41,5,42,110,4207638916
26,14,Improv_Melody,42,2,48,80,4208141064
26,14,Improv_Melody,43,1,38,31,4208142032
26,14,Improv_Melody,44,2,72,80,4208145620
26,14,Improv_Melody,45,5,42,127,4208147708
26,14,Improv_Melody,46,1,48,15,4208149044
26,14,Improv_Melody,47,1,38,50,4208409828
26,14,Improv_Melody,48,5,42,110,4208639480
26,14,Improv_Melody,49,1,38,23,4208661748
26,14,Improv_Melody,50,1,38,38,4208926836
26,14,Improv_Melody,51,5,42,110,4209139156
26,14,Improv_Melody,52,1,38,22,4209144368
26,14,Improv_Melody,53,1,38,44,4209359416
26,14,Improv_Melody,54,1,38,25,4209598396
26,14,Improv_Melody,55,5,42,110,4209638680
26,14,Improv_Melody,56,1,38,21,4209839572
26,14,Improv_Melody,57,1,38,27,4210069876
26,14,Improv_Melody,58,5,42,127,4210138432
26,14,Improv_Melody,59,1,38,22,4210327504
26,14,Improv_Melody,60,1,48,13,4210339676
26,14,Improv_Melody,61,1,38,25,4210572428
26,14,Improv_Melody,62,5,42,110,4210639408
26,14,Improv_Melody,63,1,38,21,4210810752
26,14,Improv_Melody,64,1,38,24,4211040664
26,14,Improv_Melody,65,5,42,110,4211139084
26,14,Improv_Melody,66,1,38,22,4211280640
26,14,Improv_Melody,67,1,38,23,4211511768
26,14,Improv_Melody,68,5,42,110,4211638748
26,14,Improv_Melody,69,1,38,42,4211728636
26,14,Improv_Melody,70,1,38,21,4211966420
26,14,Improv_Melody,71,2,43,80,4212141904
26,14,Improv_Melody,72,2,67,80,4212144136
26,14,Improv_Melody,73,5,42,127,4212146668
26,14,Improv_Melody,74,1,38,56,4212201024
26,14,Improv_Melody,75,1,38,22,4212450628
26,14,Improv_Melody,76,5,42,110,4212639240
26,14,Improv_Melody,77,1,38,49,4212653136
26,14,Improv_Melody,78,1,38,28,4212915148
26,14,Improv_Melody,79,1,48,13,4212922232
26,14,Improv_Melody,80,5,42,110,4213138944
26,14,Improv_Melody,81,1,48,69,4213352772
26,14,Improv_Melody,82,1,48,44,4213609556
26,14,Improv_Melody,83,5,42,110,4213638416
26,14,Improv_Melody,84,1,48,59,4213838312
26,14,Improv_Melody,85,1,48,47,4214076992
26,14,Improv_Melody,86,5,42,127,4214139288
26,14,Improv_Melody,87,1,48,61,4214357660
26,14,Improv_Melody,88,1,48,52,4214602248
26,14,Improv_Melody,89,5,42,110,4214639164
26,14,Improv_Melody,90,1,48,57,4214880600
26,14,Improv_Melody,91,1,48,48,4215124516
26,14,Improv_Melody,92,5,42,110,4215138620
26,14,Improv_Melody,93,5,42,110,4215639448
26,14,Improv_Melody,94,2,45,80,4216141904
26,14,Improv_Melody,95,2,69,80,4216144052
26,14,Improv_Melody,96,5,42,127,4216146512
26,14,Improv_Melody,97,5,42,110,4216638904
26,14,Improv_Melody,98,5,42,110,4217138552
26,14,Improv_Melody,99,1,48,65,4217155056
26,14,Improv_Melody,100,1,48,59,4217411168
26,14,Improv_Melody,101,1,38,67,4217637080
26,14,Improv_Melody,102,5,42,110,4217640020
26,14,Improv_Melody,103,1,48,65,4218123448
26,14,Improv_Melody,104,5,42,127,4218138968
26,14,Improv_Melody,105,1,48,53,4218374196
26,14,Improv_Melody,106,1,38,44,4218596120
26,14,Improv_Melody,107,5,42,110,4218638720
26,14,Improv_Melody,108,1,48,68,4219092828
26,14,Improv_Melody,109,5,42,110,4219138348
26,14,Improv_Melody,110,1,48,50,4219340360
26,14,Improv_Melody,111,1,38,65,4219594600
26,14,Improv_Melody,112,5,42,110,4219639220
26,14,Improv_Melody,113,1,48,67,4220125716
26,14,Improv_Melody,114,2,41,80,4220141804
26,14,Improv_Melody,115,2,65,80,4220143876
26,14,Improv_Melody,116,5,42,127,4220146412
26,14,Improv_Melody,117,1,48,49,4220384336
26,14,Improv_Melody,118,5,42,110,4220638696
26,14,Improv_Melody,119,1,38,72,4220664552
26,14,Improv_Melody,120,1,48,64,4221104988
26,14,Improv_Melody,121,5,42,110,4221139360
26,14,Improv_Melody,122,1,48,40,4221375032
26,14,Improv_Melody,123,1,38,72,4221621648
26,14,Improv_Melody,124,5,42,110,4221639040
26,14,Improv_Melody,125,1,48,71,4222116936
26,14,Improv_Melody,126,5,42,127,4222138964
26,14,Improv_Melody,127,1,48,46,4222367160
26,14,Improv_Melody,128,5,42,110,4222638500
26,14,Improv_Melody,129,1,38,70,4222663604
26,14,Improv_Melody,130,5,42,110,4223139096
26,14,Improv_Melody,131,1,48,59,4223174152
26,14,Improv_Melody,132,1,48,43,4223399296
26,14,Improv_Melody,133,5,42,110,4223638848
26,14,Improv_Melody,134,1,38,73,4223654756
26,14,Improv_Melody,135,2,48,80,4224141276
26,14,Improv_Melody,136,2,72,80,4224143352
26,14,Improv_Melody,137,5,42,127,4224145892
26,14,Improv_Melody,138,1,48,57,4224153272
26,14,Improv_Melody,139,1,48,56,4224393528
26,14,Improv_Melody,140,5,42,110,4224639288
26,14,Improv_Melody,141,1,38,67,4224647568
26,14,Improv_Melody,142,1,48,64,4225138656
26,14,Improv_Melody,143,5,42,110,4225140448
26,14,Improv_Melody,144,1,48,42,4225390260
26,14,Improv_Melody,145,1,38,62,4225624904
26,14,Improv_Melody,146,5,42,110,4225638856
26,14,Improv_Melody,147,1,48,67,4226118620
26,14,Improv_Melody,148,5,42,127,4226138408
26,14,Improv_Melody,149,1,48,53,4226358752
26,14,Improv_Melody,150,1,38,69,4226626680
26,14,Improv_Melody,151,5,42,110,4226639208
26,14,Improv_Melody,152,5,42,110,4227139064
26,14,Improv_Melody,153,1,48,29,4227163576
26,14,Improv_Melody,154,1,48,40,4227393584
26,14,Improv_Melody,155,5,42,110,4227638592
26,14,Improv_Melody,156,1,38,67,4227664448
26,14,Improv_Melody,157,2,43,80,4228141992
26,14,Improv_Melody,158,2,67,80,4228144296
26,14,Improv_Melody,159,5,42,127,4228146828
26,14,Improv_Melody,160,1,48,56,4228190568
26,14,Improv_Melody,161,1,48,42,4228421616
26,14,Improv_Melody,162,5,42,110,4228639180
26,14,Improv_Melody,163,1,38,70,4228656436
26,14,Improv_Melody,164,5,42,110,4229138728
26,14,Improv_Melody,165,1,48,53,4229162788
26,14,Improv_Melody,166,1,48,50,4229404692
26,14,Improv_Melody,167,5,42,110,4229638632
26,14,Improv_Melody,168,1,38,71,4229663216
26,14,Improv_Melody,169,5,42,127,4230139524
26,14,Improv_Melody,170,1,48,57,4230183560
26,14,Improv_Melody,171,1,48,55,4230402648
26,14,Improv_Melody,172,1,38,68,4230621288
26,14,Improv_Melody,173,5,42,110,4230638828
26,14,Improv_Melody,174,5,42,110,4231138684
26,14,Improv_Melody,175,1,48,56,4231170448
26,14,Improv_Melody,176,1,48,58,4231381380
26,14,Improv_Melody,177,5,42,110,4231639484
26,14,Improv_Melody,178,1,38,72,4231650384
26,14,Improv_Melody,179,2,45,80,4232141608
26,14,Improv_Melody,180,2,69,80,4232143920
26,14,Improv_Melody,181,5,42,127,4232146452
26,14,Improv_Melody,182,1,48,57,4232161988
26,14,Improv_Melody,183,1,48,53,4232385408
26,14,Improv_Melody,184,1,38,71,4232620356
26,14,Improv_Melody,185,5,42,110,4232638720
26,14,Improv_Melody,186,1,48,59,4233112496
26,14,Improv_Melody,187,5,42,110,4233138644
26,14,Improv_Melody,188,1,48,56,4233364524
26,14,Improv_Melody,189,1,38,55,4233628040
26,14,Improv_Melody,190,5,42,110,4233639520
26,14,Improv_Melody,191,1,48,64,4234125420
26,14,Improv_Melody,192,5,42,127,4234138924
26,14,Improv_Melody,193,1,48,45,4234352884
26,14,Improv_Melody,194,1,38,59,4234614304
26,14,Improv_Melody,195,5,42,110,4234638604
26,14,Improv_Melody,196,1,48,57,4235125372
26,14,Improv_Melody,197,5,42,110,4235138452
26,14,Improv_Melody,198,1,48,48,4235343580
26,14,Improv_Melody,199,1,38,65,4235601708
26,14,Improv_Melody,200,5,42,110,4235639688
26,14,Improv_Melody,201,1,48,59,4236115316
26,14,Improv_Melody,202,2,41,80,4236141420
26,14,Improv_Melody,203,2,65,80,4236143876
26,14,Improv_Melody,204,5,42,127,4236146332
26,14,Improv_Melody,205,1,48,49,4236330472
26,14,Improv_Melody,206,1,38,62,4236614404
26,14,Improv_Melody,207,5,42,110,4236638532
26,14,Improv_Melody,208,1,48,56,4237126596
26,14,Improv_Melody,209,5,42,110,4237139352
26,14,Improv_Melody,210,1,48,42,4237364332
26,14,Improv_Melody,211,1,38,66,4237595532
26,14,Improv_Melody,212,5,42,110,4237638960
26,14,Improv_Melody,213,1,48,53,4238120068
26,14,Improv_Melody,214,5,42,127,4238138732
26,14,Improv_Melody,215,1,48,45,4238346732
26,14,Improv_Melody,216,1,38,67,4238615932
26,14,Improv_Melody,217,5,42,110,4238638336
26,14,Improv_Melody,218,1,48,56,4239118972
26,14,Improv_Melody,219,5,42,110,4239139204
26,14,Improv_Melody,220,1,48,48,4239363956
26,14,Improv_Melody,221,1,38,65,4239602044
26,14,Improv_Melody,222,5,42,110,4239639180
26,14,Improv_Melody,223,1,48,70,4240121784
26,14,Improv_Melody,224,2,48,80,4240141316
26,14,Improv_Melody,225,2,72,80,4240143236
26,14,Improv_Melody,226,5,42,127,4240145700
26,14,Improv_Melody,227,1,48,62,4240340908
26,14,Improv_Melody,228,1,48,53,4240589168
26,14,Improv_Melody,229,5,42,110,4240639324
26,14,Improv_Melody,230,1,38,59,4240824204
26,14,Improv_Melody,231,1,48,58,4241081288
26,14,Improv_Melody,232,5,42,110,4241139296
26,14,Improv_Melody,233,1,48,55,4241329940
26,14,Improv_Melody,234,1,48,57,4241571320
26,14,Improv_Melody,235,5,42,110,4241638976
26,14,Improv_Melody,236,1,38,67,4241806132
26,14,Improv_Melody,237,1,48,67,4242071444
26,14,Improv_Melody,238,5,42,127,4242138504
26,14,Improv_Melody,239,1,48,54,4242336256
26,14,Improv_Melody,240,1,48,61,4242585480
26,14,Improv_Melody,241,5,42,110,4242639228
26,14,Improv_Melody,242,1,38,63,4242852988
26,14,Improv_Melody,243,1,48,67,4243116876
26,14,Improv_Melody,244,5,42,110,4243138908
26,14,Improv_Melody,245,1,48,63,4243375704
26,14,Improv_Melody,246,5,42,110,4243638740
26,14,Improv_Melody,247,1,48,62,4243649188
26,14,Improv_Melody,248,1,38,66,4243879868
26,14,Improv_Melody,249,2,43,80,4244141896
26,14,Improv_Melody,250,2,67,80,4244144120
26,14,Improv_Melody,251,5,42,127,4244146808
26,14,Improv_Melody,252,1,48,66,4244169524
26,14,Improv_Melody,253,1,48,61,4244422044
26,14,Improv_Melody,254,5,42,110,4244639156
26,14,Improv_Melody,255,1,48,62,4244661500
26,14,Improv_Melody,256,1,38,65,4244882456
26,14,Improv_Melody,257,1,48,68,4245108996
26,14,Improv_Melody,258,5,42,110,4245138828
26,14,Improv_Melody,259,1,48,60,4245373824
26,14,Improv_Melody,260,1,48,61,4245618848
26,14,Improv_Melody,261,5,42,110,4245638504
26,14,Improv_Melody,262,1,38,72,4245858896
26,14,Improv_Melody,263,1,48,69,4246111640
26,14,Improv_Melody,264,5,42,127,4246139304
26,14,Improv_Melody,265,1,48,58,4246366876
26,14,Improv_Melody,266,1,48,64,4246607352
26,14,Improv_Melody,267,5,42,110,4246639032
26,14,Improv_Melody,268,1,38,66,4246850320
26,14,Improv_Melody,269,1,48,59,4247093040
26,14,Improv_Melody,270,5,42,110,4247138856
26,14,Improv_Melody,271,1,48,59,4247352092
26,14,Improv_Melody,272,1,48,57,4247609848
26,14,Improv_Melody,273,5,42,110,4247639360
26,14,Improv_Melody,274,1,38,76,4247871744
26,14,Improv_Melody,275,1,48,57,4248109972
26,14,Improv_Melody,276,2,45,80,4248141464
26,14,Improv_Melody,277,2,69,80,4248143996
26,14,Improv_Melody,278,5,42,127,4248146376
26,14,Improv_Melody,279,1,48,51,4248382876
26,14,Improv_Melody,280,5,42,110,4248638808
26,14,Improv_Melody,281,1,48,62,4248658608
26,14,Improv_Melody,282,1,38,79,4248897064
26,14,Improv_Melody,283,1,48,54,4249120188
26,14,Improv_Melody,284,5,42,110,4249138628
26,14,Improv_Melody,285,1,48,46,4249388516
26,14,Improv_Melody,286,1,48,64,4249610816
26,14,Improv_Melody,287,5,42,110,4249639208
26,14,Improv_Melody,288,1,38,72,4249876000
26,14,Improv_Melody,289,1,48,65,4250106980
26,14,Improv_Melody,290,5,42,127,4250138884
26,14,Improv_Melody,291,1,48,59,4250353612
26,14,Improv_Melody,292,1,38,75,4250629096
26,14,Improv_Melody,293,5,42,110,4250639008
26,14,Improv_Melody,294,1,48,53,4250911480
26,14,Improv_Melody,295,5,42,110,4251138620
26,14,Improv_Melody,296,1,48,43,4251148772
26,14,Improv_Melody,297,1,48,57,4251381168
26,14,Improv_Melody,298,1,38,78,4251623592
26,14,Improv_Melody,299,5,42,110,4251639264
26,14,Improv_Melody,300,2,41,80,4252141400
26,14,Improv_Melody,301,2,65,80,4252143548
26,14,Improv_Melody,302,5,42,127,4252146088
26,14,Improv_Melody,303,1,48,62,4252171872
26,14,Improv_Melody,304,1,48,59,4252399636
26,14,Improv_Melody,305,5,42,110,4252638664
26,14,Improv_Melody,306,1,38,84,4252644404
26,14,Improv_Melody,307,1,48,52,4252905368
26,14,Improv_Melody,308,1,48,63,4253122064
26,14,Improv_Melody,309,5,42,110,4253139456
26,14,Improv_Melody,310,1,48,54,4253379768
26,14,Improv_Melody,311,1,38,77,4253620544
26,14,Improv_Melody,312,5,42,110,4253638908
26,14,Improv_Melody,313,1,48,68,4254114336
26,14,Improv_Melody,314,5,42,127,4254138832
26,14,Improv_Melody,315,1,48,59,4254333372
26,14,Improv_Melody,316,1,38,64,4254578836
26,14,Improv_Melody,317,5,42,110,4254638512
26,14,Improv_Melody,318,1,48,53,4254872240
26,14,Improv_Melody,319,1,48,63,4255095588
26,14,Improv_Melody,320,5,42,110,4255139164
26,14,Improv_Melody,321,1,48,60,4255346684
26,14,Improv_Melody,322,1,38,85,4255593676
26,14,Improv_Melody,323,5,42,110,4255638844
26,14,Improv_Melody,324,1,48,64,4256124144
26,14,Improv_Melody,325,2,48,80,4256141196
26,14,Improv_Melody,326,2,72,80,4256143428
26,14,Improv_Melody,327,5,42,127,4256145960
26,14,Improv_Melody,328,1,48,48,4256356028
26,14,Improv_Melody,329,1,38,79,4256611088
26,14,Improv_Melody,330,5,42,110,4256639356
26,14,Improv_Melody,331,1,48,57,4256878144
26,14,Improv_Melody,332,1,48,55,4257113684
26,14,Improv_Melody,333,5,42,110,4257138932
26,14,Improv_Melody,334,1,48,55,4257374604
26,14,Improv_Melody,335,5,42,110,4257638840
26,14,Improv_Melody,336,1,38,83,4257643156
26,14,Improv_Melody,337,5,42,127,4258138616
26,14,Improv_Melody,338,1,48,64,4258145920
26,14,Improv_Melody,339,1,48,57,4258377720
26,14,Improv_Melody,340,1,38,70,4258618952
26,14,Improv_Melody,341,5,42,110,4258639408
26,14,Improv_Melody,342,1,48,62,4258905600
26,14,Improv_Melody,343,1,48,62,4259132092
26,14,Improv_Melody,344,5,42,110,4259139012
26,14,Improv_Melody,345,1,48,60,4259381572
26,14,Improv_Melody,346,1,38,74,4259618908
26,14,Improv_Melody,347,5,42,110,4259638540
26,14,Improv_Melody,348,1,48,73,4260119580
26,14,Improv_Melody,349,2,43,80,4260141940
26,14,Improv_Melody,350,2,67,80,4260144244
26,14,Improv_Melody,351,5,42,127,4260146780
26,14,Improv_Melody,352,1,48,59,4260368544
26,14,Improv_Melody,353,1,38,59,4260633856
26,14,Improv_Melody,354,5,42,110,4260639204
26,14,Improv_Melody,355,1,48,69,4260885652
26,14,Improv_Melody,356,1,48,66,4261117004
26,14,Improv_Melody,357,5,42,110,4261138660
26,14,Improv_Melody,358,1,48,58,4261345608
26,14,Improv_Melody,359,1,38,70,4261590872
26,14,Improv_Melody,360,5,42,110,4261638636
26,14,Improv_Melody,361,1,48,72,4262109648
26,14,Improv_Melody,362,5,42,127,4262139456
26,14,Improv_Melody,363,1,48,67,4262341996
26,14,Improv_Melody,364,1,38,61,4262583072
26,14,Improv_Melody,365,5,42,110,4262638840
26,14,Improv_Melody,366,1,48,62,4262836740
26,14,Improv_Melody,367,1,48,69,4263087764
26,14,Improv_Melody,368,5,42,110,4263138816
26,14,Improv_Melody,369,1,48,48,4263316524
26,14,Improv_Melody,370,1,38,80,4263560220
26,14,Improv_Melody,371,5,42,110,4263639316
26,14,Improv_Melody,372,1,48,77,4264078616
26,14,Improv_Melody,373,2,45,80,4264141672
26,14,Improv_Melody,374,2,69,80,4264143820
26,14,Improv_Melody,375,5,42,127,4264146580
26,14,Improv_Melody,376,1,48,56,4264322792
26,14,Improv_Melody,377,1,38,61,4264570228
26,14,Improv_Melody,378,5,42,110,4264638784
26,14,Improv_Melody,379,1,48,63,4264840204
26,14,Improv_Melody,380,1,48,65,4265087928
26,14,Improv_Melody,381,5,42,110,4265138608
26,14,Improv_Melody,382,1,48,47,4265310456
26,14,Improv_Melody,383,1,38,92,4265553476
26,14,Improv_Melody,384,5,42,110,4265639260
26,14,Improv_Melody,385,1,48,65,4266109976
26,14,Improv_Melody,386,5,42,127,4266139256
26,14,Improv_Melody,387,1,48,49,4266347232
26,14,Improv_Melody,388,1,38,66,4266615860
26,14,Improv_Melody,389,5,42,110,4266638788
26,14,Improv_Melody,390,1,48,65,4266867932
26,14,Improv_Melody,391,1,48,59,4267120372
26,14,Improv_Melody,392,5,42,110,4267138392
26,14,Improv_Melody,393,1,48,58,4267352424
26,14,Improv_Melody,394,1,38,82,4267596340
26,14,Improv_Melody,395,5,42,110,4267639192
26,14,Improv_Melody,396,1,48,74,4268120724
26,14,Improv_Melody,397,2,41,80,4268141520
26,14,Improv_Melody,398,2,65,80,4268143592
26,14,Improv_Melody,399,5,42,127,4268146356
26,14,Improv_Melody,400,1,48,62,4268364156
26,14,Improv_Melody,401,1,38,78,4268591840
26,14,Improv_Melody,402,5,42,110,4268638484
26,14,Improv_Melody,403,1,48,50,4268880140
26,14,Improv_Melody,404,1,48,60,4269131388
26,14,Improv_Melody,405,5,42,110,4269139356
26,14,Improv_Melody,406,1,48,58,4269365456
26,14,Improv_Melody,407,1,38,82,4269581176
26,14,Improv_Melody,408,5,42,110,4269639184
26,14,Improv_Melody,409,1,48,77,4270094188
26,14,Improv_Melody,410,5,42,127,4270138732
26,14,Improv_Melody,411,1,48,58,4270339332
26,14,Improv_Melody,412,1,38,83,4270565520
26,14,Improv_Melody,413,5,42,110,4270638412
26,14,Improv_Melody,414,1,48,64,4270828160
26,14,Improv_Melody,415,1,48,64,4271087336
26,14,Improv_Melody,416,5,42,110,4271139212
26,14,Improv_Melody,417,1,48,65,4271323500
26,14,Improv_Melody,418,1,38,84,4271562856
26,14,Improv_Melody,419,5,42,110,4271638888
26,14,Improv_Melody,420,1,48,67,4272104064
26,14,Improv_Melody,421,2,48,80,4272141320
26,14,Improv_Melody,422,2,72,80,4272143620
26,14,Improv_Melody,423,5,42,127,4272146300
26,14,Improv_Melody,424,1,48,62,4272358716
26,14,Improv_Melody,425,1,38,63,4272598596
26,14,Improv_Melody,426,5,42,110,4272639324
26,14,Improv_Melody,427,1,48,55,4272882032
26,14,Improv_Melody,0,9999,9999,9999,9999,4192136300
26,14,Improv_Melody,1,9999,9999,9999,9999,4192637048
26,14,Improv_Melody,2,9999,9999,9999,9999,4193136744
26,14,Improv_Melody,3,9999,9999,9999,9999,4193636468
26,14,Improv_Melody,4,9999,9999,9999,9999,4194136116
26,14,Improv_Melody,5,9999,9999,9999,9999,4194636884
26,14,Improv_Melody,6,9999,9999,9999,9999,4195136580
26,14,Improv_Melody,7,9999,9999,9999,9999,4195636332
26,14,Improv_Melody,8,9999,9999,9999,9999,4196137024
26,14,Improv_Melody,9,9999,9999,9999,9999,4196636760
26,14,Improv_Melody,10,9999,9999,9999,9999,4197136484
26,14,Improv_Melody,11,9999,9999,9999,9999,4197636204
26,14,Improv_Melody,12,9999,9999,9999,9999,4198136896
26,14,Improv_Melody,13,9999,9999,9999,9999,4198636620
26,14,Improv_Melody,14,9999,9999,9999,9999,4199136340
26,14,Improv_Melody,15,9999,9999,9999,9999,4199637108
26,14,Improv_Melody,16,9999,9999,9999,9999,4200136756
26,14,Improv_Melody,17,9999,9999,9999,9999,4200636492
26,14,Improv_Melody,18,9999,9999,9999,9999,4201136212
26,14,Improv_Melody,19,9999,9999,9999,9999,4201636980
26,14,Improv_Melody,20,9999,9999,9999,9999,4202136628
26,14,Improv_Melody,21,9999,9999,9999,9999,4202636352
26,14,Improv_Melody,22,9999,9999,9999,9999,4203136072
26,14,Improv_Melody,23,9999,9999,9999,9999,4203636816
26,14,Improv_Melody,24,9999,9999,9999,9999,4204136536
26,14,Improv_Melody,25,9999,9999,9999,9999,4204636272
26,14,Improv_Melody,26,9999,9999,9999,9999,4205136968
26,14,Improv_Melody,27,9999,9999,9999,9999,4205636688
26,14,Improv_Melody,28,9999,9999,9999,9999,4206136408
26,14,Improv_Melody,29,9999,9999,9999,9999,4206636132
26,14,Improv_Melody,30,9999,9999,9999,9999,4207136828
26,14,Improv_Melody,31,9999,9999,9999,9999,4207636548
26,14,Improv_Melody,32,9999,9999,9999,9999,4208136272
26,14,Improv_Melody,33,9999,9999,9999,9999,4208637036
26,14,Improv_Melody,34,9999,9999,9999,9999,4209136716
26,14,Improv_Melody,35,9999,9999,9999,9999,4209636460
26,14,Improv_Melody,36,9999,9999,9999,9999,4210136140
26,14,Improv_Melody,37,9999,9999,9999,9999,4210636892
26,14,Improv_Melody,38,9999,9999,9999,9999,4211136572
26,14,Improv_Melody,39,9999,9999,9999,9999,4211636308
26,14,Improv_Melody,40,9999,9999,9999,9999,4212137032
26,14,Improv_Melody,41,9999,9999,9999,9999,4212636724
26,14,Improv_Melody,42,9999,9999,9999,9999,4213136504
26,14,Improv_Melody,43,9999,9999,9999,9999,4213636196
26,14,Improv_Melody,44,9999,9999,9999,9999,4214136920
26,14,Improv_Melody,45,9999,9999,9999,9999,4214636648
26,14,Improv_Melody,46,9999,9999,9999,9999,4215136328
26,14,Improv_Melody,47,9999,9999,9999,9999,4215637080
26,14,Improv_Melody,48,9999,9999,9999,9999,4216136804
26,14,Improv_Melody,49,9999,9999,9999,9999,4216636540
26,14,Improv_Melody,50,9999,9999,9999,9999,4217136184
26,14,Improv_Melody,51,9999,9999,9999,9999,4217636940
26,14,Improv_Melody,52,9999,9999,9999,9999,4218136676
26,14,Improv_Melody,53,9999,9999,9999,9999,4218636352
26,14,Improv_Melody,54,9999,9999,9999,9999,4219136056
26,14,Improv_Melody,55,9999,9999,9999,9999,4219636852
26,14,Improv_Melody,56,9999,9999,9999,9999,4220136552
26,14,Improv_Melody,57,9999,9999,9999,9999,4220636256
26,14,Improv_Melody,58,9999,9999,9999,9999,4221136992
26,14,Improv_Melody,59,9999,9999,9999,9999,4221636672
26,14,Improv_Melody,60,9999,9999,9999,9999,4222136372
26,14,Improv_Melody,61,9999,9999,9999,9999,4222636132
26,14,Improv_Melody,62,9999,9999,9999,9999,4223136880
26,14,Improv_Melody,63,9999,9999,9999,9999,4223636556
26,14,Improv_Melody,64,9999,9999,9999,9999,4224136256
26,14,Improv_Melody,65,9999,9999,9999,9999,4224636996
26,14,Improv_Melody,66,9999,9999,9999,9999,4225136744
26,14,Improv_Melody,67,9999,9999,9999,9999,4225636416
26,14,Improv_Melody,68,9999,9999,9999,9999,4226136116
26,14,Improv_Melody,69,9999,9999,9999,9999,4226636916
26,14,Improv_Melody,70,9999,9999,9999,9999,4227136624
26,14,Improv_Melody,71,9999,9999,9999,9999,4227636300
26,14,Improv_Melody,72,9999,9999,9999,9999,4228137044
26,14,Improv_Melody,73,9999,9999,9999,9999,4228636740
26,14,Improv_Melody,74,9999,9999,9999,9999,4229136436
26,14,Improv_Melody,75,9999,9999,9999,9999,4229636192
26,14,Improv_Melody,76,9999,9999,9999,9999,4230136936
26,14,Improv_Melody,77,9999,9999,9999,9999,4230636608
26,14,Improv_Melody,78,9999,9999,9999,9999,4231136316
26,14,Improv_Melody,79,9999,9999,9999,9999,4231637040
26,14,Improv_Melody,80,9999,9999,9999,9999,4232136816
26,14,Improv_Melody,81,9999,9999,9999,9999,4232636504
26,14,Improv_Melody,82,9999,9999,9999,9999,4233136204
26,14,Improv_Melody,83,9999,9999,9999,9999,4233636928
26,14,Improv_Melody,84,9999,9999,9999,9999,4234136632
26,14,Improv_Melody,85,9999,9999,9999,9999,4234636384
26,14,Improv_Melody,86,9999,9999,9999,9999,4235136084
26,14,Improv_Melody,87,9999,9999,9999,9999,4235636856
26,14,Improv_Melody,88,9999,9999,9999,9999,4236136552
26,14,Improv_Melody,89,9999,9999,9999,9999,4236636240
26,14,Improv_Melody,90,9999,9999,9999,9999,4237136988
26,14,Improv_Melody,91,9999,9999,9999,9999,4237636664
26,14,Improv_Melody,92,9999,9999,9999,9999,4238136440
26,14,Improv_Melody,93,9999,9999,9999,9999,4238636116
26,14,Improv_Melody,94,9999,9999,9999,9999,4239136840
26,14,Improv_Melody,95,9999,9999,9999,9999,4239636592
26,14,Improv_Melody,96,9999,9999,9999,9999,4240136292
26,14,Improv_Melody,97,9999,9999,9999,9999,4240637028
26,14,Improv_Melody,98,9999,9999,9999,9999,4241136708
26,14,Improv_Melody,99,9999,9999,9999,9999,4241636460
26,14,Improv_Melody,100,9999,9999,9999,9999,4242136136
26,14,Improv_Melody,101,9999,9999,9999,9999,4242636860
26,14,Improv_Melody,102,9999,9999,9999,9999,4243136616
26,14,Improv_Melody,103,9999,9999,9999,9999,4243636300
26,14,Improv_Melody,104,9999,9999,9999,9999,4244137024
26,14,Improv_Melody,105,9999,9999,9999,9999,4244636788
26,14,Improv_Melody,106,9999,9999,9999,9999,4245136460
26,14,Improv_Melody,107,9999,9999,9999,9999,4245636212
26,14,Improv_Melody,108,9999,9999,9999,9999,4246136936
26,14,Improv_Melody,109,9999,9999,9999,9999,4246636664
26,14,Improv_Melody,110,9999,9999,9999,9999,4247136340
26,14,Improv_Melody,111,9999,9999,9999,9999,4247637068
26,14,Improv_Melody,112,9999,9999,9999,9999,4248136820
26,14,Improv_Melody,113,9999,9999,9999,9999,4248636516
26,14,Improv_Melody,114,9999,9999,9999,9999,4249136188
26,14,Improv_Melody,115,9999,9999,9999,9999,4249636912
26,14,Improv_Melody,116,9999,9999,9999,9999,4250136664
26,14,Improv_Melody,117,9999,9999,9999,9999,4250636344
26,14,Improv_Melody,118,9999,9999,9999,9999,4251136104
26,14,Improv_Melody,119,9999,9999,9999,9999,4251636820
26,14,Improv_Melody,120,9999,9999,9999,9999,4252136528
26,14,Improv_Melody,121,9999,9999,9999,9999,4252636220
26,14,Improv_Melody,122,9999,9999,9999,9999,4253137012
26,14,Improv_Melody,123,9999,9999,9999,9999,4253636692
26,14,Improv_Melody,124,9999,9999,9999,9999,4254136392
26,14,Improv_Melody,125,9999,9999,9999,9999,4254636148
26,14,Improv_Melody,126,9999,9999,9999,9999,4255136872
26,14,Improv_Melody,127,9999,9999,9999,9999,4255636552
26,14,Improv_Melody,128,9999,9999,9999,9999,4256136252
26,14,Improv_Melody,129,9999,9999,9999,9999,4256636988
26,14,Improv_Melody,130,9999,9999,9999,9999,4257136712
26,14,Improv_Melody,131,9999,9999,9999,9999,4257636472
26,14,Improv_Melody,132,9999,9999,9999,9999,4258136172
26,14,Improv_Melody,133,9999,9999,9999,9999,4258636892
26,14,Improv_Melody,134,9999,9999,9999,9999,4259136572
26,14,Improv_Melody,135,9999,9999,9999,9999,4259636324
26,14,Improv_Melody,136,9999,9999,9999,9999,4260137072
26,14,Improv_Melody,137,9999,9999,9999,9999,4260636764
26,14,Improv_Melody,138,9999,9999,9999,9999,4261136440
26,14,Improv_Melody,139,9999,9999,9999,9999,4261636192
26,14,Improv_Melody,140,9999,9999,9999,9999,4262136940
26,14,Improv_Melody,141,9999,9999,9999,9999,4262636620
26,14,Improv_Melody,142,9999,9999,9999,9999,4263136372
26,14,Improv_Melody,143,9999,9999,9999,9999,4263637100
26,14,Improv_Melody,144,9999,9999,9999,9999,4264136800
26,14,Improv_Melody,145,9999,9999,9999,9999,4264636492
26,14,Improv_Melody,146,9999,9999,9999,9999,4265136244
26,14,Improv_Melody,147,9999,9999,9999,9999,4265636968
26,14,Improv_Melody,148,9999,9999,9999,9999,4266136668
26,14,Improv_Melody,149,9999,9999,9999,9999,4266636344
26,14,Improv_Melody,150,9999,9999,9999,9999,4267136100
26,14,Improv_Melody,151,9999,9999,9999,9999,4267636820
26,14,Improv_Melody,152,9999,9999,9999,9999,4268136500
26,14,Improv_Melody,153,9999,9999,9999,9999,4268636264
26,14,Improv_Melody,154,9999,9999,9999,9999,4269136988
26,14,Improv_Melody,155,9999,9999,9999,9999,4269636668
26,14,Improv_Melody,156,9999,9999,9999,9999,4270136440
26,14,Improv_Melody,157,9999,9999,9999,9999,4270636120
26,14,Improv_Melody,158,9999,9999,9999,9999,4271136844
26,14,Improv_Melody,159,9999,9999,9999,9999,4271636596
26,14,Improv_Melody,160,9999,9999,9999,9999,4272136296
26,14,Improv_Melody,161,9999,9999,9999,9999,4272637032
