pid,taskRunCount,taskID,taskName,i,channel,pitch,velocity,microseconds
1,1,Ticks_Pract_5,0,5,42,127,85830088
381,1,Ticks_Pract_5,1,5,42,127,86329656
381,1,Ticks_Pract_5,2,5,42,127,86829448
381,1,Ticks_Pract_5,3,1,38,48,87306004
381,1,Ticks_Pract_5,4,1,48,13,87316764
381,1,Ticks_Pract_5,5,5,42,127,87330108
381,1,Ticks_Pract_5,6,1,38,40,87814480
381,1,Ticks_Pract_5,7,5,42,127,87830072
381,1,Ticks_Pract_5,8,1,38,49,88307824
381,1,Ticks_Pract_5,9,5,42,127,88329620
381,1,Ticks_Pract_5,10,1,38,45,88813496
381,1,Ticks_Pract_5,11,5,42,127,88830360
381,1,Ticks_Pract_5,12,5,42,127,89330136
381,1,Ticks_Pract_5,13,1,38,69,89352332
381,1,Ticks_Pract_5,14,5,42,127,89829684
381,1,Ticks_Pract_5,15,1,38,31,89842000
381,1,Ticks_Pract_5,16,1,38,53,90305848
381,1,Ticks_Pract_5,17,5,42,127,90329444
381,1,Ticks_Pract_5,18,1,38,38,90815092
381,1,Ticks_Pract_5,19,5,42,127,90830036
381,1,Ticks_Pract_5,20,1,38,38,91302816
381,1,Ticks_Pract_5,21,5,42,127,91330176
381,1,Ticks_Pract_5,22,1,38,43,91791068
381,1,Ticks_Pract_5,23,5,42,127,91829552
381,1,Ticks_Pract_5,24,1,38,35,92291060
381,1,Ticks_Pract_5,25,5,42,127,92330292
381,1,Ticks_Pract_5,26,1,38,43,92775196
381,1,Ticks_Pract_5,27,5,42,127,92829984
381,1,Ticks_Pract_5,28,1,38,18,93313488
381,1,Ticks_Pract_5,29,5,42,127,93329976
381,1,Ticks_Pract_5,30,1,38,51,93795532
381,1,Ticks_Pract_5,31,5,42,127,93829376
381,1,Ticks_Pract_5,32,1,38,42,94293876
381,1,Ticks_Pract_5,33,5,42,127,94330116
381,1,Ticks_Pract_5,34,1,38,35,94793800
381,1,Ticks_Pract_5,35,5,42,127,94829884
381,1,Ticks_Pract_5,36,1,38,30,95293264
381,1,Ticks_Pract_5,37,5,42,127,95329580
381,1,Ticks_Pract_5,38,1,38,32,95796024
381,1,Ticks_Pract_5,39,5,42,127,95830248
381,1,Ticks_Pract_5,40,1,38,37,96301856
381,1,Ticks_Pract_5,41,5,42,127,96330164
381,1,Ticks_Pract_5,42,1,38,43,96778740
381,1,Ticks_Pract_5,43,5,42,127,96829788
381,1,Ticks_Pract_5,44,1,38,34,97297736
381,1,Ticks_Pract_5,45,5,42,127,97329780
381,1,Ticks_Pract_5,46,1,38,29,97790620
381,1,Ticks_Pract_5,47,5,42,127,97830148
381,1,Ticks_Pract_5,48,1,38,39,98282460
381,1,Ticks_Pract_5,49,5,42,127,98329916
381,1,Ticks_Pract_5,50,1,38,38,98789260
381,1,Ticks_Pract_5,51,5,42,127,98829612
381,1,Ticks_Pract_5,52,1,38,35,99289928
381,1,Ticks_Pract_5,53,5,42,127,99330652
381,1,Ticks_Pract_5,54,1,38,39,99771724
381,1,Ticks_Pract_5,55,5,42,127,99830052
381,1,Ticks_Pract_5,56,1,38,36,100272168
381,1,Ticks_Pract_5,57,5,42,127,100329744
381,1,Ticks_Pract_5,58,1,38,35,100760412
381,1,Ticks_Pract_5,59,5,42,127,100829736
381,1,Ticks_Pract_5,60,1,38,38,101263552
381,1,Ticks_Pract_5,61,5,42,127,101330252
381,1,Ticks_Pract_5,62,1,38,35,101765712
381,1,Ticks_Pract_5,63,5,42,127,101830024
381,1,Ticks_Pract_5,64,1,38,35,102264432
381,1,Ticks_Pract_5,65,5,42,127,102329840
381,1,Ticks_Pract_5,66,1,38,35,102778640
381,1,Ticks_Pract_5,67,5,42,127,102829460
381,1,Ticks_Pract_5,68,1,38,35,103269808
381,1,Ticks_Pract_5,69,5,42,127,103330128
381,1,Ticks_Pract_5,70,1,38,39,103759328
381,1,Ticks_Pract_5,71,5,42,127,103829748
381,1,Ticks_Pract_5,72,1,38,38,104269792
381,1,Ticks_Pract_5,73,5,42,127,104329520
381,1,Ticks_Pract_5,74,1,38,43,104777872
381,1,Ticks_Pract_5,75,5,42,127,104830408
381,1,Ticks_Pract_5,76,1,38,43,105283696
381,1,Ticks_Pract_5,77,5,42,127,105330104
381,1,Ticks_Pract_5,78,1,38,31,105775084
381,1,Ticks_Pract_5,0,9999,9999,9999,85827656
381,1,Ticks_Pract_5,1,9999,9999,9999,86327372
381,1,Ticks_Pract_5,2,9999,9999,9999,86827088
381,1,Ticks_Pract_5,3,9999,9999,9999,87327824
381,1,Ticks_Pract_5,4,9999,9999,9999,87827564
381,1,Ticks_Pract_5,5,9999,9999,9999,88327260
381,1,Ticks_Pract_5,6,9999,9999,9999,88828000
381,1,Ticks_Pract_5,7,9999,9999,9999,89327704
381,1,Ticks_Pract_5,8,9999,9999,9999,89827396
381,1,Ticks_Pract_5,9,9999,9999,9999,90327160
381,1,Ticks_Pract_5,10,9999,9999,9999,90827824
381,1,Ticks_Pract_5,11,9999,9999,9999,91327568
381,1,Ticks_Pract_5,12,9999,9999,9999,91827264
381,1,Ticks_Pract_5,13,9999,9999,9999,92328004
381,1,Ticks_Pract_5,14,9999,9999,9999,92827700
381,1,Ticks_Pract_5,15,9999,9999,9999,93327468
381,1,Ticks_Pract_5,16,9999,9999,9999,93827164
381,1,Ticks_Pract_5,17,9999,9999,9999,94327904
381,1,Ticks_Pract_5,18,9999,9999,9999,94827600
381,1,Ticks_Pract_5,19,9999,9999,9999,95327296
381,1,Ticks_Pract_5,20,9999,9999,9999,95828036
381,1,Ticks_Pract_5,21,9999,9999,9999,96327732
381,1,Ticks_Pract_5,22,9999,9999,9999,96827500
381,1,Ticks_Pract_5,23,9999,9999,9999,97327196
381,1,Ticks_Pract_5,24,9999,9999,9999,97827936
381,1,Ticks_Pract_5,25,9999,9999,9999,98327632
381,1,Ticks_Pract_5,26,9999,9999,9999,98827328
381,1,Ticks_Pract_5,27,9999,9999,9999,99328068
381,1,Ticks_Pract_5,28,9999,9999,9999,99827764
381,1,Ticks_Pract_5,29,9999,9999,9999,100327532
381,1,Ticks_Pract_5,30,9999,9999,9999,100827228
381,1,Ticks_Pract_5,31,9999,9999,9999,101327968
381,1,Ticks_Pract_5,32,9999,9999,9999,101827664
381,1,Ticks_Pract_5,33,9999,9999,9999,102327408
381,1,Ticks_Pract_5,34,9999,9999,9999,102827100
381,1,Ticks_Pract_5,35,9999,9999,9999,103327844
381,1,Ticks_Pract_5,36,9999,9999,9999,103827536
381,1,Ticks_Pract_5,37,9999,9999,9999,104327232
381,1,Ticks_Pract_5,38,9999,9999,9999,104827976
381,1,Ticks_Pract_5,39,9999,9999,9999,105327668
382,1,Ticks_Pract_5,0,5,42,127,126233048
382,1,Ticks_Pract_5,1,1,48,26,126694652
382,1,Ticks_Pract_5,2,5,42,127,126732608
382,1,Ticks_Pract_5,3,1,48,35,127215740
382,1,Ticks_Pract_5,4,5,42,127,127233796
382,1,Ticks_Pract_5,5,1,48,29,127701744
382,1,Ticks_Pract_5,6,5,42,127,127733120
382,1,Ticks_Pract_5,7,1,48,35,128215356
382,1,Ticks_Pract_5,8,5,42,127,128232744
382,1,Ticks_Pract_5,9,1,48,33,128721780
382,1,Ticks_Pract_5,10,5,42,127,128732660
382,1,Ticks_Pract_5,11,1,48,29,129219160
382,1,Ticks_Pract_5,12,5,42,127,129233328
382,1,Ticks_Pract_5,13,1,48,24,129713740
382,1,Ticks_Pract_5,14,5,42,127,129732948
382,1,Ticks_Pract_5,15,1,48,32,130216204
382,1,Ticks_Pract_5,16,5,42,127,130232692
382,1,Ticks_Pract_5,17,1,48,30,130712684
382,1,Ticks_Pract_5,18,5,42,127,130733656
382,1,Ticks_Pract_5,19,1,48,29,131209312
382,1,Ticks_Pract_5,20,5,42,127,131233276
382,1,Ticks_Pract_5,21,1,48,24,131725232
382,1,Ticks_Pract_5,22,5,42,127,131732748
382,1,Ticks_Pract_5,23,1,48,25,132208776
382,1,Ticks_Pract_5,24,5,42,127,132232516
382,1,Ticks_Pract_5,25,1,48,26,132693656
382,1,Ticks_Pract_5,26,5,42,127,132733408
382,1,Ticks_Pract_5,27,1,48,25,133206816
382,1,Ticks_Pract_5,28,5,42,127,133232952
382,1,Ticks_Pract_5,29,5,42,127,133732580
382,1,Ticks_Pract_5,30,1,48,19,133736600
382,1,Ticks_Pract_5,31,1,48,30,134208076
382,1,Ticks_Pract_5,32,5,42,127,134232712
382,1,Ticks_Pract_5,33,1,48,31,134714428
382,1,Ticks_Pract_5,34,5,42,127,134733380
382,1,Ticks_Pract_5,35,1,48,30,135212324
382,1,Ticks_Pract_5,36,5,42,127,135233000
382,1,Ticks_Pract_5,37,5,42,127,135732556
382,1,Ticks_Pract_5,38,1,48,24,135738444
382,1,Ticks_Pract_5,39,5,42,127,136233224
382,1,Ticks_Pract_5,40,1,48,21,136247260
382,1,Ticks_Pract_5,41,1,48,22,136727192
382,1,Ticks_Pract_5,42,5,42,127,136733280
382,1,Ticks_Pract_5,43,1,48,26,137207660
382,1,Ticks_Pract_5,44,5,42,127,137232752
382,1,Ticks_Pract_5,45,1,48,31,137704360
382,1,Ticks_Pract_5,46,5,42,127,137732524
382,1,Ticks_Pract_5,47,1,48,42,138227324
382,1,Ticks_Pract_5,48,5,42,127,138233188
382,1,Ticks_Pract_5,49,1,48,38,138729408
382,1,Ticks_Pract_5,50,5,42,127,138733032
382,1,Ticks_Pract_5,51,1,48,36,139230228
382,1,Ticks_Pract_5,52,5,42,127,139232728
382,1,Ticks_Pract_5,53,1,48,38,139711220
382,1,Ticks_Pract_5,54,5,42,127,139733320
382,1,Ticks_Pract_5,55,1,48,38,140195408
382,1,Ticks_Pract_5,56,5,42,127,140233016
382,1,Ticks_Pract_5,57,1,48,35,140707444
382,1,Ticks_Pract_5,58,5,42,127,140733372
382,1,Ticks_Pract_5,59,1,48,34,141206012
382,1,Ticks_Pract_5,60,5,42,127,141232376
382,1,Ticks_Pract_5,61,1,48,35,141710572
382,1,Ticks_Pract_5,62,5,42,127,141733192
382,1,Ticks_Pract_5,63,1,48,42,142225368
382,1,Ticks_Pract_5,64,5,42,127,142233036
382,1,Ticks_Pract_5,65,1,48,36,142708840
382,1,Ticks_Pract_5,66,5,42,127,142732880
382,1,Ticks_Pract_5,67,1,48,42,143210852
382,1,Ticks_Pract_5,68,5,42,127,143233324
382,1,Ticks_Pract_5,69,1,48,34,143706132
382,1,Ticks_Pract_5,70,5,42,127,143733092
382,1,Ticks_Pract_5,71,1,48,40,144206956
382,1,Ticks_Pract_5,72,5,42,127,144233088
382,1,Ticks_Pract_5,73,1,48,35,144708068
382,1,Ticks_Pract_5,74,5,42,127,144732780
382,1,Ticks_Pract_5,75,1,48,40,145207088
382,1,Ticks_Pract_5,76,5,42,127,145233224
382,1,Ticks_Pract_5,77,1,48,38,145695788
382,1,Ticks_Pract_5,78,5,42,127,145733068
382,1,Ticks_Pract_5,79,1,48,39,146190096
382,1,Ticks_Pract_5,0,9999,9999,9999,126230612
382,1,Ticks_Pract_5,1,9999,9999,9999,126730324
382,1,Ticks_Pract_5,2,9999,9999,9999,127231064
382,1,Ticks_Pract_5,3,9999,9999,9999,127730760
382,1,Ticks_Pract_5,4,9999,9999,9999,128230456
382,1,Ticks_Pract_5,5,9999,9999,9999,128730224
382,1,Ticks_Pract_5,6,9999,9999,9999,129230968
382,1,Ticks_Pract_5,7,9999,9999,9999,129730664
382,1,Ticks_Pract_5,8,9999,9999,9999,130230332
382,1,Ticks_Pract_5,9,9999,9999,9999,130731072
382,1,Ticks_Pract_5,10,9999,9999,9999,131230840
382,1,Ticks_Pract_5,11,9999,9999,9999,131730536
382,1,Ticks_Pract_5,12,9999,9999,9999,132230232
382,1,Ticks_Pract_5,13,9999,9999,9999,132730972
382,1,Ticks_Pract_5,14,9999,9999,9999,133230668
382,1,Ticks_Pract_5,15,9999,9999,9999,133730368
382,1,Ticks_Pract_5,16,9999,9999,9999,134230132
382,1,Ticks_Pract_5,17,9999,9999,9999,134730872
382,1,Ticks_Pract_5,18,9999,9999,9999,135230568
382,1,Ticks_Pract_5,19,9999,9999,9999,135730268
382,1,Ticks_Pract_5,20,9999,9999,9999,136231012
382,1,Ticks_Pract_5,21,9999,9999,9999,136730696
382,1,Ticks_Pract_5,22,9999,9999,9999,137230392
382,1,Ticks_Pract_5,23,9999,9999,9999,137730164
382,1,Ticks_Pract_5,24,9999,9999,9999,138230904
382,1,Ticks_Pract_5,25,9999,9999,9999,138730596
382,1,Ticks_Pract_5,26,9999,9999,9999,139230292
382,1,Ticks_Pract_5,27,9999,9999,9999,139731036
382,1,Ticks_Pract_5,28,9999,9999,9999,140230728
382,1,Ticks_Pract_5,29,9999,9999,9999,140730472
382,1,Ticks_Pract_5,30,9999,9999,9999,141230164
382,1,Ticks_Pract_5,31,9999,9999,9999,141730908
382,1,Ticks_Pract_5,32,9999,9999,9999,142230600
382,1,Ticks_Pract_5,33,9999,9999,9999,142730296
382,1,Ticks_Pract_5,34,9999,9999,9999,143231036
382,1,Ticks_Pract_5,35,9999,9999,9999,143730808
382,1,Ticks_Pract_5,36,9999,9999,9999,144230504
382,1,Ticks_Pract_5,37,9999,9999,9999,144730196
382,1,Ticks_Pract_5,38,9999,9999,9999,145230940
382,1,Ticks_Pract_5,39,9999,9999,9999,145730636
383,0,Ticks_Pract_8,0,5,42,127,157199660
383,0,Ticks_Pract_8,1,5,42,127,157999492
383,0,Ticks_Pract_8,2,5,42,127,158800444
383,0,Ticks_Pract_8,3,1,48,30,158852556
383,0,Ticks_Pract_8,4,1,48,29,159556376
383,0,Ticks_Pract_8,5,5,42,127,159600172
383,0,Ticks_Pract_8,6,1,48,31,160376680
383,0,Ticks_Pract_8,7,5,42,127,160399756
383,0,Ticks_Pract_8,8,1,48,26,161177016
383,0,Ticks_Pract_8,9,5,42,127,161199488
383,0,Ticks_Pract_8,10,5,42,127,162000376
383,0,Ticks_Pract_8,11,1,48,28,162015160
383,0,Ticks_Pract_8,12,1,48,34,162798684
383,0,Ticks_Pract_8,13,5,42,127,162800476
383,0,Ticks_Pract_8,14,5,42,127,163599620
383,0,Ticks_Pract_8,15,1,48,27,163622112
383,0,Ticks_Pract_8,16,1,48,30,164373280
383,0,Ticks_Pract_8,17,5,42,127,164399420
383,0,Ticks_Pract_8,18,1,48,32,165169800
383,0,Ticks_Pract_8,19,5,42,127,165200200
383,0,Ticks_Pract_8,20,1,48,24,165986364
383,0,Ticks_Pract_8,21,5,42,127,166000156
383,0,Ticks_Pract_8,22,1,48,29,166752884
383,0,Ticks_Pract_8,23,5,42,127,166799820
383,0,Ticks_Pract_8,24,1,48,35,167594580
383,0,Ticks_Pract_8,25,5,42,127,167599328
383,0,Ticks_Pract_8,26,1,48,37,168359756
383,0,Ticks_Pract_8,27,5,42,127,168400132
383,0,Ticks_Pract_8,28,1,48,35,169182100
383,0,Ticks_Pract_8,29,5,42,127,169200088
383,0,Ticks_Pract_8,30,1,48,40,169979296
383,0,Ticks_Pract_8,31,5,42,127,169999824
383,0,Ticks_Pract_8,32,1,48,36,170786280
383,0,Ticks_Pract_8,33,5,42,127,170799852
383,0,Ticks_Pract_8,34,1,48,35,171570236
383,0,Ticks_Pract_8,35,5,42,127,171600260
383,0,Ticks_Pract_8,36,1,48,34,172391736
383,0,Ticks_Pract_8,37,5,42,127,172400072
383,0,Ticks_Pract_8,38,5,42,127,173199812
383,0,Ticks_Pract_8,39,1,48,35,173221256
383,0,Ticks_Pract_8,40,1,48,37,173995168
383,0,Ticks_Pract_8,41,5,42,127,173999316
383,0,Ticks_Pract_8,42,1,48,33,174788796
383,0,Ticks_Pract_8,43,5,42,127,174800268
383,0,Ticks_Pract_8,44,1,48,33,175597052
383,0,Ticks_Pract_8,45,5,42,127,175600076
383,0,Ticks_Pract_8,46,1,48,36,176362752
383,0,Ticks_Pract_8,47,5,42,127,176399812
383,0,Ticks_Pract_8,48,1,48,34,177158820
383,0,Ticks_Pract_8,49,5,42,127,177199544
383,0,Ticks_Pract_8,50,1,48,34,177956312
383,0,Ticks_Pract_8,51,5,42,127,178000180
383,0,Ticks_Pract_8,52,1,48,36,178756948
383,0,Ticks_Pract_8,53,5,42,127,178800064
383,0,Ticks_Pract_8,54,1,48,41,179585920
383,0,Ticks_Pract_8,55,5,42,127,179599648
383,0,Ticks_Pract_8,56,5,42,127,180399460
383,0,Ticks_Pract_8,57,1,48,39,180429084
383,0,Ticks_Pract_8,0,9999,9999,9999,157197372
383,0,Ticks_Pract_8,1,9999,9999,9999,157997128
383,0,Ticks_Pract_8,2,9999,9999,9999,158797932
383,0,Ticks_Pract_8,3,9999,9999,9999,159597660
383,0,Ticks_Pract_8,4,9999,9999,9999,160397396
383,0,Ticks_Pract_8,5,9999,9999,9999,161197128
383,0,Ticks_Pract_8,6,9999,9999,9999,161997940
383,0,Ticks_Pract_8,7,9999,9999,9999,162797672
383,0,Ticks_Pract_8,8,9999,9999,9999,163597408
383,0,Ticks_Pract_8,9,9999,9999,9999,164397136
383,0,Ticks_Pract_8,10,9999,9999,9999,165197912
383,0,Ticks_Pract_8,11,9999,9999,9999,165997648
383,0,Ticks_Pract_8,12,9999,9999,9999,166797380
383,0,Ticks_Pract_8,13,9999,9999,9999,167597112
383,0,Ticks_Pract_8,14,9999,9999,9999,168397920
383,0,Ticks_Pract_8,15,9999,9999,9999,169197652
383,0,Ticks_Pract_8,16,9999,9999,9999,169997384
383,0,Ticks_Pract_8,17,9999,9999,9999,170797120
383,0,Ticks_Pract_8,18,9999,9999,9999,171597900
383,0,Ticks_Pract_8,19,9999,9999,9999,172397636
383,0,Ticks_Pract_8,20,9999,9999,9999,173197376
383,0,Ticks_Pract_8,21,9999,9999,9999,173997100
383,0,Ticks_Pract_8,22,9999,9999,9999,174797908
383,0,Ticks_Pract_8,23,9999,9999,9999,175597640
383,0,Ticks_Pract_8,24,9999,9999,9999,176397376
383,0,Ticks_Pract_8,25,9999,9999,9999,177197108
383,0,Ticks_Pract_8,26,9999,9999,9999,177997892
383,0,Ticks_Pract_8,27,9999,9999,9999,178797628
383,0,Ticks_Pract_8,28,9999,9999,9999,179597360
383,0,Ticks_Pract_8,29,9999,9999,9999,180397172
384,4,T1_SMS_5,0,5,42,127,279266980
384,4,T1_SMS_5,1,5,42,127,279767448
384,4,T1_SMS_5,2,1,48,32,280234852
384,4,T1_SMS_5,3,5,42,127,280267008
384,4,T1_SMS_5,4,1,48,32,280740756
384,4,T1_SMS_5,5,5,42,127,280766776
384,4,T1_SMS_5,6,1,48,41,281217864
384,4,T1_SMS_5,7,5,42,127,281266836
384,4,T1_SMS_5,8,1,48,39,281733108
384,4,T1_SMS_5,9,5,42,127,281767400
384,4,T1_SMS_5,10,1,48,34,282249036
384,4,T1_SMS_5,11,5,42,127,282266948
384,4,T1_SMS_5,12,1,48,38,282742668
384,4,T1_SMS_5,13,5,42,127,282766644
384,4,T1_SMS_5,14,5,42,127,283266420
384,4,T1_SMS_5,15,1,48,34,283270512
384,4,T1_SMS_5,16,1,48,40,283752684
384,4,T1_SMS_5,17,5,42,127,283767004
384,4,T1_SMS_5,18,5,42,127,284266932
384,4,T1_SMS_5,19,1,48,39,284271096
384,4,T1_SMS_5,20,1,48,46,284760152
384,4,T1_SMS_5,21,5,42,127,284766620
384,4,T1_SMS_5,22,1,48,44,285249600
384,4,T1_SMS_5,23,5,42,127,285267508
384,4,T1_SMS_5,24,1,48,40,285748620
384,4,T1_SMS_5,25,5,42,127,285766904
384,4,T1_SMS_5,26,5,42,127,286266756
384,4,T1_SMS_5,27,1,48,34,286283560
384,4,T1_SMS_5,28,1,48,36,286742472
384,4,T1_SMS_5,29,5,42,127,286766520
384,4,T1_SMS_5,30,5,42,127,287267416
384,4,T1_SMS_5,31,1,48,34,287279216
384,4,T1_SMS_5,32,1,48,42,287749348
384,4,T1_SMS_5,33,5,42,127,287766884
384,4,T1_SMS_5,34,1,48,43,288257344
384,4,T1_SMS_5,35,5,42,127,288266576
384,4,T1_SMS_5,36,1,48,45,288765432
384,4,T1_SMS_5,37,5,42,127,288767244
384,4,T1_SMS_5,38,1,48,43,289254788
384,4,T1_SMS_5,39,5,42,127,289267164
384,4,T1_SMS_5,40,1,48,45,289756800
384,4,T1_SMS_5,41,5,42,127,289766636
384,4,T1_SMS_5,42,1,48,44,290251860
384,4,T1_SMS_5,43,5,42,127,290266404
384,4,T1_SMS_5,44,5,42,127,290767380
384,4,T1_SMS_5,45,1,48,34,290778500
384,4,T1_SMS_5,46,1,48,39,291235068
384,4,T1_SMS_5,47,5,42,127,291267140
384,4,T1_SMS_5,48,1,48,31,291758104
384,4,T1_SMS_5,49,5,42,127,291766540
384,4,T1_SMS_5,50,1,48,43,292252036
384,4,T1_SMS_5,51,5,42,127,292267328
384,4,T1_SMS_5,52,1,48,40,292765516
384,4,T1_SMS_5,53,5,42,127,292767248
384,4,T1_SMS_5,54,1,48,43,293262648
384,4,T1_SMS_5,55,5,42,127,293266872
384,4,T1_SMS_5,56,1,48,43,293735936
384,4,T1_SMS_5,57,5,42,127,293766488
384,4,T1_SMS_5,58,1,48,34,294261660
384,4,T1_SMS_5,59,5,42,127,294267380
384,4,T1_SMS_5,60,1,48,35,294743332
384,4,T1_SMS_5,61,5,42,127,294767224
384,4,T1_SMS_5,62,5,42,127,295266780
384,4,T1_SMS_5,63,1,48,32,295290612
384,4,T1_SMS_5,64,1,48,41,295750424
384,4,T1_SMS_5,65,5,42,127,295767364
384,4,T1_SMS_5,66,1,48,41,296240916
384,4,T1_SMS_5,67,5,42,127,296267060
384,4,T1_SMS_5,68,5,42,127,296767132
384,4,T1_SMS_5,69,1,48,40,296770852
384,4,T1_SMS_5,70,5,42,127,297266532
384,4,T1_SMS_5,71,1,48,39,297281016
384,4,T1_SMS_5,72,1,48,36,297764536
384,4,T1_SMS_5,73,5,42,127,297767264
384,4,T1_SMS_5,74,1,48,37,298249120
384,4,T1_SMS_5,75,5,42,127,298266960
384,4,T1_SMS_5,76,1,48,38,298747176
384,4,T1_SMS_5,77,5,42,127,298766804
384,4,T1_SMS_5,78,1,48,41,299240060
384,4,T1_SMS_5,79,5,42,127,299266352
384,4,T1_SMS_5,80,1,48,32,299749856
384,4,T1_SMS_5,81,5,42,127,299767020
384,4,T1_SMS_5,82,1,48,36,300251568
384,4,T1_SMS_5,83,5,42,127,300266788
384,4,T1_SMS_5,84,1,48,34,300757400
384,4,T1_SMS_5,85,5,42,127,300766484
384,4,T1_SMS_5,86,1,48,40,301261132
384,4,T1_SMS_5,87,5,42,127,301267448
384,4,T1_SMS_5,88,1,48,37,301765180
384,4,T1_SMS_5,89,5,42,127,301766924
384,4,T1_SMS_5,90,1,48,39,302257608
384,4,T1_SMS_5,91,5,42,127,302266692
384,4,T1_SMS_5,92,1,48,39,302742240
384,4,T1_SMS_5,93,5,42,127,302766360
384,4,T1_SMS_5,94,1,48,35,303234976
384,4,T1_SMS_5,95,5,42,127,303267176
384,4,T1_SMS_5,96,1,48,34,303750008
384,4,T1_SMS_5,97,5,42,127,303766872
384,4,T1_SMS_5,98,1,48,36,304222772
384,4,T1_SMS_5,99,5,42,127,304266792
384,4,T1_SMS_5,100,1,48,39,304751044
384,4,T1_SMS_5,101,5,42,127,304767236
384,4,T1_SMS_5,102,1,48,36,305251860
384,4,T1_SMS_5,103,5,42,127,305267004
384,4,T1_SMS_5,104,1,48,33,305747292
384,4,T1_SMS_5,105,5,42,127,305766624
384,4,T1_SMS_5,106,1,48,31,306246232
384,4,T1_SMS_5,107,5,42,127,306266544
384,4,T1_SMS_5,108,1,48,36,306750192
384,4,T1_SMS_5,109,5,42,127,306767284
384,4,T1_SMS_5,110,1,48,41,307235004
384,4,T1_SMS_5,111,5,42,127,307266904
384,4,T1_SMS_5,112,1,48,36,307758860
384,4,T1_SMS_5,113,5,42,127,307766676
384,4,T1_SMS_5,114,1,48,38,308241124
384,4,T1_SMS_5,115,5,42,127,308267492
384,4,T1_SMS_5,116,1,48,40,308713524
384,4,T1_SMS_5,117,5,42,127,308767036
384,4,T1_SMS_5,118,1,48,37,309224136
384,4,T1_SMS_5,119,5,42,127,309266732
384,4,T1_SMS_5,120,1,48,38,309724208
384,4,T1_SMS_5,121,5,42,127,309766500
384,4,T1_SMS_5,122,1,48,30,310234892
384,4,T1_SMS_5,123,5,42,127,310267320
384,4,T1_SMS_5,124,1,48,35,310730104
384,4,T1_SMS_5,125,5,42,127,310767012
384,4,T1_SMS_5,126,1,48,42,311210844
384,4,T1_SMS_5,127,5,42,127,311266708
384,4,T1_SMS_5,128,1,48,37,311725724
384,4,T1_SMS_5,129,5,42,127,311767600
384,4,T1_SMS_5,130,1,48,36,312231924
384,4,T1_SMS_5,131,5,42,127,312267068
384,4,T1_SMS_5,132,1,48,39,312734164
384,4,T1_SMS_5,133,5,42,127,312766692
384,4,T1_SMS_5,134,1,48,38,313237904
384,4,T1_SMS_5,135,5,42,127,313266608
384,4,T1_SMS_5,136,1,48,38,313709920
384,4,T1_SMS_5,137,5,42,127,313767396
384,4,T1_SMS_5,138,1,48,41,314205200
384,4,T1_SMS_5,139,5,42,127,314267092
384,4,T1_SMS_5,140,1,48,39,314729804
384,4,T1_SMS_5,141,5,42,127,314766640
384,4,T1_SMS_5,142,1,48,38,315238624
384,4,T1_SMS_5,143,5,42,127,315266332
384,4,T1_SMS_5,144,1,48,38,315730312
384,4,T1_SMS_5,145,5,42,127,315767372
384,4,T1_SMS_5,146,1,48,38,316219464
384,4,T1_SMS_5,147,5,42,127,316266916
384,4,T1_SMS_5,148,1,48,32,316706736
384,4,T1_SMS_5,149,5,42,127,316766612
384,4,T1_SMS_5,150,1,48,36,317234260
384,4,T1_SMS_5,151,5,42,127,317267428
384,4,T1_SMS_5,152,1,48,34,317700296
384,4,T1_SMS_5,153,5,42,127,317766972
384,4,T1_SMS_5,154,1,48,38,318208888
384,4,T1_SMS_5,155,5,42,127,318266744
384,4,T1_SMS_5,156,1,48,33,318727056
384,4,T1_SMS_5,157,5,42,127,318766512
384,4,T1_SMS_5,158,1,48,32,319251136
384,4,T1_SMS_5,159,5,42,127,319267252
384,4,T1_SMS_5,160,1,48,33,319717172
384,4,T1_SMS_5,161,5,42,127,319767024
384,4,T1_SMS_5,162,1,48,34,320214768
384,4,T1_SMS_5,163,5,42,127,320266716
384,4,T1_SMS_5,164,1,48,40,320701532
384,4,T1_SMS_5,165,5,42,127,320767384
384,4,T1_SMS_5,166,1,48,38,321237576
384,4,T1_SMS_5,167,5,42,127,321266936
384,4,T1_SMS_5,168,1,48,37,321715728
384,4,T1_SMS_5,169,5,42,127,321766928
384,4,T1_SMS_5,170,1,48,33,322239212
384,4,T1_SMS_5,171,5,42,127,322266476
384,4,T1_SMS_5,172,1,48,32,322739656
384,4,T1_SMS_5,173,5,42,127,322767144
384,4,T1_SMS_5,174,1,48,36,323209108
384,4,T1_SMS_5,175,5,42,127,323267136
384,4,T1_SMS_5,176,1,48,31,323757048
384,4,T1_SMS_5,177,5,42,127,323766532
384,4,T1_SMS_5,178,1,48,36,324212012
384,4,T1_SMS_5,179,5,42,127,324267324
384,4,T1_SMS_5,180,1,48,29,324748360
384,4,T1_SMS_5,181,5,42,127,324767092
384,4,T1_SMS_5,182,1,48,37,325219180
384,4,T1_SMS_5,183,5,42,127,325267012
384,4,T1_SMS_5,184,1,48,16,325758000
384,4,T1_SMS_5,185,5,42,127,325766484
384,4,T1_SMS_5,186,1,48,38,326188728
384,4,T1_SMS_5,187,5,42,127,326267152
384,4,T1_SMS_5,188,1,48,28,326738988
384,4,T1_SMS_5,189,5,42,127,326766992
384,4,T1_SMS_5,190,1,48,32,327213668
384,4,T1_SMS_5,191,5,42,127,327266812
384,4,T1_SMS_5,192,1,48,33,327710828
384,4,T1_SMS_5,193,5,42,127,327767256
384,4,T1_SMS_5,194,1,48,22,328227644
384,4,T1_SMS_5,195,5,42,127,328267024
384,4,T1_SMS_5,196,1,48,28,328713052
384,4,T1_SMS_5,197,5,42,127,328766868
384,4,T1_SMS_5,198,1,48,32,329207144
384,4,T1_SMS_5,199,5,42,127,329266712
384,4,T1_SMS_5,200,1,48,32,329732192
384,4,T1_SMS_5,201,5,42,127,329767308
384,4,T1_SMS_5,202,1,48,35,330219844
384,4,T1_SMS_5,203,5,42,127,330266852
384,4,T1_SMS_5,204,1,48,35,330734948
384,4,T1_SMS_5,205,5,42,127,330766624
384,4,T1_SMS_5,206,1,48,33,331240104
384,4,T1_SMS_5,207,5,42,127,331266616
384,4,T1_SMS_5,208,1,48,39,331758948
384,4,T1_SMS_5,209,5,42,127,331767136
384,4,T1_SMS_5,210,1,48,31,332247128
384,4,T1_SMS_5,211,5,42,127,332266832
384,4,T1_SMS_5,212,1,48,29,332736416
384,4,T1_SMS_5,213,5,42,127,332766748
384,4,T1_SMS_5,214,1,48,26,333237316
384,4,T1_SMS_5,215,5,42,127,333267268
384,4,T1_SMS_5,216,1,48,24,333724412
384,4,T1_SMS_5,217,5,42,127,333766960
384,4,T1_SMS_5,218,1,48,28,334216028
384,4,T1_SMS_5,219,5,42,127,334266656
384,4,T1_SMS_5,220,1,48,24,334729112
384,4,T1_SMS_5,221,5,42,127,334766548
384,4,T1_SMS_5,222,1,48,26,335244788
384,4,T1_SMS_5,223,5,42,127,335267192
384,4,T1_SMS_5,224,1,48,35,335726612
384,4,T1_SMS_5,225,5,42,127,335766960
384,4,T1_SMS_5,226,1,48,31,336234304
384,4,T1_SMS_5,227,5,42,127,336266580
384,4,T1_SMS_5,228,1,48,29,336733332
384,4,T1_SMS_5,229,5,42,127,336767472
384,4,T1_SMS_5,230,1,48,28,337236984
384,4,T1_SMS_5,231,5,42,127,337267020
384,4,T1_SMS_5,232,1,48,29,337738184
384,4,T1_SMS_5,233,5,42,127,337766640
384,4,T1_SMS_5,234,1,48,29,338245880
384,4,T1_SMS_5,235,5,42,127,338266336
384,4,T1_SMS_5,236,1,48,31,338756564
384,4,T1_SMS_5,237,5,42,127,338767376
384,4,T1_SMS_5,238,1,48,31,339222304
384,4,T1_SMS_5,239,5,42,127,339266920
384,4,T1_SMS_5,240,1,48,32,339720656
384,4,T1_SMS_5,241,5,42,127,339766540
384,4,T1_SMS_5,242,1,48,34,340236956
384,4,T1_SMS_5,243,5,42,127,340267356
384,4,T1_SMS_5,244,1,48,30,340729764
384,4,T1_SMS_5,245,5,42,127,340767500
384,4,T1_SMS_5,246,1,48,27,341236872
384,4,T1_SMS_5,247,5,42,127,341266748
384,4,T1_SMS_5,248,1,48,28,341743292
384,4,T1_SMS_5,249,5,42,127,341766368
384,4,T1_SMS_5,250,1,48,29,342242912
384,4,T1_SMS_5,251,5,42,127,342267408
384,4,T1_SMS_5,252,1,48,28,342735796
384,4,T1_SMS_5,253,5,42,127,342766952
384,4,T1_SMS_5,254,1,48,32,343235720
384,4,T1_SMS_5,255,5,42,127,343266648
384,4,T1_SMS_5,256,1,48,28,343751724
384,4,T1_SMS_5,257,5,42,127,343767388
384,4,T1_SMS_5,258,1,48,31,344257176
384,4,T1_SMS_5,0,9999,9999,9999,279264316
384,4,T1_SMS_5,1,9999,9999,9999,279765080
384,4,T1_SMS_5,2,9999,9999,9999,280264792
384,4,T1_SMS_5,3,9999,9999,9999,280764484
384,4,T1_SMS_5,4,9999,9999,9999,281264228
384,4,T1_SMS_5,5,9999,9999,9999,281764964
384,4,T1_SMS_5,6,9999,9999,9999,282264660
384,4,T1_SMS_5,7,9999,9999,9999,282764352
384,4,T1_SMS_5,8,9999,9999,9999,283264056
384,4,T1_SMS_5,9,9999,9999,9999,283764792
384,4,T1_SMS_5,10,9999,9999,9999,284264564
384,4,T1_SMS_5,11,9999,9999,9999,284764252
384,4,T1_SMS_5,12,9999,9999,9999,285264996
384,4,T1_SMS_5,13,9999,9999,9999,285764688
384,4,T1_SMS_5,14,9999,9999,9999,286264392
384,4,T1_SMS_5,15,9999,9999,9999,286764080
384,4,T1_SMS_5,16,9999,9999,9999,287264828
384,4,T1_SMS_5,17,9999,9999,9999,287764592
384,4,T1_SMS_5,18,9999,9999,9999,288264288
384,4,T1_SMS_5,19,9999,9999,9999,288764980
384,4,T1_SMS_5,20,9999,9999,9999,289264724
384,4,T1_SMS_5,21,9999,9999,9999,289764420
384,4,T1_SMS_5,22,9999,9999,9999,290264116
384,4,T1_SMS_5,23,9999,9999,9999,290764864
384,4,T1_SMS_5,24,9999,9999,9999,291264628
384,4,T1_SMS_5,25,9999,9999,9999,291764320
384,4,T1_SMS_5,26,9999,9999,9999,292265040
384,4,T1_SMS_5,27,9999,9999,9999,292764744
384,4,T1_SMS_5,28,9999,9999,9999,293264432
384,4,T1_SMS_5,29,9999,9999,9999,293764200
384,4,T1_SMS_5,30,9999,9999,9999,294264944
384,4,T1_SMS_5,31,9999,9999,9999,294764636
384,4,T1_SMS_5,32,9999,9999,9999,295264340
384,4,T1_SMS_5,33,9999,9999,9999,295765076
384,4,T1_SMS_5,34,9999,9999,9999,296264768
384,4,T1_SMS_5,35,9999,9999,9999,296764472
384,4,T1_SMS_5,36,9999,9999,9999,297264240
384,4,T1_SMS_5,37,9999,9999,9999,297764976
384,4,T1_SMS_5,38,9999,9999,9999,298264672
384,4,T1_SMS_5,39,9999,9999,9999,298764364
384,4,T1_SMS_5,40,9999,9999,9999,299264064
384,4,T1_SMS_5,41,9999,9999,9999,299764804
384,4,T1_SMS_5,42,9999,9999,9999,300264500
384,4,T1_SMS_5,43,9999,9999,9999,300764268
384,4,T1_SMS_5,44,9999,9999,9999,301265012
384,4,T1_SMS_5,45,9999,9999,9999,301764728
384,4,T1_SMS_5,46,9999,9999,9999,302264404
384,4,T1_SMS_5,47,9999,9999,9999,302764144
384,4,T1_SMS_5,48,9999,9999,9999,303264888
384,4,T1_SMS_5,49,9999,9999,9999,303764584
384,4,T1_SMS_5,50,9999,9999,9999,304264276
384,4,T1_SMS_5,51,9999,9999,9999,304765020
384,4,T1_SMS_5,52,9999,9999,9999,305264716
384,4,T1_SMS_5,53,9999,9999,9999,305764408
384,4,T1_SMS_5,54,9999,9999,9999,306264176
384,4,T1_SMS_5,55,9999,9999,9999,306764916
384,4,T1_SMS_5,56,9999,9999,9999,307264616
384,4,T1_SMS_5,57,9999,9999,9999,307764308
384,4,T1_SMS_5,58,9999,9999,9999,308265052
384,4,T1_SMS_5,59,9999,9999,9999,308764748
384,4,T1_SMS_5,60,9999,9999,9999,309264444
384,4,T1_SMS_5,61,9999,9999,9999,309764212
384,4,T1_SMS_5,62,9999,9999,9999,310264880
384,4,T1_SMS_5,63,9999,9999,9999,310764648
384,4,T1_SMS_5,64,9999,9999,9999,311264344
384,4,T1_SMS_5,65,9999,9999,9999,311765084
384,4,T1_SMS_5,66,9999,9999,9999,312264780
384,4,T1_SMS_5,67,9999,9999,9999,312764476
384,4,T1_SMS_5,68,9999,9999,9999,313264244
384,4,T1_SMS_5,69,9999,9999,9999,313764960
384,4,T1_SMS_5,70,9999,9999,9999,314264652
384,4,T1_SMS_5,71,9999,9999,9999,314764348
384,4,T1_SMS_5,72,9999,9999,9999,315264116
384,4,T1_SMS_5,73,9999,9999,9999,315764784
384,4,T1_SMS_5,74,9999,9999,9999,316264552
384,4,T1_SMS_5,75,9999,9999,9999,316764248
384,4,T1_SMS_5,76,9999,9999,9999,317264988
384,4,T1_SMS_5,77,9999,9999,9999,317764684
384,4,T1_SMS_5,78,9999,9999,9999,318264380
384,4,T1_SMS_5,79,9999,9999,9999,318764148
384,4,T1_SMS_5,80,9999,9999,9999,319264888
384,4,T1_SMS_5,81,9999,9999,9999,319764584
384,4,T1_SMS_5,82,9999,9999,9999,320264280
384,4,T1_SMS_5,83,9999,9999,9999,320765020
384,4,T1_SMS_5,84,9999,9999,9999,321264720
384,4,T1_SMS_5,85,9999,9999,9999,321764416
384,4,T1_SMS_5,86,9999,9999,9999,322264184
384,4,T1_SMS_5,87,9999,9999,9999,322764852
384,4,T1_SMS_5,88,9999,9999,9999,323264624
384,4,T1_SMS_5,89,9999,9999,9999,323764316
384,4,T1_SMS_5,90,9999,9999,9999,324265032
384,4,T1_SMS_5,91,9999,9999,9999,324764728
384,4,T1_SMS_5,92,9999,9999,9999,325264500
384,4,T1_SMS_5,93,9999,9999,9999,325764192
384,4,T1_SMS_5,94,9999,9999,9999,326264936
384,4,T1_SMS_5,95,9999,9999,9999,326764628
384,4,T1_SMS_5,96,9999,9999,9999,327264372
384,4,T1_SMS_5,97,9999,9999,9999,327765040
384,4,T1_SMS_5,98,9999,9999,9999,328264808
384,4,T1_SMS_5,99,9999,9999,9999,328764504
384,4,T1_SMS_5,100,9999,9999,9999,329264200
384,4,T1_SMS_5,101,9999,9999,9999,329764944
384,4,T1_SMS_5,102,9999,9999,9999,330264636
384,4,T1_SMS_5,103,9999,9999,9999,330764408
384,4,T1_SMS_5,104,9999,9999,9999,331264104
384,4,T1_SMS_5,105,9999,9999,9999,331764844
384,4,T1_SMS_5,106,9999,9999,9999,332264540
384,4,T1_SMS_5,107,9999,9999,9999,332764236
384,4,T1_SMS_5,108,9999,9999,9999,333264976
384,4,T1_SMS_5,109,9999,9999,9999,333764672
384,4,T1_SMS_5,110,9999,9999,9999,334264440
384,4,T1_SMS_5,111,9999,9999,9999,334764112
384,4,T1_SMS_5,112,9999,9999,9999,335264828
384,4,T1_SMS_5,113,9999,9999,9999,335764596
384,4,T1_SMS_5,114,9999,9999,9999,336264292
384,4,T1_SMS_5,115,9999,9999,9999,336765032
384,4,T1_SMS_5,116,9999,9999,9999,337264728
384,4,T1_SMS_5,117,9999,9999,9999,337764424
384,4,T1_SMS_5,118,9999,9999,9999,338264120
384,4,T1_SMS_5,119,9999,9999,9999,338764860
384,4,T1_SMS_5,120,9999,9999,9999,339264632
384,4,T1_SMS_5,121,9999,9999,9999,339764324
384,4,T1_SMS_5,122,9999,9999,9999,340265068
384,4,T1_SMS_5,123,9999,9999,9999,340764764
384,4,T1_SMS_5,124,9999,9999,9999,341264460
384,4,T1_SMS_5,125,9999,9999,9999,341764152
384,4,T1_SMS_5,126,9999,9999,9999,342264896
384,4,T1_SMS_5,127,9999,9999,9999,342764664
384,4,T1_SMS_5,128,9999,9999,9999,343264356
384,4,T1_SMS_5,129,9999,9999,9999,343765100
385,2,T1_SMS_8,0,5,42,127,401237420
385,2,T1_SMS_8,1,5,42,127,402036952
385,2,T1_SMS_8,2,1,48,29,402200612
385,2,T1_SMS_8,3,5,42,127,402836908
385,2,T1_SMS_8,4,1,48,25,402873860
385,2,T1_SMS_8,5,5,42,127,403636444
385,2,T1_SMS_8,6,1,48,31,403708228
385,2,T1_SMS_8,7,5,42,127,404437376
385,2,T1_SMS_8,8,1,48,29,404476320
385,2,T1_SMS_8,9,5,42,127,405237032
385,2,T1_SMS_8,10,1,48,28,405248824
385,2,T1_SMS_8,11,1,48,37,406015852
385,2,T1_SMS_8,12,5,42,127,406036836
385,2,T1_SMS_8,13,1,48,37,406792104
385,2,T1_SMS_8,14,5,42,127,406836792
385,2,T1_SMS_8,15,1,48,31,407608068
385,2,T1_SMS_8,16,5,42,127,407637796
385,2,T1_SMS_8,17,5,42,127,408437092
385,2,T1_SMS_8,18,1,48,31,408438504
385,2,T1_SMS_8,19,5,42,127,409236752
385,2,T1_SMS_8,20,1,48,37,409241812
385,2,T1_SMS_8,21,5,42,127,410036804
385,2,T1_SMS_8,22,1,48,36,410053688
385,2,T1_SMS_8,23,5,42,127,410837364
385,2,T1_SMS_8,24,1,48,38,410867408
385,2,T1_SMS_8,25,1,48,30,411632940
385,2,T1_SMS_8,26,5,42,127,411637088
385,2,T1_SMS_8,27,1,48,39,412418912
385,2,T1_SMS_8,28,5,42,127,412436748
385,2,T1_SMS_8,29,1,48,39,413217224
385,2,T1_SMS_8,30,5,42,127,413236556
385,2,T1_SMS_8,31,1,48,42,414019724
385,2,T1_SMS_8,32,5,42,127,414037412
385,2,T1_SMS_8,33,1,48,38,414794324
385,2,T1_SMS_8,34,5,42,127,414837068
385,2,T1_SMS_8,35,1,48,32,415610364
385,2,T1_SMS_8,36,5,42,127,415636800
385,2,T1_SMS_8,37,5,42,127,416436568
385,2,T1_SMS_8,38,1,48,38,416442004
385,2,T1_SMS_8,39,5,42,127,417237348
385,2,T1_SMS_8,40,1,48,37,417258868
385,2,T1_SMS_8,41,1,48,38,418008396
385,2,T1_SMS_8,42,5,42,127,418037076
385,2,T1_SMS_8,43,1,48,34,418813808
385,2,T1_SMS_8,44,5,42,127,418836808
385,2,T1_SMS_8,45,1,48,38,419635264
385,2,T1_SMS_8,46,5,42,127,419637136
385,2,T1_SMS_8,47,5,42,127,420437328
385,2,T1_SMS_8,48,1,48,37,420442088
385,2,T1_SMS_8,49,5,42,127,421237284
385,2,T1_SMS_8,50,1,48,35,421239956
385,2,T1_SMS_8,51,1,48,38,422021568
385,2,T1_SMS_8,52,5,42,127,422036712
385,2,T1_SMS_8,53,1,48,36,422819132
385,2,T1_SMS_8,54,5,42,127,422836544
385,2,T1_SMS_8,55,1,48,32,423582212
385,2,T1_SMS_8,56,5,42,127,423637324
385,2,T1_SMS_8,57,1,48,34,424355992
385,2,T1_SMS_8,58,5,42,127,424437132
385,2,T1_SMS_8,59,1,48,48,425191276
385,2,T1_SMS_8,60,5,42,127,425237012
385,2,T1_SMS_8,61,5,42,127,426036604
385,2,T1_SMS_8,62,1,48,46,426044436
385,2,T1_SMS_8,63,5,42,127,426837312
385,2,T1_SMS_8,64,1,48,43,426838648
385,2,T1_SMS_8,65,5,42,127,427637116
385,2,T1_SMS_8,66,1,48,41,427639488
385,2,T1_SMS_8,67,1,48,45,428418632
385,2,T1_SMS_8,68,5,42,127,428437068
385,2,T1_SMS_8,69,1,48,37,429227740
385,2,T1_SMS_8,70,5,42,127,429236604
385,2,T1_SMS_8,71,1,48,41,430028824
385,2,T1_SMS_8,72,5,42,127,430037308
385,2,T1_SMS_8,73,1,48,35,430801252
385,2,T1_SMS_8,74,5,42,127,430837040
385,2,T1_SMS_8,75,1,48,46,431620656
385,2,T1_SMS_8,76,5,42,127,431636848
385,2,T1_SMS_8,77,1,48,43,432351200
385,2,T1_SMS_8,78,1,48,26,432408776
385,2,T1_SMS_8,79,5,42,127,432436784
385,2,T1_SMS_8,80,1,48,36,433180532
385,2,T1_SMS_8,81,5,42,127,433237340
385,2,T1_SMS_8,82,1,48,22,433250468
385,2,T1_SMS_8,83,1,48,34,433972164
385,2,T1_SMS_8,84,1,48,22,434033476
385,2,T1_SMS_8,85,5,42,127,434037104
385,2,T1_SMS_8,86,1,48,37,434821992
385,2,T1_SMS_8,87,5,42,127,434836836
385,2,T1_SMS_8,88,1,48,25,434871152
385,2,T1_SMS_8,89,5,42,127,435636804
385,2,T1_SMS_8,90,1,48,40,435664080
385,2,T1_SMS_8,91,1,48,46,436406432
385,2,T1_SMS_8,92,5,42,127,436437280
385,2,T1_SMS_8,93,1,48,35,437212520
385,2,T1_SMS_8,94,5,42,127,437237088
385,2,T1_SMS_8,95,1,48,36,438027292
385,2,T1_SMS_8,96,5,42,127,438036820
385,2,T1_SMS_8,97,1,48,36,438799120
385,2,T1_SMS_8,98,5,42,127,438836556
385,2,T1_SMS_8,99,1,48,40,439597956
385,2,T1_SMS_8,100,5,42,127,439637484
385,2,T1_SMS_8,101,1,48,43,440397468
385,2,T1_SMS_8,102,5,42,127,440437068
385,2,T1_SMS_8,103,1,48,43,441211112
385,2,T1_SMS_8,104,5,42,127,441236804
385,2,T1_SMS_8,105,5,42,127,442036716
385,2,T1_SMS_8,106,1,48,30,442038356
385,2,T1_SMS_8,107,5,42,127,442837348
385,2,T1_SMS_8,108,1,48,39,442844728
385,2,T1_SMS_8,109,5,42,127,443637304
385,2,T1_SMS_8,110,1,48,29,443657256
385,2,T1_SMS_8,111,1,48,35,444428024
385,2,T1_SMS_8,112,5,42,127,444436808
385,2,T1_SMS_8,113,1,48,38,445174876
385,2,T1_SMS_8,114,5,42,127,445236544
385,2,T1_SMS_8,115,1,48,40,445994652
385,2,T1_SMS_8,116,5,42,127,446037252
385,2,T1_SMS_8,117,1,48,35,446818176
385,2,T1_SMS_8,118,5,42,127,446837060
385,2,T1_SMS_8,119,1,48,29,447611252
385,2,T1_SMS_8,120,5,42,127,447636792
385,2,T1_SMS_8,121,1,48,33,448424696
385,2,T1_SMS_8,122,5,42,127,448436552
385,2,T1_SMS_8,123,5,42,127,449237264
385,2,T1_SMS_8,124,1,48,34,449239200
385,2,T1_SMS_8,125,1,48,30,450014664
385,2,T1_SMS_8,126,5,42,127,450037216
385,2,T1_SMS_8,127,1,48,29,450836124
385,2,T1_SMS_8,128,5,42,127,450837920
385,2,T1_SMS_8,129,1,48,30,451634564
385,2,T1_SMS_8,130,5,42,127,451636532
385,2,T1_SMS_8,131,5,42,127,452437392
385,2,T1_SMS_8,132,1,48,41,452441632
385,2,T1_SMS_8,133,5,42,127,453237052
385,2,T1_SMS_8,134,1,48,27,453274052
385,2,T1_SMS_8,135,1,48,28,454011756
385,2,T1_SMS_8,136,5,42,127,454037000
385,2,T1_SMS_8,137,1,48,26,454792116
385,2,T1_SMS_8,138,5,42,127,454836536
385,2,T1_SMS_8,139,1,48,26,455596220
385,2,T1_SMS_8,140,5,42,127,455637240
385,2,T1_SMS_8,141,1,48,28,456393780
385,2,T1_SMS_8,142,5,42,127,456437048
385,2,T1_SMS_8,143,5,42,127,457236936
385,2,T1_SMS_8,144,1,48,34,457248432
385,2,T1_SMS_8,145,1,48,29,458025780
385,2,T1_SMS_8,146,5,42,127,458036516
385,2,T1_SMS_8,147,1,48,30,458832844
385,2,T1_SMS_8,148,5,42,127,458837296
385,2,T1_SMS_8,149,1,48,21,459609096
385,2,T1_SMS_8,150,5,42,127,459637028
385,2,T1_SMS_8,151,1,48,35,460417284
385,2,T1_SMS_8,152,5,42,127,460436764
385,2,T1_SMS_8,153,1,48,35,461219032
385,2,T1_SMS_8,154,5,42,127,461236744
385,2,T1_SMS_8,155,1,48,39,462006072
385,2,T1_SMS_8,156,5,42,127,462037372
385,2,T1_SMS_8,157,1,48,29,462808728
385,2,T1_SMS_8,158,5,42,127,462837108
385,2,T1_SMS_8,159,1,48,26,463607040
385,2,T1_SMS_8,160,5,42,127,463636844
385,2,T1_SMS_8,161,1,48,27,464409692
385,2,T1_SMS_8,162,5,42,127,464436800
385,2,T1_SMS_8,163,1,48,32,465224080
385,2,T1_SMS_8,164,5,42,127,465237356
385,2,T1_SMS_8,165,5,42,127,466037096
385,2,T1_SMS_8,166,1,48,27,466045152
385,2,T1_SMS_8,167,1,48,27,466824968
385,2,T1_SMS_8,168,5,42,127,466836824
385,2,T1_SMS_8,169,1,48,27,467566356
385,2,T1_SMS_8,170,5,42,127,467636580
385,2,T1_SMS_8,171,1,48,27,468430148
385,2,T1_SMS_8,172,5,42,127,468437436
385,2,T1_SMS_8,173,5,42,127,469236952
385,2,T1_SMS_8,174,1,48,28,469244776
385,2,T1_SMS_8,175,5,42,127,470036912
385,2,T1_SMS_8,176,1,48,21,470074880
385,2,T1_SMS_8,177,5,42,127,470836720
385,2,T1_SMS_8,178,1,48,24,470850908
385,2,T1_SMS_8,179,5,42,127,471637352
385,2,T1_SMS_8,180,1,48,25,471645776
385,2,T1_SMS_8,181,5,42,127,472437308
385,2,T1_SMS_8,182,1,48,30,472447236
385,2,T1_SMS_8,183,5,42,127,473236816
385,2,T1_SMS_8,184,1,48,25,473257536
385,2,T1_SMS_8,185,1,48,26,474024488
385,2,T1_SMS_8,186,5,42,127,474036716
385,2,T1_SMS_8,187,1,48,26,474826848
385,2,T1_SMS_8,188,5,42,127,474837348
385,2,T1_SMS_8,189,5,42,127,475637236
385,2,T1_SMS_8,190,1,48,26,475639680
385,2,T1_SMS_8,191,1,48,26,476432444
385,2,T1_SMS_8,192,5,42,127,476436740
385,2,T1_SMS_8,193,5,42,127,477236552
385,2,T1_SMS_8,194,1,48,25,477258740
385,2,T1_SMS_8,195,5,42,127,478037336
385,2,T1_SMS_8,196,1,48,28,478050924
385,2,T1_SMS_8,197,1,48,24,478826856
385,2,T1_SMS_8,198,5,42,127,478837060
385,2,T1_SMS_8,199,5,42,127,479637024
385,2,T1_SMS_8,200,1,48,23,479646496
385,2,T1_SMS_8,201,1,48,26,480431284
385,2,T1_SMS_8,202,5,42,127,480436628
385,2,T1_SMS_8,203,1,48,26,481223908
385,2,T1_SMS_8,204,5,42,127,481237332
385,2,T1_SMS_8,205,1,48,26,482028056
385,2,T1_SMS_8,206,5,42,127,482037064
385,2,T1_SMS_8,207,1,48,29,482787772
385,2,T1_SMS_8,208,5,42,127,482837020
385,2,T1_SMS_8,209,5,42,127,483636536
385,2,T1_SMS_8,210,1,48,23,483685352
385,2,T1_SMS_8,211,5,42,127,484437468
385,2,T1_SMS_8,212,1,48,24,484448064
385,2,T1_SMS_8,213,5,42,127,485237048
385,2,T1_SMS_8,214,1,48,23,485250340
385,2,T1_SMS_8,215,5,42,127,486036784
385,2,T1_SMS_8,216,1,48,23,486049252
385,2,T1_SMS_8,217,5,42,127,486836692
385,2,T1_SMS_8,218,1,48,26,486844892
385,2,T1_SMS_8,219,5,42,127,487637248
385,2,T1_SMS_8,220,1,48,19,487662952
385,2,T1_SMS_8,221,1,48,29,488416896
385,2,T1_SMS_8,222,5,42,127,488437124
385,2,T1_SMS_8,223,5,42,127,489236792
385,2,T1_SMS_8,224,1,48,29,489273420
385,2,T1_SMS_8,225,5,42,127,490036824
385,2,T1_SMS_8,226,1,48,34,490053928
385,2,T1_SMS_8,227,5,42,127,490837380
385,2,T1_SMS_8,228,1,48,29,490886576
385,2,T1_SMS_8,229,5,42,127,491637040
385,2,T1_SMS_8,230,1,48,35,491654444
385,2,T1_SMS_8,231,5,42,127,492436772
385,2,T1_SMS_8,232,1,48,25,492468640
385,2,T1_SMS_8,233,5,42,127,493236752
385,2,T1_SMS_8,234,1,48,32,493238016
385,2,T1_SMS_8,235,5,42,127,494037384
385,2,T1_SMS_8,236,1,48,36,494039324
385,2,T1_SMS_8,237,1,48,40,494817856
385,2,T1_SMS_8,238,5,42,127,494837040
385,2,T1_SMS_8,239,1,48,36,495617516
385,2,T1_SMS_8,240,5,42,127,495636848
385,2,T1_SMS_8,241,5,42,127,496436660
385,2,T1_SMS_8,242,1,48,27,496453016
385,2,T1_SMS_8,243,1,48,27,497219372
385,2,T1_SMS_8,0,9999,9999,9999,401235052
385,2,T1_SMS_8,1,9999,9999,9999,402034732
385,2,T1_SMS_8,2,9999,9999,9999,402834544
385,2,T1_SMS_8,3,9999,9999,9999,403634228
385,2,T1_SMS_8,4,9999,9999,9999,404435008
385,2,T1_SMS_8,5,9999,9999,9999,405234740
385,2,T1_SMS_8,6,9999,9999,9999,406034544
385,2,T1_SMS_8,7,9999,9999,9999,406834280
385,2,T1_SMS_8,8,9999,9999,9999,407635060
385,2,T1_SMS_8,9,9999,9999,9999,408434800
385,2,T1_SMS_8,10,9999,9999,9999,409234532
385,2,T1_SMS_8,11,9999,9999,9999,410034292
385,2,T1_SMS_8,12,9999,9999,9999,410834996
385,2,T1_SMS_8,13,9999,9999,9999,411634800
385,2,T1_SMS_8,14,9999,9999,9999,412434532
385,2,T1_SMS_8,15,9999,9999,9999,413234264
385,2,T1_SMS_8,16,9999,9999,9999,414035044
385,2,T1_SMS_8,17,9999,9999,9999,414834776
385,2,T1_SMS_8,18,9999,9999,9999,415634512
385,2,T1_SMS_8,19,9999,9999,9999,416434276
385,2,T1_SMS_8,20,9999,9999,9999,417235056
385,2,T1_SMS_8,21,9999,9999,9999,418034784
385,2,T1_SMS_8,22,9999,9999,9999,418834516
385,2,T1_SMS_8,23,9999,9999,9999,419634256
385,2,T1_SMS_8,24,9999,9999,9999,420435036
385,2,T1_SMS_8,25,9999,9999,9999,421234768
385,2,T1_SMS_8,26,9999,9999,9999,422034496
385,2,T1_SMS_8,27,9999,9999,9999,422834252
385,2,T1_SMS_8,28,9999,9999,9999,423635032
385,2,T1_SMS_8,29,9999,9999,9999,424434768
385,2,T1_SMS_8,30,9999,9999,9999,425234500
385,2,T1_SMS_8,31,9999,9999,9999,426034240
385,2,T1_SMS_8,32,9999,9999,9999,426835020
385,2,T1_SMS_8,33,9999,9999,9999,427634752
385,2,T1_SMS_8,34,9999,9999,9999,428434480
385,2,T1_SMS_8,35,9999,9999,9999,429234236
385,2,T1_SMS_8,36,9999,9999,9999,430035016
385,2,T1_SMS_8,37,9999,9999,9999,430834748
385,2,T1_SMS_8,38,9999,9999,9999,431634484
385,2,T1_SMS_8,39,9999,9999,9999,432434268
385,2,T1_SMS_8,40,9999,9999,9999,433235048
385,2,T1_SMS_8,41,9999,9999,9999,434034740
385,2,T1_SMS_8,42,9999,9999,9999,434834548
385,2,T1_SMS_8,43,9999,9999,9999,435634288
385,2,T1_SMS_8,44,9999,9999,9999,436435060
385,2,T1_SMS_8,45,9999,9999,9999,437234796
385,2,T1_SMS_8,46,9999,9999,9999,438034528
385,2,T1_SMS_8,47,9999,9999,9999,438834264
385,2,T1_SMS_8,48,9999,9999,9999,439635044
385,2,T1_SMS_8,49,9999,9999,9999,440434776
385,2,T1_SMS_8,50,9999,9999,9999,441234512
385,2,T1_SMS_8,51,9999,9999,9999,442034276
385,2,T1_SMS_8,52,9999,9999,9999,442835056
385,2,T1_SMS_8,53,9999,9999,9999,443634792
385,2,T1_SMS_8,54,9999,9999,9999,444434520
385,2,T1_SMS_8,55,9999,9999,9999,445234252
385,2,T1_SMS_8,56,9999,9999,9999,446035036
385,2,T1_SMS_8,57,9999,9999,9999,446834768
385,2,T1_SMS_8,58,9999,9999,9999,447634500
385,2,T1_SMS_8,59,9999,9999,9999,448434260
385,2,T1_SMS_8,60,9999,9999,9999,449235044
385,2,T1_SMS_8,61,9999,9999,9999,450034772
385,2,T1_SMS_8,62,9999,9999,9999,450834516
385,2,T1_SMS_8,63,9999,9999,9999,451634280
385,2,T1_SMS_8,64,9999,9999,9999,452435028
385,2,T1_SMS_8,65,9999,9999,9999,453234760
385,2,T1_SMS_8,66,9999,9999,9999,454034488
385,2,T1_SMS_8,67,9999,9999,9999,454834244
385,2,T1_SMS_8,68,9999,9999,9999,455635024
385,2,T1_SMS_8,69,9999,9999,9999,456434756
385,2,T1_SMS_8,70,9999,9999,9999,457234496
385,2,T1_SMS_8,71,9999,9999,9999,458034224
385,2,T1_SMS_8,72,9999,9999,9999,458835004
385,2,T1_SMS_8,73,9999,9999,9999,459634736
385,2,T1_SMS_8,74,9999,9999,9999,460434544
385,2,T1_SMS_8,75,9999,9999,9999,461234228
385,2,T1_SMS_8,76,9999,9999,9999,462035008
385,2,T1_SMS_8,77,9999,9999,9999,462834744
385,2,T1_SMS_8,78,9999,9999,9999,463634552
385,2,T1_SMS_8,79,9999,9999,9999,464434284
385,2,T1_SMS_8,80,9999,9999,9999,465234988
385,2,T1_SMS_8,81,9999,9999,9999,466034804
385,2,T1_SMS_8,82,9999,9999,9999,466834532
385,2,T1_SMS_8,83,9999,9999,9999,467634288
385,2,T1_SMS_8,84,9999,9999,9999,468434996
385,2,T1_SMS_8,85,9999,9999,9999,469234736
385,2,T1_SMS_8,86,9999,9999,9999,470034544
385,2,T1_SMS_8,87,9999,9999,9999,470834280
385,2,T1_SMS_8,88,9999,9999,9999,471635060
385,2,T1_SMS_8,89,9999,9999,9999,472434792
385,2,T1_SMS_8,90,9999,9999,9999,473234524
385,2,T1_SMS_8,91,9999,9999,9999,474034276
385,2,T1_SMS_8,92,9999,9999,9999,474835056
385,2,T1_SMS_8,93,9999,9999,9999,475634796
385,2,T1_SMS_8,94,9999,9999,9999,476434524
385,2,T1_SMS_8,95,9999,9999,9999,477234260
385,2,T1_SMS_8,96,9999,9999,9999,478035044
385,2,T1_SMS_8,97,9999,9999,9999,478834768
385,2,T1_SMS_8,98,9999,9999,9999,479634508
385,2,T1_SMS_8,99,9999,9999,9999,480434260
385,2,T1_SMS_8,100,9999,9999,9999,481235040
385,2,T1_SMS_8,101,9999,9999,9999,482034772
385,2,T1_SMS_8,102,9999,9999,9999,482834508
385,2,T1_SMS_8,103,9999,9999,9999,483634244
385,2,T1_SMS_8,104,9999,9999,9999,484435024
385,2,T1_SMS_8,105,9999,9999,9999,485234756
385,2,T1_SMS_8,106,9999,9999,9999,486034492
385,2,T1_SMS_8,107,9999,9999,9999,486834252
385,2,T1_SMS_8,108,9999,9999,9999,487635028
385,2,T1_SMS_8,109,9999,9999,9999,488434760
385,2,T1_SMS_8,110,9999,9999,9999,489234500
385,2,T1_SMS_8,111,9999,9999,9999,490034236
385,2,T1_SMS_8,112,9999,9999,9999,490835016
385,2,T1_SMS_8,113,9999,9999,9999,491634748
385,2,T1_SMS_8,114,9999,9999,9999,492434480
385,2,T1_SMS_8,115,9999,9999,9999,493234240
385,2,T1_SMS_8,116,9999,9999,9999,494035020
385,2,T1_SMS_8,117,9999,9999,9999,494834748
385,2,T1_SMS_8,118,9999,9999,9999,495634480
385,2,T1_SMS_8,119,9999,9999,9999,496434296
386,23,Ticks_Phase_5,0,5,42,127,510278968
386,23,Ticks_Phase_5,1,5,42,127,510778824
386,23,Ticks_Phase_5,2,1,48,23,510961776
386,23,Ticks_Phase_5,3,5,42,127,511278440
386,23,Ticks_Phase_5,4,1,48,31,511301104
386,23,Ticks_Phase_5,5,1,48,45,511758096
386,23,Ticks_Phase_5,6,5,42,127,511779168
386,23,Ticks_Phase_5,7,1,48,43,512278036
386,23,Ticks_Phase_5,8,5,42,127,512279828
386,23,Ticks_Phase_5,9,1,48,40,512774168
386,23,Ticks_Phase_5,10,5,42,127,512778768
386,23,Ticks_Phase_5,11,5,42,127,513279360
386,23,Ticks_Phase_5,12,1,48,38,513303368
386,23,Ticks_Phase_5,13,1,48,39,513776604
386,23,Ticks_Phase_5,14,5,42,127,513779116
386,23,Ticks_Phase_5,15,1,48,44,514259752
386,23,Ticks_Phase_5,16,5,42,127,514278728
386,23,Ticks_Phase_5,17,5,42,127,514778424
386,23,Ticks_Phase_5,18,1,48,40,514785652
386,23,Ticks_Phase_5,19,1,48,39,515269536
386,23,Ticks_Phase_5,20,5,42,127,515279076
386,23,Ticks_Phase_5,21,1,48,37,515757396
386,23,Ticks_Phase_5,22,5,42,127,515778916
386,23,Ticks_Phase_5,23,5,42,127,516278832
386,23,Ticks_Phase_5,24,1,48,40,516282176
386,23,Ticks_Phase_5,25,5,42,127,516779496
386,23,Ticks_Phase_5,26,1,48,36,516784104
386,23,Ticks_Phase_5,27,5,42,127,517279008
386,23,Ticks_Phase_5,28,1,48,29,517296884
386,23,Ticks_Phase_5,29,5,42,127,517778896
386,23,Ticks_Phase_5,30,1,48,26,517786740
386,23,Ticks_Phase_5,31,1,48,31,518254200
386,23,Ticks_Phase_5,32,5,42,127,518278500
386,23,Ticks_Phase_5,33,1,48,43,518735612
386,23,Ticks_Phase_5,34,5,42,127,518779460
386,23,Ticks_Phase_5,35,1,48,36,519270280
386,23,Ticks_Phase_5,36,5,42,127,519278848
386,23,Ticks_Phase_5,37,1,48,47,519776248
386,23,Ticks_Phase_5,38,5,42,127,519778760
386,23,Ticks_Phase_5,39,5,42,127,520279504
386,23,Ticks_Phase_5,40,1,48,33,520294076
386,23,Ticks_Phase_5,41,5,42,127,520779264
386,23,Ticks_Phase_5,42,1,48,17,520781784
386,23,Ticks_Phase_5,43,5,42,127,521278732
386,23,Ticks_Phase_5,44,1,48,36,521280068
386,23,Ticks_Phase_5,45,5,42,127,521778560
386,23,Ticks_Phase_5,46,1,48,46,521785340
386,23,Ticks_Phase_5,47,1,48,41,522279372
386,23,Ticks_Phase_5,48,5,42,127,522280856
386,23,Ticks_Phase_5,49,1,48,40,522743448
386,23,Ticks_Phase_5,50,5,42,127,522779052
386,23,Ticks_Phase_5,51,1,48,39,523228316
386,23,Ticks_Phase_5,52,5,42,127,523278592
386,23,Ticks_Phase_5,53,1,48,35,523752712
386,23,Ticks_Phase_5,54,5,42,127,523778504
386,23,Ticks_Phase_5,55,1,48,40,524241392
386,23,Ticks_Phase_5,56,5,42,127,524279464
386,23,Ticks_Phase_5,57,1,48,41,524756052
386,23,Ticks_Phase_5,58,5,42,127,524779004
386,23,Ticks_Phase_5,59,1,48,43,525262704
386,23,Ticks_Phase_5,60,5,42,127,525269256
386,23,Ticks_Phase_5,61,1,48,42,525741804
386,23,Ticks_Phase_5,62,5,42,127,525769244
386,23,Ticks_Phase_5,63,1,48,51,526263432
386,23,Ticks_Phase_5,64,5,42,127,526268784
386,23,Ticks_Phase_5,65,1,48,38,526762744
386,23,Ticks_Phase_5,66,5,42,127,526768472
386,23,Ticks_Phase_5,67,5,42,127,527269212
386,23,Ticks_Phase_5,68,1,48,26,527278776
386,23,Ticks_Phase_5,69,1,48,32,527760224
386,23,Ticks_Phase_5,70,5,42,127,527768872
386,23,Ticks_Phase_5,71,1,48,44,528246424
386,23,Ticks_Phase_5,72,5,42,127,528268632
386,23,Ticks_Phase_5,73,1,48,46,528739536
386,23,Ticks_Phase_5,74,5,42,127,528769444
386,23,Ticks_Phase_5,75,1,48,36,529262504
386,23,Ticks_Phase_5,76,5,42,127,529269280
386,23,Ticks_Phase_5,77,1,48,42,529733136
386,23,Ticks_Phase_5,78,5,42,127,529768892
386,23,Ticks_Phase_5,79,1,48,44,530231780
386,23,Ticks_Phase_5,80,5,42,127,530268508
386,23,Ticks_Phase_5,81,1,48,41,530750336
386,23,Ticks_Phase_5,82,5,42,127,530769168
386,23,Ticks_Phase_5,83,1,48,43,531229788
386,23,Ticks_Phase_5,84,5,42,127,531269056
386,23,Ticks_Phase_5,85,1,48,44,531744516
386,23,Ticks_Phase_5,86,5,42,127,531768672
386,23,Ticks_Phase_5,87,1,48,42,532232676
386,23,Ticks_Phase_5,88,5,42,127,532269332
386,23,Ticks_Phase_5,89,1,48,27,532746456
386,23,Ticks_Phase_5,90,5,42,127,532779500
386,23,Ticks_Phase_5,91,1,48,37,533245080
386,23,Ticks_Phase_5,92,5,42,127,533279040
386,23,Ticks_Phase_5,93,1,48,44,533743048
386,23,Ticks_Phase_5,94,5,42,127,533778880
386,23,Ticks_Phase_5,95,1,48,53,534241164
386,23,Ticks_Phase_5,96,5,42,127,534289052
386,23,Ticks_Phase_5,97,1,48,42,534757036
386,23,Ticks_Phase_5,98,5,42,127,534788440
386,23,Ticks_Phase_5,99,1,48,44,535282928
386,23,Ticks_Phase_5,100,5,42,127,535289176
386,23,Ticks_Phase_5,101,1,48,40,535779248
386,23,Ticks_Phase_5,102,5,42,127,535789016
386,23,Ticks_Phase_5,103,1,48,43,536280732
386,23,Ticks_Phase_5,104,5,42,127,536288480
386,23,Ticks_Phase_5,105,5,42,127,536789296
386,23,Ticks_Phase_5,106,1,48,41,536816912
386,23,Ticks_Phase_5,107,5,42,127,537289056
386,23,Ticks_Phase_5,108,1,48,35,537302436
386,23,Ticks_Phase_5,109,5,42,127,537788968
386,23,Ticks_Phase_5,110,1,48,38,537795452
386,23,Ticks_Phase_5,111,5,42,127,538288436
386,23,Ticks_Phase_5,112,1,48,30,538290524
386,23,Ticks_Phase_5,113,1,48,40,538786800
386,23,Ticks_Phase_5,114,5,42,127,538789236
386,23,Ticks_Phase_5,115,5,42,127,539288832
386,23,Ticks_Phase_5,116,1,48,36,539290772
386,23,Ticks_Phase_5,117,1,48,47,539757332
386,23,Ticks_Phase_5,118,5,42,127,539788664
386,23,Ticks_Phase_5,119,1,48,34,540286216
386,23,Ticks_Phase_5,120,5,42,127,540289324
386,23,Ticks_Phase_5,121,1,48,44,540756916
386,23,Ticks_Phase_5,122,5,42,127,540789236
386,23,Ticks_Phase_5,123,1,48,45,541282824
386,23,Ticks_Phase_5,124,5,42,127,541288924
386,23,Ticks_Phase_5,125,5,42,127,541788620
386,23,Ticks_Phase_5,126,1,48,39,541794052
386,23,Ticks_Phase_5,127,1,48,44,542291340
386,23,Ticks_Phase_5,128,5,42,127,542308672
386,23,Ticks_Phase_5,129,1,48,42,542807384
386,23,Ticks_Phase_5,130,5,42,127,542809028
386,23,Ticks_Phase_5,131,5,42,127,543309100
386,23,Ticks_Phase_5,132,1,48,43,543315804
386,23,Ticks_Phase_5,133,5,42,127,543808864
386,23,Ticks_Phase_5,134,1,48,44,543811380
386,23,Ticks_Phase_5,135,5,42,127,544308552
386,23,Ticks_Phase_5,136,1,48,35,544322824
386,23,Ticks_Phase_5,137,5,42,127,544809584
386,23,Ticks_Phase_5,138,1,48,31,544830976
386,23,Ticks_Phase_5,139,5,42,127,545308900
386,23,Ticks_Phase_5,140,1,48,33,545311796
386,23,Ticks_Phase_5,141,1,48,37,545789308
386,23,Ticks_Phase_5,142,5,42,127,545808732
386,23,Ticks_Phase_5,143,1,48,40,546300976
386,23,Ticks_Phase_5,144,5,42,127,546308644
386,23,Ticks_Phase_5,145,1,48,36,546795484
386,23,Ticks_Phase_5,146,5,42,127,546809156
386,23,Ticks_Phase_5,147,1,48,35,547307484
386,23,Ticks_Phase_5,148,5,42,127,547309288
386,23,Ticks_Phase_5,149,5,42,127,547808540
386,23,Ticks_Phase_5,150,1,48,33,547823860
386,23,Ticks_Phase_5,151,5,42,127,548309568
386,23,Ticks_Phase_5,152,1,48,40,548329316
386,23,Ticks_Phase_5,153,5,42,127,548809184
386,23,Ticks_Phase_5,154,1,48,38,548824880
386,23,Ticks_Phase_5,155,5,42,127,549308800
386,23,Ticks_Phase_5,156,1,48,34,549322252
386,23,Ticks_Phase_5,157,1,48,37,549794736
386,23,Ticks_Phase_5,158,5,42,127,549808628
386,23,Ticks_Phase_5,159,1,48,30,550295300
386,23,Ticks_Phase_5,160,5,42,127,550309364
386,23,Ticks_Phase_5,161,1,48,33,550774468
386,23,Ticks_Phase_5,162,5,42,127,550788436
386,23,Ticks_Phase_5,163,1,48,31,551259036
386,23,Ticks_Phase_5,164,5,42,127,551289320
386,23,Ticks_Phase_5,165,1,48,39,551755496
386,23,Ticks_Phase_5,166,5,42,127,551788936
386,23,Ticks_Phase_5,167,1,48,36,552255256
386,23,Ticks_Phase_5,168,5,42,127,552288620
386,23,Ticks_Phase_5,169,1,48,38,552746484
386,23,Ticks_Phase_5,170,5,42,127,552789432
386,23,Ticks_Phase_5,171,1,48,35,553245496
386,23,Ticks_Phase_5,172,5,42,127,553289196
386,23,Ticks_Phase_5,173,1,48,41,553695908
386,23,Ticks_Phase_5,174,5,42,127,553789164
386,23,Ticks_Phase_5,175,5,42,127,554288428
386,23,Ticks_Phase_5,176,1,48,38,554289988
386,23,Ticks_Phase_5,177,1,48,38,554753252
386,23,Ticks_Phase_5,178,5,42,127,554789232
386,23,Ticks_Phase_5,179,5,42,127,555288928
386,23,Ticks_Phase_5,180,1,48,35,555292796
386,23,Ticks_Phase_5,181,5,42,127,555788616
386,23,Ticks_Phase_5,182,1,48,28,555809632
386,23,Ticks_Phase_5,183,1,48,34,556267976
386,23,Ticks_Phase_5,184,5,42,127,556289344
386,23,Ticks_Phase_5,185,1,48,32,556774168
386,23,Ticks_Phase_5,186,5,42,127,556789328
386,23,Ticks_Phase_5,187,5,42,127,557289024
386,23,Ticks_Phase_5,188,1,48,27,557305764
386,23,Ticks_Phase_5,189,1,48,33,557780216
386,23,Ticks_Phase_5,190,5,42,127,557788632
386,23,Ticks_Phase_5,191,1,48,28,558275852
386,23,Ticks_Phase_5,192,5,42,127,558289220
386,23,Ticks_Phase_5,193,5,42,127,558739236
386,23,Ticks_Phase_5,194,1,48,29,558784616
386,23,Ticks_Phase_5,195,1,48,32,559236432
386,23,Ticks_Phase_5,196,5,42,127,559238472
386,23,Ticks_Phase_5,197,1,48,39,559670584
386,23,Ticks_Phase_5,198,5,42,127,559739280
386,23,Ticks_Phase_5,199,1,48,36,560162328
386,23,Ticks_Phase_5,200,5,42,127,560239192
386,23,Ticks_Phase_5,201,1,48,38,560693988
386,23,Ticks_Phase_5,202,5,42,127,560738732
386,23,Ticks_Phase_5,203,1,48,32,561199448
386,23,Ticks_Phase_5,204,5,42,127,561239392
386,23,Ticks_Phase_5,205,1,48,28,561732756
386,23,Ticks_Phase_5,206,5,42,127,561739080
386,23,Ticks_Phase_5,207,1,48,29,562216188
386,23,Ticks_Phase_5,208,5,42,127,562239064
386,23,Ticks_Phase_5,209,1,48,23,562720524
386,23,Ticks_Phase_5,210,5,42,127,562738528
386,23,Ticks_Phase_5,211,1,48,35,563226888
386,23,Ticks_Phase_5,212,5,42,127,563239264
386,23,Ticks_Phase_5,213,1,48,20,563732180
386,23,Ticks_Phase_5,214,5,42,127,563738952
386,23,Ticks_Phase_5,215,1,48,27,564207460
386,23,Ticks_Phase_5,216,5,42,127,564238792
386,23,Ticks_Phase_5,217,1,48,34,564698240
386,23,Ticks_Phase_5,218,5,42,127,564738408
386,23,Ticks_Phase_5,219,1,48,34,565187892
386,23,Ticks_Phase_5,220,5,42,127,565239068
386,23,Ticks_Phase_5,221,1,48,32,565710196
386,23,Ticks_Phase_5,222,5,42,127,565738832
386,23,Ticks_Phase_5,223,1,48,33,566200972
386,23,Ticks_Phase_5,224,5,42,127,566238744
386,23,Ticks_Phase_5,225,1,48,26,566729712
386,23,Ticks_Phase_5,226,5,42,127,566739256
386,23,Ticks_Phase_5,227,1,48,23,567230076
386,23,Ticks_Phase_5,228,5,42,127,567289268
386,23,Ticks_Phase_5,229,1,48,32,567767740
386,23,Ticks_Phase_5,230,5,42,127,567788956
386,23,Ticks_Phase_5,231,1,48,25,568278732
386,23,Ticks_Phase_5,232,5,42,127,568288720
386,23,Ticks_Phase_5,233,5,42,127,568789460
386,23,Ticks_Phase_5,234,1,48,27,568808836
386,23,Ticks_Phase_5,235,5,42,127,569289152
386,23,Ticks_Phase_5,236,1,48,33,569301852
386,23,Ticks_Phase_5,237,1,48,28,569788688
386,23,Ticks_Phase_5,238,5,42,127,569790324
386,23,Ticks_Phase_5,239,1,48,31,570283168
386,23,Ticks_Phase_5,240,5,42,127,570288892
386,23,Ticks_Phase_5,241,1,48,23,570788660
386,23,Ticks_Phase_5,242,5,42,127,570790448
386,23,Ticks_Phase_5,243,1,48,34,571265736
386,23,Ticks_Phase_5,244,5,42,127,571288916
386,23,Ticks_Phase_5,245,1,48,35,571773368
386,23,Ticks_Phase_5,246,5,42,127,571788532
386,23,Ticks_Phase_5,247,1,48,37,572269240
386,23,Ticks_Phase_5,248,5,42,127,572289488
386,23,Ticks_Phase_5,249,1,48,29,572782404
386,23,Ticks_Phase_5,250,5,42,127,572789252
386,23,Ticks_Phase_5,251,5,42,127,573288800
386,23,Ticks_Phase_5,252,1,48,34,573289688
386,23,Ticks_Phase_5,253,1,48,29,573770104
386,23,Ticks_Phase_5,254,5,42,127,573788776
386,23,Ticks_Phase_5,255,1,48,28,574288016
386,23,Ticks_Phase_5,256,5,42,127,574289808
386,23,Ticks_Phase_5,257,5,42,127,574788908
386,23,Ticks_Phase_5,258,1,48,18,574790468
386,23,Ticks_Phase_5,259,1,48,19,575259280
386,23,Ticks_Phase_5,260,5,42,127,575288664
386,23,Ticks_Phase_5,261,1,48,31,575783004
386,23,Ticks_Phase_5,262,5,42,127,575888688
386,23,Ticks_Phase_5,263,1,48,32,576330996
386,23,Ticks_Phase_5,264,5,42,127,576388616
386,23,Ticks_Phase_5,265,1,48,31,576857204
386,23,Ticks_Phase_5,266,5,42,127,576889276
386,23,Ticks_Phase_5,267,5,42,127,577388896
386,23,Ticks_Phase_5,268,1,48,25,577441240
386,23,Ticks_Phase_5,269,5,42,127,577888584
386,23,Ticks_Phase_5,270,1,48,28,577949244
386,23,Ticks_Phase_5,271,5,42,127,578389468
386,23,Ticks_Phase_5,272,1,48,33,578406528
386,23,Ticks_Phase_5,273,5,42,127,578889008
386,23,Ticks_Phase_5,274,1,48,31,578889972
386,23,Ticks_Phase_5,275,1,48,31,579366932
386,23,Ticks_Phase_5,276,5,42,127,579388764
386,23,Ticks_Phase_5,277,1,48,19,579884076
386,23,Ticks_Phase_5,278,5,42,127,579888452
386,23,Ticks_Phase_5,279,1,48,31,580372228
386,23,Ticks_Phase_5,280,5,42,127,580389336
386,23,Ticks_Phase_5,281,1,48,27,580871020
386,23,Ticks_Phase_5,282,5,42,127,580888876
386,23,Ticks_Phase_5,283,1,48,31,581385008
386,23,Ticks_Phase_5,284,5,42,127,581388716
386,23,Ticks_Phase_5,285,5,42,127,581889528
386,23,Ticks_Phase_5,286,1,48,21,581896700
386,23,Ticks_Phase_5,287,1,48,22,582375548
386,23,Ticks_Phase_5,288,5,42,127,582389060
386,23,Ticks_Phase_5,289,1,48,28,582883400
386,23,Ticks_Phase_5,290,5,42,127,582888824
386,23,Ticks_Phase_5,291,1,48,36,583362268
386,23,Ticks_Phase_5,292,5,42,127,583388584
386,23,Ticks_Phase_5,293,1,48,29,583876028
386,23,Ticks_Phase_5,294,5,42,127,583889172
386,23,Ticks_Phase_5,295,5,42,127,584389164
386,23,Ticks_Phase_5,296,1,48,27,584396692
386,23,Ticks_Phase_5,297,1,48,33,584859360
386,23,Ticks_Phase_5,298,5,42,127,584888624
386,23,Ticks_Phase_5,299,5,42,127,585289292
386,23,Ticks_Phase_5,300,1,48,27,585373088
386,23,Ticks_Phase_5,301,1,48,24,585788156
386,23,Ticks_Phase_5,302,5,42,127,585790096
386,23,Ticks_Phase_5,303,1,48,24,586266924
386,23,Ticks_Phase_5,304,5,42,127,586288364
386,23,Ticks_Phase_5,305,1,48,26,586769748
386,23,Ticks_Phase_5,306,5,42,127,586789320
386,23,Ticks_Phase_5,307,5,42,127,587289016
386,23,Ticks_Phase_5,308,1,48,21,587291692
386,23,Ticks_Phase_5,309,5,42,127,587788560
386,23,Ticks_Phase_5,310,1,48,30,587791300
386,23,Ticks_Phase_5,311,5,42,127,588289292
386,23,Ticks_Phase_5,312,1,48,23,588295480
386,23,Ticks_Phase_5,313,5,42,127,588789056
386,23,Ticks_Phase_5,314,1,48,22,588803184
386,23,Ticks_Phase_5,315,1,48,29,589281892
386,23,Ticks_Phase_5,316,5,42,127,589288812
386,23,Ticks_Phase_5,317,1,48,32,589765248
386,23,Ticks_Phase_5,318,5,42,127,589788500
386,23,Ticks_Phase_5,319,1,48,27,590289464
386,23,Ticks_Phase_5,320,5,42,127,590291108
386,23,Ticks_Phase_5,321,5,42,127,590788932
386,23,Ticks_Phase_5,322,1,48,20,590794664
386,23,Ticks_Phase_5,323,1,48,25,591281244
386,23,Ticks_Phase_5,324,5,42,127,591289060
386,23,Ticks_Phase_5,325,1,48,25,591771696
386,23,Ticks_Phase_5,326,5,42,127,591789324
386,23,Ticks_Phase_5,327,1,48,25,592281768
386,23,Ticks_Phase_5,328,5,42,127,592299344
386,23,Ticks_Phase_5,329,1,48,26,592789244
386,23,Ticks_Phase_5,330,5,42,127,592798960
386,23,Ticks_Phase_5,331,1,48,27,593295516
386,23,Ticks_Phase_5,332,5,42,127,593298700
386,23,Ticks_Phase_5,333,1,48,26,593796176
386,23,Ticks_Phase_5,334,5,42,127,593798832
386,23,Ticks_Phase_5,335,5,42,127,594299204
386,23,Ticks_Phase_5,336,1,48,19,594320596
386,23,Ticks_Phase_5,337,5,42,127,594799040
386,23,Ticks_Phase_5,0,9999,9999,9999,510276680
386,23,Ticks_Phase_5,1,9999,9999,9999,510776388
386,23,Ticks_Phase_5,2,9999,9999,9999,511276152
386,23,Ticks_Phase_5,3,9999,9999,9999,511776880
386,23,Ticks_Phase_5,4,9999,9999,9999,512276576
386,23,Ticks_Phase_5,5,9999,9999,9999,512776256
386,23,Ticks_Phase_5,6,9999,9999,9999,513277000
386,23,Ticks_Phase_5,7,9999,9999,9999,513776752
386,23,Ticks_Phase_5,8,9999,9999,9999,514276444
386,23,Ticks_Phase_5,9,9999,9999,9999,514776136
386,23,Ticks_Phase_5,10,9999,9999,9999,515276864
386,23,Ticks_Phase_5,11,9999,9999,9999,515776628
386,23,Ticks_Phase_5,12,9999,9999,9999,516276324
386,23,Ticks_Phase_5,13,9999,9999,9999,516777060
386,23,Ticks_Phase_5,14,9999,9999,9999,517276796
386,23,Ticks_Phase_5,15,9999,9999,9999,517776460
386,23,Ticks_Phase_5,16,9999,9999,9999,518276216
386,23,Ticks_Phase_5,17,9999,9999,9999,518776948
386,23,Ticks_Phase_5,18,9999,9999,9999,519276636
386,23,Ticks_Phase_5,19,9999,9999,9999,519776328
386,23,Ticks_Phase_5,20,9999,9999,9999,520277068
386,23,Ticks_Phase_5,21,9999,9999,9999,520776828
386,23,Ticks_Phase_5,22,9999,9999,9999,521276520
386,23,Ticks_Phase_5,23,9999,9999,9999,521776200
386,23,Ticks_Phase_5,24,9999,9999,9999,522276936
386,23,Ticks_Phase_5,25,9999,9999,9999,522776692
386,23,Ticks_Phase_5,26,9999,9999,9999,523276380
386,23,Ticks_Phase_5,27,9999,9999,9999,523776068
386,23,Ticks_Phase_5,28,9999,9999,9999,524276804
386,23,Ticks_Phase_5,29,9999,9999,9999,524776568
386,23,Ticks_Phase_5,30,9999,9999,9999,525267044
386,23,Ticks_Phase_5,31,9999,9999,9999,525766732
386,23,Ticks_Phase_5,32,9999,9999,9999,526266496
386,23,Ticks_Phase_5,33,9999,9999,9999,526766184
386,23,Ticks_Phase_5,34,9999,9999,9999,527266924
386,23,Ticks_Phase_5,35,9999,9999,9999,527766584
386,23,Ticks_Phase_5,36,9999,9999,9999,528266344
386,23,Ticks_Phase_5,37,9999,9999,9999,528767080
386,23,Ticks_Phase_5,38,9999,9999,9999,529266772
386,23,Ticks_Phase_5,39,9999,9999,9999,529766460
386,23,Ticks_Phase_5,40,9999,9999,9999,530266220
386,23,Ticks_Phase_5,41,9999,9999,9999,530766956
386,23,Ticks_Phase_5,42,9999,9999,9999,531266620
386,23,Ticks_Phase_5,43,9999,9999,9999,531766384
386,23,Ticks_Phase_5,44,9999,9999,9999,532267116
386,23,Ticks_Phase_5,45,9999,9999,9999,532777064
386,23,Ticks_Phase_5,46,9999,9999,9999,533276752
386,23,Ticks_Phase_5,47,9999,9999,9999,533776444
386,23,Ticks_Phase_5,48,9999,9999,9999,534286464
386,23,Ticks_Phase_5,49,9999,9999,9999,534786152
386,23,Ticks_Phase_5,50,9999,9999,9999,535286892
386,23,Ticks_Phase_5,51,9999,9999,9999,535786580
386,23,Ticks_Phase_5,52,9999,9999,9999,536286268
386,23,Ticks_Phase_5,53,9999,9999,9999,536787008
386,23,Ticks_Phase_5,54,9999,9999,9999,537286772
386,23,Ticks_Phase_5,55,9999,9999,9999,537786460
386,23,Ticks_Phase_5,56,9999,9999,9999,538286148
386,23,Ticks_Phase_5,57,9999,9999,9999,538786876
386,23,Ticks_Phase_5,58,9999,9999,9999,539286620
386,23,Ticks_Phase_5,59,9999,9999,9999,539786304
386,23,Ticks_Phase_5,60,9999,9999,9999,540287036
386,23,Ticks_Phase_5,61,9999,9999,9999,540786800
386,23,Ticks_Phase_5,62,9999,9999,9999,541286488
386,23,Ticks_Phase_5,63,9999,9999,9999,541786184
386,23,Ticks_Phase_5,64,9999,9999,9999,542306384
386,23,Ticks_Phase_5,65,9999,9999,9999,542806080
386,23,Ticks_Phase_5,66,9999,9999,9999,543306812
386,23,Ticks_Phase_5,67,9999,9999,9999,543806576
386,23,Ticks_Phase_5,68,9999,9999,9999,544306264
386,23,Ticks_Phase_5,69,9999,9999,9999,544807000
386,23,Ticks_Phase_5,70,9999,9999,9999,545306688
386,23,Ticks_Phase_5,71,9999,9999,9999,545806444
386,23,Ticks_Phase_5,72,9999,9999,9999,546306132
386,23,Ticks_Phase_5,73,9999,9999,9999,546806868
386,23,Ticks_Phase_5,74,9999,9999,9999,547306564
386,23,Ticks_Phase_5,75,9999,9999,9999,547806328
386,23,Ticks_Phase_5,76,9999,9999,9999,548307060
386,23,Ticks_Phase_5,77,9999,9999,9999,548806748
386,23,Ticks_Phase_5,78,9999,9999,9999,549306436
386,23,Ticks_Phase_5,79,9999,9999,9999,549806196
386,23,Ticks_Phase_5,80,9999,9999,9999,550306928
386,23,Ticks_Phase_5,81,9999,9999,9999,550786148
386,23,Ticks_Phase_5,82,9999,9999,9999,551286884
386,23,Ticks_Phase_5,83,9999,9999,9999,551786572
386,23,Ticks_Phase_5,84,9999,9999,9999,552286336
386,23,Ticks_Phase_5,85,9999,9999,9999,552787072
386,23,Ticks_Phase_5,86,9999,9999,9999,553286760
386,23,Ticks_Phase_5,87,9999,9999,9999,553786448
386,23,Ticks_Phase_5,88,9999,9999,9999,554286144
386,23,Ticks_Phase_5,89,9999,9999,9999,554786944
386,23,Ticks_Phase_5,90,9999,9999,9999,555286640
386,23,Ticks_Phase_5,91,9999,9999,9999,555786328
386,23,Ticks_Phase_5,92,9999,9999,9999,556287056
386,23,Ticks_Phase_5,93,9999,9999,9999,556786744
386,23,Ticks_Phase_5,94,9999,9999,9999,557286512
386,23,Ticks_Phase_5,95,9999,9999,9999,557786196
386,23,Ticks_Phase_5,96,9999,9999,9999,558286932
386,23,Ticks_Phase_5,97,9999,9999,9999,558736500
386,23,Ticks_Phase_5,98,9999,9999,9999,559236224
386,23,Ticks_Phase_5,99,9999,9999,9999,559736920
386,23,Ticks_Phase_5,100,9999,9999,9999,560236608
386,23,Ticks_Phase_5,101,9999,9999,9999,560736368
386,23,Ticks_Phase_5,102,9999,9999,9999,561237104
386,23,Ticks_Phase_5,103,9999,9999,9999,561736792
386,23,Ticks_Phase_5,104,9999,9999,9999,562236480
386,23,Ticks_Phase_5,105,9999,9999,9999,562736244
386,23,Ticks_Phase_5,106,9999,9999,9999,563236976
386,23,Ticks_Phase_5,107,9999,9999,9999,563736668
386,23,Ticks_Phase_5,108,9999,9999,9999,564236356
386,23,Ticks_Phase_5,109,9999,9999,9999,564736120
386,23,Ticks_Phase_5,110,9999,9999,9999,565236856
386,23,Ticks_Phase_5,111,9999,9999,9999,565736544
386,23,Ticks_Phase_5,112,9999,9999,9999,566236236
386,23,Ticks_Phase_5,113,9999,9999,9999,566736968
386,23,Ticks_Phase_5,114,9999,9999,9999,567286908
386,23,Ticks_Phase_5,115,9999,9999,9999,567786596
386,23,Ticks_Phase_5,116,9999,9999,9999,568286284
386,23,Ticks_Phase_5,117,9999,9999,9999,568787028
386,23,Ticks_Phase_5,118,9999,9999,9999,569286716
386,23,Ticks_Phase_5,119,9999,9999,9999,569786476
386,23,Ticks_Phase_5,120,9999,9999,9999,570286156
386,23,Ticks_Phase_5,121,9999,9999,9999,570786896
386,23,Ticks_Phase_5,122,9999,9999,9999,571286632
386,23,Ticks_Phase_5,123,9999,9999,9999,571786320
386,23,Ticks_Phase_5,124,9999,9999,9999,572287052
386,23,Ticks_Phase_5,125,9999,9999,9999,572786816
386,23,Ticks_Phase_5,126,9999,9999,9999,573286512
386,23,Ticks_Phase_5,127,9999,9999,9999,573786192
386,23,Ticks_Phase_5,128,9999,9999,9999,574286932
386,23,Ticks_Phase_5,129,9999,9999,9999,574786620
386,23,Ticks_Phase_5,130,9999,9999,9999,575286380
386,23,Ticks_Phase_5,131,9999,9999,9999,575886400
386,23,Ticks_Phase_5,132,9999,9999,9999,576386104
386,23,Ticks_Phase_5,133,9999,9999,9999,576886840
386,23,Ticks_Phase_5,134,9999,9999,9999,577386608
386,23,Ticks_Phase_5,135,9999,9999,9999,577886296
386,23,Ticks_Phase_5,136,9999,9999,9999,578387032
386,23,Ticks_Phase_5,137,9999,9999,9999,578886720
386,23,Ticks_Phase_5,138,9999,9999,9999,579386476
386,23,Ticks_Phase_5,139,9999,9999,9999,579886164
386,23,Ticks_Phase_5,140,9999,9999,9999,580386900
386,23,Ticks_Phase_5,141,9999,9999,9999,580886592
386,23,Ticks_Phase_5,142,9999,9999,9999,581386352
386,23,Ticks_Phase_5,143,9999,9999,9999,581887092
386,23,Ticks_Phase_5,144,9999,9999,9999,582386776
386,23,Ticks_Phase_5,145,9999,9999,9999,582886464
386,23,Ticks_Phase_5,146,9999,9999,9999,583386224
386,23,Ticks_Phase_5,147,9999,9999,9999,583886960
386,23,Ticks_Phase_5,148,9999,9999,9999,584386652
386,23,Ticks_Phase_5,149,9999,9999,9999,584886336
386,23,Ticks_Phase_5,150,9999,9999,9999,585286780
386,23,Ticks_Phase_5,151,9999,9999,9999,585786472
386,23,Ticks_Phase_5,152,9999,9999,9999,586286152
386,23,Ticks_Phase_5,153,9999,9999,9999,586786888
386,23,Ticks_Phase_5,154,9999,9999,9999,587286656
386,23,Ticks_Phase_5,155,9999,9999,9999,587786348
386,23,Ticks_Phase_5,156,9999,9999,9999,588287080
386,23,Ticks_Phase_5,157,9999,9999,9999,588786772
386,23,Ticks_Phase_5,158,9999,9999,9999,589286528
386,23,Ticks_Phase_5,159,9999,9999,9999,589786216
386,23,Ticks_Phase_5,160,9999,9999,9999,590286956
386,23,Ticks_Phase_5,161,9999,9999,9999,590786644
386,23,Ticks_Phase_5,162,9999,9999,9999,591286400
386,23,Ticks_Phase_5,163,9999,9999,9999,591787112
386,23,Ticks_Phase_5,164,9999,9999,9999,592297060
386,23,Ticks_Phase_5,165,9999,9999,9999,592796748
386,23,Ticks_Phase_5,166,9999,9999,9999,593296488
386,23,Ticks_Phase_5,167,9999,9999,9999,593796248
386,23,Ticks_Phase_5,168,9999,9999,9999,594296916
386,23,Ticks_Phase_5,169,9999,9999,9999,594796604
387,22,Ticks_Phase_8,0,5,42,127,609204716
387,22,Ticks_Phase_8,1,5,42,127,610005272
387,22,Ticks_Phase_8,2,5,42,127,610805304
387,22,Ticks_Phase_8,3,1,48,39,610816888
387,22,Ticks_Phase_8,4,1,48,48,611537656
387,22,Ticks_Phase_8,5,5,42,127,611604784
387,22,Ticks_Phase_8,6,1,48,40,612376088
387,22,Ticks_Phase_8,7,5,42,127,612404648
387,22,Ticks_Phase_8,8,5,42,127,613205264
387,22,Ticks_Phase_8,9,1,48,37,613211072
387,22,Ticks_Phase_8,10,5,42,127,614005200
387,22,Ticks_Phase_8,11,1,48,43,614016260
387,22,Ticks_Phase_8,12,1,48,44,614791316
387,22,Ticks_Phase_8,13,5,42,127,614805052
387,22,Ticks_Phase_8,14,1,48,41,615580192
387,22,Ticks_Phase_8,15,5,42,127,615604564
387,22,Ticks_Phase_8,16,1,48,33,616375864
387,22,Ticks_Phase_8,17,5,42,127,616405248
387,22,Ticks_Phase_8,18,1,48,45,617169356
387,22,Ticks_Phase_8,19,5,42,127,617205036
387,22,Ticks_Phase_8,20,1,48,39,617937996
387,22,Ticks_Phase_8,21,5,42,127,618004972
387,22,Ticks_Phase_8,22,1,48,39,618783388
387,22,Ticks_Phase_8,23,5,42,127,618804536
387,22,Ticks_Phase_8,24,1,48,35,619582336
387,22,Ticks_Phase_8,25,5,42,127,619605292
387,22,Ticks_Phase_8,26,1,48,40,620377344
387,22,Ticks_Phase_8,27,5,42,127,620405152
387,22,Ticks_Phase_8,28,1,48,39,621176676
387,22,Ticks_Phase_8,29,5,42,127,621204864
387,22,Ticks_Phase_8,30,1,48,40,621989664
387,22,Ticks_Phase_8,31,5,42,127,622004676
387,22,Ticks_Phase_8,32,1,48,34,622764596
387,22,Ticks_Phase_8,33,5,42,127,622805284
387,22,Ticks_Phase_8,34,1,48,45,623561152
387,22,Ticks_Phase_8,35,5,42,127,623605144
387,22,Ticks_Phase_8,36,1,48,38,624340792
387,22,Ticks_Phase_8,37,5,42,127,624404784
387,22,Ticks_Phase_8,38,1,48,38,625173616
387,22,Ticks_Phase_8,39,5,42,127,625204792
387,22,Ticks_Phase_8,40,1,48,38,625964860
387,22,Ticks_Phase_8,41,5,42,127,626005548
387,22,Ticks_Phase_8,42,1,48,36,626798044
387,22,Ticks_Phase_8,43,5,42,127,626804964
387,22,Ticks_Phase_8,44,1,48,39,627585700
387,22,Ticks_Phase_8,45,5,42,127,627604976
387,22,Ticks_Phase_8,46,5,42,127,628404572
387,22,Ticks_Phase_8,47,1,48,36,628414512
387,22,Ticks_Phase_8,48,5,42,127,629205552
387,22,Ticks_Phase_8,49,1,48,27,629222368
387,22,Ticks_Phase_8,50,1,48,27,629992264
387,22,Ticks_Phase_8,51,5,42,127,630005032
387,22,Ticks_Phase_8,52,1,48,37,630740384
387,22,Ticks_Phase_8,53,5,42,127,630804744
387,22,Ticks_Phase_8,54,1,48,38,631550056
387,22,Ticks_Phase_8,55,5,42,127,631604456
387,22,Ticks_Phase_8,56,1,48,30,632352752
387,22,Ticks_Phase_8,57,5,42,127,632405292
387,22,Ticks_Phase_8,58,5,42,127,633184568
387,22,Ticks_Phase_8,59,1,48,32,633197272
387,22,Ticks_Phase_8,60,1,48,35,633933996
387,22,Ticks_Phase_8,61,5,42,127,633985392
387,22,Ticks_Phase_8,62,1,48,35,634757740
387,22,Ticks_Phase_8,63,5,42,127,634785428
387,22,Ticks_Phase_8,64,1,48,35,635546468
387,22,Ticks_Phase_8,65,5,42,127,635584916
387,22,Ticks_Phase_8,66,1,48,37,636371040
387,22,Ticks_Phase_8,67,5,42,127,636384480
387,22,Ticks_Phase_8,68,5,42,127,637185320
387,22,Ticks_Phase_8,69,1,48,37,637192416
387,22,Ticks_Phase_8,70,1,48,40,637975712
387,22,Ticks_Phase_8,71,5,42,127,637985244
387,22,Ticks_Phase_8,72,1,48,40,638722180
387,22,Ticks_Phase_8,73,5,42,127,638784808
387,22,Ticks_Phase_8,74,1,48,34,639557008
387,22,Ticks_Phase_8,75,5,42,127,639584668
387,22,Ticks_Phase_8,76,1,48,33,640354772
387,22,Ticks_Phase_8,77,5,42,127,640385280
387,22,Ticks_Phase_8,78,5,42,127,641185096
387,22,Ticks_Phase_8,79,1,48,33,641192256
387,22,Ticks_Phase_8,80,5,42,127,641984956
387,22,Ticks_Phase_8,81,1,48,39,641994148
387,22,Ticks_Phase_8,82,5,42,127,642784744
387,22,Ticks_Phase_8,83,1,48,34,642828976
387,22,Ticks_Phase_8,84,1,48,27,643563232
387,22,Ticks_Phase_8,85,5,42,127,643585496
387,22,Ticks_Phase_8,86,1,48,35,644374396
387,22,Ticks_Phase_8,87,5,42,127,644385208
387,22,Ticks_Phase_8,88,1,48,36,645170212
387,22,Ticks_Phase_8,89,5,42,127,645185068
387,22,Ticks_Phase_8,90,1,48,32,645961156
387,22,Ticks_Phase_8,91,5,42,127,645984780
387,22,Ticks_Phase_8,92,5,42,127,646785324
387,22,Ticks_Phase_8,93,1,48,38,646790984
387,22,Ticks_Phase_8,94,1,48,42,647553624
387,22,Ticks_Phase_8,95,5,42,127,647604524
387,22,Ticks_Phase_8,96,1,48,37,648365640
387,22,Ticks_Phase_8,97,5,42,127,648405580
387,22,Ticks_Phase_8,98,5,42,127,649205224
387,22,Ticks_Phase_8,99,1,48,38,649240168
387,22,Ticks_Phase_8,100,5,42,127,650004788
387,22,Ticks_Phase_8,101,1,48,36,650012020
387,22,Ticks_Phase_8,102,5,42,127,650804724
387,22,Ticks_Phase_8,103,1,48,30,650807092
387,22,Ticks_Phase_8,104,1,48,35,651585900
387,22,Ticks_Phase_8,105,5,42,127,651605548
387,22,Ticks_Phase_8,106,1,48,24,652383968
387,22,Ticks_Phase_8,107,5,42,127,652404964
387,22,Ticks_Phase_8,108,1,48,35,653171460
387,22,Ticks_Phase_8,109,5,42,127,653204820
387,22,Ticks_Phase_8,110,1,48,43,653941968
387,22,Ticks_Phase_8,111,5,42,127,654004632
387,22,Ticks_Phase_8,112,1,48,45,654756088
387,22,Ticks_Phase_8,113,5,42,127,654805616
387,22,Ticks_Phase_8,114,5,42,127,655605036
387,22,Ticks_Phase_8,115,1,48,35,655625236
387,22,Ticks_Phase_8,116,1,48,32,656393780
387,22,Ticks_Phase_8,117,5,42,127,656404888
387,22,Ticks_Phase_8,118,1,48,40,657171840
387,22,Ticks_Phase_8,119,5,42,127,657204676
387,22,Ticks_Phase_8,120,1,48,32,657998812
387,22,Ticks_Phase_8,121,5,42,127,658005436
387,22,Ticks_Phase_8,122,5,42,127,658805228
387,22,Ticks_Phase_8,123,1,48,38,658875700
387,22,Ticks_Phase_8,124,5,42,127,659604792
387,22,Ticks_Phase_8,125,1,48,30,659650220
387,22,Ticks_Phase_8,126,1,48,32,660433228
387,22,Ticks_Phase_8,127,5,42,127,660444564
387,22,Ticks_Phase_8,128,1,48,28,661210168
387,22,Ticks_Phase_8,129,5,42,127,661245248
387,22,Ticks_Phase_8,130,1,48,40,662023368
387,22,Ticks_Phase_8,131,5,42,127,662045328
387,22,Ticks_Phase_8,132,1,48,42,662843620
387,22,Ticks_Phase_8,133,5,42,127,662845412
387,22,Ticks_Phase_8,134,1,48,40,663597916
387,22,Ticks_Phase_8,135,5,42,127,663644456
387,22,Ticks_Phase_8,136,1,48,39,664432984
387,22,Ticks_Phase_8,137,5,42,127,664445364
387,22,Ticks_Phase_8,138,1,48,43,665228192
387,22,Ticks_Phase_8,139,5,42,127,665245320
387,22,Ticks_Phase_8,140,5,42,127,666044820
387,22,Ticks_Phase_8,141,1,48,37,666048692
387,22,Ticks_Phase_8,142,5,42,127,666844536
387,22,Ticks_Phase_8,143,1,48,37,666911904
387,22,Ticks_Phase_8,144,1,48,38,667634776
387,22,Ticks_Phase_8,145,5,42,127,667645284
387,22,Ticks_Phase_8,146,5,42,127,668445076
387,22,Ticks_Phase_8,147,1,48,37,668455016
387,22,Ticks_Phase_8,148,1,48,36,669239732
387,22,Ticks_Phase_8,149,5,42,127,669245152
387,22,Ticks_Phase_8,150,1,48,30,669994368
387,22,Ticks_Phase_8,151,5,42,127,670044492
387,22,Ticks_Phase_8,152,1,48,29,670786360
387,22,Ticks_Phase_8,153,5,42,127,670845400
387,22,Ticks_Phase_8,154,1,48,28,671595432
387,22,Ticks_Phase_8,155,5,42,127,671645060
387,22,Ticks_Phase_8,156,1,48,31,672372984
387,22,Ticks_Phase_8,157,5,42,127,672444996
387,22,Ticks_Phase_8,158,1,48,43,673149996
387,22,Ticks_Phase_8,159,5,42,127,673244488
387,22,Ticks_Phase_8,160,1,48,38,673953332
387,22,Ticks_Phase_8,161,5,42,127,674005256
387,22,Ticks_Phase_8,162,1,48,40,674781792
387,22,Ticks_Phase_8,163,5,42,127,674805044
387,22,Ticks_Phase_8,164,1,48,36,675601652
387,22,Ticks_Phase_8,165,5,42,127,675604980
387,22,Ticks_Phase_8,166,5,42,127,676404700
387,22,Ticks_Phase_8,167,1,48,39,676413516
387,22,Ticks_Phase_8,168,5,42,127,677205456
387,22,Ticks_Phase_8,169,1,48,35,677238680
387,22,Ticks_Phase_8,170,5,42,127,678005096
387,22,Ticks_Phase_8,171,1,48,32,678057368
387,22,Ticks_Phase_8,172,5,42,127,678804808
387,22,Ticks_Phase_8,173,1,48,36,678806316
387,22,Ticks_Phase_8,174,1,48,38,679589004
387,22,Ticks_Phase_8,175,5,42,127,679604536
387,22,Ticks_Phase_8,176,5,42,127,680405524
387,22,Ticks_Phase_8,177,1,48,38,680406420
387,22,Ticks_Phase_8,178,5,42,127,681205088
387,22,Ticks_Phase_8,179,1,48,38,681243560
387,22,Ticks_Phase_8,180,1,48,37,681980720
387,22,Ticks_Phase_8,181,5,42,127,682004796
387,22,Ticks_Phase_8,182,1,48,28,682771072
387,22,Ticks_Phase_8,183,5,42,127,682804584
387,22,Ticks_Phase_8,184,1,48,39,683515152
387,22,Ticks_Phase_8,185,5,42,127,683605560
387,22,Ticks_Phase_8,186,1,48,42,684385704
387,22,Ticks_Phase_8,187,5,42,127,684405276
387,22,Ticks_Phase_8,188,1,48,47,685201880
387,22,Ticks_Phase_8,189,5,42,127,685204912
387,22,Ticks_Phase_8,190,1,48,49,685972136
387,22,Ticks_Phase_8,191,5,42,127,686004548
387,22,Ticks_Phase_8,192,5,42,127,686724412
387,22,Ticks_Phase_8,193,1,48,39,686810232
387,22,Ticks_Phase_8,194,1,48,33,687477136
387,22,Ticks_Phase_8,195,5,42,127,687525264
387,22,Ticks_Phase_8,196,1,48,41,688253112
387,22,Ticks_Phase_8,197,5,42,127,688324828
387,22,Ticks_Phase_8,198,1,48,41,689077928
387,22,Ticks_Phase_8,199,5,42,127,689124688
387,22,Ticks_Phase_8,200,1,48,45,689894716
387,22,Ticks_Phase_8,201,5,42,127,689924400
387,22,Ticks_Phase_8,202,1,48,43,690672248
387,22,Ticks_Phase_8,203,5,42,127,690725156
387,22,Ticks_Phase_8,204,1,48,41,691473172
387,22,Ticks_Phase_8,205,5,42,127,691525020
387,22,Ticks_Phase_8,206,1,48,38,692277000
387,22,Ticks_Phase_8,207,5,42,127,692324880
387,22,Ticks_Phase_8,208,1,48,40,693060600
387,22,Ticks_Phase_8,209,5,42,127,693124444
387,22,Ticks_Phase_8,210,1,48,36,693864892
387,22,Ticks_Phase_8,211,5,42,127,693925300
387,22,Ticks_Phase_8,212,1,48,38,694667820
387,22,Ticks_Phase_8,213,5,42,127,694724940
387,22,Ticks_Phase_8,214,1,48,36,695477596
387,22,Ticks_Phase_8,215,5,42,127,695524800
387,22,Ticks_Phase_8,216,1,48,42,696254544
387,22,Ticks_Phase_8,217,5,42,127,696324588
387,22,Ticks_Phase_8,218,1,48,45,697112280
387,22,Ticks_Phase_8,219,5,42,127,697125196
387,22,Ticks_Phase_8,220,1,48,49,697910948
387,22,Ticks_Phase_8,221,5,42,127,697924912
387,22,Ticks_Phase_8,222,1,48,45,698713416
387,22,Ticks_Phase_8,223,5,42,127,698724972
387,22,Ticks_Phase_8,224,1,48,46,699511540
387,22,Ticks_Phase_8,225,5,42,127,699524460
387,22,Ticks_Phase_8,226,1,48,47,700304752
387,22,Ticks_Phase_8,227,5,42,127,700405060
387,22,Ticks_Phase_8,228,1,48,38,701167988
387,22,Ticks_Phase_8,229,5,42,127,701204936
387,22,Ticks_Phase_8,230,1,48,46,701981924
387,22,Ticks_Phase_8,231,5,42,127,702004724
387,22,Ticks_Phase_8,232,5,42,127,702805340
387,22,Ticks_Phase_8,233,1,48,41,702833624
387,22,Ticks_Phase_8,234,5,42,127,703605200
387,22,Ticks_Phase_8,235,1,48,42,703640768
387,22,Ticks_Phase_8,236,1,48,35,704377168
387,22,Ticks_Phase_8,237,5,42,127,704404928
387,22,Ticks_Phase_8,238,1,48,38,705176684
387,22,Ticks_Phase_8,239,5,42,127,705204564
387,22,Ticks_Phase_8,240,5,42,127,706005480
387,22,Ticks_Phase_8,241,1,48,36,706013476
387,22,Ticks_Phase_8,242,5,42,127,706804972
387,22,Ticks_Phase_8,243,1,48,33,706817084
387,22,Ticks_Phase_8,244,5,42,127,707604904
387,22,Ticks_Phase_8,245,1,48,33,707619260
387,22,Ticks_Phase_8,246,1,48,39,708398368
387,22,Ticks_Phase_8,247,5,42,127,708404612
387,22,Ticks_Phase_8,248,1,48,44,709174264
387,22,Ticks_Phase_8,249,5,42,127,709205520
387,22,Ticks_Phase_8,250,1,48,39,709996968
387,22,Ticks_Phase_8,251,5,42,127,710005308
387,22,Ticks_Phase_8,252,5,42,127,710804828
387,22,Ticks_Phase_8,253,1,48,39,710825472
387,22,Ticks_Phase_8,254,1,48,45,711603712
387,22,Ticks_Phase_8,255,5,42,127,711605504
387,22,Ticks_Phase_8,256,1,48,47,712348348
387,22,Ticks_Phase_8,257,5,42,127,712405588
387,22,Ticks_Phase_8,258,1,48,50,713136000
387,22,Ticks_Phase_8,259,5,42,127,713205152
387,22,Ticks_Phase_8,260,1,48,42,713973240
387,22,Ticks_Phase_8,261,5,42,127,714164688
387,22,Ticks_Phase_8,262,5,42,127,714965320
387,22,Ticks_Phase_8,263,1,48,34,715699268
387,22,Ticks_Phase_8,264,5,42,127,715765196
387,22,Ticks_Phase_8,265,1,48,34,716531472
387,22,Ticks_Phase_8,266,5,42,127,716564756
387,22,Ticks_Phase_8,267,5,42,127,717364476
387,22,Ticks_Phase_8,268,1,48,39,717386244
387,22,Ticks_Phase_8,269,5,42,127,718165380
387,22,Ticks_Phase_8,270,1,48,42,718190816
387,22,Ticks_Phase_8,271,5,42,127,718965316
387,22,Ticks_Phase_8,272,1,48,40,718966960
387,22,Ticks_Phase_8,273,5,42,127,719765056
387,22,Ticks_Phase_8,274,1,48,39,719800000
387,22,Ticks_Phase_8,275,5,42,127,720564468
387,22,Ticks_Phase_8,276,1,48,30,720586012
387,22,Ticks_Phase_8,277,1,48,34,721335316
387,22,Ticks_Phase_8,278,5,42,127,721365368
387,22,Ticks_Phase_8,279,5,42,127,722165084
387,22,Ticks_Phase_8,280,1,48,34,722171572
387,22,Ticks_Phase_8,281,1,48,36,722943572
387,22,Ticks_Phase_8,282,5,42,127,722964940
387,22,Ticks_Phase_8,283,1,48,35,723756164
387,22,Ticks_Phase_8,284,5,42,127,723764652
387,22,Ticks_Phase_8,285,1,48,34,724553932
387,22,Ticks_Phase_8,286,5,42,127,724565336
387,22,Ticks_Phase_8,287,1,48,35,725364456
387,22,Ticks_Phase_8,288,5,42,127,725366244
387,22,Ticks_Phase_8,289,1,48,39,726155744
387,22,Ticks_Phase_8,290,5,42,127,726164708
387,22,Ticks_Phase_8,291,1,48,39,726959148
387,22,Ticks_Phase_8,292,5,42,127,726964792
387,22,Ticks_Phase_8,293,1,48,40,727730696
387,22,Ticks_Phase_8,294,5,42,127,727765480
387,22,Ticks_Phase_8,295,1,48,27,728549584
387,22,Ticks_Phase_8,296,5,42,127,728565044
387,22,Ticks_Phase_8,297,5,42,127,729205148
387,22,Ticks_Phase_8,298,1,48,32,729400080
387,22,Ticks_Phase_8,299,5,42,127,730004812
387,22,Ticks_Phase_8,300,1,48,21,730098392
387,22,Ticks_Phase_8,301,5,42,127,730804596
387,22,Ticks_Phase_8,302,1,48,28,730879384
387,22,Ticks_Phase_8,303,1,48,39,731596036
387,22,Ticks_Phase_8,304,5,42,127,731605496
387,22,Ticks_Phase_8,305,5,42,127,732405144
387,22,Ticks_Phase_8,306,1,48,34,732424668
387,22,Ticks_Phase_8,307,1,48,35,733198004
387,22,Ticks_Phase_8,308,5,42,127,733204776
387,22,Ticks_Phase_8,309,1,48,38,733962212
387,22,Ticks_Phase_8,310,5,42,127,734004560
387,22,Ticks_Phase_8,311,5,42,127,734805548
387,22,Ticks_Phase_8,312,1,48,30,734810540
387,22,Ticks_Phase_8,313,5,42,127,735605036
387,22,Ticks_Phase_8,314,1,48,48,735668396
387,22,Ticks_Phase_8,315,1,48,38,736389732
387,22,Ticks_Phase_8,316,5,42,127,736405064
387,22,Ticks_Phase_8,317,5,42,127,737204484
387,22,Ticks_Phase_8,318,1,48,27,737215020
387,22,Ticks_Phase_8,319,5,42,127,738005540
387,22,Ticks_Phase_8,320,1,48,48,738683900
387,22,Ticks_Phase_8,321,5,42,127,738804956
387,22,Ticks_Phase_8,322,1,48,39,739572292
387,22,Ticks_Phase_8,323,5,42,127,739604904
387,22,Ticks_Phase_8,324,1,48,44,740343408
387,22,Ticks_Phase_8,325,5,42,127,740404544
387,22,Ticks_Phase_8,326,1,48,40,741187076
387,22,Ticks_Phase_8,327,5,42,127,741205448
387,22,Ticks_Phase_8,328,5,42,127,742005240
387,22,Ticks_Phase_8,329,1,48,32,742036548
387,22,Ticks_Phase_8,330,1,48,36,742768300
387,22,Ticks_Phase_8,331,5,42,127,742804824
387,22,Ticks_Phase_8,332,1,48,33,743553784
387,22,Ticks_Phase_8,333,5,42,127,743604536
387,22,Ticks_Phase_8,334,1,48,29,744344160
387,22,Ticks_Phase_8,335,5,42,127,744405444
387,22,Ticks_Phase_8,0,9999,9999,9999,609202280
387,22,Ticks_Phase_8,1,9999,9999,9999,610003060
387,22,Ticks_Phase_8,2,9999,9999,9999,610802792
387,22,Ticks_Phase_8,3,9999,9999,9999,611602500
387,22,Ticks_Phase_8,4,9999,9999,9999,612402288
387,22,Ticks_Phase_8,5,9999,9999,9999,613203052
387,22,Ticks_Phase_8,6,9999,9999,9999,614002764
387,22,Ticks_Phase_8,7,9999,9999,9999,614802544
387,22,Ticks_Phase_8,8,9999,9999,9999,615602280
387,22,Ticks_Phase_8,9,9999,9999,9999,616403036
387,22,Ticks_Phase_8,10,9999,9999,9999,617202748
387,22,Ticks_Phase_8,11,9999,9999,9999,618002536
387,22,Ticks_Phase_8,12,9999,9999,9999,618802248
387,22,Ticks_Phase_8,13,9999,9999,9999,619603004
387,22,Ticks_Phase_8,14,9999,9999,9999,620402792
387,22,Ticks_Phase_8,15,9999,9999,9999,621202504
387,22,Ticks_Phase_8,16,9999,9999,9999,622002240
387,22,Ticks_Phase_8,17,9999,9999,9999,622803000
387,22,Ticks_Phase_8,18,9999,9999,9999,623602784
387,22,Ticks_Phase_8,19,9999,9999,9999,624402496
387,22,Ticks_Phase_8,20,9999,9999,9999,625202280
387,22,Ticks_Phase_8,21,9999,9999,9999,626003040
387,22,Ticks_Phase_8,22,9999,9999,9999,626802752
387,22,Ticks_Phase_8,23,9999,9999,9999,627602540
387,22,Ticks_Phase_8,24,9999,9999,9999,628402284
387,22,Ticks_Phase_8,25,9999,9999,9999,629203040
387,22,Ticks_Phase_8,26,9999,9999,9999,630002748
387,22,Ticks_Phase_8,27,9999,9999,9999,630802532
387,22,Ticks_Phase_8,28,9999,9999,9999,631602244
387,22,Ticks_Phase_8,29,9999,9999,9999,632403004
387,22,Ticks_Phase_8,30,9999,9999,9999,633182280
387,22,Ticks_Phase_8,31,9999,9999,9999,633983032
387,22,Ticks_Phase_8,32,9999,9999,9999,634782844
387,22,Ticks_Phase_8,33,9999,9999,9999,635582556
387,22,Ticks_Phase_8,34,9999,9999,9999,636382268
387,22,Ticks_Phase_8,35,9999,9999,9999,637183032
387,22,Ticks_Phase_8,36,9999,9999,9999,637982812
387,22,Ticks_Phase_8,37,9999,9999,9999,638782524
387,22,Ticks_Phase_8,38,9999,9999,9999,639582308
387,22,Ticks_Phase_8,39,9999,9999,9999,640383068
387,22,Ticks_Phase_8,40,9999,9999,9999,641182812
387,22,Ticks_Phase_8,41,9999,9999,9999,641982524
387,22,Ticks_Phase_8,42,9999,9999,9999,642782312
387,22,Ticks_Phase_8,43,9999,9999,9999,643583060
387,22,Ticks_Phase_8,44,9999,9999,9999,644382772
387,22,Ticks_Phase_8,45,9999,9999,9999,645182560
387,22,Ticks_Phase_8,46,9999,9999,9999,645982272
387,22,Ticks_Phase_8,47,9999,9999,9999,646783036
387,22,Ticks_Phase_8,48,9999,9999,9999,647602236
387,22,Ticks_Phase_8,49,9999,9999,9999,648403072
387,22,Ticks_Phase_8,50,9999,9999,9999,649202788
387,22,Ticks_Phase_8,51,9999,9999,9999,650002500
387,22,Ticks_Phase_8,52,9999,9999,9999,650802288
387,22,Ticks_Phase_8,53,9999,9999,9999,651603036
387,22,Ticks_Phase_8,54,9999,9999,9999,652402752
387,22,Ticks_Phase_8,55,9999,9999,9999,653202536
387,22,Ticks_Phase_8,56,9999,9999,9999,654002272
387,22,Ticks_Phase_8,57,9999,9999,9999,654803032
387,22,Ticks_Phase_8,58,9999,9999,9999,655602748
387,22,Ticks_Phase_8,59,9999,9999,9999,656402528
387,22,Ticks_Phase_8,60,9999,9999,9999,657202240
387,22,Ticks_Phase_8,61,9999,9999,9999,658003000
387,22,Ticks_Phase_8,62,9999,9999,9999,658802792
387,22,Ticks_Phase_8,63,9999,9999,9999,659602504
387,22,Ticks_Phase_8,64,9999,9999,9999,660442200
387,22,Ticks_Phase_8,65,9999,9999,9999,661242960
387,22,Ticks_Phase_8,66,9999,9999,9999,662042748
387,22,Ticks_Phase_8,67,9999,9999,9999,662842464
387,22,Ticks_Phase_8,68,9999,9999,9999,663642168
387,22,Ticks_Phase_8,69,9999,9999,9999,664443004
387,22,Ticks_Phase_8,70,9999,9999,9999,665242736
387,22,Ticks_Phase_8,71,9999,9999,9999,666042456
387,22,Ticks_Phase_8,72,9999,9999,9999,666842172
387,22,Ticks_Phase_8,73,9999,9999,9999,667643000
387,22,Ticks_Phase_8,74,9999,9999,9999,668442716
387,22,Ticks_Phase_8,75,9999,9999,9999,669242496
387,22,Ticks_Phase_8,76,9999,9999,9999,670042208
387,22,Ticks_Phase_8,77,9999,9999,9999,670842968
387,22,Ticks_Phase_8,78,9999,9999,9999,671642700
387,22,Ticks_Phase_8,79,9999,9999,9999,672442488
387,22,Ticks_Phase_8,80,9999,9999,9999,673242200
387,22,Ticks_Phase_8,81,9999,9999,9999,674003044
387,22,Ticks_Phase_8,82,9999,9999,9999,674802756
387,22,Ticks_Phase_8,83,9999,9999,9999,675602544
387,22,Ticks_Phase_8,84,9999,9999,9999,676402264
387,22,Ticks_Phase_8,85,9999,9999,9999,677203020
387,22,Ticks_Phase_8,86,9999,9999,9999,678002808
387,22,Ticks_Phase_8,87,9999,9999,9999,678802520
387,22,Ticks_Phase_8,88,9999,9999,9999,679602248
387,22,Ticks_Phase_8,89,9999,9999,9999,680403016
387,22,Ticks_Phase_8,90,9999,9999,9999,681202804
387,22,Ticks_Phase_8,91,9999,9999,9999,682002508
387,22,Ticks_Phase_8,92,9999,9999,9999,682802296
387,22,Ticks_Phase_8,93,9999,9999,9999,683603052
387,22,Ticks_Phase_8,94,9999,9999,9999,684402764
387,22,Ticks_Phase_8,95,9999,9999,9999,685202552
387,22,Ticks_Phase_8,96,9999,9999,9999,686002264
387,22,Ticks_Phase_8,97,9999,9999,9999,686722124
387,22,Ticks_Phase_8,98,9999,9999,9999,687522904
387,22,Ticks_Phase_8,99,9999,9999,9999,688322616
387,22,Ticks_Phase_8,100,9999,9999,9999,689122400
387,22,Ticks_Phase_8,101,9999,9999,9999,689922112
387,22,Ticks_Phase_8,102,9999,9999,9999,690722868
387,22,Ticks_Phase_8,103,9999,9999,9999,691522660
387,22,Ticks_Phase_8,104,9999,9999,9999,692322372
387,22,Ticks_Phase_8,105,9999,9999,9999,693122156
387,22,Ticks_Phase_8,106,9999,9999,9999,693922940
387,22,Ticks_Phase_8,107,9999,9999,9999,694722652
387,22,Ticks_Phase_8,108,9999,9999,9999,695522364
387,22,Ticks_Phase_8,109,9999,9999,9999,696322152
387,22,Ticks_Phase_8,110,9999,9999,9999,697122912
387,22,Ticks_Phase_8,111,9999,9999,9999,697922628
387,22,Ticks_Phase_8,112,9999,9999,9999,698722388
387,22,Ticks_Phase_8,113,9999,9999,9999,699522172
387,22,Ticks_Phase_8,114,9999,9999,9999,700402772
387,22,Ticks_Phase_8,115,9999,9999,9999,701202500
387,22,Ticks_Phase_8,116,9999,9999,9999,702002288
387,22,Ticks_Phase_8,117,9999,9999,9999,702803052
387,22,Ticks_Phase_8,118,9999,9999,9999,703602764
387,22,Ticks_Phase_8,119,9999,9999,9999,704402544
387,22,Ticks_Phase_8,120,9999,9999,9999,705202280
387,22,Ticks_Phase_8,121,9999,9999,9999,706003044
387,22,Ticks_Phase_8,122,9999,9999,9999,706802760
387,22,Ticks_Phase_8,123,9999,9999,9999,707602544
387,22,Ticks_Phase_8,124,9999,9999,9999,708402252
387,22,Ticks_Phase_8,125,9999,9999,9999,709203008
387,22,Ticks_Phase_8,126,9999,9999,9999,710002796
387,22,Ticks_Phase_8,127,9999,9999,9999,710802516
387,22,Ticks_Phase_8,128,9999,9999,9999,711602252
387,22,Ticks_Phase_8,129,9999,9999,9999,712403004
387,22,Ticks_Phase_8,130,9999,9999,9999,713202792
387,22,Ticks_Phase_8,131,9999,9999,9999,714162252
387,22,Ticks_Phase_8,132,9999,9999,9999,714963032
387,22,Ticks_Phase_8,133,9999,9999,9999,715762760
387,22,Ticks_Phase_8,134,9999,9999,9999,716562544
387,22,Ticks_Phase_8,135,9999,9999,9999,717362264
387,22,Ticks_Phase_8,136,9999,9999,9999,718163020
387,22,Ticks_Phase_8,137,9999,9999,9999,718962808
387,22,Ticks_Phase_8,138,9999,9999,9999,719762544
387,22,Ticks_Phase_8,139,9999,9999,9999,720562256
387,22,Ticks_Phase_8,140,9999,9999,9999,721363008
387,22,Ticks_Phase_8,141,9999,9999,9999,722162800
387,22,Ticks_Phase_8,142,9999,9999,9999,722962508
387,22,Ticks_Phase_8,143,9999,9999,9999,723762292
387,22,Ticks_Phase_8,144,9999,9999,9999,724563048
387,22,Ticks_Phase_8,145,9999,9999,9999,725362768
387,22,Ticks_Phase_8,146,9999,9999,9999,726162496
387,22,Ticks_Phase_8,147,9999,9999,9999,726962284
387,22,Ticks_Phase_8,148,9999,9999,9999,727763044
387,22,Ticks_Phase_8,149,9999,9999,9999,728562756
387,22,Ticks_Phase_8,150,9999,9999,9999,729202788
387,22,Ticks_Phase_8,151,9999,9999,9999,730002524
387,22,Ticks_Phase_8,152,9999,9999,9999,730802236
387,22,Ticks_Phase_8,153,9999,9999,9999,731603064
387,22,Ticks_Phase_8,154,9999,9999,9999,732402784
387,22,Ticks_Phase_8,155,9999,9999,9999,733202488
387,22,Ticks_Phase_8,156,9999,9999,9999,734002276
387,22,Ticks_Phase_8,157,9999,9999,9999,734803040
387,22,Ticks_Phase_8,158,9999,9999,9999,735602752
387,22,Ticks_Phase_8,159,9999,9999,9999,736402556
387,22,Ticks_Phase_8,160,9999,9999,9999,737202272
387,22,Ticks_Phase_8,161,9999,9999,9999,738003032
387,22,Ticks_Phase_8,162,9999,9999,9999,738802744
387,22,Ticks_Phase_8,163,9999,9999,9999,739602544
387,22,Ticks_Phase_8,164,9999,9999,9999,740402256
387,22,Ticks_Phase_8,165,9999,9999,9999,741203012
387,22,Ticks_Phase_8,166,9999,9999,9999,742002808
387,22,Ticks_Phase_8,167,9999,9999,9999,742802536
387,22,Ticks_Phase_8,168,9999,9999,9999,743602248
387,22,Ticks_Phase_8,169,9999,9999,9999,744403008
388,10,Ticks_ISO_T2_5,0,5,42,127,758952320
388,10,Ticks_ISO_T2_5,1,5,42,127,759451884
388,10,Ticks_ISO_T2_5,2,1,48,39,759934112
388,10,Ticks_ISO_T2_5,3,5,42,127,759951968
388,10,Ticks_ISO_T2_5,4,5,42,127,760451496
388,10,Ticks_ISO_T2_5,5,1,48,30,760452984
388,10,Ticks_ISO_T2_5,6,1,48,38,760910532
388,10,Ticks_ISO_T2_5,7,5,42,127,760952156
388,10,Ticks_ISO_T2_5,8,1,48,41,761448824
388,10,Ticks_ISO_T2_5,9,5,42,127,761451924
388,10,Ticks_ISO_T2_5,10,1,48,35,761947476
388,10,Ticks_ISO_T2_5,11,5,42,127,761951696
388,10,Ticks_ISO_T2_5,12,1,48,29,762452368
388,10,Ticks_ISO_T2_5,13,5,42,127,762453856
388,10,Ticks_ISO_T2_5,14,5,42,127,762951916
388,10,Ticks_ISO_T2_5,15,1,48,40,762952880
388,10,Ticks_ISO_T2_5,16,5,42,127,763451684
388,10,Ticks_ISO_T2_5,17,1,48,39,763461232
388,10,Ticks_ISO_T2_5,18,5,42,127,763951452
388,10,Ticks_ISO_T2_5,19,1,48,42,763965192
388,10,Ticks_ISO_T2_5,20,5,42,127,764452192
388,10,Ticks_ISO_T2_5,21,1,48,30,764464216
388,10,Ticks_ISO_T2_5,22,5,42,127,764951812
388,10,Ticks_ISO_T2_5,23,1,48,39,764983952
388,10,Ticks_ISO_T2_5,24,5,42,127,765451584
388,10,Ticks_ISO_T2_5,25,1,48,16,765480952
388,10,Ticks_ISO_T2_5,26,5,42,127,765952472
388,10,Ticks_ISO_T2_5,27,1,48,34,765973620
388,10,Ticks_ISO_T2_5,28,5,42,127,766452240
388,10,Ticks_ISO_T2_5,29,1,48,40,766464336
388,10,Ticks_ISO_T2_5,30,1,48,36,766945984
388,10,Ticks_ISO_T2_5,31,5,42,127,766951852
388,10,Ticks_ISO_T2_5,32,1,48,35,767441492
388,10,Ticks_ISO_T2_5,33,5,42,127,767451400
388,10,Ticks_ISO_T2_5,34,1,48,46,767920320
388,10,Ticks_ISO_T2_5,35,5,42,127,767952364
388,10,Ticks_ISO_T2_5,36,1,48,41,768444248
388,10,Ticks_ISO_T2_5,37,5,42,127,768451912
388,10,Ticks_ISO_T2_5,38,5,42,127,768951688
388,10,Ticks_ISO_T2_5,39,1,48,39,768956452
388,10,Ticks_ISO_T2_5,40,5,42,127,769452356
388,10,Ticks_ISO_T2_5,41,1,48,31,769460856
388,10,Ticks_ISO_T2_5,42,5,42,127,769952196
388,10,Ticks_ISO_T2_5,43,1,48,44,769966388
388,10,Ticks_ISO_T2_5,44,5,42,127,770451744
388,10,Ticks_ISO_T2_5,45,1,48,40,770453532
388,10,Ticks_ISO_T2_5,46,5,42,127,770951412
388,10,Ticks_ISO_T2_5,47,1,48,41,770971012
388,10,Ticks_ISO_T2_5,48,5,42,127,771452304
388,10,Ticks_ISO_T2_5,49,1,48,37,771459612
388,10,Ticks_ISO_T2_5,50,5,42,127,771951996
388,10,Ticks_ISO_T2_5,51,1,48,41,771959308
388,10,Ticks_ISO_T2_5,52,5,42,127,772451544
388,10,Ticks_ISO_T2_5,53,1,48,28,772463040
388,10,Ticks_ISO_T2_5,54,5,42,127,772952288
388,10,Ticks_ISO_T2_5,55,1,48,37,772975828
388,10,Ticks_ISO_T2_5,56,5,42,127,773452204
388,10,Ticks_ISO_T2_5,57,1,48,34,773456448
388,10,Ticks_ISO_T2_5,58,1,48,39,773936456
388,10,Ticks_ISO_T2_5,59,5,42,127,773952040
388,10,Ticks_ISO_T2_5,60,5,42,127,774451496
388,10,Ticks_ISO_T2_5,61,1,48,32,774465232
388,10,Ticks_ISO_T2_5,62,5,42,127,774952460
388,10,Ticks_ISO_T2_5,63,1,48,40,774970092
388,10,Ticks_ISO_T2_5,64,5,42,127,775452008
388,10,Ticks_ISO_T2_5,65,1,48,38,775461780
388,10,Ticks_ISO_T2_5,66,5,42,127,775951852
388,10,Ticks_ISO_T2_5,67,1,48,37,775975992
388,10,Ticks_ISO_T2_5,68,1,48,37,776448812
388,10,Ticks_ISO_T2_5,69,5,42,127,776451392
388,10,Ticks_ISO_T2_5,70,1,48,43,776944468
388,10,Ticks_ISO_T2_5,71,5,42,127,776952132
388,10,Ticks_ISO_T2_5,72,5,42,127,777452060
388,10,Ticks_ISO_T2_5,73,1,48,40,777457800
388,10,Ticks_ISO_T2_5,74,5,42,127,777951528
388,10,Ticks_ISO_T2_5,75,1,48,41,777958016
388,10,Ticks_ISO_T2_5,76,5,42,127,778452272
388,10,Ticks_ISO_T2_5,77,1,48,40,778460628
388,10,Ticks_ISO_T2_5,78,5,42,127,778951968
388,10,Ticks_ISO_T2_5,79,1,48,41,778962936
388,10,Ticks_ISO_T2_5,80,5,42,127,779451812
388,10,Ticks_ISO_T2_5,81,1,48,42,779455380
388,10,Ticks_ISO_T2_5,82,5,42,127,779951584
388,10,Ticks_ISO_T2_5,83,1,48,33,779985816
388,10,Ticks_ISO_T2_5,84,5,42,127,780452252
388,10,Ticks_ISO_T2_5,85,1,48,42,780458512
388,10,Ticks_ISO_T2_5,86,1,48,43,780937300
388,10,Ticks_ISO_T2_5,87,5,42,127,780952012
388,10,Ticks_ISO_T2_5,88,1,48,42,781443872
388,10,Ticks_ISO_T2_5,89,5,42,127,781451760
388,10,Ticks_ISO_T2_5,90,5,42,127,781952284
388,10,Ticks_ISO_T2_5,91,1,48,28,781975920
388,10,Ticks_ISO_T2_5,92,5,42,127,782452052
388,10,Ticks_ISO_T2_5,93,1,48,39,782464820
388,10,Ticks_ISO_T2_5,94,1,48,43,782938616
388,10,Ticks_ISO_T2_5,95,5,42,127,782951740
388,10,Ticks_ISO_T2_5,96,1,48,51,783421032
388,10,Ticks_ISO_T2_5,97,5,42,127,783451656
388,10,Ticks_ISO_T2_5,98,5,42,127,783952184
388,10,Ticks_ISO_T2_5,99,1,48,39,783991724
388,10,Ticks_ISO_T2_5,100,5,42,127,784452028
388,10,Ticks_ISO_T2_5,101,1,48,34,784508476
388,10,Ticks_ISO_T2_5,102,5,42,127,784951796
388,10,Ticks_ISO_T2_5,103,1,48,42,784987900
388,10,Ticks_ISO_T2_5,104,5,42,127,785452612
388,10,Ticks_ISO_T2_5,105,1,48,49,785460072
388,10,Ticks_ISO_T2_5,106,1,48,43,785938656
388,10,Ticks_ISO_T2_5,107,5,42,127,785952004
388,10,Ticks_ISO_T2_5,108,1,48,42,786448372
388,10,Ticks_ISO_T2_5,109,5,42,127,786451848
388,10,Ticks_ISO_T2_5,110,1,48,42,786948816
388,10,Ticks_ISO_T2_5,111,5,42,127,786951764
388,10,Ticks_ISO_T2_5,112,5,42,127,787452292
388,10,Ticks_ISO_T2_5,113,1,48,47,787456012
388,10,Ticks_ISO_T2_5,114,5,42,127,787951912
388,10,Ticks_ISO_T2_5,115,1,48,41,787958696
388,10,Ticks_ISO_T2_5,116,5,42,127,788451832
388,10,Ticks_ISO_T2_5,117,1,48,45,788459888
388,10,Ticks_ISO_T2_5,118,5,42,127,788952720
388,10,Ticks_ISO_T2_5,119,1,48,47,788957488
388,10,Ticks_ISO_T2_5,120,1,48,48,789438692
388,10,Ticks_ISO_T2_5,121,5,42,127,789452112
388,10,Ticks_ISO_T2_5,122,5,42,127,789951812
388,10,Ticks_ISO_T2_5,123,1,48,49,789953900
388,10,Ticks_ISO_T2_5,124,5,42,127,790451508
388,10,Ticks_ISO_T2_5,125,1,48,48,790456944
388,10,Ticks_ISO_T2_5,126,5,42,127,790952548
388,10,Ticks_ISO_T2_5,127,1,48,42,790958956
388,10,Ticks_ISO_T2_5,128,5,42,127,791451868
388,10,Ticks_ISO_T2_5,129,1,48,48,791459624
388,10,Ticks_ISO_T2_5,130,5,42,127,791951712
388,10,Ticks_ISO_T2_5,131,1,48,46,791961484
388,10,Ticks_ISO_T2_5,132,1,48,50,792442964
388,10,Ticks_ISO_T2_5,133,5,42,127,792451376
388,10,Ticks_ISO_T2_5,134,5,42,127,792952344
388,10,Ticks_ISO_T2_5,135,1,48,29,792964516
388,10,Ticks_ISO_T2_5,136,1,48,43,793444596
388,10,Ticks_ISO_T2_5,137,5,42,127,793451736
388,10,Ticks_ISO_T2_5,138,5,42,127,793951736
388,10,Ticks_ISO_T2_5,139,1,48,38,793956876
388,10,Ticks_ISO_T2_5,140,1,48,40,794447952
388,10,Ticks_ISO_T2_5,141,5,42,127,794452244
388,10,Ticks_ISO_T2_5,142,1,48,50,794939492
388,10,Ticks_ISO_T2_5,143,5,42,127,794952312
388,10,Ticks_ISO_T2_5,144,1,48,48,795427592
388,10,Ticks_ISO_T2_5,145,5,42,127,795451708
388,10,Ticks_ISO_T2_5,146,5,42,127,795951560
388,10,Ticks_ISO_T2_5,147,1,48,42,795982800
388,10,Ticks_ISO_T2_5,148,5,42,127,796452376
388,10,Ticks_ISO_T2_5,149,1,48,35,796469708
388,10,Ticks_ISO_T2_5,150,5,42,127,796952072
388,10,Ticks_ISO_T2_5,151,1,48,40,796969180
388,10,Ticks_ISO_T2_5,152,5,42,127,797451616
388,10,Ticks_ISO_T2_5,153,1,48,51,797945012
388,10,Ticks_ISO_T2_5,154,5,42,127,797952228
388,10,Ticks_ISO_T2_5,155,1,48,53,798447248
388,10,Ticks_ISO_T2_5,156,5,42,127,798452068
388,10,Ticks_ISO_T2_5,157,1,48,44,798944100
388,10,Ticks_ISO_T2_5,158,5,42,127,798951840
388,10,Ticks_ISO_T2_5,159,1,48,43,799438484
388,10,Ticks_ISO_T2_5,160,5,42,127,799451532
388,10,Ticks_ISO_T2_5,161,1,48,46,799931220
388,10,Ticks_ISO_T2_5,162,5,42,127,799952276
388,10,Ticks_ISO_T2_5,163,1,48,42,800440940
388,10,Ticks_ISO_T2_5,164,5,42,127,800452120
388,10,Ticks_ISO_T2_5,165,1,48,45,800932932
388,10,Ticks_ISO_T2_5,166,5,42,127,800951516
388,10,Ticks_ISO_T2_5,167,1,48,44,801429564
388,10,Ticks_ISO_T2_5,168,5,42,127,801452332
388,10,Ticks_ISO_T2_5,169,1,48,40,801936280
388,10,Ticks_ISO_T2_5,170,5,42,127,801952100
388,10,Ticks_ISO_T2_5,171,1,48,37,802419128
388,10,Ticks_ISO_T2_5,172,5,42,127,802452092
388,10,Ticks_ISO_T2_5,173,1,48,35,802923380
388,10,Ticks_ISO_T2_5,174,5,42,127,802951468
388,10,Ticks_ISO_T2_5,175,1,48,35,803446940
388,10,Ticks_ISO_T2_5,176,5,42,127,803452132
388,10,Ticks_ISO_T2_5,177,1,48,32,803925836
388,10,Ticks_ISO_T2_5,178,5,42,127,803951904
388,10,Ticks_ISO_T2_5,179,1,48,40,804427856
388,10,Ticks_ISO_T2_5,180,5,42,127,804451820
388,10,Ticks_ISO_T2_5,181,1,48,36,804936592
388,10,Ticks_ISO_T2_5,182,5,42,127,804952412
388,10,Ticks_ISO_T2_5,183,5,42,127,805452116
388,10,Ticks_ISO_T2_5,184,1,48,32,805460692
388,10,Ticks_ISO_T2_5,185,1,48,38,805944588
388,10,Ticks_ISO_T2_5,186,5,42,127,805952024
388,10,Ticks_ISO_T2_5,187,1,48,39,806418704
388,10,Ticks_ISO_T2_5,188,5,42,127,806451420
388,10,Ticks_ISO_T2_5,189,1,48,40,806930664
388,10,Ticks_ISO_T2_5,190,5,42,127,806952460
388,10,Ticks_ISO_T2_5,191,1,48,32,807437984
388,10,Ticks_ISO_T2_5,192,5,42,127,807452004
388,10,Ticks_ISO_T2_5,193,1,48,26,807945532
388,10,Ticks_ISO_T2_5,194,5,42,127,807951848
388,10,Ticks_ISO_T2_5,195,1,48,32,808444552
388,10,Ticks_ISO_T2_5,196,5,42,127,808451692
388,10,Ticks_ISO_T2_5,197,1,48,31,808947768
388,10,Ticks_ISO_T2_5,198,5,42,127,808952136
388,10,Ticks_ISO_T2_5,199,5,42,127,809451912
388,10,Ticks_ISO_T2_5,200,1,48,33,809460344
388,10,Ticks_ISO_T2_5,201,1,48,30,809943120
388,10,Ticks_ISO_T2_5,202,5,42,127,809951676
388,10,Ticks_ISO_T2_5,203,1,48,37,810422468
388,10,Ticks_ISO_T2_5,204,5,42,127,810452268
388,10,Ticks_ISO_T2_5,205,1,48,30,810949088
388,10,Ticks_ISO_T2_5,206,5,42,127,810952112
388,10,Ticks_ISO_T2_5,207,1,48,28,811445564
388,10,Ticks_ISO_T2_5,208,5,42,127,811451880
388,10,Ticks_ISO_T2_5,209,5,42,127,811951732
388,10,Ticks_ISO_T2_5,210,1,48,30,811958964
388,10,Ticks_ISO_T2_5,211,1,48,30,812443088
388,10,Ticks_ISO_T2_5,212,5,42,127,812452096
388,10,Ticks_ISO_T2_5,213,1,48,30,812927720
388,10,Ticks_ISO_T2_5,214,5,42,127,812951788
388,10,Ticks_ISO_T2_5,215,1,48,28,813449104
388,10,Ticks_ISO_T2_5,216,5,42,127,813452000
388,10,Ticks_ISO_T2_5,217,5,42,127,813952648
388,10,Ticks_ISO_T2_5,218,1,48,21,813967984
388,10,Ticks_ISO_T2_5,219,5,42,127,814452044
388,10,Ticks_ISO_T2_5,220,1,48,22,814464960
388,10,Ticks_ISO_T2_5,221,1,48,24,814934864
388,10,Ticks_ISO_T2_5,222,5,42,127,814951656
388,10,Ticks_ISO_T2_5,223,1,48,21,815447280
388,10,Ticks_ISO_T2_5,224,5,42,127,815451500
388,10,Ticks_ISO_T2_5,225,1,48,22,815931568
388,10,Ticks_ISO_T2_5,226,5,42,127,815952316
388,10,Ticks_ISO_T2_5,227,1,48,32,816418920
388,10,Ticks_ISO_T2_5,228,5,42,127,816451940
388,10,Ticks_ISO_T2_5,229,1,48,20,816948832
388,10,Ticks_ISO_T2_5,230,5,42,127,816951632
388,10,Ticks_ISO_T2_5,231,5,42,127,817452384
388,10,Ticks_ISO_T2_5,232,1,48,21,817471204
388,10,Ticks_ISO_T2_5,233,1,48,27,817949192
388,10,Ticks_ISO_T2_5,234,5,42,127,817952140
388,10,Ticks_ISO_T2_5,235,1,48,27,818448140
388,10,Ticks_ISO_T2_5,236,5,42,127,818451912
388,10,Ticks_ISO_T2_5,237,1,48,40,818950408
388,10,Ticks_ISO_T2_5,238,5,42,127,818952052
388,10,Ticks_ISO_T2_5,239,1,48,43,819434664
388,10,Ticks_ISO_T2_5,240,5,42,127,819452272
388,10,Ticks_ISO_T2_5,241,1,48,40,819944980
388,10,Ticks_ISO_T2_5,242,5,42,127,819951896
388,10,Ticks_ISO_T2_5,243,5,42,127,820451820
388,10,Ticks_ISO_T2_5,244,1,48,43,820471396
388,10,Ticks_ISO_T2_5,245,5,42,127,820952340
388,10,Ticks_ISO_T2_5,246,1,48,40,820960164
388,10,Ticks_ISO_T2_5,247,1,48,47,821437180
388,10,Ticks_ISO_T2_5,248,5,42,127,821452396
388,10,Ticks_ISO_T2_5,249,1,48,43,821928424
388,10,Ticks_ISO_T2_5,250,5,42,127,821951720
388,10,Ticks_ISO_T2_5,251,5,42,127,822451496
388,10,Ticks_ISO_T2_5,252,1,48,43,822455136
388,10,Ticks_ISO_T2_5,253,1,48,41,822934548
388,10,Ticks_ISO_T2_5,254,5,42,127,822952380
388,10,Ticks_ISO_T2_5,255,1,48,47,823446500
388,10,Ticks_ISO_T2_5,256,5,42,127,823452148
388,10,Ticks_ISO_T2_5,257,1,48,45,823933988
388,10,Ticks_ISO_T2_5,0,9999,9999,9999,758949956
388,10,Ticks_ISO_T2_5,1,9999,9999,9999,759449672
388,10,Ticks_ISO_T2_5,2,9999,9999,9999,759949432
388,10,Ticks_ISO_T2_5,3,9999,9999,9999,760449136
388,10,Ticks_ISO_T2_5,4,9999,9999,9999,760949868
388,10,Ticks_ISO_T2_5,5,9999,9999,9999,761449564
388,10,Ticks_ISO_T2_5,6,9999,9999,9999,761949260
388,10,Ticks_ISO_T2_5,7,9999,9999,9999,762450008
388,10,Ticks_ISO_T2_5,8,9999,9999,9999,762949704
388,10,Ticks_ISO_T2_5,9,9999,9999,9999,763449396
388,10,Ticks_ISO_T2_5,10,9999,9999,9999,763949168
388,10,Ticks_ISO_T2_5,11,9999,9999,9999,764449908
388,10,Ticks_ISO_T2_5,12,9999,9999,9999,764949600
388,10,Ticks_ISO_T2_5,13,9999,9999,9999,765449296
388,10,Ticks_ISO_T2_5,14,9999,9999,9999,765950036
388,10,Ticks_ISO_T2_5,15,9999,9999,9999,766449732
388,10,Ticks_ISO_T2_5,16,9999,9999,9999,766949492
388,10,Ticks_ISO_T2_5,17,9999,9999,9999,767449188
388,10,Ticks_ISO_T2_5,18,9999,9999,9999,767949928
388,10,Ticks_ISO_T2_5,19,9999,9999,9999,768449624
388,10,Ticks_ISO_T2_5,20,9999,9999,9999,768949328
388,10,Ticks_ISO_T2_5,21,9999,9999,9999,769450068
388,10,Ticks_ISO_T2_5,22,9999,9999,9999,769949760
388,10,Ticks_ISO_T2_5,23,9999,9999,9999,770449456
388,10,Ticks_ISO_T2_5,24,9999,9999,9999,770949200
388,10,Ticks_ISO_T2_5,25,9999,9999,9999,771449940
388,10,Ticks_ISO_T2_5,26,9999,9999,9999,771949636
388,10,Ticks_ISO_T2_5,27,9999,9999,9999,772449332
388,10,Ticks_ISO_T2_5,28,9999,9999,9999,772950076
388,10,Ticks_ISO_T2_5,29,9999,9999,9999,773449844
388,10,Ticks_ISO_T2_5,30,9999,9999,9999,773949532
388,10,Ticks_ISO_T2_5,31,9999,9999,9999,774449208
388,10,Ticks_ISO_T2_5,32,9999,9999,9999,774949952
388,10,Ticks_ISO_T2_5,33,9999,9999,9999,775449720
388,10,Ticks_ISO_T2_5,34,9999,9999,9999,775949416
388,10,Ticks_ISO_T2_5,35,9999,9999,9999,776449104
388,10,Ticks_ISO_T2_5,36,9999,9999,9999,776949848
388,10,Ticks_ISO_T2_5,37,9999,9999,9999,777449548
388,10,Ticks_ISO_T2_5,38,9999,9999,9999,777949244
388,10,Ticks_ISO_T2_5,39,9999,9999,9999,778449984
388,10,Ticks_ISO_T2_5,40,9999,9999,9999,778949680
388,10,Ticks_ISO_T2_5,41,9999,9999,9999,779449452
388,10,Ticks_ISO_T2_5,42,9999,9999,9999,779949148
388,10,Ticks_ISO_T2_5,43,9999,9999,9999,780449892
388,10,Ticks_ISO_T2_5,44,9999,9999,9999,780949580
388,10,Ticks_ISO_T2_5,45,9999,9999,9999,781449324
388,10,Ticks_ISO_T2_5,46,9999,9999,9999,781950072
388,10,Ticks_ISO_T2_5,47,9999,9999,9999,782449764
388,10,Ticks_ISO_T2_5,48,9999,9999,9999,782949456
388,10,Ticks_ISO_T2_5,49,9999,9999,9999,783449148
388,10,Ticks_ISO_T2_5,50,9999,9999,9999,783949896
388,10,Ticks_ISO_T2_5,51,9999,9999,9999,784449592
388,10,Ticks_ISO_T2_5,52,9999,9999,9999,784949360
388,10,Ticks_ISO_T2_5,53,9999,9999,9999,785450104
388,10,Ticks_ISO_T2_5,54,9999,9999,9999,785949792
388,10,Ticks_ISO_T2_5,55,9999,9999,9999,786449488
388,10,Ticks_ISO_T2_5,56,9999,9999,9999,786949180
388,10,Ticks_ISO_T2_5,57,9999,9999,9999,787449928
388,10,Ticks_ISO_T2_5,58,9999,9999,9999,787949624
388,10,Ticks_ISO_T2_5,59,9999,9999,9999,788449396
388,10,Ticks_ISO_T2_5,60,9999,9999,9999,788950136
388,10,Ticks_ISO_T2_5,61,9999,9999,9999,789449824
388,10,Ticks_ISO_T2_5,62,9999,9999,9999,789949524
388,10,Ticks_ISO_T2_5,63,9999,9999,9999,790449220
388,10,Ticks_ISO_T2_5,64,9999,9999,9999,790949964
388,10,Ticks_ISO_T2_5,65,9999,9999,9999,791449656
388,10,Ticks_ISO_T2_5,66,9999,9999,9999,791949424
388,10,Ticks_ISO_T2_5,67,9999,9999,9999,792449088
388,10,Ticks_ISO_T2_5,68,9999,9999,9999,792949836
388,10,Ticks_ISO_T2_5,69,9999,9999,9999,793449524
388,10,Ticks_ISO_T2_5,70,9999,9999,9999,793949300
388,10,Ticks_ISO_T2_5,71,9999,9999,9999,794450032
388,10,Ticks_ISO_T2_5,72,9999,9999,9999,794949728
388,10,Ticks_ISO_T2_5,73,9999,9999,9999,795449424
388,10,Ticks_ISO_T2_5,74,9999,9999,9999,795949124
388,10,Ticks_ISO_T2_5,75,9999,9999,9999,796449868
388,10,Ticks_ISO_T2_5,76,9999,9999,9999,796949560
388,10,Ticks_ISO_T2_5,77,9999,9999,9999,797449332
388,10,Ticks_ISO_T2_5,78,9999,9999,9999,797950012
388,10,Ticks_ISO_T2_5,79,9999,9999,9999,798449784
388,10,Ticks_ISO_T2_5,80,9999,9999,9999,798949476
388,10,Ticks_ISO_T2_5,81,9999,9999,9999,799449172
388,10,Ticks_ISO_T2_5,82,9999,9999,9999,799949916
388,10,Ticks_ISO_T2_5,83,9999,9999,9999,800449608
388,10,Ticks_ISO_T2_5,84,9999,9999,9999,800949304
388,10,Ticks_ISO_T2_5,85,9999,9999,9999,801450044
388,10,Ticks_ISO_T2_5,86,9999,9999,9999,801949816
388,10,Ticks_ISO_T2_5,87,9999,9999,9999,802449508
388,10,Ticks_ISO_T2_5,88,9999,9999,9999,802949180
388,10,Ticks_ISO_T2_5,89,9999,9999,9999,803449920
388,10,Ticks_ISO_T2_5,90,9999,9999,9999,803949616
388,10,Ticks_ISO_T2_5,91,9999,9999,9999,804449384
388,10,Ticks_ISO_T2_5,92,9999,9999,9999,804950128
388,10,Ticks_ISO_T2_5,93,9999,9999,9999,805449828
388,10,Ticks_ISO_T2_5,94,9999,9999,9999,805949516
388,10,Ticks_ISO_T2_5,95,9999,9999,9999,806449208
388,10,Ticks_ISO_T2_5,96,9999,9999,9999,806949952
388,10,Ticks_ISO_T2_5,97,9999,9999,9999,807449720
388,10,Ticks_ISO_T2_5,98,9999,9999,9999,807949412
388,10,Ticks_ISO_T2_5,99,9999,9999,9999,808449108
388,10,Ticks_ISO_T2_5,100,9999,9999,9999,808949848
388,10,Ticks_ISO_T2_5,101,9999,9999,9999,809449552
388,10,Ticks_ISO_T2_5,102,9999,9999,9999,809949240
388,10,Ticks_ISO_T2_5,103,9999,9999,9999,810449984
388,10,Ticks_ISO_T2_5,104,9999,9999,9999,810949752
388,10,Ticks_ISO_T2_5,105,9999,9999,9999,811449448
388,10,Ticks_ISO_T2_5,106,9999,9999,9999,811949148
388,10,Ticks_ISO_T2_5,107,9999,9999,9999,812449884
388,10,Ticks_ISO_T2_5,108,9999,9999,9999,812949576
388,10,Ticks_ISO_T2_5,109,9999,9999,9999,813449324
388,10,Ticks_ISO_T2_5,110,9999,9999,9999,813950064
388,10,Ticks_ISO_T2_5,111,9999,9999,9999,814449756
388,10,Ticks_ISO_T2_5,112,9999,9999,9999,814949444
388,10,Ticks_ISO_T2_5,113,9999,9999,9999,815449140
388,10,Ticks_ISO_T2_5,114,9999,9999,9999,815949880
388,10,Ticks_ISO_T2_5,115,9999,9999,9999,816449652
388,10,Ticks_ISO_T2_5,116,9999,9999,9999,816949348
388,10,Ticks_ISO_T2_5,117,9999,9999,9999,817450096
388,10,Ticks_ISO_T2_5,118,9999,9999,9999,817949780
388,10,Ticks_ISO_T2_5,119,9999,9999,9999,818449476
388,10,Ticks_ISO_T2_5,120,9999,9999,9999,818949180
388,10,Ticks_ISO_T2_5,121,9999,9999,9999,819449912
388,10,Ticks_ISO_T2_5,122,9999,9999,9999,819949684
388,10,Ticks_ISO_T2_5,123,9999,9999,9999,820449384
388,10,Ticks_ISO_T2_5,124,9999,9999,9999,820950124
388,10,Ticks_ISO_T2_5,125,9999,9999,9999,821449812
388,10,Ticks_ISO_T2_5,126,9999,9999,9999,821949508
388,10,Ticks_ISO_T2_5,127,9999,9999,9999,822449208
388,10,Ticks_ISO_T2_5,128,9999,9999,9999,822949944
388,10,Ticks_ISO_T2_5,129,9999,9999,9999,823449712
389,9,Ticks_ISO_T2_8,0,5,42,127,836763084
389,9,Ticks_ISO_T2_8,1,1,48,19,837268296
389,9,Ticks_ISO_T2_8,2,5,42,127,837562820
389,9,Ticks_ISO_T2_8,3,5,42,127,838362648
389,9,Ticks_ISO_T2_8,4,1,48,24,838577696
389,9,Ticks_ISO_T2_8,5,5,42,127,839163128
389,9,Ticks_ISO_T2_8,6,1,48,38,839166172
389,9,Ticks_ISO_T2_8,7,5,42,127,839963088
389,9,Ticks_ISO_T2_8,8,1,48,28,839995224
389,9,Ticks_ISO_T2_8,9,1,48,32,840756944
389,9,Ticks_ISO_T2_8,10,5,42,127,840762812
389,9,Ticks_ISO_T2_8,11,1,48,38,841539776
389,9,Ticks_ISO_T2_8,12,5,42,127,841562548
389,9,Ticks_ISO_T2_8,13,1,48,39,842332328
389,9,Ticks_ISO_T2_8,14,5,42,127,842363176
389,9,Ticks_ISO_T2_8,15,1,48,42,843121584
389,9,Ticks_ISO_T2_8,16,5,42,127,843163008
389,9,Ticks_ISO_T2_8,17,1,48,48,843938852
389,9,Ticks_ISO_T2_8,18,5,42,127,843962668
389,9,Ticks_ISO_T2_8,19,1,48,46,844737760
389,9,Ticks_ISO_T2_8,20,5,42,127,844762404
389,9,Ticks_ISO_T2_8,21,1,48,32,845555220
389,9,Ticks_ISO_T2_8,22,5,42,127,845563408
389,9,Ticks_ISO_T2_8,23,1,48,36,846346124
389,9,Ticks_ISO_T2_8,24,5,42,127,846362916
389,9,Ticks_ISO_T2_8,25,5,42,127,847162808
389,9,Ticks_ISO_T2_8,26,1,48,22,847194944
389,9,Ticks_ISO_T2_8,27,1,48,38,847904452
389,9,Ticks_ISO_T2_8,28,5,42,127,847962460
389,9,Ticks_ISO_T2_8,29,1,48,38,848687508
389,9,Ticks_ISO_T2_8,30,5,42,127,848763384
389,9,Ticks_ISO_T2_8,31,1,48,40,849552116
389,9,Ticks_ISO_T2_8,32,5,42,127,849563068
389,9,Ticks_ISO_T2_8,33,1,48,39,850324024
389,9,Ticks_ISO_T2_8,34,5,42,127,850362876
389,9,Ticks_ISO_T2_8,35,1,48,30,851135652
389,9,Ticks_ISO_T2_8,36,5,42,127,851162464
389,9,Ticks_ISO_T2_8,37,1,48,42,851919980
389,9,Ticks_ISO_T2_8,38,5,42,127,851963172
389,9,Ticks_ISO_T2_8,39,1,48,43,852700416
389,9,Ticks_ISO_T2_8,40,5,42,127,852762976
389,9,Ticks_ISO_T2_8,41,1,48,42,853509348
389,9,Ticks_ISO_T2_8,42,5,42,127,853562712
389,9,Ticks_ISO_T2_8,43,1,48,40,854350812
389,9,Ticks_ISO_T2_8,44,5,42,127,854362444
389,9,Ticks_ISO_T2_8,45,1,48,26,855100512
389,9,Ticks_ISO_T2_8,46,5,42,127,855163224
389,9,Ticks_ISO_T2_8,47,1,48,26,855932180
389,9,Ticks_ISO_T2_8,48,5,42,127,855963132
389,9,Ticks_ISO_T2_8,49,1,48,43,856692196
389,9,Ticks_ISO_T2_8,50,5,42,127,856762936
389,9,Ticks_ISO_T2_8,51,1,48,44,857529952
389,9,Ticks_ISO_T2_8,52,5,42,127,857562448
389,9,Ticks_ISO_T2_8,53,1,48,38,858350028
389,9,Ticks_ISO_T2_8,54,5,42,127,858363228
389,9,Ticks_ISO_T2_8,55,1,48,40,859126348
389,9,Ticks_ISO_T2_8,56,5,42,127,859162960
389,9,Ticks_ISO_T2_8,57,1,48,38,859920552
389,9,Ticks_ISO_T2_8,58,5,42,127,859962844
389,9,Ticks_ISO_T2_8,59,1,48,39,860760616
389,9,Ticks_ISO_T2_8,60,5,42,127,860762428
389,9,Ticks_ISO_T2_8,61,5,42,127,861563140
389,9,Ticks_ISO_T2_8,62,1,48,37,861568948
389,9,Ticks_ISO_T2_8,63,1,48,28,862340016
389,9,Ticks_ISO_T2_8,64,5,42,127,862362964
389,9,Ticks_ISO_T2_8,65,1,48,36,863150844
389,9,Ticks_ISO_T2_8,66,5,42,127,863162700
389,9,Ticks_ISO_T2_8,67,1,48,34,863913852
389,9,Ticks_ISO_T2_8,68,5,42,127,863962656
389,9,Ticks_ISO_T2_8,69,1,48,39,864687336
389,9,Ticks_ISO_T2_8,70,5,42,127,864763436
389,9,Ticks_ISO_T2_8,71,1,48,42,865535388
389,9,Ticks_ISO_T2_8,72,5,42,127,865562872
389,9,Ticks_ISO_T2_8,73,1,48,32,866313356
389,9,Ticks_ISO_T2_8,74,5,42,127,866362604
389,9,Ticks_ISO_T2_8,75,1,48,33,867147872
389,9,Ticks_ISO_T2_8,76,5,42,127,867162636
389,9,Ticks_ISO_T2_8,77,5,42,127,867963424
389,9,Ticks_ISO_T2_8,78,1,48,39,867982576
389,9,Ticks_ISO_T2_8,79,1,48,28,868719360
389,9,Ticks_ISO_T2_8,80,5,42,127,868762952
389,9,Ticks_ISO_T2_8,81,1,48,32,869522712
389,9,Ticks_ISO_T2_8,82,5,42,127,869562760
389,9,Ticks_ISO_T2_8,83,5,42,127,870362424
389,9,Ticks_ISO_T2_8,84,1,48,28,870365692
389,9,Ticks_ISO_T2_8,85,5,42,127,871163356
389,9,Ticks_ISO_T2_8,86,1,48,27,871192428
389,9,Ticks_ISO_T2_8,87,1,48,35,871960056
389,9,Ticks_ISO_T2_8,88,5,42,127,871962932
389,9,Ticks_ISO_T2_8,89,1,48,46,872698980
389,9,Ticks_ISO_T2_8,90,5,42,127,872762740
389,9,Ticks_ISO_T2_8,91,1,48,45,873553240
389,9,Ticks_ISO_T2_8,92,5,42,127,873562400
389,9,Ticks_ISO_T2_8,93,5,42,127,874363184
389,9,Ticks_ISO_T2_8,94,1,48,38,874371540
389,9,Ticks_ISO_T2_8,95,5,42,127,875163092
389,9,Ticks_ISO_T2_8,96,1,48,44,875175632
389,9,Ticks_ISO_T2_8,97,1,48,37,875939148
389,9,Ticks_ISO_T2_8,98,5,42,127,875962672
389,9,Ticks_ISO_T2_8,99,5,42,127,876762408
389,9,Ticks_ISO_T2_8,100,1,48,36,876807112
389,9,Ticks_ISO_T2_8,101,1,48,24,877529040
389,9,Ticks_ISO_T2_8,102,5,42,127,877563184
389,9,Ticks_ISO_T2_8,103,1,48,31,878340068
389,9,Ticks_ISO_T2_8,104,5,42,127,878362916
389,9,Ticks_ISO_T2_8,105,1,48,25,879134416
389,9,Ticks_ISO_T2_8,106,5,42,127,879162948
389,9,Ticks_ISO_T2_8,107,1,48,29,879958836
389,9,Ticks_ISO_T2_8,108,5,42,127,879962460
389,9,Ticks_ISO_T2_8,109,1,48,41,880733136
389,9,Ticks_ISO_T2_8,110,5,42,127,880763240
389,9,Ticks_ISO_T2_8,111,1,48,43,881515516
389,9,Ticks_ISO_T2_8,112,5,42,127,881562924
389,9,Ticks_ISO_T2_8,113,1,48,52,882240904
389,9,Ticks_ISO_T2_8,114,5,42,127,882362940
389,9,Ticks_ISO_T2_8,115,1,48,39,883143432
389,9,Ticks_ISO_T2_8,116,5,42,127,883162540
389,9,Ticks_ISO_T2_8,117,5,42,127,883963180
389,9,Ticks_ISO_T2_8,118,1,48,43,883979316
389,9,Ticks_ISO_T2_8,119,1,48,49,884754416
389,9,Ticks_ISO_T2_8,120,5,42,127,884763052
389,9,Ticks_ISO_T2_8,121,5,42,127,885562720
389,9,Ticks_ISO_T2_8,122,1,48,39,885580952
389,9,Ticks_ISO_T2_8,123,1,48,42,886341096
389,9,Ticks_ISO_T2_8,124,5,42,127,886362448
389,9,Ticks_ISO_T2_8,125,1,48,44,887145316
389,9,Ticks_ISO_T2_8,126,5,42,127,887163232
389,9,Ticks_ISO_T2_8,127,1,48,37,887954804
389,9,Ticks_ISO_T2_8,128,5,42,127,887962988
389,9,Ticks_ISO_T2_8,129,1,48,39,888672980
389,9,Ticks_ISO_T2_8,130,5,42,127,888762724
389,9,Ticks_ISO_T2_8,131,1,48,37,889490692
389,9,Ticks_ISO_T2_8,132,5,42,127,889562680
389,9,Ticks_ISO_T2_8,133,1,48,51,890312484
389,9,Ticks_ISO_T2_8,134,5,42,127,890363236
389,9,Ticks_ISO_T2_8,135,1,48,45,891141764
389,9,Ticks_ISO_T2_8,136,5,42,127,891162968
389,9,Ticks_ISO_T2_8,137,1,48,48,891944712
389,9,Ticks_ISO_T2_8,138,5,42,127,891962628
389,9,Ticks_ISO_T2_8,139,1,48,51,892754844
389,9,Ticks_ISO_T2_8,140,5,42,127,892762660
389,9,Ticks_ISO_T2_8,141,1,48,54,893559516
389,9,Ticks_ISO_T2_8,142,5,42,127,893563292
389,9,Ticks_ISO_T2_8,143,1,48,53,894333444
389,9,Ticks_ISO_T2_8,144,5,42,127,894362972
389,9,Ticks_ISO_T2_8,145,1,48,48,895141428
389,9,Ticks_ISO_T2_8,146,5,42,127,895162708
389,9,Ticks_ISO_T2_8,147,1,48,41,895936372
389,9,Ticks_ISO_T2_8,148,5,42,127,895962368
389,9,Ticks_ISO_T2_8,149,1,48,44,896713000
389,9,Ticks_ISO_T2_8,150,5,42,127,896763368
389,9,Ticks_ISO_T2_8,151,1,48,48,897557308
389,9,Ticks_ISO_T2_8,152,5,42,127,897562880
389,9,Ticks_ISO_T2_8,153,5,42,127,898362844
389,9,Ticks_ISO_T2_8,154,1,48,54,898399324
389,9,Ticks_ISO_T2_8,155,5,42,127,899162576
389,9,Ticks_ISO_T2_8,156,1,48,51,899188360
389,9,Ticks_ISO_T2_8,157,5,42,127,899963356
389,9,Ticks_ISO_T2_8,158,1,48,47,899980036
389,9,Ticks_ISO_T2_8,159,1,48,48,900760844
389,9,Ticks_ISO_T2_8,160,5,42,127,900763184
389,9,Ticks_ISO_T2_8,161,5,42,127,901562772
389,9,Ticks_ISO_T2_8,162,1,48,53,901572628
389,9,Ticks_ISO_T2_8,163,1,48,58,902326640
389,9,Ticks_ISO_T2_8,164,5,42,127,902362500
389,9,Ticks_ISO_T2_8,165,5,42,127,903163212
389,9,Ticks_ISO_T2_8,166,1,48,48,903169548
389,9,Ticks_ISO_T2_8,167,1,48,43,903940616
389,9,Ticks_ISO_T2_8,168,5,42,127,903963088
389,9,Ticks_ISO_T2_8,169,1,48,48,904745136
389,9,Ticks_ISO_T2_8,170,5,42,127,904762600
389,9,Ticks_ISO_T2_8,171,1,48,53,905551880
389,9,Ticks_ISO_T2_8,172,5,42,127,905562384
389,9,Ticks_ISO_T2_8,173,5,42,127,906363168
389,9,Ticks_ISO_T2_8,174,1,48,42,906383816
389,9,Ticks_ISO_T2_8,175,1,48,51,907156532
389,9,Ticks_ISO_T2_8,176,5,42,127,907163068
389,9,Ticks_ISO_T2_8,177,5,42,127,907962664
389,9,Ticks_ISO_T2_8,178,1,48,48,907978424
389,9,Ticks_ISO_T2_8,179,5,42,127,908762472
389,9,Ticks_ISO_T2_8,180,1,48,56,908772548
389,9,Ticks_ISO_T2_8,181,1,48,57,909529108
389,9,Ticks_ISO_T2_8,182,5,42,127,909563100
389,9,Ticks_ISO_T2_8,183,1,48,61,910360788
389,9,Ticks_ISO_T2_8,184,5,42,127,910362904
389,9,Ticks_ISO_T2_8,185,5,42,127,911162944
389,9,Ticks_ISO_T2_8,186,1,48,54,911210044
389,9,Ticks_ISO_T2_8,187,5,42,127,911962452
389,9,Ticks_ISO_T2_8,188,1,48,46,911998556
389,9,Ticks_ISO_T2_8,189,5,42,127,912763304
389,9,Ticks_ISO_T2_8,190,1,48,49,912782832
389,9,Ticks_ISO_T2_8,191,1,48,48,913559884
389,9,Ticks_ISO_T2_8,192,5,42,127,913562984
389,9,Ticks_ISO_T2_8,193,5,42,127,914362724
389,9,Ticks_ISO_T2_8,194,1,48,45,914365764
389,9,Ticks_ISO_T2_8,195,5,42,127,915162680
389,9,Ticks_ISO_T2_8,196,1,48,48,915167596
389,9,Ticks_ISO_T2_8,197,1,48,51,915942700
389,9,Ticks_ISO_T2_8,198,5,42,127,915963228
389,9,Ticks_ISO_T2_8,199,1,48,54,916756944
389,9,Ticks_ISO_T2_8,200,5,42,127,916762888
389,9,Ticks_ISO_T2_8,201,1,48,47,917531392
389,9,Ticks_ISO_T2_8,202,5,42,127,917562696
389,9,Ticks_ISO_T2_8,203,1,48,53,918309808
389,9,Ticks_ISO_T2_8,204,5,42,127,918362724
389,9,Ticks_ISO_T2_8,205,1,48,45,919145072
389,9,Ticks_ISO_T2_8,206,5,42,127,919163208
389,9,Ticks_ISO_T2_8,207,1,48,41,919953884
389,9,Ticks_ISO_T2_8,208,5,42,127,919963116
389,9,Ticks_ISO_T2_8,209,1,48,36,920735816
389,9,Ticks_ISO_T2_8,210,5,42,127,920762700
389,9,Ticks_ISO_T2_8,211,1,48,54,921557536
389,9,Ticks_ISO_T2_8,212,5,42,127,921562656
389,9,Ticks_ISO_T2_8,213,1,48,46,922352708
389,9,Ticks_ISO_T2_8,214,5,42,127,922363360
389,9,Ticks_ISO_T2_8,215,1,48,40,923161672
389,9,Ticks_ISO_T2_8,216,5,42,127,923163464
389,9,Ticks_ISO_T2_8,217,1,48,40,923954492
389,9,Ticks_ISO_T2_8,218,5,42,127,923962752
389,9,Ticks_ISO_T2_8,219,1,48,51,924729316
389,9,Ticks_ISO_T2_8,220,5,42,127,924762412
389,9,Ticks_ISO_T2_8,221,5,42,127,925563200
389,9,Ticks_ISO_T2_8,222,1,48,53,925564612
389,9,Ticks_ISO_T2_8,223,1,48,45,926360296
389,9,Ticks_ISO_T2_8,224,5,42,127,926362952
389,9,Ticks_ISO_T2_8,225,1,48,49,927130264
389,9,Ticks_ISO_T2_8,226,5,42,127,927162684
389,9,Ticks_ISO_T2_8,227,1,48,43,927936808
389,9,Ticks_ISO_T2_8,228,5,42,127,927962420
389,9,Ticks_ISO_T2_8,229,1,48,52,928721576
389,9,Ticks_ISO_T2_8,230,5,42,127,928763200
389,9,Ticks_ISO_T2_8,231,1,48,50,929533356
389,9,Ticks_ISO_T2_8,232,5,42,127,929563156
389,9,Ticks_ISO_T2_8,233,1,48,47,930295092
389,9,Ticks_ISO_T2_8,234,5,42,127,930362668
389,9,Ticks_ISO_T2_8,235,1,48,54,931109484
389,9,Ticks_ISO_T2_8,236,5,42,127,931162400
389,9,Ticks_ISO_T2_8,237,1,48,52,931884756
389,9,Ticks_ISO_T2_8,238,5,42,127,931963180
389,9,Ticks_ISO_T2_8,239,1,48,49,932717400
389,9,Ticks_ISO_T2_8,0,9999,9999,9999,836760644
389,9,Ticks_ISO_T2_8,1,9999,9999,9999,837560380
389,9,Ticks_ISO_T2_8,2,9999,9999,9999,838360136
389,9,Ticks_ISO_T2_8,3,9999,9999,9999,839160916
389,9,Ticks_ISO_T2_8,4,9999,9999,9999,839960648
389,9,Ticks_ISO_T2_8,5,9999,9999,9999,840760376
389,9,Ticks_ISO_T2_8,6,9999,9999,9999,841560184
389,9,Ticks_ISO_T2_8,7,9999,9999,9999,842360888
389,9,Ticks_ISO_T2_8,8,9999,9999,9999,843160644
389,9,Ticks_ISO_T2_8,9,9999,9999,9999,843960380
389,9,Ticks_ISO_T2_8,10,9999,9999,9999,844760112
389,9,Ticks_ISO_T2_8,11,9999,9999,9999,845560896
389,9,Ticks_ISO_T2_8,12,9999,9999,9999,846360628
389,9,Ticks_ISO_T2_8,13,9999,9999,9999,847160368
389,9,Ticks_ISO_T2_8,14,9999,9999,9999,847960168
389,9,Ticks_ISO_T2_8,15,9999,9999,9999,848760948
389,9,Ticks_ISO_T2_8,16,9999,9999,9999,849560632
389,9,Ticks_ISO_T2_8,17,9999,9999,9999,850360440
389,9,Ticks_ISO_T2_8,18,9999,9999,9999,851160176
389,9,Ticks_ISO_T2_8,19,9999,9999,9999,851960880
389,9,Ticks_ISO_T2_8,20,9999,9999,9999,852760688
389,9,Ticks_ISO_T2_8,21,9999,9999,9999,853560420
389,9,Ticks_ISO_T2_8,22,9999,9999,9999,854360152
389,9,Ticks_ISO_T2_8,23,9999,9999,9999,855160936
389,9,Ticks_ISO_T2_8,24,9999,9999,9999,855960692
389,9,Ticks_ISO_T2_8,25,9999,9999,9999,856760424
389,9,Ticks_ISO_T2_8,26,9999,9999,9999,857560160
389,9,Ticks_ISO_T2_8,27,9999,9999,9999,858360940
389,9,Ticks_ISO_T2_8,28,9999,9999,9999,859160672
389,9,Ticks_ISO_T2_8,29,9999,9999,9999,859960404
389,9,Ticks_ISO_T2_8,30,9999,9999,9999,860760164
389,9,Ticks_ISO_T2_8,31,9999,9999,9999,861560924
389,9,Ticks_ISO_T2_8,32,9999,9999,9999,862360676
389,9,Ticks_ISO_T2_8,33,9999,9999,9999,863160412
389,9,Ticks_ISO_T2_8,34,9999,9999,9999,863960144
389,9,Ticks_ISO_T2_8,35,9999,9999,9999,864760924
389,9,Ticks_ISO_T2_8,36,9999,9999,9999,865560656
389,9,Ticks_ISO_T2_8,37,9999,9999,9999,866360392
389,9,Ticks_ISO_T2_8,38,9999,9999,9999,867160124
389,9,Ticks_ISO_T2_8,39,9999,9999,9999,867960912
389,9,Ticks_ISO_T2_8,40,9999,9999,9999,868760664
389,9,Ticks_ISO_T2_8,41,9999,9999,9999,869560396
389,9,Ticks_ISO_T2_8,42,9999,9999,9999,870360136
389,9,Ticks_ISO_T2_8,43,9999,9999,9999,871160916
389,9,Ticks_ISO_T2_8,44,9999,9999,9999,871960644
389,9,Ticks_ISO_T2_8,45,9999,9999,9999,872760376
389,9,Ticks_ISO_T2_8,46,9999,9999,9999,873560112
389,9,Ticks_ISO_T2_8,47,9999,9999,9999,874360896
389,9,Ticks_ISO_T2_8,48,9999,9999,9999,875160652
389,9,Ticks_ISO_T2_8,49,9999,9999,9999,875960380
389,9,Ticks_ISO_T2_8,50,9999,9999,9999,876760120
389,9,Ticks_ISO_T2_8,51,9999,9999,9999,877560892
389,9,Ticks_ISO_T2_8,52,9999,9999,9999,878360628
389,9,Ticks_ISO_T2_8,53,9999,9999,9999,879160436
389,9,Ticks_ISO_T2_8,54,9999,9999,9999,879960172
389,9,Ticks_ISO_T2_8,55,9999,9999,9999,880760952
389,9,Ticks_ISO_T2_8,56,9999,9999,9999,881560636
389,9,Ticks_ISO_T2_8,57,9999,9999,9999,882360428
389,9,Ticks_ISO_T2_8,58,9999,9999,9999,883160176
389,9,Ticks_ISO_T2_8,59,9999,9999,9999,883960888
389,9,Ticks_ISO_T2_8,60,9999,9999,9999,884760692
389,9,Ticks_ISO_T2_8,61,9999,9999,9999,885560432
389,9,Ticks_ISO_T2_8,62,9999,9999,9999,886360160
389,9,Ticks_ISO_T2_8,63,9999,9999,9999,887160940
389,9,Ticks_ISO_T2_8,64,9999,9999,9999,887960628
389,9,Ticks_ISO_T2_8,65,9999,9999,9999,888760432
389,9,Ticks_ISO_T2_8,66,9999,9999,9999,889560168
389,9,Ticks_ISO_T2_8,67,9999,9999,9999,890360944
389,9,Ticks_ISO_T2_8,68,9999,9999,9999,891160680
389,9,Ticks_ISO_T2_8,69,9999,9999,9999,891960412
389,9,Ticks_ISO_T2_8,70,9999,9999,9999,892760148
389,9,Ticks_ISO_T2_8,71,9999,9999,9999,893560928
389,9,Ticks_ISO_T2_8,72,9999,9999,9999,894360684
389,9,Ticks_ISO_T2_8,73,9999,9999,9999,895160420
389,9,Ticks_ISO_T2_8,74,9999,9999,9999,895960152
389,9,Ticks_ISO_T2_8,75,9999,9999,9999,896760932
389,9,Ticks_ISO_T2_8,76,9999,9999,9999,897560664
389,9,Ticks_ISO_T2_8,77,9999,9999,9999,898360404
389,9,Ticks_ISO_T2_8,78,9999,9999,9999,899160140
389,9,Ticks_ISO_T2_8,79,9999,9999,9999,899960920
389,9,Ticks_ISO_T2_8,80,9999,9999,9999,900760632
389,9,Ticks_ISO_T2_8,81,9999,9999,9999,901560412
389,9,Ticks_ISO_T2_8,82,9999,9999,9999,902360136
389,9,Ticks_ISO_T2_8,83,9999,9999,9999,903160924
389,9,Ticks_ISO_T2_8,84,9999,9999,9999,903960652
389,9,Ticks_ISO_T2_8,85,9999,9999,9999,904760384
389,9,Ticks_ISO_T2_8,86,9999,9999,9999,905560168
389,9,Ticks_ISO_T2_8,87,9999,9999,9999,906360880
389,9,Ticks_ISO_T2_8,88,9999,9999,9999,907160632
389,9,Ticks_ISO_T2_8,89,9999,9999,9999,907960376
389,9,Ticks_ISO_T2_8,90,9999,9999,9999,908760180
389,9,Ticks_ISO_T2_8,91,9999,9999,9999,909560884
389,9,Ticks_ISO_T2_8,92,9999,9999,9999,910360652
389,9,Ticks_ISO_T2_8,93,9999,9999,9999,911160428
389,9,Ticks_ISO_T2_8,94,9999,9999,9999,911960164
389,9,Ticks_ISO_T2_8,95,9999,9999,9999,912760940
389,9,Ticks_ISO_T2_8,96,9999,9999,9999,913560696
389,9,Ticks_ISO_T2_8,97,9999,9999,9999,914360432
389,9,Ticks_ISO_T2_8,98,9999,9999,9999,915160168
389,9,Ticks_ISO_T2_8,99,9999,9999,9999,915960940
389,9,Ticks_ISO_T2_8,100,9999,9999,9999,916760672
389,9,Ticks_ISO_T2_8,101,9999,9999,9999,917560408
389,9,Ticks_ISO_T2_8,102,9999,9999,9999,918360140
389,9,Ticks_ISO_T2_8,103,9999,9999,9999,919160920
389,9,Ticks_ISO_T2_8,104,9999,9999,9999,919960676
389,9,Ticks_ISO_T2_8,105,9999,9999,9999,920760412
389,9,Ticks_ISO_T2_8,106,9999,9999,9999,921560144
389,9,Ticks_ISO_T2_8,107,9999,9999,9999,922360924
389,9,Ticks_ISO_T2_8,108,9999,9999,9999,923160664
389,9,Ticks_ISO_T2_8,109,9999,9999,9999,923960392
389,9,Ticks_ISO_T2_8,110,9999,9999,9999,924760124
389,9,Ticks_ISO_T2_8,111,9999,9999,9999,925560912
389,9,Ticks_ISO_T2_8,112,9999,9999,9999,926360660
389,9,Ticks_ISO_T2_8,113,9999,9999,9999,927160396
389,9,Ticks_ISO_T2_8,114,9999,9999,9999,927960132
389,9,Ticks_ISO_T2_8,115,9999,9999,9999,928760912
389,9,Ticks_ISO_T2_8,116,9999,9999,9999,929560644
389,9,Ticks_ISO_T2_8,117,9999,9999,9999,930360376
389,9,Ticks_ISO_T2_8,118,9999,9999,9999,931160112
389,9,Ticks_ISO_T2_8,119,9999,9999,9999,931960892
3810,21,Ticks_Linear_5,0,5,42,127,944600508
3810,21,Ticks_Linear_5,1,5,42,127,945089820
3810,21,Ticks_Linear_5,2,5,42,127,945570144
3810,21,Ticks_Linear_5,3,1,48,21,945595728
3810,21,Ticks_Linear_5,4,5,42,127,946050372
3810,21,Ticks_Linear_5,5,1,48,48,946052964
3810,21,Ticks_Linear_5,6,5,42,127,946540012
3810,21,Ticks_Linear_5,7,1,48,43,946543504
3810,21,Ticks_Linear_5,8,1,48,44,947015772
3810,21,Ticks_Linear_5,9,5,42,127,947030416
3810,21,Ticks_Linear_5,10,1,48,48,947509488
3810,21,Ticks_Linear_5,11,5,42,127,947520008
3810,21,Ticks_Linear_5,12,1,48,53,947996972
3810,21,Ticks_Linear_5,13,5,42,127,948010344
3810,21,Ticks_Linear_5,14,5,42,127,948499720
3810,21,Ticks_Linear_5,15,1,48,49,948530920
3810,21,Ticks_Linear_5,16,5,42,127,948990284
3810,21,Ticks_Linear_5,17,1,48,52,948995492
3810,21,Ticks_Linear_5,18,1,48,50,949488392
3810,21,Ticks_Linear_5,19,5,42,127,949490272
3810,21,Ticks_Linear_5,20,5,42,127,949989756
3810,21,Ticks_Linear_5,21,1,48,44,949998196
3810,21,Ticks_Linear_5,22,1,48,48,950488096
3810,21,Ticks_Linear_5,23,5,42,127,950489820
3810,21,Ticks_Linear_5,24,1,48,48,950985880
3810,21,Ticks_Linear_5,25,5,42,127,950990492
3810,21,Ticks_Linear_5,26,1,48,42,951466332
3810,21,Ticks_Linear_5,27,5,42,127,951490044
3810,21,Ticks_Linear_5,28,1,48,50,951973300
3810,21,Ticks_Linear_5,29,5,42,127,951999780
3810,21,Ticks_Linear_5,30,1,48,46,952478100
3810,21,Ticks_Linear_5,31,5,42,127,952509812
3810,21,Ticks_Linear_5,32,1,48,41,952978624
3810,21,Ticks_Linear_5,33,5,42,127,953019620
3810,21,Ticks_Linear_5,34,1,48,47,953483628
3810,21,Ticks_Linear_5,35,5,42,127,953529652
3810,21,Ticks_Linear_5,36,1,48,53,953988576
3810,21,Ticks_Linear_5,37,5,42,127,954039612
3810,21,Ticks_Linear_5,38,1,48,48,954512908
3810,21,Ticks_Linear_5,39,5,42,127,954560052
3810,21,Ticks_Linear_5,40,1,48,47,955025932
3810,21,Ticks_Linear_5,41,5,42,127,955080272
3810,21,Ticks_Linear_5,42,1,48,46,955536188
3810,21,Ticks_Linear_5,43,5,42,127,955600192
3810,21,Ticks_Linear_5,44,1,48,44,956072292
3810,21,Ticks_Linear_5,45,5,42,127,956120484
3810,21,Ticks_Linear_5,46,1,48,52,956614824
3810,21,Ticks_Linear_5,47,5,42,127,956650288
3810,21,Ticks_Linear_5,48,1,48,58,957137364
3810,21,Ticks_Linear_5,49,5,42,127,957180244
3810,21,Ticks_Linear_5,50,1,48,37,957687532
3810,21,Ticks_Linear_5,51,5,42,127,957709748
3810,21,Ticks_Linear_5,52,1,48,49,958221316
3810,21,Ticks_Linear_5,53,5,42,127,958240224
3810,21,Ticks_Linear_5,54,1,48,42,958743400
3810,21,Ticks_Linear_5,55,5,42,127,958769508
3810,21,Ticks_Linear_5,56,1,48,21,959295292
3810,21,Ticks_Linear_5,57,5,42,127,959300132
3810,21,Ticks_Linear_5,58,1,48,40,959829004
3810,21,Ticks_Linear_5,59,5,42,127,959839672
3810,21,Ticks_Linear_5,60,1,48,40,960354976
3810,21,Ticks_Linear_5,61,5,42,127,960380260
3810,21,Ticks_Linear_5,62,1,48,48,960889508
3810,21,Ticks_Linear_5,63,5,42,127,960919900
3810,21,Ticks_Linear_5,64,1,48,35,961440832
3810,21,Ticks_Linear_5,65,5,42,127,961459516
3810,21,Ticks_Linear_5,66,1,48,48,961989284
3810,21,Ticks_Linear_5,67,5,42,127,962000332
3810,21,Ticks_Linear_5,68,1,48,53,962526868
3810,21,Ticks_Linear_5,69,5,42,127,962550056
3810,21,Ticks_Linear_5,70,1,48,49,963049416
3810,21,Ticks_Linear_5,71,5,42,127,963100004
3810,21,Ticks_Linear_5,72,1,48,51,963579224
3810,21,Ticks_Linear_5,73,5,42,127,963649880
3810,21,Ticks_Linear_5,74,1,48,46,964159352
3810,21,Ticks_Linear_5,75,5,42,127,964199980
3810,21,Ticks_Linear_5,76,1,48,51,964712216
3810,21,Ticks_Linear_5,77,5,42,127,964749652
3810,21,Ticks_Linear_5,78,1,48,48,965265928
3810,21,Ticks_Linear_5,79,5,42,127,965309860
3810,21,Ticks_Linear_5,80,1,48,52,965814384
3810,21,Ticks_Linear_5,81,5,42,127,965869844
3810,21,Ticks_Linear_5,82,1,48,53,966361864
3810,21,Ticks_Linear_5,83,5,42,127,966430052
3810,21,Ticks_Linear_5,84,1,48,52,966942964
3810,21,Ticks_Linear_5,85,5,42,127,966990188
3810,21,Ticks_Linear_5,86,1,48,41,967516200
3810,21,Ticks_Linear_5,87,5,42,127,967550468
3810,21,Ticks_Linear_5,88,1,48,35,968087120
3810,21,Ticks_Linear_5,89,5,42,127,968119816
3810,21,Ticks_Linear_5,90,1,48,38,968640292
3810,21,Ticks_Linear_5,91,5,42,127,968689984
3810,21,Ticks_Linear_5,92,1,48,48,969228136
3810,21,Ticks_Linear_5,93,5,42,127,969260524
3810,21,Ticks_Linear_5,94,1,48,46,969799652
3810,21,Ticks_Linear_5,95,5,42,127,969829720
3810,21,Ticks_Linear_5,96,1,48,48,970391936
3810,21,Ticks_Linear_5,97,5,42,127,970400512
3810,21,Ticks_Linear_5,98,1,48,55,970962256
3810,21,Ticks_Linear_5,99,5,42,127,970979672
3810,21,Ticks_Linear_5,100,5,42,127,971560552
3810,21,Ticks_Linear_5,101,1,48,42,971591456
3810,21,Ticks_Linear_5,102,5,42,127,972139860
3810,21,Ticks_Linear_5,103,1,48,47,972148524
3810,21,Ticks_Linear_5,104,1,48,54,972704680
3810,21,Ticks_Linear_5,105,5,42,127,972719776
3810,21,Ticks_Linear_5,106,5,42,127,973300140
3810,21,Ticks_Linear_5,107,1,48,44,973301856
3810,21,Ticks_Linear_5,108,5,42,127,973889856
3810,21,Ticks_Linear_5,109,1,48,43,973892596
3810,21,Ticks_Linear_5,110,1,48,37,974441552
3810,21,Ticks_Linear_5,111,5,42,127,974479812
3810,21,Ticks_Linear_5,112,1,48,39,975049264
3810,21,Ticks_Linear_5,113,5,42,127,975069448
3810,21,Ticks_Linear_5,114,1,48,46,975614408
3810,21,Ticks_Linear_5,115,5,42,127,975660508
3810,21,Ticks_Linear_5,116,1,48,26,976230564
3810,21,Ticks_Linear_5,117,5,42,127,976250372
3810,21,Ticks_Linear_5,118,1,48,42,976821500
3810,21,Ticks_Linear_5,119,5,42,127,976850224
3810,21,Ticks_Linear_5,120,1,48,41,977389496
3810,21,Ticks_Linear_5,121,5,42,127,977450344
3810,21,Ticks_Linear_5,122,1,48,46,978019128
3810,21,Ticks_Linear_5,123,5,42,127,978050492
3810,21,Ticks_Linear_5,124,1,48,51,978633348
3810,21,Ticks_Linear_5,125,5,42,127,978659604
3810,21,Ticks_Linear_5,126,1,48,46,979223960
3810,21,Ticks_Linear_5,127,5,42,127,979259804
3810,21,Ticks_Linear_5,128,1,48,46,979834196
3810,21,Ticks_Linear_5,129,5,42,127,979870132
3810,21,Ticks_Linear_5,130,1,48,37,980444896
3810,21,Ticks_Linear_5,131,5,42,127,980480440
3810,21,Ticks_Linear_5,132,1,48,36,981086884
3810,21,Ticks_Linear_5,133,5,42,127,981089628
3810,21,Ticks_Linear_5,134,1,48,49,981645548
3810,21,Ticks_Linear_5,135,5,42,127,981700184
3810,21,Ticks_Linear_5,136,1,48,45,982247700
3810,21,Ticks_Linear_5,137,5,42,127,982310192
3810,21,Ticks_Linear_5,138,1,48,40,982867208
3810,21,Ticks_Linear_5,139,5,42,127,982930032
3810,21,Ticks_Linear_5,140,1,48,45,983469464
3810,21,Ticks_Linear_5,141,5,42,127,983550304
3810,21,Ticks_Linear_5,142,1,48,42,984087172
3810,21,Ticks_Linear_5,143,5,42,127,984170268
3810,21,Ticks_Linear_5,144,1,48,46,984722148
3810,21,Ticks_Linear_5,145,5,42,127,984790416
3810,21,Ticks_Linear_5,146,1,48,47,985363008
3810,21,Ticks_Linear_5,147,5,42,127,985410080
3810,21,Ticks_Linear_5,148,1,48,35,985976988
3810,21,Ticks_Linear_5,149,5,42,127,986039888
3810,21,Ticks_Linear_5,150,1,48,46,986601032
3810,21,Ticks_Linear_5,151,5,42,127,986669372
3810,21,Ticks_Linear_5,152,1,48,45,987213356
3810,21,Ticks_Linear_5,153,5,42,127,987300144
3810,21,Ticks_Linear_5,154,1,48,50,987852224
3810,21,Ticks_Linear_5,155,5,42,127,987930072
3810,21,Ticks_Linear_5,156,1,48,45,988471292
3810,21,Ticks_Linear_5,157,5,42,127,988560028
3810,21,Ticks_Linear_5,158,1,48,51,989133672
3810,21,Ticks_Linear_5,159,5,42,127,989199916
3810,21,Ticks_Linear_5,160,1,48,44,989746376
3810,21,Ticks_Linear_5,161,5,42,127,989839904
3810,21,Ticks_Linear_5,162,1,48,45,990427264
3810,21,Ticks_Linear_5,163,5,42,127,990479944
3810,21,Ticks_Linear_5,164,1,48,43,991034712
3810,21,Ticks_Linear_5,165,5,42,127,991119928
3810,21,Ticks_Linear_5,166,1,48,38,991669164
3810,21,Ticks_Linear_5,167,5,42,127,991759892
3810,21,Ticks_Linear_5,168,1,48,54,992306652
3810,21,Ticks_Linear_5,169,5,42,127,992410128
3810,21,Ticks_Linear_5,170,1,48,48,992968072
3810,21,Ticks_Linear_5,171,5,42,127,993060876
3810,21,Ticks_Linear_5,172,1,48,50,993586904
3810,21,Ticks_Linear_5,173,5,42,127,993709552
3810,21,Ticks_Linear_5,174,1,48,42,994221804
3810,21,Ticks_Linear_5,175,5,42,127,994359548
3810,21,Ticks_Linear_5,176,1,48,28,994892096
3810,21,Ticks_Linear_5,177,5,42,127,995009876
3810,21,Ticks_Linear_5,178,1,48,29,995525720
3810,21,Ticks_Linear_5,179,5,42,127,995670652
3810,21,Ticks_Linear_5,180,1,48,42,996174896
3810,21,Ticks_Linear_5,181,5,42,127,996329816
3810,21,Ticks_Linear_5,182,1,48,36,996834652
3810,21,Ticks_Linear_5,183,5,42,127,996990620
3810,21,Ticks_Linear_5,184,1,48,45,997455072
3810,21,Ticks_Linear_5,185,5,42,127,997649908
3810,21,Ticks_Linear_5,186,1,48,41,998120224
3810,21,Ticks_Linear_5,187,5,42,127,998310264
3810,21,Ticks_Linear_5,188,1,48,16,998787552
3810,21,Ticks_Linear_5,189,5,42,127,998979956
3810,21,Ticks_Linear_5,190,1,48,48,999498656
3810,21,Ticks_Linear_5,191,5,42,127,999649752
3810,21,Ticks_Linear_5,192,1,48,42,1000179836
3810,21,Ticks_Linear_5,193,5,42,127,1000320516
3810,21,Ticks_Linear_5,194,5,42,127,1000990084
3810,21,Ticks_Linear_5,195,5,42,127,1001659824
3810,21,Ticks_Linear_5,196,1,48,23,1001682640
3810,21,Ticks_Linear_5,197,1,48,57,1002287244
3810,21,Ticks_Linear_5,198,5,42,127,1002339920
3810,21,Ticks_Linear_5,199,1,48,41,1002959576
3810,21,Ticks_Linear_5,200,5,42,127,1003019676
3810,21,Ticks_Linear_5,201,1,48,40,1003658432
3810,21,Ticks_Linear_5,202,5,42,127,1003699580
3810,21,Ticks_Linear_5,203,1,48,55,1004333880
3810,21,Ticks_Linear_5,204,5,42,127,1004379532
3810,21,Ticks_Linear_5,205,1,48,35,1004999340
3810,21,Ticks_Linear_5,206,5,42,127,1005059436
3810,21,Ticks_Linear_5,207,5,42,127,1005749532
3810,21,Ticks_Linear_5,208,1,48,43,1006297660
3810,21,Ticks_Linear_5,209,5,42,127,1006439744
3810,21,Ticks_Linear_5,210,1,48,17,1007023164
3810,21,Ticks_Linear_5,211,5,42,127,1007130056
3810,21,Ticks_Linear_5,212,5,42,127,1007820092
3810,21,Ticks_Linear_5,213,1,48,14,1007833988
3810,21,Ticks_Linear_5,214,5,42,127,1008510404
3810,21,Ticks_Linear_5,215,1,48,67,1009080924
3810,21,Ticks_Linear_5,216,5,42,127,1009209756
3810,21,Ticks_Linear_5,217,1,48,65,1009790408
3810,21,Ticks_Linear_5,218,5,42,127,1009910176
3810,21,Ticks_Linear_5,219,1,48,30,1010502556
3810,21,Ticks_Linear_5,220,5,42,127,1010609552
3810,21,Ticks_Linear_5,221,1,48,48,1011165080
3810,21,Ticks_Linear_5,222,5,42,127,1011309872
3810,21,Ticks_Linear_5,223,1,48,52,1011927672
3810,21,Ticks_Linear_5,224,5,42,127,1012010384
3810,21,Ticks_Linear_5,225,1,48,56,1012670556
3810,21,Ticks_Linear_5,226,5,42,127,1012720016
3810,21,Ticks_Linear_5,227,1,48,23,1013401524
3810,21,Ticks_Linear_5,228,5,42,127,1013429504
3810,21,Ticks_Linear_5,229,1,48,49,1014084176
3810,21,Ticks_Linear_5,230,5,42,127,1014140236
3810,21,Ticks_Linear_5,231,1,48,63,1014782800
3810,21,Ticks_Linear_5,232,5,42,127,1014849868
3810,21,Ticks_Linear_5,233,1,48,28,1015487652
3810,21,Ticks_Linear_5,234,5,42,127,1015559432
3810,21,Ticks_Linear_5,235,1,48,29,1016250000
3810,21,Ticks_Linear_5,236,5,42,127,1016280816
3810,21,Ticks_Linear_5,237,1,48,53,1016928536
3810,21,Ticks_Linear_5,238,5,42,127,1017009552
3810,21,Ticks_Linear_5,239,1,48,36,1017652320
3810,21,Ticks_Linear_5,240,5,42,127,1017730564
3810,21,Ticks_Linear_5,241,1,48,48,1018348100
3810,21,Ticks_Linear_5,242,5,42,127,1018459704
3810,21,Ticks_Linear_5,243,1,48,34,1019053164
3810,21,Ticks_Linear_5,244,5,42,127,1019180348
3810,21,Ticks_Linear_5,245,1,48,56,1019736780
3810,21,Ticks_Linear_5,246,5,42,127,1019909676
3810,21,Ticks_Linear_5,247,1,48,39,1020586996
3810,21,Ticks_Linear_5,248,5,42,127,1020639696
3810,21,Ticks_Linear_5,249,1,48,33,1021366804
3810,21,Ticks_Linear_5,250,5,42,127,1021369696
3810,21,Ticks_Linear_5,251,1,48,50,1022071772
3810,21,Ticks_Linear_5,252,5,42,127,1022099776
3810,21,Ticks_Linear_5,253,5,42,127,1022829908
3810,21,Ticks_Linear_5,254,1,48,38,1022842388
3810,21,Ticks_Linear_5,255,5,42,127,1023570544
3810,21,Ticks_Linear_5,256,1,48,35,1023587900
3810,21,Ticks_Linear_5,257,1,48,53,1024277500
3810,21,Ticks_Linear_5,258,5,42,127,1024309680
3810,21,Ticks_Linear_5,259,5,42,127,1025049948
3810,21,Ticks_Linear_5,260,1,48,48,1025051584
3810,21,Ticks_Linear_5,261,1,48,53,1025735188
3810,21,Ticks_Linear_5,262,5,42,127,1025790428
3810,21,Ticks_Linear_5,263,1,48,38,1026514396
3810,21,Ticks_Linear_5,264,5,42,127,1026529792
3810,21,Ticks_Linear_5,265,1,48,49,1027192256
3810,21,Ticks_Linear_5,266,5,42,127,1027280464
3810,21,Ticks_Linear_5,267,1,48,42,1027993572
3810,21,Ticks_Linear_5,268,5,42,127,1028029792
3810,21,Ticks_Linear_5,269,1,48,45,1028735332
3810,21,Ticks_Linear_5,270,5,42,127,1028780312
3810,21,Ticks_Linear_5,271,1,48,52,1029498344
3810,21,Ticks_Linear_5,272,5,42,127,1029530156
3810,21,Ticks_Linear_5,273,1,48,46,1030275540
3810,21,Ticks_Linear_5,274,5,42,127,1030279484
3810,21,Ticks_Linear_5,275,1,48,43,1031022152
3810,21,Ticks_Linear_5,276,5,42,127,1031040340
3810,21,Ticks_Linear_5,277,1,48,46,1031768708
3810,21,Ticks_Linear_5,278,5,42,127,1031800124
3810,21,Ticks_Linear_5,279,5,42,127,1032560088
3810,21,Ticks_Linear_5,280,1,48,58,1033232248
3810,21,Ticks_Linear_5,281,5,42,127,1033319688
3810,21,Ticks_Linear_5,282,1,48,49,1034022092
3810,21,Ticks_Linear_5,283,5,42,127,1034079496
3810,21,Ticks_Linear_5,284,1,48,31,1034812604
3810,21,Ticks_Linear_5,285,5,42,127,1034849712
3810,21,Ticks_Linear_5,286,1,48,52,1035568744
3810,21,Ticks_Linear_5,287,5,42,127,1035619632
3810,21,Ticks_Linear_5,288,1,48,46,1036359404
3810,21,Ticks_Linear_5,289,5,42,127,1036389920
3810,21,Ticks_Linear_5,290,1,48,52,1037142724
3810,21,Ticks_Linear_5,291,5,42,127,1037159916
3810,21,Ticks_Linear_5,292,1,48,55,1037910028
3810,21,Ticks_Linear_5,293,5,42,127,1037929984
3810,21,Ticks_Linear_5,294,5,42,127,1038710168
3810,21,Ticks_Linear_5,295,1,48,46,1038736600
3810,21,Ticks_Linear_5,296,5,42,127,1039490296
3810,21,Ticks_Linear_5,297,1,48,34,1039527708
3810,21,Ticks_Linear_5,298,1,48,33,1040270876
3810,21,Ticks_Linear_5,299,5,42,127,1040279828
3810,21,Ticks_Linear_5,300,1,48,42,1041031956
3810,21,Ticks_Linear_5,301,5,42,127,1041060304
3810,21,Ticks_Linear_5,302,1,48,28,1041831008
3810,21,Ticks_Linear_5,303,5,42,127,1041839508
3810,21,Ticks_Linear_5,304,1,48,48,1042589688
3810,21,Ticks_Linear_5,305,5,42,127,1042629944
3810,21,Ticks_Linear_5,306,1,48,39,1043381772
3810,21,Ticks_Linear_5,307,5,42,127,1043419780
3810,21,Ticks_Linear_5,308,5,42,127,1044209928
3810,21,Ticks_Linear_5,309,1,48,37,1044227804
3810,21,Ticks_Linear_5,310,5,42,127,1044999692
3810,21,Ticks_Linear_5,311,1,48,38,1045001028
3810,21,Ticks_Linear_5,312,1,48,35,1045766412
3810,21,Ticks_Linear_5,313,5,42,127,1045790120
3810,21,Ticks_Linear_5,314,1,48,34,1046551456
3810,21,Ticks_Linear_5,315,5,42,127,1046589768
3810,21,Ticks_Linear_5,316,1,48,43,1047375968
3810,21,Ticks_Linear_5,317,5,42,127,1047389716
3810,21,Ticks_Linear_5,318,5,42,127,1048190592
3810,21,Ticks_Linear_5,319,1,48,37,1048222320
3810,21,Ticks_Linear_5,320,1,48,37,1048948164
3810,21,Ticks_Linear_5,321,5,42,127,1048989940
3810,21,Ticks_Linear_5,322,1,48,46,1049750228
3810,21,Ticks_Linear_5,323,5,42,127,1049789960
3810,21,Ticks_Linear_5,324,1,48,47,1050544704
3810,21,Ticks_Linear_5,325,5,42,127,1050599792
3810,21,Ticks_Linear_5,326,1,48,49,1051328260
3810,21,Ticks_Linear_5,327,5,42,127,1051409700
3810,21,Ticks_Linear_5,328,5,42,127,1052219764
3810,21,Ticks_Linear_5,329,1,48,38,1052278084
3810,21,Ticks_Linear_5,330,1,48,46,1052995096
3810,21,Ticks_Linear_5,331,5,42,127,1053029740
3810,21,Ticks_Linear_5,332,1,48,42,1053817580
3810,21,Ticks_Linear_5,333,5,42,127,1053839648
3810,21,Ticks_Linear_5,0,9999,9999,9999,944598132
3810,21,Ticks_Linear_5,1,9999,9999,9999,945087596
3810,21,Ticks_Linear_5,2,9999,9999,9999,945567848
3810,21,Ticks_Linear_5,3,9999,9999,9999,946048124
3810,21,Ticks_Linear_5,4,9999,9999,9999,946537564
3810,21,Ticks_Linear_5,5,9999,9999,9999,947028044
3810,21,Ticks_Linear_5,6,9999,9999,9999,947517560
3810,21,Ticks_Linear_5,7,9999,9999,9999,948008048
3810,21,Ticks_Linear_5,8,9999,9999,9999,948497496
3810,21,Ticks_Linear_5,9,9999,9999,9999,948987980
3810,21,Ticks_Linear_5,10,9999,9999,9999,949487684
3810,21,Ticks_Linear_5,11,9999,9999,9999,949987384
3810,21,Ticks_Linear_5,12,9999,9999,9999,950487156
3810,21,Ticks_Linear_5,13,9999,9999,9999,950987896
3810,21,Ticks_Linear_5,14,9999,9999,9999,951487596
3810,21,Ticks_Linear_5,15,9999,9999,9999,951997556
3810,21,Ticks_Linear_5,16,9999,9999,9999,952507512
3810,21,Ticks_Linear_5,17,9999,9999,9999,953017396
3810,21,Ticks_Linear_5,18,9999,9999,9999,953527356
3810,21,Ticks_Linear_5,19,9999,9999,9999,954037312
3810,21,Ticks_Linear_5,20,9999,9999,9999,954557532
3810,21,Ticks_Linear_5,21,9999,9999,9999,955077748
3810,21,Ticks_Linear_5,22,9999,9999,9999,955597892
3810,21,Ticks_Linear_5,23,9999,9999,9999,956118112
3810,21,Ticks_Linear_5,24,9999,9999,9999,956647544
3810,21,Ticks_Linear_5,25,9999,9999,9999,957177948
3810,21,Ticks_Linear_5,26,9999,9999,9999,957707376
3810,21,Ticks_Linear_5,27,9999,9999,9999,958237780
3810,21,Ticks_Linear_5,28,9999,9999,9999,958767208
3810,21,Ticks_Linear_5,29,9999,9999,9999,959297612
3810,21,Ticks_Linear_5,30,9999,9999,9999,959837300
3810,21,Ticks_Linear_5,31,9999,9999,9999,960377964
3810,21,Ticks_Linear_5,32,9999,9999,9999,960917604
3810,21,Ticks_Linear_5,33,9999,9999,9999,961457220
3810,21,Ticks_Linear_5,34,9999,9999,9999,961997884
3810,21,Ticks_Linear_5,35,9999,9999,9999,962547832
3810,21,Ticks_Linear_5,36,9999,9999,9999,963097704
3810,21,Ticks_Linear_5,37,9999,9999,9999,963647580
3810,21,Ticks_Linear_5,38,9999,9999,9999,964197456
3810,21,Ticks_Linear_5,39,9999,9999,9999,964747356
3810,21,Ticks_Linear_5,40,9999,9999,9999,965307488
3810,21,Ticks_Linear_5,41,9999,9999,9999,965867620
3810,21,Ticks_Linear_5,42,9999,9999,9999,966427756
3810,21,Ticks_Linear_5,43,9999,9999,9999,966987888
3810,21,Ticks_Linear_5,44,9999,9999,9999,967548020
3810,21,Ticks_Linear_5,45,9999,9999,9999,968117368
3810,21,Ticks_Linear_5,46,9999,9999,9999,968687684
3810,21,Ticks_Linear_5,47,9999,9999,9999,969258080
3810,21,Ticks_Linear_5,48,9999,9999,9999,969827424
3810,21,Ticks_Linear_5,49,9999,9999,9999,970397768
3810,21,Ticks_Linear_5,50,9999,9999,9999,970977372
3810,21,Ticks_Linear_5,51,9999,9999,9999,971557956
3810,21,Ticks_Linear_5,52,9999,9999,9999,972137560
3810,21,Ticks_Linear_5,53,9999,9999,9999,972717184
3810,21,Ticks_Linear_5,54,9999,9999,9999,973297764
3810,21,Ticks_Linear_5,55,9999,9999,9999,973887556
3810,21,Ticks_Linear_5,56,9999,9999,9999,974477436
3810,21,Ticks_Linear_5,57,9999,9999,9999,975067224
3810,21,Ticks_Linear_5,58,9999,9999,9999,975658060
3810,21,Ticks_Linear_5,59,9999,9999,9999,976247924
3810,21,Ticks_Linear_5,60,9999,9999,9999,976848000
3810,21,Ticks_Linear_5,61,9999,9999,9999,977448044
3810,21,Ticks_Linear_5,62,9999,9999,9999,978048120
3810,21,Ticks_Linear_5,63,9999,9999,9999,978657380
3810,21,Ticks_Linear_5,64,9999,9999,9999,979257428
3810,21,Ticks_Linear_5,65,9999,9999,9999,979867760
3810,21,Ticks_Linear_5,66,9999,9999,9999,980478068
3810,21,Ticks_Linear_5,67,9999,9999,9999,981087332
3810,21,Ticks_Linear_5,68,9999,9999,9999,981697660
3810,21,Ticks_Linear_5,69,9999,9999,9999,982307892
3810,21,Ticks_Linear_5,70,9999,9999,9999,982927436
3810,21,Ticks_Linear_5,71,9999,9999,9999,983548004
3810,21,Ticks_Linear_5,72,9999,9999,9999,984167524
3810,21,Ticks_Linear_5,73,9999,9999,9999,984788044
3810,21,Ticks_Linear_5,74,9999,9999,9999,985407560
3810,21,Ticks_Linear_5,75,9999,9999,9999,986037368
3810,21,Ticks_Linear_5,76,9999,9999,9999,986667072
3810,21,Ticks_Linear_5,77,9999,9999,9999,987297848
3810,21,Ticks_Linear_5,78,9999,9999,9999,987927624
3810,21,Ticks_Linear_5,79,9999,9999,9999,988557432
3810,21,Ticks_Linear_5,80,9999,9999,9999,989197396
3810,21,Ticks_Linear_5,81,9999,9999,9999,989837384
3810,21,Ticks_Linear_5,82,9999,9999,9999,990477420
3810,21,Ticks_Linear_5,83,9999,9999,9999,991117408
3810,21,Ticks_Linear_5,84,9999,9999,9999,991757372
3810,21,Ticks_Linear_5,85,9999,9999,9999,992407676
3810,21,Ticks_Linear_5,86,9999,9999,9999,993057920
3810,21,Ticks_Linear_5,87,9999,9999,9999,993707104
3810,21,Ticks_Linear_5,88,9999,9999,9999,994357324
3810,21,Ticks_Linear_5,89,9999,9999,9999,995007572
3810,21,Ticks_Linear_5,90,9999,9999,9999,995668056
3810,21,Ticks_Linear_5,91,9999,9999,9999,996327516
3810,21,Ticks_Linear_5,92,9999,9999,9999,996988000
3810,21,Ticks_Linear_5,93,9999,9999,9999,997647460
3810,21,Ticks_Linear_5,94,9999,9999,9999,998307964
3810,21,Ticks_Linear_5,95,9999,9999,9999,998977660
3810,21,Ticks_Linear_5,96,9999,9999,9999,999647304
3810,21,Ticks_Linear_5,97,9999,9999,9999,1000318068
3810,21,Ticks_Linear_5,98,9999,9999,9999,1000987712
3810,21,Ticks_Linear_5,99,9999,9999,9999,1001657452
3810,21,Ticks_Linear_5,100,9999,9999,9999,1002337400
3810,21,Ticks_Linear_5,101,9999,9999,9999,1003017304
3810,21,Ticks_Linear_5,102,9999,9999,9999,1003697208
3810,21,Ticks_Linear_5,103,9999,9999,9999,1004377160
3810,21,Ticks_Linear_5,104,9999,9999,9999,1005057140
3810,21,Ticks_Linear_5,105,9999,9999,9999,1005747308
3810,21,Ticks_Linear_5,106,9999,9999,9999,1006437444
3810,21,Ticks_Linear_5,107,9999,9999,9999,1007127608
3810,21,Ticks_Linear_5,108,9999,9999,9999,1007817792
3810,21,Ticks_Linear_5,109,9999,9999,9999,1008508008
3810,21,Ticks_Linear_5,110,9999,9999,9999,1009207380
3810,21,Ticks_Linear_5,111,9999,9999,9999,1009907804
3810,21,Ticks_Linear_5,112,9999,9999,9999,1010607176
3810,21,Ticks_Linear_5,113,9999,9999,9999,1011307572
3810,21,Ticks_Linear_5,114,9999,9999,9999,1012008012
3810,21,Ticks_Linear_5,115,9999,9999,9999,1012717644
3810,21,Ticks_Linear_5,116,9999,9999,9999,1013427280
3810,21,Ticks_Linear_5,117,9999,9999,9999,1014137936
3810,21,Ticks_Linear_5,118,9999,9999,9999,1014847572
3810,21,Ticks_Linear_5,119,9999,9999,9999,1015557208
3810,21,Ticks_Linear_5,120,9999,9999,9999,1016278072
3810,21,Ticks_Linear_5,121,9999,9999,9999,1017007176
3810,21,Ticks_Linear_5,122,9999,9999,9999,1017728116
3810,21,Ticks_Linear_5,123,9999,9999,9999,1018457184
3810,21,Ticks_Linear_5,124,9999,9999,9999,1019178048
3810,21,Ticks_Linear_5,125,9999,9999,9999,1019907152
3810,21,Ticks_Linear_5,126,9999,9999,9999,1020637248
3810,21,Ticks_Linear_5,127,9999,9999,9999,1021367400
3810,21,Ticks_Linear_5,128,9999,9999,9999,1022097476
3810,21,Ticks_Linear_5,129,9999,9999,9999,1022827612
3810,21,Ticks_Linear_5,130,9999,9999,9999,1023567948
3810,21,Ticks_Linear_5,131,9999,9999,9999,1024307304
3810,21,Ticks_Linear_5,132,9999,9999,9999,1025047648
3810,21,Ticks_Linear_5,133,9999,9999,9999,1025787980
3810,21,Ticks_Linear_5,134,9999,9999,9999,1026527344
3810,21,Ticks_Linear_5,135,9999,9999,9999,1027277944
3810,21,Ticks_Linear_5,136,9999,9999,9999,1028027492
3810,21,Ticks_Linear_5,137,9999,9999,9999,1028778088
3810,21,Ticks_Linear_5,138,9999,9999,9999,1029527636
3810,21,Ticks_Linear_5,139,9999,9999,9999,1030277184
3810,21,Ticks_Linear_5,140,9999,9999,9999,1031038040
3810,21,Ticks_Linear_5,141,9999,9999,9999,1031797824
3810,21,Ticks_Linear_5,142,9999,9999,9999,1032557640
3810,21,Ticks_Linear_5,143,9999,9999,9999,1033317464
3810,21,Ticks_Linear_5,144,9999,9999,9999,1034077272
3810,21,Ticks_Linear_5,145,9999,9999,9999,1034847340
3810,21,Ticks_Linear_5,146,9999,9999,9999,1035617332
3810,21,Ticks_Linear_5,147,9999,9999,9999,1036387400
3810,21,Ticks_Linear_5,148,9999,9999,9999,1037157468
3810,21,Ticks_Linear_5,149,9999,9999,9999,1037927536
3810,21,Ticks_Linear_5,150,9999,9999,9999,1038707796
3810,21,Ticks_Linear_5,151,9999,9999,9999,1039488072
3810,21,Ticks_Linear_5,152,9999,9999,9999,1040277604
3810,21,Ticks_Linear_5,153,9999,9999,9999,1041057856
3810,21,Ticks_Linear_5,154,9999,9999,9999,1041837136
3810,21,Ticks_Linear_5,155,9999,9999,9999,1042627648
3810,21,Ticks_Linear_5,156,9999,9999,9999,1043417188
3810,21,Ticks_Linear_5,157,9999,9999,9999,1044207704
3810,21,Ticks_Linear_5,158,9999,9999,9999,1044997244
3810,21,Ticks_Linear_5,159,9999,9999,9999,1045787748
3810,21,Ticks_Linear_5,160,9999,9999,9999,1046587472
3810,21,Ticks_Linear_5,161,9999,9999,9999,1047387196
3810,21,Ticks_Linear_5,162,9999,9999,9999,1048187996
3810,21,Ticks_Linear_5,163,9999,9999,9999,1048987716
3810,21,Ticks_Linear_5,164,9999,9999,9999,1049787512
3810,21,Ticks_Linear_5,165,9999,9999,9999,1050597496
3810,21,Ticks_Linear_5,166,9999,9999,9999,1051407476
3810,21,Ticks_Linear_5,167,9999,9999,9999,1052217468
3810,21,Ticks_Linear_5,168,9999,9999,9999,1053027444
3810,21,Ticks_Linear_5,169,9999,9999,9999,1053837424
3811,20,Ticks_Linear_8,0,5,42,127,1067198768
3811,20,Ticks_Linear_8,1,5,42,127,1068019108
3811,20,Ticks_Linear_8,2,1,48,30,1068128496
3811,20,Ticks_Linear_8,3,1,48,37,1068818260
3811,20,Ticks_Linear_8,4,5,42,127,1068839416
3811,20,Ticks_Linear_8,5,1,48,39,1069628768
3811,20,Ticks_Linear_8,6,5,42,127,1069658612
3811,20,Ticks_Linear_8,7,1,48,32,1070448260
3811,20,Ticks_Linear_8,8,5,42,127,1070478804
3811,20,Ticks_Linear_8,9,1,48,28,1071271744
3811,20,Ticks_Linear_8,10,5,42,127,1071288636
3811,20,Ticks_Linear_8,11,5,42,127,1072098552
3811,20,Ticks_Linear_8,12,1,48,38,1072126972
3811,20,Ticks_Linear_8,13,5,42,127,1072908608
3811,20,Ticks_Linear_8,14,1,48,38,1072926776
3811,20,Ticks_Linear_8,15,5,42,127,1073718592
3811,20,Ticks_Linear_8,16,1,48,34,1073727108
3811,20,Ticks_Linear_8,17,5,42,127,1074528724
3811,20,Ticks_Linear_8,18,1,48,29,1074542400
3811,20,Ticks_Linear_8,19,5,42,127,1075329668
3811,20,Ticks_Linear_8,20,1,48,28,1075336988
3811,20,Ticks_Linear_8,21,1,48,28,1076121932
3811,20,Ticks_Linear_8,22,5,42,127,1076129240
3811,20,Ticks_Linear_8,23,1,48,19,1076924872
3811,20,Ticks_Linear_8,24,5,42,127,1076928964
3811,20,Ticks_Linear_8,25,5,42,127,1077728620
3811,20,Ticks_Linear_8,26,1,48,24,1077731284
3811,20,Ticks_Linear_8,27,1,48,33,1078522004
3811,20,Ticks_Linear_8,28,5,42,127,1078529384
3811,20,Ticks_Linear_8,29,5,42,127,1079319004
3811,20,Ticks_Linear_8,30,1,48,51,1079333652
3811,20,Ticks_Linear_8,31,1,48,48,1080090748
3811,20,Ticks_Linear_8,32,5,42,127,1080109360
3811,20,Ticks_Linear_8,33,1,48,44,1080855488
3811,20,Ticks_Linear_8,34,5,42,127,1080909456
3811,20,Ticks_Linear_8,35,5,42,127,1081698556
3811,20,Ticks_Linear_8,36,1,48,42,1081719056
3811,20,Ticks_Linear_8,37,5,42,127,1082489320
3811,20,Ticks_Linear_8,38,1,48,17,1082513480
3811,20,Ticks_Linear_8,39,5,42,127,1083268524
3811,20,Ticks_Linear_8,40,1,48,38,1083335816
3811,20,Ticks_Linear_8,41,5,42,127,1084048924
3811,20,Ticks_Linear_8,42,1,48,25,1084134040
3811,20,Ticks_Linear_8,43,5,42,127,1084829176
3811,20,Ticks_Linear_8,44,1,48,43,1085543248
3811,20,Ticks_Linear_8,45,5,42,127,1085609296
3811,20,Ticks_Linear_8,46,1,48,44,1086387828
3811,20,Ticks_Linear_8,47,5,42,127,1086389476
3811,20,Ticks_Linear_8,48,5,42,127,1087158876
3811,20,Ticks_Linear_8,49,1,48,36,1087161320
3811,20,Ticks_Linear_8,50,1,48,36,1087928496
3811,20,Ticks_Linear_8,51,5,42,127,1087930208
3811,20,Ticks_Linear_8,52,5,42,127,1088698940
3811,20,Ticks_Linear_8,53,1,48,31,1088770284
3811,20,Ticks_Linear_8,54,5,42,127,1089469156
3811,20,Ticks_Linear_8,55,1,48,29,1089472948
3811,20,Ticks_Linear_8,56,1,48,50,1090226532
3811,20,Ticks_Linear_8,57,5,42,127,1090238772
3811,20,Ticks_Linear_8,58,1,48,39,1090998368
3811,20,Ticks_Linear_8,59,5,42,127,1090999928
3811,20,Ticks_Linear_8,60,5,42,127,1091758396
3811,20,Ticks_Linear_8,61,1,48,45,1091761140
3811,20,Ticks_Linear_8,62,1,48,38,1092518500
3811,20,Ticks_Linear_8,63,5,42,127,1092520144
3811,20,Ticks_Linear_8,64,5,42,127,1093279136
3811,20,Ticks_Linear_8,65,1,48,35,1093280100
3811,20,Ticks_Linear_8,66,5,42,127,1094038872
3811,20,Ticks_Linear_8,67,1,48,45,1094083324
3811,20,Ticks_Linear_8,68,1,48,34,1094768808
3811,20,Ticks_Linear_8,69,5,42,127,1094788416
3811,20,Ticks_Linear_8,70,1,48,28,1095521424
3811,20,Ticks_Linear_8,71,5,42,127,1095539060
3811,20,Ticks_Linear_8,72,1,48,38,1096248956
3811,20,Ticks_Linear_8,73,5,42,127,1096288612
3811,20,Ticks_Linear_8,74,1,48,46,1096941960
3811,20,Ticks_Linear_8,75,5,42,127,1097039192
3811,20,Ticks_Linear_8,76,1,48,40,1097730308
3811,20,Ticks_Linear_8,77,5,42,127,1097788760
3811,20,Ticks_Linear_8,78,5,42,127,1098529028
3811,20,Ticks_Linear_8,79,1,48,30,1098537320
3811,20,Ticks_Linear_8,80,1,48,39,1099255008
3811,20,Ticks_Linear_8,81,5,42,127,1099268684
3811,20,Ticks_Linear_8,82,5,42,127,1100008880
3811,20,Ticks_Linear_8,83,1,48,32,1100022632
3811,20,Ticks_Linear_8,84,5,42,127,1100749216
3811,20,Ticks_Linear_8,85,1,48,41,1100767844
3811,20,Ticks_Linear_8,86,1,48,44,1101481492
3811,20,Ticks_Linear_8,87,5,42,127,1101488652
3811,20,Ticks_Linear_8,88,1,48,48,1102205648
3811,20,Ticks_Linear_8,89,5,42,127,1102218580
3811,20,Ticks_Linear_8,90,5,42,127,1102948864
3811,20,Ticks_Linear_8,91,1,48,48,1103657576
3811,20,Ticks_Linear_8,92,5,42,127,1103678736
3811,20,Ticks_Linear_8,93,1,48,43,1104381804
3811,20,Ticks_Linear_8,94,5,42,127,1104408884
3811,20,Ticks_Linear_8,95,1,48,38,1105091368
3811,20,Ticks_Linear_8,96,5,42,127,1105139040
3811,20,Ticks_Linear_8,97,1,48,49,1105827520
3811,20,Ticks_Linear_8,98,5,42,127,1105858860
3811,20,Ticks_Linear_8,99,1,48,45,1106545652
3811,20,Ticks_Linear_8,100,5,42,127,1106578752
3811,20,Ticks_Linear_8,101,1,48,44,1107255364
3811,20,Ticks_Linear_8,102,5,42,127,1107298548
3811,20,Ticks_Linear_8,103,1,48,42,1108013824
3811,20,Ticks_Linear_8,104,5,42,127,1108018588
3811,20,Ticks_Linear_8,105,1,48,54,1108677640
3811,20,Ticks_Linear_8,106,5,42,127,1108738408
3811,20,Ticks_Linear_8,107,1,48,57,1109388544
3811,20,Ticks_Linear_8,108,5,42,127,1109449312
3811,20,Ticks_Linear_8,109,1,48,42,1110113192
3811,20,Ticks_Linear_8,110,5,42,127,1110158724
3811,20,Ticks_Linear_8,111,1,48,33,1110835104
3811,20,Ticks_Linear_8,112,5,42,127,1110869452
3811,20,Ticks_Linear_8,113,1,48,50,1111500564
3811,20,Ticks_Linear_8,114,5,42,127,1111579088
3811,20,Ticks_Linear_8,115,1,48,43,1112240160
3811,20,Ticks_Linear_8,116,5,42,127,1112288648
3811,20,Ticks_Linear_8,117,1,48,37,1112974272
3811,20,Ticks_Linear_8,118,5,42,127,1112989072
3811,20,Ticks_Linear_8,119,1,48,40,1113669884
3811,20,Ticks_Linear_8,120,5,42,127,1113688424
3811,20,Ticks_Linear_8,121,1,48,38,1114354496
3811,20,Ticks_Linear_8,122,5,42,127,1114388992
3811,20,Ticks_Linear_8,123,1,48,48,1115052452
3811,20,Ticks_Linear_8,124,5,42,127,1115089268
3811,20,Ticks_Linear_8,125,1,48,16,1115777744
3811,20,Ticks_Linear_8,126,5,42,127,1115788640
3811,20,Ticks_Linear_8,127,1,48,50,1116461960
3811,20,Ticks_Linear_8,128,5,42,127,1116478932
3811,20,Ticks_Linear_8,129,1,48,47,1117121124
3811,20,Ticks_Linear_8,130,5,42,127,1117169020
3811,20,Ticks_Linear_8,131,1,48,40,1117805864
3811,20,Ticks_Linear_8,132,5,42,127,1117859108
3811,20,Ticks_Linear_8,133,1,48,46,1118505760
3811,20,Ticks_Linear_8,134,5,42,127,1118549248
3811,20,Ticks_Linear_8,135,1,48,36,1119228584
3811,20,Ticks_Linear_8,136,5,42,127,1119238808
3811,20,Ticks_Linear_8,137,1,48,42,1119901520
3811,20,Ticks_Linear_8,138,5,42,127,1119918340
3811,20,Ticks_Linear_8,139,1,48,37,1120564920
3811,20,Ticks_Linear_8,140,5,42,127,1120599340
3811,20,Ticks_Linear_8,141,5,42,127,1121279252
3811,20,Ticks_Linear_8,142,1,48,36,1121283268
3811,20,Ticks_Linear_8,143,5,42,127,1121959156
3811,20,Ticks_Linear_8,144,1,48,29,1121974476
3811,20,Ticks_Linear_8,145,1,48,34,1122636724
3811,20,Ticks_Linear_8,146,5,42,127,1122639324
3811,20,Ticks_Linear_8,147,1,48,40,1123293720
3811,20,Ticks_Linear_8,148,5,42,127,1123309044
3811,20,Ticks_Linear_8,149,1,48,33,1123961128
3811,20,Ticks_Linear_8,150,5,42,127,1123978840
3811,20,Ticks_Linear_8,151,5,42,127,1124649440
3811,20,Ticks_Linear_8,152,1,48,36,1124653084
3811,20,Ticks_Linear_8,153,1,48,37,1125298372
3811,20,Ticks_Linear_8,154,5,42,127,1125319000
3811,20,Ticks_Linear_8,155,1,48,35,1125948444
3811,20,Ticks_Linear_8,156,5,42,127,1125988624
3811,20,Ticks_Linear_8,157,1,48,36,1126636740
3811,20,Ticks_Linear_8,158,5,42,127,1126649280
3811,20,Ticks_Linear_8,159,1,48,44,1127280068
3811,20,Ticks_Linear_8,160,5,42,127,1127308664
3811,20,Ticks_Linear_8,161,1,48,43,1127919528
3811,20,Ticks_Linear_8,162,5,42,127,1127969296
3811,20,Ticks_Linear_8,163,1,48,32,1128595380
3811,20,Ticks_Linear_8,164,5,42,127,1128628532
3811,20,Ticks_Linear_8,165,1,48,29,1129260440
3811,20,Ticks_Linear_8,166,5,42,127,1129289016
3811,20,Ticks_Linear_8,167,1,48,22,1129921096
3811,20,Ticks_Linear_8,168,5,42,127,1129939412
3811,20,Ticks_Linear_8,169,1,48,29,1130508944
3811,20,Ticks_Linear_8,170,5,42,127,1130588516
3811,20,Ticks_Linear_8,171,1,48,34,1131197388
3811,20,Ticks_Linear_8,172,5,42,127,1131238688
3811,20,Ticks_Linear_8,173,1,48,29,1131856432
3811,20,Ticks_Linear_8,174,5,42,127,1131888984
3811,20,Ticks_Linear_8,175,1,48,28,1132539092
3811,20,Ticks_Linear_8,176,5,42,127,1132540652
3811,20,Ticks_Linear_8,177,5,42,127,1133179600
3811,20,Ticks_Linear_8,178,1,48,21,1133189320
3811,20,Ticks_Linear_8,179,1,48,16,1133808292
3811,20,Ticks_Linear_8,180,5,42,127,1133819484
3811,20,Ticks_Linear_8,181,1,48,28,1134401516
3811,20,Ticks_Linear_8,182,5,42,127,1134459400
3811,20,Ticks_Linear_8,183,1,48,26,1135042180
3811,20,Ticks_Linear_8,184,5,42,127,1135099364
3811,20,Ticks_Linear_8,185,1,48,29,1135706180
3811,20,Ticks_Linear_8,186,5,42,127,1135739352
3811,20,Ticks_Linear_8,187,1,48,29,1136351420
3811,20,Ticks_Linear_8,188,5,42,127,1136369208
3811,20,Ticks_Linear_8,189,5,42,127,1136999068
3811,20,Ticks_Linear_8,190,1,48,29,1137005104
3811,20,Ticks_Linear_8,191,5,42,127,1137628576
3811,20,Ticks_Linear_8,192,1,48,32,1138214964
3811,20,Ticks_Linear_8,193,5,42,127,1138259268
3811,20,Ticks_Linear_8,194,1,48,24,1138857580
3811,20,Ticks_Linear_8,195,5,42,127,1138889220
3811,20,Ticks_Linear_8,196,5,42,127,1139508600
3811,20,Ticks_Linear_8,197,1,48,18,1139552456
3811,20,Ticks_Linear_8,198,5,42,127,1140129268
3811,20,Ticks_Linear_8,199,1,48,21,1140185700
3811,20,Ticks_Linear_8,200,1,48,37,1140708528
3811,20,Ticks_Linear_8,201,5,42,127,1140748632
3811,20,Ticks_Linear_8,202,1,48,22,1141319060
3811,20,Ticks_Linear_8,203,5,42,127,1141369296
3811,20,Ticks_Linear_8,204,1,48,27,1141970728
3811,20,Ticks_Linear_8,205,5,42,127,1141988668
3811,20,Ticks_Linear_8,206,5,42,127,1142599132
3811,20,Ticks_Linear_8,207,5,42,127,1143209340
3811,20,Ticks_Linear_8,208,1,48,36,1143216288
3811,20,Ticks_Linear_8,209,5,42,127,1143818748
3811,20,Ticks_Linear_8,210,1,48,30,1143840964
3811,20,Ticks_Linear_8,211,5,42,127,1144428904
3811,20,Ticks_Linear_8,212,1,48,27,1144473084
3811,20,Ticks_Linear_8,213,5,42,127,1145039092
3811,20,Ticks_Linear_8,214,1,48,29,1145049028
3811,20,Ticks_Linear_8,215,5,42,127,1145639216
3811,20,Ticks_Linear_8,216,1,48,25,1145652816
3811,20,Ticks_Linear_8,217,5,42,127,1146239436
3811,20,Ticks_Linear_8,218,1,48,19,1146259932
3811,20,Ticks_Linear_8,219,1,48,28,1146792632
3811,20,Ticks_Linear_8,220,5,42,127,1146839480
3811,20,Ticks_Linear_8,221,1,48,24,1147409536
3811,20,Ticks_Linear_8,222,5,42,127,1147438408
3811,20,Ticks_Linear_8,223,1,48,24,1147980452
3811,20,Ticks_Linear_8,224,5,42,127,1148039004
3811,20,Ticks_Linear_8,225,1,48,24,1148582248
3811,20,Ticks_Linear_8,226,5,42,127,1148629320
3811,20,Ticks_Linear_8,227,5,42,127,1149219116
3811,20,Ticks_Linear_8,228,1,48,23,1149225376
3811,20,Ticks_Linear_8,229,5,42,127,1149808980
3811,20,Ticks_Linear_8,230,1,48,17,1149841376
3811,20,Ticks_Linear_8,231,5,42,127,1150398772
3811,20,Ticks_Linear_8,232,1,48,27,1150407740
3811,20,Ticks_Linear_8,233,1,48,21,1150983340
3811,20,Ticks_Linear_8,234,5,42,127,1150988704
3811,20,Ticks_Linear_8,235,1,48,29,1151540560
3811,20,Ticks_Linear_8,236,5,42,127,1151569280
3811,20,Ticks_Linear_8,237,5,42,127,1152148840
3811,20,Ticks_Linear_8,238,1,48,22,1152175616
3811,20,Ticks_Linear_8,239,5,42,127,1152728668
3811,20,Ticks_Linear_8,240,1,48,20,1152744668
3811,20,Ticks_Linear_8,241,5,42,127,1153308952
3811,20,Ticks_Linear_8,242,1,48,18,1153310288
3811,20,Ticks_Linear_8,243,1,48,31,1153828452
3811,20,Ticks_Linear_8,244,5,42,127,1153888552
3811,20,Ticks_Linear_8,245,1,48,30,1154419536
3811,20,Ticks_Linear_8,246,5,42,127,1154458896
3811,20,Ticks_Linear_8,247,5,42,127,1155029592
3811,20,Ticks_Linear_8,248,1,48,23,1155036392
3811,20,Ticks_Linear_8,249,5,42,127,1155598640
3811,20,Ticks_Linear_8,250,5,42,127,1156169128
3811,20,Ticks_Linear_8,251,1,48,35,1156205792
3811,20,Ticks_Linear_8,252,1,48,29,1156731260
3811,20,Ticks_Linear_8,253,5,42,127,1156738416
3811,20,Ticks_Linear_8,254,1,48,27,1157270652
3811,20,Ticks_Linear_8,255,5,42,127,1157298476
3811,20,Ticks_Linear_8,256,5,42,127,1157858544
3811,20,Ticks_Linear_8,257,1,48,26,1157873788
3811,20,Ticks_Linear_8,258,5,42,127,1158418676
3811,20,Ticks_Linear_8,259,1,48,18,1158424408
3811,20,Ticks_Linear_8,260,5,42,127,1158978884
3811,20,Ticks_Linear_8,261,1,48,27,1158981548
3811,20,Ticks_Linear_8,262,1,48,28,1159533724
3811,20,Ticks_Linear_8,263,5,42,127,1159539108
3811,20,Ticks_Linear_8,264,1,48,20,1160079132
3811,20,Ticks_Linear_8,265,5,42,127,1160088836
3811,20,Ticks_Linear_8,266,1,48,25,1160625852
3811,20,Ticks_Linear_8,267,5,42,127,1160638784
3811,20,Ticks_Linear_8,268,5,42,127,1161188592
3811,20,Ticks_Linear_8,269,1,48,24,1161195220
3811,20,Ticks_Linear_8,270,5,42,127,1161738688
3811,20,Ticks_Linear_8,271,1,48,18,1161760604
3811,20,Ticks_Linear_8,272,5,42,127,1162288412
3811,20,Ticks_Linear_8,273,1,48,18,1162319392
3811,20,Ticks_Linear_8,274,1,48,23,1162810228
3811,20,Ticks_Linear_8,275,5,42,127,1162829068
3811,20,Ticks_Linear_8,276,5,42,127,1163368764
3811,20,Ticks_Linear_8,277,1,48,16,1163378352
3811,20,Ticks_Linear_8,278,1,48,17,1163906736
3811,20,Ticks_Linear_8,279,5,42,127,1163908472
3811,20,Ticks_Linear_8,280,1,48,20,1164397252
3811,20,Ticks_Linear_8,281,5,42,127,1164449208
3811,20,Ticks_Linear_8,282,1,48,27,1164923104
3811,20,Ticks_Linear_8,283,5,42,127,1164988900
3811,20,Ticks_Linear_8,284,1,48,18,1165495964
3811,20,Ticks_Linear_8,285,5,42,127,1165519156
3811,20,Ticks_Linear_8,286,1,48,24,1166024948
3811,20,Ticks_Linear_8,287,5,42,127,1166048512
3811,20,Ticks_Linear_8,288,5,42,127,1166579072
3811,20,Ticks_Linear_8,289,1,48,17,1166586820
3811,20,Ticks_Linear_8,290,5,42,127,1167108424
3811,20,Ticks_Linear_8,291,1,48,20,1167110436
3811,20,Ticks_Linear_8,292,1,48,20,1167628748
3811,20,Ticks_Linear_8,293,5,42,127,1167639120
3811,20,Ticks_Linear_8,294,1,48,18,1168138032
3811,20,Ticks_Linear_8,295,5,42,127,1168158968
3811,20,Ticks_Linear_8,296,1,48,19,1168649268
3811,20,Ticks_Linear_8,297,5,42,127,1168679184
3811,20,Ticks_Linear_8,298,1,48,19,1169167468
3811,20,Ticks_Linear_8,299,5,42,127,1169198356
3811,20,Ticks_Linear_8,300,1,48,22,1169688504
3811,20,Ticks_Linear_8,301,5,42,127,1169718796
3811,20,Ticks_Linear_8,302,1,48,22,1170190972
3811,20,Ticks_Linear_8,303,5,42,127,1170238944
3811,20,Ticks_Linear_8,304,1,48,22,1170711116
3811,20,Ticks_Linear_8,305,5,42,127,1170748976
3811,20,Ticks_Linear_8,306,1,48,28,1171239428
3811,20,Ticks_Linear_8,307,5,42,127,1171258788
3811,20,Ticks_Linear_8,308,1,48,35,1171740320
3811,20,Ticks_Linear_8,309,5,42,127,1171769044
3811,20,Ticks_Linear_8,310,1,48,40,1172265624
3811,20,Ticks_Linear_8,311,5,42,127,1172278780
3811,20,Ticks_Linear_8,312,1,48,36,1172788072
3811,20,Ticks_Linear_8,313,5,42,127,1172789864
3811,20,Ticks_Linear_8,314,5,42,127,1173289272
3811,20,Ticks_Linear_8,315,1,48,27,1173291284
3811,20,Ticks_Linear_8,316,1,48,34,1173768108
3811,20,Ticks_Linear_8,317,5,42,127,1173789044
3811,20,Ticks_Linear_8,318,1,48,35,1174269084
3811,20,Ticks_Linear_8,319,5,42,127,1174288892
3811,20,Ticks_Linear_8,320,1,48,35,1174767812
3811,20,Ticks_Linear_8,321,5,42,127,1174788668
3811,20,Ticks_Linear_8,322,5,42,127,1175289124
3811,20,Ticks_Linear_8,323,1,48,35,1175296816
3811,20,Ticks_Linear_8,324,5,42,127,1175778640
3811,20,Ticks_Linear_8,325,1,48,30,1175800256
3811,20,Ticks_Linear_8,326,1,48,27,1176268600
3811,20,Ticks_Linear_8,327,5,42,127,1176270316
3811,20,Ticks_Linear_8,328,1,48,26,1176739876
3811,20,Ticks_Linear_8,329,5,42,127,1176758784
3811,20,Ticks_Linear_8,330,5,42,127,1177249128
3811,20,Ticks_Linear_8,331,1,48,29,1177275608
3811,20,Ticks_Linear_8,332,5,42,127,1177738796
3811,20,Ticks_Linear_8,0,9999,9999,9999,1067196544
3811,20,Ticks_Linear_8,1,9999,9999,9999,1068016732
3811,20,Ticks_Linear_8,2,9999,9999,9999,1068836968
3811,20,Ticks_Linear_8,3,9999,9999,9999,1069656164
3811,20,Ticks_Linear_8,4,9999,9999,9999,1070476356
3811,20,Ticks_Linear_8,5,9999,9999,9999,1071286340
3811,20,Ticks_Linear_8,6,9999,9999,9999,1072096328
3811,20,Ticks_Linear_8,7,9999,9999,9999,1072906312
3811,20,Ticks_Linear_8,8,9999,9999,9999,1073716292
3811,20,Ticks_Linear_8,9,9999,9999,9999,1074526276
3811,20,Ticks_Linear_8,10,9999,9999,9999,1075327072
3811,20,Ticks_Linear_8,11,9999,9999,9999,1076126792
3811,20,Ticks_Linear_8,12,9999,9999,9999,1076926588
3811,20,Ticks_Linear_8,13,9999,9999,9999,1077726320
3811,20,Ticks_Linear_8,14,9999,9999,9999,1078527084
3811,20,Ticks_Linear_8,15,9999,9999,9999,1079316556
3811,20,Ticks_Linear_8,16,9999,9999,9999,1080107136
3811,20,Ticks_Linear_8,17,9999,9999,9999,1080906860
3811,20,Ticks_Linear_8,18,9999,9999,9999,1081696332
3811,20,Ticks_Linear_8,19,9999,9999,9999,1082486844
3811,20,Ticks_Linear_8,20,9999,9999,9999,1083266152
3811,20,Ticks_Linear_8,21,9999,9999,9999,1084046404
3811,20,Ticks_Linear_8,22,9999,9999,9999,1084826728
3811,20,Ticks_Linear_8,23,9999,9999,9999,1085606996
3811,20,Ticks_Linear_8,24,9999,9999,9999,1086386284
3811,20,Ticks_Linear_8,25,9999,9999,9999,1087156352
3811,20,Ticks_Linear_8,26,9999,9999,9999,1087926348
3811,20,Ticks_Linear_8,27,9999,9999,9999,1088696416
3811,20,Ticks_Linear_8,28,9999,9999,9999,1089466484
3811,20,Ticks_Linear_8,29,9999,9999,9999,1090236472
3811,20,Ticks_Linear_8,30,9999,9999,9999,1090996292
3811,20,Ticks_Linear_8,31,9999,9999,9999,1091756100
3811,20,Ticks_Linear_8,32,9999,9999,9999,1092516956
3811,20,Ticks_Linear_8,33,9999,9999,9999,1093276764
3811,20,Ticks_Linear_8,34,9999,9999,9999,1094036572
3811,20,Ticks_Linear_8,35,9999,9999,9999,1094786116
3811,20,Ticks_Linear_8,36,9999,9999,9999,1095536764
3811,20,Ticks_Linear_8,37,9999,9999,9999,1096286312
3811,20,Ticks_Linear_8,38,9999,9999,9999,1097036928
3811,20,Ticks_Linear_8,39,9999,9999,9999,1097786460
3811,20,Ticks_Linear_8,40,9999,9999,9999,1098526804
3811,20,Ticks_Linear_8,41,9999,9999,9999,1099266160
3811,20,Ticks_Linear_8,42,9999,9999,9999,1100006508
3811,20,Ticks_Linear_8,43,9999,9999,9999,1100746844
3811,20,Ticks_Linear_8,44,9999,9999,9999,1101486204
3811,20,Ticks_Linear_8,45,9999,9999,9999,1102216284
3811,20,Ticks_Linear_8,46,9999,9999,9999,1102946416
3811,20,Ticks_Linear_8,47,9999,9999,9999,1103676508
3811,20,Ticks_Linear_8,48,9999,9999,9999,1104406588
3811,20,Ticks_Linear_8,49,9999,9999,9999,1105136744
3811,20,Ticks_Linear_8,50,9999,9999,9999,1105856636
3811,20,Ticks_Linear_8,51,9999,9999,9999,1106576456
3811,20,Ticks_Linear_8,52,9999,9999,9999,1107296324
3811,20,Ticks_Linear_8,53,9999,9999,9999,1108016216
3811,20,Ticks_Linear_8,54,9999,9999,9999,1108736108
3811,20,Ticks_Linear_8,55,9999,9999,9999,1109446716
3811,20,Ticks_Linear_8,56,9999,9999,9999,1110156348
3811,20,Ticks_Linear_8,57,9999,9999,9999,1110867004
3811,20,Ticks_Linear_8,58,9999,9999,9999,1111576640
3811,20,Ticks_Linear_8,59,9999,9999,9999,1112286276
3811,20,Ticks_Linear_8,60,9999,9999,9999,1112986700
3811,20,Ticks_Linear_8,61,9999,9999,9999,1113686124
3811,20,Ticks_Linear_8,62,9999,9999,9999,1114386544
3811,20,Ticks_Linear_8,63,9999,9999,9999,1115086968
3811,20,Ticks_Linear_8,64,9999,9999,9999,1115786344
3811,20,Ticks_Linear_8,65,9999,9999,9999,1116476484
3811,20,Ticks_Linear_8,66,9999,9999,9999,1117166720
3811,20,Ticks_Linear_8,67,9999,9999,9999,1117856884
3811,20,Ticks_Linear_8,68,9999,9999,9999,1118547024
3811,20,Ticks_Linear_8,69,9999,9999,9999,1119236212
3811,20,Ticks_Linear_8,70,9999,9999,9999,1119916116
3811,20,Ticks_Linear_8,71,9999,9999,9999,1120597116
3811,20,Ticks_Linear_8,72,9999,9999,9999,1121277028
3811,20,Ticks_Linear_8,73,9999,9999,9999,1121956932
3811,20,Ticks_Linear_8,74,9999,9999,9999,1122636876
3811,20,Ticks_Linear_8,75,9999,9999,9999,1123306596
3811,20,Ticks_Linear_8,76,9999,9999,9999,1123976316
3811,20,Ticks_Linear_8,77,9999,9999,9999,1124646992
3811,20,Ticks_Linear_8,78,9999,9999,9999,1125316704
3811,20,Ticks_Linear_8,79,9999,9999,9999,1125986400
3811,20,Ticks_Linear_8,80,9999,9999,9999,1126646908
3811,20,Ticks_Linear_8,81,9999,9999,9999,1127306368
3811,20,Ticks_Linear_8,82,9999,9999,9999,1127966848
3811,20,Ticks_Linear_8,83,9999,9999,9999,1128626232
3811,20,Ticks_Linear_8,84,9999,9999,9999,1129286716
3811,20,Ticks_Linear_8,85,9999,9999,9999,1129936964
3811,20,Ticks_Linear_8,86,9999,9999,9999,1130586220
3811,20,Ticks_Linear_8,87,9999,9999,9999,1131236464
3811,20,Ticks_Linear_8,88,9999,9999,9999,1131886688
3811,20,Ticks_Linear_8,89,9999,9999,9999,1132536944
3811,20,Ticks_Linear_8,90,9999,9999,9999,1133176932
3811,20,Ticks_Linear_8,91,9999,9999,9999,1133816888
3811,20,Ticks_Linear_8,92,9999,9999,9999,1134456952
3811,20,Ticks_Linear_8,93,9999,9999,9999,1135096916
3811,20,Ticks_Linear_8,94,9999,9999,9999,1135736904
3811,20,Ticks_Linear_8,95,9999,9999,9999,1136366688
3811,20,Ticks_Linear_8,96,9999,9999,9999,1136996472
3811,20,Ticks_Linear_8,97,9999,9999,9999,1137626204
3811,20,Ticks_Linear_8,98,9999,9999,9999,1138256968
3811,20,Ticks_Linear_8,99,9999,9999,9999,1138886772
3811,20,Ticks_Linear_8,100,9999,9999,9999,1139506300
3811,20,Ticks_Linear_8,101,9999,9999,9999,1140126820
3811,20,Ticks_Linear_8,102,9999,9999,9999,1140746332
3811,20,Ticks_Linear_8,103,9999,9999,9999,1141366848
3811,20,Ticks_Linear_8,104,9999,9999,9999,1141986372
3811,20,Ticks_Linear_8,105,9999,9999,9999,1142596684
3811,20,Ticks_Linear_8,106,9999,9999,9999,1143207040
3811,20,Ticks_Linear_8,107,9999,9999,9999,1143816300
3811,20,Ticks_Linear_8,108,9999,9999,9999,1144426604
3811,20,Ticks_Linear_8,109,9999,9999,9999,1145036868
3811,20,Ticks_Linear_8,110,9999,9999,9999,1145636992
3811,20,Ticks_Linear_8,111,9999,9999,9999,1146236988
3811,20,Ticks_Linear_8,112,9999,9999,9999,1146837108
3811,20,Ticks_Linear_8,113,9999,9999,9999,1147436108
3811,20,Ticks_Linear_8,114,9999,9999,9999,1148036184
3811,20,Ticks_Linear_8,115,9999,9999,9999,1148627020
3811,20,Ticks_Linear_8,116,9999,9999,9999,1149216892
3811,20,Ticks_Linear_8,117,9999,9999,9999,1149806680
3811,20,Ticks_Linear_8,118,9999,9999,9999,1150396544
3811,20,Ticks_Linear_8,119,9999,9999,9999,1150986328
3811,20,Ticks_Linear_8,120,9999,9999,9999,1151566908
3811,20,Ticks_Linear_8,121,9999,9999,9999,1152146544
3811,20,Ticks_Linear_8,122,9999,9999,9999,1152726072
3811,20,Ticks_Linear_8,123,9999,9999,9999,1153306724
3811,20,Ticks_Linear_8,124,9999,9999,9999,1153886328
3811,20,Ticks_Linear_8,125,9999,9999,9999,1154456672
3811,20,Ticks_Linear_8,126,9999,9999,9999,1155027068
3811,20,Ticks_Linear_8,127,9999,9999,9999,1155596416
3811,20,Ticks_Linear_8,128,9999,9999,9999,1156166756
3811,20,Ticks_Linear_8,129,9999,9999,9999,1156736120
3811,20,Ticks_Linear_8,130,9999,9999,9999,1157296252
3811,20,Ticks_Linear_8,131,9999,9999,9999,1157856316
3811,20,Ticks_Linear_8,132,9999,9999,9999,1158416452
3811,20,Ticks_Linear_8,133,9999,9999,9999,1158976584
3811,20,Ticks_Linear_8,134,9999,9999,9999,1159536712
3811,20,Ticks_Linear_8,135,9999,9999,9999,1160086612
3811,20,Ticks_Linear_8,136,9999,9999,9999,1160636484
3811,20,Ticks_Linear_8,137,9999,9999,9999,1161186364
3811,20,Ticks_Linear_8,138,9999,9999,9999,1161736316
3811,20,Ticks_Linear_8,139,9999,9999,9999,1162286188
3811,20,Ticks_Linear_8,140,9999,9999,9999,1162826844
3811,20,Ticks_Linear_8,141,9999,9999,9999,1163366464
3811,20,Ticks_Linear_8,142,9999,9999,9999,1163906124
3811,20,Ticks_Linear_8,143,9999,9999,9999,1164446836
3811,20,Ticks_Linear_8,144,9999,9999,9999,1164986452
3811,20,Ticks_Linear_8,145,9999,9999,9999,1165516928
3811,20,Ticks_Linear_8,146,9999,9999,9999,1166046288
3811,20,Ticks_Linear_8,147,9999,9999,9999,1166576696
3811,20,Ticks_Linear_8,148,9999,9999,9999,1167106128
3811,20,Ticks_Linear_8,149,9999,9999,9999,1167636596
3811,20,Ticks_Linear_8,150,9999,9999,9999,1168156744
3811,20,Ticks_Linear_8,151,9999,9999,9999,1168676960
3811,20,Ticks_Linear_8,152,9999,9999,9999,1169196132
3811,20,Ticks_Linear_8,153,9999,9999,9999,1169716348
3811,20,Ticks_Linear_8,154,9999,9999,9999,1170236496
3811,20,Ticks_Linear_8,155,9999,9999,9999,1170746456
3811,20,Ticks_Linear_8,156,9999,9999,9999,1171256416
3811,20,Ticks_Linear_8,157,9999,9999,9999,1171766372
3811,20,Ticks_Linear_8,158,9999,9999,9999,1172276332
3811,20,Ticks_Linear_8,159,9999,9999,9999,1172786300
3811,20,Ticks_Linear_8,160,9999,9999,9999,1173286972
3811,20,Ticks_Linear_8,161,9999,9999,9999,1173786744
3811,20,Ticks_Linear_8,162,9999,9999,9999,1174286444
3811,20,Ticks_Linear_8,163,9999,9999,9999,1174786144
3811,20,Ticks_Linear_8,164,9999,9999,9999,1175286900
3811,20,Ticks_Linear_8,165,9999,9999,9999,1175776340
3811,20,Ticks_Linear_8,166,9999,9999,9999,1176266828
3811,20,Ticks_Linear_8,167,9999,9999,9999,1176756336
3811,20,Ticks_Linear_8,168,9999,9999,9999,1177246832
3811,20,Ticks_Linear_8,169,9999,9999,9999,1177736272
3812,25,Jits_Pract_5,0,5,56,103,1223168216
3812,25,Jits_Pract_5,1,5,63,98,1223171392
3812,25,Jits_Pract_5,2,5,80,127,1223174588
3812,25,Jits_Pract_5,0,5,56,103,1223668020
3812,25,Jits_Pract_5,1,5,63,98,1223670888
3812,25,Jits_Pract_5,2,5,80,127,1223674312
3812,25,Jits_Pract_5,0,5,56,103,1224167840
3812,25,Jits_Pract_5,1,5,80,127,1224178112
3812,25,Jits_Pract_5,2,5,63,98,1224197744
3812,25,Jits_Pract_5,0,5,63,98,1224618732
3812,25,Jits_Pract_5,1,5,80,127,1224648108
3812,25,Jits_Pract_5,2,5,56,103,1224658232
3812,25,Jits_Pract_5,0,5,80,127,1225177428
3812,25,Jits_Pract_5,1,5,56,103,1225187848
3812,25,Jits_Pract_5,2,5,63,98,1225218420
3812,25,Jits_Pract_5,0,5,63,98,1225667812
3812,25,Jits_Pract_5,1,5,56,103,1225697860
3812,25,Jits_Pract_5,2,5,80,127,1225707908
3812,25,Jits_Pract_5,0,5,56,103,1226117568
3812,25,Jits_Pract_5,1,5,63,98,1226167624
3812,25,Jits_Pract_5,2,5,80,127,1226188228
3812,25,Jits_Pract_5,0,5,80,127,1226618212
3812,25,Jits_Pract_5,1,5,63,98,1226668264
3812,25,Jits_Pract_5,2,5,56,103,1226708276
3812,25,Jits_Pract_5,0,5,56,103,1227117884
3812,25,Jits_Pract_5,1,5,63,98,1227147632
3812,25,Jits_Pract_5,2,5,80,127,1227218284
3812,25,Jits_Pract_5,0,5,56,103,1227617824
3812,25,Jits_Pract_5,1,5,80,127,1227678020
3812,25,Jits_Pract_5,2,5,63,98,1227707768
3812,25,Jits_Pract_5,0,5,56,103,1228127612
3812,25,Jits_Pract_5,1,5,63,98,1228137808
3812,25,Jits_Pract_5,2,5,80,127,1228177772
3812,25,Jits_Pract_5,0,5,63,98,1228628476
3812,25,Jits_Pract_5,1,5,80,127,1228708152
3812,25,Jits_Pract_5,2,5,56,103,1228717524
3812,25,Jits_Pract_5,0,5,63,98,1229178212
3812,25,Jits_Pract_5,1,5,56,103,1229218296
3812,25,Jits_Pract_5,2,5,80,127,1229221140
3812,25,Jits_Pract_5,0,5,56,103,1229637900
3812,25,Jits_Pract_5,1,5,63,98,1229648248
3812,25,Jits_Pract_5,2,5,80,127,1229688136
3812,25,Jits_Pract_5,0,5,56,103,1230127752
3812,25,Jits_Pract_5,1,5,63,98,1230130736
3812,25,Jits_Pract_5,2,5,80,127,1230147908
3812,25,Jits_Pract_5,0,9999,9999,9999,1223415880
3812,25,Jits_Pract_5,1,9999,9999,9999,1223915604
3812,25,Jits_Pract_5,2,9999,9999,9999,1224415352
3812,25,Jits_Pract_5,3,9999,9999,9999,1224916064
3812,25,Jits_Pract_5,4,9999,9999,9999,1225415800
3812,25,Jits_Pract_5,5,9999,9999,9999,1225915476
3812,25,Jits_Pract_5,6,9999,9999,9999,1226415204
3812,25,Jits_Pract_5,7,9999,9999,9999,1226915920
3812,25,Jits_Pract_5,8,9999,9999,9999,1227415664
3812,25,Jits_Pract_5,9,9999,9999,9999,1227915336
3812,25,Jits_Pract_5,10,9999,9999,9999,1228416056
3812,25,Jits_Pract_5,11,9999,9999,9999,1228926064
3812,25,Jits_Pract_5,12,9999,9999,9999,1229425716
3812,25,Jits_Pract_5,13,9999,9999,9999,1229925492
3812,25,Jits_Pract_5,14,9999,9999,9999,1230425144
3813,25,Jits_Pract_5,0,5,56,103,1277456692
3813,25,Jits_Pract_5,1,5,63,98,1277459788
3813,25,Jits_Pract_5,2,5,80,127,1277462908
3813,25,Jits_Pract_5,0,5,56,103,1277956568
3813,25,Jits_Pract_5,1,5,63,98,1277959588
3813,25,Jits_Pract_5,2,5,80,127,1277962712
3813,25,Jits_Pract_5,0,5,56,103,1278457280
3813,25,Jits_Pract_5,1,5,80,127,1278466580
3813,25,Jits_Pract_5,2,5,63,98,1278487036
3813,25,Jits_Pract_5,3,1,48,30,1278489784
3813,25,Jits_Pract_5,0,5,63,98,1278906640
3813,25,Jits_Pract_5,1,5,80,127,1278936612
3813,25,Jits_Pract_5,2,5,56,103,1278946588
3813,25,Jits_Pract_5,3,1,48,33,1278988284
3813,25,Jits_Pract_5,0,5,80,127,1279466792
3813,25,Jits_Pract_5,1,1,48,28,1279467756
3813,25,Jits_Pract_5,2,5,56,103,1279476980
3813,25,Jits_Pract_5,3,5,63,98,1279506728
3813,25,Jits_Pract_5,0,5,63,98,1279957656
3813,25,Jits_Pract_5,1,5,56,103,1279987188
3813,25,Jits_Pract_5,2,5,80,127,1279997308
3813,25,Jits_Pract_5,3,1,48,26,1280014128
3813,25,Jits_Pract_5,0,5,56,103,1280406864
3813,25,Jits_Pract_5,1,5,63,98,1280457140
3813,25,Jits_Pract_5,2,5,80,127,1280476480
3813,25,Jits_Pract_5,3,1,48,22,1280487544
3813,25,Jits_Pract_5,0,5,80,127,1280906568
3813,25,Jits_Pract_5,1,5,63,98,1280956920
3813,25,Jits_Pract_5,2,1,48,16,1280964152
3813,25,Jits_Pract_5,3,5,56,103,1280996852
3813,25,Jits_Pract_5,0,5,56,103,1281407616
3813,25,Jits_Pract_5,1,5,63,98,1281436920
3813,25,Jits_Pract_5,2,1,48,19,1281476908
3813,25,Jits_Pract_5,3,5,80,127,1281506820
3813,25,Jits_Pract_5,0,5,56,103,1281907104
3813,25,Jits_Pract_5,1,1,48,30,1281948884
3813,25,Jits_Pract_5,2,5,80,127,1281966588
3813,25,Jits_Pract_5,3,5,63,98,1281997164
3813,25,Jits_Pract_5,0,5,56,103,1282417000
3813,25,Jits_Pract_5,1,5,63,98,1282427492
3813,25,Jits_Pract_5,2,5,80,127,1282467284
3813,25,Jits_Pract_5,0,5,63,98,1282906596
3813,25,Jits_Pract_5,1,1,48,37,1282974388
3813,25,Jits_Pract_5,2,5,80,127,1282987536
3813,25,Jits_Pract_5,3,5,56,103,1282996612
3813,25,Jits_Pract_5,0,1,48,37,1283450336
3813,25,Jits_Pract_5,1,5,63,98,1283457480
3813,25,Jits_Pract_5,2,5,56,103,1283497420
3813,25,Jits_Pract_5,3,5,80,127,1283500412
3813,25,Jits_Pract_5,0,5,56,103,1283917364
3813,25,Jits_Pract_5,1,5,63,98,1283927560
3813,25,Jits_Pract_5,2,5,80,127,1283967596
3813,25,Jits_Pract_5,3,1,48,39,1283970640
3813,25,Jits_Pract_5,0,5,56,103,1284406652
3813,25,Jits_Pract_5,1,5,63,98,1284409640
3813,25,Jits_Pract_5,2,5,80,127,1284427256
3813,25,Jits_Pract_5,3,1,48,37,1284466588
3813,25,Jits_Pract_5,0,9999,9999,9999,1277704276
3813,25,Jits_Pract_5,1,9999,9999,9999,1278205048
3813,25,Jits_Pract_5,2,9999,9999,9999,1278704696
3813,25,Jits_Pract_5,3,9999,9999,9999,1279204472
3813,25,Jits_Pract_5,4,9999,9999,9999,1279704168
3813,25,Jits_Pract_5,5,9999,9999,9999,1280204856
3813,25,Jits_Pract_5,6,9999,9999,9999,1280704624
3813,25,Jits_Pract_5,7,9999,9999,9999,1281204332
3813,25,Jits_Pract_5,8,9999,9999,9999,1281705084
3813,25,Jits_Pract_5,9,9999,9999,9999,1282204788
3813,25,Jits_Pract_5,10,9999,9999,9999,1282704440
3813,25,Jits_Pract_5,11,9999,9999,9999,1283204164
3813,25,Jits_Pract_5,12,9999,9999,9999,1283704900
3813,25,Jits_Pract_5,13,9999,9999,9999,1284204660
3813,25,Jits_Pract_5,14,9999,9999,9999,1284704324
3814,24,Jits_Pract_8,0,5,56,103,1290875296
3814,24,Jits_Pract_8,1,5,63,98,1290878476
3814,24,Jits_Pract_8,2,5,80,127,1290881520
3814,24,Jits_Pract_8,0,5,56,103,1291675088
3814,24,Jits_Pract_8,1,5,63,98,1291678340
3814,24,Jits_Pract_8,2,5,80,127,1291681236
3814,24,Jits_Pract_8,0,5,80,127,1292415328
3814,24,Jits_Pract_8,1,5,63,98,1292504416
3814,24,Jits_Pract_8,2,5,56,103,1292514612
3814,24,Jits_Pract_8,0,5,56,103,1293234472
3814,24,Jits_Pract_8,1,5,63,98,1293244744
3814,24,Jits_Pract_8,2,5,80,127,1293335020
3814,24,Jits_Pract_8,0,5,63,98,1294004536
3814,24,Jits_Pract_8,1,5,80,127,1294035256
3814,24,Jits_Pract_8,2,1,48,53,1294048492
3814,24,Jits_Pract_8,3,5,56,103,1294065148
3814,24,Jits_Pract_8,0,1,48,59,1294785148
3814,24,Jits_Pract_8,1,5,56,103,1294805252
3814,24,Jits_Pract_8,2,5,80,127,1294904660
3814,24,Jits_Pract_8,3,5,63,98,1294954812
3814,24,Jits_Pract_8,0,5,56,103,1295605092
3814,24,Jits_Pract_8,1,1,48,51,1295621688
3814,24,Jits_Pract_8,2,5,80,127,1295655212
3814,24,Jits_Pract_8,3,5,63,98,1295695148
3814,24,Jits_Pract_8,0,1,48,53,1296421600
3814,24,Jits_Pract_8,1,5,80,127,1296434520
3814,24,Jits_Pract_8,2,5,63,98,1296465248
3814,24,Jits_Pract_8,3,5,56,103,1296535008
3814,24,Jits_Pract_8,0,1,48,57,1297258924
3814,24,Jits_Pract_8,1,5,63,98,1297265020
3814,24,Jits_Pract_8,2,5,56,103,1297294992
3814,24,Jits_Pract_8,3,5,80,127,1297355084
3814,24,Jits_Pract_8,0,5,56,103,1298005344
3814,24,Jits_Pract_8,1,5,80,127,1298008416
3814,24,Jits_Pract_8,2,1,48,50,1298018276
3814,24,Jits_Pract_8,3,5,63,98,1298125292
3814,24,Jits_Pract_8,0,1,48,46,1298825924
3814,24,Jits_Pract_8,1,5,56,103,1298884916
3814,24,Jits_Pract_8,2,5,80,127,1298924840
3814,24,Jits_Pract_8,3,5,63,98,1298935184
3814,24,Jits_Pract_8,0,5,56,103,1299644756
3814,24,Jits_Pract_8,1,1,48,41,1299652432
3814,24,Jits_Pract_8,2,5,80,127,1299665208
3814,24,Jits_Pract_8,3,5,63,98,1299745000
3814,24,Jits_Pract_8,0,1,48,43,1300433792
3814,24,Jits_Pract_8,1,5,80,127,1300435600
3814,24,Jits_Pract_8,2,5,56,103,1300534640
3814,24,Jits_Pract_8,3,5,63,98,1300544908
3814,24,Jits_Pract_8,0,5,63,98,1301205400
3814,24,Jits_Pract_8,1,1,48,52,1301265044
3814,24,Jits_Pract_8,2,5,80,127,1301266612
3814,24,Jits_Pract_8,3,5,56,103,1301275008
3814,24,Jits_Pract_8,0,5,56,103,1302005080
3814,24,Jits_Pract_8,1,1,48,47,1302024984
3814,24,Jits_Pract_8,2,5,63,98,1302074680
3814,24,Jits_Pract_8,3,5,80,127,1302078192
3814,24,Jits_Pract_8,0,9999,9999,9999,1291272260
3814,24,Jits_Pract_8,1,9999,9999,9999,1292073020
3814,24,Jits_Pract_8,2,9999,9999,9999,1292872828
3814,24,Jits_Pract_8,3,9999,9999,9999,1293672512
3814,24,Jits_Pract_8,4,9999,9999,9999,1294472292
3814,24,Jits_Pract_8,5,9999,9999,9999,1295273024
3814,24,Jits_Pract_8,6,9999,9999,9999,1296072780
3814,24,Jits_Pract_8,7,9999,9999,9999,1296872552
3814,24,Jits_Pract_8,8,9999,9999,9999,1297672308
3814,24,Jits_Pract_8,9,9999,9999,9999,1298473024
3814,24,Jits_Pract_8,10,9999,9999,9999,1299272804
3814,24,Jits_Pract_8,11,9999,9999,9999,1300072512
3814,24,Jits_Pract_8,12,9999,9999,9999,1300872288
3814,24,Jits_Pract_8,13,9999,9999,9999,1301673012
3814,24,Jits_Pract_8,14,9999,9999,9999,1302472760
3815,17,Jits_Phase_5,0,5,56,103,1350957444
3815,17,Jits_Phase_5,1,5,63,98,1350960616
3815,17,Jits_Phase_5,2,5,80,127,1350963960
3815,17,Jits_Phase_5,0,5,56,103,1351458124
3815,17,Jits_Phase_5,1,5,63,98,1351461144
3815,17,Jits_Phase_5,2,5,80,127,1351464340
3815,17,Jits_Phase_5,0,5,56,103,1351957772
3815,17,Jits_Phase_5,1,5,80,127,1351968044
3815,17,Jits_Phase_5,2,5,63,98,1351987752
3815,17,Jits_Phase_5,0,5,63,98,1352408352
3815,17,Jits_Phase_5,1,5,80,127,1352438028
3815,17,Jits_Phase_5,2,5,56,103,1352448224
3815,17,Jits_Phase_5,3,1,48,53,1352466480
3815,17,Jits_Phase_5,0,1,48,54,1352927248
3815,17,Jits_Phase_5,1,5,80,127,1352967724
3815,17,Jits_Phase_5,2,5,56,103,1352977996
3815,17,Jits_Phase_5,3,5,63,98,1353007744
3815,17,Jits_Phase_5,0,5,63,98,1353458120
3815,17,Jits_Phase_5,1,1,48,46,1353462432
3815,17,Jits_Phase_5,2,5,56,103,1353487712
3815,17,Jits_Phase_5,3,5,80,127,1353497832
3815,17,Jits_Phase_5,0,5,56,103,1353907748
3815,17,Jits_Phase_5,1,5,63,98,1353957728
3815,17,Jits_Phase_5,2,1,48,44,1353961596
3815,17,Jits_Phase_5,3,5,80,127,1353978104
3815,17,Jits_Phase_5,0,5,80,127,1354408336
3815,17,Jits_Phase_5,1,1,48,46,1354434752
3815,17,Jits_Phase_5,2,5,63,98,1354457560
3815,17,Jits_Phase_5,3,5,56,103,1354498396
3815,17,Jits_Phase_5,0,5,56,103,1354907948
3815,17,Jits_Phase_5,1,5,63,98,1354937772
3815,17,Jits_Phase_5,2,1,48,43,1354945452
3815,17,Jits_Phase_5,3,5,80,127,1355008564
3815,17,Jits_Phase_5,0,5,56,103,1355407636
3815,17,Jits_Phase_5,1,1,48,38,1355439824
3815,17,Jits_Phase_5,2,5,80,127,1355468096
3815,17,Jits_Phase_5,3,5,63,98,1355497920
3815,17,Jits_Phase_5,0,5,56,103,1355917592
3815,17,Jits_Phase_5,1,5,63,98,1355927860
3815,17,Jits_Phase_5,2,1,48,46,1355960196
3815,17,Jits_Phase_5,3,5,80,127,1355967792
3815,17,Jits_Phase_5,0,5,63,98,1356408288
3815,17,Jits_Phase_5,1,1,48,48,1356430284
3815,17,Jits_Phase_5,2,5,80,127,1356488004
3815,17,Jits_Phase_5,3,5,56,103,1356498420
3815,17,Jits_Phase_5,0,1,48,47,1356942164
3815,17,Jits_Phase_5,1,5,63,98,1356958008
3815,17,Jits_Phase_5,2,5,56,103,1356997864
3815,17,Jits_Phase_5,3,5,80,127,1357001008
3815,17,Jits_Phase_5,0,5,56,103,1357417968
3815,17,Jits_Phase_5,1,5,63,98,1357428240
3815,17,Jits_Phase_5,2,5,80,127,1357467952
3815,17,Jits_Phase_5,3,1,48,43,1357483356
3815,17,Jits_Phase_5,0,5,56,103,1357908484
3815,17,Jits_Phase_5,1,5,63,98,1357911552
3815,17,Jits_Phase_5,2,5,80,127,1357927700
3815,17,Jits_Phase_5,3,1,48,34,1357996444
3815,17,Jits_Phase_5,0,5,80,127,1358418496
3815,17,Jits_Phase_5,1,5,56,103,1358427496
3815,17,Jits_Phase_5,2,1,48,38,1358479416
3815,17,Jits_Phase_5,3,5,63,98,1358498164
3815,17,Jits_Phase_5,0,5,63,98,1358907696
3815,17,Jits_Phase_5,1,5,56,103,1358928376
3815,17,Jits_Phase_5,2,1,48,42,1358969136
3815,17,Jits_Phase_5,3,5,80,127,1359008040
3815,17,Jits_Phase_5,0,5,56,103,1359417636
3815,17,Jits_Phase_5,1,1,48,44,1359448700
3815,17,Jits_Phase_5,2,5,80,127,1359457640
3815,17,Jits_Phase_5,3,5,63,98,1359467784
3815,17,Jits_Phase_5,0,5,80,127,1359908320
3815,17,Jits_Phase_5,1,5,63,98,1359937920
3815,17,Jits_Phase_5,2,1,48,37,1359954816
3815,17,Jits_Phase_5,3,5,56,103,1359977880
3815,17,Jits_Phase_5,0,5,56,103,1360428608
3815,17,Jits_Phase_5,1,1,48,35,1360454572
3815,17,Jits_Phase_5,2,5,63,98,1360458056
3815,17,Jits_Phase_5,3,5,80,127,1360508128
3815,17,Jits_Phase_5,0,5,80,127,1360928296
3815,17,Jits_Phase_5,1,5,56,103,1360968308
3815,17,Jits_Phase_5,2,1,48,29,1360969572
3815,17,Jits_Phase_5,3,5,63,98,1360978572
3815,17,Jits_Phase_5,0,5,80,127,1361408356
3815,17,Jits_Phase_5,1,5,63,98,1361448440
3815,17,Jits_Phase_5,2,1,48,43,1361456516
3815,17,Jits_Phase_5,3,5,56,103,1361507800
3815,17,Jits_Phase_5,0,5,56,103,1361908116
3815,17,Jits_Phase_5,1,5,80,127,1361918608
3815,17,Jits_Phase_5,2,1,48,35,1361976124
3815,17,Jits_Phase_5,3,5,63,98,1361998392
3815,17,Jits_Phase_5,0,5,80,127,1362407956
3815,17,Jits_Phase_5,1,5,63,98,1362468344
3815,17,Jits_Phase_5,2,1,48,33,1362478808
3815,17,Jits_Phase_5,3,5,56,103,1362497788
3815,17,Jits_Phase_5,0,5,56,103,1362907420
3815,17,Jits_Phase_5,1,5,80,127,1362967808
3815,17,Jits_Phase_5,2,1,48,29,1362993620
3815,17,Jits_Phase_5,3,5,63,98,1363007812
3815,17,Jits_Phase_5,0,5,56,103,1363458576
3815,17,Jits_Phase_5,1,5,63,98,1363467648
3815,17,Jits_Phase_5,2,5,80,127,1363471084
3815,17,Jits_Phase_5,3,1,48,31,1363499904
3815,17,Jits_Phase_5,0,5,80,127,1363908128
3815,17,Jits_Phase_5,1,1,48,33,1363980700
3815,17,Jits_Phase_5,2,5,63,98,1363997960
3815,17,Jits_Phase_5,3,5,56,103,1364008376
3815,17,Jits_Phase_5,0,5,56,103,1364407572
3815,17,Jits_Phase_5,1,5,63,98,1364410748
3815,17,Jits_Phase_5,2,5,80,127,1364413872
3815,17,Jits_Phase_5,3,1,48,37,1364484716
3815,17,Jits_Phase_5,0,5,80,127,1364927860
3815,17,Jits_Phase_5,1,1,48,32,1364961916
3815,17,Jits_Phase_5,2,5,63,98,1364977908
3815,17,Jits_Phase_5,3,5,56,103,1365007580
3815,17,Jits_Phase_5,0,5,56,103,1365418408
3815,17,Jits_Phase_5,1,5,80,127,1365427704
3815,17,Jits_Phase_5,2,1,48,32,1365460492
3815,17,Jits_Phase_5,3,5,63,98,1365498348
3815,17,Jits_Phase_5,0,5,56,103,1365928432
3815,17,Jits_Phase_5,1,5,63,98,1365947696
3815,17,Jits_Phase_5,2,1,48,31,1365966476
3815,17,Jits_Phase_5,3,5,80,127,1366008596
3815,17,Jits_Phase_5,0,5,80,127,1366407520
3815,17,Jits_Phase_5,1,1,48,27,1366446308
3815,17,Jits_Phase_5,2,5,63,98,1366478316
3815,17,Jits_Phase_5,3,5,56,103,1366497504
3815,17,Jits_Phase_5,0,5,80,127,1366927812
3815,17,Jits_Phase_5,1,5,56,103,1366938304
3815,17,Jits_Phase_5,2,5,63,98,1366948348
3815,17,Jits_Phase_5,3,1,48,31,1366966684
3815,17,Jits_Phase_5,0,5,80,127,1367418204
3815,17,Jits_Phase_5,1,5,56,103,1367437764
3815,17,Jits_Phase_5,2,1,48,33,1367449876
3815,17,Jits_Phase_5,3,5,63,98,1367508336
3815,17,Jits_Phase_5,0,5,56,103,1367928452
3815,17,Jits_Phase_5,1,5,80,127,1367957832
3815,17,Jits_Phase_5,2,1,48,31,1367959020
3815,17,Jits_Phase_5,3,5,63,98,1367978284
3815,17,Jits_Phase_5,0,5,63,98,1368417704
3815,17,Jits_Phase_5,1,1,48,32,1368435224
3815,17,Jits_Phase_5,2,5,56,103,1368478188
3815,17,Jits_Phase_5,3,5,80,127,1368507712
3815,17,Jits_Phase_5,0,5,63,98,1368908312
3815,17,Jits_Phase_5,1,5,80,127,1368911452
3815,17,Jits_Phase_5,2,1,48,29,1368923860
3815,17,Jits_Phase_5,3,5,56,103,1368998380
3815,17,Jits_Phase_5,0,5,56,103,1369428424
3815,17,Jits_Phase_5,1,1,48,27,1369443252
3815,17,Jits_Phase_5,2,5,63,98,1369458268
3815,17,Jits_Phase_5,3,5,80,127,1369498132
3815,17,Jits_Phase_5,0,1,48,35,1369918944
3815,17,Jits_Phase_5,1,5,63,98,1369928184
3815,17,Jits_Phase_5,2,5,56,103,1369968072
3815,17,Jits_Phase_5,3,5,80,127,1369987412
3815,17,Jits_Phase_5,0,1,48,24,1370433668
3815,17,Jits_Phase_5,1,5,63,98,1370438268
3815,17,Jits_Phase_5,2,5,56,103,1370478232
3815,17,Jits_Phase_5,3,5,80,127,1370488204
3815,17,Jits_Phase_5,0,5,80,127,1370918172
3815,17,Jits_Phase_5,1,1,48,28,1370926016
3815,17,Jits_Phase_5,2,5,63,98,1370988020
3815,17,Jits_Phase_5,3,5,56,103,1371008404
3815,17,Jits_Phase_5,0,5,56,103,1371407896
3815,17,Jits_Phase_5,1,5,80,127,1371428132
3815,17,Jits_Phase_5,2,1,48,25,1371433272
3815,17,Jits_Phase_5,3,5,63,98,1371468136
3815,17,Jits_Phase_5,0,5,63,98,1371917624
3815,17,Jits_Phase_5,1,1,48,29,1371922836
3815,17,Jits_Phase_5,2,5,80,127,1371938296
3815,17,Jits_Phase_5,3,5,56,103,1371978236
3815,17,Jits_Phase_5,0,5,63,98,1372418344
3815,17,Jits_Phase_5,1,1,48,26,1372423928
3815,17,Jits_Phase_5,2,5,56,103,1372437972
3815,17,Jits_Phase_5,3,5,80,127,1372448240
3815,17,Jits_Phase_5,0,5,80,127,1372918164
3815,17,Jits_Phase_5,1,1,48,25,1372920752
3815,17,Jits_Phase_5,2,5,56,103,1372937568
3815,17,Jits_Phase_5,3,5,63,98,1372968364
3815,17,Jits_Phase_5,0,1,48,29,1373423352
3815,17,Jits_Phase_5,1,5,56,103,1373487516
3815,17,Jits_Phase_5,2,5,80,127,1373490432
3815,17,Jits_Phase_5,3,5,63,98,1373508048
3815,17,Jits_Phase_5,0,5,63,98,1373908304
3815,17,Jits_Phase_5,1,1,48,35,1373924532
3815,17,Jits_Phase_5,2,5,56,103,1373938120
3815,17,Jits_Phase_5,3,5,80,127,1373997316
3815,17,Jits_Phase_5,0,1,48,41,1374392584
3815,17,Jits_Phase_5,1,5,63,98,1374488196
3815,17,Jits_Phase_5,2,5,56,103,1374498020
3815,17,Jits_Phase_5,3,5,80,127,1374508364
3815,17,Jits_Phase_5,0,1,48,37,1374923424
3815,17,Jits_Phase_5,1,5,56,103,1374947884
3815,17,Jits_Phase_5,2,5,80,127,1374978456
3815,17,Jits_Phase_5,3,5,63,98,1374987828
3815,17,Jits_Phase_5,0,1,48,32,1375440940
3815,17,Jits_Phase_5,1,5,63,98,1375488316
3815,17,Jits_Phase_5,2,5,56,103,1375497616
3815,17,Jits_Phase_5,3,5,80,127,1375518072
3815,17,Jits_Phase_5,0,5,56,103,1375917500
3815,17,Jits_Phase_5,1,1,48,36,1375939124
3815,17,Jits_Phase_5,2,5,63,98,1375978032
3815,17,Jits_Phase_5,3,5,80,127,1375981176
3815,17,Jits_Phase_5,0,1,48,37,1376424260
3815,17,Jits_Phase_5,1,5,80,127,1376437556
3815,17,Jits_Phase_5,2,5,56,103,1376448048
3815,17,Jits_Phase_5,3,5,63,98,1376517352
3815,17,Jits_Phase_5,0,5,80,127,1376928168
3815,17,Jits_Phase_5,1,1,48,37,1376957888
3815,17,Jits_Phase_5,2,5,56,103,1376997988
3815,17,Jits_Phase_5,3,5,63,98,1377007960
3815,17,Jits_Phase_5,0,1,48,38,1377449248
3815,17,Jits_Phase_5,1,5,63,98,1377467780
3815,17,Jits_Phase_5,2,5,56,103,1377477904
3815,17,Jits_Phase_5,3,5,80,127,1377497536
3815,17,Jits_Phase_5,0,5,80,127,1377918236
3815,17,Jits_Phase_5,1,1,48,43,1377931320
3815,17,Jits_Phase_5,2,5,63,98,1377977948
3815,17,Jits_Phase_5,3,5,56,103,1378017884
3815,17,Jits_Phase_5,0,1,48,33,1378432576
3815,17,Jits_Phase_5,1,5,56,103,1378457932
3815,17,Jits_Phase_5,2,5,63,98,1378468204
3815,17,Jits_Phase_5,3,5,80,127,1378508064
3815,17,Jits_Phase_5,0,1,48,40,1378907884
3815,17,Jits_Phase_5,1,5,56,103,1378917896
3815,17,Jits_Phase_5,2,5,80,127,1378947424
3815,17,Jits_Phase_5,3,5,63,98,1378997848
3815,17,Jits_Phase_5,0,1,48,36,1379415800
3815,17,Jits_Phase_5,1,5,56,103,1379458400
3815,17,Jits_Phase_5,2,5,63,98,1379498484
3815,17,Jits_Phase_5,3,5,80,127,1379501996
3815,17,Jits_Phase_5,0,1,48,35,1379950396
3815,17,Jits_Phase_5,1,5,56,103,1379958068
3815,17,Jits_Phase_5,2,5,63,98,1379968412
3815,17,Jits_Phase_5,3,5,80,127,1379987676
3815,17,Jits_Phase_5,0,5,56,103,1380417864
3815,17,Jits_Phase_5,1,5,80,127,1380421004
3815,17,Jits_Phase_5,2,1,48,39,1380426456
3815,17,Jits_Phase_5,3,5,63,98,1380457744
3815,17,Jits_Phase_5,0,1,48,32,1380942076
3815,17,Jits_Phase_5,1,5,63,98,1380957692
3815,17,Jits_Phase_5,2,5,56,103,1380988364
3815,17,Jits_Phase_5,3,5,80,127,1381007700
3815,17,Jits_Phase_5,0,1,48,40,1381427400
3815,17,Jits_Phase_5,1,5,80,127,1381429032
3815,17,Jits_Phase_5,2,5,56,103,1381437884
3815,17,Jits_Phase_5,3,5,63,98,1381448156
3815,17,Jits_Phase_5,0,5,56,103,1381928264
3815,17,Jits_Phase_5,1,1,48,38,1381930056
3815,17,Jits_Phase_5,2,5,80,127,1381968200
3815,17,Jits_Phase_5,3,5,63,98,1381997896
3815,17,Jits_Phase_5,0,5,63,98,1382438220
3815,17,Jits_Phase_5,1,1,48,40,1382440232
3815,17,Jits_Phase_5,2,5,80,127,1382447660
3815,17,Jits_Phase_5,3,5,56,103,1382457856
3815,17,Jits_Phase_5,0,5,56,103,1382927700
3815,17,Jits_Phase_5,1,1,48,41,1382972168
3815,17,Jits_Phase_5,2,5,63,98,1382998496
3815,17,Jits_Phase_5,3,5,80,127,1383007796
3815,17,Jits_Phase_5,0,1,48,44,1383429652
3815,17,Jits_Phase_5,1,5,80,127,1383437772
3815,17,Jits_Phase_5,2,5,56,103,1383448116
3815,17,Jits_Phase_5,3,5,63,98,1383498092
3815,17,Jits_Phase_5,0,1,48,39,1383943476
3815,17,Jits_Phase_5,1,5,80,127,1383947776
3815,17,Jits_Phase_5,2,5,56,103,1384008020
3815,17,Jits_Phase_5,3,5,63,98,1384037704
3815,17,Jits_Phase_5,0,1,48,35,1384447892
3815,17,Jits_Phase_5,1,5,56,103,1384449640
3815,17,Jits_Phase_5,2,5,80,127,1384452316
3815,17,Jits_Phase_5,3,5,63,98,1384488584
3815,17,Jits_Phase_5,0,1,48,38,1384933072
3815,17,Jits_Phase_5,1,5,56,103,1384977760
3815,17,Jits_Phase_5,2,5,63,98,1385007660
3815,17,Jits_Phase_5,3,5,80,127,1385017856
3815,17,Jits_Phase_5,0,1,48,46,1385426616
3815,17,Jits_Phase_5,1,5,63,98,1385487776
3815,17,Jits_Phase_5,2,5,80,127,1385498044
3815,17,Jits_Phase_5,3,5,56,103,1385508240
3815,17,Jits_Phase_5,0,5,80,127,1385938236
3815,17,Jits_Phase_5,1,1,48,36,1385970948
3815,17,Jits_Phase_5,2,5,56,103,1385987532
3815,17,Jits_Phase_5,3,5,63,98,1385990744
3815,17,Jits_Phase_5,0,5,56,103,1386467804
3815,17,Jits_Phase_5,1,1,48,37,1386473544
3815,17,Jits_Phase_5,2,5,80,127,1386488184
3815,17,Jits_Phase_5,3,5,63,98,1386498604
3815,17,Jits_Phase_5,0,5,63,98,1386948012
3815,17,Jits_Phase_5,1,1,48,42,1386950908
3815,17,Jits_Phase_5,2,5,56,103,1386977608
3815,17,Jits_Phase_5,3,5,80,127,1386997992
3815,17,Jits_Phase_5,0,5,56,103,1387457876
3815,17,Jits_Phase_5,1,1,48,32,1387467692
3815,17,Jits_Phase_5,2,5,80,127,1387469484
3815,17,Jits_Phase_5,3,5,63,98,1387537668
3815,17,Jits_Phase_5,0,5,63,98,1387948572
3815,17,Jits_Phase_5,1,1,48,41,1387956272
3815,17,Jits_Phase_5,2,5,80,127,1387988432
3815,17,Jits_Phase_5,3,5,56,103,1388028368
3815,17,Jits_Phase_5,0,5,56,103,1388458436
3815,17,Jits_Phase_5,1,1,48,33,1388465540
3815,17,Jits_Phase_5,2,5,63,98,1388467504
3815,17,Jits_Phase_5,3,5,80,127,1388488036
3815,17,Jits_Phase_5,0,1,48,39,1388958772
3815,17,Jits_Phase_5,1,5,63,98,1388997976
3815,17,Jits_Phase_5,2,5,80,127,1389017612
3815,17,Jits_Phase_5,3,5,56,103,1389037848
3815,17,Jits_Phase_5,0,5,56,103,1389438472
3815,17,Jits_Phase_5,1,1,48,39,1389486404
3815,17,Jits_Phase_5,2,5,80,127,1389518484
3815,17,Jits_Phase_5,3,5,63,98,1389528680
3815,17,Jits_Phase_5,0,5,80,127,1389977948
3815,17,Jits_Phase_5,1,1,48,38,1389979436
3815,17,Jits_Phase_5,2,5,63,98,1389988288
3815,17,Jits_Phase_5,3,5,56,103,1390017888
3815,17,Jits_Phase_5,0,5,63,98,1390437708
3815,17,Jits_Phase_5,1,5,80,127,1390477648
3815,17,Jits_Phase_5,2,1,48,41,1390505772
3815,17,Jits_Phase_5,3,5,56,103,1390538172
3815,17,Jits_Phase_5,0,5,63,98,1390947792
3815,17,Jits_Phase_5,1,1,48,41,1390989196
3815,17,Jits_Phase_5,2,5,56,103,1390997840
3815,17,Jits_Phase_5,3,5,80,127,1391027512
3815,17,Jits_Phase_5,0,5,80,127,1391448416
3815,17,Jits_Phase_5,1,5,63,98,1391457592
3815,17,Jits_Phase_5,2,1,48,32,1391470604
3815,17,Jits_Phase_5,3,5,56,103,1391528456
3815,17,Jits_Phase_5,0,1,48,38,1391966368
3815,17,Jits_Phase_5,1,5,80,127,1392007540
3815,17,Jits_Phase_5,2,5,56,103,1392017884
3815,17,Jits_Phase_5,3,5,63,98,1392020948
3815,17,Jits_Phase_5,0,5,56,103,1392447776
3815,17,Jits_Phase_5,1,5,80,127,1392468312
3815,17,Jits_Phase_5,2,1,48,35,1392473524
3815,17,Jits_Phase_5,3,5,63,98,1392477676
3815,17,Jits_Phase_5,0,1,48,32,1392954544
3815,17,Jits_Phase_5,1,5,63,98,1392957724
3815,17,Jits_Phase_5,2,5,56,103,1392997688
3815,17,Jits_Phase_5,3,5,80,127,1393018368
3815,17,Jits_Phase_5,0,5,63,98,1393457408
3815,17,Jits_Phase_5,1,1,48,37,1393460376
3815,17,Jits_Phase_5,2,5,56,103,1393517888
3815,17,Jits_Phase_5,3,5,80,127,1393521100
3815,17,Jits_Phase_5,0,5,56,103,1393918488
3815,17,Jits_Phase_5,1,5,80,127,1393937752
3815,17,Jits_Phase_5,2,5,63,98,1393977688
3815,17,Jits_Phase_5,3,1,48,39,1393982076
3815,17,Jits_Phase_5,0,5,56,103,1394447696
3815,17,Jits_Phase_5,1,5,63,98,1394468452
3815,17,Jits_Phase_5,2,5,80,127,1394477376
3815,17,Jits_Phase_5,3,1,48,39,1394484684
3815,17,Jits_Phase_5,0,5,80,127,1394917716
3815,17,Jits_Phase_5,1,5,56,103,1394947316
3815,17,Jits_Phase_5,2,1,48,36,1394966848
3815,17,Jits_Phase_5,3,5,63,98,1394988364
3815,17,Jits_Phase_5,0,5,80,127,1395427740
3815,17,Jits_Phase_5,1,5,56,103,1395448348
3815,17,Jits_Phase_5,2,1,48,37,1395457916
3815,17,Jits_Phase_5,3,5,63,98,1395507460
3815,17,Jits_Phase_5,0,5,56,103,1395937616
3815,17,Jits_Phase_5,1,5,80,127,1395958224
3815,17,Jits_Phase_5,2,1,48,38,1395963512
3815,17,Jits_Phase_5,3,5,63,98,1396017484
3815,17,Jits_Phase_5,0,5,80,127,1396418192
3815,17,Jits_Phase_5,1,5,56,103,1396428464
3815,17,Jits_Phase_5,2,1,48,44,1396462520
3815,17,Jits_Phase_5,3,5,63,98,1396468244
3815,17,Jits_Phase_5,0,5,63,98,1396917580
3815,17,Jits_Phase_5,1,5,56,103,1396957592
3815,17,Jits_Phase_5,2,5,80,127,1396960656
3815,17,Jits_Phase_5,3,1,48,38,1396963324
3815,17,Jits_Phase_5,0,5,63,98,1397437844
3815,17,Jits_Phase_5,1,1,48,40,1397457980
3815,17,Jits_Phase_5,2,5,80,127,1397477628
3815,17,Jits_Phase_5,3,5,56,103,1397507300
3815,17,Jits_Phase_5,0,5,56,103,1397928304
3815,17,Jits_Phase_5,1,5,63,98,1397937452
3815,17,Jits_Phase_5,2,1,48,43,1397948444
3815,17,Jits_Phase_5,3,5,80,127,1397968168
3815,17,Jits_Phase_5,0,5,80,127,1398417948
3815,17,Jits_Phase_5,1,1,48,43,1398443984
3815,17,Jits_Phase_5,2,5,63,98,1398488300
3815,17,Jits_Phase_5,3,5,56,103,1398497820
3815,17,Jits_Phase_5,0,5,63,98,1398917560
3815,17,Jits_Phase_5,1,1,48,40,1398959936
3815,17,Jits_Phase_5,2,5,56,103,1398988356
3815,17,Jits_Phase_5,3,5,80,127,1398998256
3815,17,Jits_Phase_5,0,5,63,98,1399397608
3815,17,Jits_Phase_5,1,5,56,103,1399418216
3815,17,Jits_Phase_5,2,1,48,34,1399427116
3815,17,Jits_Phase_5,3,5,80,127,1399458072
3815,17,Jits_Phase_5,0,5,56,103,1399878152
3815,17,Jits_Phase_5,1,5,63,98,1399888276
3815,17,Jits_Phase_5,2,1,48,37,1399930672
3815,17,Jits_Phase_5,3,5,80,127,1399968084
3815,17,Jits_Phase_5,0,5,63,98,1400367504
3815,17,Jits_Phase_5,1,5,56,103,1400398080
3815,17,Jits_Phase_5,2,1,48,28,1400416884
3815,17,Jits_Phase_5,3,5,80,127,1400438180
3815,17,Jits_Phase_5,0,5,56,103,1400868072
3815,17,Jits_Phase_5,1,5,63,98,1400908012
3815,17,Jits_Phase_5,2,1,48,28,1400929956
3815,17,Jits_Phase_5,3,5,80,127,1400948040
3815,17,Jits_Phase_5,0,5,80,127,1401368056
3815,17,Jits_Phase_5,1,1,48,31,1401415068
3815,17,Jits_Phase_5,2,5,56,103,1401448164
3815,17,Jits_Phase_5,3,5,63,98,1401458212
3815,17,Jits_Phase_5,0,5,56,103,1401907672
3815,17,Jits_Phase_5,1,5,63,98,1401910740
3815,17,Jits_Phase_5,2,5,80,127,1401917868
3815,17,Jits_Phase_5,3,1,48,26,1401955484
3815,17,Jits_Phase_5,0,5,56,103,1402428032
3815,17,Jits_Phase_5,1,1,48,23,1402446300
3815,17,Jits_Phase_5,2,5,63,98,1402448188
3815,17,Jits_Phase_5,3,5,80,127,1402457488
3815,17,Jits_Phase_5,0,5,63,98,1402887648
3815,17,Jits_Phase_5,1,5,80,127,1402897992
3815,17,Jits_Phase_5,2,5,56,103,1402918152
3815,17,Jits_Phase_5,3,1,48,34,1402921196
3815,17,Jits_Phase_5,0,5,63,98,1403388216
3815,17,Jits_Phase_5,1,1,48,35,1403435544
3815,17,Jits_Phase_5,2,5,56,103,1403468076
3815,17,Jits_Phase_5,3,5,80,127,1403471216
3815,17,Jits_Phase_5,0,5,63,98,1403887884
3815,17,Jits_Phase_5,1,5,56,103,1403907444
3815,17,Jits_Phase_5,2,1,48,30,1403914224
3815,17,Jits_Phase_5,3,5,80,127,1403938156
3815,17,Jits_Phase_5,0,5,56,103,1404387784
3815,17,Jits_Phase_5,1,1,48,35,1404405128
3815,17,Jits_Phase_5,2,5,63,98,1404408160
3815,17,Jits_Phase_5,3,5,80,127,1404418356
3815,17,Jits_Phase_5,0,1,48,32,1404909164
3815,17,Jits_Phase_5,1,5,56,103,1404918256
3815,17,Jits_Phase_5,2,5,63,98,1404948004
3815,17,Jits_Phase_5,3,5,80,127,1404951368
3815,17,Jits_Phase_5,0,5,56,103,1405367812
3815,17,Jits_Phase_5,1,5,63,98,1405407676
3815,17,Jits_Phase_5,2,1,48,30,1405423900
3815,17,Jits_Phase_5,3,5,80,127,1405468056
3815,17,Jits_Phase_5,0,5,56,103,1405888104
3815,17,Jits_Phase_5,1,5,63,98,1405898076
3815,17,Jits_Phase_5,2,1,48,35,1405919996
3815,17,Jits_Phase_5,3,5,80,127,1405957560
3815,17,Jits_Phase_5,0,5,56,103,1406397832
3815,17,Jits_Phase_5,1,1,48,35,1406406276
3815,17,Jits_Phase_5,2,5,80,127,1406418432
3815,17,Jits_Phase_5,3,5,63,98,1406448104
3815,17,Jits_Phase_5,0,5,80,127,1406897444
3815,17,Jits_Phase_5,1,5,56,103,1406907864
3815,17,Jits_Phase_5,2,5,63,98,1406928100
3815,17,Jits_Phase_5,3,1,48,35,1406931072
3815,17,Jits_Phase_5,0,5,63,98,1407387992
3815,17,Jits_Phase_5,1,1,48,38,1407437340
3815,17,Jits_Phase_5,2,5,80,127,1407467856
3815,17,Jits_Phase_5,3,5,56,103,1407478052
3815,17,Jits_Phase_5,0,1,48,32,1407924712
3815,17,Jits_Phase_5,1,5,80,127,1407977868
3815,17,Jits_Phase_5,2,5,56,103,1407998172
3815,17,Jits_Phase_5,3,5,63,98,1408001316
3815,17,Jits_Phase_5,0,1,48,35,1408416604
3815,17,Jits_Phase_5,1,5,63,98,1408468240
3815,17,Jits_Phase_5,2,5,80,127,1408471980
3815,17,Jits_Phase_5,3,5,56,103,1408527868
3815,17,Jits_Phase_5,0,5,56,103,1408957880
3815,17,Jits_Phase_5,1,5,80,127,1408968004
3815,17,Jits_Phase_5,2,1,48,20,1408981608
3815,17,Jits_Phase_5,3,5,63,98,1409008008
3815,17,Jits_Phase_5,0,5,56,103,1409438088
3815,17,Jits_Phase_5,1,1,48,38,1409459640
3815,17,Jits_Phase_5,2,5,63,98,1409497576
3815,17,Jits_Phase_5,3,5,80,127,1409507696
3815,17,Jits_Phase_5,0,5,63,98,1409947968
3815,17,Jits_Phase_5,1,1,48,31,1409971688
3815,17,Jits_Phase_5,2,5,80,127,1409987824
3815,17,Jits_Phase_5,3,5,56,103,1410027836
3815,17,Jits_Phase_5,0,1,48,36,1410445124
3815,17,Jits_Phase_5,1,5,56,103,1410447708
3815,17,Jits_Phase_5,2,5,63,98,1410527800
3815,17,Jits_Phase_5,3,5,80,127,1410531164
3815,17,Jits_Phase_5,0,5,80,127,1411007916
3815,17,Jits_Phase_5,1,1,48,24,1411015520
3815,17,Jits_Phase_5,2,5,56,103,1411037508
3815,17,Jits_Phase_5,3,5,63,98,1411040576
3815,17,Jits_Phase_5,0,5,56,103,1411467820
3815,17,Jits_Phase_5,1,5,80,127,1411487980
3815,17,Jits_Phase_5,2,5,63,98,1411527916
3815,17,Jits_Phase_5,3,1,48,29,1411528884
3815,17,Jits_Phase_5,0,5,80,127,1411947880
3815,17,Jits_Phase_5,1,5,63,98,1411968564
3815,17,Jits_Phase_5,2,5,56,103,1412027756
3815,17,Jits_Phase_5,3,1,48,27,1412049156
3815,17,Jits_Phase_5,0,5,63,98,1412457836
3815,17,Jits_Phase_5,1,5,56,103,1412467956
3815,17,Jits_Phase_5,2,5,80,127,1412518156
3815,17,Jits_Phase_5,3,1,48,24,1412542544
3815,17,Jits_Phase_5,0,5,56,103,1412957632
3815,17,Jits_Phase_5,1,5,63,98,1412978016
3815,17,Jits_Phase_5,2,5,80,127,1412988136
3815,17,Jits_Phase_5,3,1,48,20,1413066848
3815,17,Jits_Phase_5,0,5,56,103,1413448000
3815,17,Jits_Phase_5,1,5,63,98,1413451288
3815,17,Jits_Phase_5,2,5,80,127,1413467708
3815,17,Jits_Phase_5,3,1,48,21,1413564712
3815,17,Jits_Phase_5,0,5,63,98,1413987556
3815,17,Jits_Phase_5,1,5,56,103,1414018576
3815,17,Jits_Phase_5,2,5,80,127,1414048324
3815,17,Jits_Phase_5,3,1,48,20,1414072492
3815,17,Jits_Phase_5,0,5,80,127,1414447424
3815,17,Jits_Phase_5,1,5,56,103,1414537500
3815,17,Jits_Phase_5,2,5,63,98,1414540648
3815,17,Jits_Phase_5,3,1,48,23,1414541688
3815,17,Jits_Phase_5,0,5,56,103,1414948064
3815,17,Jits_Phase_5,1,5,80,127,1414951212
3815,17,Jits_Phase_5,2,1,48,30,1415025072
3815,17,Jits_Phase_5,3,5,63,98,1415028104
3815,17,Jits_Phase_5,0,5,80,127,1415447824
3815,17,Jits_Phase_5,1,5,63,98,1415508436
3815,17,Jits_Phase_5,2,5,56,103,1415538060
3815,17,Jits_Phase_5,3,1,48,24,1415546576
3815,17,Jits_Phase_5,0,5,63,98,1415947588
3815,17,Jits_Phase_5,1,5,80,127,1415957784
3815,17,Jits_Phase_5,2,5,56,103,1416027464
3815,17,Jits_Phase_5,3,1,48,21,1416029980
3815,17,Jits_Phase_5,0,1,48,28,1416507500
3815,17,Jits_Phase_5,1,5,56,103,1416509360
3815,17,Jits_Phase_5,2,5,80,127,1416537688
3815,17,Jits_Phase_5,3,5,63,98,1416587764
3815,17,Jits_Phase_5,0,1,48,32,1416985624
3815,17,Jits_Phase_5,1,5,63,98,1417097452
3815,17,Jits_Phase_5,2,5,56,103,1417128392
3815,17,Jits_Phase_5,3,5,80,127,1417131532
3815,17,Jits_Phase_5,0,1,48,25,1417534208
3815,17,Jits_Phase_5,1,5,63,98,1417598552
3815,17,Jits_Phase_5,2,5,80,127,1417617888
3815,17,Jits_Phase_5,3,5,56,103,1417627936
3815,17,Jits_Phase_5,0,1,48,22,1418072180
3815,17,Jits_Phase_5,1,5,56,103,1418108264
3815,17,Jits_Phase_5,2,5,63,98,1418111404
3815,17,Jits_Phase_5,3,5,80,127,1418127676
3815,17,Jits_Phase_5,0,5,56,103,1418557872
3815,17,Jits_Phase_5,1,5,63,98,1418568068
3815,17,Jits_Phase_5,2,1,48,29,1418576964
3815,17,Jits_Phase_5,3,5,80,127,1418597684
3815,17,Jits_Phase_5,0,1,48,33,1419075408
3815,17,Jits_Phase_5,1,5,63,98,1419078144
3815,17,Jits_Phase_5,2,5,80,127,1419097408
3815,17,Jits_Phase_5,3,5,56,103,1419138340
3815,17,Jits_Phase_5,0,1,48,31,1419586568
3815,17,Jits_Phase_5,1,5,56,103,1419608388
3815,17,Jits_Phase_5,2,5,63,98,1419648352
3815,17,Jits_Phase_5,3,5,80,127,1419651640
3815,17,Jits_Phase_5,0,5,80,127,1420047832
3815,17,Jits_Phase_5,1,5,56,103,1420087620
3815,17,Jits_Phase_5,2,1,48,36,1420094400
3815,17,Jits_Phase_5,3,5,63,98,1420137836
3815,17,Jits_Phase_5,0,1,48,35,1420591084
3815,17,Jits_Phase_5,1,5,56,103,1420607824
3815,17,Jits_Phase_5,2,5,80,127,1420618392
3815,17,Jits_Phase_5,3,5,63,98,1420647720
3815,17,Jits_Phase_5,0,5,56,103,1421058440
3815,17,Jits_Phase_5,1,5,80,127,1421098448
3815,17,Jits_Phase_5,2,1,48,21,1421116332
3815,17,Jits_Phase_5,3,5,63,98,1421147596
3815,17,Jits_Phase_5,0,5,56,103,1421558276
3815,17,Jits_Phase_5,1,5,80,127,1421598140
3815,17,Jits_Phase_5,2,1,48,34,1421605816
3815,17,Jits_Phase_5,3,5,63,98,1421648332
3815,17,Jits_Phase_5,0,5,80,127,1422047556
3815,17,Jits_Phase_5,1,5,63,98,1422127496
3815,17,Jits_Phase_5,2,5,56,103,1422137768
3815,17,Jits_Phase_5,3,1,48,19,1422166364
3815,17,Jits_Phase_5,0,5,80,127,1422597520
3815,17,Jits_Phase_5,1,5,56,103,1422607712
3815,17,Jits_Phase_5,2,5,63,98,1422628320
3815,17,Jits_Phase_5,3,1,48,32,1422648148
3815,17,Jits_Phase_5,0,5,63,98,1423067616
3815,17,Jits_Phase_5,1,5,56,103,1423138116
3815,17,Jits_Phase_5,2,5,80,127,1423141328
3815,17,Jits_Phase_5,3,1,48,27,1423142220
3815,17,Jits_Phase_5,0,5,80,127,1423558292
3815,17,Jits_Phase_5,1,5,63,98,1423608268
3815,17,Jits_Phase_5,2,1,48,25,1423630344
3815,17,Jits_Phase_5,3,5,56,103,1423648272
3815,17,Jits_Phase_5,0,5,63,98,1424097768
3815,17,Jits_Phase_5,1,1,48,29,1424110400
3815,17,Jits_Phase_5,2,5,56,103,1424137700
3815,17,Jits_Phase_5,3,5,80,127,1424147820
3815,17,Jits_Phase_5,0,5,63,98,1424588304
3815,17,Jits_Phase_5,1,5,56,103,1424607496
3815,17,Jits_Phase_5,2,1,48,23,1424619680
3815,17,Jits_Phase_5,3,5,80,127,1424628168
3815,17,Jits_Phase_5,0,5,80,127,1425048052
3815,17,Jits_Phase_5,1,5,56,103,1425058248
3815,17,Jits_Phase_5,2,5,63,98,1425077660
3815,17,Jits_Phase_5,3,1,48,22,1425111196
3815,17,Jits_Phase_5,0,5,63,98,1425578308
3815,17,Jits_Phase_5,1,1,48,21,1425583224
3815,17,Jits_Phase_5,2,5,56,103,1425618388
3815,17,Jits_Phase_5,3,5,80,127,1425648060
3815,17,Jits_Phase_5,0,5,56,103,1426038276
3815,17,Jits_Phase_5,1,5,63,98,1426067804
3815,17,Jits_Phase_5,2,1,48,22,1426088232
3815,17,Jits_Phase_5,3,5,80,127,1426097620
3815,17,Jits_Phase_5,0,5,80,127,1426458460
3815,17,Jits_Phase_5,1,5,56,103,1426527488
3815,17,Jits_Phase_5,2,5,63,98,1426530708
3815,17,Jits_Phase_5,3,1,48,21,1426574580
3815,17,Jits_Phase_5,0,5,56,103,1426968032
3815,17,Jits_Phase_5,1,5,63,98,1427018380
3815,17,Jits_Phase_5,2,5,80,127,1427048004
3815,17,Jits_Phase_5,3,1,48,25,1427050680
3815,17,Jits_Phase_5,0,5,63,98,1427448168
3815,17,Jits_Phase_5,1,5,80,127,1427451604
3815,17,Jits_Phase_5,2,5,56,103,1427507584
3815,17,Jits_Phase_5,3,1,48,21,1427529652
3815,17,Jits_Phase_5,0,5,56,103,1427977576
3815,17,Jits_Phase_5,1,5,80,127,1427988216
3815,17,Jits_Phase_5,2,1,48,25,1428023096
3815,17,Jits_Phase_5,3,5,63,98,1428038260
3815,17,Jits_Phase_5,0,5,63,98,1428447668
3815,17,Jits_Phase_5,1,5,56,103,1428458016
3815,17,Jits_Phase_5,2,1,48,22,1428486024
3815,17,Jits_Phase_5,3,5,80,127,1428487904
3815,17,Jits_Phase_5,0,1,48,25,1428951724
3815,17,Jits_Phase_5,1,5,63,98,1428978200
3815,17,Jits_Phase_5,2,5,80,127,1428981488
3815,17,Jits_Phase_5,3,5,56,103,1429008096
3815,17,Jits_Phase_5,0,1,48,31,1429451240
3815,17,Jits_Phase_5,1,5,63,98,1429498096
3815,17,Jits_Phase_5,2,5,56,103,1429517804
3815,17,Jits_Phase_5,3,5,80,127,1429520868
3815,17,Jits_Phase_5,0,5,63,98,1429958060
3815,17,Jits_Phase_5,1,1,48,27,1429960000
3815,17,Jits_Phase_5,2,5,56,103,1430027512
3815,17,Jits_Phase_5,3,5,80,127,1430048116
3815,17,Jits_Phase_5,0,5,56,103,1430447400
3815,17,Jits_Phase_5,1,5,63,98,1430457892
3815,17,Jits_Phase_5,2,1,48,21,1430489556
3815,17,Jits_Phase_5,3,5,80,127,1430548236
3815,17,Jits_Phase_5,0,5,56,103,1430967764
3815,17,Jits_Phase_5,1,1,48,23,1430988264
3815,17,Jits_Phase_5,2,5,80,127,1431007472
3815,17,Jits_Phase_5,3,5,63,98,1431017964
3815,17,Jits_Phase_5,0,1,48,32,1431472808
3815,17,Jits_Phase_5,1,5,56,103,1431488048
3815,17,Jits_Phase_5,2,5,63,98,1431517424
3815,17,Jits_Phase_5,3,5,80,127,1431548292
3815,17,Jits_Phase_5,0,5,80,127,1431947576
3815,17,Jits_Phase_5,1,1,48,39,1431987888
3815,17,Jits_Phase_5,2,5,63,98,1431989380
3815,17,Jits_Phase_5,3,5,56,103,1432008192
3815,17,Jits_Phase_5,0,1,48,37,1432465892
3815,17,Jits_Phase_5,1,5,56,103,1432488388
3815,17,Jits_Phase_5,2,5,80,127,1432507948
3815,17,Jits_Phase_5,3,5,63,98,1432528256
3815,17,Jits_Phase_5,0,5,63,98,1432958328
3815,17,Jits_Phase_5,1,5,56,103,1432967628
3815,17,Jits_Phase_5,2,1,48,37,1432999292
3815,17,Jits_Phase_5,3,5,80,127,1433028008
3815,17,Jits_Phase_5,0,5,56,103,1433458004
3815,17,Jits_Phase_5,1,1,48,41,1433482168
3815,17,Jits_Phase_5,2,5,63,98,1433527680
3815,17,Jits_Phase_5,3,5,80,127,1433548212
3815,17,Jits_Phase_5,0,5,56,103,1433957996
3815,17,Jits_Phase_5,1,1,48,35,1433984336
3815,17,Jits_Phase_5,2,5,63,98,1433987812
3815,17,Jits_Phase_5,3,5,80,127,1434028352
3815,17,Jits_Phase_5,0,5,63,98,1434448144
3815,17,Jits_Phase_5,1,1,48,38,1434457492
3815,17,Jits_Phase_5,2,5,56,103,1434498364
3815,17,Jits_Phase_5,3,5,80,127,1434507812
3815,17,Jits_Phase_5,0,1,48,46,1434956252
3815,17,Jits_Phase_5,1,5,56,103,1434988064
3815,17,Jits_Phase_5,2,5,63,98,1435038192
3815,17,Jits_Phase_5,3,5,80,127,1435048296
3815,17,Jits_Phase_5,0,5,56,103,1435457760
3815,17,Jits_Phase_5,1,1,48,43,1435467128
3815,17,Jits_Phase_5,2,5,63,98,1435468920
3815,17,Jits_Phase_5,3,5,80,127,1435548136
3815,17,Jits_Phase_5,0,9999,9999,9999,1351205996
3815,17,Jits_Phase_5,1,9999,9999,9999,1351705700
3815,17,Jits_Phase_5,2,9999,9999,9999,1352205432
3815,17,Jits_Phase_5,3,9999,9999,9999,1352705132
3815,17,Jits_Phase_5,4,9999,9999,9999,1353205856
3815,17,Jits_Phase_5,5,9999,9999,9999,1353705536
3815,17,Jits_Phase_5,6,9999,9999,9999,1354205284
3815,17,Jits_Phase_5,7,9999,9999,9999,1354706020
3815,17,Jits_Phase_5,8,9999,9999,9999,1355205704
3815,17,Jits_Phase_5,9,9999,9999,9999,1355705472
3815,17,Jits_Phase_5,10,9999,9999,9999,1356205156
3815,17,Jits_Phase_5,11,9999,9999,9999,1356705896
3815,17,Jits_Phase_5,12,9999,9999,9999,1357205568
3815,17,Jits_Phase_5,13,9999,9999,9999,1357705312
3815,17,Jits_Phase_5,14,9999,9999,9999,1358206028
3815,17,Jits_Phase_5,15,9999,9999,9999,1358705788
3815,17,Jits_Phase_5,16,9999,9999,9999,1359205476
3815,17,Jits_Phase_5,17,9999,9999,9999,1359705200
3815,17,Jits_Phase_5,18,9999,9999,9999,1360205928
3815,17,Jits_Phase_5,19,9999,9999,9999,1360705616
3815,17,Jits_Phase_5,20,9999,9999,9999,1361205304
3815,17,Jits_Phase_5,21,9999,9999,9999,1361706112
3815,17,Jits_Phase_5,22,9999,9999,9999,1362205796
3815,17,Jits_Phase_5,23,9999,9999,9999,1362705488
3815,17,Jits_Phase_5,24,9999,9999,9999,1363205176
3815,17,Jits_Phase_5,25,9999,9999,9999,1363705976
3815,17,Jits_Phase_5,26,9999,9999,9999,1364205664
3815,17,Jits_Phase_5,27,9999,9999,9999,1364705400
3815,17,Jits_Phase_5,28,9999,9999,9999,1365206140
3815,17,Jits_Phase_5,29,9999,9999,9999,1365716088
3815,17,Jits_Phase_5,30,9999,9999,9999,1366205512
3815,17,Jits_Phase_5,31,9999,9999,9999,1366705276
3815,17,Jits_Phase_5,32,9999,9999,9999,1367206008
3815,17,Jits_Phase_5,33,9999,9999,9999,1367705696
3815,17,Jits_Phase_5,34,9999,9999,9999,1368205384
3815,17,Jits_Phase_5,35,9999,9999,9999,1368705152
3815,17,Jits_Phase_5,36,9999,9999,9999,1369205856
3815,17,Jits_Phase_5,37,9999,9999,9999,1369705532
3815,17,Jits_Phase_5,38,9999,9999,9999,1370205272
3815,17,Jits_Phase_5,39,9999,9999,9999,1370705992
3815,17,Jits_Phase_5,40,9999,9999,9999,1371205740
3815,17,Jits_Phase_5,41,9999,9999,9999,1371705428
3815,17,Jits_Phase_5,42,9999,9999,9999,1372205116
3815,17,Jits_Phase_5,43,9999,9999,9999,1372705908
3815,17,Jits_Phase_5,44,9999,9999,9999,1373205580
3815,17,Jits_Phase_5,45,9999,9999,9999,1373705340
3815,17,Jits_Phase_5,46,9999,9999,9999,1374206060
3815,17,Jits_Phase_5,47,9999,9999,9999,1374705740
3815,17,Jits_Phase_5,48,9999,9999,9999,1375215680
3815,17,Jits_Phase_5,49,9999,9999,9999,1375715436
3815,17,Jits_Phase_5,50,9999,9999,9999,1376215100
3815,17,Jits_Phase_5,51,9999,9999,9999,1376715836
3815,17,Jits_Phase_5,52,9999,9999,9999,1377215588
3815,17,Jits_Phase_5,53,9999,9999,9999,1377715276
3815,17,Jits_Phase_5,54,9999,9999,9999,1378215996
3815,17,Jits_Phase_5,55,9999,9999,9999,1378715764
3815,17,Jits_Phase_5,56,9999,9999,9999,1379215436
3815,17,Jits_Phase_5,57,9999,9999,9999,1379715176
3815,17,Jits_Phase_5,58,9999,9999,9999,1380215900
3815,17,Jits_Phase_5,59,9999,9999,9999,1380715632
3815,17,Jits_Phase_5,60,9999,9999,9999,1381215300
3815,17,Jits_Phase_5,61,9999,9999,9999,1381716084
3815,17,Jits_Phase_5,62,9999,9999,9999,1382215756
3815,17,Jits_Phase_5,63,9999,9999,9999,1382715444
3815,17,Jits_Phase_5,64,9999,9999,9999,1383235696
3815,17,Jits_Phase_5,65,9999,9999,9999,1383735380
3815,17,Jits_Phase_5,66,9999,9999,9999,1384235128
3815,17,Jits_Phase_5,67,9999,9999,9999,1384735840
3815,17,Jits_Phase_5,68,9999,9999,9999,1385235520
3815,17,Jits_Phase_5,69,9999,9999,9999,1385735272
3815,17,Jits_Phase_5,70,9999,9999,9999,1386235980
3815,17,Jits_Phase_5,71,9999,9999,9999,1386735744
3815,17,Jits_Phase_5,72,9999,9999,9999,1387235432
3815,17,Jits_Phase_5,73,9999,9999,9999,1387735104
3815,17,Jits_Phase_5,74,9999,9999,9999,1388235840
3815,17,Jits_Phase_5,75,9999,9999,9999,1388735588
3815,17,Jits_Phase_5,76,9999,9999,9999,1389235284
3815,17,Jits_Phase_5,77,9999,9999,9999,1389736008
3815,17,Jits_Phase_5,78,9999,9999,9999,1390235772
3815,17,Jits_Phase_5,79,9999,9999,9999,1390735460
3815,17,Jits_Phase_5,80,9999,9999,9999,1391235140
3815,17,Jits_Phase_5,81,9999,9999,9999,1391715412
3815,17,Jits_Phase_5,82,9999,9999,9999,1392215148
3815,17,Jits_Phase_5,83,9999,9999,9999,1392715864
3815,17,Jits_Phase_5,84,9999,9999,9999,1393215556
3815,17,Jits_Phase_5,85,9999,9999,9999,1393715300
3815,17,Jits_Phase_5,86,9999,9999,9999,1394216016
3815,17,Jits_Phase_5,87,9999,9999,9999,1394715708
3815,17,Jits_Phase_5,88,9999,9999,9999,1395215468
3815,17,Jits_Phase_5,89,9999,9999,9999,1395715156
3815,17,Jits_Phase_5,90,9999,9999,9999,1396215892
3815,17,Jits_Phase_5,91,9999,9999,9999,1396715572
3815,17,Jits_Phase_5,92,9999,9999,9999,1397215324
3815,17,Jits_Phase_5,93,9999,9999,9999,1397716048
3815,17,Jits_Phase_5,94,9999,9999,9999,1398215792
3815,17,Jits_Phase_5,95,9999,9999,9999,1398715480
3815,17,Jits_Phase_5,96,9999,9999,9999,1399215168
3815,17,Jits_Phase_5,97,9999,9999,9999,1399665772
3815,17,Jits_Phase_5,98,9999,9999,9999,1400165448
3815,17,Jits_Phase_5,99,9999,9999,9999,1400665184
3815,17,Jits_Phase_5,100,9999,9999,9999,1401165900
3815,17,Jits_Phase_5,101,9999,9999,9999,1401665664
3815,17,Jits_Phase_5,102,9999,9999,9999,1402165340
3815,17,Jits_Phase_5,103,9999,9999,9999,1402666084
3815,17,Jits_Phase_5,104,9999,9999,9999,1403165772
3815,17,Jits_Phase_5,105,9999,9999,9999,1403665512
3815,17,Jits_Phase_5,106,9999,9999,9999,1404165188
3815,17,Jits_Phase_5,107,9999,9999,9999,1404665984
3815,17,Jits_Phase_5,108,9999,9999,9999,1405165668
3815,17,Jits_Phase_5,109,9999,9999,9999,1405665344
3815,17,Jits_Phase_5,110,9999,9999,9999,1406166080
3815,17,Jits_Phase_5,111,9999,9999,9999,1406676032
3815,17,Jits_Phase_5,112,9999,9999,9999,1407175796
3815,17,Jits_Phase_5,113,9999,9999,9999,1407675488
3815,17,Jits_Phase_5,114,9999,9999,9999,1408225356
3815,17,Jits_Phase_5,115,9999,9999,9999,1408726072
3815,17,Jits_Phase_5,116,9999,9999,9999,1409236080
3815,17,Jits_Phase_5,117,9999,9999,9999,1409735772
3815,17,Jits_Phase_5,118,9999,9999,9999,1410235460
3815,17,Jits_Phase_5,119,9999,9999,9999,1410735204
3815,17,Jits_Phase_5,120,9999,9999,9999,1411235920
3815,17,Jits_Phase_5,121,9999,9999,9999,1411735608
3815,17,Jits_Phase_5,122,9999,9999,9999,1412235372
3815,17,Jits_Phase_5,123,9999,9999,9999,1412736108
3815,17,Jits_Phase_5,124,9999,9999,9999,1413246020
3815,17,Jits_Phase_5,125,9999,9999,9999,1413745768
3815,17,Jits_Phase_5,126,9999,9999,9999,1414245456
3815,17,Jits_Phase_5,127,9999,9999,9999,1414745172
3815,17,Jits_Phase_5,128,9999,9999,9999,1415245892
3815,17,Jits_Phase_5,129,9999,9999,9999,1415745652
3815,17,Jits_Phase_5,130,9999,9999,9999,1416245344
3815,17,Jits_Phase_5,131,9999,9999,9999,1416845432
3815,17,Jits_Phase_5,132,9999,9999,9999,1417345100
3815,17,Jits_Phase_5,133,9999,9999,9999,1417845820
3815,17,Jits_Phase_5,134,9999,9999,9999,1418345564
3815,17,Jits_Phase_5,135,9999,9999,9999,1418845284
3815,17,Jits_Phase_5,136,9999,9999,9999,1419346016
3815,17,Jits_Phase_5,137,9999,9999,9999,1419845688
3815,17,Jits_Phase_5,138,9999,9999,9999,1420345440
3815,17,Jits_Phase_5,139,9999,9999,9999,1420845132
3815,17,Jits_Phase_5,140,9999,9999,9999,1421345856
3815,17,Jits_Phase_5,141,9999,9999,9999,1421845620
3815,17,Jits_Phase_5,142,9999,9999,9999,1422345312
3815,17,Jits_Phase_5,143,9999,9999,9999,1422846052
3815,17,Jits_Phase_5,144,9999,9999,9999,1423345736
3815,17,Jits_Phase_5,145,9999,9999,9999,1423845488
3815,17,Jits_Phase_5,146,9999,9999,9999,1424345184
3815,17,Jits_Phase_5,147,9999,9999,9999,1424845908
3815,17,Jits_Phase_5,148,9999,9999,9999,1425345656
3815,17,Jits_Phase_5,149,9999,9999,9999,1425845352
3815,17,Jits_Phase_5,150,9999,9999,9999,1426245740
3815,17,Jits_Phase_5,151,9999,9999,9999,1426745424
3815,17,Jits_Phase_5,152,9999,9999,9999,1427245116
3815,17,Jits_Phase_5,153,9999,9999,9999,1427745912
3815,17,Jits_Phase_5,154,9999,9999,9999,1428245588
3815,17,Jits_Phase_5,155,9999,9999,9999,1428745272
3815,17,Jits_Phase_5,156,9999,9999,9999,1429246060
3815,17,Jits_Phase_5,157,9999,9999,9999,1429745728
3815,17,Jits_Phase_5,158,9999,9999,9999,1430245480
3815,17,Jits_Phase_5,159,9999,9999,9999,1430745152
3815,17,Jits_Phase_5,160,9999,9999,9999,1431245888
3815,17,Jits_Phase_5,161,9999,9999,9999,1431745656
3815,17,Jits_Phase_5,162,9999,9999,9999,1432245332
3815,17,Jits_Phase_5,163,9999,9999,9999,1432746068
3815,17,Jits_Phase_5,164,9999,9999,9999,1433245820
3815,17,Jits_Phase_5,165,9999,9999,9999,1433745500
3815,17,Jits_Phase_5,166,9999,9999,9999,1434245188
3815,17,Jits_Phase_5,167,9999,9999,9999,1434745924
3815,17,Jits_Phase_5,168,9999,9999,9999,1435245676
3815,17,Jits_Phase_5,169,9999,9999,9999,1435745348
3816,15,Jits_Phase_8,0,5,56,103,1447342460
3816,15,Jits_Phase_8,1,5,63,98,1447345784
3816,15,Jits_Phase_8,2,5,80,127,1447348828
3816,15,Jits_Phase_8,0,5,56,103,1448143224
3816,15,Jits_Phase_8,1,5,63,98,1448146396
3816,15,Jits_Phase_8,2,5,80,127,1448149592
3816,15,Jits_Phase_8,0,5,80,127,1448882640
3816,15,Jits_Phase_8,1,5,63,98,1448972628
3816,15,Jits_Phase_8,2,1,48,51,1448974640
3816,15,Jits_Phase_8,3,5,56,103,1448982892
3816,15,Jits_Phase_8,0,5,56,103,1449702944
3816,15,Jits_Phase_8,1,5,63,98,1449713064
3816,15,Jits_Phase_8,2,5,80,127,1449803196
3816,15,Jits_Phase_8,3,1,48,40,1449823872
3816,15,Jits_Phase_8,0,5,63,98,1450472748
3816,15,Jits_Phase_8,1,5,80,127,1450502420
3816,15,Jits_Phase_8,2,5,56,103,1450533216
3816,15,Jits_Phase_8,3,1,48,40,1450539400
3816,15,Jits_Phase_8,0,5,56,103,1451272496
3816,15,Jits_Phase_8,1,1,48,42,1451323192
3816,15,Jits_Phase_8,2,5,80,127,1451372984
3816,15,Jits_Phase_8,3,5,63,98,1451424220
3816,15,Jits_Phase_8,0,5,56,103,1452073316
3816,15,Jits_Phase_8,1,5,80,127,1452122400
3816,15,Jits_Phase_8,2,1,48,42,1452151896
3816,15,Jits_Phase_8,3,5,63,98,1452162404
3816,15,Jits_Phase_8,0,5,80,127,1452902904
3816,15,Jits_Phase_8,1,5,63,98,1452932432
3816,15,Jits_Phase_8,2,1,48,35,1452958616
3816,15,Jits_Phase_8,3,5,56,103,1453003076
3816,15,Jits_Phase_8,0,5,63,98,1453733096
3816,15,Jits_Phase_8,1,5,56,103,1453762920
3816,15,Jits_Phase_8,2,1,48,38,1453800960
3816,15,Jits_Phase_8,3,5,80,127,1453823228
3816,15,Jits_Phase_8,0,5,56,103,1454472544
3816,15,Jits_Phase_8,1,5,80,127,1454475760
3816,15,Jits_Phase_8,2,5,63,98,1454593388
3816,15,Jits_Phase_8,3,1,48,31,1454610132
3816,15,Jits_Phase_8,0,5,56,103,1455353144
3816,15,Jits_Phase_8,1,5,80,127,1455393160
3816,15,Jits_Phase_8,2,5,63,98,1455403504
3816,15,Jits_Phase_8,3,1,48,28,1455416960
3816,15,Jits_Phase_8,0,5,56,103,1456112916
3816,15,Jits_Phase_8,1,5,80,127,1456132480
3816,15,Jits_Phase_8,2,5,63,98,1456213392
3816,15,Jits_Phase_8,3,1,48,42,1456216060
3816,15,Jits_Phase_8,0,5,80,127,1456902504
3816,15,Jits_Phase_8,1,1,48,44,1456969668
3816,15,Jits_Phase_8,2,5,56,103,1457002844
3816,15,Jits_Phase_8,3,5,63,98,1457013040
3816,15,Jits_Phase_8,0,5,63,98,1457672684
3816,15,Jits_Phase_8,1,5,80,127,1457732928
3816,15,Jits_Phase_8,2,5,56,103,1457743348
3816,15,Jits_Phase_8,3,1,48,35,1457872792
3816,15,Jits_Phase_8,0,5,56,103,1458473264
3816,15,Jits_Phase_8,1,5,63,98,1458542896
3816,15,Jits_Phase_8,2,5,80,127,1458546332
3816,15,Jits_Phase_8,3,1,48,28,1458597696
3816,15,Jits_Phase_8,0,5,63,98,1459302940
3816,15,Jits_Phase_8,1,5,56,103,1459352916
3816,15,Jits_Phase_8,2,5,80,127,1459356056
3816,15,Jits_Phase_8,3,1,48,27,1459451256
3816,15,Jits_Phase_8,0,5,56,103,1460062676
3816,15,Jits_Phase_8,1,5,80,127,1460065816
3816,15,Jits_Phase_8,2,5,63,98,1460152808
3816,15,Jits_Phase_8,3,1,48,27,1460262304
3816,15,Jits_Phase_8,0,5,63,98,1460903192
3816,15,Jits_Phase_8,1,5,56,103,1460993476
3816,15,Jits_Phase_8,2,5,80,127,1461023076
3816,15,Jits_Phase_8,3,1,48,39,1461037504
3816,15,Jits_Phase_8,0,5,56,103,1461692764
3816,15,Jits_Phase_8,1,1,48,37,1461779112
3816,15,Jits_Phase_8,2,5,63,98,1461793080
3816,15,Jits_Phase_8,3,5,80,127,1461822828
3816,15,Jits_Phase_8,0,5,63,98,1462513144
3816,15,Jits_Phase_8,1,5,56,103,1462523192
3816,15,Jits_Phase_8,2,1,48,29,1462532756
3816,15,Jits_Phase_8,3,5,80,127,1462613464
3816,15,Jits_Phase_8,0,1,48,36,1463271292
3816,15,Jits_Phase_8,1,5,63,98,1463333128
3816,15,Jits_Phase_8,2,5,56,103,1463413000
3816,15,Jits_Phase_8,3,5,80,127,1463416148
3816,15,Jits_Phase_8,0,5,80,127,1464093108
3816,15,Jits_Phase_8,1,1,48,35,1464095780
3816,15,Jits_Phase_8,2,5,63,98,1464112812
3816,15,Jits_Phase_8,3,5,56,103,1464172928
3816,15,Jits_Phase_8,0,1,48,31,1464906328
3816,15,Jits_Phase_8,1,5,56,103,1464932680
3816,15,Jits_Phase_8,2,5,63,98,1464953140
3816,15,Jits_Phase_8,3,5,80,127,1464956576
3816,15,Jits_Phase_8,0,1,48,27,1465671024
3816,15,Jits_Phase_8,1,5,63,98,1465672992
3816,15,Jits_Phase_8,2,5,80,127,1465752888
3816,15,Jits_Phase_8,3,5,56,103,1465763156
3816,15,Jits_Phase_8,0,1,48,30,1466445592
3816,15,Jits_Phase_8,1,5,63,98,1466493224
3816,15,Jits_Phase_8,2,5,56,103,1466512640
3816,15,Jits_Phase_8,3,5,80,127,1466562972
3816,15,Jits_Phase_8,0,1,48,36,1467248968
3816,15,Jits_Phase_8,1,5,80,127,1467293052
3816,15,Jits_Phase_8,2,5,63,98,1467332920
3816,15,Jits_Phase_8,3,5,56,103,1467352464
3816,15,Jits_Phase_8,0,1,48,36,1468103052
3816,15,Jits_Phase_8,1,5,56,103,1468132744
3816,15,Jits_Phase_8,2,5,63,98,1468142940
3816,15,Jits_Phase_8,3,5,80,127,1468162648
3816,15,Jits_Phase_8,0,5,56,103,1468862828
3816,15,Jits_Phase_8,1,5,63,98,1468952816
3816,15,Jits_Phase_8,2,1,48,44,1468963128
3816,15,Jits_Phase_8,3,5,80,127,1469013420
3816,15,Jits_Phase_8,0,5,80,127,1469693392
3816,15,Jits_Phase_8,1,5,56,103,1469702616
3816,15,Jits_Phase_8,2,1,48,29,1469750148
3816,15,Jits_Phase_8,3,5,63,98,1469773260
3816,15,Jits_Phase_8,0,5,63,98,1470522684
3816,15,Jits_Phase_8,1,1,48,29,1470536364
3816,15,Jits_Phase_8,2,5,80,127,1470612836
3816,15,Jits_Phase_8,3,5,56,103,1470623108
3816,15,Jits_Phase_8,0,5,63,98,1471252844
3816,15,Jits_Phase_8,1,5,80,127,1471302972
3816,15,Jits_Phase_8,2,1,48,33,1471338848
3816,15,Jits_Phase_8,3,5,56,103,1471362556
3816,15,Jits_Phase_8,0,5,56,103,1472073276
3816,15,Jits_Phase_8,1,1,48,32,1472084120
3816,15,Jits_Phase_8,2,5,80,127,1472123348
3816,15,Jits_Phase_8,3,5,63,98,1472142760
3816,15,Jits_Phase_8,0,5,56,103,1472843228
3816,15,Jits_Phase_8,1,1,48,27,1472889668
3816,15,Jits_Phase_8,2,5,80,127,1472902516
3816,15,Jits_Phase_8,3,5,63,98,1472973392
3816,15,Jits_Phase_8,0,5,56,103,1473642800
3816,15,Jits_Phase_8,1,5,80,127,1473672700
3816,15,Jits_Phase_8,2,5,63,98,1473703272
3816,15,Jits_Phase_8,3,1,48,34,1473706168
3816,15,Jits_Phase_8,0,1,48,39,1474463584
3816,15,Jits_Phase_8,1,5,56,103,1474482416
3816,15,Jits_Phase_8,2,5,80,127,1474503100
3816,15,Jits_Phase_8,3,5,63,98,1474562440
3816,15,Jits_Phase_8,0,1,48,37,1475305600
3816,15,Jits_Phase_8,1,5,80,127,1475363164
3816,15,Jits_Phase_8,2,5,56,103,1475373512
3816,15,Jits_Phase_8,3,5,63,98,1475382660
3816,15,Jits_Phase_8,0,1,48,42,1476117944
3816,15,Jits_Phase_8,1,5,56,103,1476123220
3816,15,Jits_Phase_8,2,5,80,127,1476163160
3816,15,Jits_Phase_8,3,5,63,98,1476192488
3816,15,Jits_Phase_8,0,5,56,103,1476893244
3816,15,Jits_Phase_8,1,5,63,98,1476922844
3816,15,Jits_Phase_8,2,5,80,127,1476962808
3816,15,Jits_Phase_8,3,1,48,46,1477013200
3816,15,Jits_Phase_8,0,5,80,127,1477642596
3816,15,Jits_Phase_8,1,1,48,43,1477690604
3816,15,Jits_Phase_8,2,5,63,98,1477692716
3816,15,Jits_Phase_8,3,5,56,103,1477713252
3816,15,Jits_Phase_8,0,5,56,103,1478473152
3816,15,Jits_Phase_8,1,1,48,27,1478521180
3816,15,Jits_Phase_8,2,5,80,127,1478542628
3816,15,Jits_Phase_8,3,5,63,98,1478603168
3816,15,Jits_Phase_8,0,5,80,127,1479273100
3816,15,Jits_Phase_8,1,1,48,31,1479360968
3816,15,Jits_Phase_8,2,5,63,98,1479363076
3816,15,Jits_Phase_8,3,5,56,103,1479383388
3816,15,Jits_Phase_8,0,5,63,98,1480093028
3816,15,Jits_Phase_8,1,5,56,103,1480112592
3816,15,Jits_Phase_8,2,5,80,127,1480152380
3816,15,Jits_Phase_8,3,1,48,41,1480171012
3816,15,Jits_Phase_8,0,5,80,127,1480853076
3816,15,Jits_Phase_8,1,5,63,98,1480873460
3816,15,Jits_Phase_8,2,5,56,103,1480953328
3816,15,Jits_Phase_8,3,1,48,28,1480966032
3816,15,Jits_Phase_8,0,5,63,98,1481643328
3816,15,Jits_Phase_8,1,1,48,30,1481750804
3816,15,Jits_Phase_8,2,5,56,103,1481752852
3816,15,Jits_Phase_8,3,5,80,127,1481755924
3816,15,Jits_Phase_8,0,5,63,98,1482462556
3816,15,Jits_Phase_8,1,5,56,103,1482472972
3816,15,Jits_Phase_8,2,5,80,127,1482476040
3816,15,Jits_Phase_8,3,1,48,31,1482506804
3816,15,Jits_Phase_8,0,5,56,103,1483242816
3816,15,Jits_Phase_8,1,1,48,35,1483255372
3816,15,Jits_Phase_8,2,5,80,127,1483362992
3816,15,Jits_Phase_8,3,5,63,98,1483402484
3816,15,Jits_Phase_8,0,5,56,103,1484063044
3816,15,Jits_Phase_8,1,1,48,30,1484109160
3816,15,Jits_Phase_8,2,5,80,127,1484142932
3816,15,Jits_Phase_8,3,5,63,98,1484162420
3816,15,Jits_Phase_8,0,5,56,103,1484862816
3816,15,Jits_Phase_8,1,1,48,28,1484957808
3816,15,Jits_Phase_8,2,5,63,98,1484973420
3816,15,Jits_Phase_8,3,5,80,127,1484976932
3816,15,Jits_Phase_8,0,5,56,103,1485702464
3816,15,Jits_Phase_8,1,5,80,127,1485733112
3816,15,Jits_Phase_8,2,1,48,47,1485746716
3816,15,Jits_Phase_8,3,5,63,98,1485752664
3816,15,Jits_Phase_8,0,5,63,98,1486493016
3816,15,Jits_Phase_8,1,5,56,103,1486503212
3816,15,Jits_Phase_8,2,5,80,127,1486512436
3816,15,Jits_Phase_8,3,1,48,32,1486625824
3816,15,Jits_Phase_8,0,5,80,127,1487282580
3816,15,Jits_Phase_8,1,5,56,103,1487332708
3816,15,Jits_Phase_8,2,5,63,98,1487372644
3816,15,Jits_Phase_8,3,1,48,35,1487397188
3816,15,Jits_Phase_8,0,5,80,127,1488102804
3816,15,Jits_Phase_8,1,5,63,98,1488123336
3816,15,Jits_Phase_8,2,5,56,103,1488173684
3816,15,Jits_Phase_8,3,1,48,38,1488210656
3816,15,Jits_Phase_8,0,5,80,127,1488912760
3816,15,Jits_Phase_8,1,5,56,103,1488942584
3816,15,Jits_Phase_8,2,1,48,33,1489003268
3816,15,Jits_Phase_8,3,5,63,98,1489013032
3816,15,Jits_Phase_8,0,5,56,103,1489762608
3816,15,Jits_Phase_8,1,5,80,127,1489772880
3816,15,Jits_Phase_8,2,1,48,34,1489788652
3816,15,Jits_Phase_8,3,5,63,98,1489812812
3816,15,Jits_Phase_8,0,5,56,103,1490473204
3816,15,Jits_Phase_8,1,5,63,98,1490492692
3816,15,Jits_Phase_8,2,5,80,127,1490562544
3816,15,Jits_Phase_8,3,1,48,33,1490619448
3816,15,Jits_Phase_8,0,5,63,98,1491292776
3816,15,Jits_Phase_8,1,5,80,127,1491352868
3816,15,Jits_Phase_8,2,5,56,103,1491373696
3816,15,Jits_Phase_8,3,1,48,32,1491390292
3816,15,Jits_Phase_8,0,5,80,127,1492083164
3816,15,Jits_Phase_8,1,5,56,103,1492112844
3816,15,Jits_Phase_8,2,5,63,98,1492142516
3816,15,Jits_Phase_8,3,1,48,26,1492205412
3816,15,Jits_Phase_8,0,5,56,103,1492882712
3816,15,Jits_Phase_8,1,5,63,98,1492943104
3816,15,Jits_Phase_8,2,5,80,127,1493002668
3816,15,Jits_Phase_8,3,1,48,23,1493026460
3816,15,Jits_Phase_8,0,5,80,127,1493702940
3816,15,Jits_Phase_8,1,5,56,103,1493722572
3816,15,Jits_Phase_8,2,1,48,30,1493779996
3816,15,Jits_Phase_8,3,5,63,98,1493793068
3816,15,Jits_Phase_8,0,5,80,127,1494502784
3816,15,Jits_Phase_8,1,5,63,98,1494523544
3816,15,Jits_Phase_8,2,5,56,103,1494552920
3816,15,Jits_Phase_8,3,1,48,31,1494609888
3816,15,Jits_Phase_8,0,5,80,127,1495293264
3816,15,Jits_Phase_8,1,5,63,98,1495312680
3816,15,Jits_Phase_8,2,5,56,103,1495373140
3816,15,Jits_Phase_8,3,1,48,28,1495409092
3816,15,Jits_Phase_8,0,5,80,127,1496093336
3816,15,Jits_Phase_8,1,5,56,103,1496193384
3816,15,Jits_Phase_8,2,5,63,98,1496223208
3816,15,Jits_Phase_8,3,1,48,30,1496236220
3816,15,Jits_Phase_8,0,5,63,98,1496882624
3816,15,Jits_Phase_8,1,5,80,127,1496932704
3816,15,Jits_Phase_8,2,5,56,103,1496953312
3816,15,Jits_Phase_8,3,1,48,29,1497025948
3816,15,Jits_Phase_8,0,5,80,127,1497723536
3816,15,Jits_Phase_8,1,5,56,103,1497752984
3816,15,Jits_Phase_8,2,5,63,98,1497756052
3816,15,Jits_Phase_8,3,1,48,29,1497786744
3816,15,Jits_Phase_8,0,5,63,98,1498573200
3816,15,Jits_Phase_8,1,1,48,25,1498608452
3816,15,Jits_Phase_8,2,5,56,103,1498613356
3816,15,Jits_Phase_8,3,5,80,127,1498632544
3816,15,Jits_Phase_8,0,5,80,127,1499332880
3816,15,Jits_Phase_8,1,1,48,37,1499408440
3816,15,Jits_Phase_8,2,5,63,98,1499412892
3816,15,Jits_Phase_8,3,5,56,103,1499452756
3816,15,Jits_Phase_8,0,5,63,98,1500153180
3816,15,Jits_Phase_8,1,5,80,127,1500233276
3816,15,Jits_Phase_8,2,5,56,103,1500252712
3816,15,Jits_Phase_8,3,1,48,36,1500270060
3816,15,Jits_Phase_8,0,5,56,103,1500992808
3816,15,Jits_Phase_8,1,5,63,98,1501003300
3816,15,Jits_Phase_8,2,5,80,127,1501043116
3816,15,Jits_Phase_8,3,1,48,31,1501073732
3816,15,Jits_Phase_8,0,5,56,103,1501712788
3816,15,Jits_Phase_8,1,5,80,127,1501715780
3816,15,Jits_Phase_8,2,1,48,29,1501841720
3816,15,Jits_Phase_8,3,5,63,98,1501853500
3816,15,Jits_Phase_8,0,5,56,103,1502503184
3816,15,Jits_Phase_8,1,5,63,98,1502593268
3816,15,Jits_Phase_8,2,5,80,127,1502663172
3816,15,Jits_Phase_8,3,1,48,30,1502703596
3816,15,Jits_Phase_8,0,5,63,98,1503382848
3816,15,Jits_Phase_8,1,5,80,127,1503386284
3816,15,Jits_Phase_8,2,5,56,103,1503443308
3816,15,Jits_Phase_8,3,1,48,29,1503463812
3816,15,Jits_Phase_8,0,5,80,127,1504222536
3816,15,Jits_Phase_8,1,5,56,103,1504243144
3816,15,Jits_Phase_8,2,1,48,24,1504250672
3816,15,Jits_Phase_8,3,5,63,98,1504253260
3816,15,Jits_Phase_8,0,5,56,103,1504933160
3816,15,Jits_Phase_8,1,5,63,98,1504942312
3816,15,Jits_Phase_8,2,5,80,127,1505013036
3816,15,Jits_Phase_8,3,1,48,36,1505079220
3816,15,Jits_Phase_8,0,5,80,127,1505732928
3816,15,Jits_Phase_8,1,5,56,103,1505783208
3816,15,Jits_Phase_8,2,5,63,98,1505833332
3816,15,Jits_Phase_8,3,1,48,31,1505910108
3816,15,Jits_Phase_8,0,5,56,103,1506612496
3816,15,Jits_Phase_8,1,5,63,98,1506622988
3816,15,Jits_Phase_8,2,1,48,29,1506652132
3816,15,Jits_Phase_8,3,5,80,127,1506662872
3816,15,Jits_Phase_8,0,5,56,103,1507352936
3816,15,Jits_Phase_8,1,5,63,98,1507393024
3816,15,Jits_Phase_8,2,1,48,29,1507412556
3816,15,Jits_Phase_8,3,5,80,127,1507443020
3816,15,Jits_Phase_8,0,5,80,127,1508112928
3816,15,Jits_Phase_8,1,5,56,103,1508162980
3816,15,Jits_Phase_8,2,5,63,98,1508183364
3816,15,Jits_Phase_8,3,1,48,22,1508269804
3816,15,Jits_Phase_8,0,5,80,127,1508922808
3816,15,Jits_Phase_8,1,1,48,33,1508944360
3816,15,Jits_Phase_8,2,5,63,98,1508983144
3816,15,Jits_Phase_8,3,5,56,103,1509063072
3816,15,Jits_Phase_8,0,5,80,127,1509703032
3816,15,Jits_Phase_8,1,5,56,103,1509742996
3816,15,Jits_Phase_8,2,5,63,98,1509762480
3816,15,Jits_Phase_8,3,1,48,30,1509790684
3816,15,Jits_Phase_8,0,5,56,103,1510552948
3816,15,Jits_Phase_8,1,5,80,127,1510563072
3816,15,Jits_Phase_8,2,1,48,27,1510593532
3816,15,Jits_Phase_8,3,5,63,98,1510603076
3816,15,Jits_Phase_8,0,1,48,31,1511348412
3816,15,Jits_Phase_8,1,5,56,103,1511423436
3816,15,Jits_Phase_8,2,5,63,98,1511463288
3816,15,Jits_Phase_8,3,5,80,127,1511466800
3816,15,Jits_Phase_8,0,5,63,98,1512092992
3816,15,Jits_Phase_8,1,5,80,127,1512132932
3816,15,Jits_Phase_8,2,5,56,103,1512202832
3816,15,Jits_Phase_8,3,1,48,28,1512216360
3816,15,Jits_Phase_8,0,5,63,98,1512863080
3816,15,Jits_Phase_8,1,5,56,103,1512942876
3816,15,Jits_Phase_8,2,5,80,127,1513003264
3816,15,Jits_Phase_8,3,1,48,23,1513010664
3816,15,Jits_Phase_8,0,5,80,127,1513673024
3816,15,Jits_Phase_8,1,5,63,98,1513723228
3816,15,Jits_Phase_8,2,5,56,103,1513752828
3816,15,Jits_Phase_8,3,1,48,24,1513769500
3816,15,Jits_Phase_8,0,5,56,103,1514462680
3816,15,Jits_Phase_8,1,5,63,98,1514512732
3816,15,Jits_Phase_8,2,5,80,127,1514522928
3816,15,Jits_Phase_8,3,1,48,22,1514554964
3816,15,Jits_Phase_8,0,5,56,103,1515272712
3816,15,Jits_Phase_8,1,1,48,25,1515325728
3816,15,Jits_Phase_8,2,5,63,98,1515383092
3816,15,Jits_Phase_8,3,5,80,127,1515402576
3816,15,Jits_Phase_8,0,5,63,98,1516073532
3816,15,Jits_Phase_8,1,1,48,24,1516098224
3816,15,Jits_Phase_8,2,5,80,127,1516122408
3816,15,Jits_Phase_8,3,5,56,103,1516212672
3816,15,Jits_Phase_8,0,5,63,98,1516862804
3816,15,Jits_Phase_8,1,5,80,127,1516892728
3816,15,Jits_Phase_8,2,1,48,21,1516904016
3816,15,Jits_Phase_8,3,5,56,103,1516982776
3816,15,Jits_Phase_8,0,1,48,24,1517639512
3816,15,Jits_Phase_8,1,5,63,98,1517662500
3816,15,Jits_Phase_8,2,5,56,103,1517672844
3816,15,Jits_Phase_8,3,5,80,127,1517773148
3816,15,Jits_Phase_8,0,1,48,22,1518525460
3816,15,Jits_Phase_8,1,5,63,98,1518562576
3816,15,Jits_Phase_8,2,5,80,127,1518593596
3816,15,Jits_Phase_8,3,5,56,103,1518623104
3816,15,Jits_Phase_8,0,1,48,23,1519368676
3816,15,Jits_Phase_8,1,5,80,127,1519382944
3816,15,Jits_Phase_8,2,5,63,98,1519393140
3816,15,Jits_Phase_8,3,5,56,103,1519422964
3816,15,Jits_Phase_8,0,5,80,127,1520083520
3816,15,Jits_Phase_8,1,5,63,98,1520102712
3816,15,Jits_Phase_8,2,5,56,103,1520153060
3816,15,Jits_Phase_8,3,1,48,25,1520171988
3816,15,Jits_Phase_8,0,1,48,24,1520833960
3816,15,Jits_Phase_8,1,5,63,98,1520912880
3816,15,Jits_Phase_8,2,5,80,127,1520973256
3816,15,Jits_Phase_8,3,5,56,103,1520992544
3816,15,Jits_Phase_8,0,5,63,98,1521672564
3816,15,Jits_Phase_8,1,1,48,29,1521699424
3816,15,Jits_Phase_8,2,5,56,103,1521722760
3816,15,Jits_Phase_8,3,5,80,127,1521733032
3816,15,Jits_Phase_8,0,1,48,24,1522465240
3816,15,Jits_Phase_8,1,5,56,103,1522502956
3816,15,Jits_Phase_8,2,5,80,127,1522513372
3816,15,Jits_Phase_8,3,5,63,98,1522612656
3816,15,Jits_Phase_8,0,5,80,127,1523262784
3816,15,Jits_Phase_8,1,5,63,98,1523273056
3816,15,Jits_Phase_8,2,1,48,40,1523287188
3816,15,Jits_Phase_8,3,5,56,103,1523422500
3816,15,Jits_Phase_8,0,5,63,98,1524072672
3816,15,Jits_Phase_8,1,1,48,29,1524081412
3816,15,Jits_Phase_8,2,5,80,127,1524112752
3816,15,Jits_Phase_8,3,5,56,103,1524192604
3816,15,Jits_Phase_8,0,5,56,103,1524823572
3816,15,Jits_Phase_8,1,1,48,33,1524906184
3816,15,Jits_Phase_8,2,5,80,127,1524922768
3816,15,Jits_Phase_8,3,5,63,98,1524943452
3816,15,Jits_Phase_8,0,1,48,31,1525630652
3816,15,Jits_Phase_8,1,5,80,127,1525642604
3816,15,Jits_Phase_8,2,5,56,103,1525652724
3816,15,Jits_Phase_8,3,5,63,98,1525743064
3816,15,Jits_Phase_8,0,5,56,103,1526443348
3816,15,Jits_Phase_8,1,1,48,27,1526455384
3816,15,Jits_Phase_8,2,5,63,98,1526462828
3816,15,Jits_Phase_8,3,5,80,127,1526542624
3816,15,Jits_Phase_8,0,5,63,98,1527192920
3816,15,Jits_Phase_8,1,1,48,40,1527283200
3816,15,Jits_Phase_8,2,5,56,103,1527284788
3816,15,Jits_Phase_8,3,5,80,127,1527287532
3816,15,Jits_Phase_8,0,5,56,103,1528023460
3816,15,Jits_Phase_8,1,1,48,29,1528063148
3816,15,Jits_Phase_8,2,5,80,127,1528082872
3816,15,Jits_Phase_8,3,5,63,98,1528093292
3816,15,Jits_Phase_8,0,1,48,36,1528838028
3816,15,Jits_Phase_8,1,5,80,127,1528873200
3816,15,Jits_Phase_8,2,5,56,103,1528882644
3816,15,Jits_Phase_8,3,5,63,98,1528885636
3816,15,Jits_Phase_8,0,5,56,103,1529633324
3816,15,Jits_Phase_8,1,5,80,127,1529643368
3816,15,Jits_Phase_8,2,5,63,98,1529662784
3816,15,Jits_Phase_8,3,1,48,25,1529681636
3816,15,Jits_Phase_8,0,5,63,98,1530403048
3816,15,Jits_Phase_8,1,1,48,38,1530434864
3816,15,Jits_Phase_8,2,5,80,127,1530462560
3816,15,Jits_Phase_8,3,5,56,103,1530512912
3816,15,Jits_Phase_8,0,1,48,44,1531253900
3816,15,Jits_Phase_8,1,5,63,98,1531282992
3816,15,Jits_Phase_8,2,5,56,103,1531293040
3816,15,Jits_Phase_8,3,5,80,127,1531343088
3816,15,Jits_Phase_8,0,5,63,98,1531983240
3816,15,Jits_Phase_8,1,5,80,127,1532002604
3816,15,Jits_Phase_8,2,5,56,103,1532013100
3816,15,Jits_Phase_8,3,1,48,32,1532084764
3816,15,Jits_Phase_8,0,1,48,48,1532754932
3816,15,Jits_Phase_8,1,5,63,98,1532783308
3816,15,Jits_Phase_8,2,5,80,127,1532786444
3816,15,Jits_Phase_8,3,5,56,103,1532823168
3816,15,Jits_Phase_8,0,1,48,31,1533570288
3816,15,Jits_Phase_8,1,5,63,98,1533653320
3816,15,Jits_Phase_8,2,5,80,127,1533683276
3816,15,Jits_Phase_8,3,5,56,103,1533693248
3816,15,Jits_Phase_8,0,5,56,103,1534403108
3816,15,Jits_Phase_8,1,5,80,127,1534432564
3816,15,Jits_Phase_8,2,5,63,98,1534463284
3816,15,Jits_Phase_8,0,1,48,40,1535192252
3816,15,Jits_Phase_8,1,5,63,98,1535302992
3816,15,Jits_Phase_8,2,5,56,103,1535343028
3816,15,Jits_Phase_8,3,5,80,127,1535346096
3816,15,Jits_Phase_8,0,5,80,127,1536002308
3816,15,Jits_Phase_8,1,1,48,48,1536011872
3816,15,Jits_Phase_8,2,5,56,103,1536083364
3816,15,Jits_Phase_8,3,5,63,98,1536132604
3816,15,Jits_Phase_8,0,5,80,127,1536782820
3816,15,Jits_Phase_8,1,5,56,103,1536803132
3816,15,Jits_Phase_8,2,1,48,43,1536835992
3816,15,Jits_Phase_8,3,5,63,98,1536893280
3816,15,Jits_Phase_8,0,1,48,51,1537602640
3816,15,Jits_Phase_8,1,5,80,127,1537623288
3816,15,Jits_Phase_8,2,5,63,98,1537663228
3816,15,Jits_Phase_8,3,5,56,103,1537703224
3816,15,Jits_Phase_8,0,5,63,98,1538433612
3816,15,Jits_Phase_8,1,1,48,51,1538437260
3816,15,Jits_Phase_8,2,5,80,127,1538492952
3816,15,Jits_Phase_8,3,5,56,103,1538522404
3816,15,Jits_Phase_8,0,1,48,41,1539264348
3816,15,Jits_Phase_8,1,5,56,103,1539272992
3816,15,Jits_Phase_8,2,5,80,127,1539302744
3816,15,Jits_Phase_8,3,5,63,98,1539392860
3816,15,Jits_Phase_8,0,1,48,46,1540069192
3816,15,Jits_Phase_8,1,5,56,103,1540082940
3816,15,Jits_Phase_8,2,5,80,127,1540192712
3816,15,Jits_Phase_8,3,5,63,98,1540223284
3816,15,Jits_Phase_8,0,5,56,103,1540932908
3816,15,Jits_Phase_8,1,1,48,40,1540935348
3816,15,Jits_Phase_8,2,5,63,98,1540993612
3816,15,Jits_Phase_8,3,5,80,127,1541022992
3816,15,Jits_Phase_8,0,5,56,103,1541703012
3816,15,Jits_Phase_8,1,1,48,47,1541722200
3816,15,Jits_Phase_8,2,5,63,98,1541772716
3816,15,Jits_Phase_8,3,5,80,127,1541793096
3816,15,Jits_Phase_8,0,5,80,127,1542473120
3816,15,Jits_Phase_8,1,5,63,98,1542492780
3816,15,Jits_Phase_8,2,5,56,103,1542542832
3816,15,Jits_Phase_8,3,1,48,54,1542549988
3816,15,Jits_Phase_8,0,5,63,98,1543293512
3816,15,Jits_Phase_8,1,5,80,127,1543302588
3816,15,Jits_Phase_8,2,1,48,47,1543348332
3816,15,Jits_Phase_8,3,5,56,103,1543352560
3816,15,Jits_Phase_8,0,5,63,98,1544092972
3816,15,Jits_Phase_8,1,1,48,47,1544146360
3816,15,Jits_Phase_8,2,5,80,127,1544162648
3816,15,Jits_Phase_8,3,5,56,103,1544183180
3816,15,Jits_Phase_8,0,5,63,98,1544922620
3816,15,Jits_Phase_8,1,5,80,127,1544925760
3816,15,Jits_Phase_8,2,1,48,27,1544961336
3816,15,Jits_Phase_8,3,5,56,103,1544993192
3816,15,Jits_Phase_8,0,5,80,127,1545673148
3816,15,Jits_Phase_8,1,5,56,103,1545692636
3816,15,Jits_Phase_8,2,5,63,98,1545702832
3816,15,Jits_Phase_8,3,1,48,51,1545781240
3816,15,Jits_Phase_8,0,5,56,103,1546493516
3816,15,Jits_Phase_8,1,1,48,47,1546512000
3816,15,Jits_Phase_8,2,5,63,98,1546583592
3816,15,Jits_Phase_8,3,5,80,127,1546586660
3816,15,Jits_Phase_8,0,5,80,127,1547263312
3816,15,Jits_Phase_8,1,5,56,103,1547272684
3816,15,Jits_Phase_8,2,5,63,98,1547292996
3816,15,Jits_Phase_8,3,1,48,57,1547307572
3816,15,Jits_Phase_8,0,5,63,98,1548063076
3816,15,Jits_Phase_8,1,1,48,59,1548073764
3816,15,Jits_Phase_8,2,5,80,127,1548122440
3816,15,Jits_Phase_8,3,5,56,103,1548132860
3816,15,Jits_Phase_8,0,1,48,52,1548865940
3816,15,Jits_Phase_8,1,5,63,98,1548932452
3816,15,Jits_Phase_8,2,5,80,127,1548963384
3816,15,Jits_Phase_8,3,5,56,103,1549003392
3816,15,Jits_Phase_8,0,1,48,55,1549668116
3816,15,Jits_Phase_8,1,5,56,103,1549722996
3816,15,Jits_Phase_8,2,5,80,127,1549733416
3816,15,Jits_Phase_8,3,5,63,98,1549773260
3816,15,Jits_Phase_8,0,1,48,46,1550473580
3816,15,Jits_Phase_8,1,5,80,127,1550482820
3816,15,Jits_Phase_8,2,5,56,103,1550562692
3816,15,Jits_Phase_8,3,5,63,98,1550573020
3816,15,Jits_Phase_8,0,1,48,51,1551299548
3816,15,Jits_Phase_8,1,5,80,127,1551332704
3816,15,Jits_Phase_8,2,5,56,103,1551412708
3816,15,Jits_Phase_8,3,5,63,98,1551422828
3816,15,Jits_Phase_8,0,1,48,54,1552108236
3816,15,Jits_Phase_8,1,5,80,127,1552173524
3816,15,Jits_Phase_8,2,5,56,103,1552222544
3816,15,Jits_Phase_8,3,5,63,98,1552272740
3816,15,Jits_Phase_8,0,1,48,54,1552875024
3816,15,Jits_Phase_8,1,5,56,103,1553112416
3816,15,Jits_Phase_8,2,5,63,98,1553115480
3816,15,Jits_Phase_8,3,5,80,127,1553162468
3816,15,Jits_Phase_8,0,1,48,44,1553726476
3816,15,Jits_Phase_8,1,5,56,103,1553932624
3816,15,Jits_Phase_8,2,5,63,98,1553963348
3816,15,Jits_Phase_8,3,5,80,127,1553972648
3816,15,Jits_Phase_8,0,1,48,46,1554509976
3816,15,Jits_Phase_8,1,5,63,98,1554643308
3816,15,Jits_Phase_8,2,5,56,103,1554713136
3816,15,Jits_Phase_8,3,5,80,127,1554763264
3816,15,Jits_Phase_8,0,1,48,56,1555326324
3816,15,Jits_Phase_8,1,5,63,98,1555472888
3816,15,Jits_Phase_8,2,5,56,103,1555482936
3816,15,Jits_Phase_8,3,5,80,127,1555486000
3816,15,Jits_Phase_8,0,1,48,56,1556131252
3816,15,Jits_Phase_8,1,5,80,127,1556223636
3816,15,Jits_Phase_8,2,5,56,103,1556282608
3816,15,Jits_Phase_8,3,5,63,98,1556372912
3816,15,Jits_Phase_8,0,1,48,43,1556902388
3816,15,Jits_Phase_8,1,5,80,127,1557023024
3816,15,Jits_Phase_8,2,5,56,103,1557122328
3816,15,Jits_Phase_8,3,5,63,98,1557163312
3816,15,Jits_Phase_8,0,1,48,41,1557704468
3816,15,Jits_Phase_8,1,5,56,103,1557873152
3816,15,Jits_Phase_8,2,5,63,98,1557892420
3816,15,Jits_Phase_8,3,5,80,127,1557933476
3816,15,Jits_Phase_8,0,1,48,38,1558443764
3816,15,Jits_Phase_8,1,5,63,98,1558643020
3816,15,Jits_Phase_8,2,5,56,103,1558662432
3816,15,Jits_Phase_8,3,5,80,127,1558763124
3816,15,Jits_Phase_8,0,1,48,45,1559142152
3816,15,Jits_Phase_8,1,5,63,98,1559432440
3816,15,Jits_Phase_8,2,5,80,127,1559543024
3816,15,Jits_Phase_8,3,5,56,103,1559572924
3816,15,Jits_Phase_8,0,1,48,48,1559941392
3816,15,Jits_Phase_8,1,5,56,103,1560252728
3816,15,Jits_Phase_8,2,5,63,98,1560282480
3816,15,Jits_Phase_8,3,5,80,127,1560332604
3816,15,Jits_Phase_8,0,1,48,49,1560711340
3816,15,Jits_Phase_8,1,5,63,98,1561023024
3816,15,Jits_Phase_8,2,5,56,103,1561052404
3816,15,Jits_Phase_8,3,5,80,127,1561102900
3816,15,Jits_Phase_8,4,1,48,49,1561492316
3816,15,Jits_Phase_8,0,5,56,103,1561853320
3816,15,Jits_Phase_8,1,5,63,98,1561872956
3816,15,Jits_Phase_8,2,5,80,127,1561952848
3816,15,Jits_Phase_8,3,1,48,49,1562225752
3816,15,Jits_Phase_8,0,5,63,98,1562623348
3816,15,Jits_Phase_8,1,5,56,103,1562682768
3816,15,Jits_Phase_8,2,5,80,127,1562712320
3816,15,Jits_Phase_8,3,1,48,39,1563046492
3816,15,Jits_Phase_8,0,5,56,103,1563462888
3816,15,Jits_Phase_8,1,5,80,127,1563522332
3816,15,Jits_Phase_8,2,5,63,98,1563563244
3816,15,Jits_Phase_8,3,1,48,46,1563850516
3816,15,Jits_Phase_8,0,5,63,98,1564243408
3816,15,Jits_Phase_8,1,5,56,103,1564302776
3816,15,Jits_Phase_8,2,5,80,127,1564373352
3816,15,Jits_Phase_8,3,1,48,49,1564660624
3816,15,Jits_Phase_8,0,5,56,103,1565123060
3816,15,Jits_Phase_8,1,5,63,98,1565133104
3816,15,Jits_Phase_8,2,5,80,127,1565136616
3816,15,Jits_Phase_8,3,1,48,38,1565455376
3816,15,Jits_Phase_8,0,5,63,98,1565863412
3816,15,Jits_Phase_8,1,5,56,103,1565922756
3816,15,Jits_Phase_8,2,5,80,127,1565925820
3816,15,Jits_Phase_8,3,1,48,48,1566237528
3816,15,Jits_Phase_8,0,5,63,98,1566642712
3816,15,Jits_Phase_8,1,5,80,127,1566673212
3816,15,Jits_Phase_8,2,5,56,103,1566692920
3816,15,Jits_Phase_8,3,1,48,39,1566987168
3816,15,Jits_Phase_8,0,5,56,103,1567372640
3816,15,Jits_Phase_8,1,5,63,98,1567422768
3816,15,Jits_Phase_8,2,5,80,127,1567502784
3816,15,Jits_Phase_8,0,1,48,36,1567766748
3816,15,Jits_Phase_8,1,5,80,127,1568073220
3816,15,Jits_Phase_8,2,5,63,98,1568112960
3816,15,Jits_Phase_8,3,5,56,103,1568132748
3816,15,Jits_Phase_8,4,1,48,48,1568491800
3816,15,Jits_Phase_8,0,5,56,103,1568942580
3816,15,Jits_Phase_8,1,5,80,127,1568952780
3816,15,Jits_Phase_8,2,5,63,98,1568973088
3816,15,Jits_Phase_8,3,1,48,41,1569303148
3816,15,Jits_Phase_8,0,5,56,103,1569722724
3816,15,Jits_Phase_8,1,5,63,98,1569772852
3816,15,Jits_Phase_8,2,5,80,127,1569802752
3816,15,Jits_Phase_8,3,1,48,51,1570023892
3816,15,Jits_Phase_8,0,5,56,103,1570473576
3816,15,Jits_Phase_8,1,5,63,98,1570482580
3816,15,Jits_Phase_8,2,5,80,127,1570532852
3816,15,Jits_Phase_8,3,1,48,36,1570831752
3816,15,Jits_Phase_8,0,5,56,103,1571262928
3816,15,Jits_Phase_8,1,5,80,127,1571266072
3816,15,Jits_Phase_8,2,5,63,98,1571422684
3816,15,Jits_Phase_8,3,1,48,54,1571585364
3816,15,Jits_Phase_8,4,1,48,38,1571629008
3816,15,Jits_Phase_8,0,5,63,98,1572083028
3816,15,Jits_Phase_8,1,5,56,103,1572152784
3816,15,Jits_Phase_8,2,5,80,127,1572192600
3816,15,Jits_Phase_8,3,1,48,40,1572429284
3816,15,Jits_Phase_8,0,5,63,98,1572922648
3816,15,Jits_Phase_8,1,5,56,103,1573012808
3816,15,Jits_Phase_8,2,5,80,127,1573015948
3816,15,Jits_Phase_8,3,1,48,40,1573218656
3816,15,Jits_Phase_8,0,5,56,103,1573702996
3816,15,Jits_Phase_8,1,5,63,98,1573793228
3816,15,Jits_Phase_8,2,5,80,127,1573803348
3816,15,Jits_Phase_8,3,1,48,38,1574022092
3816,15,Jits_Phase_8,0,5,56,103,1574473024
3816,15,Jits_Phase_8,1,5,63,98,1574523328
3816,15,Jits_Phase_8,2,5,80,127,1574552928
3816,15,Jits_Phase_8,3,1,48,37,1574796464
3816,15,Jits_Phase_8,0,5,63,98,1575352836
3816,15,Jits_Phase_8,1,5,80,127,1575362884
3816,15,Jits_Phase_8,2,5,56,103,1575423420
3816,15,Jits_Phase_8,3,1,48,29,1575573168
3816,15,Jits_Phase_8,0,5,63,98,1576072508
3816,15,Jits_Phase_8,1,5,80,127,1576133196
3816,15,Jits_Phase_8,2,5,56,103,1576172912
3816,15,Jits_Phase_8,3,1,48,32,1576337416
3816,15,Jits_Phase_8,0,5,56,103,1576972660
3816,15,Jits_Phase_8,1,5,80,127,1576993268
3816,15,Jits_Phase_8,2,5,63,98,1577012532
3816,15,Jits_Phase_8,3,1,48,25,1577140784
3816,15,Jits_Phase_8,0,5,63,98,1577692644
3816,15,Jits_Phase_8,1,5,56,103,1577712956
3816,15,Jits_Phase_8,2,5,80,127,1577752892
3816,15,Jits_Phase_8,3,1,48,26,1577919036
3816,15,Jits_Phase_8,0,5,63,98,1578502516
3816,15,Jits_Phase_8,1,5,80,127,1578533240
3816,15,Jits_Phase_8,2,5,56,103,1578552800
3816,15,Jits_Phase_8,3,1,48,25,1578697520
3816,15,Jits_Phase_8,0,5,80,127,1579272524
3816,15,Jits_Phase_8,1,5,56,103,1579323248
3816,15,Jits_Phase_8,2,5,63,98,1579383288
3816,15,Jits_Phase_8,3,1,48,28,1579408580
3816,15,Jits_Phase_8,0,5,63,98,1580063228
3816,15,Jits_Phase_8,1,1,48,36,1580177324
3816,15,Jits_Phase_8,2,5,56,103,1580182828
3816,15,Jits_Phase_8,3,5,80,127,1580212576
3816,15,Jits_Phase_8,0,5,80,127,1580902872
3816,15,Jits_Phase_8,1,5,63,98,1580923256
3816,15,Jits_Phase_8,2,1,48,24,1580945256
3816,15,Jits_Phase_8,3,5,56,103,1580992856
3816,15,Jits_Phase_8,0,5,63,98,1581723024
3816,15,Jits_Phase_8,1,5,56,103,1581733220
3816,15,Jits_Phase_8,2,1,48,24,1581742036
3816,15,Jits_Phase_8,3,5,80,127,1581813304
3816,15,Jits_Phase_8,0,1,48,28,1582527468
3816,15,Jits_Phase_8,1,5,56,103,1582583168
3816,15,Jits_Phase_8,2,5,80,127,1582612992
3816,15,Jits_Phase_8,3,5,63,98,1582623100
3816,15,Jits_Phase_8,0,9999,9999,9999,1447740544
3816,15,Jits_Phase_8,1,9999,9999,9999,1448540284
3816,15,Jits_Phase_8,2,9999,9999,9999,1449341044
3816,15,Jits_Phase_8,3,9999,9999,9999,1450140740
3816,15,Jits_Phase_8,4,9999,9999,9999,1450940504
3816,15,Jits_Phase_8,5,9999,9999,9999,1451740264
3816,15,Jits_Phase_8,6,9999,9999,9999,1452541056
3816,15,Jits_Phase_8,7,9999,9999,9999,1453340752
3816,15,Jits_Phase_8,8,9999,9999,9999,1454140528
3816,15,Jits_Phase_8,9,9999,9999,9999,1454940224
3816,15,Jits_Phase_8,10,9999,9999,9999,1455741052
3816,15,Jits_Phase_8,11,9999,9999,9999,1456540752
3816,15,Jits_Phase_8,12,9999,9999,9999,1457340528
3816,15,Jits_Phase_8,13,9999,9999,9999,1458140224
3816,15,Jits_Phase_8,14,9999,9999,9999,1458941016
3816,15,Jits_Phase_8,15,9999,9999,9999,1459740780
3816,15,Jits_Phase_8,16,9999,9999,9999,1460540520
3816,15,Jits_Phase_8,17,9999,9999,9999,1461340244
3816,15,Jits_Phase_8,18,9999,9999,9999,1462141052
3816,15,Jits_Phase_8,19,9999,9999,9999,1462940752
3816,15,Jits_Phase_8,20,9999,9999,9999,1463740512
3816,15,Jits_Phase_8,21,9999,9999,9999,1464540272
3816,15,Jits_Phase_8,22,9999,9999,9999,1465341004
3816,15,Jits_Phase_8,23,9999,9999,9999,1466140760
3816,15,Jits_Phase_8,24,9999,9999,9999,1466940516
3816,15,Jits_Phase_8,25,9999,9999,9999,1467740224
3816,15,Jits_Phase_8,26,9999,9999,9999,1468541028
3816,15,Jits_Phase_8,27,9999,9999,9999,1469340784
3816,15,Jits_Phase_8,28,9999,9999,9999,1470140480
3816,15,Jits_Phase_8,29,9999,9999,9999,1470940256
3816,15,Jits_Phase_8,30,9999,9999,9999,1471720532
3816,15,Jits_Phase_8,31,9999,9999,9999,1472520292
3816,15,Jits_Phase_8,32,9999,9999,9999,1473321032
3816,15,Jits_Phase_8,33,9999,9999,9999,1474120796
3816,15,Jits_Phase_8,34,9999,9999,9999,1474920520
3816,15,Jits_Phase_8,35,9999,9999,9999,1475720288
3816,15,Jits_Phase_8,36,9999,9999,9999,1476521024
3816,15,Jits_Phase_8,37,9999,9999,9999,1477320780
3816,15,Jits_Phase_8,38,9999,9999,9999,1478120544
3816,15,Jits_Phase_8,39,9999,9999,9999,1478920316
3816,15,Jits_Phase_8,40,9999,9999,9999,1479721064
3816,15,Jits_Phase_8,41,9999,9999,9999,1480520764
3816,15,Jits_Phase_8,42,9999,9999,9999,1481320540
3816,15,Jits_Phase_8,43,9999,9999,9999,1482120300
3816,15,Jits_Phase_8,44,9999,9999,9999,1482921084
3816,15,Jits_Phase_8,45,9999,9999,9999,1483720772
3816,15,Jits_Phase_8,46,9999,9999,9999,1484520548
3816,15,Jits_Phase_8,47,9999,9999,9999,1485320312
3816,15,Jits_Phase_8,48,9999,9999,9999,1486140532
3816,15,Jits_Phase_8,49,9999,9999,9999,1486940248
3816,15,Jits_Phase_8,50,9999,9999,9999,1487741052
3816,15,Jits_Phase_8,51,9999,9999,9999,1488540748
3816,15,Jits_Phase_8,52,9999,9999,9999,1489340520
3816,15,Jits_Phase_8,53,9999,9999,9999,1490140228
3816,15,Jits_Phase_8,54,9999,9999,9999,1490941040
3816,15,Jits_Phase_8,55,9999,9999,9999,1491740736
3816,15,Jits_Phase_8,56,9999,9999,9999,1492540492
3816,15,Jits_Phase_8,57,9999,9999,9999,1493340212
3816,15,Jits_Phase_8,58,9999,9999,9999,1494141032
3816,15,Jits_Phase_8,59,9999,9999,9999,1494940732
3816,15,Jits_Phase_8,60,9999,9999,9999,1495740504
3816,15,Jits_Phase_8,61,9999,9999,9999,1496540280
3816,15,Jits_Phase_8,62,9999,9999,9999,1497341020
3816,15,Jits_Phase_8,63,9999,9999,9999,1498140772
3816,15,Jits_Phase_8,64,9999,9999,9999,1498980432
3816,15,Jits_Phase_8,65,9999,9999,9999,1499780192
3816,15,Jits_Phase_8,66,9999,9999,9999,1500580944
3816,15,Jits_Phase_8,67,9999,9999,9999,1501380708
3816,15,Jits_Phase_8,68,9999,9999,9999,1502180468
3816,15,Jits_Phase_8,69,9999,9999,9999,1502980168
3816,15,Jits_Phase_8,70,9999,9999,9999,1503780980
3816,15,Jits_Phase_8,71,9999,9999,9999,1504580676
3816,15,Jits_Phase_8,72,9999,9999,9999,1505380468
3816,15,Jits_Phase_8,73,9999,9999,9999,1506180168
3816,15,Jits_Phase_8,74,9999,9999,9999,1506980924
3816,15,Jits_Phase_8,75,9999,9999,9999,1507780696
3816,15,Jits_Phase_8,76,9999,9999,9999,1508580464
3816,15,Jits_Phase_8,77,9999,9999,9999,1509380164
3816,15,Jits_Phase_8,78,9999,9999,9999,1510180980
3816,15,Jits_Phase_8,79,9999,9999,9999,1510980680
3816,15,Jits_Phase_8,80,9999,9999,9999,1511780480
3816,15,Jits_Phase_8,81,9999,9999,9999,1512540228
3816,15,Jits_Phase_8,82,9999,9999,9999,1513341032
3816,15,Jits_Phase_8,83,9999,9999,9999,1514140788
3816,15,Jits_Phase_8,84,9999,9999,9999,1514940480
3816,15,Jits_Phase_8,85,9999,9999,9999,1515740256
3816,15,Jits_Phase_8,86,9999,9999,9999,1516541000
3816,15,Jits_Phase_8,87,9999,9999,9999,1517340752
3816,15,Jits_Phase_8,88,9999,9999,9999,1518140504
3816,15,Jits_Phase_8,89,9999,9999,9999,1518940224
3816,15,Jits_Phase_8,90,9999,9999,9999,1519741040
3816,15,Jits_Phase_8,91,9999,9999,9999,1520540796
3816,15,Jits_Phase_8,92,9999,9999,9999,1521340500
3816,15,Jits_Phase_8,93,9999,9999,9999,1522140252
3816,15,Jits_Phase_8,94,9999,9999,9999,1522940984
3816,15,Jits_Phase_8,95,9999,9999,9999,1523740788
3816,15,Jits_Phase_8,96,9999,9999,9999,1524540484
3816,15,Jits_Phase_8,97,9999,9999,9999,1525260380
3816,15,Jits_Phase_8,98,9999,9999,9999,1526060160
3816,15,Jits_Phase_8,99,9999,9999,9999,1526860896
3816,15,Jits_Phase_8,100,9999,9999,9999,1527660600
3816,15,Jits_Phase_8,101,9999,9999,9999,1528460360
3816,15,Jits_Phase_8,102,9999,9999,9999,1529260128
3816,15,Jits_Phase_8,103,9999,9999,9999,1530060856
3816,15,Jits_Phase_8,104,9999,9999,9999,1530860624
3816,15,Jits_Phase_8,105,9999,9999,9999,1531660392
3816,15,Jits_Phase_8,106,9999,9999,9999,1532460140
3816,15,Jits_Phase_8,107,9999,9999,9999,1533260924
3816,15,Jits_Phase_8,108,9999,9999,9999,1534060632
3816,15,Jits_Phase_8,109,9999,9999,9999,1534860408
3816,15,Jits_Phase_8,110,9999,9999,9999,1535660124
3816,15,Jits_Phase_8,111,9999,9999,9999,1536460856
3816,15,Jits_Phase_8,112,9999,9999,9999,1537260620
3816,15,Jits_Phase_8,113,9999,9999,9999,1538060396
3816,15,Jits_Phase_8,114,9999,9999,9999,1538941008
3816,15,Jits_Phase_8,115,9999,9999,9999,1539740764
3816,15,Jits_Phase_8,116,9999,9999,9999,1540540528
3816,15,Jits_Phase_8,117,9999,9999,9999,1541340216
3816,15,Jits_Phase_8,118,9999,9999,9999,1542141036
3816,15,Jits_Phase_8,119,9999,9999,9999,1542940732
3816,15,Jits_Phase_8,120,9999,9999,9999,1543740500
3816,15,Jits_Phase_8,121,9999,9999,9999,1544540288
3816,15,Jits_Phase_8,122,9999,9999,9999,1545341008
3816,15,Jits_Phase_8,123,9999,9999,9999,1546140756
3816,15,Jits_Phase_8,124,9999,9999,9999,1546940520
3816,15,Jits_Phase_8,125,9999,9999,9999,1547740284
3816,15,Jits_Phase_8,126,9999,9999,9999,1548541028
3816,15,Jits_Phase_8,127,9999,9999,9999,1549340788
3816,15,Jits_Phase_8,128,9999,9999,9999,1550140472
3816,15,Jits_Phase_8,129,9999,9999,9999,1550940256
3816,15,Jits_Phase_8,130,9999,9999,9999,1551740996
3816,15,Jits_Phase_8,131,9999,9999,9999,1552700476
3816,15,Jits_Phase_8,132,9999,9999,9999,1553500260
3816,15,Jits_Phase_8,133,9999,9999,9999,1554300996
3816,15,Jits_Phase_8,134,9999,9999,9999,1555100760
3816,15,Jits_Phase_8,135,9999,9999,9999,1555900508
3816,15,Jits_Phase_8,136,9999,9999,9999,1556700268
3816,15,Jits_Phase_8,137,9999,9999,9999,1557501000
3816,15,Jits_Phase_8,138,9999,9999,9999,1558300760
3816,15,Jits_Phase_8,139,9999,9999,9999,1559100516
3816,15,Jits_Phase_8,140,9999,9999,9999,1559900228
3816,15,Jits_Phase_8,141,9999,9999,9999,1560701036
3816,15,Jits_Phase_8,142,9999,9999,9999,1561500764
3816,15,Jits_Phase_8,143,9999,9999,9999,1562300500
3816,15,Jits_Phase_8,144,9999,9999,9999,1563100268
3816,15,Jits_Phase_8,145,9999,9999,9999,1563901000
3816,15,Jits_Phase_8,146,9999,9999,9999,1564700776
3816,15,Jits_Phase_8,147,9999,9999,9999,1565500532
3816,15,Jits_Phase_8,148,9999,9999,9999,1566300244
3816,15,Jits_Phase_8,149,9999,9999,9999,1567101032
3816,15,Jits_Phase_8,150,9999,9999,9999,1567740996
3816,15,Jits_Phase_8,151,9999,9999,9999,1568540776
3816,15,Jits_Phase_8,152,9999,9999,9999,1569340512
3816,15,Jits_Phase_8,153,9999,9999,9999,1570140224
3816,15,Jits_Phase_8,154,9999,9999,9999,1570941040
3816,15,Jits_Phase_8,155,9999,9999,9999,1571740780
3816,15,Jits_Phase_8,156,9999,9999,9999,1572540532
3816,15,Jits_Phase_8,157,9999,9999,9999,1573340212
3816,15,Jits_Phase_8,158,9999,9999,9999,1574141020
3816,15,Jits_Phase_8,159,9999,9999,9999,1574940788
3816,15,Jits_Phase_8,160,9999,9999,9999,1575740492
3816,15,Jits_Phase_8,161,9999,9999,9999,1576540276
3816,15,Jits_Phase_8,162,9999,9999,9999,1577341012
3816,15,Jits_Phase_8,163,9999,9999,9999,1578140780
3816,15,Jits_Phase_8,164,9999,9999,9999,1578940532
3816,15,Jits_Phase_8,165,9999,9999,9999,1579740216
3816,15,Jits_Phase_8,166,9999,9999,9999,1580541036
3816,15,Jits_Phase_8,167,9999,9999,9999,1581340796
3816,15,Jits_Phase_8,168,9999,9999,9999,1582140496
3816,15,Jits_Phase_8,169,9999,9999,9999,1582940216
3817,16,Jits_ISO_5,0,5,56,103,1595847992
3817,16,Jits_ISO_5,1,5,63,98,1595851164
3817,16,Jits_ISO_5,2,5,80,127,1595854436
3817,16,Jits_ISO_5,0,5,56,103,1596347716
3817,16,Jits_ISO_5,1,5,63,98,1596350812
3817,16,Jits_ISO_5,2,5,80,127,1596353936
3817,16,Jits_ISO_5,0,1,48,29,1596839184
3817,16,Jits_ISO_5,1,5,56,103,1596847600
3817,16,Jits_ISO_5,2,5,80,127,1596857572
3817,16,Jits_ISO_5,3,5,63,98,1596878104
3817,16,Jits_ISO_5,0,5,63,98,1597297968
3817,16,Jits_ISO_5,1,5,80,127,1597327716
3817,16,Jits_ISO_5,2,5,56,103,1597337840
3817,16,Jits_ISO_5,3,1,48,53,1597350544
3817,16,Jits_ISO_5,0,1,48,51,1597830260
3817,16,Jits_ISO_5,1,5,80,127,1597858304
3817,16,Jits_ISO_5,2,5,56,103,1597868648
3817,16,Jits_ISO_5,3,5,63,98,1597898024
3817,16,Jits_ISO_5,0,5,63,98,1598347488
3817,16,Jits_ISO_5,1,1,48,32,1598367916
3817,16,Jits_ISO_5,2,5,56,103,1598378572
3817,16,Jits_ISO_5,3,5,80,127,1598387424
3817,16,Jits_ISO_5,0,5,56,103,1598798348
3817,16,Jits_ISO_5,1,5,63,98,1598848352
3817,16,Jits_ISO_5,2,1,48,40,1598867688
3817,16,Jits_ISO_5,3,5,80,127,1598869472
3817,16,Jits_ISO_5,0,5,80,127,1599297948
3817,16,Jits_ISO_5,1,5,63,98,1599347948
3817,16,Jits_ISO_5,2,1,48,39,1599356320
3817,16,Jits_ISO_5,3,5,56,103,1599387952
3817,16,Jits_ISO_5,0,5,56,103,1599797692
3817,16,Jits_ISO_5,1,5,63,98,1599828368
3817,16,Jits_ISO_5,2,1,48,41,1599861976
3817,16,Jits_ISO_5,3,5,80,127,1599898108
3817,16,Jits_ISO_5,0,5,56,103,1600298488
3817,16,Jits_ISO_5,1,1,48,39,1600345396
3817,16,Jits_ISO_5,2,5,80,127,1600357700
3817,16,Jits_ISO_5,3,5,63,98,1600387524
3817,16,Jits_ISO_5,0,5,56,103,1600808352
3817,16,Jits_ISO_5,1,5,63,98,1600817424
3817,16,Jits_ISO_5,2,5,80,127,1600857460
3817,16,Jits_ISO_5,3,1,48,65,1600890244
3817,16,Jits_ISO_5,0,5,63,98,1601297676
3817,16,Jits_ISO_5,1,5,80,127,1601377568
3817,16,Jits_ISO_5,2,1,48,53,1601385864
3817,16,Jits_ISO_5,3,5,56,103,1601387832
3817,16,Jits_ISO_5,0,5,63,98,1601847604
3817,16,Jits_ISO_5,1,5,56,103,1601887484
3817,16,Jits_ISO_5,2,5,80,127,1601890560
3817,16,Jits_ISO_5,3,1,48,50,1601904164
3817,16,Jits_ISO_5,0,5,56,103,1602307400
3817,16,Jits_ISO_5,1,5,63,98,1602317744
3817,16,Jits_ISO_5,2,5,80,127,1602357532
3817,16,Jits_ISO_5,3,1,48,40,1602396564
3817,16,Jits_ISO_5,0,5,56,103,1602797928
3817,16,Jits_ISO_5,1,5,63,98,1602801216
3817,16,Jits_ISO_5,2,5,80,127,1602818384
3817,16,Jits_ISO_5,3,1,48,34,1602878284
3817,16,Jits_ISO_5,0,5,80,127,1603307848
3817,16,Jits_ISO_5,1,5,56,103,1603318340
3817,16,Jits_ISO_5,2,1,48,14,1603377800
3817,16,Jits_ISO_5,3,5,63,98,1603387640
3817,16,Jits_ISO_5,0,5,63,98,1603798452
3817,16,Jits_ISO_5,1,5,56,103,1603817788
3817,16,Jits_ISO_5,2,1,48,35,1603881508
3817,16,Jits_ISO_5,3,5,80,127,1603897644
3817,16,Jits_ISO_5,0,5,56,103,1604317588
3817,16,Jits_ISO_5,1,1,48,24,1604349848
3817,16,Jits_ISO_5,2,5,80,127,1604357372
3817,16,Jits_ISO_5,3,5,63,98,1604367640
3817,16,Jits_ISO_5,0,5,80,127,1604808196
3817,16,Jits_ISO_5,1,1,48,37,1604818884
3817,16,Jits_ISO_5,2,5,63,98,1604837788
3817,16,Jits_ISO_5,3,5,56,103,1604877652
3817,16,Jits_ISO_5,0,1,48,42,1605305816
3817,16,Jits_ISO_5,1,5,56,103,1605328384
3817,16,Jits_ISO_5,2,5,63,98,1605358132
3817,16,Jits_ISO_5,3,5,80,127,1605408096
3817,16,Jits_ISO_5,0,1,48,37,1605809888
3817,16,Jits_ISO_5,1,5,80,127,1605827896
3817,16,Jits_ISO_5,2,5,56,103,1605868208
3817,16,Jits_ISO_5,3,5,63,98,1605878252
3817,16,Jits_ISO_5,0,5,80,127,1606308156
3817,16,Jits_ISO_5,1,1,48,40,1606324004
3817,16,Jits_ISO_5,2,5,63,98,1606348012
3817,16,Jits_ISO_5,3,5,56,103,1606407500
3817,16,Jits_ISO_5,0,5,56,103,1606808052
3817,16,Jits_ISO_5,1,5,80,127,1606818396
3817,16,Jits_ISO_5,2,1,48,37,1606855592
3817,16,Jits_ISO_5,3,5,63,98,1606898328
3817,16,Jits_ISO_5,0,5,80,127,1607307572
3817,16,Jits_ISO_5,1,1,48,42,1607351892
3817,16,Jits_ISO_5,2,5,63,98,1607368028
3817,16,Jits_ISO_5,3,5,56,103,1607397628
3817,16,Jits_ISO_5,0,5,56,103,1607808292
3817,16,Jits_ISO_5,1,5,80,127,1607867708
3817,16,Jits_ISO_5,2,1,48,31,1607879820
3817,16,Jits_ISO_5,3,5,63,98,1607907788
3817,16,Jits_ISO_5,0,5,56,103,1608358308
3817,16,Jits_ISO_5,1,5,63,98,1608367532
3817,16,Jits_ISO_5,2,5,80,127,1608370896
3817,16,Jits_ISO_5,3,1,48,39,1608374464
3817,16,Jits_ISO_5,0,5,80,127,1608808076
3817,16,Jits_ISO_5,1,1,48,49,1608860868
3817,16,Jits_ISO_5,2,5,63,98,1608897904
3817,16,Jits_ISO_5,3,5,56,103,1608908100
3817,16,Jits_ISO_5,0,5,56,103,1609307584
3817,16,Jits_ISO_5,1,5,63,98,1609310760
3817,16,Jits_ISO_5,2,5,80,127,1609313804
3817,16,Jits_ISO_5,3,1,48,48,1609357764
3817,16,Jits_ISO_5,0,5,80,127,1609827628
3817,16,Jits_ISO_5,1,1,48,51,1609849328
3817,16,Jits_ISO_5,2,5,63,98,1609877824
3817,16,Jits_ISO_5,3,5,56,103,1609907496
3817,16,Jits_ISO_5,0,5,56,103,1610308096
3817,16,Jits_ISO_5,1,5,80,127,1610318216
3817,16,Jits_ISO_5,2,1,48,48,1610371776
3817,16,Jits_ISO_5,3,5,63,98,1610387984
3817,16,Jits_ISO_5,0,5,56,103,1610817876
3817,16,Jits_ISO_5,1,5,63,98,1610838288
3817,16,Jits_ISO_5,2,1,48,48,1610878788
3817,16,Jits_ISO_5,3,5,80,127,1610897916
3817,16,Jits_ISO_5,0,5,80,127,1611308484
3817,16,Jits_ISO_5,1,1,48,43,1611351260
3817,16,Jits_ISO_5,2,5,63,98,1611378032
3817,16,Jits_ISO_5,3,5,56,103,1611397368
3817,16,Jits_ISO_5,0,5,80,127,1611837900
3817,16,Jits_ISO_5,1,5,56,103,1611848244
3817,16,Jits_ISO_5,2,5,63,98,1611858240
3817,16,Jits_ISO_5,3,1,48,32,1611876048
3817,16,Jits_ISO_5,0,5,80,127,1612328352
3817,16,Jits_ISO_5,1,5,56,103,1612347768
3817,16,Jits_ISO_5,2,1,48,35,1612355444
3817,16,Jits_ISO_5,3,5,63,98,1612418508
3817,16,Jits_ISO_5,0,5,56,103,1612838212
3817,16,Jits_ISO_5,1,5,80,127,1612867960
3817,16,Jits_ISO_5,2,5,63,98,1612888292
3817,16,Jits_ISO_5,0,5,63,98,1613327832
3817,16,Jits_ISO_5,1,1,48,46,1613339268
3817,16,Jits_ISO_5,2,5,56,103,1613388140
3817,16,Jits_ISO_5,3,5,80,127,1613417912
3817,16,Jits_ISO_5,0,5,63,98,1613818424
3817,16,Jits_ISO_5,1,5,80,127,1613821716
3817,16,Jits_ISO_5,2,1,48,32,1613834872
3817,16,Jits_ISO_5,3,5,56,103,1613908348
3817,16,Jits_ISO_5,0,1,48,49,1614327560
3817,16,Jits_ISO_5,1,5,56,103,1614338524
3817,16,Jits_ISO_5,2,5,63,98,1614367976
3817,16,Jits_ISO_5,3,5,80,127,1614407988
3817,16,Jits_ISO_5,0,1,48,49,1614831040
3817,16,Jits_ISO_5,1,5,63,98,1614838112
3817,16,Jits_ISO_5,2,5,56,103,1614878052
3817,16,Jits_ISO_5,3,5,80,127,1614897388
3817,16,Jits_ISO_5,0,1,48,58,1615320660
3817,16,Jits_ISO_5,1,5,63,98,1615348108
3817,16,Jits_ISO_5,2,5,56,103,1615388048
3817,16,Jits_ISO_5,3,5,80,127,1615398168
3817,16,Jits_ISO_5,0,1,48,41,1615823016
3817,16,Jits_ISO_5,1,5,80,127,1615837656
3817,16,Jits_ISO_5,2,5,63,98,1615908160
3817,16,Jits_ISO_5,3,5,56,103,1615927852
3817,16,Jits_ISO_5,0,1,48,49,1616321104
3817,16,Jits_ISO_5,1,5,56,103,1616328172
3817,16,Jits_ISO_5,2,5,80,127,1616347736
3817,16,Jits_ISO_5,3,5,63,98,1616387448
3817,16,Jits_ISO_5,0,5,63,98,1616837952
3817,16,Jits_ISO_5,1,1,48,48,1616844212
3817,16,Jits_ISO_5,2,5,80,127,1616857432
3817,16,Jits_ISO_5,3,5,56,103,1616898636
3817,16,Jits_ISO_5,0,5,63,98,1617337680
3817,16,Jits_ISO_5,1,1,48,42,1617343496
3817,16,Jits_ISO_5,2,5,56,103,1617358132
3817,16,Jits_ISO_5,3,5,80,127,1617368700
3817,16,Jits_ISO_5,0,5,80,127,1617837336
3817,16,Jits_ISO_5,1,1,48,30,1617855352
3817,16,Jits_ISO_5,2,5,56,103,1617857936
3817,16,Jits_ISO_5,3,5,63,98,1617887836
3817,16,Jits_ISO_5,0,1,48,31,1618339592
3817,16,Jits_ISO_5,1,5,56,103,1618407724
3817,16,Jits_ISO_5,2,5,80,127,1618410864
3817,16,Jits_ISO_5,3,5,63,98,1618428180
3817,16,Jits_ISO_5,0,5,63,98,1618827820
3817,16,Jits_ISO_5,1,5,56,103,1618858320
3817,16,Jits_ISO_5,2,1,48,29,1618874016
3817,16,Jits_ISO_5,3,5,80,127,1618917724
3817,16,Jits_ISO_5,0,1,48,28,1619393672
3817,16,Jits_ISO_5,1,5,63,98,1619408164
3817,16,Jits_ISO_5,2,5,56,103,1619417608
3817,16,Jits_ISO_5,3,5,80,127,1619427804
3817,16,Jits_ISO_5,0,5,56,103,1619857712
3817,16,Jits_ISO_5,1,5,80,127,1619887536
3817,16,Jits_ISO_5,2,5,63,98,1619897656
3817,16,Jits_ISO_5,3,1,48,29,1619901748
3817,16,Jits_ISO_5,0,1,48,32,1620377736
3817,16,Jits_ISO_5,1,5,63,98,1620397684
3817,16,Jits_ISO_5,2,5,56,103,1620407808
3817,16,Jits_ISO_5,3,5,80,127,1620428040
3817,16,Jits_ISO_5,0,5,56,103,1620827456
3817,16,Jits_ISO_5,1,1,48,30,1620887152
3817,16,Jits_ISO_5,2,5,63,98,1620888900
3817,16,Jits_ISO_5,3,5,80,127,1620892024
3817,16,Jits_ISO_5,0,5,80,127,1621347792
3817,16,Jits_ISO_5,1,5,56,103,1621358064
3817,16,Jits_ISO_5,2,1,48,32,1621363352
3817,16,Jits_ISO_5,3,5,63,98,1621427512
3817,16,Jits_ISO_5,0,5,80,127,1621838228
3817,16,Jits_ISO_5,1,1,48,28,1621871988
3817,16,Jits_ISO_5,2,5,56,103,1621907676
3817,16,Jits_ISO_5,3,5,63,98,1621917948
3817,16,Jits_ISO_5,0,1,48,35,1622324048
3817,16,Jits_ISO_5,1,5,63,98,1622377828
3817,16,Jits_ISO_5,2,5,56,103,1622388024
3817,16,Jits_ISO_5,3,5,80,127,1622407584
3817,16,Jits_ISO_5,0,5,80,127,1622828544
3817,16,Jits_ISO_5,1,1,48,31,1622862304
3817,16,Jits_ISO_5,2,5,63,98,1622887756
3817,16,Jits_ISO_5,3,5,56,103,1622927616
3817,16,Jits_ISO_5,0,1,48,34,1623361076
3817,16,Jits_ISO_5,1,5,56,103,1623378508
3817,16,Jits_ISO_5,2,5,63,98,1623387436
3817,16,Jits_ISO_5,3,5,80,127,1623427520
3817,16,Jits_ISO_5,0,5,56,103,1623838068
3817,16,Jits_ISO_5,1,1,48,27,1623852352
3817,16,Jits_ISO_5,2,5,80,127,1623867740
3817,16,Jits_ISO_5,3,5,63,98,1623917892
3817,16,Jits_ISO_5,0,5,56,103,1624377672
3817,16,Jits_ISO_5,1,1,48,32,1624399300
3817,16,Jits_ISO_5,2,5,63,98,1624417676
3817,16,Jits_ISO_5,3,5,80,127,1624420968
3817,16,Jits_ISO_5,0,5,56,103,1624877540
3817,16,Jits_ISO_5,1,1,48,24,1624882076
3817,16,Jits_ISO_5,2,5,63,98,1624887728
3817,16,Jits_ISO_5,3,5,80,127,1624908336
3817,16,Jits_ISO_5,0,5,56,103,1625338252
3817,16,Jits_ISO_5,1,5,80,127,1625341392
3817,16,Jits_ISO_5,2,1,48,26,1625346624
3817,16,Jits_ISO_5,3,5,63,98,1625378332
3817,16,Jits_ISO_5,0,5,63,98,1625877920
3817,16,Jits_ISO_5,1,5,56,103,1625907448
3817,16,Jits_ISO_5,2,5,80,127,1625928128
3817,16,Jits_ISO_5,3,1,48,29,1625933784
3817,16,Jits_ISO_5,0,5,80,127,1626347836
3817,16,Jits_ISO_5,1,5,56,103,1626358256
3817,16,Jits_ISO_5,2,5,63,98,1626368304
3817,16,Jits_ISO_5,3,1,48,35,1626399892
3817,16,Jits_ISO_5,0,5,56,103,1626847652
3817,16,Jits_ISO_5,1,1,48,32,1626853540
3817,16,Jits_ISO_5,2,5,80,127,1626887656
3817,16,Jits_ISO_5,3,5,63,98,1626918452
3817,16,Jits_ISO_5,0,5,63,98,1627367780
3817,16,Jits_ISO_5,1,1,48,28,1627370528
3817,16,Jits_ISO_5,2,5,80,127,1627378116
3817,16,Jits_ISO_5,3,5,56,103,1627388240
3817,16,Jits_ISO_5,0,5,56,103,1627848252
3817,16,Jits_ISO_5,1,1,48,37,1627887640
3817,16,Jits_ISO_5,2,5,63,98,1627917704
3817,16,Jits_ISO_5,3,5,80,127,1627927896
3817,16,Jits_ISO_5,0,5,80,127,1628347704
3817,16,Jits_ISO_5,1,5,56,103,1628358124
3817,16,Jits_ISO_5,2,1,48,31,1628399152
3817,16,Jits_ISO_5,3,5,63,98,1628408388
3817,16,Jits_ISO_5,0,5,80,127,1628857788
3817,16,Jits_ISO_5,1,1,48,41,1628884128
3817,16,Jits_ISO_5,2,5,56,103,1628918244
3817,16,Jits_ISO_5,3,5,63,98,1628947696
3817,16,Jits_ISO_5,0,5,56,103,1629357460
3817,16,Jits_ISO_5,1,5,80,127,1629360376
3817,16,Jits_ISO_5,2,5,63,98,1629398516
3817,16,Jits_ISO_5,3,1,48,54,1629402608
3817,16,Jits_ISO_5,0,5,56,103,1629887764
3817,16,Jits_ISO_5,1,5,63,98,1629917440
3817,16,Jits_ISO_5,2,1,48,53,1629920252
3817,16,Jits_ISO_5,3,5,80,127,1629927700
3817,16,Jits_ISO_5,0,5,63,98,1630397780
3817,16,Jits_ISO_5,1,5,80,127,1630407976
3817,16,Jits_ISO_5,2,5,56,103,1630418468
3817,16,Jits_ISO_5,3,1,48,50,1630432300
3817,16,Jits_ISO_5,0,5,80,127,1630848292
3817,16,Jits_ISO_5,1,5,56,103,1630897592
3817,16,Jits_ISO_5,2,5,63,98,1630900660
3817,16,Jits_ISO_5,3,1,48,49,1630918244
3817,16,Jits_ISO_5,0,5,56,103,1631377844
3817,16,Jits_ISO_5,1,5,80,127,1631398232
3817,16,Jits_ISO_5,2,5,63,98,1631407452
3817,16,Jits_ISO_5,3,1,48,34,1631435728
3817,16,Jits_ISO_5,0,5,63,98,1631858264
3817,16,Jits_ISO_5,1,5,56,103,1631887716
3817,16,Jits_ISO_5,2,5,80,127,1631908248
3817,16,Jits_ISO_5,3,1,48,37,1631936092
3817,16,Jits_ISO_5,0,5,56,103,1632368108
3817,16,Jits_ISO_5,1,5,80,127,1632378156
3817,16,Jits_ISO_5,2,1,48,26,1632409968
3817,16,Jits_ISO_5,3,5,63,98,1632447828
3817,16,Jits_ISO_5,0,5,63,98,1632857448
3817,16,Jits_ISO_5,1,1,48,47,1632892400
3817,16,Jits_ISO_5,2,5,80,127,1632898500
3817,16,Jits_ISO_5,3,5,56,103,1632938436
3817,16,Jits_ISO_5,0,5,56,103,1633368416
3817,16,Jits_ISO_5,1,5,63,98,1633377564
3817,16,Jits_ISO_5,2,1,48,35,1633383148
3817,16,Jits_ISO_5,3,5,80,127,1633398312
3817,16,Jits_ISO_5,0,1,48,35,1633894864
3817,16,Jits_ISO_5,1,5,63,98,1633908012
3817,16,Jits_ISO_5,2,5,80,127,1633927572
3817,16,Jits_ISO_5,3,5,56,103,1633948104
3817,16,Jits_ISO_5,0,5,56,103,1634348392
3817,16,Jits_ISO_5,1,1,48,37,1634394980
3817,16,Jits_ISO_5,2,5,80,127,1634428208
3817,16,Jits_ISO_5,3,5,63,98,1634437432
3817,16,Jits_ISO_5,0,5,80,127,1634898364
3817,16,Jits_ISO_5,1,5,63,98,1634907440
3817,16,Jits_ISO_5,2,5,56,103,1634938084
3817,16,Jits_ISO_5,3,1,48,33,1634945016
3817,16,Jits_ISO_5,0,5,63,98,1635358160
3817,16,Jits_ISO_5,1,5,80,127,1635398172
3817,16,Jits_ISO_5,2,5,56,103,1635458360
3817,16,Jits_ISO_5,0,5,63,98,1635867996
3817,16,Jits_ISO_5,1,5,56,103,1635918124
3817,16,Jits_ISO_5,2,1,48,50,1635934968
3817,16,Jits_ISO_5,3,5,80,127,1635948112
3817,16,Jits_ISO_5,0,5,80,127,1636377920
3817,16,Jits_ISO_5,1,5,63,98,1636388192
3817,16,Jits_ISO_5,2,1,48,44,1636403140
3817,16,Jits_ISO_5,3,5,56,103,1636457960
3817,16,Jits_ISO_5,0,1,48,52,1636921760
3817,16,Jits_ISO_5,1,5,80,127,1636948336
3817,16,Jits_ISO_5,2,5,56,103,1636957484
3817,16,Jits_ISO_5,3,5,63,98,1636960996
3817,16,Jits_ISO_5,0,5,56,103,1637387736
3817,16,Jits_ISO_5,1,5,80,127,1637407972
3817,16,Jits_ISO_5,2,5,63,98,1637418464
3817,16,Jits_ISO_5,3,1,48,55,1637422708
3817,16,Jits_ISO_5,0,1,48,49,1637895084
3817,16,Jits_ISO_5,1,5,63,98,1637897596
3817,16,Jits_ISO_5,2,5,56,103,1637937456
3817,16,Jits_ISO_5,3,5,80,127,1637957992
3817,16,Jits_ISO_5,0,5,63,98,1638398236
3817,16,Jits_ISO_5,1,1,48,41,1638406980
3817,16,Jits_ISO_5,2,5,56,103,1638457868
3817,16,Jits_ISO_5,3,5,80,127,1638460936
3817,16,Jits_ISO_5,0,5,56,103,1638868376
3817,16,Jits_ISO_5,1,5,80,127,1638887788
3817,16,Jits_ISO_5,2,5,63,98,1638927872
3817,16,Jits_ISO_5,3,1,48,49,1638930696
3817,16,Jits_ISO_5,0,5,56,103,1639397936
3817,16,Jits_ISO_5,1,5,63,98,1639418172
3817,16,Jits_ISO_5,2,5,80,127,1639427320
3817,16,Jits_ISO_5,3,1,48,47,1639428284
3817,16,Jits_ISO_5,0,5,80,127,1639867864
3817,16,Jits_ISO_5,1,5,56,103,1639897316
3817,16,Jits_ISO_5,2,1,48,49,1639900208
3817,16,Jits_ISO_5,3,5,63,98,1639938292
3817,16,Jits_ISO_5,0,5,80,127,1640377944
3817,16,Jits_ISO_5,1,5,56,103,1640398108
3817,16,Jits_ISO_5,2,1,48,28,1640410516
3817,16,Jits_ISO_5,3,5,63,98,1640457588
3817,16,Jits_ISO_5,0,5,56,103,1640887880
3817,16,Jits_ISO_5,1,5,80,127,1640908040
3817,16,Jits_ISO_5,2,1,48,44,1640913328
3817,16,Jits_ISO_5,3,5,63,98,1640967968
3817,16,Jits_ISO_5,0,5,80,127,1641367996
3817,16,Jits_ISO_5,1,5,56,103,1641378120
3817,16,Jits_ISO_5,2,1,48,48,1641416312
3817,16,Jits_ISO_5,3,5,63,98,1641418048
3817,16,Jits_ISO_5,0,5,63,98,1641867592
3817,16,Jits_ISO_5,1,1,48,48,1641897460
3817,16,Jits_ISO_5,2,5,56,103,1641907744
3817,16,Jits_ISO_5,3,5,80,127,1641910736
3817,16,Jits_ISO_5,0,5,63,98,1642387764
3817,16,Jits_ISO_5,1,1,48,42,1642420552
3817,16,Jits_ISO_5,2,5,80,127,1642427696
3817,16,Jits_ISO_5,3,5,56,103,1642457592
3817,16,Jits_ISO_5,0,5,56,103,1642878208
3817,16,Jits_ISO_5,1,5,63,98,1642887804
3817,16,Jits_ISO_5,2,5,80,127,1642918300
3817,16,Jits_ISO_5,3,1,48,48,1642927864
3817,16,Jits_ISO_5,0,5,80,127,1643367688
3817,16,Jits_ISO_5,1,1,48,49,1643425188
3817,16,Jits_ISO_5,2,5,63,98,1643437288
3817,16,Jits_ISO_5,3,5,56,103,1643447632
3817,16,Jits_ISO_5,0,5,63,98,1643867656
3817,16,Jits_ISO_5,1,1,48,49,1643922916
3817,16,Jits_ISO_5,2,5,56,103,1643938300
3817,16,Jits_ISO_5,3,5,80,127,1643948644
3817,16,Jits_ISO_5,0,5,63,98,1644368140
3817,16,Jits_ISO_5,1,5,56,103,1644387624
3817,16,Jits_ISO_5,2,1,48,46,1644421080
3817,16,Jits_ISO_5,3,5,80,127,1644427776
3817,16,Jits_ISO_5,0,5,56,103,1644878180
3817,16,Jits_ISO_5,1,5,63,98,1644888748
3817,16,Jits_ISO_5,2,1,48,49,1644907832
3817,16,Jits_ISO_5,3,5,80,127,1644968160
3817,16,Jits_ISO_5,0,5,63,98,1645367784
3817,16,Jits_ISO_5,1,5,56,103,1645398456
3817,16,Jits_ISO_5,2,1,48,48,1645415968
3817,16,Jits_ISO_5,3,5,80,127,1645438460
3817,16,Jits_ISO_5,0,5,56,103,1645868636
3817,16,Jits_ISO_5,1,5,63,98,1645908748
3817,16,Jits_ISO_5,2,1,48,46,1645917196
3817,16,Jits_ISO_5,3,5,80,127,1645948156
3817,16,Jits_ISO_5,0,5,80,127,1646378496
3817,16,Jits_ISO_5,1,1,48,46,1646401772
3817,16,Jits_ISO_5,2,5,56,103,1646458088
3817,16,Jits_ISO_5,3,5,63,98,1646467532
3817,16,Jits_ISO_5,0,5,56,103,1646918024
3817,16,Jits_ISO_5,1,5,63,98,1646921092
3817,16,Jits_ISO_5,2,5,80,127,1646928244
3817,16,Jits_ISO_5,3,1,48,40,1646930992
3817,16,Jits_ISO_5,0,5,56,103,1647438532
3817,16,Jits_ISO_5,1,1,48,41,1647447132
3817,16,Jits_ISO_5,2,5,63,98,1647457716
3817,16,Jits_ISO_5,3,5,80,127,1647467912
3817,16,Jits_ISO_5,0,5,63,98,1647897956
3817,16,Jits_ISO_5,1,5,80,127,1647908224
3817,16,Jits_ISO_5,2,5,56,103,1647927636
3817,16,Jits_ISO_5,3,1,48,52,1647959916
3817,16,Jits_ISO_5,0,5,63,98,1648397612
3817,16,Jits_ISO_5,1,1,48,54,1648450472
3817,16,Jits_ISO_5,2,5,56,103,1648477416
3817,16,Jits_ISO_5,3,5,80,127,1648480412
3817,16,Jits_ISO_5,0,5,63,98,1648898456
3817,16,Jits_ISO_5,1,5,56,103,1648917944
3817,16,Jits_ISO_5,2,5,80,127,1648947544
3817,16,Jits_ISO_5,3,1,48,55,1648952756
3817,16,Jits_ISO_5,0,5,56,103,1649398336
3817,16,Jits_ISO_5,1,5,63,98,1649417596
3817,16,Jits_ISO_5,2,5,80,127,1649427940
3817,16,Jits_ISO_5,3,1,48,56,1649446348
3817,16,Jits_ISO_5,0,5,56,103,1649927528
3817,16,Jits_ISO_5,1,5,63,98,1649958472
3817,16,Jits_ISO_5,2,1,48,53,1649959452
3817,16,Jits_ISO_5,3,5,80,127,1649963028
3817,16,Jits_ISO_5,0,5,56,103,1650388532
3817,16,Jits_ISO_5,1,5,63,98,1650428468
3817,16,Jits_ISO_5,2,1,48,41,1650449424
3817,16,Jits_ISO_5,3,5,80,127,1650487580
3817,16,Jits_ISO_5,0,5,56,103,1650907460
3817,16,Jits_ISO_5,1,5,63,98,1650917656
3817,16,Jits_ISO_5,2,1,48,52,1650936140
3817,16,Jits_ISO_5,3,5,80,127,1650978332
3817,16,Jits_ISO_5,0,5,56,103,1651408328
3817,16,Jits_ISO_5,1,1,48,52,1651422832
3817,16,Jits_ISO_5,2,5,80,127,1651427660
3817,16,Jits_ISO_5,3,5,63,98,1651458384
3817,16,Jits_ISO_5,0,5,80,127,1651908004
3817,16,Jits_ISO_5,1,5,56,103,1651918124
3817,16,Jits_ISO_5,2,5,63,98,1651937684
3817,16,Jits_ISO_5,3,1,48,41,1651966876
3817,16,Jits_ISO_5,0,5,63,98,1652397408
3817,16,Jits_ISO_5,1,1,48,36,1652428472
3817,16,Jits_ISO_5,2,5,80,127,1652478540
3817,16,Jits_ISO_5,3,5,56,103,1652487464
3817,16,Jits_ISO_5,0,5,80,127,1652957528
3817,16,Jits_ISO_5,1,1,48,27,1652969716
3817,16,Jits_ISO_5,2,5,56,103,1652978200
3817,16,Jits_ISO_5,3,5,63,98,1652981120
3817,16,Jits_ISO_5,0,5,63,98,1653427524
3817,16,Jits_ISO_5,1,5,80,127,1653430816
3817,16,Jits_ISO_5,2,1,48,50,1653477548
3817,16,Jits_ISO_5,3,5,56,103,1653488276
3817,16,Jits_ISO_5,0,5,56,103,1653907844
3817,16,Jits_ISO_5,1,5,80,127,1653918192
3817,16,Jits_ISO_5,2,1,48,50,1653935996
3817,16,Jits_ISO_5,3,5,63,98,1653958048
3817,16,Jits_ISO_5,0,5,56,103,1654388336
3817,16,Jits_ISO_5,1,1,48,46,1654444344
3817,16,Jits_ISO_5,2,5,63,98,1654447524
3817,16,Jits_ISO_5,3,5,80,127,1654457572
3817,16,Jits_ISO_5,0,5,63,98,1654898200
3817,16,Jits_ISO_5,1,5,80,127,1654937840
3817,16,Jits_ISO_5,2,5,56,103,1654977852
3817,16,Jits_ISO_5,3,1,48,50,1654981720
3817,16,Jits_ISO_5,0,5,56,103,1655397712
3817,16,Jits_ISO_5,1,5,63,98,1655477580
3817,16,Jits_ISO_5,2,1,48,36,1655478560
3817,16,Jits_ISO_5,3,5,80,127,1655482432
3817,16,Jits_ISO_5,0,9999,9999,9999,1596095572
3817,16,Jits_ISO_5,1,9999,9999,9999,1596595292
3817,16,Jits_ISO_5,2,9999,9999,9999,1597095988
3817,16,Jits_ISO_5,3,9999,9999,9999,1597595720
3817,16,Jits_ISO_5,4,9999,9999,9999,1598095460
3817,16,Jits_ISO_5,5,9999,9999,9999,1598595124
3817,16,Jits_ISO_5,6,9999,9999,9999,1599095900
3817,16,Jits_ISO_5,7,9999,9999,9999,1599595576
3817,16,Jits_ISO_5,8,9999,9999,9999,1600095324
3817,16,Jits_ISO_5,9,9999,9999,9999,1600596044
3817,16,Jits_ISO_5,10,9999,9999,9999,1601095764
3817,16,Jits_ISO_5,11,9999,9999,9999,1601595504
3817,16,Jits_ISO_5,12,9999,9999,9999,1602095160
3817,16,Jits_ISO_5,13,9999,9999,9999,1602595936
3817,16,Jits_ISO_5,14,9999,9999,9999,1603095664
3817,16,Jits_ISO_5,15,9999,9999,9999,1603595336
3817,16,Jits_ISO_5,16,9999,9999,9999,1604096056
3817,16,Jits_ISO_5,17,9999,9999,9999,1604606048
3817,16,Jits_ISO_5,18,9999,9999,9999,1605105724
3817,16,Jits_ISO_5,19,9999,9999,9999,1605605472
3817,16,Jits_ISO_5,20,9999,9999,9999,1606105204
3817,16,Jits_ISO_5,21,9999,9999,9999,1606605908
3817,16,Jits_ISO_5,22,9999,9999,9999,1607105652
3817,16,Jits_ISO_5,23,9999,9999,9999,1607605324
3817,16,Jits_ISO_5,24,9999,9999,9999,1608106048
3817,16,Jits_ISO_5,25,9999,9999,9999,1608605784
3817,16,Jits_ISO_5,26,9999,9999,9999,1609105460
3817,16,Jits_ISO_5,27,9999,9999,9999,1609605180
3817,16,Jits_ISO_5,28,9999,9999,9999,1610105976
3817,16,Jits_ISO_5,29,9999,9999,9999,1610605648
3817,16,Jits_ISO_5,30,9999,9999,9999,1611105392
3817,16,Jits_ISO_5,31,9999,9999,9999,1611606112
3817,16,Jits_ISO_5,32,9999,9999,9999,1612116044
3817,16,Jits_ISO_5,33,9999,9999,9999,1612615768
3817,16,Jits_ISO_5,34,9999,9999,9999,1613115456
3817,16,Jits_ISO_5,35,9999,9999,9999,1613615176
3817,16,Jits_ISO_5,36,9999,9999,9999,1614115944
3817,16,Jits_ISO_5,37,9999,9999,9999,1614615612
3817,16,Jits_ISO_5,38,9999,9999,9999,1615115344
3817,16,Jits_ISO_5,39,9999,9999,9999,1615616056
3817,16,Jits_ISO_5,40,9999,9999,9999,1616126052
3817,16,Jits_ISO_5,41,9999,9999,9999,1616625784
3817,16,Jits_ISO_5,42,9999,9999,9999,1617125440
3817,16,Jits_ISO_5,43,9999,9999,9999,1617625168
3817,16,Jits_ISO_5,44,9999,9999,9999,1618125944
3817,16,Jits_ISO_5,45,9999,9999,9999,1618625616
3817,16,Jits_ISO_5,46,9999,9999,9999,1619125348
3817,16,Jits_ISO_5,47,9999,9999,9999,1619626064
3817,16,Jits_ISO_5,48,9999,9999,9999,1620125796
3817,16,Jits_ISO_5,49,9999,9999,9999,1620625476
3817,16,Jits_ISO_5,50,9999,9999,9999,1621125196
3817,16,Jits_ISO_5,51,9999,9999,9999,1621625920
3817,16,Jits_ISO_5,52,9999,9999,9999,1622125644
3817,16,Jits_ISO_5,53,9999,9999,9999,1622625396
3817,16,Jits_ISO_5,54,9999,9999,9999,1623126100
3817,16,Jits_ISO_5,55,9999,9999,9999,1623636040
3817,16,Jits_ISO_5,56,9999,9999,9999,1624135752
3817,16,Jits_ISO_5,57,9999,9999,9999,1624635460
3817,16,Jits_ISO_5,58,9999,9999,9999,1625135212
3817,16,Jits_ISO_5,59,9999,9999,9999,1625635920
3817,16,Jits_ISO_5,60,9999,9999,9999,1626135668
3817,16,Jits_ISO_5,61,9999,9999,9999,1626635320
3817,16,Jits_ISO_5,62,9999,9999,9999,1627136116
3817,16,Jits_ISO_5,63,9999,9999,9999,1627646048
3817,16,Jits_ISO_5,64,9999,9999,9999,1628145784
3817,16,Jits_ISO_5,65,9999,9999,9999,1628645452
3817,16,Jits_ISO_5,66,9999,9999,9999,1629145204
3817,16,Jits_ISO_5,67,9999,9999,9999,1629645908
3817,16,Jits_ISO_5,68,9999,9999,9999,1630145584
3817,16,Jits_ISO_5,69,9999,9999,9999,1630645340
3817,16,Jits_ISO_5,70,9999,9999,9999,1631146108
3817,16,Jits_ISO_5,71,9999,9999,9999,1631645780
3817,16,Jits_ISO_5,72,9999,9999,9999,1632145528
3817,16,Jits_ISO_5,73,9999,9999,9999,1632645188
3817,16,Jits_ISO_5,74,9999,9999,9999,1633145908
3817,16,Jits_ISO_5,75,9999,9999,9999,1633645640
3817,16,Jits_ISO_5,76,9999,9999,9999,1634145392
3817,16,Jits_ISO_5,77,9999,9999,9999,1634646100
3817,16,Jits_ISO_5,78,9999,9999,9999,1635156036
3817,16,Jits_ISO_5,79,9999,9999,9999,1635655784
3817,16,Jits_ISO_5,80,9999,9999,9999,1636155488
3817,16,Jits_ISO_5,81,9999,9999,9999,1636655220
3817,16,Jits_ISO_5,82,9999,9999,9999,1637155940
3817,16,Jits_ISO_5,83,9999,9999,9999,1637655672
3817,16,Jits_ISO_5,84,9999,9999,9999,1638155352
3817,16,Jits_ISO_5,85,9999,9999,9999,1638656052
3817,16,Jits_ISO_5,86,9999,9999,9999,1639166052
3817,16,Jits_ISO_5,87,9999,9999,9999,1639665720
3817,16,Jits_ISO_5,88,9999,9999,9999,1640165464
3817,16,Jits_ISO_5,89,9999,9999,9999,1640665212
3817,16,Jits_ISO_5,90,9999,9999,9999,1641165928
3817,16,Jits_ISO_5,91,9999,9999,9999,1641665596
3817,16,Jits_ISO_5,92,9999,9999,9999,1642165332
3817,16,Jits_ISO_5,93,9999,9999,9999,1642666040
3817,16,Jits_ISO_5,94,9999,9999,9999,1643165768
3817,16,Jits_ISO_5,95,9999,9999,9999,1643665516
3817,16,Jits_ISO_5,96,9999,9999,9999,1644165188
3817,16,Jits_ISO_5,97,9999,9999,9999,1644665964
3817,16,Jits_ISO_5,98,9999,9999,9999,1645165668
3817,16,Jits_ISO_5,99,9999,9999,9999,1645665340
3817,16,Jits_ISO_5,100,9999,9999,9999,1646166116
3817,16,Jits_ISO_5,101,9999,9999,9999,1646676052
3817,16,Jits_ISO_5,102,9999,9999,9999,1647175764
3817,16,Jits_ISO_5,103,9999,9999,9999,1647675508
3817,16,Jits_ISO_5,104,9999,9999,9999,1648175176
3817,16,Jits_ISO_5,105,9999,9999,9999,1648675948
3817,16,Jits_ISO_5,106,9999,9999,9999,1649175608
3817,16,Jits_ISO_5,107,9999,9999,9999,1649675336
3817,16,Jits_ISO_5,108,9999,9999,9999,1650176052
3817,16,Jits_ISO_5,109,9999,9999,9999,1650686060
3817,16,Jits_ISO_5,110,9999,9999,9999,1651185732
3817,16,Jits_ISO_5,111,9999,9999,9999,1651685480
3817,16,Jits_ISO_5,112,9999,9999,9999,1652185152
3817,16,Jits_ISO_5,113,9999,9999,9999,1652685944
3817,16,Jits_ISO_5,114,9999,9999,9999,1653185600
3817,16,Jits_ISO_5,115,9999,9999,9999,1653685340
3817,16,Jits_ISO_5,116,9999,9999,9999,1654186044
3817,16,Jits_ISO_5,117,9999,9999,9999,1654685792
3817,16,Jits_ISO_5,118,9999,9999,9999,1655185468
3817,16,Jits_ISO_5,119,9999,9999,9999,1655685192
3818,7,Jits_ISO_8,0,5,56,103,1667647780
3818,7,Jits_ISO_8,1,5,63,98,1667650952
3818,7,Jits_ISO_8,2,5,80,127,1667653924
3818,7,Jits_ISO_8,0,1,48,30,1668150060
3818,7,Jits_ISO_8,1,5,56,103,1668447780
3818,7,Jits_ISO_8,2,5,63,98,1668451032
3818,7,Jits_ISO_8,3,5,80,127,1668454000
3818,7,Jits_ISO_8,0,5,80,127,1669187996
3818,7,Jits_ISO_8,1,5,63,98,1669278008
3818,7,Jits_ISO_8,2,5,56,103,1669288276
3818,7,Jits_ISO_8,0,5,56,103,1670008044
3818,7,Jits_ISO_8,1,5,63,98,1670018536
3818,7,Jits_ISO_8,2,1,48,49,1670058148
3818,7,Jits_ISO_8,3,5,80,127,1670107688
3818,7,Jits_ISO_8,0,5,63,98,1670778096
3818,7,Jits_ISO_8,1,5,80,127,1670807920
3818,7,Jits_ISO_8,2,1,48,39,1670813884
3818,7,Jits_ISO_8,3,5,56,103,1670837592
3818,7,Jits_ISO_8,0,5,56,103,1671577876
3818,7,Jits_ISO_8,1,1,48,43,1671585180
3818,7,Jits_ISO_8,2,5,80,127,1671678416
3818,7,Jits_ISO_8,3,5,63,98,1671727708
3818,7,Jits_ISO_8,0,5,56,103,1672377676
3818,7,Jits_ISO_8,1,1,48,47,1672418708
3818,7,Jits_ISO_8,2,5,80,127,1672427872
3818,7,Jits_ISO_8,3,5,63,98,1672467812
3818,7,Jits_ISO_8,0,1,48,47,1673201936
3818,7,Jits_ISO_8,1,5,80,127,1673208032
3818,7,Jits_ISO_8,2,5,63,98,1673237856
3818,7,Jits_ISO_8,3,5,56,103,1673307624
3818,7,Jits_ISO_8,0,1,48,54,1674001424
3818,7,Jits_ISO_8,1,5,63,98,1674037488
3818,7,Jits_ISO_8,2,5,56,103,1674068536
3818,7,Jits_ISO_8,3,5,80,127,1674127788
3818,7,Jits_ISO_8,0,5,56,103,1674777944
3818,7,Jits_ISO_8,1,5,80,127,1674781008
3818,7,Jits_ISO_8,2,1,48,43,1674871508
3818,7,Jits_ISO_8,3,5,63,98,1674897760
3818,7,Jits_ISO_8,0,5,56,103,1675657624
3818,7,Jits_ISO_8,1,1,48,42,1675683512
3818,7,Jits_ISO_8,2,5,80,127,1675697408
3818,7,Jits_ISO_8,3,5,63,98,1675707900
3818,7,Jits_ISO_8,0,5,56,103,1676418392
3818,7,Jits_ISO_8,1,5,80,127,1676437804
3818,7,Jits_ISO_8,2,1,48,44,1676453280
3818,7,Jits_ISO_8,3,5,63,98,1676517740
3818,7,Jits_ISO_8,0,5,80,127,1677207780
3818,7,Jits_ISO_8,1,1,48,40,1677255768
3818,7,Jits_ISO_8,2,5,56,103,1677308396
3818,7,Jits_ISO_8,3,5,63,98,1677317544
3818,7,Jits_ISO_8,0,5,63,98,1677978136
3818,7,Jits_ISO_8,1,5,80,127,1678038380
3818,7,Jits_ISO_8,2,5,56,103,1678047676
3818,7,Jits_ISO_8,3,1,48,37,1678076348
3818,7,Jits_ISO_8,0,5,56,103,1678777764
3818,7,Jits_ISO_8,1,5,63,98,1678848344
3818,7,Jits_ISO_8,2,5,80,127,1678851856
3818,7,Jits_ISO_8,3,1,48,43,1678856112
3818,7,Jits_ISO_8,0,5,63,98,1679608340
3818,7,Jits_ISO_8,1,1,48,46,1679634228
3818,7,Jits_ISO_8,2,5,56,103,1679658460
3818,7,Jits_ISO_8,3,5,80,127,1679661380
3818,7,Jits_ISO_8,0,5,56,103,1680367948
3818,7,Jits_ISO_8,1,5,80,127,1680371240
3818,7,Jits_ISO_8,2,1,48,45,1680401112
3818,7,Jits_ISO_8,3,5,63,98,1680458224
3818,7,Jits_ISO_8,0,1,48,49,1681201264
3818,7,Jits_ISO_8,1,5,63,98,1681207660
3818,7,Jits_ISO_8,2,5,56,103,1681297880
3818,7,Jits_ISO_8,3,5,80,127,1681327332
3818,7,Jits_ISO_8,0,5,56,103,1681998336
3818,7,Jits_ISO_8,1,1,48,57,1682087176
3818,7,Jits_ISO_8,2,5,63,98,1682097684
3818,7,Jits_ISO_8,3,5,80,127,1682128184
3818,7,Jits_ISO_8,0,5,63,98,1682818368
3818,7,Jits_ISO_8,1,5,56,103,1682827592
3818,7,Jits_ISO_8,2,1,48,55,1682909228
3818,7,Jits_ISO_8,3,5,80,127,1682917868
3818,7,Jits_ISO_8,0,5,63,98,1683637632
3818,7,Jits_ISO_8,1,1,48,50,1683667652
3818,7,Jits_ISO_8,2,5,56,103,1683717496
3818,7,Jits_ISO_8,3,5,80,127,1683720492
3818,7,Jits_ISO_8,0,5,80,127,1684397480
3818,7,Jits_ISO_8,1,5,63,98,1684418088
3818,7,Jits_ISO_8,2,5,56,103,1684478180
3818,7,Jits_ISO_8,3,1,48,41,1684495840
3818,7,Jits_ISO_8,0,5,56,103,1685238032
3818,7,Jits_ISO_8,1,1,48,54,1685242124
3818,7,Jits_ISO_8,2,5,63,98,1685257512
3818,7,Jits_ISO_8,3,5,80,127,1685260728
3818,7,Jits_ISO_8,0,1,48,64,1685977136
3818,7,Jits_ISO_8,1,5,63,98,1685978848
3818,7,Jits_ISO_8,2,5,80,127,1686058272
3818,7,Jits_ISO_8,3,5,56,103,1686067496
3818,7,Jits_ISO_8,0,1,48,53,1686795224
3818,7,Jits_ISO_8,1,5,63,98,1686797884
3818,7,Jits_ISO_8,2,5,56,103,1686818120
3818,7,Jits_ISO_8,3,5,80,127,1686868348
3818,7,Jits_ISO_8,0,1,48,41,1687547740
3818,7,Jits_ISO_8,1,5,80,127,1687597368
3818,7,Jits_ISO_8,2,5,63,98,1687638528
3818,7,Jits_ISO_8,3,5,56,103,1687657848
3818,7,Jits_ISO_8,0,1,48,56,1688219252
3818,7,Jits_ISO_8,1,5,56,103,1688437992
3818,7,Jits_ISO_8,2,5,63,98,1688448488
3818,7,Jits_ISO_8,3,5,80,127,1688467972
3818,7,Jits_ISO_8,0,1,48,47,1688962236
3818,7,Jits_ISO_8,1,5,56,103,1689168168
3818,7,Jits_ISO_8,2,5,63,98,1689258452
3818,7,Jits_ISO_8,3,5,80,127,1689317724
3818,7,Jits_ISO_8,0,1,48,46,1689788476
3818,7,Jits_ISO_8,1,5,80,127,1689997772
3818,7,Jits_ISO_8,2,5,56,103,1690007820
3818,7,Jits_ISO_8,3,5,63,98,1690077500
3818,7,Jits_ISO_8,0,1,48,31,1690603676
3818,7,Jits_ISO_8,1,5,63,98,1690828116
3818,7,Jits_ISO_8,2,5,80,127,1690918252
3818,7,Jits_ISO_8,3,5,56,103,1690927624
3818,7,Jits_ISO_8,0,5,63,98,1691567392
3818,7,Jits_ISO_8,1,5,80,127,1691617892
3818,7,Jits_ISO_8,2,5,56,103,1691677984
3818,7,Jits_ISO_8,3,1,48,54,1691694052
3818,7,Jits_ISO_8,0,5,56,103,1692397888
3818,7,Jits_ISO_8,1,1,48,37,1692431796
3818,7,Jits_ISO_8,2,5,80,127,1692448008
3818,7,Jits_ISO_8,3,5,63,98,1692467644
3818,7,Jits_ISO_8,0,5,56,103,1693168088
3818,7,Jits_ISO_8,1,5,80,127,1693228256
3818,7,Jits_ISO_8,2,1,48,37,1693254668
3818,7,Jits_ISO_8,3,5,63,98,1693297952
3818,7,Jits_ISO_8,0,5,56,103,1693967732
3818,7,Jits_ISO_8,1,5,80,127,1693997560
3818,7,Jits_ISO_8,2,5,63,98,1694028084
3818,7,Jits_ISO_8,3,1,48,43,1694037428
3818,7,Jits_ISO_8,0,5,56,103,1694808604
3818,7,Jits_ISO_8,1,1,48,44,1694825504
3818,7,Jits_ISO_8,2,5,80,127,1694827864
3818,7,Jits_ISO_8,3,5,63,98,1694888400
3818,7,Jits_ISO_8,0,1,48,36,1695686604
3818,7,Jits_ISO_8,1,5,80,127,1695688488
3818,7,Jits_ISO_8,2,5,56,103,1695698460
3818,7,Jits_ISO_8,3,5,63,98,1695707760
3818,7,Jits_ISO_8,0,5,56,103,1696447904
3818,7,Jits_ISO_8,1,1,48,51,1696487696
3818,7,Jits_ISO_8,2,5,80,127,1696489484
3818,7,Jits_ISO_8,3,5,63,98,1696517588
3818,7,Jits_ISO_8,0,5,56,103,1697217888
3818,7,Jits_ISO_8,1,5,63,98,1697247488
3818,7,Jits_ISO_8,2,5,80,127,1697287724
3818,7,Jits_ISO_8,3,1,48,44,1697290620
3818,7,Jits_ISO_8,0,5,80,127,1697967712
3818,7,Jits_ISO_8,1,5,63,98,1698017768
3818,7,Jits_ISO_8,2,5,56,103,1698038152
3818,7,Jits_ISO_8,3,1,48,44,1698040744
3818,7,Jits_ISO_8,0,1,48,44,1698781176
3818,7,Jits_ISO_8,1,5,56,103,1698797844
3818,7,Jits_ISO_8,2,5,80,127,1698867676
3818,7,Jits_ISO_8,3,5,63,98,1698928000
3818,7,Jits_ISO_8,0,5,80,127,1699597636
3818,7,Jits_ISO_8,1,1,48,48,1699638744
3818,7,Jits_ISO_8,2,5,63,98,1699687940
3818,7,Jits_ISO_8,3,5,56,103,1699708548
3818,7,Jits_ISO_8,0,5,63,98,1700418040
3818,7,Jits_ISO_8,1,5,56,103,1700438524
3818,7,Jits_ISO_8,2,5,80,127,1700478536
3818,7,Jits_ISO_8,3,1,48,46,1700480984
3818,7,Jits_ISO_8,0,5,80,127,1701177740
3818,7,Jits_ISO_8,1,5,63,98,1701198372
3818,7,Jits_ISO_8,2,1,48,54,1701227492
3818,7,Jits_ISO_8,3,5,56,103,1701277936
3818,7,Jits_ISO_8,0,5,63,98,1701968412
3818,7,Jits_ISO_8,1,1,48,51,1702007952
3818,7,Jits_ISO_8,2,5,56,103,1702077948
3818,7,Jits_ISO_8,3,5,80,127,1702080864
3818,7,Jits_ISO_8,0,5,63,98,1702787368
3818,7,Jits_ISO_8,1,5,56,103,1702797636
3818,7,Jits_ISO_8,2,5,80,127,1702800704
3818,7,Jits_ISO_8,3,1,48,52,1702842180
3818,7,Jits_ISO_8,0,5,56,103,1703567804
3818,7,Jits_ISO_8,1,1,48,40,1703631604
3818,7,Jits_ISO_8,2,5,80,127,1703687528
3818,7,Jits_ISO_8,3,5,63,98,1703727448
3818,7,Jits_ISO_8,0,5,56,103,1704387908
3818,7,Jits_ISO_8,1,5,80,127,1704467780
3818,7,Jits_ISO_8,2,5,63,98,1704488388
3818,7,Jits_ISO_8,3,1,48,38,1704503040
3818,7,Jits_ISO_8,0,5,56,103,1705187552
3818,7,Jits_ISO_8,1,5,63,98,1705298544
3818,7,Jits_ISO_8,2,5,80,127,1705301752
3818,7,Jits_ISO_8,3,1,48,47,1705313644
3818,7,Jits_ISO_8,0,5,56,103,1706018360
3818,7,Jits_ISO_8,1,5,80,127,1706047888
3818,7,Jits_ISO_8,2,5,63,98,1706068300
3818,7,Jits_ISO_8,3,1,48,48,1706119960
3818,7,Jits_ISO_8,0,5,63,98,1706797552
3818,7,Jits_ISO_8,1,5,56,103,1706807600
3818,7,Jits_ISO_8,2,5,80,127,1706817796
3818,7,Jits_ISO_8,3,1,48,58,1706923564
3818,7,Jits_ISO_8,0,5,80,127,1707587892
3818,7,Jits_ISO_8,1,1,48,50,1707624068
3818,7,Jits_ISO_8,2,5,56,103,1707638260
3818,7,Jits_ISO_8,3,5,63,98,1707678200
3818,7,Jits_ISO_8,0,5,80,127,1708408164
3818,7,Jits_ISO_8,1,5,63,98,1708427576
3818,7,Jits_ISO_8,2,1,48,46,1708445000
3818,7,Jits_ISO_8,3,5,56,103,1708477700
3818,7,Jits_ISO_8,0,5,80,127,1709218076
3818,7,Jits_ISO_8,1,5,56,103,1709247976
3818,7,Jits_ISO_8,2,1,48,44,1709259340
3818,7,Jits_ISO_8,3,5,63,98,1709317504
3818,7,Jits_ISO_8,0,5,56,103,1710068300
3818,7,Jits_ISO_8,1,5,80,127,1710078276
3818,7,Jits_ISO_8,2,1,48,46,1710097956
3818,7,Jits_ISO_8,3,5,63,98,1710118208
3818,7,Jits_ISO_8,0,5,56,103,1710777676
3818,7,Jits_ISO_8,1,5,63,98,1710798060
3818,7,Jits_ISO_8,2,5,80,127,1710867888
3818,7,Jits_ISO_8,3,1,48,56,1710912208
3818,7,Jits_ISO_8,0,1,48,63,1711567924
3818,7,Jits_ISO_8,1,5,63,98,1711598212
3818,7,Jits_ISO_8,2,5,80,127,1711658308
3818,7,Jits_ISO_8,3,5,56,103,1711678000
3818,7,Jits_ISO_8,0,5,80,127,1712387368
3818,7,Jits_ISO_8,1,1,48,54,1712393700
3818,7,Jits_ISO_8,2,5,56,103,1712418156
3818,7,Jits_ISO_8,3,5,63,98,1712447908
3818,7,Jits_ISO_8,0,5,56,103,1713188132
3818,7,Jits_ISO_8,1,1,48,44,1713230832
3818,7,Jits_ISO_8,2,5,63,98,1713247720
3818,7,Jits_ISO_8,3,5,80,127,1713307960
3818,7,Jits_ISO_8,0,5,80,127,1714008484
3818,7,Jits_ISO_8,1,5,56,103,1714027972
3818,7,Jits_ISO_8,2,1,48,29,1714094988
3818,7,Jits_ISO_8,3,5,63,98,1714097648
3818,7,Jits_ISO_8,0,5,80,127,1714808136
3818,7,Jits_ISO_8,1,5,63,98,1714827920
3818,7,Jits_ISO_8,2,5,56,103,1714858344
3818,7,Jits_ISO_8,3,1,48,53,1714903784
3818,7,Jits_ISO_8,0,5,80,127,1715597888
3818,7,Jits_ISO_8,1,5,63,98,1715618052
3818,7,Jits_ISO_8,2,5,56,103,1715677692
3818,7,Jits_ISO_8,3,1,48,46,1715680212
3818,7,Jits_ISO_8,0,5,80,127,1716397388
3818,7,Jits_ISO_8,1,1,48,52,1716490412
3818,7,Jits_ISO_8,2,5,56,103,1716497856
3818,7,Jits_ISO_8,3,5,63,98,1716527532
3818,7,Jits_ISO_8,0,5,63,98,1717187976
3818,7,Jits_ISO_8,1,5,80,127,1717238104
3818,7,Jits_ISO_8,2,5,56,103,1717257888
3818,7,Jits_ISO_8,3,1,48,59,1717272392
3818,7,Jits_ISO_8,0,1,48,53,1718013788
3818,7,Jits_ISO_8,1,5,80,127,1718027608
3818,7,Jits_ISO_8,2,5,56,103,1718058404
3818,7,Jits_ISO_8,3,5,63,98,1718061620
3818,7,Jits_ISO_8,0,1,48,54,1718776336
3818,7,Jits_ISO_8,1,5,63,98,1718857976
3818,7,Jits_ISO_8,2,5,56,103,1718897904
3818,7,Jits_ISO_8,3,5,80,127,1718917688
3818,7,Jits_ISO_8,0,5,80,127,1719597288
3818,7,Jits_ISO_8,1,5,63,98,1719678304
3818,7,Jits_ISO_8,2,1,48,56,1719691316
3818,7,Jits_ISO_8,3,5,56,103,1719718164
3818,7,Jits_ISO_8,0,5,63,98,1720417788
3818,7,Jits_ISO_8,1,1,48,57,1720463388
3818,7,Jits_ISO_8,2,5,80,127,1720497804
3818,7,Jits_ISO_8,3,5,56,103,1720517968
3818,7,Jits_ISO_8,0,5,56,103,1721258484
3818,7,Jits_ISO_8,1,5,63,98,1721267632
3818,7,Jits_ISO_8,2,1,48,62,1721278548
3818,7,Jits_ISO_8,3,5,80,127,1721307640
3818,7,Jits_ISO_8,0,5,56,103,1721978340
3818,7,Jits_ISO_8,1,5,80,127,1721981336
3818,7,Jits_ISO_8,2,1,48,53,1722087248
3818,7,Jits_ISO_8,3,5,63,98,1722117616
3818,7,Jits_ISO_8,0,5,56,103,1722767864
3818,7,Jits_ISO_8,1,5,63,98,1722857776
3818,7,Jits_ISO_8,2,1,48,58,1722903516
3818,7,Jits_ISO_8,3,5,80,127,1722927748
3818,7,Jits_ISO_8,0,5,63,98,1723648504
3818,7,Jits_ISO_8,1,5,80,127,1723651796
3818,7,Jits_ISO_8,2,1,48,67,1723697480
3818,7,Jits_ISO_8,3,5,56,103,1723707616
3818,7,Jits_ISO_8,0,5,80,127,1724487992
3818,7,Jits_ISO_8,1,5,56,103,1724507704
3818,7,Jits_ISO_8,2,5,63,98,1724517676
3818,7,Jits_ISO_8,3,1,48,58,1724525896
3818,7,Jits_ISO_8,0,5,56,103,1725197640
3818,7,Jits_ISO_8,1,5,63,98,1725207912
3818,7,Jits_ISO_8,2,5,80,127,1725277540
3818,7,Jits_ISO_8,3,1,48,57,1725369508
3818,7,Jits_ISO_8,0,5,80,127,1725997436
3818,7,Jits_ISO_8,1,5,56,103,1726047592
3818,7,Jits_ISO_8,2,5,63,98,1726097868
3818,7,Jits_ISO_8,3,1,48,55,1726129976
3818,7,Jits_ISO_8,0,5,56,103,1726878104
3818,7,Jits_ISO_8,1,5,63,98,1726888596
3818,7,Jits_ISO_8,2,1,48,61,1726918920
3818,7,Jits_ISO_8,3,5,80,127,1726928452
3818,7,Jits_ISO_8,0,5,56,103,1727618344
3818,7,Jits_ISO_8,1,5,63,98,1727658356
3818,7,Jits_ISO_8,2,1,48,62,1727693536
3818,7,Jits_ISO_8,3,5,80,127,1727707728
3818,7,Jits_ISO_8,0,5,80,127,1728378208
3818,7,Jits_ISO_8,1,5,56,103,1728428488
3818,7,Jits_ISO_8,2,5,63,98,1728447972
3818,7,Jits_ISO_8,3,1,48,53,1728513568
3818,7,Jits_ISO_8,0,5,80,127,1729188192
3818,7,Jits_ISO_8,1,5,63,98,1729247464
3818,7,Jits_ISO_8,2,1,48,54,1729269460
3818,7,Jits_ISO_8,3,5,56,103,1729327400
3818,7,Jits_ISO_8,0,5,80,127,1729967464
3818,7,Jits_ISO_8,1,5,56,103,1730008376
3818,7,Jits_ISO_8,2,5,63,98,1730027864
3818,7,Jits_ISO_8,3,1,48,66,1730094208
3818,7,Jits_ISO_8,0,5,56,103,1730818352
3818,7,Jits_ISO_8,1,5,80,127,1730827576
3818,7,Jits_ISO_8,2,1,48,62,1730832716
3818,7,Jits_ISO_8,3,5,63,98,1730867508
3818,7,Jits_ISO_8,0,1,48,56,1731651008
3818,7,Jits_ISO_8,1,5,56,103,1731687776
3818,7,Jits_ISO_8,2,5,63,98,1731727712
3818,7,Jits_ISO_8,3,5,80,127,1731731372
3818,7,Jits_ISO_8,0,5,63,98,1732378072
3818,7,Jits_ISO_8,1,5,80,127,1732418012
3818,7,Jits_ISO_8,2,1,48,54,1732462660
3818,7,Jits_ISO_8,3,5,56,103,1732487416
3818,7,Jits_ISO_8,0,5,63,98,1733167444
3818,7,Jits_ISO_8,1,5,56,103,1733248388
3818,7,Jits_ISO_8,2,1,48,68,1733267844
3818,7,Jits_ISO_8,3,5,80,127,1733307648
3818,7,Jits_ISO_8,0,5,80,127,1733977440
3818,7,Jits_ISO_8,1,5,63,98,1734027496
3818,7,Jits_ISO_8,2,5,56,103,1734058292
3818,7,Jits_ISO_8,3,1,48,69,1734070628
3818,7,Jits_ISO_8,0,5,56,103,1734768240
3818,7,Jits_ISO_8,1,5,63,98,1734818296
3818,7,Jits_ISO_8,2,5,80,127,1734828416
3818,7,Jits_ISO_8,3,1,48,59,1734895132
3818,7,Jits_ISO_8,0,5,56,103,1735577924
3818,7,Jits_ISO_8,1,1,48,75,1735634380
3818,7,Jits_ISO_8,2,5,63,98,1735687532
3818,7,Jits_ISO_8,3,5,80,127,1735708292
3818,7,Jits_ISO_8,0,5,63,98,1736378020
3818,7,Jits_ISO_8,1,5,80,127,1736428000
3818,7,Jits_ISO_8,2,1,48,73,1736474792
3818,7,Jits_ISO_8,3,5,56,103,1736518052
3818,7,Jits_ISO_8,0,5,63,98,1737168216
3818,7,Jits_ISO_8,1,5,80,127,1737198116
3818,7,Jits_ISO_8,2,1,48,65,1737209252
3818,7,Jits_ISO_8,3,5,56,103,1737288116
3818,7,Jits_ISO_8,0,5,63,98,1737968140
3818,7,Jits_ISO_8,1,5,56,103,1737978336
3818,7,Jits_ISO_8,2,5,80,127,1738077560
3818,7,Jits_ISO_8,3,1,48,77,1738080680
3818,7,Jits_ISO_8,0,1,48,73,1738822952
3818,7,Jits_ISO_8,1,5,63,98,1738868084
3818,7,Jits_ISO_8,2,5,80,127,1738897984
3818,7,Jits_ISO_8,3,5,56,103,1738927424
3818,7,Jits_ISO_8,0,5,80,127,1739688264
3818,7,Jits_ISO_8,1,1,48,42,1739697412
3818,7,Jits_ISO_8,2,5,63,98,1739698972
3818,7,Jits_ISO_8,3,5,56,103,1739728200
3818,7,Jits_ISO_8,0,5,80,127,1740388044
3818,7,Jits_ISO_8,1,5,63,98,1740408132
3818,7,Jits_ISO_8,2,5,56,103,1740458336
3818,7,Jits_ISO_8,3,1,48,83,1740488876
3818,7,Jits_ISO_8,0,5,63,98,1741218260
3818,7,Jits_ISO_8,1,1,48,73,1741244000
3818,7,Jits_ISO_8,2,5,80,127,1741277452
3818,7,Jits_ISO_8,3,5,56,103,1741297984
3818,7,Jits_ISO_8,0,1,48,70,1741957924
3818,7,Jits_ISO_8,1,5,63,98,1741977952
3818,7,Jits_ISO_8,2,5,56,103,1742028008
3818,7,Jits_ISO_8,3,5,80,127,1742038428
3818,7,Jits_ISO_8,0,1,48,77,1742773200
3818,7,Jits_ISO_8,1,5,56,103,1742808524
3818,7,Jits_ISO_8,2,5,80,127,1742817676
3818,7,Jits_ISO_8,3,5,63,98,1742917980
3818,7,Jits_ISO_8,0,1,48,83,1743557716
3818,7,Jits_ISO_8,1,5,80,127,1743568300
3818,7,Jits_ISO_8,2,5,63,98,1743577748
3818,7,Jits_ISO_8,3,5,56,103,1743728048
3818,7,Jits_ISO_8,0,5,63,98,1744378276
3818,7,Jits_ISO_8,1,1,48,72,1744396316
3818,7,Jits_ISO_8,2,5,80,127,1744418060
3818,7,Jits_ISO_8,3,5,56,103,1744498016
3818,7,Jits_ISO_8,0,5,56,103,1745167868
3818,7,Jits_ISO_8,1,1,48,69,1745248264
3818,7,Jits_ISO_8,2,5,80,127,1745268212
3818,7,Jits_ISO_8,3,5,63,98,1745287624
3818,7,Jits_ISO_8,0,1,48,66,1746003240
3818,7,Jits_ISO_8,1,5,80,127,1746027852
3818,7,Jits_ISO_8,2,5,56,103,1746038120
3818,7,Jits_ISO_8,3,5,63,98,1746128384
3818,7,Jits_ISO_8,0,5,56,103,1746827564
3818,7,Jits_ISO_8,1,5,63,98,1746848100
3818,7,Jits_ISO_8,2,1,48,36,1746890400
3818,7,Jits_ISO_8,3,5,80,127,1746928036
3818,7,Jits_ISO_8,0,5,63,98,1747578212
3818,7,Jits_ISO_8,1,1,48,70,1747659852
3818,7,Jits_ISO_8,2,5,56,103,1747668488
3818,7,Jits_ISO_8,3,5,80,127,1747671408
3818,7,Jits_ISO_8,0,5,56,103,1748407584
3818,7,Jits_ISO_8,1,1,48,60,1748428756
3818,7,Jits_ISO_8,2,5,80,127,1748468044
3818,7,Jits_ISO_8,3,5,63,98,1748478612
3818,7,Jits_ISO_8,0,5,80,127,1749257804
3818,7,Jits_ISO_8,1,1,48,77,1749260100
3818,7,Jits_ISO_8,2,5,56,103,1749267920
3818,7,Jits_ISO_8,3,5,63,98,1749270912
3818,7,Jits_ISO_8,0,5,56,103,1750018636
3818,7,Jits_ISO_8,1,5,80,127,1750027488
3818,7,Jits_ISO_8,2,1,48,80,1750035712
3818,7,Jits_ISO_8,3,5,63,98,1750048016
3818,7,Jits_ISO_8,0,5,63,98,1750787564
3818,7,Jits_ISO_8,1,1,48,86,1750800196
3818,7,Jits_ISO_8,2,5,80,127,1750847804
3818,7,Jits_ISO_8,3,5,56,103,1750897952
3818,7,Jits_ISO_8,0,1,48,78,1751618336
3818,7,Jits_ISO_8,1,5,63,98,1751668284
3818,7,Jits_ISO_8,2,5,56,103,1751678332
3818,7,Jits_ISO_8,3,5,80,127,1751727544
3818,7,Jits_ISO_8,0,5,63,98,1752367584
3818,7,Jits_ISO_8,1,5,80,127,1752387820
3818,7,Jits_ISO_8,2,5,56,103,1752398412
3818,7,Jits_ISO_8,3,1,48,59,1752467088
3818,7,Jits_ISO_8,0,5,63,98,1753168428
3818,7,Jits_ISO_8,1,5,80,127,1753171644
3818,7,Jits_ISO_8,2,1,48,69,1753189456
3818,7,Jits_ISO_8,3,5,56,103,1753208360
3818,7,Jits_ISO_8,0,1,48,70,1753964108
3818,7,Jits_ISO_8,1,5,63,98,1754037568
3818,7,Jits_ISO_8,2,5,80,127,1754068500
3818,7,Jits_ISO_8,3,5,56,103,1754077500
3818,7,Jits_ISO_8,0,5,56,103,1754788432
3818,7,Jits_ISO_8,1,1,48,67,1754811180
3818,7,Jits_ISO_8,2,5,80,127,1754818028
3818,7,Jits_ISO_8,3,5,63,98,1754847552
3818,7,Jits_ISO_8,0,1,48,56,1755592384
3818,7,Jits_ISO_8,1,5,63,98,1755688392
3818,7,Jits_ISO_8,2,5,56,103,1755728496
3818,7,Jits_ISO_8,3,5,80,127,1755731556
3818,7,Jits_ISO_8,0,5,80,127,1756387640
3818,7,Jits_ISO_8,1,1,48,21,1756401540
3818,7,Jits_ISO_8,2,5,56,103,1756467504
3818,7,Jits_ISO_8,3,5,63,98,1756517792
3818,7,Jits_ISO_8,0,5,80,127,1757168032
3818,7,Jits_ISO_8,1,5,56,103,1757187372
3818,7,Jits_ISO_8,2,1,48,86,1757232736
3818,7,Jits_ISO_8,3,5,63,98,1757277444
3818,7,Jits_ISO_8,0,5,80,127,1758007536
3818,7,Jits_ISO_8,1,1,48,65,1758026344
3818,7,Jits_ISO_8,2,5,63,98,1758047568
3818,7,Jits_ISO_8,3,5,56,103,1758087508
3818,7,Jits_ISO_8,0,5,63,98,1758777812
3818,7,Jits_ISO_8,1,5,80,127,1758838304
3818,7,Jits_ISO_8,2,1,48,68,1758848468
3818,7,Jits_ISO_8,3,5,56,103,1758867972
3818,7,Jits_ISO_8,0,5,56,103,1759577396
3818,7,Jits_ISO_8,1,5,80,127,1759608344
3818,7,Jits_ISO_8,2,1,48,76,1759615056
3818,7,Jits_ISO_8,3,5,63,98,1759698172
3818,7,Jits_ISO_8,0,5,56,103,1760387308
3818,7,Jits_ISO_8,1,1,48,65,1760474704
3818,7,Jits_ISO_8,2,5,80,127,1760497968
3818,7,Jits_ISO_8,3,5,63,98,1760527940
3818,7,Jits_ISO_8,0,5,56,103,1761238360
3818,7,Jits_ISO_8,1,5,63,98,1761297632
3818,7,Jits_ISO_8,2,5,80,127,1761327604
3818,7,Jits_ISO_8,3,1,48,67,1761329088
3818,7,Jits_ISO_8,0,5,56,103,1762008348
3818,7,Jits_ISO_8,1,5,63,98,1762078032
3818,7,Jits_ISO_8,2,5,80,127,1762097444
3818,7,Jits_ISO_8,3,1,48,68,1762103480
3818,7,Jits_ISO_8,0,5,80,127,1762777352
3818,7,Jits_ISO_8,1,5,63,98,1762798036
3818,7,Jits_ISO_8,2,5,56,103,1762848160
3818,7,Jits_ISO_8,3,1,48,66,1762888916
3818,7,Jits_ISO_8,0,9999,9999,9999,1668045896
3818,7,Jits_ISO_8,1,9999,9999,9999,1668845648
3818,7,Jits_ISO_8,2,9999,9999,9999,1669645380
3818,7,Jits_ISO_8,3,9999,9999,9999,1670445148
3818,7,Jits_ISO_8,4,9999,9999,9999,1671245940
3818,7,Jits_ISO_8,5,9999,9999,9999,1672045656
3818,7,Jits_ISO_8,6,9999,9999,9999,1672845372
3818,7,Jits_ISO_8,7,9999,9999,9999,1673645172
3818,7,Jits_ISO_8,8,9999,9999,9999,1674445936
3818,7,Jits_ISO_8,9,9999,9999,9999,1675245632
3818,7,Jits_ISO_8,10,9999,9999,9999,1676045364
3818,7,Jits_ISO_8,11,9999,9999,9999,1676845160
3818,7,Jits_ISO_8,12,9999,9999,9999,1677645888
3818,7,Jits_ISO_8,13,9999,9999,9999,1678445680
3818,7,Jits_ISO_8,14,9999,9999,9999,1679245376
3818,7,Jits_ISO_8,15,9999,9999,9999,1680045164
3818,7,Jits_ISO_8,16,9999,9999,9999,1680845900
3818,7,Jits_ISO_8,17,9999,9999,9999,1681645628
3818,7,Jits_ISO_8,18,9999,9999,9999,1682445416
3818,7,Jits_ISO_8,19,9999,9999,9999,1683245140
3818,7,Jits_ISO_8,20,9999,9999,9999,1684045916
3818,7,Jits_ISO_8,21,9999,9999,9999,1684845624
3818,7,Jits_ISO_8,22,9999,9999,9999,1685645412
3818,7,Jits_ISO_8,23,9999,9999,9999,1686445132
3818,7,Jits_ISO_8,24,9999,9999,9999,1687245884
3818,7,Jits_ISO_8,25,9999,9999,9999,1688045664
3818,7,Jits_ISO_8,26,9999,9999,9999,1688845376
3818,7,Jits_ISO_8,27,9999,9999,9999,1689645160
3818,7,Jits_ISO_8,28,9999,9999,9999,1690445936
3818,7,Jits_ISO_8,29,9999,9999,9999,1691245648
3818,7,Jits_ISO_8,30,9999,9999,9999,1692045428
3818,7,Jits_ISO_8,31,9999,9999,9999,1692845132
3818,7,Jits_ISO_8,32,9999,9999,9999,1693645900
3818,7,Jits_ISO_8,33,9999,9999,9999,1694445692
3818,7,Jits_ISO_8,34,9999,9999,9999,1695245416
3818,7,Jits_ISO_8,35,9999,9999,9999,1696045144
3818,7,Jits_ISO_8,36,9999,9999,9999,1696845928
3818,7,Jits_ISO_8,37,9999,9999,9999,1697645652
3818,7,Jits_ISO_8,38,9999,9999,9999,1698445372
3818,7,Jits_ISO_8,39,9999,9999,9999,1699245176
3818,7,Jits_ISO_8,40,9999,9999,9999,1700045932
3818,7,Jits_ISO_8,41,9999,9999,9999,1700845656
3818,7,Jits_ISO_8,42,9999,9999,9999,1701645436
3818,7,Jits_ISO_8,43,9999,9999,9999,1702445148
3818,7,Jits_ISO_8,44,9999,9999,9999,1703245912
3818,7,Jits_ISO_8,45,9999,9999,9999,1704045620
3818,7,Jits_ISO_8,46,9999,9999,9999,1704845416
3818,7,Jits_ISO_8,47,9999,9999,9999,1705645136
3818,7,Jits_ISO_8,48,9999,9999,9999,1706445904
3818,7,Jits_ISO_8,49,9999,9999,9999,1707245620
3818,7,Jits_ISO_8,50,9999,9999,9999,1708045400
3818,7,Jits_ISO_8,51,9999,9999,9999,1708845124
3818,7,Jits_ISO_8,52,9999,9999,9999,1709645924
3818,7,Jits_ISO_8,53,9999,9999,9999,1710445652
3818,7,Jits_ISO_8,54,9999,9999,9999,1711245372
3818,7,Jits_ISO_8,55,9999,9999,9999,1712045168
3818,7,Jits_ISO_8,56,9999,9999,9999,1712845920
3818,7,Jits_ISO_8,57,9999,9999,9999,1713645644
3818,7,Jits_ISO_8,58,9999,9999,9999,1714445372
3818,7,Jits_ISO_8,59,9999,9999,9999,1715245164
3818,7,Jits_ISO_8,60,9999,9999,9999,1716045884
3818,7,Jits_ISO_8,61,9999,9999,9999,1716845688
3818,7,Jits_ISO_8,62,9999,9999,9999,1717645408
3818,7,Jits_ISO_8,63,9999,9999,9999,1718445108
3818,7,Jits_ISO_8,64,9999,9999,9999,1719245948
3818,7,Jits_ISO_8,65,9999,9999,9999,1720045656
3818,7,Jits_ISO_8,66,9999,9999,9999,1720845388
3818,7,Jits_ISO_8,67,9999,9999,9999,1721645176
3818,7,Jits_ISO_8,68,9999,9999,9999,1722445884
3818,7,Jits_ISO_8,69,9999,9999,9999,1723245680
3818,7,Jits_ISO_8,70,9999,9999,9999,1724045400
3818,7,Jits_ISO_8,71,9999,9999,9999,1724845164
3818,7,Jits_ISO_8,72,9999,9999,9999,1725645932
3818,7,Jits_ISO_8,73,9999,9999,9999,1726445656
3818,7,Jits_ISO_8,74,9999,9999,9999,1727245388
3818,7,Jits_ISO_8,75,9999,9999,9999,1728045116
3818,7,Jits_ISO_8,76,9999,9999,9999,1728845908
3818,7,Jits_ISO_8,77,9999,9999,9999,1729645632
3818,7,Jits_ISO_8,78,9999,9999,9999,1730445424
3818,7,Jits_ISO_8,79,9999,9999,9999,1731245148
3818,7,Jits_ISO_8,80,9999,9999,9999,1732045916
3818,7,Jits_ISO_8,81,9999,9999,9999,1732845624
3818,7,Jits_ISO_8,82,9999,9999,9999,1733645408
3818,7,Jits_ISO_8,83,9999,9999,9999,1734445112
3818,7,Jits_ISO_8,84,9999,9999,9999,1735245900
3818,7,Jits_ISO_8,85,9999,9999,9999,1736045628
3818,7,Jits_ISO_8,86,9999,9999,9999,1736845424
3818,7,Jits_ISO_8,87,9999,9999,9999,1737645128
3818,7,Jits_ISO_8,88,9999,9999,9999,1738445876
3818,7,Jits_ISO_8,89,9999,9999,9999,1739245644
3818,7,Jits_ISO_8,90,9999,9999,9999,1740045436
3818,7,Jits_ISO_8,91,9999,9999,9999,1740845156
3818,7,Jits_ISO_8,92,9999,9999,9999,1741645880
3818,7,Jits_ISO_8,93,9999,9999,9999,1742445656
3818,7,Jits_ISO_8,94,9999,9999,9999,1743245368
3818,7,Jits_ISO_8,95,9999,9999,9999,1744045148
3818,7,Jits_ISO_8,96,9999,9999,9999,1744845900
3818,7,Jits_ISO_8,97,9999,9999,9999,1745645684
3818,7,Jits_ISO_8,98,9999,9999,9999,1746445408
3818,7,Jits_ISO_8,99,9999,9999,9999,1747245120
3818,7,Jits_ISO_8,100,9999,9999,9999,1748045904
3818,7,Jits_ISO_8,101,9999,9999,9999,1748845688
3818,7,Jits_ISO_8,102,9999,9999,9999,1749645408
3818,7,Jits_ISO_8,103,9999,9999,9999,1750445132
3818,7,Jits_ISO_8,104,9999,9999,9999,1751245900
3818,7,Jits_ISO_8,105,9999,9999,9999,1752045692
3818,7,Jits_ISO_8,106,9999,9999,9999,1752845388
3818,7,Jits_ISO_8,107,9999,9999,9999,1753645156
3818,7,Jits_ISO_8,108,9999,9999,9999,1754445936
3818,7,Jits_ISO_8,109,9999,9999,9999,1755245640
3818,7,Jits_ISO_8,110,9999,9999,9999,1756045368
3818,7,Jits_ISO_8,111,9999,9999,9999,1756845152
3818,7,Jits_ISO_8,112,9999,9999,9999,1757645916
3818,7,Jits_ISO_8,113,9999,9999,9999,1758445640
3818,7,Jits_ISO_8,114,9999,9999,9999,1759245436
3818,7,Jits_ISO_8,115,9999,9999,9999,1760045144
3818,7,Jits_ISO_8,116,9999,9999,9999,1760845872
3818,7,Jits_ISO_8,117,9999,9999,9999,1761645676
3818,7,Jits_ISO_8,118,9999,9999,9999,1762445408
3818,7,Jits_ISO_8,119,9999,9999,9999,1763245124
3819,19,Jits_Linear_5,0,5,56,103,1774267840
3819,19,Jits_Linear_5,1,5,63,98,1774270860
3819,19,Jits_Linear_5,2,5,80,127,1774273836
3819,19,Jits_Linear_5,0,5,56,103,1774748004
3819,19,Jits_Linear_5,1,5,63,98,1774751024
3819,19,Jits_Linear_5,2,5,80,127,1774754372
3819,19,Jits_Linear_5,0,1,48,45,1775201844
3819,19,Jits_Linear_5,1,5,56,103,1775228400
3819,19,Jits_Linear_5,2,5,80,127,1775237772
3819,19,Jits_Linear_5,3,5,63,98,1775257932
3819,19,Jits_Linear_5,0,5,63,98,1775658540
3819,19,Jits_Linear_5,1,5,80,127,1775688092
3819,19,Jits_Linear_5,2,5,56,103,1775698512
3819,19,Jits_Linear_5,3,1,48,70,1775721932
3819,19,Jits_Linear_5,0,1,48,58,1776187868
3819,19,Jits_Linear_5,1,5,80,127,1776197884
3819,19,Jits_Linear_5,2,5,56,103,1776208376
3819,19,Jits_Linear_5,3,5,63,98,1776237828
3819,19,Jits_Linear_5,0,5,63,98,1776678448
3819,19,Jits_Linear_5,1,1,48,62,1776682020
3819,19,Jits_Linear_5,2,5,56,103,1776708044
3819,19,Jits_Linear_5,3,5,80,127,1776718388
3819,19,Jits_Linear_5,0,5,56,103,1777117508
3819,19,Jits_Linear_5,1,1,48,77,1777158464
3819,19,Jits_Linear_5,2,5,63,98,1777167704
3819,19,Jits_Linear_5,3,5,80,127,1777188384
3819,19,Jits_Linear_5,0,5,80,127,1777607992
3819,19,Jits_Linear_5,1,5,63,98,1777658196
3819,19,Jits_Linear_5,2,1,48,79,1777659164
3819,19,Jits_Linear_5,3,5,56,103,1777698276
3819,19,Jits_Linear_5,0,5,56,103,1778097580
3819,19,Jits_Linear_5,1,5,63,98,1778128452
3819,19,Jits_Linear_5,2,1,48,67,1778185972
3819,19,Jits_Linear_5,3,5,80,127,1778197832
3819,19,Jits_Linear_5,0,5,56,103,1778587992
3819,19,Jits_Linear_5,1,1,48,87,1778644820
3819,19,Jits_Linear_5,2,5,80,127,1778648452
3819,19,Jits_Linear_5,3,5,63,98,1778678352
3819,19,Jits_Linear_5,0,5,56,103,1779087696
3819,19,Jits_Linear_5,1,5,63,98,1779098040
3819,19,Jits_Linear_5,2,1,48,78,1779120268
3819,19,Jits_Linear_5,3,5,80,127,1779137900
3819,19,Jits_Linear_5,0,5,63,98,1779578256
3819,19,Jits_Linear_5,1,1,48,78,1779592084
3819,19,Jits_Linear_5,2,5,80,127,1779658196
3819,19,Jits_Linear_5,3,5,56,103,1779668392
3819,19,Jits_Linear_5,0,1,48,73,1780085464
3819,19,Jits_Linear_5,1,5,63,98,1780128140
3819,19,Jits_Linear_5,2,5,56,103,1780168004
3819,19,Jits_Linear_5,3,5,80,127,1780170996
3819,19,Jits_Linear_5,0,5,56,103,1780587820
3819,19,Jits_Linear_5,1,1,48,89,1780594300
3819,19,Jits_Linear_5,2,5,63,98,1780598308
3819,19,Jits_Linear_5,3,5,80,127,1780638320
3819,19,Jits_Linear_5,0,5,56,103,1781078376
3819,19,Jits_Linear_5,1,5,63,98,1781081516
3819,19,Jits_Linear_5,2,5,80,127,1781097864
3819,19,Jits_Linear_5,3,1,48,76,1781114756
3819,19,Jits_Linear_5,0,1,48,83,1781593836
3819,19,Jits_Linear_5,1,5,80,127,1781597548
3819,19,Jits_Linear_5,2,5,56,103,1781607744
3819,19,Jits_Linear_5,3,5,63,98,1781677424
3819,19,Jits_Linear_5,0,1,48,75,1782084832
3819,19,Jits_Linear_5,1,5,63,98,1782107648
3819,19,Jits_Linear_5,2,5,56,103,1782127960
3819,19,Jits_Linear_5,3,5,80,127,1782207816
3819,19,Jits_Linear_5,0,1,48,79,1782606940
3819,19,Jits_Linear_5,1,5,56,103,1782627640
3819,19,Jits_Linear_5,2,5,80,127,1782667508
3819,19,Jits_Linear_5,3,5,63,98,1782678000
3819,19,Jits_Linear_5,0,1,48,89,1783116964
3819,19,Jits_Linear_5,1,5,80,127,1783128372
3819,19,Jits_Linear_5,2,5,63,98,1783158348
3819,19,Jits_Linear_5,3,5,56,103,1783198284
3819,19,Jits_Linear_5,0,1,48,85,1783627884
3819,19,Jits_Linear_5,1,5,56,103,1783657952
3819,19,Jits_Linear_5,2,5,63,98,1783687480
3819,19,Jits_Linear_5,3,5,80,127,1783737668
3819,19,Jits_Linear_5,0,1,48,89,1784144568
3819,19,Jits_Linear_5,1,5,80,127,1784178244
3819,19,Jits_Linear_5,2,5,56,103,1784218112
3819,19,Jits_Linear_5,3,5,63,98,1784228232
3819,19,Jits_Linear_5,0,1,48,85,1784673700
3819,19,Jits_Linear_5,1,5,80,127,1784677708
3819,19,Jits_Linear_5,2,5,63,98,1784717572
3819,19,Jits_Linear_5,3,5,56,103,1784778248
3819,19,Jits_Linear_5,0,5,56,103,1785198076
3819,19,Jits_Linear_5,1,5,80,127,1785208124
3819,19,Jits_Linear_5,2,1,48,83,1785211464
3819,19,Jits_Linear_5,3,5,63,98,1785288140
3819,19,Jits_Linear_5,0,1,48,76,1785699992
3819,19,Jits_Linear_5,1,5,80,127,1785718224
3819,19,Jits_Linear_5,2,5,63,98,1785777500
3819,19,Jits_Linear_5,3,5,56,103,1785808132
3819,19,Jits_Linear_5,0,1,48,79,1786222900
3819,19,Jits_Linear_5,1,5,56,103,1786238292
3819,19,Jits_Linear_5,2,5,80,127,1786298084
3819,19,Jits_Linear_5,3,5,63,98,1786337640
3819,19,Jits_Linear_5,0,1,48,82,1786728668
3819,19,Jits_Linear_5,1,5,56,103,1786818000
3819,19,Jits_Linear_5,2,5,63,98,1786828328
3819,19,Jits_Linear_5,3,5,80,127,1786831544
3819,19,Jits_Linear_5,0,1,48,60,1787262796
3819,19,Jits_Linear_5,1,5,80,127,1787298196
3819,19,Jits_Linear_5,2,5,63,98,1787388248
3819,19,Jits_Linear_5,3,5,56,103,1787397472
3819,19,Jits_Linear_5,0,1,48,69,1787778532
3819,19,Jits_Linear_5,1,5,56,103,1787827540
3819,19,Jits_Linear_5,2,5,63,98,1787830636
3819,19,Jits_Linear_5,3,5,80,127,1787833984
3819,19,Jits_Linear_5,0,1,48,76,1788299320
3819,19,Jits_Linear_5,1,5,80,127,1788387908
3819,19,Jits_Linear_5,2,5,63,98,1788438020
3819,19,Jits_Linear_5,3,5,56,103,1788467552
3819,19,Jits_Linear_5,0,1,48,68,1788827556
3819,19,Jits_Linear_5,1,5,56,103,1788897860
3819,19,Jits_Linear_5,2,5,80,127,1788908060
3819,19,Jits_Linear_5,3,5,63,98,1788977504
3819,19,Jits_Linear_5,0,1,48,77,1789365064
3819,19,Jits_Linear_5,1,5,56,103,1789438228
3819,19,Jits_Linear_5,2,5,63,98,1789457944
3819,19,Jits_Linear_5,3,5,80,127,1789518120
3819,19,Jits_Linear_5,0,1,48,80,1789915492
3819,19,Jits_Linear_5,1,5,80,127,1789967736
3819,19,Jits_Linear_5,2,5,63,98,1790038256
3819,19,Jits_Linear_5,3,5,56,103,1790057892
3819,19,Jits_Linear_5,0,1,48,61,1790462296
3819,19,Jits_Linear_5,1,5,80,127,1790527812
3819,19,Jits_Linear_5,2,5,56,103,1790538260
3819,19,Jits_Linear_5,3,5,63,98,1790548528
3819,19,Jits_Linear_5,0,1,48,64,1791001168
3819,19,Jits_Linear_5,1,5,80,127,1791058240
3819,19,Jits_Linear_5,2,5,56,103,1791078024
3819,19,Jits_Linear_5,3,5,63,98,1791148592
3819,19,Jits_Linear_5,0,1,48,69,1791538248
3819,19,Jits_Linear_5,1,5,56,103,1791608052
3819,19,Jits_Linear_5,2,5,80,127,1791638612
3819,19,Jits_Linear_5,3,5,63,98,1791658324
3819,19,Jits_Linear_5,0,1,48,64,1792099920
3819,19,Jits_Linear_5,1,5,63,98,1792147824
3819,19,Jits_Linear_5,2,5,56,103,1792208128
3819,19,Jits_Linear_5,3,5,80,127,1792237880
3819,19,Jits_Linear_5,0,1,48,65,1792629876
3819,19,Jits_Linear_5,1,5,63,98,1792687520
3819,19,Jits_Linear_5,2,5,80,127,1792690956
3819,19,Jits_Linear_5,3,5,56,103,1792777640
3819,19,Jits_Linear_5,0,1,48,70,1793189116
3819,19,Jits_Linear_5,1,5,56,103,1793257920
3819,19,Jits_Linear_5,2,5,63,98,1793287732
3819,19,Jits_Linear_5,3,5,80,127,1793327448
3819,19,Jits_Linear_5,0,1,48,69,1793742812
3819,19,Jits_Linear_5,1,5,63,98,1793807736
3819,19,Jits_Linear_5,2,5,56,103,1793847660
3819,19,Jits_Linear_5,3,5,80,127,1793868144
3819,19,Jits_Linear_5,0,1,48,67,1794284444
3819,19,Jits_Linear_5,1,5,63,98,1794367880
3819,19,Jits_Linear_5,2,5,56,103,1794407756
3819,19,Jits_Linear_5,3,5,80,127,1794418172
3819,19,Jits_Linear_5,0,1,48,62,1794857800
3819,19,Jits_Linear_5,1,5,80,127,1794898308
3819,19,Jits_Linear_5,2,5,63,98,1794967904
3819,19,Jits_Linear_5,3,5,56,103,1794988512
3819,19,Jits_Linear_5,0,1,48,71,1795423732
3819,19,Jits_Linear_5,1,5,56,103,1795448044
3819,19,Jits_Linear_5,2,5,80,127,1795467832
3819,19,Jits_Linear_5,3,5,63,98,1795507844
3819,19,Jits_Linear_5,0,1,48,63,1795993024
3819,19,Jits_Linear_5,1,5,63,98,1796017632
3819,19,Jits_Linear_5,2,5,80,127,1796037944
3819,19,Jits_Linear_5,3,5,56,103,1796077808
3819,19,Jits_Linear_5,0,1,48,73,1796519684
3819,19,Jits_Linear_5,1,5,63,98,1796577632
3819,19,Jits_Linear_5,2,5,56,103,1796598016
3819,19,Jits_Linear_5,3,5,80,127,1796608364
3819,19,Jits_Linear_5,0,1,48,76,1797074648
3819,19,Jits_Linear_5,1,5,80,127,1797137848
3819,19,Jits_Linear_5,2,5,56,103,1797158236
3819,19,Jits_Linear_5,3,5,63,98,1797187920
3819,19,Jits_Linear_5,0,1,48,86,1797621920
3819,19,Jits_Linear_5,1,5,56,103,1797777876
3819,19,Jits_Linear_5,2,5,80,127,1797781088
3819,19,Jits_Linear_5,3,5,63,98,1797798188
3819,19,Jits_Linear_5,0,1,48,76,1798186640
3819,19,Jits_Linear_5,1,5,63,98,1798268204
3819,19,Jits_Linear_5,2,5,56,103,1798297868
3819,19,Jits_Linear_5,3,5,80,127,1798358484
3819,19,Jits_Linear_5,0,1,48,79,1798785008
3819,19,Jits_Linear_5,1,5,63,98,1798917652
3819,19,Jits_Linear_5,2,5,56,103,1798927700
3819,19,Jits_Linear_5,3,5,80,127,1798938116
3819,19,Jits_Linear_5,0,1,48,68,1799328616
3819,19,Jits_Linear_5,1,5,56,103,1799437796
3819,19,Jits_Linear_5,2,5,80,127,1799468520
3819,19,Jits_Linear_5,3,5,63,98,1799477744
3819,19,Jits_Linear_5,0,1,48,76,1799939492
3819,19,Jits_Linear_5,1,5,63,98,1800047948
3819,19,Jits_Linear_5,2,5,56,103,1800058216
3819,19,Jits_Linear_5,3,5,80,127,1800077632
3819,19,Jits_Linear_5,0,5,56,103,1800547584
3819,19,Jits_Linear_5,1,1,48,75,1800557448
3819,19,Jits_Linear_5,2,5,63,98,1800608116
3819,19,Jits_Linear_5,3,5,80,127,1800611628
3819,19,Jits_Linear_5,0,1,48,72,1801106512
3819,19,Jits_Linear_5,1,5,80,127,1801147812
3819,19,Jits_Linear_5,2,5,56,103,1801157936
3819,19,Jits_Linear_5,3,5,63,98,1801227752
3819,19,Jits_Linear_5,0,1,48,68,1801658416
3819,19,Jits_Linear_5,1,5,80,127,1801718152
3819,19,Jits_Linear_5,2,5,56,103,1801787672
3819,19,Jits_Linear_5,3,5,63,98,1801797968
3819,19,Jits_Linear_5,0,1,48,65,1802297224
3819,19,Jits_Linear_5,1,5,63,98,1802337588
3819,19,Jits_Linear_5,2,5,56,103,1802347784
3819,19,Jits_Linear_5,3,5,80,127,1802368464
3819,19,Jits_Linear_5,0,5,80,127,1802867992
3819,19,Jits_Linear_5,1,1,48,63,1802884292
3819,19,Jits_Linear_5,2,5,63,98,1802927336
3819,19,Jits_Linear_5,3,5,56,103,1802968468
3819,19,Jits_Linear_5,0,1,48,71,1803420104
3819,19,Jits_Linear_5,1,5,56,103,1803497836
3819,19,Jits_Linear_5,2,5,63,98,1803507956
3819,19,Jits_Linear_5,3,5,80,127,1803547956
3819,19,Jits_Linear_5,0,1,48,83,1803996376
3819,19,Jits_Linear_5,1,5,56,103,1804047716
3819,19,Jits_Linear_5,2,5,80,127,1804077544
3819,19,Jits_Linear_5,3,5,63,98,1804127532
3819,19,Jits_Linear_5,0,1,48,77,1804597724
3819,19,Jits_Linear_5,1,5,56,103,1804677420
3819,19,Jits_Linear_5,2,5,63,98,1804717340
3819,19,Jits_Linear_5,3,5,80,127,1804720708
3819,19,Jits_Linear_5,0,1,48,74,1805199768
3819,19,Jits_Linear_5,1,5,56,103,1805268428
3819,19,Jits_Linear_5,2,5,63,98,1805277576
3819,19,Jits_Linear_5,3,5,80,127,1805298540
3819,19,Jits_Linear_5,0,1,48,71,1805780072
3819,19,Jits_Linear_5,1,5,56,103,1805818456
3819,19,Jits_Linear_5,2,5,80,127,1805821372
3819,19,Jits_Linear_5,3,5,63,98,1805858320
3819,19,Jits_Linear_5,0,1,48,59,1806374212
3819,19,Jits_Linear_5,1,1,38,17,1806386196
3819,19,Jits_Linear_5,2,5,63,98,1806448128
3819,19,Jits_Linear_5,3,5,56,103,1806477788
3819,19,Jits_Linear_5,4,5,80,127,1806498308
3819,19,Jits_Linear_5,0,1,48,68,1806982376
3819,19,Jits_Linear_5,1,5,80,127,1807018444
3819,19,Jits_Linear_5,2,5,56,103,1807027520
3819,19,Jits_Linear_5,3,5,63,98,1807037788
3819,19,Jits_Linear_5,0,1,48,59,1807571140
3819,19,Jits_Linear_5,1,5,56,103,1807618372
3819,19,Jits_Linear_5,2,5,80,127,1807658312
3819,19,Jits_Linear_5,3,5,63,98,1807688072
3819,19,Jits_Linear_5,0,1,48,77,1808177668
3819,19,Jits_Linear_5,1,5,63,98,1808227768
3819,19,Jits_Linear_5,2,5,80,127,1808237816
3819,19,Jits_Linear_5,3,5,56,103,1808248384
3819,19,Jits_Linear_5,0,1,48,92,1808768704
3819,19,Jits_Linear_5,1,5,56,103,1808808288
3819,19,Jits_Linear_5,2,5,63,98,1808877884
3819,19,Jits_Linear_5,3,5,80,127,1808888380
3819,19,Jits_Linear_5,0,1,48,69,1809395516
3819,19,Jits_Linear_5,1,5,80,127,1809417512
3819,19,Jits_Linear_5,2,5,56,103,1809427784
3819,19,Jits_Linear_5,3,5,63,98,1809478160
3819,19,Jits_Linear_5,0,1,48,65,1810010992
3819,19,Jits_Linear_5,1,5,80,127,1810038148
3819,19,Jits_Linear_5,2,5,56,103,1810097492
3819,19,Jits_Linear_5,3,5,63,98,1810128352
3819,19,Jits_Linear_5,0,1,48,64,1810648572
3819,19,Jits_Linear_5,1,5,56,103,1810650236
3819,19,Jits_Linear_5,2,5,80,127,1810652976
3819,19,Jits_Linear_5,3,5,63,98,1810688284
3819,19,Jits_Linear_5,0,1,48,67,1811265156
3819,19,Jits_Linear_5,1,5,56,103,1811288296
3819,19,Jits_Linear_5,2,5,63,98,1811318272
3819,19,Jits_Linear_5,3,5,80,127,1811328396
3819,19,Jits_Linear_5,0,1,48,66,1811874484
3819,19,Jits_Linear_5,1,5,63,98,1811908088
3819,19,Jits_Linear_5,2,5,80,127,1811918060
3819,19,Jits_Linear_5,3,5,56,103,1811928404
3819,19,Jits_Linear_5,0,5,80,127,1812468016
3819,19,Jits_Linear_5,1,1,48,58,1812492256
3819,19,Jits_Linear_5,2,5,56,103,1812518212
3819,19,Jits_Linear_5,3,5,63,98,1812521280
3819,19,Jits_Linear_5,0,1,48,77,1813087052
3819,19,Jits_Linear_5,1,5,56,103,1813118320
3819,19,Jits_Linear_5,2,5,80,127,1813137880
3819,19,Jits_Linear_5,3,5,63,98,1813147928
3819,19,Jits_Linear_5,0,5,63,98,1813718256
3819,19,Jits_Linear_5,1,1,48,60,1813724888
3819,19,Jits_Linear_5,2,5,56,103,1813748152
3819,19,Jits_Linear_5,3,5,80,127,1813767488
3819,19,Jits_Linear_5,0,1,48,74,1814316584
3819,19,Jits_Linear_5,1,5,56,103,1814348172
3819,19,Jits_Linear_5,2,5,80,127,1814358516
3819,19,Jits_Linear_5,3,5,63,98,1814427888
3819,19,Jits_Linear_5,0,1,48,67,1814935800
3819,19,Jits_Linear_5,1,5,63,98,1814957400
3819,19,Jits_Linear_5,2,5,80,127,1814998536
3819,19,Jits_Linear_5,3,5,56,103,1815038460
3819,19,Jits_Linear_5,0,1,48,87,1815543432
3819,19,Jits_Linear_5,1,5,56,103,1815597416
3819,19,Jits_Linear_5,2,5,63,98,1815607760
3819,19,Jits_Linear_5,3,5,80,127,1815628020
3819,19,Jits_Linear_5,0,1,48,69,1816144360
3819,19,Jits_Linear_5,1,5,63,98,1816268008
3819,19,Jits_Linear_5,2,5,80,127,1816287572
3819,19,Jits_Linear_5,3,5,56,103,1816308180
3819,19,Jits_Linear_5,0,1,48,70,1816808964
3819,19,Jits_Linear_5,1,5,56,103,1816847728
3819,19,Jits_Linear_5,2,5,80,127,1816927616
3819,19,Jits_Linear_5,3,5,63,98,1816937960
3819,19,Jits_Linear_5,0,1,48,65,1817451996
3819,19,Jits_Linear_5,1,5,80,127,1817527704
3819,19,Jits_Linear_5,2,5,63,98,1817537900
3819,19,Jits_Linear_5,3,5,56,103,1817567636
3819,19,Jits_Linear_5,0,1,48,52,1818058528
3819,19,Jits_Linear_5,1,5,63,98,1818127712
3819,19,Jits_Linear_5,2,5,80,127,1818167860
3819,19,Jits_Linear_5,3,5,56,103,1818227976
3819,19,Jits_Linear_5,0,1,48,50,1818676668
3819,19,Jits_Linear_5,1,5,63,98,1818788264
3819,19,Jits_Linear_5,2,5,56,103,1818838320
3819,19,Jits_Linear_5,3,5,80,127,1818868216
3819,19,Jits_Linear_5,0,1,48,77,1819384876
3819,19,Jits_Linear_5,1,5,80,127,1819437360
3819,19,Jits_Linear_5,2,5,63,98,1819447780
3819,19,Jits_Linear_5,3,5,56,103,1819518444
3819,19,Jits_Linear_5,0,1,48,59,1820046064
3819,19,Jits_Linear_5,1,5,80,127,1820148044
3819,19,Jits_Linear_5,2,5,56,103,1820158312
3819,19,Jits_Linear_5,3,5,63,98,1820161452
3819,19,Jits_Linear_5,0,1,48,74,1820703972
3819,19,Jits_Linear_5,1,5,56,103,1820727756
3819,19,Jits_Linear_5,2,5,80,127,1820748096
3819,19,Jits_Linear_5,3,5,63,98,1820758292
3819,19,Jits_Linear_5,0,1,48,62,1821376104
3819,19,Jits_Linear_5,1,5,63,98,1821377840
3819,19,Jits_Linear_5,2,5,56,103,1821417932
3819,19,Jits_Linear_5,3,5,80,127,1821438388
3819,19,Jits_Linear_5,0,1,48,59,1822006900
3819,19,Jits_Linear_5,1,5,63,98,1822017884
3819,19,Jits_Linear_5,2,5,56,103,1822078276
3819,19,Jits_Linear_5,3,5,80,127,1822081344
3819,19,Jits_Linear_5,0,5,56,103,1822637520
3819,19,Jits_Linear_5,1,5,80,127,1822657832
3819,19,Jits_Linear_5,2,1,48,39,1822671288
3819,19,Jits_Linear_5,3,5,63,98,1822697764
3819,19,Jits_Linear_5,0,1,48,62,1823311928
3819,19,Jits_Linear_5,1,5,56,103,1823318472
3819,19,Jits_Linear_5,2,5,63,98,1823337812
3819,19,Jits_Linear_5,3,5,80,127,1823348008
3819,19,Jits_Linear_5,0,5,80,127,1823937888
3819,19,Jits_Linear_5,1,1,48,48,1823950748
3819,19,Jits_Linear_5,2,5,56,103,1823967712
3819,19,Jits_Linear_5,3,5,63,98,1824007724
3819,19,Jits_Linear_5,0,1,48,78,1824567996
3819,19,Jits_Linear_5,1,5,80,127,1824598392
3819,19,Jits_Linear_5,2,5,56,103,1824618028
3819,19,Jits_Linear_5,3,5,63,98,1824678252
3819,19,Jits_Linear_5,0,1,48,81,1825246172
3819,19,Jits_Linear_5,1,5,56,103,1825257812
3819,19,Jits_Linear_5,2,5,80,127,1825278496
3819,19,Jits_Linear_5,3,5,63,98,1825337692
3819,19,Jits_Linear_5,0,5,80,127,1825897784
3819,19,Jits_Linear_5,1,5,56,103,1825908128
3819,19,Jits_Linear_5,2,1,48,65,1825939720
3819,19,Jits_Linear_5,3,5,63,98,1825948060
3819,19,Jits_Linear_5,0,5,63,98,1826558556
3819,19,Jits_Linear_5,1,1,48,78,1826567680
3819,19,Jits_Linear_5,2,5,56,103,1826598488
3819,19,Jits_Linear_5,3,5,80,127,1826601480
3819,19,Jits_Linear_5,0,1,48,61,1827222972
3819,19,Jits_Linear_5,1,5,63,98,1827238512
3819,19,Jits_Linear_5,2,5,80,127,1827278156
3819,19,Jits_Linear_5,3,5,56,103,1827307756
3819,19,Jits_Linear_5,0,1,48,56,1827878500
3819,19,Jits_Linear_5,1,5,56,103,1827887592
3819,19,Jits_Linear_5,2,5,63,98,1827897716
3819,19,Jits_Linear_5,3,5,80,127,1827928684
3819,19,Jits_Linear_5,0,5,80,127,1828547940
3819,19,Jits_Linear_5,1,1,48,55,1828560124
3819,19,Jits_Linear_5,2,5,63,98,1828617544
3819,19,Jits_Linear_5,3,5,56,103,1828627740
3819,19,Jits_Linear_5,0,5,63,98,1829217656
3819,19,Jits_Linear_5,1,1,48,56,1829220776
3819,19,Jits_Linear_5,2,5,56,103,1829288456
3819,19,Jits_Linear_5,3,5,80,127,1829297604
3819,19,Jits_Linear_5,0,5,63,98,1829888312
3819,19,Jits_Linear_5,1,1,48,66,1829905436
3819,19,Jits_Linear_5,2,5,56,103,1829907868
3819,19,Jits_Linear_5,3,5,80,127,1829947808
3819,19,Jits_Linear_5,0,5,56,103,1830568356
3819,19,Jits_Linear_5,1,1,48,58,1830570220
3819,19,Jits_Linear_5,2,5,63,98,1830577500
3819,19,Jits_Linear_5,3,5,80,127,1830658640
3819,19,Jits_Linear_5,0,5,63,98,1831227640
3819,19,Jits_Linear_5,1,1,48,65,1831235416
3819,19,Jits_Linear_5,2,5,56,103,1831257412
3819,19,Jits_Linear_5,3,5,80,127,1831298396
3819,19,Jits_Linear_5,0,5,56,103,1831897420
3819,19,Jits_Linear_5,1,5,63,98,1831938484
3819,19,Jits_Linear_5,2,1,48,66,1831946928
3819,19,Jits_Linear_5,3,5,80,127,1831978344
3819,19,Jits_Linear_5,0,5,80,127,1832578456
3819,19,Jits_Linear_5,1,1,48,57,1832608104
3819,19,Jits_Linear_5,2,5,56,103,1832658248
3819,19,Jits_Linear_5,3,5,63,98,1832667548
3819,19,Jits_Linear_5,0,5,56,103,1833298228
3819,19,Jits_Linear_5,1,5,63,98,1833301520
3819,19,Jits_Linear_5,2,1,48,51,1833307076
3819,19,Jits_Linear_5,3,5,80,127,1833308792
3819,19,Jits_Linear_5,0,1,48,48,1833992680
3819,19,Jits_Linear_5,1,5,56,103,1833997660
3819,19,Jits_Linear_5,2,5,63,98,1834018196
3819,19,Jits_Linear_5,3,5,80,127,1834028316
3819,19,Jits_Linear_5,0,5,63,98,1834647896
3819,19,Jits_Linear_5,1,5,80,127,1834658092
3819,19,Jits_Linear_5,2,5,56,103,1834677584
3819,19,Jits_Linear_5,3,1,48,60,1834690212
3819,19,Jits_Linear_5,0,5,63,98,1835338132
3819,19,Jits_Linear_5,1,1,48,56,1835347328
3819,19,Jits_Linear_5,2,5,56,103,1835418220
3819,19,Jits_Linear_5,3,5,80,127,1835421288
3819,19,Jits_Linear_5,0,5,63,98,1836028336
3819,19,Jits_Linear_5,1,5,56,103,1836047604
3819,19,Jits_Linear_5,2,1,48,55,1836062780
3819,19,Jits_Linear_5,3,5,80,127,1836077572
3819,19,Jits_Linear_5,0,1,48,65,1836705564
3819,19,Jits_Linear_5,1,5,56,103,1836717296
3819,19,Jits_Linear_5,2,5,63,98,1836738352
3819,19,Jits_Linear_5,3,5,80,127,1836748400
3819,19,Jits_Linear_5,0,1,48,64,1837405092
3819,19,Jits_Linear_5,1,5,56,103,1837438324
3819,19,Jits_Linear_5,2,5,63,98,1837468152
3819,19,Jits_Linear_5,3,5,80,127,1837471440
3819,19,Jits_Linear_5,0,5,56,103,1838078188
3819,19,Jits_Linear_5,1,5,63,98,1838118128
3819,19,Jits_Linear_5,2,1,48,56,1838119096
3819,19,Jits_Linear_5,3,5,80,127,1838177788
3819,19,Jits_Linear_5,0,5,56,103,1838788068
3819,19,Jits_Linear_5,1,5,63,98,1838798192
3819,19,Jits_Linear_5,2,1,48,57,1838832544
3819,19,Jits_Linear_5,3,5,80,127,1838857528
3819,19,Jits_Linear_5,0,5,56,103,1839488428
3819,19,Jits_Linear_5,1,5,80,127,1839507992
3819,19,Jits_Linear_5,2,1,48,52,1839510360
3819,19,Jits_Linear_5,3,5,63,98,1839537660
3819,19,Jits_Linear_5,0,5,80,127,1840188020
3819,19,Jits_Linear_5,1,5,56,103,1840198168
3819,19,Jits_Linear_5,2,5,63,98,1840217432
3819,19,Jits_Linear_5,3,1,48,31,1840238532
3819,19,Jits_Linear_5,0,5,63,98,1840878044
3819,19,Jits_Linear_5,1,1,48,47,1840900200
3819,19,Jits_Linear_5,2,5,80,127,1840957916
3819,19,Jits_Linear_5,3,5,56,103,1840968184
3819,19,Jits_Linear_5,0,1,48,47,1841564616
3819,19,Jits_Linear_5,1,5,80,127,1841637860
3819,19,Jits_Linear_5,2,5,56,103,1841658148
3819,19,Jits_Linear_5,3,5,63,98,1841661220
3819,19,Jits_Linear_5,0,1,48,32,1842271268
3819,19,Jits_Linear_5,1,5,63,98,1842317896
3819,19,Jits_Linear_5,2,5,80,127,1842321260
3819,19,Jits_Linear_5,3,5,56,103,1842378052
3819,19,Jits_Linear_5,0,1,48,38,1842903252
3819,19,Jits_Linear_5,1,5,56,103,1843008112
3819,19,Jits_Linear_5,2,5,80,127,1843018088
3819,19,Jits_Linear_5,3,5,63,98,1843058028
3819,19,Jits_Linear_5,0,1,48,39,1843652228
3819,19,Jits_Linear_5,1,5,56,103,1843697964
3819,19,Jits_Linear_5,2,5,63,98,1843757372
3819,19,Jits_Linear_5,3,5,80,127,1843767788
3819,19,Jits_Linear_5,0,1,48,13,1844351228
3819,19,Jits_Linear_5,1,5,63,98,1844418016
3819,19,Jits_Linear_5,2,5,80,127,1844457940
3819,19,Jits_Linear_5,3,5,56,103,1844497956
3819,19,Jits_Linear_5,0,5,56,103,1845137924
3819,19,Jits_Linear_5,1,5,63,98,1845217872
3819,19,Jits_Linear_5,2,5,80,127,1845221084
3819,19,Jits_Linear_5,0,1,48,57,1845824640
3819,19,Jits_Linear_5,1,5,80,127,1845907768
3819,19,Jits_Linear_5,2,5,56,103,1845937724
3819,19,Jits_Linear_5,3,5,63,98,1845940864
3819,19,Jits_Linear_5,0,5,56,103,1846587712
3819,19,Jits_Linear_5,1,1,48,69,1846604480
3819,19,Jits_Linear_5,2,5,80,127,1846608412
3819,19,Jits_Linear_5,3,5,63,98,1846648276
3819,19,Jits_Linear_5,0,5,80,127,1847288148
3819,19,Jits_Linear_5,1,1,48,68,1847307036
3819,19,Jits_Linear_5,2,5,63,98,1847308676
3819,19,Jits_Linear_5,3,5,56,103,1847367972
3819,19,Jits_Linear_5,0,5,63,98,1848018332
3819,19,Jits_Linear_5,1,5,56,103,1848027704
3819,19,Jits_Linear_5,2,1,48,62,1848035924
3819,19,Jits_Linear_5,3,5,80,127,1848077824
3819,19,Jits_Linear_5,0,1,48,73,1848713316
3819,19,Jits_Linear_5,1,5,56,103,1848738300
3819,19,Jits_Linear_5,2,5,63,98,1848757564
3819,19,Jits_Linear_5,3,5,80,127,1848767908
3819,19,Jits_Linear_5,0,1,48,62,1849409772
3819,19,Jits_Linear_5,1,5,56,103,1849457896
3819,19,Jits_Linear_5,2,5,63,98,1849460968
3819,19,Jits_Linear_5,3,5,80,127,1849477612
3819,19,Jits_Linear_5,0,1,48,74,1850118920
3819,19,Jits_Linear_5,1,5,63,98,1850227972
3819,19,Jits_Linear_5,2,5,56,103,1850257724
3819,19,Jits_Linear_5,3,5,80,127,1850287700
3819,19,Jits_Linear_5,0,1,48,68,1850827892
3819,19,Jits_Linear_5,1,5,80,127,1850918348
3819,19,Jits_Linear_5,2,5,56,103,1851008644
3819,19,Jits_Linear_5,3,5,63,98,1851011636
3819,19,Jits_Linear_5,0,5,56,103,1851648744
3819,19,Jits_Linear_5,1,5,80,127,1851651652
3819,19,Jits_Linear_5,2,1,48,60,1851667600
3819,19,Jits_Linear_5,3,5,63,98,1851728328
3819,19,Jits_Linear_5,0,1,48,66,1852375596
3819,19,Jits_Linear_5,1,5,80,127,1852377628
3819,19,Jits_Linear_5,2,5,63,98,1852437800
3819,19,Jits_Linear_5,3,5,56,103,1852467624
3819,19,Jits_Linear_5,0,5,63,98,1853107656
3819,19,Jits_Linear_5,1,5,80,127,1853117780
3819,19,Jits_Linear_5,2,1,48,61,1853137388
3819,19,Jits_Linear_5,3,5,56,103,1853187380
3819,19,Jits_Linear_5,0,1,48,51,1853823768
3819,19,Jits_Linear_5,1,5,56,103,1853868608
3819,19,Jits_Linear_5,2,5,80,127,1853898208
3819,19,Jits_Linear_5,3,5,63,98,1853948396
3819,19,Jits_Linear_5,0,1,48,48,1854537612
3819,19,Jits_Linear_5,1,5,63,98,1854647692
3819,19,Jits_Linear_5,2,5,56,103,1854678340
3819,19,Jits_Linear_5,3,5,80,127,1854681404
3819,19,Jits_Linear_5,0,1,48,53,1855333700
3819,19,Jits_Linear_5,1,5,63,98,1855387908
3819,19,Jits_Linear_5,2,5,80,127,1855407616
3819,19,Jits_Linear_5,3,5,56,103,1855417888
3819,19,Jits_Linear_5,0,1,48,38,1856106068
3819,19,Jits_Linear_5,1,5,56,103,1856137632
3819,19,Jits_Linear_5,2,5,63,98,1856140624
3819,19,Jits_Linear_5,3,5,80,127,1856158020
3819,19,Jits_Linear_5,0,1,48,44,1856818296
3819,19,Jits_Linear_5,1,5,56,103,1856837976
3819,19,Jits_Linear_5,2,5,63,98,1856848396
3819,19,Jits_Linear_5,3,5,80,127,1856877848
3819,19,Jits_Linear_5,0,1,48,70,1857508148
3819,19,Jits_Linear_5,1,5,63,98,1857608360
3819,19,Jits_Linear_5,2,5,80,127,1857627400
3819,19,Jits_Linear_5,3,5,56,103,1857667340
3819,19,Jits_Linear_5,0,1,48,47,1858267172
3819,19,Jits_Linear_5,1,5,56,103,1858388280
3819,19,Jits_Linear_5,2,5,63,98,1858428292
3819,19,Jits_Linear_5,3,5,80,127,1858431580
3819,19,Jits_Linear_5,0,1,48,54,1859068288
3819,19,Jits_Linear_5,1,5,80,127,1859077452
3819,19,Jits_Linear_5,2,5,56,103,1859117540
3819,19,Jits_Linear_5,3,5,63,98,1859167608
3819,19,Jits_Linear_5,0,1,48,50,1859882364
3819,19,Jits_Linear_5,1,5,56,103,1859887488
3819,19,Jits_Linear_5,2,5,80,127,1859897836
3819,19,Jits_Linear_5,3,5,63,98,1859928508
3819,19,Jits_Linear_5,0,5,56,103,1860587776
3819,19,Jits_Linear_5,1,5,80,127,1860628012
3819,19,Jits_Linear_5,2,5,63,98,1860677944
3819,19,Jits_Linear_5,3,1,48,52,1860681432
3819,19,Jits_Linear_5,0,5,56,103,1861347704
3819,19,Jits_Linear_5,1,1,48,55,1861372916
3819,19,Jits_Linear_5,2,5,80,127,1861387640
3819,19,Jits_Linear_5,3,5,63,98,1861437692
3819,19,Jits_Linear_5,0,5,80,127,1862098316
3819,19,Jits_Linear_5,1,1,48,52,1862133800
3819,19,Jits_Linear_5,2,5,63,98,1862178108
3819,19,Jits_Linear_5,3,5,56,103,1862188304
3819,19,Jits_Linear_5,0,1,48,66,1862857844
3819,19,Jits_Linear_5,1,5,80,127,1862908288
3819,19,Jits_Linear_5,2,5,56,103,1862917588
3819,19,Jits_Linear_5,3,5,63,98,1862938124
3819,19,Jits_Linear_5,0,1,48,53,1863629368
3819,19,Jits_Linear_5,1,5,63,98,1863638532
3819,19,Jits_Linear_5,2,5,56,103,1863707996
3819,19,Jits_Linear_5,3,5,80,127,1863711136
3819,19,Jits_Linear_5,0,1,48,60,1864358260
3819,19,Jits_Linear_5,1,5,80,127,1864398140
3819,19,Jits_Linear_5,2,5,63,98,1864448420
3819,19,Jits_Linear_5,3,5,56,103,1864488272
3819,19,Jits_Linear_5,0,1,48,39,1865170612
3819,19,Jits_Linear_5,1,5,63,98,1865208104
3819,19,Jits_Linear_5,2,5,56,103,1865248048
3819,19,Jits_Linear_5,3,5,80,127,1865258316
3819,19,Jits_Linear_5,0,1,48,57,1865964164
3819,19,Jits_Linear_5,1,5,63,98,1865967872
3819,19,Jits_Linear_5,2,5,56,103,1865987436
3819,19,Jits_Linear_5,3,5,80,127,1866007896
3819,19,Jits_Linear_5,0,5,80,127,1866698044
3819,19,Jits_Linear_5,1,5,56,103,1866708464
3819,19,Jits_Linear_5,2,5,63,98,1866728100
3819,19,Jits_Linear_5,3,1,48,60,1866731896
3819,19,Jits_Linear_5,0,1,48,54,1867461152
3819,19,Jits_Linear_5,1,5,63,98,1867497820
3819,19,Jits_Linear_5,2,5,56,103,1867537912
3819,19,Jits_Linear_5,3,5,80,127,1867567496
3819,19,Jits_Linear_5,0,1,48,65,1868248568
3819,19,Jits_Linear_5,1,5,56,103,1868278112
3819,19,Jits_Linear_5,2,5,63,98,1868308012
3819,19,Jits_Linear_5,3,5,80,127,1868337468
3819,19,Jits_Linear_5,0,5,80,127,1869027840
3819,19,Jits_Linear_5,1,1,48,54,1869033580
3819,19,Jits_Linear_5,2,5,56,103,1869098344
3819,19,Jits_Linear_5,3,5,63,98,1869101260
3819,19,Jits_Linear_5,0,1,48,44,1869807432
3819,19,Jits_Linear_5,1,5,56,103,1869818096
3819,19,Jits_Linear_5,2,5,63,98,1869868376
3819,19,Jits_Linear_5,3,5,80,127,1869898076
3819,19,Jits_Linear_5,0,1,48,56,1870576256
3819,19,Jits_Linear_5,1,5,63,98,1870578000
3819,19,Jits_Linear_5,2,5,80,127,1870581220
3819,19,Jits_Linear_5,3,5,56,103,1870637496
3819,19,Jits_Linear_5,0,1,48,79,1871326868
3819,19,Jits_Linear_5,1,5,56,103,1871387880
3819,19,Jits_Linear_5,2,5,80,127,1871398224
3819,19,Jits_Linear_5,3,5,63,98,1871448288
3819,19,Jits_Linear_5,0,1,48,50,1872139072
3819,19,Jits_Linear_5,1,5,63,98,1872147868
3819,19,Jits_Linear_5,2,5,56,103,1872158064
3819,19,Jits_Linear_5,3,5,80,127,1872187740
3819,19,Jits_Linear_5,0,1,48,49,1872905256
3819,19,Jits_Linear_5,1,5,63,98,1872967952
3819,19,Jits_Linear_5,2,5,80,127,1872971244
3819,19,Jits_Linear_5,3,5,56,103,1872997840
3819,19,Jits_Linear_5,0,1,48,65,1873696416
3819,19,Jits_Linear_5,1,5,63,98,1873778128
3819,19,Jits_Linear_5,2,5,56,103,1873797600
3819,19,Jits_Linear_5,3,5,80,127,1873800516
3819,19,Jits_Linear_5,0,5,63,98,1874527700
3819,19,Jits_Linear_5,1,1,48,59,1874550596
3819,19,Jits_Linear_5,2,5,56,103,1874598424
3819,19,Jits_Linear_5,3,5,80,127,1874617912
3819,19,Jits_Linear_5,0,5,56,103,1875307916
3819,19,Jits_Linear_5,1,5,63,98,1875318112
3819,19,Jits_Linear_5,2,1,48,67,1875344000
3819,19,Jits_Linear_5,3,5,80,127,1875408168
3819,19,Jits_Linear_5,0,1,48,68,1876100924
3819,19,Jits_Linear_5,1,5,56,103,1876117816
3819,19,Jits_Linear_5,2,5,80,127,1876157756
3819,19,Jits_Linear_5,3,5,63,98,1876167952
3819,19,Jits_Linear_5,0,1,48,79,1876857468
3819,19,Jits_Linear_5,1,5,56,103,1876938040
3819,19,Jits_Linear_5,2,5,63,98,1876967700
3819,19,Jits_Linear_5,3,5,80,127,1876997600
3819,19,Jits_Linear_5,0,1,48,69,1877659936
3819,19,Jits_Linear_5,1,5,80,127,1877697804
3819,19,Jits_Linear_5,2,5,63,98,1877737892
3819,19,Jits_Linear_5,3,5,56,103,1877758336
3819,19,Jits_Linear_5,0,1,48,71,1878412572
3819,19,Jits_Linear_5,1,5,56,103,1878537716
3819,19,Jits_Linear_5,2,5,80,127,1878558100
3819,19,Jits_Linear_5,3,5,63,98,1878577440
3819,19,Jits_Linear_5,0,1,48,49,1879243208
3819,19,Jits_Linear_5,1,5,63,98,1879307604
3819,19,Jits_Linear_5,2,5,56,103,1879317876
3819,19,Jits_Linear_5,3,5,80,127,1879378276
3819,19,Jits_Linear_5,0,1,48,50,1880052496
3819,19,Jits_Linear_5,1,5,56,103,1880117640
3819,19,Jits_Linear_5,2,5,63,98,1880188308
3819,19,Jits_Linear_5,3,5,80,127,1880207796
3819,19,Jits_Linear_5,0,5,56,103,1880927708
3819,19,Jits_Linear_5,1,1,48,67,1880958508
3819,19,Jits_Linear_5,2,5,63,98,1880959992
3819,19,Jits_Linear_5,3,5,80,127,1880998440
3819,19,Jits_Linear_5,0,1,48,52,1881709252
3819,19,Jits_Linear_5,1,5,63,98,1881728532
3819,19,Jits_Linear_5,2,5,56,103,1881777392
3819,19,Jits_Linear_5,3,5,80,127,1881787884
3819,19,Jits_Linear_5,0,1,48,65,1882549556
3819,19,Jits_Linear_5,1,5,56,103,1882578500
3819,19,Jits_Linear_5,2,5,63,98,1882627360
3819,19,Jits_Linear_5,3,5,80,127,1882637556
3819,19,Jits_Linear_5,0,5,56,103,1883357452
3819,19,Jits_Linear_5,1,5,63,98,1883367652
3819,19,Jits_Linear_5,2,1,48,67,1883390920
3819,19,Jits_Linear_5,3,5,80,127,1883447664
3819,19,Jits_Linear_5,0,9999,9999,9999,1774506076
3819,19,Jits_Linear_5,1,9999,9999,9999,1774985340
3819,19,Jits_Linear_5,2,9999,9999,9999,1775465576
3819,19,Jits_Linear_5,3,9999,9999,9999,1775945852
3819,19,Jits_Linear_5,4,9999,9999,9999,1776426040
3819,19,Jits_Linear_5,5,9999,9999,9999,1776915520
3819,19,Jits_Linear_5,6,9999,9999,9999,1777406064
3819,19,Jits_Linear_5,7,9999,9999,9999,1777895504
3819,19,Jits_Linear_5,8,9999,9999,9999,1778385992
3819,19,Jits_Linear_5,9,9999,9999,9999,1778875504
3819,19,Jits_Linear_5,10,9999,9999,9999,1779375208
3819,19,Jits_Linear_5,11,9999,9999,9999,1779875960
3819,19,Jits_Linear_5,12,9999,9999,9999,1780375644
3819,19,Jits_Linear_5,13,9999,9999,9999,1780875332
3819,19,Jits_Linear_5,14,9999,9999,9999,1781376068
3819,19,Jits_Linear_5,15,9999,9999,9999,1781895252
3819,19,Jits_Linear_5,16,9999,9999,9999,1782405208
3819,19,Jits_Linear_5,17,9999,9999,9999,1782915156
3819,19,Jits_Linear_5,18,9999,9999,9999,1783425108
3819,19,Jits_Linear_5,19,9999,9999,9999,1783936108
3819,19,Jits_Linear_5,20,9999,9999,9999,1784465468
3819,19,Jits_Linear_5,21,9999,9999,9999,1784985680
3819,19,Jits_Linear_5,22,9999,9999,9999,1785505892
3819,19,Jits_Linear_5,23,9999,9999,9999,1786026048
3819,19,Jits_Linear_5,24,9999,9999,9999,1786545220
3819,19,Jits_Linear_5,25,9999,9999,9999,1787075692
3819,19,Jits_Linear_5,26,9999,9999,9999,1787606100
3819,19,Jits_Linear_5,27,9999,9999,9999,1788145768
3819,19,Jits_Linear_5,28,9999,9999,9999,1788675132
3819,19,Jits_Linear_5,29,9999,9999,9999,1789205608
3819,19,Jits_Linear_5,30,9999,9999,9999,1789745228
3819,19,Jits_Linear_5,31,9999,9999,9999,1790285920
3819,19,Jits_Linear_5,32,9999,9999,9999,1790825544
3819,19,Jits_Linear_5,33,9999,9999,9999,1791365240
3819,19,Jits_Linear_5,34,9999,9999,9999,1791905908
3819,19,Jits_Linear_5,35,9999,9999,9999,1792455796
3819,19,Jits_Linear_5,36,9999,9999,9999,1793005672
3819,19,Jits_Linear_5,37,9999,9999,9999,1793555556
3819,19,Jits_Linear_5,38,9999,9999,9999,1794105440
3819,19,Jits_Linear_5,39,9999,9999,9999,1794655348
3819,19,Jits_Linear_5,40,9999,9999,9999,1795215424
3819,19,Jits_Linear_5,41,9999,9999,9999,1795775568
3819,19,Jits_Linear_5,42,9999,9999,9999,1796335716
3819,19,Jits_Linear_5,43,9999,9999,9999,1796895860
3819,19,Jits_Linear_5,44,9999,9999,9999,1797455956
3819,19,Jits_Linear_5,45,9999,9999,9999,1798025320
3819,19,Jits_Linear_5,46,9999,9999,9999,1798595660
3819,19,Jits_Linear_5,47,9999,9999,9999,1799166076
3819,19,Jits_Linear_5,48,9999,9999,9999,1799735368
3819,19,Jits_Linear_5,49,9999,9999,9999,1800305736
3819,19,Jits_Linear_5,50,9999,9999,9999,1800885356
3819,19,Jits_Linear_5,51,9999,9999,9999,1801465972
3819,19,Jits_Linear_5,52,9999,9999,9999,1802045528
3819,19,Jits_Linear_5,53,9999,9999,9999,1802625104
3819,19,Jits_Linear_5,54,9999,9999,9999,1803205704
3819,19,Jits_Linear_5,55,9999,9999,9999,1803795540
3819,19,Jits_Linear_5,56,9999,9999,9999,1804385380
3819,19,Jits_Linear_5,57,9999,9999,9999,1804975192
3819,19,Jits_Linear_5,58,9999,9999,9999,1805566056
3819,19,Jits_Linear_5,59,9999,9999,9999,1806155884
3819,19,Jits_Linear_5,60,9999,9999,9999,1806755932
3819,19,Jits_Linear_5,61,9999,9999,9999,1807356000
3819,19,Jits_Linear_5,62,9999,9999,9999,1807956032
3819,19,Jits_Linear_5,63,9999,9999,9999,1808555064
3819,19,Jits_Linear_5,64,9999,9999,9999,1809155144
3819,19,Jits_Linear_5,65,9999,9999,9999,1809765440
3819,19,Jits_Linear_5,66,9999,9999,9999,1810375788
3819,19,Jits_Linear_5,67,9999,9999,9999,1810986044
3819,19,Jits_Linear_5,68,9999,9999,9999,1811595372
3819,19,Jits_Linear_5,69,9999,9999,9999,1812205644
3819,19,Jits_Linear_5,70,9999,9999,9999,1812825144
3819,19,Jits_Linear_5,71,9999,9999,9999,1813445692
3819,19,Jits_Linear_5,72,9999,9999,9999,1814065252
3819,19,Jits_Linear_5,73,9999,9999,9999,1814685812
3819,19,Jits_Linear_5,74,9999,9999,9999,1815305300
3819,19,Jits_Linear_5,75,9999,9999,9999,1815936120
3819,19,Jits_Linear_5,76,9999,9999,9999,1816576068
3819,19,Jits_Linear_5,77,9999,9999,9999,1817216112
3819,19,Jits_Linear_5,78,9999,9999,9999,1817856124
3819,19,Jits_Linear_5,79,9999,9999,9999,1818496092
3819,19,Jits_Linear_5,80,9999,9999,9999,1819136108
3819,19,Jits_Linear_5,81,9999,9999,9999,1819776072
3819,19,Jits_Linear_5,82,9999,9999,9999,1820416088
3819,19,Jits_Linear_5,83,9999,9999,9999,1821056056
3819,19,Jits_Linear_5,84,9999,9999,9999,1821696076
3819,19,Jits_Linear_5,85,9999,9999,9999,1822355512
3819,19,Jits_Linear_5,86,9999,9999,9999,1823005788
3819,19,Jits_Linear_5,87,9999,9999,9999,1823656032
3819,19,Jits_Linear_5,88,9999,9999,9999,1824305264
3819,19,Jits_Linear_5,89,9999,9999,9999,1824955508
3819,19,Jits_Linear_5,90,9999,9999,9999,1825615928
3819,19,Jits_Linear_5,91,9999,9999,9999,1826275416
3819,19,Jits_Linear_5,92,9999,9999,9999,1826935908
3819,19,Jits_Linear_5,93,9999,9999,9999,1827595332
3819,19,Jits_Linear_5,94,9999,9999,9999,1828255816
3819,19,Jits_Linear_5,95,9999,9999,9999,1828925500
3819,19,Jits_Linear_5,96,9999,9999,9999,1829595220
3819,19,Jits_Linear_5,97,9999,9999,9999,1830265972
3819,19,Jits_Linear_5,98,9999,9999,9999,1830935652
3819,19,Jits_Linear_5,99,9999,9999,9999,1831605376
3819,19,Jits_Linear_5,100,9999,9999,9999,1832285272
3819,19,Jits_Linear_5,101,9999,9999,9999,1832965236
3819,19,Jits_Linear_5,102,9999,9999,9999,1833645140
3819,19,Jits_Linear_5,103,9999,9999,9999,1834326104
3819,19,Jits_Linear_5,104,9999,9999,9999,1835015268
3819,19,Jits_Linear_5,105,9999,9999,9999,1835705424
3819,19,Jits_Linear_5,106,9999,9999,9999,1836395584
3819,19,Jits_Linear_5,107,9999,9999,9999,1837085796
3819,19,Jits_Linear_5,108,9999,9999,9999,1837775952
3819,19,Jits_Linear_5,109,9999,9999,9999,1838465140
3819,19,Jits_Linear_5,110,9999,9999,9999,1839165556
3819,19,Jits_Linear_5,111,9999,9999,9999,1839865912
3819,19,Jits_Linear_5,112,9999,9999,9999,1840565304
3819,19,Jits_Linear_5,113,9999,9999,9999,1841265724
3819,19,Jits_Linear_5,114,9999,9999,9999,1841965148
3819,19,Jits_Linear_5,115,9999,9999,9999,1842675832
3819,19,Jits_Linear_5,116,9999,9999,9999,1843385472
3819,19,Jits_Linear_5,117,9999,9999,9999,1844096084
3819,19,Jits_Linear_5,118,9999,9999,9999,1844815984
3819,19,Jits_Linear_5,119,9999,9999,9999,1845525616
3819,19,Jits_Linear_5,120,9999,9999,9999,1846245468
3819,19,Jits_Linear_5,121,9999,9999,9999,1846965368
3819,19,Jits_Linear_5,122,9999,9999,9999,1847685212
3819,19,Jits_Linear_5,123,9999,9999,9999,1848406104
3819,19,Jits_Linear_5,124,9999,9999,9999,1849135196
3819,19,Jits_Linear_5,125,9999,9999,9999,1849865272
3819,19,Jits_Linear_5,126,9999,9999,9999,1850595444
3819,19,Jits_Linear_5,127,9999,9999,9999,1851325528
3819,19,Jits_Linear_5,128,9999,9999,9999,1852055612
3819,19,Jits_Linear_5,129,9999,9999,9999,1852785792
3819,19,Jits_Linear_5,130,9999,9999,9999,1853526148
3819,19,Jits_Linear_5,131,9999,9999,9999,1854275644
3819,19,Jits_Linear_5,132,9999,9999,9999,1855016044
3819,19,Jits_Linear_5,133,9999,9999,9999,1855755356
3819,19,Jits_Linear_5,134,9999,9999,9999,1856495712
3819,19,Jits_Linear_5,135,9999,9999,9999,1857245280
3819,19,Jits_Linear_5,136,9999,9999,9999,1857995904
3819,19,Jits_Linear_5,137,9999,9999,9999,1858745400
3819,19,Jits_Linear_5,138,9999,9999,9999,1859496024
3819,19,Jits_Linear_5,139,9999,9999,9999,1860245604
3819,19,Jits_Linear_5,140,9999,9999,9999,1861005368
3819,19,Jits_Linear_5,141,9999,9999,9999,1861765196
3819,19,Jits_Linear_5,142,9999,9999,9999,1862526024
3819,19,Jits_Linear_5,143,9999,9999,9999,1863285880
3819,19,Jits_Linear_5,144,9999,9999,9999,1864045636
3819,19,Jits_Linear_5,145,9999,9999,9999,1864815740
3819,19,Jits_Linear_5,146,9999,9999,9999,1865585772
3819,19,Jits_Linear_5,147,9999,9999,9999,1866355800
3819,19,Jits_Linear_5,148,9999,9999,9999,1867125820
3819,19,Jits_Linear_5,149,9999,9999,9999,1867895864
3819,19,Jits_Linear_5,150,9999,9999,9999,1868675184
3819,19,Jits_Linear_5,151,9999,9999,9999,1869455464
3819,19,Jits_Linear_5,152,9999,9999,9999,1870235768
3819,19,Jits_Linear_5,153,9999,9999,9999,1871016044
3819,19,Jits_Linear_5,154,9999,9999,9999,1871795288
3819,19,Jits_Linear_5,155,9999,9999,9999,1872585832
3819,19,Jits_Linear_5,156,9999,9999,9999,1873375328
3819,19,Jits_Linear_5,157,9999,9999,9999,1874165872
3819,19,Jits_Linear_5,158,9999,9999,9999,1874955380
3819,19,Jits_Linear_5,159,9999,9999,9999,1875745860
3819,19,Jits_Linear_5,160,9999,9999,9999,1876545600
3819,19,Jits_Linear_5,161,9999,9999,9999,1877345372
3819,19,Jits_Linear_5,162,9999,9999,9999,1878145140
3819,19,Jits_Linear_5,163,9999,9999,9999,1878945884
3819,19,Jits_Linear_5,164,9999,9999,9999,1879745652
3819,19,Jits_Linear_5,165,9999,9999,9999,1880555616
3819,19,Jits_Linear_5,166,9999,9999,9999,1881365572
3819,19,Jits_Linear_5,167,9999,9999,9999,1882175572
3819,19,Jits_Linear_5,168,9999,9999,9999,1882985536
3819,19,Jits_Linear_5,169,9999,9999,9999,1883795568
3820,18,Jits_Linear_8,0,5,56,103,1896330660
3820,18,Jits_Linear_8,1,5,63,98,1896333832
3820,18,Jits_Linear_8,2,5,80,127,1896336952
3820,18,Jits_Linear_8,0,5,56,103,1897150968
3820,18,Jits_Linear_8,1,5,63,98,1897154140
3820,18,Jits_Linear_8,2,5,80,127,1897157040
3820,18,Jits_Linear_8,3,1,48,30,1897294360
3820,18,Jits_Linear_8,0,5,80,127,1897910800
3820,18,Jits_Linear_8,1,1,48,63,1898000564
3820,18,Jits_Linear_8,2,5,63,98,1898002128
3820,18,Jits_Linear_8,3,5,56,103,1898011052
3820,18,Jits_Linear_8,0,5,56,103,1898751328
3820,18,Jits_Linear_8,1,5,63,98,1898760848
3820,18,Jits_Linear_8,2,1,48,63,1898811720
3820,18,Jits_Linear_8,3,5,80,127,1898850552
3820,18,Jits_Linear_8,0,5,63,98,1899540760
3820,18,Jits_Linear_8,1,5,80,127,1899570732
3820,18,Jits_Linear_8,2,1,48,60,1899591560
3820,18,Jits_Linear_8,3,5,56,103,1899601176
3820,18,Jits_Linear_8,0,1,48,66,1900316560
3820,18,Jits_Linear_8,1,5,56,103,1900361052
3820,18,Jits_Linear_8,2,5,80,127,1900461660
3820,18,Jits_Linear_8,3,5,63,98,1900510668
3820,18,Jits_Linear_8,0,5,56,103,1901171008
3820,18,Jits_Linear_8,1,5,80,127,1901221360
3820,18,Jits_Linear_8,2,5,63,98,1901261152
3820,18,Jits_Linear_8,3,1,48,51,1901269060
3820,18,Jits_Linear_8,0,5,80,127,1902010712
3820,18,Jits_Linear_8,1,5,63,98,1902040536
3820,18,Jits_Linear_8,2,1,48,46,1902048908
3820,18,Jits_Linear_8,3,5,56,103,1902111032
3820,18,Jits_Linear_8,0,5,63,98,1902850712
3820,18,Jits_Linear_8,1,5,56,103,1902881064
3820,18,Jits_Linear_8,2,1,48,53,1902900744
3820,18,Jits_Linear_8,3,5,80,127,1902940500
3820,18,Jits_Linear_8,0,5,56,103,1903600864
3820,18,Jits_Linear_8,1,5,80,127,1903604008
3820,18,Jits_Linear_8,2,1,48,44,1903695256
3820,18,Jits_Linear_8,3,5,63,98,1903720760
3820,18,Jits_Linear_8,0,5,56,103,1904480596
3820,18,Jits_Linear_8,1,1,48,57,1904484912
3820,18,Jits_Linear_8,2,5,80,127,1904520532
3820,18,Jits_Linear_8,3,5,63,98,1904530652
3820,18,Jits_Linear_8,0,5,56,103,1905240512
3820,18,Jits_Linear_8,1,5,80,127,1905261044
3820,18,Jits_Linear_8,2,1,48,46,1905293832
3820,18,Jits_Linear_8,3,5,63,98,1905340760
3820,18,Jits_Linear_8,0,5,80,127,1906030920
3820,18,Jits_Linear_8,1,5,56,103,1906131468
3820,18,Jits_Linear_8,2,5,63,98,1906140544
3820,18,Jits_Linear_8,0,5,63,98,1906800908
3820,18,Jits_Linear_8,1,5,80,127,1906861376
3820,18,Jits_Linear_8,2,5,56,103,1906870596
3820,18,Jits_Linear_8,3,1,48,50,1906892296
3820,18,Jits_Linear_8,0,1,48,52,1907589316
3820,18,Jits_Linear_8,1,5,56,103,1907600800
3820,18,Jits_Linear_8,2,5,63,98,1907671600
3820,18,Jits_Linear_8,3,5,80,127,1907674888
3820,18,Jits_Linear_8,0,5,63,98,1908431336
3820,18,Jits_Linear_8,1,1,48,49,1908446516
3820,18,Jits_Linear_8,2,5,56,103,1908481384
3820,18,Jits_Linear_8,3,5,80,127,1908484600
3820,18,Jits_Linear_8,0,5,56,103,1909180880
3820,18,Jits_Linear_8,1,5,80,127,1909183948
3820,18,Jits_Linear_8,2,1,48,23,1909222660
3820,18,Jits_Linear_8,3,5,63,98,1909270784
3820,18,Jits_Linear_8,0,5,63,98,1910011204
3820,18,Jits_Linear_8,1,1,48,52,1910018900
3820,18,Jits_Linear_8,2,5,56,103,1910101432
3820,18,Jits_Linear_8,3,5,80,127,1910131168
3820,18,Jits_Linear_8,0,5,56,103,1910790512
3820,18,Jits_Linear_8,1,1,48,55,1910796472
3820,18,Jits_Linear_8,2,5,63,98,1910890912
3820,18,Jits_Linear_8,3,5,80,127,1910920440
3820,18,Jits_Linear_8,0,5,63,98,1911600400
3820,18,Jits_Linear_8,1,5,56,103,1911610844
3820,18,Jits_Linear_8,2,1,48,55,1911626172
3820,18,Jits_Linear_8,3,5,80,127,1911700968
3820,18,Jits_Linear_8,0,5,63,98,1912401452
3820,18,Jits_Linear_8,1,1,48,57,1912424652
3820,18,Jits_Linear_8,2,5,56,103,1912481096
3820,18,Jits_Linear_8,3,5,80,127,1912484308
3820,18,Jits_Linear_8,0,5,80,127,1913140496
3820,18,Jits_Linear_8,1,5,63,98,1913161132
3820,18,Jits_Linear_8,2,1,48,59,1913167392
3820,18,Jits_Linear_8,3,5,56,103,1913220392
3820,18,Jits_Linear_8,0,1,48,48,1913949100
3820,18,Jits_Linear_8,1,5,56,103,1913960812
3820,18,Jits_Linear_8,2,5,63,98,1913981272
3820,18,Jits_Linear_8,3,5,80,127,1913984560
3820,18,Jits_Linear_8,0,5,63,98,1914680820
3820,18,Jits_Linear_8,1,1,48,56,1914746220
3820,18,Jits_Linear_8,2,5,80,127,1914760636
3820,18,Jits_Linear_8,3,5,56,103,1914770756
3820,18,Jits_Linear_8,0,5,63,98,1915480452
3820,18,Jits_Linear_8,1,5,56,103,1915501132
3820,18,Jits_Linear_8,2,1,48,48,1915503576
3820,18,Jits_Linear_8,3,5,80,127,1915551180
3820,18,Jits_Linear_8,0,1,48,55,1916252300
3820,18,Jits_Linear_8,1,5,80,127,1916260716
3820,18,Jits_Linear_8,2,5,63,98,1916300584
3820,18,Jits_Linear_8,3,5,56,103,1916321116
3820,18,Jits_Linear_8,0,5,56,103,1917070892
3820,18,Jits_Linear_8,1,5,63,98,1917081240
3820,18,Jits_Linear_8,2,5,80,127,1917101400
3820,18,Jits_Linear_8,0,5,56,103,1917771048
3820,18,Jits_Linear_8,1,1,48,78,1917843392
3820,18,Jits_Linear_8,2,5,63,98,1917861180
3820,18,Jits_Linear_8,3,5,80,127,1917920748
3820,18,Jits_Linear_8,0,5,80,127,1918570900
3820,18,Jits_Linear_8,1,5,56,103,1918581096
3820,18,Jits_Linear_8,2,1,48,67,1918629100
3820,18,Jits_Linear_8,3,5,63,98,1918650920
3820,18,Jits_Linear_8,0,5,63,98,1919370892
3820,18,Jits_Linear_8,1,1,48,51,1919390056
3820,18,Jits_Linear_8,2,5,80,127,1919460800
3820,18,Jits_Linear_8,3,5,56,103,1919470924
3820,18,Jits_Linear_8,0,5,63,98,1920071084
3820,18,Jits_Linear_8,1,5,80,127,1920121064
3820,18,Jits_Linear_8,2,5,56,103,1920180708
3820,18,Jits_Linear_8,3,1,48,47,1920229008
3820,18,Jits_Linear_8,0,5,56,103,1920860724
3820,18,Jits_Linear_8,1,5,80,127,1920910924
3820,18,Jits_Linear_8,2,1,48,54,1920914568
3820,18,Jits_Linear_8,3,5,63,98,1920931228
3820,18,Jits_Linear_8,0,5,56,103,1921591012
3820,18,Jits_Linear_8,1,5,80,127,1921650984
3820,18,Jits_Linear_8,2,1,48,53,1921669692
3820,18,Jits_Linear_8,3,5,63,98,1921720732
3820,18,Jits_Linear_8,0,5,56,103,1922350324
3820,18,Jits_Linear_8,1,5,80,127,1922381148
3820,18,Jits_Linear_8,2,1,48,53,1922405916
3820,18,Jits_Linear_8,3,5,63,98,1922410816
3820,18,Jits_Linear_8,0,1,48,54,1923128784
3820,18,Jits_Linear_8,1,5,56,103,1923151156
3820,18,Jits_Linear_8,2,5,80,127,1923170944
3820,18,Jits_Linear_8,3,5,63,98,1923230944
3820,18,Jits_Linear_8,0,1,48,25,1923976656
3820,18,Jits_Linear_8,1,5,80,127,1923990924
3820,18,Jits_Linear_8,2,5,56,103,1924001120
3820,18,Jits_Linear_8,3,5,63,98,1924011316
3820,18,Jits_Linear_8,0,5,56,103,1924700788
3820,18,Jits_Linear_8,1,5,80,127,1924740652
3820,18,Jits_Linear_8,2,1,48,42,1924765724
3820,18,Jits_Linear_8,3,5,63,98,1924771144
3820,18,Jits_Linear_8,0,5,56,103,1925421644
3820,18,Jits_Linear_8,1,5,63,98,1925451200
3820,18,Jits_Linear_8,2,5,80,127,1925490916
3820,18,Jits_Linear_8,3,1,48,47,1925504596
3820,18,Jits_Linear_8,0,5,80,127,1926120800
3820,18,Jits_Linear_8,1,5,63,98,1926170928
3820,18,Jits_Linear_8,2,5,56,103,1926190564
3820,18,Jits_Linear_8,3,1,48,48,1926194208
3820,18,Jits_Linear_8,0,5,56,103,1926901160
3820,18,Jits_Linear_8,1,1,48,46,1926938664
3820,18,Jits_Linear_8,2,5,80,127,1926970640
3820,18,Jits_Linear_8,3,5,63,98,1927031176
3820,18,Jits_Linear_8,0,5,80,127,1927640472
3820,18,Jits_Linear_8,1,5,63,98,1927730460
3820,18,Jits_Linear_8,2,5,56,103,1927751092
3820,18,Jits_Linear_8,3,1,48,51,1927774292
3820,18,Jits_Linear_8,0,5,63,98,1928401212
3820,18,Jits_Linear_8,1,5,56,103,1928420772
3820,18,Jits_Linear_8,2,5,80,127,1928460636
3820,18,Jits_Linear_8,3,1,48,66,1928488096
3820,18,Jits_Linear_8,0,5,80,127,1929100720
3820,18,Jits_Linear_8,1,5,63,98,1929121104
3820,18,Jits_Linear_8,2,1,48,57,1929184756
3820,18,Jits_Linear_8,3,5,56,103,1929201040
3820,18,Jits_Linear_8,0,5,63,98,1929830660
3820,18,Jits_Linear_8,1,5,56,103,1929941472
3820,18,Jits_Linear_8,2,5,80,127,1929944612
3820,18,Jits_Linear_8,3,1,48,51,1929954480
3820,18,Jits_Linear_8,0,5,63,98,1930590548
3820,18,Jits_Linear_8,1,5,56,103,1930600740
3820,18,Jits_Linear_8,2,5,80,127,1930603804
3820,18,Jits_Linear_8,3,1,48,42,1930666628
3820,18,Jits_Linear_8,0,5,56,103,1931310616
3820,18,Jits_Linear_8,1,1,48,50,1931336308
3820,18,Jits_Linear_8,2,5,80,127,1931431560
3820,18,Jits_Linear_8,3,5,63,98,1931471488
3820,18,Jits_Linear_8,0,5,56,103,1932060944
3820,18,Jits_Linear_8,1,5,80,127,1932140768
3820,18,Jits_Linear_8,2,5,63,98,1932161452
3820,18,Jits_Linear_8,0,5,56,103,1932791296
3820,18,Jits_Linear_8,1,1,48,43,1932893560
3820,18,Jits_Linear_8,2,5,63,98,1932900704
3820,18,Jits_Linear_8,3,5,80,127,1932903996
3820,18,Jits_Linear_8,0,5,56,103,1933550832
3820,18,Jits_Linear_8,1,5,80,127,1933580512
3820,18,Jits_Linear_8,2,5,63,98,1933601340
3820,18,Jits_Linear_8,3,1,48,62,1933604384
3820,18,Jits_Linear_8,0,5,63,98,1934260548
3820,18,Jits_Linear_8,1,5,56,103,1934270744
3820,18,Jits_Linear_8,2,5,80,127,1934281012
3820,18,Jits_Linear_8,3,1,48,57,1934317088
3820,18,Jits_Linear_8,0,5,80,127,1934971364
3820,18,Jits_Linear_8,1,1,48,35,1935015388
3820,18,Jits_Linear_8,2,5,56,103,1935021412
3820,18,Jits_Linear_8,3,5,63,98,1935061352
3820,18,Jits_Linear_8,0,5,80,127,1935710676
3820,18,Jits_Linear_8,1,5,63,98,1935731136
3820,18,Jits_Linear_8,2,1,48,54,1935753288
3820,18,Jits_Linear_8,3,5,56,103,1935781256
3820,18,Jits_Linear_8,0,5,80,127,1936440992
3820,18,Jits_Linear_8,1,1,48,51,1936448604
3820,18,Jits_Linear_8,2,5,56,103,1936471340
3820,18,Jits_Linear_8,3,5,63,98,1936541168
3820,18,Jits_Linear_8,0,1,48,52,1937120612
3820,18,Jits_Linear_8,1,5,56,103,1937210644
3820,18,Jits_Linear_8,2,5,80,127,1937221124
3820,18,Jits_Linear_8,3,5,63,98,1937260988
3820,18,Jits_Linear_8,0,5,56,103,1937840616
3820,18,Jits_Linear_8,1,5,63,98,1937861076
3820,18,Jits_Linear_8,2,1,48,45,1937888160
3820,18,Jits_Linear_8,3,5,80,127,1937930600
3820,18,Jits_Linear_8,0,1,48,56,1938522200
3820,18,Jits_Linear_8,1,5,63,98,1938580892
3820,18,Jits_Linear_8,2,5,80,127,1938641268
3820,18,Jits_Linear_8,3,5,56,103,1938660680
3820,18,Jits_Linear_8,0,5,80,127,1939281156
3820,18,Jits_Linear_8,1,1,48,50,1939305324
3820,18,Jits_Linear_8,2,5,56,103,1939311124
3820,18,Jits_Linear_8,3,5,63,98,1939340800
3820,18,Jits_Linear_8,0,1,48,40,1939967876
3820,18,Jits_Linear_8,1,5,56,103,1939991136
3820,18,Jits_Linear_8,2,5,63,98,1940051184
3820,18,Jits_Linear_8,3,5,80,127,1940110660
3820,18,Jits_Linear_8,0,1,48,46,1940678252
3820,18,Jits_Linear_8,1,5,80,127,1940720996
3820,18,Jits_Linear_8,2,5,56,103,1940740336
3820,18,Jits_Linear_8,3,5,63,98,1940811000
3820,18,Jits_Linear_8,0,1,48,55,1941430556
3820,18,Jits_Linear_8,1,5,80,127,1941432116
3820,18,Jits_Linear_8,2,5,63,98,1941451160
3820,18,Jits_Linear_8,3,5,56,103,1941480984
3820,18,Jits_Linear_8,0,1,48,75,1942111756
3820,18,Jits_Linear_8,1,5,80,127,1942121068
3820,18,Jits_Linear_8,2,5,63,98,1942141232
3820,18,Jits_Linear_8,3,5,56,103,1942200724
3820,18,Jits_Linear_8,0,5,80,127,1942821236
3820,18,Jits_Linear_8,1,1,48,59,1942829164
3820,18,Jits_Linear_8,2,5,56,103,1942920608
3820,18,Jits_Linear_8,3,5,63,98,1942951168
3820,18,Jits_Linear_8,0,5,63,98,1943511332
3820,18,Jits_Linear_8,1,5,80,127,1943560488
3820,18,Jits_Linear_8,2,5,56,103,1943581096
3820,18,Jits_Linear_8,3,1,48,43,1943601748
3820,18,Jits_Linear_8,0,5,80,127,1944250928
3820,18,Jits_Linear_8,1,1,48,52,1944266700
3820,18,Jits_Linear_8,2,5,56,103,1944280520
3820,18,Jits_Linear_8,3,5,63,98,1944283584
3820,18,Jits_Linear_8,0,1,48,47,1944947260
3820,18,Jits_Linear_8,1,1,38,16,1944958848
3820,18,Jits_Linear_8,2,5,63,98,1944991028
3820,18,Jits_Linear_8,3,5,56,103,1945030968
3820,18,Jits_Linear_8,4,5,80,127,1945050444
3820,18,Jits_Linear_8,0,1,48,51,1945631468
3820,18,Jits_Linear_8,1,5,80,127,1945632732
3820,18,Jits_Linear_8,2,5,63,98,1945710916
3820,18,Jits_Linear_8,3,1,48,26,1945720764
3820,18,Jits_Linear_8,4,5,56,103,1945750832
3820,18,Jits_Linear_8,0,5,63,98,1946340704
3820,18,Jits_Linear_8,1,1,48,60,1946363300
3820,18,Jits_Linear_8,2,5,80,127,1946420496
3820,18,Jits_Linear_8,3,5,56,103,1946441128
3820,18,Jits_Linear_8,0,1,48,63,1947055692
3820,18,Jits_Linear_8,1,5,56,103,1947070936
3820,18,Jits_Linear_8,2,5,63,98,1947081204
3820,18,Jits_Linear_8,3,5,80,127,1947121068
3820,18,Jits_Linear_8,0,5,56,103,1947681044
3820,18,Jits_Linear_8,1,5,80,127,1947684192
3820,18,Jits_Linear_8,2,1,48,48,1947757456
3820,18,Jits_Linear_8,3,5,63,98,1947821544
3820,18,Jits_Linear_8,0,5,56,103,1948361088
3820,18,Jits_Linear_8,1,5,63,98,1948451300
3820,18,Jits_Linear_8,2,1,48,48,1948455540
3820,18,Jits_Linear_8,3,5,80,127,1948520924
3820,18,Jits_Linear_8,0,1,48,46,1949108916
3820,18,Jits_Linear_8,1,5,63,98,1949121000
3820,18,Jits_Linear_8,2,5,80,127,1949124288
3820,18,Jits_Linear_8,3,5,56,103,1949181240
3820,18,Jits_Linear_8,0,1,48,43,1949834640
3820,18,Jits_Linear_8,1,5,80,127,1949840740
3820,18,Jits_Linear_8,2,5,56,103,1949861200
3820,18,Jits_Linear_8,3,5,63,98,1949870496
3820,18,Jits_Linear_8,0,5,56,103,1950430776
3820,18,Jits_Linear_8,1,5,63,98,1950440824
3820,18,Jits_Linear_8,2,5,80,127,1950510656
3820,18,Jits_Linear_8,3,1,48,49,1950567884
3820,18,Jits_Linear_8,0,5,80,127,1951110452
3820,18,Jits_Linear_8,1,5,56,103,1951160656
3820,18,Jits_Linear_8,2,5,63,98,1951211080
3820,18,Jits_Linear_8,3,1,48,44,1951225436
3820,18,Jits_Linear_8,0,1,48,43,1951836984
3820,18,Jits_Linear_8,1,5,56,103,1951871484
3820,18,Jits_Linear_8,2,5,63,98,1951880780
3820,18,Jits_Linear_8,3,5,80,127,1951920720
3820,18,Jits_Linear_8,0,5,56,103,1952490820
3820,18,Jits_Linear_8,1,1,48,33,1952511104
3820,18,Jits_Linear_8,2,5,63,98,1952530904
3820,18,Jits_Linear_8,3,5,80,127,1952580832
3820,18,Jits_Linear_8,0,5,80,127,1953120824
3820,18,Jits_Linear_8,1,1,48,34,1953156384
3820,18,Jits_Linear_8,2,5,56,103,1953170800
3820,18,Jits_Linear_8,3,5,63,98,1953191408
3820,18,Jits_Linear_8,0,1,48,28,1953794664
3820,18,Jits_Linear_8,1,5,80,127,1953800688
3820,18,Jits_Linear_8,2,5,63,98,1953861032
3820,18,Jits_Linear_8,3,5,56,103,1953940888
3820,18,Jits_Linear_8,0,5,80,127,1954450688
3820,18,Jits_Linear_8,1,1,48,27,1954458988
3820,18,Jits_Linear_8,2,5,56,103,1954490844
3820,18,Jits_Linear_8,3,5,63,98,1954511080
3820,18,Jits_Linear_8,0,1,48,27,1955118544
3820,18,Jits_Linear_8,1,5,56,103,1955170660
3820,18,Jits_Linear_8,2,5,80,127,1955180856
3820,18,Jits_Linear_8,3,5,63,98,1955220704
3820,18,Jits_Linear_8,0,1,48,32,1955778944
3820,18,Jits_Linear_8,1,5,56,103,1955911068
3820,18,Jits_Linear_8,2,5,63,98,1955951008
3820,18,Jits_Linear_8,3,5,80,127,1955954296
3820,18,Jits_Linear_8,0,5,63,98,1956460960
3820,18,Jits_Linear_8,1,5,80,127,1956500900
3820,18,Jits_Linear_8,2,1,48,22,1956510920
3820,18,Jits_Linear_8,3,5,56,103,1956570500
3820,18,Jits_Linear_8,0,5,63,98,1957111148
3820,18,Jits_Linear_8,1,5,56,103,1957190972
3820,18,Jits_Linear_8,2,1,48,21,1957194088
3820,18,Jits_Linear_8,3,5,80,127,1957250680
3820,18,Jits_Linear_8,0,5,80,127,1957780844
3820,18,Jits_Linear_8,1,5,63,98,1957831124
3820,18,Jits_Linear_8,2,5,56,103,1957860576
3820,18,Jits_Linear_8,3,1,48,23,1957866236
3820,18,Jits_Linear_8,0,5,56,103,1958430972
3820,18,Jits_Linear_8,1,5,63,98,1958481424
3820,18,Jits_Linear_8,2,5,80,127,1958490500
3820,18,Jits_Linear_8,3,1,48,18,1958524480
3820,18,Jits_Linear_8,0,5,56,103,1959100824
3820,18,Jits_Linear_8,1,1,48,15,1959149276
3820,18,Jits_Linear_8,2,5,63,98,1959211260
3820,18,Jits_Linear_8,3,5,80,127,1959230844
3820,18,Jits_Linear_8,0,5,63,98,1959750980
3820,18,Jits_Linear_8,1,5,80,127,1959801332
3820,18,Jits_Linear_8,2,1,48,44,1959832852
3820,18,Jits_Linear_8,3,5,56,103,1959891532
3820,18,Jits_Linear_8,0,5,63,98,1960391208
3820,18,Jits_Linear_8,1,5,80,127,1960420808
3820,18,Jits_Linear_8,2,1,48,46,1960455616
3820,18,Jits_Linear_8,3,5,56,103,1960510960
3820,18,Jits_Linear_8,0,5,63,98,1961041196
3820,18,Jits_Linear_8,1,5,56,103,1961050568
3820,18,Jits_Linear_8,2,1,48,40,1961077356
3820,18,Jits_Linear_8,3,5,80,127,1961150732
3820,18,Jits_Linear_8,0,1,48,32,1961738412
3820,18,Jits_Linear_8,1,5,63,98,1961790976
3820,18,Jits_Linear_8,2,5,80,127,1961820428
3820,18,Jits_Linear_8,3,5,56,103,1961851360
3820,18,Jits_Linear_8,0,5,80,127,1962451372
3820,18,Jits_Linear_8,1,5,63,98,1962460668
3820,18,Jits_Linear_8,2,1,48,26,1962488652
3820,18,Jits_Linear_8,3,5,56,103,1962491384
3820,18,Jits_Linear_8,0,5,80,127,1962991072
3820,18,Jits_Linear_8,1,5,63,98,1963010412
3820,18,Jits_Linear_8,2,5,56,103,1963060612
3820,18,Jits_Linear_8,3,1,48,25,1963102244
3820,18,Jits_Linear_8,0,5,63,98,1963660756
3820,18,Jits_Linear_8,1,1,48,29,1963711228
3820,18,Jits_Linear_8,2,5,80,127,1963721292
3820,18,Jits_Linear_8,3,5,56,103,1963740480
3820,18,Jits_Linear_8,0,5,63,98,1964260604
3820,18,Jits_Linear_8,1,5,56,103,1964311256
3820,18,Jits_Linear_8,2,5,80,127,1964321304
3820,18,Jits_Linear_8,3,1,48,23,1964380640
3820,18,Jits_Linear_8,0,5,56,103,1964930300
3820,18,Jits_Linear_8,1,5,80,127,1964940644
3820,18,Jits_Linear_8,2,1,48,25,1964969244
3820,18,Jits_Linear_8,3,5,63,98,1965041032
3820,18,Jits_Linear_8,0,5,80,127,1965530384
3820,18,Jits_Linear_8,1,5,63,98,1965540580
3820,18,Jits_Linear_8,2,1,48,30,1965637740
3820,18,Jits_Linear_8,3,5,56,103,1965691112
3820,18,Jits_Linear_8,0,5,63,98,1966170348
3820,18,Jits_Linear_8,1,5,80,127,1966210436
3820,18,Jits_Linear_8,2,1,48,37,1966267188
3820,18,Jits_Linear_8,3,5,56,103,1966291272
3820,18,Jits_Linear_8,0,5,56,103,1966791236
3820,18,Jits_Linear_8,1,5,80,127,1966891264
3820,18,Jits_Linear_8,2,1,48,40,1966904744
3820,18,Jits_Linear_8,3,5,63,98,1966910768
3820,18,Jits_Linear_8,0,5,80,127,1967481180
3820,18,Jits_Linear_8,1,5,56,103,1967490404
3820,18,Jits_Linear_8,2,1,48,44,1967522664
3820,18,Jits_Linear_8,3,5,63,98,1967580528
3820,18,Jits_Linear_8,0,5,56,103,1968111084
3820,18,Jits_Linear_8,1,5,63,98,1968130276
3820,18,Jits_Linear_8,2,5,80,127,1968211288
3820,18,Jits_Linear_8,3,1,48,43,1968214408
3820,18,Jits_Linear_8,0,5,63,98,1968681276
3820,18,Jits_Linear_8,1,5,56,103,1968770308
3820,18,Jits_Linear_8,2,5,80,127,1968773380
3820,18,Jits_Linear_8,3,1,48,35,1968893740
3820,18,Jits_Linear_8,0,5,56,103,1969330508
3820,18,Jits_Linear_8,1,5,80,127,1969391124
3820,18,Jits_Linear_8,2,5,63,98,1969401320
3820,18,Jits_Linear_8,3,1,48,38,1969514064
3820,18,Jits_Linear_8,0,5,80,127,1970001196
3820,18,Jits_Linear_8,1,5,56,103,1970010420
3820,18,Jits_Linear_8,2,5,63,98,1970013412
3820,18,Jits_Linear_8,3,1,48,39,1970140224
3820,18,Jits_Linear_8,0,5,56,103,1970581044
3820,18,Jits_Linear_8,1,5,80,127,1970591016
3820,18,Jits_Linear_8,2,5,63,98,1970610652
3820,18,Jits_Linear_8,3,1,48,31,1970792016
3820,18,Jits_Linear_8,0,5,63,98,1971170636
3820,18,Jits_Linear_8,1,5,80,127,1971231028
3820,18,Jits_Linear_8,2,5,56,103,1971281256
3820,18,Jits_Linear_8,3,1,48,37,1971441996
3820,18,Jits_Linear_8,0,5,63,98,1971871112
3820,18,Jits_Linear_8,1,5,56,103,1971881380
3820,18,Jits_Linear_8,2,5,80,127,1971930536
3820,18,Jits_Linear_8,3,1,48,40,1972067920
3820,18,Jits_Linear_8,0,5,63,98,1972380984
3820,18,Jits_Linear_8,1,5,80,127,1972400468
3820,18,Jits_Linear_8,2,5,56,103,1972410740
3820,18,Jits_Linear_8,3,1,48,34,1972729276
3820,18,Jits_Linear_8,0,5,63,98,1972991224
3820,18,Jits_Linear_8,1,5,80,127,1972994816
3820,18,Jits_Linear_8,2,5,56,103,1973031316
3820,18,Jits_Linear_8,3,1,48,41,1973338344
3820,18,Jits_Linear_8,0,5,63,98,1973671176
3820,18,Jits_Linear_8,1,5,80,127,1973701076
3820,18,Jits_Linear_8,2,5,56,103,1973711124
3820,18,Jits_Linear_8,0,1,48,23,1974026664
3820,18,Jits_Linear_8,1,5,56,103,1974231400
3820,18,Jits_Linear_8,2,5,80,127,1974261148
3820,18,Jits_Linear_8,3,5,63,98,1974290752
3820,18,Jits_Linear_8,0,1,48,22,1974669476
3820,18,Jits_Linear_8,1,5,63,98,1974930768
3820,18,Jits_Linear_8,2,5,56,103,1974970780
3820,18,Jits_Linear_8,3,5,80,127,1974973844
3820,18,Jits_Linear_8,0,1,48,15,1975233576
3820,18,Jits_Linear_8,1,5,80,127,1975430440
3820,18,Jits_Linear_8,2,5,56,103,1975511660
3820,18,Jits_Linear_8,3,5,63,98,1975560664
3820,18,Jits_Linear_8,0,1,48,23,1975857540
3820,18,Jits_Linear_8,1,5,80,127,1976011180
3820,18,Jits_Linear_8,2,5,56,103,1976030892
3820,18,Jits_Linear_8,3,5,63,98,1976120676
3820,18,Jits_Linear_8,0,1,48,28,1976490240
3820,18,Jits_Linear_8,1,5,80,127,1976651204
3820,18,Jits_Linear_8,2,5,63,98,1976690996
3820,18,Jits_Linear_8,3,5,56,103,1976730936
3820,18,Jits_Linear_8,0,1,48,40,1977120952
3820,18,Jits_Linear_8,1,5,63,98,1977220704
3820,18,Jits_Linear_8,2,5,80,127,1977281024
3820,18,Jits_Linear_8,3,5,56,103,1977310776
3820,18,Jits_Linear_8,0,1,48,35,1977793640
3820,18,Jits_Linear_8,1,5,56,103,1977820864
3820,18,Jits_Linear_8,2,5,80,127,1977851288
3820,18,Jits_Linear_8,3,5,63,98,1977941580
3820,18,Jits_Linear_8,0,5,56,103,1978420640
3820,18,Jits_Linear_8,1,1,48,45,1978441920
3820,18,Jits_Linear_8,2,5,80,127,1978531100
3820,18,Jits_Linear_8,3,5,63,98,1978560984
3820,18,Jits_Linear_8,0,5,56,103,1979060540
3820,18,Jits_Linear_8,1,1,48,39,1979065456
3820,18,Jits_Linear_8,2,5,63,98,1979121000
3820,18,Jits_Linear_8,3,5,80,127,1979150676
3820,18,Jits_Linear_8,0,5,56,103,1979620848
3820,18,Jits_Linear_8,1,5,63,98,1979691504
3820,18,Jits_Linear_8,2,5,80,127,1979710720
3820,18,Jits_Linear_8,3,1,48,20,1979725296
3820,18,Jits_Linear_8,0,5,80,127,1980180848
3820,18,Jits_Linear_8,1,5,63,98,1980201532
3820,18,Jits_Linear_8,2,5,56,103,1980250412
3820,18,Jits_Linear_8,3,1,48,23,1980275472
3820,18,Jits_Linear_8,0,5,63,98,1980780804
3820,18,Jits_Linear_8,1,5,80,127,1980791520
3820,18,Jits_Linear_8,2,5,56,103,1980841572
3820,18,Jits_Linear_8,3,1,48,19,1980853232
3820,18,Jits_Linear_8,0,1,48,15,1981299548
3820,18,Jits_Linear_8,1,5,63,98,1981360636
3820,18,Jits_Linear_8,2,5,80,127,1981431200
3820,18,Jits_Linear_8,3,5,56,103,1981450616
3820,18,Jits_Linear_8,4,1,48,16,1981647480
3820,18,Jits_Linear_8,0,5,63,98,1981970800
3820,18,Jits_Linear_8,1,5,80,127,1981974016
3820,18,Jits_Linear_8,2,5,56,103,1982040432
3820,18,Jits_Linear_8,0,5,80,127,1982501368
3820,18,Jits_Linear_8,1,5,56,103,1982520656
3820,18,Jits_Linear_8,2,5,63,98,1982530780
3820,18,Jits_Linear_8,3,1,48,35,1982797536
3820,18,Jits_Linear_8,0,5,56,103,1983101396
3820,18,Jits_Linear_8,1,5,63,98,1983191528
3820,18,Jits_Linear_8,2,5,80,127,1983194744
3820,18,Jits_Linear_8,0,5,80,127,1983651532
3820,18,Jits_Linear_8,1,5,56,103,1983661508
3820,18,Jits_Linear_8,2,5,63,98,1983680844
3820,18,Jits_Linear_8,3,1,48,41,1983711984
3820,18,Jits_Linear_8,0,5,63,98,1984220600
3820,18,Jits_Linear_8,1,1,48,51,1984271748
3820,18,Jits_Linear_8,2,5,80,127,1984280912
3820,18,Jits_Linear_8,3,5,56,103,1984291480
3820,18,Jits_Linear_8,0,5,63,98,1984860552
3820,18,Jits_Linear_8,1,1,48,50,1984878652
3820,18,Jits_Linear_8,2,5,80,127,1984891568
3820,18,Jits_Linear_8,3,5,56,103,1984931508
3820,18,Jits_Linear_8,0,5,56,103,1985420544
3820,18,Jits_Linear_8,1,5,80,127,1985431040
3820,18,Jits_Linear_8,2,5,63,98,1985470904
3820,18,Jits_Linear_8,3,1,48,49,1985533652
3820,18,Jits_Linear_8,0,5,80,127,1985951104
3820,18,Jits_Linear_8,1,5,56,103,1986030976
3820,18,Jits_Linear_8,2,5,63,98,1986041320
3820,18,Jits_Linear_8,3,1,48,56,1986119836
3820,18,Jits_Linear_8,0,5,80,127,1986561380
3820,18,Jits_Linear_8,1,5,56,103,1986641132
3820,18,Jits_Linear_8,2,5,63,98,1986650504
3820,18,Jits_Linear_8,3,1,48,60,1986731312
3820,18,Jits_Linear_8,0,5,80,127,1987080480
3820,18,Jits_Linear_8,1,5,56,103,1987130636
3820,18,Jits_Linear_8,2,5,63,98,1987180764
3820,18,Jits_Linear_8,3,1,48,51,1987323520
3820,18,Jits_Linear_8,0,5,56,103,1987701324
3820,18,Jits_Linear_8,1,5,63,98,1987704316
3820,18,Jits_Linear_8,2,5,80,127,1987751228
3820,18,Jits_Linear_8,3,1,48,47,1987897004
3820,18,Jits_Linear_8,0,5,56,103,1988280584
3820,18,Jits_Linear_8,1,5,63,98,1988311308
3820,18,Jits_Linear_8,2,5,80,127,1988320532
3820,18,Jits_Linear_8,0,1,48,48,1988554804
3820,18,Jits_Linear_8,1,5,63,98,1988750696
3820,18,Jits_Linear_8,2,5,56,103,1988821428
3820,18,Jits_Linear_8,3,5,80,127,1988870508
3820,18,Jits_Linear_8,0,1,48,35,1989146036
3820,18,Jits_Linear_8,1,5,63,98,1989340580
3820,18,Jits_Linear_8,2,5,56,103,1989351080
3820,18,Jits_Linear_8,3,5,80,127,1989353840
3820,18,Jits_Linear_8,0,5,80,127,1989841236
3820,18,Jits_Linear_8,1,1,48,49,1989858900
3820,18,Jits_Linear_8,2,5,56,103,1989900724
3820,18,Jits_Linear_8,3,5,63,98,1989990720
3820,18,Jits_Linear_8,0,5,80,127,1990391120
3820,18,Jits_Linear_8,1,5,56,103,1990490424
3820,18,Jits_Linear_8,2,5,63,98,1990530288
3820,18,Jits_Linear_8,3,1,48,40,1990556620
3820,18,Jits_Linear_8,0,5,56,103,1990991236
3820,18,Jits_Linear_8,1,5,63,98,1991010652
3820,18,Jits_Linear_8,2,5,80,127,1991050588
3820,18,Jits_Linear_8,3,1,48,47,1991103528
3820,18,Jits_Linear_8,0,5,63,98,1991511456
3820,18,Jits_Linear_8,1,5,56,103,1991530800
3820,18,Jits_Linear_8,2,5,80,127,1991631192
3820,18,Jits_Linear_8,3,1,48,34,1991675880
3820,18,Jits_Linear_8,0,5,63,98,1992040956
3820,18,Jits_Linear_8,1,5,80,127,1992151396
3820,18,Jits_Linear_8,2,5,56,103,1992181220
3820,18,Jits_Linear_8,3,1,48,34,1992264444
3820,18,Jits_Linear_8,0,5,56,103,1992601024
3820,18,Jits_Linear_8,1,5,63,98,1992630628
3820,18,Jits_Linear_8,2,5,80,127,1992680752
3820,18,Jits_Linear_8,3,1,48,41,1992854100
3820,18,Jits_Linear_8,0,5,63,98,1993111128
3820,18,Jits_Linear_8,1,5,56,103,1993140508
3820,18,Jits_Linear_8,2,5,80,127,1993190708
3820,18,Jits_Linear_8,3,1,48,35,1993405556
3820,18,Jits_Linear_8,0,5,56,103,1993681228
3820,18,Jits_Linear_8,1,5,63,98,1993701012
3820,18,Jits_Linear_8,2,5,80,127,1993780684
3820,18,Jits_Linear_8,0,1,48,35,1994009632
3820,18,Jits_Linear_8,1,5,63,98,1994191196
3820,18,Jits_Linear_8,2,5,56,103,1994250464
3820,18,Jits_Linear_8,3,5,80,127,1994281264
3820,18,Jits_Linear_8,0,5,56,103,1994770976
3820,18,Jits_Linear_8,1,5,80,127,1994831168
3820,18,Jits_Linear_8,2,1,48,44,1994838124
3820,18,Jits_Linear_8,3,5,63,98,1994871100
3820,18,Jits_Linear_8,0,5,63,98,1995291124
3820,18,Jits_Linear_8,1,5,56,103,1995351392
3820,18,Jits_Linear_8,2,1,48,42,1995402980
3820,18,Jits_Linear_8,3,5,80,127,1995420988
3820,18,Jits_Linear_8,0,5,56,103,1995901264
3820,18,Jits_Linear_8,1,5,63,98,1995910484
3820,18,Jits_Linear_8,2,5,80,127,1995914072
3820,18,Jits_Linear_8,3,1,48,50,1995937800
3820,18,Jits_Linear_8,0,5,63,98,1996371280
3820,18,Jits_Linear_8,1,5,56,103,1996430848
3820,18,Jits_Linear_8,2,5,80,127,1996433764
3820,18,Jits_Linear_8,3,1,48,58,1996465876
3820,18,Jits_Linear_8,0,5,63,98,1996881364
3820,18,Jits_Linear_8,1,5,80,127,1996910892
3820,18,Jits_Linear_8,2,5,56,103,1996930304
3820,18,Jits_Linear_8,3,1,48,70,1997028944
3820,18,Jits_Linear_8,0,5,56,103,1997410632
3820,18,Jits_Linear_8,1,5,63,98,1997460988
3820,18,Jits_Linear_8,2,5,80,127,1997540928
3820,18,Jits_Linear_8,3,1,48,58,1997587044
3820,18,Jits_Linear_8,0,5,80,127,1997911524
3820,18,Jits_Linear_8,1,5,63,98,1997951392
3820,18,Jits_Linear_8,2,5,56,103,1997970728
3820,18,Jits_Linear_8,3,1,48,66,1998099560
3820,18,Jits_Linear_8,0,5,56,103,1998501124
3820,18,Jits_Linear_8,1,5,80,127,1998510496
3820,18,Jits_Linear_8,2,5,63,98,1998530956
3820,18,Jits_Linear_8,3,1,48,29,1998675904
3820,18,Jits_Linear_8,0,5,56,103,1999000820
3820,18,Jits_Linear_8,1,5,63,98,1999051248
3820,18,Jits_Linear_8,2,5,80,127,1999080920
3820,18,Jits_Linear_8,3,1,48,45,1999209104
3820,18,Jits_Linear_8,0,5,56,103,1999471068
3820,18,Jits_Linear_8,1,5,63,98,1999481340
3820,18,Jits_Linear_8,2,5,80,127,1999531464
3820,18,Jits_Linear_8,3,1,48,36,1999751936
3820,18,Jits_Linear_8,0,5,56,103,1999980940
3820,18,Jits_Linear_8,1,5,80,127,1999984080
3820,18,Jits_Linear_8,2,5,63,98,2000140672
3820,18,Jits_Linear_8,3,1,48,36,2000264424
3820,18,Jits_Linear_8,0,5,63,98,2000511640
3820,18,Jits_Linear_8,1,5,56,103,2000580880
3820,18,Jits_Linear_8,2,5,80,127,2000620892
3820,18,Jits_Linear_8,3,1,48,30,2000803904
3820,18,Jits_Linear_8,0,5,63,98,2001061372
3820,18,Jits_Linear_8,1,5,56,103,2001151280
3820,18,Jits_Linear_8,2,5,80,127,2001154572
3820,18,Jits_Linear_8,3,1,48,35,2001323580
3820,18,Jits_Linear_8,0,5,56,103,2001550632
3820,18,Jits_Linear_8,1,5,63,98,2001640920
3820,18,Jits_Linear_8,2,5,80,127,2001651116
3820,18,Jits_Linear_8,0,1,48,25,2001953952
3820,18,Jits_Linear_8,1,5,56,103,2002030952
3820,18,Jits_Linear_8,2,5,63,98,2002080992
3820,18,Jits_Linear_8,3,5,80,127,2002110892
3820,18,Jits_Linear_8,0,1,48,23,2002577500
3820,18,Jits_Linear_8,1,5,63,98,2002610720
3820,18,Jits_Linear_8,2,5,80,127,2002620768
3820,18,Jits_Linear_8,3,5,56,103,2002681144
3820,18,Jits_Linear_8,0,5,63,98,2003031740
3820,18,Jits_Linear_8,1,5,80,127,2003090788
3820,18,Jits_Linear_8,2,5,56,103,2003130728
3820,18,Jits_Linear_8,3,1,48,29,2003160744
3820,18,Jits_Linear_8,0,5,56,103,2003630544
3820,18,Jits_Linear_8,1,5,80,127,2003650780
3820,18,Jits_Linear_8,2,5,63,98,2003671760
3820,18,Jits_Linear_8,3,1,48,30,2003708288
3820,18,Jits_Linear_8,0,5,63,98,2004051276
3820,18,Jits_Linear_8,1,5,56,103,2004070760
3820,18,Jits_Linear_8,2,5,80,127,2004110776
3820,18,Jits_Linear_8,3,1,48,29,2004273684
3820,18,Jits_Linear_8,0,5,63,98,2004561360
3820,18,Jits_Linear_8,1,5,80,127,2004590816
3820,18,Jits_Linear_8,2,5,56,103,2004610376
3820,18,Jits_Linear_8,3,1,48,16,2004812564
3820,18,Jits_Linear_8,0,5,80,127,2005031420
3820,18,Jits_Linear_8,1,5,56,103,2005080600
3820,18,Jits_Linear_8,2,5,63,98,2005140840
3820,18,Jits_Linear_8,0,1,48,22,2005356380
3820,18,Jits_Linear_8,1,5,63,98,2005510668
3820,18,Jits_Linear_8,2,5,56,103,2005631400
3820,18,Jits_Linear_8,3,5,80,127,2005661000
3820,18,Jits_Linear_8,0,1,48,23,2005940888
3820,18,Jits_Linear_8,1,5,80,127,2006040924
3820,18,Jits_Linear_8,2,5,63,98,2006061532
3820,18,Jits_Linear_8,3,5,56,103,2006131164
3820,18,Jits_Linear_8,0,1,48,29,2006546652
3820,18,Jits_Linear_8,1,5,63,98,2006550876
3820,18,Jits_Linear_8,2,5,56,103,2006561072
3820,18,Jits_Linear_8,3,5,80,127,2006641028
3820,18,Jits_Linear_8,0,5,56,103,2007100864
3820,18,Jits_Linear_8,1,5,80,127,2007130540
3820,18,Jits_Linear_8,2,5,63,98,2007140812
3820,18,Jits_Linear_8,3,1,48,28,2007159148
3820,18,Jits_Linear_8,0,9999,9999,9999,1896738940
3820,18,Jits_Linear_8,1,9999,9999,9999,1897558132
3820,18,Jits_Linear_8,2,9999,9999,9999,1898378356
3820,18,Jits_Linear_8,3,9999,9999,9999,1899198580
3820,18,Jits_Linear_8,4,9999,9999,9999,1900018796
3820,18,Jits_Linear_8,5,9999,9999,9999,1900828744
3820,18,Jits_Linear_8,6,9999,9999,9999,1901638712
3820,18,Jits_Linear_8,7,9999,9999,9999,1902448744
3820,18,Jits_Linear_8,8,9999,9999,9999,1903258708
3820,18,Jits_Linear_8,9,9999,9999,9999,1904068712
3820,18,Jits_Linear_8,10,9999,9999,9999,1904868416
3820,18,Jits_Linear_8,11,9999,9999,9999,1905668188
3820,18,Jits_Linear_8,12,9999,9999,9999,1906468956
3820,18,Jits_Linear_8,13,9999,9999,9999,1907268684
3820,18,Jits_Linear_8,14,9999,9999,9999,1908068424
3820,18,Jits_Linear_8,15,9999,9999,9999,1908858952
3820,18,Jits_Linear_8,16,9999,9999,9999,1909648500
3820,18,Jits_Linear_8,17,9999,9999,9999,1910438980
3820,18,Jits_Linear_8,18,9999,9999,9999,1911228476
3820,18,Jits_Linear_8,19,9999,9999,9999,1912019032
3820,18,Jits_Linear_8,20,9999,9999,9999,1912798332
3820,18,Jits_Linear_8,21,9999,9999,9999,1913578604
3820,18,Jits_Linear_8,22,9999,9999,9999,1914358884
3820,18,Jits_Linear_8,23,9999,9999,9999,1915138112
3820,18,Jits_Linear_8,24,9999,9999,9999,1915918456
3820,18,Jits_Linear_8,25,9999,9999,9999,1916688472
3820,18,Jits_Linear_8,26,9999,9999,9999,1917458504
3820,18,Jits_Linear_8,27,9999,9999,9999,1918228548
3820,18,Jits_Linear_8,28,9999,9999,9999,1918998644
3820,18,Jits_Linear_8,29,9999,9999,9999,1919768680
3820,18,Jits_Linear_8,30,9999,9999,9999,1920528500
3820,18,Jits_Linear_8,31,9999,9999,9999,1921288248
3820,18,Jits_Linear_8,32,9999,9999,9999,1922048080
3820,18,Jits_Linear_8,33,9999,9999,9999,1922808960
3820,18,Jits_Linear_8,34,9999,9999,9999,1923568720
3820,18,Jits_Linear_8,35,9999,9999,9999,1924318292
3820,18,Jits_Linear_8,36,9999,9999,9999,1925068904
3820,18,Jits_Linear_8,37,9999,9999,9999,1925818484
3820,18,Jits_Linear_8,38,9999,9999,9999,1926569024
3820,18,Jits_Linear_8,39,9999,9999,9999,1927318600
3820,18,Jits_Linear_8,40,9999,9999,9999,1928058960
3820,18,Jits_Linear_8,41,9999,9999,9999,1928798268
3820,18,Jits_Linear_8,42,9999,9999,9999,1929538680
3820,18,Jits_Linear_8,43,9999,9999,9999,1930279000
3820,18,Jits_Linear_8,44,9999,9999,9999,1931018352
3820,18,Jits_Linear_8,45,9999,9999,9999,1931748436
3820,18,Jits_Linear_8,46,9999,9999,9999,1932478552
3820,18,Jits_Linear_8,47,9999,9999,9999,1933208652
3820,18,Jits_Linear_8,48,9999,9999,9999,1933938748
3820,18,Jits_Linear_8,49,9999,9999,9999,1934668912
3820,18,Jits_Linear_8,50,9999,9999,9999,1935388776
3820,18,Jits_Linear_8,51,9999,9999,9999,1936108608
3820,18,Jits_Linear_8,52,9999,9999,9999,1936828516
3820,18,Jits_Linear_8,53,9999,9999,9999,1937548352
3820,18,Jits_Linear_8,54,9999,9999,9999,1938268236
3820,18,Jits_Linear_8,55,9999,9999,9999,1938978904
3820,18,Jits_Linear_8,56,9999,9999,9999,1939688528
3820,18,Jits_Linear_8,57,9999,9999,9999,1940398172
3820,18,Jits_Linear_8,58,9999,9999,9999,1941108848
3820,18,Jits_Linear_8,59,9999,9999,9999,1941818472
3820,18,Jits_Linear_8,60,9999,9999,9999,1942518860
3820,18,Jits_Linear_8,61,9999,9999,9999,1943218228
3820,18,Jits_Linear_8,62,9999,9999,9999,1943918652
3820,18,Jits_Linear_8,63,9999,9999,9999,1944619104
3820,18,Jits_Linear_8,64,9999,9999,9999,1945328720
3820,18,Jits_Linear_8,65,9999,9999,9999,1946018924
3820,18,Jits_Linear_8,66,9999,9999,9999,1946709072
3820,18,Jits_Linear_8,67,9999,9999,9999,1947398228
3820,18,Jits_Linear_8,68,9999,9999,9999,1948088444
3820,18,Jits_Linear_8,69,9999,9999,9999,1948778604
3820,18,Jits_Linear_8,70,9999,9999,9999,1949458548
3820,18,Jits_Linear_8,71,9999,9999,9999,1950138440
3820,18,Jits_Linear_8,72,9999,9999,9999,1950818396
3820,18,Jits_Linear_8,73,9999,9999,9999,1951498348
3820,18,Jits_Linear_8,74,9999,9999,9999,1952178252
3820,18,Jits_Linear_8,75,9999,9999,9999,1952849000
3820,18,Jits_Linear_8,76,9999,9999,9999,1953518684
3820,18,Jits_Linear_8,77,9999,9999,9999,1954188396
3820,18,Jits_Linear_8,78,9999,9999,9999,1954859104
3820,18,Jits_Linear_8,79,9999,9999,9999,1955539004
3820,18,Jits_Linear_8,80,9999,9999,9999,1956198516
3820,18,Jits_Linear_8,81,9999,9999,9999,1956858968
3820,18,Jits_Linear_8,82,9999,9999,9999,1957518400
3820,18,Jits_Linear_8,83,9999,9999,9999,1958178924
3820,18,Jits_Linear_8,84,9999,9999,9999,1958838364
3820,18,Jits_Linear_8,85,9999,9999,9999,1959488600
3820,18,Jits_Linear_8,86,9999,9999,9999,1960138880
3820,18,Jits_Linear_8,87,9999,9999,9999,1960789092
3820,18,Jits_Linear_8,88,9999,9999,9999,1961438304
3820,18,Jits_Linear_8,89,9999,9999,9999,1962088528
3820,18,Jits_Linear_8,90,9999,9999,9999,1962728540
3820,18,Jits_Linear_8,91,9999,9999,9999,1963368552
3820,18,Jits_Linear_8,92,9999,9999,9999,1964008572
3820,18,Jits_Linear_8,93,9999,9999,9999,1964648520
3820,18,Jits_Linear_8,94,9999,9999,9999,1965288524
3820,18,Jits_Linear_8,95,9999,9999,9999,1965918300
3820,18,Jits_Linear_8,96,9999,9999,9999,1966549100
3820,18,Jits_Linear_8,97,9999,9999,9999,1967178864
3820,18,Jits_Linear_8,98,9999,9999,9999,1967808616
3820,18,Jits_Linear_8,99,9999,9999,9999,1968438396
3820,18,Jits_Linear_8,100,9999,9999,9999,1969058924
3820,18,Jits_Linear_8,101,9999,9999,9999,1969678400
3820,18,Jits_Linear_8,102,9999,9999,9999,1970298956
3820,18,Jits_Linear_8,103,9999,9999,9999,1970918516
3820,18,Jits_Linear_8,104,9999,9999,9999,1971539020
3820,18,Jits_Linear_8,105,9999,9999,9999,1972148300
3820,18,Jits_Linear_8,106,9999,9999,9999,1972758624
3820,18,Jits_Linear_8,107,9999,9999,9999,1973368888
3820,18,Jits_Linear_8,108,9999,9999,9999,1973978184
3820,18,Jits_Linear_8,109,9999,9999,9999,1974588476
3820,18,Jits_Linear_8,110,9999,9999,9999,1975188548
3820,18,Jits_Linear_8,111,9999,9999,9999,1975788620
3820,18,Jits_Linear_8,112,9999,9999,9999,1976388708
3820,18,Jits_Linear_8,113,9999,9999,9999,1976988780
3820,18,Jits_Linear_8,114,9999,9999,9999,1977588848
3820,18,Jits_Linear_8,115,9999,9999,9999,1978178676
3820,18,Jits_Linear_8,116,9999,9999,9999,1978768488
3820,18,Jits_Linear_8,117,9999,9999,9999,1979358316
3820,18,Jits_Linear_8,118,9999,9999,9999,1979948140
3820,18,Jits_Linear_8,119,9999,9999,9999,1980538948
3820,18,Jits_Linear_8,120,9999,9999,9999,1981118576
3820,18,Jits_Linear_8,121,9999,9999,9999,1981698116
3820,18,Jits_Linear_8,122,9999,9999,9999,1982278724
3820,18,Jits_Linear_8,123,9999,9999,9999,1982858360
3820,18,Jits_Linear_8,124,9999,9999,9999,1983438964
3820,18,Jits_Linear_8,125,9999,9999,9999,1984008264
3820,18,Jits_Linear_8,126,9999,9999,9999,1984578628
3820,18,Jits_Linear_8,127,9999,9999,9999,1985149036
3820,18,Jits_Linear_8,128,9999,9999,9999,1985718392
3820,18,Jits_Linear_8,129,9999,9999,9999,1986288732
3820,18,Jits_Linear_8,130,9999,9999,9999,1986848892
3820,18,Jits_Linear_8,131,9999,9999,9999,1987409008
3820,18,Jits_Linear_8,132,9999,9999,9999,1987968092
3820,18,Jits_Linear_8,133,9999,9999,9999,1988528184
3820,18,Jits_Linear_8,134,9999,9999,9999,1989088348
3820,18,Jits_Linear_8,135,9999,9999,9999,1989638212
3820,18,Jits_Linear_8,136,9999,9999,9999,1990188160
3820,18,Jits_Linear_8,137,9999,9999,9999,1990739040
3820,18,Jits_Linear_8,138,9999,9999,9999,1991288932
3820,18,Jits_Linear_8,139,9999,9999,9999,1991838820
3820,18,Jits_Linear_8,140,9999,9999,9999,1992378440
3820,18,Jits_Linear_8,141,9999,9999,9999,1992918140
3820,18,Jits_Linear_8,142,9999,9999,9999,1993458808
3820,18,Jits_Linear_8,143,9999,9999,9999,1993998428
3820,18,Jits_Linear_8,144,9999,9999,9999,1994539108
3820,18,Jits_Linear_8,145,9999,9999,9999,1995078740
3820,18,Jits_Linear_8,146,9999,9999,9999,1995608176
3820,18,Jits_Linear_8,147,9999,9999,9999,1996138568
3820,18,Jits_Linear_8,148,9999,9999,9999,1996669044
3820,18,Jits_Linear_8,149,9999,9999,9999,1997198460
3820,18,Jits_Linear_8,150,9999,9999,9999,1997718596
3820,18,Jits_Linear_8,151,9999,9999,9999,1998238812
3820,18,Jits_Linear_8,152,9999,9999,9999,1998758980
3820,18,Jits_Linear_8,153,9999,9999,9999,1999278156
3820,18,Jits_Linear_8,154,9999,9999,9999,1999798368
3820,18,Jits_Linear_8,155,9999,9999,9999,2000308316
3820,18,Jits_Linear_8,156,9999,9999,9999,2000818276
3820,18,Jits_Linear_8,157,9999,9999,9999,2001328216
3820,18,Jits_Linear_8,158,9999,9999,9999,2001838172
3820,18,Jits_Linear_8,159,9999,9999,9999,2002348136
3820,18,Jits_Linear_8,160,9999,9999,9999,2002848868
3820,18,Jits_Linear_8,161,9999,9999,9999,2003348544
3820,18,Jits_Linear_8,162,9999,9999,9999,2003848304
3820,18,Jits_Linear_8,163,9999,9999,9999,2004348984
3820,18,Jits_Linear_8,164,9999,9999,9999,2004848736
3820,18,Jits_Linear_8,165,9999,9999,9999,2005338232
3820,18,Jits_Linear_8,166,9999,9999,9999,2005828724
3820,18,Jits_Linear_8,167,9999,9999,9999,2006318192
3820,18,Jits_Linear_8,168,9999,9999,9999,2006808652
3820,18,Jits_Linear_8,169,9999,9999,9999,2007298152
3821,5,ISIP_5,0,5,42,127,2068404492
3821,5,ISIP_5,1,5,42,127,2068905256
3821,5,ISIP_5,2,5,42,127,2069405196
3821,5,ISIP_5,3,1,48,31,2069444440
3821,5,ISIP_5,4,5,42,127,2069905040
3821,5,ISIP_5,5,1,48,54,2069912420
3821,5,ISIP_5,6,5,42,127,2070404584
3821,5,ISIP_5,7,1,48,50,2070423788
3821,5,ISIP_5,8,5,42,127,2070905176
3821,5,ISIP_5,9,1,48,42,2070921388
3821,5,ISIP_5,10,5,42,127,2071405020
3821,5,ISIP_5,11,1,48,49,2071430212
3821,5,ISIP_5,12,5,42,127,2071904716
3821,5,ISIP_5,13,1,48,49,2071926312
3821,5,ISIP_5,14,5,42,127,2072405456
3821,5,ISIP_5,15,1,48,45,2072414860
3821,5,ISIP_5,16,5,42,127,2072905152
3821,5,ISIP_5,17,1,48,56,2072916052
3821,5,ISIP_5,18,5,42,127,2073404920
3821,5,ISIP_5,19,1,48,53,2073409988
3821,5,ISIP_5,20,5,42,127,2073904616
3821,5,ISIP_5,21,1,48,49,2073936088
3821,5,ISIP_5,22,5,42,127,2074405188
3821,5,ISIP_5,23,1,48,52,2074408008
3821,5,ISIP_5,24,5,42,127,2074905032
3821,5,ISIP_5,25,1,48,56,2074910172
3821,5,ISIP_5,26,5,42,127,2075404576
3821,5,ISIP_5,27,1,48,48,2075424824
3821,5,ISIP_5,28,5,42,127,2075905244
3821,5,ISIP_5,29,1,48,49,2075918908
3821,5,ISIP_5,30,5,42,127,2076405160
3821,5,ISIP_5,31,1,48,60,2076413592
3821,5,ISIP_5,32,5,42,127,2076904780
3821,5,ISIP_5,33,1,48,53,2076937596
3821,5,ISIP_5,34,5,42,127,2077404700
3821,5,ISIP_5,35,1,48,47,2077440060
3821,5,ISIP_5,36,5,42,127,2077905216
3821,5,ISIP_5,37,1,48,50,2077948428
3821,5,ISIP_5,38,5,42,127,2078404988
3821,5,ISIP_5,39,1,48,56,2078439372
3821,5,ISIP_5,40,5,42,127,2078904608
3821,5,ISIP_5,41,1,48,62,2078931068
3821,5,ISIP_5,42,5,42,127,2079405500
3821,5,ISIP_5,43,1,48,59,2079414152
3821,5,ISIP_5,44,5,42,127,2079905120
3821,5,ISIP_5,45,1,48,50,2079932628
3821,5,ISIP_5,46,5,42,127,2080404964
3821,5,ISIP_5,47,1,48,59,2080420204
3821,5,ISIP_5,48,5,42,127,2080904736
3821,5,ISIP_5,49,1,48,55,2080914360
3821,5,ISIP_5,50,1,48,48,2081397360
3821,5,ISIP_5,51,5,42,127,2081405544
3821,5,ISIP_5,52,5,42,127,2081904948
3821,5,ISIP_5,53,1,48,54,2081926396
3821,5,ISIP_5,54,5,42,127,2082404792
3821,5,ISIP_5,55,1,48,74,2082412704
3821,5,ISIP_5,56,5,42,127,2082904340
3821,5,ISIP_5,57,1,48,56,2082942164
3821,5,ISIP_5,58,5,42,127,2083405380
3821,5,ISIP_5,59,1,48,54,2083422712
3821,5,ISIP_5,60,5,42,127,2083904848
3821,5,ISIP_5,61,1,48,38,2083931456
3821,5,ISIP_5,62,5,42,127,2084404544
3821,5,ISIP_5,63,1,48,45,2084425016
3821,5,ISIP_5,64,1,48,68,2084896172
3821,5,ISIP_5,65,5,42,127,2084905404
3821,5,ISIP_5,66,1,48,58,2085392948
3821,5,ISIP_5,67,5,42,127,2085405248
3821,5,ISIP_5,68,1,48,52,2085902144
3821,5,ISIP_5,69,5,42,127,2085904868
3821,5,ISIP_5,70,1,48,54,2086397576
3821,5,ISIP_5,71,5,42,127,2086404492
3821,5,ISIP_5,72,5,42,127,2086905164
3821,5,ISIP_5,73,1,48,64,2086915540
3821,5,ISIP_5,74,5,42,127,2087404936
3821,5,ISIP_5,75,1,48,60,2087430044
3821,5,ISIP_5,76,5,42,127,2087904556
3821,5,ISIP_5,77,1,48,52,2087937368
3821,5,ISIP_5,78,1,48,73,2088424716
3821,5,ISIP_5,79,1,48,52,2088930468
3821,5,ISIP_5,80,1,48,60,2089452072
3821,5,ISIP_5,81,1,48,63,2089940172
3821,5,ISIP_5,82,1,48,50,2090424676
3821,5,ISIP_5,83,1,48,57,2090920700
3821,5,ISIP_5,84,1,48,71,2091417700
3821,5,ISIP_5,85,1,48,65,2091912900
3821,5,ISIP_5,86,1,48,65,2092409004
3821,5,ISIP_5,87,1,48,70,2092919612
3821,5,ISIP_5,88,1,48,64,2093416984
3821,5,ISIP_5,89,1,48,59,2093919520
3821,5,ISIP_5,90,1,48,61,2094411056
3821,5,ISIP_5,91,1,48,65,2094921216
3821,5,ISIP_5,92,1,48,51,2095446340
3821,5,ISIP_5,93,1,48,63,2095937656
3821,5,ISIP_5,94,1,48,49,2096425276
3821,5,ISIP_5,95,1,48,60,2096911128
3821,5,ISIP_5,96,1,48,52,2097404012
3821,5,ISIP_5,97,1,48,57,2097883268
3821,5,ISIP_5,98,1,48,55,2098380268
3821,5,ISIP_5,99,1,48,55,2098880328
3821,5,ISIP_5,100,1,48,47,2099407856
3821,5,ISIP_5,101,1,48,56,2099895640
3821,5,ISIP_5,102,1,48,52,2100392784
3821,5,ISIP_5,103,1,48,59,2100862560
3821,5,ISIP_5,104,1,48,51,2101384088
3821,5,ISIP_5,105,1,48,53,2101878620
3821,5,ISIP_5,106,1,48,56,2102378540
3821,5,ISIP_5,107,1,48,39,2102875080
3821,5,ISIP_5,108,1,48,63,2103349192
3821,5,ISIP_5,109,1,48,52,2103869904
3821,5,ISIP_5,110,1,48,51,2104354756
3821,5,ISIP_5,111,1,48,48,2104846744
3821,5,ISIP_5,112,1,48,46,2105346212
3821,5,ISIP_5,113,1,48,54,2105818972
3821,5,ISIP_5,114,1,48,42,2106328316
3821,5,ISIP_5,115,1,48,57,2106810948
3821,5,ISIP_5,116,1,48,47,2107306452
3821,5,ISIP_5,117,1,48,62,2107800684
3821,5,ISIP_5,118,1,48,49,2108300148
3821,5,ISIP_5,119,1,48,56,2108781440
3821,5,ISIP_5,120,1,48,62,2109283896
3821,5,ISIP_5,121,1,48,47,2109784784
3821,5,ISIP_5,122,1,48,58,2110255680
3821,5,ISIP_5,123,1,48,45,2110765544
3821,5,ISIP_5,124,1,48,57,2111243296
3821,5,ISIP_5,125,1,48,56,2111724280
3821,5,ISIP_5,126,1,48,59,2112229732
3821,5,ISIP_5,127,1,48,52,2112733832
3821,5,ISIP_5,128,1,48,51,2113218644
3821,5,ISIP_5,129,1,48,49,2113718560
3821,5,ISIP_5,130,1,48,56,2114207476
3821,5,ISIP_5,131,1,48,40,2114695352
3821,5,ISIP_5,132,1,48,55,2115181280
3821,5,ISIP_5,133,1,48,55,2115665856
3821,5,ISIP_5,134,1,48,52,2116165620
3821,5,ISIP_5,135,1,48,50,2116653496
3821,5,ISIP_5,136,1,48,57,2117160420
3821,5,ISIP_5,137,1,48,52,2117652780
3821,5,ISIP_5,138,1,48,57,2118146632
3821,5,ISIP_5,139,1,48,54,2118630092
3821,5,ISIP_5,140,1,48,48,2119145188
3821,5,ISIP_5,141,1,48,48,2119653180
3821,5,ISIP_5,142,1,48,54,2120117272
3821,5,ISIP_5,143,1,48,48,2120618308
3821,5,ISIP_5,144,1,48,46,2121108048
3821,5,ISIP_5,145,1,48,43,2121578872
3821,5,ISIP_5,146,1,48,51,2122079980
3821,5,ISIP_5,147,1,48,43,2122562992
3821,5,ISIP_5,148,1,48,54,2123065144
3821,5,ISIP_5,149,1,48,54,2123559056
3821,5,ISIP_5,150,1,48,57,2124048576
3821,5,ISIP_5,151,1,48,59,2124528140
3821,5,ISIP_5,152,1,48,56,2125041444
3821,5,ISIP_5,153,1,48,63,2125549888
3821,5,ISIP_5,154,1,48,62,2126046216
3821,5,ISIP_5,155,1,48,59,2126543884
3821,5,ISIP_5,156,1,48,46,2127054192
3821,5,ISIP_5,157,1,48,53,2127560540
3821,5,ISIP_5,158,1,48,54,2128065620
3821,5,ISIP_5,159,1,48,51,2128566804
3821,5,ISIP_5,160,1,48,54,2129084596
3821,5,ISIP_5,161,1,48,55,2129577556
3821,5,ISIP_5,162,1,48,49,2130114340
3821,5,ISIP_5,163,1,48,42,2130584040
3821,5,ISIP_5,164,1,48,55,2131107440
3821,5,ISIP_5,165,1,48,51,2131586492
3821,5,ISIP_5,166,1,48,48,2132085060
3821,5,ISIP_5,167,1,48,44,2132584072
3821,5,ISIP_5,168,1,48,60,2133083540
3821,5,ISIP_5,169,1,48,48,2133611280
3821,5,ISIP_5,170,1,48,49,2134087336
3821,5,ISIP_5,171,1,48,56,2134585532
3821,5,ISIP_5,172,1,48,55,2135102196
3821,5,ISIP_5,173,1,48,50,2135597852
3821,5,ISIP_5,174,1,48,47,2136115420
3821,5,ISIP_5,175,1,48,62,2136591072
3821,5,ISIP_5,176,1,48,59,2137100416
3821,5,ISIP_5,177,1,48,54,2137586564
3821,5,ISIP_5,178,1,48,57,2138084008
3821,5,ISIP_5,179,1,48,53,2138572556
3821,5,ISIP_5,180,1,48,53,2139063868
3821,5,ISIP_5,181,1,48,56,2139545760
3821,5,ISIP_5,182,1,48,47,2140055844
3821,5,ISIP_5,183,1,48,59,2140550376
3821,5,ISIP_5,184,1,48,55,2141050664
3821,5,ISIP_5,185,1,48,58,2141531656
3821,5,ISIP_5,186,1,48,61,2142030972
3821,5,ISIP_5,187,1,48,57,2142518772
3821,5,ISIP_5,188,1,48,54,2143006844
3821,5,ISIP_5,189,1,48,50,2143517156
3821,5,ISIP_5,190,1,48,58,2144044100
3821,5,ISIP_5,191,1,48,48,2144531120
3821,5,ISIP_5,192,1,48,46,2145031264
3821,5,ISIP_5,193,1,48,53,2145524892
3821,5,ISIP_5,194,1,48,54,2146025104
3821,5,ISIP_5,195,1,48,51,2146526444
3821,5,ISIP_5,196,1,48,56,2147006684
3821,5,ISIP_5,197,1,48,55,2147520432
3821,5,ISIP_5,198,1,48,52,2148018484
3821,5,ISIP_5,0,9999,9999,9999,2068402280
3821,5,ISIP_5,1,9999,9999,9999,2068902968
3821,5,ISIP_5,2,9999,9999,9999,2069402684
3821,5,ISIP_5,3,9999,9999,9999,2069902456
3821,5,ISIP_5,4,9999,9999,9999,2070402148
3821,5,ISIP_5,5,9999,9999,9999,2070902892
3821,5,ISIP_5,6,9999,9999,9999,2071402584
3821,5,ISIP_5,7,9999,9999,9999,2071902280
3821,5,ISIP_5,8,9999,9999,9999,2072403024
3821,5,ISIP_5,9,9999,9999,9999,2072902716
3821,5,ISIP_5,10,9999,9999,9999,2073402484
3821,5,ISIP_5,11,9999,9999,9999,2073902180
3821,5,ISIP_5,12,9999,9999,9999,2074402900
3821,5,ISIP_5,13,9999,9999,9999,2074902592
3821,5,ISIP_5,14,9999,9999,9999,2075402288
3821,5,ISIP_5,15,9999,9999,9999,2075903032
3821,5,ISIP_5,16,9999,9999,9999,2076402800
3821,5,ISIP_5,17,9999,9999,9999,2076902496
3821,5,ISIP_5,18,9999,9999,9999,2077402188
3821,5,ISIP_5,19,9999,9999,9999,2077902932
3821,5,ISIP_5,20,9999,9999,9999,2078402624
3821,5,ISIP_5,21,9999,9999,9999,2078902320
3821,5,ISIP_5,22,9999,9999,9999,2079403064
3821,5,ISIP_5,23,9999,9999,9999,2079902832
3821,5,ISIP_5,24,9999,9999,9999,2080402528
3821,5,ISIP_5,25,9999,9999,9999,2080902224
3821,5,ISIP_5,26,9999,9999,9999,2081402960
3821,5,ISIP_5,27,9999,9999,9999,2081902660
3821,5,ISIP_5,28,9999,9999,9999,2082402356
3821,5,ISIP_5,29,9999,9999,9999,2082902128
3821,5,ISIP_5,30,9999,9999,9999,2083402868
3821,5,ISIP_5,31,9999,9999,9999,2083902564
3821,5,ISIP_5,32,9999,9999,9999,2084402260
3821,5,ISIP_5,33,9999,9999,9999,2084902968
3821,5,ISIP_5,34,9999,9999,9999,2085402736
3821,5,ISIP_5,35,9999,9999,9999,2085902436
3821,5,ISIP_5,36,9999,9999,9999,2086402132
3821,5,ISIP_5,37,9999,9999,9999,2086902880
3821,5,ISIP_5,38,9999,9999,9999,2087402572
3821,5,ISIP_5,39,9999,9999,9999,2087902268
3821,5,ISIP_5,40,9999,9999,9999,2088403008
3821,5,ISIP_5,41,9999,9999,9999,2088902776
3821,5,ISIP_5,42,9999,9999,9999,2089402464
3821,5,ISIP_5,43,9999,9999,9999,2089902156
3821,5,ISIP_5,44,9999,9999,9999,2090402892
3821,5,ISIP_5,45,9999,9999,9999,2090902580
3821,5,ISIP_5,46,9999,9999,9999,2091402348
3821,5,ISIP_5,47,9999,9999,9999,2091903084
3821,5,ISIP_5,48,9999,9999,9999,2092402776
3821,5,ISIP_5,49,9999,9999,9999,2092902468
3821,5,ISIP_5,50,9999,9999,9999,2093402232
3821,5,ISIP_5,51,9999,9999,9999,2093902968
3821,5,ISIP_5,52,9999,9999,9999,2094402660
3821,5,ISIP_5,53,9999,9999,9999,2094902352
3821,5,ISIP_5,54,9999,9999,9999,2095403064
3821,5,ISIP_5,55,9999,9999,9999,2095902828
3821,5,ISIP_5,56,9999,9999,9999,2096402520
3821,5,ISIP_5,57,9999,9999,9999,2096902212
3821,5,ISIP_5,58,9999,9999,9999,2097402948
3821,5,ISIP_5,59,9999,9999,9999,2097902704
3821,5,ISIP_5,60,9999,9999,9999,2098402396
3821,5,ISIP_5,61,9999,9999,9999,2098902084
3821,5,ISIP_5,62,9999,9999,9999,2099402828
3821,5,ISIP_5,63,9999,9999,9999,2099902512
3821,5,ISIP_5,64,9999,9999,9999,2100402280
3821,5,ISIP_5,65,9999,9999,9999,2100903016
3821,5,ISIP_5,66,9999,9999,9999,2101402708
3821,5,ISIP_5,67,9999,9999,9999,2101902396
3821,5,ISIP_5,68,9999,9999,9999,2102402164
3821,5,ISIP_5,69,9999,9999,9999,2102902900
3821,5,ISIP_5,70,9999,9999,9999,2103402592
3821,5,ISIP_5,71,9999,9999,9999,2103902280
3821,5,ISIP_5,72,9999,9999,9999,2104403020
3821,5,ISIP_5,73,9999,9999,9999,2104902708
3821,5,ISIP_5,74,9999,9999,9999,2105402472
3821,5,ISIP_5,75,9999,9999,9999,2105902164
3821,5,ISIP_5,76,9999,9999,9999,2106402876
3821,5,ISIP_5,77,9999,9999,9999,2106902640
3821,5,ISIP_5,78,9999,9999,9999,2107402316
3821,5,ISIP_5,79,9999,9999,9999,2107903056
3821,5,ISIP_5,80,9999,9999,9999,2108402748
3821,5,ISIP_5,81,9999,9999,9999,2108902512
3821,5,ISIP_5,82,9999,9999,9999,2109402204
3821,5,ISIP_5,83,9999,9999,9999,2109902940
3821,5,ISIP_5,84,9999,9999,9999,2110402632
3821,5,ISIP_5,85,9999,9999,9999,2110902324
3821,5,ISIP_5,86,9999,9999,9999,2111403060
3821,5,ISIP_5,87,9999,9999,9999,2111902824
3821,5,ISIP_5,88,9999,9999,9999,2112402516
3821,5,ISIP_5,89,9999,9999,9999,2112902208
3821,5,ISIP_5,90,9999,9999,9999,2113402944
3821,5,ISIP_5,91,9999,9999,9999,2113902708
3821,5,ISIP_5,92,9999,9999,9999,2114402400
3821,5,ISIP_5,93,9999,9999,9999,2114902092
3821,5,ISIP_5,94,9999,9999,9999,2115402828
3821,5,ISIP_5,95,9999,9999,9999,2115902520
3821,5,ISIP_5,96,9999,9999,9999,2116402284
3821,5,ISIP_5,97,9999,9999,9999,2116902996
3821,5,ISIP_5,98,9999,9999,9999,2117402688
3821,5,ISIP_5,99,9999,9999,9999,2117902452
3821,5,ISIP_5,100,9999,9999,9999,2118402144
3821,5,ISIP_5,101,9999,9999,9999,2118902880
3821,5,ISIP_5,102,9999,9999,9999,2119402568
3821,5,ISIP_5,103,9999,9999,9999,2119902260
3821,5,ISIP_5,104,9999,9999,9999,2120402996
3821,5,ISIP_5,105,9999,9999,9999,2120902764
3821,5,ISIP_5,106,9999,9999,9999,2121402452
3821,5,ISIP_5,107,9999,9999,9999,2121902144
3821,5,ISIP_5,108,9999,9999,9999,2122402880
3821,5,ISIP_5,109,9999,9999,9999,2122902644
3821,5,ISIP_5,110,9999,9999,9999,2123402336
3821,5,ISIP_5,111,9999,9999,9999,2123903072
3821,5,ISIP_5,112,9999,9999,9999,2124402764
3821,5,ISIP_5,113,9999,9999,9999,2124902456
3821,5,ISIP_5,114,9999,9999,9999,2125402220
3821,5,ISIP_5,115,9999,9999,9999,2125902956
3821,5,ISIP_5,116,9999,9999,9999,2126402648
3821,5,ISIP_5,117,9999,9999,9999,2126902336
3821,5,ISIP_5,118,9999,9999,9999,2127403076
3821,5,ISIP_5,119,9999,9999,9999,2127902816
3821,5,ISIP_5,120,9999,9999,9999,2128402508
3821,5,ISIP_5,121,9999,9999,9999,2128902200
3821,5,ISIP_5,122,9999,9999,9999,2129402936
3821,5,ISIP_5,123,9999,9999,9999,2129902700
3821,5,ISIP_5,124,9999,9999,9999,2130402392
3821,5,ISIP_5,125,9999,9999,9999,2130902080
3821,5,ISIP_5,126,9999,9999,9999,2131402820
3821,5,ISIP_5,127,9999,9999,9999,2131902584
3821,5,ISIP_5,128,9999,9999,9999,2132402276
3821,5,ISIP_5,129,9999,9999,9999,2132903012
3821,5,ISIP_5,130,9999,9999,9999,2133402704
3821,5,ISIP_5,131,9999,9999,9999,2133902392
3821,5,ISIP_5,132,9999,9999,9999,2134402160
3821,5,ISIP_5,133,9999,9999,9999,2134902896
3821,5,ISIP_5,134,9999,9999,9999,2135402588
3821,5,ISIP_5,135,9999,9999,9999,2135902276
3821,5,ISIP_5,136,9999,9999,9999,2136403016
3821,5,ISIP_5,137,9999,9999,9999,2136902708
3821,5,ISIP_5,138,9999,9999,9999,2137402472
3821,5,ISIP_5,139,9999,9999,9999,2137902160
3821,5,ISIP_5,140,9999,9999,9999,2138402872
3821,5,ISIP_5,141,9999,9999,9999,2138902636
3821,5,ISIP_5,142,9999,9999,9999,2139402328
3821,5,ISIP_5,143,9999,9999,9999,2139903064
3821,5,ISIP_5,144,9999,9999,9999,2140402756
3821,5,ISIP_5,145,9999,9999,9999,2140902448
3821,5,ISIP_5,146,9999,9999,9999,2141402212
3821,5,ISIP_5,147,9999,9999,9999,2141902952
3821,5,ISIP_5,148,9999,9999,9999,2142402640
3821,5,ISIP_5,149,9999,9999,9999,2142902332
3821,5,ISIP_5,150,9999,9999,9999,2143403072
3821,5,ISIP_5,151,9999,9999,9999,2143902836
3821,5,ISIP_5,152,9999,9999,9999,2144402528
3821,5,ISIP_5,153,9999,9999,9999,2144902220
3821,5,ISIP_5,154,9999,9999,9999,2145402956
3821,5,ISIP_5,155,9999,9999,9999,2145902644
3821,5,ISIP_5,156,9999,9999,9999,2146402412
3821,5,ISIP_5,157,9999,9999,9999,2146902100
3821,5,ISIP_5,158,9999,9999,9999,2147402836
3821,5,ISIP_5,159,9999,9999,9999,2147902528
3822,3,ISIP_8,0,5,42,127,2172122348
3822,3,ISIP_8,1,5,42,127,2172923372
3822,3,ISIP_8,2,5,42,127,2173722980
3822,3,ISIP_8,3,1,48,47,2173821936
3822,3,ISIP_8,4,5,42,127,2174522664
3822,3,ISIP_8,5,1,48,27,2174575896
3822,3,ISIP_8,6,5,42,127,2175322616
3822,3,ISIP_8,7,1,48,35,2175343088
3822,3,ISIP_8,8,5,42,127,2176123100
3822,3,ISIP_8,9,1,48,36,2176178128
3822,3,ISIP_8,10,1,48,36,2176899756
3822,3,ISIP_8,11,5,42,127,2176923052
3822,3,ISIP_8,12,5,42,127,2177722716
3822,3,ISIP_8,13,1,48,21,2177736084
3822,3,ISIP_8,14,1,48,29,2178495032
3822,3,ISIP_8,15,5,42,127,2178522444
3822,3,ISIP_8,16,1,48,43,2179320348
3822,3,ISIP_8,17,5,42,127,2179323148
3822,3,ISIP_8,18,1,48,48,2180116336
3822,3,ISIP_8,19,5,42,127,2180122880
3822,3,ISIP_8,20,1,48,41,2180907424
3822,3,ISIP_8,21,5,42,127,2180922716
3822,3,ISIP_8,22,1,48,46,2181712020
3822,3,ISIP_8,23,5,42,127,2181722668
3822,3,ISIP_8,24,1,48,51,2182505544
3822,3,ISIP_8,25,5,42,127,2182523376
3822,3,ISIP_8,26,5,42,127,2183323040
3822,3,ISIP_8,27,1,48,49,2183326604
3822,3,ISIP_8,28,5,42,127,2184122624
3822,3,ISIP_8,29,1,48,51,2184135092
3822,3,ISIP_8,30,5,42,127,2184922508
3822,3,ISIP_8,31,1,48,48,2184924224
3822,3,ISIP_8,32,5,42,127,2185723360
3822,3,ISIP_8,33,1,48,48,2185759920
3822,3,ISIP_8,34,1,48,38,2186522044
3822,3,ISIP_8,35,5,42,127,2186523836
3822,3,ISIP_8,36,1,48,44,2187250604
3822,3,ISIP_8,37,5,42,127,2187322772
3822,3,ISIP_8,38,1,48,53,2188083428
3822,3,ISIP_8,39,5,42,127,2188122428
3822,3,ISIP_8,40,1,48,46,2188906492
3822,3,ISIP_8,41,5,42,127,2188923360
3822,3,ISIP_8,42,5,42,127,2189722876
3822,3,ISIP_8,43,1,48,57,2189726892
3822,3,ISIP_8,44,5,42,127,2190522832
3822,3,ISIP_8,45,1,48,28,2190550708
3822,3,ISIP_8,46,1,48,47,2191291560
3822,3,ISIP_8,47,5,42,127,2191322408
3822,3,ISIP_8,48,1,48,58,2192100116
3822,3,ISIP_8,49,5,42,127,2192123412
3822,3,ISIP_8,50,5,42,127,2192922928
3822,3,ISIP_8,51,1,48,49,2192924192
3822,3,ISIP_8,52,1,48,60,2193697560
3822,3,ISIP_8,53,5,42,127,2193722828
3822,3,ISIP_8,54,1,48,62,2194515272
3822,3,ISIP_8,55,5,42,127,2194522412
3822,3,ISIP_8,56,5,42,127,2195323348
3822,3,ISIP_8,57,1,48,57,2195345388
3822,3,ISIP_8,58,1,48,60,2196113472
3822,3,ISIP_8,59,1,48,58,2196869144
3822,3,ISIP_8,60,1,48,57,2197647028
3822,3,ISIP_8,61,1,48,52,2198445192
3822,3,ISIP_8,62,1,48,50,2199244616
3822,3,ISIP_8,63,1,48,48,2200037016
3822,3,ISIP_8,64,1,48,47,2200828968
3822,3,ISIP_8,65,1,48,58,2201580676
3822,3,ISIP_8,66,1,48,49,2202370528
3822,3,ISIP_8,67,1,48,49,2203174172
3822,3,ISIP_8,68,1,48,51,2203985864
3822,3,ISIP_8,69,1,48,48,2204772132
3822,3,ISIP_8,70,1,48,51,2205555704
3822,3,ISIP_8,71,1,48,43,2206348484
3822,3,ISIP_8,72,1,48,46,2207106624
3822,3,ISIP_8,73,1,48,53,2207921612
3822,3,ISIP_8,74,1,48,48,2208708024
3822,3,ISIP_8,75,1,48,53,2209466544
3822,3,ISIP_8,76,1,48,48,2210301424
3822,3,ISIP_8,77,1,48,55,2211093748
3822,3,ISIP_8,78,1,48,51,2211881828
3822,3,ISIP_8,79,1,48,41,2212702804
3822,3,ISIP_8,80,1,48,53,2213473736
3822,3,ISIP_8,81,1,48,45,2214284460
3822,3,ISIP_8,82,1,48,35,2215111564
3822,3,ISIP_8,83,1,48,49,2215937548
3822,3,ISIP_8,84,1,48,47,2216748748
3822,3,ISIP_8,85,1,48,52,2217613172
3822,3,ISIP_8,86,1,48,43,2218381568
3822,3,ISIP_8,87,1,48,43,2219184512
3822,3,ISIP_8,88,1,48,38,2220023208
3822,3,ISIP_8,89,1,48,45,2220807080
3822,3,ISIP_8,90,1,48,51,2221661808
3822,3,ISIP_8,91,1,48,52,2222448300
3822,3,ISIP_8,92,1,48,50,2223271664
3822,3,ISIP_8,93,1,48,46,2224079472
3822,3,ISIP_8,94,1,48,46,2224897824
3822,3,ISIP_8,95,1,48,53,2225667488
3822,3,ISIP_8,96,1,48,47,2226466844
3822,3,ISIP_8,97,1,48,51,2227256696
3822,3,ISIP_8,98,1,48,55,2228054924
3822,3,ISIP_8,99,1,48,53,2228834908
3822,3,ISIP_8,100,1,48,47,2229650724
3822,3,ISIP_8,101,1,48,46,2230421880
3822,3,ISIP_8,102,1,48,44,2231264616
3822,3,ISIP_8,103,1,48,48,2232050812
3822,3,ISIP_8,104,1,48,47,2232824280
3822,3,ISIP_8,105,1,48,52,2233620944
3822,3,ISIP_8,106,1,48,49,2234461616
3822,3,ISIP_8,107,1,48,49,2235255432
3822,3,ISIP_8,108,1,48,53,2236777648
3822,3,ISIP_8,109,1,48,52,2237643496
3822,3,ISIP_8,110,1,48,52,2238397528
3822,3,ISIP_8,111,1,48,59,2239208476
3822,3,ISIP_8,112,1,48,57,2240005288
3822,3,ISIP_8,113,1,48,49,2240831744
3822,3,ISIP_8,114,1,48,49,2241600656
3822,3,ISIP_8,115,1,48,51,2242414516
3822,3,ISIP_8,116,1,48,57,2243162340
3822,3,ISIP_8,117,1,48,54,2243997520
3822,3,ISIP_8,118,1,48,48,2244770024
3822,3,ISIP_8,119,1,48,49,2245589944
3822,3,ISIP_8,120,1,48,46,2246377488
3822,3,ISIP_8,121,1,48,52,2247208204
3822,3,ISIP_8,122,1,48,49,2247976296
3822,3,ISIP_8,123,1,48,51,2248789636
3822,3,ISIP_8,124,1,48,57,2249616668
3822,3,ISIP_8,125,1,48,47,2250473240
3822,3,ISIP_8,126,1,48,51,2251218444
3822,3,ISIP_8,127,1,48,44,2252041132
3822,3,ISIP_8,128,1,48,55,2252804736
3822,3,ISIP_8,129,1,48,51,2253632240
3822,3,ISIP_8,130,1,48,46,2254360740
3822,3,ISIP_8,131,1,48,48,2255197220
3822,3,ISIP_8,132,1,48,49,2255997396
3822,3,ISIP_8,133,1,48,37,2256820836
3822,3,ISIP_8,134,1,48,40,2257577036
3822,3,ISIP_8,135,1,48,41,2258389332
3822,3,ISIP_8,136,1,48,45,2259193844
3822,3,ISIP_8,137,1,48,46,2260023744
3822,3,ISIP_8,138,1,48,43,2260796392
3822,3,ISIP_8,139,1,48,44,2261627096
3822,3,ISIP_8,140,1,48,42,2262411712
3822,3,ISIP_8,141,1,48,45,2263291028
3822,3,ISIP_8,142,1,48,46,2264093296
3822,3,ISIP_8,143,1,48,47,2264929344
3822,3,ISIP_8,144,1,48,43,2265736256
3822,3,ISIP_8,145,1,48,42,2266558048
3822,3,ISIP_8,146,1,48,43,2267351044
3822,3,ISIP_8,147,1,48,43,2268196348
3822,3,ISIP_8,148,1,48,36,2269043728
3822,3,ISIP_8,149,1,48,35,2269878612
3822,3,ISIP_8,150,1,48,38,2270683796
3822,3,ISIP_8,151,1,48,36,2271546756
3822,3,ISIP_8,152,1,48,40,2272305496
3822,3,ISIP_8,153,1,48,38,2273130660
3822,3,ISIP_8,154,1,48,38,2273949912
3822,3,ISIP_8,155,1,48,35,2274761232
3822,3,ISIP_8,156,1,48,34,2275595816
3822,3,ISIP_8,157,1,48,34,2276416664
3822,3,ISIP_8,158,1,48,36,2277179668
3822,3,ISIP_8,159,1,48,39,2278025916
3822,3,ISIP_8,160,1,48,42,2278854068
3822,3,ISIP_8,161,1,48,36,2279694788
3822,3,ISIP_8,162,1,48,43,2280495364
3822,3,ISIP_8,163,1,48,36,2281321420
3822,3,ISIP_8,164,1,48,39,2282106044
3822,3,ISIP_8,165,1,48,33,2282973240
3822,3,ISIP_8,166,1,48,39,2283758156
3822,3,ISIP_8,167,1,48,37,2284603764
3822,3,ISIP_8,168,1,48,36,2285424960
3822,3,ISIP_8,169,1,48,46,2286232540
3822,3,ISIP_8,170,1,48,33,2287106544
3822,3,ISIP_8,171,1,48,39,2287872168
3822,3,ISIP_8,172,1,48,39,2288667784
3822,3,ISIP_8,173,1,48,39,2289522360
3822,3,ISIP_8,174,1,48,32,2290337052
3822,3,ISIP_8,175,1,48,42,2291125636
3822,3,ISIP_8,176,1,48,40,2291968376
3822,3,ISIP_8,0,9999,9999,9999,2172120136
3822,3,ISIP_8,1,9999,9999,9999,2172920936
3822,3,ISIP_8,2,9999,9999,9999,2173720692
3822,3,ISIP_8,3,9999,9999,9999,2174520376
3822,3,ISIP_8,4,9999,9999,9999,2175320180
3822,3,ISIP_8,5,9999,9999,9999,2176120888
3822,3,ISIP_8,6,9999,9999,9999,2176920688
3822,3,ISIP_8,7,9999,9999,9999,2177720428
3822,3,ISIP_8,8,9999,9999,9999,2178520156
3822,3,ISIP_8,9,9999,9999,9999,2179320932
3822,3,ISIP_8,10,9999,9999,9999,2180120668
3822,3,ISIP_8,11,9999,9999,9999,2180920428
3822,3,ISIP_8,12,9999,9999,9999,2181720160
3822,3,ISIP_8,13,9999,9999,9999,2182520940
3822,3,ISIP_8,14,9999,9999,9999,2183320680
3822,3,ISIP_8,15,9999,9999,9999,2184120412
3822,3,ISIP_8,16,9999,9999,9999,2184920144
3822,3,ISIP_8,17,9999,9999,9999,2185720924
3822,3,ISIP_8,18,9999,9999,9999,2186520656
3822,3,ISIP_8,19,9999,9999,9999,2187320408
3822,3,ISIP_8,20,9999,9999,9999,2188120140
3822,3,ISIP_8,21,9999,9999,9999,2188920920
3822,3,ISIP_8,22,9999,9999,9999,2189720660
3822,3,ISIP_8,23,9999,9999,9999,2190520396
3822,3,ISIP_8,24,9999,9999,9999,2191320120
3822,3,ISIP_8,25,9999,9999,9999,2192120900
3822,3,ISIP_8,26,9999,9999,9999,2192920640
3822,3,ISIP_8,27,9999,9999,9999,2193720392
3822,3,ISIP_8,28,9999,9999,9999,2194520124
3822,3,ISIP_8,29,9999,9999,9999,2195320912
3822,3,ISIP_8,30,9999,9999,9999,2196120640
3822,3,ISIP_8,31,9999,9999,9999,2196920368
3822,3,ISIP_8,32,9999,9999,9999,2197720172
3822,3,ISIP_8,33,9999,9999,9999,2198520948
3822,3,ISIP_8,34,9999,9999,9999,2199320676
3822,3,ISIP_8,35,9999,9999,9999,2200120428
3822,3,ISIP_8,36,9999,9999,9999,2200920160
3822,3,ISIP_8,37,9999,9999,9999,2201720920
3822,3,ISIP_8,38,9999,9999,9999,2202520648
3822,3,ISIP_8,39,9999,9999,9999,2203320376
3822,3,ISIP_8,40,9999,9999,9999,2204120180
3822,3,ISIP_8,41,9999,9999,9999,2204920880
3822,3,ISIP_8,42,9999,9999,9999,2205720684
3822,3,ISIP_8,43,9999,9999,9999,2206520368
3822,3,ISIP_8,44,9999,9999,9999,2207320168
3822,3,ISIP_8,45,9999,9999,9999,2208120944
3822,3,ISIP_8,46,9999,9999,9999,2208920676
3822,3,ISIP_8,47,9999,9999,9999,2209720404
3822,3,ISIP_8,48,9999,9999,9999,2210520132
3822,3,ISIP_8,49,9999,9999,9999,2211320908
3822,3,ISIP_8,50,9999,9999,9999,2212120636
3822,3,ISIP_8,51,9999,9999,9999,2212920392
3822,3,ISIP_8,52,9999,9999,9999,2213720120
3822,3,ISIP_8,53,9999,9999,9999,2214520896
3822,3,ISIP_8,54,9999,9999,9999,2215320624
3822,3,ISIP_8,55,9999,9999,9999,2216120428
3822,3,ISIP_8,56,9999,9999,9999,2216920156
3822,3,ISIP_8,57,9999,9999,9999,2217720932
3822,3,ISIP_8,58,9999,9999,9999,2218520664
3822,3,ISIP_8,59,9999,9999,9999,2219320416
3822,3,ISIP_8,60,9999,9999,9999,2220120144
3822,3,ISIP_8,61,9999,9999,9999,2220920920
3822,3,ISIP_8,62,9999,9999,9999,2221720664
3822,3,ISIP_8,63,9999,9999,9999,2222520396
3822,3,ISIP_8,64,9999,9999,9999,2223320124
3822,3,ISIP_8,65,9999,9999,9999,2224120900
3822,3,ISIP_8,66,9999,9999,9999,2224920628
3822,3,ISIP_8,67,9999,9999,9999,2225720380
3822,3,ISIP_8,68,9999,9999,9999,2226520160
3822,3,ISIP_8,69,9999,9999,9999,2227320936
3822,3,ISIP_8,70,9999,9999,9999,2228120664
3822,3,ISIP_8,71,9999,9999,9999,2228920396
3822,3,ISIP_8,72,9999,9999,9999,2229720124
3822,3,ISIP_8,73,9999,9999,9999,2230520884
3822,3,ISIP_8,74,9999,9999,9999,2231320628
3822,3,ISIP_8,75,9999,9999,9999,2232120384
3822,3,ISIP_8,76,9999,9999,9999,2232920112
3822,3,ISIP_8,77,9999,9999,9999,2233720948
3822,3,ISIP_8,78,9999,9999,9999,2234520692
3822,3,ISIP_8,79,9999,9999,9999,2235320420
3822,3,ISIP_8,80,9999,9999,9999,2236120156
3822,3,ISIP_8,81,9999,9999,9999,2236920932
3822,3,ISIP_8,82,9999,9999,9999,2237720676
3822,3,ISIP_8,83,9999,9999,9999,2238520416
3822,3,ISIP_8,84,9999,9999,9999,2239320144
3822,3,ISIP_8,85,9999,9999,9999,2240120920
3822,3,ISIP_8,86,9999,9999,9999,2240920664
3822,3,ISIP_8,87,9999,9999,9999,2241720380
3822,3,ISIP_8,88,9999,9999,9999,2242520184
3822,3,ISIP_8,89,9999,9999,9999,2243320884
3822,3,ISIP_8,90,9999,9999,9999,2244120688
3822,3,ISIP_8,91,9999,9999,9999,2244920368
3822,3,ISIP_8,92,9999,9999,9999,2245720168
3822,3,ISIP_8,93,9999,9999,9999,2246520944
3822,3,ISIP_8,94,9999,9999,9999,2247320672
3822,3,ISIP_8,95,9999,9999,9999,2248120404
3822,3,ISIP_8,96,9999,9999,9999,2248920132
3822,3,ISIP_8,97,9999,9999,9999,2249720908
3822,3,ISIP_8,98,9999,9999,9999,2250520656
3822,3,ISIP_8,99,9999,9999,9999,2251320392
3822,3,ISIP_8,100,9999,9999,9999,2252120136
3822,3,ISIP_8,101,9999,9999,9999,2252920896
3822,3,ISIP_8,102,9999,9999,9999,2253720640
3822,3,ISIP_8,103,9999,9999,9999,2254520432
3822,3,ISIP_8,104,9999,9999,9999,2255320160
3822,3,ISIP_8,105,9999,9999,9999,2256120936
3822,3,ISIP_8,106,9999,9999,9999,2256920664
3822,3,ISIP_8,107,9999,9999,9999,2257720420
3822,3,ISIP_8,108,9999,9999,9999,2258520152
3822,3,ISIP_8,109,9999,9999,9999,2259320924
3822,3,ISIP_8,110,9999,9999,9999,2260120672
3822,3,ISIP_8,111,9999,9999,9999,2260920388
3822,3,ISIP_8,112,9999,9999,9999,2261720132
3822,3,ISIP_8,113,9999,9999,9999,2262520892
3822,3,ISIP_8,114,9999,9999,9999,2263320636
3822,3,ISIP_8,115,9999,9999,9999,2264120388
3822,3,ISIP_8,116,9999,9999,9999,2264920124
3822,3,ISIP_8,117,9999,9999,9999,2265720900
3822,3,ISIP_8,118,9999,9999,9999,2266520632
3822,3,ISIP_8,119,9999,9999,9999,2267320432
3822,3,ISIP_8,120,9999,9999,9999,2268120160
3822,3,ISIP_8,121,9999,9999,9999,2268920940
3822,3,ISIP_8,122,9999,9999,9999,2269720668
3822,3,ISIP_8,123,9999,9999,9999,2270520424
3822,3,ISIP_8,124,9999,9999,9999,2271320152
3822,3,ISIP_8,125,9999,9999,9999,2272120928
3822,3,ISIP_8,126,9999,9999,9999,2272920656
3822,3,ISIP_8,127,9999,9999,9999,2273720388
3822,3,ISIP_8,128,9999,9999,9999,2274520116
3822,3,ISIP_8,129,9999,9999,9999,2275320892
3822,3,ISIP_8,130,9999,9999,9999,2276120696
3822,3,ISIP_8,131,9999,9999,9999,2276920376
3822,3,ISIP_8,132,9999,9999,9999,2277720176
3822,3,ISIP_8,133,9999,9999,9999,2278520880
3822,3,ISIP_8,134,9999,9999,9999,2279320680
3822,3,ISIP_8,135,9999,9999,9999,2280120412
3822,3,ISIP_8,136,9999,9999,9999,2280920140
3822,3,ISIP_8,137,9999,9999,9999,2281720916
3822,3,ISIP_8,138,9999,9999,9999,2282520644
3822,3,ISIP_8,139,9999,9999,9999,2283320396
3822,3,ISIP_8,140,9999,9999,9999,2284120128
3822,3,ISIP_8,141,9999,9999,9999,2284920904
3822,3,ISIP_8,142,9999,9999,9999,2285720632
3822,3,ISIP_8,143,9999,9999,9999,2286520436
3822,3,ISIP_8,144,9999,9999,9999,2287320164
3822,3,ISIP_8,145,9999,9999,9999,2288120940
3822,3,ISIP_8,146,9999,9999,9999,2288920672
3822,3,ISIP_8,147,9999,9999,9999,2289720424
3822,3,ISIP_8,148,9999,9999,9999,2290520156
3822,3,ISIP_8,149,9999,9999,9999,2291320932
3823,11,Pattern_Practice,0,5,42,127,2415151756
3823,11,Pattern_Practice,1,5,42,127,2415652148
3823,11,Pattern_Practice,2,1,48,14,2416138636
3823,11,Pattern_Practice,3,5,42,127,2416151932
3823,11,Pattern_Practice,4,5,42,127,2416651684
3823,11,Pattern_Practice,5,5,42,127,2417152596
3823,11,Pattern_Practice,6,5,42,127,2417652012
3823,11,Pattern_Practice,7,5,42,127,2418151656
3823,11,Pattern_Practice,8,5,42,127,2418651668
3823,11,Pattern_Practice,9,5,42,127,2419152432
3823,11,Pattern_Practice,10,5,42,127,2419651924
3823,11,Pattern_Practice,11,5,42,127,2420151644
3823,11,Pattern_Practice,12,5,42,127,2420652552
3823,11,Pattern_Practice,13,5,42,127,2421152048
3823,11,Pattern_Practice,14,1,48,37,2421169900
3823,11,Pattern_Practice,15,1,48,24,2421415460
3823,11,Pattern_Practice,16,5,42,127,2421651720
3823,11,Pattern_Practice,17,5,42,127,2422151512
3823,11,Pattern_Practice,18,5,42,127,2422652348
3823,11,Pattern_Practice,19,5,42,127,2423151916
3823,11,Pattern_Practice,20,1,48,39,2423153252
3823,11,Pattern_Practice,21,1,48,38,2423377636
3823,11,Pattern_Practice,22,5,42,127,2423651664
3823,11,Pattern_Practice,23,5,42,127,2424152352
3823,11,Pattern_Practice,24,5,42,127,2424652292
3823,11,Pattern_Practice,25,1,48,41,2425111732
3823,11,Pattern_Practice,26,5,42,127,2425151852
3823,11,Pattern_Practice,27,1,48,43,2425358856
3823,11,Pattern_Practice,28,5,42,127,2425651608
3823,11,Pattern_Practice,29,5,42,127,2426152220
3823,11,Pattern_Practice,30,5,42,127,2426652160
3823,11,Pattern_Practice,31,1,48,51,2427114188
3823,11,Pattern_Practice,32,5,42,127,2427151772
3823,11,Pattern_Practice,33,1,48,41,2427369344
3823,11,Pattern_Practice,34,5,42,127,2427651448
3823,11,Pattern_Practice,35,5,42,127,2428152288
3823,11,Pattern_Practice,36,5,42,127,2428652004
3823,11,Pattern_Practice,37,1,48,42,2429129844
3823,11,Pattern_Practice,38,5,42,127,2429151716
3823,11,Pattern_Practice,39,1,48,39,2429397788
3823,11,Pattern_Practice,40,5,42,127,2429652292
3823,11,Pattern_Practice,41,5,42,127,2430152008
3823,11,Pattern_Practice,42,5,42,127,2430651728
3823,11,Pattern_Practice,43,1,48,46,2431123728
3823,11,Pattern_Practice,44,5,42,127,2431151508
3823,11,Pattern_Practice,45,1,48,50,2431374020
3823,11,Pattern_Practice,46,5,42,127,2431652164
3823,11,Pattern_Practice,47,5,42,127,2432151880
3823,11,Pattern_Practice,48,5,42,127,2432651520
3823,11,Pattern_Practice,49,1,48,53,2433125988
3823,11,Pattern_Practice,50,5,42,127,2433152500
3823,11,Pattern_Practice,51,1,48,48,2433386760
3823,11,Pattern_Practice,52,5,42,127,2433652108
3823,11,Pattern_Practice,53,5,42,127,2434151972
3823,11,Pattern_Practice,54,5,42,127,2434651464
3823,11,Pattern_Practice,55,1,48,51,2435145228
3823,11,Pattern_Practice,56,5,42,127,2435152220
3823,11,Pattern_Practice,57,1,48,43,2435420436
3823,11,Pattern_Practice,58,5,42,127,2435651976
3823,11,Pattern_Practice,59,5,42,127,2436151616
3823,11,Pattern_Practice,60,5,42,127,2436652304
3823,11,Pattern_Practice,61,5,42,127,2437152096
3823,11,Pattern_Practice,62,1,48,42,2437154032
3823,11,Pattern_Practice,63,1,48,39,2437402200
3823,11,Pattern_Practice,64,5,42,127,2437651992
3823,11,Pattern_Practice,65,1,38,46,2437671120
3823,11,Pattern_Practice,66,5,42,127,2438151588
3823,11,Pattern_Practice,67,5,42,127,2438652204
3823,11,Pattern_Practice,68,1,48,45,2439098096
3823,11,Pattern_Practice,69,5,42,127,2439151840
3823,11,Pattern_Practice,70,1,48,50,2439365672
3823,11,Pattern_Practice,71,1,38,48,2439598820
3823,11,Pattern_Practice,72,5,42,127,2439651660
3823,11,Pattern_Practice,73,5,42,127,2440152632
3823,11,Pattern_Practice,74,5,42,127,2440652124
3823,11,Pattern_Practice,75,1,48,53,2441145820
3823,11,Pattern_Practice,76,5,42,127,2441151764
3823,11,Pattern_Practice,77,1,48,48,2441398284
3823,11,Pattern_Practice,78,1,38,50,2441617964
3823,11,Pattern_Practice,79,5,42,127,2441651656
3823,11,Pattern_Practice,80,5,42,127,2442152628
3823,11,Pattern_Practice,81,5,42,127,2442652124
3823,11,Pattern_Practice,82,1,48,49,2443138032
3823,11,Pattern_Practice,83,5,42,127,2443151684
3823,11,Pattern_Practice,84,1,48,46,2443395960
3823,11,Pattern_Practice,85,1,38,45,2443624920
3823,11,Pattern_Practice,86,5,42,127,2443651656
3823,11,Pattern_Practice,87,5,42,127,2444152032
3823,11,Pattern_Practice,88,5,42,127,2444651748
3823,11,Pattern_Practice,89,5,42,127,2445151612
3823,11,Pattern_Practice,90,1,48,51,2445162060
3823,11,Pattern_Practice,91,1,48,45,2445414656
3823,11,Pattern_Practice,92,1,38,43,2445637856
3823,11,Pattern_Practice,93,5,42,127,2445652620
3823,11,Pattern_Practice,94,5,42,127,2446152028
3823,11,Pattern_Practice,95,5,42,127,2446651816
3823,11,Pattern_Practice,96,1,48,53,2447147384
3823,11,Pattern_Practice,97,5,42,127,2447151456
3823,11,Pattern_Practice,98,1,48,42,2447395800
3823,11,Pattern_Practice,99,1,38,52,2447640172
3823,11,Pattern_Practice,100,5,42,127,2447652396
3823,11,Pattern_Practice,101,5,42,127,2448151800
3823,11,Pattern_Practice,102,5,42,127,2448651568
3823,11,Pattern_Practice,103,5,42,127,2449152404
3823,11,Pattern_Practice,104,1,48,49,2449168236
3823,11,Pattern_Practice,105,1,48,39,2449413428
3823,11,Pattern_Practice,106,1,38,41,2449645228
3823,11,Pattern_Practice,107,5,42,127,2449652220
3823,11,Pattern_Practice,108,5,42,127,2450151772
3823,11,Pattern_Practice,109,5,42,127,2450651564
3823,11,Pattern_Practice,110,1,48,51,2451147424
3823,11,Pattern_Practice,111,5,42,127,2451152320
3823,11,Pattern_Practice,112,1,48,44,2451407516
3823,11,Pattern_Practice,113,1,38,47,2451626896
3823,11,Pattern_Practice,114,5,42,127,2451652364
3823,11,Pattern_Practice,115,5,42,127,2452151620
3823,11,Pattern_Practice,116,5,42,127,2452652380
3823,11,Pattern_Practice,117,5,42,127,2453152396
3823,11,Pattern_Practice,118,1,48,49,2453175564
3823,11,Pattern_Practice,119,1,48,41,2453418656
3823,11,Pattern_Practice,120,5,42,127,2453651992
3823,11,Pattern_Practice,121,1,38,56,2453686900
3823,11,Pattern_Practice,122,1,38,46,2453882052
3823,11,Pattern_Practice,123,5,42,127,2454151516
3823,11,Pattern_Practice,124,5,42,127,2454652356
3823,11,Pattern_Practice,0,9999,9999,9999,2415149172
3823,11,Pattern_Practice,1,9999,9999,9999,2415649864
3823,11,Pattern_Practice,2,9999,9999,9999,2416149572
3823,11,Pattern_Practice,3,9999,9999,9999,2416649320
3823,11,Pattern_Practice,4,9999,9999,9999,2417150012
3823,11,Pattern_Practice,5,9999,9999,9999,2417649728
3823,11,Pattern_Practice,6,9999,9999,9999,2418149444
3823,11,Pattern_Practice,7,9999,9999,9999,2418649160
3823,11,Pattern_Practice,8,9999,9999,9999,2419149924
3823,11,Pattern_Practice,9,9999,9999,9999,2419649640
3823,11,Pattern_Practice,10,9999,9999,9999,2420149356
3823,11,Pattern_Practice,11,9999,9999,9999,2420650044
3823,11,Pattern_Practice,12,9999,9999,9999,2421149760
3823,11,Pattern_Practice,13,9999,9999,9999,2421649508
3823,11,Pattern_Practice,14,9999,9999,9999,2422149224
3823,11,Pattern_Practice,15,9999,9999,9999,2422649912
3823,11,Pattern_Practice,16,9999,9999,9999,2423149632
3823,11,Pattern_Practice,17,9999,9999,9999,2423649376
3823,11,Pattern_Practice,18,9999,9999,9999,2424150068
3823,11,Pattern_Practice,19,9999,9999,9999,2424649784
3823,11,Pattern_Practice,20,9999,9999,9999,2425149492
3823,11,Pattern_Practice,21,9999,9999,9999,2425649244
3823,11,Pattern_Practice,22,9999,9999,9999,2426150008
3823,11,Pattern_Practice,23,9999,9999,9999,2426649652
3823,11,Pattern_Practice,24,9999,9999,9999,2427149412
3823,11,Pattern_Practice,25,9999,9999,9999,2427649088
3823,11,Pattern_Practice,26,9999,9999,9999,2428149852
3823,11,Pattern_Practice,27,9999,9999,9999,2428649568
3823,11,Pattern_Practice,28,9999,9999,9999,2429149280
3823,11,Pattern_Practice,29,9999,9999,9999,2429650008
3823,11,Pattern_Practice,30,9999,9999,9999,2430149724
3823,11,Pattern_Practice,31,9999,9999,9999,2430649440
3823,11,Pattern_Practice,32,9999,9999,9999,2431149148
3823,11,Pattern_Practice,33,9999,9999,9999,2431649876
3823,11,Pattern_Practice,34,9999,9999,9999,2432149592
3823,11,Pattern_Practice,35,9999,9999,9999,2432649308
3823,11,Pattern_Practice,36,9999,9999,9999,2433150064
3823,11,Pattern_Practice,37,9999,9999,9999,2433649744
3823,11,Pattern_Practice,38,9999,9999,9999,2434149464
3823,11,Pattern_Practice,39,9999,9999,9999,2434649180
3823,11,Pattern_Practice,40,9999,9999,9999,2435149936
3823,11,Pattern_Practice,41,9999,9999,9999,2435649616
3823,11,Pattern_Practice,42,9999,9999,9999,2436149332
3823,11,Pattern_Practice,43,9999,9999,9999,2436650092
3823,11,Pattern_Practice,44,9999,9999,9999,2437149808
3823,11,Pattern_Practice,45,9999,9999,9999,2437649456
3823,11,Pattern_Practice,46,9999,9999,9999,2438149228
3823,11,Pattern_Practice,47,9999,9999,9999,2438649916
3823,11,Pattern_Practice,48,9999,9999,9999,2439149628
3823,11,Pattern_Practice,49,9999,9999,9999,2439649376
3823,11,Pattern_Practice,50,9999,9999,9999,2440150124
3823,11,Pattern_Practice,51,9999,9999,9999,2440649840
3823,11,Pattern_Practice,52,9999,9999,9999,2441149552
3823,11,Pattern_Practice,53,9999,9999,9999,2441649224
3823,11,Pattern_Practice,54,9999,9999,9999,2442149972
3823,11,Pattern_Practice,55,9999,9999,9999,2442649688
3823,11,Pattern_Practice,56,9999,9999,9999,2443149396
3823,11,Pattern_Practice,57,9999,9999,9999,2443649144
3823,11,Pattern_Practice,58,9999,9999,9999,2444149820
3823,11,Pattern_Practice,59,9999,9999,9999,2444649536
3823,11,Pattern_Practice,60,9999,9999,9999,2445149252
3823,11,Pattern_Practice,61,9999,9999,9999,2445650036
3823,11,Pattern_Practice,62,9999,9999,9999,2446149740
3823,11,Pattern_Practice,63,9999,9999,9999,2446649456
3823,11,Pattern_Practice,64,9999,9999,9999,2447149168
3823,11,Pattern_Practice,65,9999,9999,9999,2447649888
3823,11,Pattern_Practice,66,9999,9999,9999,2448149588
3823,11,Pattern_Practice,67,9999,9999,9999,2448649280
3823,11,Pattern_Practice,68,9999,9999,9999,2449150044
3823,11,Pattern_Practice,69,9999,9999,9999,2449649784
3823,11,Pattern_Practice,70,9999,9999,9999,2450149484
3823,11,Pattern_Practice,71,9999,9999,9999,2450649204
3823,11,Pattern_Practice,72,9999,9999,9999,2451149884
3823,11,Pattern_Practice,73,9999,9999,9999,2451649632
3823,11,Pattern_Practice,74,9999,9999,9999,2452149332
3823,11,Pattern_Practice,75,9999,9999,9999,2452650096
3823,11,Pattern_Practice,76,9999,9999,9999,2453149812
3823,11,Pattern_Practice,77,9999,9999,9999,2453649484
3823,11,Pattern_Practice,78,9999,9999,9999,2454149232
3823,11,Pattern_Practice,79,9999,9999,9999,2454649920
3824,13,Improv_Metronome,0,5,42,127,2487303568
3824,13,Improv_Metronome,1,5,42,127,2487804256
3824,13,Improv_Metronome,2,5,42,127,2488304048
3824,13,Improv_Metronome,3,5,42,127,2488803912
3824,13,Improv_Metronome,4,5,42,127,2489304452
3824,13,Improv_Metronome,5,5,42,127,2489804020
3824,13,Improv_Metronome,6,5,42,127,2490303812
3824,13,Improv_Metronome,7,5,42,127,2490803680
3824,13,Improv_Metronome,8,1,48,60,2491300140
3824,13,Improv_Metronome,9,5,42,127,2491304284
3824,13,Improv_Metronome,10,1,48,45,2491559336
3824,13,Improv_Metronome,11,5,42,127,2491804040
3824,13,Improv_Metronome,12,5,42,127,2492303756
3824,13,Improv_Metronome,13,5,42,127,2492803472
3824,13,Improv_Metronome,14,1,48,61,2493289540
3824,13,Improv_Metronome,15,5,42,127,2493304232
3824,13,Improv_Metronome,16,1,48,57,2493527640
3824,13,Improv_Metronome,17,5,42,127,2493803988
3824,13,Improv_Metronome,18,5,42,127,2494303556
3824,13,Improv_Metronome,19,5,42,127,2494804540
3824,13,Improv_Metronome,20,1,48,27,2495298456
3824,13,Improv_Metronome,21,5,42,127,2495304104
3824,13,Improv_Metronome,22,1,48,57,2495522500
3824,13,Improv_Metronome,23,5,42,127,2495803708
3824,13,Improv_Metronome,24,5,42,127,2496303576
3824,13,Improv_Metronome,25,5,42,127,2496804412
3824,13,Improv_Metronome,26,1,48,53,2497296540
3824,13,Improv_Metronome,27,5,42,127,2497303900
3824,13,Improv_Metronome,28,1,48,48,2497551316
3824,13,Improv_Metronome,29,5,42,127,2497803556
3824,13,Improv_Metronome,30,5,42,127,2498304392
3824,13,Improv_Metronome,31,5,42,127,2498803960
3824,13,Improv_Metronome,32,1,48,52,2499286952
3824,13,Improv_Metronome,33,5,42,127,2499303892
3824,13,Improv_Metronome,34,1,48,48,2499550788
3824,13,Improv_Metronome,35,5,42,127,2499803644
3824,13,Improv_Metronome,36,5,42,127,2500304408
3824,13,Improv_Metronome,37,5,42,127,2500803824
3824,13,Improv_Metronome,38,1,48,49,2501301496
3824,13,Improv_Metronome,39,5,42,127,2501303612
3824,13,Improv_Metronome,40,1,48,46,2501553720
3824,13,Improv_Metronome,41,5,42,127,2501804412
3824,13,Improv_Metronome,42,5,42,127,2502304200
3824,13,Improv_Metronome,43,5,42,127,2502803696
3824,13,Improv_Metronome,44,5,42,127,2503303484
3824,13,Improv_Metronome,45,1,48,48,2503322912
3824,13,Improv_Metronome,46,1,48,48,2503551048
3824,13,Improv_Metronome,47,5,42,127,2503804352
3824,13,Improv_Metronome,48,1,38,51,2503813384
3824,13,Improv_Metronome,49,5,42,127,2504304200
3824,13,Improv_Metronome,50,5,42,127,2504803616
3824,13,Improv_Metronome,51,1,48,48,2505299108
3824,13,Improv_Metronome,52,5,42,127,2505304448
3824,13,Improv_Metronome,53,1,48,52,2505562636
3824,13,Improv_Metronome,54,1,38,52,2505785012
3824,13,Improv_Metronome,55,5,42,127,2505804272
3824,13,Improv_Metronome,56,5,42,127,2506304044
3824,13,Improv_Metronome,57,5,42,127,2506803464
3824,13,Improv_Metronome,58,5,42,127,2507304376
3824,13,Improv_Metronome,59,1,48,49,2507311084
3824,13,Improv_Metronome,60,1,48,50,2507561292
3824,13,Improv_Metronome,61,1,38,52,2507796228
3824,13,Improv_Metronome,62,5,42,127,2507804192
3824,13,Improv_Metronome,63,5,42,127,2508303744
3824,13,Improv_Metronome,64,5,42,127,2508803364
3824,13,Improv_Metronome,65,5,42,127,2509304124
3824,13,Improv_Metronome,66,1,48,49,2509318840
3824,13,Improv_Metronome,67,1,48,48,2509563428
3824,13,Improv_Metronome,68,5,42,127,2509804172
3824,13,Improv_Metronome,69,1,38,51,2509805136
3824,13,Improv_Metronome,70,5,42,127,2510303572
3824,13,Improv_Metronome,71,5,42,127,2510804184
3824,13,Improv_Metronome,72,1,48,48,2511294356
3824,13,Improv_Metronome,73,5,42,127,2511303968
3824,13,Improv_Metronome,74,1,48,48,2511529024
3824,13,Improv_Metronome,75,1,38,46,2511794032
3824,13,Improv_Metronome,76,5,42,127,2511804012
3824,13,Improv_Metronome,77,5,42,127,2512303492
3824,13,Improv_Metronome,78,5,42,127,2512804180
3824,13,Improv_Metronome,79,1,48,48,2513289796
3824,13,Improv_Metronome,80,5,42,127,2513303964
3824,13,Improv_Metronome,81,1,48,50,2513545476
3824,13,Improv_Metronome,82,1,38,55,2513754984
3824,13,Improv_Metronome,83,5,42,127,2513803564
3824,13,Improv_Metronome,84,5,42,127,2514304460
3824,13,Improv_Metronome,85,5,42,127,2514804028
3824,13,Improv_Metronome,86,5,42,127,2515303744
3824,13,Improv_Metronome,87,1,48,49,2515320032
3824,13,Improv_Metronome,88,1,48,46,2515569628
3824,13,Improv_Metronome,89,5,42,127,2515803716
3824,13,Improv_Metronome,90,1,38,54,2515808560
3824,13,Improv_Metronome,91,5,42,127,2516304308
3824,13,Improv_Metronome,92,5,42,127,2516803800
3824,13,Improv_Metronome,93,5,42,127,2517303892
3824,13,Improv_Metronome,94,1,48,52,2517312244
3824,13,Improv_Metronome,95,1,48,44,2517548536
3824,13,Improv_Metronome,96,1,38,51,2517797764
3824,13,Improv_Metronome,97,5,42,127,2517804380
3824,13,Improv_Metronome,98,5,42,127,2518304156
3824,13,Improv_Metronome,99,5,42,127,2518803800
3824,13,Improv_Metronome,100,1,48,51,2519297092
3824,13,Improv_Metronome,101,5,42,127,2519303632
3824,13,Improv_Metronome,102,1,48,45,2519558460
3824,13,Improv_Metronome,103,5,42,127,2519804132
3824,13,Improv_Metronome,104,1,38,47,2519831740
3824,13,Improv_Metronome,105,5,42,127,2520303904
3824,13,Improv_Metronome,106,5,42,127,2520803768
3824,13,Improv_Metronome,107,5,42,127,2521304604
3824,13,Improv_Metronome,108,1,48,51,2521317300
3824,13,Improv_Metronome,109,1,48,48,2521566076
3824,13,Improv_Metronome,110,5,42,127,2521804056
3824,13,Improv_Metronome,111,1,38,59,2521844948
3824,13,Improv_Metronome,112,1,48,58,2522108460
3824,13,Improv_Metronome,113,5,42,127,2522303952
3824,13,Improv_Metronome,114,5,42,127,2522803520
3824,13,Improv_Metronome,115,1,48,57,2523281952
3824,13,Improv_Metronome,116,5,42,127,2523304496
3824,13,Improv_Metronome,117,1,48,50,2523529260
3824,13,Improv_Metronome,118,1,38,58,2523793816
3824,13,Improv_Metronome,119,5,42,127,2523804096
3824,13,Improv_Metronome,120,1,48,64,2524041868
3824,13,Improv_Metronome,121,5,42,127,2524303780
3824,13,Improv_Metronome,122,5,42,127,2524803496
3824,13,Improv_Metronome,123,5,42,127,2525304408
3824,13,Improv_Metronome,124,1,48,58,2525307752
3824,13,Improv_Metronome,125,1,48,54,2525553916
3824,13,Improv_Metronome,126,1,38,56,2525796416
3824,13,Improv_Metronome,127,5,42,127,2525804000
3824,13,Improv_Metronome,128,1,48,63,2526087252
3824,13,Improv_Metronome,129,5,42,127,2526303532
3824,13,Improv_Metronome,130,5,42,127,2526804368
3824,13,Improv_Metronome,131,5,42,127,2527304232
3824,13,Improv_Metronome,132,1,48,53,2527317304
3824,13,Improv_Metronome,133,1,48,56,2527548128
3824,13,Improv_Metronome,134,1,38,52,2527770432
3824,13,Improv_Metronome,135,5,42,127,2527803752
3824,13,Improv_Metronome,136,1,48,60,2528017812
3824,13,Improv_Metronome,137,5,42,127,2528303508
3824,13,Improv_Metronome,138,5,42,127,2528804492
3824,13,Improv_Metronome,139,1,48,62,2529289636
3824,13,Improv_Metronome,140,5,42,127,2529303904
3824,13,Improv_Metronome,141,1,48,54,2529527360
3824,13,Improv_Metronome,142,1,38,48,2529743528
3824,13,Improv_Metronome,143,5,42,127,2529803700
3824,13,Improv_Metronome,144,1,48,52,2530012676
3824,13,Improv_Metronome,145,5,42,127,2530304504
3824,13,Improv_Metronome,146,5,42,127,2530804220
3824,13,Improv_Metronome,147,5,42,127,2531303712
3824,13,Improv_Metronome,148,1,48,58,2531305724
3824,13,Improv_Metronome,149,1,48,53,2531553368
3824,13,Improv_Metronome,150,1,38,51,2531745152
3824,13,Improv_Metronome,151,5,42,127,2531803376
3824,13,Improv_Metronome,152,1,48,53,2532034040
3824,13,Improv_Metronome,153,5,42,127,2532304328
3824,13,Improv_Metronome,154,5,42,127,2532804044
3824,13,Improv_Metronome,155,5,42,127,2533303540
3824,13,Improv_Metronome,156,1,48,54,2533317804
3824,13,Improv_Metronome,157,1,48,51,2533569348
3824,13,Improv_Metronome,158,1,38,41,2533760608
3824,13,Improv_Metronome,159,5,42,127,2533804472
3824,13,Improv_Metronome,160,1,48,53,2534017412
3824,13,Improv_Metronome,161,5,42,127,2534304076
3824,13,Improv_Metronome,162,5,42,127,2534804316
3824,13,Improv_Metronome,163,5,42,127,2535303512
3824,13,Improv_Metronome,164,1,48,53,2535320168
3824,13,Improv_Metronome,165,1,48,48,2535572388
3824,13,Improv_Metronome,166,5,42,127,2535804156
3824,13,Improv_Metronome,167,1,38,55,2535815356
3824,13,Improv_Metronome,168,1,48,48,2536047156
3824,13,Improv_Metronome,169,5,42,127,2536304276
3824,13,Improv_Metronome,170,5,42,127,2536803548
3824,13,Improv_Metronome,171,1,48,59,2537302104
3824,13,Improv_Metronome,172,5,42,127,2537304452
3824,13,Improv_Metronome,173,1,48,47,2537570196
3824,13,Improv_Metronome,174,1,38,51,2537782700
3824,13,Improv_Metronome,175,5,42,127,2537804124
3824,13,Improv_Metronome,176,1,48,48,2538039052
3824,13,Improv_Metronome,177,5,42,127,2538303880
3824,13,Improv_Metronome,178,5,42,127,2538803524
3824,13,Improv_Metronome,179,5,42,127,2539304212
3824,13,Improv_Metronome,180,1,48,45,2539324084
3824,13,Improv_Metronome,181,1,48,49,2539571144
3824,13,Improv_Metronome,182,1,38,57,2539793296
3824,13,Improv_Metronome,183,5,42,127,2539804104
3824,13,Improv_Metronome,184,1,48,53,2540044188
3824,13,Improv_Metronome,185,5,42,127,2540303856
3824,13,Improv_Metronome,186,5,42,127,2540803476
3824,13,Improv_Metronome,187,1,48,57,2541281012
3824,13,Improv_Metronome,188,5,42,127,2541304156
3824,13,Improv_Metronome,189,1,48,50,2541537212
3824,13,Improv_Metronome,190,1,38,58,2541791756
3824,13,Improv_Metronome,191,5,42,127,2541803832
3824,13,Improv_Metronome,192,1,48,53,2542012352
3824,13,Improv_Metronome,193,5,42,127,2542303804
3824,13,Improv_Metronome,194,5,42,127,2542804196
3824,13,Improv_Metronome,195,5,42,127,2543303912
3824,13,Improv_Metronome,196,1,48,64,2543322292
3824,13,Improv_Metronome,197,1,48,51,2543582888
3824,13,Improv_Metronome,198,5,42,127,2543803808
3824,13,Improv_Metronome,199,1,38,56,2543833780
3824,13,Improv_Metronome,200,1,48,56,2544061768
3824,13,Improv_Metronome,201,5,42,127,2544303556
3824,13,Improv_Metronome,202,5,42,127,2544804172
3824,13,Improv_Metronome,203,5,42,127,2545303888
3824,13,Improv_Metronome,204,1,48,60,2545531720
3824,13,Improv_Metronome,205,1,48,38,2545731740
3824,13,Improv_Metronome,206,5,42,127,2545803800
3824,13,Improv_Metronome,207,1,38,30,2546056680
3824,13,Improv_Metronome,208,5,42,127,2546304376
3824,13,Improv_Metronome,209,1,48,35,2546310712
3824,13,Improv_Metronome,210,5,42,127,2546804072
3824,13,Improv_Metronome,211,5,42,127,2547303716
3824,13,Improv_Metronome,212,1,48,30,2547352984
3824,13,Improv_Metronome,213,1,48,42,2547582020
3824,13,Improv_Metronome,214,5,42,127,2547803612
3824,13,Improv_Metronome,215,1,38,54,2547819672
3824,13,Improv_Metronome,216,1,48,41,2548067028
3824,13,Improv_Metronome,217,5,42,127,2548304108
3824,13,Improv_Metronome,218,5,42,127,2548803896
3824,13,Improv_Metronome,219,1,48,63,2549270140
3824,13,Improv_Metronome,220,5,42,127,2549303608
3824,13,Improv_Metronome,221,1,48,46,2549534640
3824,13,Improv_Metronome,222,1,38,43,2549740992
3824,13,Improv_Metronome,223,5,42,127,2549804400
3824,13,Improv_Metronome,224,1,48,46,2550008412
3824,13,Improv_Metronome,225,5,42,127,2550304004
3824,13,Improv_Metronome,226,5,42,127,2550803796
3824,13,Improv_Metronome,227,1,48,49,2551263284
3824,13,Improv_Metronome,228,5,42,127,2551303556
3824,13,Improv_Metronome,229,1,48,44,2551528160
3824,13,Improv_Metronome,230,1,38,52,2551792800
3824,13,Improv_Metronome,231,5,42,127,2551804352
3824,13,Improv_Metronome,232,1,48,48,2552031500
3824,13,Improv_Metronome,233,5,42,127,2552303956
3824,13,Improv_Metronome,234,5,42,127,2552803824
3824,13,Improv_Metronome,235,5,42,127,2553304512
3824,13,Improv_Metronome,236,1,48,49,2553314512
3824,13,Improv_Metronome,237,1,48,43,2553572420
3824,13,Improv_Metronome,238,1,38,46,2553803132
3824,13,Improv_Metronome,239,5,42,127,2553805520
3824,13,Improv_Metronome,240,1,48,50,2554055260
3824,13,Improv_Metronome,241,5,42,127,2554303708
3824,13,Improv_Metronome,242,5,42,127,2554803500
3824,13,Improv_Metronome,243,1,48,55,2555291132
3824,13,Improv_Metronome,244,5,42,127,2555304552
3824,13,Improv_Metronome,245,1,48,50,2555548684
3824,13,Improv_Metronome,246,1,38,49,2555763428
3824,13,Improv_Metronome,247,5,42,127,2555804004
3824,13,Improv_Metronome,248,1,48,43,2556013348
3824,13,Improv_Metronome,249,5,42,127,2556303608
3824,13,Improv_Metronome,250,5,42,127,2556803548
3824,13,Improv_Metronome,0,9999,9999,9999,2487301208
3824,13,Improv_Metronome,1,9999,9999,9999,2487801968
3824,13,Improv_Metronome,2,9999,9999,9999,2488301688
3824,13,Improv_Metronome,3,9999,9999,9999,2488801328
3824,13,Improv_Metronome,4,9999,9999,9999,2489302092
3824,13,Improv_Metronome,5,9999,9999,9999,2489801808
3824,13,Improv_Metronome,6,9999,9999,9999,2490301524
3824,13,Improv_Metronome,7,9999,9999,9999,2490801244
3824,13,Improv_Metronome,8,9999,9999,9999,2491302000
3824,13,Improv_Metronome,9,9999,9999,9999,2491801680
3824,13,Improv_Metronome,10,9999,9999,9999,2492301396
3824,13,Improv_Metronome,11,9999,9999,9999,2492801112
3824,13,Improv_Metronome,12,9999,9999,9999,2493301868
3824,13,Improv_Metronome,13,9999,9999,9999,2493801552
3824,13,Improv_Metronome,14,9999,9999,9999,2494301268
3824,13,Improv_Metronome,15,9999,9999,9999,2494802032
3824,13,Improv_Metronome,16,9999,9999,9999,2495301740
3824,13,Improv_Metronome,17,9999,9999,9999,2495801420
3824,13,Improv_Metronome,18,9999,9999,9999,2496301140
3824,13,Improv_Metronome,19,9999,9999,9999,2496801900
3824,13,Improv_Metronome,20,9999,9999,9999,2497301612
3824,13,Improv_Metronome,21,9999,9999,9999,2497801268
3824,13,Improv_Metronome,22,9999,9999,9999,2498302032
3824,13,Improv_Metronome,23,9999,9999,9999,2498801748
3824,13,Improv_Metronome,24,9999,9999,9999,2499301456
3824,13,Improv_Metronome,25,9999,9999,9999,2499801208
3824,13,Improv_Metronome,26,9999,9999,9999,2500301900
3824,13,Improv_Metronome,27,9999,9999,9999,2500801612
3824,13,Improv_Metronome,28,9999,9999,9999,2501301364
3824,13,Improv_Metronome,29,9999,9999,9999,2501802048
3824,13,Improv_Metronome,30,9999,9999,9999,2502301764
3824,13,Improv_Metronome,31,9999,9999,9999,2502801484
3824,13,Improv_Metronome,32,9999,9999,9999,2503301200
3824,13,Improv_Metronome,33,9999,9999,9999,2503801920
3824,13,Improv_Metronome,34,9999,9999,9999,2504301688
3824,13,Improv_Metronome,35,9999,9999,9999,2504801332
3824,13,Improv_Metronome,36,9999,9999,9999,2505302088
3824,13,Improv_Metronome,37,9999,9999,9999,2505801836
3824,13,Improv_Metronome,38,9999,9999,9999,2506301536
3824,13,Improv_Metronome,39,9999,9999,9999,2506801252
3824,13,Improv_Metronome,40,9999,9999,9999,2507301940
3824,13,Improv_Metronome,41,9999,9999,9999,2507801684
3824,13,Improv_Metronome,42,9999,9999,9999,2508301360
3824,13,Improv_Metronome,43,9999,9999,9999,2508801076
3824,13,Improv_Metronome,44,9999,9999,9999,2509301840
3824,13,Improv_Metronome,45,9999,9999,9999,2509801588
3824,13,Improv_Metronome,46,9999,9999,9999,2510301284
3824,13,Improv_Metronome,47,9999,9999,9999,2510801972
3824,13,Improv_Metronome,48,9999,9999,9999,2511301680
3824,13,Improv_Metronome,49,9999,9999,9999,2511801432
3824,13,Improv_Metronome,50,9999,9999,9999,2512301132
3824,13,Improv_Metronome,51,9999,9999,9999,2512801896
3824,13,Improv_Metronome,52,9999,9999,9999,2513301604
3824,13,Improv_Metronome,53,9999,9999,9999,2513801276
3824,13,Improv_Metronome,54,9999,9999,9999,2514302024
3824,13,Improv_Metronome,55,9999,9999,9999,2514801740
3824,13,Improv_Metronome,56,9999,9999,9999,2515301456
3824,13,Improv_Metronome,57,9999,9999,9999,2515801204
3824,13,Improv_Metronome,58,9999,9999,9999,2516301872
3824,13,Improv_Metronome,59,9999,9999,9999,2516801588
3824,13,Improv_Metronome,60,9999,9999,9999,2517301308
3824,13,Improv_Metronome,61,9999,9999,9999,2517802096
3824,13,Improv_Metronome,62,9999,9999,9999,2518301796
3824,13,Improv_Metronome,63,9999,9999,9999,2518801512
3824,13,Improv_Metronome,64,9999,9999,9999,2519301196
3824,13,Improv_Metronome,65,9999,9999,9999,2519801920
3824,13,Improv_Metronome,66,9999,9999,9999,2520301616
3824,13,Improv_Metronome,67,9999,9999,9999,2520801332
3824,13,Improv_Metronome,68,9999,9999,9999,2521302096
3824,13,Improv_Metronome,69,9999,9999,9999,2521801844
3824,13,Improv_Metronome,70,9999,9999,9999,2522301516
3824,13,Improv_Metronome,71,9999,9999,9999,2522801232
3824,13,Improv_Metronome,72,9999,9999,9999,2523301988
3824,13,Improv_Metronome,73,9999,9999,9999,2523801664
3824,13,Improv_Metronome,74,9999,9999,9999,2524301420
3824,13,Improv_Metronome,75,9999,9999,9999,2524801136
3824,13,Improv_Metronome,76,9999,9999,9999,2525301824
3824,13,Improv_Metronome,77,9999,9999,9999,2525801564
3824,13,Improv_Metronome,78,9999,9999,9999,2526301244
3824,13,Improv_Metronome,79,9999,9999,9999,2526802008
3824,13,Improv_Metronome,80,9999,9999,9999,2527301724
3824,13,Improv_Metronome,81,9999,9999,9999,2527801464
3824,13,Improv_Metronome,82,9999,9999,9999,2528301144
3824,13,Improv_Metronome,83,9999,9999,9999,2528801908
3824,13,Improv_Metronome,84,9999,9999,9999,2529301616
3824,13,Improv_Metronome,85,9999,9999,9999,2529801264
3824,13,Improv_Metronome,86,9999,9999,9999,2530302068
3824,13,Improv_Metronome,87,9999,9999,9999,2530801784
3824,13,Improv_Metronome,88,9999,9999,9999,2531301424
3824,13,Improv_Metronome,89,9999,9999,9999,2531801168
3824,13,Improv_Metronome,90,9999,9999,9999,2532301892
3824,13,Improv_Metronome,91,9999,9999,9999,2532801608
3824,13,Improv_Metronome,92,9999,9999,9999,2533301324
3824,13,Improv_Metronome,93,9999,9999,9999,2533802040
3824,13,Improv_Metronome,94,9999,9999,9999,2534301792
3824,13,Improv_Metronome,95,9999,9999,9999,2534801508
3824,13,Improv_Metronome,96,9999,9999,9999,2535301224
3824,13,Improv_Metronome,97,9999,9999,9999,2535801944
3824,13,Improv_Metronome,98,9999,9999,9999,2536301620
3824,13,Improv_Metronome,99,9999,9999,9999,2536801336
3824,13,Improv_Metronome,100,9999,9999,9999,2537302168
3824,13,Improv_Metronome,101,9999,9999,9999,2537801840
3824,13,Improv_Metronome,102,9999,9999,9999,2538301516
3824,13,Improv_Metronome,103,9999,9999,9999,2538801236
3824,13,Improv_Metronome,104,9999,9999,9999,2539302000
3824,13,Improv_Metronome,105,9999,9999,9999,2539801668
3824,13,Improv_Metronome,106,9999,9999,9999,2540301420
3824,13,Improv_Metronome,107,9999,9999,9999,2540801112
3824,13,Improv_Metronome,108,9999,9999,9999,2541301872
3824,13,Improv_Metronome,109,9999,9999,9999,2541801544
3824,13,Improv_Metronome,110,9999,9999,9999,2542301296
3824,13,Improv_Metronome,111,9999,9999,9999,2542801984
3824,13,Improv_Metronome,112,9999,9999,9999,2543301700
3824,13,Improv_Metronome,113,9999,9999,9999,2543801448
3824,13,Improv_Metronome,114,9999,9999,9999,2544301120
3824,13,Improv_Metronome,115,9999,9999,9999,2544801884
3824,13,Improv_Metronome,116,9999,9999,9999,2545301600
3824,13,Improv_Metronome,117,9999,9999,9999,2545801292
3824,13,Improv_Metronome,118,9999,9999,9999,2546302016
3824,13,Improv_Metronome,119,9999,9999,9999,2546801712
3824,13,Improv_Metronome,120,9999,9999,9999,2547301428
3824,13,Improv_Metronome,121,9999,9999,9999,2547801176
3824,13,Improv_Metronome,122,9999,9999,9999,2548301896
3824,13,Improv_Metronome,123,9999,9999,9999,2548801612
3824,13,Improv_Metronome,124,9999,9999,9999,2549301320
3824,13,Improv_Metronome,125,9999,9999,9999,2549802040
3824,13,Improv_Metronome,126,9999,9999,9999,2550301792
3824,13,Improv_Metronome,127,9999,9999,9999,2550801512
3824,13,Improv_Metronome,128,9999,9999,9999,2551301196
3824,13,Improv_Metronome,129,9999,9999,9999,2551801916
3824,13,Improv_Metronome,130,9999,9999,9999,2552301672
3824,13,Improv_Metronome,131,9999,9999,9999,2552801388
3824,13,Improv_Metronome,132,9999,9999,9999,2553302076
3824,13,Improv_Metronome,133,9999,9999,9999,2553801824
3824,13,Improv_Metronome,134,9999,9999,9999,2554301496
3824,13,Improv_Metronome,135,9999,9999,9999,2554801212
3824,13,Improv_Metronome,136,9999,9999,9999,2555301968
3824,13,Improv_Metronome,137,9999,9999,9999,2555801716
3824,13,Improv_Metronome,138,9999,9999,9999,2556301396
3824,13,Improv_Metronome,139,9999,9999,9999,2556801112
3825,14,Improv_Melody,0,2,48,80,2611439112
3825,14,Improv_Melody,1,2,72,80,2611441264
3825,14,Improv_Melody,2,5,42,127,2611443876
3825,14,Improv_Melody,3,5,42,110,2611936640
3825,14,Improv_Melody,4,5,42,110,2612437336
3825,14,Improv_Melody,5,5,42,110,2612937056
3825,14,Improv_Melody,6,5,42,127,2613436852
3825,14,Improv_Melody,7,5,42,110,2613936428
3825,14,Improv_Melody,8,5,42,110,2614437196
3825,14,Improv_Melody,9,5,42,110,2614937064
3825,14,Improv_Melody,10,2,43,80,2615439140
3825,14,Improv_Melody,11,2,67,80,2615441524
3825,14,Improv_Melody,12,5,42,127,2615443980
3825,14,Improv_Melody,13,5,42,110,2615937496
3825,14,Improv_Melody,14,5,42,110,2616437068
3825,14,Improv_Melody,15,5,42,110,2616936792
3825,14,Improv_Melody,16,5,42,127,2617436436
3825,14,Improv_Melody,17,5,42,110,2617937356
3825,14,Improv_Melody,18,5,42,110,2618436928
3825,14,Improv_Melody,19,5,42,110,2618936948
3825,14,Improv_Melody,20,2,45,80,2619440156
3825,14,Improv_Melody,21,2,69,80,2619442452
3825,14,Improv_Melody,22,5,42,127,2619444836
3825,14,Improv_Melody,23,5,42,110,2619937080
3825,14,Improv_Melody,24,5,42,110,2620436804
3825,14,Improv_Melody,25,5,42,110,2620936824
3825,14,Improv_Melody,26,5,42,127,2621437268
3825,14,Improv_Melody,27,5,42,110,2621936988
3825,14,Improv_Melody,28,5,42,110,2622436932
3825,14,Improv_Melody,29,5,42,110,2622936360
3825,14,Improv_Melody,30,2,41,80,2623439856
3825,14,Improv_Melody,31,2,65,80,2623441856
3825,14,Improv_Melody,32,5,42,127,2623444244
3825,14,Improv_Melody,33,5,42,110,2623936788
3825,14,Improv_Melody,34,5,42,110,2624436656
3825,14,Improv_Melody,35,5,42,110,2624937424
3825,14,Improv_Melody,36,5,42,127,2625436924
3825,14,Improv_Melody,37,5,42,110,2625936648
3825,14,Improv_Melody,38,5,42,110,2626436440
3825,14,Improv_Melody,39,5,42,110,2626937060
3825,14,Improv_Melody,40,2,48,80,2627439360
3825,14,Improv_Melody,41,2,72,80,2627441512
3825,14,Improv_Melody,42,5,42,127,2627444052
3825,14,Improv_Melody,43,5,42,110,2627936592
3825,14,Improv_Melody,44,5,42,110,2628437436
3825,14,Improv_Melody,45,5,42,110,2628937008
3825,14,Improv_Melody,46,5,42,127,2629436732
3825,14,Improv_Melody,47,5,42,110,2629936380
3825,14,Improv_Melody,48,5,42,110,2630437444
3825,14,Improv_Melody,49,5,42,110,2630936868
3825,14,Improv_Melody,50,2,43,80,2631439172
3825,14,Improv_Melody,51,2,67,80,2631441172
3825,14,Improv_Melody,52,5,42,127,2631443636
3825,14,Improv_Melody,53,1,38,19,2631926452
3825,14,Improv_Melody,54,5,42,110,2631937268
3825,14,Improv_Melody,55,1,38,37,2632076528
3825,14,Improv_Melody,56,5,42,110,2632437248
3825,14,Improv_Melody,57,5,42,110,2632936672
3825,14,Improv_Melody,58,5,42,127,2633436396
3825,14,Improv_Melody,59,5,42,110,2633937236
3825,14,Improv_Melody,60,5,42,110,2634437184
3825,14,Improv_Melody,61,5,42,110,2634936608
3825,14,Improv_Melody,62,1,38,58,2635397984
3825,14,Improv_Melody,63,2,45,80,2635440096
3825,14,Improv_Melody,64,2,69,80,2635442172
3825,14,Improv_Melody,65,5,42,127,2635444708
3825,14,Improv_Melody,66,1,38,31,2635614936
3825,14,Improv_Melody,67,5,42,110,2635937068
3825,14,Improv_Melody,68,5,42,110,2636436788
3825,14,Improv_Melody,69,5,42,110,2636936512
3825,14,Improv_Melody,70,5,42,127,2637437280
3825,14,Improv_Melody,71,5,42,110,2637937076
3825,14,Improv_Melody,72,5,42,110,2638436576
3825,14,Improv_Melody,73,5,42,110,2638936372
3825,14,Improv_Melody,74,1,38,62,2639435804
3825,14,Improv_Melody,75,2,41,80,2639441284
3825,14,Improv_Melody,76,2,65,80,2639443284
3825,14,Improv_Melody,77,5,42,127,2639445744
3825,14,Improv_Melody,78,1,38,51,2639679324
3825,14,Improv_Melody,79,5,42,110,2639937128
3825,14,Improv_Melody,80,5,42,110,2640436552
3825,14,Improv_Melody,81,5,42,110,2640937320
3825,14,Improv_Melody,82,5,42,127,2641437116
3825,14,Improv_Melody,83,5,42,110,2641936840
3825,14,Improv_Melody,84,5,42,110,2642436560
3825,14,Improv_Melody,85,5,42,110,2642937080
3825,14,Improv_Melody,86,2,48,80,2643439532
3825,14,Improv_Melody,87,1,38,50,2643442072
3825,14,Improv_Melody,88,2,72,80,2643444760
3825,14,Improv_Melody,89,5,42,127,2643446848
3825,14,Improv_Melody,90,1,38,45,2643673472
3825,14,Improv_Melody,91,5,42,110,2643936732
3825,14,Improv_Melody,92,5,42,110,2644437352
3825,14,Improv_Melody,93,5,42,110,2644936924
3825,14,Improv_Melody,94,5,42,127,2645436796
3825,14,Improv_Melody,95,5,42,110,2645936740
3825,14,Improv_Melody,96,5,42,110,2646437212
3825,14,Improv_Melody,97,5,42,110,2646936932
3825,14,Improv_Melody,98,2,43,80,2647439308
3825,14,Improv_Melody,99,2,67,80,2647441540
3825,14,Improv_Melody,100,5,42,127,2647444072
3825,14,Improv_Melody,101,1,38,58,2647473372
3825,14,Improv_Melody,102,1,38,48,2647712804
3825,14,Improv_Melody,103,5,42,110,2647937244
3825,14,Improv_Melody,104,5,42,110,2648437040
3825,14,Improv_Melody,105,5,42,110,2648936760
3825,14,Improv_Melody,106,5,42,127,2649436484
3825,14,Improv_Melody,107,5,42,110,2649937400
3825,14,Improv_Melody,108,5,42,110,2650436972
3825,14,Improv_Melody,109,5,42,110,2650936620
3825,14,Improv_Melody,110,1,38,53,2651433896
3825,14,Improv_Melody,111,2,45,80,2651440416
3825,14,Improv_Melody,112,2,69,80,2651442264
3825,14,Improv_Melody,113,1,48,14,2651445020
3825,14,Improv_Melody,114,5,42,127,2651446516
3825,14,Improv_Melody,115,1,38,53,2651683132
3825,14,Improv_Melody,116,5,42,110,2651937192
3825,14,Improv_Melody,117,5,42,110,2652436988
3825,14,Improv_Melody,118,5,42,110,2652936416
3825,14,Improv_Melody,119,5,42,127,2653437380
3825,14,Improv_Melody,120,5,42,110,2653936952
3825,14,Improv_Melody,121,5,42,110,2654436676
3825,14,Improv_Melody,122,5,42,110,2654936472
3825,14,Improv_Melody,123,2,41,80,2655439976
3825,14,Improv_Melody,124,2,65,80,2655442048
3825,14,Improv_Melody,125,5,42,127,2655444728
3825,14,Improv_Melody,126,1,38,22,2655450692
3825,14,Improv_Melody,127,1,48,16,2655458828
3825,14,Improv_Melody,128,1,38,20,2655707208
3825,14,Improv_Melody,129,5,42,110,2655936736
3825,14,Improv_Melody,130,5,42,110,2656436532
3825,14,Improv_Melody,131,5,42,110,2656937300
3825,14,Improv_Melody,132,5,42,127,2657437168
3825,14,Improv_Melody,133,5,42,110,2657936816
3825,14,Improv_Melody,134,5,42,110,2658436612
3825,14,Improv_Melody,135,5,42,110,2658937308
3825,14,Improv_Melody,136,2,48,80,2659439532
3825,14,Improv_Melody,137,2,72,80,2659441688
3825,14,Improv_Melody,138,5,42,127,2659444220
3825,14,Improv_Melody,139,1,38,65,2659466492
3825,14,Improv_Melody,140,1,38,44,2659708684
3825,14,Improv_Melody,141,5,42,110,2659936572
3825,14,Improv_Melody,142,5,42,110,2660437264
3825,14,Improv_Melody,143,5,42,110,2660937284
3825,14,Improv_Melody,144,5,42,127,2661436780
3825,14,Improv_Melody,145,5,42,110,2661936356
3825,14,Improv_Melody,146,5,42,110,2662437196
3825,14,Improv_Melody,147,5,42,110,2662937068
3825,14,Improv_Melody,148,1,38,72,2663430240
3825,14,Improv_Melody,149,2,43,80,2663439288
3825,14,Improv_Melody,150,2,67,80,2663441364
3825,14,Improv_Melody,151,5,42,127,2663443976
3825,14,Improv_Melody,152,1,38,50,2663666608
3825,14,Improv_Melody,153,5,42,110,2663937356
3825,14,Improv_Melody,154,5,42,110,2664437148
3825,14,Improv_Melody,155,5,42,110,2664937020
3825,14,Improv_Melody,156,5,42,127,2665436668
3825,14,Improv_Melody,157,5,42,110,2665937140
3825,14,Improv_Melody,158,5,42,110,2666437160
3825,14,Improv_Melody,159,5,42,110,2666936880
3825,14,Improv_Melody,160,1,38,71,2667424064
3825,14,Improv_Melody,161,2,45,80,2667440000
3825,14,Improv_Melody,162,2,69,80,2667442072
3825,14,Improv_Melody,163,5,42,127,2667444536
3825,14,Improv_Melody,164,1,38,53,2667671692
3825,14,Improv_Melody,165,5,42,110,2667937044
3825,14,Improv_Melody,166,5,42,110,2668436992
3825,14,Improv_Melody,167,5,42,110,2668936712
3825,14,Improv_Melody,168,5,42,127,2669437332
3825,14,Improv_Melody,169,5,42,110,2669936904
3825,14,Improv_Melody,170,5,42,110,2670436848
3825,14,Improv_Melody,171,5,42,110,2670936720
3825,14,Improv_Melody,172,2,41,80,2671439616
3825,14,Improv_Melody,173,2,65,80,2671441620
3825,14,Improv_Melody,174,5,42,127,2671444160
3825,14,Improv_Melody,175,1,38,69,2671447580
3825,14,Improv_Melody,176,1,38,54,2671675568
3825,14,Improv_Melody,177,5,42,110,2671936884
3825,14,Improv_Melody,178,5,42,110,2672436904
3825,14,Improv_Melody,179,5,42,110,2672937372
3825,14,Improv_Melody,180,5,42,127,2673437168
3825,14,Improv_Melody,181,5,42,110,2673936744
3825,14,Improv_Melody,182,5,42,110,2674436688
3825,14,Improv_Melody,183,5,42,110,2674937060
3825,14,Improv_Melody,184,2,48,80,2675439584
3825,14,Improv_Melody,185,2,72,80,2675441584
3825,14,Improv_Melody,186,5,42,127,2675444120
3825,14,Improv_Melody,187,1,38,78,2675449864
3825,14,Improv_Melody,188,1,38,55,2675699016
3825,14,Improv_Melody,189,5,42,110,2675936620
3825,14,Improv_Melody,190,5,42,110,2676437540
3825,14,Improv_Melody,191,5,42,110,2676936964
3825,14,Improv_Melody,192,5,42,127,2677436760
3825,14,Improv_Melody,193,5,42,110,2677936632
3825,14,Improv_Melody,194,5,42,110,2678437324
3825,14,Improv_Melody,195,5,42,110,2678936824
3825,14,Improv_Melody,196,2,43,80,2679439124
3825,14,Improv_Melody,197,2,67,80,2679441428
3825,14,Improv_Melody,198,1,38,69,2679442840
3825,14,Improv_Melody,199,5,42,127,2679446420
3825,14,Improv_Melody,200,1,38,56,2679699152
3825,14,Improv_Melody,201,5,42,110,2679937432
3825,14,Improv_Melody,202,5,42,110,2680437376
3825,14,Improv_Melody,203,5,42,110,2680936876
3825,14,Improv_Melody,204,5,42,127,2681436524
3825,14,Improv_Melody,205,5,42,110,2681937292
3825,14,Improv_Melody,206,5,42,110,2682436864
3825,14,Improv_Melody,207,5,42,110,2682936660
3825,14,Improv_Melody,208,2,45,80,2683439856
3825,14,Improv_Melody,209,2,69,80,2683441936
3825,14,Improv_Melody,210,5,42,127,2683444400
3825,14,Improv_Melody,211,1,38,58,2683449164
3825,14,Improv_Melody,212,1,38,53,2683682984
3825,14,Improv_Melody,213,5,42,110,2683937344
3825,14,Improv_Melody,214,5,42,110,2684436768
3825,14,Improv_Melody,215,5,42,110,2684936416
3825,14,Improv_Melody,216,5,42,127,2685437236
3825,14,Improv_Melody,217,5,42,110,2685937180
3825,14,Improv_Melody,218,5,42,110,2686436604
3825,14,Improv_Melody,219,5,42,110,2686936324
3825,14,Improv_Melody,220,2,41,80,2687439592
3825,14,Improv_Melody,221,2,65,80,2687441820
3825,14,Improv_Melody,222,5,42,127,2687444284
3825,14,Improv_Melody,223,1,38,75,2687457200
3825,14,Improv_Melody,224,1,38,54,2687728496
3825,14,Improv_Melody,225,5,42,110,2687937080
3825,14,Improv_Melody,226,5,42,110,2688436580
3825,14,Improv_Melody,227,5,42,110,2688937200
3825,14,Improv_Melody,228,5,42,127,2689437072
3825,14,Improv_Melody,229,5,42,110,2689937092
3825,14,Improv_Melody,230,5,42,110,2690436368
3825,14,Improv_Melody,231,5,42,110,2690937208
3825,14,Improv_Melody,232,2,48,80,2691439284
3825,14,Improv_Melody,233,2,72,80,2691441140
3825,14,Improv_Melody,234,5,42,127,2691443976
3825,14,Improv_Melody,235,1,38,55,2691446796
3825,14,Improv_Melody,236,1,38,48,2691705668
3825,14,Improv_Melody,237,5,42,110,2691936844
3825,14,Improv_Melody,0,9999,9999,9999,2611434568
3825,14,Improv_Melody,1,9999,9999,9999,2611934272
3825,14,Improv_Melody,2,9999,9999,9999,2612435040
3825,14,Improv_Melody,3,9999,9999,9999,2612934764
3825,14,Improv_Melody,4,9999,9999,9999,2613434484
3825,14,Improv_Melody,5,9999,9999,9999,2613934136
3825,14,Improv_Melody,6,9999,9999,9999,2614434900
3825,14,Improv_Melody,7,9999,9999,9999,2614934624
3825,14,Improv_Melody,8,9999,9999,9999,2615434344
3825,14,Improv_Melody,9,9999,9999,9999,2615935052
3825,14,Improv_Melody,10,9999,9999,9999,2616434776
3825,14,Improv_Melody,11,9999,9999,9999,2616934496
3825,14,Improv_Melody,12,9999,9999,9999,2617434216
3825,14,Improv_Melody,13,9999,9999,9999,2617934912
3825,14,Improv_Melody,14,9999,9999,9999,2618434632
3825,14,Improv_Melody,15,9999,9999,9999,2618934356
3825,14,Improv_Melody,16,9999,9999,9999,2619435124
3825,14,Improv_Melody,17,9999,9999,9999,2619934788
3825,14,Improv_Melody,18,9999,9999,9999,2620434508
3825,14,Improv_Melody,19,9999,9999,9999,2620934232
3825,14,Improv_Melody,20,9999,9999,9999,2621434972
3825,14,Improv_Melody,21,9999,9999,9999,2621934696
3825,14,Improv_Melody,22,9999,9999,9999,2622434416
3825,14,Improv_Melody,23,9999,9999,9999,2622934064
3825,14,Improv_Melody,24,9999,9999,9999,2623434832
3825,14,Improv_Melody,25,9999,9999,9999,2623934568
3825,14,Improv_Melody,26,9999,9999,9999,2624434288
3825,14,Improv_Melody,27,9999,9999,9999,2624934984
3825,14,Improv_Melody,28,9999,9999,9999,2625434704
3825,14,Improv_Melody,29,9999,9999,9999,2625934428
3825,14,Improv_Melody,30,9999,9999,9999,2626434148
3825,14,Improv_Melody,31,9999,9999,9999,2626934840
3825,14,Improv_Melody,32,9999,9999,9999,2627434564
3825,14,Improv_Melody,33,9999,9999,9999,2627934300
3825,14,Improv_Melody,34,9999,9999,9999,2628434992
3825,14,Improv_Melody,35,9999,9999,9999,2628934716
3825,14,Improv_Melody,36,9999,9999,9999,2629434436
3825,14,Improv_Melody,37,9999,9999,9999,2629934160
3825,14,Improv_Melody,38,9999,9999,9999,2630434924
3825,14,Improv_Melody,39,9999,9999,9999,2630934648
3825,14,Improv_Melody,40,9999,9999,9999,2631434296
3825,14,Improv_Melody,41,9999,9999,9999,2631935048
3825,14,Improv_Melody,42,9999,9999,9999,2632434804
3825,14,Improv_Melody,43,9999,9999,9999,2632934452
3825,14,Improv_Melody,44,9999,9999,9999,2633434176
3825,14,Improv_Melody,45,9999,9999,9999,2633934944
3825,14,Improv_Melody,46,9999,9999,9999,2634434664
3825,14,Improv_Melody,47,9999,9999,9999,2634934388
3825,14,Improv_Melody,48,9999,9999,9999,2635435076
3825,14,Improv_Melody,49,9999,9999,9999,2635934772
3825,14,Improv_Melody,50,9999,9999,9999,2636434496
3825,14,Improv_Melody,51,9999,9999,9999,2636934216
3825,14,Improv_Melody,52,9999,9999,9999,2637434984
3825,14,Improv_Melody,53,9999,9999,9999,2637934708
3825,14,Improv_Melody,54,9999,9999,9999,2638434356
3825,14,Improv_Melody,55,9999,9999,9999,2638934076
3825,14,Improv_Melody,56,9999,9999,9999,2639434844
3825,14,Improv_Melody,57,9999,9999,9999,2639934536
3825,14,Improv_Melody,58,9999,9999,9999,2640434256
3825,14,Improv_Melody,59,9999,9999,9999,2640935028
3825,14,Improv_Melody,60,9999,9999,9999,2641434672
3825,14,Improv_Melody,61,9999,9999,9999,2641934396
3825,14,Improv_Melody,62,9999,9999,9999,2642434168
3825,14,Improv_Melody,63,9999,9999,9999,2642934860
3825,14,Improv_Melody,64,9999,9999,9999,2643434584
3825,14,Improv_Melody,65,9999,9999,9999,2643934288
3825,14,Improv_Melody,66,9999,9999,9999,2644435056
3825,14,Improv_Melody,67,9999,9999,9999,2644934704
3825,14,Improv_Melody,68,9999,9999,9999,2645434428
3825,14,Improv_Melody,69,9999,9999,9999,2645934148
3825,14,Improv_Melody,70,9999,9999,9999,2646434916
3825,14,Improv_Melody,71,9999,9999,9999,2646934640
3825,14,Improv_Melody,72,9999,9999,9999,2647434360
3825,14,Improv_Melody,73,9999,9999,9999,2647935024
3825,14,Improv_Melody,74,9999,9999,9999,2648434744
3825,14,Improv_Melody,75,9999,9999,9999,2648934468
3825,14,Improv_Melody,76,9999,9999,9999,2649434188
3825,14,Improv_Melody,77,9999,9999,9999,2649934956
3825,14,Improv_Melody,78,9999,9999,9999,2650434676
3825,14,Improv_Melody,79,9999,9999,9999,2650934324
3825,14,Improv_Melody,80,9999,9999,9999,2651435088
3825,14,Improv_Melody,81,9999,9999,9999,2651934824
3825,14,Improv_Melody,82,9999,9999,9999,2652434548
3825,14,Improv_Melody,83,9999,9999,9999,2652934196
3825,14,Improv_Melody,84,9999,9999,9999,2653434936
3825,14,Improv_Melody,85,9999,9999,9999,2653934660
3825,14,Improv_Melody,86,9999,9999,9999,2654434380
3825,14,Improv_Melody,87,9999,9999,9999,2654934104
3825,14,Improv_Melody,88,9999,9999,9999,2655434872
3825,14,Improv_Melody,89,9999,9999,9999,2655934516
3825,14,Improv_Melody,90,9999,9999,9999,2656434236
3825,14,Improv_Melody,91,9999,9999,9999,2656935004
3825,14,Improv_Melody,92,9999,9999,9999,2657434724
3825,14,Improv_Melody,93,9999,9999,9999,2657934448
3825,14,Improv_Melody,94,9999,9999,9999,2658434168
3825,14,Improv_Melody,95,9999,9999,9999,2658934864
3825,14,Improv_Melody,96,9999,9999,9999,2659434584
3825,14,Improv_Melody,97,9999,9999,9999,2659934276
3825,14,Improv_Melody,98,9999,9999,9999,2660435044
3825,14,Improv_Melody,99,9999,9999,9999,2660934768
3825,14,Improv_Melody,100,9999,9999,9999,2661434488
3825,14,Improv_Melody,101,9999,9999,9999,2661934136
3825,14,Improv_Melody,102,9999,9999,9999,2662434904
3825,14,Improv_Melody,103,9999,9999,9999,2662934624
3825,14,Improv_Melody,104,9999,9999,9999,2663434340
3825,14,Improv_Melody,105,9999,9999,9999,2663935060
3825,14,Improv_Melody,106,9999,9999,9999,2664434780
3825,14,Improv_Melody,107,9999,9999,9999,2664934504
3825,14,Improv_Melody,108,9999,9999,9999,2665434224
3825,14,Improv_Melody,109,9999,9999,9999,2665934920
3825,14,Improv_Melody,110,9999,9999,9999,2666434640
3825,14,Improv_Melody,111,9999,9999,9999,2666934364
3825,14,Improv_Melody,112,9999,9999,9999,2667435128
3825,14,Improv_Melody,113,9999,9999,9999,2667934824
3825,14,Improv_Melody,114,9999,9999,9999,2668434548
3825,14,Improv_Melody,115,9999,9999,9999,2668934196
3825,14,Improv_Melody,116,9999,9999,9999,2669434964
3825,14,Improv_Melody,117,9999,9999,9999,2669934684
3825,14,Improv_Melody,118,9999,9999,9999,2670434408
3825,14,Improv_Melody,119,9999,9999,9999,2670934128
3825,14,Improv_Melody,120,9999,9999,9999,2671434824
3825,14,Improv_Melody,121,9999,9999,9999,2671934516
3825,14,Improv_Melody,122,9999,9999,9999,2672434236
3825,14,Improv_Melody,123,9999,9999,9999,2672935004
3825,14,Improv_Melody,124,9999,9999,9999,2673434724
3825,14,Improv_Melody,125,9999,9999,9999,2673934448
3825,14,Improv_Melody,126,9999,9999,9999,2674434168
3825,14,Improv_Melody,127,9999,9999,9999,2674934840
3825,14,Improv_Melody,128,9999,9999,9999,2675434560
3825,14,Improv_Melody,129,9999,9999,9999,2675934328
3825,14,Improv_Melody,130,9999,9999,9999,2676435024
3825,14,Improv_Melody,131,9999,9999,9999,2676934744
3825,14,Improv_Melody,132,9999,9999,9999,2677434464
3825,14,Improv_Melody,133,9999,9999,9999,2677934188
3825,14,Improv_Melody,134,9999,9999,9999,2678434880
3825,14,Improv_Melody,135,9999,9999,9999,2678934604
3825,14,Improv_Melody,136,9999,9999,9999,2679434324
3825,14,Improv_Melody,137,9999,9999,9999,2679935064
3825,14,Improv_Melody,138,9999,9999,9999,2680434788
3825,14,Improv_Melody,139,9999,9999,9999,2680934508
3825,14,Improv_Melody,140,9999,9999,9999,2681434228
3825,14,Improv_Melody,141,9999,9999,9999,2681934924
3825,14,Improv_Melody,142,9999,9999,9999,2682434644
3825,14,Improv_Melody,143,9999,9999,9999,2682934368
3825,14,Improv_Melody,144,9999,9999,9999,2683435064
3825,14,Improv_Melody,145,9999,9999,9999,2683934828
3825,14,Improv_Melody,146,9999,9999,9999,2684434548
3825,14,Improv_Melody,147,9999,9999,9999,2684934196
3825,14,Improv_Melody,148,9999,9999,9999,2685434940
3825,14,Improv_Melody,149,9999,9999,9999,2685934660
3825,14,Improv_Melody,150,9999,9999,9999,2686434384
3825,14,Improv_Melody,151,9999,9999,9999,2686934104
3825,14,Improv_Melody,152,9999,9999,9999,2687434872
3825,14,Improv_Melody,153,9999,9999,9999,2687934564
3825,14,Improv_Melody,154,9999,9999,9999,2688434284
3825,14,Improv_Melody,155,9999,9999,9999,2688934980
3825,14,Improv_Melody,156,9999,9999,9999,2689434700
3825,14,Improv_Melody,157,9999,9999,9999,2689934424
3825,14,Improv_Melody,158,9999,9999,9999,2690434148
3825,14,Improv_Melody,159,9999,9999,9999,2690934840
3825,14,Improv_Melody,160,9999,9999,9999,2691434564
3825,14,Improv_Melody,161,9999,9999,9999,2691934328
38