pid,taskRunCount,taskID,taskName,i,channel,pitch,velocity,microseconds
36,1,0,Ticks_Pract_8,0,5,42,127,347047188
36,1,0,Ticks_Pract_8,1,5,42,127,347847016
36,1,0,Ticks_Pract_8,2,1,38,38,348625708
36,1,0,Ticks_Pract_8,3,5,42,127,348646840
36,1,0,Ticks_Pract_8,4,1,38,41,349294996
36,1,0,Ticks_Pract_8,5,5,42,127,349446560
36,1,0,Ticks_Pract_8,6,1,38,37,350079176
36,1,0,Ticks_Pract_8,7,5,42,127,350247264
36,1,0,Ticks_Pract_8,8,1,38,36,350828720
36,1,0,Ticks_Pract_8,9,5,42,127,351047024
36,1,0,Ticks_Pract_8,10,1,38,34,351669888
36,1,0,Ticks_Pract_8,11,5,42,127,351846756
36,1,0,Ticks_Pract_8,12,1,38,33,352625596
36,1,0,Ticks_Pract_8,13,5,42,127,352646728
36,1,0,Ticks_Pract_8,14,5,42,127,353447144
36,1,0,Ticks_Pract_8,15,1,38,28,353829284
36,1,0,Ticks_Pract_8,16,5,42,127,354247024
36,1,0,Ticks_Pract_8,17,1,38,28,354721788
36,1,0,Ticks_Pract_8,18,5,42,127,355046760
36,1,0,Ticks_Pract_8,19,5,42,127,355846588
36,1,0,Ticks_Pract_8,20,5,42,127,356647464
36,1,0,Ticks_Pract_8,21,5,42,127,357446872
36,1,0,Ticks_Pract_8,22,1,48,35,357936576
36,1,0,Ticks_Pract_8,23,5,42,127,358246828
36,1,0,Ticks_Pract_8,24,1,48,46,358737084
36,1,0,Ticks_Pract_8,25,5,42,127,359046640
36,1,0,Ticks_Pract_8,26,1,48,25,359607352
36,1,0,Ticks_Pract_8,27,5,42,127,359847344
36,1,0,Ticks_Pract_8,28,1,48,28,360573456
36,1,0,Ticks_Pract_8,29,5,42,127,360647388
36,1,0,Ticks_Pract_8,30,5,42,127,361446836
36,1,0,Ticks_Pract_8,31,1,48,35,361895048
36,1,0,Ticks_Pract_8,32,5,42,127,362246568
36,1,0,Ticks_Pract_8,33,1,48,27,362786032
36,1,0,Ticks_Pract_8,34,5,42,127,363047196
36,1,0,Ticks_Pract_8,35,1,48,43,363644132
36,1,0,Ticks_Pract_8,36,5,42,127,363847252
36,1,0,Ticks_Pract_8,37,1,48,28,364432048
36,1,0,Ticks_Pract_8,38,5,42,127,364646692
36,1,0,Ticks_Pract_8,39,1,48,34,365387840
36,1,0,Ticks_Pract_8,40,5,42,127,365446440
36,1,0,Ticks_Pract_8,41,5,42,127,366247152
36,1,0,Ticks_Pract_8,42,1,48,28,366288340
36,1,0,Ticks_Pract_8,43,5,42,127,367047184
36,1,0,Ticks_Pract_8,44,1,48,37,367155316
36,1,0,Ticks_Pract_8,45,5,42,127,367846768
36,1,0,Ticks_Pract_8,46,1,48,36,368021868
36,1,0,Ticks_Pract_8,47,5,42,127,368646424
36,1,0,Ticks_Pract_8,48,1,48,35,368732220
36,1,0,Ticks_Pract_8,49,5,42,127,369447132
36,1,0,Ticks_Pract_8,50,1,48,32,369594412
36,1,0,Ticks_Pract_8,51,5,42,127,370246968
36,1,0,Ticks_Pract_8,52,1,48,37,370450092
36,1,0,Ticks_Pract_8,0,9999,9999,9999,347044968
36,1,0,Ticks_Pract_8,1,9999,9999,9999,347844724
36,1,0,Ticks_Pract_8,2,9999,9999,9999,348644400
36,1,0,Ticks_Pract_8,3,9999,9999,9999,349444192
36,1,0,Ticks_Pract_8,4,9999,9999,9999,350244972
36,1,0,Ticks_Pract_8,5,9999,9999,9999,351044704
36,1,0,Ticks_Pract_8,6,9999,9999,9999,351844464
36,1,0,Ticks_Pract_8,7,9999,9999,9999,352644212
36,1,0,Ticks_Pract_8,8,9999,9999,9999,353444924
36,1,0,Ticks_Pract_8,9,9999,9999,9999,354244660
36,1,0,Ticks_Pract_8,10,9999,9999,9999,355044468
36,1,0,Ticks_Pract_8,11,9999,9999,9999,355844148
36,1,0,Ticks_Pract_8,12,9999,9999,9999,356644948
36,1,0,Ticks_Pract_8,13,9999,9999,9999,357444656
36,1,0,Ticks_Pract_8,14,9999,9999,9999,358244464
36,1,0,Ticks_Pract_8,15,9999,9999,9999,359044200
36,1,0,Ticks_Pract_8,16,9999,9999,9999,359844976
36,1,0,Ticks_Pract_8,17,9999,9999,9999,360644728
36,1,0,Ticks_Pract_8,18,9999,9999,9999,361444468
36,1,0,Ticks_Pract_8,19,9999,9999,9999,362244200
36,1,0,Ticks_Pract_8,20,9999,9999,9999,363044980
36,1,0,Ticks_Pract_8,21,9999,9999,9999,363844664
36,1,0,Ticks_Pract_8,22,9999,9999,9999,364644400
36,1,0,Ticks_Pract_8,23,9999,9999,9999,365444148
36,1,0,Ticks_Pract_8,24,9999,9999,9999,366244936
36,1,0,Ticks_Pract_8,25,9999,9999,9999,367044668
36,1,0,Ticks_Pract_8,26,9999,9999,9999,367844400
36,1,0,Ticks_Pract_8,27,9999,9999,9999,368644208
36,1,0,Ticks_Pract_8,28,9999,9999,9999,369444916
36,1,0,Ticks_Pract_8,29,9999,9999,9999,370244676
36,2,1,Ticks_Pract_5,0,5,42,127,391226696
36,2,1,Ticks_Pract_5,1,5,42,127,391726336
36,2,1,Ticks_Pract_5,2,1,48,39,391939960
36,2,1,Ticks_Pract_5,3,5,42,127,392227080
36,2,1,Ticks_Pract_5,4,1,48,40,392258796
36,2,1,Ticks_Pract_5,5,1,48,34,392636296
36,2,1,Ticks_Pract_5,6,5,42,127,392726840
36,2,1,Ticks_Pract_5,7,1,48,38,393164940
36,2,1,Ticks_Pract_5,8,5,42,127,393226460
36,2,1,Ticks_Pract_5,9,1,48,40,393713028
36,2,1,Ticks_Pract_5,10,5,42,127,393727200
36,2,1,Ticks_Pract_5,11,5,42,127,394227200
36,2,1,Ticks_Pract_5,12,1,48,41,394237872
36,2,1,Ticks_Pract_5,13,1,48,36,394696864
36,2,1,Ticks_Pract_5,14,5,42,127,394726888
36,2,1,Ticks_Pract_5,15,5,42,127,395226516
36,2,1,Ticks_Pract_5,16,1,48,41,395231948
36,2,1,Ticks_Pract_5,17,1,48,37,395718016
36,2,1,Ticks_Pract_5,18,5,42,127,395727176
36,2,1,Ticks_Pract_5,19,5,42,127,396226876
36,2,1,Ticks_Pract_5,20,1,48,39,396248020
36,2,1,Ticks_Pract_5,21,5,42,127,396726500
36,2,1,Ticks_Pract_5,22,1,48,38,396728512
36,2,1,Ticks_Pract_5,23,1,48,47,397215376
36,2,1,Ticks_Pract_5,24,5,42,127,397227232
36,2,1,Ticks_Pract_5,25,1,48,40,397700040
36,2,1,Ticks_Pract_5,26,5,42,127,397727228
36,2,1,Ticks_Pract_5,27,1,48,41,398199960
36,2,1,Ticks_Pract_5,28,5,42,127,398226844
36,2,1,Ticks_Pract_5,29,1,48,46,398681776
36,2,1,Ticks_Pract_5,30,5,42,127,398726468
36,2,1,Ticks_Pract_5,31,1,48,42,399202492
36,2,1,Ticks_Pract_5,32,5,42,127,399227132
36,2,1,Ticks_Pract_5,33,1,48,45,399709440
36,2,1,Ticks_Pract_5,34,5,42,127,399726828
36,2,1,Ticks_Pract_5,35,1,48,38,400214592
36,2,1,Ticks_Pract_5,36,5,42,127,400226896
36,2,1,Ticks_Pract_5,37,5,42,127,400727420
36,2,1,Ticks_Pract_5,38,1,48,41,400761956
36,2,1,Ticks_Pract_5,39,1,48,42,401226732
36,2,1,Ticks_Pract_5,40,5,42,127,401228452
36,2,1,Ticks_Pract_5,41,1,48,40,401716572
36,2,1,Ticks_Pract_5,42,5,42,127,401727000
36,2,1,Ticks_Pract_5,43,1,48,44,402226172
36,2,1,Ticks_Pract_5,44,5,42,127,402227892
36,2,1,Ticks_Pract_5,45,1,48,38,402715664
36,2,1,Ticks_Pract_5,46,5,42,127,402727216
36,2,1,Ticks_Pract_5,47,1,48,39,403181624
36,2,1,Ticks_Pract_5,48,5,42,127,403227060
36,2,1,Ticks_Pract_5,49,1,48,41,403685504
36,2,1,Ticks_Pract_5,50,5,42,127,403726828
36,2,1,Ticks_Pract_5,51,1,48,38,404182508
36,2,1,Ticks_Pract_5,52,5,42,127,404226376
36,2,1,Ticks_Pract_5,53,5,42,127,404727272
36,2,1,Ticks_Pract_5,54,1,48,40,404729208
36,2,1,Ticks_Pract_5,55,5,42,127,405226964
36,2,1,Ticks_Pract_5,56,1,48,40,405230156
36,2,1,Ticks_Pract_5,57,5,42,127,405726660
36,2,1,Ticks_Pract_5,58,1,48,39,405748104
36,2,1,Ticks_Pract_5,59,1,48,35,406221976
36,2,1,Ticks_Pract_5,60,5,42,127,406227244
36,2,1,Ticks_Pract_5,61,5,42,127,406726944
36,2,1,Ticks_Pract_5,62,1,48,38,406754744
36,2,1,Ticks_Pract_5,63,1,48,48,407214028
36,2,1,Ticks_Pract_5,64,5,42,127,407226780
36,2,1,Ticks_Pract_5,65,1,48,44,407677744
36,2,1,Ticks_Pract_5,66,5,42,127,407726700
36,2,1,Ticks_Pract_5,67,1,48,42,408211996
36,2,1,Ticks_Pract_5,68,5,42,127,408227144
36,2,1,Ticks_Pract_5,69,1,48,39,408716556
36,2,1,Ticks_Pract_5,70,5,42,127,408726836
36,2,1,Ticks_Pract_5,71,1,48,38,409183036
36,2,1,Ticks_Pract_5,72,5,42,127,409226532
36,2,1,Ticks_Pract_5,73,1,48,37,409691560
36,2,1,Ticks_Pract_5,74,5,42,127,409727572
36,2,1,Ticks_Pract_5,75,5,42,127,410227048
36,2,1,Ticks_Pract_5,76,1,48,40,410239664
36,2,1,Ticks_Pract_5,77,1,48,40,410717948
36,2,1,Ticks_Pract_5,78,5,42,127,410726736
36,2,1,Ticks_Pract_5,0,9999,9999,9999,391224404
36,2,1,Ticks_Pract_5,1,9999,9999,9999,391724120
36,2,1,Ticks_Pract_5,2,9999,9999,9999,392224864
36,2,1,Ticks_Pract_5,3,9999,9999,9999,392724552
36,2,1,Ticks_Pract_5,4,9999,9999,9999,393224244
36,2,1,Ticks_Pract_5,5,9999,9999,9999,393724984
36,2,1,Ticks_Pract_5,6,9999,9999,9999,394224760
36,2,1,Ticks_Pract_5,7,9999,9999,9999,394724448
36,2,1,Ticks_Pract_5,8,9999,9999,9999,395224152
36,2,1,Ticks_Pract_5,9,9999,9999,9999,395724884
36,2,1,Ticks_Pract_5,10,9999,9999,9999,396224588
36,2,1,Ticks_Pract_5,11,9999,9999,9999,396724284
36,2,1,Ticks_Pract_5,12,9999,9999,9999,397225016
36,2,1,Ticks_Pract_5,13,9999,9999,9999,397724788
36,2,1,Ticks_Pract_5,14,9999,9999,9999,398224480
36,2,1,Ticks_Pract_5,15,9999,9999,9999,398724176
36,2,1,Ticks_Pract_5,16,9999,9999,9999,399224920
36,2,1,Ticks_Pract_5,17,9999,9999,9999,399724612
36,2,1,Ticks_Pract_5,18,9999,9999,9999,400224308
36,2,1,Ticks_Pract_5,19,9999,9999,9999,400725056
36,2,1,Ticks_Pract_5,20,9999,9999,9999,401224824
36,2,1,Ticks_Pract_5,21,9999,9999,9999,401724488
36,2,1,Ticks_Pract_5,22,9999,9999,9999,402224188
36,2,1,Ticks_Pract_5,23,9999,9999,9999,402724928
36,2,1,Ticks_Pract_5,24,9999,9999,9999,403224696
36,2,1,Ticks_Pract_5,25,9999,9999,9999,403724388
36,2,1,Ticks_Pract_5,26,9999,9999,9999,404224084
36,2,1,Ticks_Pract_5,27,9999,9999,9999,404724832
36,2,1,Ticks_Pract_5,28,9999,9999,9999,405224524
36,2,1,Ticks_Pract_5,29,9999,9999,9999,405724220
36,2,1,Ticks_Pract_5,30,9999,9999,9999,406224956
36,2,1,Ticks_Pract_5,31,9999,9999,9999,406724728
36,2,1,Ticks_Pract_5,32,9999,9999,9999,407224416
36,2,1,Ticks_Pract_5,33,9999,9999,9999,407724112
36,2,1,Ticks_Pract_5,34,9999,9999,9999,408224852
36,2,1,Ticks_Pract_5,35,9999,9999,9999,408724548
36,2,1,Ticks_Pract_5,36,9999,9999,9999,409224244
36,2,1,Ticks_Pract_5,37,9999,9999,9999,409724984
36,2,1,Ticks_Pract_5,38,9999,9999,9999,410224760
36,2,1,Ticks_Pract_5,39,9999,9999,9999,410724448
36,3,2,T1_SMS_8,0,5,42,127,520531304
36,3,2,T1_SMS_8,1,5,42,127,521331208
36,3,2,T1_SMS_8,2,1,48,35,521513616
36,3,2,T1_SMS_8,3,1,48,29,522127308
36,3,2,T1_SMS_8,4,5,42,127,522131008
36,3,2,T1_SMS_8,5,1,48,46,522899068
36,3,2,T1_SMS_8,6,5,42,127,522930592
36,3,2,T1_SMS_8,7,1,48,34,523676812
36,3,2,T1_SMS_8,8,5,42,127,523731296
36,3,2,T1_SMS_8,9,1,48,39,524517684
36,3,2,T1_SMS_8,10,5,42,127,524531400
36,3,2,T1_SMS_8,11,1,48,39,525257724
36,3,2,T1_SMS_8,12,5,42,127,525330984
36,3,2,T1_SMS_8,13,5,42,127,526130576
36,3,2,T1_SMS_8,14,1,48,42,526172088
36,3,2,T1_SMS_8,15,1,48,38,526916080
36,3,2,T1_SMS_8,16,5,42,127,526931448
36,3,2,T1_SMS_8,17,5,42,127,527731040
36,3,2,T1_SMS_8,18,1,48,37,527732228
36,3,2,T1_SMS_8,19,1,48,38,528484280
36,3,2,T1_SMS_8,20,5,42,127,528531064
36,3,2,T1_SMS_8,21,5,42,127,529330508
36,3,2,T1_SMS_8,22,1,48,21,529350232
36,3,2,T1_SMS_8,23,1,48,44,530112700
36,3,2,T1_SMS_8,24,5,42,127,530131204
36,3,2,T1_SMS_8,25,1,48,41,530894628
36,3,2,T1_SMS_8,26,5,42,127,530930940
36,3,2,T1_SMS_8,27,1,48,42,531642004
36,3,2,T1_SMS_8,28,5,42,127,531730972
36,3,2,T1_SMS_8,29,5,42,127,532530488
36,3,2,T1_SMS_8,30,1,48,22,532627352
36,3,2,T1_SMS_8,31,5,42,127,533331368
36,3,2,T1_SMS_8,32,1,48,27,533536588
36,3,2,T1_SMS_8,33,5,42,127,534131028
36,3,2,T1_SMS_8,34,1,48,29,534285760
36,3,2,T1_SMS_8,35,5,42,127,534930908
36,3,2,T1_SMS_8,36,1,48,26,535077048
36,3,2,T1_SMS_8,37,5,42,127,535730644
36,3,2,T1_SMS_8,38,1,48,30,535767720
36,3,2,T1_SMS_8,39,1,48,30,536404228
36,3,2,T1_SMS_8,40,5,42,127,536531400
36,3,2,T1_SMS_8,41,1,48,37,537182420
36,3,2,T1_SMS_8,42,5,42,127,537330988
36,3,2,T1_SMS_8,43,1,48,35,537977292
36,3,2,T1_SMS_8,44,5,42,127,538130792
36,3,2,T1_SMS_8,45,1,48,29,538834692
36,3,2,T1_SMS_8,46,5,42,127,538930768
36,3,2,T1_SMS_8,47,5,42,127,539731280
36,3,2,T1_SMS_8,48,1,48,35,539758788
36,3,2,T1_SMS_8,49,5,42,127,540531164
36,3,2,T1_SMS_8,50,1,48,27,540565996
36,3,2,T1_SMS_8,51,1,48,36,541279620
36,3,2,T1_SMS_8,52,5,42,127,541330816
36,3,2,T1_SMS_8,53,1,48,29,542076360
36,3,2,T1_SMS_8,54,5,42,127,542130624
36,3,2,T1_SMS_8,55,5,42,127,542931556
36,3,2,T1_SMS_8,56,1,48,32,542935796
36,3,2,T1_SMS_8,57,5,42,127,543731216
36,3,2,T1_SMS_8,58,5,42,127,544530824
36,3,2,T1_SMS_8,59,1,48,14,544641228
36,3,2,T1_SMS_8,60,5,42,127,545330484
36,3,2,T1_SMS_8,61,1,48,38,545707640
36,3,2,T1_SMS_8,62,5,42,127,546131288
36,3,2,T1_SMS_8,63,1,48,20,546263064
36,3,2,T1_SMS_8,64,5,42,127,546931320
36,3,2,T1_SMS_8,65,1,48,23,546946636
36,3,2,T1_SMS_8,66,1,48,31,547709176
36,3,2,T1_SMS_8,67,5,42,127,547730752
36,3,2,T1_SMS_8,68,1,48,28,548489240
36,3,2,T1_SMS_8,69,5,42,127,548530412
36,3,2,T1_SMS_8,70,1,48,30,549300040
36,3,2,T1_SMS_8,71,5,42,127,549331192
36,3,2,T1_SMS_8,72,1,48,25,550050040
36,3,2,T1_SMS_8,73,5,42,127,550131224
36,3,2,T1_SMS_8,74,1,48,30,550852388
36,3,2,T1_SMS_8,75,5,42,127,550930884
36,3,2,T1_SMS_8,76,1,48,32,551626020
36,3,2,T1_SMS_8,77,5,42,127,551730532
36,3,2,T1_SMS_8,78,1,48,38,552453132
36,3,2,T1_SMS_8,79,5,42,127,552531200
36,3,2,T1_SMS_8,80,1,48,32,553237304
36,3,2,T1_SMS_8,81,5,42,127,553331232
36,3,2,T1_SMS_8,82,1,48,35,554049032
36,3,2,T1_SMS_8,83,5,42,127,554130892
36,3,2,T1_SMS_8,84,1,48,29,554843456
36,3,2,T1_SMS_8,85,5,42,127,554930480
36,3,2,T1_SMS_8,86,1,48,35,555605116
36,3,2,T1_SMS_8,87,5,42,127,555731244
36,3,2,T1_SMS_8,88,1,48,29,556371416
36,3,2,T1_SMS_8,89,5,42,127,556531124
36,3,2,T1_SMS_8,90,1,48,34,557125748
36,3,2,T1_SMS_8,91,5,42,127,557331008
36,3,2,T1_SMS_8,92,1,48,24,558014112
36,3,2,T1_SMS_8,93,5,42,127,558130520
36,3,2,T1_SMS_8,94,1,48,33,558817068
36,3,2,T1_SMS_8,95,5,42,127,558931252
36,3,2,T1_SMS_8,96,1,48,30,559627648
36,3,2,T1_SMS_8,97,5,42,127,559730908
36,3,2,T1_SMS_8,98,1,48,31,560400748
36,3,2,T1_SMS_8,99,5,42,127,560531012
36,3,2,T1_SMS_8,100,1,48,33,561161208
36,3,2,T1_SMS_8,101,5,42,127,561330672
36,3,2,T1_SMS_8,102,1,48,33,561966260
36,3,2,T1_SMS_8,103,5,42,127,562131304
36,3,2,T1_SMS_8,104,1,48,30,562804012
36,3,2,T1_SMS_8,105,5,42,127,562930964
36,3,2,T1_SMS_8,106,1,48,33,563666276
36,3,2,T1_SMS_8,107,5,42,127,563730788
36,3,2,T1_SMS_8,108,1,48,35,564436664
36,3,2,T1_SMS_8,109,5,42,127,564530628
36,3,2,T1_SMS_8,110,1,48,27,565201840
36,3,2,T1_SMS_8,111,5,42,127,565331212
36,3,2,T1_SMS_8,112,1,48,32,566006360
36,3,2,T1_SMS_8,113,5,42,127,566131020
36,3,2,T1_SMS_8,114,1,48,29,566805196
36,3,2,T1_SMS_8,115,5,42,127,566930680
36,3,2,T1_SMS_8,116,1,48,26,567564544
36,3,2,T1_SMS_8,117,5,42,127,567730712
36,3,2,T1_SMS_8,118,1,48,30,568352604
36,3,2,T1_SMS_8,119,5,42,127,568531564
36,3,2,T1_SMS_8,120,1,48,32,569143236
36,3,2,T1_SMS_8,121,5,42,127,569330928
36,3,2,T1_SMS_8,122,1,48,35,569946268
36,3,2,T1_SMS_8,123,5,42,127,570130808
36,3,2,T1_SMS_8,124,1,48,30,570741212
36,3,2,T1_SMS_8,125,5,42,127,570930544
36,3,2,T1_SMS_8,126,1,48,32,571488884
36,3,2,T1_SMS_8,127,5,42,127,571731572
36,3,2,T1_SMS_8,128,1,48,32,572243068
36,3,2,T1_SMS_8,129,5,42,127,572531008
36,3,2,T1_SMS_8,130,1,48,35,573004276
36,3,2,T1_SMS_8,131,5,42,127,573330888
36,3,2,T1_SMS_8,132,1,48,35,573747740
36,3,2,T1_SMS_8,133,5,42,127,574130472
36,3,2,T1_SMS_8,134,1,48,31,574576668
36,3,2,T1_SMS_8,135,5,42,127,574931328
36,3,2,T1_SMS_8,136,1,48,27,575555864
36,3,2,T1_SMS_8,137,5,42,127,575731208
36,3,2,T1_SMS_8,138,1,48,31,576364872
36,3,2,T1_SMS_8,139,5,42,127,576530720
36,3,2,T1_SMS_8,140,1,48,35,577276500
36,3,2,T1_SMS_8,141,5,42,127,577330468
36,3,2,T1_SMS_8,142,1,48,30,578003532
36,3,2,T1_SMS_8,143,5,42,127,578131180
36,3,2,T1_SMS_8,144,1,48,38,578817256
36,3,2,T1_SMS_8,145,5,42,127,578931288
36,3,2,T1_SMS_8,146,1,48,29,579632840
36,3,2,T1_SMS_8,147,5,42,127,579731544
36,3,2,T1_SMS_8,148,1,48,22,580445984
36,3,2,T1_SMS_8,149,5,42,127,580530544
36,3,2,T1_SMS_8,150,1,48,33,581250884
36,3,2,T1_SMS_8,151,5,42,127,581331252
36,3,2,T1_SMS_8,152,1,48,31,582094148
36,3,2,T1_SMS_8,153,5,42,127,582131208
36,3,2,T1_SMS_8,154,1,48,32,582900992
36,3,2,T1_SMS_8,155,5,42,127,582930868
36,3,2,T1_SMS_8,156,1,48,27,583702140
36,3,2,T1_SMS_8,157,5,42,127,583730452
36,3,2,T1_SMS_8,158,1,48,26,584458992
36,3,2,T1_SMS_8,159,5,42,127,584531232
36,3,2,T1_SMS_8,160,1,48,32,585263140
36,3,2,T1_SMS_8,161,5,42,127,585331112
36,3,2,T1_SMS_8,162,1,48,36,585983212
36,3,2,T1_SMS_8,163,5,42,127,586131056
36,3,2,T1_SMS_8,164,5,42,127,586930588
36,3,2,T1_SMS_8,165,1,48,21,586955616
36,3,2,T1_SMS_8,166,1,48,34,587697668
36,3,2,T1_SMS_8,167,5,42,127,587731288
36,3,2,T1_SMS_8,168,5,42,127,588531100
36,3,2,T1_SMS_8,169,1,48,36,588536840
36,3,2,T1_SMS_8,170,1,48,34,589296084
36,3,2,T1_SMS_8,171,5,42,127,589330900
36,3,2,T1_SMS_8,172,1,48,36,590075620
36,3,2,T1_SMS_8,173,5,42,127,590130484
36,3,2,T1_SMS_8,174,1,48,35,590824720
36,3,2,T1_SMS_8,175,5,42,127,590931424
36,3,2,T1_SMS_8,176,1,48,32,591658484
36,3,2,T1_SMS_8,177,5,42,127,591731024
36,3,2,T1_SMS_8,178,1,48,31,592501028
36,3,2,T1_SMS_8,179,5,42,127,592530756
36,3,2,T1_SMS_8,180,1,48,29,593318340
36,3,2,T1_SMS_8,181,5,42,127,593330716
36,3,2,T1_SMS_8,182,5,42,127,594131352
36,3,2,T1_SMS_8,183,1,48,39,594172768
36,3,2,T1_SMS_8,184,1,48,24,594835376
36,3,2,T1_SMS_8,185,5,42,127,594930932
36,3,2,T1_SMS_8,186,1,48,13,595675948
36,3,2,T1_SMS_8,187,5,42,127,595730744
36,3,2,T1_SMS_8,188,1,48,27,596501796
36,3,2,T1_SMS_8,189,5,42,127,596530624
36,3,2,T1_SMS_8,190,5,42,127,597331512
36,3,2,T1_SMS_8,191,1,48,35,597347872
36,3,2,T1_SMS_8,192,1,48,35,598122452
36,3,2,T1_SMS_8,193,5,42,127,598131016
36,3,2,T1_SMS_8,194,1,48,40,598878584
36,3,2,T1_SMS_8,195,5,42,127,598930752
36,3,2,T1_SMS_8,196,5,42,127,599730640
36,3,2,T1_SMS_8,197,1,48,19,599965504
36,3,2,T1_SMS_8,198,5,42,127,600531640
36,3,2,T1_SMS_8,199,1,48,25,600878932
36,3,2,T1_SMS_8,200,5,42,127,601331228
36,3,2,T1_SMS_8,201,1,48,28,601561080
36,3,2,T1_SMS_8,202,5,42,127,602130664
36,3,2,T1_SMS_8,203,1,48,22,602312272
36,3,2,T1_SMS_8,204,5,42,127,602930472
36,3,2,T1_SMS_8,205,1,48,22,602941096
36,3,2,T1_SMS_8,206,1,48,27,603620284
36,3,2,T1_SMS_8,207,5,42,127,603731404
36,3,2,T1_SMS_8,208,1,48,32,604445448
36,3,2,T1_SMS_8,209,5,42,127,604531228
36,3,2,T1_SMS_8,210,1,48,37,605251420
36,3,2,T1_SMS_8,211,5,42,127,605330740
36,3,2,T1_SMS_8,212,1,48,20,606026172
36,3,2,T1_SMS_8,213,5,42,127,606130536
36,3,2,T1_SMS_8,214,1,48,31,606775344
36,3,2,T1_SMS_8,215,5,42,127,606931240
36,3,2,T1_SMS_8,216,1,48,28,607620184
36,3,2,T1_SMS_8,217,5,42,127,607731272
36,3,2,T1_SMS_8,218,1,48,40,608457768
36,3,2,T1_SMS_8,219,5,42,127,608530800
36,3,2,T1_SMS_8,220,1,48,32,609260716
36,3,2,T1_SMS_8,221,5,42,127,609330532
36,3,2,T1_SMS_8,222,1,48,43,610045984
36,3,2,T1_SMS_8,223,5,42,127,610131236
36,3,2,T1_SMS_8,224,1,48,37,610867884
36,3,2,T1_SMS_8,225,5,42,127,610931048
36,3,2,T1_SMS_8,226,1,48,31,611666864
36,3,2,T1_SMS_8,227,5,42,127,611730932
36,3,2,T1_SMS_8,228,1,48,31,612447980
36,3,2,T1_SMS_8,229,5,42,127,612530588
36,3,2,T1_SMS_8,230,1,48,32,613187656
36,3,2,T1_SMS_8,231,5,42,127,613331208
36,3,2,T1_SMS_8,232,1,48,31,613996432
36,3,2,T1_SMS_8,233,5,42,127,614131016
36,3,2,T1_SMS_8,234,1,48,37,614707240
36,3,2,T1_SMS_8,235,5,42,127,614930972
36,3,2,T1_SMS_8,236,1,48,37,615642048
36,3,2,T1_SMS_8,237,5,42,127,615730672
36,3,2,T1_SMS_8,238,1,48,34,616434756
36,3,2,T1_SMS_8,0,9999,9999,9999,520529016
36,3,2,T1_SMS_8,1,9999,9999,9999,521328696
36,3,2,T1_SMS_8,2,9999,9999,9999,522128496
36,3,2,T1_SMS_8,3,9999,9999,9999,522928228
36,3,2,T1_SMS_8,4,9999,9999,9999,523729008
36,3,2,T1_SMS_8,5,9999,9999,9999,524528740
36,3,2,T1_SMS_8,6,9999,9999,9999,525328476
36,3,2,T1_SMS_8,7,9999,9999,9999,526128212
36,3,2,T1_SMS_8,8,9999,9999,9999,526929012
36,3,2,T1_SMS_8,9,9999,9999,9999,527728752
36,3,2,T1_SMS_8,10,9999,9999,9999,528528480
36,3,2,T1_SMS_8,11,9999,9999,9999,529328220
36,3,2,T1_SMS_8,12,9999,9999,9999,530128992
36,3,2,T1_SMS_8,13,9999,9999,9999,530928728
36,3,2,T1_SMS_8,14,9999,9999,9999,531728464
36,3,2,T1_SMS_8,15,9999,9999,9999,532528200
36,3,2,T1_SMS_8,16,9999,9999,9999,533329008
36,3,2,T1_SMS_8,17,9999,9999,9999,534128740
36,3,2,T1_SMS_8,18,9999,9999,9999,534928472
36,3,2,T1_SMS_8,19,9999,9999,9999,535728208
36,3,2,T1_SMS_8,20,9999,9999,9999,536528964
36,3,2,T1_SMS_8,21,9999,9999,9999,537328700
36,3,2,T1_SMS_8,22,9999,9999,9999,538128432
36,3,2,T1_SMS_8,23,9999,9999,9999,538928180
36,3,2,T1_SMS_8,24,9999,9999,9999,539728992
36,3,2,T1_SMS_8,25,9999,9999,9999,540528724
36,3,2,T1_SMS_8,26,9999,9999,9999,541328452
36,3,2,T1_SMS_8,27,9999,9999,9999,542128184
36,3,2,T1_SMS_8,28,9999,9999,9999,542928972
36,3,2,T1_SMS_8,29,9999,9999,9999,543728704
36,3,2,T1_SMS_8,30,9999,9999,9999,544528460
36,3,2,T1_SMS_8,31,9999,9999,9999,545328196
36,3,2,T1_SMS_8,32,9999,9999,9999,546129000
36,3,2,T1_SMS_8,33,9999,9999,9999,546928736
36,3,2,T1_SMS_8,34,9999,9999,9999,547728464
36,3,2,T1_SMS_8,35,9999,9999,9999,548528200
36,3,2,T1_SMS_8,36,9999,9999,9999,549328980
36,3,2,T1_SMS_8,37,9999,9999,9999,550128712
36,3,2,T1_SMS_8,38,9999,9999,9999,550928448
36,3,2,T1_SMS_8,39,9999,9999,9999,551728244
36,3,2,T1_SMS_8,40,9999,9999,9999,552528988
36,3,2,T1_SMS_8,41,9999,9999,9999,553328724
36,3,2,T1_SMS_8,42,9999,9999,9999,554128456
36,3,2,T1_SMS_8,43,9999,9999,9999,554928192
36,3,2,T1_SMS_8,44,9999,9999,9999,555728956
36,3,2,T1_SMS_8,45,9999,9999,9999,556528688
36,3,2,T1_SMS_8,46,9999,9999,9999,557328496
36,3,2,T1_SMS_8,47,9999,9999,9999,558128232
36,3,2,T1_SMS_8,48,9999,9999,9999,558928964
36,3,2,T1_SMS_8,49,9999,9999,9999,559728696
36,3,2,T1_SMS_8,50,9999,9999,9999,560528504
36,3,2,T1_SMS_8,51,9999,9999,9999,561328236
36,3,2,T1_SMS_8,52,9999,9999,9999,562128940
36,3,2,T1_SMS_8,53,9999,9999,9999,562928748
36,3,2,T1_SMS_8,54,9999,9999,9999,563728500
36,3,2,T1_SMS_8,55,9999,9999,9999,564528192
36,3,2,T1_SMS_8,56,9999,9999,9999,565328996
36,3,2,T1_SMS_8,57,9999,9999,9999,566128732
36,3,2,T1_SMS_8,58,9999,9999,9999,566928468
36,3,2,T1_SMS_8,59,9999,9999,9999,567728200
36,3,2,T1_SMS_8,60,9999,9999,9999,568528980
36,3,2,T1_SMS_8,61,9999,9999,9999,569328712
36,3,2,T1_SMS_8,62,9999,9999,9999,570128448
36,3,2,T1_SMS_8,63,9999,9999,9999,570928180
36,3,2,T1_SMS_8,64,9999,9999,9999,571728984
36,3,2,T1_SMS_8,65,9999,9999,9999,572528720
36,3,2,T1_SMS_8,66,9999,9999,9999,573328452
36,3,2,T1_SMS_8,67,9999,9999,9999,574128184
36,3,2,T1_SMS_8,68,9999,9999,9999,574928964
36,3,2,T1_SMS_8,69,9999,9999,9999,575728696
36,3,2,T1_SMS_8,70,9999,9999,9999,576528432
36,3,2,T1_SMS_8,71,9999,9999,9999,577328180
36,3,2,T1_SMS_8,72,9999,9999,9999,578128968
36,3,2,T1_SMS_8,73,9999,9999,9999,578928700
36,3,2,T1_SMS_8,74,9999,9999,9999,579728448
36,3,2,T1_SMS_8,75,9999,9999,9999,580528184
36,3,2,T1_SMS_8,76,9999,9999,9999,581328964
36,3,2,T1_SMS_8,77,9999,9999,9999,582128696
36,3,2,T1_SMS_8,78,9999,9999,9999,582928432
36,3,2,T1_SMS_8,79,9999,9999,9999,583728236
36,3,2,T1_SMS_8,80,9999,9999,9999,584528944
36,3,2,T1_SMS_8,81,9999,9999,9999,585328752
36,3,2,T1_SMS_8,82,9999,9999,9999,586128468
36,3,2,T1_SMS_8,83,9999,9999,9999,586928224
36,3,2,T1_SMS_8,84,9999,9999,9999,587729000
36,3,2,T1_SMS_8,85,9999,9999,9999,588528736
36,3,2,T1_SMS_8,86,9999,9999,9999,589328464
36,3,2,T1_SMS_8,87,9999,9999,9999,590128196
36,3,2,T1_SMS_8,88,9999,9999,9999,590928988
36,3,2,T1_SMS_8,89,9999,9999,9999,591728736
36,3,2,T1_SMS_8,90,9999,9999,9999,592528468
36,3,2,T1_SMS_8,91,9999,9999,9999,593328204
36,3,2,T1_SMS_8,92,9999,9999,9999,594128992
36,3,2,T1_SMS_8,93,9999,9999,9999,594928720
36,3,2,T1_SMS_8,94,9999,9999,9999,595728452
36,3,2,T1_SMS_8,95,9999,9999,9999,596528188
36,3,2,T1_SMS_8,96,9999,9999,9999,597329000
36,3,2,T1_SMS_8,97,9999,9999,9999,598128728
36,3,2,T1_SMS_8,98,9999,9999,9999,598928464
36,3,2,T1_SMS_8,99,9999,9999,9999,599728204
36,3,2,T1_SMS_8,100,9999,9999,9999,600528984
36,3,2,T1_SMS_8,101,9999,9999,9999,601328716
36,3,2,T1_SMS_8,102,9999,9999,9999,602128448
36,3,2,T1_SMS_8,103,9999,9999,9999,602928184
36,3,2,T1_SMS_8,104,9999,9999,9999,603728968
36,3,2,T1_SMS_8,105,9999,9999,9999,604528716
36,3,2,T1_SMS_8,106,9999,9999,9999,605328452
36,3,2,T1_SMS_8,107,9999,9999,9999,606128244
36,3,2,T1_SMS_8,108,9999,9999,9999,606928952
36,3,2,T1_SMS_8,109,9999,9999,9999,607728688
36,3,2,T1_SMS_8,110,9999,9999,9999,608528436
36,3,2,T1_SMS_8,111,9999,9999,9999,609328244
36,3,2,T1_SMS_8,112,9999,9999,9999,610128948
36,3,2,T1_SMS_8,113,9999,9999,9999,610928760
36,3,2,T1_SMS_8,114,9999,9999,9999,611728492
36,3,2,T1_SMS_8,115,9999,9999,9999,612528228
36,3,2,T1_SMS_8,116,9999,9999,9999,613328992
36,3,2,T1_SMS_8,117,9999,9999,9999,614128728
36,3,2,T1_SMS_8,118,9999,9999,9999,614928460
36,3,2,T1_SMS_8,119,9999,9999,9999,615728208
36,4,4,T1_SMS_5,0,5,42,127,694192416
36,4,4,T1_SMS_5,1,1,48,32,694596196
36,4,4,T1_SMS_5,2,5,42,127,694693376
36,4,4,T1_SMS_5,3,1,48,29,694978360
36,4,4,T1_SMS_5,4,5,42,127,695192852
36,4,4,T1_SMS_5,5,1,48,31,695423972
36,4,4,T1_SMS_5,6,5,42,127,695692768
36,4,4,T1_SMS_5,7,1,48,33,695897272
36,4,4,T1_SMS_5,8,5,42,127,696193360
36,4,4,T1_SMS_5,9,1,48,36,696415364
36,4,4,T1_SMS_5,10,5,42,127,696693132
36,4,4,T1_SMS_5,11,1,48,28,696929720
36,4,4,T1_SMS_5,12,5,42,127,697192900
36,4,4,T1_SMS_5,13,1,48,35,697488880
36,4,4,T1_SMS_5,14,5,42,127,697692596
36,4,4,T1_SMS_5,15,1,48,28,698075192
36,4,4,T1_SMS_5,16,5,42,127,698193188
36,4,4,T1_SMS_5,17,1,48,28,698561196
36,4,4,T1_SMS_5,18,5,42,127,698692956
36,4,4,T1_SMS_5,19,1,48,37,699098144
36,4,4,T1_SMS_5,20,5,42,127,699193172
36,4,4,T1_SMS_5,21,1,48,36,699644060
36,4,4,T1_SMS_5,22,5,42,127,699693484
36,4,4,T1_SMS_5,23,1,48,27,700153104
36,4,4,T1_SMS_5,24,5,42,127,700193080
36,4,4,T1_SMS_5,25,5,42,127,700692784
36,4,4,T1_SMS_5,26,1,48,28,700701064
36,4,4,T1_SMS_5,27,5,42,127,701192480
36,4,4,T1_SMS_5,28,1,48,38,701207940
36,4,4,T1_SMS_5,29,1,48,28,701650024
36,4,4,T1_SMS_5,30,5,42,127,701693212
36,4,4,T1_SMS_5,31,1,48,32,702168792
36,4,4,T1_SMS_5,32,5,42,127,702192984
36,4,4,T1_SMS_5,33,1,48,36,702623760
36,4,4,T1_SMS_5,34,5,42,127,702692604
36,4,4,T1_SMS_5,35,5,42,127,703192676
36,4,4,T1_SMS_5,36,1,48,34,703202456
36,4,4,T1_SMS_5,37,1,48,34,703676852
36,4,4,T1_SMS_5,38,5,42,127,703693040
36,4,4,T1_SMS_5,39,1,48,35,704184168
36,4,4,T1_SMS_5,40,5,42,127,704192808
36,4,4,T1_SMS_5,41,5,42,127,704692660
36,4,4,T1_SMS_5,42,1,48,32,704701540
36,4,4,T1_SMS_5,43,1,48,38,705165608
36,4,4,T1_SMS_5,44,5,42,127,705193616
36,4,4,T1_SMS_5,45,1,48,30,705629100
36,4,4,T1_SMS_5,46,5,42,127,705693012
36,4,4,T1_SMS_5,47,1,48,31,706148844
36,4,4,T1_SMS_5,48,5,42,127,706192708
36,4,4,T1_SMS_5,49,1,48,30,706646444
36,4,4,T1_SMS_5,50,5,42,127,706692476
36,4,4,T1_SMS_5,51,1,48,30,707141424
36,4,4,T1_SMS_5,52,5,42,127,707193368
36,4,4,T1_SMS_5,53,1,48,34,707606236
36,4,4,T1_SMS_5,54,5,42,127,707692912
36,4,4,T1_SMS_5,55,1,48,32,708190420
36,4,4,T1_SMS_5,56,5,42,127,708192536
36,4,4,T1_SMS_5,57,1,48,31,708660632
36,4,4,T1_SMS_5,58,5,42,127,708693352
36,4,4,T1_SMS_5,59,1,48,34,709159104
36,4,4,T1_SMS_5,60,5,42,127,709193044
36,4,4,T1_SMS_5,61,1,48,34,709648480
36,4,4,T1_SMS_5,62,5,42,127,709692740
36,4,4,T1_SMS_5,63,1,48,36,710122592
36,4,4,T1_SMS_5,64,5,42,127,710192584
36,4,4,T1_SMS_5,65,1,48,34,710678612
36,4,4,T1_SMS_5,66,5,42,127,710693300
36,4,4,T1_SMS_5,67,1,48,33,711167384
36,4,4,T1_SMS_5,68,5,42,127,711193220
36,4,4,T1_SMS_5,69,1,48,34,711661844
36,4,4,T1_SMS_5,70,5,42,127,711692764
36,4,4,T1_SMS_5,71,1,48,30,712131168
36,4,4,T1_SMS_5,72,5,42,127,712193508
36,4,4,T1_SMS_5,73,1,48,35,712644776
36,4,4,T1_SMS_5,74,5,42,127,712693276
36,4,4,T1_SMS_5,75,1,48,27,713187032
36,4,4,T1_SMS_5,76,5,42,127,713192896
36,4,4,T1_SMS_5,77,1,48,27,713672660
36,4,4,T1_SMS_5,78,5,42,127,713692520
36,4,4,T1_SMS_5,79,1,48,38,714134284
36,4,4,T1_SMS_5,80,5,42,127,714193112
36,4,4,T1_SMS_5,81,1,48,36,714604736
36,4,4,T1_SMS_5,82,5,42,127,714693104
36,4,4,T1_SMS_5,83,1,48,36,715100616
36,4,4,T1_SMS_5,84,5,42,127,715192652
36,4,4,T1_SMS_5,85,5,42,127,715693396
36,4,4,T1_SMS_5,86,1,48,38,715723444
36,4,4,T1_SMS_5,87,1,48,32,716137228
36,4,4,T1_SMS_5,88,5,42,127,716193212
36,4,4,T1_SMS_5,89,1,48,32,716634528
36,4,4,T1_SMS_5,90,5,42,127,716692904
36,4,4,T1_SMS_5,91,1,48,32,717118820
36,4,4,T1_SMS_5,92,5,42,127,717192528
36,4,4,T1_SMS_5,93,1,48,37,717633096
36,4,4,T1_SMS_5,94,5,42,127,717693416
36,4,4,T1_SMS_5,95,1,48,40,718123888
36,4,4,T1_SMS_5,96,5,42,127,718192964
36,4,4,T1_SMS_5,97,1,48,32,718623260
36,4,4,T1_SMS_5,98,5,42,127,718692656
36,4,4,T1_SMS_5,99,1,48,41,719131556
36,4,4,T1_SMS_5,100,5,42,127,719192276
36,4,4,T1_SMS_5,101,1,48,40,719629008
36,4,4,T1_SMS_5,102,5,42,127,719693092
36,4,4,T1_SMS_5,103,1,48,39,720178468
36,4,4,T1_SMS_5,104,5,42,127,720192936
36,4,4,T1_SMS_5,105,5,42,127,720692712
36,4,4,T1_SMS_5,106,1,48,34,720776692
36,4,4,T1_SMS_5,107,5,42,127,721193356
36,4,4,T1_SMS_5,108,1,48,31,721201136
36,4,4,T1_SMS_5,109,1,48,36,721661220
36,4,4,T1_SMS_5,110,5,42,127,721692972
36,4,4,T1_SMS_5,111,1,48,34,722103696
36,4,4,T1_SMS_5,112,5,42,127,722193036
36,4,4,T1_SMS_5,113,5,42,127,722692516
36,4,4,T1_SMS_5,114,1,48,32,722764248
36,4,4,T1_SMS_5,115,5,42,127,723193184
36,4,4,T1_SMS_5,116,1,48,28,723277936
36,4,4,T1_SMS_5,117,1,48,38,723691132
36,4,4,T1_SMS_5,118,5,42,127,723692872
36,4,4,T1_SMS_5,119,1,48,35,724161792
36,4,4,T1_SMS_5,120,5,42,127,724192788
36,4,4,T1_SMS_5,121,1,48,33,724634256
36,4,4,T1_SMS_5,122,5,42,127,724693308
36,4,4,T1_SMS_5,123,1,48,37,725156836
36,4,4,T1_SMS_5,124,5,42,127,725193076
36,4,4,T1_SMS_5,125,1,48,37,725661176
36,4,4,T1_SMS_5,126,5,42,127,725692920
36,4,4,T1_SMS_5,127,1,48,32,726100804
36,4,4,T1_SMS_5,128,5,42,127,726192600
36,4,4,T1_SMS_5,129,1,48,35,726634760
36,4,4,T1_SMS_5,130,5,42,127,726693356
36,4,4,T1_SMS_5,131,1,48,29,727138420
36,4,4,T1_SMS_5,132,5,42,127,727192904
36,4,4,T1_SMS_5,133,1,48,39,727666760
36,4,4,T1_SMS_5,134,5,42,127,727692596
36,4,4,T1_SMS_5,135,5,42,127,728193496
36,4,4,T1_SMS_5,136,1,48,35,728218304
36,4,4,T1_SMS_5,137,1,48,32,728684468
36,4,4,T1_SMS_5,138,5,42,127,728692960
36,4,4,T1_SMS_5,139,1,48,37,729174816
36,4,4,T1_SMS_5,140,5,42,127,729192952
36,4,4,T1_SMS_5,141,1,48,29,729649236
36,4,4,T1_SMS_5,142,5,42,127,729692724
36,4,4,T1_SMS_5,143,1,48,37,730130580
36,4,4,T1_SMS_5,144,5,42,127,730193316
36,4,4,T1_SMS_5,145,1,48,35,730628332
36,4,4,T1_SMS_5,146,5,42,127,730692860
36,4,4,T1_SMS_5,147,1,48,38,731139544
36,4,4,T1_SMS_5,148,5,42,127,731192780
36,4,4,T1_SMS_5,149,1,48,36,731613876
36,4,4,T1_SMS_5,150,5,42,127,731693524
36,4,4,T1_SMS_5,151,1,48,31,732130104
36,4,4,T1_SMS_5,152,5,42,127,732193268
36,4,4,T1_SMS_5,153,1,48,32,732626880
36,4,4,T1_SMS_5,154,5,42,127,732692816
36,4,4,T1_SMS_5,155,1,48,34,733120524
36,4,4,T1_SMS_5,156,5,42,127,733192660
36,4,4,T1_SMS_5,157,1,48,24,733682520
36,4,4,T1_SMS_5,158,5,42,127,733693476
36,4,4,T1_SMS_5,159,1,48,24,734160004
36,4,4,T1_SMS_5,160,5,42,127,734193096
36,4,4,T1_SMS_5,161,1,48,35,734676076
36,4,4,T1_SMS_5,162,5,42,127,734692640
36,4,4,T1_SMS_5,163,1,48,38,735170460
36,4,4,T1_SMS_5,164,5,42,127,735192408
36,4,4,T1_SMS_5,165,1,48,35,735666112
36,4,4,T1_SMS_5,166,5,42,127,735693300
36,4,4,T1_SMS_5,167,1,48,39,736160052
36,4,4,T1_SMS_5,168,5,42,127,736192772
36,4,4,T1_SMS_5,169,1,48,33,736630352
36,4,4,T1_SMS_5,170,5,42,127,736692616
36,4,4,T1_SMS_5,171,1,48,34,737127656
36,4,4,T1_SMS_5,172,5,42,127,737193284
36,4,4,T1_SMS_5,173,1,48,33,737622856
36,4,4,T1_SMS_5,174,5,42,127,737693276
36,4,4,T1_SMS_5,175,1,48,38,738187408
36,4,4,T1_SMS_5,176,5,42,127,738192676
36,4,4,T1_SMS_5,177,5,42,127,738692452
36,4,4,T1_SMS_5,178,1,48,26,738715240
36,4,4,T1_SMS_5,179,1,48,35,739169216
36,4,4,T1_SMS_5,180,5,42,127,739193184
36,4,4,T1_SMS_5,181,1,48,36,739678412
36,4,4,T1_SMS_5,182,5,42,127,739693176
36,4,4,T1_SMS_5,183,1,48,33,740155064
36,4,4,T1_SMS_5,184,5,42,127,740192576
36,4,4,T1_SMS_5,185,1,48,35,740679592
36,4,4,T1_SMS_5,186,5,42,127,740693240
36,4,4,T1_SMS_5,187,1,48,31,741130496
36,4,4,T1_SMS_5,188,5,42,127,741193308
36,4,4,T1_SMS_5,189,1,48,35,741653604
36,4,4,T1_SMS_5,190,5,42,127,741692708
36,4,4,T1_SMS_5,191,1,48,35,742180600
36,4,4,T1_SMS_5,192,5,42,127,742192476
36,4,4,T1_SMS_5,193,5,42,127,742693124
36,4,4,T1_SMS_5,194,1,48,39,742709364
36,4,4,T1_SMS_5,195,5,42,127,743192896
36,4,4,T1_SMS_5,196,1,48,35,743225660
36,4,4,T1_SMS_5,197,1,48,29,743683944
36,4,4,T1_SMS_5,198,5,42,127,743692508
36,4,4,T1_SMS_5,199,1,48,28,744177136
36,4,4,T1_SMS_5,200,5,42,127,744193248
36,4,4,T1_SMS_5,201,1,48,32,744693248
36,4,4,T1_SMS_5,202,5,42,127,744694888
36,4,4,T1_SMS_5,203,1,48,42,745141892
36,4,4,T1_SMS_5,204,5,42,127,745193012
36,4,4,T1_SMS_5,205,1,48,28,745625352
36,4,4,T1_SMS_5,206,5,42,127,745692484
36,4,4,T1_SMS_5,207,1,48,34,746126844
36,4,4,T1_SMS_5,208,5,42,127,746193148
36,4,4,T1_SMS_5,209,1,48,32,746603052
36,4,4,T1_SMS_5,210,5,42,127,746692992
36,4,4,T1_SMS_5,211,1,48,34,747105592
36,4,4,T1_SMS_5,212,5,42,127,747192836
36,4,4,T1_SMS_5,213,1,48,29,747659212
36,4,4,T1_SMS_5,214,5,42,127,747693356
36,4,4,T1_SMS_5,215,1,48,33,748161004
36,4,4,T1_SMS_5,216,5,42,127,748193204
36,4,4,T1_SMS_5,217,1,48,31,748661976
36,4,4,T1_SMS_5,218,5,42,127,748692972
36,4,4,T1_SMS_5,219,5,42,127,749192676
36,4,4,T1_SMS_5,220,1,48,29,749222200
36,4,4,T1_SMS_5,221,5,42,127,749693192
36,4,4,T1_SMS_5,222,1,48,28,749715464
36,4,4,T1_SMS_5,223,5,42,127,750192964
36,4,4,T1_SMS_5,224,1,48,29,750213440
36,4,4,T1_SMS_5,225,1,48,31,750645944
36,4,4,T1_SMS_5,226,5,42,127,750692876
36,4,4,T1_SMS_5,227,1,48,37,751123924
36,4,4,T1_SMS_5,228,5,42,127,751192348
36,4,4,T1_SMS_5,229,1,48,31,751605968
36,4,4,T1_SMS_5,230,5,42,127,751693016
36,4,4,T1_SMS_5,231,1,48,29,752158020
36,4,4,T1_SMS_5,232,5,42,127,752192856
36,4,4,T1_SMS_5,233,1,48,32,752660780
36,4,4,T1_SMS_5,234,5,42,127,752692700
36,4,4,T1_SMS_5,235,1,48,29,753192848
36,4,4,T1_SMS_5,236,5,42,127,753194636
36,4,4,T1_SMS_5,237,5,42,127,753692896
36,4,4,T1_SMS_5,238,1,48,26,753717056
36,4,4,T1_SMS_5,239,5,42,127,754192740
36,4,4,T1_SMS_5,240,1,48,29,754216976
36,4,4,T1_SMS_5,241,1,48,36,754668532
36,4,4,T1_SMS_5,242,5,42,127,754692724
36,4,4,T1_SMS_5,243,5,42,127,755193104
36,4,4,T1_SMS_5,244,1,48,28,755196148
36,4,4,T1_SMS_5,245,1,48,41,755658876
36,4,4,T1_SMS_5,246,5,42,127,755692788
36,4,4,T1_SMS_5,247,1,48,34,756181680
36,4,4,T1_SMS_5,248,5,42,127,756192560
36,4,4,T1_SMS_5,249,5,42,127,756693308
36,4,4,T1_SMS_5,250,1,48,38,756705176
36,4,4,T1_SMS_5,251,1,48,34,757157064
36,4,4,T1_SMS_5,252,5,42,127,757192996
36,4,4,T1_SMS_5,253,1,48,28,757680168
36,4,4,T1_SMS_5,254,5,42,127,757692692
36,4,4,T1_SMS_5,255,1,48,32,758190272
36,4,4,T1_SMS_5,256,5,42,127,758192608
36,4,4,T1_SMS_5,257,1,48,29,758658984
36,4,4,T1_SMS_5,258,5,42,127,758693500
36,4,4,T1_SMS_5,259,1,48,32,759175584
36,4,4,T1_SMS_5,0,9999,9999,9999,694190128
36,4,4,T1_SMS_5,1,9999,9999,9999,694690884
36,4,4,T1_SMS_5,2,9999,9999,9999,695190636
36,4,4,T1_SMS_5,3,9999,9999,9999,695690332
36,4,4,T1_SMS_5,4,9999,9999,9999,696191072
36,4,4,T1_SMS_5,5,9999,9999,9999,696690768
36,4,4,T1_SMS_5,6,9999,9999,9999,697190464
36,4,4,T1_SMS_5,7,9999,9999,9999,697690160
36,4,4,T1_SMS_5,8,9999,9999,9999,698190904
36,4,4,T1_SMS_5,9,9999,9999,9999,698690672
36,4,4,T1_SMS_5,10,9999,9999,9999,699190380
36,4,4,T1_SMS_5,11,9999,9999,9999,699691096
36,4,4,T1_SMS_5,12,9999,9999,9999,700190792
36,4,4,T1_SMS_5,13,9999,9999,9999,700690496
36,4,4,T1_SMS_5,14,9999,9999,9999,701190192
36,4,4,T1_SMS_5,15,9999,9999,9999,701691000
36,4,4,T1_SMS_5,16,9999,9999,9999,702190696
36,4,4,T1_SMS_5,17,9999,9999,9999,702690392
36,4,4,T1_SMS_5,18,9999,9999,9999,703190092
36,4,4,T1_SMS_5,19,9999,9999,9999,703690828
36,4,4,T1_SMS_5,20,9999,9999,9999,704190524
36,4,4,T1_SMS_5,21,9999,9999,9999,704690224
36,4,4,T1_SMS_5,22,9999,9999,9999,705191032
36,4,4,T1_SMS_5,23,9999,9999,9999,705690728
36,4,4,T1_SMS_5,24,9999,9999,9999,706190420
36,4,4,T1_SMS_5,25,9999,9999,9999,706690116
36,4,4,T1_SMS_5,26,9999,9999,9999,707190860
36,4,4,T1_SMS_5,27,9999,9999,9999,707690552
36,4,4,T1_SMS_5,28,9999,9999,9999,708190292
36,4,4,T1_SMS_5,29,9999,9999,9999,708691064
36,4,4,T1_SMS_5,30,9999,9999,9999,709190760
36,4,4,T1_SMS_5,31,9999,9999,9999,709690452
36,4,4,T1_SMS_5,32,9999,9999,9999,710190148
36,4,4,T1_SMS_5,33,9999,9999,9999,710690864
36,4,4,T1_SMS_5,34,9999,9999,9999,711190636
36,4,4,T1_SMS_5,35,9999,9999,9999,711690332
36,4,4,T1_SMS_5,36,9999,9999,9999,712191072
36,4,4,T1_SMS_5,37,9999,9999,9999,712690768
36,4,4,T1_SMS_5,38,9999,9999,9999,713190464
36,4,4,T1_SMS_5,39,9999,9999,9999,713690232
36,4,4,T1_SMS_5,40,9999,9999,9999,714190900
36,4,4,T1_SMS_5,41,9999,9999,9999,714690668
36,4,4,T1_SMS_5,42,9999,9999,9999,715190364
36,4,4,T1_SMS_5,43,9999,9999,9999,715691112
36,4,4,T1_SMS_5,44,9999,9999,9999,716190776
36,4,4,T1_SMS_5,45,9999,9999,9999,716690544
36,4,4,T1_SMS_5,46,9999,9999,9999,717190240
36,4,4,T1_SMS_5,47,9999,9999,9999,717690984
36,4,4,T1_SMS_5,48,9999,9999,9999,718190676
36,4,4,T1_SMS_5,49,9999,9999,9999,718690372
36,4,4,T1_SMS_5,50,9999,9999,9999,719190064
36,4,4,T1_SMS_5,51,9999,9999,9999,719690804
36,4,4,T1_SMS_5,52,9999,9999,9999,720190576
36,4,4,T1_SMS_5,53,9999,9999,9999,720690276
36,4,4,T1_SMS_5,54,9999,9999,9999,721190992
36,4,4,T1_SMS_5,55,9999,9999,9999,721690684
36,4,4,T1_SMS_5,56,9999,9999,9999,722190452
36,4,4,T1_SMS_5,57,9999,9999,9999,722690152
36,4,4,T1_SMS_5,58,9999,9999,9999,723190896
36,4,4,T1_SMS_5,59,9999,9999,9999,723690608
36,4,4,T1_SMS_5,60,9999,9999,9999,724190280
36,4,4,T1_SMS_5,61,9999,9999,9999,724691020
36,4,4,T1_SMS_5,62,9999,9999,9999,725190716
36,4,4,T1_SMS_5,63,9999,9999,9999,725690488
36,4,4,T1_SMS_5,64,9999,9999,9999,726190180
36,4,4,T1_SMS_5,65,9999,9999,9999,726690920
36,4,4,T1_SMS_5,66,9999,9999,9999,727190616
36,4,4,T1_SMS_5,67,9999,9999,9999,727690312
36,4,4,T1_SMS_5,68,9999,9999,9999,728191060
36,4,4,T1_SMS_5,69,9999,9999,9999,728690748
36,4,4,T1_SMS_5,70,9999,9999,9999,729190516
36,4,4,T1_SMS_5,71,9999,9999,9999,729690216
36,4,4,T1_SMS_5,72,9999,9999,9999,730190956
36,4,4,T1_SMS_5,73,9999,9999,9999,730690648
36,4,4,T1_SMS_5,74,9999,9999,9999,731190348
36,4,4,T1_SMS_5,75,9999,9999,9999,731691088
36,4,4,T1_SMS_5,76,9999,9999,9999,732190832
36,4,4,T1_SMS_5,77,9999,9999,9999,732690528
36,4,4,T1_SMS_5,78,9999,9999,9999,733190224
36,4,4,T1_SMS_5,79,9999,9999,9999,733690964
36,4,4,T1_SMS_5,80,9999,9999,9999,734190660
36,4,4,T1_SMS_5,81,9999,9999,9999,734690356
36,4,4,T1_SMS_5,82,9999,9999,9999,735190124
36,4,4,T1_SMS_5,83,9999,9999,9999,735690864
36,4,4,T1_SMS_5,84,9999,9999,9999,736190560
36,4,4,T1_SMS_5,85,9999,9999,9999,736690256
36,4,4,T1_SMS_5,86,9999,9999,9999,737190996
36,4,4,T1_SMS_5,87,9999,9999,9999,737690692
36,4,4,T1_SMS_5,88,9999,9999,9999,738190388
36,4,4,T1_SMS_5,89,9999,9999,9999,738690164
36,4,4,T1_SMS_5,90,9999,9999,9999,739190900
36,4,4,T1_SMS_5,91,9999,9999,9999,739690592
36,4,4,T1_SMS_5,92,9999,9999,9999,740190288
36,4,4,T1_SMS_5,93,9999,9999,9999,740691028
36,4,4,T1_SMS_5,94,9999,9999,9999,741190724
36,4,4,T1_SMS_5,95,9999,9999,9999,741690420
36,4,4,T1_SMS_5,96,9999,9999,9999,742190188
36,4,4,T1_SMS_5,97,9999,9999,9999,742690912
36,4,4,T1_SMS_5,98,9999,9999,9999,743190608
36,4,4,T1_SMS_5,99,9999,9999,9999,743690296
36,4,4,T1_SMS_5,100,9999,9999,9999,744191036
36,4,4,T1_SMS_5,101,9999,9999,9999,744690740
36,4,4,T1_SMS_5,102,9999,9999,9999,745190500
36,4,4,T1_SMS_5,103,9999,9999,9999,745690196
36,4,4,T1_SMS_5,104,9999,9999,9999,746190936
36,4,4,T1_SMS_5,105,9999,9999,9999,746690632
36,4,4,T1_SMS_5,106,9999,9999,9999,747190328
36,4,4,T1_SMS_5,107,9999,9999,9999,747691068
36,4,4,T1_SMS_5,108,9999,9999,9999,748190840
36,4,4,T1_SMS_5,109,9999,9999,9999,748690536
36,4,4,T1_SMS_5,110,9999,9999,9999,749190240
36,4,4,T1_SMS_5,111,9999,9999,9999,749690980
36,4,4,T1_SMS_5,112,9999,9999,9999,750190676
36,4,4,T1_SMS_5,113,9999,9999,9999,750690368
36,4,4,T1_SMS_5,114,9999,9999,9999,751190136
36,4,4,T1_SMS_5,115,9999,9999,9999,751690804
36,4,4,T1_SMS_5,116,9999,9999,9999,752190572
36,4,4,T1_SMS_5,117,9999,9999,9999,752690268
36,4,4,T1_SMS_5,118,9999,9999,9999,753190988
36,4,4,T1_SMS_5,119,9999,9999,9999,753690684
36,4,4,T1_SMS_5,120,9999,9999,9999,754190452
36,4,4,T1_SMS_5,121,9999,9999,9999,754690140
36,4,4,T1_SMS_5,122,9999,9999,9999,755190892
36,4,4,T1_SMS_5,123,9999,9999,9999,755690576
36,4,4,T1_SMS_5,124,9999,9999,9999,756190272
36,4,4,T1_SMS_5,125,9999,9999,9999,756691020
36,4,4,T1_SMS_5,126,9999,9999,9999,757190708
36,4,4,T1_SMS_5,127,9999,9999,9999,757690480
36,4,4,T1_SMS_5,128,9999,9999,9999,758190140
36,4,4,T1_SMS_5,129,9999,9999,9999,758690916
36,5,20,Ticks_Linear_8,0,5,42,127,772751620
36,5,20,Ticks_Linear_8,1,1,48,43,773137056
36,5,20,Ticks_Linear_8,2,5,42,127,773572008
36,5,20,Ticks_Linear_8,3,1,48,40,773806180
36,5,20,Ticks_Linear_8,4,5,42,127,774392100
36,5,20,Ticks_Linear_8,5,1,48,46,774623800
36,5,20,Ticks_Linear_8,6,5,42,127,775212368
36,5,20,Ticks_Linear_8,7,1,48,44,775315308
36,5,20,Ticks_Linear_8,8,1,48,42,775955476
36,5,20,Ticks_Linear_8,9,5,42,127,776031704
36,5,20,Ticks_Linear_8,10,1,48,43,776720232
36,5,20,Ticks_Linear_8,11,5,42,127,776841748
36,5,20,Ticks_Linear_8,12,1,48,44,777544612
36,5,20,Ticks_Linear_8,13,5,42,127,777651728
36,5,20,Ticks_Linear_8,14,1,48,42,778353776
36,5,20,Ticks_Linear_8,15,5,42,127,778461492
36,5,20,Ticks_Linear_8,16,1,48,41,779136200
36,5,20,Ticks_Linear_8,17,5,42,127,779271472
36,5,20,Ticks_Linear_8,18,1,48,41,779958608
36,5,20,Ticks_Linear_8,19,5,42,127,780081632
36,5,20,Ticks_Linear_8,20,1,48,43,780751676
36,5,20,Ticks_Linear_8,21,5,42,127,780882176
36,5,20,Ticks_Linear_8,22,1,48,39,781553720
36,5,20,Ticks_Linear_8,23,5,42,127,781681900
36,5,20,Ticks_Linear_8,24,1,48,42,782372760
36,5,20,Ticks_Linear_8,25,5,42,127,782481772
36,5,20,Ticks_Linear_8,26,5,42,127,783281592
36,5,20,Ticks_Linear_8,27,1,48,34,784020860
36,5,20,Ticks_Linear_8,28,5,42,127,784082156
36,5,20,Ticks_Linear_8,29,5,42,127,784871776
36,5,20,Ticks_Linear_8,30,1,48,42,784892348
36,5,20,Ticks_Linear_8,31,5,42,127,785662288
36,5,20,Ticks_Linear_8,32,1,48,43,785676864
36,5,20,Ticks_Linear_8,33,5,42,127,786451904
36,5,20,Ticks_Linear_8,34,1,48,49,786499764
36,5,20,Ticks_Linear_8,35,1,48,46,787222828
36,5,20,Ticks_Linear_8,36,5,42,127,787242508
36,5,20,Ticks_Linear_8,37,1,48,40,787935600
36,5,20,Ticks_Linear_8,38,5,42,127,788031884
36,5,20,Ticks_Linear_8,39,1,48,33,788671448
36,5,20,Ticks_Linear_8,40,5,42,127,788812136
36,5,20,Ticks_Linear_8,41,1,48,39,789528080
36,5,20,Ticks_Linear_8,42,5,42,127,789592328
36,5,20,Ticks_Linear_8,43,1,48,42,790288040
36,5,20,Ticks_Linear_8,44,5,42,127,790382900
36,5,20,Ticks_Linear_8,45,1,48,40,791161224
36,5,20,Ticks_Linear_8,46,5,42,127,791163092
36,5,20,Ticks_Linear_8,47,5,42,127,791941556
36,5,20,Ticks_Linear_8,48,1,48,39,792041660
36,5,20,Ticks_Linear_8,49,5,42,127,792711624
36,5,20,Ticks_Linear_8,50,1,48,38,792768808
36,5,20,Ticks_Linear_8,51,1,48,37,793447188
36,5,20,Ticks_Linear_8,52,5,42,127,793481536
36,5,20,Ticks_Linear_8,53,1,48,37,794233292
36,5,20,Ticks_Linear_8,54,5,42,127,794251604
36,5,20,Ticks_Linear_8,55,1,48,24,794937604
36,5,20,Ticks_Linear_8,56,5,42,127,795021672
36,5,20,Ticks_Linear_8,57,1,48,33,795788172
36,5,20,Ticks_Linear_8,58,5,42,127,795791816
36,5,20,Ticks_Linear_8,59,5,42,127,796551484
36,5,20,Ticks_Linear_8,60,1,48,44,796558264
36,5,20,Ticks_Linear_8,61,1,48,38,797310520
36,5,20,Ticks_Linear_8,62,5,42,127,797312256
36,5,20,Ticks_Linear_8,63,5,42,127,798072296
36,5,20,Ticks_Linear_8,64,1,48,45,798075040
36,5,20,Ticks_Linear_8,65,5,42,127,798832104
36,5,20,Ticks_Linear_8,66,1,48,42,798862860
36,5,20,Ticks_Linear_8,67,1,48,38,799505116
36,5,20,Ticks_Linear_8,68,5,42,127,799592056
36,5,20,Ticks_Linear_8,69,5,42,127,800342360
36,5,20,Ticks_Linear_8,70,1,48,23,800387344
36,5,20,Ticks_Linear_8,71,5,42,127,801091912
36,5,20,Ticks_Linear_8,72,1,48,27,801117116
36,5,20,Ticks_Linear_8,73,5,42,127,801841388
36,5,20,Ticks_Linear_8,74,1,48,30,801896024
36,5,20,Ticks_Linear_8,75,1,48,40,802577456
36,5,20,Ticks_Linear_8,76,5,42,127,802592028
36,5,20,Ticks_Linear_8,77,1,48,38,803325580
36,5,20,Ticks_Linear_8,78,5,42,127,803341876
36,5,20,Ticks_Linear_8,79,1,48,35,804057080
36,5,20,Ticks_Linear_8,80,5,42,127,804081988
36,5,20,Ticks_Linear_8,81,1,48,31,804785516
36,5,20,Ticks_Linear_8,82,5,42,127,804822256
36,5,20,Ticks_Linear_8,83,1,48,32,805505704
36,5,20,Ticks_Linear_8,84,5,42,127,805561916
36,5,20,Ticks_Linear_8,85,1,48,40,806275772
36,5,20,Ticks_Linear_8,86,5,42,127,806302104
36,5,20,Ticks_Linear_8,87,1,48,38,807023756
36,5,20,Ticks_Linear_8,88,5,42,127,807042516
36,5,20,Ticks_Linear_8,89,1,48,40,807735032
36,5,20,Ticks_Linear_8,90,5,42,127,807781884
36,5,20,Ticks_Linear_8,91,1,48,41,808453104
36,5,20,Ticks_Linear_8,92,5,42,127,808511808
36,5,20,Ticks_Linear_8,93,1,48,35,809147980
36,5,20,Ticks_Linear_8,94,5,42,127,809242012
36,5,20,Ticks_Linear_8,95,1,48,39,809880540
36,5,20,Ticks_Linear_8,96,5,42,127,809972164
36,5,20,Ticks_Linear_8,97,1,48,41,810649544
36,5,20,Ticks_Linear_8,98,5,42,127,810702096
36,5,20,Ticks_Linear_8,99,1,48,36,811381812
36,5,20,Ticks_Linear_8,100,5,42,127,811422060
36,5,20,Ticks_Linear_8,101,1,48,39,812137340
36,5,20,Ticks_Linear_8,102,5,42,127,812141880
36,5,20,Ticks_Linear_8,103,1,48,40,812796252
36,5,20,Ticks_Linear_8,104,5,42,127,812861772
36,5,20,Ticks_Linear_8,105,1,48,38,813487012
36,5,20,Ticks_Linear_8,106,5,42,127,813581640
36,5,20,Ticks_Linear_8,107,1,48,38,814199788
36,5,20,Ticks_Linear_8,108,5,42,127,814301520
36,5,20,Ticks_Linear_8,109,1,48,38,814963276
36,5,20,Ticks_Linear_8,110,5,42,127,815012292
36,5,20,Ticks_Linear_8,111,1,48,31,815653660
36,5,20,Ticks_Linear_8,112,5,42,127,815721776
36,5,20,Ticks_Linear_8,113,1,48,36,816379144
36,5,20,Ticks_Linear_8,114,5,42,127,816431412
36,5,20,Ticks_Linear_8,115,1,48,36,817013896
36,5,20,Ticks_Linear_8,116,5,42,127,817142276
36,5,20,Ticks_Linear_8,117,1,48,41,817712748
36,5,20,Ticks_Linear_8,118,5,42,127,817851912
36,5,20,Ticks_Linear_8,119,1,48,32,818419500
36,5,20,Ticks_Linear_8,120,5,42,127,818552332
36,5,20,Ticks_Linear_8,121,1,48,34,819136400
36,5,20,Ticks_Linear_8,122,5,42,127,819251460
36,5,20,Ticks_Linear_8,123,1,48,39,819815908
36,5,20,Ticks_Linear_8,124,5,42,127,819951856
36,5,20,Ticks_Linear_8,125,1,48,41,820564932
36,5,20,Ticks_Linear_8,126,5,42,127,820652372
36,5,20,Ticks_Linear_8,127,1,48,41,821302656
36,5,20,Ticks_Linear_8,128,5,42,127,821351748
36,5,20,Ticks_Linear_8,129,1,48,25,821356724
36,5,20,Ticks_Linear_8,130,1,48,40,822005272
36,5,20,Ticks_Linear_8,131,5,42,127,822042236
36,5,20,Ticks_Linear_8,132,5,42,127,822732332
36,5,20,Ticks_Linear_8,133,1,48,43,822760472
36,5,20,Ticks_Linear_8,134,1,48,41,823417724
36,5,20,Ticks_Linear_8,135,5,42,127,823422416
36,5,20,Ticks_Linear_8,136,5,42,127,824111388
36,5,20,Ticks_Linear_8,137,1,48,40,824199120
36,5,20,Ticks_Linear_8,138,5,42,127,824801676
36,5,20,Ticks_Linear_8,139,1,48,39,824847176
36,5,20,Ticks_Linear_8,140,5,42,127,825481504
36,5,20,Ticks_Linear_8,141,1,48,42,825628176
36,5,20,Ticks_Linear_8,142,1,48,29,826154912
36,5,20,Ticks_Linear_8,143,5,42,127,826161400
36,5,20,Ticks_Linear_8,144,1,48,33,826813828
36,5,20,Ticks_Linear_8,145,5,42,127,826841428
36,5,20,Ticks_Linear_8,146,1,48,34,827515668
36,5,20,Ticks_Linear_8,147,5,42,127,827522528
36,5,20,Ticks_Linear_8,148,1,48,36,828129732
36,5,20,Ticks_Linear_8,149,5,42,127,828211796
36,5,20,Ticks_Linear_8,150,5,42,127,828882244
36,5,20,Ticks_Linear_8,151,1,48,33,828901316
36,5,20,Ticks_Linear_8,152,1,48,31,829539864
36,5,20,Ticks_Linear_8,153,5,42,127,829551956
36,5,20,Ticks_Linear_8,154,1,48,33,830199064
36,5,20,Ticks_Linear_8,155,5,42,127,830221652
36,5,20,Ticks_Linear_8,156,1,48,34,830868476
36,5,20,Ticks_Linear_8,157,5,42,127,830892416
36,5,20,Ticks_Linear_8,158,1,48,35,831512944
36,5,20,Ticks_Linear_8,159,5,42,127,831562208
36,5,20,Ticks_Linear_8,160,1,48,27,832206924
36,5,20,Ticks_Linear_8,161,5,42,127,832221648
36,5,20,Ticks_Linear_8,162,1,48,32,832865636
36,5,20,Ticks_Linear_8,163,5,42,127,832882004
36,5,20,Ticks_Linear_8,164,5,42,127,833541596
36,5,20,Ticks_Linear_8,165,1,48,38,833543080
36,5,20,Ticks_Linear_8,166,1,48,32,834179372
36,5,20,Ticks_Linear_8,167,5,42,127,834201948
36,5,20,Ticks_Linear_8,168,1,48,42,834831392
36,5,20,Ticks_Linear_8,169,5,42,127,834861556
36,5,20,Ticks_Linear_8,170,1,48,31,835505224
36,5,20,Ticks_Linear_8,171,5,42,127,835511632
36,5,20,Ticks_Linear_8,172,5,42,127,836162036
36,5,20,Ticks_Linear_8,173,1,48,33,836169880
36,5,20,Ticks_Linear_8,174,1,48,39,836780688
36,5,20,Ticks_Linear_8,175,5,42,127,836812180
36,5,20,Ticks_Linear_8,176,1,48,36,837434152
36,5,20,Ticks_Linear_8,177,5,42,127,837462500
36,5,20,Ticks_Linear_8,178,1,48,34,838098076
36,5,20,Ticks_Linear_8,179,5,42,127,838111824
36,5,20,Ticks_Linear_8,180,1,48,35,838742864
36,5,20,Ticks_Linear_8,181,5,42,127,838751740
36,5,20,Ticks_Linear_8,182,1,48,34,839352800
36,5,20,Ticks_Linear_8,183,5,42,127,839391704
36,5,20,Ticks_Linear_8,184,1,48,37,840026560
36,5,20,Ticks_Linear_8,185,5,42,127,840031692
36,5,20,Ticks_Linear_8,186,1,48,34,840670308
36,5,20,Ticks_Linear_8,187,5,42,127,840672104
36,5,20,Ticks_Linear_8,188,5,42,127,841311728
36,5,20,Ticks_Linear_8,189,1,48,32,841325704
36,5,20,Ticks_Linear_8,190,5,42,127,841942332
36,5,20,Ticks_Linear_8,191,1,48,36,841953836
36,5,20,Ticks_Linear_8,192,5,42,127,842572356
36,5,20,Ticks_Linear_8,193,1,48,43,842608272
36,5,20,Ticks_Linear_8,194,5,42,127,843201916
36,5,20,Ticks_Linear_8,195,1,48,29,843251916
36,5,20,Ticks_Linear_8,196,5,42,127,843831644
36,5,20,Ticks_Linear_8,197,1,48,29,843882464
36,5,20,Ticks_Linear_8,198,1,48,27,844412024
36,5,20,Ticks_Linear_8,199,5,42,127,844461564
36,5,20,Ticks_Linear_8,200,5,42,127,845081840
36,5,20,Ticks_Linear_8,201,1,48,29,845161672
36,5,20,Ticks_Linear_8,202,5,42,127,845701460
36,5,20,Ticks_Linear_8,203,1,48,24,845783064
36,5,20,Ticks_Linear_8,204,5,42,127,846322100
36,5,20,Ticks_Linear_8,205,1,48,35,846353228
36,5,20,Ticks_Linear_8,206,5,42,127,846941496
36,5,20,Ticks_Linear_8,207,1,48,36,847013884
36,5,20,Ticks_Linear_8,208,5,42,127,847562212
36,5,20,Ticks_Linear_8,209,1,48,34,847616108
36,5,20,Ticks_Linear_8,210,1,48,39,848163732
36,5,20,Ticks_Linear_8,211,5,42,127,848172388
36,5,20,Ticks_Linear_8,212,5,42,127,848781660
36,5,20,Ticks_Linear_8,213,1,48,29,848806268
36,5,20,Ticks_Linear_8,214,1,48,30,849356192
36,5,20,Ticks_Linear_8,215,5,42,127,849391960
36,5,20,Ticks_Linear_8,216,5,42,127,850002372
36,5,20,Ticks_Linear_8,217,1,48,35,850028104
36,5,20,Ticks_Linear_8,218,5,42,127,850611488
36,5,20,Ticks_Linear_8,219,1,48,37,850628376
36,5,20,Ticks_Linear_8,220,5,42,127,851211612
36,5,20,Ticks_Linear_8,221,1,48,40,851247924
36,5,20,Ticks_Linear_8,222,5,42,127,851811684
36,5,20,Ticks_Linear_8,223,1,48,39,851830836
36,5,20,Ticks_Linear_8,224,5,42,127,852411656
36,5,20,Ticks_Linear_8,225,1,48,18,852442264
36,5,20,Ticks_Linear_8,226,1,48,31,852999384
36,5,20,Ticks_Linear_8,227,5,42,127,853011924
36,5,20,Ticks_Linear_8,228,1,48,38,853612300
36,5,20,Ticks_Linear_8,229,5,42,127,853613644
36,5,20,Ticks_Linear_8,230,5,42,127,854201868
36,5,20,Ticks_Linear_8,231,1,48,35,854217868
36,5,20,Ticks_Linear_8,232,5,42,127,854791508
36,5,20,Ticks_Linear_8,233,1,48,39,854793520
36,5,20,Ticks_Linear_8,234,5,42,127,855382520
36,5,20,Ticks_Linear_8,235,1,48,41,855394176
36,5,20,Ticks_Linear_8,236,5,42,127,855972088
36,5,20,Ticks_Linear_8,237,1,48,36,855996624
36,5,20,Ticks_Linear_8,238,5,42,127,856562028
36,5,20,Ticks_Linear_8,239,1,48,38,856577128
36,5,20,Ticks_Linear_8,240,5,42,127,857141876
36,5,20,Ticks_Linear_8,241,1,48,39,857188580
36,5,20,Ticks_Linear_8,242,5,42,127,857722232
36,5,20,Ticks_Linear_8,243,1,48,30,857799800
36,5,20,Ticks_Linear_8,244,5,42,127,858301764
36,5,20,Ticks_Linear_8,245,1,48,46,858339712
36,5,20,Ticks_Linear_8,246,1,48,40,858874724
36,5,20,Ticks_Linear_8,247,5,42,127,858882332
36,5,20,Ticks_Linear_8,248,5,42,127,859472232
36,5,20,Ticks_Linear_8,249,1,48,29,859475052
36,5,20,Ticks_Linear_8,250,1,48,38,860037704
36,5,20,Ticks_Linear_8,251,5,42,127,860041944
36,5,20,Ticks_Linear_8,252,1,48,40,860611896
36,5,20,Ticks_Linear_8,253,5,42,127,860613684
36,5,20,Ticks_Linear_8,254,1,48,35,861175872
36,5,20,Ticks_Linear_8,255,5,42,127,861182280
36,5,20,Ticks_Linear_8,256,5,42,127,861751736
36,5,20,Ticks_Linear_8,257,1,48,44,861791628
36,5,20,Ticks_Linear_8,258,1,48,31,862283892
36,5,20,Ticks_Linear_8,259,5,42,127,862321900
36,5,20,Ticks_Linear_8,260,5,42,127,862882112
36,5,20,Ticks_Linear_8,261,1,48,42,862974128
36,5,20,Ticks_Linear_8,262,5,42,127,863442248
36,5,20,Ticks_Linear_8,263,1,48,38,863446264
36,5,20,Ticks_Linear_8,264,5,42,127,864002308
36,5,20,Ticks_Linear_8,265,1,48,30,864005352
36,5,20,Ticks_Linear_8,266,1,48,42,864556500
36,5,20,Ticks_Linear_8,267,5,42,127,864571892
36,5,20,Ticks_Linear_8,268,5,42,127,865131884
36,5,20,Ticks_Linear_8,269,1,48,39,865176336
36,5,20,Ticks_Linear_8,270,1,48,43,865655272
36,5,20,Ticks_Linear_8,271,5,42,127,865681752
36,5,20,Ticks_Linear_8,272,5,42,127,866231636
36,5,20,Ticks_Linear_8,273,1,48,38,866242468
36,5,20,Ticks_Linear_8,274,5,42,127,866781508
36,5,20,Ticks_Linear_8,275,1,48,40,866824164
36,5,20,Ticks_Linear_8,276,5,42,127,867331456
36,5,20,Ticks_Linear_8,277,1,48,40,867348124
36,5,20,Ticks_Linear_8,278,1,48,29,867779280
36,5,20,Ticks_Linear_8,279,5,42,127,867882504
36,5,20,Ticks_Linear_8,280,5,42,127,868421992
36,5,20,Ticks_Linear_8,281,1,48,39,868431036
36,5,20,Ticks_Linear_8,282,5,42,127,868961684
36,5,20,Ticks_Linear_8,283,1,48,48,869001052
36,5,20,Ticks_Linear_8,284,5,42,127,869502420
36,5,20,Ticks_Linear_8,285,1,48,39,869507032
36,5,20,Ticks_Linear_8,286,5,42,127,870041888
36,5,20,Ticks_Linear_8,287,1,48,47,870111132
36,5,20,Ticks_Linear_8,288,5,42,127,870581504
36,5,20,Ticks_Linear_8,289,1,48,35,870625956
36,5,20,Ticks_Linear_8,290,5,42,127,871112056
36,5,20,Ticks_Linear_8,291,1,48,43,871159276
36,5,20,Ticks_Linear_8,292,1,48,36,871594480
36,5,20,Ticks_Linear_8,293,5,42,127,871641476
36,5,20,Ticks_Linear_8,294,1,48,41,872143456
36,5,20,Ticks_Linear_8,295,5,42,127,872171956
36,5,20,Ticks_Linear_8,296,1,48,38,872636568
36,5,20,Ticks_Linear_8,297,5,42,127,872702436
36,5,20,Ticks_Linear_8,298,1,48,38,873210632
36,5,20,Ticks_Linear_8,299,5,42,127,873231716
36,5,20,Ticks_Linear_8,300,1,48,31,873738560
36,5,20,Ticks_Linear_8,301,5,42,127,873751860
36,5,20,Ticks_Linear_8,302,5,42,127,874272408
36,5,20,Ticks_Linear_8,303,1,48,46,874292308
36,5,20,Ticks_Linear_8,304,1,48,33,874787336
36,5,20,Ticks_Linear_8,305,5,42,127,874792248
36,5,20,Ticks_Linear_8,306,5,42,127,875311352
36,5,20,Ticks_Linear_8,307,1,48,41,875327124
36,5,20,Ticks_Linear_8,308,5,42,127,875831720
36,5,20,Ticks_Linear_8,309,1,48,37,875837156
36,5,20,Ticks_Linear_8,310,5,42,127,876341532
36,5,20,Ticks_Linear_8,311,1,48,43,876346144
36,5,20,Ticks_Linear_8,312,1,48,36,876847840
36,5,20,Ticks_Linear_8,313,5,42,127,876851560
36,5,20,Ticks_Linear_8,314,1,48,37,877339352
36,5,20,Ticks_Linear_8,315,5,42,127,877361520
36,5,20,Ticks_Linear_8,316,1,48,32,877834564
36,5,20,Ticks_Linear_8,317,5,42,127,877871476
36,5,20,Ticks_Linear_8,318,1,48,38,878339736
36,5,20,Ticks_Linear_8,319,5,42,127,878381288
36,5,20,Ticks_Linear_8,320,1,48,32,878853956
36,5,20,Ticks_Linear_8,321,5,42,127,878882032
36,5,20,Ticks_Linear_8,322,1,48,41,879349680
36,5,20,Ticks_Linear_8,323,5,42,127,879382080
36,5,20,Ticks_Linear_8,324,1,48,29,879846236
36,5,20,Ticks_Linear_8,325,5,42,127,879881484
36,5,20,Ticks_Linear_8,326,1,48,24,880340256
36,5,20,Ticks_Linear_8,327,5,42,127,880382452
36,5,20,Ticks_Linear_8,328,1,48,33,880870284
36,5,20,Ticks_Linear_8,329,5,42,127,880882228
36,5,20,Ticks_Linear_8,330,1,48,39,881312764
36,5,20,Ticks_Linear_8,331,5,42,127,881371372
36,5,20,Ticks_Linear_8,332,1,48,40,881855296
36,5,20,Ticks_Linear_8,333,5,42,127,881862232
36,5,20,Ticks_Linear_8,334,1,48,32,882326544
36,5,20,Ticks_Linear_8,335,5,42,127,882351524
36,5,20,Ticks_Linear_8,336,1,48,35,882831040
36,5,20,Ticks_Linear_8,337,5,42,127,882842160
36,5,20,Ticks_Linear_8,338,1,48,34,883299444
36,5,20,Ticks_Linear_8,339,5,42,127,883331528
36,5,20,Ticks_Linear_8,0,9999,9999,9999,772749392
36,5,20,Ticks_Linear_8,1,9999,9999,9999,773569636
36,5,20,Ticks_Linear_8,2,9999,9999,9999,774389876
36,5,20,Ticks_Linear_8,3,9999,9999,9999,775210068
36,5,20,Ticks_Linear_8,4,9999,9999,9999,776029256
36,5,20,Ticks_Linear_8,5,9999,9999,9999,776839224
36,5,20,Ticks_Linear_8,6,9999,9999,9999,777649208
36,5,20,Ticks_Linear_8,7,9999,9999,9999,778459188
36,5,20,Ticks_Linear_8,8,9999,9999,9999,779269176
36,5,20,Ticks_Linear_8,9,9999,9999,9999,780079184
36,5,20,Ticks_Linear_8,10,9999,9999,9999,780879952
36,5,20,Ticks_Linear_8,11,9999,9999,9999,781679676
36,5,20,Ticks_Linear_8,12,9999,9999,9999,782479476
36,5,20,Ticks_Linear_8,13,9999,9999,9999,783279220
36,5,20,Ticks_Linear_8,14,9999,9999,9999,784079932
36,5,20,Ticks_Linear_8,15,9999,9999,9999,784869480
36,5,20,Ticks_Linear_8,16,9999,9999,9999,785659992
36,5,20,Ticks_Linear_8,17,9999,9999,9999,786449532
36,5,20,Ticks_Linear_8,18,9999,9999,9999,787240060
36,5,20,Ticks_Linear_8,19,9999,9999,9999,788029508
36,5,20,Ticks_Linear_8,20,9999,9999,9999,788809840
36,5,20,Ticks_Linear_8,21,9999,9999,9999,789590104
36,5,20,Ticks_Linear_8,22,9999,9999,9999,790379644
36,5,20,Ticks_Linear_8,23,9999,9999,9999,791159904
36,5,20,Ticks_Linear_8,24,9999,9999,9999,791939184
36,5,20,Ticks_Linear_8,25,9999,9999,9999,792709176
36,5,20,Ticks_Linear_8,26,9999,9999,9999,793479236
36,5,20,Ticks_Linear_8,27,9999,9999,9999,794249304
36,5,20,Ticks_Linear_8,28,9999,9999,9999,795019372
36,5,20,Ticks_Linear_8,29,9999,9999,9999,795789368
36,5,20,Ticks_Linear_8,30,9999,9999,9999,796549184
36,5,20,Ticks_Linear_8,31,9999,9999,9999,797310056
36,5,20,Ticks_Linear_8,32,9999,9999,9999,798069848
36,5,20,Ticks_Linear_8,33,9999,9999,9999,798829656
36,5,20,Ticks_Linear_8,34,9999,9999,9999,799589460
36,5,20,Ticks_Linear_8,35,9999,9999,9999,800340060
36,5,20,Ticks_Linear_8,36,9999,9999,9999,801089612
36,5,20,Ticks_Linear_8,37,9999,9999,9999,801839164
36,5,20,Ticks_Linear_8,38,9999,9999,9999,802589804
36,5,20,Ticks_Linear_8,39,9999,9999,9999,803339352
36,5,20,Ticks_Linear_8,40,9999,9999,9999,804079692
36,5,20,Ticks_Linear_8,41,9999,9999,9999,804820028
36,5,20,Ticks_Linear_8,42,9999,9999,9999,805559396
36,5,20,Ticks_Linear_8,43,9999,9999,9999,806299732
36,5,20,Ticks_Linear_8,44,9999,9999,9999,807040068
36,5,20,Ticks_Linear_8,45,9999,9999,9999,807779436
36,5,20,Ticks_Linear_8,46,9999,9999,9999,808509512
36,5,20,Ticks_Linear_8,47,9999,9999,9999,809239640
36,5,20,Ticks_Linear_8,48,9999,9999,9999,809969792
36,5,20,Ticks_Linear_8,49,9999,9999,9999,810699868
36,5,20,Ticks_Linear_8,50,9999,9999,9999,811419764
36,5,20,Ticks_Linear_8,51,9999,9999,9999,812139580
36,5,20,Ticks_Linear_8,52,9999,9999,9999,812859476
36,5,20,Ticks_Linear_8,53,9999,9999,9999,813579344
36,5,20,Ticks_Linear_8,54,9999,9999,9999,814299220
36,5,20,Ticks_Linear_8,55,9999,9999,9999,815009920
36,5,20,Ticks_Linear_8,56,9999,9999,9999,815719480
36,5,20,Ticks_Linear_8,57,9999,9999,9999,816429116
36,5,20,Ticks_Linear_8,58,9999,9999,9999,817139828
36,5,20,Ticks_Linear_8,59,9999,9999,9999,817849464
36,5,20,Ticks_Linear_8,60,9999,9999,9999,818549884
36,5,20,Ticks_Linear_8,61,9999,9999,9999,819249236
36,5,20,Ticks_Linear_8,62,9999,9999,9999,819949632
36,5,20,Ticks_Linear_8,63,9999,9999,9999,820650072
36,5,20,Ticks_Linear_8,64,9999,9999,9999,821349448
36,5,20,Ticks_Linear_8,65,9999,9999,9999,822039640
36,5,20,Ticks_Linear_8,66,9999,9999,9999,822729808
36,5,20,Ticks_Linear_8,67,9999,9999,9999,823419968
36,5,20,Ticks_Linear_8,68,9999,9999,9999,824109164
36,5,20,Ticks_Linear_8,69,9999,9999,9999,824799304
36,5,20,Ticks_Linear_8,70,9999,9999,9999,825479280
36,5,20,Ticks_Linear_8,71,9999,9999,9999,826159176
36,5,20,Ticks_Linear_8,72,9999,9999,9999,826839132
36,5,20,Ticks_Linear_8,73,9999,9999,9999,827520080
36,5,20,Ticks_Linear_8,74,9999,9999,9999,828209272
36,5,20,Ticks_Linear_8,75,9999,9999,9999,828879944
36,5,20,Ticks_Linear_8,76,9999,9999,9999,829549656
36,5,20,Ticks_Linear_8,77,9999,9999,9999,830219352
36,5,20,Ticks_Linear_8,78,9999,9999,9999,830890044
36,5,20,Ticks_Linear_8,79,9999,9999,9999,831559760
36,5,20,Ticks_Linear_8,80,9999,9999,9999,832219200
36,5,20,Ticks_Linear_8,81,9999,9999,9999,832879708
36,5,20,Ticks_Linear_8,82,9999,9999,9999,833539148
36,5,20,Ticks_Linear_8,83,9999,9999,9999,834199648
36,5,20,Ticks_Linear_8,84,9999,9999,9999,834859108
36,5,20,Ticks_Linear_8,85,9999,9999,9999,835509332
36,5,20,Ticks_Linear_8,86,9999,9999,9999,836159588
36,5,20,Ticks_Linear_8,87,9999,9999,9999,836809804
36,5,20,Ticks_Linear_8,88,9999,9999,9999,837460052
36,5,20,Ticks_Linear_8,89,9999,9999,9999,838109304
36,5,20,Ticks_Linear_8,90,9999,9999,9999,838749292
36,5,20,Ticks_Linear_8,91,9999,9999,9999,839389256
36,5,20,Ticks_Linear_8,92,9999,9999,9999,840029248
36,5,20,Ticks_Linear_8,93,9999,9999,9999,840669292
36,5,20,Ticks_Linear_8,94,9999,9999,9999,841309280
36,5,20,Ticks_Linear_8,95,9999,9999,9999,841940032
36,5,20,Ticks_Linear_8,96,9999,9999,9999,842569836
36,5,20,Ticks_Linear_8,97,9999,9999,9999,843199616
36,5,20,Ticks_Linear_8,98,9999,9999,9999,843829344
36,5,20,Ticks_Linear_8,99,9999,9999,9999,844459116
36,5,20,Ticks_Linear_8,100,9999,9999,9999,845079616
36,5,20,Ticks_Linear_8,101,9999,9999,9999,845699160
36,5,20,Ticks_Linear_8,102,9999,9999,9999,846319728
36,5,20,Ticks_Linear_8,103,9999,9999,9999,846939196
36,5,20,Ticks_Linear_8,104,9999,9999,9999,847559764
36,5,20,Ticks_Linear_8,105,9999,9999,9999,848170092
36,5,20,Ticks_Linear_8,106,9999,9999,9999,848779360
36,5,20,Ticks_Linear_8,107,9999,9999,9999,849389660
36,5,20,Ticks_Linear_8,108,9999,9999,9999,850000000
36,5,20,Ticks_Linear_8,109,9999,9999,9999,850609260
36,5,20,Ticks_Linear_8,110,9999,9999,9999,851209312
36,5,20,Ticks_Linear_8,111,9999,9999,9999,851809384
36,5,20,Ticks_Linear_8,112,9999,9999,9999,852409432
36,5,20,Ticks_Linear_8,113,9999,9999,9999,853009476
36,5,20,Ticks_Linear_8,114,9999,9999,9999,853609556
36,5,20,Ticks_Linear_8,115,9999,9999,9999,854199420
36,5,20,Ticks_Linear_8,116,9999,9999,9999,854789212
36,5,20,Ticks_Linear_8,117,9999,9999,9999,855380072
36,5,20,Ticks_Linear_8,118,9999,9999,9999,855969860
36,5,20,Ticks_Linear_8,119,9999,9999,9999,856559728
36,5,20,Ticks_Linear_8,120,9999,9999,9999,857139280
36,5,20,Ticks_Linear_8,121,9999,9999,9999,857719936
36,5,20,Ticks_Linear_8,122,9999,9999,9999,858299464
36,5,20,Ticks_Linear_8,123,9999,9999,9999,858880108
36,5,20,Ticks_Linear_8,124,9999,9999,9999,859469932
36,5,20,Ticks_Linear_8,125,9999,9999,9999,860039272
36,5,20,Ticks_Linear_8,126,9999,9999,9999,860609596
36,5,20,Ticks_Linear_8,127,9999,9999,9999,861179984
36,5,20,Ticks_Linear_8,128,9999,9999,9999,861749364
36,5,20,Ticks_Linear_8,129,9999,9999,9999,862319676
36,5,20,Ticks_Linear_8,130,9999,9999,9999,862879816
36,5,20,Ticks_Linear_8,131,9999,9999,9999,863439948
36,5,20,Ticks_Linear_8,132,9999,9999,9999,864000080
36,5,20,Ticks_Linear_8,133,9999,9999,9999,864569448
36,5,20,Ticks_Linear_8,134,9999,9999,9999,865129584
36,5,20,Ticks_Linear_8,135,9999,9999,9999,865679456
36,5,20,Ticks_Linear_8,136,9999,9999,9999,866229336
36,5,20,Ticks_Linear_8,137,9999,9999,9999,866779208
36,5,20,Ticks_Linear_8,138,9999,9999,9999,867329084
36,5,20,Ticks_Linear_8,139,9999,9999,9999,867880056
36,5,20,Ticks_Linear_8,140,9999,9999,9999,868419696
36,5,20,Ticks_Linear_8,141,9999,9999,9999,868959312
36,5,20,Ticks_Linear_8,142,9999,9999,9999,869499972
36,5,20,Ticks_Linear_8,143,9999,9999,9999,870039660
36,5,20,Ticks_Linear_8,144,9999,9999,9999,870579276
36,5,20,Ticks_Linear_8,145,9999,9999,9999,871109756
36,5,20,Ticks_Linear_8,146,9999,9999,9999,871639104
36,5,20,Ticks_Linear_8,147,9999,9999,9999,872169584
36,5,20,Ticks_Linear_8,148,9999,9999,9999,872699988
36,5,20,Ticks_Linear_8,149,9999,9999,9999,873229416
36,5,20,Ticks_Linear_8,150,9999,9999,9999,873749564
36,5,20,Ticks_Linear_8,151,9999,9999,9999,874269788
36,5,20,Ticks_Linear_8,152,9999,9999,9999,874789948
36,5,20,Ticks_Linear_8,153,9999,9999,9999,875309128
36,5,20,Ticks_Linear_8,154,9999,9999,9999,875829344
36,5,20,Ticks_Linear_8,155,9999,9999,9999,876339304
36,5,20,Ticks_Linear_8,156,9999,9999,9999,876849260
36,5,20,Ticks_Linear_8,157,9999,9999,9999,877359220
36,5,20,Ticks_Linear_8,158,9999,9999,9999,877869180
36,5,20,Ticks_Linear_8,159,9999,9999,9999,878379064
36,5,20,Ticks_Linear_8,160,9999,9999,9999,878879808
36,5,20,Ticks_Linear_8,161,9999,9999,9999,879379560
36,5,20,Ticks_Linear_8,162,9999,9999,9999,879879260
36,5,20,Ticks_Linear_8,163,9999,9999,9999,880380004
36,5,20,Ticks_Linear_8,164,9999,9999,9999,880879704
36,5,20,Ticks_Linear_8,165,9999,9999,9999,881369148
36,5,20,Ticks_Linear_8,166,9999,9999,9999,881859708
36,5,20,Ticks_Linear_8,167,9999,9999,9999,882349152
36,5,20,Ticks_Linear_8,168,9999,9999,9999,882839636
36,5,20,Ticks_Linear_8,169,9999,9999,9999,883329080
36,6,21,Ticks_Linear_5,0,5,42,127,895117684
36,6,21,Ticks_Linear_5,1,1,48,28,895559316
36,6,21,Ticks_Linear_5,2,5,42,127,895597924
36,6,21,Ticks_Linear_5,3,1,48,32,895953544
36,6,21,Ticks_Linear_5,4,5,42,127,896078140
36,6,21,Ticks_Linear_5,5,1,48,31,896487552
36,6,21,Ticks_Linear_5,6,5,42,127,896557632
36,6,21,Ticks_Linear_5,7,1,48,33,897030160
36,6,21,Ticks_Linear_5,8,5,42,127,897037612
36,6,21,Ticks_Linear_5,9,5,42,127,897528404
36,6,21,Ticks_Linear_5,10,1,48,32,897550996
36,6,21,Ticks_Linear_5,11,5,42,127,898017624
36,6,21,Ticks_Linear_5,12,1,48,37,898038712
36,6,21,Ticks_Linear_5,13,5,42,127,898508332
36,6,21,Ticks_Linear_5,14,1,48,32,898515192
36,6,21,Ticks_Linear_5,15,5,42,127,898997548
36,6,21,Ticks_Linear_5,16,1,48,32,899005376
36,6,21,Ticks_Linear_5,17,1,48,27,899456316
36,6,21,Ticks_Linear_5,18,5,42,127,899488328
36,6,21,Ticks_Linear_5,19,1,48,34,899937444
36,6,21,Ticks_Linear_5,20,5,42,127,899987804
36,6,21,Ticks_Linear_5,21,1,48,31,900459532
36,6,21,Ticks_Linear_5,22,5,42,127,900487504
36,6,21,Ticks_Linear_5,23,1,48,21,900947248
36,6,21,Ticks_Linear_5,24,5,42,127,900988396
36,6,21,Ticks_Linear_5,25,1,48,35,901432036
36,6,21,Ticks_Linear_5,26,5,42,127,901487948
36,6,21,Ticks_Linear_5,27,1,48,34,901982360
36,6,21,Ticks_Linear_5,28,5,42,127,901987796
36,6,21,Ticks_Linear_5,29,1,48,35,902465744
36,6,21,Ticks_Linear_5,30,5,42,127,902497608
36,6,21,Ticks_Linear_5,31,1,48,35,902950684
36,6,21,Ticks_Linear_5,32,5,42,127,903007640
36,6,21,Ticks_Linear_5,33,1,48,37,903480340
36,6,21,Ticks_Linear_5,34,5,42,127,903517600
36,6,21,Ticks_Linear_5,35,1,48,30,904002876
36,6,21,Ticks_Linear_5,36,5,42,127,904027408
36,6,21,Ticks_Linear_5,37,1,48,41,904518156
36,6,21,Ticks_Linear_5,38,5,42,127,904537372
36,6,21,Ticks_Linear_5,39,1,48,40,905033572
36,6,21,Ticks_Linear_5,40,5,42,127,905057588
36,6,21,Ticks_Linear_5,41,1,48,39,905536880
36,6,21,Ticks_Linear_5,42,5,42,127,905577956
36,6,21,Ticks_Linear_5,43,1,48,37,906025632
36,6,21,Ticks_Linear_5,44,5,42,127,906098320
36,6,21,Ticks_Linear_5,45,1,48,38,906569672
36,6,21,Ticks_Linear_5,46,5,42,127,906618168
36,6,21,Ticks_Linear_5,47,1,48,35,907063452
36,6,21,Ticks_Linear_5,48,5,42,127,907138384
36,6,21,Ticks_Linear_5,49,1,48,32,907624256
36,6,21,Ticks_Linear_5,50,5,42,127,907678152
36,6,21,Ticks_Linear_5,51,1,48,29,908108688
36,6,21,Ticks_Linear_5,52,5,42,127,908207344
36,6,21,Ticks_Linear_5,53,1,48,38,908728364
36,6,21,Ticks_Linear_5,54,5,42,127,908737912
36,6,21,Ticks_Linear_5,55,1,48,34,909130700
36,6,21,Ticks_Linear_5,56,5,42,127,909268300
36,6,21,Ticks_Linear_5,57,1,48,27,909776884
36,6,21,Ticks_Linear_5,58,5,42,127,909797968
36,6,21,Ticks_Linear_5,59,1,48,37,910315756
36,6,21,Ticks_Linear_5,60,5,42,127,910338556
36,6,21,Ticks_Linear_5,61,1,48,40,910819192
36,6,21,Ticks_Linear_5,62,5,42,127,910888452
36,6,21,Ticks_Linear_5,63,1,48,32,911363448
36,6,21,Ticks_Linear_5,64,5,42,127,911427996
36,6,21,Ticks_Linear_5,65,1,48,41,911888092
36,6,21,Ticks_Linear_5,66,5,42,127,911967836
36,6,21,Ticks_Linear_5,67,1,48,38,912442324
36,6,21,Ticks_Linear_5,68,5,42,127,912508200
36,6,21,Ticks_Linear_5,69,5,42,127,913058228
36,6,21,Ticks_Linear_5,70,1,48,37,913081040
36,6,21,Ticks_Linear_5,71,1,48,34,913565284
36,6,21,Ticks_Linear_5,72,5,42,127,913608020
36,6,21,Ticks_Linear_5,73,5,42,127,914157976
36,6,21,Ticks_Linear_5,74,1,48,33,914171872
36,6,21,Ticks_Linear_5,75,5,42,127,914707776
36,6,21,Ticks_Linear_5,76,1,48,42,914722000
36,6,21,Ticks_Linear_5,77,5,42,127,915257900
36,6,21,Ticks_Linear_5,78,1,48,34,915755096
36,6,21,Ticks_Linear_5,79,5,42,127,915817896
36,6,21,Ticks_Linear_5,80,5,42,127,916377960
36,6,21,Ticks_Linear_5,81,1,48,33,916415612
36,6,21,Ticks_Linear_5,82,5,42,127,916938068
36,6,21,Ticks_Linear_5,83,1,48,32,916943356
36,6,21,Ticks_Linear_5,84,1,48,35,917488196
36,6,21,Ticks_Linear_5,85,5,42,127,917498120
36,6,21,Ticks_Linear_5,86,5,42,127,918058508
36,6,21,Ticks_Linear_5,87,1,48,26,918060952
36,6,21,Ticks_Linear_5,88,1,48,30,918602488
36,6,21,Ticks_Linear_5,89,5,42,127,918627700
36,6,21,Ticks_Linear_5,90,1,48,36,919181872
36,6,21,Ticks_Linear_5,91,5,42,127,919198020
36,6,21,Ticks_Linear_5,92,1,48,33,919756840
36,6,21,Ticks_Linear_5,93,5,42,127,919768708
36,6,21,Ticks_Linear_5,94,5,42,127,920347948
36,6,21,Ticks_Linear_5,95,1,48,34,920368592
36,6,21,Ticks_Linear_5,96,1,48,34,920909528
36,6,21,Ticks_Linear_5,97,5,42,127,920918480
36,6,21,Ticks_Linear_5,98,1,48,40,921469364
36,6,21,Ticks_Linear_5,99,5,42,127,921497936
36,6,21,Ticks_Linear_5,100,5,42,127,922077548
36,6,21,Ticks_Linear_5,101,1,48,44,922085912
36,6,21,Ticks_Linear_5,102,1,48,34,922624444
36,6,21,Ticks_Linear_5,103,5,42,127,922658140
36,6,21,Ticks_Linear_5,104,1,48,32,923228796
36,6,21,Ticks_Linear_5,105,5,42,127,923237824
36,6,21,Ticks_Linear_5,106,1,48,37,923743692
36,6,21,Ticks_Linear_5,107,5,42,127,923818472
36,6,21,Ticks_Linear_5,108,1,48,40,924375796
36,6,21,Ticks_Linear_5,109,5,42,127,924408484
36,6,21,Ticks_Linear_5,110,1,48,38,924897368
36,6,21,Ticks_Linear_5,111,5,42,127,924998136
36,6,21,Ticks_Linear_5,112,1,48,40,925484768
36,6,21,Ticks_Linear_5,113,5,42,127,925588000
36,6,21,Ticks_Linear_5,114,1,48,40,926118824
36,6,21,Ticks_Linear_5,115,5,42,127,926177656
36,6,21,Ticks_Linear_5,116,1,48,38,926712428
36,6,21,Ticks_Linear_5,117,5,42,127,926767468
36,6,21,Ticks_Linear_5,118,1,48,41,927299252
36,6,21,Ticks_Linear_5,119,5,42,127,927367516
36,6,21,Ticks_Linear_5,120,1,48,42,927908660
36,6,21,Ticks_Linear_5,121,5,42,127,927967492
36,6,21,Ticks_Linear_5,122,1,48,42,928496280
36,6,21,Ticks_Linear_5,123,5,42,127,928567564
36,6,21,Ticks_Linear_5,124,1,48,34,929093496
36,6,21,Ticks_Linear_5,125,5,42,127,929167760
36,6,21,Ticks_Linear_5,126,1,48,32,929706588
36,6,21,Ticks_Linear_5,127,5,42,127,929767736
36,6,21,Ticks_Linear_5,128,1,48,36,930281244
36,6,21,Ticks_Linear_5,129,5,42,127,930378068
36,6,21,Ticks_Linear_5,130,1,48,40,930917644
36,6,21,Ticks_Linear_5,131,5,42,127,930988300
36,6,21,Ticks_Linear_5,132,1,48,47,931533860
36,6,21,Ticks_Linear_5,133,5,42,127,931597632
36,6,21,Ticks_Linear_5,134,1,48,39,932147192
36,6,21,Ticks_Linear_5,135,5,42,127,932208116
36,6,21,Ticks_Linear_5,136,1,48,33,932773148
36,6,21,Ticks_Linear_5,137,5,42,127,932818200
36,6,21,Ticks_Linear_5,138,1,48,45,933372972
36,6,21,Ticks_Linear_5,139,5,42,127,933437968
36,6,21,Ticks_Linear_5,140,1,48,42,933980460
36,6,21,Ticks_Linear_5,141,5,42,127,934058308
36,6,21,Ticks_Linear_5,142,1,48,45,934570992
36,6,21,Ticks_Linear_5,143,5,42,127,934678036
36,6,21,Ticks_Linear_5,144,1,48,41,935168876
36,6,21,Ticks_Linear_5,145,5,42,127,935298332
36,6,21,Ticks_Linear_5,146,1,48,45,935805188
36,6,21,Ticks_Linear_5,147,5,42,127,935928112
36,6,21,Ticks_Linear_5,148,1,48,37,936363376
36,6,21,Ticks_Linear_5,149,5,42,127,936557916
36,6,21,Ticks_Linear_5,150,1,48,42,937040884
36,6,21,Ticks_Linear_5,151,5,42,127,937187768
36,6,21,Ticks_Linear_5,152,1,48,38,937787748
36,6,21,Ticks_Linear_5,153,5,42,127,937817364
36,6,21,Ticks_Linear_5,154,5,42,127,938448196
36,6,21,Ticks_Linear_5,155,1,48,35,938480444
36,6,21,Ticks_Linear_5,156,1,48,45,939051664
36,6,21,Ticks_Linear_5,157,5,42,127,939078144
36,6,21,Ticks_Linear_5,158,1,48,47,939637864
36,6,21,Ticks_Linear_5,159,5,42,127,939717956
36,6,21,Ticks_Linear_5,160,1,48,48,940351616
36,6,21,Ticks_Linear_5,161,5,42,127,940358096
36,6,21,Ticks_Linear_5,162,1,48,48,940926428
36,6,21,Ticks_Linear_5,163,5,42,127,940997984
36,6,21,Ticks_Linear_5,164,1,48,48,941589004
36,6,21,Ticks_Linear_5,165,5,42,127,941637896
36,6,21,Ticks_Linear_5,166,1,48,47,942228320
36,6,21,Ticks_Linear_5,167,5,42,127,942278012
36,6,21,Ticks_Linear_5,168,1,48,46,942816620
36,6,21,Ticks_Linear_5,169,5,42,127,942928168
36,6,21,Ticks_Linear_5,170,1,48,50,943519956
36,6,21,Ticks_Linear_5,171,5,42,127,943577508
36,6,21,Ticks_Linear_5,172,1,48,50,944149208
36,6,21,Ticks_Linear_5,173,5,42,127,944227684
36,6,21,Ticks_Linear_5,174,1,48,52,944858992
36,6,21,Ticks_Linear_5,175,5,42,127,944878052
36,6,21,Ticks_Linear_5,176,1,48,46,945505108
36,6,21,Ticks_Linear_5,177,5,42,127,945528076
36,6,21,Ticks_Linear_5,178,1,48,42,946142684
36,6,21,Ticks_Linear_5,179,5,42,127,946187808
36,6,21,Ticks_Linear_5,180,1,48,48,946822436
36,6,21,Ticks_Linear_5,181,5,42,127,946848020
36,6,21,Ticks_Linear_5,182,1,48,47,947433264
36,6,21,Ticks_Linear_5,183,5,42,127,947507776
36,6,21,Ticks_Linear_5,184,1,48,47,948136688
36,6,21,Ticks_Linear_5,185,5,42,127,948168032
36,6,21,Ticks_Linear_5,186,1,48,46,948818540
36,6,21,Ticks_Linear_5,187,5,42,127,948827496
36,6,21,Ticks_Linear_5,188,1,48,42,949460448
36,6,21,Ticks_Linear_5,189,5,42,127,949498532
36,6,21,Ticks_Linear_5,190,1,48,40,950111668
36,6,21,Ticks_Linear_5,191,5,42,127,950167804
36,6,21,Ticks_Linear_5,192,1,48,39,950797168
36,6,21,Ticks_Linear_5,193,5,42,127,950837672
36,6,21,Ticks_Linear_5,194,1,48,37,951488376
36,6,21,Ticks_Linear_5,195,5,42,127,951508412
36,6,21,Ticks_Linear_5,196,1,48,46,952158248
36,6,21,Ticks_Linear_5,197,5,42,127,952177908
36,6,21,Ticks_Linear_5,198,1,48,48,952818880
36,6,21,Ticks_Linear_5,199,5,42,127,952858108
36,6,21,Ticks_Linear_5,200,1,48,48,953499908
36,6,21,Ticks_Linear_5,201,5,42,127,953537840
36,6,21,Ticks_Linear_5,202,1,48,49,954165884
36,6,21,Ticks_Linear_5,203,5,42,127,954217748
36,6,21,Ticks_Linear_5,204,1,48,53,954866504
36,6,21,Ticks_Linear_5,205,5,42,127,954897772
36,6,21,Ticks_Linear_5,206,1,48,48,955525444
36,6,21,Ticks_Linear_5,207,5,42,127,955577680
36,6,21,Ticks_Linear_5,208,1,48,44,956201300
36,6,21,Ticks_Linear_5,209,5,42,127,956267992
36,6,21,Ticks_Linear_5,210,1,48,46,956910984
36,6,21,Ticks_Linear_5,211,5,42,127,956958156
36,6,21,Ticks_Linear_5,212,1,48,55,957626468
36,6,21,Ticks_Linear_5,213,5,42,127,957648516
36,6,21,Ticks_Linear_5,214,1,48,43,958276408
36,6,21,Ticks_Linear_5,215,5,42,127,958338532
36,6,21,Ticks_Linear_5,216,1,48,51,958918540
36,6,21,Ticks_Linear_5,217,5,42,127,959037816
36,6,21,Ticks_Linear_5,218,1,48,42,959617620
36,6,21,Ticks_Linear_5,219,5,42,127,959738216
36,6,21,Ticks_Linear_5,220,1,48,35,960309508
36,6,21,Ticks_Linear_5,221,5,42,127,960437512
36,6,21,Ticks_Linear_5,222,1,48,33,961067668
36,6,21,Ticks_Linear_5,223,5,42,127,961138172
36,6,21,Ticks_Linear_5,224,1,48,47,961742000
36,6,21,Ticks_Linear_5,225,5,42,127,961838356
36,6,21,Ticks_Linear_5,226,1,48,46,962449984
36,6,21,Ticks_Linear_5,227,5,42,127,962537944
36,6,21,Ticks_Linear_5,228,1,48,54,963151084
36,6,21,Ticks_Linear_5,229,5,42,127,963247432
36,6,21,Ticks_Linear_5,230,1,48,45,963849908
36,6,21,Ticks_Linear_5,231,5,42,127,963958096
36,6,21,Ticks_Linear_5,232,1,48,50,964482924
36,6,21,Ticks_Linear_5,233,5,42,127,964667804
36,6,21,Ticks_Linear_5,234,1,48,45,965243112
36,6,21,Ticks_Linear_5,235,5,42,127,965378388
36,6,21,Ticks_Linear_5,236,1,48,27,965971172
36,6,21,Ticks_Linear_5,237,5,42,127,966098428
36,6,21,Ticks_Linear_5,238,1,48,43,966709640
36,6,21,Ticks_Linear_5,239,5,42,127,966818028
36,6,21,Ticks_Linear_5,240,1,48,41,967393852
36,6,21,Ticks_Linear_5,241,5,42,127,967537992
36,6,21,Ticks_Linear_5,242,1,48,41,968092328
36,6,21,Ticks_Linear_5,243,5,42,127,968257888
36,6,21,Ticks_Linear_5,244,1,48,39,968738020
36,6,21,Ticks_Linear_5,245,5,42,127,968977904
36,6,21,Ticks_Linear_5,246,1,48,37,969432716
36,6,21,Ticks_Linear_5,247,5,42,127,969697872
36,6,21,Ticks_Linear_5,248,1,48,38,970115400
36,6,21,Ticks_Linear_5,249,5,42,127,970427652
36,6,21,Ticks_Linear_5,250,1,48,31,970853180
36,6,21,Ticks_Linear_5,251,5,42,127,971157952
36,6,21,Ticks_Linear_5,252,1,48,29,971760972
36,6,21,Ticks_Linear_5,253,5,42,127,971887884
36,6,21,Ticks_Linear_5,254,1,48,33,972615080
36,6,21,Ticks_Linear_5,255,5,42,127,972618124
36,6,21,Ticks_Linear_5,256,1,48,47,973274516
36,6,21,Ticks_Linear_5,257,5,42,127,973348280
36,6,21,Ticks_Linear_5,258,5,42,127,974087696
36,6,21,Ticks_Linear_5,259,1,48,43,974091492
36,6,21,Ticks_Linear_5,260,1,48,44,974781484
36,6,21,Ticks_Linear_5,261,5,42,127,974827880
36,6,21,Ticks_Linear_5,262,1,48,48,975526688
36,6,21,Ticks_Linear_5,263,5,42,127,975568364
36,6,21,Ticks_Linear_5,264,1,48,42,976259984
36,6,21,Ticks_Linear_5,265,5,42,127,976307728
36,6,21,Ticks_Linear_5,266,1,48,46,976992456
36,6,21,Ticks_Linear_5,267,5,42,127,977047844
36,6,21,Ticks_Linear_5,268,1,48,41,977714372
36,6,21,Ticks_Linear_5,269,5,42,127,977797540
36,6,21,Ticks_Linear_5,270,1,48,41,978413344
36,6,21,Ticks_Linear_5,271,5,42,127,978547972
36,6,21,Ticks_Linear_5,272,1,48,49,979204456
36,6,21,Ticks_Linear_5,273,5,42,127,979297672
36,6,21,Ticks_Linear_5,274,1,48,43,979893644
36,6,21,Ticks_Linear_5,275,5,42,127,980048344
36,6,21,Ticks_Linear_5,276,1,48,43,980733432
36,6,21,Ticks_Linear_5,277,5,42,127,980797684
36,6,21,Ticks_Linear_5,278,1,48,41,981511296
36,6,21,Ticks_Linear_5,279,5,42,127,981557568
36,6,21,Ticks_Linear_5,280,1,48,43,982203476
36,6,21,Ticks_Linear_5,281,5,42,127,982317508
36,6,21,Ticks_Linear_5,282,1,48,39,982945752
36,6,21,Ticks_Linear_5,283,5,42,127,983078216
36,6,21,Ticks_Linear_5,284,1,48,48,983670972
36,6,21,Ticks_Linear_5,285,5,42,127,983838096
36,6,21,Ticks_Linear_5,286,1,48,42,984463128
36,6,21,Ticks_Linear_5,287,5,42,127,984597884
36,6,21,Ticks_Linear_5,288,1,48,40,985208492
36,6,21,Ticks_Linear_5,289,5,42,127,985367976
36,6,21,Ticks_Linear_5,290,5,42,127,986138212
36,6,21,Ticks_Linear_5,291,1,48,36,986697056
36,6,21,Ticks_Linear_5,292,5,42,127,986908056
36,6,21,Ticks_Linear_5,293,1,48,42,987488612
36,6,21,Ticks_Linear_5,294,5,42,127,987678200
36,6,21,Ticks_Linear_5,295,1,48,28,988193744
36,6,21,Ticks_Linear_5,296,5,42,127,988448196
36,6,21,Ticks_Linear_5,297,1,48,16,988953032
36,6,21,Ticks_Linear_5,298,5,42,127,989228376
36,6,21,Ticks_Linear_5,299,1,48,39,989726404
36,6,21,Ticks_Linear_5,300,5,42,127,990007728
36,6,21,Ticks_Linear_5,301,1,48,47,990401108
36,6,21,Ticks_Linear_5,302,5,42,127,990787908
36,6,21,Ticks_Linear_5,303,1,48,35,991310944
36,6,21,Ticks_Linear_5,304,5,42,127,991568380
36,6,21,Ticks_Linear_5,305,1,48,43,992066036
36,6,21,Ticks_Linear_5,306,5,42,127,992347440
36,6,21,Ticks_Linear_5,307,1,48,46,992803520
36,6,21,Ticks_Linear_5,308,5,42,127,993138024
36,6,21,Ticks_Linear_5,309,1,48,42,993616060
36,6,21,Ticks_Linear_5,310,5,42,127,993927640
36,6,21,Ticks_Linear_5,311,1,48,41,994355652
36,6,21,Ticks_Linear_5,312,5,42,127,994718004
36,6,21,Ticks_Linear_5,313,1,48,44,995172064
36,6,21,Ticks_Linear_5,314,5,42,127,995507688
36,6,21,Ticks_Linear_5,315,1,48,48,995996884
36,6,21,Ticks_Linear_5,316,5,42,127,996298052
36,6,21,Ticks_Linear_5,317,1,48,43,996874556
36,6,21,Ticks_Linear_5,318,5,42,127,997098000
36,6,21,Ticks_Linear_5,319,1,48,39,997649944
36,6,21,Ticks_Linear_5,320,5,42,127,997897724
36,6,21,Ticks_Linear_5,321,1,48,25,998362276
36,6,21,Ticks_Linear_5,322,5,42,127,998698444
36,6,21,Ticks_Linear_5,323,1,48,40,999230020
36,6,21,Ticks_Linear_5,324,5,42,127,999498092
36,6,21,Ticks_Linear_5,325,1,48,33,1000285364
36,6,21,Ticks_Linear_5,326,5,42,127,1000297756
36,6,21,Ticks_Linear_5,327,1,48,44,1001045980
36,6,21,Ticks_Linear_5,328,5,42,127,1001107740
36,6,21,Ticks_Linear_5,329,1,48,36,1001761760
36,6,21,Ticks_Linear_5,330,5,42,127,1001917708
36,6,21,Ticks_Linear_5,331,1,48,45,1002577888
36,6,21,Ticks_Linear_5,332,5,42,127,1002727916
36,6,21,Ticks_Linear_5,333,1,48,48,1003337028
36,6,21,Ticks_Linear_5,334,5,42,127,1003537824
36,6,21,Ticks_Linear_5,335,1,48,47,1004169920
36,6,21,Ticks_Linear_5,336,5,42,127,1004347832
36,6,21,Ticks_Linear_5,0,9999,9999,9999,895115384
36,6,21,Ticks_Linear_5,1,9999,9999,9999,895595624
36,6,21,Ticks_Linear_5,2,9999,9999,9999,896075840
36,6,21,Ticks_Linear_5,3,9999,9999,9999,896555108
36,6,21,Ticks_Linear_5,4,9999,9999,9999,897035388
36,6,21,Ticks_Linear_5,5,9999,9999,9999,897525884
36,6,21,Ticks_Linear_5,6,9999,9999,9999,898015320
36,6,21,Ticks_Linear_5,7,9999,9999,9999,898505808
36,6,21,Ticks_Linear_5,8,9999,9999,9999,898995324
36,6,21,Ticks_Linear_5,9,9999,9999,9999,899485804
36,6,21,Ticks_Linear_5,10,9999,9999,9999,899985504
36,6,21,Ticks_Linear_5,11,9999,9999,9999,900485200
36,6,21,Ticks_Linear_5,12,9999,9999,9999,900985948
36,6,21,Ticks_Linear_5,13,9999,9999,9999,901485648
36,6,21,Ticks_Linear_5,14,9999,9999,9999,901985348
36,6,21,Ticks_Linear_5,15,9999,9999,9999,902495308
36,6,21,Ticks_Linear_5,16,9999,9999,9999,903005268
36,6,21,Ticks_Linear_5,17,9999,9999,9999,903515224
36,6,21,Ticks_Linear_5,18,9999,9999,9999,904025184
36,6,21,Ticks_Linear_5,19,9999,9999,9999,904535144
36,6,21,Ticks_Linear_5,20,9999,9999,9999,905055288
36,6,21,Ticks_Linear_5,21,9999,9999,9999,905575504
36,6,21,Ticks_Linear_5,22,9999,9999,9999,906095720
36,6,21,Ticks_Linear_5,23,9999,9999,9999,906615864
36,6,21,Ticks_Linear_5,24,9999,9999,9999,907136088
36,6,21,Ticks_Linear_5,25,9999,9999,9999,907675700
36,6,21,Ticks_Linear_5,26,9999,9999,9999,908205120
36,6,21,Ticks_Linear_5,27,9999,9999,9999,908735612
36,6,21,Ticks_Linear_5,28,9999,9999,9999,909265996
36,6,21,Ticks_Linear_5,29,9999,9999,9999,909795444
36,6,21,Ticks_Linear_5,30,9999,9999,9999,910336108
36,6,21,Ticks_Linear_5,31,9999,9999,9999,910886004
36,6,21,Ticks_Linear_5,32,9999,9999,9999,911425620
36,6,21,Ticks_Linear_5,33,9999,9999,9999,911965312
36,6,21,Ticks_Linear_5,34,9999,9999,9999,912505972
36,6,21,Ticks_Linear_5,35,9999,9999,9999,913055852
36,6,21,Ticks_Linear_5,36,9999,9999,9999,913605720
36,6,21,Ticks_Linear_5,37,9999,9999,9999,914155600
36,6,21,Ticks_Linear_5,38,9999,9999,9999,914705476
36,6,21,Ticks_Linear_5,39,9999,9999,9999,915255376
36,6,21,Ticks_Linear_5,40,9999,9999,9999,915815524
36,6,21,Ticks_Linear_5,41,9999,9999,9999,916375660
36,6,21,Ticks_Linear_5,42,9999,9999,9999,916935768
36,6,21,Ticks_Linear_5,43,9999,9999,9999,917495896
36,6,21,Ticks_Linear_5,44,9999,9999,9999,918056060
36,6,21,Ticks_Linear_5,45,9999,9999,9999,918625400
36,6,21,Ticks_Linear_5,46,9999,9999,9999,919195720
36,6,21,Ticks_Linear_5,47,9999,9999,9999,919766112
36,6,21,Ticks_Linear_5,48,9999,9999,9999,920345720
36,6,21,Ticks_Linear_5,49,9999,9999,9999,920916032
36,6,21,Ticks_Linear_5,50,9999,9999,9999,921495636
36,6,21,Ticks_Linear_5,51,9999,9999,9999,922075248
36,6,21,Ticks_Linear_5,52,9999,9999,9999,922655840
36,6,21,Ticks_Linear_5,53,9999,9999,9999,923235448
36,6,21,Ticks_Linear_5,54,9999,9999,9999,923816024
36,6,21,Ticks_Linear_5,55,9999,9999,9999,924405888
36,6,21,Ticks_Linear_5,56,9999,9999,9999,924995700
36,6,21,Ticks_Linear_5,57,9999,9999,9999,925585476
36,6,21,Ticks_Linear_5,58,9999,9999,9999,926175356
36,6,21,Ticks_Linear_5,59,9999,9999,9999,926765168
36,6,21,Ticks_Linear_5,60,9999,9999,9999,927365216
36,6,21,Ticks_Linear_5,61,9999,9999,9999,927965264
36,6,21,Ticks_Linear_5,62,9999,9999,9999,928565336
36,6,21,Ticks_Linear_5,63,9999,9999,9999,929165384
36,6,21,Ticks_Linear_5,64,9999,9999,9999,929765436
36,6,21,Ticks_Linear_5,65,9999,9999,9999,930375768
36,6,21,Ticks_Linear_5,66,9999,9999,9999,930986072
36,6,21,Ticks_Linear_5,67,9999,9999,9999,931595332
36,6,21,Ticks_Linear_5,68,9999,9999,9999,932205668
36,6,21,Ticks_Linear_5,69,9999,9999,9999,932815972
36,6,21,Ticks_Linear_5,70,9999,9999,9999,933435516
36,6,21,Ticks_Linear_5,71,9999,9999,9999,934056008
36,6,21,Ticks_Linear_5,72,9999,9999,9999,934675512
36,6,21,Ticks_Linear_5,73,9999,9999,9999,935296108
36,6,21,Ticks_Linear_5,74,9999,9999,9999,935925884
36,6,21,Ticks_Linear_5,75,9999,9999,9999,936555616
36,6,21,Ticks_Linear_5,76,9999,9999,9999,937185392
36,6,21,Ticks_Linear_5,77,9999,9999,9999,937815140
36,6,21,Ticks_Linear_5,78,9999,9999,9999,938445896
36,6,21,Ticks_Linear_5,79,9999,9999,9999,939075692
36,6,21,Ticks_Linear_5,80,9999,9999,9999,939715656
36,6,21,Ticks_Linear_5,81,9999,9999,9999,940355648
36,6,21,Ticks_Linear_5,82,9999,9999,9999,940995684
36,6,21,Ticks_Linear_5,83,9999,9999,9999,941635672
36,6,21,Ticks_Linear_5,84,9999,9999,9999,942275708
36,6,21,Ticks_Linear_5,85,9999,9999,9999,942925944
36,6,21,Ticks_Linear_5,86,9999,9999,9999,943575136
36,6,21,Ticks_Linear_5,87,9999,9999,9999,944225380
36,6,21,Ticks_Linear_5,88,9999,9999,9999,944875604
36,6,21,Ticks_Linear_5,89,9999,9999,9999,945525852
36,6,21,Ticks_Linear_5,90,9999,9999,9999,946185284
36,6,21,Ticks_Linear_5,91,9999,9999,9999,946845792
36,6,21,Ticks_Linear_5,92,9999,9999,9999,947505252
36,6,21,Ticks_Linear_5,93,9999,9999,9999,948165732
36,6,21,Ticks_Linear_5,94,9999,9999,9999,948825192
36,6,21,Ticks_Linear_5,95,9999,9999,9999,949495932
36,6,21,Ticks_Linear_5,96,9999,9999,9999,950165576
36,6,21,Ticks_Linear_5,97,9999,9999,9999,950835296
36,6,21,Ticks_Linear_5,98,9999,9999,9999,951506036
36,6,21,Ticks_Linear_5,99,9999,9999,9999,952175680
36,6,21,Ticks_Linear_5,100,9999,9999,9999,952855636
36,6,21,Ticks_Linear_5,101,9999,9999,9999,953535612
36,6,21,Ticks_Linear_5,102,9999,9999,9999,954215520
36,6,21,Ticks_Linear_5,103,9999,9999,9999,954895472
36,6,21,Ticks_Linear_5,104,9999,9999,9999,955575380
36,6,21,Ticks_Linear_5,105,9999,9999,9999,956265544
36,6,21,Ticks_Linear_5,106,9999,9999,9999,956955704
36,6,21,Ticks_Linear_5,107,9999,9999,9999,957645916
36,6,21,Ticks_Linear_5,108,9999,9999,9999,958336084
36,6,21,Ticks_Linear_5,109,9999,9999,9999,959035512
36,6,21,Ticks_Linear_5,110,9999,9999,9999,959735912
36,6,21,Ticks_Linear_5,111,9999,9999,9999,960435288
36,6,21,Ticks_Linear_5,112,9999,9999,9999,961135724
36,6,21,Ticks_Linear_5,113,9999,9999,9999,961835100
36,6,21,Ticks_Linear_5,114,9999,9999,9999,962535496
36,6,21,Ticks_Linear_5,115,9999,9999,9999,963245132
36,6,21,Ticks_Linear_5,116,9999,9999,9999,963955796
36,6,21,Ticks_Linear_5,117,9999,9999,9999,964665432
36,6,21,Ticks_Linear_5,118,9999,9999,9999,965376092
36,6,21,Ticks_Linear_5,119,9999,9999,9999,966095980
36,6,21,Ticks_Linear_5,120,9999,9999,9999,966815800
36,6,21,Ticks_Linear_5,121,9999,9999,9999,967535692
36,6,21,Ticks_Linear_5,122,9999,9999,9999,968255588
36,6,21,Ticks_Linear_5,123,9999,9999,9999,968975456
36,6,21,Ticks_Linear_5,124,9999,9999,9999,969695348
36,6,21,Ticks_Linear_5,125,9999,9999,9999,970425428
36,6,21,Ticks_Linear_5,126,9999,9999,9999,971155576
36,6,21,Ticks_Linear_5,127,9999,9999,9999,971885656
36,6,21,Ticks_Linear_5,128,9999,9999,9999,972615752
36,6,21,Ticks_Linear_5,129,9999,9999,9999,973345904
36,6,21,Ticks_Linear_5,130,9999,9999,9999,974085172
36,6,21,Ticks_Linear_5,131,9999,9999,9999,974825580
36,6,21,Ticks_Linear_5,132,9999,9999,9999,975565916
36,6,21,Ticks_Linear_5,133,9999,9999,9999,976305204
36,6,21,Ticks_Linear_5,134,9999,9999,9999,977045616
36,6,21,Ticks_Linear_5,135,9999,9999,9999,977795168
36,6,21,Ticks_Linear_5,136,9999,9999,9999,978545748
36,6,21,Ticks_Linear_5,137,9999,9999,9999,979295344
36,6,21,Ticks_Linear_5,138,9999,9999,9999,980045892
36,6,21,Ticks_Linear_5,139,9999,9999,9999,980795460
36,6,21,Ticks_Linear_5,140,9999,9999,9999,981555264
36,6,21,Ticks_Linear_5,141,9999,9999,9999,982315132
36,6,21,Ticks_Linear_5,142,9999,9999,9999,983075912
36,6,21,Ticks_Linear_5,143,9999,9999,9999,983835724
36,6,21,Ticks_Linear_5,144,9999,9999,9999,984595580
36,6,21,Ticks_Linear_5,145,9999,9999,9999,985365576
36,6,21,Ticks_Linear_5,146,9999,9999,9999,986135616
36,6,21,Ticks_Linear_5,147,9999,9999,9999,986905684
36,6,21,Ticks_Linear_5,148,9999,9999,9999,987675748
36,6,21,Ticks_Linear_5,149,9999,9999,9999,988445820
36,6,21,Ticks_Linear_5,150,9999,9999,9999,989226072
36,6,21,Ticks_Linear_5,151,9999,9999,9999,990005352
36,6,21,Ticks_Linear_5,152,9999,9999,9999,990785604
36,6,21,Ticks_Linear_5,153,9999,9999,9999,991565932
36,6,21,Ticks_Linear_5,154,9999,9999,9999,992345212
36,6,21,Ticks_Linear_5,155,9999,9999,9999,993135724
36,6,21,Ticks_Linear_5,156,9999,9999,9999,993925188
36,6,21,Ticks_Linear_5,157,9999,9999,9999,994715704
36,6,21,Ticks_Linear_5,158,9999,9999,9999,995505240
36,6,21,Ticks_Linear_5,159,9999,9999,9999,996295752
36,6,21,Ticks_Linear_5,160,9999,9999,9999,997095548
36,6,21,Ticks_Linear_5,161,9999,9999,9999,997895272
36,6,21,Ticks_Linear_5,162,9999,9999,9999,998695996
36,6,21,Ticks_Linear_5,163,9999,9999,9999,999495792
36,6,21,Ticks_Linear_5,164,9999,9999,9999,1000295532
36,6,21,Ticks_Linear_5,165,9999,9999,9999,1001105516
36,6,21,Ticks_Linear_5,166,9999,9999,9999,1001915480
36,6,21,Ticks_Linear_5,167,9999,9999,9999,1002725464
36,6,21,Ticks_Linear_5,168,9999,9999,9999,1003535448
36,6,21,Ticks_Linear_5,169,9999,9999,9999,1004345456
36,7,9,Ticks_ISO_T2_8,0,5,42,127,1018451256
36,7,9,Ticks_ISO_T2_8,1,1,48,33,1018801240
36,7,9,Ticks_ISO_T2_8,2,5,42,127,1019250916
36,7,9,Ticks_ISO_T2_8,3,1,48,41,1019447488
36,7,9,Ticks_ISO_T2_8,4,5,42,127,1020051092
36,7,9,Ticks_ISO_T2_8,5,1,48,39,1020199568
36,7,9,Ticks_ISO_T2_8,6,5,42,127,1020850528
36,7,9,Ticks_ISO_T2_8,7,1,48,40,1020892468
36,7,9,Ticks_ISO_T2_8,8,1,48,40,1021634284
36,7,9,Ticks_ISO_T2_8,9,5,42,127,1021651376
36,7,9,Ticks_ISO_T2_8,10,1,48,42,1022386148
36,7,9,Ticks_ISO_T2_8,11,5,42,127,1022451184
36,7,9,Ticks_ISO_T2_8,12,1,48,45,1023084684
36,7,9,Ticks_ISO_T2_8,13,5,42,127,1023250904
36,7,9,Ticks_ISO_T2_8,14,1,48,43,1023867292
36,7,9,Ticks_ISO_T2_8,15,5,42,127,1024050584
36,7,9,Ticks_ISO_T2_8,16,1,48,44,1024659840
36,7,9,Ticks_ISO_T2_8,17,5,42,127,1024851516
36,7,9,Ticks_ISO_T2_8,18,1,48,45,1025470944
36,7,9,Ticks_ISO_T2_8,19,5,42,127,1025650948
36,7,9,Ticks_ISO_T2_8,20,1,48,38,1026289976
36,7,9,Ticks_ISO_T2_8,21,5,42,127,1026450832
36,7,9,Ticks_ISO_T2_8,22,1,48,31,1027120768
36,7,9,Ticks_ISO_T2_8,23,5,42,127,1027250712
36,7,9,Ticks_ISO_T2_8,24,1,48,40,1027919308
36,7,9,Ticks_ISO_T2_8,25,5,42,127,1028051568
36,7,9,Ticks_ISO_T2_8,26,1,48,35,1028757040
36,7,9,Ticks_ISO_T2_8,27,5,42,127,1028851020
36,7,9,Ticks_ISO_T2_8,28,1,48,37,1029499848
36,7,9,Ticks_ISO_T2_8,29,5,42,127,1029650884
36,7,9,Ticks_ISO_T2_8,30,1,48,45,1030324268
36,7,9,Ticks_ISO_T2_8,31,5,42,127,1030450568
36,7,9,Ticks_ISO_T2_8,32,1,48,38,1031122352
36,7,9,Ticks_ISO_T2_8,33,5,42,127,1031251424
36,7,9,Ticks_ISO_T2_8,34,1,48,39,1032046424
36,7,9,Ticks_ISO_T2_8,35,5,42,127,1032051172
36,7,9,Ticks_ISO_T2_8,36,5,42,127,1032850764
36,7,9,Ticks_ISO_T2_8,37,1,48,49,1032901304
36,7,9,Ticks_ISO_T2_8,38,5,42,127,1033650496
36,7,9,Ticks_ISO_T2_8,39,1,48,44,1033672388
36,7,9,Ticks_ISO_T2_8,40,1,48,47,1034374272
36,7,9,Ticks_ISO_T2_8,41,5,42,127,1034451268
36,7,9,Ticks_ISO_T2_8,42,1,48,42,1035139596
36,7,9,Ticks_ISO_T2_8,43,5,42,127,1035251360
36,7,9,Ticks_ISO_T2_8,44,1,48,40,1035855032
36,7,9,Ticks_ISO_T2_8,45,5,42,127,1036050872
36,7,9,Ticks_ISO_T2_8,46,1,48,45,1036663440
36,7,9,Ticks_ISO_T2_8,47,5,42,127,1036850556
36,7,9,Ticks_ISO_T2_8,48,1,48,40,1037444996
36,7,9,Ticks_ISO_T2_8,49,5,42,127,1037651260
36,7,9,Ticks_ISO_T2_8,50,5,42,127,1038451236
36,7,9,Ticks_ISO_T2_8,51,5,42,127,1039250920
36,7,9,Ticks_ISO_T2_8,52,1,48,38,1039260096
36,7,9,Ticks_ISO_T2_8,53,5,42,127,1040050428
36,7,9,Ticks_ISO_T2_8,54,1,48,30,1040073968
36,7,9,Ticks_ISO_T2_8,55,5,42,127,1040851360
36,7,9,Ticks_ISO_T2_8,56,1,48,37,1040882524
36,7,9,Ticks_ISO_T2_8,57,1,48,38,1041646640
36,7,9,Ticks_ISO_T2_8,58,5,42,127,1041651012
36,7,9,Ticks_ISO_T2_8,59,1,48,39,1042380696
36,7,9,Ticks_ISO_T2_8,60,5,42,127,1042450816
36,7,9,Ticks_ISO_T2_8,61,1,48,44,1043120644
36,7,9,Ticks_ISO_T2_8,62,5,42,127,1043250612
36,7,9,Ticks_ISO_T2_8,63,1,48,46,1043967648
36,7,9,Ticks_ISO_T2_8,64,5,42,127,1044051256
36,7,9,Ticks_ISO_T2_8,65,1,48,42,1044680768
36,7,9,Ticks_ISO_T2_8,66,5,42,127,1044850976
36,7,9,Ticks_ISO_T2_8,67,1,48,43,1045554120
36,7,9,Ticks_ISO_T2_8,68,5,42,127,1045651828
36,7,9,Ticks_ISO_T2_8,69,1,48,41,1046331868
36,7,9,Ticks_ISO_T2_8,70,5,42,127,1046450740
36,7,9,Ticks_ISO_T2_8,71,1,48,45,1047235492
36,7,9,Ticks_ISO_T2_8,72,5,42,127,1047251236
36,7,9,Ticks_ISO_T2_8,73,5,42,127,1048050976
36,7,9,Ticks_ISO_T2_8,74,1,48,44,1048060748
36,7,9,Ticks_ISO_T2_8,75,5,42,127,1048851032
36,7,9,Ticks_ISO_T2_8,76,1,48,45,1048916532
36,7,9,Ticks_ISO_T2_8,77,5,42,127,1049650616
36,7,9,Ticks_ISO_T2_8,78,1,48,48,1049660988
36,7,9,Ticks_ISO_T2_8,79,1,48,40,1050344068
36,7,9,Ticks_ISO_T2_8,80,5,42,127,1050451448
36,7,9,Ticks_ISO_T2_8,81,1,48,49,1051132212
36,7,9,Ticks_ISO_T2_8,82,5,42,127,1051251108
36,7,9,Ticks_ISO_T2_8,83,1,48,44,1051931144
36,7,9,Ticks_ISO_T2_8,84,5,42,127,1052050840
36,7,9,Ticks_ISO_T2_8,85,1,48,41,1052633096
36,7,9,Ticks_ISO_T2_8,86,5,42,127,1052850572
36,7,9,Ticks_ISO_T2_8,87,1,48,44,1053470176
36,7,9,Ticks_ISO_T2_8,88,5,42,127,1053651576
36,7,9,Ticks_ISO_T2_8,89,1,48,31,1054414868
36,7,9,Ticks_ISO_T2_8,90,5,42,127,1054451176
36,7,9,Ticks_ISO_T2_8,91,5,42,127,1055250792
36,7,9,Ticks_ISO_T2_8,92,1,48,22,1055280612
36,7,9,Ticks_ISO_T2_8,93,1,48,33,1055946192
36,7,9,Ticks_ISO_T2_8,94,5,42,127,1056050652
36,7,9,Ticks_ISO_T2_8,95,1,48,51,1056743904
36,7,9,Ticks_ISO_T2_8,96,5,42,127,1056851580
36,7,9,Ticks_ISO_T2_8,97,1,48,28,1057460316
36,7,9,Ticks_ISO_T2_8,98,5,42,127,1057651016
36,7,9,Ticks_ISO_T2_8,99,5,42,127,1058450696
36,7,9,Ticks_ISO_T2_8,100,1,48,44,1058490764
36,7,9,Ticks_ISO_T2_8,101,1,48,46,1059115748
36,7,9,Ticks_ISO_T2_8,102,5,42,127,1059250632
36,7,9,Ticks_ISO_T2_8,103,1,48,42,1059938676
36,7,9,Ticks_ISO_T2_8,104,5,42,127,1060051188
36,7,9,Ticks_ISO_T2_8,105,1,48,38,1060729432
36,7,9,Ticks_ISO_T2_8,106,5,42,127,1060851144
36,7,9,Ticks_ISO_T2_8,107,1,48,38,1061558932
36,7,9,Ticks_ISO_T2_8,108,5,42,127,1061650692
36,7,9,Ticks_ISO_T2_8,109,1,48,39,1062353056
36,7,9,Ticks_ISO_T2_8,110,5,42,127,1062450412
36,7,9,Ticks_ISO_T2_8,111,1,48,44,1063126164
36,7,9,Ticks_ISO_T2_8,112,5,42,127,1063251340
36,7,9,Ticks_ISO_T2_8,113,1,48,44,1063992184
36,7,9,Ticks_ISO_T2_8,114,5,42,127,1064051308
36,7,9,Ticks_ISO_T2_8,115,1,48,42,1064809948
36,7,9,Ticks_ISO_T2_8,116,5,42,127,1064850896
36,7,9,Ticks_ISO_T2_8,117,1,48,46,1065624560
36,7,9,Ticks_ISO_T2_8,118,5,42,127,1065650552
36,7,9,Ticks_ISO_T2_8,119,1,48,40,1066387576
36,7,9,Ticks_ISO_T2_8,120,5,42,127,1066451332
36,7,9,Ticks_ISO_T2_8,121,1,48,45,1067160080
36,7,9,Ticks_ISO_T2_8,122,5,42,127,1067251144
36,7,9,Ticks_ISO_T2_8,123,1,48,49,1067927428
36,7,9,Ticks_ISO_T2_8,124,5,42,127,1068050960
36,7,9,Ticks_ISO_T2_8,125,1,48,40,1068669788
36,7,9,Ticks_ISO_T2_8,126,5,42,127,1068850472
36,7,9,Ticks_ISO_T2_8,127,1,48,29,1069418064
36,7,9,Ticks_ISO_T2_8,128,5,42,127,1069651324
36,7,9,Ticks_ISO_T2_8,129,1,48,36,1070255868
36,7,9,Ticks_ISO_T2_8,130,5,42,127,1070450984
36,7,9,Ticks_ISO_T2_8,131,1,48,37,1071098460
36,7,9,Ticks_ISO_T2_8,132,5,42,127,1071250868
36,7,9,Ticks_ISO_T2_8,133,1,48,41,1071873436
36,7,9,Ticks_ISO_T2_8,134,5,42,127,1072050676
36,7,9,Ticks_ISO_T2_8,135,1,48,42,1072654316
36,7,9,Ticks_ISO_T2_8,136,5,42,127,1072851232
36,7,9,Ticks_ISO_T2_8,137,5,42,127,1073650984
36,7,9,Ticks_ISO_T2_8,138,1,48,46,1073795720
36,7,9,Ticks_ISO_T2_8,139,5,42,127,1074450896
36,7,9,Ticks_ISO_T2_8,140,1,48,43,1074462092
36,7,9,Ticks_ISO_T2_8,141,1,48,45,1075223588
36,7,9,Ticks_ISO_T2_8,142,5,42,127,1075250700
36,7,9,Ticks_ISO_T2_8,143,1,48,43,1076043816
36,7,9,Ticks_ISO_T2_8,144,5,42,127,1076051256
36,7,9,Ticks_ISO_T2_8,145,1,48,44,1076833380
36,7,9,Ticks_ISO_T2_8,146,5,42,127,1076850916
36,7,9,Ticks_ISO_T2_8,147,1,48,45,1077550832
36,7,9,Ticks_ISO_T2_8,148,5,42,127,1077651900
36,7,9,Ticks_ISO_T2_8,149,1,48,44,1078317136
36,7,9,Ticks_ISO_T2_8,150,5,42,127,1078450516
36,7,9,Ticks_ISO_T2_8,151,1,48,44,1079056804
36,7,9,Ticks_ISO_T2_8,152,5,42,127,1079251444
36,7,9,Ticks_ISO_T2_8,153,5,42,127,1080050976
36,7,9,Ticks_ISO_T2_8,154,1,48,52,1080065684
36,7,9,Ticks_ISO_T2_8,155,5,42,127,1080850808
36,7,9,Ticks_ISO_T2_8,156,1,48,52,1080853552
36,7,9,Ticks_ISO_T2_8,157,5,42,127,1081650540
36,7,9,Ticks_ISO_T2_8,158,1,48,40,1081677444
36,7,9,Ticks_ISO_T2_8,159,1,48,51,1082430112
36,7,9,Ticks_ISO_T2_8,160,5,42,127,1082451684
36,7,9,Ticks_ISO_T2_8,161,1,48,52,1083210324
36,7,9,Ticks_ISO_T2_8,162,5,42,127,1083251268
36,7,9,Ticks_ISO_T2_8,163,1,48,53,1083946848
36,7,9,Ticks_ISO_T2_8,164,5,42,127,1084050764
36,7,9,Ticks_ISO_T2_8,165,5,42,127,1084850668
36,7,9,Ticks_ISO_T2_8,166,1,48,47,1084854832
36,7,9,Ticks_ISO_T2_8,167,1,48,36,1085570700
36,7,9,Ticks_ISO_T2_8,168,5,42,127,1085651588
36,7,9,Ticks_ISO_T2_8,169,1,48,48,1086350240
36,7,9,Ticks_ISO_T2_8,170,5,42,127,1086451308
36,7,9,Ticks_ISO_T2_8,171,1,48,37,1087223720
36,7,9,Ticks_ISO_T2_8,172,5,42,127,1087250860
36,7,9,Ticks_ISO_T2_8,173,5,42,127,1088050672
36,7,9,Ticks_ISO_T2_8,174,1,48,41,1088068524
36,7,9,Ticks_ISO_T2_8,175,1,48,43,1088809752
36,7,9,Ticks_ISO_T2_8,176,5,42,127,1088851300
36,7,9,Ticks_ISO_T2_8,177,1,48,45,1089516260
36,7,9,Ticks_ISO_T2_8,178,5,42,127,1089651460
36,7,9,Ticks_ISO_T2_8,179,1,48,45,1090386328
36,7,9,Ticks_ISO_T2_8,180,5,42,127,1090450764
36,7,9,Ticks_ISO_T2_8,181,1,48,40,1091206032
36,7,9,Ticks_ISO_T2_8,182,5,42,127,1091250648
36,7,9,Ticks_ISO_T2_8,183,1,48,39,1091949368
36,7,9,Ticks_ISO_T2_8,184,5,42,127,1092051264
36,7,9,Ticks_ISO_T2_8,185,1,48,53,1092805496
36,7,9,Ticks_ISO_T2_8,186,5,42,127,1092851160
36,7,9,Ticks_ISO_T2_8,187,1,48,43,1093548092
36,7,9,Ticks_ISO_T2_8,188,5,42,127,1093650904
36,7,9,Ticks_ISO_T2_8,189,1,48,46,1094382152
36,7,9,Ticks_ISO_T2_8,190,5,42,127,1094450576
36,7,9,Ticks_ISO_T2_8,191,1,48,49,1095191860
36,7,9,Ticks_ISO_T2_8,192,5,42,127,1095251284
36,7,9,Ticks_ISO_T2_8,193,1,48,53,1095982096
36,7,9,Ticks_ISO_T2_8,194,5,42,127,1096051164
36,7,9,Ticks_ISO_T2_8,195,5,42,127,1096850980
36,7,9,Ticks_ISO_T2_8,196,1,48,42,1096951860
36,7,9,Ticks_ISO_T2_8,197,1,48,46,1097557104
36,7,9,Ticks_ISO_T2_8,198,5,42,127,1097650408
36,7,9,Ticks_ISO_T2_8,199,5,42,127,1098451420
36,7,9,Ticks_ISO_T2_8,200,1,48,50,1098477804
36,7,9,Ticks_ISO_T2_8,201,1,48,46,1099206384
36,7,9,Ticks_ISO_T2_8,202,5,42,127,1099251000
36,7,9,Ticks_ISO_T2_8,203,1,48,50,1100015768
36,7,9,Ticks_ISO_T2_8,204,5,42,127,1100050904
36,7,9,Ticks_ISO_T2_8,205,1,48,41,1100797252
36,7,9,Ticks_ISO_T2_8,206,5,42,127,1100850640
36,7,9,Ticks_ISO_T2_8,207,1,48,47,1101610248
36,7,9,Ticks_ISO_T2_8,208,5,42,127,1101651344
36,7,9,Ticks_ISO_T2_8,209,1,48,46,1102351112
36,7,9,Ticks_ISO_T2_8,210,5,42,127,1102451064
36,7,9,Ticks_ISO_T2_8,211,1,48,48,1103116716
36,7,9,Ticks_ISO_T2_8,212,5,42,127,1103250796
36,7,9,Ticks_ISO_T2_8,213,1,48,42,1103898148
36,7,9,Ticks_ISO_T2_8,214,5,42,127,1104050528
36,7,9,Ticks_ISO_T2_8,215,1,48,54,1104704612
36,7,9,Ticks_ISO_T2_8,216,5,42,127,1104851384
36,7,9,Ticks_ISO_T2_8,217,1,48,55,1105643240
36,7,9,Ticks_ISO_T2_8,218,5,42,127,1105650980
36,7,9,Ticks_ISO_T2_8,219,5,42,127,1106450748
36,7,9,Ticks_ISO_T2_8,220,1,48,37,1106498968
36,7,9,Ticks_ISO_T2_8,221,5,42,127,1107250480
36,7,9,Ticks_ISO_T2_8,222,1,48,33,1107270280
36,7,9,Ticks_ISO_T2_8,223,1,48,42,1108049980
36,7,9,Ticks_ISO_T2_8,224,5,42,127,1108051772
36,7,9,Ticks_ISO_T2_8,225,1,48,42,1108844072
36,7,9,Ticks_ISO_T2_8,226,5,42,127,1108851060
36,7,9,Ticks_ISO_T2_8,227,1,48,43,1109625700
36,7,9,Ticks_ISO_T2_8,228,5,42,127,1109650796
36,7,9,Ticks_ISO_T2_8,229,5,42,127,1110450536
36,7,9,Ticks_ISO_T2_8,230,1,48,52,1110489408
36,7,9,Ticks_ISO_T2_8,231,1,48,53,1111132348
36,7,9,Ticks_ISO_T2_8,232,5,42,127,1111251440
36,7,9,Ticks_ISO_T2_8,233,5,42,127,1112051196
36,7,9,Ticks_ISO_T2_8,234,1,48,46,1112061792
36,7,9,Ticks_ISO_T2_8,235,1,48,35,1112829052
36,7,9,Ticks_ISO_T2_8,236,5,42,127,1112850648
36,7,9,Ticks_ISO_T2_8,237,1,48,52,1113621028
36,7,9,Ticks_ISO_T2_8,238,5,42,127,1113650532
36,7,9,Ticks_ISO_T2_8,239,1,48,48,1114379896
36,7,9,Ticks_ISO_T2_8,0,9999,9999,9999,1018448968
36,7,9,Ticks_ISO_T2_8,1,9999,9999,9999,1019248700
36,7,9,Ticks_ISO_T2_8,2,9999,9999,9999,1020048432
36,7,9,Ticks_ISO_T2_8,3,9999,9999,9999,1020848240
36,7,9,Ticks_ISO_T2_8,4,9999,9999,9999,1021649012
36,7,9,Ticks_ISO_T2_8,5,9999,9999,9999,1022448748
36,7,9,Ticks_ISO_T2_8,6,9999,9999,9999,1023248468
36,7,9,Ticks_ISO_T2_8,7,9999,9999,9999,1024048224
36,7,9,Ticks_ISO_T2_8,8,9999,9999,9999,1024849004
36,7,9,Ticks_ISO_T2_8,9,9999,9999,9999,1025648736
36,7,9,Ticks_ISO_T2_8,10,9999,9999,9999,1026448468
36,7,9,Ticks_ISO_T2_8,11,9999,9999,9999,1027248200
36,7,9,Ticks_ISO_T2_8,12,9999,9999,9999,1028048980
36,7,9,Ticks_ISO_T2_8,13,9999,9999,9999,1028848732
36,7,9,Ticks_ISO_T2_8,14,9999,9999,9999,1029648448
36,7,9,Ticks_ISO_T2_8,15,9999,9999,9999,1030448204
36,7,9,Ticks_ISO_T2_8,16,9999,9999,9999,1031248988
36,7,9,Ticks_ISO_T2_8,17,9999,9999,9999,1032048736
36,7,9,Ticks_ISO_T2_8,18,9999,9999,9999,1032848476
36,7,9,Ticks_ISO_T2_8,19,9999,9999,9999,1033648208
36,7,9,Ticks_ISO_T2_8,20,9999,9999,9999,1034448984
36,7,9,Ticks_ISO_T2_8,21,9999,9999,9999,1035248700
36,7,9,Ticks_ISO_T2_8,22,9999,9999,9999,1036048432
36,7,9,Ticks_ISO_T2_8,23,9999,9999,9999,1036848192
36,7,9,Ticks_ISO_T2_8,24,9999,9999,9999,1037648972
36,7,9,Ticks_ISO_T2_8,25,9999,9999,9999,1038448724
36,7,9,Ticks_ISO_T2_8,26,9999,9999,9999,1039248480
36,7,9,Ticks_ISO_T2_8,27,9999,9999,9999,1040048216
36,7,9,Ticks_ISO_T2_8,28,9999,9999,9999,1040848996
36,7,9,Ticks_ISO_T2_8,29,9999,9999,9999,1041648724
36,7,9,Ticks_ISO_T2_8,30,9999,9999,9999,1042448456
36,7,9,Ticks_ISO_T2_8,31,9999,9999,9999,1043248172
36,7,9,Ticks_ISO_T2_8,32,9999,9999,9999,1044048968
36,7,9,Ticks_ISO_T2_8,33,9999,9999,9999,1044848688
36,7,9,Ticks_ISO_T2_8,34,9999,9999,9999,1045648436
36,7,9,Ticks_ISO_T2_8,35,9999,9999,9999,1046448228
36,7,9,Ticks_ISO_T2_8,36,9999,9999,9999,1047248948
36,7,9,Ticks_ISO_T2_8,37,9999,9999,9999,1048048688
36,7,9,Ticks_ISO_T2_8,38,9999,9999,9999,1048848496
36,7,9,Ticks_ISO_T2_8,39,9999,9999,9999,1049648180
36,7,9,Ticks_ISO_T2_8,40,9999,9999,9999,1050449012
36,7,9,Ticks_ISO_T2_8,41,9999,9999,9999,1051248744
36,7,9,Ticks_ISO_T2_8,42,9999,9999,9999,1052048476
36,7,9,Ticks_ISO_T2_8,43,9999,9999,9999,1052848212
36,7,9,Ticks_ISO_T2_8,44,9999,9999,9999,1053648992
36,7,9,Ticks_ISO_T2_8,45,9999,9999,9999,1054448740
36,7,9,Ticks_ISO_T2_8,46,9999,9999,9999,1055248480
36,7,9,Ticks_ISO_T2_8,47,9999,9999,9999,1056048216
36,7,9,Ticks_ISO_T2_8,48,9999,9999,9999,1056848996
36,7,9,Ticks_ISO_T2_8,49,9999,9999,9999,1057648728
36,7,9,Ticks_ISO_T2_8,50,9999,9999,9999,1058448484
36,7,9,Ticks_ISO_T2_8,51,9999,9999,9999,1059248196
36,7,9,Ticks_ISO_T2_8,52,9999,9999,9999,1060048972
36,7,9,Ticks_ISO_T2_8,53,9999,9999,9999,1060848708
36,7,9,Ticks_ISO_T2_8,54,9999,9999,9999,1061648456
36,7,9,Ticks_ISO_T2_8,55,9999,9999,9999,1062448196
36,7,9,Ticks_ISO_T2_8,56,9999,9999,9999,1063248976
36,7,9,Ticks_ISO_T2_8,57,9999,9999,9999,1064048724
36,7,9,Ticks_ISO_T2_8,58,9999,9999,9999,1064848456
36,7,9,Ticks_ISO_T2_8,59,9999,9999,9999,1065648192
36,7,9,Ticks_ISO_T2_8,60,9999,9999,9999,1066448972
36,7,9,Ticks_ISO_T2_8,61,9999,9999,9999,1067248708
36,7,9,Ticks_ISO_T2_8,62,9999,9999,9999,1068048500
36,7,9,Ticks_ISO_T2_8,63,9999,9999,9999,1068848184
36,7,9,Ticks_ISO_T2_8,64,9999,9999,9999,1069648964
36,7,9,Ticks_ISO_T2_8,65,9999,9999,9999,1070448696
36,7,9,Ticks_ISO_T2_8,66,9999,9999,9999,1071248432
36,7,9,Ticks_ISO_T2_8,67,9999,9999,9999,1072048236
36,7,9,Ticks_ISO_T2_8,68,9999,9999,9999,1072848944
36,7,9,Ticks_ISO_T2_8,69,9999,9999,9999,1073648696
36,7,9,Ticks_ISO_T2_8,70,9999,9999,9999,1074448456
36,7,9,Ticks_ISO_T2_8,71,9999,9999,9999,1075248188
36,7,9,Ticks_ISO_T2_8,72,9999,9999,9999,1076048968
36,7,9,Ticks_ISO_T2_8,73,9999,9999,9999,1076848700
36,7,9,Ticks_ISO_T2_8,74,9999,9999,9999,1077648432
36,7,9,Ticks_ISO_T2_8,75,9999,9999,9999,1078448228
36,7,9,Ticks_ISO_T2_8,76,9999,9999,9999,1079249008
36,7,9,Ticks_ISO_T2_8,77,9999,9999,9999,1080048688
36,7,9,Ticks_ISO_T2_8,78,9999,9999,9999,1080848444
36,7,9,Ticks_ISO_T2_8,79,9999,9999,9999,1081648176
36,7,9,Ticks_ISO_T2_8,80,9999,9999,9999,1082448952
36,7,9,Ticks_ISO_T2_8,81,9999,9999,9999,1083248760
36,7,9,Ticks_ISO_T2_8,82,9999,9999,9999,1084048476
36,7,9,Ticks_ISO_T2_8,83,9999,9999,9999,1084848232
36,7,9,Ticks_ISO_T2_8,84,9999,9999,9999,1085649004
36,7,9,Ticks_ISO_T2_8,85,9999,9999,9999,1086448740
36,7,9,Ticks_ISO_T2_8,86,9999,9999,9999,1087248496
36,7,9,Ticks_ISO_T2_8,87,9999,9999,9999,1088048236
36,7,9,Ticks_ISO_T2_8,88,9999,9999,9999,1088849012
36,7,9,Ticks_ISO_T2_8,89,9999,9999,9999,1089648728
36,7,9,Ticks_ISO_T2_8,90,9999,9999,9999,1090448476
36,7,9,Ticks_ISO_T2_8,91,9999,9999,9999,1091248212
36,7,9,Ticks_ISO_T2_8,92,9999,9999,9999,1092048976
36,7,9,Ticks_ISO_T2_8,93,9999,9999,9999,1092848724
36,7,9,Ticks_ISO_T2_8,94,9999,9999,9999,1093648464
36,7,9,Ticks_ISO_T2_8,95,9999,9999,9999,1094448216
36,7,9,Ticks_ISO_T2_8,96,9999,9999,9999,1095248996
36,7,9,Ticks_ISO_T2_8,97,9999,9999,9999,1096048728
36,7,9,Ticks_ISO_T2_8,98,9999,9999,9999,1096848468
36,7,9,Ticks_ISO_T2_8,99,9999,9999,9999,1097648196
36,7,9,Ticks_ISO_T2_8,100,9999,9999,9999,1098448980
36,7,9,Ticks_ISO_T2_8,101,9999,9999,9999,1099248712
36,7,9,Ticks_ISO_T2_8,102,9999,9999,9999,1100048468
36,7,9,Ticks_ISO_T2_8,103,9999,9999,9999,1100848204
36,7,9,Ticks_ISO_T2_8,104,9999,9999,9999,1101648980
36,7,9,Ticks_ISO_T2_8,105,9999,9999,9999,1102448700
36,7,9,Ticks_ISO_T2_8,106,9999,9999,9999,1103248436
36,7,9,Ticks_ISO_T2_8,107,9999,9999,9999,1104048240
36,7,9,Ticks_ISO_T2_8,108,9999,9999,9999,1104848948
36,7,9,Ticks_ISO_T2_8,109,9999,9999,9999,1105648696
36,7,9,Ticks_ISO_T2_8,110,9999,9999,9999,1106448460
36,7,9,Ticks_ISO_T2_8,111,9999,9999,9999,1107248192
36,7,9,Ticks_ISO_T2_8,112,9999,9999,9999,1108048972
36,7,9,Ticks_ISO_T2_8,113,9999,9999,9999,1108848700
36,7,9,Ticks_ISO_T2_8,114,9999,9999,9999,1109648432
36,7,9,Ticks_ISO_T2_8,115,9999,9999,9999,1110448248
36,7,9,Ticks_ISO_T2_8,116,9999,9999,9999,1111249004
36,7,9,Ticks_ISO_T2_8,117,9999,9999,9999,1112048760
36,7,9,Ticks_ISO_T2_8,118,9999,9999,9999,1112848436
36,7,9,Ticks_ISO_T2_8,119,9999,9999,9999,1113648244
36,8,10,Ticks_ISO_T2_5,0,5,42,127,1126299008
36,8,10,Ticks_ISO_T2_5,1,1,48,22,1126639120
36,8,10,Ticks_ISO_T2_5,2,5,42,127,1126798852
36,8,10,Ticks_ISO_T2_5,3,1,48,22,1127053916
36,8,10,Ticks_ISO_T2_5,4,5,42,127,1127298624
36,8,10,Ticks_ISO_T2_5,5,1,48,30,1127521900
36,8,10,Ticks_ISO_T2_5,6,5,42,127,1127799144
36,8,10,Ticks_ISO_T2_5,7,1,48,33,1128014708
36,8,10,Ticks_ISO_T2_5,8,5,42,127,1128298912
36,8,10,Ticks_ISO_T2_5,9,1,48,31,1128490544
36,8,10,Ticks_ISO_T2_5,10,5,42,127,1128798756
36,8,10,Ticks_ISO_T2_5,11,1,48,34,1128963060
36,8,10,Ticks_ISO_T2_5,12,5,42,127,1129299200
36,8,10,Ticks_ISO_T2_5,13,1,48,31,1129502800
36,8,10,Ticks_ISO_T2_5,14,5,42,127,1129799116
36,8,10,Ticks_ISO_T2_5,15,1,48,22,1129969260
36,8,10,Ticks_ISO_T2_5,16,5,42,127,1130298664
36,8,10,Ticks_ISO_T2_5,17,1,48,29,1130458708
36,8,10,Ticks_ISO_T2_5,18,5,42,127,1130798652
36,8,10,Ticks_ISO_T2_5,19,1,48,31,1130938432
36,8,10,Ticks_ISO_T2_5,20,5,42,127,1131299172
36,8,10,Ticks_ISO_T2_5,21,1,48,32,1131379408
36,8,10,Ticks_ISO_T2_5,22,5,42,127,1131798868
36,8,10,Ticks_ISO_T2_5,23,1,48,37,1131802580
36,8,10,Ticks_ISO_T2_5,24,1,48,31,1132284504
36,8,10,Ticks_ISO_T2_5,25,5,42,127,1132298528
36,8,10,Ticks_ISO_T2_5,26,1,48,32,1132757176
36,8,10,Ticks_ISO_T2_5,27,5,42,127,1132799540
36,8,10,Ticks_ISO_T2_5,28,1,48,39,1133229420
36,8,10,Ticks_ISO_T2_5,29,5,42,127,1133299164
36,8,10,Ticks_ISO_T2_5,30,1,48,32,1133753352
36,8,10,Ticks_ISO_T2_5,31,5,42,127,1133798784
36,8,10,Ticks_ISO_T2_5,32,1,48,37,1134259252
36,8,10,Ticks_ISO_T2_5,33,5,42,127,1134298480
36,8,10,Ticks_ISO_T2_5,34,1,48,40,1134749668
36,8,10,Ticks_ISO_T2_5,35,5,42,127,1134799368
36,8,10,Ticks_ISO_T2_5,36,1,48,37,1135261256
36,8,10,Ticks_ISO_T2_5,37,5,42,127,1135299064
36,8,10,Ticks_ISO_T2_5,38,1,48,40,1135727516
36,8,10,Ticks_ISO_T2_5,39,5,42,127,1135798536
36,8,10,Ticks_ISO_T2_5,40,1,48,41,1136226236
36,8,10,Ticks_ISO_T2_5,41,5,42,127,1136299500
36,8,10,Ticks_ISO_T2_5,42,1,48,42,1136739996
36,8,10,Ticks_ISO_T2_5,43,5,42,127,1136799044
36,8,10,Ticks_ISO_T2_5,44,1,48,35,1137223532
36,8,10,Ticks_ISO_T2_5,45,5,42,127,1137298664
36,8,10,Ticks_ISO_T2_5,46,1,48,39,1137728768
36,8,10,Ticks_ISO_T2_5,47,5,42,127,1137798512
36,8,10,Ticks_ISO_T2_5,48,1,48,36,1138234444
36,8,10,Ticks_ISO_T2_5,49,5,42,127,1138299324
36,8,10,Ticks_ISO_T2_5,50,1,48,34,1138736680
36,8,10,Ticks_ISO_T2_5,51,5,42,127,1138799168
36,8,10,Ticks_ISO_T2_5,52,1,48,33,1139221260
36,8,10,Ticks_ISO_T2_5,53,5,42,127,1139298640
36,8,10,Ticks_ISO_T2_5,54,1,48,33,1139728288
36,8,10,Ticks_ISO_T2_5,55,5,42,127,1139799380
36,8,10,Ticks_ISO_T2_5,56,1,48,39,1140214716
36,8,10,Ticks_ISO_T2_5,57,5,42,127,1140299224
36,8,10,Ticks_ISO_T2_5,58,1,48,30,1140692200
36,8,10,Ticks_ISO_T2_5,59,5,42,127,1140798904
36,8,10,Ticks_ISO_T2_5,60,1,48,34,1141206852
36,8,10,Ticks_ISO_T2_5,61,5,42,127,1141298540
36,8,10,Ticks_ISO_T2_5,62,1,48,29,1141698020
36,8,10,Ticks_ISO_T2_5,63,5,42,127,1141799264
36,8,10,Ticks_ISO_T2_5,64,1,48,44,1142214096
36,8,10,Ticks_ISO_T2_5,65,5,42,127,1142299272
36,8,10,Ticks_ISO_T2_5,66,1,48,33,1142676768
36,8,10,Ticks_ISO_T2_5,67,5,42,127,1142798580
36,8,10,Ticks_ISO_T2_5,68,1,48,42,1143229788
36,8,10,Ticks_ISO_T2_5,69,5,42,127,1143298340
36,8,10,Ticks_ISO_T2_5,70,1,48,34,1143705772
36,8,10,Ticks_ISO_T2_5,71,5,42,127,1143799228
36,8,10,Ticks_ISO_T2_5,72,1,48,32,1144247656
36,8,10,Ticks_ISO_T2_5,73,5,42,127,1144299000
36,8,10,Ticks_ISO_T2_5,74,5,42,127,1144798476
36,8,10,Ticks_ISO_T2_5,75,1,48,35,1144799444
36,8,10,Ticks_ISO_T2_5,76,5,42,127,1145299292
36,8,10,Ticks_ISO_T2_5,77,1,48,40,1145305700
36,8,10,Ticks_ISO_T2_5,78,5,42,127,1145799060
36,8,10,Ticks_ISO_T2_5,79,1,48,39,1145832772
36,8,10,Ticks_ISO_T2_5,80,5,42,127,1146298904
36,8,10,Ticks_ISO_T2_5,81,1,48,36,1146316236
36,8,10,Ticks_ISO_T2_5,82,5,42,127,1146798304
36,8,10,Ticks_ISO_T2_5,83,1,48,39,1146843232
36,8,10,Ticks_ISO_T2_5,84,5,42,127,1147299120
36,8,10,Ticks_ISO_T2_5,85,1,48,37,1147335748
36,8,10,Ticks_ISO_T2_5,86,1,48,33,1147784632
36,8,10,Ticks_ISO_T2_5,87,5,42,127,1147799028
36,8,10,Ticks_ISO_T2_5,88,1,48,38,1148279764
36,8,10,Ticks_ISO_T2_5,89,5,42,127,1148298796
36,8,10,Ticks_ISO_T2_5,90,1,48,28,1148778712
36,8,10,Ticks_ISO_T2_5,91,5,42,127,1148799316
36,8,10,Ticks_ISO_T2_5,92,1,48,28,1149273992
36,8,10,Ticks_ISO_T2_5,93,5,42,127,1149299084
36,8,10,Ticks_ISO_T2_5,94,1,48,33,1149749756
36,8,10,Ticks_ISO_T2_5,95,5,42,127,1149798932
36,8,10,Ticks_ISO_T2_5,96,1,48,36,1150217184
36,8,10,Ticks_ISO_T2_5,97,5,42,127,1150298400
36,8,10,Ticks_ISO_T2_5,98,1,48,30,1150743980
36,8,10,Ticks_ISO_T2_5,99,5,42,127,1150799068
36,8,10,Ticks_ISO_T2_5,100,1,48,34,1151263720
36,8,10,Ticks_ISO_T2_5,101,5,42,127,1151298988
36,8,10,Ticks_ISO_T2_5,102,1,48,32,1151772464
36,8,10,Ticks_ISO_T2_5,103,5,42,127,1151798980
36,8,10,Ticks_ISO_T2_5,104,1,48,34,1152253436
36,8,10,Ticks_ISO_T2_5,105,5,42,127,1152299348
36,8,10,Ticks_ISO_T2_5,106,1,48,35,1152784424
36,8,10,Ticks_ISO_T2_5,107,5,42,127,1152798968
36,8,10,Ticks_ISO_T2_5,108,1,48,35,1153277584
36,8,10,Ticks_ISO_T2_5,109,5,42,127,1153298736
36,8,10,Ticks_ISO_T2_5,110,1,48,43,1153760676
36,8,10,Ticks_ISO_T2_5,111,5,42,127,1153798704
36,8,10,Ticks_ISO_T2_5,112,1,48,35,1154262316
36,8,10,Ticks_ISO_T2_5,113,5,42,127,1154299148
36,8,10,Ticks_ISO_T2_5,114,1,48,28,1154776820
36,8,10,Ticks_ISO_T2_5,115,5,42,127,1154799068
36,8,10,Ticks_ISO_T2_5,116,1,48,32,1155279656
36,8,10,Ticks_ISO_T2_5,117,5,42,127,1155298616
36,8,10,Ticks_ISO_T2_5,118,1,48,29,1155754740
36,8,10,Ticks_ISO_T2_5,119,5,42,127,1155799580
36,8,10,Ticks_ISO_T2_5,120,1,48,25,1156249276
36,8,10,Ticks_ISO_T2_5,121,5,42,127,1156299052
36,8,10,Ticks_ISO_T2_5,122,1,48,33,1156756296
36,8,10,Ticks_ISO_T2_5,123,5,42,127,1156798820
36,8,10,Ticks_ISO_T2_5,124,1,48,35,1157266768
36,8,10,Ticks_ISO_T2_5,125,5,42,127,1157298440
36,8,10,Ticks_ISO_T2_5,126,1,48,40,1157783508
36,8,10,Ticks_ISO_T2_5,127,5,42,127,1157799256
36,8,10,Ticks_ISO_T2_5,128,1,48,32,1158220376
36,8,10,Ticks_ISO_T2_5,129,5,42,127,1158299024
36,8,10,Ticks_ISO_T2_5,130,1,48,38,1158737500
36,8,10,Ticks_ISO_T2_5,131,5,42,127,1158798644
36,8,10,Ticks_ISO_T2_5,132,1,48,28,1159224552
36,8,10,Ticks_ISO_T2_5,133,5,42,127,1159298636
36,8,10,Ticks_ISO_T2_5,134,1,48,25,1159674852
36,8,10,Ticks_ISO_T2_5,135,5,42,127,1159799364
36,8,10,Ticks_ISO_T2_5,136,1,48,34,1160294324
36,8,10,Ticks_ISO_T2_5,137,5,42,127,1160298848
36,8,10,Ticks_ISO_T2_5,138,1,48,30,1160798772
36,8,10,Ticks_ISO_T2_5,139,5,42,127,1160800340
36,8,10,Ticks_ISO_T2_5,140,1,48,35,1161264172
36,8,10,Ticks_ISO_T2_5,141,5,42,127,1161299432
36,8,10,Ticks_ISO_T2_5,142,1,48,21,1161779724
36,8,10,Ticks_ISO_T2_5,143,5,42,127,1161799128
36,8,10,Ticks_ISO_T2_5,144,1,48,26,1162281360
36,8,10,Ticks_ISO_T2_5,145,5,42,127,1162298600
36,8,10,Ticks_ISO_T2_5,146,1,48,34,1162746472
36,8,10,Ticks_ISO_T2_5,147,5,42,127,1162798516
36,8,10,Ticks_ISO_T2_5,148,1,48,35,1163276340
36,8,10,Ticks_ISO_T2_5,149,5,42,127,1163299260
36,8,10,Ticks_ISO_T2_5,150,1,48,27,1163740404
36,8,10,Ticks_ISO_T2_5,151,5,42,127,1163799100
36,8,10,Ticks_ISO_T2_5,152,1,48,27,1164229852
36,8,10,Ticks_ISO_T2_5,153,5,42,127,1164298572
36,8,10,Ticks_ISO_T2_5,154,5,42,127,1164799296
36,8,10,Ticks_ISO_T2_5,155,1,48,28,1165151472
36,8,10,Ticks_ISO_T2_5,156,5,42,127,1165299140
36,8,10,Ticks_ISO_T2_5,157,1,48,30,1165676900
36,8,10,Ticks_ISO_T2_5,158,5,42,127,1165798912
36,8,10,Ticks_ISO_T2_5,159,1,48,31,1166267996
36,8,10,Ticks_ISO_T2_5,160,5,42,127,1166298396
36,8,10,Ticks_ISO_T2_5,161,1,48,32,1166778612
36,8,10,Ticks_ISO_T2_5,162,5,42,127,1166799064
36,8,10,Ticks_ISO_T2_5,163,1,48,30,1167288176
36,8,10,Ticks_ISO_T2_5,164,5,42,127,1167299204
36,8,10,Ticks_ISO_T2_5,165,5,42,127,1167798608
36,8,10,Ticks_ISO_T2_5,166,1,48,32,1167814068
36,8,10,Ticks_ISO_T2_5,167,1,48,32,1168247552
36,8,10,Ticks_ISO_T2_5,168,5,42,127,1168299344
36,8,10,Ticks_ISO_T2_5,169,5,42,127,1168799044
36,8,10,Ticks_ISO_T2_5,170,1,48,26,1168806276
36,8,10,Ticks_ISO_T2_5,171,5,42,127,1169298740
36,8,10,Ticks_ISO_T2_5,172,1,48,28,1169328636
36,8,10,Ticks_ISO_T2_5,173,1,48,31,1169798584
36,8,10,Ticks_ISO_T2_5,174,5,42,127,1169800144
36,8,10,Ticks_ISO_T2_5,175,1,48,31,1170290532
36,8,10,Ticks_ISO_T2_5,176,5,42,127,1170299096
36,8,10,Ticks_ISO_T2_5,177,1,48,23,1170789104
36,8,10,Ticks_ISO_T2_5,178,5,42,127,1170798940
36,8,10,Ticks_ISO_T2_5,179,5,42,127,1171298788
36,8,10,Ticks_ISO_T2_5,180,1,48,32,1171301232
36,8,10,Ticks_ISO_T2_5,181,5,42,127,1171799308
36,8,10,Ticks_ISO_T2_5,182,1,48,38,1171813940
36,8,10,Ticks_ISO_T2_5,183,1,48,35,1172260512
36,8,10,Ticks_ISO_T2_5,184,5,42,127,1172299144
36,8,10,Ticks_ISO_T2_5,185,5,42,127,1172798768
36,8,10,Ticks_ISO_T2_5,186,1,48,29,1172826276
36,8,10,Ticks_ISO_T2_5,187,1,48,32,1173284884
36,8,10,Ticks_ISO_T2_5,188,5,42,127,1173298456
36,8,10,Ticks_ISO_T2_5,189,1,48,32,1173770740
36,8,10,Ticks_ISO_T2_5,190,5,42,127,1173799276
36,8,10,Ticks_ISO_T2_5,191,1,48,25,1174270188
36,8,10,Ticks_ISO_T2_5,192,5,42,127,1174299044
36,8,10,Ticks_ISO_T2_5,193,1,48,26,1174762028
36,8,10,Ticks_ISO_T2_5,194,5,42,127,1174798812
36,8,10,Ticks_ISO_T2_5,195,1,48,29,1175263444
36,8,10,Ticks_ISO_T2_5,196,5,42,127,1175298336
36,8,10,Ticks_ISO_T2_5,197,1,48,27,1175761120
36,8,10,Ticks_ISO_T2_5,198,5,42,127,1175799076
36,8,10,Ticks_ISO_T2_5,199,1,48,26,1176285200
36,8,10,Ticks_ISO_T2_5,200,5,42,127,1176298848
36,8,10,Ticks_ISO_T2_5,201,1,48,27,1176761928
36,8,10,Ticks_ISO_T2_5,202,5,42,127,1176798764
36,8,10,Ticks_ISO_T2_5,203,1,48,27,1177262968
36,8,10,Ticks_ISO_T2_5,204,5,42,127,1177299280
36,8,10,Ticks_ISO_T2_5,205,1,48,33,1177760124
36,8,10,Ticks_ISO_T2_5,206,5,42,127,1177799052
36,8,10,Ticks_ISO_T2_5,207,1,48,32,1178267972
36,8,10,Ticks_ISO_T2_5,208,5,42,127,1178298896
36,8,10,Ticks_ISO_T2_5,209,1,48,32,1178797848
36,8,10,Ticks_ISO_T2_5,210,5,42,127,1178799712
36,8,10,Ticks_ISO_T2_5,211,1,48,25,1179264960
36,8,10,Ticks_ISO_T2_5,212,5,42,127,1179299108
36,8,10,Ticks_ISO_T2_5,213,1,48,33,1179790988
36,8,10,Ticks_ISO_T2_5,214,5,42,127,1179799028
36,8,10,Ticks_ISO_T2_5,215,1,48,30,1180255004
36,8,10,Ticks_ISO_T2_5,216,5,42,127,1180298720
36,8,10,Ticks_ISO_T2_5,217,1,48,32,1180729792
36,8,10,Ticks_ISO_T2_5,218,5,42,127,1180799460
36,8,10,Ticks_ISO_T2_5,219,1,48,25,1181242800
36,8,10,Ticks_ISO_T2_5,220,5,42,127,1181298932
36,8,10,Ticks_ISO_T2_5,221,5,42,127,1181798860
36,8,10,Ticks_ISO_T2_5,222,1,48,35,1182174044
36,8,10,Ticks_ISO_T2_5,223,5,42,127,1182298476
36,8,10,Ticks_ISO_T2_5,224,5,42,127,1182799240
36,8,10,Ticks_ISO_T2_5,225,1,48,39,1182980528
36,8,10,Ticks_ISO_T2_5,226,5,42,127,1183299012
36,8,10,Ticks_ISO_T2_5,227,1,48,26,1183395852
36,8,10,Ticks_ISO_T2_5,228,5,42,127,1183798556
36,8,10,Ticks_ISO_T2_5,229,1,48,31,1183843412
36,8,10,Ticks_ISO_T2_5,230,5,42,127,1184299300
36,8,10,Ticks_ISO_T2_5,231,1,48,33,1184324632
36,8,10,Ticks_ISO_T2_5,232,1,48,27,1184758608
36,8,10,Ticks_ISO_T2_5,233,5,42,127,1184799132
36,8,10,Ticks_ISO_T2_5,234,1,48,29,1185288448
36,8,10,Ticks_ISO_T2_5,235,5,42,127,1185298728
36,8,10,Ticks_ISO_T2_5,236,1,48,35,1185782060
36,8,10,Ticks_ISO_T2_5,237,5,42,127,1185798472
36,8,10,Ticks_ISO_T2_5,238,1,48,34,1186268340
36,8,10,Ticks_ISO_T2_5,239,5,42,127,1186299636
36,8,10,Ticks_ISO_T2_5,240,1,48,37,1186764820
36,8,10,Ticks_ISO_T2_5,241,5,42,127,1186799108
36,8,10,Ticks_ISO_T2_5,242,1,48,37,1187268632
36,8,10,Ticks_ISO_T2_5,243,5,42,127,1187298656
36,8,10,Ticks_ISO_T2_5,244,1,48,37,1187771312
36,8,10,Ticks_ISO_T2_5,245,5,42,127,1187799396
36,8,10,Ticks_ISO_T2_5,246,1,48,35,1188267644
36,8,10,Ticks_ISO_T2_5,247,5,42,127,1188299388
36,8,10,Ticks_ISO_T2_5,248,5,42,127,1188798720
36,8,10,Ticks_ISO_T2_5,249,1,48,38,1188813952
36,8,10,Ticks_ISO_T2_5,250,1,48,31,1189298188
36,8,10,Ticks_ISO_T2_5,251,5,42,127,1189299748
36,8,10,Ticks_ISO_T2_5,252,1,48,40,1189798400
36,8,10,Ticks_ISO_T2_5,253,5,42,127,1189800196
36,8,10,Ticks_ISO_T2_5,254,1,48,35,1190264176
36,8,10,Ticks_ISO_T2_5,255,5,42,127,1190298916
36,8,10,Ticks_ISO_T2_5,256,1,48,39,1190745172
36,8,10,Ticks_ISO_T2_5,257,5,42,127,1190798612
36,8,10,Ticks_ISO_T2_5,258,1,48,37,1191254512
36,8,10,Ticks_ISO_T2_5,0,9999,9999,9999,1126296648
36,8,10,Ticks_ISO_T2_5,1,9999,9999,9999,1126796344
36,8,10,Ticks_ISO_T2_5,2,9999,9999,9999,1127296116
36,8,10,Ticks_ISO_T2_5,3,9999,9999,9999,1127796856
36,8,10,Ticks_ISO_T2_5,4,9999,9999,9999,1128296552
36,8,10,Ticks_ISO_T2_5,5,9999,9999,9999,1128796244
36,8,10,Ticks_ISO_T2_5,6,9999,9999,9999,1129296988
36,8,10,Ticks_ISO_T2_5,7,9999,9999,9999,1129796684
36,8,10,Ticks_ISO_T2_5,8,9999,9999,9999,1130296376
36,8,10,Ticks_ISO_T2_5,9,9999,9999,9999,1130796144
36,8,10,Ticks_ISO_T2_5,10,9999,9999,9999,1131296884
36,8,10,Ticks_ISO_T2_5,11,9999,9999,9999,1131796580
36,8,10,Ticks_ISO_T2_5,12,9999,9999,9999,1132296244
36,8,10,Ticks_ISO_T2_5,13,9999,9999,9999,1132797032
36,8,10,Ticks_ISO_T2_5,14,9999,9999,9999,1133296728
36,8,10,Ticks_ISO_T2_5,15,9999,9999,9999,1133796424
36,8,10,Ticks_ISO_T2_5,16,9999,9999,9999,1134296120
36,8,10,Ticks_ISO_T2_5,17,9999,9999,9999,1134796860
36,8,10,Ticks_ISO_T2_5,18,9999,9999,9999,1135296628
36,8,10,Ticks_ISO_T2_5,19,9999,9999,9999,1135796324
36,8,10,Ticks_ISO_T2_5,20,9999,9999,9999,1136297064
36,8,10,Ticks_ISO_T2_5,21,9999,9999,9999,1136796760
36,8,10,Ticks_ISO_T2_5,22,9999,9999,9999,1137296456
36,8,10,Ticks_ISO_T2_5,23,9999,9999,9999,1137796148
36,8,10,Ticks_ISO_T2_5,24,9999,9999,9999,1138296892
36,8,10,Ticks_ISO_T2_5,25,9999,9999,9999,1138796660
36,8,10,Ticks_ISO_T2_5,26,9999,9999,9999,1139296356
36,8,10,Ticks_ISO_T2_5,27,9999,9999,9999,1139797096
36,8,10,Ticks_ISO_T2_5,28,9999,9999,9999,1140296792
36,8,10,Ticks_ISO_T2_5,29,9999,9999,9999,1140796468
36,8,10,Ticks_ISO_T2_5,30,9999,9999,9999,1141296180
36,8,10,Ticks_ISO_T2_5,31,9999,9999,9999,1141796980
36,8,10,Ticks_ISO_T2_5,32,9999,9999,9999,1142296688
36,8,10,Ticks_ISO_T2_5,33,9999,9999,9999,1142796368
36,8,10,Ticks_ISO_T2_5,34,9999,9999,9999,1143296052
36,8,10,Ticks_ISO_T2_5,35,9999,9999,9999,1143796792
36,8,10,Ticks_ISO_T2_5,36,9999,9999,9999,1144296564
36,8,10,Ticks_ISO_T2_5,37,9999,9999,9999,1144796264
36,8,10,Ticks_ISO_T2_5,38,9999,9999,9999,1145297004
36,8,10,Ticks_ISO_T2_5,39,9999,9999,9999,1145796700
36,8,10,Ticks_ISO_T2_5,40,9999,9999,9999,1146296396
36,8,10,Ticks_ISO_T2_5,41,9999,9999,9999,1146796092
36,8,10,Ticks_ISO_T2_5,42,9999,9999,9999,1147296832
36,8,10,Ticks_ISO_T2_5,43,9999,9999,9999,1147796592
36,8,10,Ticks_ISO_T2_5,44,9999,9999,9999,1148296288
36,8,10,Ticks_ISO_T2_5,45,9999,9999,9999,1148797028
36,8,10,Ticks_ISO_T2_5,46,9999,9999,9999,1149296724
36,8,10,Ticks_ISO_T2_5,47,9999,9999,9999,1149796420
36,8,10,Ticks_ISO_T2_5,48,9999,9999,9999,1150296116
36,8,10,Ticks_ISO_T2_5,49,9999,9999,9999,1150796856
36,8,10,Ticks_ISO_T2_5,50,9999,9999,9999,1151296628
36,8,10,Ticks_ISO_T2_5,51,9999,9999,9999,1151796320
36,8,10,Ticks_ISO_T2_5,52,9999,9999,9999,1152297060
36,8,10,Ticks_ISO_T2_5,53,9999,9999,9999,1152796756
36,8,10,Ticks_ISO_T2_5,54,9999,9999,9999,1153296452
36,8,10,Ticks_ISO_T2_5,55,9999,9999,9999,1153796196
36,8,10,Ticks_ISO_T2_5,56,9999,9999,9999,1154296936
36,8,10,Ticks_ISO_T2_5,57,9999,9999,9999,1154796632
36,8,10,Ticks_ISO_T2_5,58,9999,9999,9999,1155296328
36,8,10,Ticks_ISO_T2_5,59,9999,9999,9999,1155797068
36,8,10,Ticks_ISO_T2_5,60,9999,9999,9999,1156296764
36,8,10,Ticks_ISO_T2_5,61,9999,9999,9999,1156796532
36,8,10,Ticks_ISO_T2_5,62,9999,9999,9999,1157296228
36,8,10,Ticks_ISO_T2_5,63,9999,9999,9999,1157796968
36,8,10,Ticks_ISO_T2_5,64,9999,9999,9999,1158296664
36,8,10,Ticks_ISO_T2_5,65,9999,9999,9999,1158796360
36,8,10,Ticks_ISO_T2_5,66,9999,9999,9999,1159296056
36,8,10,Ticks_ISO_T2_5,67,9999,9999,9999,1159796852
36,8,10,Ticks_ISO_T2_5,68,9999,9999,9999,1160296564
36,8,10,Ticks_ISO_T2_5,69,9999,9999,9999,1160796264
36,8,10,Ticks_ISO_T2_5,70,9999,9999,9999,1161297000
36,8,10,Ticks_ISO_T2_5,71,9999,9999,9999,1161796692
36,8,10,Ticks_ISO_T2_5,72,9999,9999,9999,1162296388
36,8,10,Ticks_ISO_T2_5,73,9999,9999,9999,1162796084
36,8,10,Ticks_ISO_T2_5,74,9999,9999,9999,1163296824
36,8,10,Ticks_ISO_T2_5,75,9999,9999,9999,1163796592
36,8,10,Ticks_ISO_T2_5,76,9999,9999,9999,1164296264
36,8,10,Ticks_ISO_T2_5,77,9999,9999,9999,1164797008
36,8,10,Ticks_ISO_T2_5,78,9999,9999,9999,1165296704
36,8,10,Ticks_ISO_T2_5,79,9999,9999,9999,1165796476
36,8,10,Ticks_ISO_T2_5,80,9999,9999,9999,1166296184
36,8,10,Ticks_ISO_T2_5,81,9999,9999,9999,1166796852
36,8,10,Ticks_ISO_T2_5,82,9999,9999,9999,1167296620
36,8,10,Ticks_ISO_T2_5,83,9999,9999,9999,1167796324
36,8,10,Ticks_ISO_T2_5,84,9999,9999,9999,1168297060
36,8,10,Ticks_ISO_T2_5,85,9999,9999,9999,1168796760
36,8,10,Ticks_ISO_T2_5,86,9999,9999,9999,1169296452
36,8,10,Ticks_ISO_T2_5,87,9999,9999,9999,1169796148
36,8,10,Ticks_ISO_T2_5,88,9999,9999,9999,1170296884
36,8,10,Ticks_ISO_T2_5,89,9999,9999,9999,1170796652
36,8,10,Ticks_ISO_T2_5,90,9999,9999,9999,1171296352
36,8,10,Ticks_ISO_T2_5,91,9999,9999,9999,1171797096
36,8,10,Ticks_ISO_T2_5,92,9999,9999,9999,1172296784
36,8,10,Ticks_ISO_T2_5,93,9999,9999,9999,1172796484
36,8,10,Ticks_ISO_T2_5,94,9999,9999,9999,1173296244
36,8,10,Ticks_ISO_T2_5,95,9999,9999,9999,1173796988
36,8,10,Ticks_ISO_T2_5,96,9999,9999,9999,1174296680
36,8,10,Ticks_ISO_T2_5,97,9999,9999,9999,1174796376
36,8,10,Ticks_ISO_T2_5,98,9999,9999,9999,1175296124
36,8,10,Ticks_ISO_T2_5,99,9999,9999,9999,1175796792
36,8,10,Ticks_ISO_T2_5,100,9999,9999,9999,1176296560
36,8,10,Ticks_ISO_T2_5,101,9999,9999,9999,1176796252
36,8,10,Ticks_ISO_T2_5,102,9999,9999,9999,1177296996
36,8,10,Ticks_ISO_T2_5,103,9999,9999,9999,1177796692
36,8,10,Ticks_ISO_T2_5,104,9999,9999,9999,1178296384
36,8,10,Ticks_ISO_T2_5,105,9999,9999,9999,1178796088
36,8,10,Ticks_ISO_T2_5,106,9999,9999,9999,1179296824
36,8,10,Ticks_ISO_T2_5,107,9999,9999,9999,1179796592
36,8,10,Ticks_ISO_T2_5,108,9999,9999,9999,1180296288
36,8,10,Ticks_ISO_T2_5,109,9999,9999,9999,1180797028
36,8,10,Ticks_ISO_T2_5,110,9999,9999,9999,1181296720
36,8,10,Ticks_ISO_T2_5,111,9999,9999,9999,1181796424
36,8,10,Ticks_ISO_T2_5,112,9999,9999,9999,1182296116
36,8,10,Ticks_ISO_T2_5,113,9999,9999,9999,1182796880
36,8,10,Ticks_ISO_T2_5,114,9999,9999,9999,1183296576
36,8,10,Ticks_ISO_T2_5,115,9999,9999,9999,1183796344
36,8,10,Ticks_ISO_T2_5,116,9999,9999,9999,1184297012
36,8,10,Ticks_ISO_T2_5,117,9999,9999,9999,1184796772
36,8,10,Ticks_ISO_T2_5,118,9999,9999,9999,1185296444
36,8,10,Ticks_ISO_T2_5,119,9999,9999,9999,1185796188
36,8,10,Ticks_ISO_T2_5,120,9999,9999,9999,1186296904
36,8,10,Ticks_ISO_T2_5,121,9999,9999,9999,1186796600
36,8,10,Ticks_ISO_T2_5,122,9999,9999,9999,1187296372
36,8,10,Ticks_ISO_T2_5,123,9999,9999,9999,1187797112
36,8,10,Ticks_ISO_T2_5,124,9999,9999,9999,1188296808
36,8,10,Ticks_ISO_T2_5,125,9999,9999,9999,1188796508
36,8,10,Ticks_ISO_T2_5,126,9999,9999,9999,1189296200
36,8,10,Ticks_ISO_T2_5,127,9999,9999,9999,1189796940
36,8,10,Ticks_ISO_T2_5,128,9999,9999,9999,1190296632
36,8,10,Ticks_ISO_T2_5,129,9999,9999,9999,1190796400
36,9,22,Ticks_Phase_8,0,5,42,127,1201779028
36,9,22,Ticks_Phase_8,1,1,48,33,1201960480
36,9,22,Ticks_Phase_8,2,1,48,30,1202323156
36,9,22,Ticks_Phase_8,3,5,42,127,1202578868
36,9,22,Ticks_Phase_8,4,1,48,22,1203263908
36,9,22,Ticks_Phase_8,5,5,42,127,1203378804
36,9,22,Ticks_Phase_8,6,1,48,27,1204107664
36,9,22,Ticks_Phase_8,7,5,42,127,1204179428
36,9,22,Ticks_Phase_8,8,1,48,36,1204937328
36,9,22,Ticks_Phase_8,9,5,42,127,1204978992
36,9,22,Ticks_Phase_8,10,5,42,127,1205778660
36,9,22,Ticks_Phase_8,11,1,48,34,1205790612
36,9,22,Ticks_Phase_8,12,1,48,31,1206513976
36,9,22,Ticks_Phase_8,13,5,42,127,1206578512
36,9,22,Ticks_Phase_8,14,1,48,42,1207317164
36,9,22,Ticks_Phase_8,15,5,42,127,1207379420
36,9,22,Ticks_Phase_8,16,1,48,37,1208177548
36,9,22,Ticks_Phase_8,17,5,42,127,1208179204
36,9,22,Ticks_Phase_8,18,1,48,28,1208911488
36,9,22,Ticks_Phase_8,19,5,42,127,1208978768
36,9,22,Ticks_Phase_8,20,1,48,40,1209681468
36,9,22,Ticks_Phase_8,21,5,42,127,1209778556
36,9,22,Ticks_Phase_8,22,1,48,44,1210519376
36,9,22,Ticks_Phase_8,23,5,42,127,1210579464
36,9,22,Ticks_Phase_8,24,1,48,37,1211329200
36,9,22,Ticks_Phase_8,25,5,42,127,1211378952
36,9,22,Ticks_Phase_8,26,5,42,127,1212178772
36,9,22,Ticks_Phase_8,27,1,48,20,1212192148
36,9,22,Ticks_Phase_8,28,1,48,29,1212954620
36,9,22,Ticks_Phase_8,29,5,42,127,1212978400
36,9,22,Ticks_Phase_8,30,5,42,127,1213779388
36,9,22,Ticks_Phase_8,31,1,48,33,1213783628
36,9,22,Ticks_Phase_8,32,5,42,127,1214579248
36,9,22,Ticks_Phase_8,33,1,48,37,1214597208
36,9,22,Ticks_Phase_8,34,5,42,127,1215378664
36,9,22,Ticks_Phase_8,35,1,48,35,1215425736
36,9,22,Ticks_Phase_8,36,5,42,127,1216178524
36,9,22,Ticks_Phase_8,37,1,48,21,1216896972
36,9,22,Ticks_Phase_8,38,5,42,127,1216979224
36,9,22,Ticks_Phase_8,39,1,48,35,1217772312
36,9,22,Ticks_Phase_8,40,5,42,127,1217779232
36,9,22,Ticks_Phase_8,41,5,42,127,1218578756
36,9,22,Ticks_Phase_8,42,1,48,28,1218613696
36,9,22,Ticks_Phase_8,43,1,48,38,1219298204
36,9,22,Ticks_Phase_8,44,5,42,127,1219378460
36,9,22,Ticks_Phase_8,45,1,48,44,1220143084
36,9,22,Ticks_Phase_8,46,5,42,127,1220179216
36,9,22,Ticks_Phase_8,47,1,48,43,1220971108
36,9,22,Ticks_Phase_8,48,5,42,127,1220978928
36,9,22,Ticks_Phase_8,49,5,42,127,1221779096
36,9,22,Ticks_Phase_8,50,1,48,44,1221858384
36,9,22,Ticks_Phase_8,51,5,42,127,1222578436
36,9,22,Ticks_Phase_8,52,1,48,40,1222650744
36,9,22,Ticks_Phase_8,53,1,48,44,1223364920
36,9,22,Ticks_Phase_8,54,5,42,127,1223379260
36,9,22,Ticks_Phase_8,55,5,42,127,1224179052
36,9,22,Ticks_Phase_8,56,1,48,44,1224322904
36,9,22,Ticks_Phase_8,57,5,42,127,1224978864
36,9,22,Ticks_Phase_8,58,1,48,45,1224986244
36,9,22,Ticks_Phase_8,59,1,48,43,1225754868
36,9,22,Ticks_Phase_8,60,5,42,127,1225759172
36,9,22,Ticks_Phase_8,61,5,42,127,1226558740
36,9,22,Ticks_Phase_8,62,1,48,42,1226716584
36,9,22,Ticks_Phase_8,63,5,42,127,1227358680
36,9,22,Ticks_Phase_8,64,1,48,47,1227416700
36,9,22,Ticks_Phase_8,65,1,48,49,1228127360
36,9,22,Ticks_Phase_8,66,5,42,127,1228159208
36,9,22,Ticks_Phase_8,67,1,48,51,1228927740
36,9,22,Ticks_Phase_8,68,5,42,127,1228959072
36,9,22,Ticks_Phase_8,69,1,48,47,1229670084
36,9,22,Ticks_Phase_8,70,5,42,127,1229758780
36,9,22,Ticks_Phase_8,71,1,48,43,1230487176
36,9,22,Ticks_Phase_8,72,5,42,127,1230558864
36,9,22,Ticks_Phase_8,73,1,48,57,1231259248
36,9,22,Ticks_Phase_8,74,5,42,127,1231359536
36,9,22,Ticks_Phase_8,75,1,48,59,1232051168
36,9,22,Ticks_Phase_8,76,5,42,127,1232158972
36,9,22,Ticks_Phase_8,77,1,48,46,1232905116
36,9,22,Ticks_Phase_8,78,5,42,127,1232958700
36,9,22,Ticks_Phase_8,79,1,48,55,1233716820
36,9,22,Ticks_Phase_8,80,5,42,127,1233758560
36,9,22,Ticks_Phase_8,81,1,48,54,1234501704
36,9,22,Ticks_Phase_8,82,5,42,127,1234559544
36,9,22,Ticks_Phase_8,83,1,48,54,1235320660
36,9,22,Ticks_Phase_8,84,5,42,127,1235359256
36,9,22,Ticks_Phase_8,85,1,48,55,1236130108
36,9,22,Ticks_Phase_8,86,5,42,127,1236158968
36,9,22,Ticks_Phase_8,87,1,48,52,1236948096
36,9,22,Ticks_Phase_8,88,5,42,127,1236958604
36,9,22,Ticks_Phase_8,89,5,42,127,1237759444
36,9,22,Ticks_Phase_8,90,1,48,57,1237776900
36,9,22,Ticks_Phase_8,91,1,48,51,1238473592
36,9,22,Ticks_Phase_8,92,5,42,127,1238559024
36,9,22,Ticks_Phase_8,93,1,48,48,1239222684
36,9,22,Ticks_Phase_8,94,5,42,127,1239358872
36,9,22,Ticks_Phase_8,95,1,48,48,1240054516
36,9,22,Ticks_Phase_8,96,5,42,127,1240179400
36,9,22,Ticks_Phase_8,97,1,48,52,1240881444
36,9,22,Ticks_Phase_8,98,5,42,127,1240979488
36,9,22,Ticks_Phase_8,99,1,48,55,1241684892
36,9,22,Ticks_Phase_8,100,5,42,127,1241778540
36,9,22,Ticks_Phase_8,101,1,48,40,1242454724
36,9,22,Ticks_Phase_8,102,5,42,127,1242579360
36,9,22,Ticks_Phase_8,103,1,48,47,1243259240
36,9,22,Ticks_Phase_8,104,5,42,127,1243379220
36,9,22,Ticks_Phase_8,105,1,48,54,1244098044
36,9,22,Ticks_Phase_8,106,5,42,127,1244178896
36,9,22,Ticks_Phase_8,107,1,48,56,1244846384
36,9,22,Ticks_Phase_8,108,5,42,127,1244978516
36,9,22,Ticks_Phase_8,109,1,48,57,1245735000
36,9,22,Ticks_Phase_8,110,5,42,127,1245779216
36,9,22,Ticks_Phase_8,111,1,48,52,1246481096
36,9,22,Ticks_Phase_8,112,5,42,127,1246579004
36,9,22,Ticks_Phase_8,113,1,48,51,1247363628
36,9,22,Ticks_Phase_8,114,5,42,127,1247379164
36,9,22,Ticks_Phase_8,115,1,48,46,1248143120
36,9,22,Ticks_Phase_8,116,5,42,127,1248178500
36,9,22,Ticks_Phase_8,117,1,48,66,1248948080
36,9,22,Ticks_Phase_8,118,5,42,127,1248979408
36,9,22,Ticks_Phase_8,119,1,48,57,1249744264
36,9,22,Ticks_Phase_8,120,5,42,127,1249779120
36,9,22,Ticks_Phase_8,121,1,48,48,1250492608
36,9,22,Ticks_Phase_8,122,5,42,127,1250579080
36,9,22,Ticks_Phase_8,123,1,48,51,1251272172
36,9,22,Ticks_Phase_8,124,5,42,127,1251378632
36,9,22,Ticks_Phase_8,125,1,48,46,1252123280
36,9,22,Ticks_Phase_8,126,5,42,127,1252179256
36,9,22,Ticks_Phase_8,127,1,48,52,1252867884
36,9,22,Ticks_Phase_8,128,5,42,127,1253018944
36,9,22,Ticks_Phase_8,129,1,48,53,1253612600
36,9,22,Ticks_Phase_8,130,5,42,127,1253818804
36,9,22,Ticks_Phase_8,131,1,48,51,1254385640
36,9,22,Ticks_Phase_8,132,5,42,127,1254618664
36,9,22,Ticks_Phase_8,133,1,48,51,1255215188
36,9,22,Ticks_Phase_8,134,5,42,127,1255419200
36,9,22,Ticks_Phase_8,135,1,48,49,1256067332
36,9,22,Ticks_Phase_8,136,5,42,127,1256219012
36,9,22,Ticks_Phase_8,137,1,48,42,1256898868
36,9,22,Ticks_Phase_8,138,5,42,127,1257018872
36,9,22,Ticks_Phase_8,139,1,48,48,1257734836
36,9,22,Ticks_Phase_8,140,5,42,127,1257818672
36,9,22,Ticks_Phase_8,141,1,48,45,1258604492
36,9,22,Ticks_Phase_8,142,5,42,127,1258619208
36,9,22,Ticks_Phase_8,143,5,42,127,1259419000
36,9,22,Ticks_Phase_8,144,1,48,48,1259460988
36,9,22,Ticks_Phase_8,145,1,48,42,1260202348
36,9,22,Ticks_Phase_8,146,5,42,127,1260218704
36,9,22,Ticks_Phase_8,147,5,42,127,1261018424
36,9,22,Ticks_Phase_8,148,1,48,42,1261044452
36,9,22,Ticks_Phase_8,149,1,48,50,1261815616
36,9,22,Ticks_Phase_8,150,5,42,127,1261819324
36,9,22,Ticks_Phase_8,151,1,48,21,1262605092
36,9,22,Ticks_Phase_8,152,5,42,127,1262619060
36,9,22,Ticks_Phase_8,153,5,42,127,1263418704
36,9,22,Ticks_Phase_8,154,1,48,52,1263458820
36,9,22,Ticks_Phase_8,155,1,48,48,1264208124
36,9,22,Ticks_Phase_8,156,5,42,127,1264218408
36,9,22,Ticks_Phase_8,157,1,48,47,1264968588
36,9,22,Ticks_Phase_8,158,5,42,127,1265019316
36,9,22,Ticks_Phase_8,159,1,48,40,1265729060
36,9,22,Ticks_Phase_8,160,5,42,127,1265818956
36,9,22,Ticks_Phase_8,161,5,42,127,1266578760
36,9,22,Ticks_Phase_8,162,1,48,48,1266665292
36,9,22,Ticks_Phase_8,163,1,48,48,1267348108
36,9,22,Ticks_Phase_8,164,5,42,127,1267378540
36,9,22,Ticks_Phase_8,165,1,48,46,1268091276
36,9,22,Ticks_Phase_8,166,5,42,127,1268179296
36,9,22,Ticks_Phase_8,167,1,48,40,1268929560
36,9,22,Ticks_Phase_8,168,5,42,127,1268979308
36,9,22,Ticks_Phase_8,169,1,48,56,1269724764
36,9,22,Ticks_Phase_8,170,5,42,127,1269778744
36,9,22,Ticks_Phase_8,171,1,48,46,1270504108
36,9,22,Ticks_Phase_8,172,5,42,127,1270578608
36,9,22,Ticks_Phase_8,173,1,48,48,1271356336
36,9,22,Ticks_Phase_8,174,5,42,127,1271379292
36,9,22,Ticks_Phase_8,175,1,48,30,1272157708
36,9,22,Ticks_Phase_8,176,5,42,127,1272179076
36,9,22,Ticks_Phase_8,177,1,48,46,1272969920
36,9,22,Ticks_Phase_8,178,5,42,127,1272979084
36,9,22,Ticks_Phase_8,179,1,48,46,1273739976
36,9,22,Ticks_Phase_8,180,5,42,127,1273778500
36,9,22,Ticks_Phase_8,181,1,48,48,1274445924
36,9,22,Ticks_Phase_8,182,5,42,127,1274579244
36,9,22,Ticks_Phase_8,183,1,48,54,1275315284
36,9,22,Ticks_Phase_8,184,5,42,127,1275379044
36,9,22,Ticks_Phase_8,185,1,48,46,1276036300
36,9,22,Ticks_Phase_8,186,5,42,127,1276178988
36,9,22,Ticks_Phase_8,187,1,48,50,1276927148
36,9,22,Ticks_Phase_8,188,5,42,127,1276978420
36,9,22,Ticks_Phase_8,189,1,48,44,1277696304
36,9,22,Ticks_Phase_8,190,5,42,127,1277779252
36,9,22,Ticks_Phase_8,191,5,42,127,1278579120
36,9,22,Ticks_Phase_8,192,1,48,27,1278856116
36,9,22,Ticks_Phase_8,193,5,42,127,1279298928
36,9,22,Ticks_Phase_8,194,1,48,36,1279469576
36,9,22,Ticks_Phase_8,195,5,42,127,1280098788
36,9,22,Ticks_Phase_8,196,1,48,42,1280143164
36,9,22,Ticks_Phase_8,197,1,48,46,1280849564
36,9,22,Ticks_Phase_8,198,5,42,127,1280898344
36,9,22,Ticks_Phase_8,199,1,48,41,1281624108
36,9,22,Ticks_Phase_8,200,5,42,127,1281699548
36,9,22,Ticks_Phase_8,201,1,48,48,1282393636
36,9,22,Ticks_Phase_8,202,5,42,127,1282498872
36,9,22,Ticks_Phase_8,203,1,48,50,1283265612
36,9,22,Ticks_Phase_8,204,5,42,127,1283298676
36,9,22,Ticks_Phase_8,205,1,48,51,1284039196
36,9,22,Ticks_Phase_8,206,5,42,127,1284098632
36,9,22,Ticks_Phase_8,207,5,42,127,1284899100
36,9,22,Ticks_Phase_8,208,1,48,43,1284916980
36,9,22,Ticks_Phase_8,209,5,42,127,1285698888
36,9,22,Ticks_Phase_8,210,1,48,46,1285740348
36,9,22,Ticks_Phase_8,211,1,48,48,1286467116
36,9,22,Ticks_Phase_8,212,5,42,127,1286498816
36,9,22,Ticks_Phase_8,213,1,48,45,1287233788
36,9,22,Ticks_Phase_8,214,5,42,127,1287298452
36,9,22,Ticks_Phase_8,215,5,42,127,1288099364
36,9,22,Ticks_Phase_8,216,1,48,45,1288161048
36,9,22,Ticks_Phase_8,217,1,48,42,1288883388
36,9,22,Ticks_Phase_8,218,5,42,127,1288898996
36,9,22,Ticks_Phase_8,219,5,42,127,1289698716
36,9,22,Ticks_Phase_8,220,1,48,39,1289701388
36,9,22,Ticks_Phase_8,221,1,48,43,1290459380
36,9,22,Ticks_Phase_8,222,5,42,127,1290498296
36,9,22,Ticks_Phase_8,223,1,48,47,1291258116
36,9,22,Ticks_Phase_8,224,5,42,127,1291299280
36,9,22,Ticks_Phase_8,225,1,48,27,1292011464
36,9,22,Ticks_Phase_8,226,5,42,127,1292098916
36,9,22,Ticks_Phase_8,227,1,48,45,1292862952
36,9,22,Ticks_Phase_8,228,5,42,127,1292978668
36,9,22,Ticks_Phase_8,229,1,48,49,1293709920
36,9,22,Ticks_Phase_8,230,5,42,127,1293779368
36,9,22,Ticks_Phase_8,231,1,48,45,1294541156
36,9,22,Ticks_Phase_8,232,5,42,127,1294579304
36,9,22,Ticks_Phase_8,233,1,48,34,1295293908
36,9,22,Ticks_Phase_8,234,5,42,127,1295378892
36,9,22,Ticks_Phase_8,235,1,48,37,1296101112
36,9,22,Ticks_Phase_8,236,5,42,127,1296178604
36,9,22,Ticks_Phase_8,237,1,48,42,1296893928
36,9,22,Ticks_Phase_8,238,5,42,127,1296979212
36,9,22,Ticks_Phase_8,239,1,48,46,1297698692
36,9,22,Ticks_Phase_8,240,5,42,127,1297779220
36,9,22,Ticks_Phase_8,241,1,48,48,1298535764
36,9,22,Ticks_Phase_8,242,5,42,127,1298578936
36,9,22,Ticks_Phase_8,243,1,48,46,1299308156
36,9,22,Ticks_Phase_8,244,5,42,127,1299378500
36,9,22,Ticks_Phase_8,245,1,48,47,1300071692
36,9,22,Ticks_Phase_8,246,5,42,127,1300179244
36,9,22,Ticks_Phase_8,247,1,48,45,1300957680
36,9,22,Ticks_Phase_8,248,5,42,127,1300979120
36,9,22,Ticks_Phase_8,249,1,48,50,1301731244
36,9,22,Ticks_Phase_8,250,5,42,127,1301779004
36,9,22,Ticks_Phase_8,251,1,48,45,1302487308
36,9,22,Ticks_Phase_8,252,5,42,127,1302578644
36,9,22,Ticks_Phase_8,253,1,48,36,1303265212
36,9,22,Ticks_Phase_8,254,5,42,127,1303379312
36,9,22,Ticks_Phase_8,255,5,42,127,1304179120
36,9,22,Ticks_Phase_8,256,1,48,49,1304194516
36,9,22,Ticks_Phase_8,257,1,48,41,1304886304
36,9,22,Ticks_Phase_8,258,5,42,127,1304979488
36,9,22,Ticks_Phase_8,259,5,42,127,1305778620
36,9,22,Ticks_Phase_8,260,1,48,46,1305825768
36,9,22,Ticks_Phase_8,261,1,48,48,1306559652
36,9,22,Ticks_Phase_8,262,5,42,127,1306739044
36,9,22,Ticks_Phase_8,263,1,48,46,1307398852
36,9,22,Ticks_Phase_8,264,5,42,127,1307538756
36,9,22,Ticks_Phase_8,265,1,48,45,1308189428
36,9,22,Ticks_Phase_8,266,5,42,127,1308338468
36,9,22,Ticks_Phase_8,267,1,48,49,1308891084
36,9,22,Ticks_Phase_8,268,5,42,127,1309139524
36,9,22,Ticks_Phase_8,269,1,48,40,1309762640
36,9,22,Ticks_Phase_8,270,5,42,127,1309939012
36,9,22,Ticks_Phase_8,271,1,48,46,1310495920
36,9,22,Ticks_Phase_8,272,5,42,127,1310738900
36,9,22,Ticks_Phase_8,273,1,48,43,1311234892
36,9,22,Ticks_Phase_8,274,5,42,127,1311538684
36,9,22,Ticks_Phase_8,275,1,48,46,1311964416
36,9,22,Ticks_Phase_8,276,5,42,127,1312339516
36,9,22,Ticks_Phase_8,277,1,48,35,1312799724
36,9,22,Ticks_Phase_8,278,5,42,127,1313139156
36,9,22,Ticks_Phase_8,279,1,48,42,1313811168
36,9,22,Ticks_Phase_8,280,5,42,127,1313938792
36,9,22,Ticks_Phase_8,281,1,48,41,1314694072
36,9,22,Ticks_Phase_8,282,5,42,127,1314738516
36,9,22,Ticks_Phase_8,283,5,42,127,1315539432
36,9,22,Ticks_Phase_8,284,1,48,38,1315559332
36,9,22,Ticks_Phase_8,285,1,48,45,1316330272
36,9,22,Ticks_Phase_8,286,5,42,127,1316338992
36,9,22,Ticks_Phase_8,287,5,42,127,1317138884
36,9,22,Ticks_Phase_8,288,1,48,51,1317150464
36,9,22,Ticks_Phase_8,289,1,48,48,1317902160
36,9,22,Ticks_Phase_8,290,5,42,127,1317938588
36,9,22,Ticks_Phase_8,291,1,48,42,1318703964
36,9,22,Ticks_Phase_8,292,5,42,127,1318739420
36,9,22,Ticks_Phase_8,293,1,48,53,1319523972
36,9,22,Ticks_Phase_8,294,5,42,127,1319539356
36,9,22,Ticks_Phase_8,295,1,48,54,1320197284
36,9,22,Ticks_Phase_8,296,5,42,127,1320338904
36,9,22,Ticks_Phase_8,297,1,48,55,1321136900
36,9,22,Ticks_Phase_8,298,5,42,127,1321138484
36,9,22,Ticks_Phase_8,299,5,42,127,1321778468
36,9,22,Ticks_Phase_8,300,1,48,51,1321896008
36,9,22,Ticks_Phase_8,301,5,42,127,1322579376
36,9,22,Ticks_Phase_8,302,1,48,40,1322881468
36,9,22,Ticks_Phase_8,303,5,42,127,1323379160
36,9,22,Ticks_Phase_8,304,5,42,127,1324178968
36,9,22,Ticks_Phase_8,305,1,48,41,1324241396
36,9,22,Ticks_Phase_8,306,5,42,127,1324978680
36,9,22,Ticks_Phase_8,307,1,48,43,1325070424
36,9,22,Ticks_Phase_8,308,5,42,127,1325779216
36,9,22,Ticks_Phase_8,309,1,48,45,1325912292
36,9,22,Ticks_Phase_8,310,1,48,44,1326574244
36,9,22,Ticks_Phase_8,311,5,42,127,1326578996
36,9,22,Ticks_Phase_8,312,5,42,127,1327378816
36,9,22,Ticks_Phase_8,313,1,48,48,1327382904
36,9,22,Ticks_Phase_8,314,1,48,43,1328128692
36,9,22,Ticks_Phase_8,315,5,42,127,1328178520
36,9,22,Ticks_Phase_8,316,1,48,40,1328931848
36,9,22,Ticks_Phase_8,317,5,42,127,1328979428
36,9,22,Ticks_Phase_8,318,1,48,52,1329683848
36,9,22,Ticks_Phase_8,319,5,42,127,1329778916
36,9,22,Ticks_Phase_8,320,1,48,45,1330531940
36,9,22,Ticks_Phase_8,321,5,42,127,1330578776
36,9,22,Ticks_Phase_8,322,1,48,46,1331360264
36,9,22,Ticks_Phase_8,323,5,42,127,1331378640
36,9,22,Ticks_Phase_8,324,1,48,33,1332127552
36,9,22,Ticks_Phase_8,325,5,42,127,1332179472
36,9,22,Ticks_Phase_8,326,5,42,127,1332978968
36,9,22,Ticks_Phase_8,327,1,48,50,1332980980
36,9,22,Ticks_Phase_8,328,5,42,127,1333778780
36,9,22,Ticks_Phase_8,329,1,48,50,1333797780
36,9,22,Ticks_Phase_8,330,5,42,127,1334578568
36,9,22,Ticks_Phase_8,331,1,48,45,1334628420
36,9,22,Ticks_Phase_8,332,1,48,45,1335364380
36,9,22,Ticks_Phase_8,333,5,42,127,1335379392
36,9,22,Ticks_Phase_8,334,1,48,42,1336163572
36,9,22,Ticks_Phase_8,335,5,42,127,1336179032
36,9,22,Ticks_Phase_8,336,1,48,51,1336968004
36,9,22,Ticks_Phase_8,337,5,42,127,1336978668
36,9,22,Ticks_Phase_8,0,9999,9999,9999,1201776740
36,9,22,Ticks_Phase_8,1,9999,9999,9999,1202576504
36,9,22,Ticks_Phase_8,2,9999,9999,9999,1203376220
36,9,22,Ticks_Phase_8,3,9999,9999,9999,1204176992
36,9,22,Ticks_Phase_8,4,9999,9999,9999,1204976704
36,9,22,Ticks_Phase_8,5,9999,9999,9999,1205776448
36,9,22,Ticks_Phase_8,6,9999,9999,9999,1206576224
36,9,22,Ticks_Phase_8,7,9999,9999,9999,1207376984
36,9,22,Ticks_Phase_8,8,9999,9999,9999,1208176700
36,9,22,Ticks_Phase_8,9,9999,9999,9999,1208976484
36,9,22,Ticks_Phase_8,10,9999,9999,9999,1209776192
36,9,22,Ticks_Phase_8,11,9999,9999,9999,1210576952
36,9,22,Ticks_Phase_8,12,9999,9999,9999,1211376740
36,9,22,Ticks_Phase_8,13,9999,9999,9999,1212176484
36,9,22,Ticks_Phase_8,14,9999,9999,9999,1212976188
36,9,22,Ticks_Phase_8,15,9999,9999,9999,1213776952
36,9,22,Ticks_Phase_8,16,9999,9999,9999,1214576740
36,9,22,Ticks_Phase_8,17,9999,9999,9999,1215376452
36,9,22,Ticks_Phase_8,18,9999,9999,9999,1216176236
36,9,22,Ticks_Phase_8,19,9999,9999,9999,1216977012
36,9,22,Ticks_Phase_8,20,9999,9999,9999,1217776724
36,9,22,Ticks_Phase_8,21,9999,9999,9999,1218576468
36,9,22,Ticks_Phase_8,22,9999,9999,9999,1219376248
36,9,22,Ticks_Phase_8,23,9999,9999,9999,1220177004
36,9,22,Ticks_Phase_8,24,9999,9999,9999,1220976716
36,9,22,Ticks_Phase_8,25,9999,9999,9999,1221776508
36,9,22,Ticks_Phase_8,26,9999,9999,9999,1222576220
36,9,22,Ticks_Phase_8,27,9999,9999,9999,1223376972
36,9,22,Ticks_Phase_8,28,9999,9999,9999,1224176764
36,9,22,Ticks_Phase_8,29,9999,9999,9999,1224976500
36,9,22,Ticks_Phase_8,30,9999,9999,9999,1225756736
36,9,22,Ticks_Phase_8,31,9999,9999,9999,1226556528
36,9,22,Ticks_Phase_8,32,9999,9999,9999,1227356244
36,9,22,Ticks_Phase_8,33,9999,9999,9999,1228156996
36,9,22,Ticks_Phase_8,34,9999,9999,9999,1228956784
36,9,22,Ticks_Phase_8,35,9999,9999,9999,1229756496
36,9,22,Ticks_Phase_8,36,9999,9999,9999,1230556280
36,9,22,Ticks_Phase_8,37,9999,9999,9999,1231356996
36,9,22,Ticks_Phase_8,38,9999,9999,9999,1232156760
36,9,22,Ticks_Phase_8,39,9999,9999,9999,1232956488
36,9,22,Ticks_Phase_8,40,9999,9999,9999,1233756272
36,9,22,Ticks_Phase_8,41,9999,9999,9999,1234557032
36,9,22,Ticks_Phase_8,42,9999,9999,9999,1235356744
36,9,22,Ticks_Phase_8,43,9999,9999,9999,1236156532
36,9,22,Ticks_Phase_8,44,9999,9999,9999,1236956244
36,9,22,Ticks_Phase_8,45,9999,9999,9999,1237757008
36,9,22,Ticks_Phase_8,46,9999,9999,9999,1238556740
36,9,22,Ticks_Phase_8,47,9999,9999,9999,1239356508
36,9,22,Ticks_Phase_8,48,9999,9999,9999,1240176740
36,9,22,Ticks_Phase_8,49,9999,9999,9999,1240976468
36,9,22,Ticks_Phase_8,50,9999,9999,9999,1241776252
36,9,22,Ticks_Phase_8,51,9999,9999,9999,1242576996
36,9,22,Ticks_Phase_8,52,9999,9999,9999,1243376712
36,9,22,Ticks_Phase_8,53,9999,9999,9999,1244176460
36,9,22,Ticks_Phase_8,54,9999,9999,9999,1244976232
36,9,22,Ticks_Phase_8,55,9999,9999,9999,1245777004
36,9,22,Ticks_Phase_8,56,9999,9999,9999,1246576716
36,9,22,Ticks_Phase_8,57,9999,9999,9999,1247376504
36,9,22,Ticks_Phase_8,58,9999,9999,9999,1248176216
36,9,22,Ticks_Phase_8,59,9999,9999,9999,1248976972
36,9,22,Ticks_Phase_8,60,9999,9999,9999,1249776760
36,9,22,Ticks_Phase_8,61,9999,9999,9999,1250576496
36,9,22,Ticks_Phase_8,62,9999,9999,9999,1251376196
36,9,22,Ticks_Phase_8,63,9999,9999,9999,1252176968
36,9,22,Ticks_Phase_8,64,9999,9999,9999,1253016656
36,9,22,Ticks_Phase_8,65,9999,9999,9999,1253816444
36,9,22,Ticks_Phase_8,66,9999,9999,9999,1254616156
36,9,22,Ticks_Phase_8,67,9999,9999,9999,1255416912
36,9,22,Ticks_Phase_8,68,9999,9999,9999,1256216648
36,9,22,Ticks_Phase_8,69,9999,9999,9999,1257016436
36,9,22,Ticks_Phase_8,70,9999,9999,9999,1257816164
36,9,22,Ticks_Phase_8,71,9999,9999,9999,1258616920
36,9,22,Ticks_Phase_8,72,9999,9999,9999,1259416640
36,9,22,Ticks_Phase_8,73,9999,9999,9999,1260216420
36,9,22,Ticks_Phase_8,74,9999,9999,9999,1261016136
36,9,22,Ticks_Phase_8,75,9999,9999,9999,1261816888
36,9,22,Ticks_Phase_8,76,9999,9999,9999,1262616700
36,9,22,Ticks_Phase_8,77,9999,9999,9999,1263416416
36,9,22,Ticks_Phase_8,78,9999,9999,9999,1264216124
36,9,22,Ticks_Phase_8,79,9999,9999,9999,1265016956
36,9,22,Ticks_Phase_8,80,9999,9999,9999,1265816668
36,9,22,Ticks_Phase_8,81,9999,9999,9999,1266576472
36,9,22,Ticks_Phase_8,82,9999,9999,9999,1267376252
36,9,22,Ticks_Phase_8,83,9999,9999,9999,1268177012
36,9,22,Ticks_Phase_8,84,9999,9999,9999,1268976724
36,9,22,Ticks_Phase_8,85,9999,9999,9999,1269776460
36,9,22,Ticks_Phase_8,86,9999,9999,9999,1270576244
36,9,22,Ticks_Phase_8,87,9999,9999,9999,1271377004
36,9,22,Ticks_Phase_8,88,9999,9999,9999,1272176716
36,9,22,Ticks_Phase_8,89,9999,9999,9999,1272976500
36,9,22,Ticks_Phase_8,90,9999,9999,9999,1273776212
36,9,22,Ticks_Phase_8,91,9999,9999,9999,1274576956
36,9,22,Ticks_Phase_8,92,9999,9999,9999,1275376760
36,9,22,Ticks_Phase_8,93,9999,9999,9999,1276176480
36,9,22,Ticks_Phase_8,94,9999,9999,9999,1276976204
36,9,22,Ticks_Phase_8,95,9999,9999,9999,1277776964
36,9,22,Ticks_Phase_8,96,9999,9999,9999,1278576756
36,9,22,Ticks_Phase_8,97,9999,9999,9999,1279296640
36,9,22,Ticks_Phase_8,98,9999,9999,9999,1280096352
36,9,22,Ticks_Phase_8,99,9999,9999,9999,1280896060
36,9,22,Ticks_Phase_8,100,9999,9999,9999,1281696892
36,9,22,Ticks_Phase_8,101,9999,9999,9999,1282496588
36,9,22,Ticks_Phase_8,102,9999,9999,9999,1283296312
36,9,22,Ticks_Phase_8,103,9999,9999,9999,1284096100
36,9,22,Ticks_Phase_8,104,9999,9999,9999,1284896888
36,9,22,Ticks_Phase_8,105,9999,9999,9999,1285696600
36,9,22,Ticks_Phase_8,106,9999,9999,9999,1286496380
36,9,22,Ticks_Phase_8,107,9999,9999,9999,1287296092
36,9,22,Ticks_Phase_8,108,9999,9999,9999,1288096856
36,9,22,Ticks_Phase_8,109,9999,9999,9999,1288896636
36,9,22,Ticks_Phase_8,110,9999,9999,9999,1289696356
36,9,22,Ticks_Phase_8,111,9999,9999,9999,1290496060
36,9,22,Ticks_Phase_8,112,9999,9999,9999,1291296844
36,9,22,Ticks_Phase_8,113,9999,9999,9999,1292096632
36,9,22,Ticks_Phase_8,114,9999,9999,9999,1292976232
36,9,22,Ticks_Phase_8,115,9999,9999,9999,1293777008
36,9,22,Ticks_Phase_8,116,9999,9999,9999,1294576720
36,9,22,Ticks_Phase_8,117,9999,9999,9999,1295376456
36,9,22,Ticks_Phase_8,118,9999,9999,9999,1296176244
36,9,22,Ticks_Phase_8,119,9999,9999,9999,1296977000
36,9,22,Ticks_Phase_8,120,9999,9999,9999,1297776712
36,9,22,Ticks_Phase_8,121,9999,9999,9999,1298576500
36,9,22,Ticks_Phase_8,122,9999,9999,9999,1299376216
36,9,22,Ticks_Phase_8,123,9999,9999,9999,1300176956
36,9,22,Ticks_Phase_8,124,9999,9999,9999,1300976760
36,9,22,Ticks_Phase_8,125,9999,9999,9999,1301776496
36,9,22,Ticks_Phase_8,126,9999,9999,9999,1302576208
36,9,22,Ticks_Phase_8,127,9999,9999,9999,1303377024
36,9,22,Ticks_Phase_8,128,9999,9999,9999,1304176760
36,9,22,Ticks_Phase_8,129,9999,9999,9999,1304976464
36,9,22,Ticks_Phase_8,130,9999,9999,9999,1305776256
36,9,22,Ticks_Phase_8,131,9999,9999,9999,1306736756
36,9,22,Ticks_Phase_8,132,9999,9999,9999,1307536468
36,9,22,Ticks_Phase_8,133,9999,9999,9999,1308336256
36,9,22,Ticks_Phase_8,134,9999,9999,9999,1309137016
36,9,22,Ticks_Phase_8,135,9999,9999,9999,1309936728
36,9,22,Ticks_Phase_8,136,9999,9999,9999,1310736464
36,9,22,Ticks_Phase_8,137,9999,9999,9999,1311536248
36,9,22,Ticks_Phase_8,138,9999,9999,9999,1312337008
36,9,22,Ticks_Phase_8,139,9999,9999,9999,1313136716
36,9,22,Ticks_Phase_8,140,9999,9999,9999,1313936504
36,9,22,Ticks_Phase_8,141,9999,9999,9999,1314736232
36,9,22,Ticks_Phase_8,142,9999,9999,9999,1315537000
36,9,22,Ticks_Phase_8,143,9999,9999,9999,1316336704
36,9,22,Ticks_Phase_8,144,9999,9999,9999,1317136448
36,9,22,Ticks_Phase_8,145,9999,9999,9999,1317936228
36,9,22,Ticks_Phase_8,146,9999,9999,9999,1318736988
36,9,22,Ticks_Phase_8,147,9999,9999,9999,1319536700
36,9,22,Ticks_Phase_8,148,9999,9999,9999,1320336468
36,9,22,Ticks_Phase_8,149,9999,9999,9999,1321136208
36,9,22,Ticks_Phase_8,150,9999,9999,9999,1321776252
36,9,22,Ticks_Phase_8,151,9999,9999,9999,1322577012
36,9,22,Ticks_Phase_8,152,9999,9999,9999,1323376724
36,9,22,Ticks_Phase_8,153,9999,9999,9999,1324176456
36,9,22,Ticks_Phase_8,154,9999,9999,9999,1324976244
36,9,22,Ticks_Phase_8,155,9999,9999,9999,1325777004
36,9,22,Ticks_Phase_8,156,9999,9999,9999,1326576712
36,9,22,Ticks_Phase_8,157,9999,9999,9999,1327376456
36,9,22,Ticks_Phase_8,158,9999,9999,9999,1328176232
36,9,22,Ticks_Phase_8,159,9999,9999,9999,1328976992
36,9,22,Ticks_Phase_8,160,9999,9999,9999,1329776704
36,9,22,Ticks_Phase_8,161,9999,9999,9999,1330576492
36,9,22,Ticks_Phase_8,162,9999,9999,9999,1331376204
36,9,22,Ticks_Phase_8,163,9999,9999,9999,1332176964
36,9,22,Ticks_Phase_8,164,9999,9999,9999,1332976756
36,9,22,Ticks_Phase_8,165,9999,9999,9999,1333776492
36,9,22,Ticks_Phase_8,166,9999,9999,9999,1334576204
36,9,22,Ticks_Phase_8,167,9999,9999,9999,1335376956
36,9,22,Ticks_Phase_8,168,9999,9999,9999,1336176744
36,9,22,Ticks_Phase_8,169,9999,9999,9999,1336976456
36,10,23,Ticks_Phase_5,0,5,42,127,1348317544
36,10,23,Ticks_Phase_5,1,5,42,127,1348818152
36,10,23,Ticks_Phase_5,2,1,48,24,1349121912
36,10,23,Ticks_Phase_5,3,1,48,16,1349192812
36,10,23,Ticks_Phase_5,4,5,42,127,1349317968
36,10,23,Ticks_Phase_5,5,1,48,33,1349546748
36,10,23,Ticks_Phase_5,6,5,42,127,1349817656
36,10,23,Ticks_Phase_5,7,1,48,40,1350002172
36,10,23,Ticks_Phase_5,8,5,42,127,1350317640
36,10,23,Ticks_Phase_5,9,1,48,30,1350449892
36,10,23,Ticks_Phase_5,10,5,42,127,1350818300
36,10,23,Ticks_Phase_5,11,1,48,36,1350899308
36,10,23,Ticks_Phase_5,12,5,42,127,1351317844
36,10,23,Ticks_Phase_5,13,1,48,44,1351330920
36,10,23,Ticks_Phase_5,14,1,48,45,1351796832
36,10,23,Ticks_Phase_5,15,5,42,127,1351817672
36,10,23,Ticks_Phase_5,16,1,48,39,1352279440
36,10,23,Ticks_Phase_5,17,5,42,127,1352318260
36,10,23,Ticks_Phase_5,18,1,48,45,1352783092
36,10,23,Ticks_Phase_5,19,5,42,127,1352817948
36,10,23,Ticks_Phase_5,20,1,48,42,1353294752
36,10,23,Ticks_Phase_5,21,5,42,127,1353318008
36,10,23,Ticks_Phase_5,22,5,42,127,1353817556
36,10,23,Ticks_Phase_5,23,1,48,40,1353833396
36,10,23,Ticks_Phase_5,24,5,42,127,1354318140
36,10,23,Ticks_Phase_5,25,1,48,40,1354320808
36,10,23,Ticks_Phase_5,26,5,42,127,1354817904
36,10,23,Ticks_Phase_5,27,1,48,28,1354836452
36,10,23,Ticks_Phase_5,28,1,48,42,1355262064
36,10,23,Ticks_Phase_5,29,5,42,127,1355317736
36,10,23,Ticks_Phase_5,30,5,42,127,1355818328
36,10,23,Ticks_Phase_5,31,1,48,39,1355828268
36,10,23,Ticks_Phase_5,32,5,42,127,1356318016
36,10,23,Ticks_Phase_5,33,1,48,40,1356329596
36,10,23,Ticks_Phase_5,34,1,48,35,1356811600
36,10,23,Ticks_Phase_5,35,5,42,127,1356817848
36,10,23,Ticks_Phase_5,36,1,48,31,1357317764
36,10,23,Ticks_Phase_5,37,5,42,127,1357319104
36,10,23,Ticks_Phase_5,38,1,48,33,1357788636
36,10,23,Ticks_Phase_5,39,5,42,127,1357818248
36,10,23,Ticks_Phase_5,40,1,48,35,1358281956
36,10,23,Ticks_Phase_5,41,5,42,127,1358317860
36,10,23,Ticks_Phase_5,42,1,48,39,1358810848
36,10,23,Ticks_Phase_5,43,5,42,127,1358817700
36,10,23,Ticks_Phase_5,44,1,48,35,1359301624
36,10,23,Ticks_Phase_5,45,5,42,127,1359318360
36,10,23,Ticks_Phase_5,46,1,48,40,1359806112
36,10,23,Ticks_Phase_5,47,5,42,127,1359818268
36,10,23,Ticks_Phase_5,48,1,48,41,1360288500
36,10,23,Ticks_Phase_5,49,5,42,127,1360317736
36,10,23,Ticks_Phase_5,50,5,42,127,1360817652
36,10,23,Ticks_Phase_5,51,1,48,40,1360823836
36,10,23,Ticks_Phase_5,52,5,42,127,1361318460
36,10,23,Ticks_Phase_5,53,1,48,40,1361347800
36,10,23,Ticks_Phase_5,54,1,48,34,1361774520
36,10,23,Ticks_Phase_5,55,5,42,127,1361817848
36,10,23,Ticks_Phase_5,56,1,48,40,1362258644
36,10,23,Ticks_Phase_5,57,5,42,127,1362317612
36,10,23,Ticks_Phase_5,58,1,48,35,1362749868
36,10,23,Ticks_Phase_5,59,5,42,127,1362818568
36,10,23,Ticks_Phase_5,60,5,42,127,1363318116
36,10,23,Ticks_Phase_5,61,1,48,29,1363479872
36,10,23,Ticks_Phase_5,62,5,42,127,1363817880
36,10,23,Ticks_Phase_5,63,1,48,38,1363883524
36,10,23,Ticks_Phase_5,64,5,42,127,1364317420
36,10,23,Ticks_Phase_5,65,1,48,32,1364322028
36,10,23,Ticks_Phase_5,66,1,48,45,1364776480
36,10,23,Ticks_Phase_5,67,5,42,127,1364818516
36,10,23,Ticks_Phase_5,68,1,48,41,1365303196
36,10,23,Ticks_Phase_5,69,5,42,127,1365318136
36,10,23,Ticks_Phase_5,70,1,48,36,1365744516
36,10,23,Ticks_Phase_5,71,5,42,127,1365817600
36,10,23,Ticks_Phase_5,72,1,48,34,1366262556
36,10,23,Ticks_Phase_5,73,5,42,127,1366317360
36,10,23,Ticks_Phase_5,74,1,48,34,1366741800
36,10,23,Ticks_Phase_5,75,5,42,127,1366818168
36,10,23,Ticks_Phase_5,76,1,48,35,1367255036
36,10,23,Ticks_Phase_5,77,5,42,127,1367317860
36,10,23,Ticks_Phase_5,78,1,48,33,1367740436
36,10,23,Ticks_Phase_5,79,5,42,127,1367817624
36,10,23,Ticks_Phase_5,80,1,48,36,1368259816
36,10,23,Ticks_Phase_5,81,5,42,127,1368318360
36,10,23,Ticks_Phase_5,82,1,48,34,1368798896
36,10,23,Ticks_Phase_5,83,5,42,127,1368818320
36,10,23,Ticks_Phase_5,84,1,48,29,1369273564
36,10,23,Ticks_Phase_5,85,5,42,127,1369317932
36,10,23,Ticks_Phase_5,86,1,48,40,1369792128
36,10,23,Ticks_Phase_5,87,5,42,127,1369817400
36,10,23,Ticks_Phase_5,88,1,48,36,1370276244
36,10,23,Ticks_Phase_5,89,5,42,127,1370318284
36,10,23,Ticks_Phase_5,90,5,42,127,1370817980
36,10,23,Ticks_Phase_5,91,1,48,45,1370846112
36,10,23,Ticks_Phase_5,92,1,48,34,1371281980
36,10,23,Ticks_Phase_5,93,5,42,127,1371317660
36,10,23,Ticks_Phase_5,94,1,48,40,1371817272
36,10,23,Ticks_Phase_5,95,5,42,127,1371819144
36,10,23,Ticks_Phase_5,96,1,48,39,1372298588
36,10,23,Ticks_Phase_5,97,5,42,127,1372328272
36,10,23,Ticks_Phase_5,98,1,48,28,1372803880
36,10,23,Ticks_Phase_5,99,5,42,127,1372827960
36,10,23,Ticks_Phase_5,100,1,48,32,1373257224
36,10,23,Ticks_Phase_5,101,5,42,127,1373328168
36,10,23,Ticks_Phase_5,102,5,42,127,1373827344
36,10,23,Ticks_Phase_5,103,1,48,36,1373855464
36,10,23,Ticks_Phase_5,104,1,48,19,1374310740
36,10,23,Ticks_Phase_5,105,5,42,127,1374328072
36,10,23,Ticks_Phase_5,106,1,48,35,1374777932
36,10,23,Ticks_Phase_5,107,5,42,127,1374828056
36,10,23,Ticks_Phase_5,108,1,48,39,1375319928
36,10,23,Ticks_Phase_5,109,5,42,127,1375327748
36,10,23,Ticks_Phase_5,110,5,42,127,1375828264
36,10,23,Ticks_Phase_5,111,1,48,36,1375850104
36,10,23,Ticks_Phase_5,112,5,42,127,1376328028
36,10,23,Ticks_Phase_5,113,1,48,33,1376451188
36,10,23,Ticks_Phase_5,114,5,42,127,1376827788
36,10,23,Ticks_Phase_5,115,1,48,32,1376889468
36,10,23,Ticks_Phase_5,116,1,48,37,1377294484
36,10,23,Ticks_Phase_5,117,5,42,127,1377327620
36,10,23,Ticks_Phase_5,118,5,42,127,1377828140
36,10,23,Ticks_Phase_5,119,1,48,38,1377860388
36,10,23,Ticks_Phase_5,120,5,42,127,1378327900
36,10,23,Ticks_Phase_5,121,1,48,40,1378372880
36,10,23,Ticks_Phase_5,122,5,42,127,1378827664
36,10,23,Ticks_Phase_5,123,1,48,38,1378880584
36,10,23,Ticks_Phase_5,124,5,42,127,1379328400
36,10,23,Ticks_Phase_5,125,1,48,38,1379372556
36,10,23,Ticks_Phase_5,126,5,42,127,1379828068
36,10,23,Ticks_Phase_5,127,1,48,33,1379872996
36,10,23,Ticks_Phase_5,128,1,48,36,1380334372
36,10,23,Ticks_Phase_5,129,5,42,127,1380348364
36,10,23,Ticks_Phase_5,130,5,42,127,1380847960
36,10,23,Ticks_Phase_5,131,1,48,37,1380889148
36,10,23,Ticks_Phase_5,132,5,42,127,1381347724
36,10,23,Ticks_Phase_5,133,1,48,27,1381368740
36,10,23,Ticks_Phase_5,134,5,42,127,1381848680
36,10,23,Ticks_Phase_5,135,1,48,41,1381879660
36,10,23,Ticks_Phase_5,136,5,42,127,1382358256
36,10,23,Ticks_Phase_5,137,1,48,39,1382367072
36,10,23,Ticks_Phase_5,138,1,48,36,1382849220
36,10,23,Ticks_Phase_5,139,5,42,127,1382858088
36,10,23,Ticks_Phase_5,140,1,48,39,1383354964
36,10,23,Ticks_Phase_5,141,5,42,127,1383357924
36,10,23,Ticks_Phase_5,142,1,48,43,1383809208
36,10,23,Ticks_Phase_5,143,5,42,127,1383857464
36,10,23,Ticks_Phase_5,144,1,48,37,1384348212
36,10,23,Ticks_Phase_5,145,5,42,127,1384358124
36,10,23,Ticks_Phase_5,146,1,48,34,1384818540
36,10,23,Ticks_Phase_5,147,5,42,127,1384858112
36,10,23,Ticks_Phase_5,148,1,48,35,1385308116
36,10,23,Ticks_Phase_5,149,5,42,127,1385357724
36,10,23,Ticks_Phase_5,150,1,48,38,1385819192
36,10,23,Ticks_Phase_5,151,5,42,127,1385858532
36,10,23,Ticks_Phase_5,152,1,48,43,1386345912
36,10,23,Ticks_Phase_5,153,5,42,127,1386368480
36,10,23,Ticks_Phase_5,154,1,48,38,1386851208
36,10,23,Ticks_Phase_5,155,5,42,127,1386867944
36,10,23,Ticks_Phase_5,156,1,48,28,1387364072
36,10,23,Ticks_Phase_5,157,5,42,127,1387367932
36,10,23,Ticks_Phase_5,158,5,42,127,1387867624
36,10,23,Ticks_Phase_5,159,1,48,39,1387899796
36,10,23,Ticks_Phase_5,160,1,48,33,1388318080
36,10,23,Ticks_Phase_5,161,5,42,127,1388368204
36,10,23,Ticks_Phase_5,162,5,42,127,1388847384
36,10,23,Ticks_Phase_5,163,1,48,48,1388856948
36,10,23,Ticks_Phase_5,164,1,48,36,1389345996
36,10,23,Ticks_Phase_5,165,5,42,127,1389348112
36,10,23,Ticks_Phase_5,166,1,48,34,1389829204
36,10,23,Ticks_Phase_5,167,5,42,127,1389847876
36,10,23,Ticks_Phase_5,168,1,48,33,1390317404
36,10,23,Ticks_Phase_5,169,5,42,127,1390347488
36,10,23,Ticks_Phase_5,170,1,48,39,1390799564
36,10,23,Ticks_Phase_5,171,5,42,127,1390848296
36,10,23,Ticks_Phase_5,172,1,48,39,1391320448
36,10,23,Ticks_Phase_5,173,5,42,127,1391348332
36,10,23,Ticks_Phase_5,174,1,48,40,1391836836
36,10,23,Ticks_Phase_5,175,5,42,127,1391847648
36,10,23,Ticks_Phase_5,176,1,48,36,1392248604
36,10,23,Ticks_Phase_5,177,5,42,127,1392347472
36,10,23,Ticks_Phase_5,178,5,42,127,1392848228
36,10,23,Ticks_Phase_5,179,1,48,43,1392936076
36,10,23,Ticks_Phase_5,180,5,42,127,1393348140
36,10,23,Ticks_Phase_5,181,1,48,27,1393358376
36,10,23,Ticks_Phase_5,182,1,48,41,1393837092
36,10,23,Ticks_Phase_5,183,5,42,127,1393847676
36,10,23,Ticks_Phase_5,184,1,48,39,1394315044
36,10,23,Ticks_Phase_5,185,5,42,127,1394348336
36,10,23,Ticks_Phase_5,186,1,48,49,1394832712
36,10,23,Ticks_Phase_5,187,5,42,127,1394848320
36,10,23,Ticks_Phase_5,188,1,48,44,1395317956
36,10,23,Ticks_Phase_5,189,5,42,127,1395347788
36,10,23,Ticks_Phase_5,190,5,42,127,1395847480
36,10,23,Ticks_Phase_5,191,1,48,47,1395855696
36,10,23,Ticks_Phase_5,192,1,48,40,1396306468
36,10,23,Ticks_Phase_5,193,5,42,127,1396348432
36,10,23,Ticks_Phase_5,194,5,42,127,1396797732
36,10,23,Ticks_Phase_5,195,1,48,47,1396871988
36,10,23,Ticks_Phase_5,196,1,48,38,1397280752
36,10,23,Ticks_Phase_5,197,5,42,127,1397297488
36,10,23,Ticks_Phase_5,198,1,48,43,1397736088
36,10,23,Ticks_Phase_5,199,5,42,127,1397798296
36,10,23,Ticks_Phase_5,200,1,48,38,1398253740
36,10,23,Ticks_Phase_5,201,5,42,127,1398298132
36,10,23,Ticks_Phase_5,202,1,48,36,1398771328
36,10,23,Ticks_Phase_5,203,5,42,127,1398797748
36,10,23,Ticks_Phase_5,204,1,48,31,1399246828
36,10,23,Ticks_Phase_5,205,5,42,127,1399298556
36,10,23,Ticks_Phase_5,206,1,48,40,1399803524
36,10,23,Ticks_Phase_5,207,5,42,127,1399808352
36,10,23,Ticks_Phase_5,208,5,42,127,1400308172
36,10,23,Ticks_Phase_5,209,1,48,42,1400330344
36,10,23,Ticks_Phase_5,210,1,48,40,1400753076
36,10,23,Ticks_Phase_5,211,5,42,127,1400808152
36,10,23,Ticks_Phase_5,212,5,42,127,1401307400
36,10,23,Ticks_Phase_5,213,1,48,40,1401386704
36,10,23,Ticks_Phase_5,214,5,42,127,1401808212
36,10,23,Ticks_Phase_5,215,1,48,24,1401852168
36,10,23,Ticks_Phase_5,216,1,48,38,1402271464
36,10,23,Ticks_Phase_5,217,5,42,127,1402308044
36,10,23,Ticks_Phase_5,218,1,48,35,1402771604
36,10,23,Ticks_Phase_5,219,5,42,127,1402807804
36,10,23,Ticks_Phase_5,220,1,48,38,1403250848
36,10,23,Ticks_Phase_5,221,5,42,127,1403308468
36,10,23,Ticks_Phase_5,222,1,48,37,1403753604
36,10,23,Ticks_Phase_5,223,5,42,127,1403808080
36,10,23,Ticks_Phase_5,224,1,48,37,1404238620
36,10,23,Ticks_Phase_5,225,5,42,127,1404308068
36,10,23,Ticks_Phase_5,226,1,48,30,1404764956
36,10,23,Ticks_Phase_5,227,5,42,127,1404807684
36,10,23,Ticks_Phase_5,228,1,48,35,1405225628
36,10,23,Ticks_Phase_5,229,5,42,127,1405357384
36,10,23,Ticks_Phase_5,230,1,48,34,1405784484
36,10,23,Ticks_Phase_5,231,5,42,127,1405858060
36,10,23,Ticks_Phase_5,232,1,48,33,1406341688
36,10,23,Ticks_Phase_5,233,5,42,127,1406357824
36,10,23,Ticks_Phase_5,234,5,42,127,1406857592
36,10,23,Ticks_Phase_5,235,1,48,33,1406909312
36,10,23,Ticks_Phase_5,236,1,48,30,1407267828
36,10,23,Ticks_Phase_5,237,5,42,127,1407358544
36,10,23,Ticks_Phase_5,238,5,42,127,1407858016
36,10,23,Ticks_Phase_5,239,1,48,35,1407892660
36,10,23,Ticks_Phase_5,240,5,42,127,1408357928
36,10,23,Ticks_Phase_5,241,1,48,38,1408417144
36,10,23,Ticks_Phase_5,242,5,42,127,1408857540
36,10,23,Ticks_Phase_5,243,1,48,31,1408900500
36,10,23,Ticks_Phase_5,244,1,48,32,1409305824
36,10,23,Ticks_Phase_5,245,5,42,127,1409358120
36,10,23,Ticks_Phase_5,246,5,42,127,1409857888
36,10,23,Ticks_Phase_5,247,1,48,30,1409871488
36,10,23,Ticks_Phase_5,248,1,48,33,1410346608
36,10,23,Ticks_Phase_5,249,5,42,127,1410357572
36,10,23,Ticks_Phase_5,250,5,42,127,1410858460
36,10,23,Ticks_Phase_5,251,1,48,41,1410887124
36,10,23,Ticks_Phase_5,252,1,48,37,1411278484
36,10,23,Ticks_Phase_5,253,5,42,127,1411358068
36,10,23,Ticks_Phase_5,254,5,42,127,1411857764
36,10,23,Ticks_Phase_5,255,1,48,37,1411898100
36,10,23,Ticks_Phase_5,256,5,42,127,1412357452
36,10,23,Ticks_Phase_5,257,1,48,33,1412369928
36,10,23,Ticks_Phase_5,258,5,42,127,1412858408
36,10,23,Ticks_Phase_5,259,1,48,35,1412892080
36,10,23,Ticks_Phase_5,260,1,48,34,1413316028
36,10,23,Ticks_Phase_5,261,5,42,127,1413357916
36,10,23,Ticks_Phase_5,262,1,48,37,1413877872
36,10,23,Ticks_Phase_5,263,5,42,127,1413958052
36,10,23,Ticks_Phase_5,264,1,48,37,1414398404
36,10,23,Ticks_Phase_5,265,5,42,127,1414457668
36,10,23,Ticks_Phase_5,266,5,42,127,1414957584
36,10,23,Ticks_Phase_5,267,1,48,31,1414969916
36,10,23,Ticks_Phase_5,268,1,48,40,1415444576
36,10,23,Ticks_Phase_5,269,5,42,127,1415458088
36,10,23,Ticks_Phase_5,270,5,42,127,1415957856
36,10,23,Ticks_Phase_5,271,1,48,33,1415981568
36,10,23,Ticks_Phase_5,272,5,42,127,1416457548
36,10,23,Ticks_Phase_5,273,1,48,32,1416485896
36,10,23,Ticks_Phase_5,274,5,42,127,1416958504
36,10,23,Ticks_Phase_5,275,1,48,35,1416975096
36,10,23,Ticks_Phase_5,276,5,42,127,1417457944
36,10,23,Ticks_Phase_5,277,1,48,38,1417460612
36,10,23,Ticks_Phase_5,278,5,42,127,1417957780
36,10,23,Ticks_Phase_5,279,1,48,36,1417989388
36,10,23,Ticks_Phase_5,280,1,48,32,1418447548
36,10,23,Ticks_Phase_5,281,5,42,127,1418457540
36,10,23,Ticks_Phase_5,282,1,48,43,1418939600
36,10,23,Ticks_Phase_5,283,5,42,127,1418958272
36,10,23,Ticks_Phase_5,284,1,48,37,1419363348
36,10,23,Ticks_Phase_5,285,5,42,127,1419458184
36,10,23,Ticks_Phase_5,286,1,48,42,1419956064
36,10,23,Ticks_Phase_5,287,5,42,127,1419957724
36,10,23,Ticks_Phase_5,288,1,48,37,1420446300
36,10,23,Ticks_Phase_5,289,5,42,127,1420458312
36,10,23,Ticks_Phase_5,290,5,42,127,1420958156
36,10,23,Ticks_Phase_5,291,1,48,46,1420960524
36,10,23,Ticks_Phase_5,292,5,42,127,1421457768
36,10,23,Ticks_Phase_5,293,1,48,31,1421459252
36,10,23,Ticks_Phase_5,294,1,48,44,1421950676
36,10,23,Ticks_Phase_5,295,5,42,127,1421957448
36,10,23,Ticks_Phase_5,296,5,42,127,1422458192
36,10,23,Ticks_Phase_5,297,1,48,43,1422463476
36,10,23,Ticks_Phase_5,298,5,42,127,1422958176
36,10,23,Ticks_Phase_5,299,1,48,40,1422973352
36,10,23,Ticks_Phase_5,300,5,42,127,1423358268
36,10,23,Ticks_Phase_5,301,1,48,38,1423425032
36,10,23,Ticks_Phase_5,302,5,42,127,1423858300
36,10,23,Ticks_Phase_5,303,1,48,38,1423953032
36,10,23,Ticks_Phase_5,304,1,48,48,1424294516
36,10,23,Ticks_Phase_5,305,5,42,127,1424357612
36,10,23,Ticks_Phase_5,306,1,48,39,1424792036
36,10,23,Ticks_Phase_5,307,5,42,127,1424857524
36,10,23,Ticks_Phase_5,308,1,48,38,1425328276
36,10,23,Ticks_Phase_5,309,5,42,127,1425358332
36,10,23,Ticks_Phase_5,310,1,48,38,1425825032
36,10,23,Ticks_Phase_5,311,5,42,127,1425858168
36,10,23,Ticks_Phase_5,312,1,48,38,1426341720
36,10,23,Ticks_Phase_5,313,5,42,127,1426357560
36,10,23,Ticks_Phase_5,314,5,42,127,1426858300
36,10,23,Ticks_Phase_5,315,1,48,33,1426882836
36,10,23,Ticks_Phase_5,316,1,48,40,1427288388
36,10,23,Ticks_Phase_5,317,5,42,127,1427358132
36,10,23,Ticks_Phase_5,318,5,42,127,1427857904
36,10,23,Ticks_Phase_5,319,1,48,36,1427861020
36,10,23,Ticks_Phase_5,320,1,48,31,1428300116
36,10,23,Ticks_Phase_5,321,5,42,127,1428357360
36,10,23,Ticks_Phase_5,322,1,48,44,1428831332
36,10,23,Ticks_Phase_5,323,5,42,127,1428858248
36,10,23,Ticks_Phase_5,324,1,48,27,1429293044
36,10,23,Ticks_Phase_5,325,5,42,127,1429357932
36,10,23,Ticks_Phase_5,326,5,42,127,1429857928
36,10,23,Ticks_Phase_5,327,1,48,39,1429864860
36,10,23,Ticks_Phase_5,328,1,48,34,1430337284
36,10,23,Ticks_Phase_5,329,5,42,127,1430358280
36,10,23,Ticks_Phase_5,330,1,48,48,1430855928
36,10,23,Ticks_Phase_5,331,5,42,127,1430858044
36,10,23,Ticks_Phase_5,332,5,42,127,1431357812
36,10,23,Ticks_Phase_5,333,1,48,45,1431406464
36,10,23,Ticks_Phase_5,334,5,42,127,1431857576
36,10,23,Ticks_Phase_5,335,1,48,43,1431921648
36,10,23,Ticks_Phase_5,336,5,42,127,1432358240
36,10,23,Ticks_Phase_5,337,1,48,39,1432361208
36,10,23,Ticks_Phase_5,338,1,48,39,1432842232
36,10,23,Ticks_Phase_5,339,5,42,127,1432857848
36,10,23,Ticks_Phase_5,0,9999,9999,9999,1348315252
36,10,23,Ticks_Phase_5,1,9999,9999,9999,1348815936
36,10,23,Ticks_Phase_5,2,9999,9999,9999,1349315676
36,10,23,Ticks_Phase_5,3,9999,9999,9999,1349815368
36,10,23,Ticks_Phase_5,4,9999,9999,9999,1350315128
36,10,23,Ticks_Phase_5,5,9999,9999,9999,1350815864
36,10,23,Ticks_Phase_5,6,9999,9999,9999,1351315552
36,10,23,Ticks_Phase_5,7,9999,9999,9999,1351815236
36,10,23,Ticks_Phase_5,8,9999,9999,9999,1352315972
36,10,23,Ticks_Phase_5,9,9999,9999,9999,1352815732
36,10,23,Ticks_Phase_5,10,9999,9999,9999,1353315424
36,10,23,Ticks_Phase_5,11,9999,9999,9999,1353815116
36,10,23,Ticks_Phase_5,12,9999,9999,9999,1354315852
36,10,23,Ticks_Phase_5,13,9999,9999,9999,1354815540
36,10,23,Ticks_Phase_5,14,9999,9999,9999,1355315296
36,10,23,Ticks_Phase_5,15,9999,9999,9999,1355816036
36,10,23,Ticks_Phase_5,16,9999,9999,9999,1356315728
36,10,23,Ticks_Phase_5,17,9999,9999,9999,1356815484
36,10,23,Ticks_Phase_5,18,9999,9999,9999,1357315180
36,10,23,Ticks_Phase_5,19,9999,9999,9999,1357815884
36,10,23,Ticks_Phase_5,20,9999,9999,9999,1358315644
36,10,23,Ticks_Phase_5,21,9999,9999,9999,1358815332
36,10,23,Ticks_Phase_5,22,9999,9999,9999,1359316068
36,10,23,Ticks_Phase_5,23,9999,9999,9999,1359815756
36,10,23,Ticks_Phase_5,24,9999,9999,9999,1360315448
36,10,23,Ticks_Phase_5,25,9999,9999,9999,1360815216
36,10,23,Ticks_Phase_5,26,9999,9999,9999,1361315948
36,10,23,Ticks_Phase_5,27,9999,9999,9999,1361815632
36,10,23,Ticks_Phase_5,28,9999,9999,9999,1362315320
36,10,23,Ticks_Phase_5,29,9999,9999,9999,1362816060
36,10,23,Ticks_Phase_5,30,9999,9999,9999,1363315828
36,10,23,Ticks_Phase_5,31,9999,9999,9999,1363815516
36,10,23,Ticks_Phase_5,32,9999,9999,9999,1364315204
36,10,23,Ticks_Phase_5,33,9999,9999,9999,1364815932
36,10,23,Ticks_Phase_5,34,9999,9999,9999,1365315696
36,10,23,Ticks_Phase_5,35,9999,9999,9999,1365815384
36,10,23,Ticks_Phase_5,36,9999,9999,9999,1366315072
36,10,23,Ticks_Phase_5,37,9999,9999,9999,1366815808
36,10,23,Ticks_Phase_5,38,9999,9999,9999,1367315568
36,10,23,Ticks_Phase_5,39,9999,9999,9999,1367815260
36,10,23,Ticks_Phase_5,40,9999,9999,9999,1368315992
36,10,23,Ticks_Phase_5,41,9999,9999,9999,1368815732
36,10,23,Ticks_Phase_5,42,9999,9999,9999,1369315420
36,10,23,Ticks_Phase_5,43,9999,9999,9999,1369815112
36,10,23,Ticks_Phase_5,44,9999,9999,9999,1370315844
36,10,23,Ticks_Phase_5,45,9999,9999,9999,1370815616
36,10,23,Ticks_Phase_5,46,9999,9999,9999,1371315300
36,10,23,Ticks_Phase_5,47,9999,9999,9999,1371816040
36,10,23,Ticks_Phase_5,48,9999,9999,9999,1372325980
36,10,23,Ticks_Phase_5,49,9999,9999,9999,1372825668
36,10,23,Ticks_Phase_5,50,9999,9999,9999,1373325432
36,10,23,Ticks_Phase_5,51,9999,9999,9999,1373825128
36,10,23,Ticks_Phase_5,52,9999,9999,9999,1374325856
36,10,23,Ticks_Phase_5,53,9999,9999,9999,1374825544
36,10,23,Ticks_Phase_5,54,9999,9999,9999,1375325308
36,10,23,Ticks_Phase_5,55,9999,9999,9999,1375825976
36,10,23,Ticks_Phase_5,56,9999,9999,9999,1376325736
36,10,23,Ticks_Phase_5,57,9999,9999,9999,1376825424
36,10,23,Ticks_Phase_5,58,9999,9999,9999,1377325184
36,10,23,Ticks_Phase_5,59,9999,9999,9999,1377825848
36,10,23,Ticks_Phase_5,60,9999,9999,9999,1378325612
36,10,23,Ticks_Phase_5,61,9999,9999,9999,1378825300
36,10,23,Ticks_Phase_5,62,9999,9999,9999,1379326036
36,10,23,Ticks_Phase_5,63,9999,9999,9999,1379825776
36,10,23,Ticks_Phase_5,64,9999,9999,9999,1380345928
36,10,23,Ticks_Phase_5,65,9999,9999,9999,1380845672
36,10,23,Ticks_Phase_5,66,9999,9999,9999,1381345360
36,10,23,Ticks_Phase_5,67,9999,9999,9999,1381846096
36,10,23,Ticks_Phase_5,68,9999,9999,9999,1382356040
36,10,23,Ticks_Phase_5,69,9999,9999,9999,1382855796
36,10,23,Ticks_Phase_5,70,9999,9999,9999,1383355488
36,10,23,Ticks_Phase_5,71,9999,9999,9999,1383855172
36,10,23,Ticks_Phase_5,72,9999,9999,9999,1384355908
36,10,23,Ticks_Phase_5,73,9999,9999,9999,1384855672
36,10,23,Ticks_Phase_5,74,9999,9999,9999,1385355360
36,10,23,Ticks_Phase_5,75,9999,9999,9999,1385856096
36,10,23,Ticks_Phase_5,76,9999,9999,9999,1386366040
36,10,23,Ticks_Phase_5,77,9999,9999,9999,1386865728
36,10,23,Ticks_Phase_5,78,9999,9999,9999,1387365492
36,10,23,Ticks_Phase_5,79,9999,9999,9999,1387865188
36,10,23,Ticks_Phase_5,80,9999,9999,9999,1388365916
36,10,23,Ticks_Phase_5,81,9999,9999,9999,1388845168
36,10,23,Ticks_Phase_5,82,9999,9999,9999,1389345860
36,10,23,Ticks_Phase_5,83,9999,9999,9999,1389845588
36,10,23,Ticks_Phase_5,84,9999,9999,9999,1390345272
36,10,23,Ticks_Phase_5,85,9999,9999,9999,1390846008
36,10,23,Ticks_Phase_5,86,9999,9999,9999,1391345744
36,10,23,Ticks_Phase_5,87,9999,9999,9999,1391845436
36,10,23,Ticks_Phase_5,88,9999,9999,9999,1392345180
36,10,23,Ticks_Phase_5,89,9999,9999,9999,1392845936
36,10,23,Ticks_Phase_5,90,9999,9999,9999,1393345628
36,10,23,Ticks_Phase_5,91,9999,9999,9999,1393845312
36,10,23,Ticks_Phase_5,92,9999,9999,9999,1394346044
36,10,23,Ticks_Phase_5,93,9999,9999,9999,1394845808
36,10,23,Ticks_Phase_5,94,9999,9999,9999,1395345500
36,10,23,Ticks_Phase_5,95,9999,9999,9999,1395845192
36,10,23,Ticks_Phase_5,96,9999,9999,9999,1396345920
36,10,23,Ticks_Phase_5,97,9999,9999,9999,1396795512
36,10,23,Ticks_Phase_5,98,9999,9999,9999,1397295196
36,10,23,Ticks_Phase_5,99,9999,9999,9999,1397795932
36,10,23,Ticks_Phase_5,100,9999,9999,9999,1398295620
36,10,23,Ticks_Phase_5,101,9999,9999,9999,1398795380
36,10,23,Ticks_Phase_5,102,9999,9999,9999,1399296120
36,10,23,Ticks_Phase_5,103,9999,9999,9999,1399806064
36,10,23,Ticks_Phase_5,104,9999,9999,9999,1400305736
36,10,23,Ticks_Phase_5,105,9999,9999,9999,1400805492
36,10,23,Ticks_Phase_5,106,9999,9999,9999,1401305188
36,10,23,Ticks_Phase_5,107,9999,9999,9999,1401805924
36,10,23,Ticks_Phase_5,108,9999,9999,9999,1402305604
36,10,23,Ticks_Phase_5,109,9999,9999,9999,1402805368
36,10,23,Ticks_Phase_5,110,9999,9999,9999,1403306104
36,10,23,Ticks_Phase_5,111,9999,9999,9999,1403805792
36,10,23,Ticks_Phase_5,112,9999,9999,9999,1404305480
36,10,23,Ticks_Phase_5,113,9999,9999,9999,1404805244
36,10,23,Ticks_Phase_5,114,9999,9999,9999,1405355092
36,10,23,Ticks_Phase_5,115,9999,9999,9999,1405855848
36,10,23,Ticks_Phase_5,116,9999,9999,9999,1406355536
36,10,23,Ticks_Phase_5,117,9999,9999,9999,1406855228
36,10,23,Ticks_Phase_5,118,9999,9999,9999,1407356032
36,10,23,Ticks_Phase_5,119,9999,9999,9999,1407855724
36,10,23,Ticks_Phase_5,120,9999,9999,9999,1408355416
36,10,23,Ticks_Phase_5,121,9999,9999,9999,1408855104
36,10,23,Ticks_Phase_5,122,9999,9999,9999,1409355832
36,10,23,Ticks_Phase_5,123,9999,9999,9999,1409855600
36,10,23,Ticks_Phase_5,124,9999,9999,9999,1410355280
36,10,23,Ticks_Phase_5,125,9999,9999,9999,1410856024
36,10,23,Ticks_Phase_5,126,9999,9999,9999,1411355704
36,10,23,Ticks_Phase_5,127,9999,9999,9999,1411855472
36,10,23,Ticks_Phase_5,128,9999,9999,9999,1412355160
36,10,23,Ticks_Phase_5,129,9999,9999,9999,1412855896
36,10,23,Ticks_Phase_5,130,9999,9999,9999,1413355628
36,10,23,Ticks_Phase_5,131,9999,9999,9999,1413955688
36,10,23,Ticks_Phase_5,132,9999,9999,9999,1414455380
36,10,23,Ticks_Phase_5,133,9999,9999,9999,1414955072
36,10,23,Ticks_Phase_5,134,9999,9999,9999,1415455800
36,10,23,Ticks_Phase_5,135,9999,9999,9999,1415955568
36,10,23,Ticks_Phase_5,136,9999,9999,9999,1416455256
36,10,23,Ticks_Phase_5,137,9999,9999,9999,1416955992
36,10,23,Ticks_Phase_5,138,9999,9999,9999,1417455728
36,10,23,Ticks_Phase_5,139,9999,9999,9999,1417955416
36,10,23,Ticks_Phase_5,140,9999,9999,9999,1418455100
36,10,23,Ticks_Phase_5,141,9999,9999,9999,1418955836
36,10,23,Ticks_Phase_5,142,9999,9999,9999,1419455596
36,10,23,Ticks_Phase_5,143,9999,9999,9999,1419955292
36,10,23,Ticks_Phase_5,144,9999,9999,9999,1420456020
36,10,23,Ticks_Phase_5,145,9999,9999,9999,1420955716
36,10,23,Ticks_Phase_5,146,9999,9999,9999,1421455476
36,10,23,Ticks_Phase_5,147,9999,9999,9999,1421955160
36,10,23,Ticks_Phase_5,148,9999,9999,9999,1422455904
36,10,23,Ticks_Phase_5,149,9999,9999,9999,1422955588
36,10,23,Ticks_Phase_5,150,9999,9999,9999,1423355976
36,10,23,Ticks_Phase_5,151,9999,9999,9999,1423855716
36,10,23,Ticks_Phase_5,152,9999,9999,9999,1424355396
36,10,23,Ticks_Phase_5,153,9999,9999,9999,1424855160
36,10,23,Ticks_Phase_5,154,9999,9999,9999,1425355892
36,10,23,Ticks_Phase_5,155,9999,9999,9999,1425855580
36,10,23,Ticks_Phase_5,156,9999,9999,9999,1426355268
36,10,23,Ticks_Phase_5,157,9999,9999,9999,1426856012
36,10,23,Ticks_Phase_5,158,9999,9999,9999,1427355768
36,10,23,Ticks_Phase_5,159,9999,9999,9999,1427855464
36,10,23,Ticks_Phase_5,160,9999,9999,9999,1428355148
36,10,23,Ticks_Phase_5,161,9999,9999,9999,1428855880
36,10,23,Ticks_Phase_5,162,9999,9999,9999,1429355644
36,10,23,Ticks_Phase_5,163,9999,9999,9999,1429855340
36,10,23,Ticks_Phase_5,164,9999,9999,9999,1430356068
36,10,23,Ticks_Phase_5,165,9999,9999,9999,1430855800
36,10,23,Ticks_Phase_5,166,9999,9999,9999,1431355452
36,10,23,Ticks_Phase_5,167,9999,9999,9999,1431855212
36,10,23,Ticks_Phase_5,168,9999,9999,9999,1432355948
36,10,23,Ticks_Phase_5,169,9999,9999,9999,1432855632
36,11,25,Jits_Pract_5,0,5,56,103,1494038816
36,11,25,Jits_Pract_5,1,5,63,98,1494042216
36,11,25,Jits_Pract_5,2,5,80,127,1494045260
36,11,25,Jits_Pract_5,0,5,56,103,1494538620
36,11,25,Jits_Pract_5,1,5,63,98,1494541568
36,11,25,Jits_Pract_5,2,5,80,127,1494544764
36,11,25,Jits_Pract_5,0,5,56,103,1495039336
36,11,25,Jits_Pract_5,1,5,80,127,1495048556
36,11,25,Jits_Pract_5,2,5,63,98,1495069240
36,11,25,Jits_Pract_5,0,5,63,98,1495488860
36,11,25,Jits_Pract_5,1,5,80,127,1495518536
36,11,25,Jits_Pract_5,2,5,56,103,1495528732
36,11,25,Jits_Pract_5,0,5,80,127,1496049116
36,11,25,Jits_Pract_5,1,5,56,103,1496059240
36,11,25,Jits_Pract_5,2,5,63,98,1496089060
36,11,25,Jits_Pract_5,0,5,63,98,1496538576
36,11,25,Jits_Pract_5,1,5,56,103,1496569324
36,11,25,Jits_Pract_5,2,5,80,127,1496578400
36,11,25,Jits_Pract_5,0,5,56,103,1496989008
36,11,25,Jits_Pract_5,1,5,63,98,1497039212
36,11,25,Jits_Pract_5,2,5,80,127,1497058548
36,11,25,Jits_Pract_5,0,5,80,127,1497488676
36,11,25,Jits_Pract_5,1,5,63,98,1497539104
36,11,25,Jits_Pract_5,2,5,56,103,1497578892
36,11,25,Jits_Pract_5,0,5,56,103,1497988348
36,11,25,Jits_Pract_5,1,5,63,98,1498019144
36,11,25,Jits_Pract_5,2,5,80,127,1498089048
36,11,25,Jits_Pract_5,0,5,56,103,1498489140
36,11,25,Jits_Pract_5,1,5,80,127,1498548708
36,11,25,Jits_Pract_5,2,5,63,98,1498579352
36,11,25,Jits_Pract_5,0,5,56,103,1498999148
36,11,25,Jits_Pract_5,1,5,63,98,1499009492
36,11,25,Jits_Pract_5,2,5,80,127,1499049428
36,11,25,Jits_Pract_5,0,5,63,98,1499488552
36,11,25,Jits_Pract_5,1,5,80,127,1499568424
36,11,25,Jits_Pract_5,2,5,56,103,1499578916
36,11,25,Jits_Pract_5,0,5,63,98,1500038628
36,11,25,Jits_Pract_5,1,5,56,103,1500078568
36,11,25,Jits_Pract_5,2,5,80,127,1500081484
36,11,25,Jits_Pract_5,0,5,56,103,1500499240
36,11,25,Jits_Pract_5,1,5,63,98,1500508464
36,11,25,Jits_Pract_5,2,5,80,127,1500548476
36,11,25,Jits_Pract_5,0,5,56,103,1500989020
36,11,25,Jits_Pract_5,1,5,63,98,1500991932
36,11,25,Jits_Pract_5,2,5,80,127,1501009324
36,11,25,Jits_Pract_5,0,9999,9999,9999,1494286404
36,11,25,Jits_Pract_5,1,9999,9999,9999,1494786132
36,11,25,Jits_Pract_5,2,9999,9999,9999,1495286852
36,11,25,Jits_Pract_5,3,9999,9999,9999,1495786568
36,11,25,Jits_Pract_5,4,9999,9999,9999,1496286272
36,11,25,Jits_Pract_5,5,9999,9999,9999,1496787064
36,11,25,Jits_Pract_5,6,9999,9999,9999,1497286716
36,11,25,Jits_Pract_5,7,9999,9999,9999,1497786464
36,11,25,Jits_Pract_5,8,9999,9999,9999,1498286132
36,11,25,Jits_Pract_5,9,9999,9999,9999,1498786924
36,11,25,Jits_Pract_5,10,9999,9999,9999,1499286592
36,11,25,Jits_Pract_5,11,9999,9999,9999,1499786336
36,11,25,Jits_Pract_5,12,9999,9999,9999,1500287036
36,11,25,Jits_Pract_5,13,9999,9999,9999,1500786760
36,11,25,Jits_Pract_5,14,9999,9999,9999,1501286488
36,12,24,Jits_Pract_8,0,5,56,103,1549469004
36,12,24,Jits_Pract_8,1,5,63,98,1549472172
36,12,24,Jits_Pract_8,2,5,80,127,1549475372
36,12,24,Jits_Pract_8,0,1,48,42,1549911816
36,12,24,Jits_Pract_8,1,5,56,103,1550279036
36,12,24,Jits_Pract_8,2,5,63,98,1550281980
36,12,24,Jits_Pract_8,3,5,80,127,1550285180
36,12,24,Jits_Pract_8,4,1,48,48,1550498244
36,12,24,Jits_Pract_8,0,5,80,127,1551019356
36,12,24,Jits_Pract_8,1,5,63,98,1551108396
36,12,24,Jits_Pract_8,2,1,48,34,1551111288
36,12,24,Jits_Pract_8,3,5,56,103,1551118656
36,12,24,Jits_Pract_8,0,5,56,103,1551838688
36,12,24,Jits_Pract_8,1,1,48,41,1551839652
36,12,24,Jits_Pract_8,2,5,63,98,1551848952
36,12,24,Jits_Pract_8,3,5,80,127,1551939840
36,12,24,Jits_Pract_8,0,5,63,98,1552608716
36,12,24,Jits_Pract_8,1,1,48,48,1552631040
36,12,24,Jits_Pract_8,2,5,80,127,1552639456
36,12,24,Jits_Pract_8,3,5,56,103,1552668980
36,12,24,Jits_Pract_8,0,1,48,44,1553343464
36,12,24,Jits_Pract_8,1,5,56,103,1553409380
36,12,24,Jits_Pract_8,2,5,80,127,1553508940
36,12,24,Jits_Pract_8,3,5,63,98,1553558992
36,12,24,Jits_Pract_8,0,1,48,40,1554140240
36,12,24,Jits_Pract_8,1,5,56,103,1554209140
36,12,24,Jits_Pract_8,2,5,80,127,1554259328
36,12,24,Jits_Pract_8,3,5,63,98,1554299192
36,12,24,Jits_Pract_8,0,1,48,46,1554887924
36,12,24,Jits_Pract_8,1,5,80,127,1555038772
36,12,24,Jits_Pract_8,2,5,63,98,1555069272
36,12,24,Jits_Pract_8,3,5,56,103,1555138876
36,12,24,Jits_Pract_8,0,1,48,45,1555703876
36,12,24,Jits_Pract_8,1,5,63,98,1555869024
36,12,24,Jits_Pract_8,2,5,56,103,1555898776
36,12,24,Jits_Pract_8,3,5,80,127,1555959264
36,12,24,Jits_Pract_8,0,1,48,28,1556533084
36,12,24,Jits_Pract_8,1,5,56,103,1556609388
36,12,24,Jits_Pract_8,2,5,80,127,1556612304
36,12,24,Jits_Pract_8,3,5,63,98,1556729116
36,12,24,Jits_Pract_8,0,1,48,39,1557302484
36,12,24,Jits_Pract_8,1,5,56,103,1557489008
36,12,24,Jits_Pract_8,2,5,80,127,1557528948
36,12,24,Jits_Pract_8,3,5,63,98,1557539216
36,12,24,Jits_Pract_8,0,1,48,38,1558091680
36,12,24,Jits_Pract_8,1,5,56,103,1558248808
36,12,24,Jits_Pract_8,2,5,80,127,1558269368
36,12,24,Jits_Pract_8,3,5,63,98,1558349160
36,12,24,Jits_Pract_8,0,1,48,43,1558898868
36,12,24,Jits_Pract_8,1,5,80,127,1559039600
36,12,24,Jits_Pract_8,2,5,56,103,1559138724
36,12,24,Jits_Pract_8,3,5,63,98,1559148996
36,12,24,Jits_Pract_8,0,1,48,31,1559790952
36,12,24,Jits_Pract_8,1,5,63,98,1559809332
36,12,24,Jits_Pract_8,2,5,80,127,1559868828
36,12,24,Jits_Pract_8,3,5,56,103,1559879024
36,12,24,Jits_Pract_8,0,1,48,48,1560507144
36,12,24,Jits_Pract_8,1,5,56,103,1560609072
36,12,24,Jits_Pract_8,2,5,63,98,1560678672
36,12,24,Jits_Pract_8,3,5,80,127,1560682112
36,12,24,Jits_Pract_8,0,9999,9999,9999,1549867112
36,12,24,Jits_Pract_8,1,9999,9999,9999,1550677044
36,12,24,Jits_Pract_8,2,9999,9999,9999,1551476860
36,12,24,Jits_Pract_8,3,9999,9999,9999,1552276556
36,12,24,Jits_Pract_8,4,9999,9999,9999,1553076324
36,12,24,Jits_Pract_8,5,9999,9999,9999,1553877056
36,12,24,Jits_Pract_8,6,9999,9999,9999,1554676836
36,12,24,Jits_Pract_8,7,9999,9999,9999,1555476592
36,12,24,Jits_Pract_8,8,9999,9999,9999,1556276280
36,12,24,Jits_Pract_8,9,9999,9999,9999,1557077072
36,12,24,Jits_Pract_8,10,9999,9999,9999,1557876836
36,12,24,Jits_Pract_8,11,9999,9999,9999,1558676588
36,12,24,Jits_Pract_8,12,9999,9999,9999,1559476276
36,12,24,Jits_Pract_8,13,9999,9999,9999,1560277076
36,12,24,Jits_Pract_8,14,9999,9999,9999,1561076844
36,13,25,Jits_Pract_5,0,5,56,103,1567600024
36,13,25,Jits_Pract_5,1,5,63,98,1567603344
36,13,25,Jits_Pract_5,2,5,80,127,1567606316
36,13,25,Jits_Pract_5,0,5,56,103,1568099824
36,13,25,Jits_Pract_5,1,5,63,98,1568102696
36,13,25,Jits_Pract_5,2,5,80,127,1568106192
36,13,25,Jits_Pract_5,3,1,48,32,1568304196
36,13,25,Jits_Pract_5,0,5,56,103,1568600428
36,13,25,Jits_Pract_5,1,5,80,127,1568609504
36,13,25,Jits_Pract_5,2,5,63,98,1568630260
36,13,25,Jits_Pract_5,3,1,48,43,1568705436
36,13,25,Jits_Pract_5,0,5,63,98,1569050088
36,13,25,Jits_Pract_5,1,5,80,127,1569079544
36,13,25,Jits_Pract_5,2,5,56,103,1569090036
36,13,25,Jits_Pract_5,3,1,48,41,1569169048
36,13,25,Jits_Pract_5,0,1,48,44,1569601668
36,13,25,Jits_Pract_5,1,5,80,127,1569610084
36,13,25,Jits_Pract_5,2,5,56,103,1569620428
36,13,25,Jits_Pract_5,3,5,63,98,1569650180
36,13,25,Jits_Pract_5,0,5,63,98,1570099520
36,13,25,Jits_Pract_5,1,1,48,50,1570107520
36,13,25,Jits_Pract_5,2,5,56,103,1570130236
36,13,25,Jits_Pract_5,3,5,80,127,1570139464
36,13,25,Jits_Pract_5,0,5,56,103,1570550216
36,13,25,Jits_Pract_5,1,1,48,44,1570558740
36,13,25,Jits_Pract_5,2,5,63,98,1570600340
36,13,25,Jits_Pract_5,3,5,80,127,1570619752
36,13,25,Jits_Pract_5,0,5,80,127,1571050196
36,13,25,Jits_Pract_5,1,1,48,51,1571087964
36,13,25,Jits_Pract_5,2,5,63,98,1571100268
36,13,25,Jits_Pract_5,3,5,56,103,1571140060
36,13,25,Jits_Pract_5,0,1,48,43,1571504468
36,13,25,Jits_Pract_5,1,5,56,103,1571549528
36,13,25,Jits_Pract_5,2,5,63,98,1571580276
36,13,25,Jits_Pract_5,3,5,80,127,1571650088
36,13,25,Jits_Pract_5,0,5,56,103,1572050276
36,13,25,Jits_Pract_5,1,1,48,51,1572060140
36,13,25,Jits_Pract_5,2,5,80,127,1572109788
36,13,25,Jits_Pract_5,3,5,63,98,1572140436
36,13,25,Jits_Pract_5,0,1,48,37,1572511288
36,13,25,Jits_Pract_5,1,5,56,103,1572560092
36,13,25,Jits_Pract_5,2,5,63,98,1572569464
36,13,25,Jits_Pract_5,3,5,80,127,1572610308
36,13,25,Jits_Pract_5,0,1,48,41,1573022892
36,13,25,Jits_Pract_5,1,5,63,98,1573049816
36,13,25,Jits_Pract_5,2,5,80,127,1573129548
36,13,25,Jits_Pract_5,3,5,56,103,1573140040
36,13,25,Jits_Pract_5,0,1,48,35,1573519280
36,13,25,Jits_Pract_5,1,5,63,98,1573599624
36,13,25,Jits_Pract_5,2,5,56,103,1573639496
36,13,25,Jits_Pract_5,3,5,80,127,1573642488
36,13,25,Jits_Pract_5,0,1,48,42,1574059076
36,13,25,Jits_Pract_5,1,5,56,103,1574061020
36,13,25,Jits_Pract_5,2,5,63,98,1574069500
36,13,25,Jits_Pract_5,3,5,80,127,1574109512
36,13,25,Jits_Pract_5,0,1,48,42,1574532364
36,13,25,Jits_Pract_5,1,5,56,103,1574550144
36,13,25,Jits_Pract_5,2,5,63,98,1574553136
36,13,25,Jits_Pract_5,3,5,80,127,1574570308
36,13,25,Jits_Pract_5,0,9999,9999,9999,1567847536
36,13,25,Jits_Pract_5,1,9999,9999,9999,1568347256
36,13,25,Jits_Pract_5,2,9999,9999,9999,1568847924
36,13,25,Jits_Pract_5,3,9999,9999,9999,1569347700
36,13,25,Jits_Pract_5,4,9999,9999,9999,1569847396
36,13,25,Jits_Pract_5,5,9999,9999,9999,1570347092
36,13,25,Jits_Pract_5,6,9999,9999,9999,1570847832
36,13,25,Jits_Pract_5,7,9999,9999,9999,1571347540
36,13,25,Jits_Pract_5,8,9999,9999,9999,1571847252
36,13,25,Jits_Pract_5,9,9999,9999,9999,1572347992
36,13,25,Jits_Pract_5,10,9999,9999,9999,1572847696
36,13,25,Jits_Pract_5,11,9999,9999,9999,1573347440
36,13,25,Jits_Pract_5,12,9999,9999,9999,1573847120
36,13,25,Jits_Pract_5,13,9999,9999,9999,1574347852
36,13,25,Jits_Pract_5,14,9999,9999,9999,1574847604
36,14,18,Jits_Linear_8,0,5,56,103,1603967260
36,14,18,Jits_Linear_8,1,5,63,98,1603970508
36,14,18,Jits_Linear_8,2,5,80,127,1603973628
36,14,18,Jits_Linear_8,3,1,48,26,1604357152
36,14,18,Jits_Linear_8,0,5,56,103,1604786788
36,14,18,Jits_Linear_8,1,5,63,98,1604789816
36,14,18,Jits_Linear_8,2,5,80,127,1604792932
36,14,18,Jits_Linear_8,3,1,48,35,1604986080
36,14,18,Jits_Linear_8,0,5,80,127,1605547372
36,14,18,Jits_Linear_8,1,5,63,98,1605636632
36,14,18,Jits_Linear_8,2,5,56,103,1605646756
36,14,18,Jits_Linear_8,3,1,48,38,1605675280
36,14,18,Jits_Linear_8,0,5,56,103,1606387024
36,14,18,Jits_Linear_8,1,5,63,98,1606397296
36,14,18,Jits_Linear_8,2,1,48,41,1606412096
36,14,18,Jits_Linear_8,3,5,80,127,1606487424
36,14,18,Jits_Linear_8,0,1,48,39,1607168700
36,14,18,Jits_Linear_8,1,5,63,98,1607176668
36,14,18,Jits_Linear_8,2,5,80,127,1607207168
36,14,18,Jits_Linear_8,3,5,56,103,1607237068
36,14,18,Jits_Linear_8,0,1,48,38,1607997168
36,14,18,Jits_Linear_8,1,5,56,103,1607998432
36,14,18,Jits_Linear_8,2,5,80,127,1608097100
36,14,18,Jits_Linear_8,3,5,63,98,1608147524
36,14,18,Jits_Linear_8,0,5,56,103,1608806744
36,14,18,Jits_Linear_8,1,1,48,33,1608833380
36,14,18,Jits_Linear_8,2,5,80,127,1608856944
36,14,18,Jits_Linear_8,3,5,63,98,1608896808
36,14,18,Jits_Linear_8,0,5,80,127,1609646592
36,14,18,Jits_Linear_8,1,1,48,39,1609649112
36,14,18,Jits_Linear_8,2,5,63,98,1609677160
36,14,18,Jits_Linear_8,3,5,56,103,1609746780
36,14,18,Jits_Linear_8,0,1,48,40,1610439208
36,14,18,Jits_Linear_8,1,5,63,98,1610487288
36,14,18,Jits_Linear_8,2,5,56,103,1610516964
36,14,18,Jits_Linear_8,3,5,80,127,1610577188
36,14,18,Jits_Linear_8,0,5,56,103,1611236676
36,14,18,Jits_Linear_8,1,5,80,127,1611239816
36,14,18,Jits_Linear_8,2,1,48,35,1611324468
36,14,18,Jits_Linear_8,3,5,63,98,1611356572
36,14,18,Jits_Linear_8,0,1,48,32,1612039120
36,14,18,Jits_Linear_8,1,5,56,103,1612117444
36,14,18,Jits_Linear_8,2,5,80,127,1612157224
36,14,18,Jits_Linear_8,3,5,63,98,1612166448
36,14,18,Jits_Linear_8,0,1,48,38,1612816188
36,14,18,Jits_Linear_8,1,5,56,103,1612877276
36,14,18,Jits_Linear_8,2,5,80,127,1612896612
36,14,18,Jits_Linear_8,3,5,63,98,1612976692
36,14,18,Jits_Linear_8,0,1,48,39,1613625536
36,14,18,Jits_Linear_8,1,5,80,127,1613666616
36,14,18,Jits_Linear_8,2,5,56,103,1613767000
36,14,18,Jits_Linear_8,3,5,63,98,1613777420
36,14,18,Jits_Linear_8,0,5,63,98,1614436784
36,14,18,Jits_Linear_8,1,5,80,127,1614497328
36,14,18,Jits_Linear_8,2,1,48,40,1614506620
36,14,18,Jits_Linear_8,3,5,56,103,1614508416
36,14,18,Jits_Linear_8,0,1,48,45,1615155440
36,14,18,Jits_Linear_8,1,5,56,103,1615236452
36,14,18,Jits_Linear_8,2,5,63,98,1615307392
36,14,18,Jits_Linear_8,3,5,80,127,1615310684
36,14,18,Jits_Linear_8,0,1,48,40,1615947756
36,14,18,Jits_Linear_8,1,5,63,98,1616066900
36,14,18,Jits_Linear_8,2,5,56,103,1616117048
36,14,18,Jits_Linear_8,3,5,80,127,1616120192
36,14,18,Jits_Linear_8,0,1,48,39,1616750344
36,14,18,Jits_Linear_8,1,5,56,103,1616816460
36,14,18,Jits_Linear_8,2,5,80,127,1616819524
36,14,18,Jits_Linear_8,3,5,63,98,1616906676
36,14,18,Jits_Linear_8,0,1,48,28,1617539152
36,14,18,Jits_Linear_8,1,5,63,98,1617647148
36,14,18,Jits_Linear_8,2,5,56,103,1617737212
36,14,18,Jits_Linear_8,3,5,80,127,1617766740
36,14,18,Jits_Linear_8,0,1,48,48,1618327076
36,14,18,Jits_Linear_8,1,5,56,103,1618427208
36,14,18,Jits_Linear_8,2,5,63,98,1618526488
36,14,18,Jits_Linear_8,3,5,80,127,1618557356
36,14,18,Jits_Linear_8,0,1,48,48,1619081944
36,14,18,Jits_Linear_8,1,5,63,98,1619237204
36,14,18,Jits_Linear_8,2,5,56,103,1619246352
36,14,18,Jits_Linear_8,3,5,80,127,1619336564
36,14,18,Jits_Linear_8,0,1,48,46,1619893136
36,14,18,Jits_Linear_8,1,5,63,98,1620037260
36,14,18,Jits_Linear_8,2,5,56,103,1620116756
36,14,18,Jits_Linear_8,3,5,80,127,1620120128
36,14,18,Jits_Linear_8,0,5,80,127,1620777320
36,14,18,Jits_Linear_8,1,5,63,98,1620796812
36,14,18,Jits_Linear_8,2,5,56,103,1620857200
36,14,18,Jits_Linear_8,0,1,48,32,1621545624
36,14,18,Jits_Linear_8,1,5,56,103,1621596448
36,14,18,Jits_Linear_8,2,5,63,98,1621617284
36,14,18,Jits_Linear_8,3,5,80,127,1621620492
36,14,18,Jits_Linear_8,0,5,63,98,1622317452
36,14,18,Jits_Linear_8,1,1,48,50,1622363868
36,14,18,Jits_Linear_8,2,5,80,127,1622397244
36,14,18,Jits_Linear_8,3,5,56,103,1622406392
36,14,18,Jits_Linear_8,0,1,48,43,1623066452
36,14,18,Jits_Linear_8,1,5,63,98,1623117124
36,14,18,Jits_Linear_8,2,5,56,103,1623136536
36,14,18,Jits_Linear_8,3,5,80,127,1623187096
36,14,18,Jits_Linear_8,0,1,48,43,1623784840
36,14,18,Jits_Linear_8,1,5,80,127,1623896332
36,14,18,Jits_Linear_8,2,5,63,98,1623937320
36,14,18,Jits_Linear_8,3,5,56,103,1623957028
36,14,18,Jits_Linear_8,0,1,48,47,1624492176
36,14,18,Jits_Linear_8,1,5,56,103,1624706276
36,14,18,Jits_Linear_8,2,5,63,98,1624716844
36,14,18,Jits_Linear_8,3,5,80,127,1624737080
36,14,18,Jits_Linear_8,0,5,56,103,1625407004
36,14,18,Jits_Linear_8,1,5,63,98,1625497064
36,14,18,Jits_Linear_8,2,1,48,33,1625526784
36,14,18,Jits_Linear_8,3,5,80,127,1625557224
36,14,18,Jits_Linear_8,0,1,48,48,1626189960
36,14,18,Jits_Linear_8,1,5,80,127,1626206472
36,14,18,Jits_Linear_8,2,5,56,103,1626217040
36,14,18,Jits_Linear_8,3,5,63,98,1626286480
36,14,18,Jits_Linear_8,0,1,48,37,1626915468
36,14,18,Jits_Linear_8,1,5,63,98,1627007272
36,14,18,Jits_Linear_8,2,5,80,127,1627096496
36,14,18,Jits_Linear_8,3,5,56,103,1627106764
36,14,18,Jits_Linear_8,0,1,48,44,1627667424
36,14,18,Jits_Linear_8,1,5,63,98,1627707084
36,14,18,Jits_Linear_8,2,5,80,127,1627756992
36,14,18,Jits_Linear_8,3,5,56,103,1627817220
36,14,18,Jits_Linear_8,0,1,48,32,1628334156
36,14,18,Jits_Linear_8,1,5,56,103,1628497160
36,14,18,Jits_Linear_8,2,5,80,127,1628546392
36,14,18,Jits_Linear_8,3,5,63,98,1628567000
36,14,18,Jits_Linear_8,0,1,48,40,1629169084
36,14,18,Jits_Linear_8,1,5,56,103,1629227476
36,14,18,Jits_Linear_8,2,5,80,127,1629286880
36,14,18,Jits_Linear_8,3,5,63,98,1629357536
36,14,18,Jits_Linear_8,0,1,48,36,1629966896
36,14,18,Jits_Linear_8,1,5,56,103,1629987072
36,14,18,Jits_Linear_8,2,5,80,127,1630016824
36,14,18,Jits_Linear_8,3,5,63,98,1630046796
36,14,18,Jits_Linear_8,0,1,48,37,1630764088
36,14,18,Jits_Linear_8,1,5,56,103,1630786972
36,14,18,Jits_Linear_8,2,5,80,127,1630807284
36,14,18,Jits_Linear_8,3,5,63,98,1630866836
36,14,18,Jits_Linear_8,0,1,48,45,1631443184
36,14,18,Jits_Linear_8,1,5,80,127,1631626716
36,14,18,Jits_Linear_8,2,5,56,103,1631636840
36,14,18,Jits_Linear_8,3,5,63,98,1631647036
36,14,18,Jits_Linear_8,0,1,48,45,1632263800
36,14,18,Jits_Linear_8,1,5,56,103,1632337116
36,14,18,Jits_Linear_8,2,5,80,127,1632377192
36,14,18,Jits_Linear_8,3,5,63,98,1632407016
36,14,18,Jits_Linear_8,0,5,56,103,1633057016
36,14,18,Jits_Linear_8,1,1,48,50,1633073984
36,14,18,Jits_Linear_8,2,5,63,98,1633086836
36,14,18,Jits_Linear_8,3,5,80,127,1633126700
36,14,18,Jits_Linear_8,0,5,80,127,1633756592
36,14,18,Jits_Linear_8,1,5,63,98,1633806672
36,14,18,Jits_Linear_8,2,5,56,103,1633827132
36,14,18,Jits_Linear_8,3,1,48,51,1633854140
36,14,18,Jits_Linear_8,0,5,56,103,1634536756
36,14,18,Jits_Linear_8,1,1,48,52,1634539348
36,14,18,Jits_Linear_8,2,5,80,127,1634606732
36,14,18,Jits_Linear_8,3,5,63,98,1634666956
36,14,18,Jits_Linear_8,0,5,80,127,1635277092
36,14,18,Jits_Linear_8,1,1,48,49,1635307140
36,14,18,Jits_Linear_8,2,5,63,98,1635367324
36,14,18,Jits_Linear_8,3,5,56,103,1635386588
36,14,18,Jits_Linear_8,0,1,48,52,1636001532
36,14,18,Jits_Linear_8,1,5,63,98,1636037152
36,14,18,Jits_Linear_8,2,5,56,103,1636056420
36,14,18,Jits_Linear_8,3,5,80,127,1636097412
36,14,18,Jits_Linear_8,0,5,80,127,1636737416
36,14,18,Jits_Linear_8,1,5,63,98,1636756976
36,14,18,Jits_Linear_8,2,1,48,34,1636758464
36,14,18,Jits_Linear_8,3,5,56,103,1636836692
36,14,18,Jits_Linear_8,0,5,63,98,1637466656
36,14,18,Jits_Linear_8,1,1,48,54,1637502956
36,14,18,Jits_Linear_8,2,5,56,103,1637577016
36,14,18,Jits_Linear_8,3,5,80,127,1637580008
36,14,18,Jits_Linear_8,0,5,63,98,1638227592
36,14,18,Jits_Linear_8,1,5,56,103,1638236516
36,14,18,Jits_Linear_8,2,5,80,127,1638239656
36,14,18,Jits_Linear_8,3,1,48,50,1638280012
36,14,18,Jits_Linear_8,0,5,56,103,1638947392
36,14,18,Jits_Linear_8,1,1,48,53,1638972012
36,14,18,Jits_Linear_8,2,5,80,127,1639067116
36,14,18,Jits_Linear_8,3,5,63,98,1639107040
36,14,18,Jits_Linear_8,0,1,48,46,1639692360
36,14,18,Jits_Linear_8,1,5,56,103,1639696736
36,14,18,Jits_Linear_8,2,5,80,127,1639776536
36,14,18,Jits_Linear_8,3,5,63,98,1639797056
36,14,18,Jits_Linear_8,0,5,56,103,1640426824
36,14,18,Jits_Linear_8,1,1,48,35,1640453832
36,14,18,Jits_Linear_8,2,5,63,98,1640536652
36,14,18,Jits_Linear_8,3,5,80,127,1640539868
36,14,18,Jits_Linear_8,0,1,48,40,1641104708
36,14,18,Jits_Linear_8,1,5,56,103,1641186772
36,14,18,Jits_Linear_8,2,5,80,127,1641217356
36,14,18,Jits_Linear_8,3,5,63,98,1641236992
36,14,18,Jits_Linear_8,0,1,48,44,1641876440
36,14,18,Jits_Linear_8,1,5,63,98,1641897516
36,14,18,Jits_Linear_8,2,5,56,103,1641906440
36,14,18,Jits_Linear_8,3,5,80,127,1641916712
36,14,18,Jits_Linear_8,0,1,48,45,1642570920
36,14,18,Jits_Linear_8,1,5,80,127,1642606912
36,14,18,Jits_Linear_8,2,5,56,103,1642657264
36,14,18,Jits_Linear_8,3,5,63,98,1642697260
36,14,18,Jits_Linear_8,0,1,48,49,1643315316
36,14,18,Jits_Linear_8,1,5,80,127,1643347400
36,14,18,Jits_Linear_8,2,5,63,98,1643366664
36,14,18,Jits_Linear_8,3,5,56,103,1643417000
36,14,18,Jits_Linear_8,0,1,48,47,1644047852
36,14,18,Jits_Linear_8,1,5,80,127,1644077324
36,14,18,Jits_Linear_8,2,5,56,103,1644107444
36,14,18,Jits_Linear_8,3,5,63,98,1644176736
36,14,18,Jits_Linear_8,0,1,48,43,1644769960
36,14,18,Jits_Linear_8,1,5,56,103,1644846440
36,14,18,Jits_Linear_8,2,5,80,127,1644856564
36,14,18,Jits_Linear_8,3,5,63,98,1644896560
36,14,18,Jits_Linear_8,0,5,56,103,1645477228
36,14,18,Jits_Linear_8,1,5,63,98,1645496644
36,14,18,Jits_Linear_8,2,1,48,48,1645530700
36,14,18,Jits_Linear_8,3,5,80,127,1645567388
36,14,18,Jits_Linear_8,0,1,48,46,1646097296
36,14,18,Jits_Linear_8,1,5,63,98,1646216588
36,14,18,Jits_Linear_8,2,5,80,127,1646277132
36,14,18,Jits_Linear_8,3,5,56,103,1646296320
36,14,18,Jits_Linear_8,0,1,48,42,1646842580
36,14,18,Jits_Linear_8,1,5,80,127,1646917088
36,14,18,Jits_Linear_8,2,5,56,103,1646946600
36,14,18,Jits_Linear_8,3,5,63,98,1646977324
36,14,18,Jits_Linear_8,0,1,48,33,1647529924
36,14,18,Jits_Linear_8,1,5,56,103,1647626556
36,14,18,Jits_Linear_8,2,5,63,98,1647687160
36,14,18,Jits_Linear_8,3,5,80,127,1647746352
36,14,18,Jits_Linear_8,0,1,48,47,1648248172
36,14,18,Jits_Linear_8,1,5,80,127,1648356600
36,14,18,Jits_Linear_8,2,5,56,103,1648377156
36,14,18,Jits_Linear_8,3,5,63,98,1648446688
36,14,18,Jits_Linear_8,0,1,48,40,1648997880
36,14,18,Jits_Linear_8,1,5,80,127,1649067432
36,14,18,Jits_Linear_8,2,5,63,98,1649086920
36,14,18,Jits_Linear_8,3,5,56,103,1649116432
36,14,18,Jits_Linear_8,0,1,48,51,1649642380
36,14,18,Jits_Linear_8,1,5,80,127,1649756516
36,14,18,Jits_Linear_8,2,5,63,98,1649777272
36,14,18,Jits_Linear_8,3,5,56,103,1649837368
36,14,18,Jits_Linear_8,0,1,48,45,1650435036
36,14,18,Jits_Linear_8,1,5,80,127,1650457384
36,14,18,Jits_Linear_8,2,5,56,103,1650557176
36,14,18,Jits_Linear_8,3,5,63,98,1650587072
36,14,18,Jits_Linear_8,0,1,48,41,1651121632
36,14,18,Jits_Linear_8,1,5,63,98,1651147064
36,14,18,Jits_Linear_8,2,5,80,127,1651197216
36,14,18,Jits_Linear_8,3,5,56,103,1651216988
36,14,18,Jits_Linear_8,0,1,48,48,1651791548
36,14,18,Jits_Linear_8,1,5,80,127,1651886436
36,14,18,Jits_Linear_8,2,5,56,103,1651917140
36,14,18,Jits_Linear_8,3,5,63,98,1651920284
36,14,18,Jits_Linear_8,0,1,48,44,1652541924
36,14,18,Jits_Linear_8,1,5,63,98,1652616656
36,14,18,Jits_Linear_8,2,5,56,103,1652656504
36,14,18,Jits_Linear_8,3,5,80,127,1652677188
36,14,18,Jits_Linear_8,0,1,48,44,1653249612
36,14,18,Jits_Linear_8,1,5,80,127,1653256532
36,14,18,Jits_Linear_8,2,5,63,98,1653336332
36,14,18,Jits_Linear_8,3,5,56,103,1653377452
36,14,18,Jits_Linear_8,0,5,63,98,1653967192
36,14,18,Jits_Linear_8,1,1,48,44,1653973972
36,14,18,Jits_Linear_8,2,5,80,127,1654047084
36,14,18,Jits_Linear_8,3,5,56,103,1654066420
36,14,18,Jits_Linear_8,0,5,56,103,1654697424
36,14,18,Jits_Linear_8,1,5,63,98,1654706428
36,14,18,Jits_Linear_8,2,1,48,49,1654728352
36,14,18,Jits_Linear_8,3,5,80,127,1654746508
36,14,18,Jits_Linear_8,0,5,56,103,1655306752
36,14,18,Jits_Linear_8,1,5,80,127,1655309816
36,14,18,Jits_Linear_8,2,1,48,58,1655354904
36,14,18,Jits_Linear_8,3,5,63,98,1655447056
36,14,18,Jits_Linear_8,0,5,56,103,1655986536
36,14,18,Jits_Linear_8,1,5,63,98,1656076848
36,14,18,Jits_Linear_8,2,1,48,51,1656118176
36,14,18,Jits_Linear_8,3,5,80,127,1656147272
36,14,18,Jits_Linear_8,0,1,48,56,1656711728
36,14,18,Jits_Linear_8,1,5,63,98,1656747496
36,14,18,Jits_Linear_8,2,5,80,127,1656750860
36,14,18,Jits_Linear_8,3,5,56,103,1656806940
36,14,18,Jits_Linear_8,0,1,48,53,1657361336
36,14,18,Jits_Linear_8,1,5,80,127,1657467224
36,14,18,Jits_Linear_8,2,5,56,103,1657486636
36,14,18,Jits_Linear_8,3,5,63,98,1657496908
36,14,18,Jits_Linear_8,0,1,48,38,1658051020
36,14,18,Jits_Linear_8,1,5,56,103,1658056972
36,14,18,Jits_Linear_8,2,5,63,98,1658067244
36,14,18,Jits_Linear_8,3,5,80,127,1658136876
36,14,18,Jits_Linear_8,0,1,48,40,1658737008
36,14,18,Jits_Linear_8,1,5,80,127,1658738644
36,14,18,Jits_Linear_8,2,5,56,103,1658787132
36,14,18,Jits_Linear_8,3,5,63,98,1658837320
36,14,18,Jits_Linear_8,0,1,48,39,1659383060
36,14,18,Jits_Linear_8,1,5,56,103,1659496816
36,14,18,Jits_Linear_8,2,5,63,98,1659507012
36,14,18,Jits_Linear_8,3,5,80,127,1659546952
36,14,18,Jits_Linear_8,0,1,48,41,1660095304
36,14,18,Jits_Linear_8,1,5,56,103,1660117280
36,14,18,Jits_Linear_8,2,5,63,98,1660157244
36,14,18,Jits_Linear_8,3,5,80,127,1660206684
36,14,18,Jits_Linear_8,0,1,48,39,1660732476
36,14,18,Jits_Linear_8,1,5,80,127,1660747044
36,14,18,Jits_Linear_8,2,5,56,103,1660797172
36,14,18,Jits_Linear_8,3,5,63,98,1660816880
36,14,18,Jits_Linear_8,0,1,48,38,1661412328
36,14,18,Jits_Linear_8,1,5,80,127,1661427000
36,14,18,Jits_Linear_8,2,5,63,98,1661486720
36,14,18,Jits_Linear_8,3,5,56,103,1661567768
36,14,18,Jits_Linear_8,0,1,48,44,1662072808
36,14,18,Jits_Linear_8,1,5,80,127,1662077412
36,14,18,Jits_Linear_8,2,5,56,103,1662117132
36,14,18,Jits_Linear_8,3,5,63,98,1662136840
36,14,18,Jits_Linear_8,0,1,48,37,1662689508
36,14,18,Jits_Linear_8,1,5,56,103,1662797064
36,14,18,Jits_Linear_8,2,5,80,127,1662807708
36,14,18,Jits_Linear_8,3,5,63,98,1662847496
36,14,18,Jits_Linear_8,0,1,48,29,1663478812
36,14,18,Jits_Linear_8,1,5,56,103,1663527236
36,14,18,Jits_Linear_8,2,5,63,98,1663567396
36,14,18,Jits_Linear_8,3,5,80,127,1663570760
36,14,18,Jits_Linear_8,0,5,63,98,1664077184
36,14,18,Jits_Linear_8,1,5,80,127,1664117052
36,14,18,Jits_Linear_8,2,1,48,43,1664118688
36,14,18,Jits_Linear_8,3,5,56,103,1664186724
36,14,18,Jits_Linear_8,0,5,63,98,1664727660
36,14,18,Jits_Linear_8,1,5,56,103,1664807632
36,14,18,Jits_Linear_8,2,1,48,32,1664819896
36,14,18,Jits_Linear_8,3,5,80,127,1664866524
36,14,18,Jits_Linear_8,0,5,80,127,1665396980
36,14,18,Jits_Linear_8,1,5,63,98,1665447484
36,14,18,Jits_Linear_8,2,5,56,103,1665476936
36,14,18,Jits_Linear_8,3,1,48,43,1665493236
36,14,18,Jits_Linear_8,0,5,56,103,1666047576
36,14,18,Jits_Linear_8,1,5,63,98,1666096588
36,14,18,Jits_Linear_8,2,5,80,127,1666106784
36,14,18,Jits_Linear_8,0,5,56,103,1666716992
36,14,18,Jits_Linear_8,1,1,48,35,1666726040
36,14,18,Jits_Linear_8,2,5,63,98,1666826540
36,14,18,Jits_Linear_8,3,5,80,127,1666847148
36,14,18,Jits_Linear_8,0,5,63,98,1667367376
36,14,18,Jits_Linear_8,1,1,48,28,1667391700
36,14,18,Jits_Linear_8,2,5,80,127,1667416528
36,14,18,Jits_Linear_8,3,5,56,103,1667506496
36,14,18,Jits_Linear_8,0,5,63,98,1668007376
36,14,18,Jits_Linear_8,1,1,48,32,1668012512
36,14,18,Jits_Linear_8,2,5,80,127,1668036896
36,14,18,Jits_Linear_8,3,5,56,103,1668127260
36,14,18,Jits_Linear_8,0,5,63,98,1668666800
36,14,18,Jits_Linear_8,1,5,56,103,1668676848
36,14,18,Jits_Linear_8,2,1,48,42,1668766276
36,14,18,Jits_Linear_8,3,5,80,127,1668777312
36,14,18,Jits_Linear_8,0,1,48,43,1669299348
36,14,18,Jits_Linear_8,1,5,63,98,1669417536
36,14,18,Jits_Linear_8,2,5,80,127,1669447216
36,14,18,Jits_Linear_8,3,5,56,103,1669476592
36,14,18,Jits_Linear_8,0,5,80,127,1670076676
36,14,18,Jits_Linear_8,1,1,48,38,1670078088
36,14,18,Jits_Linear_8,2,5,63,98,1670087460
36,14,18,Jits_Linear_8,3,5,56,103,1670116788
36,14,18,Jits_Linear_8,0,5,80,127,1670616456
36,14,18,Jits_Linear_8,1,5,63,98,1670636864
36,14,18,Jits_Linear_8,2,5,56,103,1670687512
36,14,18,Jits_Linear_8,3,1,48,46,1670753336
36,14,18,Jits_Linear_8,0,1,48,21,1671277212
36,14,18,Jits_Linear_8,1,5,63,98,1671287276
36,14,18,Jits_Linear_8,2,5,80,127,1671346548
36,14,18,Jits_Linear_8,3,5,56,103,1671367304
36,14,18,Jits_Linear_8,0,5,63,98,1671887276
36,14,18,Jits_Linear_8,1,5,56,103,1671937356
36,14,18,Jits_Linear_8,2,5,80,127,1671946504
36,14,18,Jits_Linear_8,3,1,48,24,1671979664
36,14,18,Jits_Linear_8,0,1,48,26,1672539776
36,14,18,Jits_Linear_8,1,5,56,103,1672557036
36,14,18,Jits_Linear_8,2,5,80,127,1672567380
36,14,18,Jits_Linear_8,3,5,63,98,1672666416
36,14,18,Jits_Linear_8,0,5,80,127,1673157036
36,14,18,Jits_Linear_8,1,5,63,98,1673167156
36,14,18,Jits_Linear_8,2,1,48,25,1673179568
36,14,18,Jits_Linear_8,3,5,56,103,1673316704
36,14,18,Jits_Linear_8,0,1,48,31,1673782048
36,14,18,Jits_Linear_8,1,5,63,98,1673797068
36,14,18,Jits_Linear_8,2,5,80,127,1673837084
36,14,18,Jits_Linear_8,3,5,56,103,1673916716
36,14,18,Jits_Linear_8,0,1,48,40,1674367888
36,14,18,Jits_Linear_8,1,5,56,103,1674416616
36,14,18,Jits_Linear_8,2,5,80,127,1674517100
36,14,18,Jits_Linear_8,3,5,63,98,1674537260
36,14,18,Jits_Linear_8,0,1,48,49,1675087412
36,14,18,Jits_Linear_8,1,5,80,127,1675106692
36,14,18,Jits_Linear_8,2,5,56,103,1675117188
36,14,18,Jits_Linear_8,3,5,63,98,1675207232
36,14,18,Jits_Linear_8,0,1,48,52,1675671296
36,14,18,Jits_Linear_8,1,5,56,103,1675736364
36,14,18,Jits_Linear_8,2,5,63,98,1675757072
36,14,18,Jits_Linear_8,3,5,80,127,1675837076
36,14,18,Jits_Linear_8,0,1,48,57,1676307964
36,14,18,Jits_Linear_8,1,5,63,98,1676327392
36,14,18,Jits_Linear_8,2,5,56,103,1676417368
36,14,18,Jits_Linear_8,3,5,80,127,1676420432
36,14,18,Jits_Linear_8,0,1,48,54,1676957100
36,14,18,Jits_Linear_8,1,5,56,103,1676976456
36,14,18,Jits_Linear_8,2,5,80,127,1677037172
36,14,18,Jits_Linear_8,3,5,63,98,1677047144
36,14,18,Jits_Linear_8,0,1,48,52,1677624928
36,14,18,Jits_Linear_8,1,5,80,127,1677647204
36,14,18,Jits_Linear_8,2,5,56,103,1677656424
36,14,18,Jits_Linear_8,3,5,63,98,1677659568
36,14,18,Jits_Linear_8,0,5,56,103,1678226892
36,14,18,Jits_Linear_8,1,5,80,127,1678237164
36,14,18,Jits_Linear_8,2,5,63,98,1678256352
36,14,18,Jits_Linear_8,3,1,48,51,1678294388
36,14,18,Jits_Linear_8,0,5,63,98,1678816556
36,14,18,Jits_Linear_8,1,1,48,49,1678872816
36,14,18,Jits_Linear_8,2,5,80,127,1678877116
36,14,18,Jits_Linear_8,3,5,56,103,1678927316
36,14,18,Jits_Linear_8,0,1,48,43,1679451896
36,14,18,Jits_Linear_8,1,5,63,98,1679517040
36,14,18,Jits_Linear_8,2,5,56,103,1679527236
36,14,18,Jits_Linear_8,3,5,80,127,1679576300
36,14,18,Jits_Linear_8,0,5,63,98,1680027060
36,14,18,Jits_Linear_8,1,1,48,48,1680044504
36,14,18,Jits_Linear_8,2,5,80,127,1680046392
36,14,18,Jits_Linear_8,3,5,56,103,1680056812
36,14,18,Jits_Linear_8,0,1,48,46,1680589172
36,14,18,Jits_Linear_8,1,5,63,98,1680637248
36,14,18,Jits_Linear_8,2,5,80,127,1680640684
36,14,18,Jits_Linear_8,3,5,56,103,1680677332
36,14,18,Jits_Linear_8,0,1,48,52,1681173272
36,14,18,Jits_Linear_8,1,5,63,98,1681317300
36,14,18,Jits_Linear_8,2,5,80,127,1681346976
36,14,18,Jits_Linear_8,3,5,56,103,1681357024
36,14,18,Jits_Linear_8,0,1,48,39,1681866636
36,14,18,Jits_Linear_8,1,5,56,103,1681877448
36,14,18,Jits_Linear_8,2,5,80,127,1681906928
36,14,18,Jits_Linear_8,3,5,63,98,1681936752
36,14,18,Jits_Linear_8,0,1,48,37,1682450308
36,14,18,Jits_Linear_8,1,5,63,98,1682576872
36,14,18,Jits_Linear_8,2,5,56,103,1682616884
36,14,18,Jits_Linear_8,3,5,80,127,1682619804
36,14,18,Jits_Linear_8,0,5,80,127,1683076416
36,14,18,Jits_Linear_8,1,5,56,103,1683157780
36,14,18,Jits_Linear_8,2,1,48,44,1683199956
36,14,18,Jits_Linear_8,3,5,63,98,1683206508
36,14,18,Jits_Linear_8,0,5,80,127,1683657016
36,14,18,Jits_Linear_8,1,5,56,103,1683676804
36,14,18,Jits_Linear_8,2,5,63,98,1683766660
36,14,18,Jits_Linear_8,3,1,48,44,1683845304
36,14,18,Jits_Linear_8,0,5,80,127,1684297128
36,14,18,Jits_Linear_8,1,1,48,36,1684324212
36,14,18,Jits_Linear_8,2,5,63,98,1684337064
36,14,18,Jits_Linear_8,3,5,56,103,1684377076
36,14,18,Jits_Linear_8,0,5,63,98,1684866420
36,14,18,Jits_Linear_8,1,1,48,42,1684896816
36,14,18,Jits_Linear_8,2,5,80,127,1684926952
36,14,18,Jits_Linear_8,3,5,56,103,1684956704
36,14,18,Jits_Linear_8,0,1,48,52,1685454000
36,14,18,Jits_Linear_8,1,5,56,103,1685466624
36,14,18,Jits_Linear_8,2,5,80,127,1685497148
36,14,18,Jits_Linear_8,3,5,63,98,1685587264
36,14,18,Jits_Linear_8,0,1,48,33,1686022100
36,14,18,Jits_Linear_8,1,5,56,103,1686066492
36,14,18,Jits_Linear_8,2,5,80,127,1686176992
36,14,18,Jits_Linear_8,3,5,63,98,1686206816
36,14,18,Jits_Linear_8,0,5,56,103,1686706580
36,14,18,Jits_Linear_8,1,1,48,48,1686718092
36,14,18,Jits_Linear_8,2,5,63,98,1686766916
36,14,18,Jits_Linear_8,3,5,80,127,1686796816
36,14,18,Jits_Linear_8,0,5,56,103,1687266656
36,14,18,Jits_Linear_8,1,1,48,38,1687321096
36,14,18,Jits_Linear_8,2,5,63,98,1687337308
36,14,18,Jits_Linear_8,3,5,80,127,1687356720
36,14,18,Jits_Linear_8,0,5,80,127,1687826736
36,14,18,Jits_Linear_8,1,5,63,98,1687847564
36,14,18,Jits_Linear_8,2,1,48,49,1687868968
36,14,18,Jits_Linear_8,3,5,56,103,1687896564
36,14,18,Jits_Linear_8,0,1,48,49,1688418392
36,14,18,Jits_Linear_8,1,5,63,98,1688437216
36,14,18,Jits_Linear_8,2,5,80,127,1688447636
36,14,18,Jits_Linear_8,3,5,56,103,1688496496
36,14,18,Jits_Linear_8,0,1,48,50,1689005348
36,14,18,Jits_Linear_8,1,5,63,98,1689016828
36,14,18,Jits_Linear_8,2,5,80,127,1689087508
36,14,18,Jits_Linear_8,3,5,56,103,1689106760
36,14,18,Jits_Linear_8,0,1,48,39,1689574724
36,14,18,Jits_Linear_8,1,5,63,98,1689626960
36,14,18,Jits_Linear_8,2,5,80,127,1689630476
36,14,18,Jits_Linear_8,3,5,56,103,1689696704
36,14,18,Jits_Linear_8,0,5,80,127,1690157576
36,14,18,Jits_Linear_8,1,1,48,40,1690165500
36,14,18,Jits_Linear_8,2,5,56,103,1690176832
36,14,18,Jits_Linear_8,3,5,63,98,1690187104
36,14,18,Jits_Linear_8,0,1,48,48,1690730872
36,14,18,Jits_Linear_8,1,5,56,103,1690756524
36,14,18,Jits_Linear_8,2,5,63,98,1690846644
36,14,18,Jits_Linear_8,3,5,80,127,1690849936
36,14,18,Jits_Linear_8,0,1,48,54,1691304628
36,14,18,Jits_Linear_8,1,5,80,127,1691307664
36,14,18,Jits_Linear_8,2,5,56,103,1691316588
36,14,18,Jits_Linear_8,3,5,63,98,1691336972
36,14,18,Jits_Linear_8,0,5,63,98,1691876740
36,14,18,Jits_Linear_8,1,1,48,44,1691883072
36,14,18,Jits_Linear_8,2,5,80,127,1691937124
36,14,18,Jits_Linear_8,3,5,56,103,1691947620
36,14,18,Jits_Linear_8,0,1,48,51,1692481188
36,14,18,Jits_Linear_8,1,5,63,98,1692516732
36,14,18,Jits_Linear_8,2,5,80,127,1692546408
36,14,18,Jits_Linear_8,3,5,56,103,1692587528
36,14,18,Jits_Linear_8,0,1,48,45,1693069356
36,14,18,Jits_Linear_8,1,5,56,103,1693076872
36,14,18,Jits_Linear_8,2,5,80,127,1693087292
36,14,18,Jits_Linear_8,3,5,63,98,1693127228
36,14,18,Jits_Linear_8,0,5,80,127,1693607416
36,14,18,Jits_Linear_8,1,1,48,46,1693631288
36,14,18,Jits_Linear_8,2,5,56,103,1693687236
36,14,18,Jits_Linear_8,3,5,63,98,1693697508
36,14,18,Jits_Linear_8,0,5,80,127,1694216600
36,14,18,Jits_Linear_8,1,1,48,50,1694219272
36,14,18,Jits_Linear_8,2,5,56,103,1694296392
36,14,18,Jits_Linear_8,3,5,63,98,1694306736
36,14,18,Jits_Linear_8,0,5,80,127,1694736748
36,14,18,Jits_Linear_8,1,1,48,49,1694786500
36,14,18,Jits_Linear_8,2,5,56,103,1694788288
36,14,18,Jits_Linear_8,3,5,63,98,1694837520
36,14,18,Jits_Linear_8,0,5,56,103,1695357432
36,14,18,Jits_Linear_8,1,5,63,98,1695360352
36,14,18,Jits_Linear_8,2,1,48,53,1695385812
36,14,18,Jits_Linear_8,3,5,80,127,1695406436
36,14,18,Jits_Linear_8,0,1,48,44,1695937216
36,14,18,Jits_Linear_8,1,5,56,103,1695938552
36,14,18,Jits_Linear_8,2,5,63,98,1695966660
36,14,18,Jits_Linear_8,3,5,80,127,1695977032
36,14,18,Jits_Linear_8,0,5,63,98,1696406856
36,14,18,Jits_Linear_8,1,5,56,103,1696476464
36,14,18,Jits_Linear_8,2,5,80,127,1696526616
36,14,18,Jits_Linear_8,3,1,48,51,1696537528
36,14,18,Jits_Linear_8,0,5,63,98,1696996764
36,14,18,Jits_Linear_8,1,5,56,103,1697006956
36,14,18,Jits_Linear_8,2,5,80,127,1697009876
36,14,18,Jits_Linear_8,3,1,48,40,1697015328
36,14,18,Jits_Linear_8,0,5,80,127,1697496476
36,14,18,Jits_Linear_8,1,5,56,103,1697556816
36,14,18,Jits_Linear_8,2,1,48,52,1697574832
36,14,18,Jits_Linear_8,3,5,63,98,1697647316
36,14,18,Jits_Linear_8,0,5,80,127,1698047436
36,14,18,Jits_Linear_8,1,1,48,44,1698072348
36,14,18,Jits_Linear_8,2,5,56,103,1698146556
36,14,18,Jits_Linear_8,3,5,63,98,1698186556
36,14,18,Jits_Linear_8,0,5,56,103,1698647452
36,14,18,Jits_Linear_8,1,1,48,53,1698664420
36,14,18,Jits_Linear_8,2,5,63,98,1698667004
36,14,18,Jits_Linear_8,3,5,80,127,1698706796
36,14,18,Jits_Linear_8,0,1,48,45,1699160664
36,14,18,Jits_Linear_8,1,5,63,98,1699166540
36,14,18,Jits_Linear_8,2,5,56,103,1699187220
36,14,18,Jits_Linear_8,3,5,80,127,1699287380
36,14,18,Jits_Linear_8,0,5,63,98,1699697084
36,14,18,Jits_Linear_8,1,1,48,42,1699782840
36,14,18,Jits_Linear_8,2,5,80,127,1699806624
36,14,18,Jits_Linear_8,3,5,56,103,1699837372
36,14,18,Jits_Linear_8,0,5,56,103,1700257228
36,14,18,Jits_Linear_8,1,5,63,98,1700286976
36,14,18,Jits_Linear_8,2,1,48,36,1700335312
36,14,18,Jits_Linear_8,3,5,80,127,1700337124
36,14,18,Jits_Linear_8,0,5,63,98,1700767320
36,14,18,Jits_Linear_8,1,5,56,103,1700797220
36,14,18,Jits_Linear_8,2,5,80,127,1700847296
36,14,18,Jits_Linear_8,3,1,48,35,1700849596
36,14,18,Jits_Linear_8,0,1,48,41,1701304800
36,14,18,Jits_Linear_8,1,5,56,103,1701336516
36,14,18,Jits_Linear_8,2,5,63,98,1701357224
36,14,18,Jits_Linear_8,3,5,80,127,1701436856
36,14,18,Jits_Linear_8,0,5,63,98,1701847360
36,14,18,Jits_Linear_8,1,1,48,39,1701869084
36,14,18,Jits_Linear_8,2,5,56,103,1701906796
36,14,18,Jits_Linear_8,3,5,80,127,1701936548
36,14,18,Jits_Linear_8,0,1,48,50,1702362276
36,14,18,Jits_Linear_8,1,5,56,103,1702427140
36,14,18,Jits_Linear_8,2,5,80,127,1702487444
36,14,18,Jits_Linear_8,3,5,63,98,1702527236
36,14,18,Jits_Linear_8,0,1,48,48,1702928596
36,14,18,Jits_Linear_8,1,5,63,98,1702937160
36,14,18,Jits_Linear_8,2,5,56,103,1702997252
36,14,18,Jits_Linear_8,3,5,80,127,1703067068
36,14,18,Jits_Linear_8,0,1,48,21,1703495032
36,14,18,Jits_Linear_8,1,5,56,103,1703547348
36,14,18,Jits_Linear_8,2,5,63,98,1703556424
36,14,18,Jits_Linear_8,3,5,80,127,1703559860
36,14,18,Jits_Linear_8,0,5,63,98,1704017284
36,14,18,Jits_Linear_8,1,1,48,52,1704045588
36,14,18,Jits_Linear_8,2,5,56,103,1704076696
36,14,18,Jits_Linear_8,3,5,80,127,1704079836
36,14,18,Jits_Linear_8,0,5,63,98,1704527288
36,14,18,Jits_Linear_8,1,5,80,127,1704557112
36,14,18,Jits_Linear_8,2,5,56,103,1704577500
36,14,18,Jits_Linear_8,3,1,48,44,1704617776
36,14,18,Jits_Linear_8,0,5,56,103,1705056556
36,14,18,Jits_Linear_8,1,1,48,54,1705101704
36,14,18,Jits_Linear_8,2,5,63,98,1705106828
36,14,18,Jits_Linear_8,3,5,80,127,1705186872
36,14,18,Jits_Linear_8,0,5,80,127,1705557296
36,14,18,Jits_Linear_8,1,5,63,98,1705597236
36,14,18,Jits_Linear_8,2,5,56,103,1705616872
36,14,18,Jits_Linear_8,3,1,48,47,1705678504
36,14,18,Jits_Linear_8,0,5,56,103,1706147192
36,14,18,Jits_Linear_8,1,5,80,127,1706157316
36,14,18,Jits_Linear_8,2,1,48,43,1706170548
36,14,18,Jits_Linear_8,3,5,63,98,1706177016
36,14,18,Jits_Linear_8,0,5,56,103,1706647108
36,14,18,Jits_Linear_8,1,5,63,98,1706697088
36,14,18,Jits_Linear_8,2,5,80,127,1706727160
36,14,18,Jits_Linear_8,3,1,48,41,1706738828
36,14,18,Jits_Linear_8,0,5,56,103,1707117056
36,14,18,Jits_Linear_8,1,5,63,98,1707127180
36,14,18,Jits_Linear_8,2,5,80,127,1707177456
36,14,18,Jits_Linear_8,3,1,48,46,1707211288
36,14,18,Jits_Linear_8,0,5,56,103,1707626856
36,14,18,Jits_Linear_8,1,5,80,127,1707629924
36,14,18,Jits_Linear_8,2,1,48,41,1707683832
36,14,18,Jits_Linear_8,3,5,63,98,1707786664
36,14,18,Jits_Linear_8,0,1,48,35,1708155360
36,14,18,Jits_Linear_8,1,5,63,98,1708157248
36,14,18,Jits_Linear_8,2,5,56,103,1708226856
36,14,18,Jits_Linear_8,3,5,80,127,1708266880
36,14,18,Jits_Linear_8,0,1,48,43,1708678628
36,14,18,Jits_Linear_8,1,5,63,98,1708707124
36,14,18,Jits_Linear_8,2,5,56,103,1708797272
36,14,18,Jits_Linear_8,3,5,80,127,1708800188
36,14,18,Jits_Linear_8,0,5,56,103,1709196764
36,14,18,Jits_Linear_8,1,1,48,47,1709250304
36,14,18,Jits_Linear_8,2,5,63,98,1709286920
36,14,18,Jits_Linear_8,3,5,80,127,1709297120
36,14,18,Jits_Linear_8,0,5,56,103,1709676984
36,14,18,Jits_Linear_8,1,5,63,98,1709726964
36,14,18,Jits_Linear_8,2,5,80,127,1709756712
36,14,18,Jits_Linear_8,3,1,48,48,1709801880
36,14,18,Jits_Linear_8,0,1,48,45,1710230656
36,14,18,Jits_Linear_8,1,5,63,98,1710266944
36,14,18,Jits_Linear_8,2,5,80,127,1710277068
36,14,18,Jits_Linear_8,3,5,56,103,1710337320
36,14,18,Jits_Linear_8,0,5,63,98,1710686692
36,14,18,Jits_Linear_8,1,5,80,127,1710746936
36,14,18,Jits_Linear_8,2,5,56,103,1710786872
36,14,18,Jits_Linear_8,3,1,48,45,1710801676
36,14,18,Jits_Linear_8,0,1,48,42,1711267252
36,14,18,Jits_Linear_8,1,5,56,103,1711286684
36,14,18,Jits_Linear_8,2,5,80,127,1711307216
36,14,18,Jits_Linear_8,3,5,63,98,1711326556
36,14,18,Jits_Linear_8,0,5,63,98,1711706580
36,14,18,Jits_Linear_8,1,5,56,103,1711726964
36,14,18,Jits_Linear_8,2,5,80,127,1711766904
36,14,18,Jits_Linear_8,3,1,48,47,1711817000
36,14,18,Jits_Linear_8,0,5,63,98,1712216444
36,14,18,Jits_Linear_8,1,5,80,127,1712247016
36,14,18,Jits_Linear_8,2,1,48,48,1712249988
36,14,18,Jits_Linear_8,3,5,56,103,1712266644
36,14,18,Jits_Linear_8,0,5,80,127,1712686596
36,14,18,Jits_Linear_8,1,5,56,103,1712736872
36,14,18,Jits_Linear_8,2,1,48,33,1712772724
36,14,18,Jits_Linear_8,3,5,63,98,1712796960
36,14,18,Jits_Linear_8,0,5,63,98,1713166656
36,14,18,Jits_Linear_8,1,1,48,46,1713238480
36,14,18,Jits_Linear_8,2,5,56,103,1713286456
36,14,18,Jits_Linear_8,3,5,80,127,1713317256
36,14,18,Jits_Linear_8,0,5,80,127,1713697280
36,14,18,Jits_Linear_8,1,5,63,98,1713716844
36,14,18,Jits_Linear_8,2,1,48,50,1713772028
36,14,18,Jits_Linear_8,3,5,56,103,1713787120
36,14,18,Jits_Linear_8,0,5,63,98,1714207164
36,14,18,Jits_Linear_8,1,5,56,103,1714217284
36,14,18,Jits_Linear_8,2,1,48,52,1714260040
36,14,18,Jits_Linear_8,3,5,80,127,1714297076
36,14,18,Jits_Linear_8,0,1,48,50,1714681036
36,14,18,Jits_Linear_8,1,5,56,103,1714756888
36,14,18,Jits_Linear_8,2,5,80,127,1714786624
36,14,18,Jits_Linear_8,3,5,63,98,1714796824
36,14,18,Jits_Linear_8,0,9999,9999,9999,1604374588
36,14,18,Jits_Linear_8,1,9999,9999,9999,1605194852
36,14,18,Jits_Linear_8,2,9999,9999,9999,1606015072
36,14,18,Jits_Linear_8,3,9999,9999,9999,1606834248
36,14,18,Jits_Linear_8,4,9999,9999,9999,1607654464
36,14,18,Jits_Linear_8,5,9999,9999,9999,1608464504
36,14,18,Jits_Linear_8,6,9999,9999,9999,1609274444
36,14,18,Jits_Linear_8,7,9999,9999,9999,1610084480
36,14,18,Jits_Linear_8,8,9999,9999,9999,1610894440
36,14,18,Jits_Linear_8,9,9999,9999,9999,1611704444
36,14,18,Jits_Linear_8,10,9999,9999,9999,1612504148
36,14,18,Jits_Linear_8,11,9999,9999,9999,1613304904
36,14,18,Jits_Linear_8,12,9999,9999,9999,1614104660
36,14,18,Jits_Linear_8,13,9999,9999,9999,1614904412
36,14,18,Jits_Linear_8,14,9999,9999,9999,1615704152
36,14,18,Jits_Linear_8,15,9999,9999,9999,1616494680
36,14,18,Jits_Linear_8,16,9999,9999,9999,1617284156
36,14,18,Jits_Linear_8,17,9999,9999,9999,1618074700
36,14,18,Jits_Linear_8,18,9999,9999,9999,1618864196
36,14,18,Jits_Linear_8,19,9999,9999,9999,1619654712
36,14,18,Jits_Linear_8,20,9999,9999,9999,1620435060
36,14,18,Jits_Linear_8,21,9999,9999,9999,1621214304
36,14,18,Jits_Linear_8,22,9999,9999,9999,1621994620
36,14,18,Jits_Linear_8,23,9999,9999,9999,1622774892
36,14,18,Jits_Linear_8,24,9999,9999,9999,1623554116
36,14,18,Jits_Linear_8,25,9999,9999,9999,1624324200
36,14,18,Jits_Linear_8,26,9999,9999,9999,1625094212
36,14,18,Jits_Linear_8,27,9999,9999,9999,1625864300
36,14,18,Jits_Linear_8,28,9999,9999,9999,1626634324
36,14,18,Jits_Linear_8,29,9999,9999,9999,1627404416
36,14,18,Jits_Linear_8,30,9999,9999,9999,1628164160
36,14,18,Jits_Linear_8,31,9999,9999,9999,1628925028
36,14,18,Jits_Linear_8,32,9999,9999,9999,1629684848
36,14,18,Jits_Linear_8,33,9999,9999,9999,1630444664
36,14,18,Jits_Linear_8,34,9999,9999,9999,1631204460
36,14,18,Jits_Linear_8,35,9999,9999,9999,1631955072
36,14,18,Jits_Linear_8,36,9999,9999,9999,1632704636
36,14,18,Jits_Linear_8,37,9999,9999,9999,1633454196
36,14,18,Jits_Linear_8,38,9999,9999,9999,1634204740
36,14,18,Jits_Linear_8,39,9999,9999,9999,1634954320
36,14,18,Jits_Linear_8,40,9999,9999,9999,1635694680
36,14,18,Jits_Linear_8,41,9999,9999,9999,1636435040
36,14,18,Jits_Linear_8,42,9999,9999,9999,1637174376
36,14,18,Jits_Linear_8,43,9999,9999,9999,1637914724
36,14,18,Jits_Linear_8,44,9999,9999,9999,1638655052
36,14,18,Jits_Linear_8,45,9999,9999,9999,1639384140
36,14,18,Jits_Linear_8,46,9999,9999,9999,1640114232
36,14,18,Jits_Linear_8,47,9999,9999,9999,1640844376
36,14,18,Jits_Linear_8,48,9999,9999,9999,1641574468
36,14,18,Jits_Linear_8,49,9999,9999,9999,1642304612
36,14,18,Jits_Linear_8,50,9999,9999,9999,1643024500
36,14,18,Jits_Linear_8,51,9999,9999,9999,1643744364
36,14,18,Jits_Linear_8,52,9999,9999,9999,1644464248
36,14,18,Jits_Linear_8,53,9999,9999,9999,1645184068
36,14,18,Jits_Linear_8,54,9999,9999,9999,1645905004
36,14,18,Jits_Linear_8,55,9999,9999,9999,1646614644
36,14,18,Jits_Linear_8,56,9999,9999,9999,1647324240
36,14,18,Jits_Linear_8,57,9999,9999,9999,1648034908
36,14,18,Jits_Linear_8,58,9999,9999,9999,1648744532
36,14,18,Jits_Linear_8,59,9999,9999,9999,1649454156
36,14,18,Jits_Linear_8,60,9999,9999,9999,1650154568
36,14,18,Jits_Linear_8,61,9999,9999,9999,1650855028
36,14,18,Jits_Linear_8,62,9999,9999,9999,1651554392
36,14,18,Jits_Linear_8,63,9999,9999,9999,1652254792
36,14,18,Jits_Linear_8,64,9999,9999,9999,1652954212
36,14,18,Jits_Linear_8,65,9999,9999,9999,1653644360
36,14,18,Jits_Linear_8,66,9999,9999,9999,1654334584
36,14,18,Jits_Linear_8,67,9999,9999,9999,1655024736
36,14,18,Jits_Linear_8,68,9999,9999,9999,1655714936
36,14,18,Jits_Linear_8,69,9999,9999,9999,1656405100
36,14,18,Jits_Linear_8,70,9999,9999,9999,1657084996
36,14,18,Jits_Linear_8,71,9999,9999,9999,1657764940
36,14,18,Jits_Linear_8,72,9999,9999,9999,1658444892
36,14,18,Jits_Linear_8,73,9999,9999,9999,1659124852
36,14,18,Jits_Linear_8,74,9999,9999,9999,1659804792
36,14,18,Jits_Linear_8,75,9999,9999,9999,1660474492
36,14,18,Jits_Linear_8,76,9999,9999,9999,1661144156
36,14,18,Jits_Linear_8,77,9999,9999,9999,1661814904
36,14,18,Jits_Linear_8,78,9999,9999,9999,1662484592
36,14,18,Jits_Linear_8,79,9999,9999,9999,1663154260
36,14,18,Jits_Linear_8,80,9999,9999,9999,1663814740
36,14,18,Jits_Linear_8,81,9999,9999,9999,1664474220
36,14,18,Jits_Linear_8,82,9999,9999,9999,1665134688
36,14,18,Jits_Linear_8,83,9999,9999,9999,1665794112
36,14,18,Jits_Linear_8,84,9999,9999,9999,1666454596
36,14,18,Jits_Linear_8,85,9999,9999,9999,1667104844
36,14,18,Jits_Linear_8,86,9999,9999,9999,1667755124
36,14,18,Jits_Linear_8,87,9999,9999,9999,1668414548
36,14,18,Jits_Linear_8,88,9999,9999,9999,1669064808
36,14,18,Jits_Linear_8,89,9999,9999,9999,1669715032
36,14,18,Jits_Linear_8,90,9999,9999,9999,1670355040
36,14,18,Jits_Linear_8,91,9999,9999,9999,1670995004
36,14,18,Jits_Linear_8,92,9999,9999,9999,1671635024
36,14,18,Jits_Linear_8,93,9999,9999,9999,1672275044
36,14,18,Jits_Linear_8,94,9999,9999,9999,1672915044
36,14,18,Jits_Linear_8,95,9999,9999,9999,1673544804
36,14,18,Jits_Linear_8,96,9999,9999,9999,1674174556
36,14,18,Jits_Linear_8,97,9999,9999,9999,1674804320
36,14,18,Jits_Linear_8,98,9999,9999,9999,1675435112
36,14,18,Jits_Linear_8,99,9999,9999,9999,1676075068
36,14,18,Jits_Linear_8,100,9999,9999,9999,1676704872
36,14,18,Jits_Linear_8,101,9999,9999,9999,1677324376
36,14,18,Jits_Linear_8,102,9999,9999,9999,1677944892
36,14,18,Jits_Linear_8,103,9999,9999,9999,1678564464
36,14,18,Jits_Linear_8,104,9999,9999,9999,1679184996
36,14,18,Jits_Linear_8,105,9999,9999,9999,1679794288
36,14,18,Jits_Linear_8,106,9999,9999,9999,1680404560
36,14,18,Jits_Linear_8,107,9999,9999,9999,1681014872
36,14,18,Jits_Linear_8,108,9999,9999,9999,1681624156
36,14,18,Jits_Linear_8,109,9999,9999,9999,1682234432
36,14,18,Jits_Linear_8,110,9999,9999,9999,1682834500
36,14,18,Jits_Linear_8,111,9999,9999,9999,1683434596
36,14,18,Jits_Linear_8,112,9999,9999,9999,1684034672
36,14,18,Jits_Linear_8,113,9999,9999,9999,1684634680
36,14,18,Jits_Linear_8,114,9999,9999,9999,1685234780
36,14,18,Jits_Linear_8,115,9999,9999,9999,1685824584
36,14,18,Jits_Linear_8,116,9999,9999,9999,1686414392
36,14,18,Jits_Linear_8,117,9999,9999,9999,1687004280
36,14,18,Jits_Linear_8,118,9999,9999,9999,1687595072
36,14,18,Jits_Linear_8,119,9999,9999,9999,1688194172
36,14,18,Jits_Linear_8,120,9999,9999,9999,1688774772
36,14,18,Jits_Linear_8,121,9999,9999,9999,1689354340
36,14,18,Jits_Linear_8,122,9999,9999,9999,1689934920
36,14,18,Jits_Linear_8,123,9999,9999,9999,1690514528
36,14,18,Jits_Linear_8,124,9999,9999,9999,1691094076
36,14,18,Jits_Linear_8,125,9999,9999,9999,1691664492
36,14,18,Jits_Linear_8,126,9999,9999,9999,1692234816
36,14,18,Jits_Linear_8,127,9999,9999,9999,1692804172
36,14,18,Jits_Linear_8,128,9999,9999,9999,1693374572
36,14,18,Jits_Linear_8,129,9999,9999,9999,1693944924
36,14,18,Jits_Linear_8,130,9999,9999,9999,1694505084
36,14,18,Jits_Linear_8,131,9999,9999,9999,1695064184
36,14,18,Jits_Linear_8,132,9999,9999,9999,1695624260
36,14,18,Jits_Linear_8,133,9999,9999,9999,1696184420
36,14,18,Jits_Linear_8,134,9999,9999,9999,1696744508
36,14,18,Jits_Linear_8,135,9999,9999,9999,1697294444
36,14,18,Jits_Linear_8,136,9999,9999,9999,1697844320
36,14,18,Jits_Linear_8,137,9999,9999,9999,1698394208
36,14,18,Jits_Linear_8,138,9999,9999,9999,1698944096
36,14,18,Jits_Linear_8,139,9999,9999,9999,1699495032
36,14,18,Jits_Linear_8,140,9999,9999,9999,1700034644
36,14,18,Jits_Linear_8,141,9999,9999,9999,1700574328
36,14,18,Jits_Linear_8,142,9999,9999,9999,1701114936
36,14,18,Jits_Linear_8,143,9999,9999,9999,1701654620
36,14,18,Jits_Linear_8,144,9999,9999,9999,1702194300
36,14,18,Jits_Linear_8,145,9999,9999,9999,1702724696
36,14,18,Jits_Linear_8,146,9999,9999,9999,1703254120
36,14,18,Jits_Linear_8,147,9999,9999,9999,1703784508
36,14,18,Jits_Linear_8,148,9999,9999,9999,1704314972
36,14,18,Jits_Linear_8,149,9999,9999,9999,1704844384
36,14,18,Jits_Linear_8,150,9999,9999,9999,1705364596
36,14,18,Jits_Linear_8,151,9999,9999,9999,1705884736
36,14,18,Jits_Linear_8,152,9999,9999,9999,1706404956
36,14,18,Jits_Linear_8,153,9999,9999,9999,1706924132
36,14,18,Jits_Linear_8,154,9999,9999,9999,1707444344
36,14,18,Jits_Linear_8,155,9999,9999,9999,1707954288
36,14,18,Jits_Linear_8,156,9999,9999,9999,1708464244
36,14,18,Jits_Linear_8,157,9999,9999,9999,1708974184
36,14,18,Jits_Linear_8,158,9999,9999,9999,1709484128
36,14,18,Jits_Linear_8,159,9999,9999,9999,1709995132
36,14,18,Jits_Linear_8,160,9999,9999,9999,1710505016
36,14,18,Jits_Linear_8,161,9999,9999,9999,1711004764
36,14,18,Jits_Linear_8,162,9999,9999,9999,1711504452
36,14,18,Jits_Linear_8,163,9999,9999,9999,1712004196
36,14,18,Jits_Linear_8,164,9999,9999,9999,1712504920
36,14,18,Jits_Linear_8,165,9999,9999,9999,1712994408
36,14,18,Jits_Linear_8,166,9999,9999,9999,1713484888
36,14,18,Jits_Linear_8,167,9999,9999,9999,1713974380
36,14,18,Jits_Linear_8,168,9999,9999,9999,1714464856
36,14,18,Jits_Linear_8,169,9999,9999,9999,1714954356
36,15,19,Jits_Linear_5,0,5,56,103,1725886784
36,15,19,Jits_Linear_5,1,5,63,98,1725890332
36,15,19,Jits_Linear_5,2,5,80,127,1725893228
36,15,19,Jits_Linear_5,0,1,48,37,1726243740
36,15,19,Jits_Linear_5,1,5,56,103,1726367376
36,15,19,Jits_Linear_5,2,5,63,98,1726370400
36,15,19,Jits_Linear_5,3,5,80,127,1726373516
36,15,19,Jits_Linear_5,0,1,48,41,1726637004
36,15,19,Jits_Linear_5,1,5,56,103,1726847208
36,15,19,Jits_Linear_5,2,5,80,127,1726856432
36,15,19,Jits_Linear_5,3,5,63,98,1726877188
36,15,19,Jits_Linear_5,0,1,48,39,1727107252
36,15,19,Jits_Linear_5,1,5,63,98,1727277516
36,15,19,Jits_Linear_5,2,5,80,127,1727307120
36,15,19,Jits_Linear_5,3,5,56,103,1727317316
36,15,19,Jits_Linear_5,0,1,48,42,1727582648
36,15,19,Jits_Linear_5,1,5,80,127,1727817136
36,15,19,Jits_Linear_5,2,5,56,103,1727827332
36,15,19,Jits_Linear_5,3,5,63,98,1727857084
36,15,19,Jits_Linear_5,0,1,48,48,1728069312
36,15,19,Jits_Linear_5,1,5,63,98,1728297352
36,15,19,Jits_Linear_5,2,5,56,103,1728327176
36,15,19,Jits_Linear_5,3,5,80,127,1728337224
36,15,19,Jits_Linear_5,0,1,48,53,1728575832
36,15,19,Jits_Linear_5,1,5,56,103,1728736504
36,15,19,Jits_Linear_5,2,5,63,98,1728786856
36,15,19,Jits_Linear_5,3,5,80,127,1728807464
36,15,19,Jits_Linear_5,0,1,48,50,1729034768
36,15,19,Jits_Linear_5,1,5,80,127,1729227080
36,15,19,Jits_Linear_5,2,5,63,98,1729277160
36,15,19,Jits_Linear_5,3,5,56,103,1729317104
36,15,19,Jits_Linear_5,0,1,48,49,1729623428
36,15,19,Jits_Linear_5,1,5,56,103,1729716524
36,15,19,Jits_Linear_5,2,5,63,98,1729747528
36,15,19,Jits_Linear_5,3,5,80,127,1729816940
36,15,19,Jits_Linear_5,0,1,48,47,1730104224
36,15,19,Jits_Linear_5,1,5,56,103,1730207120
36,15,19,Jits_Linear_5,2,5,80,127,1730266544
36,15,19,Jits_Linear_5,3,5,63,98,1730297068
36,15,19,Jits_Linear_5,0,1,48,52,1730700880
36,15,19,Jits_Linear_5,1,5,56,103,1730706904
36,15,19,Jits_Linear_5,2,5,63,98,1730717172
36,15,19,Jits_Linear_5,3,5,80,127,1730756964
36,15,19,Jits_Linear_5,0,5,63,98,1731197152
36,15,19,Jits_Linear_5,1,1,48,51,1731199892
36,15,19,Jits_Linear_5,2,5,80,127,1731277020
36,15,19,Jits_Linear_5,3,5,56,103,1731287364
36,15,19,Jits_Linear_5,0,5,63,98,1731747040
36,15,19,Jits_Linear_5,1,1,48,53,1731748380
36,15,19,Jits_Linear_5,2,5,56,103,1731787196
36,15,19,Jits_Linear_5,3,5,80,127,1731790188
36,15,19,Jits_Linear_5,0,5,56,103,1732206936
36,15,19,Jits_Linear_5,1,5,63,98,1732217060
36,15,19,Jits_Linear_5,2,5,80,127,1732257148
36,15,19,Jits_Linear_5,3,1,48,46,1732278848
36,15,19,Jits_Linear_5,0,5,56,103,1732696516
36,15,19,Jits_Linear_5,1,5,63,98,1732699732
36,15,19,Jits_Linear_5,2,5,80,127,1732717052
36,15,19,Jits_Linear_5,3,1,48,56,1732755540
36,15,19,Jits_Linear_5,0,5,80,127,1733216736
36,15,19,Jits_Linear_5,1,5,56,103,1733226784
36,15,19,Jits_Linear_5,2,1,48,47,1733240460
36,15,19,Jits_Linear_5,3,5,63,98,1733296460
36,15,19,Jits_Linear_5,0,5,63,98,1733717412
36,15,19,Jits_Linear_5,1,1,48,59,1733720084
36,15,19,Jits_Linear_5,2,5,56,103,1733736816
36,15,19,Jits_Linear_5,3,5,80,127,1733817572
36,15,19,Jits_Linear_5,0,1,48,42,1734229204
36,15,19,Jits_Linear_5,1,5,56,103,1734236572
36,15,19,Jits_Linear_5,2,5,80,127,1734276512
36,15,19,Jits_Linear_5,3,5,63,98,1734286856
36,15,19,Jits_Linear_5,0,1,48,48,1734736408
36,15,19,Jits_Linear_5,1,5,80,127,1734738204
36,15,19,Jits_Linear_5,2,5,63,98,1734766984
36,15,19,Jits_Linear_5,3,5,56,103,1734806848
36,15,19,Jits_Linear_5,0,1,48,46,1735222048
36,15,19,Jits_Linear_5,1,5,56,103,1735266960
36,15,19,Jits_Linear_5,2,5,63,98,1735297392
36,15,19,Jits_Linear_5,3,5,80,127,1735346680
36,15,19,Jits_Linear_5,0,5,80,127,1735776772
36,15,19,Jits_Linear_5,1,1,48,45,1735799976
36,15,19,Jits_Linear_5,2,5,56,103,1735816784
36,15,19,Jits_Linear_5,3,5,63,98,1735827128
36,15,19,Jits_Linear_5,0,5,80,127,1736277372
36,15,19,Jits_Linear_5,1,1,48,38,1736302364
36,15,19,Jits_Linear_5,2,5,63,98,1736317236
36,15,19,Jits_Linear_5,3,5,56,103,1736376876
36,15,19,Jits_Linear_5,0,5,56,103,1736796704
36,15,19,Jits_Linear_5,1,5,80,127,1736806900
36,15,19,Jits_Linear_5,2,5,63,98,1736886624
36,15,19,Jits_Linear_5,3,1,48,46,1736887592
36,15,19,Jits_Linear_5,0,5,80,127,1737316636
36,15,19,Jits_Linear_5,1,5,63,98,1737377252
36,15,19,Jits_Linear_5,2,1,48,44,1737393100
36,15,19,Jits_Linear_5,3,5,56,103,1737406924
36,15,19,Jits_Linear_5,0,5,56,103,1737836792
36,15,19,Jits_Linear_5,1,5,80,127,1737897632
36,15,19,Jits_Linear_5,2,1,48,49,1737937348
36,15,19,Jits_Linear_5,3,5,63,98,1737938836
36,15,19,Jits_Linear_5,0,1,48,40,1738366360
36,15,19,Jits_Linear_5,1,5,56,103,1738416808
36,15,19,Jits_Linear_5,2,5,63,98,1738427004
36,15,19,Jits_Linear_5,3,5,80,127,1738430292
36,15,19,Jits_Linear_5,0,1,48,53,1738875184
36,15,19,Jits_Linear_5,1,5,80,127,1738896708
36,15,19,Jits_Linear_5,2,5,63,98,1738986856
36,15,19,Jits_Linear_5,3,5,56,103,1738997052
36,15,19,Jits_Linear_5,0,5,56,103,1739427108
36,15,19,Jits_Linear_5,1,5,63,98,1739430504
36,15,19,Jits_Linear_5,2,1,48,50,1739433176
36,15,19,Jits_Linear_5,3,5,80,127,1739434960
36,15,19,Jits_Linear_5,0,1,48,52,1739908700
36,15,19,Jits_Linear_5,1,5,80,127,1739977136
36,15,19,Jits_Linear_5,2,5,63,98,1740027352
36,15,19,Jits_Linear_5,3,5,56,103,1740056804
36,15,19,Jits_Linear_5,0,1,48,43,1740455976
36,15,19,Jits_Linear_5,1,5,56,103,1740487092
36,15,19,Jits_Linear_5,2,5,80,127,1740497140
36,15,19,Jits_Linear_5,3,5,63,98,1740566832
36,15,19,Jits_Linear_5,0,1,48,40,1740966152
36,15,19,Jits_Linear_5,1,5,56,103,1741026664
36,15,19,Jits_Linear_5,2,5,63,98,1741047124
36,15,19,Jits_Linear_5,3,5,80,127,1741106528
36,15,19,Jits_Linear_5,0,1,48,35,1741471144
36,15,19,Jits_Linear_5,1,5,80,127,1741556988
36,15,19,Jits_Linear_5,2,5,63,98,1741626732
36,15,19,Jits_Linear_5,3,5,56,103,1741647640
36,15,19,Jits_Linear_5,0,1,48,39,1742050048
36,15,19,Jits_Linear_5,1,5,80,127,1742117136
36,15,19,Jits_Linear_5,2,5,56,103,1742126732
36,15,19,Jits_Linear_5,3,5,63,98,1742136708
36,15,19,Jits_Linear_5,0,1,48,35,1742572352
36,15,19,Jits_Linear_5,1,5,80,127,1742646712
36,15,19,Jits_Linear_5,2,5,56,103,1742667084
36,15,19,Jits_Linear_5,3,5,63,98,1742736840
36,15,19,Jits_Linear_5,0,1,48,41,1743162400
36,15,19,Jits_Linear_5,1,5,56,103,1743196520
36,15,19,Jits_Linear_5,2,5,80,127,1743227540
36,15,19,Jits_Linear_5,3,5,63,98,1743246732
36,15,19,Jits_Linear_5,0,1,48,42,1743699844
36,15,19,Jits_Linear_5,1,5,63,98,1743737412
36,15,19,Jits_Linear_5,2,5,56,103,1743796684
36,15,19,Jits_Linear_5,3,5,80,127,1743827544
36,15,19,Jits_Linear_5,0,1,48,42,1744232868
36,15,19,Jits_Linear_5,1,5,63,98,1744276728
36,15,19,Jits_Linear_5,2,5,80,127,1744280172
36,15,19,Jits_Linear_5,3,5,56,103,1744366880
36,15,19,Jits_Linear_5,0,1,48,44,1744774516
36,15,19,Jits_Linear_5,1,5,56,103,1744847508
36,15,19,Jits_Linear_5,2,5,63,98,1744876904
36,15,19,Jits_Linear_5,3,5,80,127,1744916840
36,15,19,Jits_Linear_5,0,1,48,39,1745289700
36,15,19,Jits_Linear_5,1,5,63,98,1745397036
36,15,19,Jits_Linear_5,2,5,56,103,1745436976
36,15,19,Jits_Linear_5,3,5,80,127,1745456612
36,15,19,Jits_Linear_5,0,1,48,41,1745892052
36,15,19,Jits_Linear_5,1,5,63,98,1745957344
36,15,19,Jits_Linear_5,2,5,56,103,1745997196
36,15,19,Jits_Linear_5,3,5,80,127,1746007396
36,15,19,Jits_Linear_5,0,1,48,31,1746408828
36,15,19,Jits_Linear_5,1,5,80,127,1746486628
36,15,19,Jits_Linear_5,2,5,63,98,1746557420
36,15,19,Jits_Linear_5,3,5,56,103,1746576684
36,15,19,Jits_Linear_5,0,5,56,103,1747036448
36,15,19,Jits_Linear_5,1,1,48,43,1747046388
36,15,19,Jits_Linear_5,2,5,80,127,1747057276
36,15,19,Jits_Linear_5,3,5,63,98,1747096916
36,15,19,Jits_Linear_5,0,1,48,39,1747526444
36,15,19,Jits_Linear_5,1,1,48,23,1747593768
36,15,19,Jits_Linear_5,2,5,63,98,1747606916
36,15,19,Jits_Linear_5,3,5,80,127,1747627528
36,15,19,Jits_Linear_5,4,5,56,103,1747667464
36,15,19,Jits_Linear_5,0,1,48,43,1748138552
36,15,19,Jits_Linear_5,1,5,63,98,1748167124
36,15,19,Jits_Linear_5,2,5,56,103,1748186464
36,15,19,Jits_Linear_5,3,5,80,127,1748196832
36,15,19,Jits_Linear_5,0,1,48,37,1748725708
36,15,19,Jits_Linear_5,1,5,80,127,1748727368
36,15,19,Jits_Linear_5,2,5,56,103,1748746556
36,15,19,Jits_Linear_5,3,5,63,98,1748777356
36,15,19,Jits_Linear_5,0,1,48,40,1749308772
36,15,19,Jits_Linear_5,1,5,56,103,1749367236
36,15,19,Jits_Linear_5,2,5,80,127,1749370228
36,15,19,Jits_Linear_5,3,5,63,98,1749386576
36,15,19,Jits_Linear_5,0,5,63,98,1749856736
36,15,19,Jits_Linear_5,1,5,56,103,1749887312
36,15,19,Jits_Linear_5,2,1,48,38,1749894340
36,15,19,Jits_Linear_5,3,5,80,127,1749946724
36,15,19,Jits_Linear_5,0,1,48,39,1750436780
36,15,19,Jits_Linear_5,1,5,63,98,1750506740
36,15,19,Jits_Linear_5,2,5,56,103,1750517308
36,15,19,Jits_Linear_5,3,5,80,127,1750527504
36,15,19,Jits_Linear_5,0,5,56,103,1751027112
36,15,19,Jits_Linear_5,1,5,80,127,1751056716
36,15,19,Jits_Linear_5,2,5,63,98,1751067284
36,15,19,Jits_Linear_5,0,1,48,38,1751396196
36,15,19,Jits_Linear_5,1,5,63,98,1751637492
36,15,19,Jits_Linear_5,2,5,56,103,1751646640
36,15,19,Jits_Linear_5,3,5,80,127,1751667028
36,15,19,Jits_Linear_5,0,1,48,51,1751976288
36,15,19,Jits_Linear_5,1,5,56,103,1752137256
36,15,19,Jits_Linear_5,2,5,63,98,1752196376
36,15,19,Jits_Linear_5,3,5,80,127,1752199668
36,15,19,Jits_Linear_5,4,1,48,43,1752457388
36,15,19,Jits_Linear_5,0,5,80,127,1752737248
36,15,19,Jits_Linear_5,1,5,56,103,1752747448
36,15,19,Jits_Linear_5,2,5,63,98,1752817080
36,15,19,Jits_Linear_5,0,1,48,42,1753133248
36,15,19,Jits_Linear_5,1,5,80,127,1753306420
36,15,19,Jits_Linear_5,2,5,56,103,1753377328
36,15,19,Jits_Linear_5,3,5,63,98,1753387524
36,15,19,Jits_Linear_5,0,1,48,49,1753743520
36,15,19,Jits_Linear_5,1,5,63,98,1753927280
36,15,19,Jits_Linear_5,2,5,56,103,1753937404
36,15,19,Jits_Linear_5,3,5,80,127,1753956668
36,15,19,Jits_Linear_5,0,1,48,43,1754415044
36,15,19,Jits_Linear_5,1,5,80,127,1754456500
36,15,19,Jits_Linear_5,2,5,63,98,1754516956
36,15,19,Jits_Linear_5,3,5,56,103,1754557044
36,15,19,Jits_Linear_5,0,1,48,46,1755001556
36,15,19,Jits_Linear_5,1,5,56,103,1755087156
36,15,19,Jits_Linear_5,2,5,63,98,1755096368
36,15,19,Jits_Linear_5,3,5,80,127,1755137452
36,15,19,Jits_Linear_5,0,5,56,103,1755647412
36,15,19,Jits_Linear_5,1,5,80,127,1755677016
36,15,19,Jits_Linear_5,2,1,48,40,1755681552
36,15,19,Jits_Linear_5,3,5,63,98,1755727284
36,15,19,Jits_Linear_5,0,1,48,46,1756225908
36,15,19,Jits_Linear_5,1,5,56,103,1756277176
36,15,19,Jits_Linear_5,2,5,63,98,1756316888
36,15,19,Jits_Linear_5,3,5,80,127,1756320184
36,15,19,Jits_Linear_5,0,1,48,42,1756834728
36,15,19,Jits_Linear_5,1,5,56,103,1756867064
36,15,19,Jits_Linear_5,2,5,63,98,1756877040
36,15,19,Jits_Linear_5,3,5,80,127,1756896700
36,15,19,Jits_Linear_5,0,1,48,45,1757415836
36,15,19,Jits_Linear_5,1,5,56,103,1757417656
36,15,19,Jits_Linear_5,2,5,80,127,1757420480
36,15,19,Jits_Linear_5,3,5,63,98,1757456908
36,15,19,Jits_Linear_5,0,1,48,49,1758026760
36,15,19,Jits_Linear_5,1,5,63,98,1758046564
36,15,19,Jits_Linear_5,2,5,56,103,1758077288
36,15,19,Jits_Linear_5,3,5,80,127,1758096996
36,15,19,Jits_Linear_5,0,5,80,127,1758616908
36,15,19,Jits_Linear_5,1,1,48,40,1758624984
36,15,19,Jits_Linear_5,2,5,56,103,1758627096
36,15,19,Jits_Linear_5,3,5,63,98,1758637444
36,15,19,Jits_Linear_5,0,1,48,44,1759197192
36,15,19,Jits_Linear_5,1,5,56,103,1759216992
36,15,19,Jits_Linear_5,2,5,80,127,1759257160
36,15,19,Jits_Linear_5,3,5,63,98,1759286832
36,15,19,Jits_Linear_5,0,1,48,50,1759787004
36,15,19,Jits_Linear_5,1,5,63,98,1759827192
36,15,19,Jits_Linear_5,2,5,80,127,1759836564
36,15,19,Jits_Linear_5,3,5,56,103,1759846912
36,15,19,Jits_Linear_5,0,1,48,46,1760367604
36,15,19,Jits_Linear_5,1,5,56,103,1760406968
36,15,19,Jits_Linear_5,2,5,63,98,1760476492
36,15,19,Jits_Linear_5,3,5,80,127,1760486860
36,15,19,Jits_Linear_5,0,1,48,48,1760974048
36,15,19,Jits_Linear_5,1,5,80,127,1761017116
36,15,19,Jits_Linear_5,2,5,56,103,1761026488
36,15,19,Jits_Linear_5,3,5,63,98,1761076528
36,15,19,Jits_Linear_5,0,1,48,47,1761594000
36,15,19,Jits_Linear_5,1,5,80,127,1761636672
36,15,19,Jits_Linear_5,2,5,56,103,1761697124
36,15,19,Jits_Linear_5,3,5,63,98,1761726728
36,15,19,Jits_Linear_5,0,1,48,46,1762220092
36,15,19,Jits_Linear_5,1,5,56,103,1762247092
36,15,19,Jits_Linear_5,2,5,80,127,1762250304
36,15,19,Jits_Linear_5,3,5,63,98,1762286980
36,15,19,Jits_Linear_5,0,1,48,42,1762812460
36,15,19,Jits_Linear_5,1,5,56,103,1762887048
36,15,19,Jits_Linear_5,2,5,63,98,1762916636
36,15,19,Jits_Linear_5,3,5,80,127,1762926832
36,15,19,Jits_Linear_5,0,1,48,47,1763425524
36,15,19,Jits_Linear_5,1,5,63,98,1763506684
36,15,19,Jits_Linear_5,2,5,80,127,1763516808
36,15,19,Jits_Linear_5,3,5,56,103,1763527064
36,15,19,Jits_Linear_5,0,1,48,41,1764015032
36,15,19,Jits_Linear_5,1,5,80,127,1764066856
36,15,19,Jits_Linear_5,2,5,56,103,1764116820
36,15,19,Jits_Linear_5,3,5,63,98,1764119964
36,15,19,Jits_Linear_5,0,1,48,31,1764601108
36,15,19,Jits_Linear_5,1,5,56,103,1764716960
36,15,19,Jits_Linear_5,2,5,80,127,1764737272
36,15,19,Jits_Linear_5,3,5,63,98,1764746644
36,15,19,Jits_Linear_5,0,1,48,39,1765228616
36,15,19,Jits_Linear_5,1,5,63,98,1765317052
36,15,19,Jits_Linear_5,2,5,56,103,1765346816
36,15,19,Jits_Linear_5,3,5,80,127,1765367572
36,15,19,Jits_Linear_5,0,1,48,49,1765915940
36,15,19,Jits_Linear_5,1,5,56,103,1765946828
36,15,19,Jits_Linear_5,2,5,80,127,1765956952
36,15,19,Jits_Linear_5,3,5,63,98,1766026616
36,15,19,Jits_Linear_5,0,1,48,46,1766524172
36,15,19,Jits_Linear_5,1,5,63,98,1766557024
36,15,19,Jits_Linear_5,2,5,80,127,1766596964
36,15,19,Jits_Linear_5,3,5,56,103,1766636764
36,15,19,Jits_Linear_5,0,5,56,103,1767197068
36,15,19,Jits_Linear_5,1,5,63,98,1767207488
36,15,19,Jits_Linear_5,2,5,80,127,1767226676
36,15,19,Jits_Linear_5,3,1,48,48,1767511944
36,15,19,Jits_Linear_5,0,5,63,98,1767866696
36,15,19,Jits_Linear_5,1,5,80,127,1767887080
36,15,19,Jits_Linear_5,2,5,56,103,1767906668
36,15,19,Jits_Linear_5,3,1,48,35,1767909332
36,15,19,Jits_Linear_5,0,5,56,103,1768436984
36,15,19,Jits_Linear_5,1,1,48,49,1768475024
36,15,19,Jits_Linear_5,2,5,80,127,1768517000
36,15,19,Jits_Linear_5,3,5,63,98,1768527492
36,15,19,Jits_Linear_5,0,1,48,46,1769043924
36,15,19,Jits_Linear_5,1,5,80,127,1769106676
36,15,19,Jits_Linear_5,2,5,63,98,1769117024
36,15,19,Jits_Linear_5,3,5,56,103,1769146756
36,15,19,Jits_Linear_5,0,1,48,48,1769640936
36,15,19,Jits_Linear_5,1,5,63,98,1769696592
36,15,19,Jits_Linear_5,2,5,80,127,1769736668
36,15,19,Jits_Linear_5,3,5,56,103,1769796912
36,15,19,Jits_Linear_5,0,1,48,43,1770249440
36,15,19,Jits_Linear_5,1,5,63,98,1770336680
36,15,19,Jits_Linear_5,2,5,56,103,1770386796
36,15,19,Jits_Linear_5,3,5,80,127,1770416620
36,15,19,Jits_Linear_5,0,1,48,38,1770884220
36,15,19,Jits_Linear_5,1,5,80,127,1770986892
36,15,19,Jits_Linear_5,2,5,63,98,1770997240
36,15,19,Jits_Linear_5,3,5,56,103,1771066624
36,15,19,Jits_Linear_5,0,1,48,35,1771542296
36,15,19,Jits_Linear_5,1,5,80,127,1771696512
36,15,19,Jits_Linear_5,2,5,56,103,1771706856
36,15,19,Jits_Linear_5,3,5,63,98,1771710072
36,15,19,Jits_Linear_5,0,1,48,44,1772152488
36,15,19,Jits_Linear_5,1,5,56,103,1772277132
36,15,19,Jits_Linear_5,2,5,80,127,1772296472
36,15,19,Jits_Linear_5,3,5,63,98,1772306668
36,15,19,Jits_Linear_5,0,1,48,41,1772850820
36,15,19,Jits_Linear_5,1,5,63,98,1772927500
36,15,19,Jits_Linear_5,2,5,56,103,1772967500
36,15,19,Jits_Linear_5,3,5,80,127,1772986616
36,15,19,Jits_Linear_5,0,1,48,43,1773480200
36,15,19,Jits_Linear_5,1,5,63,98,1773576516
36,15,19,Jits_Linear_5,2,5,56,103,1773636908
36,15,19,Jits_Linear_5,3,5,80,127,1773640048
36,15,19,Jits_Linear_5,0,1,48,45,1774185668
36,15,19,Jits_Linear_5,1,5,56,103,1774187460
36,15,19,Jits_Linear_5,2,5,80,127,1774207476
36,15,19,Jits_Linear_5,3,5,63,98,1774247416
36,15,19,Jits_Linear_5,0,1,48,46,1774858340
36,15,19,Jits_Linear_5,1,5,56,103,1774866904
36,15,19,Jits_Linear_5,2,5,63,98,1774887440
36,15,19,Jits_Linear_5,3,5,80,127,1774896516
36,15,19,Jits_Linear_5,0,5,80,127,1775487368
36,15,19,Jits_Linear_5,1,5,56,103,1775517192
36,15,19,Jits_Linear_5,2,1,48,35,1775537624
36,15,19,Jits_Linear_5,3,5,63,98,1775557124
36,15,19,Jits_Linear_5,0,1,48,42,1776117272
36,15,19,Jits_Linear_5,1,5,80,127,1776146892
36,15,19,Jits_Linear_5,2,5,56,103,1776167352
36,15,19,Jits_Linear_5,3,5,63,98,1776226536
36,15,19,Jits_Linear_5,0,5,56,103,1776807368
36,15,19,Jits_Linear_5,1,5,80,127,1776826780
36,15,19,Jits_Linear_5,2,1,48,25,1776848036
36,15,19,Jits_Linear_5,3,5,63,98,1776887116
36,15,19,Jits_Linear_5,0,1,48,38,1777432696
36,15,19,Jits_Linear_5,1,5,80,127,1777447264
36,15,19,Jits_Linear_5,2,5,56,103,1777456412
36,15,19,Jits_Linear_5,3,5,63,98,1777496424
36,15,19,Jits_Linear_5,0,5,63,98,1778106612
36,15,19,Jits_Linear_5,1,1,48,23,1778122384
36,15,19,Jits_Linear_5,2,5,56,103,1778146640
36,15,19,Jits_Linear_5,3,5,80,127,1778149632
36,15,19,Jits_Linear_5,0,1,48,46,1778720372
36,15,19,Jits_Linear_5,1,5,63,98,1778786788
36,15,19,Jits_Linear_5,2,5,80,127,1778826492
36,15,19,Jits_Linear_5,3,5,56,103,1778857288
36,15,19,Jits_Linear_5,0,1,48,42,1779419432
36,15,19,Jits_Linear_5,1,5,56,103,1779436940
36,15,19,Jits_Linear_5,2,5,63,98,1779447064
36,15,19,Jits_Linear_5,3,5,80,127,1779476888
36,15,19,Jits_Linear_5,0,1,48,34,1780050028
36,15,19,Jits_Linear_5,1,5,80,127,1780097332
36,15,19,Jits_Linear_5,2,5,63,98,1780167224
36,15,19,Jits_Linear_5,3,5,56,103,1780177196
36,15,19,Jits_Linear_5,0,1,48,37,1780694392
36,15,19,Jits_Linear_5,1,5,63,98,1780766964
36,15,19,Jits_Linear_5,2,5,56,103,1780836784
36,15,19,Jits_Linear_5,3,5,80,127,1780847200
36,15,19,Jits_Linear_5,0,1,48,48,1781421184
36,15,19,Jits_Linear_5,1,5,63,98,1781436944
36,15,19,Jits_Linear_5,2,5,56,103,1781457256
36,15,19,Jits_Linear_5,3,5,80,127,1781497296
36,15,19,Jits_Linear_5,0,1,48,46,1782072076
36,15,19,Jits_Linear_5,1,5,56,103,1782116916
36,15,19,Jits_Linear_5,2,5,63,98,1782127188
36,15,19,Jits_Linear_5,3,5,80,127,1782206892
36,15,19,Jits_Linear_5,0,1,48,41,1782726404
36,15,19,Jits_Linear_5,1,5,63,98,1782777252
36,15,19,Jits_Linear_5,2,5,56,103,1782807080
36,15,19,Jits_Linear_5,3,5,80,127,1782847004
36,15,19,Jits_Linear_5,0,5,56,103,1783447012
36,15,19,Jits_Linear_5,1,1,48,16,1783484360
36,15,19,Jits_Linear_5,2,5,63,98,1783487020
36,15,19,Jits_Linear_5,3,5,80,127,1783526984
36,15,19,Jits_Linear_5,0,1,48,39,1784059156
36,15,19,Jits_Linear_5,1,5,80,127,1784126916
36,15,19,Jits_Linear_5,2,5,56,103,1784206996
36,15,19,Jits_Linear_5,3,5,63,98,1784217044
36,15,19,Jits_Linear_5,0,5,56,103,1784846756
36,15,19,Jits_Linear_5,1,5,63,98,1784849896
36,15,19,Jits_Linear_5,2,5,80,127,1784856876
36,15,19,Jits_Linear_5,3,1,48,33,1784865768
36,15,19,Jits_Linear_5,0,1,48,43,1785502016
36,15,19,Jits_Linear_5,1,5,56,103,1785547080
36,15,19,Jits_Linear_5,2,5,63,98,1785566444
36,15,19,Jits_Linear_5,3,5,80,127,1785577012
36,15,19,Jits_Linear_5,0,1,48,43,1786171056
36,15,19,Jits_Linear_5,1,5,63,98,1786187048
36,15,19,Jits_Linear_5,2,5,80,127,1786197244
36,15,19,Jits_Linear_5,3,5,56,103,1786217028
36,15,19,Jits_Linear_5,0,1,48,38,1786865872
36,15,19,Jits_Linear_5,1,5,63,98,1786877280
36,15,19,Jits_Linear_5,2,5,56,103,1786957152
36,15,19,Jits_Linear_5,3,5,80,127,1786960368
36,15,19,Jits_Linear_5,0,1,48,38,1787527976
36,15,19,Jits_Linear_5,1,5,63,98,1787566588
36,15,19,Jits_Linear_5,2,5,56,103,1787586900
36,15,19,Jits_Linear_5,3,5,80,127,1787616748
36,15,19,Jits_Linear_5,0,1,48,35,1788150400
36,15,19,Jits_Linear_5,1,5,56,103,1788256808
36,15,19,Jits_Linear_5,2,5,63,98,1788277044
36,15,19,Jits_Linear_5,3,5,80,127,1788287316
36,15,19,Jits_Linear_5,0,1,48,40,1788851688
36,15,19,Jits_Linear_5,1,5,56,103,1788976632
36,15,19,Jits_Linear_5,2,5,63,98,1789007428
36,15,19,Jits_Linear_5,3,5,80,127,1789010716
36,15,19,Jits_Linear_5,0,1,48,42,1789536080
36,15,19,Jits_Linear_5,1,5,56,103,1789616424
36,15,19,Jits_Linear_5,2,5,63,98,1789656424
36,15,19,Jits_Linear_5,3,5,80,127,1789716840
36,15,19,Jits_Linear_5,0,1,48,37,1790241736
36,15,19,Jits_Linear_5,1,5,56,103,1790327116
36,15,19,Jits_Linear_5,2,5,63,98,1790337536
36,15,19,Jits_Linear_5,3,5,80,127,1790396640
36,15,19,Jits_Linear_5,0,1,48,24,1790926416
36,15,19,Jits_Linear_5,1,5,56,103,1791026548
36,15,19,Jits_Linear_5,2,5,80,127,1791047008
36,15,19,Jits_Linear_5,3,5,63,98,1791076760
36,15,19,Jits_Linear_5,0,5,80,127,1791726920
36,15,19,Jits_Linear_5,1,5,56,103,1791737116
36,15,19,Jits_Linear_5,2,5,63,98,1791756600
36,15,19,Jits_Linear_5,0,1,48,42,1792190088
36,15,19,Jits_Linear_5,1,5,63,98,1792417080
36,15,19,Jits_Linear_5,2,5,80,127,1792496980
36,15,19,Jits_Linear_5,3,5,56,103,1792507176
36,15,19,Jits_Linear_5,0,1,48,40,1792997616
36,15,19,Jits_Linear_5,1,5,80,127,1793177072
36,15,19,Jits_Linear_5,2,5,56,103,1793197528
36,15,19,Jits_Linear_5,3,5,63,98,1793200668
36,15,19,Jits_Linear_5,0,1,48,48,1793772500
36,15,19,Jits_Linear_5,1,5,63,98,1793856904
36,15,19,Jits_Linear_5,2,5,80,127,1793860344
36,15,19,Jits_Linear_5,3,5,56,103,1793917504
36,15,19,Jits_Linear_5,0,1,48,47,1794511040
36,15,19,Jits_Linear_5,1,5,56,103,1794547056
36,15,19,Jits_Linear_5,2,5,80,127,1794557252
36,15,19,Jits_Linear_5,3,5,63,98,1794597192
36,15,19,Jits_Linear_5,0,1,48,42,1795165240
36,15,19,Jits_Linear_5,1,5,56,103,1795237260
36,15,19,Jits_Linear_5,2,5,63,98,1795296620
36,15,19,Jits_Linear_5,3,5,80,127,1795306816
36,15,19,Jits_Linear_5,0,1,48,37,1795866260
36,15,19,Jits_Linear_5,1,5,63,98,1795957312
36,15,19,Jits_Linear_5,2,5,80,127,1795997016
36,15,19,Jits_Linear_5,3,5,56,103,1796037028
36,15,19,Jits_Linear_5,0,1,48,36,1796543188
36,15,19,Jits_Linear_5,1,5,56,103,1796666788
36,15,19,Jits_Linear_5,2,5,63,98,1796746588
36,15,19,Jits_Linear_5,3,5,80,127,1796749876
36,15,19,Jits_Linear_5,0,1,48,20,1797280032
36,15,19,Jits_Linear_5,1,5,80,127,1797436740
36,15,19,Jits_Linear_5,2,5,56,103,1797466416
36,15,19,Jits_Linear_5,3,5,63,98,1797469556
36,15,19,Jits_Linear_5,0,1,48,48,1798056060
36,15,19,Jits_Linear_5,1,5,56,103,1798116792
36,15,19,Jits_Linear_5,2,5,80,127,1798137324
36,15,19,Jits_Linear_5,3,5,63,98,1798177324
36,15,19,Jits_Linear_5,0,1,48,50,1798775656
36,15,19,Jits_Linear_5,1,5,80,127,1798817264
36,15,19,Jits_Linear_5,2,5,63,98,1798836456
36,15,19,Jits_Linear_5,3,5,56,103,1798897004
36,15,19,Jits_Linear_5,0,1,48,52,1799503120
36,15,19,Jits_Linear_5,1,5,63,98,1799547580
36,15,19,Jits_Linear_5,2,5,56,103,1799556436
36,15,19,Jits_Linear_5,3,5,80,127,1799606548
36,15,19,Jits_Linear_5,0,1,48,46,1800158524
36,15,19,Jits_Linear_5,1,5,56,103,1800256836
36,15,19,Jits_Linear_5,2,5,63,98,1800277444
36,15,19,Jits_Linear_5,3,5,80,127,1800286520
36,15,19,Jits_Linear_5,0,5,56,103,1800976684
36,15,19,Jits_Linear_5,1,5,63,98,1800979676
36,15,19,Jits_Linear_5,2,5,80,127,1800997368
36,15,19,Jits_Linear_5,0,1,48,37,1801552468
36,15,19,Jits_Linear_5,1,5,63,98,1801746872
36,15,19,Jits_Linear_5,2,5,56,103,1801776552
36,15,19,Jits_Linear_5,3,5,80,127,1801807424
36,15,19,Jits_Linear_5,0,1,48,39,1802299660
36,15,19,Jits_Linear_5,1,5,80,127,1802436936
36,15,19,Jits_Linear_5,2,5,56,103,1802527172
36,15,19,Jits_Linear_5,3,5,63,98,1802530092
36,15,19,Jits_Linear_5,0,1,48,41,1803058516
36,15,19,Jits_Linear_5,1,5,56,103,1803167168
36,15,19,Jits_Linear_5,2,5,80,127,1803170160
36,15,19,Jits_Linear_5,3,5,63,98,1803246916
36,15,19,Jits_Linear_5,0,1,48,40,1803737108
36,15,19,Jits_Linear_5,1,5,80,127,1803897256
36,15,19,Jits_Linear_5,2,5,63,98,1803956528
36,15,19,Jits_Linear_5,3,5,56,103,1803987400
36,15,19,Jits_Linear_5,0,1,48,40,1804598268
36,15,19,Jits_Linear_5,1,5,63,98,1804627292
36,15,19,Jits_Linear_5,2,5,80,127,1804636664
36,15,19,Jits_Linear_5,3,5,56,103,1804707080
36,15,19,Jits_Linear_5,0,1,48,43,1805240064
36,15,19,Jits_Linear_5,1,5,56,103,1805376992
36,15,19,Jits_Linear_5,2,5,80,127,1805406524
36,15,19,Jits_Linear_5,3,5,63,98,1805456652
36,15,19,Jits_Linear_5,0,1,48,43,1805894316
36,15,19,Jits_Linear_5,1,5,63,98,1806157280
36,15,19,Jits_Linear_5,2,5,56,103,1806187028
36,15,19,Jits_Linear_5,3,5,80,127,1806190096
36,15,19,Jits_Linear_5,0,1,48,43,1806622604
36,15,19,Jits_Linear_5,1,5,63,98,1806896580
36,15,19,Jits_Linear_5,2,5,80,127,1806916968
36,15,19,Jits_Linear_5,3,5,56,103,1806927088
36,15,19,Jits_Linear_5,0,1,48,38,1807341464
36,15,19,Jits_Linear_5,1,5,56,103,1807646972
36,15,19,Jits_Linear_5,2,5,63,98,1807650120
36,15,19,Jits_Linear_5,3,5,80,127,1807666612
36,15,19,Jits_Linear_5,0,1,48,42,1808123924
36,15,19,Jits_Linear_5,1,5,56,103,1808346572
36,15,19,Jits_Linear_5,2,5,63,98,1808356996
36,15,19,Jits_Linear_5,3,5,80,127,1808386300
36,15,19,Jits_Linear_5,0,1,48,37,1808919356
36,15,19,Jits_Linear_5,1,5,63,98,1809116524
36,15,19,Jits_Linear_5,2,5,80,127,1809136912
36,15,19,Jits_Linear_5,3,5,56,103,1809176924
36,15,19,Jits_Linear_5,0,1,48,45,1809837964
36,15,19,Jits_Linear_5,1,5,56,103,1809896756
36,15,19,Jits_Linear_5,2,5,63,98,1809936976
36,15,19,Jits_Linear_5,3,5,80,127,1809940268
36,15,19,Jits_Linear_5,0,5,80,127,1810586964
36,15,19,Jits_Linear_5,1,5,56,103,1810627056
36,15,19,Jits_Linear_5,2,1,48,32,1810633916
36,15,19,Jits_Linear_5,3,5,63,98,1810677052
36,15,19,Jits_Linear_5,0,5,56,103,1811396940
36,15,19,Jits_Linear_5,1,5,80,127,1811407212
36,15,19,Jits_Linear_5,2,5,63,98,1811436840
36,15,19,Jits_Linear_5,0,1,48,30,1812105956
36,15,19,Jits_Linear_5,1,5,56,103,1812107820
36,15,19,Jits_Linear_5,2,5,80,127,1812146492
36,15,19,Jits_Linear_5,3,5,63,98,1812197016
36,15,19,Jits_Linear_5,0,5,56,103,1812866396
36,15,19,Jits_Linear_5,1,1,48,33,1812867288
36,15,19,Jits_Linear_5,2,5,80,127,1812907528
36,15,19,Jits_Linear_5,3,5,63,98,1812956704
36,15,19,Jits_Linear_5,0,1,48,34,1813596620
36,15,19,Jits_Linear_5,1,5,80,127,1813617020
36,15,19,Jits_Linear_5,2,5,63,98,1813697028
36,15,19,Jits_Linear_5,3,5,56,103,1813707224
36,15,19,Jits_Linear_5,0,5,80,127,1814426992
36,15,19,Jits_Linear_5,1,5,56,103,1814437412
36,15,19,Jits_Linear_5,2,5,63,98,1814456824
36,15,19,Jits_Linear_5,0,5,63,98,1815157056
36,15,19,Jits_Linear_5,1,5,56,103,1815226664
36,15,19,Jits_Linear_5,2,5,80,127,1815229808
36,15,19,Jits_Linear_5,3,1,48,20,1815442864
36,15,19,Jits_Linear_5,0,5,80,127,1815916888
36,15,19,Jits_Linear_5,1,5,63,98,1815967020
36,15,19,Jits_Linear_5,2,5,56,103,1816006960
36,15,19,Jits_Linear_5,3,1,48,35,1816023332
36,15,19,Jits_Linear_5,0,1,48,29,1816606732
36,15,19,Jits_Linear_5,1,5,63,98,1816726844
36,15,19,Jits_Linear_5,2,5,56,103,1816766712
36,15,19,Jits_Linear_5,3,5,80,127,1816777280
36,15,19,Jits_Linear_5,0,1,48,44,1817337052
36,15,19,Jits_Linear_5,1,5,63,98,1817486836
36,15,19,Jits_Linear_5,2,5,56,103,1817507220
36,15,19,Jits_Linear_5,3,5,80,127,1817526784
36,15,19,Jits_Linear_5,0,1,48,41,1818126488
36,15,19,Jits_Linear_5,1,5,80,127,1818216796
36,15,19,Jits_Linear_5,2,5,56,103,1818227128
36,15,19,Jits_Linear_5,3,5,63,98,1818246540
36,15,19,Jits_Linear_5,0,1,48,27,1818897708
36,15,19,Jits_Linear_5,1,5,63,98,1819016700
36,15,19,Jits_Linear_5,2,5,56,103,1819056788
36,15,19,Jits_Linear_5,3,5,80,127,1819087212
36,15,19,Jits_Linear_5,0,1,48,44,1819676128
36,15,19,Jits_Linear_5,1,5,56,103,1819796844
36,15,19,Jits_Linear_5,2,5,63,98,1819826596
36,15,19,Jits_Linear_5,3,5,80,127,1819857240
36,15,19,Jits_Linear_5,0,1,48,43,1820400520
36,15,19,Jits_Linear_5,1,5,80,127,1820546568
36,15,19,Jits_Linear_5,2,5,56,103,1820617072
36,15,19,Jits_Linear_5,3,5,63,98,1820620068
36,15,19,Jits_Linear_5,0,1,48,54,1821164012
36,15,19,Jits_Linear_5,1,5,56,103,1821337040
36,15,19,Jits_Linear_5,2,5,63,98,1821387244
36,15,19,Jits_Linear_5,3,5,80,127,1821416720
36,15,19,Jits_Linear_5,0,1,48,53,1821922656
36,15,19,Jits_Linear_5,1,5,63,98,1822096800
36,15,19,Jits_Linear_5,2,5,80,127,1822100164
36,15,19,Jits_Linear_5,3,5,56,103,1822157340
36,15,19,Jits_Linear_5,0,1,48,46,1822765880
36,15,19,Jits_Linear_5,1,5,56,103,1822906752
36,15,19,Jits_Linear_5,2,5,80,127,1822916872
36,15,19,Jits_Linear_5,3,5,63,98,1822967100
36,15,19,Jits_Linear_5,0,1,48,53,1823568720
36,15,19,Jits_Linear_5,1,5,63,98,1823666588
36,15,19,Jits_Linear_5,2,5,56,103,1823676856
36,15,19,Jits_Linear_5,3,5,80,127,1823706408
36,15,19,Jits_Linear_5,0,1,48,48,1824321204
36,15,19,Jits_Linear_5,1,5,63,98,1824486828
36,15,19,Jits_Linear_5,2,5,80,127,1824490192
36,15,19,Jits_Linear_5,3,5,56,103,1824516432
36,15,19,Jits_Linear_5,0,1,48,48,1825052104
36,15,19,Jits_Linear_5,1,5,63,98,1825296932
36,15,19,Jits_Linear_5,2,5,56,103,1825317240
36,15,19,Jits_Linear_5,3,5,80,127,1825320456
36,15,19,Jits_Linear_5,0,1,48,44,1825908748
36,15,19,Jits_Linear_5,1,5,63,98,1826047292
36,15,19,Jits_Linear_5,2,5,56,103,1826117052
36,15,19,Jits_Linear_5,3,5,80,127,1826136392
36,15,19,Jits_Linear_5,0,1,48,44,1826611460
36,15,19,Jits_Linear_5,1,5,56,103,1826826612
36,15,19,Jits_Linear_5,2,5,63,98,1826836808
36,15,19,Jits_Linear_5,3,5,80,127,1826926944
36,15,19,Jits_Linear_5,0,1,48,47,1827433996
36,15,19,Jits_Linear_5,1,5,56,103,1827646832
36,15,19,Jits_Linear_5,2,5,80,127,1827686772
36,15,19,Jits_Linear_5,3,5,63,98,1827697344
36,15,19,Jits_Linear_5,0,1,48,48,1828232120
36,15,19,Jits_Linear_5,1,5,56,103,1828467132
36,15,19,Jits_Linear_5,2,5,63,98,1828496736
36,15,19,Jits_Linear_5,3,5,80,127,1828526488
36,15,19,Jits_Linear_5,0,1,48,47,1829120040
36,15,19,Jits_Linear_5,1,5,80,127,1829226820
36,15,19,Jits_Linear_5,2,5,63,98,1829266912
36,15,19,Jits_Linear_5,3,5,56,103,1829287220
36,15,19,Jits_Linear_5,0,1,48,41,1829791424
36,15,19,Jits_Linear_5,1,5,56,103,1830076788
36,15,19,Jits_Linear_5,2,5,80,127,1830097320
36,15,19,Jits_Linear_5,3,5,63,98,1830116760
36,15,19,Jits_Linear_5,0,1,48,56,1830664736
36,15,19,Jits_Linear_5,1,5,63,98,1830847112
36,15,19,Jits_Linear_5,2,5,56,103,1830857232
36,15,19,Jits_Linear_5,3,5,80,127,1830916452
36,15,19,Jits_Linear_5,0,1,48,53,1831337032
36,15,19,Jits_Linear_5,1,5,56,103,1831656796
36,15,19,Jits_Linear_5,2,5,63,98,1831726336
36,15,19,Jits_Linear_5,3,5,80,127,1831747016
36,15,19,Jits_Linear_5,0,1,48,53,1832289448
36,15,19,Jits_Linear_5,1,5,56,103,1832467056
36,15,19,Jits_Linear_5,2,5,63,98,1832496512
36,15,19,Jits_Linear_5,3,5,80,127,1832536304
36,15,19,Jits_Linear_5,0,1,48,41,1833025612
36,15,19,Jits_Linear_5,1,5,63,98,1833266528
36,15,19,Jits_Linear_5,2,5,56,103,1833316660
36,15,19,Jits_Linear_5,3,5,80,127,1833327080
36,15,19,Jits_Linear_5,0,1,48,31,1833925032
36,15,19,Jits_Linear_5,1,5,56,103,1834116420
36,15,19,Jits_Linear_5,2,5,63,98,1834166628
36,15,19,Jits_Linear_5,3,5,80,127,1834176824
36,15,19,Jits_Linear_5,0,1,48,47,1834754872
36,15,19,Jits_Linear_5,1,5,56,103,1834896940
36,15,19,Jits_Linear_5,2,5,63,98,1834906988
36,15,19,Jits_Linear_5,3,5,80,127,1834987180
36,15,19,Jits_Linear_5,0,9999,9999,9999,1726124120
36,15,19,Jits_Linear_5,1,9999,9999,9999,1726604412
36,15,19,Jits_Linear_5,2,9999,9999,9999,1727084620
36,15,19,Jits_Linear_5,3,9999,9999,9999,1727564900
36,15,19,Jits_Linear_5,4,9999,9999,9999,1728044140
36,15,19,Jits_Linear_5,5,9999,9999,9999,1728534616
36,15,19,Jits_Linear_5,6,9999,9999,9999,1729024112
36,15,19,Jits_Linear_5,7,9999,9999,9999,1729514568
36,15,19,Jits_Linear_5,8,9999,9999,9999,1730005092
36,15,19,Jits_Linear_5,9,9999,9999,9999,1730494588
36,15,19,Jits_Linear_5,10,9999,9999,9999,1730994272
36,15,19,Jits_Linear_5,11,9999,9999,9999,1731495004
36,15,19,Jits_Linear_5,12,9999,9999,9999,1731994688
36,15,19,Jits_Linear_5,13,9999,9999,9999,1732494448
36,15,19,Jits_Linear_5,14,9999,9999,9999,1732994132
36,15,19,Jits_Linear_5,15,9999,9999,9999,1733504100
36,15,19,Jits_Linear_5,16,9999,9999,9999,1734015036
36,15,19,Jits_Linear_5,17,9999,9999,9999,1734524988
36,15,19,Jits_Linear_5,18,9999,9999,9999,1735034940
36,15,19,Jits_Linear_5,19,9999,9999,9999,1735544892
36,15,19,Jits_Linear_5,20,9999,9999,9999,1736064064
36,15,19,Jits_Linear_5,21,9999,9999,9999,1736584292
36,15,19,Jits_Linear_5,22,9999,9999,9999,1737104444
36,15,19,Jits_Linear_5,23,9999,9999,9999,1737624676
36,15,19,Jits_Linear_5,24,9999,9999,9999,1738144832
36,15,19,Jits_Linear_5,25,9999,9999,9999,1738674276
36,15,19,Jits_Linear_5,26,9999,9999,9999,1739204684
36,15,19,Jits_Linear_5,27,9999,9999,9999,1739734092
36,15,19,Jits_Linear_5,28,9999,9999,9999,1740264532
36,15,19,Jits_Linear_5,29,9999,9999,9999,1740794936
36,15,19,Jits_Linear_5,30,9999,9999,9999,1741334632
36,15,19,Jits_Linear_5,31,9999,9999,9999,1741874252
36,15,19,Jits_Linear_5,32,9999,9999,9999,1742414916
36,15,19,Jits_Linear_5,33,9999,9999,9999,1742954608
36,15,19,Jits_Linear_5,34,9999,9999,9999,1743494228
36,15,19,Jits_Linear_5,35,9999,9999,9999,1744044116
36,15,19,Jits_Linear_5,36,9999,9999,9999,1744595036
36,15,19,Jits_Linear_5,37,9999,9999,9999,1745144948
36,15,19,Jits_Linear_5,38,9999,9999,9999,1745694832
36,15,19,Jits_Linear_5,39,9999,9999,9999,1746244716
36,15,19,Jits_Linear_5,40,9999,9999,9999,1746804792
36,15,19,Jits_Linear_5,41,9999,9999,9999,1747364940
36,15,19,Jits_Linear_5,42,9999,9999,9999,1747925076
36,15,19,Jits_Linear_5,43,9999,9999,9999,1748484184
36,15,19,Jits_Linear_5,44,9999,9999,9999,1749044332
36,15,19,Jits_Linear_5,45,9999,9999,9999,1749614664
36,15,19,Jits_Linear_5,46,9999,9999,9999,1750185076
36,15,19,Jits_Linear_5,47,9999,9999,9999,1750754396
36,15,19,Jits_Linear_5,48,9999,9999,9999,1751324760
36,15,19,Jits_Linear_5,49,9999,9999,9999,1751894088
36,15,19,Jits_Linear_5,50,9999,9999,9999,1752474748
36,15,19,Jits_Linear_5,51,9999,9999,9999,1753054328
36,15,19,Jits_Linear_5,52,9999,9999,9999,1753634884
36,15,19,Jits_Linear_5,53,9999,9999,9999,1754214516
36,15,19,Jits_Linear_5,54,9999,9999,9999,1754795116
36,15,19,Jits_Linear_5,55,9999,9999,9999,1755394104
36,15,19,Jits_Linear_5,56,9999,9999,9999,1755984968
36,15,19,Jits_Linear_5,57,9999,9999,9999,1756574800
36,15,19,Jits_Linear_5,58,9999,9999,9999,1757164644
36,15,19,Jits_Linear_5,59,9999,9999,9999,1757754448
36,15,19,Jits_Linear_5,60,9999,9999,9999,1758354532
36,15,19,Jits_Linear_5,61,9999,9999,9999,1758954560
36,15,19,Jits_Linear_5,62,9999,9999,9999,1759554632
36,15,19,Jits_Linear_5,63,9999,9999,9999,1760154712
36,15,19,Jits_Linear_5,64,9999,9999,9999,1760754748
36,15,19,Jits_Linear_5,65,9999,9999,9999,1761365088
36,15,19,Jits_Linear_5,66,9999,9999,9999,1761974388
36,15,19,Jits_Linear_5,67,9999,9999,9999,1762584668
36,15,19,Jits_Linear_5,68,9999,9999,9999,1763194940
36,15,19,Jits_Linear_5,69,9999,9999,9999,1763804240
36,15,19,Jits_Linear_5,70,9999,9999,9999,1764424788
36,15,19,Jits_Linear_5,71,9999,9999,9999,1765044348
36,15,19,Jits_Linear_5,72,9999,9999,9999,1765664832
36,15,19,Jits_Linear_5,73,9999,9999,9999,1766284392
36,15,19,Jits_Linear_5,74,9999,9999,9999,1766904948
36,15,19,Jits_Linear_5,75,9999,9999,9999,1767534712
36,15,19,Jits_Linear_5,76,9999,9999,9999,1768164420
36,15,19,Jits_Linear_5,77,9999,9999,9999,1768794168
36,15,19,Jits_Linear_5,78,9999,9999,9999,1769424984
36,15,19,Jits_Linear_5,79,9999,9999,9999,1770054756
36,15,19,Jits_Linear_5,80,9999,9999,9999,1770694772
36,15,19,Jits_Linear_5,81,9999,9999,9999,1771334736
36,15,19,Jits_Linear_5,82,9999,9999,9999,1771974744
36,15,19,Jits_Linear_5,83,9999,9999,9999,1772614780
36,15,19,Jits_Linear_5,84,9999,9999,9999,1773254724
36,15,19,Jits_Linear_5,85,9999,9999,9999,1773905020
36,15,19,Jits_Linear_5,86,9999,9999,9999,1774554172
36,15,19,Jits_Linear_5,87,9999,9999,9999,1775204464
36,15,19,Jits_Linear_5,88,9999,9999,9999,1775854688
36,15,19,Jits_Linear_5,89,9999,9999,9999,1776504908
36,15,19,Jits_Linear_5,90,9999,9999,9999,1777164352
36,15,19,Jits_Linear_5,91,9999,9999,9999,1777824828
36,15,19,Jits_Linear_5,92,9999,9999,9999,1778484336
36,15,19,Jits_Linear_5,93,9999,9999,9999,1779144804
36,15,19,Jits_Linear_5,94,9999,9999,9999,1779804244
36,15,19,Jits_Linear_5,95,9999,9999,9999,1780475000
36,15,19,Jits_Linear_5,96,9999,9999,9999,1781144680
36,15,19,Jits_Linear_5,97,9999,9999,9999,1781814388
36,15,19,Jits_Linear_5,98,9999,9999,9999,1782485120
36,15,19,Jits_Linear_5,99,9999,9999,9999,1783154744
36,15,19,Jits_Linear_5,100,9999,9999,9999,1783834712
36,15,19,Jits_Linear_5,101,9999,9999,9999,1784514672
36,15,19,Jits_Linear_5,102,9999,9999,9999,1785194560
36,15,19,Jits_Linear_5,103,9999,9999,9999,1785874552
36,15,19,Jits_Linear_5,104,9999,9999,9999,1786554424
36,15,19,Jits_Linear_5,105,9999,9999,9999,1787244652
36,15,19,Jits_Linear_5,106,9999,9999,9999,1787934816
36,15,19,Jits_Linear_5,107,9999,9999,9999,1788625020
36,15,19,Jits_Linear_5,108,9999,9999,9999,1789314124
36,15,19,Jits_Linear_5,109,9999,9999,9999,1790004284
36,15,19,Jits_Linear_5,110,9999,9999,9999,1790704704
36,15,19,Jits_Linear_5,111,9999,9999,9999,1791404132
36,15,19,Jits_Linear_5,112,9999,9999,9999,1792104572
36,15,19,Jits_Linear_5,113,9999,9999,9999,1792804952
36,15,19,Jits_Linear_5,114,9999,9999,9999,1793504324
36,15,19,Jits_Linear_5,115,9999,9999,9999,1794214980
36,15,19,Jits_Linear_5,116,9999,9999,9999,1794924620
36,15,19,Jits_Linear_5,117,9999,9999,9999,1795634260
36,15,19,Jits_Linear_5,118,9999,9999,9999,1796344948
36,15,19,Jits_Linear_5,119,9999,9999,9999,1797054556
36,15,19,Jits_Linear_5,120,9999,9999,9999,1797774456
36,15,19,Jits_Linear_5,121,9999,9999,9999,1798494284
36,15,19,Jits_Linear_5,122,9999,9999,9999,1799214184
36,15,19,Jits_Linear_5,123,9999,9999,9999,1799935064
36,15,19,Jits_Linear_5,124,9999,9999,9999,1800654940
36,15,19,Jits_Linear_5,125,9999,9999,9999,1801385044
36,15,19,Jits_Linear_5,126,9999,9999,9999,1802114116
36,15,19,Jits_Linear_5,127,9999,9999,9999,1802844280
36,15,19,Jits_Linear_5,128,9999,9999,9999,1803574360
36,15,19,Jits_Linear_5,129,9999,9999,9999,1804304460
36,15,19,Jits_Linear_5,130,9999,9999,9999,1805044812
36,15,19,Jits_Linear_5,131,9999,9999,9999,1805784168
36,15,19,Jits_Linear_5,132,9999,9999,9999,1806524512
36,15,19,Jits_Linear_5,133,9999,9999,9999,1807264872
36,15,19,Jits_Linear_5,134,9999,9999,9999,1808004172
36,15,19,Jits_Linear_5,135,9999,9999,9999,1808754792
36,15,19,Jits_Linear_5,136,9999,9999,9999,1809504368
36,15,19,Jits_Linear_5,137,9999,9999,9999,1810254908
36,15,19,Jits_Linear_5,138,9999,9999,9999,1811004480
36,15,19,Jits_Linear_5,139,9999,9999,9999,1811755068
36,15,19,Jits_Linear_5,140,9999,9999,9999,1812524148
36,15,19,Jits_Linear_5,141,9999,9999,9999,1813284956
36,15,19,Jits_Linear_5,142,9999,9999,9999,1814044736
36,15,19,Jits_Linear_5,143,9999,9999,9999,1814804596
36,15,19,Jits_Linear_5,144,9999,9999,9999,1815564380
36,15,19,Jits_Linear_5,145,9999,9999,9999,1816334408
36,15,19,Jits_Linear_5,146,9999,9999,9999,1817104452
36,15,19,Jits_Linear_5,147,9999,9999,9999,1817874556
36,15,19,Jits_Linear_5,148,9999,9999,9999,1818644580
36,15,19,Jits_Linear_5,149,9999,9999,9999,1819414608
36,15,19,Jits_Linear_5,150,9999,9999,9999,1820194900
36,15,19,Jits_Linear_5,151,9999,9999,9999,1820974136
36,15,19,Jits_Linear_5,152,9999,9999,9999,1821754428
36,15,19,Jits_Linear_5,153,9999,9999,9999,1822534780
36,15,19,Jits_Linear_5,154,9999,9999,9999,1823315072
36,15,19,Jits_Linear_5,155,9999,9999,9999,1824104572
36,15,19,Jits_Linear_5,156,9999,9999,9999,1824895040
36,15,19,Jits_Linear_5,157,9999,9999,9999,1825684540
36,15,19,Jits_Linear_5,158,9999,9999,9999,1826475072
36,15,19,Jits_Linear_5,159,9999,9999,9999,1827274836
36,15,19,Jits_Linear_5,160,9999,9999,9999,1828074560
36,15,19,Jits_Linear_5,161,9999,9999,9999,1828874332
36,15,19,Jits_Linear_5,162,9999,9999,9999,1829675072
36,15,19,Jits_Linear_5,163,9999,9999,9999,1830485108
36,15,19,Jits_Linear_5,164,9999,9999,9999,1831284800
36,15,19,Jits_Linear_5,165,9999,9999,9999,1832094840
36,15,19,Jits_Linear_5,166,9999,9999,9999,1832904800
36,15,19,Jits_Linear_5,167,9999,9999,9999,1833714780
36,15,19,Jits_Linear_5,168,9999,9999,9999,1834524744
36,15,19,Jits_Linear_5,169,9999,9999,9999,1835334780
36,16,7,Jits_ISO_8,0,5,56,103,1846403428
36,16,7,Jits_ISO_8,1,5,63,98,1846406452
36,16,7,Jits_ISO_8,2,5,80,127,1846409648
36,16,7,Jits_ISO_8,3,1,48,43,1846733360
36,16,7,Jits_ISO_8,0,5,56,103,1847204324
36,16,7,Jits_ISO_8,1,5,63,98,1847207576
36,16,7,Jits_ISO_8,2,5,80,127,1847210548
36,16,7,Jits_ISO_8,3,1,48,35,1847320976
36,16,7,Jits_ISO_8,0,5,80,127,1847943660
36,16,7,Jits_ISO_8,1,1,48,43,1848021616
36,16,7,Jits_ISO_8,2,5,63,98,1848033740
36,16,7,Jits_ISO_8,3,5,56,103,1848043860
36,16,7,Jits_ISO_8,0,1,48,40,1848757584
36,16,7,Jits_ISO_8,1,5,56,103,1848763756
36,16,7,Jits_ISO_8,2,5,63,98,1848774172
36,16,7,Jits_ISO_8,3,5,80,127,1848864392
36,16,7,Jits_ISO_8,0,1,48,44,1849449996
36,16,7,Jits_ISO_8,1,5,63,98,1849533868
36,16,7,Jits_ISO_8,2,5,80,127,1849563408
36,16,7,Jits_ISO_8,3,5,56,103,1849594352
36,16,7,Jits_ISO_8,0,1,48,43,1850223556
36,16,7,Jits_ISO_8,1,5,56,103,1850333508
36,16,7,Jits_ISO_8,2,5,80,127,1850433756
36,16,7,Jits_ISO_8,3,5,63,98,1850484108
36,16,7,Jits_ISO_8,0,1,48,46,1851003268
36,16,7,Jits_ISO_8,1,5,56,103,1851134564
36,16,7,Jits_ISO_8,2,5,80,127,1851183572
36,16,7,Jits_ISO_8,3,5,63,98,1851224560
36,16,7,Jits_ISO_8,0,1,48,26,1851776216
36,16,7,Jits_ISO_8,1,5,80,127,1851963640
36,16,7,Jits_ISO_8,2,5,63,98,1851993536
36,16,7,Jits_ISO_8,3,5,56,103,1852064340
36,16,7,Jits_ISO_8,0,1,48,44,1852615632
36,16,7,Jits_ISO_8,1,5,63,98,1852794212
36,16,7,Jits_ISO_8,2,5,56,103,1852823964
36,16,7,Jits_ISO_8,3,5,80,127,1852884208
36,16,7,Jits_ISO_8,0,1,48,42,1853430276
36,16,7,Jits_ISO_8,1,5,56,103,1853533540
36,16,7,Jits_ISO_8,2,5,80,127,1853536608
36,16,7,Jits_ISO_8,3,5,63,98,1853654464
36,16,7,Jits_ISO_8,0,1,48,44,1854147508
36,16,7,Jits_ISO_8,1,5,56,103,1854414280
36,16,7,Jits_ISO_8,2,5,80,127,1854454244
36,16,7,Jits_ISO_8,3,5,63,98,1854464292
36,16,7,Jits_ISO_8,0,1,48,46,1854984792
36,16,7,Jits_ISO_8,1,5,56,103,1855174432
36,16,7,Jits_ISO_8,2,5,80,127,1855193348
36,16,7,Jits_ISO_8,3,5,63,98,1855274340
36,16,7,Jits_ISO_8,0,1,48,46,1855816192
36,16,7,Jits_ISO_8,1,5,80,127,1855963456
36,16,7,Jits_ISO_8,2,5,56,103,1856063932
36,16,7,Jits_ISO_8,3,5,63,98,1856074500
36,16,7,Jits_ISO_8,0,1,48,46,1856657860
36,16,7,Jits_ISO_8,1,5,63,98,1856733588
36,16,7,Jits_ISO_8,2,5,80,127,1856794260
36,16,7,Jits_ISO_8,3,5,56,103,1856804384
36,16,7,Jits_ISO_8,0,1,48,41,1857382120
36,16,7,Jits_ISO_8,1,5,56,103,1857534248
36,16,7,Jits_ISO_8,2,5,63,98,1857604152
36,16,7,Jits_ISO_8,3,5,80,127,1857607516
36,16,7,Jits_ISO_8,0,1,48,46,1858141356
36,16,7,Jits_ISO_8,1,5,63,98,1858364204
36,16,7,Jits_ISO_8,2,5,56,103,1858414036
36,16,7,Jits_ISO_8,3,5,80,127,1858417328
36,16,7,Jits_ISO_8,0,1,48,46,1858912360
36,16,7,Jits_ISO_8,1,5,56,103,1859123596
36,16,7,Jits_ISO_8,2,5,80,127,1859126516
36,16,7,Jits_ISO_8,3,5,63,98,1859213656
36,16,7,Jits_ISO_8,0,1,48,49,1859755872
36,16,7,Jits_ISO_8,1,5,63,98,1859964200
36,16,7,Jits_ISO_8,2,5,56,103,1860054660
36,16,7,Jits_ISO_8,3,5,80,127,1860084036
36,16,7,Jits_ISO_8,0,1,48,44,1860533340
36,16,7,Jits_ISO_8,1,5,56,103,1860753872
36,16,7,Jits_ISO_8,2,5,63,98,1860854300
36,16,7,Jits_ISO_8,3,5,80,127,1860884048
36,16,7,Jits_ISO_8,0,1,48,43,1861297904
36,16,7,Jits_ISO_8,1,5,63,98,1861573968
36,16,7,Jits_ISO_8,2,5,56,103,1861584236
36,16,7,Jits_ISO_8,3,5,80,127,1861674248
36,16,7,Jits_ISO_8,0,1,48,35,1862028684
36,16,7,Jits_ISO_8,1,5,63,98,1862394080
36,16,7,Jits_ISO_8,2,5,56,103,1862474176
36,16,7,Jits_ISO_8,3,5,80,127,1862477096
36,16,7,Jits_ISO_8,0,1,48,46,1862914064
36,16,7,Jits_ISO_8,1,5,80,127,1863153928
36,16,7,Jits_ISO_8,2,5,63,98,1863173492
36,16,7,Jits_ISO_8,3,5,56,103,1863233880
36,16,7,Jits_ISO_8,0,1,48,34,1863687316
36,16,7,Jits_ISO_8,1,5,56,103,1863993944
36,16,7,Jits_ISO_8,2,5,63,98,1864014252
36,16,7,Jits_ISO_8,3,5,80,127,1864017544
36,16,7,Jits_ISO_8,0,1,48,34,1864496072
36,16,7,Jits_ISO_8,1,5,63,98,1864733996
36,16,7,Jits_ISO_8,2,5,80,127,1864813872
36,16,7,Jits_ISO_8,3,5,56,103,1864824140
36,16,7,Jits_ISO_8,0,1,48,36,1865306128
36,16,7,Jits_ISO_8,1,5,63,98,1865554236
36,16,7,Jits_ISO_8,2,5,56,103,1865573944
36,16,7,Jits_ISO_8,3,5,80,127,1865624000
36,16,7,Jits_ISO_8,0,1,48,33,1866129724
36,16,7,Jits_ISO_8,1,5,80,127,1866354016
36,16,7,Jits_ISO_8,2,5,63,98,1866394028
36,16,7,Jits_ISO_8,3,5,56,103,1866413296
36,16,7,Jits_ISO_8,0,1,48,29,1866856688
36,16,7,Jits_ISO_8,1,5,56,103,1867193880
36,16,7,Jits_ISO_8,2,5,63,98,1867203928
36,16,7,Jits_ISO_8,3,5,80,127,1867224412
36,16,7,Jits_ISO_8,0,1,48,30,1867730112
36,16,7,Jits_ISO_8,1,5,56,103,1867923688
36,16,7,Jits_ISO_8,2,5,63,98,1868013920
36,16,7,Jits_ISO_8,3,5,80,127,1868074464
36,16,7,Jits_ISO_8,0,1,48,35,1868549552
36,16,7,Jits_ISO_8,1,5,80,127,1868754412
36,16,7,Jits_ISO_8,2,5,56,103,1868763736
36,16,7,Jits_ISO_8,3,5,63,98,1868834092
36,16,7,Jits_ISO_8,0,1,48,28,1869333612
36,16,7,Jits_ISO_8,1,5,63,98,1869583816
36,16,7,Jits_ISO_8,2,5,80,127,1869673952
36,16,7,Jits_ISO_8,3,5,56,103,1869684000
36,16,7,Jits_ISO_8,0,1,48,22,1870094812
36,16,7,Jits_ISO_8,1,5,63,98,1870324040
36,16,7,Jits_ISO_8,2,5,80,127,1870374468
36,16,7,Jits_ISO_8,3,5,56,103,1870433588
36,16,7,Jits_ISO_8,0,1,48,21,1870813552
36,16,7,Jits_ISO_8,1,5,56,103,1871153632
36,16,7,Jits_ISO_8,2,5,80,127,1871203688
36,16,7,Jits_ISO_8,3,5,63,98,1871224296
36,16,7,Jits_ISO_8,4,1,48,35,1871557432
36,16,7,Jits_ISO_8,0,5,56,103,1871923764
36,16,7,Jits_ISO_8,1,5,80,127,1871984008
36,16,7,Jits_ISO_8,2,5,63,98,1872053616
36,16,7,Jits_ISO_8,3,1,48,36,1872304280
36,16,7,Jits_ISO_8,0,5,56,103,1872724532
36,16,7,Jits_ISO_8,1,5,80,127,1872753912
36,16,7,Jits_ISO_8,2,5,63,98,1872783736
36,16,7,Jits_ISO_8,3,1,48,40,1873200276
36,16,7,Jits_ISO_8,0,5,56,103,1873563964
36,16,7,Jits_ISO_8,1,5,80,127,1873583452
36,16,7,Jits_ISO_8,2,5,63,98,1873643864
36,16,7,Jits_ISO_8,3,1,48,21,1873992664
36,16,7,Jits_ISO_8,0,5,80,127,1874443584
36,16,7,Jits_ISO_8,1,5,56,103,1874453780
36,16,7,Jits_ISO_8,2,5,63,98,1874464052
36,16,7,Jits_ISO_8,0,1,48,40,1874930428
36,16,7,Jits_ISO_8,1,5,56,103,1875203424
36,16,7,Jits_ISO_8,2,5,80,127,1875244340
36,16,7,Jits_ISO_8,3,5,63,98,1875274088
36,16,7,Jits_ISO_8,0,1,48,41,1875771892
36,16,7,Jits_ISO_8,1,5,56,103,1875973544
36,16,7,Jits_ISO_8,2,5,63,98,1876004196
36,16,7,Jits_ISO_8,3,5,80,127,1876044284
36,16,7,Jits_ISO_8,0,1,48,34,1876580880
36,16,7,Jits_ISO_8,1,5,80,127,1876724032
36,16,7,Jits_ISO_8,2,5,63,98,1876774532
36,16,7,Jits_ISO_8,3,5,56,103,1876793720
36,16,7,Jits_ISO_8,0,1,48,40,1877402468
36,16,7,Jits_ISO_8,1,5,56,103,1877553476
36,16,7,Jits_ISO_8,2,5,80,127,1877624428
36,16,7,Jits_ISO_8,3,5,63,98,1877683624
36,16,7,Jits_ISO_8,0,1,48,27,1878234420
36,16,7,Jits_ISO_8,1,5,80,127,1878354528
36,16,7,Jits_ISO_8,2,5,63,98,1878444296
36,16,7,Jits_ISO_8,3,5,56,103,1878463860
36,16,7,Jits_ISO_8,0,1,48,27,1879025892
36,16,7,Jits_ISO_8,1,5,63,98,1879173428
36,16,7,Jits_ISO_8,2,5,56,103,1879194112
36,16,7,Jits_ISO_8,3,5,80,127,1879233972
36,16,7,Jits_ISO_8,0,1,48,28,1879851980
36,16,7,Jits_ISO_8,1,5,80,127,1879934416
36,16,7,Jits_ISO_8,2,5,63,98,1879953668
36,16,7,Jits_ISO_8,3,5,56,103,1880033708
36,16,7,Jits_ISO_8,0,5,63,98,1880723940
36,16,7,Jits_ISO_8,1,5,56,103,1880834556
36,16,7,Jits_ISO_8,2,5,80,127,1880837472
36,16,7,Jits_ISO_8,0,1,48,36,1881522412
36,16,7,Jits_ISO_8,1,5,63,98,1881544156
36,16,7,Jits_ISO_8,2,5,56,103,1881554280
36,16,7,Jits_ISO_8,3,5,80,127,1881557568
36,16,7,Jits_ISO_8,0,1,48,34,1882301160
36,16,7,Jits_ISO_8,1,5,56,103,1882324272
36,16,7,Jits_ISO_8,2,5,80,127,1882444284
36,16,7,Jits_ISO_8,3,5,63,98,1882484224
36,16,7,Jits_ISO_8,0,5,56,103,1883143620
36,16,7,Jits_ISO_8,1,1,48,27,1883188396
36,16,7,Jits_ISO_8,2,5,80,127,1883224388
36,16,7,Jits_ISO_8,3,5,63,98,1883244096
36,16,7,Jits_ISO_8,0,5,56,103,1883944240
36,16,7,Jits_ISO_8,1,1,48,33,1883959644
36,16,7,Jits_ISO_8,2,5,63,98,1884053924
36,16,7,Jits_ISO_8,3,5,80,127,1884058096
36,16,7,Jits_ISO_8,0,1,48,30,1884704144
36,16,7,Jits_ISO_8,1,5,56,103,1884773920
36,16,7,Jits_ISO_8,2,5,80,127,1884803584
36,16,7,Jits_ISO_8,3,5,63,98,1884824044
36,16,7,Jits_ISO_8,0,1,48,30,1885466236
36,16,7,Jits_ISO_8,1,5,63,98,1885554224
36,16,7,Jits_ISO_8,2,5,56,103,1885564256
36,16,7,Jits_ISO_8,3,5,80,127,1885573480
36,16,7,Jits_ISO_8,0,1,48,30,1886216492
36,16,7,Jits_ISO_8,1,5,80,127,1886343500
36,16,7,Jits_ISO_8,2,5,56,103,1886393852
36,16,7,Jits_ISO_8,3,5,63,98,1886433744
36,16,7,Jits_ISO_8,0,1,48,24,1887087148
36,16,7,Jits_ISO_8,1,5,80,127,1887163972
36,16,7,Jits_ISO_8,2,5,63,98,1887184196
36,16,7,Jits_ISO_8,3,5,56,103,1887234424
36,16,7,Jits_ISO_8,0,1,48,18,1887887388
36,16,7,Jits_ISO_8,1,5,80,127,1887973972
36,16,7,Jits_ISO_8,2,5,56,103,1888003488
36,16,7,Jits_ISO_8,3,5,63,98,1888074212
36,16,7,Jits_ISO_8,0,1,48,35,1888730864
36,16,7,Jits_ISO_8,1,5,56,103,1888823884
36,16,7,Jits_ISO_8,2,5,80,127,1888833988
36,16,7,Jits_ISO_8,3,5,63,98,1888873928
36,16,7,Jits_ISO_8,0,5,56,103,1889534368
36,16,7,Jits_ISO_8,1,1,48,34,1889536384
36,16,7,Jits_ISO_8,2,5,63,98,1889553848
36,16,7,Jits_ISO_8,3,5,80,127,1889624356
36,16,7,Jits_ISO_8,0,1,48,40,1890247184
36,16,7,Jits_ISO_8,1,5,63,98,1890353392
36,16,7,Jits_ISO_8,2,5,80,127,1890413936
36,16,7,Jits_ISO_8,3,5,56,103,1890434544
36,16,7,Jits_ISO_8,0,5,80,127,1891143980
36,16,7,Jits_ISO_8,1,5,56,103,1891173956
36,16,7,Jits_ISO_8,2,5,63,98,1891203480
36,16,7,Jits_ISO_8,0,5,56,103,1891943772
36,16,7,Jits_ISO_8,1,1,48,36,1892002796
36,16,7,Jits_ISO_8,2,5,63,98,1892004828
36,16,7,Jits_ISO_8,3,5,80,127,1892063752
36,16,7,Jits_ISO_8,0,1,48,38,1892644560
36,16,7,Jits_ISO_8,1,5,80,127,1892764076
36,16,7,Jits_ISO_8,2,5,56,103,1892783412
36,16,7,Jits_ISO_8,3,5,63,98,1892854020
36,16,7,Jits_ISO_8,0,1,48,41,1893470108
36,16,7,Jits_ISO_8,1,5,80,127,1893563724
36,16,7,Jits_ISO_8,2,5,63,98,1893584168
36,16,7,Jits_ISO_8,3,5,56,103,1893613944
36,16,7,Jits_ISO_8,0,5,80,127,1894354296
36,16,7,Jits_ISO_8,1,1,48,46,1894371372
36,16,7,Jits_ISO_8,2,5,63,98,1894373876
36,16,7,Jits_ISO_8,3,5,56,103,1894434116
36,16,7,Jits_ISO_8,0,1,48,39,1895083632
36,16,7,Jits_ISO_8,1,5,80,127,1895154036
36,16,7,Jits_ISO_8,2,5,56,103,1895254272
36,16,7,Jits_ISO_8,3,5,63,98,1895283948
36,16,7,Jits_ISO_8,0,5,63,98,1895943716
36,16,7,Jits_ISO_8,1,1,48,46,1895957248
36,16,7,Jits_ISO_8,2,5,80,127,1895993912
36,16,7,Jits_ISO_8,3,5,56,103,1896014148
36,16,7,Jits_ISO_8,0,1,48,50,1896671616
36,16,7,Jits_ISO_8,1,5,80,127,1896784232
36,16,7,Jits_ISO_8,2,5,56,103,1896813980
36,16,7,Jits_ISO_8,3,5,63,98,1896816900
36,16,7,Jits_ISO_8,0,1,48,41,1897488312
36,16,7,Jits_ISO_8,1,5,63,98,1897613676
36,16,7,Jits_ISO_8,2,5,56,103,1897653544
36,16,7,Jits_ISO_8,3,5,80,127,1897674076
36,16,7,Jits_ISO_8,0,1,48,43,1898299940
36,16,7,Jits_ISO_8,1,5,80,127,1898354140
36,16,7,Jits_ISO_8,2,5,63,98,1898433852
36,16,7,Jits_ISO_8,3,5,56,103,1898473816
36,16,7,Jits_ISO_8,0,1,48,38,1899149776
36,16,7,Jits_ISO_8,1,5,63,98,1899174532
36,16,7,Jits_ISO_8,2,5,80,127,1899254120
36,16,7,Jits_ISO_8,3,5,56,103,1899273604
36,16,7,Jits_ISO_8,0,1,48,42,1899955496
36,16,7,Jits_ISO_8,1,5,56,103,1900013836
36,16,7,Jits_ISO_8,2,5,63,98,1900024104
36,16,7,Jits_ISO_8,3,5,80,127,1900064180
36,16,7,Jits_ISO_8,0,5,56,103,1900733732
36,16,7,Jits_ISO_8,1,1,48,44,1900734716
36,16,7,Jits_ISO_8,2,5,80,127,1900738064
36,16,7,Jits_ISO_8,3,5,63,98,1900874140
36,16,7,Jits_ISO_8,0,1,48,41,1901439604
36,16,7,Jits_ISO_8,1,5,56,103,1901524472
36,16,7,Jits_ISO_8,2,5,63,98,1901613548
36,16,7,Jits_ISO_8,3,5,80,127,1901683980
36,16,7,Jits_ISO_8,0,1,48,49,1902321156
36,16,7,Jits_ISO_8,1,5,63,98,1902403904
36,16,7,Jits_ISO_8,2,5,80,127,1902407568
36,16,7,Jits_ISO_8,3,5,56,103,1902464280
36,16,7,Jits_ISO_8,0,1,48,40,1903092324
36,16,7,Jits_ISO_8,1,5,80,127,1903243676
36,16,7,Jits_ISO_8,2,5,56,103,1903264064
36,16,7,Jits_ISO_8,3,5,63,98,1903274556
36,16,7,Jits_ISO_8,0,5,56,103,1903954480
36,16,7,Jits_ISO_8,1,5,63,98,1903963480
36,16,7,Jits_ISO_8,2,1,48,43,1903980976
36,16,7,Jits_ISO_8,3,5,80,127,1904034276
36,16,7,Jits_ISO_8,0,1,48,42,1904641568
36,16,7,Jits_ISO_8,1,5,80,127,1904754252
36,16,7,Jits_ISO_8,2,5,56,103,1904804312
36,16,7,Jits_ISO_8,3,5,63,98,1904854464
36,16,7,Jits_ISO_8,0,1,48,49,1905490480
36,16,7,Jits_ISO_8,1,5,56,103,1905633784
36,16,7,Jits_ISO_8,2,5,63,98,1905643980
36,16,7,Jits_ISO_8,3,5,80,127,1905683768
36,16,7,Jits_ISO_8,0,1,48,39,1906272604
36,16,7,Jits_ISO_8,1,5,56,103,1906374204
36,16,7,Jits_ISO_8,2,5,63,98,1906413872
36,16,7,Jits_ISO_8,3,5,80,127,1906464520
36,16,7,Jits_ISO_8,0,1,48,45,1907073812
36,16,7,Jits_ISO_8,1,5,80,127,1907133700
36,16,7,Jits_ISO_8,2,5,56,103,1907184064
36,16,7,Jits_ISO_8,3,5,63,98,1907203400
36,16,7,Jits_ISO_8,0,1,48,45,1907891728
36,16,7,Jits_ISO_8,1,5,80,127,1907943772
36,16,7,Jits_ISO_8,2,5,63,98,1908004296
36,16,7,Jits_ISO_8,3,5,56,103,1908084240
36,16,7,Jits_ISO_8,0,1,48,47,1908701728
36,16,7,Jits_ISO_8,1,5,80,127,1908724372
36,16,7,Jits_ISO_8,2,5,56,103,1908764092
36,16,7,Jits_ISO_8,3,5,63,98,1908783504
36,16,7,Jits_ISO_8,0,1,48,47,1909461928
36,16,7,Jits_ISO_8,1,5,56,103,1909574260
36,16,7,Jits_ISO_8,2,5,80,127,1909584232
36,16,7,Jits_ISO_8,3,5,63,98,1909624172
36,16,7,Jits_ISO_8,0,1,48,41,1910232732
36,16,7,Jits_ISO_8,1,5,56,103,1910444252
36,16,7,Jits_ISO_8,2,5,63,98,1910484292
36,16,7,Jits_ISO_8,3,5,80,127,1910487432
36,16,7,Jits_ISO_8,0,1,48,48,1911079484
36,16,7,Jits_ISO_8,1,5,63,98,1911133688
36,16,7,Jits_ISO_8,2,5,80,127,1911173552
36,16,7,Jits_ISO_8,3,5,56,103,1911244264
36,16,7,Jits_ISO_8,0,1,48,46,1911830788
36,16,7,Jits_ISO_8,1,5,63,98,1911924104
36,16,7,Jits_ISO_8,2,5,56,103,1912003964
36,16,7,Jits_ISO_8,3,5,80,127,1912064232
36,16,7,Jits_ISO_8,0,1,48,48,1912640540
36,16,7,Jits_ISO_8,1,5,80,127,1912734228
36,16,7,Jits_ISO_8,2,5,63,98,1912784192
36,16,7,Jits_ISO_8,3,5,56,103,1912814240
36,16,7,Jits_ISO_8,0,1,48,45,1913470192
36,16,7,Jits_ISO_8,1,5,56,103,1913523496
36,16,7,Jits_ISO_8,2,5,63,98,1913573856
36,16,7,Jits_ISO_8,3,5,80,127,1913583980
36,16,7,Jits_ISO_8,0,1,48,48,1914242036
36,16,7,Jits_ISO_8,1,5,56,103,1914333492
36,16,7,Jits_ISO_8,2,5,63,98,1914444216
36,16,7,Jits_ISO_8,3,5,80,127,1914463480
36,16,7,Jits_ISO_8,0,1,48,41,1915034708
36,16,7,Jits_ISO_8,1,5,63,98,1915134460
36,16,7,Jits_ISO_8,2,5,80,127,1915183468
36,16,7,Jits_ISO_8,3,5,56,103,1915273900
36,16,7,Jits_ISO_8,0,1,48,44,1915899388
36,16,7,Jits_ISO_8,1,5,63,98,1915924068
36,16,7,Jits_ISO_8,2,5,80,127,1915953596
36,16,7,Jits_ISO_8,3,5,56,103,1916043564
36,16,7,Jits_ISO_8,0,5,63,98,1916723708
36,16,7,Jits_ISO_8,1,5,56,103,1916733908
36,16,7,Jits_ISO_8,2,1,48,41,1916742204
36,16,7,Jits_ISO_8,3,5,80,127,1916834072
36,16,7,Jits_ISO_8,0,1,48,43,1917489588
36,16,7,Jits_ISO_8,1,5,63,98,1917623868
36,16,7,Jits_ISO_8,2,5,80,127,1917654320
36,16,7,Jits_ISO_8,3,5,56,103,1917683996
36,16,7,Jits_ISO_8,0,1,48,23,1918310208
36,16,7,Jits_ISO_8,1,5,80,127,1918443844
36,16,7,Jits_ISO_8,2,5,63,98,1918454264
36,16,7,Jits_ISO_8,3,5,56,103,1918483940
36,16,7,Jits_ISO_8,0,1,48,43,1919109104
36,16,7,Jits_ISO_8,1,5,80,127,1919144276
36,16,7,Jits_ISO_8,2,5,63,98,1919163692
36,16,7,Jits_ISO_8,3,5,56,103,1919213828
36,16,7,Jits_ISO_8,0,1,48,41,1919895712
36,16,7,Jits_ISO_8,1,5,63,98,1919973976
36,16,7,Jits_ISO_8,2,5,80,127,1920034132
36,16,7,Jits_ISO_8,3,5,56,103,1920053844
36,16,7,Jits_ISO_8,0,1,48,38,1920717520
36,16,7,Jits_ISO_8,1,5,63,98,1920733684
36,16,7,Jits_ISO_8,2,5,56,103,1920783664
36,16,7,Jits_ISO_8,3,5,80,127,1920793936
36,16,7,Jits_ISO_8,0,1,48,44,1921516580
36,16,7,Jits_ISO_8,1,5,56,103,1921564028
36,16,7,Jits_ISO_8,2,5,80,127,1921574376
36,16,7,Jits_ISO_8,3,5,63,98,1921673712
36,16,7,Jits_ISO_8,0,1,48,41,1922287364
36,16,7,Jits_ISO_8,1,5,80,127,1922323808
36,16,7,Jits_ISO_8,2,5,63,98,1922334152
36,16,7,Jits_ISO_8,3,5,56,103,1922483828
36,16,7,Jits_ISO_8,0,1,48,44,1923066840
36,16,7,Jits_ISO_8,1,5,63,98,1923133852
36,16,7,Jits_ISO_8,2,5,80,127,1923173704
36,16,7,Jits_ISO_8,3,5,56,103,1923253496
36,16,7,Jits_ISO_8,0,1,48,45,1923807436
36,16,7,Jits_ISO_8,1,5,56,103,1923924624
36,16,7,Jits_ISO_8,2,5,80,127,1924023756
36,16,7,Jits_ISO_8,3,5,63,98,1924044140
36,16,7,Jits_ISO_8,0,1,48,41,1924645356
36,16,7,Jits_ISO_8,1,5,80,127,1924783676
36,16,7,Jits_ISO_8,2,5,56,103,1924793652
36,16,7,Jits_ISO_8,3,5,63,98,1924883736
36,16,7,Jits_ISO_8,0,1,48,47,1925486500
36,16,7,Jits_ISO_8,1,5,56,103,1925584376
36,16,7,Jits_ISO_8,2,5,63,98,1925603724
36,16,7,Jits_ISO_8,3,5,80,127,1925683668
36,16,7,Jits_ISO_8,0,1,48,46,1926248820
36,16,7,Jits_ISO_8,1,5,63,98,1926333816
36,16,7,Jits_ISO_8,2,5,56,103,1926423884
36,16,7,Jits_ISO_8,3,5,80,127,1926427104
36,16,7,Jits_ISO_8,0,1,48,39,1926992632
36,16,7,Jits_ISO_8,1,5,56,103,1927164388
36,16,7,Jits_ISO_8,2,5,80,127,1927223660
36,16,7,Jits_ISO_8,3,5,63,98,1927233936
36,16,7,Jits_ISO_8,0,1,48,46,1927842544
36,16,7,Jits_ISO_8,1,5,80,127,1928014452
36,16,7,Jits_ISO_8,2,5,56,103,1928024572
36,16,7,Jits_ISO_8,3,5,63,98,1928027712
36,16,7,Jits_ISO_8,0,1,48,44,1928638568
36,16,7,Jits_ISO_8,1,5,56,103,1928774068
36,16,7,Jits_ISO_8,2,5,80,127,1928784416
36,16,7,Jits_ISO_8,3,5,63,98,1928803684
36,16,7,Jits_ISO_8,0,1,48,49,1929395948
36,16,7,Jits_ISO_8,1,5,63,98,1929544036
36,16,7,Jits_ISO_8,2,5,80,127,1929603456
36,16,7,Jits_ISO_8,3,5,56,103,1929653660
36,16,7,Jits_ISO_8,0,1,48,43,1930217636
36,16,7,Jits_ISO_8,1,5,63,98,1930423616
36,16,7,Jits_ISO_8,2,5,56,103,1930433812
36,16,7,Jits_ISO_8,3,5,80,127,1930484260
36,16,7,Jits_ISO_8,0,1,48,46,1931121880
36,16,7,Jits_ISO_8,1,5,63,98,1931124216
36,16,7,Jits_ISO_8,2,5,80,127,1931143480
36,16,7,Jits_ISO_8,3,5,56,103,1931153824
36,16,7,Jits_ISO_8,0,5,63,98,1931923924
36,16,7,Jits_ISO_8,1,5,80,127,1931927140
36,16,7,Jits_ISO_8,2,1,48,55,1931941272
36,16,7,Jits_ISO_8,3,5,56,103,1931963708
36,16,7,Jits_ISO_8,0,1,48,46,1932698632
36,16,7,Jits_ISO_8,1,5,63,98,1932794348
36,16,7,Jits_ISO_8,2,5,80,127,1932823876
36,16,7,Jits_ISO_8,3,5,56,103,1932834148
36,16,7,Jits_ISO_8,0,5,56,103,1933543736
36,16,7,Jits_ISO_8,1,1,48,39,1933548348
36,16,7,Jits_ISO_8,2,5,80,127,1933573552
36,16,7,Jits_ISO_8,3,5,63,98,1933604128
36,16,7,Jits_ISO_8,0,1,48,56,1934384484
36,16,7,Jits_ISO_8,1,5,63,98,1934443996
36,16,7,Jits_ISO_8,2,5,56,103,1934483844
36,16,7,Jits_ISO_8,3,5,80,127,1934487060
36,16,7,Jits_ISO_8,0,5,80,127,1935144288
36,16,7,Jits_ISO_8,1,1,48,43,1935154680
36,16,7,Jits_ISO_8,2,5,56,103,1935224228
36,16,7,Jits_ISO_8,3,5,63,98,1935274340
36,16,7,Jits_ISO_8,0,5,80,127,1935923636
36,16,7,Jits_ISO_8,1,5,56,103,1935944392
36,16,7,Jits_ISO_8,2,1,48,68,1935988344
36,16,7,Jits_ISO_8,3,5,63,98,1936034072
36,16,7,Jits_ISO_8,0,5,80,127,1936764408
36,16,7,Jits_ISO_8,1,1,48,26,1936784468
36,16,7,Jits_ISO_8,2,5,63,98,1936804344
36,16,7,Jits_ISO_8,3,5,56,103,1936844284
36,16,7,Jits_ISO_8,0,5,63,98,1937534388
36,16,7,Jits_ISO_8,1,1,48,57,1937570616
36,16,7,Jits_ISO_8,2,5,80,127,1937593728
36,16,7,Jits_ISO_8,3,5,56,103,1937624476
36,16,7,Jits_ISO_8,0,1,48,52,1938276000
36,16,7,Jits_ISO_8,1,5,56,103,1938334164
36,16,7,Jits_ISO_8,2,5,80,127,1938363696
36,16,7,Jits_ISO_8,3,5,63,98,1938454208
36,16,7,Jits_ISO_8,0,1,48,62,1939066564
36,16,7,Jits_ISO_8,1,5,56,103,1939144060
36,16,7,Jits_ISO_8,2,5,80,127,1939253616
36,16,7,Jits_ISO_8,3,5,63,98,1939284188
36,16,7,Jits_ISO_8,0,1,48,29,1939867620
36,16,7,Jits_ISO_8,1,5,56,103,1939994060
36,16,7,Jits_ISO_8,2,5,63,98,1940054380
36,16,7,Jits_ISO_8,3,5,80,127,1940084052
36,16,7,Jits_ISO_8,0,1,48,57,1940684348
36,16,7,Jits_ISO_8,1,5,56,103,1940764116
36,16,7,Jits_ISO_8,2,5,63,98,1940833788
36,16,7,Jits_ISO_8,3,5,80,127,1940854024
36,16,7,Jits_ISO_8,0,1,48,61,1941440972
36,16,7,Jits_ISO_8,1,5,80,127,1941533996
36,16,7,Jits_ISO_8,2,5,63,98,1941553632
36,16,7,Jits_ISO_8,3,5,56,103,1941603984
36,16,7,Jits_ISO_8,0,9999,9999,9999,1846801464
36,16,7,Jits_ISO_8,1,9999,9999,9999,1847601224
36,16,7,Jits_ISO_8,2,9999,9999,9999,1848401996
36,16,7,Jits_ISO_8,3,9999,9999,9999,1849201720
36,16,7,Jits_ISO_8,4,9999,9999,9999,1850001496
36,16,7,Jits_ISO_8,5,9999,9999,9999,1850801208
36,16,7,Jits_ISO_8,6,9999,9999,9999,1851602040
36,16,7,Jits_ISO_8,7,9999,9999,9999,1852401768
36,16,7,Jits_ISO_8,8,9999,9999,9999,1853201480
36,16,7,Jits_ISO_8,9,9999,9999,9999,1854001228
36,16,7,Jits_ISO_8,10,9999,9999,9999,1854801992
36,16,7,Jits_ISO_8,11,9999,9999,9999,1855601776
36,16,7,Jits_ISO_8,12,9999,9999,9999,1856401488
36,16,7,Jits_ISO_8,13,9999,9999,9999,1857201268
36,16,7,Jits_ISO_8,14,9999,9999,9999,1858002008
36,16,7,Jits_ISO_8,15,9999,9999,9999,1858801728
36,16,7,Jits_ISO_8,16,9999,9999,9999,1859601496
36,16,7,Jits_ISO_8,17,9999,9999,9999,1860401212
36,16,7,Jits_ISO_8,18,9999,9999,9999,1861201972
36,16,7,Jits_ISO_8,19,9999,9999,9999,1862001756
36,16,7,Jits_ISO_8,20,9999,9999,9999,1862801464
36,16,7,Jits_ISO_8,21,9999,9999,9999,1863601248
36,16,7,Jits_ISO_8,22,9999,9999,9999,1864401996
36,16,7,Jits_ISO_8,23,9999,9999,9999,1865201720
36,16,7,Jits_ISO_8,24,9999,9999,9999,1866001504
36,16,7,Jits_ISO_8,25,9999,9999,9999,1866801212
36,16,7,Jits_ISO_8,26,9999,9999,9999,1867602040
36,16,7,Jits_ISO_8,27,9999,9999,9999,1868401748
36,16,7,Jits_ISO_8,28,9999,9999,9999,1869201532
36,16,7,Jits_ISO_8,29,9999,9999,9999,1870001248
36,16,7,Jits_ISO_8,30,9999,9999,9999,1870802000
36,16,7,Jits_ISO_8,31,9999,9999,9999,1871601716
36,16,7,Jits_ISO_8,32,9999,9999,9999,1872401508
36,16,7,Jits_ISO_8,33,9999,9999,9999,1873201240
36,16,7,Jits_ISO_8,34,9999,9999,9999,1874002008
36,16,7,Jits_ISO_8,35,9999,9999,9999,1874801748
36,16,7,Jits_ISO_8,36,9999,9999,9999,1875601524
36,16,7,Jits_ISO_8,37,9999,9999,9999,1876401236
36,16,7,Jits_ISO_8,38,9999,9999,9999,1877201988
36,16,7,Jits_ISO_8,39,9999,9999,9999,1878001720
36,16,7,Jits_ISO_8,40,9999,9999,9999,1878801508
36,16,7,Jits_ISO_8,41,9999,9999,9999,1879601216
36,16,7,Jits_ISO_8,42,9999,9999,9999,1880401972
36,16,7,Jits_ISO_8,43,9999,9999,9999,1881201768
36,16,7,Jits_ISO_8,44,9999,9999,9999,1882001488
36,16,7,Jits_ISO_8,45,9999,9999,9999,1882801252
36,16,7,Jits_ISO_8,46,9999,9999,9999,1883602008
36,16,7,Jits_ISO_8,47,9999,9999,9999,1884401744
36,16,7,Jits_ISO_8,48,9999,9999,9999,1885201472
36,16,7,Jits_ISO_8,49,9999,9999,9999,1886001252
36,16,7,Jits_ISO_8,50,9999,9999,9999,1886802004
36,16,7,Jits_ISO_8,51,9999,9999,9999,1887601788
36,16,7,Jits_ISO_8,52,9999,9999,9999,1888401500
36,16,7,Jits_ISO_8,53,9999,9999,9999,1889201216
36,16,7,Jits_ISO_8,54,9999,9999,9999,1890002044
36,16,7,Jits_ISO_8,55,9999,9999,9999,1890801784
36,16,7,Jits_ISO_8,56,9999,9999,9999,1891601512
36,16,7,Jits_ISO_8,57,9999,9999,9999,1892401212
36,16,7,Jits_ISO_8,58,9999,9999,9999,1893201980
36,16,7,Jits_ISO_8,59,9999,9999,9999,1894001760
36,16,7,Jits_ISO_8,60,9999,9999,9999,1894801468
36,16,7,Jits_ISO_8,61,9999,9999,9999,1895601268
36,16,7,Jits_ISO_8,62,9999,9999,9999,1896402024
36,16,7,Jits_ISO_8,63,9999,9999,9999,1897201748
36,16,7,Jits_ISO_8,64,9999,9999,9999,1898001464
36,16,7,Jits_ISO_8,65,9999,9999,9999,1898801252
36,16,7,Jits_ISO_8,66,9999,9999,9999,1899602012
36,16,7,Jits_ISO_8,67,9999,9999,9999,1900401728
36,16,7,Jits_ISO_8,68,9999,9999,9999,1901201504
36,16,7,Jits_ISO_8,69,9999,9999,9999,1902001228
36,16,7,Jits_ISO_8,70,9999,9999,9999,1902801980
36,16,7,Jits_ISO_8,71,9999,9999,9999,1903601720
36,16,7,Jits_ISO_8,72,9999,9999,9999,1904401504
36,16,7,Jits_ISO_8,73,9999,9999,9999,1905201228
36,16,7,Jits_ISO_8,74,9999,9999,9999,1906001988
36,16,7,Jits_ISO_8,75,9999,9999,9999,1906801772
36,16,7,Jits_ISO_8,76,9999,9999,9999,1907601480
36,16,7,Jits_ISO_8,77,9999,9999,9999,1908401268
36,16,7,Jits_ISO_8,78,9999,9999,9999,1909202024
36,16,7,Jits_ISO_8,79,9999,9999,9999,1910001752
36,16,7,Jits_ISO_8,80,9999,9999,9999,1910801464
36,16,7,Jits_ISO_8,81,9999,9999,9999,1911601244
36,16,7,Jits_ISO_8,82,9999,9999,9999,1912402004
36,16,7,Jits_ISO_8,83,9999,9999,9999,1913201760
36,16,7,Jits_ISO_8,84,9999,9999,9999,1914001464
36,16,7,Jits_ISO_8,85,9999,9999,9999,1914801256
36,16,7,Jits_ISO_8,86,9999,9999,9999,1915602036
36,16,7,Jits_ISO_8,87,9999,9999,9999,1916401740
36,16,7,Jits_ISO_8,88,9999,9999,9999,1917201524
36,16,7,Jits_ISO_8,89,9999,9999,9999,1918001244
36,16,7,Jits_ISO_8,90,9999,9999,9999,1918802012
36,16,7,Jits_ISO_8,91,9999,9999,9999,1919601716
36,16,7,Jits_ISO_8,92,9999,9999,9999,1920401508
36,16,7,Jits_ISO_8,93,9999,9999,9999,1921201216
36,16,7,Jits_ISO_8,94,9999,9999,9999,1922001996
36,16,7,Jits_ISO_8,95,9999,9999,9999,1922801776
36,16,7,Jits_ISO_8,96,9999,9999,9999,1923601484
36,16,7,Jits_ISO_8,97,9999,9999,9999,1924401268
36,16,7,Jits_ISO_8,98,9999,9999,9999,1925202028
36,16,7,Jits_ISO_8,99,9999,9999,9999,1926001740
36,16,7,Jits_ISO_8,100,9999,9999,9999,1926801516
36,16,7,Jits_ISO_8,101,9999,9999,9999,1927601224
36,16,7,Jits_ISO_8,102,9999,9999,9999,1928402004
36,16,7,Jits_ISO_8,103,9999,9999,9999,1929201784
36,16,7,Jits_ISO_8,104,9999,9999,9999,1930001496
36,16,7,Jits_ISO_8,105,9999,9999,9999,1930801212
36,16,7,Jits_ISO_8,106,9999,9999,9999,1931602032
36,16,7,Jits_ISO_8,107,9999,9999,9999,1932401724
36,16,7,Jits_ISO_8,108,9999,9999,9999,1933201512
36,16,7,Jits_ISO_8,109,9999,9999,9999,1934001220
36,16,7,Jits_ISO_8,110,9999,9999,9999,1934802016
36,16,7,Jits_ISO_8,111,9999,9999,9999,1935601728
36,16,7,Jits_ISO_8,112,9999,9999,9999,1936401524
36,16,7,Jits_ISO_8,113,9999,9999,9999,1937201248
36,16,7,Jits_ISO_8,114,9999,9999,9999,1938002016
36,16,7,Jits_ISO_8,115,9999,9999,9999,1938801724
36,16,7,Jits_ISO_8,116,9999,9999,9999,1939601508
36,16,7,Jits_ISO_8,117,9999,9999,9999,1940401228
36,16,7,Jits_ISO_8,118,9999,9999,9999,1941202008
36,16,7,Jits_ISO_8,119,9999,9999,9999,1942001716
36,17,16,Jits_ISO_5,0,5,56,103,1953909228
36,17,16,Jits_ISO_5,1,5,63,98,1953912252
36,17,16,Jits_ISO_5,2,5,80,127,1953915376
36,17,16,Jits_ISO_5,3,1,48,25,1954140264
36,17,16,Jits_ISO_5,0,5,56,103,1954408808
36,17,16,Jits_ISO_5,1,5,63,98,1954411984
36,17,16,Jits_ISO_5,2,5,80,127,1954414956
36,17,16,Jits_ISO_5,3,1,48,46,1954626892
36,17,16,Jits_ISO_5,0,5,56,103,1954908484
36,17,16,Jits_ISO_5,1,5,80,127,1954918680
36,17,16,Jits_ISO_5,2,5,63,98,1954939432
36,17,16,Jits_ISO_5,3,1,48,34,1955080488
36,17,16,Jits_ISO_5,0,5,63,98,1955359232
36,17,16,Jits_ISO_5,1,5,80,127,1955388836
36,17,16,Jits_ISO_5,2,5,56,103,1955398956
36,17,16,Jits_ISO_5,3,1,48,45,1955545916
36,17,16,Jits_ISO_5,0,5,80,127,1955919424
36,17,16,Jits_ISO_5,1,5,56,103,1955928572
36,17,16,Jits_ISO_5,2,5,63,98,1955959292
36,17,16,Jits_ISO_5,3,1,48,44,1956005704
36,17,16,Jits_ISO_5,0,5,63,98,1956408764
36,17,16,Jits_ISO_5,1,5,56,103,1956439412
36,17,16,Jits_ISO_5,2,5,80,127,1956448636
36,17,16,Jits_ISO_5,3,1,48,43,1956471380
36,17,16,Jits_ISO_5,0,5,56,103,1956859356
36,17,16,Jits_ISO_5,1,5,63,98,1956909332
36,17,16,Jits_ISO_5,2,5,80,127,1956928820
36,17,16,Jits_ISO_5,3,1,48,40,1956970364
36,17,16,Jits_ISO_5,0,5,80,127,1957358952
36,17,16,Jits_ISO_5,1,5,63,98,1957409304
36,17,16,Jits_ISO_5,2,1,48,44,1957421192
36,17,16,Jits_ISO_5,3,5,56,103,1957449304
36,17,16,Jits_ISO_5,0,5,56,103,1957858704
36,17,16,Jits_ISO_5,1,5,63,98,1957889276
36,17,16,Jits_ISO_5,2,1,48,43,1957927312
36,17,16,Jits_ISO_5,3,5,80,127,1957959168
36,17,16,Jits_ISO_5,0,5,56,103,1958359352
36,17,16,Jits_ISO_5,1,1,48,48,1958368696
36,17,16,Jits_ISO_5,2,5,80,127,1958418760
36,17,16,Jits_ISO_5,3,5,63,98,1958448436
36,17,16,Jits_ISO_5,0,5,56,103,1958869216
36,17,16,Jits_ISO_5,1,5,63,98,1958878516
36,17,16,Jits_ISO_5,2,5,80,127,1958918452
36,17,16,Jits_ISO_5,3,1,48,46,1958930332
36,17,16,Jits_ISO_5,0,5,63,98,1959359048
36,17,16,Jits_ISO_5,1,1,48,33,1959408568
36,17,16,Jits_ISO_5,2,5,80,127,1959438560
36,17,16,Jits_ISO_5,3,5,56,103,1959449204
36,17,16,Jits_ISO_5,0,1,48,43,1959850880
36,17,16,Jits_ISO_5,1,5,63,98,1959908700
36,17,16,Jits_ISO_5,2,5,56,103,1959948696
36,17,16,Jits_ISO_5,3,5,80,127,1959951984
36,17,16,Jits_ISO_5,0,5,56,103,1960368404
36,17,16,Jits_ISO_5,1,1,48,48,1960369372
36,17,16,Jits_ISO_5,2,5,63,98,1960378668
36,17,16,Jits_ISO_5,3,5,80,127,1960418552
36,17,16,Jits_ISO_5,0,1,48,47,1960843756
36,17,16,Jits_ISO_5,1,5,56,103,1960859228
36,17,16,Jits_ISO_5,2,5,63,98,1960862212
36,17,16,Jits_ISO_5,3,5,80,127,1960878408
36,17,16,Jits_ISO_5,0,1,48,50,1961354788
36,17,16,Jits_ISO_5,1,5,80,127,1961369056
36,17,16,Jits_ISO_5,2,5,56,103,1961379180
36,17,16,Jits_ISO_5,3,5,63,98,1961448952
36,17,16,Jits_ISO_5,0,1,48,44,1961852280
36,17,16,Jits_ISO_5,1,5,63,98,1961858380
36,17,16,Jits_ISO_5,2,5,56,103,1961879060
36,17,16,Jits_ISO_5,3,5,80,127,1961958636
36,17,16,Jits_ISO_5,0,1,48,45,1962363924
36,17,16,Jits_ISO_5,1,5,56,103,1962369272
36,17,16,Jits_ISO_5,2,5,80,127,1962409284
36,17,16,Jits_ISO_5,3,5,63,98,1962418432
36,17,16,Jits_ISO_5,0,5,80,127,1962858824
36,17,16,Jits_ISO_5,1,5,63,98,1962888500
36,17,16,Jits_ISO_5,2,1,48,40,1962889464
36,17,16,Jits_ISO_5,3,5,56,103,1962928428
36,17,16,Jits_ISO_5,0,1,48,45,1963374040
36,17,16,Jits_ISO_5,1,5,56,103,1963379240
36,17,16,Jits_ISO_5,2,5,63,98,1963408692
36,17,16,Jits_ISO_5,3,5,80,127,1963459188
36,17,16,Jits_ISO_5,0,1,48,50,1963845304
36,17,16,Jits_ISO_5,1,5,80,127,1963878828
36,17,16,Jits_ISO_5,2,5,56,103,1963918692
36,17,16,Jits_ISO_5,3,5,63,98,1963928888
36,17,16,Jits_ISO_5,0,5,80,127,1964359092
36,17,16,Jits_ISO_5,1,1,48,55,1964381164
36,17,16,Jits_ISO_5,2,5,63,98,1964399096
36,17,16,Jits_ISO_5,3,5,56,103,1964459484
36,17,16,Jits_ISO_5,0,5,56,103,1964858844
36,17,16,Jits_ISO_5,1,5,80,127,1964868892
36,17,16,Jits_ISO_5,2,1,48,56,1964918012
36,17,16,Jits_ISO_5,3,5,63,98,1964949044
36,17,16,Jits_ISO_5,0,5,80,127,1965358512
36,17,16,Jits_ISO_5,1,5,63,98,1965418976
36,17,16,Jits_ISO_5,2,1,48,44,1965420016
36,17,16,Jits_ISO_5,3,5,56,103,1965448420
36,17,16,Jits_ISO_5,0,5,56,103,1965859236
36,17,16,Jits_ISO_5,1,5,80,127,1965918504
36,17,16,Jits_ISO_5,2,1,48,50,1965920368
36,17,16,Jits_ISO_5,3,5,63,98,1965958508
36,17,16,Jits_ISO_5,0,1,48,53,1966364116
36,17,16,Jits_ISO_5,1,5,56,103,1966409028
36,17,16,Jits_ISO_5,2,5,63,98,1966419444
36,17,16,Jits_ISO_5,3,5,80,127,1966422808
36,17,16,Jits_ISO_5,0,5,80,127,1966858564
36,17,16,Jits_ISO_5,1,1,48,54,1966875308
36,17,16,Jits_ISO_5,2,5,63,98,1966948988
36,17,16,Jits_ISO_5,3,5,56,103,1966958960
36,17,16,Jits_ISO_5,0,5,56,103,1967359344
36,17,16,Jits_ISO_5,1,5,63,98,1967362364
36,17,16,Jits_ISO_5,2,5,80,127,1967365712
36,17,16,Jits_ISO_5,3,1,48,56,1967380980
36,17,16,Jits_ISO_5,0,5,80,127,1967878640
36,17,16,Jits_ISO_5,1,1,48,54,1967894788
36,17,16,Jits_ISO_5,2,5,63,98,1967928908
36,17,16,Jits_ISO_5,3,5,56,103,1967959404
36,17,16,Jits_ISO_5,0,5,56,103,1968358760
36,17,16,Jits_ISO_5,1,5,80,127,1968368956
36,17,16,Jits_ISO_5,2,1,48,55,1968403836
36,17,16,Jits_ISO_5,3,5,63,98,1968438848
36,17,16,Jits_ISO_5,0,1,48,56,1968840240
36,17,16,Jits_ISO_5,1,5,56,103,1968868836
36,17,16,Jits_ISO_5,2,5,63,98,1968889148
36,17,16,Jits_ISO_5,3,5,80,127,1968948692
36,17,16,Jits_ISO_5,0,1,48,53,1969306864
36,17,16,Jits_ISO_5,1,5,80,127,1969359200
36,17,16,Jits_ISO_5,2,5,63,98,1969428940
36,17,16,Jits_ISO_5,3,5,56,103,1969449324
36,17,16,Jits_ISO_5,0,5,80,127,1969879392
36,17,16,Jits_ISO_5,1,5,56,103,1969888616
36,17,16,Jits_ISO_5,2,5,63,98,1969898812
36,17,16,Jits_ISO_5,3,1,48,55,1969906416
36,17,16,Jits_ISO_5,0,5,80,127,1970368996
36,17,16,Jits_ISO_5,1,5,56,103,1970389480
36,17,16,Jits_ISO_5,2,1,48,53,1970397852
36,17,16,Jits_ISO_5,3,5,63,98,1970458928
36,17,16,Jits_ISO_5,0,1,48,53,1970857332
36,17,16,Jits_ISO_5,1,5,56,103,1970878852
36,17,16,Jits_ISO_5,2,5,80,127,1970908628
36,17,16,Jits_ISO_5,3,5,63,98,1970929012
36,17,16,Jits_ISO_5,0,1,48,59,1971322588
36,17,16,Jits_ISO_5,1,5,63,98,1971369444
36,17,16,Jits_ISO_5,2,5,56,103,1971428720
36,17,16,Jits_ISO_5,3,5,80,127,1971458544
36,17,16,Jits_ISO_5,0,1,48,51,1971820600
36,17,16,Jits_ISO_5,1,5,63,98,1971858676
36,17,16,Jits_ISO_5,2,5,80,127,1971861972
36,17,16,Jits_ISO_5,3,5,56,103,1971948944
36,17,16,Jits_ISO_5,0,1,48,59,1972344708
36,17,16,Jits_ISO_5,1,5,56,103,1972378984
36,17,16,Jits_ISO_5,2,5,63,98,1972408732
36,17,16,Jits_ISO_5,3,5,80,127,1972448756
36,17,16,Jits_ISO_5,0,5,63,98,1972878800
36,17,16,Jits_ISO_5,1,1,48,56,1972890912
36,17,16,Jits_ISO_5,2,5,56,103,1972918808
36,17,16,Jits_ISO_5,3,5,80,127,1972939116
36,17,16,Jits_ISO_5,0,5,63,98,1973388648
36,17,16,Jits_ISO_5,1,1,48,46,1973397692
36,17,16,Jits_ISO_5,2,5,56,103,1973428504
36,17,16,Jits_ISO_5,3,5,80,127,1973438924
36,17,16,Jits_ISO_5,0,5,80,127,1973868828
36,17,16,Jits_ISO_5,1,1,48,60,1973889556
36,17,16,Jits_ISO_5,2,5,63,98,1973938504
36,17,16,Jits_ISO_5,3,5,56,103,1973958884
36,17,16,Jits_ISO_5,0,5,56,103,1974359360
36,17,16,Jits_ISO_5,1,5,80,127,1974378996
36,17,16,Jits_ISO_5,2,1,48,62,1974385404
36,17,16,Jits_ISO_5,3,5,63,98,1974418776
36,17,16,Jits_ISO_5,0,1,48,58,1974833596
36,17,16,Jits_ISO_5,1,5,63,98,1974869288
36,17,16,Jits_ISO_5,2,5,80,127,1974888924
36,17,16,Jits_ISO_5,3,5,56,103,1974928696
36,17,16,Jits_ISO_5,0,1,48,56,1975339104
36,17,16,Jits_ISO_5,1,5,63,98,1975369020
36,17,16,Jits_ISO_5,2,5,56,103,1975388728
36,17,16,Jits_ISO_5,3,5,80,127,1975398852
36,17,16,Jits_ISO_5,0,1,48,59,1975865720
36,17,16,Jits_ISO_5,1,5,80,127,1975868748
36,17,16,Jits_ISO_5,2,5,56,103,1975889208
36,17,16,Jits_ISO_5,3,5,63,98,1975918956
36,17,16,Jits_ISO_5,0,1,48,57,1976324768
36,17,16,Jits_ISO_5,1,5,56,103,1976439260
36,17,16,Jits_ISO_5,2,5,80,127,1976442400
36,17,16,Jits_ISO_5,3,5,63,98,1976458600
36,17,16,Jits_ISO_5,0,5,63,98,1976859076
36,17,16,Jits_ISO_5,1,5,56,103,1976888748
36,17,16,Jits_ISO_5,2,1,48,35,1976943932
36,17,16,Jits_ISO_5,3,5,80,127,1976949056
36,17,16,Jits_ISO_5,0,5,63,98,1977438524
36,17,16,Jits_ISO_5,1,1,48,40,1977446976
36,17,16,Jits_ISO_5,2,5,56,103,1977448788
36,17,16,Jits_ISO_5,3,5,80,127,1977458908
36,17,16,Jits_ISO_5,0,5,56,103,1977889264
36,17,16,Jits_ISO_5,1,5,80,127,1977918864
36,17,16,Jits_ISO_5,2,5,63,98,1977929284
36,17,16,Jits_ISO_5,3,1,48,50,1977934872
36,17,16,Jits_ISO_5,0,1,48,46,1978410184
36,17,16,Jits_ISO_5,1,5,63,98,1978428864
36,17,16,Jits_ISO_5,2,5,56,103,1978439056
36,17,16,Jits_ISO_5,3,5,80,127,1978458472
36,17,16,Jits_ISO_5,0,5,56,103,1978858784
36,17,16,Jits_ISO_5,1,1,48,47,1978918176
36,17,16,Jits_ISO_5,2,5,63,98,1978919920
36,17,16,Jits_ISO_5,3,5,80,127,1978923052
36,17,16,Jits_ISO_5,0,1,48,45,1979374816
36,17,16,Jits_ISO_5,1,5,80,127,1979379116
36,17,16,Jits_ISO_5,2,5,56,103,1979389388
36,17,16,Jits_ISO_5,3,5,63,98,1979458916
36,17,16,Jits_ISO_5,0,5,80,127,1979868596
36,17,16,Jits_ISO_5,1,1,48,34,1979894480
36,17,16,Jits_ISO_5,2,5,56,103,1979939388
36,17,16,Jits_ISO_5,3,5,63,98,1979949512
36,17,16,Jits_ISO_5,0,1,48,46,1980366428
36,17,16,Jits_ISO_5,1,5,63,98,1980409316
36,17,16,Jits_ISO_5,2,5,56,103,1980418392
36,17,16,Jits_ISO_5,3,5,80,127,1980438852
36,17,16,Jits_ISO_5,0,5,80,127,1980858692
36,17,16,Jits_ISO_5,1,1,48,45,1980900192
36,17,16,Jits_ISO_5,2,5,63,98,1980919396
36,17,16,Jits_ISO_5,3,5,56,103,1980959256
36,17,16,Jits_ISO_5,0,5,56,103,1981399444
36,17,16,Jits_ISO_5,1,5,63,98,1981408740
36,17,16,Jits_ISO_5,2,1,48,48,1981443916
36,17,16,Jits_ISO_5,3,5,80,127,1981448744
36,17,16,Jits_ISO_5,0,5,56,103,1981859608
36,17,16,Jits_ISO_5,1,1,48,43,1981889136
36,17,16,Jits_ISO_5,2,5,80,127,1981890700
36,17,16,Jits_ISO_5,3,5,63,98,1981939200
36,17,16,Jits_ISO_5,0,1,48,43,1982330404
36,17,16,Jits_ISO_5,1,5,56,103,1982398832
36,17,16,Jits_ISO_5,2,5,63,98,1982438704
36,17,16,Jits_ISO_5,3,5,80,127,1982442288
36,17,16,Jits_ISO_5,0,5,56,103,1982898568
36,17,16,Jits_ISO_5,1,5,63,98,1982908764
36,17,16,Jits_ISO_5,2,1,48,45,1982922968
36,17,16,Jits_ISO_5,3,5,80,127,1982929240
36,17,16,Jits_ISO_5,0,5,56,103,1983359428
36,17,16,Jits_ISO_5,1,5,80,127,1983362496
36,17,16,Jits_ISO_5,2,1,48,44,1983396552
36,17,16,Jits_ISO_5,3,5,63,98,1983399508
36,17,16,Jits_ISO_5,0,1,48,44,1983851488
36,17,16,Jits_ISO_5,1,5,63,98,1983899096
36,17,16,Jits_ISO_5,2,5,56,103,1983928620
36,17,16,Jits_ISO_5,3,5,80,127,1983949460
36,17,16,Jits_ISO_5,0,5,80,127,1984369172
36,17,16,Jits_ISO_5,1,5,56,103,1984379368
36,17,16,Jits_ISO_5,2,1,48,52,1984388064
36,17,16,Jits_ISO_5,3,5,63,98,1984389852
36,17,16,Jits_ISO_5,0,5,56,103,1984868692
36,17,16,Jits_ISO_5,1,1,48,51,1984895924
36,17,16,Jits_ISO_5,2,5,80,127,1984908696
36,17,16,Jits_ISO_5,3,5,63,98,1984939344
36,17,16,Jits_ISO_5,0,1,48,50,1985346988
36,17,16,Jits_ISO_5,1,5,63,98,1985378624
36,17,16,Jits_ISO_5,2,5,80,127,1985389040
36,17,16,Jits_ISO_5,3,5,56,103,1985399236
36,17,16,Jits_ISO_5,0,5,56,103,1985859104
36,17,16,Jits_ISO_5,1,1,48,46,1985888148
36,17,16,Jits_ISO_5,2,5,63,98,1985928556
36,17,16,Jits_ISO_5,3,5,80,127,1985938676
36,17,16,Jits_ISO_5,0,5,80,127,1986358776
36,17,16,Jits_ISO_5,1,1,48,48,1986368300
36,17,16,Jits_ISO_5,2,5,56,103,1986370236
36,17,16,Jits_ISO_5,3,5,63,98,1986419164
36,17,16,Jits_ISO_5,0,1,48,52,1986822376
36,17,16,Jits_ISO_5,1,5,80,127,1986868632
36,17,16,Jits_ISO_5,2,5,56,103,1986929080
36,17,16,Jits_ISO_5,3,5,63,98,1986958828
36,17,16,Jits_ISO_5,0,5,56,103,1987369344
36,17,16,Jits_ISO_5,1,5,80,127,1987372484
36,17,16,Jits_ISO_5,2,5,63,98,1987409208
36,17,16,Jits_ISO_5,0,5,56,103,1987898592
36,17,16,Jits_ISO_5,1,5,63,98,1987928344
36,17,16,Jits_ISO_5,2,5,80,127,1987938536
36,17,16,Jits_ISO_5,3,1,48,38,1987983000
36,17,16,Jits_ISO_5,0,1,48,43,1988314912
36,17,16,Jits_ISO_5,1,5,63,98,1988408748
36,17,16,Jits_ISO_5,2,5,80,127,1988419076
36,17,16,Jits_ISO_5,3,5,56,103,1988429124
36,17,16,Jits_ISO_5,0,5,80,127,1988859192
36,17,16,Jits_ISO_5,1,1,48,54,1988878948
36,17,16,Jits_ISO_5,2,5,56,103,1988909304
36,17,16,Jits_ISO_5,3,5,63,98,1988912452
36,17,16,Jits_ISO_5,0,1,48,54,1989335216
36,17,16,Jits_ISO_5,1,5,56,103,1989388592
36,17,16,Jits_ISO_5,2,5,80,127,1989409124
36,17,16,Jits_ISO_5,3,5,63,98,1989419320
36,17,16,Jits_ISO_5,0,5,63,98,1989869000
36,17,16,Jits_ISO_5,1,1,48,59,1989869968
36,17,16,Jits_ISO_5,2,5,56,103,1989898596
36,17,16,Jits_ISO_5,3,5,80,127,1989919128
36,17,16,Jits_ISO_5,0,1,48,56,1990371620
36,17,16,Jits_ISO_5,1,5,56,103,1990379064
36,17,16,Jits_ISO_5,2,5,80,127,1990389184
36,17,16,Jits_ISO_5,3,5,63,98,1990458936
36,17,16,Jits_ISO_5,0,1,48,52,1990842184
36,17,16,Jits_ISO_5,1,5,63,98,1990869436
36,17,16,Jits_ISO_5,2,5,80,127,1990909372
36,17,16,Jits_ISO_5,3,5,56,103,1990949444
36,17,16,Jits_ISO_5,0,5,56,103,1991379364
36,17,16,Jits_ISO_5,1,5,63,98,1991388516
36,17,16,Jits_ISO_5,2,1,48,52,1991398980
36,17,16,Jits_ISO_5,3,5,80,127,1991409040
36,17,16,Jits_ISO_5,0,1,48,46,1991891664
36,17,16,Jits_ISO_5,1,5,63,98,1991919036
36,17,16,Jits_ISO_5,2,5,80,127,1991938448
36,17,16,Jits_ISO_5,3,5,56,103,1991959056
36,17,16,Jits_ISO_5,0,5,56,103,1992359200
36,17,16,Jits_ISO_5,1,1,48,47,1992394672
36,17,16,Jits_ISO_5,2,5,80,127,1992439160
36,17,16,Jits_ISO_5,3,5,63,98,1992449352
36,17,16,Jits_ISO_5,0,1,48,46,1992887616
36,17,16,Jits_ISO_5,1,5,80,127,1992899020
36,17,16,Jits_ISO_5,2,5,63,98,1992909240
36,17,16,Jits_ISO_5,3,5,56,103,1992938840
36,17,16,Jits_ISO_5,0,5,63,98,1993358824
36,17,16,Jits_ISO_5,1,5,80,127,1993398764
36,17,16,Jits_ISO_5,2,1,48,42,1993430228
36,17,16,Jits_ISO_5,3,5,56,103,1993459020
36,17,16,Jits_ISO_5,0,5,63,98,1993868824
36,17,16,Jits_ISO_5,1,1,48,44,1993875080
36,17,16,Jits_ISO_5,2,5,56,103,1993918792
36,17,16,Jits_ISO_5,3,5,80,127,1993948640
36,17,16,Jits_ISO_5,0,1,48,51,1994367776
36,17,16,Jits_ISO_5,1,5,80,127,1994378812
36,17,16,Jits_ISO_5,2,5,63,98,1994388932
36,17,16,Jits_ISO_5,3,1,48,23,1994446144
36,17,16,Jits_ISO_5,4,5,56,103,1994458392
36,17,16,Jits_ISO_5,0,1,48,54,1994915916
36,17,16,Jits_ISO_5,1,5,80,127,1994948988
36,17,16,Jits_ISO_5,2,5,56,103,1994959284
36,17,16,Jits_ISO_5,3,5,63,98,1994962272
36,17,16,Jits_ISO_5,0,5,56,103,1995389164
36,17,16,Jits_ISO_5,1,5,80,127,1995409024
36,17,16,Jits_ISO_5,2,5,63,98,1995419072
36,17,16,Jits_ISO_5,3,1,48,54,1995439500
36,17,16,Jits_ISO_5,0,5,63,98,1995899176
36,17,16,Jits_ISO_5,1,5,56,103,1995939188
36,17,16,Jits_ISO_5,2,5,80,127,1995958900
36,17,16,Jits_ISO_5,3,1,48,43,1995972128
36,17,16,Jits_ISO_5,0,1,48,51,1996382768
36,17,16,Jits_ISO_5,1,5,63,98,1996398908
36,17,16,Jits_ISO_5,2,5,56,103,1996459748
36,17,16,Jits_ISO_5,3,5,80,127,1996462736
36,17,16,Jits_ISO_5,0,5,56,103,1996858644
36,17,16,Jits_ISO_5,1,5,80,127,1996879176
36,17,16,Jits_ISO_5,2,1,48,53,1996902520
36,17,16,Jits_ISO_5,3,5,63,98,1996919028
36,17,16,Jits_ISO_5,0,1,48,50,1997374448
36,17,16,Jits_ISO_5,1,5,56,103,1997389020
36,17,16,Jits_ISO_5,2,5,63,98,1997408728
36,17,16,Jits_ISO_5,3,5,80,127,1997418776
36,17,16,Jits_ISO_5,0,1,48,46,1997814100
36,17,16,Jits_ISO_5,1,5,80,127,1997859380
36,17,16,Jits_ISO_5,2,5,56,103,1997888908
36,17,16,Jits_ISO_5,3,5,63,98,1997928832
36,17,16,Jits_ISO_5,0,1,48,50,1998319760
36,17,16,Jits_ISO_5,1,5,80,127,1998369008
36,17,16,Jits_ISO_5,2,5,56,103,1998388640
36,17,16,Jits_ISO_5,3,5,63,98,1998448940
36,17,16,Jits_ISO_5,0,1,48,44,1998822712
36,17,16,Jits_ISO_5,1,5,56,103,1998879004
36,17,16,Jits_ISO_5,2,5,80,127,1998898716
36,17,16,Jits_ISO_5,3,5,63,98,1998959012
36,17,16,Jits_ISO_5,0,1,48,51,1999343944
36,17,16,Jits_ISO_5,1,5,80,127,1999359560
36,17,16,Jits_ISO_5,2,5,56,103,1999368484
36,17,16,Jits_ISO_5,3,5,63,98,1999408716
36,17,16,Jits_ISO_5,0,1,48,58,1999821648
36,17,16,Jits_ISO_5,1,5,63,98,1999858916
36,17,16,Jits_ISO_5,2,5,56,103,1999898848
36,17,16,Jits_ISO_5,3,5,80,127,1999901992
36,17,16,Jits_ISO_5,0,5,63,98,2000379320
36,17,16,Jits_ISO_5,1,1,48,57,2000397804
36,17,16,Jits_ISO_5,2,5,80,127,2000419324
36,17,16,Jits_ISO_5,3,5,56,103,2000449000
36,17,16,Jits_ISO_5,0,5,56,103,2000868864
36,17,16,Jits_ISO_5,1,5,63,98,2000878988
36,17,16,Jits_ISO_5,2,5,80,127,2000908660
36,17,16,Jits_ISO_5,3,1,48,53,2000929236
36,17,16,Jits_ISO_5,0,5,80,127,2001359092
36,17,16,Jits_ISO_5,1,1,48,52,2001378624
36,17,16,Jits_ISO_5,2,5,63,98,2001428916
36,17,16,Jits_ISO_5,3,5,56,103,2001439036
36,17,16,Jits_ISO_5,0,5,63,98,2001858820
36,17,16,Jits_ISO_5,1,1,48,57,2001922716
36,17,16,Jits_ISO_5,2,5,56,103,2001928664
36,17,16,Jits_ISO_5,3,5,80,127,2001938712
36,17,16,Jits_ISO_5,0,1,48,50,2002318064
36,17,16,Jits_ISO_5,1,5,63,98,2002358696
36,17,16,Jits_ISO_5,2,5,56,103,2002379004
36,17,16,Jits_ISO_5,3,5,80,127,2002419024
36,17,16,Jits_ISO_5,0,5,56,103,2002868696
36,17,16,Jits_ISO_5,1,5,63,98,2002878744
36,17,16,Jits_ISO_5,2,1,48,54,2002941440
36,17,16,Jits_ISO_5,3,5,80,127,2002958848
36,17,16,Jits_ISO_5,0,5,63,98,2003359004
36,17,16,Jits_ISO_5,1,1,48,42,2003377416
36,17,16,Jits_ISO_5,2,5,56,103,2003388748
36,17,16,Jits_ISO_5,3,5,80,127,2003428708
36,17,16,Jits_ISO_5,0,5,56,103,2003858804
36,17,16,Jits_ISO_5,1,1,48,51,2003880500
36,17,16,Jits_ISO_5,2,5,63,98,2003898732
36,17,16,Jits_ISO_5,3,5,80,127,2003938692
36,17,16,Jits_ISO_5,0,5,80,127,2004358696
36,17,16,Jits_ISO_5,1,1,48,43,2004376564
36,17,16,Jits_ISO_5,2,5,56,103,2004439408
36,17,16,Jits_ISO_5,3,5,63,98,2004448556
36,17,16,Jits_ISO_5,0,1,48,41,2004886744
36,17,16,Jits_ISO_5,1,5,56,103,2004899344
36,17,16,Jits_ISO_5,2,5,63,98,2004902556
36,17,16,Jits_ISO_5,3,5,80,127,2004909464
36,17,16,Jits_ISO_5,0,1,48,50,2005375656
36,17,16,Jits_ISO_5,1,5,56,103,2005419444
36,17,16,Jits_ISO_5,2,5,63,98,2005438784
36,17,16,Jits_ISO_5,3,5,80,127,2005449052
36,17,16,Jits_ISO_5,0,5,63,98,2005879408
36,17,16,Jits_ISO_5,1,5,80,127,2005889456
36,17,16,Jits_ISO_5,2,5,56,103,2005908792
36,17,16,Jits_ISO_5,3,1,48,36,2005913552
36,17,16,Jits_ISO_5,0,5,63,98,2006378916
36,17,16,Jits_ISO_5,1,1,48,39,2006391548
36,17,16,Jits_ISO_5,2,5,56,103,2006458704
36,17,16,Jits_ISO_5,3,5,80,127,2006461844
36,17,16,Jits_ISO_5,0,1,48,44,2006843168
36,17,16,Jits_ISO_5,1,5,63,98,2006878564
36,17,16,Jits_ISO_5,2,5,56,103,2006899172
36,17,16,Jits_ISO_5,3,5,80,127,2006928696
36,17,16,Jits_ISO_5,0,1,48,42,2007336828
36,17,16,Jits_ISO_5,1,5,56,103,2007379272
36,17,16,Jits_ISO_5,2,5,63,98,2007398832
36,17,16,Jits_ISO_5,3,5,80,127,2007409252
36,17,16,Jits_ISO_5,0,1,48,52,2007828036
36,17,16,Jits_ISO_5,1,5,56,103,2007908600
36,17,16,Jits_ISO_5,2,5,63,98,2007938480
36,17,16,Jits_ISO_5,3,5,80,127,2007941768
36,17,16,Jits_ISO_5,0,5,56,103,2008359484
36,17,16,Jits_ISO_5,1,1,48,52,2008366436
36,17,16,Jits_ISO_5,2,5,63,98,2008399416
36,17,16,Jits_ISO_5,3,5,80,127,2008458740
36,17,16,Jits_ISO_5,0,5,56,103,2008878564
36,17,16,Jits_ISO_5,1,1,48,45,2008886716
36,17,16,Jits_ISO_5,2,5,63,98,2008888528
36,17,16,Jits_ISO_5,3,5,80,127,2008949288
36,17,16,Jits_ISO_5,0,5,56,103,2009379580
36,17,16,Jits_ISO_5,1,5,80,127,2009398692
36,17,16,Jits_ISO_5,2,1,48,52,2009406000
36,17,16,Jits_ISO_5,3,5,63,98,2009429332
36,17,16,Jits_ISO_5,0,1,48,44,2009870532
36,17,16,Jits_ISO_5,1,5,80,127,2009879024
36,17,16,Jits_ISO_5,2,5,56,103,2009889220
36,17,16,Jits_ISO_5,3,5,63,98,2009908556
36,17,16,Jits_ISO_5,0,1,48,50,2010331600
36,17,16,Jits_ISO_5,1,5,63,98,2010369316
36,17,16,Jits_ISO_5,2,5,80,127,2010449316
36,17,16,Jits_ISO_5,3,5,56,103,2010458464
36,17,16,Jits_ISO_5,0,1,48,51,2010855080
36,17,16,Jits_ISO_5,1,5,80,127,2010928464
36,17,16,Jits_ISO_5,2,5,56,103,2010949296
36,17,16,Jits_ISO_5,3,5,63,98,2010952208
36,17,16,Jits_ISO_5,0,1,48,53,2011391156
36,17,16,Jits_ISO_5,1,5,63,98,2011398368
36,17,16,Jits_ISO_5,2,5,80,127,2011401808
36,17,16,Jits_ISO_5,3,5,56,103,2011458980
36,17,16,Jits_ISO_5,0,5,56,103,2011878704
36,17,16,Jits_ISO_5,1,5,80,127,2011889344
36,17,16,Jits_ISO_5,2,1,48,50,2011919368
36,17,16,Jits_ISO_5,3,5,63,98,2011929200
36,17,16,Jits_ISO_5,0,5,56,103,2012359020
36,17,16,Jits_ISO_5,1,1,48,40,2012361916
36,17,16,Jits_ISO_5,2,5,63,98,2012418456
36,17,16,Jits_ISO_5,3,5,80,127,2012428576
36,17,16,Jits_ISO_5,0,1,48,54,2012842104
36,17,16,Jits_ISO_5,1,5,63,98,2012869180
36,17,16,Jits_ISO_5,2,5,80,127,2012908992
36,17,16,Jits_ISO_5,3,5,56,103,2012948988
36,17,16,Jits_ISO_5,0,5,56,103,2013368620
36,17,16,Jits_ISO_5,1,1,48,48,2013423976
36,17,16,Jits_ISO_5,2,5,63,98,2013448728
36,17,16,Jits_ISO_5,3,5,80,127,2013452092
36,17,16,Jits_ISO_5,0,9999,9999,9999,1954156652
36,17,16,Jits_ISO_5,1,9999,9999,9999,1954656308
36,17,16,Jits_ISO_5,2,9999,9999,9999,1955157104
36,17,16,Jits_ISO_5,3,9999,9999,9999,1955656760
36,17,16,Jits_ISO_5,4,9999,9999,9999,1956156500
36,17,16,Jits_ISO_5,5,9999,9999,9999,1956656252
36,17,16,Jits_ISO_5,6,9999,9999,9999,1957156956
36,17,16,Jits_ISO_5,7,9999,9999,9999,1957656632
36,17,16,Jits_ISO_5,8,9999,9999,9999,1958156380
36,17,16,Jits_ISO_5,9,9999,9999,9999,1958656056
36,17,16,Jits_ISO_5,10,9999,9999,9999,1959156852
36,17,16,Jits_ISO_5,11,9999,9999,9999,1959656528
36,17,16,Jits_ISO_5,12,9999,9999,9999,1960156260
36,17,16,Jits_ISO_5,13,9999,9999,9999,1960656960
36,17,16,Jits_ISO_5,14,9999,9999,9999,1961156672
36,17,16,Jits_ISO_5,15,9999,9999,9999,1961656404
36,17,16,Jits_ISO_5,16,9999,9999,9999,1962156136
36,17,16,Jits_ISO_5,17,9999,9999,9999,1962656840
36,17,16,Jits_ISO_5,18,9999,9999,9999,1963156576
36,17,16,Jits_ISO_5,19,9999,9999,9999,1963656252
36,17,16,Jits_ISO_5,20,9999,9999,9999,1964157036
36,17,16,Jits_ISO_5,21,9999,9999,9999,1964656696
36,17,16,Jits_ISO_5,22,9999,9999,9999,1965156444
36,17,16,Jits_ISO_5,23,9999,9999,9999,1965656120
36,17,16,Jits_ISO_5,24,9999,9999,9999,1966156916
36,17,16,Jits_ISO_5,25,9999,9999,9999,1966656584
36,17,16,Jits_ISO_5,26,9999,9999,9999,1967156320
36,17,16,Jits_ISO_5,27,9999,9999,9999,1967657012
36,17,16,Jits_ISO_5,28,9999,9999,9999,1968156764
36,17,16,Jits_ISO_5,29,9999,9999,9999,1968656436
36,17,16,Jits_ISO_5,30,9999,9999,9999,1969156184
36,17,16,Jits_ISO_5,31,9999,9999,9999,1969656888
36,17,16,Jits_ISO_5,32,9999,9999,9999,1970156616
36,17,16,Jits_ISO_5,33,9999,9999,9999,1970656364
36,17,16,Jits_ISO_5,34,9999,9999,9999,1971157080
36,17,16,Jits_ISO_5,35,9999,9999,9999,1971656792
36,17,16,Jits_ISO_5,36,9999,9999,9999,1972156484
36,17,16,Jits_ISO_5,37,9999,9999,9999,1972656220
36,17,16,Jits_ISO_5,38,9999,9999,9999,1973156924
36,17,16,Jits_ISO_5,39,9999,9999,9999,1973656660
36,17,16,Jits_ISO_5,40,9999,9999,9999,1974156396
36,17,16,Jits_ISO_5,41,9999,9999,9999,1974656064
36,17,16,Jits_ISO_5,42,9999,9999,9999,1975156856
36,17,16,Jits_ISO_5,43,9999,9999,9999,1975656512
36,17,16,Jits_ISO_5,44,9999,9999,9999,1976156244
36,17,16,Jits_ISO_5,45,9999,9999,9999,1976656944
36,17,16,Jits_ISO_5,46,9999,9999,9999,1977156676
36,17,16,Jits_ISO_5,47,9999,9999,9999,1977656416
36,17,16,Jits_ISO_5,48,9999,9999,9999,1978156152
36,17,16,Jits_ISO_5,49,9999,9999,9999,1978656876
36,17,16,Jits_ISO_5,50,9999,9999,9999,1979156600
36,17,16,Jits_ISO_5,51,9999,9999,9999,1979656276
36,17,16,Jits_ISO_5,52,9999,9999,9999,1980156984
36,17,16,Jits_ISO_5,53,9999,9999,9999,1980656736
36,17,16,Jits_ISO_5,54,9999,9999,9999,1981156468
36,17,16,Jits_ISO_5,55,9999,9999,9999,1981656144
36,17,16,Jits_ISO_5,56,9999,9999,9999,1982156864
36,17,16,Jits_ISO_5,57,9999,9999,9999,1982656580
36,17,16,Jits_ISO_5,58,9999,9999,9999,1983156316
36,17,16,Jits_ISO_5,59,9999,9999,9999,1983657024
36,17,16,Jits_ISO_5,60,9999,9999,9999,1984156776
36,17,16,Jits_ISO_5,61,9999,9999,9999,1984656508
36,17,16,Jits_ISO_5,62,9999,9999,9999,1985156180
36,17,16,Jits_ISO_5,63,9999,9999,9999,1985656900
36,17,16,Jits_ISO_5,64,9999,9999,9999,1986156636
36,17,16,Jits_ISO_5,65,9999,9999,9999,1986656380
36,17,16,Jits_ISO_5,66,9999,9999,9999,1987157100
36,17,16,Jits_ISO_5,67,9999,9999,9999,1987656772
36,17,16,Jits_ISO_5,68,9999,9999,9999,1988156488
36,17,16,Jits_ISO_5,69,9999,9999,9999,1988656240
36,17,16,Jits_ISO_5,70,9999,9999,9999,1989156932
36,17,16,Jits_ISO_5,71,9999,9999,9999,1989656684
36,17,16,Jits_ISO_5,72,9999,9999,9999,1990156340
36,17,16,Jits_ISO_5,73,9999,9999,9999,1990656076
36,17,16,Jits_ISO_5,74,9999,9999,9999,1991156856
36,17,16,Jits_ISO_5,75,9999,9999,9999,1991656516
36,17,16,Jits_ISO_5,76,9999,9999,9999,1992156268
36,17,16,Jits_ISO_5,77,9999,9999,9999,1992656976
36,17,16,Jits_ISO_5,78,9999,9999,9999,1993156700
36,17,16,Jits_ISO_5,79,9999,9999,9999,1993656428
36,17,16,Jits_ISO_5,80,9999,9999,9999,1994156088
36,17,16,Jits_ISO_5,81,9999,9999,9999,1994656848
36,17,16,Jits_ISO_5,82,9999,9999,9999,1995156544
36,17,16,Jits_ISO_5,83,9999,9999,9999,1995656276
36,17,16,Jits_ISO_5,84,9999,9999,9999,1996157000
36,17,16,Jits_ISO_5,85,9999,9999,9999,1996656732
36,17,16,Jits_ISO_5,86,9999,9999,9999,1997156464
36,17,16,Jits_ISO_5,87,9999,9999,9999,1997656136
36,17,16,Jits_ISO_5,88,9999,9999,9999,1998156920
36,17,16,Jits_ISO_5,89,9999,9999,9999,1998656576
36,17,16,Jits_ISO_5,90,9999,9999,9999,1999156312
36,17,16,Jits_ISO_5,91,9999,9999,9999,1999657016
36,17,16,Jits_ISO_5,92,9999,9999,9999,2000156736
36,17,16,Jits_ISO_5,93,9999,9999,9999,2000656472
36,17,16,Jits_ISO_5,94,9999,9999,9999,2001156200
36,17,16,Jits_ISO_5,95,9999,9999,9999,2001656924
36,17,16,Jits_ISO_5,96,9999,9999,9999,2002156596
36,17,16,Jits_ISO_5,97,9999,9999,9999,2002656328
36,17,16,Jits_ISO_5,98,9999,9999,9999,2003157108
36,17,16,Jits_ISO_5,99,9999,9999,9999,2003656756
36,17,16,Jits_ISO_5,100,9999,9999,9999,2004156480
36,17,16,Jits_ISO_5,101,9999,9999,9999,2004656228
36,17,16,Jits_ISO_5,102,9999,9999,9999,2005156936
36,17,16,Jits_ISO_5,103,9999,9999,9999,2005656676
36,17,16,Jits_ISO_5,104,9999,9999,9999,2006156408
36,17,16,Jits_ISO_5,105,9999,9999,9999,2006656064
36,17,16,Jits_ISO_5,106,9999,9999,9999,2007156844
36,17,16,Jits_ISO_5,107,9999,9999,9999,2007656504
36,17,16,Jits_ISO_5,108,9999,9999,9999,2008156232
36,17,16,Jits_ISO_5,109,9999,9999,9999,2008657012
36,17,16,Jits_ISO_5,110,9999,9999,9999,2009156684
36,17,16,Jits_ISO_5,111,9999,9999,9999,2009656432
36,17,16,Jits_ISO_5,112,9999,9999,9999,2010156104
36,17,16,Jits_ISO_5,113,9999,9999,9999,2010656888
36,17,16,Jits_ISO_5,114,9999,9999,9999,2011156540
36,17,16,Jits_ISO_5,115,9999,9999,9999,2011656268
36,17,16,Jits_ISO_5,116,9999,9999,9999,2012157048
36,17,16,Jits_ISO_5,117,9999,9999,9999,2012656724
36,17,16,Jits_ISO_5,118,9999,9999,9999,2013156404
36,17,16,Jits_ISO_5,119,9999,9999,9999,2013656132
36,18,15,Jits_Phase_8,0,5,56,103,2024400156
36,18,15,Jits_Phase_8,1,5,63,98,2024403632
36,18,15,Jits_Phase_8,2,5,80,127,2024406604
36,18,15,Jits_Phase_8,3,1,48,43,2024688740
36,18,15,Jits_Phase_8,0,5,56,103,2025199988
36,18,15,Jits_Phase_8,1,5,63,98,2025203084
36,18,15,Jits_Phase_8,2,5,80,127,2025206132
36,18,15,Jits_Phase_8,3,1,48,42,2025339168
36,18,15,Jits_Phase_8,0,5,80,127,2025940496
36,18,15,Jits_Phase_8,1,5,63,98,2026029508
36,18,15,Jits_Phase_8,2,5,56,103,2026039556
36,18,15,Jits_Phase_8,3,1,48,46,2026074952
36,18,15,Jits_Phase_8,0,5,56,103,2026759672
36,18,15,Jits_Phase_8,1,5,63,98,2026769720
36,18,15,Jits_Phase_8,2,1,48,49,2026794560
36,18,15,Jits_Phase_8,3,5,80,127,2026859844
36,18,15,Jits_Phase_8,0,1,48,47,2027487720
36,18,15,Jits_Phase_8,1,5,63,98,2027529696
36,18,15,Jits_Phase_8,2,5,80,127,2027560568
36,18,15,Jits_Phase_8,3,5,56,103,2027590004
36,18,15,Jits_Phase_8,0,1,48,29,2028313236
36,18,15,Jits_Phase_8,1,5,56,103,2028330424
36,18,15,Jits_Phase_8,2,5,80,127,2028429608
36,18,15,Jits_Phase_8,3,5,63,98,2028479884
36,18,15,Jits_Phase_8,0,1,48,41,2028999248
36,18,15,Jits_Phase_8,1,5,56,103,2029130092
36,18,15,Jits_Phase_8,2,5,80,127,2029180444
36,18,15,Jits_Phase_8,3,5,63,98,2029220308
36,18,15,Jits_Phase_8,0,1,48,41,2029771448
36,18,15,Jits_Phase_8,1,5,80,127,2029959592
36,18,15,Jits_Phase_8,2,5,63,98,2029990392
36,18,15,Jits_Phase_8,3,5,56,103,2030059872
36,18,15,Jits_Phase_8,0,1,48,35,2030522184
36,18,15,Jits_Phase_8,1,5,63,98,2030789920
36,18,15,Jits_Phase_8,2,5,56,103,2030819548
36,18,15,Jits_Phase_8,3,5,80,127,2030880232
36,18,15,Jits_Phase_8,0,1,48,38,2031390676
36,18,15,Jits_Phase_8,1,5,56,103,2031530416
36,18,15,Jits_Phase_8,2,5,80,127,2031533408
36,18,15,Jits_Phase_8,3,5,63,98,2031650388
36,18,15,Jits_Phase_8,0,1,48,44,2032187420
36,18,15,Jits_Phase_8,1,5,56,103,2032410132
36,18,15,Jits_Phase_8,2,5,80,127,2032449996
36,18,15,Jits_Phase_8,3,5,63,98,2032460192
36,18,15,Jits_Phase_8,0,1,48,41,2033012068
36,18,15,Jits_Phase_8,1,5,56,103,2033169816
36,18,15,Jits_Phase_8,2,5,80,127,2033190500
36,18,15,Jits_Phase_8,3,5,63,98,2033270364
36,18,15,Jits_Phase_8,0,1,48,42,2033867508
36,18,15,Jits_Phase_8,1,5,80,127,2033960300
36,18,15,Jits_Phase_8,2,5,56,103,2034059636
36,18,15,Jits_Phase_8,3,5,63,98,2034069832
36,18,15,Jits_Phase_8,0,1,48,33,2034725264
36,18,15,Jits_Phase_8,1,5,63,98,2034730468
36,18,15,Jits_Phase_8,2,5,80,127,2034789740
36,18,15,Jits_Phase_8,3,5,56,103,2034800232
36,18,15,Jits_Phase_8,0,1,48,43,2035491616
36,18,15,Jits_Phase_8,1,5,56,103,2035530152
36,18,15,Jits_Phase_8,2,5,63,98,2035599744
36,18,15,Jits_Phase_8,3,5,80,127,2035603108
36,18,15,Jits_Phase_8,0,1,48,47,2036233444
36,18,15,Jits_Phase_8,1,5,63,98,2036359556
36,18,15,Jits_Phase_8,2,5,56,103,2036409828
36,18,15,Jits_Phase_8,3,5,80,127,2036413044
36,18,15,Jits_Phase_8,0,1,48,44,2037009296
36,18,15,Jits_Phase_8,1,5,56,103,2037120260
36,18,15,Jits_Phase_8,2,5,80,127,2037123552
36,18,15,Jits_Phase_8,3,5,63,98,2037209448
36,18,15,Jits_Phase_8,0,1,48,39,2037838636
36,18,15,Jits_Phase_8,1,5,63,98,2037960168
36,18,15,Jits_Phase_8,2,5,56,103,2038050176
36,18,15,Jits_Phase_8,3,5,80,127,2038080000
36,18,15,Jits_Phase_8,0,1,48,34,2038656148
36,18,15,Jits_Phase_8,1,5,56,103,2038749408
36,18,15,Jits_Phase_8,2,5,63,98,2038850236
36,18,15,Jits_Phase_8,3,5,80,127,2038879616
36,18,15,Jits_Phase_8,0,1,48,45,2039378600
36,18,15,Jits_Phase_8,1,5,63,98,2039569980
36,18,15,Jits_Phase_8,2,5,56,103,2039580176
36,18,15,Jits_Phase_8,3,5,80,127,2039670160
36,18,15,Jits_Phase_8,0,1,48,36,2040223004
36,18,15,Jits_Phase_8,1,5,63,98,2040390120
36,18,15,Jits_Phase_8,2,5,56,103,2040470064
36,18,15,Jits_Phase_8,3,5,80,127,2040473128
36,18,15,Jits_Phase_8,0,5,80,127,2041149960
36,18,15,Jits_Phase_8,1,5,63,98,2041170200
36,18,15,Jits_Phase_8,2,5,56,103,2041229540
36,18,15,Jits_Phase_8,0,5,56,103,2041989704
36,18,15,Jits_Phase_8,1,5,63,98,2042010012
36,18,15,Jits_Phase_8,2,5,80,127,2042013376
36,18,15,Jits_Phase_8,3,1,48,47,2042044444
36,18,15,Jits_Phase_8,0,1,48,33,2042460124
36,18,15,Jits_Phase_8,1,5,63,98,2042730032
36,18,15,Jits_Phase_8,2,5,80,127,2042809756
36,18,15,Jits_Phase_8,3,5,56,103,2042819876
36,18,15,Jits_Phase_8,4,1,48,50,2042989928
36,18,15,Jits_Phase_8,0,5,63,98,2043549924
36,18,15,Jits_Phase_8,1,5,56,103,2043569560
36,18,15,Jits_Phase_8,2,1,48,17,2043598332
36,18,15,Jits_Phase_8,3,5,80,127,2043619924
36,18,15,Jits_Phase_8,0,5,80,127,2044349756
36,18,15,Jits_Phase_8,1,5,63,98,2044389792
36,18,15,Jits_Phase_8,2,5,56,103,2044410324
36,18,15,Jits_Phase_8,3,1,48,35,2044425728
36,18,15,Jits_Phase_8,0,1,48,39,2045173560
36,18,15,Jits_Phase_8,1,5,56,103,2045189476
36,18,15,Jits_Phase_8,2,5,63,98,2045199896
36,18,15,Jits_Phase_8,3,5,80,127,2045220132
36,18,15,Jits_Phase_8,4,1,48,25,2045233724
36,18,15,Jits_Phase_8,0,1,48,19,2045859604
36,18,15,Jits_Phase_8,1,5,56,103,2045919740
36,18,15,Jits_Phase_8,2,5,63,98,2046009784
36,18,15,Jits_Phase_8,3,5,80,127,2046070248
36,18,15,Jits_Phase_8,0,5,80,127,2046750000
36,18,15,Jits_Phase_8,1,5,56,103,2046760272
36,18,15,Jits_Phase_8,2,1,48,24,2046771780
36,18,15,Jits_Phase_8,3,5,63,98,2046829868
36,18,15,Jits_Phase_8,0,1,48,43,2047453684
36,18,15,Jits_Phase_8,1,1,48,32,2047511656
36,18,15,Jits_Phase_8,2,5,63,98,2047579636
36,18,15,Jits_Phase_8,3,5,80,127,2047669756
36,18,15,Jits_Phase_8,4,5,56,103,2047679800
36,18,15,Jits_Phase_8,0,1,48,40,2048234372
36,18,15,Jits_Phase_8,1,5,63,98,2048309776
36,18,15,Jits_Phase_8,2,5,80,127,2048359740
36,18,15,Jits_Phase_8,3,5,56,103,2048420128
36,18,15,Jits_Phase_8,0,1,48,45,2049032032
36,18,15,Jits_Phase_8,1,5,56,103,2049129968
36,18,15,Jits_Phase_8,2,5,80,127,2049180100
36,18,15,Jits_Phase_8,3,5,63,98,2049199584
36,18,15,Jits_Phase_8,0,1,48,40,2049885876
36,18,15,Jits_Phase_8,1,5,56,103,2049899996
36,18,15,Jits_Phase_8,2,5,80,127,2049960164
36,18,15,Jits_Phase_8,3,5,63,98,2050030000
36,18,15,Jits_Phase_8,0,5,56,103,2050699608
36,18,15,Jits_Phase_8,1,5,80,127,2050730628
36,18,15,Jits_Phase_8,2,1,48,35,2050738924
36,18,15,Jits_Phase_8,3,5,63,98,2050760468
36,18,15,Jits_Phase_8,0,1,48,46,2051444792
36,18,15,Jits_Phase_8,1,5,56,103,2051540444
36,18,15,Jits_Phase_8,2,5,80,127,2051559768
36,18,15,Jits_Phase_8,3,5,63,98,2051620304
36,18,15,Jits_Phase_8,0,1,48,37,2052256300
36,18,15,Jits_Phase_8,1,5,80,127,2052419904
36,18,15,Jits_Phase_8,2,5,56,103,2052430324
36,18,15,Jits_Phase_8,3,5,63,98,2052440520
36,18,15,Jits_Phase_8,0,1,48,41,2053053372
36,18,15,Jits_Phase_8,1,5,56,103,2053179736
36,18,15,Jits_Phase_8,2,5,80,127,2053219672
36,18,15,Jits_Phase_8,3,5,63,98,2053250616
36,18,15,Jits_Phase_8,0,1,48,44,2053805188
36,18,15,Jits_Phase_8,1,5,56,103,2053949752
36,18,15,Jits_Phase_8,2,5,63,98,2053979580
36,18,15,Jits_Phase_8,3,5,80,127,2054019588
36,18,15,Jits_Phase_8,0,1,48,46,2054639892
36,18,15,Jits_Phase_8,1,5,80,127,2054700376
36,18,15,Jits_Phase_8,2,5,63,98,2054749516
36,18,15,Jits_Phase_8,3,5,56,103,2054769976
36,18,15,Jits_Phase_8,0,1,48,44,2055441664
36,18,15,Jits_Phase_8,1,5,56,103,2055529724
36,18,15,Jits_Phase_8,2,5,80,127,2055599616
36,18,15,Jits_Phase_8,3,5,63,98,2055659952
36,18,15,Jits_Phase_8,0,1,48,53,2056172044
36,18,15,Jits_Phase_8,1,5,80,127,2056329620
36,18,15,Jits_Phase_8,2,5,63,98,2056419628
36,18,15,Jits_Phase_8,3,5,56,103,2056440312
36,18,15,Jits_Phase_8,0,1,48,47,2057067788
36,18,15,Jits_Phase_8,1,5,63,98,2057149848
36,18,15,Jits_Phase_8,2,5,56,103,2057170392
36,18,15,Jits_Phase_8,3,5,80,127,2057210404
36,18,15,Jits_Phase_8,0,1,48,47,2057801984
36,18,15,Jits_Phase_8,1,5,80,127,2057909656
36,18,15,Jits_Phase_8,2,5,63,98,2057930516
36,18,15,Jits_Phase_8,3,5,56,103,2058010084
36,18,15,Jits_Phase_8,0,1,48,29,2058699192
36,18,15,Jits_Phase_8,1,5,63,98,2058701132
36,18,15,Jits_Phase_8,2,5,56,103,2058809760
36,18,15,Jits_Phase_8,3,5,80,127,2058812824
36,18,15,Jits_Phase_8,0,5,63,98,2059520444
36,18,15,Jits_Phase_8,1,1,48,43,2059522084
36,18,15,Jits_Phase_8,2,5,56,103,2059529660
36,18,15,Jits_Phase_8,3,5,80,127,2059532648
36,18,15,Jits_Phase_8,0,5,56,103,2060299580
36,18,15,Jits_Phase_8,1,1,48,46,2060327488
36,18,15,Jits_Phase_8,2,5,80,127,2060419300
36,18,15,Jits_Phase_8,3,5,63,98,2060460416
36,18,15,Jits_Phase_8,0,5,56,103,2061119804
36,18,15,Jits_Phase_8,1,1,48,57,2061126664
36,18,15,Jits_Phase_8,2,5,80,127,2061199672
36,18,15,Jits_Phase_8,3,5,63,98,2061220204
36,18,15,Jits_Phase_8,0,1,48,50,2061841776
36,18,15,Jits_Phase_8,1,5,56,103,2061919644
36,18,15,Jits_Phase_8,2,5,63,98,2062030164
36,18,15,Jits_Phase_8,3,5,80,127,2062033528
36,18,15,Jits_Phase_8,0,1,48,53,2062647132
36,18,15,Jits_Phase_8,1,5,56,103,2062760436
36,18,15,Jits_Phase_8,2,5,80,127,2062789964
36,18,15,Jits_Phase_8,3,5,63,98,2062809400
36,18,15,Jits_Phase_8,0,1,48,41,2063518984
36,18,15,Jits_Phase_8,1,5,63,98,2063550096
36,18,15,Jits_Phase_8,2,5,56,103,2063560168
36,18,15,Jits_Phase_8,3,5,80,127,2063570216
36,18,15,Jits_Phase_8,0,1,48,52,2064291012
36,18,15,Jits_Phase_8,1,5,80,127,2064340288
36,18,15,Jits_Phase_8,2,5,56,103,2064389440
36,18,15,Jits_Phase_8,3,5,63,98,2064429440
36,18,15,Jits_Phase_8,0,1,48,42,2064949164
36,18,15,Jits_Phase_8,1,5,80,127,2065159660
36,18,15,Jits_Phase_8,2,5,63,98,2065180116
36,18,15,Jits_Phase_8,3,5,56,103,2065230168
36,18,15,Jits_Phase_8,0,1,48,54,2065830960
36,18,15,Jits_Phase_8,1,5,80,127,2065969596
36,18,15,Jits_Phase_8,2,5,56,103,2066000096
36,18,15,Jits_Phase_8,3,5,63,98,2066070072
36,18,15,Jits_Phase_8,0,1,48,49,2066723488
36,18,15,Jits_Phase_8,1,5,56,103,2066819408
36,18,15,Jits_Phase_8,2,5,80,127,2066829900
36,18,15,Jits_Phase_8,3,5,63,98,2066869692
36,18,15,Jits_Phase_8,0,5,56,103,2067530108
36,18,15,Jits_Phase_8,1,1,48,63,2067541620
36,18,15,Jits_Phase_8,2,5,63,98,2067549440
36,18,15,Jits_Phase_8,3,5,80,127,2067620240
36,18,15,Jits_Phase_8,0,1,48,64,2068269904
36,18,15,Jits_Phase_8,1,5,63,98,2068350248
36,18,15,Jits_Phase_8,2,5,80,127,2068409800
36,18,15,Jits_Phase_8,3,5,56,103,2068430136
36,18,15,Jits_Phase_8,0,1,48,54,2069115360
36,18,15,Jits_Phase_8,1,5,80,127,2069139744
36,18,15,Jits_Phase_8,2,5,56,103,2069169420
36,18,15,Jits_Phase_8,3,5,63,98,2069200168
36,18,15,Jits_Phase_8,0,1,48,52,2069925228
36,18,15,Jits_Phase_8,1,5,56,103,2069939500
36,18,15,Jits_Phase_8,2,5,63,98,2069999992
36,18,15,Jits_Phase_8,3,5,80,127,2070060364
36,18,15,Jits_Phase_8,0,1,48,62,2070740604
36,18,15,Jits_Phase_8,1,5,80,127,2070759736
36,18,15,Jits_Phase_8,2,5,56,103,2070780268
36,18,15,Jits_Phase_8,3,5,63,98,2070849932
36,18,15,Jits_Phase_8,0,1,48,41,2071526192
36,18,15,Jits_Phase_8,1,5,80,127,2071559720
36,18,15,Jits_Phase_8,2,5,63,98,2071579880
36,18,15,Jits_Phase_8,3,5,56,103,2071609852
36,18,15,Jits_Phase_8,0,1,48,46,2072299736
36,18,15,Jits_Phase_8,1,5,80,127,2072349956
36,18,15,Jits_Phase_8,2,5,63,98,2072369812
36,18,15,Jits_Phase_8,3,5,56,103,2072429888
36,18,15,Jits_Phase_8,0,1,48,53,2073061272
36,18,15,Jits_Phase_8,1,5,80,127,2073149784
36,18,15,Jits_Phase_8,2,5,56,103,2073250092
36,18,15,Jits_Phase_8,3,5,63,98,2073279844
36,18,15,Jits_Phase_8,0,1,48,37,2073847096
36,18,15,Jits_Phase_8,1,5,63,98,2073940332
36,18,15,Jits_Phase_8,2,5,80,127,2073989844
36,18,15,Jits_Phase_8,3,5,56,103,2074009932
36,18,15,Jits_Phase_8,0,1,48,13,2074642136
36,18,15,Jits_Phase_8,1,5,80,127,2074780004
36,18,15,Jits_Phase_8,2,5,56,103,2074809756
36,18,15,Jits_Phase_8,3,5,63,98,2074812748
36,18,15,Jits_Phase_8,0,1,48,48,2075419864
36,18,15,Jits_Phase_8,1,5,63,98,2075629976
36,18,15,Jits_Phase_8,2,5,56,103,2075669768
36,18,15,Jits_Phase_8,3,5,80,127,2075690672
36,18,15,Jits_Phase_8,0,1,48,40,2076238508
36,18,15,Jits_Phase_8,1,5,80,127,2076389808
36,18,15,Jits_Phase_8,2,5,63,98,2076469608
36,18,15,Jits_Phase_8,3,5,56,103,2076509692
36,18,15,Jits_Phase_8,0,1,48,42,2077033240
36,18,15,Jits_Phase_8,1,5,63,98,2077209872
36,18,15,Jits_Phase_8,2,5,80,127,2077289892
36,18,15,Jits_Phase_8,3,5,56,103,2077310500
36,18,15,Jits_Phase_8,0,1,48,42,2077822292
36,18,15,Jits_Phase_8,1,5,56,103,2078049792
36,18,15,Jits_Phase_8,2,5,63,98,2078059988
36,18,15,Jits_Phase_8,3,5,80,127,2078099928
36,18,15,Jits_Phase_8,0,1,48,42,2078647760
36,18,15,Jits_Phase_8,1,5,56,103,2078769684
36,18,15,Jits_Phase_8,2,5,80,127,2078772676
36,18,15,Jits_Phase_8,3,5,63,98,2078909784
36,18,15,Jits_Phase_8,0,1,48,37,2079492924
36,18,15,Jits_Phase_8,1,5,56,103,2079560160
36,18,15,Jits_Phase_8,2,5,63,98,2079650352
36,18,15,Jits_Phase_8,3,5,80,127,2079719836
36,18,15,Jits_Phase_8,0,1,48,38,2080346020
36,18,15,Jits_Phase_8,1,5,63,98,2080439556
36,18,15,Jits_Phase_8,2,5,80,127,2080442776
36,18,15,Jits_Phase_8,3,5,56,103,2080499960
36,18,15,Jits_Phase_8,0,1,48,43,2081142708
36,18,15,Jits_Phase_8,1,5,80,127,2081280384
36,18,15,Jits_Phase_8,2,5,56,103,2081299796
36,18,15,Jits_Phase_8,3,5,63,98,2081310364
36,18,15,Jits_Phase_8,0,5,56,103,2081990264
36,18,15,Jits_Phase_8,1,5,63,98,2082000388
36,18,15,Jits_Phase_8,2,1,48,47,2082004852
36,18,15,Jits_Phase_8,3,5,80,127,2082069836
36,18,15,Jits_Phase_8,0,1,48,36,2082774712
36,18,15,Jits_Phase_8,1,5,80,127,2082789804
36,18,15,Jits_Phase_8,2,5,56,103,2082839860
36,18,15,Jits_Phase_8,3,5,63,98,2082890344
36,18,15,Jits_Phase_8,0,1,48,38,2083637332
36,18,15,Jits_Phase_8,1,5,56,103,2083670404
36,18,15,Jits_Phase_8,2,5,63,98,2083679632
36,18,15,Jits_Phase_8,3,5,80,127,2083719640
36,18,15,Jits_Phase_8,0,1,48,29,2084392896
36,18,15,Jits_Phase_8,1,5,56,103,2084409640
36,18,15,Jits_Phase_8,2,5,63,98,2084449504
36,18,15,Jits_Phase_8,3,5,80,127,2084499912
36,18,15,Jits_Phase_8,0,5,80,127,2085169548
36,18,15,Jits_Phase_8,1,1,48,41,2085185996
36,18,15,Jits_Phase_8,2,5,56,103,2085219668
36,18,15,Jits_Phase_8,3,5,63,98,2085240200
36,18,15,Jits_Phase_8,0,1,48,35,2085929800
36,18,15,Jits_Phase_8,1,5,80,127,2085979500
36,18,15,Jits_Phase_8,2,5,63,98,2086040100
36,18,15,Jits_Phase_8,3,5,56,103,2086119844
36,18,15,Jits_Phase_8,0,5,80,127,2086759784
36,18,15,Jits_Phase_8,1,1,48,37,2086776680
36,18,15,Jits_Phase_8,2,5,56,103,2086799720
36,18,15,Jits_Phase_8,3,5,63,98,2086820180
36,18,15,Jits_Phase_8,0,1,48,32,2087526020
36,18,15,Jits_Phase_8,1,5,56,103,2087609744
36,18,15,Jits_Phase_8,2,5,80,127,2087620236
36,18,15,Jits_Phase_8,3,5,63,98,2087660084
36,18,15,Jits_Phase_8,0,1,48,40,2088342620
36,18,15,Jits_Phase_8,1,5,56,103,2088479988
36,18,15,Jits_Phase_8,2,5,63,98,2088520000
36,18,15,Jits_Phase_8,3,5,80,127,2088523364
36,18,15,Jits_Phase_8,0,1,48,39,2089146188
36,18,15,Jits_Phase_8,1,5,63,98,2089149896
36,18,15,Jits_Phase_8,2,5,80,127,2089190008
36,18,15,Jits_Phase_8,3,5,56,103,2089260348
36,18,15,Jits_Phase_8,0,5,63,98,2089920140
36,18,15,Jits_Phase_8,1,5,56,103,2089999592
36,18,15,Jits_Phase_8,2,5,80,127,2090060128
36,18,15,Jits_Phase_8,0,1,48,40,2090642732
36,18,15,Jits_Phase_8,1,5,80,127,2090729920
36,18,15,Jits_Phase_8,2,5,63,98,2090780108
36,18,15,Jits_Phase_8,3,5,56,103,2090810004
36,18,15,Jits_Phase_8,4,1,48,43,2091030024
36,18,15,Jits_Phase_8,0,5,56,103,2091520336
36,18,15,Jits_Phase_8,1,5,63,98,2091569568
36,18,15,Jits_Phase_8,2,5,80,127,2091579836
36,18,15,Jits_Phase_8,3,1,48,46,2091694348
36,18,15,Jits_Phase_8,0,5,56,103,2092330292
36,18,15,Jits_Phase_8,1,5,63,98,2092439980
36,18,15,Jits_Phase_8,2,5,80,127,2092460364
36,18,15,Jits_Phase_8,3,1,48,43,2092467984
36,18,15,Jits_Phase_8,0,5,63,98,2093130212
36,18,15,Jits_Phase_8,1,1,48,51,2093176032
36,18,15,Jits_Phase_8,2,5,80,127,2093180260
36,18,15,Jits_Phase_8,3,5,56,103,2093270340
36,18,15,Jits_Phase_8,0,5,63,98,2093919784
36,18,15,Jits_Phase_8,1,1,48,40,2093944476
36,18,15,Jits_Phase_8,2,5,80,127,2093950276
36,18,15,Jits_Phase_8,3,5,56,103,2094040492
36,18,15,Jits_Phase_8,0,1,48,42,2094700028
36,18,15,Jits_Phase_8,1,5,63,98,2094720432
36,18,15,Jits_Phase_8,2,5,56,103,2094729580
36,18,15,Jits_Phase_8,3,5,80,127,2094829984
36,18,15,Jits_Phase_8,0,1,48,27,2095521356
36,18,15,Jits_Phase_8,1,5,63,98,2095619392
36,18,15,Jits_Phase_8,2,5,80,127,2095650116
36,18,15,Jits_Phase_8,3,5,56,103,2095679940
36,18,15,Jits_Phase_8,0,1,48,34,2096329844
36,18,15,Jits_Phase_8,1,5,80,127,2096440060
36,18,15,Jits_Phase_8,2,5,63,98,2096450032
36,18,15,Jits_Phase_8,3,5,56,103,2096480004
36,18,15,Jits_Phase_8,0,1,48,26,2097119944
36,18,15,Jits_Phase_8,1,5,80,127,2097140048
36,18,15,Jits_Phase_8,2,5,63,98,2097159684
36,18,15,Jits_Phase_8,3,5,56,103,2097209812
36,18,15,Jits_Phase_8,0,1,48,45,2097840104
36,18,15,Jits_Phase_8,1,5,63,98,2097969604
36,18,15,Jits_Phase_8,2,5,80,127,2098029920
36,18,15,Jits_Phase_8,3,5,56,103,2098050456
36,18,15,Jits_Phase_8,0,1,48,50,2098679744
36,18,15,Jits_Phase_8,1,5,63,98,2098730340
36,18,15,Jits_Phase_8,2,5,56,103,2098779632
36,18,15,Jits_Phase_8,3,5,80,127,2098789676
36,18,15,Jits_Phase_8,0,1,48,44,2099472972
36,18,15,Jits_Phase_8,1,5,56,103,2099559764
36,18,15,Jits_Phase_8,2,5,80,127,2099570168
36,18,15,Jits_Phase_8,3,5,63,98,2099670364
36,18,15,Jits_Phase_8,0,1,48,45,2100304344
36,18,15,Jits_Phase_8,1,5,80,127,2100319588
36,18,15,Jits_Phase_8,2,5,63,98,2100329784
36,18,15,Jits_Phase_8,3,5,56,103,2100480452
36,18,15,Jits_Phase_8,0,1,48,41,2101114284
36,18,15,Jits_Phase_8,1,5,63,98,2101129452
36,18,15,Jits_Phase_8,2,5,80,127,2101169692
36,18,15,Jits_Phase_8,3,5,56,103,2101250540
36,18,15,Jits_Phase_8,0,5,56,103,2101880288
36,18,15,Jits_Phase_8,1,1,48,47,2101887596
36,18,15,Jits_Phase_8,2,5,80,127,2101979584
36,18,15,Jits_Phase_8,3,5,63,98,2102000100
36,18,15,Jits_Phase_8,0,1,48,53,2102679740
36,18,15,Jits_Phase_8,1,5,80,127,2102700512
36,18,15,Jits_Phase_8,2,5,56,103,2102709588
36,18,15,Jits_Phase_8,3,5,63,98,2102799728
36,18,15,Jits_Phase_8,0,1,48,55,2103445024
36,18,15,Jits_Phase_8,1,5,56,103,2103500004
36,18,15,Jits_Phase_8,2,5,63,98,2103519712
36,18,15,Jits_Phase_8,3,5,80,127,2103599416
36,18,15,Jits_Phase_8,0,5,63,98,2104249772
36,18,15,Jits_Phase_8,1,1,48,54,2104311428
36,18,15,Jits_Phase_8,2,5,56,103,2104339692
36,18,15,Jits_Phase_8,3,5,80,127,2104342764
36,18,15,Jits_Phase_8,0,1,48,54,2104964516
36,18,15,Jits_Phase_8,1,5,56,103,2105080460
36,18,15,Jits_Phase_8,2,5,80,127,2105139656
36,18,15,Jits_Phase_8,3,5,63,98,2105149780
36,18,15,Jits_Phase_8,0,1,48,51,2105809340
36,18,15,Jits_Phase_8,1,5,80,127,2105929972
36,18,15,Jits_Phase_8,2,5,56,103,2105940316
36,18,15,Jits_Phase_8,3,5,63,98,2105943456
36,18,15,Jits_Phase_8,0,1,48,44,2106636500
36,18,15,Jits_Phase_8,1,5,56,103,2106689952
36,18,15,Jits_Phase_8,2,5,80,127,2106700372
36,18,15,Jits_Phase_8,3,5,63,98,2106719484
36,18,15,Jits_Phase_8,0,1,48,52,2107431764
36,18,15,Jits_Phase_8,1,5,63,98,2107459816
36,18,15,Jits_Phase_8,2,5,80,127,2107520284
36,18,15,Jits_Phase_8,3,5,56,103,2107569420
36,18,15,Jits_Phase_8,0,1,48,42,2108217968
36,18,15,Jits_Phase_8,1,5,63,98,2108339576
36,18,15,Jits_Phase_8,2,5,56,103,2108349772
36,18,15,Jits_Phase_8,3,5,80,127,2108400072
36,18,15,Jits_Phase_8,0,5,63,98,2109040012
36,18,15,Jits_Phase_8,1,5,80,127,2109059500
36,18,15,Jits_Phase_8,2,5,56,103,2109069768
36,18,15,Jits_Phase_8,3,1,48,51,2109126920
36,18,15,Jits_Phase_8,0,1,48,53,2109770572
36,18,15,Jits_Phase_8,1,5,63,98,2109839752
36,18,15,Jits_Phase_8,2,5,80,127,2109843264
36,18,15,Jits_Phase_8,3,5,56,103,2109879524
36,18,15,Jits_Phase_8,0,1,48,55,2110573752
36,18,15,Jits_Phase_8,1,5,63,98,2110710224
36,18,15,Jits_Phase_8,2,5,80,127,2110739676
36,18,15,Jits_Phase_8,3,5,56,103,2110750396
36,18,15,Jits_Phase_8,0,1,48,51,2111411652
36,18,15,Jits_Phase_8,1,5,56,103,2111459728
36,18,15,Jits_Phase_8,2,5,80,127,2111490304
36,18,15,Jits_Phase_8,3,5,63,98,2111520036
36,18,15,Jits_Phase_8,0,5,63,98,2112360032
36,18,15,Jits_Phase_8,1,5,56,103,2112399676
36,18,15,Jits_Phase_8,2,5,80,127,2112402816
36,18,15,Jits_Phase_8,3,1,48,50,2112436192
36,18,15,Jits_Phase_8,0,5,80,127,2113060216
36,18,15,Jits_Phase_8,1,5,56,103,2113140164
36,18,15,Jits_Phase_8,2,5,63,98,2113190216
36,18,15,Jits_Phase_8,3,1,48,52,2113201876
36,18,15,Jits_Phase_8,0,5,80,127,2113839540
36,18,15,Jits_Phase_8,1,5,56,103,2113860072
36,18,15,Jits_Phase_8,2,5,63,98,2113950276
36,18,15,Jits_Phase_8,3,1,48,54,2114055144
36,18,15,Jits_Phase_8,0,1,48,38,2114676496
36,18,15,Jits_Phase_8,1,5,80,127,2114680280
36,18,15,Jits_Phase_8,2,5,63,98,2114720216
36,18,15,Jits_Phase_8,3,5,56,103,2114760252
36,18,15,Jits_Phase_8,0,1,48,45,2115437596
36,18,15,Jits_Phase_8,1,5,63,98,2115490080
36,18,15,Jits_Phase_8,2,5,80,127,2115549508
36,18,15,Jits_Phase_8,3,5,56,103,2115580228
36,18,15,Jits_Phase_8,0,1,48,60,2116234948
36,18,15,Jits_Phase_8,1,5,56,103,2116330012
36,18,15,Jits_Phase_8,2,5,80,127,2116359524
36,18,15,Jits_Phase_8,3,5,63,98,2116449580
36,18,15,Jits_Phase_8,0,1,48,50,2116996412
36,18,15,Jits_Phase_8,1,5,56,103,2117139932
36,18,15,Jits_Phase_8,2,5,80,127,2117250296
36,18,15,Jits_Phase_8,3,5,63,98,2117280044
36,18,15,Jits_Phase_8,0,1,48,46,2117767868
36,18,15,Jits_Phase_8,1,5,56,103,2117990040
36,18,15,Jits_Phase_8,2,5,63,98,2118050208
36,18,15,Jits_Phase_8,3,5,80,127,2118079956
36,18,15,Jits_Phase_8,0,1,48,45,2118554204
36,18,15,Jits_Phase_8,1,5,56,103,2118759908
36,18,15,Jits_Phase_8,2,5,63,98,2118829668
36,18,15,Jits_Phase_8,3,5,80,127,2118849900
36,18,15,Jits_Phase_8,0,1,48,45,2119342948
36,18,15,Jits_Phase_8,1,5,80,127,2119529772
36,18,15,Jits_Phase_8,2,5,63,98,2119550532
36,18,15,Jits_Phase_8,3,5,56,103,2119599832
36,18,15,Jits_Phase_8,0,1,48,42,2120079480
36,18,15,Jits_Phase_8,1,5,63,98,2120350056
36,18,15,Jits_Phase_8,2,5,80,127,2120360252
36,18,15,Jits_Phase_8,3,5,56,103,2120409580
36,18,15,Jits_Phase_8,0,1,48,46,2120846628
36,18,15,Jits_Phase_8,1,5,63,98,2121149884
36,18,15,Jits_Phase_8,2,5,80,127,2121219516
36,18,15,Jits_Phase_8,3,5,56,103,2121239900
36,18,15,Jits_Phase_8,0,1,48,40,2121819568
36,18,15,Jits_Phase_8,1,5,63,98,2121980232
36,18,15,Jits_Phase_8,2,5,80,127,2121983892
36,18,15,Jits_Phase_8,3,5,56,103,2122049836
36,18,15,Jits_Phase_8,0,5,80,127,2122729808
36,18,15,Jits_Phase_8,1,1,48,43,2122739152
36,18,15,Jits_Phase_8,2,5,56,103,2122750408
36,18,15,Jits_Phase_8,3,5,63,98,2122759704
36,18,15,Jits_Phase_8,0,1,48,40,2123487508
36,18,15,Jits_Phase_8,1,5,56,103,2123550012
36,18,15,Jits_Phase_8,2,5,63,98,2123640048
36,18,15,Jits_Phase_8,3,5,80,127,2123643340
36,18,15,Jits_Phase_8,0,1,48,51,2124319196
36,18,15,Jits_Phase_8,1,5,80,127,2124321064
36,18,15,Jits_Phase_8,2,5,56,103,2124330288
36,18,15,Jits_Phase_8,3,5,63,98,2124349924
36,18,15,Jits_Phase_8,0,1,48,54,2125086916
36,18,15,Jits_Phase_8,1,5,63,98,2125119840
36,18,15,Jits_Phase_8,2,5,80,127,2125180456
36,18,15,Jits_Phase_8,3,5,56,103,2125189516
36,18,15,Jits_Phase_8,0,5,63,98,2125990252
36,18,15,Jits_Phase_8,1,5,80,127,2126019952
36,18,15,Jits_Phase_8,2,5,56,103,2126059888
36,18,15,Jits_Phase_8,0,1,48,13,2126634768
36,18,15,Jits_Phase_8,1,1,48,16,2126667484
36,18,15,Jits_Phase_8,2,5,56,103,2126779816
36,18,15,Jits_Phase_8,3,5,80,127,2126789964
36,18,15,Jits_Phase_8,4,5,63,98,2126829828
36,18,15,Jits_Phase_8,0,1,48,47,2127513528
36,18,15,Jits_Phase_8,1,5,80,127,2127539560
36,18,15,Jits_Phase_8,2,5,56,103,2127619516
36,18,15,Jits_Phase_8,3,5,63,98,2127629640
36,18,15,Jits_Phase_8,0,1,48,44,2128358132
36,18,15,Jits_Phase_8,1,5,80,127,2128389620
36,18,15,Jits_Phase_8,2,5,56,103,2128470520
36,18,15,Jits_Phase_8,3,5,63,98,2128479520
36,18,15,Jits_Phase_8,0,1,48,61,2129116452
36,18,15,Jits_Phase_8,1,5,80,127,2129230128
36,18,15,Jits_Phase_8,2,5,56,103,2129280328
36,18,15,Jits_Phase_8,3,5,63,98,2129329484
36,18,15,Jits_Phase_8,0,1,48,46,2129877312
36,18,15,Jits_Phase_8,1,5,56,103,2130170528
36,18,15,Jits_Phase_8,2,5,63,98,2130173440
36,18,15,Jits_Phase_8,3,5,80,127,2130220352
36,18,15,Jits_Phase_8,0,1,48,59,2130923440
36,18,15,Jits_Phase_8,1,5,56,103,2130989552
36,18,15,Jits_Phase_8,2,5,63,98,2131020408
36,18,15,Jits_Phase_8,3,5,80,127,2131030532
36,18,15,Jits_Phase_8,0,1,48,35,2131688532
36,18,15,Jits_Phase_8,1,5,63,98,2131700012
36,18,15,Jits_Phase_8,2,5,56,103,2131769692
36,18,15,Jits_Phase_8,3,5,80,127,2131820028
36,18,15,Jits_Phase_8,0,1,48,44,2132442420
36,18,15,Jits_Phase_8,1,5,63,98,2132529436
36,18,15,Jits_Phase_8,2,5,56,103,2132540288
36,18,15,Jits_Phase_8,3,5,80,127,2132543348
36,18,15,Jits_Phase_8,0,1,48,54,2133243732
36,18,15,Jits_Phase_8,1,5,80,127,2133280548
36,18,15,Jits_Phase_8,2,5,56,103,2133339596
36,18,15,Jits_Phase_8,3,5,63,98,2133429640
36,18,15,Jits_Phase_8,0,1,48,50,2134047012
36,18,15,Jits_Phase_8,1,5,80,127,2134079788
36,18,15,Jits_Phase_8,2,5,56,103,2134180392
36,18,15,Jits_Phase_8,3,5,63,98,2134220356
36,18,15,Jits_Phase_8,0,1,48,27,2134795072
36,18,15,Jits_Phase_8,1,5,56,103,2134929804
36,18,15,Jits_Phase_8,2,5,63,98,2134950188
36,18,15,Jits_Phase_8,3,5,80,127,2134990224
36,18,15,Jits_Phase_8,0,1,48,24,2135596332
36,18,15,Jits_Phase_8,1,5,63,98,2135699892
36,18,15,Jits_Phase_8,2,5,56,103,2135720352
36,18,15,Jits_Phase_8,3,5,80,127,2135819500
36,18,15,Jits_Phase_8,0,1,48,51,2136330248
36,18,15,Jits_Phase_8,1,5,63,98,2136490360
36,18,15,Jits_Phase_8,2,5,80,127,2136600072
36,18,15,Jits_Phase_8,3,5,56,103,2136629600
36,18,15,Jits_Phase_8,0,1,48,49,2137202444
36,18,15,Jits_Phase_8,1,5,56,103,2137309476
36,18,15,Jits_Phase_8,2,5,63,98,2137340196
36,18,15,Jits_Phase_8,3,5,80,127,2137389424
36,18,15,Jits_Phase_8,0,1,48,50,2138016652
36,18,15,Jits_Phase_8,1,5,63,98,2138079500
36,18,15,Jits_Phase_8,2,5,56,103,2138110448
36,18,15,Jits_Phase_8,3,5,80,127,2138159364
36,18,15,Jits_Phase_8,0,1,48,49,2138811688
36,18,15,Jits_Phase_8,1,5,56,103,2138910172
36,18,15,Jits_Phase_8,2,5,63,98,2138929508
36,18,15,Jits_Phase_8,3,5,80,127,2139010424
36,18,15,Jits_Phase_8,0,1,48,46,2139598288
36,18,15,Jits_Phase_8,1,5,63,98,2139679976
36,18,15,Jits_Phase_8,2,5,56,103,2139739528
36,18,15,Jits_Phase_8,3,5,80,127,2139770176
36,18,15,Jits_Phase_8,0,1,48,46,2140427640
36,18,15,Jits_Phase_8,1,5,56,103,2140519960
36,18,15,Jits_Phase_8,2,5,80,127,2140580188
36,18,15,Jits_Phase_8,3,5,63,98,2140620076
36,18,15,Jits_Phase_8,0,1,48,52,2141192472
36,18,15,Jits_Phase_8,1,5,63,98,2141300076
36,18,15,Jits_Phase_8,2,5,56,103,2141359344
36,18,15,Jits_Phase_8,3,5,80,127,2141430244
36,18,15,Jits_Phase_8,0,1,48,48,2141914828
36,18,15,Jits_Phase_8,1,5,56,103,2142179800
36,18,15,Jits_Phase_8,2,5,63,98,2142190068
36,18,15,Jits_Phase_8,3,5,80,127,2142193504
36,18,15,Jits_Phase_8,0,1,48,36,2142918268
36,18,15,Jits_Phase_8,1,5,63,98,2142920004
36,18,15,Jits_Phase_8,2,5,56,103,2142979568
36,18,15,Jits_Phase_8,3,5,80,127,2142982856
36,18,15,Jits_Phase_8,0,1,48,48,2143696860
36,18,15,Jits_Phase_8,1,5,63,98,2143700420
36,18,15,Jits_Phase_8,2,5,80,127,2143730020
36,18,15,Jits_Phase_8,3,5,56,103,2143749360
36,18,15,Jits_Phase_8,0,5,56,103,2144429356
36,18,15,Jits_Phase_8,1,5,63,98,2144479732
36,18,15,Jits_Phase_8,2,1,48,56,2144517476
36,18,15,Jits_Phase_8,3,5,80,127,2144559744
36,18,15,Jits_Phase_8,0,5,80,127,2145129720
36,18,15,Jits_Phase_8,1,5,63,98,2145169808
36,18,15,Jits_Phase_8,2,5,56,103,2145190116
36,18,15,Jits_Phase_8,3,1,48,55,2145266744
36,18,15,Jits_Phase_8,0,1,48,46,2145876920
36,18,15,Jits_Phase_8,1,5,56,103,2146000216
36,18,15,Jits_Phase_8,2,5,80,127,2146009436
36,18,15,Jits_Phase_8,3,5,63,98,2146029896
36,18,15,Jits_Phase_8,0,1,48,45,2146724260
36,18,15,Jits_Phase_8,1,5,56,103,2146779756
36,18,15,Jits_Phase_8,2,5,63,98,2146829872
36,18,15,Jits_Phase_8,3,5,80,127,2146860520
36,18,15,Jits_Phase_8,0,1,48,39,2147521580
36,18,15,Jits_Phase_8,1,5,56,103,2147530144
36,18,15,Jits_Phase_8,2,5,63,98,2147540488
36,18,15,Jits_Phase_8,3,5,80,127,2147589496
36,18,15,Jits_Phase_8,0,5,56,103,2148319636
36,18,15,Jits_Phase_8,1,5,80,127,2148322628
36,18,15,Jits_Phase_8,2,1,48,47,2148344252
36,18,15,Jits_Phase_8,3,5,63,98,2148480684
36,18,15,Jits_Phase_8,0,1,48,46,2149028236
36,18,15,Jits_Phase_8,1,5,63,98,2149139824
36,18,15,Jits_Phase_8,2,5,56,103,2149209580
36,18,15,Jits_Phase_8,3,5,80,127,2149250340
36,18,15,Jits_Phase_8,0,1,48,28,2149812700
36,18,15,Jits_Phase_8,1,5,63,98,2149979664
36,18,15,Jits_Phase_8,2,5,56,103,2150069572
36,18,15,Jits_Phase_8,3,5,80,127,2150072716
36,18,15,Jits_Phase_8,0,1,48,54,2150591628
36,18,15,Jits_Phase_8,1,5,56,103,2150759788
36,18,15,Jits_Phase_8,2,5,63,98,2150849948
36,18,15,Jits_Phase_8,3,5,80,127,2150860144
36,18,15,Jits_Phase_8,0,1,48,65,2151297444
36,18,15,Jits_Phase_8,1,5,56,103,2151529804
36,18,15,Jits_Phase_8,2,5,63,98,2151580008
36,18,15,Jits_Phase_8,3,5,80,127,2151609756
36,18,15,Jits_Phase_8,0,1,48,54,2152066756
36,18,15,Jits_Phase_8,1,5,63,98,2152409452
36,18,15,Jits_Phase_8,2,5,80,127,2152419648
36,18,15,Jits_Phase_8,3,5,56,103,2152480036
36,18,15,Jits_Phase_8,0,1,48,58,2152840904
36,18,15,Jits_Phase_8,1,5,63,98,2153130440
36,18,15,Jits_Phase_8,2,5,80,127,2153189732
36,18,15,Jits_Phase_8,3,5,56,103,2153229744
36,18,15,Jits_Phase_8,4,1,48,49,2153579432
36,18,15,Jits_Phase_8,0,5,56,103,2154029620
36,18,15,Jits_Phase_8,1,5,80,127,2154049784
36,18,15,Jits_Phase_8,2,5,63,98,2154070464
36,18,15,Jits_Phase_8,0,1,48,36,2154622444
36,18,15,Jits_Phase_8,1,5,63,98,2154750520
36,18,15,Jits_Phase_8,2,5,56,103,2154769708
36,18,15,Jits_Phase_8,3,5,80,127,2154809648
36,18,15,Jits_Phase_8,0,1,48,48,2155418224
36,18,15,Jits_Phase_8,1,5,63,98,2155560384
36,18,15,Jits_Phase_8,2,5,80,127,2155589908
36,18,15,Jits_Phase_8,3,5,56,103,2155609620
36,18,15,Jits_Phase_8,0,1,48,54,2156191904
36,18,15,Jits_Phase_8,1,5,80,127,2156330544
36,18,15,Jits_Phase_8,2,5,56,103,2156379548
36,18,15,Jits_Phase_8,3,5,63,98,2156440012
36,18,15,Jits_Phase_8,0,1,48,54,2156952320
36,18,15,Jits_Phase_8,1,5,63,98,2157119884
36,18,15,Jits_Phase_8,2,5,56,103,2157239536
36,18,15,Jits_Phase_8,3,5,80,127,2157270356
36,18,15,Jits_Phase_8,0,1,48,52,2157769120
36,18,15,Jits_Phase_8,1,5,80,127,2157959504
36,18,15,Jits_Phase_8,2,5,63,98,2157980260
36,18,15,Jits_Phase_8,3,5,56,103,2158049592
36,18,15,Jits_Phase_8,0,1,48,43,2158764412
36,18,15,Jits_Phase_8,1,5,63,98,2158779732
36,18,15,Jits_Phase_8,2,5,56,103,2158790024
36,18,15,Jits_Phase_8,3,5,80,127,2158869804
36,18,15,Jits_Phase_8,0,1,48,57,2159420328
36,18,15,Jits_Phase_8,1,5,56,103,2159640036
36,18,15,Jits_Phase_8,2,5,80,127,2159669564
36,18,15,Jits_Phase_8,3,5,63,98,2159679908
36,18,15,Jits_Phase_8,0,9999,9999,9999,2024797252
36,18,15,Jits_Phase_8,1,9999,9999,9999,2025598052
36,18,15,Jits_Phase_8,2,9999,9999,9999,2026397752
36,18,15,Jits_Phase_8,3,9999,9999,9999,2027197520
36,18,15,Jits_Phase_8,4,9999,9999,9999,2027997240
36,18,15,Jits_Phase_8,5,9999,9999,9999,2028798048
36,18,15,Jits_Phase_8,6,9999,9999,9999,2029597804
36,18,15,Jits_Phase_8,7,9999,9999,9999,2030397564
36,18,15,Jits_Phase_8,8,9999,9999,9999,2031197252
36,18,15,Jits_Phase_8,9,9999,9999,9999,2031998044
36,18,15,Jits_Phase_8,10,9999,9999,9999,2032797812
36,18,15,Jits_Phase_8,11,9999,9999,9999,2033597500
36,18,15,Jits_Phase_8,12,9999,9999,9999,2034397288
36,18,15,Jits_Phase_8,13,9999,9999,9999,2035198016
36,18,15,Jits_Phase_8,14,9999,9999,9999,2035997764
36,18,15,Jits_Phase_8,15,9999,9999,9999,2036797516
36,18,15,Jits_Phase_8,16,9999,9999,9999,2037597256
36,18,15,Jits_Phase_8,17,9999,9999,9999,2038398068
36,18,15,Jits_Phase_8,18,9999,9999,9999,2039197756
36,18,15,Jits_Phase_8,19,9999,9999,9999,2039997516
36,18,15,Jits_Phase_8,20,9999,9999,9999,2040797296
36,18,15,Jits_Phase_8,21,9999,9999,9999,2041598044
36,18,15,Jits_Phase_8,22,9999,9999,9999,2042397752
36,18,15,Jits_Phase_8,23,9999,9999,9999,2043197500
36,18,15,Jits_Phase_8,24,9999,9999,9999,2043997308
36,18,15,Jits_Phase_8,25,9999,9999,9999,2044798040
36,18,15,Jits_Phase_8,26,9999,9999,9999,2045597792
36,18,15,Jits_Phase_8,27,9999,9999,9999,2046397532
36,18,15,Jits_Phase_8,28,9999,9999,9999,2047197312
36,18,15,Jits_Phase_8,29,9999,9999,9999,2047998044
36,18,15,Jits_Phase_8,30,9999,9999,9999,2048777324
36,18,15,Jits_Phase_8,31,9999,9999,9999,2049578056
36,18,15,Jits_Phase_8,32,9999,9999,9999,2050377808
36,18,15,Jits_Phase_8,33,9999,9999,9999,2051177556
36,18,15,Jits_Phase_8,34,9999,9999,9999,2051977328
36,18,15,Jits_Phase_8,35,9999,9999,9999,2052778064
36,18,15,Jits_Phase_8,36,9999,9999,9999,2053577848
36,18,15,Jits_Phase_8,37,9999,9999,9999,2054377536
36,18,15,Jits_Phase_8,38,9999,9999,9999,2055177288
36,18,15,Jits_Phase_8,39,9999,9999,9999,2055978096
36,18,15,Jits_Phase_8,40,9999,9999,9999,2056777852
36,18,15,Jits_Phase_8,41,9999,9999,9999,2057577540
36,18,15,Jits_Phase_8,42,9999,9999,9999,2058377296
36,18,15,Jits_Phase_8,43,9999,9999,9999,2059178088
36,18,15,Jits_Phase_8,44,9999,9999,9999,2059977856
36,18,15,Jits_Phase_8,45,9999,9999,9999,2060777536
36,18,15,Jits_Phase_8,46,9999,9999,9999,2061577308
36,18,15,Jits_Phase_8,47,9999,9999,9999,2062378048
36,18,15,Jits_Phase_8,48,9999,9999,9999,2063197284
36,18,15,Jits_Phase_8,49,9999,9999,9999,2063998012
36,18,15,Jits_Phase_8,50,9999,9999,9999,2064797768
36,18,15,Jits_Phase_8,51,9999,9999,9999,2065597528
36,18,15,Jits_Phase_8,52,9999,9999,9999,2066397308
36,18,15,Jits_Phase_8,53,9999,9999,9999,2067198044
36,18,15,Jits_Phase_8,54,9999,9999,9999,2067997796
36,18,15,Jits_Phase_8,55,9999,9999,9999,2068797496
36,18,15,Jits_Phase_8,56,9999,9999,9999,2069597252
36,18,15,Jits_Phase_8,57,9999,9999,9999,2070398056
36,18,15,Jits_Phase_8,58,9999,9999,9999,2071197816
36,18,15,Jits_Phase_8,59,9999,9999,9999,2071997496
36,18,15,Jits_Phase_8,60,9999,9999,9999,2072797272
36,18,15,Jits_Phase_8,61,9999,9999,9999,2073598008
36,18,15,Jits_Phase_8,62,9999,9999,9999,2074397768
36,18,15,Jits_Phase_8,63,9999,9999,9999,2075197512
36,18,15,Jits_Phase_8,64,9999,9999,9999,2076037208
36,18,15,Jits_Phase_8,65,9999,9999,9999,2076837948
36,18,15,Jits_Phase_8,66,9999,9999,9999,2077637732
36,18,15,Jits_Phase_8,67,9999,9999,9999,2078437496
36,18,15,Jits_Phase_8,68,9999,9999,9999,2079237240
36,18,15,Jits_Phase_8,69,9999,9999,9999,2080037976
36,18,15,Jits_Phase_8,70,9999,9999,9999,2080837728
36,18,15,Jits_Phase_8,71,9999,9999,9999,2081637496
36,18,15,Jits_Phase_8,72,9999,9999,9999,2082437180
36,18,15,Jits_Phase_8,73,9999,9999,9999,2083238000
36,18,15,Jits_Phase_8,74,9999,9999,9999,2084037720
36,18,15,Jits_Phase_8,75,9999,9999,9999,2084837484
36,18,15,Jits_Phase_8,76,9999,9999,9999,2085637236
36,18,15,Jits_Phase_8,77,9999,9999,9999,2086437984
36,18,15,Jits_Phase_8,78,9999,9999,9999,2087237736
36,18,15,Jits_Phase_8,79,9999,9999,9999,2088037484
36,18,15,Jits_Phase_8,80,9999,9999,9999,2088837244
36,18,15,Jits_Phase_8,81,9999,9999,9999,2089598040
36,18,15,Jits_Phase_8,82,9999,9999,9999,2090397820
36,18,15,Jits_Phase_8,83,9999,9999,9999,2091197492
36,18,15,Jits_Phase_8,84,9999,9999,9999,2091997240
36,18,15,Jits_Phase_8,85,9999,9999,9999,2092798060
36,18,15,Jits_Phase_8,86,9999,9999,9999,2093597756
36,18,15,Jits_Phase_8,87,9999,9999,9999,2094397512
36,18,15,Jits_Phase_8,88,9999,9999,9999,2095197268
36,18,15,Jits_Phase_8,89,9999,9999,9999,2095998004
36,18,15,Jits_Phase_8,90,9999,9999,9999,2096797776
36,18,15,Jits_Phase_8,91,9999,9999,9999,2097597528
36,18,15,Jits_Phase_8,92,9999,9999,9999,2098397240
36,18,15,Jits_Phase_8,93,9999,9999,9999,2099198036
36,18,15,Jits_Phase_8,94,9999,9999,9999,2099997792
36,18,15,Jits_Phase_8,95,9999,9999,9999,2100797548
36,18,15,Jits_Phase_8,96,9999,9999,9999,2101597300
36,18,15,Jits_Phase_8,97,9999,9999,9999,2102317120
36,18,15,Jits_Phase_8,98,9999,9999,9999,2103117944
36,18,15,Jits_Phase_8,99,9999,9999,9999,2103917632
36,18,15,Jits_Phase_8,100,9999,9999,9999,2104717380
36,18,15,Jits_Phase_8,101,9999,9999,9999,2105517140
36,18,15,Jits_Phase_8,102,9999,9999,9999,2106317888
36,18,15,Jits_Phase_8,103,9999,9999,9999,2107117644
36,18,15,Jits_Phase_8,104,9999,9999,9999,2107917400
36,18,15,Jits_Phase_8,105,9999,9999,9999,2108717164
36,18,15,Jits_Phase_8,106,9999,9999,9999,2109517884
36,18,15,Jits_Phase_8,107,9999,9999,9999,2110317624
36,18,15,Jits_Phase_8,108,9999,9999,9999,2111117380
36,18,15,Jits_Phase_8,109,9999,9999,9999,2111917136
36,18,15,Jits_Phase_8,110,9999,9999,9999,2112717892
36,18,15,Jits_Phase_8,111,9999,9999,9999,2113517648
36,18,15,Jits_Phase_8,112,9999,9999,9999,2114317416
36,18,15,Jits_Phase_8,113,9999,9999,9999,2115117112
36,18,15,Jits_Phase_8,114,9999,9999,9999,2115997776
36,18,15,Jits_Phase_8,115,9999,9999,9999,2116797532
36,18,15,Jits_Phase_8,116,9999,9999,9999,2117597240
36,18,15,Jits_Phase_8,117,9999,9999,9999,2118398048
36,18,15,Jits_Phase_8,118,9999,9999,9999,2119197808
36,18,15,Jits_Phase_8,119,9999,9999,9999,2119997556
36,18,15,Jits_Phase_8,120,9999,9999,9999,2120797240
36,18,15,Jits_Phase_8,121,9999,9999,9999,2121598044
36,18,15,Jits_Phase_8,122,9999,9999,9999,2122397792
36,18,15,Jits_Phase_8,123,9999,9999,9999,2123197540
36,18,15,Jits_Phase_8,124,9999,9999,9999,2123997248
36,18,15,Jits_Phase_8,125,9999,9999,9999,2124798048
36,18,15,Jits_Phase_8,126,9999,9999,9999,2125597800
36,18,15,Jits_Phase_8,127,9999,9999,9999,2126397508
36,18,15,Jits_Phase_8,128,9999,9999,9999,2127197260
36,18,15,Jits_Phase_8,129,9999,9999,9999,2127998044
36,18,15,Jits_Phase_8,130,9999,9999,9999,2128797812
36,18,15,Jits_Phase_8,131,9999,9999,9999,2129757244
36,18,15,Jits_Phase_8,132,9999,9999,9999,2130558048
36,18,15,Jits_Phase_8,133,9999,9999,9999,2131357816
36,18,15,Jits_Phase_8,134,9999,9999,9999,2132157500
36,18,15,Jits_Phase_8,135,9999,9999,9999,2132957264
36,18,15,Jits_Phase_8,136,9999,9999,9999,2133758068
36,18,15,Jits_Phase_8,137,9999,9999,9999,2134557752
36,18,15,Jits_Phase_8,138,9999,9999,9999,2135357512
36,18,15,Jits_Phase_8,139,9999,9999,9999,2136157272
36,18,15,Jits_Phase_8,140,9999,9999,9999,2136958076
36,18,15,Jits_Phase_8,141,9999,9999,9999,2137757756
36,18,15,Jits_Phase_8,142,9999,9999,9999,2138557508
36,18,15,Jits_Phase_8,143,9999,9999,9999,2139357284
36,18,15,Jits_Phase_8,144,9999,9999,9999,2140158008
36,18,15,Jits_Phase_8,145,9999,9999,9999,2140957768
36,18,15,Jits_Phase_8,146,9999,9999,9999,2141757524
36,18,15,Jits_Phase_8,147,9999,9999,9999,2142557280
36,18,15,Jits_Phase_8,148,9999,9999,9999,2143358076
36,18,15,Jits_Phase_8,149,9999,9999,9999,2144157752
36,18,15,Jits_Phase_8,150,9999,9999,9999,2144797792
36,18,15,Jits_Phase_8,151,9999,9999,9999,2145597556
36,18,15,Jits_Phase_8,152,9999,9999,9999,2146397256
36,18,15,Jits_Phase_8,153,9999,9999,9999,2147198064
36,18,15,Jits_Phase_8,154,9999,9999,9999,2147997812
36,18,15,Jits_Phase_8,155,9999,9999,9999,2148797556
36,18,15,Jits_Phase_8,156,9999,9999,9999,2149597276
36,18,15,Jits_Phase_8,157,9999,9999,9999,2150398076
36,18,15,Jits_Phase_8,158,9999,9999,9999,2151197764
36,18,15,Jits_Phase_8,159,9999,9999,9999,2151997516
36,18,15,Jits_Phase_8,160,9999,9999,9999,2152797276
36,18,15,Jits_Phase_8,161,9999,9999,9999,2153598072
36,18,15,Jits_Phase_8,162,9999,9999,9999,2154397820
36,18,15,Jits_Phase_8,163,9999,9999,9999,2155197528
36,18,15,Jits_Phase_8,164,9999,9999,9999,2155997304
36,18,15,Jits_Phase_8,165,9999,9999,9999,2156798032
36,18,15,Jits_Phase_8,166,9999,9999,9999,2157597788
36,18,15,Jits_Phase_8,167,9999,9999,9999,2158397548
36,18,15,Jits_Phase_8,168,9999,9999,9999,2159197308
36,18,15,Jits_Phase_8,169,9999,9999,9999,2159998048
36,19,17,Jits_Phase_5,0,5,56,103,2170044784
36,19,17,Jits_Phase_5,1,5,63,98,2170047960
36,19,17,Jits_Phase_5,2,5,80,127,2170051152
36,19,17,Jits_Phase_5,0,1,48,32,2170359848
36,19,17,Jits_Phase_5,1,5,56,103,2170544448
36,19,17,Jits_Phase_5,2,5,63,98,2170547848
36,19,17,Jits_Phase_5,3,5,80,127,2170550816
36,19,17,Jits_Phase_5,4,1,48,40,2170790156
36,19,17,Jits_Phase_5,0,5,56,103,2171045220
36,19,17,Jits_Phase_5,1,5,80,127,2171054444
36,19,17,Jits_Phase_5,2,5,63,98,2171074852
36,19,17,Jits_Phase_5,0,1,48,48,2171299304
36,19,17,Jits_Phase_5,1,5,63,98,2171494952
36,19,17,Jits_Phase_5,2,5,80,127,2171524628
36,19,17,Jits_Phase_5,3,5,56,103,2171534824
36,19,17,Jits_Phase_5,4,1,48,47,2171743972
36,19,17,Jits_Phase_5,0,5,80,127,2172054836
36,19,17,Jits_Phase_5,1,5,56,103,2172065032
36,19,17,Jits_Phase_5,2,5,63,98,2172094780
36,19,17,Jits_Phase_5,3,1,48,47,2172236780
36,19,17,Jits_Phase_5,0,5,63,98,2172545660
36,19,17,Jits_Phase_5,1,5,56,103,2172575036
36,19,17,Jits_Phase_5,2,5,80,127,2172585752
36,19,17,Jits_Phase_5,3,1,48,33,2172699464
36,19,17,Jits_Phase_5,0,5,56,103,2172994976
36,19,17,Jits_Phase_5,1,5,63,98,2173044956
36,19,17,Jits_Phase_5,2,5,80,127,2173064736
36,19,17,Jits_Phase_5,3,1,48,47,2173162728
36,19,17,Jits_Phase_5,0,5,80,127,2173494664
36,19,17,Jits_Phase_5,1,5,63,98,2173544788
36,19,17,Jits_Phase_5,2,1,48,50,2173554280
36,19,17,Jits_Phase_5,3,5,56,103,2173584792
36,19,17,Jits_Phase_5,0,5,56,103,2173995324
36,19,17,Jits_Phase_5,1,5,63,98,2174025000
36,19,17,Jits_Phase_5,2,1,48,54,2174081968
36,19,17,Jits_Phase_5,3,5,80,127,2174094668
36,19,17,Jits_Phase_5,0,5,56,103,2174495160
36,19,17,Jits_Phase_5,1,1,48,51,2174504280
36,19,17,Jits_Phase_5,2,5,80,127,2174554572
36,19,17,Jits_Phase_5,3,5,63,98,2174585216
36,19,17,Jits_Phase_5,0,1,48,56,2174998484
36,19,17,Jits_Phase_5,1,5,56,103,2175005032
36,19,17,Jits_Phase_5,2,5,63,98,2175015452
36,19,17,Jits_Phase_5,3,5,80,127,2175055168
36,19,17,Jits_Phase_5,0,1,48,50,2175480852
36,19,17,Jits_Phase_5,1,5,63,98,2175494520
36,19,17,Jits_Phase_5,2,5,80,127,2175575420
36,19,17,Jits_Phase_5,3,5,56,103,2175584644
36,19,17,Jits_Phase_5,0,1,48,52,2176008404
36,19,17,Jits_Phase_5,1,5,63,98,2176045588
36,19,17,Jits_Phase_5,2,5,56,103,2176085600
36,19,17,Jits_Phase_5,3,5,80,127,2176088592
36,19,17,Jits_Phase_5,0,1,48,51,2176486496
36,19,17,Jits_Phase_5,1,5,56,103,2176505172
36,19,17,Jits_Phase_5,2,5,63,98,2176514620
36,19,17,Jits_Phase_5,3,5,80,127,2176555456
36,19,17,Jits_Phase_5,0,5,56,103,2176994660
36,19,17,Jits_Phase_5,1,5,63,98,2176997800
36,19,17,Jits_Phase_5,2,1,48,44,2177003180
36,19,17,Jits_Phase_5,3,5,80,127,2177015112
36,19,17,Jits_Phase_5,0,1,48,41,2177483664
36,19,17,Jits_Phase_5,1,5,80,127,2177504592
36,19,17,Jits_Phase_5,2,5,56,103,2177514864
36,19,17,Jits_Phase_5,3,5,63,98,2177584448
36,19,17,Jits_Phase_5,0,5,63,98,2177995056
36,19,17,Jits_Phase_5,1,5,56,103,2178014468
36,19,17,Jits_Phase_5,2,1,48,41,2178015436
36,19,17,Jits_Phase_5,3,5,80,127,2178094548
36,19,17,Jits_Phase_5,0,5,56,103,2178505144
36,19,17,Jits_Phase_5,1,1,48,50,2178506480
36,19,17,Jits_Phase_5,2,5,80,127,2178545000
36,19,17,Jits_Phase_5,3,5,63,98,2178555492
36,19,17,Jits_Phase_5,0,5,80,127,2178994692
36,19,17,Jits_Phase_5,1,5,63,98,2179025364
36,19,17,Jits_Phase_5,2,5,56,103,2179065300
36,19,17,Jits_Phase_5,3,1,48,49,2179071188
36,19,17,Jits_Phase_5,0,5,56,103,2179514608
36,19,17,Jits_Phase_5,1,1,48,46,2179529512
36,19,17,Jits_Phase_5,2,5,63,98,2179544524
36,19,17,Jits_Phase_5,3,5,80,127,2179594648
36,19,17,Jits_Phase_5,0,1,48,44,2180011708
36,19,17,Jits_Phase_5,1,5,80,127,2180014440
36,19,17,Jits_Phase_5,2,5,56,103,2180055380
36,19,17,Jits_Phase_5,3,5,63,98,2180064600
36,19,17,Jits_Phase_5,0,1,48,46,2180493816
36,19,17,Jits_Phase_5,1,5,80,127,2180495688
36,19,17,Jits_Phase_5,2,5,63,98,2180534652
36,19,17,Jits_Phase_5,3,5,56,103,2180595196
36,19,17,Jits_Phase_5,0,5,56,103,2180994388
36,19,17,Jits_Phase_5,1,5,80,127,2181004584
36,19,17,Jits_Phase_5,2,1,48,45,2181034152
36,19,17,Jits_Phase_5,3,5,63,98,2181084540
36,19,17,Jits_Phase_5,0,1,48,45,2181473892
36,19,17,Jits_Phase_5,1,5,80,127,2181495264
36,19,17,Jits_Phase_5,2,5,63,98,2181554532
36,19,17,Jits_Phase_5,3,5,56,103,2181585260
36,19,17,Jits_Phase_5,0,5,56,103,2181994868
36,19,17,Jits_Phase_5,1,1,48,44,2182050724
36,19,17,Jits_Phase_5,2,5,80,127,2182055552
36,19,17,Jits_Phase_5,3,5,63,98,2182095212
36,19,17,Jits_Phase_5,0,5,56,103,2182544684
36,19,17,Jits_Phase_5,1,1,48,35,2182545724
36,19,17,Jits_Phase_5,2,5,63,98,2182554864
36,19,17,Jits_Phase_5,3,5,80,127,2182558308
36,19,17,Jits_Phase_5,0,5,80,127,2182995432
36,19,17,Jits_Phase_5,1,1,48,40,2183015716
36,19,17,Jits_Phase_5,2,5,63,98,2183085412
36,19,17,Jits_Phase_5,3,5,56,103,2183094708
36,19,17,Jits_Phase_5,0,5,56,103,2183495108
36,19,17,Jits_Phase_5,1,5,63,98,2183498212
36,19,17,Jits_Phase_5,2,5,80,127,2183501256
36,19,17,Jits_Phase_5,3,1,48,39,2183567684
36,19,17,Jits_Phase_5,0,5,80,127,2184015240
36,19,17,Jits_Phase_5,1,1,48,23,2184022640
36,19,17,Jits_Phase_5,2,5,63,98,2184065436
36,19,17,Jits_Phase_5,3,5,56,103,2184095184
36,19,17,Jits_Phase_5,0,5,56,103,2184494476
36,19,17,Jits_Phase_5,1,5,80,127,2184504600
36,19,17,Jits_Phase_5,2,5,63,98,2184575324
36,19,17,Jits_Phase_5,0,5,56,103,2185005364
36,19,17,Jits_Phase_5,1,5,63,98,2185025072
36,19,17,Jits_Phase_5,2,5,80,127,2185085164
36,19,17,Jits_Phase_5,0,1,48,17,2185424672
36,19,17,Jits_Phase_5,1,5,80,127,2185484780
36,19,17,Jits_Phase_5,2,5,63,98,2185555268
36,19,17,Jits_Phase_5,3,5,56,103,2185575052
36,19,17,Jits_Phase_5,0,1,48,36,2185812080
36,19,17,Jits_Phase_5,1,5,80,127,2186004820
36,19,17,Jits_Phase_5,2,5,56,103,2186015164
36,19,17,Jits_Phase_5,3,5,63,98,2186025284
36,19,17,Jits_Phase_5,0,1,48,48,2186308384
36,19,17,Jits_Phase_5,1,5,80,127,2186504564
36,19,17,Jits_Phase_5,2,5,56,103,2186525024
36,19,17,Jits_Phase_5,3,5,63,98,2186594628
36,19,17,Jits_Phase_5,0,1,48,45,2186803356
36,19,17,Jits_Phase_5,1,5,56,103,2187014408
36,19,17,Jits_Phase_5,2,5,80,127,2187045280
36,19,17,Jits_Phase_5,3,5,63,98,2187064692
36,19,17,Jits_Phase_5,0,1,48,58,2187374544
36,19,17,Jits_Phase_5,1,5,63,98,2187505092
36,19,17,Jits_Phase_5,2,5,56,103,2187565332
36,19,17,Jits_Phase_5,3,5,80,127,2187595080
36,19,17,Jits_Phase_5,0,1,48,57,2187833316
36,19,17,Jits_Phase_5,1,5,63,98,2187994424
36,19,17,Jits_Phase_5,2,5,80,127,2187997864
36,19,17,Jits_Phase_5,3,5,56,103,2188084556
36,19,17,Jits_Phase_5,0,1,48,60,2188499620
36,19,17,Jits_Phase_5,1,5,56,103,2188514560
36,19,17,Jits_Phase_5,2,5,63,98,2188545356
36,19,17,Jits_Phase_5,3,5,80,127,2188585440
36,19,17,Jits_Phase_5,0,5,63,98,2189015364
36,19,17,Jits_Phase_5,1,5,56,103,2189055300
36,19,17,Jits_Phase_5,2,5,80,127,2189074788
36,19,17,Jits_Phase_5,3,1,48,58,2189085176
36,19,17,Jits_Phase_5,0,5,63,98,2189525376
36,19,17,Jits_Phase_5,1,1,48,52,2189548420
36,19,17,Jits_Phase_5,2,5,56,103,2189565380
36,19,17,Jits_Phase_5,3,5,80,127,2189574456
36,19,17,Jits_Phase_5,0,5,80,127,2190004796
36,19,17,Jits_Phase_5,1,1,48,54,2190051984
36,19,17,Jits_Phase_5,2,5,63,98,2190075244
36,19,17,Jits_Phase_5,3,5,56,103,2190094656
36,19,17,Jits_Phase_5,0,5,56,103,2190495048
36,19,17,Jits_Phase_5,1,5,80,127,2190514984
36,19,17,Jits_Phase_5,2,5,63,98,2190554424
36,19,17,Jits_Phase_5,3,1,48,42,2190574924
36,19,17,Jits_Phase_5,0,5,63,98,2191004928
36,19,17,Jits_Phase_5,1,5,80,127,2191024636
36,19,17,Jits_Phase_5,2,1,48,55,2191046736
36,19,17,Jits_Phase_5,3,5,56,103,2191064292
36,19,17,Jits_Phase_5,0,1,48,55,2191499472
36,19,17,Jits_Phase_5,1,5,63,98,2191505192
36,19,17,Jits_Phase_5,2,5,56,103,2191525128
36,19,17,Jits_Phase_5,3,5,80,127,2191534500
36,19,17,Jits_Phase_5,0,1,48,39,2191997568
36,19,17,Jits_Phase_5,1,5,80,127,2192004416
36,19,17,Jits_Phase_5,2,5,56,103,2192024948
36,19,17,Jits_Phase_5,3,5,63,98,2192054848
36,19,17,Jits_Phase_5,0,1,48,49,2192497320
36,19,17,Jits_Phase_5,1,5,56,103,2192574836
36,19,17,Jits_Phase_5,2,5,80,127,2192577904
36,19,17,Jits_Phase_5,3,5,63,98,2192595204
36,19,17,Jits_Phase_5,0,5,63,98,2192995000
36,19,17,Jits_Phase_5,1,5,56,103,2193025348
36,19,17,Jits_Phase_5,2,1,48,60,2193076940
36,19,17,Jits_Phase_5,3,5,80,127,2193085128
36,19,17,Jits_Phase_5,0,1,48,49,2193517920
36,19,17,Jits_Phase_5,1,5,63,98,2193575408
36,19,17,Jits_Phase_5,2,5,56,103,2193584632
36,19,17,Jits_Phase_5,3,5,80,127,2193594828
36,19,17,Jits_Phase_5,0,5,56,103,2194035016
36,19,17,Jits_Phase_5,1,5,80,127,2194064768
36,19,17,Jits_Phase_5,2,1,48,49,2194066560
36,19,17,Jits_Phase_5,3,5,63,98,2194074880
36,19,17,Jits_Phase_5,0,1,48,48,2194472480
36,19,17,Jits_Phase_5,1,5,63,98,2194574992
36,19,17,Jits_Phase_5,2,5,56,103,2194585112
36,19,17,Jits_Phase_5,3,5,80,127,2194605496
36,19,17,Jits_Phase_5,0,5,56,103,2195004796
36,19,17,Jits_Phase_5,1,5,63,98,2195065184
36,19,17,Jits_Phase_5,2,1,48,48,2195066168
36,19,17,Jits_Phase_5,3,5,80,127,2195070040
36,19,17,Jits_Phase_5,0,1,48,53,2195508712
36,19,17,Jits_Phase_5,1,5,80,127,2195525000
36,19,17,Jits_Phase_5,2,5,56,103,2195535344
36,19,17,Jits_Phase_5,3,5,63,98,2195604944
36,19,17,Jits_Phase_5,0,5,80,127,2196014564
36,19,17,Jits_Phase_5,1,1,48,50,2196048324
36,19,17,Jits_Phase_5,2,5,56,103,2196085060
36,19,17,Jits_Phase_5,3,5,63,98,2196095332
36,19,17,Jits_Phase_5,0,5,63,98,2196555012
36,19,17,Jits_Phase_5,1,1,48,55,2196564076
36,19,17,Jits_Phase_5,2,5,56,103,2196565868
36,19,17,Jits_Phase_5,3,5,80,127,2196584760
36,19,17,Jits_Phase_5,0,5,80,127,2197004716
36,19,17,Jits_Phase_5,1,5,63,98,2197065028
36,19,17,Jits_Phase_5,2,1,48,46,2197070764
36,19,17,Jits_Phase_5,3,5,56,103,2197104960
36,19,17,Jits_Phase_5,0,5,56,103,2197545236
36,19,17,Jits_Phase_5,1,5,63,98,2197554536
36,19,17,Jits_Phase_5,2,1,48,53,2197588740
36,19,17,Jits_Phase_5,3,5,80,127,2197594612
36,19,17,Jits_Phase_5,0,5,56,103,2198015556
36,19,17,Jits_Phase_5,1,5,80,127,2198045156
36,19,17,Jits_Phase_5,2,1,48,54,2198061680
36,19,17,Jits_Phase_5,3,5,63,98,2198095200
36,19,17,Jits_Phase_5,0,5,56,103,2198554956
36,19,17,Jits_Phase_5,1,5,63,98,2198594812
36,19,17,Jits_Phase_5,2,1,48,52,2198596328
36,19,17,Jits_Phase_5,3,5,80,127,2198599596
36,19,17,Jits_Phase_5,0,5,56,103,2199054864
36,19,17,Jits_Phase_5,1,5,63,98,2199064836
36,19,17,Jits_Phase_5,2,5,80,127,2199085520
36,19,17,Jits_Phase_5,3,1,48,54,2199097480
36,19,17,Jits_Phase_5,0,5,56,103,2199514472
36,19,17,Jits_Phase_5,1,5,80,127,2199517540
36,19,17,Jits_Phase_5,2,5,63,98,2199554480
36,19,17,Jits_Phase_5,3,1,48,50,2199587712
36,19,17,Jits_Phase_5,0,5,63,98,2200055052
36,19,17,Jits_Phase_5,1,1,48,49,2200067764
36,19,17,Jits_Phase_5,2,5,56,103,2200084796
36,19,17,Jits_Phase_5,3,5,80,127,2200105776
36,19,17,Jits_Phase_5,0,5,80,127,2200525064
36,19,17,Jits_Phase_5,1,5,56,103,2200535632
36,19,17,Jits_Phase_5,2,5,63,98,2200544704
36,19,17,Jits_Phase_5,3,1,48,58,2200628280
36,19,17,Jits_Phase_5,0,5,56,103,2201024752
36,19,17,Jits_Phase_5,1,1,48,52,2201056936
36,19,17,Jits_Phase_5,2,5,80,127,2201064756
36,19,17,Jits_Phase_5,3,5,63,98,2201094504
36,19,17,Jits_Phase_5,0,5,63,98,2201534780
36,19,17,Jits_Phase_5,1,5,80,127,2201544976
36,19,17,Jits_Phase_5,2,5,56,103,2201555392
36,19,17,Jits_Phase_5,3,1,48,57,2201557912
36,19,17,Jits_Phase_5,0,1,48,46,2201991236
36,19,17,Jits_Phase_5,1,5,56,103,2202025504
36,19,17,Jits_Phase_5,2,5,63,98,2202094900
36,19,17,Jits_Phase_5,3,5,80,127,2202105092
36,19,17,Jits_Phase_5,0,5,80,127,2202535376
36,19,17,Jits_Phase_5,1,5,56,103,2202544604
36,19,17,Jits_Phase_5,2,1,48,51,2202554316
36,19,17,Jits_Phase_5,3,5,63,98,2202594596
36,19,17,Jits_Phase_5,0,5,80,127,2203045328
36,19,17,Jits_Phase_5,1,1,48,55,2203060804
36,19,17,Jits_Phase_5,2,5,56,103,2203104612
36,19,17,Jits_Phase_5,3,5,63,98,2203135480
36,19,17,Jits_Phase_5,0,5,56,103,2203545012
36,19,17,Jits_Phase_5,1,5,80,127,2203548232
36,19,17,Jits_Phase_5,2,5,63,98,2203584828
36,19,17,Jits_Phase_5,3,1,48,53,2203608620
36,19,17,Jits_Phase_5,0,1,48,49,2204060232
36,19,17,Jits_Phase_5,1,5,56,103,2204075548
36,19,17,Jits_Phase_5,2,5,63,98,2204105024
36,19,17,Jits_Phase_5,3,5,80,127,2204115440
36,19,17,Jits_Phase_5,0,1,48,59,2204541548
36,19,17,Jits_Phase_5,1,5,63,98,2204585408
36,19,17,Jits_Phase_5,2,5,80,127,2204594632
36,19,17,Jits_Phase_5,3,5,56,103,2204604928
36,19,17,Jits_Phase_5,0,5,80,127,2205034748
36,19,17,Jits_Phase_5,1,1,48,58,2205053232
36,19,17,Jits_Phase_5,2,5,56,103,2205085016
36,19,17,Jits_Phase_5,3,5,63,98,2205088380
36,19,17,Jits_Phase_5,0,5,56,103,2205565364
36,19,17,Jits_Phase_5,1,5,80,127,2205584704
36,19,17,Jits_Phase_5,2,1,48,51,2205587372
36,19,17,Jits_Phase_5,3,5,63,98,2205594892
36,19,17,Jits_Phase_5,0,5,63,98,2206044604
36,19,17,Jits_Phase_5,1,5,56,103,2206075472
36,19,17,Jits_Phase_5,2,1,48,35,2206088180
36,19,17,Jits_Phase_5,3,5,80,127,2206094728
36,19,17,Jits_Phase_5,0,1,48,51,2206542360
36,19,17,Jits_Phase_5,1,5,56,103,2206554460
36,19,17,Jits_Phase_5,2,5,80,127,2206564804
36,19,17,Jits_Phase_5,3,5,63,98,2206635304
36,19,17,Jits_Phase_5,0,5,63,98,2207044852
36,19,17,Jits_Phase_5,1,1,48,57,2207064828
36,19,17,Jits_Phase_5,2,5,80,127,2207084856
36,19,17,Jits_Phase_5,3,5,56,103,2207124940
36,19,17,Jits_Phase_5,0,1,48,48,2207420564
36,19,17,Jits_Phase_5,1,5,56,103,2207555060
36,19,17,Jits_Phase_5,2,5,63,98,2207565404
36,19,17,Jits_Phase_5,3,5,80,127,2207584516
36,19,17,Jits_Phase_5,0,1,48,54,2208038988
36,19,17,Jits_Phase_5,1,5,63,98,2208094608
36,19,17,Jits_Phase_5,2,5,80,127,2208115212
36,19,17,Jits_Phase_5,3,5,56,103,2208135360
36,19,17,Jits_Phase_5,0,5,56,103,2208535176
36,19,17,Jits_Phase_5,1,1,48,51,2208593968
36,19,17,Jits_Phase_5,2,5,80,127,2208614812
36,19,17,Jits_Phase_5,3,5,63,98,2208625232
36,19,17,Jits_Phase_5,0,5,80,127,2209074428
36,19,17,Jits_Phase_5,1,5,63,98,2209084700
36,19,17,Jits_Phase_5,2,1,48,54,2209099276
36,19,17,Jits_Phase_5,3,5,56,103,2209114588
36,19,17,Jits_Phase_5,0,5,63,98,2209535308
36,19,17,Jits_Phase_5,1,5,80,127,2209575244
36,19,17,Jits_Phase_5,2,1,48,48,2209605556
36,19,17,Jits_Phase_5,3,5,56,103,2209634576
36,19,17,Jits_Phase_5,0,1,48,53,2210026260
36,19,17,Jits_Phase_5,1,5,63,98,2210045240
36,19,17,Jits_Phase_5,2,5,56,103,2210094396
36,19,17,Jits_Phase_5,3,5,80,127,2210125324
36,19,17,Jits_Phase_5,0,1,48,51,2210515596
36,19,17,Jits_Phase_5,1,5,80,127,2210545216
36,19,17,Jits_Phase_5,2,5,63,98,2210555336
36,19,17,Jits_Phase_5,3,5,56,103,2210624924
36,19,17,Jits_Phase_5,0,1,48,55,2211019092
36,19,17,Jits_Phase_5,1,5,80,127,2211105276
36,19,17,Jits_Phase_5,2,5,56,103,2211115308
36,19,17,Jits_Phase_5,3,5,63,98,2211118524
36,19,17,Jits_Phase_5,0,5,56,103,2211544428
36,19,17,Jits_Phase_5,1,5,80,127,2211565036
36,19,17,Jits_Phase_5,2,5,63,98,2211575156
36,19,17,Jits_Phase_5,3,1,48,47,2211613864
36,19,17,Jits_Phase_5,0,5,63,98,2212055428
36,19,17,Jits_Phase_5,1,1,48,51,2212078852
36,19,17,Jits_Phase_5,2,5,56,103,2212095284
36,19,17,Jits_Phase_5,3,5,80,127,2212114772
36,19,17,Jits_Phase_5,0,5,63,98,2212555180
36,19,17,Jits_Phase_5,1,1,48,51,2212566916
36,19,17,Jits_Phase_5,2,5,56,103,2212614440
36,19,17,Jits_Phase_5,3,5,80,127,2212617584
36,19,17,Jits_Phase_5,0,5,56,103,2213015340
36,19,17,Jits_Phase_5,1,1,48,46,2213016308
36,19,17,Jits_Phase_5,2,5,80,127,2213035348
36,19,17,Jits_Phase_5,3,5,63,98,2213075308
36,19,17,Jits_Phase_5,0,1,48,51,2213515148
36,19,17,Jits_Phase_5,1,5,56,103,2213545292
36,19,17,Jits_Phase_5,2,5,63,98,2213564952
36,19,17,Jits_Phase_5,3,5,80,127,2213575072
36,19,17,Jits_Phase_5,0,1,48,50,2213998404
36,19,17,Jits_Phase_5,1,5,80,127,2214015364
36,19,17,Jits_Phase_5,2,5,56,103,2214045040
36,19,17,Jits_Phase_5,3,5,63,98,2214085000
36,19,17,Jits_Phase_5,0,1,48,53,2214518832
36,19,17,Jits_Phase_5,1,5,80,127,2214525376
36,19,17,Jits_Phase_5,2,5,56,103,2214544936
36,19,17,Jits_Phase_5,3,5,63,98,2214605272
36,19,17,Jits_Phase_5,0,1,48,50,2215008392
36,19,17,Jits_Phase_5,1,5,56,103,2215035384
36,19,17,Jits_Phase_5,2,5,80,127,2215054724
36,19,17,Jits_Phase_5,3,5,63,98,2215115040
36,19,17,Jits_Phase_5,0,5,80,127,2215514460
36,19,17,Jits_Phase_5,1,5,56,103,2215524956
36,19,17,Jits_Phase_5,2,1,48,53,2215539460
36,19,17,Jits_Phase_5,3,5,63,98,2215564588
36,19,17,Jits_Phase_5,0,5,63,98,2216015192
36,19,17,Jits_Phase_5,1,1,48,41,2216021528
36,19,17,Jits_Phase_5,2,5,56,103,2216055272
36,19,17,Jits_Phase_5,3,5,80,127,2216058196
36,19,17,Jits_Phase_5,0,1,48,45,2216518720
36,19,17,Jits_Phase_5,1,5,63,98,2216535380
36,19,17,Jits_Phase_5,2,5,80,127,2216575316
36,19,17,Jits_Phase_5,3,5,56,103,2216605064
36,19,17,Jits_Phase_5,0,1,48,45,2217002724
36,19,17,Jits_Phase_5,1,5,56,103,2217024864
36,19,17,Jits_Phase_5,2,5,63,98,2217035136
36,19,17,Jits_Phase_5,3,5,80,127,2217065032
36,19,17,Jits_Phase_5,0,1,48,54,2217502024
36,19,17,Jits_Phase_5,1,5,80,127,2217515320
36,19,17,Jits_Phase_5,2,5,63,98,2217585148
36,19,17,Jits_Phase_5,3,5,56,103,2217596152
36,19,17,Jits_Phase_5,0,5,63,98,2218015152
36,19,17,Jits_Phase_5,1,1,48,50,2218029064
36,19,17,Jits_Phase_5,2,5,56,103,2218084972
36,19,17,Jits_Phase_5,3,5,80,127,2218095020
36,19,17,Jits_Phase_5,0,5,63,98,2218495272
36,19,17,Jits_Phase_5,1,5,56,103,2218514832
36,19,17,Jits_Phase_5,2,5,80,127,2218554844
36,19,17,Jits_Phase_5,3,1,48,45,2218555884
36,19,17,Jits_Phase_5,0,5,56,103,2218974872
36,19,17,Jits_Phase_5,1,5,63,98,2218984992
36,19,17,Jits_Phase_5,2,1,48,46,2219013664
36,19,17,Jits_Phase_5,3,5,80,127,2219064924
36,19,17,Jits_Phase_5,0,5,63,98,2219465048
36,19,17,Jits_Phase_5,1,1,48,47,2219476860
36,19,17,Jits_Phase_5,2,5,56,103,2219494792
36,19,17,Jits_Phase_5,3,5,80,127,2219534804
36,19,17,Jits_Phase_5,0,5,56,103,2219965020
36,19,17,Jits_Phase_5,1,5,63,98,2220004956
36,19,17,Jits_Phase_5,2,5,80,127,2220044596
36,19,17,Jits_Phase_5,3,1,48,43,2220259280
36,19,17,Jits_Phase_5,0,5,80,127,2220464688
36,19,17,Jits_Phase_5,1,5,56,103,2220545328
36,19,17,Jits_Phase_5,2,5,63,98,2220554848
36,19,17,Jits_Phase_5,3,1,48,39,2220626140
36,19,17,Jits_Phase_5,0,5,56,103,2221005232
36,19,17,Jits_Phase_5,1,5,63,98,2221008524
36,19,17,Jits_Phase_5,2,5,80,127,2221015504
36,19,17,Jits_Phase_5,3,1,48,48,2221021164
36,19,17,Jits_Phase_5,0,1,48,49,2221500608
36,19,17,Jits_Phase_5,1,5,56,103,2221525436
36,19,17,Jits_Phase_5,2,5,63,98,2221544772
36,19,17,Jits_Phase_5,3,5,80,127,2221555116
36,19,17,Jits_Phase_5,0,5,63,98,2221985164
36,19,17,Jits_Phase_5,1,5,80,127,2221995808
36,19,17,Jits_Phase_5,2,5,56,103,2222014872
36,19,17,Jits_Phase_5,3,1,48,40,2222017624
36,19,17,Jits_Phase_5,0,5,63,98,2222484836
36,19,17,Jits_Phase_5,1,1,48,42,2222536156
36,19,17,Jits_Phase_5,2,5,56,103,2222564720
36,19,17,Jits_Phase_5,3,5,80,127,2222567936
36,19,17,Jits_Phase_5,0,5,63,98,2222994696
36,19,17,Jits_Phase_5,1,5,56,103,2223015376
36,19,17,Jits_Phase_5,2,1,48,60,2223039720
36,19,17,Jits_Phase_5,3,5,80,127,2223045068
36,19,17,Jits_Phase_5,0,1,48,55,2223453288
36,19,17,Jits_Phase_5,1,5,56,103,2223494584
36,19,17,Jits_Phase_5,2,5,63,98,2223515044
36,19,17,Jits_Phase_5,3,5,80,127,2223525312
36,19,17,Jits_Phase_5,0,5,56,103,2224024980
36,19,17,Jits_Phase_5,1,1,48,55,2224045632
36,19,17,Jits_Phase_5,2,5,63,98,2224054796
36,19,17,Jits_Phase_5,3,5,80,127,2224057936
36,19,17,Jits_Phase_5,0,5,56,103,2224474692
36,19,17,Jits_Phase_5,1,5,63,98,2224514552
36,19,17,Jits_Phase_5,2,1,48,51,2224553340
36,19,17,Jits_Phase_5,3,5,80,127,2224574884
36,19,17,Jits_Phase_5,0,5,56,103,2224994760
36,19,17,Jits_Phase_5,1,5,63,98,2225004880
36,19,17,Jits_Phase_5,2,5,80,127,2225065488
36,19,17,Jits_Phase_5,3,1,48,55,2225073268
36,19,17,Jits_Phase_5,0,5,56,103,2225495496
36,19,17,Jits_Phase_5,1,5,80,127,2225514756
36,19,17,Jits_Phase_5,2,5,63,98,2225544580
36,19,17,Jits_Phase_5,3,1,48,51,2225560880
36,19,17,Jits_Phase_5,0,5,80,127,2225995260
36,19,17,Jits_Phase_5,1,5,56,103,2226005604
36,19,17,Jits_Phase_5,2,5,63,98,2226024792
36,19,17,Jits_Phase_5,3,1,48,49,2226109360
36,19,17,Jits_Phase_5,0,5,63,98,2226484536
36,19,17,Jits_Phase_5,1,5,80,127,2226564700
36,19,17,Jits_Phase_5,2,5,56,103,2226574896
36,19,17,Jits_Phase_5,3,1,48,40,2226599144
36,19,17,Jits_Phase_5,0,5,80,127,2227074492
36,19,17,Jits_Phase_5,1,5,56,103,2227094796
36,19,17,Jits_Phase_5,2,5,63,98,2227097944
36,19,17,Jits_Phase_5,3,1,48,46,2227159740
36,19,17,Jits_Phase_5,0,5,63,98,2227564884
36,19,17,Jits_Phase_5,1,5,80,127,2227568396
36,19,17,Jits_Phase_5,2,1,48,47,2227614156
36,19,17,Jits_Phase_5,3,5,56,103,2227625488
36,19,17,Jits_Phase_5,0,5,56,103,2228045072
36,19,17,Jits_Phase_5,1,5,80,127,2228055496
36,19,17,Jits_Phase_5,2,5,63,98,2228095428
36,19,17,Jits_Phase_5,3,1,48,47,2228176632
36,19,17,Jits_Phase_5,0,5,56,103,2228525580
36,19,17,Jits_Phase_5,1,5,63,98,2228584924
36,19,17,Jits_Phase_5,2,5,80,127,2228595192
36,19,17,Jits_Phase_5,3,1,48,42,2228695424
36,19,17,Jits_Phase_5,0,5,63,98,2229035460
36,19,17,Jits_Phase_5,1,5,80,127,2229075396
36,19,17,Jits_Phase_5,2,5,56,103,2229115404
36,19,17,Jits_Phase_5,3,1,48,41,2229261696
36,19,17,Jits_Phase_5,0,5,56,103,2229534984
36,19,17,Jits_Phase_5,1,5,63,98,2229614924
36,19,17,Jits_Phase_5,2,5,80,127,2229618440
36,19,17,Jits_Phase_5,3,1,48,41,2229819800
36,19,17,Jits_Phase_5,0,5,80,127,2230095424
36,19,17,Jits_Phase_5,1,5,56,103,2230124948
36,19,17,Jits_Phase_5,2,5,63,98,2230128088
36,19,17,Jits_Phase_5,3,1,48,39,2230255744
36,19,17,Jits_Phase_5,0,5,56,103,2230554956
36,19,17,Jits_Phase_5,1,5,80,127,2230574440
36,19,17,Jits_Phase_5,2,5,63,98,2230615276
36,19,17,Jits_Phase_5,3,1,48,36,2230762384
36,19,17,Jits_Phase_5,0,5,80,127,2231035460
36,19,17,Jits_Phase_5,1,5,63,98,2231054652
36,19,17,Jits_Phase_5,2,5,56,103,2231115556
36,19,17,Jits_Phase_5,3,1,48,27,2231233024
36,19,17,Jits_Phase_5,0,5,63,98,2231545252
36,19,17,Jits_Phase_5,1,5,56,103,2231554400
36,19,17,Jits_Phase_5,2,5,80,127,2231604596
36,19,17,Jits_Phase_5,3,1,48,25,2231725404
36,19,17,Jits_Phase_5,0,5,56,103,2232034808
36,19,17,Jits_Phase_5,1,5,63,98,2232055416
36,19,17,Jits_Phase_5,2,5,80,127,2232065392
36,19,17,Jits_Phase_5,3,1,48,27,2232184028
36,19,17,Jits_Phase_5,0,5,56,103,2232525276
36,19,17,Jits_Phase_5,1,5,63,98,2232528272
36,19,17,Jits_Phase_5,2,5,80,127,2232544688
36,19,17,Jits_Phase_5,3,1,48,27,2232617400
36,19,17,Jits_Phase_5,0,5,63,98,2233064736
36,19,17,Jits_Phase_5,1,5,56,103,2233094484
36,19,17,Jits_Phase_5,2,5,80,127,2233125280
36,19,17,Jits_Phase_5,3,1,48,20,2233167652
36,19,17,Jits_Phase_5,0,5,80,127,2233524532
36,19,17,Jits_Phase_5,1,1,48,23,2233596228
36,19,17,Jits_Phase_5,2,5,56,103,2233614828
36,19,17,Jits_Phase_5,3,5,63,98,2233617968
36,19,17,Jits_Phase_5,0,5,56,103,2234025404
36,19,17,Jits_Phase_5,1,5,80,127,2234028548
36,19,17,Jits_Phase_5,2,1,48,17,2234093280
36,19,17,Jits_Phase_5,3,5,63,98,2234105288
36,19,17,Jits_Phase_5,0,5,80,127,2234525308
36,19,17,Jits_Phase_5,1,1,48,21,2234552400
36,19,17,Jits_Phase_5,2,5,63,98,2234584372
36,19,17,Jits_Phase_5,3,5,56,103,2234615316
36,19,17,Jits_Phase_5,0,5,63,98,2235024628
36,19,17,Jits_Phase_5,1,5,80,127,2235035120
36,19,17,Jits_Phase_5,2,1,48,24,2235097300
36,19,17,Jits_Phase_5,3,5,56,103,2235104664
36,19,17,Jits_Phase_5,0,1,48,23,2235572672
36,19,17,Jits_Phase_5,1,5,56,103,2235585000
36,19,17,Jits_Phase_5,2,5,80,127,2235614452
36,19,17,Jits_Phase_5,3,5,63,98,2235665532
36,19,17,Jits_Phase_5,0,5,63,98,2236174656
36,19,17,Jits_Phase_5,1,1,48,22,2236176968
36,19,17,Jits_Phase_5,2,5,56,103,2236205292
36,19,17,Jits_Phase_5,3,5,80,127,2236208736
36,19,17,Jits_Phase_5,0,5,63,98,2236674400
36,19,17,Jits_Phase_5,1,1,48,24,2236679240
36,19,17,Jits_Phase_5,2,5,80,127,2236694776
36,19,17,Jits_Phase_5,3,5,56,103,2236705268
36,19,17,Jits_Phase_5,0,5,56,103,2237185460
36,19,17,Jits_Phase_5,1,5,63,98,2237188752
36,19,17,Jits_Phase_5,2,5,80,127,2237204944
36,19,17,Jits_Phase_5,3,1,48,30,2237236608
36,19,17,Jits_Phase_5,0,5,56,103,2237635020
36,19,17,Jits_Phase_5,1,5,63,98,2237645144
36,19,17,Jits_Phase_5,2,5,80,127,2237675116
36,19,17,Jits_Phase_5,3,1,48,29,2237763488
36,19,17,Jits_Phase_5,0,5,63,98,2238155164
36,19,17,Jits_Phase_5,1,5,80,127,2238174428
36,19,17,Jits_Phase_5,2,1,48,27,2238209900
36,19,17,Jits_Phase_5,3,5,56,103,2238214652
36,19,17,Jits_Phase_5,0,5,56,103,2238684436
36,19,17,Jits_Phase_5,1,1,48,34,2238724220
36,19,17,Jits_Phase_5,2,5,63,98,2238725956
36,19,17,Jits_Phase_5,3,5,80,127,2238729000
36,19,17,Jits_Phase_5,0,5,80,127,2239124988
36,19,17,Jits_Phase_5,1,5,56,103,2239164876
36,19,17,Jits_Phase_5,2,1,48,31,2239167320
36,19,17,Jits_Phase_5,3,5,63,98,2239215068
36,19,17,Jits_Phase_5,0,5,56,103,2239685012
36,19,17,Jits_Phase_5,1,5,80,127,2239695356
36,19,17,Jits_Phase_5,2,1,48,41,2239722836
36,19,17,Jits_Phase_5,3,5,63,98,2239724876
36,19,17,Jits_Phase_5,0,5,56,103,2240134480
36,19,17,Jits_Phase_5,1,5,80,127,2240174420
36,19,17,Jits_Phase_5,2,1,48,42,2240198088
36,19,17,Jits_Phase_5,3,5,63,98,2240225008
36,19,17,Jits_Phase_5,0,5,56,103,2240635364
36,19,17,Jits_Phase_5,1,5,80,127,2240675080
36,19,17,Jits_Phase_5,2,1,48,44,2240720096
36,19,17,Jits_Phase_5,3,5,63,98,2240725444
36,19,17,Jits_Phase_5,0,5,80,127,2241124940
36,19,17,Jits_Phase_5,1,5,63,98,2241204884
36,19,17,Jits_Phase_5,2,5,56,103,2241215104
36,19,17,Jits_Phase_5,3,1,48,22,2241249684
36,19,17,Jits_Phase_5,0,5,80,127,2241674752
36,19,17,Jits_Phase_5,1,5,56,103,2241684948
36,19,17,Jits_Phase_5,2,5,63,98,2241705260
36,19,17,Jits_Phase_5,3,1,48,29,2241778444
36,19,17,Jits_Phase_5,0,5,63,98,2242144924
36,19,17,Jits_Phase_5,1,5,56,103,2242215276
36,19,17,Jits_Phase_5,2,5,80,127,2242218420
36,19,17,Jits_Phase_5,3,1,48,33,2242225968
36,19,17,Jits_Phase_5,0,5,80,127,2242635156
36,19,17,Jits_Phase_5,1,5,63,98,2242685356
36,19,17,Jits_Phase_5,2,1,48,38,2242725516
36,19,17,Jits_Phase_5,3,5,56,103,2242727088
36,19,17,Jits_Phase_5,0,1,48,34,2243174856
36,19,17,Jits_Phase_5,1,5,63,98,2243176344
36,19,17,Jits_Phase_5,2,5,56,103,2243214788
36,19,17,Jits_Phase_5,3,5,80,127,2243224984
36,19,17,Jits_Phase_5,0,5,63,98,2243665172
36,19,17,Jits_Phase_5,1,5,56,103,2243684880
36,19,17,Jits_Phase_5,2,5,80,127,2243705340
36,19,17,Jits_Phase_5,3,1,48,29,2243771928
36,19,17,Jits_Phase_5,0,5,80,127,2244124992
36,19,17,Jits_Phase_5,1,5,56,103,2244135336
36,19,17,Jits_Phase_5,2,5,63,98,2244154820
36,19,17,Jits_Phase_5,3,1,48,37,2244256300
36,19,17,Jits_Phase_5,0,5,63,98,2244654420
36,19,17,Jits_Phase_5,1,5,56,103,2244695480
36,19,17,Jits_Phase_5,2,1,48,46,2244720992
36,19,17,Jits_Phase_5,3,5,80,127,2244725220
36,19,17,Jits_Phase_5,0,5,56,103,2245115360
36,19,17,Jits_Phase_5,1,5,63,98,2245144884
36,19,17,Jits_Phase_5,2,1,48,39,2245152564
36,19,17,Jits_Phase_5,3,5,80,127,2245174628
36,19,17,Jits_Phase_5,0,5,80,127,2245535168
36,19,17,Jits_Phase_5,1,5,56,103,2245604944
36,19,17,Jits_Phase_5,2,5,63,98,2245608016
36,19,17,Jits_Phase_5,3,1,48,29,2245664256
36,19,17,Jits_Phase_5,0,5,56,103,2246044892
36,19,17,Jits_Phase_5,1,5,63,98,2246095340
36,19,17,Jits_Phase_5,2,5,80,127,2246124868
36,19,17,Jits_Phase_5,0,5,63,98,2246525432
36,19,17,Jits_Phase_5,1,5,80,127,2246528796
36,19,17,Jits_Phase_5,2,5,56,103,2246584920
36,19,17,Jits_Phase_5,3,1,48,18,2246730964
36,19,17,Jits_Phase_5,0,5,56,103,2247054796
36,19,17,Jits_Phase_5,1,5,80,127,2247064916
36,19,17,Jits_Phase_5,2,5,63,98,2247115068
36,19,17,Jits_Phase_5,3,1,48,41,2247156168
36,19,17,Jits_Phase_5,0,5,63,98,2247524968
36,19,17,Jits_Phase_5,1,5,56,103,2247535088
36,19,17,Jits_Phase_5,2,5,80,127,2247564760
36,19,17,Jits_Phase_5,3,1,48,37,2247625140
36,19,17,Jits_Phase_5,0,1,48,46,2248053144
36,19,17,Jits_Phase_5,1,5,63,98,2248055116
36,19,17,Jits_Phase_5,2,5,80,127,2248058336
36,19,17,Jits_Phase_5,3,5,56,103,2248084944
36,19,17,Jits_Phase_5,0,1,48,51,2248540068
36,19,17,Jits_Phase_5,1,5,63,98,2248575760
36,19,17,Jits_Phase_5,2,5,56,103,2248594724
36,19,17,Jits_Phase_5,3,5,80,127,2248597716
36,19,17,Jits_Phase_5,0,1,48,47,2249030196
36,19,17,Jits_Phase_5,1,5,63,98,2249035024
36,19,17,Jits_Phase_5,2,5,56,103,2249104704
36,19,17,Jits_Phase_5,3,5,80,127,2249125072
36,19,17,Jits_Phase_5,0,5,56,103,2249524816
36,19,17,Jits_Phase_5,1,1,48,40,2249531528
36,19,17,Jits_Phase_5,2,5,63,98,2249534856
36,19,17,Jits_Phase_5,3,5,80,127,2249626092
36,19,17,Jits_Phase_5,0,1,48,49,2249953676
36,19,17,Jits_Phase_5,1,5,56,103,2250044876
36,19,17,Jits_Phase_5,2,5,80,127,2250084652
36,19,17,Jits_Phase_5,3,5,63,98,2250095068
36,19,17,Jits_Phase_5,0,1,48,36,2250365292
36,19,17,Jits_Phase_5,1,5,56,103,2250564988
36,19,17,Jits_Phase_5,2,5,63,98,2250594664
36,19,17,Jits_Phase_5,3,5,80,127,2250625532
36,19,17,Jits_Phase_5,0,1,48,40,2250991976
36,19,17,Jits_Phase_5,1,5,80,127,2251024900
36,19,17,Jits_Phase_5,2,5,63,98,2251064612
36,19,17,Jits_Phase_5,3,5,56,103,2251085144
36,19,17,Jits_Phase_5,0,1,48,60,2251556688
36,19,17,Jits_Phase_5,1,5,56,103,2251565480
36,19,17,Jits_Phase_5,2,5,80,127,2251584816
36,19,17,Jits_Phase_5,3,5,63,98,2251605572
36,19,17,Jits_Phase_5,0,1,48,53,2252034596
36,19,17,Jits_Phase_5,1,5,63,98,2252036164
36,19,17,Jits_Phase_5,2,5,56,103,2252044640
36,19,17,Jits_Phase_5,3,5,80,127,2252105100
36,19,17,Jits_Phase_5,0,5,56,103,2252535168
36,19,17,Jits_Phase_5,1,1,48,57,2252588336
36,19,17,Jits_Phase_5,2,5,63,98,2252604696
36,19,17,Jits_Phase_5,3,5,80,127,2252625448
36,19,17,Jits_Phase_5,0,5,56,103,2253034716
36,19,17,Jits_Phase_5,1,5,63,98,2253064468
36,19,17,Jits_Phase_5,2,1,48,63,2253104624
36,19,17,Jits_Phase_5,3,5,80,127,2253106344
36,19,17,Jits_Phase_5,0,5,63,98,2253525484
36,19,17,Jits_Phase_5,1,5,56,103,2253574640
36,19,17,Jits_Phase_5,2,5,80,127,2253584684
36,19,17,Jits_Phase_5,3,1,48,60,2253618068
36,19,17,Jits_Phase_5,0,5,56,103,2254064944
36,19,17,Jits_Phase_5,1,1,48,55,2254095560
36,19,17,Jits_Phase_5,2,5,63,98,2254115360
36,19,17,Jits_Phase_5,3,5,80,127,2254125332
36,19,17,Jits_Phase_5,0,5,56,103,2254534892
36,19,17,Jits_Phase_5,1,5,63,98,2254545464
36,19,17,Jits_Phase_5,2,1,48,56,2254613692
36,19,17,Jits_Phase_5,3,5,80,127,2254625096
36,19,17,Jits_Phase_5,0,9999,9999,9999,2170292340
36,19,17,Jits_Phase_5,1,9999,9999,9999,2170793068
36,19,17,Jits_Phase_5,2,9999,9999,9999,2171292764
36,19,17,Jits_Phase_5,3,9999,9999,9999,2171792500
36,19,17,Jits_Phase_5,4,9999,9999,9999,2172292204
36,19,17,Jits_Phase_5,5,9999,9999,9999,2172792944
36,19,17,Jits_Phase_5,6,9999,9999,9999,2173292656
36,19,17,Jits_Phase_5,7,9999,9999,9999,2173792344
36,19,17,Jits_Phase_5,8,9999,9999,9999,2174293076
36,19,17,Jits_Phase_5,9,9999,9999,9999,2174792768
36,19,17,Jits_Phase_5,10,9999,9999,9999,2175292532
36,19,17,Jits_Phase_5,11,9999,9999,9999,2175792208
36,19,17,Jits_Phase_5,12,9999,9999,9999,2176292928
36,19,17,Jits_Phase_5,13,9999,9999,9999,2176792668
36,19,17,Jits_Phase_5,14,9999,9999,9999,2177292404
36,19,17,Jits_Phase_5,15,9999,9999,9999,2177792092
36,19,17,Jits_Phase_5,16,9999,9999,9999,2178292808
36,19,17,Jits_Phase_5,17,9999,9999,9999,2178792560
36,19,17,Jits_Phase_5,18,9999,9999,9999,2179292248
36,19,17,Jits_Phase_5,19,9999,9999,9999,2179792984
36,19,17,Jits_Phase_5,20,9999,9999,9999,2180292676
36,19,17,Jits_Phase_5,21,9999,9999,9999,2180792400
36,19,17,Jits_Phase_5,22,9999,9999,9999,2181292140
36,19,17,Jits_Phase_5,23,9999,9999,9999,2181792876
36,19,17,Jits_Phase_5,24,9999,9999,9999,2182292552
36,19,17,Jits_Phase_5,25,9999,9999,9999,2182792308
36,19,17,Jits_Phase_5,26,9999,9999,9999,2183293044
36,19,17,Jits_Phase_5,27,9999,9999,9999,2183792708
36,19,17,Jits_Phase_5,28,9999,9999,9999,2184292472
36,19,17,Jits_Phase_5,29,9999,9999,9999,2184792180
36,19,17,Jits_Phase_5,30,9999,9999,9999,2185282616
36,19,17,Jits_Phase_5,31,9999,9999,9999,2185782396
36,19,17,Jits_Phase_5,32,9999,9999,9999,2186283112
36,19,17,Jits_Phase_5,33,9999,9999,9999,2186793052
36,19,17,Jits_Phase_5,34,9999,9999,9999,2187292784
36,19,17,Jits_Phase_5,35,9999,9999,9999,2187792456
36,19,17,Jits_Phase_5,36,9999,9999,9999,2188292196
36,19,17,Jits_Phase_5,37,9999,9999,9999,2188792916
36,19,17,Jits_Phase_5,38,9999,9999,9999,2189292668
36,19,17,Jits_Phase_5,39,9999,9999,9999,2189792344
36,19,17,Jits_Phase_5,40,9999,9999,9999,2190293064
36,19,17,Jits_Phase_5,41,9999,9999,9999,2190792828
36,19,17,Jits_Phase_5,42,9999,9999,9999,2191292492
36,19,17,Jits_Phase_5,43,9999,9999,9999,2191792240
36,19,17,Jits_Phase_5,44,9999,9999,9999,2192292960
36,19,17,Jits_Phase_5,45,9999,9999,9999,2192792632
36,19,17,Jits_Phase_5,46,9999,9999,9999,2193292360
36,19,17,Jits_Phase_5,47,9999,9999,9999,2193792120
36,19,17,Jits_Phase_5,48,9999,9999,9999,2194303032
36,19,17,Jits_Phase_5,49,9999,9999,9999,2194802800
36,19,17,Jits_Phase_5,50,9999,9999,9999,2195302472
36,19,17,Jits_Phase_5,51,9999,9999,9999,2195802236
36,19,17,Jits_Phase_5,52,9999,9999,9999,2196302956
36,19,17,Jits_Phase_5,53,9999,9999,9999,2196802648
36,19,17,Jits_Phase_5,54,9999,9999,9999,2197302400
36,19,17,Jits_Phase_5,55,9999,9999,9999,2197803064
36,19,17,Jits_Phase_5,56,9999,9999,9999,2198313012
36,19,17,Jits_Phase_5,57,9999,9999,9999,2198812776
36,19,17,Jits_Phase_5,58,9999,9999,9999,2199312468
36,19,17,Jits_Phase_5,59,9999,9999,9999,2199812216
36,19,17,Jits_Phase_5,60,9999,9999,9999,2200312956
36,19,17,Jits_Phase_5,61,9999,9999,9999,2200812628
36,19,17,Jits_Phase_5,62,9999,9999,9999,2201312320
36,19,17,Jits_Phase_5,63,9999,9999,9999,2201813056
36,19,17,Jits_Phase_5,64,9999,9999,9999,2202332288
36,19,17,Jits_Phase_5,65,9999,9999,9999,2202833008
36,19,17,Jits_Phase_5,66,9999,9999,9999,2203332700
36,19,17,Jits_Phase_5,67,9999,9999,9999,2203832424
36,19,17,Jits_Phase_5,68,9999,9999,9999,2204332108
36,19,17,Jits_Phase_5,69,9999,9999,9999,2204832828
36,19,17,Jits_Phase_5,70,9999,9999,9999,2205332568
36,19,17,Jits_Phase_5,71,9999,9999,9999,2205832260
36,19,17,Jits_Phase_5,72,9999,9999,9999,2206332992
36,19,17,Jits_Phase_5,73,9999,9999,9999,2206832744
36,19,17,Jits_Phase_5,74,9999,9999,9999,2207332420
36,19,17,Jits_Phase_5,75,9999,9999,9999,2207832160
36,19,17,Jits_Phase_5,76,9999,9999,9999,2208332888
36,19,17,Jits_Phase_5,77,9999,9999,9999,2208832636
36,19,17,Jits_Phase_5,78,9999,9999,9999,2209332328
36,19,17,Jits_Phase_5,79,9999,9999,9999,2209833064
36,19,17,Jits_Phase_5,80,9999,9999,9999,2210332740
36,19,17,Jits_Phase_5,81,9999,9999,9999,2210813012
36,19,17,Jits_Phase_5,82,9999,9999,9999,2211312764
36,19,17,Jits_Phase_5,83,9999,9999,9999,2211812440
36,19,17,Jits_Phase_5,84,9999,9999,9999,2212312136
36,19,17,Jits_Phase_5,85,9999,9999,9999,2212812924
36,19,17,Jits_Phase_5,86,9999,9999,9999,2213312600
36,19,17,Jits_Phase_5,87,9999,9999,9999,2213812340
36,19,17,Jits_Phase_5,88,9999,9999,9999,2214313052
36,19,17,Jits_Phase_5,89,9999,9999,9999,2214812724
36,19,17,Jits_Phase_5,90,9999,9999,9999,2215312468
36,19,17,Jits_Phase_5,91,9999,9999,9999,2215812216
36,19,17,Jits_Phase_5,92,9999,9999,9999,2216312940
36,19,17,Jits_Phase_5,93,9999,9999,9999,2216812616
36,19,17,Jits_Phase_5,94,9999,9999,9999,2217312364
36,19,17,Jits_Phase_5,95,9999,9999,9999,2217813084
36,19,17,Jits_Phase_5,96,9999,9999,9999,2218312760
36,19,17,Jits_Phase_5,97,9999,9999,9999,2218762316
36,19,17,Jits_Phase_5,98,9999,9999,9999,2219263040
36,19,17,Jits_Phase_5,99,9999,9999,9999,2219762804
36,19,17,Jits_Phase_5,100,9999,9999,9999,2220262492
36,19,17,Jits_Phase_5,101,9999,9999,9999,2220762172
36,19,17,Jits_Phase_5,102,9999,9999,9999,2221262976
36,19,17,Jits_Phase_5,103,9999,9999,9999,2221762668
36,19,17,Jits_Phase_5,104,9999,9999,9999,2222262392
36,19,17,Jits_Phase_5,105,9999,9999,9999,2222763104
36,19,17,Jits_Phase_5,106,9999,9999,9999,2223273044
36,19,17,Jits_Phase_5,107,9999,9999,9999,2223772792
36,19,17,Jits_Phase_5,108,9999,9999,9999,2224272460
36,19,17,Jits_Phase_5,109,9999,9999,9999,2224772224
36,19,17,Jits_Phase_5,110,9999,9999,9999,2225272888
36,19,17,Jits_Phase_5,111,9999,9999,9999,2225772648
36,19,17,Jits_Phase_5,112,9999,9999,9999,2226272340
36,19,17,Jits_Phase_5,113,9999,9999,9999,2226773076
36,19,17,Jits_Phase_5,114,9999,9999,9999,2227322944
36,19,17,Jits_Phase_5,115,9999,9999,9999,2227822704
36,19,17,Jits_Phase_5,116,9999,9999,9999,2228322376
36,19,17,Jits_Phase_5,117,9999,9999,9999,2228822140
36,19,17,Jits_Phase_5,118,9999,9999,9999,2229322816
36,19,17,Jits_Phase_5,119,9999,9999,9999,2229822564
36,19,17,Jits_Phase_5,120,9999,9999,9999,2230322248
36,19,17,Jits_Phase_5,121,9999,9999,9999,2230822984
36,19,17,Jits_Phase_5,122,9999,9999,9999,2231322748
36,19,17,Jits_Phase_5,123,9999,9999,9999,2231822404
36,19,17,Jits_Phase_5,124,9999,9999,9999,2232322152
36,19,17,Jits_Phase_5,125,9999,9999,9999,2232822872
36,19,17,Jits_Phase_5,126,9999,9999,9999,2233322564
36,19,17,Jits_Phase_5,127,9999,9999,9999,2233822304
36,19,17,Jits_Phase_5,128,9999,9999,9999,2234323028
36,19,17,Jits_Phase_5,129,9999,9999,9999,2234822720
36,19,17,Jits_Phase_5,130,9999,9999,9999,2235322480
36,19,17,Jits_Phase_5,131,9999,9999,9999,2235922540
36,19,17,Jits_Phase_5,132,9999,9999,9999,2236422212
36,19,17,Jits_Phase_5,133,9999,9999,9999,2236922936
36,19,17,Jits_Phase_5,134,9999,9999,9999,2237422680
36,19,17,Jits_Phase_5,135,9999,9999,9999,2237922364
36,19,17,Jits_Phase_5,136,9999,9999,9999,2238422132
36,19,17,Jits_Phase_5,137,9999,9999,9999,2238922856
36,19,17,Jits_Phase_5,138,9999,9999,9999,2239422544
36,19,17,Jits_Phase_5,139,9999,9999,9999,2239922288
36,19,17,Jits_Phase_5,140,9999,9999,9999,2240423024
36,19,17,Jits_Phase_5,141,9999,9999,9999,2240922712
36,19,17,Jits_Phase_5,142,9999,9999,9999,2241422400
36,19,17,Jits_Phase_5,143,9999,9999,9999,2241922168
36,19,17,Jits_Phase_5,144,9999,9999,9999,2242422900
36,19,17,Jits_Phase_5,145,9999,9999,9999,2242922580
36,19,17,Jits_Phase_5,146,9999,9999,9999,2243422276
36,19,17,Jits_Phase_5,147,9999,9999,9999,2243922996
36,19,17,Jits_Phase_5,148,9999,9999,9999,2244422744
36,19,17,Jits_Phase_5,149,9999,9999,9999,2244922436
36,19,17,Jits_Phase_5,150,9999,9999,9999,2245322848
36,19,17,Jits_Phase_5,151,9999,9999,9999,2245822532
36,19,17,Jits_Phase_5,152,9999,9999,9999,2246322296
36,19,17,Jits_Phase_5,153,9999,9999,9999,2246823020
36,19,17,Jits_Phase_5,154,9999,9999,9999,2247322736
36,19,17,Jits_Phase_5,155,9999,9999,9999,2247822420
36,19,17,Jits_Phase_5,156,9999,9999,9999,2248322160
36,19,17,Jits_Phase_5,157,9999,9999,9999,2248822848
36,19,17,Jits_Phase_5,158,9999,9999,9999,2249322600
36,19,17,Jits_Phase_5,159,9999,9999,9999,2249822276
36,19,17,Jits_Phase_5,160,9999,9999,9999,2250323012
36,19,17,Jits_Phase_5,161,9999,9999,9999,2250822764
36,19,17,Jits_Phase_5,162,9999,9999,9999,2251322436
36,19,17,Jits_Phase_5,163,9999,9999,9999,2251822192
36,19,17,Jits_Phase_5,164,9999,9999,9999,2252322916
36,19,17,Jits_Phase_5,165,9999,9999,9999,2252822592
36,19,17,Jits_Phase_5,166,9999,9999,9999,2253322360
36,19,17,Jits_Phase_5,167,9999,9999,9999,2253823092
36,19,17,Jits_Phase_5,168,9999,9999,9999,2254322772
36,19,17,Jits_Phase_5,169,9999,9999,9999,2254822460
36,20,3,ISIP_8,0,5,42,127,2304941500
36,20,3,ISIP_8,1,1,48,25,2305312976
36,20,3,ISIP_8,2,5,42,127,2305741256
36,20,3,ISIP_8,3,1,48,21,2305883948
36,20,3,ISIP_8,4,5,42,127,2306540768
36,20,3,ISIP_8,5,1,48,37,2306569244
36,20,3,ISIP_8,6,5,42,127,2307340576
36,20,3,ISIP_8,7,1,48,39,2307351920
36,20,3,ISIP_8,8,5,42,127,2308141356
36,20,3,ISIP_8,9,1,48,42,2308146496
36,20,3,ISIP_8,10,1,48,40,2308889436
36,20,3,ISIP_8,11,5,42,127,2308941156
36,20,3,ISIP_8,12,1,48,29,2309685584
36,20,3,ISIP_8,13,5,42,127,2309741112
36,20,3,ISIP_8,14,1,48,28,2310464296
36,20,3,ISIP_8,15,5,42,127,2310540552
36,20,3,ISIP_8,16,1,48,38,2311268144
36,20,3,ISIP_8,17,5,42,127,2311341332
36,20,3,ISIP_8,18,1,48,33,2312100564
36,20,3,ISIP_8,19,5,42,127,2312141088
36,20,3,ISIP_8,20,1,48,39,2312908476
36,20,3,ISIP_8,21,5,42,127,2312941120
36,20,3,ISIP_8,22,1,48,43,2313721076
36,20,3,ISIP_8,23,5,42,127,2313740556
36,20,3,ISIP_8,24,1,48,35,2314499192
36,20,3,ISIP_8,25,5,42,127,2314541484
36,20,3,ISIP_8,26,1,48,42,2315313216
36,20,3,ISIP_8,27,5,42,127,2315341220
36,20,3,ISIP_8,28,1,48,37,2316118036
36,20,3,ISIP_8,29,5,42,127,2316140956
36,20,3,ISIP_8,30,1,48,41,2316899292
36,20,3,ISIP_8,31,5,42,127,2316940840
36,20,3,ISIP_8,32,1,48,42,2317576288
36,20,3,ISIP_8,33,5,42,127,2317741380
36,20,3,ISIP_8,34,1,48,42,2318467796
36,20,3,ISIP_8,35,5,42,127,2318541156
36,20,3,ISIP_8,36,1,48,30,2319335700
36,20,3,ISIP_8,37,5,42,127,2319340964
36,20,3,ISIP_8,38,5,42,127,2320140852
36,20,3,ISIP_8,39,1,48,42,2320145620
36,20,3,ISIP_8,40,1,48,43,2320901728
36,20,3,ISIP_8,41,5,42,127,2320941404
36,20,3,ISIP_8,42,1,48,37,2321734072
36,20,3,ISIP_8,43,5,42,127,2321741064
36,20,3,ISIP_8,44,1,48,40,2322456016
36,20,3,ISIP_8,45,5,42,127,2322540868
36,20,3,ISIP_8,46,1,48,40,2323265624
36,20,3,ISIP_8,47,5,42,127,2323340680
36,20,3,ISIP_8,48,1,48,38,2324008956
36,20,3,ISIP_8,49,5,42,127,2324141520
36,20,3,ISIP_8,50,1,48,46,2324804656
36,20,3,ISIP_8,51,5,42,127,2324941276
36,20,3,ISIP_8,52,1,48,38,2325626156
36,20,3,ISIP_8,53,5,42,127,2325740788
36,20,3,ISIP_8,54,1,48,35,2326439500
36,20,3,ISIP_8,55,5,42,127,2326540668
36,20,3,ISIP_8,56,1,48,47,2327297156
36,20,3,ISIP_8,57,5,42,127,2327341464
36,20,3,ISIP_8,58,1,48,47,2328055072
36,20,3,ISIP_8,59,5,42,127,2328141272
36,20,3,ISIP_8,60,1,48,43,2328830424
36,20,3,ISIP_8,61,1,48,29,2329646980
36,20,3,ISIP_8,62,1,48,41,2330438404
36,20,3,ISIP_8,63,1,48,43,2331164456
36,20,3,ISIP_8,64,1,48,51,2331919308
36,20,3,ISIP_8,65,1,48,49,2332691588
36,20,3,ISIP_8,66,1,48,40,2333470900
36,20,3,ISIP_8,67,1,48,44,2334228892
36,20,3,ISIP_8,68,1,48,46,2335006180
36,20,3,ISIP_8,69,1,48,35,2335699324
36,20,3,ISIP_8,70,1,48,47,2336527100
36,20,3,ISIP_8,71,1,48,41,2337267664
36,20,3,ISIP_8,72,1,48,47,2338054004
36,20,3,ISIP_8,73,1,48,48,2338835712
36,20,3,ISIP_8,74,1,48,47,2339536480
36,20,3,ISIP_8,75,1,48,46,2340300604
36,20,3,ISIP_8,76,1,48,49,2341037184
36,20,3,ISIP_8,77,1,48,48,2341767348
36,20,3,ISIP_8,78,1,48,47,2342562360
36,20,3,ISIP_8,79,1,48,44,2343295132
36,20,3,ISIP_8,80,1,48,56,2344055368
36,20,3,ISIP_8,81,1,48,54,2344785532
36,20,3,ISIP_8,82,1,48,50,2345568132
36,20,3,ISIP_8,83,1,48,49,2346285216
36,20,3,ISIP_8,84,1,48,23,2346938640
36,20,3,ISIP_8,85,1,48,29,2347749660
36,20,3,ISIP_8,86,1,48,52,2348456912
36,20,3,ISIP_8,87,1,48,49,2349119092
36,20,3,ISIP_8,88,1,48,53,2349831004
36,20,3,ISIP_8,89,1,48,52,2350506980
36,20,3,ISIP_8,90,1,48,51,2351165868
36,20,3,ISIP_8,91,1,48,51,2351947124
36,20,3,ISIP_8,92,1,48,55,2352624404
36,20,3,ISIP_8,93,1,48,51,2353365048
36,20,3,ISIP_8,94,1,48,46,2354075668
36,20,3,ISIP_8,95,1,48,53,2354804788
36,20,3,ISIP_8,96,1,48,50,2355441376
36,20,3,ISIP_8,97,1,48,43,2356261228
36,20,3,ISIP_8,98,1,48,33,2357069780
36,20,3,ISIP_8,99,1,48,35,2357790900
36,20,3,ISIP_8,100,1,48,29,2358483208
36,20,3,ISIP_8,101,1,48,51,2359223324
36,20,3,ISIP_8,102,1,48,44,2359926988
36,20,3,ISIP_8,103,1,48,51,2360610772
36,20,3,ISIP_8,104,1,48,43,2361256024
36,20,3,ISIP_8,105,1,48,52,2361987316
36,20,3,ISIP_8,106,1,48,49,2362643056
36,20,3,ISIP_8,107,1,48,49,2363360208
36,20,3,ISIP_8,108,1,48,54,2364075604
36,20,3,ISIP_8,109,1,48,51,2364786248
36,20,3,ISIP_8,110,1,48,54,2365422392
36,20,3,ISIP_8,111,1,48,51,2366116332
36,20,3,ISIP_8,112,1,48,54,2366805436
36,20,3,ISIP_8,113,1,48,56,2367461556
36,20,3,ISIP_8,114,1,48,51,2368262408
36,20,3,ISIP_8,115,1,48,54,2368918788
36,20,3,ISIP_8,116,1,48,46,2369499212
36,20,3,ISIP_8,117,1,48,51,2370181256
36,20,3,ISIP_8,118,1,48,46,2370876116
36,20,3,ISIP_8,119,1,48,55,2371480972
36,20,3,ISIP_8,120,1,48,46,2372159756
36,20,3,ISIP_8,121,1,48,45,2372808080
36,20,3,ISIP_8,122,1,48,45,2373466268
36,20,3,ISIP_8,123,1,48,49,2374085280
36,20,3,ISIP_8,124,1,48,45,2374844920
36,20,3,ISIP_8,125,1,48,51,2375506472
36,20,3,ISIP_8,126,1,48,46,2376257284
36,20,3,ISIP_8,127,1,48,50,2376899548
36,20,3,ISIP_8,128,1,48,53,2377586912
36,20,3,ISIP_8,129,1,48,51,2378258664
36,20,3,ISIP_8,130,1,48,53,2378970876
36,20,3,ISIP_8,131,1,48,48,2379672220
36,20,3,ISIP_8,132,1,48,54,2380327968
36,20,3,ISIP_8,133,1,48,52,2381003676
36,20,3,ISIP_8,134,1,48,47,2381663648
36,20,3,ISIP_8,135,1,48,48,2382332704
36,20,3,ISIP_8,136,1,48,46,2383002332
36,20,3,ISIP_8,137,1,48,43,2383717168
36,20,3,ISIP_8,138,1,48,46,2384394828
36,20,3,ISIP_8,139,1,48,47,2385032220
36,20,3,ISIP_8,140,1,48,48,2385758196
36,20,3,ISIP_8,141,1,48,48,2386458884
36,20,3,ISIP_8,142,1,48,46,2387186060
36,20,3,ISIP_8,143,1,48,48,2387869976
36,20,3,ISIP_8,144,1,48,47,2388613004
36,20,3,ISIP_8,145,1,48,54,2389358956
36,20,3,ISIP_8,146,1,48,55,2390078800
36,20,3,ISIP_8,147,1,48,41,2390760724
36,20,3,ISIP_8,148,1,48,37,2391530084
36,20,3,ISIP_8,149,1,48,43,2392145708
36,20,3,ISIP_8,150,1,48,54,2392850956
36,20,3,ISIP_8,151,1,48,55,2393599448
36,20,3,ISIP_8,152,1,48,48,2394268256
36,20,3,ISIP_8,153,1,48,40,2394958256
36,20,3,ISIP_8,154,1,48,51,2395655592
36,20,3,ISIP_8,155,1,48,45,2396361148
36,20,3,ISIP_8,156,1,48,51,2397048060
36,20,3,ISIP_8,157,1,48,51,2397697580
36,20,3,ISIP_8,158,1,48,38,2398363468
36,20,3,ISIP_8,159,1,48,52,2399014952
36,20,3,ISIP_8,160,1,48,55,2399781172
36,20,3,ISIP_8,161,1,48,43,2400460852
36,20,3,ISIP_8,162,1,48,54,2401235816
36,20,3,ISIP_8,163,1,48,58,2401938664
36,20,3,ISIP_8,164,1,48,53,2402602556
36,20,3,ISIP_8,165,1,48,50,2403246396
36,20,3,ISIP_8,166,1,48,26,2404005036
36,20,3,ISIP_8,167,1,48,49,2404757716
36,20,3,ISIP_8,168,1,48,54,2405402688
36,20,3,ISIP_8,169,1,48,41,2406139732
36,20,3,ISIP_8,170,1,48,54,2406761868
36,20,3,ISIP_8,171,1,48,57,2407453216
36,20,3,ISIP_8,172,1,48,59,2408127420
36,20,3,ISIP_8,173,1,48,43,2408859360
36,20,3,ISIP_8,174,1,48,51,2409601124
36,20,3,ISIP_8,175,1,48,49,2410231580
36,20,3,ISIP_8,176,1,48,49,2410897924
36,20,3,ISIP_8,177,1,48,48,2411628536
36,20,3,ISIP_8,178,1,48,54,2412304704
36,20,3,ISIP_8,179,1,48,55,2413019084
36,20,3,ISIP_8,180,1,48,18,2413743644
36,20,3,ISIP_8,181,1,48,49,2414173360
36,20,3,ISIP_8,182,1,48,56,2414762432
36,20,3,ISIP_8,183,1,48,48,2415476592
36,20,3,ISIP_8,184,1,48,47,2416122976
36,20,3,ISIP_8,185,1,48,55,2416966700
36,20,3,ISIP_8,186,1,48,47,2417708296
36,20,3,ISIP_8,187,1,48,55,2418397996
36,20,3,ISIP_8,188,1,48,48,2419106896
36,20,3,ISIP_8,189,1,48,53,2419767052
36,20,3,ISIP_8,190,1,48,45,2420573216
36,20,3,ISIP_8,191,1,48,54,2421237332
36,20,3,ISIP_8,192,1,48,58,2421827380
36,20,3,ISIP_8,193,1,48,49,2422537112
36,20,3,ISIP_8,194,1,48,49,2423178992
36,20,3,ISIP_8,195,1,48,41,2423859796
36,20,3,ISIP_8,196,1,48,51,2424457768
36,20,3,ISIP_8,0,9999,9999,9999,2304939060
36,20,3,ISIP_8,1,9999,9999,9999,2305738820
36,20,3,ISIP_8,2,9999,9999,9999,2306538552
36,20,3,ISIP_8,3,9999,9999,9999,2307338288
36,20,3,ISIP_8,4,9999,9999,9999,2308139068
36,20,3,ISIP_8,5,9999,9999,9999,2308938868
36,20,3,ISIP_8,6,9999,9999,9999,2309738604
36,20,3,ISIP_8,7,9999,9999,9999,2310538336
36,20,3,ISIP_8,8,9999,9999,9999,2311339120
36,20,3,ISIP_8,9,9999,9999,9999,2312138800
36,20,3,ISIP_8,10,9999,9999,9999,2312938608
36,20,3,ISIP_8,11,9999,9999,9999,2313738344
36,20,3,ISIP_8,12,9999,9999,9999,2314539124
36,20,3,ISIP_8,13,9999,9999,9999,2315338860
36,20,3,ISIP_8,14,9999,9999,9999,2316138592
36,20,3,ISIP_8,15,9999,9999,9999,2316938328
36,20,3,ISIP_8,16,9999,9999,9999,2317739092
36,20,3,ISIP_8,17,9999,9999,9999,2318538868
36,20,3,ISIP_8,18,9999,9999,9999,2319338604
36,20,3,ISIP_8,19,9999,9999,9999,2320138344
36,20,3,ISIP_8,20,9999,9999,9999,2320939116
36,20,3,ISIP_8,21,9999,9999,9999,2321738848
36,20,3,ISIP_8,22,9999,9999,9999,2322538584
36,20,3,ISIP_8,23,9999,9999,9999,2323338316
36,20,3,ISIP_8,24,9999,9999,9999,2324139080
36,20,3,ISIP_8,25,9999,9999,9999,2324938840
36,20,3,ISIP_8,26,9999,9999,9999,2325738576
36,20,3,ISIP_8,27,9999,9999,9999,2326538308
36,20,3,ISIP_8,28,9999,9999,9999,2327339104
36,20,3,ISIP_8,29,9999,9999,9999,2328138836
36,20,3,ISIP_8,30,9999,9999,9999,2328938552
36,20,3,ISIP_8,31,9999,9999,9999,2329738296
36,20,3,ISIP_8,32,9999,9999,9999,2330539060
36,20,3,ISIP_8,33,9999,9999,9999,2331338812
36,20,3,ISIP_8,34,9999,9999,9999,2332138616
36,20,3,ISIP_8,35,9999,9999,9999,2332938344
36,20,3,ISIP_8,36,9999,9999,9999,2333739120
36,20,3,ISIP_8,37,9999,9999,9999,2334538852
36,20,3,ISIP_8,38,9999,9999,9999,2335338580
36,20,3,ISIP_8,39,9999,9999,9999,2336138308
36,20,3,ISIP_8,40,9999,9999,9999,2336939084
36,20,3,ISIP_8,41,9999,9999,9999,2337738840
36,20,3,ISIP_8,42,9999,9999,9999,2338538568
36,20,3,ISIP_8,43,9999,9999,9999,2339338300
36,20,3,ISIP_8,44,9999,9999,9999,2340139072
36,20,3,ISIP_8,45,9999,9999,9999,2340938804
36,20,3,ISIP_8,46,9999,9999,9999,2341738604
36,20,3,ISIP_8,47,9999,9999,9999,2342538336
36,20,3,ISIP_8,48,9999,9999,9999,2343339104
36,20,3,ISIP_8,49,9999,9999,9999,2344138856
36,20,3,ISIP_8,50,9999,9999,9999,2344938572
36,20,3,ISIP_8,51,9999,9999,9999,2345738300
36,20,3,ISIP_8,52,9999,9999,9999,2346539076
36,20,3,ISIP_8,53,9999,9999,9999,2347338804
36,20,3,ISIP_8,54,9999,9999,9999,2348138608
36,20,3,ISIP_8,55,9999,9999,9999,2348938336
36,20,3,ISIP_8,56,9999,9999,9999,2349739112
36,20,3,ISIP_8,57,9999,9999,9999,2350538860
36,20,3,ISIP_8,58,9999,9999,9999,2351338576
36,20,3,ISIP_8,59,9999,9999,9999,2352138304
36,20,3,ISIP_8,60,9999,9999,9999,2352939080
36,20,3,ISIP_8,61,9999,9999,9999,2353738808
36,20,3,ISIP_8,62,9999,9999,9999,2354538612
36,20,3,ISIP_8,63,9999,9999,9999,2355338340
36,20,3,ISIP_8,64,9999,9999,9999,2356139116
36,20,3,ISIP_8,65,9999,9999,9999,2356938868
36,20,3,ISIP_8,66,9999,9999,9999,2357738600
36,20,3,ISIP_8,67,9999,9999,9999,2358538320
36,20,3,ISIP_8,68,9999,9999,9999,2359339084
36,20,3,ISIP_8,69,9999,9999,9999,2360138812
36,20,3,ISIP_8,70,9999,9999,9999,2360938616
36,20,3,ISIP_8,71,9999,9999,9999,2361738344
36,20,3,ISIP_8,72,9999,9999,9999,2362539120
36,20,3,ISIP_8,73,9999,9999,9999,2363338800
36,20,3,ISIP_8,74,9999,9999,9999,2364138596
36,20,3,ISIP_8,75,9999,9999,9999,2364938312
36,20,3,ISIP_8,76,9999,9999,9999,2365739084
36,20,3,ISIP_8,77,9999,9999,9999,2366538816
36,20,3,ISIP_8,78,9999,9999,9999,2367338544
36,20,3,ISIP_8,79,9999,9999,9999,2368138348
36,20,3,ISIP_8,80,9999,9999,9999,2368939120
36,20,3,ISIP_8,81,9999,9999,9999,2369738856
36,20,3,ISIP_8,82,9999,9999,9999,2370538588
36,20,3,ISIP_8,83,9999,9999,9999,2371338316
36,20,3,ISIP_8,84,9999,9999,9999,2372139092
36,20,3,ISIP_8,85,9999,9999,9999,2372938800
36,20,3,ISIP_8,86,9999,9999,9999,2373738600
36,20,3,ISIP_8,87,9999,9999,9999,2374538332
36,20,3,ISIP_8,88,9999,9999,9999,2375339108
36,20,3,ISIP_8,89,9999,9999,9999,2376138860
36,20,3,ISIP_8,90,9999,9999,9999,2376938588
36,20,3,ISIP_8,91,9999,9999,9999,2377738300
36,20,3,ISIP_8,92,9999,9999,9999,2378539076
36,20,3,ISIP_8,93,9999,9999,9999,2379338804
36,20,3,ISIP_8,94,9999,9999,9999,2380138608
36,20,3,ISIP_8,95,9999,9999,9999,2380938336
36,20,3,ISIP_8,96,9999,9999,9999,2381739108
36,20,3,ISIP_8,97,9999,9999,9999,2382538848
36,20,3,ISIP_8,98,9999,9999,9999,2383338576
36,20,3,ISIP_8,99,9999,9999,9999,2384138304
36,20,3,ISIP_8,100,9999,9999,9999,2384939080
36,20,3,ISIP_8,101,9999,9999,9999,2385738808
36,20,3,ISIP_8,102,9999,9999,9999,2386538604
36,20,3,ISIP_8,103,9999,9999,9999,2387338320
36,20,3,ISIP_8,104,9999,9999,9999,2388139096
36,20,3,ISIP_8,105,9999,9999,9999,2388938848
36,20,3,ISIP_8,106,9999,9999,9999,2389738576
36,20,3,ISIP_8,107,9999,9999,9999,2390538308
36,20,3,ISIP_8,108,9999,9999,9999,2391339084
36,20,3,ISIP_8,109,9999,9999,9999,2392138812
36,20,3,ISIP_8,110,9999,9999,9999,2392938608
36,20,3,ISIP_8,111,9999,9999,9999,2393738320
36,20,3,ISIP_8,112,9999,9999,9999,2394539096
36,20,3,ISIP_8,113,9999,9999,9999,2395338852
36,20,3,ISIP_8,114,9999,9999,9999,2396138584
36,20,3,ISIP_8,115,9999,9999,9999,2396938312
36,20,3,ISIP_8,116,9999,9999,9999,2397739084
36,20,3,ISIP_8,117,9999,9999,9999,2398538872
36,20,3,ISIP_8,118,9999,9999,9999,2399338600
36,20,3,ISIP_8,119,9999,9999,9999,2400138328
36,20,3,ISIP_8,120,9999,9999,9999,2400939104
36,20,3,ISIP_8,121,9999,9999,9999,2401738860
36,20,3,ISIP_8,122,9999,9999,9999,2402538588
36,20,3,ISIP_8,123,9999,9999,9999,2403338312
36,20,3,ISIP_8,124,9999,9999,9999,2404139068
36,20,3,ISIP_8,125,9999,9999,9999,2404938800
36,20,3,ISIP_8,126,9999,9999,9999,2405738604
36,20,3,ISIP_8,127,9999,9999,9999,2406538332
36,20,3,ISIP_8,128,9999,9999,9999,2407339108
36,20,3,ISIP_8,129,9999,9999,9999,2408138856
36,20,3,ISIP_8,130,9999,9999,9999,2408938584
36,20,3,ISIP_8,131,9999,9999,9999,2409738300
36,20,3,ISIP_8,132,9999,9999,9999,2410539076
36,20,3,ISIP_8,133,9999,9999,9999,2411338804
36,20,3,ISIP_8,134,9999,9999,9999,2412138608
36,20,3,ISIP_8,135,9999,9999,9999,2412938336
36,20,3,ISIP_8,136,9999,9999,9999,2413739112
36,20,3,ISIP_8,137,9999,9999,9999,2414538844
36,20,3,ISIP_8,138,9999,9999,9999,2415338572
36,20,3,ISIP_8,139,9999,9999,9999,2416138296
36,20,3,ISIP_8,140,9999,9999,9999,2416939080
36,20,3,ISIP_8,141,9999,9999,9999,2417738800
36,20,3,ISIP_8,142,9999,9999,9999,2418538588
36,20,3,ISIP_8,143,9999,9999,9999,2419338320
36,20,3,ISIP_8,144,9999,9999,9999,2420139096
36,20,3,ISIP_8,145,9999,9999,9999,2420938848
36,20,3,ISIP_8,146,9999,9999,9999,2421738576
36,20,3,ISIP_8,147,9999,9999,9999,2422538300
36,20,3,ISIP_8,148,9999,9999,9999,2423339060
36,20,3,ISIP_8,149,9999,9999,9999,2424138864
36,21,5,ISIP_5,0,5,42,127,2457472348
36,21,5,ISIP_5,1,1,48,28,2457967836
36,21,5,ISIP_5,2,5,42,127,2457972280
36,21,5,ISIP_5,3,1,48,40,2458428032
36,21,5,ISIP_5,4,5,42,127,2458471676
36,21,5,ISIP_5,5,1,48,28,2458486744
36,21,5,ISIP_5,6,5,42,127,2458971504
36,21,5,ISIP_5,7,1,48,46,2458975600
36,21,5,ISIP_5,8,1,48,49,2459467048
36,21,5,ISIP_5,9,5,42,127,2459472240
36,21,5,ISIP_5,10,5,42,127,2459971868
36,21,5,ISIP_5,11,1,48,43,2459997800
36,21,5,ISIP_5,12,1,48,44,2460453944
36,21,5,ISIP_5,13,5,42,127,2460471556
36,21,5,ISIP_5,14,5,42,127,2460972380
36,21,5,ISIP_5,15,1,48,47,2460982304
36,21,5,ISIP_5,16,1,48,44,2461463584
36,21,5,ISIP_5,17,5,42,127,2461472288
36,21,5,ISIP_5,18,1,48,46,2461950780
36,21,5,ISIP_5,19,5,42,127,2461971760
36,21,5,ISIP_5,20,1,48,38,2462469416
36,21,5,ISIP_5,21,5,42,127,2462471528
36,21,5,ISIP_5,22,1,48,41,2462944268
36,21,5,ISIP_5,23,5,42,127,2462972124
36,21,5,ISIP_5,24,5,42,127,2463472124
36,21,5,ISIP_5,25,1,48,37,2463491104
36,21,5,ISIP_5,26,5,42,127,2463971744
36,21,5,ISIP_5,27,1,48,34,2464004632
36,21,5,ISIP_5,28,5,42,127,2464472412
36,21,5,ISIP_5,29,1,48,46,2464514648
36,21,5,ISIP_5,30,5,42,127,2464972180
36,21,5,ISIP_5,31,1,48,48,2464981580
36,21,5,ISIP_5,32,5,42,127,2465471876
36,21,5,ISIP_5,33,1,48,45,2465483148
36,21,5,ISIP_5,34,1,48,41,2465971120
36,21,5,ISIP_5,35,5,42,127,2465972908
36,21,5,ISIP_5,36,5,42,127,2466472288
36,21,5,ISIP_5,37,1,48,46,2466495300
36,21,5,ISIP_5,38,5,42,127,2466972032
36,21,5,ISIP_5,39,1,48,43,2466990512
36,21,5,ISIP_5,40,5,42,127,2467472028
36,21,5,ISIP_5,41,1,48,42,2467477392
36,21,5,ISIP_5,42,1,48,48,2467947896
36,21,5,ISIP_5,43,5,42,127,2467971416
36,21,5,ISIP_5,44,5,42,127,2468472168
36,21,5,ISIP_5,45,1,48,48,2468479996
36,21,5,ISIP_5,46,5,42,127,2468971788
36,21,5,ISIP_5,47,1,48,49,2469005500
36,21,5,ISIP_5,48,5,42,127,2469471556
36,21,5,ISIP_5,49,1,48,47,2469472524
36,21,5,ISIP_5,50,1,48,48,2469970856
36,21,5,ISIP_5,51,5,42,127,2469972664
36,21,5,ISIP_5,52,5,42,127,2470471920
36,21,5,ISIP_5,53,1,48,40,2470474964
36,21,5,ISIP_5,54,5,42,127,2470971984
36,21,5,ISIP_5,55,1,48,48,2470985128
36,21,5,ISIP_5,56,1,48,50,2471450996
36,21,5,ISIP_5,57,5,42,127,2471471452
36,21,5,ISIP_5,58,1,48,37,2471484052
36,21,5,ISIP_5,59,5,42,127,2471972176
36,21,5,ISIP_5,60,1,48,40,2471999228
36,21,5,ISIP_5,61,1,48,43,2472445872
36,21,5,ISIP_5,62,5,42,127,2472471864
36,21,5,ISIP_5,63,5,42,127,2472971788
36,21,5,ISIP_5,64,1,48,55,2472985528
36,21,5,ISIP_5,65,1,48,55,2473463660
36,21,5,ISIP_5,66,5,42,127,2473472300
36,21,5,ISIP_5,67,1,48,51,2473972300
36,21,5,ISIP_5,68,5,42,127,2473973868
36,21,5,ISIP_5,69,1,48,53,2474468592
36,21,5,ISIP_5,70,5,42,127,2474471764
36,21,5,ISIP_5,71,5,42,127,2474971688
36,21,5,ISIP_5,72,1,48,51,2474972656
36,21,5,ISIP_5,73,5,42,127,2475472208
36,21,5,ISIP_5,74,1,48,54,2475485124
36,21,5,ISIP_5,75,5,42,127,2475971904
36,21,5,ISIP_5,76,1,48,51,2475996040
36,21,5,ISIP_5,77,5,42,127,2476471672
36,21,5,ISIP_5,78,1,48,49,2476487960
36,21,5,ISIP_5,79,1,48,50,2476952376
36,21,5,ISIP_5,80,5,42,127,2476972560
36,21,5,ISIP_5,81,1,48,56,2477453796
36,21,5,ISIP_5,82,1,48,54,2477973920
36,21,5,ISIP_5,83,1,48,56,2478477124
36,21,5,ISIP_5,84,1,48,48,2478948680
36,21,5,ISIP_5,85,1,48,41,2479447620
36,21,5,ISIP_5,86,1,48,51,2479945288
36,21,5,ISIP_5,87,1,48,50,2480449440
36,21,5,ISIP_5,88,1,48,54,2480951532
36,21,5,ISIP_5,89,1,48,58,2481457728
36,21,5,ISIP_5,90,1,48,52,2481971272
36,21,5,ISIP_5,91,1,48,54,2482498636
36,21,5,ISIP_5,92,1,48,49,2482989648
36,21,5,ISIP_5,93,1,48,52,2483473108
36,21,5,ISIP_5,94,1,48,51,2483988584
36,21,5,ISIP_5,95,1,48,54,2484537040
36,21,5,ISIP_5,96,1,48,53,2485041516
36,21,5,ISIP_5,97,1,48,53,2485531184
36,21,5,ISIP_5,98,1,48,44,2486014344
36,21,5,ISIP_5,99,1,48,51,2486526452
36,21,5,ISIP_5,100,1,48,51,2487024724
36,21,5,ISIP_5,101,1,48,54,2487540192
36,21,5,ISIP_5,102,1,48,50,2488071448
36,21,5,ISIP_5,103,1,48,57,2488558572
36,21,5,ISIP_5,104,1,48,48,2489088856
36,21,5,ISIP_5,105,1,48,52,2489556608
36,21,5,ISIP_5,106,1,48,49,2490095720
36,21,5,ISIP_5,107,1,48,43,2490568256
36,21,5,ISIP_5,108,1,48,48,2491112676
36,21,5,ISIP_5,109,1,48,53,2491606164
36,21,5,ISIP_5,110,1,48,56,2492079148
36,21,5,ISIP_5,111,1,48,50,2492666572
36,21,5,ISIP_5,112,1,48,49,2493153172
36,21,5,ISIP_5,113,1,48,51,2493629460
36,21,5,ISIP_5,114,1,48,40,2494156524
36,21,5,ISIP_5,115,1,48,45,2494669008
36,21,5,ISIP_5,116,1,48,48,2495132540
36,21,5,ISIP_5,117,1,48,42,2495648992
36,21,5,ISIP_5,118,1,48,50,2496121672
36,21,5,ISIP_5,119,1,48,50,2496637672
36,21,5,ISIP_5,120,1,48,42,2497098024
36,21,5,ISIP_5,121,1,48,45,2497584544
36,21,5,ISIP_5,122,1,48,20,2498116324
36,21,5,ISIP_5,123,1,48,54,2498642568
36,21,5,ISIP_5,124,1,48,55,2499081896
36,21,5,ISIP_5,125,1,48,51,2499621676
36,21,5,ISIP_5,126,1,48,46,2500106784
36,21,5,ISIP_5,127,1,48,56,2500611264
36,21,5,ISIP_5,128,1,48,50,2501133916
36,21,5,ISIP_5,129,1,48,51,2501602492
36,21,5,ISIP_5,130,1,48,49,2502097468
36,21,5,ISIP_5,131,1,48,49,2502611668
36,21,5,ISIP_5,132,1,48,57,2503092288
36,21,5,ISIP_5,133,1,48,54,2503585220
36,21,5,ISIP_5,134,1,48,48,2504098824
36,21,5,ISIP_5,135,1,48,22,2504598436
36,21,5,ISIP_5,136,1,48,45,2505048392
36,21,5,ISIP_5,137,1,48,48,2505543964
36,21,5,ISIP_5,138,1,48,36,2506031464
36,21,5,ISIP_5,139,1,48,41,2506481488
36,21,5,ISIP_5,140,1,48,43,2506990528
36,21,5,ISIP_5,141,1,48,38,2507463056
36,21,5,ISIP_5,142,1,48,43,2507923604
36,21,5,ISIP_5,143,1,48,46,2508479508
36,21,5,ISIP_5,144,1,48,52,2508968560
36,21,5,ISIP_5,145,1,48,45,2509476760
36,21,5,ISIP_5,146,1,48,54,2509967468
36,21,5,ISIP_5,147,1,48,56,2510470236
36,21,5,ISIP_5,148,1,48,48,2510994832
36,21,5,ISIP_5,149,1,48,39,2511485472
36,21,5,ISIP_5,150,1,48,45,2512025324
36,21,5,ISIP_5,151,1,48,54,2512559076
36,21,5,ISIP_5,152,1,48,52,2513080084
36,21,5,ISIP_5,153,1,48,53,2513584560
36,21,5,ISIP_5,154,1,48,45,2514139308
36,21,5,ISIP_5,155,1,48,51,2514659188
36,21,5,ISIP_5,156,1,48,54,2515161276
36,21,5,ISIP_5,157,1,48,34,2515677500
36,21,5,ISIP_5,158,1,48,43,2516205088
36,21,5,ISIP_5,159,1,48,50,2516703880
36,21,5,ISIP_5,160,1,48,51,2517243964
36,21,5,ISIP_5,161,1,48,51,2517717996
36,21,5,ISIP_5,162,1,48,46,2518277000
36,21,5,ISIP_5,163,1,48,47,2518806384
36,21,5,ISIP_5,164,1,48,48,2519307048
36,21,5,ISIP_5,165,1,48,48,2519801652
36,21,5,ISIP_5,166,1,48,40,2520325052
36,21,5,ISIP_5,167,1,48,47,2520829308
36,21,5,ISIP_5,168,1,48,47,2521328104
36,21,5,ISIP_5,169,1,48,48,2521849484
36,21,5,ISIP_5,170,1,48,46,2522306768
36,21,5,ISIP_5,171,1,48,44,2522873696
36,21,5,ISIP_5,172,1,48,54,2523415652
36,21,5,ISIP_5,173,1,48,49,2523887588
36,21,5,ISIP_5,174,1,48,51,2524425280
36,21,5,ISIP_5,175,1,48,42,2524925196
36,21,5,ISIP_5,176,1,48,46,2525426984
36,21,5,ISIP_5,177,1,48,43,2525929812
36,21,5,ISIP_5,178,1,48,46,2526494068
36,21,5,ISIP_5,179,1,48,43,2526957464
36,21,5,ISIP_5,180,1,48,47,2527417444
36,21,5,ISIP_5,181,1,48,44,2528010344
36,21,5,ISIP_5,182,1,48,48,2528498816
36,21,5,ISIP_5,183,1,48,44,2528973148
36,21,5,ISIP_5,184,1,48,41,2529470672
36,21,5,ISIP_5,185,1,48,35,2530002448
36,21,5,ISIP_5,186,1,48,51,2530561232
36,21,5,ISIP_5,187,1,48,44,2531059276
36,21,5,ISIP_5,188,1,48,51,2531569740
36,21,5,ISIP_5,189,1,48,51,2532098524
36,21,5,ISIP_5,190,1,48,30,2532145024
36,21,5,ISIP_5,191,1,48,45,2532658628
36,21,5,ISIP_5,192,1,48,52,2533122788
36,21,5,ISIP_5,193,1,48,50,2533645744
36,21,5,ISIP_5,194,1,48,40,2534151940
36,21,5,ISIP_5,195,1,48,52,2534668836
36,21,5,ISIP_5,196,1,48,47,2535163736
36,21,5,ISIP_5,197,1,48,49,2535663656
36,21,5,ISIP_5,198,1,48,53,2536170152
36,21,5,ISIP_5,199,1,48,39,2536669544
36,21,5,ISIP_5,200,1,48,43,2537150984
36,21,5,ISIP_5,0,9999,9999,9999,2457470060
36,21,5,ISIP_5,1,9999,9999,9999,2457969768
36,21,5,ISIP_5,2,9999,9999,9999,2458469464
36,21,5,ISIP_5,3,9999,9999,9999,2458969144
36,21,5,ISIP_5,4,9999,9999,9999,2459469880
36,21,5,ISIP_5,5,9999,9999,9999,2459969656
36,21,5,ISIP_5,6,9999,9999,9999,2460469344
36,21,5,ISIP_5,7,9999,9999,9999,2460970092
36,21,5,ISIP_5,8,9999,9999,9999,2461469780
36,21,5,ISIP_5,9,9999,9999,9999,2461969476
36,21,5,ISIP_5,10,9999,9999,9999,2462469208
36,21,5,ISIP_5,11,9999,9999,9999,2462969912
36,21,5,ISIP_5,12,9999,9999,9999,2463469688
36,21,5,ISIP_5,13,9999,9999,9999,2463969380
36,21,5,ISIP_5,14,9999,9999,9999,2464470124
36,21,5,ISIP_5,15,9999,9999,9999,2464969820
36,21,5,ISIP_5,16,9999,9999,9999,2465469512
36,21,5,ISIP_5,17,9999,9999,9999,2465969212
36,21,5,ISIP_5,18,9999,9999,9999,2466470000
36,21,5,ISIP_5,19,9999,9999,9999,2466969672
36,21,5,ISIP_5,20,9999,9999,9999,2467469368
36,21,5,ISIP_5,21,9999,9999,9999,2467969128
36,21,5,ISIP_5,22,9999,9999,9999,2468469880
36,21,5,ISIP_5,23,9999,9999,9999,2468969576
36,21,5,ISIP_5,24,9999,9999,9999,2469469268
36,21,5,ISIP_5,25,9999,9999,9999,2469970012
36,21,5,ISIP_5,26,9999,9999,9999,2470469708
36,21,5,ISIP_5,27,9999,9999,9999,2470969400
36,21,5,ISIP_5,28,9999,9999,9999,2471469164
36,21,5,ISIP_5,29,9999,9999,9999,2471969888
36,21,5,ISIP_5,30,9999,9999,9999,2472469576
36,21,5,ISIP_5,31,9999,9999,9999,2472969280
36,21,5,ISIP_5,32,9999,9999,9999,2473470012
36,21,5,ISIP_5,33,9999,9999,9999,2473969716
36,21,5,ISIP_5,34,9999,9999,9999,2474469476
36,21,5,ISIP_5,35,9999,9999,9999,2474969180
36,21,5,ISIP_5,36,9999,9999,9999,2475469920
36,21,5,ISIP_5,37,9999,9999,9999,2475969616
36,21,5,ISIP_5,38,9999,9999,9999,2476469312
36,21,5,ISIP_5,39,9999,9999,9999,2476970048
36,21,5,ISIP_5,40,9999,9999,9999,2477469792
36,21,5,ISIP_5,41,9999,9999,9999,2477969488
36,21,5,ISIP_5,42,9999,9999,9999,2478469180
36,21,5,ISIP_5,43,9999,9999,9999,2478969912
36,21,5,ISIP_5,44,9999,9999,9999,2479469676
36,21,5,ISIP_5,45,9999,9999,9999,2479969368
36,21,5,ISIP_5,46,9999,9999,9999,2480470080
36,21,5,ISIP_5,47,9999,9999,9999,2480969844
36,21,5,ISIP_5,48,9999,9999,9999,2481469536
36,21,5,ISIP_5,49,9999,9999,9999,2481969232
36,21,5,ISIP_5,50,9999,9999,9999,2482469968
36,21,5,ISIP_5,51,9999,9999,9999,2482969660
36,21,5,ISIP_5,52,9999,9999,9999,2483469428
36,21,5,ISIP_5,53,9999,9999,9999,2483969116
36,21,5,ISIP_5,54,9999,9999,9999,2484469856
36,21,5,ISIP_5,55,9999,9999,9999,2484969544
36,21,5,ISIP_5,56,9999,9999,9999,2485469236
36,21,5,ISIP_5,57,9999,9999,9999,2485969972
36,21,5,ISIP_5,58,9999,9999,9999,2486469736
36,21,5,ISIP_5,59,9999,9999,9999,2486969428
36,21,5,ISIP_5,60,9999,9999,9999,2487469120
36,21,5,ISIP_5,61,9999,9999,9999,2487969904
36,21,5,ISIP_5,62,9999,9999,9999,2488469596
36,21,5,ISIP_5,63,9999,9999,9999,2488969288
36,21,5,ISIP_5,64,9999,9999,9999,2489470024
36,21,5,ISIP_5,65,9999,9999,9999,2489969716
36,21,5,ISIP_5,66,9999,9999,9999,2490469480
36,21,5,ISIP_5,67,9999,9999,9999,2490969172
36,21,5,ISIP_5,68,9999,9999,9999,2491469912
36,21,5,ISIP_5,69,9999,9999,9999,2491969600
36,21,5,ISIP_5,70,9999,9999,9999,2492469368
36,21,5,ISIP_5,71,9999,9999,9999,2492970104
36,21,5,ISIP_5,72,9999,9999,9999,2493469796
36,21,5,ISIP_5,73,9999,9999,9999,2493969488
36,21,5,ISIP_5,74,9999,9999,9999,2494469180
36,21,5,ISIP_5,75,9999,9999,9999,2494969916
36,21,5,ISIP_5,76,9999,9999,9999,2495469684
36,21,5,ISIP_5,77,9999,9999,9999,2495969372
36,21,5,ISIP_5,78,9999,9999,9999,2496470108
36,21,5,ISIP_5,79,9999,9999,9999,2496969800
36,21,5,ISIP_5,80,9999,9999,9999,2497469492
36,21,5,ISIP_5,81,9999,9999,9999,2497969256
36,21,5,ISIP_5,82,9999,9999,9999,2498469992
36,21,5,ISIP_5,83,9999,9999,9999,2498969660
36,21,5,ISIP_5,84,9999,9999,9999,2499469424
36,21,5,ISIP_5,85,9999,9999,9999,2499969116
36,21,5,ISIP_5,86,9999,9999,9999,2500469852
36,21,5,ISIP_5,87,9999,9999,9999,2500969544
36,21,5,ISIP_5,88,9999,9999,9999,2501469236
36,21,5,ISIP_5,89,9999,9999,9999,2501969972
36,21,5,ISIP_5,90,9999,9999,9999,2502469736
36,21,5,ISIP_5,91,9999,9999,9999,2502969428
36,21,5,ISIP_5,92,9999,9999,9999,2503469120
36,21,5,ISIP_5,93,9999,9999,9999,2503969856
36,21,5,ISIP_5,94,9999,9999,9999,2504469620
36,21,5,ISIP_5,95,9999,9999,9999,2504969312
36,21,5,ISIP_5,96,9999,9999,9999,2505470048
36,21,5,ISIP_5,97,9999,9999,9999,2505969740
36,21,5,ISIP_5,98,9999,9999,9999,2506469432
36,21,5,ISIP_5,99,9999,9999,9999,2506969196
36,21,5,ISIP_5,100,9999,9999,9999,2507469928
36,21,5,ISIP_5,101,9999,9999,9999,2507969616
36,21,5,ISIP_5,102,9999,9999,9999,2508469316
36,21,5,ISIP_5,103,9999,9999,9999,2508970044
36,21,5,ISIP_5,104,9999,9999,9999,2509469792
36,21,5,ISIP_5,105,9999,9999,9999,2509969476
36,21,5,ISIP_5,106,9999,9999,9999,2510469172
36,21,5,ISIP_5,107,9999,9999,9999,2510969908
36,21,5,ISIP_5,108,9999,9999,9999,2511469672
36,21,5,ISIP_5,109,9999,9999,9999,2511969364
36,21,5,ISIP_5,110,9999,9999,9999,2512470100
36,21,5,ISIP_5,111,9999,9999,9999,2512969792
36,21,5,ISIP_5,112,9999,9999,9999,2513469556
36,21,5,ISIP_5,113,9999,9999,9999,2513969248
36,21,5,ISIP_5,114,9999,9999,9999,2514469984
36,21,5,ISIP_5,115,9999,9999,9999,2514969676
36,21,5,ISIP_5,116,9999,9999,9999,2515469368
36,21,5,ISIP_5,117,9999,9999,9999,2515969132
36,21,5,ISIP_5,118,9999,9999,9999,2516469872
36,21,5,ISIP_5,119,9999,9999,9999,2516969564
36,21,5,ISIP_5,120,9999,9999,9999,2517469252
36,21,5,ISIP_5,121,9999,9999,9999,2517969992
36,21,5,ISIP_5,122,9999,9999,9999,2518469680
36,21,5,ISIP_5,123,9999,9999,9999,2518969448
36,21,5,ISIP_5,124,9999,9999,9999,2519469140
36,21,5,ISIP_5,125,9999,9999,9999,2519969848
36,21,5,ISIP_5,126,9999,9999,9999,2520469616
36,21,5,ISIP_5,127,9999,9999,9999,2520969308
36,21,5,ISIP_5,128,9999,9999,9999,2521470044
36,21,5,ISIP_5,129,9999,9999,9999,2521969736
36,21,5,ISIP_5,130,9999,9999,9999,2522469424
36,21,5,ISIP_5,131,9999,9999,9999,2522969208
36,21,5,ISIP_5,132,9999,9999,9999,2523469944
36,21,5,ISIP_5,133,9999,9999,9999,2523969636
36,21,5,ISIP_5,134,9999,9999,9999,2524469328
36,21,5,ISIP_5,135,9999,9999,9999,2524970064
36,21,5,ISIP_5,136,9999,9999,9999,2525469756
36,21,5,ISIP_5,137,9999,9999,9999,2525969520
36,21,5,ISIP_5,138,9999,9999,9999,2526469216
36,21,5,ISIP_5,139,9999,9999,9999,2526969948
36,21,5,ISIP_5,140,9999,9999,9999,2527469640
36,21,5,ISIP_5,141,9999,9999,9999,2527969336
36,21,5,ISIP_5,142,9999,9999,9999,2528470076
36,21,5,ISIP_5,143,9999,9999,9999,2528969840
36,21,5,ISIP_5,144,9999,9999,9999,2529469532
36,21,5,ISIP_5,145,9999,9999,9999,2529969220
36,21,5,ISIP_5,146,9999,9999,9999,2530469960
36,21,5,ISIP_5,147,9999,9999,9999,2530969700
36,21,5,ISIP_5,148,9999,9999,9999,2531469392
36,21,5,ISIP_5,149,9999,9999,9999,2531969084
36,21,5,ISIP_5,150,9999,9999,9999,2532469872
36,21,5,ISIP_5,151,9999,9999,9999,2532969564
36,21,5,ISIP_5,152,9999,9999,9999,2533469256
36,21,5,ISIP_5,153,9999,9999,9999,2533969992
36,21,5,ISIP_5,154,9999,9999,9999,2534469680
36,21,5,ISIP_5,155,9999,9999,9999,2534969448
36,21,5,ISIP_5,156,9999,9999,9999,2535469140
36,21,5,ISIP_5,157,9999,9999,9999,2535969876
36,21,5,ISIP_5,158,9999,9999,9999,2536469568
36,21,5,ISIP_5,159,9999,9999,9999,2536969336
36,22,11,Pattern_Practice,0,5,42,127,2655935800
36,22,11,Pattern_Practice,1,5,42,127,2656435440
36,22,11,Pattern_Practice,2,5,42,127,2656936276
36,22,11,Pattern_Practice,3,5,42,127,2657435996
36,22,11,Pattern_Practice,4,1,48,56,2657883736
36,22,11,Pattern_Practice,5,5,42,127,2657935752
36,22,11,Pattern_Practice,6,1,48,54,2658424944
36,22,11,Pattern_Practice,7,5,42,127,2658435520
36,22,11,Pattern_Practice,8,5,42,127,2658936492
36,22,11,Pattern_Practice,9,1,48,49,2658952628
36,22,11,Pattern_Practice,10,1,38,62,2659415952
36,22,11,Pattern_Practice,11,5,42,127,2659435736
36,22,11,Pattern_Practice,12,1,48,48,2659880716
36,22,11,Pattern_Practice,13,5,42,127,2659935580
36,22,11,Pattern_Practice,14,5,42,127,2660436552
36,22,11,Pattern_Practice,15,1,48,47,2660449844
36,22,11,Pattern_Practice,16,1,48,46,2660897012
36,22,11,Pattern_Practice,17,5,42,127,2660936164
36,22,11,Pattern_Practice,18,1,38,56,2661377484
36,22,11,Pattern_Practice,19,5,42,127,2661435932
36,22,11,Pattern_Practice,20,1,38,55,2661857360
36,22,11,Pattern_Practice,21,5,42,127,2661935552
36,22,11,Pattern_Practice,22,1,48,40,2662364828
36,22,11,Pattern_Practice,23,5,42,127,2662436368
36,22,11,Pattern_Practice,24,1,48,44,2662885092
36,22,11,Pattern_Practice,25,5,42,127,2662935764
36,22,11,Pattern_Practice,26,1,48,49,2663354868
36,22,11,Pattern_Practice,27,5,42,127,2663435684
36,22,11,Pattern_Practice,28,1,38,44,2663873188
36,22,11,Pattern_Practice,29,5,42,127,2663936352
36,22,11,Pattern_Practice,30,1,48,44,2664402724
36,22,11,Pattern_Practice,31,5,42,127,2664436048
36,22,11,Pattern_Practice,32,1,48,48,2664912968
36,22,11,Pattern_Practice,33,5,42,127,2664935816
36,22,11,Pattern_Practice,34,1,48,42,2665400244
36,22,11,Pattern_Practice,35,5,42,127,2665435436
36,22,11,Pattern_Practice,36,1,38,62,2665877328
36,22,11,Pattern_Practice,37,5,42,127,2665936180
36,22,11,Pattern_Practice,38,1,48,47,2666377400
36,22,11,Pattern_Practice,39,5,42,127,2666436172
36,22,11,Pattern_Practice,40,1,48,45,2666913320
36,22,11,Pattern_Practice,41,5,42,127,2666935568
36,22,11,Pattern_Practice,42,1,48,46,2667383444
36,22,11,Pattern_Practice,43,5,42,127,2667436388
36,22,11,Pattern_Practice,44,1,38,38,2667838488
36,22,11,Pattern_Practice,45,5,42,127,2667936064
36,22,11,Pattern_Practice,46,5,42,127,2668435904
36,22,11,Pattern_Practice,47,1,48,46,2668456552
36,22,11,Pattern_Practice,48,5,42,127,2668935452
36,22,11,Pattern_Practice,49,1,48,46,2668948744
36,22,11,Pattern_Practice,50,1,48,54,2669418876
36,22,11,Pattern_Practice,51,5,42,127,2669436336
36,22,11,Pattern_Practice,52,1,38,38,2669922228
36,22,11,Pattern_Practice,53,5,42,127,2669936180
36,22,11,Pattern_Practice,54,1,38,52,2670398068
36,22,11,Pattern_Practice,55,5,42,127,2670435876
36,22,11,Pattern_Practice,56,5,42,127,2670936328
36,22,11,Pattern_Practice,57,1,48,44,2670937888
36,22,11,Pattern_Practice,58,1,48,45,2671421096
36,22,11,Pattern_Practice,59,5,42,127,2671436092
36,22,11,Pattern_Practice,60,5,42,127,2671936016
36,22,11,Pattern_Practice,61,1,48,48,2671948036
36,22,11,Pattern_Practice,62,1,38,43,2672379720
36,22,11,Pattern_Practice,63,5,42,127,2672435556
36,22,11,Pattern_Practice,64,1,48,24,2672471568
36,22,11,Pattern_Practice,65,1,48,51,2672922252
36,22,11,Pattern_Practice,66,5,42,127,2672936348
36,22,11,Pattern_Practice,67,1,48,45,2673418656
36,22,11,Pattern_Practice,68,5,42,127,2673436116
36,22,11,Pattern_Practice,69,1,48,43,2673892548
36,22,11,Pattern_Practice,70,5,42,127,2673935812
36,22,11,Pattern_Practice,71,1,38,39,2674268352
36,22,11,Pattern_Practice,72,1,48,52,2674373516
36,22,11,Pattern_Practice,73,5,42,127,2674435336
36,22,11,Pattern_Practice,74,1,48,46,2674829432
36,22,11,Pattern_Practice,75,5,42,127,2674936060
36,22,11,Pattern_Practice,76,1,48,46,2675342440
36,22,11,Pattern_Practice,77,5,42,127,2675435772
36,22,11,Pattern_Practice,78,1,48,52,2675841980
36,22,11,Pattern_Practice,79,5,42,127,2675935836
36,22,11,Pattern_Practice,80,1,38,56,2676246456
36,22,11,Pattern_Practice,81,1,48,44,2676304332
36,22,11,Pattern_Practice,82,5,42,127,2676436380
36,22,11,Pattern_Practice,83,1,48,46,2676840064
36,22,11,Pattern_Practice,84,5,42,127,2676936012
36,22,11,Pattern_Practice,85,1,48,48,2677329736
36,22,11,Pattern_Practice,86,5,42,127,2677435620
36,22,11,Pattern_Practice,87,1,38,28,2677854340
36,22,11,Pattern_Practice,88,5,42,127,2677935552
36,22,11,Pattern_Practice,89,1,48,41,2678325464
36,22,11,Pattern_Practice,90,5,42,127,2678436132
36,22,11,Pattern_Practice,91,1,48,46,2678837648
36,22,11,Pattern_Practice,92,5,42,127,2678935876
36,22,11,Pattern_Practice,93,1,48,51,2679351332
36,22,11,Pattern_Practice,94,5,42,127,2679435732
36,22,11,Pattern_Practice,95,1,38,41,2679835460
36,22,11,Pattern_Practice,96,5,42,127,2679936460
36,22,11,Pattern_Practice,97,1,48,41,2680367020
36,22,11,Pattern_Practice,98,5,42,127,2680436096
36,22,11,Pattern_Practice,99,1,48,40,2680891848
36,22,11,Pattern_Practice,100,5,42,127,2680935712
36,22,11,Pattern_Practice,101,1,48,46,2681391392
36,22,11,Pattern_Practice,102,5,42,127,2681435632
36,22,11,Pattern_Practice,103,1,38,54,2681853316
36,22,11,Pattern_Practice,104,5,42,127,2681936372
36,22,11,Pattern_Practice,105,1,38,48,2682386068
36,22,11,Pattern_Practice,106,5,42,127,2682435844
36,22,11,Pattern_Practice,107,1,48,44,2682892192
36,22,11,Pattern_Practice,108,5,42,127,2682935540
36,22,11,Pattern_Practice,109,5,42,127,2683436364
36,22,11,Pattern_Practice,110,1,48,45,2683444272
36,22,11,Pattern_Practice,111,1,48,48,2683925772
36,22,11,Pattern_Practice,112,5,42,127,2683936052
36,22,11,Pattern_Practice,113,1,38,55,2684363084
36,22,11,Pattern_Practice,114,5,42,127,2684435820
36,22,11,Pattern_Practice,115,1,48,47,2684851260
36,22,11,Pattern_Practice,116,5,42,127,2684935512
36,22,11,Pattern_Practice,117,1,48,43,2685373916
36,22,11,Pattern_Practice,118,5,42,127,2685436328
36,22,11,Pattern_Practice,119,1,48,51,2685845308
36,22,11,Pattern_Practice,120,5,42,127,2685936100
36,22,11,Pattern_Practice,121,1,38,54,2686314864
36,22,11,Pattern_Practice,122,5,42,127,2686435628
36,22,11,Pattern_Practice,123,1,48,46,2686804460
36,22,11,Pattern_Practice,124,5,42,127,2686936372
36,22,11,Pattern_Practice,125,1,48,49,2687379700
36,22,11,Pattern_Practice,126,5,42,127,2687436304
36,22,11,Pattern_Practice,127,1,48,44,2687826212
36,22,11,Pattern_Practice,128,5,42,127,2687935832
36,22,11,Pattern_Practice,129,1,38,49,2688212660
36,22,11,Pattern_Practice,130,1,48,45,2688345188
36,22,11,Pattern_Practice,131,5,42,127,2688435596
36,22,11,Pattern_Practice,132,1,48,53,2688872480
36,22,11,Pattern_Practice,133,5,42,127,2688936488
36,22,11,Pattern_Practice,134,1,48,56,2689368952
36,22,11,Pattern_Practice,135,5,42,127,2689436180
36,22,11,Pattern_Practice,136,1,48,53,2689805820
36,22,11,Pattern_Practice,137,5,42,127,2689935836
36,22,11,Pattern_Practice,138,1,38,59,2690134944
36,22,11,Pattern_Practice,139,1,48,61,2690294344
36,22,11,Pattern_Practice,140,5,42,127,2690435360
36,22,11,Pattern_Practice,141,1,48,56,2690754472
36,22,11,Pattern_Practice,142,5,42,127,2690936176
36,22,11,Pattern_Practice,143,1,48,53,2691242424
36,22,11,Pattern_Practice,144,5,42,127,2691436168
36,22,11,Pattern_Practice,145,1,48,54,2691701928
36,22,11,Pattern_Practice,146,5,42,127,2691935640
36,22,11,Pattern_Practice,147,1,38,68,2692122332
36,22,11,Pattern_Practice,148,5,42,127,2692436308
36,22,11,Pattern_Practice,149,1,48,54,2692660848
36,22,11,Pattern_Practice,150,5,42,127,2692936000
36,22,11,Pattern_Practice,151,1,48,49,2693184780
36,22,11,Pattern_Practice,152,5,42,127,2693435916
36,22,11,Pattern_Practice,153,1,48,52,2693627928
36,22,11,Pattern_Practice,154,5,42,127,2693935464
36,22,11,Pattern_Practice,155,1,38,67,2693989820
36,22,11,Pattern_Practice,156,1,38,47,2694217724
36,22,11,Pattern_Practice,157,5,42,127,2694436332
36,22,11,Pattern_Practice,158,1,48,48,2694701416
36,22,11,Pattern_Practice,159,5,42,127,2694936100
36,22,11,Pattern_Practice,160,1,48,44,2695224524
36,22,11,Pattern_Practice,161,5,42,127,2695435496
36,22,11,Pattern_Practice,162,1,48,56,2695688540
36,22,11,Pattern_Practice,0,9999,9999,9999,2655933512
36,22,11,Pattern_Practice,1,9999,9999,9999,2656433228
36,22,11,Pattern_Practice,2,9999,9999,9999,2656933988
36,22,11,Pattern_Practice,3,9999,9999,9999,2657433680
36,22,11,Pattern_Practice,4,9999,9999,9999,2657933392
36,22,11,Pattern_Practice,5,9999,9999,9999,2658433084
36,22,11,Pattern_Practice,6,9999,9999,9999,2658933832
36,22,11,Pattern_Practice,7,9999,9999,9999,2659433524
36,22,11,Pattern_Practice,8,9999,9999,9999,2659933292
36,22,11,Pattern_Practice,9,9999,9999,9999,2660434040
36,22,11,Pattern_Practice,10,9999,9999,9999,2660933728
36,22,11,Pattern_Practice,11,9999,9999,9999,2661433424
36,22,11,Pattern_Practice,12,9999,9999,9999,2661933116
36,22,11,Pattern_Practice,13,9999,9999,9999,2662433856
36,22,11,Pattern_Practice,14,9999,9999,9999,2662933552
36,22,11,Pattern_Practice,15,9999,9999,9999,2663433324
36,22,11,Pattern_Practice,16,9999,9999,9999,2663934064
36,22,11,Pattern_Practice,17,9999,9999,9999,2664433760
36,22,11,Pattern_Practice,18,9999,9999,9999,2664933456
36,22,11,Pattern_Practice,19,9999,9999,9999,2665433148
36,22,11,Pattern_Practice,20,9999,9999,9999,2665933892
36,22,11,Pattern_Practice,21,9999,9999,9999,2666433588
36,22,11,Pattern_Practice,22,9999,9999,9999,2666933356
36,22,11,Pattern_Practice,23,9999,9999,9999,2667434100
36,22,11,Pattern_Practice,24,9999,9999,9999,2667933776
36,22,11,Pattern_Practice,25,9999,9999,9999,2668433468
36,22,11,Pattern_Practice,26,9999,9999,9999,2668933240
36,22,11,Pattern_Practice,27,9999,9999,9999,2669433972
36,22,11,Pattern_Practice,28,9999,9999,9999,2669933668
36,22,11,Pattern_Practice,29,9999,9999,9999,2670433364
36,22,11,Pattern_Practice,30,9999,9999,9999,2670934112
36,22,11,Pattern_Practice,31,9999,9999,9999,2671433804
36,22,11,Pattern_Practice,32,9999,9999,9999,2671933504
36,22,11,Pattern_Practice,33,9999,9999,9999,2672433268
36,22,11,Pattern_Practice,34,9999,9999,9999,2672933988
36,22,11,Pattern_Practice,35,9999,9999,9999,2673433680
36,22,11,Pattern_Practice,36,9999,9999,9999,2673933376
36,22,11,Pattern_Practice,37,9999,9999,9999,2674433124
36,22,11,Pattern_Practice,38,9999,9999,9999,2674933848
36,22,11,Pattern_Practice,39,9999,9999,9999,2675433556
36,22,11,Pattern_Practice,40,9999,9999,9999,2675933252
36,22,11,Pattern_Practice,41,9999,9999,9999,2676434016
36,22,11,Pattern_Practice,42,9999,9999,9999,2676933724
36,22,11,Pattern_Practice,43,9999,9999,9999,2677433404
36,22,11,Pattern_Practice,44,9999,9999,9999,2677933116
36,22,11,Pattern_Practice,45,9999,9999,9999,2678433844
36,22,11,Pattern_Practice,46,9999,9999,9999,2678933620
36,22,11,Pattern_Practice,47,9999,9999,9999,2679433296
36,22,11,Pattern_Practice,48,9999,9999,9999,2679934024
36,22,11,Pattern_Practice,49,9999,9999,9999,2680433732
36,22,11,Pattern_Practice,50,9999,9999,9999,2680933428
36,22,11,Pattern_Practice,51,9999,9999,9999,2681433196
36,22,11,Pattern_Practice,52,9999,9999,9999,2681933936
36,22,11,Pattern_Practice,53,9999,9999,9999,2682433632
36,22,11,Pattern_Practice,54,9999,9999,9999,2682933328
36,22,11,Pattern_Practice,55,9999,9999,9999,2683434076
36,22,11,Pattern_Practice,56,9999,9999,9999,2683933764
36,22,11,Pattern_Practice,57,9999,9999,9999,2684433456
36,22,11,Pattern_Practice,58,9999,9999,9999,2684933224
36,22,11,Pattern_Practice,59,9999,9999,9999,2685433968
36,22,11,Pattern_Practice,60,9999,9999,9999,2685933664
36,22,11,Pattern_Practice,61,9999,9999,9999,2686433340
36,22,11,Pattern_Practice,62,9999,9999,9999,2686934084
36,22,11,Pattern_Practice,63,9999,9999,9999,2687433792
36,22,11,Pattern_Practice,64,9999,9999,9999,2687933544
36,22,11,Pattern_Practice,65,9999,9999,9999,2688433236
36,22,11,Pattern_Practice,66,9999,9999,9999,2688933976
36,22,11,Pattern_Practice,67,9999,9999,9999,2689433672
36,22,11,Pattern_Practice,68,9999,9999,9999,2689933400
36,22,11,Pattern_Practice,69,9999,9999,9999,2690433144
36,22,11,Pattern_Practice,70,9999,9999,9999,2690933812
36,22,11,Pattern_Practice,71,9999,9999,9999,2691433584
36,22,11,Pattern_Practice,72,9999,9999,9999,2691933276
36,22,11,Pattern_Practice,73,9999,9999,9999,2692434020
36,22,11,Pattern_Practice,74,9999,9999,9999,2692933712
36,22,11,Pattern_Practice,75,9999,9999,9999,2693433408
36,22,11,Pattern_Practice,76,9999,9999,9999,2693933176
36,22,11,Pattern_Practice,77,9999,9999,9999,2694433892
36,22,11,Pattern_Practice,78,9999,9999,9999,2694933588
36,22,11,Pattern_Practice,79,9999,9999,9999,2695433284
36,23,13,Improv_Metronome,0,5,42,127,2718795096
36,23,13,Improv_Metronome,1,5,42,127,2719294964
36,23,13,Improv_Metronome,2,1,48,51,2719465204
36,23,13,Improv_Metronome,3,5,42,127,2719794508
36,23,13,Improv_Metronome,4,1,48,49,2719970132
36,23,13,Improv_Metronome,5,5,42,127,2720295252
36,23,13,Improv_Metronome,6,1,48,44,2720520016
36,23,13,Improv_Metronome,7,5,42,127,2720795092
36,23,13,Improv_Metronome,8,1,38,50,2720985832
36,23,13,Improv_Metronome,9,5,42,127,2721294640
36,23,13,Improv_Metronome,10,1,48,43,2721490684
36,23,13,Improv_Metronome,11,5,42,127,2721794336
36,23,13,Improv_Metronome,12,1,48,41,2721955152
36,23,13,Improv_Metronome,13,5,42,127,2722295076
36,23,13,Improv_Metronome,14,1,48,40,2722419144
36,23,13,Improv_Metronome,15,5,42,127,2722794920
36,23,13,Improv_Metronome,16,1,38,67,2722827660
36,23,13,Improv_Metronome,17,1,48,48,2723085040
36,23,13,Improv_Metronome,18,5,42,127,2723294888
36,23,13,Improv_Metronome,19,1,48,48,2723588256
36,23,13,Improv_Metronome,20,5,42,127,2723795336
36,23,13,Improv_Metronome,21,1,48,47,2724044264
36,23,13,Improv_Metronome,22,5,42,127,2724294956
36,23,13,Improv_Metronome,23,1,48,47,2724548672
36,23,13,Improv_Metronome,24,5,42,127,2724794724
36,23,13,Improv_Metronome,25,1,38,49,2724927844
36,23,13,Improv_Metronome,26,1,38,38,2725140572
36,23,13,Improv_Metronome,27,5,42,127,2725294472
36,23,13,Improv_Metronome,28,1,48,43,2725633904
36,23,13,Improv_Metronome,29,5,42,127,2725795064
36,23,13,Improv_Metronome,30,1,48,48,2726151256
36,23,13,Improv_Metronome,31,5,42,127,2726294980
36,23,13,Improv_Metronome,32,1,48,46,2726679072
36,23,13,Improv_Metronome,33,5,42,127,2726794876
36,23,13,Improv_Metronome,34,1,38,58,2727119980
36,23,13,Improv_Metronome,35,1,48,47,2727273064
36,23,13,Improv_Metronome,36,5,42,127,2727295240
36,23,13,Improv_Metronome,37,5,42,127,2727795016
36,23,13,Improv_Metronome,38,1,48,48,2727836456
36,23,13,Improv_Metronome,39,5,42,127,2728294860
36,23,13,Improv_Metronome,40,1,48,48,2728301416
36,23,13,Improv_Metronome,41,1,48,51,2728789576
36,23,13,Improv_Metronome,42,5,42,127,2728794620
36,23,13,Improv_Metronome,43,1,38,63,2729172064
36,23,13,Improv_Metronome,44,5,42,127,2729295200
36,23,13,Improv_Metronome,45,1,48,51,2729733988
36,23,13,Improv_Metronome,46,5,42,127,2729794908
36,23,13,Improv_Metronome,47,1,48,42,2730214908
36,23,13,Improv_Metronome,48,5,42,127,2730294676
36,23,13,Improv_Metronome,49,1,48,47,2730729040
36,23,13,Improv_Metronome,50,5,42,127,2730795496
36,23,13,Improv_Metronome,51,1,38,51,2731114340
36,23,13,Improv_Metronome,52,1,48,48,2731252568
36,23,13,Improv_Metronome,53,5,42,127,2731295092
36,23,13,Improv_Metronome,54,5,42,127,2731794720
36,23,13,Improv_Metronome,55,1,48,56,2731834336
36,23,13,Improv_Metronome,56,5,42,127,2732294412
36,23,13,Improv_Metronome,57,1,48,54,2732319824
36,23,13,Improv_Metronome,58,1,48,51,2732773944
36,23,13,Improv_Metronome,59,5,42,127,2732795220
36,23,13,Improv_Metronome,60,1,38,55,2733201440
36,23,13,Improv_Metronome,61,5,42,127,2733294900
36,23,13,Improv_Metronome,62,1,38,48,2733418292
36,23,13,Improv_Metronome,63,5,42,127,2733794596
36,23,13,Improv_Metronome,64,1,48,44,2733922100
36,23,13,Improv_Metronome,65,5,42,127,2734295488
36,23,13,Improv_Metronome,66,1,48,55,2734379388
36,23,13,Improv_Metronome,67,5,42,127,2734795404
36,23,13,Improv_Metronome,68,1,48,54,2734842504
36,23,13,Improv_Metronome,69,1,38,48,2735232428
36,23,13,Improv_Metronome,70,5,42,127,2735294792
36,23,13,Improv_Metronome,71,1,48,54,2735438740
36,23,13,Improv_Metronome,72,5,42,127,2735794548
36,23,13,Improv_Metronome,73,1,48,58,2735966856
36,23,13,Improv_Metronome,74,5,42,127,2736295436
36,23,13,Improv_Metronome,75,1,48,51,2736457204
36,23,13,Improv_Metronome,76,5,42,127,2736794908
36,23,13,Improv_Metronome,77,1,48,54,2736932436
36,23,13,Improv_Metronome,78,5,42,127,2737294728
36,23,13,Improv_Metronome,79,1,38,70,2737360400
36,23,13,Improv_Metronome,80,5,42,127,2737794572
36,23,13,Improv_Metronome,81,1,48,44,2737848504
36,23,13,Improv_Metronome,82,5,42,127,2738295160
36,23,13,Improv_Metronome,83,1,48,45,2738318776
36,23,13,Improv_Metronome,84,1,48,52,2738768712
36,23,13,Improv_Metronome,85,5,42,127,2738794776
36,23,13,Improv_Metronome,86,1,38,45,2739120456
36,23,13,Improv_Metronome,87,5,42,127,2739294528
36,23,13,Improv_Metronome,88,1,48,59,2739303632
36,23,13,Improv_Metronome,89,1,38,51,2739656108
36,23,13,Improv_Metronome,90,5,42,127,2739795324
36,23,13,Improv_Metronome,91,1,48,48,2740170312
36,23,13,Improv_Metronome,92,5,42,127,2740295020
36,23,13,Improv_Metronome,93,1,48,40,2740665820
36,23,13,Improv_Metronome,94,5,42,127,2740794712
36,23,13,Improv_Metronome,95,1,48,44,2741134524
36,23,13,Improv_Metronome,96,5,42,127,2741294484
36,23,13,Improv_Metronome,97,1,38,63,2741542884
36,23,13,Improv_Metronome,98,5,42,127,2741795076
36,23,13,Improv_Metronome,99,1,38,42,2742168644
36,23,13,Improv_Metronome,100,5,42,127,2742295140
36,23,13,Improv_Metronome,101,1,38,46,2742654100
36,23,13,Improv_Metronome,102,5,42,127,2742794536
36,23,13,Improv_Metronome,103,1,48,40,2743122896
36,23,13,Improv_Metronome,104,5,42,127,2743295500
36,23,13,Improv_Metronome,105,1,38,48,2743702732
36,23,13,Improv_Metronome,106,5,42,127,2743795140
36,23,13,Improv_Metronome,107,1,38,52,2744122668
36,23,13,Improv_Metronome,108,5,42,127,2744294896
36,23,13,Improv_Metronome,109,1,38,52,2744640312
36,23,13,Improv_Metronome,110,5,42,127,2744794588
36,23,13,Improv_Metronome,111,1,48,51,2745102760
36,23,13,Improv_Metronome,112,5,42,127,2745295108
36,23,13,Improv_Metronome,113,1,48,33,2745629756
36,23,13,Improv_Metronome,114,5,42,127,2745795100
36,23,13,Improv_Metronome,115,1,38,50,2745999124
36,23,13,Improv_Metronome,116,5,42,127,2746294572
36,23,13,Improv_Metronome,117,1,38,44,2746563248
36,23,13,Improv_Metronome,118,5,42,127,2746795240
36,23,13,Improv_Metronome,119,1,48,46,2747059428
36,23,13,Improv_Metronome,120,5,42,127,2747295008
36,23,13,Improv_Metronome,121,1,38,49,2747611628
36,23,13,Improv_Metronome,122,5,42,127,2747794900
36,23,13,Improv_Metronome,123,1,48,37,2748172732
36,23,13,Improv_Metronome,124,5,42,127,2748294444
36,23,13,Improv_Metronome,125,1,48,47,2748665168
36,23,13,Improv_Metronome,126,5,42,127,2748795184
36,23,13,Improv_Metronome,127,1,48,49,2749135244
36,23,13,Improv_Metronome,128,5,42,127,2749295104
36,23,13,Improv_Metronome,129,1,38,60,2749598888
36,23,13,Improv_Metronome,130,5,42,127,2749794652
36,23,13,Improv_Metronome,131,1,48,48,2750102020
36,23,13,Improv_Metronome,132,5,42,127,2750295316
36,23,13,Improv_Metronome,133,1,48,50,2750556664
36,23,13,Improv_Metronome,134,5,42,127,2750795012
36,23,13,Improv_Metronome,135,1,48,48,2751052760
36,23,13,Improv_Metronome,136,5,42,127,2751294704
36,23,13,Improv_Metronome,137,1,38,62,2751406384
36,23,13,Improv_Metronome,138,1,48,48,2751567476
36,23,13,Improv_Metronome,139,5,42,127,2751794828
36,23,13,Improv_Metronome,140,1,48,52,2752150220
36,23,13,Improv_Metronome,141,5,42,127,2752295196
36,23,13,Improv_Metronome,142,1,48,48,2752635080
36,23,13,Improv_Metronome,143,5,42,127,2752794892
36,23,13,Improv_Metronome,144,1,48,53,2753133500
36,23,13,Improv_Metronome,145,5,42,127,2753294808
36,23,13,Improv_Metronome,146,1,38,48,2753594452
36,23,13,Improv_Metronome,147,5,42,127,2753794428
36,23,13,Improv_Metronome,148,1,48,61,2753917896
36,23,13,Improv_Metronome,149,5,42,127,2754295096
36,23,13,Improv_Metronome,150,1,48,51,2754529516
36,23,13,Improv_Metronome,151,5,42,127,2754794716
36,23,13,Improv_Metronome,152,1,48,45,2755018588
36,23,13,Improv_Metronome,153,5,42,127,2755294784
36,23,13,Improv_Metronome,154,1,48,49,2755489864
36,23,13,Improv_Metronome,155,5,42,127,2755795300
36,23,13,Improv_Metronome,156,1,38,59,2755844720
36,23,13,Improv_Metronome,157,5,42,127,2756295072
36,23,13,Improv_Metronome,158,1,48,47,2756343516
36,23,13,Improv_Metronome,159,5,42,127,2756794692
36,23,13,Improv_Metronome,160,1,48,52,2756816808
36,23,13,Improv_Metronome,161,1,48,51,2757275272
36,23,13,Improv_Metronome,162,5,42,127,2757294456
36,23,13,Improv_Metronome,163,1,38,55,2757645392
36,23,13,Improv_Metronome,164,5,42,127,2757795184
36,23,13,Improv_Metronome,165,1,48,51,2757840336
36,23,13,Improv_Metronome,166,5,42,127,2758294952
36,23,13,Improv_Metronome,167,1,48,66,2758357016
36,23,13,Improv_Metronome,168,5,42,127,2758794696
36,23,13,Improv_Metronome,169,1,48,55,2758816392
36,23,13,Improv_Metronome,170,1,48,61,2759286272
36,23,13,Improv_Metronome,171,5,42,127,2759295432
36,23,13,Improv_Metronome,172,1,38,52,2759707056
36,23,13,Improv_Metronome,173,5,42,127,2759794976
36,23,13,Improv_Metronome,174,1,48,44,2759915012
36,23,13,Improv_Metronome,175,5,42,127,2760294732
36,23,13,Improv_Metronome,176,1,38,42,2760343728
36,23,13,Improv_Metronome,177,5,42,127,2760794424
36,23,13,Improv_Metronome,178,1,48,49,2760902060
36,23,13,Improv_Metronome,179,5,42,127,2761295464
36,23,13,Improv_Metronome,180,1,48,49,2761391360
36,23,13,Improv_Metronome,181,5,42,127,2761794864
36,23,13,Improv_Metronome,182,1,48,48,2761814808
36,23,13,Improv_Metronome,183,1,38,53,2762272596
36,23,13,Improv_Metronome,184,5,42,127,2762294624
36,23,13,Improv_Metronome,185,1,48,47,2762788904
36,23,13,Improv_Metronome,186,5,42,127,2762795440
36,23,13,Improv_Metronome,187,1,48,51,2763258228
36,23,13,Improv_Metronome,188,5,42,127,2763295280
36,23,13,Improv_Metronome,189,1,48,53,2763780584
36,23,13,Improv_Metronome,190,5,42,127,2763794756
36,23,13,Improv_Metronome,191,1,38,58,2764244152
36,23,13,Improv_Metronome,192,5,42,127,2764294452
36,23,13,Improv_Metronome,193,1,38,56,2764744744
36,23,13,Improv_Metronome,194,5,42,127,2764795412
36,23,13,Improv_Metronome,195,1,48,58,2765217888
36,23,13,Improv_Metronome,196,5,42,127,2765294812
36,23,13,Improv_Metronome,197,1,38,56,2765706108
36,23,13,Improv_Metronome,198,5,42,127,2765794656
36,23,13,Improv_Metronome,199,1,38,59,2766139612
36,23,13,Improv_Metronome,200,5,42,127,2766295456
36,23,13,Improv_Metronome,201,1,38,51,2766700864
36,23,13,Improv_Metronome,202,5,42,127,2766795240
36,23,13,Improv_Metronome,203,1,48,59,2767165248
36,23,13,Improv_Metronome,204,5,42,127,2767294844
36,23,13,Improv_Metronome,205,1,38,60,2767366100
36,23,13,Improv_Metronome,206,5,42,127,2767794612
36,23,13,Improv_Metronome,207,1,38,40,2767968496
36,23,13,Improv_Metronome,208,5,42,127,2768295204
36,23,13,Improv_Metronome,209,1,38,49,2768439692
36,23,13,Improv_Metronome,210,5,42,127,2768795048
36,23,13,Improv_Metronome,211,1,38,53,2768946868
36,23,13,Improv_Metronome,212,5,42,127,2769294572
36,23,13,Improv_Metronome,213,1,48,49,2769432652
36,23,13,Improv_Metronome,214,5,42,127,2769794416
36,23,13,Improv_Metronome,215,1,38,57,2769887396
36,23,13,Improv_Metronome,216,5,42,127,2770295084
36,23,13,Improv_Metronome,217,1,38,49,2770411020
36,23,13,Improv_Metronome,218,5,42,127,2770795148
36,23,13,Improv_Metronome,219,1,38,55,2770827964
36,23,13,Improv_Metronome,220,1,48,51,2771259048
36,23,13,Improv_Metronome,221,5,42,127,2771294464
36,23,13,Improv_Metronome,222,1,38,58,2771457588
36,23,13,Improv_Metronome,223,5,42,127,2771795416
36,23,13,Improv_Metronome,224,1,38,57,2771983536
36,23,13,Improv_Metronome,225,5,42,127,2772294960
36,23,13,Improv_Metronome,226,1,38,45,2772443512
36,23,13,Improv_Metronome,227,5,42,127,2772794656
36,23,13,Improv_Metronome,228,1,38,51,2772905728
36,23,13,Improv_Metronome,229,1,48,54,2773239632
36,23,13,Improv_Metronome,230,5,42,127,2773294344
36,23,13,Improv_Metronome,231,1,38,61,2773745088
36,23,13,Improv_Metronome,232,5,42,127,2773795160
36,23,13,Improv_Metronome,233,1,38,50,2774185840
36,23,13,Improv_Metronome,234,5,42,127,2774294988
36,23,13,Improv_Metronome,235,1,38,49,2774672344
36,23,13,Improv_Metronome,236,5,42,127,2774794536
36,23,13,Improv_Metronome,237,1,48,57,2774976368
36,23,13,Improv_Metronome,238,1,38,77,2775141948
36,23,13,Improv_Metronome,239,5,42,127,2775295476
36,23,13,Improv_Metronome,240,1,48,38,2775712804
36,23,13,Improv_Metronome,241,5,42,127,2775795040
36,23,13,Improv_Metronome,242,1,48,55,2776163928
36,23,13,Improv_Metronome,243,5,42,127,2776294868
36,23,13,Improv_Metronome,244,1,48,57,2776647092
36,23,13,Improv_Metronome,245,5,42,127,2776794340
36,23,13,Improv_Metronome,246,1,38,58,2777005496
36,23,13,Improv_Metronome,247,5,42,127,2777295156
36,23,13,Improv_Metronome,248,1,48,60,2777527556
36,23,13,Improv_Metronome,249,5,42,127,2777794924
36,23,13,Improv_Metronome,250,1,48,54,2777966112
36,23,13,Improv_Metronome,251,5,42,127,2778294616
36,23,13,Improv_Metronome,252,1,48,62,2778459972
36,23,13,Improv_Metronome,253,5,42,127,2778795660
36,23,13,Improv_Metronome,254,1,38,67,2778841860
36,23,13,Improv_Metronome,255,1,48,51,2779239864
36,23,13,Improv_Metronome,256,5,42,127,2779295048
36,23,13,Improv_Metronome,257,1,38,47,2779790944
36,23,13,Improv_Metronome,258,5,42,127,2779794816
36,23,13,Improv_Metronome,259,1,48,51,2780280096
36,23,13,Improv_Metronome,260,5,42,127,2780294712
36,23,13,Improv_Metronome,261,1,48,49,2780773056
36,23,13,Improv_Metronome,262,5,42,127,2780795228
36,23,13,Improv_Metronome,263,1,48,67,2781264672
36,23,13,Improv_Metronome,264,5,42,127,2781295004
36,23,13,Improv_Metronome,265,1,38,72,2781603932
36,23,13,Improv_Metronome,266,5,42,127,2781794756
36,23,13,Improv_Metronome,267,1,48,59,2782109160
36,23,13,Improv_Metronome,268,5,42,127,2782295648
36,23,13,Improv_Metronome,269,1,48,57,2782583620
36,23,13,Improv_Metronome,270,5,42,127,2782795192
36,23,13,Improv_Metronome,271,1,48,59,2783089000
36,23,13,Improv_Metronome,272,5,42,127,2783294888
36,23,13,Improv_Metronome,273,1,38,47,2783451592
36,23,13,Improv_Metronome,274,1,38,50,2783734480
36,23,13,Improv_Metronome,275,5,42,127,2783794648
36,23,13,Improv_Metronome,276,1,48,66,2784193484
36,23,13,Improv_Metronome,277,5,42,127,2784295376
36,23,13,Improv_Metronome,278,1,48,61,2784763264
36,23,13,Improv_Metronome,279,5,42,127,2784794940
36,23,13,Improv_Metronome,280,1,48,63,2785245980
36,23,13,Improv_Metronome,281,5,42,127,2785294856
36,23,13,Improv_Metronome,282,1,38,62,2785681504
36,23,13,Improv_Metronome,283,5,42,127,2785794388
36,23,13,Improv_Metronome,284,1,48,48,2785838276
36,23,13,Improv_Metronome,285,5,42,127,2786295280
36,23,13,Improv_Metronome,286,1,48,59,2786380676
36,23,13,Improv_Metronome,287,5,42,127,2786794752
36,23,13,Improv_Metronome,288,1,48,48,2786861672
36,23,13,Improv_Metronome,289,5,42,127,2787294644
36,23,13,Improv_Metronome,290,1,48,64,2787309284
36,23,13,Improv_Metronome,291,1,38,54,2787692028
36,23,13,Improv_Metronome,292,5,42,127,2787795292
36,23,13,Improv_Metronome,293,1,48,38,2787843888
36,23,13,Improv_Metronome,294,5,42,127,2788294988
36,23,13,Improv_Metronome,295,1,48,71,2788364604
36,23,13,Improv_Metronome,0,9999,9999,9999,2718792812
36,23,13,Improv_Metronome,1,9999,9999,9999,2719292528
36,23,13,Improv_Metronome,2,9999,9999,9999,2719792224
36,23,13,Improv_Metronome,3,9999,9999,9999,2720292964
36,23,13,Improv_Metronome,4,9999,9999,9999,2720792656
36,23,13,Improv_Metronome,5,9999,9999,9999,2721292352
36,23,13,Improv_Metronome,6,9999,9999,9999,2721792124
36,23,13,Improv_Metronome,7,9999,9999,9999,2722292788
36,23,13,Improv_Metronome,8,9999,9999,9999,2722792560
36,23,13,Improv_Metronome,9,9999,9999,9999,2723292232
36,23,13,Improv_Metronome,10,9999,9999,9999,2723792972
36,23,13,Improv_Metronome,11,9999,9999,9999,2724292668
36,23,13,Improv_Metronome,12,9999,9999,9999,2724792436
36,23,13,Improv_Metronome,13,9999,9999,9999,2725292112
36,23,13,Improv_Metronome,14,9999,9999,9999,2725792852
36,23,13,Improv_Metronome,15,9999,9999,9999,2726292596
36,23,13,Improv_Metronome,16,9999,9999,9999,2726792292
36,23,13,Improv_Metronome,17,9999,9999,9999,2727293028
36,23,13,Improv_Metronome,18,9999,9999,9999,2727792732
36,23,13,Improv_Metronome,19,9999,9999,9999,2728292424
36,23,13,Improv_Metronome,20,9999,9999,9999,2728792188
36,23,13,Improv_Metronome,21,9999,9999,9999,2729292912
36,23,13,Improv_Metronome,22,9999,9999,9999,2729792624
36,23,13,Improv_Metronome,23,9999,9999,9999,2730292316
36,23,13,Improv_Metronome,24,9999,9999,9999,2730793060
36,23,13,Improv_Metronome,25,9999,9999,9999,2731292728
36,23,13,Improv_Metronome,26,9999,9999,9999,2731792432
36,23,13,Improv_Metronome,27,9999,9999,9999,2732292200
36,23,13,Improv_Metronome,28,9999,9999,9999,2732792936
36,23,13,Improv_Metronome,29,9999,9999,9999,2733292632
36,23,13,Improv_Metronome,30,9999,9999,9999,2733792308
36,23,13,Improv_Metronome,31,9999,9999,9999,2734293048
36,23,13,Improv_Metronome,32,9999,9999,9999,2734792820
36,23,13,Improv_Metronome,33,9999,9999,9999,2735292508
36,23,13,Improv_Metronome,34,9999,9999,9999,2735792184
36,23,13,Improv_Metronome,35,9999,9999,9999,2736292928
36,23,13,Improv_Metronome,36,9999,9999,9999,2736792696
36,23,13,Improv_Metronome,37,9999,9999,9999,2737292364
36,23,13,Improv_Metronome,38,9999,9999,9999,2737792060
36,23,13,Improv_Metronome,39,9999,9999,9999,2738292800
36,23,13,Improv_Metronome,40,9999,9999,9999,2738792564
36,23,13,Improv_Metronome,41,9999,9999,9999,2739292244
36,23,13,Improv_Metronome,42,9999,9999,9999,2739792964
36,23,13,Improv_Metronome,43,9999,9999,9999,2740292656
36,23,13,Improv_Metronome,44,9999,9999,9999,2740792428
36,23,13,Improv_Metronome,45,9999,9999,9999,2741292120
36,23,13,Improv_Metronome,46,9999,9999,9999,2741792864
36,23,13,Improv_Metronome,47,9999,9999,9999,2742292556
36,23,13,Improv_Metronome,48,9999,9999,9999,2742792252
36,23,13,Improv_Metronome,49,9999,9999,9999,2743292992
36,23,13,Improv_Metronome,50,9999,9999,9999,2743792704
36,23,13,Improv_Metronome,51,9999,9999,9999,2744292460
36,23,13,Improv_Metronome,52,9999,9999,9999,2744792156
36,23,13,Improv_Metronome,53,9999,9999,9999,2745292896
36,23,13,Improv_Metronome,54,9999,9999,9999,2745792592
36,23,13,Improv_Metronome,55,9999,9999,9999,2746292284
36,23,13,Improv_Metronome,56,9999,9999,9999,2746793028
36,23,13,Improv_Metronome,57,9999,9999,9999,2747292796
36,23,13,Improv_Metronome,58,9999,9999,9999,2747792464
36,23,13,Improv_Metronome,59,9999,9999,9999,2748292160
36,23,13,Improv_Metronome,60,9999,9999,9999,2748792900
36,23,13,Improv_Metronome,61,9999,9999,9999,2749292596
36,23,13,Improv_Metronome,62,9999,9999,9999,2749792364
36,23,13,Improv_Metronome,63,9999,9999,9999,2750293104
36,23,13,Improv_Metronome,64,9999,9999,9999,2750792800
36,23,13,Improv_Metronome,65,9999,9999,9999,2751292492
36,23,13,Improv_Metronome,66,9999,9999,9999,2751792244
36,23,13,Improv_Metronome,67,9999,9999,9999,2752292984
36,23,13,Improv_Metronome,68,9999,9999,9999,2752792680
36,23,13,Improv_Metronome,69,9999,9999,9999,2753292372
36,23,13,Improv_Metronome,70,9999,9999,9999,2753792068
36,23,13,Improv_Metronome,71,9999,9999,9999,2754292808
36,23,13,Improv_Metronome,72,9999,9999,9999,2754792504
36,23,13,Improv_Metronome,73,9999,9999,9999,2755292272
36,23,13,Improv_Metronome,74,9999,9999,9999,2755793016
36,23,13,Improv_Metronome,75,9999,9999,9999,2756292708
36,23,13,Improv_Metronome,76,9999,9999,9999,2756792404
36,23,13,Improv_Metronome,77,9999,9999,9999,2757292092
36,23,13,Improv_Metronome,78,9999,9999,9999,2757792820
36,23,13,Improv_Metronome,79,9999,9999,9999,2758292588
36,23,13,Improv_Metronome,80,9999,9999,9999,2758792260
36,23,13,Improv_Metronome,81,9999,9999,9999,2759292996
36,23,13,Improv_Metronome,82,9999,9999,9999,2759792692
36,23,13,Improv_Metronome,83,9999,9999,9999,2760292444
36,23,13,Improv_Metronome,84,9999,9999,9999,2760792140
36,23,13,Improv_Metronome,85,9999,9999,9999,2761292880
36,23,13,Improv_Metronome,86,9999,9999,9999,2761792576
36,23,13,Improv_Metronome,87,9999,9999,9999,2762292336
36,23,13,Improv_Metronome,88,9999,9999,9999,2762793080
36,23,13,Improv_Metronome,89,9999,9999,9999,2763292772
36,23,13,Improv_Metronome,90,9999,9999,9999,2763792468
36,23,13,Improv_Metronome,91,9999,9999,9999,2764292164
36,23,13,Improv_Metronome,92,9999,9999,9999,2764792904
36,23,13,Improv_Metronome,93,9999,9999,9999,2765292600
36,23,13,Improv_Metronome,94,9999,9999,9999,2765792368
36,23,13,Improv_Metronome,95,9999,9999,9999,2766293096
36,23,13,Improv_Metronome,96,9999,9999,9999,2766792804
36,23,13,Improv_Metronome,97,9999,9999,9999,2767292480
36,23,13,Improv_Metronome,98,9999,9999,9999,2767792252
36,23,13,Improv_Metronome,99,9999,9999,9999,2768292920
36,23,13,Improv_Metronome,100,9999,9999,9999,2768792688
36,23,13,Improv_Metronome,101,9999,9999,9999,2769292360
36,23,13,Improv_Metronome,102,9999,9999,9999,2769792056
36,23,13,Improv_Metronome,103,9999,9999,9999,2770292796
36,23,13,Improv_Metronome,104,9999,9999,9999,2770792564
36,23,13,Improv_Metronome,105,9999,9999,9999,2771292252
36,23,13,Improv_Metronome,106,9999,9999,9999,2771792980
36,23,13,Improv_Metronome,107,9999,9999,9999,2772292676
36,23,13,Improv_Metronome,108,9999,9999,9999,2772792368
36,23,13,Improv_Metronome,109,9999,9999,9999,2773292132
36,23,13,Improv_Metronome,110,9999,9999,9999,2773792876
36,23,13,Improv_Metronome,111,9999,9999,9999,2774292556
36,23,13,Improv_Metronome,112,9999,9999,9999,2774792248
36,23,13,Improv_Metronome,113,9999,9999,9999,2775293040
36,23,13,Improv_Metronome,114,9999,9999,9999,2775792752
36,23,13,Improv_Metronome,115,9999,9999,9999,2776292432
36,23,13,Improv_Metronome,116,9999,9999,9999,2776792128
36,23,13,Improv_Metronome,117,9999,9999,9999,2777292868
36,23,13,Improv_Metronome,118,9999,9999,9999,2777792564
36,23,13,Improv_Metronome,119,9999,9999,9999,2778292332
36,23,13,Improv_Metronome,120,9999,9999,9999,2778793076
36,23,13,Improv_Metronome,121,9999,9999,9999,2779292760
36,23,13,Improv_Metronome,122,9999,9999,9999,2779792508
36,23,13,Improv_Metronome,123,9999,9999,9999,2780292204
36,23,13,Improv_Metronome,124,9999,9999,9999,2780792944
36,23,13,Improv_Metronome,125,9999,9999,9999,2781292640
36,23,13,Improv_Metronome,126,9999,9999,9999,2781792320
36,23,13,Improv_Metronome,127,9999,9999,9999,2782293060
36,23,13,Improv_Metronome,128,9999,9999,9999,2782792756
36,23,13,Improv_Metronome,129,9999,9999,9999,2783292524
36,23,13,Improv_Metronome,130,9999,9999,9999,2783792216
36,23,13,Improv_Metronome,131,9999,9999,9999,2784292944
36,23,13,Improv_Metronome,132,9999,9999,9999,2784792652
36,23,13,Improv_Metronome,133,9999,9999,9999,2785292348
36,23,13,Improv_Metronome,134,9999,9999,9999,2785792104
36,23,13,Improv_Metronome,135,9999,9999,9999,2786292844
36,23,13,Improv_Metronome,136,9999,9999,9999,2786792540
36,23,13,Improv_Metronome,137,9999,9999,9999,2787292212
36,23,13,Improv_Metronome,138,9999,9999,9999,2787793004
36,23,13,Improv_Metronome,139,9999,9999,9999,2788292700
36,24,14,Improv_Melody,0,2,48,80,2846278044
36,24,14,Improv_Melody,1,2,72,80,2846280564
36,24,14,Improv_Melody,2,5,42,127,2846282280
36,24,14,Improv_Melody,3,5,42,110,2846774524
36,24,14,Improv_Melody,4,5,42,110,2847275364
36,24,14,Improv_Melody,5,5,42,110,2847775160
36,24,14,Improv_Melody,6,5,42,127,2848274884
36,24,14,Improv_Melody,7,5,42,110,2848774680
36,24,14,Improv_Melody,8,5,42,110,2849275224
36,24,14,Improv_Melody,9,5,42,110,2849775020
36,24,14,Improv_Melody,10,2,43,80,2850277248
36,24,14,Improv_Melody,11,2,67,80,2850279700
36,24,14,Improv_Melody,12,5,42,127,2850282084
36,24,14,Improv_Melody,13,1,48,36,2850719528
36,24,14,Improv_Melody,14,5,42,110,2850775372
36,24,14,Improv_Melody,15,1,38,55,2851215568
36,24,14,Improv_Melody,16,5,42,110,2851275068
36,24,14,Improv_Melody,17,1,48,43,2851746084
36,24,14,Improv_Melody,18,5,42,110,2851774992
36,24,14,Improv_Melody,19,1,48,49,2852221076
36,24,14,Improv_Melody,20,5,42,127,2852274468
36,24,14,Improv_Melody,21,1,38,49,2852682856
36,24,14,Improv_Melody,22,5,42,110,2852776024
36,24,14,Improv_Melody,23,1,38,46,2853165276
36,24,14,Improv_Melody,24,5,42,110,2853274904
36,24,14,Improv_Melody,25,1,48,42,2853667664
36,24,14,Improv_Melody,26,5,42,110,2853774752
36,24,14,Improv_Melody,27,1,48,42,2854191824
36,24,14,Improv_Melody,28,2,45,80,2854277024
36,24,14,Improv_Melody,29,2,69,80,2854279096
36,24,14,Improv_Melody,30,5,42,127,2854282008
36,24,14,Improv_Melody,31,1,38,45,2854669976
36,24,14,Improv_Melody,32,5,42,110,2854775240
36,24,14,Improv_Melody,33,1,48,39,2855170796
36,24,14,Improv_Melody,34,5,42,110,2855274792
36,24,14,Improv_Melody,35,1,38,42,2855658980
36,24,14,Improv_Melody,36,5,42,110,2855774564
36,24,14,Improv_Melody,37,1,38,41,2856177008
36,24,14,Improv_Melody,38,5,42,127,2856275164
36,24,14,Improv_Melody,39,1,48,51,2856688676
36,24,14,Improv_Melody,40,5,42,110,2856775028
36,24,14,Improv_Melody,41,1,48,45,2857233176
36,24,14,Improv_Melody,42,5,42,110,2857274804
36,24,14,Improv_Melody,43,1,38,52,2857715072
36,24,14,Improv_Melody,44,5,42,110,2857774728
36,24,14,Improv_Melody,45,1,38,41,2858235492
36,24,14,Improv_Melody,46,2,41,80,2858277912
36,24,14,Improv_Melody,47,2,65,80,2858280208
36,24,14,Improv_Melody,48,5,42,127,2858282592
36,24,14,Improv_Melody,49,5,42,110,2858774968
36,24,14,Improv_Melody,50,1,48,45,2858779584
36,24,14,Improv_Melody,51,1,48,47,2859235204
36,24,14,Improv_Melody,52,5,42,110,2859274664
36,24,14,Improv_Melody,53,1,38,45,2859725184
36,24,14,Improv_Melody,54,5,42,110,2859775632
36,24,14,Improv_Melody,55,1,38,52,2860224956
36,24,14,Improv_Melody,56,5,42,127,2860275036
36,24,14,Improv_Melody,57,1,48,47,2860714856
36,24,14,Improv_Melody,58,5,42,110,2860774736
36,24,14,Improv_Melody,59,1,38,51,2860904320
36,24,14,Improv_Melody,60,5,42,110,2861274644
36,24,14,Improv_Melody,61,1,48,46,2861423468
36,24,14,Improv_Melody,62,5,42,110,2861775316
36,24,14,Improv_Melody,63,1,48,36,2861854808
36,24,14,Improv_Melody,64,1,38,54,2862197456
36,24,14,Improv_Melody,65,2,48,80,2862277668
36,24,14,Improv_Melody,66,2,72,80,2862279588
36,24,14,Improv_Melody,67,5,42,127,2862282352
36,24,14,Improv_Melody,68,1,48,42,2862607712
36,24,14,Improv_Melody,69,5,42,110,2862774784
36,24,14,Improv_Melody,70,1,38,53,2863275552
36,24,14,Improv_Melody,71,5,42,110,2863278168
36,24,14,Improv_Melody,72,1,48,39,2863428996
36,24,14,Improv_Melody,73,5,42,110,2863775228
36,24,14,Improv_Melody,74,1,38,44,2863980376
36,24,14,Improv_Melody,75,5,42,127,2864274704
36,24,14,Improv_Melody,76,1,48,52,2864396976
36,24,14,Improv_Melody,77,5,42,110,2864774528
36,24,14,Improv_Melody,78,1,38,48,2864834744
36,24,14,Improv_Melody,79,1,48,50,2864957240
36,24,14,Improv_Melody,80,5,42,110,2865275252
36,24,14,Improv_Melody,81,1,38,33,2865390292
36,24,14,Improv_Melody,82,5,42,110,2865775176
36,24,14,Improv_Melody,83,1,38,40,2865862392
36,24,14,Improv_Melody,84,1,48,56,2866256356
36,24,14,Improv_Melody,85,2,43,80,2866277148
36,24,14,Improv_Melody,86,2,67,80,2866279152
36,24,14,Improv_Melody,87,5,42,127,2866281692
36,24,14,Improv_Melody,88,1,38,57,2866398588
36,24,14,Improv_Melody,89,5,42,110,2866775540
36,24,14,Improv_Melody,90,1,48,50,2866895592
36,24,14,Improv_Melody,91,5,42,110,2867275164
36,24,14,Improv_Melody,92,1,48,40,2867424764
36,24,14,Improv_Melody,93,5,42,110,2867774792
36,24,14,Improv_Melody,94,1,38,67,2867776352
36,24,14,Improv_Melody,95,1,48,43,2867950320
36,24,14,Improv_Melody,96,5,42,127,2868274544
36,24,14,Improv_Melody,97,1,48,56,2868474628
36,24,14,Improv_Melody,98,5,42,110,2868775216
36,24,14,Improv_Melody,99,1,48,35,2868884648
36,24,14,Improv_Melody,100,1,38,57,2869275584
36,24,14,Improv_Melody,101,5,42,110,2869277752
36,24,14,Improv_Melody,102,1,48,43,2869389488
36,24,14,Improv_Melody,103,5,42,110,2869774668
36,24,14,Improv_Melody,104,1,48,50,2869905340
36,24,14,Improv_Melody,105,2,45,80,2870276952
36,24,14,Improv_Melody,106,2,69,80,2870279024
36,24,14,Improv_Melody,107,5,42,127,2870281488
36,24,14,Improv_Melody,108,1,48,42,2870317744
36,24,14,Improv_Melody,109,1,38,72,2870611920
36,24,14,Improv_Melody,110,1,48,53,2870769080
36,24,14,Improv_Melody,111,5,42,110,2870775024
36,24,14,Improv_Melody,112,1,48,43,2871271168
36,24,14,Improv_Melody,113,5,42,110,2871275096
36,24,14,Improv_Melody,114,1,48,38,2871747160
36,24,14,Improv_Melody,115,5,42,110,2871774500
36,24,14,Improv_Melody,116,5,42,127,2872275180
36,24,14,Improv_Melody,117,1,48,67,2872291836
36,24,14,Improv_Melody,118,5,42,110,2872775176
36,24,14,Improv_Melody,119,1,48,47,2872782560
36,24,14,Improv_Melody,120,1,38,51,2873268024
36,24,14,Improv_Melody,121,5,42,110,2873274944
36,24,14,Improv_Melody,122,1,48,52,2873771912
36,24,14,Improv_Melody,123,5,42,110,2873774424
36,24,14,Improv_Melody,124,1,38,54,2874262792
36,24,14,Improv_Melody,125,2,41,80,2874277824
36,24,14,Improv_Melody,126,2,65,80,2874279980
36,24,14,Improv_Melody,127,5,42,127,2874282512
36,24,14,Improv_Melody,128,1,48,68,2874729116
36,24,14,Improv_Melody,129,5,42,110,2874774956
36,24,14,Improv_Melody,130,1,38,40,2874941944
36,24,14,Improv_Melody,131,5,42,110,2875274568
36,24,14,Improv_Melody,132,1,48,43,2875462136
36,24,14,Improv_Melody,133,5,42,110,2875775288
36,24,14,Improv_Melody,134,1,48,35,2875944556
36,24,14,Improv_Melody,135,5,42,127,2876274988
36,24,14,Improv_Melody,136,1,48,48,2876403416
36,24,14,Improv_Melody,137,5,42,110,2876774912
36,24,14,Improv_Melody,138,1,38,40,2876833108
36,24,14,Improv_Melody,139,5,42,110,2877274388
36,24,14,Improv_Melody,140,1,48,32,2877336544
36,24,14,Improv_Melody,141,1,38,25,2877768736
36,24,14,Improv_Melody,142,5,42,110,2877775204
36,24,14,Improv_Melody,143,2,48,80,2878277492
36,24,14,Improv_Melody,144,2,72,80,2878279640
36,24,14,Improv_Melody,145,5,42,127,2878282252
36,24,14,Improv_Melody,146,1,48,47,2878284696
36,24,14,Improv_Melody,147,1,48,56,2878759244
36,24,14,Improv_Melody,148,5,42,110,2878774912
36,24,14,Improv_Melody,149,1,38,57,2878856104
36,24,14,Improv_Melody,150,5,42,110,2879275420
36,24,14,Improv_Melody,151,1,48,50,2879386652
36,24,14,Improv_Melody,152,5,42,110,2879774972
36,24,14,Improv_Melody,153,1,48,48,2879833888
36,24,14,Improv_Melody,154,1,38,47,2880188012
36,24,14,Improv_Melody,155,5,42,127,2880274888
36,24,14,Improv_Melody,156,1,38,50,2880730568
36,24,14,Improv_Melody,157,5,42,110,2880774588
36,24,14,Improv_Melody,158,1,38,47,2881188084
36,24,14,Improv_Melody,159,5,42,110,2881275184
36,24,14,Improv_Melody,160,1,38,47,2881754352
36,24,14,Improv_Melody,161,5,42,110,2881774884
36,24,14,Improv_Melody,162,1,48,44,2882229668
36,24,14,Improv_Melody,163,2,43,80,2882277160
36,24,14,Improv_Melody,164,2,67,80,2882279316
36,24,14,Improv_Melody,165,5,42,127,2882281928
36,24,14,Improv_Melody,166,1,48,51,2882754740
36,24,14,Improv_Melody,167,5,42,110,2882775496
36,24,14,Improv_Melody,168,1,38,40,2883219656
36,24,14,Improv_Melody,169,5,42,110,2883275044
36,24,14,Improv_Melody,170,1,48,50,2883377928
36,24,14,Improv_Melody,171,5,42,110,2883774804
36,24,14,Improv_Melody,172,1,48,47,2883882416
36,24,14,Improv_Melody,173,5,42,127,2884274432
36,24,14,Improv_Melody,174,1,48,43,2884372620
36,24,14,Improv_Melody,175,5,42,110,2884775472
36,24,14,Improv_Melody,176,1,48,45,2884791980
36,24,14,Improv_Melody,177,1,38,45,2885247580
36,24,14,Improv_Melody,178,5,42,110,2885274944
36,24,14,Improv_Melody,179,1,48,38,2885773372
36,24,14,Improv_Melody,180,5,42,110,2885775164
36,24,14,Improv_Melody,181,1,48,41,2886222740
36,24,14,Improv_Melody,182,2,45,80,2886276820
36,24,14,Improv_Melody,183,2,69,80,2886279276
36,24,14,Improv_Melody,184,5,42,127,2886281760
36,24,14,Improv_Melody,185,5,42,110,2886775380
36,24,14,Improv_Melody,186,1,48,41,2886783068
36,24,14,Improv_Melody,187,1,38,58,2887172192
36,24,14,Improv_Melody,188,1,48,47,2887269632
36,24,14,Improv_Melody,189,5,42,110,2887274816
36,24,14,Improv_Melody,190,5,42,110,2887774672
36,24,14,Improv_Melody,191,1,48,39,2887874380
36,24,14,Improv_Melody,192,5,42,127,2888275496
36,24,14,Improv_Melody,193,1,48,32,2888311152
36,24,14,Improv_Melody,194,1,48,41,2888753908
36,24,14,Improv_Melody,195,5,42,110,2888774892
36,24,14,Improv_Melody,196,1,38,47,2889227356
36,24,14,Improv_Melody,197,5,42,110,2889274592
36,24,14,Improv_Melody,198,1,48,55,2889771484
36,24,14,Improv_Melody,199,5,42,110,2889774516
36,24,14,Improv_Melody,200,1,38,39,2890228548
36,24,14,Improv_Melody,201,2,41,80,2890277924
36,24,14,Improv_Melody,202,2,65,80,2890279916
36,24,14,Improv_Melody,203,5,42,127,2890282532
36,24,14,Improv_Melody,204,1,48,59,2890656236
36,24,14,Improv_Melody,205,5,42,110,2890774812
36,24,14,Improv_Melody,206,1,38,51,2890843232
36,24,14,Improv_Melody,207,5,42,110,2891274584
36,24,14,Improv_Melody,208,1,48,50,2891356992
36,24,14,Improv_Melody,209,5,42,110,2891775332
36,24,14,Improv_Melody,210,1,48,32,2891884064
36,24,14,Improv_Melody,211,1,38,55,2892225696
36,24,14,Improv_Melody,212,5,42,127,2892275172
36,24,14,Improv_Melody,213,5,42,110,2892774656
36,24,14,Improv_Melody,214,1,38,43,2892776292
36,24,14,Improv_Melody,215,1,38,46,2893253068
36,24,14,Improv_Melody,216,5,42,110,2893274500
36,24,14,Improv_Melody,217,1,48,48,2893732200
36,24,14,Improv_Melody,218,5,42,110,2893775172
36,24,14,Improv_Melody,219,1,48,57,2894255164
36,24,14,Improv_Melody,220,2,48,80,2894277528
36,24,14,Improv_Melody,221,2,72,80,2894279904
36,24,14,Improv_Melody,222,5,42,127,2894282288
36,24,14,Improv_Melody,223,1,38,46,2894721640
36,24,14,Improv_Melody,224,5,42,110,2894774584
36,24,14,Improv_Melody,225,1,48,59,2895233680
36,24,14,Improv_Melody,226,5,42,110,2895275332
36,24,14,Improv_Melody,227,1,38,48,2895288552
36,24,14,Improv_Melody,228,5,42,110,2895775080
36,24,14,Improv_Melody,229,1,48,55,2895867060
36,24,14,Improv_Melody,230,5,42,127,2896274928
36,24,14,Improv_Melody,231,1,38,60,2896301832
36,24,14,Improv_Melody,232,5,42,110,2896774528
36,24,14,Improv_Melody,233,1,38,44,2896813772
36,24,14,Improv_Melody,234,1,38,51,2897271840
36,24,14,Improv_Melody,235,5,42,110,2897275392
36,24,14,Improv_Melody,236,5,42,110,2897775100
36,24,14,Improv_Melody,237,1,38,55,2897838456
36,24,14,Improv_Melody,238,2,43,80,2898277152
36,24,14,Improv_Melody,239,2,67,80,2898279304
36,24,14,Improv_Melody,240,1,48,35,2898280420
36,24,14,Improv_Melody,241,5,42,127,2898283332
36,24,14,Improv_Melody,242,5,42,110,2898775264
36,24,14,Improv_Melody,243,1,48,57,2898791844
36,24,14,Improv_Melody,244,1,38,55,2899248288
36,24,14,Improv_Melody,245,5,42,110,2899275028
36,24,14,Improv_Melody,246,1,48,61,2899326168
36,24,14,Improv_Melody,247,5,42,110,2899774852
36,24,14,Improv_Melody,248,1,48,46,2899832948
36,24,14,Improv_Melody,249,1,48,19,2900245032
36,24,14,Improv_Melody,250,5,42,127,2900274396
36,24,14,Improv_Melody,251,1,48,46,2900768220
36,24,14,Improv_Melody,252,5,42,110,2900775288
36,24,14,Improv_Melody,253,1,48,46,2901228200
36,24,14,Improv_Melody,254,5,42,110,2901274988
36,24,14,Improv_Melody,255,1,38,49,2901717876
36,24,14,Improv_Melody,256,5,42,110,2901774984
36,24,14,Improv_Melody,257,1,38,38,2902209876
36,24,14,Improv_Melody,258,2,45,80,2902276968
36,24,14,Improv_Melody,259,2,69,80,2902279272
36,24,14,Improv_Melody,260,5,42,127,2902281880
36,24,14,Improv_Melody,261,1,48,50,2902686928
36,24,14,Improv_Melody,262,5,42,110,2902775148
36,24,14,Improv_Melody,263,1,38,62,2902854096
36,24,14,Improv_Melody,264,5,42,110,2903275056
36,24,14,Improv_Melody,265,1,48,59,2903337268
36,24,14,Improv_Melody,266,5,42,110,2903774980
36,24,14,Improv_Melody,267,1,48,53,2903822532
36,24,14,Improv_Melody,268,5,42,127,2904275280
36,24,14,Improv_Melody,269,1,48,44,2904292984
36,24,14,Improv_Melody,270,1,38,54,2904687624
36,24,14,Improv_Melody,271,5,42,110,2904774972
36,24,14,Improv_Melody,272,1,38,45,2905193756
36,24,14,Improv_Melody,273,5,42,110,2905274748
36,24,14,Improv_Melody,274,1,38,47,2905652760
36,24,14,Improv_Melody,275,5,42,110,2905774580
36,24,14,Improv_Melody,276,1,48,51,2906157552
36,24,14,Improv_Melody,277,2,41,80,2906277916
36,24,14,Improv_Melody,278,2,65,80,2906279836
36,24,14,Improv_Melody,279,5,42,127,2906282300
36,24,14,Improv_Melody,280,1,48,45,2906662720
36,24,14,Improv_Melody,281,5,42,110,2906774820
36,24,14,Improv_Melody,282,1,38,62,2906928136
36,24,14,Improv_Melody,283,5,42,110,2907274668
36,24,14,Improv_Melody,284,1,48,47,2907579320
36,24,14,Improv_Melody,285,5,42,110,2907775464
36,24,14,Improv_Melody,286,1,48,54,2908163172
36,24,14,Improv_Melody,287,5,42,127,2908275016
36,24,14,Improv_Melody,288,1,48,50,2908666756
36,24,14,Improv_Melody,289,5,42,110,2908774640
36,24,14,Improv_Melody,290,1,38,46,2909167280
36,24,14,Improv_Melody,291,5,42,110,2909274412
36,24,14,Improv_Melody,292,1,38,51,2909691588
36,24,14,Improv_Melody,293,5,42,110,2909775176
36,24,14,Improv_Melody,294,1,38,49,2910180372
36,24,14,Improv_Melody,295,2,48,80,2910277608
36,24,14,Improv_Melody,296,2,72,80,2910279608
36,24,14,Improv_Melody,297,5,42,127,2910283104
36,24,14,Improv_Melody,298,1,48,70,2910672528
36,24,14,Improv_Melody,299,5,42,110,2910774504
36,24,14,Improv_Melody,300,1,38,48,2910804700
36,24,14,Improv_Melody,301,5,42,110,2911275400
36,24,14,Improv_Melody,302,1,48,59,2911283384
36,24,14,Improv_Melody,303,5,42,110,2911775176
36,24,14,Improv_Melody,304,1,48,49,2911779944
36,24,14,Improv_Melody,305,5,42,127,2912274800
36,24,14,Improv_Melody,306,1,48,51,2912284276
36,24,14,Improv_Melody,307,1,38,49,2912680804
36,24,14,Improv_Melody,308,5,42,110,2912774496
36,24,14,Improv_Melody,309,1,38,53,2913254184
36,24,14,Improv_Melody,310,5,42,110,2913275464
36,24,14,Improv_Melody,311,1,38,49,2913702272
36,24,14,Improv_Melody,312,5,42,110,2913774868
36,24,14,Improv_Melody,313,1,48,57,2913843348
36,24,14,Improv_Melody,314,1,38,56,2914145752
36,24,14,Improv_Melody,315,2,43,80,2914277104
36,24,14,Improv_Melody,316,2,67,80,2914279332
36,24,14,Improv_Melody,317,5,42,127,2914281872
36,24,14,Improv_Melody,318,5,42,110,2914775388
36,24,14,Improv_Melody,319,1,48,48,2914935352
36,24,14,Improv_Melody,320,5,42,110,2915275156
36,24,14,Improv_Melody,321,1,48,41,2915385468
36,24,14,Improv_Melody,322,5,42,110,2915774936
36,24,14,Improv_Melody,323,1,48,41,2915847020
36,24,14,Improv_Melody,324,1,38,45,2916264196
36,24,14,Improv_Melody,325,5,42,127,2916274632
36,24,14,Improv_Melody,326,5,42,110,2916775456
36,24,14,Improv_Melody,327,1,48,54,2916787852
36,24,14,Improv_Melody,328,1,48,52,2917239708
36,24,14,Improv_Melody,329,5,42,110,2917275152
36,24,14,Improv_Melody,330,1,48,45,2917751600
36,24,14,Improv_Melody,331,5,42,110,2917774628
36,24,14,Improv_Melody,332,1,38,47,2918164540
36,24,14,Improv_Melody,333,2,45,80,2918276716
36,24,14,Improv_Melody,334,2,69,80,2918279360
36,24,14,Improv_Melody,335,5,42,127,2918281820
36,24,14,Improv_Melody,336,1,38,52,2918675256
36,24,14,Improv_Melody,337,5,42,110,2918775136
36,24,14,Improv_Melody,338,1,38,48,2919189920
36,24,14,Improv_Melody,339,5,42,110,2919275148
36,24,14,Improv_Melody,340,1,48,55,2919292020
36,24,14,Improv_Melody,341,1,38,43,2919767240
36,24,14,Improv_Melody,342,5,42,110,2919774752
36,24,14,Improv_Melody,343,5,42,127,2920275284
36,24,14,Improv_Melody,344,1,38,17,2920316104
36,24,14,Improv_Melody,345,1,38,60,2920728940
36,24,14,Improv_Melody,346,5,42,110,2920775052
36,24,14,Improv_Melody,347,1,38,55,2921201788
36,24,14,Improv_Melody,348,5,42,110,2921274604
36,24,14,Improv_Melody,349,1,48,50,2921674856
36,24,14,Improv_Melody,350,5,42,110,2921774436
36,24,14,Improv_Melody,351,1,38,46,2922132068
36,24,14,Improv_Melody,352,2,41,80,2922277764
36,24,14,Improv_Melody,353,2,65,80,2922279992
36,24,14,Improv_Melody,354,5,42,127,2922282448
36,24,14,Improv_Melody,355,1,38,48,2922687736
36,24,14,Improv_Melody,356,5,42,110,2922775060
36,24,14,Improv_Melody,357,1,48,71,2923071548
36,24,14,Improv_Melody,358,1,38,66,2923164460
36,24,14,Improv_Melody,359,5,42,110,2923274488
36,24,14,Improv_Melody,360,1,48,56,2923663840
36,24,14,Improv_Melody,361,5,42,110,2923775236
36,24,14,Improv_Melody,362,1,48,52,2924159032
36,24,14,Improv_Melody,363,5,42,127,2924275012
36,24,14,Improv_Melody,364,1,38,46,2924581088
36,24,14,Improv_Melody,365,5,42,110,2924774860
36,24,14,Improv_Melody,366,1,48,46,2925157304
36,24,14,Improv_Melody,367,5,42,110,2925274560
36,24,14,Improv_Melody,368,1,48,46,2925672184
36,24,14,Improv_Melody,369,5,42,110,2925775156
36,24,14,Improv_Melody,370,1,48,46,2926167176
36,24,14,Improv_Melody,371,2,48,80,2926277440
36,24,14,Improv_Melody,372,2,72,80,2926279588
36,24,14,Improv_Melody,373,5,42,127,2926282124
36,24,14,Improv_Melody,374,1,38,55,2926564716
36,24,14,Improv_Melody,375,5,42,110,2926774720
36,24,14,Improv_Melody,376,1,48,62,2926957732
36,24,14,Improv_Melody,377,1,38,57,2927084064
36,24,14,Improv_Melody,0,9999,9999,9999,2846272616
36,24,14,Improv_Melody,1,9999,9999,9999,2846772304
36,24,14,Improv_Melody,2,9999,9999,9999,2847273072
36,24,14,Improv_Melody,3,9999,9999,9999,2847772796
36,24,14,Improv_Melody,4,9999,9999,9999,2848272440
36,24,14,Improv_Melody,5,9999,9999,9999,2848772164
36,24,14,Improv_Melody,6,9999,9999,9999,2849272932
36,24,14,Improv_Melody,7,9999,9999,9999,2849772656
36,24,14,Improv_Melody,8,9999,9999,9999,2850272376
36,24,14,Improv_Melody,9,9999,9999,9999,2850773076
36,24,14,Improv_Melody,10,9999,9999,9999,2851272776
36,24,14,Improv_Melody,11,9999,9999,9999,2851772476
36,24,14,Improv_Melody,12,9999,9999,9999,2852272176
36,24,14,Improv_Melody,13,9999,9999,9999,2852772924
36,24,14,Improv_Melody,14,9999,9999,9999,2853272684
36,24,14,Improv_Melody,15,9999,9999,9999,2853772384
36,24,14,Improv_Melody,16,9999,9999,9999,2854272076
36,24,14,Improv_Melody,17,9999,9999,9999,2854772800
36,24,14,Improv_Melody,18,9999,9999,9999,2855272496
36,24,14,Improv_Melody,19,9999,9999,9999,2855772272
36,24,14,Improv_Melody,20,9999,9999,9999,2856272948
36,24,14,Improv_Melody,21,9999,9999,9999,2856772664
36,24,14,Improv_Melody,22,9999,9999,9999,2857272436
36,24,14,Improv_Melody,23,9999,9999,9999,2857772136
36,24,14,Improv_Melody,24,9999,9999,9999,2858272884
36,24,14,Improv_Melody,25,9999,9999,9999,2858772604
36,24,14,Improv_Melody,26,9999,9999,9999,2859272296
36,24,14,Improv_Melody,27,9999,9999,9999,2859773044
36,24,14,Improv_Melody,28,9999,9999,9999,2860272744
36,24,14,Improv_Melody,29,9999,9999,9999,2860772444
36,24,14,Improv_Melody,30,9999,9999,9999,2861272128
36,24,14,Improv_Melody,31,9999,9999,9999,2861772876
36,24,14,Improv_Melody,32,9999,9999,9999,2862272568
36,24,14,Improv_Melody,33,9999,9999,9999,2862772344
36,24,14,Improv_Melody,34,9999,9999,9999,2863273036
36,24,14,Improv_Melody,35,9999,9999,9999,2863772788
36,24,14,Improv_Melody,36,9999,9999,9999,2864272488
36,24,14,Improv_Melody,37,9999,9999,9999,2864772164
36,24,14,Improv_Melody,38,9999,9999,9999,2865272888
36,24,14,Improv_Melody,39,9999,9999,9999,2865772664
36,24,14,Improv_Melody,40,9999,9999,9999,2866272356
36,24,14,Improv_Melody,41,9999,9999,9999,2866773100
36,24,14,Improv_Melody,42,9999,9999,9999,2867272800
36,24,14,Improv_Melody,43,9999,9999,9999,2867772500
36,24,14,Improv_Melody,44,9999,9999,9999,2868272176
36,24,14,Improv_Melody,45,9999,9999,9999,2868772924
36,24,14,Improv_Melody,46,9999,9999,9999,2869272696
36,24,14,Improv_Melody,47,9999,9999,9999,2869772376
36,24,14,Improv_Melody,48,9999,9999,9999,2870272076
36,24,14,Improv_Melody,49,9999,9999,9999,2870772808
36,24,14,Improv_Melody,50,9999,9999,9999,2871272508
36,24,14,Improv_Melody,51,9999,9999,9999,2871772284
36,24,14,Improv_Melody,52,9999,9999,9999,2872272960
36,24,14,Improv_Melody,53,9999,9999,9999,2872772660
36,24,14,Improv_Melody,54,9999,9999,9999,2873272432
36,24,14,Improv_Melody,55,9999,9999,9999,2873772132
36,24,14,Improv_Melody,56,9999,9999,9999,2874272876
36,24,14,Improv_Melody,57,9999,9999,9999,2874772592
36,24,14,Improv_Melody,58,9999,9999,9999,2875272252
36,24,14,Improv_Melody,59,9999,9999,9999,2875772996
36,24,14,Improv_Melody,60,9999,9999,9999,2876272696
36,24,14,Improv_Melody,61,9999,9999,9999,2876772472
36,24,14,Improv_Melody,62,9999,9999,9999,2877272172
36,24,14,Improv_Melody,63,9999,9999,9999,2877772912
36,24,14,Improv_Melody,64,9999,9999,9999,2878272616
36,24,14,Improv_Melody,65,9999,9999,9999,2878772324
36,24,14,Improv_Melody,66,9999,9999,9999,2879273056
36,24,14,Improv_Melody,67,9999,9999,9999,2879772756
36,24,14,Improv_Melody,68,9999,9999,9999,2880272448
36,24,14,Improv_Melody,69,9999,9999,9999,2880772148
36,24,14,Improv_Melody,70,9999,9999,9999,2881272896
36,24,14,Improv_Melody,71,9999,9999,9999,2881772596
36,24,14,Improv_Melody,72,9999,9999,9999,2882272368
36,24,14,Improv_Melody,73,9999,9999,9999,2882773056
36,24,14,Improv_Melody,74,9999,9999,9999,2883272752
36,24,14,Improv_Melody,75,9999,9999,9999,2883772512
36,24,14,Improv_Melody,76,9999,9999,9999,2884272212
36,24,14,Improv_Melody,77,9999,9999,9999,2884772960
36,24,14,Improv_Melody,78,9999,9999,9999,2885272652
36,24,14,Improv_Melody,79,9999,9999,9999,2885772360
36,24,14,Improv_Melody,80,9999,9999,9999,2886272100
36,24,14,Improv_Melody,81,9999,9999,9999,2886772792
36,24,14,Improv_Melody,82,9999,9999,9999,2887272524
36,24,14,Improv_Melody,83,9999,9999,9999,2887772232
36,24,14,Improv_Melody,84,9999,9999,9999,2888272980
36,24,14,Improv_Melody,85,9999,9999,9999,2888772672
36,24,14,Improv_Melody,86,9999,9999,9999,2889272372
36,24,14,Improv_Melody,87,9999,9999,9999,2889772148
36,24,14,Improv_Melody,88,9999,9999,9999,2890272820
36,24,14,Improv_Melody,89,9999,9999,9999,2890772596
36,24,14,Improv_Melody,90,9999,9999,9999,2891272292
36,24,14,Improv_Melody,91,9999,9999,9999,2891773040
36,24,14,Improv_Melody,92,9999,9999,9999,2892272732
36,24,14,Improv_Melody,93,9999,9999,9999,2892772440
36,24,14,Improv_Melody,94,9999,9999,9999,2893272132
36,24,14,Improv_Melody,95,9999,9999,9999,2893772884
36,24,14,Improv_Melody,96,9999,9999,9999,2894272580
36,24,14,Improv_Melody,97,9999,9999,9999,2894772296
36,24,14,Improv_Melody,98,9999,9999,9999,2895273040
36,24,14,Improv_Melody,99,9999,9999,9999,2895772788
36,24,14,Improv_Melody,100,9999,9999,9999,2896272488
36,24,14,Improv_Melody,101,9999,9999,9999,2896772160
36,24,14,Improv_Melody,102,9999,9999,9999,2897272952
36,24,14,Improv_Melody,103,9999,9999,9999,2897772656
36,24,14,Improv_Melody,104,9999,9999,9999,2898272356
36,24,14,Improv_Melody,105,9999,9999,9999,2898773044
36,24,14,Improv_Melody,106,9999,9999,9999,2899272812
36,24,14,Improv_Melody,107,9999,9999,9999,2899772484
36,24,14,Improv_Melody,108,9999,9999,9999,2900272176
36,24,14,Improv_Melody,109,9999,9999,9999,2900772924
36,24,14,Improv_Melody,110,9999,9999,9999,2901272696
36,24,14,Improv_Melody,111,9999,9999,9999,2901772396
36,24,14,Improv_Melody,112,9999,9999,9999,2902272096
36,24,14,Improv_Melody,113,9999,9999,9999,2902772856
36,24,14,Improv_Melody,114,9999,9999,9999,2903272540
36,24,14,Improv_Melody,115,9999,9999,9999,2903772240
36,24,14,Improv_Melody,116,9999,9999,9999,2904272988
36,24,14,Improv_Melody,117,9999,9999,9999,2904772680
36,24,14,Improv_Melody,118,9999,9999,9999,2905272384
36,24,14,Improv_Melody,119,9999,9999,9999,2905772140
36,24,14,Improv_Melody,120,9999,9999,9999,2906272888
36,24,14,Improv_Melody,121,9999,9999,9999,2906772604
36,24,14,Improv_Melody,122,9999,9999,9999,2907272300
36,24,14,Improv_Melody,123,9999,9999,9999,2907773024
36,24,14,Improv_Melody,124,9999,9999,9999,2908272724
36,24,14,Improv_Melody,125,9999,9999,9999,2908772420
36,24,14,Improv_Melody,126,9999,9999,9999,2909272120
36,24,14,Improv_Melody,127,9999,9999,9999,2909772884
36,24,14,Improv_Melody,128,9999,9999,9999,2910272584
36,24,14,Improv_Melody,129,9999,9999,9999,2910772288
36,24,14,Improv_Melody,130,9999,9999,9999,2911273032
36,24,14,Improv_Melody,131,9999,9999,9999,2911772736
36,24,14,Improv_Melody,132,9999,9999,9999,2912272436
36,24,14,Improv_Melody,133,9999,9999,9999,2912772204
36,24,14,Improv_Melody,134,9999,9999,9999,2913272952
36,24,14,Improv_Melody,135,9999,9999,9999,2913772652
36,24,14,Improv_Melody,136,9999,9999,9999,2914272312
36,24,14,Improv_Melody,137,9999,9999,9999,2914773092
36,24,14,Improv_Melody,138,9999,9999,9999,2915272792
36,24,14,Improv_Melody,139,9999,9999,9999,2915772496
36,24,14,Improv_Melody,140,9999,9999,9999,2916272192
36,24,14,Improv_Melody,141,9999,9999,9999,2916772944
36,24,14,Improv_Melody,142,9999,9999,9999,2917272636
36,24,14,Improv_Melody,143,9999,9999,9999,2917772336
36,24,14,Improv_Melody,144,9999,9999,9999,2918272072
36,24,14,Improv_Melody,145,9999,9999,9999,2918772844
36,24,14,Improv_Melody,146,9999,9999,9999,2919272560
36,24,14,Improv_Melody,147,9999,9999,9999,2919772240
36,24,14,Improv_Melody,148,9999,9999,9999,2920272992
36,24,14,Improv_Melody,149,9999,9999,9999,2920772684
36,24,14,Improv_Melody,150,9999,9999,9999,2921272384
36,24,14,Improv_Melody,151,9999,9999,9999,2921772144
36,24,14,Improv_Melody,152,9999,9999,9999,2922272888
36,24,14,Improv_Melody,153,9999,9999,9999,2922772548
36,24,14,Improv_Melody,154,9999,9999,9999,2923272272
36,24,14,Improv_Melody,155,9999,9999,9999,2923773020
36,24,14,Improv_Melody,156,9999,9999,9999,2924272720
36,24,14,Improv_Melody,157,9999,9999,9999,2924772420
36,24,14,Improv_Melody,158,9999,9999,9999,2925272120
36,24,14,Improv_Melody,159,9999,9999,9999,2925772868
36,24,14,Improv_Melody,160,9999,9999,9999,2926272564
36,24,14,Improv_Melody,161,9999,9999,9999,2926772280
