pid,taskRunCount,taskID,taskName,i,channel,pitch,velocity,microseconds
33,1,1,Ticks_Pract_5,0,5,42,127,393854444
33,1,1,Ticks_Pract_5,1,5,42,127,394354012
33,1,1,Ticks_Pract_5,2,5,42,127,394853728
33,1,1,Ticks_Pract_5,3,5,42,127,395353592
33,1,1,Ticks_Pract_5,4,1,48,33,395811656
33,1,1,Ticks_Pract_5,5,5,42,127,395854272
33,1,1,Ticks_Pract_5,6,1,48,26,396322644
33,1,1,Ticks_Pract_5,7,5,42,127,396353968
33,1,1,Ticks_Pract_5,8,1,48,16,396805732
33,1,1,Ticks_Pract_5,9,5,42,127,396853736
33,1,1,Ticks_Pract_5,10,5,42,127,397354484
33,1,1,Ticks_Pract_5,11,1,48,33,397357088
33,1,1,Ticks_Pract_5,12,5,42,127,397854080
33,1,1,Ticks_Pract_5,13,1,48,46,397858768
33,1,1,Ticks_Pract_5,14,5,42,127,398353772
33,1,1,Ticks_Pract_5,15,1,48,47,398374544
33,1,1,Ticks_Pract_5,16,5,42,127,398853396
33,1,1,Ticks_Pract_5,17,1,48,51,398854804
33,1,1,Ticks_Pract_5,18,1,48,44,399340560
33,1,1,Ticks_Pract_5,19,5,42,127,399354204
33,1,1,Ticks_Pract_5,20,1,48,33,399851020
33,1,1,Ticks_Pract_5,21,5,42,127,399853896
33,1,1,Ticks_Pract_5,22,1,48,42,400336504
33,1,1,Ticks_Pract_5,23,5,42,127,400353592
33,1,1,Ticks_Pract_5,24,1,48,40,400826852
33,1,1,Ticks_Pract_5,25,5,42,127,400854480
33,1,1,Ticks_Pract_5,26,1,48,39,401320632
33,1,1,Ticks_Pract_5,27,5,42,127,401354472
33,1,1,Ticks_Pract_5,28,1,48,45,401805668
33,1,1,Ticks_Pract_5,29,5,42,127,401853868
33,1,1,Ticks_Pract_5,30,1,48,39,402334756
33,1,1,Ticks_Pract_5,31,5,42,127,402353488
33,1,1,Ticks_Pract_5,32,1,48,38,402839764
33,1,1,Ticks_Pract_5,33,5,42,127,402854380
33,1,1,Ticks_Pract_5,34,1,48,38,403323892
33,1,1,Ticks_Pract_5,35,5,42,127,403353924
33,1,1,Ticks_Pract_5,36,1,48,37,403796364
33,1,1,Ticks_Pract_5,37,5,42,127,403853696
33,1,1,Ticks_Pract_5,38,1,48,35,404315132
33,1,1,Ticks_Pract_5,39,5,42,127,404354436
33,1,1,Ticks_Pract_5,40,1,48,32,404803384
33,1,1,Ticks_Pract_5,41,5,42,127,404854280
33,1,1,Ticks_Pract_5,42,1,48,38,405325292
33,1,1,Ticks_Pract_5,43,5,42,127,405353824
33,1,1,Ticks_Pract_5,44,1,48,32,405853452
33,1,1,Ticks_Pract_5,45,5,42,127,405855160
33,1,1,Ticks_Pract_5,46,1,48,36,406348764
33,1,1,Ticks_Pract_5,47,5,42,127,406354408
33,1,1,Ticks_Pract_5,48,5,42,127,406854112
33,1,1,Ticks_Pract_5,49,1,48,31,406871516
33,1,1,Ticks_Pract_5,50,5,42,127,407353656
33,1,1,Ticks_Pract_5,51,1,48,26,407358576
33,1,1,Ticks_Pract_5,52,1,48,33,407847404
33,1,1,Ticks_Pract_5,53,5,42,127,407853344
33,1,1,Ticks_Pract_5,54,1,48,27,408329792
33,1,1,Ticks_Pract_5,55,5,42,127,408354208
33,1,1,Ticks_Pract_5,56,1,48,37,408802336
33,1,1,Ticks_Pract_5,57,5,42,127,408854052
33,1,1,Ticks_Pract_5,58,1,48,26,409339132
33,1,1,Ticks_Pract_5,59,5,42,127,409353672
33,1,1,Ticks_Pract_5,60,1,48,28,409823864
33,1,1,Ticks_Pract_5,61,5,42,127,409854192
33,1,1,Ticks_Pract_5,62,5,42,127,410354040
33,1,1,Ticks_Pract_5,63,5,42,127,410853760
33,1,1,Ticks_Pract_5,64,1,48,33,410859576
33,1,1,Ticks_Pract_5,65,5,42,127,411353380
33,1,1,Ticks_Pract_5,66,1,48,36,411363456
33,1,1,Ticks_Pract_5,67,1,48,43,411830216
33,1,1,Ticks_Pract_5,68,5,42,127,411854188
33,1,1,Ticks_Pract_5,69,1,48,38,412340160
33,1,1,Ticks_Pract_5,70,5,42,127,412354104
33,1,1,Ticks_Pract_5,71,1,48,37,412853204
33,1,1,Ticks_Pract_5,72,5,42,127,412854996
33,1,1,Ticks_Pract_5,73,1,48,29,413336556
33,1,1,Ticks_Pract_5,74,5,42,127,413354244
33,1,1,Ticks_Pract_5,75,1,48,38,413845680
33,1,1,Ticks_Pract_5,0,9999,9999,9999,393852008
33,1,1,Ticks_Pract_5,1,9999,9999,9999,394351724
33,1,1,Ticks_Pract_5,2,9999,9999,9999,394851440
33,1,1,Ticks_Pract_5,3,9999,9999,9999,395351160
33,1,1,Ticks_Pract_5,4,9999,9999,9999,395851840
33,1,1,Ticks_Pract_5,5,9999,9999,9999,396351608
33,1,1,Ticks_Pract_5,6,9999,9999,9999,396851300
33,1,1,Ticks_Pract_5,7,9999,9999,9999,397352052
33,1,1,Ticks_Pract_5,8,9999,9999,9999,397851720
33,1,1,Ticks_Pract_5,9,9999,9999,9999,398351412
33,1,1,Ticks_Pract_5,10,9999,9999,9999,398851184
33,1,1,Ticks_Pract_5,11,9999,9999,9999,399351916
33,1,1,Ticks_Pract_5,12,9999,9999,9999,399851612
33,1,1,Ticks_Pract_5,13,9999,9999,9999,400351308
33,1,1,Ticks_Pract_5,14,9999,9999,9999,400852044
33,1,1,Ticks_Pract_5,15,9999,9999,9999,401351740
33,1,1,Ticks_Pract_5,16,9999,9999,9999,401851508
33,1,1,Ticks_Pract_5,17,9999,9999,9999,402351204
33,1,1,Ticks_Pract_5,18,9999,9999,9999,402851944
33,1,1,Ticks_Pract_5,19,9999,9999,9999,403351640
33,1,1,Ticks_Pract_5,20,9999,9999,9999,403851336
33,1,1,Ticks_Pract_5,21,9999,9999,9999,404352076
33,1,1,Ticks_Pract_5,22,9999,9999,9999,404851772
33,1,1,Ticks_Pract_5,23,9999,9999,9999,405351540
33,1,1,Ticks_Pract_5,24,9999,9999,9999,405851240
33,1,1,Ticks_Pract_5,25,9999,9999,9999,406351976
33,1,1,Ticks_Pract_5,26,9999,9999,9999,406851676
33,1,1,Ticks_Pract_5,27,9999,9999,9999,407351372
33,1,1,Ticks_Pract_5,28,9999,9999,9999,407851056
33,1,1,Ticks_Pract_5,29,9999,9999,9999,408351848
33,1,1,Ticks_Pract_5,30,9999,9999,9999,408851544
33,1,1,Ticks_Pract_5,31,9999,9999,9999,409351236
33,1,1,Ticks_Pract_5,32,9999,9999,9999,409851980
33,1,1,Ticks_Pract_5,33,9999,9999,9999,410351680
33,1,1,Ticks_Pract_5,34,9999,9999,9999,410851400
33,1,1,Ticks_Pract_5,35,9999,9999,9999,411351092
33,1,1,Ticks_Pract_5,36,9999,9999,9999,411851828
33,1,1,Ticks_Pract_5,37,9999,9999,9999,412351596
33,1,1,Ticks_Pract_5,38,9999,9999,9999,412851296
33,1,1,Ticks_Pract_5,39,9999,9999,9999,413352032
33,2,0,Ticks_Pract_8,0,5,42,127,426135864
33,2,0,Ticks_Pract_8,1,1,48,15,426530052
33,2,0,Ticks_Pract_8,2,5,42,127,426935596
33,2,0,Ticks_Pract_8,3,5,42,127,427736404
33,2,0,Ticks_Pract_8,4,5,42,127,428536376
33,2,0,Ticks_Pract_8,5,1,48,41,429268628
33,2,0,Ticks_Pract_8,6,5,42,127,429335904
33,2,0,Ticks_Pract_8,7,1,48,33,430082424
33,2,0,Ticks_Pract_8,8,5,42,127,430135588
33,2,0,Ticks_Pract_8,9,1,48,40,430920032
33,2,0,Ticks_Pract_8,10,5,42,127,430936300
33,2,0,Ticks_Pract_8,11,5,42,127,431736108
33,2,0,Ticks_Pract_8,12,1,48,40,431749256
33,2,0,Ticks_Pract_8,13,1,48,42,432520916
33,2,0,Ticks_Pract_8,14,5,42,127,432536284
33,2,0,Ticks_Pract_8,15,1,48,46,433307264
33,2,0,Ticks_Pract_8,16,5,42,127,433335644
33,2,0,Ticks_Pract_8,17,1,48,42,434069900
33,2,0,Ticks_Pract_8,18,5,42,127,434136352
33,2,0,Ticks_Pract_8,19,1,48,40,434863572
33,2,0,Ticks_Pract_8,20,5,42,127,434936160
33,2,0,Ticks_Pract_8,21,1,48,38,435709456
33,2,0,Ticks_Pract_8,22,5,42,127,435736116
33,2,0,Ticks_Pract_8,23,5,42,127,436535584
33,2,0,Ticks_Pract_8,24,1,48,35,436539452
33,2,0,Ticks_Pract_8,25,5,42,127,437336516
33,2,0,Ticks_Pract_8,26,1,48,40,437344864
33,2,0,Ticks_Pract_8,27,1,48,40,438108308
33,2,0,Ticks_Pract_8,28,5,42,127,438136164
33,2,0,Ticks_Pract_8,29,1,48,36,438919560
33,2,0,Ticks_Pract_8,30,5,42,127,438936044
33,2,0,Ticks_Pract_8,31,1,48,43,439705376
33,2,0,Ticks_Pract_8,32,5,42,127,439735856
33,2,0,Ticks_Pract_8,33,5,42,127,440536648
33,2,0,Ticks_Pract_8,34,1,48,45,440544024
33,2,0,Ticks_Pract_8,35,1,48,38,441324068
33,2,0,Ticks_Pract_8,36,5,42,127,441336220
33,2,0,Ticks_Pract_8,37,5,42,127,442135960
33,2,0,Ticks_Pract_8,38,1,48,49,442140728
33,2,0,Ticks_Pract_8,39,5,42,127,442935792
33,2,0,Ticks_Pract_8,40,1,48,44,442974812
33,2,0,Ticks_Pract_8,41,5,42,127,443736652
33,2,0,Ticks_Pract_8,42,1,48,43,443781056
33,2,0,Ticks_Pract_8,43,1,48,44,444531704
33,2,0,Ticks_Pract_8,44,5,42,127,444536080
33,2,0,Ticks_Pract_8,45,1,48,42,445262700
33,2,0,Ticks_Pract_8,46,5,42,127,445335812
33,2,0,Ticks_Pract_8,47,1,48,41,446075376
33,2,0,Ticks_Pract_8,48,5,42,127,446135620
33,2,0,Ticks_Pract_8,49,1,48,36,446930832
33,2,0,Ticks_Pract_8,50,5,42,127,446936628
33,2,0,Ticks_Pract_8,51,5,42,127,447736292
33,2,0,Ticks_Pract_8,52,1,48,39,447749884
33,2,0,Ticks_Pract_8,53,5,42,127,448535800
33,2,0,Ticks_Pract_8,54,1,48,36,448587792
33,2,0,Ticks_Pract_8,55,5,42,127,449335708
33,2,0,Ticks_Pract_8,56,1,48,34,449342868
33,2,0,Ticks_Pract_8,0,9999,9999,9999,426133576
33,2,0,Ticks_Pract_8,1,9999,9999,9999,426933308
33,2,0,Ticks_Pract_8,2,9999,9999,9999,427734112
33,2,0,Ticks_Pract_8,3,9999,9999,9999,428533864
33,2,0,Ticks_Pract_8,4,9999,9999,9999,429333616
33,2,0,Ticks_Pract_8,5,9999,9999,9999,430133300
33,2,0,Ticks_Pract_8,6,9999,9999,9999,430934080
33,2,0,Ticks_Pract_8,7,9999,9999,9999,431733820
33,2,0,Ticks_Pract_8,8,9999,9999,9999,432533624
33,2,0,Ticks_Pract_8,9,9999,9999,9999,433333356
33,2,0,Ticks_Pract_8,10,9999,9999,9999,434134060
33,2,0,Ticks_Pract_8,11,9999,9999,9999,434933872
33,2,0,Ticks_Pract_8,12,9999,9999,9999,435733604
33,2,0,Ticks_Pract_8,13,9999,9999,9999,436533296
33,2,0,Ticks_Pract_8,14,9999,9999,9999,437334072
33,2,0,Ticks_Pract_8,15,9999,9999,9999,438133876
33,2,0,Ticks_Pract_8,16,9999,9999,9999,438933608
33,2,0,Ticks_Pract_8,17,9999,9999,9999,439733344
33,2,0,Ticks_Pract_8,18,9999,9999,9999,440534132
33,2,0,Ticks_Pract_8,19,9999,9999,9999,441333856
33,2,0,Ticks_Pract_8,20,9999,9999,9999,442133596
33,2,0,Ticks_Pract_8,21,9999,9999,9999,442933356
33,2,0,Ticks_Pract_8,22,9999,9999,9999,443734136
33,2,0,Ticks_Pract_8,23,9999,9999,9999,444533864
33,2,0,Ticks_Pract_8,24,9999,9999,9999,445333600
33,2,0,Ticks_Pract_8,25,9999,9999,9999,446133336
33,2,0,Ticks_Pract_8,26,9999,9999,9999,446934116
33,2,0,Ticks_Pract_8,27,9999,9999,9999,447733856
33,2,0,Ticks_Pract_8,28,9999,9999,9999,448533588
33,2,0,Ticks_Pract_8,29,9999,9999,9999,449333344
33,3,4,T1_SMS_5,0,5,42,127,521588280
33,3,4,T1_SMS_5,1,5,42,127,522087772
33,3,4,T1_SMS_5,2,5,42,127,522587564
33,3,4,T1_SMS_5,3,5,42,127,523088328
33,3,4,T1_SMS_5,4,1,48,49,523568184
33,3,4,T1_SMS_5,5,5,42,127,523588036
33,3,4,T1_SMS_5,6,1,48,48,524062712
33,3,4,T1_SMS_5,7,5,42,127,524087656
33,3,4,T1_SMS_5,8,1,48,32,524537328
33,3,4,T1_SMS_5,9,5,42,127,524588324
33,3,4,T1_SMS_5,10,1,48,46,525075616
33,3,4,T1_SMS_5,11,5,42,127,525088092
33,3,4,T1_SMS_5,12,1,48,45,525575684
33,3,4,T1_SMS_5,13,5,42,127,525587764
33,3,4,T1_SMS_5,14,1,48,47,526076796
33,3,4,T1_SMS_5,15,5,42,127,526087680
33,3,4,T1_SMS_5,16,1,48,47,526578964
33,3,4,T1_SMS_5,17,5,42,127,526588200
33,3,4,T1_SMS_5,18,1,48,41,527059732
33,3,4,T1_SMS_5,19,5,42,127,527088116
33,3,4,T1_SMS_5,20,1,48,36,527571472
33,3,4,T1_SMS_5,21,5,42,127,527587592
33,3,4,T1_SMS_5,22,1,48,44,528069972
33,3,4,T1_SMS_5,23,5,42,127,528088332
33,3,4,T1_SMS_5,24,1,48,49,528565328
33,3,4,T1_SMS_5,25,5,42,127,528588028
33,3,4,T1_SMS_5,26,1,48,38,529083872
33,3,4,T1_SMS_5,27,5,42,127,529088092
33,3,4,T1_SMS_5,28,1,48,45,529579084
33,3,4,T1_SMS_5,29,5,42,127,529587568
33,3,4,T1_SMS_5,30,1,48,40,530054240
33,3,4,T1_SMS_5,31,5,42,127,530088384
33,3,4,T1_SMS_5,32,1,48,38,530554232
33,3,4,T1_SMS_5,33,5,42,127,530587928
33,3,4,T1_SMS_5,34,1,48,38,531072704
33,3,4,T1_SMS_5,35,5,42,127,531087848
33,3,4,T1_SMS_5,36,1,48,43,531566484
33,3,4,T1_SMS_5,37,5,42,127,531587320
33,3,4,T1_SMS_5,38,1,48,39,532046212
33,3,4,T1_SMS_5,39,5,42,127,532088060
33,3,4,T1_SMS_5,40,1,48,44,532568348
33,3,4,T1_SMS_5,41,5,42,127,532587904
33,3,4,T1_SMS_5,42,1,48,44,533084120
33,3,4,T1_SMS_5,43,5,42,127,533087676
33,3,4,T1_SMS_5,44,5,42,127,533588276
33,3,4,T1_SMS_5,45,1,48,33,533597004
33,3,4,T1_SMS_5,46,5,42,127,534088048
33,3,4,T1_SMS_5,47,1,48,39,534116600
33,3,4,T1_SMS_5,48,5,42,127,534587744
33,3,4,T1_SMS_5,49,1,48,37,534590488
33,3,4,T1_SMS_5,50,1,48,36,535074752
33,3,4,T1_SMS_5,51,5,42,127,535087656
33,3,4,T1_SMS_5,52,1,48,44,535578764
33,3,4,T1_SMS_5,53,5,42,127,535588096
33,3,4,T1_SMS_5,54,1,48,45,536073444
33,3,4,T1_SMS_5,55,5,42,127,536087768
33,3,4,T1_SMS_5,56,1,48,51,536574560
33,3,4,T1_SMS_5,57,5,42,127,536587684
33,3,4,T1_SMS_5,58,1,48,50,537044560
33,3,4,T1_SMS_5,59,5,42,127,537088576
33,3,4,T1_SMS_5,60,1,48,41,537559960
33,3,4,T1_SMS_5,61,5,42,127,537588048
33,3,4,T1_SMS_5,62,1,48,37,538055092
33,3,4,T1_SMS_5,63,5,42,127,538087740
33,3,4,T1_SMS_5,64,1,48,39,538547832
33,3,4,T1_SMS_5,65,5,42,127,538587660
33,3,4,T1_SMS_5,66,1,48,39,539066220
33,3,4,T1_SMS_5,67,5,42,127,539088328
33,3,4,T1_SMS_5,68,1,48,35,539574300
33,3,4,T1_SMS_5,69,5,42,127,539587872
33,3,4,T1_SMS_5,70,1,48,27,540079160
33,3,4,T1_SMS_5,71,5,42,127,540087716
33,3,4,T1_SMS_5,72,1,48,35,540571896
33,3,4,T1_SMS_5,73,5,42,127,540588536
33,3,4,T1_SMS_5,74,1,48,41,541087864
33,3,4,T1_SMS_5,75,5,42,127,541089424
33,3,4,T1_SMS_5,76,5,42,127,541587780
33,3,4,T1_SMS_5,77,1,48,38,541603240
33,3,4,T1_SMS_5,78,1,48,39,542043900
33,3,4,T1_SMS_5,79,5,42,127,542087396
33,3,4,T1_SMS_5,80,1,48,43,542557136
33,3,4,T1_SMS_5,81,5,42,127,542588360
33,3,4,T1_SMS_5,82,1,48,38,543083084
33,3,4,T1_SMS_5,83,5,42,127,543087832
33,3,4,T1_SMS_5,84,1,48,34,543585324
33,3,4,T1_SMS_5,85,5,42,127,543587676
33,3,4,T1_SMS_5,86,1,48,40,544070356
33,3,4,T1_SMS_5,87,5,42,127,544088420
33,3,4,T1_SMS_5,88,1,48,40,544570948
33,3,4,T1_SMS_5,89,5,42,127,544588260
33,3,4,T1_SMS_5,90,1,48,41,545059720
33,3,4,T1_SMS_5,91,5,42,127,545087956
33,3,4,T1_SMS_5,92,1,48,44,545560364
33,3,4,T1_SMS_5,93,5,42,127,545587428
33,3,4,T1_SMS_5,94,5,42,127,546088248
33,3,4,T1_SMS_5,95,1,48,41,546089588
33,3,4,T1_SMS_5,96,1,48,39,546569628
33,3,4,T1_SMS_5,97,5,42,127,546588532
33,3,4,T1_SMS_5,98,1,48,42,547035288
33,3,4,T1_SMS_5,99,5,42,127,547087904
33,3,4,T1_SMS_5,100,1,48,42,547575000
33,3,4,T1_SMS_5,101,5,42,127,547587304
33,3,4,T1_SMS_5,102,5,42,127,548088276
33,3,4,T1_SMS_5,103,1,48,42,548104336
33,3,4,T1_SMS_5,104,5,42,127,548587972
33,3,4,T1_SMS_5,105,1,48,40,548646460
33,3,4,T1_SMS_5,106,1,48,43,549087368
33,3,4,T1_SMS_5,107,5,42,127,549089076
33,3,4,T1_SMS_5,108,1,48,41,549574752
33,3,4,T1_SMS_5,109,5,42,127,549588252
33,3,4,T1_SMS_5,110,1,48,31,550088100
33,3,4,T1_SMS_5,111,5,42,127,550089660
33,3,4,T1_SMS_5,112,1,48,38,550559784
33,3,4,T1_SMS_5,113,5,42,127,550587936
33,3,4,T1_SMS_5,114,1,48,36,551059028
33,3,4,T1_SMS_5,115,5,42,127,551087560
33,3,4,T1_SMS_5,116,1,48,43,551553560
33,3,4,T1_SMS_5,117,5,42,127,551588152
33,3,4,T1_SMS_5,118,5,42,127,552087856
33,3,4,T1_SMS_5,119,1,48,40,552091944
33,3,4,T1_SMS_5,120,5,42,127,552587624
33,3,4,T1_SMS_5,121,1,48,45,552590216
33,3,4,T1_SMS_5,122,1,48,43,553081892
33,3,4,T1_SMS_5,123,5,42,127,553088284
33,3,4,T1_SMS_5,124,1,48,41,553562288
33,3,4,T1_SMS_5,125,5,42,127,553587976
33,3,4,T1_SMS_5,126,1,48,33,554061908
33,3,4,T1_SMS_5,127,5,42,127,554087968
33,3,4,T1_SMS_5,128,1,48,41,554586316
33,3,4,T1_SMS_5,129,5,42,127,554588108
33,3,4,T1_SMS_5,130,1,48,37,555079396
33,3,4,T1_SMS_5,131,5,42,127,555088184
33,3,4,T1_SMS_5,132,1,48,40,555582228
33,3,4,T1_SMS_5,133,5,42,127,555588024
33,3,4,T1_SMS_5,134,1,48,39,556086748
33,3,4,T1_SMS_5,135,5,42,127,556088468
33,3,4,T1_SMS_5,136,5,42,127,556588544
33,3,4,T1_SMS_5,137,1,48,35,556616416
33,3,4,T1_SMS_5,138,1,48,36,557072836
33,3,4,T1_SMS_5,139,5,42,127,557088008
33,3,4,T1_SMS_5,140,1,48,38,557562880
33,3,4,T1_SMS_5,141,5,42,127,557587900
33,3,4,T1_SMS_5,142,1,48,40,558072224
33,3,4,T1_SMS_5,143,5,42,127,558087816
33,3,4,T1_SMS_5,144,1,48,40,558569756
33,3,4,T1_SMS_5,145,5,42,127,558588264
33,3,4,T1_SMS_5,146,1,48,40,559063316
33,3,4,T1_SMS_5,147,5,42,127,559088108
33,3,4,T1_SMS_5,148,1,48,40,559555004
33,3,4,T1_SMS_5,149,5,42,127,559587576
33,3,4,T1_SMS_5,150,1,48,39,560060612
33,3,4,T1_SMS_5,151,5,42,127,560088544
33,3,4,T1_SMS_5,152,1,48,37,560552524
33,3,4,T1_SMS_5,153,5,42,127,560588092
33,3,4,T1_SMS_5,154,1,48,41,561060672
33,3,4,T1_SMS_5,155,5,42,127,561087932
33,3,4,T1_SMS_5,156,1,48,38,561583776
33,3,4,T1_SMS_5,157,5,42,127,561587628
33,3,4,T1_SMS_5,158,1,48,46,562056920
33,3,4,T1_SMS_5,159,5,42,127,562088520
33,3,4,T1_SMS_5,160,1,48,38,562559456
33,3,4,T1_SMS_5,161,5,42,127,562588068
33,3,4,T1_SMS_5,162,5,42,127,563087692
33,3,4,T1_SMS_5,163,1,48,38,563097244
33,3,4,T1_SMS_5,164,1,48,38,563587312
33,3,4,T1_SMS_5,165,5,42,127,563588872
33,3,4,T1_SMS_5,166,1,48,38,564079560
33,3,4,T1_SMS_5,167,5,42,127,564088048
33,3,4,T1_SMS_5,168,1,48,43,564552328
33,3,4,T1_SMS_5,169,5,42,127,564587744
33,3,4,T1_SMS_5,170,1,48,39,565055236
33,3,4,T1_SMS_5,171,5,42,127,565087512
33,3,4,T1_SMS_5,172,1,48,34,565565780
33,3,4,T1_SMS_5,173,5,42,127,565588552
33,3,4,T1_SMS_5,174,1,48,40,566075120
33,3,4,T1_SMS_5,175,5,42,127,566088024
33,3,4,T1_SMS_5,176,5,42,127,566587728
33,3,4,T1_SMS_5,177,1,48,40,566606404
33,3,4,T1_SMS_5,178,5,42,127,567087576
33,3,4,T1_SMS_5,179,1,48,35,567092784
33,3,4,T1_SMS_5,180,1,48,40,567546960
33,3,4,T1_SMS_5,181,5,42,127,567588160
33,3,4,T1_SMS_5,182,1,48,36,568080236
33,3,4,T1_SMS_5,183,5,42,127,568088052
33,3,4,T1_SMS_5,184,1,48,36,568580980
33,3,4,T1_SMS_5,185,5,42,127,568587600
33,3,4,T1_SMS_5,186,1,48,38,569086904
33,3,4,T1_SMS_5,187,5,42,127,569088636
33,3,4,T1_SMS_5,188,1,48,35,569583960
33,3,4,T1_SMS_5,189,5,42,127,569588256
33,3,4,T1_SMS_5,190,5,42,127,570087736
33,3,4,T1_SMS_5,191,1,48,42,570105064
33,3,4,T1_SMS_5,192,5,42,127,570587356
33,3,4,T1_SMS_5,193,1,48,35,570603712
33,3,4,T1_SMS_5,194,5,42,127,571088172
33,3,4,T1_SMS_5,195,1,48,40,571097872
33,3,4,T1_SMS_5,196,1,48,39,571572188
33,3,4,T1_SMS_5,197,5,42,127,571588308
33,3,4,T1_SMS_5,198,5,42,127,572087788
33,3,4,T1_SMS_5,199,1,48,37,572100780
33,3,4,T1_SMS_5,200,1,48,36,572578612
33,3,4,T1_SMS_5,201,5,42,127,572588300
33,3,4,T1_SMS_5,202,1,48,41,573070004
33,3,4,T1_SMS_5,203,5,42,127,573088216
33,3,4,T1_SMS_5,204,1,48,43,573587544
33,3,4,T1_SMS_5,205,5,42,127,573589180
33,3,4,T1_SMS_5,206,1,48,40,574056376
33,3,4,T1_SMS_5,207,5,42,127,574087532
33,3,4,T1_SMS_5,208,5,42,127,574588132
33,3,4,T1_SMS_5,209,1,48,29,574602768
33,3,4,T1_SMS_5,210,1,48,24,575086532
33,3,4,T1_SMS_5,211,5,42,127,575088268
33,3,4,T1_SMS_5,212,1,48,24,575571100
33,3,4,T1_SMS_5,213,5,42,127,575587812
33,3,4,T1_SMS_5,214,1,48,34,576062792
33,3,4,T1_SMS_5,215,5,42,127,576088556
33,3,4,T1_SMS_5,216,1,48,41,576578044
33,3,4,T1_SMS_5,217,5,42,127,576588176
33,3,4,T1_SMS_5,218,5,42,127,577087952
33,3,4,T1_SMS_5,219,1,48,31,577123832
33,3,4,T1_SMS_5,220,5,42,127,577587424
33,3,4,T1_SMS_5,221,1,48,41,577601088
33,3,4,T1_SMS_5,222,1,48,44,578059148
33,3,4,T1_SMS_5,223,5,42,127,578088232
33,3,4,T1_SMS_5,224,1,48,35,578581588
33,3,4,T1_SMS_5,225,5,42,127,578588000
33,3,4,T1_SMS_5,226,1,48,43,579070060
33,3,4,T1_SMS_5,227,5,42,127,579087896
33,3,4,T1_SMS_5,228,1,48,40,579567284
33,3,4,T1_SMS_5,229,5,42,127,579587292
33,3,4,T1_SMS_5,230,1,48,37,580063316
33,3,4,T1_SMS_5,231,5,42,127,580088108
33,3,4,T1_SMS_5,232,1,48,39,580571760
33,3,4,T1_SMS_5,233,5,42,127,580587804
33,3,4,T1_SMS_5,234,1,48,39,581069732
33,3,4,T1_SMS_5,235,5,42,127,581087572
33,3,4,T1_SMS_5,236,1,48,35,581567564
33,3,4,T1_SMS_5,237,5,42,127,581588388
33,3,4,T1_SMS_5,238,1,48,38,582057604
33,3,4,T1_SMS_5,239,5,42,127,582088156
33,3,4,T1_SMS_5,240,1,48,36,582554304
33,3,4,T1_SMS_5,241,5,42,127,582587852
33,3,4,T1_SMS_5,242,1,48,36,583070380
33,3,4,T1_SMS_5,243,5,42,127,583087548
33,3,4,T1_SMS_5,244,1,48,44,583569852
33,3,4,T1_SMS_5,245,5,42,127,583588140
33,3,4,T1_SMS_5,246,1,48,42,584080316
33,3,4,T1_SMS_5,247,5,42,127,584087832
33,3,4,T1_SMS_5,248,1,48,42,584580536
33,3,4,T1_SMS_5,249,5,42,127,584587528
33,3,4,T1_SMS_5,250,1,48,40,585056968
33,3,4,T1_SMS_5,251,5,42,127,585088492
33,3,4,T1_SMS_5,252,5,42,127,585587972
33,3,4,T1_SMS_5,253,1,48,39,585589384
33,3,4,T1_SMS_5,254,1,48,38,586085080
33,3,4,T1_SMS_5,255,5,42,127,586087660
33,3,4,T1_SMS_5,0,9999,9999,9999,521585764
33,3,4,T1_SMS_5,1,9999,9999,9999,522085480
33,3,4,T1_SMS_5,2,9999,9999,9999,522585200
33,3,4,T1_SMS_5,3,9999,9999,9999,523085888
33,3,4,T1_SMS_5,4,9999,9999,9999,523585596
33,3,4,T1_SMS_5,5,9999,9999,9999,524085368
33,3,4,T1_SMS_5,6,9999,9999,9999,524586036
33,3,4,T1_SMS_5,7,9999,9999,9999,525085804
33,3,4,T1_SMS_5,8,9999,9999,9999,525585472
33,3,4,T1_SMS_5,9,9999,9999,9999,526085240
33,3,4,T1_SMS_5,10,9999,9999,9999,526585908
33,3,4,T1_SMS_5,11,9999,9999,9999,527085680
33,3,4,T1_SMS_5,12,9999,9999,9999,527585372
33,3,4,T1_SMS_5,13,9999,9999,9999,528086120
33,3,4,T1_SMS_5,14,9999,9999,9999,528585812
33,3,4,T1_SMS_5,15,9999,9999,9999,529085508
33,3,4,T1_SMS_5,16,9999,9999,9999,529585200
33,3,4,T1_SMS_5,17,9999,9999,9999,530085944
33,3,4,T1_SMS_5,18,9999,9999,9999,530585712
33,3,4,T1_SMS_5,19,9999,9999,9999,531085408
33,3,4,T1_SMS_5,20,9999,9999,9999,531585104
33,3,4,T1_SMS_5,21,9999,9999,9999,532085844
33,3,4,T1_SMS_5,22,9999,9999,9999,532585540
33,3,4,T1_SMS_5,23,9999,9999,9999,533085236
33,3,4,T1_SMS_5,24,9999,9999,9999,533585984
33,3,4,T1_SMS_5,25,9999,9999,9999,534085680
33,3,4,T1_SMS_5,26,9999,9999,9999,534585452
33,3,4,T1_SMS_5,27,9999,9999,9999,535085140
33,3,4,T1_SMS_5,28,9999,9999,9999,535585880
33,3,4,T1_SMS_5,29,9999,9999,9999,536085552
33,3,4,T1_SMS_5,30,9999,9999,9999,536585320
33,3,4,T1_SMS_5,31,9999,9999,9999,537086060
33,3,4,T1_SMS_5,32,9999,9999,9999,537585756
33,3,4,T1_SMS_5,33,9999,9999,9999,538085452
33,3,4,T1_SMS_5,34,9999,9999,9999,538585144
33,3,4,T1_SMS_5,35,9999,9999,9999,539085888
33,3,4,T1_SMS_5,36,9999,9999,9999,539585656
33,3,4,T1_SMS_5,37,9999,9999,9999,540085352
33,3,4,T1_SMS_5,38,9999,9999,9999,540586096
33,3,4,T1_SMS_5,39,9999,9999,9999,541085796
33,3,4,T1_SMS_5,40,9999,9999,9999,541585492
33,3,4,T1_SMS_5,41,9999,9999,9999,542085180
33,3,4,T1_SMS_5,42,9999,9999,9999,542585924
33,3,4,T1_SMS_5,43,9999,9999,9999,543085616
33,3,4,T1_SMS_5,44,9999,9999,9999,543585384
33,3,4,T1_SMS_5,45,9999,9999,9999,544086132
33,3,4,T1_SMS_5,46,9999,9999,9999,544585824
33,3,4,T1_SMS_5,47,9999,9999,9999,545085516
33,3,4,T1_SMS_5,48,9999,9999,9999,545585212
33,3,4,T1_SMS_5,49,9999,9999,9999,546085960
33,3,4,T1_SMS_5,50,9999,9999,9999,546585700
33,3,4,T1_SMS_5,51,9999,9999,9999,547085392
33,3,4,T1_SMS_5,52,9999,9999,9999,547585088
33,3,4,T1_SMS_5,53,9999,9999,9999,548085836
33,3,4,T1_SMS_5,54,9999,9999,9999,548585532
33,3,4,T1_SMS_5,55,9999,9999,9999,549085300
33,3,4,T1_SMS_5,56,9999,9999,9999,549586036
33,3,4,T1_SMS_5,57,9999,9999,9999,550085736
33,3,4,T1_SMS_5,58,9999,9999,9999,550585424
33,3,4,T1_SMS_5,59,9999,9999,9999,551085120
33,3,4,T1_SMS_5,60,9999,9999,9999,551585864
33,3,4,T1_SMS_5,61,9999,9999,9999,552085564
33,3,4,T1_SMS_5,62,9999,9999,9999,552585332
33,3,4,T1_SMS_5,63,9999,9999,9999,553086068
33,3,4,T1_SMS_5,64,9999,9999,9999,553585764
33,3,4,T1_SMS_5,65,9999,9999,9999,554085456
33,3,4,T1_SMS_5,66,9999,9999,9999,554585156
33,3,4,T1_SMS_5,67,9999,9999,9999,555085892
33,3,4,T1_SMS_5,68,9999,9999,9999,555585588
33,3,4,T1_SMS_5,69,9999,9999,9999,556085360
33,3,4,T1_SMS_5,70,9999,9999,9999,556586104
33,3,4,T1_SMS_5,71,9999,9999,9999,557085792
33,3,4,T1_SMS_5,72,9999,9999,9999,557585460
33,3,4,T1_SMS_5,73,9999,9999,9999,558085228
33,3,4,T1_SMS_5,74,9999,9999,9999,558585972
33,3,4,T1_SMS_5,75,9999,9999,9999,559085668
33,3,4,T1_SMS_5,76,9999,9999,9999,559585364
33,3,4,T1_SMS_5,77,9999,9999,9999,560086108
33,3,4,T1_SMS_5,78,9999,9999,9999,560585800
33,3,4,T1_SMS_5,79,9999,9999,9999,561085496
33,3,4,T1_SMS_5,80,9999,9999,9999,561585264
33,3,4,T1_SMS_5,81,9999,9999,9999,562086004
33,3,4,T1_SMS_5,82,9999,9999,9999,562585700
33,3,4,T1_SMS_5,83,9999,9999,9999,563085404
33,3,4,T1_SMS_5,84,9999,9999,9999,563585096
33,3,4,T1_SMS_5,85,9999,9999,9999,564085832
33,3,4,T1_SMS_5,86,9999,9999,9999,564585528
33,3,4,T1_SMS_5,87,9999,9999,9999,565085296
33,3,4,T1_SMS_5,88,9999,9999,9999,565586040
33,3,4,T1_SMS_5,89,9999,9999,9999,566085736
33,3,4,T1_SMS_5,90,9999,9999,9999,566585440
33,3,4,T1_SMS_5,91,9999,9999,9999,567085136
33,3,4,T1_SMS_5,92,9999,9999,9999,567585868
33,3,4,T1_SMS_5,93,9999,9999,9999,568085616
33,3,4,T1_SMS_5,94,9999,9999,9999,568585308
33,3,4,T1_SMS_5,95,9999,9999,9999,569086056
33,3,4,T1_SMS_5,96,9999,9999,9999,569585744
33,3,4,T1_SMS_5,97,9999,9999,9999,570085444
33,3,4,T1_SMS_5,98,9999,9999,9999,570585140
33,3,4,T1_SMS_5,99,9999,9999,9999,571085880
33,3,4,T1_SMS_5,100,9999,9999,9999,571585644
33,3,4,T1_SMS_5,101,9999,9999,9999,572085348
33,3,4,T1_SMS_5,102,9999,9999,9999,572586084
33,3,4,T1_SMS_5,103,9999,9999,9999,573085776
33,3,4,T1_SMS_5,104,9999,9999,9999,573585480
33,3,4,T1_SMS_5,105,9999,9999,9999,574085240
33,3,4,T1_SMS_5,106,9999,9999,9999,574585916
33,3,4,T1_SMS_5,107,9999,9999,9999,575085684
33,3,4,T1_SMS_5,108,9999,9999,9999,575585372
33,3,4,T1_SMS_5,109,9999,9999,9999,576086120
33,3,4,T1_SMS_5,110,9999,9999,9999,576585812
33,3,4,T1_SMS_5,111,9999,9999,9999,577085512
33,3,4,T1_SMS_5,112,9999,9999,9999,577585208
33,3,4,T1_SMS_5,113,9999,9999,9999,578085944
33,3,4,T1_SMS_5,114,9999,9999,9999,578585712
33,3,4,T1_SMS_5,115,9999,9999,9999,579085384
33,3,4,T1_SMS_5,116,9999,9999,9999,579585076
33,3,4,T1_SMS_5,117,9999,9999,9999,580085816
33,3,4,T1_SMS_5,118,9999,9999,9999,580585588
33,3,4,T1_SMS_5,119,9999,9999,9999,581085280
33,3,4,T1_SMS_5,120,9999,9999,9999,581586024
33,3,4,T1_SMS_5,121,9999,9999,9999,582085716
33,3,4,T1_SMS_5,122,9999,9999,9999,582585412
33,3,4,T1_SMS_5,123,9999,9999,9999,583085108
33,3,4,T1_SMS_5,124,9999,9999,9999,583585848
33,3,4,T1_SMS_5,125,9999,9999,9999,584085620
33,3,4,T1_SMS_5,126,9999,9999,9999,584585312
33,3,4,T1_SMS_5,127,9999,9999,9999,585086056
33,3,4,T1_SMS_5,128,9999,9999,9999,585585756
33,3,4,T1_SMS_5,129,9999,9999,9999,586085444
33,4,2,T1_SMS_8,0,5,42,127,651899316
33,4,2,T1_SMS_8,1,5,42,127,652698996
33,4,2,T1_SMS_8,2,5,42,127,653498676
33,4,2,T1_SMS_8,3,5,42,127,654298804
33,4,2,T1_SMS_8,4,5,42,127,655099384
33,4,2,T1_SMS_8,5,1,48,44,655111556
33,4,2,T1_SMS_8,6,1,48,43,655852400
33,4,2,T1_SMS_8,7,5,42,127,655898988
33,4,2,T1_SMS_8,8,1,48,40,656646308
33,4,2,T1_SMS_8,9,5,42,127,656698720
33,4,2,T1_SMS_8,10,1,48,44,657476804
33,4,2,T1_SMS_8,11,5,42,127,657498452
33,4,2,T1_SMS_8,12,1,48,41,658269800
33,4,2,T1_SMS_8,13,5,42,127,658299304
33,4,2,T1_SMS_8,14,1,48,43,659076196
33,4,2,T1_SMS_8,15,5,42,127,659099264
33,4,2,T1_SMS_8,16,1,48,40,659863356
33,4,2,T1_SMS_8,17,5,42,127,659898624
33,4,2,T1_SMS_8,18,1,48,45,660670200
33,4,2,T1_SMS_8,19,5,42,127,660698432
33,4,2,T1_SMS_8,20,1,48,44,661473448
33,4,2,T1_SMS_8,21,5,42,127,661499212
33,4,2,T1_SMS_8,22,5,42,127,662299276
33,4,2,T1_SMS_8,23,1,48,41,662305608
33,4,2,T1_SMS_8,24,1,48,44,663083336
33,4,2,T1_SMS_8,25,5,42,127,663098852
33,4,2,T1_SMS_8,26,5,42,127,663898444
33,4,2,T1_SMS_8,27,1,48,49,663912708
33,4,2,T1_SMS_8,28,1,48,47,664679444
33,4,2,T1_SMS_8,29,5,42,127,664699220
33,4,2,T1_SMS_8,30,1,48,40,665496296
33,4,2,T1_SMS_8,31,5,42,127,665498952
33,4,2,T1_SMS_8,32,1,48,45,666267240
33,4,2,T1_SMS_8,33,5,42,127,666298836
33,4,2,T1_SMS_8,34,1,48,42,667082304
33,4,2,T1_SMS_8,35,5,42,127,667098420
33,4,2,T1_SMS_8,36,1,48,38,667862364
33,4,2,T1_SMS_8,37,5,42,127,667899124
33,4,2,T1_SMS_8,38,1,48,35,668666888
33,4,2,T1_SMS_8,39,5,42,127,668698960
33,4,2,T1_SMS_8,40,1,48,36,669450912
33,4,2,T1_SMS_8,41,5,42,127,669498988
33,4,2,T1_SMS_8,42,1,48,34,670261296
33,4,2,T1_SMS_8,43,5,42,127,670298576
33,4,2,T1_SMS_8,44,1,48,41,671085408
33,4,2,T1_SMS_8,45,5,42,127,671099208
33,4,2,T1_SMS_8,46,5,42,127,671898872
33,4,2,T1_SMS_8,47,1,48,38,671899840
33,4,2,T1_SMS_8,48,1,48,32,672696788
33,4,2,T1_SMS_8,49,5,42,127,672698896
33,4,2,T1_SMS_8,50,5,42,127,673498416
33,4,2,T1_SMS_8,51,1,48,38,673519932
33,4,2,T1_SMS_8,52,5,42,127,674299192
33,4,2,T1_SMS_8,53,1,48,30,674553504
33,4,2,T1_SMS_8,54,5,42,127,675098952
33,4,2,T1_SMS_8,55,1,48,28,675203124
33,4,2,T1_SMS_8,56,1,48,31,675865580
33,4,2,T1_SMS_8,57,5,42,127,675898604
33,4,2,T1_SMS_8,58,1,48,35,676664116
33,4,2,T1_SMS_8,59,5,42,127,676698488
33,4,2,T1_SMS_8,60,1,48,34,677450316
33,4,2,T1_SMS_8,61,5,42,127,677499192
33,4,2,T1_SMS_8,62,1,48,34,678256108
33,4,2,T1_SMS_8,63,5,42,127,678298852
33,4,2,T1_SMS_8,64,1,48,33,679082096
33,4,2,T1_SMS_8,65,5,42,127,679098660
33,4,2,T1_SMS_8,66,1,48,35,679879960
33,4,2,T1_SMS_8,67,5,42,127,679898692
33,4,2,T1_SMS_8,68,1,48,40,680657556
33,4,2,T1_SMS_8,69,5,42,127,680699400
33,4,2,T1_SMS_8,70,1,48,36,681481520
33,4,2,T1_SMS_8,71,5,42,127,681499156
33,4,2,T1_SMS_8,72,1,48,31,682251560
33,4,2,T1_SMS_8,73,5,42,127,682298668
33,4,2,T1_SMS_8,74,1,48,38,683052364
33,4,2,T1_SMS_8,75,5,42,127,683098624
33,4,2,T1_SMS_8,76,1,48,35,683884636
33,4,2,T1_SMS_8,77,5,42,127,683899252
33,4,2,T1_SMS_8,78,1,48,32,684680104
33,4,2,T1_SMS_8,79,5,42,127,684698988
33,4,2,T1_SMS_8,80,1,48,36,685450888
33,4,2,T1_SMS_8,81,5,42,127,685498720
33,4,2,T1_SMS_8,82,1,48,41,686267376
33,4,2,T1_SMS_8,83,5,42,127,686298604
33,4,2,T1_SMS_8,84,5,42,127,687099388
33,4,2,T1_SMS_8,85,1,48,38,687102432
33,4,2,T1_SMS_8,86,5,42,127,687899296
33,4,2,T1_SMS_8,87,1,48,40,687926724
33,4,2,T1_SMS_8,88,1,48,36,688692032
33,4,2,T1_SMS_8,89,5,42,127,688698872
33,4,2,T1_SMS_8,90,1,48,41,689469252
33,4,2,T1_SMS_8,91,5,42,127,689498532
33,4,2,T1_SMS_8,92,1,48,34,690294044
33,4,2,T1_SMS_8,93,5,42,127,690299312
33,4,2,T1_SMS_8,94,5,42,127,691099128
33,4,2,T1_SMS_8,95,1,48,37,691100092
33,4,2,T1_SMS_8,96,1,48,41,691889472
33,4,2,T1_SMS_8,97,5,42,127,691898780
33,4,2,T1_SMS_8,98,5,42,127,692698372
33,4,2,T1_SMS_8,99,1,48,40,692714652
33,4,2,T1_SMS_8,100,5,42,127,693499224
33,4,2,T1_SMS_8,101,1,48,43,693504884
33,4,2,T1_SMS_8,102,1,48,40,694267800
33,4,2,T1_SMS_8,103,5,42,127,694299052
33,4,2,T1_SMS_8,104,1,48,39,695085064
33,4,2,T1_SMS_8,105,5,42,127,695098788
33,4,2,T1_SMS_8,106,1,48,34,695858168
33,4,2,T1_SMS_8,107,5,42,127,695898592
33,4,2,T1_SMS_8,108,1,48,36,696644436
33,4,2,T1_SMS_8,109,5,42,127,696699224
33,4,2,T1_SMS_8,110,5,42,127,697498888
33,4,2,T1_SMS_8,111,1,48,32,697500228
33,4,2,T1_SMS_8,112,5,42,127,698298924
33,4,2,T1_SMS_8,113,1,48,41,698311692
33,4,2,T1_SMS_8,114,5,42,127,699098584
33,4,2,T1_SMS_8,115,1,48,39,699165752
33,4,2,T1_SMS_8,116,5,42,127,699899360
33,4,2,T1_SMS_8,117,1,48,40,699916916
33,4,2,T1_SMS_8,118,5,42,127,700699044
33,4,2,T1_SMS_8,119,1,48,40,700715924
33,4,2,T1_SMS_8,120,5,42,127,701498704
33,4,2,T1_SMS_8,121,1,48,33,701501372
33,4,2,T1_SMS_8,122,1,48,31,702244168
33,4,2,T1_SMS_8,123,5,42,127,702298580
33,4,2,T1_SMS_8,124,5,42,127,703099220
33,4,2,T1_SMS_8,125,1,48,37,703114308
33,4,2,T1_SMS_8,126,5,42,127,703899100
33,4,2,T1_SMS_8,127,1,48,28,703946200
33,4,2,T1_SMS_8,128,5,42,127,704698832
33,4,2,T1_SMS_8,129,1,48,38,704701728
33,4,2,T1_SMS_8,130,5,42,127,705498492
33,4,2,T1_SMS_8,131,1,48,43,705530108
33,4,2,T1_SMS_8,132,1,48,40,706282552
33,4,2,T1_SMS_8,133,5,42,127,706299488
33,4,2,T1_SMS_8,134,1,48,41,707098504
33,4,2,T1_SMS_8,135,5,42,127,707100368
33,4,2,T1_SMS_8,136,1,48,44,707890720
33,4,2,T1_SMS_8,137,5,42,127,707898680
33,4,2,T1_SMS_8,138,5,42,127,708698572
33,4,2,T1_SMS_8,139,1,48,45,708701840
33,4,2,T1_SMS_8,140,5,42,127,709499428
33,4,2,T1_SMS_8,141,1,48,41,709525732
33,4,2,T1_SMS_8,142,1,48,46,710268900
33,4,2,T1_SMS_8,143,5,42,127,710299080
33,4,2,T1_SMS_8,144,1,48,44,711073716
33,4,2,T1_SMS_8,145,5,42,127,711098812
33,4,2,T1_SMS_8,146,1,48,46,711893796
33,4,2,T1_SMS_8,147,5,42,127,711898620
33,4,2,T1_SMS_8,148,1,48,43,712642220
33,4,2,T1_SMS_8,149,5,42,127,712699176
33,4,2,T1_SMS_8,150,1,48,36,713438064
33,4,2,T1_SMS_8,151,5,42,127,713499232
33,4,2,T1_SMS_8,152,1,48,41,714295040
33,4,2,T1_SMS_8,153,5,42,127,714298964
33,4,2,T1_SMS_8,154,1,48,42,715024840
33,4,2,T1_SMS_8,155,5,42,127,715098552
33,4,2,T1_SMS_8,156,1,48,49,715869304
33,4,2,T1_SMS_8,157,5,42,127,715899256
33,4,2,T1_SMS_8,158,1,48,41,716695664
33,4,2,T1_SMS_8,159,5,42,127,716699064
33,4,2,T1_SMS_8,160,5,42,127,717498880
33,4,2,T1_SMS_8,161,1,48,44,717525852
33,4,2,T1_SMS_8,162,1,48,35,718285932
33,4,2,T1_SMS_8,163,5,42,127,718298384
33,4,2,T1_SMS_8,164,1,48,43,719060680
33,4,2,T1_SMS_8,165,5,42,127,719099164
33,4,2,T1_SMS_8,166,5,42,127,719898928
33,4,2,T1_SMS_8,167,1,48,26,719911024
33,4,2,T1_SMS_8,168,1,48,30,720673784
33,4,2,T1_SMS_8,169,5,42,127,720698880
33,4,2,T1_SMS_8,170,5,42,127,721498616
33,4,2,T1_SMS_8,171,1,48,38,721501216
33,4,2,T1_SMS_8,172,1,48,33,722296364
33,4,2,T1_SMS_8,173,5,42,127,722299240
33,4,2,T1_SMS_8,174,5,42,127,723098984
33,4,2,T1_SMS_8,175,1,48,42,723117212
33,4,2,T1_SMS_8,176,5,42,127,723898788
33,4,2,T1_SMS_8,177,1,48,45,723930480
33,4,2,T1_SMS_8,178,5,42,127,724698600
33,4,2,T1_SMS_8,179,1,48,42,724705156
33,4,2,T1_SMS_8,180,1,48,34,725487220
33,4,2,T1_SMS_8,181,5,42,127,725499372
33,4,2,T1_SMS_8,182,1,48,42,726291916
33,4,2,T1_SMS_8,183,5,42,127,726298984
33,4,2,T1_SMS_8,184,1,48,38,727086940
33,4,2,T1_SMS_8,185,5,42,127,727098868
33,4,2,T1_SMS_8,186,1,48,41,727891832
33,4,2,T1_SMS_8,187,5,42,127,727898452
33,4,2,T1_SMS_8,188,1,48,34,728680648
33,4,2,T1_SMS_8,189,5,42,127,728699380
33,4,2,T1_SMS_8,190,1,48,35,729476420
33,4,2,T1_SMS_8,191,5,42,127,729498888
33,4,2,T1_SMS_8,192,1,48,38,730251016
33,4,2,T1_SMS_8,193,5,42,127,730298624
33,4,2,T1_SMS_8,194,1,48,39,731054036
33,4,2,T1_SMS_8,195,5,42,127,731098356
33,4,2,T1_SMS_8,196,1,48,40,731883392
33,4,2,T1_SMS_8,197,5,42,127,731899508
33,4,2,T1_SMS_8,198,5,42,127,732698976
33,4,2,T1_SMS_8,199,1,48,40,732708380
33,4,2,T1_SMS_8,200,5,42,127,733498784
33,4,2,T1_SMS_8,201,1,48,43,733517312
33,4,2,T1_SMS_8,202,5,42,127,734298516
33,4,2,T1_SMS_8,203,1,48,39,734354140
33,4,2,T1_SMS_8,204,1,48,29,735086316
33,4,2,T1_SMS_8,205,5,42,127,735099216
33,4,2,T1_SMS_8,206,1,48,38,735895320
33,4,2,T1_SMS_8,207,5,42,127,735899096
33,4,2,T1_SMS_8,208,1,48,35,736689148
33,4,2,T1_SMS_8,209,5,42,127,736698756
33,4,2,T1_SMS_8,210,1,48,38,737493072
33,4,2,T1_SMS_8,211,5,42,127,737498416
33,4,2,T1_SMS_8,212,1,48,41,738276952
33,4,2,T1_SMS_8,213,5,42,127,738299272
33,4,2,T1_SMS_8,214,1,48,39,739084388
33,4,2,T1_SMS_8,215,5,42,127,739098956
33,4,2,T1_SMS_8,216,1,48,39,739896952
33,4,2,T1_SMS_8,217,5,42,127,739898764
33,4,2,T1_SMS_8,218,1,48,33,740670640
33,4,2,T1_SMS_8,219,5,42,127,740698424
33,4,2,T1_SMS_8,220,1,48,35,741454892
33,4,2,T1_SMS_8,221,5,42,127,741499204
33,4,2,T1_SMS_8,222,1,48,39,742294336
33,4,2,T1_SMS_8,223,5,42,127,742299088
33,4,2,T1_SMS_8,224,5,42,127,743098828
33,4,2,T1_SMS_8,225,1,48,32,743134856
33,4,2,T1_SMS_8,226,1,48,34,743891932
33,4,2,T1_SMS_8,227,5,42,127,743898328
33,4,2,T1_SMS_8,228,1,48,32,744679252
33,4,2,T1_SMS_8,229,5,42,127,744699112
33,4,2,T1_SMS_8,230,1,48,41,745489484
33,4,2,T1_SMS_8,231,5,42,127,745498940
33,4,2,T1_SMS_8,232,5,42,127,746298684
33,4,2,T1_SMS_8,233,1,48,34,746339500
33,4,2,T1_SMS_8,234,5,42,127,747098640
33,4,2,T1_SMS_8,235,1,48,42,747144616
33,4,2,T1_SMS_8,0,9999,9999,9999,651896952
33,4,2,T1_SMS_8,1,9999,9999,9999,652696636
33,4,2,T1_SMS_8,2,9999,9999,9999,653496388
33,4,2,T1_SMS_8,3,9999,9999,9999,654296144
33,4,2,T1_SMS_8,4,9999,9999,9999,655096948
33,4,2,T1_SMS_8,5,9999,9999,9999,655896700
33,4,2,T1_SMS_8,6,9999,9999,9999,656696432
33,4,2,T1_SMS_8,7,9999,9999,9999,657496164
33,4,2,T1_SMS_8,8,9999,9999,9999,658296944
33,4,2,T1_SMS_8,9,9999,9999,9999,659096676
33,4,2,T1_SMS_8,10,9999,9999,9999,659896412
33,4,2,T1_SMS_8,11,9999,9999,9999,660696144
33,4,2,T1_SMS_8,12,9999,9999,9999,661496924
33,4,2,T1_SMS_8,13,9999,9999,9999,662296688
33,4,2,T1_SMS_8,14,9999,9999,9999,663096416
33,4,2,T1_SMS_8,15,9999,9999,9999,663896156
33,4,2,T1_SMS_8,16,9999,9999,9999,664696932
33,4,2,T1_SMS_8,17,9999,9999,9999,665496664
33,4,2,T1_SMS_8,18,9999,9999,9999,666296400
33,4,2,T1_SMS_8,19,9999,9999,9999,667096132
33,4,2,T1_SMS_8,20,9999,9999,9999,667896912
33,4,2,T1_SMS_8,21,9999,9999,9999,668696672
33,4,2,T1_SMS_8,22,9999,9999,9999,669496404
33,4,2,T1_SMS_8,23,9999,9999,9999,670296140
33,4,2,T1_SMS_8,24,9999,9999,9999,671096920
33,4,2,T1_SMS_8,25,9999,9999,9999,671896660
33,4,2,T1_SMS_8,26,9999,9999,9999,672696412
33,4,2,T1_SMS_8,27,9999,9999,9999,673496128
33,4,2,T1_SMS_8,28,9999,9999,9999,674296904
33,4,2,T1_SMS_8,29,9999,9999,9999,675096664
33,4,2,T1_SMS_8,30,9999,9999,9999,675896392
33,4,2,T1_SMS_8,31,9999,9999,9999,676696124
33,4,2,T1_SMS_8,32,9999,9999,9999,677496904
33,4,2,T1_SMS_8,33,9999,9999,9999,678296640
33,4,2,T1_SMS_8,34,9999,9999,9999,679096376
33,4,2,T1_SMS_8,35,9999,9999,9999,679896180
33,4,2,T1_SMS_8,36,9999,9999,9999,680696888
33,4,2,T1_SMS_8,37,9999,9999,9999,681496644
33,4,2,T1_SMS_8,38,9999,9999,9999,682296380
33,4,2,T1_SMS_8,39,9999,9999,9999,683096188
33,4,2,T1_SMS_8,40,9999,9999,9999,683896892
33,4,2,T1_SMS_8,41,9999,9999,9999,684696624
33,4,2,T1_SMS_8,42,9999,9999,9999,685496432
33,4,2,T1_SMS_8,43,9999,9999,9999,686296168
33,4,2,T1_SMS_8,44,9999,9999,9999,687096952
33,4,2,T1_SMS_8,45,9999,9999,9999,687896636
33,4,2,T1_SMS_8,46,9999,9999,9999,688696436
33,4,2,T1_SMS_8,47,9999,9999,9999,689496168
33,4,2,T1_SMS_8,48,9999,9999,9999,690296952
33,4,2,T1_SMS_8,49,9999,9999,9999,691096692
33,4,2,T1_SMS_8,50,9999,9999,9999,691896416
33,4,2,T1_SMS_8,51,9999,9999,9999,692696156
33,4,2,T1_SMS_8,52,9999,9999,9999,693496936
33,4,2,T1_SMS_8,53,9999,9999,9999,694296688
33,4,2,T1_SMS_8,54,9999,9999,9999,695096424
33,4,2,T1_SMS_8,55,9999,9999,9999,695896156
33,4,2,T1_SMS_8,56,9999,9999,9999,696696936
33,4,2,T1_SMS_8,57,9999,9999,9999,697496676
33,4,2,T1_SMS_8,58,9999,9999,9999,698296412
33,4,2,T1_SMS_8,59,9999,9999,9999,699096148
33,4,2,T1_SMS_8,60,9999,9999,9999,699896924
33,4,2,T1_SMS_8,61,9999,9999,9999,700696684
33,4,2,T1_SMS_8,62,9999,9999,9999,701496416
33,4,2,T1_SMS_8,63,9999,9999,9999,702296144
33,4,2,T1_SMS_8,64,9999,9999,9999,703096932
33,4,2,T1_SMS_8,65,9999,9999,9999,703896664
33,4,2,T1_SMS_8,66,9999,9999,9999,704696396
33,4,2,T1_SMS_8,67,9999,9999,9999,705496128
33,4,2,T1_SMS_8,68,9999,9999,9999,706296904
33,4,2,T1_SMS_8,69,9999,9999,9999,707096668
33,4,2,T1_SMS_8,70,9999,9999,9999,707896396
33,4,2,T1_SMS_8,71,9999,9999,9999,708696136
33,4,2,T1_SMS_8,72,9999,9999,9999,709496916
33,4,2,T1_SMS_8,73,9999,9999,9999,710296644
33,4,2,T1_SMS_8,74,9999,9999,9999,711096376
33,4,2,T1_SMS_8,75,9999,9999,9999,711896184
33,4,2,T1_SMS_8,76,9999,9999,9999,712696888
33,4,2,T1_SMS_8,77,9999,9999,9999,713496648
33,4,2,T1_SMS_8,78,9999,9999,9999,714296380
33,4,2,T1_SMS_8,79,9999,9999,9999,715096116
33,4,2,T1_SMS_8,80,9999,9999,9999,715896892
33,4,2,T1_SMS_8,81,9999,9999,9999,716696628
33,4,2,T1_SMS_8,82,9999,9999,9999,717496444
33,4,2,T1_SMS_8,83,9999,9999,9999,718296168
33,4,2,T1_SMS_8,84,9999,9999,9999,719096948
33,4,2,T1_SMS_8,85,9999,9999,9999,719896640
33,4,2,T1_SMS_8,86,9999,9999,9999,720696440
33,4,2,T1_SMS_8,87,9999,9999,9999,721496180
33,4,2,T1_SMS_8,88,9999,9999,9999,722296952
33,4,2,T1_SMS_8,89,9999,9999,9999,723096696
33,4,2,T1_SMS_8,90,9999,9999,9999,723896428
33,4,2,T1_SMS_8,91,9999,9999,9999,724696160
33,4,2,T1_SMS_8,92,9999,9999,9999,725496936
33,4,2,T1_SMS_8,93,9999,9999,9999,726296696
33,4,2,T1_SMS_8,94,9999,9999,9999,727096428
33,4,2,T1_SMS_8,95,9999,9999,9999,727896164
33,4,2,T1_SMS_8,96,9999,9999,9999,728696944
33,4,2,T1_SMS_8,97,9999,9999,9999,729496676
33,4,2,T1_SMS_8,98,9999,9999,9999,730296412
33,4,2,T1_SMS_8,99,9999,9999,9999,731096144
33,4,2,T1_SMS_8,100,9999,9999,9999,731896924
33,4,2,T1_SMS_8,101,9999,9999,9999,732696688
33,4,2,T1_SMS_8,102,9999,9999,9999,733496420
33,4,2,T1_SMS_8,103,9999,9999,9999,734296156
33,4,2,T1_SMS_8,104,9999,9999,9999,735096928
33,4,2,T1_SMS_8,105,9999,9999,9999,735896660
33,4,2,T1_SMS_8,106,9999,9999,9999,736696396
33,4,2,T1_SMS_8,107,9999,9999,9999,737496128
33,4,2,T1_SMS_8,108,9999,9999,9999,738296912
33,4,2,T1_SMS_8,109,9999,9999,9999,739096668
33,4,2,T1_SMS_8,110,9999,9999,9999,739896428
33,4,2,T1_SMS_8,111,9999,9999,9999,740696136
33,4,2,T1_SMS_8,112,9999,9999,9999,741496916
33,4,2,T1_SMS_8,113,9999,9999,9999,742296648
33,4,2,T1_SMS_8,114,9999,9999,9999,743096392
33,4,2,T1_SMS_8,115,9999,9999,9999,743896116
33,4,2,T1_SMS_8,116,9999,9999,9999,744696896
33,4,2,T1_SMS_8,117,9999,9999,9999,745496652
33,4,2,T1_SMS_8,118,9999,9999,9999,746296396
33,4,2,T1_SMS_8,119,9999,9999,9999,747096128
33,5,10,Ticks_ISO_T2_5,0,5,42,127,764086588
33,5,10,Ticks_ISO_T2_5,1,5,42,127,764587352
33,5,10,Ticks_ISO_T2_5,2,5,42,127,765087068
33,5,10,Ticks_ISO_T2_5,3,5,42,127,765586936
33,5,10,Ticks_ISO_T2_5,4,5,42,127,766086724
33,5,10,Ticks_ISO_T2_5,5,1,48,42,766099868
33,5,10,Ticks_ISO_T2_5,6,1,48,40,766587468
33,5,10,Ticks_ISO_T2_5,7,5,42,127,766589032
33,5,10,Ticks_ISO_T2_5,8,1,48,37,767081888
33,5,10,Ticks_ISO_T2_5,9,5,42,127,767087080
33,5,10,Ticks_ISO_T2_5,10,5,42,127,767586784
33,5,10,Ticks_ISO_T2_5,11,1,48,31,767604788
33,5,10,Ticks_ISO_T2_5,12,5,42,127,768087376
33,5,10,Ticks_ISO_T2_5,13,1,48,39,768107324
33,5,10,Ticks_ISO_T2_5,14,5,42,127,768587072
33,5,10,Ticks_ISO_T2_5,15,1,48,39,768598716
33,5,10,Ticks_ISO_T2_5,16,5,42,127,769086768
33,5,10,Ticks_ISO_T2_5,17,1,48,39,769091680
33,5,10,Ticks_ISO_T2_5,18,1,48,34,769580884
33,5,10,Ticks_ISO_T2_5,19,5,42,127,769586752
33,5,10,Ticks_ISO_T2_5,20,1,48,38,770065916
33,5,10,Ticks_ISO_T2_5,21,5,42,127,770087344
33,5,10,Ticks_ISO_T2_5,22,1,48,36,770571148
33,5,10,Ticks_ISO_T2_5,23,5,42,127,770586892
33,5,10,Ticks_ISO_T2_5,24,1,48,38,771082416
33,5,10,Ticks_ISO_T2_5,25,5,42,127,771086636
33,5,10,Ticks_ISO_T2_5,26,1,48,33,771584644
33,5,10,Ticks_ISO_T2_5,27,5,42,127,771586456
33,5,10,Ticks_ISO_T2_5,28,1,48,37,772079088
33,5,10,Ticks_ISO_T2_5,29,5,42,127,772087048
33,5,10,Ticks_ISO_T2_5,30,5,42,127,772586824
33,5,10,Ticks_ISO_T2_5,31,1,48,35,772612828
33,5,10,Ticks_ISO_T2_5,32,5,42,127,773086520
33,5,10,Ticks_ISO_T2_5,33,1,48,32,773098912
33,5,10,Ticks_ISO_T2_5,34,1,48,30,773581460
33,5,10,Ticks_ISO_T2_5,35,5,42,127,773587552
33,5,10,Ticks_ISO_T2_5,36,1,48,38,774081008
33,5,10,Ticks_ISO_T2_5,37,5,42,127,774086952
33,5,10,Ticks_ISO_T2_5,38,5,42,127,774586804
33,5,10,Ticks_ISO_T2_5,39,1,48,33,774593212
33,5,10,Ticks_ISO_T2_5,40,1,48,29,775082640
33,5,10,Ticks_ISO_T2_5,41,5,42,127,775086564
33,5,10,Ticks_ISO_T2_5,42,5,42,127,775587312
33,5,10,Ticks_ISO_T2_5,43,1,48,30,775630000
33,5,10,Ticks_ISO_T2_5,44,5,42,127,776086784
33,5,10,Ticks_ISO_T2_5,45,1,48,35,776102688
33,5,10,Ticks_ISO_T2_5,46,5,42,127,776586556
33,5,10,Ticks_ISO_T2_5,47,1,48,39,776608224
33,5,10,Ticks_ISO_T2_5,48,5,42,127,777087372
33,5,10,Ticks_ISO_T2_5,49,1,48,36,777097072
33,5,10,Ticks_ISO_T2_5,50,1,48,38,777579396
33,5,10,Ticks_ISO_T2_5,51,5,42,127,777586988
33,5,10,Ticks_ISO_T2_5,52,1,48,35,778084864
33,5,10,Ticks_ISO_T2_5,53,5,42,127,778086680
33,5,10,Ticks_ISO_T2_5,54,1,48,39,778578336
33,5,10,Ticks_ISO_T2_5,55,5,42,127,778586524
33,5,10,Ticks_ISO_T2_5,56,5,42,127,779087272
33,5,10,Ticks_ISO_T2_5,57,1,48,38,779090908
33,5,10,Ticks_ISO_T2_5,58,5,42,127,779586892
33,5,10,Ticks_ISO_T2_5,59,1,48,36,779601824
33,5,10,Ticks_ISO_T2_5,60,5,42,127,780086588
33,5,10,Ticks_ISO_T2_5,61,1,48,37,780116776
33,5,10,Ticks_ISO_T2_5,62,5,42,127,780587328
33,5,10,Ticks_ISO_T2_5,63,1,48,33,780601964
33,5,10,Ticks_ISO_T2_5,64,5,42,127,781087244
33,5,10,Ticks_ISO_T2_5,65,1,48,36,781098664
33,5,10,Ticks_ISO_T2_5,66,5,42,127,781586868
33,5,10,Ticks_ISO_T2_5,67,1,48,33,781593052
33,5,10,Ticks_ISO_T2_5,68,1,48,39,782069144
33,5,10,Ticks_ISO_T2_5,69,5,42,127,782086604
33,5,10,Ticks_ISO_T2_5,70,1,48,35,782583792
33,5,10,Ticks_ISO_T2_5,71,5,42,127,782587200
33,5,10,Ticks_ISO_T2_5,72,5,42,127,783087048
33,5,10,Ticks_ISO_T2_5,73,1,48,28,783123252
33,5,10,Ticks_ISO_T2_5,74,1,48,35,783572044
33,5,10,Ticks_ISO_T2_5,75,5,42,127,783586588
33,5,10,Ticks_ISO_T2_5,76,1,48,37,784064180
33,5,10,Ticks_ISO_T2_5,77,5,42,127,784087332
33,5,10,Ticks_ISO_T2_5,78,1,48,33,784584144
33,5,10,Ticks_ISO_T2_5,79,5,42,127,784587172
33,5,10,Ticks_ISO_T2_5,80,5,42,127,785086876
33,5,10,Ticks_ISO_T2_5,81,1,48,38,785088212
33,5,10,Ticks_ISO_T2_5,82,5,42,127,785586496
33,5,10,Ticks_ISO_T2_5,83,1,48,40,785606968
33,5,10,Ticks_ISO_T2_5,84,1,48,30,786056904
33,5,10,Ticks_ISO_T2_5,85,5,42,127,786087304
33,5,10,Ticks_ISO_T2_5,86,5,42,127,786587080
33,5,10,Ticks_ISO_T2_5,87,1,48,40,786592144
33,5,10,Ticks_ISO_T2_5,88,1,48,39,787077980
33,5,10,Ticks_ISO_T2_5,89,5,42,127,787087140
33,5,10,Ticks_ISO_T2_5,90,1,48,42,787567280
33,5,10,Ticks_ISO_T2_5,91,5,42,127,787586316
33,5,10,Ticks_ISO_T2_5,92,1,48,39,788085928
33,5,10,Ticks_ISO_T2_5,93,5,42,127,788087576
33,5,10,Ticks_ISO_T2_5,94,1,48,35,788584168
33,5,10,Ticks_ISO_T2_5,95,5,42,127,788586824
33,5,10,Ticks_ISO_T2_5,96,5,42,127,789086676
33,5,10,Ticks_ISO_T2_5,97,1,48,32,789098996
33,5,10,Ticks_ISO_T2_5,98,1,48,33,789581464
33,5,10,Ticks_ISO_T2_5,99,5,42,127,789587264
33,5,10,Ticks_ISO_T2_5,100,5,42,127,790086964
33,5,10,Ticks_ISO_T2_5,101,1,48,37,790103172
33,5,10,Ticks_ISO_T2_5,102,5,42,127,790586956
33,5,10,Ticks_ISO_T2_5,103,1,48,42,790619696
33,5,10,Ticks_ISO_T2_5,104,1,48,35,791050708
33,5,10,Ticks_ISO_T2_5,105,5,42,127,791086420
33,5,10,Ticks_ISO_T2_5,106,1,48,33,791557708
33,5,10,Ticks_ISO_T2_5,107,5,42,127,791587236
33,5,10,Ticks_ISO_T2_5,108,1,48,36,792083904
33,5,10,Ticks_ISO_T2_5,109,5,42,127,792087008
33,5,10,Ticks_ISO_T2_5,110,1,48,40,792584640
33,5,10,Ticks_ISO_T2_5,111,5,42,127,792586528
33,5,10,Ticks_ISO_T2_5,112,5,42,127,793087404
33,5,10,Ticks_ISO_T2_5,113,1,48,40,793110292
33,5,10,Ticks_ISO_T2_5,114,5,42,127,793587024
33,5,10,Ticks_ISO_T2_5,115,1,48,40,793591708
33,5,10,Ticks_ISO_T2_5,116,1,48,37,794056836
33,5,10,Ticks_ISO_T2_5,117,5,42,127,794086860
33,5,10,Ticks_ISO_T2_5,118,1,48,38,794569240
33,5,10,Ticks_ISO_T2_5,119,5,42,127,794586628
33,5,10,Ticks_ISO_T2_5,120,1,48,38,795083820
33,5,10,Ticks_ISO_T2_5,121,5,42,127,795087072
33,5,10,Ticks_ISO_T2_5,122,1,48,40,795583812
33,5,10,Ticks_ISO_T2_5,123,5,42,127,795586916
33,5,10,Ticks_ISO_T2_5,124,1,48,35,796084640
33,5,10,Ticks_ISO_T2_5,125,5,42,127,796086612
33,5,10,Ticks_ISO_T2_5,126,5,42,127,796587508
33,5,10,Ticks_ISO_T2_5,127,1,48,33,796619200
33,5,10,Ticks_ISO_T2_5,128,1,48,35,797070104
33,5,10,Ticks_ISO_T2_5,129,5,42,127,797087120
33,5,10,Ticks_ISO_T2_5,130,1,48,35,797528960
33,5,10,Ticks_ISO_T2_5,131,5,42,127,797586740
33,5,10,Ticks_ISO_T2_5,132,1,48,38,798068372
33,5,10,Ticks_ISO_T2_5,133,5,42,127,798086584
33,5,10,Ticks_ISO_T2_5,134,1,48,38,798570908
33,5,10,Ticks_ISO_T2_5,135,5,42,127,798587400
33,5,10,Ticks_ISO_T2_5,136,1,48,31,799083992
33,5,10,Ticks_ISO_T2_5,137,5,42,127,799086944
33,5,10,Ticks_ISO_T2_5,138,1,48,32,799571940
33,5,10,Ticks_ISO_T2_5,139,5,42,127,799586860
33,5,10,Ticks_ISO_T2_5,140,1,48,32,800046284
33,5,10,Ticks_ISO_T2_5,141,5,42,127,800087604
33,5,10,Ticks_ISO_T2_5,142,1,48,30,800552632
33,5,10,Ticks_ISO_T2_5,143,5,42,127,800587224
33,5,10,Ticks_ISO_T2_5,144,1,48,35,801070804
33,5,10,Ticks_ISO_T2_5,145,5,42,127,801086772
33,5,10,Ticks_ISO_T2_5,146,1,48,38,801577976
33,5,10,Ticks_ISO_T2_5,147,5,42,127,801586616
33,5,10,Ticks_ISO_T2_5,148,1,48,30,802078196
33,5,10,Ticks_ISO_T2_5,149,5,42,127,802087208
33,5,10,Ticks_ISO_T2_5,150,5,42,127,802587280
33,5,10,Ticks_ISO_T2_5,151,1,48,29,802591448
33,5,10,Ticks_ISO_T2_5,152,1,48,34,803016596
33,5,10,Ticks_ISO_T2_5,153,5,42,127,803086748
33,5,10,Ticks_ISO_T2_5,154,1,48,34,803581148
33,5,10,Ticks_ISO_T2_5,155,5,42,127,803586416
33,5,10,Ticks_ISO_T2_5,156,5,42,127,804087164
33,5,10,Ticks_ISO_T2_5,157,1,48,46,804096420
33,5,10,Ticks_ISO_T2_5,158,1,48,46,804569244
33,5,10,Ticks_ISO_T2_5,159,5,42,127,804587372
33,5,10,Ticks_ISO_T2_5,160,1,48,45,805063324
33,5,10,Ticks_ISO_T2_5,161,5,42,127,805086624
33,5,10,Ticks_ISO_T2_5,162,1,48,43,805565488
33,5,10,Ticks_ISO_T2_5,163,5,42,127,805587288
33,5,10,Ticks_ISO_T2_5,164,1,48,46,806070264
33,5,10,Ticks_ISO_T2_5,165,5,42,127,806087280
33,5,10,Ticks_ISO_T2_5,166,1,48,46,806582532
33,5,10,Ticks_ISO_T2_5,167,5,42,127,806586680
33,5,10,Ticks_ISO_T2_5,168,1,48,35,807045944
33,5,10,Ticks_ISO_T2_5,169,5,42,127,807086376
33,5,10,Ticks_ISO_T2_5,170,1,48,36,807570248
33,5,10,Ticks_ISO_T2_5,171,5,42,127,807587044
33,5,10,Ticks_ISO_T2_5,172,5,42,127,808086968
33,5,10,Ticks_ISO_T2_5,173,1,48,39,808097192
33,5,10,Ticks_ISO_T2_5,174,5,42,127,808586588
33,5,10,Ticks_ISO_T2_5,175,1,48,42,808631068
33,5,10,Ticks_ISO_T2_5,176,1,48,28,809071956
33,5,10,Ticks_ISO_T2_5,177,5,42,127,809087396
33,5,10,Ticks_ISO_T2_5,178,1,48,35,809562744
33,5,10,Ticks_ISO_T2_5,179,5,42,127,809587164
33,5,10,Ticks_ISO_T2_5,180,5,42,127,810086868
33,5,10,Ticks_ISO_T2_5,181,1,48,43,810094624
33,5,10,Ticks_ISO_T2_5,182,5,42,127,810586412
33,5,10,Ticks_ISO_T2_5,183,1,48,46,810613536
33,5,10,Ticks_ISO_T2_5,184,5,42,127,811087080
33,5,10,Ticks_ISO_T2_5,185,1,48,24,811088044
33,5,10,Ticks_ISO_T2_5,186,5,42,127,811586848
33,5,10,Ticks_ISO_T2_5,187,1,48,39,811590560
33,5,10,Ticks_ISO_T2_5,188,5,42,127,812086840
33,5,10,Ticks_ISO_T2_5,189,1,48,39,812099984
33,5,10,Ticks_ISO_T2_5,190,1,48,42,812575420
33,5,10,Ticks_ISO_T2_5,191,5,42,127,812587276
33,5,10,Ticks_ISO_T2_5,192,1,48,39,813062752
33,5,10,Ticks_ISO_T2_5,193,5,42,127,813087196
33,5,10,Ticks_ISO_T2_5,194,1,48,42,813575860
33,5,10,Ticks_ISO_T2_5,195,5,42,127,813586892
33,5,10,Ticks_ISO_T2_5,196,5,42,127,814086640
33,5,10,Ticks_ISO_T2_5,197,1,48,42,814092328
33,5,10,Ticks_ISO_T2_5,198,5,42,127,814587232
33,5,10,Ticks_ISO_T2_5,199,1,48,37,814592520
33,5,10,Ticks_ISO_T2_5,200,1,48,35,815070432
33,5,10,Ticks_ISO_T2_5,201,5,42,127,815086996
33,5,10,Ticks_ISO_T2_5,202,1,48,30,815573268
33,5,10,Ticks_ISO_T2_5,203,5,42,127,815586840
33,5,10,Ticks_ISO_T2_5,204,1,48,39,816057704
33,5,10,Ticks_ISO_T2_5,205,5,42,127,816087508
33,5,10,Ticks_ISO_T2_5,206,5,42,127,816586984
33,5,10,Ticks_ISO_T2_5,207,1,48,40,816588396
33,5,10,Ticks_ISO_T2_5,208,5,42,127,817086756
33,5,10,Ticks_ISO_T2_5,209,1,48,37,817095704
33,5,10,Ticks_ISO_T2_5,210,5,42,127,817586672
33,5,10,Ticks_ISO_T2_5,211,1,48,40,817605048
33,5,10,Ticks_ISO_T2_5,212,1,48,38,818067552
33,5,10,Ticks_ISO_T2_5,213,5,42,127,818087404
33,5,10,Ticks_ISO_T2_5,214,1,48,30,818570012
33,5,10,Ticks_ISO_T2_5,215,5,42,127,818586876
33,5,10,Ticks_ISO_T2_5,216,5,42,127,819086580
33,5,10,Ticks_ISO_T2_5,217,1,48,35,819099048
33,5,10,Ticks_ISO_T2_5,218,1,48,34,819581888
33,5,10,Ticks_ISO_T2_5,219,5,42,127,819586712
33,5,10,Ticks_ISO_T2_5,220,5,42,127,820087240
33,5,10,Ticks_ISO_T2_5,221,1,48,31,820091848
33,5,10,Ticks_ISO_T2_5,222,5,42,127,820587008
33,5,10,Ticks_ISO_T2_5,223,1,48,38,820597008
33,5,10,Ticks_ISO_T2_5,224,1,48,35,821057568
33,5,10,Ticks_ISO_T2_5,225,5,42,127,821086548
33,5,10,Ticks_ISO_T2_5,226,1,48,37,821551500
33,5,10,Ticks_ISO_T2_5,227,5,42,127,821587512
33,5,10,Ticks_ISO_T2_5,228,1,48,38,822069448
33,5,10,Ticks_ISO_T2_5,229,5,42,127,822086984
33,5,10,Ticks_ISO_T2_5,230,5,42,127,822586612
33,5,10,Ticks_ISO_T2_5,231,1,48,36,822592344
33,5,10,Ticks_ISO_T2_5,232,5,42,127,823086528
33,5,10,Ticks_ISO_T2_5,233,1,48,36,823091516
33,5,10,Ticks_ISO_T2_5,234,5,42,127,823587344
33,5,10,Ticks_ISO_T2_5,235,1,48,45,823596224
33,5,10,Ticks_ISO_T2_5,236,5,42,127,824086892
33,5,10,Ticks_ISO_T2_5,237,1,48,49,824106388
33,5,10,Ticks_ISO_T2_5,238,5,42,127,824586512
33,5,10,Ticks_ISO_T2_5,239,1,48,37,824616628
33,5,10,Ticks_ISO_T2_5,240,1,48,46,825075512
33,5,10,Ticks_ISO_T2_5,241,5,42,127,825087444
33,5,10,Ticks_ISO_T2_5,242,1,48,46,825566388
33,5,10,Ticks_ISO_T2_5,243,5,42,127,825586992
33,5,10,Ticks_ISO_T2_5,244,1,48,44,826076024
33,5,10,Ticks_ISO_T2_5,245,5,42,127,826086684
33,5,10,Ticks_ISO_T2_5,246,1,48,43,826578936
33,5,10,Ticks_ISO_T2_5,247,5,42,127,826586528
33,5,10,Ticks_ISO_T2_5,248,5,42,127,827087352
33,5,10,Ticks_ISO_T2_5,249,1,48,40,827102136
33,5,10,Ticks_ISO_T2_5,250,5,42,127,827587196
33,5,10,Ticks_ISO_T2_5,251,1,48,42,827598020
33,5,10,Ticks_ISO_T2_5,252,5,42,127,828086592
33,5,10,Ticks_ISO_T2_5,253,1,48,38,828104068
33,5,10,Ticks_ISO_T2_5,254,5,42,127,828587408
33,5,10,Ticks_ISO_T2_5,255,1,48,42,828613188
33,5,10,Ticks_ISO_T2_5,0,9999,9999,9999,764084300
33,5,10,Ticks_ISO_T2_5,1,9999,9999,9999,764585060
33,5,10,Ticks_ISO_T2_5,2,9999,9999,9999,765084780
33,5,10,Ticks_ISO_T2_5,3,9999,9999,9999,765584496
33,5,10,Ticks_ISO_T2_5,4,9999,9999,9999,766084212
33,5,10,Ticks_ISO_T2_5,5,9999,9999,9999,766584952
33,5,10,Ticks_ISO_T2_5,6,9999,9999,9999,767084644
33,5,10,Ticks_ISO_T2_5,7,9999,9999,9999,767584344
33,5,10,Ticks_ISO_T2_5,8,9999,9999,9999,768085088
33,5,10,Ticks_ISO_T2_5,9,9999,9999,9999,768584780
33,5,10,Ticks_ISO_T2_5,10,9999,9999,9999,769084476
33,5,10,Ticks_ISO_T2_5,11,9999,9999,9999,769584240
33,5,10,Ticks_ISO_T2_5,12,9999,9999,9999,770084980
33,5,10,Ticks_ISO_T2_5,13,9999,9999,9999,770584676
33,5,10,Ticks_ISO_T2_5,14,9999,9999,9999,771084348
33,5,10,Ticks_ISO_T2_5,15,9999,9999,9999,771584116
33,5,10,Ticks_ISO_T2_5,16,9999,9999,9999,772084836
33,5,10,Ticks_ISO_T2_5,17,9999,9999,9999,772584536
33,5,10,Ticks_ISO_T2_5,18,9999,9999,9999,773084232
33,5,10,Ticks_ISO_T2_5,19,9999,9999,9999,773584964
33,5,10,Ticks_ISO_T2_5,20,9999,9999,9999,774084660
33,5,10,Ticks_ISO_T2_5,21,9999,9999,9999,774584440
33,5,10,Ticks_ISO_T2_5,22,9999,9999,9999,775084128
33,5,10,Ticks_ISO_T2_5,23,9999,9999,9999,775584872
33,5,10,Ticks_ISO_T2_5,24,9999,9999,9999,776084568
33,5,10,Ticks_ISO_T2_5,25,9999,9999,9999,776584264
33,5,10,Ticks_ISO_T2_5,26,9999,9999,9999,777085008
33,5,10,Ticks_ISO_T2_5,27,9999,9999,9999,777584696
33,5,10,Ticks_ISO_T2_5,28,9999,9999,9999,778084416
33,5,10,Ticks_ISO_T2_5,29,9999,9999,9999,778584160
33,5,10,Ticks_ISO_T2_5,30,9999,9999,9999,779084908
33,5,10,Ticks_ISO_T2_5,31,9999,9999,9999,779584600
33,5,10,Ticks_ISO_T2_5,32,9999,9999,9999,780084296
33,5,10,Ticks_ISO_T2_5,33,9999,9999,9999,780585036
33,5,10,Ticks_ISO_T2_5,34,9999,9999,9999,781084732
33,5,10,Ticks_ISO_T2_5,35,9999,9999,9999,781584504
33,5,10,Ticks_ISO_T2_5,36,9999,9999,9999,782084164
33,5,10,Ticks_ISO_T2_5,37,9999,9999,9999,782584908
33,5,10,Ticks_ISO_T2_5,38,9999,9999,9999,783084608
33,5,10,Ticks_ISO_T2_5,39,9999,9999,9999,783584372
33,5,10,Ticks_ISO_T2_5,40,9999,9999,9999,784085040
33,5,10,Ticks_ISO_T2_5,41,9999,9999,9999,784584808
33,5,10,Ticks_ISO_T2_5,42,9999,9999,9999,785084512
33,5,10,Ticks_ISO_T2_5,43,9999,9999,9999,785584208
33,5,10,Ticks_ISO_T2_5,44,9999,9999,9999,786084940
33,5,10,Ticks_ISO_T2_5,45,9999,9999,9999,786584644
33,5,10,Ticks_ISO_T2_5,46,9999,9999,9999,787084404
33,5,10,Ticks_ISO_T2_5,47,9999,9999,9999,787584100
33,5,10,Ticks_ISO_T2_5,48,9999,9999,9999,788084848
33,5,10,Ticks_ISO_T2_5,49,9999,9999,9999,788584536
33,5,10,Ticks_ISO_T2_5,50,9999,9999,9999,789084236
33,5,10,Ticks_ISO_T2_5,51,9999,9999,9999,789584972
33,5,10,Ticks_ISO_T2_5,52,9999,9999,9999,790084672
33,5,10,Ticks_ISO_T2_5,53,9999,9999,9999,790584368
33,5,10,Ticks_ISO_T2_5,54,9999,9999,9999,791084132
33,5,10,Ticks_ISO_T2_5,55,9999,9999,9999,791584872
33,5,10,Ticks_ISO_T2_5,56,9999,9999,9999,792084568
33,5,10,Ticks_ISO_T2_5,57,9999,9999,9999,792584268
33,5,10,Ticks_ISO_T2_5,58,9999,9999,9999,793085036
33,5,10,Ticks_ISO_T2_5,59,9999,9999,9999,793584736
33,5,10,Ticks_ISO_T2_5,60,9999,9999,9999,794084420
33,5,10,Ticks_ISO_T2_5,61,9999,9999,9999,794584116
33,5,10,Ticks_ISO_T2_5,62,9999,9999,9999,795084856
33,5,10,Ticks_ISO_T2_5,63,9999,9999,9999,795584624
33,5,10,Ticks_ISO_T2_5,64,9999,9999,9999,796084360
33,5,10,Ticks_ISO_T2_5,65,9999,9999,9999,796585068
33,5,10,Ticks_ISO_T2_5,66,9999,9999,9999,797084756
33,5,10,Ticks_ISO_T2_5,67,9999,9999,9999,797584452
33,5,10,Ticks_ISO_T2_5,68,9999,9999,9999,798084144
33,5,10,Ticks_ISO_T2_5,69,9999,9999,9999,798584884
33,5,10,Ticks_ISO_T2_5,70,9999,9999,9999,799084652
33,5,10,Ticks_ISO_T2_5,71,9999,9999,9999,799584348
33,5,10,Ticks_ISO_T2_5,72,9999,9999,9999,800085092
33,5,10,Ticks_ISO_T2_5,73,9999,9999,9999,800584784
33,5,10,Ticks_ISO_T2_5,74,9999,9999,9999,801084480
33,5,10,Ticks_ISO_T2_5,75,9999,9999,9999,801584176
33,5,10,Ticks_ISO_T2_5,76,9999,9999,9999,802084920
33,5,10,Ticks_ISO_T2_5,77,9999,9999,9999,802584696
33,5,10,Ticks_ISO_T2_5,78,9999,9999,9999,803084384
33,5,10,Ticks_ISO_T2_5,79,9999,9999,9999,803584052
33,5,10,Ticks_ISO_T2_5,80,9999,9999,9999,804084800
33,5,10,Ticks_ISO_T2_5,81,9999,9999,9999,804584564
33,5,10,Ticks_ISO_T2_5,82,9999,9999,9999,805084260
33,5,10,Ticks_ISO_T2_5,83,9999,9999,9999,805585000
33,5,10,Ticks_ISO_T2_5,84,9999,9999,9999,806084692
33,5,10,Ticks_ISO_T2_5,85,9999,9999,9999,806584388
33,5,10,Ticks_ISO_T2_5,86,9999,9999,9999,807084084
33,5,10,Ticks_ISO_T2_5,87,9999,9999,9999,807584828
33,5,10,Ticks_ISO_T2_5,88,9999,9999,9999,808084528
33,5,10,Ticks_ISO_T2_5,89,9999,9999,9999,808584300
33,5,10,Ticks_ISO_T2_5,90,9999,9999,9999,809085032
33,5,10,Ticks_ISO_T2_5,91,9999,9999,9999,809584728
33,5,10,Ticks_ISO_T2_5,92,9999,9999,9999,810084428
33,5,10,Ticks_ISO_T2_5,93,9999,9999,9999,810584124
33,5,10,Ticks_ISO_T2_5,94,9999,9999,9999,811084864
33,5,10,Ticks_ISO_T2_5,95,9999,9999,9999,811584632
33,5,10,Ticks_ISO_T2_5,96,9999,9999,9999,812084328
33,5,10,Ticks_ISO_T2_5,97,9999,9999,9999,812585060
33,5,10,Ticks_ISO_T2_5,98,9999,9999,9999,813084756
33,5,10,Ticks_ISO_T2_5,99,9999,9999,9999,813584452
33,5,10,Ticks_ISO_T2_5,100,9999,9999,9999,814084204
33,5,10,Ticks_ISO_T2_5,101,9999,9999,9999,814584944
33,5,10,Ticks_ISO_T2_5,102,9999,9999,9999,815084632
33,5,10,Ticks_ISO_T2_5,103,9999,9999,9999,815584328
33,5,10,Ticks_ISO_T2_5,104,9999,9999,9999,816085068
33,5,10,Ticks_ISO_T2_5,105,9999,9999,9999,816584768
33,5,10,Ticks_ISO_T2_5,106,9999,9999,9999,817084464
33,5,10,Ticks_ISO_T2_5,107,9999,9999,9999,817584232
33,5,10,Ticks_ISO_T2_5,108,9999,9999,9999,818084968
33,5,10,Ticks_ISO_T2_5,109,9999,9999,9999,818584664
33,5,10,Ticks_ISO_T2_5,110,9999,9999,9999,819084364
33,5,10,Ticks_ISO_T2_5,111,9999,9999,9999,819584052
33,5,10,Ticks_ISO_T2_5,112,9999,9999,9999,820084800
33,5,10,Ticks_ISO_T2_5,113,9999,9999,9999,820584568
33,5,10,Ticks_ISO_T2_5,114,9999,9999,9999,821084256
33,5,10,Ticks_ISO_T2_5,115,9999,9999,9999,821585000
33,5,10,Ticks_ISO_T2_5,116,9999,9999,9999,822084692
33,5,10,Ticks_ISO_T2_5,117,9999,9999,9999,822584396
33,5,10,Ticks_ISO_T2_5,118,9999,9999,9999,823084088
33,5,10,Ticks_ISO_T2_5,119,9999,9999,9999,823584832
33,5,10,Ticks_ISO_T2_5,120,9999,9999,9999,824084600
33,5,10,Ticks_ISO_T2_5,121,9999,9999,9999,824584296
33,5,10,Ticks_ISO_T2_5,122,9999,9999,9999,825085004
33,5,10,Ticks_ISO_T2_5,123,9999,9999,9999,825584700
33,5,10,Ticks_ISO_T2_5,124,9999,9999,9999,826084468
33,5,10,Ticks_ISO_T2_5,125,9999,9999,9999,826584164
33,5,10,Ticks_ISO_T2_5,126,9999,9999,9999,827084912
33,5,10,Ticks_ISO_T2_5,127,9999,9999,9999,827584608
33,5,10,Ticks_ISO_T2_5,128,9999,9999,9999,828084300
33,5,10,Ticks_ISO_T2_5,129,9999,9999,9999,828585040
33,6,9,Ticks_ISO_T2_8,0,5,42,127,843555292
33,6,9,Ticks_ISO_T2_8,1,5,42,127,844354900
33,6,9,Ticks_ISO_T2_8,2,5,42,127,845154728
33,6,9,Ticks_ISO_T2_8,3,5,42,127,845954632
33,6,9,Ticks_ISO_T2_8,4,5,42,127,846755432
33,6,9,Ticks_ISO_T2_8,5,1,48,42,846759528
33,6,9,Ticks_ISO_T2_8,6,1,48,43,847547652
33,6,9,Ticks_ISO_T2_8,7,5,42,127,847555088
33,6,9,Ticks_ISO_T2_8,8,1,48,36,848290240
33,6,9,Ticks_ISO_T2_8,9,5,42,127,848354672
33,6,9,Ticks_ISO_T2_8,10,1,48,40,849118696
33,6,9,Ticks_ISO_T2_8,11,5,42,127,849154556
33,6,9,Ticks_ISO_T2_8,12,1,48,32,849907784
33,6,9,Ticks_ISO_T2_8,13,5,42,127,849955256
33,6,9,Ticks_ISO_T2_8,14,1,48,38,850735436
33,6,9,Ticks_ISO_T2_8,15,5,42,127,850754916
33,6,9,Ticks_ISO_T2_8,16,1,48,36,851524024
33,6,9,Ticks_ISO_T2_8,17,5,42,127,851554652
33,6,9,Ticks_ISO_T2_8,18,1,48,31,852336176
33,6,9,Ticks_ISO_T2_8,19,5,42,127,852354384
33,6,9,Ticks_ISO_T2_8,20,1,48,38,853115860
33,6,9,Ticks_ISO_T2_8,21,5,42,127,853155316
33,6,9,Ticks_ISO_T2_8,22,1,48,33,853899068
33,6,9,Ticks_ISO_T2_8,23,5,42,127,853955200
33,6,9,Ticks_ISO_T2_8,24,1,48,31,854716760
33,6,9,Ticks_ISO_T2_8,25,5,42,127,854754636
33,6,9,Ticks_ISO_T2_8,26,5,42,127,855554376
33,6,9,Ticks_ISO_T2_8,27,1,48,35,855559608
33,6,9,Ticks_ISO_T2_8,28,1,48,35,856339728
33,6,9,Ticks_ISO_T2_8,29,5,42,127,856355168
33,6,9,Ticks_ISO_T2_8,30,1,48,37,857141776
33,6,9,Ticks_ISO_T2_8,31,5,42,127,857155124
33,6,9,Ticks_ISO_T2_8,32,1,48,35,857929992
33,6,9,Ticks_ISO_T2_8,33,5,42,127,857954632
33,6,9,Ticks_ISO_T2_8,34,1,48,36,858701748
33,6,9,Ticks_ISO_T2_8,35,5,42,127,858754516
33,6,9,Ticks_ISO_T2_8,36,1,48,36,859537760
33,6,9,Ticks_ISO_T2_8,37,5,42,127,859555144
33,6,9,Ticks_ISO_T2_8,38,5,42,127,860354888
33,6,9,Ticks_ISO_T2_8,39,1,48,40,860363688
33,6,9,Ticks_ISO_T2_8,40,5,42,127,861154768
33,6,9,Ticks_ISO_T2_8,41,1,48,39,861171804
33,6,9,Ticks_ISO_T2_8,42,5,42,127,861954576
33,6,9,Ticks_ISO_T2_8,43,1,48,43,861967220
33,6,9,Ticks_ISO_T2_8,44,5,42,127,862755156
33,6,9,Ticks_ISO_T2_8,45,1,48,34,862806448
33,6,9,Ticks_ISO_T2_8,46,1,48,46,863551860
33,6,9,Ticks_ISO_T2_8,47,5,42,127,863554960
33,6,9,Ticks_ISO_T2_8,48,1,48,48,864316964
33,6,9,Ticks_ISO_T2_8,49,5,42,127,864354768
33,6,9,Ticks_ISO_T2_8,50,1,48,47,865093064
33,6,9,Ticks_ISO_T2_8,51,5,42,127,865154580
33,6,9,Ticks_ISO_T2_8,52,1,48,38,865925184
33,6,9,Ticks_ISO_T2_8,53,5,42,127,865955284
33,6,9,Ticks_ISO_T2_8,54,5,42,127,866754800
33,6,9,Ticks_ISO_T2_8,55,1,48,40,866789488
33,6,9,Ticks_ISO_T2_8,56,5,42,127,867554684
33,6,9,Ticks_ISO_T2_8,57,1,48,41,867610040
33,6,9,Ticks_ISO_T2_8,58,1,48,35,868354268
33,6,9,Ticks_ISO_T2_8,59,5,42,127,868355776
33,6,9,Ticks_ISO_T2_8,60,5,42,127,869155296
33,6,9,Ticks_ISO_T2_8,61,1,48,39,869171508
33,6,9,Ticks_ISO_T2_8,62,5,42,127,869955028
33,6,9,Ticks_ISO_T2_8,63,1,48,38,869991956
33,6,9,Ticks_ISO_T2_8,64,1,48,35,870748740
33,6,9,Ticks_ISO_T2_8,65,5,42,127,870754532
33,6,9,Ticks_ISO_T2_8,66,1,48,39,871554044
33,6,9,Ticks_ISO_T2_8,67,5,42,127,871555612
33,6,9,Ticks_ISO_T2_8,68,1,48,35,872316640
33,6,9,Ticks_ISO_T2_8,69,5,42,127,872355420
33,6,9,Ticks_ISO_T2_8,70,1,48,37,873109796
33,6,9,Ticks_ISO_T2_8,71,5,42,127,873155004
33,6,9,Ticks_ISO_T2_8,72,5,42,127,873954596
33,6,9,Ticks_ISO_T2_8,73,1,48,40,873964368
33,6,9,Ticks_ISO_T2_8,74,5,42,127,874754476
33,6,9,Ticks_ISO_T2_8,75,1,48,42,874785124
33,6,9,Ticks_ISO_T2_8,76,1,48,32,875548936
33,6,9,Ticks_ISO_T2_8,77,5,42,127,875555324
33,6,9,Ticks_ISO_T2_8,78,1,48,44,876338872
33,6,9,Ticks_ISO_T2_8,79,5,42,127,876354984
33,6,9,Ticks_ISO_T2_8,80,5,42,127,877154652
33,6,9,Ticks_ISO_T2_8,81,1,48,48,877171232
33,6,9,Ticks_ISO_T2_8,82,5,42,127,877954384
33,6,9,Ticks_ISO_T2_8,83,1,48,48,877981288
33,6,9,Ticks_ISO_T2_8,84,1,48,48,878742256
33,6,9,Ticks_ISO_T2_8,85,5,42,127,878755156
33,6,9,Ticks_ISO_T2_8,86,1,48,45,879546484
33,6,9,Ticks_ISO_T2_8,87,5,42,127,879555112
33,6,9,Ticks_ISO_T2_8,88,1,48,47,880340900
33,6,9,Ticks_ISO_T2_8,89,5,42,127,880354772
33,6,9,Ticks_ISO_T2_8,90,1,48,43,881144448
33,6,9,Ticks_ISO_T2_8,91,5,42,127,881154456
33,6,9,Ticks_ISO_T2_8,92,1,48,40,881923936
33,6,9,Ticks_ISO_T2_8,93,5,42,127,881955088
33,6,9,Ticks_ISO_T2_8,94,5,42,127,882754976
33,6,9,Ticks_ISO_T2_8,95,1,48,38,882764904
33,6,9,Ticks_ISO_T2_8,96,1,48,36,883536716
33,6,9,Ticks_ISO_T2_8,97,5,42,127,883554776
33,6,9,Ticks_ISO_T2_8,98,1,48,41,884306680
33,6,9,Ticks_ISO_T2_8,99,5,42,127,884354364
33,6,9,Ticks_ISO_T2_8,100,1,48,40,885115316
33,6,9,Ticks_ISO_T2_8,101,5,42,127,885155292
33,6,9,Ticks_ISO_T2_8,102,1,48,42,885927100
33,6,9,Ticks_ISO_T2_8,103,5,42,127,885955024
33,6,9,Ticks_ISO_T2_8,104,1,48,44,886746876
33,6,9,Ticks_ISO_T2_8,105,5,42,127,886754832
33,6,9,Ticks_ISO_T2_8,106,5,42,127,887554300
33,6,9,Ticks_ISO_T2_8,107,1,48,42,887569016
33,6,9,Ticks_ISO_T2_8,108,1,48,40,888335292
33,6,9,Ticks_ISO_T2_8,109,5,42,127,888355152
33,6,9,Ticks_ISO_T2_8,110,1,48,43,889154212
33,6,9,Ticks_ISO_T2_8,111,5,42,127,889155932
33,6,9,Ticks_ISO_T2_8,112,5,42,127,889954624
33,6,9,Ticks_ISO_T2_8,113,1,48,47,889961784
33,6,9,Ticks_ISO_T2_8,114,5,42,127,890754432
33,6,9,Ticks_ISO_T2_8,115,1,48,46,890798764
33,6,9,Ticks_ISO_T2_8,116,1,48,43,891533332
33,6,9,Ticks_ISO_T2_8,117,5,42,127,891555128
33,6,9,Ticks_ISO_T2_8,118,1,48,42,892316160
33,6,9,Ticks_ISO_T2_8,119,5,42,127,892354936
33,6,9,Ticks_ISO_T2_8,120,1,48,42,893127716
33,6,9,Ticks_ISO_T2_8,121,5,42,127,893154744
33,6,9,Ticks_ISO_T2_8,122,5,42,127,893954288
33,6,9,Ticks_ISO_T2_8,123,1,48,38,893957708
33,6,9,Ticks_ISO_T2_8,124,5,42,127,894755216
33,6,9,Ticks_ISO_T2_8,125,1,48,41,894773892
33,6,9,Ticks_ISO_T2_8,126,1,48,41,895555172
33,6,9,Ticks_ISO_T2_8,127,5,42,127,895556740
33,6,9,Ticks_ISO_T2_8,128,1,48,34,896338784
33,6,9,Ticks_ISO_T2_8,129,5,42,127,896354748
33,6,9,Ticks_ISO_T2_8,130,1,48,40,897105984
33,6,9,Ticks_ISO_T2_8,131,5,42,127,897154408
33,6,9,Ticks_ISO_T2_8,132,1,48,44,897935784
33,6,9,Ticks_ISO_T2_8,133,5,42,127,897955336
33,6,9,Ticks_ISO_T2_8,134,5,42,127,898754780
33,6,9,Ticks_ISO_T2_8,135,1,48,42,898763656
33,6,9,Ticks_ISO_T2_8,136,1,48,40,899544156
33,6,9,Ticks_ISO_T2_8,137,5,42,127,899554656
33,6,9,Ticks_ISO_T2_8,138,1,48,48,900324136
33,6,9,Ticks_ISO_T2_8,139,5,42,127,900354340
33,6,9,Ticks_ISO_T2_8,140,1,48,37,901100088
33,6,9,Ticks_ISO_T2_8,141,5,42,127,901155268
33,6,9,Ticks_ISO_T2_8,142,5,42,127,901954860
33,6,9,Ticks_ISO_T2_8,143,1,48,50,901959476
33,6,9,Ticks_ISO_T2_8,144,1,48,42,902751788
33,6,9,Ticks_ISO_T2_8,145,5,42,127,902754588
33,6,9,Ticks_ISO_T2_8,146,5,42,127,903554328
33,6,9,Ticks_ISO_T2_8,147,1,48,38,903579436
33,6,9,Ticks_ISO_T2_8,148,5,42,127,904355184
33,6,9,Ticks_ISO_T2_8,149,1,48,27,904377224
33,6,9,Ticks_ISO_T2_8,150,1,48,41,905118300
33,6,9,Ticks_ISO_T2_8,151,5,42,127,905154836
33,6,9,Ticks_ISO_T2_8,152,1,48,35,905947952
33,6,9,Ticks_ISO_T2_8,153,5,42,127,905954788
33,6,9,Ticks_ISO_T2_8,154,1,48,40,906726744
33,6,9,Ticks_ISO_T2_8,155,5,42,127,906754400
33,6,9,Ticks_ISO_T2_8,156,1,48,40,907531660
33,6,9,Ticks_ISO_T2_8,157,5,42,127,907555252
33,6,9,Ticks_ISO_T2_8,158,1,48,48,908326604
33,6,9,Ticks_ISO_T2_8,159,5,42,127,908354912
33,6,9,Ticks_ISO_T2_8,160,1,48,48,909125892
33,6,9,Ticks_ISO_T2_8,161,5,42,127,909154720
33,6,9,Ticks_ISO_T2_8,162,1,48,53,909903708
33,6,9,Ticks_ISO_T2_8,163,5,42,127,909954380
33,6,9,Ticks_ISO_T2_8,164,1,48,48,910730220
33,6,9,Ticks_ISO_T2_8,165,5,42,127,910755084
33,6,9,Ticks_ISO_T2_8,166,1,48,46,911527784
33,6,9,Ticks_ISO_T2_8,167,5,42,127,911554892
33,6,9,Ticks_ISO_T2_8,168,1,48,44,912288696
33,6,9,Ticks_ISO_T2_8,169,5,42,127,912354628
33,6,9,Ticks_ISO_T2_8,170,1,48,48,913139368
33,6,9,Ticks_ISO_T2_8,171,5,42,127,913154684
33,6,9,Ticks_ISO_T2_8,172,1,48,47,913944588
33,6,9,Ticks_ISO_T2_8,173,5,42,127,913955164
33,6,9,Ticks_ISO_T2_8,174,5,42,127,914755056
33,6,9,Ticks_ISO_T2_8,175,1,48,46,914764532
33,6,9,Ticks_ISO_T2_8,176,5,42,127,915554640
33,6,9,Ticks_ISO_T2_8,177,1,48,50,915563368
33,6,9,Ticks_ISO_T2_8,178,5,42,127,916354524
33,6,9,Ticks_ISO_T2_8,179,1,48,44,916392944
33,6,9,Ticks_ISO_T2_8,180,1,48,46,917112404
33,6,9,Ticks_ISO_T2_8,181,5,42,127,917155148
33,6,9,Ticks_ISO_T2_8,182,1,48,43,917902492
33,6,9,Ticks_ISO_T2_8,183,5,42,127,917955404
33,6,9,Ticks_ISO_T2_8,184,1,48,44,918754920
33,6,9,Ticks_ISO_T2_8,185,5,42,127,918756492
33,6,9,Ticks_ISO_T2_8,186,1,48,42,919544588
33,6,9,Ticks_ISO_T2_8,187,5,42,127,919554524
33,6,9,Ticks_ISO_T2_8,188,1,48,42,920304232
33,6,9,Ticks_ISO_T2_8,189,5,42,127,920355304
33,6,9,Ticks_ISO_T2_8,190,1,48,47,921115736
33,6,9,Ticks_ISO_T2_8,191,5,42,127,921155184
33,6,9,Ticks_ISO_T2_8,192,1,48,46,921905816
33,6,9,Ticks_ISO_T2_8,193,5,42,127,921954620
33,6,9,Ticks_ISO_T2_8,194,1,48,50,922731880
33,6,9,Ticks_ISO_T2_8,195,5,42,127,922754576
33,6,9,Ticks_ISO_T2_8,196,1,48,56,923527652
33,6,9,Ticks_ISO_T2_8,197,5,42,127,923555208
33,6,9,Ticks_ISO_T2_8,198,1,48,50,924334488
33,6,9,Ticks_ISO_T2_8,199,5,42,127,924355016
33,6,9,Ticks_ISO_T2_8,200,1,48,51,925134592
33,6,9,Ticks_ISO_T2_8,201,5,42,127,925154600
33,6,9,Ticks_ISO_T2_8,202,1,48,49,925912488
33,6,9,Ticks_ISO_T2_8,203,5,42,127,925954432
33,6,9,Ticks_ISO_T2_8,204,1,48,48,926736252
33,6,9,Ticks_ISO_T2_8,205,5,42,127,926755140
33,6,9,Ticks_ISO_T2_8,206,5,42,127,927554876
33,6,9,Ticks_ISO_T2_8,207,1,48,47,927558372
33,6,9,Ticks_ISO_T2_8,208,5,42,127,928354688
33,6,9,Ticks_ISO_T2_8,209,1,48,44,928361696
33,6,9,Ticks_ISO_T2_8,210,1,48,48,929147952
33,6,9,Ticks_ISO_T2_8,211,5,42,127,929154264
33,6,9,Ticks_ISO_T2_8,212,5,42,127,929955128
33,6,9,Ticks_ISO_T2_8,213,1,48,49,929959148
33,6,9,Ticks_ISO_T2_8,214,1,48,47,930751904
33,6,9,Ticks_ISO_T2_8,215,5,42,127,930754928
33,6,9,Ticks_ISO_T2_8,216,1,48,47,931549992
33,6,9,Ticks_ISO_T2_8,217,5,42,127,931554884
33,6,9,Ticks_ISO_T2_8,218,1,48,54,932344708
33,6,9,Ticks_ISO_T2_8,219,5,42,127,932354420
33,6,9,Ticks_ISO_T2_8,220,1,48,48,933137216
33,6,9,Ticks_ISO_T2_8,221,5,42,127,933155124
33,6,9,Ticks_ISO_T2_8,222,1,48,51,933933060
33,6,9,Ticks_ISO_T2_8,223,5,42,127,933954784
33,6,9,Ticks_ISO_T2_8,224,5,42,127,934754672
33,6,9,Ticks_ISO_T2_8,225,1,48,54,934802220
33,6,9,Ticks_ISO_T2_8,226,5,42,127,935554552
33,6,9,Ticks_ISO_T2_8,227,1,48,47,935593500
33,6,9,Ticks_ISO_T2_8,228,1,48,30,936339436
33,6,9,Ticks_ISO_T2_8,229,5,42,127,936355028
33,6,9,Ticks_ISO_T2_8,230,5,42,127,937154844
33,6,9,Ticks_ISO_T2_8,231,1,48,48,937161628
33,6,9,Ticks_ISO_T2_8,232,5,42,127,937954652
33,6,9,Ticks_ISO_T2_8,233,1,48,46,937958820
33,6,9,Ticks_ISO_T2_8,234,5,42,127,938754560
33,6,9,Ticks_ISO_T2_8,235,1,48,47,938763960
33,6,9,Ticks_ISO_T2_8,236,1,48,49,939551408
33,6,9,Ticks_ISO_T2_8,0,9999,9999,9999,843552852
33,6,9,Ticks_ISO_T2_8,1,9999,9999,9999,844352612
33,6,9,Ticks_ISO_T2_8,2,9999,9999,9999,845152364
33,6,9,Ticks_ISO_T2_8,3,9999,9999,9999,845952120
33,6,9,Ticks_ISO_T2_8,4,9999,9999,9999,846752848
33,6,9,Ticks_ISO_T2_8,5,9999,9999,9999,847552576
33,6,9,Ticks_ISO_T2_8,6,9999,9999,9999,848352308
33,6,9,Ticks_ISO_T2_8,7,9999,9999,9999,849152116
33,6,9,Ticks_ISO_T2_8,8,9999,9999,9999,849952820
33,6,9,Ticks_ISO_T2_8,9,9999,9999,9999,850752628
33,6,9,Ticks_ISO_T2_8,10,9999,9999,9999,851552364
33,6,9,Ticks_ISO_T2_8,11,9999,9999,9999,852352096
33,6,9,Ticks_ISO_T2_8,12,9999,9999,9999,853152880
33,6,9,Ticks_ISO_T2_8,13,9999,9999,9999,853952612
33,6,9,Ticks_ISO_T2_8,14,9999,9999,9999,854752348
33,6,9,Ticks_ISO_T2_8,15,9999,9999,9999,855552088
33,6,9,Ticks_ISO_T2_8,16,9999,9999,9999,856352880
33,6,9,Ticks_ISO_T2_8,17,9999,9999,9999,857152612
33,6,9,Ticks_ISO_T2_8,18,9999,9999,9999,857952344
33,6,9,Ticks_ISO_T2_8,19,9999,9999,9999,858752080
33,6,9,Ticks_ISO_T2_8,20,9999,9999,9999,859552856
33,6,9,Ticks_ISO_T2_8,21,9999,9999,9999,860352600
33,6,9,Ticks_ISO_T2_8,22,9999,9999,9999,861152332
33,6,9,Ticks_ISO_T2_8,23,9999,9999,9999,861952064
33,6,9,Ticks_ISO_T2_8,24,9999,9999,9999,862752868
33,6,9,Ticks_ISO_T2_8,25,9999,9999,9999,863552596
33,6,9,Ticks_ISO_T2_8,26,9999,9999,9999,864352332
33,6,9,Ticks_ISO_T2_8,27,9999,9999,9999,865152068
33,6,9,Ticks_ISO_T2_8,28,9999,9999,9999,865952848
33,6,9,Ticks_ISO_T2_8,29,9999,9999,9999,866752588
33,6,9,Ticks_ISO_T2_8,30,9999,9999,9999,867552320
33,6,9,Ticks_ISO_T2_8,31,9999,9999,9999,868352052
33,6,9,Ticks_ISO_T2_8,32,9999,9999,9999,869152860
33,6,9,Ticks_ISO_T2_8,33,9999,9999,9999,869952592
33,6,9,Ticks_ISO_T2_8,34,9999,9999,9999,870752320
33,6,9,Ticks_ISO_T2_8,35,9999,9999,9999,871552060
33,6,9,Ticks_ISO_T2_8,36,9999,9999,9999,872352832
33,6,9,Ticks_ISO_T2_8,37,9999,9999,9999,873152568
33,6,9,Ticks_ISO_T2_8,38,9999,9999,9999,873952304
33,6,9,Ticks_ISO_T2_8,39,9999,9999,9999,874752116
33,6,9,Ticks_ISO_T2_8,40,9999,9999,9999,875552888
33,6,9,Ticks_ISO_T2_8,41,9999,9999,9999,876352624
33,6,9,Ticks_ISO_T2_8,42,9999,9999,9999,877152360
33,6,9,Ticks_ISO_T2_8,43,9999,9999,9999,877952096
33,6,9,Ticks_ISO_T2_8,44,9999,9999,9999,878752868
33,6,9,Ticks_ISO_T2_8,45,9999,9999,9999,879552600
33,6,9,Ticks_ISO_T2_8,46,9999,9999,9999,880352336
33,6,9,Ticks_ISO_T2_8,47,9999,9999,9999,881152072
33,6,9,Ticks_ISO_T2_8,48,9999,9999,9999,881952872
33,6,9,Ticks_ISO_T2_8,49,9999,9999,9999,882752612
33,6,9,Ticks_ISO_T2_8,50,9999,9999,9999,883552340
33,6,9,Ticks_ISO_T2_8,51,9999,9999,9999,884352076
33,6,9,Ticks_ISO_T2_8,52,9999,9999,9999,885152856
33,6,9,Ticks_ISO_T2_8,53,9999,9999,9999,885952588
33,6,9,Ticks_ISO_T2_8,54,9999,9999,9999,886752324
33,6,9,Ticks_ISO_T2_8,55,9999,9999,9999,887552064
33,6,9,Ticks_ISO_T2_8,56,9999,9999,9999,888352864
33,6,9,Ticks_ISO_T2_8,57,9999,9999,9999,889152604
33,6,9,Ticks_ISO_T2_8,58,9999,9999,9999,889952336
33,6,9,Ticks_ISO_T2_8,59,9999,9999,9999,890752068
33,6,9,Ticks_ISO_T2_8,60,9999,9999,9999,891552840
33,6,9,Ticks_ISO_T2_8,61,9999,9999,9999,892352576
33,6,9,Ticks_ISO_T2_8,62,9999,9999,9999,893152308
33,6,9,Ticks_ISO_T2_8,63,9999,9999,9999,893952048
33,6,9,Ticks_ISO_T2_8,64,9999,9999,9999,894752852
33,6,9,Ticks_ISO_T2_8,65,9999,9999,9999,895552584
33,6,9,Ticks_ISO_T2_8,66,9999,9999,9999,896352312
33,6,9,Ticks_ISO_T2_8,67,9999,9999,9999,897152048
33,6,9,Ticks_ISO_T2_8,68,9999,9999,9999,897952828
33,6,9,Ticks_ISO_T2_8,69,9999,9999,9999,898752568
33,6,9,Ticks_ISO_T2_8,70,9999,9999,9999,899552368
33,6,9,Ticks_ISO_T2_8,71,9999,9999,9999,900352052
33,6,9,Ticks_ISO_T2_8,72,9999,9999,9999,901152832
33,6,9,Ticks_ISO_T2_8,73,9999,9999,9999,901952572
33,6,9,Ticks_ISO_T2_8,74,9999,9999,9999,902752376
33,6,9,Ticks_ISO_T2_8,75,9999,9999,9999,903552112
33,6,9,Ticks_ISO_T2_8,76,9999,9999,9999,904352820
33,6,9,Ticks_ISO_T2_8,77,9999,9999,9999,905152620
33,6,9,Ticks_ISO_T2_8,78,9999,9999,9999,905952352
33,6,9,Ticks_ISO_T2_8,79,9999,9999,9999,906752112
33,6,9,Ticks_ISO_T2_8,80,9999,9999,9999,907552816
33,6,9,Ticks_ISO_T2_8,81,9999,9999,9999,908352624
33,6,9,Ticks_ISO_T2_8,82,9999,9999,9999,909152356
33,6,9,Ticks_ISO_T2_8,83,9999,9999,9999,909952092
33,6,9,Ticks_ISO_T2_8,84,9999,9999,9999,910752872
33,6,9,Ticks_ISO_T2_8,85,9999,9999,9999,911552604
33,6,9,Ticks_ISO_T2_8,86,9999,9999,9999,912352340
33,6,9,Ticks_ISO_T2_8,87,9999,9999,9999,913152100
33,6,9,Ticks_ISO_T2_8,88,9999,9999,9999,913952876
33,6,9,Ticks_ISO_T2_8,89,9999,9999,9999,914752620
33,6,9,Ticks_ISO_T2_8,90,9999,9999,9999,915552352
33,6,9,Ticks_ISO_T2_8,91,9999,9999,9999,916352084
33,6,9,Ticks_ISO_T2_8,92,9999,9999,9999,917152860
33,6,9,Ticks_ISO_T2_8,93,9999,9999,9999,917952596
33,6,9,Ticks_ISO_T2_8,94,9999,9999,9999,918752336
33,6,9,Ticks_ISO_T2_8,95,9999,9999,9999,919552084
33,6,9,Ticks_ISO_T2_8,96,9999,9999,9999,920352864
33,6,9,Ticks_ISO_T2_8,97,9999,9999,9999,921152600
33,6,9,Ticks_ISO_T2_8,98,9999,9999,9999,921952332
33,6,9,Ticks_ISO_T2_8,99,9999,9999,9999,922752064
33,6,9,Ticks_ISO_T2_8,100,9999,9999,9999,923552844
33,6,9,Ticks_ISO_T2_8,101,9999,9999,9999,924352580
33,6,9,Ticks_ISO_T2_8,102,9999,9999,9999,925152312
33,6,9,Ticks_ISO_T2_8,103,9999,9999,9999,925952068
33,6,9,Ticks_ISO_T2_8,104,9999,9999,9999,926752848
33,6,9,Ticks_ISO_T2_8,105,9999,9999,9999,927552588
33,6,9,Ticks_ISO_T2_8,106,9999,9999,9999,928352324
33,6,9,Ticks_ISO_T2_8,107,9999,9999,9999,929152052
33,6,9,Ticks_ISO_T2_8,108,9999,9999,9999,929952840
33,6,9,Ticks_ISO_T2_8,109,9999,9999,9999,930752568
33,6,9,Ticks_ISO_T2_8,110,9999,9999,9999,931552372
33,6,9,Ticks_ISO_T2_8,111,9999,9999,9999,932352056
33,6,9,Ticks_ISO_T2_8,112,9999,9999,9999,933152836
33,6,9,Ticks_ISO_T2_8,113,9999,9999,9999,933952572
33,6,9,Ticks_ISO_T2_8,114,9999,9999,9999,934752308
33,6,9,Ticks_ISO_T2_8,115,9999,9999,9999,935552116
33,6,9,Ticks_ISO_T2_8,116,9999,9999,9999,936352816
33,6,9,Ticks_ISO_T2_8,117,9999,9999,9999,937152632
33,6,9,Ticks_ISO_T2_8,118,9999,9999,9999,937952364
33,6,9,Ticks_ISO_T2_8,119,9999,9999,9999,938752048
33,7,23,Ticks_Phase_5,0,5,42,127,1002803624
33,7,23,Ticks_Phase_5,1,5,42,127,1003304380
33,7,23,Ticks_Phase_5,2,5,42,127,1003804016
33,7,23,Ticks_Phase_5,3,5,42,127,1004303724
33,7,23,Ticks_Phase_5,4,5,42,127,1004803732
33,7,23,Ticks_Phase_5,5,5,42,127,1005304636
33,7,23,Ticks_Phase_5,6,5,42,127,1005803876
33,7,23,Ticks_Phase_5,7,5,42,127,1006303512
33,7,23,Ticks_Phase_5,8,1,48,42,1006794124
33,7,23,Ticks_Phase_5,9,5,42,127,1006804408
33,7,23,Ticks_Phase_5,10,1,48,43,1007302824
33,7,23,Ticks_Phase_5,11,5,42,127,1007304468
33,7,23,Ticks_Phase_5,12,5,42,127,1007803868
33,7,23,Ticks_Phase_5,13,1,48,43,1007813280
33,7,23,Ticks_Phase_5,14,5,42,127,1008303628
33,7,23,Ticks_Phase_5,15,1,48,49,1008317536
33,7,23,Ticks_Phase_5,16,5,42,127,1008804364
33,7,23,Ticks_Phase_5,17,1,48,36,1008844332
33,7,23,Ticks_Phase_5,18,1,48,43,1009297948
33,7,23,Ticks_Phase_5,19,5,42,127,1009303820
33,7,23,Ticks_Phase_5,20,5,42,127,1009803516
33,7,23,Ticks_Phase_5,21,1,48,46,1009813452
33,7,23,Ticks_Phase_5,22,5,42,127,1010304476
33,7,23,Ticks_Phase_5,23,1,48,46,1010327892
33,7,23,Ticks_Phase_5,24,5,42,127,1010803940
33,7,23,Ticks_Phase_5,25,1,48,43,1010828248
33,7,23,Ticks_Phase_5,26,5,42,127,1011303928
33,7,23,Ticks_Phase_5,27,1,48,44,1011325024
33,7,23,Ticks_Phase_5,28,5,42,127,1011803616
33,7,23,Ticks_Phase_5,29,1,48,48,1011812436
33,7,23,Ticks_Phase_5,30,1,48,52,1012303676
33,7,23,Ticks_Phase_5,31,5,42,127,1012305388
33,7,23,Ticks_Phase_5,32,1,48,43,1012781172
33,7,23,Ticks_Phase_5,33,5,42,127,1012803884
33,7,23,Ticks_Phase_5,34,5,42,127,1013303652
33,7,23,Ticks_Phase_5,35,1,48,51,1013309692
33,7,23,Ticks_Phase_5,36,5,42,127,1013804388
33,7,23,Ticks_Phase_5,37,1,48,48,1013806984
33,7,23,Ticks_Phase_5,38,5,42,127,1014304228
33,7,23,Ticks_Phase_5,39,1,48,46,1014309068
33,7,23,Ticks_Phase_5,40,1,48,43,1014797212
33,7,23,Ticks_Phase_5,41,5,42,127,1014803760
33,7,23,Ticks_Phase_5,42,1,48,49,1015294728
33,7,23,Ticks_Phase_5,43,5,42,127,1015303520
33,7,23,Ticks_Phase_5,44,5,42,127,1015804412
33,7,23,Ticks_Phase_5,45,1,48,47,1015820108
33,7,23,Ticks_Phase_5,46,5,42,127,1016304224
33,7,23,Ticks_Phase_5,47,1,48,44,1016318080
33,7,23,Ticks_Phase_5,48,1,48,45,1016784188
33,7,23,Ticks_Phase_5,49,5,42,127,1016803684
33,7,23,Ticks_Phase_5,50,1,48,46,1017283200
33,7,23,Ticks_Phase_5,51,5,42,127,1017304420
33,7,23,Ticks_Phase_5,52,1,48,43,1017797560
33,7,23,Ticks_Phase_5,53,5,42,127,1017804108
33,7,23,Ticks_Phase_5,54,5,42,127,1018304028
33,7,23,Ticks_Phase_5,55,1,48,40,1018305364
33,7,23,Ticks_Phase_5,56,5,42,127,1018803568
33,7,23,Ticks_Phase_5,57,1,48,40,1018804684
33,7,23,Ticks_Phase_5,58,1,48,41,1019294908
33,7,23,Ticks_Phase_5,59,5,42,127,1019304372
33,7,23,Ticks_Phase_5,60,5,42,127,1019804068
33,7,23,Ticks_Phase_5,61,1,48,48,1019827780
33,7,23,Ticks_Phase_5,62,1,48,46,1020303608
33,7,23,Ticks_Phase_5,63,5,42,127,1020305168
33,7,23,Ticks_Phase_5,64,5,42,127,1020803444
33,7,23,Ticks_Phase_5,65,1,48,46,1020822068
33,7,23,Ticks_Phase_5,66,5,42,127,1021304180
33,7,23,Ticks_Phase_5,67,1,48,42,1021338372
33,7,23,Ticks_Phase_5,68,1,48,39,1021785456
33,7,23,Ticks_Phase_5,69,5,42,127,1021803836
33,7,23,Ticks_Phase_5,70,5,42,127,1022303976
33,7,23,Ticks_Phase_5,71,1,48,41,1022318328
33,7,23,Ticks_Phase_5,72,1,48,39,1022783940
33,7,23,Ticks_Phase_5,73,5,42,127,1022804260
33,7,23,Ticks_Phase_5,74,1,48,40,1023295608
33,7,23,Ticks_Phase_5,75,5,42,127,1023304168
33,7,23,Ticks_Phase_5,76,1,48,40,1023803568
33,7,23,Ticks_Phase_5,77,5,42,127,1023804980
33,7,23,Ticks_Phase_5,78,5,42,127,1024303480
33,7,23,Ticks_Phase_5,79,1,48,36,1024327120
33,7,23,Ticks_Phase_5,80,5,42,127,1024804068
33,7,23,Ticks_Phase_5,81,1,48,44,1024820960
33,7,23,Ticks_Phase_5,82,5,42,127,1025304052
33,7,23,Ticks_Phase_5,83,1,48,47,1025311360
33,7,23,Ticks_Phase_5,84,1,48,45,1025775520
33,7,23,Ticks_Phase_5,85,5,42,127,1025803884
33,7,23,Ticks_Phase_5,86,5,42,127,1026304476
33,7,23,Ticks_Phase_5,87,1,48,46,1026310292
33,7,23,Ticks_Phase_5,88,5,42,127,1026814352
33,7,23,Ticks_Phase_5,89,1,48,46,1026820084
33,7,23,Ticks_Phase_5,90,5,42,127,1027313940
33,7,23,Ticks_Phase_5,91,1,48,49,1027316984
33,7,23,Ticks_Phase_5,92,5,42,127,1027813776
33,7,23,Ticks_Phase_5,93,1,48,46,1027818016
33,7,23,Ticks_Phase_5,94,5,42,127,1028313612
33,7,23,Ticks_Phase_5,95,1,48,47,1028348656
33,7,23,Ticks_Phase_5,96,5,42,127,1028814124
33,7,23,Ticks_Phase_5,97,1,48,53,1028844056
33,7,23,Ticks_Phase_5,98,1,48,40,1029299544
33,7,23,Ticks_Phase_5,99,5,42,127,1029314028
33,7,23,Ticks_Phase_5,100,5,42,127,1029813648
33,7,23,Ticks_Phase_5,101,1,48,41,1029816092
33,7,23,Ticks_Phase_5,102,5,42,127,1030314532
33,7,23,Ticks_Phase_5,103,1,48,41,1030334056
33,7,23,Ticks_Phase_5,104,1,48,46,1030792328
33,7,23,Ticks_Phase_5,105,5,42,127,1030813992
33,7,23,Ticks_Phase_5,106,1,48,43,1031306760
33,7,23,Ticks_Phase_5,107,5,42,127,1031313900
33,7,23,Ticks_Phase_5,108,5,42,127,1031813748
33,7,23,Ticks_Phase_5,109,1,48,45,1031827800
33,7,23,Ticks_Phase_5,110,5,42,127,1032314332
33,7,23,Ticks_Phase_5,111,1,48,29,1032350396
33,7,23,Ticks_Phase_5,112,1,48,43,1032810684
33,7,23,Ticks_Phase_5,113,5,42,127,1032813864
33,7,23,Ticks_Phase_5,114,1,48,43,1033311668
33,7,23,Ticks_Phase_5,115,5,42,127,1033313552
33,7,23,Ticks_Phase_5,116,5,42,127,1033814516
33,7,23,Ticks_Phase_5,117,1,48,46,1033828196
33,7,23,Ticks_Phase_5,118,5,42,127,1034314132
33,7,23,Ticks_Phase_5,119,1,48,46,1034317252
33,7,23,Ticks_Phase_5,120,1,48,39,1034786372
33,7,23,Ticks_Phase_5,121,5,42,127,1034834408
33,7,23,Ticks_Phase_5,122,1,48,36,1035289132
33,7,23,Ticks_Phase_5,123,5,42,127,1035334320
33,7,23,Ticks_Phase_5,124,1,48,32,1035833868
33,7,23,Ticks_Phase_5,125,5,42,127,1035835356
33,7,23,Ticks_Phase_5,126,5,42,127,1036333480
33,7,23,Ticks_Phase_5,127,1,48,44,1036339668
33,7,23,Ticks_Phase_5,128,5,42,127,1036834292
33,7,23,Ticks_Phase_5,129,1,48,40,1036853444
33,7,23,Ticks_Phase_5,130,1,48,37,1037287336
33,7,23,Ticks_Phase_5,131,5,42,127,1037333748
33,7,23,Ticks_Phase_5,132,1,48,40,1037824568
33,7,23,Ticks_Phase_5,133,5,42,127,1037833512
33,7,23,Ticks_Phase_5,134,1,48,43,1038331884
33,7,23,Ticks_Phase_5,135,5,42,127,1038334320
33,7,23,Ticks_Phase_5,136,1,48,39,1038824820
33,7,23,Ticks_Phase_5,137,5,42,127,1038834280
33,7,23,Ticks_Phase_5,138,5,42,127,1039333680
33,7,23,Ticks_Phase_5,139,1,48,39,1039342196
33,7,23,Ticks_Phase_5,140,5,42,127,1039833516
33,7,23,Ticks_Phase_5,141,1,48,43,1039864596
33,7,23,Ticks_Phase_5,142,5,42,127,1040334324
33,7,23,Ticks_Phase_5,143,1,48,43,1040358040
33,7,23,Ticks_Phase_5,144,1,48,37,1040807912
33,7,23,Ticks_Phase_5,145,5,42,127,1040833932
33,7,23,Ticks_Phase_5,146,1,48,40,1041317044
33,7,23,Ticks_Phase_5,147,5,42,127,1041333620
33,7,23,Ticks_Phase_5,148,1,48,40,1041814708
33,7,23,Ticks_Phase_5,149,5,42,127,1041834356
33,7,23,Ticks_Phase_5,150,5,42,127,1042334052
33,7,23,Ticks_Phase_5,151,1,48,41,1042337920
33,7,23,Ticks_Phase_5,152,5,42,127,1042834036
33,7,23,Ticks_Phase_5,153,1,48,44,1042835376
33,7,23,Ticks_Phase_5,154,5,42,127,1043313956
33,7,23,Ticks_Phase_5,155,1,48,46,1043348224
33,7,23,Ticks_Phase_5,156,1,48,43,1043779904
33,7,23,Ticks_Phase_5,157,5,42,127,1043813936
33,7,23,Ticks_Phase_5,158,1,48,42,1044304236
33,7,23,Ticks_Phase_5,159,5,42,127,1044313324
33,7,23,Ticks_Phase_5,160,1,48,42,1044791496
33,7,23,Ticks_Phase_5,161,5,42,127,1044814060
33,7,23,Ticks_Phase_5,162,1,48,46,1045291856
33,7,23,Ticks_Phase_5,163,5,42,127,1045313896
33,7,23,Ticks_Phase_5,164,5,42,127,1045813740
33,7,23,Ticks_Phase_5,165,1,48,45,1045816412
33,7,23,Ticks_Phase_5,166,1,48,47,1046270624
33,7,23,Ticks_Phase_5,167,5,42,127,1046314244
33,7,23,Ticks_Phase_5,168,1,48,48,1046811968
33,7,23,Ticks_Phase_5,169,5,42,127,1046814008
33,7,23,Ticks_Phase_5,170,5,42,127,1047313924
33,7,23,Ticks_Phase_5,171,1,48,47,1047321088
33,7,23,Ticks_Phase_5,172,1,48,43,1047802352
33,7,23,Ticks_Phase_5,173,5,42,127,1047813684
33,7,23,Ticks_Phase_5,174,1,48,48,1048306128
33,7,23,Ticks_Phase_5,175,5,42,127,1048314416
33,7,23,Ticks_Phase_5,176,1,48,43,1048813340
33,7,23,Ticks_Phase_5,177,5,42,127,1048814904
33,7,23,Ticks_Phase_5,178,1,48,36,1049301232
33,7,23,Ticks_Phase_5,179,5,42,127,1049313696
33,7,23,Ticks_Phase_5,180,1,48,46,1049809828
33,7,23,Ticks_Phase_5,181,5,42,127,1049814360
33,7,23,Ticks_Phase_5,182,5,42,127,1050313980
33,7,23,Ticks_Phase_5,183,1,48,51,1050325708
33,7,23,Ticks_Phase_5,184,5,42,127,1050813744
33,7,23,Ticks_Phase_5,185,1,48,45,1050824052
33,7,23,Ticks_Phase_5,186,5,42,127,1051264600
33,7,23,Ticks_Phase_5,187,1,48,49,1051317524
33,7,23,Ticks_Phase_5,188,1,48,36,1051759380
33,7,23,Ticks_Phase_5,189,5,42,127,1051764132
33,7,23,Ticks_Phase_5,190,1,48,41,1052216612
33,7,23,Ticks_Phase_5,191,5,42,127,1052263820
33,7,23,Ticks_Phase_5,192,1,48,40,1052705068
33,7,23,Ticks_Phase_5,193,5,42,127,1052763660
33,7,23,Ticks_Phase_5,194,1,48,43,1053240996
33,7,23,Ticks_Phase_5,195,5,42,127,1053264096
33,7,23,Ticks_Phase_5,196,5,42,127,1053764012
33,7,23,Ticks_Phase_5,197,1,48,39,1053778736
33,7,23,Ticks_Phase_5,198,1,48,43,1054262188
33,7,23,Ticks_Phase_5,199,5,42,127,1054263992
33,7,23,Ticks_Phase_5,200,1,48,37,1054754968
33,7,23,Ticks_Phase_5,201,5,42,127,1054764504
33,7,23,Ticks_Phase_5,202,1,48,39,1055254056
33,7,23,Ticks_Phase_5,203,5,42,127,1055264192
33,7,23,Ticks_Phase_5,204,1,48,41,1055757712
33,7,23,Ticks_Phase_5,205,5,42,127,1055763808
33,7,23,Ticks_Phase_5,206,1,48,44,1056250876
33,7,23,Ticks_Phase_5,207,5,42,127,1056263420
33,7,23,Ticks_Phase_5,208,5,42,127,1056764384
33,7,23,Ticks_Phase_5,209,1,48,43,1056772076
33,7,23,Ticks_Phase_5,210,5,42,127,1057263900
33,7,23,Ticks_Phase_5,211,1,48,42,1057264868
33,7,23,Ticks_Phase_5,212,1,48,45,1057755392
33,7,23,Ticks_Phase_5,213,5,42,127,1057763584
33,7,23,Ticks_Phase_5,214,1,48,48,1058260240
33,7,23,Ticks_Phase_5,215,5,42,127,1058264392
33,7,23,Ticks_Phase_5,216,1,48,48,1058764648
33,7,23,Ticks_Phase_5,217,5,42,127,1058774488
33,7,23,Ticks_Phase_5,218,1,48,44,1059262392
33,7,23,Ticks_Phase_5,219,5,42,127,1059274176
33,7,23,Ticks_Phase_5,220,5,42,127,1059824048
33,7,23,Ticks_Phase_5,221,1,48,32,1059991040
33,7,23,Ticks_Phase_5,222,5,42,127,1060323660
33,7,23,Ticks_Phase_5,223,1,48,37,1060331340
33,7,23,Ticks_Phase_5,224,1,48,32,1060793208
33,7,23,Ticks_Phase_5,225,5,42,127,1060824388
33,7,23,Ticks_Phase_5,226,5,42,127,1061334344
33,7,23,Ticks_Phase_5,227,1,48,43,1061342636
33,7,23,Ticks_Phase_5,228,1,48,41,1061831440
33,7,23,Ticks_Phase_5,229,5,42,127,1061834172
33,7,23,Ticks_Phase_5,230,1,48,32,1062294892
33,7,23,Ticks_Phase_5,231,5,42,127,1062334012
33,7,23,Ticks_Phase_5,232,1,48,38,1062817420
33,7,23,Ticks_Phase_5,233,5,42,127,1062833476
33,7,23,Ticks_Phase_5,234,1,48,38,1063330800
33,7,23,Ticks_Phase_5,235,5,42,127,1063334432
33,7,23,Ticks_Phase_5,236,5,42,127,1063834128
33,7,23,Ticks_Phase_5,237,1,48,38,1063837100
33,7,23,Ticks_Phase_5,238,1,48,35,1064317156
33,7,23,Ticks_Phase_5,239,5,42,127,1064333660
33,7,23,Ticks_Phase_5,240,5,42,127,1064834476
33,7,23,Ticks_Phase_5,241,1,48,39,1064851980
33,7,23,Ticks_Phase_5,242,5,42,127,1065344424
33,7,23,Ticks_Phase_5,243,1,48,43,1065362528
33,7,23,Ticks_Phase_5,244,5,42,127,1065843960
33,7,23,Ticks_Phase_5,245,1,48,42,1065858008
33,7,23,Ticks_Phase_5,246,5,42,127,1066343948
33,7,23,Ticks_Phase_5,247,1,48,44,1066358596
33,7,23,Ticks_Phase_5,248,1,48,28,1066798664
33,7,23,Ticks_Phase_5,249,5,42,127,1066843480
33,7,23,Ticks_Phase_5,250,5,42,127,1067344148
33,7,23,Ticks_Phase_5,251,1,48,42,1067363220
33,7,23,Ticks_Phase_5,252,5,42,127,1067843912
33,7,23,Ticks_Phase_5,253,1,48,38,1067847404
33,7,23,Ticks_Phase_5,254,1,48,32,1068325140
33,7,23,Ticks_Phase_5,255,5,42,127,1068444076
33,7,23,Ticks_Phase_5,256,5,42,127,1068943860
33,7,23,Ticks_Phase_5,257,1,48,28,1069072368
33,7,23,Ticks_Phase_5,258,5,42,127,1069443476
33,7,23,Ticks_Phase_5,259,1,48,22,1069488380
33,7,23,Ticks_Phase_5,260,5,42,127,1069944132
33,7,23,Ticks_Phase_5,261,1,48,26,1069982380
33,7,23,Ticks_Phase_5,262,5,42,127,1070443972
33,7,23,Ticks_Phase_5,263,1,48,32,1070467684
33,7,23,Ticks_Phase_5,264,5,42,127,1070943736
33,7,23,Ticks_Phase_5,265,1,48,41,1070974636
33,7,23,Ticks_Phase_5,266,5,42,127,1071444320
33,7,23,Ticks_Phase_5,267,1,48,34,1071462796
33,7,23,Ticks_Phase_5,268,1,48,19,1071913124
33,7,23,Ticks_Phase_5,269,5,42,127,1071944148
33,7,23,Ticks_Phase_5,270,1,48,35,1072403372
33,7,23,Ticks_Phase_5,271,5,42,127,1072443840
33,7,23,Ticks_Phase_5,272,1,48,40,1072918180
33,7,23,Ticks_Phase_5,273,5,42,127,1072943672
33,7,23,Ticks_Phase_5,274,5,42,127,1073444416
33,7,23,Ticks_Phase_5,275,1,48,40,1073445380
33,7,23,Ticks_Phase_5,276,5,42,127,1073943880
33,7,23,Ticks_Phase_5,277,1,48,39,1073947824
33,7,23,Ticks_Phase_5,278,1,48,42,1074442204
33,7,23,Ticks_Phase_5,279,5,42,127,1074443936
33,7,23,Ticks_Phase_5,280,1,48,42,1074935656
33,7,23,Ticks_Phase_5,281,5,42,127,1074944300
33,7,23,Ticks_Phase_5,282,1,48,38,1075418840
33,7,23,Ticks_Phase_5,283,5,42,127,1075443988
33,7,23,Ticks_Phase_5,284,5,42,127,1075943660
33,7,23,Ticks_Phase_5,285,1,48,40,1075961028
33,7,23,Ticks_Phase_5,286,5,42,127,1076443644
33,7,23,Ticks_Phase_5,287,1,48,38,1076444608
33,7,23,Ticks_Phase_5,288,1,48,36,1076938648
33,7,23,Ticks_Phase_5,289,5,42,127,1076944444
33,7,23,Ticks_Phase_5,290,1,48,41,1077435792
33,7,23,Ticks_Phase_5,291,5,42,127,1077444060
33,7,23,Ticks_Phase_5,292,5,42,127,1077844528
33,7,23,Ticks_Phase_5,293,1,48,37,1077947024
33,7,23,Ticks_Phase_5,294,1,48,33,1078326512
33,7,23,Ticks_Phase_5,295,5,42,127,1078343988
33,7,23,Ticks_Phase_5,296,1,48,28,1078802468
33,7,23,Ticks_Phase_5,297,5,42,127,1078843752
33,7,23,Ticks_Phase_5,298,1,48,33,1079319964
33,7,23,Ticks_Phase_5,299,5,42,127,1079343440
33,7,23,Ticks_Phase_5,300,5,42,127,1079844332
33,7,23,Ticks_Phase_5,301,1,48,42,1079848128
33,7,23,Ticks_Phase_5,302,1,48,36,1080314776
33,7,23,Ticks_Phase_5,303,5,42,127,1080344012
33,7,23,Ticks_Phase_5,304,1,48,43,1080818408
33,7,23,Ticks_Phase_5,305,5,42,127,1080843752
33,7,23,Ticks_Phase_5,306,1,48,35,1081338764
33,7,23,Ticks_Phase_5,307,5,42,127,1081344416
33,7,23,Ticks_Phase_5,308,1,48,40,1081822112
33,7,23,Ticks_Phase_5,309,5,42,127,1081844252
33,7,23,Ticks_Phase_5,310,5,42,127,1082343924
33,7,23,Ticks_Phase_5,311,1,48,42,1082362872
33,7,23,Ticks_Phase_5,312,1,48,42,1082830096
33,7,23,Ticks_Phase_5,313,5,42,127,1082843384
33,7,23,Ticks_Phase_5,314,1,48,36,1083322380
33,7,23,Ticks_Phase_5,315,5,42,127,1083344416
33,7,23,Ticks_Phase_5,316,1,48,39,1083840324
33,7,23,Ticks_Phase_5,317,5,42,127,1083844400
33,7,23,Ticks_Phase_5,318,1,48,33,1084320392
33,7,23,Ticks_Phase_5,319,5,42,127,1084343644
33,7,23,Ticks_Phase_5,320,1,48,42,1084841496
33,7,23,Ticks_Phase_5,321,5,42,127,1084844380
33,7,23,Ticks_Phase_5,322,5,42,127,1085344296
33,7,23,Ticks_Phase_5,323,1,48,41,1085360068
33,7,23,Ticks_Phase_5,324,1,48,36,1085840576
33,7,23,Ticks_Phase_5,325,5,42,127,1085843976
33,7,23,Ticks_Phase_5,326,1,48,44,1086342320
33,7,23,Ticks_Phase_5,327,5,42,127,1086344268
33,7,23,Ticks_Phase_5,328,1,48,38,1086795324
33,7,23,Ticks_Phase_5,329,5,42,127,1086844252
33,7,23,Ticks_Phase_5,330,1,48,38,1087322648
33,7,23,Ticks_Phase_5,331,5,42,127,1087344088
33,7,23,Ticks_Phase_5,0,9999,9999,9999,1002801260
33,7,23,Ticks_Phase_5,1,9999,9999,9999,1003301944
33,7,23,Ticks_Phase_5,2,9999,9999,9999,1003801652
33,7,23,Ticks_Phase_5,3,9999,9999,9999,1004301436
33,7,23,Ticks_Phase_5,4,9999,9999,9999,1004801148
33,7,23,Ticks_Phase_5,5,9999,9999,9999,1005301880
33,7,23,Ticks_Phase_5,6,9999,9999,9999,1005801588
33,7,23,Ticks_Phase_5,7,9999,9999,9999,1006301300
33,7,23,Ticks_Phase_5,8,9999,9999,9999,1006801972
33,7,23,Ticks_Phase_5,9,9999,9999,9999,1007301740
33,7,23,Ticks_Phase_5,10,9999,9999,9999,1007801432
33,7,23,Ticks_Phase_5,11,9999,9999,9999,1008301120
33,7,23,Ticks_Phase_5,12,9999,9999,9999,1008801852
33,7,23,Ticks_Phase_5,13,9999,9999,9999,1009301608
33,7,23,Ticks_Phase_5,14,9999,9999,9999,1009801304
33,7,23,Ticks_Phase_5,15,9999,9999,9999,1010302040
33,7,23,Ticks_Phase_5,16,9999,9999,9999,1010801728
33,7,23,Ticks_Phase_5,17,9999,9999,9999,1011301492
33,7,23,Ticks_Phase_5,18,9999,9999,9999,1011801180
33,7,23,Ticks_Phase_5,19,9999,9999,9999,1012301916
33,7,23,Ticks_Phase_5,20,9999,9999,9999,1012801596
33,7,23,Ticks_Phase_5,21,9999,9999,9999,1013301364
33,7,23,Ticks_Phase_5,22,9999,9999,9999,1013802100
33,7,23,Ticks_Phase_5,23,9999,9999,9999,1014301792
33,7,23,Ticks_Phase_5,24,9999,9999,9999,1014801472
33,7,23,Ticks_Phase_5,25,9999,9999,9999,1015301236
33,7,23,Ticks_Phase_5,26,9999,9999,9999,1015801976
33,7,23,Ticks_Phase_5,27,9999,9999,9999,1016301640
33,7,23,Ticks_Phase_5,28,9999,9999,9999,1016801400
33,7,23,Ticks_Phase_5,29,9999,9999,9999,1017302132
33,7,23,Ticks_Phase_5,30,9999,9999,9999,1017801820
33,7,23,Ticks_Phase_5,31,9999,9999,9999,1018301516
33,7,23,Ticks_Phase_5,32,9999,9999,9999,1018801208
33,7,23,Ticks_Phase_5,33,9999,9999,9999,1019302008
33,7,23,Ticks_Phase_5,34,9999,9999,9999,1019801708
33,7,23,Ticks_Phase_5,35,9999,9999,9999,1020301392
33,7,23,Ticks_Phase_5,36,9999,9999,9999,1020801084
33,7,23,Ticks_Phase_5,37,9999,9999,9999,1021301816
33,7,23,Ticks_Phase_5,38,9999,9999,9999,1021801548
33,7,23,Ticks_Phase_5,39,9999,9999,9999,1022301244
33,7,23,Ticks_Phase_5,40,9999,9999,9999,1022801972
33,7,23,Ticks_Phase_5,41,9999,9999,9999,1023301736
33,7,23,Ticks_Phase_5,42,9999,9999,9999,1023801428
33,7,23,Ticks_Phase_5,43,9999,9999,9999,1024301120
33,7,23,Ticks_Phase_5,44,9999,9999,9999,1024801852
33,7,23,Ticks_Phase_5,45,9999,9999,9999,1025301616
33,7,23,Ticks_Phase_5,46,9999,9999,9999,1025801300
33,7,23,Ticks_Phase_5,47,9999,9999,9999,1026302040
33,7,23,Ticks_Phase_5,48,9999,9999,9999,1026811988
33,7,23,Ticks_Phase_5,49,9999,9999,9999,1027311728
33,7,23,Ticks_Phase_5,50,9999,9999,9999,1027811416
33,7,23,Ticks_Phase_5,51,9999,9999,9999,1028311100
33,7,23,Ticks_Phase_5,52,9999,9999,9999,1028811836
33,7,23,Ticks_Phase_5,53,9999,9999,9999,1029311592
33,7,23,Ticks_Phase_5,54,9999,9999,9999,1029811288
33,7,23,Ticks_Phase_5,55,9999,9999,9999,1030312020
33,7,23,Ticks_Phase_5,56,9999,9999,9999,1030811704
33,7,23,Ticks_Phase_5,57,9999,9999,9999,1031311468
33,7,23,Ticks_Phase_5,58,9999,9999,9999,1031811160
33,7,23,Ticks_Phase_5,59,9999,9999,9999,1032311896
33,7,23,Ticks_Phase_5,60,9999,9999,9999,1032811576
33,7,23,Ticks_Phase_5,61,9999,9999,9999,1033311288
33,7,23,Ticks_Phase_5,62,9999,9999,9999,1033812080
33,7,23,Ticks_Phase_5,63,9999,9999,9999,1034311772
33,7,23,Ticks_Phase_5,64,9999,9999,9999,1034831972
33,7,23,Ticks_Phase_5,65,9999,9999,9999,1035331664
33,7,23,Ticks_Phase_5,66,9999,9999,9999,1035831360
33,7,23,Ticks_Phase_5,67,9999,9999,9999,1036331120
33,7,23,Ticks_Phase_5,68,9999,9999,9999,1036831856
33,7,23,Ticks_Phase_5,69,9999,9999,9999,1037331536
33,7,23,Ticks_Phase_5,70,9999,9999,9999,1037831224
33,7,23,Ticks_Phase_5,71,9999,9999,9999,1038331960
33,7,23,Ticks_Phase_5,72,9999,9999,9999,1038831696
33,7,23,Ticks_Phase_5,73,9999,9999,9999,1039331392
33,7,23,Ticks_Phase_5,74,9999,9999,9999,1039831156
33,7,23,Ticks_Phase_5,75,9999,9999,9999,1040331888
33,7,23,Ticks_Phase_5,76,9999,9999,9999,1040831572
33,7,23,Ticks_Phase_5,77,9999,9999,9999,1041331260
33,7,23,Ticks_Phase_5,78,9999,9999,9999,1041831996
33,7,23,Ticks_Phase_5,79,9999,9999,9999,1042331764
33,7,23,Ticks_Phase_5,80,9999,9999,9999,1042831452
33,7,23,Ticks_Phase_5,81,9999,9999,9999,1043311744
33,7,23,Ticks_Phase_5,82,9999,9999,9999,1043811424
33,7,23,Ticks_Phase_5,83,9999,9999,9999,1044311112
33,7,23,Ticks_Phase_5,84,9999,9999,9999,1044811848
33,7,23,Ticks_Phase_5,85,9999,9999,9999,1045311612
33,7,23,Ticks_Phase_5,86,9999,9999,9999,1045811304
33,7,23,Ticks_Phase_5,87,9999,9999,9999,1046312032
33,7,23,Ticks_Phase_5,88,9999,9999,9999,1046811760
33,7,23,Ticks_Phase_5,89,9999,9999,9999,1047311416
33,7,23,Ticks_Phase_5,90,9999,9999,9999,1047811176
33,7,23,Ticks_Phase_5,91,9999,9999,9999,1048311908
33,7,23,Ticks_Phase_5,92,9999,9999,9999,1048811580
33,7,23,Ticks_Phase_5,93,9999,9999,9999,1049311336
33,7,23,Ticks_Phase_5,94,9999,9999,9999,1049812072
33,7,23,Ticks_Phase_5,95,9999,9999,9999,1050311768
33,7,23,Ticks_Phase_5,96,9999,9999,9999,1050811456
33,7,23,Ticks_Phase_5,97,9999,9999,9999,1051262016
33,7,23,Ticks_Phase_5,98,9999,9999,9999,1051761772
33,7,23,Ticks_Phase_5,99,9999,9999,9999,1052261460
33,7,23,Ticks_Phase_5,100,9999,9999,9999,1052761148
33,7,23,Ticks_Phase_5,101,9999,9999,9999,1053261884
33,7,23,Ticks_Phase_5,102,9999,9999,9999,1053761652
33,7,23,Ticks_Phase_5,103,9999,9999,9999,1054261340
33,7,23,Ticks_Phase_5,104,9999,9999,9999,1054762072
33,7,23,Ticks_Phase_5,105,9999,9999,9999,1055261756
33,7,23,Ticks_Phase_5,106,9999,9999,9999,1055761520
33,7,23,Ticks_Phase_5,107,9999,9999,9999,1056261208
33,7,23,Ticks_Phase_5,108,9999,9999,9999,1056761948
33,7,23,Ticks_Phase_5,109,9999,9999,9999,1057261688
33,7,23,Ticks_Phase_5,110,9999,9999,9999,1057761372
33,7,23,Ticks_Phase_5,111,9999,9999,9999,1058262104
33,7,23,Ticks_Phase_5,112,9999,9999,9999,1058772052
33,7,23,Ticks_Phase_5,113,9999,9999,9999,1059271740
33,7,23,Ticks_Phase_5,114,9999,9999,9999,1059821684
33,7,23,Ticks_Phase_5,115,9999,9999,9999,1060321376
33,7,23,Ticks_Phase_5,116,9999,9999,9999,1060822104
33,7,23,Ticks_Phase_5,117,9999,9999,9999,1061332056
33,7,23,Ticks_Phase_5,118,9999,9999,9999,1061831740
33,7,23,Ticks_Phase_5,119,9999,9999,9999,1062331500
33,7,23,Ticks_Phase_5,120,9999,9999,9999,1062831188
33,7,23,Ticks_Phase_5,121,9999,9999,9999,1063331924
33,7,23,Ticks_Phase_5,122,9999,9999,9999,1063831616
33,7,23,Ticks_Phase_5,123,9999,9999,9999,1064331372
33,7,23,Ticks_Phase_5,124,9999,9999,9999,1064832112
33,7,23,Ticks_Phase_5,125,9999,9999,9999,1065342060
33,7,23,Ticks_Phase_5,126,9999,9999,9999,1065841748
33,7,23,Ticks_Phase_5,127,9999,9999,9999,1066341436
33,7,23,Ticks_Phase_5,128,9999,9999,9999,1066841196
33,7,23,Ticks_Phase_5,129,9999,9999,9999,1067341936
33,7,23,Ticks_Phase_5,130,9999,9999,9999,1067841624
33,7,23,Ticks_Phase_5,131,9999,9999,9999,1068441712
33,7,23,Ticks_Phase_5,132,9999,9999,9999,1068941424
33,7,23,Ticks_Phase_5,133,9999,9999,9999,1069441112
33,7,23,Ticks_Phase_5,134,9999,9999,9999,1069941848
33,7,23,Ticks_Phase_5,135,9999,9999,9999,1070441536
33,7,23,Ticks_Phase_5,136,9999,9999,9999,1070941300
33,7,23,Ticks_Phase_5,137,9999,9999,9999,1071442032
33,7,23,Ticks_Phase_5,138,9999,9999,9999,1071941716
33,7,23,Ticks_Phase_5,139,9999,9999,9999,1072441404
33,7,23,Ticks_Phase_5,140,9999,9999,9999,1072941164
33,7,23,Ticks_Phase_5,141,9999,9999,9999,1073441904
33,7,23,Ticks_Phase_5,142,9999,9999,9999,1073941592
33,7,23,Ticks_Phase_5,143,9999,9999,9999,1074441284
33,7,23,Ticks_Phase_5,144,9999,9999,9999,1074942012
33,7,23,Ticks_Phase_5,145,9999,9999,9999,1075441752
33,7,23,Ticks_Phase_5,146,9999,9999,9999,1075941444
33,7,23,Ticks_Phase_5,147,9999,9999,9999,1076441208
33,7,23,Ticks_Phase_5,148,9999,9999,9999,1076941936
33,7,23,Ticks_Phase_5,149,9999,9999,9999,1077441624
33,7,23,Ticks_Phase_5,150,9999,9999,9999,1077842020
33,7,23,Ticks_Phase_5,151,9999,9999,9999,1078341700
33,7,23,Ticks_Phase_5,152,9999,9999,9999,1078841464
33,7,23,Ticks_Phase_5,153,9999,9999,9999,1079341152
33,7,23,Ticks_Phase_5,154,9999,9999,9999,1079841896
33,7,23,Ticks_Phase_5,155,9999,9999,9999,1080341576
33,7,23,Ticks_Phase_5,156,9999,9999,9999,1080841316
33,7,23,Ticks_Phase_5,157,9999,9999,9999,1081342056
33,7,23,Ticks_Phase_5,158,9999,9999,9999,1081841724
33,7,23,Ticks_Phase_5,159,9999,9999,9999,1082341488
33,7,23,Ticks_Phase_5,160,9999,9999,9999,1082841172
33,7,23,Ticks_Phase_5,161,9999,9999,9999,1083341904
33,7,23,Ticks_Phase_5,162,9999,9999,9999,1083841596
33,7,23,Ticks_Phase_5,163,9999,9999,9999,1084341356
33,7,23,Ticks_Phase_5,164,9999,9999,9999,1084842092
33,7,23,Ticks_Phase_5,165,9999,9999,9999,1085341788
33,7,23,Ticks_Phase_5,166,9999,9999,9999,1085841468
33,7,23,Ticks_Phase_5,167,9999,9999,9999,1086341236
33,7,23,Ticks_Phase_5,168,9999,9999,9999,1086841964
33,7,23,Ticks_Phase_5,169,9999,9999,9999,1087341652
33,8,22,Ticks_Phase_8,0,5,42,127,1156402424
33,8,22,Ticks_Phase_8,1,5,42,127,1157203280
33,8,22,Ticks_Phase_8,2,5,42,127,1158003088
33,8,22,Ticks_Phase_8,3,5,42,127,1158802896
33,8,22,Ticks_Phase_8,4,5,42,127,1159602704
33,8,22,Ticks_Phase_8,5,1,48,35,1159611672
33,8,22,Ticks_Phase_8,6,5,42,127,1160403388
33,8,22,Ticks_Phase_8,7,1,48,35,1160410176
33,8,22,Ticks_Phase_8,8,5,42,127,1161203124
33,8,22,Ticks_Phase_8,9,1,48,36,1161208192
33,8,22,Ticks_Phase_8,10,5,42,127,1162002760
33,8,22,Ticks_Phase_8,11,1,48,32,1162015768
33,8,22,Ticks_Phase_8,12,1,48,19,1162767012
33,8,22,Ticks_Phase_8,13,5,42,127,1162802468
33,8,22,Ticks_Phase_8,14,5,42,127,1163603384
33,8,22,Ticks_Phase_8,15,1,48,37,1163606504
33,8,22,Ticks_Phase_8,16,1,48,38,1164388976
33,8,22,Ticks_Phase_8,17,5,42,127,1164403012
33,8,22,Ticks_Phase_8,18,1,48,45,1165176184
33,8,22,Ticks_Phase_8,19,5,42,127,1165202728
33,8,22,Ticks_Phase_8,20,1,48,40,1165988696
33,8,22,Ticks_Phase_8,21,5,42,127,1166002736
33,8,22,Ticks_Phase_8,22,1,48,37,1166763480
33,8,22,Ticks_Phase_8,23,5,42,127,1166803496
33,8,22,Ticks_Phase_8,24,1,48,40,1167577568
33,8,22,Ticks_Phase_8,25,5,42,127,1167603084
33,8,22,Ticks_Phase_8,26,5,42,127,1168402728
33,8,22,Ticks_Phase_8,27,1,48,43,1168412140
33,8,22,Ticks_Phase_8,28,1,48,46,1169169896
33,8,22,Ticks_Phase_8,29,5,42,127,1169202508
33,8,22,Ticks_Phase_8,30,1,48,44,1169981824
33,8,22,Ticks_Phase_8,31,5,42,127,1170003340
33,8,22,Ticks_Phase_8,32,1,48,43,1170752924
33,8,22,Ticks_Phase_8,33,5,42,127,1170803052
33,8,22,Ticks_Phase_8,34,1,48,42,1171590460
33,8,22,Ticks_Phase_8,35,5,42,127,1171602840
33,8,22,Ticks_Phase_8,36,1,48,40,1172386340
33,8,22,Ticks_Phase_8,37,5,42,127,1172402476
33,8,22,Ticks_Phase_8,38,1,48,41,1173161424
33,8,22,Ticks_Phase_8,39,5,42,127,1173203456
33,8,22,Ticks_Phase_8,40,1,48,44,1173964048
33,8,22,Ticks_Phase_8,41,5,42,127,1174003340
33,8,22,Ticks_Phase_8,42,5,42,127,1174802688
33,8,22,Ticks_Phase_8,43,1,48,44,1174807756
33,8,22,Ticks_Phase_8,44,5,42,127,1175602548
33,8,22,Ticks_Phase_8,45,1,48,41,1175617348
33,8,22,Ticks_Phase_8,46,1,48,40,1176352276
33,8,22,Ticks_Phase_8,47,5,42,127,1176403300
33,8,22,Ticks_Phase_8,48,1,48,39,1177178120
33,8,22,Ticks_Phase_8,49,5,42,127,1177203160
33,8,22,Ticks_Phase_8,50,1,48,41,1178000288
33,8,22,Ticks_Phase_8,51,5,42,127,1178003168
33,8,22,Ticks_Phase_8,52,5,42,127,1178802516
33,8,22,Ticks_Phase_8,53,1,48,40,1178812080
33,8,22,Ticks_Phase_8,54,1,48,41,1179593428
33,8,22,Ticks_Phase_8,55,5,42,127,1179603268
33,8,22,Ticks_Phase_8,56,5,42,127,1180382544
33,8,22,Ticks_Phase_8,57,1,48,40,1180405304
33,8,22,Ticks_Phase_8,58,5,42,127,1181183328
33,8,22,Ticks_Phase_8,59,1,48,33,1181192592
33,8,22,Ticks_Phase_8,60,1,48,32,1181953424
33,8,22,Ticks_Phase_8,61,5,42,127,1181983032
33,8,22,Ticks_Phase_8,62,1,48,40,1182769380
33,8,22,Ticks_Phase_8,63,5,42,127,1182783116
33,8,22,Ticks_Phase_8,64,1,48,38,1183560176
33,8,22,Ticks_Phase_8,65,5,42,127,1183582456
33,8,22,Ticks_Phase_8,66,1,48,42,1184358620
33,8,22,Ticks_Phase_8,67,5,42,127,1184383436
33,8,22,Ticks_Phase_8,68,5,42,127,1185183008
33,8,22,Ticks_Phase_8,69,1,48,40,1185232708
33,8,22,Ticks_Phase_8,70,1,48,42,1185964484
33,8,22,Ticks_Phase_8,71,5,42,127,1185982784
33,8,22,Ticks_Phase_8,72,1,48,40,1186746140
33,8,22,Ticks_Phase_8,73,5,42,127,1186782644
33,8,22,Ticks_Phase_8,74,1,48,43,1187500628
33,8,22,Ticks_Phase_8,75,5,42,127,1187583428
33,8,22,Ticks_Phase_8,76,1,48,36,1188318976
33,8,22,Ticks_Phase_8,77,5,42,127,1188383140
33,8,22,Ticks_Phase_8,78,1,48,37,1189177952
33,8,22,Ticks_Phase_8,79,5,42,127,1189182780
33,8,22,Ticks_Phase_8,80,1,48,35,1189969352
33,8,22,Ticks_Phase_8,81,5,42,127,1189982788
33,8,22,Ticks_Phase_8,82,1,48,35,1190763448
33,8,22,Ticks_Phase_8,83,5,42,127,1190783324
33,8,22,Ticks_Phase_8,84,1,48,38,1191572604
33,8,22,Ticks_Phase_8,85,5,42,127,1191583036
33,8,22,Ticks_Phase_8,86,5,42,127,1192382756
33,8,22,Ticks_Phase_8,87,1,48,33,1192411112
33,8,22,Ticks_Phase_8,88,1,48,33,1193147604
33,8,22,Ticks_Phase_8,89,5,42,127,1193182756
33,8,22,Ticks_Phase_8,90,1,48,37,1193964864
33,8,22,Ticks_Phase_8,91,5,42,127,1193983392
33,8,22,Ticks_Phase_8,92,1,48,35,1194771320
33,8,22,Ticks_Phase_8,93,5,42,127,1194802500
33,8,22,Ticks_Phase_8,94,5,42,127,1195603268
33,8,22,Ticks_Phase_8,95,1,48,35,1195620624
33,8,22,Ticks_Phase_8,96,1,48,44,1196381076
33,8,22,Ticks_Phase_8,97,5,42,127,1196403044
33,8,22,Ticks_Phase_8,98,5,42,127,1197202692
33,8,22,Ticks_Phase_8,99,1,48,50,1197231876
33,8,22,Ticks_Phase_8,100,1,48,49,1197978700
33,8,22,Ticks_Phase_8,101,5,42,127,1198002472
33,8,22,Ticks_Phase_8,102,5,42,127,1198803312
33,8,22,Ticks_Phase_8,103,1,48,45,1198813920
33,8,22,Ticks_Phase_8,104,5,42,127,1199603272
33,8,22,Ticks_Phase_8,105,1,48,49,1199612760
33,8,22,Ticks_Phase_8,106,1,48,51,1200395308
33,8,22,Ticks_Phase_8,107,5,42,127,1200402752
33,8,22,Ticks_Phase_8,108,1,48,48,1201157572
33,8,22,Ticks_Phase_8,109,5,42,127,1201202612
33,8,22,Ticks_Phase_8,110,5,42,127,1202003228
33,8,22,Ticks_Phase_8,111,1,48,47,1202013160
33,8,22,Ticks_Phase_8,112,1,48,50,1202799904
33,8,22,Ticks_Phase_8,113,5,42,127,1202803156
33,8,22,Ticks_Phase_8,114,1,48,46,1203602876
33,8,22,Ticks_Phase_8,115,5,42,127,1203604360
33,8,22,Ticks_Phase_8,116,5,42,127,1204402512
33,8,22,Ticks_Phase_8,117,1,48,46,1204432740
33,8,22,Ticks_Phase_8,118,5,42,127,1205203272
33,8,22,Ticks_Phase_8,119,1,48,42,1205206392
33,8,22,Ticks_Phase_8,120,1,48,43,1205982580
33,8,22,Ticks_Phase_8,121,5,42,127,1206003000
33,8,22,Ticks_Phase_8,122,5,42,127,1206803016
33,8,22,Ticks_Phase_8,123,1,48,41,1206837368
33,8,22,Ticks_Phase_8,124,1,48,39,1207596480
33,8,22,Ticks_Phase_8,125,5,42,127,1207642416
33,8,22,Ticks_Phase_8,126,1,48,42,1208425464
33,8,22,Ticks_Phase_8,127,5,42,127,1208443172
33,8,22,Ticks_Phase_8,128,1,48,41,1209229820
33,8,22,Ticks_Phase_8,129,5,42,127,1209242884
33,8,22,Ticks_Phase_8,130,1,48,35,1210033208
33,8,22,Ticks_Phase_8,131,5,42,127,1210042820
33,8,22,Ticks_Phase_8,132,5,42,127,1210842464
33,8,22,Ticks_Phase_8,133,1,48,52,1210845952
33,8,22,Ticks_Phase_8,134,5,42,127,1211643248
33,8,22,Ticks_Phase_8,135,1,48,41,1211660604
33,8,22,Ticks_Phase_8,136,1,48,49,1212424504
33,8,22,Ticks_Phase_8,137,5,42,127,1212442880
33,8,22,Ticks_Phase_8,138,1,48,49,1213237988
33,8,22,Ticks_Phase_8,139,5,42,127,1213242664
33,8,22,Ticks_Phase_8,140,5,42,127,1214042756
33,8,22,Ticks_Phase_8,141,1,48,51,1214091860
33,8,22,Ticks_Phase_8,142,1,48,49,1214837336
33,8,22,Ticks_Phase_8,143,5,42,127,1214843356
33,8,22,Ticks_Phase_8,144,1,48,48,1215599524
33,8,22,Ticks_Phase_8,145,5,42,127,1215642924
33,8,22,Ticks_Phase_8,146,1,48,43,1216424480
33,8,22,Ticks_Phase_8,147,5,42,127,1216442780
33,8,22,Ticks_Phase_8,148,5,42,127,1217242648
33,8,22,Ticks_Phase_8,149,1,48,46,1217262568
33,8,22,Ticks_Phase_8,150,1,48,45,1218041844
33,8,22,Ticks_Phase_8,151,5,42,127,1218043500
33,8,22,Ticks_Phase_8,152,1,48,41,1218831432
33,8,22,Ticks_Phase_8,153,5,42,127,1218842988
33,8,22,Ticks_Phase_8,154,1,48,45,1219593844
33,8,22,Ticks_Phase_8,155,5,42,127,1219642700
33,8,22,Ticks_Phase_8,156,1,48,51,1220404112
33,8,22,Ticks_Phase_8,157,5,42,127,1220442412
33,8,22,Ticks_Phase_8,158,5,42,127,1221203336
33,8,22,Ticks_Phase_8,159,1,48,49,1221232296
33,8,22,Ticks_Phase_8,160,1,48,48,1221997020
33,8,22,Ticks_Phase_8,161,5,42,127,1222003264
33,8,22,Ticks_Phase_8,162,1,48,50,1222748576
33,8,22,Ticks_Phase_8,163,5,42,127,1222802828
33,8,22,Ticks_Phase_8,164,1,48,50,1223539448
33,8,22,Ticks_Phase_8,165,5,42,127,1223602540
33,8,22,Ticks_Phase_8,166,1,48,43,1224347548
33,8,22,Ticks_Phase_8,167,5,42,127,1224403448
33,8,22,Ticks_Phase_8,168,1,48,48,1225169204
33,8,22,Ticks_Phase_8,169,5,42,127,1225203260
33,8,22,Ticks_Phase_8,170,1,48,50,1226002304
33,8,22,Ticks_Phase_8,171,5,42,127,1226004240
33,8,22,Ticks_Phase_8,172,1,48,49,1226792696
33,8,22,Ticks_Phase_8,173,5,42,127,1226802684
33,8,22,Ticks_Phase_8,174,1,48,52,1227596296
33,8,22,Ticks_Phase_8,175,5,42,127,1227603292
33,8,22,Ticks_Phase_8,176,1,48,53,1228362388
33,8,22,Ticks_Phase_8,177,5,42,127,1228403304
33,8,22,Ticks_Phase_8,178,5,42,127,1229202948
33,8,22,Ticks_Phase_8,179,1,48,48,1229212888
33,8,22,Ticks_Phase_8,180,1,48,46,1229953348
33,8,22,Ticks_Phase_8,181,5,42,127,1230002500
33,8,22,Ticks_Phase_8,182,1,48,44,1230780996
33,8,22,Ticks_Phase_8,183,5,42,127,1230803260
33,8,22,Ticks_Phase_8,184,1,48,50,1231545272
33,8,22,Ticks_Phase_8,185,5,42,127,1231602924
33,8,22,Ticks_Phase_8,186,1,48,49,1232370096
33,8,22,Ticks_Phase_8,187,5,42,127,1232402856
33,8,22,Ticks_Phase_8,188,1,48,49,1233175728
33,8,22,Ticks_Phase_8,189,5,42,127,1233202720
33,8,22,Ticks_Phase_8,190,5,42,127,1233922384
33,8,22,Ticks_Phase_8,191,1,48,49,1233996868
33,8,22,Ticks_Phase_8,192,5,42,127,1234723216
33,8,22,Ticks_Phase_8,193,1,48,36,1234779204
33,8,22,Ticks_Phase_8,194,1,48,43,1235506192
33,8,22,Ticks_Phase_8,195,5,42,127,1235522920
33,8,22,Ticks_Phase_8,196,1,48,45,1236302236
33,8,22,Ticks_Phase_8,197,5,42,127,1236322780
33,8,22,Ticks_Phase_8,198,1,48,45,1237098724
33,8,22,Ticks_Phase_8,199,5,42,127,1237122344
33,8,22,Ticks_Phase_8,200,1,48,47,1237912220
33,8,22,Ticks_Phase_8,201,5,42,127,1237923104
33,8,22,Ticks_Phase_8,202,1,48,41,1238713952
33,8,22,Ticks_Phase_8,203,5,42,127,1238722892
33,8,22,Ticks_Phase_8,204,1,48,46,1239497556
33,8,22,Ticks_Phase_8,205,5,42,127,1239522676
33,8,22,Ticks_Phase_8,206,1,48,45,1240274876
33,8,22,Ticks_Phase_8,207,5,42,127,1240322564
33,8,22,Ticks_Phase_8,208,1,48,49,1241107864
33,8,22,Ticks_Phase_8,209,5,42,127,1241123172
33,8,22,Ticks_Phase_8,210,5,42,127,1241922892
33,8,22,Ticks_Phase_8,211,1,48,50,1241964056
33,8,22,Ticks_Phase_8,212,1,48,46,1242709084
33,8,22,Ticks_Phase_8,213,5,42,127,1242722596
33,8,22,Ticks_Phase_8,214,1,48,45,1243512096
33,8,22,Ticks_Phase_8,215,5,42,127,1243522528
33,8,22,Ticks_Phase_8,216,1,48,37,1244293756
33,8,22,Ticks_Phase_8,217,5,42,127,1244323364
33,8,22,Ticks_Phase_8,218,1,48,38,1245080352
33,8,22,Ticks_Phase_8,219,5,42,127,1245123004
33,8,22,Ticks_Phase_8,220,1,48,40,1245903368
33,8,22,Ticks_Phase_8,221,5,42,127,1245922640
33,8,22,Ticks_Phase_8,222,1,48,47,1246717328
33,8,22,Ticks_Phase_8,223,5,42,127,1246722380
33,8,22,Ticks_Phase_8,224,1,48,41,1247501324
33,8,22,Ticks_Phase_8,225,5,42,127,1247603252
33,8,22,Ticks_Phase_8,226,1,48,35,1248376888
33,8,22,Ticks_Phase_8,227,5,42,127,1248402680
33,8,22,Ticks_Phase_8,228,1,48,48,1249191728
33,8,22,Ticks_Phase_8,229,5,42,127,1249202540
33,8,22,Ticks_Phase_8,230,1,48,46,1249994360
33,8,22,Ticks_Phase_8,231,5,42,127,1250003300
33,8,22,Ticks_Phase_8,232,1,48,45,1250788972
33,8,22,Ticks_Phase_8,233,5,42,127,1250803236
33,8,22,Ticks_Phase_8,234,1,48,35,1251586148
33,8,22,Ticks_Phase_8,235,5,42,127,1251602800
33,8,22,Ticks_Phase_8,236,1,48,41,1252402292
33,8,22,Ticks_Phase_8,237,5,42,127,1252403928
33,8,22,Ticks_Phase_8,238,1,48,42,1253185940
33,8,22,Ticks_Phase_8,239,5,42,127,1253203192
33,8,22,Ticks_Phase_8,240,1,48,40,1253990900
33,8,22,Ticks_Phase_8,241,5,42,127,1254003052
33,8,22,Ticks_Phase_8,242,1,48,38,1254789100
33,8,22,Ticks_Phase_8,243,5,42,127,1254802912
33,8,22,Ticks_Phase_8,244,1,48,39,1255539308
33,8,22,Ticks_Phase_8,245,5,42,127,1255602476
33,8,22,Ticks_Phase_8,246,1,48,32,1256369048
33,8,22,Ticks_Phase_8,247,5,42,127,1256403236
33,8,22,Ticks_Phase_8,248,1,48,43,1257167640
33,8,22,Ticks_Phase_8,249,5,42,127,1257202972
33,8,22,Ticks_Phase_8,250,1,48,43,1257979956
33,8,22,Ticks_Phase_8,251,5,42,127,1258002904
33,8,22,Ticks_Phase_8,252,1,48,32,1258769404
33,8,22,Ticks_Phase_8,253,5,42,127,1258802616
33,8,22,Ticks_Phase_8,254,1,48,39,1259588364
33,8,22,Ticks_Phase_8,255,5,42,127,1259603452
33,8,22,Ticks_Phase_8,256,5,42,127,1260403020
33,8,22,Ticks_Phase_8,257,1,48,36,1260412656
33,8,22,Ticks_Phase_8,258,1,48,32,1261203072
33,8,22,Ticks_Phase_8,259,5,42,127,1261362620
33,8,22,Ticks_Phase_8,260,5,42,127,1262163328
33,8,22,Ticks_Phase_8,261,1,48,25,1262253840
33,8,22,Ticks_Phase_8,262,5,42,127,1262963112
33,8,22,Ticks_Phase_8,263,1,48,36,1263018572
33,8,22,Ticks_Phase_8,264,5,42,127,1263762748
33,8,22,Ticks_Phase_8,265,1,48,43,1263780388
33,8,22,Ticks_Phase_8,266,5,42,127,1264562608
33,8,22,Ticks_Phase_8,267,1,48,42,1264649844
33,8,22,Ticks_Phase_8,268,1,48,42,1265355540
33,8,22,Ticks_Phase_8,269,5,42,127,1265363284
33,8,22,Ticks_Phase_8,270,1,48,50,1266140660
33,8,22,Ticks_Phase_8,271,5,42,127,1266163024
33,8,22,Ticks_Phase_8,272,1,48,51,1266962292
33,8,22,Ticks_Phase_8,273,5,42,127,1266964004
33,8,22,Ticks_Phase_8,274,1,48,50,1267733664
33,8,22,Ticks_Phase_8,275,5,42,127,1267762524
33,8,22,Ticks_Phase_8,276,5,42,127,1268563288
33,8,22,Ticks_Phase_8,277,1,48,50,1268574868
33,8,22,Ticks_Phase_8,278,5,42,127,1269363224
33,8,22,Ticks_Phase_8,279,1,48,51,1269369856
33,8,22,Ticks_Phase_8,280,1,48,44,1270111384
33,8,22,Ticks_Phase_8,281,5,42,127,1270162780
33,8,22,Ticks_Phase_8,282,5,42,127,1270962644
33,8,22,Ticks_Phase_8,283,1,48,42,1270982540
33,8,22,Ticks_Phase_8,284,1,48,39,1271732068
33,8,22,Ticks_Phase_8,285,5,42,127,1271763396
33,8,22,Ticks_Phase_8,286,1,48,43,1272537988
33,8,22,Ticks_Phase_8,287,5,42,127,1272563136
33,8,22,Ticks_Phase_8,288,1,48,33,1273348884
33,8,22,Ticks_Phase_8,289,5,42,127,1273362848
33,8,22,Ticks_Phase_8,290,1,48,39,1274129948
33,8,22,Ticks_Phase_8,291,5,42,127,1274162560
33,8,22,Ticks_Phase_8,292,1,48,39,1274923524
33,8,22,Ticks_Phase_8,293,5,42,127,1274963240
33,8,22,Ticks_Phase_8,294,5,42,127,1275763112
33,8,22,Ticks_Phase_8,295,1,48,48,1275786972
33,8,22,Ticks_Phase_8,296,5,42,127,1276403088
33,8,22,Ticks_Phase_8,297,1,48,53,1276545348
33,8,22,Ticks_Phase_8,298,5,42,127,1277202724
33,8,22,Ticks_Phase_8,299,1,48,44,1277362812
33,8,22,Ticks_Phase_8,300,5,42,127,1278002660
33,8,22,Ticks_Phase_8,301,1,48,39,1278059464
33,8,22,Ticks_Phase_8,302,1,48,41,1278779336
33,8,22,Ticks_Phase_8,303,5,42,127,1278803260
33,8,22,Ticks_Phase_8,304,1,48,46,1279552024
33,8,22,Ticks_Phase_8,305,5,42,127,1279603048
33,8,22,Ticks_Phase_8,306,5,42,127,1280402840
33,8,22,Ticks_Phase_8,307,1,48,47,1280421168
33,8,22,Ticks_Phase_8,308,1,48,43,1281175856
33,8,22,Ticks_Phase_8,309,5,42,127,1281202396
33,8,22,Ticks_Phase_8,310,1,48,40,1281969200
33,8,22,Ticks_Phase_8,311,5,42,127,1282003452
33,8,22,Ticks_Phase_8,312,1,48,46,1282783372
33,8,22,Ticks_Phase_8,313,5,42,127,1282803116
33,8,22,Ticks_Phase_8,314,1,48,45,1283588864
33,8,22,Ticks_Phase_8,315,5,42,127,1283602680
33,8,22,Ticks_Phase_8,316,1,48,48,1284374424
33,8,22,Ticks_Phase_8,317,5,42,127,1284402836
33,8,22,Ticks_Phase_8,318,1,48,46,1285180424
33,8,22,Ticks_Phase_8,319,5,42,127,1285203296
33,8,22,Ticks_Phase_8,320,1,48,46,1285994888
33,8,22,Ticks_Phase_8,321,5,42,127,1286003008
33,8,22,Ticks_Phase_8,322,5,42,127,1286802728
33,8,22,Ticks_Phase_8,323,1,48,46,1286845012
33,8,22,Ticks_Phase_8,324,5,42,127,1287602664
33,8,22,Ticks_Phase_8,325,1,48,39,1287643676
33,8,22,Ticks_Phase_8,326,1,48,44,1288383464
33,8,22,Ticks_Phase_8,327,5,42,127,1288403412
33,8,22,Ticks_Phase_8,328,5,42,127,1289203084
33,8,22,Ticks_Phase_8,329,1,48,48,1289204196
33,8,22,Ticks_Phase_8,330,5,42,127,1290002940
33,8,22,Ticks_Phase_8,331,1,48,47,1290005912
33,8,22,Ticks_Phase_8,332,1,48,49,1290778348
33,8,22,Ticks_Phase_8,333,5,42,127,1290802500
33,8,22,Ticks_Phase_8,334,5,42,127,1291603412
33,8,22,Ticks_Phase_8,0,9999,9999,9999,1156400212
33,8,22,Ticks_Phase_8,1,9999,9999,9999,1157200992
33,8,22,Ticks_Phase_8,2,9999,9999,9999,1158000728
33,8,22,Ticks_Phase_8,3,9999,9999,9999,1158800460
33,8,22,Ticks_Phase_8,4,9999,9999,9999,1159600196
33,8,22,Ticks_Phase_8,5,9999,9999,9999,1160400952
33,8,22,Ticks_Phase_8,6,9999,9999,9999,1161200764
33,8,22,Ticks_Phase_8,7,9999,9999,9999,1162000476
33,8,22,Ticks_Phase_8,8,9999,9999,9999,1162800180
33,8,22,Ticks_Phase_8,9,9999,9999,9999,1163601024
33,8,22,Ticks_Phase_8,10,9999,9999,9999,1164400728
33,8,22,Ticks_Phase_8,11,9999,9999,9999,1165200440
33,8,22,Ticks_Phase_8,12,9999,9999,9999,1166000228
33,8,22,Ticks_Phase_8,13,9999,9999,9999,1166800988
33,8,22,Ticks_Phase_8,14,9999,9999,9999,1167600724
33,8,22,Ticks_Phase_8,15,9999,9999,9999,1168400440
33,8,22,Ticks_Phase_8,16,9999,9999,9999,1169200220
33,8,22,Ticks_Phase_8,17,9999,9999,9999,1170000976
33,8,22,Ticks_Phase_8,18,9999,9999,9999,1170800764
33,8,22,Ticks_Phase_8,19,9999,9999,9999,1171600476
33,8,22,Ticks_Phase_8,20,9999,9999,9999,1172400188
33,8,22,Ticks_Phase_8,21,9999,9999,9999,1173201020
33,8,22,Ticks_Phase_8,22,9999,9999,9999,1174000756
33,8,22,Ticks_Phase_8,23,9999,9999,9999,1174800476
33,8,22,Ticks_Phase_8,24,9999,9999,9999,1175600188
33,8,22,Ticks_Phase_8,25,9999,9999,9999,1176401012
33,8,22,Ticks_Phase_8,26,9999,9999,9999,1177200724
33,8,22,Ticks_Phase_8,27,9999,9999,9999,1178000512
33,8,22,Ticks_Phase_8,28,9999,9999,9999,1178800228
33,8,22,Ticks_Phase_8,29,9999,9999,9999,1179600980
33,8,22,Ticks_Phase_8,30,9999,9999,9999,1180380256
33,8,22,Ticks_Phase_8,31,9999,9999,9999,1181181040
33,8,22,Ticks_Phase_8,32,9999,9999,9999,1181980744
33,8,22,Ticks_Phase_8,33,9999,9999,9999,1182780532
33,8,22,Ticks_Phase_8,34,9999,9999,9999,1183580244
33,8,22,Ticks_Phase_8,35,9999,9999,9999,1184381000
33,8,22,Ticks_Phase_8,36,9999,9999,9999,1185180796
33,8,22,Ticks_Phase_8,37,9999,9999,9999,1185980500
33,8,22,Ticks_Phase_8,38,9999,9999,9999,1186780284
33,8,22,Ticks_Phase_8,39,9999,9999,9999,1187580992
33,8,22,Ticks_Phase_8,40,9999,9999,9999,1188380780
33,8,22,Ticks_Phase_8,41,9999,9999,9999,1189180492
33,8,22,Ticks_Phase_8,42,9999,9999,9999,1189980280
33,8,22,Ticks_Phase_8,43,9999,9999,9999,1190781040
33,8,22,Ticks_Phase_8,44,9999,9999,9999,1191580752
33,8,22,Ticks_Phase_8,45,9999,9999,9999,1192380544
33,8,22,Ticks_Phase_8,46,9999,9999,9999,1193180248
33,8,22,Ticks_Phase_8,47,9999,9999,9999,1193981028
33,8,22,Ticks_Phase_8,48,9999,9999,9999,1194800216
33,8,22,Ticks_Phase_8,49,9999,9999,9999,1195600980
33,8,22,Ticks_Phase_8,50,9999,9999,9999,1196400760
33,8,22,Ticks_Phase_8,51,9999,9999,9999,1197200480
33,8,22,Ticks_Phase_8,52,9999,9999,9999,1198000184
33,8,22,Ticks_Phase_8,53,9999,9999,9999,1198800952
33,8,22,Ticks_Phase_8,54,9999,9999,9999,1199600760
33,8,22,Ticks_Phase_8,55,9999,9999,9999,1200400464
33,8,22,Ticks_Phase_8,56,9999,9999,9999,1201200252
33,8,22,Ticks_Phase_8,57,9999,9999,9999,1202001016
33,8,22,Ticks_Phase_8,58,9999,9999,9999,1202800720
33,8,22,Ticks_Phase_8,59,9999,9999,9999,1203600440
33,8,22,Ticks_Phase_8,60,9999,9999,9999,1204400224
33,8,22,Ticks_Phase_8,61,9999,9999,9999,1205200984
33,8,22,Ticks_Phase_8,62,9999,9999,9999,1206000712
33,8,22,Ticks_Phase_8,63,9999,9999,9999,1206800508
33,8,22,Ticks_Phase_8,64,9999,9999,9999,1207640128
33,8,22,Ticks_Phase_8,65,9999,9999,9999,1208440888
33,8,22,Ticks_Phase_8,66,9999,9999,9999,1209240672
33,8,22,Ticks_Phase_8,67,9999,9999,9999,1210040384
33,8,22,Ticks_Phase_8,68,9999,9999,9999,1210840176
33,8,22,Ticks_Phase_8,69,9999,9999,9999,1211640888
33,8,22,Ticks_Phase_8,70,9999,9999,9999,1212440668
33,8,22,Ticks_Phase_8,71,9999,9999,9999,1213240380
33,8,22,Ticks_Phase_8,72,9999,9999,9999,1214040168
33,8,22,Ticks_Phase_8,73,9999,9999,9999,1214840924
33,8,22,Ticks_Phase_8,74,9999,9999,9999,1215640636
33,8,22,Ticks_Phase_8,75,9999,9999,9999,1216440420
33,8,22,Ticks_Phase_8,76,9999,9999,9999,1217240140
33,8,22,Ticks_Phase_8,77,9999,9999,9999,1218040920
33,8,22,Ticks_Phase_8,78,9999,9999,9999,1218840700
33,8,22,Ticks_Phase_8,79,9999,9999,9999,1219640412
33,8,22,Ticks_Phase_8,80,9999,9999,9999,1220440124
33,8,22,Ticks_Phase_8,81,9999,9999,9999,1221200976
33,8,22,Ticks_Phase_8,82,9999,9999,9999,1222000756
33,8,22,Ticks_Phase_8,83,9999,9999,9999,1222800468
33,8,22,Ticks_Phase_8,84,9999,9999,9999,1223600256
33,8,22,Ticks_Phase_8,85,9999,9999,9999,1224401012
33,8,22,Ticks_Phase_8,86,9999,9999,9999,1225200752
33,8,22,Ticks_Phase_8,87,9999,9999,9999,1226000468
33,8,22,Ticks_Phase_8,88,9999,9999,9999,1226800248
33,8,22,Ticks_Phase_8,89,9999,9999,9999,1227601008
33,8,22,Ticks_Phase_8,90,9999,9999,9999,1228400720
33,8,22,Ticks_Phase_8,91,9999,9999,9999,1229200512
33,8,22,Ticks_Phase_8,92,9999,9999,9999,1230000216
33,8,22,Ticks_Phase_8,93,9999,9999,9999,1230800972
33,8,22,Ticks_Phase_8,94,9999,9999,9999,1231600712
33,8,22,Ticks_Phase_8,95,9999,9999,9999,1232400496
33,8,22,Ticks_Phase_8,96,9999,9999,9999,1233200208
33,8,22,Ticks_Phase_8,97,9999,9999,9999,1233920096
33,8,22,Ticks_Phase_8,98,9999,9999,9999,1234720856
33,8,22,Ticks_Phase_8,99,9999,9999,9999,1235520632
33,8,22,Ticks_Phase_8,100,9999,9999,9999,1236320344
33,8,22,Ticks_Phase_8,101,9999,9999,9999,1237120060
33,8,22,Ticks_Phase_8,102,9999,9999,9999,1237920892
33,8,22,Ticks_Phase_8,103,9999,9999,9999,1238720604
33,8,22,Ticks_Phase_8,104,9999,9999,9999,1239520316
33,8,22,Ticks_Phase_8,105,9999,9999,9999,1240320128
33,8,22,Ticks_Phase_8,106,9999,9999,9999,1241120888
33,8,22,Ticks_Phase_8,107,9999,9999,9999,1241920604
33,8,22,Ticks_Phase_8,108,9999,9999,9999,1242720308
33,8,22,Ticks_Phase_8,109,9999,9999,9999,1243520096
33,8,22,Ticks_Phase_8,110,9999,9999,9999,1244320856
33,8,22,Ticks_Phase_8,111,9999,9999,9999,1245120568
33,8,22,Ticks_Phase_8,112,9999,9999,9999,1245920352
33,8,22,Ticks_Phase_8,113,9999,9999,9999,1246720092
33,8,22,Ticks_Phase_8,114,9999,9999,9999,1247600740
33,8,22,Ticks_Phase_8,115,9999,9999,9999,1248400468
33,8,22,Ticks_Phase_8,116,9999,9999,9999,1249200256
33,8,22,Ticks_Phase_8,117,9999,9999,9999,1250001012
33,8,22,Ticks_Phase_8,118,9999,9999,9999,1250800724
33,8,22,Ticks_Phase_8,119,9999,9999,9999,1251600436
33,8,22,Ticks_Phase_8,120,9999,9999,9999,1252400228
33,8,22,Ticks_Phase_8,121,9999,9999,9999,1253200980
33,8,22,Ticks_Phase_8,122,9999,9999,9999,1254000768
33,8,22,Ticks_Phase_8,123,9999,9999,9999,1254800480
33,8,22,Ticks_Phase_8,124,9999,9999,9999,1255600192
33,8,22,Ticks_Phase_8,125,9999,9999,9999,1256401024
33,8,22,Ticks_Phase_8,126,9999,9999,9999,1257200760
33,8,22,Ticks_Phase_8,127,9999,9999,9999,1258000472
33,8,22,Ticks_Phase_8,128,9999,9999,9999,1258800184
33,8,22,Ticks_Phase_8,129,9999,9999,9999,1259601016
33,8,22,Ticks_Phase_8,130,9999,9999,9999,1260400732
33,8,22,Ticks_Phase_8,131,9999,9999,9999,1261360184
33,8,22,Ticks_Phase_8,132,9999,9999,9999,1262160964
33,8,22,Ticks_Phase_8,133,9999,9999,9999,1262960748
33,8,22,Ticks_Phase_8,134,9999,9999,9999,1263760460
33,8,22,Ticks_Phase_8,135,9999,9999,9999,1264560248
33,8,22,Ticks_Phase_8,136,9999,9999,9999,1265361000
33,8,22,Ticks_Phase_8,137,9999,9999,9999,1266160736
33,8,22,Ticks_Phase_8,138,9999,9999,9999,1266960456
33,8,22,Ticks_Phase_8,139,9999,9999,9999,1267760236
33,8,22,Ticks_Phase_8,140,9999,9999,9999,1268561000
33,8,22,Ticks_Phase_8,141,9999,9999,9999,1269360712
33,8,22,Ticks_Phase_8,142,9999,9999,9999,1270160492
33,8,22,Ticks_Phase_8,143,9999,9999,9999,1270960212
33,8,22,Ticks_Phase_8,144,9999,9999,9999,1271760964
33,8,22,Ticks_Phase_8,145,9999,9999,9999,1272560700
33,8,22,Ticks_Phase_8,146,9999,9999,9999,1273360484
33,8,22,Ticks_Phase_8,147,9999,9999,9999,1274160200
33,8,22,Ticks_Phase_8,148,9999,9999,9999,1274960956
33,8,22,Ticks_Phase_8,149,9999,9999,9999,1275760748
33,8,22,Ticks_Phase_8,150,9999,9999,9999,1276400724
33,8,22,Ticks_Phase_8,151,9999,9999,9999,1277200440
33,8,22,Ticks_Phase_8,152,9999,9999,9999,1278000224
33,8,22,Ticks_Phase_8,153,9999,9999,9999,1278800976
33,8,22,Ticks_Phase_8,154,9999,9999,9999,1279600764
33,8,22,Ticks_Phase_8,155,9999,9999,9999,1280400480
33,8,22,Ticks_Phase_8,156,9999,9999,9999,1281200184
33,8,22,Ticks_Phase_8,157,9999,9999,9999,1282001020
33,8,22,Ticks_Phase_8,158,9999,9999,9999,1282800756
33,8,22,Ticks_Phase_8,159,9999,9999,9999,1283600468
33,8,22,Ticks_Phase_8,160,9999,9999,9999,1284400252
33,8,22,Ticks_Phase_8,161,9999,9999,9999,1285201008
33,8,22,Ticks_Phase_8,162,9999,9999,9999,1286000720
33,8,22,Ticks_Phase_8,163,9999,9999,9999,1286800440
33,8,22,Ticks_Phase_8,164,9999,9999,9999,1287600228
33,8,22,Ticks_Phase_8,165,9999,9999,9999,1288400980
33,8,22,Ticks_Phase_8,166,9999,9999,9999,1289200720
33,8,22,Ticks_Phase_8,167,9999,9999,9999,1290000508
33,8,22,Ticks_Phase_8,168,9999,9999,9999,1290800212
33,8,22,Ticks_Phase_8,169,9999,9999,9999,1291600976
33,9,21,Ticks_Linear_5,0,5,42,127,1307525756
33,9,21,Ticks_Linear_5,1,5,42,127,1308005784
33,9,21,Ticks_Linear_5,2,5,42,127,1308486108
33,9,21,Ticks_Linear_5,3,5,42,127,1308966212
33,9,21,Ticks_Linear_5,4,5,42,127,1309445640
33,9,21,Ticks_Linear_5,5,1,48,53,1309446608
33,9,21,Ticks_Linear_5,6,1,48,50,1309882804
33,9,21,Ticks_Linear_5,7,5,42,127,1309935968
33,9,21,Ticks_Linear_5,8,1,48,51,1310421744
33,9,21,Ticks_Linear_5,9,5,42,127,1310425684
33,9,21,Ticks_Linear_5,10,5,42,127,1310916028
33,9,21,Ticks_Linear_5,11,1,48,48,1310930752
33,9,21,Ticks_Linear_5,12,1,48,50,1311403348
33,9,21,Ticks_Linear_5,13,5,42,127,1311405460
33,9,21,Ticks_Linear_5,14,5,42,127,1311895884
33,9,21,Ticks_Linear_5,15,1,48,46,1311906640
33,9,21,Ticks_Linear_5,16,1,48,46,1312395584
33,9,21,Ticks_Linear_5,17,5,42,127,1312397296
33,9,21,Ticks_Linear_5,18,1,48,50,1312881448
33,9,21,Ticks_Linear_5,19,5,42,127,1312896476
33,9,21,Ticks_Linear_5,20,1,48,47,1313384756
33,9,21,Ticks_Linear_5,21,5,42,127,1313396024
33,9,21,Ticks_Linear_5,22,1,48,46,1313891932
33,9,21,Ticks_Linear_5,23,5,42,127,1313895724
33,9,21,Ticks_Linear_5,24,5,42,127,1314395508
33,9,21,Ticks_Linear_5,25,1,48,48,1314412472
33,9,21,Ticks_Linear_5,26,5,42,127,1314905464
33,9,21,Ticks_Linear_5,27,1,48,42,1314910308
33,9,21,Ticks_Linear_5,28,1,48,46,1315405416
33,9,21,Ticks_Linear_5,29,5,42,127,1315416464
33,9,21,Ticks_Linear_5,30,1,48,46,1315935492
33,9,21,Ticks_Linear_5,31,5,42,127,1315937204
33,9,21,Ticks_Linear_5,32,5,42,127,1316445452
33,9,21,Ticks_Linear_5,33,1,48,46,1316448500
33,9,21,Ticks_Linear_5,34,5,42,127,1316955560
33,9,21,Ticks_Linear_5,35,1,48,48,1316978828
33,9,21,Ticks_Linear_5,36,1,48,41,1317441128
33,9,21,Ticks_Linear_5,37,5,42,127,1317475696
33,9,21,Ticks_Linear_5,38,1,48,43,1317966072
33,9,21,Ticks_Linear_5,39,5,42,127,1317995916
33,9,21,Ticks_Linear_5,40,1,48,40,1318503056
33,9,21,Ticks_Linear_5,41,5,42,127,1318516056
33,9,21,Ticks_Linear_5,42,1,48,39,1319011068
33,9,21,Ticks_Linear_5,43,5,42,127,1319036348
33,9,21,Ticks_Linear_5,44,1,48,36,1319467712
33,9,21,Ticks_Linear_5,45,5,42,127,1319555448
33,9,21,Ticks_Linear_5,46,1,48,33,1319985688
33,9,21,Ticks_Linear_5,47,5,42,127,1320085984
33,9,21,Ticks_Linear_5,48,1,48,38,1320587832
33,9,21,Ticks_Linear_5,49,5,42,127,1320616328
33,9,21,Ticks_Linear_5,50,1,48,45,1321098236
33,9,21,Ticks_Linear_5,51,5,42,127,1321145832
33,9,21,Ticks_Linear_5,52,1,48,44,1321629388
33,9,21,Ticks_Linear_5,53,5,42,127,1321676084
33,9,21,Ticks_Linear_5,54,1,48,48,1322175296
33,9,21,Ticks_Linear_5,55,5,42,127,1322205444
33,9,21,Ticks_Linear_5,56,1,48,46,1322717432
33,9,21,Ticks_Linear_5,57,5,42,127,1322746324
33,9,21,Ticks_Linear_5,58,1,48,45,1323247784
33,9,21,Ticks_Linear_5,59,5,42,127,1323285864
33,9,21,Ticks_Linear_5,60,1,48,48,1323771968
33,9,21,Ticks_Linear_5,61,5,42,127,1323825480
33,9,21,Ticks_Linear_5,62,1,48,40,1324333532
33,9,21,Ticks_Linear_5,63,5,42,127,1324366140
33,9,21,Ticks_Linear_5,64,1,48,42,1324891928
33,9,21,Ticks_Linear_5,65,5,42,127,1324905980
33,9,21,Ticks_Linear_5,66,1,48,41,1325404300
33,9,21,Ticks_Linear_5,67,5,42,127,1325455856
33,9,21,Ticks_Linear_5,68,1,48,47,1325963300
33,9,21,Ticks_Linear_5,69,5,42,127,1326006100
33,9,21,Ticks_Linear_5,70,5,42,127,1326555388
33,9,21,Ticks_Linear_5,71,1,48,46,1326571180
33,9,21,Ticks_Linear_5,72,5,42,127,1327106336
33,9,21,Ticks_Linear_5,73,1,48,46,1327114628
33,9,21,Ticks_Linear_5,74,1,48,36,1327609428
33,9,21,Ticks_Linear_5,75,5,42,127,1327665412
33,9,21,Ticks_Linear_5,76,1,48,45,1328175632
33,9,21,Ticks_Linear_5,77,5,42,127,1328225768
33,9,21,Ticks_Linear_5,78,1,48,49,1328782784
33,9,21,Ticks_Linear_5,79,5,42,127,1328785900
33,9,21,Ticks_Linear_5,80,5,42,127,1329345968
33,9,21,Ticks_Linear_5,81,1,48,48,1329373804
33,9,21,Ticks_Linear_5,82,1,48,45,1329906196
33,9,21,Ticks_Linear_5,83,5,42,127,1329907764
33,9,21,Ticks_Linear_5,84,1,48,45,1330444120
33,9,21,Ticks_Linear_5,85,5,42,127,1330466176
33,9,21,Ticks_Linear_5,86,1,48,41,1331007248
33,9,21,Ticks_Linear_5,87,5,42,127,1331035668
33,9,21,Ticks_Linear_5,88,1,48,40,1331602652
33,9,21,Ticks_Linear_5,89,5,42,127,1331605840
33,9,21,Ticks_Linear_5,90,1,48,45,1332160616
33,9,21,Ticks_Linear_5,91,5,42,127,1332176308
33,9,21,Ticks_Linear_5,92,1,48,44,1332714788
33,9,21,Ticks_Linear_5,93,5,42,127,1332745532
33,9,21,Ticks_Linear_5,94,1,48,46,1333310564
33,9,21,Ticks_Linear_5,95,5,42,127,1333315924
33,9,21,Ticks_Linear_5,96,1,48,48,1333893340
33,9,21,Ticks_Linear_5,97,5,42,127,1333895452
33,9,21,Ticks_Linear_5,98,1,48,34,1334465808
33,9,21,Ticks_Linear_5,99,5,42,127,1334476104
33,9,21,Ticks_Linear_5,100,1,48,40,1335019968
33,9,21,Ticks_Linear_5,101,5,42,127,1335055880
33,9,21,Ticks_Linear_5,102,1,48,32,1335615680
33,9,21,Ticks_Linear_5,103,5,42,127,1335636536
33,9,21,Ticks_Linear_5,104,5,42,127,1336216072
33,9,21,Ticks_Linear_5,105,1,48,41,1336258808
33,9,21,Ticks_Linear_5,106,1,48,29,1336800372
33,9,21,Ticks_Linear_5,107,5,42,127,1336805804
33,9,21,Ticks_Linear_5,108,1,48,44,1337372404
33,9,21,Ticks_Linear_5,109,5,42,127,1337395520
33,9,21,Ticks_Linear_5,110,1,48,46,1337968044
33,9,21,Ticks_Linear_5,111,5,42,127,1337986356
33,9,21,Ticks_Linear_5,112,1,48,48,1338568912
33,9,21,Ticks_Linear_5,113,5,42,127,1338585432
33,9,21,Ticks_Linear_5,114,1,48,42,1339154540
33,9,21,Ticks_Linear_5,115,5,42,127,1339176364
33,9,21,Ticks_Linear_5,116,1,48,42,1339764248
33,9,21,Ticks_Linear_5,117,5,42,127,1339776268
33,9,21,Ticks_Linear_5,118,5,42,127,1340376396
33,9,21,Ticks_Linear_5,119,1,48,48,1340385536
33,9,21,Ticks_Linear_5,120,1,48,47,1340973360
33,9,21,Ticks_Linear_5,121,5,42,127,1340985824
33,9,21,Ticks_Linear_5,122,1,48,51,1341559024
33,9,21,Ticks_Linear_5,123,5,42,127,1341585724
33,9,21,Ticks_Linear_5,124,1,48,50,1342153000
33,9,21,Ticks_Linear_5,125,5,42,127,1342185796
33,9,21,Ticks_Linear_5,126,1,48,49,1342766112
33,9,21,Ticks_Linear_5,127,5,42,127,1342796252
33,9,21,Ticks_Linear_5,128,1,48,48,1343355376
33,9,21,Ticks_Linear_5,129,5,42,127,1343405364
33,9,21,Ticks_Linear_5,130,1,48,47,1343983760
33,9,21,Ticks_Linear_5,131,5,42,127,1344015620
33,9,21,Ticks_Linear_5,132,1,48,42,1344617128
33,9,21,Ticks_Linear_5,133,5,42,127,1344626228
33,9,21,Ticks_Linear_5,134,1,48,42,1345220020
33,9,21,Ticks_Linear_5,135,5,42,127,1345236312
33,9,21,Ticks_Linear_5,136,1,48,48,1345831548
33,9,21,Ticks_Linear_5,137,5,42,127,1345855932
33,9,21,Ticks_Linear_5,138,1,48,47,1346443048
33,9,21,Ticks_Linear_5,139,5,42,127,1346476352
33,9,21,Ticks_Linear_5,140,1,48,46,1347081020
33,9,21,Ticks_Linear_5,141,5,42,127,1347096044
33,9,21,Ticks_Linear_5,142,1,48,46,1347710428
33,9,21,Ticks_Linear_5,143,5,42,127,1347715488
33,9,21,Ticks_Linear_5,144,1,48,44,1348326904
33,9,21,Ticks_Linear_5,145,5,42,127,1348335932
33,9,21,Ticks_Linear_5,146,5,42,127,1348965864
33,9,21,Ticks_Linear_5,147,1,48,50,1348986960
33,9,21,Ticks_Linear_5,148,1,48,45,1349561448
33,9,21,Ticks_Linear_5,149,5,42,127,1349595416
33,9,21,Ticks_Linear_5,150,1,48,49,1350214148
33,9,21,Ticks_Linear_5,151,5,42,127,1350226240
33,9,21,Ticks_Linear_5,152,1,48,47,1350847524
33,9,21,Ticks_Linear_5,153,5,42,127,1350855948
33,9,21,Ticks_Linear_5,154,5,42,127,1351485832
33,9,21,Ticks_Linear_5,155,1,48,49,1351507004
33,9,21,Ticks_Linear_5,156,1,48,49,1352083280
33,9,21,Ticks_Linear_5,157,5,42,127,1352125940
33,9,21,Ticks_Linear_5,158,1,48,48,1352716544
33,9,21,Ticks_Linear_5,159,5,42,127,1352765928
33,9,21,Ticks_Linear_5,160,1,48,47,1353353884
33,9,21,Ticks_Linear_5,161,5,42,127,1353405892
33,9,21,Ticks_Linear_5,162,1,48,49,1354021644
33,9,21,Ticks_Linear_5,163,5,42,127,1354045808
33,9,21,Ticks_Linear_5,164,1,48,46,1354634060
33,9,21,Ticks_Linear_5,165,5,42,127,1354685920
33,9,21,Ticks_Linear_5,166,1,48,47,1355252100
33,9,21,Ticks_Linear_5,167,5,42,127,1355336092
33,9,21,Ticks_Linear_5,168,1,48,45,1355938644
33,9,21,Ticks_Linear_5,169,5,42,127,1355986164
33,9,21,Ticks_Linear_5,170,5,42,127,1356635744
33,9,21,Ticks_Linear_5,171,1,48,50,1356637388
33,9,21,Ticks_Linear_5,172,5,42,127,1357285696
33,9,21,Ticks_Linear_5,173,1,48,55,1357314656
33,9,21,Ticks_Linear_5,174,5,42,127,1357935992
33,9,21,Ticks_Linear_5,175,1,48,47,1357953348
33,9,21,Ticks_Linear_5,176,1,48,50,1358585224
33,9,21,Ticks_Linear_5,177,5,42,127,1358595372
33,9,21,Ticks_Linear_5,178,1,48,48,1359210428
33,9,21,Ticks_Linear_5,179,5,42,127,1359256004
33,9,21,Ticks_Linear_5,180,1,48,45,1359872508
33,9,21,Ticks_Linear_5,181,5,42,127,1359916512
33,9,21,Ticks_Linear_5,182,1,48,51,1360563852
33,9,21,Ticks_Linear_5,183,5,42,127,1360575944
33,9,21,Ticks_Linear_5,184,5,42,127,1361236236
33,9,21,Ticks_Linear_5,185,1,48,48,1361259352
33,9,21,Ticks_Linear_5,186,1,48,45,1361895504
33,9,21,Ticks_Linear_5,187,5,42,127,1361906096
33,9,21,Ticks_Linear_5,188,1,48,48,1362542796
33,9,21,Ticks_Linear_5,189,5,42,127,1362575644
33,9,21,Ticks_Linear_5,190,1,48,43,1363201432
33,9,21,Ticks_Linear_5,191,5,42,127,1363245364
33,9,21,Ticks_Linear_5,192,1,48,53,1363909920
33,9,21,Ticks_Linear_5,193,5,42,127,1363916252
33,9,21,Ticks_Linear_5,194,5,42,127,1364585756
33,9,21,Ticks_Linear_5,195,1,48,47,1364587696
33,9,21,Ticks_Linear_5,196,1,48,45,1365191820
33,9,21,Ticks_Linear_5,197,5,42,127,1365265728
33,9,21,Ticks_Linear_5,198,1,48,43,1365900924
33,9,21,Ticks_Linear_5,199,5,42,127,1365945680
33,9,21,Ticks_Linear_5,200,1,48,43,1366609144
33,9,21,Ticks_Linear_5,201,5,42,127,1366625508
33,9,21,Ticks_Linear_5,202,1,48,47,1367283960
33,9,21,Ticks_Linear_5,203,5,42,127,1367305560
33,9,21,Ticks_Linear_5,204,1,48,46,1367923236
33,9,21,Ticks_Linear_5,205,5,42,127,1367985440
33,9,21,Ticks_Linear_5,206,1,48,49,1368646812
33,9,21,Ticks_Linear_5,207,5,42,127,1368675604
33,9,21,Ticks_Linear_5,208,1,48,48,1369332392
33,9,21,Ticks_Linear_5,209,5,42,127,1369366136
33,9,21,Ticks_Linear_5,210,1,48,46,1370044184
33,9,21,Ticks_Linear_5,211,5,42,127,1370055976
33,9,21,Ticks_Linear_5,212,1,48,44,1370719888
33,9,21,Ticks_Linear_5,213,5,42,127,1370746216
33,9,21,Ticks_Linear_5,214,1,48,44,1371398372
33,9,21,Ticks_Linear_5,215,5,42,127,1371436456
33,9,21,Ticks_Linear_5,216,1,48,52,1372117196
33,9,21,Ticks_Linear_5,217,5,42,127,1372135976
33,9,21,Ticks_Linear_5,218,1,48,49,1372801656
33,9,21,Ticks_Linear_5,219,5,42,127,1372836076
33,9,21,Ticks_Linear_5,220,1,48,46,1373525972
33,9,21,Ticks_Linear_5,221,5,42,127,1373535748
33,9,21,Ticks_Linear_5,222,1,48,44,1374208424
33,9,21,Ticks_Linear_5,223,5,42,127,1374236020
33,9,21,Ticks_Linear_5,224,1,48,38,1374903880
33,9,21,Ticks_Linear_5,225,5,42,127,1374936568
33,9,21,Ticks_Linear_5,226,1,48,49,1375586556
33,9,21,Ticks_Linear_5,227,5,42,127,1375656460
33,9,21,Ticks_Linear_5,228,1,48,43,1376326436
33,9,21,Ticks_Linear_5,229,5,42,127,1376365872
33,9,21,Ticks_Linear_5,230,1,48,38,1377071488
33,9,21,Ticks_Linear_5,231,5,42,127,1377075652
33,9,21,Ticks_Linear_5,232,1,48,46,1377761128
33,9,21,Ticks_Linear_5,233,5,42,127,1377786188
33,9,21,Ticks_Linear_5,234,1,48,48,1378491708
33,9,21,Ticks_Linear_5,235,5,42,127,1378495868
33,9,21,Ticks_Linear_5,236,5,42,127,1379215620
33,9,21,Ticks_Linear_5,237,1,48,41,1379239260
33,9,21,Ticks_Linear_5,238,1,48,44,1379903104
33,9,21,Ticks_Linear_5,239,5,42,127,1379935508
33,9,21,Ticks_Linear_5,240,1,48,46,1380582636
33,9,21,Ticks_Linear_5,241,5,42,127,1380655772
33,9,21,Ticks_Linear_5,242,1,48,47,1381345600
33,9,21,Ticks_Linear_5,243,5,42,127,1381376416
33,9,21,Ticks_Linear_5,244,1,48,48,1382068684
33,9,21,Ticks_Linear_5,245,5,42,127,1382096508
33,9,21,Ticks_Linear_5,246,1,48,40,1382790600
33,9,21,Ticks_Linear_5,247,5,42,127,1382826360
33,9,21,Ticks_Linear_5,248,1,48,43,1383495292
33,9,21,Ticks_Linear_5,249,5,42,127,1383555544
33,9,21,Ticks_Linear_5,250,1,48,34,1384221620
33,9,21,Ticks_Linear_5,251,5,42,127,1384285544
33,9,21,Ticks_Linear_5,252,1,48,42,1385000600
33,9,21,Ticks_Linear_5,253,5,42,127,1385015548
33,9,21,Ticks_Linear_5,254,1,48,39,1385732328
33,9,21,Ticks_Linear_5,255,5,42,127,1385745776
33,9,21,Ticks_Linear_5,256,1,48,35,1386451372
33,9,21,Ticks_Linear_5,257,5,42,127,1386486412
33,9,21,Ticks_Linear_5,258,1,48,40,1387211032
33,9,21,Ticks_Linear_5,259,5,42,127,1387225452
33,9,21,Ticks_Linear_5,260,5,42,127,1387965796
33,9,21,Ticks_Linear_5,261,1,48,37,1387967284
33,9,21,Ticks_Linear_5,262,1,48,40,1388705452
33,9,21,Ticks_Linear_5,263,5,42,127,1388707252
33,9,21,Ticks_Linear_5,264,5,42,127,1389445500
33,9,21,Ticks_Linear_5,265,1,48,35,1389451008
33,9,21,Ticks_Linear_5,266,5,42,127,1390196168
33,9,21,Ticks_Linear_5,267,1,48,44,1390212612
33,9,21,Ticks_Linear_5,268,1,48,38,1390868164
33,9,21,Ticks_Linear_5,269,5,42,127,1390945636
33,9,21,Ticks_Linear_5,270,1,48,49,1391695560
33,9,21,Ticks_Linear_5,271,5,42,127,1391697280
33,9,21,Ticks_Linear_5,272,1,48,42,1392420276
33,9,21,Ticks_Linear_5,273,5,42,127,1392446080
33,9,21,Ticks_Linear_5,274,1,48,36,1393165040
33,9,21,Ticks_Linear_5,275,5,42,127,1393196384
33,9,21,Ticks_Linear_5,276,1,48,45,1393923036
33,9,21,Ticks_Linear_5,277,5,42,127,1393956112
33,9,21,Ticks_Linear_5,278,1,48,44,1394692808
33,9,21,Ticks_Linear_5,279,5,42,127,1394716068
33,9,21,Ticks_Linear_5,280,1,48,45,1395442132
33,9,21,Ticks_Linear_5,281,5,42,127,1395475876
33,9,21,Ticks_Linear_5,282,1,48,44,1396192728
33,9,21,Ticks_Linear_5,283,5,42,127,1396235836
33,9,21,Ticks_Linear_5,284,1,48,45,1396960252
33,9,21,Ticks_Linear_5,285,5,42,127,1396995568
33,9,21,Ticks_Linear_5,286,1,48,45,1397737144
33,9,21,Ticks_Linear_5,287,5,42,127,1397765640
33,9,21,Ticks_Linear_5,288,1,48,32,1398508636
33,9,21,Ticks_Linear_5,289,5,42,127,1398535632
33,9,21,Ticks_Linear_5,290,1,48,45,1399294508
33,9,21,Ticks_Linear_5,291,5,42,127,1399305776
33,9,21,Ticks_Linear_5,292,1,48,44,1400062172
33,9,21,Ticks_Linear_5,293,5,42,127,1400075916
33,9,21,Ticks_Linear_5,294,1,48,46,1400829472
33,9,21,Ticks_Linear_5,295,5,42,127,1400845688
33,9,21,Ticks_Linear_5,296,1,48,46,1401585916
33,9,21,Ticks_Linear_5,297,5,42,127,1401625940
33,9,21,Ticks_Linear_5,298,1,48,45,1402388556
33,9,21,Ticks_Linear_5,299,5,42,127,1402406192
33,9,21,Ticks_Linear_5,300,1,48,43,1403157728
33,9,21,Ticks_Linear_5,301,5,42,127,1403185772
33,9,21,Ticks_Linear_5,302,5,42,127,1403965732
33,9,21,Ticks_Linear_5,303,1,48,47,1403987500
33,9,21,Ticks_Linear_5,304,5,42,127,1404745988
33,9,21,Ticks_Linear_5,305,1,48,47,1404768728
33,9,21,Ticks_Linear_5,306,1,48,45,1405513524
33,9,21,Ticks_Linear_5,307,5,42,127,1405535668
33,9,21,Ticks_Linear_5,308,1,48,46,1406299628
33,9,21,Ticks_Linear_5,309,5,42,127,1406326028
33,9,21,Ticks_Linear_5,310,1,48,48,1407112148
33,9,21,Ticks_Linear_5,311,5,42,127,1407115716
33,9,21,Ticks_Linear_5,312,1,48,47,1407901464
33,9,21,Ticks_Linear_5,313,5,42,127,1407906228
33,9,21,Ticks_Linear_5,314,1,48,51,1408666596
33,9,21,Ticks_Linear_5,315,5,42,127,1408695772
33,9,21,Ticks_Linear_5,316,1,48,51,1409438016
33,9,21,Ticks_Linear_5,317,5,42,127,1409496320
33,9,21,Ticks_Linear_5,318,1,48,47,1410271132
33,9,21,Ticks_Linear_5,319,5,42,127,1410306376
33,9,21,Ticks_Linear_5,320,1,48,48,1411115464
33,9,21,Ticks_Linear_5,321,5,42,127,1411117260
33,9,21,Ticks_Linear_5,322,5,42,127,1411916164
33,9,21,Ticks_Linear_5,323,1,48,44,1411945872
33,9,21,Ticks_Linear_5,324,5,42,127,1412716184
33,9,21,Ticks_Linear_5,325,1,48,49,1412719684
33,9,21,Ticks_Linear_5,326,1,48,51,1413514448
33,9,21,Ticks_Linear_5,327,5,42,127,1413526088
33,9,21,Ticks_Linear_5,328,1,48,43,1414290796
33,9,21,Ticks_Linear_5,329,5,42,127,1414336072
33,9,21,Ticks_Linear_5,330,1,48,44,1415141468
33,9,21,Ticks_Linear_5,331,5,42,127,1415145928
33,9,21,Ticks_Linear_5,332,5,42,127,1415956064
33,9,21,Ticks_Linear_5,333,1,48,50,1415965180
33,9,21,Ticks_Linear_5,334,5,42,127,1416765900
33,9,21,Ticks_Linear_5,0,9999,9999,9999,1307523164
33,9,21,Ticks_Linear_5,1,9999,9999,9999,1308003412
33,9,21,Ticks_Linear_5,2,9999,9999,9999,1308483664
33,9,21,Ticks_Linear_5,3,9999,9999,9999,1308963912
33,9,21,Ticks_Linear_5,4,9999,9999,9999,1309443192
33,9,21,Ticks_Linear_5,5,9999,9999,9999,1309933672
33,9,21,Ticks_Linear_5,6,9999,9999,9999,1310423160
33,9,21,Ticks_Linear_5,7,9999,9999,9999,1310913656
33,9,21,Ticks_Linear_5,8,9999,9999,9999,1311403128
33,9,21,Ticks_Linear_5,9,9999,9999,9999,1311893584
33,9,21,Ticks_Linear_5,10,9999,9999,9999,1312393288
33,9,21,Ticks_Linear_5,11,9999,9999,9999,1312894024
33,9,21,Ticks_Linear_5,12,9999,9999,9999,1313393724
33,9,21,Ticks_Linear_5,13,9999,9999,9999,1313893500
33,9,21,Ticks_Linear_5,14,9999,9999,9999,1314393208
33,9,21,Ticks_Linear_5,15,9999,9999,9999,1314903168
33,9,21,Ticks_Linear_5,16,9999,9999,9999,1315414092
33,9,21,Ticks_Linear_5,17,9999,9999,9999,1315933268
33,9,21,Ticks_Linear_5,18,9999,9999,9999,1316443228
33,9,21,Ticks_Linear_5,19,9999,9999,9999,1316953184
33,9,21,Ticks_Linear_5,20,9999,9999,9999,1317473400
33,9,21,Ticks_Linear_5,21,9999,9999,9999,1317993544
33,9,21,Ticks_Linear_5,22,9999,9999,9999,1318513760
33,9,21,Ticks_Linear_5,23,9999,9999,9999,1319033976
33,9,21,Ticks_Linear_5,24,9999,9999,9999,1319553148
33,9,21,Ticks_Linear_5,25,9999,9999,9999,1320083536
33,9,21,Ticks_Linear_5,26,9999,9999,9999,1320613956
33,9,21,Ticks_Linear_5,27,9999,9999,9999,1321143384
33,9,21,Ticks_Linear_5,28,9999,9999,9999,1321673788
33,9,21,Ticks_Linear_5,29,9999,9999,9999,1322203216
33,9,21,Ticks_Linear_5,30,9999,9999,9999,1322743880
33,9,21,Ticks_Linear_5,31,9999,9999,9999,1323283568
33,9,21,Ticks_Linear_5,32,9999,9999,9999,1323823184
33,9,21,Ticks_Linear_5,33,9999,9999,9999,1324363844
33,9,21,Ticks_Linear_5,34,9999,9999,9999,1324903532
33,9,21,Ticks_Linear_5,35,9999,9999,9999,1325453408
33,9,21,Ticks_Linear_5,36,9999,9999,9999,1326003284
33,9,21,Ticks_Linear_5,37,9999,9999,9999,1326553164
33,9,21,Ticks_Linear_5,38,9999,9999,9999,1327104108
33,9,21,Ticks_Linear_5,39,9999,9999,9999,1327663188
33,9,21,Ticks_Linear_5,40,9999,9999,9999,1328223320
33,9,21,Ticks_Linear_5,41,9999,9999,9999,1328783456
33,9,21,Ticks_Linear_5,42,9999,9999,9999,1329343592
33,9,21,Ticks_Linear_5,43,9999,9999,9999,1329903676
33,9,21,Ticks_Linear_5,44,9999,9999,9999,1330463800
33,9,21,Ticks_Linear_5,45,9999,9999,9999,1331033148
33,9,21,Ticks_Linear_5,46,9999,9999,9999,1331603544
33,9,21,Ticks_Linear_5,47,9999,9999,9999,1332173936
33,9,21,Ticks_Linear_5,48,9999,9999,9999,1332743232
33,9,21,Ticks_Linear_5,49,9999,9999,9999,1333313624
33,9,21,Ticks_Linear_5,50,9999,9999,9999,1333893192
33,9,21,Ticks_Linear_5,51,9999,9999,9999,1334473804
33,9,21,Ticks_Linear_5,52,9999,9999,9999,1335053436
33,9,21,Ticks_Linear_5,53,9999,9999,9999,1335634012
33,9,21,Ticks_Linear_5,54,9999,9999,9999,1336213624
33,9,21,Ticks_Linear_5,55,9999,9999,9999,1336803432
33,9,21,Ticks_Linear_5,56,9999,9999,9999,1337393220
33,9,21,Ticks_Linear_5,57,9999,9999,9999,1337984056
33,9,21,Ticks_Linear_5,58,9999,9999,9999,1338583132
33,9,21,Ticks_Linear_5,59,9999,9999,9999,1339173992
33,9,21,Ticks_Linear_5,60,9999,9999,9999,1339774040
33,9,21,Ticks_Linear_5,61,9999,9999,9999,1340374096
33,9,21,Ticks_Linear_5,62,9999,9999,9999,1340983376
33,9,21,Ticks_Linear_5,63,9999,9999,9999,1341583424
33,9,21,Ticks_Linear_5,64,9999,9999,9999,1342183500
33,9,21,Ticks_Linear_5,65,9999,9999,9999,1342793808
33,9,21,Ticks_Linear_5,66,9999,9999,9999,1343403064
33,9,21,Ticks_Linear_5,67,9999,9999,9999,1344013396
33,9,21,Ticks_Linear_5,68,9999,9999,9999,1344623704
33,9,21,Ticks_Linear_5,69,9999,9999,9999,1345234012
33,9,21,Ticks_Linear_5,70,9999,9999,9999,1345853560
33,9,21,Ticks_Linear_5,71,9999,9999,9999,1346474048
33,9,21,Ticks_Linear_5,72,9999,9999,9999,1347093596
33,9,21,Ticks_Linear_5,73,9999,9999,9999,1347713116
33,9,21,Ticks_Linear_5,74,9999,9999,9999,1348333632
33,9,21,Ticks_Linear_5,75,9999,9999,9999,1348963416
33,9,21,Ticks_Linear_5,76,9999,9999,9999,1349593192
33,9,21,Ticks_Linear_5,77,9999,9999,9999,1350223944
33,9,21,Ticks_Linear_5,78,9999,9999,9999,1350853724
33,9,21,Ticks_Linear_5,79,9999,9999,9999,1351483460
33,9,21,Ticks_Linear_5,80,9999,9999,9999,1352123496
33,9,21,Ticks_Linear_5,81,9999,9999,9999,1352763484
33,9,21,Ticks_Linear_5,82,9999,9999,9999,1353403444
33,9,21,Ticks_Linear_5,83,9999,9999,9999,1354043508
33,9,21,Ticks_Linear_5,84,9999,9999,9999,1354683472
33,9,21,Ticks_Linear_5,85,9999,9999,9999,1355333720
33,9,21,Ticks_Linear_5,86,9999,9999,9999,1355983944
33,9,21,Ticks_Linear_5,87,9999,9999,9999,1356633152
33,9,21,Ticks_Linear_5,88,9999,9999,9999,1357283396
33,9,21,Ticks_Linear_5,89,9999,9999,9999,1357933692
33,9,21,Ticks_Linear_5,90,9999,9999,9999,1358593148
33,9,21,Ticks_Linear_5,91,9999,9999,9999,1359253632
33,9,21,Ticks_Linear_5,92,9999,9999,9999,1359914064
33,9,21,Ticks_Linear_5,93,9999,9999,9999,1360573500
33,9,21,Ticks_Linear_5,94,9999,9999,9999,1361234012
33,9,21,Ticks_Linear_5,95,9999,9999,9999,1361903724
33,9,21,Ticks_Linear_5,96,9999,9999,9999,1362573420
33,9,21,Ticks_Linear_5,97,9999,9999,9999,1363243064
33,9,21,Ticks_Linear_5,98,9999,9999,9999,1363913804
33,9,21,Ticks_Linear_5,99,9999,9999,9999,1364583532
33,9,21,Ticks_Linear_5,100,9999,9999,9999,1365263428
33,9,21,Ticks_Linear_5,101,9999,9999,9999,1365943380
33,9,21,Ticks_Linear_5,102,9999,9999,9999,1366623284
33,9,21,Ticks_Linear_5,103,9999,9999,9999,1367303264
33,9,21,Ticks_Linear_5,104,9999,9999,9999,1367983216
33,9,21,Ticks_Linear_5,105,9999,9999,9999,1368673380
33,9,21,Ticks_Linear_5,106,9999,9999,9999,1369363544
33,9,21,Ticks_Linear_5,107,9999,9999,9999,1370053752
33,9,21,Ticks_Linear_5,108,9999,9999,9999,1370743916
33,9,21,Ticks_Linear_5,109,9999,9999,9999,1371434080
33,9,21,Ticks_Linear_5,110,9999,9999,9999,1372133456
33,9,21,Ticks_Linear_5,111,9999,9999,9999,1372833852
33,9,21,Ticks_Linear_5,112,9999,9999,9999,1373533300
33,9,21,Ticks_Linear_5,113,9999,9999,9999,1374233724
33,9,21,Ticks_Linear_5,114,9999,9999,9999,1374934120
33,9,21,Ticks_Linear_5,115,9999,9999,9999,1375654012
33,9,21,Ticks_Linear_5,116,9999,9999,9999,1376363572
33,9,21,Ticks_Linear_5,117,9999,9999,9999,1377073204
33,9,21,Ticks_Linear_5,118,9999,9999,9999,1377783888
33,9,21,Ticks_Linear_5,119,9999,9999,9999,1378493496
33,9,21,Ticks_Linear_5,120,9999,9999,9999,1379213396
33,9,21,Ticks_Linear_5,121,9999,9999,9999,1379933284
33,9,21,Ticks_Linear_5,122,9999,9999,9999,1380653176
33,9,21,Ticks_Linear_5,123,9999,9999,9999,1381374040
33,9,21,Ticks_Linear_5,124,9999,9999,9999,1382093912
33,9,21,Ticks_Linear_5,125,9999,9999,9999,1382823988
33,9,21,Ticks_Linear_5,126,9999,9999,9999,1383553096
33,9,21,Ticks_Linear_5,127,9999,9999,9999,1384283248
33,9,21,Ticks_Linear_5,128,9999,9999,9999,1385013324
33,9,21,Ticks_Linear_5,129,9999,9999,9999,1385743480
33,9,21,Ticks_Linear_5,130,9999,9999,9999,1386483816
33,9,21,Ticks_Linear_5,131,9999,9999,9999,1387223156
33,9,21,Ticks_Linear_5,132,9999,9999,9999,1387963496
33,9,21,Ticks_Linear_5,133,9999,9999,9999,1388703836
33,9,21,Ticks_Linear_5,134,9999,9999,9999,1389443200
33,9,21,Ticks_Linear_5,135,9999,9999,9999,1390193720
33,9,21,Ticks_Linear_5,136,9999,9999,9999,1390943340
33,9,21,Ticks_Linear_5,137,9999,9999,9999,1391693940
33,9,21,Ticks_Linear_5,138,9999,9999,9999,1392443484
33,9,21,Ticks_Linear_5,139,9999,9999,9999,1393194080
33,9,21,Ticks_Linear_5,140,9999,9999,9999,1393953888
33,9,21,Ticks_Linear_5,141,9999,9999,9999,1394713696
33,9,21,Ticks_Linear_5,142,9999,9999,9999,1395473504
33,9,21,Ticks_Linear_5,143,9999,9999,9999,1396233312
33,9,21,Ticks_Linear_5,144,9999,9999,9999,1396993120
33,9,21,Ticks_Linear_5,145,9999,9999,9999,1397763192
33,9,21,Ticks_Linear_5,146,9999,9999,9999,1398533184
33,9,21,Ticks_Linear_5,147,9999,9999,9999,1399303256
33,9,21,Ticks_Linear_5,148,9999,9999,9999,1400073324
33,9,21,Ticks_Linear_5,149,9999,9999,9999,1400843392
33,9,21,Ticks_Linear_5,150,9999,9999,9999,1401623644
33,9,21,Ticks_Linear_5,151,9999,9999,9999,1402403896
33,9,21,Ticks_Linear_5,152,9999,9999,9999,1403183176
33,9,21,Ticks_Linear_5,153,9999,9999,9999,1403963508
33,9,21,Ticks_Linear_5,154,9999,9999,9999,1404743760
33,9,21,Ticks_Linear_5,155,9999,9999,9999,1405533292
33,9,21,Ticks_Linear_5,156,9999,9999,9999,1406323804
33,9,21,Ticks_Linear_5,157,9999,9999,9999,1407113272
33,9,21,Ticks_Linear_5,158,9999,9999,9999,1407903856
33,9,21,Ticks_Linear_5,159,9999,9999,9999,1408693324
33,9,21,Ticks_Linear_5,160,9999,9999,9999,1409494092
33,9,21,Ticks_Linear_5,161,9999,9999,9999,1410304076
33,9,21,Ticks_Linear_5,162,9999,9999,9999,1411114064
33,9,21,Ticks_Linear_5,163,9999,9999,9999,1411913788
33,9,21,Ticks_Linear_5,164,9999,9999,9999,1412713588
33,9,21,Ticks_Linear_5,165,9999,9999,9999,1413523564
33,9,21,Ticks_Linear_5,166,9999,9999,9999,1414333548
33,9,21,Ticks_Linear_5,167,9999,9999,9999,1415143484
33,9,21,Ticks_Linear_5,168,9999,9999,9999,1415953472
33,9,21,Ticks_Linear_5,169,9999,9999,9999,1416763452
33,10,20,Ticks_Linear_8,0,5,42,127,1432490300
33,10,20,Ticks_Linear_8,1,5,42,127,1433309540
33,10,20,Ticks_Linear_8,2,5,42,127,1434129732
33,10,20,Ticks_Linear_8,3,5,42,127,1434950216
33,10,20,Ticks_Linear_8,4,5,42,127,1435770336
33,10,20,Ticks_Linear_8,5,1,48,36,1435789340
33,10,20,Ticks_Linear_8,6,1,48,32,1436565136
33,10,20,Ticks_Linear_8,7,5,42,127,1436580160
33,10,20,Ticks_Linear_8,8,1,48,35,1437329524
33,10,20,Ticks_Linear_8,9,5,42,127,1437390292
33,10,20,Ticks_Linear_8,10,1,48,23,1438166084
33,10,20,Ticks_Linear_8,11,5,42,127,1438200128
33,10,20,Ticks_Linear_8,12,1,48,32,1438955172
33,10,20,Ticks_Linear_8,13,5,42,127,1439010112
33,10,20,Ticks_Linear_8,14,1,48,33,1439794512
33,10,20,Ticks_Linear_8,15,5,42,127,1439820168
33,10,20,Ticks_Linear_8,16,1,48,38,1440592440
33,10,20,Ticks_Linear_8,17,5,42,127,1440619892
33,10,20,Ticks_Linear_8,18,1,48,39,1441412164
33,10,20,Ticks_Linear_8,19,5,42,127,1441419840
33,10,20,Ticks_Linear_8,20,1,48,32,1442206040
33,10,20,Ticks_Linear_8,21,5,42,127,1442220388
33,10,20,Ticks_Linear_8,22,5,42,127,1443020120
33,10,20,Ticks_Linear_8,23,1,48,32,1443024804
33,10,20,Ticks_Linear_8,24,1,48,36,1443817340
33,10,20,Ticks_Linear_8,25,5,42,127,1443819860
33,10,20,Ticks_Linear_8,26,5,42,127,1444610304
33,10,20,Ticks_Linear_8,27,1,48,28,1444686728
33,10,20,Ticks_Linear_8,28,1,48,35,1445369096
33,10,20,Ticks_Linear_8,29,5,42,127,1445410096
33,10,20,Ticks_Linear_8,30,1,48,36,1446164388
33,10,20,Ticks_Linear_8,31,5,42,127,1446199784
33,10,20,Ticks_Linear_8,32,1,48,32,1446981192
33,10,20,Ticks_Linear_8,33,5,42,127,1446990148
33,10,20,Ticks_Linear_8,34,1,48,39,1447763020
33,10,20,Ticks_Linear_8,35,5,42,127,1447779836
33,10,20,Ticks_Linear_8,36,1,48,37,1448535700
33,10,20,Ticks_Linear_8,37,5,42,127,1448559940
33,10,20,Ticks_Linear_8,38,1,48,34,1449318960
33,10,20,Ticks_Linear_8,39,5,42,127,1449340340
33,10,20,Ticks_Linear_8,40,1,48,26,1450119924
33,10,20,Ticks_Linear_8,41,5,42,127,1450121416
33,10,20,Ticks_Linear_8,42,1,48,36,1450880884
33,10,20,Ticks_Linear_8,43,5,42,127,1450899800
33,10,20,Ticks_Linear_8,44,5,42,127,1451680060
33,10,20,Ticks_Linear_8,45,1,48,38,1451687888
33,10,20,Ticks_Linear_8,46,5,42,127,1452450128
33,10,20,Ticks_Linear_8,47,1,48,35,1452476980
33,10,20,Ticks_Linear_8,48,5,42,127,1453220420
33,10,20,Ticks_Linear_8,49,1,48,29,1453234324
33,10,20,Ticks_Linear_8,50,1,48,35,1453968504
33,10,20,Ticks_Linear_8,51,5,42,127,1453990404
33,10,20,Ticks_Linear_8,52,1,48,33,1454757284
33,10,20,Ticks_Linear_8,53,5,42,127,1454760548
33,10,20,Ticks_Linear_8,54,5,42,127,1455530324
33,10,20,Ticks_Linear_8,55,1,48,36,1455535836
33,10,20,Ticks_Linear_8,56,1,48,37,1456279528
33,10,20,Ticks_Linear_8,57,5,42,127,1456290276
33,10,20,Ticks_Linear_8,58,1,48,31,1457039936
33,10,20,Ticks_Linear_8,59,5,42,127,1457050084
33,10,20,Ticks_Linear_8,60,1,48,33,1457787236
33,10,20,Ticks_Linear_8,61,5,42,127,1457809748
33,10,20,Ticks_Linear_8,62,1,48,32,1458549896
33,10,20,Ticks_Linear_8,63,5,42,127,1458569556
33,10,20,Ticks_Linear_8,64,5,42,127,1459330420
33,10,20,Ticks_Linear_8,65,1,48,34,1459356592
33,10,20,Ticks_Linear_8,66,1,48,38,1460090152
33,10,20,Ticks_Linear_8,67,5,42,127,1460091788
33,10,20,Ticks_Linear_8,68,5,42,127,1460839852
33,10,20,Ticks_Linear_8,69,1,48,34,1460873144
33,10,20,Ticks_Linear_8,70,1,48,35,1461586648
33,10,20,Ticks_Linear_8,71,5,42,127,1461590368
33,10,20,Ticks_Linear_8,72,1,48,33,1462270752
33,10,20,Ticks_Linear_8,73,5,42,127,1462340140
33,10,20,Ticks_Linear_8,74,1,48,35,1463077584
33,10,20,Ticks_Linear_8,75,5,42,127,1463089468
33,10,20,Ticks_Linear_8,76,5,42,127,1463829960
33,10,20,Ticks_Linear_8,77,1,48,42,1463901604
33,10,20,Ticks_Linear_8,78,5,42,127,1464570224
33,10,20,Ticks_Linear_8,79,1,48,41,1464583380
33,10,20,Ticks_Linear_8,80,1,48,38,1465300704
33,10,20,Ticks_Linear_8,81,5,42,127,1465309584
33,10,20,Ticks_Linear_8,82,5,42,127,1466049900
33,10,20,Ticks_Linear_8,83,1,48,40,1466053464
33,10,20,Ticks_Linear_8,84,1,48,35,1466733196
33,10,20,Ticks_Linear_8,85,5,42,127,1466790160
33,10,20,Ticks_Linear_8,86,1,48,35,1467509488
33,10,20,Ticks_Linear_8,87,5,42,127,1467520312
33,10,20,Ticks_Linear_8,88,5,42,127,1468249424
33,10,20,Ticks_Linear_8,89,1,48,40,1468268348
33,10,20,Ticks_Linear_8,90,1,48,36,1468967464
33,10,20,Ticks_Linear_8,91,5,42,127,1468979792
33,10,20,Ticks_Linear_8,92,1,48,35,1469665348
33,10,20,Ticks_Linear_8,93,5,42,127,1469709648
33,10,20,Ticks_Linear_8,94,5,42,127,1470439736
33,10,20,Ticks_Linear_8,95,1,48,36,1470463820
33,10,20,Ticks_Linear_8,96,5,42,127,1471159756
33,10,20,Ticks_Linear_8,97,1,48,40,1471168724
33,10,20,Ticks_Linear_8,98,5,42,127,1471879648
33,10,20,Ticks_Linear_8,99,1,48,41,1471899616
33,10,20,Ticks_Linear_8,100,5,42,127,1472600740
33,10,20,Ticks_Linear_8,101,1,48,40,1473312592
33,10,20,Ticks_Linear_8,102,5,42,127,1473329712
33,10,20,Ticks_Linear_8,103,5,42,127,1474050508
33,10,20,Ticks_Linear_8,104,1,48,40,1474085904
33,10,20,Ticks_Linear_8,105,5,42,127,1474770452
33,10,20,Ticks_Linear_8,106,1,48,40,1474797404
33,10,20,Ticks_Linear_8,107,1,48,23,1475474644
33,10,20,Ticks_Linear_8,108,5,42,127,1475479928
33,10,20,Ticks_Linear_8,109,5,42,127,1476189572
33,10,20,Ticks_Linear_8,110,1,48,34,1476218532
33,10,20,Ticks_Linear_8,111,5,42,127,1476900476
33,10,20,Ticks_Linear_8,112,1,48,38,1476906732
33,10,20,Ticks_Linear_8,113,5,42,127,1477609812
33,10,20,Ticks_Linear_8,114,1,48,38,1477640420
33,10,20,Ticks_Linear_8,115,5,42,127,1478310432
33,10,20,Ticks_Linear_8,116,1,48,37,1478336236
33,10,20,Ticks_Linear_8,117,5,42,127,1479009512
33,10,20,Ticks_Linear_8,118,1,48,36,1479019148
33,10,20,Ticks_Linear_8,119,1,48,34,1479703668
33,10,20,Ticks_Linear_8,120,5,42,127,1479710152
33,10,20,Ticks_Linear_8,121,1,48,36,1480404760
33,10,20,Ticks_Linear_8,122,5,42,127,1480409452
33,10,20,Ticks_Linear_8,123,1,48,36,1481107324
33,10,20,Ticks_Linear_8,124,5,42,127,1481110220
33,10,20,Ticks_Linear_8,125,1,48,35,1481783188
33,10,20,Ticks_Linear_8,126,5,42,127,1481800236
33,10,20,Ticks_Linear_8,127,5,42,127,1482490180
33,10,20,Ticks_Linear_8,128,1,48,38,1482515088
33,10,20,Ticks_Linear_8,129,5,42,127,1483180468
33,10,20,Ticks_Linear_8,130,1,48,42,1483191604
33,10,20,Ticks_Linear_8,131,1,48,36,1483849320
33,10,20,Ticks_Linear_8,132,5,42,127,1483869504
33,10,20,Ticks_Linear_8,133,1,48,36,1484539484
33,10,20,Ticks_Linear_8,134,5,42,127,1484559740
33,10,20,Ticks_Linear_8,135,5,42,127,1485239556
33,10,20,Ticks_Linear_8,136,1,48,39,1485258476
33,10,20,Ticks_Linear_8,137,1,48,41,1485912960
33,10,20,Ticks_Linear_8,138,5,42,127,1485919600
33,10,20,Ticks_Linear_8,139,1,48,23,1486592792
33,10,20,Ticks_Linear_8,140,5,42,127,1486599504
33,10,20,Ticks_Linear_8,141,5,42,127,1487279388
33,10,20,Ticks_Linear_8,142,1,48,41,1487319456
33,10,20,Ticks_Linear_8,143,5,42,127,1487960416
33,10,20,Ticks_Linear_8,144,1,48,46,1488032204
33,10,20,Ticks_Linear_8,145,1,48,38,1488593660
33,10,20,Ticks_Linear_8,146,5,42,127,1488640460
33,10,20,Ticks_Linear_8,147,1,48,43,1489300904
33,10,20,Ticks_Linear_8,148,5,42,127,1489310080
33,10,20,Ticks_Linear_8,149,1,48,44,1489949880
33,10,20,Ticks_Linear_8,150,5,42,127,1489979948
33,10,20,Ticks_Linear_8,151,1,48,42,1490643260
33,10,20,Ticks_Linear_8,152,5,42,127,1490649592
33,10,20,Ticks_Linear_8,153,1,48,37,1491284792
33,10,20,Ticks_Linear_8,154,5,42,127,1491320184
33,10,20,Ticks_Linear_8,155,5,42,127,1491979728
33,10,20,Ticks_Linear_8,156,1,48,44,1491995196
33,10,20,Ticks_Linear_8,157,5,42,127,1492640060
33,10,20,Ticks_Linear_8,158,1,48,48,1492655160
33,10,20,Ticks_Linear_8,159,5,42,127,1493299816
33,10,20,Ticks_Linear_8,160,1,48,39,1493349072
33,10,20,Ticks_Linear_8,161,5,42,127,1493959928
33,10,20,Ticks_Linear_8,162,1,48,37,1493963944
33,10,20,Ticks_Linear_8,163,5,42,127,1494619760
33,10,20,Ticks_Linear_8,164,1,48,42,1494635904
33,10,20,Ticks_Linear_8,165,1,48,44,1495265836
33,10,20,Ticks_Linear_8,166,5,42,127,1495269852
33,10,20,Ticks_Linear_8,167,1,48,43,1495917632
33,10,20,Ticks_Linear_8,168,5,42,127,1495920000
33,10,20,Ticks_Linear_8,169,1,48,40,1496565160
33,10,20,Ticks_Linear_8,170,5,42,127,1496570224
33,10,20,Ticks_Linear_8,171,1,48,39,1497214708
33,10,20,Ticks_Linear_8,172,5,42,127,1497219476
33,10,20,Ticks_Linear_8,173,1,48,35,1497843392
33,10,20,Ticks_Linear_8,174,5,42,127,1497869576
33,10,20,Ticks_Linear_8,175,1,48,43,1498503800
33,10,20,Ticks_Linear_8,176,5,42,127,1498509612
33,10,20,Ticks_Linear_8,177,5,42,127,1499149832
33,10,20,Ticks_Linear_8,178,1,48,40,1499184776
33,10,20,Ticks_Linear_8,179,1,48,43,1499783004
33,10,20,Ticks_Linear_8,180,5,42,127,1499789568
33,10,20,Ticks_Linear_8,181,1,48,42,1500417464
33,10,20,Ticks_Linear_8,182,5,42,127,1500429628
33,10,20,Ticks_Linear_8,183,1,48,48,1501042892
33,10,20,Ticks_Linear_8,184,5,42,127,1501069668
33,10,20,Ticks_Linear_8,185,1,48,51,1501691568
33,10,20,Ticks_Linear_8,186,5,42,127,1501699324
33,10,20,Ticks_Linear_8,187,5,42,127,1502330452
33,10,20,Ticks_Linear_8,188,1,48,45,1502378140
33,10,20,Ticks_Linear_8,189,5,42,127,1502959960
33,10,20,Ticks_Linear_8,190,1,48,39,1502970196
33,10,20,Ticks_Linear_8,191,1,48,44,1503582948
33,10,20,Ticks_Linear_8,192,5,42,127,1503589884
33,10,20,Ticks_Linear_8,193,1,48,43,1504191688
33,10,20,Ticks_Linear_8,194,5,42,127,1504219388
33,10,20,Ticks_Linear_8,195,5,42,127,1504840260
33,10,20,Ticks_Linear_8,196,1,48,46,1504851616
33,10,20,Ticks_Linear_8,197,5,42,127,1505459556
33,10,20,Ticks_Linear_8,198,1,48,44,1505471360
33,10,20,Ticks_Linear_8,199,1,48,40,1506076800
33,10,20,Ticks_Linear_8,200,5,42,127,1506080364
33,10,20,Ticks_Linear_8,201,1,48,41,1506685756
33,10,20,Ticks_Linear_8,202,5,42,127,1506699660
33,10,20,Ticks_Linear_8,203,5,42,127,1507320184
33,10,20,Ticks_Linear_8,204,1,48,47,1507327420
33,10,20,Ticks_Linear_8,205,5,42,127,1507929372
33,10,20,Ticks_Linear_8,206,1,48,40,1507933012
33,10,20,Ticks_Linear_8,207,5,42,127,1508540052
33,10,20,Ticks_Linear_8,208,1,48,40,1508544368
33,10,20,Ticks_Linear_8,209,5,42,127,1509150016
33,10,20,Ticks_Linear_8,210,1,48,40,1509164884
33,10,20,Ticks_Linear_8,211,1,48,37,1509752484
33,10,20,Ticks_Linear_8,212,5,42,127,1509760392
33,10,20,Ticks_Linear_8,213,1,48,38,1510346532
33,10,20,Ticks_Linear_8,214,5,42,127,1510369676
33,10,20,Ticks_Linear_8,215,5,42,127,1510969808
33,10,20,Ticks_Linear_8,216,1,48,41,1510974500
33,10,20,Ticks_Linear_8,217,1,48,35,1511544044
33,10,20,Ticks_Linear_8,218,5,42,127,1511570000
33,10,20,Ticks_Linear_8,219,1,48,45,1512160376
33,10,20,Ticks_Linear_8,220,5,42,127,1512169924
33,10,20,Ticks_Linear_8,221,5,42,127,1512769908
33,10,20,Ticks_Linear_8,222,1,48,46,1512778272
33,10,20,Ticks_Linear_8,223,1,48,47,1513356796
33,10,20,Ticks_Linear_8,224,5,42,127,1513370024
33,10,20,Ticks_Linear_8,225,5,42,127,1513959992
33,10,20,Ticks_Linear_8,226,1,48,47,1513965804
33,10,20,Ticks_Linear_8,227,5,42,127,1514549856
33,10,20,Ticks_Linear_8,228,1,48,41,1514592892
33,10,20,Ticks_Linear_8,229,1,48,40,1515132556
33,10,20,Ticks_Linear_8,230,5,42,127,1515139788
33,10,20,Ticks_Linear_8,231,5,42,127,1515730508
33,10,20,Ticks_Linear_8,232,1,48,41,1515734600
33,10,20,Ticks_Linear_8,233,5,42,127,1516320224
33,10,20,Ticks_Linear_8,234,1,48,44,1516342372
33,10,20,Ticks_Linear_8,235,5,42,127,1516899684
33,10,20,Ticks_Linear_8,236,1,48,43,1516912988
33,10,20,Ticks_Linear_8,237,5,42,127,1517480260
33,10,20,Ticks_Linear_8,238,1,48,43,1517482200
33,10,20,Ticks_Linear_8,239,5,42,127,1518059964
33,10,20,Ticks_Linear_8,240,1,48,43,1518077308
33,10,20,Ticks_Linear_8,241,5,42,127,1518639644
33,10,20,Ticks_Linear_8,242,1,48,42,1518690400
33,10,20,Ticks_Linear_8,243,5,42,127,1519220000
33,10,20,Ticks_Linear_8,244,1,48,37,1519233080
33,10,20,Ticks_Linear_8,245,5,42,127,1519789572
33,10,20,Ticks_Linear_8,246,1,48,40,1519826628
33,10,20,Ticks_Linear_8,247,1,48,38,1520344952
33,10,20,Ticks_Linear_8,248,5,42,127,1520359756
33,10,20,Ticks_Linear_8,249,1,48,39,1520902548
33,10,20,Ticks_Linear_8,250,5,42,127,1520930296
33,10,20,Ticks_Linear_8,251,1,48,38,1521464848
33,10,20,Ticks_Linear_8,252,5,42,127,1521499644
33,10,20,Ticks_Linear_8,253,1,48,41,1522031732
33,10,20,Ticks_Linear_8,254,5,42,127,1522069888
33,10,20,Ticks_Linear_8,255,5,42,127,1522629956
33,10,20,Ticks_Linear_8,256,1,48,44,1522633824
33,10,20,Ticks_Linear_8,257,5,42,127,1523190412
33,10,20,Ticks_Linear_8,258,1,48,44,1523221992
33,10,20,Ticks_Linear_8,259,1,48,44,1523741288
33,10,20,Ticks_Linear_8,260,5,42,127,1523750392
33,10,20,Ticks_Linear_8,261,1,48,40,1524294600
33,10,20,Ticks_Linear_8,262,5,42,127,1524310300
33,10,20,Ticks_Linear_8,263,1,48,39,1524830104
33,10,20,Ticks_Linear_8,264,5,42,127,1524869464
33,10,20,Ticks_Linear_8,265,1,48,41,1525411208
33,10,20,Ticks_Linear_8,266,5,42,127,1525420384
33,10,20,Ticks_Linear_8,267,1,48,40,1525963696
33,10,20,Ticks_Linear_8,268,5,42,127,1525970284
33,10,20,Ticks_Linear_8,269,5,42,127,1526520240
33,10,20,Ticks_Linear_8,270,1,48,36,1526532272
33,10,20,Ticks_Linear_8,271,1,48,40,1527063248
33,10,20,Ticks_Linear_8,272,5,42,127,1527070184
33,10,20,Ticks_Linear_8,273,5,42,127,1527619844
33,10,20,Ticks_Linear_8,274,1,48,40,1527623408
33,10,20,Ticks_Linear_8,275,5,42,127,1528159608
33,10,20,Ticks_Linear_8,276,1,48,41,1528172160
33,10,20,Ticks_Linear_8,277,5,42,127,1528700196
33,10,20,Ticks_Linear_8,278,1,48,41,1528722332
33,10,20,Ticks_Linear_8,279,5,42,127,1529240184
33,10,20,Ticks_Linear_8,280,1,48,42,1529264040
33,10,20,Ticks_Linear_8,281,1,48,39,1529743504
33,10,20,Ticks_Linear_8,282,5,42,127,1529779640
33,10,20,Ticks_Linear_8,283,1,48,41,1530320112
33,10,20,Ticks_Linear_8,284,5,42,127,1530321596
33,10,20,Ticks_Linear_8,285,5,42,127,1530849616
33,10,20,Ticks_Linear_8,286,1,48,45,1530863744
33,10,20,Ticks_Linear_8,287,1,48,40,1531360280
33,10,20,Ticks_Linear_8,288,5,42,127,1531380088
33,10,20,Ticks_Linear_8,289,1,48,46,1531906020
33,10,20,Ticks_Linear_8,290,5,42,127,1531909520
33,10,20,Ticks_Linear_8,291,1,48,46,1532433360
33,10,20,Ticks_Linear_8,292,5,42,127,1532439920
33,10,20,Ticks_Linear_8,293,1,48,46,1532959276
33,10,20,Ticks_Linear_8,294,5,42,127,1532970324
33,10,20,Ticks_Linear_8,295,1,48,45,1533470656
33,10,20,Ticks_Linear_8,296,5,42,127,1533489572
33,10,20,Ticks_Linear_8,297,5,42,127,1534009872
33,10,20,Ticks_Linear_8,298,1,48,47,1534032312
33,10,20,Ticks_Linear_8,299,5,42,127,1534530012
33,10,20,Ticks_Linear_8,300,1,48,50,1534548268
33,10,20,Ticks_Linear_8,301,1,48,43,1535014984
33,10,20,Ticks_Linear_8,302,5,42,127,1535050004
33,10,20,Ticks_Linear_8,303,1,48,41,1535535428
33,10,20,Ticks_Linear_8,304,5,42,127,1535570296
33,10,20,Ticks_Linear_8,305,1,48,45,1536062540
33,10,20,Ticks_Linear_8,306,5,42,127,1536080108
33,10,20,Ticks_Linear_8,307,5,42,127,1536590072
33,10,20,Ticks_Linear_8,308,1,48,47,1536600536
33,10,20,Ticks_Linear_8,309,1,48,42,1537099428
33,10,20,Ticks_Linear_8,310,5,42,127,1537101220
33,10,20,Ticks_Linear_8,311,1,48,43,1537596156
33,10,20,Ticks_Linear_8,312,5,42,127,1537609984
33,10,20,Ticks_Linear_8,313,5,42,127,1538120028
33,10,20,Ticks_Linear_8,314,1,48,43,1538125840
33,10,20,Ticks_Linear_8,315,5,42,127,1538619800
33,10,20,Ticks_Linear_8,316,1,48,38,1538627256
33,10,20,Ticks_Linear_8,317,1,48,38,1539104244
33,10,20,Ticks_Linear_8,318,5,42,127,1539119568
33,10,20,Ticks_Linear_8,319,1,48,32,1539600508
33,10,20,Ticks_Linear_8,320,5,42,127,1539620168
33,10,20,Ticks_Linear_8,321,5,42,127,1540120020
33,10,20,Ticks_Linear_8,322,1,48,39,1540127404
33,10,20,Ticks_Linear_8,323,5,42,127,1540619572
33,10,20,Ticks_Linear_8,324,1,48,44,1540627400
33,10,20,Ticks_Linear_8,325,5,42,127,1541110208
33,10,20,Ticks_Linear_8,326,1,48,42,1541117740
33,10,20,Ticks_Linear_8,327,1,48,43,1541597988
33,10,20,Ticks_Linear_8,328,5,42,127,1541599720
33,10,20,Ticks_Linear_8,329,1,48,39,1542076204
33,10,20,Ticks_Linear_8,330,5,42,127,1542090184
33,10,20,Ticks_Linear_8,331,1,48,37,1542577584
33,10,20,Ticks_Linear_8,332,5,42,127,1542579552
33,10,20,Ticks_Linear_8,333,1,48,37,1543046552
33,10,20,Ticks_Linear_8,334,5,42,127,1543070336
33,10,20,Ticks_Linear_8,0,9999,9999,9999,1432488000
33,10,20,Ticks_Linear_8,1,9999,9999,9999,1433307244
33,10,20,Ticks_Linear_8,2,9999,9999,9999,1434127432
33,10,20,Ticks_Linear_8,3,9999,9999,9999,1434947696
33,10,20,Ticks_Linear_8,4,9999,9999,9999,1435767888
33,10,20,Ticks_Linear_8,5,9999,9999,9999,1436577864
33,10,20,Ticks_Linear_8,6,9999,9999,9999,1437387848
33,10,20,Ticks_Linear_8,7,9999,9999,9999,1438197828
33,10,20,Ticks_Linear_8,8,9999,9999,9999,1439007812
33,10,20,Ticks_Linear_8,9,9999,9999,9999,1439817796
33,10,20,Ticks_Linear_8,10,9999,9999,9999,1440617596
33,10,20,Ticks_Linear_8,11,9999,9999,9999,1441417320
33,10,20,Ticks_Linear_8,12,9999,9999,9999,1442218092
33,10,20,Ticks_Linear_8,13,9999,9999,9999,1443017820
33,10,20,Ticks_Linear_8,14,9999,9999,9999,1443817560
33,10,20,Ticks_Linear_8,15,9999,9999,9999,1444608080
33,10,20,Ticks_Linear_8,16,9999,9999,9999,1445407872
33,10,20,Ticks_Linear_8,17,9999,9999,9999,1446197336
33,10,20,Ticks_Linear_8,18,9999,9999,9999,1446987848
33,10,20,Ticks_Linear_8,19,9999,9999,9999,1447777388
33,10,20,Ticks_Linear_8,20,9999,9999,9999,1448557640
33,10,20,Ticks_Linear_8,21,9999,9999,9999,1449337968
33,10,20,Ticks_Linear_8,22,9999,9999,9999,1450117180
33,10,20,Ticks_Linear_8,23,9999,9999,9999,1450897500
33,10,20,Ticks_Linear_8,24,9999,9999,9999,1451677760
33,10,20,Ticks_Linear_8,25,9999,9999,9999,1452447828
33,10,20,Ticks_Linear_8,26,9999,9999,9999,1453217896
33,10,20,Ticks_Linear_8,27,9999,9999,9999,1453987956
33,10,20,Ticks_Linear_8,28,9999,9999,9999,1454757952
33,10,20,Ticks_Linear_8,29,9999,9999,9999,1455528024
33,10,20,Ticks_Linear_8,30,9999,9999,9999,1456287828
33,10,20,Ticks_Linear_8,31,9999,9999,9999,1457047636
33,10,20,Ticks_Linear_8,32,9999,9999,9999,1457807448
33,10,20,Ticks_Linear_8,33,9999,9999,9999,1458567256
33,10,20,Ticks_Linear_8,34,9999,9999,9999,1459328120
33,10,20,Ticks_Linear_8,35,9999,9999,9999,1460087928
33,10,20,Ticks_Linear_8,36,9999,9999,9999,1460837476
33,10,20,Ticks_Linear_8,37,9999,9999,9999,1461588068
33,10,20,Ticks_Linear_8,38,9999,9999,9999,1462337616
33,10,20,Ticks_Linear_8,39,9999,9999,9999,1463087168
33,10,20,Ticks_Linear_8,40,9999,9999,9999,1463827512
33,10,20,Ticks_Linear_8,41,9999,9999,9999,1464567924
33,10,20,Ticks_Linear_8,42,9999,9999,9999,1465307208
33,10,20,Ticks_Linear_8,43,9999,9999,9999,1466047600
33,10,20,Ticks_Linear_8,44,9999,9999,9999,1466787932
33,10,20,Ticks_Linear_8,45,9999,9999,9999,1467518012
33,10,20,Ticks_Linear_8,46,9999,9999,9999,1468247124
33,10,20,Ticks_Linear_8,47,9999,9999,9999,1468977272
33,10,20,Ticks_Linear_8,48,9999,9999,9999,1469707352
33,10,20,Ticks_Linear_8,49,9999,9999,9999,1470437436
33,10,20,Ticks_Linear_8,50,9999,9999,9999,1471157308
33,10,20,Ticks_Linear_8,51,9999,9999,9999,1471877200
33,10,20,Ticks_Linear_8,52,9999,9999,9999,1472598140
33,10,20,Ticks_Linear_8,53,9999,9999,9999,1473327188
33,10,20,Ticks_Linear_8,54,9999,9999,9999,1474048060
33,10,20,Ticks_Linear_8,55,9999,9999,9999,1474767932
33,10,20,Ticks_Linear_8,56,9999,9999,9999,1475477632
33,10,20,Ticks_Linear_8,57,9999,9999,9999,1476187196
33,10,20,Ticks_Linear_8,58,9999,9999,9999,1476897880
33,10,20,Ticks_Linear_8,59,9999,9999,9999,1477607516
33,10,20,Ticks_Linear_8,60,9999,9999,9999,1478307912
33,10,20,Ticks_Linear_8,61,9999,9999,9999,1479007284
33,10,20,Ticks_Linear_8,62,9999,9999,9999,1479707704
33,10,20,Ticks_Linear_8,63,9999,9999,9999,1480407152
33,10,20,Ticks_Linear_8,64,9999,9999,9999,1481107548
33,10,20,Ticks_Linear_8,65,9999,9999,9999,1481797712
33,10,20,Ticks_Linear_8,66,9999,9999,9999,1482487880
33,10,20,Ticks_Linear_8,67,9999,9999,9999,1483178096
33,10,20,Ticks_Linear_8,68,9999,9999,9999,1483867204
33,10,20,Ticks_Linear_8,69,9999,9999,9999,1484557368
33,10,20,Ticks_Linear_8,70,9999,9999,9999,1485237332
33,10,20,Ticks_Linear_8,71,9999,9999,9999,1485917300
33,10,20,Ticks_Linear_8,72,9999,9999,9999,1486597204
33,10,20,Ticks_Linear_8,73,9999,9999,9999,1487277164
33,10,20,Ticks_Linear_8,74,9999,9999,9999,1487958116
33,10,20,Ticks_Linear_8,75,9999,9999,9999,1488638012
33,10,20,Ticks_Linear_8,76,9999,9999,9999,1489307708
33,10,20,Ticks_Linear_8,77,9999,9999,9999,1489977428
33,10,20,Ticks_Linear_8,78,9999,9999,9999,1490647148
33,10,20,Ticks_Linear_8,79,9999,9999,9999,1491317888
33,10,20,Ticks_Linear_8,80,9999,9999,9999,1491977280
33,10,20,Ticks_Linear_8,81,9999,9999,9999,1492637764
33,10,20,Ticks_Linear_8,82,9999,9999,9999,1493297220
33,10,20,Ticks_Linear_8,83,9999,9999,9999,1493957704
33,10,20,Ticks_Linear_8,84,9999,9999,9999,1494617164
33,10,20,Ticks_Linear_8,85,9999,9999,9999,1495267404
33,10,20,Ticks_Linear_8,86,9999,9999,9999,1495917700
33,10,20,Ticks_Linear_8,87,9999,9999,9999,1496567924
33,10,20,Ticks_Linear_8,88,9999,9999,9999,1497217104
33,10,20,Ticks_Linear_8,89,9999,9999,9999,1497867348
33,10,20,Ticks_Linear_8,90,9999,9999,9999,1498507388
33,10,20,Ticks_Linear_8,91,9999,9999,9999,1499147384
33,10,20,Ticks_Linear_8,92,9999,9999,9999,1499787344
33,10,20,Ticks_Linear_8,93,9999,9999,9999,1500427332
33,10,20,Ticks_Linear_8,94,9999,9999,9999,1501067368
33,10,20,Ticks_Linear_8,95,9999,9999,9999,1501697100
33,10,20,Ticks_Linear_8,96,9999,9999,9999,1502327932
33,10,20,Ticks_Linear_8,97,9999,9999,9999,1502957660
33,10,20,Ticks_Linear_8,98,9999,9999,9999,1503587436
33,10,20,Ticks_Linear_8,99,9999,9999,9999,1504217164
33,10,20,Ticks_Linear_8,100,9999,9999,9999,1504837736
33,10,20,Ticks_Linear_8,101,9999,9999,9999,1505457256
33,10,20,Ticks_Linear_8,102,9999,9999,9999,1506077768
33,10,20,Ticks_Linear_8,103,9999,9999,9999,1506697288
33,10,20,Ticks_Linear_8,104,9999,9999,9999,1507317888
33,10,20,Ticks_Linear_8,105,9999,9999,9999,1507927148
33,10,20,Ticks_Linear_8,106,9999,9999,9999,1508537456
33,10,20,Ticks_Linear_8,107,9999,9999,9999,1509147716
33,10,20,Ticks_Linear_8,108,9999,9999,9999,1509758016
33,10,20,Ticks_Linear_8,109,9999,9999,9999,1510367304
33,10,20,Ticks_Linear_8,110,9999,9999,9999,1510967360
33,10,20,Ticks_Linear_8,111,9999,9999,9999,1511567476
33,10,20,Ticks_Linear_8,112,9999,9999,9999,1512167552
33,10,20,Ticks_Linear_8,113,9999,9999,9999,1512767608
33,10,20,Ticks_Linear_8,114,9999,9999,9999,1513367648
33,10,20,Ticks_Linear_8,115,9999,9999,9999,1513957472
33,10,20,Ticks_Linear_8,116,9999,9999,9999,1514547260
33,10,20,Ticks_Linear_8,117,9999,9999,9999,1515137120
33,10,20,Ticks_Linear_8,118,9999,9999,9999,1515727988
33,10,20,Ticks_Linear_8,119,9999,9999,9999,1516317776
33,10,20,Ticks_Linear_8,120,9999,9999,9999,1516897384
33,10,20,Ticks_Linear_8,121,9999,9999,9999,1517477964
33,10,20,Ticks_Linear_8,122,9999,9999,9999,1518057592
33,10,20,Ticks_Linear_8,123,9999,9999,9999,1518637124
33,10,20,Ticks_Linear_8,124,9999,9999,9999,1519217776
33,10,20,Ticks_Linear_8,125,9999,9999,9999,1519787120
33,10,20,Ticks_Linear_8,126,9999,9999,9999,1520357460
33,10,20,Ticks_Linear_8,127,9999,9999,9999,1520927848
33,10,20,Ticks_Linear_8,128,9999,9999,9999,1521497196
33,10,20,Ticks_Linear_8,129,9999,9999,9999,1522067516
33,10,20,Ticks_Linear_8,130,9999,9999,9999,1522627656
33,10,20,Ticks_Linear_8,131,9999,9999,9999,1523187816
33,10,20,Ticks_Linear_8,132,9999,9999,9999,1523747944
33,10,20,Ticks_Linear_8,133,9999,9999,9999,1524308076
33,10,20,Ticks_Linear_8,134,9999,9999,9999,1524867164
33,10,20,Ticks_Linear_8,135,9999,9999,9999,1525418084
33,10,20,Ticks_Linear_8,136,9999,9999,9999,1525967984
33,10,20,Ticks_Linear_8,137,9999,9999,9999,1526517868
33,10,20,Ticks_Linear_8,138,9999,9999,9999,1527067736
33,10,20,Ticks_Linear_8,139,9999,9999,9999,1527617620
33,10,20,Ticks_Linear_8,140,9999,9999,9999,1528157308
33,10,20,Ticks_Linear_8,141,9999,9999,9999,1528697972
33,10,20,Ticks_Linear_8,142,9999,9999,9999,1529237588
33,10,20,Ticks_Linear_8,143,9999,9999,9999,1529777268
33,10,20,Ticks_Linear_8,144,9999,9999,9999,1530317936
33,10,20,Ticks_Linear_8,145,9999,9999,9999,1530847320
33,10,20,Ticks_Linear_8,146,9999,9999,9999,1531377788
33,10,20,Ticks_Linear_8,147,9999,9999,9999,1531907144
33,10,20,Ticks_Linear_8,148,9999,9999,9999,1532437624
33,10,20,Ticks_Linear_8,149,9999,9999,9999,1532968024
33,10,20,Ticks_Linear_8,150,9999,9999,9999,1533487196
33,10,20,Ticks_Linear_8,151,9999,9999,9999,1534007424
33,10,20,Ticks_Linear_8,152,9999,9999,9999,1534527564
33,10,20,Ticks_Linear_8,153,9999,9999,9999,1535047780
33,10,20,Ticks_Linear_8,154,9999,9999,9999,1535567996
33,10,20,Ticks_Linear_8,155,9999,9999,9999,1536077884
33,10,20,Ticks_Linear_8,156,9999,9999,9999,1536587848
33,10,20,Ticks_Linear_8,157,9999,9999,9999,1537097808
33,10,20,Ticks_Linear_8,158,9999,9999,9999,1537607760
33,10,20,Ticks_Linear_8,159,9999,9999,9999,1538117728
33,10,20,Ticks_Linear_8,160,9999,9999,9999,1538617428
33,10,20,Ticks_Linear_8,161,9999,9999,9999,1539117120
33,10,20,Ticks_Linear_8,162,9999,9999,9999,1539617868
33,10,20,Ticks_Linear_8,163,9999,9999,9999,1540117572
33,10,20,Ticks_Linear_8,164,9999,9999,9999,1540617276
33,10,20,Ticks_Linear_8,165,9999,9999,9999,1541107836
33,10,20,Ticks_Linear_8,166,9999,9999,9999,1541597284
33,10,20,Ticks_Linear_8,167,9999,9999,9999,1542087736
33,10,20,Ticks_Linear_8,168,9999,9999,9999,1542577288
33,10,20,Ticks_Linear_8,169,9999,9999,9999,1543067740
33,11,25,Jits_Pract_5,0,5,56,103,1607555356
33,11,25,Jits_Pract_5,1,5,63,98,1607558684
33,11,25,Jits_Pract_5,2,5,80,127,1607561728
33,11,25,Jits_Pract_5,0,5,56,103,1608056128
33,11,25,Jits_Pract_5,1,5,63,98,1608058996
33,11,25,Jits_Pract_5,2,5,80,127,1608062348
33,11,25,Jits_Pract_5,0,5,56,103,1608555944
33,11,25,Jits_Pract_5,1,5,80,127,1608566064
33,11,25,Jits_Pract_5,2,5,63,98,1608585700
33,11,25,Jits_Pract_5,0,5,63,98,1609005640
33,11,25,Jits_Pract_5,1,5,80,127,1609036140
33,11,25,Jits_Pract_5,2,5,56,103,1609046560
33,11,25,Jits_Pract_5,0,5,80,127,1609565528
33,11,25,Jits_Pract_5,1,5,56,103,1609575872
33,11,25,Jits_Pract_5,2,5,63,98,1609605624
33,11,25,Jits_Pract_5,0,5,63,98,1610056060
33,11,25,Jits_Pract_5,1,5,56,103,1610085660
33,11,25,Jits_Pract_5,2,5,80,127,1610095932
33,11,25,Jits_Pract_5,0,5,56,103,1610505516
33,11,25,Jits_Pract_5,1,5,63,98,1610555644
33,11,25,Jits_Pract_5,2,5,80,127,1610576252
33,11,25,Jits_Pract_5,0,5,80,127,1611006456
33,11,25,Jits_Pract_5,1,5,63,98,1611055464
33,11,25,Jits_Pract_5,2,1,48,38,1611058808
33,11,25,Jits_Pract_5,3,5,56,103,1611096592
33,11,25,Jits_Pract_5,0,5,56,103,1611505936
33,11,25,Jits_Pract_5,1,5,63,98,1611535764
33,11,25,Jits_Pract_5,2,1,48,43,1611578888
33,11,25,Jits_Pract_5,3,5,80,127,1611606336
33,11,25,Jits_Pract_5,0,5,56,103,1612005644
33,11,25,Jits_Pract_5,1,1,48,39,1612065432
33,11,25,Jits_Pract_5,2,5,80,127,1612067152
33,11,25,Jits_Pract_5,3,5,63,98,1612095852
33,11,25,Jits_Pract_5,0,5,56,103,1612515764
33,11,25,Jits_Pract_5,1,5,63,98,1612525888
33,11,25,Jits_Pract_5,2,1,48,38,1612562492
33,11,25,Jits_Pract_5,3,5,80,127,1612565744
33,11,25,Jits_Pract_5,0,5,63,98,1613006400
33,11,25,Jits_Pract_5,1,1,48,29,1613031392
33,11,25,Jits_Pract_5,2,5,80,127,1613086192
33,11,25,Jits_Pract_5,3,5,56,103,1613096388
33,11,25,Jits_Pract_5,0,1,48,29,1613536632
33,11,25,Jits_Pract_5,1,5,63,98,1613556356
33,11,25,Jits_Pract_5,2,5,56,103,1613595996
33,11,25,Jits_Pract_5,3,5,80,127,1613599216
33,11,25,Jits_Pract_5,0,5,56,103,1614015944
33,11,25,Jits_Pract_5,1,5,63,98,1614026312
33,11,25,Jits_Pract_5,2,1,48,35,1614044124
33,11,25,Jits_Pract_5,3,5,80,127,1614066244
33,11,25,Jits_Pract_5,0,5,56,103,1614506428
33,11,25,Jits_Pract_5,1,5,63,98,1614509348
33,11,25,Jits_Pract_5,2,5,80,127,1614525916
33,11,25,Jits_Pract_5,3,1,48,35,1614539400
33,11,25,Jits_Pract_5,0,9999,9999,9999,1607803992
33,11,25,Jits_Pract_5,1,9999,9999,9999,1608303716
33,11,25,Jits_Pract_5,2,9999,9999,9999,1608803384
33,11,25,Jits_Pract_5,3,9999,9999,9999,1609303128
33,11,25,Jits_Pract_5,4,9999,9999,9999,1609803828
33,11,25,Jits_Pract_5,5,9999,9999,9999,1610303576
33,11,25,Jits_Pract_5,6,9999,9999,9999,1610803304
33,11,25,Jits_Pract_5,7,9999,9999,9999,1611303996
33,11,25,Jits_Pract_5,8,9999,9999,9999,1611803700
33,11,25,Jits_Pract_5,9,9999,9999,9999,1612303408
33,11,25,Jits_Pract_5,10,9999,9999,9999,1612803188
33,11,25,Jits_Pract_5,11,9999,9999,9999,1613303872
33,11,25,Jits_Pract_5,12,9999,9999,9999,1613803628
33,11,25,Jits_Pract_5,13,9999,9999,9999,1614303320
33,11,25,Jits_Pract_5,14,9999,9999,9999,1614804060
33,12,24,Jits_Pract_8,0,5,56,103,1620853044
33,12,24,Jits_Pract_8,1,5,63,98,1620856140
33,12,24,Jits_Pract_8,2,5,80,127,1620859264
33,12,24,Jits_Pract_8,0,5,56,103,1621652836
33,12,24,Jits_Pract_8,1,5,63,98,1621655856
33,12,24,Jits_Pract_8,2,5,80,127,1621658904
33,12,24,Jits_Pract_8,0,5,80,127,1622393152
33,12,24,Jits_Pract_8,1,5,63,98,1622483164
33,12,24,Jits_Pract_8,2,5,56,103,1622492608
33,12,24,Jits_Pract_8,0,5,56,103,1623213416
33,12,24,Jits_Pract_8,1,5,63,98,1623222716
33,12,24,Jits_Pract_8,2,5,80,127,1623313020
33,12,24,Jits_Pract_8,0,5,63,98,1623982432
33,12,24,Jits_Pract_8,1,1,48,48,1624001068
33,12,24,Jits_Pract_8,2,5,80,127,1624013100
33,12,24,Jits_Pract_8,3,5,56,103,1624042848
33,12,24,Jits_Pract_8,0,1,48,47,1624721696
33,12,24,Jits_Pract_8,1,5,56,103,1624783176
33,12,24,Jits_Pract_8,2,5,80,127,1624882812
33,12,24,Jits_Pract_8,3,5,63,98,1624932936
33,12,24,Jits_Pract_8,0,1,48,55,1625576384
33,12,24,Jits_Pract_8,1,5,56,103,1625582936
33,12,24,Jits_Pract_8,2,5,80,127,1625632992
33,12,24,Jits_Pract_8,3,5,63,98,1625672988
33,12,24,Jits_Pract_8,0,1,48,54,1626392548
33,12,24,Jits_Pract_8,1,5,80,127,1626413400
33,12,24,Jits_Pract_8,2,5,63,98,1626443076
33,12,24,Jits_Pract_8,3,5,56,103,1626512888
33,12,24,Jits_Pract_8,0,1,48,56,1627184588
33,12,24,Jits_Pract_8,1,5,63,98,1627242904
33,12,24,Jits_Pract_8,2,5,56,103,1627272652
33,12,24,Jits_Pract_8,3,5,80,127,1627333028
33,12,24,Jits_Pract_8,0,5,56,103,1627983076
33,12,24,Jits_Pract_8,1,5,80,127,1627986296
33,12,24,Jits_Pract_8,2,1,48,57,1627990404
33,12,24,Jits_Pract_8,3,5,63,98,1628103004
33,12,24,Jits_Pract_8,0,1,48,56,1628792748
33,12,24,Jits_Pract_8,1,5,56,103,1628862824
33,12,24,Jits_Pract_8,2,5,80,127,1628902624
33,12,24,Jits_Pract_8,3,5,63,98,1628912968
33,12,24,Jits_Pract_8,0,5,56,103,1629622736
33,12,24,Jits_Pract_8,1,5,80,127,1629643072
33,12,24,Jits_Pract_8,2,1,48,53,1629651072
33,12,24,Jits_Pract_8,3,5,63,98,1629722856
33,12,24,Jits_Pract_8,0,5,80,127,1630413092
33,12,24,Jits_Pract_8,1,1,48,58,1630465956
33,12,24,Jits_Pract_8,2,5,56,103,1630512808
33,12,24,Jits_Pract_8,3,5,63,98,1630522708
33,12,24,Jits_Pract_8,0,5,63,98,1631183200
33,12,24,Jits_Pract_8,1,5,80,127,1631242620
33,12,24,Jits_Pract_8,2,5,56,103,1631252812
33,12,24,Jits_Pract_8,3,1,48,63,1631276236
33,12,24,Jits_Pract_8,0,5,56,103,1631982880
33,12,24,Jits_Pract_8,1,1,48,55,1631995360
33,12,24,Jits_Pract_8,2,5,63,98,1632052472
33,12,24,Jits_Pract_8,3,5,80,127,1632055764
33,12,24,Jits_Pract_8,0,9999,9999,9999,1621250104
33,12,24,Jits_Pract_8,1,9999,9999,9999,1622050864
33,12,24,Jits_Pract_8,2,9999,9999,9999,1622850676
33,12,24,Jits_Pract_8,3,9999,9999,9999,1623650412
33,12,24,Jits_Pract_8,4,9999,9999,9999,1624450116
33,12,24,Jits_Pract_8,5,9999,9999,9999,1625250928
33,12,24,Jits_Pract_8,6,9999,9999,9999,1626050680
33,12,24,Jits_Pract_8,7,9999,9999,9999,1626850384
33,12,24,Jits_Pract_8,8,9999,9999,9999,1627650120
33,12,24,Jits_Pract_8,9,9999,9999,9999,1628450884
33,12,24,Jits_Pract_8,10,9999,9999,9999,1629250660
33,12,24,Jits_Pract_8,11,9999,9999,9999,1630050420
33,12,24,Jits_Pract_8,12,9999,9999,9999,1630850120
33,12,24,Jits_Pract_8,13,9999,9999,9999,1631650936
33,12,24,Jits_Pract_8,14,9999,9999,9999,1632450680
33,13,16,Jits_ISO_5,0,5,56,103,1656827508
33,13,16,Jits_ISO_5,1,5,63,98,1656830684
33,13,16,Jits_ISO_5,2,5,80,127,1656833804
33,13,16,Jits_ISO_5,0,5,56,103,1657327156
33,13,16,Jits_ISO_5,1,5,63,98,1657330332
33,13,16,Jits_ISO_5,2,5,80,127,1657333448
33,13,16,Jits_ISO_5,0,5,56,103,1657826668
33,13,16,Jits_ISO_5,1,5,80,127,1657836868
33,13,16,Jits_ISO_5,2,5,63,98,1657857400
33,13,16,Jits_ISO_5,0,5,63,98,1658277240
33,13,16,Jits_ISO_5,1,5,80,127,1658307064
33,13,16,Jits_ISO_5,2,5,56,103,1658317332
33,13,16,Jits_ISO_5,0,1,48,44,1658781168
33,13,16,Jits_ISO_5,1,5,80,127,1658837488
33,13,16,Jits_ISO_5,2,5,56,103,1658846560
33,13,16,Jits_ISO_5,3,5,63,98,1658877268
33,13,16,Jits_ISO_5,0,1,48,42,1659301276
33,13,16,Jits_ISO_5,1,5,63,98,1659326780
33,13,16,Jits_ISO_5,2,5,56,103,1659356628
33,13,16,Jits_ISO_5,3,5,80,127,1659366900
33,13,16,Jits_ISO_5,0,5,56,103,1659777376
33,13,16,Jits_ISO_5,1,1,48,49,1659823040
33,13,16,Jits_ISO_5,2,5,63,98,1659826596
33,13,16,Jits_ISO_5,3,5,80,127,1659847152
33,13,16,Jits_ISO_5,0,5,80,127,1660287308
33,13,16,Jits_ISO_5,1,1,48,48,1660321588
33,13,16,Jits_ISO_5,2,5,63,98,1660336532
33,13,16,Jits_ISO_5,3,5,56,103,1660376344
33,13,16,Jits_ISO_5,0,5,56,103,1660787204
33,13,16,Jits_ISO_5,1,5,63,98,1660816656
33,13,16,Jits_ISO_5,2,1,48,52,1660845624
33,13,16,Jits_ISO_5,3,5,80,127,1660887548
33,13,16,Jits_ISO_5,0,5,56,103,1661286728
33,13,16,Jits_ISO_5,1,1,48,49,1661309032
33,13,16,Jits_ISO_5,2,5,80,127,1661347188
33,13,16,Jits_ISO_5,3,5,63,98,1661376932
33,13,16,Jits_ISO_5,0,5,56,103,1661796740
33,13,16,Jits_ISO_5,1,5,63,98,1661807232
33,13,16,Jits_ISO_5,2,1,48,47,1661822040
33,13,16,Jits_ISO_5,3,5,80,127,1661847164
33,13,16,Jits_ISO_5,0,5,63,98,1662287120
33,13,16,Jits_ISO_5,1,1,48,44,1662322900
33,13,16,Jits_ISO_5,2,5,80,127,1662367132
33,13,16,Jits_ISO_5,3,5,56,103,1662377252
33,13,16,Jits_ISO_5,0,1,48,46,1662803224
33,13,16,Jits_ISO_5,1,5,63,98,1662837196
33,13,16,Jits_ISO_5,2,5,56,103,1662877132
33,13,16,Jits_ISO_5,3,5,80,127,1662880348
33,13,16,Jits_ISO_5,0,5,56,103,1663297072
33,13,16,Jits_ISO_5,1,5,63,98,1663307196
33,13,16,Jits_ISO_5,2,1,48,46,1663324780
33,13,16,Jits_ISO_5,3,5,80,127,1663346976
33,13,16,Jits_ISO_5,0,5,56,103,1663787304
33,13,16,Jits_ISO_5,1,5,63,98,1663790296
33,13,16,Jits_ISO_5,2,5,80,127,1663807084
33,13,16,Jits_ISO_5,3,1,48,47,1663818000
33,13,16,Jits_ISO_5,0,5,80,127,1664297300
33,13,16,Jits_ISO_5,1,5,56,103,1664306524
33,13,16,Jits_ISO_5,2,1,48,47,1664316388
33,13,16,Jits_ISO_5,3,5,63,98,1664377168
33,13,16,Jits_ISO_5,0,5,63,98,1664787008
33,13,16,Jits_ISO_5,1,5,56,103,1664807316
33,13,16,Jits_ISO_5,2,1,48,49,1664832980
33,13,16,Jits_ISO_5,3,5,80,127,1664887024
33,13,16,Jits_ISO_5,0,5,56,103,1665297000
33,13,16,Jits_ISO_5,1,1,48,51,1665305072
33,13,16,Jits_ISO_5,2,5,80,127,1665336708
33,13,16,Jits_ISO_5,3,5,63,98,1665347352
33,13,16,Jits_ISO_5,0,1,48,49,1665768020
33,13,16,Jits_ISO_5,1,5,80,127,1665787148
33,13,16,Jits_ISO_5,2,5,63,98,1665816900
33,13,16,Jits_ISO_5,3,5,56,103,1665856836
33,13,16,Jits_ISO_5,0,1,48,52,1666255840
33,13,16,Jits_ISO_5,1,5,56,103,1666306436
33,13,16,Jits_ISO_5,2,5,63,98,1666337232
33,13,16,Jits_ISO_5,3,5,80,127,1666387340
33,13,16,Jits_ISO_5,0,1,48,53,1666788392
33,13,16,Jits_ISO_5,1,5,80,127,1666807144
33,13,16,Jits_ISO_5,2,5,56,103,1666847156
33,13,16,Jits_ISO_5,3,5,63,98,1666857200
33,13,16,Jits_ISO_5,0,5,80,127,1667287328
33,13,16,Jits_ISO_5,1,1,48,49,1667305212
33,13,16,Jits_ISO_5,2,5,63,98,1667327408
33,13,16,Jits_ISO_5,3,5,56,103,1667386824
33,13,16,Jits_ISO_5,0,5,56,103,1667787148
33,13,16,Jits_ISO_5,1,1,48,51,1667797420
33,13,16,Jits_ISO_5,2,5,80,127,1667799064
33,13,16,Jits_ISO_5,3,5,63,98,1667877204
33,13,16,Jits_ISO_5,0,5,80,127,1668286796
33,13,16,Jits_ISO_5,1,1,48,53,1668302000
33,13,16,Jits_ISO_5,2,5,63,98,1668347204
33,13,16,Jits_ISO_5,3,5,56,103,1668376804
33,13,16,Jits_ISO_5,0,5,56,103,1668786472
33,13,16,Jits_ISO_5,1,1,48,48,1668797232
33,13,16,Jits_ISO_5,2,5,80,127,1668846952
33,13,16,Jits_ISO_5,3,5,63,98,1668886888
33,13,16,Jits_ISO_5,0,1,48,51,1669331456
33,13,16,Jits_ISO_5,1,5,56,103,1669336284
33,13,16,Jits_ISO_5,2,5,63,98,1669346852
33,13,16,Jits_ISO_5,3,5,80,127,1669349992
33,13,16,Jits_ISO_5,0,5,80,127,1669787064
33,13,16,Jits_ISO_5,1,1,48,57,1669836584
33,13,16,Jits_ISO_5,2,5,63,98,1669877064
33,13,16,Jits_ISO_5,3,5,56,103,1669887484
33,13,16,Jits_ISO_5,0,5,56,103,1670286872
33,13,16,Jits_ISO_5,1,5,63,98,1670289972
33,13,16,Jits_ISO_5,2,5,80,127,1670293016
33,13,16,Jits_ISO_5,3,1,48,51,1670320716
33,13,16,Jits_ISO_5,0,1,48,44,1670797372
33,13,16,Jits_ISO_5,1,5,80,127,1670806760
33,13,16,Jits_ISO_5,2,5,63,98,1670857136
33,13,16,Jits_ISO_5,3,5,56,103,1670886808
33,13,16,Jits_ISO_5,0,5,56,103,1671287096
33,13,16,Jits_ISO_5,1,1,48,48,1671291708
33,13,16,Jits_ISO_5,2,5,80,127,1671297660
33,13,16,Jits_ISO_5,3,5,63,98,1671366988
33,13,16,Jits_ISO_5,0,1,48,44,1671783728
33,13,16,Jits_ISO_5,1,5,56,103,1671797096
33,13,16,Jits_ISO_5,2,5,63,98,1671816732
33,13,16,Jits_ISO_5,3,5,80,127,1671876924
33,13,16,Jits_ISO_5,0,1,48,43,1672256124
33,13,16,Jits_ISO_5,1,5,80,127,1672286788
33,13,16,Jits_ISO_5,2,5,63,98,1672357204
33,13,16,Jits_ISO_5,3,5,56,103,1672376616
33,13,16,Jits_ISO_5,0,1,48,45,1672790836
33,13,16,Jits_ISO_5,1,5,80,127,1672806680
33,13,16,Jits_ISO_5,2,5,56,103,1672816876
33,13,16,Jits_ISO_5,3,5,63,98,1672827216
33,13,16,Jits_ISO_5,0,5,80,127,1673297200
33,13,16,Jits_ISO_5,1,1,48,50,1673298688
33,13,16,Jits_ISO_5,2,5,56,103,1673316680
33,13,16,Jits_ISO_5,3,5,63,98,1673387476
33,13,16,Jits_ISO_5,0,5,56,103,1673807360
33,13,16,Jits_ISO_5,1,1,48,50,1673816404
33,13,16,Jits_ISO_5,2,5,80,127,1673836876
33,13,16,Jits_ISO_5,3,5,63,98,1673857560
33,13,16,Jits_ISO_5,0,5,63,98,1674296692
33,13,16,Jits_ISO_5,1,1,48,48,1674318172
33,13,16,Jits_ISO_5,2,5,56,103,1674357076
33,13,16,Jits_ISO_5,3,5,80,127,1674386748
33,13,16,Jits_ISO_5,0,5,63,98,1674787056
33,13,16,Jits_ISO_5,1,5,80,127,1674790424
33,13,16,Jits_ISO_5,2,1,48,45,1674791392
33,13,16,Jits_ISO_5,3,5,56,103,1674877256
33,13,16,Jits_ISO_5,0,1,48,47,1675278208
33,13,16,Jits_ISO_5,1,5,56,103,1675307304
33,13,16,Jits_ISO_5,2,5,63,98,1675337128
33,13,16,Jits_ISO_5,3,5,80,127,1675377124
33,13,16,Jits_ISO_5,0,1,48,54,1675787684
33,13,16,Jits_ISO_5,1,5,63,98,1675807188
33,13,16,Jits_ISO_5,2,5,56,103,1675847052
33,13,16,Jits_ISO_5,3,5,80,127,1675866388
33,13,16,Jits_ISO_5,0,1,48,49,1676271080
33,13,16,Jits_ISO_5,1,5,63,98,1676317184
33,13,16,Jits_ISO_5,2,5,56,103,1676357124
33,13,16,Jits_ISO_5,3,5,80,127,1676367392
33,13,16,Jits_ISO_5,0,1,48,52,1676785432
33,13,16,Jits_ISO_5,1,5,80,127,1676797516
33,13,16,Jits_ISO_5,2,5,63,98,1676866900
33,13,16,Jits_ISO_5,3,5,56,103,1676887492
33,13,16,Jits_ISO_5,0,5,56,103,1677286704
33,13,16,Jits_ISO_5,1,1,48,50,1677301576
33,13,16,Jits_ISO_5,2,5,80,127,1677307452
33,13,16,Jits_ISO_5,3,5,63,98,1677347388
33,13,16,Jits_ISO_5,0,1,48,44,1677777052
33,13,16,Jits_ISO_5,1,5,63,98,1677796632
33,13,16,Jits_ISO_5,2,5,80,127,1677817312
33,13,16,Jits_ISO_5,3,5,56,103,1677857320
33,13,16,Jits_ISO_5,0,1,48,46,1678274960
33,13,16,Jits_ISO_5,1,5,63,98,1678296632
33,13,16,Jits_ISO_5,2,5,56,103,1678316868
33,13,16,Jits_ISO_5,3,5,80,127,1678327436
33,13,16,Jits_ISO_5,0,1,48,48,1678781172
33,13,16,Jits_ISO_5,1,5,80,127,1678797332
33,13,16,Jits_ISO_5,2,5,56,103,1678816596
33,13,16,Jits_ISO_5,3,5,63,98,1678847316
33,13,16,Jits_ISO_5,0,1,48,43,1679270636
33,13,16,Jits_ISO_5,1,5,56,103,1679366516
33,13,16,Jits_ISO_5,2,5,80,127,1679370464
33,13,16,Jits_ISO_5,3,5,63,98,1679386956
33,13,16,Jits_ISO_5,0,5,63,98,1679787484
33,13,16,Jits_ISO_5,1,5,56,103,1679817256
33,13,16,Jits_ISO_5,2,1,48,38,1679828844
33,13,16,Jits_ISO_5,3,5,80,127,1679876444
33,13,16,Jits_ISO_5,0,1,48,38,1680280360
33,13,16,Jits_ISO_5,1,5,63,98,1680366948
33,13,16,Jits_ISO_5,2,5,56,103,1680377144
33,13,16,Jits_ISO_5,3,5,80,127,1680386500
33,13,16,Jits_ISO_5,0,5,56,103,1680816544
33,13,16,Jits_ISO_5,1,1,48,41,1680845624
33,13,16,Jits_ISO_5,2,5,80,127,1680847356
33,13,16,Jits_ISO_5,3,5,63,98,1680856284
33,13,16,Jits_ISO_5,0,1,48,44,1681352080
33,13,16,Jits_ISO_5,1,5,63,98,1681357280
33,13,16,Jits_ISO_5,2,5,56,103,1681367404
33,13,16,Jits_ISO_5,3,5,80,127,1681386812
33,13,16,Jits_ISO_5,0,5,56,103,1681787392
33,13,16,Jits_ISO_5,1,1,48,48,1681837040
33,13,16,Jits_ISO_5,2,5,63,98,1681846728
33,13,16,Jits_ISO_5,3,5,80,127,1681849944
33,13,16,Jits_ISO_5,0,1,48,47,1682301848
33,13,16,Jits_ISO_5,1,5,80,127,1682306456
33,13,16,Jits_ISO_5,2,5,56,103,1682316800
33,13,16,Jits_ISO_5,3,5,63,98,1682387324
33,13,16,Jits_ISO_5,0,5,80,127,1682797204
33,13,16,Jits_ISO_5,1,1,48,47,1682852164
33,13,16,Jits_ISO_5,2,5,56,103,1682866504
33,13,16,Jits_ISO_5,3,5,63,98,1682877072
33,13,16,Jits_ISO_5,0,5,63,98,1683336512
33,13,16,Jits_ISO_5,1,5,56,103,1683346932
33,13,16,Jits_ISO_5,2,1,48,51,1683367464
33,13,16,Jits_ISO_5,3,5,80,127,1683369180
33,13,16,Jits_ISO_5,0,5,80,127,1683787320
33,13,16,Jits_ISO_5,1,1,48,43,1683823100
33,13,16,Jits_ISO_5,2,5,63,98,1683846580
33,13,16,Jits_ISO_5,3,5,56,103,1683886592
33,13,16,Jits_ISO_5,0,1,48,50,1684312500
33,13,16,Jits_ISO_5,1,5,56,103,1684326768
33,13,16,Jits_ISO_5,2,5,63,98,1684337336
33,13,16,Jits_ISO_5,3,5,80,127,1684377124
33,13,16,Jits_ISO_5,0,5,56,103,1684786652
33,13,16,Jits_ISO_5,1,1,48,55,1684789244
33,13,16,Jits_ISO_5,2,5,80,127,1684817292
33,13,16,Jits_ISO_5,3,5,63,98,1684866372
33,13,16,Jits_ISO_5,0,1,48,54,1685294240
33,13,16,Jits_ISO_5,1,5,56,103,1685327220
33,13,16,Jits_ISO_5,2,5,63,98,1685367084
33,13,16,Jits_ISO_5,3,5,80,127,1685370520
33,13,16,Jits_ISO_5,0,1,48,60,1685825132
33,13,16,Jits_ISO_5,1,5,56,103,1685826948
33,13,16,Jits_ISO_5,2,5,63,98,1685837292
33,13,16,Jits_ISO_5,3,5,80,127,1685856556
33,13,16,Jits_ISO_5,0,5,56,103,1686286828
33,13,16,Jits_ISO_5,1,5,80,127,1686289744
33,13,16,Jits_ISO_5,2,5,63,98,1686326764
33,13,16,Jits_ISO_5,3,1,48,56,1686333024
33,13,16,Jits_ISO_5,0,1,48,50,1686798292
33,13,16,Jits_ISO_5,1,5,63,98,1686827240
33,13,16,Jits_ISO_5,2,5,56,103,1686857360
33,13,16,Jits_ISO_5,3,5,80,127,1686876472
33,13,16,Jits_ISO_5,0,5,80,127,1687297384
33,13,16,Jits_ISO_5,1,5,56,103,1687306608
33,13,16,Jits_ISO_5,2,1,48,49,1687309200
33,13,16,Jits_ISO_5,3,5,63,98,1687317096
33,13,16,Jits_ISO_5,0,5,56,103,1687797200
33,13,16,Jits_ISO_5,1,1,48,53,1687798168
33,13,16,Jits_ISO_5,2,5,80,127,1687837280
33,13,16,Jits_ISO_5,3,5,63,98,1687867028
33,13,16,Jits_ISO_5,0,5,63,98,1688307060
33,13,16,Jits_ISO_5,1,1,48,48,1688308400
33,13,16,Jits_ISO_5,2,5,80,127,1688317252
33,13,16,Jits_ISO_5,3,5,56,103,1688326472
33,13,16,Jits_ISO_5,0,5,56,103,1688787312
33,13,16,Jits_ISO_5,1,1,48,51,1688807820
33,13,16,Jits_ISO_5,2,5,63,98,1688856912
33,13,16,Jits_ISO_5,3,5,80,127,1688867180
33,13,16,Jits_ISO_5,0,5,80,127,1689287060
33,13,16,Jits_ISO_5,1,5,56,103,1689297404
33,13,16,Jits_ISO_5,2,1,48,51,1689304116
33,13,16,Jits_ISO_5,3,5,63,98,1689346476
33,13,16,Jits_ISO_5,0,1,48,49,1689783060
33,13,16,Jits_ISO_5,1,5,80,127,1689796832
33,13,16,Jits_ISO_5,2,5,56,103,1689857448
33,13,16,Jits_ISO_5,3,5,63,98,1689887032
33,13,16,Jits_ISO_5,0,5,56,103,1690296924
33,13,16,Jits_ISO_5,1,1,48,46,1690299988
33,13,16,Jits_ISO_5,2,5,80,127,1690301324
33,13,16,Jits_ISO_5,3,5,63,98,1690336652
33,13,16,Jits_ISO_5,0,1,48,47,1690813320
33,13,16,Jits_ISO_5,1,5,56,103,1690827164
33,13,16,Jits_ISO_5,2,5,63,98,1690856916
33,13,16,Jits_ISO_5,3,5,80,127,1690867184
33,13,16,Jits_ISO_5,0,1,48,46,1691332640
33,13,16,Jits_ISO_5,1,5,63,98,1691337164
33,13,16,Jits_ISO_5,2,5,80,127,1691347360
33,13,16,Jits_ISO_5,3,5,56,103,1691356656
33,13,16,Jits_ISO_5,0,5,80,127,1691786832
33,13,16,Jits_ISO_5,1,1,48,48,1691834748
33,13,16,Jits_ISO_5,2,5,56,103,1691836720
33,13,16,Jits_ISO_5,3,5,63,98,1691839792
33,13,16,Jits_ISO_5,0,5,56,103,1692316984
33,13,16,Jits_ISO_5,1,1,48,47,1692328572
33,13,16,Jits_ISO_5,2,5,80,127,1692336688
33,13,16,Jits_ISO_5,3,5,63,98,1692346956
33,13,16,Jits_ISO_5,0,5,63,98,1692797252
33,13,16,Jits_ISO_5,1,1,48,47,1692802760
33,13,16,Jits_ISO_5,2,5,56,103,1692827068
33,13,16,Jits_ISO_5,3,5,80,127,1692846476
33,13,16,Jits_ISO_5,0,5,56,103,1693307244
33,13,16,Jits_ISO_5,1,1,48,51,1693308140
33,13,16,Jits_ISO_5,2,5,80,127,1693316464
33,13,16,Jits_ISO_5,3,5,63,98,1693387060
33,13,16,Jits_ISO_5,0,5,63,98,1693796876
33,13,16,Jits_ISO_5,1,1,48,50,1693831156
33,13,16,Jits_ISO_5,2,5,80,127,1693836884
33,13,16,Jits_ISO_5,3,5,56,103,1693876672
33,13,16,Jits_ISO_5,0,1,48,46,1694288560
33,13,16,Jits_ISO_5,1,5,56,103,1694306720
33,13,16,Jits_ISO_5,2,5,63,98,1694316768
33,13,16,Jits_ISO_5,3,5,80,127,1694337448
33,13,16,Jits_ISO_5,0,1,48,44,1694764252
33,13,16,Jits_ISO_5,1,5,63,98,1694847280
33,13,16,Jits_ISO_5,2,5,80,127,1694866824
33,13,16,Jits_ISO_5,3,5,56,103,1694887136
33,13,16,Jits_ISO_5,0,5,56,103,1695286636
33,13,16,Jits_ISO_5,1,1,48,47,1695324900
33,13,16,Jits_ISO_5,2,5,80,127,1695366796
33,13,16,Jits_ISO_5,3,5,63,98,1695376844
33,13,16,Jits_ISO_5,0,5,80,127,1695827516
33,13,16,Jits_ISO_5,1,5,63,98,1695836664
33,13,16,Jits_ISO_5,2,1,48,46,1695837704
33,13,16,Jits_ISO_5,3,5,56,103,1695867228
33,13,16,Jits_ISO_5,0,5,63,98,1696286960
33,13,16,Jits_ISO_5,1,1,48,50,1696323856
33,13,16,Jits_ISO_5,2,5,80,127,1696326964
33,13,16,Jits_ISO_5,3,5,56,103,1696386528
33,13,16,Jits_ISO_5,0,5,63,98,1696797024
33,13,16,Jits_ISO_5,1,1,48,52,1696816184
33,13,16,Jits_ISO_5,2,5,56,103,1696847220
33,13,16,Jits_ISO_5,3,5,80,127,1696876968
33,13,16,Jits_ISO_5,0,1,48,53,1697306196
33,13,16,Jits_ISO_5,1,5,80,127,1697308068
33,13,16,Jits_ISO_5,2,5,63,98,1697317288
33,13,16,Jits_ISO_5,3,5,56,103,1697386888
33,13,16,Jits_ISO_5,0,1,48,55,1697805976
33,13,16,Jits_ISO_5,1,5,80,127,1697877548
33,13,16,Jits_ISO_5,2,5,56,103,1697886696
33,13,16,Jits_ISO_5,3,5,63,98,1697889612
33,13,16,Jits_ISO_5,0,5,56,103,1698316748
33,13,16,Jits_ISO_5,1,5,80,127,1698337060
33,13,16,Jits_ISO_5,2,5,63,98,1698347628
33,13,16,Jits_ISO_5,3,1,48,55,1698348668
33,13,16,Jits_ISO_5,0,5,63,98,1698826688
33,13,16,Jits_ISO_5,1,1,48,56,1698833392
33,13,16,Jits_ISO_5,2,5,56,103,1698866692
33,13,16,Jits_ISO_5,3,5,80,127,1698887000
33,13,16,Jits_ISO_5,0,5,63,98,1699327688
33,13,16,Jits_ISO_5,1,1,48,51,1699332976
33,13,16,Jits_ISO_5,2,5,56,103,1699386728
33,13,16,Jits_ISO_5,3,5,80,127,1699389792
33,13,16,Jits_ISO_5,0,5,56,103,1699787188
33,13,16,Jits_ISO_5,1,5,80,127,1699806528
33,13,16,Jits_ISO_5,2,1,48,50,1699822224
33,13,16,Jits_ISO_5,3,5,63,98,1699846456
33,13,16,Jits_ISO_5,0,1,48,53,1700292140
33,13,16,Jits_ISO_5,1,5,56,103,1700316524
33,13,16,Jits_ISO_5,2,5,63,98,1700336908
33,13,16,Jits_ISO_5,3,5,80,127,1700347100
33,13,16,Jits_ISO_5,0,1,48,54,1700786492
33,13,16,Jits_ISO_5,1,5,80,127,1700788128
33,13,16,Jits_ISO_5,2,5,56,103,1700817604
33,13,16,Jits_ISO_5,3,5,63,98,1700857464
33,13,16,Jits_ISO_5,0,5,80,127,1701296488
33,13,16,Jits_ISO_5,1,5,56,103,1701316968
33,13,16,Jits_ISO_5,2,1,48,57,1701336204
33,13,16,Jits_ISO_5,3,5,63,98,1701377576
33,13,16,Jits_ISO_5,0,5,56,103,1701806644
33,13,16,Jits_ISO_5,1,1,48,46,1701822796
33,13,16,Jits_ISO_5,2,5,80,127,1701826972
33,13,16,Jits_ISO_5,3,5,63,98,1701887432
33,13,16,Jits_ISO_5,0,5,80,127,1702286616
33,13,16,Jits_ISO_5,1,5,56,103,1702296812
33,13,16,Jits_ISO_5,2,1,48,50,1702331912
33,13,16,Jits_ISO_5,3,5,63,98,1702336812
33,13,16,Jits_ISO_5,0,5,63,98,1702786404
33,13,16,Jits_ISO_5,1,5,56,103,1702827460
33,13,16,Jits_ISO_5,2,1,48,49,1702829124
33,13,16,Jits_ISO_5,3,5,80,127,1702831864
33,13,16,Jits_ISO_5,0,5,63,98,1703306648
33,13,16,Jits_ISO_5,1,1,48,45,1703318312
33,13,16,Jits_ISO_5,2,5,80,127,1703346580
33,13,16,Jits_ISO_5,3,5,56,103,1703377476
33,13,16,Jits_ISO_5,0,5,56,103,1703797092
33,13,16,Jits_ISO_5,1,1,48,45,1703804844
33,13,16,Jits_ISO_5,2,5,63,98,1703807432
33,13,16,Jits_ISO_5,3,5,80,127,1703837180
33,13,16,Jits_ISO_5,0,5,80,127,1704286428
33,13,16,Jits_ISO_5,1,1,48,49,1704294180
33,13,16,Jits_ISO_5,2,5,63,98,1704357372
33,13,16,Jits_ISO_5,3,5,56,103,1704366372
33,13,16,Jits_ISO_5,0,5,63,98,1704787296
33,13,16,Jits_ISO_5,1,1,48,42,1704792584
33,13,16,Jits_ISO_5,2,5,56,103,1704856820
33,13,16,Jits_ISO_5,3,5,80,127,1704867312
33,13,16,Jits_ISO_5,0,5,63,98,1705287252
33,13,16,Jits_ISO_5,1,5,56,103,1705306364
33,13,16,Jits_ISO_5,2,1,48,45,1705314512
33,13,16,Jits_ISO_5,3,5,80,127,1705346368
33,13,16,Jits_ISO_5,0,1,48,45,1705784704
33,13,16,Jits_ISO_5,1,5,56,103,1705796860
33,13,16,Jits_ISO_5,2,5,63,98,1705807208
33,13,16,Jits_ISO_5,3,5,80,127,1705887352
33,13,16,Jits_ISO_5,0,1,48,49,1706264412
33,13,16,Jits_ISO_5,1,5,63,98,1706286476
33,13,16,Jits_ISO_5,2,5,56,103,1706317272
33,13,16,Jits_ISO_5,3,5,80,127,1706357872
33,13,16,Jits_ISO_5,0,1,48,48,1706783620
33,13,16,Jits_ISO_5,1,5,56,103,1706787404
33,13,16,Jits_ISO_5,2,5,63,98,1706827268
33,13,16,Jits_ISO_5,3,5,80,127,1706867276
33,13,16,Jits_ISO_5,0,1,48,47,1707280140
33,13,16,Jits_ISO_5,1,5,80,127,1707286836
33,13,16,Jits_ISO_5,2,5,56,103,1707366704
33,13,16,Jits_ISO_5,3,5,63,98,1707377048
33,13,16,Jits_ISO_5,0,5,56,103,1707826428
33,13,16,Jits_ISO_5,1,5,63,98,1707829648
33,13,16,Jits_ISO_5,2,1,48,49,1707833212
33,13,16,Jits_ISO_5,3,5,80,127,1707836844
33,13,16,Jits_ISO_5,0,1,48,48,1708298868
33,13,16,Jits_ISO_5,1,5,56,103,1708346620
33,13,16,Jits_ISO_5,2,5,63,98,1708367300
33,13,16,Jits_ISO_5,3,5,80,127,1708376452
33,13,16,Jits_ISO_5,0,5,63,98,1708806504
33,13,16,Jits_ISO_5,1,5,80,127,1708816772
33,13,16,Jits_ISO_5,2,5,56,103,1708837304
33,13,16,Jits_ISO_5,3,1,48,47,1708838272
33,13,16,Jits_ISO_5,0,5,63,98,1709307204
33,13,16,Jits_ISO_5,1,1,48,44,1709323428
33,13,16,Jits_ISO_5,2,5,56,103,1709387212
33,13,16,Jits_ISO_5,3,5,80,127,1709390280
33,13,16,Jits_ISO_5,0,5,63,98,1709807076
33,13,16,Jits_ISO_5,1,5,56,103,1709826340
33,13,16,Jits_ISO_5,2,1,48,48,1709835080
33,13,16,Jits_ISO_5,3,5,80,127,1709857204
33,13,16,Jits_ISO_5,0,1,48,48,1710298464
33,13,16,Jits_ISO_5,1,5,56,103,1710306728
33,13,16,Jits_ISO_5,2,5,63,98,1710327112
33,13,16,Jits_ISO_5,3,5,80,127,1710337460
33,13,16,Jits_ISO_5,0,1,48,47,1710802980
33,13,16,Jits_ISO_5,1,5,56,103,1710837028
33,13,16,Jits_ISO_5,2,5,63,98,1710866848
33,13,16,Jits_ISO_5,3,5,80,127,1710870064
33,13,16,Jits_ISO_5,0,5,56,103,1711286684
33,13,16,Jits_ISO_5,1,1,48,47,1711301364
33,13,16,Jits_ISO_5,2,5,63,98,1711326716
33,13,16,Jits_ISO_5,3,5,80,127,1711387028
33,13,16,Jits_ISO_5,0,1,48,49,1711798392
33,13,16,Jits_ISO_5,1,5,56,103,1711806952
33,13,16,Jits_ISO_5,2,5,63,98,1711817296
33,13,16,Jits_ISO_5,3,5,80,127,1711876412
33,13,16,Jits_ISO_5,0,1,48,47,1712306140
33,13,16,Jits_ISO_5,1,5,56,103,1712307932
33,13,16,Jits_ISO_5,2,5,80,127,1712326924
33,13,16,Jits_ISO_5,3,5,63,98,1712356744
33,13,16,Jits_ISO_5,0,1,48,49,1712793772
33,13,16,Jits_ISO_5,1,5,80,127,1712807216
33,13,16,Jits_ISO_5,2,5,56,103,1712816440
33,13,16,Jits_ISO_5,3,5,63,98,1712837144
33,13,16,Jits_ISO_5,0,1,48,54,1713293940
33,13,16,Jits_ISO_5,1,5,63,98,1713296900
33,13,16,Jits_ISO_5,2,5,80,127,1713376720
33,13,16,Jits_ISO_5,3,5,56,103,1713386840
33,13,16,Jits_ISO_5,0,1,48,51,1713818112
33,13,16,Jits_ISO_5,1,5,80,127,1713856896
33,13,16,Jits_ISO_5,2,5,56,103,1713877500
33,13,16,Jits_ISO_5,3,5,63,98,1713880568
33,13,16,Jits_ISO_5,0,5,63,98,1714326860
33,13,16,Jits_ISO_5,1,5,80,127,1714330152
33,13,16,Jits_ISO_5,2,1,48,54,1714343828
33,13,16,Jits_ISO_5,3,5,56,103,1714387264
33,13,16,Jits_ISO_5,0,5,56,103,1714807256
33,13,16,Jits_ISO_5,1,5,80,127,1714817304
33,13,16,Jits_ISO_5,2,1,48,53,1714845672
33,13,16,Jits_ISO_5,3,5,63,98,1714857236
33,13,16,Jits_ISO_5,0,5,56,103,1715287376
33,13,16,Jits_ISO_5,1,1,48,51,1715318736
33,13,16,Jits_ISO_5,2,5,63,98,1715346932
33,13,16,Jits_ISO_5,3,5,80,127,1715356980
33,13,16,Jits_ISO_5,0,5,63,98,1715797308
33,13,16,Jits_ISO_5,1,1,48,52,1715810768
33,13,16,Jits_ISO_5,2,5,80,127,1715837240
33,13,16,Jits_ISO_5,3,5,56,103,1715877176
33,13,16,Jits_ISO_5,0,5,56,103,1716297040
33,13,16,Jits_ISO_5,1,1,48,57,1716335004
33,13,16,Jits_ISO_5,2,5,63,98,1716376824
33,13,16,Jits_ISO_5,3,5,80,127,1716380492
33,13,16,Jits_ISO_5,0,9999,9999,9999,1657074788
33,13,16,Jits_ISO_5,1,9999,9999,9999,1657574508
33,13,16,Jits_ISO_5,2,9999,9999,9999,1658074176
33,13,16,Jits_ISO_5,3,9999,9999,9999,1658574936
33,13,16,Jits_ISO_5,4,9999,9999,9999,1659074616
33,13,16,Jits_ISO_5,5,9999,9999,9999,1659574348
33,13,16,Jits_ISO_5,6,9999,9999,9999,1660075124
33,13,16,Jits_ISO_5,7,9999,9999,9999,1660585060
33,13,16,Jits_ISO_5,8,9999,9999,9999,1661084736
33,13,16,Jits_ISO_5,9,9999,9999,9999,1661584484
33,13,16,Jits_ISO_5,10,9999,9999,9999,1662084152
33,13,16,Jits_ISO_5,11,9999,9999,9999,1662584948
33,13,16,Jits_ISO_5,12,9999,9999,9999,1663084604
33,13,16,Jits_ISO_5,13,9999,9999,9999,1663584336
33,13,16,Jits_ISO_5,14,9999,9999,9999,1664085116
33,13,16,Jits_ISO_5,15,9999,9999,9999,1664584792
33,13,16,Jits_ISO_5,16,9999,9999,9999,1665084536
33,13,16,Jits_ISO_5,17,9999,9999,9999,1665584192
33,13,16,Jits_ISO_5,18,9999,9999,9999,1666084984
33,13,16,Jits_ISO_5,19,9999,9999,9999,1666584644
33,13,16,Jits_ISO_5,20,9999,9999,9999,1667084376
33,13,16,Jits_ISO_5,21,9999,9999,9999,1667584108
33,13,16,Jits_ISO_5,22,9999,9999,9999,1668084824
33,13,16,Jits_ISO_5,23,9999,9999,9999,1668584500
33,13,16,Jits_ISO_5,24,9999,9999,9999,1669084248
33,13,16,Jits_ISO_5,25,9999,9999,9999,1669584960
33,13,16,Jits_ISO_5,26,9999,9999,9999,1670084696
33,13,16,Jits_ISO_5,27,9999,9999,9999,1670584392
33,13,16,Jits_ISO_5,28,9999,9999,9999,1671084144
33,13,16,Jits_ISO_5,29,9999,9999,9999,1671584848
33,13,16,Jits_ISO_5,30,9999,9999,9999,1672084592
33,13,16,Jits_ISO_5,31,9999,9999,9999,1672584252
33,13,16,Jits_ISO_5,32,9999,9999,9999,1673085028
33,13,16,Jits_ISO_5,33,9999,9999,9999,1673584764
33,13,16,Jits_ISO_5,34,9999,9999,9999,1674084436
33,13,16,Jits_ISO_5,35,9999,9999,9999,1674584184
33,13,16,Jits_ISO_5,36,9999,9999,9999,1675084876
33,13,16,Jits_ISO_5,37,9999,9999,9999,1675584612
33,13,16,Jits_ISO_5,38,9999,9999,9999,1676084348
33,13,16,Jits_ISO_5,39,9999,9999,9999,1676585056
33,13,16,Jits_ISO_5,40,9999,9999,9999,1677084792
33,13,16,Jits_ISO_5,41,9999,9999,9999,1677584452
33,13,16,Jits_ISO_5,42,9999,9999,9999,1678084200
33,13,16,Jits_ISO_5,43,9999,9999,9999,1678584948
33,13,16,Jits_ISO_5,44,9999,9999,9999,1679084604
33,13,16,Jits_ISO_5,45,9999,9999,9999,1679584336
33,13,16,Jits_ISO_5,46,9999,9999,9999,1680085112
33,13,16,Jits_ISO_5,47,9999,9999,9999,1680584772
33,13,16,Jits_ISO_5,48,9999,9999,9999,1681084480
33,13,16,Jits_ISO_5,49,9999,9999,9999,1681584220
33,13,16,Jits_ISO_5,50,9999,9999,9999,1682084988
33,13,16,Jits_ISO_5,51,9999,9999,9999,1682584660
33,13,16,Jits_ISO_5,52,9999,9999,9999,1683084396
33,13,16,Jits_ISO_5,53,9999,9999,9999,1683584072
33,13,16,Jits_ISO_5,54,9999,9999,9999,1684084852
33,13,16,Jits_ISO_5,55,9999,9999,9999,1684584524
33,13,16,Jits_ISO_5,56,9999,9999,9999,1685084256
33,13,16,Jits_ISO_5,57,9999,9999,9999,1685584968
33,13,16,Jits_ISO_5,58,9999,9999,9999,1686084704
33,13,16,Jits_ISO_5,59,9999,9999,9999,1686584420
33,13,16,Jits_ISO_5,60,9999,9999,9999,1687084096
33,13,16,Jits_ISO_5,61,9999,9999,9999,1687584872
33,13,16,Jits_ISO_5,62,9999,9999,9999,1688084540
33,13,16,Jits_ISO_5,63,9999,9999,9999,1688584284
33,13,16,Jits_ISO_5,64,9999,9999,9999,1689084992
33,13,16,Jits_ISO_5,65,9999,9999,9999,1689584732
33,13,16,Jits_ISO_5,66,9999,9999,9999,1690084408
33,13,16,Jits_ISO_5,67,9999,9999,9999,1690584124
33,13,16,Jits_ISO_5,68,9999,9999,9999,1691084920
33,13,16,Jits_ISO_5,69,9999,9999,9999,1691584632
33,13,16,Jits_ISO_5,70,9999,9999,9999,1692084276
33,13,16,Jits_ISO_5,71,9999,9999,9999,1692585068
33,13,16,Jits_ISO_5,72,9999,9999,9999,1693084736
33,13,16,Jits_ISO_5,73,9999,9999,9999,1693584472
33,13,16,Jits_ISO_5,74,9999,9999,9999,1694084220
33,13,16,Jits_ISO_5,75,9999,9999,9999,1694584924
33,13,16,Jits_ISO_5,76,9999,9999,9999,1695084660
33,13,16,Jits_ISO_5,77,9999,9999,9999,1695584320
33,13,16,Jits_ISO_5,78,9999,9999,9999,1696085112
33,13,16,Jits_ISO_5,79,9999,9999,9999,1696584784
33,13,16,Jits_ISO_5,80,9999,9999,9999,1697084516
33,13,16,Jits_ISO_5,81,9999,9999,9999,1697584252
33,13,16,Jits_ISO_5,82,9999,9999,9999,1698084952
33,13,16,Jits_ISO_5,83,9999,9999,9999,1698584684
33,13,16,Jits_ISO_5,84,9999,9999,9999,1699084360
33,13,16,Jits_ISO_5,85,9999,9999,9999,1699584088
33,13,16,Jits_ISO_5,86,9999,9999,9999,1700084792
33,13,16,Jits_ISO_5,87,9999,9999,9999,1700584536
33,13,16,Jits_ISO_5,88,9999,9999,9999,1701084268
33,13,16,Jits_ISO_5,89,9999,9999,9999,1701584972
33,13,16,Jits_ISO_5,90,9999,9999,9999,1702084720
33,13,16,Jits_ISO_5,91,9999,9999,9999,1702584412
33,13,16,Jits_ISO_5,92,9999,9999,9999,1703084144
33,13,16,Jits_ISO_5,93,9999,9999,9999,1703584848
33,13,16,Jits_ISO_5,94,9999,9999,9999,1704084580
33,13,16,Jits_ISO_5,95,9999,9999,9999,1704584256
33,13,16,Jits_ISO_5,96,9999,9999,9999,1705085048
33,13,16,Jits_ISO_5,97,9999,9999,9999,1705584700
33,13,16,Jits_ISO_5,98,9999,9999,9999,1706084432
33,13,16,Jits_ISO_5,99,9999,9999,9999,1706584160
33,13,16,Jits_ISO_5,100,9999,9999,9999,1707084864
33,13,16,Jits_ISO_5,101,9999,9999,9999,1707584600
33,13,16,Jits_ISO_5,102,9999,9999,9999,1708084320
33,13,16,Jits_ISO_5,103,9999,9999,9999,1708585044
33,13,16,Jits_ISO_5,104,9999,9999,9999,1709084772
33,13,16,Jits_ISO_5,105,9999,9999,9999,1709584500
33,13,16,Jits_ISO_5,106,9999,9999,9999,1710084156
33,13,16,Jits_ISO_5,107,9999,9999,9999,1710584932
33,13,16,Jits_ISO_5,108,9999,9999,9999,1711084656
33,13,16,Jits_ISO_5,109,9999,9999,9999,1711584316
33,13,16,Jits_ISO_5,110,9999,9999,9999,1712085080
33,13,16,Jits_ISO_5,111,9999,9999,9999,1712584816
33,13,16,Jits_ISO_5,112,9999,9999,9999,1713084520
33,13,16,Jits_ISO_5,113,9999,9999,9999,1713584248
33,13,16,Jits_ISO_5,114,9999,9999,9999,1714084948
33,13,16,Jits_ISO_5,115,9999,9999,9999,1714584676
33,13,16,Jits_ISO_5,116,9999,9999,9999,1715084408
33,13,16,Jits_ISO_5,117,9999,9999,9999,1715584080
33,13,16,Jits_ISO_5,118,9999,9999,9999,1716084800
33,13,16,Jits_ISO_5,119,9999,9999,9999,1716584524
33,14,7,Jits_ISO_8,0,5,56,103,1741387112
33,14,7,Jits_ISO_8,1,5,63,98,1741390208
33,14,7,Jits_ISO_8,2,5,80,127,1741393480
33,14,7,Jits_ISO_8,0,5,56,103,1742186888
33,14,7,Jits_ISO_8,1,5,63,98,1742189908
33,14,7,Jits_ISO_8,2,5,80,127,1742192956
33,14,7,Jits_ISO_8,0,5,80,127,1742927188
33,14,7,Jits_ISO_8,1,5,63,98,1743017620
33,14,7,Jits_ISO_8,2,5,56,103,1743026696
33,14,7,Jits_ISO_8,0,5,56,103,1743746388
33,14,7,Jits_ISO_8,1,5,63,98,1743756732
33,14,7,Jits_ISO_8,2,5,80,127,1743846816
33,14,7,Jits_ISO_8,0,1,48,43,1744515376
33,14,7,Jits_ISO_8,1,5,63,98,1744516948
33,14,7,Jits_ISO_8,2,5,80,127,1744547228
33,14,7,Jits_ISO_8,3,5,56,103,1744576780
33,14,7,Jits_ISO_8,0,1,48,45,1745246432
33,14,7,Jits_ISO_8,1,5,56,103,1745317328
33,14,7,Jits_ISO_8,2,5,80,127,1745416668
33,14,7,Jits_ISO_8,3,5,63,98,1745466720
33,14,7,Jits_ISO_8,0,1,48,40,1746058252
33,14,7,Jits_ISO_8,1,5,56,103,1746116964
33,14,7,Jits_ISO_8,2,5,80,127,1746167524
33,14,7,Jits_ISO_8,3,5,63,98,1746207164
33,14,7,Jits_ISO_8,0,1,48,41,1746889220
33,14,7,Jits_ISO_8,1,5,80,127,1746946488
33,14,7,Jits_ISO_8,2,5,63,98,1746977284
33,14,7,Jits_ISO_8,3,5,56,103,1747046652
33,14,7,Jits_ISO_8,0,1,48,47,1747770284
33,14,7,Jits_ISO_8,1,5,63,98,1747776984
33,14,7,Jits_ISO_8,2,5,56,103,1747806512
33,14,7,Jits_ISO_8,3,5,80,127,1747866976
33,14,7,Jits_ISO_8,0,5,56,103,1748517360
33,14,7,Jits_ISO_8,1,5,80,127,1748520276
33,14,7,Jits_ISO_8,2,1,48,43,1748550368
33,14,7,Jits_ISO_8,3,5,63,98,1748637004
33,14,7,Jits_ISO_8,0,1,48,43,1749355704
33,14,7,Jits_ISO_8,1,5,56,103,1749396932
33,14,7,Jits_ISO_8,2,5,80,127,1749436652
33,14,7,Jits_ISO_8,3,5,63,98,1749447244
33,14,7,Jits_ISO_8,0,5,56,103,1750156652
33,14,7,Jits_ISO_8,1,5,80,127,1750177260
33,14,7,Jits_ISO_8,2,1,48,51,1750202324
33,14,7,Jits_ISO_8,3,5,63,98,1750257296
33,14,7,Jits_ISO_8,0,5,80,127,1750947232
33,14,7,Jits_ISO_8,1,1,48,45,1750992104
33,14,7,Jits_ISO_8,2,5,56,103,1751046456
33,14,7,Jits_ISO_8,3,5,63,98,1751056724
33,14,7,Jits_ISO_8,0,5,63,98,1751717216
33,14,7,Jits_ISO_8,1,5,80,127,1751776588
33,14,7,Jits_ISO_8,2,5,56,103,1751787008
33,14,7,Jits_ISO_8,3,1,48,44,1751790656
33,14,7,Jits_ISO_8,0,1,48,48,1752497712
33,14,7,Jits_ISO_8,1,5,56,103,1752517016
33,14,7,Jits_ISO_8,2,5,63,98,1752586472
33,14,7,Jits_ISO_8,3,5,80,127,1752589840
33,14,7,Jits_ISO_8,0,1,48,44,1753287844
33,14,7,Jits_ISO_8,1,5,63,98,1753346312
33,14,7,Jits_ISO_8,2,5,56,103,1753396572
33,14,7,Jits_ISO_8,3,5,80,127,1753399712
33,14,7,Jits_ISO_8,0,1,48,44,1754061676
33,14,7,Jits_ISO_8,1,5,56,103,1754107188
33,14,7,Jits_ISO_8,2,5,80,127,1754110328
33,14,7,Jits_ISO_8,3,5,63,98,1754197304
33,14,7,Jits_ISO_8,0,1,48,45,1754903396
33,14,7,Jits_ISO_8,1,5,63,98,1754947116
33,14,7,Jits_ISO_8,2,5,56,103,1755037012
33,14,7,Jits_ISO_8,3,5,80,127,1755066836
33,14,7,Jits_ISO_8,0,5,56,103,1755736424
33,14,7,Jits_ISO_8,1,1,48,41,1755764032
33,14,7,Jits_ISO_8,2,5,63,98,1755836744
33,14,7,Jits_ISO_8,3,5,80,127,1755866476
33,14,7,Jits_ISO_8,0,5,63,98,1756556580
33,14,7,Jits_ISO_8,1,5,56,103,1756567148
33,14,7,Jits_ISO_8,2,1,48,44,1756592592
33,14,7,Jits_ISO_8,3,5,80,127,1756657148
33,14,7,Jits_ISO_8,0,1,48,46,1757319320
33,14,7,Jits_ISO_8,1,5,63,98,1757376912
33,14,7,Jits_ISO_8,2,5,56,103,1757456988
33,14,7,Jits_ISO_8,3,5,80,127,1757459980
33,14,7,Jits_ISO_8,0,5,80,127,1758136888
33,14,7,Jits_ISO_8,1,1,48,45,1758147980
33,14,7,Jits_ISO_8,2,5,63,98,1758157216
33,14,7,Jits_ISO_8,3,5,56,103,1758216708
33,14,7,Jits_ISO_8,0,1,48,50,1758930236
33,14,7,Jits_ISO_8,1,5,56,103,1758977388
33,14,7,Jits_ISO_8,2,5,63,98,1758996948
33,14,7,Jits_ISO_8,3,5,80,127,1759000240
33,14,7,Jits_ISO_8,0,5,63,98,1759717008
33,14,7,Jits_ISO_8,1,1,48,49,1759750324
33,14,7,Jits_ISO_8,2,5,80,127,1759796728
33,14,7,Jits_ISO_8,3,5,56,103,1759806924
33,14,7,Jits_ISO_8,0,1,48,50,1760490228
33,14,7,Jits_ISO_8,1,5,63,98,1760536860
33,14,7,Jits_ISO_8,2,5,56,103,1760557472
33,14,7,Jits_ISO_8,3,5,80,127,1760606612
33,14,7,Jits_ISO_8,0,1,48,53,1761292480
33,14,7,Jits_ISO_8,1,5,80,127,1761336868
33,14,7,Jits_ISO_8,2,5,63,98,1761376732
33,14,7,Jits_ISO_8,3,5,56,103,1761397252
33,14,7,Jits_ISO_8,0,1,48,50,1762116244
33,14,7,Jits_ISO_8,1,5,56,103,1762177332
33,14,7,Jits_ISO_8,2,5,63,98,1762186780
33,14,7,Jits_ISO_8,3,5,80,127,1762207016
33,14,7,Jits_ISO_8,0,5,56,103,1762906544
33,14,7,Jits_ISO_8,1,1,48,46,1762943888
33,14,7,Jits_ISO_8,2,5,63,98,1762996672
33,14,7,Jits_ISO_8,3,5,80,127,1763056924
33,14,7,Jits_ISO_8,0,5,80,127,1763736836
33,14,7,Jits_ISO_8,1,1,48,47,1763742568
33,14,7,Jits_ISO_8,2,5,56,103,1763747324
33,14,7,Jits_ISO_8,3,5,63,98,1763816804
33,14,7,Jits_ISO_8,0,1,48,52,1764558880
33,14,7,Jits_ISO_8,1,5,63,98,1764567668
33,14,7,Jits_ISO_8,2,5,80,127,1764656520
33,14,7,Jits_ISO_8,3,5,56,103,1764666716
33,14,7,Jits_ISO_8,0,5,63,98,1765306752
33,14,7,Jits_ISO_8,1,5,80,127,1765356904
33,14,7,Jits_ISO_8,2,1,48,54,1765409468
33,14,7,Jits_ISO_8,3,5,56,103,1765417212
33,14,7,Jits_ISO_8,0,1,48,51,1766125036
33,14,7,Jits_ISO_8,1,5,56,103,1766137192
33,14,7,Jits_ISO_8,2,5,80,127,1766187248
33,14,7,Jits_ISO_8,3,5,63,98,1766206956
33,14,7,Jits_ISO_8,0,5,56,103,1766907228
33,14,7,Jits_ISO_8,1,1,48,50,1766941064
33,14,7,Jits_ISO_8,2,5,80,127,1766966792
33,14,7,Jits_ISO_8,3,5,63,98,1767037296
33,14,7,Jits_ISO_8,0,5,56,103,1767706876
33,14,7,Jits_ISO_8,1,5,80,127,1767736628
33,14,7,Jits_ISO_8,2,1,48,51,1767753752
33,14,7,Jits_ISO_8,3,5,63,98,1767767492
33,14,7,Jits_ISO_8,0,1,48,53,1768512392
33,14,7,Jits_ISO_8,1,5,56,103,1768546668
33,14,7,Jits_ISO_8,2,5,80,127,1768567204
33,14,7,Jits_ISO_8,3,5,63,98,1768626608
33,14,7,Jits_ISO_8,0,1,48,50,1769322292
33,14,7,Jits_ISO_8,1,5,80,127,1769427452
33,14,7,Jits_ISO_8,2,5,56,103,1769436528
33,14,7,Jits_ISO_8,3,5,63,98,1769446648
33,14,7,Jits_ISO_8,0,1,48,48,1770170864
33,14,7,Jits_ISO_8,1,5,56,103,1770187396
33,14,7,Jits_ISO_8,2,5,80,127,1770227484
33,14,7,Jits_ISO_8,3,5,63,98,1770256716
33,14,7,Jits_ISO_8,0,5,56,103,1770957300
33,14,7,Jits_ISO_8,1,5,63,98,1770986828
33,14,7,Jits_ISO_8,2,1,48,46,1770989796
33,14,7,Jits_ISO_8,3,5,80,127,1771026756
33,14,7,Jits_ISO_8,0,5,80,127,1771706652
33,14,7,Jits_ISO_8,1,1,48,46,1771738420
33,14,7,Jits_ISO_8,2,5,63,98,1771756872
33,14,7,Jits_ISO_8,3,5,56,103,1771777556
33,14,7,Jits_ISO_8,0,1,48,49,1772516924
33,14,7,Jits_ISO_8,1,5,56,103,1772537328
33,14,7,Jits_ISO_8,2,5,80,127,1772606792
33,14,7,Jits_ISO_8,3,5,63,98,1772667312
33,14,7,Jits_ISO_8,0,5,80,127,1773336892
33,14,7,Jits_ISO_8,1,1,48,52,1773380096
33,14,7,Jits_ISO_8,2,5,63,98,1773427172
33,14,7,Jits_ISO_8,3,5,56,103,1773446436
33,14,7,Jits_ISO_8,0,5,63,98,1774157296
33,14,7,Jits_ISO_8,1,5,56,103,1774176488
33,14,7,Jits_ISO_8,2,1,48,45,1774202224
33,14,7,Jits_ISO_8,3,5,80,127,1774216420
33,14,7,Jits_ISO_8,0,5,80,127,1774916920
33,14,7,Jits_ISO_8,1,5,63,98,1774936484
33,14,7,Jits_ISO_8,2,1,48,51,1774982896
33,14,7,Jits_ISO_8,3,5,56,103,1775017392
33,14,7,Jits_ISO_8,0,5,63,98,1775706376
33,14,7,Jits_ISO_8,1,1,48,45,1775775808
33,14,7,Jits_ISO_8,2,5,56,103,1775817204
33,14,7,Jits_ISO_8,3,5,80,127,1775820344
33,14,7,Jits_ISO_8,0,5,63,98,1776526604
33,14,7,Jits_ISO_8,1,1,48,49,1776530168
33,14,7,Jits_ISO_8,2,5,56,103,1776537164
33,14,7,Jits_ISO_8,3,5,80,127,1776540228
33,14,7,Jits_ISO_8,0,1,48,56,1777252756
33,14,7,Jits_ISO_8,1,5,56,103,1777307032
33,14,7,Jits_ISO_8,2,5,80,127,1777426848
33,14,7,Jits_ISO_8,3,5,63,98,1777466788
33,14,7,Jits_ISO_8,0,1,48,53,1778114996
33,14,7,Jits_ISO_8,1,5,56,103,1778127300
33,14,7,Jits_ISO_8,2,5,80,127,1778207172
33,14,7,Jits_ISO_8,3,5,63,98,1778226496
33,14,7,Jits_ISO_8,0,5,56,103,1778927092
33,14,7,Jits_ISO_8,1,1,48,58,1778985288
33,14,7,Jits_ISO_8,2,5,63,98,1779036552
33,14,7,Jits_ISO_8,3,5,80,127,1779040064
33,14,7,Jits_ISO_8,0,1,48,55,1779751944
33,14,7,Jits_ISO_8,1,5,56,103,1779757292
33,14,7,Jits_ISO_8,2,5,80,127,1779787116
33,14,7,Jits_ISO_8,3,5,63,98,1779806532
33,14,7,Jits_ISO_8,0,1,48,48,1780525660
33,14,7,Jits_ISO_8,1,5,63,98,1780536696
33,14,7,Jits_ISO_8,2,5,56,103,1780547116
33,14,7,Jits_ISO_8,3,5,80,127,1780557164
33,14,7,Jits_ISO_8,0,1,48,56,1781241892
33,14,7,Jits_ISO_8,1,5,80,127,1781327188
33,14,7,Jits_ISO_8,2,5,56,103,1781377376
33,14,7,Jits_ISO_8,3,5,63,98,1781417240
33,14,7,Jits_ISO_8,0,1,48,50,1782141476
33,14,7,Jits_ISO_8,1,5,80,127,1782146304
33,14,7,Jits_ISO_8,2,5,63,98,1782167136
33,14,7,Jits_ISO_8,3,5,56,103,1782217212
33,14,7,Jits_ISO_8,0,1,48,49,1782910092
33,14,7,Jits_ISO_8,1,5,80,127,1782957324
33,14,7,Jits_ISO_8,2,5,56,103,1782987100
33,14,7,Jits_ISO_8,3,5,63,98,1783056836
33,14,7,Jits_ISO_8,0,1,48,47,1783744132
33,14,7,Jits_ISO_8,1,5,56,103,1783807256
33,14,7,Jits_ISO_8,2,5,80,127,1783816556
33,14,7,Jits_ISO_8,3,5,63,98,1783856404
33,14,7,Jits_ISO_8,0,5,56,103,1784517068
33,14,7,Jits_ISO_8,1,5,63,98,1784536404
33,14,7,Jits_ISO_8,2,1,48,49,1784573304
33,14,7,Jits_ISO_8,3,5,80,127,1784607052
33,14,7,Jits_ISO_8,0,1,48,46,1785276972
33,14,7,Jits_ISO_8,1,5,63,98,1785337308
33,14,7,Jits_ISO_8,2,5,80,127,1785396640
33,14,7,Jits_ISO_8,3,5,56,103,1785416952
33,14,7,Jits_ISO_8,0,1,48,48,1786104608
33,14,7,Jits_ISO_8,1,5,80,127,1786126900
33,14,7,Jits_ISO_8,2,5,56,103,1786157548
33,14,7,Jits_ISO_8,3,5,63,98,1786187072
33,14,7,Jits_ISO_8,0,5,56,103,1786926680
33,14,7,Jits_ISO_8,1,1,48,55,1786930848
33,14,7,Jits_ISO_8,2,5,63,98,1786986772
33,14,7,Jits_ISO_8,3,5,80,127,1787047220
33,14,7,Jits_ISO_8,0,1,48,53,1787716640
33,14,7,Jits_ISO_8,1,5,80,127,1787746780
33,14,7,Jits_ISO_8,2,5,56,103,1787767016
33,14,7,Jits_ISO_8,3,5,63,98,1787836856
33,14,7,Jits_ISO_8,0,5,80,127,1788546496
33,14,7,Jits_ISO_8,1,1,48,54,1788547388
33,14,7,Jits_ISO_8,2,5,63,98,1788566948
33,14,7,Jits_ISO_8,3,5,56,103,1788596700
33,14,7,Jits_ISO_8,0,5,80,127,1789336852
33,14,7,Jits_ISO_8,1,1,48,56,1789348964
33,14,7,Jits_ISO_8,2,5,63,98,1789357456
33,14,7,Jits_ISO_8,3,5,56,103,1789416748
33,14,7,Jits_ISO_8,0,1,48,55,1790125460
33,14,7,Jits_ISO_8,1,5,80,127,1790136568
33,14,7,Jits_ISO_8,2,5,56,103,1790237028
33,14,7,Jits_ISO_8,3,5,63,98,1790266776
33,14,7,Jits_ISO_8,0,5,63,98,1790927072
33,14,7,Jits_ISO_8,1,1,48,54,1790957616
33,14,7,Jits_ISO_8,2,5,80,127,1790977640
33,14,7,Jits_ISO_8,3,5,56,103,1790996756
33,14,7,Jits_ISO_8,0,1,48,52,1791720972
33,14,7,Jits_ISO_8,1,5,80,127,1791766932
33,14,7,Jits_ISO_8,2,5,56,103,1791796608
33,14,7,Jits_ISO_8,3,5,63,98,1791799600
33,14,7,Jits_ISO_8,0,1,48,48,1792518048
33,14,7,Jits_ISO_8,1,5,63,98,1792597496
33,14,7,Jits_ISO_8,2,5,56,103,1792637344
33,14,7,Jits_ISO_8,3,5,80,127,1792656684
33,14,7,Jits_ISO_8,0,5,80,127,1793336828
33,14,7,Jits_ISO_8,1,1,48,50,1793383548
33,14,7,Jits_ISO_8,2,5,63,98,1793416692
33,14,7,Jits_ISO_8,3,5,56,103,1793456484
33,14,7,Jits_ISO_8,0,5,63,98,1794157004
33,14,7,Jits_ISO_8,1,1,48,52,1794224096
33,14,7,Jits_ISO_8,2,5,80,127,1794236896
33,14,7,Jits_ISO_8,3,5,56,103,1794257428
33,14,7,Jits_ISO_8,0,1,48,53,1794972336
33,14,7,Jits_ISO_8,1,5,56,103,1794996572
33,14,7,Jits_ISO_8,2,5,63,98,1795006716
33,14,7,Jits_ISO_8,3,5,80,127,1795046656
33,14,7,Jits_ISO_8,0,5,56,103,1795716420
33,14,7,Jits_ISO_8,1,5,80,127,1795719564
33,14,7,Jits_ISO_8,2,1,48,54,1795731600
33,14,7,Jits_ISO_8,3,5,63,98,1795856748
33,14,7,Jits_ISO_8,0,5,56,103,1796507360
33,14,7,Jits_ISO_8,1,5,63,98,1796597228
33,14,7,Jits_ISO_8,2,1,48,55,1796609340
33,14,7,Jits_ISO_8,3,5,80,127,1796666676
33,14,7,Jits_ISO_8,0,1,48,57,1797365076
33,14,7,Jits_ISO_8,1,5,63,98,1797386600
33,14,7,Jits_ISO_8,2,5,80,127,1797390184
33,14,7,Jits_ISO_8,3,5,56,103,1797446912
33,14,7,Jits_ISO_8,0,1,48,54,1798161024
33,14,7,Jits_ISO_8,1,5,80,127,1798227436
33,14,7,Jits_ISO_8,2,5,56,103,1798246628
33,14,7,Jits_ISO_8,3,5,63,98,1798258300
33,14,7,Jits_ISO_8,0,5,56,103,1798937100
33,14,7,Jits_ISO_8,1,5,63,98,1798947444
33,14,7,Jits_ISO_8,2,1,48,51,1798989004
33,14,7,Jits_ISO_8,3,5,80,127,1799016748
33,14,7,Jits_ISO_8,0,1,48,14,1799702464
33,14,7,Jits_ISO_8,1,1,48,28,1799706952
33,14,7,Jits_ISO_8,2,5,80,127,1799736648
33,14,7,Jits_ISO_8,3,5,56,103,1799786852
33,14,7,Jits_ISO_8,4,5,63,98,1799837188
33,14,7,Jits_ISO_8,0,1,48,54,1800546840
33,14,7,Jits_ISO_8,1,5,56,103,1800617292
33,14,7,Jits_ISO_8,2,5,63,98,1800626516
33,14,7,Jits_ISO_8,3,5,80,127,1800666464
33,14,7,Jits_ISO_8,0,5,56,103,1801356628
33,14,7,Jits_ISO_8,1,1,48,58,1801394520
33,14,7,Jits_ISO_8,2,5,63,98,1801396564
33,14,7,Jits_ISO_8,3,5,80,127,1801446936
33,14,7,Jits_ISO_8,0,5,80,127,1802116424
33,14,7,Jits_ISO_8,1,5,56,103,1802166776
33,14,7,Jits_ISO_8,2,1,48,57,1802179508
33,14,7,Jits_ISO_8,3,5,63,98,1802187176
33,14,7,Jits_ISO_8,0,1,48,54,1802900596
33,14,7,Jits_ISO_8,1,5,80,127,1802926400
33,14,7,Jits_ISO_8,2,5,63,98,1802986968
33,14,7,Jits_ISO_8,3,5,56,103,1803066744
33,14,7,Jits_ISO_8,0,5,80,127,1803706956
33,14,7,Jits_ISO_8,1,5,56,103,1803746600
33,14,7,Jits_ISO_8,2,5,63,98,1803767280
33,14,7,Jits_ISO_8,3,1,48,52,1803791972
33,14,7,Jits_ISO_8,0,1,48,55,1804554452
33,14,7,Jits_ISO_8,1,5,56,103,1804556568
33,14,7,Jits_ISO_8,2,5,80,127,1804566988
33,14,7,Jits_ISO_8,3,5,63,98,1804606852
33,14,7,Jits_ISO_8,0,1,48,53,1805335048
33,14,7,Jits_ISO_8,1,5,56,103,1805426924
33,14,7,Jits_ISO_8,2,5,63,98,1805467072
33,14,7,Jits_ISO_8,3,5,80,127,1805470212
33,14,7,Jits_ISO_8,0,5,63,98,1806117100
33,14,7,Jits_ISO_8,1,5,80,127,1806157188
33,14,7,Jits_ISO_8,2,1,48,54,1806170424
33,14,7,Jits_ISO_8,3,5,56,103,1806227012
33,14,7,Jits_ISO_8,0,5,63,98,1806907040
33,14,7,Jits_ISO_8,1,1,48,54,1806942968
33,14,7,Jits_ISO_8,2,5,56,103,1806986756
33,14,7,Jits_ISO_8,3,5,80,127,1807047156
33,14,7,Jits_ISO_8,0,5,80,127,1807716864
33,14,7,Jits_ISO_8,1,1,48,51,1807736920
33,14,7,Jits_ISO_8,2,5,63,98,1807766984
33,14,7,Jits_ISO_8,3,5,56,103,1807796884
33,14,7,Jits_ISO_8,0,5,56,103,1808507216
33,14,7,Jits_ISO_8,1,1,48,56,1808555980
33,14,7,Jits_ISO_8,2,5,63,98,1808557788
33,14,7,Jits_ISO_8,3,5,80,127,1808566788
33,14,7,Jits_ISO_8,0,5,56,103,1809317124
33,14,7,Jits_ISO_8,1,1,48,54,1809331256
33,14,7,Jits_ISO_8,2,5,63,98,1809426968
33,14,7,Jits_ISO_8,3,5,80,127,1809447280
33,14,7,Jits_ISO_8,0,5,63,98,1810116952
33,14,7,Jits_ISO_8,1,5,80,127,1810167080
33,14,7,Jits_ISO_8,2,1,48,54,1810178740
33,14,7,Jits_ISO_8,3,5,56,103,1810257204
33,14,7,Jits_ISO_8,0,5,63,98,1810906468
33,14,7,Jits_ISO_8,1,5,80,127,1810937120
33,14,7,Jits_ISO_8,2,1,48,51,1810950276
33,14,7,Jits_ISO_8,3,5,56,103,1811027244
33,14,7,Jits_ISO_8,0,5,63,98,1811707220
33,14,7,Jits_ISO_8,1,5,56,103,1811716744
33,14,7,Jits_ISO_8,2,1,48,54,1811744204
33,14,7,Jits_ISO_8,3,5,80,127,1811816908
33,14,7,Jits_ISO_8,0,1,48,51,1812522096
33,14,7,Jits_ISO_8,1,5,63,98,1812607316
33,14,7,Jits_ISO_8,2,5,80,127,1812637052
33,14,7,Jits_ISO_8,3,5,56,103,1812666828
33,14,7,Jits_ISO_8,0,1,48,62,1813412616
33,14,7,Jits_ISO_8,1,5,80,127,1813426660
33,14,7,Jits_ISO_8,2,5,63,98,1813436880
33,14,7,Jits_ISO_8,3,5,56,103,1813466780
33,14,7,Jits_ISO_8,0,5,80,127,1814127108
33,14,7,Jits_ISO_8,1,5,63,98,1814146672
33,14,7,Jits_ISO_8,2,5,56,103,1814196648
33,14,7,Jits_ISO_8,3,1,48,57,1814215160
33,14,7,Jits_ISO_8,0,1,48,57,1814922372
33,14,7,Jits_ISO_8,1,5,63,98,1814957616
33,14,7,Jits_ISO_8,2,5,80,127,1815016896
33,14,7,Jits_ISO_8,3,5,56,103,1815037432
33,14,7,Jits_ISO_8,0,5,63,98,1815717400
33,14,7,Jits_ISO_8,1,5,56,103,1815767704
33,14,7,Jits_ISO_8,2,5,80,127,1815776632
33,14,7,Jits_ISO_8,3,1,48,64,1815801544
33,14,7,Jits_ISO_8,0,5,56,103,1816546652
33,14,7,Jits_ISO_8,1,1,48,59,1816549400
33,14,7,Jits_ISO_8,2,5,80,127,1816556844
33,14,7,Jits_ISO_8,3,5,63,98,1816657372
33,14,7,Jits_ISO_8,0,5,80,127,1817306592
33,14,7,Jits_ISO_8,1,5,63,98,1817316864
33,14,7,Jits_ISO_8,2,1,48,46,1817383208
33,14,7,Jits_ISO_8,3,5,56,103,1817467372
33,14,7,Jits_ISO_8,0,5,63,98,1818116356
33,14,7,Jits_ISO_8,1,5,80,127,1818157420
33,14,7,Jits_ISO_8,2,1,48,50,1818192372
33,14,7,Jits_ISO_8,3,5,56,103,1818237280
33,14,7,Jits_ISO_8,0,5,56,103,1818906920
33,14,7,Jits_ISO_8,1,1,48,45,1818988480
33,14,7,Jits_ISO_8,2,5,80,127,1819007536
33,14,7,Jits_ISO_8,3,5,63,98,1819026800
33,14,7,Jits_ISO_8,0,1,48,50,1819756212
33,14,7,Jits_ISO_8,1,5,80,127,1819767248
33,14,7,Jits_ISO_8,2,5,56,103,1819777444
33,14,7,Jits_ISO_8,3,5,63,98,1819866464
33,14,7,Jits_ISO_8,0,1,48,55,1820535248
33,14,7,Jits_ISO_8,1,5,56,103,1820567332
33,14,7,Jits_ISO_8,2,5,63,98,1820587348
33,14,7,Jits_ISO_8,3,5,80,127,1820667228
33,14,7,Jits_ISO_8,0,1,48,50,1821298772
33,14,7,Jits_ISO_8,1,5,63,98,1821316404
33,14,7,Jits_ISO_8,2,5,56,103,1821406620
33,14,7,Jits_ISO_8,3,5,80,127,1821409764
33,14,7,Jits_ISO_8,0,1,48,49,1822095176
33,14,7,Jits_ISO_8,1,5,56,103,1822147068
33,14,7,Jits_ISO_8,2,5,80,127,1822207300
33,14,7,Jits_ISO_8,3,5,63,98,1822216524
33,14,7,Jits_ISO_8,0,1,48,52,1822913180
33,14,7,Jits_ISO_8,1,5,80,127,1822996980
33,14,7,Jits_ISO_8,2,5,56,103,1823007400
33,14,7,Jits_ISO_8,3,5,63,98,1823010388
33,14,7,Jits_ISO_8,0,1,48,47,1823720904
33,14,7,Jits_ISO_8,1,5,56,103,1823756600
33,14,7,Jits_ISO_8,2,5,80,127,1823766868
33,14,7,Jits_ISO_8,3,5,63,98,1823787404
33,14,7,Jits_ISO_8,0,1,48,53,1824508700
33,14,7,Jits_ISO_8,1,5,63,98,1824526636
33,14,7,Jits_ISO_8,2,5,80,127,1824587324
33,14,7,Jits_ISO_8,3,5,56,103,1824637288
33,14,7,Jits_ISO_8,0,1,48,50,1825358912
33,14,7,Jits_ISO_8,1,5,63,98,1825407336
33,14,7,Jits_ISO_8,2,5,56,103,1825416784
33,14,7,Jits_ISO_8,3,5,80,127,1825466992
33,14,7,Jits_ISO_8,0,5,63,98,1826106884
33,14,7,Jits_ISO_8,1,5,80,127,1826127196
33,14,7,Jits_ISO_8,2,5,56,103,1826136344
33,14,7,Jits_ISO_8,3,1,48,56,1826181108
33,14,7,Jits_ISO_8,0,5,63,98,1826906432
33,14,7,Jits_ISO_8,1,5,80,127,1826909648
33,14,7,Jits_ISO_8,2,1,48,50,1826916972
33,14,7,Jits_ISO_8,3,5,56,103,1826946364
33,14,7,Jits_ISO_8,0,1,48,51,1827699796
33,14,7,Jits_ISO_8,1,5,63,98,1827777092
33,14,7,Jits_ISO_8,2,5,80,127,1827806532
33,14,7,Jits_ISO_8,3,5,56,103,1827817100
33,14,7,Jits_ISO_8,0,1,48,53,1828525836
33,14,7,Jits_ISO_8,1,5,56,103,1828527480
33,14,7,Jits_ISO_8,2,5,80,127,1828557108
33,14,7,Jits_ISO_8,3,5,63,98,1828587004
33,14,7,Jits_ISO_8,0,1,48,49,1829310172
33,14,7,Jits_ISO_8,1,5,63,98,1829426472
33,14,7,Jits_ISO_8,2,5,56,103,1829466560
33,14,7,Jits_ISO_8,3,5,80,127,1829469480
33,14,7,Jits_ISO_8,0,5,80,127,1830127080
33,14,7,Jits_ISO_8,1,1,48,52,1830155680
33,14,7,Jits_ISO_8,2,5,56,103,1830206796
33,14,7,Jits_ISO_8,3,5,63,98,1830257132
33,14,7,Jits_ISO_8,0,5,80,127,1830907176
33,14,7,Jits_ISO_8,1,5,56,103,1830926960
33,14,7,Jits_ISO_8,2,1,48,44,1830960572
33,14,7,Jits_ISO_8,3,5,63,98,1831016788
33,14,7,Jits_ISO_8,0,1,48,48,1831719228
33,14,7,Jits_ISO_8,1,5,80,127,1831746900
33,14,7,Jits_ISO_8,2,5,63,98,1831786916
33,14,7,Jits_ISO_8,3,5,56,103,1831826916
33,14,7,Jits_ISO_8,0,5,63,98,1832516948
33,14,7,Jits_ISO_8,1,1,48,54,1832552352
33,14,7,Jits_ISO_8,2,5,80,127,1832577484
33,14,7,Jits_ISO_8,3,5,56,103,1832607012
33,14,7,Jits_ISO_8,0,1,48,51,1833290172
33,14,7,Jits_ISO_8,1,5,56,103,1833316652
33,14,7,Jits_ISO_8,2,5,80,127,1833346328
33,14,7,Jits_ISO_8,3,5,63,98,1833436768
33,14,7,Jits_ISO_8,0,1,48,52,1834120972
33,14,7,Jits_ISO_8,1,5,56,103,1834126924
33,14,7,Jits_ISO_8,2,5,80,127,1834237300
33,14,7,Jits_ISO_8,3,5,63,98,1834266976
33,14,7,Jits_ISO_8,0,5,56,103,1834976792
33,14,7,Jits_ISO_8,1,1,48,50,1834981708
33,14,7,Jits_ISO_8,2,5,63,98,1835037104
33,14,7,Jits_ISO_8,3,5,80,127,1835066856
33,14,7,Jits_ISO_8,0,5,56,103,1835746708
33,14,7,Jits_ISO_8,1,1,48,46,1835788416
33,14,7,Jits_ISO_8,2,5,63,98,1835817580
33,14,7,Jits_ISO_8,3,5,80,127,1835836920
33,14,7,Jits_ISO_8,0,5,80,127,1836516764
33,14,7,Jits_ISO_8,1,5,63,98,1836537148
33,14,7,Jits_ISO_8,2,1,48,48,1836544176
33,14,7,Jits_ISO_8,3,5,56,103,1836587496
33,14,7,Jits_ISO_8,0,9999,9999,9999,1741784180
33,14,7,Jits_ISO_8,1,9999,9999,9999,1742584928
33,14,7,Jits_ISO_8,2,9999,9999,9999,1743384644
33,14,7,Jits_ISO_8,3,9999,9999,9999,1744184440
33,14,7,Jits_ISO_8,4,9999,9999,9999,1744984132
33,14,7,Jits_ISO_8,5,9999,9999,9999,1745784940
33,14,7,Jits_ISO_8,6,9999,9999,9999,1746584644
33,14,7,Jits_ISO_8,7,9999,9999,9999,1747384424
33,14,7,Jits_ISO_8,8,9999,9999,9999,1748184156
33,14,7,Jits_ISO_8,9,9999,9999,9999,1748984900
33,14,7,Jits_ISO_8,10,9999,9999,9999,1749784632
33,14,7,Jits_ISO_8,11,9999,9999,9999,1750584416
33,14,7,Jits_ISO_8,12,9999,9999,9999,1751384144
33,14,7,Jits_ISO_8,13,9999,9999,9999,1752184916
33,14,7,Jits_ISO_8,14,9999,9999,9999,1752984684
33,14,7,Jits_ISO_8,15,9999,9999,9999,1753784384
33,14,7,Jits_ISO_8,16,9999,9999,9999,1754584172
33,14,7,Jits_ISO_8,17,9999,9999,9999,1755384932
33,14,7,Jits_ISO_8,18,9999,9999,9999,1756184696
33,14,7,Jits_ISO_8,19,9999,9999,9999,1756984420
33,14,7,Jits_ISO_8,20,9999,9999,9999,1757784128
33,14,7,Jits_ISO_8,21,9999,9999,9999,1758584956
33,14,7,Jits_ISO_8,22,9999,9999,9999,1759384676
33,14,7,Jits_ISO_8,23,9999,9999,9999,1760184384
33,14,7,Jits_ISO_8,24,9999,9999,9999,1760984188
33,14,7,Jits_ISO_8,25,9999,9999,9999,1761784944
33,14,7,Jits_ISO_8,26,9999,9999,9999,1762584652
33,14,7,Jits_ISO_8,27,9999,9999,9999,1763384432
33,14,7,Jits_ISO_8,28,9999,9999,9999,1764184152
33,14,7,Jits_ISO_8,29,9999,9999,9999,1764984932
33,14,7,Jits_ISO_8,30,9999,9999,9999,1765784636
33,14,7,Jits_ISO_8,31,9999,9999,9999,1766584420
33,14,7,Jits_ISO_8,32,9999,9999,9999,1767384144
33,14,7,Jits_ISO_8,33,9999,9999,9999,1768184908
33,14,7,Jits_ISO_8,34,9999,9999,9999,1768984628
33,14,7,Jits_ISO_8,35,9999,9999,9999,1769784420
33,14,7,Jits_ISO_8,36,9999,9999,9999,1770584136
33,14,7,Jits_ISO_8,37,9999,9999,9999,1771384892
33,14,7,Jits_ISO_8,38,9999,9999,9999,1772184684
33,14,7,Jits_ISO_8,39,9999,9999,9999,1772984412
33,14,7,Jits_ISO_8,40,9999,9999,9999,1773784144
33,14,7,Jits_ISO_8,41,9999,9999,9999,1774584912
33,14,7,Jits_ISO_8,42,9999,9999,9999,1775384692
33,14,7,Jits_ISO_8,43,9999,9999,9999,1776184404
33,14,7,Jits_ISO_8,44,9999,9999,9999,1776984172
33,14,7,Jits_ISO_8,45,9999,9999,9999,1777784932
33,14,7,Jits_ISO_8,46,9999,9999,9999,1778584644
33,14,7,Jits_ISO_8,47,9999,9999,9999,1779384420
33,14,7,Jits_ISO_8,48,9999,9999,9999,1780184168
33,14,7,Jits_ISO_8,49,9999,9999,9999,1780984916
33,14,7,Jits_ISO_8,50,9999,9999,9999,1781784628
33,14,7,Jits_ISO_8,51,9999,9999,9999,1782584412
33,14,7,Jits_ISO_8,52,9999,9999,9999,1783384124
33,14,7,Jits_ISO_8,53,9999,9999,9999,1784184884
33,14,7,Jits_ISO_8,54,9999,9999,9999,1784984664
33,14,7,Jits_ISO_8,55,9999,9999,9999,1785784388
33,14,7,Jits_ISO_8,56,9999,9999,9999,1786584188
33,14,7,Jits_ISO_8,57,9999,9999,9999,1787384944
33,14,7,Jits_ISO_8,58,9999,9999,9999,1788184668
33,14,7,Jits_ISO_8,59,9999,9999,9999,1788984372
33,14,7,Jits_ISO_8,60,9999,9999,9999,1789784172
33,14,7,Jits_ISO_8,61,9999,9999,9999,1790584924
33,14,7,Jits_ISO_8,62,9999,9999,9999,1791384628
33,14,7,Jits_ISO_8,63,9999,9999,9999,1792184408
33,14,7,Jits_ISO_8,64,9999,9999,9999,1792984140
33,14,7,Jits_ISO_8,65,9999,9999,9999,1793784900
33,14,7,Jits_ISO_8,66,9999,9999,9999,1794584700
33,14,7,Jits_ISO_8,67,9999,9999,9999,1795384412
33,14,7,Jits_ISO_8,68,9999,9999,9999,1796184184
33,14,7,Jits_ISO_8,69,9999,9999,9999,1796984952
33,14,7,Jits_ISO_8,70,9999,9999,9999,1797784672
33,14,7,Jits_ISO_8,71,9999,9999,9999,1798584392
33,14,7,Jits_ISO_8,72,9999,9999,9999,1799384120
33,14,7,Jits_ISO_8,73,9999,9999,9999,1800184948
33,14,7,Jits_ISO_8,74,9999,9999,9999,1800984684
33,14,7,Jits_ISO_8,75,9999,9999,9999,1801784396
33,14,7,Jits_ISO_8,76,9999,9999,9999,1802584120
33,14,7,Jits_ISO_8,77,9999,9999,9999,1803384892
33,14,7,Jits_ISO_8,78,9999,9999,9999,1804184668
33,14,7,Jits_ISO_8,79,9999,9999,9999,1804984388
33,14,7,Jits_ISO_8,80,9999,9999,9999,1805784120
33,14,7,Jits_ISO_8,81,9999,9999,9999,1806584920
33,14,7,Jits_ISO_8,82,9999,9999,9999,1807384628
33,14,7,Jits_ISO_8,83,9999,9999,9999,1808184412
33,14,7,Jits_ISO_8,84,9999,9999,9999,1808984128
33,14,7,Jits_ISO_8,85,9999,9999,9999,1809784904
33,14,7,Jits_ISO_8,86,9999,9999,9999,1810584700
33,14,7,Jits_ISO_8,87,9999,9999,9999,1811384428
33,14,7,Jits_ISO_8,88,9999,9999,9999,1812184132
33,14,7,Jits_ISO_8,89,9999,9999,9999,1812984896
33,14,7,Jits_ISO_8,90,9999,9999,9999,1813784688
33,14,7,Jits_ISO_8,91,9999,9999,9999,1814584392
33,14,7,Jits_ISO_8,92,9999,9999,9999,1815384120
33,14,7,Jits_ISO_8,93,9999,9999,9999,1816184948
33,14,7,Jits_ISO_8,94,9999,9999,9999,1816984656
33,14,7,Jits_ISO_8,95,9999,9999,9999,1817784404
33,14,7,Jits_ISO_8,96,9999,9999,9999,1818584128
33,14,7,Jits_ISO_8,97,9999,9999,9999,1819384884
33,14,7,Jits_ISO_8,98,9999,9999,9999,1820184684
33,14,7,Jits_ISO_8,99,9999,9999,9999,1820984396
33,14,7,Jits_ISO_8,100,9999,9999,9999,1821784176
33,14,7,Jits_ISO_8,101,9999,9999,9999,1822584932
33,14,7,Jits_ISO_8,102,9999,9999,9999,1823384636
33,14,7,Jits_ISO_8,103,9999,9999,9999,1824184444
33,14,7,Jits_ISO_8,104,9999,9999,9999,1824984152
33,14,7,Jits_ISO_8,105,9999,9999,9999,1825784916
33,14,7,Jits_ISO_8,106,9999,9999,9999,1826584692
33,14,7,Jits_ISO_8,107,9999,9999,9999,1827384380
33,14,7,Jits_ISO_8,108,9999,9999,9999,1828184164
33,14,7,Jits_ISO_8,109,9999,9999,9999,1828984916
33,14,7,Jits_ISO_8,110,9999,9999,9999,1829784632
33,14,7,Jits_ISO_8,111,9999,9999,9999,1830584444
33,14,7,Jits_ISO_8,112,9999,9999,9999,1831384164
33,14,7,Jits_ISO_8,113,9999,9999,9999,1832184940
33,14,7,Jits_ISO_8,114,9999,9999,9999,1832984648
33,14,7,Jits_ISO_8,115,9999,9999,9999,1833784432
33,14,7,Jits_ISO_8,116,9999,9999,9999,1834584148
33,14,7,Jits_ISO_8,117,9999,9999,9999,1835384908
33,14,7,Jits_ISO_8,118,9999,9999,9999,1836184640
33,14,7,Jits_ISO_8,119,9999,9999,9999,1836984384
33,15,17,Jits_Phase_5,0,5,56,103,1851002188
33,15,17,Jits_Phase_5,1,5,63,98,1851005512
33,15,17,Jits_Phase_5,2,5,80,127,1851008484
33,15,17,Jits_Phase_5,0,5,56,103,1851502044
33,15,17,Jits_Phase_5,1,5,63,98,1851505068
33,15,17,Jits_Phase_5,2,5,80,127,1851508192
33,15,17,Jits_Phase_5,0,5,56,103,1852001768
33,15,17,Jits_Phase_5,1,5,80,127,1852011816
33,15,17,Jits_Phase_5,2,5,63,98,1852032348
33,15,17,Jits_Phase_5,0,5,63,98,1852452124
33,15,17,Jits_Phase_5,1,5,80,127,1852482024
33,15,17,Jits_Phase_5,2,5,56,103,1852492220
33,15,17,Jits_Phase_5,0,1,48,48,1852960420
33,15,17,Jits_Phase_5,1,5,80,127,1853012360
33,15,17,Jits_Phase_5,2,5,56,103,1853021656
33,15,17,Jits_Phase_5,3,5,63,98,1853052228
33,15,17,Jits_Phase_5,0,1,48,50,1853484440
33,15,17,Jits_Phase_5,1,5,63,98,1853501924
33,15,17,Jits_Phase_5,2,5,56,103,1853531448
33,15,17,Jits_Phase_5,3,5,80,127,1853541940
33,15,17,Jits_Phase_5,0,5,56,103,1853952236
33,15,17,Jits_Phase_5,1,1,48,52,1853984420
33,15,17,Jits_Phase_5,2,5,63,98,1854001384
33,15,17,Jits_Phase_5,3,5,80,127,1854021988
33,15,17,Jits_Phase_5,0,5,80,127,1854452072
33,15,17,Jits_Phase_5,1,1,48,54,1854476912
33,15,17,Jits_Phase_5,2,5,63,98,1854502340
33,15,17,Jits_Phase_5,3,5,56,103,1854542276
33,15,17,Jits_Phase_5,0,5,56,103,1854951912
33,15,17,Jits_Phase_5,1,5,63,98,1854981660
33,15,17,Jits_Phase_5,2,1,48,54,1855000144
33,15,17,Jits_Phase_5,3,5,80,127,1855052156
33,15,17,Jits_Phase_5,0,5,56,103,1855451380
33,15,17,Jits_Phase_5,1,1,48,54,1855497868
33,15,17,Jits_Phase_5,2,5,80,127,1855511912
33,15,17,Jits_Phase_5,3,5,63,98,1855541732
33,15,17,Jits_Phase_5,0,5,56,103,1855961336
33,15,17,Jits_Phase_5,1,5,63,98,1855971900
33,15,17,Jits_Phase_5,2,1,48,50,1855987600
33,15,17,Jits_Phase_5,3,5,80,127,1856011832
33,15,17,Jits_Phase_5,0,5,63,98,1856451956
33,15,17,Jits_Phase_5,1,1,48,51,1856467432
33,15,17,Jits_Phase_5,2,5,80,127,1856531892
33,15,17,Jits_Phase_5,3,5,56,103,1856542012
33,15,17,Jits_Phase_5,0,1,48,44,1856979984
33,15,17,Jits_Phase_5,1,5,63,98,1857001744
33,15,17,Jits_Phase_5,2,5,56,103,1857041756
33,15,17,Jits_Phase_5,3,5,80,127,1857044748
33,15,17,Jits_Phase_5,0,5,56,103,1857461784
33,15,17,Jits_Phase_5,1,5,63,98,1857471832
33,15,17,Jits_Phase_5,2,5,80,127,1857511916
33,15,17,Jits_Phase_5,3,1,48,49,1857512956
33,15,17,Jits_Phase_5,0,5,56,103,1857962564
33,15,17,Jits_Phase_5,1,5,63,98,1857965632
33,15,17,Jits_Phase_5,2,1,48,46,1857980036
33,15,17,Jits_Phase_5,3,5,80,127,1857981844
33,15,17,Jits_Phase_5,0,1,48,46,1858457180
33,15,17,Jits_Phase_5,1,5,80,127,1858472496
33,15,17,Jits_Phase_5,2,5,56,103,1858481720
33,15,17,Jits_Phase_5,3,5,63,98,1858552156
33,15,17,Jits_Phase_5,0,5,63,98,1858961692
33,15,17,Jits_Phase_5,1,1,48,48,1858979040
33,15,17,Jits_Phase_5,2,5,56,103,1858982220
33,15,17,Jits_Phase_5,3,5,80,127,1859062108
33,15,17,Jits_Phase_5,0,5,56,103,1859471928
33,15,17,Jits_Phase_5,1,1,48,48,1859485084
33,15,17,Jits_Phase_5,2,5,80,127,1859511660
33,15,17,Jits_Phase_5,3,5,63,98,1859522004
33,15,17,Jits_Phase_5,0,5,80,127,1859962244
33,15,17,Jits_Phase_5,1,1,48,46,1859979608
33,15,17,Jits_Phase_5,2,5,63,98,1859991912
33,15,17,Jits_Phase_5,3,5,56,103,1860031800
33,15,17,Jits_Phase_5,0,1,48,45,1860462276
33,15,17,Jits_Phase_5,1,5,56,103,1860482676
33,15,17,Jits_Phase_5,2,5,63,98,1860511980
33,15,17,Jits_Phase_5,3,5,80,127,1860562188
33,15,17,Jits_Phase_5,0,1,48,46,1860953032
33,15,17,Jits_Phase_5,1,5,80,127,1860982204
33,15,17,Jits_Phase_5,2,5,56,103,1861022068
33,15,17,Jits_Phase_5,3,5,63,98,1861032636
33,15,17,Jits_Phase_5,0,5,80,127,1861462680
33,15,17,Jits_Phase_5,1,1,48,49,1861496512
33,15,17,Jits_Phase_5,2,5,63,98,1861502464
33,15,17,Jits_Phase_5,3,5,56,103,1861561752
33,15,17,Jits_Phase_5,0,5,56,103,1861972484
33,15,17,Jits_Phase_5,1,5,80,127,1861981632
33,15,17,Jits_Phase_5,2,1,48,46,1862011952
33,15,17,Jits_Phase_5,3,5,63,98,1862061416
33,15,17,Jits_Phase_5,0,5,80,127,1862472024
33,15,17,Jits_Phase_5,1,1,48,47,1862528404
33,15,17,Jits_Phase_5,2,5,63,98,1862531656
33,15,17,Jits_Phase_5,3,5,56,103,1862562228
33,15,17,Jits_Phase_5,0,5,56,103,1862971712
33,15,17,Jits_Phase_5,1,1,48,49,1863021956
33,15,17,Jits_Phase_5,2,5,80,127,1863032464
33,15,17,Jits_Phase_5,3,5,63,98,1863072032
33,15,17,Jits_Phase_5,0,5,56,103,1863521596
33,15,17,Jits_Phase_5,1,1,48,48,1863524116
33,15,17,Jits_Phase_5,2,5,63,98,1863532008
33,15,17,Jits_Phase_5,3,5,80,127,1863535448
33,15,17,Jits_Phase_5,0,5,80,127,1863972504
33,15,17,Jits_Phase_5,1,1,48,48,1864009184
33,15,17,Jits_Phase_5,2,5,63,98,1864062332
33,15,17,Jits_Phase_5,3,5,56,103,1864071408
33,15,17,Jits_Phase_5,0,5,56,103,1864471960
33,15,17,Jits_Phase_5,1,5,63,98,1864475056
33,15,17,Jits_Phase_5,2,5,80,127,1864478252
33,15,17,Jits_Phase_5,3,1,48,45,1864505052
33,15,17,Jits_Phase_5,0,1,48,44,1864953848
33,15,17,Jits_Phase_5,1,5,80,127,1864992232
33,15,17,Jits_Phase_5,2,5,63,98,1865042436
33,15,17,Jits_Phase_5,3,5,56,103,1865071872
33,15,17,Jits_Phase_5,0,5,56,103,1865472512
33,15,17,Jits_Phase_5,1,5,80,127,1865481588
33,15,17,Jits_Phase_5,2,1,48,51,1865511232
33,15,17,Jits_Phase_5,3,5,63,98,1865552528
33,15,17,Jits_Phase_5,0,5,56,103,1865982240
33,15,17,Jits_Phase_5,1,5,63,98,1866001804
33,15,17,Jits_Phase_5,2,1,48,49,1866018624
33,15,17,Jits_Phase_5,3,5,80,127,1866062404
33,15,17,Jits_Phase_5,0,5,80,127,1866461408
33,15,17,Jits_Phase_5,1,1,48,45,1866494712
33,15,17,Jits_Phase_5,2,5,63,98,1866532496
33,15,17,Jits_Phase_5,3,5,56,103,1866551684
33,15,17,Jits_Phase_5,0,5,80,127,1866981624
33,15,17,Jits_Phase_5,1,1,48,57,1866990528
33,15,17,Jits_Phase_5,2,5,56,103,1866992484
33,15,17,Jits_Phase_5,3,5,63,98,1867002308
33,15,17,Jits_Phase_5,0,5,80,127,1867472468
33,15,17,Jits_Phase_5,1,1,48,59,1867473432
33,15,17,Jits_Phase_5,2,5,56,103,1867491652
33,15,17,Jits_Phase_5,3,5,63,98,1867562448
33,15,17,Jits_Phase_5,0,1,48,61,1867970184
33,15,17,Jits_Phase_5,1,5,56,103,1867982268
33,15,17,Jits_Phase_5,2,5,80,127,1868012088
33,15,17,Jits_Phase_5,3,5,63,98,1868032476
33,15,17,Jits_Phase_5,0,5,63,98,1868471760
33,15,17,Jits_Phase_5,1,1,48,59,1868511520
33,15,17,Jits_Phase_5,2,5,56,103,1868532144
33,15,17,Jits_Phase_5,3,5,80,127,1868561964
33,15,17,Jits_Phase_5,0,5,63,98,1868962416
33,15,17,Jits_Phase_5,1,5,80,127,1868965556
33,15,17,Jits_Phase_5,2,1,48,58,1868994476
33,15,17,Jits_Phase_5,3,5,56,103,1869052264
33,15,17,Jits_Phase_5,0,5,56,103,1869482236
33,15,17,Jits_Phase_5,1,1,48,60,1869489560
33,15,17,Jits_Phase_5,2,5,63,98,1869512224
33,15,17,Jits_Phase_5,3,5,80,127,1869552088
33,15,17,Jits_Phase_5,0,1,48,56,1869978888
33,15,17,Jits_Phase_5,1,5,63,98,1869982364
33,15,17,Jits_Phase_5,2,5,56,103,1870022104
33,15,17,Jits_Phase_5,3,5,80,127,1870041368
33,15,17,Jits_Phase_5,0,1,48,55,1870482840
33,15,17,Jits_Phase_5,1,5,63,98,1870492156
33,15,17,Jits_Phase_5,2,5,56,103,1870532116
33,15,17,Jits_Phase_5,3,5,80,127,1870542388
33,15,17,Jits_Phase_5,0,5,80,127,1870972208
33,15,17,Jits_Phase_5,1,1,48,60,1870997496
33,15,17,Jits_Phase_5,2,5,63,98,1871041980
33,15,17,Jits_Phase_5,3,5,56,103,1871062364
33,15,17,Jits_Phase_5,0,5,56,103,1871461636
33,15,17,Jits_Phase_5,1,5,80,127,1871482168
33,15,17,Jits_Phase_5,2,1,48,56,1871492632
33,15,17,Jits_Phase_5,3,5,63,98,1871522248
33,15,17,Jits_Phase_5,0,5,63,98,1871971660
33,15,17,Jits_Phase_5,1,1,48,55,1871975828
33,15,17,Jits_Phase_5,2,5,80,127,1871992112
33,15,17,Jits_Phase_5,3,5,56,103,1872032124
33,15,17,Jits_Phase_5,0,1,48,55,1872466352
33,15,17,Jits_Phase_5,1,5,63,98,1872472376
33,15,17,Jits_Phase_5,2,5,56,103,1872492236
33,15,17,Jits_Phase_5,3,5,80,127,1872502208
33,15,17,Jits_Phase_5,0,1,48,55,1872960116
33,15,17,Jits_Phase_5,1,5,80,127,1872972272
33,15,17,Jits_Phase_5,2,5,56,103,1872991684
33,15,17,Jits_Phase_5,3,5,63,98,1873022180
33,15,17,Jits_Phase_5,0,1,48,54,1873463076
33,15,17,Jits_Phase_5,1,5,56,103,1873541544
33,15,17,Jits_Phase_5,2,5,80,127,1873544608
33,15,17,Jits_Phase_5,3,5,63,98,1873562956
33,15,17,Jits_Phase_5,0,5,63,98,1873962480
33,15,17,Jits_Phase_5,1,1,48,55,1873980592
33,15,17,Jits_Phase_5,2,5,56,103,1873992076
33,15,17,Jits_Phase_5,3,5,80,127,1874051412
33,15,17,Jits_Phase_5,0,1,48,54,1874456872
33,15,17,Jits_Phase_5,1,5,63,98,1874542084
33,15,17,Jits_Phase_5,2,5,56,103,1874552056
33,15,17,Jits_Phase_5,3,5,80,127,1874562312
33,15,17,Jits_Phase_5,0,5,56,103,1875001988
33,15,17,Jits_Phase_5,1,1,48,53,1875007276
33,15,17,Jits_Phase_5,2,5,80,127,1875032408
33,15,17,Jits_Phase_5,3,5,63,98,1875041632
33,15,17,Jits_Phase_5,0,1,48,53,1875511468
33,15,17,Jits_Phase_5,1,5,63,98,1875542284
33,15,17,Jits_Phase_5,2,5,56,103,1875551952
33,15,17,Jits_Phase_5,3,5,80,127,1875572040
33,15,17,Jits_Phase_5,0,5,56,103,1875971472
33,15,17,Jits_Phase_5,1,1,48,51,1876023808
33,15,17,Jits_Phase_5,2,5,63,98,1876032000
33,15,17,Jits_Phase_5,3,5,80,127,1876035364
33,15,17,Jits_Phase_5,0,5,80,127,1876491900
33,15,17,Jits_Phase_5,1,1,48,53,1876494348
33,15,17,Jits_Phase_5,2,5,56,103,1876502016
33,15,17,Jits_Phase_5,3,5,63,98,1876571396
33,15,17,Jits_Phase_5,0,5,80,127,1876982000
33,15,17,Jits_Phase_5,1,1,48,52,1877007288
33,15,17,Jits_Phase_5,2,5,56,103,1877051896
33,15,17,Jits_Phase_5,3,5,63,98,1877062020
33,15,17,Jits_Phase_5,0,5,63,98,1877522072
33,15,17,Jits_Phase_5,1,5,56,103,1877531972
33,15,17,Jits_Phase_5,2,1,48,48,1877537036
33,15,17,Jits_Phase_5,3,5,80,127,1877551596
33,15,17,Jits_Phase_5,0,5,80,127,1877972304
33,15,17,Jits_Phase_5,1,1,48,51,1878001348
33,15,17,Jits_Phase_5,2,5,63,98,1878031788
33,15,17,Jits_Phase_5,3,5,56,103,1878071872
33,15,17,Jits_Phase_5,0,1,48,53,1878482600
33,15,17,Jits_Phase_5,1,5,56,103,1878511844
33,15,17,Jits_Phase_5,2,5,63,98,1878522192
33,15,17,Jits_Phase_5,3,5,80,127,1878562128
33,15,17,Jits_Phase_5,0,1,48,57,1878966984
33,15,17,Jits_Phase_5,1,5,56,103,1878971740
33,15,17,Jits_Phase_5,2,5,80,127,1879001416
33,15,17,Jits_Phase_5,3,5,63,98,1879051908
33,15,17,Jits_Phase_5,0,1,48,54,1879478868
33,15,17,Jits_Phase_5,1,5,56,103,1879512316
33,15,17,Jits_Phase_5,2,5,63,98,1879552328
33,15,17,Jits_Phase_5,3,5,80,127,1879555988
33,15,17,Jits_Phase_5,0,1,48,56,1879977764
33,15,17,Jits_Phase_5,1,5,56,103,1880012284
33,15,17,Jits_Phase_5,2,5,63,98,1880022556
33,15,17,Jits_Phase_5,3,5,80,127,1880041968
33,15,17,Jits_Phase_5,0,5,56,103,1880471860
33,15,17,Jits_Phase_5,1,5,80,127,1880474856
33,15,17,Jits_Phase_5,2,1,48,56,1880484792
33,15,17,Jits_Phase_5,3,5,63,98,1880511816
33,15,17,Jits_Phase_5,0,1,48,60,1880972632
33,15,17,Jits_Phase_5,1,5,63,98,1881011864
33,15,17,Jits_Phase_5,2,5,56,103,1881042212
33,15,17,Jits_Phase_5,3,5,80,127,1881061772
33,15,17,Jits_Phase_5,0,5,80,127,1881481780
33,15,17,Jits_Phase_5,1,1,48,55,1881482820
33,15,17,Jits_Phase_5,2,5,56,103,1881491968
33,15,17,Jits_Phase_5,3,5,63,98,1881502016
33,15,17,Jits_Phase_5,0,1,48,51,1881973188
33,15,17,Jits_Phase_5,1,5,56,103,1881982500
33,15,17,Jits_Phase_5,2,5,80,127,1882022216
33,15,17,Jits_Phase_5,3,5,63,98,1882051912
33,15,17,Jits_Phase_5,0,1,48,51,1882475032
33,15,17,Jits_Phase_5,1,5,63,98,1882492216
33,15,17,Jits_Phase_5,2,5,80,127,1882501888
33,15,17,Jits_Phase_5,3,5,56,103,1882511708
33,15,17,Jits_Phase_5,0,5,56,103,1882981856
33,15,17,Jits_Phase_5,1,1,48,53,1883011580
33,15,17,Jits_Phase_5,2,5,63,98,1883052504
33,15,17,Jits_Phase_5,3,5,80,127,1883061604
33,15,17,Jits_Phase_5,0,5,80,127,1883491812
33,15,17,Jits_Phase_5,1,5,56,103,1883501860
33,15,17,Jits_Phase_5,2,1,48,46,1883531504
33,15,17,Jits_Phase_5,3,5,63,98,1883552052
33,15,17,Jits_Phase_5,0,5,80,127,1884001616
33,15,17,Jits_Phase_5,1,1,48,50,1884024216
33,15,17,Jits_Phase_5,2,5,56,103,1884062000
33,15,17,Jits_Phase_5,3,5,63,98,1884091700
33,15,17,Jits_Phase_5,0,5,56,103,1884502660
33,15,17,Jits_Phase_5,1,5,80,127,1884505720
33,15,17,Jits_Phase_5,2,1,48,61,1884535292
33,15,17,Jits_Phase_5,3,5,63,98,1884542656
33,15,17,Jits_Phase_5,0,1,48,60,1885028064
33,15,17,Jits_Phase_5,1,5,56,103,1885031844
33,15,17,Jits_Phase_5,2,5,63,98,1885061816
33,15,17,Jits_Phase_5,3,5,80,127,1885071716
33,15,17,Jits_Phase_5,0,1,48,64,1885531872
33,15,17,Jits_Phase_5,1,5,63,98,1885541860
33,15,17,Jits_Phase_5,2,5,80,127,1885551980
33,15,17,Jits_Phase_5,3,5,56,103,1885562324
33,15,17,Jits_Phase_5,0,5,80,127,1885992396
33,15,17,Jits_Phase_5,1,1,48,65,1886034544
33,15,17,Jits_Phase_5,2,5,56,103,1886041688
33,15,17,Jits_Phase_5,3,5,63,98,1886044608
33,15,17,Jits_Phase_5,0,1,48,62,1886519004
33,15,17,Jits_Phase_5,1,5,56,103,1886521660
33,15,17,Jits_Phase_5,2,5,80,127,1886542344
33,15,17,Jits_Phase_5,3,5,63,98,1886552540
33,15,17,Jits_Phase_5,0,5,63,98,1887001940
33,15,17,Jits_Phase_5,1,1,48,61,1887021020
33,15,17,Jits_Phase_5,2,5,56,103,1887031536
33,15,17,Jits_Phase_5,3,5,80,127,1887052440
33,15,17,Jits_Phase_5,0,1,48,54,1887487488
33,15,17,Jits_Phase_5,1,5,56,103,1887511796
33,15,17,Jits_Phase_5,2,5,80,127,1887522440
33,15,17,Jits_Phase_5,3,5,63,98,1887591808
33,15,17,Jits_Phase_5,0,5,63,98,1888002412
33,15,17,Jits_Phase_5,1,1,48,51,1888040760
33,15,17,Jits_Phase_5,2,5,80,127,1888042568
33,15,17,Jits_Phase_5,3,5,56,103,1888082280
33,15,17,Jits_Phase_5,0,5,56,103,1888512276
33,15,17,Jits_Phase_5,1,5,63,98,1888521572
33,15,17,Jits_Phase_5,2,1,48,58,1888539668
33,15,17,Jits_Phase_5,3,5,80,127,1888542172
33,15,17,Jits_Phase_5,0,1,48,52,1889006300
33,15,17,Jits_Phase_5,1,5,63,98,1889051960
33,15,17,Jits_Phase_5,2,5,80,127,1889071520
33,15,17,Jits_Phase_5,3,5,56,103,1889091832
33,15,17,Jits_Phase_5,0,5,56,103,1889492456
33,15,17,Jits_Phase_5,1,1,48,58,1889520380
33,15,17,Jits_Phase_5,2,5,80,127,1889572540
33,15,17,Jits_Phase_5,3,5,63,98,1889581392
33,15,17,Jits_Phase_5,0,5,80,127,1890031856
33,15,17,Jits_Phase_5,1,1,48,56,1890038792
33,15,17,Jits_Phase_5,2,5,63,98,1890042344
33,15,17,Jits_Phase_5,3,5,56,103,1890071868
33,15,17,Jits_Phase_5,0,5,63,98,1890491692
33,15,17,Jits_Phase_5,1,5,80,127,1890531628
33,15,17,Jits_Phase_5,2,1,48,63,1890557144
33,15,17,Jits_Phase_5,3,5,56,103,1890592380
33,15,17,Jits_Phase_5,0,5,63,98,1891001704
33,15,17,Jits_Phase_5,1,1,48,60,1891041088
33,15,17,Jits_Phase_5,2,5,56,103,1891051824
33,15,17,Jits_Phase_5,3,5,80,127,1891081496
33,15,17,Jits_Phase_5,0,5,80,127,1891501504
33,15,17,Jits_Phase_5,1,1,48,55,1891508392
33,15,17,Jits_Phase_5,2,5,63,98,1891511796
33,15,17,Jits_Phase_5,3,5,56,103,1891582296
33,15,17,Jits_Phase_5,0,1,48,59,1892003708
33,15,17,Jits_Phase_5,1,5,80,127,1892061604
33,15,17,Jits_Phase_5,2,5,56,103,1892071724
33,15,17,Jits_Phase_5,3,5,63,98,1892074940
33,15,17,Jits_Phase_5,0,5,56,103,1892501840
33,15,17,Jits_Phase_5,1,1,48,58,1892513424
33,15,17,Jits_Phase_5,2,5,80,127,1892522216
33,15,17,Jits_Phase_5,3,5,63,98,1892531540
33,15,17,Jits_Phase_5,0,1,48,59,1893001196
33,15,17,Jits_Phase_5,1,5,63,98,1893011712
33,15,17,Jits_Phase_5,2,5,56,103,1893051676
33,15,17,Jits_Phase_5,3,5,80,127,1893072356
33,15,17,Jits_Phase_5,0,1,48,60,1893505668
33,15,17,Jits_Phase_5,1,5,63,98,1893511616
33,15,17,Jits_Phase_5,2,5,56,103,1893572028
33,15,17,Jits_Phase_5,3,5,80,127,1893575020
33,15,17,Jits_Phase_5,0,5,56,103,1893972480
33,15,17,Jits_Phase_5,1,5,80,127,1893991820
33,15,17,Jits_Phase_5,2,5,63,98,1894031680
33,15,17,Jits_Phase_5,3,1,48,61,1894034652
33,15,17,Jits_Phase_5,0,5,56,103,1894501688
33,15,17,Jits_Phase_5,1,1,48,69,1894509292
33,15,17,Jits_Phase_5,2,5,63,98,1894522216
33,15,17,Jits_Phase_5,3,5,80,127,1894531512
33,15,17,Jits_Phase_5,0,5,80,127,1894972080
33,15,17,Jits_Phase_5,1,1,48,57,1894984868
33,15,17,Jits_Phase_5,2,5,56,103,1895001452
33,15,17,Jits_Phase_5,3,5,63,98,1895042432
33,15,17,Jits_Phase_5,0,1,48,62,1895469272
33,15,17,Jits_Phase_5,1,5,80,127,1895481652
33,15,17,Jits_Phase_5,2,5,56,103,1895502112
33,15,17,Jits_Phase_5,3,5,63,98,1895561660
33,15,17,Jits_Phase_5,0,1,48,57,1895978220
33,15,17,Jits_Phase_5,1,5,56,103,1895991588
33,15,17,Jits_Phase_5,2,5,80,127,1896012272
33,15,17,Jits_Phase_5,3,5,63,98,1896072188
33,15,17,Jits_Phase_5,0,1,48,62,1896438260
33,15,17,Jits_Phase_5,1,5,80,127,1896472156
33,15,17,Jits_Phase_5,2,5,56,103,1896482280
33,15,17,Jits_Phase_5,3,5,63,98,1896522216
33,15,17,Jits_Phase_5,0,1,48,57,1896920192
33,15,17,Jits_Phase_5,1,5,63,98,1896971608
33,15,17,Jits_Phase_5,2,5,56,103,1897011460
33,15,17,Jits_Phase_5,3,5,80,127,1897015416
33,15,17,Jits_Phase_5,0,1,48,59,1897437596
33,15,17,Jits_Phase_5,1,5,63,98,1897492020
33,15,17,Jits_Phase_5,2,5,80,127,1897531884
33,15,17,Jits_Phase_5,3,5,56,103,1897561392
33,15,17,Jits_Phase_5,0,1,48,56,1897951964
33,15,17,Jits_Phase_5,1,5,56,103,1897982184
33,15,17,Jits_Phase_5,2,5,63,98,1897991480
33,15,17,Jits_Phase_5,3,5,80,127,1898022200
33,15,17,Jits_Phase_5,0,1,48,65,1898465864
33,15,17,Jits_Phase_5,1,5,80,127,1898472036
33,15,17,Jits_Phase_5,2,5,63,98,1898541420
33,15,17,Jits_Phase_5,3,5,56,103,1898551692
33,15,17,Jits_Phase_5,0,1,48,57,1898923340
33,15,17,Jits_Phase_5,1,5,63,98,1898971640
33,15,17,Jits_Phase_5,2,5,56,103,1899042276
33,15,17,Jits_Phase_5,3,5,80,127,1899052472
33,15,17,Jits_Phase_5,0,1,48,50,1899432084
33,15,17,Jits_Phase_5,1,5,63,98,1899451836
33,15,17,Jits_Phase_5,2,5,56,103,1899472148
33,15,17,Jits_Phase_5,3,5,80,127,1899512084
33,15,17,Jits_Phase_5,0,1,48,56,1899917444
33,15,17,Jits_Phase_5,1,5,56,103,1899932084
33,15,17,Jits_Phase_5,2,5,63,98,1899942352
33,15,17,Jits_Phase_5,3,5,80,127,1900022080
33,15,17,Jits_Phase_5,0,1,48,62,1900405884
33,15,17,Jits_Phase_5,1,5,63,98,1900421420
33,15,17,Jits_Phase_5,2,5,56,103,1900452144
33,15,17,Jits_Phase_5,3,5,80,127,1900492028
33,15,17,Jits_Phase_5,0,1,48,57,1900876624
33,15,17,Jits_Phase_5,1,5,56,103,1900922136
33,15,17,Jits_Phase_5,2,5,63,98,1900962148
33,15,17,Jits_Phase_5,3,5,80,127,1901002016
33,15,17,Jits_Phase_5,0,1,48,62,1901385968
33,15,17,Jits_Phase_5,1,5,80,127,1901422032
33,15,17,Jits_Phase_5,2,5,56,103,1901501908
33,15,17,Jits_Phase_5,3,5,63,98,1901512032
33,15,17,Jits_Phase_5,0,1,48,64,1901895228
33,15,17,Jits_Phase_5,1,5,56,103,1901961712
33,15,17,Jits_Phase_5,2,5,63,98,1901964928
33,15,17,Jits_Phase_5,3,5,80,127,1901971832
33,15,17,Jits_Phase_5,0,1,48,62,1902397288
33,15,17,Jits_Phase_5,1,5,56,103,1902481904
33,15,17,Jits_Phase_5,2,5,63,98,1902502200
33,15,17,Jits_Phase_5,3,5,80,127,1902511648
33,15,17,Jits_Phase_5,0,1,48,63,1902912836
33,15,17,Jits_Phase_5,1,5,63,98,1902951744
33,15,17,Jits_Phase_5,2,5,80,127,1902962016
33,15,17,Jits_Phase_5,3,5,56,103,1902981576
33,15,17,Jits_Phase_5,0,1,48,61,1903413404
33,15,17,Jits_Phase_5,1,5,63,98,1903451788
33,15,17,Jits_Phase_5,2,5,56,103,1903532388
33,15,17,Jits_Phase_5,3,5,80,127,1903535680
33,15,17,Jits_Phase_5,0,1,48,62,1903912896
33,15,17,Jits_Phase_5,1,5,63,98,1903952180
33,15,17,Jits_Phase_5,2,5,56,103,1903971668
33,15,17,Jits_Phase_5,3,5,80,127,1904002536
33,15,17,Jits_Phase_5,0,1,48,61,1904420520
33,15,17,Jits_Phase_5,1,5,56,103,1904451856
33,15,17,Jits_Phase_5,2,5,63,98,1904472392
33,15,17,Jits_Phase_5,3,5,80,127,1904481764
33,15,17,Jits_Phase_5,0,1,48,62,1904921912
33,15,17,Jits_Phase_5,1,5,56,103,1904982248
33,15,17,Jits_Phase_5,2,5,63,98,1905011988
33,15,17,Jits_Phase_5,3,5,80,127,1905015356
33,15,17,Jits_Phase_5,0,5,56,103,1905431876
33,15,17,Jits_Phase_5,1,1,48,64,1905441968
33,15,17,Jits_Phase_5,2,5,63,98,1905471804
33,15,17,Jits_Phase_5,3,5,80,127,1905532192
33,15,17,Jits_Phase_5,0,1,48,64,1905915272
33,15,17,Jits_Phase_5,1,5,56,103,1905952084
33,15,17,Jits_Phase_5,2,5,63,98,1905962504
33,15,17,Jits_Phase_5,3,5,80,127,1906021828
33,15,17,Jits_Phase_5,0,1,48,61,1906392400
33,15,17,Jits_Phase_5,1,5,56,103,1906451836
33,15,17,Jits_Phase_5,2,5,80,127,1906472592
33,15,17,Jits_Phase_5,3,5,63,98,1906501956
33,15,17,Jits_Phase_5,0,1,48,59,1906894096
33,15,17,Jits_Phase_5,1,5,80,127,1906951736
33,15,17,Jits_Phase_5,2,5,56,103,1906961636
33,15,17,Jits_Phase_5,3,5,63,98,1906982464
33,15,17,Jits_Phase_5,0,1,48,66,1907413252
33,15,17,Jits_Phase_5,1,5,63,98,1907441896
33,15,17,Jits_Phase_5,2,5,80,127,1907521896
33,15,17,Jits_Phase_5,3,5,56,103,1907532092
33,15,17,Jits_Phase_5,0,1,48,55,1907901392
33,15,17,Jits_Phase_5,1,5,80,127,1908031836
33,15,17,Jits_Phase_5,2,5,56,103,1908052440
33,15,17,Jits_Phase_5,3,5,63,98,1908055508
33,15,17,Jits_Phase_5,0,1,48,60,1908403308
33,15,17,Jits_Phase_5,1,5,63,98,1908522436
33,15,17,Jits_Phase_5,2,5,80,127,1908525580
33,15,17,Jits_Phase_5,3,5,56,103,1908581704
33,15,17,Jits_Phase_5,0,5,56,103,1909001604
33,15,17,Jits_Phase_5,1,5,80,127,1909011800
33,15,17,Jits_Phase_5,2,5,63,98,1909051884
33,15,17,Jits_Phase_5,3,1,48,50,1909103544
33,15,17,Jits_Phase_5,0,5,56,103,1909481960
33,15,17,Jits_Phase_5,1,5,63,98,1909542200
33,15,17,Jits_Phase_5,2,5,80,127,1909551572
33,15,17,Jits_Phase_5,3,1,48,58,1909566972
33,15,17,Jits_Phase_5,0,5,63,98,1909991764
33,15,17,Jits_Phase_5,1,1,48,61,1910029260
33,15,17,Jits_Phase_5,2,5,80,127,1910031844
33,15,17,Jits_Phase_5,3,5,56,103,1910071704
33,15,17,Jits_Phase_5,0,5,56,103,1910491512
33,15,17,Jits_Phase_5,1,1,48,58,1910546472
33,15,17,Jits_Phase_5,2,5,63,98,1910572492
33,15,17,Jits_Phase_5,3,5,80,127,1910575856
33,15,17,Jits_Phase_5,0,5,80,127,1911051728
33,15,17,Jits_Phase_5,1,1,48,57,1911059408
33,15,17,Jits_Phase_5,2,5,56,103,1911082672
33,15,17,Jits_Phase_5,3,5,63,98,1911085808
33,15,17,Jits_Phase_5,0,5,56,103,1911512532
33,15,17,Jits_Phase_5,1,5,80,127,1911531944
33,15,17,Jits_Phase_5,2,5,63,98,1911571732
33,15,17,Jits_Phase_5,3,1,48,59,1911589524
33,15,17,Jits_Phase_5,0,5,80,127,1911991696
33,15,17,Jits_Phase_5,1,5,63,98,1912012084
33,15,17,Jits_Phase_5,2,1,48,57,1912062252
33,15,17,Jits_Phase_5,3,5,56,103,1912071492
33,15,17,Jits_Phase_5,0,5,63,98,1912501652
33,15,17,Jits_Phase_5,1,5,56,103,1912512000
33,15,17,Jits_Phase_5,2,1,48,58,1912548148
33,15,17,Jits_Phase_5,3,5,80,127,1912561968
33,15,17,Jits_Phase_5,0,5,56,103,1912992384
33,15,17,Jits_Phase_5,1,1,48,54,1913007864
33,15,17,Jits_Phase_5,2,5,63,98,1913011668
33,15,17,Jits_Phase_5,3,5,80,127,1913021712
33,15,17,Jits_Phase_5,0,1,48,51,1913468960
33,15,17,Jits_Phase_5,1,5,56,103,1913481576
33,15,17,Jits_Phase_5,2,5,63,98,1913484720
33,15,17,Jits_Phase_5,3,5,80,127,1913502184
33,15,17,Jits_Phase_5,0,1,48,56,1913958056
33,15,17,Jits_Phase_5,1,5,63,98,1914022444
33,15,17,Jits_Phase_5,2,5,56,103,1914051904
33,15,17,Jits_Phase_5,3,5,80,127,1914081656
33,15,17,Jits_Phase_5,0,5,80,127,1914481968
33,15,17,Jits_Phase_5,1,1,48,55,1914512812
33,15,17,Jits_Phase_5,2,5,56,103,1914572416
33,15,17,Jits_Phase_5,3,5,63,98,1914575332
33,15,17,Jits_Phase_5,0,5,56,103,1914981796
33,15,17,Jits_Phase_5,1,5,80,127,1914984940
33,15,17,Jits_Phase_5,2,5,63,98,1915061612
33,15,17,Jits_Phase_5,3,1,48,59,1915085036
33,15,17,Jits_Phase_5,0,5,80,127,1915481404
33,15,17,Jits_Phase_5,1,5,63,98,1915541868
33,15,17,Jits_Phase_5,2,1,48,59,1915565960
33,15,17,Jits_Phase_5,3,5,56,103,1915571632
33,15,17,Jits_Phase_5,0,5,63,98,1915982216
33,15,17,Jits_Phase_5,1,5,80,127,1915992412
33,15,17,Jits_Phase_5,2,1,48,60,1916059272
33,15,17,Jits_Phase_5,3,5,56,103,1916062008
33,15,17,Jits_Phase_5,0,1,48,54,1916537592
33,15,17,Jits_Phase_5,1,5,56,103,1916542272
33,15,17,Jits_Phase_5,2,5,80,127,1916572096
33,15,17,Jits_Phase_5,3,5,63,98,1916622172
33,15,17,Jits_Phase_5,0,1,48,51,1917105020
33,15,17,Jits_Phase_5,1,5,63,98,1917132320
33,15,17,Jits_Phase_5,2,5,56,103,1917161772
33,15,17,Jits_Phase_5,3,5,80,127,1917164764
33,15,17,Jits_Phase_5,0,1,48,56,1917621852
33,15,17,Jits_Phase_5,1,5,63,98,1917631916
33,15,17,Jits_Phase_5,2,5,80,127,1917652376
33,15,17,Jits_Phase_5,3,5,56,103,1917661524
33,15,17,Jits_Phase_5,0,1,48,58,1918128464
33,15,17,Jits_Phase_5,1,5,56,103,1918141756
33,15,17,Jits_Phase_5,2,5,63,98,1918145048
33,15,17,Jits_Phase_5,3,5,80,127,1918162140
33,15,17,Jits_Phase_5,0,5,56,103,1918592252
33,15,17,Jits_Phase_5,1,5,63,98,1918601628
33,15,17,Jits_Phase_5,2,5,80,127,1918632348
33,15,17,Jits_Phase_5,3,1,48,57,1918651828
33,15,17,Jits_Phase_5,0,1,48,50,1919099760
33,15,17,Jits_Phase_5,1,5,63,98,1919111492
33,15,17,Jits_Phase_5,2,5,80,127,1919132100
33,15,17,Jits_Phase_5,3,5,56,103,1919171984
33,15,17,Jits_Phase_5,0,1,48,54,1919614212
33,15,17,Jits_Phase_5,1,5,56,103,1919642180
33,15,17,Jits_Phase_5,2,5,63,98,1919682144
33,15,17,Jits_Phase_5,3,5,80,127,1919685508
33,15,17,Jits_Phase_5,0,5,80,127,1920082224
33,15,17,Jits_Phase_5,1,5,56,103,1920122164
33,15,17,Jits_Phase_5,2,1,48,59,1920125728
33,15,17,Jits_Phase_5,3,5,63,98,1920172280
33,15,17,Jits_Phase_5,0,1,48,58,1920601736
33,15,17,Jits_Phase_5,1,5,56,103,1920642440
33,15,17,Jits_Phase_5,2,5,80,127,1920651736
33,15,17,Jits_Phase_5,3,5,63,98,1920682232
33,15,17,Jits_Phase_5,0,5,56,103,1921091928
33,15,17,Jits_Phase_5,1,1,48,63,1921099012
33,15,17,Jits_Phase_5,2,5,80,127,1921131932
33,15,17,Jits_Phase_5,3,5,63,98,1921182204
33,15,17,Jits_Phase_5,0,5,56,103,1921591912
33,15,17,Jits_Phase_5,1,5,80,127,1921631552
33,15,17,Jits_Phase_5,2,1,48,58,1921672208
33,15,17,Jits_Phase_5,3,5,63,98,1921681892
33,15,17,Jits_Phase_5,0,5,80,127,1922082164
33,15,17,Jits_Phase_5,1,5,63,98,1922162108
33,15,17,Jits_Phase_5,2,5,56,103,1922172228
33,15,17,Jits_Phase_5,3,1,48,60,1922185832
33,15,17,Jits_Phase_5,0,5,80,127,1922631976
33,15,17,Jits_Phase_5,1,5,56,103,1922642320
33,15,17,Jits_Phase_5,2,5,63,98,1922661880
33,15,17,Jits_Phase_5,3,1,48,59,1922670176
33,15,17,Jits_Phase_5,0,5,63,98,1923102000
33,15,17,Jits_Phase_5,1,1,48,56,1923153664
33,15,17,Jits_Phase_5,2,5,56,103,1923171744
33,15,17,Jits_Phase_5,3,5,80,127,1923174884
33,15,17,Jits_Phase_5,0,5,80,127,1923591628
33,15,17,Jits_Phase_5,1,1,48,54,1923623440
33,15,17,Jits_Phase_5,2,5,63,98,1923641896
33,15,17,Jits_Phase_5,3,5,56,103,1923681908
33,15,17,Jits_Phase_5,0,1,48,57,1924130028
33,15,17,Jits_Phase_5,1,5,63,98,1924132216
33,15,17,Jits_Phase_5,2,5,56,103,1924172228
33,15,17,Jits_Phase_5,3,5,80,127,1924182572
33,15,17,Jits_Phase_5,0,5,63,98,1924621936
33,15,17,Jits_Phase_5,1,1,48,59,1924626104
33,15,17,Jits_Phase_5,2,5,56,103,1924642016
33,15,17,Jits_Phase_5,3,5,80,127,1924661948
33,15,17,Jits_Phase_5,0,5,80,127,1925081380
33,15,17,Jits_Phase_5,1,5,56,103,1925091800
33,15,17,Jits_Phase_5,2,5,63,98,1925112112
33,15,17,Jits_Phase_5,3,1,48,62,1925139120
33,15,17,Jits_Phase_5,0,1,48,58,1925586352
33,15,17,Jits_Phase_5,1,5,63,98,1925611928
33,15,17,Jits_Phase_5,2,5,56,103,1925651868
33,15,17,Jits_Phase_5,3,5,80,127,1925681468
33,15,17,Jits_Phase_5,0,5,56,103,1926071756
33,15,17,Jits_Phase_5,1,1,48,62,1926090612
33,15,17,Jits_Phase_5,2,5,63,98,1926102248
33,15,17,Jits_Phase_5,3,5,80,127,1926132144
33,15,17,Jits_Phase_5,0,5,80,127,1926491644
33,15,17,Jits_Phase_5,1,5,56,103,1926562220
33,15,17,Jits_Phase_5,2,5,63,98,1926565212
33,15,17,Jits_Phase_5,3,1,48,69,1926600804
33,15,17,Jits_Phase_5,0,5,56,103,1927001440
33,15,17,Jits_Phase_5,1,5,63,98,1927051712
33,15,17,Jits_Phase_5,2,1,48,59,1927072068
33,15,17,Jits_Phase_5,3,5,80,127,1927082280
33,15,17,Jits_Phase_5,0,5,63,98,1927481872
33,15,17,Jits_Phase_5,1,5,80,127,1927485084
33,15,17,Jits_Phase_5,2,1,48,56,1927529404
33,15,17,Jits_Phase_5,3,5,56,103,1927542100
33,15,17,Jits_Phase_5,0,1,48,55,1927974380
33,15,17,Jits_Phase_5,1,5,56,103,1928012020
33,15,17,Jits_Phase_5,2,5,80,127,1928022512
33,15,17,Jits_Phase_5,3,5,63,98,1928071876
33,15,17,Jits_Phase_5,0,5,63,98,1928482112
33,15,17,Jits_Phase_5,1,5,56,103,1928492380
33,15,17,Jits_Phase_5,2,1,48,56,1928514904
33,15,17,Jits_Phase_5,3,5,80,127,1928522048
33,15,17,Jits_Phase_5,0,1,48,58,1928990744
33,15,17,Jits_Phase_5,1,5,63,98,1929011588
33,15,17,Jits_Phase_5,2,5,80,127,1929015028
33,15,17,Jits_Phase_5,3,5,56,103,1929042232
33,15,17,Jits_Phase_5,0,1,48,62,1929501564
33,15,17,Jits_Phase_5,1,5,63,98,1929531636
33,15,17,Jits_Phase_5,2,5,56,103,1929552084
33,15,17,Jits_Phase_5,3,5,80,127,1929555604
33,15,17,Jits_Phase_5,0,1,48,64,1929988192
33,15,17,Jits_Phase_5,1,5,63,98,1929991816
33,15,17,Jits_Phase_5,2,5,56,103,1930062172
33,15,17,Jits_Phase_5,3,5,80,127,1930081732
33,15,17,Jits_Phase_5,0,5,56,103,1930481908
33,15,17,Jits_Phase_5,1,5,63,98,1930492256
33,15,17,Jits_Phase_5,2,1,48,63,1930498812
33,15,17,Jits_Phase_5,3,5,80,127,1930582524
33,15,17,Jits_Phase_5,0,1,48,62,1930978856
33,15,17,Jits_Phase_5,1,5,56,103,1931002120
33,15,17,Jits_Phase_5,2,5,80,127,1931042056
33,15,17,Jits_Phase_5,3,5,63,98,1931052548
33,15,17,Jits_Phase_5,0,1,48,55,1931454868
33,15,17,Jits_Phase_5,1,5,56,103,1931522544
33,15,17,Jits_Phase_5,2,5,63,98,1931551980
33,15,17,Jits_Phase_5,3,5,80,127,1931581732
33,15,17,Jits_Phase_5,0,1,48,62,1931973728
33,15,17,Jits_Phase_5,1,5,80,127,1931982068
33,15,17,Jits_Phase_5,2,5,63,98,1932022156
33,15,17,Jits_Phase_5,3,5,56,103,1932041492
33,15,17,Jits_Phase_5,0,1,48,65,1932514608
33,15,17,Jits_Phase_5,1,5,56,103,1932521752
33,15,17,Jits_Phase_5,2,5,80,127,1932542284
33,15,17,Jits_Phase_5,3,5,63,98,1932561916
33,15,17,Jits_Phase_5,0,5,63,98,1932991840
33,15,17,Jits_Phase_5,1,5,56,103,1933002108
33,15,17,Jits_Phase_5,2,1,48,57,1933018856
33,15,17,Jits_Phase_5,3,5,80,127,1933061516
33,15,17,Jits_Phase_5,0,1,48,61,1933476836
33,15,17,Jits_Phase_5,1,5,56,103,1933491656
33,15,17,Jits_Phase_5,2,5,63,98,1933562308
33,15,17,Jits_Phase_5,3,5,80,127,1933581704
33,15,17,Jits_Phase_5,0,1,48,61,1933969712
33,15,17,Jits_Phase_5,1,5,56,103,1933992504
33,15,17,Jits_Phase_5,2,5,63,98,1934021904
33,15,17,Jits_Phase_5,3,5,80,127,1934061916
33,15,17,Jits_Phase_5,0,1,48,60,1934459928
33,15,17,Jits_Phase_5,1,5,63,98,1934481764
33,15,17,Jits_Phase_5,2,5,56,103,1934531844
33,15,17,Jits_Phase_5,3,5,80,127,1934542632
33,15,17,Jits_Phase_5,0,1,48,56,1934953840
33,15,17,Jits_Phase_5,1,5,56,103,1935021592
33,15,17,Jits_Phase_5,2,5,63,98,1935071704
33,15,17,Jits_Phase_5,3,5,80,127,1935081752
33,15,17,Jits_Phase_5,0,5,56,103,1935491512
33,15,17,Jits_Phase_5,1,5,63,98,1935501780
33,15,17,Jits_Phase_5,2,1,48,56,1935520636
33,15,17,Jits_Phase_5,3,5,80,127,1935581588
33,15,17,Jits_Phase_5,0,9999,9999,9999,1851249768
33,15,17,Jits_Phase_5,1,9999,9999,9999,1851749476
33,15,17,Jits_Phase_5,2,9999,9999,9999,1852249208
33,15,17,Jits_Phase_5,3,9999,9999,9999,1852749900
33,15,17,Jits_Phase_5,4,9999,9999,9999,1853249596
33,15,17,Jits_Phase_5,5,9999,9999,9999,1853749344
33,15,17,Jits_Phase_5,6,9999,9999,9999,1854250064
33,15,17,Jits_Phase_5,7,9999,9999,9999,1854749756
33,15,17,Jits_Phase_5,8,9999,9999,9999,1855249520
33,15,17,Jits_Phase_5,9,9999,9999,9999,1855749212
33,15,17,Jits_Phase_5,10,9999,9999,9999,1856249944
33,15,17,Jits_Phase_5,11,9999,9999,9999,1856749640
33,15,17,Jits_Phase_5,12,9999,9999,9999,1857249384
33,15,17,Jits_Phase_5,13,9999,9999,9999,1857750100
33,15,17,Jits_Phase_5,14,9999,9999,9999,1858260036
33,15,17,Jits_Phase_5,15,9999,9999,9999,1858759800
33,15,17,Jits_Phase_5,16,9999,9999,9999,1859259472
33,15,17,Jits_Phase_5,17,9999,9999,9999,1859759200
33,15,17,Jits_Phase_5,18,9999,9999,9999,1860259928
33,15,17,Jits_Phase_5,19,9999,9999,9999,1860759616
33,15,17,Jits_Phase_5,20,9999,9999,9999,1861259344
33,15,17,Jits_Phase_5,21,9999,9999,9999,1861760064
33,15,17,Jits_Phase_5,22,9999,9999,9999,1862270016
33,15,17,Jits_Phase_5,23,9999,9999,9999,1862769780
33,15,17,Jits_Phase_5,24,9999,9999,9999,1863269468
33,15,17,Jits_Phase_5,25,9999,9999,9999,1863769152
33,15,17,Jits_Phase_5,26,9999,9999,9999,1864269892
33,15,17,Jits_Phase_5,27,9999,9999,9999,1864769632
33,15,17,Jits_Phase_5,28,9999,9999,9999,1865269324
33,15,17,Jits_Phase_5,29,9999,9999,9999,1865770044
33,15,17,Jits_Phase_5,30,9999,9999,9999,1866259548
33,15,17,Jits_Phase_5,31,9999,9999,9999,1866759240
33,15,17,Jits_Phase_5,32,9999,9999,9999,1867259976
33,15,17,Jits_Phase_5,33,9999,9999,9999,1867759740
33,15,17,Jits_Phase_5,34,9999,9999,9999,1868259428
33,15,17,Jits_Phase_5,35,9999,9999,9999,1868759108
33,15,17,Jits_Phase_5,36,9999,9999,9999,1869259892
33,15,17,Jits_Phase_5,37,9999,9999,9999,1869759568
33,15,17,Jits_Phase_5,38,9999,9999,9999,1870259304
33,15,17,Jits_Phase_5,39,9999,9999,9999,1870760028
33,15,17,Jits_Phase_5,40,9999,9999,9999,1871259704
33,15,17,Jits_Phase_5,41,9999,9999,9999,1871759464
33,15,17,Jits_Phase_5,42,9999,9999,9999,1872259152
33,15,17,Jits_Phase_5,43,9999,9999,9999,1872759872
33,15,17,Jits_Phase_5,44,9999,9999,9999,1873259620
33,15,17,Jits_Phase_5,45,9999,9999,9999,1873759292
33,15,17,Jits_Phase_5,46,9999,9999,9999,1874260088
33,15,17,Jits_Phase_5,47,9999,9999,9999,1874759768
33,15,17,Jits_Phase_5,48,9999,9999,9999,1875269708
33,15,17,Jits_Phase_5,49,9999,9999,9999,1875769404
33,15,17,Jits_Phase_5,50,9999,9999,9999,1876269144
33,15,17,Jits_Phase_5,51,9999,9999,9999,1876769880
33,15,17,Jits_Phase_5,52,9999,9999,9999,1877269572
33,15,17,Jits_Phase_5,53,9999,9999,9999,1877769340
33,15,17,Jits_Phase_5,54,9999,9999,9999,1878270060
33,15,17,Jits_Phase_5,55,9999,9999,9999,1878769756
33,15,17,Jits_Phase_5,56,9999,9999,9999,1879269500
33,15,17,Jits_Phase_5,57,9999,9999,9999,1879769172
33,15,17,Jits_Phase_5,58,9999,9999,9999,1880269896
33,15,17,Jits_Phase_5,59,9999,9999,9999,1880769632
33,15,17,Jits_Phase_5,60,9999,9999,9999,1881269324
33,15,17,Jits_Phase_5,61,9999,9999,9999,1881770092
33,15,17,Jits_Phase_5,62,9999,9999,9999,1882269776
33,15,17,Jits_Phase_5,63,9999,9999,9999,1882769524
33,15,17,Jits_Phase_5,64,9999,9999,9999,1883289652
33,15,17,Jits_Phase_5,65,9999,9999,9999,1883789420
33,15,17,Jits_Phase_5,66,9999,9999,9999,1884289112
33,15,17,Jits_Phase_5,67,9999,9999,9999,1884789840
33,15,17,Jits_Phase_5,68,9999,9999,9999,1885289528
33,15,17,Jits_Phase_5,69,9999,9999,9999,1885789280
33,15,17,Jits_Phase_5,70,9999,9999,9999,1886289992
33,15,17,Jits_Phase_5,71,9999,9999,9999,1886789760
33,15,17,Jits_Phase_5,72,9999,9999,9999,1887289432
33,15,17,Jits_Phase_5,73,9999,9999,9999,1887789112
33,15,17,Jits_Phase_5,74,9999,9999,9999,1888289908
33,15,17,Jits_Phase_5,75,9999,9999,9999,1888789576
33,15,17,Jits_Phase_5,76,9999,9999,9999,1889289268
33,15,17,Jits_Phase_5,77,9999,9999,9999,1889790068
33,15,17,Jits_Phase_5,78,9999,9999,9999,1890289756
33,15,17,Jits_Phase_5,79,9999,9999,9999,1890789448
33,15,17,Jits_Phase_5,80,9999,9999,9999,1891289200
33,15,17,Jits_Phase_5,81,9999,9999,9999,1891769400
33,15,17,Jits_Phase_5,82,9999,9999,9999,1892269140
33,15,17,Jits_Phase_5,83,9999,9999,9999,1892769856
33,15,17,Jits_Phase_5,84,9999,9999,9999,1893269624
33,15,17,Jits_Phase_5,85,9999,9999,9999,1893769292
33,15,17,Jits_Phase_5,86,9999,9999,9999,1894270012
33,15,17,Jits_Phase_5,87,9999,9999,9999,1894769776
33,15,17,Jits_Phase_5,88,9999,9999,9999,1895269464
33,15,17,Jits_Phase_5,89,9999,9999,9999,1895769152
33,15,17,Jits_Phase_5,90,9999,9999,9999,1896269948
33,15,17,Jits_Phase_5,91,9999,9999,9999,1896769620
33,15,17,Jits_Phase_5,92,9999,9999,9999,1897269360
33,15,17,Jits_Phase_5,93,9999,9999,9999,1897770080
33,15,17,Jits_Phase_5,94,9999,9999,9999,1898269752
33,15,17,Jits_Phase_5,95,9999,9999,9999,1898769504
33,15,17,Jits_Phase_5,96,9999,9999,9999,1899269180
33,15,17,Jits_Phase_5,97,9999,9999,9999,1899719784
33,15,17,Jits_Phase_5,98,9999,9999,9999,1900219460
33,15,17,Jits_Phase_5,99,9999,9999,9999,1900719184
33,15,17,Jits_Phase_5,100,9999,9999,9999,1901219896
33,15,17,Jits_Phase_5,101,9999,9999,9999,1901719648
33,15,17,Jits_Phase_5,102,9999,9999,9999,1902219388
33,15,17,Jits_Phase_5,103,9999,9999,9999,1902720088
33,15,17,Jits_Phase_5,104,9999,9999,9999,1903230024
33,15,17,Jits_Phase_5,105,9999,9999,9999,1903729744
33,15,17,Jits_Phase_5,106,9999,9999,9999,1904229492
33,15,17,Jits_Phase_5,107,9999,9999,9999,1904729168
33,15,17,Jits_Phase_5,108,9999,9999,9999,1905229884
33,15,17,Jits_Phase_5,109,9999,9999,9999,1905729632
33,15,17,Jits_Phase_5,110,9999,9999,9999,1906229324
33,15,17,Jits_Phase_5,111,9999,9999,9999,1906730044
33,15,17,Jits_Phase_5,112,9999,9999,9999,1907229796
33,15,17,Jits_Phase_5,113,9999,9999,9999,1907729472
33,15,17,Jits_Phase_5,114,9999,9999,9999,1908279412
33,15,17,Jits_Phase_5,115,9999,9999,9999,1908779084
33,15,17,Jits_Phase_5,116,9999,9999,9999,1909279808
33,15,17,Jits_Phase_5,117,9999,9999,9999,1909779568
33,15,17,Jits_Phase_5,118,9999,9999,9999,1910279256
33,15,17,Jits_Phase_5,119,9999,9999,9999,1910779972
33,15,17,Jits_Phase_5,120,9999,9999,9999,1911279736
33,15,17,Jits_Phase_5,121,9999,9999,9999,1911779428
33,15,17,Jits_Phase_5,122,9999,9999,9999,1912279116
33,15,17,Jits_Phase_5,123,9999,9999,9999,1912779856
33,15,17,Jits_Phase_5,124,9999,9999,9999,1913279604
33,15,17,Jits_Phase_5,125,9999,9999,9999,1913779280
33,15,17,Jits_Phase_5,126,9999,9999,9999,1914280056
33,15,17,Jits_Phase_5,127,9999,9999,9999,1914779720
33,15,17,Jits_Phase_5,128,9999,9999,9999,1915279472
33,15,17,Jits_Phase_5,129,9999,9999,9999,1915779160
33,15,17,Jits_Phase_5,130,9999,9999,9999,1916279896
33,15,17,Jits_Phase_5,131,9999,9999,9999,1916879984
33,15,17,Jits_Phase_5,132,9999,9999,9999,1917379660
33,15,17,Jits_Phase_5,133,9999,9999,9999,1917879412
33,15,17,Jits_Phase_5,134,9999,9999,9999,1918379104
33,15,17,Jits_Phase_5,135,9999,9999,9999,1918879820
33,15,17,Jits_Phase_5,136,9999,9999,9999,1919379512
33,15,17,Jits_Phase_5,137,9999,9999,9999,1919879260
33,15,17,Jits_Phase_5,138,9999,9999,9999,1920379980
33,15,17,Jits_Phase_5,139,9999,9999,9999,1920879672
33,15,17,Jits_Phase_5,140,9999,9999,9999,1921379420
33,15,17,Jits_Phase_5,141,9999,9999,9999,1921879108
33,15,17,Jits_Phase_5,142,9999,9999,9999,1922379848
33,15,17,Jits_Phase_5,143,9999,9999,9999,1922879612
33,15,17,Jits_Phase_5,144,9999,9999,9999,1923379296
33,15,17,Jits_Phase_5,145,9999,9999,9999,1923880020
33,15,17,Jits_Phase_5,146,9999,9999,9999,1924379712
33,15,17,Jits_Phase_5,147,9999,9999,9999,1924879464
33,15,17,Jits_Phase_5,148,9999,9999,9999,1925379136
33,15,17,Jits_Phase_5,149,9999,9999,9999,1925879876
33,15,17,Jits_Phase_5,150,9999,9999,9999,1926279220
33,15,17,Jits_Phase_5,151,9999,9999,9999,1926780028
33,15,17,Jits_Phase_5,152,9999,9999,9999,1927279716
33,15,17,Jits_Phase_5,153,9999,9999,9999,1927779392
33,15,17,Jits_Phase_5,154,9999,9999,9999,1928279144
33,15,17,Jits_Phase_5,155,9999,9999,9999,1928779864
33,15,17,Jits_Phase_5,156,9999,9999,9999,1929279600
33,15,17,Jits_Phase_5,157,9999,9999,9999,1929779268
33,15,17,Jits_Phase_5,158,9999,9999,9999,1930279992
33,15,17,Jits_Phase_5,159,9999,9999,9999,1930779740
33,15,17,Jits_Phase_5,160,9999,9999,9999,1931279432
33,15,17,Jits_Phase_5,161,9999,9999,9999,1931779184
33,15,17,Jits_Phase_5,162,9999,9999,9999,1932279904
33,15,17,Jits_Phase_5,163,9999,9999,9999,1932779584
33,15,17,Jits_Phase_5,164,9999,9999,9999,1933279332
33,15,17,Jits_Phase_5,165,9999,9999,9999,1933780056
33,15,17,Jits_Phase_5,166,9999,9999,9999,1934279804
33,15,17,Jits_Phase_5,167,9999,9999,9999,1934779480
33,15,17,Jits_Phase_5,168,9999,9999,9999,1935279208
33,15,17,Jits_Phase_5,169,9999,9999,9999,1935779900
33,16,15,Jits_Phase_8,0,5,56,103,2131816728
33,16,15,Jits_Phase_8,1,5,63,98,2131819824
33,16,15,Jits_Phase_8,2,5,80,127,2131822876
33,16,15,Jits_Phase_8,0,5,56,103,2132616668
33,16,15,Jits_Phase_8,1,5,63,98,2132619616
33,16,15,Jits_Phase_8,2,5,80,127,2132622812
33,16,15,Jits_Phase_8,0,5,80,127,2133356912
33,16,15,Jits_Phase_8,1,5,63,98,2133446996
33,16,15,Jits_Phase_8,2,5,56,103,2133457116
33,16,15,Jits_Phase_8,0,5,56,103,2134177052
33,16,15,Jits_Phase_8,1,5,63,98,2134187620
33,16,15,Jits_Phase_8,2,5,80,127,2134276700
33,16,15,Jits_Phase_8,0,5,63,98,2134947188
33,16,15,Jits_Phase_8,1,5,80,127,2134977012
33,16,15,Jits_Phase_8,2,1,48,56,2135001704
33,16,15,Jits_Phase_8,3,5,56,103,2135006756
33,16,15,Jits_Phase_8,0,1,48,51,2135711768
33,16,15,Jits_Phase_8,1,5,56,103,2135746860
33,16,15,Jits_Phase_8,2,5,80,127,2135847464
33,16,15,Jits_Phase_8,3,5,63,98,2135896544
33,16,15,Jits_Phase_8,0,1,48,52,2136514976
33,16,15,Jits_Phase_8,1,5,56,103,2136546692
33,16,15,Jits_Phase_8,2,5,80,127,2136596892
33,16,15,Jits_Phase_8,3,5,63,98,2136636816
33,16,15,Jits_Phase_8,0,1,48,45,2137346124
33,16,15,Jits_Phase_8,1,5,80,127,2137377084
33,16,15,Jits_Phase_8,2,5,63,98,2137406760
33,16,15,Jits_Phase_8,3,5,56,103,2137476424
33,16,15,Jits_Phase_8,0,1,48,43,2138190300
33,16,15,Jits_Phase_8,1,5,63,98,2138206440
33,16,15,Jits_Phase_8,2,5,56,103,2138237608
33,16,15,Jits_Phase_8,3,5,80,127,2138296664
33,16,15,Jits_Phase_8,0,5,56,103,2138947092
33,16,15,Jits_Phase_8,1,5,80,127,2138949936
33,16,15,Jits_Phase_8,2,1,48,46,2138961224
33,16,15,Jits_Phase_8,3,5,63,98,2139066668
33,16,15,Jits_Phase_8,0,1,48,48,2139777764
33,16,15,Jits_Phase_8,1,5,56,103,2139826588
33,16,15,Jits_Phase_8,2,5,80,127,2139866528
33,16,15,Jits_Phase_8,3,5,63,98,2139876708
33,16,15,Jits_Phase_8,0,1,48,51,2140576956
33,16,15,Jits_Phase_8,1,5,56,103,2140587392
33,16,15,Jits_Phase_8,2,5,80,127,2140606952
33,16,15,Jits_Phase_8,3,5,63,98,2140686732
33,16,15,Jits_Phase_8,0,1,48,51,2141372132
33,16,15,Jits_Phase_8,1,5,80,127,2141376812
33,16,15,Jits_Phase_8,2,5,56,103,2141477192
33,16,15,Jits_Phase_8,3,5,63,98,2141486340
33,16,15,Jits_Phase_8,0,5,63,98,2142146912
33,16,15,Jits_Phase_8,1,1,48,50,2142195812
33,16,15,Jits_Phase_8,2,5,80,127,2142207296
33,16,15,Jits_Phase_8,3,5,56,103,2142216592
33,16,15,Jits_Phase_8,0,1,48,46,2142899348
33,16,15,Jits_Phase_8,1,5,56,103,2142946576
33,16,15,Jits_Phase_8,2,5,63,98,2143017508
33,16,15,Jits_Phase_8,3,5,80,127,2143020800
33,16,15,Jits_Phase_8,0,1,48,49,2143639052
33,16,15,Jits_Phase_8,1,5,63,98,2143777172
33,16,15,Jits_Phase_8,2,5,56,103,2143827296
33,16,15,Jits_Phase_8,3,5,80,127,2143830364
33,16,15,Jits_Phase_8,0,1,48,44,2144494728
33,16,15,Jits_Phase_8,1,5,56,103,2144537304
33,16,15,Jits_Phase_8,2,5,80,127,2144540288
33,16,15,Jits_Phase_8,3,5,63,98,2144626968
33,16,15,Jits_Phase_8,0,1,48,50,2145321056
33,16,15,Jits_Phase_8,1,5,63,98,2145376676
33,16,15,Jits_Phase_8,2,5,56,103,2145466596
33,16,15,Jits_Phase_8,3,5,80,127,2145496420
33,16,15,Jits_Phase_8,0,5,56,103,2146167152
33,16,15,Jits_Phase_8,1,1,48,46,2146184664
33,16,15,Jits_Phase_8,2,5,63,98,2146266448
33,16,15,Jits_Phase_8,3,5,80,127,2146297152
33,16,15,Jits_Phase_8,0,5,63,98,2146987332
33,16,15,Jits_Phase_8,1,5,56,103,2146996556
33,16,15,Jits_Phase_8,2,1,48,51,2147067104
33,16,15,Jits_Phase_8,3,5,80,127,2147086976
33,16,15,Jits_Phase_8,0,1,48,53,2147775604
33,16,15,Jits_Phase_8,1,5,63,98,2147806716
33,16,15,Jits_Phase_8,2,5,56,103,2147886496
33,16,15,Jits_Phase_8,3,5,80,127,2147889488
33,16,15,Jits_Phase_8,0,1,48,43,2148566768
33,16,15,Jits_Phase_8,1,5,80,127,2148568412
33,16,15,Jits_Phase_8,2,5,63,98,2148587076
33,16,15,Jits_Phase_8,3,5,56,103,2148647388
33,16,15,Jits_Phase_8,0,1,48,44,2149344768
33,16,15,Jits_Phase_8,1,5,56,103,2149407124
33,16,15,Jits_Phase_8,2,5,63,98,2149426532
33,16,15,Jits_Phase_8,3,5,80,127,2149429896
33,16,15,Jits_Phase_8,0,5,63,98,2150146568
33,16,15,Jits_Phase_8,1,1,48,48,2150152232
33,16,15,Jits_Phase_8,2,5,80,127,2150227256
33,16,15,Jits_Phase_8,3,5,56,103,2150236552
33,16,15,Jits_Phase_8,0,1,48,44,2150937520
33,16,15,Jits_Phase_8,1,5,63,98,2150966696
33,16,15,Jits_Phase_8,2,5,56,103,2150987004
33,16,15,Jits_Phase_8,3,5,80,127,2151037336
33,16,15,Jits_Phase_8,0,1,48,51,2151721388
33,16,15,Jits_Phase_8,1,5,80,127,2151767348
33,16,15,Jits_Phase_8,2,5,63,98,2151807208
33,16,15,Jits_Phase_8,3,5,56,103,2151826904
33,16,15,Jits_Phase_8,0,1,48,57,2152540252
33,16,15,Jits_Phase_8,1,5,56,103,2152606984
33,16,15,Jits_Phase_8,2,5,63,98,2152617476
33,16,15,Jits_Phase_8,3,5,80,127,2152636724
33,16,15,Jits_Phase_8,0,5,56,103,2153337120
33,16,15,Jits_Phase_8,1,1,48,59,2153350280
33,16,15,Jits_Phase_8,2,5,63,98,2153427272
33,16,15,Jits_Phase_8,3,5,80,127,2153486672
33,16,15,Jits_Phase_8,0,1,48,46,2154161000
33,16,15,Jits_Phase_8,1,5,80,127,2154166728
33,16,15,Jits_Phase_8,2,5,56,103,2154176776
33,16,15,Jits_Phase_8,3,5,63,98,2154246676
33,16,15,Jits_Phase_8,0,1,48,56,2154978968
33,16,15,Jits_Phase_8,1,5,63,98,2154997124
33,16,15,Jits_Phase_8,2,5,80,127,2155087172
33,16,15,Jits_Phase_8,3,5,56,103,2155096620
33,16,15,Jits_Phase_8,0,5,63,98,2155727216
33,16,15,Jits_Phase_8,1,1,48,54,2155776744
33,16,15,Jits_Phase_8,2,5,80,127,2155778608
33,16,15,Jits_Phase_8,3,5,56,103,2155836752
33,16,15,Jits_Phase_8,0,1,48,52,2156520412
33,16,15,Jits_Phase_8,1,5,56,103,2156546592
33,16,15,Jits_Phase_8,2,5,80,127,2156596648
33,16,15,Jits_Phase_8,3,5,63,98,2156617032
33,16,15,Jits_Phase_8,0,5,56,103,2157316612
33,16,15,Jits_Phase_8,1,1,48,52,2157322352
33,16,15,Jits_Phase_8,2,5,80,127,2157376924
33,16,15,Jits_Phase_8,3,5,63,98,2157446660
33,16,15,Jits_Phase_8,0,5,56,103,2158117208
33,16,15,Jits_Phase_8,1,1,48,48,2158124828
33,16,15,Jits_Phase_8,2,5,80,127,2158146876
33,16,15,Jits_Phase_8,3,5,63,98,2158176552
33,16,15,Jits_Phase_8,0,1,48,52,2158848536
33,16,15,Jits_Phase_8,1,5,56,103,2158956808
33,16,15,Jits_Phase_8,2,5,80,127,2158977492
33,16,15,Jits_Phase_8,3,5,63,98,2159036860
33,16,15,Jits_Phase_8,0,1,48,58,2159683868
33,16,15,Jits_Phase_8,1,5,80,127,2159836384
33,16,15,Jits_Phase_8,2,5,56,103,2159846952
33,16,15,Jits_Phase_8,3,5,63,98,2159857148
33,16,15,Jits_Phase_8,0,1,48,55,2160586688
33,16,15,Jits_Phase_8,1,5,56,103,2160597276
33,16,15,Jits_Phase_8,2,5,80,127,2160637436
33,16,15,Jits_Phase_8,3,5,63,98,2160666888
33,16,15,Jits_Phase_8,0,5,56,103,2161367600
33,16,15,Jits_Phase_8,1,5,63,98,2161397052
33,16,15,Jits_Phase_8,2,1,48,54,2161432376
33,16,15,Jits_Phase_8,3,5,80,127,2161437204
33,16,15,Jits_Phase_8,0,5,80,127,2162116952
33,16,15,Jits_Phase_8,1,5,63,98,2162167228
33,16,15,Jits_Phase_8,2,1,48,52,2162180760
33,16,15,Jits_Phase_8,3,5,56,103,2162186560
33,16,15,Jits_Phase_8,0,1,48,51,2162918184
33,16,15,Jits_Phase_8,1,5,56,103,2162946384
33,16,15,Jits_Phase_8,2,5,80,127,2163016948
33,16,15,Jits_Phase_8,3,5,63,98,2163076440
33,16,15,Jits_Phase_8,0,5,80,127,2163747272
33,16,15,Jits_Phase_8,1,1,48,43,2163760876
33,16,15,Jits_Phase_8,2,5,63,98,2163837476
33,16,15,Jits_Phase_8,3,5,56,103,2163856648
33,16,15,Jits_Phase_8,0,1,48,43,2164532472
33,16,15,Jits_Phase_8,1,5,63,98,2164567344
33,16,15,Jits_Phase_8,2,5,56,103,2164586832
33,16,15,Jits_Phase_8,3,5,80,127,2164626768
33,16,15,Jits_Phase_8,0,1,48,49,2165291396
33,16,15,Jits_Phase_8,1,5,80,127,2165327312
33,16,15,Jits_Phase_8,2,5,63,98,2165346580
33,16,15,Jits_Phase_8,3,5,56,103,2165426532
33,16,15,Jits_Phase_8,0,1,48,51,2166102092
33,16,15,Jits_Phase_8,1,5,63,98,2166116732
33,16,15,Jits_Phase_8,2,5,56,103,2166227252
33,16,15,Jits_Phase_8,3,5,80,127,2166230316
33,16,15,Jits_Phase_8,0,1,48,54,2166904452
33,16,15,Jits_Phase_8,1,5,63,98,2166937156
33,16,15,Jits_Phase_8,2,5,56,103,2166947300
33,16,15,Jits_Phase_8,3,5,80,127,2166950216
33,16,15,Jits_Phase_8,0,1,48,54,2167674148
33,16,15,Jits_Phase_8,1,5,56,103,2167717364
33,16,15,Jits_Phase_8,2,5,80,127,2167837152
33,16,15,Jits_Phase_8,3,5,63,98,2167877012
33,16,15,Jits_Phase_8,0,1,48,55,2168518752
33,16,15,Jits_Phase_8,1,5,56,103,2168536308
33,16,15,Jits_Phase_8,2,5,80,127,2168617284
33,16,15,Jits_Phase_8,3,5,63,98,2168636772
33,16,15,Jits_Phase_8,0,1,48,52,2169328096
33,16,15,Jits_Phase_8,1,5,56,103,2169337260
33,16,15,Jits_Phase_8,2,5,63,98,2169446856
33,16,15,Jits_Phase_8,3,5,80,127,2169450224
33,16,15,Jits_Phase_8,0,1,48,58,2170167708
33,16,15,Jits_Phase_8,1,5,56,103,2170177096
33,16,15,Jits_Phase_8,2,5,80,127,2170206552
33,16,15,Jits_Phase_8,3,5,63,98,2170227156
33,16,15,Jits_Phase_8,0,1,48,61,2170937500
33,16,15,Jits_Phase_8,1,5,63,98,2170967340
33,16,15,Jits_Phase_8,2,5,56,103,2170976712
33,16,15,Jits_Phase_8,3,5,80,127,2170987056
33,16,15,Jits_Phase_8,0,1,48,58,2171673252
33,16,15,Jits_Phase_8,1,5,80,127,2171757048
33,16,15,Jits_Phase_8,2,5,56,103,2171807040
33,16,15,Jits_Phase_8,3,5,63,98,2171846976
33,16,15,Jits_Phase_8,0,1,48,53,2172537152
33,16,15,Jits_Phase_8,1,5,80,127,2172577060
33,16,15,Jits_Phase_8,2,5,63,98,2172596696
33,16,15,Jits_Phase_8,3,5,56,103,2172647032
33,16,15,Jits_Phase_8,0,1,48,48,2173341800
33,16,15,Jits_Phase_8,1,5,80,127,2173387080
33,16,15,Jits_Phase_8,2,5,56,103,2173416756
33,16,15,Jits_Phase_8,3,5,63,98,2173486792
33,16,15,Jits_Phase_8,0,1,48,53,2174228700
33,16,15,Jits_Phase_8,1,5,56,103,2174237036
33,16,15,Jits_Phase_8,2,5,80,127,2174247232
33,16,15,Jits_Phase_8,3,5,63,98,2174287096
33,16,15,Jits_Phase_8,0,5,56,103,2174946892
33,16,15,Jits_Phase_8,1,5,63,98,2174967056
33,16,15,Jits_Phase_8,2,5,80,127,2175036736
33,16,15,Jits_Phase_8,3,1,48,50,2175037700
33,16,15,Jits_Phase_8,0,1,48,48,2175731192
33,16,15,Jits_Phase_8,1,5,63,98,2175766960
33,16,15,Jits_Phase_8,2,5,80,127,2175827264
33,16,15,Jits_Phase_8,3,5,56,103,2175846972
33,16,15,Jits_Phase_8,0,1,48,46,2176500164
33,16,15,Jits_Phase_8,1,5,80,127,2176557508
33,16,15,Jits_Phase_8,2,5,56,103,2176587036
33,16,15,Jits_Phase_8,3,5,63,98,2176616768
33,16,15,Jits_Phase_8,0,1,48,44,2177318056
33,16,15,Jits_Phase_8,1,5,56,103,2177357036
33,16,15,Jits_Phase_8,2,5,63,98,2177416812
33,16,15,Jits_Phase_8,3,5,80,127,2177476928
33,16,15,Jits_Phase_8,0,1,48,48,2178168308
33,16,15,Jits_Phase_8,1,5,80,127,2178177476
33,16,15,Jits_Phase_8,2,5,56,103,2178196960
33,16,15,Jits_Phase_8,3,5,63,98,2178266664
33,16,15,Jits_Phase_8,0,5,80,127,2178977264
33,16,15,Jits_Phase_8,1,5,63,98,2178996752
33,16,15,Jits_Phase_8,2,5,56,103,2179027252
33,16,15,Jits_Phase_8,3,1,48,51,2179039584
33,16,15,Jits_Phase_8,0,5,80,127,2179766696
33,16,15,Jits_Phase_8,1,5,63,98,2179787160
33,16,15,Jits_Phase_8,2,1,48,46,2179807664
33,16,15,Jits_Phase_8,3,5,56,103,2179846492
33,16,15,Jits_Phase_8,0,1,48,46,2180560588
33,16,15,Jits_Phase_8,1,5,80,127,2180567584
33,16,15,Jits_Phase_8,2,5,56,103,2180666776
33,16,15,Jits_Phase_8,3,5,63,98,2180696524
33,16,15,Jits_Phase_8,0,5,63,98,2181356864
33,16,15,Jits_Phase_8,1,5,80,127,2181407288
33,16,15,Jits_Phase_8,2,5,56,103,2181426400
33,16,15,Jits_Phase_8,3,1,48,46,2181431912
33,16,15,Jits_Phase_8,0,5,80,127,2182196548
33,16,15,Jits_Phase_8,1,5,56,103,2182227568
33,16,15,Jits_Phase_8,2,5,63,98,2182230560
33,16,15,Jits_Phase_8,3,1,48,51,2182243716
33,16,15,Jits_Phase_8,0,1,48,52,2183036660
33,16,15,Jits_Phase_8,1,5,63,98,2183046504
33,16,15,Jits_Phase_8,2,5,56,103,2183086616
33,16,15,Jits_Phase_8,3,5,80,127,2183106928
33,16,15,Jits_Phase_8,0,5,80,127,2183807532
33,16,15,Jits_Phase_8,1,1,48,57,2183861548
33,16,15,Jits_Phase_8,2,5,63,98,2183887496
33,16,15,Jits_Phase_8,3,5,56,103,2183927284
33,16,15,Jits_Phase_8,0,5,63,98,2184626520
33,16,15,Jits_Phase_8,1,1,48,54,2184696024
33,16,15,Jits_Phase_8,2,5,80,127,2184706532
33,16,15,Jits_Phase_8,3,5,56,103,2184726840
33,16,15,Jits_Phase_8,0,5,56,103,2185467408
33,16,15,Jits_Phase_8,1,1,48,51,2185475884
33,16,15,Jits_Phase_8,2,5,63,98,2185477600
33,16,15,Jits_Phase_8,3,5,80,127,2185517388
33,16,15,Jits_Phase_8,0,5,56,103,2186187168
33,16,15,Jits_Phase_8,1,5,80,127,2186190160
33,16,15,Jits_Phase_8,2,1,48,54,2186231864
33,16,15,Jits_Phase_8,3,5,63,98,2186327620
33,16,15,Jits_Phase_8,0,5,56,103,2186976740
33,16,15,Jits_Phase_8,1,1,48,54,2187055240
33,16,15,Jits_Phase_8,2,5,63,98,2187066720
33,16,15,Jits_Phase_8,3,5,80,127,2187137376
33,16,15,Jits_Phase_8,0,1,48,54,2187838296
33,16,15,Jits_Phase_8,1,5,63,98,2187857276
33,16,15,Jits_Phase_8,2,5,80,127,2187860564
33,16,15,Jits_Phase_8,3,5,56,103,2187916616
33,16,15,Jits_Phase_8,0,1,48,55,2188685780
33,16,15,Jits_Phase_8,1,5,80,127,2188696960
33,16,15,Jits_Phase_8,2,5,56,103,2188717496
33,16,15,Jits_Phase_8,3,5,63,98,2188726720
33,16,15,Jits_Phase_8,0,5,56,103,2189406656
33,16,15,Jits_Phase_8,1,5,63,98,2189416924
33,16,15,Jits_Phase_8,2,5,80,127,2189486408
33,16,15,Jits_Phase_8,3,1,48,51,2189492444
33,16,15,Jits_Phase_8,0,5,80,127,2190207324
33,16,15,Jits_Phase_8,1,1,48,51,2190224220
33,16,15,Jits_Phase_8,2,5,56,103,2190256424
33,16,15,Jits_Phase_8,3,5,63,98,2190306696
33,16,15,Jits_Phase_8,0,1,48,48,2191005668
33,16,15,Jits_Phase_8,1,5,56,103,2191087208
33,16,15,Jits_Phase_8,2,5,63,98,2191097180
33,16,15,Jits_Phase_8,3,5,80,127,2191137252
33,16,15,Jits_Phase_8,0,5,56,103,2191827268
33,16,15,Jits_Phase_8,1,1,48,42,2191837808
33,16,15,Jits_Phase_8,2,5,63,98,2191867200
33,16,15,Jits_Phase_8,3,5,80,127,2191917404
33,16,15,Jits_Phase_8,0,5,80,127,2192587184
33,16,15,Jits_Phase_8,1,1,48,51,2192600420
33,16,15,Jits_Phase_8,2,5,56,103,2192637232
33,16,15,Jits_Phase_8,3,5,63,98,2192656720
33,16,15,Jits_Phase_8,0,5,80,127,2193397068
33,16,15,Jits_Phase_8,1,1,48,52,2193410080
33,16,15,Jits_Phase_8,2,5,63,98,2193456632
33,16,15,Jits_Phase_8,3,5,56,103,2193537308
33,16,15,Jits_Phase_8,0,5,80,127,2194177368
33,16,15,Jits_Phase_8,1,5,56,103,2194217380
33,16,15,Jits_Phase_8,2,1,48,52,2194235888
33,16,15,Jits_Phase_8,3,5,63,98,2194237756
33,16,15,Jits_Phase_8,0,1,48,50,2194992600
33,16,15,Jits_Phase_8,1,5,56,103,2195027244
33,16,15,Jits_Phase_8,2,5,80,127,2195036468
33,16,15,Jits_Phase_8,3,5,63,98,2195076480
33,16,15,Jits_Phase_8,0,1,48,52,2195800228
33,16,15,Jits_Phase_8,1,5,56,103,2195896840
33,16,15,Jits_Phase_8,2,5,63,98,2195936556
33,16,15,Jits_Phase_8,3,5,80,127,2195940068
33,16,15,Jits_Phase_8,0,5,63,98,2196567360
33,16,15,Jits_Phase_8,1,5,80,127,2196607224
33,16,15,Jits_Phase_8,2,1,48,51,2196644988
33,16,15,Jits_Phase_8,3,5,56,103,2196676848
33,16,15,Jits_Phase_8,0,5,63,98,2197336400
33,16,15,Jits_Phase_8,1,1,48,52,2197398184
33,16,15,Jits_Phase_8,2,5,56,103,2197417264
33,16,15,Jits_Phase_8,3,5,80,127,2197476828
33,16,15,Jits_Phase_8,0,5,80,127,2198146572
33,16,15,Jits_Phase_8,1,1,48,41,2198163548
33,16,15,Jits_Phase_8,2,5,63,98,2198196716
33,16,15,Jits_Phase_8,3,5,56,103,2198227288
33,16,15,Jits_Phase_8,0,5,56,103,2198936900
33,16,15,Jits_Phase_8,1,1,48,47,2198954416
33,16,15,Jits_Phase_8,2,5,63,98,2198987120
33,16,15,Jits_Phase_8,3,5,80,127,2198997388
33,16,15,Jits_Phase_8,0,1,48,43,2199725948
33,16,15,Jits_Phase_8,1,5,56,103,2199746948
33,16,15,Jits_Phase_8,2,5,63,98,2199856696
33,16,15,Jits_Phase_8,3,5,80,127,2199877080
33,16,15,Jits_Phase_8,0,5,63,98,2200546860
33,16,15,Jits_Phase_8,1,1,48,46,2200582492
33,16,15,Jits_Phase_8,2,5,80,127,2200596984
33,16,15,Jits_Phase_8,3,5,56,103,2200687100
33,16,15,Jits_Phase_8,0,5,63,98,2201337328
33,16,15,Jits_Phase_8,1,5,80,127,2201366856
33,16,15,Jits_Phase_8,2,1,48,44,2201419272
33,16,15,Jits_Phase_8,3,5,56,103,2201457128
33,16,15,Jits_Phase_8,0,5,63,98,2202136936
33,16,15,Jits_Phase_8,1,5,56,103,2202147132
33,16,15,Jits_Phase_8,2,1,48,54,2202221192
33,16,15,Jits_Phase_8,3,5,80,127,2202246696
33,16,15,Jits_Phase_8,0,1,48,57,2202990748
33,16,15,Jits_Phase_8,1,5,63,98,2203037024
33,16,15,Jits_Phase_8,2,5,80,127,2203066852
33,16,15,Jits_Phase_8,3,5,56,103,2203096660
33,16,15,Jits_Phase_8,0,1,48,57,2203838864
33,16,15,Jits_Phase_8,1,5,80,127,2203857468
33,16,15,Jits_Phase_8,2,5,63,98,2203866468
33,16,15,Jits_Phase_8,3,5,56,103,2203897340
33,16,15,Jits_Phase_8,0,5,80,127,2204556672
33,16,15,Jits_Phase_8,1,5,63,98,2204577084
33,16,15,Jits_Phase_8,2,5,56,103,2204627508
33,16,15,Jits_Phase_8,3,1,48,50,2204645020
33,16,15,Jits_Phase_8,0,1,48,50,2205350964
33,16,15,Jits_Phase_8,1,5,63,98,2205387180
33,16,15,Jits_Phase_8,2,5,80,127,2205447556
33,16,15,Jits_Phase_8,3,5,56,103,2205466892
33,16,15,Jits_Phase_8,0,5,63,98,2206146864
33,16,15,Jits_Phase_8,1,1,48,56,2206171260
33,16,15,Jits_Phase_8,2,5,56,103,2206197132
33,16,15,Jits_Phase_8,3,5,80,127,2206207328
33,16,15,Jits_Phase_8,0,1,48,54,2206916688
33,16,15,Jits_Phase_8,1,5,56,103,2206977544
33,16,15,Jits_Phase_8,2,5,80,127,2206986692
33,16,15,Jits_Phase_8,3,5,63,98,2207086924
33,16,15,Jits_Phase_8,0,5,80,127,2207737304
33,16,15,Jits_Phase_8,1,5,63,98,2207746452
33,16,15,Jits_Phase_8,2,1,48,49,2207796848
33,16,15,Jits_Phase_8,3,5,56,103,2207896940
33,16,15,Jits_Phase_8,0,5,63,98,2208547536
33,16,15,Jits_Phase_8,1,5,80,127,2208587404
33,16,15,Jits_Phase_8,2,1,48,54,2208612020
33,16,15,Jits_Phase_8,3,5,56,103,2208667136
33,16,15,Jits_Phase_8,0,5,56,103,2209296872
33,16,15,Jits_Phase_8,1,1,48,51,2209378512
33,16,15,Jits_Phase_8,2,5,80,127,2209397188
33,16,15,Jits_Phase_8,3,5,63,98,2209416452
33,16,15,Jits_Phase_8,0,5,80,127,2210117252
33,16,15,Jits_Phase_8,1,5,56,103,2210127600
33,16,15,Jits_Phase_8,2,1,48,52,2210137620
33,16,15,Jits_Phase_8,3,5,63,98,2210217228
33,16,15,Jits_Phase_8,0,5,56,103,2210916808
33,16,15,Jits_Phase_8,1,5,63,98,2210937196
33,16,15,Jits_Phase_8,2,1,48,51,2210984008
33,16,15,Jits_Phase_8,3,5,80,127,2211017228
33,16,15,Jits_Phase_8,0,5,63,98,2211667288
33,16,15,Jits_Phase_8,1,1,48,51,2211710784
33,16,15,Jits_Phase_8,2,5,56,103,2211757440
33,16,15,Jits_Phase_8,3,5,80,127,2211760576
33,16,15,Jits_Phase_8,0,5,56,103,2212496704
33,16,15,Jits_Phase_8,1,1,48,51,2212501392
33,16,15,Jits_Phase_8,2,5,80,127,2212557112
33,16,15,Jits_Phase_8,3,5,63,98,2212567532
33,16,15,Jits_Phase_8,0,1,48,52,2213322532
33,16,15,Jits_Phase_8,1,5,80,127,2213346768
33,16,15,Jits_Phase_8,2,5,56,103,2213357036
33,16,15,Jits_Phase_8,3,5,63,98,2213360176
33,16,15,Jits_Phase_8,0,5,56,103,2214106592
33,16,15,Jits_Phase_8,1,5,80,127,2214116640
33,16,15,Jits_Phase_8,2,1,48,43,2214128152
33,16,15,Jits_Phase_8,3,5,63,98,2214137168
33,16,15,Jits_Phase_8,0,1,48,52,2214867964
33,16,15,Jits_Phase_8,1,5,63,98,2214876612
33,16,15,Jits_Phase_8,2,5,80,127,2214937076
33,16,15,Jits_Phase_8,3,5,56,103,2214987260
33,16,15,Jits_Phase_8,0,1,48,53,2215687732
33,16,15,Jits_Phase_8,1,5,63,98,2215757208
33,16,15,Jits_Phase_8,2,5,56,103,2215767404
33,16,15,Jits_Phase_8,3,5,80,127,2215816468
33,16,15,Jits_Phase_8,0,5,63,98,2216456436
33,16,15,Jits_Phase_8,1,5,80,127,2216477120
33,16,15,Jits_Phase_8,2,5,56,103,2216487168
33,16,15,Jits_Phase_8,3,1,48,51,2216532900
33,16,15,Jits_Phase_8,0,5,63,98,2217257304
33,16,15,Jits_Phase_8,1,5,80,127,2217260592
33,16,15,Jits_Phase_8,2,1,48,58,2217293228
33,16,15,Jits_Phase_8,3,5,56,103,2217297308
33,16,15,Jits_Phase_8,0,1,48,50,2218072512
33,16,15,Jits_Phase_8,1,5,63,98,2218126792
33,16,15,Jits_Phase_8,2,5,80,127,2218157392
33,16,15,Jits_Phase_8,3,5,56,103,2218166748
33,16,15,Jits_Phase_8,0,5,56,103,2218877184
33,16,15,Jits_Phase_8,1,5,80,127,2218907108
33,16,15,Jits_Phase_8,2,1,48,52,2218924324
33,16,15,Jits_Phase_8,3,5,63,98,2218936852
33,16,15,Jits_Phase_8,0,1,48,51,2219708188
33,16,15,Jits_Phase_8,1,5,63,98,2219777444
33,16,15,Jits_Phase_8,2,5,56,103,2219817364
33,16,15,Jits_Phase_8,3,5,80,127,2219820432
33,16,15,Jits_Phase_8,0,5,80,127,2220476888
33,16,15,Jits_Phase_8,1,5,56,103,2220556908
33,16,15,Jits_Phase_8,2,1,48,51,2220604992
33,16,15,Jits_Phase_8,3,5,63,98,2220606804
33,16,15,Jits_Phase_8,0,5,80,127,2221257032
33,16,15,Jits_Phase_8,1,5,56,103,2221276520
33,16,15,Jits_Phase_8,2,5,63,98,2221366724
33,16,15,Jits_Phase_8,3,1,48,57,2221404312
33,16,15,Jits_Phase_8,0,5,80,127,2222096884
33,16,15,Jits_Phase_8,1,5,63,98,2222136896
33,16,15,Jits_Phase_8,2,1,48,50,2222167960
33,16,15,Jits_Phase_8,3,5,56,103,2222176752
33,16,15,Jits_Phase_8,0,5,63,98,2222906696
33,16,15,Jits_Phase_8,1,1,48,48,2222911308
33,16,15,Jits_Phase_8,2,5,80,127,2222967228
33,16,15,Jits_Phase_8,3,5,56,103,2222996980
33,16,15,Jits_Phase_8,0,1,48,46,2223682132
33,16,15,Jits_Phase_8,1,5,56,103,2223746600
33,16,15,Jits_Phase_8,2,5,80,127,2223777932
33,16,15,Jits_Phase_8,3,5,63,98,2223867164
33,16,15,Jits_Phase_8,0,5,56,103,2224557624
33,16,15,Jits_Phase_8,1,1,48,50,2224604508
33,16,15,Jits_Phase_8,2,5,80,127,2224667008
33,16,15,Jits_Phase_8,3,5,63,98,2224696756
33,16,15,Jits_Phase_8,0,5,56,103,2225407672
33,16,15,Jits_Phase_8,1,1,48,52,2225457096
33,16,15,Jits_Phase_8,2,5,63,98,2225466712
33,16,15,Jits_Phase_8,3,5,80,127,2225496608
33,16,15,Jits_Phase_8,0,5,56,103,2226177560
33,16,15,Jits_Phase_8,1,5,63,98,2226247092
33,16,15,Jits_Phase_8,2,1,48,50,2226252380
33,16,15,Jits_Phase_8,3,5,80,127,2226266572
33,16,15,Jits_Phase_8,0,5,80,127,2226946540
33,16,15,Jits_Phase_8,1,5,63,98,2226966928
33,16,15,Jits_Phase_8,2,5,56,103,2227017052
33,16,15,Jits_Phase_8,3,1,48,48,2227022264
33,16,15,Jits_Phase_8,0,5,63,98,2227766688
33,16,15,Jits_Phase_8,1,1,48,47,2227769808
33,16,15,Jits_Phase_8,2,5,80,127,2227776880
33,16,15,Jits_Phase_8,3,5,56,103,2227827004
33,16,15,Jits_Phase_8,0,1,48,52,2228553212
33,16,15,Jits_Phase_8,1,5,63,98,2228567632
33,16,15,Jits_Phase_8,2,5,80,127,2228636968
33,16,15,Jits_Phase_8,3,5,56,103,2228656664
33,16,15,Jits_Phase_8,0,5,63,98,2229396992
33,16,15,Jits_Phase_8,1,5,80,127,2229400304
33,16,15,Jits_Phase_8,2,1,48,52,2229403800
33,16,15,Jits_Phase_8,3,5,56,103,2229466612
33,16,15,Jits_Phase_8,0,5,80,127,2230146472
33,16,15,Jits_Phase_8,1,5,56,103,2230166856
33,16,15,Jits_Phase_8,2,5,63,98,2230177000
33,16,15,Jits_Phase_8,3,1,48,52,2230234960
33,16,15,Jits_Phase_8,0,1,48,51,2230943820
33,16,15,Jits_Phase_8,1,5,56,103,2230966632
33,16,15,Jits_Phase_8,2,5,63,98,2231056900
33,16,15,Jits_Phase_8,3,5,80,127,2231060336
33,16,15,Jits_Phase_8,0,5,80,127,2231736720
33,16,15,Jits_Phase_8,1,5,56,103,2231746840
33,16,15,Jits_Phase_8,2,5,63,98,2231767376
33,16,15,Jits_Phase_8,3,1,48,47,2231811392
33,16,15,Jits_Phase_8,0,5,63,98,2232536560
33,16,15,Jits_Phase_8,1,1,48,40,2232555044
33,16,15,Jits_Phase_8,2,5,80,127,2232596944
33,16,15,Jits_Phase_8,3,5,56,103,2232607512
33,16,15,Jits_Phase_8,0,1,48,53,2233319792
33,16,15,Jits_Phase_8,1,5,63,98,2233406956
33,16,15,Jits_Phase_8,2,5,80,127,2233436468
33,16,15,Jits_Phase_8,3,5,56,103,2233476476
33,16,15,Jits_Phase_8,0,1,48,47,2234180016
33,16,15,Jits_Phase_8,1,5,56,103,2234197352
33,16,15,Jits_Phase_8,2,5,80,127,2234206648
33,16,15,Jits_Phase_8,3,5,63,98,2234246512
33,16,15,Jits_Phase_8,0,5,80,127,2234957256
33,16,15,Jits_Phase_8,1,1,48,53,2234991612
33,16,15,Jits_Phase_8,2,5,56,103,2235037144
33,16,15,Jits_Phase_8,3,5,63,98,2235047192
33,16,15,Jits_Phase_8,0,1,48,51,2235800776
33,16,15,Jits_Phase_8,1,5,80,127,2235807320
33,16,15,Jits_Phase_8,2,5,56,103,2235887116
33,16,15,Jits_Phase_8,3,5,63,98,2235897148
33,16,15,Jits_Phase_8,0,1,48,49,2236625052
33,16,15,Jits_Phase_8,1,5,80,127,2236646724
33,16,15,Jits_Phase_8,2,5,56,103,2236697224
33,16,15,Jits_Phase_8,3,5,63,98,2236747336
33,16,15,Jits_Phase_8,0,1,48,54,2237470864
33,16,15,Jits_Phase_8,1,5,56,103,2237587004
33,16,15,Jits_Phase_8,2,5,63,98,2237590000
33,16,15,Jits_Phase_8,3,5,80,127,2237637156
33,16,15,Jits_Phase_8,0,1,48,51,2238335880
33,16,15,Jits_Phase_8,1,5,56,103,2238407104
33,16,15,Jits_Phase_8,2,5,63,98,2238436840
33,16,15,Jits_Phase_8,3,5,80,127,2238447108
33,16,15,Jits_Phase_8,0,5,63,98,2239116648
33,16,15,Jits_Phase_8,1,5,56,103,2239187328
33,16,15,Jits_Phase_8,2,1,48,43,2239212620
33,16,15,Jits_Phase_8,3,5,80,127,2239236324
33,16,15,Jits_Phase_8,0,1,48,43,2239940296
33,16,15,Jits_Phase_8,1,5,63,98,2239947072
33,16,15,Jits_Phase_8,2,5,56,103,2239957412
33,16,15,Jits_Phase_8,3,5,80,127,2239960404
33,16,15,Jits_Phase_8,0,1,48,43,2240662396
33,16,15,Jits_Phase_8,1,5,80,127,2240696672
33,16,15,Jits_Phase_8,2,5,56,103,2240757044
33,16,15,Jits_Phase_8,3,5,63,98,2240847324
33,16,15,Jits_Phase_8,0,5,80,127,2241496508
33,16,15,Jits_Phase_8,1,1,48,47,2241518664
33,16,15,Jits_Phase_8,2,5,56,103,2241596900
33,16,15,Jits_Phase_8,3,5,63,98,2241636824
33,16,15,Jits_Phase_8,0,5,56,103,2242347380
33,16,15,Jits_Phase_8,1,5,63,98,2242367088
33,16,15,Jits_Phase_8,2,5,80,127,2242407100
33,16,15,Jits_Phase_8,3,1,48,50,2242420704
33,16,15,Jits_Phase_8,0,5,63,98,2243117408
33,16,15,Jits_Phase_8,1,5,56,103,2243136744
33,16,15,Jits_Phase_8,2,1,48,48,2243167132
33,16,15,Jits_Phase_8,3,5,80,127,2243237228
33,16,15,Jits_Phase_8,0,5,63,98,2243906972
33,16,15,Jits_Phase_8,1,1,48,41,2243977672
33,16,15,Jits_Phase_8,2,5,80,127,2244016680
33,16,15,Jits_Phase_8,3,5,56,103,2244047100
33,16,15,Jits_Phase_8,0,5,56,103,2244727036
33,16,15,Jits_Phase_8,1,5,63,98,2244756864
33,16,15,Jits_Phase_8,2,5,80,127,2244807012
33,16,15,Jits_Phase_8,3,1,48,49,2244828264
33,16,15,Jits_Phase_8,0,5,63,98,2245497136
33,16,15,Jits_Phase_8,1,5,56,103,2245526912
33,16,15,Jits_Phase_8,2,5,80,127,2245577036
33,16,15,Jits_Phase_8,3,1,48,41,2245627356
33,16,15,Jits_Phase_8,0,5,56,103,2246326660
33,16,15,Jits_Phase_8,1,5,63,98,2246347268
33,16,15,Jits_Phase_8,2,1,48,50,2246369420
33,16,15,Jits_Phase_8,3,5,80,127,2246426980
33,16,15,Jits_Phase_8,0,5,63,98,2247096836
33,16,15,Jits_Phase_8,1,1,48,48,2247137348
33,16,15,Jits_Phase_8,2,5,56,103,2247157148
33,16,15,Jits_Phase_8,3,5,80,127,2247186748
33,16,15,Jits_Phase_8,0,5,56,103,2247937496
33,16,15,Jits_Phase_8,1,1,48,46,2247948488
33,16,15,Jits_Phase_8,2,5,80,127,2247996836
33,16,15,Jits_Phase_8,3,5,63,98,2248036696
33,16,15,Jits_Phase_8,0,5,63,98,2248716820
33,16,15,Jits_Phase_8,1,5,56,103,2248777136
33,16,15,Jits_Phase_8,2,1,48,46,2248805588
33,16,15,Jits_Phase_8,3,5,80,127,2248846584
33,16,15,Jits_Phase_8,0,1,48,51,2249566300
33,16,15,Jits_Phase_8,1,5,56,103,2249597188
33,16,15,Jits_Phase_8,2,5,63,98,2249606708
33,16,15,Jits_Phase_8,3,5,80,127,2249609996
33,16,15,Jits_Phase_8,0,5,63,98,2250336564
33,16,15,Jits_Phase_8,1,1,48,57,2250363648
33,16,15,Jits_Phase_8,2,5,56,103,2250396972
33,16,15,Jits_Phase_8,3,5,80,127,2250399888
33,16,15,Jits_Phase_8,0,5,63,98,2251116980
33,16,15,Jits_Phase_8,1,5,80,127,2251146732
33,16,15,Jits_Phase_8,2,1,48,50,2251148072
33,16,15,Jits_Phase_8,3,5,56,103,2251166984
33,16,15,Jits_Phase_8,0,5,56,103,2251846984
33,16,15,Jits_Phase_8,1,1,48,52,2251878200
33,16,15,Jits_Phase_8,2,5,63,98,2251897104
33,16,15,Jits_Phase_8,3,5,80,127,2251977072
33,16,15,Jits_Phase_8,0,5,80,127,2252546376
33,16,15,Jits_Phase_8,1,5,63,98,2252587588
33,16,15,Jits_Phase_8,2,5,56,103,2252606848
33,16,15,Jits_Phase_8,3,1,48,44,2252646980
33,16,15,Jits_Phase_8,0,1,48,47,2253270436
33,16,15,Jits_Phase_8,1,5,56,103,2253416848
33,16,15,Jits_Phase_8,2,5,80,127,2253427264
33,16,15,Jits_Phase_8,3,5,63,98,2253446604
33,16,15,Jits_Phase_8,0,1,48,38,2254171416
33,16,15,Jits_Phase_8,1,5,56,103,2254197068
33,16,15,Jits_Phase_8,2,5,63,98,2254247296
33,16,15,Jits_Phase_8,3,5,80,127,2254277176
33,16,15,Jits_Phase_8,0,5,56,103,2254946640
33,16,15,Jits_Phase_8,1,5,63,98,2254957060
33,16,15,Jits_Phase_8,2,1,48,40,2255006684
33,16,15,Jits_Phase_8,3,5,80,127,2255008324
33,16,15,Jits_Phase_8,0,5,56,103,2255737408
33,16,15,Jits_Phase_8,1,5,80,127,2255740400
33,16,15,Jits_Phase_8,2,1,48,49,2255743592
33,16,15,Jits_Phase_8,3,5,63,98,2255896916
33,16,15,Jits_Phase_8,0,5,63,98,2256557352
33,16,15,Jits_Phase_8,1,1,48,49,2256572604
33,16,15,Jits_Phase_8,2,5,56,103,2256627248
33,16,15,Jits_Phase_8,3,5,80,127,2256666964
33,16,15,Jits_Phase_8,0,1,48,52,2257302000
33,16,15,Jits_Phase_8,1,5,63,98,2257397184
33,16,15,Jits_Phase_8,2,5,56,103,2257487152
33,16,15,Jits_Phase_8,3,5,80,127,2257490296
33,16,15,Jits_Phase_8,0,1,48,53,2258138628
33,16,15,Jits_Phase_8,1,5,56,103,2258177536
33,16,15,Jits_Phase_8,2,5,63,98,2258266532
33,16,15,Jits_Phase_8,3,5,80,127,2258276728
33,16,15,Jits_Phase_8,0,5,56,103,2258946360
33,16,15,Jits_Phase_8,1,1,48,51,2258980568
33,16,15,Jits_Phase_8,2,5,63,98,2258996632
33,16,15,Jits_Phase_8,3,5,80,127,2259027352
33,16,15,Jits_Phase_8,0,1,48,48,2259739728
33,16,15,Jits_Phase_8,1,5,63,98,2259827260
33,16,15,Jits_Phase_8,2,5,80,127,2259837296
33,16,15,Jits_Phase_8,3,5,56,103,2259896660
33,16,15,Jits_Phase_8,0,5,63,98,2260547016
33,16,15,Jits_Phase_8,1,1,48,54,2260575088
33,16,15,Jits_Phase_8,2,5,80,127,2260607252
33,16,15,Jits_Phase_8,3,5,56,103,2260647216
33,16,15,Jits_Phase_8,0,1,48,53,2261358352
33,16,15,Jits_Phase_8,1,5,56,103,2261447188
33,16,15,Jits_Phase_8,2,5,80,127,2261466360
33,16,15,Jits_Phase_8,3,5,63,98,2261487044
33,16,15,Jits_Phase_8,0,5,63,98,2262167020
33,16,15,Jits_Phase_8,1,1,48,55,2262179728
33,16,15,Jits_Phase_8,2,5,56,103,2262187324
33,16,15,Jits_Phase_8,3,5,80,127,2262227260
33,16,15,Jits_Phase_8,0,1,48,49,2262921384
33,16,15,Jits_Phase_8,1,5,63,98,2262977032
33,16,15,Jits_Phase_8,2,5,80,127,2263006560
33,16,15,Jits_Phase_8,3,5,56,103,2263027224
33,16,15,Jits_Phase_8,0,1,48,54,2263713516
33,16,15,Jits_Phase_8,1,5,80,127,2263747044
33,16,15,Jits_Phase_8,2,5,56,103,2263797096
33,16,15,Jits_Phase_8,3,5,63,98,2263856424
33,16,15,Jits_Phase_8,0,5,63,98,2264536392
33,16,15,Jits_Phase_8,1,1,48,52,2264579668
33,16,15,Jits_Phase_8,2,5,56,103,2264657312
33,16,15,Jits_Phase_8,3,5,80,127,2264686896
33,16,15,Jits_Phase_8,0,5,80,127,2265377284
33,16,15,Jits_Phase_8,1,5,63,98,2265396548
33,16,15,Jits_Phase_8,2,1,48,51,2265405444
33,16,15,Jits_Phase_8,3,5,56,103,2265467340
33,16,15,Jits_Phase_8,0,5,63,98,2266197436
33,16,15,Jits_Phase_8,1,5,56,103,2266206588
33,16,15,Jits_Phase_8,2,1,48,56,2266211652
33,16,15,Jits_Phase_8,3,5,80,127,2266286396
33,16,15,Jits_Phase_8,0,1,48,48,2266970936
33,16,15,Jits_Phase_8,1,5,56,103,2267056780
33,16,15,Jits_Phase_8,2,5,80,127,2267087188
33,16,15,Jits_Phase_8,3,5,63,98,2267096560
33,16,15,Jits_Phase_8,0,9999,9999,9999,2132214912
33,16,15,Jits_Phase_8,1,9999,9999,9999,2133014628
33,16,15,Jits_Phase_8,2,9999,9999,9999,2133814364
33,16,15,Jits_Phase_8,3,9999,9999,9999,2134614096
33,16,15,Jits_Phase_8,4,9999,9999,9999,2135414852
33,16,15,Jits_Phase_8,5,9999,9999,9999,2136214612
33,16,15,Jits_Phase_8,6,9999,9999,9999,2137014388
33,16,15,Jits_Phase_8,7,9999,9999,9999,2137814144
33,16,15,Jits_Phase_8,8,9999,9999,9999,2138614880
33,16,15,Jits_Phase_8,9,9999,9999,9999,2139414624
33,16,15,Jits_Phase_8,10,9999,9999,9999,2140214328
33,16,15,Jits_Phase_8,11,9999,9999,9999,2141014088
33,16,15,Jits_Phase_8,12,9999,9999,9999,2141814892
33,16,15,Jits_Phase_8,13,9999,9999,9999,2142614648
33,16,15,Jits_Phase_8,14,9999,9999,9999,2143414336
33,16,15,Jits_Phase_8,15,9999,9999,9999,2144214084
33,16,15,Jits_Phase_8,16,9999,9999,9999,2145014872
33,16,15,Jits_Phase_8,17,9999,9999,9999,2145814636
33,16,15,Jits_Phase_8,18,9999,9999,9999,2146614396
33,16,15,Jits_Phase_8,19,9999,9999,9999,2147414096
33,16,15,Jits_Phase_8,20,9999,9999,9999,2148214896
33,16,15,Jits_Phase_8,21,9999,9999,9999,2149014584
33,16,15,Jits_Phase_8,22,9999,9999,9999,2149814352
33,16,15,Jits_Phase_8,23,9999,9999,9999,2150614108
33,16,15,Jits_Phase_8,24,9999,9999,9999,2151414908
33,16,15,Jits_Phase_8,25,9999,9999,9999,2152214588
33,16,15,Jits_Phase_8,26,9999,9999,9999,2153014344
33,16,15,Jits_Phase_8,27,9999,9999,9999,2153814104
33,16,15,Jits_Phase_8,28,9999,9999,9999,2154614844
33,16,15,Jits_Phase_8,29,9999,9999,9999,2155414612
33,16,15,Jits_Phase_8,30,9999,9999,9999,2156194904
33,16,15,Jits_Phase_8,31,9999,9999,9999,2156994660
33,16,15,Jits_Phase_8,32,9999,9999,9999,2157794416
33,16,15,Jits_Phase_8,33,9999,9999,9999,2158594112
33,16,15,Jits_Phase_8,34,9999,9999,9999,2159394928
33,16,15,Jits_Phase_8,35,9999,9999,9999,2160194616
33,16,15,Jits_Phase_8,36,9999,9999,9999,2160994380
33,16,15,Jits_Phase_8,37,9999,9999,9999,2161794140
33,16,15,Jits_Phase_8,38,9999,9999,9999,2162594904
33,16,15,Jits_Phase_8,39,9999,9999,9999,2163394680
33,16,15,Jits_Phase_8,40,9999,9999,9999,2164194364
33,16,15,Jits_Phase_8,41,9999,9999,9999,2164994136
33,16,15,Jits_Phase_8,42,9999,9999,9999,2165794936
33,16,15,Jits_Phase_8,43,9999,9999,9999,2166594684
33,16,15,Jits_Phase_8,44,9999,9999,9999,2167394424
33,16,15,Jits_Phase_8,45,9999,9999,9999,2168194108
33,16,15,Jits_Phase_8,46,9999,9999,9999,2168994936
33,16,15,Jits_Phase_8,47,9999,9999,9999,2169794616
33,16,15,Jits_Phase_8,48,9999,9999,9999,2170614900
33,16,15,Jits_Phase_8,49,9999,9999,9999,2171414652
33,16,15,Jits_Phase_8,50,9999,9999,9999,2172214336
33,16,15,Jits_Phase_8,51,9999,9999,9999,2173014092
33,16,15,Jits_Phase_8,52,9999,9999,9999,2173814900
33,16,15,Jits_Phase_8,53,9999,9999,9999,2174614588
33,16,15,Jits_Phase_8,54,9999,9999,9999,2175414360
33,16,15,Jits_Phase_8,55,9999,9999,9999,2176214136
33,16,15,Jits_Phase_8,56,9999,9999,9999,2177014864
33,16,15,Jits_Phase_8,57,9999,9999,9999,2177814624
33,16,15,Jits_Phase_8,58,9999,9999,9999,2178614384
33,16,15,Jits_Phase_8,59,9999,9999,9999,2179414140
33,16,15,Jits_Phase_8,60,9999,9999,9999,2180214884
33,16,15,Jits_Phase_8,61,9999,9999,9999,2181014588
33,16,15,Jits_Phase_8,62,9999,9999,9999,2181814364
33,16,15,Jits_Phase_8,63,9999,9999,9999,2182614108
33,16,15,Jits_Phase_8,64,9999,9999,9999,2183454792
33,16,15,Jits_Phase_8,65,9999,9999,9999,2184254552
33,16,15,Jits_Phase_8,66,9999,9999,9999,2185054328
33,16,15,Jits_Phase_8,67,9999,9999,9999,2185855064
33,16,15,Jits_Phase_8,68,9999,9999,9999,2186654776
33,16,15,Jits_Phase_8,69,9999,9999,9999,2187454552
33,16,15,Jits_Phase_8,70,9999,9999,9999,2188254320
33,16,15,Jits_Phase_8,71,9999,9999,9999,2189055032
33,16,15,Jits_Phase_8,72,9999,9999,9999,2189854792
33,16,15,Jits_Phase_8,73,9999,9999,9999,2190654564
33,16,15,Jits_Phase_8,74,9999,9999,9999,2191454272
33,16,15,Jits_Phase_8,75,9999,9999,9999,2192255080
33,16,15,Jits_Phase_8,76,9999,9999,9999,2193054800
33,16,15,Jits_Phase_8,77,9999,9999,9999,2193854576
33,16,15,Jits_Phase_8,78,9999,9999,9999,2194654268
33,16,15,Jits_Phase_8,79,9999,9999,9999,2195455084
33,16,15,Jits_Phase_8,80,9999,9999,9999,2196254848
33,16,15,Jits_Phase_8,81,9999,9999,9999,2197014596
33,16,15,Jits_Phase_8,82,9999,9999,9999,2197814356
33,16,15,Jits_Phase_8,83,9999,9999,9999,2198614112
33,16,15,Jits_Phase_8,84,9999,9999,9999,2199414848
33,16,15,Jits_Phase_8,85,9999,9999,9999,2200214628
33,16,15,Jits_Phase_8,86,9999,9999,9999,2201014332
33,16,15,Jits_Phase_8,87,9999,9999,9999,2201814084
33,16,15,Jits_Phase_8,88,9999,9999,9999,2202614888
33,16,15,Jits_Phase_8,89,9999,9999,9999,2203414652
33,16,15,Jits_Phase_8,90,9999,9999,9999,2204214344
33,16,15,Jits_Phase_8,91,9999,9999,9999,2205014100
33,16,15,Jits_Phase_8,92,9999,9999,9999,2205814848
33,16,15,Jits_Phase_8,93,9999,9999,9999,2206614600
33,16,15,Jits_Phase_8,94,9999,9999,9999,2207414380
33,16,15,Jits_Phase_8,95,9999,9999,9999,2208214112
33,16,15,Jits_Phase_8,96,9999,9999,9999,2209014856
33,16,15,Jits_Phase_8,97,9999,9999,9999,2209734752
33,16,15,Jits_Phase_8,98,9999,9999,9999,2210534456
33,16,15,Jits_Phase_8,99,9999,9999,9999,2211334236
33,16,15,Jits_Phase_8,100,9999,9999,9999,2212134968
33,16,15,Jits_Phase_8,101,9999,9999,9999,2212934728
33,16,15,Jits_Phase_8,102,9999,9999,9999,2213734492
33,16,15,Jits_Phase_8,103,9999,9999,9999,2214534248
33,16,15,Jits_Phase_8,104,9999,9999,9999,2215335020
33,16,15,Jits_Phase_8,105,9999,9999,9999,2216134784
33,16,15,Jits_Phase_8,106,9999,9999,9999,2216934456
33,16,15,Jits_Phase_8,107,9999,9999,9999,2217734272
33,16,15,Jits_Phase_8,108,9999,9999,9999,2218535000
33,16,15,Jits_Phase_8,109,9999,9999,9999,2219334760
33,16,15,Jits_Phase_8,110,9999,9999,9999,2220134460
33,16,15,Jits_Phase_8,111,9999,9999,9999,2220934220
33,16,15,Jits_Phase_8,112,9999,9999,9999,2221734984
33,16,15,Jits_Phase_8,113,9999,9999,9999,2222534756
33,16,15,Jits_Phase_8,114,9999,9999,9999,2223414388
33,16,15,Jits_Phase_8,115,9999,9999,9999,2224214072
33,16,15,Jits_Phase_8,116,9999,9999,9999,2225014880
33,16,15,Jits_Phase_8,117,9999,9999,9999,2225814584
33,16,15,Jits_Phase_8,118,9999,9999,9999,2226614388
33,16,15,Jits_Phase_8,119,9999,9999,9999,2227414080
33,16,15,Jits_Phase_8,120,9999,9999,9999,2228214896
33,16,15,Jits_Phase_8,121,9999,9999,9999,2229014656
33,16,15,Jits_Phase_8,122,9999,9999,9999,2229814332
33,16,15,Jits_Phase_8,123,9999,9999,9999,2230614080
33,16,15,Jits_Phase_8,124,9999,9999,9999,2231414892
33,16,15,Jits_Phase_8,125,9999,9999,9999,2232214640
33,16,15,Jits_Phase_8,126,9999,9999,9999,2233014360
33,16,15,Jits_Phase_8,127,9999,9999,9999,2233814120
33,16,15,Jits_Phase_8,128,9999,9999,9999,2234614856
33,16,15,Jits_Phase_8,129,9999,9999,9999,2235414612
33,16,15,Jits_Phase_8,130,9999,9999,9999,2236214392
33,16,15,Jits_Phase_8,131,9999,9999,9999,2237174876
33,16,15,Jits_Phase_8,132,9999,9999,9999,2237974628
33,16,15,Jits_Phase_8,133,9999,9999,9999,2238774392
33,16,15,Jits_Phase_8,134,9999,9999,9999,2239574080
33,16,15,Jits_Phase_8,135,9999,9999,9999,2240374876
33,16,15,Jits_Phase_8,136,9999,9999,9999,2241174636
33,16,15,Jits_Phase_8,137,9999,9999,9999,2241974392
33,16,15,Jits_Phase_8,138,9999,9999,9999,2242774092
33,16,15,Jits_Phase_8,139,9999,9999,9999,2243574908
33,16,15,Jits_Phase_8,140,9999,9999,9999,2244374592
33,16,15,Jits_Phase_8,141,9999,9999,9999,2245174352
33,16,15,Jits_Phase_8,142,9999,9999,9999,2245974116
33,16,15,Jits_Phase_8,143,9999,9999,9999,2246774848
33,16,15,Jits_Phase_8,144,9999,9999,9999,2247574640
33,16,15,Jits_Phase_8,145,9999,9999,9999,2248374328
33,16,15,Jits_Phase_8,146,9999,9999,9999,2249174104
33,16,15,Jits_Phase_8,147,9999,9999,9999,2249974900
33,16,15,Jits_Phase_8,148,9999,9999,9999,2250774652
33,16,15,Jits_Phase_8,149,9999,9999,9999,2251574332
33,16,15,Jits_Phase_8,150,9999,9999,9999,2252214368
33,16,15,Jits_Phase_8,151,9999,9999,9999,2253014136
33,16,15,Jits_Phase_8,152,9999,9999,9999,2253814884
33,16,15,Jits_Phase_8,153,9999,9999,9999,2254614648
33,16,15,Jits_Phase_8,154,9999,9999,9999,2255414400
33,16,15,Jits_Phase_8,155,9999,9999,9999,2256214084
33,16,15,Jits_Phase_8,156,9999,9999,9999,2257014904
33,16,15,Jits_Phase_8,157,9999,9999,9999,2257814612
33,16,15,Jits_Phase_8,158,9999,9999,9999,2258614372
33,16,15,Jits_Phase_8,159,9999,9999,9999,2259414124
33,16,15,Jits_Phase_8,160,9999,9999,9999,2260214876
33,16,15,Jits_Phase_8,161,9999,9999,9999,2261014632
33,16,15,Jits_Phase_8,162,9999,9999,9999,2261814400
33,16,15,Jits_Phase_8,163,9999,9999,9999,2262614080
33,16,15,Jits_Phase_8,164,9999,9999,9999,2263414884
33,16,15,Jits_Phase_8,165,9999,9999,9999,2264214592
33,16,15,Jits_Phase_8,166,9999,9999,9999,2265014352
33,16,15,Jits_Phase_8,167,9999,9999,9999,2265814112
33,16,15,Jits_Phase_8,168,9999,9999,9999,2266614860
33,16,15,Jits_Phase_8,169,9999,9999,9999,2267414628
33,17,19,Jits_Linear_5,0,5,56,103,2280344916
33,17,19,Jits_Linear_5,1,5,63,98,2280348012
33,17,19,Jits_Linear_5,2,5,80,127,2280351432
33,17,19,Jits_Linear_5,0,5,56,103,2280825356
33,17,19,Jits_Linear_5,1,5,63,98,2280828456
33,17,19,Jits_Linear_5,2,5,80,127,2280831576
33,17,19,Jits_Linear_5,0,5,56,103,2281304416
33,17,19,Jits_Linear_5,1,5,80,127,2281314612
33,17,19,Jits_Linear_5,2,5,63,98,2281335220
33,17,19,Jits_Linear_5,0,5,63,98,2281734400
33,17,19,Jits_Linear_5,1,5,80,127,2281765272
33,17,19,Jits_Linear_5,2,5,56,103,2281774492
33,17,19,Jits_Linear_5,0,1,48,53,2282234160
33,17,19,Jits_Linear_5,1,5,80,127,2282275240
33,17,19,Jits_Linear_5,2,5,56,103,2282285364
33,17,19,Jits_Linear_5,3,5,63,98,2282315188
33,17,19,Jits_Linear_5,0,1,48,55,2282720056
33,17,19,Jits_Linear_5,1,5,63,98,2282754408
33,17,19,Jits_Linear_5,2,5,56,103,2282785280
33,17,19,Jits_Linear_5,3,5,80,127,2282795480
33,17,19,Jits_Linear_5,0,5,56,103,2283194616
33,17,19,Jits_Linear_5,1,1,48,61,2283236772
33,17,19,Jits_Linear_5,2,5,63,98,2283245188
33,17,19,Jits_Linear_5,3,5,80,127,2283265352
33,17,19,Jits_Linear_5,0,5,80,127,2283685184
33,17,19,Jits_Linear_5,1,5,63,98,2283735388
33,17,19,Jits_Linear_5,2,1,48,63,2283741044
33,17,19,Jits_Linear_5,3,5,56,103,2283775392
33,17,19,Jits_Linear_5,0,5,56,103,2284174672
33,17,19,Jits_Linear_5,1,5,63,98,2284205348
33,17,19,Jits_Linear_5,2,1,48,70,2284246452
33,17,19,Jits_Linear_5,3,5,80,127,2284275244
33,17,19,Jits_Linear_5,0,5,56,103,2284665160
33,17,19,Jits_Linear_5,1,5,80,127,2284724532
33,17,19,Jits_Linear_5,2,1,48,59,2284725424
33,17,19,Jits_Linear_5,3,5,63,98,2284755248
33,17,19,Jits_Linear_5,0,5,56,103,2285165092
33,17,19,Jits_Linear_5,1,5,63,98,2285175068
33,17,19,Jits_Linear_5,2,1,48,62,2285202000
33,17,19,Jits_Linear_5,3,5,80,127,2285215172
33,17,19,Jits_Linear_5,0,5,63,98,2285655344
33,17,19,Jits_Linear_5,1,1,48,60,2285675176
33,17,19,Jits_Linear_5,2,5,80,127,2285735164
33,17,19,Jits_Linear_5,3,5,56,103,2285744460
33,17,19,Jits_Linear_5,0,1,48,64,2286158668
33,17,19,Jits_Linear_5,1,5,63,98,2286205304
33,17,19,Jits_Linear_5,2,5,56,103,2286245192
33,17,19,Jits_Linear_5,3,5,80,127,2286248408
33,17,19,Jits_Linear_5,0,5,56,103,2286665208
33,17,19,Jits_Linear_5,1,5,63,98,2286675256
33,17,19,Jits_Linear_5,2,1,48,63,2286691028
33,17,19,Jits_Linear_5,3,5,80,127,2286715412
33,17,19,Jits_Linear_5,0,1,48,58,2287152052
33,17,19,Jits_Linear_5,1,5,56,103,2287154560
33,17,19,Jits_Linear_5,2,5,63,98,2287157704
33,17,19,Jits_Linear_5,3,5,80,127,2287174948
33,17,19,Jits_Linear_5,0,1,48,57,2287629256
33,17,19,Jits_Linear_5,1,5,80,127,2287674992
33,17,19,Jits_Linear_5,2,5,56,103,2287684968
33,17,19,Jits_Linear_5,3,5,63,98,2287754632
33,17,19,Jits_Linear_5,0,5,63,98,2288174612
33,17,19,Jits_Linear_5,1,5,56,103,2288194924
33,17,19,Jits_Linear_5,2,1,48,56,2288196188
33,17,19,Jits_Linear_5,3,5,80,127,2288274788
33,17,19,Jits_Linear_5,0,1,48,57,2288677164
33,17,19,Jits_Linear_5,1,5,56,103,2288694800
33,17,19,Jits_Linear_5,2,5,80,127,2288734592
33,17,19,Jits_Linear_5,3,5,63,98,2288745008
33,17,19,Jits_Linear_5,0,1,48,56,2289179696
33,17,19,Jits_Linear_5,1,5,80,127,2289195312
33,17,19,Jits_Linear_5,2,5,63,98,2289225064
33,17,19,Jits_Linear_5,3,5,56,103,2289265004
33,17,19,Jits_Linear_5,0,1,48,54,2289691068
33,17,19,Jits_Linear_5,1,5,56,103,2289724744
33,17,19,Jits_Linear_5,2,5,63,98,2289754420
33,17,19,Jits_Linear_5,3,5,80,127,2289804756
33,17,19,Jits_Linear_5,0,1,48,53,2290205524
33,17,19,Jits_Linear_5,1,5,80,127,2290234920
33,17,19,Jits_Linear_5,2,5,56,103,2290274860
33,17,19,Jits_Linear_5,3,5,63,98,2290285060
33,17,19,Jits_Linear_5,0,5,80,127,2290734540
33,17,19,Jits_Linear_5,1,1,48,53,2290739756
33,17,19,Jits_Linear_5,2,5,63,98,2290775376
33,17,19,Jits_Linear_5,3,5,56,103,2290834928
33,17,19,Jits_Linear_5,0,5,56,103,2291254896
33,17,19,Jits_Linear_5,1,5,80,127,2291265092
33,17,19,Jits_Linear_5,2,1,48,54,2291265984
33,17,19,Jits_Linear_5,3,5,63,98,2291344736
33,17,19,Jits_Linear_5,0,5,80,127,2291774952
33,17,19,Jits_Linear_5,1,1,48,55,2291807596
33,17,19,Jits_Linear_5,2,5,63,98,2291835340
33,17,19,Jits_Linear_5,3,5,56,103,2291865040
33,17,19,Jits_Linear_5,0,5,56,103,2292294964
33,17,19,Jits_Linear_5,1,1,48,57,2292317108
33,17,19,Jits_Linear_5,2,5,80,127,2292354304
33,17,19,Jits_Linear_5,3,5,63,98,2292395240
33,17,19,Jits_Linear_5,0,1,48,51,2292823636
33,17,19,Jits_Linear_5,1,5,56,103,2292874684
33,17,19,Jits_Linear_5,2,5,63,98,2292884828
33,17,19,Jits_Linear_5,3,5,80,127,2292888488
33,17,19,Jits_Linear_5,0,5,80,127,2293354808
33,17,19,Jits_Linear_5,1,1,48,49,2293382040
33,17,19,Jits_Linear_5,2,5,63,98,2293444964
33,17,19,Jits_Linear_5,3,5,56,103,2293455236
33,17,19,Jits_Linear_5,0,5,56,103,2293885364
33,17,19,Jits_Linear_5,1,5,63,98,2293888612
33,17,19,Jits_Linear_5,2,5,80,127,2293891808
33,17,19,Jits_Linear_5,3,1,48,54,2293906632
33,17,19,Jits_Linear_5,0,1,48,53,2294380796
33,17,19,Jits_Linear_5,1,5,80,127,2294435100
33,17,19,Jits_Linear_5,2,5,63,98,2294485736
33,17,19,Jits_Linear_5,3,5,56,103,2294515112
33,17,19,Jits_Linear_5,0,1,48,58,2294915632
33,17,19,Jits_Linear_5,1,5,56,103,2294945204
33,17,19,Jits_Linear_5,2,5,80,127,2294955548
33,17,19,Jits_Linear_5,3,5,63,98,2295025064
33,17,19,Jits_Linear_5,0,1,48,59,2295476776
33,17,19,Jits_Linear_5,1,5,56,103,2295484896
33,17,19,Jits_Linear_5,2,5,63,98,2295505356
33,17,19,Jits_Linear_5,3,5,80,127,2295564700
33,17,19,Jits_Linear_5,0,5,80,127,2296015156
33,17,19,Jits_Linear_5,1,1,48,62,2296020888
33,17,19,Jits_Linear_5,2,5,63,98,2296084836
33,17,19,Jits_Linear_5,3,5,56,103,2296105520
33,17,19,Jits_Linear_5,0,1,48,63,2296536332
33,17,19,Jits_Linear_5,1,5,80,127,2296575464
33,17,19,Jits_Linear_5,2,5,56,103,2296584764
33,17,19,Jits_Linear_5,3,5,63,98,2296594740
33,17,19,Jits_Linear_5,0,1,48,62,2297067476
33,17,19,Jits_Linear_5,1,5,80,127,2297104820
33,17,19,Jits_Linear_5,2,5,56,103,2297125356
33,17,19,Jits_Linear_5,3,5,63,98,2297194876
33,17,19,Jits_Linear_5,0,1,48,62,2297618040
33,17,19,Jits_Linear_5,1,5,56,103,2297654556
33,17,19,Jits_Linear_5,2,5,80,127,2297685728
33,17,19,Jits_Linear_5,3,5,63,98,2297704772
33,17,19,Jits_Linear_5,0,1,48,68,2298193260
33,17,19,Jits_Linear_5,1,5,63,98,2298195452
33,17,19,Jits_Linear_5,2,5,56,103,2298254648
33,17,19,Jits_Linear_5,3,5,80,127,2298285620
33,17,19,Jits_Linear_5,0,5,63,98,2298734928
33,17,19,Jits_Linear_5,1,5,80,127,2298738220
33,17,19,Jits_Linear_5,2,1,48,65,2298739632
33,17,19,Jits_Linear_5,3,5,56,103,2298824932
33,17,19,Jits_Linear_5,0,1,48,64,2299290484
33,17,19,Jits_Linear_5,1,5,56,103,2299305428
33,17,19,Jits_Linear_5,2,5,63,98,2299334956
33,17,19,Jits_Linear_5,3,5,80,127,2299374896
33,17,19,Jits_Linear_5,0,5,63,98,2299855468
33,17,19,Jits_Linear_5,1,1,48,72,2299871248
33,17,19,Jits_Linear_5,2,5,56,103,2299895252
33,17,19,Jits_Linear_5,3,5,80,127,2299914668
33,17,19,Jits_Linear_5,0,5,63,98,2300415544
33,17,19,Jits_Linear_5,1,1,48,66,2300426688
33,17,19,Jits_Linear_5,2,5,56,103,2300455480
33,17,19,Jits_Linear_5,3,5,80,127,2300464408
33,17,19,Jits_Linear_5,0,5,80,127,2300944684
33,17,19,Jits_Linear_5,1,1,48,67,2300997400
33,17,19,Jits_Linear_5,2,5,63,98,2301015260
33,17,19,Jits_Linear_5,3,5,56,103,2301034820
33,17,19,Jits_Linear_5,0,5,56,103,2301494588
33,17,19,Jits_Linear_5,1,5,80,127,2301515196
33,17,19,Jits_Linear_5,2,5,63,98,2301555132
33,17,19,Jits_Linear_5,3,1,48,62,2301584484
33,17,19,Jits_Linear_5,0,5,63,98,2302065384
33,17,19,Jits_Linear_5,1,5,80,127,2302084428
33,17,19,Jits_Linear_5,2,5,56,103,2302125364
33,17,19,Jits_Linear_5,3,1,48,67,2302165044
33,17,19,Jits_Linear_5,0,5,63,98,2302625332
33,17,19,Jits_Linear_5,1,5,56,103,2302644448
33,17,19,Jits_Linear_5,2,5,80,127,2302654796
33,17,19,Jits_Linear_5,3,1,48,58,2302657616
33,17,19,Jits_Linear_5,0,1,48,62,2303180948
33,17,19,Jits_Linear_5,1,5,80,127,2303185248
33,17,19,Jits_Linear_5,2,5,56,103,2303204664
33,17,19,Jits_Linear_5,3,5,63,98,2303234560
33,17,19,Jits_Linear_5,0,1,48,65,2303732940
33,17,19,Jits_Linear_5,1,5,56,103,2303825264
33,17,19,Jits_Linear_5,2,5,80,127,2303828184
33,17,19,Jits_Linear_5,3,5,63,98,2303844588
33,17,19,Jits_Linear_5,0,5,63,98,2304314620
33,17,19,Jits_Linear_5,1,1,48,49,2304329496
33,17,19,Jits_Linear_5,2,5,56,103,2304344512
33,17,19,Jits_Linear_5,3,5,80,127,2304404856
33,17,19,Jits_Linear_5,0,1,48,61,2304885300
33,17,19,Jits_Linear_5,1,5,63,98,2304965068
33,17,19,Jits_Linear_5,2,5,56,103,2304975192
33,17,19,Jits_Linear_5,3,5,80,127,2304984996
33,17,19,Jits_Linear_5,0,5,56,103,2305485296
33,17,19,Jits_Linear_5,1,5,80,127,2305515196
33,17,19,Jits_Linear_5,2,1,48,48,2305516160
33,17,19,Jits_Linear_5,3,5,63,98,2305525312
33,17,19,Jits_Linear_5,0,1,48,59,2306071192
33,17,19,Jits_Linear_5,1,5,63,98,2306094384
33,17,19,Jits_Linear_5,2,5,56,103,2306104580
33,17,19,Jits_Linear_5,3,5,80,127,2306125264
33,17,19,Jits_Linear_5,0,5,56,103,2306595124
33,17,19,Jits_Linear_5,1,1,48,55,2306645076
33,17,19,Jits_Linear_5,2,5,63,98,2306654460
33,17,19,Jits_Linear_5,3,5,80,127,2306657980
33,17,19,Jits_Linear_5,0,1,48,58,2307176528
33,17,19,Jits_Linear_5,1,5,80,127,2307195208
33,17,19,Jits_Linear_5,2,5,56,103,2307204432
33,17,19,Jits_Linear_5,3,5,63,98,2307275172
33,17,19,Jits_Linear_5,0,5,80,127,2307764528
33,17,19,Jits_Linear_5,1,1,48,53,2307784508
33,17,19,Jits_Linear_5,2,5,56,103,2307835180
33,17,19,Jits_Linear_5,3,5,63,98,2307844404
33,17,19,Jits_Linear_5,0,5,63,98,2308385228
33,17,19,Jits_Linear_5,1,5,56,103,2308395500
33,17,19,Jits_Linear_5,2,1,48,64,2308405444
33,17,19,Jits_Linear_5,3,5,80,127,2308414832
33,17,19,Jits_Linear_5,0,5,80,127,2308914584
33,17,19,Jits_Linear_5,1,1,48,59,2308961524
33,17,19,Jits_Linear_5,2,5,63,98,2308975192
33,17,19,Jits_Linear_5,3,5,56,103,2309015232
33,17,19,Jits_Linear_5,0,1,48,61,2309539244
33,17,19,Jits_Linear_5,1,5,56,103,2309545344
33,17,19,Jits_Linear_5,2,5,63,98,2309554568
33,17,19,Jits_Linear_5,3,5,80,127,2309594436
33,17,19,Jits_Linear_5,0,5,56,103,2310095088
33,17,19,Jits_Linear_5,1,1,48,59,2310111980
33,17,19,Jits_Linear_5,2,5,80,127,2310125128
33,17,19,Jits_Linear_5,3,5,63,98,2310175180
33,17,19,Jits_Linear_5,0,1,48,58,2310707732
33,17,19,Jits_Linear_5,1,5,56,103,2310725144
33,17,19,Jits_Linear_5,2,5,63,98,2310765008
33,17,19,Jits_Linear_5,3,5,80,127,2310768300
33,17,19,Jits_Linear_5,0,1,48,53,2311300312
33,17,19,Jits_Linear_5,1,5,56,103,2311314828
33,17,19,Jits_Linear_5,2,5,63,98,2311325172
33,17,19,Jits_Linear_5,3,5,80,127,2311344364
33,17,19,Jits_Linear_5,0,5,56,103,2311864792
33,17,19,Jits_Linear_5,1,5,80,127,2311867856
33,17,19,Jits_Linear_5,2,1,48,54,2311879896
33,17,19,Jits_Linear_5,3,5,63,98,2311904800
33,17,19,Jits_Linear_5,0,1,48,57,2312452488
33,17,19,Jits_Linear_5,1,5,63,98,2312494392
33,17,19,Jits_Linear_5,2,5,56,103,2312525044
33,17,19,Jits_Linear_5,3,5,80,127,2312544752
33,17,19,Jits_Linear_5,0,1,48,56,2313018916
33,17,19,Jits_Linear_5,1,5,80,127,2313065024
33,17,19,Jits_Linear_5,2,5,56,103,2313075072
33,17,19,Jits_Linear_5,3,5,63,98,2313085268
33,17,19,Jits_Linear_5,0,1,48,62,2313625540
33,17,19,Jits_Linear_5,1,5,56,103,2313664904
33,17,19,Jits_Linear_5,2,5,80,127,2313704920
33,17,19,Jits_Linear_5,3,5,63,98,2313734952
33,17,19,Jits_Linear_5,0,1,48,65,2314254400
33,17,19,Jits_Linear_5,1,5,63,98,2314275100
33,17,19,Jits_Linear_5,2,5,80,127,2314285300
33,17,19,Jits_Linear_5,3,5,56,103,2314294820
33,17,19,Jits_Linear_5,0,1,48,67,2314841872
33,17,19,Jits_Linear_5,1,5,56,103,2314854648
33,17,19,Jits_Linear_5,2,5,63,98,2314925628
33,17,19,Jits_Linear_5,3,5,80,127,2314934852
33,17,19,Jits_Linear_5,0,1,48,62,2315458468
33,17,19,Jits_Linear_5,1,5,80,127,2315465020
33,17,19,Jits_Linear_5,2,5,56,103,2315475512
33,17,19,Jits_Linear_5,3,5,63,98,2315524668
33,17,19,Jits_Linear_5,0,1,48,65,2316080348
33,17,19,Jits_Linear_5,1,5,80,127,2316084728
33,17,19,Jits_Linear_5,2,5,56,103,2316144896
33,17,19,Jits_Linear_5,3,5,63,98,2316174796
33,17,19,Jits_Linear_5,0,5,56,103,2316694848
33,17,19,Jits_Linear_5,1,5,80,127,2316697916
33,17,19,Jits_Linear_5,2,5,63,98,2316734788
33,17,19,Jits_Linear_5,3,1,48,65,2316756932
33,17,19,Jits_Linear_5,0,1,48,62,2317330860
33,17,19,Jits_Linear_5,1,5,56,103,2317334864
33,17,19,Jits_Linear_5,2,5,63,98,2317364692
33,17,19,Jits_Linear_5,3,5,80,127,2317374812
33,17,19,Jits_Linear_5,0,1,48,66,2317905256
33,17,19,Jits_Linear_5,1,5,63,98,2317954508
33,17,19,Jits_Linear_5,2,5,80,127,2317964628
33,17,19,Jits_Linear_5,3,5,56,103,2317974996
33,17,19,Jits_Linear_5,0,1,48,67,2318504244
33,17,19,Jits_Linear_5,1,5,80,127,2318514604
33,17,19,Jits_Linear_5,2,5,56,103,2318564656
33,17,19,Jits_Linear_5,3,5,63,98,2318567652
33,17,19,Jits_Linear_5,0,1,48,67,2319124620
33,17,19,Jits_Linear_5,1,5,56,103,2319164876
33,17,19,Jits_Linear_5,2,5,80,127,2319185260
33,17,19,Jits_Linear_5,3,5,63,98,2319194560
33,17,19,Jits_Linear_5,0,1,48,61,2319720716
33,17,19,Jits_Linear_5,1,5,63,98,2319764832
33,17,19,Jits_Linear_5,2,5,56,103,2319794508
33,17,19,Jits_Linear_5,3,5,80,127,2319814968
33,17,19,Jits_Linear_5,0,1,48,65,2320341568
33,17,19,Jits_Linear_5,1,5,56,103,2320394656
33,17,19,Jits_Linear_5,2,5,80,127,2320404928
33,17,19,Jits_Linear_5,3,5,63,98,2320474520
33,17,19,Jits_Linear_5,0,1,48,67,2320973508
33,17,19,Jits_Linear_5,1,5,63,98,2321004776
33,17,19,Jits_Linear_5,2,5,80,127,2321044816
33,17,19,Jits_Linear_5,3,5,56,103,2321084816
33,17,19,Jits_Linear_5,0,1,48,60,2321613400
33,17,19,Jits_Linear_5,1,5,56,103,2321644964
33,17,19,Jits_Linear_5,2,5,63,98,2321655532
33,17,19,Jits_Linear_5,3,5,80,127,2321674500
33,17,19,Jits_Linear_5,0,1,48,60,2322229048
33,17,19,Jits_Linear_5,1,5,63,98,2322314572
33,17,19,Jits_Linear_5,2,5,80,127,2322335192
33,17,19,Jits_Linear_5,3,5,56,103,2322354604
33,17,19,Jits_Linear_5,0,1,48,64,2322883428
33,17,19,Jits_Linear_5,1,5,56,103,2322885236
33,17,19,Jits_Linear_5,2,5,80,127,2322964736
33,17,19,Jits_Linear_5,3,5,63,98,2322975528
33,17,19,Jits_Linear_5,0,1,48,57,2323504552
33,17,19,Jits_Linear_5,1,5,80,127,2323554624
33,17,19,Jits_Linear_5,2,5,63,98,2323564896
33,17,19,Jits_Linear_5,3,5,56,103,2323594572
33,17,19,Jits_Linear_5,0,5,63,98,2324154588
33,17,19,Jits_Linear_5,1,1,48,58,2324157784
33,17,19,Jits_Linear_5,2,5,80,127,2324194672
33,17,19,Jits_Linear_5,3,5,56,103,2324255284
33,17,19,Jits_Linear_5,0,1,48,59,2324781668
33,17,19,Jits_Linear_5,1,5,63,98,2324815420
33,17,19,Jits_Linear_5,2,5,56,103,2324865552
33,17,19,Jits_Linear_5,3,5,80,127,2324895384
33,17,19,Jits_Linear_5,0,1,48,65,2325419244
33,17,19,Jits_Linear_5,1,5,80,127,2325464532
33,17,19,Jits_Linear_5,2,5,63,98,2325474580
33,17,19,Jits_Linear_5,3,5,56,103,2325545292
33,17,19,Jits_Linear_5,0,1,48,56,2326131184
33,17,19,Jits_Linear_5,1,5,80,127,2326175224
33,17,19,Jits_Linear_5,2,5,56,103,2326185272
33,17,19,Jits_Linear_5,3,5,63,98,2326188488
33,17,19,Jits_Linear_5,0,5,56,103,2326754636
33,17,19,Jits_Linear_5,1,5,80,127,2326775392
33,17,19,Jits_Linear_5,2,5,63,98,2326785364
33,17,19,Jits_Linear_5,3,1,48,50,2326847672
33,17,19,Jits_Linear_5,0,5,63,98,2327404780
33,17,19,Jits_Linear_5,1,1,48,46,2327417412
33,17,19,Jits_Linear_5,2,5,56,103,2327444960
33,17,19,Jits_Linear_5,3,5,80,127,2327465268
33,17,19,Jits_Linear_5,0,1,48,57,2328006728
33,17,19,Jits_Linear_5,1,5,63,98,2328045188
33,17,19,Jits_Linear_5,2,5,56,103,2328105416
33,17,19,Jits_Linear_5,3,5,80,127,2328108632
33,17,19,Jits_Linear_5,0,1,48,66,2328630840
33,17,19,Jits_Linear_5,1,5,56,103,2328664368
33,17,19,Jits_Linear_5,2,5,80,127,2328685052
33,17,19,Jits_Linear_5,3,5,63,98,2328724720
33,17,19,Jits_Linear_5,0,1,48,64,2329271700
33,17,19,Jits_Linear_5,1,5,56,103,2329345536
33,17,19,Jits_Linear_5,2,5,63,98,2329364876
33,17,19,Jits_Linear_5,3,5,80,127,2329375056
33,17,19,Jits_Linear_5,0,1,48,67,2329942304
33,17,19,Jits_Linear_5,1,5,80,127,2329965096
33,17,19,Jits_Linear_5,2,5,56,103,2329994476
33,17,19,Jits_Linear_5,3,5,63,98,2330034588
33,17,19,Jits_Linear_5,0,1,48,65,2330597544
33,17,19,Jits_Linear_5,1,5,80,127,2330625364
33,17,19,Jits_Linear_5,2,5,56,103,2330644928
33,17,19,Jits_Linear_5,3,5,63,98,2330705152
33,17,19,Jits_Linear_5,0,1,48,63,2331259132
33,17,19,Jits_Linear_5,1,5,56,103,2331284960
33,17,19,Jits_Linear_5,2,5,80,127,2331305344
33,17,19,Jits_Linear_5,3,5,63,98,2331364748
33,17,19,Jits_Linear_5,0,1,48,64,2331914464
33,17,19,Jits_Linear_5,1,5,80,127,2331924972
33,17,19,Jits_Linear_5,2,5,56,103,2331935168
33,17,19,Jits_Linear_5,3,5,63,98,2331975108
33,17,19,Jits_Linear_5,0,1,48,63,2332546968
33,17,19,Jits_Linear_5,1,5,63,98,2332585236
33,17,19,Jits_Linear_5,2,5,56,103,2332625324
33,17,19,Jits_Linear_5,3,5,80,127,2332628392
33,17,19,Jits_Linear_5,0,1,48,67,2333185204
33,17,19,Jits_Linear_5,1,5,63,98,2333265248
33,17,19,Jits_Linear_5,2,5,80,127,2333305176
33,17,19,Jits_Linear_5,3,5,56,103,2333335248
33,17,19,Jits_Linear_5,0,1,48,62,2333881500
33,17,19,Jits_Linear_5,1,5,56,103,2333914352
33,17,19,Jits_Linear_5,2,5,63,98,2333924996
33,17,19,Jits_Linear_5,3,5,80,127,2333954300
33,17,19,Jits_Linear_5,0,1,48,70,2334532916
33,17,19,Jits_Linear_5,1,5,80,127,2334575040
33,17,19,Jits_Linear_5,2,5,63,98,2334644588
33,17,19,Jits_Linear_5,3,5,56,103,2334655008
33,17,19,Jits_Linear_5,0,1,48,64,2335240824
33,17,19,Jits_Linear_5,1,5,63,98,2335244828
33,17,19,Jits_Linear_5,2,5,56,103,2335315260
33,17,19,Jits_Linear_5,3,5,80,127,2335324488
33,17,19,Jits_Linear_5,0,1,48,70,2335913312
33,17,19,Jits_Linear_5,1,5,63,98,2335915280
33,17,19,Jits_Linear_5,2,5,56,103,2335934916
33,17,19,Jits_Linear_5,3,5,80,127,2335974780
33,17,19,Jits_Linear_5,0,1,48,72,2336563956
33,17,19,Jits_Linear_5,1,5,56,103,2336595228
33,17,19,Jits_Linear_5,2,5,63,98,2336604672
33,17,19,Jits_Linear_5,3,5,80,127,2336685380
33,17,19,Jits_Linear_5,0,1,48,64,2337211404
33,17,19,Jits_Linear_5,1,5,63,98,2337254744
33,17,19,Jits_Linear_5,2,5,56,103,2337284572
33,17,19,Jits_Linear_5,3,5,80,127,2337325540
33,17,19,Jits_Linear_5,0,1,48,60,2337896900
33,17,19,Jits_Linear_5,1,5,56,103,2337924576
33,17,19,Jits_Linear_5,2,5,63,98,2337965368
33,17,19,Jits_Linear_5,3,5,80,127,2338005292
33,17,19,Jits_Linear_5,0,1,48,56,2338582652
33,17,19,Jits_Linear_5,1,5,80,127,2338605372
33,17,19,Jits_Linear_5,2,5,56,103,2338685160
33,17,19,Jits_Linear_5,3,5,63,98,2338694680
33,17,19,Jits_Linear_5,0,5,56,103,2339325288
33,17,19,Jits_Linear_5,1,5,63,98,2339328352
33,17,19,Jits_Linear_5,2,5,80,127,2339334732
33,17,19,Jits_Linear_5,3,1,48,57,2339336672
33,17,19,Jits_Linear_5,0,1,48,67,2340000504
33,17,19,Jits_Linear_5,1,5,56,103,2340024740
33,17,19,Jits_Linear_5,2,5,63,98,2340045128
33,17,19,Jits_Linear_5,3,5,80,127,2340055696
33,17,19,Jits_Linear_5,0,5,63,98,2340664616
33,17,19,Jits_Linear_5,1,5,80,127,2340674888
33,17,19,Jits_Linear_5,2,1,48,72,2340682712
33,17,19,Jits_Linear_5,3,5,56,103,2340695636
33,17,19,Jits_Linear_5,0,1,48,67,2341334144
33,17,19,Jits_Linear_5,1,5,63,98,2341354844
33,17,19,Jits_Linear_5,2,5,56,103,2341434776
33,17,19,Jits_Linear_5,3,5,80,127,2341437692
33,17,19,Jits_Linear_5,0,1,48,57,2342032372
33,17,19,Jits_Linear_5,1,5,63,98,2342045000
33,17,19,Jits_Linear_5,2,5,56,103,2342064488
33,17,19,Jits_Linear_5,3,5,80,127,2342095284
33,17,19,Jits_Linear_5,0,1,48,57,2342723424
33,17,19,Jits_Linear_5,1,5,56,103,2342735208
33,17,19,Jits_Linear_5,2,5,63,98,2342754700
33,17,19,Jits_Linear_5,3,5,80,127,2342764820
33,17,19,Jits_Linear_5,0,1,48,62,2343400688
33,17,19,Jits_Linear_5,1,5,56,103,2343455040
33,17,19,Jits_Linear_5,2,5,63,98,2343484864
33,17,19,Jits_Linear_5,3,5,80,127,2343488156
33,17,19,Jits_Linear_5,0,5,56,103,2344095228
33,17,19,Jits_Linear_5,1,1,48,64,2344118352
33,17,19,Jits_Linear_5,2,5,63,98,2344135088
33,17,19,Jits_Linear_5,3,5,80,127,2344194504
33,17,19,Jits_Linear_5,0,1,48,61,2344789092
33,17,19,Jits_Linear_5,1,5,56,103,2344804704
33,17,19,Jits_Linear_5,2,5,63,98,2344815052
33,17,19,Jits_Linear_5,3,5,80,127,2344875468
33,17,19,Jits_Linear_5,0,1,48,60,2345451152
33,17,19,Jits_Linear_5,1,5,56,103,2345505280
33,17,19,Jits_Linear_5,2,5,80,127,2345524548
33,17,19,Jits_Linear_5,3,5,63,98,2345555404
33,17,19,Jits_Linear_5,0,1,48,61,2346171356
33,17,19,Jits_Linear_5,1,5,80,127,2346204512
33,17,19,Jits_Linear_5,2,5,56,103,2346214708
33,17,19,Jits_Linear_5,3,5,63,98,2346235244
33,17,19,Jits_Linear_5,0,1,48,63,2346886308
33,17,19,Jits_Linear_5,1,5,63,98,2346894972
33,17,19,Jits_Linear_5,2,5,80,127,2346974472
33,17,19,Jits_Linear_5,3,5,56,103,2346984668
33,17,19,Jits_Linear_5,0,1,48,68,2347640896
33,17,19,Jits_Linear_5,1,5,80,127,2347654568
33,17,19,Jits_Linear_5,2,5,56,103,2347675048
33,17,19,Jits_Linear_5,3,5,63,98,2347678040
33,17,19,Jits_Linear_5,0,5,63,98,2348334460
33,17,19,Jits_Linear_5,1,5,80,127,2348337752
33,17,19,Jits_Linear_5,2,1,48,69,2348394780
33,17,19,Jits_Linear_5,3,5,56,103,2348396412
33,17,19,Jits_Linear_5,0,5,56,103,2349024544
33,17,19,Jits_Linear_5,1,5,80,127,2349034812
33,17,19,Jits_Linear_5,2,1,48,63,2349064312
33,17,19,Jits_Linear_5,3,5,63,98,2349074820
33,17,19,Jits_Linear_5,0,5,56,103,2349714940
33,17,19,Jits_Linear_5,1,1,48,62,2349774964
33,17,19,Jits_Linear_5,2,5,63,98,2349776448
33,17,19,Jits_Linear_5,3,5,80,127,2349784552
33,17,19,Jits_Linear_5,0,5,63,98,2350434612
33,17,19,Jits_Linear_5,1,1,48,62,2350475000
33,17,19,Jits_Linear_5,2,5,80,127,2350476416
33,17,19,Jits_Linear_5,3,5,56,103,2350514488
33,17,19,Jits_Linear_5,0,5,56,103,2351145276
33,17,19,Jits_Linear_5,1,1,48,59,2351199564
33,17,19,Jits_Linear_5,2,5,63,98,2351225064
33,17,19,Jits_Linear_5,3,5,80,127,2351228656
33,17,19,Jits_Linear_5,0,1,48,59,2351885392
33,17,19,Jits_Linear_5,1,5,80,127,2351915236
33,17,19,Jits_Linear_5,2,5,56,103,2351945132
33,17,19,Jits_Linear_5,3,5,63,98,2351948200
33,17,19,Jits_Linear_5,0,5,56,103,2352595432
33,17,19,Jits_Linear_5,1,5,80,127,2352614696
33,17,19,Jits_Linear_5,2,1,48,61,2352631740
33,17,19,Jits_Linear_5,3,5,63,98,2352654556
33,17,19,Jits_Linear_5,0,5,80,127,2353294748
33,17,19,Jits_Linear_5,1,5,63,98,2353315208
33,17,19,Jits_Linear_5,2,1,48,52,2353341244
33,17,19,Jits_Linear_5,3,5,56,103,2353374620
33,17,19,Jits_Linear_5,0,1,48,58,2354012892
33,17,19,Jits_Linear_5,1,5,63,98,2354024752
33,17,19,Jits_Linear_5,2,5,56,103,2354035096
33,17,19,Jits_Linear_5,3,5,80,127,2354085100
33,17,19,Jits_Linear_5,0,1,48,55,2354680556
33,17,19,Jits_Linear_5,1,5,56,103,2354734388
33,17,19,Jits_Linear_5,2,5,63,98,2354754924
33,17,19,Jits_Linear_5,3,5,80,127,2354765124
33,17,19,Jits_Linear_5,0,1,48,54,2355417772
33,17,19,Jits_Linear_5,1,5,56,103,2355455336
33,17,19,Jits_Linear_5,2,5,63,98,2355458332
33,17,19,Jits_Linear_5,3,5,80,127,2355474972
33,17,19,Jits_Linear_5,0,1,48,59,2356122668
33,17,19,Jits_Linear_5,1,5,63,98,2356225412
33,17,19,Jits_Linear_5,2,5,56,103,2356255164
33,17,19,Jits_Linear_5,3,5,80,127,2356284764
33,17,19,Jits_Linear_5,0,5,80,127,2356914400
33,17,19,Jits_Linear_5,1,1,48,61,2356938044
33,17,19,Jits_Linear_5,2,5,56,103,2357004752
33,17,19,Jits_Linear_5,3,5,63,98,2357007816
33,17,19,Jits_Linear_5,0,5,56,103,2357644620
33,17,19,Jits_Linear_5,1,5,80,127,2357647712
33,17,19,Jits_Linear_5,2,1,48,57,2357685380
33,17,19,Jits_Linear_5,3,5,63,98,2357724512
33,17,19,Jits_Linear_5,0,5,80,127,2358375020
33,17,19,Jits_Linear_5,1,1,48,62,2358391244
33,17,19,Jits_Linear_5,2,5,63,98,2358435060
33,17,19,Jits_Linear_5,3,5,56,103,2358464808
33,17,19,Jits_Linear_5,0,5,63,98,2359104832
33,17,19,Jits_Linear_5,1,5,80,127,2359115104
33,17,19,Jits_Linear_5,2,1,48,65,2359139872
33,17,19,Jits_Linear_5,3,5,56,103,2359184876
33,17,19,Jits_Linear_5,0,1,48,63,2359837888
33,17,19,Jits_Linear_5,1,5,56,103,2359854396
33,17,19,Jits_Linear_5,2,5,80,127,2359885272
33,17,19,Jits_Linear_5,3,5,63,98,2359935460
33,17,19,Jits_Linear_5,0,1,48,63,2360588128
33,17,19,Jits_Linear_5,1,5,63,98,2360634764
33,17,19,Jits_Linear_5,2,5,56,103,2360664364
33,17,19,Jits_Linear_5,3,5,80,127,2360667728
33,17,19,Jits_Linear_5,0,1,48,63,2361373820
33,17,19,Jits_Linear_5,1,5,63,98,2361385380
33,17,19,Jits_Linear_5,2,5,80,127,2361404644
33,17,19,Jits_Linear_5,3,5,56,103,2361414988
33,17,19,Jits_Linear_5,0,1,48,60,2362107356
33,17,19,Jits_Linear_5,1,5,56,103,2362134880
33,17,19,Jits_Linear_5,2,5,63,98,2362137948
33,17,19,Jits_Linear_5,3,5,80,127,2362155416
33,17,19,Jits_Linear_5,0,1,48,67,2362805004
33,17,19,Jits_Linear_5,1,5,56,103,2362835224
33,17,19,Jits_Linear_5,2,5,63,98,2362844672
33,17,19,Jits_Linear_5,3,5,80,127,2362875244
33,17,19,Jits_Linear_5,0,1,48,65,2363550440
33,17,19,Jits_Linear_5,1,5,63,98,2363605248
33,17,19,Jits_Linear_5,2,5,80,127,2363624812
33,17,19,Jits_Linear_5,3,5,56,103,2363664884
33,17,19,Jits_Linear_5,0,1,48,58,2364369032
33,17,19,Jits_Linear_5,1,5,56,103,2364384792
33,17,19,Jits_Linear_5,2,5,63,98,2364424656
33,17,19,Jits_Linear_5,3,5,80,127,2364428020
33,17,19,Jits_Linear_5,0,5,80,127,2365074804
33,17,19,Jits_Linear_5,1,1,48,65,2365099276
33,17,19,Jits_Linear_5,2,5,56,103,2365114664
33,17,19,Jits_Linear_5,3,5,63,98,2365164944
33,17,19,Jits_Linear_5,0,1,48,66,2365849608
33,17,19,Jits_Linear_5,1,5,56,103,2365884776
33,17,19,Jits_Linear_5,2,5,80,127,2365894976
33,17,19,Jits_Linear_5,3,5,63,98,2365924800
33,17,19,Jits_Linear_5,0,5,56,103,2366585256
33,17,19,Jits_Linear_5,1,1,48,62,2366590172
33,17,19,Jits_Linear_5,2,5,80,127,2366625068
33,17,19,Jits_Linear_5,3,5,63,98,2366675568
33,17,19,Jits_Linear_5,0,5,56,103,2367344888
33,17,19,Jits_Linear_5,1,5,80,127,2367384852
33,17,19,Jits_Linear_5,2,1,48,59,2367385816
33,17,19,Jits_Linear_5,3,5,63,98,2367435120
33,17,19,Jits_Linear_5,0,1,48,67,2368076680
33,17,19,Jits_Linear_5,1,5,80,127,2368094544
33,17,19,Jits_Linear_5,2,5,63,98,2368174652
33,17,19,Jits_Linear_5,3,5,56,103,2368184696
33,17,19,Jits_Linear_5,0,1,48,60,2368892476
33,17,19,Jits_Linear_5,1,5,80,127,2368904652
33,17,19,Jits_Linear_5,2,5,56,103,2368914728
33,17,19,Jits_Linear_5,3,5,63,98,2368935556
33,17,19,Jits_Linear_5,0,1,48,54,2369621152
33,17,19,Jits_Linear_5,1,5,63,98,2369634748
33,17,19,Jits_Linear_5,2,5,56,103,2369705428
33,17,19,Jits_Linear_5,3,5,80,127,2369708344
33,17,19,Jits_Linear_5,0,1,48,65,2370393832
33,17,19,Jits_Linear_5,1,5,80,127,2370395624
33,17,19,Jits_Linear_5,2,5,63,98,2370444556
33,17,19,Jits_Linear_5,3,5,56,103,2370484572
33,17,19,Jits_Linear_5,0,1,48,68,2371189644
33,17,19,Jits_Linear_5,1,5,63,98,2371204516
33,17,19,Jits_Linear_5,2,5,56,103,2371245380
33,17,19,Jits_Linear_5,3,5,80,127,2371254528
33,17,19,Jits_Linear_5,0,5,63,98,2371965412
33,17,19,Jits_Linear_5,1,1,48,64,2371975052
33,17,19,Jits_Linear_5,2,5,56,103,2371984620
33,17,19,Jits_Linear_5,3,5,80,127,2372005448
33,17,19,Jits_Linear_5,0,5,80,127,2372695432
33,17,19,Jits_Linear_5,1,5,56,103,2372704656
33,17,19,Jits_Linear_5,2,1,48,62,2372719308
33,17,19,Jits_Linear_5,3,5,63,98,2372725184
33,17,19,Jits_Linear_5,0,1,48,71,2373403324
33,17,19,Jits_Linear_5,1,5,63,98,2373495192
33,17,19,Jits_Linear_5,2,5,56,103,2373535232
33,17,19,Jits_Linear_5,3,5,80,127,2373564684
33,17,19,Jits_Linear_5,0,1,48,55,2374233524
33,17,19,Jits_Linear_5,1,5,56,103,2374274308
33,17,19,Jits_Linear_5,2,5,63,98,2374305280
33,17,19,Jits_Linear_5,3,5,80,127,2374334940
33,17,19,Jits_Linear_5,0,1,48,62,2375011180
33,17,19,Jits_Linear_5,1,5,80,127,2375025152
33,17,19,Jits_Linear_5,2,5,56,103,2375094564
33,17,19,Jits_Linear_5,3,5,63,98,2375097632
33,17,19,Jits_Linear_5,0,5,56,103,2375814440
33,17,19,Jits_Linear_5,1,1,48,64,2375832728
33,17,19,Jits_Linear_5,2,5,63,98,2375864588
33,17,19,Jits_Linear_5,3,5,80,127,2375895312
33,17,19,Jits_Linear_5,0,5,63,98,2376575408
33,17,19,Jits_Linear_5,1,5,80,127,2376578700
33,17,19,Jits_Linear_5,2,1,48,60,2376623960
33,17,19,Jits_Linear_5,3,5,56,103,2376634700
33,17,19,Jits_Linear_5,0,1,48,65,2377372080
33,17,19,Jits_Linear_5,1,5,56,103,2377385228
33,17,19,Jits_Linear_5,2,5,80,127,2377394604
33,17,19,Jits_Linear_5,3,5,63,98,2377444732
33,17,19,Jits_Linear_5,0,5,63,98,2378145076
33,17,19,Jits_Linear_5,1,5,56,103,2378155344
33,17,19,Jits_Linear_5,2,1,48,67,2378182132
33,17,19,Jits_Linear_5,3,5,80,127,2378185012
33,17,19,Jits_Linear_5,0,1,48,63,2378924356
33,17,19,Jits_Linear_5,1,5,63,98,2378965508
33,17,19,Jits_Linear_5,2,5,80,127,2378968796
33,17,19,Jits_Linear_5,3,5,56,103,2378995184
33,17,19,Jits_Linear_5,0,1,48,70,2379682892
33,17,19,Jits_Linear_5,1,5,63,98,2379775236
33,17,19,Jits_Linear_5,2,5,56,103,2379795004
33,17,19,Jits_Linear_5,3,5,80,127,2379798000
33,17,19,Jits_Linear_5,0,5,63,98,2380525100
33,17,19,Jits_Linear_5,1,1,48,65,2380531360
33,17,19,Jits_Linear_5,2,5,56,103,2380594480
33,17,19,Jits_Linear_5,3,5,80,127,2380615016
33,17,19,Jits_Linear_5,0,5,56,103,2381305168
33,17,19,Jits_Linear_5,1,5,63,98,2381314540
33,17,19,Jits_Linear_5,2,1,48,63,2381362844
33,17,19,Jits_Linear_5,3,5,80,127,2381404668
33,17,19,Jits_Linear_5,0,5,56,103,2382115144
33,17,19,Jits_Linear_5,1,1,48,62,2382125684
33,17,19,Jits_Linear_5,2,5,80,127,2382155152
33,17,19,Jits_Linear_5,3,5,63,98,2382165348
33,17,19,Jits_Linear_5,0,1,48,65,2382933184
33,17,19,Jits_Linear_5,1,5,56,103,2382935376
33,17,19,Jits_Linear_5,2,5,63,98,2382965052
33,17,19,Jits_Linear_5,3,5,80,127,2382995048
33,17,19,Jits_Linear_5,0,5,80,127,2383695220
33,17,19,Jits_Linear_5,1,5,63,98,2383735012
33,17,19,Jits_Linear_5,2,5,56,103,2383754572
33,17,19,Jits_Linear_5,3,1,48,57,2383758160
33,17,19,Jits_Linear_5,0,1,48,59,2384526836
33,17,19,Jits_Linear_5,1,5,56,103,2384535028
33,17,19,Jits_Linear_5,2,5,80,127,2384555340
33,17,19,Jits_Linear_5,3,5,63,98,2384574900
33,17,19,Jits_Linear_5,0,5,63,98,2385304912
33,17,19,Jits_Linear_5,1,5,56,103,2385315332
33,17,19,Jits_Linear_5,2,1,48,60,2385324304
33,17,19,Jits_Linear_5,3,5,80,127,2385374668
33,17,19,Jits_Linear_5,0,1,48,60,2386088536
33,17,19,Jits_Linear_5,1,5,56,103,2386114940
33,17,19,Jits_Linear_5,2,5,63,98,2386184836
33,17,19,Jits_Linear_5,3,5,80,127,2386204924
33,17,19,Jits_Linear_5,0,5,56,103,2386924840
33,17,19,Jits_Linear_5,1,5,63,98,2386954812
33,17,19,Jits_Linear_5,2,1,48,63,2386962664
33,17,19,Jits_Linear_5,3,5,80,127,2386994744
33,17,19,Jits_Linear_5,0,5,63,98,2387724920
33,17,19,Jits_Linear_5,1,5,56,103,2387774976
33,17,19,Jits_Linear_5,2,1,48,65,2387782132
33,17,19,Jits_Linear_5,3,5,80,127,2387785016
33,17,19,Jits_Linear_5,0,1,48,57,2388568928
33,17,19,Jits_Linear_5,1,5,56,103,2388574580
33,17,19,Jits_Linear_5,2,5,63,98,2388624664
33,17,19,Jits_Linear_5,3,5,80,127,2388635008
33,17,19,Jits_Linear_5,0,5,56,103,2389354884
33,17,19,Jits_Linear_5,1,5,63,98,2389365152
33,17,19,Jits_Linear_5,2,1,48,63,2389398788
33,17,19,Jits_Linear_5,3,5,80,127,2389444892
33,17,19,Jits_Linear_5,0,9999,9999,9999,2280582228
33,17,19,Jits_Linear_5,1,9999,9999,9999,2281062468
33,17,19,Jits_Linear_5,2,9999,9999,9999,2281542724
33,17,19,Jits_Linear_5,3,9999,9999,9999,2282022976
33,17,19,Jits_Linear_5,4,9999,9999,9999,2282502228
33,17,19,Jits_Linear_5,5,9999,9999,9999,2282992704
33,17,19,Jits_Linear_5,6,9999,9999,9999,2283482208
33,17,19,Jits_Linear_5,7,9999,9999,9999,2283972696
33,17,19,Jits_Linear_5,8,9999,9999,9999,2284462136
33,17,19,Jits_Linear_5,9,9999,9999,9999,2284952700
33,17,19,Jits_Linear_5,10,9999,9999,9999,2285452380
33,17,19,Jits_Linear_5,11,9999,9999,9999,2285952076
33,17,19,Jits_Linear_5,12,9999,9999,9999,2286452808
33,17,19,Jits_Linear_5,13,9999,9999,9999,2286952568
33,17,19,Jits_Linear_5,14,9999,9999,9999,2287452256
33,17,19,Jits_Linear_5,15,9999,9999,9999,2287962216
33,17,19,Jits_Linear_5,16,9999,9999,9999,2288472144
33,17,19,Jits_Linear_5,17,9999,9999,9999,2288982092
33,17,19,Jits_Linear_5,18,9999,9999,9999,2289493092
33,17,19,Jits_Linear_5,19,9999,9999,9999,2290003048
33,17,19,Jits_Linear_5,20,9999,9999,9999,2290522216
33,17,19,Jits_Linear_5,21,9999,9999,9999,2291042408
33,17,19,Jits_Linear_5,22,9999,9999,9999,2291562612
33,17,19,Jits_Linear_5,23,9999,9999,9999,2292082768
33,17,19,Jits_Linear_5,24,9999,9999,9999,2292603004
33,17,19,Jits_Linear_5,25,9999,9999,9999,2293132372
33,17,19,Jits_Linear_5,26,9999,9999,9999,2293662804
33,17,19,Jits_Linear_5,27,9999,9999,9999,2294192200
33,17,19,Jits_Linear_5,28,9999,9999,9999,2294722620
33,17,19,Jits_Linear_5,29,9999,9999,9999,2295253096
33,17,19,Jits_Linear_5,30,9999,9999,9999,2295792720
33,17,19,Jits_Linear_5,31,9999,9999,9999,2296332412
33,17,19,Jits_Linear_5,32,9999,9999,9999,2296873020
33,17,19,Jits_Linear_5,33,9999,9999,9999,2297412716
33,17,19,Jits_Linear_5,34,9999,9999,9999,2297952340
33,17,19,Jits_Linear_5,35,9999,9999,9999,2298502228
33,17,19,Jits_Linear_5,36,9999,9999,9999,2299052128
33,17,19,Jits_Linear_5,37,9999,9999,9999,2299603064
33,17,19,Jits_Linear_5,38,9999,9999,9999,2300152948
33,17,19,Jits_Linear_5,39,9999,9999,9999,2300702836
33,17,19,Jits_Linear_5,40,9999,9999,9999,2301262916
33,17,19,Jits_Linear_5,41,9999,9999,9999,2301823072
33,17,19,Jits_Linear_5,42,9999,9999,9999,2302382140
33,17,19,Jits_Linear_5,43,9999,9999,9999,2302942288
33,17,19,Jits_Linear_5,44,9999,9999,9999,2303502432
33,17,19,Jits_Linear_5,45,9999,9999,9999,2304072768
33,17,19,Jits_Linear_5,46,9999,9999,9999,2304642140
33,17,19,Jits_Linear_5,47,9999,9999,9999,2305212508
33,17,19,Jits_Linear_5,48,9999,9999,9999,2305782848
33,17,19,Jits_Linear_5,49,9999,9999,9999,2306352232
33,17,19,Jits_Linear_5,50,9999,9999,9999,2306932824
33,17,19,Jits_Linear_5,51,9999,9999,9999,2307512416
33,17,19,Jits_Linear_5,52,9999,9999,9999,2308093020
33,17,19,Jits_Linear_5,53,9999,9999,9999,2308672588
33,17,19,Jits_Linear_5,54,9999,9999,9999,2309252216
33,17,19,Jits_Linear_5,55,9999,9999,9999,2309843052
33,17,19,Jits_Linear_5,56,9999,9999,9999,2310432864
33,17,19,Jits_Linear_5,57,9999,9999,9999,2311022692
33,17,19,Jits_Linear_5,58,9999,9999,9999,2311612536
33,17,19,Jits_Linear_5,59,9999,9999,9999,2312202336
33,17,19,Jits_Linear_5,60,9999,9999,9999,2312802364
33,17,19,Jits_Linear_5,61,9999,9999,9999,2313402460
33,17,19,Jits_Linear_5,62,9999,9999,9999,2314002540
33,17,19,Jits_Linear_5,63,9999,9999,9999,2314602620
33,17,19,Jits_Linear_5,64,9999,9999,9999,2315202652
33,17,19,Jits_Linear_5,65,9999,9999,9999,2315812920
33,17,19,Jits_Linear_5,66,9999,9999,9999,2316422268
33,17,19,Jits_Linear_5,67,9999,9999,9999,2317032544
33,17,19,Jits_Linear_5,68,9999,9999,9999,2317642836
33,17,19,Jits_Linear_5,69,9999,9999,9999,2318252088
33,17,19,Jits_Linear_5,70,9999,9999,9999,2318872688
33,17,19,Jits_Linear_5,71,9999,9999,9999,2319492172
33,17,19,Jits_Linear_5,72,9999,9999,9999,2320112732
33,17,19,Jits_Linear_5,73,9999,9999,9999,2320732220
33,17,19,Jits_Linear_5,74,9999,9999,9999,2321352776
33,17,19,Jits_Linear_5,75,9999,9999,9999,2321982524
33,17,19,Jits_Linear_5,76,9999,9999,9999,2322612304
33,17,19,Jits_Linear_5,77,9999,9999,9999,2323243104
33,17,19,Jits_Linear_5,78,9999,9999,9999,2323883068
33,17,19,Jits_Linear_5,79,9999,9999,9999,2324523084
33,17,19,Jits_Linear_5,80,9999,9999,9999,2325163124
33,17,19,Jits_Linear_5,81,9999,9999,9999,2325803064
33,17,19,Jits_Linear_5,82,9999,9999,9999,2326443104
33,17,19,Jits_Linear_5,83,9999,9999,9999,2327083120
33,17,19,Jits_Linear_5,84,9999,9999,9999,2327723104
33,17,19,Jits_Linear_5,85,9999,9999,9999,2328382520
33,17,19,Jits_Linear_5,86,9999,9999,9999,2329032816
33,17,19,Jits_Linear_5,87,9999,9999,9999,2329683024
33,17,19,Jits_Linear_5,88,9999,9999,9999,2330332276
33,17,19,Jits_Linear_5,89,9999,9999,9999,2330982480
33,17,19,Jits_Linear_5,90,9999,9999,9999,2331642976
33,17,19,Jits_Linear_5,91,9999,9999,9999,2332302388
33,17,19,Jits_Linear_5,92,9999,9999,9999,2332962940
33,17,19,Jits_Linear_5,93,9999,9999,9999,2333622388
33,17,19,Jits_Linear_5,94,9999,9999,9999,2334282852
33,17,19,Jits_Linear_5,95,9999,9999,9999,2334952564
33,17,19,Jits_Linear_5,96,9999,9999,9999,2335622252
33,17,19,Jits_Linear_5,97,9999,9999,9999,2336292920
33,17,19,Jits_Linear_5,98,9999,9999,9999,2336962628
33,17,19,Jits_Linear_5,99,9999,9999,9999,2337632312
33,17,19,Jits_Linear_5,100,9999,9999,9999,2338312288
33,17,19,Jits_Linear_5,101,9999,9999,9999,2338992184
33,17,19,Jits_Linear_5,102,9999,9999,9999,2339672124
33,17,19,Jits_Linear_5,103,9999,9999,9999,2340352116
33,17,19,Jits_Linear_5,104,9999,9999,9999,2341033056
33,17,19,Jits_Linear_5,105,9999,9999,9999,2341722216
33,17,19,Jits_Linear_5,106,9999,9999,9999,2342412376
33,17,19,Jits_Linear_5,107,9999,9999,9999,2343102536
33,17,19,Jits_Linear_5,108,9999,9999,9999,2343792740
33,17,19,Jits_Linear_5,109,9999,9999,9999,2344482904
33,17,19,Jits_Linear_5,110,9999,9999,9999,2345182300
33,17,19,Jits_Linear_5,111,9999,9999,9999,2345882724
33,17,19,Jits_Linear_5,112,9999,9999,9999,2346582076
33,17,19,Jits_Linear_5,113,9999,9999,9999,2347282504
33,17,19,Jits_Linear_5,114,9999,9999,9999,2347982924
33,17,19,Jits_Linear_5,115,9999,9999,9999,2348692560
33,17,19,Jits_Linear_5,116,9999,9999,9999,2349402176
33,17,19,Jits_Linear_5,117,9999,9999,9999,2350112880
33,17,19,Jits_Linear_5,118,9999,9999,9999,2350822512
33,17,19,Jits_Linear_5,119,9999,9999,9999,2351532148
33,17,19,Jits_Linear_5,120,9999,9999,9999,2352253008
33,17,19,Jits_Linear_5,121,9999,9999,9999,2352972916
33,17,19,Jits_Linear_5,122,9999,9999,9999,2353692760
33,17,19,Jits_Linear_5,123,9999,9999,9999,2354412604
33,17,19,Jits_Linear_5,124,9999,9999,9999,2355132508
33,17,19,Jits_Linear_5,125,9999,9999,9999,2355862584
33,17,19,Jits_Linear_5,126,9999,9999,9999,2356592732
33,17,19,Jits_Linear_5,127,9999,9999,9999,2357322816
33,17,19,Jits_Linear_5,128,9999,9999,9999,2358052988
33,17,19,Jits_Linear_5,129,9999,9999,9999,2358783096
33,17,19,Jits_Linear_5,130,9999,9999,9999,2359522420
33,17,19,Jits_Linear_5,131,9999,9999,9999,2360262780
33,17,19,Jits_Linear_5,132,9999,9999,9999,2361003128
33,17,19,Jits_Linear_5,133,9999,9999,9999,2361752632
33,17,19,Jits_Linear_5,134,9999,9999,9999,2362493032
33,17,19,Jits_Linear_5,135,9999,9999,9999,2363242604
33,17,19,Jits_Linear_5,136,9999,9999,9999,2363992180
33,17,19,Jits_Linear_5,137,9999,9999,9999,2364742720
33,17,19,Jits_Linear_5,138,9999,9999,9999,2365492296
33,17,19,Jits_Linear_5,139,9999,9999,9999,2366242940
33,17,19,Jits_Linear_5,140,9999,9999,9999,2367002700
33,17,19,Jits_Linear_5,141,9999,9999,9999,2367762552
33,17,19,Jits_Linear_5,142,9999,9999,9999,2368522332
33,17,19,Jits_Linear_5,143,9999,9999,9999,2369282168
33,17,19,Jits_Linear_5,144,9999,9999,9999,2370042972
33,17,19,Jits_Linear_5,145,9999,9999,9999,2370813048
33,17,19,Jits_Linear_5,146,9999,9999,9999,2371583080
33,17,19,Jits_Linear_5,147,9999,9999,9999,2372352060
33,17,19,Jits_Linear_5,148,9999,9999,9999,2373122160
33,17,19,Jits_Linear_5,149,9999,9999,9999,2373892204
33,17,19,Jits_Linear_5,150,9999,9999,9999,2374672500
33,17,19,Jits_Linear_5,151,9999,9999,9999,2375452780
33,17,19,Jits_Linear_5,152,9999,9999,9999,2376233076
33,17,19,Jits_Linear_5,153,9999,9999,9999,2377012320
33,17,19,Jits_Linear_5,154,9999,9999,9999,2377792612
33,17,19,Jits_Linear_5,155,9999,9999,9999,2378582112
33,17,19,Jits_Linear_5,156,9999,9999,9999,2379372656
33,17,19,Jits_Linear_5,157,9999,9999,9999,2380162156
33,17,19,Jits_Linear_5,158,9999,9999,9999,2380952656
33,17,19,Jits_Linear_5,159,9999,9999,9999,2381742164
33,17,19,Jits_Linear_5,160,9999,9999,9999,2382542920
33,17,19,Jits_Linear_5,161,9999,9999,9999,2383342708
33,17,19,Jits_Linear_5,162,9999,9999,9999,2384142400
33,17,19,Jits_Linear_5,163,9999,9999,9999,2384942188
33,17,19,Jits_Linear_5,164,9999,9999,9999,2385742928
33,17,19,Jits_Linear_5,165,9999,9999,9999,2386552896
33,17,19,Jits_Linear_5,166,9999,9999,9999,2387362876
33,17,19,Jits_Linear_5,167,9999,9999,9999,2388172924
33,17,19,Jits_Linear_5,168,9999,9999,9999,2388982888
33,17,19,Jits_Linear_5,169,9999,9999,9999,2389792852
33,18,18,Jits_Linear_8,0,5,56,103,2400942320
33,18,18,Jits_Linear_8,1,5,63,98,2400945496
33,18,18,Jits_Linear_8,2,5,80,127,2400948620
33,18,18,Jits_Linear_8,0,5,56,103,2401762936
33,18,18,Jits_Linear_8,1,5,63,98,2401766036
33,18,18,Jits_Linear_8,2,5,80,127,2401769080
33,18,18,Jits_Linear_8,0,5,80,127,2402522424
33,18,18,Jits_Linear_8,1,5,63,98,2402612636
33,18,18,Jits_Linear_8,2,5,56,103,2402622832
33,18,18,Jits_Linear_8,0,5,56,103,2403363056
33,18,18,Jits_Linear_8,1,5,63,98,2403373404
33,18,18,Jits_Linear_8,2,5,80,127,2403462712
33,18,18,Jits_Linear_8,0,5,63,98,2404152744
33,18,18,Jits_Linear_8,1,1,48,55,2404183096
33,18,18,Jits_Linear_8,2,5,80,127,2404184804
33,18,18,Jits_Linear_8,3,5,56,103,2404212988
33,18,18,Jits_Linear_8,0,1,48,49,2404917616
33,18,18,Jits_Linear_8,1,5,56,103,2404973012
33,18,18,Jits_Linear_8,2,5,80,127,2405073348
33,18,18,Jits_Linear_8,3,5,63,98,2405122504
33,18,18,Jits_Linear_8,0,1,48,55,2405755064
33,18,18,Jits_Linear_8,1,5,56,103,2405782836
33,18,18,Jits_Linear_8,2,5,80,127,2405833040
33,18,18,Jits_Linear_8,3,5,63,98,2405873112
33,18,18,Jits_Linear_8,0,1,48,58,2406580076
33,18,18,Jits_Linear_8,1,5,80,127,2406622672
33,18,18,Jits_Linear_8,2,5,63,98,2406653320
33,18,18,Jits_Linear_8,3,5,56,103,2406723060
33,18,18,Jits_Linear_8,0,1,48,61,2407436708
33,18,18,Jits_Linear_8,1,5,63,98,2407463332
33,18,18,Jits_Linear_8,2,5,56,103,2407492860
33,18,18,Jits_Linear_8,3,5,80,127,2407553460
33,18,18,Jits_Linear_8,0,5,56,103,2408212824
33,18,18,Jits_Linear_8,1,5,80,127,2408215892
33,18,18,Jits_Linear_8,2,1,48,54,2408253932
33,18,18,Jits_Linear_8,3,5,63,98,2408332644
33,18,18,Jits_Linear_8,0,1,48,52,2409066488
33,18,18,Jits_Linear_8,1,5,56,103,2409092820
33,18,18,Jits_Linear_8,2,5,80,127,2409133608
33,18,18,Jits_Linear_8,3,5,63,98,2409142608
33,18,18,Jits_Linear_8,0,5,56,103,2409853324
33,18,18,Jits_Linear_8,1,5,80,127,2409872836
33,18,18,Jits_Linear_8,2,1,48,54,2409900388
33,18,18,Jits_Linear_8,3,5,63,98,2409952848
33,18,18,Jits_Linear_8,0,5,80,127,2410642780
33,18,18,Jits_Linear_8,1,1,48,50,2410688752
33,18,18,Jits_Linear_8,2,5,56,103,2410743024
33,18,18,Jits_Linear_8,3,5,63,98,2410753668
33,18,18,Jits_Linear_8,0,5,63,98,2411412736
33,18,18,Jits_Linear_8,1,5,80,127,2411473128
33,18,18,Jits_Linear_8,2,5,56,103,2411482648
33,18,18,Jits_Linear_8,3,1,48,49,2411512072
33,18,18,Jits_Linear_8,0,5,56,103,2412212788
33,18,18,Jits_Linear_8,1,5,63,98,2412283292
33,18,18,Jits_Linear_8,2,5,80,127,2412286656
33,18,18,Jits_Linear_8,3,1,48,50,2412297724
33,18,18,Jits_Linear_8,0,5,63,98,2413043040
33,18,18,Jits_Linear_8,1,1,48,53,2413059712
33,18,18,Jits_Linear_8,2,5,56,103,2413093080
33,18,18,Jits_Linear_8,3,5,80,127,2413096452
33,18,18,Jits_Linear_8,0,5,56,103,2413792588
33,18,18,Jits_Linear_8,1,5,80,127,2413795580
33,18,18,Jits_Linear_8,2,1,48,52,2413845372
33,18,18,Jits_Linear_8,3,5,63,98,2413882636
33,18,18,Jits_Linear_8,0,1,48,54,2414601456
33,18,18,Jits_Linear_8,1,5,63,98,2414623052
33,18,18,Jits_Linear_8,2,5,56,103,2414713472
33,18,18,Jits_Linear_8,3,5,80,127,2414742872
33,18,18,Jits_Linear_8,0,5,56,103,2415403412
33,18,18,Jits_Linear_8,1,1,48,55,2415429300
33,18,18,Jits_Linear_8,2,5,63,98,2415502632
33,18,18,Jits_Linear_8,3,5,80,127,2415533564
33,18,18,Jits_Linear_8,0,5,63,98,2416213304
33,18,18,Jits_Linear_8,1,5,56,103,2416222600
33,18,18,Jits_Linear_8,2,1,48,62,2416231500
33,18,18,Jits_Linear_8,3,5,80,127,2416312676
33,18,18,Jits_Linear_8,0,1,48,53,2417007476
33,18,18,Jits_Linear_8,1,5,63,98,2417013052
33,18,18,Jits_Linear_8,2,5,56,103,2417092868
33,18,18,Jits_Linear_8,3,5,80,127,2417096240
33,18,18,Jits_Linear_8,0,5,80,127,2417752500
33,18,18,Jits_Linear_8,1,5,63,98,2417772888
33,18,18,Jits_Linear_8,2,1,48,56,2417790236
33,18,18,Jits_Linear_8,3,5,56,103,2417833444
33,18,18,Jits_Linear_8,0,1,48,57,2418547812
33,18,18,Jits_Linear_8,1,5,56,103,2418572668
33,18,18,Jits_Linear_8,2,5,63,98,2418593424
33,18,18,Jits_Linear_8,3,5,80,127,2418596716
33,18,18,Jits_Linear_8,0,5,63,98,2419292604
33,18,18,Jits_Linear_8,1,1,48,54,2419357552
33,18,18,Jits_Linear_8,2,5,80,127,2419373468
33,18,18,Jits_Linear_8,3,5,56,103,2419382616
33,18,18,Jits_Linear_8,0,5,63,98,2420093256
33,18,18,Jits_Linear_8,1,1,48,51,2420102896
33,18,18,Jits_Linear_8,2,5,56,103,2420112684
33,18,18,Jits_Linear_8,3,5,80,127,2420162884
33,18,18,Jits_Linear_8,0,1,48,61,2420865628
33,18,18,Jits_Linear_8,1,5,80,127,2420872624
33,18,18,Jits_Linear_8,2,5,63,98,2420912416
33,18,18,Jits_Linear_8,3,5,56,103,2420933096
33,18,18,Jits_Linear_8,0,1,48,57,2421636732
33,18,18,Jits_Linear_8,1,5,56,103,2421682492
33,18,18,Jits_Linear_8,2,5,63,98,2421692692
33,18,18,Jits_Linear_8,3,5,80,127,2421713296
33,18,18,Jits_Linear_8,0,5,56,103,2422383256
33,18,18,Jits_Linear_8,1,1,48,55,2422435928
33,18,18,Jits_Linear_8,2,5,63,98,2422473336
33,18,18,Jits_Linear_8,3,5,80,127,2422532444
33,18,18,Jits_Linear_8,0,5,80,127,2423182904
33,18,18,Jits_Linear_8,1,5,56,103,2423193028
33,18,18,Jits_Linear_8,2,1,48,49,2423214656
33,18,18,Jits_Linear_8,3,5,63,98,2423262552
33,18,18,Jits_Linear_8,0,5,63,98,2423982380
33,18,18,Jits_Linear_8,1,1,48,51,2423991872
33,18,18,Jits_Linear_8,2,5,80,127,2424072584
33,18,18,Jits_Linear_8,3,5,56,103,2424082928
33,18,18,Jits_Linear_8,0,5,63,98,2424683072
33,18,18,Jits_Linear_8,1,5,80,127,2424733004
33,18,18,Jits_Linear_8,2,1,48,59,2424787736
33,18,18,Jits_Linear_8,3,5,56,103,2424792564
33,18,18,Jits_Linear_8,0,5,56,103,2425473464
33,18,18,Jits_Linear_8,1,5,80,127,2425522496
33,18,18,Jits_Linear_8,2,1,48,57,2425525764
33,18,18,Jits_Linear_8,3,5,63,98,2425543096
33,18,18,Jits_Linear_8,0,5,56,103,2426202508
33,18,18,Jits_Linear_8,1,1,48,57,2426227800
33,18,18,Jits_Linear_8,2,5,80,127,2426263068
33,18,18,Jits_Linear_8,3,5,63,98,2426332656
33,18,18,Jits_Linear_8,0,5,56,103,2426963240
33,18,18,Jits_Linear_8,1,5,80,127,2426993064
33,18,18,Jits_Linear_8,2,5,63,98,2427022840
33,18,18,Jits_Linear_8,3,1,48,56,2427078020
33,18,18,Jits_Linear_8,0,5,56,103,2427763152
33,18,18,Jits_Linear_8,1,1,48,51,2427769488
33,18,18,Jits_Linear_8,2,5,80,127,2427782632
33,18,18,Jits_Linear_8,3,5,63,98,2427842892
33,18,18,Jits_Linear_8,0,1,48,53,2428560524
33,18,18,Jits_Linear_8,1,5,80,127,2428602800
33,18,18,Jits_Linear_8,2,5,56,103,2428612920
33,18,18,Jits_Linear_8,3,5,63,98,2428623340
33,18,18,Jits_Linear_8,0,5,56,103,2429313312
33,18,18,Jits_Linear_8,1,5,80,127,2429353276
33,18,18,Jits_Linear_8,2,1,48,50,2429358716
33,18,18,Jits_Linear_8,3,5,63,98,2429383020
33,18,18,Jits_Linear_8,0,5,56,103,2430033224
33,18,18,Jits_Linear_8,1,5,63,98,2430062900
33,18,18,Jits_Linear_8,2,5,80,127,2430102864
33,18,18,Jits_Linear_8,3,1,48,56,2430121348
33,18,18,Jits_Linear_8,0,5,80,127,2430732752
33,18,18,Jits_Linear_8,1,5,63,98,2430782732
33,18,18,Jits_Linear_8,2,5,56,103,2430803264
33,18,18,Jits_Linear_8,3,1,48,55,2430809524
33,18,18,Jits_Linear_8,0,1,48,55,2431510520
33,18,18,Jits_Linear_8,1,5,56,103,2431512880
33,18,18,Jits_Linear_8,2,5,80,127,2431582788
33,18,18,Jits_Linear_8,3,5,63,98,2431643116
33,18,18,Jits_Linear_8,0,5,80,127,2432253236
33,18,18,Jits_Linear_8,1,1,48,61,2432326404
33,18,18,Jits_Linear_8,2,5,63,98,2432343292
33,18,18,Jits_Linear_8,3,5,56,103,2432363004
33,18,18,Jits_Linear_8,0,5,63,98,2433013228
33,18,18,Jits_Linear_8,1,5,56,103,2433032640
33,18,18,Jits_Linear_8,2,5,80,127,2433072728
33,18,18,Jits_Linear_8,3,1,48,68,2433093456
33,18,18,Jits_Linear_8,0,5,80,127,2433712660
33,18,18,Jits_Linear_8,1,5,63,98,2433732972
33,18,18,Jits_Linear_8,2,5,56,103,2433812840
33,18,18,Jits_Linear_8,3,1,48,75,2433815432
33,18,18,Jits_Linear_8,0,5,63,98,2434442748
33,18,18,Jits_Linear_8,1,1,48,64,2434516148
33,18,18,Jits_Linear_8,2,5,56,103,2434553180
33,18,18,Jits_Linear_8,3,5,80,127,2434556100
33,18,18,Jits_Linear_8,0,5,63,98,2435202612
33,18,18,Jits_Linear_8,1,5,56,103,2435212612
33,18,18,Jits_Linear_8,2,5,80,127,2435215604
33,18,18,Jits_Linear_8,3,1,48,62,2435238500
33,18,18,Jits_Linear_8,0,5,56,103,2435923384
33,18,18,Jits_Linear_8,1,1,48,60,2435962996
33,18,18,Jits_Linear_8,2,5,80,127,2436043504
33,18,18,Jits_Linear_8,3,5,63,98,2436083204
33,18,18,Jits_Linear_8,0,5,56,103,2436672740
33,18,18,Jits_Linear_8,1,1,48,55,2436735196
33,18,18,Jits_Linear_8,2,5,80,127,2436752704
33,18,18,Jits_Linear_8,3,5,63,98,2436773460
33,18,18,Jits_Linear_8,0,5,56,103,2437403280
33,18,18,Jits_Linear_8,1,1,48,59,2437497504
33,18,18,Jits_Linear_8,2,5,63,98,2437512764
33,18,18,Jits_Linear_8,3,5,80,127,2437516056
33,18,18,Jits_Linear_8,0,5,56,103,2438162892
33,18,18,Jits_Linear_8,1,5,80,127,2438192568
33,18,18,Jits_Linear_8,2,5,63,98,2438212876
33,18,18,Jits_Linear_8,3,1,48,50,2438250296
33,18,18,Jits_Linear_8,0,5,63,98,2438872308
33,18,18,Jits_Linear_8,1,5,56,103,2438882652
33,18,18,Jits_Linear_8,2,5,80,127,2438892848
33,18,18,Jits_Linear_8,3,1,48,42,2438921448
33,18,18,Jits_Linear_8,0,1,48,49,2439567880
33,18,18,Jits_Linear_8,1,5,80,127,2439583340
33,18,18,Jits_Linear_8,2,5,56,103,2439633248
33,18,18,Jits_Linear_8,3,5,63,98,2439673320
33,18,18,Jits_Linear_8,0,5,80,127,2440322396
33,18,18,Jits_Linear_8,1,1,48,63,2440332212
33,18,18,Jits_Linear_8,2,5,63,98,2440342800
33,18,18,Jits_Linear_8,3,5,56,103,2440392928
33,18,18,Jits_Linear_8,0,5,80,127,2441052488
33,18,18,Jits_Linear_8,1,1,48,73,2441075088
33,18,18,Jits_Linear_8,2,5,56,103,2441083504
33,18,18,Jits_Linear_8,3,5,63,98,2441152988
33,18,18,Jits_Linear_8,0,1,48,61,2441814992
33,18,18,Jits_Linear_8,1,5,56,103,2441822664
33,18,18,Jits_Linear_8,2,5,80,127,2441832860
33,18,18,Jits_Linear_8,3,5,63,98,2441872824
33,18,18,Jits_Linear_8,0,5,56,103,2442453480
33,18,18,Jits_Linear_8,1,5,63,98,2442472744
33,18,18,Jits_Linear_8,2,1,48,51,2442534448
33,18,18,Jits_Linear_8,3,5,80,127,2442542568
33,18,18,Jits_Linear_8,0,1,48,59,2443165476
33,18,18,Jits_Linear_8,1,5,63,98,2443192628
33,18,18,Jits_Linear_8,2,5,80,127,2443253244
33,18,18,Jits_Linear_8,3,5,56,103,2443272492
33,18,18,Jits_Linear_8,0,5,80,127,2443893248
33,18,18,Jits_Linear_8,1,5,56,103,2443923172
33,18,18,Jits_Linear_8,2,1,48,59,2443943304
33,18,18,Jits_Linear_8,3,5,63,98,2443952468
33,18,18,Jits_Linear_8,0,5,56,103,2444602664
33,18,18,Jits_Linear_8,1,1,48,63,2444646088
33,18,18,Jits_Linear_8,2,5,63,98,2444663124
33,18,18,Jits_Linear_8,3,5,80,127,2444722564
33,18,18,Jits_Linear_8,0,1,48,63,2445328372
33,18,18,Jits_Linear_8,1,5,80,127,2445332976
33,18,18,Jits_Linear_8,2,5,56,103,2445353360
33,18,18,Jits_Linear_8,3,5,63,98,2445423176
33,18,18,Jits_Linear_8,0,5,80,127,2446042536
33,18,18,Jits_Linear_8,1,5,63,98,2446062996
33,18,18,Jits_Linear_8,2,1,48,57,2446078100
33,18,18,Jits_Linear_8,3,5,56,103,2446092664
33,18,18,Jits_Linear_8,0,5,80,127,2446732692
33,18,18,Jits_Linear_8,1,5,63,98,2446753228
33,18,18,Jits_Linear_8,2,1,48,59,2446763324
33,18,18,Jits_Linear_8,3,5,56,103,2446812640
33,18,18,Jits_Linear_8,0,5,80,127,2447433244
33,18,18,Jits_Linear_8,1,1,48,67,2447452024
33,18,18,Jits_Linear_8,2,5,56,103,2447533288
33,18,18,Jits_Linear_8,3,5,63,98,2447563024
33,18,18,Jits_Linear_8,0,5,63,98,2448123188
33,18,18,Jits_Linear_8,1,5,80,127,2448173392
33,18,18,Jits_Linear_8,2,5,56,103,2448193024
33,18,18,Jits_Linear_8,3,1,48,63,2448198240
33,18,18,Jits_Linear_8,0,1,48,57,2448862180
33,18,18,Jits_Linear_8,1,5,80,127,2448864044
33,18,18,Jits_Linear_8,2,5,56,103,2448893272
33,18,18,Jits_Linear_8,3,5,63,98,2448896268
33,18,18,Jits_Linear_8,0,1,48,60,2449559848
33,18,18,Jits_Linear_8,1,5,63,98,2449592628
33,18,18,Jits_Linear_8,2,5,56,103,2449632640
33,18,18,Jits_Linear_8,3,5,80,127,2449653100
33,18,18,Jits_Linear_8,0,5,80,127,2450232640
33,18,18,Jits_Linear_8,1,1,48,59,2450274496
33,18,18,Jits_Linear_8,2,5,63,98,2450312532
33,18,18,Jits_Linear_8,3,5,56,103,2450352468
33,18,18,Jits_Linear_8,0,5,63,98,2450943332
33,18,18,Jits_Linear_8,1,1,48,56,2450985412
33,18,18,Jits_Linear_8,2,5,80,127,2451023124
33,18,18,Jits_Linear_8,3,5,56,103,2451042836
33,18,18,Jits_Linear_8,0,5,56,103,2451672380
33,18,18,Jits_Linear_8,1,5,63,98,2451682800
33,18,18,Jits_Linear_8,2,1,48,66,2451686140
33,18,18,Jits_Linear_8,3,5,80,127,2451722584
33,18,18,Jits_Linear_8,0,5,56,103,2452282872
33,18,18,Jits_Linear_8,1,5,80,127,2452285792
33,18,18,Jits_Linear_8,2,1,48,72,2452372852
33,18,18,Jits_Linear_8,3,5,63,98,2452423072
33,18,18,Jits_Linear_8,0,5,56,103,2452962616
33,18,18,Jits_Linear_8,1,1,48,58,2453036608
33,18,18,Jits_Linear_8,2,5,63,98,2453052896
33,18,18,Jits_Linear_8,3,5,80,127,2453122352
33,18,18,Jits_Linear_8,0,5,63,98,2453722456
33,18,18,Jits_Linear_8,1,5,80,127,2453725820
33,18,18,Jits_Linear_8,2,1,48,60,2453738828
33,18,18,Jits_Linear_8,3,5,56,103,2453782984
33,18,18,Jits_Linear_8,0,1,48,58,2454428216
33,18,18,Jits_Linear_8,1,5,80,127,2454443456
33,18,18,Jits_Linear_8,2,5,56,103,2454462872
33,18,18,Jits_Linear_8,3,5,63,98,2454472992
33,18,18,Jits_Linear_8,0,5,56,103,2455033272
33,18,18,Jits_Linear_8,1,5,63,98,2455042420
33,18,18,Jits_Linear_8,2,5,80,127,2455112928
33,18,18,Jits_Linear_8,3,1,48,65,2455165712
33,18,18,Jits_Linear_8,0,5,80,127,2455713164
33,18,18,Jits_Linear_8,1,5,56,103,2455763516
33,18,18,Jits_Linear_8,2,1,48,56,2455772488
33,18,18,Jits_Linear_8,3,5,63,98,2455812592
33,18,18,Jits_Linear_8,0,1,48,63,2456425896
33,18,18,Jits_Linear_8,1,5,56,103,2456473000
33,18,18,Jits_Linear_8,2,5,63,98,2456483200
33,18,18,Jits_Linear_8,3,5,80,127,2456523140
33,18,18,Jits_Linear_8,0,5,56,103,2457092564
33,18,18,Jits_Linear_8,1,1,48,63,2457115092
33,18,18,Jits_Linear_8,2,5,63,98,2457133544
33,18,18,Jits_Linear_8,3,5,80,127,2457182704
33,18,18,Jits_Linear_8,0,5,80,127,2457723444
33,18,18,Jits_Linear_8,1,1,48,62,2457741732
33,18,18,Jits_Linear_8,2,5,56,103,2457773592
33,18,18,Jits_Linear_8,3,5,63,98,2457792780
33,18,18,Jits_Linear_8,0,1,48,59,2458393944
33,18,18,Jits_Linear_8,1,5,80,127,2458403332
33,18,18,Jits_Linear_8,2,5,63,98,2458462752
33,18,18,Jits_Linear_8,3,5,56,103,2458542556
33,18,18,Jits_Linear_8,0,5,80,127,2459053480
33,18,18,Jits_Linear_8,1,5,56,103,2459093420
33,18,18,Jits_Linear_8,2,5,63,98,2459112908
33,18,18,Jits_Linear_8,3,1,48,57,2459120140
33,18,18,Jits_Linear_8,0,5,56,103,2459773432
33,18,18,Jits_Linear_8,1,1,48,58,2459781452
33,18,18,Jits_Linear_8,2,5,80,127,2459783176
33,18,18,Jits_Linear_8,3,5,63,98,2459822440
33,18,18,Jits_Linear_8,0,1,48,57,2460452680
33,18,18,Jits_Linear_8,1,5,56,103,2460503648
33,18,18,Jits_Linear_8,2,5,63,98,2460544716
33,18,18,Jits_Linear_8,3,5,80,127,2460547688
33,18,18,Jits_Linear_8,0,5,63,98,2461053572
33,18,18,Jits_Linear_8,1,5,80,127,2461093388
33,18,18,Jits_Linear_8,2,1,48,62,2461145580
33,18,18,Jits_Linear_8,3,5,56,103,2461162988
33,18,18,Jits_Linear_8,0,5,63,98,2461702516
33,18,18,Jits_Linear_8,1,5,56,103,2461783584
33,18,18,Jits_Linear_8,2,1,48,57,2461802596
33,18,18,Jits_Linear_8,3,5,80,127,2461842796
33,18,18,Jits_Linear_8,0,5,80,127,2462373476
33,18,18,Jits_Linear_8,1,5,63,98,2462423536
33,18,18,Jits_Linear_8,2,5,56,103,2462453060
33,18,18,Jits_Linear_8,3,1,48,55,2462466740
33,18,18,Jits_Linear_8,0,5,56,103,2463022560
33,18,18,Jits_Linear_8,1,5,63,98,2463072540
33,18,18,Jits_Linear_8,2,5,80,127,2463082812
33,18,18,Jits_Linear_8,3,1,48,57,2463116372
33,18,18,Jits_Linear_8,0,5,56,103,2463693388
33,18,18,Jits_Linear_8,1,1,48,54,2463728948
33,18,18,Jits_Linear_8,2,5,63,98,2463802628
33,18,18,Jits_Linear_8,3,5,80,127,2463823220
33,18,18,Jits_Linear_8,0,5,63,98,2464343300
33,18,18,Jits_Linear_8,1,5,80,127,2464392556
33,18,18,Jits_Linear_8,2,1,48,51,2464425640
33,18,18,Jits_Linear_8,3,5,56,103,2464482608
33,18,18,Jits_Linear_8,0,5,63,98,2464983400
33,18,18,Jits_Linear_8,1,5,80,127,2465013300
33,18,18,Jits_Linear_8,2,1,48,49,2465016344
33,18,18,Jits_Linear_8,3,5,56,103,2465103424
33,18,18,Jits_Linear_8,0,5,63,98,2465632612
33,18,18,Jits_Linear_8,1,5,56,103,2465642812
33,18,18,Jits_Linear_8,2,1,48,51,2465677040
33,18,18,Jits_Linear_8,3,5,80,127,2465743296
33,18,18,Jits_Linear_8,0,1,48,56,2466311568
33,18,18,Jits_Linear_8,1,5,63,98,2466383216
33,18,18,Jits_Linear_8,2,5,80,127,2466413024
33,18,18,Jits_Linear_8,3,5,56,103,2466442652
33,18,18,Jits_Linear_8,0,1,48,55,2467025248
33,18,18,Jits_Linear_8,1,5,80,127,2467042656
33,18,18,Jits_Linear_8,2,5,63,98,2467052852
33,18,18,Jits_Linear_8,3,5,56,103,2467082604
33,18,18,Jits_Linear_8,0,5,80,127,2467583324
33,18,18,Jits_Linear_8,1,5,63,98,2467602664
33,18,18,Jits_Linear_8,2,5,56,103,2467653088
33,18,18,Jits_Linear_8,3,1,48,62,2467701164
33,18,18,Jits_Linear_8,0,5,63,98,2468253180
33,18,18,Jits_Linear_8,1,5,80,127,2468312376
33,18,18,Jits_Linear_8,2,1,48,54,2468313344
33,18,18,Jits_Linear_8,3,5,56,103,2468333200
33,18,18,Jits_Linear_8,0,5,63,98,2468853176
33,18,18,Jits_Linear_8,1,5,56,103,2468903376
33,18,18,Jits_Linear_8,2,5,80,127,2468912452
33,18,18,Jits_Linear_8,3,1,48,50,2468937292
33,18,18,Jits_Linear_8,0,5,56,103,2469522720
33,18,18,Jits_Linear_8,1,5,80,127,2469533064
33,18,18,Jits_Linear_8,2,1,48,51,2469544500
33,18,18,Jits_Linear_8,3,5,63,98,2469633528
33,18,18,Jits_Linear_8,0,5,80,127,2470122800
33,18,18,Jits_Linear_8,1,5,63,98,2470133220
33,18,18,Jits_Linear_8,2,1,48,52,2470226836
33,18,18,Jits_Linear_8,3,5,56,103,2470282484
33,18,18,Jits_Linear_8,0,5,63,98,2470763040
33,18,18,Jits_Linear_8,1,5,80,127,2470803004
33,18,18,Jits_Linear_8,2,1,48,50,2470818780
33,18,18,Jits_Linear_8,3,5,56,103,2470882720
33,18,18,Jits_Linear_8,0,5,56,103,2471383360
33,18,18,Jits_Linear_8,1,1,48,54,2471453608
33,18,18,Jits_Linear_8,2,5,80,127,2471482928
33,18,18,Jits_Linear_8,3,5,63,98,2471503312
33,18,18,Jits_Linear_8,0,5,80,127,2472072552
33,18,18,Jits_Linear_8,1,5,56,103,2472083196
33,18,18,Jits_Linear_8,2,1,48,60,2472098376
33,18,18,Jits_Linear_8,3,5,63,98,2472173100
33,18,18,Jits_Linear_8,0,5,56,103,2472703284
33,18,18,Jits_Linear_8,1,5,63,98,2472723068
33,18,18,Jits_Linear_8,2,1,48,60,2472757876
33,18,18,Jits_Linear_8,3,5,80,127,2472802636
33,18,18,Jits_Linear_8,0,5,63,98,2473272656
33,18,18,Jits_Linear_8,1,5,56,103,2473362964
33,18,18,Jits_Linear_8,2,5,80,127,2473366032
33,18,18,Jits_Linear_8,3,1,48,61,2473396948
33,18,18,Jits_Linear_8,0,5,56,103,2473923012
33,18,18,Jits_Linear_8,1,5,80,127,2473983332
33,18,18,Jits_Linear_8,2,5,63,98,2473992556
33,18,18,Jits_Linear_8,3,1,48,57,2474026168
33,18,18,Jits_Linear_8,0,5,80,127,2474592560
33,18,18,Jits_Linear_8,1,5,56,103,2474603128
33,18,18,Jits_Linear_8,2,5,63,98,2474606268
33,18,18,Jits_Linear_8,3,1,48,57,2474612100
33,18,18,Jits_Linear_8,0,5,56,103,2475173180
33,18,18,Jits_Linear_8,1,5,80,127,2475182480
33,18,18,Jits_Linear_8,2,5,63,98,2475202864
33,18,18,Jits_Linear_8,3,1,48,57,2475209424
33,18,18,Jits_Linear_8,0,5,63,98,2475762924
33,18,18,Jits_Linear_8,1,1,48,60,2475791452
33,18,18,Jits_Linear_8,2,5,80,127,2475822560
33,18,18,Jits_Linear_8,3,5,56,103,2475872912
33,18,18,Jits_Linear_8,0,1,48,62,2476432448
33,18,18,Jits_Linear_8,1,5,63,98,2476462512
33,18,18,Jits_Linear_8,2,5,56,103,2476472784
33,18,18,Jits_Linear_8,3,5,80,127,2476523060
33,18,18,Jits_Linear_8,0,5,63,98,2476973360
33,18,18,Jits_Linear_8,1,5,80,127,2476992848
33,18,18,Jits_Linear_8,2,5,56,103,2477003044
33,18,18,Jits_Linear_8,3,1,48,59,2477084520
33,18,18,Jits_Linear_8,0,5,63,98,2477582712
33,18,18,Jits_Linear_8,1,5,80,127,2477586076
33,18,18,Jits_Linear_8,2,5,56,103,2477622576
33,18,18,Jits_Linear_8,3,1,48,62,2477702588
33,18,18,Jits_Linear_8,0,1,48,55,2478240984
33,18,18,Jits_Linear_8,1,5,63,98,2478262656
33,18,18,Jits_Linear_8,2,5,80,127,2478293304
33,18,18,Jits_Linear_8,3,5,56,103,2478302528
33,18,18,Jits_Linear_8,0,5,56,103,2478822724
33,18,18,Jits_Linear_8,1,5,80,127,2478852400
33,18,18,Jits_Linear_8,2,1,48,55,2478861744
33,18,18,Jits_Linear_8,3,5,63,98,2478883116
33,18,18,Jits_Linear_8,0,1,48,60,2479488772
33,18,18,Jits_Linear_8,1,5,63,98,2479523144
33,18,18,Jits_Linear_8,2,5,56,103,2479563160
33,18,18,Jits_Linear_8,3,5,80,127,2479566228
33,18,18,Jits_Linear_8,0,5,80,127,2480022824
33,18,18,Jits_Linear_8,1,1,48,62,2480074640
33,18,18,Jits_Linear_8,2,5,56,103,2480102692
33,18,18,Jits_Linear_8,3,5,63,98,2480152820
33,18,18,Jits_Linear_8,0,5,80,127,2480602680
33,18,18,Jits_Linear_8,1,5,56,103,2480622992
33,18,18,Jits_Linear_8,2,1,48,59,2480698252
33,18,18,Jits_Linear_8,3,5,63,98,2480713044
33,18,18,Jits_Linear_8,0,5,80,127,2481242696
33,18,18,Jits_Linear_8,1,1,48,51,2481266116
33,18,18,Jits_Linear_8,2,5,63,98,2481282628
33,18,18,Jits_Linear_8,3,5,56,103,2481323488
33,18,18,Jits_Linear_8,0,5,63,98,2481812832
33,18,18,Jits_Linear_8,1,1,48,54,2481841132
33,18,18,Jits_Linear_8,2,5,80,127,2481873292
33,18,18,Jits_Linear_8,3,5,56,103,2481902820
33,18,18,Jits_Linear_8,0,5,56,103,2482412828
33,18,18,Jits_Linear_8,1,5,80,127,2482442724
33,18,18,Jits_Linear_8,2,1,48,58,2482462036
33,18,18,Jits_Linear_8,3,5,63,98,2482532704
33,18,18,Jits_Linear_8,0,5,56,103,2483012980
33,18,18,Jits_Linear_8,1,1,48,59,2483061960
33,18,18,Jits_Linear_8,2,5,80,127,2483122840
33,18,18,Jits_Linear_8,3,5,63,98,2483154072
33,18,18,Jits_Linear_8,0,1,48,57,2483650992
33,18,18,Jits_Linear_8,1,5,56,103,2483652876
33,18,18,Jits_Linear_8,2,5,63,98,2483713492
33,18,18,Jits_Linear_8,3,5,80,127,2483743020
33,18,18,Jits_Linear_8,0,5,56,103,2484213100
33,18,18,Jits_Linear_8,1,1,48,57,2484238168
33,18,18,Jits_Linear_8,2,5,63,98,2484282704
33,18,18,Jits_Linear_8,3,5,80,127,2484303164
33,18,18,Jits_Linear_8,0,1,48,56,2484759804
33,18,18,Jits_Linear_8,1,5,80,127,2484773176
33,18,18,Jits_Linear_8,2,5,63,98,2484792736
33,18,18,Jits_Linear_8,3,5,56,103,2484842788
33,18,18,Jits_Linear_8,0,1,48,52,2485349156
33,18,18,Jits_Linear_8,1,5,63,98,2485373392
33,18,18,Jits_Linear_8,2,5,80,127,2485382564
33,18,18,Jits_Linear_8,3,5,56,103,2485432620
33,18,18,Jits_Linear_8,0,1,48,57,2485925208
33,18,18,Jits_Linear_8,1,5,63,98,2485952808
33,18,18,Jits_Linear_8,2,5,80,127,2486022476
33,18,18,Jits_Linear_8,3,5,56,103,2486042860
33,18,18,Jits_Linear_8,0,1,48,54,2486562452
33,18,18,Jits_Linear_8,1,5,63,98,2486564504
33,18,18,Jits_Linear_8,2,5,80,127,2486567476
33,18,18,Jits_Linear_8,3,5,56,103,2486632820
33,18,18,Jits_Linear_8,0,5,80,127,2487092556
33,18,18,Jits_Linear_8,1,5,56,103,2487113464
33,18,18,Jits_Linear_8,2,5,63,98,2487123288
33,18,18,Jits_Linear_8,3,1,48,47,2487155776
33,18,18,Jits_Linear_8,0,1,48,57,2487665548
33,18,18,Jits_Linear_8,1,5,56,103,2487692652
33,18,18,Jits_Linear_8,2,5,63,98,2487782772
33,18,18,Jits_Linear_8,3,5,80,127,2487786284
33,18,18,Jits_Linear_8,0,5,80,127,2488242452
33,18,18,Jits_Linear_8,1,5,56,103,2488252872
33,18,18,Jits_Linear_8,2,1,48,57,2488270368
33,18,18,Jits_Linear_8,3,5,63,98,2488273472
33,18,18,Jits_Linear_8,0,1,48,50,2488788096
33,18,18,Jits_Linear_8,1,5,63,98,2488813000
33,18,18,Jits_Linear_8,2,5,80,127,2488873320
33,18,18,Jits_Linear_8,3,5,56,103,2488882692
33,18,18,Jits_Linear_8,0,1,48,49,2489385840
33,18,18,Jits_Linear_8,1,5,63,98,2489453004
33,18,18,Jits_Linear_8,2,5,80,127,2489482616
33,18,18,Jits_Linear_8,3,5,56,103,2489522404
33,18,18,Jits_Linear_8,0,1,48,51,2489965092
33,18,18,Jits_Linear_8,1,5,56,103,2490013096
33,18,18,Jits_Linear_8,2,5,80,127,2490023292
33,18,18,Jits_Linear_8,3,5,63,98,2490063288
33,18,18,Jits_Linear_8,0,1,48,53,2490490604
33,18,18,Jits_Linear_8,1,5,80,127,2490542516
33,18,18,Jits_Linear_8,2,5,56,103,2490623420
33,18,18,Jits_Linear_8,3,5,63,98,2490632496
33,18,18,Jits_Linear_8,0,1,48,52,2491121216
33,18,18,Jits_Linear_8,1,5,80,127,2491152852
33,18,18,Jits_Linear_8,2,5,56,103,2491232564
33,18,18,Jits_Linear_8,3,5,63,98,2491243056
33,18,18,Jits_Linear_8,0,5,80,127,2491673068
33,18,18,Jits_Linear_8,1,1,48,51,2491723200
33,18,18,Jits_Linear_8,2,5,56,103,2491724684
33,18,18,Jits_Linear_8,3,5,63,98,2491773392
33,18,18,Jits_Linear_8,0,1,48,54,2492261596
33,18,18,Jits_Linear_8,1,5,56,103,2492292432
33,18,18,Jits_Linear_8,2,5,63,98,2492295572
33,18,18,Jits_Linear_8,3,5,80,127,2492342856
33,18,18,Jits_Linear_8,0,1,48,59,2492797072
33,18,18,Jits_Linear_8,1,5,56,103,2492873172
33,18,18,Jits_Linear_8,2,5,63,98,2492902980
33,18,18,Jits_Linear_8,3,5,80,127,2492913104
33,18,18,Jits_Linear_8,0,5,63,98,2493343192
33,18,18,Jits_Linear_8,1,1,48,54,2493408716
33,18,18,Jits_Linear_8,2,5,56,103,2493412648
33,18,18,Jits_Linear_8,3,5,80,127,2493462996
33,18,18,Jits_Linear_8,0,5,63,98,2493933152
33,18,18,Jits_Linear_8,1,5,56,103,2493943200
33,18,18,Jits_Linear_8,2,5,80,127,2493946192
33,18,18,Jits_Linear_8,3,1,48,53,2493977404
33,18,18,Jits_Linear_8,0,5,80,127,2494432596
33,18,18,Jits_Linear_8,1,5,56,103,2494493140
33,18,18,Jits_Linear_8,2,1,48,48,2494513196
33,18,18,Jits_Linear_8,3,5,63,98,2494583192
33,18,18,Jits_Linear_8,0,5,80,127,2494982488
33,18,18,Jits_Linear_8,1,1,48,58,2495078204
33,18,18,Jits_Linear_8,2,5,56,103,2495083104
33,18,18,Jits_Linear_8,3,5,63,98,2495122996
33,18,18,Jits_Linear_8,0,5,56,103,2495582504
33,18,18,Jits_Linear_8,1,5,63,98,2495603112
33,18,18,Jits_Linear_8,2,1,48,56,2495629332
33,18,18,Jits_Linear_8,3,5,80,127,2495643068
33,18,18,Jits_Linear_8,0,5,63,98,2496102872
33,18,18,Jits_Linear_8,1,5,56,103,2496123112
33,18,18,Jits_Linear_8,2,1,48,59,2496142520
33,18,18,Jits_Linear_8,3,5,80,127,2496222552
33,18,18,Jits_Linear_8,0,5,63,98,2496633268
33,18,18,Jits_Linear_8,1,1,48,60,2496668100
33,18,18,Jits_Linear_8,2,5,80,127,2496742900
33,18,18,Jits_Linear_8,3,5,56,103,2496772336
33,18,18,Jits_Linear_8,0,5,56,103,2497193360
33,18,18,Jits_Linear_8,1,5,63,98,2497222960
33,18,18,Jits_Linear_8,2,1,48,59,2497261296
33,18,18,Jits_Linear_8,3,5,80,127,2497273156
33,18,18,Jits_Linear_8,0,5,63,98,2497703164
33,18,18,Jits_Linear_8,1,5,56,103,2497733136
33,18,18,Jits_Linear_8,2,5,80,127,2497783264
33,18,18,Jits_Linear_8,3,1,48,61,2497806012
33,18,18,Jits_Linear_8,0,1,48,53,2498263344
33,18,18,Jits_Linear_8,1,5,56,103,2498272732
33,18,18,Jits_Linear_8,2,5,63,98,2498292972
33,18,18,Jits_Linear_8,3,5,80,127,2498373124
33,18,18,Jits_Linear_8,0,1,48,55,2498780640
33,18,18,Jits_Linear_8,1,5,63,98,2498782528
33,18,18,Jits_Linear_8,2,5,56,103,2498842920
33,18,18,Jits_Linear_8,3,5,80,127,2498872816
33,18,18,Jits_Linear_8,0,1,48,56,2499333420
33,18,18,Jits_Linear_8,1,5,56,103,2499363040
33,18,18,Jits_Linear_8,2,5,80,127,2499422680
33,18,18,Jits_Linear_8,3,5,63,98,2499462628
33,18,18,Jits_Linear_8,0,5,63,98,2499873064
33,18,18,Jits_Linear_8,1,1,48,56,2499924432
33,18,18,Jits_Linear_8,2,5,56,103,2499932924
33,18,18,Jits_Linear_8,3,5,80,127,2500003156
33,18,18,Jits_Linear_8,0,1,48,55,2500462396
33,18,18,Jits_Linear_8,1,5,56,103,2500482892
33,18,18,Jits_Linear_8,2,5,63,98,2500492788
33,18,18,Jits_Linear_8,3,5,80,127,2500496004
33,18,18,Jits_Linear_8,0,5,63,98,2500952432
33,18,18,Jits_Linear_8,1,1,48,60,2500992640
33,18,18,Jits_Linear_8,2,5,56,103,2501012840
33,18,18,Jits_Linear_8,3,5,80,127,2501015980
33,18,18,Jits_Linear_8,0,5,63,98,2501463336
33,18,18,Jits_Linear_8,1,5,80,127,2501493236
33,18,18,Jits_Linear_8,2,1,48,59,2501508516
33,18,18,Jits_Linear_8,3,5,56,103,2501512816
33,18,18,Jits_Linear_8,0,5,56,103,2501992832
33,18,18,Jits_Linear_8,1,1,48,62,2502006964
33,18,18,Jits_Linear_8,2,5,63,98,2502042980
33,18,18,Jits_Linear_8,3,5,80,127,2502122908
33,18,18,Jits_Linear_8,0,5,80,127,2502492676
33,18,18,Jits_Linear_8,1,1,48,53,2502528012
33,18,18,Jits_Linear_8,2,5,63,98,2502532412
33,18,18,Jits_Linear_8,3,5,56,103,2502553020
33,18,18,Jits_Linear_8,0,1,48,57,2503059104
33,18,18,Jits_Linear_8,1,5,56,103,2503083340
33,18,18,Jits_Linear_8,2,5,80,127,2503092788
33,18,18,Jits_Linear_8,3,5,63,98,2503113024
33,18,18,Jits_Linear_8,0,5,56,103,2503583028
33,18,18,Jits_Linear_8,1,1,48,57,2503606824
33,18,18,Jits_Linear_8,2,5,63,98,2503633376
33,18,18,Jits_Linear_8,3,5,80,127,2503662904
33,18,18,Jits_Linear_8,0,5,56,103,2504053028
33,18,18,Jits_Linear_8,1,5,63,98,2504063300
33,18,18,Jits_Linear_8,2,5,80,127,2504112780
33,18,18,Jits_Linear_8,3,1,48,48,2504124592
33,18,18,Jits_Linear_8,0,5,56,103,2504563128
33,18,18,Jits_Linear_8,1,5,80,127,2504566120
33,18,18,Jits_Linear_8,2,1,48,53,2504575760
33,18,18,Jits_Linear_8,3,5,63,98,2504722788
33,18,18,Jits_Linear_8,0,5,63,98,2505092584
33,18,18,Jits_Linear_8,1,1,48,49,2505116452
33,18,18,Jits_Linear_8,2,5,56,103,2505163160
33,18,18,Jits_Linear_8,3,5,80,127,2505203172
33,18,18,Jits_Linear_8,0,5,63,98,2505643360
33,18,18,Jits_Linear_8,1,1,48,48,2505644328
33,18,18,Jits_Linear_8,2,5,56,103,2505732592
33,18,18,Jits_Linear_8,3,5,80,127,2505735732
33,18,18,Jits_Linear_8,0,5,56,103,2506132700
33,18,18,Jits_Linear_8,1,1,48,51,2506221092
33,18,18,Jits_Linear_8,2,5,63,98,2506222904
33,18,18,Jits_Linear_8,3,5,80,127,2506233248
33,18,18,Jits_Linear_8,0,5,56,103,2506613044
33,18,18,Jits_Linear_8,1,5,63,98,2506663568
33,18,18,Jits_Linear_8,2,5,80,127,2506692948
33,18,18,Jits_Linear_8,3,1,48,54,2506725808
33,18,18,Jits_Linear_8,0,1,48,52,2507158424
33,18,18,Jits_Linear_8,1,5,63,98,2507192624
33,18,18,Jits_Linear_8,2,5,80,127,2507202896
33,18,18,Jits_Linear_8,3,5,56,103,2507263268
33,18,18,Jits_Linear_8,0,5,63,98,2507612572
33,18,18,Jits_Linear_8,1,5,80,127,2507672988
33,18,18,Jits_Linear_8,2,1,48,57,2507708920
33,18,18,Jits_Linear_8,3,5,56,103,2507712848
33,18,18,Jits_Linear_8,0,1,48,56,2508201260
33,18,18,Jits_Linear_8,1,5,56,103,2508212664
33,18,18,Jits_Linear_8,2,5,80,127,2508232976
33,18,18,Jits_Linear_8,3,5,63,98,2508252536
33,18,18,Jits_Linear_8,0,5,63,98,2508632392
33,18,18,Jits_Linear_8,1,5,56,103,2508653004
33,18,18,Jits_Linear_8,2,1,48,57,2508677200
33,18,18,Jits_Linear_8,3,5,80,127,2508692956
33,18,18,Jits_Linear_8,0,1,48,51,2509088052
33,18,18,Jits_Linear_8,1,5,63,98,2509143376
33,18,18,Jits_Linear_8,2,5,80,127,2509172980
33,18,18,Jits_Linear_8,3,5,56,103,2509192548
33,18,18,Jits_Linear_8,0,5,80,127,2509613380
33,18,18,Jits_Linear_8,1,1,48,48,2509625644
33,18,18,Jits_Linear_8,2,5,56,103,2509662532
33,18,18,Jits_Linear_8,3,5,63,98,2509722932
33,18,18,Jits_Linear_8,0,5,63,98,2510092624
33,18,18,Jits_Linear_8,1,1,48,54,2510200024
33,18,18,Jits_Linear_8,2,5,56,103,2510212444
33,18,18,Jits_Linear_8,3,5,80,127,2510243316
33,18,18,Jits_Linear_8,0,5,80,127,2510623244
33,18,18,Jits_Linear_8,1,5,63,98,2510642508
33,18,18,Jits_Linear_8,2,1,48,48,2510663840
33,18,18,Jits_Linear_8,3,5,56,103,2510713452
33,18,18,Jits_Linear_8,0,5,63,98,2511133356
33,18,18,Jits_Linear_8,1,5,56,103,2511143476
33,18,18,Jits_Linear_8,2,1,48,51,2511156488
33,18,18,Jits_Linear_8,3,5,80,127,2511223264
33,18,18,Jits_Linear_8,0,1,48,54,2511663208
33,18,18,Jits_Linear_8,1,5,56,103,2511682788
33,18,18,Jits_Linear_8,2,5,80,127,2511712536
33,18,18,Jits_Linear_8,3,5,63,98,2511722736
33,18,18,Jits_Linear_8,0,9999,9999,9999,2401350756
33,18,18,Jits_Linear_8,1,9999,9999,9999,2402170996
33,18,18,Jits_Linear_8,2,9999,9999,9999,2402990152
33,18,18,Jits_Linear_8,3,9999,9999,9999,2403810404
33,18,18,Jits_Linear_8,4,9999,9999,9999,2404630632
33,18,18,Jits_Linear_8,5,9999,9999,9999,2405440580
33,18,18,Jits_Linear_8,6,9999,9999,9999,2406250596
33,18,18,Jits_Linear_8,7,9999,9999,9999,2407060564
33,18,18,Jits_Linear_8,8,9999,9999,9999,2407870588
33,18,18,Jits_Linear_8,9,9999,9999,9999,2408680520
33,18,18,Jits_Linear_8,10,9999,9999,9999,2409480296
33,18,18,Jits_Linear_8,11,9999,9999,9999,2410281024
33,18,18,Jits_Linear_8,12,9999,9999,9999,2411080796
33,18,18,Jits_Linear_8,13,9999,9999,9999,2411880560
33,18,18,Jits_Linear_8,14,9999,9999,9999,2412680308
33,18,18,Jits_Linear_8,15,9999,9999,9999,2413470804
33,18,18,Jits_Linear_8,16,9999,9999,9999,2414260280
33,18,18,Jits_Linear_8,17,9999,9999,9999,2415050836
33,18,18,Jits_Linear_8,18,9999,9999,9999,2415840332
33,18,18,Jits_Linear_8,19,9999,9999,9999,2416630888
33,18,18,Jits_Linear_8,20,9999,9999,9999,2417410116
33,18,18,Jits_Linear_8,21,9999,9999,9999,2418190464
33,18,18,Jits_Linear_8,22,9999,9999,9999,2418970744
33,18,18,Jits_Linear_8,23,9999,9999,9999,2419751016
33,18,18,Jits_Linear_8,24,9999,9999,9999,2420530240
33,18,18,Jits_Linear_8,25,9999,9999,9999,2421300304
33,18,18,Jits_Linear_8,26,9999,9999,9999,2422070388
33,18,18,Jits_Linear_8,27,9999,9999,9999,2422840404
33,18,18,Jits_Linear_8,28,9999,9999,9999,2423610428
33,18,18,Jits_Linear_8,29,9999,9999,9999,2424380540
33,18,18,Jits_Linear_8,30,9999,9999,9999,2425140288
33,18,18,Jits_Linear_8,31,9999,9999,9999,2425900116
33,18,18,Jits_Linear_8,32,9999,9999,9999,2426660920
33,18,18,Jits_Linear_8,33,9999,9999,9999,2427420748
33,18,18,Jits_Linear_8,34,9999,9999,9999,2428180580
33,18,18,Jits_Linear_8,35,9999,9999,9999,2428930164
33,18,18,Jits_Linear_8,36,9999,9999,9999,2429680708
33,18,18,Jits_Linear_8,37,9999,9999,9999,2430430280
33,18,18,Jits_Linear_8,38,9999,9999,9999,2431180900
33,18,18,Jits_Linear_8,39,9999,9999,9999,2431930476
33,18,18,Jits_Linear_8,40,9999,9999,9999,2432670824
33,18,18,Jits_Linear_8,41,9999,9999,9999,2433410112
33,18,18,Jits_Linear_8,42,9999,9999,9999,2434150520
33,18,18,Jits_Linear_8,43,9999,9999,9999,2434890868
33,18,18,Jits_Linear_8,44,9999,9999,9999,2435630152
33,18,18,Jits_Linear_8,45,9999,9999,9999,2436360304
33,18,18,Jits_Linear_8,46,9999,9999,9999,2437090400
33,18,18,Jits_Linear_8,47,9999,9999,9999,2437820488
33,18,18,Jits_Linear_8,48,9999,9999,9999,2438550580
33,18,18,Jits_Linear_8,49,9999,9999,9999,2439280720
33,18,18,Jits_Linear_8,50,9999,9999,9999,2440000612
33,18,18,Jits_Linear_8,51,9999,9999,9999,2440720500
33,18,18,Jits_Linear_8,52,9999,9999,9999,2441440336
33,18,18,Jits_Linear_8,53,9999,9999,9999,2442160244
33,18,18,Jits_Linear_8,54,9999,9999,9999,2442880108
33,18,18,Jits_Linear_8,55,9999,9999,9999,2443590720
33,18,18,Jits_Linear_8,56,9999,9999,9999,2444300344
33,18,18,Jits_Linear_8,57,9999,9999,9999,2445011032
33,18,18,Jits_Linear_8,58,9999,9999,9999,2445720676
33,18,18,Jits_Linear_8,59,9999,9999,9999,2446430276
33,18,18,Jits_Linear_8,60,9999,9999,9999,2447130700
33,18,18,Jits_Linear_8,61,9999,9999,9999,2447830084
33,18,18,Jits_Linear_8,62,9999,9999,9999,2448530508
33,18,18,Jits_Linear_8,63,9999,9999,9999,2449230964
33,18,18,Jits_Linear_8,64,9999,9999,9999,2449930332
33,18,18,Jits_Linear_8,65,9999,9999,9999,2450620488
33,18,18,Jits_Linear_8,66,9999,9999,9999,2451310704
33,18,18,Jits_Linear_8,67,9999,9999,9999,2452000860
33,18,18,Jits_Linear_8,68,9999,9999,9999,2452691016
33,18,18,Jits_Linear_8,69,9999,9999,9999,2453380184
33,18,18,Jits_Linear_8,70,9999,9999,9999,2454060144
33,18,18,Jits_Linear_8,71,9999,9999,9999,2454741084
33,18,18,Jits_Linear_8,72,9999,9999,9999,2455421012
33,18,18,Jits_Linear_8,73,9999,9999,9999,2456100984
33,18,18,Jits_Linear_8,74,9999,9999,9999,2456780896
33,18,18,Jits_Linear_8,75,9999,9999,9999,2457450572
33,18,18,Jits_Linear_8,76,9999,9999,9999,2458120280
33,18,18,Jits_Linear_8,77,9999,9999,9999,2458791040
33,18,18,Jits_Linear_8,78,9999,9999,9999,2459460700
33,18,18,Jits_Linear_8,79,9999,9999,9999,2460130384
33,18,18,Jits_Linear_8,80,9999,9999,9999,2460790908
33,18,18,Jits_Linear_8,81,9999,9999,9999,2461450336
33,18,18,Jits_Linear_8,82,9999,9999,9999,2462110812
33,18,18,Jits_Linear_8,83,9999,9999,9999,2462770292
33,18,18,Jits_Linear_8,84,9999,9999,9999,2463430780
33,18,18,Jits_Linear_8,85,9999,9999,9999,2464080988
33,18,18,Jits_Linear_8,86,9999,9999,9999,2464730176
33,18,18,Jits_Linear_8,87,9999,9999,9999,2465380436
33,18,18,Jits_Linear_8,88,9999,9999,9999,2466030720
33,18,18,Jits_Linear_8,89,9999,9999,9999,2466680920
33,18,18,Jits_Linear_8,90,9999,9999,9999,2467320956
33,18,18,Jits_Linear_8,91,9999,9999,9999,2467960952
33,18,18,Jits_Linear_8,92,9999,9999,9999,2468600924
33,18,18,Jits_Linear_8,93,9999,9999,9999,2469240916
33,18,18,Jits_Linear_8,94,9999,9999,9999,2469880944
33,18,18,Jits_Linear_8,95,9999,9999,9999,2470510696
33,18,18,Jits_Linear_8,96,9999,9999,9999,2471140472
33,18,18,Jits_Linear_8,97,9999,9999,9999,2471770212
33,18,18,Jits_Linear_8,98,9999,9999,9999,2472400964
33,18,18,Jits_Linear_8,99,9999,9999,9999,2473030724
33,18,18,Jits_Linear_8,100,9999,9999,9999,2473650232
33,18,18,Jits_Linear_8,101,9999,9999,9999,2474270832
33,18,18,Jits_Linear_8,102,9999,9999,9999,2474890344
33,18,18,Jits_Linear_8,103,9999,9999,9999,2475510876
33,18,18,Jits_Linear_8,104,9999,9999,9999,2476130368
33,18,18,Jits_Linear_8,105,9999,9999,9999,2476740664
33,18,18,Jits_Linear_8,106,9999,9999,9999,2477350988
33,18,18,Jits_Linear_8,107,9999,9999,9999,2477960284
33,18,18,Jits_Linear_8,108,9999,9999,9999,2478570616
33,18,18,Jits_Linear_8,109,9999,9999,9999,2479180876
33,18,18,Jits_Linear_8,110,9999,9999,9999,2479780984
33,18,18,Jits_Linear_8,111,9999,9999,9999,2480380984
33,18,18,Jits_Linear_8,112,9999,9999,9999,2480981060
33,18,18,Jits_Linear_8,113,9999,9999,9999,2481580120
33,18,18,Jits_Linear_8,114,9999,9999,9999,2482180204
33,18,18,Jits_Linear_8,115,9999,9999,9999,2482771056
33,18,18,Jits_Linear_8,116,9999,9999,9999,2483360828
33,18,18,Jits_Linear_8,117,9999,9999,9999,2483950660
33,18,18,Jits_Linear_8,118,9999,9999,9999,2484540544
33,18,18,Jits_Linear_8,119,9999,9999,9999,2485130312
33,18,18,Jits_Linear_8,120,9999,9999,9999,2485710972
33,18,18,Jits_Linear_8,121,9999,9999,9999,2486290516
33,18,18,Jits_Linear_8,122,9999,9999,9999,2486870124
33,18,18,Jits_Linear_8,123,9999,9999,9999,2487450728
33,18,18,Jits_Linear_8,124,9999,9999,9999,2488030280
33,18,18,Jits_Linear_8,125,9999,9999,9999,2488600672
33,18,18,Jits_Linear_8,126,9999,9999,9999,2489171012
33,18,18,Jits_Linear_8,127,9999,9999,9999,2489740396
33,18,18,Jits_Linear_8,128,9999,9999,9999,2490310724
33,18,18,Jits_Linear_8,129,9999,9999,9999,2490880076
33,18,18,Jits_Linear_8,130,9999,9999,9999,2491440224
33,18,18,Jits_Linear_8,131,9999,9999,9999,2492000360
33,18,18,Jits_Linear_8,132,9999,9999,9999,2492560460
33,18,18,Jits_Linear_8,133,9999,9999,9999,2493120608
33,18,18,Jits_Linear_8,134,9999,9999,9999,2493680748
33,18,18,Jits_Linear_8,135,9999,9999,9999,2494230616
33,18,18,Jits_Linear_8,136,9999,9999,9999,2494780492
33,18,18,Jits_Linear_8,137,9999,9999,9999,2495330384
33,18,18,Jits_Linear_8,138,9999,9999,9999,2495880300
33,18,18,Jits_Linear_8,139,9999,9999,9999,2496430192
33,18,18,Jits_Linear_8,140,9999,9999,9999,2496970848
33,18,18,Jits_Linear_8,141,9999,9999,9999,2497510460
33,18,18,Jits_Linear_8,142,9999,9999,9999,2498050156
33,18,18,Jits_Linear_8,143,9999,9999,9999,2498590816
33,18,18,Jits_Linear_8,144,9999,9999,9999,2499130424
33,18,18,Jits_Linear_8,145,9999,9999,9999,2499660896
33,18,18,Jits_Linear_8,146,9999,9999,9999,2500190320
33,18,18,Jits_Linear_8,147,9999,9999,9999,2500720704
33,18,18,Jits_Linear_8,148,9999,9999,9999,2501250144
33,18,18,Jits_Linear_8,149,9999,9999,9999,2501780536
33,18,18,Jits_Linear_8,150,9999,9999,9999,2502300748
33,18,18,Jits_Linear_8,151,9999,9999,9999,2502820964
33,18,18,Jits_Linear_8,152,9999,9999,9999,2503340140
33,18,18,Jits_Linear_8,153,9999,9999,9999,2503860352
33,18,18,Jits_Linear_8,154,9999,9999,9999,2504380492
33,18,18,Jits_Linear_8,155,9999,9999,9999,2504890436
33,18,18,Jits_Linear_8,156,9999,9999,9999,2505400396
33,18,18,Jits_Linear_8,157,9999,9999,9999,2505910340
33,18,18,Jits_Linear_8,158,9999,9999,9999,2506420288
33,18,18,Jits_Linear_8,159,9999,9999,9999,2506930244
33,18,18,Jits_Linear_8,160,9999,9999,9999,2507430992
33,18,18,Jits_Linear_8,161,9999,9999,9999,2507930748
33,18,18,Jits_Linear_8,162,9999,9999,9999,2508430436
33,18,18,Jits_Linear_8,163,9999,9999,9999,2508930112
33,18,18,Jits_Linear_8,164,9999,9999,9999,2509430888
33,18,18,Jits_Linear_8,165,9999,9999,9999,2509920368
33,18,18,Jits_Linear_8,166,9999,9999,9999,2510410852
33,18,18,Jits_Linear_8,167,9999,9999,9999,2510900344
33,18,18,Jits_Linear_8,168,9999,9999,9999,2511390824
33,18,18,Jits_Linear_8,169,9999,9999,9999,2511880256
33,19,5,ISIP_5,0,5,42,127,2562722124
33,19,5,ISIP_5,1,5,42,127,2563222064
33,19,5,ISIP_5,2,5,42,127,2563721708
33,19,5,ISIP_5,3,5,42,127,2564222248
33,19,5,ISIP_5,4,5,42,127,2564722088
33,19,5,ISIP_5,5,1,48,52,2564739592
33,19,5,ISIP_5,6,1,48,53,2565209328
33,19,5,ISIP_5,7,5,42,127,2565221852
33,19,5,ISIP_5,8,1,48,52,2565712756
33,19,5,ISIP_5,9,5,42,127,2565721396
33,19,5,ISIP_5,10,1,48,53,2566209540
33,19,5,ISIP_5,11,5,42,127,2566222140
33,19,5,ISIP_5,12,1,48,50,2566710200
33,19,5,ISIP_5,13,5,42,127,2566721980
33,19,5,ISIP_5,14,1,48,52,2567215360
33,19,5,ISIP_5,15,5,42,127,2567221752
33,19,5,ISIP_5,16,5,42,127,2567722204
33,19,5,ISIP_5,17,1,48,53,2567754192
33,19,5,ISIP_5,18,1,48,48,2568210256
33,19,5,ISIP_5,19,5,42,127,2568222188
33,19,5,ISIP_5,20,1,48,53,2568698964
33,19,5,ISIP_5,21,5,42,127,2568721732
33,19,5,ISIP_5,22,1,48,55,2569219540
33,19,5,ISIP_5,23,5,42,127,2569221428
33,19,5,ISIP_5,24,1,48,48,2569710464
33,19,5,ISIP_5,25,5,42,127,2569722096
33,19,5,ISIP_5,26,1,48,54,2570206496
33,19,5,ISIP_5,27,5,42,127,2570221864
33,19,5,ISIP_5,28,1,48,48,2570700208
33,19,5,ISIP_5,29,5,42,127,2570721856
33,19,5,ISIP_5,30,1,48,51,2571205664
33,19,5,ISIP_5,31,5,42,127,2571222600
33,19,5,ISIP_5,32,1,48,49,2571702888
33,19,5,ISIP_5,33,5,42,127,2571721996
33,19,5,ISIP_5,34,1,48,48,2572222220
33,19,5,ISIP_5,35,5,42,127,2572223636
33,19,5,ISIP_5,36,1,48,52,2572711180
33,19,5,ISIP_5,37,5,42,127,2572721684
33,19,5,ISIP_5,38,1,48,53,2573213940
33,19,5,ISIP_5,39,5,42,127,2573222204
33,19,5,ISIP_5,40,1,48,56,2573719780
33,19,5,ISIP_5,41,5,42,127,2573721896
33,19,5,ISIP_5,42,5,42,127,2574221820
33,19,5,ISIP_5,43,1,48,54,2574243488
33,19,5,ISIP_5,44,1,48,51,2574715616
33,19,5,ISIP_5,45,5,42,127,2574722628
33,19,5,ISIP_5,46,1,48,48,2575214188
33,19,5,ISIP_5,47,5,42,127,2575222000
33,19,5,ISIP_5,48,5,42,127,2575721928
33,19,5,ISIP_5,49,1,48,51,2575731032
33,19,5,ISIP_5,50,5,42,127,2576221396
33,19,5,ISIP_5,51,1,48,45,2576236108
33,19,5,ISIP_5,52,1,48,47,2576690384
33,19,5,ISIP_5,53,5,42,127,2576722356
33,19,5,ISIP_5,54,5,42,127,2577221984
33,19,5,ISIP_5,55,1,48,44,2577225028
33,19,5,ISIP_5,56,5,42,127,2577721604
33,19,5,ISIP_5,57,1,48,43,2577722568
33,19,5,ISIP_5,58,5,42,127,2578221372
33,19,5,ISIP_5,59,1,48,46,2578227932
33,19,5,ISIP_5,60,1,48,45,2578718628
33,19,5,ISIP_5,61,5,42,127,2578722328
33,19,5,ISIP_5,62,5,42,127,2579221856
33,19,5,ISIP_5,63,1,48,49,2579229312
33,19,5,ISIP_5,64,1,48,47,2579693536
33,19,5,ISIP_5,65,5,42,127,2579721548
33,19,5,ISIP_5,66,5,42,127,2580222292
33,19,5,ISIP_5,67,1,48,48,2580229228
33,19,5,ISIP_5,68,1,48,51,2580700408
33,19,5,ISIP_5,69,5,42,127,2580722280
33,19,5,ISIP_5,70,1,48,46,2581209156
33,19,5,ISIP_5,71,5,42,127,2581221604
33,19,5,ISIP_5,72,1,48,49,2581691044
33,19,5,ISIP_5,73,5,42,127,2581721448
33,19,5,ISIP_5,74,1,48,48,2582205776
33,19,5,ISIP_5,75,5,42,127,2582222340
33,19,5,ISIP_5,76,1,48,51,2582699708
33,19,5,ISIP_5,77,1,48,50,2583206508
33,19,5,ISIP_5,78,1,48,48,2583689596
33,19,5,ISIP_5,79,1,48,47,2584206712
33,19,5,ISIP_5,80,1,48,50,2584720028
33,19,5,ISIP_5,81,1,48,50,2585240216
33,19,5,ISIP_5,82,1,48,49,2585757480
33,19,5,ISIP_5,83,1,48,46,2586247896
33,19,5,ISIP_5,84,1,48,46,2586747636
33,19,5,ISIP_5,85,1,48,49,2587277696
33,19,5,ISIP_5,86,1,48,51,2587762780
33,19,5,ISIP_5,87,1,48,49,2588258432
33,19,5,ISIP_5,88,1,48,47,2588763876
33,19,5,ISIP_5,89,1,48,50,2589272620
33,19,5,ISIP_5,90,1,48,51,2589770968
33,19,5,ISIP_5,91,1,48,51,2590255020
33,19,5,ISIP_5,92,1,48,48,2590746784
33,19,5,ISIP_5,93,1,48,47,2591303616
33,19,5,ISIP_5,94,1,48,49,2591797328
33,19,5,ISIP_5,95,1,48,46,2592276444
33,19,5,ISIP_5,96,1,48,46,2592784892
33,19,5,ISIP_5,97,1,48,43,2593297972
33,19,5,ISIP_5,98,1,48,47,2593778288
33,19,5,ISIP_5,99,1,48,44,2594283812
33,19,5,ISIP_5,100,1,48,46,2594798460
33,19,5,ISIP_5,101,1,48,44,2595313632
33,19,5,ISIP_5,102,1,48,43,2595782360
33,19,5,ISIP_5,103,1,48,47,2596281452
33,19,5,ISIP_5,104,1,48,47,2596785408
33,19,5,ISIP_5,105,1,48,46,2597302672
33,19,5,ISIP_5,106,1,48,43,2597786280
33,19,5,ISIP_5,107,1,48,46,2598284628
33,19,5,ISIP_5,108,1,48,47,2598788508
33,19,5,ISIP_5,109,1,48,48,2599301440
33,19,5,ISIP_5,110,1,48,42,2599776940
33,19,5,ISIP_5,111,1,48,46,2600262420
33,19,5,ISIP_5,112,1,48,44,2600773108
33,19,5,ISIP_5,113,1,48,47,2601296432
33,19,5,ISIP_5,114,1,48,45,2601824092
33,19,5,ISIP_5,115,1,48,44,2602297388
33,19,5,ISIP_5,116,1,48,55,2602788248
33,19,5,ISIP_5,117,1,48,52,2603321000
33,19,5,ISIP_5,118,1,48,46,2603819344
33,19,5,ISIP_5,119,1,48,44,2604306016
33,19,5,ISIP_5,120,1,48,49,2604774892
33,19,5,ISIP_5,121,1,48,49,2605297244
33,19,5,ISIP_5,122,1,48,50,2605804116
33,19,5,ISIP_5,123,1,48,51,2606300140
33,19,5,ISIP_5,124,1,48,51,2606791232
33,19,5,ISIP_5,125,1,48,51,2607283068
33,19,5,ISIP_5,126,1,48,48,2607750968
33,19,5,ISIP_5,127,1,48,50,2608260608
33,19,5,ISIP_5,128,1,48,50,2608755636
33,19,5,ISIP_5,129,1,48,44,2609262208
33,19,5,ISIP_5,130,1,48,46,2609770348
33,19,5,ISIP_5,131,1,48,49,2610282380
33,19,5,ISIP_5,132,1,48,50,2610779308
33,19,5,ISIP_5,133,1,48,53,2611294100
33,19,5,ISIP_5,134,1,48,52,2611809128
33,19,5,ISIP_5,135,1,48,49,2612300512
33,19,5,ISIP_5,136,1,48,51,2612805968
33,19,5,ISIP_5,137,1,48,46,2613319048
33,19,5,ISIP_5,138,1,48,48,2613833320
33,19,5,ISIP_5,139,1,48,51,2614347224
33,19,5,ISIP_5,140,1,48,48,2614830460
33,19,5,ISIP_5,141,1,48,51,2615335984
33,19,5,ISIP_5,142,1,48,50,2615833500
33,19,5,ISIP_5,143,1,48,51,2616323768
33,19,5,ISIP_5,144,1,48,50,2616803344
33,19,5,ISIP_5,145,1,48,50,2617305572
33,19,5,ISIP_5,146,1,48,47,2617795536
33,19,5,ISIP_5,147,1,48,44,2618315200
33,19,5,ISIP_5,148,1,48,47,2618832244
33,19,5,ISIP_5,149,1,48,46,2619360660
33,19,5,ISIP_5,150,1,48,53,2619833500
33,19,5,ISIP_5,151,1,48,52,2620336480
33,19,5,ISIP_5,152,1,48,53,2620873120
33,19,5,ISIP_5,153,1,48,49,2621366452
33,19,5,ISIP_5,154,1,48,55,2621828224
33,19,5,ISIP_5,155,1,48,52,2622334716
33,19,5,ISIP_5,156,1,48,57,2622818528
33,19,5,ISIP_5,157,1,48,57,2623313428
33,19,5,ISIP_5,158,1,48,50,2623814536
33,19,5,ISIP_5,159,1,48,54,2624307796
33,19,5,ISIP_5,160,1,48,54,2624823868
33,19,5,ISIP_5,161,1,48,56,2625330668
33,19,5,ISIP_5,162,1,48,57,2625838360
33,19,5,ISIP_5,163,1,48,54,2626329076
33,19,5,ISIP_5,164,1,48,53,2626847016
33,19,5,ISIP_5,165,1,48,47,2627357620
33,19,5,ISIP_5,166,1,48,47,2627861180
33,19,5,ISIP_5,167,1,48,43,2628350768
33,19,5,ISIP_5,168,1,48,51,2628843504
33,19,5,ISIP_5,169,1,48,49,2629364512
33,19,5,ISIP_5,170,1,48,51,2629866972
33,19,5,ISIP_5,171,1,48,46,2630374216
33,19,5,ISIP_5,172,1,48,50,2630863364
33,19,5,ISIP_5,173,1,48,48,2631357820
33,19,5,ISIP_5,174,1,48,51,2631862524
33,19,5,ISIP_5,175,1,48,51,2632349272
33,19,5,ISIP_5,176,1,48,48,2632857412
33,19,5,ISIP_5,177,1,48,51,2633377152
33,19,5,ISIP_5,178,1,48,51,2633879528
33,19,5,ISIP_5,179,1,48,45,2634390596
33,19,5,ISIP_5,180,1,48,48,2634850692
33,19,5,ISIP_5,181,1,48,50,2635358980
33,19,5,ISIP_5,182,1,48,53,2635913752
33,19,5,ISIP_5,183,1,48,53,2636437372
33,19,5,ISIP_5,184,1,48,54,2636924424
33,19,5,ISIP_5,185,1,48,52,2637425364
33,19,5,ISIP_5,186,1,48,53,2637927672
33,19,5,ISIP_5,187,1,48,54,2638411576
33,19,5,ISIP_5,188,1,48,52,2638920020
33,19,5,ISIP_5,189,1,48,51,2639420908
33,19,5,ISIP_5,190,1,48,46,2639927780
33,19,5,ISIP_5,191,1,48,56,2640419692
33,19,5,ISIP_5,192,1,48,54,2640919608
33,19,5,ISIP_5,193,1,48,52,2641413316
33,19,5,ISIP_5,194,1,48,51,2641905448
33,19,5,ISIP_5,195,1,48,54,2642396012
33,19,5,ISIP_5,0,9999,9999,9999,2562719836
33,19,5,ISIP_5,1,9999,9999,9999,2563219552
33,19,5,ISIP_5,2,9999,9999,9999,2563719272
33,19,5,ISIP_5,3,9999,9999,9999,2564220008
33,19,5,ISIP_5,4,9999,9999,9999,2564719724
33,19,5,ISIP_5,5,9999,9999,9999,2565219416
33,19,5,ISIP_5,6,9999,9999,9999,2565719108
33,19,5,ISIP_5,7,9999,9999,9999,2566219852
33,19,5,ISIP_5,8,9999,9999,9999,2566719544
33,19,5,ISIP_5,9,9999,9999,9999,2567219316
33,19,5,ISIP_5,10,9999,9999,9999,2567719988
33,19,5,ISIP_5,11,9999,9999,9999,2568219752
33,19,5,ISIP_5,12,9999,9999,9999,2568719444
33,19,5,ISIP_5,13,9999,9999,9999,2569219172
33,19,5,ISIP_5,14,9999,9999,9999,2569719880
33,19,5,ISIP_5,15,9999,9999,9999,2570219576
33,19,5,ISIP_5,16,9999,9999,9999,2570719344
33,19,5,ISIP_5,17,9999,9999,9999,2571220088
33,19,5,ISIP_5,18,9999,9999,9999,2571719784
33,19,5,ISIP_5,19,9999,9999,9999,2572219484
33,19,5,ISIP_5,20,9999,9999,9999,2572719176
33,19,5,ISIP_5,21,9999,9999,9999,2573219916
33,19,5,ISIP_5,22,9999,9999,9999,2573719652
33,19,5,ISIP_5,23,9999,9999,9999,2574219384
33,19,5,ISIP_5,24,9999,9999,9999,2574720120
33,19,5,ISIP_5,25,9999,9999,9999,2575219788
33,19,5,ISIP_5,26,9999,9999,9999,2575719492
33,19,5,ISIP_5,27,9999,9999,9999,2576219184
33,19,5,ISIP_5,28,9999,9999,9999,2576719992
33,19,5,ISIP_5,29,9999,9999,9999,2577219696
33,19,5,ISIP_5,30,9999,9999,9999,2577719388
33,19,5,ISIP_5,31,9999,9999,9999,2578219084
33,19,5,ISIP_5,32,9999,9999,9999,2578719820
33,19,5,ISIP_5,33,9999,9999,9999,2579219568
33,19,5,ISIP_5,34,9999,9999,9999,2579719260
33,19,5,ISIP_5,35,9999,9999,9999,2580220004
33,19,5,ISIP_5,36,9999,9999,9999,2580719696
33,19,5,ISIP_5,37,9999,9999,9999,2581219392
33,19,5,ISIP_5,38,9999,9999,9999,2581719160
33,19,5,ISIP_5,39,9999,9999,9999,2582219828
33,19,5,ISIP_5,40,9999,9999,9999,2582719596
33,19,5,ISIP_5,41,9999,9999,9999,2583219288
33,19,5,ISIP_5,42,9999,9999,9999,2583720028
33,19,5,ISIP_5,43,9999,9999,9999,2584219716
33,19,5,ISIP_5,44,9999,9999,9999,2584719432
33,19,5,ISIP_5,45,9999,9999,9999,2585219180
33,19,5,ISIP_5,46,9999,9999,9999,2585719892
33,19,5,ISIP_5,47,9999,9999,9999,2586219584
33,19,5,ISIP_5,48,9999,9999,9999,2586719348
33,19,5,ISIP_5,49,9999,9999,9999,2587220060
33,19,5,ISIP_5,50,9999,9999,9999,2587719752
33,19,5,ISIP_5,51,9999,9999,9999,2588219440
33,19,5,ISIP_5,52,9999,9999,9999,2588719208
33,19,5,ISIP_5,53,9999,9999,9999,2589219948
33,19,5,ISIP_5,54,9999,9999,9999,2589719636
33,19,5,ISIP_5,55,9999,9999,9999,2590219328
33,19,5,ISIP_5,56,9999,9999,9999,2590720064
33,19,5,ISIP_5,57,9999,9999,9999,2591219828
33,19,5,ISIP_5,58,9999,9999,9999,2591719520
33,19,5,ISIP_5,59,9999,9999,9999,2592219212
33,19,5,ISIP_5,60,9999,9999,9999,2592719948
33,19,5,ISIP_5,61,9999,9999,9999,2593219640
33,19,5,ISIP_5,62,9999,9999,9999,2593719404
33,19,5,ISIP_5,63,9999,9999,9999,2594219096
33,19,5,ISIP_5,64,9999,9999,9999,2594719832
33,19,5,ISIP_5,65,9999,9999,9999,2595219524
33,19,5,ISIP_5,66,9999,9999,9999,2595719288
33,19,5,ISIP_5,67,9999,9999,9999,2596220024
33,19,5,ISIP_5,68,9999,9999,9999,2596719692
33,19,5,ISIP_5,69,9999,9999,9999,2597219384
33,19,5,ISIP_5,70,9999,9999,9999,2597719148
33,19,5,ISIP_5,71,9999,9999,9999,2598219884
33,19,5,ISIP_5,72,9999,9999,9999,2598719576
33,19,5,ISIP_5,73,9999,9999,9999,2599219268
33,19,5,ISIP_5,74,9999,9999,9999,2599720004
33,19,5,ISIP_5,75,9999,9999,9999,2600219768
33,19,5,ISIP_5,76,9999,9999,9999,2600719460
33,19,5,ISIP_5,77,9999,9999,9999,2601219152
33,19,5,ISIP_5,78,9999,9999,9999,2601719888
33,19,5,ISIP_5,79,9999,9999,9999,2602219580
33,19,5,ISIP_5,80,9999,9999,9999,2602719344
33,19,5,ISIP_5,81,9999,9999,9999,2603220080
33,19,5,ISIP_5,82,9999,9999,9999,2603719772
33,19,5,ISIP_5,83,9999,9999,9999,2604219460
33,19,5,ISIP_5,84,9999,9999,9999,2604719152
33,19,5,ISIP_5,85,9999,9999,9999,2605219888
33,19,5,ISIP_5,86,9999,9999,9999,2605719652
33,19,5,ISIP_5,87,9999,9999,9999,2606219344
33,19,5,ISIP_5,88,9999,9999,9999,2606720084
33,19,5,ISIP_5,89,9999,9999,9999,2607219824
33,19,5,ISIP_5,90,9999,9999,9999,2607719512
33,19,5,ISIP_5,91,9999,9999,9999,2608219204
33,19,5,ISIP_5,92,9999,9999,9999,2608719940
33,19,5,ISIP_5,93,9999,9999,9999,2609219632
33,19,5,ISIP_5,94,9999,9999,9999,2609719396
33,19,5,ISIP_5,95,9999,9999,9999,2610219088
33,19,5,ISIP_5,96,9999,9999,9999,2610719824
33,19,5,ISIP_5,97,9999,9999,9999,2611219516
33,19,5,ISIP_5,98,9999,9999,9999,2611719280
33,19,5,ISIP_5,99,9999,9999,9999,2612220016
33,19,5,ISIP_5,100,9999,9999,9999,2612719708
33,19,5,ISIP_5,101,9999,9999,9999,2613219400
33,19,5,ISIP_5,102,9999,9999,9999,2613719088
33,19,5,ISIP_5,103,9999,9999,9999,2614219828
33,19,5,ISIP_5,104,9999,9999,9999,2614719592
33,19,5,ISIP_5,105,9999,9999,9999,2615219280
33,19,5,ISIP_5,106,9999,9999,9999,2615720020
33,19,5,ISIP_5,107,9999,9999,9999,2616219708
33,19,5,ISIP_5,108,9999,9999,9999,2616719472
33,19,5,ISIP_5,109,9999,9999,9999,2617219168
33,19,5,ISIP_5,110,9999,9999,9999,2617719876
33,19,5,ISIP_5,111,9999,9999,9999,2618219568
33,19,5,ISIP_5,112,9999,9999,9999,2618719332
33,19,5,ISIP_5,113,9999,9999,9999,2619220072
33,19,5,ISIP_5,114,9999,9999,9999,2619719764
33,19,5,ISIP_5,115,9999,9999,9999,2620219452
33,19,5,ISIP_5,116,9999,9999,9999,2620719220
33,19,5,ISIP_5,117,9999,9999,9999,2621219956
33,19,5,ISIP_5,118,9999,9999,9999,2621719648
33,19,5,ISIP_5,119,9999,9999,9999,2622219340
33,19,5,ISIP_5,120,9999,9999,9999,2622720076
33,19,5,ISIP_5,121,9999,9999,9999,2623219764
33,19,5,ISIP_5,122,9999,9999,9999,2623719532
33,19,5,ISIP_5,123,9999,9999,9999,2624219220
33,19,5,ISIP_5,124,9999,9999,9999,2624719960
33,19,5,ISIP_5,125,9999,9999,9999,2625219648
33,19,5,ISIP_5,126,9999,9999,9999,2625719412
33,19,5,ISIP_5,127,9999,9999,9999,2626219104
33,19,5,ISIP_5,128,9999,9999,9999,2626719840
33,19,5,ISIP_5,129,9999,9999,9999,2627219532
33,19,5,ISIP_5,130,9999,9999,9999,2627719272
33,19,5,ISIP_5,131,9999,9999,9999,2628220008
33,19,5,ISIP_5,132,9999,9999,9999,2628719676
33,19,5,ISIP_5,133,9999,9999,9999,2629219440
33,19,5,ISIP_5,134,9999,9999,9999,2629719132
33,19,5,ISIP_5,135,9999,9999,9999,2630219872
33,19,5,ISIP_5,136,9999,9999,9999,2630719560
33,19,5,ISIP_5,137,9999,9999,9999,2631219252
33,19,5,ISIP_5,138,9999,9999,9999,2631719992
33,19,5,ISIP_5,139,9999,9999,9999,2632219756
33,19,5,ISIP_5,140,9999,9999,9999,2632719444
33,19,5,ISIP_5,141,9999,9999,9999,2633219136
33,19,5,ISIP_5,142,9999,9999,9999,2633719872
33,19,5,ISIP_5,143,9999,9999,9999,2634219640
33,19,5,ISIP_5,144,9999,9999,9999,2634719328
33,19,5,ISIP_5,145,9999,9999,9999,2635220068
33,19,5,ISIP_5,146,9999,9999,9999,2635719760
33,19,5,ISIP_5,147,9999,9999,9999,2636219448
33,19,5,ISIP_5,148,9999,9999,9999,2636719216
33,19,5,ISIP_5,149,9999,9999,9999,2637219952
33,19,5,ISIP_5,150,9999,9999,9999,2637719644
33,19,5,ISIP_5,151,9999,9999,9999,2638219332
33,19,5,ISIP_5,152,9999,9999,9999,2638720072
33,19,5,ISIP_5,153,9999,9999,9999,2639219808
33,19,5,ISIP_5,154,9999,9999,9999,2639719500
33,19,5,ISIP_5,155,9999,9999,9999,2640219192
33,19,5,ISIP_5,156,9999,9999,9999,2640719932
33,19,5,ISIP_5,157,9999,9999,9999,2641219696
33,19,5,ISIP_5,158,9999,9999,9999,2641719384
33,19,5,ISIP_5,159,9999,9999,9999,2642219076
33,20,3,ISIP_8,0,5,42,127,2669781452
33,20,3,ISIP_8,1,5,42,127,2670581204
33,20,3,ISIP_8,2,5,42,127,2671380888
33,20,3,ISIP_8,3,5,42,127,2672180640
33,20,3,ISIP_8,4,5,42,127,2672981516
33,20,3,ISIP_8,5,1,48,41,2673045920
33,20,3,ISIP_8,6,1,48,48,2673763784
33,20,3,ISIP_8,7,5,42,127,2673781268
33,20,3,ISIP_8,8,1,48,38,2674547132
33,20,3,ISIP_8,9,5,42,127,2674580776
33,20,3,ISIP_8,10,1,48,38,2675367988
33,20,3,ISIP_8,11,5,42,127,2675380436
33,20,3,ISIP_8,12,1,48,39,2676176840
33,20,3,ISIP_8,13,5,42,127,2676181440
33,20,3,ISIP_8,14,1,48,34,2676944116
33,20,3,ISIP_8,15,5,42,127,2676981024
33,20,3,ISIP_8,16,1,48,31,2677756940
33,20,3,ISIP_8,17,5,42,127,2677781056
33,20,3,ISIP_8,18,1,48,40,2678546872
33,20,3,ISIP_8,19,5,42,127,2678580492
33,20,3,ISIP_8,20,1,48,36,2679352368
33,20,3,ISIP_8,21,5,42,127,2679381348
33,20,3,ISIP_8,22,5,42,127,2680181036
33,20,3,ISIP_8,23,1,48,38,2680195152
33,20,3,ISIP_8,24,1,48,36,2680948168
33,20,3,ISIP_8,25,5,42,127,2680980812
33,20,3,ISIP_8,26,1,48,48,2681765332
33,20,3,ISIP_8,27,5,42,127,2681780472
33,20,3,ISIP_8,28,1,48,51,2682542844
33,20,3,ISIP_8,29,5,42,127,2682581400
33,20,3,ISIP_8,30,1,48,51,2683348268
33,20,3,ISIP_8,31,5,42,127,2683381136
33,20,3,ISIP_8,32,1,48,44,2684160344
33,20,3,ISIP_8,33,5,42,127,2684180796
33,20,3,ISIP_8,34,1,48,45,2684944816
33,20,3,ISIP_8,35,5,42,127,2684980828
33,20,3,ISIP_8,36,1,48,30,2685719644
33,20,3,ISIP_8,37,5,42,127,2685781308
33,20,3,ISIP_8,38,1,48,42,2686551984
33,20,3,ISIP_8,39,5,42,127,2686581068
33,20,3,ISIP_8,40,1,48,43,2687327936
33,20,3,ISIP_8,41,5,42,127,2687380804
33,20,3,ISIP_8,42,1,48,41,2688119612
33,20,3,ISIP_8,43,5,42,127,2688180832
33,20,3,ISIP_8,44,1,48,40,2688930344
33,20,3,ISIP_8,45,5,42,127,2688981464
33,20,3,ISIP_8,46,1,48,38,2689745264
33,20,3,ISIP_8,47,5,42,127,2689780976
33,20,3,ISIP_8,48,1,48,37,2690542608
33,20,3,ISIP_8,49,5,42,127,2690580860
33,20,3,ISIP_8,50,1,48,33,2691349216
33,20,3,ISIP_8,51,5,42,127,2691380444
33,20,3,ISIP_8,52,1,48,35,2692115592
33,20,3,ISIP_8,53,5,42,127,2692181444
33,20,3,ISIP_8,54,1,48,33,2692930584
33,20,3,ISIP_8,55,5,42,127,2692981204
33,20,3,ISIP_8,56,1,48,36,2693724260
33,20,3,ISIP_8,57,1,48,37,2694537024
33,20,3,ISIP_8,58,1,48,37,2695348572
33,20,3,ISIP_8,59,1,48,36,2696175376
33,20,3,ISIP_8,60,1,48,36,2697014316
33,20,3,ISIP_8,61,1,48,35,2697811128
33,20,3,ISIP_8,62,1,48,44,2698597468
33,20,3,ISIP_8,63,1,48,46,2699419660
33,20,3,ISIP_8,64,1,48,42,2700229788
33,20,3,ISIP_8,65,1,48,39,2701040660
33,20,3,ISIP_8,66,1,48,33,2701797380
33,20,3,ISIP_8,67,1,48,36,2702610796
33,20,3,ISIP_8,68,1,48,39,2703380536
33,20,3,ISIP_8,69,1,48,51,2704187644
33,20,3,ISIP_8,70,1,48,52,2704955496
33,20,3,ISIP_8,71,1,48,48,2705758664
33,20,3,ISIP_8,72,1,48,44,2706542160
33,20,3,ISIP_8,73,1,48,43,2707343784
33,20,3,ISIP_8,74,1,48,40,2708105212
33,20,3,ISIP_8,75,1,48,31,2708931420
33,20,3,ISIP_8,76,1,48,44,2709741628
33,20,3,ISIP_8,77,1,48,44,2710545620
33,20,3,ISIP_8,78,1,48,47,2711333824
33,20,3,ISIP_8,79,1,48,47,2712159208
33,20,3,ISIP_8,80,1,48,46,2712927824
33,20,3,ISIP_8,81,1,48,51,2713709900
33,20,3,ISIP_8,82,1,48,49,2714482056
33,20,3,ISIP_8,83,1,48,45,2715264876
33,20,3,ISIP_8,84,1,48,44,2716065356
33,20,3,ISIP_8,85,1,48,46,2716916692
33,20,3,ISIP_8,86,1,48,44,2717714324
33,20,3,ISIP_8,87,1,48,45,2718507776
33,20,3,ISIP_8,88,1,48,48,2719300848
33,20,3,ISIP_8,89,1,48,48,2720081872
33,20,3,ISIP_8,90,1,48,44,2720837472
33,20,3,ISIP_8,91,1,48,46,2721650768
33,20,3,ISIP_8,92,1,48,38,2722403196
33,20,3,ISIP_8,93,1,48,45,2723176524
33,20,3,ISIP_8,94,1,48,50,2723965656
33,20,3,ISIP_8,95,1,48,45,2724758804
33,20,3,ISIP_8,96,1,48,45,2725534076
33,20,3,ISIP_8,97,1,48,47,2726293864
33,20,3,ISIP_8,98,1,48,47,2727026272
33,20,3,ISIP_8,99,1,48,48,2727851212
33,20,3,ISIP_8,100,1,48,48,2728665748
33,20,3,ISIP_8,101,1,48,42,2729435780
33,20,3,ISIP_8,102,1,48,50,2730171712
33,20,3,ISIP_8,103,1,48,48,2730935316
33,20,3,ISIP_8,104,1,48,46,2731678716
33,20,3,ISIP_8,105,1,48,45,2732471940
33,20,3,ISIP_8,106,1,48,45,2733295684
33,20,3,ISIP_8,107,1,48,44,2734075588
33,20,3,ISIP_8,108,1,48,51,2734889528
33,20,3,ISIP_8,109,1,48,55,2735668912
33,20,3,ISIP_8,110,1,48,52,2736460712
33,20,3,ISIP_8,111,1,48,48,2737203228
33,20,3,ISIP_8,112,1,48,48,2738023820
33,20,3,ISIP_8,113,1,48,52,2738856636
33,20,3,ISIP_8,114,1,48,48,2739649480
33,20,3,ISIP_8,115,1,48,47,2740457440
33,20,3,ISIP_8,116,1,48,50,2741235480
33,20,3,ISIP_8,117,1,48,49,2742022716
33,20,3,ISIP_8,118,1,48,51,2742785348
33,20,3,ISIP_8,119,1,48,48,2743571912
33,20,3,ISIP_8,120,1,48,46,2744367824
33,20,3,ISIP_8,121,1,48,51,2745173684
33,20,3,ISIP_8,122,1,48,53,2745977332
33,20,3,ISIP_8,123,1,48,52,2746770556
33,20,3,ISIP_8,124,1,48,48,2747557120
33,20,3,ISIP_8,125,1,48,54,2748356472
33,20,3,ISIP_8,126,1,48,59,2749196968
33,20,3,ISIP_8,127,1,48,54,2750039480
33,20,3,ISIP_8,128,1,48,53,2750850752
33,20,3,ISIP_8,129,1,48,52,2751653248
33,20,3,ISIP_8,130,1,48,45,2752442732
33,20,3,ISIP_8,131,1,48,43,2753230492
33,20,3,ISIP_8,132,1,48,51,2754045852
33,20,3,ISIP_8,133,1,48,45,2754847228
33,20,3,ISIP_8,134,1,48,49,2755658780
33,20,3,ISIP_8,135,1,48,51,2756514032
33,20,3,ISIP_8,136,1,48,55,2757355048
33,20,3,ISIP_8,137,1,48,54,2758202944
33,20,3,ISIP_8,138,1,48,54,2759004992
33,20,3,ISIP_8,139,1,48,48,2759790988
33,20,3,ISIP_8,140,1,48,55,2760580248
33,20,3,ISIP_8,141,1,48,55,2761433380
33,20,3,ISIP_8,142,1,48,52,2762193464
33,20,3,ISIP_8,143,1,48,51,2763030896
33,20,3,ISIP_8,144,1,48,55,2763857176
33,20,3,ISIP_8,145,1,48,57,2764642240
33,20,3,ISIP_8,146,1,48,55,2765419232
33,20,3,ISIP_8,147,1,48,53,2766243372
33,20,3,ISIP_8,148,1,48,55,2767034796
33,20,3,ISIP_8,149,1,48,51,2767819640
33,20,3,ISIP_8,150,1,48,51,2768578080
33,20,3,ISIP_8,151,1,48,62,2769359408
33,20,3,ISIP_8,152,1,48,52,2770167512
33,20,3,ISIP_8,153,1,48,46,2770940912
33,20,3,ISIP_8,154,1,48,53,2771681480
33,20,3,ISIP_8,155,1,48,54,2772471484
33,20,3,ISIP_8,156,1,48,49,2773296048
33,20,3,ISIP_8,157,1,48,44,2774070720
33,20,3,ISIP_8,158,1,48,53,2774867308
33,20,3,ISIP_8,159,1,48,48,2775692040
33,20,3,ISIP_8,160,1,48,51,2776504340
33,20,3,ISIP_8,161,1,48,59,2777287840
33,20,3,ISIP_8,162,1,48,63,2778099984
33,20,3,ISIP_8,163,1,48,52,2778953868
33,20,3,ISIP_8,164,1,48,52,2779738560
33,20,3,ISIP_8,165,1,48,49,2780549308
33,20,3,ISIP_8,166,1,48,56,2781342676
33,20,3,ISIP_8,167,1,48,57,2782149512
33,20,3,ISIP_8,168,1,48,52,2782945052
33,20,3,ISIP_8,169,1,48,55,2783754204
33,20,3,ISIP_8,170,1,48,46,2784543536
33,20,3,ISIP_8,171,1,48,57,2785314924
33,20,3,ISIP_8,172,1,48,52,2786093632
33,20,3,ISIP_8,173,1,48,54,2786855964
33,20,3,ISIP_8,174,1,48,56,2787656364
33,20,3,ISIP_8,175,1,48,57,2788446372
33,20,3,ISIP_8,176,1,48,53,2789259136
33,20,3,ISIP_8,0,9999,9999,9999,2669779012
33,20,3,ISIP_8,1,9999,9999,9999,2670578768
33,20,3,ISIP_8,2,9999,9999,9999,2671378524
33,20,3,ISIP_8,3,9999,9999,9999,2672178276
33,20,3,ISIP_8,4,9999,9999,9999,2672979004
33,20,3,ISIP_8,5,9999,9999,9999,2673778804
33,20,3,ISIP_8,6,9999,9999,9999,2674578488
33,20,3,ISIP_8,7,9999,9999,9999,2675378224
33,20,3,ISIP_8,8,9999,9999,9999,2676179000
33,20,3,ISIP_8,9,9999,9999,9999,2676978736
33,20,3,ISIP_8,10,9999,9999,9999,2677778544
33,20,3,ISIP_8,11,9999,9999,9999,2678578276
33,20,3,ISIP_8,12,9999,9999,9999,2679379056
33,20,3,ISIP_8,13,9999,9999,9999,2680178796
33,20,3,ISIP_8,14,9999,9999,9999,2680978524
33,20,3,ISIP_8,15,9999,9999,9999,2681778260
33,20,3,ISIP_8,16,9999,9999,9999,2682579040
33,20,3,ISIP_8,17,9999,9999,9999,2683378772
33,20,3,ISIP_8,18,9999,9999,9999,2684178508
33,20,3,ISIP_8,19,9999,9999,9999,2684978240
33,20,3,ISIP_8,20,9999,9999,9999,2685779020
33,20,3,ISIP_8,21,9999,9999,9999,2686578752
33,20,3,ISIP_8,22,9999,9999,9999,2687378512
33,20,3,ISIP_8,23,9999,9999,9999,2688178248
33,20,3,ISIP_8,24,9999,9999,9999,2688979028
33,20,3,ISIP_8,25,9999,9999,9999,2689778760
33,20,3,ISIP_8,26,9999,9999,9999,2690578496
33,20,3,ISIP_8,27,9999,9999,9999,2691378228
33,20,3,ISIP_8,28,9999,9999,9999,2692179008
33,20,3,ISIP_8,29,9999,9999,9999,2692978748
33,20,3,ISIP_8,30,9999,9999,9999,2693778500
33,20,3,ISIP_8,31,9999,9999,9999,2694578228
33,20,3,ISIP_8,32,9999,9999,9999,2695379004
33,20,3,ISIP_8,33,9999,9999,9999,2696178808
33,20,3,ISIP_8,34,9999,9999,9999,2696978544
33,20,3,ISIP_8,35,9999,9999,9999,2697778272
33,20,3,ISIP_8,36,9999,9999,9999,2698579048
33,20,3,ISIP_8,37,9999,9999,9999,2699378800
33,20,3,ISIP_8,38,9999,9999,9999,2700178528
33,20,3,ISIP_8,39,9999,9999,9999,2700978260
33,20,3,ISIP_8,40,9999,9999,9999,2701779036
33,20,3,ISIP_8,41,9999,9999,9999,2702578764
33,20,3,ISIP_8,42,9999,9999,9999,2703378492
33,20,3,ISIP_8,43,9999,9999,9999,2704178272
33,20,3,ISIP_8,44,9999,9999,9999,2704979044
33,20,3,ISIP_8,45,9999,9999,9999,2705778796
33,20,3,ISIP_8,46,9999,9999,9999,2706578524
33,20,3,ISIP_8,47,9999,9999,9999,2707378256
33,20,3,ISIP_8,48,9999,9999,9999,2708179028
33,20,3,ISIP_8,49,9999,9999,9999,2708978760
33,20,3,ISIP_8,50,9999,9999,9999,2709778488
33,20,3,ISIP_8,51,9999,9999,9999,2710578292
33,20,3,ISIP_8,52,9999,9999,9999,2711378992
33,20,3,ISIP_8,53,9999,9999,9999,2712178748
33,20,3,ISIP_8,54,9999,9999,9999,2712978552
33,20,3,ISIP_8,55,9999,9999,9999,2713778280
33,20,3,ISIP_8,56,9999,9999,9999,2714579040
33,20,3,ISIP_8,57,9999,9999,9999,2715378768
33,20,3,ISIP_8,58,9999,9999,9999,2716178496
33,20,3,ISIP_8,59,9999,9999,9999,2716978244
33,20,3,ISIP_8,60,9999,9999,9999,2717779020
33,20,3,ISIP_8,61,9999,9999,9999,2718578772
33,20,3,ISIP_8,62,9999,9999,9999,2719378500
33,20,3,ISIP_8,63,9999,9999,9999,2720178228
33,20,3,ISIP_8,64,9999,9999,9999,2720978992
33,20,3,ISIP_8,65,9999,9999,9999,2721778796
33,20,3,ISIP_8,66,9999,9999,9999,2722578524
33,20,3,ISIP_8,67,9999,9999,9999,2723378252
33,20,3,ISIP_8,68,9999,9999,9999,2724179028
33,20,3,ISIP_8,69,9999,9999,9999,2724978784
33,20,3,ISIP_8,70,9999,9999,9999,2725778512
33,20,3,ISIP_8,71,9999,9999,9999,2726578244
33,20,3,ISIP_8,72,9999,9999,9999,2727379020
33,20,3,ISIP_8,73,9999,9999,9999,2728178748
33,20,3,ISIP_8,74,9999,9999,9999,2728978552
33,20,3,ISIP_8,75,9999,9999,9999,2729778280
33,20,3,ISIP_8,76,9999,9999,9999,2730579056
33,20,3,ISIP_8,77,9999,9999,9999,2731378736
33,20,3,ISIP_8,78,9999,9999,9999,2732178540
33,20,3,ISIP_8,79,9999,9999,9999,2732978272
33,20,3,ISIP_8,80,9999,9999,9999,2733779048
33,20,3,ISIP_8,81,9999,9999,9999,2734578776
33,20,3,ISIP_8,82,9999,9999,9999,2735378508
33,20,3,ISIP_8,83,9999,9999,9999,2736178236
33,20,3,ISIP_8,84,9999,9999,9999,2736979012
33,20,3,ISIP_8,85,9999,9999,9999,2737778768
33,20,3,ISIP_8,86,9999,9999,9999,2738578496
33,20,3,ISIP_8,87,9999,9999,9999,2739378224
33,20,3,ISIP_8,88,9999,9999,9999,2740179000
33,20,3,ISIP_8,89,9999,9999,9999,2740978808
33,20,3,ISIP_8,90,9999,9999,9999,2741778536
33,20,3,ISIP_8,91,9999,9999,9999,2742578264
33,20,3,ISIP_8,92,9999,9999,9999,2743379040
33,20,3,ISIP_8,93,9999,9999,9999,2744178796
33,20,3,ISIP_8,94,9999,9999,9999,2744978524
33,20,3,ISIP_8,95,9999,9999,9999,2745778252
33,20,3,ISIP_8,96,9999,9999,9999,2746579028
33,20,3,ISIP_8,97,9999,9999,9999,2747378760
33,20,3,ISIP_8,98,9999,9999,9999,2748178488
33,20,3,ISIP_8,99,9999,9999,9999,2748978292
33,20,3,ISIP_8,100,9999,9999,9999,2749778992
33,20,3,ISIP_8,101,9999,9999,9999,2750578748
33,20,3,ISIP_8,102,9999,9999,9999,2751378548
33,20,3,ISIP_8,103,9999,9999,9999,2752178280
33,20,3,ISIP_8,104,9999,9999,9999,2752979056
33,20,3,ISIP_8,105,9999,9999,9999,2753778784
33,20,3,ISIP_8,106,9999,9999,9999,2754578512
33,20,3,ISIP_8,107,9999,9999,9999,2755378244
33,20,3,ISIP_8,108,9999,9999,9999,2756179016
33,20,3,ISIP_8,109,9999,9999,9999,2756978772
33,20,3,ISIP_8,110,9999,9999,9999,2757778500
33,20,3,ISIP_8,111,9999,9999,9999,2758578228
33,20,3,ISIP_8,112,9999,9999,9999,2759379004
33,20,3,ISIP_8,113,9999,9999,9999,2760178736
33,20,3,ISIP_8,114,9999,9999,9999,2760978540
33,20,3,ISIP_8,115,9999,9999,9999,2761778272
33,20,3,ISIP_8,116,9999,9999,9999,2762579044
33,20,3,ISIP_8,117,9999,9999,9999,2763378800
33,20,3,ISIP_8,118,9999,9999,9999,2764178528
33,20,3,ISIP_8,119,9999,9999,9999,2764978256
33,20,3,ISIP_8,120,9999,9999,9999,2765779032
33,20,3,ISIP_8,121,9999,9999,9999,2766578764
33,20,3,ISIP_8,122,9999,9999,9999,2767378492
33,20,3,ISIP_8,123,9999,9999,9999,2768178296
33,20,3,ISIP_8,124,9999,9999,9999,2768978996
33,20,3,ISIP_8,125,9999,9999,9999,2769778752
33,20,3,ISIP_8,126,9999,9999,9999,2770578480
33,20,3,ISIP_8,127,9999,9999,9999,2771378284
33,20,3,ISIP_8,128,9999,9999,9999,2772179056
33,20,3,ISIP_8,129,9999,9999,9999,2772978788
33,20,3,ISIP_8,130,9999,9999,9999,2773778516
33,20,3,ISIP_8,131,9999,9999,9999,2774578248
33,20,3,ISIP_8,132,9999,9999,9999,2775379024
33,20,3,ISIP_8,133,9999,9999,9999,2776178776
33,20,3,ISIP_8,134,9999,9999,9999,2776978504
33,20,3,ISIP_8,135,9999,9999,9999,2777778236
33,20,3,ISIP_8,136,9999,9999,9999,2778579008
33,20,3,ISIP_8,137,9999,9999,9999,2779378740
33,20,3,ISIP_8,138,9999,9999,9999,2780178540
33,20,3,ISIP_8,139,9999,9999,9999,2780978272
33,20,3,ISIP_8,140,9999,9999,9999,2781779048
33,20,3,ISIP_8,141,9999,9999,9999,2782578800
33,20,3,ISIP_8,142,9999,9999,9999,2783378532
33,20,3,ISIP_8,143,9999,9999,9999,2784178260
33,20,3,ISIP_8,144,9999,9999,9999,2784979036
33,20,3,ISIP_8,145,9999,9999,9999,2785778768
33,20,3,ISIP_8,146,9999,9999,9999,2786578496
33,20,3,ISIP_8,147,9999,9999,9999,2787378224
33,20,3,ISIP_8,148,9999,9999,9999,2788179000
33,20,3,ISIP_8,149,9999,9999,9999,2788978752
33,21,11,Pattern_Practice,0,5,42,127,2902135180
33,21,11,Pattern_Practice,1,5,42,127,2902634752
33,21,11,Pattern_Practice,2,5,42,127,2903134516
33,21,11,Pattern_Practice,3,5,42,127,2903635280
33,21,11,Pattern_Practice,4,1,48,65,2904104508
33,21,11,Pattern_Practice,5,5,42,127,2904135208
33,21,11,Pattern_Practice,6,1,48,51,2904507568
33,21,11,Pattern_Practice,7,5,42,127,2904634740
33,21,11,Pattern_Practice,8,1,38,92,2904643244
33,21,11,Pattern_Practice,9,1,48,37,2904849988
33,21,11,Pattern_Practice,10,5,42,127,2905134564
33,21,11,Pattern_Practice,11,1,48,32,2905286404
33,21,11,Pattern_Practice,12,1,48,65,2905443708
33,21,11,Pattern_Practice,13,5,42,127,2905635356
33,21,11,Pattern_Practice,14,1,38,80,2905646632
33,21,11,Pattern_Practice,15,1,48,53,2906027308
33,21,11,Pattern_Practice,16,5,42,127,2906135032
33,21,11,Pattern_Practice,17,1,48,62,2906404232
33,21,11,Pattern_Practice,18,1,38,95,2906518376
33,21,11,Pattern_Practice,19,5,42,127,2906634484
33,21,11,Pattern_Practice,20,1,48,43,2906821928
33,21,11,Pattern_Practice,21,5,42,127,2907135300
33,21,11,Pattern_Practice,22,1,48,52,2907306660
33,21,11,Pattern_Practice,23,1,38,84,2907606976
33,21,11,Pattern_Practice,24,5,42,127,2907634988
33,21,11,Pattern_Practice,25,5,42,127,2908134688
33,21,11,Pattern_Practice,26,1,48,57,2908154188
33,21,11,Pattern_Practice,27,1,48,55,2908499232
33,21,11,Pattern_Practice,28,1,38,87,2908627588
33,21,11,Pattern_Practice,29,5,42,127,2908634432
33,21,11,Pattern_Practice,30,1,48,54,2908911992
33,21,11,Pattern_Practice,31,5,42,127,2909135156
33,21,11,Pattern_Practice,32,1,48,55,2909395900
33,21,11,Pattern_Practice,33,5,42,127,2909634852
33,21,11,Pattern_Practice,34,1,38,101,2909656668
33,21,11,Pattern_Practice,35,1,48,65,2909912260
33,21,11,Pattern_Practice,36,5,42,127,2910134896
33,21,11,Pattern_Practice,37,1,48,78,2910158140
33,21,11,Pattern_Practice,38,1,48,73,2910458304
33,21,11,Pattern_Practice,39,1,38,87,2910574092
33,21,11,Pattern_Practice,40,5,42,127,2910635312
33,21,11,Pattern_Practice,41,1,48,74,2910825588
33,21,11,Pattern_Practice,42,5,42,127,2911135068
33,21,11,Pattern_Practice,43,1,48,86,2911193312
33,21,11,Pattern_Practice,44,1,38,106,2911269804
33,21,11,Pattern_Practice,45,1,48,87,2911564796
33,21,11,Pattern_Practice,46,1,38,20,2911574728
33,21,11,Pattern_Practice,47,5,42,127,2911635072
33,21,11,Pattern_Practice,48,1,48,81,2911807340
33,21,11,Pattern_Practice,49,1,48,93,2912080576
33,21,11,Pattern_Practice,50,5,42,127,2912134640
33,21,11,Pattern_Practice,51,1,48,87,2912415344
33,21,11,Pattern_Practice,52,1,38,20,2912424824
33,21,11,Pattern_Practice,53,1,38,100,2912526504
33,21,11,Pattern_Practice,54,5,42,127,2912635224
33,21,11,Pattern_Practice,55,1,48,84,2912832520
33,21,11,Pattern_Practice,56,5,42,127,2913134996
33,21,11,Pattern_Practice,57,1,48,81,2913223380
33,21,11,Pattern_Practice,58,1,48,16,2913357324
33,21,11,Pattern_Practice,59,1,38,114,2913631908
33,21,11,Pattern_Practice,60,5,42,127,2913634660
33,21,11,Pattern_Practice,61,5,42,127,2914135536
33,21,11,Pattern_Practice,62,1,48,112,2914169644
33,21,11,Pattern_Practice,63,1,38,22,2914179572
33,21,11,Pattern_Practice,64,1,48,76,2914504920
33,21,11,Pattern_Practice,65,1,38,67,2914589568
33,21,11,Pattern_Practice,66,5,42,127,2914635216
33,21,11,Pattern_Practice,67,1,38,12,2914848524
33,21,11,Pattern_Practice,68,1,48,103,2914898024
33,21,11,Pattern_Practice,69,5,42,127,2915134924
33,21,11,Pattern_Practice,70,1,48,64,2915350340
33,21,11,Pattern_Practice,71,1,38,101,2915622908
33,21,11,Pattern_Practice,72,1,48,20,2915633084
33,21,11,Pattern_Practice,73,5,42,127,2915635040
33,21,11,Pattern_Practice,74,1,48,86,2916125176
33,21,11,Pattern_Practice,75,1,38,19,2916135072
33,21,11,Pattern_Practice,76,5,42,127,2916137900
33,21,11,Pattern_Practice,77,1,48,67,2916466252
33,21,11,Pattern_Practice,78,1,38,87,2916570352
33,21,11,Pattern_Practice,79,5,42,127,2916635008
33,21,11,Pattern_Practice,80,1,48,59,2916902924
33,21,11,Pattern_Practice,81,5,42,127,2917134616
33,21,11,Pattern_Practice,82,1,48,82,2917310544
33,21,11,Pattern_Practice,83,1,38,127,2917615720
33,21,11,Pattern_Practice,84,5,42,127,2917634600
33,21,11,Pattern_Practice,85,1,48,13,2917926672
33,21,11,Pattern_Practice,86,1,48,75,2918110076
33,21,11,Pattern_Practice,87,5,42,127,2918135024
33,21,11,Pattern_Practice,88,1,48,58,2918364712
33,21,11,Pattern_Practice,89,1,48,73,2918620072
33,21,11,Pattern_Practice,90,5,42,127,2918634920
33,21,11,Pattern_Practice,91,1,48,70,2918865212
33,21,11,Pattern_Practice,92,1,48,77,2919107108
33,21,11,Pattern_Practice,93,5,42,127,2919134520
33,21,11,Pattern_Practice,94,1,48,109,2919360920
33,21,11,Pattern_Practice,95,1,38,23,2919370696
33,21,11,Pattern_Practice,96,1,48,54,2919392068
33,21,11,Pattern_Practice,97,1,48,39,2919425260
33,21,11,Pattern_Practice,98,1,48,127,2919633340
33,21,11,Pattern_Practice,99,5,42,127,2919635448
33,21,11,Pattern_Practice,100,1,38,127,2919638568
33,21,11,Pattern_Practice,101,1,48,127,2919879316
33,21,11,Pattern_Practice,102,1,48,77,2919900984
33,21,11,Pattern_Practice,103,1,38,108,2919963048
33,21,11,Pattern_Practice,104,1,48,104,2920113076
33,21,11,Pattern_Practice,105,1,38,23,2920123380
33,21,11,Pattern_Practice,106,5,42,127,2920135008
33,21,11,Pattern_Practice,107,1,48,67,2920137676
33,21,11,Pattern_Practice,108,1,48,113,2920362260
33,21,11,Pattern_Practice,109,1,48,69,2920391332
33,21,11,Pattern_Practice,110,1,48,52,2920414428
33,21,11,Pattern_Practice,111,1,38,127,2920626256
33,21,11,Pattern_Practice,112,5,42,127,2920634740
33,21,11,Pattern_Practice,113,1,48,100,2920846328
33,21,11,Pattern_Practice,114,1,38,21,2920856636
33,21,11,Pattern_Practice,115,1,48,60,2920867752
33,21,11,Pattern_Practice,116,1,38,112,2920960456
33,21,11,Pattern_Practice,117,5,42,127,2921134552
33,21,11,Pattern_Practice,118,1,48,97,2921188008
33,21,11,Pattern_Practice,119,1,38,21,2921197940
33,21,11,Pattern_Practice,120,1,48,70,2921226040
33,21,11,Pattern_Practice,121,1,38,127,2921306208
33,21,11,Pattern_Practice,122,1,48,90,2921564456
33,21,11,Pattern_Practice,123,5,42,127,2921635124
33,21,11,Pattern_Practice,124,1,48,84,2921805028
33,21,11,Pattern_Practice,125,1,38,20,2921815028
33,21,11,Pattern_Practice,126,1,48,66,2921830592
33,21,11,Pattern_Practice,127,1,48,55,2921854876
33,21,11,Pattern_Practice,128,1,48,124,2922093532
33,21,11,Pattern_Practice,129,1,48,68,2922123508
33,21,11,Pattern_Practice,130,5,42,127,2922134760
33,21,11,Pattern_Practice,131,1,48,124,2922331888
33,21,11,Pattern_Practice,132,1,38,127,2922599620
33,21,11,Pattern_Practice,133,5,42,127,2922634584
33,21,11,Pattern_Practice,134,1,48,71,2922815328
33,21,11,Pattern_Practice,135,1,38,118,2922907496
33,21,11,Pattern_Practice,136,1,38,104,2922924728
33,21,11,Pattern_Practice,137,5,42,127,2923135624
33,21,11,Pattern_Practice,138,1,48,117,2923146376
33,21,11,Pattern_Practice,139,1,38,112,2923254432
33,21,11,Pattern_Practice,140,1,48,22,2923264144
33,21,11,Pattern_Practice,141,1,48,75,2923506472
33,21,11,Pattern_Practice,142,1,48,52,2923536448
33,21,11,Pattern_Practice,143,5,42,127,2923635972
33,21,11,Pattern_Practice,144,1,48,92,2923768708
33,21,11,Pattern_Practice,145,1,48,53,2923801376
33,21,11,Pattern_Practice,146,1,48,71,2924066912
33,21,11,Pattern_Practice,147,1,48,49,2924093740
33,21,11,Pattern_Practice,148,5,42,127,2924134640
33,21,11,Pattern_Practice,149,1,48,78,2924344180
33,21,11,Pattern_Practice,150,1,38,111,2924618996
33,21,11,Pattern_Practice,151,5,42,127,2924634436
33,21,11,Pattern_Practice,152,1,48,57,2924884324
33,21,11,Pattern_Practice,153,1,38,103,2924933260
33,21,11,Pattern_Practice,154,5,42,127,2925135352
33,21,11,Pattern_Practice,155,1,48,87,2925235732
33,21,11,Pattern_Practice,156,1,38,127,2925300264
33,21,11,Pattern_Practice,157,1,38,83,2925315652
33,21,11,Pattern_Practice,158,1,48,78,2925597212
33,21,11,Pattern_Practice,159,5,42,127,2925634872
33,21,11,Pattern_Practice,160,1,48,114,2926085764
33,21,11,Pattern_Practice,161,5,42,127,2926134492
33,21,11,Pattern_Practice,162,1,48,74,2926345260
33,21,11,Pattern_Practice,163,1,48,78,2926592172
33,21,11,Pattern_Practice,164,5,42,127,2926635360
33,21,11,Pattern_Practice,165,1,48,81,2926825784
33,21,11,Pattern_Practice,166,1,48,80,2927065216
33,21,11,Pattern_Practice,167,5,42,127,2927135108
33,21,11,Pattern_Practice,168,1,48,96,2927311244
33,21,11,Pattern_Practice,169,1,38,127,2927571996
33,21,11,Pattern_Practice,170,1,48,127,2927575192
33,21,11,Pattern_Practice,171,5,42,127,2927634764
33,21,11,Pattern_Practice,172,1,48,23,2927903096
33,21,11,Pattern_Practice,173,1,48,114,2928097796
33,21,11,Pattern_Practice,174,1,48,65,2928119688
33,21,11,Pattern_Practice,175,5,42,127,2928134536
33,21,11,Pattern_Practice,176,1,48,77,2928368340
33,21,11,Pattern_Practice,177,1,38,107,2928609188
33,21,11,Pattern_Practice,178,1,48,97,2928622112
33,21,11,Pattern_Practice,179,5,42,127,2928635236
33,21,11,Pattern_Practice,180,1,48,76,2929038080
33,21,11,Pattern_Practice,181,5,42,127,2929135200
33,21,11,Pattern_Practice,182,1,48,82,2929307072
33,21,11,Pattern_Practice,183,1,48,93,2929445056
33,21,11,Pattern_Practice,184,5,42,127,2929634560
33,21,11,Pattern_Practice,185,1,48,127,2929691984
33,21,11,Pattern_Practice,186,1,38,109,2929700488
33,21,11,Pattern_Practice,187,5,42,127,2930135256
33,21,11,Pattern_Practice,188,1,48,127,2930213024
33,21,11,Pattern_Practice,189,1,48,74,2930464712
33,21,11,Pattern_Practice,190,5,42,127,2930635224
33,21,11,Pattern_Practice,191,1,48,104,2930708656
33,21,11,Pattern_Practice,192,1,38,86,2930715512
33,21,11,Pattern_Practice,193,1,48,97,2930939508
33,21,11,Pattern_Practice,194,1,48,85,2931069064
33,21,11,Pattern_Practice,195,5,42,127,2931134992
33,21,11,Pattern_Practice,196,1,48,89,2931323920
33,21,11,Pattern_Practice,197,1,48,107,2931454272
33,21,11,Pattern_Practice,198,5,42,127,2931634404
33,21,11,Pattern_Practice,199,1,38,127,2931700200
33,21,11,Pattern_Practice,200,1,48,127,2931705044
33,21,11,Pattern_Practice,201,1,48,87,2931930236
33,21,11,Pattern_Practice,202,1,38,113,2931949664
33,21,11,Pattern_Practice,203,5,42,127,2932135248
33,21,11,Pattern_Practice,204,1,48,127,2932204940
33,21,11,Pattern_Practice,205,1,48,81,2932454016
33,21,11,Pattern_Practice,206,5,42,127,2932635072
33,21,11,Pattern_Practice,207,1,48,107,2932705956
33,21,11,Pattern_Practice,208,1,38,127,2932710876
33,21,11,Pattern_Practice,209,1,48,78,2932928808
33,21,11,Pattern_Practice,210,1,48,86,2933066712
33,21,11,Pattern_Practice,211,5,42,127,2933134688
33,21,11,Pattern_Practice,212,1,48,82,2933304592
33,21,11,Pattern_Practice,213,1,48,72,2933435116
33,21,11,Pattern_Practice,214,5,42,127,2933634420
33,21,11,Pattern_Practice,215,1,38,127,2933686908
33,21,11,Pattern_Practice,216,1,48,79,2933690176
33,21,11,Pattern_Practice,217,1,48,101,2934125956
33,21,11,Pattern_Practice,218,5,42,127,2934135112
33,21,11,Pattern_Practice,219,1,48,83,2934365900
33,21,11,Pattern_Practice,220,1,38,94,2934595908
33,21,11,Pattern_Practice,221,5,42,127,2934635012
33,21,11,Pattern_Practice,222,1,48,14,2934844180
33,21,11,Pattern_Practice,223,1,38,72,2934849552
33,21,11,Pattern_Practice,224,1,38,100,2934967252
33,21,11,Pattern_Practice,225,5,42,127,2935134744
33,21,11,Pattern_Practice,226,1,38,60,2935186428
33,21,11,Pattern_Practice,227,1,38,127,2935312140
33,21,11,Pattern_Practice,228,1,48,61,2935545440
33,21,11,Pattern_Practice,229,1,38,16,2935556788
33,21,11,Pattern_Practice,230,5,42,127,2935635288
33,21,11,Pattern_Practice,231,1,48,126,2935793756
33,21,11,Pattern_Practice,232,1,38,24,2935803680
33,21,11,Pattern_Practice,233,1,48,57,2935833056
33,21,11,Pattern_Practice,234,1,48,77,2936065516
33,21,11,Pattern_Practice,235,1,38,20,2936075596
33,21,11,Pattern_Practice,236,1,48,57,2936090684
33,21,11,Pattern_Practice,237,5,42,127,2936134996
33,21,11,Pattern_Practice,238,1,48,47,2936535524
33,21,11,Pattern_Practice,239,1,38,22,2936543728
33,21,11,Pattern_Practice,240,1,48,118,2936549092
33,21,11,Pattern_Practice,241,5,42,127,2936634920
33,21,11,Pattern_Practice,242,1,48,102,2937045844
33,21,11,Pattern_Practice,243,1,48,57,2937071476
33,21,11,Pattern_Practice,244,5,42,127,2937134344
33,21,11,Pattern_Practice,245,1,48,83,2937309952
33,21,11,Pattern_Practice,246,1,48,47,2937383832
33,21,11,Pattern_Practice,247,1,38,29,2937396456
33,21,11,Pattern_Practice,248,1,48,79,2937485016
33,21,11,Pattern_Practice,249,5,42,127,2937635128
33,21,11,Pattern_Practice,250,1,48,77,2937711948
33,21,11,Pattern_Practice,251,1,48,97,2937974564
33,21,11,Pattern_Practice,252,1,38,20,2937984420
33,21,11,Pattern_Practice,253,5,42,127,2938134828
33,21,11,Pattern_Practice,254,1,48,92,2938455264
33,21,11,Pattern_Practice,255,1,48,66,2938474788
33,21,11,Pattern_Practice,256,5,42,127,2938634724
33,21,11,Pattern_Practice,257,1,48,83,2939026468
33,21,11,Pattern_Practice,258,1,48,54,2939050156
33,21,11,Pattern_Practice,259,5,42,127,2939135456
33,21,11,Pattern_Practice,260,1,48,57,2939253696
33,21,11,Pattern_Practice,261,1,48,77,2939351664
33,21,11,Pattern_Practice,262,1,48,58,2939453820
33,21,11,Pattern_Practice,263,5,42,127,2939635096
33,21,11,Pattern_Practice,264,1,48,66,2939751560
33,21,11,Pattern_Practice,265,1,48,89,2940039608
33,21,11,Pattern_Practice,266,1,48,118,2940046164
33,21,11,Pattern_Practice,267,5,42,127,2940134688
33,21,11,Pattern_Practice,268,1,48,81,2940554392
33,21,11,Pattern_Practice,269,5,42,127,2940634608
33,21,11,Pattern_Practice,270,1,48,74,2941063808
33,21,11,Pattern_Practice,271,5,42,127,2941135272
33,21,11,Pattern_Practice,272,1,48,70,2941266356
33,21,11,Pattern_Practice,273,1,48,67,2941374140
33,21,11,Pattern_Practice,274,1,48,71,2941460740
33,21,11,Pattern_Practice,275,1,48,60,2941560444
33,21,11,Pattern_Practice,276,5,42,127,2941634976
33,21,11,Pattern_Practice,277,1,48,74,2941883596
33,21,11,Pattern_Practice,0,9999,9999,9999,2902132820
33,21,11,Pattern_Practice,1,9999,9999,9999,2902632536
33,21,11,Pattern_Practice,2,9999,9999,9999,2903132228
33,21,11,Pattern_Practice,3,9999,9999,9999,2903632992
33,21,11,Pattern_Practice,4,9999,9999,9999,2904132700
33,21,11,Pattern_Practice,5,9999,9999,9999,2904632380
33,21,11,Pattern_Practice,6,9999,9999,9999,2905132128
33,21,11,Pattern_Practice,7,9999,9999,9999,2905632848
33,21,11,Pattern_Practice,8,9999,9999,9999,2906132596
33,21,11,Pattern_Practice,9,9999,9999,9999,2906632268
33,21,11,Pattern_Practice,10,9999,9999,9999,2907133012
33,21,11,Pattern_Practice,11,9999,9999,9999,2907632700
33,21,11,Pattern_Practice,12,9999,9999,9999,2908132400
33,21,11,Pattern_Practice,13,9999,9999,9999,2908632144
33,21,11,Pattern_Practice,14,9999,9999,9999,2909132868
33,21,11,Pattern_Practice,15,9999,9999,9999,2909632564
33,21,11,Pattern_Practice,16,9999,9999,9999,2910132312
33,21,11,Pattern_Practice,17,9999,9999,9999,2910633024
33,21,11,Pattern_Practice,18,9999,9999,9999,2911132780
33,21,11,Pattern_Practice,19,9999,9999,9999,2911632488
33,21,11,Pattern_Practice,20,9999,9999,9999,2912132204
33,21,11,Pattern_Practice,21,9999,9999,9999,2912632936
33,21,11,Pattern_Practice,22,9999,9999,9999,2913132632
33,21,11,Pattern_Practice,23,9999,9999,9999,2913632352
33,21,11,Pattern_Practice,24,9999,9999,9999,2914133096
33,21,11,Pattern_Practice,25,9999,9999,9999,2914632780
33,21,11,Pattern_Practice,26,9999,9999,9999,2915132488
33,21,11,Pattern_Practice,27,9999,9999,9999,2915632176
33,21,11,Pattern_Practice,28,9999,9999,9999,2916132944
33,21,11,Pattern_Practice,29,9999,9999,9999,2916632648
33,21,11,Pattern_Practice,30,9999,9999,9999,2917132404
33,21,11,Pattern_Practice,31,9999,9999,9999,2917632092
33,21,11,Pattern_Practice,32,9999,9999,9999,2918132808
33,21,11,Pattern_Practice,33,9999,9999,9999,2918632560
33,21,11,Pattern_Practice,34,9999,9999,9999,2919132232
33,21,11,Pattern_Practice,35,9999,9999,9999,2919632968
33,21,11,Pattern_Practice,36,9999,9999,9999,2920132724
33,21,11,Pattern_Practice,37,9999,9999,9999,2920632380
33,21,11,Pattern_Practice,38,9999,9999,9999,2921132116
33,21,11,Pattern_Practice,39,9999,9999,9999,2921632836
33,21,11,Pattern_Practice,40,9999,9999,9999,2922132548
33,21,11,Pattern_Practice,41,9999,9999,9999,2922632296
33,21,11,Pattern_Practice,42,9999,9999,9999,2923133040
33,21,11,Pattern_Practice,43,9999,9999,9999,2923632724
33,21,11,Pattern_Practice,44,9999,9999,9999,2924132428
33,21,11,Pattern_Practice,45,9999,9999,9999,2924632148
33,21,11,Pattern_Practice,46,9999,9999,9999,2925132916
33,21,11,Pattern_Practice,47,9999,9999,9999,2925632584
33,21,11,Pattern_Practice,48,9999,9999,9999,2926132280
33,21,11,Pattern_Practice,49,9999,9999,9999,2926633072
33,21,11,Pattern_Practice,50,9999,9999,9999,2927132744
33,21,11,Pattern_Practice,51,9999,9999,9999,2927632476
33,21,11,Pattern_Practice,52,9999,9999,9999,2928132172
33,21,11,Pattern_Practice,53,9999,9999,9999,2928632948
33,21,11,Pattern_Practice,54,9999,9999,9999,2929132616
33,21,11,Pattern_Practice,55,9999,9999,9999,2929632348
33,21,11,Pattern_Practice,56,9999,9999,9999,2930133044
33,21,11,Pattern_Practice,57,9999,9999,9999,2930632788
33,21,11,Pattern_Practice,58,9999,9999,9999,2931132480
33,21,11,Pattern_Practice,59,9999,9999,9999,2931632188
33,21,11,Pattern_Practice,60,9999,9999,9999,2932132960
33,21,11,Pattern_Practice,61,9999,9999,9999,2932632636
33,21,11,Pattern_Practice,62,9999,9999,9999,2933132400
33,21,11,Pattern_Practice,63,9999,9999,9999,2933632060
33,21,11,Pattern_Practice,64,9999,9999,9999,2934132828
33,21,11,Pattern_Practice,65,9999,9999,9999,2934632500
33,21,11,Pattern_Practice,66,9999,9999,9999,2935132232
33,21,11,Pattern_Practice,67,9999,9999,9999,2935633000
33,21,11,Pattern_Practice,68,9999,9999,9999,2936132708
33,21,11,Pattern_Practice,69,9999,9999,9999,2936632408
33,21,11,Pattern_Practice,70,9999,9999,9999,2937132132
33,21,11,Pattern_Practice,71,9999,9999,9999,2937632840
33,21,11,Pattern_Practice,72,9999,9999,9999,2938132540
33,21,11,Pattern_Practice,73,9999,9999,9999,2938632288
33,21,11,Pattern_Practice,74,9999,9999,9999,2939133020
33,21,11,Pattern_Practice,75,9999,9999,9999,2939632736
33,21,11,Pattern_Practice,76,9999,9999,9999,2940132400
33,21,11,Pattern_Practice,77,9999,9999,9999,2940632172
33,21,11,Pattern_Practice,78,9999,9999,9999,2941132912
33,21,11,Pattern_Practice,79,9999,9999,9999,2941632616
33,22,13,Improv_Metronome,0,5,42,127,2966953568
33,22,13,Improv_Metronome,1,5,42,127,2967452988
33,22,13,Improv_Metronome,2,5,42,127,2967952704
33,22,13,Improv_Metronome,3,5,42,127,2968452644
33,22,13,Improv_Metronome,4,1,48,42,2968937360
33,22,13,Improv_Metronome,5,5,42,127,2968953400
33,22,13,Improv_Metronome,6,1,48,42,2969205084
33,22,13,Improv_Metronome,7,1,48,46,2969438680
33,22,13,Improv_Metronome,8,5,42,127,2969452776
33,22,13,Improv_Metronome,9,1,48,52,2969695332
33,22,13,Improv_Metronome,10,1,38,116,2969940420
33,22,13,Improv_Metronome,11,5,42,127,2969952524
33,22,13,Improv_Metronome,12,1,48,57,2969970976
33,22,13,Improv_Metronome,13,1,48,40,2970178188
33,22,13,Improv_Metronome,14,1,48,59,2970431904
33,22,13,Improv_Metronome,15,5,42,127,2970453256
33,22,13,Improv_Metronome,16,1,48,60,2970662376
33,22,13,Improv_Metronome,17,1,48,54,2970943696
33,22,13,Improv_Metronome,18,5,42,127,2970953224
33,22,13,Improv_Metronome,19,1,48,60,2971162272
33,22,13,Improv_Metronome,20,1,48,72,2971430724
33,22,13,Improv_Metronome,21,5,42,127,2971452676
33,22,13,Improv_Metronome,22,1,48,76,2971670248
33,22,13,Improv_Metronome,23,1,38,125,2971921944
33,22,13,Improv_Metronome,24,1,48,23,2971931648
33,22,13,Improv_Metronome,25,1,48,117,2971937988
33,22,13,Improv_Metronome,26,1,38,82,2971941256
33,22,13,Improv_Metronome,27,5,42,127,2971952584
33,22,13,Improv_Metronome,28,1,48,60,2971961972
33,22,13,Improv_Metronome,29,1,48,107,2972172276
33,22,13,Improv_Metronome,30,1,38,127,2972253604
33,22,13,Improv_Metronome,31,1,48,107,2972402324
33,22,13,Improv_Metronome,32,1,48,53,2972434840
33,22,13,Improv_Metronome,33,5,42,127,2972453124
33,22,13,Improv_Metronome,34,1,48,84,2972674660
33,22,13,Improv_Metronome,35,1,48,102,2972924860
33,22,13,Improv_Metronome,36,5,42,127,2972953092
33,22,13,Improv_Metronome,37,1,48,54,2972958592
33,22,13,Improv_Metronome,38,1,48,78,2973173044
33,22,13,Improv_Metronome,39,1,48,43,2973207424
33,22,13,Improv_Metronome,40,1,48,75,2973421200
33,22,13,Improv_Metronome,41,5,42,127,2973452724
33,22,13,Improv_Metronome,42,1,48,62,2973657584
33,22,13,Improv_Metronome,43,1,38,107,2973894172
33,22,13,Improv_Metronome,44,1,48,92,2973916816
33,22,13,Improv_Metronome,45,5,42,127,2973953352
33,22,13,Improv_Metronome,46,1,48,81,2974153168
33,22,13,Improv_Metronome,47,1,48,72,2974388340
33,22,13,Improv_Metronome,48,5,42,127,2974453216
33,22,13,Improv_Metronome,49,1,48,74,2974642596
33,22,13,Improv_Metronome,50,1,48,80,2974894368
33,22,13,Improv_Metronome,51,5,42,127,2974952816
33,22,13,Improv_Metronome,52,1,48,74,2975143460
33,22,13,Improv_Metronome,53,1,48,101,2975408100
33,22,13,Improv_Metronome,54,5,42,127,2975452488
33,22,13,Improv_Metronome,55,1,48,82,2975659592
33,22,13,Improv_Metronome,56,1,38,111,2975902312
33,22,13,Improv_Metronome,57,1,48,127,2975909028
33,22,13,Improv_Metronome,58,1,48,62,2975934512
33,22,13,Improv_Metronome,59,5,42,127,2975953316
33,22,13,Improv_Metronome,60,1,48,104,2976143936
33,22,13,Improv_Metronome,61,1,48,65,2976168820
33,22,13,Improv_Metronome,62,1,38,127,2976245996
33,22,13,Improv_Metronome,63,1,48,102,2976381204
33,22,13,Improv_Metronome,64,5,42,127,2976453040
33,22,13,Improv_Metronome,65,1,48,97,2976623720
33,22,13,Improv_Metronome,66,1,48,64,2976650324
33,22,13,Improv_Metronome,67,1,38,127,2976873972
33,22,13,Improv_Metronome,68,5,42,127,2976952544
33,22,13,Improv_Metronome,69,1,48,72,2977140496
33,22,13,Improv_Metronome,70,1,48,95,2977367932
33,22,13,Improv_Metronome,71,5,42,127,2977453412
33,22,13,Improv_Metronome,72,1,48,105,2977609400
33,22,13,Improv_Metronome,73,1,38,127,2977619332
33,22,13,Improv_Metronome,74,1,38,109,2977639608
33,22,13,Improv_Metronome,75,1,48,88,2977844048
33,22,13,Improv_Metronome,76,1,48,56,2977871628
33,22,13,Improv_Metronome,77,5,42,127,2977953068
33,22,13,Improv_Metronome,78,1,48,78,2978115044
33,22,13,Improv_Metronome,79,1,48,121,2978357316
33,22,13,Improv_Metronome,80,1,48,68,2978377864
33,22,13,Improv_Metronome,81,1,38,127,2978382108
33,22,13,Improv_Metronome,82,5,42,127,2978452924
33,22,13,Improv_Metronome,83,1,48,78,2978599088
33,22,13,Improv_Metronome,84,1,48,57,2978620460
33,22,13,Improv_Metronome,85,1,38,127,2978709408
33,22,13,Improv_Metronome,86,1,48,83,2978827988
33,22,13,Improv_Metronome,87,5,42,127,2978952496
33,22,13,Improv_Metronome,88,1,48,92,2979082620
33,22,13,Improv_Metronome,89,1,38,20,2979092468
33,22,13,Improv_Metronome,90,1,48,52,2979111152
33,22,13,Improv_Metronome,91,1,48,94,2979312628
33,22,13,Improv_Metronome,92,1,38,22,2979322632
33,22,13,Improv_Metronome,93,5,42,127,2979453248
33,22,13,Improv_Metronome,94,1,48,120,2979569608
33,22,13,Improv_Metronome,95,1,38,26,2979579684
33,22,13,Improv_Metronome,96,1,38,127,2979587668
33,22,13,Improv_Metronome,97,1,48,73,2979794692
33,22,13,Improv_Metronome,98,1,38,18,2979804996
33,22,13,Improv_Metronome,99,1,48,45,2979825700
33,22,13,Improv_Metronome,100,5,42,127,2979952944
33,22,13,Improv_Metronome,101,1,48,83,2980038864
33,22,13,Improv_Metronome,102,1,48,50,2980066668
33,22,13,Improv_Metronome,103,1,48,96,2980294204
33,22,13,Improv_Metronome,104,1,38,127,2980299124
33,22,13,Improv_Metronome,105,1,48,67,2980312036
33,22,13,Improv_Metronome,106,5,42,127,2980452900
33,22,13,Improv_Metronome,107,1,48,82,2980545556
33,22,13,Improv_Metronome,108,1,38,19,2980555328
33,22,13,Improv_Metronome,109,1,48,49,2980584780
33,22,13,Improv_Metronome,110,1,48,100,2980801144
33,22,13,Improv_Metronome,111,1,38,21,2980810924
33,22,13,Improv_Metronome,112,5,42,127,2980952432
33,22,13,Improv_Metronome,113,1,48,89,2981188344
33,22,13,Improv_Metronome,114,1,38,73,2981289476
33,22,13,Improv_Metronome,115,5,42,127,2981453152
33,22,13,Improv_Metronome,116,1,48,77,2981545600
33,22,13,Improv_Metronome,117,1,48,100,2981893788
33,22,13,Improv_Metronome,118,1,48,64,2981914036
33,22,13,Improv_Metronome,119,5,42,127,2981952892
33,22,13,Improv_Metronome,120,1,38,123,2982020044
33,22,13,Improv_Metronome,121,1,38,127,2982038052
33,22,13,Improv_Metronome,122,1,48,113,2982291092
33,22,13,Improv_Metronome,123,1,48,70,2982310368
33,22,13,Improv_Metronome,124,5,42,127,2982452804
33,22,13,Improv_Metronome,125,1,48,90,2982522592
33,22,13,Improv_Metronome,126,1,48,119,2982766736
33,22,13,Improv_Metronome,127,1,38,22,2982776588
33,22,13,Improv_Metronome,128,5,42,127,2982953252
33,22,13,Improv_Metronome,129,1,48,92,2983089536
33,22,13,Improv_Metronome,130,1,38,127,2983202012
33,22,13,Improv_Metronome,131,5,42,127,2983453000
33,22,13,Improv_Metronome,132,1,48,105,2983458808
33,22,13,Improv_Metronome,133,1,48,59,2983482124
33,22,13,Improv_Metronome,134,1,48,112,2983788372
33,22,13,Improv_Metronome,135,1,38,23,2983798228
33,22,13,Improv_Metronome,136,1,48,69,2983806804
33,22,13,Improv_Metronome,137,1,38,127,2983898460
33,22,13,Improv_Metronome,138,1,48,24,2983908616
33,22,13,Improv_Metronome,139,1,38,127,2983913376
33,22,13,Improv_Metronome,140,5,42,127,2983952904
33,22,13,Improv_Metronome,141,1,48,127,2984161248
33,22,13,Improv_Metronome,142,1,38,24,2984170732
33,22,13,Improv_Metronome,143,1,48,84,2984180208
33,22,13,Improv_Metronome,144,1,48,117,2984406744
33,22,13,Improv_Metronome,145,1,38,22,2984416900
33,22,13,Improv_Metronome,146,1,48,77,2984426528
33,22,13,Improv_Metronome,147,5,42,127,2984452588
33,22,13,Improv_Metronome,148,1,38,94,2984622568
33,22,13,Improv_Metronome,149,1,38,66,2984826764
33,22,13,Improv_Metronome,150,5,42,127,2984953268
33,22,13,Improv_Metronome,151,1,38,67,2985041964
33,22,13,Improv_Metronome,152,1,38,67,2985253712
33,22,13,Improv_Metronome,153,1,38,67,2985441760
33,22,13,Improv_Metronome,154,1,48,96,2985446600
33,22,13,Improv_Metronome,155,5,42,127,2985452992
33,22,13,Improv_Metronome,156,1,38,48,2985837960
33,22,13,Improv_Metronome,157,5,42,127,2985952496
33,22,13,Improv_Metronome,158,1,38,68,2986039688
33,22,13,Improv_Metronome,159,1,38,63,2986431656
33,22,13,Improv_Metronome,160,5,42,127,2986453304
33,22,13,Improv_Metronome,161,1,48,61,2986820624
33,22,13,Improv_Metronome,162,5,42,127,2986953132
33,22,13,Improv_Metronome,163,1,48,101,2987043464
33,22,13,Improv_Metronome,164,1,48,19,2987311992
33,22,13,Improv_Metronome,165,5,42,127,2987452656
33,22,13,Improv_Metronome,166,1,48,119,2987937900
33,22,13,Improv_Metronome,167,1,38,24,2987947896
33,22,13,Improv_Metronome,168,5,42,127,2987952720
33,22,13,Improv_Metronome,169,1,48,77,2988161440
33,22,13,Improv_Metronome,170,1,38,19,2988171368
33,22,13,Improv_Metronome,171,1,48,69,2988374172
33,22,13,Improv_Metronome,172,5,42,127,2988453216
33,22,13,Improv_Metronome,173,1,48,86,2988598508
33,22,13,Improv_Metronome,174,1,48,127,2988853272
33,22,13,Improv_Metronome,175,1,38,122,2988856468
33,22,13,Improv_Metronome,176,1,38,94,2988870432
33,22,13,Improv_Metronome,177,5,42,127,2988952828
33,22,13,Improv_Metronome,178,1,48,68,2989315360
33,22,13,Improv_Metronome,179,5,42,127,2989452508
33,22,13,Improv_Metronome,180,1,48,123,2989555032
33,22,13,Improv_Metronome,181,1,38,26,2989564960
33,22,13,Improv_Metronome,182,1,48,127,2989951532
33,22,13,Improv_Metronome,183,5,42,127,2989953344
33,22,13,Improv_Metronome,184,1,38,24,2989961700
33,22,13,Improv_Metronome,185,1,48,81,2989978356
33,22,13,Improv_Metronome,186,1,48,57,2990001524
33,22,13,Improv_Metronome,187,1,48,123,2990405476
33,22,13,Improv_Metronome,188,1,38,23,2990415332
33,22,13,Improv_Metronome,189,5,42,127,2990453016
33,22,13,Improv_Metronome,190,1,38,91,2990620948
33,22,13,Improv_Metronome,191,1,48,127,2990637680
33,22,13,Improv_Metronome,192,1,48,76,2990661220
33,22,13,Improv_Metronome,193,1,48,63,2990679452
33,22,13,Improv_Metronome,194,5,42,127,2990952876
33,22,13,Improv_Metronome,195,1,48,125,2991013812
33,22,13,Improv_Metronome,196,1,38,25,2991023740
33,22,13,Improv_Metronome,197,1,38,127,2991068676
33,22,13,Improv_Metronome,198,1,38,91,2991081816
33,22,13,Improv_Metronome,199,1,48,105,2991186260
33,22,13,Improv_Metronome,200,1,38,24,2991196748
33,22,13,Improv_Metronome,201,5,42,127,2991452496
33,22,13,Improv_Metronome,202,1,48,98,2991461824
33,22,13,Improv_Metronome,203,1,38,23,2991471756
33,22,13,Improv_Metronome,204,1,48,46,2991494620
33,22,13,Improv_Metronome,205,1,48,127,2991679464
33,22,13,Improv_Metronome,206,1,38,27,2991688876
33,22,13,Improv_Metronome,207,5,42,127,2991953444
33,22,13,Improv_Metronome,208,1,48,106,2992125780
33,22,13,Improv_Metronome,209,1,38,23,2992135564
33,22,13,Improv_Metronome,210,1,48,99,2992352076
33,22,13,Improv_Metronome,211,1,38,23,2992361484
33,22,13,Improv_Metronome,212,5,42,127,2992452904
33,22,13,Improv_Metronome,213,1,38,127,2992583788
33,22,13,Improv_Metronome,214,1,48,24,2992593488
33,22,13,Improv_Metronome,215,1,48,92,2992841492
33,22,13,Improv_Metronome,216,1,38,23,2992850896
33,22,13,Improv_Metronome,217,1,48,59,2992863140
33,22,13,Improv_Metronome,218,5,42,127,2992952548
33,22,13,Improv_Metronome,219,1,48,98,2993287504
33,22,13,Improv_Metronome,220,1,38,23,2993297128
33,22,13,Improv_Metronome,221,5,42,127,2993453376
33,22,13,Improv_Metronome,222,1,48,109,2993507532
33,22,13,Improv_Metronome,223,1,38,24,2993517012
33,22,13,Improv_Metronome,224,1,48,71,2993528656
33,22,13,Improv_Metronome,225,1,48,127,2993931420
33,22,13,Improv_Metronome,226,1,48,78,2993950936
33,22,13,Improv_Metronome,227,5,42,127,2993953124
33,22,13,Improv_Metronome,228,1,48,104,2994359208
33,22,13,Improv_Metronome,229,1,38,116,2994363604
33,22,13,Improv_Metronome,230,5,42,127,2994452708
33,22,13,Improv_Metronome,231,1,48,92,2994656444
33,22,13,Improv_Metronome,232,1,38,127,2994715964
33,22,13,Improv_Metronome,233,1,38,85,2994730896
33,22,13,Improv_Metronome,234,1,48,87,2994844652
33,22,13,Improv_Metronome,235,5,42,127,2994952608
33,22,13,Improv_Metronome,236,1,48,94,2995094652
33,22,13,Improv_Metronome,237,1,38,23,2995103980
33,22,13,Improv_Metronome,238,1,48,107,2995300296
33,22,13,Improv_Metronome,239,1,38,24,2995310300
33,22,13,Improv_Metronome,240,5,42,127,2995453308
33,22,13,Improv_Metronome,241,1,48,89,2995541844
33,22,13,Improv_Metronome,242,1,38,22,2995551664
33,22,13,Improv_Metronome,243,1,48,72,2995771292
33,22,13,Improv_Metronome,244,5,42,127,2995953316
33,22,13,Improv_Metronome,245,1,48,118,2995977004
33,22,13,Improv_Metronome,246,1,38,24,2995987008
33,22,13,Improv_Metronome,247,1,38,113,2996206140
33,22,13,Improv_Metronome,248,1,48,98,2996208588
33,22,13,Improv_Metronome,249,1,38,73,2996222408
33,22,13,Improv_Metronome,250,1,48,100,2996419028
33,22,13,Improv_Metronome,251,1,38,22,2996428956
33,22,13,Improv_Metronome,252,5,42,127,2996452776
33,22,13,Improv_Metronome,253,1,48,87,2996657680
33,22,13,Improv_Metronome,254,1,38,21,2996667684
33,22,13,Improv_Metronome,255,1,48,126,2996882028
33,22,13,Improv_Metronome,256,1,38,25,2996891960
33,22,13,Improv_Metronome,257,5,42,127,2996952504
33,22,13,Improv_Metronome,258,1,48,96,2997302068
33,22,13,Improv_Metronome,259,5,42,127,2997453128
33,22,13,Improv_Metronome,260,1,48,46,2997788520
33,22,13,Improv_Metronome,261,1,38,25,2997795912
33,22,13,Improv_Metronome,262,5,42,127,2997953148
33,22,13,Improv_Metronome,263,1,38,127,2998045804
33,22,13,Improv_Metronome,264,1,38,94,2998065748
33,22,13,Improv_Metronome,265,1,48,14,2998433776
33,22,13,Improv_Metronome,266,5,42,127,2998452512
33,22,13,Improv_Metronome,267,1,48,127,2998927116
33,22,13,Improv_Metronome,268,5,42,127,2998953332
33,22,13,Improv_Metronome,269,1,48,74,2999145100
33,22,13,Improv_Metronome,270,1,48,87,2999405172
33,22,13,Improv_Metronome,271,5,42,127,2999453228
33,22,13,Improv_Metronome,272,1,48,76,2999621712
33,22,13,Improv_Metronome,273,1,38,123,2999852464
33,22,13,Improv_Metronome,274,1,48,98,2999862764
33,22,13,Improv_Metronome,275,5,42,127,2999952864
33,22,13,Improv_Metronome,276,1,48,79,3000086040
33,22,13,Improv_Metronome,277,1,48,71,3000346340
33,22,13,Improv_Metronome,278,5,42,127,3000452596
33,22,13,Improv_Metronome,279,1,48,110,3000571956
33,22,13,Improv_Metronome,280,1,38,24,3000581732
33,22,13,Improv_Metronome,281,5,42,127,3000953304
33,22,13,Improv_Metronome,282,1,48,127,3001030248
33,22,13,Improv_Metronome,283,1,48,79,3001054240
33,22,13,Improv_Metronome,284,5,42,127,3001452976
33,22,13,Improv_Metronome,285,1,48,73,3001485116
33,22,13,Improv_Metronome,286,1,38,127,3001694100
33,22,13,Improv_Metronome,287,1,38,96,3001708968
33,22,13,Improv_Metronome,288,1,48,118,3001712764
33,22,13,Improv_Metronome,289,5,42,127,3001952880
33,22,13,Improv_Metronome,290,1,48,119,3002158924
33,22,13,Improv_Metronome,291,1,38,23,3002168632
33,22,13,Improv_Metronome,292,1,48,95,3002262876
33,22,13,Improv_Metronome,293,1,38,21,3002272956
33,22,13,Improv_Metronome,294,1,48,103,3002344812
33,22,13,Improv_Metronome,295,1,38,21,3002355412
33,22,13,Improv_Metronome,296,5,42,127,3002453312
33,22,13,Improv_Metronome,297,1,48,99,3002623036
33,22,13,Improv_Metronome,298,1,38,23,3002632884
33,22,13,Improv_Metronome,299,5,42,127,3002953036
33,22,13,Improv_Metronome,300,1,48,94,3003090440
33,22,13,Improv_Metronome,301,1,38,21,3003099916
33,22,13,Improv_Metronome,302,1,48,95,3003321376
33,22,13,Improv_Metronome,303,1,38,21,3003331148
33,22,13,Improv_Metronome,304,1,48,51,3003351400
33,22,13,Improv_Metronome,305,5,42,127,3003452888
33,22,13,Improv_Metronome,306,1,38,127,3003552824
33,22,13,Improv_Metronome,307,1,48,115,3003567012
33,22,13,Improv_Metronome,308,1,48,84,3003811880
33,22,13,Improv_Metronome,309,5,42,127,3003952516
33,22,13,Improv_Metronome,310,1,48,91,3004061348
33,22,13,Improv_Metronome,311,1,38,20,3004070676
33,22,13,Improv_Metronome,312,1,48,127,3004300056
33,22,13,Improv_Metronome,313,1,38,34,3004309988
33,22,13,Improv_Metronome,314,5,42,127,3004453216
33,22,13,Improv_Metronome,315,1,48,85,3004770612
33,22,13,Improv_Metronome,316,5,42,127,3004952912
33,22,13,Improv_Metronome,317,1,48,90,3005224724
33,22,13,Improv_Metronome,318,5,42,127,3005452904
33,22,13,Improv_Metronome,319,1,38,127,3005479880
33,22,13,Improv_Metronome,320,1,48,98,3005492580
33,22,13,Improv_Metronome,321,1,48,108,3005729436
33,22,13,Improv_Metronome,322,1,38,127,3005778336
33,22,13,Improv_Metronome,323,1,48,101,3005927156
33,22,13,Improv_Metronome,324,1,38,23,3005936936
33,22,13,Improv_Metronome,325,5,42,127,3005953276
33,22,13,Improv_Metronome,326,1,48,120,3006194604
33,22,13,Improv_Metronome,327,1,48,127,3006425732
33,22,13,Improv_Metronome,328,1,38,24,3006435664
33,22,13,Improv_Metronome,329,5,42,127,3006452976
33,22,13,Improv_Metronome,330,1,48,117,3006651148
33,22,13,Improv_Metronome,331,1,48,108,3006902324
33,22,13,Improv_Metronome,332,1,38,23,3006912324
33,22,13,Improv_Metronome,333,5,42,127,3006952824
33,22,13,Improv_Metronome,334,1,48,100,3007140904
33,22,13,Improv_Metronome,335,1,38,21,3007150976
33,22,13,Improv_Metronome,336,1,48,127,3007381332
33,22,13,Improv_Metronome,337,5,42,127,3007452572
33,22,13,Improv_Metronome,338,1,48,109,3007610232
33,22,13,Improv_Metronome,339,1,48,61,3007642900
33,22,13,Improv_Metronome,340,1,48,127,3007882404
33,22,13,Improv_Metronome,341,5,42,127,3007953196
33,22,13,Improv_Metronome,342,1,48,127,3008118860
33,22,13,Improv_Metronome,343,1,48,127,3008136036
33,22,13,Improv_Metronome,344,1,48,36,3008199972
33,22,13,Improv_Metronome,345,5,42,127,3008452904
33,22,13,Improv_Metronome,346,1,48,107,3008603772
33,22,13,Improv_Metronome,347,1,38,24,3008613628
33,22,13,Improv_Metronome,348,1,48,101,3008811196
33,22,13,Improv_Metronome,349,5,42,127,3008952680
33,22,13,Improv_Metronome,350,1,48,114,3009084076
33,22,13,Improv_Metronome,351,1,38,23,3009094080
33,22,13,Improv_Metronome,352,1,48,102,3009140308
33,22,13,Improv_Metronome,353,1,48,127,3009268988
33,22,13,Improv_Metronome,354,1,38,26,3009278688
33,22,13,Improv_Metronome,355,1,48,69,3009296396
33,22,13,Improv_Metronome,356,1,48,50,3009328312
33,22,13,Improv_Metronome,357,5,42,127,3009453464
33,22,13,Improv_Metronome,358,1,48,106,3009550532
33,22,13,Improv_Metronome,359,1,38,23,3009560528
33,22,13,Improv_Metronome,360,1,48,54,3009587736
33,22,13,Improv_Metronome,361,1,38,127,3009793704
33,22,13,Improv_Metronome,362,1,48,98,3009796976
33,22,13,Improv_Metronome,363,1,38,122,3009810868
33,22,13,Improv_Metronome,364,5,42,127,3009953520
33,22,13,Improv_Metronome,365,1,48,127,3010314724
33,22,13,Improv_Metronome,366,1,48,54,3010349852
33,22,13,Improv_Metronome,367,5,42,127,3010452744
33,22,13,Improv_Metronome,368,1,48,94,3010570900
33,22,13,Improv_Metronome,369,1,38,21,3010580456
33,22,13,Improv_Metronome,370,1,48,49,3010624116
33,22,13,Improv_Metronome,371,1,38,107,3010793736
33,22,13,Improv_Metronome,372,1,38,73,3010812412
33,22,13,Improv_Metronome,373,1,48,127,3010817256
33,22,13,Improv_Metronome,374,5,42,127,3010952664
33,22,13,Improv_Metronome,375,1,48,107,3011056608
33,22,13,Improv_Metronome,376,1,48,116,3011307564
33,22,13,Improv_Metronome,377,5,42,127,3011453460
33,22,13,Improv_Metronome,378,1,48,120,3011557484
33,22,13,Improv_Metronome,379,1,48,127,3011817400
33,22,13,Improv_Metronome,380,1,38,127,3011820752
33,22,13,Improv_Metronome,381,1,38,71,3011852068
33,22,13,Improv_Metronome,382,5,42,127,3011952924
33,22,13,Improv_Metronome,383,1,48,78,3012053432
33,22,13,Improv_Metronome,384,1,48,74,3012321288
33,22,13,Improv_Metronome,385,5,42,127,3012452748
33,22,13,Improv_Metronome,386,1,48,83,3012562824
33,22,13,Improv_Metronome,387,1,38,19,3012572236
33,22,13,Improv_Metronome,388,1,48,116,3012797504
33,22,13,Improv_Metronome,389,1,38,117,3012806380
33,22,13,Improv_Metronome,390,1,38,109,3012827380
33,22,13,Improv_Metronome,391,5,42,127,3012952504
33,22,13,Improv_Metronome,392,1,38,67,3013053704
33,22,13,Improv_Metronome,393,1,38,17,3013316248
33,22,13,Improv_Metronome,394,1,48,43,3013326624
33,22,13,Improv_Metronome,395,1,38,97,3013339472
33,22,13,Improv_Metronome,396,5,42,127,3013453448
33,22,13,Improv_Metronome,397,1,48,48,3013566628
33,22,13,Improv_Metronome,398,1,48,80,3013826028
33,22,13,Improv_Metronome,399,1,38,21,3013836328
33,22,13,Improv_Metronome,400,1,48,63,3013850668
33,22,13,Improv_Metronome,401,5,42,127,3013952760
33,22,13,Improv_Metronome,402,1,48,127,3014343228
33,22,13,Improv_Metronome,403,5,42,127,3014452528
33,22,13,Improv_Metronome,404,1,48,87,3014585220
33,22,13,Improv_Metronome,405,1,38,19,3014595152
33,22,13,Improv_Metronome,406,1,38,113,3014841440
33,22,13,Improv_Metronome,407,1,48,102,3014846876
33,22,13,Improv_Metronome,408,1,38,72,3014858520
33,22,13,Improv_Metronome,409,5,42,127,3014953312
33,22,13,Improv_Metronome,410,1,48,72,3015092944
33,22,13,Improv_Metronome,411,1,48,40,3015136308
33,22,13,Improv_Metronome,412,1,48,78,3015345668
33,22,13,Improv_Metronome,413,5,42,127,3015452948
33,22,13,Improv_Metronome,414,1,48,71,3015591104
33,22,13,Improv_Metronome,415,1,48,103,3015824700
33,22,13,Improv_Metronome,416,1,38,127,3015832456
33,22,13,Improv_Metronome,417,5,42,127,3015952724
33,22,13,Improv_Metronome,418,1,48,69,3016099700
33,22,13,Improv_Metronome,419,1,48,61,3016339056
33,22,13,Improv_Metronome,420,1,38,17,3016353852
33,22,13,Improv_Metronome,421,5,42,127,3016452572
33,22,13,Improv_Metronome,422,1,48,92,3016567240
33,22,13,Improv_Metronome,423,1,38,19,3016577244
33,22,13,Improv_Metronome,424,1,48,121,3016832500
33,22,13,Improv_Metronome,425,1,38,122,3016843776
33,22,13,Improv_Metronome,426,1,48,55,3016860736
33,22,13,Improv_Metronome,427,5,42,127,3016953352
33,22,13,Improv_Metronome,428,1,48,83,3017084988
33,22,13,Improv_Metronome,429,1,48,43,3017321576
33,22,13,Improv_Metronome,430,5,42,127,3017452864
33,22,13,Improv_Metronome,431,1,48,127,3017558000
33,22,13,Improv_Metronome,432,1,48,65,3017588004
33,22,13,Improv_Metronome,433,1,38,79,3017623136
33,22,13,Improv_Metronome,434,1,48,94,3017756376
33,22,13,Improv_Metronome,435,1,38,21,3017766080
33,22,13,Improv_Metronome,436,5,42,127,3017952568
33,22,13,Improv_Metronome,437,1,48,86,3018030188
33,22,13,Improv_Metronome,438,1,38,20,3018040108
33,22,13,Improv_Metronome,439,1,48,92,3018262456
33,22,13,Improv_Metronome,440,1,38,127,3018267300
33,22,13,Improv_Metronome,441,5,42,127,3018453412
33,22,13,Improv_Metronome,442,1,48,79,3018501932
33,22,13,Improv_Metronome,443,1,48,90,3018753556
33,22,13,Improv_Metronome,444,1,38,127,3018763488
33,22,13,Improv_Metronome,445,1,38,97,3018778876
33,22,13,Improv_Metronome,446,5,42,127,3018953240
33,22,13,Improv_Metronome,447,1,48,74,3019242040
33,22,13,Improv_Metronome,448,5,42,127,3019452716
33,22,13,Improv_Metronome,449,1,48,92,3019497192
33,22,13,Improv_Metronome,450,1,48,109,3019738348
33,22,13,Improv_Metronome,451,1,38,120,3019746704
33,22,13,Improv_Metronome,452,1,48,63,3019762840
33,22,13,Improv_Metronome,453,1,38,55,3019775904
33,22,13,Improv_Metronome,454,5,42,127,3019952444
33,22,13,Improv_Metronome,455,1,48,94,3019996256
33,22,13,Improv_Metronome,456,1,48,57,3020029888
33,22,13,Improv_Metronome,457,1,38,127,3020256228
33,22,13,Improv_Metronome,458,1,48,102,3020259428
33,22,13,Improv_Metronome,459,1,38,115,3020273020
33,22,13,Improv_Metronome,460,5,42,127,3020453224
33,22,13,Improv_Metronome,461,1,48,71,3020765656
33,22,13,Improv_Metronome,462,5,42,127,3020953064
33,22,13,Improv_Metronome,463,1,48,102,3021026572
33,22,13,Improv_Metronome,464,1,48,127,3021267572
33,22,13,Improv_Metronome,465,1,38,70,3021273536
33,22,13,Improv_Metronome,466,1,38,88,3021294380
33,22,13,Improv_Metronome,467,5,42,127,3021452596
33,22,13,Improv_Metronome,468,1,48,110,3021518100
33,22,13,Improv_Metronome,469,1,48,52,3021546872
33,22,13,Improv_Metronome,470,1,38,127,3021755112
33,22,13,Improv_Metronome,471,1,48,112,3021775512
33,22,13,Improv_Metronome,472,1,48,64,3021802416
33,22,13,Improv_Metronome,473,5,42,127,3021953452
33,22,13,Improv_Metronome,474,1,48,125,3022250324
33,22,13,Improv_Metronome,475,5,42,127,3022453068
33,22,13,Improv_Metronome,476,1,48,127,3022482964
33,22,13,Improv_Metronome,477,1,38,127,3022745580
33,22,13,Improv_Metronome,478,1,48,122,3022748032
33,22,13,Improv_Metronome,479,5,42,127,3022952992
33,22,13,Improv_Metronome,480,1,48,127,3022986852
33,22,13,Improv_Metronome,481,1,38,127,3023217836
33,22,13,Improv_Metronome,482,1,48,127,3023224020
33,22,13,Improv_Metronome,483,5,42,127,3023452544
33,22,13,Improv_Metronome,484,1,38,127,3023462768
33,22,13,Improv_Metronome,485,1,48,127,3023466568
33,22,13,Improv_Metronome,486,1,38,127,3023679012
33,22,13,Improv_Metronome,487,1,48,127,3023682208
33,22,13,Improv_Metronome,488,1,38,127,3023911968
33,22,13,Improv_Metronome,489,1,48,98,3023914412
33,22,13,Improv_Metronome,490,5,42,127,3023953340
33,22,13,Improv_Metronome,491,1,48,127,3024144108
33,22,13,Improv_Metronome,492,1,48,81,3024165852
33,22,13,Improv_Metronome,493,1,48,127,3024385540
33,22,13,Improv_Metronome,494,1,38,25,3024395544
33,22,13,Improv_Metronome,495,5,42,127,3024453092
33,22,13,Improv_Metronome,496,1,48,127,3024576172
33,22,13,Improv_Metronome,497,1,48,127,3024620584
33,22,13,Improv_Metronome,498,1,48,127,3024858292
33,22,13,Improv_Metronome,499,1,38,25,3024868068
33,22,13,Improv_Metronome,500,1,48,127,3024912408
33,22,13,Improv_Metronome,501,1,38,20,3024944768
33,22,13,Improv_Metronome,502,5,42,127,3024952804
33,22,13,Improv_Metronome,503,1,48,126,3025024824
33,22,13,Improv_Metronome,504,1,38,24,3025035652
33,22,13,Improv_Metronome,505,1,48,94,3025221700
33,22,13,Improv_Metronome,506,5,42,127,3025453464
33,22,13,Improv_Metronome,507,1,48,127,3025491140
33,22,13,Improv_Metronome,508,1,38,27,3025501480
33,22,13,Improv_Metronome,509,1,48,88,3025516044
33,22,13,Improv_Metronome,510,5,42,127,3025953100
33,22,13,Improv_Metronome,511,1,48,117,3025969684
33,22,13,Improv_Metronome,512,1,48,91,3026200360
33,22,13,Improv_Metronome,513,1,48,120,3026428424
33,22,13,Improv_Metronome,514,5,42,127,3026452840
33,22,13,Improv_Metronome,515,1,48,75,3026454840
33,22,13,Improv_Metronome,516,1,48,84,3026693876
33,22,13,Improv_Metronome,517,1,38,20,3026703808
33,22,13,Improv_Metronome,518,1,48,81,3026797984
33,22,13,Improv_Metronome,519,1,48,88,3026898012
33,22,13,Improv_Metronome,520,1,38,21,3026907940
33,22,13,Improv_Metronome,521,5,42,127,3026952480
33,22,13,Improv_Metronome,522,1,48,104,3027153344
33,22,13,Improv_Metronome,523,1,48,120,3027409828
33,22,13,Improv_Metronome,524,1,48,127,3027419904
33,22,13,Improv_Metronome,525,5,42,127,3027453148
33,22,13,Improv_Metronome,526,1,48,100,3027651052
33,22,13,Improv_Metronome,527,1,38,36,3027661648
33,22,13,Improv_Metronome,528,1,48,127,3027901052
33,22,13,Improv_Metronome,529,5,42,127,3027952996
33,22,13,Improv_Metronome,530,1,48,97,3028117616
33,22,13,Improv_Metronome,531,1,48,93,3028134868
33,22,13,Improv_Metronome,532,1,48,127,3028357472
33,22,13,Improv_Metronome,533,1,48,110,3028377568
33,22,13,Improv_Metronome,534,5,42,127,3028452628
33,22,13,Improv_Metronome,535,1,48,121,3028845628
33,22,13,Improv_Metronome,536,1,38,24,3028855476
33,22,13,Improv_Metronome,537,5,42,127,3028952436
33,22,13,Improv_Metronome,538,1,48,85,3029106132
33,22,13,Improv_Metronome,539,1,38,20,3029115988
33,22,13,Improv_Metronome,540,1,48,120,3029348656
33,22,13,Improv_Metronome,541,1,48,127,3029360004
33,22,13,Improv_Metronome,542,5,42,127,3029453084
33,22,13,Improv_Metronome,543,1,48,127,3029876672
33,22,13,Improv_Metronome,544,5,42,127,3029952856
33,22,13,Improv_Metronome,545,5,42,127,3030452780
33,22,13,Improv_Metronome,546,1,48,122,3030915508
33,22,13,Improv_Metronome,547,5,42,127,3030953312
33,22,13,Improv_Metronome,548,5,42,127,3031452940
33,22,13,Improv_Metronome,549,1,38,52,3031928908
33,22,13,Improv_Metronome,550,1,48,113,3031932176
33,22,13,Improv_Metronome,551,5,42,127,3031952632
33,22,13,Improv_Metronome,552,5,42,127,3032452600
33,22,13,Improv_Metronome,553,1,48,119,3032944876
33,22,13,Improv_Metronome,554,5,42,127,3032953136
33,22,13,Improv_Metronome,555,1,38,22,3032955076
33,22,13,Improv_Metronome,556,5,42,127,3033452876
33,22,13,Improv_Metronome,557,5,42,127,3033952668
33,22,13,Improv_Metronome,558,1,48,127,3033963116
33,22,13,Improv_Metronome,559,1,38,24,3033972972
33,22,13,Improv_Metronome,560,1,38,53,3033977808
33,22,13,Improv_Metronome,561,5,42,127,3034453392
33,22,13,Improv_Metronome,562,5,42,127,3034952960
33,22,13,Improv_Metronome,563,1,48,127,3034957644
33,22,13,Improv_Metronome,564,1,38,24,3034967504
33,22,13,Improv_Metronome,565,1,38,127,3034973788
33,22,13,Improv_Metronome,566,1,48,99,3035217800
33,22,13,Improv_Metronome,567,1,38,127,3035231660
33,22,13,Improv_Metronome,568,5,42,127,3035452680
33,22,13,Improv_Metronome,569,1,38,127,3035465000
33,22,13,Improv_Metronome,570,1,48,62,3035473056
33,22,13,Improv_Metronome,571,1,38,81,3035689420
33,22,13,Improv_Metronome,572,1,48,89,3035692616
33,22,13,Improv_Metronome,573,1,38,105,3035914516
33,22,13,Improv_Metronome,574,1,48,78,3035924892
33,22,13,Improv_Metronome,575,5,42,127,3035952452
33,22,13,Improv_Metronome,576,1,38,127,3036129608
33,22,13,Improv_Metronome,577,1,48,95,3036160256
33,22,13,Improv_Metronome,578,1,38,127,3036388896
33,22,13,Improv_Metronome,579,1,48,90,3036398904
33,22,13,Improv_Metronome,580,5,42,127,3036453384
33,22,13,Improv_Metronome,581,1,38,127,3036624780
33,22,13,Improv_Metronome,582,1,48,89,3036627308
33,22,13,Improv_Metronome,583,1,48,127,3036870000
33,22,13,Improv_Metronome,584,1,38,26,3036879932
33,22,13,Improv_Metronome,0,9999,9999,9999,2966950984
33,22,13,Improv_Metronome,1,9999,9999,9999,2967450704
33,22,13,Improv_Metronome,2,9999,9999,9999,2967950420
33,22,13,Improv_Metronome,3,9999,9999,9999,2968450136
33,22,13,Improv_Metronome,4,9999,9999,9999,2968950892
33,22,13,Improv_Metronome,5,9999,9999,9999,2969450564
33,22,13,Improv_Metronome,6,9999,9999,9999,2969950312
33,22,13,Improv_Metronome,7,9999,9999,9999,2970451044
33,22,13,Improv_Metronome,8,9999,9999,9999,2970950716
33,22,13,Improv_Metronome,9,9999,9999,9999,2971450464
33,22,13,Improv_Metronome,10,9999,9999,9999,2971950148
33,22,13,Improv_Metronome,11,9999,9999,9999,2972450912
33,22,13,Improv_Metronome,12,9999,9999,9999,2972950584
33,22,13,Improv_Metronome,13,9999,9999,9999,2973450292
33,22,13,Improv_Metronome,14,9999,9999,9999,2973951064
33,22,13,Improv_Metronome,15,9999,9999,9999,2974450784
33,22,13,Improv_Metronome,16,9999,9999,9999,2974950456
33,22,13,Improv_Metronome,17,9999,9999,9999,2975450204
33,22,13,Improv_Metronome,18,9999,9999,9999,2975950956
33,22,13,Improv_Metronome,19,9999,9999,9999,2976450680
33,22,13,Improv_Metronome,20,9999,9999,9999,2976950332
33,22,13,Improv_Metronome,21,9999,9999,9999,2977451128
33,22,13,Improv_Metronome,22,9999,9999,9999,2977950784
33,22,13,Improv_Metronome,23,9999,9999,9999,2978450488
33,22,13,Improv_Metronome,24,9999,9999,9999,2978950208
33,22,13,Improv_Metronome,25,9999,9999,9999,2979450960
33,22,13,Improv_Metronome,26,9999,9999,9999,2979950656
33,22,13,Improv_Metronome,27,9999,9999,9999,2980450388
33,22,13,Improv_Metronome,28,9999,9999,9999,2980950068
33,22,13,Improv_Metronome,29,9999,9999,9999,2981450864
33,22,13,Improv_Metronome,30,9999,9999,9999,2981950532
33,22,13,Improv_Metronome,31,9999,9999,9999,2982450292
33,22,13,Improv_Metronome,32,9999,9999,9999,2982950964
33,22,13,Improv_Metronome,33,9999,9999,9999,2983450712
33,22,13,Improv_Metronome,34,9999,9999,9999,2983950396
33,22,13,Improv_Metronome,35,9999,9999,9999,2984450156
33,22,13,Improv_Metronome,36,9999,9999,9999,2984950908
33,22,13,Improv_Metronome,37,9999,9999,9999,2985450556
33,22,13,Improv_Metronome,38,9999,9999,9999,2985950284
33,22,13,Improv_Metronome,39,9999,9999,9999,2986451016
33,22,13,Improv_Metronome,40,9999,9999,9999,2986950772
33,22,13,Improv_Metronome,41,9999,9999,9999,2987450444
33,22,13,Improv_Metronome,42,9999,9999,9999,2987950136
33,22,13,Improv_Metronome,43,9999,9999,9999,2988450928
33,22,13,Improv_Metronome,44,9999,9999,9999,2988950616
33,22,13,Improv_Metronome,45,9999,9999,9999,2989450296
33,22,13,Improv_Metronome,46,9999,9999,9999,2989951084
33,22,13,Improv_Metronome,47,9999,9999,9999,2990450804
33,22,13,Improv_Metronome,48,9999,9999,9999,2990950516
33,22,13,Improv_Metronome,49,9999,9999,9999,2991450188
33,22,13,Improv_Metronome,50,9999,9999,9999,2991950936
33,22,13,Improv_Metronome,51,9999,9999,9999,2992450616
33,22,13,Improv_Metronome,52,9999,9999,9999,2992950336
33,22,13,Improv_Metronome,53,9999,9999,9999,2993451088
33,22,13,Improv_Metronome,54,9999,9999,9999,2993950808
33,22,13,Improv_Metronome,55,9999,9999,9999,2994450496
33,22,13,Improv_Metronome,56,9999,9999,9999,2994950248
33,22,13,Improv_Metronome,57,9999,9999,9999,2995450948
33,22,13,Improv_Metronome,58,9999,9999,9999,2995950656
33,22,13,Improv_Metronome,59,9999,9999,9999,2996450412
33,22,13,Improv_Metronome,60,9999,9999,9999,2996950068
33,22,13,Improv_Metronome,61,9999,9999,9999,2997450840
33,22,13,Improv_Metronome,62,9999,9999,9999,2997950564
33,22,13,Improv_Metronome,63,9999,9999,9999,2998450228
33,22,13,Improv_Metronome,64,9999,9999,9999,2998950968
33,22,13,Improv_Metronome,65,9999,9999,9999,2999450716
33,22,13,Improv_Metronome,66,9999,9999,9999,2999950444
33,22,13,Improv_Metronome,67,9999,9999,9999,3000450160
33,22,13,Improv_Metronome,68,9999,9999,9999,3000950868
33,22,13,Improv_Metronome,69,9999,9999,9999,3001450616
33,22,13,Improv_Metronome,70,9999,9999,9999,3001950296
33,22,13,Improv_Metronome,71,9999,9999,9999,3002451024
33,22,13,Improv_Metronome,72,9999,9999,9999,3002950748
33,22,13,Improv_Metronome,73,9999,9999,9999,3003450456
33,22,13,Improv_Metronome,74,9999,9999,9999,3003950152
33,22,13,Improv_Metronome,75,9999,9999,9999,3004450928
33,22,13,Improv_Metronome,76,9999,9999,9999,3004950624
33,22,13,Improv_Metronome,77,9999,9999,9999,3005450320
33,22,13,Improv_Metronome,78,9999,9999,9999,3005951064
33,22,13,Improv_Metronome,79,9999,9999,9999,3006450764
33,22,13,Improv_Metronome,80,9999,9999,9999,3006950464
33,22,13,Improv_Metronome,81,9999,9999,9999,3007450212
33,22,13,Improv_Metronome,82,9999,9999,9999,3007950908
33,22,13,Improv_Metronome,83,9999,9999,9999,3008450620
33,22,13,Improv_Metronome,84,9999,9999,9999,3008950392
33,22,13,Improv_Metronome,85,9999,9999,9999,3009451100
33,22,13,Improv_Metronome,86,9999,9999,9999,3009950788
33,22,13,Improv_Metronome,87,9999,9999,9999,3010450532
33,22,13,Improv_Metronome,88,9999,9999,9999,3010950232
33,22,13,Improv_Metronome,89,9999,9999,9999,3011450948
33,22,13,Improv_Metronome,90,9999,9999,9999,3011950712
33,22,13,Improv_Metronome,91,9999,9999,9999,3012450388
33,22,13,Improv_Metronome,92,9999,9999,9999,3012950068
33,22,13,Improv_Metronome,93,9999,9999,9999,3013450868
33,22,13,Improv_Metronome,94,9999,9999,9999,3013950548
33,22,13,Improv_Metronome,95,9999,9999,9999,3014450244
33,22,13,Improv_Metronome,96,9999,9999,9999,3014951024
33,22,13,Improv_Metronome,97,9999,9999,9999,3015450736
33,22,13,Improv_Metronome,98,9999,9999,9999,3015950436
33,22,13,Improv_Metronome,99,9999,9999,9999,3016450136
33,22,13,Improv_Metronome,100,9999,9999,9999,3016950840
33,22,13,Improv_Metronome,101,9999,9999,9999,3017450576
33,22,13,Improv_Metronome,102,9999,9999,9999,3017950280
33,22,13,Improv_Metronome,103,9999,9999,9999,3018451052
33,22,13,Improv_Metronome,104,9999,9999,9999,3018950732
33,22,13,Improv_Metronome,105,9999,9999,9999,3019450428
33,22,13,Improv_Metronome,106,9999,9999,9999,3019950156
33,22,13,Improv_Metronome,107,9999,9999,9999,3020450936
33,22,13,Improv_Metronome,108,9999,9999,9999,3020950632
33,22,13,Improv_Metronome,109,9999,9999,9999,3021450312
33,22,13,Improv_Metronome,110,9999,9999,9999,3021951088
33,22,13,Improv_Metronome,111,9999,9999,9999,3022450784
33,22,13,Improv_Metronome,112,9999,9999,9999,3022950484
33,22,13,Improv_Metronome,113,9999,9999,9999,3023450184
33,22,13,Improv_Metronome,114,9999,9999,9999,3023950904
33,22,13,Improv_Metronome,115,9999,9999,9999,3024450660
33,22,13,Improv_Metronome,116,9999,9999,9999,3024950372
33,22,13,Improv_Metronome,117,9999,9999,9999,3025451100
33,22,13,Improv_Metronome,118,9999,9999,9999,3025950816
33,22,13,Improv_Metronome,119,9999,9999,9999,3026450480
33,22,13,Improv_Metronome,120,9999,9999,9999,3026950192
33,22,13,Improv_Metronome,121,9999,9999,9999,3027450936
33,22,13,Improv_Metronome,122,9999,9999,9999,3027950712
33,22,13,Improv_Metronome,123,9999,9999,9999,3028450416
33,22,13,Improv_Metronome,124,9999,9999,9999,3028950072
33,22,13,Improv_Metronome,125,9999,9999,9999,3029450872
33,22,13,Improv_Metronome,126,9999,9999,9999,3029950568
33,22,13,Improv_Metronome,127,9999,9999,9999,3030450268
33,22,13,Improv_Metronome,128,9999,9999,9999,3030951028
33,22,13,Improv_Metronome,129,9999,9999,9999,3031450728
33,22,13,Improv_Metronome,130,9999,9999,9999,3031950420
33,22,13,Improv_Metronome,131,9999,9999,9999,3032450168
33,22,13,Improv_Metronome,132,9999,9999,9999,3032950848
33,22,13,Improv_Metronome,133,9999,9999,9999,3033450588
33,22,13,Improv_Metronome,134,9999,9999,9999,3033950308
33,22,13,Improv_Metronome,135,9999,9999,9999,3034451032
33,22,13,Improv_Metronome,136,9999,9999,9999,3034950748
33,22,13,Improv_Metronome,137,9999,9999,9999,3035450468
33,22,13,Improv_Metronome,138,9999,9999,9999,3035950164
33,22,13,Improv_Metronome,139,9999,9999,9999,3036450876
33,23,14,Improv_Melody,0,2,48,80,3083966148
33,23,14,Improv_Melody,1,2,72,80,3083968300
33,23,14,Improv_Melody,2,5,42,127,3083970768
33,23,14,Improv_Melody,3,5,42,110,3084463456
33,23,14,Improv_Melody,4,5,42,110,3084964076
33,23,14,Improv_Melody,5,5,42,110,3085463872
33,23,14,Improv_Melody,6,5,42,127,3085963592
33,23,14,Improv_Melody,7,5,42,110,3086464288
33,23,14,Improv_Melody,8,5,42,110,3086964008
33,23,14,Improv_Melody,9,5,42,110,3087463656
33,23,14,Improv_Melody,10,2,43,80,3087966180
33,23,14,Improv_Melody,11,2,67,80,3087968032
33,23,14,Improv_Melody,12,5,42,127,3087970496
33,23,14,Improv_Melody,13,5,42,110,3088464208
33,23,14,Improv_Melody,14,5,42,110,3088964152
33,23,14,Improv_Melody,15,5,42,110,3089463876
33,23,14,Improv_Melody,16,5,42,127,3089964348
33,23,14,Improv_Melody,17,5,42,110,3090464140
33,23,14,Improv_Melody,18,5,42,110,3090963788
33,23,14,Improv_Melody,19,5,42,110,3091463584
33,23,14,Improv_Melody,20,2,45,80,3091966784
33,23,14,Improv_Melody,21,2,69,80,3091968932
33,23,14,Improv_Melody,22,5,42,127,3091971548
33,23,14,Improv_Melody,23,5,42,110,3092463940
33,23,14,Improv_Melody,24,5,42,110,3092963736
33,23,14,Improv_Melody,25,5,42,110,3093464580
33,23,14,Improv_Melody,26,5,42,127,3093964076
33,23,14,Improv_Melody,27,5,42,110,3094463724
33,23,14,Improv_Melody,28,5,42,110,3094963744
33,23,14,Improv_Melody,29,5,42,110,3095464364
33,23,14,Improv_Melody,30,2,41,80,3095966896
33,23,14,Improv_Melody,31,2,65,80,3095968740
33,23,14,Improv_Melody,32,5,42,127,3095971280
33,23,14,Improv_Melody,33,5,42,110,3096463820
33,23,14,Improv_Melody,34,5,42,110,3096963392
33,23,14,Improv_Melody,35,5,42,110,3097464312
33,23,14,Improv_Melody,36,5,42,127,3097963884
33,23,14,Improv_Melody,37,5,42,110,3098463608
33,23,14,Improv_Melody,38,1,48,91,3098934312
33,23,14,Improv_Melody,39,1,48,63,3098954480
33,23,14,Improv_Melody,40,5,42,110,3098964496
33,23,14,Improv_Melody,41,1,48,59,3099170748
33,23,14,Improv_Melody,42,1,48,92,3099431948
33,23,14,Improv_Melody,43,1,38,20,3099442024
33,23,14,Improv_Melody,44,5,42,110,3099463980
33,23,14,Improv_Melody,45,1,48,65,3099654224
33,23,14,Improv_Melody,46,1,48,78,3099928356
33,23,14,Improv_Melody,47,1,38,80,3099931628
33,23,14,Improv_Melody,48,2,48,80,3099966108
33,23,14,Improv_Melody,49,2,72,80,3099968488
33,23,14,Improv_Melody,50,5,42,127,3099970952
33,23,14,Improv_Melody,51,1,38,55,3099975400
33,23,14,Improv_Melody,52,1,48,115,3100459344
33,23,14,Improv_Melody,53,5,42,110,3100463496
33,23,14,Improv_Melody,54,1,38,23,3100469684
33,23,14,Improv_Melody,55,1,48,69,3100486188
33,23,14,Improv_Melody,56,1,48,106,3100679220
33,23,14,Improv_Melody,57,1,38,22,3100689220
33,23,14,Improv_Melody,58,1,38,64,3100798624
33,23,14,Improv_Melody,59,1,48,89,3100930844
33,23,14,Improv_Melody,60,1,38,20,3100940624
33,23,14,Improv_Melody,61,5,42,110,3100964296
33,23,14,Improv_Melody,62,1,48,79,3101179452
33,23,14,Improv_Melody,63,1,38,72,3101407136
33,23,14,Improv_Melody,64,1,48,99,3101416240
33,23,14,Improv_Melody,65,1,38,56,3101433952
33,23,14,Improv_Melody,66,5,42,110,3101463980
33,23,14,Improv_Melody,67,1,48,100,3101943432
33,23,14,Improv_Melody,68,1,38,22,3101953360
33,23,14,Improv_Melody,69,1,48,75,3101959768
33,23,14,Improv_Melody,70,5,42,127,3101963552
33,23,14,Improv_Melody,71,1,48,87,3102421964
33,23,14,Improv_Melody,72,5,42,110,3102464344
33,23,14,Improv_Melody,73,1,48,72,3102650580
33,23,14,Improv_Melody,74,1,38,18,3102660056
33,23,14,Improv_Melody,75,1,38,84,3102750360
33,23,14,Improv_Melody,76,1,48,73,3102883280
33,23,14,Improv_Melody,77,1,38,18,3102893060
33,23,14,Improv_Melody,78,5,42,110,3102964080
33,23,14,Improv_Melody,79,1,48,68,3103137948
33,23,14,Improv_Melody,80,1,38,97,3103391888
33,23,14,Improv_Melody,81,1,48,94,3103399716
33,23,14,Improv_Melody,82,1,38,64,3103413312
33,23,14,Improv_Melody,83,5,42,110,3103463764
33,23,14,Improv_Melody,84,1,48,122,3103922852
33,23,14,Improv_Melody,85,1,38,25,3103932784
33,23,14,Improv_Melody,86,2,43,80,3103966300
33,23,14,Improv_Melody,87,2,67,80,3103968448
33,23,14,Improv_Melody,88,5,42,127,3103971056
33,23,14,Improv_Melody,89,1,48,63,3104456032
33,23,14,Improv_Melody,90,5,42,110,3104464744
33,23,14,Improv_Melody,91,1,48,117,3104470248
33,23,14,Improv_Melody,92,1,48,105,3104723212
33,23,14,Improv_Melody,93,1,48,60,3104798584
33,23,14,Improv_Melody,94,1,38,16,3104807688
33,23,14,Improv_Melody,95,1,48,93,3104951804
33,23,14,Improv_Melody,96,1,38,21,3104961584
33,23,14,Improv_Melody,97,5,42,110,3104964088
33,23,14,Improv_Melody,98,1,48,44,3104987912
33,23,14,Improv_Melody,99,1,48,116,3105197176
33,23,14,Improv_Melody,100,1,38,23,3105207096
33,23,14,Improv_Melody,101,1,38,81,3105226524
33,23,14,Improv_Melody,102,1,38,99,3105462064
33,23,14,Improv_Melody,103,5,42,110,3105465292
33,23,14,Improv_Melody,104,1,48,115,3105470132
33,23,14,Improv_Melody,105,1,48,83,3105946296
33,23,14,Improv_Melody,106,1,38,20,3105955700
33,23,14,Improv_Melody,107,5,42,127,3105964344
33,23,14,Improv_Melody,108,1,48,87,3106432780
33,23,14,Improv_Melody,109,1,38,127,3106437100
33,23,14,Improv_Melody,110,5,42,110,3106464292
33,23,14,Improv_Melody,111,1,48,83,3106682732
33,23,14,Improv_Melody,112,1,48,53,3106710088
33,23,14,Improv_Melody,113,1,38,89,3106800952
33,23,14,Improv_Melody,114,1,48,21,3106811772
33,23,14,Improv_Melody,115,1,38,53,3106826564
33,23,14,Improv_Melody,116,1,48,85,3106905848
33,23,14,Improv_Melody,117,5,42,110,3106963768
33,23,14,Improv_Melody,118,1,48,73,3107171988
33,23,14,Improv_Melody,119,1,48,115,3107413440
33,23,14,Improv_Melody,120,1,38,105,3107417836
33,23,14,Improv_Melody,121,1,48,69,3107435544
33,23,14,Improv_Melody,122,5,42,110,3107463480
33,23,14,Improv_Melody,123,1,48,26,3107692992
33,23,14,Improv_Melody,124,1,48,125,3107928160
33,23,14,Improv_Melody,125,1,38,24,3107937940
33,23,14,Improv_Melody,126,2,45,80,3107966732
33,23,14,Improv_Melody,127,2,69,80,3107969116
33,23,14,Improv_Melody,128,5,42,127,3107971500
33,23,14,Improv_Melody,129,1,38,118,3108455948
33,23,14,Improv_Melody,130,5,42,110,3108463992
33,23,14,Improv_Melody,131,1,48,127,3108464884
33,23,14,Improv_Melody,132,1,38,68,3108480108
33,23,14,Improv_Melody,133,1,48,83,3108735664
33,23,14,Improv_Melody,134,1,38,19,3108745220
33,23,14,Improv_Melody,135,1,38,74,3108817676
33,23,14,Improv_Melody,136,1,48,83,3108943360
33,23,14,Improv_Melody,137,5,42,110,3108963544
33,23,14,Improv_Melody,138,1,48,83,3109209468
33,23,14,Improv_Melody,139,1,38,21,3109218872
33,23,14,Improv_Melody,140,1,48,48,3109278464
33,23,14,Improv_Melody,141,1,38,102,3109444016
33,23,14,Improv_Melody,142,1,48,23,3109453948
33,23,14,Improv_Melody,143,5,42,110,3109464332
33,23,14,Improv_Melody,144,1,48,102,3109467228
33,23,14,Improv_Melody,145,1,38,24,3109539664
33,23,14,Improv_Melody,146,5,42,127,3109964092
33,23,14,Improv_Melody,147,1,48,127,3109986232
33,23,14,Improv_Melody,148,1,38,24,3109996160
33,23,14,Improv_Melody,149,1,48,111,3110461924
33,23,14,Improv_Melody,150,1,38,99,3110462512
33,23,14,Improv_Melody,151,5,42,110,3110466856
33,23,14,Improv_Melody,152,1,38,58,3110494140
33,23,14,Improv_Melody,153,1,48,84,3110729484
33,23,14,Improv_Melody,154,1,38,100,3110843256
33,23,14,Improv_Melody,155,5,42,110,3110963480
33,23,14,Improv_Melody,156,1,48,86,3110969372
33,23,14,Improv_Melody,157,1,48,54,3111226452
33,23,14,Improv_Melody,158,1,38,95,3111456380
33,23,14,Improv_Melody,159,1,48,102,3111461748
33,23,14,Improv_Melody,160,5,42,110,3111464180
33,23,14,Improv_Melody,161,1,48,93,3111708056
33,23,14,Improv_Melody,162,1,38,20,3111718060
33,23,14,Improv_Melody,163,1,48,97,3111952972
33,23,14,Improv_Melody,164,1,38,21,3111962740
33,23,14,Improv_Melody,165,2,41,80,3111968288
33,23,14,Improv_Melody,166,2,65,80,3111969916
33,23,14,Improv_Melody,167,5,42,127,3111972376
33,23,14,Improv_Melody,168,1,48,111,3112194636
33,23,14,Improv_Melody,169,1,38,22,3112204112
33,23,14,Improv_Melody,170,1,38,82,3112447928
33,23,14,Improv_Melody,171,5,42,110,3112463976
33,23,14,Improv_Melody,172,1,48,127,3112468292
33,23,14,Improv_Melody,173,1,48,127,3112693112
33,23,14,Improv_Melody,174,1,48,92,3112924464
33,23,14,Improv_Melody,175,5,42,110,3112963396
33,23,14,Improv_Melody,176,1,48,96,3113177308
33,23,14,Improv_Melody,177,1,48,98,3113426984
33,23,14,Improv_Melody,178,1,38,68,3113436312
33,23,14,Improv_Melody,179,5,42,110,3113464176
33,23,14,Improv_Melody,180,1,48,51,3113686804
33,23,14,Improv_Melody,181,1,38,18,3113702344
33,23,14,Improv_Melody,182,1,48,72,3113940552
33,23,14,Improv_Melody,183,5,42,127,3113964076
33,23,14,Improv_Melody,184,1,48,84,3114179480
33,23,14,Improv_Melody,185,1,38,100,3114425940
33,23,14,Improv_Melody,186,1,48,95,3114434076
33,23,14,Improv_Melody,187,5,42,110,3114463584
33,23,14,Improv_Melody,188,1,48,70,3114673052
33,23,14,Improv_Melody,189,1,48,97,3114928040
33,23,14,Improv_Melody,190,1,38,72,3114934532
33,23,14,Improv_Melody,191,5,42,110,3114964260
33,23,14,Improv_Melody,192,1,38,92,3115157124
33,23,14,Improv_Melody,193,1,48,83,3115160392
33,23,14,Improv_Melody,194,1,38,114,3115375940
33,23,14,Improv_Melody,195,1,48,81,3115395888
33,23,14,Improv_Melody,196,5,42,110,3115463996
33,23,14,Improv_Melody,197,1,38,85,3115623124
33,23,14,Improv_Melody,198,1,48,20,3115632680
33,23,14,Improv_Melody,199,1,48,85,3115637592
33,23,14,Improv_Melody,200,1,48,109,3115911332
33,23,14,Improv_Melody,201,1,38,22,3115921328
33,23,14,Improv_Melody,202,2,48,80,3115966432
33,23,14,Improv_Melody,203,2,72,80,3115968588
33,23,14,Improv_Melody,204,5,42,127,3115971124
33,23,14,Improv_Melody,205,1,38,75,3116443008
33,23,14,Improv_Melody,206,1,48,115,3116459144
33,23,14,Improv_Melody,207,5,42,110,3116463744
33,23,14,Improv_Melody,208,1,48,90,3116713600
33,23,14,Improv_Melody,209,1,38,62,3116808048
33,23,14,Improv_Melody,210,1,48,94,3116915608
33,23,14,Improv_Melody,211,5,42,110,3116964196
33,23,14,Improv_Melody,212,1,48,66,3117183192
33,23,14,Improv_Melody,213,1,38,114,3117415668
33,23,14,Improv_Melody,214,1,48,28,3117425516
33,23,14,Improv_Melody,215,1,48,126,3117430284
33,23,14,Improv_Melody,216,5,42,110,3117464056
33,23,14,Improv_Melody,217,1,48,80,3117939604
33,23,14,Improv_Melody,218,1,38,20,3117949160
33,23,14,Improv_Melody,219,5,42,127,3117963708
33,23,14,Improv_Melody,220,1,48,79,3118186644
33,23,14,Improv_Melody,221,5,42,110,3118464340
33,23,14,Improv_Melody,222,1,48,113,3118468580
33,23,14,Improv_Melody,223,1,38,23,3118477912
33,23,14,Improv_Melody,224,1,38,21,3118562532
33,23,14,Improv_Melody,225,5,42,110,3118963972
33,23,14,Improv_Melody,226,1,48,80,3118976664
33,23,14,Improv_Melody,227,1,38,85,3119428072
33,23,14,Improv_Melody,228,1,48,20,3119438076
33,23,14,Improv_Melody,229,1,48,94,3119454008
33,23,14,Improv_Melody,230,5,42,110,3119463772
33,23,14,Improv_Melody,231,2,43,80,3119965952
33,23,14,Improv_Melody,232,2,67,80,3119968336
33,23,14,Improv_Melody,233,5,42,127,3119970720
33,23,14,Improv_Melody,234,1,48,80,3119989172
33,23,14,Improv_Melody,235,5,42,110,3120464264
33,23,14,Improv_Melody,236,1,38,79,3120473392
33,23,14,Improv_Melody,237,1,48,127,3120492596
33,23,14,Improv_Melody,238,1,48,80,3120738056
33,23,14,Improv_Melody,239,1,48,48,3120770868
33,23,14,Improv_Melody,240,1,38,79,3120825076
33,23,14,Improv_Melody,241,1,48,68,3120961160
33,23,14,Improv_Melody,242,5,42,110,3120963816
33,23,14,Improv_Melody,243,1,38,18,3120971272
33,23,14,Improv_Melody,244,1,48,89,3121236136
33,23,14,Improv_Melody,245,1,38,89,3121461496
33,23,14,Improv_Melody,246,5,42,110,3121464584
33,23,14,Improv_Melody,247,1,48,20,3121471740
33,23,14,Improv_Melody,248,1,48,127,3121478448
33,23,14,Improv_Melody,249,1,48,67,3121505380
33,23,14,Improv_Melody,250,1,48,40,3121541636
33,23,14,Improv_Melody,251,1,48,68,3121727536
33,23,14,Improv_Melody,252,5,42,127,3121964616
33,23,14,Improv_Melody,253,1,48,85,3121978732
33,23,14,Improv_Melody,254,1,48,50,3122013440
33,23,14,Improv_Melody,255,1,48,109,3122440008
33,23,14,Improv_Melody,256,1,38,100,3122445604
33,23,14,Improv_Melody,257,5,42,110,3122464040
33,23,14,Improv_Melody,258,1,48,54,3122476792
33,23,14,Improv_Melody,259,1,48,27,3122542440
33,23,14,Improv_Melody,260,5,42,110,3122963752
33,23,14,Improv_Melody,261,1,48,87,3122975924
33,23,14,Improv_Melody,262,1,48,71,3123219468
33,23,14,Improv_Melody,263,1,38,104,3123461612
33,23,14,Improv_Melody,264,5,42,110,3123464768
33,23,14,Improv_Melody,265,1,48,110,3123467368
33,23,14,Improv_Melody,266,1,48,34,3123742668
33,23,14,Improv_Melody,267,2,45,80,3123967076
33,23,14,Improv_Melody,268,2,69,80,3123969228
33,23,14,Improv_Melody,269,1,48,108,3123971164
33,23,14,Improv_Melody,270,5,42,127,3123973328
33,23,14,Improv_Melody,271,1,38,23,3123980932
33,23,14,Improv_Melody,272,1,48,67,3123992580
33,23,14,Improv_Melody,273,5,42,110,3124464000
33,23,14,Improv_Melody,274,1,38,84,3124497184
33,23,14,Improv_Melody,275,1,48,19,3124506588
33,23,14,Improv_Melody,276,1,48,123,3124521232
33,23,14,Improv_Melody,277,1,48,76,3124749416
33,23,14,Improv_Melody,278,1,38,87,3124861164
33,23,14,Improv_Melody,279,1,48,20,3124870868
33,23,14,Improv_Melody,280,5,42,110,3124963640
33,23,14,Improv_Melody,281,1,48,75,3125000408
33,23,14,Improv_Melody,282,1,48,71,3125233180
33,23,14,Improv_Melody,283,5,42,110,3125464504
33,23,14,Improv_Melody,284,1,48,70,3125470392
33,23,14,Improv_Melody,285,1,38,94,3125471040
33,23,14,Improv_Melody,286,1,48,61,3125745596
33,23,14,Improv_Melody,287,1,48,72,3125956456
33,23,14,Improv_Melody,288,5,42,127,3125964272
33,23,14,Improv_Melody,289,1,38,27,3126433492
33,23,14,Improv_Melody,290,1,48,31,3126438408
33,23,14,Improv_Melody,291,5,42,110,3126463804
33,23,14,Improv_Melody,292,5,42,110,3126963556
33,23,14,Improv_Melody,293,1,48,62,3126976472
33,23,14,Improv_Melody,294,1,48,81,3127435236
33,23,14,Improv_Melody,295,1,38,76,3127440828
33,23,14,Improv_Melody,296,5,42,110,3127464276
33,23,14,Improv_Melody,297,1,48,98,3127957324
33,23,14,Improv_Melody,298,2,41,80,3127966452
33,23,14,Improv_Melody,299,2,65,80,3127968532
33,23,14,Improv_Melody,300,5,42,127,3127971220
33,23,14,Improv_Melody,301,5,42,110,3128463596
33,23,14,Improv_Melody,302,1,48,84,3128748352
33,23,14,Improv_Melody,303,5,42,110,3128963368
33,23,14,Improv_Melody,304,1,48,102,3128982124
33,23,14,Improv_Melody,305,1,38,84,3128986588
33,23,14,Improv_Melody,306,5,42,110,3129464368
33,23,14,Improv_Melody,307,1,48,78,3129660088
33,23,14,Improv_Melody,308,5,42,127,3129963992
33,23,14,Improv_Melody,309,1,48,86,3130155228
33,23,14,Improv_Melody,310,5,42,110,3130463468
33,23,14,Improv_Melody,311,1,48,100,3130677816
33,23,14,Improv_Melody,312,1,38,85,3130933256
33,23,14,Improv_Melody,313,1,48,98,3130941308
33,23,14,Improv_Melody,314,5,42,110,3130964188
33,23,14,Improv_Melody,315,1,38,79,3131170264
33,23,14,Improv_Melody,316,1,48,88,3131189692
33,23,14,Improv_Melody,317,1,38,79,3131413688
33,23,14,Improv_Melody,318,1,48,90,3131422868
33,23,14,Improv_Melody,319,5,42,110,3131464120
33,23,14,Improv_Melody,320,1,38,97,3131624520
33,23,14,Improv_Melody,321,1,48,22,3131634520
33,23,14,Improv_Melody,322,1,48,127,3131652752
33,23,14,Improv_Melody,323,1,48,114,3131909596
33,23,14,Improv_Melody,324,2,48,80,3131966596
33,23,14,Improv_Melody,325,2,72,80,3131968744
33,23,14,Improv_Melody,326,5,42,127,3131971500
33,23,14,Improv_Melody,327,5,42,110,3132463580
33,23,14,Improv_Melody,328,1,38,93,3132484804
33,23,14,Improv_Melody,329,1,48,82,3132487176
33,23,14,Improv_Melody,330,1,48,78,3132749092
33,23,14,Improv_Melody,331,1,38,81,3132836620
33,23,14,Improv_Melody,332,1,48,21,3132846624
33,23,14,Improv_Melody,333,5,42,110,3132964348
33,23,14,Improv_Melody,334,1,48,81,3132965992
33,23,14,Improv_Melody,335,1,38,19,3132975544
33,23,14,Improv_Melody,336,1,48,80,3133245384
33,23,14,Improv_Melody,337,5,42,110,3133463920
33,23,14,Improv_Melody,338,1,38,93,3133470780
33,23,14,Improv_Melody,339,1,48,104,3133485196
33,23,14,Improv_Melody,340,1,48,74,3133730956
33,23,14,Improv_Melody,341,5,42,127,3133963624
33,23,14,Improv_Melody,342,1,48,73,3133978036
33,23,14,Improv_Melody,343,1,48,80,3134213208
33,23,14,Improv_Melody,344,1,38,20,3134222536
33,23,14,Improv_Melody,345,1,38,86,3134447952
33,23,14,Improv_Melody,346,1,48,111,3134463528
33,23,14,Improv_Melody,347,5,42,110,3134465396
33,23,14,Improv_Melody,348,1,48,91,3134701492
33,23,14,Improv_Melody,349,1,48,95,3134947508
33,23,14,Improv_Melody,350,5,42,110,3134964000
33,23,14,Improv_Melody,351,1,48,89,3135167888
33,23,14,Improv_Melody,352,1,38,85,3135425192
33,23,14,Improv_Melody,353,1,48,20,3135435124
33,23,14,Improv_Melody,354,1,48,99,3135440412
33,23,14,Improv_Melody,355,5,42,110,3135464084
33,23,14,Improv_Melody,356,1,38,92,3135655304
33,23,14,Improv_Melody,357,1,48,21,3135665160
33,23,14,Improv_Melody,358,1,48,101,3135678972
33,23,14,Improv_Melody,359,1,48,85,3135942160
33,23,14,Improv_Melody,360,2,43,80,3135966096
33,23,14,Improv_Melody,361,2,67,80,3135968248
33,23,14,Improv_Melody,362,5,42,127,3135970936
33,23,14,Improv_Melody,363,1,48,76,3136195620
33,23,14,Improv_Melody,364,1,38,96,3136462372
33,23,14,Improv_Melody,365,5,42,110,3136465380
33,23,14,Improv_Melody,366,1,48,108,3136468052
33,23,14,Improv_Melody,367,1,48,119,3136722264
33,23,14,Improv_Melody,368,1,38,85,3136777520
33,23,14,Improv_Melody,369,1,48,66,3136945124
33,23,14,Improv_Melody,370,5,42,110,3136963940
33,23,14,Improv_Melody,371,1,48,78,3137206048
33,23,14,Improv_Melody,372,1,48,119,3137432388
33,23,14,Improv_Melody,373,1,38,95,3137436788
33,23,14,Improv_Melody,374,5,42,110,3137463748
33,23,14,Improv_Melody,375,1,38,77,3137904068
33,23,14,Improv_Melody,376,5,42,127,3137964396
33,23,14,Improv_Melody,377,1,38,67,3138133352
33,23,14,Improv_Melody,378,1,48,18,3138143128
33,23,14,Improv_Melody,379,1,38,70,3138404292
33,23,14,Improv_Melody,380,5,42,110,3138464100
33,23,14,Improv_Melody,381,1,38,80,3138640384
33,23,14,Improv_Melody,382,1,38,99,3138896792
33,23,14,Improv_Melody,383,1,48,102,3138902236
33,23,14,Improv_Melody,384,5,42,110,3138963908
33,23,14,Improv_Melody,385,1,38,61,3139144476
33,23,14,Improv_Melody,386,1,48,16,3139154516
33,23,14,Improv_Melody,387,1,48,98,3139165492
33,23,14,Improv_Melody,388,1,48,70,3139410876
33,23,14,Improv_Melody,389,1,38,76,3139414076
33,23,14,Improv_Melody,390,1,48,67,3139432228
33,23,14,Improv_Melody,391,5,42,110,3139463532
33,23,14,Improv_Melody,392,1,38,84,3139641860
33,23,14,Improv_Melody,393,1,48,24,3139652012
33,23,14,Improv_Melody,394,1,48,80,3139656780
33,23,14,Improv_Melody,395,1,48,69,3139672788
33,23,14,Improv_Melody,396,1,48,127,3139918300
33,23,14,Improv_Melody,397,1,38,26,3139928192
33,23,14,Improv_Melody,398,2,45,80,3139967092
33,23,14,Improv_Melody,399,2,69,80,3139969092
33,23,14,Improv_Melody,400,5,42,127,3139971924
33,23,14,Improv_Melody,401,1,38,86,3140436180
33,23,14,Improv_Melody,402,1,48,106,3140438700
33,23,14,Improv_Melody,403,5,42,110,3140464096
33,23,14,Improv_Melody,404,1,48,91,3140715676
33,23,14,Improv_Melody,405,1,38,21,3140725600
33,23,14,Improv_Melody,406,1,38,96,3140779956
33,23,14,Improv_Melody,407,1,48,78,3140934744
33,23,14,Improv_Melody,408,1,38,19,3140944852
33,23,14,Improv_Melody,409,5,42,110,3140963596
33,23,14,Improv_Melody,410,1,48,98,3141214652
33,23,14,Improv_Melody,411,1,38,23,3141224580
33,23,14,Improv_Melody,412,1,48,118,3141456724
33,23,14,Improv_Melody,413,1,38,88,3141462636
33,23,14,Improv_Melody,414,5,42,110,3141466092
33,23,14,Improv_Melody,415,1,48,69,3141478172
33,23,14,Improv_Melody,416,1,48,14,3141777188
33,23,14,Improv_Melody,417,1,48,102,3141951524
33,23,14,Improv_Melody,418,5,42,127,3141964200
33,23,14,Improv_Melody,419,1,48,61,3141973016
33,23,14,Improv_Melody,420,1,48,95,3142195064
33,23,14,Improv_Melody,421,1,38,20,3142204996
33,23,14,Improv_Melody,422,1,38,88,3142427192
33,23,14,Improv_Melody,423,1,48,117,3142436972
33,23,14,Improv_Melody,424,1,48,68,3142456920
33,23,14,Improv_Melody,425,5,42,110,3142463840
33,23,14,Improv_Melody,426,1,48,78,3142685648
33,23,14,Improv_Melody,427,1,38,19,3142695876
33,23,14,Improv_Melody,428,5,42,110,3142963600
33,23,14,Improv_Melody,429,1,48,98,3143184028
33,23,14,Improv_Melody,430,1,38,20,3143194256
33,23,14,Improv_Melody,431,1,38,89,3143425656
33,23,14,Improv_Melody,432,1,48,21,3143435588
33,23,14,Improv_Melody,433,1,48,116,3143447380
33,23,14,Improv_Melody,434,5,42,110,3143464176
33,23,14,Improv_Melody,435,1,38,25,3143506796
33,23,14,Improv_Melody,436,1,48,127,3143952720
33,23,14,Improv_Melody,437,2,41,80,3143966704
33,23,14,Improv_Melody,438,2,65,80,3143968632
33,23,14,Improv_Melody,439,5,42,127,3143971244
33,23,14,Improv_Melody,440,1,48,39,3144005092
33,23,14,Improv_Melody,441,1,48,85,3144184384
33,23,14,Improv_Melody,442,1,38,19,3144194388
33,23,14,Improv_Melody,443,1,38,90,3144446060
33,23,14,Improv_Melody,444,1,48,126,3144454936
33,23,14,Improv_Melody,445,5,42,110,3144463652
33,23,14,Improv_Melody,446,1,48,89,3144704536
33,23,14,Improv_Melody,447,1,38,20,3144714088
33,23,14,Improv_Melody,448,5,42,110,3144963708
33,23,14,Improv_Melody,449,1,48,95,3145159604
33,23,14,Improv_Melody,450,1,38,94,3145435016
33,23,14,Improv_Melody,451,1,48,23,3145444344
33,23,14,Improv_Melody,452,1,48,118,3145456144
33,23,14,Improv_Melody,453,5,42,110,3145464108
33,23,14,Improv_Melody,454,1,48,70,3145477240
33,23,14,Improv_Melody,455,1,48,40,3145776340
33,23,14,Improv_Melody,456,1,38,12,3145791508
33,23,14,Improv_Melody,457,1,48,123,3145959552
33,23,14,Improv_Melody,458,5,42,127,3145963852
33,23,14,Improv_Melody,459,1,48,89,3146235280
33,23,14,Improv_Melody,460,1,38,76,3146445316
33,23,14,Improv_Melody,461,5,42,110,3146463528
33,23,14,Improv_Melody,462,1,48,118,3146470236
33,23,14,Improv_Melody,463,1,48,92,3146701116
33,23,14,Improv_Melody,464,1,48,76,3146957076
33,23,14,Improv_Melody,465,5,42,110,3146964516
33,23,14,Improv_Melody,466,1,48,102,3147175732
33,23,14,Improv_Melody,467,1,48,103,3147434092
33,23,14,Improv_Melody,468,1,48,73,3147452620
33,23,14,Improv_Melody,469,5,42,110,3147463952
33,23,14,Improv_Melody,470,1,38,70,3147471336
33,23,14,Improv_Melody,471,1,38,65,3147694432
33,23,14,Improv_Melody,472,1,48,127,3147698748
33,23,14,Improv_Melody,473,1,48,99,3147931268
33,23,14,Improv_Melody,474,1,38,22,3147940596
33,23,14,Improv_Melody,475,2,48,80,3147966560
33,23,14,Improv_Melody,476,2,72,80,3147968636
33,23,14,Improv_Melody,477,5,42,127,3147971468
33,23,14,Improv_Melody,478,1,48,77,3148191788
33,23,14,Improv_Melody,479,1,38,91,3148428144
33,23,14,Improv_Melody,480,1,48,98,3148443608
33,23,14,Improv_Melody,481,5,42,110,3148463396
33,23,14,Improv_Melody,482,1,48,85,3148674360
33,23,14,Improv_Melody,483,1,38,84,3148728344
33,23,14,Improv_Melody,484,1,48,104,3148886364
33,23,14,Improv_Melody,485,1,38,21,3148896668
33,23,14,Improv_Melody,486,5,42,110,3148964172
33,23,14,Improv_Melody,487,1,48,98,3149156888
33,23,14,Improv_Melody,488,1,38,101,3149393624
33,23,14,Improv_Melody,489,1,48,23,3149403552
33,23,14,Improv_Melody,490,1,48,113,3149413252
33,23,14,Improv_Melody,491,5,42,110,3149463856
33,23,14,Improv_Melody,492,1,38,86,3149646224
33,23,14,Improv_Melody,493,1,48,96,3149650800
33,23,14,Improv_Melody,494,1,38,108,3149877840
33,23,14,Improv_Melody,495,1,48,85,3149895700
33,23,14,Improv_Melody,496,5,42,127,3149963528
33,23,14,Improv_Melody,497,1,38,110,3150100644
33,23,14,Improv_Melody,498,1,48,81,3150118496
33,23,14,Improv_Melody,499,1,38,92,3150357752
33,23,14,Improv_Melody,500,1,48,100,3150383460
33,23,14,Improv_Melody,501,1,48,70,3150402360
33,23,14,Improv_Melody,502,5,42,110,3150464492
33,23,14,Improv_Melody,503,1,48,96,3150622428
33,23,14,Improv_Melody,504,1,38,21,3150632356
33,23,14,Improv_Melody,505,1,48,98,3150884620
33,23,14,Improv_Melody,506,5,42,110,3150964124
33,23,14,Improv_Melody,507,1,48,102,3151138584
33,23,14,Improv_Melody,508,1,38,91,3151376220
33,23,14,Improv_Melody,509,1,48,22,3151385552
33,23,14,Improv_Melody,510,1,48,127,3151391964
33,23,14,Improv_Melody,511,5,42,110,3151463684
33,23,14,Improv_Melody,512,1,48,111,3151903600
33,23,14,Improv_Melody,513,2,43,80,3151965784
33,23,14,Improv_Melody,514,2,67,80,3151968012
33,23,14,Improv_Melody,515,5,42,127,3151970624
33,23,14,Improv_Melody,516,1,48,91,3152156604
33,23,14,Improv_Melody,517,1,38,86,3152429252
33,23,14,Improv_Melody,518,1,48,95,3152432448
33,23,14,Improv_Melody,519,5,42,110,3152464372
33,23,14,Improv_Melody,520,1,48,99,3152666936
33,23,14,Improv_Melody,521,1,38,21,3152676860
33,23,14,Improv_Melody,522,1,38,67,3152760940
33,23,14,Improv_Melody,523,1,48,97,3152903232
33,23,14,Improv_Melody,524,1,38,21,3152913304
33,23,14,Improv_Melody,525,5,42,110,3152964204
33,23,14,Improv_Melody,526,1,48,87,3153185948
33,23,14,Improv_Melody,527,1,38,108,3153421708
33,23,14,Improv_Melody,528,1,48,127,3153430512
33,23,14,Improv_Melody,529,1,48,67,3153457200
33,23,14,Improv_Melody,530,5,42,110,3153463672
33,23,14,Improv_Melody,531,1,48,49,3153751552
33,23,14,Improv_Melody,532,1,48,91,3153946152
33,23,14,Improv_Melody,533,5,42,127,3153964444
33,23,14,Improv_Melody,534,1,48,82,3154194808
33,23,14,Improv_Melody,535,1,38,109,3154442016
33,23,14,Improv_Melody,536,1,48,23,3154451500
33,23,14,Improv_Melody,537,1,48,92,3154456188
33,23,14,Improv_Melody,538,5,42,110,3154464228
33,23,14,Improv_Melody,539,1,48,75,3154935068
33,23,14,Improv_Melody,540,5,42,110,3154963756
33,23,14,Improv_Melody,541,1,48,62,3155196880
33,23,14,Improv_Melody,542,1,38,92,3155459208
33,23,14,Improv_Melody,543,5,42,110,3155463432
33,23,14,Improv_Melody,544,1,48,21,3155469396
33,23,14,Improv_Melody,545,1,48,93,3155473860
33,23,14,Improv_Melody,546,2,45,80,3155967012
33,23,14,Improv_Melody,547,2,69,80,3155968932
33,23,14,Improv_Melody,548,5,42,127,3155971472
33,23,14,Improv_Melody,549,1,48,75,3155995236
33,23,14,Improv_Melody,550,1,48,49,3156084848
33,23,14,Improv_Melody,551,5,42,110,3156464192
33,23,14,Improv_Melody,552,1,48,58,3156530064
33,23,14,Improv_Melody,553,1,48,40,3156581080
33,23,14,Improv_Melody,554,5,42,110,3156963792
33,23,14,Improv_Melody,555,1,48,73,3157054276
33,23,14,Improv_Melody,556,1,48,40,3157131848
33,23,14,Improv_Melody,557,5,42,110,3157464448
33,23,14,Improv_Melody,558,1,48,54,3157530096
33,23,14,Improv_Melody,559,1,48,25,3157650452
33,23,14,Improv_Melody,560,5,42,127,3157964124
33,23,14,Improv_Melody,561,1,38,89,3157980032
33,23,14,Improv_Melody,562,1,48,82,3157991908
33,23,14,Improv_Melody,563,5,42,110,3158463852
33,23,14,Improv_Melody,564,5,42,110,3158963428
33,23,14,Improv_Melody,565,1,48,58,3159001776
33,23,14,Improv_Melody,566,1,48,51,3159216896
33,23,14,Improv_Melody,567,1,48,48,3159460144
33,23,14,Improv_Melody,568,5,42,110,3159464368
33,23,14,Improv_Melody,569,1,48,53,3159702512
33,23,14,Improv_Melody,570,1,38,15,3159712516
33,23,14,Improv_Melody,571,1,38,86,3159926412
33,23,14,Improv_Melody,572,1,48,20,3159935816
33,23,14,Improv_Melody,573,1,48,71,3159942076
33,23,14,Improv_Melody,574,2,41,80,3159966312
33,23,14,Improv_Melody,575,2,65,80,3159968612
33,23,14,Improv_Melody,576,5,42,127,3159971152
33,23,14,Improv_Melody,577,1,38,86,3160426132
33,23,14,Improv_Melody,578,1,48,62,3160435536
33,23,14,Improv_Melody,579,5,42,110,3160463996
33,23,14,Improv_Melody,580,1,48,14,3160581220
33,23,14,Improv_Melody,581,1,38,78,3160934360
33,23,14,Improv_Melody,582,1,48,61,3160957528
33,23,14,Improv_Melody,583,5,42,110,3160963552
33,23,14,Improv_Melody,584,1,48,16,3161083916
33,23,14,Improv_Melody,585,1,38,100,3161424344
33,23,14,Improv_Melody,586,1,38,107,3161441824
33,23,14,Improv_Melody,587,1,48,76,3161448308
33,23,14,Improv_Melody,588,5,42,110,3161464060
33,23,14,Improv_Melody,589,1,38,21,3161554572
33,23,14,Improv_Melody,590,1,48,78,3161935172
33,23,14,Improv_Melody,591,5,42,127,3161964008
33,23,14,Improv_Melody,592,1,48,84,3162371716
33,23,14,Improv_Melody,593,5,42,110,3162463556
33,23,14,Improv_Melody,594,1,48,82,3162635556
33,23,14,Improv_Melody,595,1,48,65,3162691636
33,23,14,Improv_Melody,596,1,48,84,3162815124
33,23,14,Improv_Melody,597,5,42,110,3162964244
33,23,14,Improv_Melody,598,1,48,79,3163121748
33,23,14,Improv_Melody,599,1,38,103,3163369104
33,23,14,Improv_Melody,0,1,48,126,3163375068
33,23,14,Improv_Melody,0,9999,9999,9999,3083961460
33,23,14,Improv_Melody,1,9999,9999,9999,3084461164
33,23,14,Improv_Melody,2,9999,9999,9999,3084961856
33,23,14,Improv_Melody,3,9999,9999,9999,3085461580
33,23,14,Improv_Melody,4,9999,9999,9999,3085961300
33,23,14,Improv_Melody,5,9999,9999,9999,3086462068
33,23,14,Improv_Melody,6,9999,9999,9999,3086961716
33,23,14,Improv_Melody,7,9999,9999,9999,3087461436
33,23,14,Improv_Melody,8,9999,9999,9999,3087961160
33,23,14,Improv_Melody,9,9999,9999,9999,3088461916
33,23,14,Improv_Melody,10,9999,9999,9999,3088961636
33,23,14,Improv_Melody,11,9999,9999,9999,3089461360
33,23,14,Improv_Melody,12,9999,9999,9999,3089962052
33,23,14,Improv_Melody,13,9999,9999,9999,3090461776
33,23,14,Improv_Melody,14,9999,9999,9999,3090961496
33,23,14,Improv_Melody,15,9999,9999,9999,3091461220
33,23,14,Improv_Melody,16,9999,9999,9999,3091961912
33,23,14,Improv_Melody,17,9999,9999,9999,3092461648
33,23,14,Improv_Melody,18,9999,9999,9999,3092961368
33,23,14,Improv_Melody,19,9999,9999,9999,3093462136
33,23,14,Improv_Melody,20,9999,9999,9999,3093961784
33,23,14,Improv_Melody,21,9999,9999,9999,3094461508
33,23,14,Improv_Melody,22,9999,9999,9999,3094961228
33,23,14,Improv_Melody,23,9999,9999,9999,3095461996
33,23,14,Improv_Melody,24,9999,9999,9999,3095961720
33,23,14,Improv_Melody,25,9999,9999,9999,3096461380
33,23,14,Improv_Melody,26,9999,9999,9999,3096961100
33,23,14,Improv_Melody,27,9999,9999,9999,3097461872
33,23,14,Improv_Melody,28,9999,9999,9999,3097961592
33,23,14,Improv_Melody,29,9999,9999,9999,3098461240
33,23,14,Improv_Melody,30,9999,9999,9999,3098962028
33,23,14,Improv_Melody,31,9999,9999,9999,3099461688
33,23,14,Improv_Melody,32,9999,9999,9999,3099961392
33,23,14,Improv_Melody,33,9999,9999,9999,3100461132
33,23,14,Improv_Melody,34,9999,9999,9999,3100961856
33,23,14,Improv_Melody,35,9999,9999,9999,3101461616
33,23,14,Improv_Melody,36,9999,9999,9999,3101961332
33,23,14,Improv_Melody,37,9999,9999,9999,3102462052
33,23,14,Improv_Melody,38,9999,9999,9999,3102961716
33,23,14,Improv_Melody,39,9999,9999,9999,3103461472
33,23,14,Improv_Melody,40,9999,9999,9999,3103961196
33,23,14,Improv_Melody,41,9999,9999,9999,3104461932
33,23,14,Improv_Melody,42,9999,9999,9999,3104961648
33,23,14,Improv_Melody,43,9999,9999,9999,3105461364
33,23,14,Improv_Melody,44,9999,9999,9999,3105962048
33,23,14,Improv_Melody,45,9999,9999,9999,3106461776
33,23,14,Improv_Melody,46,9999,9999,9999,3106961476
33,23,14,Improv_Melody,47,9999,9999,9999,3107461188
33,23,14,Improv_Melody,48,9999,9999,9999,3107961940
33,23,14,Improv_Melody,49,9999,9999,9999,3108461628
33,23,14,Improv_Melody,50,9999,9999,9999,3108961328
33,23,14,Improv_Melody,51,9999,9999,9999,3109462116
33,23,14,Improv_Melody,52,9999,9999,9999,3109961800
33,23,14,Improv_Melody,53,9999,9999,9999,3110461548
33,23,14,Improv_Melody,54,9999,9999,9999,3110961264
33,23,14,Improv_Melody,55,9999,9999,9999,3111461964
33,23,14,Improv_Melody,56,9999,9999,9999,3111961716
33,23,14,Improv_Melody,57,9999,9999,9999,3112461388
33,23,14,Improv_Melody,58,9999,9999,9999,3112961104
33,23,14,Improv_Melody,59,9999,9999,9999,3113461808
33,23,14,Improv_Melody,60,9999,9999,9999,3113961560
33,23,14,Improv_Melody,61,9999,9999,9999,3114461292
33,23,14,Improv_Melody,62,9999,9999,9999,3114961972
33,23,14,Improv_Melody,63,9999,9999,9999,3115461704
33,23,14,Improv_Melody,64,9999,9999,9999,3115961412
33,23,14,Improv_Melody,65,9999,9999,9999,3116461156
33,23,14,Improv_Melody,66,9999,9999,9999,3116961904
33,23,14,Improv_Melody,67,9999,9999,9999,3117461616
33,23,14,Improv_Melody,68,9999,9999,9999,3117961268
33,23,14,Improv_Melody,69,9999,9999,9999,3118462048
33,23,14,Improv_Melody,70,9999,9999,9999,3118961752
33,23,14,Improv_Melody,71,9999,9999,9999,3119461480
33,23,14,Improv_Melody,72,9999,9999,9999,3119961160
33,23,14,Improv_Melody,73,9999,9999,9999,3120461896
33,23,14,Improv_Melody,74,9999,9999,9999,3120961600
33,23,14,Improv_Melody,75,9999,9999,9999,3121461356
33,23,14,Improv_Melody,76,9999,9999,9999,3121962100
33,23,14,Improv_Melody,77,9999,9999,9999,3122461752
33,23,14,Improv_Melody,78,9999,9999,9999,3122961460
33,23,14,Improv_Melody,79,9999,9999,9999,3123461236
33,23,14,Improv_Melody,80,9999,9999,9999,3123961976
33,23,14,Improv_Melody,81,9999,9999,9999,3124461632
33,23,14,Improv_Melody,82,9999,9999,9999,3124961348
33,23,14,Improv_Melody,83,9999,9999,9999,3125462136
33,23,14,Improv_Melody,84,9999,9999,9999,3125961832
33,23,14,Improv_Melody,85,9999,9999,9999,3126461512
33,23,14,Improv_Melody,86,9999,9999,9999,3126961264
33,23,14,Improv_Melody,87,9999,9999,9999,3127461988
33,23,14,Improv_Melody,88,9999,9999,9999,3127961656
33,23,14,Improv_Melody,89,9999,9999,9999,3128461380
33,23,14,Improv_Melody,90,9999,9999,9999,3128961076
33,23,14,Improv_Melody,91,9999,9999,9999,3129461852
33,23,14,Improv_Melody,92,9999,9999,9999,3129961552
33,23,14,Improv_Melody,93,9999,9999,9999,3130461252
33,23,14,Improv_Melody,94,9999,9999,9999,3130961972
33,23,14,Improv_Melody,95,9999,9999,9999,3131461752
33,23,14,Improv_Melody,96,9999,9999,9999,3131961420
33,23,14,Improv_Melody,97,9999,9999,9999,3132461140
33,23,14,Improv_Melody,98,9999,9999,9999,3132961908
33,23,14,Improv_Melody,99,9999,9999,9999,3133461552
33,23,14,Improv_Melody,100,9999,9999,9999,3133961332
33,23,14,Improv_Melody,101,9999,9999,9999,3134462004
33,23,14,Improv_Melody,102,9999,9999,9999,3134961784
33,23,14,Improv_Melody,103,9999,9999,9999,3135461496
33,23,14,Improv_Melody,104,9999,9999,9999,3135961152
33,23,14,Improv_Melody,105,9999,9999,9999,3136461916
33,23,14,Improv_Melody,106,9999,9999,9999,3136961648
33,23,14,Improv_Melody,107,9999,9999,9999,3137461308
33,23,14,Improv_Melody,108,9999,9999,9999,3137962104
33,23,14,Improv_Melody,109,9999,9999,9999,3138461808
33,23,14,Improv_Melody,110,9999,9999,9999,3138961468
33,23,14,Improv_Melody,111,9999,9999,9999,3139461168
33,23,14,Improv_Melody,112,9999,9999,9999,3139961916
33,23,14,Improv_Melody,113,9999,9999,9999,3140461656
33,23,14,Improv_Melody,114,9999,9999,9999,3140961376
33,23,14,Improv_Melody,115,9999,9999,9999,3141462100
33,23,14,Improv_Melody,116,9999,9999,9999,3141961836
33,23,14,Improv_Melody,117,9999,9999,9999,3142461548
33,23,14,Improv_Melody,118,9999,9999,9999,3142961236
33,23,14,Improv_Melody,119,9999,9999,9999,3143461960
33,23,14,Improv_Melody,120,9999,9999,9999,3143961684
33,23,14,Improv_Melody,121,9999,9999,9999,3144461360
33,23,14,Improv_Melody,122,9999,9999,9999,3144961120
33,23,14,Improv_Melody,123,9999,9999,9999,3145461820
33,23,14,Improv_Melody,124,9999,9999,9999,3145961560
33,23,14,Improv_Melody,125,9999,9999,9999,3146461240
33,23,14,Improv_Melody,126,9999,9999,9999,3146962004
33,23,14,Improv_Melody,127,9999,9999,9999,3147461736
33,23,14,Improv_Melody,128,9999,9999,9999,3147961460
33,23,14,Improv_Melody,129,9999,9999,9999,3148461104
33,23,14,Improv_Melody,130,9999,9999,9999,3148961880
33,23,14,Improv_Melody,131,9999,9999,9999,3149461564
33,23,14,Improv_Melody,132,9999,9999,9999,3149961312
33,23,14,Improv_Melody,133,9999,9999,9999,3150462052
33,23,14,Improv_Melody,134,9999,9999,9999,3150961756
33,23,14,Improv_Melody,135,9999,9999,9999,3151461468
33,23,14,Improv_Melody,136,9999,9999,9999,3151961140
33,23,14,Improv_Melody,137,9999,9999,9999,3152461908
33,23,14,Improv_Melody,138,9999,9999,9999,3152961616
33,23,14,Improv_Melody,139,9999,9999,9999,3153461304
33,23,14,Improv_Melody,140,9999,9999,9999,3153962076
33,23,14,Improv_Melody,141,9999,9999,9999,3154461788
33,23,14,Improv_Melody,142,9999,9999,9999,3154961464
33,23,14,Improv_Melody,143,9999,9999,9999,3155461216
33,23,14,Improv_Melody,144,9999,9999,9999,3155961908
33,23,14,Improv_Melody,145,9999,9999,9999,3156461676
33,23,14,Improv_Melody,146,9999,9999,9999,3156961352
33,23,14,Improv_Melody,147,9999,9999,9999,3157462080
33,23,14,Improv_Melody,148,9999,9999,9999,3157961832
33,23,14,Improv_Melody,149,9999,9999,9999,3158461488
33,23,14,Improv_Melody,150,9999,9999,9999,3158961212
33,23,14,Improv_Melody,151,9999,9999,9999,3159462004
33,23,14,Improv_Melody,152,9999,9999,9999,3159961668
33,23,14,Improv_Melody,153,9999,9999,9999,3160461408
33,23,14,Improv_Melody,154,9999,9999,9999,3160961112
33,23,14,Improv_Melody,155,9999,9999,9999,3161461840
33,23,14,Improv_Melody,156,9999,9999,9999,3161961568
33,23,14,Improv_Melody,157,9999,9999,9999,3162461264
33,23,14,Improv_Melody,158,9999,9999,9999,3162962028
33,23,14,Improv_Melody,159,9999,9999,9999,3165678964
33,23,14,Improv_Melody,160,9999,9999,9999,3165679168
33,23,14,Improv_Melody,161,9999,9999,9999,3165679452
